<?xml version="1.0" encoding="UTF-8" standalone="no"?>
<svg xmlns:ffdec="https://www.free-decompiler.com/flash" xmlns:xlink="http://www.w3.org/1999/xlink" ffdec:objectType="frame" height="178.3px" width="232.65px" xmlns="http://www.w3.org/2000/svg">
  <g transform="matrix(1.0, 0.0, 0.0, 1.0, 5.0, 5.0)">
    <use ffdec:characterId="723" height="178.3" transform="matrix(1.0, 0.0, 0.0, 1.0, -5.0, -5.0)" width="232.65" xlink:href="#shape0"/>
  </g>
  <defs>
    <g id="shape0" transform="matrix(1.0, 0.0, 0.0, 1.0, 5.0, 5.0)">
      <path d="M173.95 23.35 Q175.95 25.95 176.4 27.65 176.9 29.55 176.15 30.3 174.1 31.9 166.3 31.65 161.5 31.45 158.4 29.2 156.3 27.8 156.25 27.0 156.0 25.1 158.2 25.3 159.7 25.25 161.2 26.85 163.0 28.4 163.85 28.75 L171.4 28.4 Q172.0 28.05 171.85 27.3 170.7 22.8 168.45 22.4 L161.55 22.45 Q151.9 22.05 148.4 19.25 147.3 18.4 146.95 17.35 L146.9 16.4 Q146.6 14.45 147.3 14.0 149.0 12.65 156.75 12.75 159.4 13.1 159.7 14.5 159.9 15.9 158.5 15.75 L154.8 15.15 Q151.5 15.0 150.95 15.7 L151.1 16.5 Q151.2 17.9 153.25 18.65 156.5 19.8 165.2 19.45 L169.2 19.6 Q171.45 20.1 173.95 23.35 M181.0 29.1 Q182.2 28.85 184.65 29.95 190.4 32.4 191.55 35.5 192.55 38.4 192.0 39.2 190.15 41.75 179.5 40.9 179.05 41.95 179.45 43.4 179.55 44.05 186.9 46.55 L187.35 46.25 Q190.8 44.25 193.75 43.75 196.85 43.25 197.45 44.85 197.9 46.15 193.4 49.0 196.9 50.75 197.65 52.85 198.15 54.4 198.15 55.75 197.95 57.95 195.75 58.0 193.55 57.9 192.65 57.1 L192.2 56.1 Q192.0 55.45 192.4 54.3 L192.45 52.55 Q192.0 51.4 190.55 50.65 183.7 54.5 184.35 56.9 184.65 58.0 193.55 60.4 202.5 62.6 203.8 66.1 204.85 69.05 201.9 72.95 197.75 78.2 188.2 76.3 L189.1 79.75 190.7 80.85 199.45 82.0 199.65 82.15 201.55 80.45 Q203.3 78.05 206.45 77.95 209.55 77.75 210.45 80.3 211.7 83.8 207.05 86.1 L204.1 87.3 204.8 89.0 Q205.95 92.9 205.6 96.05 204.65 102.5 197.05 102.3 194.75 102.25 193.8 101.05 193.35 100.55 193.15 99.6 192.65 97.85 194.6 96.2 195.75 95.1 199.45 91.85 L198.55 88.9 195.85 89.5 Q187.1 91.45 184.15 93.0 178.8 95.25 179.6 99.05 180.0 100.95 183.5 105.15 187.1 109.4 187.45 110.65 187.95 113.2 184.65 117.0 179.7 122.35 169.75 122.25 167.05 122.05 165.1 121.4 160.0 127.2 157.9 131.65 153.35 140.5 139.2 143.55 L124.3 144.85 Q118.8 144.7 117.85 142.25 L117.95 139.6 Q118.05 136.65 119.2 135.7 121.25 133.75 126.95 136.1 L129.0 134.55 128.95 132.7 Q128.5 131.45 127.05 131.35 121.85 131.2 117.05 134.6 111.95 137.95 107.8 137.95 102.25 137.8 101.75 133.45 L102.3 128.85 Q102.95 123.1 104.85 120.15 107.8 115.4 115.4 112.35 L130.5 112.7 Q134.2 115.1 133.95 121.95 133.6 129.25 139.25 133.3 L146.9 133.45 Q154.7 122.4 159.25 116.6 L158.15 114.5 156.45 107.25 Q156.1 103.95 156.3 102.9 156.6 100.25 159.1 100.15 L166.15 100.35 Q168.05 100.9 169.15 102.1 169.8 102.8 169.9 103.5 170.4 106.85 163.2 106.6 L163.7 110.45 163.95 111.1 Q170.1 104.8 171.35 112.7 171.45 113.2 170.2 115.15 177.6 114.4 179.55 110.0 L174.6 103.65 Q173.65 102.2 173.15 99.05 170.9 86.5 186.3 85.9 L190.35 85.6 Q186.4 84.2 184.7 82.35 183.6 81.2 182.6 77.4 181.4 72.5 183.3 71.45 184.4 70.65 188.4 71.35 192.75 71.9 194.65 71.25 197.75 70.2 198.3 66.05 192.3 62.5 184.65 60.75 179.8 59.75 179.2 57.05 178.15 52.85 183.6 48.8 L183.55 48.75 Q175.4 47.0 174.6 43.6 173.85 40.5 174.5 39.6 176.15 36.55 185.7 37.55 187.05 37.3 187.2 36.55 L186.8 35.3 186.1 33.35 Q185.1 32.35 182.65 32.3 181.0 32.25 180.3 31.45 L179.95 30.85 Q179.5 29.15 181.0 29.1 M142.3 16.9 Q139.35 20.2 135.35 20.05 131.55 19.9 125.15 17.4 L121.15 15.65 121.0 15.75 Q113.05 19.15 101.65 18.8 96.2 18.55 94.1 16.5 91.0 17.65 90.4 19.0 L89.8 21.1 Q88.9 22.05 85.55 21.95 81.45 21.75 81.0 19.95 80.9 19.45 81.5 17.4 78.75 17.2 77.4 19.2 75.9 21.25 74.1 21.2 L73.55 21.2 Q74.45 22.8 73.55 25.2 73.0 26.45 71.0 27.65 68.25 29.1 64.6 29.05 61.95 28.95 61.45 26.7 61.4 24.45 61.5 24.6 61.75 23.7 63.0 23.45 L64.85 23.1 Q66.65 23.2 66.85 24.25 L66.5 25.4 67.2 25.8 68.3 25.55 69.05 24.7 68.75 22.75 68.3 21.1 Q63.05 21.35 59.95 22.55 58.05 23.15 55.35 24.45 L54.95 24.7 Q59.7 25.55 60.85 27.15 61.45 28.15 60.75 29.65 59.9 31.45 54.65 34.9 L50.45 37.5 Q52.65 38.5 53.35 39.7 53.75 40.5 51.9 44.75 L50.25 48.25 Q48.05 51.45 44.95 51.4 42.0 51.25 41.95 50.3 42.3 49.05 42.05 48.45 L37.3 48.3 Q36.95 49.55 37.15 54.45 37.35 59.1 37.05 59.95 L36.9 60.25 37.15 60.25 Q41.9 60.25 45.35 61.95 48.75 63.55 47.9 65.7 47.05 67.4 43.9 69.3 40.7 71.15 38.85 71.15 34.05 70.9 36.25 67.1 38.35 63.4 34.15 63.4 32.0 63.2 29.35 65.9 27.4 67.7 26.4 69.4 L26.25 69.7 31.6 69.95 Q33.2 72.05 31.8 76.45 L29.3 84.3 37.3 84.8 Q39.1 85.55 39.5 86.55 L39.25 87.95 Q37.75 91.1 34.65 91.1 23.4 90.65 22.3 88.45 21.05 86.2 25.7 74.95 L20.9 75.1 Q16.3 74.95 16.25 73.45 L17.3 71.7 Q22.3 62.85 31.15 60.9 30.0 59.1 30.5 54.4 L31.9 47.35 Q32.05 46.0 33.9 45.25 L46.05 44.9 47.25 43.15 Q48.2 41.15 47.6 40.95 43.65 40.1 40.05 38.45 38.75 38.85 36.55 41.7 34.45 44.4 30.75 45.45 L28.5 44.8 Q28.3 44.45 29.0 43.3 29.9 41.8 34.25 38.55 39.6 34.35 42.9 35.05 L46.5 36.05 46.75 35.65 Q47.55 34.05 51.85 31.7 L56.05 29.15 Q56.35 28.5 52.45 27.3 48.45 25.9 49.05 24.9 49.8 23.4 56.6 20.95 64.2 18.1 70.35 18.45 L72.4 19.65 72.55 18.95 Q72.85 18.05 73.85 17.65 L77.75 15.5 74.2 13.85 Q73.1 13.1 73.3 12.65 74.2 10.3 83.15 11.05 86.75 12.2 86.9 14.1 87.05 15.1 86.1 17.4 L89.75 15.4 92.7 14.2 Q92.35 13.25 92.6 12.3 L92.95 11.1 93.55 9.2 Q94.2 7.9 95.95 7.95 96.95 7.9 97.75 11.35 98.65 15.35 99.7 16.15 110.15 16.65 117.35 14.35 122.6 12.4 122.8 10.9 L122.75 9.75 Q122.45 9.3 121.25 8.75 L112.25 8.35 107.55 8.65 Q106.65 8.8 106.6 9.25 106.45 9.75 106.75 10.05 L107.55 10.65 110.85 10.75 111.65 9.85 Q112.25 9.15 113.4 9.25 114.85 9.25 115.25 10.2 L115.2 11.0 Q115.05 12.05 114.05 12.6 L108.85 13.2 Q103.95 12.95 102.8 10.95 L102.4 9.15 Q102.7 7.55 106.85 6.65 110.4 5.75 115.15 5.9 120.1 6.05 123.3 7.2 126.95 8.5 126.85 11.05 126.75 12.35 124.5 13.95 125.85 14.25 128.0 15.2 130.95 16.4 132.6 17.45 L136.95 17.55 140.45 12.6 140.3 12.1 140.2 12.25 140.0 11.9 139.0 11.75 136.0 13.3 Q132.8 14.75 130.75 14.65 129.25 14.6 128.85 14.0 L128.7 13.35 131.25 12.2 Q134.15 10.85 136.65 10.25 144.15 8.2 144.55 12.65 144.65 14.15 142.3 16.9 M41.85 96.25 Q39.95 98.0 39.5 99.3 39.3 99.75 39.95 102.35 L40.55 105.2 Q38.9 109.1 35.45 109.05 33.2 108.9 32.3 104.05 L31.85 99.7 Q35.45 91.35 41.1 89.05 45.65 87.1 51.0 89.25 55.65 91.35 58.85 95.6 62.05 100.1 61.0 103.8 59.55 108.25 58.55 109.5 56.45 111.55 48.25 116.05 54.2 119.0 60.0 123.95 59.75 123.25 59.8 122.7 59.6 120.65 60.7 118.2 L61.7 116.1 Q63.9 108.05 74.1 103.05 77.85 101.15 80.35 101.4 82.95 101.65 82.35 104.45 82.0 105.75 76.15 108.75 70.15 111.55 69.1 116.1 67.8 120.65 68.95 122.2 L77.0 122.0 Q78.3 120.95 78.6 120.05 L78.65 119.5 Q78.1 119.55 76.5 120.25 L74.25 121.0 70.95 119.8 Q70.75 118.9 71.35 116.6 71.6 115.3 72.35 114.7 73.35 113.4 76.2 112.2 L83.8 112.45 Q86.4 112.95 86.65 115.65 L86.1 119.4 Q85.2 124.1 84.25 125.55 80.8 130.0 71.15 129.9 L65.4 129.05 72.0 135.5 80.25 135.25 Q84.45 127.55 88.05 123.05 94.45 114.5 100.35 114.6 102.95 114.6 103.8 116.45 L104.0 118.5 Q103.85 119.05 98.95 123.05 93.1 127.45 91.45 131.2 90.7 132.6 89.1 138.65 85.65 144.15 75.25 143.9 66.35 143.7 50.5 129.7 36.95 117.9 37.5 116.75 38.25 114.65 45.65 110.8 52.75 107.0 53.95 103.65 54.7 101.1 53.05 99.15 51.3 97.25 45.8 94.0 44.0 93.95 41.85 96.25 M111.45 123.4 Q109.35 126.35 110.0 128.15 L109.9 129.0 120.25 125.1 Q126.65 122.4 126.8 119.7 L116.1 119.5 Q113.4 120.15 111.45 123.4" fill="#7ba6c3" fill-opacity="0.72156864" fill-rule="evenodd" stroke="none"/>
      <path d="M111.45 123.4 Q113.4 120.15 116.1 119.5 L126.8 119.7 Q126.65 122.4 120.25 125.1 L109.9 129.0 110.0 128.15 Q109.35 126.35 111.45 123.4" fill="url(#gradient0)" fill-rule="evenodd" stroke="none"/>
      <path d="M181.0 29.1 Q179.5 29.15 179.95 30.85 L180.3 31.45 Q181.0 32.25 182.65 32.3 185.1 32.35 186.1 33.35 L186.8 35.3 187.2 36.55 Q187.05 37.3 185.7 37.55 176.15 36.55 174.5 39.6 173.85 40.5 174.6 43.6 175.4 47.0 183.55 48.75 L183.6 48.8 Q178.15 52.85 179.2 57.05 179.8 59.75 184.65 60.75 192.3 62.5 198.3 66.05 197.75 70.2 194.65 71.25 192.75 71.9 188.4 71.35 184.4 70.65 183.3 71.45 181.4 72.5 182.6 77.4 183.6 81.2 184.7 82.35 186.4 84.2 190.35 85.6 L186.3 85.9 Q170.9 86.5 173.15 99.05 173.65 102.2 174.6 103.65 L179.55 110.0 Q177.6 114.4 170.2 115.15 171.45 113.2 171.35 112.7 170.1 104.8 163.95 111.1 L163.7 110.45 163.2 106.6 Q170.4 106.85 169.9 103.5 169.8 102.8 169.15 102.1 168.05 100.9 166.15 100.35 L159.1 100.15 Q156.6 100.25 156.3 102.9 156.1 103.95 156.45 107.25 L158.15 114.5 159.25 116.6 Q154.7 122.4 146.9 133.45 L139.25 133.3 Q133.6 129.25 133.95 121.95 134.2 115.1 130.5 112.7 L115.4 112.35 Q107.8 115.4 104.85 120.15 102.95 123.1 102.3 128.85 L101.75 133.45 Q102.25 137.8 107.8 137.95 111.95 137.95 117.05 134.6 121.85 131.2 127.05 131.35 128.5 131.45 128.95 132.7 L129.0 134.55 126.95 136.1 Q121.25 133.75 119.2 135.7 118.05 136.65 117.95 139.6 L117.85 142.25 Q118.8 144.7 124.3 144.85 L139.2 143.55 Q153.35 140.5 157.9 131.65 160.0 127.2 165.1 121.4 167.05 122.05 169.75 122.25 179.7 122.35 184.65 117.0 187.95 113.2 187.45 110.65 187.1 109.4 183.5 105.15 180.0 100.95 179.6 99.05 178.8 95.25 184.15 93.0 187.1 91.45 195.85 89.5 L198.55 88.9 199.45 91.85 Q195.75 95.1 194.6 96.2 192.65 97.85 193.15 99.6 193.35 100.55 193.8 101.05 194.75 102.25 197.05 102.3 204.65 102.5 205.6 96.05 205.95 92.9 204.8 89.0 L204.1 87.3 207.05 86.1 Q211.7 83.8 210.45 80.3 209.55 77.75 206.45 77.95 203.3 78.05 201.55 80.45 L199.65 82.15 199.45 82.0 190.7 80.85 189.1 79.75 188.2 76.3 Q197.75 78.2 201.9 72.95 204.85 69.05 203.8 66.1 202.5 62.6 193.55 60.4 184.65 58.0 184.35 56.9 183.7 54.5 190.55 50.65 192.0 51.4 192.45 52.55 L192.4 54.3 Q192.0 55.45 192.2 56.1 L192.65 57.1 Q193.55 57.9 195.75 58.0 197.95 57.95 198.15 55.75 198.15 54.4 197.65 52.85 196.9 50.75 193.4 49.0 197.9 46.15 197.45 44.85 196.85 43.25 193.75 43.75 190.8 44.25 187.35 46.25 L186.9 46.55 Q179.55 44.05 179.45 43.4 179.05 41.95 179.5 40.9 190.15 41.75 192.0 39.2 192.55 38.4 191.55 35.5 190.4 32.4 184.65 29.95 182.2 28.85 181.0 29.1 M173.95 23.35 Q171.45 20.1 169.2 19.6 L165.2 19.45 Q156.5 19.8 153.25 18.65 151.2 17.9 151.1 16.5 L150.95 15.7 Q151.5 15.0 154.8 15.15 L158.5 15.75 Q159.9 15.9 159.7 14.5 159.4 13.1 156.75 12.75 149.0 12.65 147.3 14.0 146.6 14.45 146.9 16.4 L146.95 17.35 Q147.3 18.4 148.4 19.25 151.9 22.05 161.55 22.45 L168.45 22.4 Q170.7 22.8 171.85 27.3 172.0 28.05 171.4 28.4 L163.85 28.75 Q163.0 28.4 161.2 26.85 159.7 25.25 158.2 25.3 156.0 25.1 156.25 27.0 156.3 27.8 158.4 29.2 161.5 31.45 166.3 31.65 174.1 31.9 176.15 30.3 176.9 29.55 176.4 27.65 175.95 25.95 173.95 23.35 M222.5 77.95 Q224.1 101.0 207.95 123.3 174.1 169.25 105.7 168.3 35.85 167.15 9.0 118.7 -0.5 101.6 0.05 84.65 0.6 66.15 12.8 47.95 29.65 22.6 62.95 9.65 90.4 -1.15 120.9 0.15 151.0 1.4 175.7 14.25 204.9 29.25 216.4 54.85 221.65 66.5 222.5 77.95 M41.85 96.25 Q44.0 93.95 45.8 94.0 51.3 97.25 53.05 99.15 54.7 101.1 53.95 103.65 52.75 107.0 45.65 110.8 38.25 114.65 37.5 116.75 36.95 117.9 50.5 129.7 66.35 143.7 75.25 143.9 85.65 144.15 89.1 138.65 90.7 132.6 91.45 131.2 93.1 127.45 98.95 123.05 103.85 119.05 104.0 118.5 L103.8 116.45 Q102.95 114.6 100.35 114.6 94.45 114.5 88.05 123.05 84.45 127.55 80.25 135.25 L72.0 135.5 65.4 129.05 71.15 129.9 Q80.8 130.0 84.25 125.55 85.2 124.1 86.1 119.4 L86.65 115.65 Q86.4 112.95 83.8 112.45 L76.2 112.2 Q73.35 113.4 72.35 114.7 71.6 115.3 71.35 116.6 70.75 118.9 70.95 119.8 L74.25 121.0 76.5 120.25 Q78.1 119.55 78.65 119.5 L78.6 120.05 Q78.3 120.95 77.0 122.0 L68.95 122.2 Q67.8 120.65 69.1 116.1 70.15 111.55 76.15 108.75 82.0 105.75 82.35 104.45 82.95 101.65 80.35 101.4 77.85 101.15 74.1 103.05 63.9 108.05 61.7 116.1 L60.7 118.2 Q59.6 120.65 59.8 122.7 59.75 123.25 60.0 123.95 54.2 119.0 48.25 116.05 56.45 111.55 58.55 109.5 59.55 108.25 61.0 103.8 62.05 100.1 58.85 95.6 55.65 91.35 51.0 89.25 45.65 87.1 41.1 89.05 35.45 91.35 31.85 99.7 L32.3 104.05 Q33.2 108.9 35.45 109.05 38.9 109.1 40.55 105.2 L39.95 102.35 Q39.3 99.75 39.5 99.3 39.95 98.0 41.85 96.25 M142.3 16.9 Q144.65 14.15 144.55 12.65 144.15 8.2 136.65 10.25 134.15 10.85 131.25 12.2 L128.7 13.35 128.85 14.0 Q129.25 14.6 130.75 14.65 132.8 14.75 136.0 13.3 L139.0 11.75 140.0 11.9 140.2 12.25 140.3 12.1 140.45 12.6 136.95 17.55 132.6 17.45 Q130.95 16.4 128.0 15.2 125.85 14.25 124.5 13.95 126.75 12.35 126.85 11.05 126.95 8.5 123.3 7.2 120.1 6.05 115.15 5.9 110.4 5.75 106.85 6.65 102.7 7.55 102.4 9.15 L102.8 10.95 Q103.95 12.95 108.85 13.2 L114.05 12.6 Q115.05 12.05 115.2 11.0 L115.25 10.2 Q114.85 9.25 113.4 9.25 112.25 9.15 111.65 9.85 L110.85 10.75 107.55 10.65 106.75 10.05 Q106.45 9.75 106.6 9.25 106.65 8.8 107.55 8.65 L112.25 8.35 121.25 8.75 Q122.45 9.3 122.75 9.75 L122.8 10.9 Q122.6 12.4 117.35 14.35 110.15 16.65 99.7 16.15 98.65 15.35 97.75 11.35 96.95 7.9 95.95 7.95 94.2 7.9 93.55 9.2 L92.95 11.1 92.6 12.3 Q92.35 13.25 92.7 14.2 L89.75 15.4 86.1 17.4 Q87.05 15.1 86.9 14.1 86.75 12.2 83.15 11.05 74.2 10.3 73.3 12.65 73.1 13.1 74.2 13.85 L77.75 15.5 73.85 17.65 Q72.85 18.05 72.55 18.95 L72.4 19.65 70.35 18.45 Q64.2 18.1 56.6 20.95 49.8 23.4 49.05 24.9 48.45 25.9 52.45 27.3 56.35 28.5 56.05 29.15 L51.85 31.7 Q47.55 34.05 46.75 35.65 L46.5 36.05 42.9 35.05 Q39.6 34.35 34.25 38.55 29.9 41.8 29.0 43.3 28.3 44.45 28.5 44.8 L30.75 45.45 Q34.45 44.4 36.55 41.7 38.75 38.85 40.05 38.45 43.65 40.1 47.6 40.95 48.2 41.15 47.25 43.15 L46.05 44.9 33.9 45.25 Q32.05 46.0 31.9 47.35 L30.5 54.4 Q30.0 59.1 31.15 60.9 22.3 62.85 17.3 71.7 L16.25 73.45 Q16.3 74.95 20.9 75.1 L25.7 74.95 Q21.05 86.2 22.3 88.45 23.4 90.65 34.65 91.1 37.75 91.1 39.25 87.95 L39.5 86.55 Q39.1 85.55 37.3 84.8 L29.3 84.3 31.8 76.45 Q33.2 72.05 31.6 69.95 L26.25 69.7 26.4 69.4 Q27.4 67.7 29.35 65.9 32.0 63.2 34.15 63.4 38.35 63.4 36.25 67.1 34.05 70.9 38.85 71.15 40.7 71.15 43.9 69.3 47.05 67.4 47.9 65.7 48.75 63.55 45.35 61.95 41.9 60.25 37.15 60.25 L36.9 60.25 37.05 59.95 Q37.35 59.1 37.15 54.45 36.95 49.55 37.3 48.3 L42.05 48.45 Q42.3 49.05 41.95 50.3 42.0 51.25 44.95 51.4 48.05 51.45 50.25 48.25 L51.9 44.75 Q53.75 40.5 53.35 39.7 52.65 38.5 50.45 37.5 L54.65 34.9 Q59.9 31.45 60.75 29.65 61.45 28.15 60.85 27.15 59.7 25.55 54.95 24.7 L55.35 24.45 Q58.05 23.15 59.95 22.55 63.05 21.35 68.3 21.1 L68.75 22.75 69.05 24.7 68.3 25.55 67.2 25.8 66.5 25.4 66.85 24.25 Q66.65 23.2 64.85 23.1 L63.0 23.45 Q61.75 23.7 61.5 24.6 61.4 24.45 61.45 26.7 61.95 28.95 64.6 29.05 68.25 29.1 71.0 27.65 73.0 26.45 73.55 25.2 74.45 22.8 73.55 21.2 L74.1 21.2 Q75.9 21.25 77.4 19.2 78.75 17.2 81.5 17.4 80.9 19.45 81.0 19.95 81.45 21.75 85.55 21.95 88.9 22.05 89.8 21.1 L90.4 19.0 Q91.0 17.65 94.1 16.5 96.2 18.55 101.65 18.8 113.05 19.15 121.0 15.75 L121.15 15.65 125.15 17.4 Q131.55 19.9 135.35 20.05 139.35 20.2 142.3 16.9" fill="url(#gradient1)" fill-rule="evenodd" stroke="none"/>
      <path d="M222.5 77.95 Q224.1 101.0 207.95 123.3 174.1 169.25 105.7 168.3 35.85 167.15 9.0 118.7 -0.5 101.6 0.05 84.65 0.6 66.15 12.8 47.95 29.65 22.6 62.95 9.65 90.4 -1.15 120.9 0.15 151.0 1.4 175.7 14.25 204.9 29.25 216.4 54.85 221.65 66.5 222.5 77.95 Z" fill="none" stroke="#8db2cc" stroke-linecap="round" stroke-linejoin="round" stroke-opacity="0.72156864" stroke-width="10.05"/>
    </g>
    <radialGradient cx="0" cy="0" gradientTransform="matrix(0.0891, 0.0038, -0.0045, 0.1045, 115.35, 88.7)" gradientUnits="userSpaceOnUse" id="gradient0" r="819.2" spreadMethod="pad">
      <stop offset="0.0" stop-color="#ffffff" stop-opacity="0.49803922"/>
      <stop offset="1.0" stop-color="#b8cfe0"/>
    </radialGradient>
    <radialGradient cx="0" cy="0" gradientTransform="matrix(0.1407, 0.0, 0.0, 0.1407, 109.6, 67.8)" gradientUnits="userSpaceOnUse" id="gradient1" r="819.2" spreadMethod="pad">
      <stop offset="0.0" stop-color="#ffffff" stop-opacity="0.49803922"/>
      <stop offset="1.0" stop-color="#b8cfe0"/>
    </radialGradient>
  </defs>
</svg>
