<?xml version="1.0" encoding="UTF-8" standalone="no"?>
<svg xmlns:ffdec="https://www.free-decompiler.com/flash" xmlns:xlink="http://www.w3.org/1999/xlink" ffdec:objectType="frame" height="68.0px" width="333.0px" xmlns="http://www.w3.org/2000/svg">
  <g transform="matrix(1.0, 0.0, 0.0, 1.0, 0.0, -1.5)">
    <use ffdec:characterId="714" height="60.5" transform="matrix(1.0, 0.0, 0.0, 1.0, 0.0, 5.0)" width="333.0" xlink:href="#morphshape0"/>
  </g>
  <defs>
    <g id="morphshape0" transform="matrix(1.0, 0.0, 0.0, 1.0, 0.0, -5.0)">
      <path d="M312.65 39.05 L313.95 38.65 312.65 39.05 M0.0 41.05 Q0.0 42.55 5.35 45.25 10.95 48.0 20.0 50.4 L20.95 52.95 Q12.35 53.2 10.3 54.45 9.5 54.85 9.5 56.4 L9.3 57.85 Q9.5 59.55 11.4 60.95 17.4 65.5 38.05 65.5 L100.85 60.55 102.85 60.35 Q123.2 61.15 147.0 61.15 L193.5 59.45 194.65 59.35 217.5 57.25 220.85 57.7 Q270.2 64.65 305.4 64.65 319.2 64.65 322.55 62.25 323.5 61.6 323.5 58.65 323.5 55.15 322.05 53.9 L312.55 48.0 Q317.5 46.35 326.65 44.05 331.1 42.95 331.1 41.75 331.1 40.45 326.35 37.85 L322.8 35.6 Q327.3 33.75 327.3 32.7 327.3 31.2 325.4 29.95 L327.3 28.6 Q333.0 24.65 333.0 23.0 333.0 21.05 322.05 18.05 308.45 14.25 286.1 11.7 264.0 9.2 237.5 8.3 208.85 5.0 157.0 5.0 L126.75 7.95 Q118.25 7.55 112.35 7.85 109.2 6.3 97.9 5.9 83.65 5.45 63.45 6.8 42.9 8.25 29.0 10.85 13.3 13.65 13.3 16.75 13.3 21.7 22.75 23.5 L24.95 23.95 Q7.6 28.2 7.6 31.9 8.85 33.85 10.1 35.75 5.8 36.8 3.5 37.6 0.0 38.9 0.0 41.05" fill="#d5eeed" fill-opacity="0.7882353" fill-rule="evenodd" stroke="none"/>
      <path d="M0.0 41.05 Q0.0 38.9 3.5 37.6 5.8 36.8 10.1 35.75 8.85 33.85 7.6 31.9 7.6 28.2 24.95 23.95 L22.75 23.5 Q13.3 21.7 13.3 16.75 13.3 13.65 29.0 10.85 42.9 8.25 63.45 6.8 83.65 5.45 97.9 5.9 109.2 6.3 112.35 7.85 118.25 7.55 126.75 7.95 L157.0 5.0 Q208.85 5.0 237.5 8.3 264.0 9.2 286.1 11.7 308.45 14.25 322.05 18.05 333.0 21.05 333.0 23.0 333.0 24.65 327.3 28.6 L325.4 29.95 Q327.3 31.2 327.3 32.7 327.3 33.75 322.8 35.6 L326.35 37.85 Q331.1 40.45 331.1 41.75 331.1 42.95 326.65 44.05 317.5 46.35 312.55 48.0 L322.05 53.9 Q323.5 55.15 323.5 58.65 323.5 61.6 322.55 62.25 319.2 64.65 305.4 64.65 270.2 64.65 220.85 57.7 L217.5 57.25 194.65 59.35 193.5 59.45 147.0 61.15 Q123.2 61.15 102.85 60.35 L100.85 60.55 38.05 65.5 Q17.4 65.5 11.4 60.95 9.5 59.55 9.3 57.85 L9.5 56.4 Q9.5 54.85 10.3 54.45 12.35 53.2 20.95 52.95 L20.0 50.4 Q10.95 48.0 5.35 45.25 0.0 42.55 0.0 41.05 M312.65 39.05 L313.95 38.65 312.65 39.05 Z" fill="none" stroke="#000000" stroke-linecap="round" stroke-linejoin="round" stroke-opacity="0.0" stroke-width="0.0"/>
    </g>
  </defs>
</svg>
