<?xml version="1.0" encoding="UTF-8" standalone="no"?>
<svg xmlns:ffdec="https://www.free-decompiler.com/flash" xmlns:xlink="http://www.w3.org/1999/xlink" ffdec:objectType="frame" height="68.0px" width="333.0px" xmlns="http://www.w3.org/2000/svg">
  <g transform="matrix(1.0, 0.0, 0.0, 1.0, 0.0, -1.5)">
    <use ffdec:characterId="714" height="60.5" transform="matrix(1.0, 0.0, 0.0, 1.0, 0.0, 5.0)" width="333.0" xlink:href="#morphshape0"/>
  </g>
  <defs>
    <g id="morphshape0" transform="matrix(1.0, 0.0, 0.0, 1.0, 0.0, -5.0)">
      <path d="M310.35 38.7 L311.65 38.3 310.35 38.7 M1.7 40.8 Q1.7 42.3 7.0 44.95 12.55 47.65 21.5 50.0 L22.45 52.5 Q13.95 52.75 11.95 54.0 11.15 54.4 11.15 55.9 L10.95 57.35 Q11.15 59.0 13.0 60.4 18.95 64.9 39.35 64.9 L101.35 60.0 103.3 59.8 Q123.4 60.6 146.9 60.6 L192.8 58.9 193.95 58.8 216.5 56.75 219.8 57.2 Q268.55 64.05 303.3 64.05 316.95 64.05 320.25 61.7 321.2 61.05 321.2 58.15 321.2 54.7 319.75 53.45 L310.35 47.6 Q315.6 45.9 324.3 43.7 328.7 42.6 328.7 41.4 328.7 40.1 324.0 37.55 L320.5 35.35 Q324.95 33.5 324.95 32.45 324.95 30.95 323.05 29.7 L324.95 28.35 Q330.6 24.45 330.6 22.85 330.6 20.95 319.8 18.0 306.35 14.25 284.3 11.75 262.45 9.3 236.3 8.4 208.0 5.15 156.8 5.15 L126.95 8.05 Q118.55 7.65 112.7 7.95 109.6 6.4 98.45 6.0 84.35 5.55 64.4 6.9 44.1 8.3 30.35 10.85 14.85 13.6 14.85 16.65 14.85 21.55 24.2 23.35 L26.35 23.8 Q9.2 28.0 9.2 31.65 10.2 33.3 11.65 35.45 7.55 36.45 5.1 37.25 1.65 38.55 1.65 40.65" fill="#d3edec" fill-opacity="0.6431373" fill-rule="evenodd" stroke="none"/>
      <path d="M1.65 40.65 Q1.65 38.55 5.1 37.25 7.55 36.45 11.65 35.45 10.2 33.3 9.2 31.65 9.2 28.0 26.35 23.8 L24.2 23.35 Q14.85 21.55 14.85 16.65 14.85 13.6 30.35 10.85 44.1 8.3 64.4 6.9 84.35 5.55 98.45 6.0 109.6 6.4 112.7 7.95 118.55 7.65 126.95 8.05 L156.8 5.15 Q208.0 5.15 236.3 8.4 262.45 9.3 284.3 11.75 306.35 14.25 319.8 18.0 330.6 20.95 330.6 22.85 330.6 24.45 324.95 28.35 L323.05 29.7 Q324.95 30.95 324.95 32.45 324.95 33.5 320.5 35.35 L324.0 37.55 Q328.7 40.1 328.7 41.4 328.7 42.6 324.3 43.7 315.6 45.9 310.35 47.6 L319.75 53.45 Q321.2 54.7 321.2 58.15 321.2 61.05 320.25 61.7 316.95 64.05 303.3 64.05 268.55 64.05 219.8 57.2 L216.5 56.75 193.95 58.8 192.8 58.9 146.9 60.6 Q123.4 60.6 103.3 59.8 L101.35 60.0 39.35 64.9 Q18.95 64.9 13.0 60.4 11.15 59.0 10.95 57.35 L11.15 55.9 Q11.15 54.4 11.95 54.0 13.95 52.75 22.45 52.5 L21.5 50.0 Q12.55 47.65 7.0 44.95 1.7 42.3 1.7 40.8 M310.35 38.7 L311.65 38.3 310.35 38.7 Z" fill="none" stroke="#000000" stroke-linecap="round" stroke-linejoin="round" stroke-opacity="0.0" stroke-width="0.0"/>
    </g>
  </defs>
</svg>
