<?xml version="1.0" encoding="UTF-8" standalone="no"?>
<svg xmlns:ffdec="https://www.free-decompiler.com/flash" xmlns:xlink="http://www.w3.org/1999/xlink" ffdec:objectType="frame" height="68.0px" width="333.0px" xmlns="http://www.w3.org/2000/svg">
  <g transform="matrix(1.0, 0.0, 0.0, 1.0, 0.0, -1.5)">
    <use ffdec:characterId="714" height="60.5" transform="matrix(1.0, 0.0, 0.0, 1.0, 0.0, 5.0)" width="333.0" xlink:href="#morphshape0"/>
  </g>
  <defs>
    <g id="morphshape0" transform="matrix(1.0, 0.0, 0.0, 1.0, 0.0, -5.0)">
      <path d="M309.2 38.5 L310.45 38.1 309.2 38.5 M2.55 40.5 Q2.55 41.95 7.8 44.6 13.3 47.3 22.15 49.65 L23.1 52.15 Q14.65 52.4 12.65 53.6 11.85 54.0 11.85 55.5 L11.65 56.9 Q11.85 58.55 13.7 59.9 19.6 64.35 39.85 64.35 L101.5 59.5 103.45 59.3 Q123.4 60.1 146.75 60.1 L192.4 58.45 193.5 58.35 215.9 56.3 219.2 56.75 Q267.6 63.55 302.15 63.55 315.7 63.55 319.0 61.2 319.95 60.55 319.95 57.65 319.95 54.2 318.55 53.0 L309.25 47.2 Q314.65 45.5 323.1 43.35 327.45 42.25 327.45 41.05 327.45 39.8 322.8 37.25 L319.3 35.05 Q323.7 33.25 323.7 32.25 323.7 30.8 321.85 29.6 L323.7 28.3 Q329.3 24.45 329.3 22.85 329.3 20.95 318.55 18.0 305.2 14.25 283.25 11.75 261.55 9.3 235.55 8.4 207.45 5.15 156.6 5.15 L126.9 8.05 Q118.55 7.65 112.75 7.95 109.65 6.45 98.55 6.05 84.55 5.6 64.75 6.95 44.6 8.35 30.95 10.9 15.55 13.65 15.55 16.7 15.55 21.55 24.8 23.3 L26.95 23.75 Q9.9 27.9 9.9 31.5 10.8 33.0 12.35 35.3 8.4 36.3 5.9 37.1 2.45 38.35 2.45 40.45" fill="#d2edec" fill-opacity="0.57254905" fill-rule="evenodd" stroke="none"/>
      <path d="M2.45 40.45 Q2.45 38.35 5.9 37.1 8.4 36.3 12.35 35.3 10.8 33.0 9.9 31.5 9.9 27.9 26.95 23.75 L24.8 23.3 Q15.55 21.55 15.55 16.7 15.55 13.65 30.95 10.9 44.6 8.35 64.75 6.95 84.55 5.6 98.55 6.05 109.65 6.45 112.75 7.95 118.55 7.65 126.9 8.05 L156.6 5.15 Q207.45 5.15 235.55 8.4 261.55 9.3 283.25 11.75 305.2 14.25 318.55 18.0 329.3 20.95 329.3 22.85 329.3 24.45 323.7 28.3 L321.85 29.6 Q323.7 30.8 323.7 32.25 323.7 33.25 319.3 35.05 L322.8 37.25 Q327.45 39.8 327.45 41.05 327.45 42.25 323.1 43.35 314.65 45.5 309.25 47.2 L318.55 53.0 Q319.95 54.2 319.95 57.65 319.95 60.55 319.0 61.2 315.7 63.55 302.15 63.55 267.6 63.55 219.2 56.75 L215.9 56.3 193.5 58.35 192.4 58.45 146.75 60.1 Q123.4 60.1 103.45 59.3 L101.5 59.5 39.85 64.35 Q19.6 64.35 13.7 59.9 11.85 58.55 11.65 56.9 L11.85 55.5 Q11.85 54.0 12.65 53.6 14.65 52.4 23.1 52.15 L22.15 49.65 Q13.3 47.3 7.8 44.6 2.55 41.95 2.55 40.5 M309.2 38.5 L310.45 38.1 309.2 38.5 Z" fill="none" stroke="#000000" stroke-linecap="round" stroke-linejoin="round" stroke-opacity="0.0" stroke-width="0.0"/>
    </g>
  </defs>
</svg>
