<?xml version="1.0" encoding="UTF-8" standalone="no"?>
<svg xmlns:ffdec="https://www.free-decompiler.com/flash" xmlns:xlink="http://www.w3.org/1999/xlink" ffdec:objectType="frame" height="68.0px" width="333.0px" xmlns="http://www.w3.org/2000/svg">
  <g transform="matrix(1.0, 0.0, 0.0, 1.0, 0.0, -1.5)">
    <use ffdec:characterId="714" height="60.5" transform="matrix(1.0, 0.0, 0.0, 1.0, 0.0, 5.0)" width="333.0" xlink:href="#morphshape0"/>
  </g>
  <defs>
    <g id="morphshape0" transform="matrix(1.0, 0.0, 0.0, 1.0, 0.0, -5.0)">
      <path d="M305.8 37.95 L307.05 37.55 305.8 37.95 M4.9 39.75 Q4.9 41.2 10.05 43.8 15.45 46.45 24.15 48.75 L25.05 51.2 Q16.8 51.45 14.85 52.65 14.1 53.05 14.1 54.5 L13.9 55.9 Q14.1 57.5 15.9 58.85 21.7 63.2 41.55 63.2 L102.0 58.45 103.9 58.3 Q123.5 59.05 146.4 59.05 L191.15 57.4 192.25 57.35 214.25 55.35 217.5 55.75 Q265.0 62.4 298.85 62.4 312.15 62.4 315.35 60.1 316.25 59.5 316.25 56.7 316.25 53.35 314.85 52.15 L305.7 46.45 Q311.55 44.7 319.3 42.65 323.55 41.6 323.55 40.45 323.55 39.2 319.0 36.7 L315.6 34.55 Q319.95 32.75 319.95 31.75 319.95 30.3 318.1 29.1 L319.95 27.8 Q325.45 24.0 325.45 22.45 325.45 20.6 314.9 17.7 301.8 14.05 280.3 11.6 259.0 9.2 233.5 8.35 205.9 5.2 156.0 5.2 L126.9 8.0 Q118.75 7.65 113.05 7.95 110.0 6.45 99.15 6.1 85.4 5.65 65.95 6.95 46.2 8.3 32.8 10.8 17.7 13.5 17.7 16.5 17.7 21.25 26.8 23.0 L28.9 23.4 Q12.2 27.5 12.2 31.05 12.75 32.1 14.6 34.75 10.95 35.7 8.25 36.55 4.9 37.8 4.9 39.85" fill="#cfeceb" fill-opacity="0.35686275" fill-rule="evenodd" stroke="none"/>
      <path d="M4.9 39.85 Q4.9 37.8 8.25 36.55 10.95 35.7 14.6 34.75 12.75 32.1 12.2 31.05 12.2 27.5 28.9 23.4 L26.8 23.0 Q17.7 21.25 17.7 16.5 17.7 13.5 32.8 10.8 46.2 8.3 65.95 6.95 85.4 5.65 99.15 6.1 110.0 6.45 113.05 7.95 118.75 7.65 126.9 8.0 L156.0 5.2 Q205.9 5.2 233.5 8.35 259.0 9.2 280.3 11.6 301.8 14.05 314.9 17.7 325.45 20.6 325.45 22.45 325.45 24.0 319.95 27.8 L318.1 29.1 Q319.95 30.3 319.95 31.75 319.95 32.75 315.6 34.55 L319.0 36.7 Q323.55 39.2 323.55 40.45 323.55 41.6 319.3 42.65 311.55 44.7 305.7 46.45 L314.85 52.15 Q316.25 53.35 316.25 56.7 316.25 59.5 315.35 60.1 312.15 62.4 298.85 62.4 265.0 62.4 217.5 55.75 L214.25 55.35 192.25 57.35 191.15 57.4 146.4 59.05 Q123.5 59.05 103.9 58.3 L102.0 58.45 41.55 63.2 Q21.7 63.2 15.9 58.85 14.1 57.5 13.9 55.9 L14.1 54.5 Q14.1 53.05 14.85 52.65 16.8 51.45 25.05 51.2 L24.15 48.75 Q15.45 46.45 10.05 43.8 4.9 41.2 4.9 39.75 M305.8 37.95 L307.05 37.55 305.8 37.95 Z" fill="none" stroke="#000000" stroke-linecap="round" stroke-linejoin="round" stroke-opacity="0.0" stroke-width="0.0"/>
    </g>
  </defs>
</svg>
