<?xml version="1.0" encoding="UTF-8" standalone="no"?>
<svg xmlns:ffdec="https://www.free-decompiler.com/flash" xmlns:xlink="http://www.w3.org/1999/xlink" ffdec:objectType="frame" height="68.0px" width="333.0px" xmlns="http://www.w3.org/2000/svg">
  <g transform="matrix(1.0, 0.0, 0.0, 1.0, 0.0, -1.5)">
    <use ffdec:characterId="714" height="60.5" transform="matrix(1.0, 0.0, 0.0, 1.0, 0.0, 5.0)" width="333.0" xlink:href="#morphshape0"/>
  </g>
  <defs>
    <g id="morphshape0" transform="matrix(1.0, 0.0, 0.0, 1.0, 0.0, -5.0)">
      <path d="M302.35 37.4 L303.55 37.0 302.35 37.4 M7.3 39.1 Q7.3 40.5 12.35 43.05 17.6 45.65 26.1 47.95 L27.0 50.35 Q18.9 50.6 16.95 51.75 16.2 52.15 16.2 53.6 L16.0 54.95 Q16.2 56.55 18.0 57.85 23.65 62.1 43.1 62.1 L102.4 57.45 104.3 57.3 Q123.5 58.05 145.95 58.05 L189.85 56.45 190.9 56.4 212.45 54.4 215.65 54.8 Q262.2 61.3 295.4 61.3 308.4 61.3 311.55 59.05 312.45 58.45 312.45 55.7 312.45 52.4 311.1 51.25 L302.15 45.7 Q308.45 43.95 315.45 42.05 319.6 41.0 319.6 39.85 319.6 38.65 315.15 36.2 L311.8 34.1 Q316.05 32.35 316.05 31.4 316.05 30.0 314.25 28.85 L316.05 27.6 Q321.4 23.9 321.4 22.35 321.4 20.5 311.05 17.65 298.25 14.05 277.15 11.65 256.3 9.3 231.3 8.45 204.25 5.35 155.35 5.35 L126.8 8.1 Q118.8 7.75 113.25 8.05 110.25 6.6 99.6 6.25 86.15 5.8 67.1 7.1 47.75 8.45 34.65 10.9 19.85 13.55 19.85 16.5 19.85 21.1 28.75 22.8 L30.85 23.2 Q14.45 27.2 14.45 30.65 14.7 31.25 16.85 34.3 13.55 35.2 10.65 36.05 7.35 37.25 7.35 39.25" fill="#ccebea" fill-opacity="0.14509805" fill-rule="evenodd" stroke="none"/>
      <path d="M7.35 39.25 Q7.35 37.25 10.65 36.05 13.55 35.2 16.85 34.3 14.7 31.25 14.45 30.65 14.45 27.2 30.85 23.2 L28.75 22.8 Q19.85 21.1 19.85 16.5 19.85 13.55 34.65 10.9 47.75 8.45 67.1 7.1 86.15 5.8 99.6 6.25 110.25 6.6 113.25 8.05 118.8 7.75 126.8 8.1 L155.35 5.35 Q204.25 5.35 231.3 8.45 256.3 9.3 277.15 11.65 298.25 14.05 311.05 17.65 321.4 20.5 321.4 22.35 321.4 23.9 316.05 27.6 L314.25 28.85 Q316.05 30.0 316.05 31.4 316.05 32.35 311.8 34.1 L315.15 36.2 Q319.6 38.65 319.6 39.85 319.6 41.0 315.45 42.05 308.45 43.95 302.15 45.7 L311.1 51.25 Q312.45 52.4 312.45 55.7 312.45 58.45 311.55 59.05 308.4 61.3 295.4 61.3 262.2 61.3 215.65 54.8 L212.45 54.4 190.9 56.4 189.85 56.45 145.95 58.05 Q123.5 58.05 104.3 57.3 L102.4 57.45 43.1 62.1 Q23.65 62.1 18.0 57.85 16.2 56.55 16.0 54.95 L16.2 53.6 Q16.2 52.15 16.95 51.75 18.9 50.6 27.0 50.35 L26.1 47.95 Q17.6 45.65 12.35 43.05 7.3 40.5 7.3 39.1 M302.35 37.4 L303.55 37.0 302.35 37.4 Z" ffdec:has-small-stroke="true" ffdec:original-stroke-width="0.0" fill="none" stroke="#000000" stroke-linecap="round" stroke-linejoin="round" stroke-opacity="0.0" stroke-width="1.0"/>
    </g>
  </defs>
</svg>
