<?xml version="1.0" encoding="UTF-8" standalone="no"?>
<svg xmlns:ffdec="https://www.free-decompiler.com/flash" xmlns:xlink="http://www.w3.org/1999/xlink" ffdec:objectType="frame" height="147.2px" width="196.65px" xmlns="http://www.w3.org/2000/svg">
  <g transform="matrix(1.0, 0.0, 0.0, 1.0, 92.3, 141.7)">
    <use ffdec:characterId="101" height="43.5" transform="matrix(1.0, 0.0, 0.0, 1.0, -39.5, -42.5)" width="134.5" xlink:href="#shape0"/>
    <use ffdec:characterId="377" height="55.85" transform="matrix(1.0, 0.0, 0.0, 1.0, -49.5, -54.35)" width="150.0" xlink:href="#shape1"/>
  </g>
  <defs>
    <g id="shape0" transform="matrix(1.0, 0.0, 0.0, 1.0, 67.25, 21.75)">
      <path d="M10.3 -14.4 L10.9 -16.55 11.1 -17.25 10.4 -16.65 Q7.65 -14.25 6.75 -12.95 L4.5 -9.4 Q3.3 -6.9 4.25 -5.45 L4.25 -0.6 4.55 -0.5 Q4.65 0.3 4.25 1.6 4.3 2.0 5.0 2.25 L7.4 2.5 9.25 2.35 10.05 1.55 Q9.2 0.45 8.85 -1.6 L8.75 -4.25 Q8.75 -7.5 9.95 -13.1 L10.3 -14.4 M12.6 -15.5 Q11.45 -13.0 11.25 -11.95 10.95 -10.65 10.85 -8.15 L10.95 -8.15 Q12.05 -7.8 13.25 -6.45 14.85 -4.95 17.8 -5.4 19.35 -5.65 20.75 -4.25 L20.75 -8.7 Q21.6 -9.65 22.05 -11.7 22.55 -14.05 23.1 -15.0 25.25 -18.8 35.25 -19.5 45.5 -24.1 55.2 -14.7 59.0 -11.05 61.45 -6.3 63.75 -1.85 63.75 1.3 63.75 4.85 61.75 8.05 60.5 10.05 58.75 11.2 L60.0 11.8 Q60.65 11.1 62.05 10.3 63.85 9.25 65.0 9.25 66.55 9.25 67.05 11.3 L67.25 13.35 Q67.25 16.45 65.05 17.35 L65.5 18.25 65.8 18.25 66.05 18.4 Q66.25 18.5 66.25 19.25 L66.1 19.95 Q65.9 19.95 65.8 20.25 L64.95 20.25 64.75 20.25 64.5 20.25 46.8 20.85 Q43.5 21.7 40.75 21.75 L-66.35 21.75 -66.55 21.6 -66.75 20.9 -67.2 20.15 -67.25 19.25 Q-67.25 16.5 -65.55 14.9 L-60.1 10.55 Q-59.35 9.9 -57.75 9.25 -56.7 8.8 -56.7 8.15 L-56.75 7.05 Q-56.3 6.15 -54.6 4.9 L-51.85 3.0 Q-48.35 0.55 -44.7 2.4 L-44.65 2.45 Q-42.55 1.1 -41.1 0.45 L-40.75 -0.45 -40.3 -2.7 Q-40.0 -3.85 -38.5 -4.95 -36.3 -6.6 -27.75 -6.7 L-26.45 -8.1 Q-24.05 -9.9 -20.05 -7.15 -19.55 -10.3 -17.95 -13.2 -15.2 -18.05 -10.25 -20.25 L-9.7 -20.05 -9.75 -18.6 -9.4 -15.5 Q-10.55 -13.0 -10.75 -11.95 -11.05 -10.6 -11.15 -8.1 L-10.4 -8.45 -8.85 -8.85 Q-8.3 -11.65 -6.95 -14.3 -4.2 -19.4 0.75 -21.75 L1.3 -21.55 1.25 -20.0 1.6 -16.7 Q0.45 -14.05 0.25 -12.95 L-0.15 -9.4 1.0 -9.45 2.45 -9.3 Q3.0 -11.3 4.05 -13.2 6.8 -18.05 11.75 -20.25 L12.3 -20.05 12.25 -18.6 12.6 -15.5 M2.0 -0.35 L1.9 -0.9 1.8 -2.95 1.75 -3.0 1.75 -3.75 1.65 -5.75 1.8 -5.65 2.0 -7.25 0.4 -7.55 -0.2 -7.75 -0.2 -7.6 -0.25 -5.0 Q-0.25 -3.35 0.45 -0.25 L0.75 1.05 0.75 1.1 0.75 1.55 0.6 2.4 Q0.3 3.15 -0.5 3.75 -1.75 4.75 -3.25 4.75 -7.0 4.75 -7.95 3.4 L-8.2 2.3 -8.25 1.8 Q-8.9 0.5 -9.1 -1.25 L-9.1 -1.3 -9.2 -3.4 -9.25 -3.45 -9.25 -4.25 -9.35 -6.4 -9.2 -6.25 -9.15 -6.75 -9.45 -6.55 -11.25 -5.75 -11.25 -4.45 -11.25 -4.4 -11.25 -4.25 -10.95 -1.95 -10.25 1.25 -10.25 1.3 -10.25 1.75 Q-10.25 2.3 -10.55 2.85 L-11.5 3.8 Q-12.75 4.75 -14.25 4.75 L-16.25 4.65 -16.55 4.6 -16.25 4.75 Q-18.05 5.8 -19.25 5.65 -20.75 5.5 -22.75 6.25 L-23.5 6.0 -23.75 5.1 -23.75 5.0 Q-23.75 3.4 -21.85 3.2 -20.6 3.1 -18.75 3.7 L-18.95 3.5 Q-19.2 3.15 -19.25 1.95 -19.9 0.75 -20.1 -0.9 L-20.15 -1.45 -20.2 -2.95 -20.25 -3.0 -20.25 -3.75 -20.35 -5.75 -20.2 -5.65 -20.1 -6.6 Q-21.05 -6.0 -22.5 -6.2 -24.5 -6.5 -25.0 -6.2 L-25.45 -4.5 Q-25.85 -3.55 -27.25 -3.25 L-28.0 -3.6 -28.1 -3.75 -30.4 -3.85 -35.2 -4.0 -36.35 -3.45 Q-37.55 -2.85 -37.75 -2.45 L-38.45 -0.5 -38.6 0.15 -38.25 0.75 -39.4 1.95 Q-40.3 3.0 -41.65 3.5 L-41.7 3.5 -42.6 4.95 Q-43.15 5.75 -44.0 5.75 -44.9 5.75 -45.55 3.85 -49.2 3.85 -50.25 4.55 L-52.45 5.95 Q-53.95 7.0 -54.35 7.75 L-54.5 9.7 Q-54.6 11.05 -55.75 11.25 -58.15 11.65 -61.5 14.3 -63.15 15.65 -64.3 17.55 L-65.65 20.05 -61.45 19.5 Q-54.0 18.9 -35.95 19.0 L8.65 19.5 31.3 18.9 57.35 18.35 57.4 18.35 62.4 18.3 62.3 17.75 Q59.9 17.55 58.75 15.3 L58.1 13.45 57.75 12.8 57.2 12.8 Q54.6 12.85 54.0 13.55 53.4 14.25 52.5 14.25 L50.75 14.0 Q50.05 14.0 50.3 13.25 L50.55 12.05 50.7 11.65 50.6 11.7 Q49.9 11.7 46.55 10.5 L45.8 7.75 45.75 7.75 45.5 6.8 44.3 6.8 Q40.45 6.95 38.3 9.4 35.7 12.25 33.25 12.25 30.95 12.25 30.7 11.75 30.8 11.0 30.25 10.5 L24.55 9.5 24.25 7.75 24.05 5.75 Q23.75 5.75 23.75 5.3 19.45 6.35 17.2 5.35 16.0 4.75 15.8 4.1 L14.75 3.4 Q13.85 2.5 12.9 2.5 12.0 2.5 10.65 3.9 9.3 5.25 5.5 5.25 3.7 5.25 3.25 4.55 L3.75 4.1 3.05 3.5 2.85 2.85 2.85 2.8 2.8 2.5 2.75 1.95 Q2.2 0.95 2.0 -0.35 M19.75 -1.5 L19.75 -2.7 Q12.9 -3.0 11.55 -4.65 L10.8 -6.0 10.75 -4.45 Q10.75 -2.85 11.5 0.15 13.75 -1.15 15.55 0.4 L17.05 1.85 17.95 0.95 20.0 -1.3 20.1 -1.4 19.75 -1.5 M26.3 -10.0 L28.1 -9.75 Q29.85 -9.25 30.8 -8.5 32.25 -7.5 32.6 -6.25 L32.75 -4.0 Q32.75 -1.85 32.0 -0.25 30.55 2.75 27.0 2.75 24.9 2.75 23.8 1.95 L23.1 1.15 23.0 0.95 22.75 -1.0 22.85 -1.55 23.85 -5.55 Q24.95 -9.5 25.25 -9.7 L25.3 -9.7 Q25.7 -9.95 26.3 -10.0 M22.9 3.5 L24.8 3.5 Q26.05 4.3 26.2 5.75 L26.3 7.0 26.25 7.55 26.9 7.55 26.75 7.0 Q26.75 5.0 29.0 4.65 31.25 4.3 31.25 6.4 31.25 7.15 30.75 7.75 L30.7 7.8 Q31.65 8.05 31.95 8.6 L32.35 9.55 Q32.65 10.0 33.55 10.0 35.15 10.0 37.3 7.4 37.95 6.6 38.75 6.05 35.65 5.65 34.05 4.5 32.75 3.55 32.75 2.4 32.75 -3.65 40.0 -3.95 42.85 -4.05 45.0 -2.9 47.25 -1.65 47.25 0.35 47.25 2.7 46.55 4.0 L45.75 5.1 Q47.25 5.55 47.9 6.65 48.5 7.6 48.25 8.3 51.15 8.15 52.1 9.55 L52.3 10.15 52.5 10.75 52.55 10.85 55.15 9.65 Q58.95 8.05 59.55 7.3 61.55 5.0 61.75 4.15 L61.75 1.75 Q61.75 -3.7 57.25 -8.5 56.5 -11.25 54.5 -13.35 50.65 -17.5 41.65 -17.5 30.3 -17.5 27.5 -15.95 24.25 -14.2 22.75 -6.25 L22.65 -3.25 22.5 -1.6 22.05 -0.25 22.05 -0.2 22.0 -0.15 20.3 1.9 20.2 2.05 19.0 3.3 19.3 3.3 22.9 3.5 M38.85 -0.95 Q38.25 -1.85 37.5 -1.2 L38.85 1.45 Q37.25 2.75 37.25 3.65 L37.3 4.15 37.75 4.2 39.65 2.6 41.0 3.95 41.5 3.45 40.4 1.95 40.5 1.85 Q42.75 -0.1 42.75 -0.55 L42.6 -0.95 42.25 -1.05 39.75 0.8 39.6 0.45 38.85 -0.95 M28.25 -3.9 L28.1 -4.25 27.35 -5.65 Q26.75 -6.55 26.0 -5.9 26.45 -4.65 27.35 -3.25 25.75 -1.95 25.75 -1.05 L25.8 -0.55 26.25 -0.5 28.15 -2.1 29.5 -0.75 30.0 -1.25 28.9 -2.75 29.0 -2.85 Q31.25 -4.8 31.25 -5.25 L31.1 -5.65 30.75 -5.75 28.25 -3.9 M61.05 14.85 Q61.2 15.55 62.0 15.55 64.8 15.55 65.2 13.95 65.45 12.85 64.75 11.55 63.4 11.8 62.45 12.75 L61.0 13.8 61.05 14.85 M1.75 10.25 Q3.25 11.45 3.25 13.05 L3.1 15.0 Q2.7 15.75 1.0 15.75 L-1.9 15.35 -7.95 14.75 -8.1 14.5 -8.25 13.5 Q-8.25 12.9 -6.85 10.6 -5.3 8.0 -4.25 7.75 L0.5 8.2 0.75 9.0 Q1.0 9.65 1.75 10.25 M8.8 11.0 L14.25 12.5 Q13.25 9.5 12.55 9.2 L9.3 9.5 8.8 11.0 M7.8 7.9 Q9.25 6.8 11.25 7.05 16.25 7.55 16.25 12.5 L16.0 14.25 Q15.65 14.75 14.0 14.75 10.8 14.75 8.25 13.25 6.25 12.05 6.25 11.3 6.25 9.05 7.8 7.9 M-34.2 4.65 L-33.15 4.85 Q-31.85 5.55 -30.0 8.75 -29.75 9.05 -29.75 9.8 L-28.9 10.1 Q-27.9 10.35 -27.7 10.5 -27.25 10.75 -27.25 12.1 -27.25 14.15 -28.95 15.75 -30.55 17.25 -32.5 17.25 L-35.95 16.9 -38.95 16.5 -49.75 15.75 -50.6 15.0 -50.75 13.75 -50.75 13.3 -50.5 11.85 -50.45 11.8 Q-50.1 10.95 -49.1 10.5 L-47.85 10.0 -44.05 9.5 -41.05 9.05 Q-38.5 8.35 -36.95 6.5 L-36.35 5.85 Q-35.25 4.75 -34.25 4.65 L-34.2 4.65 M-5.45 2.25 L-3.6 2.35 Q-1.1 2.35 -0.9 1.7 L-0.85 1.5 Q-1.8 0.35 -2.15 -2.0 L-2.25 -4.8 Q-2.25 -8.25 -1.05 -14.15 L-0.5 -16.5 0.1 -18.55 -0.6 -17.95 -4.25 -14.0 -6.5 -10.25 Q-7.7 -7.6 -6.75 -6.05 L-6.75 -0.9 -6.45 -0.8 Q-6.35 0.05 -6.75 1.4 -6.65 2.0 -5.45 2.25 M-11.15 -16.55 L-10.9 -17.25 -11.6 -16.65 Q-14.35 -14.25 -15.25 -12.95 L-17.5 -9.4 Q-18.7 -6.9 -17.75 -5.45 L-17.75 -0.6 -17.45 -0.5 Q-17.35 0.3 -17.75 1.6 L-17.75 1.65 -17.6 1.9 Q-17.35 2.2 -16.6 2.35 L-14.6 2.5 Q-12.1 2.5 -11.9 1.85 L-11.85 1.7 Q-12.8 0.6 -13.15 -1.6 L-13.25 -4.25 Q-13.25 -7.5 -12.05 -13.1 L-11.15 -16.55 M-5.25 12.6 L-1.45 13.0 1.25 13.5 Q-1.25 10.5 -1.75 10.25 L-4.65 10.35 Q-5.0 10.85 -5.25 12.5 L-5.45 12.55 -5.25 12.6 M-29.45 12.5 L-29.25 12.3 -29.35 12.3 Q-31.3 11.85 -32.7 8.95 L-33.0 8.45 -33.2 8.25 -34.55 8.0 -34.6 8.0 -35.75 8.8 Q-37.35 11.3 -39.25 11.65 -40.4 11.85 -42.6 11.15 L-42.75 11.1 Q-45.85 11.7 -48.3 13.05 L-48.75 13.8 -47.8 13.85 -46.9 13.9 -46.85 13.9 -37.25 14.55 -32.35 15.0 Q-31.1 15.0 -30.25 13.85 L-29.45 12.5" fill="#000000" fill-rule="evenodd" stroke="none"/>
      <path d="M0.4 -7.55 L2.0 -7.25 1.8 -5.65 1.65 -5.75 1.75 -3.75 1.75 -3.0 1.8 -2.95 1.9 -0.9 2.0 -0.35 1.0 -0.25 0.45 -0.25 Q-0.25 -3.35 -0.25 -5.0 L-0.2 -7.6 0.4 -7.55 M2.8 2.5 L2.85 2.8 2.85 2.85 3.05 3.5 3.75 4.1 3.25 4.55 Q3.7 5.25 5.5 5.25 9.3 5.25 10.65 3.9 12.0 2.5 12.9 2.5 13.85 2.5 14.75 3.4 L15.8 4.1 Q16.0 4.75 17.2 5.35 19.45 6.35 23.75 5.3 23.75 5.75 24.05 5.75 L24.25 7.75 24.55 9.5 30.25 10.5 Q30.8 11.0 30.7 11.75 30.95 12.25 33.25 12.25 35.7 12.25 38.3 9.4 40.45 6.95 44.3 6.8 L45.75 7.75 45.8 7.75 46.55 10.5 Q49.9 11.7 50.6 11.7 L50.55 12.05 50.3 13.25 Q50.05 14.0 50.75 14.0 L52.5 14.25 Q53.4 14.25 54.0 13.55 54.6 12.85 57.2 12.8 L58.1 13.45 58.75 15.3 Q59.9 17.55 62.3 17.75 L62.4 18.3 57.4 18.35 57.35 18.35 Q53.2 16.25 49.75 16.25 47.85 16.25 47.45 15.25 47.05 14.25 46.0 14.25 44.35 14.25 43.9 12.9 43.75 12.5 43.75 11.3 L43.5 10.75 Q42.1 10.65 41.35 11.75 40.5 12.95 40.0 13.05 L32.75 14.75 29.8 14.3 Q27.35 13.8 26.5 13.25 L25.3 13.0 23.75 12.5 Q22.75 11.95 22.75 9.8 20.3 9.8 19.6 9.1 L19.25 8.0 Q19.1 7.65 18.75 7.55 L16.25 7.25 Q15.8 7.2 15.35 6.7 14.9 6.25 14.25 6.25 L5.9 6.75 -2.5 7.25 -3.45 6.8 Q-3.8 6.3 -4.45 6.3 L-20.5 9.75 Q-27.75 9.75 -27.75 6.6 L-27.5 5.4 Q-27.3 5.15 -26.5 4.8 L-23.8 5.1 -23.75 5.1 -23.5 6.0 -22.75 6.25 Q-20.75 5.5 -19.25 5.65 -18.05 5.8 -16.25 4.75 L-16.25 4.65 -14.25 4.75 Q-12.75 4.75 -11.5 3.8 L-10.55 2.85 -8.5 2.3 -8.2 2.3 -7.95 3.4 Q-7.0 4.75 -3.25 4.75 -1.75 4.75 -0.5 3.75 0.3 3.15 0.6 2.4 L2.8 2.5 M-61.45 19.5 L-65.65 20.05 -64.3 17.55 Q-63.15 15.65 -61.5 14.3 -58.15 11.65 -55.75 11.25 -54.6 11.05 -54.5 9.7 L-54.35 7.75 Q-53.95 7.0 -52.45 5.95 L-50.25 4.55 Q-49.2 3.85 -45.55 3.85 -44.9 5.75 -44.0 5.75 -43.15 5.75 -42.6 4.95 L-41.7 3.5 -41.65 3.5 Q-40.3 3.0 -39.4 1.95 L-38.25 0.75 -38.6 0.15 -38.45 -0.5 -37.75 -2.45 Q-37.55 -2.85 -36.35 -3.45 L-35.2 -4.0 -30.4 -3.85 -28.1 -3.75 -28.0 -3.6 -27.25 -3.25 Q-25.85 -3.55 -25.45 -4.5 L-25.0 -6.2 Q-24.5 -6.5 -22.5 -6.2 -21.05 -6.0 -20.1 -6.6 L-20.2 -5.65 -20.35 -5.75 -20.25 -3.75 -20.25 -3.0 -20.2 -2.95 -20.15 -1.45 -20.15 -1.2 -21.0 -1.25 Q-23.8 -1.25 -24.4 -0.25 -25.05 0.75 -26.0 0.75 -26.6 0.75 -26.95 0.3 -27.3 -0.2 -27.95 -0.2 L-30.6 0.05 -33.95 0.5 Q-32.25 2.0 -32.25 2.75 -32.25 3.4 -34.2 4.65 L-34.25 4.65 Q-35.25 4.75 -36.35 5.85 -39.05 7.3 -43.5 9.25 -44.3 9.25 -45.3 8.55 L-46.35 7.8 Q-47.6 7.8 -50.75 9.05 L-49.1 10.5 Q-50.1 10.95 -50.45 11.8 L-50.5 11.85 -50.75 13.3 Q-51.75 13.85 -53.25 14.4 -58.95 16.5 -60.6 18.0 L-61.45 19.5 M-10.95 -1.95 L-11.25 -4.25 -11.25 -4.4 -11.25 -4.45 -11.25 -5.75 -9.45 -6.55 -9.35 -6.4 -9.25 -4.25 -9.25 -3.45 -9.2 -3.4 -9.1 -1.3 -10.25 -1.25 -10.8 -1.25 -10.95 -1.95" fill="#660000" fill-rule="evenodd" stroke="none"/>
      <path d="M2.0 -0.35 Q2.2 0.95 2.75 1.95 L2.8 2.5 0.6 2.4 0.75 1.55 0.75 1.1 0.75 1.05 0.45 -0.25 1.0 -0.25 2.0 -0.35 M44.3 6.8 L45.5 6.8 45.75 7.75 44.3 6.8 M57.2 12.8 L57.75 12.8 58.1 13.45 57.2 12.8 M57.35 18.35 L31.3 18.9 8.65 19.5 -35.95 19.0 Q-54.0 18.9 -61.45 19.5 L-60.6 18.0 Q-58.95 16.5 -53.25 14.4 -51.75 13.85 -50.75 13.3 L-50.75 13.75 -50.6 15.0 -49.75 15.75 -38.95 16.5 -35.95 16.9 -32.5 17.25 Q-30.55 17.25 -28.95 15.75 -27.25 14.15 -27.25 12.1 -27.25 10.75 -27.7 10.5 -27.9 10.35 -28.9 10.1 L-29.75 9.8 Q-29.75 9.05 -30.0 8.75 -31.85 5.55 -33.15 4.85 L-34.2 4.65 Q-32.25 3.4 -32.25 2.75 -32.25 2.0 -33.95 0.5 L-30.6 0.05 -27.95 -0.2 Q-27.3 -0.2 -26.95 0.3 -26.6 0.75 -26.0 0.75 -25.05 0.75 -24.4 -0.25 -23.8 -1.25 -21.0 -1.25 L-20.15 -1.2 -20.15 -1.45 -20.1 -0.9 Q-19.9 0.75 -19.25 1.95 -19.2 3.15 -18.95 3.5 L-18.75 3.7 Q-20.6 3.1 -21.85 3.2 -23.75 3.4 -23.75 5.0 L-23.75 5.1 -23.8 5.1 -26.5 4.8 Q-27.3 5.15 -27.5 5.4 L-27.75 6.6 Q-27.75 9.75 -20.5 9.75 L-4.45 6.3 Q-3.8 6.3 -3.45 6.8 L-2.5 7.25 5.9 6.75 14.25 6.25 Q14.9 6.25 15.35 6.7 15.8 7.2 16.25 7.25 L18.75 7.55 Q19.1 7.65 19.25 8.0 L19.6 9.1 Q20.3 9.8 22.75 9.8 22.75 11.95 23.75 12.5 L25.3 13.0 26.5 13.25 Q27.35 13.8 29.8 14.3 L32.75 14.75 40.0 13.05 Q40.5 12.95 41.35 11.75 42.1 10.65 43.5 10.75 L43.75 11.3 Q43.75 12.5 43.9 12.9 44.35 14.25 46.0 14.25 47.05 14.25 47.45 15.25 47.85 16.25 49.75 16.25 53.2 16.25 57.35 18.35 M-10.55 2.85 Q-10.25 2.3 -10.25 1.75 L-10.25 1.3 -10.25 1.25 -10.95 -1.95 -10.8 -1.25 -10.25 -1.25 -9.1 -1.3 -9.1 -1.25 Q-8.9 0.5 -8.25 1.8 L-8.2 2.3 -8.5 2.3 -10.55 2.85 M-0.2 -7.6 L-0.2 -7.75 0.4 -7.55 -0.2 -7.6 M20.0 -1.3 L17.95 0.95 17.05 1.85 15.55 0.4 Q13.75 -1.15 11.5 0.15 10.75 -2.85 10.75 -4.45 L10.8 -6.0 11.55 -4.65 Q12.9 -3.0 19.75 -2.7 L19.75 -1.5 20.0 -1.3 M1.75 10.25 Q1.0 9.65 0.75 9.0 L0.5 8.2 -4.25 7.75 Q-5.3 8.0 -6.85 10.6 -8.25 12.9 -8.25 13.5 L-8.1 14.5 -7.95 14.75 -1.9 15.35 1.0 15.75 Q2.7 15.75 3.1 15.0 L3.25 13.05 Q3.25 11.45 1.75 10.25 M7.8 7.9 Q6.25 9.05 6.25 11.3 6.25 12.05 8.25 13.25 10.8 14.75 14.0 14.75 15.65 14.75 16.0 14.25 L16.25 12.5 Q16.25 7.55 11.25 7.05 9.25 6.8 7.8 7.9 M-36.35 5.85 L-36.95 6.5 Q-38.5 8.35 -41.05 9.05 L-44.05 9.5 -47.85 10.0 -49.1 10.5 -50.75 9.05 Q-47.6 7.8 -46.35 7.8 L-45.3 8.55 Q-44.3 9.25 -43.5 9.25 -39.05 7.3 -36.35 5.85" fill="#400000" fill-rule="evenodd" stroke="none"/>
      <path d="M5.0 2.25 Q5.0 2.0 5.15 1.95 L5.25 1.25 4.7 -2.6 Q4.45 -4.05 5.75 -8.2 6.4 -10.4 9.9 -14.05 L10.3 -14.4 9.95 -13.1 Q8.75 -7.5 8.75 -4.25 L8.85 -1.6 Q9.2 0.45 10.05 1.55 L9.25 2.35 7.4 2.5 5.0 2.25 M23.8 1.95 Q24.9 2.75 27.0 2.75 30.55 2.75 32.0 -0.25 32.75 -1.85 32.75 -4.0 L32.6 -6.25 Q32.25 -7.5 30.8 -8.5 29.85 -9.25 28.1 -9.75 L26.3 -10.0 Q27.75 -12.15 31.05 -13.55 35.6 -15.5 41.85 -15.5 L46.5 -15.3 Q47.95 -15.1 48.5 -14.45 L50.05 -12.2 Q52.05 -9.3 53.75 -7.7 56.55 -4.95 57.65 -2.75 58.75 -0.65 58.75 1.85 58.75 5.05 55.25 7.75 L52.3 10.15 52.1 9.55 Q51.15 8.15 48.25 8.3 48.5 7.6 47.9 6.65 47.25 5.55 45.75 5.1 L46.55 4.0 Q47.25 2.7 47.25 0.35 47.25 -1.65 45.0 -2.9 42.85 -4.05 40.0 -3.95 32.75 -3.65 32.75 2.4 32.75 3.55 34.05 4.5 35.65 5.65 38.75 6.05 37.95 6.6 37.3 7.4 35.15 10.0 33.55 10.0 32.65 10.0 32.35 9.55 L31.95 8.6 Q31.65 8.05 30.7 7.8 L30.75 7.75 Q31.25 7.15 31.25 6.4 31.25 4.3 29.0 4.65 26.75 5.0 26.75 7.0 L26.3 7.0 26.2 5.75 Q26.05 4.3 24.8 3.5 L22.9 3.5 23.8 1.95 M20.2 2.05 L19.75 2.5 19.3 3.3 19.0 3.3 20.2 2.05 M61.05 14.85 L61.0 13.8 62.45 12.75 Q63.4 11.8 64.75 11.55 65.45 12.85 65.2 13.95 64.8 15.55 62.0 15.55 61.2 15.55 61.05 14.85 M8.8 11.0 L9.3 9.5 12.55 9.2 Q13.25 9.5 14.25 12.5 L8.8 11.0 M-0.5 -16.5 L-1.05 -14.15 Q-2.25 -8.25 -2.25 -4.8 L-2.15 -2.0 Q-1.8 0.35 -0.85 1.5 L-0.9 1.7 Q-1.1 2.35 -3.6 2.35 L-5.45 2.25 -5.3 -2.9 Q-5.2 -6.25 -4.5 -8.5 -3.2 -13.15 -0.5 -16.5 M-11.3 -16.6 L-11.15 -16.55 -12.05 -13.1 Q-13.25 -7.5 -13.25 -4.25 L-13.15 -1.6 Q-12.8 0.6 -11.85 1.7 L-11.9 1.85 Q-12.1 2.5 -14.6 2.5 L-16.6 2.35 Q-16.05 1.05 -15.85 -0.65 L-15.75 -6.5 Q-15.75 -12.0 -13.25 -14.6 L-11.55 -16.3 -11.3 -16.6 M-5.25 12.5 Q-5.0 10.85 -4.65 10.35 L-1.75 10.25 Q-1.25 10.5 1.25 13.5 L-1.45 13.0 -5.25 12.6 -5.25 12.5 M-29.35 12.3 L-29.45 12.5 -30.25 13.85 Q-31.1 15.0 -32.35 15.0 L-37.25 14.55 -46.85 13.9 -41.5 13.0 -36.75 12.35 -35.7 11.55 -32.85 8.7 -33.0 8.45 -32.7 8.95 Q-31.3 11.85 -29.35 12.3" fill="#baae96" fill-rule="evenodd" stroke="none"/>
      <path d="M10.9 -16.55 L10.3 -14.4 9.9 -14.05 Q6.4 -10.4 5.75 -8.2 4.45 -4.05 4.7 -2.6 L5.25 1.25 5.15 1.95 Q5.0 2.0 5.0 2.25 4.3 2.0 4.25 1.6 4.65 0.3 4.55 -0.5 L4.25 -0.6 4.25 -5.45 Q3.3 -6.9 4.5 -9.4 L6.75 -12.95 Q7.65 -14.25 10.4 -16.65 L10.9 -16.55 M23.8 1.95 L22.9 3.5 19.3 3.3 19.75 2.5 20.2 2.05 20.3 1.9 22.0 -0.15 22.05 -0.2 22.05 -0.25 22.5 -1.6 22.65 -3.25 22.75 -6.25 Q24.25 -14.2 27.5 -15.95 30.3 -17.5 41.65 -17.5 50.65 -17.5 54.5 -13.35 56.5 -11.25 57.25 -8.5 61.75 -3.7 61.75 1.75 L61.75 4.15 Q61.55 5.0 59.55 7.3 58.95 8.05 55.15 9.65 L52.55 10.85 52.5 10.75 52.3 10.15 55.25 7.75 Q58.75 5.05 58.75 1.85 58.75 -0.65 57.65 -2.75 56.55 -4.95 53.75 -7.7 52.05 -9.3 50.05 -12.2 L48.5 -14.45 Q47.95 -15.1 46.5 -15.3 L41.85 -15.5 Q35.6 -15.5 31.05 -13.55 27.75 -12.15 26.3 -10.0 25.7 -9.95 25.3 -9.7 L25.25 -9.7 Q24.95 -9.5 23.85 -5.55 L22.85 -1.55 22.75 -1.0 23.0 0.95 23.1 1.15 23.8 1.95 M-5.45 2.25 Q-6.65 2.0 -6.75 1.4 -6.35 0.05 -6.45 -0.8 L-6.75 -0.9 -6.75 -6.05 Q-7.7 -7.6 -6.5 -10.25 L-4.25 -14.0 -0.6 -17.95 0.1 -18.55 -0.5 -16.5 Q-3.2 -13.15 -4.5 -8.5 -5.2 -6.25 -5.3 -2.9 L-5.45 2.25 M-11.6 -16.65 L-11.3 -16.6 -11.55 -16.3 -13.25 -14.6 Q-15.75 -12.0 -15.75 -6.5 L-15.85 -0.65 Q-16.05 1.05 -16.6 2.35 -17.35 2.2 -17.6 1.9 L-17.75 1.65 -17.75 1.6 Q-17.35 0.3 -17.45 -0.5 L-17.75 -0.6 -17.75 -5.45 Q-18.7 -6.9 -17.5 -9.4 L-15.25 -12.95 Q-14.35 -14.25 -11.6 -16.65 M-46.85 13.9 L-46.9 13.9 -47.8 13.85 -48.75 13.8 -48.3 13.05 Q-45.85 11.7 -42.75 11.1 L-42.6 11.15 Q-40.4 11.85 -39.25 11.65 -37.35 11.3 -35.75 8.8 L-34.6 8.0 -34.55 8.0 -33.2 8.25 -33.0 8.45 -32.85 8.7 -35.7 11.55 -36.75 12.35 -41.5 13.0 -46.85 13.9" fill="#dcd6c9" fill-rule="evenodd" stroke="none"/>
      <path d="M28.25 -3.9 L30.75 -5.75 31.1 -5.65 31.25 -5.25 Q31.25 -4.8 29.0 -2.85 L28.9 -2.75 30.0 -1.25 29.5 -0.75 28.15 -2.1 26.25 -0.5 25.8 -0.55 25.75 -1.05 Q25.75 -1.95 27.35 -3.25 26.45 -4.65 26.0 -5.9 26.75 -6.55 27.35 -5.65 L28.1 -4.25 28.25 -3.9 M38.85 -0.95 L39.6 0.45 39.75 0.8 42.25 -1.05 42.6 -0.95 42.75 -0.55 Q42.75 -0.1 40.5 1.85 L40.4 1.95 41.5 3.45 41.0 3.95 39.65 2.6 37.75 4.2 37.3 4.15 37.25 3.65 Q37.25 2.75 38.85 1.45 L37.5 -1.2 Q38.25 -1.85 38.85 -0.95" fill="#ffffff" fill-rule="evenodd" stroke="none"/>
    </g>
    <g id="shape1" transform="matrix(1.0, 0.0, 0.0, 1.0, 75.0, 27.9)">
      <path d="M14.8 -26.55 Q18.0 -24.45 18.0 -20.8 L17.95 -20.05 18.0 -20.05 Q19.5 -19.4 20.6 -18.55 L21.45 -17.9 21.4 -18.15 21.35 -18.35 21.7 -18.1 Q22.0 -20.05 22.5 -20.75 24.95 -24.25 27.45 -22.85 29.6 -21.6 30.25 -18.25 29.55 -17.4 32.95 -17.3 L41.55 -17.2 Q55.7 -17.1 59.5 -14.05 L63.05 -10.7 66.05 -7.3 Q68.2 -4.5 69.15 -0.05 L70.5 7.25 70.5 11.95 72.85 11.65 Q74.75 13.4 75.0 15.2 L75.0 19.6 74.9 23.65 Q74.65 26.05 73.5 26.95 L63.8 26.95 63.65 26.7 63.6 26.5 Q52.6 26.6 39.9 27.05 L22.0 27.45 13.85 27.5 12.75 27.95 11.3 27.7 Q11.1 27.95 11.05 27.5 -1.35 27.6 -8.5 27.95 L-28.7 26.7 Q-32.5 26.6 -41.6 27.0 L-50.75 27.45 -55.9 27.1 Q-60.7 26.8 -63.1 26.95 L-63.15 26.9 -63.75 26.95 -65.2 26.6 Q-65.35 26.5 -66.2 25.95 -70.95 25.85 -73.0 23.95 -75.0 22.1 -75.0 17.95 -75.0 12.2 -70.1 9.7 L-67.85 8.25 -65.6 6.7 Q-61.35 3.9 -57.4 3.9 L-47.2 4.45 -46.25 2.25 Q-45.7 1.0 -43.35 -1.2 L-40.6 -4.0 -39.5 -6.95 -38.2 -10.3 Q-36.3 -13.5 -33.15 -16.7 -29.6 -20.25 -26.45 -21.75 -15.7 -26.8 -4.7 -24.05 -4.3 -24.6 -3.4 -24.85 L7.0 -27.3 Q11.4 -28.75 14.8 -26.55 M-44.75 22.3 Q-43.45 23.2 -41.35 23.7 L-41.25 23.9 Q-40.55 23.2 -39.25 23.25 -37.6 23.35 -35.45 24.55 -28.3 24.45 -22.1 24.8 L-8.35 25.7 11.75 25.45 12.5 25.4 12.75 25.15 Q14.65 23.55 16.55 22.65 L17.0 21.15 17.0 21.0 Q17.0 20.0 17.9 18.35 L19.0 16.2 Q19.5 14.3 19.8 10.9 L20.0 6.8 Q20.0 0.4 16.75 -2.65 L16.5 -2.85 16.5 -2.75 16.35 -2.65 15.7 -3.9 15.2 -4.4 14.2 -5.05 14.0 -6.0 13.05 -10.55 Q12.6 -12.3 12.25 -15.15 L12.0 -18.7 12.2 -20.15 13.15 -20.95 13.15 -21.0 13.3 -21.0 15.5 -21.3 Q15.0 -23.35 14.35 -24.1 13.3 -25.3 9.65 -25.3 5.15 -25.3 1.35 -24.0 L-1.85 -22.65 -2.45 -22.2 -2.65 -22.0 -4.75 -21.55 -4.8 -21.5 -12.35 -21.8 -23.6 -20.95 Q-27.45 -19.7 -32.7 -13.8 -34.6 -11.7 -35.95 -8.9 L-36.0 -8.8 -36.05 -8.7 -36.8 -7.0 -37.1 -6.3 -38.0 -4.05 -39.3 -2.2 -39.5 -1.95 -41.4 0.15 -41.8 0.55 Q-44.95 3.85 -45.35 5.7 L-46.7 10.95 Q-47.0 12.3 -47.0 15.35 -47.0 19.05 -46.65 20.0 L-46.6 20.1 -46.6 20.15 -46.55 20.25 -44.75 22.3 M15.8 -18.8 L14.0 -18.8 14.95 -12.6 Q15.5 -8.9 16.5 -6.5 L16.5 -6.35 19.8 -2.4 20.45 -5.85 20.85 -8.15 20.45 -8.65 Q21.5 -10.75 21.5 -15.05 L21.5 -15.6 Q20.4 -15.85 18.7 -17.0 L15.8 -18.8 M68.4 11.95 L68.3 11.5 68.05 10.15 68.0 6.2 Q67.75 3.5 66.5 -1.75 65.8 -4.3 64.8 -5.95 63.65 -7.85 61.55 -9.55 L60.85 -10.15 58.8 -11.85 58.4 -12.15 58.35 -12.2 57.0 -13.25 Q54.8 -14.8 49.5 -14.8 L45.4 -14.65 39.75 -14.55 32.2 -14.65 Q29.1 -14.9 28.55 -16.05 L28.0 -17.55 27.8 -19.35 Q27.75 -20.5 27.0 -20.5 L24.5 -20.3 23.65 -15.0 23.6 -14.7 23.55 -14.55 23.3 -12.75 23.2 -11.9 23.0 -8.95 23.0 -8.9 23.0 -8.75 Q23.05 -7.65 22.6 -5.9 L22.0 -3.05 22.0 -0.3 21.75 0.8 22.0 6.7 21.75 11.15 21.15 16.35 21.15 16.55 21.35 16.35 Q27.85 11.6 38.5 12.2 38.5 11.95 41.1 12.2 43.7 12.45 44.0 12.95 L44.0 13.5 52.5 13.2 53.55 13.0 59.5 12.95 64.25 12.6 66.0 12.45 66.3 12.4 66.75 12.4 67.2 12.35 67.5 12.35 67.95 12.3 68.4 12.25 68.5 12.25 68.4 11.95 M61.5 15.45 L51.7 15.45 50.35 15.55 44.75 15.95 44.0 15.8 44.0 24.45 64.55 24.45 64.8 24.6 64.85 24.65 65.05 24.7 72.5 24.7 Q73.0 23.2 73.0 19.55 73.0 16.0 72.5 14.2 L69.05 14.2 61.5 15.45 M19.05 25.3 L42.45 24.45 Q41.85 22.55 41.9 19.8 42.15 15.65 42.0 14.0 30.8 14.8 26.3 16.35 19.05 18.85 19.0 24.95 L18.75 25.3 19.05 25.3 M-48.0 6.5 L-55.85 6.7 -54.75 8.0 -54.0 7.95 -53.25 8.15 Q-53.1 8.2 -53.05 8.5 -51.6 8.3 -48.7 8.45 L-48.0 6.5 M-55.0 16.2 Q-55.0 9.55 -57.8 7.65 -60.15 6.1 -64.0 8.0 -67.3 9.6 -70.2 12.85 -73.0 15.95 -73.0 17.8 -73.0 18.95 -72.65 19.75 L-71.6 21.45 -70.6 22.9 Q-69.45 23.7 -65.75 23.7 -58.85 23.7 -56.25 20.25 -55.0 18.55 -55.0 16.2 M-55.0 22.45 L-55.1 22.45 Q-56.55 24.15 -59.05 25.0 L-45.6 24.5 -47.0 23.35 -48.65 21.55 -52.6 22.05 -55.0 22.45 M-44.95 24.85 L-45.5 24.55 -47.0 24.95 -44.95 24.85" fill="#000000" fill-opacity="0.0" fill-rule="evenodd" stroke="none"/>
      <path d="M11.75 25.45 L14.0 21.5 Q17.0 16.2 17.0 13.0 17.0 9.5 15.8 5.55 14.4 1.05 12.0 -1.55 10.65 -3.0 10.55 -5.4 10.7 -7.9 10.5 -8.75 L9.8 -12.65 9.5 -15.9 9.75 -18.7 Q10.15 -21.45 11.0 -22.25 L11.0 -22.5 Q6.15 -22.3 2.55 -20.85 -0.8 -19.25 -2.7 -18.8 L-5.7 -18.5 -12.9 -18.8 Q-20.8 -18.8 -25.65 -15.65 -28.15 -14.05 -29.5 -11.8 -30.15 -10.85 -32.35 -8.3 -34.1 -6.0 -34.0 -4.75 -33.6 -1.2 -35.35 0.25 -36.35 1.05 -38.7 2.2 -39.4 2.75 -41.35 5.95 -41.9 6.7 -41.75 7.7 L-41.5 9.3 Q-41.5 10.05 -42.15 12.3 -42.85 14.75 -43.0 16.75 L-42.8 20.35 Q-42.95 21.8 -43.85 22.8 L-44.75 22.3 -46.55 20.25 -46.6 20.15 -46.6 20.1 -46.65 20.0 Q-47.0 19.05 -47.0 15.35 -47.0 12.3 -46.7 10.95 L-45.35 5.7 Q-44.95 3.85 -41.8 0.55 L-41.4 0.15 -39.5 -1.95 -39.3 -2.2 -39.15 -2.35 -37.0 -3.75 -37.1 -6.3 -36.8 -7.0 -36.05 -8.7 -36.0 -8.8 -35.95 -8.9 Q-34.6 -11.7 -32.7 -13.8 -27.45 -19.7 -23.6 -20.95 L-12.35 -21.8 -4.8 -21.5 -4.75 -21.55 -2.65 -22.0 -2.45 -22.2 -1.85 -22.65 1.35 -24.0 Q5.15 -25.3 9.65 -25.3 13.3 -25.3 14.35 -24.1 15.0 -23.35 15.5 -21.3 L13.3 -21.0 13.15 -21.0 13.15 -20.95 12.2 -20.15 12.0 -18.7 12.25 -15.15 Q12.6 -12.3 13.05 -10.55 L14.0 -6.0 14.05 -5.55 Q14.1 -4.85 14.25 -4.8 L15.2 -4.4 15.7 -3.9 16.35 -2.65 16.5 -2.75 16.75 -2.65 Q20.0 0.4 20.0 6.8 L19.8 10.9 Q19.5 14.3 19.0 16.2 L17.9 18.35 Q17.0 20.0 17.0 21.0 L17.0 21.15 16.55 22.65 Q14.65 23.55 12.75 25.15 L12.5 25.4 11.75 25.45" fill="#925e3a" fill-opacity="0.0" fill-rule="evenodd" stroke="none"/>
      <path d="M-44.75 22.3 L-43.85 22.8 Q-42.95 21.8 -42.8 20.35 L-43.0 16.75 Q-42.85 14.75 -42.15 12.3 -41.5 10.05 -41.5 9.3 L-41.75 7.7 Q-41.9 6.7 -41.35 5.95 -39.4 2.75 -38.7 2.2 -36.35 1.05 -35.35 0.25 -33.6 -1.2 -34.0 -4.75 -34.1 -6.0 -32.35 -8.3 -30.15 -10.85 -29.5 -11.8 -28.15 -14.05 -25.65 -15.65 -20.8 -18.8 -12.9 -18.8 L-5.7 -18.5 -2.7 -18.8 Q-0.8 -19.25 2.55 -20.85 6.15 -22.3 11.0 -22.5 L11.0 -22.25 Q10.15 -21.45 9.75 -18.7 L9.5 -15.9 9.8 -12.65 10.5 -8.75 Q10.7 -7.9 10.55 -5.4 10.65 -3.0 12.0 -1.55 14.4 1.05 15.8 5.55 17.0 9.5 17.0 13.0 17.0 16.2 14.0 21.5 L11.75 25.45 -8.35 25.7 -22.1 24.8 Q-28.3 24.45 -35.45 24.55 -37.6 23.35 -39.25 23.25 -40.55 23.2 -41.25 23.9 L-41.35 23.7 Q-43.45 23.2 -44.75 22.3 M15.2 -4.4 L14.25 -4.8 Q14.1 -4.85 14.05 -5.55 L14.0 -6.0 14.2 -5.05 15.2 -4.4 M-37.1 -6.3 L-37.0 -3.75 -39.15 -2.35 -39.3 -2.2 -38.0 -4.05 -37.1 -6.3" fill="#6a442b" fill-opacity="0.0" fill-rule="evenodd" stroke="none"/>
      <path d="M23.2 -11.9 L23.3 -12.75 23.55 -14.55 23.6 -14.7 23.65 -15.0 24.5 -20.3 27.0 -20.5 Q27.75 -20.5 27.8 -19.35 L28.0 -17.55 28.55 -16.05 Q29.1 -14.9 32.2 -14.65 L39.75 -14.55 45.4 -14.65 49.5 -14.8 Q54.8 -14.8 57.0 -13.25 L58.35 -12.2 58.4 -12.15 58.8 -11.85 60.85 -10.15 61.55 -9.55 Q63.65 -7.85 64.8 -5.95 65.8 -4.3 66.5 -1.75 67.75 3.5 68.0 6.2 L68.05 10.15 68.3 11.5 68.4 11.95 68.4 12.25 67.95 12.3 67.5 12.35 67.2 12.35 66.75 12.4 66.3 12.4 66.0 12.45 64.25 12.6 Q64.1 11.55 64.1 10.25 63.95 2.95 63.5 1.75 L62.25 -1.75 Q61.3 -4.05 60.05 -5.3 L58.5 -6.95 Q56.85 -8.2 55.05 -8.8 L46.05 -11.3 44.1 -11.3 27.0 -10.05 Q23.85 -10.05 23.2 -11.9" fill="#695441" fill-opacity="0.0" fill-rule="evenodd" stroke="none"/>
      <path d="M23.2 -11.9 Q23.85 -10.05 27.0 -10.05 L44.1 -11.3 46.05 -11.3 55.05 -8.8 Q56.85 -8.2 58.5 -6.95 L60.05 -5.3 Q61.3 -4.05 62.25 -1.75 L63.5 1.75 Q63.95 2.95 64.1 10.25 64.1 11.55 64.25 12.6 L59.5 12.95 53.55 13.0 52.5 13.2 44.0 13.5 44.0 12.95 Q43.7 12.45 41.1 12.2 38.5 11.95 38.5 12.2 27.85 11.6 21.35 16.35 L21.15 16.35 21.75 11.15 22.0 6.7 21.75 0.8 22.0 -0.3 22.0 -3.05 22.6 -5.9 Q23.05 -7.65 23.0 -8.75 L23.0 -8.9 23.0 -8.95 23.2 -11.9 M68.4 12.25 L68.4 11.95 68.5 12.25 68.4 12.25 M-48.0 6.5 L-48.7 8.45 Q-51.6 8.3 -53.05 8.5 -53.1 8.2 -53.25 8.15 L-54.0 7.95 -54.75 8.0 -55.85 6.7 -48.0 6.5 M-55.0 22.45 L-52.6 22.05 -48.65 21.55 -47.0 23.35 -45.6 24.5 -59.05 25.0 Q-56.55 24.15 -55.1 22.45 L-55.0 22.45" fill="#372c22" fill-opacity="0.0" fill-rule="evenodd" stroke="none"/>
      <path d="M61.5 15.45 L69.05 14.2 72.5 14.2 Q73.0 16.0 73.0 19.55 73.0 23.2 72.5 24.7 L65.05 24.7 64.85 24.65 64.8 24.6 64.55 24.45 44.0 24.45 44.0 15.8 44.75 15.95 50.35 15.55 51.7 15.45 61.5 15.45" fill="#c6b19f" fill-opacity="0.0" fill-rule="evenodd" stroke="none"/>
      <path d="M-55.0 16.2 Q-55.0 18.55 -56.25 20.25 -58.85 23.7 -65.75 23.7 -69.45 23.7 -70.6 22.9 L-71.6 21.45 -72.65 19.75 Q-73.0 18.95 -73.0 17.8 -73.0 15.95 -70.2 12.85 -67.3 9.6 -64.0 8.0 -60.15 6.1 -57.8 7.65 -55.0 9.55 -55.0 16.2" fill="#211b14" fill-opacity="0.0" fill-rule="evenodd" stroke="none"/>
      <path d="M15.8 -18.8 L18.7 -17.0 Q20.4 -15.85 21.5 -15.6 L21.5 -15.05 Q21.5 -10.75 20.45 -8.65 L20.85 -8.15 20.45 -5.85 19.8 -2.4 16.5 -6.35 16.5 -6.5 Q15.5 -8.9 14.95 -12.6 L14.0 -18.8 15.8 -18.8 M19.0 24.95 Q19.05 18.85 26.3 16.35 30.8 14.8 42.0 14.0 42.15 15.65 41.9 19.8 41.85 22.55 42.45 24.45 L19.05 25.3 19.0 24.95" fill="#731c02" fill-opacity="0.0" fill-rule="evenodd" stroke="none"/>
    </g>
  </defs>
</svg>
