<?xml version="1.0" encoding="UTF-8" standalone="no"?>
<svg xmlns:ffdec="https://www.free-decompiler.com/flash" xmlns:xlink="http://www.w3.org/1999/xlink" ffdec:objectType="frame" height="14.9px" width="110.5px" xmlns="http://www.w3.org/2000/svg">
  <g transform="matrix(1.0, 0.0, 0.0, 1.0, -3.5, -7.9)">
    <use ffdec:characterId="33" height="14.9" transform="matrix(1.0, 0.0, 0.0, 1.0, 92.4, 7.9)" width="21.6" xlink:href="#text0"/>
    <use ffdec:characterId="29" height="14.9" transform="matrix(1.0, 0.0, 0.0, 1.0, 80.3, 7.9)" width="20.7" xlink:href="#text1"/>
    <use ffdec:characterId="34" height="14.9" transform="matrix(1.0, 0.0, 0.0, 1.0, 65.35, 7.9)" width="22.65" xlink:href="#text2"/>
    <use ffdec:characterId="35" height="14.9" transform="matrix(1.0, 0.0, 0.0, 1.0, 51.35, 7.9)" width="21.65" xlink:href="#text3"/>
    <use ffdec:characterId="29" height="14.9" transform="matrix(1.0, 0.0, 0.0, 1.0, 38.3, 7.9)" width="20.7" xlink:href="#text1"/>
    <use ffdec:characterId="33" height="14.9" transform="matrix(1.0, 0.0, 0.0, 1.0, 24.4, 7.9)" width="21.6" xlink:href="#text0"/>
    <use ffdec:characterId="34" height="14.9" transform="matrix(1.0, 0.0, 0.0, 1.0, 10.35, 7.9)" width="22.65" xlink:href="#text2"/>
    <use ffdec:characterId="36" height="14.9" transform="matrix(1.0, 0.0, 0.0, 1.0, 3.5, 7.9)" width="14.5" xlink:href="#text4"/>
  </g>
  <defs>
    <g id="text0" transform="matrix(1.0, 0.0, 0.0, 1.0, -0.4, -5.9)">
      <g transform="matrix(1.0, 0.0, 0.0, 1.0, 0.0, 0.0)">
        <use fill="#000000" height="14.9" transform="matrix(0.0176, 0.0, 0.0, 0.0176, 0.0, 20.0)" width="21.6" xlink:href="#font_Arial_Black_T0"/>
      </g>
    </g>
    <g id="font_Arial_Black_T0">
      <path d="M23.5 -733.0 L23.5 -552.0 254.5 -552.0 254.5 0.0 481.0 0.0 481.0 -552.0 712.0 -552.0 712.0 -733.0 23.5 -733.0" fill-rule="evenodd" stroke="none"/>
    </g>
    <g id="text1" transform="matrix(1.0, 0.0, 0.0, 1.0, -1.3, -5.9)">
      <g transform="matrix(1.0, 0.0, 0.0, 1.0, 0.0, 0.0)">
        <use fill="#000000" height="14.9" transform="matrix(0.0176, 0.0, 0.0, 0.0176, 0.0, 20.0)" width="20.7" xlink:href="#font_Arial_Black_E0"/>
      </g>
    </g>
    <g id="font_Arial_Black_E0">
      <path d="M74.5 -733.0 L74.5 0.0 692.5 0.0 692.5 -166.0 301.5 -166.0 301.5 -310.5 654.0 -310.5 654.0 -460.0 301.5 -460.0 301.5 -576.5 681.5 -576.5 681.5 -733.0 74.5 -733.0" fill-rule="evenodd" stroke="none"/>
    </g>
    <g id="text2" transform="matrix(1.0, 0.0, 0.0, 1.0, -1.35, -5.9)">
      <g transform="matrix(1.0, 0.0, 0.0, 1.0, 0.0, 0.0)">
        <use fill="#000000" height="14.9" transform="matrix(0.0176, 0.0, 0.0, 0.0176, 0.0, 20.0)" width="22.65" xlink:href="#font_Arial_Black_N0"/>
      </g>
    </g>
    <g id="font_Arial_Black_N0">
      <path d="M76.5 -733.0 L76.5 0.0 289.5 0.0 289.5 -402.5 564.0 0.0 777.5 0.0 777.5 -733.0 564.0 -733.0 564.0 -327.5 288.0 -733.0 76.5 -733.0" fill-rule="evenodd" stroke="none"/>
    </g>
    <g id="text3" transform="matrix(1.0, 0.0, 0.0, 1.0, -1.35, -5.9)">
      <g transform="matrix(1.0, 0.0, 0.0, 1.0, 0.0, 0.0)">
        <use fill="#000000" height="14.9" transform="matrix(0.0176, 0.0, 0.0, 0.0176, 0.0, 20.0)" width="21.65" xlink:href="#font_Arial_Black_R0"/>
      </g>
    </g>
    <g id="font_Arial_Black_R0">
      <path d="M305.5 -436.0 L305.5 -585.0 405.0 -585.0 Q467.0 -585.0 489.5 -566.0 512.0 -547.0 512.0 -511.5 512.0 -487.5 498.0 -469.0 483.5 -450.5 461.0 -446.0 416.5 -436.0 401.0 -436.0 L305.5 -436.0 M78.0 0.0 L305.5 0.0 305.5 -297.5 325.5 -297.5 Q356.5 -297.5 381.0 -280.5 399.0 -267.5 422.0 -224.0 L543.0 0.0 799.0 0.0 689.5 -212.5 Q681.5 -228.5 657.5 -258.0 634.0 -287.5 621.5 -296.5 603.0 -310.0 562.5 -323.5 613.0 -335.0 642.0 -352.5 687.5 -380.0 713.5 -424.0 739.5 -468.5 739.5 -529.5 739.5 -599.5 705.5 -648.0 671.5 -697.0 616.0 -715.0 560.5 -733.0 455.5 -733.0 L78.0 -733.0 78.0 0.0" fill-rule="evenodd" stroke="none"/>
    </g>
    <g id="text4" transform="matrix(1.0, 0.0, 0.0, 1.0, -1.5, -5.9)">
      <g transform="matrix(1.0, 0.0, 0.0, 1.0, 0.0, 0.0)">
        <use fill="#000000" height="14.9" transform="matrix(0.0176, 0.0, 0.0, 0.0176, 0.0, 20.0)" width="14.5" xlink:href="#font_Arial_Black_I0"/>
      </g>
    </g>
    <g id="font_Arial_Black_I0">
      <path d="M84.0 -733.0 L84.0 0.0 311.0 0.0 311.0 -733.0 84.0 -733.0" fill-rule="evenodd" stroke="none"/>
    </g>
  </defs>
</svg>
