<?xml version="1.0" encoding="UTF-8" standalone="no"?>
<svg xmlns:ffdec="https://www.free-decompiler.com/flash" xmlns:xlink="http://www.w3.org/1999/xlink" ffdec:objectType="frame" height="243.6px" width="312.4px" xmlns="http://www.w3.org/2000/svg">
  <g transform="matrix(1.0, 0.0, 0.0, 1.0, 140.15, 193.55)">
    <filter id="filter0">
      <feOffset dx="3.5355799791601" dy="3.535487832104965" in="SourceGraphic" result="filterResult0"/>
      <feColorMatrix in="filterResult0" result="filterResult1" type="matrix" values="0 0 0 0 0.0,0 0 0 0 0.0,0 0 0 0 0.0,0 0 0 1 0"/>
      <feColorMatrix in="filterResult1" result="filterResult2" type="matrix" values="1 0 0 0 0,0 1 0 0 0,0 0 1 0 0,0 0 0 0.296875 0"/>
    </filter>
    <use ffdec:characterId="428" filter="url(#filter0)" height="209.35" id="shadowMC" transform="matrix(1.0, 0.0, 0.0, -0.3, -126.3, 50.0626)" width="298.55" xlink:href="#sprite0"/>
    <use ffdec:characterId="101" height="43.5" transform="matrix(1.0, 0.0, 0.0, 1.0, -67.5, -46.5)" width="134.5" xlink:href="#shape6"/>
    <use ffdec:characterId="427" height="82.45" transform="matrix(1.0, 0.0, 0.0, 1.0, -76.0, -77.8)" width="178.9" xlink:href="#shape7"/>
  </g>
  <defs>
    <g id="sprite0" transform="matrix(1.0, 0.0, 0.0, 1.0, 140.15, 193.55)">
      <use ffdec:characterId="209" height="222.7" transform="matrix(0.798, -0.2435, 0.2435, 0.798, -57.2322, -183.0888)" width="15.5" xlink:href="#shape0"/>
      <use ffdec:characterId="209" height="222.7" transform="matrix(0.8089, -0.2046, 0.2046, 0.8089, -50.3805, -185.525)" width="15.5" xlink:href="#shape0"/>
      <use ffdec:characterId="209" height="222.7" transform="matrix(0.8178, -0.1649, 0.1649, 0.8178, -44.2551, -187.501)" width="15.5" xlink:href="#shape0"/>
      <use ffdec:characterId="17" height="34.0" transform="matrix(1.0, 0.0, 0.0, 1.0, -28.6, -32.75)" width="46.45" xlink:href="#shape1"/>
      <use ffdec:characterId="422" height="100.95" transform="matrix(1.0, 0.0, 0.0, 1.0, -66.8, -103.95)" width="132.4" xlink:href="#shape2"/>
      <use ffdec:characterId="211" height="92.0" transform="matrix(0.9884, 0.1485, -0.1485, 0.9884, -20.9791, -180.4393)" width="74.05" xlink:href="#shape3"/>
      <use ffdec:characterId="423" height="93.85" transform="matrix(1.0, 0.0, 0.0, 1.0, 28.85, -99.2)" width="42.65" xlink:href="#shape4"/>
      <use ffdec:characterId="209" height="222.7" transform="matrix(0.6302, 0.7639, -0.7639, 0.6302, 90.3677, -148.9139)" width="15.5" xlink:href="#shape0"/>
      <use ffdec:characterId="424" height="57.45" transform="matrix(1.0, 0.0, 0.0, 1.0, -53.85, -86.5)" width="41.5" xlink:href="#shape5"/>
    </g>
    <g id="shape0" transform="matrix(1.0, 0.0, 0.0, 1.0, 10.0, 160.0)">
      <path d="M2.9 -87.0 L1.2 -87.0 1.5 -86.75 2.0 -86.95 2.0 57.1 1.6 59.3 1.5 60.3 1.5 60.7 1.4 61.95 1.2 61.95 1.0 62.7 0.95 62.0 -0.75 62.15 Q-2.45 62.15 -4.15 61.3 L-4.5 62.7 -4.6 61.1 -4.85 60.9 -5.0 59.95 -4.65 59.9 Q-5.25 47.25 -5.45 24.65 L-5.5 -10.9 -5.5 -21.65 -5.45 -80.15 -5.4 -87.0 -6.0 -87.0 -6.35 -87.85 -7.0 -88.55 -7.45 -90.45 -7.5 -93.5 Q-7.5 -97.3 -7.3 -98.15 -6.75 -100.4 -4.7 -101.6 L-5.5 -101.75 Q-5.5 -114.1 -6.0 -139.05 L-6.1 -140.3 -6.6 -139.8 -9.0 -137.5 Q-9.45 -138.05 -9.75 -138.95 L-10.0 -140.0 Q-10.0 -142.85 -6.8 -150.6 -4.4 -156.45 -2.8 -158.9 L-2.3 -159.6 -2.25 -159.85 -2.1 -159.85 -2.0 -160.0 -1.65 -159.85 -1.4 -159.8 -1.0 -158.9 -0.25 -157.0 1.1 -154.35 1.65 -152.9 1.8 -152.3 2.15 -151.3 2.3 -150.75 Q5.5 -141.65 5.5 -140.05 L5.3 -138.35 Q5.5 -138.0 4.25 -138.0 3.35 -138.0 1.55 -139.85 L1.0 -140.4 1.0 -102.6 Q2.05 -102.35 2.9 -101.65 5.2 -99.75 5.5 -95.5 L5.5 -88.0 5.1 -87.8 4.75 -87.55 4.75 -88.05 Q4.75 -89.3 4.6 -88.65 L3.8 -89.0 Q3.0 -91.25 2.9 -95.45 2.7 -100.35 1.25 -100.35 -4.6 -100.35 -5.25 -97.7 -5.2 -94.25 -5.4 -91.05 L-5.55 -88.8 -5.4 -88.85 -5.35 -91.1 -5.25 -90.75 -5.15 -89.3 -5.0 -88.85 Q-2.2 -89.1 3.55 -89.0 L3.65 -88.9 3.05 -88.7 Q2.8 -88.45 2.8 -87.65 L2.9 -87.0 M-2.95 -102.3 L-0.4 -102.75 Q-1.15 -104.35 -1.15 -107.05 L-1.0 -112.35 -1.0 -122.5 -1.05 -126.95 -1.0 -133.0 Q-0.9 -134.35 -1.1 -138.25 -1.1 -141.0 -0.4 -142.35 L-0.5 -142.6 -0.4 -143.2 0.5 -143.5 Q1.3 -143.5 1.6 -143.1 2.1 -142.45 2.8 -142.1 L0.0 -150.6 -1.75 -156.2 -3.8 -151.5 Q-6.85 -144.6 -7.5 -142.1 -6.5 -143.15 -5.5 -143.5 L-4.75 -143.25 Q-4.55 -143.15 -4.5 -142.7 L-3.85 -142.75 Q-3.7 -142.1 -3.85 -140.9 L-4.0 -139.0 -3.7 -124.85 -3.0 -102.6 -3.05 -102.3 -2.95 -102.3 M0.1 -87.0 L-3.5 -87.0 -3.5 -67.35 0.05 -67.5 0.05 -80.15 0.1 -87.0 M0.85 59.3 Q0.25 46.7 0.05 24.65 L0.0 -10.9 0.0 -21.65 0.05 -65.5 -3.5 -65.5 -3.5 57.1 -3.9 59.3 -3.95 60.0 -3.25 60.1 -0.9 60.3 Q-0.2 60.3 0.1 59.85 0.35 59.3 0.5 59.3 L0.85 59.45 0.85 59.3" fill="#000000" fill-rule="evenodd" stroke="none"/>
      <path d="M-3.0 -102.6 L-3.7 -124.85 -4.0 -139.0 -3.85 -140.9 Q-3.7 -142.1 -3.85 -142.75 L-4.5 -142.7 Q-4.55 -143.15 -4.75 -143.25 L-5.5 -143.5 Q-6.5 -143.15 -7.5 -142.1 -6.85 -144.6 -3.8 -151.5 L-1.75 -156.2 0.0 -150.6 2.8 -142.1 Q2.1 -142.45 1.6 -143.1 1.3 -143.5 0.5 -143.5 L-0.4 -143.2 -0.5 -142.6 -0.4 -142.35 Q-1.1 -141.0 -1.1 -138.25 -0.9 -134.35 -1.0 -133.0 L-1.05 -126.95 -1.0 -122.5 -1.0 -112.35 -1.15 -107.05 Q-1.15 -104.35 -0.4 -102.75 L-2.95 -102.3 -3.0 -102.6" fill="#60606c" fill-rule="evenodd" stroke="none"/>
      <path d="M2.9 -87.0 L2.8 -87.65 Q2.8 -88.45 3.05 -88.7 L3.65 -88.9 3.8 -89.0 4.6 -88.65 Q4.75 -89.3 4.75 -88.05 L4.75 -87.55 4.55 -87.15 3.8 -87.0 3.1 -86.85 2.9 -87.0 M0.5 59.3 Q0.35 59.3 0.1 59.85 -0.2 60.3 -0.9 60.3 L-3.25 60.1 -3.95 60.0 -3.9 59.3 -3.5 57.1 -3.5 -65.5 0.05 -65.5 0.0 -21.65 0.0 -10.9 0.05 24.65 Q0.25 46.7 0.85 59.3 L0.5 59.3" fill="#211b14" fill-rule="evenodd" stroke="none"/>
      <path d="M3.65 -88.9 L3.55 -89.0 Q-2.2 -89.1 -5.0 -88.85 L-5.15 -89.3 -5.25 -90.75 -5.35 -91.1 -5.4 -91.05 Q-5.2 -94.25 -5.25 -97.7 -4.6 -100.35 1.25 -100.35 2.7 -100.35 2.9 -95.45 3.0 -91.25 3.8 -89.0 L3.65 -88.9 M0.1 -87.0 L0.05 -80.15 0.05 -67.5 -3.5 -67.35 -3.5 -87.0 0.1 -87.0" fill="#942403" fill-rule="evenodd" stroke="none"/>
    </g>
    <g id="shape1" transform="matrix(1.0, 0.0, 0.0, 1.0, 29.45, 30.75)">
      <path d="M12.95 -26.5 Q12.9 -23.45 13.5 -20.7 13.9 -18.95 14.5 -17.65 14.4 -14.35 15.15 -10.65 16.0 -6.45 16.0 -4.15 L16.0 -2.5 16.2 -2.15 Q17.0 -0.8 17.0 0.1 L16.85 1.0 14.95 1.1 -1.0 1.75 Q-1.45 0.85 -2.25 0.25 L-2.1 0.1 -2.3 -0.65 -2.5 -2.2 Q-2.5 -7.45 -1.75 -12.35 L-2.0 -12.1 Q-3.15 -10.95 -10.25 -6.35 L-13.55 -3.65 Q-15.4 -2.4 -17.55 -2.05 -17.3 -0.3 -18.75 3.05 -19.45 3.55 -20.45 2.85 L-20.45 2.65 Q-22.7 1.9 -26.2 -0.7 -29.15 -3.65 -29.45 -8.95 -29.6 -12.5 -28.75 -14.35 L-28.7 -15.0 -28.6 -15.4 -28.85 -15.65 -28.6 -15.7 -28.15 -17.65 -26.9 -18.3 -26.3 -18.3 -24.75 -18.95 -22.7 -19.4 Q-19.2 -20.1 -17.0 -22.3 L-15.95 -22.65 Q-12.55 -25.45 -9.55 -26.65 -3.2 -29.1 1.3 -24.6 L1.55 -24.35 Q3.4 -28.25 5.9 -29.95 8.6 -31.75 10.8 -29.6 L12.95 -26.5 M9.0 -1.4 L10.65 -4.2 Q11.5 -5.55 13.6 -5.2 L13.5 -7.7 12.95 -11.05 Q12.55 -13.2 12.5 -14.45 L12.45 -16.6 11.75 -16.5 4.5 -15.45 4.45 -1.1 5.85 -1.1 9.0 -1.05 9.05 -1.05 9.35 -1.05 9.0 -1.4 M14.0 -0.95 L13.2 -2.85 10.5 -1.05 14.0 -0.95 M-12.4 -15.5 Q-13.25 -14.75 -18.35 -12.85 -23.95 -10.75 -26.75 -11.15 L-27.05 -9.25 Q-27.7 -5.3 -24.4 -1.9 L-24.15 -1.65 Q-23.2 -0.7 -20.4 0.9 -20.35 0.85 -20.25 0.95 L-20.2 0.4 Q-19.95 -1.05 -20.0 -1.9 L-21.65 -1.55 -24.15 -1.85 Q-24.25 -1.85 -24.35 -1.95 L-23.9 -2.7 -21.7 -4.1 Q-19.8 -4.7 -18.55 -3.65 L-18.0 -4.3 Q-17.55 -4.75 -16.05 -5.45 -14.7 -6.2 -14.2 -6.7 L-11.9 -8.3 Q-10.1 -9.5 -9.6 -10.0 L-7.65 -11.35 Q-9.0 -11.9 -10.45 -13.35 L-12.3 -15.4 -12.35 -15.55 -12.4 -15.5" fill="#000000" fill-rule="evenodd" stroke="none"/>
      <path d="M9.0 -1.05 L9.0 -1.4 9.05 -1.05 9.0 -1.05" fill="#5b6171" fill-rule="evenodd" stroke="none"/>
      <path d="M9.0 -1.05 L5.85 -1.1 4.45 -1.1 4.5 -15.45 11.75 -16.5 12.45 -16.6 12.5 -14.45 Q12.55 -13.2 12.95 -11.05 L13.5 -7.7 13.6 -5.2 Q11.5 -5.55 10.65 -4.2 L9.0 -1.4 9.0 -1.05 M-24.4 -1.9 Q-27.7 -5.3 -27.05 -9.25 L-26.75 -11.15 Q-23.95 -10.75 -18.35 -12.85 -13.25 -14.75 -12.4 -15.5 L-12.3 -15.4 -10.45 -13.35 Q-9.0 -11.9 -7.65 -11.35 L-9.6 -10.0 Q-10.1 -9.5 -11.9 -8.3 L-14.2 -6.7 Q-14.7 -6.2 -16.05 -5.45 -17.55 -4.75 -18.0 -4.3 L-18.55 -3.65 Q-19.8 -4.7 -21.7 -4.1 L-23.9 -2.7 -24.35 -1.95 -24.4 -1.9 M14.0 -0.95 L10.5 -1.05 13.2 -2.85 14.0 -0.95 M-24.15 -1.85 L-21.65 -1.55 -20.0 -1.9 Q-19.95 -1.05 -20.2 0.4 L-20.4 0.9 Q-23.2 -0.7 -24.15 -1.65 L-24.15 -1.85" fill="#333333" fill-rule="evenodd" stroke="none"/>
    </g>
    <g id="shape2" transform="matrix(1.0, 0.0, 0.0, 1.0, 78.0, 46.95)">
      <path d="M5.85 -26.95 L3.4 -26.1 3.0 -25.95 1.6 -25.45 3.0 -25.5 9.6 -25.05 19.3 -23.4 28.55 -21.25 33.0 -21.25 33.0 -25.35 24.8 -26.0 24.65 -26.1 Q24.5 -26.25 24.5 -27.0 24.5 -27.75 25.0 -27.9 L25.5 -28.0 27.85 -27.95 Q27.1 -28.7 26.4 -30.6 L26.3 -30.95 Q25.2 -33.75 23.9 -33.75 L23.0 -33.45 22.95 -33.05 22.75 -33.0 22.0 -32.5 21.5 -32.8 18.7 -31.65 Q13.65 -29.45 12.55 -29.25 L5.85 -26.95 M16.65 -33.0 L18.8 -33.75 20.4 -34.8 20.35 -34.95 20.1 -35.6 20.05 -35.7 20.0 -35.85 19.5 -36.8 Q18.5 -38.25 16.65 -38.25 15.7 -38.25 10.25 -36.6 L4.05 -34.75 1.55 -32.95 -0.7 -31.15 Q-0.25 -30.1 -0.05 -28.7 L0.0 -27.35 0.0 -26.85 0.15 -26.95 Q2.35 -28.1 8.7 -30.3 L9.45 -30.55 14.75 -32.35 16.55 -32.95 16.65 -33.0 M29.75 -27.9 Q34.35 -27.65 34.8 -26.85 35.15 -26.25 35.1 -25.35 L35.0 -23.65 35.0 -20.9 Q34.6 -19.85 33.35 -19.4 34.85 -18.3 36.3 -15.75 L36.85 -14.55 37.05 -14.5 37.45 -13.6 38.2 -13.3 40.25 -11.9 Q42.1 -10.4 45.3 -9.75 49.25 -8.9 50.6 -8.25 52.1 -7.5 52.75 -6.05 L53.4 -3.75 Q54.4 -0.85 54.4 0.5 54.4 3.0 53.25 5.7 51.5 9.75 48.1 9.75 42.55 9.75 31.75 7.6 20.85 5.45 19.15 3.15 L19.15 3.8 18.05 4.3 Q17.1 4.8 17.1 3.55 L17.1 3.05 15.0 1.45 14.2 0.7 13.3 -0.25 12.6 1.05 10.2 5.25 10.3 5.25 10.4 5.3 10.5 6.1 10.5 6.75 10.5 8.6 10.4 11.5 11.05 11.5 11.3 11.65 11.5 12.2 Q13.55 12.85 14.0 16.05 14.3 18.05 14.0 20.2 L16.55 24.95 Q19.0 29.75 19.0 31.9 L19.0 32.65 18.8 33.05 18.85 33.3 18.35 33.5 18.3 33.6 18.8 34.75 19.35 37.55 19.55 37.5 20.0 38.5 19.5 38.8 19.4 38.85 19.15 39.05 18.5 39.5 18.25 39.25 Q14.8 40.25 5.4 41.45 L-10.5 43.0 Q-30.85 43.0 -36.85 41.1 L-39.7 39.8 -43.0 39.3 -42.6 37.1 Q-47.9 37.45 -50.55 38.7 -52.2 39.5 -53.9 40.95 L-52.0 46.2 -49.5 52.75 -49.6 53.75 -49.6 53.9 -50.5 54.0 Q-60.45 54.0 -65.35 52.85 -67.95 52.25 -70.1 51.25 -73.4 50.4 -74.75 49.0 L-75.0 49.0 Q-77.5 49.0 -78.0 43.05 L-78.0 37.05 Q-78.0 15.1 -73.0 -2.25 -71.85 -6.1 -68.75 -12.0 L-63.35 -22.1 Q-62.15 -24.5 -60.3 -26.7 -57.85 -29.7 -54.85 -31.6 L-49.9 -33.9 -50.4 -34.7 -50.5 -35.8 Q-50.5 -39.95 -45.05 -42.1 -39.15 -44.45 -30.4 -41.15 -29.75 -42.65 -25.75 -44.15 -20.55 -46.1 -12.5 -46.75 -6.7 -47.55 1.55 -44.95 8.75 -42.65 11.35 -39.8 21.55 -42.5 22.85 -35.85 24.95 -36.4 26.45 -35.25 28.1 -33.95 30.0 -28.6 L29.75 -27.9 M4.75 -41.1 Q-2.7 -44.75 -9.5 -44.75 -16.25 -44.75 -22.5 -42.65 -25.5 -41.65 -28.1 -40.25 L-27.5 -40.0 Q-25.35 -38.55 -16.5 -34.35 -12.35 -32.4 -11.05 -30.95 L-10.1 -32.3 Q-8.4 -34.15 -6.0 -34.35 -3.55 -34.5 -1.85 -32.8 -1.3 -33.95 1.9 -35.85 5.15 -37.8 8.7 -39.0 L4.75 -41.1 M19.45 -20.4 L14.85 -19.55 12.55 -19.25 -1.5 -18.0 -39.0 -18.9 -43.1 -18.95 -42.45 -15.7 Q-42.0 -16.45 -37.95 -16.55 L-31.7 -16.5 -20.75 -15.75 Q7.6 -15.75 14.3 -17.4 L15.0 -17.6 Q16.25 -18.0 16.55 -18.55 L19.05 -18.4 19.1 -18.85 Q19.2 -19.8 19.45 -20.4 M15.25 -21.7 L15.55 -21.75 7.0 -22.55 -1.6 -23.0 -1.8 -23.1 -1.85 -23.15 Q-3.3 -22.0 -5.75 -22.0 -10.55 -22.0 -11.75 -24.35 -12.1 -25.0 -12.1 -25.7 L-13.5 -25.5 -29.0 -26.75 Q-36.6 -26.75 -39.55 -24.95 L-40.6 -24.1 -43.6 -20.85 -43.5 -20.6 -39.75 -21.0 -31.0 -21.0 Q-4.6 -20.25 -1.55 -20.25 L6.65 -20.65 10.2 -21.1 15.25 -21.7 M13.65 -15.05 L5.0 -14.0 Q-2.45 -13.5 -20.75 -13.5 L-27.95 -13.9 -36.9 -14.3 -42.1 -14.5 -42.2 -14.55 -42.15 -14.45 -41.95 -13.45 -41.75 -12.7 Q-41.3 -11.1 -40.65 -9.8 L-40.3 -9.05 -34.6 -9.55 -30.5 -9.5 Q-7.7 -8.75 0.4 -8.75 L11.45 -8.95 14.65 -9.35 Q14.95 -9.5 14.75 -9.8 14.65 -10.0 15.5 -10.0 L15.75 -9.85 18.5 -15.1 18.8 -16.55 Q16.8 -15.65 13.65 -15.05 M8.1 -2.8 L7.4 -2.8 Q-13.6 -2.7 -30.75 -2.2 L-35.3 -2.1 Q-33.8 0.1 -33.1 1.7 L-32.9 2.15 -33.0 1.55 -30.5 0.5 -29.35 0.55 -26.25 0.65 -19.5 1.0 -12.25 0.5 Q0.35 0.5 6.4 0.75 L9.7 0.95 11.2 -2.0 11.75 -2.9 8.1 -2.8 M17.25 -7.25 L16.25 -5.5 14.1 -1.6 15.3 -1.2 14.8 -1.4 Q15.3 -2.65 16.7 -4.9 L17.85 -6.6 18.25 -6.25 17.4 -7.1 17.25 -7.25 M19.65 -11.75 L19.7 -11.8 Q20.85 -12.95 22.65 -14.0 L23.35 -14.4 21.5 -18.1 Q21.4 -15.6 19.65 -11.75 M10.2 -6.65 Q6.55 -6.5 0.25 -6.5 L-39.1 -7.45 -36.7 -4.1 -32.0 -4.55 -31.4 -4.6 -25.5 -5.0 9.5 -5.4 13.3 -5.45 14.25 -7.05 10.2 -6.65 M17.5 0.05 L17.5 0.0 17.65 -0.45 17.75 -0.75 20.15 -4.45 18.7 -5.8 18.6 -5.9 18.55 -5.9 Q17.7 -5.0 16.75 -3.0 L15.9 -0.95 16.65 -0.5 17.05 0.55 17.3 1.05 17.5 0.05 M30.5 -19.0 Q27.0 -19.0 23.0 -20.0 L23.55 -18.8 Q24.5 -16.45 25.3 -15.25 L25.55 -14.9 Q25.65 -15.7 26.5 -16.0 L26.95 -15.7 28.75 -16.7 31.6 -17.9 Q31.15 -18.6 31.05 -19.0 L30.5 -19.0 M34.35 -14.25 L32.9 -16.1 31.75 -15.35 Q29.8 -14.2 28.25 -14.0 L28.15 -13.85 Q27.8 -13.5 27.0 -13.5 L26.6 -13.6 26.55 -13.5 27.45 -12.35 28.1 -11.45 29.0 -11.75 31.65 -13.15 34.35 -14.2 34.4 -14.2 34.35 -14.25 M24.55 -12.15 Q22.35 -12.05 20.8 -10.5 L19.3 -8.4 21.5 -6.15 Q23.05 -8.05 25.0 -9.55 L25.55 -9.95 25.05 -10.6 24.85 -11.2 24.75 -11.8 24.75 -11.85 24.7 -11.95 24.55 -12.15 M20.5 -0.5 L20.15 0.05 Q20.55 0.15 21.8 1.75 23.7 3.6 26.75 4.3 L33.0 6.05 Q39.25 7.4 47.8 7.4 49.95 7.4 51.25 4.95 52.25 3.1 52.25 1.35 L51.8 -0.95 Q51.3 -2.6 51.3 -3.25 51.3 -6.2 46.0 -7.65 39.05 -9.5 36.0 -12.4 L34.7 -12.2 Q32.7 -11.75 31.0 -10.9 L28.0 -8.6 Q24.55 -6.0 23.35 -4.25 L20.5 -0.5 M8.15 5.25 L8.5 5.25 8.55 4.7 8.9 3.0 5.6 3.05 -15.0 3.5 -23.4 3.15 -28.05 3.0 -32.6 3.0 -32.65 2.9 -32.6 3.05 -32.5 3.75 -32.35 3.75 -32.15 4.2 -30.85 4.75 -30.75 4.75 -27.2 4.9 5.15 5.25 8.15 5.25 M2.4 7.4 L0.4 7.45 -0.05 7.45 0.25 8.0 0.5 9.6 0.4 11.45 0.4 11.5 0.45 11.5 4.75 11.5 8.7 11.5 8.55 10.8 8.5 8.75 8.45 7.35 2.4 7.4 M9.9 21.25 L9.4 22.15 Q9.05 22.5 8.75 22.5 1.5 20.55 -0.1 19.25 L-1.55 18.25 -4.75 16.65 -7.15 15.65 -7.35 15.55 Q-7.75 15.55 -11.2 18.8 -13.45 20.95 -15.3 21.65 L-17.0 22.0 Q-20.75 22.0 -22.15 19.5 -22.75 18.45 -23.1 15.8 L-23.15 15.65 -23.15 15.55 Q-23.1 15.25 -23.85 15.25 -24.15 15.25 -24.9 15.75 L-27.0 17.15 Q-28.05 17.9 -29.3 18.35 -31.0 18.95 -33.0 19.0 L-33.6 19.0 -34.3 18.8 -34.5 18.3 Q-34.15 16.8 -31.65 16.15 L-28.35 15.3 -27.15 14.6 -26.15 14.0 -27.0 13.95 -29.55 13.85 -31.65 13.75 -32.65 15.1 -34.5 17.75 -34.75 19.0 -34.95 20.1 -35.05 20.7 -35.25 21.55 -35.35 22.15 -35.5 22.55 -35.1 22.5 -33.05 22.25 -32.2 22.1 Q-29.95 21.6 -28.25 20.5 L-26.8 19.4 -26.75 19.4 -26.2 19.0 -24.75 18.15 -24.65 18.1 -24.5 18.0 -24.45 18.05 -24.1 18.3 -24.0 18.4 -23.7 18.85 -23.45 19.45 -23.4 19.75 -23.2 21.35 -23.15 21.8 Q-22.95 22.6 -22.3 23.1 L-22.0 23.0 -21.7 23.5 -20.45 23.95 -19.35 24.15 -18.45 24.2 -18.1 24.25 -17.25 24.25 Q-14.1 24.25 -11.0 21.65 -8.4 19.0 -8.0 19.0 L-7.95 19.0 -7.75 18.55 -7.5 18.55 -7.05 18.6 -6.0 18.75 -5.5 19.8 -5.5 19.95 -5.55 20.1 -5.1 20.3 -4.9 20.35 -1.65 21.9 -1.0 22.2 0.35 22.8 Q5.05 24.75 7.65 24.75 L11.0 24.4 11.5 24.1 11.55 24.0 11.6 23.95 11.65 23.85 11.85 23.1 11.85 23.05 11.95 22.25 12.0 20.3 12.0 20.15 12.0 20.0 12.0 19.85 12.1 17.85 12.05 17.15 12.05 16.95 11.75 16.05 11.55 15.8 10.95 15.2 10.5 18.75 9.9 21.25 M8.3 15.7 Q8.3 14.3 8.7 13.55 L-5.1 13.75 -4.0 15.0 Q-3.1 15.5 -1.2 15.85 0.55 16.2 1.0 16.55 1.85 17.2 4.8 18.5 L8.3 19.8 8.3 18.35 8.3 15.7 M13.55 27.75 L15.05 27.5 14.8 27.25 13.7 24.85 Q12.7 26.5 9.7 26.9 L10.05 29.0 13.25 28.4 13.55 27.75 M15.1 32.45 L16.65 32.05 16.45 31.3 16.05 29.55 14.05 30.25 10.0 31.0 10.0 31.25 10.0 32.7 10.0 32.75 10.0 33.0 10.05 33.0 10.1 33.25 12.8 33.25 15.1 32.45 M11.55 35.5 L11.0 35.5 8.95 35.15 7.15 35.75 Q4.55 36.5 2.75 36.5 L1.55 36.35 Q0.7 37.0 -1.75 37.0 -4.85 37.0 -6.45 36.4 -7.3 37.0 -9.75 37.0 L-14.65 36.5 -23.0 36.5 -23.7 36.15 -23.8 36.0 -31.25 36.0 -31.5 36.0 -32.2 35.65 Q-32.5 35.4 -32.5 34.55 L-32.5 34.5 -38.0 34.5 -39.05 34.35 -39.4 35.85 Q-39.85 37.15 -40.5 37.8 L-32.95 39.3 -32.35 39.4 -10.5 40.75 7.4 39.5 12.1 38.75 17.35 37.9 Q16.75 36.7 16.3 34.8 14.45 35.45 11.55 35.5 M7.75 27.0 Q4.6 27.0 1.5 25.8 2.0 27.05 2.05 29.25 L7.85 29.1 7.85 28.25 8.05 27.05 8.05 27.0 7.75 27.0 M0.1 27.6 Q0.25 26.15 0.65 25.45 L-1.45 24.4 Q-4.25 22.75 -6.0 22.15 L-6.0 29.25 -0.55 29.25 0.05 29.25 0.1 27.6 M-6.0 31.55 L-6.0 34.25 -2.2 34.55 0.05 34.6 0.0 31.5 -0.5 31.5 -4.95 31.5 -6.0 31.5 -6.0 31.55 M2.0 34.25 L4.3 34.25 8.0 33.0 8.0 31.2 2.0 31.5 2.0 34.25 M-13.0 -29.25 L-22.3 -34.6 Q-33.45 -40.75 -37.5 -40.75 -42.65 -40.75 -45.55 -38.8 L-46.5 -38.05 Q-48.05 -36.6 -48.45 -34.85 L-48.5 -34.55 -48.1 -34.75 Q-42.95 -37.1 -39.55 -37.15 -36.0 -37.2 -36.0 -34.75 L-36.0 -34.6 -36.05 -34.05 -36.25 -34.0 Q-38.5 -33.7 -42.05 -34.05 -44.05 -34.25 -47.5 -32.6 L-51.25 -30.75 -54.35 -29.25 Q-58.8 -27.3 -62.1 -20.1 L-67.05 -10.6 Q-70.05 -4.8 -71.0 -1.0 -73.3 8.3 -74.65 18.75 -76.0 29.05 -76.0 37.0 L-75.5 42.8 -74.45 45.35 Q-73.85 46.55 -73.85 47.6 L-68.2 49.3 -64.0 50.55 -61.45 51.25 -61.35 51.25 -52.5 51.25 Q-55.4 44.4 -57.35 36.05 -59.5 27.0 -59.5 20.25 -59.5 13.3 -58.6 6.65 -57.5 -1.45 -55.35 -6.5 -52.05 -14.05 -47.75 -19.6 -44.0 -24.5 -41.5 -26.35 -40.85 -26.8 -40.15 -27.2 -37.3 -28.85 -33.15 -29.4 L-30.75 -29.6 Q-27.85 -29.8 -24.35 -29.5 L-19.2 -28.95 -19.05 -28.9 -13.2 -27.9 -11.95 -27.65 -11.85 -28.65 Q-12.25 -28.85 -12.85 -29.2 L-13.0 -29.25 M-45.0 -19.1 L-47.0 -16.35 Q-51.3 -10.15 -54.0 -4.0 -55.5 -0.5 -56.55 7.4 -57.5 14.6 -57.5 20.1 -57.5 23.25 -56.55 28.45 L-55.0 36.8 -54.4 39.35 -53.9 38.6 Q-53.2 37.55 -52.2 36.95 -49.5 35.3 -41.95 35.05 -41.5 33.85 -40.95 33.2 L-41.0 32.55 -40.15 29.65 -39.0 26.55 -38.35 23.5 Q-38.0 22.55 -37.5 22.15 L-37.1 19.65 -36.25 16.3 Q-35.4 14.05 -34.45 12.85 L-34.5 12.8 -34.5 8.5 Q-34.95 7.2 -34.9 6.0 -34.9 5.0 -34.35 4.45 -36.5 0.75 -41.85 -7.05 -45.0 -11.6 -45.0 -18.05 L-45.0 -19.1 M-9.65 -25.25 Q-8.85 -24.25 -5.75 -24.25 -3.1 -24.25 -2.25 -26.15 -1.85 -27.05 -2.0 -27.4 -2.0 -31.4 -6.0 -31.55 -10.0 -31.65 -10.0 -27.3 -10.0 -25.7 -9.65 -25.25 M-7.5 7.5 L-9.5 7.5 -10.75 7.5 -11.15 7.5 -12.75 7.5 -13.0 7.5 -13.0 8.1 -13.0 11.6 -7.3 11.55 -1.1 11.5 Q-1.5 10.65 -1.5 9.75 -1.5 8.2 -0.9 7.45 L-7.5 7.5 M-19.15 11.65 L-14.55 11.6 -15.0 9.55 -14.7 7.5 -19.8 7.4 -21.6 7.35 -24.5 7.25 -24.6 7.25 -24.5 7.5 -24.5 8.5 -24.5 11.7 -19.15 11.65 M-11.6 16.4 L-8.75 13.8 -21.9 13.95 Q-21.3 14.8 -20.9 16.4 -20.15 19.8 -18.5 19.8 -14.8 19.8 -11.6 16.4 M-8.0 21.9 L-10.9 24.15 Q-12.45 25.45 -14.25 26.05 -13.9 27.35 -13.7 29.05 L-8.0 29.2 -8.0 28.3 -8.25 24.1 -8.0 21.9 M-29.7 11.75 L-26.0 11.7 Q-26.5 10.7 -26.5 9.55 -26.5 7.95 -26.1 7.2 L-29.2 6.95 -32.4 6.55 -32.5 6.5 -32.5 6.65 -32.5 11.6 -31.35 11.75 -31.15 11.65 -31.05 11.8 -29.7 11.75 M-29.55 24.3 Q-29.1 25.8 -29.3 28.1 L-22.95 28.6 -23.0 25.3 -23.0 24.9 -23.75 24.15 Q-24.4 23.35 -25.25 21.05 -26.65 22.65 -28.0 23.5 L-29.55 24.3 M-20.95 28.75 L-15.95 29.0 -16.0 27.55 -15.95 26.4 -17.5 26.5 -20.9 26.0 -20.85 27.25 -20.95 28.75 M-23.8 33.45 L-23.65 32.3 -23.45 31.3 -29.65 31.05 -30.1 33.8 -24.0 33.95 -23.9 33.95 -23.8 33.45 M-21.5 31.8 L-21.5 34.3 -15.45 34.5 -15.45 33.65 Q-15.4 32.95 -15.5 32.5 L-15.65 31.45 -21.4 31.35 -21.5 31.8 M-32.85 30.15 L-37.1 29.5 -37.3 29.35 -37.4 29.25 -37.6 29.75 -38.5 31.8 -32.35 32.5 -32.25 32.5 -32.15 31.8 -32.1 31.45 -31.95 30.7 Q-32.25 30.5 -32.85 30.15 M-31.65 24.85 L-33.75 25.0 -36.15 24.75 Q-36.8 25.8 -37.0 27.4 L-36.75 27.35 -32.35 27.75 -31.6 27.85 -31.65 24.85 M-13.45 31.7 L-13.45 34.1 -13.5 34.3 -10.2 34.55 -8.0 34.6 -8.0 31.5 -12.95 31.45 -13.45 31.45 -13.45 31.7" fill="#000000" fill-rule="evenodd" stroke="none"/>
      <path d="M6.65 -20.65 L-1.55 -20.25 Q-4.6 -20.25 -31.0 -21.0 L-39.75 -21.0 -40.0 -21.85 Q-40.25 -23.25 -40.6 -24.1 L-39.55 -24.95 Q-36.6 -26.75 -29.0 -26.75 L-13.5 -25.5 -12.1 -25.7 Q-12.1 -25.0 -11.75 -24.35 -10.55 -22.0 -5.75 -22.0 -3.3 -22.0 -1.85 -23.15 L-1.8 -23.1 -1.6 -23.0 7.0 -22.55 7.0 -22.25 Q7.0 -21.4 6.65 -20.65 M13.65 -15.05 L13.3 -13.75 Q12.55 -11.1 11.8 -9.6 L11.45 -8.95 0.4 -8.75 Q-7.7 -8.75 -30.5 -9.5 L-34.6 -9.55 -36.25 -12.85 -36.9 -14.3 -27.95 -13.9 -20.75 -13.5 Q-2.45 -13.5 5.0 -14.0 L13.65 -15.05 M10.4 22.3 L10.05 22.25 9.4 22.15 9.9 21.25 10.45 22.25 10.45 22.3 10.5 22.35 10.4 22.3 M-7.15 15.65 L-11.55 19.8 Q-13.0 21.3 -15.3 21.65 -13.45 20.95 -11.2 18.8 -7.75 15.55 -7.35 15.55 L-7.15 15.65 M-23.15 15.65 L-24.0 15.55 -24.9 15.75 Q-24.15 15.25 -23.85 15.25 -23.1 15.25 -23.15 15.55 L-23.15 15.65 M8.3 15.7 L8.3 18.35 8.3 19.8 4.8 18.5 Q1.85 17.2 1.0 16.55 0.55 16.2 -1.2 15.85 -3.1 15.5 -4.0 15.0 L-5.1 13.75 8.7 13.55 Q8.3 14.3 8.3 15.7 M-11.6 16.4 Q-14.8 19.8 -18.5 19.8 -20.15 19.8 -20.9 16.4 -21.3 14.8 -21.9 13.95 L-8.75 13.8 -11.6 16.4 M-27.0 13.95 L-26.15 14.0 -27.15 14.6 -27.0 13.95" fill="#333333" fill-rule="evenodd" stroke="none"/>
      <path d="M18.7 -5.8 L20.15 -4.45 17.75 -0.75 17.65 -0.45 17.5 0.0 17.5 0.05 17.05 0.55 16.65 -0.5 15.9 -0.95 16.75 -3.0 Q17.7 -5.0 18.55 -5.9 L18.7 -5.8 M34.35 -14.2 L31.65 -13.15 29.0 -11.75 28.1 -11.45 27.45 -12.35 26.55 -13.5 26.6 -13.6 27.0 -13.5 Q27.8 -13.5 28.15 -13.85 L28.25 -14.0 Q29.8 -14.2 31.75 -15.35 L32.9 -16.1 34.35 -14.25 34.35 -14.2 M24.75 -11.8 L24.85 -11.2 25.05 -10.6 25.55 -9.95 25.0 -9.55 Q23.05 -8.05 21.5 -6.15 L19.3 -8.4 20.8 -10.5 Q22.35 -12.05 24.55 -12.15 L24.75 -11.8 M0.4 7.45 L2.4 7.4 2.45 7.45 4.15 7.55 4.05 9.75 Q4.05 10.05 4.4 10.75 L4.75 11.5 0.45 11.5 0.4 11.45 0.5 9.6 0.25 8.0 0.4 7.45 M10.4 22.3 L10.5 22.35 10.45 22.3 10.45 22.25 10.6 21.95 11.6 19.55 11.85 17.75 12.05 16.95 12.05 17.15 12.1 17.85 12.0 19.85 12.0 20.0 12.0 20.15 12.0 20.3 11.95 22.25 11.85 23.05 11.85 23.1 11.55 23.75 11.6 23.8 11.0 24.4 7.65 24.75 Q5.05 24.75 0.35 22.8 -0.55 22.35 -0.8 22.25 L-1.0 22.2 -1.65 21.9 -4.9 20.35 -5.1 20.3 -5.5 19.95 -5.5 19.8 -6.0 18.75 -7.05 18.6 -7.15 18.4 -7.3 18.55 -7.5 18.55 -7.75 18.55 -7.95 19.0 -8.0 19.0 Q-8.4 19.0 -11.0 21.65 -14.1 24.25 -17.25 24.25 L-18.1 24.25 -18.45 24.2 -19.35 24.15 -20.45 23.95 -21.05 23.75 Q-22.2 23.0 -23.0 21.7 L-23.2 21.35 -23.4 19.75 -23.45 19.45 -23.7 18.85 -24.0 18.4 -24.0 18.25 -24.1 18.3 -24.45 18.05 -24.5 18.0 -24.65 18.1 -24.75 18.15 -26.2 19.0 -26.75 19.4 -26.8 19.4 Q-27.6 19.75 -28.55 20.25 L-31.1 21.55 -31.1 21.6 -33.05 22.25 -35.1 22.5 -35.45 22.5 -35.35 22.15 -35.25 21.55 Q-34.5 21.0 -33.05 20.7 L-30.8 20.4 Q-30.15 20.4 -27.45 18.55 L-24.75 16.65 Q-23.8 16.65 -23.3 17.55 -23.0 18.15 -23.0 18.75 -20.1 23.0 -19.65 23.0 L-17.15 22.5 -14.8 22.65 Q-13.9 22.65 -12.15 21.4 L-10.15 19.75 Q-7.75 17.5 -6.25 17.5 L-1.3 20.4 Q3.95 23.3 9.8 23.3 L10.4 22.3 M15.1 32.45 L12.8 33.25 10.1 33.25 10.05 33.0 10.0 33.0 10.0 32.75 10.0 32.7 10.0 31.25 10.0 31.0 14.05 30.25 16.05 29.55 16.45 31.3 16.65 32.05 15.1 32.45 M-4.95 31.5 L-0.5 31.5 0.0 31.5 0.05 34.6 -2.2 34.55 -6.0 34.25 -6.0 31.55 -4.95 31.5 M2.0 34.25 L2.0 31.5 8.0 31.2 8.0 33.0 4.3 34.25 2.0 34.25 M-10.75 7.5 L-9.5 7.5 -7.5 7.5 -7.35 7.5 -7.25 8.9 -7.3 11.55 -13.0 11.6 -13.0 8.1 -12.75 7.5 -11.15 7.5 -11.0 7.75 -10.75 7.5 M-19.8 7.4 L-19.6 7.55 -19.1 8.05 -19.2 9.7 -19.15 11.65 -24.5 11.7 -24.5 8.5 -24.1 7.35 -24.05 7.3 -22.0 7.35 -21.85 7.6 -21.6 7.35 -19.8 7.4 M-29.2 6.95 Q-28.9 7.25 -28.9 7.6 L-29.3 10.85 Q-29.35 11.35 -29.7 11.75 L-31.05 11.8 -31.15 11.65 -31.35 11.75 -32.5 11.6 -32.5 6.65 -32.4 6.55 -29.2 6.95 M-24.0 33.95 L-30.1 33.8 -29.65 31.05 -23.45 31.3 -23.65 32.3 -23.8 33.45 -24.0 33.75 -24.0 33.95 M-32.85 30.15 Q-32.25 30.5 -31.95 30.7 L-32.1 31.45 -32.15 31.8 -32.25 32.5 -32.35 32.5 -38.5 31.8 -37.6 29.75 -37.4 29.25 -37.3 29.35 -37.1 29.5 -32.85 30.15 M-21.5 31.8 L-21.4 31.35 -15.65 31.45 -15.5 32.5 Q-15.4 32.95 -15.45 33.65 L-15.45 34.5 -21.5 34.3 -21.5 31.8 M-12.95 31.45 L-8.0 31.5 -8.0 34.6 -10.2 34.55 -13.5 34.3 -13.45 34.1 -13.45 31.7 -12.95 31.45" fill="#8e6c24" fill-rule="evenodd" stroke="none"/>
      <path d="M19.45 -20.4 Q19.2 -19.8 19.1 -18.85 L19.05 -18.4 16.55 -18.55 Q16.25 -18.0 15.0 -17.6 L14.3 -17.4 Q7.6 -15.75 -20.75 -15.75 L-31.7 -16.5 -37.95 -16.55 Q-42.0 -16.45 -42.45 -15.7 L-43.1 -18.95 -39.0 -18.9 -1.5 -18.0 12.55 -19.25 14.85 -19.55 19.45 -20.4 M10.2 -6.65 L14.25 -7.05 13.3 -5.45 9.5 -5.4 -25.5 -5.0 -31.4 -4.6 -32.0 -4.55 -36.7 -4.1 -39.1 -7.45 0.25 -6.5 Q6.55 -6.5 10.2 -6.65 M8.55 4.7 L8.15 5.25 5.15 5.25 -27.2 4.9 -30.75 4.75 -30.85 4.75 -32.15 4.2 -32.35 3.75 -32.5 3.75 -32.6 3.05 -32.6 3.0 -28.05 3.0 -23.4 3.15 -15.0 3.5 5.6 3.05 8.9 3.0 8.55 4.7" fill="#221c15" fill-rule="evenodd" stroke="none"/>
      <path d="M20.5 -0.5 L23.35 -4.25 Q24.55 -6.0 28.0 -8.6 L31.0 -10.9 Q32.7 -11.75 34.7 -12.2 L36.0 -12.4 Q39.05 -9.5 46.0 -7.65 51.3 -6.2 51.3 -3.25 51.3 -2.6 51.8 -0.95 L52.25 1.35 Q52.25 3.1 51.25 4.95 49.95 7.4 47.8 7.4 39.25 7.4 33.0 6.05 L26.75 4.3 Q23.7 3.6 21.8 1.75 20.55 0.15 20.15 0.05 L20.5 -0.5" fill="#aa8a71" fill-rule="evenodd" stroke="none"/>
      <path d="M18.7 -5.8 L18.55 -5.9 18.6 -5.9 18.7 -5.8 M24.55 -12.15 L24.7 -11.95 24.75 -11.85 24.75 -11.8 24.55 -12.15 M2.4 7.4 L8.45 7.35 8.5 8.75 8.55 10.8 8.7 11.5 4.75 11.5 4.4 10.75 Q4.05 10.05 4.05 9.75 L4.15 7.55 2.45 7.45 2.4 7.4 M0.45 11.5 L0.4 11.5 0.4 11.45 0.45 11.5 M0.25 8.0 L-0.05 7.45 0.4 7.45 0.25 8.0 M9.4 22.15 L10.05 22.25 10.4 22.3 9.8 23.3 Q3.95 23.3 -1.3 20.4 L-6.25 17.5 Q-7.75 17.5 -10.15 19.75 L-12.15 21.4 Q-13.9 22.65 -14.8 22.65 L-17.15 22.5 -19.65 23.0 Q-20.1 23.0 -23.0 18.75 -23.0 18.15 -23.3 17.55 -23.8 16.65 -24.75 16.65 L-27.45 18.55 Q-30.15 20.4 -30.8 20.4 L-33.05 20.7 Q-34.5 21.0 -35.25 21.55 L-35.05 20.7 -34.95 20.1 -34.75 19.0 -33.6 19.0 -33.0 19.0 -29.75 19.0 -29.3 18.35 Q-28.05 17.9 -27.0 17.15 L-24.9 15.75 -24.0 15.55 -23.15 15.65 -23.1 15.8 Q-22.75 18.45 -22.15 19.5 -20.75 22.0 -17.0 22.0 L-15.3 21.65 Q-13.0 21.3 -11.55 19.8 L-7.15 15.65 -4.75 16.65 -1.55 18.25 -0.1 19.25 Q1.5 20.55 8.75 22.5 9.05 22.5 9.4 22.15 M10.45 22.25 L9.9 21.25 10.5 18.75 10.95 15.2 11.55 15.8 11.75 16.05 12.05 16.95 11.85 17.75 11.6 19.55 10.6 21.95 10.45 22.25 M11.65 23.85 L11.6 23.95 11.45 24.0 11.5 24.1 11.0 24.4 11.6 23.8 11.55 23.75 11.65 23.85 M0.35 22.8 L-1.0 22.2 -0.8 22.25 Q-0.55 22.35 0.35 22.8 M-5.1 20.3 L-5.55 20.1 -5.5 19.95 -5.1 20.3 M-20.45 23.95 L-21.7 23.5 -22.0 23.0 -22.3 23.1 Q-22.95 22.6 -23.15 21.8 L-23.2 21.35 -23.0 21.7 Q-22.2 23.0 -21.05 23.75 L-20.45 23.95 M-9.65 -25.25 Q-10.0 -25.7 -10.0 -27.3 -10.0 -31.65 -6.0 -31.55 -2.0 -31.4 -2.0 -27.4 -1.85 -27.05 -2.25 -26.15 -3.1 -24.25 -5.75 -24.25 -8.85 -24.25 -9.65 -25.25 M-10.75 7.5 L-11.0 7.75 -11.15 7.5 -10.75 7.5 M-12.75 7.5 L-13.0 8.1 -13.0 7.5 -12.75 7.5 M-7.3 11.55 L-7.25 8.9 -7.35 7.5 -7.5 7.5 -0.9 7.45 Q-1.5 8.2 -1.5 9.75 -1.5 10.65 -1.1 11.5 L-7.3 11.55 M-19.15 11.65 L-19.2 9.7 -19.1 8.05 -19.6 7.55 -19.8 7.4 -14.7 7.5 -15.0 9.55 -14.55 11.6 -19.15 11.65 M-21.6 7.35 L-21.85 7.6 -22.0 7.35 -24.05 7.3 -24.1 7.35 -24.5 8.5 -24.5 7.5 -24.5 7.25 -21.6 7.35 M-29.7 11.75 Q-29.35 11.35 -29.3 10.85 L-28.9 7.6 Q-28.9 7.25 -29.2 6.95 L-26.1 7.2 Q-26.5 7.95 -26.5 9.55 -26.5 10.7 -26.0 11.7 L-29.7 11.75 M-32.4 6.55 L-32.5 6.65 -32.5 6.5 -32.4 6.55" fill="#cc9d3c" fill-rule="evenodd" stroke="none"/>
      <path d="M15.55 -21.75 L15.25 -21.75 15.25 -21.7 10.2 -21.1 6.65 -20.65 Q7.0 -21.4 7.0 -22.25 L7.0 -22.55 15.55 -21.75 M-39.75 -21.0 L-43.5 -20.6 -43.6 -20.85 -40.6 -24.1 Q-40.25 -23.25 -40.0 -21.85 L-39.75 -21.0 M11.45 -8.95 L11.8 -9.6 Q12.55 -11.1 13.3 -13.75 L13.65 -15.05 Q16.8 -15.65 18.8 -16.55 L18.5 -15.1 15.75 -9.85 15.5 -10.0 Q14.65 -10.0 14.75 -9.8 14.95 -9.5 14.65 -9.35 L11.45 -8.95 M-36.9 -14.3 L-36.25 -12.85 -34.6 -9.55 -40.3 -9.05 -40.65 -9.8 Q-41.3 -11.1 -41.75 -12.7 L-41.95 -13.45 -42.15 -14.45 -42.1 -14.5 -36.9 -14.3 M8.1 -2.8 L7.45 -1.55 6.4 0.75 Q0.35 0.5 -12.25 0.5 L-19.5 1.0 -26.25 0.65 -29.35 0.55 -30.5 0.5 -33.0 1.55 -33.1 1.7 Q-33.8 0.1 -35.3 -2.1 L-30.75 -2.2 Q-13.6 -2.7 7.4 -2.8 L8.1 -2.8 M8.55 4.7 L8.5 5.25 8.15 5.25 8.55 4.7 M-29.3 18.35 L-29.75 19.0 -33.0 19.0 Q-31.0 18.95 -29.3 18.35 M-33.6 19.0 L-34.75 19.0 -34.5 17.75 -32.65 15.1 -31.65 13.75 -29.55 13.85 -27.0 13.95 -27.15 14.6 -28.35 15.3 -31.65 16.15 Q-34.15 16.8 -34.5 18.3 L-34.3 18.8 -33.6 19.0 M-7.05 18.6 L-7.5 18.55 -7.3 18.55 -7.15 18.4 -7.05 18.6 M-24.0 18.4 L-24.1 18.3 -24.0 18.25 -24.0 18.4 M-26.8 19.4 L-28.25 20.5 Q-29.95 21.6 -32.2 22.1 L-31.2 21.85 -31.1 21.6 -31.1 21.55 -28.55 20.25 Q-27.6 19.75 -26.8 19.4" fill="#666666" fill-rule="evenodd" stroke="none"/>
      <path d="M15.55 -21.75 L15.25 -21.7 15.25 -21.75 15.55 -21.75 M6.4 0.75 L7.45 -1.55 8.1 -2.8 11.75 -2.9 11.2 -2.0 9.7 0.95 6.4 0.75 M-33.1 1.7 L-33.0 1.55 -32.9 2.15 -33.1 1.7 M-32.6 3.05 L-32.65 2.9 -32.6 3.0 -32.6 3.05 M11.6 23.95 L11.55 24.0 11.5 24.1 11.45 24.0 11.6 23.95 M-32.2 22.1 L-33.05 22.25 -31.1 21.6 -31.2 21.85 -32.2 22.1 M-35.1 22.5 L-35.5 22.55 -35.35 22.15 -35.45 22.5 -35.1 22.5 M11.65 23.85 L11.55 23.75 11.85 23.1 11.65 23.85 M-42.1 -14.5 L-42.15 -14.45 -42.2 -14.55 -42.1 -14.5" fill="#999999" fill-rule="evenodd" stroke="none"/>
      <path d="M17.25 -7.25 L17.4 -7.1 18.25 -6.25 17.85 -6.6 16.7 -4.9 Q15.3 -2.65 14.8 -1.4 L15.3 -1.2 14.1 -1.6 16.25 -5.5 17.25 -7.25 M19.65 -11.75 Q21.4 -15.6 21.5 -18.1 L23.35 -14.4 22.65 -14.0 Q20.85 -12.95 19.7 -11.8 L19.65 -11.75 M17.05 0.55 L17.5 0.05 17.3 1.05 17.05 0.55 M30.5 -19.0 L31.05 -19.0 Q31.15 -18.6 31.6 -17.9 L28.75 -16.7 26.95 -15.7 26.5 -16.0 Q25.65 -15.7 25.55 -14.9 L25.3 -15.25 Q24.5 -16.45 23.55 -18.8 L23.0 -20.0 Q27.0 -19.0 30.5 -19.0 M34.35 -14.2 L34.35 -14.25 34.4 -14.2 34.35 -14.2 M13.55 27.75 L13.25 28.4 10.05 29.0 9.7 26.9 Q12.7 26.5 13.7 24.85 L14.8 27.25 15.05 27.5 13.55 27.75 M8.05 27.05 L7.85 28.25 7.85 29.1 2.05 29.25 Q2.0 27.05 1.5 25.8 4.6 27.0 7.75 27.0 L8.05 27.05 M0.1 27.6 L0.05 29.25 -0.55 29.25 -6.0 29.25 -6.0 22.15 Q-4.25 22.75 -1.45 24.4 L0.65 25.45 Q0.25 26.15 0.1 27.6 M-4.95 31.5 L-6.0 31.55 -6.0 31.5 -4.95 31.5 M-8.0 21.9 L-8.25 24.1 -8.0 28.3 -8.0 29.2 -13.7 29.05 Q-13.9 27.35 -14.25 26.05 -12.45 25.45 -10.9 24.15 L-8.0 21.9 M-29.55 24.3 L-28.0 23.5 Q-26.65 22.65 -25.25 21.05 -24.4 23.35 -23.75 24.15 L-23.0 24.9 -23.0 25.3 -22.95 28.6 -29.3 28.1 Q-29.1 25.8 -29.55 24.3 M-20.95 28.75 L-20.85 27.25 -20.9 26.0 -17.5 26.5 -15.95 26.4 -16.0 27.55 -15.95 29.0 -20.95 28.75 M-24.0 33.95 L-24.0 33.75 -23.8 33.45 -23.9 33.95 -24.0 33.95 M-31.65 24.85 L-31.6 27.85 -32.35 27.75 -36.75 27.35 -37.0 27.4 Q-36.8 25.8 -36.15 24.75 L-33.75 25.0 -31.65 24.85 M-12.95 31.45 L-13.45 31.7 -13.45 31.45 -12.95 31.45" fill="#e5e5e5" fill-rule="evenodd" stroke="none"/>
      <path d="M26.3 -30.95 L26.15 -31.3 22.35 -30.65 16.65 -29.5 9.35 -27.75 6.6 -27.2 5.85 -26.95 12.55 -29.25 Q13.65 -29.45 18.7 -31.65 L21.5 -32.8 22.0 -32.5 22.75 -33.0 22.95 -33.05 23.0 -33.45 23.9 -33.75 Q25.2 -33.75 26.3 -30.95 M9.6 -25.05 L10.75 -25.25 17.5 -26.0 24.8 -26.0 33.0 -25.35 33.0 -21.25 28.55 -21.25 19.3 -23.4 9.6 -25.05 M20.35 -34.95 L20.4 -34.8 18.8 -33.75 16.65 -33.0 18.75 -34.1 20.35 -34.95 M-0.05 -28.7 Q-0.25 -30.1 -0.7 -31.15 L1.55 -32.95 4.05 -34.75 10.25 -36.6 Q15.7 -38.25 16.65 -38.25 18.5 -38.25 19.5 -36.8 L19.15 -37.25 Q15.7 -36.3 10.65 -34.3 3.15 -31.3 -0.05 -28.7 M-31.25 36.0 L-31.3 36.1 Q-32.15 38.1 -32.35 39.4 L-32.95 39.3 -40.5 37.8 Q-39.85 37.15 -39.4 35.85 L-39.05 34.35 -38.0 34.5 -32.5 34.5 -32.5 34.55 Q-32.5 35.4 -32.2 35.65 L-31.5 36.0 -31.25 36.0 M12.1 38.75 L11.55 35.5 Q14.45 35.45 16.3 34.8 16.75 36.7 17.35 37.9 L12.1 38.75 M-13.0 -29.25 L-17.5 -30.75 -19.75 -31.75 -21.9 -32.85 -25.0 -34.3 -25.75 -34.6 Q-38.75 -39.55 -45.45 -38.8 L-45.55 -38.8 Q-42.65 -40.75 -37.5 -40.75 -33.45 -40.75 -22.3 -34.6 L-13.0 -29.25 M-36.0 -34.6 L-34.25 -34.1 -32.3 -33.6 -32.35 -33.6 -31.1 -33.3 -30.15 -33.0 Q-35.65 -32.05 -39.75 -30.15 -43.3 -28.5 -50.2 -24.65 L-51.6 -23.15 Q-54.95 -19.4 -57.3 -15.35 L-57.55 -14.8 Q-58.0 -13.7 -59.2 -11.7 L-60.65 -8.25 -62.9 -2.9 -62.95 -2.7 Q-65.85 12.45 -66.35 16.45 -67.15 22.85 -67.15 34.55 -67.15 36.35 -66.3 39.1 L-65.5 42.35 Q-65.5 45.15 -64.6 48.25 L-64.0 50.55 -68.2 49.3 -73.85 47.6 Q-73.85 46.55 -74.45 45.35 L-75.5 42.8 -76.0 37.0 Q-76.0 29.05 -74.65 18.75 -73.3 8.3 -71.0 -1.0 -70.05 -4.8 -67.05 -10.6 L-62.1 -20.1 Q-58.8 -27.3 -54.35 -29.25 L-51.25 -30.75 -47.5 -32.6 Q-44.05 -34.25 -42.05 -34.05 -38.5 -33.7 -36.25 -34.0 L-36.05 -34.05 -36.0 -34.6 M-41.5 -26.35 L-41.65 -26.65 -40.15 -27.2 Q-40.85 -26.8 -41.5 -26.35 M-33.15 -29.4 L-30.75 -30.05 -30.75 -29.6 -33.15 -29.4" fill="#942403" fill-rule="evenodd" stroke="none"/>
      <path d="M5.85 -26.95 L6.6 -27.2 9.35 -27.75 16.65 -29.5 22.35 -30.65 26.15 -31.3 26.3 -30.95 26.4 -30.6 Q27.1 -28.7 27.85 -27.95 L25.5 -28.0 25.0 -27.9 Q24.5 -27.75 24.5 -27.0 24.5 -26.25 24.65 -26.1 L24.8 -26.0 17.5 -26.0 10.75 -25.25 9.6 -25.05 3.0 -25.5 1.6 -25.45 3.0 -25.95 3.4 -26.1 5.85 -26.95 M20.35 -34.95 L18.75 -34.1 16.65 -33.0 16.55 -32.95 14.75 -32.35 9.45 -30.55 8.7 -30.3 Q2.35 -28.1 0.15 -26.95 L0.0 -27.35 -0.05 -28.7 Q3.15 -31.3 10.65 -34.3 15.7 -36.3 19.15 -37.25 L19.5 -36.8 20.0 -35.85 20.05 -35.7 20.1 -35.6 20.35 -34.95 M4.75 -41.1 L8.7 -39.0 Q5.15 -37.8 1.9 -35.85 -1.3 -33.95 -1.85 -32.8 -3.55 -34.5 -6.0 -34.35 -8.4 -34.15 -10.1 -32.3 L-11.05 -30.95 Q-12.35 -32.4 -16.5 -34.35 -25.35 -38.55 -27.5 -40.0 L-28.1 -40.25 Q-25.5 -41.65 -22.5 -42.65 -16.25 -44.75 -9.5 -44.75 -2.7 -44.75 4.75 -41.1 M-31.25 36.0 L-23.8 36.0 -23.7 36.15 -23.0 36.5 -14.65 36.5 -9.75 37.0 Q-7.3 37.0 -6.45 36.4 -4.85 37.0 -1.75 37.0 0.7 37.0 1.55 36.35 L2.75 36.5 Q4.55 36.5 7.15 35.75 L8.95 35.15 11.0 35.5 11.55 35.5 12.1 38.75 7.4 39.5 -10.5 40.75 -32.35 39.4 Q-32.15 38.1 -31.3 36.1 L-31.25 36.0 M-45.55 -38.8 L-45.45 -38.8 Q-38.75 -39.55 -25.75 -34.6 L-25.0 -34.3 -21.9 -32.85 -19.75 -31.75 -17.5 -30.75 -13.0 -29.25 -12.85 -29.2 Q-12.25 -28.85 -11.85 -28.65 L-11.95 -27.65 -13.2 -27.9 -19.05 -28.9 -19.2 -28.95 -24.35 -29.5 Q-27.85 -29.8 -30.75 -29.6 L-30.75 -30.05 -33.15 -29.4 Q-37.3 -28.85 -40.15 -27.2 L-41.65 -26.65 -41.5 -26.35 Q-44.0 -24.5 -47.75 -19.6 -52.05 -14.05 -55.35 -6.5 -57.5 -1.45 -58.6 6.65 -59.5 13.3 -59.5 20.25 -59.5 27.0 -57.35 36.05 -55.4 44.4 -52.5 51.25 L-61.35 51.25 -61.45 51.25 -64.0 50.55 -64.6 48.25 Q-65.5 45.15 -65.5 42.35 L-66.3 39.1 Q-67.15 36.35 -67.15 34.55 -67.15 22.85 -66.35 16.45 -65.85 12.45 -62.95 -2.7 L-62.9 -2.9 -60.65 -8.25 -59.2 -11.7 Q-58.0 -13.7 -57.55 -14.8 L-57.3 -15.35 Q-54.95 -19.4 -51.6 -23.15 L-50.2 -24.65 Q-43.3 -28.5 -39.75 -30.15 -35.65 -32.05 -30.15 -33.0 L-31.1 -33.3 -32.35 -33.6 -32.3 -33.6 -34.25 -34.1 -36.0 -34.6 -36.0 -34.75 Q-36.0 -37.2 -39.55 -37.15 -42.95 -37.1 -48.1 -34.75 L-48.45 -34.85 Q-48.05 -36.6 -46.5 -38.05 L-45.55 -38.8" fill="#731c02" fill-rule="evenodd" stroke="none"/>
      <path d="M-45.0 -19.1 L-45.0 -18.05 Q-45.0 -11.6 -41.85 -7.05 -36.5 0.75 -34.35 4.45 -34.9 5.0 -34.9 6.0 -34.95 7.2 -34.5 8.5 L-34.5 12.8 -34.45 12.85 Q-35.4 14.05 -36.25 16.3 L-37.1 19.65 -37.5 22.15 Q-38.0 22.55 -38.35 23.5 L-39.0 26.55 -40.15 29.65 -41.0 32.55 -40.95 33.2 Q-41.5 33.85 -41.95 35.05 -49.5 35.3 -52.2 36.95 -53.2 37.55 -53.9 38.6 L-54.4 39.35 -55.0 36.8 -56.55 28.45 Q-57.5 23.25 -57.5 20.1 -57.5 14.6 -56.55 7.4 -55.5 -0.5 -54.0 -4.0 -51.3 -10.15 -47.0 -16.35 L-45.0 -19.1" fill="#5a1501" fill-rule="evenodd" stroke="none"/>
      <path d="M-24.1 -0.65 L-21.25 -0.8 -21.45 1.55 -23.7 1.6 -24.45 1.45 -24.35 0.45 -24.2 -0.4 -24.1 -0.65 M-22.35 -2.65 L-24.8 -2.6 -25.25 -2.2 -25.65 -1.7 Q-26.1 -0.95 -26.1 0.7 L-26.1 2.2 Q-25.55 3.55 -22.6 3.55 -20.0 3.55 -19.5 2.2 L-19.5 0.25 Q-19.25 -0.85 -19.5 -1.5 -19.95 -2.65 -22.35 -2.65 M-27.8 -1.9 Q-26.7 -3.9 -25.0 -4.7 -21.1 -5.65 -18.7 -3.1 -16.85 -1.15 -16.85 1.05 -16.85 2.6 -17.9 3.75 -19.9 6.0 -25.0 6.0 -26.35 6.0 -27.65 4.25 -28.75 2.75 -28.75 1.8 -28.75 0.0 -27.8 -1.9" fill="#8e6c24" fill-rule="evenodd" stroke="none"/>
      <path d="M-24.1 -0.65 L-24.2 -0.4 -24.35 0.45 -24.45 1.45 -23.7 1.6 -21.45 1.55 -21.25 -0.8 -24.1 -0.65 M-20.35 -6.7 L-16.6 -3.95 -15.15 -1.15 -15.1 0.75 Q-15.1 3.35 -16.6 5.3 -18.7 7.95 -22.8 7.95 -27.1 7.95 -29.2 5.3 -30.5 3.6 -30.5 1.8 -30.5 -3.95 -24.8 -6.9 -22.65 -8.0 -20.35 -6.7 M-27.8 -1.9 Q-28.75 0.0 -28.75 1.8 -28.75 2.75 -27.65 4.25 -26.35 6.0 -25.0 6.0 -19.9 6.0 -17.9 3.75 -16.85 2.6 -16.85 1.05 -16.85 -1.15 -18.7 -3.1 -21.1 -5.65 -25.0 -4.7 -26.7 -3.9 -27.8 -1.9 M-22.35 -2.65 Q-19.95 -2.65 -19.5 -1.5 -19.25 -0.85 -19.5 0.25 L-19.5 2.2 Q-20.0 3.55 -22.6 3.55 -25.55 3.55 -26.1 2.2 L-26.1 0.7 Q-26.1 -0.95 -25.65 -1.7 L-25.25 -2.2 -24.8 -2.6 -22.35 -2.65" fill="#000000" fill-rule="evenodd" stroke="none"/>
      <path d="M-20.9 -15.55 L-17.15 -12.8 -15.7 -10.0 -15.65 -8.1 Q-15.65 -5.5 -17.15 -3.55 -19.25 -0.9 -23.35 -0.9 -27.65 -0.9 -29.75 -3.55 -31.05 -5.25 -31.05 -7.05 -31.05 -12.8 -25.35 -15.75 -23.2 -16.85 -20.9 -15.55 M-24.65 -9.5 L-24.75 -9.25 -24.9 -8.4 -25.0 -7.4 -24.25 -7.25 -22.0 -7.3 -21.8 -9.65 -24.65 -9.5 M-29.3 -7.05 Q-29.3 -6.1 -28.2 -4.6 -26.9 -2.85 -25.55 -2.85 -20.45 -2.85 -18.45 -5.1 -17.4 -6.25 -17.4 -7.8 -17.4 -10.0 -19.25 -11.95 -21.65 -14.5 -25.55 -13.55 -27.25 -12.75 -28.35 -10.75 -29.3 -8.85 -29.3 -7.05 M-25.35 -11.45 L-22.9 -11.5 Q-20.5 -11.5 -20.05 -10.35 -19.8 -9.7 -20.05 -8.6 L-20.05 -6.65 Q-20.55 -5.3 -23.15 -5.3 -26.1 -5.3 -26.65 -6.65 L-26.65 -8.15 Q-26.65 -9.8 -26.2 -10.55 L-25.8 -11.05 -25.35 -11.45" fill="#000000" fill-rule="evenodd" stroke="none"/>
      <path d="M-25.35 -11.45 L-25.8 -11.05 -26.2 -10.55 Q-26.65 -9.8 -26.65 -8.15 L-26.65 -6.65 Q-26.1 -5.3 -23.15 -5.3 -20.55 -5.3 -20.05 -6.65 L-20.05 -8.6 Q-19.8 -9.7 -20.05 -10.35 -20.5 -11.5 -22.9 -11.5 L-25.35 -11.45 M-29.3 -7.05 Q-29.3 -8.85 -28.35 -10.75 -27.25 -12.75 -25.55 -13.55 -21.65 -14.5 -19.25 -11.95 -17.4 -10.0 -17.4 -7.8 -17.4 -6.25 -18.45 -5.1 -20.45 -2.85 -25.55 -2.85 -26.9 -2.85 -28.2 -4.6 -29.3 -6.1 -29.3 -7.05 M-24.65 -9.5 L-21.8 -9.65 -22.0 -7.3 -24.25 -7.25 -25.0 -7.4 -24.9 -8.4 -24.75 -9.25 -24.65 -9.5" fill="#8e6c24" fill-rule="evenodd" stroke="none"/>
      <path d="M-21.2 -25.45 Q-19.8 -24.7 -17.45 -22.7 L-16.0 -19.9 -15.95 -18.0 Q-15.95 -15.4 -17.45 -13.45 -19.55 -10.8 -23.65 -10.8 -27.95 -10.8 -30.05 -13.45 -31.35 -15.15 -31.35 -16.95 -31.35 -22.7 -25.65 -25.65 -23.5 -26.75 -21.2 -25.45 M-20.35 -20.25 Q-20.1 -19.6 -20.35 -18.5 L-20.35 -16.55 Q-20.85 -15.2 -23.45 -15.2 -26.4 -15.2 -26.95 -16.55 L-26.95 -18.05 Q-26.95 -19.7 -26.5 -20.45 L-26.1 -20.95 -25.65 -21.35 -23.2 -21.4 Q-20.8 -21.4 -20.35 -20.25 M-25.05 -19.15 L-25.2 -18.3 -25.3 -17.3 -24.55 -17.15 -22.3 -17.2 Q-22.1 -17.85 -22.1 -19.55 L-24.95 -19.4 -25.05 -19.15 M-28.65 -20.65 Q-29.6 -18.75 -29.6 -16.95 -29.6 -16.0 -28.5 -14.5 -27.2 -12.75 -25.85 -12.75 -20.75 -12.75 -18.75 -15.0 -17.7 -16.15 -17.7 -17.7 -17.7 -19.9 -19.55 -21.85 -21.95 -24.4 -25.85 -23.45 -27.55 -22.65 -28.65 -20.65" fill="#000000" fill-rule="evenodd" stroke="none"/>
      <path d="M-28.65 -20.65 Q-27.55 -22.65 -25.85 -23.45 -21.95 -24.4 -19.55 -21.85 -17.7 -19.9 -17.7 -17.7 -17.7 -16.15 -18.75 -15.0 -20.75 -12.75 -25.85 -12.75 -27.2 -12.75 -28.5 -14.5 -29.6 -16.0 -29.6 -16.95 -29.6 -18.75 -28.65 -20.65 M-25.05 -19.15 L-24.95 -19.4 -22.1 -19.55 Q-22.1 -17.85 -22.3 -17.2 L-24.55 -17.15 -25.3 -17.3 -25.2 -18.3 -25.05 -19.15 M-20.35 -20.25 Q-20.8 -21.4 -23.2 -21.4 L-25.65 -21.35 -26.1 -20.95 -26.5 -20.45 Q-26.95 -19.7 -26.95 -18.05 L-26.95 -16.55 Q-26.4 -15.2 -23.45 -15.2 -20.85 -15.2 -20.35 -16.55 L-20.35 -18.5 Q-20.1 -19.6 -20.35 -20.25" fill="#8e6c24" fill-rule="evenodd" stroke="none"/>
      <path d="M-10.25 -0.35 L-10.15 -0.6 -7.3 -0.75 -7.5 1.6 -9.75 1.65 -10.5 1.5 -10.4 0.5 -10.25 -0.35 M-11.3 -2.15 L-11.7 -1.65 Q-12.15 -0.9 -12.15 0.75 L-12.15 2.25 Q-11.6 3.6 -8.65 3.6 -6.05 3.6 -5.55 2.25 L-5.55 0.3 Q-5.3 -0.8 -5.55 -1.45 -6.0 -2.6 -8.4 -2.6 L-10.85 -2.55 -11.3 -2.15 M-13.85 -1.85 Q-12.75 -3.85 -11.05 -4.65 -7.15 -5.6 -4.75 -3.05 -2.9 -1.1 -2.9 1.1 -2.9 2.65 -3.95 3.8 -5.95 6.05 -11.05 6.05 -12.4 6.05 -13.7 4.3 -14.8 2.8 -14.8 1.85 -14.8 0.05 -13.85 -1.85" fill="#8e6c24" fill-rule="evenodd" stroke="none"/>
      <path d="M-13.85 -1.85 Q-14.8 0.05 -14.8 1.85 -14.8 2.8 -13.7 4.3 -12.4 6.05 -11.05 6.05 -5.95 6.05 -3.95 3.8 -2.9 2.65 -2.9 1.1 -2.9 -1.1 -4.75 -3.05 -7.15 -5.6 -11.05 -4.65 -12.75 -3.85 -13.85 -1.85 M-11.3 -2.15 L-10.85 -2.55 -8.4 -2.6 Q-6.0 -2.6 -5.55 -1.45 -5.3 -0.8 -5.55 0.3 L-5.55 2.25 Q-6.05 3.6 -8.65 3.6 -11.6 3.6 -12.15 2.25 L-12.15 0.75 Q-12.15 -0.9 -11.7 -1.65 L-11.3 -2.15 M-10.25 -0.35 L-10.4 0.5 -10.5 1.5 -9.75 1.65 -7.5 1.6 -7.3 -0.75 -10.15 -0.6 -10.25 -0.35 M-1.2 -1.1 L-1.15 0.8 Q-1.15 3.4 -2.65 5.35 -4.75 8.0 -8.85 8.0 -13.15 8.0 -15.25 5.35 -16.55 3.65 -16.55 1.85 -16.55 -3.9 -10.85 -6.85 -8.7 -7.95 -6.4 -6.65 L-2.65 -3.9 -1.2 -1.1" fill="#000000" fill-rule="evenodd" stroke="none"/>
      <path d="M-5.5 -15.45 L-1.75 -12.7 -0.3 -9.9 -0.25 -8.0 Q-0.25 -5.4 -1.75 -3.45 -3.85 -0.8 -7.95 -0.8 -12.25 -0.8 -14.35 -3.45 -15.65 -5.15 -15.65 -6.95 -15.65 -12.7 -9.95 -15.65 -7.8 -16.75 -5.5 -15.45 M-12.8 -4.5 Q-11.5 -2.75 -10.15 -2.75 -5.05 -2.75 -3.05 -5.0 -2.0 -6.15 -2.0 -7.7 -2.0 -9.9 -3.85 -11.85 -6.25 -14.4 -10.15 -13.45 -11.85 -12.65 -12.95 -10.65 -13.9 -8.75 -13.9 -6.95 -13.9 -6.0 -12.8 -4.5 M-11.25 -8.05 Q-11.25 -9.7 -10.8 -10.45 L-10.4 -10.95 -9.95 -11.35 -7.5 -11.4 Q-5.1 -11.4 -4.65 -10.25 -4.4 -9.6 -4.65 -8.5 L-4.65 -6.55 Q-5.15 -5.2 -7.75 -5.2 -10.7 -5.2 -11.25 -6.55 L-11.25 -8.05 M-9.5 -8.3 L-9.6 -7.3 -8.85 -7.15 -6.6 -7.2 -6.4 -9.55 -9.25 -9.4 -9.35 -9.15 -9.5 -8.3" fill="#000000" fill-rule="evenodd" stroke="none"/>
      <path d="M-9.5 -8.3 L-9.35 -9.15 -9.25 -9.4 -6.4 -9.55 -6.6 -7.2 -8.85 -7.15 -9.6 -7.3 -9.5 -8.3 M-11.25 -8.05 L-11.25 -6.55 Q-10.7 -5.2 -7.75 -5.2 -5.15 -5.2 -4.65 -6.55 L-4.65 -8.5 Q-4.4 -9.6 -4.65 -10.25 -5.1 -11.4 -7.5 -11.4 L-9.95 -11.35 -10.4 -10.95 -10.8 -10.45 Q-11.25 -9.7 -11.25 -8.05 M-12.8 -4.5 Q-13.9 -6.0 -13.9 -6.95 -13.9 -8.75 -12.95 -10.65 -11.85 -12.65 -10.15 -13.45 -6.25 -14.4 -3.85 -11.85 -2.0 -9.9 -2.0 -7.7 -2.0 -6.15 -3.05 -5.0 -5.05 -2.75 -10.15 -2.75 -11.5 -2.75 -12.8 -4.5" fill="#8e6c24" fill-rule="evenodd" stroke="none"/>
      <path d="M0.6 -17.9 Q0.6 -15.3 -0.9 -13.35 -3.0 -10.7 -7.1 -10.7 -11.4 -10.7 -13.5 -13.35 -14.8 -15.05 -14.8 -16.85 -14.8 -22.6 -9.1 -25.55 -6.95 -26.65 -4.65 -25.35 L-0.9 -22.6 0.55 -19.8 0.6 -17.9 M-9.55 -20.85 L-9.1 -21.25 -6.65 -21.3 Q-4.25 -21.3 -3.8 -20.15 -3.55 -19.5 -3.8 -18.4 L-3.8 -16.45 Q-4.3 -15.1 -6.9 -15.1 -9.85 -15.1 -10.4 -16.45 L-10.4 -17.95 Q-10.4 -19.6 -9.95 -20.35 L-9.55 -20.85 M-8.5 -19.05 L-8.65 -18.2 -8.75 -17.2 -8.0 -17.05 -5.75 -17.1 -5.55 -19.45 -8.4 -19.3 -8.5 -19.05 M-1.15 -17.6 Q-1.15 -19.8 -3.0 -21.75 -5.4 -24.3 -9.3 -23.35 -11.0 -22.55 -12.1 -20.55 -13.05 -18.65 -13.05 -16.85 -13.05 -15.9 -11.95 -14.4 -10.65 -12.65 -9.3 -12.65 -4.2 -12.65 -2.2 -14.9 -1.15 -16.05 -1.15 -17.6" fill="#000000" fill-rule="evenodd" stroke="none"/>
      <path d="M-1.15 -17.6 Q-1.15 -16.05 -2.2 -14.9 -4.2 -12.65 -9.3 -12.65 -10.65 -12.65 -11.95 -14.4 -13.05 -15.9 -13.05 -16.85 -13.05 -18.65 -12.1 -20.55 -11.0 -22.55 -9.3 -23.35 -5.4 -24.3 -3.0 -21.75 -1.15 -19.8 -1.15 -17.6 M-8.5 -19.05 L-8.4 -19.3 -5.55 -19.45 -5.75 -17.1 -8.0 -17.05 -8.75 -17.2 -8.65 -18.2 -8.5 -19.05 M-9.55 -20.85 L-9.95 -20.35 Q-10.4 -19.6 -10.4 -17.95 L-10.4 -16.45 Q-9.85 -15.1 -6.9 -15.1 -4.3 -15.1 -3.8 -16.45 L-3.8 -18.4 Q-3.55 -19.5 -3.8 -20.15 -4.25 -21.3 -6.65 -21.3 L-9.1 -21.25 -9.55 -20.85" fill="#8e6c24" fill-rule="evenodd" stroke="none"/>
      <path d="M3.65 -0.2 L3.75 -0.45 6.6 -0.6 6.4 1.75 4.15 1.8 3.4 1.65 3.5 0.65 Q3.5 0.0 3.65 -0.2 M2.6 -2.0 L2.2 -1.5 Q1.75 -0.75 1.75 0.9 L1.75 2.4 Q2.3 3.75 5.25 3.75 7.85 3.75 8.35 2.4 L8.35 0.45 Q8.6 -0.65 8.35 -1.3 7.9 -2.45 5.5 -2.45 L3.05 -2.4 2.6 -2.0 M0.05 -1.7 Q1.15 -3.7 2.85 -4.5 6.75 -5.45 9.15 -2.9 11.0 -0.95 11.0 1.25 11.0 2.8 9.95 3.95 7.95 6.2 2.85 6.2 1.5 6.2 0.2 4.45 -0.9 2.95 -0.9 2.0 -0.9 0.2 0.05 -1.7" fill="#8e6c24" fill-rule="evenodd" stroke="none"/>
      <path d="M0.05 -1.7 Q-0.9 0.2 -0.9 2.0 -0.9 2.95 0.2 4.45 1.5 6.2 2.85 6.2 7.95 6.2 9.95 3.95 11.0 2.8 11.0 1.25 11.0 -0.95 9.15 -2.9 6.75 -5.45 2.85 -4.5 1.15 -3.7 0.05 -1.7 M2.6 -2.0 L3.05 -2.4 5.5 -2.45 Q7.9 -2.45 8.35 -1.3 8.6 -0.65 8.35 0.45 L8.35 2.4 Q7.85 3.75 5.25 3.75 2.3 3.75 1.75 2.4 L1.75 0.9 Q1.75 -0.75 2.2 -1.5 L2.6 -2.0 M3.65 -0.2 Q3.5 0.0 3.5 0.65 L3.4 1.65 4.15 1.8 6.4 1.75 6.6 -0.6 3.75 -0.45 3.65 -0.2 M7.5 -6.5 L11.25 -3.75 12.7 -0.95 12.75 0.95 Q12.75 3.55 11.25 5.5 9.15 8.15 5.05 8.15 0.75 8.15 -1.35 5.5 -2.65 3.8 -2.65 2.0 -2.65 -3.75 3.05 -6.7 5.2 -7.8 7.5 -6.5" fill="#000000" fill-rule="evenodd" stroke="none"/>
      <path d="M9.4 -15.3 L13.15 -12.55 14.6 -9.75 14.65 -7.85 Q14.65 -5.25 13.15 -3.3 11.05 -0.65 6.95 -0.65 2.65 -0.65 0.55 -3.3 -0.75 -5.0 -0.75 -6.8 -0.75 -12.55 4.95 -15.5 7.1 -16.6 9.4 -15.3 M5.65 -9.25 L5.55 -9.0 Q5.4 -8.8 5.4 -8.15 L5.3 -7.15 6.05 -7.0 8.3 -7.05 Q8.5 -7.7 8.5 -9.4 L5.65 -9.25 M1.0 -6.8 Q1.0 -5.85 2.1 -4.35 3.4 -2.6 4.75 -2.6 9.85 -2.6 11.85 -4.85 12.9 -6.0 12.9 -7.55 12.9 -9.75 11.05 -11.7 8.65 -14.25 4.75 -13.3 3.05 -12.5 1.95 -10.5 1.0 -8.6 1.0 -6.8 M4.95 -11.2 L7.4 -11.25 Q9.8 -11.25 10.25 -10.1 10.5 -9.45 10.25 -8.35 L10.25 -6.4 Q9.75 -5.05 7.15 -5.05 4.2 -5.05 3.65 -6.4 L3.65 -7.9 Q3.65 -9.55 4.1 -10.3 L4.5 -10.8 4.95 -11.2" fill="#000000" fill-rule="evenodd" stroke="none"/>
      <path d="M4.95 -11.2 L4.5 -10.8 4.1 -10.3 Q3.65 -9.55 3.65 -7.9 L3.65 -6.4 Q4.2 -5.05 7.15 -5.05 9.75 -5.05 10.25 -6.4 L10.25 -8.35 Q10.5 -9.45 10.25 -10.1 9.8 -11.25 7.4 -11.25 L4.95 -11.2 M1.0 -6.8 Q1.0 -8.6 1.95 -10.5 3.05 -12.5 4.75 -13.3 8.65 -14.25 11.05 -11.7 12.9 -9.75 12.9 -7.55 12.9 -6.0 11.85 -4.85 9.85 -2.6 4.75 -2.6 3.4 -2.6 2.1 -4.35 1.0 -5.85 1.0 -6.8 M5.65 -9.25 L8.5 -9.4 Q8.5 -7.7 8.3 -7.05 L6.05 -7.0 5.3 -7.15 5.4 -8.15 Q5.4 -8.8 5.55 -9.0 L5.65 -9.25" fill="#8e6c24" fill-rule="evenodd" stroke="none"/>
      <path d="M11.45 -25.25 L15.2 -22.5 16.65 -19.7 16.7 -17.8 Q16.7 -15.2 15.2 -13.25 13.1 -10.6 9.0 -10.6 4.7 -10.6 2.6 -13.25 1.3 -14.95 1.3 -16.75 1.3 -22.5 7.0 -25.45 9.15 -26.55 11.45 -25.25 M10.55 -19.35 L7.7 -19.2 7.6 -18.95 Q7.45 -18.75 7.45 -18.1 L7.35 -17.1 8.1 -16.95 10.35 -17.0 10.55 -19.35 M14.95 -17.5 Q14.95 -19.7 13.1 -21.65 10.7 -24.2 6.8 -23.25 5.1 -22.45 4.0 -20.45 3.05 -18.55 3.05 -16.75 3.05 -15.8 4.15 -14.3 5.45 -12.55 6.8 -12.55 11.9 -12.55 13.9 -14.8 14.95 -15.95 14.95 -17.5 M12.3 -18.3 L12.3 -16.35 Q11.8 -15.0 9.2 -15.0 6.25 -15.0 5.7 -16.35 L5.7 -17.85 Q5.7 -19.5 6.15 -20.25 L6.55 -20.75 7.0 -21.15 9.45 -21.2 Q11.85 -21.2 12.3 -20.05 12.55 -19.4 12.3 -18.3" fill="#000000" fill-rule="evenodd" stroke="none"/>
      <path d="M12.3 -18.3 Q12.55 -19.4 12.3 -20.05 11.85 -21.2 9.45 -21.2 L7.0 -21.15 6.55 -20.75 6.15 -20.25 Q5.7 -19.5 5.7 -17.85 L5.7 -16.35 Q6.25 -15.0 9.2 -15.0 11.8 -15.0 12.3 -16.35 L12.3 -18.3 M14.95 -17.5 Q14.95 -15.95 13.9 -14.8 11.9 -12.55 6.8 -12.55 5.45 -12.55 4.15 -14.3 3.05 -15.8 3.05 -16.75 3.05 -18.55 4.0 -20.45 5.1 -22.45 6.8 -23.25 10.7 -24.2 13.1 -21.65 14.95 -19.7 14.95 -17.5 M10.55 -19.35 L10.35 -17.0 8.1 -16.95 7.35 -17.1 7.45 -18.1 Q7.45 -18.75 7.6 -18.95 L7.7 -19.2 10.55 -19.35" fill="#8e6c24" fill-rule="evenodd" stroke="none"/>
    </g>
    <g id="shape3" transform="matrix(1.0, 0.0, 0.0, 1.0, 34.55, 64.1)">
      <path d="M25.05 -12.05 L25.15 -12.1 25.9 -12.35 28.0 -12.75 29.6 -12.65 Q23.85 -25.35 7.85 -25.35 L3.8 -25.15 -1.55 -24.3 Q-8.45 -22.6 -12.65 -18.05 L-13.4 -17.2 -13.8 -16.65 -13.85 -16.6 Q-14.95 -15.2 -15.85 -13.45 L-15.9 -13.4 Q-17.8 -9.75 -18.85 -4.8 L-19.6 -0.2 -19.45 0.4 -19.45 0.45 -19.4 0.85 -19.35 1.25 -19.3 4.65 -19.3 4.7 -19.3 4.8 -19.3 4.85 -19.3 4.95 -19.3 5.1 -19.3 5.15 -19.3 5.35 -19.4 7.0 -19.75 12.15 -19.8 12.85 -19.95 14.9 -19.95 15.25 -20.0 15.45 -19.95 15.55 -17.0 15.45 -16.25 15.5 -12.15 15.75 -12.1 15.75 -12.15 15.35 Q-12.15 14.75 -11.6 13.95 -11.1 13.15 -11.1 12.5 -11.1 10.05 -9.35 4.2 L-7.9 -0.15 -8.15 -0.6 -7.7 -2.95 Q-7.25 -4.65 -7.25 -5.3 L-6.75 -6.85 -6.15 -8.1 -6.3 -9.0 -6.45 -9.6 -6.45 -9.55 -6.5 -10.15 -6.5 -10.35 -6.5 -10.4 -6.55 -10.75 -6.3 -11.0 -6.15 -11.15 -5.45 -11.4 -1.95 -11.6 2.75 -11.0 25.05 -12.05 M-4.65 -3.3 L1.15 -3.9 3.45 -3.5 5.15 -3.25 15.6 -3.75 19.65 -4.4 25.9 -5.3 27.6 -5.5 31.8 -5.75 30.5 -10.45 28.35 -10.25 26.0 -10.35 26.25 -9.7 21.4 -9.55 Q16.2 -9.45 10.85 -9.65 L7.85 -9.2 4.8 -8.75 0.15 -9.15 -3.8 -9.5 -4.0 -8.3 -4.1 -8.05 -4.05 -7.75 -4.95 -3.45 -4.95 -3.35 -5.0 -3.2 -4.65 -3.3 M26.0 -2.75 L20.9 -2.1 19.25 -2.15 12.75 -1.75 -5.1 -1.05 -5.5 -1.05 -5.9 1.1 -6.1 1.25 -6.9 3.7 Q-8.25 7.45 -8.25 8.35 -8.25 9.95 -9.1 12.5 L-10.2 16.45 -10.0 17.05 -11.75 17.7 -12.95 17.85 -14.8 18.05 -15.1 18.1 -16.25 18.1 -18.55 18.0 -19.45 17.9 -22.5 17.4 -22.5 17.3 -22.55 17.3 -26.25 18.75 Q-32.05 21.1 -32.05 22.15 L-32.05 22.25 -32.0 22.8 -31.95 22.9 -31.9 22.95 -31.8 23.15 -21.85 23.15 -17.05 23.15 -16.85 23.15 -14.0 23.15 Q-8.0 23.1 -6.8 14.8 L-6.05 8.2 Q-5.65 5.35 -4.75 4.0 L-4.8 3.3 -4.9 2.8 -3.55 2.55 -2.25 2.5 -2.2 2.5 -1.85 2.45 2.1 2.4 19.5 2.65 28.1 2.85 29.6 2.85 30.0 2.85 30.95 2.9 31.0 2.85 31.35 2.75 32.05 2.6 32.05 3.05 33.1 3.05 35.3 3.0 35.4 3.0 37.3 3.0 37.4 2.95 37.5 2.1 Q37.5 1.3 36.2 0.35 L34.65 -1.45 32.3 -2.85 32.25 -3.05 32.2 -3.7 32.15 -3.7 29.15 -3.25 28.4 -3.1 28.25 -3.1 26.0 -2.75 M31.7 -11.6 Q32.8 -8.45 33.6 -3.95 L35.25 -3.45 37.25 -1.6 38.8 0.45 Q39.5 1.75 39.5 2.4 39.5 3.8 38.95 4.15 37.3 5.3 30.7 5.5 L31.15 8.35 31.2 13.75 31.5 16.6 Q31.65 19.0 31.2 20.7 29.8 25.9 22.2 25.9 L19.15 25.7 Q17.15 27.9 10.45 27.9 1.05 27.9 -0.3 25.65 L-0.6 24.9 -0.8 24.9 Q-3.15 24.9 -4.9 23.7 -4.9 24.05 -5.35 24.3 -7.45 25.4 -23.3 25.4 -32.0 25.4 -34.0 23.8 -34.65 23.3 -34.55 22.65 L-34.3 22.05 Q-34.3 20.75 -30.0 18.15 -25.45 15.4 -22.55 15.4 L-22.1 15.4 -22.2 15.25 -22.25 15.1 -22.3 13.9 Q-22.55 8.05 -22.4 5.05 -22.25 2.05 -21.6 0.35 L-21.8 -0.85 Q-21.8 -3.7 -20.2 -8.2 -18.1 -14.05 -14.45 -18.45 -3.85 -31.1 15.25 -26.85 27.25 -22.45 31.2 -12.85 L31.5 -12.1 31.65 -11.75 31.7 -11.6 M28.7 5.3 L28.8 4.9 28.7 4.9 28.7 5.3 M20.7 23.7 Q28.2 23.7 29.2 14.7 L29.35 12.4 Q22.15 12.45 17.05 14.1 L15.65 14.7 19.5 15.15 19.7 21.15 20.0 22.65 20.05 23.25 20.4 23.35 20.7 23.7 M17.8 9.75 L18.7 9.9 Q19.95 9.9 19.75 9.65 L20.05 9.2 20.2 8.15 20.1 7.05 20.0 6.65 18.05 6.55 17.65 6.6 17.2 6.55 17.2 6.65 17.2 9.65 17.25 9.9 17.8 9.75 M9.85 4.7 L1.1 4.5 0.95 4.95 0.9 5.0 1.2 9.05 1.2 14.25 Q1.2 19.0 1.35 20.35 1.85 24.1 3.75 25.65 L17.7 25.65 17.7 17.4 17.5 16.95 Q11.7 18.55 10.15 14.05 9.7 12.7 9.7 8.0 L9.75 5.4 9.85 4.7" fill="#000000" fill-rule="evenodd" stroke="none"/>
      <path d="M12.75 -1.75 Q14.5 -1.6 16.6 -1.75 L19.15 -1.9 20.8 -2.05 25.4 -2.45 25.45 -2.45 25.65 -2.45 25.9 -2.5 26.0 -2.75 28.25 -3.1 29.65 -1.6 33.1 3.05 32.05 3.05 32.05 2.6 31.35 2.75 31.0 2.85 30.95 2.9 30.0 2.85 29.85 2.7 29.6 2.85 28.1 2.85 19.5 2.65 2.1 2.4 -1.85 2.45 -2.2 2.5 -2.25 2.5 -3.55 2.25 -3.55 2.55 -4.9 2.8 -4.8 3.3 -4.75 4.0 Q-5.65 5.35 -6.05 8.2 L-6.8 14.8 Q-8.0 23.1 -14.0 23.15 L-16.85 23.15 -16.85 22.8 -17.05 23.15 -21.85 23.15 -21.85 23.05 Q-21.85 21.75 -19.05 18.55 L-18.55 18.0 -16.25 18.1 -15.1 18.1 -14.8 18.05 -12.95 17.85 -11.75 17.7 -10.0 17.05 -10.2 16.45 -9.1 12.5 Q-8.25 9.95 -8.25 8.35 -8.25 7.45 -6.9 3.7 L-6.1 1.25 -5.9 1.1 -5.5 -1.05 -5.1 -1.05 12.75 -1.75" fill="#8e6c24" fill-rule="evenodd" stroke="none"/>
      <path d="M20.7 23.7 L20.4 23.35 20.05 23.25 20.0 22.65 19.7 21.15 19.5 15.15 15.65 14.7 17.05 14.1 Q22.15 12.45 29.35 12.4 L29.2 14.7 Q28.2 23.7 20.7 23.7" fill="#aa8a71" fill-rule="evenodd" stroke="none"/>
      <path d="M17.65 6.6 L18.05 6.55 20.0 6.65 20.1 7.05 20.2 8.15 20.05 9.2 19.75 9.65 Q19.95 9.9 18.7 9.9 L17.8 9.75 17.2 9.65 17.2 6.65 17.65 6.6" fill="#ffffff" fill-rule="evenodd" stroke="none"/>
      <path d="M3.8 -25.15 L0.7 -24.7 -1.55 -24.3 3.8 -25.15 M-13.85 -16.6 L-14.95 -14.45 -15.85 -13.45 Q-14.95 -15.2 -13.85 -16.6 M-18.85 -4.8 L-18.05 -5.75 -19.4 -0.35 -19.45 0.4 -19.6 -0.2 -18.85 -4.8" fill="#5b6171" fill-rule="evenodd" stroke="none"/>
      <path d="M-16.25 15.5 L-16.25 14.7 -16.3 8.55 -16.25 2.45 Q-15.7 -7.8 -9.9 -14.5 -3.45 -21.95 7.35 -21.95 19.85 -21.95 25.15 -12.1 L25.05 -12.05 2.75 -11.0 -1.95 -11.6 -5.45 -11.4 -6.15 -11.15 -6.3 -11.0 -6.55 -10.75 -6.5 -10.4 -6.5 -10.35 -6.5 -10.15 -6.45 -9.55 -6.45 -9.6 -6.3 -9.0 -6.15 -8.1 -6.75 -6.85 -7.25 -5.3 Q-7.25 -4.65 -7.7 -2.95 L-8.15 -0.6 -7.9 -0.15 -9.35 4.2 Q-11.1 10.05 -11.1 12.5 -11.1 13.15 -11.6 13.95 -12.15 14.75 -12.15 15.35 L-12.15 15.75 -16.25 15.5 M27.6 -5.5 L25.9 -5.3 19.65 -4.4 15.6 -3.75 5.15 -3.25 3.45 -3.5 1.15 -3.9 -4.65 -3.3 -4.95 -3.35 -4.95 -3.45 -4.05 -7.75 -4.1 -8.05 -4.0 -8.3 -3.8 -9.5 0.15 -9.15 4.8 -8.75 7.85 -9.2 10.85 -9.65 Q16.2 -9.45 21.4 -9.55 L26.25 -9.7 26.55 -8.95 27.6 -5.5 M9.85 4.7 L9.75 5.4 9.7 8.0 Q9.7 12.7 10.15 14.05 11.7 18.55 17.5 16.95 L17.7 17.4 17.7 25.65 3.75 25.65 Q1.85 24.1 1.35 20.35 1.2 19.0 1.2 14.25 L1.2 9.05 0.9 5.0 0.95 4.95 1.1 4.5 9.85 4.7" fill="#333333" fill-rule="evenodd" stroke="none"/>
      <path d="M3.8 -25.15 L7.85 -25.35 Q23.85 -25.35 29.6 -12.65 L28.0 -12.75 25.9 -12.35 25.15 -12.1 25.05 -12.05 25.15 -12.1 Q19.85 -21.95 7.35 -21.95 -3.45 -21.95 -9.9 -14.5 -15.7 -7.8 -16.25 2.45 L-16.3 8.55 -16.25 14.7 -16.25 15.5 -17.0 15.45 -19.95 15.55 -20.0 15.45 -19.95 15.25 -19.95 14.9 -19.8 12.85 -19.75 12.15 -19.4 7.0 -19.3 5.35 -19.3 5.15 -19.3 5.1 -19.3 4.95 -19.3 4.85 -19.3 4.8 -19.3 4.7 -19.3 4.65 -19.35 1.25 -19.4 0.85 -19.45 0.45 -19.45 0.4 -19.4 -0.35 -18.05 -5.75 -18.85 -4.8 Q-17.8 -9.75 -15.9 -13.4 L-15.85 -13.45 -14.95 -14.45 -13.85 -16.6 -13.8 -16.65 -13.4 -17.2 -12.65 -18.05 Q-8.45 -22.6 -1.55 -24.3 L0.7 -24.7 3.8 -25.15 M-12.15 15.35 L-12.1 15.75 -12.15 15.75 -12.15 15.35 M27.6 -5.5 L26.55 -8.95 26.25 -9.7 26.0 -10.35 28.35 -10.25 30.5 -10.45 31.8 -5.75 27.6 -5.5 M-4.95 -3.35 L-4.65 -3.3 -5.0 -3.2 -4.95 -3.35 M12.75 -1.75 L19.25 -2.15 20.9 -2.1 26.0 -2.75 25.9 -2.5 25.65 -2.45 25.45 -2.45 25.4 -2.45 20.8 -2.05 19.15 -1.9 16.6 -1.75 Q14.5 -1.6 12.75 -1.75 M-2.25 2.5 L-3.55 2.55 -3.55 2.25 -2.25 2.5 M29.0 -2.75 L29.35 -2.5 29.05 -2.7 29.0 -2.7 29.0 -2.75" fill="#666666" fill-rule="evenodd" stroke="none"/>
      <path d="M28.4 -3.1 L29.15 -3.25 29.0 -2.75 28.4 -3.1 M32.15 -3.7 L32.2 -3.7 32.25 -3.05 32.15 -3.7 M35.4 3.0 L35.3 3.0 35.05 2.75 35.4 3.0 M-31.9 22.95 L-31.95 22.9 -31.9 22.85 -31.9 22.95" fill="#999999" fill-rule="evenodd" stroke="none"/>
      <path d="M-22.55 17.3 L-22.5 17.3 -22.5 17.4 -22.55 17.3" fill="#8b6b28" fill-rule="evenodd" stroke="none"/>
      <path d="M28.25 -3.1 L28.4 -3.1 29.0 -2.75 29.15 -3.25 32.15 -3.7 32.25 -3.05 32.3 -2.85 34.65 -1.45 36.2 0.35 Q37.5 1.3 37.5 2.1 L37.4 2.95 37.3 3.0 35.4 3.0 35.05 2.75 35.3 3.0 33.1 3.05 29.65 -1.6 28.25 -3.1 M30.0 2.85 L29.6 2.85 29.85 2.7 30.0 2.85 M-16.85 23.15 L-17.05 23.15 -16.85 22.8 -16.85 23.15 M-21.85 23.15 L-31.8 23.15 -31.9 22.95 -31.9 22.85 -31.95 22.9 -32.0 22.8 -32.05 22.25 -32.05 22.15 Q-32.05 21.1 -26.25 18.75 L-22.55 17.3 -22.5 17.4 -19.45 17.9 -18.55 18.0 -19.05 18.55 Q-21.85 21.75 -21.85 23.05 L-21.85 23.15 M29.0 -2.75 L29.0 -2.7 29.05 -2.7 29.35 -2.5 29.0 -2.75" fill="#cc9d3c" fill-rule="evenodd" stroke="none"/>
      <path d="M10.9 -60.35 Q0.8 -60.35 -4.9 -52.6 -8.1 -48.25 -11.75 -37.2 -13.45 -32.2 -13.35 -24.85 L-13.25 -13.35 -11.6 -15.0 -8.0 -17.95 -8.2 -18.9 -8.25 -21.35 Q-8.25 -27.9 -4.3 -35.05 0.4 -43.65 7.25 -43.95 16.55 -48.55 21.05 -35.3 22.5 -31.1 23.25 -25.55 L23.45 -24.15 24.5 -23.35 28.35 -19.45 28.8 -18.95 29.25 -18.7 28.55 -29.45 Q28.15 -35.95 26.75 -40.1 L25.25 -45.35 23.5 -50.95 23.0 -52.85 Q22.45 -54.65 21.4 -56.05 18.2 -60.35 10.9 -60.35 M3.65 -61.7 L-2.25 -61.1 -9.7 -59.35 Q-10.95 -59.0 -13.3 -57.3 L-16.0 -54.95 -19.1 -50.45 Q-21.1 -47.55 -21.85 -45.35 -24.95 -36.75 -25.25 -34.4 L-25.25 -25.45 Q-24.75 -16.85 -24.75 -12.35 L-14.7 -12.1 Q-15.35 -13.0 -15.35 -14.25 L-15.25 -17.1 -15.3 -20.0 -15.25 -22.5 Q-15.25 -30.45 -14.95 -32.55 -14.45 -35.85 -11.75 -44.1 -8.45 -54.05 0.3 -59.8 L3.65 -61.7 M8.05 -63.95 L8.25 -63.3 Q12.7 -64.25 16.75 -62.6 21.95 -60.25 25.1 -52.25 L28.3 -41.85 Q29.9 -37.5 30.4 -31.1 L31.25 -20.45 31.25 -15.2 31.15 -14.9 30.5 -14.6 29.75 -14.5 Q28.25 -14.5 26.3 -17.3 L23.25 -21.35 18.9 -23.8 Q15.8 -25.45 15.0 -26.85 L15.85 -27.4 15.35 -27.4 15.25 -27.95 Q15.0 -29.15 13.3 -32.55 11.9 -35.4 11.1 -36.15 L11.2 -35.25 11.25 -31.85 Q11.25 -26.65 11.05 -26.2 10.45 -25.1 6.25 -25.1 L3.65 -25.5 Q2.0 -25.95 1.75 -26.2 L1.75 -32.0 Q0.7 -30.4 0.0 -28.25 -1.55 -23.35 -0.95 -17.95 -0.8 -17.7 -1.3 -17.65 -1.6 -16.7 -3.05 -16.05 -4.1 -15.6 -6.25 -15.1 L-7.0 -15.3 -7.25 -16.15 -9.8 -13.45 Q-12.55 -10.7 -13.55 -10.2 L-13.6 -10.1 -13.75 -10.1 -25.75 -9.6 Q-27.05 -11.05 -27.2 -13.25 L-27.25 -17.35 -27.25 -25.0 -27.15 -34.5 Q-26.7 -37.6 -23.75 -46.2 -23.0 -48.3 -21.2 -51.2 L-18.0 -56.2 Q-17.45 -57.2 -15.45 -58.85 -13.25 -60.65 -11.75 -61.1 L-6.15 -62.9 7.8 -64.1 8.05 -63.95 M21.05 -25.8 L20.25 -31.85 Q19.9 -33.95 17.9 -37.65 15.6 -41.95 14.0 -41.95 5.2 -41.95 2.35 -40.2 -0.8 -38.25 -3.75 -30.45 -6.05 -24.35 -6.2 -18.55 L-5.55 -18.05 -5.2 -18.3 -3.25 -19.1 -3.25 -22.7 Q-2.3 -25.3 -0.85 -31.45 1.2 -36.6 7.05 -38.35 12.45 -39.95 15.75 -33.25 17.25 -30.25 17.85 -27.35 18.9 -27.1 20.25 -26.3 L21.05 -25.8 M9.55 -36.4 Q5.75 -36.15 3.3 -33.85 3.8 -32.85 3.8 -31.15 L3.75 -27.35 9.25 -27.35 Q9.4 -29.1 9.15 -32.95 9.1 -35.0 9.55 -36.4" fill="#000000" fill-rule="evenodd" stroke="none"/>
      <path d="M3.65 -61.7 L0.3 -59.8 Q-8.45 -54.05 -11.75 -44.1 -14.45 -35.85 -14.95 -32.55 -15.25 -30.45 -15.25 -22.5 L-15.3 -20.0 -15.25 -17.1 -15.35 -14.25 Q-15.35 -13.0 -14.7 -12.1 L-24.75 -12.35 Q-24.75 -16.85 -25.25 -25.45 L-25.25 -34.4 Q-24.95 -36.75 -21.85 -45.35 -21.1 -47.55 -19.1 -50.45 L-16.0 -54.95 -13.3 -57.3 Q-10.95 -59.0 -9.7 -59.35 L-2.25 -61.1 3.65 -61.7" fill="#942403" fill-rule="evenodd" stroke="none"/>
      <path d="M10.9 -60.35 Q18.2 -60.35 21.4 -56.05 22.45 -54.65 23.0 -52.85 L23.5 -50.95 25.25 -45.35 26.75 -40.1 Q28.15 -35.95 28.55 -29.45 L29.25 -18.7 28.8 -18.95 28.35 -19.45 24.5 -23.35 23.45 -24.15 23.25 -25.55 Q22.5 -31.1 21.05 -35.3 16.55 -48.55 7.25 -43.95 0.4 -43.65 -4.3 -35.05 -8.25 -27.9 -8.25 -21.35 L-8.2 -18.9 -8.0 -17.95 -11.6 -15.0 -13.25 -13.35 -13.35 -24.85 Q-13.45 -32.2 -11.75 -37.2 -8.1 -48.25 -4.9 -52.6 0.8 -60.35 10.9 -60.35" fill="#7b1102" fill-rule="evenodd" stroke="none"/>
      <path d="M21.05 -25.8 L20.25 -26.3 Q18.9 -27.1 17.85 -27.35 17.25 -30.25 15.75 -33.25 12.45 -39.95 7.05 -38.35 1.2 -36.6 -0.85 -31.45 -2.3 -25.3 -3.25 -22.7 L-3.25 -19.1 -5.2 -18.3 -5.55 -18.05 -6.2 -18.55 Q-6.05 -24.35 -3.75 -30.45 -0.8 -38.25 2.35 -40.2 5.2 -41.95 14.0 -41.95 15.6 -41.95 17.9 -37.65 19.9 -33.95 20.25 -31.85 L21.05 -25.8" fill="#cc9d3c" fill-rule="evenodd" stroke="none"/>
      <path d="M9.55 -36.4 Q9.1 -35.0 9.15 -32.95 9.4 -29.1 9.25 -27.35 L3.75 -27.35 3.8 -31.15 Q3.8 -32.85 3.3 -33.85 5.75 -36.15 9.55 -36.4" fill="#8e6c24" fill-rule="evenodd" stroke="none"/>
    </g>
    <g id="shape4" transform="matrix(1.0, 0.0, 0.0, 1.0, 19.65, 46.35)">
      <path d="M18.3 -45.05 Q19.2 -41.85 19.2 -36.7 18.95 -29.85 19.0 -26.65 L19.1 -17.1 19.5 -7.15 19.5 -4.5 Q20.55 -4.2 21.05 -2.9 L22.25 -1.7 Q23.0 -0.45 23.0 1.9 23.0 3.55 21.9 5.95 20.75 8.35 19.4 9.3 L19.5 9.3 19.5 44.75 19.8 44.75 20.35 45.5 19.5 46.0 19.5 46.05 19.2 46.35 18.5 47.0 18.25 46.5 17.0 46.9 14.7 47.5 -18.65 47.5 -18.9 47.4 -19.15 46.5 Q-19.15 46.1 -18.55 45.8 -19.1 44.35 -19.1 42.4 -18.9 39.35 -19.0 37.8 L-19.05 33.25 -19.0 10.25 Q-19.0 -1.55 -19.5 -25.9 L-19.5 -36.45 -19.65 -41.3 Q-19.65 -44.6 -18.5 -46.0 L-18.25 -45.25 -14.6 -45.95 Q-6.7 -46.6 18.45 -46.25 L19.0 -45.5 18.3 -45.05 M4.05 -32.05 L4.8 -32.05 17.0 -31.5 17.0 -36.45 16.85 -41.3 Q16.85 -43.3 17.3 -44.6 L15.75 -44.1 13.55 -43.5 3.6 -43.5 -11.5 -43.5 -17.85 -43.5 Q-17.3 -40.65 -17.3 -36.7 L-17.5 -26.65 -17.4 -17.1 -17.0 -7.15 -17.0 45.35 -14.55 45.05 -9.95 44.8 Q-5.25 44.65 2.05 44.65 L4.75 44.65 17.65 44.75 Q17.4 43.65 17.4 42.4 L17.5 37.8 17.45 35.5 4.35 35.5 -5.0 35.5 -5.0 36.3 -5.3 36.55 -6.0 37.0 Q-7.1 36.0 -7.1 34.25 -6.9 32.3 -7.0 31.5 L-7.0 26.25 -7.25 20.95 -7.5 15.75 -7.5 -5.65 -7.5 -18.35 Q-7.4 -20.15 -7.6 -24.75 -7.6 -27.95 -6.9 -29.95 L-6.9 -30.0 -7.1 -30.0 -7.3 -30.1 Q-7.5 -30.25 -7.5 -31.0 L-7.2 -31.7 -3.0 -32.25 0.4 -32.2 4.05 -32.05 M3.35 -29.9 L2.1 -29.95 0.95 -29.95 0.45 -30.0 -6.0 -30.0 Q-5.3 -28.2 -5.3 -25.3 L-5.5 -19.5 -5.4 -13.65 -5.0 -7.85 -5.0 33.9 -4.0 33.75 1.7 33.55 5.0 33.5 12.25 33.5 17.35 33.5 17.45 33.5 17.45 33.25 17.45 32.75 17.5 17.0 11.95 17.0 10.0 17.0 Q7.95 15.6 7.55 13.65 L7.5 10.3 7.5 -3.5 8.4 -8.75 Q9.15 -10.4 11.35 -10.75 L11.35 -10.7 12.3 -10.8 12.9 -10.8 13.2 -10.75 13.5 -10.75 13.75 -10.85 17.3 -11.0 17.0 -25.9 17.0 -29.15 17.0 -29.6 16.8 -29.6 14.25 -29.5 13.05 -29.55 3.35 -29.9 M12.45 -8.3 Q10.15 -7.75 10.05 -6.75 9.5 -4.1 9.5 -3.0 L9.5 3.9 Q9.5 11.75 10.05 13.05 L10.8 14.2 12.05 14.35 12.65 14.45 16.8 14.85 17.5 14.9 17.5 10.25 17.5 10.0 17.35 10.0 16.55 9.8 15.5 9.1 Q14.55 8.15 14.0 6.25 13.5 4.4 13.5 2.5 13.5 0.1 14.2 -1.25 L14.4 -1.55 14.45 -1.6 15.6 -3.05 16.55 -3.85 17.0 -4.15 17.0 -4.25 17.25 -4.3 17.4 -4.4 17.35 -6.25 17.3 -9.25 14.55 -8.7 14.45 -8.7 14.4 -8.7 12.45 -8.3 M17.3 -1.3 L17.0 -0.9 Q15.5 1.35 15.5 2.4 L15.6 3.45 Q15.8 4.85 16.55 6.25 L17.25 7.3 17.55 6.6 18.5 7.45 19.5 5.95 Q20.65 4.2 20.95 2.75 L21.0 1.85 Q21.0 0.85 19.95 -0.7 L19.5 -1.3 18.85 -0.95 17.95 -2.3 17.3 -1.3" fill="#000000" fill-rule="evenodd" stroke="none"/>
      <path d="M5.0 33.5 L1.7 33.55 -4.0 33.75 -5.0 33.9 -5.0 -7.85 -5.4 -13.65 -5.5 -19.5 -5.3 -25.3 Q-5.3 -28.2 -6.0 -30.0 L0.45 -30.0 0.95 -29.95 2.1 -29.95 3.35 -29.9 4.25 -1.9 Q5.0 21.45 5.0 31.3 L5.0 33.5" fill="#8e6c24" fill-rule="evenodd" stroke="none"/>
      <path d="M5.0 33.5 L5.0 31.3 Q5.0 21.45 4.25 -1.9 L3.35 -29.9 13.05 -29.55 13.05 -26.35 12.2 -29.55 11.05 -29.6 Q10.35 -29.1 10.1 -27.85 L10.0 -24.65 10.5 -16.5 Q10.9 -12.75 11.35 -10.75 9.15 -10.4 8.4 -8.75 L7.5 -3.5 7.5 10.3 7.55 13.65 Q7.95 15.6 10.0 17.0 L11.95 17.0 11.55 19.45 11.5 23.9 11.6 30.05 Q11.8 32.1 12.25 33.5 L5.0 33.5 M16.8 -29.6 L17.0 -29.6 17.0 -29.15 16.8 -29.6 M17.45 32.75 L17.45 33.25 17.45 33.5 17.35 33.5 17.45 32.75" fill="#cc9d3c" fill-rule="evenodd" stroke="none"/>
      <path d="M13.05 -29.55 L14.25 -29.5 16.8 -29.6 17.0 -29.15 17.0 -25.9 17.3 -11.0 13.75 -10.85 13.5 -10.75 13.2 -10.75 12.9 -10.8 12.3 -10.8 11.35 -10.7 11.35 -10.75 Q10.9 -12.75 10.5 -16.5 L10.0 -24.65 10.1 -27.85 Q10.35 -29.1 11.05 -29.6 L12.2 -29.55 13.05 -26.35 13.05 -29.55 M11.95 17.0 L17.5 17.0 17.45 32.75 17.35 33.5 12.25 33.5 Q11.8 32.1 11.6 30.05 L11.5 23.9 11.55 19.45 11.95 17.0" fill="#dab974" fill-rule="evenodd" stroke="none"/>
      <path d="M15.6 3.45 Q16.4 2.5 18.75 2.5 L20.15 2.6 20.95 2.75 Q20.65 4.2 19.5 5.95 L18.5 7.45 17.55 6.6 17.25 7.3 16.55 6.25 Q15.8 4.85 15.6 3.45" fill="#333333" fill-rule="evenodd" stroke="none"/>
      <path d="M12.65 14.45 L12.05 14.35 10.8 14.2 10.05 13.05 Q9.5 11.75 9.5 3.9 L9.5 -3.0 Q9.5 -4.1 10.05 -6.75 10.15 -7.75 12.45 -8.3 12.0 -3.1 12.0 6.3 12.0 10.85 12.15 14.35 L12.65 14.45 M14.45 -8.7 L14.55 -8.7 14.5 -8.6 14.45 -8.7 M17.35 -6.25 L17.4 -4.4 17.25 -4.3 17.0 -4.25 17.0 -4.15 16.55 -3.85 16.95 -4.5 17.35 -5.25 17.35 -6.25 M15.5 9.1 L16.55 9.8 15.8 9.4 15.5 9.3 15.5 9.1 M15.6 3.45 L15.5 2.4 Q15.5 1.35 17.0 -0.9 L17.3 -1.3 17.05 -0.9 17.0 -0.5 17.2 0.2 Q17.65 1.25 18.8 1.75 19.8 2.15 20.15 2.6 L18.75 2.5 Q16.4 2.5 15.6 3.45" fill="#666666" fill-rule="evenodd" stroke="none"/>
      <path d="M12.65 14.45 L12.15 14.35 Q12.0 10.85 12.0 6.3 12.0 -3.1 12.45 -8.3 L14.4 -8.7 14.45 -8.7 14.5 -8.6 14.55 -8.7 17.3 -9.25 17.35 -6.25 17.35 -5.25 16.95 -4.5 16.55 -3.85 15.6 -3.05 14.45 -1.6 14.4 -1.55 14.2 -1.25 Q13.5 0.1 13.5 2.5 13.5 4.4 14.0 6.25 14.55 8.15 15.5 9.1 L15.5 9.3 15.8 9.4 16.55 9.8 17.35 10.0 17.5 10.0 17.5 10.25 17.5 14.9 16.8 14.85 12.65 14.45 M20.15 2.6 Q19.8 2.15 18.8 1.75 17.65 1.25 17.2 0.2 L17.0 -0.5 17.05 -0.9 17.3 -1.3 17.95 -2.3 18.85 -0.95 19.5 -1.3 19.95 -0.7 Q21.0 0.85 21.0 1.85 L20.95 2.75 20.15 2.6" fill="#999999" fill-rule="evenodd" stroke="none"/>
      <path d="M3.6 -43.5 L13.55 -43.5 15.75 -44.1 17.3 -44.6 Q16.85 -43.3 16.85 -41.3 L17.0 -36.45 17.0 -31.5 4.8 -32.05 4.05 -32.05 Q4.5 -32.7 4.5 -33.5 L3.95 -40.65 3.6 -43.5 M4.35 35.5 L17.45 35.5 17.5 37.8 17.4 42.4 Q17.4 43.65 17.65 44.75 L4.75 44.65 4.85 44.1 5.0 41.15 Q5.0 36.9 4.35 35.5" fill="#942403" fill-rule="evenodd" stroke="none"/>
      <path d="M3.6 -43.5 L3.95 -40.65 4.5 -33.5 Q4.5 -32.7 4.05 -32.05 L0.4 -32.2 -3.0 -32.25 -7.2 -31.7 -7.5 -31.0 Q-7.5 -30.25 -7.3 -30.1 L-7.1 -30.0 -6.9 -29.95 Q-7.6 -27.95 -7.6 -24.75 -7.4 -20.15 -7.5 -18.35 L-7.5 -5.65 -7.5 15.75 -7.25 20.95 -7.0 26.25 -7.0 31.5 Q-6.9 32.3 -7.1 34.25 -7.1 36.0 -6.0 37.0 L-5.3 36.55 -5.0 36.3 -5.0 35.5 4.35 35.5 Q5.0 36.9 5.0 41.15 L4.85 44.1 4.75 44.65 2.05 44.65 Q-5.25 44.65 -9.95 44.8 L-10.0 37.55 -10.0 20.1 Q-11.0 -3.25 -11.0 -14.85 L-11.0 -32.5 Q-11.0 -37.4 -11.5 -41.1 L-11.5 -43.5 3.6 -43.5" fill="#731c02" fill-rule="evenodd" stroke="none"/>
      <path d="M-9.95 44.8 L-14.55 45.05 -17.0 45.35 -17.0 -7.15 -17.4 -17.1 -17.5 -26.65 -17.3 -36.7 Q-17.3 -40.65 -17.85 -43.5 L-11.5 -43.5 -11.5 -41.1 Q-11.0 -37.4 -11.0 -32.5 L-11.0 -14.85 Q-11.0 -3.25 -10.0 20.1 L-10.0 37.55 -9.95 44.8" fill="#5a1501" fill-rule="evenodd" stroke="none"/>
    </g>
    <g id="shape5" transform="matrix(1.0, 0.0, 0.0, 1.0, 28.0, 30.95)">
      <path d="M2.6 -30.35 L3.15 -29.85 6.45 -27.05 6.75 -26.6 7.0 -26.4 8.35 -24.5 10.3 -21.9 Q10.4 -21.35 10.85 -20.4 11.1 -18.95 11.95 -16.95 L12.65 -15.5 13.5 -12.25 Q13.5 -9.75 13.3 -9.25 12.4 -7.0 8.5 -7.0 L8.5 -6.75 Q8.5 -5.6 7.3 -1.8 L6.05 2.25 5.85 4.55 6.0 5.15 5.95 5.9 5.8 5.95 Q5.75 8.0 5.95 9.65 5.8 10.5 1.65 10.5 L-0.25 10.3 -2.75 10.4 -2.8 10.35 -6.15 9.95 Q-5.2 11.55 -4.0 14.95 -2.0 20.55 -2.0 21.5 -2.0 23.45 -3.85 24.75 -6.25 26.5 -11.25 26.5 -17.4 26.5 -19.25 22.45 -20.7 16.7 -22.6 13.3 -27.5 2.9 -27.5 0.35 L-27.25 -1.0 Q-28.0 -2.05 -28.0 -2.5 -28.0 -5.25 -22.85 -12.1 L-17.1 -19.2 Q-17.5 -20.1 -17.5 -21.25 -17.5 -24.05 -16.35 -25.05 -15.3 -26.0 -9.85 -28.1 L-1.95 -30.95 2.6 -30.35 M11.4 -12.9 L11.35 -12.95 11.35 -13.05 9.1 -12.7 5.65 -12.4 5.5 -12.4 4.1 -12.85 2.3 -13.75 2.2 -13.8 0.85 -14.55 Q-2.9 -16.65 -4.5 -17.9 L-9.8 -20.75 Q-12.05 -21.9 -12.6 -23.35 L-12.85 -24.3 -13.4 -23.95 Q-15.5 -22.7 -15.5 -21.35 L-15.3 -20.35 -15.25 -20.35 Q-15.05 -20.3 -15.0 -19.75 -14.25 -18.6 -12.25 -17.65 -7.9 -15.9 -5.75 -14.6 3.1 -9.25 8.4 -9.25 11.0 -9.25 11.5 -10.65 11.75 -11.4 11.5 -12.25 L11.4 -12.9 M8.05 -21.45 Q5.15 -26.3 0.7 -28.75 L-7.9 -26.25 -9.95 -25.55 -9.9 -25.4 Q-8.85 -23.2 -8.15 -22.85 L-2.75 -19.35 Q-0.15 -17.1 1.6 -16.25 4.4 -14.9 10.65 -15.1 L8.95 -19.25 8.05 -21.45 M4.65 -1.25 Q5.25 -4.1 6.3 -7.3 3.7 -7.9 -0.3 -9.7 L-1.0 -10.0 -1.0 -9.9 Q-1.0 -9.1 -1.2 -8.85 L-1.35 -8.7 Q-0.7 -6.35 -0.85 -3.05 L1.55 -3.0 Q3.55 -2.25 4.65 -1.25 M-22.15 -7.55 L-21.5 -6.85 -19.45 -5.4 -18.25 -4.45 -18.05 -4.95 -18.0 -5.0 -18.0 -5.05 -17.85 -5.3 -16.8 -7.4 Q-17.9 -7.6 -19.75 -9.1 L-21.2 -10.45 -22.7 -8.45 -22.9 -8.2 -22.55 -7.95 -22.15 -7.55 M-18.15 -2.65 L-19.0 -2.5 Q-20.45 -2.5 -22.6 -5.25 L-23.8 -6.9 Q-25.6 -4.1 -25.6 -2.75 -25.6 -1.05 -23.15 0.95 L-18.85 3.75 Q-17.0 4.85 -12.1 6.05 L-1.35 8.25 4.0 8.25 3.85 6.1 Q0.7 4.95 -0.1 4.75 -2.5 4.15 -3.2 3.25 L-3.5 2.3 -3.45 -5.0 -3.35 -6.2 -3.85 -5.2 -4.4 -4.05 Q-6.9 1.05 -8.0 2.0 L-8.05 2.0 Q-8.3 2.5 -9.0 2.5 -11.35 2.5 -15.0 0.0 -17.35 -1.6 -18.1 -2.7 L-18.25 -2.85 -18.15 -2.65 M-15.85 -17.5 Q-17.05 -15.6 -19.85 -12.1 L-18.05 -11.2 -15.8 -9.25 -15.45 -9.95 -12.1 -15.3 Q-14.55 -16.5 -15.4 -17.15 L-15.85 -17.5 M-10.4 -14.55 L-10.5 -14.6 -10.5 -14.4 Q-10.5 -14.0 -13.25 -9.4 L-14.15 -7.8 Q-12.45 -7.1 -10.2 -5.65 L-7.2 -3.45 -6.0 -5.75 Q-5.5 -6.55 -5.2 -8.05 -4.25 -9.6 -4.25 -10.5 L-4.25 -10.6 -3.3 -10.85 -3.15 -11.05 -4.35 -11.6 -4.5 -12.0 -5.2 -12.05 -8.0 -13.5 -10.4 -14.55 M-8.85 0.25 L-8.2 -1.45 Q-9.7 -1.75 -12.35 -3.85 L-15.0 -6.25 Q-16.0 -4.3 -16.0 -3.5 -16.0 -3.05 -12.75 -1.4 L-8.95 0.5 -8.85 0.25 M4.35 0.0 L3.5 0.1 Q2.7 0.1 1.3 -0.45 L-0.95 -1.35 -1.0 -1.2 -1.4 1.65 -1.5 2.05 -1.5 2.3 -0.5 2.5 3.9 3.45 4.3 0.4 4.4 0.0 4.35 0.0 M-11.25 24.25 Q-6.65 24.25 -4.85 22.8 L-4.0 21.25 Q-4.0 20.6 -6.35 15.05 L-8.7 9.5 Q-15.5 8.0 -21.0 4.5 -23.3 3.0 -25.0 1.4 L-24.0 4.55 -22.4 7.95 -21.0 11.3 Q-18.55 16.7 -17.05 21.85 -15.9 24.25 -11.25 24.25" fill="#000000" fill-rule="evenodd" stroke="none"/>
      <path d="M11.35 -12.95 L11.1 -12.9 Q8.35 -11.85 5.65 -12.4 L9.1 -12.7 11.35 -13.05 11.35 -12.95 M8.05 -21.45 L8.95 -19.25 10.65 -15.1 Q4.4 -14.9 1.6 -16.25 -0.15 -17.1 -2.75 -19.35 L-8.15 -22.85 Q-8.85 -23.2 -9.9 -25.4 L-9.95 -25.55 -7.9 -26.25 0.7 -28.75 Q5.15 -26.3 8.05 -21.45 M-12.6 -23.35 L-13.4 -23.95 -12.85 -24.3 -12.6 -23.35" fill="#333333" fill-rule="evenodd" stroke="none"/>
      <path d="M-11.25 24.25 Q-15.9 24.25 -17.05 21.85 -18.55 16.7 -21.0 11.3 L-22.4 7.95 -24.0 4.55 -25.0 1.4 Q-23.3 3.0 -21.0 4.5 -15.5 8.0 -8.7 9.5 L-6.35 15.05 Q-4.0 20.6 -4.0 21.25 L-4.85 22.8 Q-6.65 24.25 -11.25 24.25" fill="#aa8a71" fill-rule="evenodd" stroke="none"/>
      <path d="M-3.45 -5.0 L-3.5 2.3 -3.2 3.25 Q-2.5 4.15 -0.1 4.75 0.7 4.95 3.85 6.1 L4.0 8.25 -1.35 8.25 -12.1 6.05 Q-17.0 4.85 -18.85 3.75 L-23.15 0.95 Q-25.6 -1.05 -25.6 -2.75 -25.6 -4.1 -23.8 -6.9 L-22.6 -5.25 Q-20.45 -2.5 -19.0 -2.5 L-18.15 -2.65 -18.1 -2.7 Q-17.35 -1.6 -15.0 0.0 -11.35 2.5 -9.0 2.5 -8.3 2.5 -8.05 2.0 L-8.0 2.0 Q-6.9 1.05 -4.4 -4.05 L-3.85 -5.2 -3.45 -5.0" fill="#780000" fill-rule="evenodd" stroke="none"/>
      <path d="M4.65 -1.25 Q3.55 -2.25 1.55 -3.0 L-0.85 -3.05 Q-0.7 -6.35 -1.35 -8.7 L-1.2 -8.85 Q-1.0 -9.1 -1.0 -9.9 L-1.0 -10.0 -0.3 -9.7 Q3.7 -7.9 6.3 -7.3 5.25 -4.1 4.65 -1.25 M-22.7 -8.45 L-22.15 -7.55 -22.55 -7.95 -22.9 -8.2 -22.7 -8.45 M-15.85 -17.5 L-15.4 -17.15 Q-14.55 -16.5 -12.1 -15.3 L-15.45 -9.95 -15.8 -9.25 -18.05 -11.2 -19.85 -12.1 Q-17.05 -15.6 -15.85 -17.5 M-10.5 -14.4 L-10.4 -14.55 -8.0 -13.5 -5.2 -12.05 -4.5 -12.0 -4.35 -11.6 -3.15 -11.05 -3.3 -10.85 -4.25 -10.6 -4.25 -10.5 Q-4.25 -9.6 -5.2 -8.05 -5.5 -6.55 -6.0 -5.75 L-7.2 -3.45 -10.2 -5.65 Q-12.45 -7.1 -14.15 -7.8 L-13.25 -9.4 Q-10.5 -14.0 -10.5 -14.4 M-1.4 1.65 L-1.2 1.85 -0.5 2.5 -1.5 2.3 -1.5 2.05 -1.4 1.65 M4.3 0.4 L4.35 0.0 4.4 0.0 4.3 0.4" fill="#e5e5e5" fill-rule="evenodd" stroke="none"/>
      <path d="M11.1 -12.9 L11.35 -12.95 11.4 -12.9 11.1 -12.9" fill="#666666" fill-rule="evenodd" stroke="none"/>
      <path d="M-8.95 0.5 L-8.85 0.25 -8.95 0.5" fill="#8b6b28" fill-rule="evenodd" stroke="none"/>
      <path d="M11.1 -12.9 L11.4 -12.9 11.5 -12.25 Q11.75 -11.4 11.5 -10.65 11.0 -9.25 8.4 -9.25 3.1 -9.25 -5.75 -14.6 -7.9 -15.9 -12.25 -17.65 -14.25 -18.6 -15.0 -19.75 -15.05 -20.3 -15.25 -20.35 L-15.3 -20.35 -15.5 -21.35 Q-15.5 -22.7 -13.4 -23.95 L-12.6 -23.35 Q-12.05 -21.9 -9.8 -20.75 L-4.5 -17.9 Q-2.9 -16.65 0.85 -14.55 L2.2 -13.8 2.3 -13.75 4.1 -12.85 5.5 -12.4 5.65 -12.4 Q8.35 -11.85 11.1 -12.9 M-22.7 -8.45 L-21.2 -10.45 -19.75 -9.1 Q-17.9 -7.6 -16.8 -7.4 L-17.85 -5.3 -18.0 -5.05 -18.0 -5.0 -18.05 -4.95 -18.25 -4.45 -19.45 -5.4 -21.5 -6.85 -22.15 -7.55 -22.7 -8.45 M-8.95 0.5 L-12.75 -1.4 Q-16.0 -3.05 -16.0 -3.5 -16.0 -4.3 -15.0 -6.25 L-12.35 -3.85 Q-9.7 -1.75 -8.2 -1.45 L-8.85 0.25 -8.95 0.5 M-1.4 1.65 L-1.0 -1.2 -0.95 -1.35 1.3 -0.45 Q2.7 0.1 3.5 0.1 L4.35 0.0 4.3 0.4 3.9 3.45 -0.5 2.5 -1.2 1.85 -1.4 1.65" fill="#cc9d3c" fill-rule="evenodd" stroke="none"/>
    </g>
    <g id="shape6" transform="matrix(1.0, 0.0, 0.0, 1.0, 67.25, 21.75)">
      <path d="M10.3 -14.4 L10.9 -16.55 11.1 -17.25 10.4 -16.65 Q7.65 -14.25 6.75 -12.95 L4.5 -9.4 Q3.3 -6.9 4.25 -5.45 L4.25 -0.6 4.55 -0.5 Q4.65 0.3 4.25 1.6 4.3 2.0 5.0 2.25 L7.4 2.5 9.25 2.35 10.05 1.55 Q9.2 0.45 8.85 -1.6 L8.75 -4.25 Q8.75 -7.5 9.95 -13.1 L10.3 -14.4 M12.6 -15.5 Q11.45 -13.0 11.25 -11.95 10.95 -10.65 10.85 -8.15 L10.95 -8.15 Q12.05 -7.8 13.25 -6.45 14.85 -4.95 17.8 -5.4 19.35 -5.65 20.75 -4.25 L20.75 -8.7 Q21.6 -9.65 22.05 -11.7 22.55 -14.05 23.1 -15.0 25.25 -18.8 35.25 -19.5 45.5 -24.1 55.2 -14.7 59.0 -11.05 61.45 -6.3 63.75 -1.85 63.75 1.3 63.75 4.85 61.75 8.05 60.5 10.05 58.75 11.2 L60.0 11.8 Q60.65 11.1 62.05 10.3 63.85 9.25 65.0 9.25 66.55 9.25 67.05 11.3 L67.25 13.35 Q67.25 16.45 65.05 17.35 L65.5 18.25 65.8 18.25 66.05 18.4 Q66.25 18.5 66.25 19.25 L66.1 19.95 Q65.9 19.95 65.8 20.25 L64.95 20.25 64.75 20.25 64.5 20.25 46.8 20.85 Q43.5 21.7 40.75 21.75 L-66.35 21.75 -66.55 21.6 -66.75 20.9 -67.2 20.15 -67.25 19.25 Q-67.25 16.5 -65.55 14.9 L-60.1 10.55 Q-59.35 9.9 -57.75 9.25 -56.7 8.8 -56.7 8.15 L-56.75 7.05 Q-56.3 6.15 -54.6 4.9 L-51.85 3.0 Q-48.35 0.55 -44.7 2.4 L-44.65 2.45 Q-42.55 1.1 -41.1 0.45 L-40.75 -0.45 -40.3 -2.7 Q-40.0 -3.85 -38.5 -4.95 -36.3 -6.6 -27.75 -6.7 L-26.45 -8.1 Q-24.05 -9.9 -20.05 -7.15 -19.55 -10.3 -17.95 -13.2 -15.2 -18.05 -10.25 -20.25 L-9.7 -20.05 -9.75 -18.6 -9.4 -15.5 Q-10.55 -13.0 -10.75 -11.95 -11.05 -10.6 -11.15 -8.1 L-10.4 -8.45 -8.85 -8.85 Q-8.3 -11.65 -6.95 -14.3 -4.2 -19.4 0.75 -21.75 L1.3 -21.55 1.25 -20.0 1.6 -16.7 Q0.45 -14.05 0.25 -12.95 L-0.15 -9.4 1.0 -9.45 2.45 -9.3 Q3.0 -11.3 4.05 -13.2 6.8 -18.05 11.75 -20.25 L12.3 -20.05 12.25 -18.6 12.6 -15.5 M2.0 -0.35 L1.9 -0.9 1.8 -2.95 1.75 -3.0 1.75 -3.75 1.65 -5.75 1.8 -5.65 2.0 -7.25 0.4 -7.55 -0.2 -7.75 -0.2 -7.6 -0.25 -5.0 Q-0.25 -3.35 0.45 -0.25 L0.75 1.05 0.75 1.1 0.75 1.55 0.6 2.4 Q0.3 3.15 -0.5 3.75 -1.75 4.75 -3.25 4.75 -7.0 4.75 -7.95 3.4 L-8.2 2.3 -8.25 1.8 Q-8.9 0.5 -9.1 -1.25 L-9.1 -1.3 -9.2 -3.4 -9.25 -3.45 -9.25 -4.25 -9.35 -6.4 -9.2 -6.25 -9.15 -6.75 -9.45 -6.55 -11.25 -5.75 -11.25 -4.45 -11.25 -4.4 -11.25 -4.25 -10.95 -1.95 -10.25 1.25 -10.25 1.3 -10.25 1.75 Q-10.25 2.3 -10.55 2.85 L-11.5 3.8 Q-12.75 4.75 -14.25 4.75 L-16.25 4.65 -16.55 4.6 -16.25 4.75 Q-18.05 5.8 -19.25 5.65 -20.75 5.5 -22.75 6.25 L-23.5 6.0 -23.75 5.1 -23.75 5.0 Q-23.75 3.4 -21.85 3.2 -20.6 3.1 -18.75 3.7 L-18.95 3.5 Q-19.2 3.15 -19.25 1.95 -19.9 0.75 -20.1 -0.9 L-20.15 -1.45 -20.2 -2.95 -20.25 -3.0 -20.25 -3.75 -20.35 -5.75 -20.2 -5.65 -20.1 -6.6 Q-21.05 -6.0 -22.5 -6.2 -24.5 -6.5 -25.0 -6.2 L-25.45 -4.5 Q-25.85 -3.55 -27.25 -3.25 L-28.0 -3.6 -28.1 -3.75 -30.4 -3.85 -35.2 -4.0 -36.35 -3.45 Q-37.55 -2.85 -37.75 -2.45 L-38.45 -0.5 -38.6 0.15 -38.25 0.75 -39.4 1.95 Q-40.3 3.0 -41.65 3.5 L-41.7 3.5 -42.6 4.95 Q-43.15 5.75 -44.0 5.75 -44.9 5.75 -45.55 3.85 -49.2 3.85 -50.25 4.55 L-52.45 5.95 Q-53.95 7.0 -54.35 7.75 L-54.5 9.7 Q-54.6 11.05 -55.75 11.25 -58.15 11.65 -61.5 14.3 -63.15 15.65 -64.3 17.55 L-65.65 20.05 -61.45 19.5 Q-54.0 18.9 -35.95 19.0 L8.65 19.5 31.3 18.9 57.35 18.35 57.4 18.35 62.4 18.3 62.3 17.75 Q59.9 17.55 58.75 15.3 L58.1 13.45 57.75 12.8 57.2 12.8 Q54.6 12.85 54.0 13.55 53.4 14.25 52.5 14.25 L50.75 14.0 Q50.05 14.0 50.3 13.25 L50.55 12.05 50.7 11.65 50.6 11.7 Q49.9 11.7 46.55 10.5 L45.8 7.75 45.75 7.75 45.5 6.8 44.3 6.8 Q40.45 6.95 38.3 9.4 35.7 12.25 33.25 12.25 30.95 12.25 30.7 11.75 30.8 11.0 30.25 10.5 L24.55 9.5 24.25 7.75 24.05 5.75 Q23.75 5.75 23.75 5.3 19.45 6.35 17.2 5.35 16.0 4.75 15.8 4.1 L14.75 3.4 Q13.85 2.5 12.9 2.5 12.0 2.5 10.65 3.9 9.3 5.25 5.5 5.25 3.7 5.25 3.25 4.55 L3.75 4.1 3.05 3.5 2.85 2.85 2.85 2.8 2.8 2.5 2.75 1.95 Q2.2 0.95 2.0 -0.35 M19.75 -1.5 L19.75 -2.7 Q12.9 -3.0 11.55 -4.65 L10.8 -6.0 10.75 -4.45 Q10.75 -2.85 11.5 0.15 13.75 -1.15 15.55 0.4 L17.05 1.85 17.95 0.95 20.0 -1.3 20.1 -1.4 19.75 -1.5 M26.3 -10.0 L28.1 -9.75 Q29.85 -9.25 30.8 -8.5 32.25 -7.5 32.6 -6.25 L32.75 -4.0 Q32.75 -1.85 32.0 -0.25 30.55 2.75 27.0 2.75 24.9 2.75 23.8 1.95 L23.1 1.15 23.0 0.95 22.75 -1.0 22.85 -1.55 23.85 -5.55 Q24.95 -9.5 25.25 -9.7 L25.3 -9.7 Q25.7 -9.95 26.3 -10.0 M22.9 3.5 L24.8 3.5 Q26.05 4.3 26.2 5.75 L26.3 7.0 26.25 7.55 26.9 7.55 26.75 7.0 Q26.75 5.0 29.0 4.65 31.25 4.3 31.25 6.4 31.25 7.15 30.75 7.75 L30.7 7.8 Q31.65 8.05 31.95 8.6 L32.35 9.55 Q32.65 10.0 33.55 10.0 35.15 10.0 37.3 7.4 37.95 6.6 38.75 6.05 35.65 5.65 34.05 4.5 32.75 3.55 32.75 2.4 32.75 -3.65 40.0 -3.95 42.85 -4.05 45.0 -2.9 47.25 -1.65 47.25 0.35 47.25 2.7 46.55 4.0 L45.75 5.1 Q47.25 5.55 47.9 6.65 48.5 7.6 48.25 8.3 51.15 8.15 52.1 9.55 L52.3 10.15 52.5 10.75 52.55 10.85 55.15 9.65 Q58.95 8.05 59.55 7.3 61.55 5.0 61.75 4.15 L61.75 1.75 Q61.75 -3.7 57.25 -8.5 56.5 -11.25 54.5 -13.35 50.65 -17.5 41.65 -17.5 30.3 -17.5 27.5 -15.95 24.25 -14.2 22.75 -6.25 L22.65 -3.25 22.5 -1.6 22.05 -0.25 22.05 -0.2 22.0 -0.15 20.3 1.9 20.2 2.05 19.0 3.3 19.3 3.3 22.9 3.5 M38.85 -0.95 Q38.25 -1.85 37.5 -1.2 L38.85 1.45 Q37.25 2.75 37.25 3.65 L37.3 4.15 37.75 4.2 39.65 2.6 41.0 3.95 41.5 3.45 40.4 1.95 40.5 1.85 Q42.75 -0.1 42.75 -0.55 L42.6 -0.95 42.25 -1.05 39.75 0.8 39.6 0.45 38.85 -0.95 M28.25 -3.9 L28.1 -4.25 27.35 -5.65 Q26.75 -6.55 26.0 -5.9 26.45 -4.65 27.35 -3.25 25.75 -1.95 25.75 -1.05 L25.8 -0.55 26.25 -0.5 28.15 -2.1 29.5 -0.75 30.0 -1.25 28.9 -2.75 29.0 -2.85 Q31.25 -4.8 31.25 -5.25 L31.1 -5.65 30.75 -5.75 28.25 -3.9 M61.05 14.85 Q61.2 15.55 62.0 15.55 64.8 15.55 65.2 13.95 65.45 12.85 64.75 11.55 63.4 11.8 62.45 12.75 L61.0 13.8 61.05 14.85 M1.75 10.25 Q3.25 11.45 3.25 13.05 L3.1 15.0 Q2.7 15.75 1.0 15.75 L-1.9 15.35 -7.95 14.75 -8.1 14.5 -8.25 13.5 Q-8.25 12.9 -6.85 10.6 -5.3 8.0 -4.25 7.75 L0.5 8.2 0.75 9.0 Q1.0 9.65 1.75 10.25 M8.8 11.0 L14.25 12.5 Q13.25 9.5 12.55 9.2 L9.3 9.5 8.8 11.0 M7.8 7.9 Q9.25 6.8 11.25 7.05 16.25 7.55 16.25 12.5 L16.0 14.25 Q15.65 14.75 14.0 14.75 10.8 14.75 8.25 13.25 6.25 12.05 6.25 11.3 6.25 9.05 7.8 7.9 M-34.2 4.65 L-33.15 4.85 Q-31.85 5.55 -30.0 8.75 -29.75 9.05 -29.75 9.8 L-28.9 10.1 Q-27.9 10.35 -27.7 10.5 -27.25 10.75 -27.25 12.1 -27.25 14.15 -28.95 15.75 -30.55 17.25 -32.5 17.25 L-35.95 16.9 -38.95 16.5 -49.75 15.75 -50.6 15.0 -50.75 13.75 -50.75 13.3 -50.5 11.85 -50.45 11.8 Q-50.1 10.95 -49.1 10.5 L-47.85 10.0 -44.05 9.5 -41.05 9.05 Q-38.5 8.35 -36.95 6.5 L-36.35 5.85 Q-35.25 4.75 -34.25 4.65 L-34.2 4.65 M-5.45 2.25 L-3.6 2.35 Q-1.1 2.35 -0.9 1.7 L-0.85 1.5 Q-1.8 0.35 -2.15 -2.0 L-2.25 -4.8 Q-2.25 -8.25 -1.05 -14.15 L-0.5 -16.5 0.1 -18.55 -0.6 -17.95 -4.25 -14.0 -6.5 -10.25 Q-7.7 -7.6 -6.75 -6.05 L-6.75 -0.9 -6.45 -0.8 Q-6.35 0.05 -6.75 1.4 -6.65 2.0 -5.45 2.25 M-11.15 -16.55 L-10.9 -17.25 -11.6 -16.65 Q-14.35 -14.25 -15.25 -12.95 L-17.5 -9.4 Q-18.7 -6.9 -17.75 -5.45 L-17.75 -0.6 -17.45 -0.5 Q-17.35 0.3 -17.75 1.6 L-17.75 1.65 -17.6 1.9 Q-17.35 2.2 -16.6 2.35 L-14.6 2.5 Q-12.1 2.5 -11.9 1.85 L-11.85 1.7 Q-12.8 0.6 -13.15 -1.6 L-13.25 -4.25 Q-13.25 -7.5 -12.05 -13.1 L-11.15 -16.55 M-5.25 12.6 L-1.45 13.0 1.25 13.5 Q-1.25 10.5 -1.75 10.25 L-4.65 10.35 Q-5.0 10.85 -5.25 12.5 L-5.45 12.55 -5.25 12.6 M-29.45 12.5 L-29.25 12.3 -29.35 12.3 Q-31.3 11.85 -32.7 8.95 L-33.0 8.45 -33.2 8.25 -34.55 8.0 -34.6 8.0 -35.75 8.8 Q-37.35 11.3 -39.25 11.65 -40.4 11.85 -42.6 11.15 L-42.75 11.1 Q-45.85 11.7 -48.3 13.05 L-48.75 13.8 -47.8 13.85 -46.9 13.9 -46.85 13.9 -37.25 14.55 -32.35 15.0 Q-31.1 15.0 -30.25 13.85 L-29.45 12.5" fill="#362e1f" fill-rule="evenodd" stroke="none"/>
      <path d="M0.4 -7.55 L2.0 -7.25 1.8 -5.65 1.65 -5.75 1.75 -3.75 1.75 -3.0 1.8 -2.95 1.9 -0.9 2.0 -0.35 1.0 -0.25 0.45 -0.25 Q-0.25 -3.35 -0.25 -5.0 L-0.2 -7.6 0.4 -7.55 M2.8 2.5 L2.85 2.8 2.85 2.85 3.05 3.5 3.75 4.1 3.25 4.55 Q3.7 5.25 5.5 5.25 9.3 5.25 10.65 3.9 12.0 2.5 12.9 2.5 13.85 2.5 14.75 3.4 L15.8 4.1 Q16.0 4.75 17.2 5.35 19.45 6.35 23.75 5.3 23.75 5.75 24.05 5.75 L24.25 7.75 24.55 9.5 30.25 10.5 Q30.8 11.0 30.7 11.75 30.95 12.25 33.25 12.25 35.7 12.25 38.3 9.4 40.45 6.95 44.3 6.8 L45.75 7.75 45.8 7.75 46.55 10.5 Q49.9 11.7 50.6 11.7 L50.55 12.05 50.3 13.25 Q50.05 14.0 50.75 14.0 L52.5 14.25 Q53.4 14.25 54.0 13.55 54.6 12.85 57.2 12.8 L58.1 13.45 58.75 15.3 Q59.9 17.55 62.3 17.75 L62.4 18.3 57.4 18.35 57.35 18.35 Q53.2 16.25 49.75 16.25 47.85 16.25 47.45 15.25 47.05 14.25 46.0 14.25 44.35 14.25 43.9 12.9 43.75 12.5 43.75 11.3 L43.5 10.75 Q42.1 10.65 41.35 11.75 40.5 12.95 40.0 13.05 L32.75 14.75 29.8 14.3 Q27.35 13.8 26.5 13.25 L25.3 13.0 23.75 12.5 Q22.75 11.95 22.75 9.8 20.3 9.8 19.6 9.1 L19.25 8.0 Q19.1 7.65 18.75 7.55 L16.25 7.25 Q15.8 7.2 15.35 6.7 14.9 6.25 14.25 6.25 L5.9 6.75 -2.5 7.25 -3.45 6.8 Q-3.8 6.3 -4.45 6.3 L-20.5 9.75 Q-27.75 9.75 -27.75 6.6 L-27.5 5.4 Q-27.3 5.15 -26.5 4.8 L-23.8 5.1 -23.75 5.1 -23.5 6.0 -22.75 6.25 Q-20.75 5.5 -19.25 5.65 -18.05 5.8 -16.25 4.75 L-16.25 4.65 -14.25 4.75 Q-12.75 4.75 -11.5 3.8 L-10.55 2.85 -8.5 2.3 -8.2 2.3 -7.95 3.4 Q-7.0 4.75 -3.25 4.75 -1.75 4.75 -0.5 3.75 0.3 3.15 0.6 2.4 L2.8 2.5 M-61.45 19.5 L-65.65 20.05 -64.3 17.55 Q-63.15 15.65 -61.5 14.3 -58.15 11.65 -55.75 11.25 -54.6 11.05 -54.5 9.7 L-54.35 7.75 Q-53.95 7.0 -52.45 5.95 L-50.25 4.55 Q-49.2 3.85 -45.55 3.85 -44.9 5.75 -44.0 5.75 -43.15 5.75 -42.6 4.95 L-41.7 3.5 -41.65 3.5 Q-40.3 3.0 -39.4 1.95 L-38.25 0.75 -38.6 0.15 -38.45 -0.5 -37.75 -2.45 Q-37.55 -2.85 -36.35 -3.45 L-35.2 -4.0 -30.4 -3.85 -28.1 -3.75 -28.0 -3.6 -27.25 -3.25 Q-25.85 -3.55 -25.45 -4.5 L-25.0 -6.2 Q-24.5 -6.5 -22.5 -6.2 -21.05 -6.0 -20.1 -6.6 L-20.2 -5.65 -20.35 -5.75 -20.25 -3.75 -20.25 -3.0 -20.2 -2.95 -20.15 -1.45 -20.15 -1.2 -21.0 -1.25 Q-23.8 -1.25 -24.4 -0.25 -25.05 0.75 -26.0 0.75 -26.6 0.75 -26.95 0.3 -27.3 -0.2 -27.95 -0.2 L-30.6 0.05 -33.95 0.5 Q-32.25 2.0 -32.25 2.75 -32.25 3.4 -34.2 4.65 L-34.25 4.65 Q-35.25 4.75 -36.35 5.85 -39.05 7.3 -43.5 9.25 -44.3 9.25 -45.3 8.55 L-46.35 7.8 Q-47.6 7.8 -50.75 9.05 L-49.1 10.5 Q-50.1 10.95 -50.45 11.8 L-50.5 11.85 -50.75 13.3 Q-51.75 13.85 -53.25 14.4 -58.95 16.5 -60.6 18.0 L-61.45 19.5 M-10.95 -1.95 L-11.25 -4.25 -11.25 -4.4 -11.25 -4.45 -11.25 -5.75 -9.45 -6.55 -9.35 -6.4 -9.25 -4.25 -9.25 -3.45 -9.2 -3.4 -9.1 -1.3 -10.25 -1.25 -10.8 -1.25 -10.95 -1.95" fill="#692e1f" fill-rule="evenodd" stroke="none"/>
      <path d="M2.0 -0.35 Q2.2 0.95 2.75 1.95 L2.8 2.5 0.6 2.4 0.75 1.55 0.75 1.1 0.75 1.05 0.45 -0.25 1.0 -0.25 2.0 -0.35 M44.3 6.8 L45.5 6.8 45.75 7.75 44.3 6.8 M57.2 12.8 L57.75 12.8 58.1 13.45 57.2 12.8 M57.35 18.35 L31.3 18.9 8.65 19.5 -35.95 19.0 Q-54.0 18.9 -61.45 19.5 L-60.6 18.0 Q-58.95 16.5 -53.25 14.4 -51.75 13.85 -50.75 13.3 L-50.75 13.75 -50.6 15.0 -49.75 15.75 -38.95 16.5 -35.95 16.9 -32.5 17.25 Q-30.55 17.25 -28.95 15.75 -27.25 14.15 -27.25 12.1 -27.25 10.75 -27.7 10.5 -27.9 10.35 -28.9 10.1 L-29.75 9.8 Q-29.75 9.05 -30.0 8.75 -31.85 5.55 -33.15 4.85 L-34.2 4.65 Q-32.25 3.4 -32.25 2.75 -32.25 2.0 -33.95 0.5 L-30.6 0.05 -27.95 -0.2 Q-27.3 -0.2 -26.95 0.3 -26.6 0.75 -26.0 0.75 -25.05 0.75 -24.4 -0.25 -23.8 -1.25 -21.0 -1.25 L-20.15 -1.2 -20.15 -1.45 -20.1 -0.9 Q-19.9 0.75 -19.25 1.95 -19.2 3.15 -18.95 3.5 L-18.75 3.7 Q-20.6 3.1 -21.85 3.2 -23.75 3.4 -23.75 5.0 L-23.75 5.1 -23.8 5.1 -26.5 4.8 Q-27.3 5.15 -27.5 5.4 L-27.75 6.6 Q-27.75 9.75 -20.5 9.75 L-4.45 6.3 Q-3.8 6.3 -3.45 6.8 L-2.5 7.25 5.9 6.75 14.25 6.25 Q14.9 6.25 15.35 6.7 15.8 7.2 16.25 7.25 L18.75 7.55 Q19.1 7.65 19.25 8.0 L19.6 9.1 Q20.3 9.8 22.75 9.8 22.75 11.95 23.75 12.5 L25.3 13.0 26.5 13.25 Q27.35 13.8 29.8 14.3 L32.75 14.75 40.0 13.05 Q40.5 12.95 41.35 11.75 42.1 10.65 43.5 10.75 L43.75 11.3 Q43.75 12.5 43.9 12.9 44.35 14.25 46.0 14.25 47.05 14.25 47.45 15.25 47.85 16.25 49.75 16.25 53.2 16.25 57.35 18.35 M-10.55 2.85 Q-10.25 2.3 -10.25 1.75 L-10.25 1.3 -10.25 1.25 -10.95 -1.95 -10.8 -1.25 -10.25 -1.25 -9.1 -1.3 -9.1 -1.25 Q-8.9 0.5 -8.25 1.8 L-8.2 2.3 -8.5 2.3 -10.55 2.85 M-0.2 -7.6 L-0.2 -7.75 0.4 -7.55 -0.2 -7.6 M20.0 -1.3 L17.95 0.95 17.05 1.85 15.55 0.4 Q13.75 -1.15 11.5 0.15 10.75 -2.85 10.75 -4.45 L10.8 -6.0 11.55 -4.65 Q12.9 -3.0 19.75 -2.7 L19.75 -1.5 20.0 -1.3 M1.75 10.25 Q1.0 9.65 0.75 9.0 L0.5 8.2 -4.25 7.75 Q-5.3 8.0 -6.85 10.6 -8.25 12.9 -8.25 13.5 L-8.1 14.5 -7.95 14.75 -1.9 15.35 1.0 15.75 Q2.7 15.75 3.1 15.0 L3.25 13.05 Q3.25 11.45 1.75 10.25 M7.8 7.9 Q6.25 9.05 6.25 11.3 6.25 12.05 8.25 13.25 10.8 14.75 14.0 14.75 15.65 14.75 16.0 14.25 L16.25 12.5 Q16.25 7.55 11.25 7.05 9.25 6.8 7.8 7.9 M-36.35 5.85 L-36.95 6.5 Q-38.5 8.35 -41.05 9.05 L-44.05 9.5 -47.85 10.0 -49.1 10.5 -50.75 9.05 Q-47.6 7.8 -46.35 7.8 L-45.3 8.55 Q-44.3 9.25 -43.5 9.25 -39.05 7.3 -36.35 5.85" fill="#562e1f" fill-rule="evenodd" stroke="none"/>
      <path d="M5.0 2.25 Q5.0 2.0 5.15 1.95 L5.25 1.25 4.7 -2.6 Q4.45 -4.05 5.75 -8.2 6.4 -10.4 9.9 -14.05 L10.3 -14.4 9.95 -13.1 Q8.75 -7.5 8.75 -4.25 L8.85 -1.6 Q9.2 0.45 10.05 1.55 L9.25 2.35 7.4 2.5 5.0 2.25 M23.8 1.95 Q24.9 2.75 27.0 2.75 30.55 2.75 32.0 -0.25 32.75 -1.85 32.75 -4.0 L32.6 -6.25 Q32.25 -7.5 30.8 -8.5 29.85 -9.25 28.1 -9.75 L26.3 -10.0 Q27.75 -12.15 31.05 -13.55 35.6 -15.5 41.85 -15.5 L46.5 -15.3 Q47.95 -15.1 48.5 -14.45 L50.05 -12.2 Q52.05 -9.3 53.75 -7.7 56.55 -4.95 57.65 -2.75 58.75 -0.65 58.75 1.85 58.75 5.05 55.25 7.75 L52.3 10.15 52.1 9.55 Q51.15 8.15 48.25 8.3 48.5 7.6 47.9 6.65 47.25 5.55 45.75 5.1 L46.55 4.0 Q47.25 2.7 47.25 0.35 47.25 -1.65 45.0 -2.9 42.85 -4.05 40.0 -3.95 32.75 -3.65 32.75 2.4 32.75 3.55 34.05 4.5 35.65 5.65 38.75 6.05 37.95 6.6 37.3 7.4 35.15 10.0 33.55 10.0 32.65 10.0 32.35 9.55 L31.95 8.6 Q31.65 8.05 30.7 7.8 L30.75 7.75 Q31.25 7.15 31.25 6.4 31.25 4.3 29.0 4.65 26.75 5.0 26.75 7.0 L26.3 7.0 26.2 5.75 Q26.05 4.3 24.8 3.5 L22.9 3.5 23.8 1.95 M20.2 2.05 L19.75 2.5 19.3 3.3 19.0 3.3 20.2 2.05 M61.05 14.85 L61.0 13.8 62.45 12.75 Q63.4 11.8 64.75 11.55 65.45 12.85 65.2 13.95 64.8 15.55 62.0 15.55 61.2 15.55 61.05 14.85 M8.8 11.0 L9.3 9.5 12.55 9.2 Q13.25 9.5 14.25 12.5 L8.8 11.0 M-0.5 -16.5 L-1.05 -14.15 Q-2.25 -8.25 -2.25 -4.8 L-2.15 -2.0 Q-1.8 0.35 -0.85 1.5 L-0.9 1.7 Q-1.1 2.35 -3.6 2.35 L-5.45 2.25 -5.3 -2.9 Q-5.2 -6.25 -4.5 -8.5 -3.2 -13.15 -0.5 -16.5 M-11.3 -16.6 L-11.15 -16.55 -12.05 -13.1 Q-13.25 -7.5 -13.25 -4.25 L-13.15 -1.6 Q-12.8 0.6 -11.85 1.7 L-11.9 1.85 Q-12.1 2.5 -14.6 2.5 L-16.6 2.35 Q-16.05 1.05 -15.85 -0.65 L-15.75 -6.5 Q-15.75 -12.0 -13.25 -14.6 L-11.55 -16.3 -11.3 -16.6 M-5.25 12.5 Q-5.0 10.85 -4.65 10.35 L-1.75 10.25 Q-1.25 10.5 1.25 13.5 L-1.45 13.0 -5.25 12.6 -5.25 12.5 M-29.35 12.3 L-29.45 12.5 -30.25 13.85 Q-31.1 15.0 -32.35 15.0 L-37.25 14.55 -46.85 13.9 -41.5 13.0 -36.75 12.35 -35.7 11.55 -32.85 8.7 -33.0 8.45 -32.7 8.95 Q-31.3 11.85 -29.35 12.3" fill="#93856a" fill-rule="evenodd" stroke="none"/>
      <path d="M10.9 -16.55 L10.3 -14.4 9.9 -14.05 Q6.4 -10.4 5.75 -8.2 4.45 -4.05 4.7 -2.6 L5.25 1.25 5.15 1.95 Q5.0 2.0 5.0 2.25 4.3 2.0 4.25 1.6 4.65 0.3 4.55 -0.5 L4.25 -0.6 4.25 -5.45 Q3.3 -6.9 4.5 -9.4 L6.75 -12.95 Q7.65 -14.25 10.4 -16.65 L10.9 -16.55 M23.8 1.95 L22.9 3.5 19.3 3.3 19.75 2.5 20.2 2.05 20.3 1.9 22.0 -0.15 22.05 -0.2 22.05 -0.25 22.5 -1.6 22.65 -3.25 22.75 -6.25 Q24.25 -14.2 27.5 -15.95 30.3 -17.5 41.65 -17.5 50.65 -17.5 54.5 -13.35 56.5 -11.25 57.25 -8.5 61.75 -3.7 61.75 1.75 L61.75 4.15 Q61.55 5.0 59.55 7.3 58.95 8.05 55.15 9.65 L52.55 10.85 52.5 10.75 52.3 10.15 55.25 7.75 Q58.75 5.05 58.75 1.85 58.75 -0.65 57.65 -2.75 56.55 -4.95 53.75 -7.7 52.05 -9.3 50.05 -12.2 L48.5 -14.45 Q47.95 -15.1 46.5 -15.3 L41.85 -15.5 Q35.6 -15.5 31.05 -13.55 27.75 -12.15 26.3 -10.0 25.7 -9.95 25.3 -9.7 L25.25 -9.7 Q24.95 -9.5 23.85 -5.55 L22.85 -1.55 22.75 -1.0 23.0 0.95 23.1 1.15 23.8 1.95 M-5.45 2.25 Q-6.65 2.0 -6.75 1.4 -6.35 0.05 -6.45 -0.8 L-6.75 -0.9 -6.75 -6.05 Q-7.7 -7.6 -6.5 -10.25 L-4.25 -14.0 -0.6 -17.95 0.1 -18.55 -0.5 -16.5 Q-3.2 -13.15 -4.5 -8.5 -5.2 -6.25 -5.3 -2.9 L-5.45 2.25 M-11.6 -16.65 L-11.3 -16.6 -11.55 -16.3 -13.25 -14.6 Q-15.75 -12.0 -15.75 -6.5 L-15.85 -0.65 Q-16.05 1.05 -16.6 2.35 -17.35 2.2 -17.6 1.9 L-17.75 1.65 -17.75 1.6 Q-17.35 0.3 -17.45 -0.5 L-17.75 -0.6 -17.75 -5.45 Q-18.7 -6.9 -17.5 -9.4 L-15.25 -12.95 Q-14.35 -14.25 -11.6 -16.65 M-46.85 13.9 L-46.9 13.9 -47.8 13.85 -48.75 13.8 -48.3 13.05 Q-45.85 11.7 -42.75 11.1 L-42.6 11.15 Q-40.4 11.85 -39.25 11.65 -37.35 11.3 -35.75 8.8 L-34.6 8.0 -34.55 8.0 -33.2 8.25 -33.0 8.45 -32.85 8.7 -35.7 11.55 -36.75 12.35 -41.5 13.0 -46.85 13.9" fill="#a49983" fill-rule="evenodd" stroke="none"/>
      <path d="M28.25 -3.9 L30.75 -5.75 31.1 -5.65 31.25 -5.25 Q31.25 -4.8 29.0 -2.85 L28.9 -2.75 30.0 -1.25 29.5 -0.75 28.15 -2.1 26.25 -0.5 25.8 -0.55 25.75 -1.05 Q25.75 -1.95 27.35 -3.25 26.45 -4.65 26.0 -5.9 26.75 -6.55 27.35 -5.65 L28.1 -4.25 28.25 -3.9 M38.85 -0.95 L39.6 0.45 39.75 0.8 42.25 -1.05 42.6 -0.95 42.75 -0.55 Q42.75 -0.1 40.5 1.85 L40.4 1.95 41.5 3.45 41.0 3.95 39.65 2.6 37.75 4.2 37.3 4.15 37.25 3.65 Q37.25 2.75 38.85 1.45 L37.5 -1.2 Q38.25 -1.85 38.85 -0.95" fill="#b5ad9e" fill-rule="evenodd" stroke="none"/>
    </g>
    <g id="shape7" transform="matrix(1.0, 0.0, 0.0, 1.0, 76.5, 48.95)">
      <path d="M33.0 -39.25 L33.15 -39.25 Q34.15 -41.15 40.95 -44.6 49.75 -49.0 57.0 -48.75 L69.8 -48.05 Q77.15 -46.95 79.55 -45.75 L85.15 -43.7 Q87.9 -42.6 89.05 -41.25 L93.7 -35.3 98.05 -29.25 Q99.9 -26.7 100.5 -23.1 100.9 -19.05 101.4 -16.85 102.4 -12.85 102.4 -5.05 102.4 5.05 96.75 13.85 91.3 22.35 79.0 32.0 L78.25 31.75 Q78.05 31.6 78.0 31.0 76.95 29.95 75.15 25.1 73.5 20.65 73.5 19.8 L73.6 19.1 73.5 18.4 Q73.5 17.4 76.1 15.9 L79.0 14.3 80.7 11.65 82.3 8.75 Q86.5 1.85 86.5 -1.9 86.5 -5.25 84.8 -10.4 L84.15 -12.3 83.7 -12.0 Q82.75 -11.5 82.25 -11.5 L82.2 -11.5 Q83.5 -7.9 83.5 -4.3 83.5 3.75 79.7 9.2 75.9 14.55 68.0 18.0 L68.5 18.55 69.7 19.65 70.75 20.8 Q71.3 21.65 71.45 22.95 L71.5 25.1 Q71.5 28.65 70.5 29.8 68.2 32.5 60.0 32.5 55.35 32.5 53.8 31.25 53.25 30.8 53.1 30.1 L43.0 29.75 Q42.05 31.3 41.0 31.8 L40.0 32.4 39.5 32.8 22.25 33.5 Q14.45 33.5 12.8 31.65 L11.35 30.35 Q10.1 29.75 6.9 29.75 3.9 29.75 3.0 30.35 L0.85 31.65 Q-4.55 33.5 -31.75 33.5 -42.25 33.5 -43.5 32.5 -44.2 31.9 -43.0 30.3 -43.35 27.7 -46.65 27.85 L-54.75 28.5 Q-59.7 28.5 -61.95 27.0 L-69.5 27.0 Q-75.4 23.95 -76.05 23.15 -76.5 22.6 -76.5 19.35 -76.5 14.35 -72.95 11.15 -69.55 8.1 -61.0 5.25 L-60.9 4.35 Q-60.75 3.15 -60.2 2.3 -59.4 1.0 -57.7 0.3 -51.8 -2.15 -48.1 -5.75 -47.1 -6.75 -41.25 -8.3 -34.9 -10.0 -33.6 -10.75 -32.3 -11.45 -25.85 -16.5 -23.4 -18.5 -22.25 -19.45 L-18.5 -21.85 -16.5 -22.9 -13.5 -24.0 -9.15 -24.35 Q-6.95 -24.4 -5.0 -26.35 -4.2 -27.15 -2.65 -29.65 -1.45 -31.6 0.3 -32.75 2.6 -34.2 6.4 -35.2 L13.0 -37.0 Q19.4 -39.15 26.65 -33.65 28.3 -32.4 35.0 -25.35 L38.65 -21.35 Q39.15 -23.4 41.7 -24.1 L54.3 -27.25 Q59.75 -28.9 65.15 -26.9 67.15 -26.15 74.5 -21.85 L75.55 -21.1 Q75.75 -21.8 76.55 -22.3 L77.2 -22.65 75.5 -24.5 Q71.55 -28.4 68.3 -29.35 L61.9 -29.75 Q53.25 -29.75 47.8 -28.1 L42.25 -26.5 41.5 -26.6 Q41.45 -28.0 40.6 -28.6 L39.95 -29.2 40.0 -29.8 Q40.0 -30.15 38.45 -31.5 36.7 -33.05 36.0 -34.5 L34.05 -36.55 33.25 -37.65 33.15 -37.7 33.0 -38.25 33.0 -39.25 M39.25 -34.55 Q42.0 -30.6 42.0 -29.55 L41.95 -28.65 46.2 -30.05 Q52.25 -31.7 57.5 -31.75 72.9 -34.35 81.95 -20.95 85.15 -16.15 87.0 -10.1 88.5 -5.2 88.5 -2.05 88.5 2.65 84.25 10.2 79.8 18.1 75.2 19.35 76.1 20.7 77.0 22.9 L79.0 28.05 79.0 29.75 84.95 24.15 Q92.4 17.0 94.65 13.8 95.85 12.2 97.15 9.4 L99.4 4.5 Q99.85 3.5 100.15 -0.05 L100.4 -4.65 Q100.4 -13.25 99.4 -16.5 L98.4 -22.2 Q97.9 -25.55 96.4 -27.75 L92.15 -33.45 88.0 -38.85 Q86.3 -41.15 79.6 -43.6 70.95 -46.75 60.65 -46.75 52.05 -46.75 47.4 -44.9 45.3 -44.05 35.6 -38.4 37.35 -37.25 39.25 -34.55 M37.65 -19.65 L33.25 -24.35 Q28.45 -29.25 26.55 -30.75 22.55 -33.95 18.3 -34.75 14.8 -35.4 10.05 -33.9 4.8 -31.9 2.05 -31.25 0.45 -30.3 -0.9 -28.4 -2.4 -26.1 -3.5 -24.85 L-3.5 -24.8 -3.7 -24.6 -4.2 -24.15 -4.25 -24.15 -5.65 -23.3 -9.2 -22.1 -10.1 -21.9 -16.0 -20.6 Q-21.2 -18.05 -24.5 -15.1 -26.2 -13.45 -31.5 -9.1 L-31.5 -9.05 -31.65 -8.95 -32.65 -8.35 Q-34.7 -7.25 -38.55 -6.85 L-38.75 -6.8 -40.4 -6.6 -42.9 -6.05 -43.1 -6.0 -45.25 -5.15 -45.75 -4.85 -48.45 -1.95 Q-50.1 0.0 -52.0 0.9 -55.4 2.5 -58.05 3.25 -59.0 3.65 -59.0 5.6 L-59.0 5.7 -58.8 6.95 -58.65 7.5 -57.25 11.3 Q-55.5 15.4 -55.5 16.5 -55.5 17.95 -58.35 20.65 -61.2 23.25 -61.1 25.0 -58.8 27.25 -53.45 26.85 L-47.0 26.0 Q-42.8 26.0 -41.6 27.0 -41.2 27.35 -41.0 28.75 L-41.0 30.55 -36.75 31.0 -31.75 31.25 Q-3.5 31.25 0.85 29.4 L2.45 28.1 Q3.35 27.5 7.25 27.5 11.25 27.5 13.45 29.4 15.6 31.25 21.9 31.25 40.25 31.25 40.45 28.9 40.6 27.8 42.3 27.45 45.15 27.0 54.6 27.25 L54.7 28.5 55.45 29.15 56.75 30.3 Q66.65 30.3 69.0 28.0 69.75 27.2 69.7 26.15 L69.5 24.9 Q69.5 22.7 67.6 20.95 65.25 18.75 64.8 17.75 L63.1 14.15 62.2 11.6 62.0 11.6 Q61.75 8.9 58.85 5.75 L52.25 -0.35 48.85 -2.55 Q47.05 -3.85 47.0 -6.1 47.0 -8.05 43.8 -12.1 L40.1 -16.75 Q39.15 -17.2 38.75 -18.35 L37.65 -19.65 M-34.55 5.35 L-35.0 3.65 Q-35.0 1.35 -34.05 0.25 L-29.5 -4.0 -28.75 -3.85 Q-28.5 -3.8 -28.5 -3.0 -28.5 -2.7 -30.75 -0.45 -33.0 1.8 -33.0 3.55 L-33.0 3.6 -32.9 4.0 -32.25 5.55 Q-31.5 7.05 -31.5 7.6 -31.5 14.65 -49.5 19.0 L-49.85 18.8 -50.5 18.3 Q-49.6 17.35 -40.95 13.5 -33.5 10.15 -33.5 7.85 -33.5 7.55 -34.25 6.0 L-34.55 5.35 M1.2 -8.3 Q0.6 -9.7 0.55 -12.3 L0.5 -13.25 0.6 -16.9 Q1.0 -19.35 2.5 -19.5 L3.2 -19.25 3.5 -18.45 3.5 -18.3 3.5 -18.2 3.0 -15.75 2.5 -13.25 2.5 -13.15 2.5 -13.05 2.5 -12.95 2.5 -12.9 2.5 -12.8 2.5 -12.7 3.1 -10.0 3.15 -9.85 Q3.75 -8.5 4.9 -7.4 5.8 -6.55 10.25 -3.8 18.0 0.95 18.0 10.3 18.0 12.9 17.4 14.1 16.65 15.65 14.25 16.8 10.4 18.7 -8.1 23.0 L-8.3 22.85 -8.5 21.9 Q-8.5 20.9 -0.4 18.8 L8.25 16.75 Q14.25 14.8 15.5 13.3 16.0 12.7 16.0 10.1 16.0 6.75 14.7 3.9 13.0 0.3 9.5 -1.6 3.1 -5.05 1.5 -7.65 L1.2 -8.3 M29.5 -19.5 Q30.35 -18.55 30.85 -16.15 31.5 -13.2 32.0 -12.1 32.65 -10.6 34.0 -8.35 L36.3 -5.0 41.4 1.75 Q44.5 6.45 44.5 9.0 44.5 10.85 42.85 11.55 38.9 13.15 38.25 13.55 32.75 18.0 32.25 18.0 L31.3 17.75 Q31.0 18.15 31.0 16.9 L42.5 8.75 Q42.5 5.8 35.5 -3.25 28.5 -12.3 28.5 -17.25 28.5 -18.95 29.5 -19.5 M79.55 3.75 L79.65 3.5 79.95 2.65 Q81.5 -1.9 81.5 -4.35 81.5 -10.05 77.0 -16.35 70.6 -25.25 59.15 -25.25 53.95 -25.25 48.9 -23.7 L40.5 -20.5 Q40.75 -19.95 41.35 -19.3 L42.5 -18.0 42.45 -17.1 42.45 -17.05 42.6 -16.9 43.05 -16.4 46.0 -13.0 48.75 -9.6 Q49.05 -9.05 49.0 -7.95 L49.0 -6.25 Q49.3 -4.8 51.15 -3.5 L54.75 -1.1 Q59.7 2.9 61.65 5.45 63.05 7.3 63.6 9.2 64.75 9.55 65.1 11.25 65.9 15.0 66.9 16.1 69.75 15.2 71.55 13.5 L74.35 11.15 77.0 8.75 Q78.2 7.3 79.55 3.75 M77.45 -19.4 Q79.85 -16.9 81.45 -13.4 L81.5 -13.25 82.2 -13.8 83.3 -14.4 Q82.4 -16.4 81.5 -17.5 L79.0 -20.55 78.4 -19.95 77.45 -19.4 M-63.5 24.85 L-63.5 24.8 -63.4 24.0 Q-63.15 23.05 -62.3 22.0 L-60.5 20.05 Q-57.5 17.3 -57.5 16.4 L-59.25 12.15 -60.8 7.1 Q-61.35 7.5 -62.25 7.9 L-67.25 10.1 Q-74.5 13.8 -74.5 19.5 -74.5 21.55 -73.2 22.7 -70.6 25.05 -63.5 25.1 L-63.45 25.1 -63.5 24.85" fill="#120f0a" fill-opacity="0.32941177" fill-rule="evenodd" stroke="none"/>
      <path d="M43.05 -16.4 L48.75 -19.1 Q55.3 -22.25 59.9 -22.25 67.9 -22.25 73.45 -16.4 76.85 -12.8 77.8 -9.5 L79.1 -6.05 Q80.0 -3.6 80.0 -2.35 L79.25 1.7 Q79.05 2.9 79.55 3.75 78.2 7.3 77.0 8.75 L74.35 11.15 71.55 13.5 Q69.75 15.2 66.9 16.1 65.9 15.0 65.1 11.25 64.75 9.55 63.6 9.2 63.05 7.3 61.65 5.45 59.7 2.9 54.75 -1.1 L51.15 -3.5 Q49.3 -4.8 49.0 -6.25 L49.0 -7.95 Q49.05 -9.05 48.75 -9.6 L46.0 -13.0 43.05 -16.4 M-63.5 25.1 Q-70.6 25.05 -73.2 22.7 -74.5 21.55 -74.5 19.5 -74.5 13.8 -67.25 10.1 L-62.25 7.9 Q-61.35 7.5 -60.8 7.1 L-59.25 12.15 -57.5 16.4 Q-57.5 17.3 -60.5 20.05 L-62.3 22.0 Q-63.15 23.05 -63.4 24.0 L-63.5 24.8 -63.5 24.85 -63.5 25.1" fill="#3c3934" fill-opacity="0.32941177" fill-rule="evenodd" stroke="none"/>
      <path d="M43.05 -16.4 L42.6 -16.9 42.45 -17.05 42.45 -17.1 42.5 -18.0 41.35 -19.3 Q40.75 -19.95 40.5 -20.5 L48.9 -23.7 Q53.95 -25.25 59.15 -25.25 70.6 -25.25 77.0 -16.35 81.5 -10.05 81.5 -4.35 81.5 -1.9 79.95 2.65 L79.65 3.5 79.55 3.75 Q79.05 2.9 79.25 1.7 L80.0 -2.35 Q80.0 -3.6 79.1 -6.05 L77.8 -9.5 Q76.85 -12.8 73.45 -16.4 67.9 -22.25 59.9 -22.25 55.3 -22.25 48.75 -19.1 L43.05 -16.4" fill="#66635e" fill-opacity="0.32941177" fill-rule="evenodd" stroke="none"/>
      <path d="M77.45 -19.4 L78.4 -19.95 79.0 -20.55 81.5 -17.5 Q82.4 -16.4 83.3 -14.4 L82.2 -13.8 81.5 -13.25 81.45 -13.4 Q79.85 -16.9 77.45 -19.4" fill="#27241f" fill-opacity="0.32941177" fill-rule="evenodd" stroke="none"/>
      <path d="M-3.7 -24.6 L-3.5 -24.8 -3.5 -24.85 Q-2.4 -26.1 -0.9 -28.4 0.45 -30.3 2.05 -31.25 4.8 -31.9 10.05 -33.9 14.8 -35.4 18.3 -34.75 22.55 -33.95 26.55 -30.75 28.45 -29.25 33.25 -24.35 L37.65 -19.65 36.75 -19.5 Q33.55 -19.5 27.85 -25.15 22.1 -30.85 20.05 -30.85 12.25 -30.85 10.45 -29.95 9.6 -28.7 8.05 -28.1 L5.95 -27.45 Q4.65 -26.95 4.0 -25.85 3.4 -24.8 3.4 -23.1 L3.5 -20.25 3.5 -18.45 3.2 -19.25 2.5 -19.5 Q1.0 -19.35 0.6 -16.9 L0.5 -13.25 0.55 -12.3 Q0.6 -9.7 1.2 -8.3 0.1 -9.35 -1.25 -14.1 -3.0 -20.25 -3.85 -20.25 -6.65 -20.25 -15.15 -15.35 -23.85 -10.3 -26.35 -7.0 -27.0 -6.15 -27.5 -3.6 -28.05 -1.1 -28.75 -0.25 -28.9 -0.05 -29.6 0.3 L-30.85 1.0 -31.85 2.5 -32.9 4.0 -33.0 3.6 -33.0 3.55 Q-33.0 1.8 -30.75 -0.45 -28.5 -2.7 -28.5 -3.0 -28.5 -3.8 -28.75 -3.85 L-29.5 -4.0 -34.05 0.25 Q-35.0 1.35 -35.0 3.65 L-34.55 5.35 -35.0 5.5 -36.25 4.4 -36.5 3.75 Q-34.5 -1.85 -34.5 -3.0 L-34.55 -3.65 -35.0 -3.5 Q-39.3 -4.25 -42.35 -2.5 -44.55 -1.25 -47.5 2.4 -48.85 4.1 -52.1 5.65 -55.5 7.3 -58.65 7.5 L-58.8 6.95 -59.0 5.7 -59.0 5.6 Q-59.0 3.65 -58.05 3.25 -55.4 2.5 -52.0 0.9 -50.1 0.0 -48.45 -1.95 L-45.75 -4.85 -45.25 -5.15 -43.1 -6.0 -42.9 -6.05 -42.4 -6.15 -41.85 -5.85 -41.25 -6.4 -40.4 -6.6 -38.75 -6.8 -38.55 -6.85 Q-34.7 -7.25 -32.65 -8.35 L-32.0 -8.25 -31.65 -8.95 -31.5 -9.05 -31.5 -9.1 Q-26.2 -13.45 -24.5 -15.1 -21.2 -18.05 -16.0 -20.6 L-10.1 -21.9 -9.2 -22.1 -5.65 -23.3 -4.25 -24.15 -4.2 -24.15 -3.0 -24.25 -3.7 -24.6 M3.15 -9.85 L3.1 -10.0 2.5 -12.7 2.5 -12.8 2.5 -12.9 2.5 -12.95 2.5 -13.05 2.5 -13.15 2.5 -13.25 3.0 -15.75 3.5 -18.2 3.35 -9.5 3.15 -9.85" fill="#8d2c0c" fill-opacity="0.32941177" fill-rule="evenodd" stroke="none"/>
      <path d="M39.25 -34.55 Q37.35 -37.25 35.6 -38.4 45.3 -44.05 47.4 -44.9 52.05 -46.75 60.65 -46.75 70.95 -46.75 79.6 -43.6 86.3 -41.15 88.0 -38.85 L92.15 -33.45 96.4 -27.75 Q97.9 -25.55 98.4 -22.2 L99.4 -16.5 Q100.4 -13.25 100.4 -4.65 L100.15 -0.05 Q99.85 3.5 99.4 4.5 L97.15 9.4 Q95.85 12.2 94.65 13.8 92.4 17.0 84.95 24.15 L79.0 29.75 79.0 28.05 77.0 22.9 Q76.1 20.7 75.2 19.35 79.8 18.1 84.25 10.2 88.5 2.65 88.5 -2.05 88.5 -5.2 87.0 -10.1 85.15 -16.15 81.95 -20.95 72.9 -34.35 57.5 -31.75 52.25 -31.7 46.2 -30.05 L41.95 -28.65 42.0 -29.55 Q42.0 -30.6 39.25 -34.55 M-3.7 -24.6 L-3.0 -24.25 -4.2 -24.15 -3.7 -24.6 M-31.65 -8.95 L-32.0 -8.25 -32.65 -8.35 -31.65 -8.95 M-40.4 -6.6 L-41.25 -6.4 -41.85 -5.85 -42.4 -6.15 -42.9 -6.05 -40.4 -6.6 M-58.65 7.5 Q-55.5 7.3 -52.1 5.65 -48.85 4.1 -47.5 2.4 -44.55 -1.25 -42.35 -2.5 -39.3 -4.25 -35.0 -3.5 L-34.55 -3.65 -34.5 -3.0 Q-34.5 -1.85 -36.5 3.75 L-36.25 4.4 -35.0 5.5 -34.55 5.35 -34.25 6.0 Q-33.5 7.55 -33.5 7.85 -33.5 10.15 -40.95 13.5 -49.6 17.35 -50.5 18.3 L-49.85 18.8 -49.5 19.0 Q-31.5 14.65 -31.5 7.6 -31.5 7.05 -32.25 5.55 L-32.9 4.0 -31.85 2.5 -30.85 1.0 -29.6 0.3 Q-28.9 -0.05 -28.75 -0.25 -28.05 -1.1 -27.5 -3.6 -27.0 -6.15 -26.35 -7.0 -23.85 -10.3 -15.15 -15.35 -6.65 -20.25 -3.85 -20.25 -3.0 -20.25 -1.25 -14.1 0.1 -9.35 1.2 -8.3 L1.5 -7.65 Q3.1 -5.05 9.5 -1.6 13.0 0.3 14.7 3.9 16.0 6.75 16.0 10.1 16.0 12.7 15.5 13.3 14.25 14.8 8.25 16.75 L-0.4 18.8 Q-8.5 20.9 -8.5 21.9 L-8.3 22.85 -8.1 23.0 Q10.4 18.7 14.25 16.8 16.65 15.65 17.4 14.1 18.0 12.9 18.0 10.3 18.0 0.95 10.25 -3.8 5.8 -6.55 4.9 -7.4 3.75 -8.5 3.15 -9.85 L3.35 -9.5 3.5 -18.2 3.5 -18.3 3.5 -18.45 3.5 -20.25 3.4 -23.1 Q3.4 -24.8 4.0 -25.85 4.65 -26.95 5.95 -27.45 L8.05 -28.1 Q9.6 -28.7 10.45 -29.95 12.25 -30.85 20.05 -30.85 22.1 -30.85 27.85 -25.15 33.55 -19.5 36.75 -19.5 L37.65 -19.65 38.75 -18.35 Q39.15 -17.2 40.1 -16.75 L43.8 -12.1 Q47.0 -8.05 47.0 -6.1 47.05 -3.85 48.85 -2.55 L52.25 -0.35 58.85 5.75 Q61.75 8.9 62.0 11.6 L62.2 11.6 63.1 14.15 64.8 17.75 Q65.25 18.75 67.6 20.95 69.5 22.7 69.5 24.9 L69.7 26.15 Q69.75 27.2 69.0 28.0 66.65 30.3 56.75 30.3 L55.45 29.15 54.7 28.5 54.6 27.25 Q45.15 27.0 42.3 27.45 40.6 27.8 40.45 28.9 40.25 31.25 21.9 31.25 15.6 31.25 13.45 29.4 11.25 27.5 7.25 27.5 3.35 27.5 2.45 28.1 L0.85 29.4 Q-3.5 31.25 -31.75 31.25 L-36.75 31.0 -41.0 30.55 -41.0 28.75 Q-41.2 27.35 -41.6 27.0 -42.8 26.0 -47.0 26.0 L-53.45 26.85 Q-58.8 27.25 -61.1 25.0 -61.2 23.25 -58.35 20.65 -55.5 17.95 -55.5 16.5 -55.5 15.4 -57.25 11.3 L-58.65 7.5 M29.5 -19.5 Q28.5 -18.95 28.5 -17.25 28.5 -12.3 35.5 -3.25 42.5 5.8 42.5 8.75 L31.0 16.9 Q31.0 18.15 31.3 17.75 L32.25 18.0 Q32.75 18.0 38.25 13.55 38.9 13.15 42.85 11.55 44.5 10.85 44.5 9.0 44.5 6.45 41.4 1.75 L36.3 -5.0 34.0 -8.35 Q32.65 -10.6 32.0 -12.1 31.5 -13.2 30.85 -16.15 30.35 -18.55 29.5 -19.5" fill="#71260b" fill-opacity="0.32941177" fill-rule="evenodd" stroke="none"/>
    </g>
  </defs>
</svg>
