<?xml version="1.0" encoding="UTF-8" standalone="no"?>
<svg xmlns:ffdec="https://www.free-decompiler.com/flash" xmlns:xlink="http://www.w3.org/1999/xlink" ffdec:objectType="frame" height="140.55px" width="366.9px" xmlns="http://www.w3.org/2000/svg">
  <g transform="matrix(1.0, 0.0, 0.0, 1.0, 16.65, 34.6)">
    <clipPath id="clipPath0">
      <path d="M 0 0 L 0 73 L 307.95 73 L 307.95 0 Z"/>
    </clipPath>
    <g clip-path="url(#clipPath0)">
      <use ffdec:characterId="703" ffdec:characterName="Army_fla.ArrowInGround_70" height="34.65" id="MC" transform="matrix(0.4436, 0.0, 0.0, 0.4436, 58.8141, 29.4708)" width="15.95" xlink:href="#sprite0"/>
      <filter id="filter0">
        <feConvolveMatrix divisor="0.0" in="SourceGraphic" kernelMatrix="" order="0 1" result="filterResult0"/>
      </filter>
      <use ffdec:characterId="654" ffdec:characterName="Army_fla.Projectile_62" filter="url(#filter0)" height="43.3" transform="matrix(0.1393, 0.4207, -0.4207, 0.1393, 166.5157, 21.851)" width="111.35" xlink:href="#sprite1"/>
      <use ffdec:characterId="703" ffdec:characterName="Army_fla.ArrowInGround_70" height="34.65" id="MC" transform="matrix(0.4436, 0.0, 0.0, 0.4436, 74.1141, 35.4708)" width="15.95" xlink:href="#sprite0"/>
      <use ffdec:characterId="703" ffdec:characterName="Army_fla.ArrowInGround_70" height="34.65" id="MC" transform="matrix(0.4436, 0.0, 0.0, 0.4436, 44.1141, 49.4708)" width="15.95" xlink:href="#sprite0"/>
      <use ffdec:characterId="703" ffdec:characterName="Army_fla.ArrowInGround_70" height="34.65" id="MC" transform="matrix(0.4436, 0.0, 0.0, 0.4436, 62.1641, 44.8708)" width="15.95" xlink:href="#sprite0"/>
      <use ffdec:characterId="703" ffdec:characterName="Army_fla.ArrowInGround_70" height="34.65" id="MC" transform="matrix(0.4436, 0.0, 0.0, 0.4436, 89.2141, 52.8708)" width="15.95" xlink:href="#sprite0"/>
      <use ffdec:characterId="703" ffdec:characterName="Army_fla.ArrowInGround_70" height="34.65" id="MC" transform="matrix(0.4436, 0.0, 0.0, 0.4436, 94.2141, 28.1208)" width="15.95" xlink:href="#sprite0"/>
      <use ffdec:characterId="703" ffdec:characterName="Army_fla.ArrowInGround_70" height="34.65" id="MC" transform="matrix(0.4436, 0.0, 0.0, 0.4436, 108.2141, 40.1208)" width="15.95" xlink:href="#sprite0"/>
      <use ffdec:characterId="703" ffdec:characterName="Army_fla.ArrowInGround_70" height="34.65" id="MC" transform="matrix(0.4436, 0.0, 0.0, 0.4436, 127.2141, 34.0708)" width="15.95" xlink:href="#sprite0"/>
      <use ffdec:characterId="703" ffdec:characterName="Army_fla.ArrowInGround_70" height="34.65" id="MC" transform="matrix(0.4436, 0.0, 0.0, 0.4436, 140.1641, 52.8708)" width="15.95" xlink:href="#sprite0"/>
      <use ffdec:characterId="703" ffdec:characterName="Army_fla.ArrowInGround_70" height="34.65" id="MC" transform="matrix(0.4436, 0.0, 0.0, 0.4436, 121.2141, 52.8708)" width="15.95" xlink:href="#sprite0"/>
      <use ffdec:characterId="703" ffdec:characterName="Army_fla.ArrowInGround_70" height="34.65" id="MC" transform="matrix(0.4436, 0.0, 0.0, 0.4436, 151.1641, 31.4708)" width="15.95" xlink:href="#sprite0"/>
      <filter id="filter1">
        <feConvolveMatrix divisor="0.0" in="SourceGraphic" kernelMatrix="" order="0 1" result="filterResult1"/>
      </filter>
      <use ffdec:characterId="654" ffdec:characterName="Army_fla.Projectile_62" filter="url(#filter1)" height="43.3" transform="matrix(0.1393, 0.4207, -0.4207, 0.1393, 173.2157, -4.899)" width="111.35" xlink:href="#sprite1"/>
      <filter id="filter2">
        <feConvolveMatrix divisor="0.0" in="SourceGraphic" kernelMatrix="" order="0 1" result="filterResult2"/>
      </filter>
      <use ffdec:characterId="654" ffdec:characterName="Army_fla.Projectile_62" filter="url(#filter2)" height="43.3" transform="matrix(0.1393, 0.4207, -0.4207, 0.1393, 179.3157, -15.099)" width="111.35" xlink:href="#sprite1"/>
      <filter id="filter3">
        <feConvolveMatrix divisor="0.0" in="SourceGraphic" kernelMatrix="" order="0 1" result="filterResult3"/>
      </filter>
      <use ffdec:characterId="654" ffdec:characterName="Army_fla.Projectile_62" filter="url(#filter3)" height="43.3" transform="matrix(0.1393, 0.4207, -0.4207, 0.1393, 199.3157, -25.999)" width="111.35" xlink:href="#sprite1"/>
      <filter id="filter4">
        <feConvolveMatrix divisor="0.0" in="SourceGraphic" kernelMatrix="" order="0 1" result="filterResult4"/>
      </filter>
      <use ffdec:characterId="654" ffdec:characterName="Army_fla.Projectile_62" filter="url(#filter4)" height="43.3" transform="matrix(0.1393, 0.4207, -0.4207, 0.1393, 206.3157, -8.249)" width="111.35" xlink:href="#sprite1"/>
      <filter id="filter5">
        <feConvolveMatrix divisor="0.0" in="SourceGraphic" kernelMatrix="" order="0 1" result="filterResult5"/>
      </filter>
      <use ffdec:characterId="654" ffdec:characterName="Army_fla.Projectile_62" filter="url(#filter5)" height="43.3" transform="matrix(0.1393, 0.4207, -0.4207, 0.1393, 196.3157, 5.451)" width="111.35" xlink:href="#sprite1"/>
      <filter id="filter6">
        <feConvolveMatrix divisor="0.0" in="SourceGraphic" kernelMatrix="" order="0 1" result="filterResult6"/>
      </filter>
      <use ffdec:characterId="654" ffdec:characterName="Army_fla.Projectile_62" filter="url(#filter6)" height="43.3" transform="matrix(0.1393, 0.4207, -0.4207, 0.1393, 185.3657, 13.501)" width="111.35" xlink:href="#sprite1"/>
      <filter id="filter7">
        <feConvolveMatrix divisor="0.0" in="SourceGraphic" kernelMatrix="" order="0 1" result="filterResult7"/>
      </filter>
      <use ffdec:characterId="654" ffdec:characterName="Army_fla.Projectile_62" filter="url(#filter7)" height="43.3" transform="matrix(0.1393, 0.4207, -0.4207, 0.1393, 217.3157, -25.999)" width="111.35" xlink:href="#sprite1"/>
      <filter id="filter28">
        <feColorMatrix in="SourceGraphic" result="filterResult8" type="matrix" values="0 0 0 0 0.03137255,0 0 0 0 0.08627451,0 0 0 0 0.15686275,0 0 0 1 0"/>
        <feConvolveMatrix divisor="15.0" in="filterResult8" kernelMatrix="1 1 1 1 1 1 1 1 1 1 1 1 1 1 1" order="5 3" result="filterResult9"/>
        <feComposite in="SourceGraphic" in2="filterResult9" operator="over" result="filterResult10"/>
      </filter>
      <use ffdec:characterId="1344" filter="url(#filter28)" height="10.5" transform="matrix(1.0, 0.0, 0.0, 1.0, 5.8, 2.55)" width="146.25" xlink:href="#text0"/>
    </g>
  </g>
  <defs>
    <g id="sprite0" transform="matrix(1.0, 0.0, 0.0, 1.0, 10.0, 43.8)">
      <use ffdec:characterId="702" height="34.65" transform="matrix(1.0, 0.0, 0.0, 1.0, -10.0, -43.8)" width="15.95" xlink:href="#shape0"/>
    </g>
    <g id="shape0" transform="matrix(1.0, 0.0, 0.0, 1.0, 10.05, 17.3)">
      <path d="M-2.0 16.5 L-3.25 16.55 -4.15 14.3 -4.15 13.5 Q-4.0 13.2 -3.45 13.15 L-1.8 13.4 -1.25 13.6 -1.25 13.55 -0.95 13.3 -1.3 11.8 -1.7 8.8 -2.25 5.6 -2.6 3.25 -3.3 -1.45 Q-4.65 -1.4 -6.55 -2.7 -8.45 -4.05 -8.55 -4.6 L-8.6 -4.8 -8.85 -5.25 -9.15 -6.9 -9.55 -10.45 -10.05 -15.9 -9.6 -16.2 -9.55 -16.2 -9.25 -16.25 -6.4 -14.2 -4.15 -12.4 -4.0 -12.55 -2.15 -12.8 -2.05 -12.7 -1.35 -13.4 -0.05 -14.55 2.15 -17.3 Q2.85 -17.05 3.25 -15.6 L3.75 -13.2 Q4.1 -9.3 4.4 -7.4 4.9 -6.1 3.5 -4.45 2.1 -2.8 0.0 -2.1 L0.6 2.2 1.05 5.25 1.55 8.3 2.05 11.35 2.15 12.8 2.3 12.75 2.4 12.8 2.55 13.15 3.35 12.75 4.25 12.45 Q5.4 12.3 5.75 12.8 L5.85 13.45 5.85 15.35 5.65 15.35 4.45 15.85 4.8 13.5 3.1 13.9 2.6 13.95 2.65 14.15 2.95 15.85 3.1 16.85 3.05 16.85 2.25 16.9 2.15 16.1 1.75 14.75 1.5 13.9 -0.25 14.15 -0.25 14.25 0.25 15.7 0.65 17.15 -0.1 17.35 -0.7 16.85 -0.85 16.0 -1.1 14.4 -2.85 14.45 -2.0 16.5 M2.3 -15.55 Q1.75 -14.4 0.5 -13.35 L-1.5 -11.9 -1.3 -11.3 -1.05 -10.05 -0.15 -2.85 1.15 -3.8 Q3.1 -5.1 3.15 -6.45 L3.0 -8.7 Q2.9 -9.95 3.15 -10.65 L2.4 -15.45 2.35 -15.6 2.3 -15.55 M0.0 5.25 L-0.35 2.95 -1.15 -2.9 -2.25 -11.45 -2.65 -11.45 -3.05 -11.55 -3.4 -11.4 -3.65 -11.35 -3.55 -10.95 -3.3 -9.7 -1.65 2.5 -1.2 5.55 -0.7 8.6 -0.2 11.7 -0.1 13.15 1.25 12.9 0.95 11.45 0.55 8.5 0.0 5.25 M-3.4 -2.55 L-4.5 -11.3 -4.6 -11.6 -6.7 -12.95 -8.9 -14.85 -8.8 -14.3 -7.65 -5.2 -7.65 -5.15 -6.0 -4.05 -3.5 -2.35 -3.4 -2.3 -3.4 -2.55" fill="#000000" fill-rule="evenodd" stroke="none"/>
      <path d="M2.4 -15.45 L3.15 -10.65 Q2.9 -9.95 3.0 -8.7 L3.15 -6.45 Q3.1 -5.1 1.15 -3.8 L-0.15 -2.85 -1.05 -10.05 -1.3 -11.3 -1.5 -11.9 0.5 -13.35 Q1.75 -14.4 2.3 -15.55 L2.4 -15.45 M-3.5 -2.35 L-6.0 -4.05 -7.65 -5.15 -7.65 -5.2 -8.8 -14.3 -8.9 -14.85 -6.7 -12.95 -4.6 -11.6 -4.5 -11.3 -3.4 -2.55 -3.5 -2.35" fill="#800000" fill-rule="evenodd" stroke="none"/>
      <path d="M0.0 5.25 L0.55 8.5 0.95 11.45 1.25 12.9 -0.1 13.15 -0.2 11.7 -0.7 8.6 -1.2 5.55 -1.65 2.5 -3.3 -9.7 -3.55 -10.95 -3.65 -11.35 -3.4 -11.4 -3.05 -11.55 -2.65 -11.45 -2.25 -11.45 -1.15 -2.9 -0.35 2.95 0.0 5.25" fill="#14100c" fill-rule="evenodd" stroke="none"/>
      <path d="M4.45 15.85 Q3.55 16.25 3.1 16.85 L2.95 15.85 2.65 14.15 2.6 13.95 3.1 13.9 4.8 13.5 4.45 15.85 M2.25 16.9 L1.55 17.05 0.65 17.15 0.25 15.7 -0.25 14.25 -0.25 14.15 1.5 13.9 1.75 14.75 2.15 16.1 2.25 16.9 M-0.7 16.85 Q-1.25 16.55 -2.0 16.5 L-2.85 14.45 -1.1 14.4 -0.85 16.0 -0.7 16.85" fill="#60606c" fill-rule="evenodd" stroke="none"/>
    </g>
    <g id="sprite1" transform="matrix(1.0, 0.0, 0.0, 1.0, 54.8, 21.15)">
      <use ffdec:characterId="202" height="88.5" transform="matrix(0.0, 0.5, -0.5, 0.0, 22.325, -7.125)" width="27.5" xlink:href="#shape1"/>
    </g>
    <g id="shape1" transform="matrix(1.0, 0.0, 0.0, 1.0, 13.75, 44.25)">
      <path d="M-3.2 -19.55 L-3.2 -19.6 -3.25 -23.1 -3.1 -26.95 Q-2.6 -29.85 -0.75 -30.25 3.5 -30.5 3.95 -27.2 L4.25 -22.2 4.25 -19.0 7.75 -18.45 Q7.25 -22.15 4.7 -28.55 L0.3 -39.25 Q-2.05 -35.85 -4.35 -29.4 L-7.7 -19.0 -4.25 -19.25 -3.2 -19.15 -3.15 -19.15 -3.2 -19.55 M1.45 -27.75 L1.25 -28.2 Q-1.95 -26.7 -1.7 -23.4 L-1.25 -20.45 -1.1 -18.75 2.45 -18.75 2.55 -18.85 1.95 -21.9 Q1.55 -24.75 1.75 -27.5 L1.45 -27.75 M5.45 -32.3 Q10.25 -20.5 10.25 -17.85 L10.0 -16.25 Q9.65 -15.75 8.5 -15.75 6.95 -15.75 5.35 -16.75 L4.25 -17.4 4.25 -17.25 3.6 -16.9 3.85 -13.65 3.75 -7.75 3.8 -1.2 3.75 3.5 3.7 13.05 Q6.45 13.4 9.8 16.55 13.25 19.8 13.25 20.9 L13.25 21.35 13.6 22.3 13.75 25.65 13.45 32.75 12.75 43.75 11.75 44.25 11.6 44.15 11.0 44.25 6.05 39.25 2.1 35.05 1.75 35.25 -1.95 35.25 -2.1 35.1 -2.1 35.05 -3.65 36.1 -6.7 38.0 Q-9.9 41.4 -11.75 42.75 -13.15 42.0 -13.55 39.05 L-13.75 34.15 Q-13.25 26.3 -13.25 22.55 -13.9 19.85 -10.6 16.95 -7.4 14.1 -2.85 13.35 L-2.75 4.75 -2.8 -1.45 -2.75 -7.7 -2.9 -13.9 -2.7 -16.75 -2.95 -16.75 -3.1 -16.9 -3.25 -17.55 -5.05 -17.1 -7.0 -16.75 Q-9.3 -16.75 -9.75 -17.85 L-9.75 -19.15 Q-9.75 -22.95 -4.9 -33.75 -1.05 -42.3 0.25 -44.25 1.15 -42.8 5.45 -32.3 M1.85 -16.75 L-0.85 -16.75 -0.65 -13.65 -0.75 -7.75 Q-0.65 -5.45 -0.7 -1.2 L-0.75 3.5 -0.85 15.2 Q-1.0 26.05 -1.35 32.5 L-0.55 32.6 0.2 32.9 0.9 32.75 1.45 32.7 1.3 31.9 1.25 29.4 1.75 4.75 1.7 -1.45 Q1.65 -5.2 1.75 -7.7 L1.6 -13.9 Q1.6 -15.55 1.85 -16.75 M3.85 14.9 L3.65 14.75 3.65 15.2 3.1 32.95 3.25 33.5 Q5.0 34.45 7.05 36.85 L10.75 41.25 10.75 40.15 11.25 21.8 11.25 21.7 8.35 19.05 3.85 14.9 M-11.6 39.2 Q-10.2 37.15 -7.4 35.5 L-2.95 33.1 -3.2 31.9 -3.25 29.4 -2.85 14.85 -5.8 16.35 Q-9.95 18.45 -10.45 21.05 L-10.85 25.4 Q-11.05 28.05 -11.75 29.3 L-11.75 39.05 -11.7 39.3 -11.6 39.2" fill="#000000" fill-rule="evenodd" stroke="none"/>
      <path d="M-3.2 -19.15 L-4.25 -19.25 -7.7 -19.0 -4.35 -29.4 Q-2.05 -35.85 0.3 -39.25 L4.7 -28.55 Q7.25 -22.15 7.75 -18.45 L4.25 -19.0 4.25 -22.2 3.95 -27.2 Q3.5 -30.5 -0.75 -30.25 -2.6 -29.85 -3.1 -26.95 L-3.25 -23.1 -3.2 -19.6 -3.2 -19.55 -3.2 -19.15 M1.45 -27.75 L1.75 -27.5 Q1.55 -24.75 1.95 -21.9 L2.55 -18.85 2.45 -18.75 -1.1 -18.75 -1.25 -20.45 -1.7 -23.4 Q-1.95 -26.7 1.25 -28.2 L1.45 -27.75" fill="#60606c" fill-rule="evenodd" stroke="none"/>
      <path d="M1.85 -16.75 Q1.6 -15.55 1.6 -13.9 L1.75 -7.7 Q1.65 -5.2 1.7 -1.45 L1.75 4.75 1.25 29.4 1.3 31.9 1.45 32.7 0.9 32.75 0.2 32.9 -0.55 32.6 -1.35 32.5 Q-1.0 26.05 -0.85 15.2 L-0.75 3.5 -0.7 -1.2 Q-0.65 -5.45 -0.75 -7.75 L-0.65 -13.65 -0.85 -16.75 1.85 -16.75" fill="#14100c" fill-rule="evenodd" stroke="none"/>
      <path d="M3.65 15.2 L3.85 14.9 8.35 19.05 11.25 21.7 11.25 21.8 10.75 40.15 10.75 41.25 7.05 36.85 Q5.0 34.45 3.25 33.5 L3.1 32.95 3.65 15.2 M-11.75 39.05 L-11.75 29.3 Q-11.05 28.05 -10.85 25.4 L-10.45 21.05 Q-9.95 18.45 -5.8 16.35 L-2.85 14.85 -3.25 29.4 -3.2 31.9 -2.95 33.1 -7.4 35.5 Q-10.2 37.15 -11.6 39.2 L-11.75 39.05" fill="#942403" fill-rule="evenodd" stroke="none"/>
    </g>
    <g id="text0" transform="matrix(1.0, 0.0, 0.0, 1.0, -56.55, 0.0)">
      <g transform="matrix(1.0, 0.0, 0.0, 1.0, 55.0, 0.0)">
        <use fill="#ffcc00" height="10.5" transform="matrix(0.0098, 0.0, 0.0, 0.0098, 0.0, 9.0)" width="146.25" xlink:href="#font_Lithos_Pro_Regular_10"/>
        <use fill="#ffcc00" height="10.5" transform="matrix(0.0098, 0.0, 0.0, 0.0098, 7.05, 9.0)" width="146.25" xlink:href="#font_Lithos_Pro_Regular_.0"/>
        <use fill="#ffcc00" height="10.5" transform="matrix(0.0098, 0.0, 0.0, 0.0098, 12.75, 9.0)" width="146.25" xlink:href="#font_Lithos_Pro_Regular_D0"/>
        <use fill="#ffcc00" height="10.5" transform="matrix(0.0098, 0.0, 0.0, 0.0098, 20.9, 9.0)" width="146.25" xlink:href="#font_Lithos_Pro_Regular_r0"/>
        <use fill="#ffcc00" height="10.5" transform="matrix(0.0098, 0.0, 0.0, 0.0098, 26.95, 9.0)" width="146.25" xlink:href="#font_Lithos_Pro_Regular_o0"/>
        <use fill="#ffcc00" height="10.5" transform="matrix(0.0098, 0.0, 0.0, 0.0098, 34.6, 9.0)" width="146.25" xlink:href="#font_Lithos_Pro_Regular_p0"/>
        <use fill="#ffcc00" height="10.5" transform="matrix(0.0098, 0.0, 0.0, 0.0098, 40.2, 9.0)" width="146.25" xlink:href="#font_Lithos_Pro_Regular_s0"/>
        <use fill="#ffcc00" height="10.5" transform="matrix(0.0098, 0.0, 0.0, 0.0098, 48.0, 9.0)" width="146.25" xlink:href="#font_Lithos_Pro_Regular_a0"/>
        <use fill="#ffcc00" height="10.5" transform="matrix(0.0098, 0.0, 0.0, 0.0098, 58.1, 9.0)" width="146.25" xlink:href="#font_Lithos_Pro_Regular_r0"/>
        <use fill="#ffcc00" height="10.5" transform="matrix(0.0098, 0.0, 0.0, 0.0098, 64.25, 9.0)" width="146.25" xlink:href="#font_Lithos_Pro_Regular_a0"/>
        <use fill="#ffcc00" height="10.5" transform="matrix(0.0098, 0.0, 0.0, 0.0098, 71.35, 9.0)" width="146.25" xlink:href="#font_Lithos_Pro_Regular_i0"/>
        <use fill="#ffcc00" height="10.5" transform="matrix(0.0098, 0.0, 0.0, 0.0098, 74.85, 9.0)" width="146.25" xlink:href="#font_Lithos_Pro_Regular_n0"/>
        <use fill="#ffcc00" height="10.5" transform="matrix(0.0098, 0.0, 0.0, 0.0098, 85.9, 9.0)" width="146.25" xlink:href="#font_Lithos_Pro_Regular_o0"/>
        <use fill="#ffcc00" height="10.5" transform="matrix(0.0098, 0.0, 0.0, 0.0098, 93.55, 9.0)" width="146.25" xlink:href="#font_Lithos_Pro_Regular_f0"/>
        <use fill="#ffcc00" height="10.5" transform="matrix(0.0098, 0.0, 0.0, 0.0098, 101.5, 9.0)" width="146.25" xlink:href="#font_Lithos_Pro_Regular_a0"/>
        <use fill="#ffcc00" height="10.5" transform="matrix(0.0098, 0.0, 0.0, 0.0098, 108.6, 9.0)" width="146.25" xlink:href="#font_Lithos_Pro_Regular_r0"/>
        <use fill="#ffcc00" height="10.5" transform="matrix(0.0098, 0.0, 0.0, 0.0098, 114.75, 9.0)" width="146.25" xlink:href="#font_Lithos_Pro_Regular_r0"/>
        <use fill="#ffcc00" height="10.5" transform="matrix(0.0098, 0.0, 0.0, 0.0098, 120.8, 9.0)" width="146.25" xlink:href="#font_Lithos_Pro_Regular_o0"/>
        <use fill="#ffcc00" height="10.5" transform="matrix(0.0098, 0.0, 0.0, 0.0098, 128.55, 9.0)" width="146.25" xlink:href="#font_Lithos_Pro_Regular_w0"/>
        <use fill="#ffcc00" height="10.5" transform="matrix(0.0098, 0.0, 0.0, 0.0098, 138.0, 9.0)" width="146.25" xlink:href="#font_Lithos_Pro_Regular_s0"/>
      </g>
    </g>
    <g id="font_Lithos_Pro_Regular_10">
      <path d="M434.0 0.0 L338.0 0.0 Q338.0 -14.0 339.5 -57.5 341.0 -100.5 342.5 -162.0 344.0 -224.0 344.0 -294.0 L344.0 -559.0 Q328.5 -540.5 301.5 -513.5 275.0 -486.5 248.0 -460.0 221.5 -434.0 206.0 -417.5 L159.5 -473.0 Q166.5 -479.0 193.0 -504.0 220.0 -528.5 257.0 -563.5 294.5 -598.5 332.0 -634.5 370.0 -670.5 398.5 -698.0 427.5 -726.0 437.0 -737.0 L440.0 -737.0 Q440.0 -719.0 438.0 -673.0 436.0 -626.5 434.0 -562.5 432.0 -499.0 432.0 -429.0 L432.0 -271.5 Q432.0 -160.5 432.0 -92.5 432.0 -24.0 434.0 0.0" fill-rule="evenodd" stroke="none"/>
    </g>
    <g id="font_Lithos_Pro_Regular_.0">
      <path d="M81.0 0.0 L81.0 -113.5 195.5 -113.5 195.5 0.0 81.0 0.0" fill-rule="evenodd" stroke="none"/>
    </g>
    <g id="font_Lithos_Pro_Regular_D0">
      <path d="M245.5 -639.5 L245.5 -85.0 Q350.5 -95.0 432.0 -127.0 513.5 -159.5 569.5 -207.0 626.0 -254.0 655.0 -308.5 684.0 -363.0 684.0 -417.5 683.5 -495.0 629.5 -545.0 575.5 -594.5 477.0 -618.0 379.0 -641.0 245.5 -639.5 M153.5 -323.5 L153.5 -450.5 Q153.5 -457.5 153.5 -483.5 153.0 -509.5 153.0 -545.0 152.5 -580.5 152.0 -616.5 151.5 -652.5 150.5 -680.0 149.5 -707.0 148.5 -716.5 178.5 -716.5 222.0 -716.5 266.0 -716.0 315.0 -714.0 364.0 -711.5 409.5 -706.0 533.5 -689.5 609.0 -657.5 684.0 -625.5 722.0 -586.5 760.0 -547.0 773.0 -509.5 785.5 -471.5 784.5 -444.0 783.5 -349.0 740.5 -275.5 698.0 -202.0 627.5 -149.0 557.0 -96.0 472.5 -62.0 388.0 -27.5 303.0 -11.5 218.5 5.0 147.5 5.0 148.5 -10.0 149.5 -44.5 150.5 -79.0 151.5 -123.0 152.0 -167.0 152.5 -209.5 153.0 -252.0 153.5 -283.0 153.5 -314.5 153.5 -323.5" fill-rule="evenodd" stroke="none"/>
    </g>
    <g id="font_Lithos_Pro_Regular_r0">
      <path d="M224.0 -543.0 L224.0 -266.5 Q224.0 -256.0 224.5 -227.5 224.5 -199.0 225.0 -162.5 225.5 -125.5 226.5 -90.0 227.0 -54.5 228.0 -29.5 228.5 -5.0 229.0 0.0 L133.0 0.0 Q134.0 -7.0 134.5 -39.0 135.0 -70.5 135.0 -114.5 135.0 -158.5 135.0 -202.5 135.0 -246.5 135.0 -277.5 135.0 -309.0 135.0 -315.5 L135.0 -386.0 Q135.0 -397.5 134.5 -430.0 134.5 -462.5 133.5 -501.5 133.0 -541.0 132.0 -571.5 131.0 -602.0 130.0 -609.5 164.0 -610.0 218.5 -609.5 273.0 -609.0 332.5 -602.5 425.5 -591.5 476.0 -555.5 527.0 -519.5 527.5 -462.0 526.5 -408.0 490.0 -363.0 454.0 -318.0 395.0 -284.0 405.0 -270.5 435.0 -237.0 465.0 -203.0 501.5 -162.5 538.5 -122.0 569.0 -89.5 599.5 -57.0 610.5 -46.0 L539.5 16.5 Q536.0 12.0 512.5 -16.5 489.0 -45.0 455.5 -86.5 422.0 -127.5 387.5 -170.5 352.5 -213.0 326.0 -246.0 299.5 -279.0 290.5 -291.0 308.5 -300.0 332.0 -313.5 355.5 -327.0 377.5 -346.0 400.0 -365.0 415.0 -390.5 429.5 -416.0 430.0 -449.0 431.0 -470.0 415.5 -491.0 399.5 -512.5 355.0 -527.0 310.0 -542.0 224.0 -543.0" fill-rule="evenodd" stroke="none"/>
    </g>
    <g id="font_Lithos_Pro_Regular_o0">
      <path d="M380.0 -53.0 L380.0 -53.0 Q451.0 -53.0 510.0 -84.5 569.0 -116.0 604.5 -176.0 640.0 -236.5 641.0 -322.5 640.0 -400.5 608.5 -452.5 576.5 -504.5 524.5 -530.5 472.5 -556.5 410.5 -556.5 329.0 -555.5 271.0 -519.5 212.5 -483.5 181.5 -423.0 151.0 -362.0 150.5 -287.0 151.0 -221.0 178.5 -168.5 206.0 -115.5 257.0 -84.5 308.5 -53.5 380.0 -53.0 M371.5 14.5 L371.5 14.5 Q269.5 13.5 199.5 -26.0 129.0 -65.5 93.0 -130.5 56.5 -195.5 56.5 -273.5 57.0 -371.5 101.5 -450.5 146.5 -529.5 228.5 -576.0 310.5 -623.0 424.0 -624.0 515.0 -623.5 585.0 -588.5 655.0 -553.5 695.0 -487.5 735.0 -421.0 736.0 -327.0 736.5 -274.5 717.0 -216.0 697.5 -157.5 654.5 -105.0 611.5 -52.5 542.0 -19.5 472.0 13.5 371.5 14.5" fill-rule="evenodd" stroke="none"/>
    </g>
    <g id="font_Lithos_Pro_Regular_p0">
      <path d="M223.0 -541.0 L223.0 -248.0 Q279.0 -258.5 324.5 -280.0 370.0 -301.5 397.5 -336.5 424.5 -371.0 425.0 -421.0 425.5 -433.5 419.0 -453.0 412.5 -472.5 392.0 -492.0 372.0 -512.0 331.0 -526.0 290.5 -539.5 223.0 -541.0 M224.0 0.0 L131.0 0.0 Q131.5 -15.5 132.5 -55.5 133.0 -95.5 134.0 -145.5 134.5 -195.5 134.5 -240.0 135.0 -285.0 135.0 -309.5 L135.0 -405.0 Q135.0 -413.5 134.5 -443.5 134.5 -473.5 134.0 -510.0 133.5 -546.0 133.5 -575.0 133.0 -603.5 133.0 -609.5 153.0 -609.5 185.0 -609.0 217.0 -608.0 252.0 -606.0 287.5 -604.0 317.5 -599.5 412.0 -584.5 465.0 -542.5 518.0 -500.5 519.0 -431.5 518.5 -368.5 481.0 -317.5 443.5 -266.5 377.0 -231.5 311.0 -196.0 223.0 -180.5 L223.0 -131.0 Q223.0 -124.0 223.0 -106.0 223.0 -88.0 223.0 -66.0 223.0 -44.0 223.5 -26.0 223.5 -7.5 224.0 0.0" fill-rule="evenodd" stroke="none"/>
    </g>
    <g id="font_Lithos_Pro_Regular_s0">
      <path d="M131.0 16.5 L107.5 -55.5 Q143.5 -62.0 180.5 -73.0 218.0 -83.5 250.0 -99.0 281.5 -114.5 301.5 -135.0 321.0 -155.0 321.5 -181.5 321.5 -214.0 297.0 -235.5 272.5 -257.0 222.0 -280.5 161.0 -309.0 123.0 -341.0 85.0 -373.5 84.0 -420.0 84.5 -456.5 108.5 -490.0 132.0 -523.0 171.5 -550.5 211.0 -578.0 259.5 -597.5 308.0 -617.0 358.5 -626.0 L377.5 -554.0 Q354.0 -551.0 321.0 -542.5 288.0 -533.5 255.0 -519.5 222.5 -505.0 200.5 -484.0 179.0 -462.5 178.0 -434.5 179.0 -411.0 196.5 -394.5 214.5 -377.5 239.0 -365.0 264.0 -352.0 284.5 -341.0 320.5 -322.0 350.0 -304.0 380.0 -285.5 398.0 -261.5 416.0 -237.5 416.5 -202.0 416.0 -156.0 383.0 -113.5 349.5 -70.5 286.0 -36.5 222.5 -2.5 131.0 16.5" fill-rule="evenodd" stroke="none"/>
    </g>
    <g id="font_Lithos_Pro_Regular_a0">
      <path d="M226.5 -255.0 L476.5 -265.0 Q473.0 -271.5 460.0 -295.0 447.5 -318.5 430.0 -350.5 412.5 -382.5 395.0 -414.0 378.0 -445.5 365.0 -468.0 352.5 -490.5 349.5 -495.5 345.0 -488.5 332.5 -464.0 319.5 -439.5 303.0 -406.0 286.0 -373.0 269.5 -340.0 253.0 -307.0 241.0 -283.5 229.5 -260.0 226.5 -255.0 M93.5 18.5 L14.5 -26.5 Q27.5 -49.5 55.0 -100.0 83.0 -150.5 119.0 -216.5 155.0 -283.0 193.5 -353.0 231.5 -423.5 265.0 -485.0 299.0 -547.0 322.0 -589.0 345.0 -630.5 350.5 -640.0 L352.5 -640.0 Q376.5 -601.5 414.5 -538.0 452.0 -474.0 496.0 -399.0 540.0 -323.5 582.5 -250.0 625.5 -176.5 660.0 -119.0 694.0 -61.0 713.0 -32.5 L630.0 17.5 Q623.0 4.0 605.5 -28.5 587.5 -61.0 566.5 -99.0 545.5 -137.0 529.0 -166.5 512.0 -196.0 508.0 -202.5 L191.5 -190.5 Q186.5 -179.0 173.0 -150.5 159.5 -121.5 143.5 -86.5 127.0 -52.0 113.0 -23.0 99.0 6.5 93.5 18.5" fill-rule="evenodd" stroke="none"/>
    </g>
    <g id="font_Lithos_Pro_Regular_i0">
      <path d="M224.0 -357.5 L224.0 -263.5 Q224.0 -230.0 224.5 -188.5 225.0 -147.0 225.5 -106.5 226.5 -66.5 227.0 -37.5 227.5 -8.5 228.0 0.0 L132.0 0.0 Q132.5 -12.0 133.0 -40.0 133.5 -67.5 134.0 -103.0 134.5 -138.0 134.5 -172.5 135.0 -207.0 135.0 -232.0 135.0 -257.0 135.0 -264.5 L135.0 -358.5 Q135.0 -364.0 134.5 -388.5 134.5 -413.0 134.0 -447.5 133.5 -482.0 132.5 -516.5 132.0 -551.5 131.0 -577.0 130.5 -602.5 130.0 -609.5 L229.0 -609.5 Q228.5 -603.0 227.5 -578.5 226.5 -553.5 226.0 -517.0 225.0 -480.5 224.5 -439.0 224.0 -397.0 224.0 -357.5" fill-rule="evenodd" stroke="none"/>
    </g>
    <g id="font_Lithos_Pro_Regular_n0">
      <path d="M197.5 6.0 L103.5 0.0 Q105.0 -17.5 107.5 -64.0 110.5 -111.0 114.0 -176.0 117.5 -241.0 121.5 -313.0 125.0 -384.5 128.5 -451.5 132.0 -519.0 134.5 -569.5 137.0 -620.5 138.0 -644.0 L143.5 -644.0 Q151.0 -636.0 186.5 -600.0 221.5 -564.0 274.0 -511.5 326.0 -459.0 383.5 -400.5 441.5 -342.5 493.5 -290.0 546.0 -237.0 581.5 -201.5 617.5 -165.5 625.5 -157.5 625.5 -165.0 625.5 -198.0 626.0 -231.5 626.0 -280.5 626.5 -329.5 626.5 -384.0 627.0 -438.5 627.5 -488.0 627.5 -537.5 628.0 -571.5 628.5 -605.5 628.5 -613.5 L719.5 -609.5 Q718.5 -593.0 715.5 -545.0 713.0 -497.5 710.0 -429.0 707.0 -360.5 703.5 -282.0 700.5 -204.0 698.0 -126.0 695.5 -48.0 694.0 18.5 L690.0 18.5 Q682.5 11.5 645.5 -24.5 608.5 -61.0 554.5 -114.5 500.5 -168.5 441.0 -227.5 381.5 -286.5 329.0 -339.5 276.0 -392.0 241.5 -426.5 207.5 -461.0 203.5 -465.0 L201.5 -465.0 Q202.0 -460.0 202.0 -426.5 201.5 -393.0 201.0 -342.0 200.5 -291.0 200.0 -234.0 199.0 -177.0 198.5 -125.0 198.0 -73.5 197.5 -37.5 197.0 -2.0 197.5 6.0" fill-rule="evenodd" stroke="none"/>
    </g>
    <g id="font_Lithos_Pro_Regular_f0">
      <path d="M227.0 0.0 L127.0 0.0 Q130.0 -18.5 131.5 -56.0 133.5 -93.5 134.0 -136.0 134.5 -178.5 135.0 -211.0 135.0 -244.0 135.0 -252.5 L135.0 -368.5 Q135.0 -373.5 135.0 -397.5 134.5 -421.5 134.0 -455.0 134.0 -488.0 133.5 -521.5 132.5 -555.0 132.0 -579.5 131.5 -604.0 131.0 -609.5 139.0 -609.5 167.0 -610.5 195.5 -611.5 235.0 -613.0 274.5 -614.5 315.5 -616.5 357.0 -618.0 390.5 -620.0 424.5 -621.5 441.0 -623.0 L445.0 -549.0 224.0 -545.0 224.0 -331.5 Q231.0 -331.5 255.5 -332.5 280.0 -333.0 312.0 -334.5 344.5 -335.5 375.5 -337.0 406.5 -338.5 427.5 -339.5 L431.0 -267.0 224.0 -270.0 224.0 -190.5 Q224.0 -184.0 224.0 -156.5 224.0 -129.0 224.0 -95.0 224.0 -60.5 225.0 -33.0 225.5 -6.0 227.0 0.0" fill-rule="evenodd" stroke="none"/>
    </g>
    <g id="font_Lithos_Pro_Regular_w0">
      <path d="M878.5 -613.5 L964.5 -578.5 Q962.0 -572.0 944.5 -531.5 927.0 -491.0 900.0 -430.0 873.5 -368.5 843.0 -299.5 812.5 -231.0 784.5 -167.5 756.0 -104.0 735.5 -58.5 715.5 -13.5 708.5 0.0 L704.5 0.0 Q693.5 -19.0 670.5 -56.0 648.0 -93.0 619.5 -138.5 591.5 -183.5 563.5 -228.0 536.0 -272.0 515.0 -305.5 494.0 -339.5 486.0 -353.0 474.5 -332.5 452.5 -294.0 430.5 -256.0 403.0 -208.5 375.5 -161.5 348.0 -114.0 320.0 -67.0 297.5 -28.5 275.0 9.5 263.0 29.5 L259.0 29.5 Q251.5 11.5 234.5 -33.0 217.5 -78.0 195.0 -139.0 172.0 -200.0 147.5 -267.0 122.5 -334.5 99.5 -398.0 76.0 -461.5 58.0 -511.0 40.0 -560.5 30.5 -586.0 L118.5 -621.0 Q128.0 -590.0 145.5 -537.0 163.0 -483.5 184.0 -421.5 205.0 -359.0 225.5 -300.0 245.5 -240.5 260.5 -197.5 275.5 -154.0 280.5 -139.0 290.5 -157.5 314.5 -199.5 338.5 -242.0 370.0 -296.0 401.0 -350.0 432.5 -405.5 464.0 -460.5 489.5 -505.0 L491.5 -505.0 Q513.5 -467.5 542.0 -421.0 570.5 -374.5 601.0 -325.5 631.0 -276.5 658.0 -233.0 685.0 -189.0 703.5 -157.5 707.5 -169.0 720.5 -203.0 733.5 -236.5 752.0 -284.0 770.5 -331.0 791.0 -383.0 811.0 -435.0 829.5 -483.0 848.0 -531.0 861.0 -565.5 874.5 -600.5 878.5 -613.5" fill-rule="evenodd" stroke="none"/>
    </g>
  </defs>
</svg>
