<?xml version="1.0" encoding="UTF-8" standalone="no"?>
<svg xmlns:ffdec="https://www.free-decompiler.com/flash" xmlns:xlink="http://www.w3.org/1999/xlink" ffdec:objectType="frame" height="140.55px" width="366.9px" xmlns="http://www.w3.org/2000/svg">
  <g transform="matrix(1.0, 0.0, 0.0, 1.0, 16.65, 34.6)">
    <clipPath id="clipPath0">
      <path d="M 0 0 L 0 73 L 307.95 73 L 307.95 0 Z"/>
    </clipPath>
    <g clip-path="url(#clipPath0)">
      <filter id="filter0">
        <feColorMatrix in="SourceGraphic" result="filterResult0" type="matrix" values="0.571332 0.37782797 0.05084 0.0 0.0 0.19133201 0.757828 0.05084 0.0 0.0 0.19133201 0.37782797 0.43084 0.0 0.0 0.0 0.0 0.0 1.0 0.0"/>
        <feConvolveMatrix divisor="9.0" in="filterResult0" kernelMatrix="1 1 1 1 1 1 1 1 1" order="3 3" result="filterResult1"/>
        <feConvolveMatrix divisor="9.0" in="filterResult1" kernelMatrix="1 1 1 1 1 1 1 1 1" order="3 3" result="filterResult2"/>
        <feConvolveMatrix divisor="9.0" in="filterResult2" kernelMatrix="1 1 1 1 1 1 1 1 1" order="3 3" result="filterResult3"/>
      </filter>
      <use ffdec:characterId="701" filter="url(#filter0)" height="413.2" id="explo2" transform="matrix(0.3402, 0.0, 0.0, 0.3402, 195.1655, -34.6174)" width="455.9" xlink:href="#sprite0"/>
      <filter id="filter1">
        <feConvolveMatrix divisor="0.0" in="SourceGraphic" kernelMatrix="" order="1 0" result="filterResult4"/>
        <feConvolveMatrix divisor="0.0" in="filterResult4" kernelMatrix="" order="1 0" result="filterResult5"/>
        <feConvolveMatrix divisor="0.0" in="filterResult5" kernelMatrix="" order="1 0" result="filterResult6"/>
      </filter>
      <use ffdec:characterId="706" ffdec:characterName="Army_fla.CatapultRock_71" filter="url(#filter1)" height="54.6" transform="matrix(0.9516, 0.0, 0.0, 0.9516, 117.8249, 26.6201)" width="54.8" xlink:href="#sprite1"/>
      <filter id="filter2">
        <feConvolveMatrix divisor="0.0" in="SourceGraphic" kernelMatrix="" order="1 0" result="filterResult7"/>
        <feConvolveMatrix divisor="0.0" in="filterResult7" kernelMatrix="" order="1 0" result="filterResult8"/>
        <feConvolveMatrix divisor="0.0" in="filterResult8" kernelMatrix="" order="1 0" result="filterResult9"/>
      </filter>
      <use ffdec:characterId="706" ffdec:characterName="Army_fla.CatapultRock_71" filter="url(#filter2)" height="54.6" transform="matrix(0.9516, 0.0, 0.0, 0.9516, 130.4249, 26.6201)" width="54.8" xlink:href="#sprite1"/>
      <filter id="filter3">
        <feConvolveMatrix divisor="0.0" in="SourceGraphic" kernelMatrix="" order="0 1" result="filterResult10"/>
        <feConvolveMatrix divisor="0.0" in="filterResult10" kernelMatrix="" order="0 1" result="filterResult11"/>
        <feConvolveMatrix divisor="0.0" in="filterResult11" kernelMatrix="" order="0 1" result="filterResult12"/>
      </filter>
      <use ffdec:characterId="706" ffdec:characterName="Army_fla.CatapultRock_71" filter="url(#filter3)" height="54.6" transform="matrix(0.9516, 0.0, 0.0, 0.9516, 15.4749, 8.6201)" width="54.8" xlink:href="#sprite1"/>
      <filter id="filter4">
        <feColorMatrix in="SourceGraphic" result="filterResult13" type="matrix" values="0.3086 0.6094 0.082 0.0 0.0 0.3086 0.6094 0.082 0.0 0.0 0.3086 0.6094 0.082 0.0 0.0 0.0 0.0 0.0 1.0 0.0"/>
        <feConvolveMatrix divisor="25.0" in="filterResult13" kernelMatrix="1 1 1 1 1 1 1 1 1 1 1 1 1 1 1 1 1 1 1 1 1 1 1 1 1" order="5 5" result="filterResult14"/>
        <feConvolveMatrix divisor="25.0" in="filterResult14" kernelMatrix="1 1 1 1 1 1 1 1 1 1 1 1 1 1 1 1 1 1 1 1 1 1 1 1 1" order="5 5" result="filterResult15"/>
        <feConvolveMatrix divisor="25.0" in="filterResult15" kernelMatrix="1 1 1 1 1 1 1 1 1 1 1 1 1 1 1 1 1 1 1 1 1 1 1 1 1" order="5 5" result="filterResult16"/>
      </filter>
      <use ffdec:characterId="736" filter="url(#filter4)" height="216.85" id="explo1" transform="matrix(0.3402, 0.0, 0.0, 0.3402, -16.6578, 25.3358)" width="364.25" xlink:href="#sprite2"/>
      <filter id="filter12">
        <feColorMatrix in="SourceGraphic" result="filterResult17" type="matrix" values="0 0 0 0 0.03137255,0 0 0 0 0.08627451,0 0 0 0 0.15686275,0 0 0 1 0"/>
        <feConvolveMatrix divisor="15.0" in="filterResult17" kernelMatrix="1 1 1 1 1 1 1 1 1 1 1 1 1 1 1" order="5 3" result="filterResult18"/>
        <feComposite in="SourceGraphic" in2="filterResult18" operator="over" result="filterResult19"/>
      </filter>
      <use ffdec:characterId="1345" filter="url(#filter12)" height="10.4" transform="matrix(1.0, 0.0, 0.0, 1.0, 15.8, 2.55)" width="48.7" xlink:href="#text0"/>
      <filter id="filter28">
        <feColorMatrix in="SourceGraphic" result="filterResult20" type="matrix" values="0 0 0 0 0.03137255,0 0 0 0 0.08627451,0 0 0 0 0.15686275,0 0 0 1 0"/>
        <feConvolveMatrix divisor="15.0" in="filterResult20" kernelMatrix="1 1 1 1 1 1 1 1 1 1 1 1 1 1 1" order="5 3" result="filterResult21"/>
        <feComposite in="SourceGraphic" in2="filterResult21" operator="over" result="filterResult22"/>
      </filter>
      <use ffdec:characterId="1346" filter="url(#filter28)" height="10.4" transform="matrix(1.0, 0.0, 0.0, 1.0, 103.95, 3.1)" width="98.85" xlink:href="#text1"/>
      <filter id="filter39">
        <feColorMatrix in="SourceGraphic" result="filterResult23" type="matrix" values="0 0 0 0 0.03137255,0 0 0 0 0.08627451,0 0 0 0 0.15686275,0 0 0 1 0"/>
        <feConvolveMatrix divisor="15.0" in="filterResult23" kernelMatrix="1 1 1 1 1 1 1 1 1 1 1 1 1 1 1" order="5 3" result="filterResult24"/>
        <feComposite in="SourceGraphic" in2="filterResult24" operator="over" result="filterResult25"/>
      </filter>
      <use ffdec:characterId="1347" filter="url(#filter39)" height="10.45" transform="matrix(1.0, 0.0, 0.0, 1.0, 240.6, 3.1)" width="63.95" xlink:href="#text2"/>
    </g>
  </g>
  <defs>
    <g id="sprite0" transform="matrix(1.0, 0.0, 0.0, 1.0, 215.4, 263.7)">
      <use ffdec:characterId="695" height="12.8" transform="matrix(0.0, -0.1466, 0.1466, 0.0, -18.2211, -11.7648)" width="15.0" xlink:href="#shape0"/>
      <use ffdec:characterId="696" height="126.2" transform="matrix(0.0, -0.3908, 0.3908, 0.0, -52.7071, 4.3128)" width="129.3" xlink:href="#shape1"/>
      <use ffdec:characterId="695" height="12.8" transform="matrix(0.0869, -0.1505, 0.1505, 0.0869, 2.2651, -9.547)" width="15.0" xlink:href="#shape0"/>
      <use ffdec:characterId="696" height="126.2" transform="matrix(0.2316, -0.401, 0.401, 0.2316, -42.6769, -13.4842)" width="129.3" xlink:href="#shape1"/>
      <use ffdec:characterId="695" height="12.8" transform="matrix(-0.084, -0.1122, 0.1122, -0.084, 31.9708, -21.6139)" width="15.0" xlink:href="#shape0"/>
      <use ffdec:characterId="696" height="126.2" transform="matrix(-0.224, -0.2992, 0.2992, -0.224, 14.8034, 10.4802)" width="129.3" xlink:href="#shape1"/>
      <use ffdec:characterId="695" height="12.8" transform="matrix(0.0, -0.1879, 0.1879, 0.0, 53.2985, -8.0625)" width="15.0" xlink:href="#shape0"/>
      <use ffdec:characterId="696" height="126.2" transform="matrix(0.0, -0.5009, 0.5009, 0.0, 9.0951, 12.5312)" width="129.3" xlink:href="#shape1"/>
      <use ffdec:characterId="695" height="12.8" transform="matrix(0.0756, -0.1309, 0.1309, 0.0756, 62.2148, 4.2135)" width="15.0" xlink:href="#shape0"/>
      <use ffdec:characterId="696" height="126.2" transform="matrix(0.2015, -0.3489, 0.3489, 0.2015, 23.1094, 0.7946)" width="129.3" xlink:href="#shape1"/>
      <use ffdec:characterId="695" height="12.8" transform="matrix(-0.124, -0.124, 0.124, -0.124, -25.5267, -13.1021)" width="15.0" xlink:href="#shape0"/>
      <use ffdec:characterId="696" height="126.2" transform="matrix(-0.3305, -0.3305, 0.3305, -0.3305, -41.0878, 29.6682)" width="129.3" xlink:href="#shape1"/>
      <use ffdec:characterId="697" height="123.1" transform="matrix(1.0, 0.0, 0.0, 1.0, -42.5, -104.1)" width="91.5" xlink:href="#shape2"/>
      <use ffdec:characterId="695" height="12.8" transform="matrix(0.14, 0.0, 0.0, 0.14, -53.9219, 0.389)" width="15.0" xlink:href="#shape0"/>
      <use ffdec:characterId="696" height="126.2" transform="matrix(0.3733, 0.0, 0.0, 0.3733, -69.2823, -32.5537)" width="129.3" xlink:href="#shape1"/>
      <use ffdec:characterId="695" height="12.8" transform="matrix(0.0, -0.1681, 0.1681, 0.0, -40.7275, 18.1416)" width="15.0" xlink:href="#shape0"/>
      <use ffdec:characterId="696" height="126.2" transform="matrix(0.0, -0.4482, 0.4482, 0.0, -80.2783, 36.5729)" width="129.3" xlink:href="#shape1"/>
      <use ffdec:characterId="695" height="12.8" transform="matrix(0.2097, 0.0, 0.0, 0.2097, -47.9141, 34.0636)" width="15.0" xlink:href="#shape0"/>
      <use ffdec:characterId="696" height="126.2" transform="matrix(0.5591, 0.0, 0.0, 0.5591, -70.8966, -15.28)" width="129.3" xlink:href="#shape1"/>
      <use ffdec:characterId="695" height="12.8" transform="matrix(-0.0468, -0.1745, 0.1745, -0.0468, -12.5503, 36.6105)" width="15.0" xlink:href="#shape0"/>
      <use ffdec:characterId="696" height="126.2" transform="matrix(-0.1247, -0.4653, 0.4653, -0.1247, -48.4991, 66.7461)" width="129.3" xlink:href="#shape1"/>
      <use ffdec:characterId="695" height="12.8" transform="matrix(0.2097, 0.0, 0.0, 0.2097, 33.1359, 18.7636)" width="15.0" xlink:href="#shape0"/>
      <use ffdec:characterId="696" height="126.2" transform="matrix(0.5591, 0.0, 0.0, 0.5591, 10.1534, -30.58)" width="129.3" xlink:href="#shape1"/>
      <use ffdec:characterId="695" height="12.8" transform="matrix(0.0452, -0.1687, 0.1687, 0.0452, 58.0119, 27.6547)" width="15.0" xlink:href="#shape0"/>
      <use ffdec:characterId="696" height="126.2" transform="matrix(0.1204, -0.4496, 0.4496, 0.1204, 13.3959, 35.5151)" width="129.3" xlink:href="#shape1"/>
      <use ffdec:characterId="695" height="12.8" transform="matrix(0.1811, 0.1045, -0.1045, 0.1811, 9.5849, 30.2052)" width="15.0" xlink:href="#shape0"/>
      <use ffdec:characterId="696" height="126.2" transform="matrix(0.4827, 0.2786, -0.2786, 0.4827, 14.3279, -23.8684)" width="129.3" xlink:href="#shape1"/>
      <use ffdec:characterId="695" height="12.8" transform="matrix(0.0, -0.2388, 0.2388, 0.0, 18.4615, 43.6944)" width="15.0" xlink:href="#shape0"/>
      <use ffdec:characterId="696" height="126.2" transform="matrix(0.0, -0.6366, 0.6366, 0.0, -37.7164, 69.903)" width="129.3" xlink:href="#shape1"/>
    </g>
    <g id="shape0" transform="matrix(1.0, 0.0, 0.0, 1.0, 63.0, -67.05)">
      <path d="M-48.15 79.0 Q-48.45 79.85 -50.0 79.85 -50.9 79.85 -57.0 74.85 -63.0 69.95 -63.0 69.5 L-62.95 67.85 -62.5 67.1 Q-57.0 66.45 -48.0 77.6 L-48.15 79.0" fill="#f9b149" fill-rule="evenodd" stroke="none"/>
    </g>
    <g id="shape1" transform="matrix(1.0, 0.0, 0.0, 1.0, 64.65, 63.1)">
      <path d="M14.35 -50.45 L15.75 -48.65 25.0 -47.95 Q39.35 -45.75 47.25 -41.2 L52.0 -37.2 53.2 -36.25 53.75 -35.45 54.35 -34.85 Q57.9 -31.1 59.45 -27.9 63.1 -20.55 63.6 -13.9 L64.25 -5.9 64.65 -0.15 64.65 0.5 64.65 1.4 Q64.65 4.85 62.65 9.7 L60.95 14.4 Q56.0 26.35 48.1 26.9 L46.7 30.5 Q43.75 37.55 40.3 40.2 36.1 46.85 33.8 47.6 18.65 63.1 -4.0 63.1 L-8.85 62.85 -12.45 62.55 -14.35 62.55 Q-23.05 62.55 -30.1 60.9 -49.15 57.45 -56.25 43.55 -59.3 37.6 -59.85 30.05 L-59.9 28.6 Q-60.4 25.4 -60.4 22.05 -60.4 19.9 -59.9 17.6 L-59.9 17.35 Q-59.85 15.1 -59.3 13.45 -58.75 11.85 -57.25 9.9 L-56.4 8.45 -55.95 7.85 Q-60.1 6.05 -62.6 -2.65 -63.6 -6.05 -64.2 -10.2 L-64.65 -13.75 -64.4 -17.7 -64.1 -23.1 Q-63.95 -26.5 -62.9 -28.4 -62.5 -32.15 -60.9 -36.15 -58.35 -42.45 -53.3 -47.55 -44.85 -56.2 -31.15 -60.0 L-25.25 -61.6 Q-16.95 -63.45 -9.95 -63.05 -5.4 -63.1 -3.2 -62.25 L-2.45 -61.9 0.7 -60.95 Q5.5 -59.15 8.4 -56.2 L9.05 -55.7 Q12.0 -53.3 14.35 -50.45 M50.4 18.5 L56.7 13.35 56.55 12.5 56.55 12.45 Q57.2 12.2 58.1 10.2 L58.3 9.9 Q59.5 8.05 59.7 7.1 L59.9 5.4 60.55 4.45 Q60.95 3.6 61.0 2.4 L61.0 1.15 61.0 0.85 60.95 0.4 60.95 -0.5 Q60.95 -2.55 60.45 -5.05 L59.8 -7.9 59.85 -8.7 Q59.85 -11.7 59.45 -14.5 L58.95 -17.35 Q56.75 -27.05 49.25 -34.0 46.35 -36.65 42.35 -39.1 L42.05 -39.05 Q40.7 -39.05 38.15 -40.2 L37.65 -40.45 27.4 -42.65 21.55 -43.85 14.1 -42.8 13.65 -43.15 12.0 -42.8 10.1 -43.05 10.0 -43.3 Q9.85 -43.5 9.85 -44.25 L9.95 -44.95 9.5 -45.9 Q8.0 -49.3 6.0 -51.7 1.15 -57.7 -7.3 -59.4 L-9.65 -59.55 Q-25.9 -59.55 -37.05 -55.2 -42.65 -52.45 -47.45 -48.2 -53.35 -43.05 -56.6 -36.65 -59.85 -30.4 -59.85 -24.3 -59.85 -15.55 -58.3 -8.35 -56.45 0.25 -52.8 3.3 L-52.65 3.75 Q-51.8 6.2 -50.65 7.85 L-50.85 8.05 -52.45 10.55 -54.25 16.65 Q-56.1 23.5 -56.1 29.15 -56.1 32.7 -54.55 36.75 -52.4 42.25 -48.0 46.6 -37.4 57.05 -16.4 58.55 L-15.75 58.55 Q10.75 58.55 26.9 46.75 L26.9 46.2 32.1 41.05 34.75 38.5 39.9 28.1 43.55 20.1 Q43.7 18.05 43.5 16.15 L43.9 16.15 Q43.6 7.1 41.55 0.25 L40.7 -1.7 39.85 -3.95 Q35.85 -9.2 34.5 -11.4 26.75 -18.3 11.45 -18.3 8.55 -18.3 7.6 -19.35 L7.3 -19.9 7.2 -19.9 3.85 -21.9 Q0.35 -23.9 -1.65 -23.9 -16.25 -23.9 -25.8 -10.7 -28.9 -6.4 -30.95 -1.4 -31.5 1.6 -31.5 4.45 -31.5 6.4 -30.35 9.55 -28.75 14.0 -25.8 17.6 -23.0 21.0 -19.3 23.35 -15.7 26.95 -11.9 28.65 L-12.0 29.0 -10.35 29.7 Q-1.8 33.05 3.2 33.05 9.55 33.05 14.25 26.1 15.85 23.8 16.95 21.1 L17.85 18.3 Q17.85 16.0 12.5 10.05 L7.2 4.45 7.2 3.65 7.45 3.25 Q16.0 7.3 19.25 9.45 L21.05 12.85 22.15 14.7 22.1 18.0 Q22.1 25.25 19.85 29.6 14.95 39.15 0.55 39.15 -8.35 39.15 -15.25 34.4 L-17.75 32.4 Q-24.65 29.85 -29.65 22.65 -32.7 18.25 -34.4 12.95 -35.9 8.2 -35.9 4.3 -35.9 0.5 -34.7 -3.1 -34.25 -6.9 -32.2 -10.75 -32.05 -13.25 -28.5 -17.8 -24.3 -23.1 -18.65 -26.4 -11.65 -30.45 -4.55 -29.95 4.05 -29.4 12.0 -22.1 L11.95 -22.0 12.0 -22.0 12.65 -22.0 12.85 -22.1 Q14.9 -22.95 17.95 -23.05 26.0 -23.4 33.8 -19.0 36.25 -17.9 38.2 -15.7 L38.65 -15.7 41.3 -12.7 42.75 -11.15 44.6 -8.15 Q46.45 -5.45 47.1 -3.8 48.4 -0.35 49.5 4.0 50.8 9.35 50.8 12.35 L50.35 18.5 50.3 18.6 50.4 18.5 M-20.45 27.55 L-20.45 27.45 -20.35 27.25 -23.25 25.4 -20.45 27.55" fill="#f9b149" fill-rule="evenodd" stroke="none"/>
      <path d="M12.0 -22.1 L12.0 -22.0 11.95 -22.0 12.0 -22.1 M50.35 18.5 L50.4 18.5 50.3 18.6 50.35 18.5" fill="#f9a920" fill-rule="evenodd" stroke="none"/>
      <path d="M12.0 -22.1 Q4.05 -29.4 -4.55 -29.95 -11.65 -30.45 -18.65 -26.4 -24.3 -23.1 -28.5 -17.8 -32.05 -13.25 -32.2 -10.75 -34.25 -6.9 -34.7 -3.1 -35.9 0.5 -35.9 4.3 -35.9 8.2 -34.4 12.95 -32.7 18.25 -29.65 22.65 -24.65 29.85 -17.75 32.4 L-15.25 34.4 Q-8.35 39.15 0.55 39.15 14.95 39.15 19.85 29.6 22.1 25.25 22.1 18.0 L22.15 14.7 21.05 12.85 19.25 9.45 Q16.0 7.3 7.45 3.25 L7.2 3.65 7.2 4.45 12.5 10.05 Q17.85 16.0 17.85 18.3 L16.95 21.1 Q15.85 23.8 14.25 26.1 9.55 33.05 3.2 33.05 -1.8 33.05 -10.35 29.7 L-12.0 29.0 -11.9 28.65 Q-15.7 26.95 -19.3 23.35 -23.0 21.0 -25.8 17.6 -28.75 14.0 -30.35 9.55 -31.5 6.4 -31.5 4.45 -31.5 1.6 -30.95 -1.4 -28.9 -6.4 -25.8 -10.7 -16.25 -23.9 -1.65 -23.9 0.35 -23.9 3.85 -21.9 L7.2 -19.9 7.3 -19.9 7.6 -19.35 Q8.55 -18.3 11.45 -18.3 26.75 -18.3 34.5 -11.4 35.85 -9.2 39.85 -3.95 L40.7 -1.7 41.55 0.25 Q43.6 7.1 43.9 16.15 L43.5 16.15 Q43.7 18.05 43.55 20.1 L39.9 28.1 34.75 38.5 32.1 41.05 26.9 46.2 26.9 46.75 Q10.75 58.55 -15.75 58.55 L-16.4 58.55 Q-37.4 57.05 -48.0 46.6 -52.4 42.25 -54.55 36.75 -56.1 32.7 -56.1 29.15 -56.1 23.5 -54.25 16.65 L-52.45 10.55 -50.85 8.05 -50.65 7.85 Q-51.8 6.2 -52.65 3.75 L-52.8 3.3 Q-56.45 0.25 -58.3 -8.35 -59.85 -15.55 -59.85 -24.3 -59.85 -30.4 -56.6 -36.65 -53.35 -43.05 -47.45 -48.2 -42.65 -52.45 -37.05 -55.2 -25.9 -59.55 -9.65 -59.55 L-7.3 -59.4 Q1.15 -57.7 6.0 -51.7 8.0 -49.3 9.5 -45.9 L9.95 -44.95 9.85 -44.25 Q9.85 -43.5 10.0 -43.3 L10.1 -43.05 12.0 -42.8 13.65 -43.15 14.1 -42.8 21.55 -43.85 27.4 -42.65 37.65 -40.45 38.15 -40.2 Q40.7 -39.05 42.05 -39.05 L42.35 -39.1 Q46.35 -36.65 49.25 -34.0 56.75 -27.05 58.95 -17.35 L59.45 -14.5 Q59.85 -11.7 59.85 -8.7 L59.8 -7.9 60.45 -5.05 Q60.95 -2.55 60.95 -0.5 L60.95 0.4 61.0 0.85 61.0 1.15 61.0 2.4 Q60.95 3.6 60.55 4.45 L59.9 5.4 59.7 7.1 Q59.5 8.05 58.3 9.9 L58.1 10.2 Q57.2 12.2 56.55 12.45 L56.55 12.5 56.7 13.35 50.4 18.5 50.35 18.5 50.8 12.35 Q50.8 9.35 49.5 4.0 48.4 -0.35 47.1 -3.8 46.45 -5.45 44.6 -8.15 L42.75 -11.15 41.3 -12.7 38.65 -15.7 38.2 -15.7 Q36.25 -17.9 33.8 -19.0 26.0 -23.4 17.95 -23.05 14.9 -22.95 12.85 -22.1 L12.65 -22.0 12.0 -22.0 12.0 -22.1" fill="#f5a132" fill-rule="evenodd" stroke="none"/>
    </g>
    <g id="shape2" transform="matrix(1.0, 0.0, 0.0, 1.0, 42.5, 104.1)">
      <path d="M46.75 -60.95 L47.0 -60.75 46.8 -61.0 46.75 -60.95 M48.95 -63.0 L49.0 -61.5 Q49.0 -59.5 44.8 -42.9 L38.55 -19.7 Q36.4 -12.5 33.0 1.3 30.0 13.2 19.75 17.0 14.25 19.0 2.0 19.0 -9.0 19.0 -15.7 15.4 -23.6 11.15 -25.0 2.05 L-25.4 -0.25 Q-25.8 -1.85 -26.5 -2.5 -27.6 -3.5 -27.75 -4.75 L-28.0 -6.95 -29.8 -11.65 -31.5 -16.25 Q-42.5 -51.8 -42.5 -53.85 L-42.45 -54.75 -42.2 -54.85 -41.25 -55.0 Q-41.0 -55.0 -37.4 -49.45 L-32.2 -41.25 -24.2 -28.0 -24.0 -32.65 Q-24.0 -39.0 -24.5 -50.85 -25.0 -62.95 -25.5 -67.25 L-25.5 -87.95 -24.5 -88.5 -15.9 -63.4 Q-11.0 -48.6 -8.7 -38.2 L-8.75 -70.7 Q-8.75 -90.6 -6.95 -103.75 -5.2 -104.85 -4.65 -102.45 L-3.95 -98.2 -2.6 -94.2 -1.5 -90.25 Q0.35 -84.2 2.3 -74.5 L5.65 -58.85 Q7.65 -49.55 8.5 -43.0 L8.75 -42.95 Q13.2 -51.45 16.95 -67.45 20.8 -83.9 24.5 -91.5 25.6 -89.5 25.65 -86.1 L25.75 -80.45 Q26.05 -78.35 26.05 -74.25 L26.0 -69.6 Q26.0 -59.75 25.55 -54.1 25.1 -48.55 23.3 -36.5 30.1 -41.05 36.65 -50.4 44.05 -61.05 48.0 -64.5 48.75 -63.9 48.95 -63.0" fill="#ffff99" fill-rule="evenodd" stroke="none"/>
    </g>
    <g id="sprite1" transform="matrix(1.0, 0.0, 0.0, 1.0, 27.4, 27.3)">
      <use ffdec:characterId="704" height="4.75" transform="matrix(1.0, 0.0, 0.0, 1.0, -16.1, 1.45)" width="7.25" xlink:href="#shape3"/>
      <use ffdec:characterId="705" height="39.0" transform="matrix(1.0, 0.0, 0.0, 1.0, -18.6, -19.2)" width="37.8" xlink:href="#shape4"/>
    </g>
    <g id="shape3" transform="matrix(1.0, 0.0, 0.0, 1.0, 16.1, -1.45)">
      <path d="M-9.05 2.15 L-10.15 2.8 -10.25 2.85 -11.9 3.3 -12.3 3.3 -12.35 3.3 -12.85 3.15 -13.35 3.0 -14.25 3.05 -14.45 3.95 -14.65 4.9 Q-15.05 6.05 -16.05 6.15 L-16.1 5.9 -15.9 5.6 -15.9 5.55 -15.75 5.4 -15.15 4.65 -15.15 3.5 -14.95 2.85 -14.9 2.85 -14.9 2.8 -14.6 2.5 -14.3 2.3 -13.0 1.85 Q-12.45 1.85 -12.65 2.25 L-12.6 2.25 -12.65 2.25 -12.5 2.25 -12.5 1.95 Q-12.5 1.7 -11.5 1.6 L-9.8 1.5 Q-9.05 1.3 -8.85 2.0 L-9.05 2.15" fill="#666666" fill-rule="evenodd" stroke="none"/>
    </g>
    <g id="shape4" transform="matrix(1.0, 0.0, 0.0, 1.0, 18.6, 19.2)">
      <path d="M11.85 -15.0 L12.05 -14.85 11.75 -14.3 11.75 -14.25 11.65 -14.0 11.5 -13.7 11.35 -13.35 11.25 -13.15 11.35 -11.35 11.45 -10.6 11.6 -9.3 Q11.6 -8.5 11.75 -8.25 L12.45 -7.8 13.1 -7.4 Q14.15 -6.25 14.15 -5.6 L13.9 -5.05 13.85 -5.05 13.55 -4.8 12.1 -6.65 Q11.4 -7.35 11.1 -7.35 L10.8 -7.25 9.6 -6.9 8.25 -6.65 6.55 -6.45 5.9 -6.5 5.85 -6.5 5.7 -7.15 5.65 -7.2 5.7 -7.25 5.55 -7.5 5.35 -7.55 5.25 -7.65 4.95 -8.75 4.95 -9.3 Q4.55 -9.35 4.15 -9.75 L3.5 -10.2 3.05 -10.05 2.85 -8.55 3.1 -7.75 3.0 -7.8 2.9 -8.0 2.45 -8.85 2.35 -8.7 2.25 -8.4 2.3 -7.85 2.75 -6.9 3.65 -4.95 Q3.9 -4.05 3.8 -2.1 L3.75 -2.1 2.9 -2.15 2.25 -2.25 0.85 -2.95 Q-0.1 -3.25 -0.6 -2.55 L-0.5 -2.45 -0.85 -2.1 -1.8 -1.05 -2.75 -0.15 -3.6 0.75 -4.6 2.05 -4.7 2.1 -5.1 1.8 Q-6.05 3.05 -6.8 3.35 L-7.2 3.0 -7.2 2.8 -7.2 1.85 -6.95 1.8 -6.75 1.85 -6.5 2.1 -4.7 0.55 -3.05 -1.05 -1.85 -2.55 -1.4 -2.9 -0.9 -3.25 -0.85 -3.25 -0.8 -3.3 -0.7 -3.35 -0.45 -3.45 0.1 -3.6 0.2 -3.6 0.45 -3.65 0.7 -3.65 0.8 -3.65 1.85 -3.4 2.85 -3.15 2.9 -4.25 Q2.9 -5.2 2.35 -6.05 L2.3 -6.15 2.05 -6.6 1.9 -6.85 1.75 -7.3 1.75 -7.25 1.8 -7.15 1.65 -7.1 1.55 -7.35 1.35 -7.35 1.3 -7.35 0.0 -6.65 -0.15 -6.6 -0.1 -6.5 0.0 -5.7 0.0 -5.75 0.0 -5.6 0.0 -5.4 -0.15 -4.7 -0.1 -4.0 -0.3 -3.95 -0.7 -5.5 Q-0.85 -6.5 -2.0 -7.2 -4.7 -8.65 -6.2 -10.25 L-6.2 -10.3 -6.2 -10.55 -5.9 -10.65 Q-5.5 -10.65 -4.95 -10.25 L-4.35 -9.75 -3.8 -9.5 -3.7 -9.45 -3.05 -9.0 Q-0.95 -7.75 -0.9 -7.35 L0.8 -7.9 Q1.55 -8.1 1.8 -8.65 L1.9 -8.9 1.95 -9.2 2.2 -10.35 2.4 -11.55 1.95 -12.15 1.55 -12.85 1.55 -12.95 1.5 -13.2 1.45 -13.6 1.25 -14.0 1.15 -14.3 0.95 -14.85 1.05 -15.1 1.2 -15.2 2.0 -14.3 2.9 -12.9 3.3 -12.2 3.35 -12.1 3.45 -11.95 3.9 -11.25 4.35 -10.8 4.9 -10.75 5.2 -10.65 5.4 -10.55 5.55 -10.3 5.75 -9.95 5.85 -9.5 6.15 -7.8 8.9 -8.1 10.65 -8.3 Q10.4 -9.3 10.4 -11.3 L10.4 -11.4 10.4 -11.65 10.4 -11.7 10.5 -13.05 10.55 -13.5 10.65 -13.9 10.7 -14.05 Q11.0 -14.85 11.65 -14.95 L11.85 -15.0 M18.3 3.7 L18.2 4.4 Q18.2 5.1 17.45 6.5 L17.2 6.95 16.85 7.8 16.55 7.95 16.15 8.5 16.05 9.15 16.05 9.25 15.85 9.65 16.0 8.8 16.1 8.65 15.75 9.2 15.2 10.2 15.45 10.35 15.35 10.6 15.05 10.7 14.8 10.65 14.7 10.7 14.65 10.65 14.85 11.5 14.8 11.85 14.65 12.15 14.35 12.6 13.95 12.8 13.9 12.9 13.8 13.05 13.7 13.15 13.55 13.65 10.1 16.1 9.95 16.3 8.85 16.55 7.8 16.85 7.35 16.8 7.75 15.15 7.8 14.45 Q7.8 13.55 9.45 11.45 L10.8 9.6 11.25 9.6 11.4 9.55 12.25 10.05 13.25 10.5 13.4 10.5 13.55 10.45 13.55 10.35 13.65 10.2 13.55 10.15 13.5 10.1 12.0 9.1 11.85 9.0 10.25 8.4 10.6 9.0 10.25 9.35 9.7 9.9 9.1 10.6 9.0 10.5 9.0 10.65 8.4 11.1 8.3 10.2 8.15 9.75 7.95 9.3 7.7 7.25 7.65 7.1 7.65 6.9 8.55 4.65 9.25 3.35 10.05 2.0 10.45 1.85 11.15 1.65 12.0 1.35 12.5 1.15 14.4 0.45 15.45 -0.5 15.95 -2.0 15.95 -2.15 15.9 -2.25 Q15.15 -2.2 14.75 -1.45 L14.7 -1.3 14.1 -0.3 13.45 0.1 12.3 0.5 Q10.5 1.05 9.9 1.35 9.25 1.65 9.2 1.85 L9.05 2.3 7.8 3.3 6.6 4.7 5.4 2.05 5.25 1.7 5.95 1.5 7.25 1.8 Q8.45 1.8 9.45 0.3 L9.95 -0.2 12.3 -0.4 12.35 -0.65 Q12.35 -0.95 13.95 -1.35 L14.45 -1.7 14.6 -2.1 15.95 -3.35 16.1 -3.0 16.85 -2.75 17.25 -2.55 17.85 -2.15 18.3 -1.4 17.55 -0.9 16.95 -1.0 16.65 -1.15 16.1 0.45 Q16.1 1.0 16.75 1.7 L17.7 2.55 17.85 2.45 Q18.2 2.8 18.3 3.7 M7.7 16.9 L7.2 17.1 7.25 17.05 7.3 17.0 7.7 16.9 M2.3 18.9 L2.3 18.95 1.8 19.05 1.25 19.05 0.05 19.1 -0.25 19.0 -1.95 18.8 -2.25 18.9 -2.3 19.0 -2.8 19.0 -2.85 18.75 -2.9 18.75 -4.05 18.65 -4.25 18.6 -4.25 18.65 -4.45 18.55 -4.5 18.5 -4.65 18.45 -5.45 18.4 -5.95 18.35 -6.5 18.2 -6.6 18.15 -7.8 17.45 -7.9 17.4 -8.85 16.6 -8.9 16.5 -9.3 16.55 -9.45 16.55 -10.65 15.55 -11.1 14.9 -11.1 14.85 -12.4 13.75 -12.5 13.55 -12.15 13.8 -12.35 13.4 -12.35 13.35 -12.45 13.35 -12.6 13.35 -12.95 13.05 -13.45 12.8 -13.5 12.75 -13.55 12.7 -13.7 12.55 -13.8 12.45 -14.0 12.2 -14.7 10.9 -14.55 10.5 -14.15 10.1 -13.95 9.8 -13.4 9.75 -12.75 9.8 -12.65 9.85 -12.6 10.1 -12.65 10.3 -12.9 10.65 -13.05 10.8 -12.55 10.8 -12.25 10.8 -12.0 10.8 -11.5 10.7 -11.25 10.35 -10.35 10.1 -9.4 9.85 -9.45 10.1 -9.2 9.9 Q-7.7 9.1 -7.5 8.85 L-7.25 7.6 -7.05 7.1 -7.7 6.55 -7.75 6.5 -7.8 6.6 Q-8.3 7.65 -9.5 7.65 L-10.25 7.35 -8.95 6.55 Q-8.1 6.0 -8.7 5.0 L-8.7 4.1 -9.2 3.1 -9.8 3.0 -11.75 3.5 Q-11.95 3.5 -12.15 3.65 L-12.3 3.75 -12.5 3.8 -13.85 3.5 -14.45 3.6 -14.45 4.9 Q-14.5 5.65 -14.95 5.85 L-15.35 5.9 -15.75 5.85 -15.8 5.6 -15.5 5.05 -15.3 4.65 -15.3 3.6 -15.15 3.1 -14.85 2.6 -14.05 2.25 -13.95 2.4 -12.8 2.0 -11.7 1.45 Q-10.95 1.2 -10.45 0.75 -9.3 1.35 -8.75 2.6 L-8.1 4.5 -7.8 5.45 -7.05 6.15 Q-6.45 6.3 -6.05 6.85 L-6.0 6.95 -5.9 7.05 -5.95 7.95 Q-6.0 9.1 -6.5 9.75 L-9.05 11.5 -9.45 11.8 -9.8 12.05 -10.6 12.65 -10.7 12.7 -11.2 13.15 -11.4 13.45 -11.4 13.6 -11.35 13.75 -11.7 14.05 -11.2 14.25 -11.25 14.55 -11.1 14.85 -11.1 14.7 -10.9 13.95 -10.65 13.9 -10.45 13.85 -10.05 13.6 -9.65 13.15 -9.35 12.75 -8.9 12.2 -8.8 12.15 -8.75 12.15 -8.75 12.1 -8.3 11.85 -8.25 11.8 -7.55 11.6 -6.95 11.15 -6.5 10.8 -6.0 10.95 -5.9 10.6 -5.45 10.35 -5.35 10.4 Q-5.15 10.45 -4.5 11.1 L-3.6 12.0 -2.4 12.9 Q-2.1 13.1 -2.1 13.35 L-2.1 13.8 -1.05 15.9 -0.45 16.95 -0.25 17.2 -0.2 17.25 -0.05 17.4 0.05 17.3 0.15 17.0 0.25 16.95 0.15 16.85 0.15 16.8 0.1 16.8 0.1 16.75 -0.05 16.25 -0.2 15.75 -0.9 13.3 Q-0.9 12.05 -0.05 10.95 L0.7 9.8 0.8 9.85 0.65 10.3 0.65 10.4 0.6 10.55 0.15 12.15 0.0 13.15 0.45 14.45 2.1 16.05 4.35 15.8 5.4 15.5 5.5 15.5 5.2 16.05 5.75 14.25 6.35 12.0 6.75 11.45 6.6 11.1 6.15 9.3 5.55 7.5 Q5.4 7.05 4.65 6.55 3.95 6.0 3.6 6.0 3.2 6.0 2.65 6.8 L2.15 7.65 1.35 8.75 1.3 8.75 1.35 8.55 1.35 8.25 0.9 8.1 Q0.7 8.1 -0.45 10.1 -1.4 11.75 -1.95 12.0 L-2.1 12.05 -2.15 12.05 -2.8 11.55 -2.85 11.5 -3.5 10.7 -4.05 10.15 -4.4 9.2 -4.8 7.5 Q-4.65 7.5 -4.55 7.35 L-4.4 7.2 -4.45 7.15 -4.8 6.85 -5.0 6.7 -5.15 6.1 -5.15 6.05 -5.5 6.05 -5.55 5.9 -6.05 5.15 -6.5 4.3 -5.6 3.35 -5.3 3.05 -4.7 2.15 -4.6 2.05 -4.2 1.85 -4.15 1.85 -4.1 2.1 -4.9 3.1 Q-5.7 3.9 -5.7 4.5 L-5.65 4.35 -4.95 5.0 -4.05 6.35 -3.0 7.45 Q-2.6 7.0 -1.45 6.2 L0.6 4.85 Q1.45 4.3 1.45 3.3 1.45 2.2 1.8 2.0 3.15 3.05 3.15 3.75 L2.7 3.6 3.3 3.8 3.55 3.7 5.05 3.45 5.1 3.5 5.25 3.75 5.15 4.05 5.1 4.4 4.3 4.35 3.3 4.45 3.3 4.65 3.35 4.7 3.5 4.8 3.55 4.85 3.9 5.05 4.65 5.4 4.85 5.5 5.5 5.8 6.15 7.3 Q6.95 9.0 7.15 11.0 L7.2 12.2 6.7 14.4 6.4 15.55 6.2 16.85 5.35 17.0 4.7 17.15 3.4 17.45 Q2.6 17.75 2.3 18.2 L2.15 18.55 2.15 18.6 2.1 18.8 2.15 18.85 2.3 18.85 2.3 18.9 M-17.45 4.5 L-17.55 4.35 -17.45 4.3 -17.35 4.3 -17.4 4.4 -17.45 4.5 M-6.8 -17.25 L-6.45 -17.4 -6.55 -17.25 -6.6 -17.25 -6.8 -17.25 M-13.9 -5.6 L-13.75 -5.5 -13.55 -5.4 Q-12.95 -5.1 -11.8 -5.1 -10.65 -5.1 -10.3 -5.9 L-9.45 -7.65 -7.5 -10.05 -7.35 -10.0 -7.2 -9.75 -8.55 -7.65 Q-9.7 -5.85 -9.85 -4.2 L-9.85 -4.15 -9.9 -3.6 -9.75 -2.85 -9.6 -2.45 -9.2 -1.35 -9.2 -1.05 -9.15 -0.3 -8.85 0.25 -8.75 0.45 -8.7 0.65 -8.7 0.7 -9.2 0.15 Q-9.55 -0.35 -9.7 -1.15 L-9.8 -1.55 -10.25 -3.15 -10.5 -2.45 -10.5 -1.8 -10.8 -1.4 -10.8 -2.45 -11.25 -3.4 Q-11.55 -3.9 -11.1 -4.2 L-13.25 -4.55 -13.55 -4.65 -13.9 -4.85 -14.35 -5.25 -14.45 -5.4 -14.7 -5.85 -14.45 -5.9 -13.9 -5.6 M2.3 -7.85 L2.15 -7.85 2.3 -7.85 M-0.2 15.75 L-0.1 15.7 -0.2 15.75 M-4.05 8.95 L-4.05 9.05 -3.95 9.2 -3.85 9.25 -4.05 8.95 M-3.9 15.1 L-4.2 15.75 -4.35 16.35 -4.35 16.45 -4.35 16.8 -4.25 17.55 -3.05 17.6 -3.0 17.6 -1.35 17.4 -1.65 17.0 -1.7 16.9 -2.1 16.05 -2.45 15.0 -2.6 15.1 -3.8 15.1 -3.9 15.1 M-4.4 14.4 L-3.65 14.25 -2.95 14.25 -4.1 13.2 Q-5.55 11.75 -5.9 11.75 L-7.6 12.85 -9.15 13.8 -9.15 13.85 -9.1 14.05 -9.15 14.3 -9.15 15.1 -8.2 15.6 -8.05 15.65 -6.6 15.9 -6.0 15.85 -5.8 15.8 Q-5.15 15.65 -5.0 15.1 L-4.6 14.5 -4.4 14.4 M15.85 2.2 L14.4 1.35 13.1 2.0 11.25 2.45 10.35 3.95 9.35 6.0 9.7 5.3 11.55 6.45 14.85 8.65 15.05 8.25 16.35 6.15 16.8 4.15 Q16.95 3.45 17.3 3.0 L16.6 2.65 15.85 2.2 M10.85 10.65 L9.25 13.2 Q8.65 14.0 8.6 14.95 L8.6 15.05 8.65 15.3 11.25 14.4 12.45 12.6 13.75 10.9 12.85 11.0 11.4 10.85 10.85 10.65 M14.65 10.65 L14.6 10.6 14.65 10.65 M5.4 2.05 L5.45 2.0 5.4 2.05 M8.4 8.15 L8.3 8.75 Q8.3 9.55 8.85 9.6 L8.9 9.9 9.15 9.6 9.55 9.2 9.65 9.1 9.6 9.05 9.6 8.7 9.5 8.0 Q8.65 7.7 8.4 8.15" fill="#4d4d4d" fill-rule="evenodd" stroke="none"/>
      <path d="M11.75 -15.15 L11.8 -15.05 11.75 -15.05 11.75 -15.15 M12.75 -14.7 L12.9 -14.55 12.75 -14.7 M14.65 -12.45 L15.0 -12.0 15.0 -11.85 14.65 -12.45 M15.4 -11.2 L15.6 -10.95 15.75 -10.65 15.4 -11.2 M15.75 -10.55 L15.8 -10.45 15.75 -10.4 15.7 -10.3 15.75 -10.55 M15.85 9.65 L15.45 10.65 14.65 12.15 14.8 11.85 14.85 11.5 14.65 10.65 14.7 10.7 14.8 10.65 15.05 10.7 15.35 10.6 15.45 10.35 15.2 10.2 15.75 9.2 16.1 8.65 16.0 8.8 15.85 9.65 M13.55 13.65 L13.55 13.8 12.8 14.7 12.35 14.9 10.75 16.1 10.1 16.25 9.95 16.3 10.1 16.1 13.55 13.65 M7.8 16.85 L7.7 16.9 7.3 17.0 7.25 17.05 7.35 16.8 7.8 16.85 M2.35 18.85 L2.3 18.9 2.3 18.85 2.15 18.85 2.35 18.85 M0.05 19.1 L-0.15 19.1 -1.25 19.2 -1.7 19.05 -2.3 19.0 -2.25 18.9 -1.95 18.8 -0.25 19.0 0.05 19.1 M-2.8 19.0 L-3.65 18.9 -4.2 18.7 -4.45 18.55 -4.25 18.65 -4.25 18.6 -4.05 18.65 -2.9 18.75 -2.85 18.75 -2.8 19.0 M-7.8 17.45 L-8.45 17.05 -8.9 16.55 -8.85 16.6 -7.9 17.4 -7.8 17.45 M-12.5 13.55 Q-12.65 13.25 -12.95 13.05 L-12.6 13.35 -12.45 13.35 -12.35 13.35 -12.35 13.4 -12.15 13.8 -12.5 13.55 M-13.8 12.45 L-14.0 12.25 -14.0 12.2 -13.8 12.45 M0.6 -17.85 L0.6 -17.75 0.6 -17.85 M11.5 -13.7 L11.45 -13.25 11.4 -12.5 11.45 -10.6 11.35 -11.35 11.25 -13.15 11.35 -13.35 11.5 -13.7 M12.1 -6.65 L10.8 -7.25 11.1 -7.35 Q11.4 -7.35 12.1 -6.65 M6.55 -6.45 L6.1 -6.45 5.85 -6.35 5.85 -6.45 5.9 -6.5 6.55 -6.45 M5.0 -6.15 L4.65 -5.3 4.5 -2.65 4.5 -0.95 4.55 -0.6 Q4.4 -1.25 4.4 -1.95 L4.4 -2.15 4.55 -4.65 Q4.55 -5.35 5.0 -6.15 M-7.25 -13.35 L-7.35 -13.3 -7.35 -13.35 -7.25 -13.35 M5.35 -7.55 L5.3 -7.55 5.25 -7.65 5.35 -7.55 M3.5 4.8 L3.9 5.05 3.55 4.85 3.5 4.8 M0.0 -6.65 L-0.1 -6.5 -0.15 -6.6 0.0 -6.65 M-7.2 2.8 L-7.2 3.0 -7.25 2.9 -7.2 2.8 M-16.3 -6.1 L-15.8 -6.25 -16.25 -6.1 -16.3 -6.1 M-9.75 -2.85 L-9.9 -3.6 -9.85 -4.15 -9.75 -2.85 M-8.25 11.8 L-8.3 11.85 -8.75 12.1 -8.75 12.15 -8.8 12.15 -8.9 12.2 -8.85 12.15 -8.8 12.15 -8.45 11.9 -8.25 11.8 M-10.9 13.95 L-11.1 14.7 -11.1 14.85 -11.25 14.55 -11.2 14.25 -11.7 14.05 -11.35 13.75 -11.25 13.8 -10.9 13.95 M-10.45 0.75 Q-10.95 1.2 -11.7 1.45 L-10.5 0.75 -10.45 0.75 M10.45 1.85 L12.5 1.15 12.0 1.35 11.15 1.65 10.45 1.85 M7.65 6.9 L7.65 7.1 7.6 7.0 7.65 6.9 M14.65 10.65 L14.6 10.6 14.65 10.65" fill="#2b3227" fill-rule="evenodd" stroke="none"/>
      <path d="M11.8 -15.05 L11.85 -15.0 11.65 -14.95 11.7 -15.05 11.75 -15.05 11.8 -15.05 M5.7 -7.15 L5.65 -7.15 5.65 -7.2 5.7 -7.15 M-4.95 -14.15 L-4.9 -14.15 -4.85 -14.15 -4.95 -14.15 M2.3 -7.85 L2.15 -7.85 2.3 -7.85 M-4.7 2.1 L-4.6 2.05 -4.7 2.15 -4.7 2.1 M0.1 -5.6 L0.15 -5.4 0.05 -5.45 0.0 -5.4 0.0 -5.6 0.1 -5.6 M13.2 -3.5 L13.25 -3.45 13.2 -3.5 M-0.2 15.75 L-0.1 15.7 -0.2 15.75 M-16.0 1.85 L-16.05 1.7 -15.95 1.8 -16.0 1.85 M9.0 10.65 L9.0 10.5 9.1 10.6 9.0 10.65 M0.8 9.8 L0.7 9.8 0.85 9.55 0.8 9.8" fill="#3c4334" fill-rule="evenodd" stroke="none"/>
      <path d="M-8.9 16.55 L-8.9 16.5 -8.85 16.6 -8.9 16.55 M3.15 -7.55 L3.0 -7.8 3.1 -7.75 3.15 -7.55 M1.3 8.75 L1.35 8.75 1.2 9.0 1.3 8.75 M0.8 9.85 L0.7 9.8 0.8 9.8 0.8 9.85 M-0.3 4.4 L-0.2 4.5 -0.45 4.65 -0.3 4.4" fill="#242f24" fill-rule="evenodd" stroke="none"/>
      <path d="M0.0 -5.7 L0.1 -5.6 0.0 -5.6 0.0 -5.75 0.0 -5.7" fill="#49533e" fill-rule="evenodd" stroke="none"/>
      <path d="M15.75 -10.4 L15.75 -10.35 15.7 -10.3 15.75 -10.4 M5.4 2.05 L5.45 2.0 5.4 2.05" fill="#333c2d" fill-rule="evenodd" stroke="none"/>
      <path d="M7.2 17.1 L6.75 17.75 6.5 17.85 Q5.3 17.85 4.4 18.4 L2.55 18.9 2.45 18.9 2.35 18.85 2.15 18.85 2.1 18.8 2.15 18.6 2.15 18.55 2.3 18.2 Q2.6 17.75 3.4 17.45 L4.7 17.15 5.35 17.0 6.2 16.85 6.4 15.55 6.7 14.4 7.2 12.2 7.15 11.0 Q6.95 9.0 6.15 7.3 L5.5 5.8 4.85 5.5 4.65 5.4 3.9 5.05 3.5 4.8 3.35 4.7 3.3 4.65 3.3 4.45 4.3 4.35 5.1 4.4 5.15 4.05 5.25 3.75 5.1 3.5 Q4.7 3.0 4.25 1.8 L3.8 0.2 3.75 -0.6 3.65 -0.6 Q3.1 -0.6 1.35 -1.65 L0.25 -2.0 -0.5 -2.45 -0.6 -2.55 Q-0.1 -3.25 0.85 -2.95 L2.25 -2.25 2.9 -2.15 3.75 -2.1 3.8 -2.1 Q3.9 -4.05 3.65 -4.95 L2.75 -6.9 2.3 -7.85 2.25 -8.4 2.35 -8.7 2.45 -8.85 2.9 -8.0 3.0 -7.8 3.15 -7.55 4.05 -6.0 4.7 -6.85 5.3 -7.55 5.35 -7.55 5.55 -7.5 5.7 -7.25 5.65 -7.2 5.65 -7.15 5.15 -6.4 5.05 -6.2 5.0 -6.15 Q4.55 -5.35 4.55 -4.65 L4.4 -2.15 4.4 -1.95 Q4.4 -1.25 4.55 -0.6 L4.65 -0.1 4.8 0.6 4.85 0.75 4.9 0.8 4.95 1.0 5.25 1.7 5.4 2.05 6.6 4.7 7.8 3.3 9.05 2.3 9.2 1.85 Q9.25 1.65 9.9 1.35 10.5 1.05 12.3 0.5 L13.45 0.1 14.1 -0.3 14.7 -1.3 14.75 -1.45 Q15.15 -2.2 15.9 -2.25 L15.95 -2.15 15.95 -2.0 15.45 -0.5 14.4 0.45 12.5 1.15 10.45 1.85 10.05 2.0 9.25 3.35 8.55 4.65 7.65 6.9 7.6 7.0 7.65 7.1 7.7 7.25 7.95 9.3 8.15 9.75 8.3 10.2 8.4 11.1 9.0 10.65 9.1 10.6 9.7 9.9 10.25 9.35 10.6 9.0 10.25 8.4 11.85 9.0 12.0 9.1 13.5 10.1 13.55 10.15 13.65 10.2 13.55 10.35 13.55 10.45 13.4 10.5 13.25 10.5 12.25 10.05 11.4 9.55 11.25 9.6 10.8 9.6 9.45 11.45 Q7.8 13.55 7.8 14.45 L7.75 15.15 7.35 16.8 7.25 17.05 7.2 17.1 M-7.2 3.0 L-6.8 3.35 Q-6.05 3.05 -5.1 1.8 L-4.7 2.1 -4.7 2.15 -5.3 3.05 -5.6 3.35 -6.5 4.3 -6.05 5.15 -5.55 5.9 -5.5 6.05 -5.15 6.05 -5.15 6.1 -5.0 6.7 -4.8 6.85 -4.45 7.15 -4.4 7.2 -4.55 7.35 Q-4.65 7.5 -4.8 7.5 L-4.4 9.2 -4.05 10.15 -3.5 10.7 -2.85 11.5 -2.8 11.55 -2.15 12.05 -2.1 12.05 -1.95 12.0 Q-1.4 11.75 -0.45 10.1 0.7 8.1 0.9 8.1 L1.35 8.25 1.35 8.55 1.3 8.75 1.2 9.0 0.95 9.0 0.85 9.55 0.7 9.8 -0.05 10.95 Q-0.9 12.05 -0.9 13.3 L-0.2 15.75 -0.05 16.25 0.1 16.75 0.1 16.8 0.15 16.8 0.15 16.85 0.15 16.9 0.15 17.0 0.05 17.3 -0.05 17.4 -0.2 17.25 -0.25 17.2 -0.45 16.95 -1.05 15.9 -2.1 13.8 -2.1 13.35 Q-2.1 13.1 -2.4 12.9 L-3.6 12.0 -4.5 11.1 Q-5.15 10.45 -5.35 10.4 L-5.45 10.35 -5.9 10.6 -6.0 10.95 -6.5 10.8 -6.95 11.15 -7.55 11.6 -8.25 11.8 -8.45 11.9 -8.8 12.15 -8.85 12.15 -8.9 12.2 -9.35 12.75 -9.65 13.15 -10.05 13.6 -10.45 13.85 -10.65 13.9 -10.9 13.95 -11.25 13.8 -11.35 13.75 -11.4 13.6 -11.4 13.45 -11.2 13.15 -10.7 12.7 -10.6 12.65 -9.8 12.05 -9.45 11.8 -9.05 11.5 -6.5 9.75 Q-6.0 9.1 -5.95 7.95 L-5.9 7.05 -6.0 6.95 -6.05 6.85 Q-6.45 6.3 -7.05 6.15 L-7.8 5.45 -8.1 4.5 -8.75 2.6 Q-9.3 1.35 -10.45 0.75 L-10.5 0.75 -11.7 1.45 -12.8 2.0 -13.95 2.4 -14.05 2.25 -14.15 2.15 -14.05 2.05 -13.0 1.15 -12.55 0.8 -11.3 -0.3 -10.8 -1.4 -10.5 -1.8 -10.5 -2.45 -10.25 -3.15 -9.8 -1.55 -9.7 -1.15 Q-9.55 -0.35 -9.2 0.15 L-8.7 0.7 -8.4 1.05 -7.8 1.8 -7.75 1.9 -7.65 2.15 -7.65 2.2 -7.25 2.9 -7.2 3.0" fill="#333333" fill-rule="evenodd" stroke="none"/>
      <path d="M15.8 -10.45 L16.1 -9.8 16.85 -8.25 17.25 -7.4 17.55 -7.0 17.8 -6.55 18.1 -5.1 18.5 -3.45 18.55 -3.3 18.6 -3.05 18.6 -2.9 18.75 0.6 18.5 2.9 18.3 3.7 Q18.2 2.8 17.85 2.45 L17.7 2.55 16.75 1.7 Q16.1 1.0 16.1 0.45 L16.65 -1.15 16.95 -1.0 17.55 -0.9 18.3 -1.4 17.85 -2.15 17.25 -2.55 16.85 -2.75 16.1 -3.0 15.95 -3.35 14.6 -2.1 14.45 -1.7 13.95 -1.35 Q12.35 -0.95 12.35 -0.65 L12.3 -0.4 9.95 -0.2 9.45 0.3 Q8.45 1.8 7.25 1.8 L5.95 1.5 5.25 1.7 4.95 1.0 4.9 0.8 4.85 0.75 5.1 0.6 Q5.1 -0.75 5.4 -3.35 L5.7 -4.5 5.75 -4.5 6.05 -4.9 6.6 -5.3 7.2 -5.5 7.4 -5.55 7.85 -5.65 8.0 -5.7 8.05 -5.7 9.95 -6.1 10.05 -6.15 11.4 -6.15 12.5 -4.85 13.2 -4.15 Q13.8 -3.6 13.95 -3.6 L14.1 -3.65 14.15 -3.8 14.15 -3.95 14.25 -4.35 14.25 -4.5 14.3 -4.65 14.75 -4.5 15.15 -4.5 Q15.5 -4.5 15.5 -4.65 L16.1 -5.1 16.05 -5.3 14.95 -5.65 14.55 -5.95 14.25 -6.75 13.35 -7.75 12.5 -8.7 Q12.2 -9.3 12.15 -10.7 L11.9 -12.65 12.0 -12.7 12.05 -12.7 12.5 -12.95 12.5 -13.2 13.4 -12.2 15.45 -10.05 15.7 -10.3 15.75 -10.35 15.75 -10.4 15.8 -10.45 M-14.0 12.25 L-14.65 11.6 Q-14.85 10.8 -15.15 10.35 L-16.0 9.45 -16.65 8.1 -17.1 7.0 -17.3 5.9 -17.3 4.8 -17.45 4.5 -17.4 4.4 -17.35 4.3 -17.45 4.3 -17.55 4.35 -17.55 4.3 -17.55 4.05 -17.75 2.7 -17.75 2.5 -17.8 2.25 -16.9 2.1 -16.25 1.95 -16.3 1.95 -16.05 1.85 -16.0 1.85 -15.95 1.8 -16.05 1.7 -16.65 1.45 -17.25 1.05 -17.55 0.65 -17.75 -0.45 -17.75 -0.65 -17.4 -2.65 -17.15 -3.5 -16.85 -4.25 -16.85 -4.3 Q-16.6 -4.7 -15.95 -4.85 L-15.0 -5.05 -14.5 -5.2 -14.35 -5.25 -13.9 -4.85 -13.55 -4.65 -13.25 -4.55 -11.1 -4.2 Q-11.55 -3.9 -11.25 -3.4 L-10.8 -2.45 -10.8 -1.4 -11.3 -0.3 -12.55 0.8 -13.0 1.15 -14.05 2.05 -14.15 2.15 -14.05 2.25 -14.85 2.6 -15.15 3.1 -15.3 3.6 -15.3 4.65 -15.5 5.05 -15.8 5.6 -15.75 5.85 -15.35 5.9 -14.95 5.85 Q-14.5 5.65 -14.45 4.9 L-14.45 3.6 -13.85 3.5 -12.5 3.8 -12.3 3.75 -12.15 3.65 Q-11.95 3.5 -11.75 3.5 L-9.8 3.0 -9.2 3.1 -8.7 4.1 -8.7 5.0 Q-8.1 6.0 -8.95 6.55 L-10.25 7.35 -9.5 7.65 Q-8.3 7.65 -7.8 6.6 L-7.75 6.5 -7.7 6.55 -7.05 7.1 -7.25 7.6 -7.5 8.85 Q-7.7 9.1 -9.2 9.9 L-9.45 10.1 -9.4 9.85 -10.35 10.1 -11.25 10.35 -11.5 10.7 -12.0 10.8 -12.25 10.8 -12.55 10.8 -13.05 10.8 -12.9 10.65 -12.65 10.3 -12.6 10.1 -12.65 9.85 -12.75 9.8 -13.4 9.75 -13.95 9.8 -14.15 10.1 -14.55 10.5 -14.7 10.9 -14.0 12.2 -14.0 12.25 M11.75 -15.05 L11.7 -15.05 11.65 -14.95 Q11.0 -14.85 10.7 -14.05 L10.65 -13.9 10.55 -13.5 10.5 -13.05 10.4 -11.7 10.4 -11.65 10.4 -11.4 10.4 -11.3 Q10.4 -9.3 10.65 -8.3 L8.9 -8.1 6.15 -7.8 5.85 -9.5 5.75 -9.95 5.55 -10.3 5.4 -10.55 5.2 -10.65 4.9 -10.75 4.35 -10.8 3.9 -11.25 3.45 -11.95 3.35 -12.1 3.3 -12.2 2.9 -12.9 2.0 -14.3 1.2 -15.2 1.05 -15.1 1.05 -15.15 1.05 -15.2 1.05 -15.25 1.05 -15.35 1.05 -15.5 0.85 -16.65 0.8 -16.9 0.6 -17.75 0.6 -17.85 1.05 -17.8 1.2 -17.8 2.55 -17.85 2.6 -17.85 2.7 -17.85 4.95 -17.85 5.2 -16.6 5.3 -16.1 5.7 -15.35 5.6 -15.25 5.1 -14.6 4.85 -14.3 4.05 -13.05 4.1 -12.75 4.35 -12.75 5.1 -13.6 5.45 -14.05 5.75 -14.4 6.0 -14.65 6.0 -14.7 6.1 -14.5 6.15 -14.5 6.5 -14.0 6.6 -13.9 Q7.15 -13.25 7.95 -13.25 L8.55 -13.45 8.6 -13.55 8.6 -13.6 Q8.35 -14.1 7.3 -14.5 L7.1 -14.6 6.55 -15.15 6.05 -15.75 6.0 -15.75 6.1 -16.05 6.15 -16.55 6.0 -17.25 Q5.9 -17.6 6.2 -18.0 6.35 -17.65 7.15 -17.3 L8.45 -16.8 10.35 -15.9 10.75 -15.45 Q11.05 -15.15 11.4 -15.15 L11.75 -15.15 11.75 -15.05 M-4.95 -14.15 L-6.6 -14.05 -7.0 -14.0 -7.4 -14.1 -8.15 -14.7 -8.4 -15.15 -8.45 -15.25 -8.35 -15.35 -7.55 -15.9 -5.75 -16.35 -5.0 -15.8 -4.7 -16.1 -4.7 -16.15 -4.8 -16.3 -4.85 -16.4 -5.5 -16.95 -5.85 -17.1 -4.25 -17.75 -2.45 -18.2 -2.15 -18.25 -2.1 -18.25 -0.5 -18.35 -0.2 -18.35 -0.2 -18.2 0.15 -16.75 0.2 -16.7 0.45 -15.35 -0.05 -14.7 -1.1 -13.65 -2.5 -12.15 -2.7 -11.75 -2.6 -11.45 -2.35 -11.6 -0.35 -13.3 0.25 -13.95 0.3 -13.95 0.95 -14.85 1.15 -14.3 1.25 -14.0 1.45 -13.6 1.5 -13.2 1.55 -12.95 1.55 -12.85 1.95 -12.15 2.4 -11.55 2.2 -10.35 1.95 -9.2 1.9 -8.9 1.8 -8.65 Q1.55 -8.1 0.8 -7.9 L-0.9 -7.35 Q-0.95 -7.75 -3.05 -9.0 L-3.7 -9.45 -3.8 -9.5 -4.35 -9.75 -4.95 -10.25 Q-5.5 -10.65 -5.9 -10.65 L-6.2 -10.55 -6.2 -10.3 -6.5 -10.3 -7.05 -10.2 -7.1 -10.15 -7.35 -10.0 -7.5 -10.05 -9.45 -7.65 -10.3 -5.9 Q-10.65 -5.1 -11.8 -5.1 -12.95 -5.1 -13.55 -5.4 L-13.75 -5.5 -13.9 -5.6 -13.85 -5.9 -13.85 -5.95 -13.95 -6.15 -14.2 -6.2 -14.5 -6.3 -14.7 -6.3 -15.3 -6.35 -15.7 -7.25 -15.7 -7.35 -15.8 -7.5 -15.9 -7.85 -14.85 -9.4 -14.35 -10.0 -13.2 -11.25 -12.1 -12.6 -11.85 -13.05 -11.8 -13.15 -11.75 -13.2 -11.55 -13.45 -11.35 -13.6 -10.8 -14.0 -10.75 -14.05 -8.95 -14.55 -8.9 -14.55 Q-8.7 -14.55 -8.5 -13.8 L-8.45 -13.55 -8.25 -12.45 -8.3 -11.3 -8.25 -11.0 Q-8.2 -10.55 -7.8 -10.35 L-7.5 -10.5 -7.45 -11.25 -7.4 -11.5 -7.35 -11.85 -7.3 -12.2 -7.25 -12.35 -7.25 -12.5 -7.2 -12.75 -7.2 -12.95 -7.25 -13.15 -7.25 -13.2 -7.35 -13.3 -7.25 -13.35 -7.1 -13.4 -4.95 -13.55 -4.85 -13.65 -4.8 -13.85 -4.85 -14.15 -4.9 -14.15 -4.95 -14.15 M5.25 -7.65 L5.3 -7.55 4.7 -6.85 4.05 -6.0 3.15 -7.55 3.1 -7.75 2.85 -8.55 3.05 -10.05 3.5 -10.2 4.15 -9.75 Q4.55 -9.35 4.95 -9.3 L4.95 -8.75 5.25 -7.65 M-0.5 -2.45 L0.25 -2.0 1.35 -1.65 Q3.1 -0.6 3.65 -0.6 L3.75 -0.6 3.8 0.2 4.25 1.8 Q4.7 3.0 5.1 3.5 L5.05 3.45 3.55 3.7 3.3 3.8 2.7 3.6 3.15 3.75 Q3.15 3.05 1.8 2.0 1.45 2.2 1.45 3.3 1.45 4.3 0.6 4.85 L-1.45 6.2 Q-2.6 7.0 -3.0 7.45 L-4.05 6.35 -4.95 5.0 -5.65 4.35 -5.7 4.5 Q-5.7 3.9 -4.9 3.1 L-4.1 2.1 -4.15 1.85 -4.2 1.85 -4.6 2.05 -3.6 0.75 -2.75 -0.15 -1.8 -1.05 -0.85 -2.1 -0.5 -2.45 M0.1 -5.6 L0.75 -5.85 0.9 -5.95 0.95 -6.0 1.65 -6.6 1.9 -6.85 2.05 -6.6 2.3 -6.15 2.35 -6.05 Q2.9 -5.2 2.9 -4.25 L2.85 -3.15 1.85 -3.4 0.8 -3.65 0.7 -3.65 0.45 -3.65 0.2 -3.6 0.1 -3.6 -0.45 -3.45 -0.05 -3.9 -0.1 -4.0 -0.15 -4.7 0.0 -5.4 0.05 -5.45 0.15 -5.4 0.1 -5.6 M-0.7 -3.35 L-0.8 -3.3 -0.85 -3.25 -0.9 -3.25 -1.4 -2.9 -1.85 -2.55 -3.05 -1.05 -4.7 0.55 -6.5 2.1 -6.75 1.85 -6.95 1.8 -7.2 1.85 -7.2 2.8 -7.25 2.9 -7.65 2.2 -7.65 2.15 -7.75 1.9 -7.8 1.8 -8.4 1.05 -8.7 0.7 -8.7 0.65 -8.75 0.45 -8.85 0.25 -9.15 -0.3 -9.2 -1.05 -8.9 -1.1 -8.85 -1.9 -9.15 -4.55 Q-9.15 -5.5 -8.4 -7.0 L-7.75 -8.0 -7.7 -8.05 Q-7.0 -8.85 -6.2 -8.85 L-5.65 -8.75 -4.9 -8.5 -3.95 -8.1 -3.9 -8.1 -3.45 -7.8 -2.5 -7.1 -1.4 -6.45 Q-1.15 -6.25 -1.15 -5.7 L-1.1 -4.85 -1.05 -4.05 -0.7 -3.35 M13.2 -3.5 L13.25 -3.45 13.2 -3.5 M1.35 8.75 L2.15 7.65 2.65 6.8 Q3.2 6.0 3.6 6.0 3.95 6.0 4.65 6.55 5.4 7.05 5.55 7.5 L6.15 9.3 6.6 11.1 6.75 11.45 6.35 12.0 5.75 14.25 5.2 16.05 5.5 15.5 5.4 15.5 4.35 15.8 2.1 16.05 0.45 14.45 0.0 13.15 0.15 12.15 0.6 10.55 0.65 10.4 0.65 10.3 0.8 9.85 0.8 9.8 0.85 9.55 0.95 9.0 1.2 9.0 1.35 8.75 M0.15 16.8 L0.15 16.85 0.25 16.95 0.15 17.0 0.15 16.9 0.15 16.85 0.15 16.8 M-0.3 4.4 L-0.45 4.65 -0.2 4.5 -0.3 4.4 M-4.05 8.95 L-3.85 9.25 -3.95 9.2 -4.05 9.05 -4.05 8.95 M-4.4 14.4 L-4.6 14.5 -5.0 15.1 Q-5.15 15.65 -5.8 15.8 L-6.0 15.85 -6.6 15.9 -8.05 15.65 -8.2 15.6 -9.15 15.1 -9.15 14.3 -9.1 14.05 -9.15 13.85 -9.15 13.8 -7.6 12.85 -5.9 11.75 Q-5.55 11.75 -4.1 13.2 L-2.95 14.25 -3.65 14.25 -4.4 14.4 M-3.9 15.1 L-3.8 15.1 -2.6 15.1 -2.45 15.0 -2.1 16.05 -1.7 16.9 -1.65 17.0 -1.35 17.4 -3.0 17.6 -3.05 17.6 -4.25 17.55 -4.35 16.8 -4.35 16.45 -4.35 16.35 -4.2 15.75 -3.9 15.1 M15.85 2.2 L16.6 2.65 17.3 3.0 Q16.95 3.45 16.8 4.15 L16.35 6.15 15.05 8.25 14.85 8.65 11.55 6.45 9.7 5.3 9.35 6.0 10.35 3.95 11.25 2.45 13.1 2.0 14.4 1.35 15.85 2.2 M10.85 10.65 L11.4 10.85 12.85 11.0 13.75 10.9 12.45 12.6 11.25 14.4 8.65 15.3 8.6 15.05 8.6 14.95 Q8.65 14.0 9.25 13.2 L10.85 10.65 M8.4 8.15 Q8.65 7.7 9.5 8.0 L9.6 8.7 9.6 9.05 9.65 9.1 9.55 9.2 9.15 9.6 8.9 9.9 8.85 9.6 Q8.3 9.55 8.3 8.75 L8.4 8.15" fill="#666666" fill-rule="evenodd" stroke="none"/>
      <path d="M10.75 -16.8 L10.95 -16.45 11.05 -16.3 11.1 -16.25 11.35 -15.95 11.65 -15.65 11.7 -15.3 11.75 -15.15 11.4 -15.15 Q11.05 -15.15 10.75 -15.45 L10.35 -15.9 8.45 -16.8 7.15 -17.3 Q6.35 -17.65 6.2 -18.0 5.9 -17.6 6.0 -17.25 L6.15 -16.55 6.1 -16.05 6.0 -15.75 6.05 -15.75 6.55 -15.15 7.1 -14.6 7.3 -14.5 Q8.35 -14.1 8.6 -13.6 L8.6 -13.55 8.55 -13.45 7.95 -13.25 Q7.15 -13.25 6.6 -13.9 L6.5 -14.0 6.15 -14.5 6.1 -14.5 6.0 -14.7 6.0 -14.65 5.75 -14.4 5.45 -14.05 5.1 -13.6 4.35 -12.75 4.1 -12.75 4.05 -13.05 4.85 -14.3 5.1 -14.6 5.6 -15.25 5.7 -15.35 5.3 -16.1 5.2 -16.6 4.95 -17.85 2.7 -17.85 2.6 -17.85 2.55 -17.85 1.2 -17.8 1.05 -17.8 0.6 -17.85 0.6 -17.75 0.8 -16.9 0.85 -16.65 1.05 -15.5 1.05 -15.35 1.05 -15.25 1.05 -15.2 1.05 -15.15 1.05 -15.1 0.95 -14.85 0.3 -13.95 0.25 -13.95 -0.35 -13.3 -2.35 -11.6 -2.6 -11.45 -2.7 -11.75 -2.5 -12.15 -1.1 -13.65 -0.05 -14.7 0.45 -15.35 0.2 -16.7 0.15 -16.75 -0.2 -18.2 -0.2 -18.35 -0.5 -18.35 -2.1 -18.25 -2.15 -18.25 -2.45 -18.2 -4.25 -17.75 -5.85 -17.1 -5.5 -16.95 -4.85 -16.4 -4.8 -16.3 -4.7 -16.15 -4.7 -16.1 -5.0 -15.8 -5.75 -16.35 -7.55 -15.9 -8.35 -15.35 -8.45 -15.25 -8.4 -15.15 -8.15 -14.7 -7.4 -14.1 -7.0 -14.0 -6.6 -14.05 -4.95 -14.15 -4.85 -14.15 -4.8 -13.85 -4.85 -13.65 -4.95 -13.55 -7.1 -13.4 -7.25 -13.35 -7.35 -13.35 -7.35 -13.3 -7.25 -13.2 -7.25 -13.15 -7.2 -12.95 -7.2 -12.75 -7.25 -12.5 -7.25 -12.35 -7.3 -12.2 -7.35 -11.85 -7.4 -11.5 -7.45 -11.25 -7.5 -10.5 -7.8 -10.35 Q-8.2 -10.55 -8.25 -11.0 L-8.3 -11.3 -8.25 -12.45 -8.45 -13.55 -8.5 -13.8 Q-8.7 -14.55 -8.9 -14.55 L-8.95 -14.55 -10.75 -14.05 -10.8 -14.0 -11.35 -13.6 -11.55 -13.45 -11.75 -13.2 -11.8 -13.15 -11.85 -13.05 -12.1 -12.6 -13.2 -11.25 -14.35 -10.0 -14.85 -9.4 -15.9 -7.85 -15.8 -7.5 -15.7 -7.35 -15.7 -7.25 -15.3 -6.35 -14.7 -6.3 -14.5 -6.3 -14.2 -6.2 -13.95 -6.15 -13.85 -5.95 -13.85 -5.9 -13.9 -5.6 -14.45 -5.9 -14.7 -5.85 -14.45 -5.4 -14.35 -5.25 -14.5 -5.2 -15.0 -5.05 -15.95 -4.85 Q-16.6 -4.7 -16.85 -4.3 L-16.85 -4.25 -17.15 -3.5 -17.4 -2.65 -17.75 -0.65 -17.75 -0.45 -17.55 0.65 -17.25 1.05 -16.65 1.45 -16.05 1.7 -16.0 1.85 -16.05 1.85 -16.3 1.95 -16.25 1.95 -16.9 2.1 -17.8 2.25 -17.85 1.8 -18.15 -2.2 Q-18.15 -2.9 -17.25 -5.2 L-16.4 -7.2 -16.2 -7.7 -15.35 -9.65 -14.2 -11.0 -13.65 -11.55 -13.15 -12.5 -12.95 -12.8 -12.3 -13.4 -12.15 -13.45 -11.75 -13.9 -11.4 -14.4 -11.1 -14.5 -9.9 -14.9 -9.7 -15.0 Q-9.15 -15.25 -8.7 -15.85 L-8.4 -16.25 -8.25 -16.5 -8.1 -16.5 -8.05 -16.5 -6.8 -17.25 -6.6 -17.25 -6.55 -17.25 -6.45 -17.4 -5.0 -18.25 -3.2 -18.65 -0.45 -18.8 0.0 -18.85 0.05 -18.65 0.3 -18.6 1.65 -18.45 3.8 -18.3 4.7 -18.35 5.45 -18.3 6.2 -18.35 7.0 -18.3 8.75 -17.8 8.85 -17.65 Q9.5 -16.8 10.75 -16.8 M12.05 -14.85 L12.7 -14.7 12.75 -14.7 12.9 -14.55 13.05 -14.45 13.65 -13.55 14.65 -12.45 15.0 -11.85 15.4 -11.2 15.75 -10.65 15.75 -10.55 15.7 -10.3 15.45 -10.05 13.4 -12.2 12.5 -13.2 12.5 -12.95 12.05 -12.7 12.0 -12.7 11.9 -12.65 12.15 -10.7 Q12.2 -9.3 12.5 -8.7 L13.35 -7.75 14.25 -6.75 14.55 -5.95 14.95 -5.65 16.05 -5.3 16.1 -5.1 15.5 -4.65 Q15.5 -4.5 15.15 -4.5 L14.75 -4.5 14.3 -4.65 14.25 -4.5 14.25 -4.35 14.15 -3.95 14.15 -3.8 14.1 -3.65 13.95 -3.6 Q13.8 -3.6 13.2 -4.15 L12.5 -4.85 11.4 -6.15 10.05 -6.15 9.95 -6.1 8.05 -5.7 8.0 -5.7 7.85 -5.65 7.4 -5.55 7.2 -5.5 6.6 -5.3 6.05 -4.9 5.75 -4.5 5.7 -4.5 5.4 -3.35 Q5.1 -0.75 5.1 0.6 L4.85 0.75 4.8 0.6 4.65 -0.1 4.55 -0.6 4.5 -0.95 4.5 -2.65 4.65 -5.3 5.0 -6.15 5.05 -6.2 5.15 -6.4 5.65 -7.15 5.7 -7.15 5.85 -6.5 5.9 -6.5 5.85 -6.45 5.85 -6.35 6.1 -6.45 6.55 -6.45 8.25 -6.65 9.6 -6.9 10.8 -7.25 12.1 -6.65 13.55 -4.8 13.85 -5.05 13.9 -5.05 14.15 -5.6 Q14.15 -6.25 13.1 -7.4 L12.45 -7.8 11.75 -8.25 Q11.6 -8.5 11.6 -9.3 L11.45 -10.6 11.4 -12.5 11.45 -13.25 11.5 -13.7 11.65 -14.0 11.75 -14.25 11.75 -14.3 12.05 -14.85 M-7.35 -10.0 L-7.1 -10.15 -7.05 -10.2 -6.5 -10.3 -6.2 -10.3 -6.2 -10.25 Q-4.7 -8.65 -2.0 -7.2 -0.85 -6.5 -0.7 -5.5 L-0.3 -3.95 -0.1 -4.0 -0.05 -3.9 -0.45 -3.45 -0.7 -3.35 -1.05 -4.05 -1.1 -4.85 -1.15 -5.7 Q-1.15 -6.25 -1.4 -6.45 L-2.5 -7.1 -3.45 -7.8 -3.9 -8.1 -3.95 -8.1 -4.9 -8.5 -5.65 -8.75 -6.2 -8.85 Q-7.0 -8.85 -7.7 -8.05 L-7.75 -8.0 -8.4 -7.0 Q-9.15 -5.5 -9.15 -4.55 L-8.85 -1.9 -8.9 -1.1 -9.2 -1.05 -9.2 -1.35 -9.6 -2.45 -9.75 -2.85 -9.85 -4.15 -9.85 -4.2 Q-9.7 -5.85 -8.55 -7.65 L-7.2 -9.75 -7.35 -10.0 M0.0 -6.65 L1.3 -7.35 1.35 -7.35 1.55 -7.35 1.65 -7.1 1.8 -7.15 1.75 -7.25 1.75 -7.3 1.9 -6.85 1.65 -6.6 0.95 -6.0 0.9 -5.95 0.75 -5.85 0.1 -5.6 0.0 -5.7 -0.1 -6.5 0.0 -6.65 M-16.3 -6.1 L-16.25 -6.1 -15.8 -6.25 -16.3 -6.1" fill="#808080" fill-rule="evenodd" stroke="none"/>
      <path d="M10.75 -16.8 L11.7 -16.05 14.0 -13.8 15.9 -11.15 17.15 -8.8 18.15 -6.3 19.1 -3.7 19.2 -1.4 19.05 4.2 18.95 4.9 18.45 5.7 18.1 6.4 17.9 7.05 16.35 9.8 14.9 12.65 Q13.95 14.25 12.15 15.45 L9.65 16.95 6.9 17.7 4.4 18.8 2.2 19.5 0.4 19.8 -4.7 19.2 -5.95 18.65 -6.05 18.6 -8.2 17.6 Q-10.1 16.6 -10.85 15.9 L-14.1 12.9 -15.3 11.55 -15.75 10.25 -16.25 9.45 Q-17.15 8.35 -17.45 6.75 L-17.9 3.9 -18.2 0.35 -18.35 -0.05 -18.6 -1.65 -18.2 -3.75 -17.7 -5.7 Q-17.3 -6.75 -16.7 -7.3 L-15.6 -9.9 -13.75 -12.2 -12.65 -13.95 -11.55 -14.55 -11.2 -14.65 -10.85 -14.8 -10.15 -15.45 -7.8 -17.15 Q-6.4 -18.2 -5.15 -18.55 L-4.75 -18.8 -2.45 -19.2 7.85 -18.3 Q9.15 -18.1 10.1 -17.4 L10.75 -16.8 Q9.5 -16.8 8.85 -17.65 L8.75 -17.8 7.0 -18.3 6.2 -18.35 5.45 -18.3 4.7 -18.35 3.8 -18.3 1.65 -18.45 0.3 -18.6 0.05 -18.65 0.0 -18.85 -0.45 -18.8 -3.2 -18.65 -5.0 -18.25 -6.45 -17.4 -6.8 -17.25 -8.05 -16.5 -8.1 -16.5 -8.25 -16.5 -8.4 -16.25 -8.7 -15.85 Q-9.15 -15.25 -9.7 -15.0 L-9.9 -14.9 -11.1 -14.5 -11.4 -14.4 -11.75 -13.9 -12.15 -13.45 -12.3 -13.4 -12.95 -12.8 -13.15 -12.5 -13.65 -11.55 -14.2 -11.0 -15.35 -9.65 -16.2 -7.7 -16.4 -7.2 -17.25 -5.2 Q-18.15 -2.9 -18.15 -2.2 L-17.85 1.8 -17.8 2.25 -17.75 2.5 -17.75 2.7 -17.55 4.05 -17.55 4.3 -17.55 4.35 -17.45 4.5 -17.3 4.8 -17.3 5.9 -17.1 7.0 -16.65 8.1 -16.0 9.45 -15.15 10.35 Q-14.85 10.8 -14.65 11.6 L-14.0 12.25 -13.8 12.45 -13.7 12.55 -13.55 12.7 -13.5 12.75 -13.45 12.8 -12.95 13.05 Q-12.65 13.25 -12.5 13.55 L-12.4 13.75 -11.1 14.85 -11.1 14.9 -10.65 15.55 -9.45 16.55 -9.3 16.55 -8.9 16.5 -8.9 16.55 -8.45 17.05 -7.8 17.45 -6.6 18.15 -6.5 18.2 -5.95 18.35 -5.45 18.4 -4.65 18.45 -4.5 18.5 -4.45 18.55 -4.2 18.7 -3.65 18.9 -2.8 19.0 -2.3 19.0 -1.7 19.05 -1.25 19.2 -0.15 19.1 0.05 19.1 1.25 19.05 1.8 19.05 2.3 18.95 2.3 18.9 2.35 18.85 2.45 18.9 2.55 18.9 4.4 18.4 Q5.3 17.85 6.5 17.85 L6.75 17.75 7.2 17.1 7.7 16.9 7.8 16.85 8.85 16.55 9.95 16.3 10.1 16.25 10.75 16.1 12.35 14.9 12.8 14.7 13.55 13.8 13.55 13.65 13.7 13.15 13.8 13.05 13.9 12.9 13.95 12.8 14.35 12.6 14.65 12.15 15.45 10.65 15.85 9.65 16.05 9.25 16.05 9.15 16.15 8.5 16.55 7.95 16.85 7.8 17.2 6.95 17.45 6.5 Q18.2 5.1 18.2 4.4 L18.3 3.7 18.5 2.9 18.75 0.6 18.6 -2.9 18.6 -3.05 18.55 -3.3 18.5 -3.45 18.1 -5.1 17.8 -6.55 17.55 -7.0 17.25 -7.4 16.85 -8.25 16.1 -9.8 15.8 -10.45 15.75 -10.55 15.75 -10.65 15.6 -10.95 15.4 -11.2 15.0 -11.85 15.0 -12.0 14.65 -12.45 13.65 -13.55 13.05 -14.45 12.9 -14.55 12.75 -14.7 12.7 -14.7 12.05 -14.85 11.85 -15.0 11.8 -15.05 11.75 -15.15 11.7 -15.3 11.65 -15.65 11.35 -15.95 11.1 -16.25 11.05 -16.3 10.95 -16.45 10.75 -16.8" fill="#1a1a1a" fill-rule="evenodd" stroke="none"/>
    </g>
    <g id="sprite2" transform="matrix(1.0, 0.0, 0.0, 1.0, 168.0, 67.35)">
      <use ffdec:characterId="695" height="12.8" transform="matrix(0.0, -0.1466, 0.1466, 0.0, -18.2211, -11.7648)" width="15.0" xlink:href="#shape0"/>
      <use ffdec:characterId="696" height="126.2" transform="matrix(0.0, -0.3908, 0.3908, 0.0, -52.7071, 4.3128)" width="129.3" xlink:href="#shape1"/>
      <use ffdec:characterId="695" height="12.8" transform="matrix(0.0869, -0.1505, 0.1505, 0.0869, 2.2651, -9.547)" width="15.0" xlink:href="#shape0"/>
      <use ffdec:characterId="696" height="126.2" transform="matrix(0.2316, -0.401, 0.401, 0.2316, -42.6769, -13.4842)" width="129.3" xlink:href="#shape1"/>
      <use ffdec:characterId="695" height="12.8" transform="matrix(-0.084, -0.1122, 0.1122, -0.084, 31.9708, -21.6139)" width="15.0" xlink:href="#shape0"/>
      <use ffdec:characterId="696" height="126.2" transform="matrix(-0.224, -0.2992, 0.2992, -0.224, 14.8034, 10.4802)" width="129.3" xlink:href="#shape1"/>
      <use ffdec:characterId="695" height="12.8" transform="matrix(0.0, -0.1879, 0.1879, 0.0, 53.2985, -8.0625)" width="15.0" xlink:href="#shape0"/>
      <use ffdec:characterId="696" height="126.2" transform="matrix(0.0, -0.5009, 0.5009, 0.0, 9.0951, 12.5312)" width="129.3" xlink:href="#shape1"/>
      <use ffdec:characterId="695" height="12.8" transform="matrix(0.0756, -0.1309, 0.1309, 0.0756, 62.2148, 4.2135)" width="15.0" xlink:href="#shape0"/>
      <use ffdec:characterId="696" height="126.2" transform="matrix(0.2015, -0.3489, 0.3489, 0.2015, 23.1094, 0.7946)" width="129.3" xlink:href="#shape1"/>
      <use ffdec:characterId="695" height="12.8" transform="matrix(-0.124, -0.124, 0.124, -0.124, -25.5267, -13.1021)" width="15.0" xlink:href="#shape0"/>
      <use ffdec:characterId="696" height="126.2" transform="matrix(-0.3305, -0.3305, 0.3305, -0.3305, -41.0878, 29.6682)" width="129.3" xlink:href="#shape1"/>
      <use ffdec:characterId="695" height="12.8" transform="matrix(0.14, 0.0, 0.0, 0.14, -53.9219, 0.389)" width="15.0" xlink:href="#shape0"/>
      <use ffdec:characterId="696" height="126.2" transform="matrix(0.3733, 0.0, 0.0, 0.3733, -69.2823, -32.5537)" width="129.3" xlink:href="#shape1"/>
      <use ffdec:characterId="695" height="12.8" transform="matrix(0.0, -0.1681, 0.1681, 0.0, -40.7275, 18.1416)" width="15.0" xlink:href="#shape0"/>
      <use ffdec:characterId="696" height="126.2" transform="matrix(0.0, -0.4482, 0.4482, 0.0, -80.2783, 36.5729)" width="129.3" xlink:href="#shape1"/>
      <use ffdec:characterId="695" height="12.8" transform="matrix(0.2097, 0.0, 0.0, 0.2097, -47.9141, 34.0636)" width="15.0" xlink:href="#shape0"/>
      <use ffdec:characterId="696" height="126.2" transform="matrix(0.5591, 0.0, 0.0, 0.5591, -70.8966, -15.28)" width="129.3" xlink:href="#shape1"/>
      <use ffdec:characterId="695" height="12.8" transform="matrix(-0.0468, -0.1745, 0.1745, -0.0468, -12.5503, 36.6105)" width="15.0" xlink:href="#shape0"/>
      <use ffdec:characterId="696" height="126.2" transform="matrix(-0.1247, -0.4653, 0.4653, -0.1247, -48.4991, 66.7461)" width="129.3" xlink:href="#shape1"/>
      <use ffdec:characterId="695" height="12.8" transform="matrix(0.2097, 0.0, 0.0, 0.2097, 33.1359, 18.7636)" width="15.0" xlink:href="#shape0"/>
      <use ffdec:characterId="696" height="126.2" transform="matrix(0.5591, 0.0, 0.0, 0.5591, 10.1534, -30.58)" width="129.3" xlink:href="#shape1"/>
      <use ffdec:characterId="695" height="12.8" transform="matrix(0.0452, -0.1687, 0.1687, 0.0452, 58.0119, 27.6547)" width="15.0" xlink:href="#shape0"/>
      <use ffdec:characterId="696" height="126.2" transform="matrix(0.1204, -0.4496, 0.4496, 0.1204, 13.3959, 35.5151)" width="129.3" xlink:href="#shape1"/>
      <use ffdec:characterId="695" height="12.8" transform="matrix(0.1811, 0.1045, -0.1045, 0.1811, 9.5849, 30.2052)" width="15.0" xlink:href="#shape0"/>
      <use ffdec:characterId="696" height="126.2" transform="matrix(0.4827, 0.2786, -0.2786, 0.4827, 14.3279, -23.8684)" width="129.3" xlink:href="#shape1"/>
      <use ffdec:characterId="695" height="12.8" transform="matrix(0.0, -0.2388, 0.2388, 0.0, 18.4615, 43.6944)" width="15.0" xlink:href="#shape0"/>
      <use ffdec:characterId="696" height="126.2" transform="matrix(0.0, -0.6366, 0.6366, 0.0, -37.7164, 69.903)" width="129.3" xlink:href="#shape1"/>
    </g>
    <g id="text0" transform="matrix(1.0, 0.0, 0.0, 1.0, -56.55, 0.0)">
      <g transform="matrix(1.0, 0.0, 0.0, 1.0, 55.0, 0.0)">
        <use fill="#ffcc00" height="10.4" transform="matrix(0.0098, 0.0, 0.0, 0.0098, 0.0, 9.0)" width="48.7" xlink:href="#font_Lithos_Pro_Regular_10"/>
        <use fill="#ffcc00" height="10.4" transform="matrix(0.0098, 0.0, 0.0, 0.0098, 7.05, 9.0)" width="48.7" xlink:href="#font_Lithos_Pro_Regular_.0"/>
        <use fill="#ffcc00" height="10.4" transform="matrix(0.0098, 0.0, 0.0, 0.0098, 12.75, 9.0)" width="48.7" xlink:href="#font_Lithos_Pro_Regular_L0"/>
        <use fill="#ffcc00" height="10.4" transform="matrix(0.0098, 0.0, 0.0, 0.0098, 18.1, 9.0)" width="48.7" xlink:href="#font_Lithos_Pro_Regular_a0"/>
        <use fill="#ffcc00" height="10.4" transform="matrix(0.0098, 0.0, 0.0, 0.0098, 25.2, 9.0)" width="48.7" xlink:href="#font_Lithos_Pro_Regular_n0"/>
        <use fill="#ffcc00" height="10.4" transform="matrix(0.0098, 0.0, 0.0, 0.0098, 33.25, 9.0)" width="48.7" xlink:href="#font_Lithos_Pro_Regular_d0"/>
        <use fill="#ffcc00" height="10.4" transform="matrix(0.0098, 0.0, 0.0, 0.0098, 40.45, 9.0)" width="48.7" xlink:href="#font_Lithos_Pro_Regular_s0"/>
      </g>
    </g>
    <g id="font_Lithos_Pro_Regular_10">
      <path d="M434.0 0.0 L338.0 0.0 Q338.0 -14.0 339.5 -57.5 341.0 -100.5 342.5 -162.0 344.0 -224.0 344.0 -294.0 L344.0 -559.0 Q328.5 -540.5 301.5 -513.5 275.0 -486.5 248.0 -460.0 221.5 -434.0 206.0 -417.5 L159.5 -473.0 Q166.5 -479.0 193.0 -504.0 220.0 -528.5 257.0 -563.5 294.5 -598.5 332.0 -634.5 370.0 -670.5 398.5 -698.0 427.5 -726.0 437.0 -737.0 L440.0 -737.0 Q440.0 -719.0 438.0 -673.0 436.0 -626.5 434.0 -562.5 432.0 -499.0 432.0 -429.0 L432.0 -271.5 Q432.0 -160.5 432.0 -92.5 432.0 -24.0 434.0 0.0" fill-rule="evenodd" stroke="none"/>
    </g>
    <g id="font_Lithos_Pro_Regular_.0">
      <path d="M81.0 0.0 L81.0 -113.5 195.5 -113.5 195.5 0.0 81.0 0.0" fill-rule="evenodd" stroke="none"/>
    </g>
    <g id="font_Lithos_Pro_Regular_L0">
      <path d="M149.5 -716.5 L253.5 -716.5 Q252.0 -707.0 250.5 -670.0 249.0 -633.0 248.0 -580.0 247.0 -527.0 246.0 -469.5 245.5 -412.5 245.5 -363.0 L245.5 -73.5 Q259.0 -73.5 297.5 -73.5 336.5 -74.0 388.0 -74.5 439.0 -75.5 489.0 -77.5 L489.0 10.5 Q483.5 10.5 450.5 9.5 417.0 8.5 369.5 7.0 321.5 5.5 273.5 4.0 225.0 2.0 189.5 1.0 154.0 0.0 145.5 0.0 148.0 -17.0 149.5 -49.5 151.0 -82.0 152.0 -121.0 152.5 -160.5 153.0 -198.0 153.5 -235.5 153.5 -262.5 153.5 -289.5 153.5 -297.5 L153.5 -434.0 Q153.5 -439.5 153.5 -467.5 153.0 -495.5 152.5 -535.0 152.5 -574.0 152.0 -613.5 151.0 -652.5 150.5 -681.0 150.0 -709.5 149.5 -716.5" fill-rule="evenodd" stroke="none"/>
    </g>
    <g id="font_Lithos_Pro_Regular_a0">
      <path d="M226.5 -255.0 L476.5 -265.0 Q473.0 -271.5 460.0 -295.0 447.5 -318.5 430.0 -350.5 412.5 -382.5 395.0 -414.0 378.0 -445.5 365.0 -468.0 352.5 -490.5 349.5 -495.5 345.0 -488.5 332.5 -464.0 319.5 -439.5 303.0 -406.0 286.0 -373.0 269.5 -340.0 253.0 -307.0 241.0 -283.5 229.5 -260.0 226.5 -255.0 M93.5 18.5 L14.5 -26.5 Q27.5 -49.5 55.0 -100.0 83.0 -150.5 119.0 -216.5 155.0 -283.0 193.5 -353.0 231.5 -423.5 265.0 -485.0 299.0 -547.0 322.0 -589.0 345.0 -630.5 350.5 -640.0 L352.5 -640.0 Q376.5 -601.5 414.5 -538.0 452.0 -474.0 496.0 -399.0 540.0 -323.5 582.5 -250.0 625.5 -176.5 660.0 -119.0 694.0 -61.0 713.0 -32.5 L630.0 17.5 Q623.0 4.0 605.5 -28.5 587.5 -61.0 566.5 -99.0 545.5 -137.0 529.0 -166.5 512.0 -196.0 508.0 -202.5 L191.5 -190.5 Q186.5 -179.0 173.0 -150.5 159.5 -121.5 143.5 -86.5 127.0 -52.0 113.0 -23.0 99.0 6.5 93.5 18.5" fill-rule="evenodd" stroke="none"/>
    </g>
    <g id="font_Lithos_Pro_Regular_n0">
      <path d="M197.5 6.0 L103.5 0.0 Q105.0 -17.5 107.5 -64.0 110.5 -111.0 114.0 -176.0 117.5 -241.0 121.5 -313.0 125.0 -384.5 128.5 -451.5 132.0 -519.0 134.5 -569.5 137.0 -620.5 138.0 -644.0 L143.5 -644.0 Q151.0 -636.0 186.5 -600.0 221.5 -564.0 274.0 -511.5 326.0 -459.0 383.5 -400.5 441.5 -342.5 493.5 -290.0 546.0 -237.0 581.5 -201.5 617.5 -165.5 625.5 -157.5 625.5 -165.0 625.5 -198.0 626.0 -231.5 626.0 -280.5 626.5 -329.5 626.5 -384.0 627.0 -438.5 627.5 -488.0 627.5 -537.5 628.0 -571.5 628.5 -605.5 628.5 -613.5 L719.5 -609.5 Q718.5 -593.0 715.5 -545.0 713.0 -497.5 710.0 -429.0 707.0 -360.5 703.5 -282.0 700.5 -204.0 698.0 -126.0 695.5 -48.0 694.0 18.5 L690.0 18.5 Q682.5 11.5 645.5 -24.5 608.5 -61.0 554.5 -114.5 500.5 -168.5 441.0 -227.5 381.5 -286.5 329.0 -339.5 276.0 -392.0 241.5 -426.5 207.5 -461.0 203.5 -465.0 L201.5 -465.0 Q202.0 -460.0 202.0 -426.5 201.5 -393.0 201.0 -342.0 200.5 -291.0 200.0 -234.0 199.0 -177.0 198.5 -125.0 198.0 -73.5 197.5 -37.5 197.0 -2.0 197.5 6.0" fill-rule="evenodd" stroke="none"/>
    </g>
    <g id="font_Lithos_Pro_Regular_d0">
      <path d="M223.0 -541.0 L223.0 -72.0 Q316.5 -78.5 387.0 -105.5 457.0 -132.0 503.5 -172.5 550.0 -212.5 573.0 -260.0 596.0 -307.5 596.0 -355.5 595.5 -422.5 551.5 -464.0 507.5 -506.0 424.0 -524.5 340.5 -543.5 223.0 -541.0 M135.0 -275.5 L135.0 -383.5 Q135.0 -389.5 135.0 -411.5 134.5 -433.5 134.5 -464.0 134.0 -494.0 133.5 -524.5 133.0 -555.0 132.0 -578.5 131.0 -601.5 130.0 -609.5 157.0 -609.5 195.0 -609.5 233.0 -609.5 275.5 -608.5 318.5 -607.5 359.5 -604.5 472.5 -595.0 539.5 -567.5 606.0 -540.0 638.5 -504.0 671.0 -468.5 681.0 -434.0 691.0 -399.5 690.0 -376.0 689.0 -292.5 655.0 -229.5 621.0 -166.5 563.0 -122.0 505.0 -77.5 432.0 -49.5 359.5 -22.0 281.0 -9.0 203.0 4.0 129.0 4.0 130.0 -9.0 131.0 -38.5 132.0 -67.5 133.0 -105.0 133.5 -142.5 134.0 -178.5 134.5 -215.0 135.0 -241.5 135.0 -268.0 135.0 -275.5" fill-rule="evenodd" stroke="none"/>
    </g>
    <g id="font_Lithos_Pro_Regular_s0">
      <path d="M131.0 16.5 L107.5 -55.5 Q143.5 -62.0 180.5 -73.0 218.0 -83.5 250.0 -99.0 281.5 -114.5 301.5 -135.0 321.0 -155.0 321.5 -181.5 321.5 -214.0 297.0 -235.5 272.5 -257.0 222.0 -280.5 161.0 -309.0 123.0 -341.0 85.0 -373.5 84.0 -420.0 84.5 -456.5 108.5 -490.0 132.0 -523.0 171.5 -550.5 211.0 -578.0 259.5 -597.5 308.0 -617.0 358.5 -626.0 L377.5 -554.0 Q354.0 -551.0 321.0 -542.5 288.0 -533.5 255.0 -519.5 222.5 -505.0 200.5 -484.0 179.0 -462.5 178.0 -434.5 179.0 -411.0 196.5 -394.5 214.5 -377.5 239.0 -365.0 264.0 -352.0 284.5 -341.0 320.5 -322.0 350.0 -304.0 380.0 -285.5 398.0 -261.5 416.0 -237.5 416.5 -202.0 416.0 -156.0 383.0 -113.5 349.5 -70.5 286.0 -36.5 222.5 -2.5 131.0 16.5" fill-rule="evenodd" stroke="none"/>
    </g>
    <g id="text1" transform="matrix(1.0, 0.0, 0.0, 1.0, -55.7, 0.0)">
      <g transform="matrix(1.0, 0.0, 0.0, 1.0, 55.0, 0.0)">
        <use fill="#ffcc00" height="10.4" transform="matrix(0.0098, 0.0, 0.0, 0.0098, 0.0, 9.0)" width="98.85" xlink:href="#font_Lithos_Pro_Regular_20"/>
        <use fill="#ffcc00" height="10.4" transform="matrix(0.0098, 0.0, 0.0, 0.0098, 7.05, 9.0)" width="98.85" xlink:href="#font_Lithos_Pro_Regular_.0"/>
        <use fill="#ffcc00" height="10.4" transform="matrix(0.0098, 0.0, 0.0, 0.0098, 12.75, 9.0)" width="98.85" xlink:href="#font_Lithos_Pro_Regular_P0"/>
        <use fill="#ffcc00" height="10.4" transform="matrix(0.0098, 0.0, 0.0, 0.0098, 18.9, 9.0)" width="98.85" xlink:href="#font_Lithos_Pro_Regular_u0"/>
        <use fill="#ffcc00" height="10.4" transform="matrix(0.0098, 0.0, 0.0, 0.0098, 26.3, 9.0)" width="98.85" xlink:href="#font_Lithos_Pro_Regular_s0"/>
        <use fill="#ffcc00" height="10.4" transform="matrix(0.0098, 0.0, 0.0, 0.0098, 31.1, 9.0)" width="98.85" xlink:href="#font_Lithos_Pro_Regular_h0"/>
        <use fill="#ffcc00" height="10.4" transform="matrix(0.0098, 0.0, 0.0, 0.0098, 39.35, 9.0)" width="98.85" xlink:href="#font_Lithos_Pro_Regular_e0"/>
        <use fill="#ffcc00" height="10.4" transform="matrix(0.0098, 0.0, 0.0, 0.0098, 44.65, 9.0)" width="98.85" xlink:href="#font_Lithos_Pro_Regular_s0"/>
        <use fill="#ffcc00" height="10.4" transform="matrix(0.0098, 0.0, 0.0, 0.0098, 52.45, 9.0)" width="98.85" xlink:href="#font_Lithos_Pro_Regular_E0"/>
        <use fill="#ffcc00" height="10.4" transform="matrix(0.0098, 0.0, 0.0, 0.0098, 58.2, 9.0)" width="98.85" xlink:href="#font_Lithos_Pro_Regular_n0"/>
        <use fill="#ffcc00" height="10.4" transform="matrix(0.0098, 0.0, 0.0, 0.0098, 66.25, 9.0)" width="98.85" xlink:href="#font_Lithos_Pro_Regular_e0"/>
        <use fill="#ffcc00" height="10.4" transform="matrix(0.0098, 0.0, 0.0, 0.0098, 71.55, 9.0)" width="98.85" xlink:href="#font_Lithos_Pro_Regular_m0"/>
        <use fill="#ffcc00" height="10.4" transform="matrix(0.0098, 0.0, 0.0, 0.0098, 80.95, 9.0)" width="98.85" xlink:href="#font_Lithos_Pro_Regular_i0"/>
        <use fill="#ffcc00" height="10.4" transform="matrix(0.0098, 0.0, 0.0, 0.0098, 84.45, 9.0)" width="98.85" xlink:href="#font_Lithos_Pro_Regular_e0"/>
        <use fill="#ffcc00" height="10.4" transform="matrix(0.0098, 0.0, 0.0, 0.0098, 89.75, 9.0)" width="98.85" xlink:href="#font_Lithos_Pro_Regular_s0"/>
      </g>
    </g>
    <g id="font_Lithos_Pro_Regular_20">
      <path d="M574.5 -79.5 L574.5 8.5 Q564.0 7.5 524.5 6.0 485.0 5.0 428.0 3.5 371.0 2.5 308.5 1.5 246.0 0.5 189.5 0.0 L73.5 0.0 71.5 -10.0 Q124.5 -45.5 186.0 -93.0 248.0 -140.5 304.5 -196.5 360.5 -253.0 396.5 -314.0 433.0 -375.0 434.0 -437.0 433.5 -490.5 406.5 -530.0 380.0 -569.0 337.0 -595.0 294.0 -621.0 245.0 -634.5 195.5 -648.0 149.5 -650.0 L168.0 -734.0 Q284.5 -719.5 366.0 -677.5 447.5 -635.5 490.5 -575.0 533.0 -515.0 533.5 -446.0 532.5 -384.0 504.5 -328.0 477.0 -272.0 434.5 -224.5 392.5 -176.5 347.5 -138.0 303.0 -100.0 268.0 -72.5 L269.0 -68.5 574.5 -79.5" fill-rule="evenodd" stroke="none"/>
    </g>
    <g id="font_Lithos_Pro_Regular_P0">
      <path d="M243.5 -640.5 L243.5 -285.5 Q308.5 -299.0 359.0 -326.0 409.5 -353.0 438.5 -394.0 467.5 -435.0 468.0 -491.0 469.0 -503.5 462.0 -527.0 455.5 -550.5 433.5 -576.0 411.5 -602.0 366.0 -620.5 320.5 -638.5 243.5 -640.5 M245.5 0.0 L149.5 0.0 Q150.0 -14.0 150.5 -47.5 151.5 -81.5 152.0 -126.0 153.0 -170.5 153.5 -216.5 154.0 -263.0 154.0 -302.0 154.5 -340.5 154.5 -363.5 L154.5 -476.0 Q154.5 -483.5 154.0 -508.5 154.0 -533.0 153.5 -566.5 153.0 -599.5 152.5 -632.0 152.0 -664.5 152.0 -688.0 151.5 -711.0 151.5 -716.5 173.5 -716.5 206.5 -715.0 239.0 -714.0 275.5 -711.0 311.5 -708.0 344.0 -703.0 448.0 -686.0 507.0 -637.0 566.5 -588.0 567.5 -506.5 567.0 -436.0 526.5 -377.0 486.5 -318.0 414.0 -276.0 341.5 -234.0 243.5 -214.0 L243.5 -153.5 Q243.5 -145.0 243.5 -124.0 243.5 -102.5 243.5 -77.0 244.0 -51.5 244.5 -30.0 245.0 -9.0 245.5 0.0" fill-rule="evenodd" stroke="none"/>
    </g>
    <g id="font_Lithos_Pro_Regular_u0">
      <path d="M184.5 -462.0 L184.5 -403.5 Q184.5 -333.5 188.0 -285.0 191.5 -237.0 201.0 -202.5 210.0 -168.0 227.5 -140.0 254.5 -96.5 293.0 -76.0 332.0 -55.5 382.0 -56.0 441.5 -57.0 478.5 -80.0 516.0 -103.5 538.5 -139.0 559.5 -171.0 569.0 -216.0 578.5 -261.0 580.5 -318.5 583.0 -376.0 582.5 -444.5 L582.5 -474.5 Q582.5 -520.0 580.5 -557.0 578.5 -594.0 577.5 -619.0 L670.5 -619.0 Q670.5 -603.5 671.0 -564.5 671.5 -525.5 671.5 -473.5 L671.5 -432.5 Q672.0 -349.0 665.5 -284.5 659.5 -219.5 642.0 -169.0 624.0 -118.5 589.5 -78.5 549.0 -31.0 496.0 -8.5 443.5 14.5 369.5 14.5 344.0 15.0 307.0 9.0 269.5 3.0 230.0 -19.5 190.5 -42.0 157.0 -90.0 141.0 -113.5 129.0 -141.0 117.5 -169.0 110.0 -207.0 102.5 -245.5 99.0 -300.5 95.5 -355.5 95.5 -434.5 L95.5 -481.5 Q95.5 -502.0 96.0 -527.0 96.0 -551.5 96.5 -573.0 96.5 -595.0 96.5 -605.5 L188.5 -605.5 Q187.5 -589.5 186.0 -555.5 184.5 -521.5 184.5 -462.0" fill-rule="evenodd" stroke="none"/>
    </g>
    <g id="font_Lithos_Pro_Regular_h0">
      <path d="M228.0 0.0 L132.0 0.0 Q132.5 -12.0 133.0 -40.0 133.5 -67.5 134.0 -103.0 134.5 -138.0 134.5 -172.0 135.0 -206.5 135.0 -231.5 135.0 -256.5 135.0 -264.0 L135.0 -358.0 Q135.0 -363.0 134.5 -388.0 134.5 -412.5 134.0 -447.0 133.5 -481.5 132.5 -516.5 132.0 -551.5 131.0 -577.0 130.5 -602.5 130.0 -609.5 L229.0 -609.5 Q228.5 -604.0 228.0 -583.0 227.0 -562.5 226.5 -533.5 225.5 -504.5 225.0 -476.0 224.5 -447.0 224.5 -426.0 224.0 -405.0 224.0 -400.0 L224.0 -336.5 618.5 -352.5 618.5 -418.5 Q618.5 -425.0 618.0 -451.5 618.0 -478.5 617.5 -512.0 617.0 -546.0 616.5 -573.5 616.0 -601.0 615.5 -609.5 L714.5 -609.5 Q714.0 -602.5 713.0 -574.5 712.0 -547.0 711.0 -509.0 710.5 -471.0 709.5 -432.5 708.5 -394.5 708.0 -367.0 707.5 -339.0 707.5 -332.0 L707.5 -245.5 Q707.5 -241.5 707.5 -217.0 708.0 -193.0 708.5 -159.0 708.5 -124.5 709.0 -90.0 710.0 -56.0 710.5 -31.0 711.0 -6.0 711.5 0.0 L613.5 0.0 Q614.5 -12.0 615.5 -41.5 616.5 -71.0 617.0 -105.0 618.0 -139.5 618.0 -166.5 618.5 -193.5 618.5 -200.5 L618.5 -288.5 224.0 -272.0 224.0 -219.0 Q224.0 -203.5 224.5 -171.0 225.0 -139.0 225.5 -102.5 226.5 -66.0 227.0 -37.5 227.5 -8.5 228.0 0.0" fill-rule="evenodd" stroke="none"/>
    </g>
    <g id="font_Lithos_Pro_Regular_e0">
      <path d="M458.5 -68.5 L461.5 9.5 Q451.5 9.5 417.0 8.5 383.0 7.5 337.5 6.0 292.0 5.0 247.0 3.5 202.0 2.0 170.5 1.0 138.5 0.0 132.0 0.0 133.0 -18.5 133.5 -56.0 134.5 -93.5 134.5 -136.0 135.0 -178.0 135.0 -211.0 135.0 -244.0 135.0 -252.5 L135.0 -368.5 Q135.0 -373.5 135.0 -397.5 134.5 -421.5 134.0 -454.5 134.0 -488.0 133.5 -521.5 133.0 -555.0 132.5 -579.5 132.5 -603.5 132.0 -609.5 139.5 -609.5 168.5 -611.0 197.5 -612.0 238.0 -614.5 278.5 -616.5 320.0 -618.5 362.0 -621.0 395.0 -623.0 428.5 -625.0 443.0 -626.0 L447.0 -552.0 Q431.0 -552.0 397.5 -551.5 364.0 -551.0 326.5 -550.0 288.5 -549.0 259.5 -548.5 231.0 -548.0 224.0 -548.0 L224.0 -334.5 Q231.0 -334.5 253.5 -335.0 276.0 -336.0 305.5 -337.0 335.5 -338.5 365.0 -340.0 394.5 -342.0 416.5 -343.5 L419.5 -269.0 Q407.0 -269.0 378.5 -269.5 350.5 -270.0 317.0 -271.0 284.5 -271.0 258.5 -271.5 232.5 -272.0 224.0 -272.0 L224.0 -65.5 Q233.0 -65.5 258.0 -65.0 283.0 -65.0 317.0 -65.0 351.5 -65.0 388.5 -66.0 425.5 -66.5 458.5 -68.5" fill-rule="evenodd" stroke="none"/>
    </g>
    <g id="font_Lithos_Pro_Regular_E0">
      <path d="M491.0 -77.5 L495.5 10.5 Q489.5 10.5 455.0 9.5 421.0 8.5 372.5 7.0 324.5 5.5 276.0 4.0 227.5 2.0 192.5 1.0 157.5 0.0 150.5 0.0 151.5 -17.0 152.0 -49.5 152.5 -82.0 153.0 -121.5 153.0 -160.5 153.5 -198.0 153.5 -235.5 153.5 -262.5 153.5 -289.0 153.5 -297.0 L153.5 -434.0 Q153.5 -440.0 153.5 -468.0 153.0 -496.0 152.5 -535.0 152.5 -574.0 152.0 -613.5 151.5 -652.5 151.0 -681.0 151.0 -710.0 150.5 -716.5 159.0 -716.5 190.5 -718.0 222.0 -719.5 266.0 -722.0 309.5 -724.5 353.5 -727.5 397.5 -730.0 431.0 -732.5 464.0 -734.5 475.0 -736.0 L479.0 -655.0 Q465.5 -655.0 431.0 -654.0 396.5 -653.5 356.0 -652.5 315.5 -651.5 284.5 -650.5 253.0 -650.0 245.5 -650.0 L245.5 -390.0 Q253.0 -390.0 277.5 -391.0 301.5 -391.5 333.5 -393.5 365.0 -395.0 395.5 -397.0 425.5 -399.0 445.0 -401.0 L448.0 -320.5 Q438.5 -320.5 410.0 -321.0 381.0 -322.0 346.0 -322.5 311.0 -323.5 282.5 -324.0 254.0 -324.5 245.5 -324.5 L245.5 -74.5 Q255.5 -74.5 282.5 -74.0 309.5 -73.5 346.0 -73.5 382.5 -73.5 421.0 -74.5 459.0 -75.5 491.0 -77.5" fill-rule="evenodd" stroke="none"/>
    </g>
    <g id="font_Lithos_Pro_Regular_m0">
      <path d="M115.0 22.5 L31.0 -4.0 Q35.5 -14.5 51.5 -61.5 68.0 -108.0 91.0 -176.5 114.5 -245.0 140.0 -320.0 165.0 -395.0 187.5 -462.0 210.0 -529.0 224.5 -573.0 239.0 -617.5 241.0 -624.0 L245.0 -624.0 Q254.0 -606.5 276.0 -563.5 298.5 -521.0 327.5 -465.5 356.5 -410.5 385.5 -355.5 414.5 -300.5 437.0 -259.0 459.5 -217.0 468.0 -201.0 477.5 -216.5 502.5 -258.5 527.5 -300.0 560.0 -354.0 592.0 -408.0 623.5 -460.5 655.0 -513.0 677.5 -550.5 700.0 -588.0 705.5 -597.5 L708.5 -597.5 Q716.0 -579.0 732.5 -535.5 749.0 -492.5 771.5 -434.0 793.5 -375.5 818.0 -311.5 842.5 -247.5 865.5 -187.0 889.0 -127.0 907.0 -80.0 925.0 -33.0 935.0 -9.5 L850.0 22.5 Q843.0 1.5 826.0 -47.0 809.5 -95.5 787.5 -156.5 766.0 -218.0 745.0 -277.0 724.0 -336.5 708.5 -379.5 693.5 -422.0 689.5 -433.5 680.0 -418.0 657.5 -381.5 635.5 -345.5 606.5 -298.0 577.5 -250.5 548.0 -202.0 518.5 -153.5 494.5 -114.5 470.5 -75.5 458.0 -55.5 L456.0 -55.5 Q436.0 -93.0 408.0 -144.5 380.5 -196.5 351.0 -252.5 321.5 -308.0 295.5 -356.5 270.0 -405.0 254.0 -435.5 250.0 -421.0 239.0 -385.0 228.0 -349.0 213.0 -300.0 198.0 -251.5 182.0 -199.0 166.0 -146.5 151.5 -99.0 137.0 -52.0 127.5 -19.5 117.5 13.5 115.0 22.5" fill-rule="evenodd" stroke="none"/>
    </g>
    <g id="font_Lithos_Pro_Regular_i0">
      <path d="M224.0 -357.5 L224.0 -263.5 Q224.0 -230.0 224.5 -188.5 225.0 -147.0 225.5 -106.5 226.5 -66.5 227.0 -37.5 227.5 -8.5 228.0 0.0 L132.0 0.0 Q132.5 -12.0 133.0 -40.0 133.5 -67.5 134.0 -103.0 134.5 -138.0 134.5 -172.5 135.0 -207.0 135.0 -232.0 135.0 -257.0 135.0 -264.5 L135.0 -358.5 Q135.0 -364.0 134.5 -388.5 134.5 -413.0 134.0 -447.5 133.5 -482.0 132.5 -516.5 132.0 -551.5 131.0 -577.0 130.5 -602.5 130.0 -609.5 L229.0 -609.5 Q228.5 -603.0 227.5 -578.5 226.5 -553.5 226.0 -517.0 225.0 -480.5 224.5 -439.0 224.0 -397.0 224.0 -357.5" fill-rule="evenodd" stroke="none"/>
    </g>
    <g id="text2" transform="matrix(1.0, 0.0, 0.0, 1.0, -56.4, 0.0)">
      <g transform="matrix(1.0, 0.0, 0.0, 1.0, 55.0, 0.0)">
        <use fill="#ffcc00" height="10.45" transform="matrix(0.0098, 0.0, 0.0, 0.0098, 0.0, 9.0)" width="63.95" xlink:href="#font_Lithos_Pro_Regular_30"/>
        <use fill="#ffcc00" height="10.45" transform="matrix(0.0098, 0.0, 0.0, 0.0098, 7.05, 9.0)" width="63.95" xlink:href="#font_Lithos_Pro_Regular_.0"/>
        <use fill="#ffcc00" height="10.45" transform="matrix(0.0098, 0.0, 0.0, 0.0098, 12.75, 9.0)" width="63.95" xlink:href="#font_Lithos_Pro_Regular_E0"/>
        <use fill="#ffcc00" height="10.45" transform="matrix(0.0098, 0.0, 0.0, 0.0098, 18.5, 9.0)" width="63.95" xlink:href="#font_Lithos_Pro_Regular_x0"/>
        <use fill="#ffcc00" height="10.45" transform="matrix(0.0098, 0.0, 0.0, 0.0098, 25.1, 9.0)" width="63.95" xlink:href="#font_Lithos_Pro_Regular_p0"/>
        <use fill="#ffcc00" height="10.45" transform="matrix(0.0098, 0.0, 0.0, 0.0098, 30.7, 9.0)" width="63.95" xlink:href="#font_Lithos_Pro_Regular_l0"/>
        <use fill="#ffcc00" height="10.45" transform="matrix(0.0098, 0.0, 0.0, 0.0098, 35.5, 9.0)" width="63.95" xlink:href="#font_Lithos_Pro_Regular_o0"/>
        <use fill="#ffcc00" height="10.45" transform="matrix(0.0098, 0.0, 0.0, 0.0098, 43.15, 9.0)" width="63.95" xlink:href="#font_Lithos_Pro_Regular_d0"/>
        <use fill="#ffcc00" height="10.45" transform="matrix(0.0098, 0.0, 0.0, 0.0098, 50.25, 9.0)" width="63.95" xlink:href="#font_Lithos_Pro_Regular_e0"/>
        <use fill="#ffcc00" height="10.45" transform="matrix(0.0098, 0.0, 0.0, 0.0098, 55.55, 9.0)" width="63.95" xlink:href="#font_Lithos_Pro_Regular_s0"/>
      </g>
    </g>
    <g id="font_Lithos_Pro_Regular_30">
      <path d="M192.5 -660.5 L205.0 -739.5 Q250.5 -737.0 303.5 -723.5 356.0 -710.5 404.0 -686.0 452.0 -661.5 482.5 -626.5 513.0 -591.5 514.0 -546.0 513.0 -509.0 492.5 -475.5 472.5 -442.5 443.0 -417.5 414.0 -392.5 387.0 -381.0 L387.0 -379.0 Q427.5 -369.0 461.0 -349.5 495.0 -330.0 515.5 -300.0 536.0 -270.5 536.5 -229.5 535.5 -177.0 502.5 -131.5 469.5 -86.5 413.5 -51.5 358.0 -17.0 290.0 3.0 221.5 23.0 150.5 25.5 L144.5 -57.5 Q189.0 -54.5 238.5 -63.5 288.0 -72.5 332.0 -93.5 376.0 -114.5 403.5 -147.0 431.0 -180.0 432.0 -224.5 431.0 -259.0 409.0 -283.0 387.0 -307.5 353.0 -323.0 319.0 -338.5 282.5 -346.0 246.0 -353.5 216.5 -354.5 L216.5 -385.0 Q248.0 -388.0 283.0 -400.0 318.0 -411.5 349.0 -430.5 379.5 -449.0 399.0 -474.5 418.5 -499.5 419.0 -529.5 418.5 -561.5 398.5 -585.5 378.5 -610.0 345.5 -626.5 312.5 -643.0 272.5 -651.5 232.5 -660.0 192.5 -660.5" fill-rule="evenodd" stroke="none"/>
    </g>
    <g id="font_Lithos_Pro_Regular_x0">
      <path d="M100.5 18.5 L36.0 -42.0 Q44.0 -48.5 68.5 -74.5 93.5 -100.0 126.5 -136.0 159.5 -172.0 192.5 -208.5 226.0 -245.5 251.0 -273.5 276.5 -301.5 286.0 -312.5 271.0 -329.0 241.0 -361.5 211.5 -394.0 177.0 -432.0 142.5 -469.5 113.5 -502.0 84.0 -534.0 70.0 -550.0 L137.5 -614.5 Q147.0 -602.0 170.0 -573.5 193.0 -545.0 223.0 -508.5 253.0 -471.5 284.0 -434.5 315.5 -397.5 341.0 -367.5 354.0 -381.5 385.0 -416.0 416.0 -450.5 452.5 -491.5 489.0 -533.0 519.0 -567.0 549.0 -601.0 560.0 -613.5 L622.5 -552.0 Q610.5 -540.0 576.5 -507.0 543.0 -473.5 502.5 -433.0 462.5 -393.0 430.0 -359.5 398.0 -326.5 388.0 -314.5 397.0 -304.5 421.0 -278.0 445.5 -251.5 477.5 -217.0 509.5 -182.0 542.0 -147.0 574.5 -111.5 600.0 -84.0 625.5 -56.5 637.0 -45.0 L566.5 17.5 Q558.5 8.0 534.5 -20.0 511.0 -48.0 479.5 -85.5 448.5 -122.5 417.0 -159.5 386.0 -196.5 362.5 -224.0 339.5 -251.5 332.0 -260.0 328.0 -254.5 305.5 -227.0 283.0 -199.0 250.5 -160.0 218.5 -121.0 186.0 -82.0 153.5 -43.5 130.0 -15.5 106.0 12.5 100.5 18.5" fill-rule="evenodd" stroke="none"/>
    </g>
    <g id="font_Lithos_Pro_Regular_p0">
      <path d="M223.0 -541.0 L223.0 -248.0 Q279.0 -258.5 324.5 -280.0 370.0 -301.5 397.5 -336.5 424.5 -371.0 425.0 -421.0 425.5 -433.5 419.0 -453.0 412.5 -472.5 392.0 -492.0 372.0 -512.0 331.0 -526.0 290.5 -539.5 223.0 -541.0 M224.0 0.0 L131.0 0.0 Q131.5 -15.5 132.5 -55.5 133.0 -95.5 134.0 -145.5 134.5 -195.5 134.5 -240.0 135.0 -285.0 135.0 -309.5 L135.0 -405.0 Q135.0 -413.5 134.5 -443.5 134.5 -473.5 134.0 -510.0 133.5 -546.0 133.5 -575.0 133.0 -603.5 133.0 -609.5 153.0 -609.5 185.0 -609.0 217.0 -608.0 252.0 -606.0 287.5 -604.0 317.5 -599.5 412.0 -584.5 465.0 -542.5 518.0 -500.5 519.0 -431.5 518.5 -368.5 481.0 -317.5 443.5 -266.5 377.0 -231.5 311.0 -196.0 223.0 -180.5 L223.0 -131.0 Q223.0 -124.0 223.0 -106.0 223.0 -88.0 223.0 -66.0 223.0 -44.0 223.5 -26.0 223.5 -7.5 224.0 0.0" fill-rule="evenodd" stroke="none"/>
    </g>
    <g id="font_Lithos_Pro_Regular_l0">
      <path d="M131.0 -609.5 L232.0 -609.5 Q230.5 -601.5 229.0 -570.0 227.5 -538.0 226.5 -493.0 225.5 -448.0 224.5 -399.5 224.0 -351.0 224.0 -309.0 L224.0 -68.5 Q236.0 -68.5 272.0 -68.5 308.0 -69.0 357.0 -69.5 406.0 -70.5 456.5 -72.5 L456.5 9.5 Q446.5 9.5 413.0 8.5 379.5 7.5 334.5 6.0 289.0 5.0 244.5 3.5 199.5 2.0 167.5 1.0 135.0 0.0 127.0 0.0 130.0 -18.5 131.5 -56.0 133.5 -93.5 134.0 -136.0 134.5 -178.5 135.0 -211.0 135.0 -244.0 135.0 -253.0 L135.0 -368.5 Q135.0 -373.5 135.0 -397.5 134.5 -421.5 134.0 -455.0 134.0 -488.5 133.5 -522.0 132.5 -555.0 132.0 -579.5 131.5 -604.0 131.0 -609.5" fill-rule="evenodd" stroke="none"/>
    </g>
    <g id="font_Lithos_Pro_Regular_o0">
      <path d="M380.0 -53.0 L380.0 -53.0 Q451.0 -53.0 510.0 -84.5 569.0 -116.0 604.5 -176.0 640.0 -236.5 641.0 -322.5 640.0 -400.5 608.5 -452.5 576.5 -504.5 524.5 -530.5 472.5 -556.5 410.5 -556.5 329.0 -555.5 271.0 -519.5 212.5 -483.5 181.5 -423.0 151.0 -362.0 150.5 -287.0 151.0 -221.0 178.5 -168.5 206.0 -115.5 257.0 -84.5 308.5 -53.5 380.0 -53.0 M371.5 14.5 L371.5 14.5 Q269.5 13.5 199.5 -26.0 129.0 -65.5 93.0 -130.5 56.5 -195.5 56.5 -273.5 57.0 -371.5 101.5 -450.5 146.5 -529.5 228.5 -576.0 310.5 -623.0 424.0 -624.0 515.0 -623.5 585.0 -588.5 655.0 -553.5 695.0 -487.5 735.0 -421.0 736.0 -327.0 736.5 -274.5 717.0 -216.0 697.5 -157.5 654.5 -105.0 611.5 -52.5 542.0 -19.5 472.0 13.5 371.5 14.5" fill-rule="evenodd" stroke="none"/>
    </g>
  </defs>
</svg>
