<?xml version="1.0" encoding="UTF-8" standalone="no"?>
<svg xmlns:ffdec="https://www.free-decompiler.com/flash" xmlns:xlink="http://www.w3.org/1999/xlink" ffdec:objectType="frame" height="34.65px" width="15.95px" xmlns="http://www.w3.org/2000/svg">
  <g transform="matrix(1.0, 0.0, 0.0, 1.0, 10.0, 43.8)">
    <use ffdec:characterId="702" height="34.65" transform="matrix(1.0, 0.0, 0.0, 1.0, -10.0, -43.8)" width="15.95" xlink:href="#shape0"/>
  </g>
  <defs>
    <g id="shape0" transform="matrix(1.0, 0.0, 0.0, 1.0, 10.05, 17.3)">
      <path d="M-2.0 16.5 L-3.25 16.55 -4.15 14.3 -4.15 13.5 Q-4.0 13.2 -3.45 13.15 L-1.8 13.4 -1.25 13.6 -1.25 13.55 -0.95 13.3 -1.3 11.8 -1.7 8.8 -2.25 5.6 -2.6 3.25 -3.3 -1.45 Q-4.65 -1.4 -6.55 -2.7 -8.45 -4.05 -8.55 -4.6 L-8.6 -4.8 -8.85 -5.25 -9.15 -6.9 -9.55 -10.45 -10.05 -15.9 -9.6 -16.2 -9.55 -16.2 -9.25 -16.25 -6.4 -14.2 -4.15 -12.4 -4.0 -12.55 -2.15 -12.8 -2.05 -12.7 -1.35 -13.4 -0.05 -14.55 2.15 -17.3 Q2.85 -17.05 3.25 -15.6 L3.75 -13.2 Q4.1 -9.3 4.4 -7.4 4.9 -6.1 3.5 -4.45 2.1 -2.8 0.0 -2.1 L0.6 2.2 1.05 5.25 1.55 8.3 2.05 11.35 2.15 12.8 2.3 12.75 2.4 12.8 2.55 13.15 3.35 12.75 4.25 12.45 Q5.4 12.3 5.75 12.8 L5.85 13.45 5.85 15.35 5.65 15.35 4.45 15.85 4.8 13.5 3.1 13.9 2.6 13.95 2.65 14.15 2.95 15.85 3.1 16.85 3.05 16.85 2.25 16.9 2.15 16.1 1.75 14.75 1.5 13.9 -0.25 14.15 -0.25 14.25 0.25 15.7 0.65 17.15 -0.1 17.35 -0.7 16.85 -0.85 16.0 -1.1 14.4 -2.85 14.45 -2.0 16.5 M2.3 -15.55 Q1.75 -14.4 0.5 -13.35 L-1.5 -11.9 -1.3 -11.3 -1.05 -10.05 -0.15 -2.85 1.15 -3.8 Q3.1 -5.1 3.15 -6.45 L3.0 -8.7 Q2.9 -9.95 3.15 -10.65 L2.4 -15.45 2.35 -15.6 2.3 -15.55 M0.0 5.25 L-0.35 2.95 -1.15 -2.9 -2.25 -11.45 -2.65 -11.45 -3.05 -11.55 -3.4 -11.4 -3.65 -11.35 -3.55 -10.95 -3.3 -9.7 -1.65 2.5 -1.2 5.55 -0.7 8.6 -0.2 11.7 -0.1 13.15 1.25 12.9 0.95 11.45 0.55 8.5 0.0 5.25 M-3.4 -2.55 L-4.5 -11.3 -4.6 -11.6 -6.7 -12.95 -8.9 -14.85 -8.8 -14.3 -7.65 -5.2 -7.65 -5.15 -6.0 -4.05 -3.5 -2.35 -3.4 -2.3 -3.4 -2.55" fill="#000000" fill-opacity="0.0" fill-rule="evenodd" stroke="none"/>
      <path d="M2.4 -15.45 L3.15 -10.65 Q2.9 -9.95 3.0 -8.7 L3.15 -6.45 Q3.1 -5.1 1.15 -3.8 L-0.15 -2.85 -1.05 -10.05 -1.3 -11.3 -1.5 -11.9 0.5 -13.35 Q1.75 -14.4 2.3 -15.55 L2.4 -15.45 M-3.5 -2.35 L-6.0 -4.05 -7.65 -5.15 -7.65 -5.2 -8.8 -14.3 -8.9 -14.85 -6.7 -12.95 -4.6 -11.6 -4.5 -11.3 -3.4 -2.55 -3.5 -2.35" fill="#800000" fill-opacity="0.0" fill-rule="evenodd" stroke="none"/>
      <path d="M0.0 5.25 L0.55 8.5 0.95 11.45 1.25 12.9 -0.1 13.15 -0.2 11.7 -0.7 8.6 -1.2 5.55 -1.65 2.5 -3.3 -9.7 -3.55 -10.95 -3.65 -11.35 -3.4 -11.4 -3.05 -11.55 -2.65 -11.45 -2.25 -11.45 -1.15 -2.9 -0.35 2.95 0.0 5.25" fill="#14100c" fill-opacity="0.0" fill-rule="evenodd" stroke="none"/>
      <path d="M4.45 15.85 Q3.55 16.25 3.1 16.85 L2.95 15.85 2.65 14.15 2.6 13.95 3.1 13.9 4.8 13.5 4.45 15.85 M2.25 16.9 L1.55 17.05 0.65 17.15 0.25 15.7 -0.25 14.25 -0.25 14.15 1.5 13.9 1.75 14.75 2.15 16.1 2.25 16.9 M-0.7 16.85 Q-1.25 16.55 -2.0 16.5 L-2.85 14.45 -1.1 14.4 -0.85 16.0 -0.7 16.85" fill="#60606c" fill-opacity="0.0" fill-rule="evenodd" stroke="none"/>
    </g>
  </defs>
</svg>
