<?xml version="1.0" encoding="UTF-8" standalone="no"?>
<svg xmlns:ffdec="https://www.free-decompiler.com/flash" xmlns:xlink="http://www.w3.org/1999/xlink" ffdec:objectType="frame" height="296.0px" width="350.75px" xmlns="http://www.w3.org/2000/svg">
  <g transform="matrix(1.0, 0.0, 0.0, 1.0, 128.35, 68.75)">
    <use ffdec:characterId="69" height="44.0" transform="matrix(0.8768, -0.478, 0.478, 0.8768, -12.4184, 134.4285)" width="79.0" xlink:href="#shape0"/>
    <use ffdec:characterId="71" height="82.6" transform="matrix(0.9994, -0.0178, 0.0178, 0.9994, -44.498, 109.3889)" width="140.25" xlink:href="#shape1"/>
    <use ffdec:characterId="72" height="103.15" transform="matrix(0.9034, 0.4274, -0.4274, 0.9034, 82.1894, 15.1309)" width="85.5" xlink:href="#shape2"/>
  </g>
  <defs>
    <g id="shape0" transform="matrix(1.0, 0.0, 0.0, 1.0, 32.0, -5.0)">
      <path d="M32.45 32.45 L41.05 32.95 41.0 30.65 Q41.0 25.2 42.15 19.75 43.15 15.0 44.75 12.0 L40.25 10.3 Q37.05 9.15 34.5 8.45 L31.35 7.75 30.95 7.65 30.25 14.55 Q29.5 22.45 29.5 23.9 L30.0 28.15 30.5 32.25 32.45 32.45 M45.0 22.15 Q43.0 30.55 43.0 35.0 L42.0 35.5 41.6 35.0 31.5 35.0 31.4 35.0 28.95 41.4 26.1 47.15 26.5 48.0 25.65 48.75 23.75 49.0 Q17.65 49.0 16.5 47.35 16.15 46.8 16.3 46.05 L16.5 45.25 16.65 43.95 16.5 44.0 Q14.05 45.0 9.75 45.0 7.45 45.0 6.5 43.25 L6.1 41.85 Q4.3 40.0 3.3 33.25 L3.15 31.35 2.5 31.5 1.2 31.15 0.3 30.75 -4.6 30.4 -26.5 30.0 Q-27.0 30.0 -28.0 29.6 L-29.6 28.75 -31.65 26.45 Q-32.0 25.85 -32.0 24.9 -32.0 23.35 -31.25 21.55 L-30.65 20.4 -30.85 20.3 -29.45 18.25 Q-16.2 8.55 6.05 9.05 L6.0 8.3 6.6 8.15 7.0 8.0 28.75 8.0 Q29.25 6.1 30.0 5.0 L30.4 5.3 Q32.3 4.7 38.25 6.65 44.45 8.7 46.25 10.1 L46.7 10.2 Q47.0 10.3 47.0 11.1 L47.0 11.15 47.0 11.9 Q46.75 14.85 45.0 22.15 M13.6 20.4 Q15.25 19.25 17.55 17.85 24.7 13.55 27.85 12.85 L28.25 10.1 21.25 10.5 Q20.5 11.3 17.4 12.1 14.9 12.75 13.15 13.45 11.45 14.05 10.4 14.75 L10.8 15.15 11.0 16.35 10.95 17.25 11.0 18.85 Q11.0 19.85 11.8 21.65 L13.6 20.4 M27.5 23.75 L27.5 23.5 27.4 23.55 23.5 26.5 14.15 33.5 14.0 33.6 Q14.0 34.35 13.15 34.85 12.25 35.3 12.25 35.8 12.25 36.55 14.05 39.55 14.75 38.6 16.3 37.35 17.9 36.1 20.4 34.6 25.3 31.65 27.85 30.8 L27.6 29.4 27.5 23.75 M15.95 29.15 L18.35 27.15 Q24.1 22.55 27.45 21.85 27.4 18.85 27.6 15.8 L27.7 14.25 22.75 17.15 13.25 23.4 11.15 25.0 10.95 25.15 Q11.85 26.45 12.75 28.55 L13.75 31.15 13.9 31.0 14.0 30.9 15.95 29.15 M14.3 11.15 L14.9 10.95 14.25 10.95 13.25 11.0 8.0 10.65 6.5 14.25 Q4.5 19.2 4.5 23.65 4.5 27.0 6.5 34.2 L8.5 41.1 8.5 41.65 8.55 41.8 8.75 42.8 13.65 41.9 13.8 41.9 13.75 41.85 13.55 41.5 13.25 41.5 Q11.6 41.5 10.0 35.75 10.0 34.45 10.75 33.6 L11.5 33.0 Q10.7 31.9 10.0 29.55 L9.0 25.1 9.05 24.35 9.25 24.05 9.55 24.05 Q9.65 23.6 10.35 22.95 L9.5 22.75 9.25 20.75 9.0 18.75 9.05 17.3 9.0 16.5 Q9.0 15.6 9.3 15.05 L9.5 14.8 9.0 14.3 Q9.85 12.85 14.3 11.15 M2.95 29.2 L2.5 23.6 Q2.5 17.2 2.8 15.75 3.5 12.5 6.1 9.85 0.5 11.75 -9.35 13.55 -17.2 15.0 -27.0 19.0 L-28.5 21.75 Q-30.0 24.35 -30.0 24.9 -30.0 25.8 -28.9 26.45 L-26.5 27.5 -13.15 28.0 1.55 28.75 Q2.15 28.85 2.75 29.25 L3.0 29.45 2.95 29.2 M17.85 41.15 L18.4 39.25 15.1 41.6 17.5 41.0 17.85 41.15 M24.75 44.05 L25.6 41.45 Q27.25 36.75 29.25 34.3 L29.15 34.15 29.05 33.9 28.35 32.45 22.8 36.25 Q21.9 36.85 21.15 37.4 21.5 37.7 21.5 38.15 L20.0 41.95 19.65 42.7 Q18.65 44.95 18.55 45.6 L18.5 45.75 24.05 46.75 24.75 44.05" fill="#000000" fill-rule="evenodd" stroke="none"/>
      <path d="M34.5 8.45 Q37.05 9.15 40.25 10.3 L44.75 12.0 Q43.15 15.0 42.15 19.75 41.0 25.2 41.0 30.65 L41.05 32.95 32.45 32.45 32.5 24.0 Q32.5 17.45 33.5 13.75 34.35 10.65 34.5 8.45 M13.15 13.45 Q14.9 12.75 17.4 12.1 20.5 11.3 21.25 10.5 L28.25 10.1 27.85 12.85 Q24.7 13.55 17.55 17.85 15.25 19.25 13.6 20.4 L14.0 18.65 13.5 15.35 13.15 13.45 M27.4 23.55 L27.5 23.75 27.6 29.4 27.85 30.8 Q25.3 31.65 20.4 34.6 17.9 36.1 16.3 37.35 15.9 36.2 14.55 34.1 L14.15 33.5 23.5 26.5 27.4 23.55 M13.25 23.4 L22.75 17.15 27.7 14.25 27.6 15.8 Q27.4 18.85 27.45 21.85 24.1 22.55 18.35 27.15 L15.95 29.15 Q15.7 27.75 14.4 25.3 L13.25 23.4 M19.65 42.7 L20.0 41.95 21.5 38.15 Q21.5 37.7 21.15 37.4 21.9 36.85 22.8 36.25 L28.35 32.45 29.05 33.9 29.15 34.15 29.25 34.3 Q27.25 36.75 25.6 41.45 L24.75 44.05 22.45 43.25 19.65 42.7" fill="#ffffff" fill-rule="evenodd" stroke="none"/>
      <path d="M34.5 8.45 Q34.35 10.65 33.5 13.75 32.5 17.45 32.5 24.0 L32.45 32.45 30.5 32.25 30.0 28.15 29.5 23.9 Q29.5 22.45 30.25 14.55 L30.95 7.65 31.35 7.75 34.5 8.45 M13.15 13.45 L13.5 15.35 14.0 18.65 13.6 20.4 11.8 21.65 Q11.0 19.85 11.0 18.85 L10.95 17.25 11.0 16.35 10.8 15.15 10.4 14.75 Q11.45 14.05 13.15 13.45 M16.3 37.35 Q14.75 38.6 14.05 39.55 12.25 36.55 12.25 35.8 12.25 35.3 13.15 34.85 14.0 34.35 14.0 33.6 L14.15 33.5 14.55 34.1 Q15.9 36.2 16.3 37.35 M13.25 23.4 L14.4 25.3 Q15.7 27.75 15.95 29.15 L14.0 30.9 13.9 31.0 13.75 31.15 12.75 28.55 Q11.85 26.45 10.95 25.15 L11.15 25.0 13.25 23.4 M19.65 42.7 L22.45 43.25 24.75 44.05 24.05 46.75 18.5 45.75 18.55 45.6 Q18.65 44.95 19.65 42.7" fill="#8e6c24" fill-rule="evenodd" stroke="none"/>
      <path d="M2.75 29.25 Q2.15 28.85 1.55 28.75 L-13.15 28.0 -26.5 27.5 -28.9 26.45 Q-30.0 25.8 -30.0 24.9 -30.0 24.35 -28.5 21.75 L-27.0 19.0 Q-17.2 15.0 -9.35 13.55 0.5 11.75 6.1 9.85 3.5 12.5 2.8 15.75 2.5 17.2 2.5 23.6 L2.95 29.2 2.75 29.25" fill="#bba18d" fill-rule="evenodd" stroke="none"/>
      <path d="M14.25 10.95 L14.3 11.15 Q9.85 12.85 9.0 14.3 L9.5 14.8 9.3 15.05 Q9.0 15.6 9.0 16.5 L9.05 17.3 9.0 18.75 9.25 20.75 9.5 22.75 10.35 22.95 Q9.65 23.6 9.55 24.05 L9.25 24.05 9.05 24.35 9.0 25.1 10.0 29.55 Q10.7 31.9 11.5 33.0 L10.75 33.6 Q10.0 34.45 10.0 35.75 11.6 41.5 13.25 41.5 L13.55 41.5 13.75 41.85 13.65 41.9 8.75 42.8 8.55 41.8 8.5 41.65 8.5 41.1 6.5 34.2 Q4.5 27.0 4.5 23.65 4.5 19.2 6.5 14.25 L8.0 10.65 13.25 11.0 14.25 10.95" fill="#942403" fill-rule="evenodd" stroke="none"/>
    </g>
    <g id="shape1" transform="matrix(1.0, 0.0, 0.0, 1.0, 61.75, -20.6)">
      <path d="M52.1 23.55 L41.4 23.25 Q22.65 23.25 5.55 25.4 -6.2 26.85 -11.65 28.45 L-14.4 33.3 Q-16.05 36.85 -17.1 40.55 -18.0 43.7 -18.4 47.0 L-13.5 46.0 -5.1 43.25 4.0 40.05 Q11.9 37.7 20.9 34.0 L31.0 30.0 33.05 29.25 33.5 30.0 Q22.0 37.4 0.05 44.85 -21.25 52.05 -32.65 52.5 L-33.45 52.8 Q-35.3 53.45 -37.95 53.7 -42.55 54.15 -44.5 55.25 L-49.3 57.65 -53.0 59.8 Q-54.55 61.1 -57.0 65.35 -59.65 69.9 -59.65 71.8 -59.65 73.75 -56.15 76.75 L-53.85 78.6 Q-52.0 79.25 -49.45 80.8 L-46.65 82.45 -43.05 84.2 -38.5 84.85 Q-35.75 84.85 -33.2 84.05 -30.8 83.25 -28.55 81.75 -26.45 80.25 -24.5 78.05 L-24.2 77.75 -20.55 73.4 Q-19.0 71.7 -17.5 71.35 -10.7 64.3 8.95 58.0 L25.8 52.9 26.1 52.8 27.05 52.5 27.9 52.25 28.35 52.1 Q38.45 49.05 45.45 46.4 L48.15 45.35 Q48.95 45.65 49.15 46.35 42.9 49.7 32.3 53.3 L13.1 59.3 Q-7.3 65.7 -15.35 71.35 -10.8 72.1 -8.5 77.7 -7.6 80.0 -6.9 83.05 L-6.25 86.25 -6.2 86.4 Q-5.15 89.1 -3.55 94.3 -2.25 97.6 0.0 100.15 L1.95 99.1 Q18.15 90.5 38.75 80.75 52.55 74.2 63.0 64.95 76.0 53.5 76.0 43.75 L76.0 41.1 75.95 40.95 Q75.7 39.65 74.5 37.3 L74.5 34.75 75.65 34.5 75.55 34.0 75.55 33.8 72.35 34.05 71.75 34.05 71.65 34.05 71.35 34.05 68.6 34.15 58.55 35.25 49.2 36.9 39.75 38.0 Q36.2 38.0 35.5 37.3 L35.5 36.55 Q35.5 33.7 39.75 30.4 43.4 27.5 47.65 26.6 L49.4 26.3 49.55 26.25 50.0 27.0 Q48.4 28.35 42.6 32.15 38.05 35.1 38.0 35.8 L52.4 33.65 Q66.95 31.5 72.25 31.5 L75.05 31.85 Q74.6 30.5 73.9 29.65 69.7 24.65 52.1 23.55 M78.25 35.5 L78.3 35.6 Q78.5 36.15 78.5 38.4 78.5 51.35 70.95 60.6 63.3 70.0 44.25 80.25 L27.55 88.75 Q14.9 95.2 8.0 99.5 L1.5 103.2 1.4 102.95 0.75 103.05 Q-2.1 103.05 -5.25 95.05 L-6.6 91.4 -9.85 79.6 Q-9.85 78.8 -10.5 77.7 L-19.9 81.6 -21.9 82.3 -31.05 85.35 -31.55 85.55 Q-33.55 85.9 -35.05 86.9 L-45.0 86.1 Q-46.4 85.45 -48.05 85.2 L-49.35 84.1 -54.45 80.7 Q-61.75 75.0 -61.75 71.85 -61.75 68.6 -59.65 64.7 -57.4 60.55 -53.55 57.35 -49.1 53.6 -43.95 52.15 -42.9 51.55 -41.7 51.2 -38.9 50.35 -33.3 49.85 L-33.3 49.65 -33.25 49.65 -33.05 49.85 -31.8 49.75 Q-29.5 48.8 -25.65 48.1 L-20.5 47.35 -20.5 47.3 Q-20.5 42.95 -18.7 36.3 -16.05 26.3 -11.35 26.25 L-11.15 26.15 -11.05 26.25 Q-5.85 24.3 6.2 23.25 L33.0 21.25 Q58.65 18.85 70.7 25.2 78.5 29.3 78.5 34.65 L78.45 35.4 78.25 35.5 M-22.75 79.05 L-22.85 79.2 -22.7 79.1 Q-14.25 75.85 -10.65 77.45 L-11.8 75.95 Q-13.85 73.5 -15.5 73.5 -17.4 73.5 -19.55 75.6 L-22.75 79.05" fill="#000000" fill-rule="evenodd" stroke="none"/>
      <path d="M-22.7 79.1 L-22.75 79.05 -19.55 75.6 Q-17.4 73.5 -15.5 73.5 -13.85 73.5 -11.8 75.95 L-10.65 77.45 Q-14.25 75.85 -22.7 79.1" fill="#3e0202" fill-rule="evenodd" stroke="none"/>
      <path d="M-17.1 40.55 Q-16.05 36.85 -14.4 33.3 L-11.65 28.45 Q-6.2 26.85 5.55 25.4 22.65 23.25 41.4 23.25 L52.1 23.55 Q49.0 24.65 48.05 26.0 L47.05 26.7 47.65 26.6 Q43.4 27.5 39.75 30.4 35.5 33.7 35.5 36.55 L35.5 37.3 Q36.2 38.0 39.75 38.0 L49.2 36.9 58.55 35.25 68.6 34.15 67.05 37.5 Q64.35 43.35 60.3 46.55 54.75 50.85 50.05 53.8 L37.65 60.4 Q3.1 76.85 -6.9 83.05 -7.6 80.0 -8.5 77.7 -10.8 72.1 -15.35 71.35 -7.3 65.7 13.1 59.3 L32.3 53.3 Q42.9 49.7 49.15 46.35 48.95 45.65 48.15 45.35 L45.45 46.4 Q21.5 49.6 -2.5 57.3 -9.55 59.55 -15.05 61.65 L-26.35 67.85 Q-39.75 75.75 -46.65 82.45 L-49.45 80.8 Q-52.0 79.25 -53.85 78.6 L-56.15 76.75 Q-59.65 73.75 -59.65 71.8 -59.65 69.9 -57.0 65.35 -54.55 61.1 -53.0 59.8 L-49.3 57.65 -44.5 55.25 Q-42.55 54.15 -37.95 53.7 -35.3 53.45 -33.45 52.8 L-32.65 52.5 Q-21.25 52.05 0.05 44.85 22.0 37.4 33.5 30.0 L33.05 29.25 31.0 30.0 Q31.0 29.2 30.8 29.15 L30.55 29.25 Q18.95 30.4 2.55 34.2 -11.4 37.4 -17.1 40.55 M61.4 42.5 L61.35 42.3 59.65 43.0 61.4 42.5 M-30.25 66.85 L-30.0 66.6 -30.2 66.6 -30.25 66.85" fill="#942403" fill-rule="evenodd" stroke="none"/>
      <path d="M-17.1 40.55 Q-11.4 37.4 2.55 34.2 18.95 30.4 30.55 29.25 L30.8 29.15 Q31.0 29.2 31.0 30.0 L20.9 34.0 Q11.9 37.7 4.0 40.05 L-5.1 43.25 -13.5 46.0 -18.4 47.0 Q-18.0 43.7 -17.1 40.55 M-46.65 82.45 Q-39.75 75.75 -26.35 67.85 L-15.05 61.65 Q-9.55 59.55 -2.5 57.3 21.5 49.6 45.45 46.4 38.45 49.05 28.35 52.1 L27.9 52.25 27.05 52.5 26.1 52.8 25.8 52.9 8.95 58.0 Q-10.7 64.3 -17.5 71.35 -19.0 71.7 -20.55 73.4 L-24.2 77.75 -24.5 78.05 Q-26.45 80.25 -28.55 81.75 -30.8 83.25 -33.2 84.05 -35.75 84.85 -38.5 84.85 L-43.05 84.2 -46.65 82.45 M-6.9 83.05 Q3.1 76.85 37.65 60.4 L50.05 53.8 Q54.75 50.85 60.3 46.55 64.35 43.35 67.05 37.5 L68.6 34.15 71.35 34.05 71.65 34.05 71.75 34.05 72.35 34.05 75.55 33.8 75.55 34.0 75.65 34.5 74.5 34.75 74.5 37.3 Q75.7 39.65 75.95 40.95 L76.0 41.1 76.0 43.75 Q76.0 53.5 63.0 64.95 52.55 74.2 38.75 80.75 18.15 90.5 1.95 99.1 L0.0 100.15 Q-2.25 97.6 -3.55 94.3 -5.15 89.1 -6.2 86.4 L-6.25 86.25 -6.9 83.05 M47.65 26.6 L47.05 26.7 48.05 26.0 Q49.0 24.65 52.1 23.55 69.7 24.65 73.9 29.65 74.6 30.5 75.05 31.85 L72.25 31.5 Q66.95 31.5 52.4 33.65 L38.0 35.8 Q38.05 35.1 42.6 32.15 48.4 28.35 50.0 27.0 L49.55 26.25 49.4 26.3 47.65 26.6 M61.4 42.5 L59.65 43.0 61.35 42.3 61.4 42.5 M-30.25 66.85 L-30.2 66.6 -30.0 66.6 -30.25 66.85" fill="#731c02" fill-rule="evenodd" stroke="none"/>
    </g>
    <g id="shape2" transform="matrix(1.0, 0.0, 0.0, 1.0, 48.5, 67.4)">
      <path d="M-21.8 -0.75 L-21.8 -0.85 Q-21.8 -2.8 -21.05 -5.55 L-21.5 -5.5 Q-23.0 -5.5 -24.5 -6.65 -24.7 0.6 -25.95 4.75 -29.35 16.0 -39.75 16.0 -44.55 16.0 -46.0 13.85 -46.5 13.1 -46.5 11.45 L-46.3 10.55 -46.3 10.35 Q-45.6 9.95 -45.3 9.1 -44.75 9.5 -44.5 10.15 -43.1 10.35 -41.1 9.25 -39.95 8.65 -39.65 7.75 -39.5 7.3 -39.5 6.25 -39.5 4.1 -40.75 2.9 -41.25 2.4 -43.5 1.2 -47.5 -0.95 -47.5 -6.15 -47.5 -10.5 -47.15 -11.5 -46.65 -13.15 -45.2 -14.15 -46.6 -14.55 -47.6 -16.25 -48.25 -17.35 -48.5 -18.5 -48.5 -22.0 -46.0 -24.9 L-40.95 -29.65 Q-44.0 -30.4 -44.0 -34.65 -44.0 -38.35 -39.85 -42.5 -36.35 -46.05 -31.9 -47.05 L-32.0 -47.4 Q-32.2 -48.4 -32.0 -49.5 -32.0 -53.45 -28.25 -55.2 -24.15 -57.2 -15.9 -56.2 L-16.15 -56.75 -16.5 -58.6 Q-16.5 -62.95 -11.25 -63.8 -5.9 -64.65 1.0 -60.1 L1.0 -62.85 Q5.05 -68.75 10.75 -67.0 14.45 -65.85 17.6 -62.2 L18.4 -63.15 Q19.85 -64.3 21.9 -64.45 27.1 -64.8 30.5 -59.1 L32.85 -53.8 33.0 -49.75 Q33.0 -44.15 28.15 -40.8 L22.65 -37.3 Q18.85 -34.8 15.75 -31.85 16.25 -31.5 15.0 -31.5 L14.95 -31.5 15.0 -30.75 14.15 -28.3 13.65 -27.15 15.25 -26.85 16.7 -26.3 16.95 -26.75 Q17.2 -26.4 17.7 -26.2 18.05 -25.8 18.6 -25.65 L18.45 -25.5 Q24.5 -22.65 28.1 -18.15 L28.2 -18.05 32.0 -19.5 33.0 -18.5 32.65 -18.35 Q34.6 -17.05 35.8 -11.8 37.0 -6.65 37.0 -1.55 L36.85 2.05 Q36.3 4.4 34.0 5.0 L33.45 4.9 30.55 4.9 Q31.0 6.45 31.15 8.35 L31.2 13.75 31.5 16.6 Q31.65 19.0 31.2 20.7 30.55 23.2 28.45 24.5 28.9 27.65 29.05 32.8 L29.05 33.25 29.0 33.35 29.25 34.4 Q29.25 35.55 26.75 35.75 L23.15 35.25 19.55 34.75 Q18.35 34.75 9.55 31.15 0.65 27.45 0.4 26.35 L-0.3 25.65 -0.6 24.9 -0.8 24.9 Q-3.15 24.9 -4.9 23.7 -4.9 24.05 -5.35 24.3 -7.45 25.4 -23.3 25.4 -32.0 25.4 -34.0 23.8 -34.65 23.3 -34.55 22.65 L-34.3 22.05 Q-34.3 20.75 -30.0 18.15 -25.45 15.4 -22.55 15.4 L-22.1 15.4 -22.25 15.1 -22.3 13.9 Q-22.55 8.05 -22.4 5.05 L-22.05 2.05 -22.25 2.1 -22.0 0.9 Q-22.0 0.35 -22.15 -0.1 L-21.8 -0.05 -21.7 -0.05 -21.8 -0.75 M30.85 -52.0 Q30.5 -54.1 29.5 -56.1 26.95 -61.25 20.9 -61.25 19.15 -61.25 19.1 -60.2 L19.5 -59.6 19.25 -58.85 Q19.75 -58.5 18.5 -58.5 L18.25 -58.55 18.0 -58.5 17.25 -59.0 17.05 -59.65 16.0 -61.35 Q13.35 -64.25 6.9 -64.25 3.45 -64.25 3.0 -61.85 L3.25 -59.0 3.15 -58.65 2.25 -58.5 2.15 -58.5 1.5 -58.0 Q0.75 -58.25 -2.05 -60.05 -5.55 -61.75 -10.25 -61.75 -11.95 -61.75 -13.4 -60.25 L-14.5 -58.75 -13.0 -56.3 -13.0 -55.6 -13.0 -55.5 -13.25 -55.35 -13.15 -55.15 -14.0 -55.0 -14.05 -55.0 -14.9 -54.8 -17.0 -54.85 Q-24.7 -54.85 -28.0 -52.6 -30.0 -51.25 -30.0 -49.55 L-29.45 -48.4 -28.9 -47.45 -28.35 -47.5 -28.15 -47.35 Q-28.0 -47.25 -28.0 -46.5 L-28.1 -45.75 -28.35 -45.5 Q-33.9 -45.0 -38.2 -41.1 -42.0 -37.65 -42.0 -34.75 -42.0 -33.75 -40.35 -33.05 -38.9 -32.45 -38.55 -30.65 L-38.5 -30.0 -38.6 -29.75 -38.65 -29.65 -42.5 -25.45 Q-46.5 -21.25 -46.5 -18.35 -46.5 -17.5 -45.25 -16.85 -43.6 -16.05 -43.0 -15.1 L-42.35 -15.25 -42.15 -15.35 Q-42.0 -15.3 -42.0 -14.5 -42.0 -14.05 -43.75 -11.4 -45.5 -8.75 -45.5 -6.6 -45.5 -2.4 -41.5 -0.4 -37.5 1.65 -37.5 6.1 L-37.6 9.75 Q-38.5 11.5 -43.25 11.5 L-44.15 11.5 -44.1 12.0 Q-43.55 13.75 -39.5 13.75 L-37.8 13.65 -37.5 13.6 -36.35 13.4 -35.25 13.1 Q-29.55 11.1 -27.7 3.2 -27.1 0.65 -26.55 -4.95 -26.3 -8.0 -25.85 -9.45 L-26.5 -10.75 Q-26.5 -12.95 -24.25 -16.75 -21.65 -21.05 -17.6 -24.65 -8.75 -32.55 2.3 -33.1 L5.5 -33.4 5.5 -33.75 13.5 -33.1 13.5 -33.25 Q13.5 -34.65 16.25 -36.35 17.9 -37.35 22.25 -39.55 29.15 -43.35 30.6 -47.6 L30.75 -47.95 31.0 -49.6 31.0 -49.9 30.85 -51.95 30.85 -52.0 M26.5 -17.7 Q20.25 -25.35 7.85 -25.35 L3.8 -25.15 -1.55 -24.3 Q-8.45 -22.6 -12.65 -18.05 L-13.4 -17.2 -13.8 -16.65 -13.85 -16.6 Q-14.95 -15.2 -15.85 -13.45 L-15.9 -13.4 Q-17.8 -9.75 -18.85 -4.8 L-19.6 -0.2 -19.45 0.4 -19.45 0.45 -19.4 0.85 -19.35 1.25 -19.3 4.65 -19.3 4.7 -19.3 4.8 -19.3 4.85 -19.3 4.95 -19.3 5.1 -19.3 5.15 -19.3 5.35 -19.4 7.0 -19.75 12.15 -19.8 12.85 -19.95 14.9 -19.95 15.25 -20.0 15.45 -20.05 15.7 -20.55 15.9 -20.5 15.95 -20.3 16.4 -26.25 18.75 Q-32.05 21.1 -32.05 22.15 L-32.05 22.25 -32.0 22.8 -31.9 22.95 -31.8 23.15 -25.0 23.15 -20.55 23.15 -14.0 23.15 Q-8.0 23.1 -6.8 14.8 L-6.05 8.2 Q-5.65 5.35 -4.75 4.0 L-5.5 4.0 -6.15 3.75 -6.5 3.35 -6.9 3.0 -7.25 2.6 -7.45 2.25 -7.5 1.85 -7.5 1.1 -7.7 0.75 -8.0 0.35 -8.0 0.0 -8.0 -1.9 -8.0 -3.75 -7.75 -4.1 -7.0 -4.9 -6.65 -5.25 -6.0 -5.4 Q-4.8 -5.55 -4.0 -6.0 L-1.0 -6.0 -0.4 -5.7 -0.05 -5.35 0.05 -5.25 Q3.75 -8.5 13.25 -12.3 L17.4 -13.9 20.0 -14.9 22.15 -15.7 22.5 -15.85 26.6 -17.4 27.75 -17.85 26.5 -17.7 M6.0 -31.0 L2.45 -31.0 Q-11.2 -28.1 -17.5 -22.2 -21.45 -18.5 -24.5 -9.6 L-24.5 -9.35 -23.95 -9.15 Q-21.55 -7.75 -20.5 -7.3 L-20.2 -8.2 Q-18.1 -14.05 -14.45 -18.45 -6.45 -28.0 6.45 -27.9 L8.0 -27.85 12.0 -27.45 Q12.05 -28.8 12.7 -30.35 L13.0 -31.0 11.75 -31.0 6.55 -31.15 6.45 -31.2 6.0 -31.0 M23.2 -14.3 L20.5 -13.05 15.3 -10.5 Q0.75 -3.0 0.25 -3.0 L-0.95 -3.15 -1.5 -3.6 -1.45 -3.65 -1.65 -3.75 -3.4 -3.75 -4.0 -3.5 -5.75 -2.9 -5.95 -2.5 -6.0 -1.75 -6.0 -0.65 -5.85 -0.25 -5.55 0.5 -5.4 1.25 -5.0 1.45 Q-3.75 1.7 -2.9 2.5 L-1.85 2.45 Q3.8 2.25 25.15 2.75 L28.75 2.85 29.6 2.85 30.75 2.9 33.2 3.4 33.7 2.15 33.95 1.5 34.0 1.4 34.45 0.45 34.5 0.25 34.65 -0.1 34.65 -0.2 34.7 -0.3 34.75 -0.4 34.8 -0.5 34.8 -0.6 35.0 -1.45 35.0 -1.9 Q34.9 -5.8 33.0 -11.6 L32.75 -12.4 32.5 -13.2 32.45 -13.2 31.0 -17.35 31.05 -17.7 30.9 -17.6 29.4 -17.0 27.6 -16.25 27.1 -16.05 24.35 -14.85 23.75 -14.55 23.2 -14.3 M28.7 5.3 L28.8 4.9 28.7 4.9 28.7 5.3 M20.6 5.8 L20.5 5.4 18.55 5.3 18.15 5.35 17.7 5.4 17.7 8.4 19.2 8.65 Q20.45 8.65 20.25 8.4 L20.55 7.95 20.7 6.9 20.6 5.8 M23.05 15.9 Q26.05 17.35 27.4 20.4 28.8 18.25 29.2 14.7 L29.35 12.4 23.0 12.8 23.0 13.0 22.7 13.45 21.6 13.65 21.35 13.65 21.6 15.3 21.6 15.35 22.75 15.75 23.05 15.9 M21.55 18.95 L21.25 18.75 20.95 18.5 20.85 18.45 Q20.05 17.75 19.9 16.85 L19.35 16.15 Q19.3 13.35 17.3 11.35 L16.05 10.3 14.05 8.85 Q10.65 6.4 9.75 5.4 L9.85 4.7 9.75 4.7 9.7 4.7 1.1 4.5 0.95 4.95 0.9 5.0 1.2 9.05 1.2 14.25 Q1.2 19.0 1.35 20.35 1.65 22.5 2.4 23.9 L2.55 23.9 3.75 24.8 Q6.35 26.75 9.75 28.65 13.25 30.6 16.45 31.8 L18.05 32.25 19.8 32.8 19.9 32.8 21.55 33.15 24.9 33.4 25.95 33.35 26.55 33.15 26.5 32.05 26.5 31.6 Q26.55 31.45 26.95 31.45 L26.9 31.05 Q26.65 29.65 26.65 28.25 26.65 22.6 23.25 20.1 L21.55 18.95" fill="#000000" fill-rule="evenodd" stroke="none"/>
      <path d="M3.8 -25.15 L0.7 -24.7 -1.55 -24.3 3.8 -25.15 M-13.85 -16.6 L-14.95 -14.45 -15.85 -13.45 Q-14.95 -15.2 -13.85 -16.6 M-18.85 -4.8 L-18.05 -5.75 -19.4 -0.35 -19.45 0.4 -19.6 -0.2 -18.85 -4.8 M22.15 -15.75 L22.4 -16.0 22.45 -16.0 22.15 -15.75" fill="#5b6171" fill-rule="evenodd" stroke="none"/>
      <path d="M26.6 -17.4 L26.5 -17.7 27.75 -17.85 26.6 -17.4 M30.75 2.9 L29.6 2.85 29.45 2.45 30.35 2.75 30.75 2.9" fill="#969cab" fill-rule="evenodd" stroke="none"/>
      <path d="M22.75 15.75 L21.6 15.35 21.6 15.3 21.35 13.65 21.6 13.65 22.7 13.45 23.0 13.0 23.0 12.8 29.35 12.4 29.2 14.7 Q28.8 18.25 27.4 20.4 26.05 17.35 23.05 15.9 L22.85 15.5 22.75 15.75" fill="#aa8a71" fill-rule="evenodd" stroke="none"/>
      <path d="M20.6 5.8 L20.7 6.9 20.55 7.95 20.25 8.4 Q20.45 8.65 19.2 8.65 L17.7 8.4 17.7 5.4 18.15 5.35 18.55 5.3 20.5 5.4 20.6 5.8" fill="#ffffff" fill-rule="evenodd" stroke="none"/>
      <path d="M-21.8 -0.05 L-21.8 -0.75 -21.7 -0.05 -21.8 -0.05 M9.75 5.4 L9.75 4.7 9.85 4.7 9.75 5.4" fill="#c0a430" fill-rule="evenodd" stroke="none"/>
      <path d="M3.8 -25.15 L7.85 -25.35 Q20.25 -25.35 26.5 -17.7 L26.6 -17.4 22.5 -15.85 22.45 -16.0 22.4 -16.0 22.15 -15.75 22.15 -15.7 20.0 -14.9 20.0 -15.3 Q20.0 -16.2 17.0 -17.85 13.2 -20.0 8.5 -20.0 -0.6 -20.0 -6.8 -15.8 -10.75 -13.2 -11.35 -11.35 L-12.85 -9.05 Q-14.8 -5.3 -16.0 3.3 -16.5 7.5 -16.5 13.8 -16.5 17.75 -20.75 19.95 L-23.65 21.4 Q-24.95 22.15 -25.0 23.15 L-31.8 23.15 -31.9 22.95 -32.0 22.8 -32.05 22.25 -32.05 22.15 Q-32.05 21.1 -26.25 18.75 L-20.3 16.4 -20.5 15.95 -20.55 15.9 -20.05 15.7 -20.0 15.45 -19.95 15.25 -19.95 14.9 -19.8 12.85 -19.75 12.15 -19.4 7.0 -19.3 5.35 -19.3 5.15 -19.3 5.1 -19.3 4.95 -19.3 4.85 -19.3 4.8 -19.3 4.7 -19.3 4.65 -19.35 1.25 -19.4 0.85 -19.45 0.45 -19.45 0.4 -19.4 -0.35 -18.05 -5.75 -18.85 -4.8 Q-17.8 -9.75 -15.9 -13.4 L-15.85 -13.45 -14.95 -14.45 -13.85 -16.6 -13.8 -16.65 -13.4 -17.2 -12.65 -18.05 Q-8.45 -22.6 -1.55 -24.3 L0.7 -24.7 3.8 -25.15 M23.75 -14.55 L24.35 -14.85 27.1 -16.05 27.6 -16.25 29.4 -17.0 30.9 -17.6 31.0 -17.35 32.45 -13.2 32.5 -13.2 32.75 -12.4 33.0 -11.6 Q34.9 -5.8 35.0 -1.9 L35.0 -1.45 34.8 -0.6 34.8 -0.5 34.75 -0.4 34.7 -0.3 34.65 -0.2 34.65 -0.1 34.5 0.25 34.45 0.45 34.0 1.4 33.95 1.5 33.7 2.15 33.2 3.4 30.75 2.9 30.35 2.75 29.45 2.45 29.6 2.85 28.75 2.85 28.85 2.35 29.0 -1.4 Q29.0 -5.8 27.85 -9.7 26.4 -14.55 23.75 -14.55 M21.55 33.15 L21.8 26.1 21.55 18.95 23.25 20.1 Q26.65 22.6 26.65 28.25 26.65 29.65 26.9 31.05 L26.95 31.45 Q26.55 31.45 26.5 31.6 L26.5 32.05 26.55 33.15 25.95 33.35 24.9 33.4 21.55 33.15" fill="#d7b266" fill-rule="evenodd" stroke="none"/>
      <path d="M30.85 -52.0 L30.25 -52.95 Q28.0 -56.5 26.1 -56.5 L24.55 -56.25 Q22.65 -55.7 19.8 -53.8 19.45 -54.9 16.65 -56.2 13.85 -57.5 11.8 -57.5 6.5 -57.5 5.75 -55.8 5.75 -54.5 5.4 -53.6 L3.8 -54.5 Q0.2 -56.35 -2.75 -56.35 -6.1 -56.35 -6.1 -53.6 L-5.95 -52.15 Q-7.4 -51.4 -7.4 -50.55 L-7.4 -50.5 -11.15 -50.85 Q-16.55 -50.85 -18.65 -48.85 -20.3 -46.25 -21.3 -45.05 L-20.35 -44.1 Q-21.55 -43.45 -21.55 -42.3 L-21.15 -40.7 Q-20.85 -39.95 -21.05 -39.6 L-26.0 -39.25 Q-29.55 -39.25 -31.25 -36.85 -32.1 -35.65 -32.25 -34.3 L-31.25 -32.5 -29.9 -30.8 Q-31.7 -29.3 -33.0 -26.75 -34.3 -24.3 -34.3 -22.5 L-33.65 -20.85 Q-33.0 -19.8 -33.0 -19.35 L-35.1 -15.6 Q-37.25 -11.8 -37.25 -10.85 -37.25 -8.75 -35.8 -6.75 L-34.35 -4.75 Q-34.35 -1.35 -33.75 5.9 -33.75 7.1 -35.75 10.0 -37.8 12.85 -37.8 13.55 L-37.8 13.65 -39.5 13.75 Q-43.55 13.75 -44.1 12.0 L-44.15 11.5 -43.25 11.5 Q-38.5 11.5 -37.6 9.75 L-37.5 6.1 Q-37.5 1.65 -41.5 -0.4 -45.5 -2.4 -45.5 -6.6 -45.5 -8.75 -43.75 -11.4 -42.0 -14.05 -42.0 -14.5 -42.0 -15.3 -42.15 -15.35 L-42.35 -15.25 -43.0 -15.1 Q-43.6 -16.05 -45.25 -16.85 -46.5 -17.5 -46.5 -18.35 -46.5 -21.25 -42.5 -25.45 L-38.65 -29.65 -38.6 -29.75 -38.5 -30.0 -38.55 -30.65 Q-38.9 -32.45 -40.35 -33.05 -42.0 -33.75 -42.0 -34.75 -42.0 -37.65 -38.2 -41.1 -33.9 -45.0 -28.35 -45.5 L-28.1 -45.75 -28.0 -46.5 Q-28.0 -47.25 -28.15 -47.35 L-28.35 -47.5 -28.9 -47.45 -29.45 -48.4 -30.0 -49.55 Q-30.0 -51.25 -28.0 -52.6 -24.7 -54.85 -17.0 -54.85 L-14.9 -54.8 -14.05 -55.0 -14.0 -55.0 -13.15 -55.15 -13.25 -55.35 -13.0 -55.5 -13.0 -55.6 -13.0 -56.3 -14.5 -58.75 -13.4 -60.25 Q-11.95 -61.75 -10.25 -61.75 -5.55 -61.75 -2.05 -60.05 0.75 -58.25 1.5 -58.0 L2.15 -58.5 2.25 -58.5 3.15 -58.65 3.25 -59.0 3.0 -61.85 Q3.45 -64.25 6.9 -64.25 13.35 -64.25 16.0 -61.35 L17.05 -59.65 17.25 -59.0 18.0 -58.5 18.25 -58.55 18.5 -58.5 Q19.75 -58.5 19.25 -58.85 L19.5 -59.6 19.1 -60.2 Q19.15 -61.25 20.9 -61.25 26.95 -61.25 29.5 -56.1 30.5 -54.1 30.85 -52.0" fill="#000033" fill-rule="evenodd" stroke="none"/>
      <path d="M-25.0 23.15 Q-24.95 22.15 -23.65 21.4 L-20.75 19.95 Q-16.5 17.75 -16.5 13.8 -16.5 7.5 -16.0 3.3 -14.8 -5.3 -12.85 -9.05 L-11.35 -11.35 Q-10.75 -13.2 -6.8 -15.8 -0.6 -20.0 8.5 -20.0 13.2 -20.0 17.0 -17.85 20.0 -16.2 20.0 -15.3 L20.0 -14.9 17.4 -13.9 15.2 -15.1 Q12.4 -16.75 10.65 -16.75 2.0 -16.75 -4.1 -13.8 L-8.25 -11.5 Q-10.0 -9.2 -11.0 -5.75 -12.75 0.75 -13.5 5.05 L-13.85 10.35 Q-13.95 13.85 -14.45 15.85 -15.7 20.65 -20.55 23.15 L-25.0 23.15 M25.15 2.75 Q25.1 2.2 25.2 1.55 L26.0 -2.0 Q26.0 -4.2 24.6 -8.4 L22.6 -14.05 22.65 -14.05 23.2 -14.3 23.75 -14.55 Q26.4 -14.55 27.85 -9.7 29.0 -5.8 29.0 -1.4 L28.85 2.35 28.75 2.85 25.15 2.75 M17.3 11.35 Q19.3 13.35 19.35 16.15 L19.9 16.85 Q20.05 17.75 20.85 18.45 L20.95 18.5 21.25 18.75 21.55 18.95 21.8 26.1 21.55 33.15 19.9 32.8 19.8 32.8 18.05 32.25 18.25 30.6 18.0 18.2 17.3 11.35" fill="#4d3c1a" fill-rule="evenodd" stroke="none"/>
      <path d="M6.0 -31.0 L6.45 -31.2 6.55 -31.15 11.75 -31.0 13.0 -31.0 12.7 -30.35 Q12.05 -28.8 12.0 -27.45 L8.0 -27.85 6.45 -27.9 Q-6.45 -28.0 -14.45 -18.45 -18.1 -14.05 -20.2 -8.2 L-20.5 -7.3 Q-21.55 -7.75 -23.95 -9.15 L-24.5 -9.35 -24.5 -9.6 Q-21.45 -18.5 -17.5 -22.2 -11.2 -28.1 2.45 -31.0 L6.0 -31.0 M-20.55 23.15 Q-15.7 20.65 -14.45 15.85 -13.95 13.85 -13.85 10.35 L-13.5 5.05 Q-12.75 0.75 -11.0 -5.75 -10.0 -9.2 -8.25 -11.5 L-4.1 -13.8 Q2.0 -16.75 10.65 -16.75 12.4 -16.75 15.2 -15.1 L17.4 -13.9 13.25 -12.3 Q3.75 -8.5 0.05 -5.25 L-0.05 -5.35 -0.4 -5.7 -1.0 -6.0 -4.0 -6.0 Q-4.8 -5.55 -6.0 -5.4 L-6.65 -5.25 -7.0 -4.9 -7.75 -4.1 -8.0 -3.75 -8.0 -1.9 -8.0 0.0 -8.0 0.35 -7.7 0.75 -7.5 1.1 -7.5 1.85 -7.45 2.25 -7.25 2.6 -6.9 3.0 -6.5 3.35 -6.15 3.75 -5.5 4.0 -4.75 4.0 Q-5.65 5.35 -6.05 8.2 L-6.8 14.8 Q-8.0 23.1 -14.0 23.15 L-20.55 23.15 M25.15 2.75 Q3.8 2.25 -1.85 2.45 L-2.9 2.5 Q-3.75 1.7 -5.0 1.45 L-5.4 1.25 -5.55 0.5 -5.85 -0.25 -6.0 -0.65 -6.0 -1.75 -5.95 -2.5 -5.75 -2.9 -4.0 -3.5 -3.4 -3.75 -1.65 -3.75 -1.45 -3.65 -1.5 -3.6 -0.95 -3.15 0.25 -3.0 Q0.75 -3.0 15.3 -10.5 L20.5 -13.05 23.2 -14.3 22.65 -14.05 22.6 -14.05 24.6 -8.4 Q26.0 -4.2 26.0 -2.0 L25.2 1.55 Q25.1 2.2 25.15 2.75 M17.3 11.35 L18.0 18.2 18.25 30.6 18.05 32.25 16.45 31.8 Q13.25 30.6 9.75 28.65 6.35 26.75 3.75 24.8 L2.55 23.9 2.4 23.9 Q1.65 22.5 1.35 20.35 1.2 19.0 1.2 14.25 L1.2 9.05 0.9 5.0 0.95 4.95 1.1 4.5 9.7 4.7 9.75 4.7 9.75 5.4 Q10.65 6.4 14.05 8.85 L16.05 10.3 17.3 11.35" fill="#8e6c24" fill-rule="evenodd" stroke="none"/>
      <path d="M-37.8 13.65 L-37.8 13.55 Q-37.8 12.85 -35.75 10.0 -33.75 7.1 -33.75 5.9 -34.35 -1.35 -34.35 -4.75 L-35.8 -6.75 Q-37.25 -8.75 -37.25 -10.85 -37.25 -11.8 -35.1 -15.6 L-33.0 -19.35 Q-33.0 -19.8 -33.65 -20.85 L-34.3 -22.5 Q-34.3 -24.3 -33.0 -26.75 -31.7 -29.3 -29.9 -30.8 L-31.25 -32.5 -32.25 -34.3 Q-32.1 -35.65 -31.25 -36.85 -29.55 -39.25 -26.0 -39.25 L-21.05 -39.6 Q-20.85 -39.95 -21.15 -40.7 L-21.55 -42.3 Q-21.55 -43.45 -20.35 -44.1 L-21.3 -45.05 Q-20.3 -46.25 -18.65 -48.85 -16.55 -50.85 -11.15 -50.85 L-7.4 -50.5 -7.4 -50.55 Q-7.4 -51.4 -5.95 -52.15 L-6.1 -53.6 Q-6.1 -56.35 -2.75 -56.35 0.2 -56.35 3.8 -54.5 L5.4 -53.6 Q5.75 -54.5 5.75 -55.8 6.5 -57.5 11.8 -57.5 13.85 -57.5 16.65 -56.2 19.45 -54.9 19.8 -53.8 22.65 -55.7 24.55 -56.25 L26.1 -56.5 Q28.0 -56.5 30.25 -52.95 L30.85 -52.0 30.85 -51.95 31.0 -49.9 31.0 -49.6 30.75 -47.95 30.6 -47.6 Q29.15 -43.35 22.25 -39.55 17.9 -37.35 16.25 -36.35 13.5 -34.65 13.5 -33.25 L13.5 -33.1 5.5 -33.75 5.5 -33.4 2.3 -33.1 Q-8.75 -32.55 -17.6 -24.65 -21.65 -21.05 -24.25 -16.75 -26.5 -12.95 -26.5 -10.75 L-25.85 -9.45 Q-26.3 -8.0 -26.55 -4.95 -27.1 0.65 -27.7 3.2 -29.55 11.1 -35.25 13.1 L-36.35 13.4 -37.5 13.6 -37.8 13.65" fill="#11111e" fill-rule="evenodd" stroke="none"/>
    </g>
  </defs>
</svg>
