<?xml version="1.0" encoding="UTF-8" standalone="no"?>
<svg xmlns:ffdec="https://www.free-decompiler.com/flash" xmlns:xlink="http://www.w3.org/1999/xlink" ffdec:objectType="frame" height="174.1px" width="169.3px" xmlns="http://www.w3.org/2000/svg">
  <g transform="matrix(1.0, 0.0, 0.0, 1.0, 45.8, 152.85)">
    <use ffdec:characterId="201" height="34.0" transform="matrix(1.0, 0.0, 0.0, 1.0, -24.7, -36.1)" width="46.45" xlink:href="#shape0"/>
    <use ffdec:characterId="202" height="88.5" transform="matrix(-0.7379, 0.1036, -0.139, -0.9899, -13.2039, -35.4723)" width="27.5" xlink:href="#shape1"/>
    <use ffdec:characterId="202" height="88.5" transform="matrix(-0.7379, 0.1036, -0.139, -0.9899, -7.6039, -45.9723)" width="27.5" xlink:href="#shape1"/>
    <use ffdec:characterId="202" height="88.5" transform="matrix(-0.7379, 0.1036, -0.139, -0.9899, -0.5539, -38.9223)" width="27.5" xlink:href="#shape1"/>
    <use ffdec:characterId="203" height="91.55" transform="matrix(1.0, 0.0, 0.0, 1.0, -38.35, -93.85)" width="99.4" xlink:href="#shape2"/>
    <use ffdec:characterId="204" height="71.65" transform="matrix(0.9989, 0.0262, -0.0262, 0.9989, -35.0222, -152.8492)" width="69.5" xlink:href="#shape3"/>
    <use ffdec:characterId="205" height="112.15" transform="matrix(0.9916, 0.0325, -0.0325, 0.9916, -0.0757, -138.0481)" width="64.1" xlink:href="#shape4"/>
    <use ffdec:characterId="206" height="86.4" transform="matrix(-0.0133, 0.8074, -1.0505, -0.0173, 81.5334, -105.5075)" width="40.3" xlink:href="#shape5"/>
    <use ffdec:characterId="207" height="44.45" transform="matrix(-0.0362, -0.9926, 0.9926, -0.0362, -36.1699, -62.9752)" width="30.15" xlink:href="#shape6"/>
    <use ffdec:characterId="208" height="54.85" transform="matrix(1.0, 0.0, 0.0, 1.0, 35.75, -115.15)" width="58.9" xlink:href="#shape7"/>
  </g>
  <defs>
    <g id="shape0" transform="matrix(1.0, 0.0, 0.0, 1.0, 29.45, 30.75)">
      <path d="M9.0 -1.05 L5.85 -1.1 4.45 -1.1 4.5 -15.45 11.75 -16.5 12.45 -16.6 12.5 -14.45 Q12.55 -13.2 12.95 -11.05 L13.5 -7.7 13.6 -5.2 Q11.5 -5.55 10.65 -4.2 L9.0 -1.4 9.0 -1.05 M-24.4 -1.9 Q-27.7 -5.3 -27.05 -9.25 L-26.75 -11.15 Q-23.95 -10.75 -18.35 -12.85 -13.25 -14.75 -12.4 -15.5 L-12.3 -15.4 -10.45 -13.35 Q-9.0 -11.9 -7.65 -11.35 L-9.6 -10.0 Q-10.1 -9.5 -11.9 -8.3 L-14.2 -6.7 Q-14.7 -6.2 -16.05 -5.45 -17.55 -4.75 -18.0 -4.3 L-18.55 -3.65 Q-19.8 -4.7 -21.7 -4.1 L-23.9 -2.7 -24.35 -1.95 -24.4 -1.9 M10.5 -1.05 L13.2 -2.85 14.0 -0.95 10.5 -1.05 M-24.15 -1.65 L-24.15 -1.85 -21.65 -1.55 -20.0 -1.9 Q-19.95 -1.05 -20.2 0.4 L-20.4 0.9 Q-23.2 -0.7 -24.15 -1.65" fill="#372c22" fill-rule="evenodd" stroke="none"/>
      <path d="M12.95 -26.5 Q12.9 -23.45 13.5 -20.7 13.9 -18.95 14.5 -17.65 14.4 -14.35 15.15 -10.65 16.0 -6.45 16.0 -4.15 L16.0 -2.5 16.2 -2.15 Q17.0 -0.8 17.0 0.1 L16.85 1.0 14.95 1.1 -1.0 1.75 Q-1.45 0.85 -2.25 0.25 L-2.1 0.1 -2.3 -0.65 -2.5 -2.2 Q-2.5 -7.45 -1.75 -12.35 L-2.0 -12.1 Q-3.15 -10.95 -10.25 -6.35 L-13.55 -3.65 Q-15.4 -2.4 -17.55 -2.05 -17.3 -0.3 -18.75 3.05 -19.45 3.55 -20.45 2.85 L-20.45 2.65 Q-22.7 1.9 -26.2 -0.7 -29.15 -3.65 -29.45 -8.95 -29.6 -12.5 -28.75 -14.35 L-28.7 -15.0 -28.6 -15.4 -28.85 -15.65 -28.6 -15.7 -28.15 -17.65 -26.9 -18.3 -26.3 -18.3 -24.75 -18.95 -22.7 -19.4 Q-19.2 -20.1 -17.0 -22.3 L-15.95 -22.65 Q-12.55 -25.45 -9.55 -26.65 -3.2 -29.1 1.3 -24.6 L1.55 -24.35 Q3.4 -28.25 5.9 -29.95 8.6 -31.75 10.8 -29.6 L12.95 -26.5 M9.0 -1.4 L10.65 -4.2 Q11.5 -5.55 13.6 -5.2 L13.5 -7.7 12.95 -11.05 Q12.55 -13.2 12.5 -14.45 L12.45 -16.6 11.75 -16.5 4.5 -15.45 4.45 -1.1 5.85 -1.1 9.0 -1.05 9.05 -1.05 9.35 -1.05 9.0 -1.4 M10.5 -1.05 L14.0 -0.95 13.2 -2.85 10.5 -1.05 M-12.4 -15.5 Q-13.25 -14.75 -18.35 -12.85 -23.95 -10.75 -26.75 -11.15 L-27.05 -9.25 Q-27.7 -5.3 -24.4 -1.9 L-24.15 -1.65 Q-23.2 -0.7 -20.4 0.9 -20.35 0.85 -20.25 0.95 L-20.2 0.4 Q-19.95 -1.05 -20.0 -1.9 L-21.65 -1.55 -24.15 -1.85 Q-24.25 -1.85 -24.35 -1.95 L-23.9 -2.7 -21.7 -4.1 Q-19.8 -4.7 -18.55 -3.65 L-18.0 -4.3 Q-17.55 -4.75 -16.05 -5.45 -14.7 -6.2 -14.2 -6.7 L-11.9 -8.3 Q-10.1 -9.5 -9.6 -10.0 L-7.65 -11.35 Q-9.0 -11.9 -10.45 -13.35 L-12.3 -15.4 -12.35 -15.55 -12.4 -15.5" fill="#000000" fill-rule="evenodd" stroke="none"/>
      <path d="M9.0 -1.05 L9.0 -1.4 9.05 -1.05 9.0 -1.05" fill="#5b6171" fill-rule="evenodd" stroke="none"/>
    </g>
    <g id="shape1" transform="matrix(1.0, 0.0, 0.0, 1.0, 13.75, 44.25)">
      <path d="M-3.2 -19.55 L-3.2 -19.6 -3.25 -23.1 -3.1 -26.95 Q-2.6 -29.85 -0.75 -30.25 3.5 -30.5 3.95 -27.2 L4.25 -22.2 4.25 -19.0 7.75 -18.45 Q7.25 -22.15 4.7 -28.55 L0.3 -39.25 Q-2.05 -35.85 -4.35 -29.4 L-7.7 -19.0 -4.25 -19.25 -3.2 -19.15 -3.15 -19.15 -3.2 -19.55 M1.45 -27.75 L1.25 -28.2 Q-1.95 -26.7 -1.7 -23.4 L-1.25 -20.45 -1.1 -18.75 2.45 -18.75 2.55 -18.85 1.95 -21.9 Q1.55 -24.75 1.75 -27.5 L1.45 -27.75 M5.45 -32.3 Q10.25 -20.5 10.25 -17.85 L10.0 -16.25 Q9.65 -15.75 8.5 -15.75 6.95 -15.75 5.35 -16.75 L4.25 -17.4 4.25 -17.25 3.6 -16.9 3.85 -13.65 3.75 -7.75 3.8 -1.2 3.75 3.5 3.7 13.05 Q6.45 13.4 9.8 16.55 13.25 19.8 13.25 20.9 L13.25 21.35 13.6 22.3 13.75 25.65 13.45 32.75 12.75 43.75 11.75 44.25 11.6 44.15 11.0 44.25 6.05 39.25 2.1 35.05 1.75 35.25 -1.95 35.25 -2.1 35.1 -2.1 35.05 -3.65 36.1 -6.7 38.0 Q-9.9 41.4 -11.75 42.75 -13.15 42.0 -13.55 39.05 L-13.75 34.15 Q-13.25 26.3 -13.25 22.55 -13.9 19.85 -10.6 16.95 -7.4 14.1 -2.85 13.35 L-2.75 4.75 -2.8 -1.45 -2.75 -7.7 -2.9 -13.9 -2.7 -16.75 -2.95 -16.75 -3.1 -16.9 -3.25 -17.55 -5.05 -17.1 -7.0 -16.75 Q-9.3 -16.75 -9.75 -17.85 L-9.75 -19.15 Q-9.75 -22.95 -4.9 -33.75 -1.05 -42.3 0.25 -44.25 1.15 -42.8 5.45 -32.3 M1.85 -16.75 L-0.85 -16.75 -0.65 -13.65 -0.75 -7.75 Q-0.65 -5.45 -0.7 -1.2 L-0.75 3.5 -0.85 15.2 Q-1.0 26.05 -1.35 32.5 L-0.55 32.6 0.2 32.9 0.9 32.75 1.45 32.7 1.3 31.9 1.25 29.4 1.75 4.75 1.7 -1.45 Q1.65 -5.2 1.75 -7.7 L1.6 -13.9 Q1.6 -15.55 1.85 -16.75 M3.85 14.9 L3.65 14.75 3.65 15.2 3.1 32.95 3.25 33.5 Q5.0 34.45 7.05 36.85 L10.75 41.25 10.75 40.15 11.25 21.8 11.25 21.7 8.35 19.05 3.85 14.9 M-11.6 39.2 Q-10.2 37.15 -7.4 35.5 L-2.95 33.1 -3.2 31.9 -3.25 29.4 -2.85 14.85 -5.8 16.35 Q-9.95 18.45 -10.45 21.05 L-10.85 25.4 Q-11.05 28.05 -11.75 29.3 L-11.75 39.05 -11.7 39.3 -11.6 39.2" fill="#000000" fill-rule="evenodd" stroke="none"/>
      <path d="M-3.2 -19.15 L-4.25 -19.25 -7.7 -19.0 -4.35 -29.4 Q-2.05 -35.85 0.3 -39.25 L4.7 -28.55 Q7.25 -22.15 7.75 -18.45 L4.25 -19.0 4.25 -22.2 3.95 -27.2 Q3.5 -30.5 -0.75 -30.25 -2.6 -29.85 -3.1 -26.95 L-3.25 -23.1 -3.2 -19.6 -3.2 -19.55 -3.2 -19.15 M1.45 -27.75 L1.75 -27.5 Q1.55 -24.75 1.95 -21.9 L2.55 -18.85 2.45 -18.75 -1.1 -18.75 -1.25 -20.45 -1.7 -23.4 Q-1.95 -26.7 1.25 -28.2 L1.45 -27.75" fill="#60606c" fill-rule="evenodd" stroke="none"/>
      <path d="M1.85 -16.75 Q1.6 -15.55 1.6 -13.9 L1.75 -7.7 Q1.65 -5.2 1.7 -1.45 L1.75 4.75 1.25 29.4 1.3 31.9 1.45 32.7 0.9 32.75 0.2 32.9 -0.55 32.6 -1.35 32.5 Q-1.0 26.05 -0.85 15.2 L-0.75 3.5 -0.7 -1.2 Q-0.65 -5.45 -0.75 -7.75 L-0.65 -13.65 -0.85 -16.75 1.85 -16.75" fill="#14100c" fill-rule="evenodd" stroke="none"/>
      <path d="M3.65 15.2 L3.85 14.9 8.35 19.05 11.25 21.7 11.25 21.8 10.75 40.15 10.75 41.25 7.05 36.85 Q5.0 34.45 3.25 33.5 L3.1 32.95 3.65 15.2 M-11.75 39.05 L-11.75 29.3 Q-11.05 28.05 -10.85 25.4 L-10.45 21.05 Q-9.95 18.45 -5.8 16.35 L-2.85 14.85 -3.25 29.4 -3.2 31.9 -2.95 33.1 -7.4 35.5 Q-10.2 37.15 -11.6 39.2 L-11.75 39.05" fill="#942403" fill-rule="evenodd" stroke="none"/>
    </g>
    <g id="shape2" transform="matrix(1.0, 0.0, 0.0, 1.0, 44.4, 39.55)">
      <path d="M18.05 -8.1 L25.6 -7.0 Q25.35 -7.75 25.35 -8.7 L25.5 -12.1 Q25.4 -13.25 25.45 -15.55 L25.5 -18.5 25.5 -30.55 21.55 -29.8 19.05 -29.35 17.6 -29.4 17.6 -29.5 17.55 -29.55 17.55 -29.5 12.2 -29.5 Q14.0 -27.75 15.25 -25.0 L16.15 -20.35 16.5 -16.75 Q16.5 -13.75 16.05 -11.85 L15.45 -9.3 15.4 -9.0 15.55 -8.95 15.55 -9.25 16.15 -9.25 15.75 -8.85 16.65 -8.5 17.95 -7.85 18.0 -7.8 18.05 -8.1 M28.0 -29.0 Q27.5 -27.15 27.5 -24.85 L27.5 -17.0 28.0 -17.0 28.7 -16.45 29.45 -16.55 39.7 -17.05 Q39.1 -18.8 38.95 -21.5 L39.0 -28.1 38.9 -29.85 39.0 -30.35 31.15 -30.75 28.5 -30.7 28.0 -29.0 M12.9 -24.65 L12.8 -24.9 11.85 -27.0 Q10.45 -29.35 8.75 -29.35 L7.2 -29.35 7.0 -29.35 6.6 -29.35 -1.45 -29.15 Q0.2 -27.8 2.0 -25.45 L2.65 -24.5 3.25 -23.6 4.2 -22.15 5.05 -20.65 6.25 -18.45 6.3 -18.35 6.45 -18.05 7.3 -16.45 8.05 -14.95 8.45 -14.2 8.5 -14.1 8.55 -14.0 8.95 -13.3 9.45 -12.4 10.1 -11.2 10.25 -10.9 11.8 -8.05 12.0 -7.65 12.65 -6.3 12.95 -7.7 13.05 -8.15 13.55 -10.75 13.65 -11.25 14.1 -13.6 14.25 -14.4 14.5 -16.15 14.5 -16.75 14.45 -18.0 14.35 -19.0 13.95 -21.15 13.65 -22.45 13.05 -24.25 12.9 -24.65 M8.9 -31.6 L10.8 -31.8 17.15 -32.2 17.25 -32.35 19.1 -32.3 25.0 -32.75 Q25.0 -33.0 40.5 -32.5 L51.55 -31.95 51.55 -31.55 Q53.9 -31.65 54.7 -28.75 55.0 -27.55 55.0 -23.75 L54.85 -19.85 Q54.4 -17.7 52.55 -15.5 L52.6 -15.1 52.0 -15.0 28.3 -15.0 28.2 -15.05 27.5 -15.0 27.5 -6.1 27.45 -6.05 27.5 -6.0 Q27.0 -5.0 25.75 -5.0 L17.75 -5.45 17.85 -6.1 17.0 -6.0 14.95 -6.3 14.8 -5.1 Q14.0 -1.0 14.0 0.8 14.0 2.05 13.45 3.65 12.7 5.7 11.4 6.0 L11.25 6.3 10.35 6.3 10.5 7.6 10.35 9.75 10.6 11.3 11.15 12.7 11.1 13.45 11.6 13.45 12.15 14.05 Q12.9 14.25 13.45 14.85 L13.8 14.95 Q15.15 18.15 15.95 19.1 L19.35 23.15 19.8 23.8 19.95 24.0 21.85 27.0 23.4 30.4 24.6 32.9 24.6 33.65 24.45 34.05 24.45 34.3 Q24.4 34.45 24.0 34.5 23.6 35.25 21.65 36.15 L21.65 36.25 22.6 38.8 23.85 42.25 Q24.6 44.35 24.6 45.15 L24.45 46.1 24.2 46.25 Q24.75 46.45 24.0 46.5 23.3 47.8 19.1 49.3 L18.65 49.5 18.1 49.5 Q16.65 49.7 15.5 50.7 L15.2 50.45 Q8.35 52.0 -2.4 52.0 L-19.4 51.2 Q-24.85 50.4 -28.75 48.5 L-29.9 48.5 Q-32.05 48.5 -33.4 47.0 -34.4 45.85 -34.4 44.8 -33.25 40.3 -32.1 38.1 -33.3 37.2 -33.9 36.15 L-34.25 35.7 -34.4 34.95 Q-37.6 34.4 -39.6 32.25 -41.0 30.85 -41.65 28.9 L-42.05 27.25 Q-43.2 22.9 -43.3 8.95 L-43.35 8.75 Q-43.6 7.7 -43.45 2.7 L-43.35 -2.8 -43.85 -8.6 Q-44.15 -11.9 -43.85 -14.3 -43.5 -16.5 -43.85 -20.5 L-44.4 -27.2 Q-44.65 -35.0 -40.55 -36.9 L-40.6 -37.0 -31.65 -38.85 Q-19.9 -40.9 -18.75 -36.75 L-18.5 -34.1 -18.4 -32.8 Q-18.0 -32.15 -18.0 -31.35 L-18.0 -30.95 Q-11.95 -31.85 -3.0 -31.25 3.75 -32.85 7.5 -32.0 L8.9 -31.6 M17.55 -29.9 L17.55 -30.0 17.55 -29.9 M1.25 -4.6 L1.15 -4.85 0.05 -7.05 0.0 -7.1 -2.05 -10.45 -2.85 -11.5 -2.9 -11.6 -3.25 -12.0 -3.6 -12.5 -4.35 -13.55 -5.8 -15.75 -5.95 -16.0 -7.05 -17.7 -7.15 -17.9 -8.2 -19.6 -8.3 -19.7 -8.5 -20.05 -9.85 -21.8 -9.9 -21.85 -10.0 -21.9 -10.05 -22.0 -11.95 -23.95 -12.15 -24.15 Q-14.3 -26.15 -16.85 -27.7 L-17.55 -28.1 -19.75 -27.85 -23.35 -27.25 Q-24.9 -26.8 -26.85 -24.75 L-27.85 -23.45 -28.25 -22.8 -28.6 -21.95 -28.8 -21.45 -28.95 -20.5 -29.0 -18.9 -29.0 -17.95 -29.0 -17.35 -28.9 -15.5 -28.9 -15.05 -28.8 -13.9 -28.55 -11.2 -28.5 -10.55 -28.3 -9.0 -27.9 -6.5 -27.85 -6.35 -27.85 -6.15 -27.75 -5.7 -27.7 -5.3 -27.5 -4.35 -27.45 -4.0 -27.05 -2.25 -26.35 0.7 -26.3 0.75 -25.8 2.5 -25.65 2.85 -24.5 6.0 -24.1 5.9 -16.0 5.0 -15.15 4.95 -13.85 4.8 -12.65 4.65 -12.5 4.6 -8.5 4.0 4.45 4.1 Q3.9 2.85 3.3 0.9 L3.0 -0.1 2.8 -0.85 2.75 -0.9 2.5 -1.55 2.45 -1.7 2.25 -2.25 1.25 -4.6 M12.25 -2.85 Q7.55 -9.2 4.5 -17.0 1.8 -23.95 -1.95 -26.95 L-4.15 -28.45 -4.75 -29.0 -11.65 -28.6 -14.15 -28.4 Q-7.45 -25.0 -1.1 -13.25 1.3 -9.8 3.75 -4.05 L7.15 4.15 8.45 4.15 9.75 4.25 10.75 3.0 Q12.0 1.8 12.0 -0.6 L12.25 -2.85 M41.0 -30.25 L41.2 -28.8 Q41.25 -26.15 41.5 -25.35 L41.5 -17.1 51.3 -17.25 51.6 -17.3 52.25 -20.05 53.0 -23.4 53.0 -24.35 Q52.85 -26.45 52.1 -27.9 51.45 -29.15 50.35 -29.9 L41.0 -30.25 M-24.2 15.0 L-24.35 15.85 -18.4 15.2 -9.05 14.55 7.55 13.9 7.55 13.7 8.7 13.8 9.15 13.8 9.1 13.75 8.95 13.0 9.1 13.0 9.05 10.55 9.0 9.75 Q8.5 8.85 8.5 7.75 L8.5 7.65 8.7 6.3 2.45 6.25 3.3 6.8 3.5 6.9 -3.05 7.0 0.2 6.3 -3.1 6.55 -3.2 6.55 -16.5 7.5 -22.1 8.1 -22.55 8.15 -24.55 8.5 -24.5 8.8 -24.8 9.05 -24.9 9.15 -24.6 10.0 -24.5 12.35 -24.55 15.0 -24.5 15.0 -24.2 15.0 M7.65 17.1 L7.2 17.1 7.1 17.1 6.4 17.15 4.8 17.2 3.85 17.2 0.9 17.35 Q-1.4 16.25 -5.1 16.75 -6.5 16.9 -7.45 17.8 L-7.4 17.65 -7.5 17.65 -15.8 18.1 -18.8 18.3 -19.3 18.3 -19.4 18.3 -20.35 18.4 -20.45 18.4 -20.65 18.4 -23.2 18.55 -24.95 18.4 -25.8 20.05 -26.45 21.25 -26.75 21.75 -26.95 22.05 -27.75 23.45 -28.4 24.5 -28.6 24.8 -28.8 25.2 -30.95 29.9 -31.2 30.6 -31.25 30.65 -31.4 31.15 -31.5 31.35 -32.0 33.0 -32.05 33.25 -32.1 33.5 -32.35 35.1 -32.3 35.1 -31.45 35.7 -31.4 35.75 -30.75 35.6 Q-30.4 35.1 -29.55 34.85 L-29.1 34.75 -27.8 34.3 -25.95 33.7 -24.85 33.3 -23.25 32.55 -19.6 30.75 -18.05 29.75 -16.3 28.5 -15.1 27.6 -14.7 27.3 -14.05 26.8 Q-11.6 25.05 -10.4 25.1 L-10.3 24.85 -10.15 24.7 -9.4 24.6 -8.3 24.7 -8.1 24.75 -7.95 25.45 -7.55 26.4 -7.4 26.6 -7.2 26.95 -6.0 28.45 -3.95 30.45 -2.3 31.85 4.25 37.55 5.2 35.65 7.3 31.75 Q7.65 31.0 8.45 29.95 L8.9 29.45 9.75 28.3 10.3 27.0 10.3 26.95 10.4 26.8 Q10.65 26.55 11.1 26.45 L11.0 26.05 Q12.0 25.9 13.1 26.55 L13.05 26.55 13.9 27.15 14.0 27.25 14.15 27.35 15.6 28.85 15.8 29.05 16.4 29.55 21.0 33.0 20.95 33.35 Q21.4 33.55 21.65 33.75 L22.35 33.5 20.3 29.95 19.8 28.75 19.75 28.75 19.7 28.6 19.65 28.5 18.9 26.85 18.7 26.45 18.55 26.1 18.05 25.05 17.35 25.0 17.05 25.0 16.6 24.15 16.55 24.15 16.45 23.9 15.7 22.7 15.25 22.05 14.95 21.8 14.1 20.45 12.95 18.65 12.4 17.95 12.4 17.9 10.9 17.0 9.55 17.05 9.25 16.95 8.55 17.05 8.25 17.05 7.65 17.1 M19.05 34.65 L17.75 34.25 17.9 33.8 Q16.4 32.9 14.45 30.85 L13.5 29.85 12.25 28.35 10.65 31.0 8.5 34.05 7.55 37.1 Q6.85 39.05 5.35 39.45 L5.25 39.7 4.25 40.0 Q3.5 40.0 0.35 37.15 L-3.5 33.5 -8.45 29.85 Q-10.05 28.55 -10.4 27.1 -12.2 28.65 -17.75 32.05 L-22.6 34.85 -23.5 35.4 Q-26.3 36.9 -29.9 37.45 L-29.85 37.5 -30.0 37.5 -30.0 37.55 -30.0 37.95 -29.65 39.35 -30.05 39.2 -30.05 39.25 -30.9 41.05 -32.4 44.6 Q-32.4 45.6 -30.85 46.15 L-29.7 46.6 -29.3 46.45 -29.2 46.5 -28.6 46.8 -26.9 47.45 -26.1 47.7 -22.3 48.5 -22.0 48.55 -2.65 49.75 10.7 49.15 13.1 48.5 15.35 48.35 16.15 48.2 16.75 47.95 18.1 47.05 Q18.3 46.95 18.65 46.8 L18.7 46.8 20.7 45.9 Q21.65 45.45 22.25 45.25 21.5 44.0 20.6 41.45 L19.6 38.05 18.85 38.1 19.25 37.65 19.4 37.6 19.4 37.55 19.35 37.45 19.5 36.9 Q19.5 35.85 18.25 35.05 L18.2 35.05 18.75 34.85 18.8 34.8 19.0 34.75 19.1 34.7 19.05 34.65 M-24.7 40.7 L-24.1 40.75 -22.9 40.95 -23.35 40.9 -23.95 40.85 -24.7 40.7 -25.1 40.65 -25.05 40.65 -24.7 40.7 M-39.35 -34.65 L-39.35 -34.6 -39.55 -34.3 -39.65 -34.15 -39.8 -34.0 -40.45 -33.35 Q-42.05 -31.9 -42.05 -29.75 L-42.1 -26.75 -42.25 -23.75 -42.15 -18.55 -41.85 -12.7 -41.5 -1.5 -41.5 3.65 Q-42.2 5.15 -41.55 7.7 L-41.05 9.3 -41.0 11.65 -40.85 18.35 Q-40.55 24.65 -40.15 26.45 L-40.15 26.55 -40.1 26.7 -40.05 26.8 Q-39.2 29.6 -36.6 31.55 L-34.55 32.65 -34.2 32.75 -34.1 32.45 -33.4 30.4 -33.2 29.7 Q-32.35 27.5 -30.9 24.65 L-29.7 22.5 -29.4 21.55 -28.0 17.7 -27.05 15.95 -27.05 14.7 -27.0 13.75 -27.0 8.25 -26.5 7.8 -26.3 6.85 Q-28.6 5.55 -30.0 -5.9 -30.75 -12.35 -31.0 -18.9 -31.0 -24.25 -28.4 -26.75 -25.7 -29.3 -20.5 -30.5 L-20.5 -31.1 -20.45 -31.9 -20.5 -31.9 -20.65 -33.9 Q-20.55 -35.6 -20.7 -36.2 -21.1 -37.65 -23.75 -37.55 L-35.85 -35.9 -39.25 -34.95 -39.35 -34.65 M-6.35 -27.15 L-6.35 -27.2 -6.1 -27.15 -6.35 -27.15" fill="#000000" fill-rule="evenodd" stroke="none"/>
      <path d="M7.2 -29.35 L7.0 -29.25 7.0 -29.35 7.2 -29.35 M7.3 -16.45 L6.45 -18.05 6.45 -18.35 6.45 -18.7 6.45 -18.8 6.5 -18.75 6.55 -18.45 6.6 -18.45 6.7 -18.0 7.05 -16.95 7.3 -16.45" fill="#372c22" fill-rule="evenodd" stroke="none"/>
      <path d="M6.45 -18.05 L6.3 -18.35 6.45 -18.35 6.45 -18.05 M-12.5 4.6 L-12.65 4.65 -12.6 4.15 -12.5 4.6 M-34.55 32.65 L-36.6 31.55 Q-39.2 29.6 -40.05 26.8 L-40.1 26.7 -40.15 26.55 -40.15 26.45 Q-40.55 24.65 -40.85 18.35 L-41.0 11.65 -41.05 9.3 -41.55 7.7 Q-42.2 5.15 -41.5 3.65 L-41.5 -1.5 -41.85 -12.7 -42.15 -18.55 -42.25 -23.75 -42.1 -26.75 -42.05 -29.75 Q-42.05 -31.9 -40.45 -33.35 L-39.8 -34.0 -39.65 -34.15 -39.55 -34.3 -39.35 -34.6 -39.35 -34.65 Q-38.3 -34.25 -38.1 -33.45 L-38.45 -27.4 -38.9 -19.2 -39.15 -12.15 -39.25 -5.1 -38.5 10.25 Q-37.8 21.65 -37.5 22.8 L-34.4 30.5 -33.4 30.4 -34.1 32.45 -34.55 32.65" fill="#221c15" fill-rule="evenodd" stroke="none"/>
      <path d="M12.25 -2.85 L12.0 -0.6 Q12.0 1.8 10.75 3.0 L9.75 4.25 8.45 4.15 7.15 4.15 3.75 -4.05 Q1.3 -9.8 -1.1 -13.25 -7.45 -25.0 -14.15 -28.4 L-11.65 -28.6 -4.75 -29.0 -4.15 -28.45 -1.95 -26.95 Q1.8 -23.95 4.5 -17.0 7.55 -9.2 12.25 -2.85 M-24.55 15.0 L-24.5 12.35 -24.6 10.0 -24.9 9.15 -24.8 9.05 -24.5 8.8 -24.55 8.5 -22.55 8.15 -22.1 8.1 -16.5 7.5 -3.2 6.55 -3.1 6.55 0.2 6.3 -3.05 7.0 3.5 6.9 3.3 6.8 2.45 6.25 8.7 6.3 8.5 7.65 8.5 7.75 Q8.5 8.85 9.0 9.75 L9.05 10.55 9.1 13.0 8.95 13.0 9.1 13.75 9.15 13.8 8.7 13.8 7.55 13.7 7.55 13.9 -9.05 14.55 -18.4 15.2 -24.35 15.85 -24.2 15.0 -24.55 15.0 M-39.35 -34.65 L-39.25 -34.95 -35.85 -35.9 -23.75 -37.55 Q-21.1 -37.65 -20.7 -36.2 -20.55 -35.6 -20.65 -33.9 L-20.5 -31.9 -20.45 -31.9 -20.5 -31.1 -20.5 -30.5 Q-25.7 -29.3 -28.4 -26.75 -31.0 -24.25 -31.0 -18.9 -30.75 -12.35 -30.0 -5.9 -28.6 5.55 -26.3 6.85 L-26.5 7.8 -27.0 8.25 -27.0 13.75 -27.05 14.7 -27.05 15.95 -28.0 17.7 -29.4 21.55 -29.7 22.5 -30.9 24.65 Q-32.35 27.5 -33.2 29.7 L-33.4 30.4 -34.4 30.5 -37.5 22.8 Q-37.8 21.65 -38.5 10.25 L-39.25 -5.1 -39.15 -12.15 -38.9 -19.2 -38.45 -27.4 -38.1 -33.45 Q-38.3 -34.25 -39.35 -34.65 M-6.35 -27.15 L-6.1 -27.15 -6.35 -27.2 -6.35 -27.15" fill="#14100c" fill-rule="evenodd" stroke="none"/>
      <path d="M-34.1 32.45 L-34.2 32.75 -34.55 32.65 -34.1 32.45" fill="#221f1c" fill-rule="evenodd" stroke="none"/>
      <path d="M7.1 17.1 L7.1 17.15 6.4 17.15 7.1 17.1" fill="#332e28" fill-rule="evenodd" stroke="none"/>
      <path d="M8.25 17.05 L8.55 17.05 8.35 17.15 8.25 17.05" fill="#0033ff" fill-rule="evenodd" stroke="none"/>
      <path d="M7.1 17.1 L7.2 17.1 7.65 17.1 7.2 17.4 7.1 17.15 7.1 17.1 M19.0 34.75 L19.05 34.65 19.1 34.7 19.0 34.75" fill="#2c262d" fill-rule="evenodd" stroke="none"/>
      <path d="M7.0 -29.25 L6.6 -29.35 7.0 -29.35 7.0 -29.25 M-31.25 30.65 L-31.2 30.6 -30.95 29.9 -28.8 25.2 -29.0 25.6 -29.2 26.25 -29.25 26.4 -29.5 27.0 -30.2 28.5 -30.3 28.75 -30.45 29.0 -30.9 29.95 -31.2 30.6 -31.25 30.65 M-19.4 18.3 L-19.3 18.3 -19.4 18.35 -19.4 18.3 M-7.5 17.65 L-7.4 17.65 -7.45 17.8 -7.5 17.65" fill="#1c181d" fill-rule="evenodd" stroke="none"/>
      <path d="M15.45 -9.3 L15.55 -9.25 15.55 -8.95 15.4 -9.0 15.45 -9.3" fill="#331a4d" fill-rule="evenodd" stroke="none"/>
      <path d="M19.25 37.65 L19.35 37.45 19.4 37.55 19.4 37.6 19.25 37.65 M-29.65 39.35 L-29.65 39.4 -30.05 39.25 -30.05 39.2 -29.65 39.35" fill="#663399" fill-rule="evenodd" stroke="none"/>
      <path d="M28.0 -29.0 L28.5 -30.7 31.15 -30.75 39.0 -30.35 38.9 -29.85 39.0 -28.1 38.95 -21.5 Q39.1 -18.8 39.7 -17.05 L29.45 -16.55 28.7 -16.45 28.0 -17.0 27.5 -17.0 27.5 -24.85 Q27.5 -27.15 28.0 -29.0 M7.2 -29.35 L8.75 -29.35 Q10.45 -29.35 11.85 -27.0 L12.8 -24.9 12.9 -24.65 2.65 -24.5 2.0 -25.45 Q0.2 -27.8 -1.45 -29.15 L6.6 -29.35 7.0 -29.25 7.2 -29.35 M13.65 -22.45 L13.95 -21.15 14.35 -19.0 14.45 -18.0 6.7 -18.0 6.6 -18.45 6.5 -18.75 6.45 -18.8 6.45 -18.7 6.45 -18.35 6.3 -18.35 6.25 -18.45 5.05 -20.65 4.2 -22.15 13.65 -22.45 M14.5 -16.15 L14.25 -14.4 14.1 -13.6 8.95 -13.3 8.55 -14.0 8.55 -14.1 8.5 -14.1 8.45 -14.2 8.05 -14.95 7.3 -16.45 7.05 -16.95 7.55 -15.95 14.5 -16.15 M13.65 -11.25 L13.55 -10.75 13.05 -8.15 11.8 -8.05 10.25 -10.9 13.65 -11.25 M0.0 -7.1 L-15.25 -6.0 Q-23.95 -5.25 -27.5 -4.35 L-27.7 -5.3 -27.75 -5.7 -27.85 -6.15 -27.85 -6.35 -27.85 -6.5 -27.9 -6.5 -28.3 -9.0 -21.0 -9.0 -14.15 -9.65 -2.05 -10.45 0.0 -7.1 M-27.05 -2.25 L1.25 -4.6 2.25 -2.25 -13.5 -0.95 -26.35 0.7 -27.05 -2.25 M3.0 -0.1 L3.3 0.9 Q3.9 2.85 4.45 4.1 L-8.5 4.0 -12.5 4.6 -12.6 4.15 -12.65 4.65 -13.85 4.8 -15.15 4.95 -16.0 5.0 -24.1 5.9 -24.5 6.0 -25.65 2.85 -25.8 2.5 -24.0 2.5 Q-20.15 1.2 -15.75 1.0 L-5.0 0.5 3.0 -0.1 M7.1 17.15 L7.2 17.4 7.65 17.1 8.25 17.05 8.35 17.15 8.55 17.05 9.25 16.95 9.55 17.05 10.9 17.0 12.4 17.9 5.85 18.65 -3.1 20.25 -23.1 21.75 -26.95 22.05 -26.75 21.75 -26.45 21.25 -25.8 20.05 -24.95 18.4 -23.2 18.55 -20.65 18.4 -20.45 18.4 -20.35 18.4 -19.4 18.3 -19.4 18.35 -19.3 18.3 -18.8 18.3 -15.8 18.1 -7.5 17.65 -7.45 17.8 Q-6.5 16.9 -5.1 16.75 -1.4 16.25 0.9 17.35 L3.85 17.2 4.8 17.2 6.4 17.15 7.1 17.15 M14.1 20.45 L14.95 21.8 15.25 22.05 5.0 23.15 -5.5 24.5 -8.3 24.7 -9.4 24.6 -10.15 24.7 -10.3 24.85 -27.7 26.15 -29.25 26.4 -29.2 26.25 -29.0 25.6 -28.8 25.2 -28.6 24.8 -28.4 24.5 Q-21.15 24.5 -3.35 22.4 L14.1 20.45 M16.6 24.15 L17.05 25.0 17.35 25.0 18.05 25.05 18.55 26.1 16.0 26.25 13.1 26.55 Q12.0 25.9 11.0 26.05 L11.1 26.45 Q10.65 26.55 10.4 26.8 L-6.0 28.45 -7.2 26.95 1.55 25.85 16.6 24.15 M19.65 28.5 L19.7 28.6 19.75 28.75 19.8 28.75 20.3 29.95 22.35 33.5 21.65 33.75 Q21.4 33.55 20.95 33.35 L21.0 33.0 16.4 29.55 15.8 29.05 15.6 28.85 19.65 28.5 M8.9 29.45 L8.45 29.95 Q7.65 31.0 7.3 31.75 L5.2 35.65 4.25 37.55 -2.3 31.85 -3.95 30.45 -3.6 30.75 -0.05 30.35 8.9 29.45 M-15.1 27.6 L-16.3 28.5 -18.05 29.75 -31.5 31.35 -31.4 31.15 -31.25 30.65 -31.2 30.6 -30.9 29.95 -30.45 29.0 -30.3 28.75 -30.2 28.5 -21.5 28.5 -15.55 27.9 -15.1 27.6 M-23.25 32.55 L-24.85 33.3 -25.95 33.7 -27.8 34.3 -29.1 34.75 -29.55 34.85 Q-30.4 35.1 -30.75 35.6 L-31.4 35.75 -31.45 35.7 -32.3 35.1 -32.35 35.1 -32.1 33.5 -32.05 33.25 -32.0 33.0 -29.5 33.0 -23.25 32.55 M-27.85 -23.45 L-26.85 -24.75 Q-24.9 -26.8 -23.35 -27.25 L-19.75 -27.85 -17.55 -28.1 -16.85 -27.7 Q-14.3 -26.15 -12.15 -24.15 L-25.9 -23.6 -27.85 -23.45 M-9.85 -21.8 L-8.5 -20.05 -8.3 -19.7 -8.2 -19.6 -7.15 -17.9 -13.0 -17.75 -28.6 -17.4 -29.0 -17.35 -29.0 -17.95 -29.0 -18.9 -28.95 -20.5 -28.8 -21.45 -28.6 -21.95 -28.75 -21.5 -24.0 -21.5 -9.85 -21.8 M-5.8 -15.75 L-4.35 -13.55 -3.6 -12.5 -10.05 -12.15 -28.5 -10.55 -28.55 -11.2 -28.8 -13.9 -28.9 -15.05 -12.85 -15.75 -5.8 -15.75" fill="#333333" fill-rule="evenodd" stroke="none"/>
      <path d="M2.65 -24.5 L12.9 -24.65 13.05 -24.25 13.65 -22.45 4.2 -22.15 3.25 -23.6 2.65 -24.5 M14.45 -18.0 L14.5 -16.75 14.5 -16.15 7.55 -15.95 7.05 -16.95 6.7 -18.0 14.45 -18.0 M14.1 -13.6 L13.65 -11.25 10.25 -10.9 10.1 -11.2 9.45 -12.4 8.95 -13.3 14.1 -13.6 M13.05 -8.15 L12.95 -7.7 12.65 -6.3 12.0 -7.65 11.8 -8.05 13.05 -8.15 M8.55 -14.0 L8.5 -14.1 8.55 -14.1 8.55 -14.0 M6.5 -18.75 L6.6 -18.45 6.55 -18.45 6.5 -18.75 M0.0 -7.1 L0.05 -7.05 1.15 -4.85 1.25 -4.6 -27.05 -2.25 -27.45 -4.0 -27.5 -4.35 Q-23.95 -5.25 -15.25 -6.0 L0.0 -7.1 M2.25 -2.25 L2.45 -1.7 2.5 -1.55 2.75 -0.9 2.8 -0.85 3.0 -0.1 -5.0 0.5 -15.75 1.0 Q-20.15 1.2 -24.0 2.5 L-25.8 2.5 -26.3 0.75 -26.35 0.7 -13.5 -0.95 2.25 -2.25 M12.95 -7.7 L12.0 -7.65 12.95 -7.7 M12.4 17.9 L12.4 17.95 12.95 18.65 14.1 20.45 -3.35 22.4 Q-21.15 24.5 -28.4 24.5 L-27.75 23.45 -26.95 22.05 -23.1 21.75 -3.1 20.25 5.85 18.65 12.4 17.9 M15.25 22.05 L15.7 22.7 16.45 23.9 16.55 24.15 16.6 24.15 1.55 25.85 -7.2 26.95 -7.4 26.6 -7.55 26.4 -7.95 25.45 -8.1 24.75 -8.3 24.7 -5.5 24.5 5.0 23.15 15.25 22.05 M18.55 26.1 L18.7 26.45 18.9 26.85 19.65 28.5 15.6 28.85 14.15 27.35 14.0 27.25 13.9 27.15 13.05 26.55 13.1 26.55 16.0 26.25 18.55 26.1 M19.7 28.6 L19.75 28.75 19.8 28.75 19.75 28.75 19.7 28.6 M10.4 26.8 L10.3 26.95 10.3 27.0 9.75 28.3 8.9 29.45 -0.05 30.35 -3.6 30.75 -3.95 30.45 -6.0 28.45 10.4 26.8 M-10.3 24.85 L-10.4 25.1 Q-11.6 25.05 -14.05 26.8 L-14.7 27.3 -15.1 27.6 -15.55 27.9 -21.5 28.5 -30.2 28.5 -29.5 27.0 -29.25 26.4 -27.7 26.15 -10.3 24.85 M-18.05 29.75 L-19.6 30.75 -23.25 32.55 -29.5 33.0 -32.0 33.0 -31.5 31.35 -18.05 29.75 M16.55 24.15 L16.45 24.15 16.45 23.9 16.45 24.15 16.55 24.15 M-27.85 -23.45 L-25.9 -23.6 -12.15 -24.15 -11.95 -23.95 -10.05 -22.0 -10.0 -21.9 -9.9 -21.85 -9.85 -21.8 -24.0 -21.5 -28.75 -21.5 -28.6 -21.95 -28.25 -22.8 -27.85 -23.45 M-7.15 -17.9 L-7.05 -17.7 -5.95 -16.0 -5.8 -15.75 -12.85 -15.75 -28.9 -15.05 -28.9 -15.5 -29.0 -17.35 -28.6 -17.4 -13.0 -17.75 -7.15 -17.9 M-3.6 -12.5 L-3.25 -12.0 -2.9 -11.6 -2.85 -11.5 -2.05 -10.45 -14.15 -9.65 -21.0 -9.0 -28.3 -9.0 -28.5 -10.55 -10.05 -12.15 -3.6 -12.5 M-27.9 -6.5 L-27.85 -6.5 -27.85 -6.35 -27.9 -6.5 M-10.05 -22.0 L-10.3 -21.8 -9.9 -21.85 -10.3 -21.8 -10.05 -22.0 M-20.75 30.5 L-20.85 30.55 -20.85 30.5 -20.75 30.5 -20.85 30.5 -20.85 30.55 -20.75 30.5" fill="#1a1a1a" fill-rule="evenodd" stroke="none"/>
      <path d="M41.0 -30.25 L50.35 -29.9 Q51.45 -29.15 52.1 -27.9 52.85 -26.45 53.0 -24.35 L53.0 -23.4 52.25 -20.05 51.6 -17.3 51.3 -17.25 41.5 -17.1 41.5 -25.35 Q41.25 -26.15 41.2 -28.8 L41.0 -30.25" fill="#aa8a71" fill-rule="evenodd" stroke="none"/>
      <path d="M13.5 29.85 L14.45 30.85 Q16.4 32.9 17.9 33.8 L17.75 34.25 19.05 34.65 19.0 34.75 18.8 34.8 18.75 34.85 18.2 35.05 18.25 35.05 Q19.5 35.85 19.5 36.9 L19.35 37.45 19.25 37.65 18.85 38.1 19.6 38.05 20.6 41.45 Q21.5 44.0 22.25 45.25 21.65 45.45 20.7 45.9 L18.7 46.8 Q17.15 44.7 15.55 39.05 L13.5 30.1 13.5 29.85 M-23.5 35.4 L-23.5 35.5 Q-23.5 36.5 -24.7 40.7 L-25.4 42.85 -26.9 47.45 -28.6 46.8 -29.2 46.5 -29.3 46.45 -29.7 46.6 -30.85 46.15 Q-32.4 45.6 -32.4 44.6 L-30.9 41.05 -30.05 39.25 -29.65 39.4 -29.65 39.35 -30.0 37.95 -30.0 37.55 -30.0 37.5 -29.85 37.5 -29.9 37.45 Q-26.3 36.9 -23.5 35.4 M-24.7 40.7 L-25.05 40.65 -25.1 40.65 -24.7 40.7" fill="#942403" fill-rule="evenodd" stroke="none"/>
      <path d="M17.6 -29.4 L19.05 -29.35 21.55 -29.8 25.5 -30.55 25.5 -18.5 25.45 -15.55 Q25.4 -13.25 25.5 -12.1 L25.35 -8.7 Q25.35 -7.75 25.6 -7.0 L18.05 -8.1 17.95 -7.85 16.65 -8.5 15.75 -8.85 16.15 -9.25 15.55 -9.25 15.45 -9.3 16.05 -11.85 Q16.5 -13.75 16.5 -16.75 L16.15 -20.35 15.25 -25.0 Q14.0 -27.75 12.2 -29.5 L17.55 -29.5 17.6 -29.4 M13.5 29.85 L13.5 30.1 15.55 39.05 Q17.15 44.7 18.7 46.8 L18.65 46.8 Q18.3 46.95 18.1 47.05 L16.75 47.95 16.15 48.2 15.35 48.35 13.1 48.5 10.7 49.15 -2.65 49.75 -22.0 48.55 -22.3 48.5 -26.1 47.7 -26.9 47.45 -25.4 42.85 -24.7 40.7 Q-23.5 36.5 -23.5 35.5 L-23.5 35.4 -22.6 34.85 -17.75 32.05 Q-12.2 28.65 -10.4 27.1 -10.05 28.55 -8.45 29.85 L-3.5 33.5 0.35 37.15 Q3.5 40.0 4.25 40.0 L5.25 39.7 5.35 39.45 Q6.85 39.05 7.55 37.1 L8.5 34.05 10.65 31.0 12.25 28.35 13.5 29.85 M-24.7 40.7 L-23.95 40.85 -23.35 40.9 -22.9 40.95 -24.1 40.75 -24.7 40.7" fill="#731c02" fill-rule="evenodd" stroke="none"/>
    </g>
    <g id="shape3" transform="matrix(1.0, 0.0, 0.0, 1.0, 34.35, 43.55)">
      <path d="M31.85 2.8 L32.0 2.8 Q32.6 2.8 32.35 2.5 L32.3 1.15 32.25 -1.55 31.95 -2.8 Q31.7 -5.05 30.85 -7.55 29.85 -10.55 27.2 -16.55 L27.25 -16.6 22.4 -23.6 Q15.6 -32.7 6.7 -39.1 L5.45 -40.0 4.15 -40.85 3.4 -41.35 3.0 -41.6 2.95 -41.55 2.9 -41.5 2.85 -41.35 1.55 -39.75 0.65 -38.8 -5.3 -32.3 -5.85 -31.6 -12.3 -21.5 -12.7 -20.8 -12.75 -20.7 -12.75 -20.6 -12.8 -20.6 -12.8 -20.5 -14.85 -15.75 -16.85 -9.65 -17.8 -5.9 -17.85 -5.9 -17.9 -5.9 -17.95 -5.4 -18.05 -4.85 -18.3 -2.95 -18.9 2.75 -19.1 2.85 -19.1 4.85 -19.1 4.9 -19.1 5.0 -19.1 5.05 -19.1 5.15 -19.1 5.3 -19.1 5.35 -19.1 5.55 -19.2 7.2 -19.55 12.35 -19.6 13.05 -19.75 15.1 -19.75 15.45 -19.8 15.65 -19.85 15.9 -20.35 16.1 -20.3 16.15 -20.1 16.6 -26.05 18.95 Q-31.85 21.3 -31.85 22.35 L-31.85 22.45 -31.8 23.0 -31.7 23.15 -31.6 23.35 -24.5 23.35 -13.8 23.35 Q-7.8 23.3 -6.6 15.0 L-5.85 8.4 Q-5.45 5.55 -4.55 4.2 L-4.6 3.5 -4.7 3.0 -1.65 2.65 Q4.4 2.45 28.55 3.05 L28.6 3.1 28.65 3.05 29.8 3.05 31.65 3.1 31.85 3.1 32.25 3.1 31.95 2.95 31.85 2.8 M1.7 -43.55 Q8.5 -43.75 20.0 -30.95 24.4 -26.05 27.6 -21.25 29.85 -17.9 30.5 -16.2 L32.1 -12.8 Q34.25 -7.4 34.65 -4.4 L34.75 -4.4 34.85 -3.6 35.0 -3.45 35.1 -3.3 35.05 -3.0 35.15 -2.5 Q35.15 0.25 34.75 2.75 L34.8 3.4 34.6 4.15 34.3 4.45 34.2 4.8 33.95 5.1 30.75 5.1 31.35 8.55 31.4 13.95 31.7 16.8 Q31.85 19.2 31.4 20.9 30.0 26.1 22.4 26.1 L19.35 25.9 Q17.35 28.1 10.65 28.1 1.25 28.1 -0.1 25.85 L-0.4 25.1 -0.6 25.1 Q-2.95 25.1 -4.7 23.9 L-5.15 24.5 Q-7.25 25.6 -23.1 25.6 -31.8 25.6 -33.8 24.0 -34.45 23.5 -34.35 22.85 L-34.1 22.25 Q-34.1 20.95 -29.8 18.35 -25.25 15.6 -22.35 15.6 L-21.9 15.6 -22.05 15.3 -22.1 14.1 Q-22.35 8.25 -22.2 5.25 -22.05 2.25 -21.4 0.55 L-21.6 -0.65 Q-21.6 -3.2 -20.3 -7.1 L-20.3 -9.75 -19.8 -10.8 Q-19.0 -12.75 -18.85 -15.0 -17.8 -16.6 -17.8 -17.85 L-17.8 -17.95 Q-14.6 -24.7 -9.7 -31.6 -2.9 -41.1 1.7 -42.75 L1.7 -43.55 M28.9 5.5 L29.0 5.1 28.9 5.1 28.9 5.5 M18.0 9.95 L18.9 10.1 19.95 9.85 20.25 9.4 20.4 8.35 20.3 7.25 20.2 6.85 18.25 6.75 17.85 6.8 17.4 6.75 17.4 6.85 17.4 9.85 17.45 10.1 18.0 9.95 M20.9 23.9 Q28.4 23.9 29.4 14.9 L29.55 12.6 Q22.35 12.65 17.25 14.3 L15.85 14.9 19.7 15.35 19.9 21.35 20.2 22.85 20.25 23.45 20.6 23.55 20.9 23.9 M10.05 4.9 L1.3 4.7 1.15 5.15 1.1 5.2 1.4 9.25 1.4 14.45 Q1.4 19.2 1.55 20.55 2.05 24.3 3.95 25.85 L17.9 25.85 17.9 17.6 17.7 17.15 Q11.9 18.75 10.35 14.25 9.9 12.9 9.9 8.2 L9.95 5.6 10.05 4.9" fill="#000000" fill-rule="evenodd" stroke="none"/>
      <path d="M28.55 3.05 L28.65 3.05 28.6 3.1 28.55 3.05" fill="#221c15" fill-rule="evenodd" stroke="none"/>
      <path d="M31.65 3.1 L31.8 2.8 31.85 2.8 31.95 2.95 31.85 3.1 31.65 3.1" fill="#402c1a" fill-rule="evenodd" stroke="none"/>
      <path d="M-17.85 -5.55 L-18.05 -4.85 -17.95 -5.4 -17.85 -5.55 M31.95 2.95 L32.25 3.1 31.85 3.1 31.95 2.95" fill="#5b6171" fill-rule="evenodd" stroke="none"/>
      <path d="M17.85 6.8 L18.25 6.75 20.2 6.85 20.3 7.25 20.4 8.35 20.25 9.4 19.95 9.85 18.9 10.1 18.0 9.95 17.4 9.85 17.4 6.85 17.85 6.8" fill="#ffffff" fill-rule="evenodd" stroke="none"/>
      <path d="M20.9 23.9 L20.6 23.55 20.25 23.45 20.2 22.85 19.9 21.35 19.7 15.35 15.85 14.9 17.25 14.3 Q22.35 12.65 29.55 12.6 L29.4 14.9 Q28.4 23.9 20.9 23.9" fill="#aa8a71" fill-rule="evenodd" stroke="none"/>
      <path d="M-12.75 -20.6 L-12.8 -20.5 -12.8 -20.6 -12.75 -20.6 M-17.8 -5.9 L-17.85 -5.55 -17.85 -5.9 -17.8 -5.9" fill="#855b36" fill-rule="evenodd" stroke="none"/>
      <path d="M-17.85 -5.9 L-17.85 -5.55 -17.95 -5.4 -17.9 -5.9 -17.85 -5.9" fill="#969cab" fill-rule="evenodd" stroke="none"/>
      <path d="M-24.5 23.35 L-23.5 22.75 Q-16.25 18.25 -16.3 12.0 -16.3 8.85 -15.35 3.45 L-13.8 -5.15 Q-13.1 -9.5 -11.2 -14.15 -9.05 -19.35 -6.4 -22.4 -2.95 -26.3 2.15 -32.95 L4.95 -36.6 9.85 -32.15 Q19.35 -23.6 22.45 -17.65 L23.25 -15.7 Q25.3 -13.8 25.65 -10.75 28.05 -7.25 28.6 -3.45 L29.15 -1.35 29.6 1.35 29.45 2.1 29.25 2.65 Q29.55 2.8 28.9 2.8 L28.85 2.8 28.65 3.05 28.55 3.05 Q4.4 2.45 -1.65 2.65 L-4.7 3.0 -4.6 3.5 -4.55 4.2 Q-5.45 5.55 -5.85 8.4 L-6.6 15.0 Q-7.8 23.3 -13.8 23.35 L-24.5 23.35 M10.05 4.9 L9.95 5.6 9.9 8.2 Q9.9 12.9 10.35 14.25 11.9 18.75 17.7 17.15 L17.9 17.6 17.9 25.85 3.95 25.85 Q2.05 24.3 1.55 20.55 1.4 19.2 1.4 14.45 L1.4 9.25 1.1 5.2 1.15 5.15 1.3 4.7 10.05 4.9" fill="#333333" fill-rule="evenodd" stroke="none"/>
      <path d="M-12.75 -20.6 L-12.75 -20.7 -12.7 -20.8 -12.3 -21.5 -5.85 -31.6 -5.3 -32.3 0.65 -38.8 1.55 -39.75 2.85 -41.35 2.9 -41.5 2.95 -41.55 3.0 -41.6 3.4 -41.35 4.15 -40.85 5.45 -40.0 6.7 -39.1 Q15.6 -32.7 22.4 -23.6 L27.25 -16.6 27.2 -16.55 Q29.85 -10.55 30.85 -7.55 31.7 -5.05 31.95 -2.8 L32.25 -1.55 32.3 1.15 32.35 2.5 Q32.6 2.8 32.0 2.8 L31.85 2.8 31.8 2.8 31.65 3.1 29.8 3.05 28.65 3.05 28.85 2.8 28.9 2.8 Q29.55 2.8 29.25 2.65 L29.45 2.1 29.6 1.35 29.15 -1.35 28.6 -3.45 Q28.05 -7.25 25.65 -10.75 25.3 -13.8 23.25 -15.7 L22.45 -17.65 Q19.35 -23.6 9.85 -32.15 L4.95 -36.6 2.15 -32.95 Q-2.95 -26.3 -6.4 -22.4 -9.05 -19.35 -11.2 -14.15 -13.1 -9.5 -13.8 -5.15 L-15.35 3.45 Q-16.3 8.85 -16.3 12.0 -16.25 18.25 -23.5 22.75 L-24.5 23.35 -31.6 23.35 -31.7 23.15 -31.8 23.0 -31.85 22.45 -31.85 22.35 Q-31.85 21.3 -26.05 18.95 L-20.1 16.6 -20.3 16.15 -20.35 16.1 -19.85 15.9 -19.8 15.65 -19.75 15.45 -19.75 15.1 -19.6 13.05 -19.55 12.35 -19.2 7.2 -19.1 5.55 -19.1 5.35 -19.1 5.3 -19.1 5.15 -19.1 5.05 -19.1 5.0 -19.1 4.9 -19.1 4.85 -19.1 2.85 -18.9 2.75 -18.3 -2.95 -18.05 -4.85 -17.85 -5.55 -17.8 -5.9 -16.85 -9.65 -14.85 -15.75 -12.8 -20.5 -12.75 -20.6" fill="#4b4b4b" fill-rule="evenodd" stroke="none"/>
    </g>
    <g id="shape4" transform="matrix(1.0, 0.0, 0.0, 1.0, 47.95, 60.75)">
      <path d="M-18.0 43.25 L-15.65 40.75 Q-11.35 36.15 -10.55 35.7 L-5.5 30.1 0.0 24.25 Q2.25 22.0 3.8 18.5 5.15 14.5 6.3 12.4 7.25 10.1 7.2 5.5 6.85 1.05 7.0 0.45 L6.4 -7.05 5.6 -13.7 5.3 -14.7 Q4.95 -18.4 4.15 -20.85 L2.65 -25.0 1.0 -27.45 0.0 -30.15 Q-1.9 -34.5 -6.75 -40.7 -8.15 -42.55 -11.45 -45.6 L-17.2 -50.85 -18.1 -51.45 -17.5 -52.75 -15.1 -50.35 Q-12.5 -49.05 -10.75 -47.2 L-7.65 -43.65 -2.3 -36.65 Q0.55 -32.5 2.25 -29.35 5.7 -22.75 7.45 -18.0 8.5 -15.15 8.95 -12.95 9.5 -9.95 9.55 0.6 L9.4 4.7 9.25 6.25 9.15 7.25 Q7.85 18.85 2.1 25.95 L-6.95 35.25 -7.25 35.55 Q-16.05 43.4 -16.25 44.65 L-16.75 45.2 -17.5 44.75 -18.0 43.25 M-15.45 -56.1 L-13.3 -54.1 Q-2.55 -44.15 -0.95 -42.1 L4.3 -35.35 7.3 -30.45 9.25 -26.9 11.35 -22.05 13.2 -16.6 14.0 -14.5 14.05 -12.35 Q14.15 -9.85 15.65 -1.85 16.25 1.1 15.85 5.75 L16.15 7.25 Q14.65 19.05 8.0 26.5 L-2.75 36.55 Q-11.15 44.0 -16.95 50.1 L-17.45 50.6 -17.7 50.85 -17.9 50.85 -18.2 50.95 -20.2 51.4 -22.45 51.15 -22.45 48.45 Q-22.05 48.25 -21.6 47.15 L-20.45 45.9 -19.95 45.35 -19.8 45.4 -19.2 44.6 -19.15 44.7 Q-19.45 45.05 -19.45 45.9 L-19.2 46.95 -18.85 47.6 -19.35 48.15 -19.4 48.15 -19.95 48.95 -19.15 49.05 -19.0 49.05 -18.3 48.05 -16.95 48.4 -15.85 48.15 -15.5 47.65 -15.45 47.0 Q-15.55 46.3 -16.15 45.7 L-15.75 45.3 -15.3 45.35 2.75 28.55 Q6.25 25.4 10.25 19.6 L10.75 18.45 Q11.65 17.2 12.65 14.05 L12.8 13.8 Q12.85 13.2 13.25 11.85 L13.7 9.55 13.65 9.5 13.75 8.65 13.8 8.55 13.9 7.05 13.9 5.2 13.85 4.65 13.85 4.25 13.85 4.2 13.5 0.05 13.0 -7.75 11.95 -14.65 11.15 -16.95 Q9.4 -21.2 5.15 -29.3 1.6 -35.85 -5.5 -44.05 -7.35 -46.15 -14.9 -52.3 L-16.9 -53.95 -16.95 -54.0 -16.95 -54.05 Q-15.95 -55.2 -15.95 -55.9 L-15.95 -56.6 -15.45 -56.1 M-20.45 -53.15 L-24.45 -56.05 -24.9 -56.3 -24.95 -57.65 Q-24.95 -60.85 -22.05 -60.75 -20.15 -60.7 -19.6 -59.3 -18.85 -59.1 -18.05 -58.55 L-16.35 -56.95 -16.25 -56.85 Q-18.0 -57.2 -19.2 -55.9 L-20.55 -57.1 Q-21.2 -57.15 -21.45 -57.65 L-21.7 -58.45 -22.75 -58.35 Q-22.95 -58.85 -22.95 -57.6 -22.95 -57.05 -21.95 -56.1 L-21.25 -55.4 -20.0 -54.9 -20.45 -53.25 -20.45 -53.15" fill="#000000" fill-rule="evenodd" stroke="none"/>
      <path d="M-16.35 -56.95 L-15.75 -56.85 -15.5 -56.7 -15.45 -56.1 -15.95 -56.6 -16.25 -56.85 -16.35 -56.95" fill="#cccc99" fill-rule="evenodd" stroke="none"/>
      <path d="M9.15 7.25 L9.25 6.25 9.4 4.7 9.55 0.6 Q9.5 -9.95 8.95 -12.95 8.5 -15.15 7.45 -18.0 L10.1 -17.95 10.75 -17.85 11.15 -16.95 11.95 -14.65 13.0 -7.75 13.5 0.05 13.85 4.2 13.85 4.25 13.85 4.65 13.9 5.2 13.9 7.05 9.15 7.25" fill="#221c15" fill-rule="evenodd" stroke="none"/>
      <path d="M-18.1 -51.45 L-22.35 -43.3 -30.75 -27.85 -37.7 -14.85 Q-41.65 -7.55 -45.55 -2.55 L-45.6 -2.35 -45.3 -1.8 Q-44.7 0.2 -44.2 0.7 -40.6 5.0 -39.5 7.15 L-32.45 19.9 Q-29.9 24.05 -24.15 32.0 -19.95 38.2 -18.0 43.25 L-17.5 44.75 -16.75 45.2 -16.15 45.7 Q-15.55 46.3 -15.45 47.0 L-15.5 47.65 -15.85 48.15 -16.95 48.4 -18.3 48.05 -18.85 47.6 -19.2 46.95 -19.45 45.9 Q-19.45 45.05 -19.15 44.7 L-19.2 44.6 -25.05 35.5 -34.0 21.15 -37.4 15.35 -40.95 9.15 -45.25 3.45 Q-47.3 0.55 -47.8 -1.7 L-47.95 -2.5 -47.95 -2.8 -47.95 -3.3 -47.9 -3.3 -47.8 -4.4 Q-47.45 -5.25 -46.15 -4.95 L-44.35 -8.1 Q-41.35 -13.3 -39.95 -16.35 L-36.35 -22.8 -32.45 -29.2 Q-30.2 -33.3 -25.9 -42.45 -22.95 -48.2 -20.15 -52.2 -20.45 -52.3 -20.45 -53.1 L-20.45 -53.15 -20.45 -53.25 -20.0 -54.9 -19.35 -55.8 -19.2 -55.9 Q-18.0 -57.2 -16.25 -56.85 L-15.95 -56.6 -15.95 -55.9 Q-15.95 -55.2 -16.95 -54.05 L-16.95 -54.0 -17.5 -52.75 -18.1 -51.45" fill="#999999" fill-rule="evenodd" stroke="none"/>
      <path d="M-16.75 45.2 L-16.25 44.65 Q-16.05 43.4 -7.25 35.55 L-6.95 35.25 2.1 25.95 Q7.85 18.85 9.15 7.25 L13.9 7.05 13.8 8.55 13.75 8.65 13.65 9.5 13.7 9.55 13.25 11.85 Q12.85 13.2 12.8 13.8 L12.65 14.05 Q11.65 17.2 10.75 18.45 L10.25 19.6 Q6.25 25.4 2.75 28.55 L-15.3 45.35 -15.75 45.3 -16.15 45.7 -16.75 45.2 M7.45 -18.0 Q5.7 -22.75 2.25 -29.35 0.55 -32.5 -2.3 -36.65 L-7.65 -43.65 -10.75 -47.2 Q-12.5 -49.05 -15.1 -50.35 L-17.5 -52.75 -16.95 -54.0 -16.9 -53.95 -14.9 -52.3 Q-7.35 -46.15 -5.5 -44.05 1.6 -35.85 5.15 -29.3 9.4 -21.2 11.15 -16.95 L10.75 -17.85 10.1 -17.95 7.45 -18.0 M-18.3 48.05 L-19.0 49.05 -19.15 49.05 -19.95 48.95 -19.4 48.15 -19.35 48.15 -18.85 47.6 -18.3 48.05 M-20.0 -54.9 L-21.25 -55.4 -21.95 -56.1 Q-22.95 -57.05 -22.95 -57.6 -22.95 -58.85 -22.75 -58.35 L-21.7 -58.45 -21.45 -57.65 Q-21.2 -57.15 -20.55 -57.1 L-19.2 -55.9 -19.35 -55.8 -20.0 -54.9" fill="#942403" fill-rule="evenodd" stroke="none"/>
    </g>
    <g id="shape5" transform="matrix(1.0, 0.0, 0.0, 1.0, 26.55, 42.15)">
      <path d="M3.65 -16.65 L3.85 -13.65 3.75 -7.75 3.8 -1.2 3.75 3.5 3.7 13.05 Q6.45 13.4 9.8 16.55 13.25 19.8 13.25 20.9 L13.25 21.35 13.6 22.3 13.75 25.65 13.45 32.75 12.75 43.75 11.75 44.25 11.6 44.15 11.0 44.25 6.05 39.25 2.1 35.05 1.75 35.25 -1.95 35.25 -2.1 35.1 -2.1 35.05 -3.65 36.1 -6.7 38.0 Q-9.9 41.4 -11.75 42.75 -13.15 42.0 -13.55 39.05 L-13.75 34.15 Q-13.25 26.3 -13.25 22.55 -13.9 19.85 -10.6 16.95 -7.4 14.1 -2.85 13.35 L-2.75 4.75 -2.8 -1.45 -2.75 -7.7 -2.9 -13.9 -2.7 -16.75 -2.95 -16.75 -3.1 -16.9 -3.15 -17.0 -2.45 -17.6 -2.25 -17.75 1.4 -16.75 -0.85 -16.75 -0.65 -13.65 -0.75 -7.75 Q-0.65 -5.45 -0.7 -1.2 L-0.75 3.5 -0.85 15.2 Q-1.0 26.05 -1.35 32.5 L-0.55 32.6 0.2 32.9 0.9 32.75 1.45 32.7 1.3 31.9 1.25 29.4 1.75 4.75 1.7 -1.45 Q1.65 -5.2 1.75 -7.7 L1.6 -13.9 Q1.6 -15.5 1.85 -16.65 L2.6 -16.55 3.65 -16.65 M-11.6 39.2 Q-10.2 37.15 -7.4 35.5 L-2.95 33.1 -3.2 31.9 -3.25 29.4 -2.85 14.85 -5.8 16.35 Q-9.95 18.45 -10.45 21.05 L-10.85 25.4 Q-11.05 28.05 -11.75 29.3 L-11.75 39.05 -11.7 39.3 -11.6 39.2 M3.85 14.9 L3.65 14.75 3.65 15.2 3.1 32.95 3.25 33.5 Q5.0 34.45 7.05 36.85 L10.15 40.55 10.75 41.25 10.75 40.15 11.25 21.8 11.25 21.7 8.35 19.05 3.9 14.95 3.85 14.9" fill="#000000" fill-rule="evenodd" stroke="none"/>
      <path d="M1.4 -16.75 L1.85 -16.65 Q1.6 -15.5 1.6 -13.9 L1.75 -7.7 Q1.65 -5.2 1.7 -1.45 L1.75 4.75 1.25 29.4 1.3 31.9 1.45 32.7 0.9 32.75 0.2 32.9 -0.55 32.6 -1.35 32.5 Q-1.0 26.05 -0.85 15.2 L-0.75 3.5 -0.7 -1.2 Q-0.65 -5.45 -0.75 -7.75 L-0.65 -13.65 -0.85 -16.75 1.4 -16.75" fill="#14100c" fill-rule="evenodd" stroke="none"/>
      <path d="M-9.1 -36.7 L-10.0 -35.8 Q-15.2 -30.35 -16.2 -28.7 L-15.05 -28.55 -11.8 -28.35 -11.6 -26.7 Q-11.45 -26.1 -11.45 -25.5 -11.45 -22.6 -15.35 -21.4 -20.45 -19.85 -21.45 -18.8 -23.6 -16.45 -22.95 -12.0 -22.3 -7.5 -23.75 -5.8 L-21.0 -5.4 Q-18.4 -5.4 -16.05 -7.3 -14.0 -8.95 -14.0 -10.2 -14.0 -10.9 -14.7 -11.6 -15.4 -12.3 -15.4 -12.95 -15.4 -14.45 -11.5 -17.05 -8.3 -19.25 -6.6 -19.8 L-5.0 -19.8 -4.55 -20.85 Q-2.55 -20.2 -1.55 -20.2 L0.7 -19.65 Q2.25 -19.1 2.95 -19.1 4.8 -19.1 6.15 -20.95 7.4 -22.6 7.4 -24.5 7.4 -26.15 5.7 -30.3 4.25 -33.7 5.15 -35.2 L1.3 -38.4 Q0.45 -38.9 -0.8 -38.9 L-7.75 -38.15 -8.55 -37.3 -9.1 -36.7 M-2.25 -17.75 L-2.65 -17.9 Q-2.9 -17.4 -3.8 -17.3 L-6.1 -17.35 Q-7.9 -17.35 -9.55 -15.85 -11.9 -13.65 -12.55 -13.3 -11.1 -11.35 -11.1 -10.2 -11.1 -7.8 -14.75 -5.25 -18.25 -2.85 -20.9 -2.85 L-24.6 -2.9 Q-27.15 -3.5 -26.4 -6.35 -25.1 -9.7 -25.45 -10.55 -26.25 -12.4 -26.25 -14.3 -26.25 -18.9 -21.5 -21.85 L-14.35 -25.0 -14.5 -25.3 -15.5 -26.15 -16.7 -25.3 Q-17.45 -24.85 -18.35 -24.85 L-19.1 -24.85 -19.55 -25.05 -19.75 -25.55 -20.0 -26.8 Q-20.0 -29.4 -10.7 -38.1 L-11.05 -38.5 Q-10.35 -38.8 -8.55 -40.6 -7.5 -41.7 -6.4 -41.95 L-6.3 -42.1 -5.75 -42.15 -5.6 -42.1 -3.05 -42.05 -2.85 -41.45 -1.85 -41.5 Q0.2 -41.5 3.5 -40.05 8.55 -37.75 8.35 -35.7 L7.15 -33.8 8.7 -30.55 Q10.2 -27.35 10.2 -25.05 10.2 -22.05 7.8 -19.3 5.85 -17.05 3.65 -16.65 L2.6 -16.55 1.85 -16.65 1.4 -16.75 -2.25 -17.75" fill="#ff9933" fill-rule="evenodd" stroke="none"/>
      <path d="M-8.55 -37.3 L-7.75 -38.15 -0.8 -38.9 Q0.45 -38.9 1.3 -38.4 L5.15 -35.2 Q4.25 -33.7 5.7 -30.3 7.4 -26.15 7.4 -24.5 7.4 -22.6 6.15 -20.95 4.8 -19.1 2.95 -19.1 2.25 -19.1 0.7 -19.65 L-1.55 -20.2 Q-2.55 -20.2 -4.55 -20.85 L-5.0 -19.8 -6.6 -19.8 Q-8.3 -19.25 -11.5 -17.05 -15.4 -14.45 -15.4 -12.95 -15.4 -12.3 -14.7 -11.6 -14.0 -10.9 -14.0 -10.2 -14.0 -8.95 -16.05 -7.3 -18.4 -5.4 -21.0 -5.4 L-23.75 -5.8 Q-22.3 -7.5 -22.95 -12.0 -23.6 -16.45 -21.45 -18.8 -20.45 -19.85 -15.35 -21.4 -11.45 -22.6 -11.45 -25.5 -11.45 -26.1 -11.6 -26.7 L-11.8 -28.35 -15.05 -28.55 -16.2 -28.7 Q-15.2 -30.35 -10.0 -35.8 L-9.1 -36.7 -8.9 -36.45 -8.55 -37.3" fill="#ffcc33" fill-rule="evenodd" stroke="none"/>
      <path d="M-11.75 39.05 L-11.75 29.3 Q-11.05 28.05 -10.85 25.4 L-10.45 21.05 Q-9.95 18.45 -5.8 16.35 L-2.85 14.85 -3.25 29.4 -3.2 31.9 -2.95 33.1 -7.4 35.5 Q-10.2 37.15 -11.6 39.2 L-11.75 39.05 M3.65 15.2 L3.85 14.9 3.9 14.95 8.35 19.05 11.25 21.7 11.25 21.8 10.75 40.15 10.75 41.25 10.15 40.55 7.05 36.85 Q5.0 34.45 3.25 33.5 L3.1 32.95 3.65 15.2" fill="#942403" fill-rule="evenodd" stroke="none"/>
    </g>
    <g id="shape6" transform="matrix(1.0, 0.0, 0.0, 1.0, -4.0, 37.15)">
      <path d="M30.3 -23.8 L29.8 -25.45 Q28.2 -31.35 26.35 -33.3 25.05 -34.65 22.8 -35.0 L18.8 -35.15 15.8 -35.05 12.0 -33.35 10.55 -31.95 8.9 -30.1 Q7.4 -28.7 7.65 -26.6 L9.0 -27.1 Q11.55 -27.7 14.5 -27.1 L22.8 -26.8 Q25.0 -26.3 27.3 -24.7 28.95 -24.4 29.8 -23.7 L30.5 -23.05 30.3 -23.8 M10.05 -25.1 Q6.25 -24.25 6.25 -19.85 6.25 -16.5 10.15 -14.35 13.15 -12.75 15.15 -13.15 15.35 -17.3 15.85 -19.2 17.05 -23.75 20.6 -24.75 L14.55 -25.1 10.05 -25.1 M18.85 -37.15 Q25.2 -37.15 27.75 -35.2 32.85 -31.35 32.9 -18.85 L32.7 -18.7 Q33.8 -14.65 33.5 -8.0 35.45 0.7 31.75 4.75 29.55 7.15 27.15 7.15 L24.0 7.3 Q21.65 7.2 20.0 6.25 15.05 3.3 15.05 -8.0 L15.1 -11.55 15.0 -11.55 13.25 -11.5 Q10.4 -11.5 8.0 -12.75 4.0 -14.9 4.0 -19.8 4.0 -22.5 5.0 -24.25 L5.0 -24.3 Q5.0 -32.6 11.95 -35.7 15.4 -37.25 18.85 -37.15 M17.3 -7.8 Q17.3 -0.05 18.7 2.2 20.5 5.15 27.0 5.15 29.1 5.15 30.4 2.3 32.35 -1.85 30.6 -10.0 L30.35 -18.75 Q30.05 -19.85 28.6 -21.0 L28.2 -21.15 27.15 -21.95 Q24.8 -23.55 23.65 -23.55 L21.95 -23.25 21.4 -23.35 Q20.25 -23.45 19.5 -22.55 17.3 -19.95 17.3 -7.8" fill="#000000" fill-rule="evenodd" stroke="none"/>
      <path d="M17.3 -7.8 Q17.3 -19.95 19.5 -22.55 20.25 -23.45 21.4 -23.35 L21.95 -23.25 23.65 -23.55 Q24.8 -23.55 27.15 -21.95 L28.2 -21.15 28.6 -21.0 Q30.05 -19.85 30.35 -18.75 L30.6 -10.0 Q32.35 -1.85 30.4 2.3 29.1 5.15 27.0 5.15 20.5 5.15 18.7 2.2 17.3 -0.05 17.3 -7.8" fill="#aa8a71" fill-rule="evenodd" stroke="none"/>
      <path d="M29.8 -23.7 Q28.95 -24.4 27.3 -24.7 25.0 -26.3 22.8 -26.8 L14.5 -27.1 Q11.55 -27.7 9.0 -27.1 L7.65 -26.6 Q7.4 -28.7 8.9 -30.1 L10.55 -31.95 12.0 -33.35 15.8 -35.05 18.8 -35.15 22.8 -35.0 Q25.05 -34.65 26.35 -33.3 28.2 -31.35 29.8 -25.45 L30.3 -23.8 29.8 -23.7" fill="#942403" fill-rule="evenodd" stroke="none"/>
      <path d="M10.05 -25.1 L14.55 -25.1 20.6 -24.75 Q17.05 -23.75 15.85 -19.2 15.35 -17.3 15.15 -13.15 13.15 -12.75 10.15 -14.35 6.25 -16.5 6.25 -19.85 6.25 -24.25 10.05 -25.1" fill="#7b1102" fill-rule="evenodd" stroke="none"/>
    </g>
    <g id="shape7" transform="matrix(1.0, 0.0, 0.0, 1.0, -35.75, 115.15)">
      <path d="M59.45 -99.45 Q59.7 -100.4 60.35 -101.25 L60.0 -99.75 60.0 -99.65 Q59.95 -98.25 59.45 -97.1 L59.3 -96.7 59.25 -97.0 Q59.1 -98.3 59.45 -99.45 M61.4 -103.35 L61.55 -103.8 62.05 -104.6 62.0 -104.5 61.4 -103.35 M66.5 -95.5 L66.6 -95.5 Q66.85 -93.65 68.25 -92.2 70.0 -90.35 70.0 -86.8 70.0 -85.35 68.25 -83.25 L67.85 -82.75 Q67.1 -83.1 66.65 -82.35 65.9 -81.0 64.6 -81.0 59.5 -81.0 59.5 -87.5 59.5 -88.5 61.6 -92.5 63.7 -96.55 64.55 -97.1 L65.35 -96.05 Q65.85 -95.5 66.5 -95.5 M68.6 -95.3 L68.5 -95.35 68.5 -95.55 68.6 -95.3 M73.15 -83.1 L72.8 -82.05 72.6 -81.65 73.15 -83.1 M59.35 -78.85 Q58.0 -79.2 57.5 -79.75 57.1 -80.15 56.9 -81.2 L58.3 -79.75 59.35 -78.85" fill="#ffcc00" fill-rule="evenodd" stroke="none"/>
      <path d="M60.35 -101.25 Q59.7 -100.4 59.45 -99.45 52.85 -96.8 50.65 -93.6 48.75 -90.95 48.75 -85.3 48.75 -81.7 49.05 -80.3 49.65 -77.5 51.75 -75.15 53.8 -72.95 57.55 -70.75 62.6 -67.8 66.75 -67.8 74.5 -67.8 79.0 -75.7 82.25 -81.3 82.25 -85.6 L82.15 -89.8 Q81.75 -92.2 79.75 -94.3 77.9 -96.05 73.75 -97.8 L73.05 -97.95 71.5 -98.85 69.8 -101.9 Q64.7 -110.3 62.05 -104.6 L61.55 -103.8 61.4 -103.35 60.65 -102.0 60.35 -101.25 M67.65 -114.8 L66.5 -114.55 65.75 -114.3 Q76.55 -112.25 80.25 -109.95 82.65 -108.45 87.25 -104.15 93.35 -99.5 94.35 -97.25 94.65 -96.5 94.65 -90.9 94.65 -81.65 89.75 -73.7 81.45 -60.3 62.25 -60.3 54.2 -60.3 51.3 -62.8 50.2 -63.8 48.45 -64.15 46.5 -64.5 45.75 -65.0 40.7 -68.4 39.3 -71.3 37.15 -75.65 36.4 -78.4 35.75 -80.8 35.75 -83.85 35.75 -89.6 38.15 -94.1 40.5 -98.6 46.3 -103.8 54.05 -110.75 62.9 -115.15 L67.0 -114.8 67.65 -114.8" fill="#ff6633" fill-opacity="0.49803922" fill-rule="evenodd" stroke="none"/>
      <path d="M71.5 -98.85 L73.05 -97.95 73.75 -97.8 Q77.9 -96.05 79.75 -94.3 81.75 -92.2 82.15 -89.8 L82.25 -85.6 Q82.25 -81.3 79.0 -75.7 74.5 -67.8 66.75 -67.8 62.6 -67.8 57.55 -70.75 53.8 -72.95 51.75 -75.15 49.65 -77.5 49.05 -80.3 48.75 -81.7 48.75 -85.3 48.75 -90.95 50.65 -93.6 52.85 -96.8 59.45 -99.45 59.1 -98.3 59.25 -97.0 L59.3 -96.7 58.05 -94.5 Q57.65 -93.85 56.6 -89.65 55.5 -85.25 55.5 -83.8 55.5 -82.8 56.9 -81.2 57.1 -80.15 57.5 -79.75 58.0 -79.2 59.35 -78.85 62.5 -76.5 66.25 -76.5 70.15 -76.5 72.5 -81.5 L72.6 -81.65 72.8 -82.05 73.15 -83.1 Q74.5 -86.85 74.5 -91.5 74.5 -92.1 73.15 -95.3 L71.5 -98.85" fill="#ffcc00" fill-opacity="0.49803922" fill-rule="evenodd" stroke="none"/>
      <path d="M60.35 -101.25 L60.65 -102.0 61.4 -103.35 62.0 -104.5 62.05 -104.6 Q64.7 -110.3 69.8 -101.9 L71.5 -98.85 73.15 -95.3 Q74.5 -92.1 74.5 -91.5 74.5 -86.85 73.15 -83.1 L72.6 -81.65 72.5 -81.5 Q70.15 -76.5 66.25 -76.5 62.5 -76.5 59.35 -78.85 L58.3 -79.75 56.9 -81.2 Q55.5 -82.8 55.5 -83.8 55.5 -85.25 56.6 -89.65 57.65 -93.85 58.05 -94.5 L59.3 -96.7 59.45 -97.1 Q59.95 -98.25 60.0 -99.65 L60.0 -99.75 60.35 -101.25 M68.6 -95.3 L68.5 -95.55 68.5 -95.35 68.6 -95.3 M66.5 -95.5 Q65.85 -95.5 65.35 -96.05 L64.55 -97.1 Q63.7 -96.55 61.6 -92.5 59.5 -88.5 59.5 -87.5 59.5 -81.0 64.6 -81.0 65.9 -81.0 66.65 -82.35 67.1 -83.1 67.85 -82.75 L68.25 -83.25 Q70.0 -85.35 70.0 -86.8 70.0 -90.35 68.25 -92.2 66.85 -93.65 66.6 -95.5 L66.5 -95.5" fill="#ff6633" fill-rule="evenodd" stroke="none"/>
    </g>
  </defs>
</svg>
