<?xml version="1.0" encoding="UTF-8" standalone="no"?>
<svg xmlns:ffdec="https://www.free-decompiler.com/flash" xmlns:xlink="http://www.w3.org/1999/xlink" ffdec:objectType="frame" height="272.0px" width="552.85px" xmlns="http://www.w3.org/2000/svg">
  <g transform="matrix(1.0, 0.0, 0.0, 1.0, 276.4, 136.0)">
    <use ffdec:characterId="124" height="272.0" transform="matrix(1.0, 0.0, 0.0, 1.0, -276.4, -136.0)" width="552.85" xlink:href="#shape0"/>
  </g>
  <defs>
    <g id="shape0" transform="matrix(1.0, 0.0, 0.0, 1.0, 276.4, 136.0)">
      <path d="M-170.75 -74.3 Q-164.4 -87.05 -154.05 -98.8 -130.0 -126.05 -96.5 -129.85 L-85.3 -130.5 -64.65 -129.85 Q-50.1 -129.0 -45.9 -127.5 L-32.4 -123.75 -21.35 -119.95 Q-14.4 -117.3 -11.65 -115.25 L4.05 -104.05 Q13.0 -97.2 14.6 -92.75 15.9 -89.15 19.05 -81.6 L23.6 -70.25 Q26.1 -63.2 26.5 -58.6 L26.6 -47.75 26.4 -41.4 Q25.8 -33.35 23.7 -27.4 L23.6 -27.15 23.5 -26.8 23.4 -26.6 22.75 -24.9 22.6 -24.7 Q16.8 -14.0 6.6 -14.0 0.95 -14.0 -1.55 -15.95 L-4.4 -19.25 Q-4.9 -19.75 -11.9 -24.75 -15.35 -27.3 -16.9 -31.65 -17.75 -34.0 -18.4 -39.0 -18.9 -42.7 -21.9 -53.6 -24.5 -62.8 -24.4 -68.25 -24.35 -74.55 -29.25 -82.65 L-39.65 -97.5 Q-51.3 -113.9 -63.0 -118.85 -69.35 -121.5 -81.65 -121.5 L-93.6 -121.3 -98.45 -120.9 -100.0 -120.55 -101.6 -119.6 Q-103.25 -118.95 -107.9 -118.5 L-111.45 -118.9 -111.55 -118.9 -111.7 -118.95 -112.05 -119.0 -114.15 -119.35 -115.15 -119.5 -117.4 -119.5 Q-119.75 -119.3 -121.7 -118.15 L-125.9 -114.75 Q-127.85 -113.0 -134.65 -109.05 -141.8 -104.85 -144.4 -102.75 L-147.95 -99.25 Q-150.75 -96.15 -151.4 -94.5 -152.1 -92.75 -153.9 -91.3 L-157.65 -88.5 Q-160.1 -86.6 -163.25 -81.35 L-167.4 -74.25 Q-166.4 -74.0 -168.9 -74.0 L-170.75 -74.3 M-87.2 -44.9 Q-79.25 -49.5 -69.4 -49.5 -54.25 -49.5 -48.1 -41.95 -44.4 -37.45 -44.4 -31.15 -44.4 -28.85 -44.95 -26.05 -45.65 -22.65 -46.9 -20.25 -48.05 -18.15 -51.25 -14.2 -54.05 -10.75 -56.4 -8.25 L-56.2 -7.4 -59.4 -7.0 -61.65 -7.5 Q-61.85 -7.25 -62.0 -7.3 -62.4 -7.45 -62.4 -9.0 L-61.35 -11.7 -59.4 -15.0 -59.4 -20.25 Q-59.4 -34.25 -67.95 -39.1 -71.15 -40.9 -77.2 -42.45 L-87.2 -44.9 M-47.35 -47.5 L-50.2 -49.6 -49.55 -49.2 -49.5 -49.4 -49.4 -50.0 -50.15 -51.5 -49.65 -51.5 -47.95 -48.05 -47.35 -47.5 M-63.0 -53.65 L-64.5 -53.8 -64.45 -54.2 -63.0 -53.65 M-108.9 -26.3 L-111.3 -21.0 -111.55 -20.4 -113.1 -16.15 Q-115.4 -9.1 -115.4 -5.5 -115.4 -0.3 -113.05 4.6 -110.85 9.2 -105.65 15.5 L-103.95 18.35 -103.2 19.3 Q-101.1 29.8 -78.45 38.35 -67.95 42.35 -55.65 44.7 L-50.8 45.55 -50.65 45.6 -50.4 45.65 -43.4 47.0 -38.8 46.9 -34.4 47.0 -29.9 46.8 Q-17.4 45.8 7.0 39.6 36.75 32.05 60.6 22.75 L74.45 16.45 Q85.05 11.65 90.6 10.0 L121.65 0.75 Q134.9 -2.5 154.1 -2.5 189.85 -2.5 204.75 10.0 209.4 13.95 211.75 18.95 212.95 21.5 213.6 23.75 221.75 33.45 224.85 41.25 227.6 48.1 227.6 56.75 227.6 57.9 226.55 61.5 L226.45 61.5 Q226.35 58.95 225.45 56.6 223.65 52.0 219.45 52.0 216.9 52.0 213.1 56.0 L204.3 64.75 Q189.05 77.5 162.1 77.5 149.8 77.5 143.25 72.5 141.15 70.9 139.05 68.25 L136.1 64.75 Q133.95 62.9 132.55 57.3 131.35 52.6 131.35 49.0 L131.45 46.4 131.45 45.05 Q135.6 42.95 141.7 40.75 150.25 37.65 159.4 35.55 165.55 34.15 169.75 33.7 L176.6 34.35 179.4 35.65 183.6 38.0 183.8 38.1 Q185.95 40.15 186.85 42.0 187.35 43.2 187.35 47.65 L187.5 49.25 187.45 49.5 187.55 50.8 184.45 54.0 Q184.45 55.5 184.85 55.75 L185.2 56.0 190.45 56.0 Q198.95 53.45 203.5 46.25 207.45 40.0 207.45 32.35 L207.3 26.5 Q206.8 23.75 204.2 19.25 202.75 17.25 201.05 15.9 201.45 14.5 201.45 13.35 201.45 12.4 200.65 11.75 199.3 10.7 195.45 10.0 L193.75 8.6 Q192.0 7.35 185.6 7.0 170.6 2.85 160.2 3.45 149.8 4.0 135.85 9.75 127.85 13.0 122.5 16.5 116.0 19.25 109.5 24.25 L104.45 28.45 Q95.95 32.0 91.6 34.75 86.6 37.9 76.15 43.2 65.35 48.65 60.8 51.1 47.85 55.5 32.1 62.5 L22.85 66.65 Q12.6 71.0 4.1 73.25 2.5 73.65 0.85 74.9 -0.8 76.15 -3.35 76.8 -12.05 79.0 -44.4 79.0 L-70.2 78.95 Q-78.7 78.8 -82.55 77.7 -85.95 76.8 -90.5 73.6 L-103.15 65.0 Q-106.95 62.6 -111.3 58.1 -115.15 54.15 -118.15 50.0 -128.4 36.05 -129.25 34.5 L-130.45 31.95 -131.65 30.5 Q-132.95 28.95 -134.25 18.15 -135.4 9.05 -135.4 6.1 -134.8 -10.4 -132.15 -13.0 -129.8 -15.35 -126.15 -20.0 L-121.1 -25.85 Q-115.8 -30.75 -108.9 -26.3 M-43.8 113.45 L-44.3 113.45 -44.0 113.4 -43.8 113.45 M-135.35 100.2 L-135.8 99.95 -135.45 99.85 -135.35 100.2 M-174.95 -64.45 L-174.9 -64.75 -174.9 -64.65 -174.95 -64.45 M-125.95 -126.15 L-125.9 -125.9 Q-130.1 -124.35 -134.25 -121.45 L-142.15 -115.0 Q-158.15 -101.0 -167.75 -87.0 L-169.75 -84.0 -171.4 -81.25 Q-171.95 -97.25 -185.9 -105.7 -197.05 -112.5 -211.3 -112.5 -222.8 -112.5 -227.4 -111.2 L-227.8 -111.6 -227.7 -111.7 -227.55 -111.85 -226.4 -112.9 -224.9 -114.2 -222.6 -116.05 -222.4 -116.25 -220.4 -117.65 Q-201.8 -130.5 -171.3 -130.5 -149.95 -130.5 -139.15 -128.25 L-132.85 -126.7 -127.4 -126.0 -125.95 -126.15 M-122.65 101.5 L-122.9 101.25 -120.3 101.7 -122.65 101.5" fill="#e8e8e8" fill-rule="evenodd" stroke="none"/>
      <path d="M22.6 -24.7 L22.75 -24.9 22.65 -24.7 22.6 -24.7 M-50.4 45.65 L-38.8 46.9 -43.4 47.0 -50.4 45.65 M226.45 61.75 L226.45 61.8 226.35 62.25 226.45 61.5 226.45 61.75 M187.5 49.25 L187.8 50.5 189.0 52.4 189.55 52.95 189.45 53.0 Q188.35 52.55 188.0 52.0 187.7 51.55 187.55 50.8 L187.45 49.5 187.5 49.25 M-90.1 118.25 L-90.2 118.25 -90.15 117.9 -90.1 117.9 -90.1 118.25 M199.6 18.7 L199.6 18.4 199.6 18.35 Q199.6 15.1 193.8 12.3 187.75 9.35 178.0 8.25 153.45 5.4 125.6 15.25 124.05 15.8 122.5 16.5 127.85 13.0 135.85 9.75 149.8 4.0 160.2 3.45 170.6 2.85 185.6 7.0 192.0 7.35 193.75 8.6 L195.45 10.0 Q199.3 10.7 200.65 11.75 201.45 12.4 201.45 13.35 201.45 14.5 201.05 15.9 L200.95 16.25 Q200.45 17.9 200.45 19.0 L200.4 19.2 199.6 18.7 M-228.65 -110.8 L-227.7 -111.7 -227.8 -111.6 -228.65 -110.8" fill="#cccccc" fill-rule="evenodd" stroke="none"/>
      <path d="M22.75 -24.9 L23.4 -26.6 23.5 -26.8 23.6 -27.15 23.7 -27.4 Q25.8 -33.35 26.4 -41.4 L26.6 -47.75 26.5 -58.6 Q26.1 -63.2 23.6 -70.25 L19.05 -81.6 Q15.9 -89.15 14.6 -92.75 13.0 -97.2 4.05 -104.05 L-11.65 -115.25 Q-14.4 -117.3 -21.35 -119.95 L-32.4 -123.75 -45.9 -127.5 Q-50.1 -129.0 -64.65 -129.85 L-85.3 -130.5 -96.5 -129.85 Q-130.0 -126.05 -154.05 -98.8 -164.4 -87.05 -170.75 -74.3 -173.1 -69.6 -174.9 -64.75 L-174.95 -64.45 -175.1 -64.05 -182.0 -35.15 -182.9 -29.1 Q-185.15 -12.95 -185.35 3.0 L-185.4 6.85 -185.15 18.4 -185.15 19.4 -185.1 23.0 -182.7 36.6 Q-180.8 45.9 -177.1 53.65 L-175.75 55.05 -175.55 55.65 -174.6 58.45 -170.6 64.4 -170.9 65.1 -170.4 65.75 -159.35 79.7 Q-151.85 88.45 -144.15 94.5 L-136.95 99.2 -136.35 99.6 -135.8 99.95 -135.35 100.2 -128.15 104.5 -125.15 106.25 Q-122.15 107.75 -117.65 108.95 L-116.3 109.3 Q-108.4 111.3 -97.1 112.35 L-67.4 113.5 -67.2 113.5 -66.8 113.5 -66.45 113.5 -66.05 113.5 -44.3 113.45 -43.8 113.45 -43.65 113.5 -40.9 114.0 -37.95 113.35 Q-29.2 113.0 -23.55 111.65 -17.95 110.3 -7.95 106.05 L19.1 94.5 Q27.8 90.95 37.45 83.65 L40.25 81.55 42.7 79.75 Q42.85 79.25 43.7 78.35 L44.6 77.45 Q47.65 74.35 55.5 67.95 L69.6 56.75 Q73.3 53.5 82.5 46.4 L95.85 35.75 104.45 28.45 109.5 24.25 Q116.0 19.25 122.5 16.5 124.05 15.8 125.6 15.25 153.45 5.4 178.0 8.25 187.75 9.35 193.8 12.3 199.6 15.1 199.6 18.35 L199.6 18.4 199.6 18.7 197.3 17.45 194.05 16.25 192.55 15.15 192.0 14.8 191.85 14.5 191.15 14.35 188.15 13.75 182.65 13.05 182.6 13.0 Q181.2 12.3 168.35 11.7 155.6 11.1 155.6 11.5 142.65 13.75 136.65 15.85 133.3 16.6 130.5 17.65 124.15 19.95 122.9 22.65 L119.45 24.6 Q112.0 29.0 103.15 35.95 L88.85 47.5 Q86.1 49.65 81.9 51.9 78.55 53.75 76.85 55.5 L72.1 60.55 Q68.6 64.25 66.6 65.75 L55.9 75.55 Q51.8 79.3 49.0 80.85 L48.75 81.0 Q40.95 87.0 36.85 90.5 36.25 91.05 28.15 94.85 L17.6 99.75 8.3 104.35 8.25 104.35 Q1.85 107.35 -4.4 109.0 L-8.45 110.95 -8.9 111.1 -16.05 113.4 -18.35 113.95 -20.0 114.35 -22.5 114.85 Q-38.8 118.0 -67.4 118.0 L-90.1 117.9 -90.15 117.9 -91.65 117.85 -90.2 118.25 -90.1 118.25 Q-79.2 120.75 -55.0 121.8 L-36.95 122.35 -15.4 122.5 -13.1 122.5 11.1 121.2 17.0 120.5 24.55 119.25 25.6 119.05 Q40.55 116.15 55.6 109.8 61.95 107.15 83.55 96.55 L84.1 96.3 84.6 96.05 85.3 95.7 Q97.5 89.75 108.3 85.2 111.45 83.85 114.5 82.65 L115.8 80.2 116.4 79.3 116.55 79.1 116.6 79.0 117.05 79.2 Q116.75 77.75 116.6 76.15 L116.6 63.5 Q116.6 56.8 117.15 54.35 117.35 53.3 117.7 52.35 L117.75 52.3 117.9 51.8 118.05 51.45 119.0 50.0 Q120.25 46.05 125.5 42.75 129.5 40.25 138.6 36.25 142.3 34.35 150.65 33.2 L160.2 31.65 160.35 31.6 160.6 31.0 162.4 31.0 163.25 31.0 165.25 30.55 169.35 29.5 Q175.75 27.65 181.0 30.35 181.7 30.7 182.3 31.1 L182.5 31.1 183.2 31.5 183.25 31.5 183.4 31.6 183.45 31.65 184.3 32.2 184.45 32.3 185.5 33.15 185.65 33.25 186.45 33.95 186.6 34.1 Q189.05 36.3 190.35 38.4 191.5 40.4 191.6 42.25 L191.6 51.35 191.6 52.0 Q191.35 52.0 190.8 52.4 L189.6 53.0 189.55 52.95 189.0 52.4 187.8 50.5 187.5 49.25 187.35 47.65 Q187.35 43.2 186.85 42.0 185.95 40.15 183.8 38.1 L183.65 38.0 183.6 38.0 179.4 35.65 176.6 34.35 169.75 33.7 Q165.55 34.15 159.4 35.55 150.25 37.65 141.7 40.75 135.6 42.95 131.45 45.05 127.7 46.9 125.5 48.7 L125.35 48.85 124.55 49.7 124.45 49.8 123.25 51.55 Q121.6 51.9 121.6 55.0 L121.65 55.55 120.75 55.95 Q120.6 57.4 120.6 63.6 120.6 73.75 120.85 75.85 L120.9 76.05 Q121.1 77.95 121.6 79.7 122.8 84.3 125.6 87.25 126.25 87.95 129.35 93.45 131.75 97.75 134.6 99.0 136.95 100.05 142.95 104.05 L148.6 107.75 Q163.85 107.75 172.5 105.7 181.3 103.6 193.6 97.0 209.9 88.2 214.1 83.75 216.9 80.8 219.5 77.1 222.35 73.1 223.6 70.25 L224.3 68.3 224.65 67.3 226.3 62.35 226.35 62.25 226.45 61.8 226.45 61.75 226.55 61.5 Q227.6 57.9 227.6 56.75 227.6 48.1 224.85 41.25 221.75 33.45 213.6 23.75 212.95 21.5 211.75 18.95 209.4 13.95 204.75 10.0 189.85 -2.5 154.1 -2.5 134.9 -2.5 121.65 0.75 L90.6 10.0 Q85.05 11.65 74.45 16.45 L60.6 22.75 Q36.75 32.05 7.0 39.6 -17.4 45.8 -29.9 46.8 L-34.4 47.0 -38.8 46.9 -50.4 45.65 -50.65 45.6 -50.8 45.55 -55.65 44.7 Q-67.95 42.35 -78.45 38.35 -101.1 29.8 -103.2 19.3 L-103.95 18.35 -105.65 15.5 Q-110.85 9.2 -113.05 4.6 -115.4 -0.3 -115.4 -5.5 -115.4 -9.1 -113.1 -16.15 L-111.55 -20.4 -111.3 -21.0 -108.9 -26.3 -107.35 -29.2 -105.8 -31.75 -105.4 -32.45 Q-95.85 -47.4 -82.25 -51.95 -76.2 -54.0 -69.4 -54.0 L-64.5 -53.8 -63.0 -53.65 -62.8 -53.6 -62.6 -53.6 -62.4 -53.55 -50.2 -49.6 -47.35 -47.5 -46.75 -46.95 -43.65 -43.15 -43.55 -43.0 -43.35 -42.7 Q-41.65 -39.85 -40.9 -36.75 L-40.75 -36.2 -40.4 -33.6 -40.4 -33.55 -40.4 -30.4 Q-40.4 -22.95 -42.5 -19.15 L-42.5 -19.1 -42.8 -18.6 -42.9 -18.5 -42.95 -18.35 -51.7 -9.25 -52.6 -8.5 -54.4 -7.0 -55.6 -7.6 -56.05 -7.9 -56.4 -8.25 Q-54.05 -10.75 -51.25 -14.2 -48.05 -18.15 -46.9 -20.25 -45.65 -22.65 -44.95 -26.05 -44.4 -28.85 -44.4 -31.15 -44.4 -37.45 -48.1 -41.95 -54.25 -49.5 -69.4 -49.5 -79.25 -49.5 -87.2 -44.9 -96.25 -39.75 -102.85 -28.7 -106.95 -21.85 -109.5 -13.75 -111.4 -7.7 -111.4 -5.5 -111.4 -0.9 -109.1 3.45 -107.25 7.0 -101.65 14.0 L-100.35 16.2 Q-98.4 18.75 -94.75 20.85 -83.25 27.5 -59.55 27.5 -45.7 27.5 -28.75 19.15 -20.15 14.9 -13.4 10.0 L-2.9 2.9 Q3.15 -1.35 8.6 -6.25 18.4 -15.05 22.65 -24.7 L22.75 -24.9 M-125.9 -125.9 L-123.4 -126.75 Q-121.75 -127.25 -117.3 -129.1 -113.15 -130.8 -109.5 -131.75 -97.5 -134.8 -74.15 -134.5 -56.8 -135.95 -29.4 -125.95 -5.7 -117.3 4.1 -109.25 18.25 -97.65 25.15 -78.65 30.6 -63.8 30.6 -48.15 30.6 -33.3 27.8 -26.45 24.5 -18.45 11.1 -2.75 8.0 0.95 -0.15 6.2 L-7.05 10.7 -7.25 10.85 -6.5 11.5 -3.4 14.0 -1.75 15.3 Q-0.7 16.0 1.55 16.4 L29.1 17.5 Q49.4 17.5 58.65 15.25 L64.4 13.7 71.6 13.0 72.15 13.1 75.15 11.75 Q84.3 7.7 89.95 5.55 104.35 0.15 124.0 -3.85 126.85 -7.7 133.6 -9.7 142.7 -12.45 168.6 -15.5 177.75 -17.35 190.7 -15.2 202.75 -13.25 214.8 -8.4 226.8 -3.65 234.55 2.3 242.8 8.6 243.6 14.25 L243.35 14.65 Q251.2 19.1 258.3 26.05 266.7 34.25 271.8 44.0 276.45 52.85 276.45 59.0 276.45 98.2 230.1 120.3 213.65 128.1 193.85 132.5 178.1 136.0 168.1 136.0 151.5 136.0 142.35 132.95 132.85 129.85 120.6 120.0 115.05 115.6 113.4 109.2 112.6 106.05 112.6 99.0 112.6 90.9 112.85 88.85 L113.05 87.6 103.4 92.2 74.6 105.75 63.05 111.2 Q55.85 114.25 47.85 116.5 45.5 119.25 36.75 121.85 19.35 127.0 -15.4 127.0 L-65.3 125.1 -84.7 123.5 -85.15 124.0 -115.15 124.0 Q-114.85 124.35 -115.2 124.4 -120.75 124.4 -136.4 125.0 L-158.85 126.1 -177.9 127.0 Q-238.2 127.0 -262.4 104.75 -276.4 91.85 -276.4 73.75 -276.4 70.2 -274.45 65.15 -272.25 59.65 -268.6 54.9 -260.95 44.85 -250.7 42.95 L-254.9 35.5 Q-261.05 24.3 -263.15 15.25 -265.85 3.85 -267.1 -5.0 -268.4 -14.45 -268.4 -23.4 -268.4 -33.95 -264.3 -50.8 -258.05 -76.35 -245.5 -95.2 -228.65 -120.55 -202.4 -130.2 -170.05 -142.1 -125.15 -129.5 L-124.4 -128.0 Q-124.7 -127.05 -125.05 -126.7 L-125.95 -126.15 -127.4 -126.0 -132.85 -126.7 -139.15 -128.25 Q-149.95 -130.5 -171.3 -130.5 -201.8 -130.5 -220.4 -117.65 L-222.4 -116.25 -222.6 -116.05 -224.9 -114.2 -226.4 -112.9 -227.55 -111.85 -227.7 -111.7 -228.65 -110.8 -228.7 -110.75 Q-240.3 -99.2 -250.4 -78.25 -255.5 -67.7 -259.8 -51.65 -264.4 -34.25 -264.4 -23.15 -264.4 -13.35 -262.85 -3.9 L-258.9 15.5 Q-257.35 22.55 -251.4 33.75 L-246.45 42.5 -246.15 42.5 -245.75 42.3 Q-245.4 42.45 -245.4 44.0 L-245.4 44.35 -240.4 53.0 Q-235.55 61.2 -222.8 72.55 -215.5 79.05 -200.4 91.25 -196.1 94.8 -188.0 99.8 -178.75 105.5 -173.15 107.5 L-163.35 110.9 Q-154.6 113.85 -153.4 114.0 -148.8 114.8 -147.2 115.8 -145.6 116.85 -143.65 117.15 L-100.45 119.55 -105.4 116.75 -105.4 116.7 -109.35 116.0 Q-128.2 112.25 -148.65 96.5 L-156.85 90.0 Q-161.95 85.7 -164.4 82.25 L-169.05 75.15 -174.15 67.25 Q-175.95 64.85 -177.3 61.95 -182.5 55.2 -186.1 42.45 -187.65 36.95 -188.65 31.6 L-189.35 26.25 -189.4 25.75 -189.35 25.7 -189.35 8.5 -189.4 8.4 -189.4 6.85 Q-189.4 -4.15 -186.5 -26.6 -184.0 -46.0 -182.15 -54.25 -179.05 -68.45 -171.4 -81.25 L-169.75 -84.0 -167.75 -87.0 Q-158.15 -101.0 -142.15 -115.0 L-134.25 -121.45 Q-130.1 -124.35 -125.9 -125.9 M141.65 -6.75 L141.55 -6.7 141.65 -6.7 155.5 -6.55 176.85 -5.5 181.25 -4.25 186.85 -2.5 195.15 0.4 Q201.6 2.75 202.85 3.5 205.2 4.85 207.25 6.9 L207.6 7.3 207.6 6.5 Q223.8 5.5 237.8 11.8 232.4 6.4 224.9 1.6 204.4 -11.5 178.1 -11.5 156.95 -11.5 141.65 -6.75 M272.45 58.25 Q272.35 54.8 271.45 51.5 270.4 47.85 268.35 44.4 265.4 39.4 256.6 29.75 246.55 18.65 231.9 14.25 227.5 12.95 219.55 11.4 L209.2 9.2 211.25 12.15 216.6 21.0 Q225.45 31.9 228.6 39.55 231.6 46.8 231.6 56.75 231.6 63.3 227.4 72.35 222.8 82.35 216.6 86.75 207.7 93.05 200.5 97.6 L197.05 99.75 192.7 102.35 191.55 103.0 Q185.7 106.3 181.4 108.0 171.35 112.0 156.1 112.0 146.15 112.0 142.5 109.65 137.55 105.2 130.85 101.0 127.75 99.1 125.45 95.25 L121.1 88.25 Q119.75 86.55 118.75 84.5 L118.45 84.7 117.6 90.95 Q116.6 97.75 116.6 99.0 116.6 106.05 117.2 108.3 118.75 114.3 124.85 118.5 L127.05 121.0 Q129.4 123.5 133.0 125.4 144.45 131.5 168.1 131.5 189.75 131.5 220.0 118.9 231.4 114.15 241.1 108.75 249.85 103.9 252.85 101.0 262.0 92.15 267.4 80.25 272.45 69.0 272.45 59.0 L272.45 58.25 M10.2 33.8 L22.65 30.15 25.05 29.45 25.3 29.35 51.9 20.85 29.1 22.0 Q4.45 22.0 -5.65 17.55 -9.95 15.65 -11.05 13.35 L-14.65 15.75 -19.7 19.4 -19.9 19.55 -24.3 22.15 -28.2 24.15 Q-44.05 32.0 -59.9 32.0 -77.7 32.0 -89.15 28.05 L-84.9 31.0 Q-66.0 42.5 -34.05 42.5 -20.95 42.5 10.2 33.8 M-143.6 120.85 Q-163.2 116.35 -175.7 111.0 -190.2 104.8 -203.9 93.25 L-226.6 73.8 Q-240.2 61.45 -244.15 54.25 L-248.55 46.75 -248.8 46.8 Q-254.4 48.1 -258.9 51.25 L-262.65 53.9 Q-266.2 56.65 -267.15 58.5 -269.55 63.05 -270.7 66.2 -272.4 70.7 -272.4 74.25 -272.4 90.45 -258.1 102.5 -234.4 122.5 -177.55 122.5 L-151.7 121.25 -143.6 120.85" fill="#999999" fill-rule="evenodd" stroke="none"/>
      <path d="M-170.75 -74.3 L-168.9 -74.0 Q-166.4 -74.0 -167.4 -74.25 L-163.25 -81.35 Q-160.1 -86.6 -157.65 -88.5 L-153.9 -91.3 Q-152.1 -92.75 -151.4 -94.5 -150.75 -96.15 -147.95 -99.25 L-144.4 -102.75 Q-141.8 -104.85 -134.65 -109.05 -127.85 -113.0 -125.9 -114.75 L-121.7 -118.15 Q-119.75 -119.3 -117.4 -119.5 L-115.15 -119.5 -114.15 -119.35 -112.05 -119.0 -111.7 -118.95 -111.55 -118.9 -111.45 -118.9 -107.9 -118.5 Q-103.25 -118.95 -101.6 -119.6 L-100.0 -120.55 -98.45 -120.9 -93.6 -121.3 -81.65 -121.5 Q-69.35 -121.5 -63.0 -118.85 -51.3 -113.9 -39.65 -97.5 L-29.25 -82.65 Q-24.35 -74.55 -24.4 -68.25 -24.5 -62.8 -21.9 -53.6 -18.9 -42.7 -18.4 -39.0 -17.75 -34.0 -16.9 -31.65 -15.35 -27.3 -11.9 -24.75 -4.9 -19.75 -4.4 -19.25 L-1.55 -15.95 Q0.95 -14.0 6.6 -14.0 16.8 -14.0 22.6 -24.7 L22.65 -24.7 Q18.4 -15.05 8.6 -6.25 3.15 -1.35 -2.9 2.9 L-13.4 10.0 Q-20.15 14.9 -28.75 19.15 -45.7 27.5 -59.55 27.5 -83.25 27.5 -94.75 20.85 -98.4 18.75 -100.35 16.2 L-101.65 14.0 Q-107.25 7.0 -109.1 3.45 -111.4 -0.9 -111.4 -5.5 -111.4 -7.7 -109.5 -13.75 -106.95 -21.85 -102.85 -28.7 -96.25 -39.75 -87.2 -44.9 L-77.2 -42.45 Q-71.15 -40.9 -67.95 -39.1 -59.4 -34.25 -59.4 -20.25 L-59.4 -15.0 -61.35 -11.7 -62.4 -9.0 Q-62.4 -7.45 -62.0 -7.3 -61.85 -7.25 -61.65 -7.5 L-59.4 -7.0 -56.2 -7.4 -55.6 -7.6 -54.4 -7.0 -52.6 -8.5 -51.9 -8.35 -51.1 -8.15 Q-50.45 -10.35 -48.05 -12.05 -42.55 -16.05 -40.4 -18.75 L-39.4 -20.1 -39.4 -20.25 Q-39.4 -21.4 -37.5 -23.75 -35.55 -26.2 -35.4 -30.75 -35.35 -32.75 -34.35 -37.05 -33.4 -41.25 -33.4 -42.4 -33.4 -46.5 -34.4 -49.5 -35.15 -51.65 -36.9 -53.85 L-39.65 -57.0 Q-46.25 -64.1 -52.35 -66.6 -59.45 -69.55 -68.4 -67.5 -87.8 -65.85 -92.9 -61.9 -94.65 -60.55 -96.4 -57.6 -98.55 -53.85 -100.15 -52.0 -104.0 -47.6 -106.65 -42.05 -109.4 -36.35 -109.4 -32.5 L-109.3 -30.35 -108.65 -29.5 -107.35 -29.2 -108.9 -26.3 Q-115.8 -30.75 -121.1 -25.85 L-126.15 -20.0 Q-129.8 -15.35 -132.15 -13.0 -134.8 -10.4 -135.4 6.1 -135.4 9.05 -134.25 18.15 -132.95 28.95 -131.65 30.5 L-130.45 31.95 -129.25 34.5 Q-128.4 36.05 -118.15 50.0 -115.15 54.15 -111.3 58.1 -106.95 62.6 -103.15 65.0 L-90.5 73.6 Q-85.95 76.8 -82.55 77.7 -78.7 78.8 -70.2 78.95 L-44.4 79.0 Q-12.05 79.0 -3.35 76.8 -0.8 76.15 0.85 74.9 2.5 73.65 4.1 73.25 12.6 71.0 22.85 66.65 L32.1 62.5 Q47.85 55.5 60.8 51.1 65.35 48.65 76.15 43.2 86.6 37.9 91.6 34.75 95.95 32.0 104.45 28.45 L95.85 35.75 82.5 46.4 Q73.3 53.5 69.6 56.75 L55.5 67.95 Q47.65 74.35 44.6 77.45 L43.1 77.0 21.4 87.25 Q-0.6 97.5 -2.9 97.5 -4.0 96.9 -5.8 96.65 L-6.25 96.6 Q-12.35 98.35 -17.4 100.0 L-19.7 100.0 -22.35 100.65 -27.65 101.25 -38.8 103.55 Q-49.4 105.75 -51.15 105.75 -71.8 105.75 -96.45 101.0 -116.6 97.1 -123.9 93.75 -134.2 88.9 -142.15 81.55 -145.65 78.3 -153.65 69.0 -155.85 66.35 -165.6 45.4 -175.65 23.7 -175.65 20.25 L-175.0 15.9 Q-174.45 12.9 -174.9 11.25 L-176.4 6.4 Q-177.25 3.4 -177.4 1.5 L-178.65 -9.2 -179.4 -17.25 Q-179.4 -21.8 -178.35 -28.4 L-176.4 -39.0 -174.5 -51.8 Q-173.4 -60.0 -173.4 -61.9 L-173.5 -63.85 -173.65 -64.5 -174.9 -64.65 -174.9 -64.75 Q-173.1 -69.6 -170.75 -74.3 M226.35 62.25 L226.3 62.35 224.65 67.3 223.45 68.0 224.3 68.3 223.6 70.25 Q222.35 73.1 219.5 77.1 216.9 80.8 214.1 83.75 209.9 88.2 193.6 97.0 181.3 103.6 172.5 105.7 163.85 107.75 148.6 107.75 L142.95 104.05 Q136.95 100.05 134.6 99.0 131.75 97.75 129.35 93.45 126.25 87.95 125.6 87.25 122.8 84.3 121.6 79.7 121.1 77.95 120.9 76.05 L120.85 75.85 Q120.6 73.75 120.6 63.6 120.6 57.4 120.75 55.95 L121.65 55.55 121.6 55.0 Q121.6 51.9 123.25 51.55 L124.45 49.8 124.55 49.7 124.6 50.5 124.85 50.75 125.5 48.7 Q127.7 46.9 131.45 45.05 L131.45 46.4 131.35 49.0 Q131.35 52.6 132.55 57.3 133.95 62.9 136.1 64.75 L139.05 68.25 Q141.15 70.9 143.25 72.5 149.8 77.5 162.1 77.5 189.05 77.5 204.3 64.75 L213.1 56.0 Q216.9 52.0 219.45 52.0 223.65 52.0 225.45 56.6 226.35 58.95 226.45 61.5 L226.35 62.25 M189.55 52.95 L189.6 53.0 190.8 52.4 Q191.35 52.0 191.6 52.0 L191.6 51.35 Q194.05 49.2 195.2 47.1 L195.65 46.15 195.8 45.75 195.9 45.5 196.05 45.0 196.45 42.5 196.45 42.1 196.8 41.75 196.45 41.5 196.0 37.25 195.2 33.25 Q194.75 31.15 191.0 28.9 L186.7 26.5 Q182.3 24.75 180.8 24.3 176.2 23.0 172.85 23.75 L156.5 27.15 145.1 29.5 Q130.3 33.2 119.35 43.0 116.55 45.45 110.95 51.25 105.95 56.5 102.85 59.0 86.75 72.05 84.65 73.5 74.85 80.1 57.6 86.75 L38.0 94.75 Q25.05 99.9 19.6 101.0 18.65 101.15 9.35 104.0 L8.35 104.35 8.3 104.35 17.6 99.75 28.15 94.85 Q36.25 91.05 36.85 90.5 40.95 87.0 48.75 81.0 L49.0 80.85 Q51.8 79.3 55.9 75.55 L66.6 65.75 Q68.6 64.25 72.1 60.55 L76.85 55.5 Q78.55 53.75 81.9 51.9 86.1 49.65 88.85 47.5 L103.15 35.95 Q112.0 29.0 119.45 24.6 L122.9 22.65 Q124.15 19.95 130.5 17.65 133.3 16.6 136.65 15.85 142.65 13.75 155.6 11.5 155.6 11.1 168.35 11.7 181.2 12.3 182.6 13.0 L182.65 13.05 188.15 13.75 191.15 14.35 191.85 14.5 192.0 14.8 192.55 15.15 194.05 16.25 197.3 17.45 199.6 18.7 200.4 19.2 200.45 19.0 Q200.45 17.9 200.95 16.25 L201.05 15.9 Q202.75 17.25 204.2 19.25 206.8 23.75 207.3 26.5 L207.45 32.35 Q207.45 40.0 203.5 46.25 198.95 53.45 190.45 56.0 L185.2 56.0 184.85 55.75 Q184.45 55.5 184.45 54.0 L187.55 50.8 Q187.7 51.55 188.0 52.0 188.35 52.55 189.45 53.0 L189.55 52.95 M-171.4 -81.25 Q-179.05 -68.45 -182.15 -54.25 -184.0 -46.0 -186.5 -26.6 -189.4 -4.15 -189.4 6.85 L-189.4 8.4 -189.35 8.5 -189.35 25.7 -189.4 25.75 -189.35 26.25 -188.65 31.6 Q-187.65 36.95 -186.1 42.45 -182.5 55.2 -177.3 61.95 -175.95 64.85 -174.15 67.25 L-169.05 75.15 -164.4 82.25 Q-161.95 85.7 -156.85 90.0 L-148.65 96.5 Q-128.2 112.25 -109.35 116.0 L-105.4 116.7 -105.4 116.75 -100.45 119.55 -143.65 117.15 Q-145.6 116.85 -147.2 115.8 -148.8 114.8 -153.4 114.0 -154.6 113.85 -163.35 110.9 L-173.15 107.5 Q-178.75 105.5 -188.0 99.8 -196.1 94.8 -200.4 91.25 -215.5 79.05 -222.8 72.55 -235.55 61.2 -240.4 53.0 L-245.4 44.35 -245.4 44.0 Q-245.4 42.45 -245.75 42.3 L-246.45 42.5 -251.4 33.75 Q-257.35 22.55 -258.9 15.5 L-262.85 -3.9 Q-264.4 -13.35 -264.4 -23.15 -264.4 -34.25 -259.8 -51.65 -255.5 -67.7 -250.4 -78.25 -240.3 -99.2 -228.7 -110.75 L-227.4 -111.2 Q-222.8 -112.5 -211.3 -112.5 -197.05 -112.5 -185.9 -105.7 -171.95 -97.25 -171.4 -81.25 M141.65 -6.75 Q156.95 -11.5 178.1 -11.5 204.4 -11.5 224.9 1.6 232.4 6.4 237.8 11.8 223.8 5.5 207.6 6.5 L207.25 6.9 Q205.2 4.85 202.85 3.5 201.6 2.75 195.15 0.4 L186.85 -2.5 181.25 -4.25 176.85 -5.5 155.5 -6.55 141.65 -6.7 141.65 -6.75 M192.7 102.35 L197.05 99.75 200.5 97.6 Q207.7 93.05 216.6 86.75 222.8 82.35 227.4 72.35 231.6 63.3 231.6 56.75 231.6 46.8 228.6 39.55 225.45 31.9 216.6 21.0 L211.25 12.15 209.2 9.2 219.55 11.4 Q227.5 12.95 231.9 14.25 246.55 18.65 256.6 29.75 265.4 39.4 268.35 44.4 270.4 47.85 271.45 51.5 272.35 54.8 272.45 58.25 262.15 58.25 259.2 60.3 258.2 61.0 257.8 62.2 L257.1 64.0 255.15 66.65 252.6 69.75 246.4 76.55 240.6 82.25 Q231.7 90.3 224.15 94.05 216.1 98.1 198.6 103.0 L192.7 103.0 192.7 102.35 M-24.3 22.15 L-19.9 19.55 -19.7 19.4 -14.65 15.75 -11.05 13.35 Q-9.95 15.65 -5.65 17.55 4.45 22.0 29.1 22.0 L51.9 20.85 25.3 29.35 25.05 29.45 22.65 30.15 10.2 33.8 Q-10.7 32.85 -19.4 27.8 -22.8 25.8 -23.95 23.35 L-24.3 22.15" fill="#d8d8d8" fill-rule="evenodd" stroke="none"/>
      <path d="M-56.4 -8.25 L-56.05 -7.9 -55.6 -7.6 -56.2 -7.4 -56.4 -8.25 M-40.4 -33.6 L-40.75 -36.2 -40.9 -36.75 Q-40.4 -35.55 -40.4 -34.15 L-40.4 -33.6 M226.55 61.5 L226.45 61.75 226.45 61.5 226.55 61.5 M224.65 67.3 L224.3 68.3 223.45 68.0 224.65 67.3 M124.55 49.7 L125.35 48.85 125.5 48.7 124.85 50.75 124.6 50.5 124.55 49.7 M183.6 38.0 L183.65 38.0 183.8 38.1 183.6 38.0 M183.4 31.6 L183.25 31.5 183.35 31.5 183.4 31.6 M165.25 30.55 L163.25 31.0 162.4 31.0 165.25 30.55 M117.7 52.35 Q117.35 53.3 117.15 54.35 L116.45 53.75 117.7 52.35 M-228.7 -110.75 L-228.65 -110.8 -227.8 -111.6 -227.4 -111.2 -228.7 -110.75 M192.7 102.35 L192.7 103.0 191.55 103.0 192.7 102.35 M196.45 42.1 L196.45 41.5 196.8 41.75 196.45 42.1" fill="#ffffff" fill-rule="evenodd" stroke="none"/>
      <path d="M-51.7 -9.25 L-42.95 -18.35 -42.9 -18.5 -42.8 -18.6 -42.5 -19.1 -42.5 -19.15 Q-40.4 -22.95 -40.4 -30.4 L-40.4 -33.55 -40.4 -33.6 -40.4 -34.15 Q-40.4 -35.55 -40.9 -36.75 -41.65 -39.85 -43.35 -42.7 L-43.55 -43.0 -43.65 -43.15 -46.75 -46.95 -47.35 -47.5 -47.95 -48.05 -49.65 -51.5 -50.15 -51.5 -49.4 -50.0 -49.5 -49.4 -50.2 -49.6 -62.4 -53.55 -62.6 -53.6 -62.8 -53.6 -63.0 -53.65 -64.45 -54.2 -64.5 -53.8 -69.4 -54.0 Q-76.2 -54.0 -82.25 -51.95 -95.85 -47.4 -105.4 -32.45 L-105.8 -31.75 -107.35 -29.2 -108.65 -29.5 -109.3 -30.35 -109.4 -32.5 Q-109.4 -36.35 -106.65 -42.05 -104.0 -47.6 -100.15 -52.0 -98.55 -53.85 -96.4 -57.6 -94.65 -60.55 -92.9 -61.9 -87.8 -65.85 -68.4 -67.5 -59.45 -69.55 -52.35 -66.6 -46.25 -64.1 -39.65 -57.0 L-36.9 -53.85 Q-35.15 -51.65 -34.4 -49.5 -33.4 -46.5 -33.4 -42.4 -33.4 -41.25 -34.35 -37.05 -35.35 -32.75 -35.4 -30.75 -35.55 -26.2 -37.5 -23.75 -39.4 -21.4 -39.4 -20.25 L-39.4 -20.1 -40.4 -18.75 Q-42.55 -16.05 -48.05 -12.05 -50.45 -10.35 -51.1 -8.15 L-51.9 -8.35 -51.7 -9.25 M191.6 51.35 L191.6 42.25 Q191.5 40.4 190.35 38.4 189.05 36.3 186.6 34.1 L186.45 33.95 185.65 33.25 185.5 33.15 184.45 32.3 184.3 32.2 183.45 31.65 183.4 31.6 183.35 31.5 183.25 31.5 183.2 31.5 182.5 31.1 182.3 31.1 Q181.7 30.7 181.0 30.35 175.75 27.65 169.35 29.5 L165.25 30.55 162.4 31.0 160.6 31.0 160.2 31.65 150.65 33.2 Q142.3 34.35 138.6 36.25 129.5 40.25 125.5 42.75 120.25 46.05 119.0 50.0 L118.05 51.45 117.9 51.8 117.75 52.3 117.7 52.35 116.45 53.75 117.15 54.35 Q116.6 56.8 116.6 63.5 L116.6 76.15 Q116.75 77.75 117.05 79.2 L116.6 79.0 116.55 79.1 116.4 79.3 115.8 80.2 114.5 82.65 Q111.45 83.85 108.3 85.2 97.5 89.75 85.3 95.7 L84.6 96.05 84.1 96.3 83.55 96.55 Q61.95 107.15 55.6 109.8 40.55 116.15 25.6 119.05 L24.55 119.25 17.0 120.5 11.1 121.2 -13.1 122.5 -15.4 122.5 -36.95 122.35 -55.0 121.8 Q-79.2 120.75 -90.1 118.25 L-90.1 117.9 -67.4 118.0 Q-38.8 118.0 -22.5 114.85 L-20.0 114.35 -18.35 113.95 -16.05 113.4 -8.9 111.1 -8.45 110.95 -4.4 109.0 Q1.85 107.35 8.25 104.35 L8.3 104.35 8.35 104.35 9.35 104.0 Q18.65 101.15 19.6 101.0 25.05 99.9 38.0 94.75 L57.6 86.75 Q74.85 80.1 84.65 73.5 86.75 72.05 102.85 59.0 105.95 56.5 110.95 51.25 116.55 45.45 119.35 43.0 130.3 33.2 145.1 29.5 L156.5 27.15 172.85 23.75 Q176.2 23.0 180.8 24.3 182.3 24.75 186.7 26.5 L191.0 28.9 Q194.75 31.15 195.2 33.25 L196.0 37.25 196.45 41.5 196.45 42.1 196.45 42.5 196.05 45.0 195.9 45.5 195.8 45.75 195.65 46.15 195.2 47.1 Q194.05 49.2 191.6 51.35 M44.6 77.45 L43.7 78.35 Q42.85 79.25 42.7 79.75 L40.25 81.55 37.45 83.65 Q27.8 90.95 19.1 94.5 L-7.95 106.05 Q-17.95 110.3 -23.55 111.65 -29.2 113.0 -37.95 113.35 L-40.9 114.0 -43.65 113.5 -43.8 113.45 -44.0 113.4 -44.3 113.45 -66.05 113.5 -66.45 113.5 -66.8 113.5 -67.2 113.5 -67.4 113.5 -97.1 112.35 Q-108.4 111.3 -116.3 109.3 L-117.65 108.95 Q-122.15 107.75 -125.15 106.25 L-128.15 104.5 -135.35 100.2 -135.45 99.85 -134.95 99.55 -135.8 99.95 -136.35 99.6 -136.95 99.2 -144.15 94.5 Q-151.85 88.45 -159.35 79.7 L-170.4 65.75 -170.9 65.1 -170.6 64.4 -174.6 58.45 -175.55 55.65 -175.75 55.05 -177.1 53.65 Q-180.8 45.9 -182.7 36.6 L-185.1 23.0 -185.15 19.4 -185.15 18.4 -185.4 6.85 -185.35 3.0 Q-185.15 -12.95 -182.9 -29.1 L-182.0 -35.15 -175.1 -64.05 -174.95 -64.45 -174.9 -64.65 -173.65 -64.5 -173.5 -63.85 -173.4 -61.9 Q-173.4 -60.0 -174.5 -51.8 L-176.4 -39.0 -178.35 -28.4 Q-179.4 -21.8 -179.4 -17.25 L-178.65 -9.2 -177.4 1.5 Q-177.25 3.4 -176.4 6.4 L-174.9 11.25 Q-174.45 12.9 -175.0 15.9 L-175.65 20.25 Q-175.65 23.7 -165.6 45.4 -155.85 66.35 -153.65 69.0 -145.65 78.3 -142.15 81.55 -134.2 88.9 -123.9 93.75 -116.6 97.1 -96.45 101.0 -71.8 105.75 -51.15 105.75 -49.4 105.75 -38.8 103.55 L-27.65 101.25 -22.35 100.65 -19.7 100.0 -17.4 100.0 Q-12.35 98.35 -6.25 96.6 L-5.8 96.65 Q-4.0 96.9 -2.9 97.5 -0.6 97.5 21.4 87.25 L43.1 77.0 44.6 77.45 M192.7 103.0 L198.6 103.0 Q216.1 98.1 224.15 94.05 231.7 90.3 240.6 82.25 L246.4 76.55 252.6 69.75 255.15 66.65 257.1 64.0 257.8 62.2 Q258.2 61.0 259.2 60.3 262.15 58.25 272.45 58.25 L272.45 59.0 Q272.45 69.0 267.4 80.25 262.0 92.15 252.85 101.0 249.85 103.9 241.1 108.75 231.4 114.15 220.0 118.9 189.75 131.5 168.1 131.5 144.45 131.5 133.0 125.4 129.4 123.5 127.05 121.0 L124.85 118.5 Q118.75 114.3 117.2 108.3 116.6 106.05 116.6 99.0 116.6 97.75 117.6 90.95 L118.45 84.7 118.75 84.5 Q119.75 86.55 121.1 88.25 L125.45 95.25 Q127.75 99.1 130.85 101.0 137.55 105.2 142.5 109.65 146.15 112.0 156.1 112.0 171.35 112.0 181.4 108.0 185.7 106.3 191.55 103.0 L192.7 103.0 M-24.3 22.15 L-23.95 23.35 Q-22.8 25.8 -19.4 27.8 -10.7 32.85 10.2 33.8 -20.95 42.5 -34.05 42.5 -66.0 42.5 -84.9 31.0 L-89.15 28.05 Q-77.7 32.0 -59.9 32.0 -44.05 32.0 -28.2 24.15 L-24.3 22.15 M-122.65 101.5 L-120.3 101.7 -122.9 101.25 -122.65 101.5 M-143.6 120.85 L-151.7 121.25 -177.55 122.5 Q-234.4 122.5 -258.1 102.5 -272.4 90.45 -272.4 74.25 -272.4 70.7 -270.7 66.2 -269.55 63.05 -267.15 58.5 -266.2 56.65 -262.65 53.9 L-258.9 51.25 Q-254.4 48.1 -248.8 46.8 L-248.55 46.75 -244.15 54.25 Q-240.2 61.45 -226.6 73.8 L-203.9 93.25 Q-190.2 104.8 -175.7 111.0 -163.2 116.35 -143.6 120.85" fill="#c5c5c5" fill-rule="evenodd" stroke="none"/>
      <path d="M-52.6 -8.5 L-51.7 -9.25 -51.9 -8.35 -52.6 -8.5 M160.6 31.0 L160.35 31.6 160.2 31.65 160.6 31.0 M-49.5 -49.4 L-49.55 -49.2 -50.2 -49.6 -49.5 -49.4 M-135.8 99.95 L-134.95 99.55 -135.45 99.85 -135.8 99.95" fill="#dbdbdb" fill-rule="evenodd" stroke="none"/>
    </g>
  </defs>
</svg>
