<?xml version="1.0" encoding="UTF-8" standalone="no"?>
<svg xmlns:ffdec="https://www.free-decompiler.com/flash" xmlns:xlink="http://www.w3.org/1999/xlink" ffdec:objectType="frame" height="97.6px" width="97.6px" xmlns="http://www.w3.org/2000/svg">
  <g transform="matrix(1.0, 0.0, 0.0, 1.0, 29.05, 29.25)">
    <clipPath id="clipPath0">
      <path d="M 40 0 L 40 40 L 0 40 L 0 0 Z M 18.75 -7.8 L -0.55 -7.7 L -6.5 -7.4 L -6.75 -7.35 L -7 -7.3 L -7.04 -7.4 L -7.07 -7.48 L -7.11 -7.52 L -7.14 -7.54 L -7.18 -7.52 L -7.22 -7.47 L -7.26 -7.38 L -7.3 -7.25 L -7.35 -7.1 L -8 -1.85 L -8 42.5 L -7.95 42.8 L -7.85 48.6 L 47.35 48.6 L 47.4 42.8 L 47.4 42.5 L 47.5 18.6 L 47.4 -0.7 L 47.36 -2.3 L 47.31 -3.69 L 47.25 -4.87 L 47.19 -5.83 L 47.12 -6.57 L 47.04 -7.11 L 47 -7.3 L 46.96 -7.43 L 46.92 -7.51 L 46.89 -7.53 L 46.87 -7.54 L 46.83 -7.51 L 46.79 -7.45 L 46.74 -7.35 L 46.7 -7.2 L 46.65 -7.3 L 46.5 -7.45 L 45 -7.55 L 44.9 -7.55 L 42.65 -7.7 L 18.75 -7.8 Z"/>
    </clipPath>
    <g clip-path="url(#clipPath0)">
      <use ffdec:characterId="940" height="49.05" transform="matrix(1.0, 0.0, 0.0, 1.0, -5.15, -4.85)" width="49.95" xlink:href="#shape0"/>
    </g>
    <use ffdec:characterId="941" height="40.35" transform="matrix(1.0, 0.0, 0.0, 1.0, -0.2, -0.35)" width="40.35" xlink:href="#shape1"/>
  </g>
  <defs>
    <g id="shape0" transform="matrix(1.0, 0.0, 0.0, 1.0, 5.15, 4.85)">
      <path d="M38.15 2.05 L38.15 1.7 37.7 1.7 Q37.3 1.45 36.85 1.35 L40.0 -1.8 42.35 -3.75 38.1 -3.6 20.7 -3.5 -0.8 -3.6 -2.8 -3.7 -2.9 -3.7 -2.8 -3.65 -0.05 -1.4 2.35 1.0 1.25 1.75 0.95 2.2 -1.35 -0.15 -3.25 -2.3 -4.05 -3.3 -3.8 -1.05 -3.8 38.85 -4.25 42.75 -4.2 42.75 -3.35 42.65 -3.2 42.45 0.6 37.7 1.8 36.45 1.8 38.0 2.7 38.0 -2.05 42.35 -2.5 42.7 -2.1 42.75 -2.0 43.0 -0.8 42.85 39.1 42.85 42.6 43.2 37.25 38.4 38.2 38.1 38.25 38.05 38.9 37.65 39.3 38.05 43.5 43.35 43.8 43.45 Q43.6 42.2 43.55 37.8 L43.45 20.45 43.55 -1.05 43.65 -3.1 43.65 -3.35 43.6 -3.15 43.15 -2.7 41.25 -0.5 38.4 2.4 38.15 2.05 M43.2 -4.45 Q43.9 -4.9 44.2 -4.6 L44.55 -3.6 44.8 -1.05 44.8 38.85 44.2 43.6 44.15 43.7 Q44.05 44.2 43.9 43.75 L43.65 43.8 43.45 43.85 38.1 44.1 20.7 44.2 -0.8 44.1 -2.8 44.0 -2.9 44.0 -4.25 43.9 -4.4 43.75 -4.45 43.65 Q-4.9 45.35 -5.05 37.8 L-5.15 20.45 -5.05 -1.05 -4.95 -3.1 Q-4.8 -4.6 -4.5 -4.6 -4.3 -4.6 -4.2 -4.4 L-3.3 -4.6 -0.8 -4.85 39.1 -4.85 43.15 -4.4 43.2 -4.45" fill="#473a29" fill-rule="evenodd" stroke="none"/>
      <path d="M1.8 36.45 L0.6 37.7 -3.2 42.45 -3.35 42.65 -4.2 42.75 -4.25 42.75 -3.8 38.85 -3.8 -1.05 -4.05 -3.3 -3.25 -2.3 -1.35 -0.15 0.95 2.2 1.25 1.75 2.35 1.0 -0.05 -1.4 -2.8 -3.65 -2.8 -3.7 -0.8 -3.6 20.7 -3.5 38.1 -3.6 42.35 -3.75 40.0 -1.8 36.85 1.35 Q37.3 1.45 37.7 1.7 L1.8 1.7 1.8 33.1 1.8 35.05 1.8 35.25 1.8 35.95 1.8 36.2 1.8 36.45" fill="#544630" fill-rule="evenodd" stroke="none"/>
      <path d="M38.15 2.05 L38.4 2.4 41.25 -0.5 43.15 -2.7 43.6 -3.15 43.65 -3.1 43.55 -1.05 43.45 20.45 43.55 37.8 Q43.6 42.2 43.8 43.45 L43.5 43.35 39.3 38.05 38.9 37.65 38.25 38.05 38.15 38.0 38.2 38.1 37.25 38.4 42.6 43.2 39.1 42.85 -0.8 42.85 -2.0 43.0 -2.1 42.75 -2.5 42.7 -2.05 42.35 2.7 38.0 17.95 38.0 17.95 38.1 18.35 38.15 18.35 38.0 26.5 38.0 Q27.1 37.8 27.6 38.0 L27.85 38.2 27.85 38.0 38.15 38.0 38.15 2.05" fill="#87704e" fill-rule="evenodd" stroke="none"/>
      <path d="M38.15 38.0 L38.2 38.1 38.15 38.0" fill="#6c5b3e" fill-rule="evenodd" stroke="none"/>
      <path d="M37.7 1.7 L38.15 1.7 38.15 2.05 38.15 38.0 27.85 38.0 27.6 38.0 Q27.1 37.8 26.5 38.0 L18.35 38.0 17.95 38.0 2.7 38.0 1.8 38.0 1.8 36.45 1.8 36.2 1.8 35.25 1.8 35.05 1.8 33.1 1.8 1.7 37.7 1.7 Z" fill="none" stroke="#473a29" stroke-linecap="round" stroke-linejoin="round" stroke-opacity="0.49019608" stroke-width="1.0"/>
    </g>
    <g id="shape1" transform="matrix(1.0, 0.0, 0.0, 1.0, 0.2, 0.35)">
      <path d="M27.2 40.0 L-0.2 40.0 -0.2 36.75 -0.2 34.55 -0.2 -0.35 40.15 -0.35 40.15 40.0 28.45 40.0 Q27.9 39.8 27.2 40.0" fill="#000000" fill-opacity="0.4" fill-rule="evenodd" stroke="none"/>
    </g>
  </defs>
</svg>
