<?xml version="1.0" encoding="UTF-8" standalone="no"?>
<svg xmlns:ffdec="https://www.free-decompiler.com/flash" xmlns:xlink="http://www.w3.org/1999/xlink" ffdec:objectType="frame" height="97.6px" width="97.6px" xmlns="http://www.w3.org/2000/svg">
  <g transform="matrix(1.0, 0.0, 0.0, 1.0, 29.05, 29.25)">
    <clipPath id="clipPath0" transform="matrix(1.0, 0.0, 0.0, 1.0, 0.0, 0.0)">
      <path d="M46.5 -7.45 L46.65 -7.3 46.7 -7.2 Q47.2 -9.05 47.4 -0.7 L47.5 18.6 47.4 42.5 47.4 42.8 47.35 48.6 -7.85 48.6 -7.95 42.8 -8.0 42.5 -8.0 -1.85 -7.35 -7.1 -7.3 -7.25 Q-7.15 -7.8 -7.0 -7.3 L-6.75 -7.35 -6.5 -7.4 -0.55 -7.7 18.75 -7.8 42.65 -7.7 44.9 -7.55 45.0 -7.55 46.5 -7.45 M40.0 40.0 L40.0 0.0 0.0 0.0 0.0 40.0 40.0 40.0" fill="#00ff00" fill-rule="evenodd" stroke="none"/>
    </clipPath>
    <g clip-path="url(#clipPath0)">
      <use ffdec:characterId="942" height="49.05" transform="matrix(1.0, 0.0, 0.0, 1.0, -5.2, -5.05)" width="49.95" xlink:href="#shape1"/>
    </g>
    <use ffdec:characterId="945" height="19.55" transform="matrix(0.9055, 1.1754, 1.1754, -0.9055, 4.8381, 20.9445)" width="25.7" xlink:href="#text0"/>
  </g>
  <defs>
    <g id="shape1" transform="matrix(1.0, 0.0, 0.0, 1.0, 5.2, 5.05)">
      <path d="M3.3 1.65 L2.5 0.85 -3.0 -4.1 0.45 -3.7 40.4 -3.7 41.6 -3.85 41.7 -3.65 42.1 -3.6 41.65 -3.2 36.8 1.25 36.4 1.65 3.3 1.65 36.4 1.65 36.0 1.95 3.6 1.95 3.3 1.65 M1.8 36.1 L-1.65 39.65 -3.6 41.8 -4.0 42.3 -4.05 42.2 -3.95 40.2 -3.85 18.7 -3.95 1.3 -4.2 -4.3 -3.9 -4.2 0.3 1.1 1.8 2.6 2.0 2.8 2.0 35.9 1.8 36.1 1.8 35.0 1.8 33.05 1.8 2.6 1.8 33.05 1.8 35.0 1.8 36.1" fill="#bfaf91" fill-rule="evenodd" stroke="none"/>
      <path d="M18.85 -5.05 L40.4 -5.0 42.4 -4.85 42.5 -4.85 43.85 -4.75 44.0 -4.6 44.05 -4.55 Q44.5 -6.2 44.65 1.3 L44.75 18.7 44.65 40.2 44.5 42.2 Q44.4 43.75 44.05 43.75 L43.8 43.55 42.9 43.75 40.4 44.0 0.45 44.0 -3.55 43.55 -3.6 43.55 -4.6 43.75 -4.95 42.7 -5.2 40.2 -5.2 0.3 -4.6 -4.45 -4.55 -4.55 Q-4.45 -5.05 -4.3 -4.6 L-4.05 -4.65 -3.85 -4.7 1.5 -5.0 18.85 -5.05 M36.4 1.65 L36.8 1.25 41.65 -3.2 42.1 -3.6 41.7 -3.65 41.6 -3.85 40.4 -3.7 0.45 -3.7 -3.0 -4.1 2.5 0.85 3.3 1.65 1.8 1.65 1.8 2.6 1.8 1.65 3.3 1.65 3.6 1.95 2.0 1.95 2.0 2.8 1.8 2.6 0.3 1.1 -3.9 -4.2 -4.2 -4.3 -3.95 1.3 -3.85 18.7 -3.95 40.2 -4.05 42.2 -4.05 42.5 -4.0 42.3 -3.6 41.8 -1.65 39.65 1.8 36.1 1.8 37.95 2.0 37.95 1.8 37.95 1.8 36.1 2.0 35.9 2.0 37.95 2.6 37.95 -0.4 40.9 -2.75 42.9 1.5 42.7 18.85 42.65 40.4 42.7 42.4 42.85 42.5 42.85 42.4 42.8 39.65 40.55 37.05 37.95 38.0 37.95 38.15 37.95 38.15 36.45 38.15 37.95 38.0 37.95 38.0 36.35 38.15 36.45 40.9 39.3 42.85 41.45 43.6 42.45 43.4 40.2 43.4 0.3 43.85 -3.65 43.8 -3.65 42.95 -3.5 42.8 -3.3 39.0 1.45 38.15 2.3 38.15 1.65 36.4 1.65 38.15 1.65 38.15 2.3 38.0 2.45 38.0 1.95 36.0 1.95 36.4 1.65" fill="#473a29" fill-rule="evenodd" stroke="none"/>
      <path d="M38.15 2.3 L39.0 1.45 42.8 -3.3 42.95 -3.5 43.8 -3.65 43.85 -3.65 43.4 0.3 43.4 40.2 43.6 42.45 42.85 41.45 40.9 39.3 38.15 36.45 38.15 2.3 38.15 36.45 38.0 36.35 38.0 2.45 38.15 2.3 M37.05 37.95 L39.65 40.55 42.4 42.8 42.4 42.85 40.4 42.7 18.85 42.65 1.5 42.7 -2.75 42.9 -0.4 40.9 2.6 37.95 26.5 37.95 Q27.1 37.75 27.6 37.95 L37.05 37.95" fill="#6c5b3e" fill-rule="evenodd" stroke="none"/>
      <path d="M38.0 37.95 L37.05 37.95 27.6 37.95 Q27.1 37.75 26.5 37.95 L2.6 37.95 2.0 37.95 2.0 35.9 2.0 2.8 2.0 1.95 3.6 1.95 36.0 1.95 38.0 1.95 38.0 2.45 38.0 36.35 38.0 37.95" fill="#00ff00" fill-opacity="0.08627451" fill-rule="evenodd" stroke="none"/>
      <path d="M3.3 1.65 L36.4 1.65 38.15 1.65 38.15 2.3 38.15 36.45 38.15 37.95 38.0 37.95 37.05 37.95 27.6 37.95 Q27.1 37.75 26.5 37.95 L2.6 37.95 2.0 37.95 1.8 37.95 1.8 36.1 1.8 35.0 1.8 33.05 1.8 2.6 1.8 1.65 3.3 1.65 Z" fill="none" stroke="#473a29" stroke-linecap="round" stroke-linejoin="round" stroke-opacity="0.49019608" stroke-width="1.0"/>
    </g>
    <g id="text0" transform="matrix(1.0, 0.0, 0.0, 1.0, -66.25, -3.4)">
      <g transform="matrix(1.0, 0.0, 0.0, 1.0, 62.95, 0.0)">
        <use fill="#00ff00" height="19.55" transform="matrix(0.0215, 0.0, 0.0, 0.0215, 0.0, 21.0)" width="25.7" xlink:href="#font_Lithos_Pro_Regular_70"/>
      </g>
    </g>
    <g id="font_Lithos_Pro_Regular_70">
      <path d="M154.5 -552.0 L154.5 -552.0 150.5 -737.5 Q180.5 -737.0 231.5 -735.5 282.0 -734.0 345.0 -732.5 408.0 -730.5 475.0 -729.0 542.0 -727.5 604.5 -726.5 667.0 -726.0 716.5 -726.0 L728.0 -709.5 Q715.5 -677.0 691.5 -616.5 667.5 -556.0 636.5 -479.5 606.0 -403.0 573.5 -322.5 541.0 -241.5 512.0 -168.5 483.0 -95.5 462.0 -42.5 441.5 11.0 434.0 32.5 L223.0 -57.5 Q229.5 -70.0 248.0 -107.5 267.0 -145.0 293.5 -197.5 320.0 -250.0 349.0 -307.5 377.5 -365.0 403.5 -417.0 429.5 -469.0 447.5 -505.0 465.5 -541.5 470.0 -552.0 L154.5 -552.0" fill-rule="evenodd" stroke="none"/>
    </g>
  </defs>
</svg>
