<?xml version="1.0" encoding="UTF-8" standalone="no"?>
<svg xmlns:ffdec="https://www.free-decompiler.com/flash" xmlns:xlink="http://www.w3.org/1999/xlink" ffdec:objectType="frame" height="97.6px" width="97.6px" xmlns="http://www.w3.org/2000/svg">
  <g transform="matrix(1.0, 0.0, 0.0, 1.0, 29.05, 29.25)">
    <clipPath id="clipPath0">
      <path d="M 40 0 L 40 40 L 0 40 L 0 0 Z M 18.75 -7.8 L -0.55 -7.7 L -6.5 -7.4 L -6.75 -7.35 L -7 -7.3 L -7.04 -7.4 L -7.07 -7.48 L -7.11 -7.52 L -7.14 -7.54 L -7.18 -7.52 L -7.22 -7.47 L -7.26 -7.38 L -7.3 -7.25 L -7.35 -7.1 L -8 -1.85 L -8 42.5 L -7.95 42.8 L -7.85 48.6 L 47.35 48.6 L 47.4 42.8 L 47.4 42.5 L 47.5 18.6 L 47.4 -0.7 L 47.36 -2.3 L 47.31 -3.69 L 47.25 -4.87 L 47.19 -5.83 L 47.12 -6.57 L 47.04 -7.11 L 47 -7.3 L 46.96 -7.43 L 46.92 -7.51 L 46.89 -7.53 L 46.87 -7.54 L 46.83 -7.51 L 46.79 -7.45 L 46.74 -7.35 L 46.7 -7.2 L 46.65 -7.3 L 46.5 -7.45 L 45 -7.55 L 44.9 -7.55 L 42.65 -7.7 L 18.75 -7.8 Z"/>
    </clipPath>
    <g clip-path="url(#clipPath0)">
      <use ffdec:characterId="946" height="49.05" transform="matrix(1.0, 0.0, 0.0, 1.0, -5.2, -5.05)" width="49.95" xlink:href="#shape0"/>
    </g>
    <use ffdec:characterId="947" height="40.0" transform="matrix(1.0, 0.0, 0.0, 1.0, 0.0, 0.0)" width="40.0" xlink:href="#shape1"/>
  </g>
  <defs>
    <g id="shape0" transform="matrix(1.0, 0.0, 0.0, 1.0, 5.2, 5.05)">
      <path d="M40.4 -5.0 L42.4 -4.85 42.5 -4.85 43.85 -4.75 44.0 -4.6 44.05 -4.55 Q44.5 -6.2 44.65 1.3 L44.75 18.7 44.65 40.2 44.5 42.2 Q44.4 43.75 44.05 43.75 L43.8 43.55 42.9 43.75 40.4 44.0 0.45 44.0 -3.55 43.55 -3.6 43.55 -4.6 43.75 -4.95 42.7 -5.2 40.2 -5.2 0.3 -4.6 -4.45 -4.55 -4.55 Q-4.45 -5.05 -4.3 -4.6 L-4.05 -4.65 -3.85 -4.7 1.5 -5.0 18.85 -5.05 40.4 -5.0 M36.4 1.65 L36.8 1.25 41.65 -3.2 42.1 -3.6 41.7 -3.65 41.6 -3.85 40.4 -3.7 0.45 -3.7 -3.0 -4.1 2.5 0.85 3.3 1.65 1.8 1.65 1.8 2.6 1.8 1.65 3.3 1.65 3.6 1.95 2.0 1.95 2.0 2.8 1.8 2.6 0.3 1.1 -3.9 -4.2 -4.2 -4.3 -3.95 1.3 -3.85 18.7 -3.95 40.2 -4.05 42.2 -4.05 42.5 -4.0 42.3 -3.6 41.8 -1.65 39.65 1.8 36.1 1.8 37.95 2.0 37.95 1.8 37.95 1.8 36.1 2.0 35.9 2.0 37.95 2.6 37.95 -0.4 40.9 -2.75 42.9 1.5 42.7 18.85 42.65 40.4 42.7 42.4 42.85 42.5 42.85 42.4 42.8 39.65 40.55 37.05 37.95 38.0 37.95 38.15 37.95 38.15 36.45 38.15 37.95 38.0 37.95 38.0 36.35 38.15 36.45 40.9 39.3 42.85 41.45 43.6 42.45 43.4 40.2 43.4 0.3 43.85 -3.65 43.8 -3.65 42.95 -3.5 42.8 -3.3 39.0 1.45 38.15 2.3 38.15 1.65 36.4 1.65 38.15 1.65 38.15 2.3 38.0 2.45 38.0 1.95 36.0 1.95 36.4 1.65" fill="#473a29" fill-rule="evenodd" stroke="none"/>
      <path d="M3.3 1.65 L36.4 1.65 36.0 1.95 3.6 1.95 3.3 1.65 M1.8 2.6 L2.0 2.8 2.0 35.9 1.8 36.1 1.8 35.0 1.8 33.05 1.8 2.6" fill="#bfaf91" fill-rule="evenodd" stroke="none"/>
      <path d="M38.0 2.45 L38.15 2.3 38.15 36.45 38.0 36.35 38.0 2.45" fill="#6c5b3e" fill-rule="evenodd" stroke="none"/>
      <path d="M3.3 1.65 L2.5 0.85 -3.0 -4.1 0.45 -3.7 40.4 -3.7 41.6 -3.85 41.7 -3.65 42.1 -3.6 41.65 -3.2 36.8 1.25 36.4 1.65 3.3 1.65 M1.8 36.1 L-1.65 39.65 -3.6 41.8 -4.0 42.3 -4.05 42.2 -3.95 40.2 -3.85 18.7 -3.95 1.3 -4.2 -4.3 -3.9 -4.2 0.3 1.1 1.8 2.6 1.8 33.05 1.8 35.0 1.8 36.1" fill="#d0be9e" fill-rule="evenodd" stroke="none"/>
      <path d="M38.15 2.3 L39.0 1.45 42.8 -3.3 42.95 -3.5 43.8 -3.65 43.85 -3.65 43.4 0.3 43.4 40.2 43.6 42.45 42.85 41.45 40.9 39.3 38.15 36.45 38.15 2.3 M37.05 37.95 L39.65 40.55 42.4 42.8 42.4 42.85 40.4 42.7 18.85 42.65 1.5 42.7 -2.75 42.9 -0.4 40.9 2.6 37.95 26.5 37.95 Q27.1 37.75 27.6 37.95 L37.05 37.95" fill="#8a744e" fill-rule="evenodd" stroke="none"/>
      <path d="M3.3 1.65 L36.4 1.65 38.15 1.65 38.15 2.3 38.15 36.45 38.15 37.95 38.0 37.95 37.05 37.95 27.6 37.95 Q27.1 37.75 26.5 37.95 L2.6 37.95 2.0 37.95 1.8 37.95 1.8 36.1 1.8 35.0 1.8 33.05 1.8 2.6 1.8 1.65 3.3 1.65 Z" fill="none" stroke="#473a29" stroke-linecap="round" stroke-linejoin="round" stroke-opacity="0.49019608" stroke-width="1.0"/>
    </g>
    <g id="shape1" transform="matrix(1.0, 0.0, 0.0, 1.0, 0.0, 0.0)">
      <path d="M40.0 0.0 L40.0 40.0 28.45 40.0 Q27.9 39.8 27.2 40.0 L0.0 40.0 0.0 0.0 40.0 0.0" fill="#ffffff" fill-opacity="0.08627451" fill-rule="evenodd" stroke="none"/>
    </g>
  </defs>
</svg>
