<?xml version="1.0" encoding="UTF-8" standalone="no"?>
<svg xmlns:ffdec="https://www.free-decompiler.com/flash" xmlns:xlink="http://www.w3.org/1999/xlink" ffdec:objectType="frame" height="97.6px" width="97.6px" xmlns="http://www.w3.org/2000/svg">
  <g transform="matrix(1.0, 0.0, 0.0, 1.0, 29.05, 29.25)">
    <clipPath id="clipPath0" transform="matrix(1.0, 0.0, 0.0, 1.0, 0.0, 0.0)">
      <path d="M46.5 -7.45 L46.65 -7.3 46.7 -7.2 Q47.2 -9.05 47.4 -0.7 L47.5 18.6 47.4 42.5 47.4 42.8 47.35 48.6 -7.85 48.6 -7.95 42.8 -8.0 42.5 -8.0 -1.85 -7.35 -7.1 -7.3 -7.25 Q-7.15 -7.8 -7.0 -7.3 L-6.75 -7.35 -6.5 -7.4 -0.55 -7.7 18.75 -7.8 42.65 -7.7 44.9 -7.55 45.0 -7.55 46.5 -7.45 M40.0 40.0 L40.0 0.0 0.0 0.0 0.0 40.0 40.0 40.0" fill="#00ff00" fill-rule="evenodd" stroke="none"/>
    </clipPath>
    <use ffdec:characterId="465" height="97.6" id="secret_pickle" transform="matrix(1.0, 0.0, 0.0, 1.0, -29.05, -29.25)" width="97.6" xlink:href="#sprite0"/>
  </g>
  <defs>
    <g id="sprite0" transform="matrix(1.0, 0.0, 0.0, 1.0, 48.8, 48.8)">
      <use ffdec:characterId="464" height="57.3" transform="matrix(1.2339, 0.0, 0.0, 1.2339, -35.35, -35.35)" width="57.3" xlink:href="#shape1"/>
    </g>
    <g id="shape1" transform="matrix(1.0, 0.0, 0.0, 1.0, 28.65, 28.65)">
      <path d="M0.3 0.1 L0.25 0.25 20.5 -20.0 Q24.15 -16.25 26.25 -11.75 L26.25 -11.7 21.95 -9.7 0.15 0.45 0.2 0.4 0.25 0.25 0.2 0.3 0.0 0.45 -0.05 0.45 -0.05 0.4 -0.05 -23.85 -0.05 -28.65 0.0 -28.65 Q5.35 -28.65 10.1 -26.9 L8.5 -22.4 0.3 0.1 M0.35 0.7 L28.65 0.7 Q28.55 5.9 26.85 10.35 L26.8 10.45 22.3 8.8 0.15 0.75 0.1 0.75 0.05 0.7 0.35 0.7 M0.25 1.0 L19.9 20.65 Q16.3 24.1 12.05 26.15 L11.95 26.15 9.95 21.85 0.15 0.9 0.25 1.0 M-0.05 0.9 L-0.05 28.65 -0.4 28.65 Q-5.3 28.6 -9.55 27.1 L-7.75 22.1 -0.05 0.9 M-16.6 17.15 L-20.0 20.5 -20.25 20.25 Q-23.8 16.75 -25.85 12.6 L-0.45 0.7 -0.6 0.7 -23.85 0.7 -28.65 0.7 -28.65 0.0 Q-28.65 -2.45 -28.3 -4.75 -27.95 -7.05 -27.2 -9.2 L-0.3 0.6 -0.2 0.6 -0.45 0.7 -0.3 0.7 -0.25 0.7 -16.6 17.15 M-0.2 0.55 L-0.3 0.45 -17.25 -16.45 -20.6 -19.8 -20.25 -20.25 Q-16.65 -23.85 -12.4 -25.85 L-0.05 0.5 -0.05 0.6 -0.15 0.6 -0.2 0.55" fill="url(#gradient0)" fill-rule="evenodd" stroke="none"/>
      <path d="M21.95 -9.7 Q23.9 -5.25 23.9 0.0 L23.9 0.6 0.05 0.6 0.35 0.7 0.05 0.7 0.1 0.75 0.15 0.75 22.3 8.8 21.35 10.95 Q19.65 14.15 16.9 16.9 L16.6 17.2 0.15 0.75 0.25 1.0 0.15 0.9 9.95 21.85 Q5.4 23.9 0.0 23.9 L0.0 0.75 -0.05 0.9 -7.75 22.1 -7.95 22.6 Q-12.75 20.95 -16.6 17.15 L-0.25 0.7 -0.3 0.7 -0.2 0.6 -0.3 0.6 -0.2 0.55 -0.15 0.6 -0.05 0.6 -0.05 0.5 0.0 0.45 0.2 0.3 0.15 0.4 0.2 0.4 0.15 0.45 21.95 -9.7 M-0.6 0.7 L-21.5 10.5 Q-23.7 6.0 -23.85 0.7 L-0.6 0.7 M-0.3 0.45 L-22.65 -7.65 Q-21.05 -12.55 -17.25 -16.45 L-0.3 0.45 M-0.05 0.4 L-10.3 -21.55 Q-5.75 -23.8 -0.3 -23.85 L-0.05 -23.85 -0.05 0.4 M8.5 -22.4 Q13.1 -20.65 16.9 -16.85 L17.1 -16.65 0.3 0.1 8.5 -22.4" fill="url(#gradient1)" fill-rule="evenodd" stroke="none"/>
    </g>
    <radialGradient cx="0" cy="0" gradientTransform="matrix(0.0354, 0.0, 0.0, 0.0354, -0.05, 0.0)" gradientUnits="userSpaceOnUse" id="gradient0" r="819.2" spreadMethod="pad">
      <stop offset="0.0" stop-color="#00ff00"/>
      <stop offset="1.0" stop-color="#00ff00" stop-opacity="0.0"/>
    </radialGradient>
    <radialGradient cx="0" cy="0" gradientTransform="matrix(0.0295, 0.0, 0.0, 0.0295, 0.0, 0.0)" gradientUnits="userSpaceOnUse" id="gradient1" r="819.2" spreadMethod="pad">
      <stop offset="0.0" stop-color="#00ff00" stop-opacity="0.49803922"/>
      <stop offset="1.0" stop-color="#00ff00" stop-opacity="0.0"/>
    </radialGradient>
  </defs>
</svg>
