<?xml version="1.0" encoding="UTF-8" standalone="no"?>
<svg xmlns:ffdec="https://www.free-decompiler.com/flash" xmlns:xlink="http://www.w3.org/1999/xlink" ffdec:objectType="frame" height="113.8px" width="108.9px" xmlns="http://www.w3.org/2000/svg">
  <g transform="matrix(1.0, 0.0, 0.0, 1.0, 57.15, 58.65)">
    <use ffdec:characterId="962" height="34.25" transform="matrix(1.0, 0.0, 0.0, 1.0, -13.85, -16.9)" width="28.1" xlink:href="#shape0"/>
    <clipPath id="clipPath0" transform="matrix(1.0, 0.0, 0.0, 1.0, 0.0, 0.0)">
      <path d="M14.1 -12.55 L14.1 -12.45 14.05 -12.15 14.15 -11.85 14.2 -11.3 14.25 -10.7 14.25 -8.7 Q14.25 -6.1 13.7 -1.3 13.1 3.75 12.55 5.15 12.4 5.35 12.0 6.9 L11.15 8.65 9.95 10.2 8.65 11.85 5.05 14.9 1.6 17.35 1.15 17.25 1.1 17.3 0.75 17.35 0.0 17.0 Q-0.45 16.75 -0.65 16.65 L-2.55 15.5 -4.3 14.2 -7.2 11.65 Q-10.4 8.1 -11.45 5.55 -13.3 1.2 -13.65 -0.95 -13.85 -2.1 -13.85 -6.5 L-13.7 -9.9 -13.6 -11.5 -13.45 -12.35 -13.3 -12.85 -13.25 -12.75 -13.1 -12.9 -12.75 -13.05 -10.4 -13.75 -5.95 -14.75 -2.2 -15.8 -2.15 -15.8 -2.1 -15.85 0.1 -16.45 0.1 -16.6 0.6 -16.55 0.7 -16.6 0.7 -16.55 0.8 -16.5 0.9 -16.5 1.05 -16.45 2.35 -16.0 Q4.85 -15.1 5.65 -14.95 6.95 -14.45 9.15 -14.0 L13.5 -13.05 14.1 -12.95 14.25 -12.7 14.1 -12.55 M1.3 -15.5 L1.25 -15.6 0.9 -15.75 0.85 -15.75 0.7 -15.8 0.7 -15.9 0.6 -15.9 0.55 -15.95 0.5 -15.95 -1.6 -15.1 -2.5 -14.8 -2.75 -14.75 -4.7 -14.2 -6.9 -13.55 -12.55 -12.45 -12.95 -12.4 -12.95 -12.35 -12.85 -11.75 -12.85 -11.25 -13.1 -9.65 -13.1 -6.5 Q-13.1 -2.15 -12.9 -0.8 -12.45 2.05 -10.6 5.45 -8.95 8.5 -6.45 11.3 -3.85 14.1 -1.0 15.8 L-0.05 16.3 0.35 16.45 Q0.8 16.6 1.1 16.9 L1.5 16.55 3.0 15.5 4.25 14.65 5.65 13.55 7.55 11.75 9.4 9.9 Q11.0 7.5 11.5 6.0 L12.6 2.25 Q12.95 0.9 13.1 -1.55 L13.55 -5.4 13.5 -7.25 13.55 -9.15 13.5 -11.1 13.5 -11.45 13.55 -12.0 13.45 -12.05 13.35 -12.35 Q11.35 -12.4 6.25 -13.95 L5.6 -14.15 1.4 -15.6 1.3 -15.5" fill="#282828" fill-rule="evenodd" stroke="none"/>
      <path d="M0.95 -16.9 L0.9 -16.85 0.9 -16.9 0.95 -16.9 M1.4 -15.6 L1.35 -15.45 1.3 -15.5 1.4 -15.6 M1.15 -11.85 L1.15 -11.75 1.1 -11.8 1.15 -11.85" fill="#000000" fill-rule="evenodd" stroke="none"/>
      <path d="M1.4 -15.6 L5.6 -14.15 6.25 -13.95 Q11.35 -12.4 13.35 -12.35 L13.45 -12.05 13.55 -12.0 13.5 -11.45 13.5 -11.1 13.55 -9.15 13.5 -7.25 13.55 -5.4 13.1 -1.55 Q12.95 0.9 12.6 2.25 L11.5 6.0 Q11.0 7.5 9.4 9.9 L7.55 11.75 5.65 13.55 4.25 14.65 3.0 15.5 1.5 16.55 1.1 16.9 Q0.8 16.6 0.35 16.45 L-0.05 16.3 -1.0 15.8 Q-3.85 14.1 -6.45 11.3 -8.95 8.5 -10.6 5.45 -12.45 2.05 -12.9 -0.8 -13.1 -2.15 -13.1 -6.5 L-13.1 -9.65 -12.85 -11.25 -12.85 -11.75 -12.95 -12.35 -12.95 -12.4 -12.55 -12.45 -6.9 -13.55 -4.7 -14.2 -2.75 -14.75 -2.5 -14.8 -1.6 -15.1 0.5 -15.95 0.55 -15.95 0.6 -15.9 0.7 -15.9 0.7 -15.8 0.85 -15.75 0.9 -15.75 1.25 -15.6 1.3 -15.5 1.35 -15.45 1.4 -15.6 M0.25 -12.6 L0.25 -12.45 -1.45 -12.0 -4.2 -11.2 -7.5 -10.5 Q-9.15 -10.15 -9.55 -9.8 L-9.6 -9.75 -9.6 -9.85 -9.75 -9.45 -9.95 -7.7 -10.0 -5.15 -9.85 -1.05 -9.2 1.3 -8.25 3.7 Q-7.5 5.55 -5.15 8.2 L-3.0 10.0 -2.55 10.35 -1.7 11.0 -0.35 11.85 0.15 12.1 0.7 12.35 0.95 12.3 1.0 12.3 1.3 12.35 3.85 10.55 6.5 8.3 7.45 7.1 8.35 5.95 8.95 4.65 9.35 3.35 9.85 1.4 10.0 0.3 10.2 -1.35 10.5 -4.3 10.6 -6.75 10.6 -8.25 10.5 -9.25 10.45 -9.35 10.5 -9.55 10.5 -9.6 10.6 -9.7 10.5 -9.9 6.85 -10.7 4.3 -11.35 1.85 -12.15 0.65 -12.55 0.65 -12.6 0.55 -12.55 0.25 -12.6" fill="#999999" fill-rule="evenodd" stroke="none"/>
      <path d="M0.25 -12.6 L0.55 -12.55 0.65 -12.6 0.65 -12.55 1.85 -12.15 4.3 -11.35 6.85 -10.7 10.5 -9.9 10.6 -9.7 10.5 -9.6 10.5 -9.55 10.45 -9.35 10.5 -9.25 10.6 -8.25 10.6 -6.75 10.5 -4.3 10.2 -1.35 10.0 0.3 9.85 1.4 9.35 3.35 8.95 4.65 8.35 5.95 7.45 7.1 6.5 8.3 3.85 10.55 1.3 12.35 1.0 12.3 0.95 12.3 0.7 12.35 0.15 12.1 -0.35 11.85 -1.7 11.0 -2.55 10.35 -3.0 10.0 -5.15 8.2 Q-7.5 5.55 -8.25 3.7 L-9.2 1.3 -9.85 -1.05 -10.0 -5.15 -9.95 -7.7 -9.75 -9.45 -9.6 -9.85 -9.6 -9.75 -9.55 -9.8 Q-9.15 -10.15 -7.5 -10.5 L-4.2 -11.2 -1.45 -12.0 0.25 -12.45 0.25 -12.6 M0.6 -12.0 Q0.95 -11.35 0.95 -10.2 L1.05 -8.2 1.1 -6.2 1.05 -4.2 1.15 0.6 1.25 3.8 1.15 6.95 1.15 11.8 2.35 11.0 4.3 9.55 5.65 8.25 7.05 6.85 8.6 4.0 9.4 1.25 9.65 0.05 9.75 -1.55 10.1 -4.35 10.05 -5.7 10.1 -7.15 10.05 -8.55 10.1 -9.2 10.0 -9.25 9.95 -9.45 Q8.5 -9.5 4.75 -10.6 2.4 -11.35 1.15 -11.85 L1.1 -11.8 1.05 -11.85 0.65 -12.0 0.65 -12.05 0.55 -12.1 0.6 -12.0 M0.4 -12.05 L-3.3 -10.8 -9.35 -9.5 -9.35 -9.45 Q-9.25 -9.15 -9.3 -8.7 L-9.5 -7.5 -9.5 -5.15 -9.35 -1.0 -8.75 1.25 -7.65 3.65 Q-6.45 5.85 -4.6 7.9 L-2.3 10.05 0.1 11.55 0.4 11.65 0.75 11.85 Q0.25 10.8 0.25 9.2 L0.3 6.5 0.35 3.7 0.5 0.9 0.1 -10.2 0.15 -11.25 Q0.2 -11.9 0.4 -12.05" fill="#1e1e1e" fill-rule="evenodd" stroke="none"/>
      <path d="M1.15 -11.85 Q2.4 -11.35 4.75 -10.6 8.5 -9.5 9.95 -9.45 L10.0 -9.25 10.1 -9.2 10.05 -8.55 10.1 -7.15 10.05 -5.7 10.1 -4.35 9.75 -1.55 9.65 0.05 9.4 1.25 8.6 4.0 7.05 6.85 5.65 8.25 4.3 9.55 2.35 11.0 1.15 11.8 1.15 6.95 1.25 3.8 1.15 0.6 1.05 -4.2 1.1 -6.2 1.05 -8.2 0.95 -10.2 Q0.95 -11.35 0.6 -12.0 L0.65 -12.0 1.05 -11.85 1.1 -11.8 1.15 -11.75 1.15 -11.85" fill="#333333" fill-rule="evenodd" stroke="none"/>
      <path d="M0.4 -12.05 Q0.2 -11.9 0.15 -11.25 L0.1 -10.2 0.5 0.9 0.35 3.7 0.3 6.5 0.25 9.2 Q0.25 10.8 0.75 11.85 L0.4 11.65 0.1 11.55 -2.3 10.05 -4.6 7.9 Q-6.45 5.85 -7.65 3.65 L-8.75 1.25 -9.35 -1.0 -9.5 -5.15 -9.5 -7.5 -9.3 -8.7 Q-9.25 -9.15 -9.35 -9.45 L-9.35 -9.5 -3.3 -10.8 0.4 -12.05" fill="#666666" fill-rule="evenodd" stroke="none"/>
    </clipPath>
    <g clip-path="url(#clipPath0)">
      <use ffdec:characterId="964" height="66.05" transform="matrix(1.0, 0.0, 0.0, 1.0, -26.3, -22.85)" width="67.75" xlink:href="#shape2"/>
    </g>
  </g>
  <defs>
    <g id="shape0" transform="matrix(1.0, 0.0, 0.0, 1.0, 13.85, 16.9)">
      <path d="M0.9 -16.85 L0.9 -16.9 0.95 -16.9 0.9 -16.85 M1.4 -15.6 L1.35 -15.45 1.3 -15.5 1.4 -15.6 M1.15 -11.85 L1.15 -11.75 1.1 -11.8 1.15 -11.85" fill="#000000" fill-rule="evenodd" stroke="none"/>
      <path d="M1.4 -15.6 L5.6 -14.15 6.25 -13.95 Q11.35 -12.4 13.35 -12.35 L13.45 -12.05 13.55 -12.0 13.5 -11.45 13.5 -11.1 13.55 -9.15 13.5 -7.25 13.55 -5.4 13.1 -1.55 Q12.95 0.9 12.6 2.25 L11.5 6.0 Q11.0 7.5 9.4 9.9 L7.55 11.75 5.65 13.55 4.25 14.65 3.0 15.5 1.5 16.55 1.1 16.9 Q0.8 16.6 0.35 16.45 L-0.05 16.3 -1.0 15.8 Q-3.85 14.1 -6.45 11.3 -8.95 8.5 -10.6 5.45 -12.45 2.05 -12.9 -0.8 -13.1 -2.15 -13.1 -6.5 L-13.1 -9.65 -12.85 -11.25 -12.85 -11.75 -12.95 -12.35 -12.95 -12.4 -12.55 -12.45 -6.9 -13.55 -4.7 -14.2 -2.75 -14.75 -2.5 -14.8 -1.6 -15.1 0.5 -15.95 0.55 -15.95 0.6 -15.9 0.7 -15.9 0.7 -15.8 0.85 -15.75 0.9 -15.75 1.25 -15.6 1.3 -15.5 1.35 -15.45 1.4 -15.6 M0.65 -12.55 L0.65 -12.6 0.55 -12.55 0.25 -12.6 0.25 -12.45 -1.45 -12.0 -4.2 -11.2 -7.5 -10.5 Q-9.15 -10.15 -9.55 -9.8 L-9.6 -9.75 -9.6 -9.85 -9.75 -9.45 -9.95 -7.7 -10.0 -5.15 -9.85 -1.05 -9.2 1.3 -8.25 3.7 Q-7.5 5.55 -5.15 8.2 L-3.0 10.0 -2.55 10.35 -1.7 11.0 -0.35 11.85 0.15 12.1 0.7 12.35 0.95 12.3 1.0 12.3 1.3 12.35 3.85 10.55 6.5 8.3 7.45 7.1 8.35 5.95 8.95 4.65 9.35 3.35 9.85 1.4 10.0 0.3 10.2 -1.35 10.5 -4.3 10.6 -6.75 10.6 -8.25 10.5 -9.25 10.45 -9.35 10.5 -9.55 10.5 -9.6 10.6 -9.7 10.5 -9.9 6.85 -10.7 4.3 -11.35 1.85 -12.15 0.65 -12.55" fill="#999999" fill-rule="evenodd" stroke="none"/>
      <path d="M1.15 -11.85 Q2.4 -11.35 4.75 -10.6 8.5 -9.5 9.95 -9.45 L10.0 -9.25 10.1 -9.2 10.05 -8.55 10.1 -7.15 10.05 -5.7 10.1 -4.35 9.75 -1.55 9.65 0.05 9.4 1.25 8.6 4.0 7.05 6.85 5.65 8.25 4.3 9.55 2.35 11.0 1.15 11.8 1.15 6.95 1.25 3.8 1.15 0.6 1.05 -4.2 1.1 -6.2 1.05 -8.2 0.95 -10.2 Q0.95 -11.35 0.6 -12.0 L0.65 -12.0 1.05 -11.85 1.1 -11.8 1.15 -11.75 1.15 -11.85" fill="#333333" fill-rule="evenodd" stroke="none"/>
      <path d="M0.4 -12.05 Q0.2 -11.9 0.15 -11.25 L0.1 -10.2 0.5 0.9 0.35 3.7 0.3 6.5 0.25 9.2 Q0.25 10.8 0.75 11.85 L0.4 11.65 0.1 11.55 -2.3 10.05 -4.6 7.9 Q-6.45 5.85 -7.65 3.65 L-8.75 1.25 -9.35 -1.0 -9.5 -5.15 -9.5 -7.5 -9.3 -8.7 Q-9.25 -9.15 -9.35 -9.45 L-9.35 -9.5 -3.3 -10.8 0.4 -12.05" fill="#666666" fill-rule="evenodd" stroke="none"/>
      <path d="M0.65 -12.55 L1.85 -12.15 4.3 -11.35 6.85 -10.7 10.5 -9.9 10.6 -9.7 10.5 -9.6 10.5 -9.55 10.45 -9.35 10.5 -9.25 10.6 -8.25 10.6 -6.75 10.5 -4.3 10.2 -1.35 10.0 0.3 9.85 1.4 9.35 3.35 8.95 4.65 8.35 5.95 7.45 7.1 6.5 8.3 3.85 10.55 1.3 12.35 1.0 12.3 0.95 12.3 0.7 12.35 0.15 12.1 -0.35 11.85 -1.7 11.0 -2.55 10.35 -3.0 10.0 -5.15 8.2 Q-7.5 5.55 -8.25 3.7 L-9.2 1.3 -9.85 -1.05 -10.0 -5.15 -9.95 -7.7 -9.75 -9.45 -9.6 -9.85 -9.6 -9.75 -9.55 -9.8 Q-9.15 -10.15 -7.5 -10.5 L-4.2 -11.2 -1.45 -12.0 0.25 -12.45 0.25 -12.6 0.55 -12.55 0.65 -12.6 0.65 -12.55 M0.6 -12.0 Q0.95 -11.35 0.95 -10.2 L1.05 -8.2 1.1 -6.2 1.05 -4.2 1.15 0.6 1.25 3.8 1.15 6.95 1.15 11.8 2.35 11.0 4.3 9.55 5.65 8.25 7.05 6.85 8.6 4.0 9.4 1.25 9.65 0.05 9.75 -1.55 10.1 -4.35 10.05 -5.7 10.1 -7.15 10.05 -8.55 10.1 -9.2 10.0 -9.25 9.95 -9.45 Q8.5 -9.5 4.75 -10.6 2.4 -11.35 1.15 -11.85 L1.1 -11.8 1.05 -11.85 0.65 -12.0 0.65 -12.05 0.55 -12.1 0.6 -12.0 M0.4 -12.05 L-3.3 -10.8 -9.35 -9.5 -9.35 -9.45 Q-9.25 -9.15 -9.3 -8.7 L-9.5 -7.5 -9.5 -5.15 -9.35 -1.0 -8.75 1.25 -7.65 3.65 Q-6.45 5.85 -4.6 7.9 L-2.3 10.05 0.1 11.55 0.4 11.65 0.75 11.85 Q0.25 10.8 0.25 9.2 L0.3 6.5 0.35 3.7 0.5 0.9 0.1 -10.2 0.15 -11.25 Q0.2 -11.9 0.4 -12.05" fill="#1e1e1e" fill-rule="evenodd" stroke="none"/>
      <path d="M14.25 -12.7 L14.1 -12.55 14.1 -12.45 14.05 -12.15 14.15 -11.85 14.2 -11.3 14.25 -10.7 14.25 -8.7 Q14.25 -6.1 13.7 -1.3 13.1 3.75 12.55 5.15 12.4 5.35 12.0 6.9 L11.15 8.65 9.95 10.2 8.65 11.85 5.05 14.9 1.6 17.35 1.15 17.25 1.1 17.3 0.75 17.35 0.0 17.0 Q-0.45 16.75 -0.65 16.65 L-2.55 15.5 -4.3 14.2 -7.2 11.65 Q-10.4 8.1 -11.45 5.55 -13.3 1.2 -13.65 -0.95 -13.85 -2.1 -13.85 -6.5 L-13.7 -9.9 -13.6 -11.5 -13.45 -12.35 -13.3 -12.85 -13.25 -12.75 -13.1 -12.9 -12.75 -13.05 -10.4 -13.75 -5.95 -14.75 -2.2 -15.8 -2.15 -15.8 -2.1 -15.85 0.1 -16.45 0.1 -16.6 0.6 -16.55 0.7 -16.6 0.7 -16.55 0.8 -16.5 0.9 -16.5 1.05 -16.45 2.35 -16.0 Q4.85 -15.1 5.65 -14.95 6.95 -14.45 9.15 -14.0 L13.5 -13.05 14.1 -12.95 14.25 -12.7 M1.3 -15.5 L1.25 -15.6 0.9 -15.75 0.85 -15.75 0.7 -15.8 0.7 -15.9 0.6 -15.9 0.55 -15.95 0.5 -15.95 -1.6 -15.1 -2.5 -14.8 -2.75 -14.75 -4.7 -14.2 -6.9 -13.55 -12.55 -12.45 -12.95 -12.4 -12.95 -12.35 -12.85 -11.75 -12.85 -11.25 -13.1 -9.65 -13.1 -6.5 Q-13.1 -2.15 -12.9 -0.8 -12.45 2.05 -10.6 5.45 -8.95 8.5 -6.45 11.3 -3.85 14.1 -1.0 15.8 L-0.05 16.3 0.35 16.45 Q0.8 16.6 1.1 16.9 L1.5 16.55 3.0 15.5 4.25 14.65 5.65 13.55 7.55 11.75 9.4 9.9 Q11.0 7.5 11.5 6.0 L12.6 2.25 Q12.95 0.9 13.1 -1.55 L13.55 -5.4 13.5 -7.25 13.55 -9.15 13.5 -11.1 13.5 -11.45 13.55 -12.0 13.45 -12.05 13.35 -12.35 Q11.35 -12.4 6.25 -13.95 L5.6 -14.15 1.4 -15.6 1.3 -15.5" fill="#282828" fill-rule="evenodd" stroke="none"/>
    </g>
    <g id="shape2" transform="matrix(1.0, 0.0, 0.0, 1.0, 33.85, 33.0)">
      <path d="M-15.2 33.05 L-33.85 13.35 15.25 -33.0 33.9 -13.3 -15.2 33.05" fill="url(#gradient0)" fill-rule="evenodd" stroke="none"/>
    </g>
    <linearGradient gradientTransform="matrix(0.0114, 0.012, -0.03, 0.0283, 0.0, -0.05)" gradientUnits="userSpaceOnUse" id="gradient0" spreadMethod="pad" x1="-819.2" x2="819.2">
      <stop offset="0.01568627450980392" stop-color="#ffffff" stop-opacity="0.0"/>
      <stop offset="0.5372549019607843" stop-color="#ffffff" stop-opacity="0.49803922"/>
      <stop offset="1.0" stop-color="#ffffff" stop-opacity="0.0"/>
    </linearGradient>
  </defs>
</svg>
