<?xml version="1.0" encoding="UTF-8" standalone="no"?>
<svg xmlns:ffdec="https://www.free-decompiler.com/flash" xmlns:xlink="http://www.w3.org/1999/xlink" ffdec:objectType="frame" height="58.0px" width="81.0px" xmlns="http://www.w3.org/2000/svg">
  <g transform="matrix(1.0, 0.0, 0.0, 1.0, 40.5, 29.0)">
    <use ffdec:characterId="549" height="58.0" transform="matrix(1.0, 0.0, 0.0, 1.0, -40.5, -29.0)" width="81.0" xlink:href="#shape0"/>
  </g>
  <defs>
    <g id="shape0" transform="matrix(1.0, 0.0, 0.0, 1.0, 40.5, 29.0)">
      <path d="M12.0 -27.25 L11.8 -25.6 Q16.9 -24.2 21.65 -21.75 24.35 -21.2 25.5 -20.15 L27.4 -18.0 Q29.65 -15.9 32.65 -13.75 36.9 -10.45 38.9 -5.0 40.5 -0.7 40.5 4.15 40.5 7.5 38.55 11.4 L34.15 18.75 Q32.45 21.65 25.85 24.2 L12.5 29.0 11.8 28.8 11.6 28.55 0.25 29.0 -18.6 27.75 -25.55 27.3 Q-26.25 27.1 -27.0 26.4 -29.9 24.85 -32.1 24.25 -35.0 23.45 -37.3 21.5 -39.5 19.65 -39.5 18.35 -39.5 12.2 -38.45 7.75 L-38.3 7.1 -40.1 7.0 -40.3 6.9 Q-40.5 6.75 -40.5 6.0 -40.5 5.15 -39.05 5.05 L-37.7 5.05 -35.7 -0.05 -37.5 0.5 -38.55 0.35 -39.0 -0.1 Q-38.7 -1.15 -34.3 -2.9 L-33.25 -4.75 -35.0 -6.85 Q-34.0 -8.7 -31.85 -6.85 -29.95 -9.6 -27.35 -12.3 L-29.1 -12.75 Q-29.5 -13.1 -29.5 -13.85 -28.4 -14.4 -25.8 -13.9 L-24.35 -15.3 -21.55 -17.7 -24.1 -17.5 -24.5 -18.85 -19.9 -18.95 Q-17.8 -20.45 -16.2 -21.0 -15.0 -22.7 -12.85 -23.85 -9.5 -25.7 -3.0 -26.75 2.8 -27.6 9.45 -26.15 10.35 -28.65 11.0 -29.0 L11.75 -28.5 12.0 -27.25 M18.05 24.4 L21.5 23.0 27.55 21.0 Q31.5 19.45 32.9 17.15 L36.55 10.5 Q38.5 6.3 38.5 3.85 38.5 -0.2 36.45 -4.9 34.3 -9.85 31.4 -11.75 30.3 -12.45 27.25 -15.55 24.55 -18.3 22.4 -19.25 L15.95 -22.2 11.2 -23.6 11.05 -23.3 Q9.9 -20.45 9.75 -19.35 L9.0 -19.0 8.15 -19.2 Q8.0 -19.3 8.0 -20.15 8.0 -21.3 8.7 -23.7 L8.8 -24.05 8.8 -24.1 3.45 -24.7 1.5 -24.75 Q-4.5 -24.75 -8.15 -23.0 L-14.25 -19.9 -17.2 -17.7 Q-14.1 -15.85 -14.0 -14.6 L-14.25 -13.85 -14.15 -13.65 -15.0 -13.5 -18.0 -16.05 -18.65 -16.6 -22.95 -13.25 -23.05 -13.2 -22.85 -13.15 Q-18.6 -11.8 -16.5 -10.5 L-16.75 -9.35 -16.65 -9.15 -17.5 -9.0 -22.8 -10.8 -25.0 -11.55 -25.6 -11.0 Q-28.45 -8.3 -30.5 -5.35 L-29.9 -4.55 Q-24.35 -6.5 -23.35 -6.25 L-23.15 -6.35 Q-23.0 -6.3 -23.0 -5.5 L-28.65 -3.0 -26.5 -0.6 -26.75 0.15 -26.65 0.35 -27.5 0.5 Q-28.0 0.5 -30.55 -1.95 L-30.7 -2.1 -32.85 -1.2 Q-34.45 2.2 -35.45 5.1 L-27.35 5.5 -27.15 5.65 Q-27.0 5.75 -27.0 6.5 L-27.1 7.25 -27.35 7.5 -34.0 7.5 -35.1 7.35 -36.1 7.25 -36.45 8.5 Q-37.5 12.7 -37.5 17.9 -37.5 21.1 -27.2 23.95 -13.0 27.8 12.65 26.5 L12.85 26.65 13.1 26.5 13.15 26.5 13.55 26.3 15.1 25.55 18.05 24.4" fill="#000000" fill-rule="evenodd" stroke="none"/>
      <path d="M8.7 -23.7 Q8.0 -21.3 8.0 -20.15 8.0 -19.3 8.15 -19.2 L9.0 -19.0 9.75 -19.35 Q9.9 -20.45 11.05 -23.3 L11.2 -23.6 15.95 -22.2 22.4 -19.25 Q24.55 -18.3 27.25 -15.55 30.3 -12.45 31.4 -11.75 34.3 -9.85 36.45 -4.9 38.5 -0.2 38.5 3.85 38.5 6.3 36.55 10.5 L32.9 17.15 Q31.5 19.45 27.55 21.0 L21.5 23.0 18.05 24.4 2.65 24.25 -2.7 23.75 Q-5.55 23.25 -6.85 22.75 -10.55 21.45 -15.5 20.15 -19.0 18.6 -20.4 16.5 -21.5 14.9 -21.5 12.45 -21.5 0.7 -13.0 -8.6 L-9.1 -13.0 -5.75 -15.7 -3.0 -17.85 -0.35 -19.7 2.25 -21.35 7.25 -23.1 8.7 -23.7 M13.1 26.5 L12.85 26.65 12.65 26.5 13.1 26.5" fill="#161412" fill-rule="evenodd" stroke="none"/>
      <path d="M8.7 -23.7 L7.25 -23.1 2.25 -21.35 -0.35 -19.7 -3.0 -17.85 -5.75 -15.7 -9.1 -13.0 -13.0 -8.6 Q-21.5 0.7 -21.5 12.45 -21.5 14.9 -20.4 16.5 -19.0 18.6 -15.5 20.15 -10.55 21.45 -6.85 22.75 -5.55 23.25 -2.7 23.75 L2.65 24.25 18.05 24.4 15.1 25.55 13.55 26.3 13.15 26.5 13.1 26.5 12.65 26.5 Q-13.0 27.8 -27.2 23.95 -37.5 21.1 -37.5 17.9 -37.5 12.7 -36.45 8.5 L-36.1 7.25 -35.1 7.35 -34.0 7.5 -27.35 7.5 -27.1 7.25 -27.0 6.5 Q-27.0 5.75 -27.15 5.65 L-27.35 5.5 -35.45 5.1 Q-34.45 2.2 -32.85 -1.2 L-30.7 -2.1 -30.55 -1.95 Q-28.0 0.5 -27.5 0.5 L-26.65 0.35 -26.75 0.15 -26.5 -0.6 -28.65 -3.0 -23.0 -5.5 Q-23.0 -6.3 -23.15 -6.35 L-23.35 -6.25 Q-24.35 -6.5 -29.9 -4.55 L-30.5 -5.35 Q-28.45 -8.3 -25.6 -11.0 L-25.0 -11.55 -22.8 -10.8 -17.5 -9.0 -16.65 -9.15 -16.75 -9.35 -16.5 -10.5 Q-18.6 -11.8 -22.85 -13.15 L-22.95 -13.25 -18.65 -16.6 -18.0 -16.05 -15.0 -13.5 -14.15 -13.65 -14.25 -13.85 -14.0 -14.6 Q-14.1 -15.85 -17.2 -17.7 L-14.25 -19.9 -8.15 -23.0 Q-4.5 -24.75 1.5 -24.75 L3.45 -24.7 8.8 -24.1 8.8 -24.05 8.7 -23.7" fill="#292521" fill-rule="evenodd" stroke="none"/>
    </g>
  </defs>
</svg>
