<?xml version="1.0" encoding="UTF-8" standalone="no"?>
<svg xmlns:ffdec="https://www.free-decompiler.com/flash" xmlns:xlink="http://www.w3.org/1999/xlink" ffdec:objectType="frame" height="243.6px" width="194.4px" xmlns="http://www.w3.org/2000/svg">
  <g transform="matrix(1.0, 0.0, 0.0, 1.0, 4.4, 72.6)">
    <use ffdec:characterId="882" height="227.35" transform="matrix(1.0, 0.0, 0.0, 1.0, -1.85, -72.6)" width="146.6" xlink:href="#shape0"/>
    <use ffdec:characterId="883" height="81.45" transform="matrix(1.0, 0.0, 0.0, 1.0, 22.45, -11.4)" width="132.4" xlink:href="#shape1"/>
  </g>
  <defs>
    <g id="shape0" transform="matrix(1.0, 0.0, 0.0, 1.0, 1.85, 72.6)">
      <path d="M22.9 23.9 L15.15 27.3 15.05 27.3 14.9 27.3 12.8 27.5 Q8.5 27.5 4.85 25.7 1.3 24.1 1.3 22.55 L1.4 22.15 1.3 21.5 Q1.3 20.85 1.55 20.7 L1.8 20.5 Q7.45 20.95 10.05 18.0 12.0 16.0 12.0 13.5 L11.65 11.2 11.4 8.45 Q8.6 8.25 8.0 7.25 7.8 6.95 7.8 5.15 7.8 3.8 8.5 -0.25 6.35 0.4 5.7 -1.45 5.35 -2.35 5.45 -3.4 5.45 -4.85 5.7 -5.5 L6.9 -8.9 Q5.2 -8.75 4.8 -10.6 4.65 -11.4 4.65 -13.7 4.65 -17.4 4.8 -17.9 L7.4 -23.95 Q2.85 -24.35 1.7 -25.1 0.9 -25.4 0.9 -26.95 0.9 -29.15 5.2 -34.0 9.65 -38.85 12.3 -39.3 11.4 -39.95 9.4 -40.6 7.8 -41.6 7.8 -43.35 7.8 -46.6 10.05 -48.85 12.8 -51.45 20.05 -53.95 19.1 -54.25 18.8 -54.85 L18.7 -55.75 Q18.7 -56.4 19.45 -57.45 20.4 -58.95 22.35 -60.0 28.1 -63.35 39.9 -62.6 38.45 -64.3 40.75 -67.55 43.05 -70.7 46.1 -70.7 47.65 -70.7 53.0 -69.25 L61.8 -66.75 Q61.05 -70.3 63.4 -71.8 65.5 -73.1 69.3 -72.3 72.55 -71.6 78.35 -69.25 L85.9 -66.0 Q85.9 -69.65 86.05 -70.05 86.45 -70.7 89.55 -70.7 96.5 -70.7 103.75 -66.3 108.95 -63.35 111.75 -59.85 L111.85 -60.0 111.95 -64.15 113.45 -64.3 Q115.65 -64.3 119.7 -62.3 123.75 -60.0 127.7 -56.7 137.4 -48.15 137.4 -39.95 L137.25 -34.8 Q137.0 -33.4 135.15 -28.55 L133.95 -26.85 133.75 -26.55 133.6 -26.4 133.6 -26.3 131.75 -24.35 131.5 -23.7 131.4 -23.65 131.25 -23.4 131.0 -22.9 129.55 -21.45 Q125.75 -18.2 118.5 -18.2 L117.05 -18.45 Q114.3 -18.85 107.8 -21.1 L105.95 -21.6 105.7 -21.75 105.8 -21.55 105.85 -21.45 104.15 -21.45 104.15 -21.1 Q102.45 -20.4 100.55 -16.6 L99.0 -14.25 Q103.3 -12.05 106.25 -9.65 109.1 -7.2 109.1 -6.1 L109.1 -5.35 108.8 -5.2 108.45 -5.1 108.7 -5.05 Q112.25 -3.15 115.8 -0.2 119.15 2.65 121.25 5.55 123.25 8.45 123.35 10.25 L123.35 10.4 123.1 11.3 122.75 11.4 122.75 11.65 Q122.75 12.45 118.15 24.3 L117.85 25.15 115.65 30.3 Q112.25 38.45 111.1 38.45 L111.05 38.45 111.35 41.55 Q111.35 45.2 109.1 47.75 107.9 49.15 107.55 49.9 106.85 51.25 106.85 53.25 106.85 55.15 107.95 58.2 109.1 61.3 109.1 63.6 L109.1 66.8 109.85 66.55 Q109.85 66.45 110.0 66.45 L110.05 66.35 110.5 66.35 Q112.4 65.8 114.05 66.3 115.8 66.55 117.05 67.85 118.3 69.1 119.05 71.0 119.6 72.35 119.6 73.35 L119.55 74.15 122.2 74.05 123.35 74.05 Q127.8 75.0 131.5 77.2 L137.75 81.25 Q142.9 84.3 144.3 91.1 144.7 93.45 144.75 96.7 L144.7 101.7 144.6 107.35 Q144.3 110.6 142.6 112.95 141.05 115.85 138.55 118.3 L136.85 119.8 137.75 119.9 137.9 126.45 Q137.9 130.15 137.5 132.85 136.75 137.05 136.6 140.75 135.95 147.95 133.75 150.7 131.1 154.25 124.15 154.25 L113.0 153.4 Q102.55 152.15 101.8 150.2 99.15 151.7 95.05 153.15 89.85 154.75 87.45 154.75 L84.45 154.35 81.75 153.8 75.45 153.15 69.4 152.4 62.95 150.85 61.15 150.45 61.15 150.85 Q61.15 151.3 60.75 151.6 L59.15 152.5 58.7 152.95 58.0 153.45 Q57.25 153.85 57.5 154.25 L57.45 154.65 46.1 154.75 Q35.25 154.75 31.25 153.6 L28.55 152.65 Q27.05 151.85 26.05 151.6 23.55 150.8 19.2 148.7 15.15 146.75 13.35 145.55 8.0 141.9 1.8 138.35 -0.15 137.05 -0.85 135.75 -1.85 134.3 -1.85 132.2 -1.85 129.35 -1.35 127.9 L-0.55 125.55 Q1.0 122.65 1.3 116.35 1.55 113.5 2.6 108.4 L4.3 100.65 5.45 96.45 6.5 92.8 Q6.8 91.45 8.0 88.7 L9.4 84.95 10.7 76.65 Q11.1 73.4 11.65 71.15 L11.2 69.75 Q11.0 68.9 11.0 64.2 11.0 58.6 12.25 54.25 13.95 48.6 17.3 45.75 L12.15 40.65 Q11.0 39.35 11.0 36.45 11.0 33.45 12.0 32.9 L13.5 32.55 14.0 32.5 15.55 32.5 15.7 32.5 18.95 32.1 20.05 31.5 21.2 30.8 22.4 30.25 26.3 26.65 Q29.15 24.0 29.6 23.1 30.35 21.4 34.05 15.45 L36.1 11.65 37.95 7.5 38.5 5.55 38.0 5.55 37.95 5.55 37.8 5.55 36.5 5.4 35.85 5.3 34.95 5.1 Q33.4 4.65 31.7 3.8 L30.65 3.2 30.4 3.8 Q29.2 6.55 29.2 7.35 L29.05 10.4 29.05 10.6 29.05 11.0 28.8 14.55 Q28.4 16.5 27.2 18.5 L25.25 21.5 23.05 23.75 23.05 23.8 23.0 23.85 22.9 23.9 M133.05 -48.45 Q128.2 -56.3 113.8 -62.35 L113.8 -58.7 Q113.8 -56.55 112.8 -55.55 L109.65 -59.35 Q107.3 -62.2 105.45 -63.1 99.5 -66.25 97.85 -66.8 91.65 -69.4 87.65 -68.75 87.65 -66.8 89.55 -64.45 L91.3 -61.65 91.15 -60.8 91.0 -60.9 89.95 -60.65 Q89.2 -60.65 87.25 -62.3 L83.05 -65.25 76.9 -68.25 Q70.95 -70.6 64.65 -70.6 63.9 -70.6 63.65 -69.8 63.5 -69.4 63.5 -68.25 63.5 -67.95 64.65 -66.5 L65.75 -64.8 65.6 -64.0 65.45 -63.9 63.5 -63.9 55.55 -66.55 Q48.85 -68.6 46.25 -68.6 43.75 -68.6 42.4 -66.95 41.6 -65.75 41.6 -64.7 41.6 -63.4 44.1 -62.35 46.6 -61.4 46.6 -60.65 L46.35 -59.85 46.2 -59.75 44.35 -59.75 Q32.35 -62.2 25.55 -59.45 23.25 -58.65 21.95 -57.35 21.05 -56.4 21.05 -56.05 21.05 -55.1 23.55 -54.35 26.05 -53.55 26.05 -53.0 L25.9 -52.15 25.75 -52.0 Q16.2 -51.85 12.15 -48.45 9.65 -46.25 9.65 -43.2 9.65 -42.45 12.65 -41.6 16.2 -40.45 17.3 -38.9 13.75 -39.15 8.1 -34.2 L4.2 -30.2 Q2.7 -28.15 2.7 -27.2 L2.7 -26.6 2.75 -26.45 2.85 -26.7 6.75 -26.2 8.9 -26.15 Q10.15 -26.15 10.55 -25.75 L7.95 -19.5 Q6.4 -16.45 6.4 -14.1 L6.5 -11.2 8.0 -12.25 Q9.5 -13.3 9.9 -13.3 10.6 -13.3 10.85 -12.85 L11.0 -12.4 8.9 -7.95 Q7.4 -4.45 7.4 -3.5 7.4 -2.6 7.6 -2.45 8.25 -2.05 12.0 -1.7 L10.75 1.2 Q9.65 3.8 9.65 4.85 9.65 5.5 10.05 5.55 L11.2 5.65 Q12.95 6.05 13.3 8.95 L13.5 11.55 13.75 13.75 Q13.75 16.5 12.45 18.4 10.95 20.85 7.05 22.2 L6.8 22.3 6.4 22.45 3.1 22.45 4.65 23.7 Q7.2 25.45 12.8 25.45 18.2 25.45 21.05 22.95 L22.75 21.1 24.05 19.55 Q25.75 18.25 26.45 16.0 L27.2 12.7 27.75 5.9 Q28.1 3.55 28.9 1.75 L28.8 1.45 Q28.8 0.7 29.05 0.55 L29.45 0.55 30.4 -1.8 30.5 -2.1 31.55 -4.65 Q33.35 -8.6 35.45 -10.75 L36.0 -11.6 38.85 -15.4 42.25 -18.8 Q44.65 -21.05 45.15 -22.0 L46.45 -23.65 Q47.0 -24.1 49.65 -25.35 51.75 -26.3 52.6 -26.8 53.8 -27.45 54.35 -28.15 61.45 -31.05 64.65 -31.7 L78.55 -32.1 Q83.15 -32.1 90.1 -30.35 95.05 -28.95 96.35 -28.15 97.4 -28.0 98.35 -27.2 L101.35 -25.4 101.8 -25.35 102.05 -25.25 104.55 -24.45 105.2 -24.1 105.3 -24.1 108.3 -22.9 109.35 -22.5 Q113.65 -20.8 116.8 -20.4 L118.5 -20.25 121.25 -20.45 121.3 -20.45 123.6 -20.8 124.8 -20.95 126.65 -22.4 Q128.85 -23.95 131.0 -26.8 135.6 -32.85 135.6 -39.95 135.6 -44.4 133.05 -48.45 M92.85 -23.7 L94.05 -26.3 94.4 -27.2 94.15 -27.25 Q92.7 -28.1 91.0 -28.5 85.15 -30.35 73.6 -30.35 64.85 -30.35 59.05 -28.25 L54.35 -25.65 50.15 -23.65 Q47.8 -22.4 46.45 -20.0 45.65 -18.35 43.35 -16.5 L40.2 -13.9 Q39.3 -13.05 37.2 -9.4 36.1 -7.55 35.1 -6.95 L34.7 -6.4 32.95 -3.8 32.05 -0.65 31.45 0.45 31.4 1.05 33.1 1.7 Q33.8 1.9 34.4 2.25 L35.25 2.5 Q36.35 2.9 37.05 3.4 L39.0 4.25 Q39.95 1.5 41.2 -0.5 43.6 -4.7 48.05 -8.6 51.85 -12.45 57.75 -15.95 66.35 -21.1 72.15 -19.85 81.2 -20.45 89.85 -17.9 L91.7 -21.55 92.85 -23.7 M45.2 17.55 L45.0 17.05 Q44.35 16.5 44.0 15.45 L43.85 13.15 43.85 12.05 Q43.85 9.35 44.55 5.55 45.55 1.2 46.85 -0.5 L47.4 -1.3 48.7 -2.95 49.1 -3.35 50.15 -4.3 50.8 -4.8 54.3 -6.25 54.5 -6.25 55.4 -6.15 Q56.95 -5.85 58.0 -4.45 58.95 -3.15 58.95 -1.65 60.4 -3.0 62.75 -4.2 L69.3 -7.45 73.75 -9.25 77.95 -10.7 78.35 -10.85 78.55 -10.95 88.5 -10.7 88.9 -10.7 89.55 -10.6 92.3 -10.45 94.45 -9.95 94.55 -9.95 94.85 -9.9 96.35 -9.0 Q97.15 -8.45 99.05 -8.2 L100.15 -8.0 101.8 -7.6 102.7 -7.45 105.05 -6.55 106.2 -6.25 106.35 -6.15 106.5 -6.1 106.75 -6.0 Q106.2 -7.45 104.8 -8.45 L103.35 -9.5 101.8 -10.35 101.5 -10.45 100.85 -10.75 100.2 -11.1 Q100.05 -11.1 99.95 -11.2 L98.65 -11.9 Q98.1 -12.05 97.7 -12.3 L92.75 -14.65 92.75 -14.75 Q84.35 -17.95 70.05 -17.95 L69.9 -17.95 Q66.9 -17.95 62.85 -16.35 58.25 -14.4 53.95 -11.35 43.2 -3.5 39.8 7.85 38.65 11.4 36.9 15.0 34.8 19.0 32.1 22.55 L31.95 22.85 29.85 25.45 29.55 25.95 29.05 26.45 27.05 28.55 27.05 28.7 26.8 28.85 25.15 30.4 Q19.45 35.4 14.1 35.0 L12.8 34.85 12.8 37.85 Q13.05 38.65 16.05 41.65 L17.75 43.4 18.45 41.2 18.8 40.65 Q19.6 39.1 21.45 38.45 24.6 36.15 28.8 35.4 L31.0 35.0 31.25 35.0 33.9 34.85 36.4 34.9 36.55 34.9 39.65 35.25 39.8 35.25 44.1 27.15 Q46.45 22.55 47.95 19.9 47.0 19.65 45.95 18.4 L45.65 18.0 45.4 17.85 45.2 17.55 M57.75 0.55 L57.75 0.45 57.85 -0.35 Q57.85 -3.0 56.0 -4.45 L54.7 -4.95 Q54.3 -4.85 54.1 -4.45 L54.05 -4.45 53.05 -4.3 52.2 -4.0 Q51.35 -3.5 50.95 -3.0 49.25 -1.55 47.95 1.7 L47.4 2.8 45.7 10.6 45.7 10.75 45.7 11.55 45.7 12.5 45.7 13.15 45.7 13.9 45.7 14.2 45.95 15.5 46.1 15.5 46.1 15.9 47.0 16.9 47.5 17.3 49.75 17.55 50.95 17.35 51.95 16.7 52.25 16.55 53.4 15.2 53.4 15.1 53.65 15.2 53.7 15.1 53.7 15.2 Q60.35 15.35 69.9 17.45 79.0 19.45 88.3 22.7 97.7 25.95 103.35 29.1 108.85 32.1 109.5 34.25 L109.6 34.25 110.25 35.65 Q111.05 35.4 111.85 34.25 L112.75 32.8 113.25 31.75 115.1 27.05 115.15 27.0 118.0 21.4 118.9 18.9 Q119.35 17.3 119.85 16.55 L120.9 14.3 121.8 11.95 121.55 11.0 121.65 10.8 121.8 10.65 121.8 10.6 121.05 9.55 120.4 8.3 120.1 8.0 118.8 5.9 118.7 5.8 116.7 3.15 Q115.1 1.35 113.65 0.3 L111.85 -0.8 111.2 -1.25 103.85 -4.8 103.75 -4.85 102.3 -5.45 94.8 -7.6 Q89.35 -8.9 84.05 -8.9 77.5 -8.9 71.65 -6.55 69.95 -6.0 68.35 -5.1 L67.95 -4.85 66.65 -4.15 61.8 -0.9 Q59.55 0.55 58.7 0.55 L58.3 0.55 58.1 0.7 57.75 0.55 M95.6 -25.65 L95.45 -25.4 Q95.45 -23.4 93.6 -19.65 L92.05 -17.15 96.95 -15.2 99.5 -19.1 Q100.2 -20.8 100.85 -21.6 L102.0 -22.4 Q100.55 -23.15 98.85 -24.45 L96.5 -25.95 95.6 -25.65 M98.85 32.55 Q99.95 32.75 101.1 33.3 L101.4 33.45 101.5 33.5 104.35 35.5 104.5 35.4 105.05 34.85 105.7 34.2 105.95 34.05 105.95 33.85 105.55 33.45 103.35 31.75 103.3 31.75 101.65 31.45 99.9 31.2 98.5 31.1 98.5 32.0 98.5 32.25 98.5 32.4 98.5 32.5 98.7 32.5 98.85 32.55 M81.35 26.45 L82.25 27.3 83.45 26.0 83.85 25.7 83.8 25.6 82.15 24.0 80.15 22.85 Q79.1 22.4 78.85 21.8 L76.5 21.25 74.9 20.85 74.75 21.1 74.9 21.55 75.0 23.1 75.0 23.2 75.0 23.55 75.45 23.7 77.9 24.6 78.3 24.8 Q80.25 25.65 81.35 26.45 M99.3 52.05 L100.45 49.4 100.6 49.05 97.7 45.45 Q95.45 42.75 93.8 41.7 L91.05 39.95 Q90.35 39.55 87.2 38.8 77.9 36.95 75.55 36.05 L74.9 38.65 Q74.9 39.45 75.4 40.4 L75.85 41.3 78.3 43.75 78.8 44.3 79.1 44.7 80.25 46.4 80.25 46.5 81.55 50.1 81.55 50.2 81.75 52.6 81.75 56.75 Q81.7 58.2 81.3 59.35 L79.9 62.1 82.75 63.05 Q83.25 63.4 83.85 63.6 L87.1 64.35 87.2 64.35 Q92.95 63.3 94.7 61.85 95.45 61.2 95.9 60.15 L96.5 58.75 96.8 58.05 97.55 56.45 98.6 53.9 99.25 52.2 99.3 52.05 M107.4 40.15 L106.45 42.45 102.0 50.45 Q101.25 51.8 100.15 55.3 L98.0 60.45 Q95.45 65.4 89.55 66.2 91.0 68.4 92.45 71.65 94.15 75.65 94.45 78.6 L94.55 79.65 94.55 79.9 94.55 80.3 94.85 79.95 96.1 78.9 Q97.05 78.35 98.5 77.95 L104.0 71.0 Q107.3 66.6 107.3 63.85 107.3 62.1 106.2 59.1 105.0 56.0 105.0 53.2 105.0 49.4 107.3 46.65 L108.85 44.6 Q109.6 43.35 109.6 41.55 109.6 40.9 108.45 37.4 L108.35 37.35 108.2 37.35 107.4 40.15 M116.3 74.2 L116.55 74.2 117.75 74.15 Q117.65 73.0 116.45 71.0 114.9 68.3 113.25 68.3 L110.8 68.9 108.2 69.45 107.75 69.45 107.3 70.1 107.15 70.35 106.25 71.65 103.35 75.65 103.6 76.0 Q104.35 75.45 104.65 75.35 106.25 74.7 112.6 74.4 L116.3 74.2 M87.65 66.3 L87.45 66.3 Q86.45 66.3 86.05 65.7 L83.7 65.7 85.1 66.95 Q87.2 69.05 88.95 72.75 L88.95 73.65 89.35 73.25 Q90.0 72.7 90.6 72.45 L89.15 69.5 87.65 66.35 87.65 66.3 M86.45 72.7 L86.0 71.65 85.9 71.65 85.9 71.45 84.2 69.5 83.85 69.3 80.9 66.7 78.45 64.85 76.25 69.05 76.05 69.35 75.85 69.3 75.7 69.3 75.8 69.35 77.5 71.3 77.65 71.4 78.55 72.5 Q79.9 74.4 79.9 75.25 L79.9 75.75 79.9 76.05 80.5 76.55 Q81.05 76.95 81.2 77.6 L81.3 77.6 81.75 77.7 Q82.15 77.85 82.15 78.35 L82.6 78.35 82.65 78.75 82.65 79.55 82.65 79.7 82.9 79.7 83.0 79.7 86.8 79.95 86.85 79.95 86.85 79.7 86.85 79.55 86.85 79.45 87.05 77.85 87.05 77.6 87.1 76.0 87.1 75.65 87.1 75.35 87.05 75.35 Q86.95 73.8 86.45 72.7 M106.9 106.15 L108.15 105.45 108.8 105.2 Q109.6 104.7 110.55 104.15 109.25 100.35 107.95 97.6 106.5 94.35 104.55 91.7 103.6 90.4 101.25 88.35 L97.85 85.8 97.6 85.6 Q93.65 82.95 87.35 81.55 L83.7 81.0 82.8 80.75 82.75 80.75 82.5 80.6 82.35 80.5 Q81.35 82.4 77.65 86.35 L74.9 89.35 74.55 89.65 74.5 89.65 72.15 92.25 68.5 98.8 64.85 105.6 61.8 112.3 60.9 114.15 Q61.9 114.55 64.85 117.25 65.45 117.9 66.1 118.2 66.65 118.7 67.8 119.25 L70.05 120.05 70.45 120.05 70.7 120.15 71.2 120.25 71.8 120.25 72.15 120.25 72.4 120.25 Q79.9 120.25 84.85 118.55 87.35 117.7 88.9 116.6 90.65 115.8 96.35 112.2 L102.25 108.9 103.3 108.25 103.75 108.0 Q104.4 107.6 105.0 107.3 L106.5 106.4 106.9 106.15 M123.5 76.55 L123.1 76.5 121.65 76.25 121.55 76.25 118.5 76.05 Q107.65 76.05 100.95 79.15 L97.4 81.25 97.2 81.35 95.5 82.05 95.75 82.3 96.75 82.8 97.05 82.95 98.35 83.85 102.3 87.05 106.2 90.7 Q108.8 93.8 110.55 98.4 L112.8 104.8 Q113.7 105.25 114.45 107.2 L116.55 112.85 Q119.95 121.2 127.4 121.2 L127.55 121.2 127.7 121.2 128.6 121.2 Q133.2 120.8 137.0 117.05 139.2 114.95 140.9 112.2 142.6 110.3 142.8 106.95 L142.9 101.4 142.8 94.35 Q142.6 90.3 141.1 87.25 139.1 83.35 132.65 79.8 128.85 77.85 125.1 76.9 L123.5 76.55 M92.75 81.1 Q92.45 78.2 91.3 74.4 90.4 75.85 88.95 75.85 L88.95 80.3 92.75 81.1 M75.6 67.6 Q76.7 64.1 78.7 59.6 79.9 56.75 79.9 52.45 L79.75 49.3 Q79.25 47.6 77.15 45.85 L74.9 42.35 73.1 39.05 73.05 38.65 73.05 38.45 Q73.05 37.4 73.75 35.8 74.4 34.1 74.4 32.1 74.4 30.0 73.1 28.45 72.65 27.9 70.3 26.2 68.35 24.75 67.55 23.35 66.4 21.5 66.25 19.05 L64.85 18.8 64.7 18.75 64.05 18.65 64.0 18.6 56.05 17.35 55.4 19.05 52.9 26.2 49.25 35.5 50.5 37.35 50.55 37.5 Q52.25 38.8 54.85 42.45 L56.4 44.95 58.25 47.75 61.4 52.4 Q64.0 56.0 67.8 59.8 L68.85 61.05 69.15 61.35 69.65 61.9 71.25 63.55 74.15 66.35 75.45 67.65 75.55 67.75 75.6 67.6 M55.0 47.2 L53.45 44.95 53.4 44.85 53.25 44.55 53.05 44.45 53.0 44.4 48.95 38.45 48.85 38.45 47.3 38.15 47.0 38.15 46.45 38.05 46.25 38.05 42.25 37.75 41.6 37.6 35.45 37.25 29.2 37.6 Q23.55 38.45 21.1 41.0 L20.15 42.25 Q19.65 43.35 19.6 44.45 26.85 42.05 30.5 41.45 36.95 40.4 44.8 42.45 L46.45 43.1 49.85 44.6 52.4 46.05 52.65 46.15 52.9 46.15 53.0 46.25 54.5 47.05 55.0 47.45 55.0 47.35 55.35 47.6 55.0 47.2 M14.9 73.25 L15.05 73.8 Q15.95 70.35 17.5 65.9 18.55 62.5 20.05 60.0 22.5 56.35 25.55 54.8 L29.45 52.05 Q31.45 50.45 33.65 50.05 L34.0 50.05 Q40.3 47.7 43.35 47.45 L44.65 47.45 Q46.7 47.45 47.0 48.8 50.05 48.9 52.2 49.8 L54.7 51.35 Q56.05 52.3 57.05 52.6 57.9 52.95 58.9 53.45 L58.4 52.95 56.3 50.85 54.7 49.55 Q54.05 49.0 52.25 48.2 L49.75 46.9 47.25 45.35 Q47.0 45.1 44.65 44.55 L40.95 44.4 30.1 44.15 26.2 43.95 23.0 44.85 Q19.6 46.05 18.05 47.6 17.25 48.4 16.2 50.45 L14.55 53.2 Q13.1 55.45 12.9 58.75 L12.8 64.25 Q12.8 67.4 14.1 71.3 L14.9 73.25 M37.95 50.75 Q34.65 51.55 31.4 53.45 28.8 54.9 25.0 57.7 22.1 59.35 20.7 62.65 L18.7 68.05 Q17.4 70.75 16.45 78.35 L15.85 82.95 17.9 78.65 19.1 75.35 20.25 72.5 22.4 69.35 24.7 66.35 Q27.1 62.75 31.7 60.4 37.2 57.7 40.05 56.45 L40.15 56.45 40.2 56.45 44.8 56.0 45.0 56.0 45.15 56.0 45.4 56.0 45.95 56.0 50.15 56.45 50.25 56.45 51.6 56.6 55.5 57.25 57.25 57.5 60.85 57.95 56.15 54.75 54.3 53.45 Q53.3 52.95 50.7 52.0 49.6 51.55 48.05 51.25 L45.4 50.75 45.05 50.7 43.75 50.45 43.5 50.45 42.95 50.3 41.1 50.3 40.95 50.35 37.95 50.75 M20.4 89.6 Q21.55 83.45 22.4 79.7 22.75 78.0 25.0 74.8 L28.65 70.1 30.5 67.75 30.65 67.4 29.85 67.6 Q28.1 67.6 27.75 66.85 L27.65 65.9 25.15 68.8 Q23.05 71.45 22.2 73.65 L20.25 78.4 18.45 83.25 18.05 84.3 17.9 84.55 17.3 85.7 Q16.6 87.25 16.45 88.1 L15.95 90.65 15.55 91.6 Q15.55 93.85 15.7 94.65 16.25 98.0 18.45 99.2 L18.7 98.9 18.7 98.7 18.95 97.65 19.0 97.5 20.3 90.0 20.4 89.6 M36.4 98.65 L38.0 98.25 38.35 89.35 38.75 83.5 39.25 77.7 39.15 71.85 Q39.15 69.6 39.65 68.05 L39.15 67.85 38.85 67.6 Q38.85 66.7 39.0 66.35 L37.3 66.6 36.95 66.7 Q33.35 67.6 32.7 68.25 32.1 68.55 31.25 69.95 L29.7 72.1 28.3 73.5 Q29.2 73.5 29.6 74.15 L29.7 75.85 29.7 76.0 29.55 77.35 29.55 77.6 29.2 79.9 29.05 80.95 28.8 83.85 28.8 85.3 28.9 90.4 28.8 95.25 28.3 100.0 28.0 102.9 Q29.85 101.3 32.55 100.1 34.0 99.3 35.6 98.9 L36.4 98.65 M14.4 144.0 Q16.05 144.65 18.95 146.25 22.35 148.35 24.5 149.25 26.3 150.15 28.5 150.7 L28.0 146.75 27.75 140.45 27.2 137.35 Q26.6 135.2 26.55 134.3 L26.45 132.75 26.55 131.2 Q26.55 129.35 26.05 128.55 L25.55 127.85 20.05 127.85 Q19.45 126.85 19.25 125.3 L19.2 122.8 19.65 109.4 19.65 102.45 19.75 101.05 18.45 101.3 Q16.85 101.3 15.8 100.25 14.25 98.9 13.85 95.65 13.6 93.8 13.6 91.45 L13.75 88.95 13.75 87.9 Q13.75 81.1 14.1 78.65 14.15 77.55 14.5 76.05 L13.1 73.9 11.35 83.35 11.25 83.45 11.25 83.5 10.15 87.5 7.8 95.25 Q6.4 99.35 6.0 101.7 L4.15 109.3 Q3.15 113.9 3.15 116.75 3.15 122.8 1.65 125.55 L0.5 127.9 Q0.1 129.3 0.1 131.8 0.1 134.15 0.4 134.8 1.05 136.15 3.9 137.6 L7.05 139.65 7.55 139.95 7.7 140.05 8.75 140.75 9.1 141.0 11.2 142.4 Q12.3 143.1 13.45 143.5 L14.1 143.85 14.4 144.0 M27.05 82.3 L27.35 80.2 27.85 76.9 Q27.85 76.3 27.35 75.65 L27.05 75.1 Q24.85 78.1 24.05 81.35 L21.7 90.3 Q21.05 93.3 20.9 95.9 L20.9 96.3 21.05 95.9 21.75 96.6 Q22.35 97.6 22.25 99.3 L22.1 100.9 21.95 102.1 21.45 112.3 21.35 114.1 23.85 114.1 24.7 114.1 24.85 114.1 25.35 114.1 25.5 113.85 25.55 113.85 25.55 107.6 27.05 92.25 27.05 88.55 27.05 84.75 27.05 84.55 27.05 82.85 27.05 82.55 27.05 82.3 M63.65 65.15 L63.75 65.15 70.7 68.4 72.7 69.6 66.65 63.4 66.1 62.9 Q64.15 61.2 63.25 60.85 L59.85 60.05 56.15 59.4 53.4 59.0 53.05 58.95 51.1 58.55 52.0 59.4 53.25 60.7 Q53.7 61.7 53.7 63.0 L53.65 63.7 53.95 63.7 54.85 63.7 58.3 63.8 63.15 65.0 63.25 65.1 63.35 65.1 63.65 65.15 M77.55 76.25 L77.15 75.85 72.55 72.45 72.45 72.45 72.4 72.35 72.25 72.35 72.25 72.25 Q68.85 69.85 66.15 68.55 L66.0 68.55 63.35 67.4 64.45 68.4 68.0 71.8 71.6 74.6 73.75 75.75 74.0 76.0 77.65 77.05 78.15 77.2 77.65 76.25 77.55 76.25 M71.65 77.3 L71.25 77.05 70.95 76.8 66.95 73.8 63.15 70.5 59.85 67.2 59.85 66.8 59.85 66.6 59.85 66.55 56.45 66.15 Q57.45 68.4 58.0 71.8 58.8 75.35 58.95 79.0 L59.7 81.1 60.25 82.8 61.15 85.6 62.85 91.7 62.95 92.35 62.95 92.5 62.95 93.3 Q62.95 94.6 62.1 95.4 61.25 96.3 58.4 97.65 56.7 98.55 52.6 100.0 48.45 101.3 47.25 101.3 46.5 101.3 46.25 100.9 L46.2 100.75 46.1 100.9 45.65 100.6 45.15 100.4 43.95 87.8 43.7 85.95 43.5 84.75 43.45 84.25 43.35 84.0 43.35 83.75 42.25 75.35 Q41.6 70.1 41.6 66.7 L41.65 65.9 40.55 66.15 40.6 66.8 40.6 67.25 41.0 70.15 41.1 74.4 40.6 82.3 40.2 94.05 39.95 105.75 39.95 106.0 Q39.9 109.7 39.4 111.75 39.8 111.9 39.8 112.2 L39.65 113.1 39.3 113.25 38.9 113.25 38.35 113.7 Q37.6 113.7 37.6 113.5 L37.6 113.45 37.2 113.45 38.65 116.0 38.9 116.5 41.1 121.1 Q42.7 123.95 44.25 128.4 L47.1 126.45 50.95 123.95 Q55.5 120.8 57.05 117.65 L60.4 110.5 63.5 103.55 Q64.95 100.35 67.3 96.3 L71.35 89.65 Q72.15 88.35 74.1 86.5 L76.35 84.5 77.4 83.45 78.15 82.45 78.2 82.45 79.9 80.3 80.15 79.9 80.5 79.45 79.6 79.55 76.75 79.55 75.6 79.8 74.9 79.9 74.9 80.2 74.75 80.2 74.75 79.9 73.6 79.95 72.95 79.95 71.2 79.95 70.2 79.9 Q69.95 79.8 69.9 79.0 70.75 78.2 71.8 77.7 L72.15 77.6 71.75 77.35 71.65 77.3 M44.25 72.6 L44.35 73.0 44.35 73.1 44.35 73.35 44.65 76.95 45.05 81.25 45.15 81.5 45.2 81.8 45.8 86.0 45.85 86.35 45.85 86.65 45.95 87.0 46.25 86.65 47.0 86.35 47.3 86.2 Q48.3 85.7 50.7 84.95 L58.1 83.6 58.9 83.6 58.25 81.55 Q57.1 78.2 56.55 75.35 L56.0 73.1 55.5 70.5 55.4 70.15 55.25 68.4 55.25 68.3 55.25 67.6 Q55.25 66.7 55.4 66.3 L55.55 65.9 48.15 65.5 42.8 65.8 43.75 69.2 44.25 72.6 M60.65 90.3 L60.5 89.8 59.35 85.6 59.3 85.45 59.3 85.35 56.2 85.45 Q53.95 85.85 51.05 86.9 49.5 87.5 48.05 88.2 47.1 88.6 46.1 89.1 L46.2 90.05 46.25 90.65 46.35 91.3 46.45 91.7 46.45 92.1 46.45 92.35 47.0 96.8 47.0 96.95 47.0 97.2 47.0 97.4 47.0 98.55 47.0 98.65 46.85 99.45 46.7 99.95 Q48.7 98.8 54.9 96.95 61.15 95.0 61.15 93.3 L61.15 93.2 61.05 92.5 60.65 90.3 M69.4 127.0 Q69.9 126.15 71.1 125.1 72.7 123.6 74.5 122.75 75.05 122.4 75.55 122.25 L72.4 122.35 Q68.65 122.35 63.9 119.1 62.2 117.9 60.9 116.5 L60.2 115.6 58.55 119.1 56.45 121.7 56.3 121.9 56.6 121.9 Q59.7 122.65 61.45 123.8 62.55 124.35 64.4 126.15 L65.75 128.0 66.8 129.45 66.9 129.75 Q68.9 132.6 70.6 132.6 72.25 132.6 73.45 131.65 74.4 130.8 74.4 129.7 L74.4 128.8 74.25 128.45 73.35 128.7 72.0 128.7 70.85 128.55 68.9 127.85 69.4 127.0 M94.4 115.85 Q88.3 119.65 85.9 120.55 82.9 121.6 78.3 122.15 78.95 122.4 78.95 123.55 L78.95 123.85 Q79.65 124.6 80.15 125.65 L80.8 126.95 81.2 128.3 81.2 128.4 81.75 130.8 81.75 131.2 Q81.75 132.7 81.3 133.3 L79.9 135.9 79.6 136.7 77.15 139.8 Q75.0 142.4 74.4 142.4 L74.1 142.4 74.0 142.45 73.05 143.25 Q68.25 142.85 66.35 141.4 65.75 141.1 64.95 140.05 L63.4 138.5 Q61.05 136.8 58.4 135.65 L56.45 134.85 56.4 134.85 54.1 134.15 Q54.75 137.75 55.8 139.95 L57.5 143.85 Q58.7 146.35 59.7 147.4 61.25 149.0 62.95 149.35 L63.9 149.5 66.1 149.9 66.25 149.9 66.4 149.9 68.5 150.15 79.0 151.7 90.2 152.8 Q100.7 148.7 102.8 147.4 103.6 147.0 104.65 144.25 L105.45 142.4 105.45 142.2 Q105.85 140.5 106.6 138.4 105.7 138.2 105.05 137.35 L104.15 136.25 102.9 135.35 Q102.25 137.05 100.85 138.65 98.75 141.5 95.7 141.5 89.8 141.5 86.85 138.4 L86.6 138.2 Q85.9 137.2 85.55 136.15 L85.15 135.2 83.7 130.15 83.05 127.85 83.05 127.5 Q83.05 126.7 84.2 125.25 L84.7 124.6 Q86.3 122.55 88.3 121.6 L92.1 121.45 92.3 121.5 Q94.3 122.95 94.95 127.5 L93.8 127.85 92.85 127.6 91.8 127.4 91.8 128.4 Q91.8 129.35 92.3 130.25 93.0 131.8 94.55 131.8 95.05 131.8 95.75 130.8 L97.05 128.4 Q99.05 125.1 101.4 125.1 106.75 125.1 109.6 126.3 L110.05 126.55 110.5 126.75 110.55 126.75 110.65 126.6 110.8 125.65 111.1 124.6 111.85 121.85 111.85 118.3 110.25 120.65 110.0 120.8 109.75 120.95 109.65 121.05 109.65 121.1 109.5 121.1 Q108.85 121.5 108.15 121.85 L107.65 121.9 106.85 122.0 103.45 121.6 103.5 121.85 101.1 121.9 Q95.7 121.9 94.45 121.2 94.0 120.95 94.0 120.55 L94.05 120.25 94.05 119.8 Q94.05 118.7 94.2 117.7 94.3 116.85 94.55 116.1 L94.55 115.7 94.4 115.85 M74.15 124.75 L72.7 126.2 Q75.4 125.9 75.95 127.35 76.25 127.9 76.25 129.6 76.25 131.45 75.8 132.35 74.55 134.6 70.6 134.6 68.45 134.6 66.35 131.95 L64.15 128.8 Q62.1 126.7 58.0 124.6 L57.75 124.45 55.25 123.3 55.0 123.15 54.9 123.15 52.2 125.5 Q52.65 125.55 52.9 126.15 L53.0 128.25 Q53.7 130.4 53.85 132.1 L53.95 133.1 54.3 133.1 55.65 133.15 55.9 133.15 57.05 133.15 57.5 133.25 Q59.6 133.65 60.9 134.3 L62.55 135.45 64.4 136.65 Q65.7 137.2 66.95 139.25 68.5 140.7 72.25 141.15 L72.7 141.15 73.45 141.15 74.9 139.45 77.15 136.65 78.85 134.05 79.35 133.15 Q79.9 131.95 79.9 131.15 L79.9 130.85 79.9 130.65 Q79.85 128.95 78.55 126.95 L78.45 126.75 78.35 126.7 78.3 126.55 77.3 124.45 77.15 124.1 77.0 124.05 74.9 124.2 74.15 124.75 M47.0 152.8 Q56.95 152.75 58.95 151.3 L59.45 150.15 59.55 150.0 Q57.65 149.0 56.45 146.5 L54.85 142.55 Q53.7 140.45 52.1 133.8 50.7 127.9 50.7 126.7 46.5 129.75 44.65 130.1 L43.85 130.5 Q42.0 130.15 41.5 129.05 L41.1 126.95 40.2 124.6 39.95 124.05 38.85 124.6 33.65 124.6 33.6 124.45 33.5 124.5 32.95 125.5 32.35 125.3 32.05 125.25 31.95 123.45 32.35 120.8 32.95 117.25 33.0 114.25 32.05 114.5 30.1 114.95 30.1 115.8 30.0 118.35 29.7 121.7 29.6 125.0 Q29.55 126.2 28.75 127.25 L28.55 127.75 28.4 127.85 28.15 127.85 Q28.5 128.3 28.5 129.2 L28.25 131.05 Q28.1 132.1 28.3 132.5 L28.75 135.75 29.2 139.0 Q29.95 142.0 30.25 145.6 L30.6 151.3 34.05 152.0 34.3 152.25 34.8 152.1 35.45 152.15 42.4 152.8 45.8 152.8 46.05 152.8 46.35 153.4 47.0 152.8 M35.6 101.0 L32.3 102.9 29.8 104.4 27.85 105.35 27.75 109.7 Q27.6 111.9 27.05 113.45 L29.15 112.8 29.2 112.7 29.2 112.8 29.6 112.7 32.7 112.05 35.7 111.4 37.45 111.25 37.85 103.25 38.0 99.7 35.6 101.0 M25.5 125.8 L27.35 126.05 27.35 122.9 28.1 117.7 28.4 116.0 26.05 116.0 22.4 116.0 21.3 116.0 21.05 122.5 21.05 125.7 22.5 125.7 23.05 125.7 25.5 125.8 M34.3 122.4 L34.3 122.8 39.15 122.35 36.9 117.65 Q35.75 115.45 35.6 113.75 L35.25 116.35 34.7 119.4 34.3 122.4 M114.7 114.25 L114.7 120.65 112.25 128.45 Q112.8 129.6 112.8 131.3 112.8 134.8 112.35 136.15 111.55 138.65 108.95 138.75 L108.15 140.75 108.2 140.75 106.85 145.15 Q105.95 147.15 104.55 148.35 L107.15 148.85 110.55 149.9 Q115.65 151.35 124.2 151.35 L129.3 150.7 Q131.2 150.15 132.25 148.45 133.95 145.6 134.25 135.2 L134.5 131.0 134.65 126.7 Q134.25 123.8 134.35 122.25 L134.55 121.35 134.75 121.25 134.5 121.35 Q131.2 123.2 127.4 123.2 121.8 123.2 118.4 119.5 L116.45 116.75 115.5 115.15 114.75 114.25 114.7 114.0 114.7 114.25 M112.35 107.75 Q111.95 107.3 111.55 107.2 L111.35 107.2 111.35 107.3 110.8 109.65 110.05 112.2 110.0 112.3 109.85 112.8 109.25 114.8 109.25 114.95 Q109.1 115.3 109.1 115.85 L108.8 116.35 108.3 117.0 106.25 117.25 102.25 117.4 100.6 117.25 Q98.9 117.15 98.65 116.6 L98.5 115.85 98.6 115.7 98.65 114.75 98.75 113.25 98.65 113.25 97.15 114.1 96.8 114.25 96.8 115.55 96.35 117.55 96.35 117.65 96.0 119.35 100.55 119.75 100.55 119.65 102.4 119.75 103.5 119.75 Q109.0 120.65 110.4 116.65 L111.05 115.15 111.55 114.5 111.7 113.6 112.0 112.0 Q112.4 110.45 113.25 109.65 L112.65 108.25 112.35 107.85 112.4 107.85 112.4 107.75 112.25 107.45 112.35 107.75 M109.1 108.0 L109.2 107.85 109.0 107.95 104.5 110.3 100.45 112.2 100.45 114.55 100.45 115.3 104.9 115.3 105.05 115.2 105.8 115.3 Q107.1 115.3 107.75 114.25 L107.95 113.1 107.9 112.7 108.2 112.0 108.35 111.25 108.35 111.1 108.45 110.75 108.45 110.6 108.6 110.35 108.6 110.3 Q108.8 108.5 109.1 108.0 M92.35 125.25 L92.3 125.25 92.1 125.15 91.8 124.75 91.65 124.5 90.75 123.45 90.6 123.3 Q89.55 122.35 87.85 123.85 L86.4 125.55 Q84.85 127.25 84.85 127.85 L84.85 128.05 85.65 128.15 85.9 127.9 86.2 127.6 86.45 128.4 86.6 130.15 Q86.7 131.2 86.95 132.1 88.8 136.0 90.35 137.2 92.1 138.75 96.1 138.75 96.95 138.75 99.25 135.35 101.6 131.95 102.9 131.95 104.65 131.95 107.65 134.15 L110.15 136.15 110.3 135.6 110.8 133.25 110.9 131.55 Q110.9 130.15 109.85 129.3 L109.75 129.3 109.75 129.2 109.35 128.8 Q106.85 127.0 100.85 127.0 100.15 127.0 99.5 128.15 99.25 128.45 98.35 130.65 96.65 134.2 94.55 134.2 92.1 134.2 90.85 131.55 89.95 129.7 89.95 127.85 89.95 126.55 90.1 126.2 L90.2 126.15 90.85 125.65 90.9 125.55 91.15 125.55 92.1 125.3 92.3 125.3 92.6 125.4 92.75 125.4 92.6 125.25 92.35 125.25" fill="#000000" fill-rule="evenodd" stroke="none"/>
      <path d="M2.7 -26.6 L2.7 -27.2 Q2.7 -28.15 4.2 -30.2 L8.1 -34.2 Q13.75 -39.15 17.3 -38.9 16.2 -40.45 12.65 -41.6 9.65 -42.45 9.65 -43.2 9.65 -46.25 12.15 -48.45 16.2 -51.85 25.75 -52.0 L25.9 -52.15 26.05 -53.0 Q26.05 -53.55 23.55 -54.35 21.05 -55.1 21.05 -56.05 21.05 -56.4 21.95 -57.35 23.25 -58.65 25.55 -59.45 32.35 -62.2 44.35 -59.75 L46.2 -59.75 46.35 -59.85 46.6 -60.65 Q46.6 -61.4 44.1 -62.35 41.6 -63.4 41.6 -64.7 41.6 -65.75 42.4 -66.95 43.75 -68.6 46.25 -68.6 48.85 -68.6 55.55 -66.55 L63.5 -63.9 65.45 -63.9 65.6 -64.0 65.75 -64.8 64.65 -66.5 Q63.5 -67.95 63.5 -68.25 63.5 -69.4 63.65 -69.8 63.9 -70.6 64.65 -70.6 70.95 -70.6 76.9 -68.25 L83.05 -65.25 87.25 -62.3 Q89.2 -60.65 89.95 -60.65 L91.0 -60.9 91.15 -60.8 91.3 -61.65 89.55 -64.45 Q87.65 -66.8 87.65 -68.75 91.65 -69.4 97.85 -66.8 99.5 -66.25 105.45 -63.1 107.3 -62.2 109.65 -59.35 L112.8 -55.55 Q113.8 -56.55 113.8 -58.7 L113.8 -62.35 Q128.2 -56.3 133.05 -48.45 L133.05 -48.3 133.75 -44.75 Q133.75 -38.45 131.25 -34.15 129.05 -30.2 125.05 -27.2 121.4 -24.25 119.15 -24.25 L114.3 -25.4 106.75 -26.45 Q102.8 -26.45 101.8 -25.4 L101.8 -25.35 101.35 -25.4 98.35 -27.2 Q97.4 -28.0 96.35 -28.15 95.05 -28.95 90.1 -30.35 83.15 -32.1 78.55 -32.1 L64.65 -31.7 Q61.45 -31.05 54.35 -28.15 53.8 -27.45 52.6 -26.8 51.75 -26.3 49.65 -25.35 47.0 -24.1 46.45 -23.65 L45.15 -22.0 Q44.65 -21.05 42.25 -18.8 L38.85 -15.4 36.0 -11.6 35.45 -10.75 Q33.35 -8.6 31.55 -4.65 L30.5 -2.1 30.4 -2.05 Q30.2 -2.95 29.8 -2.95 29.45 -2.95 28.15 -0.2 L26.3 3.85 Q24.85 6.8 24.3 10.6 L23.55 13.9 Q22.9 15.65 21.3 17.2 L18.55 20.5 Q15.85 23.05 13.05 23.05 L7.45 22.3 7.05 22.2 Q10.95 20.85 12.45 18.4 13.75 16.5 13.75 13.75 L13.5 11.55 13.3 8.95 Q12.95 6.05 11.2 5.65 L10.05 5.55 Q9.65 5.5 9.65 4.85 9.65 3.8 10.75 1.2 L12.0 -1.7 Q8.25 -2.05 7.6 -2.45 7.4 -2.6 7.4 -3.5 7.4 -4.45 8.9 -7.95 L11.0 -12.4 10.85 -12.85 Q10.6 -13.3 9.9 -13.3 9.5 -13.3 8.0 -12.25 L6.5 -11.2 6.4 -14.1 Q6.4 -16.45 7.95 -19.5 L10.55 -25.75 Q10.15 -26.15 8.9 -26.15 L6.75 -26.2 2.85 -26.7 2.7 -26.6 M121.25 -20.45 L118.5 -20.25 116.8 -20.4 Q117.05 -20.45 117.2 -20.65 L117.5 -21.05 118.9 -20.8 121.25 -20.45 M109.35 -22.5 L108.3 -22.9 105.3 -24.1 106.1 -23.95 107.3 -23.55 108.95 -22.65 109.35 -22.5" fill="#11111e" fill-rule="evenodd" stroke="none"/>
      <path d="M33.1 1.7 L31.4 1.05 31.45 0.45 32.05 -0.65 32.95 -3.8 34.7 -6.4 35.1 -6.95 Q36.1 -7.55 37.2 -9.4 39.3 -13.05 40.2 -13.9 L43.35 -16.5 Q45.65 -18.35 46.45 -20.0 47.8 -22.4 50.15 -23.65 L54.35 -25.65 59.05 -28.25 Q64.85 -30.35 73.6 -30.35 85.15 -30.35 91.0 -28.5 92.7 -28.1 94.15 -27.25 L94.4 -27.2 94.05 -26.3 92.85 -23.7 91.55 -24.25 87.35 -26.05 Q86.6 -26.6 85.25 -27.0 L78.3 -27.65 72.7 -27.5 68.0 -27.2 64.85 -26.8 64.4 -26.3 63.75 -25.65 62.6 -25.4 61.15 -25.0 Q60.75 -24.75 60.75 -24.5 L60.5 -24.05 58.8 -23.0 56.3 -22.35 Q52.65 -21.35 50.05 -18.55 47.55 -15.55 46.1 -14.4 43.95 -12.8 41.65 -9.95 39.0 -6.75 38.0 -6.0 L36.25 -3.75 35.25 -1.7 34.0 0.55 33.1 1.7 M88.95 -11.1 L88.25 -11.8 85.9 -13.45 80.8 -15.3 80.55 -15.3 75.45 -15.45 70.3 -15.8 64.4 -15.15 Q62.45 -14.4 56.55 -11.0 L52.4 -8.35 49.2 -5.7 Q46.75 -3.5 45.55 -0.35 44.9 1.1 43.95 4.9 L42.0 10.5 Q41.9 13.55 37.8 19.25 L37.7 19.4 36.95 20.2 36.75 20.5 35.85 21.4 Q35.25 21.8 33.5 23.35 L32.35 24.25 Q31.7 24.65 30.65 25.05 L29.55 25.95 29.85 25.45 31.95 22.85 32.1 22.55 Q34.8 19.0 36.9 15.0 38.65 11.4 39.8 7.85 43.2 -3.5 53.95 -11.35 58.25 -14.4 62.85 -16.35 66.9 -17.95 69.9 -17.95 L70.05 -17.95 Q84.35 -17.95 92.75 -14.75 L92.75 -14.65 97.7 -12.3 Q99.8 -10.3 100.15 -8.0 L99.05 -8.2 Q97.15 -8.45 96.35 -9.0 L94.85 -9.9 94.55 -9.95 94.45 -9.95 92.3 -10.45 89.55 -10.6 88.95 -11.1 M45.4 17.85 L45.65 18.0 45.95 18.4 Q47.0 19.65 47.95 19.9 46.45 22.55 44.1 27.15 L39.8 35.25 39.65 35.25 36.55 34.9 36.4 34.9 Q37.8 32.0 40.75 26.75 L42.65 23.85 43.05 23.05 44.15 20.95 Q44.25 20.5 45.0 19.4 L45.4 18.0 45.4 17.85 M54.9 -3.65 L54.75 -4.0 Q54.7 -4.45 54.1 -4.45 54.3 -4.85 54.7 -4.95 L56.0 -4.45 Q57.85 -3.0 57.85 -0.35 L57.75 0.45 57.75 0.55 Q57.5 0.95 56.95 0.95 56.0 0.95 55.55 0.0 L55.5 -0.35 55.5 -0.5 55.4 -1.45 55.4 -1.65 55.25 -3.1 54.9 -3.65 M103.75 -4.85 L103.85 -4.8 111.2 -1.25 111.85 -0.8 113.65 0.3 Q115.1 1.35 116.7 3.15 L114.5 8.65 111.6 15.2 107.95 23.9 106.5 27.3 Q101.5 24.4 93.5 21.65 L93.1 21.5 Q93.65 19.45 95.85 14.2 L98.85 7.0 100.45 3.15 101.8 -0.8 102.3 -3.1 Q102.8 -4.15 103.7 -4.7 L103.75 -4.85 M111.85 34.25 Q111.05 35.4 110.25 35.65 L109.6 34.25 109.5 34.25 Q108.85 32.1 103.35 29.1 97.7 25.95 88.3 22.7 79.0 19.45 69.9 17.45 60.35 15.35 53.7 15.2 L53.7 15.1 53.65 15.2 53.4 15.1 53.4 15.2 52.25 16.55 51.95 16.7 50.95 17.35 49.75 17.55 47.5 17.3 47.0 16.9 47.15 16.95 47.55 17.15 47.75 17.15 48.15 17.15 48.2 17.15 48.95 17.05 50.0 16.5 50.15 16.4 50.8 15.75 50.95 15.6 51.25 15.2 51.35 15.1 51.45 15.0 51.45 14.85 51.6 14.6 51.7 14.55 51.85 14.4 51.95 14.2 52.2 13.8 52.25 13.8 52.5 13.5 52.9 13.5 53.65 13.5 53.65 13.8 53.8 13.75 55.55 13.75 57.6 13.75 57.6 13.8 67.95 15.75 76.6 17.55 Q78.95 18.1 85.4 20.2 88.65 21.25 91.65 22.4 97.3 23.9 104.15 27.65 109.65 30.7 111.2 32.8 L111.85 34.25 M94.45 78.6 Q94.15 75.65 92.45 71.65 91.0 68.4 89.55 66.2 95.45 65.4 98.0 60.45 L100.15 55.3 Q101.25 51.8 102.0 50.45 L106.45 42.45 107.4 40.15 107.65 41.7 107.95 43.4 Q107.95 44.15 106.25 46.4 L104.5 48.8 Q104.25 49.3 103.85 51.5 L103.7 53.9 Q103.7 54.65 104.15 56.25 L104.55 58.45 Q104.55 59.25 104.9 60.7 L105.2 63.0 Q105.2 64.75 104.25 67.2 103.2 69.5 101.8 71.15 L100.3 73.15 98.65 75.35 95.9 77.35 94.45 78.6 M94.85 79.95 L94.55 80.3 94.55 79.9 94.85 79.95 M75.85 69.3 L76.05 69.35 76.25 69.05 78.45 64.85 80.9 66.7 83.85 69.3 84.2 69.5 85.9 71.45 85.9 71.65 86.0 71.65 86.45 72.7 85.4 71.7 Q83.85 70.75 81.55 70.75 79.85 70.75 78.55 72.5 L77.65 71.4 77.5 71.3 75.8 69.35 75.85 69.3 M64.7 18.75 L64.85 18.8 66.25 19.05 Q66.4 21.5 67.55 23.35 68.35 24.75 70.3 26.2 72.65 27.9 73.1 28.45 74.4 30.0 74.4 32.1 74.4 34.1 73.75 35.8 73.05 37.4 73.05 38.45 L73.05 38.65 73.1 39.05 74.9 42.35 77.15 45.85 Q79.25 47.6 79.75 49.3 L79.9 52.45 Q79.9 56.75 78.7 59.6 76.7 64.1 75.6 67.6 L75.45 67.65 74.15 66.35 76.25 61.1 Q78.55 55.15 78.55 52.55 L78.55 52.4 78.8 50.45 Q78.8 48.25 76.6 46.65 76.35 46.4 75.95 46.4 L75.6 45.45 75.45 45.45 75.3 45.25 75.3 45.2 75.2 45.1 74.4 44.15 74.15 43.75 73.95 43.4 73.95 43.35 72.7 41.7 Q71.65 40.1 71.65 38.3 71.65 37.5 72.15 35.25 L72.65 32.55 Q72.65 31.35 71.4 29.75 L68.5 26.35 65.05 22.7 64.85 22.0 64.8 21.65 64.7 21.25 64.65 20.2 64.65 20.05 64.65 19.9 64.7 18.75 M59.85 60.05 L63.25 60.85 Q64.15 61.2 66.1 62.9 L66.65 63.4 72.7 69.6 70.7 68.4 63.75 65.15 63.65 65.15 63.5 65.1 63.35 65.1 63.25 65.1 62.95 62.9 Q62.85 62.0 61.95 61.35 L60.4 60.4 59.85 60.05" fill="#34270e" fill-rule="evenodd" stroke="none"/>
      <path d="M92.85 -23.7 L91.7 -21.55 89.85 -17.9 Q81.2 -20.45 72.15 -19.85 66.35 -21.1 57.75 -15.95 51.85 -12.45 48.05 -8.6 43.6 -4.7 41.2 -0.5 39.95 1.5 39.0 4.25 L37.05 3.4 Q36.35 2.9 35.25 2.5 L34.4 2.25 Q33.8 1.9 33.1 1.7 L34.0 0.55 35.25 -1.7 36.25 -3.75 38.0 -6.0 Q39.0 -6.75 41.65 -9.95 43.95 -12.8 46.1 -14.4 47.55 -15.55 50.05 -18.55 52.65 -21.35 56.3 -22.35 L58.8 -23.0 60.5 -24.05 60.75 -24.5 Q60.75 -24.75 61.15 -25.0 L62.6 -25.4 63.75 -25.65 64.4 -26.3 64.85 -26.8 68.0 -27.2 72.7 -27.5 78.3 -27.65 85.25 -27.0 Q86.6 -26.6 87.35 -26.05 L91.55 -24.25 92.85 -23.7 M54.5 -6.25 L54.3 -6.25 50.8 -4.8 50.15 -4.3 49.1 -3.35 48.7 -2.95 47.4 -1.3 46.85 -0.5 Q45.55 1.2 44.55 5.55 43.85 9.35 43.85 12.05 L43.85 13.15 44.0 15.45 Q44.35 16.5 45.0 17.05 L45.2 17.55 45.0 17.85 Q43.7 17.85 42.45 16.55 L42.15 16.15 41.6 16.95 39.95 18.6 37.3 20.2 36.75 20.5 36.95 20.2 37.7 19.4 37.8 19.25 Q41.9 13.55 42.0 10.5 L43.95 4.9 Q44.9 1.1 45.55 -0.35 46.75 -3.5 49.2 -5.7 L52.4 -8.35 56.55 -11.0 Q62.45 -14.4 64.4 -15.15 L70.3 -15.8 75.45 -15.45 80.55 -15.3 80.8 -15.3 85.9 -13.45 88.25 -11.8 88.95 -11.1 88.9 -10.7 88.5 -10.7 78.55 -10.95 78.35 -10.85 77.95 -10.7 75.8 -11.8 Q70.55 -14.25 65.6 -14.25 65.1 -14.25 61.95 -12.45 59.2 -11.0 56.95 -9.55 56.45 -9.3 54.7 -6.5 L54.5 -6.25 M97.7 -12.3 Q98.1 -12.05 98.65 -11.9 L99.95 -11.2 100.95 -9.25 101.8 -7.6 100.15 -8.0 Q99.8 -10.3 97.7 -12.3 M94.8 -7.6 L102.3 -5.45 103.75 -4.85 103.7 -4.7 Q102.8 -4.15 102.3 -3.1 L101.8 -0.8 100.45 3.15 98.85 7.0 95.85 14.2 Q93.65 19.45 93.1 21.5 L90.35 20.35 Q88.5 19.4 86.95 19.0 L84.7 18.5 84.2 18.35 86.85 11.7 90.85 2.1 92.55 -2.6 Q93.4 -5.45 94.45 -7.2 L94.8 -7.6 M116.7 3.15 L118.7 5.8 117.9 7.5 117.2 9.2 116.8 9.95 Q113.85 15.85 113.7 16.5 L110.5 24.5 108.7 28.7 Q108.3 28.45 107.95 28.3 L107.4 27.8 107.15 27.65 106.5 27.3 107.95 23.9 111.6 15.2 114.5 8.65 116.7 3.15 M78.55 72.5 Q79.85 70.75 81.55 70.75 83.85 70.75 85.4 71.7 L86.45 72.7 Q86.95 73.8 87.05 75.35 L86.7 74.55 Q85.5 73.15 83.85 73.0 82.15 72.75 80.95 73.95 80.15 74.6 79.9 75.75 L79.9 75.25 Q79.9 74.4 78.55 72.5 M82.9 79.7 L82.65 79.7 82.65 79.55 82.75 79.55 82.9 79.7 M64.7 18.75 L64.65 19.9 64.65 20.05 64.65 20.2 64.7 21.25 64.8 21.65 64.85 22.0 63.5 21.4 Q61.7 21.1 60.25 20.5 L56.95 19.55 56.6 19.45 55.65 19.25 55.55 19.05 55.4 19.05 56.05 17.35 64.0 18.6 64.0 18.8 64.05 18.65 64.7 18.75 M74.15 43.75 L74.4 44.15 75.2 45.1 75.3 45.2 75.3 45.25 75.45 45.45 75.6 45.45 75.95 46.4 Q76.35 46.4 76.6 46.65 78.8 48.25 78.8 50.45 L78.55 52.4 78.55 52.55 Q78.55 55.15 76.25 61.1 L74.15 66.35 71.25 63.55 69.65 61.9 69.15 61.35 68.85 61.05 69.0 60.55 69.9 57.8 Q70.55 56.35 71.0 53.25 L72.7 48.65 74.15 43.9 74.15 43.75 M59.85 60.05 L60.4 60.4 61.95 61.35 Q62.85 62.0 62.95 62.9 L63.25 65.1 63.15 65.0 58.3 63.8 58.4 63.05 Q58.4 61.75 56.85 60.15 L56.15 59.4 59.85 60.05 M58.25 93.15 L58.3 93.15 60.25 92.55 60.35 92.5 60.75 92.5 60.9 92.5 61.05 92.5 61.15 93.2 61.15 93.3 Q61.15 95.0 54.9 96.95 48.7 98.8 46.7 99.95 L46.85 99.45 47.0 98.65 47.0 98.55 47.0 97.4 47.15 97.35 Q47.25 97.25 47.3 97.25 L48.05 96.8 49.35 96.3 Q51.35 95.55 53.0 95.5 L57.9 93.3 58.25 93.15 M55.9 133.15 L55.65 133.15 54.3 133.1 53.95 133.1 53.85 132.1 Q53.7 130.4 53.0 128.25 L52.9 126.15 Q52.65 125.55 52.2 125.5 L54.9 123.15 55.0 123.15 55.25 123.3 57.75 124.45 58.0 124.6 Q62.1 126.7 64.15 128.8 L66.35 131.95 Q68.45 134.6 70.6 134.6 74.55 134.6 75.8 132.35 76.25 131.45 76.25 129.6 76.25 127.9 75.95 127.35 75.4 125.9 72.7 126.2 L74.15 124.75 74.9 124.75 Q76.5 124.75 76.9 125.5 L77.1 126.85 77.4 128.45 77.65 129.85 Q77.65 132.35 75.85 133.55 74.15 134.7 70.85 134.7 69.1 134.7 67.2 133.25 L64.05 130.15 60.65 127.25 Q58.5 126.15 56.15 126.55 L56.05 128.55 56.0 130.65 56.0 132.7 55.9 133.15 M35.7 111.4 Q35.5 110.95 35.45 110.3 L35.45 106.15 35.45 102.9 35.6 101.0 38.0 99.7 37.85 103.25 37.45 111.25 35.7 111.4 M25.5 125.8 L25.4 124.6 25.5 122.1 Q25.65 119.75 25.9 118.35 L25.9 118.1 26.05 116.1 26.05 116.0 28.4 116.0 28.1 117.7 27.35 122.9 27.35 126.05 25.5 125.8 M34.3 122.4 L34.7 119.4 35.25 116.35 35.6 113.75 Q35.75 115.45 36.9 117.65 L39.15 122.35 34.3 122.8 34.3 122.4 M111.55 107.2 Q111.95 107.3 112.35 107.75 L112.35 107.85 112.65 108.25 113.25 109.65 Q112.4 110.45 112.0 112.0 L111.7 113.6 111.7 112.8 Q111.55 112.15 110.55 112.15 L110.0 112.3 110.05 112.2 110.8 109.65 111.35 107.3 111.55 107.2 M96.35 117.55 L96.8 115.55 96.8 114.25 97.15 114.1 98.65 113.25 98.75 113.25 98.65 114.75 98.6 115.7 98.5 115.85 96.5 117.4 96.4 117.5 96.35 117.55 M90.6 123.3 L90.1 123.85 88.65 125.25 88.4 125.3 86.95 126.95 86.2 127.6 85.9 127.9 85.65 128.15 84.85 128.05 84.85 127.85 Q84.85 127.25 86.4 125.55 L87.85 123.85 Q89.55 122.35 90.6 123.3 M110.8 133.25 Q110.4 133.15 110.15 132.6 L109.35 131.0 Q107.8 128.4 102.55 128.4 101.75 128.4 100.85 129.5 L99.05 132.2 97.3 134.15 Q95.6 135.6 94.65 135.6 91.7 135.6 90.25 132.9 89.2 131.15 89.2 129.2 89.2 128.7 89.7 126.75 90.1 125.7 90.9 125.55 L90.85 125.65 90.2 126.15 90.1 126.2 Q89.95 126.55 89.95 127.85 89.95 129.7 90.85 131.55 92.1 134.2 94.55 134.2 96.65 134.2 98.35 130.65 99.25 128.45 99.5 128.15 100.15 127.0 100.85 127.0 106.85 127.0 109.35 128.8 L109.75 129.2 109.75 129.3 109.85 129.3 Q110.9 130.15 110.9 131.55 L110.8 133.25" fill="#473612" fill-rule="evenodd" stroke="none"/>
      <path d="M54.5 -6.25 L54.7 -6.5 Q56.45 -9.3 56.95 -9.55 59.2 -11.0 61.95 -12.45 65.1 -14.25 65.6 -14.25 70.55 -14.25 75.8 -11.8 L77.95 -10.7 73.75 -9.25 69.3 -7.45 62.75 -4.2 Q60.4 -3.0 58.95 -1.65 58.95 -3.15 58.0 -4.45 56.95 -5.85 55.4 -6.15 L54.5 -6.25 M88.9 -10.7 L88.95 -11.1 89.55 -10.6 88.9 -10.7 M36.75 20.5 L37.3 20.2 39.95 18.6 41.6 16.95 42.15 16.15 42.45 16.55 Q43.7 17.85 45.0 17.85 L45.2 17.55 45.4 17.85 45.4 18.0 45.2 17.95 44.15 18.1 42.95 18.8 42.65 18.9 Q41.6 19.45 40.15 20.35 L37.7 21.9 37.6 21.9 37.45 22.0 36.95 22.4 31.95 24.75 29.05 26.45 29.55 25.95 30.65 25.05 Q31.7 24.65 32.35 24.25 L33.5 23.35 Q35.25 21.8 35.85 21.4 L36.75 20.5 M99.95 -11.2 Q100.05 -11.1 100.2 -11.1 L100.85 -10.75 101.5 -10.45 101.8 -10.35 103.35 -9.5 103.85 -8.9 104.9 -7.2 105.05 -6.55 102.7 -7.45 101.8 -7.6 100.95 -9.25 99.95 -11.2 M58.25 -6.8 Q58.25 -5.9 58.4 -5.5 58.95 -4.95 60.9 -4.95 64.8 -4.95 66.9 -7.95 68.1 -9.4 68.5 -10.7 L68.35 -11.5 Q68.1 -12.0 66.9 -12.05 65.1 -12.4 63.65 -12.0 62.3 -11.5 60.9 -10.45 59.05 -9.0 58.8 -8.45 58.25 -7.8 58.25 -6.8 M54.9 -3.65 L55.25 -3.1 55.4 -1.65 55.25 -1.25 55.15 -1.7 55.15 -2.1 55.0 -3.25 55.0 -3.35 54.9 -3.65 M71.65 -6.55 Q77.5 -8.9 84.05 -8.9 89.35 -8.9 94.8 -7.6 L94.45 -7.2 Q93.4 -5.45 92.55 -2.6 L90.85 2.1 86.85 11.7 84.2 18.35 84.7 18.5 81.6 17.7 77.15 16.8 73.6 16.0 70.05 15.35 65.75 14.45 65.2 14.4 65.5 13.25 66.0 11.65 68.0 5.65 Q71.65 -5.05 71.65 -6.25 L71.65 -6.55 M118.7 5.8 L118.8 5.9 120.1 8.0 118.9 11.2 117.05 14.95 115.15 18.6 Q113.95 20.95 111.7 27.0 L110.5 30.05 110.65 30.25 108.7 28.7 110.5 24.5 113.7 16.5 Q113.85 15.85 116.8 9.95 L117.2 9.2 117.9 7.5 118.7 5.8 M95.6 -25.65 L96.5 -25.95 98.85 -24.45 Q100.55 -23.15 102.0 -22.4 L100.85 -21.6 Q100.2 -20.8 99.5 -19.1 L96.95 -15.2 92.05 -17.15 93.6 -19.65 Q95.45 -23.4 95.45 -25.4 L95.6 -25.65 M51.25 15.2 L50.95 15.6 50.8 15.75 50.15 16.4 50.0 16.5 48.95 17.05 50.5 15.75 51.25 15.2 M94.45 78.6 L95.9 77.35 98.65 75.35 100.3 73.15 101.8 71.15 Q103.2 69.5 104.25 67.2 105.2 64.75 105.2 63.0 L104.9 60.7 Q104.55 59.25 104.55 58.45 L104.15 56.25 Q103.7 54.65 103.7 53.9 L103.85 51.5 Q104.25 49.3 104.5 48.8 L106.25 46.4 Q107.95 44.15 107.95 43.4 L107.65 41.7 107.4 40.15 108.2 37.35 108.35 37.35 108.45 37.4 Q109.6 40.9 109.6 41.55 109.6 43.35 108.85 44.6 L107.3 46.65 Q105.0 49.4 105.0 53.2 105.0 56.0 106.2 59.1 107.3 62.1 107.3 63.85 107.3 66.6 104.0 71.0 L98.5 77.95 Q97.05 78.35 96.1 78.9 L94.85 79.95 94.55 79.9 94.55 79.65 94.45 78.6 M87.05 75.35 L87.1 75.35 87.1 75.65 87.1 76.0 87.05 77.6 86.45 76.9 Q85.9 76.3 84.6 76.3 83.25 76.3 82.8 77.35 L82.65 78.4 Q82.65 79.15 82.9 79.7 L82.75 79.55 82.65 79.55 82.65 78.75 82.6 78.35 82.15 78.35 Q82.15 77.85 81.75 77.7 L81.3 77.6 81.2 77.6 Q81.05 76.95 80.5 76.55 L79.9 76.05 79.9 75.75 Q80.15 74.6 80.95 73.95 82.15 72.75 83.85 73.0 85.5 73.15 86.7 74.55 L87.05 75.35 M86.85 79.7 L86.85 79.95 86.8 79.95 86.85 79.7 M64.85 22.0 L65.05 22.7 68.5 26.35 71.4 29.75 Q72.65 31.35 72.65 32.55 L72.15 35.25 Q71.65 37.5 71.65 38.3 71.65 40.1 72.7 41.7 L73.95 43.35 73.95 43.4 74.15 43.75 74.15 43.9 72.7 48.65 71.0 53.25 Q70.55 56.35 69.9 57.8 L69.0 60.55 68.85 61.05 67.8 59.8 Q64.0 56.0 61.4 52.4 L58.25 47.75 59.55 43.4 60.4 39.35 61.15 35.25 63.8 25.95 64.85 22.15 64.85 22.0 M75.45 67.65 L75.6 67.6 75.55 67.75 75.45 67.65 M64.0 18.6 L64.05 18.65 64.0 18.8 64.0 18.6 M58.3 63.8 L54.85 63.7 53.95 63.7 53.65 63.7 53.7 63.0 Q53.7 61.7 53.25 60.7 L52.0 59.4 51.1 58.55 53.05 58.95 53.4 59.0 56.15 59.4 56.85 60.15 Q58.4 61.75 58.4 63.05 L58.3 63.8 M56.2 85.45 L59.3 85.35 59.3 85.45 59.35 85.6 60.5 89.8 60.65 90.3 60.9 92.5 60.75 92.5 60.35 92.5 60.25 92.55 58.3 93.15 58.25 93.15 57.65 92.75 Q57.5 92.35 57.5 91.45 L57.45 90.25 56.2 85.45 M55.9 133.15 L56.0 132.7 56.0 130.65 56.05 128.55 56.15 126.55 Q58.5 126.15 60.65 127.25 L64.05 130.15 67.2 133.25 Q69.1 134.7 70.85 134.7 74.15 134.7 75.85 133.55 77.65 132.35 77.65 129.85 L77.4 128.45 77.1 126.85 76.9 125.5 Q76.5 124.75 74.9 124.75 L74.15 124.75 74.9 124.2 77.0 124.05 77.15 124.1 77.3 124.45 78.3 126.55 78.35 126.7 78.45 126.75 78.55 126.95 Q79.85 128.95 79.9 130.65 L79.9 130.85 79.85 131.15 Q79.65 131.55 79.75 131.85 79.75 132.2 79.25 132.6 L78.35 133.3 76.45 134.7 Q74.15 136.05 72.25 136.05 69.4 136.05 66.9 134.55 L64.65 132.7 61.9 130.65 59.85 129.7 57.9 128.8 57.85 128.9 57.85 131.4 57.85 132.1 57.5 133.25 57.05 133.15 55.9 133.15 M26.05 116.0 L26.05 116.1 25.9 118.1 25.9 118.35 Q25.65 119.75 25.5 122.1 L25.4 124.6 25.5 125.8 23.05 125.7 22.5 125.7 22.5 123.45 Q22.25 122.55 22.35 121.05 L22.4 119.15 22.4 116.2 22.4 116.0 26.05 116.0 M111.7 113.6 L111.55 114.5 111.05 115.15 110.4 116.65 Q109.0 120.65 103.5 119.75 L102.4 119.75 100.55 119.65 100.55 119.75 96.0 119.35 96.35 117.65 96.35 117.55 96.4 117.5 96.5 117.4 98.5 115.85 98.65 116.6 Q98.9 117.15 100.6 117.25 L102.25 117.4 106.25 117.25 108.3 117.0 108.8 116.35 109.1 115.85 Q109.1 115.3 109.25 114.95 L109.25 114.8 109.85 112.8 110.0 112.3 110.55 112.15 Q111.55 112.15 111.7 112.8 L111.7 113.6 M90.6 123.3 L90.75 123.45 91.65 124.5 91.8 124.75 92.1 125.15 92.3 125.25 92.35 125.25 92.45 125.3 92.3 125.3 92.1 125.3 91.15 125.55 90.9 125.55 Q90.1 125.7 89.7 126.75 89.2 128.7 89.2 129.2 89.2 131.15 90.25 132.9 91.7 135.6 94.65 135.6 95.6 135.6 97.3 134.15 L99.05 132.2 100.85 129.5 Q101.75 128.4 102.55 128.4 107.8 128.4 109.35 131.0 L110.15 132.6 Q110.4 133.15 110.8 133.25 L110.3 135.6 109.65 134.85 108.6 133.1 Q106.85 130.4 104.5 130.4 L101.4 130.8 Q101.0 131.05 100.85 131.65 L99.8 132.6 Q99.15 133.15 99.05 133.55 98.85 134.7 97.85 135.5 96.55 137.05 94.15 137.05 89.85 137.05 88.9 132.2 88.5 130.75 88.5 128.7 L88.65 126.6 88.65 125.25 90.1 123.85 90.6 123.3" fill="#8e6c24" fill-rule="evenodd" stroke="none"/>
      <path d="M133.05 -48.45 Q135.6 -44.4 135.6 -39.95 135.6 -32.85 131.0 -26.8 128.85 -23.95 126.65 -22.4 L124.8 -20.95 123.6 -20.8 121.3 -20.45 121.25 -20.45 118.9 -20.8 117.5 -21.05 117.2 -20.65 Q117.05 -20.45 116.8 -20.4 113.65 -20.8 109.35 -22.5 L108.95 -22.65 107.3 -23.55 106.1 -23.95 105.3 -24.1 105.2 -24.1 104.55 -24.45 102.05 -25.25 101.8 -25.35 101.8 -25.4 Q102.8 -26.45 106.75 -26.45 L114.3 -25.4 119.15 -24.25 Q121.4 -24.25 125.05 -27.2 129.05 -30.2 131.25 -34.15 133.75 -38.45 133.75 -44.75 L133.05 -48.3 133.05 -48.45 M30.5 -2.1 L30.4 -1.8 29.45 0.55 29.05 0.55 Q28.8 0.7 28.8 1.45 L28.9 1.75 Q28.1 3.55 27.75 5.9 L27.2 12.7 26.45 16.0 Q25.75 18.25 24.05 19.55 L22.75 21.1 21.05 22.95 Q18.2 25.45 12.8 25.45 7.2 25.45 4.65 23.7 L3.1 22.45 6.4 22.45 6.8 22.3 7.05 22.2 7.45 22.3 13.05 23.05 Q15.85 23.05 18.55 20.5 L21.3 17.2 Q22.9 15.65 23.55 13.9 L24.3 10.6 Q24.85 6.8 26.3 3.85 L28.15 -0.2 Q29.45 -2.95 29.8 -2.95 30.2 -2.95 30.4 -2.05 L30.5 -2.1" fill="#000033" fill-rule="evenodd" stroke="none"/>
      <path d="M22.9 23.9 L23.0 23.85 23.05 23.8 23.0 24.0 22.9 23.9 M108.7 -5.05 L108.45 -5.1 108.8 -5.2 108.7 -5.05 M105.85 -21.45 L105.8 -21.55 105.7 -21.75 105.95 -21.6 105.85 -21.45" fill="#ff7c51" fill-rule="evenodd" stroke="none"/>
      <path d="M36.4 34.9 L33.9 34.85 37.7 28.55 40.35 24.4 Q42.8 20.5 42.8 19.45 L42.65 18.9 42.95 18.8 44.15 18.1 45.2 17.95 45.4 18.0 45.0 19.4 Q44.25 20.5 44.15 20.95 L43.05 23.05 42.65 23.85 40.75 26.75 Q37.8 32.0 36.4 34.9 M28.8 35.4 Q24.6 36.15 21.45 38.45 19.6 39.1 18.8 40.65 L18.6 40.4 16.6 37.85 15.4 36.55 14.1 35.0 Q19.45 35.4 25.15 30.4 L26.8 28.85 27.05 28.7 27.05 28.55 29.05 26.45 31.95 24.75 36.95 22.4 Q35.05 25.2 32.7 29.25 L28.8 35.4 M103.35 -9.5 L104.8 -8.45 Q106.2 -7.45 106.75 -6.0 L106.5 -6.1 106.35 -6.15 106.2 -6.25 105.05 -6.55 104.9 -7.2 103.85 -8.9 103.35 -9.5 M58.25 -6.8 Q58.25 -7.8 58.8 -8.45 59.05 -9.0 60.9 -10.45 62.3 -11.5 63.65 -12.0 65.1 -12.4 66.9 -12.05 68.1 -12.0 68.35 -11.5 L68.5 -10.7 Q68.1 -9.4 66.9 -7.95 64.8 -4.95 60.9 -4.95 58.95 -4.95 58.4 -5.5 58.25 -5.9 58.25 -6.8 M55.4 -1.65 L55.4 -1.45 55.5 -0.5 55.5 -0.35 55.55 0.0 Q56.0 0.95 56.95 0.95 57.5 0.95 57.75 0.55 L58.1 0.7 58.3 0.55 58.7 0.55 Q59.55 0.55 61.8 -0.9 L66.65 -4.15 67.95 -4.85 68.35 -5.1 Q69.95 -6.0 71.65 -6.55 L71.65 -6.25 Q71.65 -5.05 68.0 5.65 L66.0 11.65 65.5 13.25 65.2 14.4 65.75 14.45 70.05 15.35 73.6 16.0 77.15 16.8 81.6 17.7 84.7 18.5 86.95 19.0 Q88.5 19.4 90.35 20.35 L93.1 21.5 93.5 21.65 Q101.5 24.4 106.5 27.3 L107.15 27.65 107.4 27.8 107.95 28.3 Q108.3 28.45 108.7 28.7 L110.65 30.25 110.5 30.05 111.7 27.0 Q113.95 20.95 115.15 18.6 L117.05 14.95 118.9 11.2 120.1 8.0 120.4 8.3 121.05 9.55 Q120.5 9.6 120.4 10.15 L120.35 11.05 Q120.0 11.65 119.8 12.2 L118.8 14.3 115.65 21.0 Q115.0 22.45 114.5 24.4 L113.3 27.65 112.0 30.65 111.2 32.8 Q109.65 30.7 104.15 27.65 97.3 23.9 91.65 22.4 88.65 21.25 85.4 20.2 78.95 18.1 76.6 17.55 L67.95 15.75 57.6 13.8 57.6 13.75 55.55 13.75 53.8 13.75 53.65 13.8 53.65 13.5 52.9 13.5 52.5 13.5 52.25 13.8 52.2 13.8 51.95 14.2 51.85 14.4 51.7 14.55 51.6 14.6 51.45 14.85 51.45 15.0 51.35 15.1 51.25 15.2 50.5 15.75 48.95 17.05 48.2 17.15 48.15 17.15 47.75 17.15 Q48.85 16.3 50.4 12.85 L52.0 8.45 Q52.0 6.6 50.7 7.75 L48.55 10.15 45.8 12.45 45.7 12.5 45.7 11.55 45.7 10.75 Q47.65 9.05 50.8 4.75 L55.15 -1.7 55.25 -1.25 55.4 -1.65 M61.15 -8.9 L61.25 -7.8 Q61.45 -7.2 62.2 -7.2 63.9 -7.2 64.4 -8.45 L64.65 -9.65 Q64.65 -11.4 62.95 -11.1 61.15 -10.6 61.15 -8.9 M87.05 77.6 L87.05 77.85 86.85 79.45 86.85 79.55 86.85 79.7 86.8 79.95 83.0 79.7 82.9 79.7 Q82.65 79.15 82.65 78.4 L82.8 77.35 Q83.25 76.3 84.6 76.3 85.9 76.3 86.45 76.9 L87.05 77.6 M64.85 22.0 L64.85 22.15 63.8 25.95 61.15 35.25 60.4 39.35 59.55 43.4 58.25 47.75 56.4 44.95 54.85 42.45 Q52.25 38.8 50.55 37.5 L51.2 35.8 53.55 29.25 55.8 23.35 56.95 19.55 60.25 20.5 Q61.7 21.1 63.5 21.4 L64.85 22.0 M18.05 84.3 L18.45 83.25 20.25 78.4 22.2 73.65 Q23.05 71.45 25.15 68.8 L27.65 65.9 27.75 66.85 Q28.1 67.6 29.85 67.6 L30.65 67.4 30.5 67.75 28.65 70.1 25.0 74.8 Q22.75 78.0 22.4 79.7 21.55 83.45 20.4 89.6 L20.25 89.15 19.2 86.9 18.3 84.75 18.05 84.3 M63.35 65.1 L63.5 65.1 63.65 65.15 63.35 65.1 M56.2 85.45 L57.45 90.25 57.5 91.45 Q57.5 92.35 57.65 92.75 L58.25 93.15 57.9 93.3 53.0 95.5 Q51.35 95.55 49.35 96.3 L49.0 94.75 48.7 93.2 48.7 90.3 Q48.8 89.25 48.45 88.6 L48.05 88.2 Q49.5 87.5 51.05 86.9 53.95 85.85 56.2 85.45 M60.9 92.5 L60.65 90.3 61.05 92.5 60.9 92.5 M47.0 97.4 L47.0 97.2 47.15 97.35 47.0 97.4 M79.9 130.85 L79.9 131.15 Q79.9 131.95 79.35 133.15 L78.6 133.75 76.6 135.65 73.75 138.35 Q73.35 138.75 73.1 139.25 L72.45 139.15 69.4 138.5 Q66.0 136.5 65.45 135.9 L63.9 134.55 62.45 133.15 Q60.25 131.3 58.3 131.3 L57.85 131.4 57.85 128.9 57.9 128.8 59.85 129.7 61.9 130.65 64.65 132.7 66.9 134.55 Q69.4 136.05 72.25 136.05 74.15 136.05 76.45 134.7 L78.35 133.3 79.25 132.6 Q79.75 132.2 79.75 131.85 79.65 131.55 79.85 131.15 L79.9 130.85 M35.6 101.0 L35.45 102.9 35.45 106.15 35.45 110.3 Q35.5 110.95 35.7 111.4 L32.7 112.05 29.6 112.7 29.8 111.9 29.8 107.95 29.8 104.4 32.3 102.9 35.6 101.0 M22.4 116.0 L22.4 116.2 22.4 119.15 22.35 121.05 Q22.25 122.55 22.5 123.45 L22.5 125.7 21.05 125.7 21.05 122.5 21.3 116.0 22.4 116.0 M111.35 107.3 L111.35 107.2 111.55 107.2 111.35 107.3 M88.65 125.25 L88.65 126.6 88.5 128.7 Q88.5 130.75 88.9 132.2 89.85 137.05 94.15 137.05 96.55 137.05 97.85 135.5 98.85 134.7 99.05 133.55 99.15 133.15 99.8 132.6 L100.85 131.65 Q101.0 131.05 101.4 130.8 L104.5 130.4 Q106.85 130.4 108.6 133.1 L109.65 134.85 110.3 135.6 110.15 136.15 107.65 134.15 Q104.65 131.95 102.9 131.95 101.6 131.95 99.25 135.35 96.95 138.75 96.1 138.75 92.1 138.75 90.35 137.2 88.8 136.0 86.95 132.1 86.7 131.2 86.6 130.15 L86.45 128.4 86.2 127.6 86.95 126.95 88.4 125.3 88.65 125.25 M92.3 125.3 L92.45 125.3 92.35 125.25 92.6 125.25 92.6 125.4 92.3 125.3" fill="#cd9e3f" fill-rule="evenodd" stroke="none"/>
      <path d="M33.9 34.85 L31.25 35.0 31.0 35.0 28.8 35.4 32.7 29.25 Q35.05 25.2 36.95 22.4 L37.45 22.0 37.6 21.9 37.7 21.9 40.15 20.35 Q41.6 19.45 42.65 18.9 L42.8 19.45 Q42.8 20.5 40.35 24.4 L37.7 28.55 33.9 34.85 M18.8 40.65 L18.45 41.2 17.75 43.4 16.05 41.65 Q13.05 38.65 12.8 37.85 L12.8 34.85 14.1 35.0 15.4 36.55 16.6 37.85 18.6 40.4 18.8 40.65 M54.1 -4.45 Q54.7 -4.45 54.75 -4.0 L54.9 -3.65 55.0 -3.35 55.0 -3.25 55.15 -2.1 55.15 -1.7 50.8 4.75 Q47.65 9.05 45.7 10.75 L45.7 10.6 47.4 2.8 47.95 1.7 Q49.25 -1.55 50.95 -3.0 51.35 -3.5 52.2 -4.0 L53.05 -4.3 54.05 -4.45 54.1 -4.45 M61.15 -8.9 Q61.15 -10.6 62.95 -11.1 64.65 -11.4 64.65 -9.65 L64.4 -8.45 Q63.9 -7.2 62.2 -7.2 61.45 -7.2 61.25 -7.8 L61.15 -8.9 M121.05 9.55 L121.8 10.6 121.8 10.65 121.65 10.8 121.55 11.0 121.8 11.95 120.9 14.3 119.85 16.55 Q119.35 17.3 118.9 18.9 L118.0 21.4 115.15 27.0 115.1 27.05 113.25 31.75 112.75 32.8 111.85 34.25 111.2 32.8 112.0 30.65 113.3 27.65 114.5 24.4 Q115.0 22.45 115.65 21.0 L118.8 14.3 119.8 12.2 Q120.0 11.65 120.35 11.05 L120.4 10.15 Q120.5 9.6 121.05 9.55 M47.0 16.9 L46.1 15.9 46.1 15.5 45.95 15.5 45.7 14.2 45.7 13.9 45.7 13.15 45.7 12.5 45.8 12.45 48.55 10.15 50.7 7.75 Q52.0 6.6 52.0 8.45 L50.4 12.85 Q48.85 16.3 47.75 17.15 L47.55 17.15 47.15 16.95 47.0 16.9 M56.95 19.55 L55.8 23.35 53.55 29.25 51.2 35.8 50.55 37.5 50.5 37.35 49.25 35.5 52.9 26.2 55.4 19.05 55.55 19.05 55.65 19.25 56.6 19.45 56.95 19.55 M18.05 84.3 L18.3 84.75 19.2 86.9 20.25 89.15 20.4 89.6 20.3 90.0 19.0 97.5 18.95 97.65 18.7 98.7 18.7 98.9 18.45 99.2 Q16.25 98.0 15.7 94.65 15.55 93.85 15.55 91.6 L15.95 90.65 16.45 88.1 Q16.6 87.25 17.3 85.7 L17.9 84.55 18.05 84.3 M47.0 97.2 L47.0 96.95 47.0 96.8 46.45 92.35 46.45 92.1 46.45 91.7 46.35 91.3 46.25 90.65 46.2 90.05 46.1 89.1 Q47.1 88.6 48.05 88.2 L48.45 88.6 Q48.8 89.25 48.7 90.3 L48.7 93.2 49.0 94.75 49.35 96.3 48.05 96.8 47.3 97.25 Q47.25 97.25 47.15 97.35 L47.0 97.2 M79.35 133.15 L78.85 134.05 77.15 136.65 74.9 139.45 73.45 141.15 72.7 141.15 72.25 141.15 Q68.5 140.7 66.95 139.25 65.7 137.2 64.4 136.65 L62.55 135.45 60.9 134.3 Q59.6 133.65 57.5 133.25 L57.85 132.1 57.85 131.4 58.3 131.3 Q60.25 131.3 62.45 133.15 L63.9 134.55 65.45 135.9 Q66.0 136.5 69.4 138.5 L72.45 139.15 73.1 139.25 Q73.35 138.75 73.75 138.35 L76.6 135.65 78.6 133.75 79.35 133.15 M29.8 104.4 L29.8 107.95 29.8 111.9 29.6 112.7 29.2 112.8 29.2 112.7 29.15 112.8 27.05 113.45 Q27.6 111.9 27.75 109.7 L27.85 105.35 29.8 104.4" fill="#e7d1a1" fill-rule="evenodd" stroke="none"/>
      <path d="M98.5 32.25 L98.5 32.0 98.5 31.1 99.9 31.2 101.65 31.45 103.3 31.75 103.35 31.75 105.55 33.45 105.95 33.85 105.95 34.05 105.7 34.2 105.05 34.85 104.5 35.4 104.35 35.5 101.5 33.5 101.4 33.45 101.1 33.3 Q101.1 31.85 99.9 31.85 99.05 31.85 98.85 32.5 L98.6 32.25 98.5 32.25 M75.0 23.1 L74.9 21.55 74.75 21.1 74.9 20.85 76.5 21.25 78.85 21.8 Q79.1 22.4 80.15 22.85 L82.15 24.0 83.8 25.6 83.85 25.7 83.45 26.0 82.25 27.3 81.35 26.45 81.3 26.35 79.65 25.05 Q78.95 24.55 78.3 24.4 78.2 22.55 76.85 22.45 75.7 22.3 75.45 23.25 L75.0 23.1 M48.05 51.25 Q49.6 51.55 50.7 52.0 53.3 52.95 54.3 53.45 L56.15 54.75 60.85 57.95 57.25 57.5 55.5 57.25 53.45 55.3 50.7 53.45 48.05 51.25 M29.55 77.6 L29.55 77.35 29.7 76.0 29.7 75.85 29.6 74.15 Q29.2 73.5 28.3 73.5 L29.7 72.1 31.25 69.95 Q32.1 68.55 32.7 68.25 33.35 67.6 36.95 66.7 L37.3 66.6 39.0 66.35 Q38.85 66.7 38.85 67.6 L39.15 67.85 39.65 68.05 Q39.15 69.6 39.15 71.85 L39.25 77.7 38.75 83.5 38.35 89.35 38.0 98.25 36.4 98.65 36.35 97.4 36.75 93.3 37.05 88.3 Q37.05 86.65 37.4 83.6 L37.7 79.0 37.4 74.4 37.2 73.5 37.05 71.3 36.35 71.55 Q34.05 72.45 33.0 73.8 L31.0 76.25 29.55 77.7 29.55 77.6 M20.9 95.9 Q21.05 93.3 21.7 90.3 L24.05 81.35 Q24.85 78.1 27.05 75.1 L27.35 75.65 Q27.85 76.3 27.85 76.9 L27.35 80.2 27.05 82.3 26.95 82.6 27.05 82.55 27.05 82.85 27.05 84.55 27.05 84.75 27.05 88.55 27.05 92.25 25.55 107.6 25.55 113.85 25.5 113.85 25.35 114.1 24.85 114.1 24.85 113.85 Q24.7 113.25 24.7 112.2 L25.0 106.95 25.4 102.25 25.25 97.25 25.25 96.35 25.25 96.05 25.15 92.9 25.15 92.75 25.15 92.35 25.15 92.25 Q25.15 88.1 25.55 85.2 L24.6 87.25 Q23.05 90.7 22.5 92.75 L22.1 95.55 21.75 96.6 21.05 95.9 20.9 95.9 M66.0 68.55 L70.2 72.2 Q75.45 76.3 76.85 76.3 L77.55 76.25 77.65 76.25 78.15 77.2 77.65 77.05 74.0 76.0 73.75 75.75 71.6 74.6 68.0 71.8 64.45 68.4 63.35 67.4 66.0 68.55 M55.5 70.5 L55.0 70.1 Q53.0 68.4 50.3 68.4 45.4 68.4 44.55 71.2 L44.25 72.6 43.75 69.2 42.8 65.8 48.15 65.5 55.55 65.9 55.4 66.3 Q55.25 66.7 55.25 67.6 L55.25 68.3 55.25 68.4 55.4 70.15 55.5 70.5 M56.45 121.7 L58.55 119.1 60.2 115.6 60.9 116.5 Q62.2 117.9 63.9 119.1 68.65 122.35 72.4 122.35 L75.55 122.25 Q75.05 122.4 74.5 122.75 72.7 123.6 71.1 125.1 69.9 126.15 69.4 127.0 L67.4 127.2 67.7 127.6 68.9 129.45 69.95 131.0 Q71.6 131.0 72.45 130.15 L73.05 129.2 73.35 128.7 74.25 128.45 74.4 128.8 74.4 129.7 Q74.4 130.8 73.45 131.65 72.25 132.6 70.6 132.6 68.9 132.6 66.9 129.75 L66.8 129.45 65.75 128.0 64.4 126.15 Q62.55 124.35 61.45 123.8 59.7 122.65 56.6 121.9 L56.45 121.7 M80.15 125.65 Q79.65 124.6 78.95 123.85 L78.95 123.55 Q78.95 122.4 78.3 122.15 82.9 121.6 85.9 120.55 88.3 119.65 94.4 115.85 L94.55 116.1 Q94.3 116.85 94.2 117.7 93.9 117.65 93.35 117.95 L92.45 118.55 90.85 119.5 91.3 119.4 Q93.5 120.25 94.85 122.5 95.9 124.5 95.75 126.3 98.2 124.25 99.15 123.85 L103.2 123.3 Q108.2 123.3 110.55 124.2 L111.1 124.5 Q111.05 123.05 110.65 122.15 110.3 121.35 109.75 121.1 L109.65 121.05 109.75 120.95 110.0 120.8 110.25 120.65 111.85 118.3 111.85 121.85 111.1 124.6 110.8 125.65 110.65 126.6 110.55 126.75 110.5 126.75 110.05 126.55 109.6 126.3 Q106.75 125.1 101.4 125.1 99.05 125.1 97.05 128.4 L95.75 130.8 Q95.05 131.8 94.55 131.8 93.0 131.8 92.3 130.25 91.8 129.35 91.8 128.4 L91.8 127.4 92.85 127.6 93.8 127.85 94.95 127.5 Q94.3 122.95 92.3 121.5 L92.1 121.45 88.3 121.6 Q86.3 122.55 84.7 124.6 L84.2 125.25 Q84.35 123.85 84.7 122.95 L84.35 123.15 81.85 124.45 Q81.1 124.85 80.15 125.65 M56.4 134.85 L56.4 135.25 Q56.4 136.95 58.0 140.05 L60.65 144.15 63.25 148.55 63.9 149.5 62.95 149.35 Q61.25 149.0 59.7 147.4 58.7 146.35 57.5 143.85 L55.8 139.95 Q54.75 137.75 54.1 134.15 L56.4 134.85 M81.2 128.3 L81.35 128.3 81.2 128.4 81.2 128.3 M109.0 107.95 L109.1 108.0 Q108.8 108.5 108.6 110.3 L108.6 110.35 108.45 110.6 108.45 110.75 108.35 111.1 108.35 111.25 108.2 112.0 Q106.75 112.15 104.35 113.25 L101.1 114.25 100.45 114.55 100.45 112.2 104.5 110.3 109.0 107.95 M94.0 120.55 L93.8 120.4 94.05 120.25 94.0 120.55" fill="#666666" fill-rule="evenodd" stroke="none"/>
      <path d="M98.85 32.55 L98.7 32.5 98.5 32.5 98.5 32.4 98.6 32.25 98.85 32.5 98.85 32.55 M75.0 23.1 L75.45 23.25 75.45 23.7 75.0 23.55 75.0 23.2 75.0 23.1 M78.3 24.4 Q78.95 24.55 79.65 25.05 L81.3 26.35 81.35 26.45 Q80.25 25.65 78.3 24.8 L78.3 24.75 78.3 24.4 M40.15 56.45 L39.65 54.25 38.25 51.4 37.95 50.75 40.95 50.35 41.1 50.3 42.95 50.3 43.5 50.45 43.45 50.45 43.45 50.7 47.9 54.4 50.05 56.25 50.15 56.45 45.95 56.0 45.4 56.0 45.15 56.0 45.0 56.0 44.8 56.0 40.2 56.45 40.15 56.45 M36.4 98.65 L35.6 98.9 35.35 96.05 35.1 93.3 Q35.1 91.7 35.6 85.85 L36.1 79.7 36.1 77.45 36.0 77.45 32.3 81.35 Q29.6 83.85 29.05 83.85 L28.8 83.85 29.05 80.95 31.0 79.3 32.85 77.15 34.7 74.7 Q35.75 73.75 37.2 73.5 L37.4 74.4 37.7 79.0 37.4 83.6 Q37.05 86.65 37.05 88.3 L36.75 93.3 36.35 97.4 36.4 98.65 M24.7 114.1 L23.85 114.1 23.65 109.0 23.8 103.55 Q23.85 98.25 24.05 95.25 L24.05 95.1 24.1 94.75 25.0 92.55 25.15 92.75 25.15 92.9 25.25 96.05 25.25 96.35 25.25 97.25 25.4 102.25 25.0 106.95 24.7 112.2 Q24.7 113.25 24.85 113.85 L24.7 114.1 M77.55 76.25 L76.85 76.3 Q75.45 76.3 70.2 72.2 L66.0 68.55 66.15 68.55 Q68.85 69.85 72.25 72.25 L72.25 72.35 72.4 72.35 72.45 72.45 72.55 72.45 77.15 75.85 77.55 76.25 M44.35 73.35 L45.2 72.6 45.95 72.2 46.6 71.65 Q47.0 71.45 47.15 71.4 L47.95 71.0 48.15 70.9 48.7 70.75 48.85 70.75 48.95 70.75 Q52.2 70.75 54.05 71.85 L55.15 72.7 56.0 73.1 56.55 75.35 55.15 75.1 54.9 74.4 Q54.7 73.4 51.95 73.4 L49.0 73.8 Q48.6 74.05 46.2 75.65 L46.85 81.15 47.3 86.2 47.0 86.35 46.25 86.65 45.95 87.0 45.85 86.65 45.85 86.35 45.8 86.0 45.2 81.8 45.15 81.5 45.05 81.25 45.05 80.95 44.8 76.8 44.65 76.95 44.35 73.35 M66.4 149.9 L65.35 148.3 Q62.45 143.85 61.95 142.55 L58.4 135.65 Q61.05 136.8 63.4 138.5 L64.95 140.05 Q65.75 141.1 66.35 141.4 68.25 142.85 73.05 143.25 L74.0 142.45 74.1 142.4 74.4 142.4 Q75.0 142.4 77.15 139.8 L79.6 136.7 79.9 135.9 81.3 133.3 Q81.75 132.7 81.75 131.2 L81.75 130.8 82.0 130.35 82.9 129.7 83.7 130.15 85.15 135.2 85.55 136.15 Q85.9 137.2 86.6 138.2 L86.85 138.4 Q89.8 141.5 95.7 141.5 98.75 141.5 100.85 138.65 102.25 137.05 102.9 135.35 L104.15 136.25 105.05 137.35 Q105.7 138.2 106.6 138.4 105.85 140.5 105.45 142.2 L105.45 142.4 104.65 144.25 Q103.6 147.0 102.8 147.4 100.7 148.7 90.2 152.8 L79.0 151.7 68.5 150.15 66.4 149.9" fill="#cccccc" fill-rule="evenodd" stroke="none"/>
      <path d="M101.1 33.3 Q99.95 32.75 98.85 32.55 L98.85 32.5 Q99.05 31.85 99.9 31.85 101.1 31.85 101.1 33.3 M98.5 32.4 L98.5 32.25 98.6 32.25 98.5 32.4 M75.45 23.25 Q75.7 22.3 76.85 22.45 78.2 22.55 78.3 24.4 L78.3 24.75 78.3 24.8 77.9 24.6 75.45 23.7 75.45 23.25" fill="#ffffff" fill-rule="evenodd" stroke="none"/>
      <path d="M112.6 74.4 Q106.25 74.7 104.65 75.35 104.35 75.45 103.6 76.0 L103.35 75.65 106.25 71.65 107.15 70.35 108.6 70.9 Q110.95 71.65 111.6 72.5 L112.6 74.4 M87.65 66.3 L87.65 66.35 89.15 69.5 90.6 72.45 Q90.0 72.7 89.35 73.25 L88.95 73.65 88.95 72.75 Q87.2 69.05 85.1 66.95 L83.7 65.7 86.05 65.7 Q86.45 66.3 87.45 66.3 L87.65 66.3 M92.75 81.1 L88.95 80.3 88.95 75.85 Q90.4 75.85 91.3 74.4 92.45 78.2 92.75 81.1 M42.25 37.75 L46.25 38.05 46.45 38.05 47.0 38.15 47.3 38.15 48.85 38.45 48.95 38.45 53.0 44.4 53.05 44.45 53.25 44.55 53.4 44.85 53.45 44.95 55.0 47.2 55.0 47.35 55.0 47.45 54.5 47.05 53.0 46.25 52.9 46.15 52.65 46.15 52.4 46.05 49.85 44.6 46.45 43.1 44.8 42.45 Q36.95 40.4 30.5 41.45 26.85 42.05 19.6 44.45 19.65 43.35 20.15 42.25 L21.45 41.45 22.6 41.05 24.3 40.5 25.75 39.95 Q26.7 39.45 27.2 39.3 L31.3 39.2 Q38.0 39.1 42.8 40.25 L44.9 40.75 43.7 39.45 42.25 37.75 M44.65 47.45 L43.35 46.15 41.2 44.55 40.95 44.4 44.65 44.55 Q47.0 45.1 47.25 45.35 L49.75 46.9 52.25 48.2 Q54.05 49.0 54.7 49.55 L56.3 50.85 58.4 52.95 58.9 53.45 Q57.9 52.95 57.05 52.6 56.05 52.3 54.7 51.35 L52.2 49.8 Q50.05 48.9 47.0 48.8 46.7 47.45 44.65 47.45 M11.25 83.5 L11.25 83.45 11.35 83.35 13.1 73.9 14.5 76.05 Q14.15 77.55 14.1 78.65 13.75 81.1 13.75 87.9 L13.75 88.95 13.6 91.45 Q13.6 93.8 13.85 95.65 14.25 98.9 15.8 100.25 16.85 101.3 18.45 101.3 L19.75 101.05 19.65 102.45 19.65 109.4 19.2 122.8 19.25 125.3 Q19.45 126.85 20.05 127.85 L25.55 127.85 26.05 128.55 Q26.55 129.35 26.55 131.2 L26.45 132.75 26.55 134.3 Q26.6 135.2 27.2 137.35 L27.75 140.45 28.0 146.75 28.5 150.7 Q26.3 150.15 24.5 149.25 22.35 148.35 18.95 146.25 16.05 144.65 14.4 144.0 15.0 143.25 15.05 140.1 L14.9 134.05 14.9 124.1 Q14.9 119.6 15.3 114.15 L15.3 113.85 15.2 113.2 15.0 109.25 Q14.35 106.3 14.25 105.2 L14.1 103.0 13.85 102.45 13.5 100.9 13.1 99.3 12.7 95.95 12.3 92.75 12.05 91.3 12.05 91.1 12.15 90.55 12.0 89.0 11.2 85.05 11.25 84.15 11.25 83.5 M13.45 143.5 Q12.3 143.1 11.2 142.4 L11.25 142.15 Q12.05 142.0 12.9 143.05 L13.45 143.5 M62.85 91.7 L61.15 85.6 60.25 82.8 59.7 81.1 58.95 79.0 Q58.8 75.35 58.0 71.8 57.45 68.4 56.45 66.15 L59.85 66.55 59.85 66.6 59.85 66.8 59.85 67.2 63.15 70.5 66.95 73.8 70.95 76.8 71.25 77.05 71.65 77.3 71.8 77.7 Q70.75 78.2 69.9 79.0 69.95 79.8 70.2 79.9 L71.2 79.95 72.95 79.95 73.6 79.95 74.75 79.9 74.75 80.2 74.9 80.2 74.9 79.9 75.6 79.8 76.75 79.55 79.6 79.55 80.0 79.8 80.15 79.9 79.9 80.3 78.2 82.45 77.95 82.4 76.85 82.0 Q74.9 81.35 73.7 81.35 L71.75 81.65 71.65 81.65 71.4 81.75 71.25 81.75 68.6 81.15 66.9 81.4 65.5 82.3 Q64.2 82.95 62.2 83.25 L62.7 84.15 63.15 85.3 63.9 87.4 64.4 89.1 64.2 89.6 Q63.9 91.3 63.35 92.15 L62.85 91.7 M39.95 105.75 L40.2 94.05 40.6 82.3 41.1 74.4 41.0 70.15 40.6 67.25 40.6 66.8 40.55 66.15 41.65 65.9 41.6 66.7 Q41.6 70.1 42.25 75.35 L43.35 83.75 43.35 84.0 43.45 84.25 43.5 84.75 42.9 87.0 Q42.0 89.65 42.0 90.3 L41.5 93.3 41.0 96.45 40.55 99.45 Q40.2 101.3 40.2 102.6 L40.2 104.3 39.95 105.75 M60.4 71.15 L60.35 71.3 61.3 74.55 Q61.95 76.55 61.95 78.0 L61.8 79.25 61.4 80.45 62.1 80.35 Q65.6 80.2 66.9 79.3 67.3 78.65 67.85 78.4 L66.55 76.9 65.05 75.1 62.6 73.0 60.4 71.15 M33.65 124.6 L38.85 124.6 39.95 124.05 40.2 124.6 41.1 126.95 41.5 129.05 Q42.0 130.15 43.85 130.5 L44.65 130.1 Q46.5 129.75 50.7 126.7 50.7 127.9 52.1 133.8 53.7 140.45 54.85 142.55 L56.45 146.5 Q57.65 149.0 59.55 150.0 L59.45 150.15 58.95 151.3 Q56.95 152.75 47.0 152.8 L47.15 152.35 47.3 151.35 Q47.3 150.85 44.4 145.3 L40.2 137.7 Q37.6 133.15 35.35 131.15 34.0 129.95 33.1 129.75 32.05 129.6 31.0 130.9 L30.9 134.3 Q30.9 138.2 31.9 144.1 32.85 150.15 34.05 152.0 L30.6 151.3 30.25 145.6 Q29.95 142.0 29.2 139.0 L28.75 135.75 28.3 132.5 Q28.1 132.1 28.25 131.05 L28.5 129.2 Q28.5 128.3 28.15 127.85 L28.4 127.85 28.55 127.75 28.75 127.25 Q29.55 126.2 29.6 125.0 L29.7 121.7 30.0 118.35 30.1 115.8 30.1 114.95 32.05 114.5 33.0 114.25 32.95 117.25 32.35 120.8 31.95 123.45 32.05 125.25 32.35 125.3 32.95 125.5 33.5 124.5 33.65 124.6 M134.55 121.35 L134.35 122.25 Q134.25 123.8 134.65 126.7 L134.5 131.0 134.25 135.2 Q133.95 145.6 132.25 148.45 131.2 150.15 129.3 150.7 L124.2 151.35 Q115.65 151.35 110.55 149.9 L107.15 148.85 104.55 148.35 Q105.95 147.15 106.85 145.15 L108.2 140.75 108.15 140.75 108.95 138.75 Q111.55 138.65 112.35 136.15 112.8 134.8 112.8 131.3 112.8 129.6 112.25 128.45 L114.7 120.65 114.7 114.25 114.75 114.25 115.5 115.15 116.45 116.75 118.4 119.5 Q121.8 123.2 127.4 123.2 131.2 123.2 134.5 121.35 L134.55 121.35" fill="#3e0202" fill-rule="evenodd" stroke="none"/>
      <path d="M99.25 52.2 L98.6 53.9 97.55 56.45 97.3 56.0 95.85 53.9 Q94.55 52.8 92.7 51.8 L89.15 49.9 88.7 49.65 88.3 49.45 88.1 49.4 87.85 49.3 87.5 49.15 87.35 49.05 86.0 48.6 83.95 45.85 81.05 42.75 79.9 41.2 80.95 41.4 85.35 42.75 Q89.8 44.3 90.4 44.8 L93.5 47.05 96.5 49.05 Q98.2 50.45 99.05 52.05 L99.25 52.2 M75.45 95.0 L76.35 92.5 77.5 90.4 78.6 88.3 80.9 84.4 81.75 82.85 85.4 83.05 87.2 83.35 88.15 83.6 91.15 84.3 95.05 86.25 Q97.8 87.4 98.6 87.4 L98.65 87.4 100.45 88.7 Q103.6 90.95 104.9 93.8 107.55 98.9 107.55 101.8 L107.15 104.05 106.85 105.6 106.9 106.15 106.5 106.4 105.0 107.3 Q104.55 107.2 104.55 106.25 104.55 105.45 105.2 104.05 105.95 102.5 105.95 100.65 L105.85 97.9 103.6 94.35 Q99.8 88.7 91.95 88.7 L90.2 88.85 90.1 88.6 90.0 88.55 Q86.4 89.1 82.35 90.55 77.4 92.35 76.35 94.2 L75.45 95.0 M108.15 105.45 L108.2 105.25 108.3 105.25 108.8 105.2 108.15 105.45 M123.5 76.55 L125.1 76.9 125.25 77.15 Q125.6 77.7 125.6 78.65 125.6 79.7 124.95 80.2 L122.75 82.0 Q121.8 83.05 119.55 83.9 116.8 84.95 113.8 84.95 L107.9 84.4 101.6 83.9 102.9 84.95 102.9 85.05 Q106.45 88.2 110.5 93.3 111.75 95.1 113.0 98.15 L114.75 103.1 116.7 107.95 118.4 112.55 119.6 115.15 Q120.4 116.4 121.55 117.4 122.85 118.45 126.0 120.25 L127.55 121.2 127.4 121.2 Q119.95 121.2 116.55 112.85 L114.45 107.2 Q113.7 105.25 112.8 104.8 L110.55 98.4 Q108.8 93.8 106.2 90.7 L102.3 87.05 98.35 83.85 97.05 82.95 101.75 82.55 109.25 83.2 114.1 83.85 Q116.45 83.85 120.2 82.05 124.4 80.3 124.4 78.6 L124.05 77.35 123.5 76.55 M80.7 95.9 L79.65 96.3 79.9 96.05 80.95 95.3 80.7 95.9 M70.7 120.15 L70.7 120.05 70.95 120.0 71.4 120.05 71.9 120.05 71.8 120.25 71.2 120.25 70.7 120.15" fill="#604837" fill-rule="evenodd" stroke="none"/>
      <path d="M83.85 63.6 Q83.25 63.4 82.75 63.05 L79.9 62.1 81.3 59.35 Q81.7 58.2 81.75 56.75 L81.75 52.6 81.55 50.2 81.55 50.1 80.25 46.5 80.25 46.4 79.1 44.7 78.8 44.3 78.3 43.75 75.85 41.3 75.4 40.4 Q74.9 39.45 74.9 38.65 L75.55 36.05 Q77.9 36.95 87.2 38.8 90.35 39.55 91.05 39.95 L93.8 41.7 Q95.45 42.75 97.7 45.45 L100.6 49.05 100.45 49.4 99.3 52.05 99.05 52.05 Q98.2 50.45 96.5 49.05 L93.5 47.05 90.4 44.8 Q89.8 44.3 85.35 42.75 L80.95 41.4 79.9 41.2 81.05 42.75 83.95 45.85 86.0 48.6 85.9 48.5 86.2 49.05 Q86.8 49.8 86.8 51.15 L86.85 52.0 86.8 52.2 86.95 52.3 86.95 54.25 86.95 56.9 Q86.85 58.3 86.05 59.8 L85.35 61.35 84.7 62.75 83.85 63.6 M106.9 106.15 L106.85 105.6 107.15 104.05 107.55 101.8 Q107.55 98.9 104.9 93.8 103.6 90.95 100.45 88.7 L98.65 87.4 98.6 87.4 Q97.8 87.4 95.05 86.25 L91.15 84.3 88.15 83.6 87.2 83.35 85.4 83.05 81.75 82.85 80.9 84.4 78.6 88.3 77.5 90.4 76.35 92.5 75.45 95.0 75.3 95.4 74.9 96.7 74.9 96.8 Q74.0 98.7 73.45 100.35 L72.9 101.65 72.9 101.7 72.55 102.05 72.3 102.9 70.3 106.95 68.85 111.75 68.65 112.15 68.6 112.45 68.35 112.6 67.3 114.15 66.35 115.8 65.5 117.4 Q65.5 117.9 66.1 118.2 65.45 117.9 64.85 117.25 61.9 114.55 60.9 114.15 L61.8 112.3 64.85 105.6 68.5 98.8 72.15 92.25 74.5 89.65 74.55 89.65 74.9 89.35 77.65 86.35 Q81.35 82.4 82.35 80.5 L82.5 80.6 82.75 80.75 82.8 80.75 83.7 81.0 87.35 81.55 Q93.65 82.95 97.6 85.6 L97.85 85.8 101.25 88.35 Q103.6 90.4 104.55 91.7 106.5 94.35 107.95 97.6 109.25 100.35 110.55 104.15 109.6 104.7 108.8 105.2 L108.3 105.25 108.2 105.25 108.15 105.45 106.9 106.15 M97.05 82.95 L96.75 82.8 95.75 82.3 95.5 82.05 97.2 81.35 97.4 81.25 100.95 79.15 Q107.65 76.05 118.5 76.05 L121.55 76.25 121.65 76.25 123.1 76.5 123.5 76.55 124.05 77.35 124.4 78.6 Q124.4 80.3 120.2 82.05 116.45 83.85 114.1 83.85 L109.25 83.2 101.75 82.55 97.05 82.95 M70.85 109.0 L70.85 109.05 70.75 109.05 70.85 109.0 M70.7 120.05 L70.7 120.15 70.45 120.05 70.7 120.05" fill="#473629" fill-rule="evenodd" stroke="none"/>
      <path d="M97.55 56.45 L96.8 58.05 96.5 58.75 95.2 57.55 Q93.0 55.45 91.25 54.4 L87.6 52.45 86.95 52.3 86.8 52.2 86.85 52.0 86.8 51.15 Q86.8 49.8 86.2 49.05 L85.9 48.5 86.0 48.6 87.35 49.05 87.5 49.15 87.85 49.3 88.1 49.4 88.3 49.45 88.7 49.65 89.15 49.9 92.7 51.8 Q94.55 52.8 95.85 53.9 L97.3 56.0 97.55 56.45 M72.9 101.65 L73.45 100.35 Q74.0 98.7 74.9 96.8 L74.9 96.7 75.3 95.4 75.45 95.0 76.35 94.2 Q77.4 92.35 82.35 90.55 86.4 89.1 90.0 88.55 L90.1 88.6 90.2 88.85 91.95 88.7 Q99.8 88.7 103.6 94.35 L105.85 97.9 105.95 100.65 Q105.95 102.5 105.2 104.05 104.55 105.45 104.55 106.25 104.55 107.2 105.0 107.3 104.4 107.6 103.75 108.0 L103.75 107.95 103.7 107.75 103.7 106.7 103.45 105.75 103.2 104.7 103.2 103.55 103.3 102.6 Q103.45 101.3 103.2 100.6 102.05 97.35 98.65 95.3 95.05 93.2 90.6 93.2 L90.0 93.3 Q88.4 92.65 87.85 92.95 86.0 93.55 85.1 94.05 L82.4 95.0 80.7 95.9 80.95 95.3 79.9 96.05 79.65 96.3 79.6 96.3 78.2 97.0 Q76.1 98.05 75.0 99.3 L72.9 101.65 M86.45 95.15 L86.15 95.5 86.05 95.3 86.45 95.15 M125.25 77.15 Q126.35 77.2 126.65 77.85 L126.75 79.15 Q126.75 80.3 126.15 81.15 L124.55 83.25 Q123.1 85.2 119.7 85.7 L112.8 86.1 108.15 85.95 105.4 85.8 105.05 85.45 104.5 85.3 103.1 85.2 102.9 85.05 102.9 84.95 101.6 83.9 107.9 84.4 113.8 84.95 Q116.8 84.95 119.55 83.9 121.8 83.05 122.75 82.0 L124.95 80.2 Q125.6 79.7 125.6 78.65 125.6 77.7 125.25 77.15" fill="#795b46" fill-rule="evenodd" stroke="none"/>
      <path d="M96.5 58.75 L95.9 60.15 Q95.45 61.2 94.7 61.85 92.95 63.3 87.2 64.35 L87.1 64.35 83.85 63.6 84.7 62.75 85.35 61.35 86.05 59.8 Q86.85 58.3 86.95 56.9 L86.95 54.25 86.95 52.3 87.6 52.45 91.25 54.4 Q93.0 55.45 95.2 57.55 L96.5 58.75 M68.65 112.15 L68.85 111.75 70.3 106.95 72.3 102.9 72.55 102.05 72.9 101.7 72.9 101.65 75.0 99.3 Q76.1 98.05 78.2 97.0 L79.6 96.3 79.65 96.3 80.7 95.9 82.4 95.0 85.1 94.05 Q86.0 93.55 87.85 92.95 88.4 92.65 90.0 93.3 L90.6 93.2 Q95.05 93.2 98.65 95.3 102.05 97.35 103.2 100.6 103.45 101.3 103.3 102.6 L103.2 103.55 103.2 104.7 103.45 105.75 103.7 106.7 103.7 107.75 103.75 107.95 103.75 108.0 103.3 108.25 102.25 108.9 Q101.8 108.75 101.75 108.4 101.6 108.25 101.6 107.35 101.4 105.9 99.4 105.9 98.6 105.9 96.15 106.65 L91.45 108.2 85.25 109.45 Q80.4 110.45 77.3 110.5 L76.9 110.5 76.35 110.5 76.35 110.6 75.6 110.3 74.55 110.3 70.55 110.95 69.8 111.1 68.65 112.15 M128.6 121.2 L127.7 121.2 127.55 121.2 126.0 120.25 Q122.85 118.45 121.55 117.4 120.4 116.4 119.6 115.15 L118.4 112.55 116.7 107.95 114.75 103.1 113.0 98.15 Q111.75 95.1 110.5 93.3 106.45 88.2 102.9 85.05 L103.1 85.2 104.5 85.3 105.05 85.45 105.4 85.8 108.15 85.95 110.95 88.3 Q112.6 89.8 113.15 90.85 L115.65 96.15 117.5 101.2 Q118.5 105.0 121.05 111.4 121.95 113.6 125.6 117.4 127.95 120.0 128.6 121.2 M86.45 95.15 L86.05 95.3 86.15 95.5 86.45 95.15 M70.85 109.0 L70.75 109.05 70.85 109.05 70.85 109.0" fill="#946f56" fill-rule="evenodd" stroke="none"/>
      <path d="M99.3 52.05 L99.25 52.2 99.05 52.05 99.3 52.05" fill="#735844" fill-rule="evenodd" stroke="none"/>
      <path d="M107.3 70.1 L107.75 69.45 108.2 69.45 110.8 68.9 113.25 68.3 Q114.9 68.3 116.45 71.0 117.65 73.0 117.75 74.15 L116.55 74.2 116.3 74.2 115.25 72.45 Q113.25 69.2 112.0 69.2 L110.0 69.6 107.3 70.1 M55.0 47.2 L55.35 47.6 55.0 47.35 55.0 47.2 M20.15 42.25 L21.1 41.0 Q23.55 38.45 29.2 37.6 L30.35 38.45 31.3 39.2 27.2 39.3 Q26.7 39.45 25.75 39.95 L24.3 40.5 22.6 41.05 21.45 41.45 20.15 42.25 M30.1 44.15 L30.4 44.4 32.7 46.9 32.75 47.15 32.35 47.35 29.45 49.25 Q27.5 50.35 26.3 50.6 L21.85 53.9 Q20.05 55.35 19.1 57.25 18.15 58.75 17.25 60.8 L15.85 64.1 Q15.15 65.55 15.0 67.4 L14.9 70.75 14.9 73.25 14.1 71.3 Q12.8 67.4 12.8 64.25 L12.9 58.75 Q13.1 55.45 14.55 53.2 L16.2 50.45 Q17.25 48.4 18.05 47.6 19.6 46.05 23.0 44.85 L26.2 43.95 30.1 44.15 M7.05 139.65 L3.9 137.6 Q1.05 136.15 0.4 134.8 0.1 134.15 0.1 131.8 0.1 129.3 0.5 127.9 L1.65 125.55 Q3.15 122.8 3.15 116.75 3.15 113.9 4.15 109.3 L6.0 101.7 Q6.4 99.35 7.8 95.25 L10.15 87.5 11.25 83.5 11.25 84.15 11.2 85.05 12.0 89.0 12.15 90.55 12.05 91.1 12.05 91.3 11.85 93.2 11.25 95.3 10.55 99.45 Q9.95 102.2 9.9 103.65 L7.8 119.5 Q5.75 134.4 5.75 137.15 L5.75 138.0 Q6.0 138.6 6.9 138.75 L7.05 139.65 M63.35 92.15 Q63.9 91.3 64.2 89.6 L64.4 89.1 65.2 86.65 66.35 85.3 67.7 83.85 68.35 83.25 71.0 83.05 Q74.1 83.05 75.85 84.25 L76.35 84.5 74.1 86.5 Q72.15 88.35 71.35 89.65 L67.3 96.3 Q64.95 100.35 63.5 103.55 L60.4 110.5 57.05 117.65 Q55.5 120.8 50.95 123.95 L47.1 126.45 44.25 128.4 Q42.7 123.95 41.1 121.1 L38.9 116.5 38.65 116.0 Q38.75 115.85 38.85 115.85 39.4 115.35 40.2 115.3 L41.35 114.9 41.9 114.3 Q41.4 113.25 41.4 112.4 41.4 106.9 42.9 98.7 43.45 94.25 43.45 91.85 43.35 90.55 43.95 88.45 L43.95 87.8 45.15 100.4 45.65 100.6 46.1 100.9 46.25 100.9 Q46.5 101.3 47.25 101.3 48.45 101.3 52.6 100.0 56.7 98.55 58.4 97.65 61.25 96.3 62.1 95.4 62.95 94.6 62.95 93.3 L62.95 92.5 63.35 92.15 M42.4 152.8 L35.45 152.15 35.45 152.1 34.85 148.1 34.2 143.1 33.4 138.2 32.85 134.2 33.0 133.25 33.15 132.35 36.55 137.85 Q39.0 141.65 39.8 143.7 L41.4 150.0 42.4 152.8" fill="#840808" fill-rule="evenodd" stroke="none"/>
      <path d="M107.3 70.1 L110.0 69.6 112.0 69.2 Q113.25 69.2 115.25 72.45 L116.3 74.2 112.6 74.4 111.6 72.5 Q110.95 71.65 108.6 70.9 L107.15 70.35 107.3 70.1 M29.2 37.6 L35.45 37.25 41.6 37.6 42.25 37.75 43.7 39.45 44.9 40.75 42.8 40.25 Q38.0 39.1 31.3 39.2 L30.35 38.45 29.2 37.6 M44.65 47.45 L43.35 47.45 Q40.3 47.7 34.0 50.05 L33.65 50.05 Q31.45 50.45 29.45 52.05 L25.55 54.8 Q22.5 56.35 20.05 60.0 18.55 62.5 17.5 65.9 15.95 70.35 15.05 73.8 L14.9 73.25 14.9 70.75 15.0 67.4 Q15.15 65.55 15.85 64.1 L17.25 60.8 Q18.15 58.75 19.1 57.25 20.05 55.35 21.85 53.9 L26.3 50.6 Q27.5 50.35 29.45 49.25 L32.35 47.35 32.75 47.15 32.7 46.9 30.4 44.4 30.1 44.15 40.95 44.4 41.2 44.55 43.35 46.15 44.65 47.45 M14.4 144.0 L14.1 143.85 13.45 143.5 12.9 143.05 Q12.05 142.0 11.25 142.15 L11.2 142.4 9.1 141.0 8.75 140.75 7.7 140.05 7.55 139.95 7.05 139.65 6.9 138.75 Q6.0 138.6 5.75 138.0 L5.75 137.15 Q5.75 134.4 7.8 119.5 L9.9 103.65 Q9.95 102.2 10.55 99.45 L11.25 95.3 11.85 93.2 12.05 91.3 12.3 92.75 12.7 95.95 13.1 99.3 13.5 100.9 13.85 102.45 14.1 103.0 14.25 105.2 Q14.35 106.3 15.0 109.25 L15.2 113.2 15.3 113.85 15.3 114.15 Q14.9 119.6 14.9 124.1 L14.9 134.05 15.05 140.1 Q15.0 143.25 14.4 144.0 M62.85 91.7 L63.35 92.15 62.95 92.5 62.95 92.35 62.85 91.7 M64.4 89.1 L63.9 87.4 63.15 85.3 62.7 84.15 62.2 83.25 Q64.2 82.95 65.5 82.3 L66.9 81.4 68.6 81.15 71.25 81.75 71.4 81.75 71.65 81.65 71.75 81.65 73.7 81.35 Q74.9 81.35 76.85 82.0 L77.95 82.4 78.2 82.45 78.15 82.45 77.4 83.45 76.35 84.5 75.85 84.25 Q74.1 83.05 71.0 83.05 L68.35 83.25 67.7 83.85 66.35 85.3 65.2 86.65 64.4 89.1 M80.15 79.9 L80.0 79.8 79.6 79.55 80.5 79.45 80.15 79.9 M71.8 77.7 L71.65 77.3 71.75 77.35 72.15 77.6 71.8 77.7 M39.95 105.75 L40.2 104.3 40.2 102.6 Q40.2 101.3 40.55 99.45 L41.0 96.45 41.5 93.3 42.0 90.3 Q42.0 89.65 42.9 87.0 L43.5 84.75 43.7 85.95 43.95 87.8 43.95 88.45 Q43.35 90.55 43.45 91.85 43.45 94.25 42.9 98.7 41.4 106.9 41.4 112.4 41.4 113.25 41.9 114.3 L41.35 114.9 40.2 115.3 Q39.4 115.35 38.85 115.85 38.75 115.85 38.65 116.0 L37.2 113.45 37.6 113.45 37.6 113.5 Q37.6 113.7 38.35 113.7 L38.9 113.25 39.3 113.25 39.65 113.1 39.8 112.2 Q39.8 111.9 39.4 111.75 39.9 109.7 39.95 106.0 L39.95 105.75 M60.4 71.15 L62.6 73.0 65.05 75.1 66.55 76.9 67.85 78.4 Q67.3 78.65 66.9 79.3 65.6 80.2 62.1 80.35 L61.4 80.45 61.8 79.25 61.95 78.0 Q61.95 76.55 61.3 74.55 L60.35 71.3 60.4 71.15 M47.0 152.8 L46.35 153.4 46.05 152.8 45.8 152.8 42.4 152.8 41.4 150.0 39.8 143.7 Q39.0 141.65 36.55 137.85 L33.15 132.35 33.0 133.25 32.85 134.2 33.4 138.2 34.2 143.1 34.85 148.1 35.45 152.1 35.45 152.15 34.8 152.1 34.3 152.25 34.05 152.0 Q32.85 150.15 31.9 144.1 30.9 138.2 30.9 134.3 L31.0 130.9 Q32.05 129.6 33.1 129.75 34.0 129.95 35.35 131.15 37.6 133.15 40.2 137.7 L44.4 145.3 Q47.3 150.85 47.3 151.35 L47.15 152.35 47.0 152.8" fill="#5c0404" fill-rule="evenodd" stroke="none"/>
      <path d="M66.1 118.2 Q65.5 117.9 65.5 117.4 L66.35 115.8 67.3 114.15 68.35 112.6 68.6 112.45 68.65 112.15 69.8 111.1 70.55 110.95 74.55 110.3 75.6 110.3 76.35 110.6 76.35 110.5 76.9 110.5 77.3 110.5 Q80.4 110.45 85.25 109.45 L91.45 108.2 96.15 106.65 Q98.6 105.9 99.4 105.9 101.4 105.9 101.6 107.35 101.6 108.25 101.75 108.4 101.8 108.75 102.25 108.9 L96.35 112.2 Q90.65 115.8 88.9 116.6 87.35 117.7 84.85 118.55 79.9 120.25 72.4 120.25 L72.15 120.25 71.8 120.25 71.9 120.05 71.4 120.05 70.95 120.0 70.7 120.05 70.45 120.05 70.05 120.05 67.8 119.25 Q66.65 118.7 66.1 118.2 M125.1 76.9 Q128.85 77.85 132.65 79.8 139.1 83.35 141.1 87.25 142.6 90.3 142.8 94.35 L142.9 101.4 142.8 106.95 Q142.6 110.3 140.9 112.2 139.2 114.95 137.0 117.05 133.2 120.8 128.6 121.2 127.95 120.0 125.6 117.4 121.95 113.6 121.05 111.4 118.5 105.0 117.5 101.2 L115.65 96.15 113.15 90.85 Q112.6 89.8 110.95 88.3 L108.15 85.95 112.8 86.1 119.7 85.7 Q123.1 85.2 124.55 83.25 L126.15 81.15 Q126.75 80.3 126.75 79.15 L126.65 77.85 Q126.35 77.2 125.25 77.15 L125.1 76.9" fill="#bba18d" fill-rule="evenodd" stroke="none"/>
      <path d="M40.15 56.45 L40.05 56.45 Q37.2 57.7 31.7 60.4 27.1 62.75 24.7 66.35 L22.4 69.35 20.25 72.5 19.1 75.35 17.9 78.65 15.85 82.95 16.45 78.35 Q17.4 70.75 18.7 68.05 L20.7 62.65 Q22.1 59.35 25.0 57.7 28.8 54.9 31.4 53.45 34.65 51.55 37.95 50.75 L38.25 51.4 39.65 54.25 40.15 56.45 M50.25 56.45 L50.15 56.45 50.05 56.25 50.25 56.45 M35.6 98.9 Q34.0 99.3 32.55 100.1 29.85 101.3 28.0 102.9 L28.3 100.0 28.8 95.25 28.9 90.4 28.8 85.3 28.8 83.85 29.05 83.85 Q29.6 83.85 32.3 81.35 L36.0 77.45 36.1 77.45 36.1 79.7 35.6 85.85 Q35.1 91.7 35.1 93.3 L35.35 96.05 35.6 98.9 M27.05 82.3 L27.05 82.55 26.95 82.6 27.05 82.3 M24.85 114.1 L24.7 114.1 24.85 113.85 24.85 114.1 M23.85 114.1 L21.35 114.1 21.45 112.3 21.95 102.1 22.1 100.9 22.5 100.25 23.05 98.3 24.05 95.25 Q23.85 98.25 23.8 103.55 L23.65 109.0 23.85 114.1 M25.15 92.75 L25.0 92.55 25.15 92.35 25.15 92.75 M47.3 86.2 L46.85 81.15 46.2 75.65 Q48.6 74.05 49.0 73.8 L51.95 73.4 Q54.7 73.4 54.9 74.4 L55.15 75.1 56.55 75.35 Q57.1 78.2 58.25 81.55 L58.9 83.6 58.1 83.6 50.7 84.95 Q48.3 85.7 47.3 86.2 M44.65 76.95 L44.8 76.8 45.05 80.95 45.05 81.25 44.65 76.95 M109.0 107.95 L109.2 107.85 109.1 108.0 109.0 107.95" fill="#e2e2e2" fill-rule="evenodd" stroke="none"/>
      <path d="M43.5 50.45 L43.75 50.45 45.05 50.7 45.4 50.75 48.05 51.25 50.7 53.45 53.45 55.3 55.5 57.25 51.6 56.6 50.25 56.45 50.05 56.25 47.9 54.4 43.45 50.7 43.45 50.45 43.5 50.45 M29.05 80.95 L29.2 79.9 29.55 77.6 29.55 77.7 31.0 76.25 33.0 73.8 Q34.05 72.45 36.35 71.55 L37.05 71.3 37.2 73.5 Q35.75 73.75 34.7 74.7 L32.85 77.15 31.0 79.3 29.05 80.95 M22.1 100.9 L22.25 99.3 Q22.35 97.6 21.75 96.6 L22.1 95.55 22.5 92.75 Q23.05 90.7 24.6 87.25 L25.55 85.2 Q25.15 88.1 25.15 92.25 L25.15 92.35 25.0 92.55 24.1 94.75 24.05 95.1 24.05 95.25 23.05 98.3 22.5 100.25 22.1 100.9 M44.25 72.6 L44.55 71.2 Q45.4 68.4 50.3 68.4 53.0 68.4 55.0 70.1 L55.5 70.5 56.0 73.1 55.15 72.7 54.05 71.85 Q52.2 70.75 48.95 70.75 L48.85 70.75 48.7 70.75 48.15 70.9 47.95 71.0 47.15 71.4 Q47.0 71.45 46.6 71.65 L45.95 72.2 45.2 72.6 44.35 73.35 44.35 73.1 44.35 73.0 44.25 72.6 M69.4 127.0 L68.9 127.85 70.85 128.55 72.0 128.7 73.35 128.7 73.05 129.2 72.45 130.15 Q71.6 131.0 69.95 131.0 L68.9 129.45 67.7 127.6 67.4 127.2 69.4 127.0 M80.15 125.65 Q81.1 124.85 81.85 124.45 L84.35 123.15 84.7 122.95 Q84.35 123.85 84.2 125.25 83.05 126.7 83.05 127.5 L83.05 127.85 83.7 130.15 82.9 129.7 82.0 130.35 81.75 130.8 81.2 128.4 81.35 128.3 81.2 128.3 80.8 126.95 80.15 125.65 M109.65 121.05 L109.75 121.1 Q110.3 121.35 110.65 122.15 111.05 123.05 111.1 124.5 L110.55 124.2 Q108.2 123.3 103.2 123.3 L99.15 123.85 Q98.2 124.25 95.75 126.3 95.9 124.5 94.85 122.5 93.5 120.25 91.3 119.4 L90.85 119.5 92.45 118.55 93.35 117.95 Q93.9 117.65 94.2 117.7 94.05 118.7 94.05 119.8 L94.05 120.25 93.8 120.4 94.0 120.55 Q94.0 120.95 94.45 121.2 95.7 121.9 101.1 121.9 L103.5 121.85 103.45 121.6 106.85 122.0 107.65 121.9 108.15 121.85 Q108.85 121.5 109.5 121.1 L109.65 121.1 109.65 121.05 M63.9 149.5 L63.25 148.55 60.65 144.15 58.0 140.05 Q56.4 136.95 56.4 135.25 L56.4 134.85 56.45 134.85 58.4 135.65 61.95 142.55 Q62.45 143.85 65.35 148.3 L66.4 149.9 66.25 149.9 66.1 149.9 63.9 149.5 M108.2 112.0 L107.9 112.7 107.95 113.1 107.75 114.25 Q107.1 115.3 105.8 115.3 L105.05 115.2 104.9 115.3 100.45 115.3 100.45 114.55 101.1 114.25 104.35 113.25 Q106.75 112.15 108.2 112.0" fill="#999999" fill-rule="evenodd" stroke="none"/>
    </g>
    <g id="shape1" transform="matrix(1.0, 0.0, 0.0, 1.0, -22.45, 11.4)">
      <path d="M149.0 -11.4 L149.0 5.8 22.45 5.8 22.45 -11.4 149.0 -11.4 M154.85 70.05 L28.3 70.05 28.3 52.85 154.85 52.85 154.85 70.05" fill="#000000" fill-rule="evenodd" stroke="none"/>
    </g>
  </defs>
</svg>
