<?xml version="1.0" encoding="UTF-8" standalone="no"?>
<svg xmlns:ffdec="https://www.free-decompiler.com/flash" xmlns:xlink="http://www.w3.org/1999/xlink" ffdec:objectType="frame" height="243.6px" width="194.4px" xmlns="http://www.w3.org/2000/svg">
  <g transform="matrix(1.0, 0.0, 0.0, 1.0, 4.4, 72.6)">
    <use ffdec:characterId="557" height="117.3" transform="matrix(-0.677, -0.1135, -0.1135, 0.677, 132.4298, -2.719)" width="133.6" xlink:href="#shape0"/>
  </g>
  <defs>
    <g id="shape0" transform="matrix(1.0, 0.0, 0.0, 1.0, 66.8, 58.65)">
      <path d="M48.55 -53.85 L51.3 -56.85 51.1 -57.7 50.85 -57.85 48.3 -57.85 Q41.25 -54.85 33.95 -50.35 25.1 -44.95 23.3 -41.55 L23.3 -41.8 25.45 -50.5 26.8 -57.0 26.7 -58.15 26.6 -58.6 Q24.35 -59.15 20.95 -55.45 17.4 -51.15 16.1 -50.1 13.75 -48.2 11.75 -44.75 L9.3 -39.85 9.3 -50.3 Q9.85 -51.8 9.85 -53.1 9.85 -54.85 8.8 -55.35 1.3 -44.55 1.3 -29.35 L1.35 -26.2 Q1.5 -24.6 2.05 -23.4 L-1.65 -20.05 -6.75 -14.95 Q-9.9 -11.6 -11.2 -9.6 -14.85 -4.15 -21.7 0.3 -31.45 6.65 -43.3 6.95 L-43.4 6.7 -50.7 6.35 Q-51.1 6.5 -51.15 7.1 L-51.55 6.85 Q-52.35 8.4 -52.75 10.8 -53.2 13.3 -53.2 18.9 L-53.6 22.4 Q-57.4 22.1 -57.7 15.85 -57.35 8.0 -57.9 5.4 -60.2 4.8 -62.8 8.4 -65.25 11.8 -65.7 15.45 L-66.4 22.75 -66.7 27.9 -66.8 31.75 Q-66.8 34.95 -66.2 36.45 L-64.65 38.6 -62.7 40.7 -61.4 42.9 Q-59.75 44.65 -56.45 44.65 -54.85 44.65 -51.45 42.7 -48.2 40.8 -48.2 40.15 L-48.2 40.1 -46.2 40.15 -45.65 40.15 -45.55 40.5 -45.4 40.65 Q-40.0 39.85 -37.0 41.6 L-36.2 42.15 Q-36.2 43.3 -35.9 42.9 L-35.05 43.05 -33.7 44.45 -25.9 49.4 -16.9 54.85 Q-11.7 58.15 -10.95 58.15 -10.15 58.15 -9.95 57.75 L-9.7 57.15 Q-10.05 55.65 -10.95 53.65 L-12.2 50.7 Q-10.0 51.8 -4.4 53.9 L-0.2 55.85 Q2.65 57.15 3.8 57.15 4.55 57.15 4.7 56.85 L4.8 56.2 Q3.95 54.3 0.5 50.15 L-2.4 46.75 3.1 47.4 11.1 48.9 24.8 51.65 35.45 54.95 Q41.85 57.15 42.8 57.15 L43.35 57.1 43.8 58.4 45.05 58.65 46.05 58.45 46.3 57.25 Q46.3 56.1 43.05 51.5 39.8 46.95 39.8 44.4 L39.85 43.65 47.0 49.35 Q54.4 54.65 58.05 54.65 L59.6 54.4 59.8 53.4 54.55 45.55 Q49.3 37.3 49.3 35.0 L49.35 34.35 49.35 34.65 55.7 38.6 60.3 41.15 61.45 40.85 61.8 40.2 Q56.65 34.55 55.0 26.65 L53.3 13.65 Q52.0 4.65 48.6 -2.4 L47.9 -3.8 47.3 -4.85 47.8 -4.85 Q52.6 -4.85 56.45 -8.8 58.65 -11.05 59.8 -13.55 63.8 -22.7 63.8 -24.25 63.8 -24.65 63.15 -24.85 L58.3 -25.8 Q57.75 -25.9 57.75 -26.5 L57.8 -28.05 57.8 -29.55 Q58.75 -30.8 63.55 -30.8 64.25 -30.8 64.4 -30.4 64.55 -29.95 64.8 -29.85 66.3 -30.95 66.7 -33.45 L66.8 -37.05 Q66.8 -39.75 65.3 -43.5 63.8 -47.25 63.8 -48.5 L64.05 -50.7 64.1 -53.1 Q62.2 -53.1 55.6 -48.7 49.45 -44.65 44.95 -43.25 L45.15 -44.6 Q45.0 -47.25 45.3 -48.6 45.7 -50.65 48.55 -53.85 M54.0 -44.55 L53.3 -43.85 51.6 -42.1 51.5 -42.05 51.45 -42.0 51.25 -41.9 49.2 -40.6 Q47.8 -39.75 47.8 -39.1 L47.8 -39.0 Q46.1 -37.75 44.75 -35.25 43.4 -32.85 41.3 -28.05 40.6 -26.85 39.25 -21.95 L37.95 -16.15 35.35 -19.6 30.8 -24.85 29.85 -26.1 27.6 -29.15 27.4 -29.35 27.9 -29.8 28.0 -29.9 28.4 -30.35 28.5 -30.45 29.55 -31.85 29.7 -32.05 31.35 -34.85 32.25 -35.8 33.3 -36.7 37.25 -38.85 37.45 -38.9 37.65 -39.0 39.05 -39.45 39.2 -39.5 39.55 -39.6 39.7 -39.65 39.9 -39.7 40.05 -39.75 40.25 -39.8 42.55 -40.3 Q47.7 -41.2 53.8 -44.8 L55.2 -45.65 55.85 -46.0 55.3 -45.55 54.0 -44.55 M55.85 -43.45 L61.85 -48.45 Q62.0 -45.85 62.8 -43.55 63.45 -41.4 64.35 -39.55 64.8 -38.65 64.8 -37.1 L64.55 -34.95 64.3 -32.85 Q58.25 -33.3 56.5 -31.3 55.8 -30.5 55.8 -28.2 55.8 -25.85 56.15 -25.25 57.1 -23.5 61.1 -23.1 60.35 -22.05 59.35 -18.9 L57.4 -13.6 Q54.3 -7.1 47.7 -7.1 47.1 -7.1 45.55 -7.7 L44.65 -8.85 Q46.0 -9.8 46.6 -10.8 47.3 -11.95 47.3 -14.05 47.3 -18.2 43.55 -16.3 40.8 -14.9 40.05 -13.75 39.8 -14.15 39.8 -14.85 39.8 -21.15 45.3 -30.6 L50.8 -39.35 50.8 -39.4 55.85 -43.45 M24.05 -55.05 L23.5 -52.6 23.3 -51.6 23.3 -51.55 22.0 -49.65 18.1 -43.35 15.6 -37.4 Q13.25 -32.35 11.3 -32.35 L10.1 -32.6 9.85 -33.15 9.8 -33.85 10.45 -34.3 10.8 -34.55 Q10.0 -39.05 14.6 -45.25 17.25 -48.8 23.8 -55.25 L23.95 -55.4 24.1 -55.55 24.1 -55.3 24.05 -55.05 M30.8 -46.05 Q45.05 -53.55 46.6 -54.6 45.55 -53.75 44.7 -52.2 L36.85 -46.6 30.85 -41.15 Q25.45 -36.35 24.55 -36.35 23.5 -36.35 23.05 -37.45 L22.95 -37.7 26.7 -41.7 30.8 -46.05 M7.3 -47.3 Q7.65 -45.05 7.15 -40.55 L7.15 -40.3 7.35 -38.25 7.55 -37.6 7.3 -34.55 7.2 -27.55 6.8 -26.95 6.8 -26.65 Q5.25 -26.05 3.3 -24.5 3.15 -31.7 3.6 -35.75 4.4 -41.85 7.0 -47.4 L7.1 -47.55 7.3 -47.3 M19.1 -26.4 L16.8 -28.35 20.1 -28.85 24.9 -29.35 26.1 -27.7 35.0 -15.45 38.05 -11.45 38.1 -11.1 38.35 -11.05 41.15 -7.65 Q38.35 -7.95 36.55 -6.4 L35.75 -5.5 33.2 -10.0 Q30.5 -14.15 27.05 -17.55 L20.9 -24.55 19.1 -26.4 M-12.15 4.45 L-12.85 3.05 Q-14.3 0.3 -16.3 -0.7 -12.0 -3.75 -10.2 -7.05 -6.3 -14.2 1.65 -20.9 L2.5 -21.55 8.15 -25.85 8.3 -25.85 10.45 -26.65 12.85 -27.6 14.6 -28.0 Q15.15 -27.1 16.9 -25.55 L17.65 -24.9 21.1 -22.05 22.05 -20.4 23.1 -18.6 24.75 -17.0 26.8 -14.85 31.2 -9.55 Q33.35 -6.7 34.15 -4.35 30.85 -2.3 26.2 1.3 18.6 7.2 15.35 9.15 8.7 13.1 2.35 17.4 -1.9 20.3 -4.05 22.1 -5.8 19.2 -6.2 17.9 -6.65 16.25 -7.4 14.3 -8.35 11.85 -9.2 10.7 L-12.15 4.45 M-6.2 -7.85 Q-6.95 -7.45 -7.15 -6.05 L-7.2 -4.0 -7.2 -1.65 -7.2 -1.2 -7.15 -0.35 -6.45 0.25 -6.2 1.05 -6.2 1.4 -5.9 1.75 -5.35 2.45 -3.2 5.2 Q0.2 8.15 6.8 8.15 13.05 8.15 17.35 2.9 20.8 -1.25 20.8 -4.6 L20.8 -5.1 20.95 -5.25 21.3 -5.85 Q18.1 -9.05 16.2 -10.05 11.9 -12.3 8.05 -9.55 L2.7 -5.35 -1.9 -1.6 -5.2 -1.6 -5.15 -5.05 Q-5.15 -6.5 -5.65 -7.3 L-5.75 -7.45 -6.15 -7.8 -6.2 -7.85 M45.15 -14.55 L45.2 -14.55 45.3 -14.6 45.3 -14.3 Q45.3 -12.75 43.55 -11.0 L42.8 -10.25 42.05 -10.2 41.1 -11.55 41.3 -11.85 41.25 -12.05 42.9 -13.15 Q44.35 -14.25 45.15 -14.55 M46.3 2.1 L45.85 2.65 Q44.95 3.4 42.15 3.4 L41.6 3.4 41.5 3.35 40.8 3.15 40.55 3.35 Q37.65 3.15 36.8 2.15 36.3 1.6 36.3 -0.25 L36.3 -1.45 36.55 -1.65 36.8 -2.55 36.6 -3.2 Q37.8 -4.35 37.8 -4.85 L37.8 -5.25 Q38.5 -5.7 39.55 -5.8 41.2 -6.0 43.25 -5.2 L43.8 -4.95 45.6 -4.0 46.8 -1.5 46.8 -0.75 46.7 0.75 46.3 2.1 M34.3 -0.2 L34.2 0.9 Q34.15 2.0 34.6 2.9 35.5 4.6 38.1 5.25 26.85 13.75 20.85 17.65 15.25 21.25 9.3 24.65 2.4 28.3 0.25 30.4 0.1 28.55 -0.9 26.7 -1.15 26.3 -1.95 25.65 L-2.3 25.4 -2.2 24.95 -2.75 24.1 6.0 18.2 15.6 11.65 29.8 2.05 34.35 -1.3 34.3 -0.2 M-31.1 43.65 L-23.15 43.65 -22.85 43.35 -22.7 43.15 -20.2 42.85 -19.7 42.75 -18.6 42.35 -17.8 41.95 Q-16.45 41.2 -15.3 40.05 L-14.7 40.15 Q-10.35 39.05 -8.85 37.85 L-5.95 38.15 Q-2.2 38.15 -0.65 35.4 -0.1 34.4 0.15 33.15 L0.3 33.15 Q4.1 30.4 11.65 25.65 19.6 20.75 22.05 19.2 29.2 14.9 33.6 11.9 39.6 7.85 41.2 5.65 L42.05 5.65 Q44.7 5.65 46.3 4.8 47.5 4.1 48.1 2.95 L48.35 2.4 48.5 2.85 Q50.2 7.85 51.2 14.15 L52.95 25.05 Q54.15 31.15 56.3 35.7 54.95 35.6 52.05 33.35 49.2 31.15 48.3 31.15 L47.45 31.3 47.3 31.45 47.3 35.95 Q48.25 39.1 51.0 43.85 L55.55 51.3 55.6 51.4 55.35 51.4 Q53.65 50.8 46.1 45.4 L38.8 40.15 Q38.0 40.15 37.85 40.45 37.75 40.55 37.8 40.7 L37.8 45.95 Q38.5 47.65 40.95 52.15 L42.55 55.25 Q38.7 53.35 36.5 52.5 31.7 50.65 24.85 49.4 L9.3 46.15 0.2 44.65 Q-4.1 44.15 -5.2 45.95 L-4.2 46.65 -4.15 46.65 Q-3.95 47.9 -2.35 49.85 L0.1 52.9 Q-3.45 51.9 -9.2 49.6 L-14.45 47.65 -15.7 47.8 -16.2 47.95 -16.15 49.15 Q-14.9 50.05 -14.25 51.4 L-13.2 53.65 Q-15.8 52.75 -20.3 50.1 -25.35 47.1 -28.15 45.9 L-31.3 44.05 -31.5 43.9 -31.1 43.65 M5.3 0.65 Q3.95 0.65 3.5 -0.2 L3.3 -1.1 Q3.3 -3.85 5.7 -3.9 8.05 -3.9 8.05 -1.15 8.05 -0.35 7.25 0.15 6.45 0.65 5.3 0.65 M-43.55 15.1 Q-44.1 13.65 -45.4 11.2 L-46.5 8.95 -46.1 8.75 -41.2 9.15 -38.3 8.85 Q-39.2 10.9 -39.2 14.0 L-39.15 15.6 -39.15 15.65 Q-39.0 22.75 -37.25 28.9 L-36.7 30.7 -36.65 30.8 -35.5 33.75 -35.9 33.85 Q-36.15 32.55 -36.75 30.8 L-36.8 30.75 -37.45 28.95 -38.65 25.7 Q-39.4 23.8 -40.7 22.2 -41.65 21.0 -42.4 18.95 L-43.45 15.45 -43.55 15.1 M-48.3 9.65 L-46.65 13.95 -43.65 21.65 -41.9 24.95 Q-40.55 27.2 -40.2 28.4 L-39.05 31.7 Q-37.9 34.95 -37.9 35.45 -39.2 37.05 -42.25 37.6 L-44.25 37.85 -46.05 37.9 Q-50.55 37.9 -51.35 37.3 -51.9 36.85 -52.8 36.75 -52.4 27.05 -51.9 22.9 -51.9 17.1 -51.55 14.25 -51.25 11.6 -50.0 9.5 L-48.7 9.65 -48.3 9.65 M-35.45 10.5 Q-35.9 9.1 -36.3 8.4 -32.5 7.35 -26.95 5.0 -24.6 5.65 -21.3 10.1 L-18.95 13.55 Q-16.3 17.7 -11.75 25.65 L-12.25 26.45 -12.45 27.2 -13.4 25.4 Q-13.8 24.6 -16.15 22.3 -18.8 19.65 -19.95 19.65 -20.55 19.65 -21.95 20.3 -23.3 20.9 -23.95 20.9 -26.95 20.9 -29.35 19.0 -32.1 16.85 -35.2 11.45 L-35.45 10.5 M-64.4 18.0 Q-63.5 12.05 -59.7 8.65 L-60.0 17.05 Q-59.4 24.65 -54.95 24.65 L-53.85 24.6 -54.05 26.55 -54.7 34.95 -54.65 36.95 -54.7 36.95 -54.65 38.15 -54.6 38.2 Q-54.35 39.45 -53.7 40.15 L-52.9 39.7 -52.85 39.3 -51.05 39.8 -52.65 40.75 Q-55.6 42.45 -57.95 42.45 -58.9 42.45 -61.5 39.35 -63.95 36.5 -64.2 35.65 -64.65 34.0 -64.75 31.15 L-64.7 27.7 Q-64.7 20.0 -64.4 18.0 M-14.2 6.05 L-12.95 8.35 -10.9 11.95 Q-9.4 14.95 -8.2 19.15 -7.9 20.25 -6.3 22.6 L-7.2 22.65 Q-9.0 23.3 -10.2 24.15 L-10.2 23.45 Q-12.25 21.05 -14.3 17.45 L-17.7 11.45 -19.25 9.05 Q-20.7 7.05 -22.7 5.15 L-24.3 3.85 Q-21.15 2.35 -18.65 0.85 L-17.4 1.75 Q-15.35 3.05 -14.7 4.9 L-14.2 6.05 M-33.35 33.45 L-33.5 33.5 -34.15 31.95 Q-36.2 26.35 -37.2 12.65 -35.65 14.05 -33.75 18.15 -31.4 21.8 -26.4 22.9 L-20.4 22.65 Q-18.45 22.4 -15.7 25.7 -13.85 27.9 -13.65 29.05 -13.5 29.8 -13.7 31.75 L-15.2 36.4 Q-17.75 40.9 -23.05 40.9 -29.85 40.9 -33.2 34.2 -33.2 33.5 -33.35 33.45 M-37.7 38.45 Q-36.3 37.6 -35.9 36.55 L-34.4 35.95 Q-32.3 39.6 -29.35 41.45 L-30.3 41.4 -30.4 41.3 -30.65 41.15 Q-33.45 41.0 -34.85 41.2 L-35.15 40.9 Q-36.4 39.5 -37.85 38.75 L-38.0 38.65 -37.7 38.45 M-6.2 25.3 L-6.1 25.35 -5.95 25.5 -5.2 25.65 Q-4.05 26.2 -3.1 27.3 -1.7 29.0 -1.7 31.0 L-2.2 33.45 Q-3.2 35.9 -5.8 35.9 -9.2 35.9 -10.2 33.95 -10.7 33.1 -10.7 30.95 -10.7 24.25 -6.2 25.3 M-13.2 36.95 L-12.4 35.25 -11.6 36.4 -13.2 36.95 M-50.2 27.15 Q-50.6 27.2 -50.9 27.7 -51.2 28.25 -51.2 29.15 L-51.2 33.4 -49.95 33.65 Q-48.7 33.65 -49.15 33.4 L-48.75 32.45 -48.7 31.15 -48.9 28.9 -49.2 28.85 -49.4 27.8 -50.2 27.15 M-43.3 27.9 Q-44.0 26.85 -45.15 26.9 L-45.2 28.4 -44.95 29.85 -44.7 30.45 -44.7 32.05 Q-44.45 33.65 -42.95 33.65 -41.7 33.65 -42.2 33.45 -41.7 32.85 -41.7 31.4 -41.7 28.3 -43.3 27.9" fill="#000000" fill-rule="evenodd" stroke="none"/>
      <path d="M32.25 -35.8 L31.35 -34.85 29.7 -32.05 Q30.75 -32.75 31.6 -34.55 L32.25 -35.8 M49.2 -40.6 L51.25 -41.9 49.1 -40.7 49.2 -40.6 M-7.2 -1.65 L-7.45 -1.3 -7.2 -1.2 -7.2 -1.65 M45.2 -14.55 L45.15 -14.55 45.3 -14.3 45.2 -14.55 M55.55 51.3 L55.35 51.4 55.55 51.3 M-43.55 15.1 L-43.45 15.45 -43.4 15.15 -43.55 15.1 M-37.45 28.95 L-36.8 30.75 -36.75 30.8 Q-36.15 32.55 -35.9 33.85 L-35.5 33.75 -36.65 30.8 -36.75 30.8 -36.7 30.7 -37.25 28.9 -37.45 28.95 M-39.15 15.65 L-39.15 15.6 -39.45 15.65 -39.15 15.65 M-35.45 10.5 L-35.2 11.45 -34.9 11.15 -35.45 10.5 M-13.2 36.95 L-11.6 36.4 -12.4 35.25 -13.2 36.95" fill="#242939" fill-rule="evenodd" stroke="none"/>
      <path d="M55.85 -43.45 L50.8 -39.4 50.8 -39.35 45.3 -30.6 Q39.8 -21.15 39.8 -14.85 39.8 -14.15 40.05 -13.75 40.8 -14.9 43.55 -16.3 47.3 -18.2 47.3 -14.05 47.3 -11.95 46.6 -10.8 46.0 -9.8 44.65 -8.85 L45.55 -7.7 Q47.1 -7.1 47.7 -7.1 54.3 -7.1 57.4 -13.6 L59.35 -18.9 Q60.35 -22.05 61.1 -23.1 57.1 -23.5 56.15 -25.25 55.8 -25.85 55.8 -28.2 55.8 -30.5 56.5 -31.3 58.25 -33.3 64.3 -32.85 L64.55 -34.95 64.8 -37.1 Q64.8 -38.65 64.35 -39.55 63.45 -41.4 62.8 -43.55 62.0 -45.85 61.85 -48.45 L55.85 -43.45 M-48.3 9.65 L-48.7 9.65 -50.0 9.5 Q-51.25 11.6 -51.55 14.25 -51.9 17.1 -51.9 22.9 -52.4 27.05 -52.8 36.75 -51.9 36.85 -51.35 37.3 -50.55 37.9 -46.05 37.9 L-44.25 37.85 -42.25 37.6 Q-39.2 37.05 -37.9 35.45 -37.9 34.95 -39.05 31.7 L-40.2 28.4 Q-40.55 27.2 -41.9 24.95 L-43.65 21.65 -46.65 13.95 -48.3 9.65 M-50.2 27.15 L-49.4 27.8 -49.2 28.85 -48.9 28.9 -48.7 31.15 -48.75 32.45 -49.15 33.4 Q-48.7 33.65 -49.95 33.65 L-51.2 33.4 -51.2 29.15 Q-51.2 28.25 -50.9 27.7 -50.6 27.2 -50.2 27.15 M-43.3 27.9 Q-41.7 28.3 -41.7 31.4 -41.7 32.85 -42.2 33.45 -41.7 33.65 -42.95 33.65 -44.45 33.65 -44.7 32.05 L-44.7 30.45 -44.95 29.85 -45.2 28.4 -45.15 26.9 Q-44.0 26.85 -43.3 27.9" fill="#82625e" fill-rule="evenodd" stroke="none"/>
      <path d="M23.8 -55.25 L24.05 -55.05 24.1 -55.3 24.1 -55.55 23.95 -55.4 23.8 -55.25 M7.0 -47.4 L7.3 -47.3 7.1 -47.55 7.0 -47.4" fill="#11131a" fill-rule="evenodd" stroke="none"/>
      <path d="M23.8 -55.25 Q17.25 -48.8 14.6 -45.25 10.0 -39.05 10.8 -34.55 L10.45 -34.3 9.8 -33.85 9.85 -33.15 10.1 -32.6 11.3 -32.35 Q13.25 -32.35 15.6 -37.4 L18.1 -43.35 22.0 -49.65 23.3 -51.55 23.3 -51.6 23.5 -52.6 24.05 -55.05 23.8 -55.25 M30.8 -46.05 L26.7 -41.7 22.95 -37.7 23.05 -37.45 Q23.5 -36.35 24.55 -36.35 25.45 -36.35 30.85 -41.15 L36.85 -46.6 44.7 -52.2 Q45.55 -53.75 46.6 -54.6 45.05 -53.55 30.8 -46.05 M7.0 -47.4 Q4.4 -41.85 3.6 -35.75 3.15 -31.7 3.3 -24.5 5.25 -26.05 6.8 -26.65 L6.8 -26.95 7.2 -27.55 7.3 -34.55 7.55 -37.6 7.35 -38.25 7.15 -40.3 7.15 -40.55 Q7.65 -45.05 7.3 -47.3 L7.0 -47.4" fill="#1d1c16" fill-rule="evenodd" stroke="none"/>
      <path d="M26.1 -27.7 L24.9 -29.35 20.1 -28.85 16.8 -28.35 19.1 -26.4 23.85 -27.45 26.1 -27.7 M-14.2 6.05 L-14.7 4.9 Q-15.35 3.05 -17.4 1.75 L-18.65 0.85 Q-21.15 2.35 -24.3 3.85 L-22.7 5.15 Q-20.7 7.05 -19.25 9.05 L-18.75 8.8 Q-16.2 7.45 -14.2 6.05" fill="#292521" fill-rule="evenodd" stroke="none"/>
      <path d="M19.1 -26.4 L20.9 -24.55 27.05 -17.55 Q30.5 -14.15 33.2 -10.0 L35.75 -5.5 36.55 -6.4 Q38.35 -7.95 41.15 -7.65 L38.35 -11.05 38.1 -11.1 38.05 -11.45 35.0 -15.45 26.1 -27.7 23.85 -27.45 19.1 -26.4 M34.3 -0.2 L34.35 -1.3 29.8 2.05 15.6 11.65 6.0 18.2 -2.75 24.1 -2.2 24.95 -2.3 25.4 -1.95 25.65 Q-1.15 26.3 -0.9 26.7 0.1 28.55 0.25 30.4 2.4 28.3 9.3 24.65 15.25 21.25 20.85 17.65 26.85 13.75 38.1 5.25 35.5 4.6 34.6 2.9 34.15 2.0 34.2 0.9 L34.3 -0.2 M-19.25 9.05 L-17.7 11.45 -14.3 17.45 Q-12.25 21.05 -10.2 23.45 L-10.2 24.15 Q-9.0 23.3 -7.2 22.65 L-6.3 22.6 Q-7.9 20.25 -8.2 19.15 -9.4 14.95 -10.9 11.95 L-12.95 8.35 -14.2 6.05 Q-16.2 7.45 -18.75 8.8 L-19.25 9.05" fill="#161412" fill-rule="evenodd" stroke="none"/>
      <path d="M45.3 -14.3 L45.15 -14.55 Q44.35 -14.25 42.9 -13.15 L41.25 -12.05 41.3 -11.85 41.1 -11.55 42.05 -10.2 42.8 -10.25 43.55 -11.0 Q45.3 -12.75 45.3 -14.3" fill="#1f1b16" fill-rule="evenodd" stroke="none"/>
      <path d="M46.7 0.75 L46.8 -0.75 46.8 -1.5 45.6 -4.0 43.8 -4.95 43.25 -5.2 Q41.2 -6.0 39.55 -5.8 38.5 -5.7 37.8 -5.25 L37.8 -4.85 Q37.8 -4.35 36.6 -3.2 L36.8 -2.55 36.55 -1.65 36.3 -1.45 36.3 -0.25 Q36.3 1.6 36.8 2.15 37.65 3.15 40.55 3.35 L40.8 3.15 41.5 3.35 41.6 3.4 42.15 3.4 Q44.95 3.4 45.85 2.65 L46.3 2.1 46.2 0.7 46.7 0.75 M-6.2 25.3 Q-10.7 24.25 -10.7 30.95 -10.7 33.1 -10.2 33.95 -9.2 35.9 -5.8 35.9 -3.2 35.9 -2.2 33.45 L-1.7 31.0 Q-1.7 29.0 -3.1 27.3 -4.05 26.2 -5.2 25.65 L-5.95 25.5 -6.1 25.35 -6.2 25.3" fill="#60606c" fill-rule="evenodd" stroke="none"/>
      <path d="M5.3 0.65 Q6.45 0.65 7.25 0.15 8.05 -0.35 8.05 -1.15 8.05 -3.9 5.7 -3.9 3.3 -3.85 3.3 -1.1 L3.5 -0.2 Q3.95 0.65 5.3 0.65" fill="#ffffff" fill-rule="evenodd" stroke="none"/>
      <path d="M-64.4 18.0 Q-64.7 20.0 -64.7 27.7 L-64.75 31.15 Q-64.65 34.0 -64.2 35.65 -63.95 36.5 -61.5 39.35 -58.9 42.45 -57.95 42.45 -55.6 42.45 -52.65 40.75 L-51.05 39.8 -52.85 39.3 -52.9 39.7 -53.7 40.15 Q-54.35 39.45 -54.6 38.2 L-54.65 38.15 -54.7 36.95 -54.65 36.95 -54.7 34.95 -54.05 26.55 -53.85 24.6 -54.95 24.65 Q-59.4 24.65 -60.0 17.05 L-59.7 8.65 Q-63.5 12.05 -64.4 18.0 M-33.35 33.45 Q-33.2 33.5 -33.2 34.2 -29.85 40.9 -23.05 40.9 -17.75 40.9 -15.2 36.4 L-13.7 31.75 Q-13.5 29.8 -13.65 29.05 -13.85 27.9 -15.7 25.7 -18.45 22.4 -20.4 22.65 L-26.4 22.9 Q-31.4 21.8 -33.75 18.15 -35.65 14.05 -37.2 12.65 -36.2 26.35 -34.15 31.95 L-33.5 33.5 -33.35 33.45" fill="#baae96" fill-rule="evenodd" stroke="none"/>
      <path d="M-37.85 38.75 Q-36.4 39.5 -35.15 40.9 L-34.85 41.2 Q-33.45 41.0 -30.65 41.15 L-30.4 41.3 -30.3 41.4 -29.35 41.45 Q-32.3 39.6 -34.4 35.95 L-35.9 36.55 Q-36.3 37.6 -37.7 38.45 L-37.85 38.75" fill="#332e28" fill-rule="evenodd" stroke="none"/>
      <path d="M51.45 -42.0 L51.5 -42.05 51.6 -42.1 53.3 -43.85 54.0 -44.55 53.8 -44.8 Q47.7 -41.2 42.55 -40.3 L40.25 -39.8 40.05 -39.75 39.9 -39.7 39.7 -39.65 39.55 -39.6 39.2 -39.5 39.05 -39.45 37.65 -39.0 37.45 -38.9 37.25 -38.85 33.3 -36.7 32.25 -35.8 31.6 -34.55 Q30.75 -32.75 29.7 -32.05 L29.55 -31.85 28.5 -30.45 28.4 -30.35 28.0 -29.9 27.9 -29.8 27.4 -29.35 27.6 -29.15 29.85 -26.1 30.8 -24.85 Q32.5 -25.05 34.15 -27.75 L35.6 -30.85 Q36.3 -31.9 39.2 -34.05 L44.45 -37.85 Q46.1 -39.0 49.1 -40.7 L51.25 -41.9 51.45 -42.0 M16.9 -25.55 Q15.15 -27.1 14.6 -28.0 L12.85 -27.6 10.45 -26.65 8.3 -25.85 8.15 -25.85 2.5 -21.55 1.65 -20.9 Q-6.3 -14.2 -10.2 -7.05 -12.0 -3.75 -16.3 -0.7 -14.3 0.3 -12.85 3.05 L-12.15 4.45 -9.8 1.8 -7.45 -1.3 -7.2 -1.65 -7.2 -4.0 -7.15 -6.05 Q-6.95 -7.45 -6.2 -7.85 -6.05 -10.85 0.35 -14.65 3.15 -17.2 6.3 -19.05 8.3 -20.15 13.3 -23.55 15.0 -24.75 16.9 -25.55 M-39.15 15.6 L-39.2 14.0 Q-39.2 10.9 -38.3 8.85 L-41.2 9.15 -46.1 8.75 -46.5 8.95 -45.4 11.2 Q-44.1 13.65 -43.55 15.1 L-43.4 15.15 -39.45 15.65 -39.15 15.6 M-21.3 10.1 Q-24.6 5.65 -26.95 5.0 -32.5 7.35 -36.3 8.4 -35.9 9.1 -35.45 10.5 L-34.9 11.15 -34.7 11.3 -33.7 11.9 -33.55 12.5 -33.4 12.65 -30.45 12.65 Q-28.8 11.7 -25.45 11.25 L-22.4 10.85 -21.5 10.2 -21.3 10.1" fill="#5b5042" fill-rule="evenodd" stroke="none"/>
      <path d="M30.8 -24.85 L35.35 -19.6 37.95 -16.15 39.25 -21.95 Q40.6 -26.85 41.3 -28.05 43.4 -32.85 44.75 -35.25 46.1 -37.75 47.8 -39.0 L47.8 -39.1 Q47.8 -39.75 49.2 -40.6 L49.1 -40.7 Q46.1 -39.0 44.45 -37.85 L39.2 -34.05 Q36.3 -31.9 35.6 -30.85 L34.15 -27.75 Q32.5 -25.05 30.8 -24.85 M16.9 -25.55 Q15.0 -24.75 13.3 -23.55 8.3 -20.15 6.3 -19.05 3.15 -17.2 0.35 -14.65 -6.05 -10.85 -6.2 -7.85 L-6.15 -7.8 -5.75 -7.45 -5.65 -7.3 Q-5.15 -6.5 -5.15 -5.05 L-5.2 -1.6 -1.9 -1.6 2.7 -5.35 8.05 -9.55 Q11.9 -12.3 16.2 -10.05 18.1 -9.05 21.3 -5.85 L20.95 -5.25 20.8 -5.1 20.8 -4.6 Q20.8 -1.25 17.35 2.9 13.05 8.15 6.8 8.15 0.2 8.15 -3.2 5.2 L-5.35 2.45 -5.9 1.75 -6.2 1.4 -6.2 1.05 -6.45 0.25 -7.15 -0.35 -7.2 -1.2 -7.45 -1.3 -9.8 1.8 -12.15 4.45 -9.2 10.7 Q-8.35 11.85 -7.4 14.3 -6.65 16.25 -6.2 17.9 -5.8 19.2 -4.05 22.1 -1.9 20.3 2.35 17.4 8.7 13.1 15.35 9.15 18.6 7.2 26.2 1.3 30.85 -2.3 34.15 -4.35 33.35 -6.7 31.2 -9.55 L26.8 -14.85 24.75 -17.0 23.1 -18.6 22.05 -20.4 21.1 -22.05 17.65 -24.9 16.9 -25.55 M48.1 2.95 Q47.5 4.1 46.3 4.8 44.7 5.65 42.05 5.65 L41.2 5.65 Q39.6 7.85 33.6 11.9 29.2 14.9 22.05 19.2 19.6 20.75 11.65 25.65 4.1 30.4 0.3 33.15 L0.15 33.15 Q-0.1 34.4 -0.65 35.4 -2.2 38.15 -5.95 38.15 L-8.85 37.85 Q-10.35 39.05 -14.7 40.15 L-15.3 40.05 Q-16.45 41.2 -17.8 41.95 L-18.6 42.35 -19.7 42.75 -20.2 42.85 -22.7 43.15 -22.85 43.35 -23.15 43.65 -31.1 43.65 -31.3 44.05 -28.15 45.9 Q-25.35 47.1 -20.3 50.1 -15.8 52.75 -13.2 53.65 L-14.25 51.4 Q-14.9 50.05 -16.15 49.15 L-16.2 47.95 -15.7 47.8 -14.45 47.65 -9.2 49.6 Q-3.45 51.9 0.1 52.9 L-2.35 49.85 Q-3.95 47.9 -4.15 46.65 L-4.2 46.65 -5.2 45.95 Q-4.1 44.15 0.2 44.65 L9.3 46.15 24.85 49.4 Q31.7 50.65 36.5 52.5 38.7 53.35 42.55 55.25 L40.95 52.15 Q38.5 47.65 37.8 45.95 L37.8 40.7 Q37.75 40.55 37.85 40.45 38.0 40.15 38.8 40.15 L46.1 45.4 Q53.65 50.8 55.35 51.4 L55.55 51.3 51.0 43.85 Q48.25 39.1 47.3 35.95 L47.3 31.45 47.45 31.3 48.3 31.15 Q49.2 31.15 52.05 33.35 54.95 35.6 56.3 35.7 54.15 31.15 52.95 25.05 L51.2 14.15 Q50.2 7.85 48.5 2.85 L48.1 2.95 M-43.45 15.45 L-42.4 18.95 Q-41.65 21.0 -40.7 22.2 -39.4 23.8 -38.65 25.7 L-37.45 28.95 -37.25 28.9 Q-39.0 22.75 -39.15 15.65 L-39.45 15.65 -43.4 15.15 -43.45 15.45 M-35.2 11.45 Q-32.1 16.85 -29.35 19.0 -26.95 20.9 -23.95 20.9 -23.3 20.9 -21.95 20.3 -20.55 19.65 -19.95 19.65 -18.8 19.65 -16.15 22.3 -13.8 24.6 -13.4 25.4 L-12.45 27.2 -12.25 26.45 -11.75 25.65 Q-16.3 17.7 -18.95 13.55 L-21.3 10.1 -21.5 10.2 -22.4 10.85 -25.45 11.25 Q-28.8 11.7 -30.45 12.65 L-33.4 12.65 -33.55 12.5 -33.7 11.9 -34.7 11.3 -34.9 11.15 -35.2 11.45" fill="#3f362e" fill-rule="evenodd" stroke="none"/>
      <path d="M54.0 -44.55 L55.3 -45.55 55.2 -45.65 53.8 -44.8 54.0 -44.55 M51.25 -41.9 L51.45 -42.0 51.25 -41.9 M46.3 2.1 L46.7 0.75 46.2 0.7 46.3 2.1 M-31.1 43.65 L-31.5 43.9 -31.3 44.05 -31.1 43.65 M48.5 2.85 L48.35 2.4 48.1 2.95 48.5 2.85" fill="#3e4762" fill-rule="evenodd" stroke="none"/>
    </g>
  </defs>
</svg>
