<?xml version="1.0" encoding="UTF-8" standalone="no"?>
<svg xmlns:ffdec="https://www.free-decompiler.com/flash" xmlns:xlink="http://www.w3.org/1999/xlink" ffdec:objectType="frame" height="243.6px" width="194.4px" xmlns="http://www.w3.org/2000/svg">
  <g transform="matrix(1.0, 0.0, 0.0, 1.0, 4.4, 72.6)">
    <use ffdec:characterId="219" height="122.7" transform="matrix(0.9672, -0.254, 0.2353, 0.8959, 29.3868, 41.0236)" width="68.45" xlink:href="#shape0"/>
    <use ffdec:characterId="220" height="82.85" transform="matrix(0.9763, 0.1446, -0.1915, 0.9194, 51.4448, -25.7595)" width="91.95" xlink:href="#shape1"/>
    <use ffdec:characterId="222" height="59.55" transform="matrix(0.9349, -0.2455, 0.2353, 0.8959, 18.6558, 54.0706)" width="33.7" xlink:href="#shape2"/>
  </g>
  <defs>
    <g id="shape0" transform="matrix(1.0, 0.0, 0.0, 1.0, 35.9, 56.7)">
      <path d="M7.55 -27.3 Q7.4 -29.3 5.9 -30.75 4.25 -32.3 2.25 -32.35 -3.05 -33.15 -3.0 -26.6 -3.2 -25.75 -2.1 -24.6 -0.75 -23.15 2.7 -23.0 5.55 -23.05 6.8 -24.7 7.4 -25.8 7.55 -27.3 M2.6 -25.1 Q1.35 -25.15 0.75 -25.6 -0.55 -26.45 -1.2 -26.5 L-0.65 -28.95 Q-0.35 -30.5 1.35 -30.4 3.7 -30.45 4.25 -29.3 4.85 -27.75 5.65 -27.35 L4.85 -26.05 Q3.9 -25.15 2.6 -25.1 M6.95 -33.6 Q6.9 -32.5 7.8 -31.45 L10.75 -27.6 Q10.55 -25.2 9.3 -22.85 7.4 -19.95 4.4 -19.95 0.55 -20.1 -0.9 -21.1 -2.2 -22.4 -3.1 -22.8 L-3.45 -23.35 -4.35 -23.55 Q-5.85 -24.95 -5.8 -27.65 -5.85 -31.15 -5.1 -32.15 -3.6 -35.4 2.3 -34.85 L5.45 -34.3 Q6.7 -34.0 6.95 -33.6 M18.6 -14.55 L17.5 -15.35 Q16.55 -16.35 16.65 -16.85 16.45 -20.5 19.15 -19.85 21.7 -19.4 21.8 -16.4 L21.15 -15.25 Q20.15 -14.7 18.6 -14.55 M3.45 -17.1 Q2.7 -16.2 2.4 -15.35 0.3 -17.2 -3.0 -17.5 L-5.85 -18.2 -5.75 -19.9 Q-5.65 -20.5 -4.6 -20.75 L-4.1 -21.15 Q-3.75 -21.1 -3.35 -20.75 L-3.1 -20.6 -0.55 -18.8 Q0.8 -18.15 4.0 -17.85 L3.45 -17.1 M3.35 -8.85 Q3.45 -7.65 2.8 -6.45 1.2 -4.15 -3.6 -4.15 -8.55 -4.35 -10.85 -6.7 -12.35 -8.25 -12.3 -9.3 -12.35 -13.4 -9.8 -15.0 -7.8 -16.45 -4.4 -15.8 -1.4 -15.5 1.0 -13.35 3.25 -11.35 3.35 -8.85 M9.3 -8.3 L9.3 -8.4 Q9.3 -10.75 10.5 -11.2 L10.7 -11.15 10.8 -11.25 Q11.2 -11.45 11.95 -11.25 13.75 -10.95 14.45 -9.1 L14.3 -8.9 Q14.25 -8.25 14.55 -7.95 L14.55 -7.8 Q14.5 -7.3 13.9 -6.7 12.95 -6.1 11.4 -6.0 10.95 -6.15 10.25 -6.85 9.2 -7.75 9.3 -8.3 M4.85 -0.85 L4.85 -1.0 Q5.55 -1.4 7.2 -1.65 L8.0 -0.85 7.9 -0.7 7.9 -0.55 4.85 -0.85 M-12.75 -39.5 Q-10.9 -39.2 -10.3 -37.45 L-10.4 -37.0 -10.25 -36.1 -10.15 -36.0 -10.75 -35.0 Q-11.7 -34.3 -13.3 -34.25 L-14.45 -35.15 Q-15.55 -36.1 -15.4 -36.6 -15.5 -40.25 -12.75 -39.5 M-19.6 -25.85 Q-19.7 -29.4 -16.95 -28.8 -14.4 -28.3 -14.25 -25.3 -14.4 -24.75 -14.9 -24.1 -15.9 -23.5 -17.55 -23.5 -17.95 -23.55 -18.7 -24.25 -19.75 -25.2 -19.6 -25.85 M-21.95 -12.65 Q-23.0 -13.55 -22.9 -14.2 -22.95 -17.8 -20.15 -17.15 -18.8 -16.9 -18.1 -15.8 L-18.2 -14.6 Q-18.35 -13.85 -18.15 -13.75 L-17.55 -13.65 Q-17.7 -13.1 -18.2 -12.5 -19.1 -11.95 -20.85 -11.8 L-21.95 -12.65 M-27.85 -2.1 Q-27.9 -3.65 -27.6 -4.45 -27.45 -6.1 -26.7 -7.5 L-26.55 -7.8 Q-24.7 -6.9 -20.8 -5.85 L-19.4 -5.45 Q-21.45 -5.55 -22.35 -3.2 -23.05 -1.95 -23.0 -0.3 L-22.95 0.25 Q-26.1 -1.4 -27.55 -1.95 L-27.7 -2.0 -27.8 -2.05 -27.85 -2.1 M-1.6 -12.7 Q-2.8 -13.85 -4.4 -13.75 -8.65 -13.6 -8.6 -9.0 L-8.6 -7.4 Q-8.1 -6.05 -4.85 -5.95 -0.35 -5.85 -0.25 -9.4 -0.45 -11.65 -1.6 -12.7 M-19.35 -5.2 L-19.4 -5.45 -11.4 -2.75 Q-12.7 -2.3 -13.1 -0.5 -13.35 0.15 -13.25 2.35 L-21.65 0.8 -21.5 0.7 Q-20.75 -0.8 -19.3 -4.25 L-19.35 -5.2 M-9.95 -2.1 L-10.0 -2.2 -6.45 -0.75 -2.15 0.5 -2.15 0.75 Q-2.25 1.45 -1.6 2.9 L-1.15 4.0 -11.35 2.7 -9.95 -2.1 M-3.25 -11.65 Q-2.6 -10.85 -2.1 -9.45 L-2.55 -8.8 Q-3.4 -8.05 -4.95 -7.95 L-6.25 -8.1 -6.7 -8.25 Q-6.8 -9.35 -6.2 -10.95 -4.75 -13.3 -3.25 -11.65 M-4.25 41.15 L-2.6 38.15 Q-1.95 36.65 -0.65 35.6 L0.6 34.0 1.1 34.35 Q4.95 28.6 10.6 26.8 L10.7 31.55 Q8.7 34.15 7.5 37.85 L5.05 44.0 Q4.3 45.3 2.35 51.25 1.5 53.3 1.15 54.75 -0.5 52.0 -2.95 54.0 -5.85 55.7 -6.05 58.45 -8.45 56.35 -9.2 54.4 L-10.15 52.3 -6.95 46.9 -4.25 41.15 M-3.3 58.3 Q-2.1 55.95 -0.6 56.05 -0.25 55.95 0.05 56.8 0.05 57.15 0.4 57.3 L0.4 62.65 Q-2.2 61.45 -4.1 60.1 L-3.3 58.3 M5.65 1.45 Q5.5 1.8 5.6 2.45 L5.35 4.0 5.25 4.65 0.0 4.1 0.2 2.05 0.2 0.95 5.65 1.45" fill="#473612" fill-rule="evenodd" stroke="none"/>
      <path d="M4.7 -52.45 Q0.15 -55.1 -2.15 -55.1 -16.6 -55.6 -24.4 -47.9 -28.55 -44.05 -29.65 -39.75 -33.3 -27.05 -33.8 -19.5 -34.25 -13.85 -33.6 -11.0 -32.95 -8.25 -30.15 -4.35 L-29.85 -5.75 Q-29.35 -8.2 -28.25 -9.1 L-28.35 -9.3 Q-29.05 -10.35 -28.95 -14.6 -28.95 -18.95 -27.75 -22.15 -26.55 -26.3 -26.1 -31.5 L-26.15 -35.8 Q-26.35 -38.6 -25.5 -39.8 -22.5 -45.8 -20.95 -46.6 L-19.8 -47.0 -18.5 -48.05 Q-16.5 -49.6 -13.45 -50.3 -5.75 -52.65 1.85 -48.6 5.15 -46.9 8.2 -43.7 11.15 -40.5 12.15 -37.55 L12.2 -35.35 16.15 -31.8 18.05 -29.85 Q17.45 -31.4 16.95 -34.0 15.15 -41.45 14.4 -43.15 13.65 -44.95 12.05 -46.55 L8.7 -49.9 4.7 -52.45 M15.2 -45.05 Q16.7 -42.0 18.05 -37.1 L20.2 -28.8 20.0 -28.2 19.95 -28.1 21.05 -27.25 Q24.3 -24.15 25.0 -22.1 L25.35 -21.25 25.35 -21.2 25.6 -20.35 27.25 -16.75 29.25 -11.6 29.15 -11.25 29.45 -8.2 Q29.75 -5.8 30.4 -3.85 L31.6 0.4 32.55 3.7 32.45 4.55 Q32.3 4.45 32.25 5.0 31.95 4.8 31.6 5.25 L30.1 5.2 30.3 7.2 Q30.15 9.8 29.1 12.6 27.45 16.2 24.55 16.3 19.3 16.05 17.15 12.7 15.6 10.6 15.75 8.9 15.6 7.6 15.95 6.7 13.85 6.15 11.75 4.65 9.6 2.95 8.95 1.9 L8.85 1.9 8.65 1.55 8.4 1.5 7.95 2.95 Q7.4 3.6 7.5 4.35 7.4 4.4 7.4 4.95 8.0 5.05 8.25 6.5 L8.4 7.95 8.4 8.05 10.7 11.25 12.65 15.25 13.15 15.55 Q13.8 16.05 14.25 17.05 L14.15 17.55 13.85 17.85 13.85 18.45 Q13.8 19.5 12.1 22.05 L12.1 22.3 11.25 24.05 Q11.65 24.05 12.1 24.45 L12.5 28.85 Q12.45 32.7 11.25 34.85 8.9 37.75 7.6 43.75 L6.25 47.6 Q4.85 50.6 4.65 52.0 L3.45 56.4 2.2 59.0 2.4 60.7 2.35 64.1 Q2.0 65.85 0.35 66.0 -5.65 65.75 -11.3 55.3 -16.05 46.75 -15.7 43.4 -15.65 41.25 -13.45 37.85 L-12.0 35.75 Q-18.25 37.4 -23.4 37.55 L-30.65 37.95 Q-30.1 37.7 -30.1 36.6 L-30.25 35.35 Q-30.3 34.75 -30.65 33.7 L-30.85 32.85 -31.85 32.9 -32.65 32.7 -32.7 32.25 -33.0 32.2 Q-33.2 31.2 -33.05 30.05 -33.35 27.55 -33.25 26.15 -33.15 25.4 -32.85 25.1 L-32.8 24.75 Q-32.85 23.75 -32.4 23.25 -32.45 18.2 -31.95 14.65 -32.3 11.35 -32.15 9.75 -32.3 8.95 -32.05 8.75 L-32.15 8.7 Q-32.5 8.4 -32.35 7.7 L-32.25 5.0 -31.7 1.85 Q-31.3 -0.25 -30.5 -1.1 L-30.4 -1.35 -30.4 -1.45 -30.4 -1.6 -30.4 -1.65 -30.3 -2.6 -30.8 -2.5 Q-32.55 -2.6 -33.7 -5.8 -34.35 -7.6 -35.0 -11.2 L-35.6 -13.45 -35.85 -14.9 -35.85 -15.25 -35.9 -15.4 -35.85 -15.5 -35.55 -19.4 Q-34.15 -38.85 -27.45 -47.3 -20.1 -56.8 -3.8 -56.7 2.25 -57.0 8.7 -51.75 10.85 -50.8 12.6 -48.95 13.9 -47.6 15.2 -45.05 M6.95 -33.6 Q6.7 -34.0 5.45 -34.3 L2.3 -34.85 Q-3.6 -35.4 -5.1 -32.15 -5.85 -31.15 -5.8 -27.65 -5.85 -24.95 -4.35 -23.55 L-3.45 -23.35 -3.1 -22.8 Q-2.2 -22.4 -0.9 -21.1 0.55 -20.1 4.4 -19.95 7.4 -19.95 9.3 -22.85 10.55 -25.2 10.75 -27.6 L7.8 -31.45 Q6.9 -32.5 6.95 -33.6 M2.6 -25.1 Q3.9 -25.15 4.85 -26.05 L5.65 -27.35 Q4.85 -27.75 4.25 -29.3 3.7 -30.45 1.35 -30.4 -0.35 -30.5 -0.65 -28.95 L-1.2 -26.5 Q-0.55 -26.45 0.75 -25.6 1.35 -25.15 2.6 -25.1 M7.55 -27.3 Q7.4 -25.8 6.8 -24.7 5.55 -23.05 2.7 -23.0 -0.75 -23.15 -2.1 -24.6 -3.2 -25.75 -3.0 -26.6 -3.05 -33.15 2.25 -32.35 4.25 -32.3 5.9 -30.75 7.4 -29.3 7.55 -27.3 M10.5 -36.65 L10.75 -36.45 10.6 -36.75 Q9.15 -39.75 6.8 -42.4 0.75 -49.15 -8.5 -49.35 -12.95 -49.55 -16.55 -47.3 L-16.6 -47.25 -16.55 -47.25 -15.7 -47.2 -11.25 -46.95 -11.0 -46.75 -10.85 -46.6 -10.4 -46.55 -9.9 -47.05 -9.3 -46.85 -8.95 -46.35 Q-6.3 -46.05 -3.65 -44.55 L3.35 -40.45 Q7.3 -38.95 10.5 -36.65 M-3.1 -36.2 L-1.6 -36.95 Q4.95 -38.4 9.35 -33.75 12.4 -30.45 12.5 -27.6 L12.35 -25.15 12.15 -23.25 11.85 -21.85 10.7 -20.8 9.15 -19.65 9.1 -19.55 8.1 -18.3 7.35 -17.95 Q9.3 -17.65 11.5 -15.75 L12.05 -16.45 12.95 -17.65 13.3 -18.05 14.4 -20.2 14.95 -20.95 15.3 -21.4 15.3 -22.0 Q15.2 -22.25 15.55 -22.8 15.8 -23.6 16.55 -24.6 L17.9 -26.4 Q17.0 -27.1 16.6 -27.7 L14.55 -30.2 Q10.4 -34.6 3.5 -38.3 0.3 -40.2 -4.15 -42.05 L-5.6 -40.3 -6.2 -39.75 -6.25 -39.75 -6.45 -39.35 -7.35 -38.4 -8.2 -37.35 -8.05 -36.05 Q-8.2 -35.15 -9.2 -33.65 L-9.3 -33.55 -9.3 -33.5 -9.0 -32.5 -9.0 -32.3 -9.75 -30.0 -10.35 -29.2 -11.5 -27.6 Q-10.05 -27.65 -8.05 -26.0 L-7.45 -25.55 Q-7.7 -26.5 -7.55 -27.4 L-7.65 -28.05 -7.45 -31.2 -7.2 -32.35 Q-6.85 -33.8 -4.95 -35.0 L-3.5 -36.05 -3.1 -36.2 M19.25 -22.1 Q21.0 -21.75 22.45 -20.2 L23.05 -19.2 23.3 -19.9 23.6 -20.4 23.35 -20.7 22.15 -22.9 19.75 -25.05 18.75 -23.5 17.35 -21.9 19.25 -22.1 M14.75 -16.55 L14.8 -16.6 14.8 -16.8 14.6 -16.55 12.7 -13.8 12.65 -13.8 12.6 -13.75 12.45 -13.45 Q13.95 -13.1 15.15 -11.65 L15.7 -10.85 16.65 -11.85 Q17.05 -12.5 17.6 -12.8 17.1 -13.0 16.9 -13.15 L15.05 -14.25 Q14.65 -15.0 14.75 -16.55 M21.0 -12.65 L19.8 -12.4 19.75 -12.4 19.65 -12.3 19.2 -11.85 18.8 -11.5 18.0 -10.6 17.0 -9.6 16.85 -9.4 16.65 -9.1 16.55 -9.0 16.55 -7.8 16.55 -7.65 Q16.4 -6.8 15.55 -5.5 L14.4 -4.45 14.25 -4.35 12.8 -2.75 10.2 -0.5 Q11.6 -0.85 14.05 -1.9 14.95 -2.55 16.15 -3.1 L19.3 -5.5 20.65 -6.5 20.75 -6.6 22.9 -8.2 24.55 -9.75 26.1 -11.15 27.0 -12.05 26.65 -13.25 24.65 -18.1 Q24.4 -18.05 24.3 -17.8 L23.65 -17.85 23.85 -16.4 23.5 -15.15 22.7 -14.0 22.25 -13.45 21.0 -12.65 M18.6 -14.55 Q20.15 -14.7 21.15 -15.25 L21.8 -16.4 Q21.7 -19.4 19.15 -19.85 16.45 -20.5 16.65 -16.85 16.55 -16.35 17.5 -15.35 L18.6 -14.55 M4.2 -13.05 Q5.1 -12.95 6.45 -11.85 L7.8 -10.5 Q8.0 -11.9 8.9 -12.55 9.35 -13.15 10.0 -13.35 L10.45 -14.05 8.25 -15.05 5.8 -16.4 5.15 -15.35 3.8 -13.9 Q3.8 -13.8 3.95 -13.65 L4.2 -13.05 M3.45 -17.1 L4.0 -17.85 Q0.8 -18.15 -0.55 -18.8 L-3.1 -20.6 -3.35 -20.75 Q-3.75 -21.1 -4.1 -21.15 L-4.6 -20.75 Q-5.65 -20.5 -5.75 -19.9 L-5.85 -18.2 -3.0 -17.5 Q0.3 -17.2 2.4 -15.35 2.7 -16.2 3.45 -17.1 M7.1 -8.25 L7.2 -8.35 5.55 -9.8 5.1 -10.1 5.2 -8.6 4.8 -5.9 6.1 -6.8 7.1 -8.25 M9.3 -8.3 Q9.2 -7.75 10.25 -6.85 10.95 -6.15 11.4 -6.0 12.95 -6.1 13.9 -6.7 14.5 -7.3 14.55 -7.8 L14.55 -7.95 Q14.25 -8.25 14.3 -8.9 L14.45 -9.1 Q13.75 -10.95 11.95 -11.25 11.2 -11.45 10.8 -11.25 L10.7 -11.15 10.5 -11.2 Q9.3 -10.75 9.3 -8.4 L9.3 -8.3 M3.35 -8.85 Q3.25 -11.35 1.0 -13.35 -1.4 -15.5 -4.4 -15.8 -7.8 -16.45 -9.8 -15.0 -12.35 -13.4 -12.3 -9.3 -12.35 -8.25 -10.85 -6.7 -8.55 -4.35 -3.6 -4.15 1.2 -4.15 2.8 -6.45 3.45 -7.65 3.35 -8.85 M4.85 -1.0 L4.55 -0.85 4.85 -0.85 7.9 -0.55 7.9 -0.7 8.0 -0.85 7.2 -1.65 Q5.55 -1.4 4.85 -1.0 M3.0 -3.3 Q1.0 -2.25 -2.55 -2.05 L-0.75 -1.75 1.6 -1.3 Q1.45 -2.65 3.05 -3.15 L3.0 -3.3 M9.4 -2.35 L10.3 -3.15 11.2 -4.0 9.55 -4.6 7.75 -5.7 7.05 -4.85 5.8 -3.7 Q8.5 -3.85 9.4 -2.35 M15.95 -0.15 L15.75 -0.05 16.05 0.05 19.85 1.5 Q20.55 1.0 21.5 0.8 L21.25 -0.3 Q21.05 -0.9 21.15 -2.35 L20.95 -3.1 15.95 -0.15 M27.35 -8.65 L27.3 -8.6 23.0 -4.75 22.95 0.5 Q25.85 0.05 28.0 1.8 28.8 2.45 29.45 3.65 L29.5 3.65 Q30.1 3.65 30.3 3.1 L28.85 -1.55 Q27.4 -6.25 27.5 -8.35 L27.45 -8.8 27.35 -8.65 M-9.15 -39.55 Q-8.65 -40.45 -7.55 -41.3 L-6.05 -42.85 -9.55 -44.4 -10.2 -43.75 -12.1 -41.7 Q-10.65 -41.35 -9.45 -39.85 L-9.2 -39.45 -9.15 -39.55 M-14.6 -42.35 Q-14.4 -43.2 -13.3 -44.0 L-11.95 -45.1 Q-16.1 -45.9 -18.5 -44.95 -19.6 -44.65 -20.25 -43.95 L-18.9 -42.5 Q-17.55 -41.4 -16.0 -40.7 L-15.8 -40.9 Q-15.45 -41.4 -14.8 -41.5 -14.9 -42.05 -14.6 -42.35 M-12.75 -39.5 Q-15.5 -40.25 -15.4 -36.6 -15.55 -36.1 -14.45 -35.15 L-13.3 -34.25 Q-11.7 -34.3 -10.75 -35.0 L-10.15 -36.0 -10.25 -36.1 -10.4 -37.0 -10.3 -37.45 Q-10.9 -39.2 -12.75 -39.5 M-12.2 -32.15 Q-14.2 -32.3 -15.2 -32.85 L-15.25 -32.95 -15.75 -32.15 -16.45 -30.9 Q-15.0 -30.6 -13.65 -29.1 L-13.2 -28.55 Q-12.9 -29.7 -12.0 -31.15 L-11.25 -32.2 -12.2 -32.15 M-17.85 -33.35 L-17.1 -34.25 -17.3 -35.75 -17.3 -35.8 -20.25 -38.45 -21.8 -40.35 -22.6 -40.9 -23.6 -38.5 -23.7 -38.2 Q-24.1 -37.4 -24.15 -36.25 -24.35 -35.55 -24.2 -34.3 L-24.2 -31.0 -24.15 -30.45 -24.15 -30.25 -24.3 -29.5 -24.35 -29.4 -25.25 -23.9 -25.35 -23.4 -25.4 -23.3 -25.45 -23.15 -25.5 -22.9 -25.55 -22.75 -25.6 -22.65 -25.65 -22.45 -25.65 -22.4 -25.9 -21.6 Q-26.55 -20.25 -26.8 -18.5 L-26.9 -17.65 -26.9 -16.85 -26.95 -16.25 -27.0 -16.0 -27.1 -14.6 -27.15 -12.2 Q-27.2 -11.1 -26.45 -10.3 -25.8 -9.65 -23.65 -8.75 L-23.75 -8.9 Q-24.0 -9.35 -23.75 -10.15 L-23.9 -11.1 -24.5 -11.45 Q-24.9 -12.25 -24.7 -13.85 L-24.7 -14.05 Q-24.8 -15.85 -24.25 -16.85 -24.05 -17.9 -23.3 -18.45 L-23.2 -18.45 Q-23.45 -18.9 -23.3 -19.2 L-23.25 -20.1 -23.15 -20.35 -22.6 -21.35 -22.0 -22.15 -21.25 -23.2 Q-21.6 -24.05 -21.45 -25.5 L-21.45 -26.0 -21.1 -28.2 Q-20.85 -29.55 -20.05 -30.1 -19.5 -30.75 -18.65 -30.95 L-18.65 -31.1 -18.65 -31.25 Q-18.65 -32.2 -17.95 -33.25 L-17.85 -33.35 M-19.6 -25.85 Q-19.75 -25.2 -18.7 -24.25 -17.95 -23.55 -17.55 -23.5 -15.9 -23.5 -14.9 -24.1 -14.4 -24.75 -14.25 -25.3 -14.4 -28.3 -16.95 -28.8 -19.7 -29.4 -19.6 -25.85 M-12.2 -25.5 L-12.25 -25.5 -12.25 -25.3 Q-12.35 -24.2 -13.3 -22.9 L-13.45 -22.85 Q-13.3 -22.75 -13.1 -22.05 -12.05 -22.0 -11.35 -21.2 -11.0 -20.9 -8.95 -20.05 -8.3 -19.85 -7.65 -19.45 -7.7 -21.3 -7.35 -21.5 -7.1 -21.95 -6.35 -22.15 -7.5 -22.75 -8.6 -23.9 -10.1 -25.75 -12.2 -25.5 M-16.35 -21.4 Q-18.4 -21.6 -19.25 -22.05 L-20.1 -22.5 -20.05 -22.1 -20.95 -19.5 -20.95 -19.45 -20.05 -19.35 Q-18.65 -19.25 -17.45 -18.05 L-17.2 -18.75 -16.05 -21.2 -16.1 -21.25 -15.9 -21.45 -16.35 -21.4 M-21.95 -12.65 L-20.85 -11.8 Q-19.1 -11.95 -18.2 -12.5 -17.7 -13.1 -17.55 -13.65 L-18.15 -13.75 Q-18.35 -13.85 -18.2 -14.6 L-18.1 -15.8 Q-18.8 -16.9 -20.15 -17.15 -22.95 -17.8 -22.9 -14.2 -23.0 -13.55 -21.95 -12.65 M-22.15 -8.25 L-22.1 -8.25 -18.7 -7.35 -18.75 -8.25 Q-18.8 -9.35 -18.5 -9.85 L-19.7 -9.7 -22.0 -10.05 -22.05 -8.55 -22.35 -8.35 -22.15 -8.25 M-27.8 -2.05 L-27.7 -2.0 -27.55 -1.95 Q-26.1 -1.4 -22.95 0.25 L-23.0 -0.3 Q-23.05 -1.95 -22.35 -3.2 -21.45 -5.55 -19.4 -5.45 L-20.8 -5.85 Q-24.7 -6.9 -26.55 -7.8 L-26.7 -7.5 Q-27.45 -6.1 -27.6 -4.45 -27.9 -3.65 -27.85 -2.1 L-27.85 -2.05 -27.8 -2.05 M-1.6 -12.7 Q-0.45 -11.65 -0.25 -9.4 -0.35 -5.85 -4.85 -5.95 -8.1 -6.05 -8.6 -7.4 L-8.6 -9.0 Q-8.65 -13.6 -4.4 -13.75 -2.8 -13.85 -1.6 -12.7 M-11.7 -16.3 Q-10.9 -17.35 -9.65 -17.8 -11.05 -18.2 -12.5 -19.25 L-13.75 -20.35 -15.15 -17.5 -15.35 -17.15 -15.5 -16.7 -15.8 -15.55 Q-15.45 -14.75 -15.45 -13.65 -15.65 -12.65 -16.6 -11.2 L-16.75 -11.1 -16.65 -11.0 -16.6 -10.65 -16.5 -10.35 -16.45 -9.6 -16.75 -8.25 -16.8 -8.1 -17.35 -7.3 -17.7 -7.15 -16.45 -6.9 -12.65 -5.65 -13.9 -7.6 Q-14.3 -8.55 -14.05 -9.3 L-14.0 -9.95 -13.9 -11.15 Q-13.7 -12.75 -13.05 -14.05 L-12.75 -14.75 -12.65 -14.95 -11.7 -16.3 M-19.35 -5.2 L-19.3 -4.25 Q-20.75 -0.8 -21.5 0.7 L-21.65 0.8 -13.25 2.35 Q-13.35 0.15 -13.1 -0.5 -12.7 -2.3 -11.4 -2.75 L-19.4 -5.45 -19.35 -5.2 M-3.25 -11.65 Q-4.75 -13.3 -6.2 -10.95 -6.8 -9.35 -6.7 -8.25 L-6.25 -8.1 -4.95 -7.95 Q-3.4 -8.05 -2.55 -8.8 L-2.1 -9.45 Q-2.6 -10.85 -3.25 -11.65 M-9.95 -2.1 L-11.35 2.7 -1.15 4.0 -1.6 2.9 Q-2.25 1.45 -2.15 0.75 L-2.15 0.5 -6.45 -0.75 -10.0 -2.2 -9.95 -2.1 M-1.55 6.6 L-1.7 6.6 -1.75 6.55 -12.0 4.55 -22.7 2.65 -26.05 1.1 Q-27.6 0.2 -28.5 -0.2 L-29.3 3.9 -29.3 4.0 -29.3 4.05 -29.35 4.2 -29.8 5.75 -30.15 6.8 Q-30.1 6.75 -30.0 6.85 L-29.7 6.75 -29.6 6.9 Q-27.4 5.9 -23.65 6.25 -17.0 6.15 -9.05 10.8 L-8.55 11.05 Q-7.05 11.85 -4.7 13.25 L-3.8 13.8 Q-1.35 15.1 0.05 15.3 1.8 15.1 3.5 13.8 L4.15 13.2 Q4.15 13.05 4.25 13.15 L5.15 12.2 Q5.2 11.8 5.35 11.8 L6.1 10.05 6.1 9.9 6.05 7.6 6.0 7.2 6.0 6.75 -1.55 6.6 M-14.65 10.5 Q-19.05 8.55 -22.65 8.4 L-22.6 24.05 -22.55 24.7 -22.55 27.15 -17.5 27.15 Q-16.05 26.95 -15.55 25.25 L-15.45 23.95 -15.4 23.4 Q-15.45 22.55 -15.15 22.05 L-15.1 12.05 -14.65 10.5 M-13.3 23.55 L-6.65 23.9 Q-6.9 22.7 -6.8 21.15 L-6.7 17.1 Q-6.7 15.75 -6.15 14.95 L-9.8 12.9 Q-11.4 11.95 -12.85 11.35 L-13.25 12.95 -13.3 23.55 M-4.9 17.65 L-4.9 23.65 -1.45 24.1 0.4 24.2 0.2 23.2 Q0.1 22.6 0.15 20.85 -0.2 19.05 0.0 17.85 L0.15 17.35 Q-1.25 17.3 -4.6 15.7 L-4.9 17.65 M-29.6 9.2 L-29.85 13.3 -30.6 21.75 -30.6 25.25 -31.0 25.45 -31.05 26.85 -31.25 29.7 -30.55 29.75 -28.15 29.65 -25.75 29.1 Q-24.8 28.0 -24.75 26.2 L-24.7 24.55 -24.45 24.65 -24.35 8.3 Q-28.45 8.1 -29.55 9.1 -29.6 8.85 -29.6 9.2 M-19.4 29.55 L-21.0 29.55 -22.75 29.25 Q-23.0 30.2 -25.35 31.3 L-28.95 32.15 -28.9 32.3 -28.9 32.45 -28.7 33.15 -28.2 35.3 -18.6 35.4 -18.2 35.4 Q-7.95 32.9 -0.65 28.95 1.45 27.5 4.85 25.4 L2.4 25.4 1.95 26.2 -0.85 26.45 -5.8 25.75 -13.25 26.25 -14.0 27.7 -14.05 27.75 Q-15.1 28.7 -16.7 29.25 L-17.1 29.35 -18.35 29.5 -19.4 29.55 M-4.25 41.15 L-6.95 46.9 -10.15 52.3 -9.2 54.4 Q-8.45 56.35 -6.05 58.45 -5.85 55.7 -2.95 54.0 -0.5 52.0 1.15 54.75 1.5 53.3 2.35 51.25 4.3 45.3 5.05 44.0 L7.5 37.85 Q8.7 34.15 10.7 31.55 L10.6 26.8 Q4.95 28.6 1.1 34.35 L0.6 34.0 -0.65 35.6 Q-1.95 36.65 -2.6 38.15 L-4.25 41.15 M-3.3 58.3 L-4.1 60.1 Q-2.2 61.45 0.4 62.65 L0.4 57.3 Q0.05 57.15 0.05 56.8 -0.25 55.95 -0.6 56.05 -2.1 55.95 -3.3 58.3 M22.95 2.6 Q20.65 2.85 19.25 4.6 18.75 4.8 18.4 5.6 L18.35 6.3 Q18.2 6.75 17.85 6.9 17.45 7.55 17.5 8.7 17.4 10.35 18.9 12.05 20.7 14.0 24.55 14.2 26.25 14.15 27.55 11.05 L28.4 7.05 Q28.35 4.35 26.8 3.4 25.1 2.15 22.95 2.6 M17.9 3.1 Q16.3 2.8 15.0 2.0 L13.7 0.8 11.0 1.5 11.9 2.5 Q12.95 2.85 15.75 4.1 L16.85 4.6 Q17.2 3.6 17.9 3.1 M5.65 1.45 L0.2 0.95 0.2 2.05 0.0 4.1 5.25 4.65 5.35 4.0 5.6 2.45 Q5.5 1.8 5.65 1.45 M8.05 10.8 L7.15 13.15 Q7.8 14.55 8.2 16.9 8.55 20.25 9.35 21.75 12.0 19.1 12.15 17.35 L11.85 16.85 Q10.85 15.85 8.9 12.35 L8.05 10.8 M1.95 17.75 L1.9 23.35 7.75 23.55 Q7.75 23.35 7.9 23.45 7.2 22.0 6.6 19.4 L5.8 15.15 Q4.5 16.4 2.85 17.0 L2.55 17.4 1.95 17.75" fill="#000000" fill-rule="evenodd" stroke="none"/>
      <path d="M4.7 -52.45 L8.7 -49.9 12.05 -46.55 Q13.65 -44.95 14.4 -43.15 15.15 -41.45 16.95 -34.0 17.45 -31.4 18.05 -29.85 L16.15 -31.8 12.2 -35.35 12.15 -37.55 Q11.15 -40.5 8.2 -43.7 5.15 -46.9 1.85 -48.6 -5.75 -52.65 -13.45 -50.3 -16.5 -49.6 -18.5 -48.05 L-19.8 -47.0 -20.95 -46.6 Q-22.5 -45.8 -25.5 -39.8 -26.35 -38.6 -26.15 -35.8 L-26.1 -31.5 Q-26.55 -26.3 -27.75 -22.15 -28.95 -18.95 -28.95 -14.6 -29.05 -10.35 -28.35 -9.3 L-28.25 -9.1 Q-29.35 -8.2 -29.85 -5.75 L-30.15 -4.35 Q-32.95 -8.25 -33.6 -11.0 -34.25 -13.85 -33.8 -19.5 -33.3 -27.05 -29.65 -39.75 -28.55 -44.05 -24.4 -47.9 -16.6 -55.6 -2.15 -55.1 0.15 -55.1 4.7 -52.45 M12.35 -25.15 L12.5 -27.6 Q12.4 -30.45 9.35 -33.75 4.95 -38.4 -1.6 -36.95 L-3.1 -36.2 -4.35 -37.05 -5.6 -39.25 -6.15 -39.75 -6.2 -39.75 -5.6 -40.3 -4.15 -42.05 Q0.3 -40.2 3.5 -38.3 10.4 -34.6 14.55 -30.2 L16.6 -27.7 Q17.0 -27.1 17.9 -26.4 L16.55 -24.6 Q15.8 -23.6 15.55 -22.8 L14.15 -23.6 12.35 -25.15 M-4.95 -35.0 Q-6.85 -33.8 -7.2 -32.35 L-7.45 -31.2 -7.7 -31.5 Q-8.35 -32.4 -9.0 -32.5 L-9.3 -33.5 -9.3 -33.55 -9.2 -33.65 Q-8.2 -35.15 -8.05 -36.05 L-8.2 -37.35 -7.35 -38.4 -6.4 -36.85 -5.0 -35.1 -4.95 -35.0 M-7.65 -28.05 L-7.55 -27.4 Q-7.7 -26.5 -7.45 -25.55 L-8.05 -26.0 Q-10.05 -27.65 -11.5 -27.6 L-10.35 -29.2 -9.75 -30.0 -8.5 -28.7 -7.65 -28.05 M14.95 -20.95 L14.4 -20.2 13.3 -18.05 Q11.4 -19.35 9.2 -19.6 L9.15 -19.65 10.7 -20.8 11.85 -21.85 12.15 -23.25 14.95 -20.95 M12.05 -16.45 L11.5 -15.75 Q9.3 -17.65 7.35 -17.95 L8.1 -18.3 10.15 -17.35 12.05 -16.45 M14.6 -16.55 L14.8 -16.8 14.8 -16.6 14.75 -16.55 14.6 -16.55 M21.0 -12.65 L22.25 -13.45 22.25 -13.4 Q24.25 -12.05 26.1 -11.15 L24.55 -9.75 21.0 -12.65 M23.5 -15.15 L23.85 -16.4 23.65 -17.85 24.3 -17.8 Q24.4 -18.05 24.65 -18.1 L26.65 -13.25 23.5 -15.15 M22.9 -8.2 L20.75 -6.6 20.65 -6.5 20.55 -6.65 Q18.55 -8.2 17.7 -9.35 L17.2 -9.7 17.0 -9.6 18.0 -10.6 18.8 -11.5 20.4 -10.25 22.9 -8.2 M19.3 -5.5 L16.15 -3.1 Q15.3 -3.7 14.4 -4.45 L15.55 -5.5 Q16.4 -6.8 16.55 -7.65 L18.4 -6.2 19.3 -5.5 M14.05 -1.9 Q11.6 -0.85 10.2 -0.5 L12.8 -2.75 14.05 -1.9 M7.1 -8.25 L6.1 -6.8 4.8 -5.9 5.2 -8.6 5.1 -10.1 5.55 -9.8 7.2 -8.35 7.1 -8.25 M4.85 -1.0 L4.85 -0.85 4.55 -0.85 4.85 -1.0 M3.0 -3.3 L3.05 -3.15 Q1.45 -2.65 1.6 -1.3 L-0.75 -1.75 -2.55 -2.05 Q1.0 -2.25 3.0 -3.3 M-9.45 -39.85 L-9.15 -39.55 -9.2 -39.45 -9.45 -39.85 M-18.5 -44.95 Q-16.1 -45.9 -11.95 -45.1 L-13.3 -44.0 Q-14.4 -43.2 -14.6 -42.35 -17.15 -43.2 -18.0 -44.0 L-18.5 -44.95 M-23.6 -38.5 L-22.6 -40.9 -21.8 -40.35 -20.25 -38.45 -17.3 -35.8 -17.3 -35.75 -17.1 -34.25 -17.85 -33.35 -18.05 -33.55 Q-19.35 -34.85 -20.0 -35.0 -21.4 -35.6 -22.05 -36.9 -22.8 -38.5 -23.2 -38.55 L-23.6 -38.5 M-18.65 -31.25 L-18.65 -31.1 -18.65 -30.95 Q-19.5 -30.75 -20.05 -30.1 -20.85 -29.55 -21.1 -28.2 L-22.6 -29.65 -24.2 -31.0 -24.2 -34.3 Q-24.35 -35.55 -24.15 -36.25 -24.15 -35.75 -23.8 -35.35 -23.55 -34.8 -21.85 -33.8 L-19.35 -31.75 -18.65 -31.25 M-21.45 -26.0 L-21.45 -25.5 Q-21.6 -24.05 -21.25 -23.2 L-22.0 -22.15 -22.85 -22.65 -24.95 -24.35 -25.05 -24.55 -25.25 -23.9 -24.35 -29.4 -24.3 -28.6 -22.55 -27.05 -21.45 -26.0 M-23.25 -20.1 L-23.3 -19.2 Q-23.45 -18.9 -23.2 -18.45 L-23.3 -18.45 Q-24.05 -17.9 -24.25 -16.85 L-25.35 -17.65 -26.8 -18.5 Q-26.55 -20.25 -25.9 -21.6 L-25.65 -22.4 -25.1 -21.65 Q-24.25 -20.8 -23.25 -20.1 M-24.7 -14.05 L-24.7 -13.85 Q-24.9 -12.25 -24.5 -11.45 L-23.9 -11.1 -23.75 -10.15 Q-24.0 -9.35 -23.75 -8.9 L-23.65 -8.75 Q-25.8 -9.65 -26.45 -10.3 -27.2 -11.1 -27.15 -12.2 L-27.1 -14.6 -27.0 -16.0 -25.3 -14.6 -24.7 -14.05 M-12.25 -25.3 L-12.25 -25.5 -12.2 -25.5 -12.25 -25.3 M-16.35 -21.4 L-15.9 -21.45 -16.1 -21.25 -16.35 -21.4 M-22.05 -8.55 L-22.15 -8.25 -22.35 -8.35 -22.05 -8.55 M-15.35 -17.15 L-15.15 -17.5 -13.75 -20.35 -12.5 -19.25 Q-11.05 -18.2 -9.65 -17.8 -10.9 -17.35 -11.7 -16.3 -14.1 -17.65 -15.35 -17.15 M-13.05 -14.05 Q-13.7 -12.75 -13.9 -11.15 L-14.0 -9.95 -16.5 -10.35 -16.6 -10.65 -16.65 -11.0 -16.75 -11.1 -16.6 -11.2 Q-15.65 -12.65 -15.45 -13.65 -15.45 -14.75 -15.8 -15.55 L-15.5 -16.7 -15.5 -16.05 Q-15.3 -16.05 -13.05 -14.05 M-13.9 -7.6 L-12.65 -5.65 -16.45 -6.9 -17.7 -7.15 -17.35 -7.3 -16.8 -8.1 Q-15.7 -8.35 -13.9 -7.6 M-1.55 6.6 L6.0 6.75 6.0 7.2 6.05 7.6 4.9 7.45 -1.55 6.6 M6.1 10.05 L5.35 11.8 -2.7 11.3 -8.55 11.05 -9.05 10.8 Q-17.0 6.15 -23.65 6.25 -27.4 5.9 -29.6 6.9 L-29.7 6.75 -30.0 6.85 Q-30.1 6.75 -30.15 6.8 L-29.8 5.75 -19.7 6.4 -13.75 7.0 -7.85 7.95 6.1 10.05 M3.5 13.8 Q1.8 15.1 0.05 15.3 -1.35 15.1 -3.8 13.8 L-4.7 13.25 -3.2 13.35 3.5 13.8 M-29.3 3.9 L-28.5 -0.2 Q-27.6 0.2 -26.05 1.1 L-22.7 2.65 -12.0 4.55 -1.75 6.55 -8.15 5.85 Q-19.75 4.0 -29.3 3.9" fill="#333333" fill-rule="evenodd" stroke="none"/>
      <path d="M12.35 -25.15 L14.15 -23.6 15.55 -22.8 Q15.2 -22.25 15.3 -22.0 L15.3 -21.4 14.95 -20.95 12.15 -23.25 12.35 -25.15 M-6.2 -39.75 L-6.15 -39.75 -5.6 -39.25 -4.35 -37.05 -3.1 -36.2 -3.5 -36.05 -4.95 -35.0 -5.0 -35.1 -6.4 -36.85 -7.35 -38.4 -6.45 -39.35 -6.25 -39.75 -6.2 -39.75 M-7.45 -31.2 L-7.65 -28.05 -8.5 -28.7 -9.75 -30.0 -9.0 -32.3 -9.0 -32.5 Q-8.35 -32.4 -7.7 -31.5 L-7.45 -31.2 M13.3 -18.05 L12.95 -17.65 12.05 -16.45 10.15 -17.35 8.1 -18.3 9.1 -19.55 9.15 -19.65 9.2 -19.6 Q11.4 -19.35 13.3 -18.05 M18.8 -11.5 L19.2 -11.85 19.65 -12.3 19.75 -12.4 19.8 -12.4 21.0 -12.65 24.55 -9.75 22.9 -8.2 20.4 -10.25 18.8 -11.5 M22.25 -13.45 L22.7 -14.0 23.5 -15.15 26.65 -13.25 27.0 -12.05 26.1 -11.15 Q24.25 -12.05 22.25 -13.4 L22.25 -13.45 M20.65 -6.5 L19.3 -5.5 18.4 -6.2 16.55 -7.65 16.55 -7.8 16.55 -9.0 16.65 -9.1 16.85 -9.4 17.0 -9.6 17.2 -9.7 17.7 -9.35 Q18.55 -8.2 20.55 -6.65 L20.65 -6.5 M16.15 -3.1 Q14.95 -2.55 14.05 -1.9 L12.8 -2.75 14.25 -4.35 14.4 -4.45 Q15.3 -3.7 16.15 -3.1 M-18.5 -44.95 L-18.0 -44.0 Q-17.15 -43.2 -14.6 -42.35 -14.9 -42.05 -14.8 -41.5 -15.45 -41.4 -15.8 -40.9 L-16.0 -40.7 Q-17.55 -41.4 -18.9 -42.5 L-20.25 -43.95 Q-19.6 -44.65 -18.5 -44.95 M-23.6 -38.5 L-23.2 -38.55 Q-22.8 -38.5 -22.05 -36.9 -21.4 -35.6 -20.0 -35.0 -19.35 -34.85 -18.05 -33.55 L-17.85 -33.35 -17.95 -33.25 Q-18.65 -32.2 -18.65 -31.25 L-19.35 -31.75 -21.85 -33.8 Q-23.55 -34.8 -23.8 -35.35 -24.15 -35.75 -24.15 -36.25 -24.1 -37.4 -23.7 -38.2 L-23.6 -38.5 M-21.1 -28.2 L-21.45 -26.0 -22.55 -27.05 -24.3 -28.6 -24.35 -29.4 -24.3 -29.5 -24.15 -30.25 -24.15 -30.45 -24.2 -31.0 -22.6 -29.65 -21.1 -28.2 M-22.0 -22.15 L-22.6 -21.35 -23.15 -20.35 -23.25 -20.1 Q-24.25 -20.8 -25.1 -21.65 L-25.65 -22.4 -25.65 -22.45 -25.6 -22.65 -25.55 -22.75 -25.5 -22.9 -25.45 -23.15 -25.4 -23.3 -25.35 -23.4 -25.25 -23.9 -25.05 -24.55 -24.95 -24.35 -22.85 -22.65 -22.0 -22.15 M-24.25 -16.85 Q-24.8 -15.85 -24.7 -14.05 L-25.3 -14.6 -27.0 -16.0 -26.95 -16.25 -26.9 -16.85 -26.9 -17.65 -26.8 -18.5 -25.35 -17.65 -24.25 -16.85 M-15.35 -17.15 Q-14.1 -17.65 -11.7 -16.3 L-12.65 -14.95 -12.75 -14.75 -13.05 -14.05 Q-15.3 -16.05 -15.5 -16.05 L-15.5 -16.7 -15.35 -17.15 M-14.0 -9.95 L-14.05 -9.3 Q-14.3 -8.55 -13.9 -7.6 -15.7 -8.35 -16.8 -8.1 L-16.75 -8.25 -16.45 -9.6 -16.5 -10.35 -14.0 -9.95 M-1.75 6.55 L-1.7 6.6 -1.55 6.6 4.9 7.45 6.05 7.6 6.1 9.9 6.1 10.05 -7.85 7.95 -13.75 7.0 -19.7 6.4 -29.8 5.75 -29.35 4.2 -29.3 4.05 -29.3 4.0 -29.3 3.9 Q-19.75 4.0 -8.15 5.85 L-1.75 6.55 M5.35 11.8 Q5.2 11.8 5.15 12.2 L4.25 13.15 Q4.15 13.05 4.15 13.2 L3.5 13.8 -3.2 13.35 -4.7 13.25 Q-7.05 11.85 -8.55 11.05 L-2.7 11.3 5.35 11.8" fill="#1a1a1a" fill-rule="evenodd" stroke="none"/>
      <path d="M19.25 -22.1 L17.35 -21.9 18.75 -23.5 19.75 -25.05 22.15 -22.9 23.35 -20.7 23.6 -20.4 23.3 -19.9 23.05 -19.2 22.45 -20.2 Q21.0 -21.75 19.25 -22.1 M14.6 -16.55 L14.75 -16.55 Q14.65 -15.0 15.05 -14.25 L16.9 -13.15 Q17.1 -13.0 17.6 -12.8 17.05 -12.5 16.65 -11.85 L15.7 -10.85 15.15 -11.65 Q13.95 -13.1 12.45 -13.45 L12.6 -13.75 12.65 -13.8 12.7 -13.8 14.6 -16.55 M4.2 -13.05 L3.95 -13.65 Q3.8 -13.8 3.8 -13.9 L5.15 -15.35 5.8 -16.4 8.25 -15.05 10.45 -14.05 10.0 -13.35 Q9.35 -13.15 8.9 -12.55 8.0 -11.9 7.8 -10.5 L6.45 -11.85 Q5.1 -12.95 4.2 -13.05 M9.4 -2.35 Q8.5 -3.85 5.8 -3.7 L7.05 -4.85 7.75 -5.7 9.55 -4.6 11.2 -4.0 10.3 -3.15 9.4 -2.35 M-9.45 -39.85 Q-10.65 -41.35 -12.1 -41.7 L-10.2 -43.75 -9.55 -44.4 -6.05 -42.85 -7.55 -41.3 Q-8.65 -40.45 -9.15 -39.55 L-9.45 -39.85 M-12.2 -32.15 L-11.25 -32.2 -12.0 -31.15 Q-12.9 -29.7 -13.2 -28.55 L-13.65 -29.1 Q-15.0 -30.6 -16.45 -30.9 L-15.75 -32.15 -15.25 -32.95 -15.2 -32.85 Q-14.2 -32.3 -12.2 -32.15 M-12.25 -25.3 L-12.2 -25.5 Q-10.1 -25.75 -8.6 -23.9 -7.5 -22.75 -6.35 -22.15 -7.1 -21.95 -7.35 -21.5 -7.7 -21.3 -7.65 -19.45 -8.3 -19.85 -8.95 -20.05 -11.0 -20.9 -11.35 -21.2 -12.05 -22.0 -13.1 -22.05 -13.3 -22.75 -13.45 -22.85 L-13.3 -22.9 Q-12.35 -24.2 -12.25 -25.3 M-16.05 -21.2 L-17.2 -18.75 -17.45 -18.05 Q-18.65 -19.25 -20.05 -19.35 L-20.95 -19.45 -20.95 -19.5 -20.05 -22.1 -20.1 -22.5 -19.25 -22.05 Q-18.4 -21.6 -16.35 -21.4 L-16.05 -21.2 M-22.1 -8.25 L-22.05 -8.55 -22.0 -10.05 -19.7 -9.7 -18.5 -9.85 Q-18.8 -9.35 -18.75 -8.25 L-18.7 -7.35 -22.1 -8.25" fill="#70551d" fill-rule="evenodd" stroke="none"/>
      <path d="M27.3 -8.6 L27.35 -8.65 27.5 -8.35 27.3 -8.6" fill="#14100c" fill-rule="evenodd" stroke="none"/>
      <path d="M-16.05 -21.2 L-16.35 -21.4 -16.1 -21.25 -16.05 -21.2 M-22.1 -8.25 L-22.15 -8.25 -22.05 -8.55 -22.1 -8.25" fill="#cc9d3c" fill-rule="evenodd" stroke="none"/>
      <path d="M22.95 2.6 Q25.1 2.15 26.8 3.4 28.35 4.35 28.4 7.05 L27.55 11.05 Q26.25 14.15 24.55 14.2 20.7 14.0 18.9 12.05 17.4 10.35 17.5 8.7 17.45 7.55 17.85 6.9 18.2 6.75 18.35 6.3 L18.4 5.6 Q18.75 4.8 19.25 4.6 20.65 2.85 22.95 2.6" fill="#aa8a71" fill-rule="evenodd" stroke="none"/>
      <path d="M10.6 -36.75 L10.5 -36.65 Q7.3 -38.95 3.35 -40.45 L-3.65 -44.55 Q-6.3 -46.05 -8.95 -46.35 L-9.3 -46.85 -9.9 -47.05 -10.4 -46.55 -10.85 -46.6 -11.0 -46.75 -11.25 -46.95 -15.7 -47.2 -16.55 -47.25 -16.55 -47.3 Q-12.95 -49.55 -8.5 -49.35 0.75 -49.15 6.8 -42.4 9.15 -39.75 10.6 -36.75 M16.05 0.05 L15.95 -0.15 20.95 -3.1 21.15 -2.35 Q21.05 -0.9 21.25 -0.3 L21.5 0.8 Q20.55 1.0 19.85 1.5 L16.05 0.05 M27.3 -8.6 L27.5 -8.35 Q27.4 -6.25 28.85 -1.55 L30.3 3.1 Q30.1 3.65 29.5 3.65 L29.45 3.65 Q28.8 2.45 28.0 1.8 25.85 0.05 22.95 0.5 L23.0 -4.75 27.3 -8.6 M-14.65 10.5 L-15.1 12.05 -15.15 22.05 Q-15.45 22.55 -15.4 23.4 L-15.45 23.95 -15.55 25.25 Q-16.05 26.95 -17.5 27.15 L-22.55 27.15 -22.55 24.7 -22.6 24.05 -22.65 8.4 Q-19.05 8.55 -14.65 10.5 M-13.3 23.55 L-13.25 12.95 -12.85 11.35 Q-11.4 11.95 -9.8 12.9 L-6.15 14.95 Q-6.7 15.75 -6.7 17.1 L-6.8 21.15 Q-6.9 22.7 -6.65 23.9 L-13.3 23.55 M-29.6 9.2 Q-29.6 8.85 -29.55 9.1 -28.45 8.1 -24.35 8.3 L-24.45 24.65 -24.7 24.55 -24.75 26.2 Q-24.8 28.0 -25.75 29.1 L-28.15 29.65 -30.55 29.75 -31.25 29.7 -31.05 26.85 -31.0 25.45 -30.6 25.25 -30.6 21.75 -29.85 13.3 -29.6 9.2 M-4.9 17.65 L-4.6 15.7 Q-1.25 17.3 0.15 17.35 L0.0 17.85 Q-0.2 19.05 0.15 20.85 0.1 22.6 0.2 23.2 L0.4 24.2 -1.45 24.1 -4.9 23.65 -4.9 17.65 M8.05 10.8 L8.9 12.35 Q10.85 15.85 11.85 16.85 L12.15 17.35 Q12.0 19.1 9.35 21.75 8.55 20.25 8.2 16.9 7.8 14.55 7.15 13.15 L8.05 10.8 M1.95 17.75 L2.55 17.4 2.85 17.0 Q4.5 16.4 5.8 15.15 L6.6 19.4 Q7.2 22.0 7.9 23.45 7.75 23.35 7.75 23.55 L1.9 23.35 1.95 17.75" fill="#221c15" fill-rule="evenodd" stroke="none"/>
      <path d="M-18.6 35.4 L-28.2 35.3 -28.7 33.15 -28.9 32.45 -28.9 32.3 -28.95 32.15 -25.35 31.3 Q-23.0 30.2 -22.75 29.25 L-21.0 29.55 -19.4 29.55 -19.4 30.0 Q-19.55 31.0 -18.7 34.75 -18.85 34.9 -18.6 35.4 M17.9 3.1 Q17.2 3.6 16.85 4.6 L15.75 4.1 Q12.95 2.85 11.9 2.5 L11.0 1.5 13.7 0.8 15.0 2.0 Q16.3 2.8 17.9 3.1" fill="#942403" fill-rule="evenodd" stroke="none"/>
      <path d="M-18.6 35.4 Q-18.85 34.9 -18.7 34.75 -19.55 31.0 -19.4 30.0 L-19.4 29.55 -18.35 29.5 -17.1 29.35 -16.7 29.25 Q-15.35 28.85 -14.45 28.25 L-14.05 27.75 -14.0 27.7 -13.25 26.25 -5.8 25.75 -0.85 26.45 1.95 26.2 2.4 25.4 4.85 25.4 Q1.45 27.5 -0.65 28.95 -7.95 32.9 -18.2 35.4 L-18.6 35.4" fill="#731c02" fill-rule="evenodd" stroke="none"/>
    </g>
    <g id="shape1" transform="matrix(1.0, 0.0, 0.0, 1.0, 43.15, 54.95)">
      <path d="M9.45 -54.85 Q18.9 -54.85 32.65 -48.7 43.85 -43.7 47.2 -39.6 L48.0 -39.9 Q48.1 -38.7 48.8 -37.65 L47.2 -36.1 Q45.25 -34.4 43.1 -33.35 L37.75 -28.85 30.0 -23.0 29.25 -23.1 Q29.1 -23.15 29.05 -23.5 27.6 -23.7 25.15 -26.2 23.0 -28.4 21.4 -29.25 21.05 -28.4 19.7 -26.85 L18.45 -25.5 Q24.6 -22.6 28.2 -18.05 L32.0 -19.5 33.0 -18.5 32.65 -18.35 Q34.6 -17.05 35.8 -11.8 37.0 -6.65 37.0 -1.55 L36.85 2.05 Q36.3 4.4 34.0 5.0 L33.45 4.9 30.55 4.9 Q31.0 6.45 31.15 8.35 L31.2 13.75 31.5 16.6 Q31.65 19.0 31.2 20.7 29.8 25.9 22.2 25.9 L19.15 25.7 Q17.15 27.9 10.45 27.9 1.05 27.9 -0.3 25.65 L-0.6 24.9 -0.8 24.9 Q-3.15 24.9 -4.9 23.7 -4.9 24.05 -5.35 24.3 -7.45 25.4 -23.3 25.4 -32.0 25.4 -34.0 23.8 -34.65 23.3 -34.55 22.65 L-34.3 22.05 Q-34.3 20.75 -30.0 18.15 -25.45 15.4 -22.55 15.4 L-22.1 15.4 -22.25 15.1 -22.3 13.9 Q-22.55 8.05 -22.4 5.05 L-22.05 2.05 -23.15 2.15 -25.5 2.5 Q-25.5 9.7 -26.0 11.05 -27.0 13.95 -31.05 14.4 L-32.45 15.15 -38.9 18.25 -40.0 17.75 -40.1 17.25 Q-40.5 16.9 -41.15 15.2 L-41.05 15.2 Q-42.15 13.6 -42.7 8.05 -43.1 4.1 -43.15 -0.2 L-42.8 -4.3 Q-42.4 -8.1 -42.35 -9.9 L-41.75 -14.95 Q-41.25 -17.8 -41.25 -18.9 L-39.75 -22.8 Q-38.25 -26.4 -38.25 -26.7 -38.25 -27.6 -33.45 -33.85 -28.7 -40.1 -27.6 -40.75 -9.05 -51.45 -0.75 -53.95 2.4 -54.85 5.05 -54.95 L9.45 -54.85 M2.15 -51.9 L1.35 -52.0 Q-1.9 -52.0 -3.15 -50.3 L-4.45 -50.25 Q-5.5 -50.25 -11.75 -46.85 L-18.25 -43.3 -24.5 -39.55 -29.75 -35.6 Q-34.55 -29.1 -37.4 -22.85 -40.2 -16.65 -40.8 -9.4 -41.0 -7.2 -41.0 2.5 L-40.15 8.7 -39.2 13.85 -38.95 14.85 -39.05 15.5 -39.3 15.7 -39.25 15.75 Q-37.65 14.35 -32.75 12.4 L-32.75 12.25 -32.5 12.25 -32.4 12.25 -29.05 11.0 Q-27.9 9.7 -27.85 7.15 L-27.85 3.05 -27.65 2.0 Q-28.0 1.5 -28.0 0.65 -28.0 -11.0 -21.1 -20.45 -11.85 -33.2 6.5 -34.25 L14.5 -34.5 Q19.3 -34.4 22.0 -31.1 24.3 -30.65 26.25 -29.0 L29.75 -25.45 Q31.2 -27.35 35.6 -30.75 L41.8 -35.25 41.0 -35.6 41.1 -35.6 42.45 -35.65 43.55 -36.8 45.6 -38.6 Q40.85 -41.85 34.75 -45.05 20.4 -52.7 11.05 -52.7 L5.75 -52.5 Q3.75 -52.6 2.15 -51.9 M-21.8 -0.75 L-21.8 -0.85 Q-21.8 -3.7 -20.2 -8.2 -18.1 -14.05 -14.45 -18.45 -3.85 -31.1 15.25 -26.85 L16.7 -26.3 17.75 -28.1 19.55 -30.3 18.3 -31.1 Q16.95 -32.25 11.4 -32.25 -5.95 -32.25 -15.05 -25.1 -18.85 -22.1 -21.5 -16.6 L-21.8 -15.9 Q-22.8 -14.4 -23.95 -11.5 -26.0 -6.15 -26.0 -3.5 L-25.9 -2.9 -26.5 -2.1 -26.0 -1.8 -26.0 -1.6 Q-25.95 -1.0 -25.7 -0.8 L-25.05 -0.5 -25.3 0.05 -21.8 -0.05 -21.7 -0.05 -21.8 -0.75 M26.5 -17.7 Q20.25 -25.35 7.85 -25.35 L3.8 -25.15 -1.55 -24.3 Q-8.45 -22.6 -12.65 -18.05 L-13.4 -17.2 -13.8 -16.65 -13.85 -16.6 Q-14.95 -15.2 -15.85 -13.45 L-15.9 -13.4 Q-17.8 -9.75 -18.85 -4.8 L-19.6 -0.2 -19.45 0.4 -19.45 0.45 -19.4 0.85 -19.35 1.25 -19.3 4.65 -19.3 4.7 -19.3 4.8 -19.3 4.85 -19.3 4.95 -19.3 5.1 -19.3 5.15 -19.3 5.35 -19.4 7.0 -19.75 12.15 -19.8 12.85 -19.95 14.9 -19.95 15.25 -20.0 15.45 -20.05 15.7 -20.55 15.9 -20.5 15.95 -20.3 16.4 -26.25 18.75 Q-32.05 21.1 -32.05 22.15 L-32.05 22.25 -32.0 22.8 -31.9 22.95 -31.8 23.15 -27.25 23.15 -14.0 23.15 Q-8.0 23.1 -6.8 14.8 L-6.05 8.2 Q-5.65 5.35 -4.75 4.0 L-5.5 4.0 -6.15 3.75 -6.5 3.35 -6.9 3.0 -7.25 2.6 -7.45 2.25 -7.5 1.85 -7.5 1.1 -7.7 0.75 -8.0 0.35 -8.0 0.0 -8.0 -1.9 -8.0 -3.75 -7.75 -4.1 -7.0 -4.9 -6.65 -5.25 -6.0 -5.4 Q-4.8 -5.55 -4.0 -6.0 L-1.0 -6.0 -0.4 -5.7 -0.05 -5.35 0.05 -5.25 Q3.75 -8.5 13.25 -12.3 L22.15 -15.7 22.5 -15.85 26.6 -17.4 27.75 -17.85 26.5 -17.7 M27.1 -16.05 L24.35 -14.85 Q22.7 -14.15 20.5 -13.05 L15.3 -10.5 Q0.75 -3.0 0.25 -3.0 L-0.95 -3.15 -1.5 -3.6 -1.45 -3.65 -1.65 -3.75 -3.4 -3.75 -4.0 -3.5 -5.75 -2.9 -5.95 -2.5 -6.0 -1.75 -6.0 -0.65 -5.85 -0.25 -5.55 0.5 -5.4 1.25 -5.0 1.45 Q-3.75 1.7 -2.9 2.5 L-1.85 2.45 Q4.35 2.25 29.6 2.85 L30.75 2.9 33.2 3.4 33.7 2.15 33.95 1.5 34.0 1.4 34.45 0.45 34.5 0.25 34.65 -0.1 34.65 -0.2 34.7 -0.3 34.75 -0.4 34.8 -0.5 34.8 -0.6 35.0 -1.45 35.0 -1.9 Q34.9 -5.8 33.0 -11.6 L32.75 -12.4 32.5 -13.2 32.45 -13.2 31.0 -17.35 31.05 -17.7 30.9 -17.6 29.4 -17.0 27.6 -16.25 27.1 -16.05 M28.7 4.9 L28.7 5.3 28.8 4.9 28.7 4.9 M20.7 23.7 Q28.2 23.7 29.2 14.7 L29.35 12.4 Q22.15 12.45 17.05 14.1 L15.65 14.7 19.5 15.15 19.7 21.15 20.0 22.65 20.05 23.25 20.4 23.35 20.7 23.7 M17.8 9.75 L18.7 9.9 Q19.95 9.9 19.75 9.65 L20.05 9.2 20.2 8.15 20.1 7.05 20.0 6.65 18.05 6.55 17.65 6.6 17.2 6.55 17.2 6.65 17.2 9.65 17.25 9.9 17.8 9.75 M9.75 5.4 L9.85 4.7 9.75 4.7 1.1 4.5 0.95 4.95 0.9 5.0 1.2 9.05 1.2 14.25 Q1.2 19.0 1.35 20.35 1.85 24.1 3.75 25.65 L17.7 25.65 17.7 17.4 17.5 16.95 Q11.7 18.55 10.15 14.05 9.7 12.7 9.7 8.0 L9.75 5.4" fill="#000000" fill-rule="evenodd" stroke="none"/>
      <path d="M-21.8 -0.05 L-21.8 -0.75 -21.7 -0.05 -21.8 -0.05 M9.75 5.4 L9.75 4.7 9.85 4.7 9.75 5.4" fill="#c0a430" fill-rule="evenodd" stroke="none"/>
      <path d="M3.8 -25.15 L0.7 -24.7 -1.55 -24.3 3.8 -25.15 M-13.85 -16.6 L-14.95 -14.45 -15.85 -13.45 Q-14.95 -15.2 -13.85 -16.6 M-18.85 -4.8 L-18.05 -5.75 -19.4 -0.35 -19.45 0.4 -19.6 -0.2 -18.85 -4.8 M22.4 -16.0 L22.45 -16.0 22.15 -15.75 22.4 -16.0" fill="#5b6171" fill-rule="evenodd" stroke="none"/>
      <path d="M26.6 -17.4 L26.5 -17.7 27.75 -17.85 26.6 -17.4 M29.6 2.85 L29.45 2.45 30.35 2.75 30.75 2.9 29.6 2.85" fill="#969cab" fill-rule="evenodd" stroke="none"/>
      <path d="M17.65 6.6 L18.05 6.55 20.0 6.65 20.1 7.05 20.2 8.15 20.05 9.2 19.75 9.65 Q19.95 9.9 18.7 9.9 L17.8 9.75 17.2 9.65 17.2 6.65 17.65 6.6" fill="#ffffff" fill-rule="evenodd" stroke="none"/>
      <path d="M-21.8 -0.05 L-25.3 0.05 -25.05 -0.5 -25.7 -0.8 Q-25.95 -1.0 -26.0 -1.6 L-26.0 -1.8 -26.5 -2.1 -25.9 -2.9 -26.0 -3.5 Q-26.0 -6.15 -23.95 -11.5 -22.8 -14.4 -21.8 -15.9 L-21.5 -16.6 Q-18.85 -22.1 -15.05 -25.1 -5.95 -32.25 11.4 -32.25 16.95 -32.25 18.3 -31.1 L19.55 -30.3 17.75 -28.1 16.7 -26.3 15.25 -26.85 Q-3.85 -31.1 -14.45 -18.45 -18.1 -14.05 -20.2 -8.2 -21.8 -3.7 -21.8 -0.85 L-21.8 -0.75 -21.8 -0.05 M-27.25 23.15 Q-22.85 20.65 -22.15 20.5 -17.7 19.5 -16.65 17.75 -16.25 17.15 -16.25 14.7 L-16.3 8.55 -16.25 2.45 Q-15.7 -7.8 -9.9 -14.5 -3.45 -21.95 7.35 -21.95 17.05 -21.95 22.4 -16.0 L22.15 -15.75 22.15 -15.7 13.25 -12.3 Q3.75 -8.5 0.05 -5.25 L-0.05 -5.35 -0.4 -5.7 -1.0 -6.0 -4.0 -6.0 Q-4.8 -5.55 -6.0 -5.4 L-6.65 -5.25 -7.0 -4.9 -7.75 -4.1 -8.0 -3.75 -8.0 -1.9 -8.0 0.0 -8.0 0.35 -7.7 0.75 -7.5 1.1 -7.5 1.85 -7.45 2.25 -7.25 2.6 -6.9 3.0 -6.5 3.35 -6.15 3.75 -5.5 4.0 -4.75 4.0 Q-5.65 5.35 -6.05 8.2 L-6.8 14.8 Q-8.0 23.1 -14.0 23.15 L-27.25 23.15 M29.6 2.85 Q4.35 2.25 -1.85 2.45 L-2.9 2.5 Q-3.75 1.7 -5.0 1.45 L-5.4 1.25 -5.55 0.5 -5.85 -0.25 -6.0 -0.65 -6.0 -1.75 -5.95 -2.5 -5.75 -2.9 -4.0 -3.5 -3.4 -3.75 -1.65 -3.75 -1.45 -3.65 -1.5 -3.6 -0.95 -3.15 0.25 -3.0 Q0.75 -3.0 15.3 -10.5 L20.5 -13.05 Q22.7 -14.15 24.35 -14.85 L27.1 -16.05 27.5 -15.15 Q27.5 -14.5 29.25 -11.15 31.0 -7.75 31.0 -5.4 30.5 -0.35 30.5 2.25 L30.35 2.75 29.45 2.45 29.6 2.85 M9.75 4.7 L9.75 5.4 9.7 8.0 Q9.7 12.7 10.15 14.05 11.7 18.55 17.5 16.95 L17.7 17.4 17.7 25.65 3.75 25.65 Q1.85 24.1 1.35 20.35 1.2 19.0 1.2 14.25 L1.2 9.05 0.9 5.0 0.95 4.95 1.1 4.5 9.75 4.7" fill="#333333" fill-rule="evenodd" stroke="none"/>
      <path d="M3.8 -25.15 L7.85 -25.35 Q20.25 -25.35 26.5 -17.7 L26.6 -17.4 22.5 -15.85 22.45 -16.0 22.4 -16.0 Q17.05 -21.95 7.35 -21.95 -3.45 -21.95 -9.9 -14.5 -15.7 -7.8 -16.25 2.45 L-16.3 8.55 -16.25 14.7 Q-16.25 17.15 -16.65 17.75 -17.7 19.5 -22.15 20.5 -22.85 20.65 -27.25 23.15 L-31.8 23.15 -31.9 22.95 -32.0 22.8 -32.05 22.25 -32.05 22.15 Q-32.05 21.1 -26.25 18.75 L-20.3 16.4 -20.5 15.95 -20.55 15.9 -20.05 15.7 -20.0 15.45 -19.95 15.25 -19.95 14.9 -19.8 12.85 -19.75 12.15 -19.4 7.0 -19.3 5.35 -19.3 5.15 -19.3 5.1 -19.3 4.95 -19.3 4.85 -19.3 4.8 -19.3 4.7 -19.3 4.65 -19.35 1.25 -19.4 0.85 -19.45 0.45 -19.45 0.4 -19.4 -0.35 -18.05 -5.75 -18.85 -4.8 Q-17.8 -9.75 -15.9 -13.4 L-15.85 -13.45 -14.95 -14.45 -13.85 -16.6 -13.8 -16.65 -13.4 -17.2 -12.65 -18.05 Q-8.45 -22.6 -1.55 -24.3 L0.7 -24.7 3.8 -25.15 M30.35 2.75 L30.5 2.25 Q30.5 -0.35 31.0 -5.4 31.0 -7.75 29.25 -11.15 27.5 -14.5 27.5 -15.15 L27.1 -16.05 27.6 -16.25 29.4 -17.0 30.9 -17.6 31.0 -17.35 32.45 -13.2 32.5 -13.2 32.75 -12.4 33.0 -11.6 Q34.9 -5.8 35.0 -1.9 L35.0 -1.45 34.8 -0.6 34.8 -0.5 34.75 -0.4 34.7 -0.3 34.65 -0.2 34.65 -0.1 34.5 0.25 34.45 0.45 34.0 1.4 33.95 1.5 33.7 2.15 33.2 3.4 30.75 2.9 30.35 2.75" fill="#4b4b4b" fill-rule="evenodd" stroke="none"/>
      <path d="M20.7 23.7 L20.4 23.35 20.05 23.25 20.0 22.65 19.7 21.15 19.5 15.15 15.65 14.7 17.05 14.1 Q22.15 12.45 29.35 12.4 L29.2 14.7 Q28.2 23.7 20.7 23.7" fill="#aa8a71" fill-rule="evenodd" stroke="none"/>
      <path d="M2.15 -51.9 Q3.75 -52.6 5.75 -52.5 L11.05 -52.7 Q20.4 -52.7 34.75 -45.05 40.85 -41.85 45.6 -38.6 L43.55 -36.8 42.45 -35.65 41.1 -35.6 41.0 -35.6 41.8 -35.25 35.6 -30.75 Q31.2 -27.35 29.75 -25.45 L26.25 -29.0 Q24.3 -30.65 22.0 -31.1 19.3 -34.4 14.5 -34.5 L6.5 -34.25 Q-11.85 -33.2 -21.1 -20.45 -28.0 -11.0 -28.0 0.65 -28.0 1.5 -27.65 2.0 L-27.85 3.05 -27.85 7.15 Q-27.9 9.7 -29.05 11.0 L-32.4 12.25 -32.5 12.25 -32.75 12.25 -32.75 12.4 Q-37.65 14.35 -39.25 15.75 L-39.3 15.7 -39.05 15.5 -38.95 14.85 -39.2 13.85 -40.15 8.7 -41.0 2.5 Q-41.0 -7.2 -40.8 -9.4 -40.2 -16.65 -37.4 -22.85 -34.55 -29.1 -29.75 -35.6 L-24.5 -39.55 -18.25 -43.3 -11.75 -46.85 Q-5.5 -50.25 -4.45 -50.25 L-3.15 -50.3 Q-1.9 -52.0 1.35 -52.0 L2.15 -51.9" fill="#942403" fill-rule="evenodd" stroke="none"/>
    </g>
    <g id="shape2" transform="matrix(1.0, 0.0, 0.0, 1.0, 7.95, 32.35)">
      <path d="M23.15 -26.3 L23.05 -27.35 23.1 -27.75 22.0 -29.0 Q21.0 -29.75 19.3 -30.05 16.6 -30.55 12.2 -30.05 L12.15 -29.8 11.55 -29.95 11.0 -29.9 10.9 -29.45 Q10.75 -28.65 10.75 -27.55 L10.75 -27.1 10.75 -25.8 10.75 -23.7 10.75 -20.05 10.75 -18.6 10.75 -15.95 10.75 -14.35 10.75 -14.0 10.8 -13.5 Q11.0 -12.7 11.75 -11.2 L12.05 -10.65 12.15 -10.5 12.3 -10.2 12.45 -10.0 Q13.65 -7.95 14.45 -7.4 L14.95 -7.25 Q16.9 -7.25 18.25 -7.85 L18.7 -8.1 18.9 -8.25 19.1 -8.4 19.95 -9.15 20.2 -9.45 20.3 -9.5 21.05 -10.7 21.15 -10.9 21.35 -11.45 21.45 -11.6 21.55 -11.8 21.9 -13.4 22.25 -15.1 22.3 -15.15 22.35 -15.45 22.45 -15.65 22.6 -16.1 22.9 -17.1 22.95 -17.35 23.4 -18.9 23.5 -19.25 23.6 -19.6 23.6 -20.3 23.6 -20.65 23.6 -20.8 23.7 -22.3 23.6 -22.35 23.75 -22.7 23.6 -24.1 23.5 -24.6 23.45 -24.7 23.5 -24.7 23.85 -24.95 24.1 -25.5 23.7 -25.85 23.15 -26.3 M22.65 -30.75 L24.35 -30.05 25.55 -23.4 25.75 -20.9 25.6 -20.1 25.1 -16.8 24.25 -14.8 23.95 -13.9 22.95 -10.45 Q21.6 -6.95 19.35 -5.6 L18.95 -4.25 17.95 -1.45 17.7 0.55 Q17.3 1.85 16.5 2.5 16.4 4.0 15.35 5.05 L15.1 5.3 15.05 5.35 14.7 6.0 14.6 6.55 Q14.25 6.15 13.65 6.2 L13.65 6.25 13.5 6.2 11.55 6.45 Q9.2 6.45 7.5 5.4 L7.2 5.3 7.15 6.05 7.15 11.25 7.4 14.3 8.5 19.7 9.4 24.55 9.3 25.05 Q9.5 25.4 9.05 25.55 L9.05 25.7 Q9.05 26.8 8.3 27.0 L4.95 27.2 Q-3.15 27.2 -6.0 24.05 -7.4 22.5 -7.2 20.7 L-7.2 19.6 -7.75 17.15 Q-8.1 14.35 -7.75 11.45 -7.75 7.05 -7.35 4.1 L-7.15 2.9 -7.1 0.15 Q-6.8 -3.05 -4.7 -9.45 -2.85 -15.3 -0.75 -18.45 -0.45 -20.6 0.55 -21.9 L1.5 -23.65 5.35 -28.35 Q7.05 -30.4 9.0 -31.35 L9.15 -31.45 9.2 -31.4 Q10.15 -31.9 11.25 -32.1 L12.9 -32.25 13.1 -32.35 Q18.95 -32.35 22.65 -30.75 M6.4 -25.9 L4.8 -24.05 2.4 -21.55 2.3 -21.5 2.35 -21.2 2.4 -21.05 2.45 -20.8 2.55 -20.5 2.7 -19.9 3.1 -18.65 3.6 -17.4 5.1 -19.75 5.2 -19.85 5.7 -20.6 6.3 -21.45 6.6 -21.85 6.7 -22.0 7.15 -22.55 7.7 -23.2 7.9 -23.45 9.0 -24.45 9.5 -24.75 9.5 -28.0 9.4 -29.35 9.4 -29.55 9.1 -29.1 8.55 -28.4 7.45 -27.05 6.4 -25.9 M8.8 -21.85 L8.55 -21.55 8.3 -21.15 8.1 -20.85 7.6 -20.25 7.5 -20.15 7.25 -19.75 6.5 -18.6 Q4.2 -15.15 3.1 -12.8 L2.95 -12.35 3.15 -12.2 3.95 -11.65 5.05 -11.0 5.45 -10.75 5.5 -10.7 5.55 -10.65 5.95 -10.4 6.1 -10.3 6.3 -10.15 6.55 -10.65 7.0 -11.65 8.5 -15.3 8.95 -16.1 9.45 -16.75 9.5 -16.8 9.5 -22.85 9.05 -22.2 8.8 -21.85 M2.6 -15.6 L1.8 -17.65 0.65 -15.95 -0.9 -13.1 -1.9 -11.0 -2.05 -10.7 -1.9 -10.3 -1.6 -9.55 -1.5 -9.2 -1.1 -7.6 -0.85 -7.25 -0.95 -7.1 -0.25 -5.65 -0.05 -5.05 0.55 -3.85 2.25 -1.55 2.25 -1.5 2.55 -1.15 2.65 -1.05 2.85 -0.85 2.9 -0.75 3.0 -0.65 3.1 -0.5 3.45 -0.1 3.5 -0.2 3.5 -0.05 3.9 0.4 4.75 1.45 7.0 2.7 7.55 3.0 Q11.0 4.65 13.3 4.65 14.0 4.65 14.0 3.55 L14.0 3.4 14.05 3.0 Q12.3 2.8 10.75 1.7 9.15 0.55 9.15 0.1 L9.25 -0.6 8.7 -0.6 8.5 -0.6 8.3 -0.6 Q6.4 -0.75 5.5 -1.9 L5.3 -2.2 Q4.8 -3.15 4.8 -4.4 L4.85 -5.15 4.85 -5.2 5.05 -6.3 5.15 -6.75 5.55 -8.1 5.6 -8.3 5.5 -8.35 5.35 -8.45 5.1 -8.6 5.05 -8.65 4.95 -8.75 4.75 -8.9 4.7 -8.9 3.55 -9.85 2.5 -10.75 1.35 -12.0 Q1.35 -12.6 1.65 -13.5 L2.6 -15.6 M9.25 -12.5 L8.8 -11.5 8.25 -10.05 8.15 -9.75 6.05 -4.25 6.9 -3.6 6.95 -3.55 Q7.35 -3.1 8.35 -2.8 L8.95 -2.65 9.15 -2.6 9.8 -2.5 10.75 -4.7 10.85 -4.95 11.25 -6.4 11.45 -6.95 11.55 -7.45 11.8 -8.0 11.35 -8.75 11.3 -8.8 11.1 -9.1 10.65 -9.85 10.05 -11.05 Q9.5 -12.25 9.5 -13.1 L9.25 -12.5 M12.25 -3.9 L12.2 -3.8 12.1 -3.55 10.85 -0.55 11.7 0.3 12.1 0.55 14.5 1.0 Q15.2 1.0 15.85 -0.1 L16.55 -1.55 17.2 -3.75 17.55 -4.9 17.65 -5.35 17.45 -5.3 16.65 -5.25 Q14.75 -5.25 13.15 -6.55 L13.05 -6.0 12.25 -3.9 M5.65 4.7 L3.75 3.75 2.5 2.45 2.4 2.3 2.45 2.15 2.3 2.0 2.2 1.9 1.9 1.55 1.65 1.2 1.5 1.0 1.3 0.75 1.05 0.4 0.0 -1.1 Q-0.9 -2.55 -1.4 -3.9 L-2.1 -6.0 Q-2.2 -7.6 -2.7 -8.5 L-2.7 -8.55 -2.85 -8.5 -3.25 -7.8 -3.5 -6.75 Q-3.6 -5.25 -4.0 -3.9 L-4.45 -2.15 -4.95 0.5 -5.1 1.65 -5.4 4.5 -5.7 8.3 -5.9 11.6 -5.95 12.95 -5.75 16.2 -5.35 20.5 -4.9 21.9 -4.45 22.55 -2.7 23.8 -1.6 24.2 7.65 24.75 6.9 22.85 Q6.3 20.85 5.9 17.35 5.45 13.3 5.35 9.15 L5.4 6.1 Q5.45 5.25 5.65 4.7" fill="#000000" fill-rule="evenodd" stroke="none"/>
      <path d="M23.15 -26.3 L20.45 -28.15 19.5 -28.7 Q16.15 -30.45 14.5 -30.0 L14.7 -29.0 18.3 -26.75 20.45 -25.5 21.0 -25.2 22.7 -24.65 23.05 -24.65 23.45 -24.7 23.5 -24.6 23.6 -24.1 23.75 -22.7 23.6 -22.35 23.7 -22.3 23.6 -20.8 23.5 -20.9 22.85 -21.5 21.9 -22.3 19.7 -24.05 18.85 -24.7 18.65 -24.85 17.65 -25.35 13.7 -27.95 Q12.25 -29.0 10.9 -29.45 L11.0 -29.9 11.55 -29.95 12.15 -29.8 12.2 -30.05 Q16.6 -30.55 19.3 -30.05 21.0 -29.75 22.0 -29.0 L23.1 -27.75 23.05 -27.35 23.15 -26.3 M10.75 -25.8 L10.75 -27.1 10.75 -27.55 15.0 -25.0 17.3 -23.5 17.65 -23.25 18.05 -23.0 18.2 -22.85 20.0 -21.55 21.55 -20.4 23.4 -18.9 22.95 -17.35 22.05 -18.15 17.7 -21.2 16.6 -21.85 16.35 -22.0 16.2 -22.1 15.85 -22.3 15.35 -22.55 15.15 -22.7 14.45 -23.15 13.75 -23.6 Q12.4 -24.55 10.75 -25.8 M10.75 -23.7 L11.3 -23.2 12.0 -22.65 13.15 -21.85 13.4 -21.65 Q14.6 -20.8 15.5 -20.3 L15.75 -20.2 16.15 -20.0 Q16.25 -19.95 16.45 -19.85 L17.1 -19.4 21.55 -16.1 22.35 -15.45 22.3 -15.15 22.25 -15.1 21.9 -13.4 21.55 -11.8 21.65 -12.45 20.55 -13.6 20.15 -14.0 20.1 -14.05 17.45 -16.6 16.35 -17.45 16.1 -17.65 15.95 -17.75 15.45 -18.05 14.75 -18.5 14.35 -18.75 13.75 -19.05 10.75 -20.05 10.75 -23.7 M10.75 -18.6 Q12.25 -18.1 13.35 -17.45 L13.45 -17.4 13.85 -17.15 14.7 -16.5 15.2 -16.0 15.5 -15.75 16.3 -15.05 Q17.2 -14.25 17.45 -14.15 L19.8 -12.15 20.55 -11.45 20.65 -11.35 21.15 -10.9 21.05 -10.7 20.3 -9.5 20.2 -9.45 19.2 -10.45 18.3 -11.3 16.45 -12.85 14.45 -14.3 14.1 -14.55 13.4 -14.9 12.65 -15.3 12.4 -15.4 11.9 -15.6 10.75 -15.95 10.75 -18.6 M10.75 -14.35 L11.1 -14.15 12.25 -13.45 12.85 -13.05 12.95 -12.95 13.2 -12.8 16.35 -10.35 16.7 -10.05 18.4 -8.4 18.7 -8.1 18.25 -7.85 Q16.9 -7.25 14.95 -7.25 L14.45 -7.4 Q13.65 -7.95 12.45 -10.0 L12.3 -10.2 12.15 -10.5 12.05 -10.65 11.75 -11.2 Q11.0 -12.7 10.8 -13.5 L10.75 -14.0 10.75 -14.35" fill="#333333" fill-rule="evenodd" stroke="none"/>
      <path d="M5.65 4.7 Q5.45 5.25 5.4 6.1 L5.35 9.15 Q5.45 13.3 5.9 17.35 6.3 20.85 6.9 22.85 L7.65 24.75 -1.6 24.2 -2.7 23.8 -4.45 22.55 -4.9 21.9 -5.35 20.5 -5.75 16.2 -5.95 12.95 -5.9 11.6 -5.7 8.3 -5.4 4.5 -5.1 1.65 -4.95 0.5 -4.45 -2.15 -4.0 -3.9 Q-3.6 -5.25 -3.5 -6.75 L-3.25 -7.8 -2.85 -8.5 -2.7 -8.55 -2.7 -8.5 Q-2.2 -7.6 -2.1 -6.0 L-1.4 -3.9 Q-0.9 -2.55 0.0 -1.1 L1.05 0.4 1.3 0.75 1.5 1.0 1.65 1.2 1.9 1.55 2.2 1.9 2.3 2.0 2.45 2.15 2.4 2.3 2.5 2.45 3.75 3.75 5.65 4.7" fill="#aa8a71" fill-rule="evenodd" stroke="none"/>
      <path d="M23.45 -24.7 L23.05 -24.65 22.7 -24.65 21.0 -25.2 20.45 -25.5 18.3 -26.75 14.7 -29.0 14.5 -30.0 Q16.15 -30.45 19.5 -28.7 L20.45 -28.15 23.15 -26.3 23.7 -25.85 24.1 -25.5 23.85 -24.95 23.5 -24.7 23.45 -24.7 M10.9 -29.45 Q12.25 -29.0 13.7 -27.95 L17.65 -25.35 18.65 -24.85 18.85 -24.7 19.7 -24.05 21.9 -22.3 22.85 -21.5 23.5 -20.9 23.6 -20.8 23.6 -20.65 23.6 -20.3 23.6 -19.6 23.5 -19.25 23.4 -18.9 21.55 -20.4 20.0 -21.55 18.2 -22.85 18.05 -23.0 17.65 -23.25 17.3 -23.5 15.0 -25.0 10.75 -27.55 Q10.75 -28.65 10.9 -29.45 M10.75 -25.8 Q12.4 -24.55 13.75 -23.6 L14.45 -23.15 15.15 -22.7 15.35 -22.55 15.85 -22.3 16.2 -22.1 16.35 -22.0 16.6 -21.85 17.7 -21.2 22.05 -18.15 22.95 -17.35 22.9 -17.1 22.6 -16.1 22.45 -15.65 22.35 -15.45 21.55 -16.1 17.1 -19.4 16.45 -19.85 Q16.25 -19.95 16.15 -20.0 L15.75 -20.2 15.5 -20.3 Q14.6 -20.8 13.4 -21.65 L13.15 -21.85 12.0 -22.65 11.3 -23.2 10.75 -23.7 10.75 -25.8 M10.75 -20.05 L13.75 -19.05 14.35 -18.75 14.75 -18.5 15.45 -18.05 15.95 -17.75 16.1 -17.65 16.35 -17.45 17.45 -16.6 20.1 -14.05 20.15 -14.0 20.55 -13.6 21.65 -12.45 21.55 -11.8 21.45 -11.6 21.35 -11.45 21.15 -10.9 20.65 -11.35 20.55 -11.45 19.8 -12.15 17.45 -14.15 Q17.2 -14.25 16.3 -15.05 L15.5 -15.75 15.2 -16.0 14.7 -16.5 13.85 -17.15 13.45 -17.4 13.35 -17.45 Q12.25 -18.1 10.75 -18.6 L10.75 -20.05 M10.75 -15.95 L11.9 -15.6 12.4 -15.4 12.65 -15.3 13.4 -14.9 14.1 -14.55 14.45 -14.3 16.45 -12.85 18.3 -11.3 19.2 -10.45 20.2 -9.45 19.95 -9.15 19.1 -8.4 18.9 -8.25 18.7 -8.1 18.4 -8.4 16.7 -10.05 16.35 -10.35 13.2 -12.8 12.95 -12.95 12.85 -13.05 12.25 -13.45 11.1 -14.15 10.75 -14.35 10.75 -15.95" fill="#1a1a1a" fill-rule="evenodd" stroke="none"/>
      <path d="M6.4 -25.9 L7.45 -27.05 8.55 -28.4 9.1 -29.1 9.4 -29.55 9.4 -29.35 9.5 -28.0 9.5 -24.75 9.0 -24.45 7.9 -23.45 7.7 -23.2 7.15 -22.55 6.7 -22.0 6.6 -21.85 6.3 -21.45 5.7 -20.6 5.2 -19.85 5.1 -19.75 3.6 -17.4 3.1 -18.65 2.7 -19.9 2.55 -20.5 2.45 -20.8 2.4 -21.05 2.35 -21.2 2.3 -21.5 2.4 -21.55 4.8 -24.05 6.4 -25.9 M8.8 -21.85 L9.05 -22.2 9.5 -22.85 9.5 -16.8 9.45 -16.75 8.95 -16.1 8.5 -15.3 7.0 -11.65 6.55 -10.65 6.3 -10.15 6.1 -10.3 5.95 -10.4 5.55 -10.65 5.5 -10.7 5.45 -10.75 5.05 -11.0 3.95 -11.65 3.15 -12.2 2.95 -12.35 3.1 -12.8 Q4.2 -15.15 6.5 -18.6 L7.25 -19.75 7.5 -20.15 7.6 -20.25 8.1 -20.85 8.3 -21.15 8.55 -21.55 8.8 -21.85 M12.25 -3.9 L13.05 -6.0 13.15 -6.55 Q14.75 -5.25 16.65 -5.25 L17.45 -5.3 17.65 -5.35 17.55 -4.9 17.2 -3.75 16.55 -1.55 15.85 -0.1 Q15.2 1.0 14.5 1.0 L12.1 0.55 11.7 0.3 10.85 -0.55 12.1 -3.55 12.2 -3.8 12.25 -3.9 M9.25 -12.5 L9.5 -13.1 Q9.5 -12.25 10.05 -11.05 L10.65 -9.85 11.1 -9.1 11.3 -8.8 11.35 -8.75 11.8 -8.0 11.55 -7.45 11.45 -6.95 11.25 -6.4 10.85 -4.95 10.75 -4.7 9.8 -2.5 9.15 -2.6 8.95 -2.65 8.35 -2.8 Q7.35 -3.1 6.95 -3.55 L6.9 -3.6 6.05 -4.25 8.15 -9.75 8.25 -10.05 8.8 -11.5 9.25 -12.5" fill="#221c15" fill-rule="evenodd" stroke="none"/>
      <path d="M2.6 -15.6 L1.65 -13.5 Q1.35 -12.6 1.35 -12.0 L2.5 -10.75 3.55 -9.85 4.7 -8.9 4.75 -8.9 4.95 -8.75 5.05 -8.65 5.1 -8.6 5.35 -8.45 5.5 -8.35 5.6 -8.3 5.55 -8.1 5.15 -6.75 5.05 -6.3 4.85 -5.2 4.85 -5.15 4.8 -4.4 Q4.8 -3.15 5.3 -2.2 L5.5 -1.9 Q6.4 -0.75 8.3 -0.6 L8.5 -0.6 8.7 -0.6 9.25 -0.6 9.15 0.1 Q9.15 0.55 10.75 1.7 12.3 2.8 14.05 3.0 L14.0 3.4 14.0 3.55 Q14.0 4.65 13.3 4.65 11.0 4.65 7.55 3.0 L7.0 2.7 4.75 1.45 3.9 0.4 3.5 -0.05 3.5 -0.2 3.45 -0.1 3.1 -0.5 3.0 -0.65 2.9 -0.75 2.85 -0.85 2.65 -1.05 2.55 -1.15 2.25 -1.5 2.25 -1.55 0.55 -3.85 -0.05 -5.05 -0.25 -5.65 -0.95 -7.1 -0.85 -7.25 -1.1 -7.6 -1.5 -9.2 -1.6 -9.55 -1.9 -10.3 -2.05 -10.7 -1.9 -11.0 -0.9 -13.1 0.65 -15.95 1.8 -17.65 2.6 -15.6" fill="#942403" fill-rule="evenodd" stroke="none"/>
    </g>
  </defs>
</svg>
