<?xml version="1.0" encoding="UTF-8" standalone="no"?>
<svg xmlns:ffdec="https://www.free-decompiler.com/flash" xmlns:xlink="http://www.w3.org/1999/xlink" ffdec:objectType="frame" height="243.6px" width="194.4px" xmlns="http://www.w3.org/2000/svg">
  <g transform="matrix(1.0, 0.0, 0.0, 1.0, 4.4, 72.6)">
    <use ffdec:characterId="490" height="124.0" transform="matrix(0.7825, 0.0, 0.0, 0.7825, 42.4186, 29.784)" width="74.2" xlink:href="#shape0"/>
    <use ffdec:characterId="491" height="128.7" transform="matrix(0.7559, 0.2025, -0.2025, 0.7559, 58.0933, -26.0026)" width="96.65" xlink:href="#shape1"/>
    <use ffdec:characterId="493" height="71.9" transform="matrix(0.6777, 0.3913, -0.3913, 0.6777, 46.4365, 28.5921)" width="35.5" xlink:href="#shape2"/>
  </g>
  <defs>
    <g id="shape0" transform="matrix(1.0, 0.0, 0.0, 1.0, 37.1, 62.0)">
      <path d="M16.2 -41.5 L13.45 -43.7 Q9.9 -46.3 4.35 -47.2 -3.95 -51.05 -12.35 -49.75 -18.5 -48.8 -19.65 -46.65 -23.2 -45.4 -25.0 -39.6 -26.4 -35.05 -26.4 -29.35 -26.4 -23.05 -25.85 -21.0 L-23.7 -16.25 -22.55 -14.15 -23.35 -12.3 Q-25.55 -13.8 -27.4 -17.9 -29.6 -22.7 -29.6 -25.8 -29.6 -31.45 -28.1 -35.55 L-25.3 -41.0 -23.1 -45.3 -23.15 -45.75 Q-19.8 -48.95 -15.6 -50.4 -9.35 -52.55 2.3 -52.55 5.6 -52.55 9.8 -49.8 12.95 -47.7 13.95 -46.3 L16.35 -41.65 16.2 -41.5" fill="#19150f" fill-rule="evenodd" stroke="none"/>
      <path d="M8.45 -53.05 Q11.6 -52.45 13.7 -50.1 L16.45 -46.55 Q17.5 -45.55 19.2 -42.6 20.9 -39.8 20.9 -39.15 L20.85 -38.4 20.65 -38.3 20.65 -37.95 20.55 -37.85 26.0 -33.0 26.4 -35.25 26.9 -38.2 Q26.9 -44.55 19.2 -51.05 9.15 -59.55 -7.7 -59.55 -16.55 -59.55 -24.45 -52.7 -29.6 -48.25 -31.6 -44.3 -32.95 -41.75 -34.05 -35.6 -35.1 -29.75 -35.1 -25.55 -35.1 -18.65 -33.5 -14.7 -31.2 -9.0 -25.2 -5.95 L-24.55 -8.5 -24.0 -10.4 Q-27.95 -11.25 -30.1 -18.15 L-31.6 -26.15 Q-31.6 -31.85 -30.15 -36.0 -28.65 -40.35 -24.95 -45.2 L-25.1 -46.05 Q-25.1 -47.3 -21.6 -49.65 -18.65 -51.6 -17.3 -52.05 L-13.95 -53.0 -0.3 -54.55 5.6 -54.1 Q7.35 -53.65 8.45 -53.05 M16.35 -41.65 L13.95 -46.3 Q12.95 -47.7 9.8 -49.8 5.6 -52.55 2.3 -52.55 -9.35 -52.55 -15.6 -50.4 -19.8 -48.95 -23.15 -45.75 L-23.1 -45.3 -25.3 -41.0 -28.1 -35.55 Q-29.6 -31.45 -29.6 -25.8 -29.6 -22.7 -27.4 -17.9 -25.55 -13.8 -23.35 -12.3 L-22.55 -14.15 -23.7 -16.25 -25.85 -21.0 Q-26.4 -23.05 -26.4 -29.35 -26.4 -35.05 -25.0 -39.6 -23.2 -45.4 -19.65 -46.65 -18.5 -48.8 -12.35 -49.75 -3.95 -51.05 4.35 -47.2 9.9 -46.3 13.45 -43.7 L16.2 -41.5 16.7 -41.1 16.35 -41.65 M18.4 -54.3 Q22.2 -53.05 25.75 -46.75 28.9 -41.1 28.9 -37.75 28.9 -36.3 28.2 -33.95 L27.25 -31.65 28.45 -30.15 28.6 -29.95 Q31.0 -26.6 31.8 -22.85 L32.5 -21.8 32.85 -20.6 Q34.0 -18.8 35.15 -15.9 36.25 -12.9 36.6 -10.7 37.1 -7.65 37.1 -0.4 L36.95 3.0 Q36.65 4.0 35.05 6.4 34.8 9.6 33.85 11.0 32.5 13.0 28.6 13.0 22.15 13.0 20.9 7.0 18.85 6.6 17.1 3.0 L15.6 -1.0 15.55 -2.1 14.1 -1.25 13.75 1.2 13.3 3.5 Q16.1 4.15 18.6 6.6 21.4 9.35 22.6 12.8 L22.35 13.55 Q22.15 14.0 21.35 14.0 20.45 14.0 20.25 13.5 L19.4 12.55 Q19.85 13.65 20.1 15.3 20.35 16.6 21.0 17.85 L21.4 18.05 21.6 18.5 21.25 19.1 Q20.9 19.5 20.1 19.5 L19.15 19.45 16.9 20.8 17.1 25.0 Q17.1 28.7 15.3 31.4 12.75 35.25 11.6 39.05 L9.85 46.0 8.6 49.3 8.9 49.25 9.1 50.0 9.1 60.5 8.5 60.85 8.6 61.0 8.25 61.6 Q7.9 62.0 7.1 62.0 4.45 62.0 1.25 59.0 -0.55 57.3 -1.3 55.95 -2.2 55.55 -6.1 51.25 -8.15 48.75 -8.35 47.05 L-10.05 45.8 -12.35 43.5 -14.1 41.3 Q-14.4 40.85 -14.4 39.4 -14.4 37.5 -13.5 35.8 -12.55 34.0 -10.9 33.7 L-10.9 33.55 -10.7 32.65 -16.4 33.5 -24.6 33.0 -24.75 32.85 -24.85 32.5 Q-26.5 32.05 -26.9 25.2 L-26.9 17.75 -26.75 7.25 Q-26.45 2.85 -25.35 -0.25 L-25.65 -0.55 -25.9 -1.85 -25.6 -4.0 Q-28.3 -4.8 -31.7 -8.8 -35.1 -12.75 -35.55 -14.3 L-37.05 -20.55 -37.1 -25.55 Q-37.1 -35.75 -34.45 -43.15 -30.55 -54.0 -21.3 -58.05 -9.0 -63.5 2.2 -61.4 10.0 -59.9 18.4 -54.3 M5.55 -44.8 L5.35 -44.9 5.3 -44.9 5.2 -44.95 0.3 -46.75 -2.1 -47.35 -4.5 -47.7 -4.5 -47.5 Q-4.5 -42.95 -5.2 -38.9 -5.85 -35.55 -6.95 -32.55 L-7.2 -32.0 Q-8.85 -27.95 -11.3 -25.2 -9.2 -23.95 -5.85 -22.75 L-3.1 -21.8 -1.15 -21.25 3.5 -20.25 Q7.55 -20.25 10.25 -24.6 L14.1 -30.95 15.65 -31.0 15.9 -30.85 16.1 -30.0 Q16.1 -27.9 12.15 -23.25 9.7 -20.4 7.5 -19.05 L7.6 -17.75 Q7.6 -16.15 11.2 -13.45 L12.8 -12.35 14.75 -11.15 Q19.55 -8.55 23.65 -9.5 L23.75 -9.45 25.2 -10.05 Q26.85 -10.8 27.1 -11.25 L28.2 -13.1 29.1 -14.7 Q29.8 -16.35 30.0 -17.95 L30.1 -20.1 Q29.9 -23.85 26.85 -28.0 24.4 -31.35 18.85 -36.45 14.55 -40.35 8.85 -43.25 L5.55 -44.8 M-7.15 -17.1 Q-1.75 -15.1 0.9 -14.45 L1.0 -14.65 1.1 -14.55 1.1 -13.9 0.9 -12.95 0.95 -12.7 Q0.9 -12.5 0.1 -12.5 -4.4 -12.5 -7.6 -14.55 -9.9 -16.05 -9.9 -16.75 L-9.9 -16.9 -9.75 -17.7 -9.4 -17.95 -7.15 -17.1 M-16.95 -12.7 Q-14.05 -11.05 -10.5 -9.9 L-9.9 -9.75 -10.4 -10.2 Q-12.4 -12.05 -12.4 -12.7 L-12.15 -13.7 -11.4 -14.0 -4.6 -9.45 -4.4 -9.0 -4.75 -8.4 -4.8 -8.3 -4.75 -8.3 Q-0.45 -7.0 7.85 -5.5 L10.8 -4.8 12.35 -4.2 12.8 -3.9 13.45 -3.4 13.55 -3.25 15.1 -4.2 16.6 -4.95 19.05 -6.8 19.9 -7.5 17.6 -7.5 15.35 -8.2 Q13.8 -8.85 12.25 -9.95 L11.7 -10.4 11.3 -10.7 Q10.55 -11.3 9.75 -12.0 5.6 -15.7 5.6 -18.15 L5.6 -18.25 3.85 -18.0 Q0.55 -18.0 -2.95 -19.0 L-4.95 -19.65 -5.6 -19.9 -6.15 -20.1 -6.9 -20.4 Q-10.1 -21.8 -11.6 -23.25 L-12.5 -24.05 Q-16.05 -20.85 -21.0 -20.0 L-23.0 -20.0 -21.9 -18.05 Q-20.7 -16.05 -20.45 -14.75 L-19.1 -13.95 -17.3 -12.9 -16.95 -12.7 M10.95 -7.5 Q7.55 -7.55 5.1 -9.0 3.1 -10.2 3.1 -11.0 L3.15 -11.5 Q4.15 -11.95 5.95 -11.1 8.35 -10.0 11.1 -9.55 L11.8 -9.45 11.9 -9.45 12.0 -9.65 12.1 -9.55 12.1 -8.9 11.9 -7.95 11.95 -7.7 Q11.9 -7.5 11.1 -7.5 L10.95 -7.5 M17.95 -3.4 L17.4 -3.1 17.35 -2.6 17.3 -2.15 17.95 0.6 19.1 2.35 20.45 3.8 20.6 4.0 20.6 3.65 Q20.6 0.05 23.7 -1.7 26.45 -3.3 29.6 -2.5 L34.35 1.2 34.8 1.95 35.1 -0.65 35.05 -4.25 34.8 -7.3 34.4 -10.2 Q34.05 -12.05 32.7 -15.3 31.65 -11.8 27.65 -8.95 L21.2 -5.2 20.9 -5.05 20.75 -4.95 18.1 -3.5 18.05 -3.45 17.95 -3.4 M31.9 1.7 L28.9 -0.25 Q27.2 -1.4 24.85 0.2 22.6 1.75 22.6 3.6 22.6 7.35 24.1 9.05 25.5 10.75 28.5 10.75 30.95 10.75 32.15 8.5 33.1 6.75 33.1 4.1 33.1 2.65 31.9 1.7 M18.1 16.75 L17.85 14.55 17.15 12.75 Q16.6 11.5 16.6 10.8 L16.7 10.0 Q17.05 9.35 18.4 9.25 L15.2 6.7 Q14.0 5.7 12.7 5.2 L12.1 5.5 11.35 5.0 -7.6 2.25 -12.05 1.8 -12.1 1.75 -13.9 2.0 -16.0 1.55 -16.15 1.5 -20.4 1.0 -23.4 0.15 Q-23.4 1.8 -24.0 4.45 L-24.9 9.0 -25.05 13.75 -24.9 17.55 -24.85 20.9 -24.05 19.6 -21.9 16.55 -20.65 14.05 Q-19.2 11.5 -18.15 11.5 -17.05 11.5 -16.8 12.4 L-16.4 13.8 -14.25 11.1 -13.25 9.8 -12.4 9.0 Q-11.9 8.3 -11.9 7.45 L-11.65 6.85 -11.55 6.55 -11.5 6.5 Q-10.9 6.0 -10.15 6.0 L-3.4 13.0 Q-2.95 12.55 -2.85 10.75 L-2.6 10.65 -1.65 10.5 Q-0.75 10.5 1.95 12.85 5.0 15.45 6.6 16.0 7.1 15.8 7.1 14.3 L7.5 14.15 8.6 14.0 Q9.5 14.0 10.9 14.7 L13.6 16.0 18.0 17.25 18.15 17.25 18.1 16.75 M-13.1 31.0 L-11.1 30.75 Q-8.45 30.5 -4.1 28.75 -2.5 28.1 -0.05 26.6 L3.6 24.55 Q6.15 23.4 10.5 20.35 12.6 19.15 14.85 18.5 L9.9 17.0 Q10.1 17.3 10.1 18.5 L10.0 18.75 9.1 19.0 Q6.5 19.0 2.85 16.8 0.45 15.3 -0.85 14.0 L-0.95 14.7 -1.35 15.75 Q-0.9 16.0 -2.15 16.0 -3.2 16.0 -6.7 12.75 L-10.35 9.0 -11.4 9.8 -11.4 10.0 -13.2 13.45 -15.4 17.45 -15.9 18.3 Q-15.4 18.5 -16.65 18.5 -18.4 18.5 -18.4 15.25 L-18.6 15.0 -18.65 15.1 -24.8 23.9 -24.8 24.55 Q-24.5 28.85 -23.45 31.4 L-13.1 31.0 M15.1 21.75 L7.5 25.45 7.6 26.1 Q7.6 27.2 2.4 34.15 L2.6 34.5 2.1 35.1 1.4 35.45 -6.35 45.75 -5.9 46.3 -6.15 47.05 Q-5.9 47.3 -6.1 47.4 L-6.0 47.65 -4.15 50.3 -2.15 52.25 -1.6 52.8 Q-1.0 51.8 0.95 50.8 3.25 49.65 5.85 49.65 6.3 47.6 7.85 43.0 9.9 36.75 10.6 35.25 L12.4 31.2 Q13.45 29.1 15.1 27.3 L14.95 23.15 Q14.9 22.3 15.1 21.75 M11.2 2.65 Q11.35 0.95 12.1 -1.95 -3.7 -6.0 -10.55 -7.95 -18.6 -10.25 -21.15 -12.35 L-22.3 -7.95 -23.65 -2.2 -22.8 -2.1 -11.2 -0.45 -9.4 -0.25 -6.9 0.0 1.95 0.75 Q8.2 1.25 11.2 2.65 M5.3 26.45 Q0.25 28.8 -3.85 30.35 L-2.8 31.35 Q-1.6 32.55 0.1 33.2 L5.3 26.45 M6.5 52.2 L6.5 52.0 5.75 51.9 5.65 51.75 3.1 52.9 Q0.9 53.85 -0.2 54.55 L0.5 55.1 Q1.8 56.75 2.65 57.25 L5.65 58.7 7.45 59.8 7.15 58.15 7.1 55.05 Q6.55 53.65 6.5 52.2 M-24.35 -27.8 L-24.35 -27.1 Q-24.2 -24.0 -23.65 -21.5 L-23.35 -20.7 Q-21.8 -22.2 -18.2 -23.7 -15.95 -24.65 -14.5 -25.55 L-14.55 -25.6 -14.0 -25.8 Q-12.25 -26.45 -12.25 -27.4 L-12.25 -27.65 -10.15 -30.3 -9.7 -31.05 Q-8.9 -32.5 -8.5 -34.25 L-8.0 -36.5 -7.0 -42.1 Q-6.85 -43.15 -7.3 -46.2 -7.3 -47.2 -6.85 -47.7 -14.55 -47.6 -16.65 -46.1 -17.4 -44.5 -18.9 -44.5 L-19.65 -44.65 -19.75 -44.75 -19.75 -44.7 Q-21.85 -42.8 -23.1 -38.3 -24.05 -35.0 -24.3 -31.8 L-24.4 -29.25 -24.35 -27.85 -24.35 -27.8 M-9.0 33.8 L-8.9 34.0 Q-8.55 34.95 -7.35 35.75 L-4.4 37.45 -3.4 38.1 -2.25 36.45 -1.15 34.95 -3.4 33.5 Q-5.45 31.95 -5.8 31.1 L-9.5 32.3 -9.05 33.65 -9.0 33.8 M-8.6 37.75 L-9.95 36.05 -10.65 36.45 Q-12.4 37.35 -12.4 39.25 -12.4 40.55 -9.9 42.6 L-7.6 44.55 -4.85 40.25 Q-6.75 39.65 -8.6 37.75" fill="#000000" fill-rule="evenodd" stroke="none"/>
      <path d="M5.2 -44.95 L5.3 -44.9 5.35 -44.9 5.55 -44.8 5.4 -44.55 5.2 -44.95 M11.1 -9.55 L11.3 -10.7 11.7 -10.4 12.25 -9.95 12.0 -9.65 11.9 -9.45 11.8 -9.45 11.1 -9.55 M-2.95 -19.0 L-2.3 -18.8 -2.7 -18.55 -2.95 -19.0" fill="#0033ff" fill-opacity="0.49803922" fill-rule="evenodd" stroke="none"/>
      <path d="M5.2 -44.95 L5.4 -44.55 Q5.9 -43.15 5.9 -39.3 5.9 -34.3 1.4 -28.25 L-3.1 -22.05 -3.1 -21.8 -5.85 -22.75 Q-9.2 -23.95 -11.3 -25.2 -8.85 -27.95 -7.2 -32.0 L-6.95 -32.55 Q0.9 -37.5 0.9 -44.7 L0.85 -46.55 0.3 -46.75 5.2 -44.95 M8.85 -43.25 Q14.55 -40.35 18.85 -36.45 24.4 -31.35 26.85 -28.0 29.9 -23.85 30.1 -20.1 L30.0 -17.95 Q29.8 -16.35 29.1 -14.7 L28.2 -13.1 27.1 -11.25 Q26.85 -10.8 25.2 -10.05 L23.75 -9.45 23.65 -9.5 Q19.55 -8.55 14.75 -11.15 L14.8 -11.3 14.9 -12.2 Q14.3 -15.15 14.7 -17.8 15.5 -23.05 20.5 -23.05 23.7 -23.05 24.7 -22.3 25.4 -21.8 25.4 -20.45 25.45 -19.25 24.9 -18.15 23.8 -16.0 20.9 -16.0 20.15 -16.0 20.05 -16.35 L19.9 -17.0 Q20.05 -17.45 21.05 -18.0 21.9 -18.5 21.9 -19.3 L21.7 -20.3 21.45 -20.55 19.65 -20.8 Q17.8 -20.8 17.2 -19.5 16.9 -18.85 16.9 -17.45 L17.2 -15.05 Q18.3 -12.8 22.15 -12.8 26.55 -12.8 27.9 -16.5 L28.4 -20.55 Q28.4 -23.7 25.65 -25.3 23.1 -26.8 19.65 -26.15 16.0 -25.4 13.65 -22.5 10.9 -19.2 10.9 -13.95 L10.95 -13.7 11.2 -13.45 Q7.6 -16.15 7.6 -17.75 L7.5 -19.05 Q9.7 -20.4 12.15 -23.25 16.1 -27.9 16.1 -30.0 L15.9 -30.85 15.65 -31.0 14.1 -30.95 10.25 -24.6 Q7.55 -20.25 3.5 -20.25 L-1.15 -21.25 0.0 -21.0 2.9 -24.0 Q5.95 -27.55 6.65 -29.25 L8.75 -34.95 8.9 -39.3 8.85 -43.25 M-5.2 -38.9 Q-4.5 -42.95 -4.5 -47.5 L-4.5 -47.7 -2.1 -47.35 Q-2.1 -45.85 -2.55 -43.95 -3.0 -42.15 -3.6 -41.05 -4.2 -40.0 -5.2 -38.9 M-9.9 -16.9 L-9.9 -16.75 Q-9.9 -16.05 -7.6 -14.55 -4.4 -12.5 0.1 -12.5 0.9 -12.5 0.95 -12.7 L0.9 -12.95 1.1 -13.9 1.1 -14.55 1.0 -14.65 0.9 -14.45 Q-1.75 -15.1 -7.15 -17.1 -4.6 -17.35 -2.7 -18.55 L-2.3 -18.8 -2.95 -19.0 Q0.55 -18.0 3.85 -18.0 L5.6 -18.25 5.6 -18.15 Q5.6 -15.7 9.75 -12.0 10.55 -11.3 11.3 -10.7 L11.1 -9.55 Q8.35 -10.0 5.95 -11.1 4.15 -11.95 3.15 -11.5 L3.1 -11.0 Q3.1 -10.2 5.1 -9.0 7.55 -7.55 10.95 -7.5 L10.9 -5.55 10.8 -4.8 7.85 -5.5 Q-0.45 -7.0 -4.75 -8.3 L-4.75 -8.4 -4.4 -9.0 -4.6 -9.45 -11.4 -14.0 -12.15 -13.7 -12.4 -12.7 Q-12.4 -12.05 -10.4 -10.2 L-10.5 -9.9 Q-14.05 -11.05 -16.95 -12.7 L-13.85 -15.2 Q-12.3 -16.6 -9.9 -16.9 M15.35 -8.2 L17.6 -7.5 19.9 -7.5 19.05 -6.8 16.6 -4.95 15.1 -4.2 15.4 -5.7 15.35 -8.2 M17.35 -2.6 L17.4 -3.1 17.95 -3.4 17.4 -3.05 17.35 -2.6 M21.2 -5.2 L27.65 -8.95 Q31.65 -11.8 32.7 -15.3 34.05 -12.05 34.4 -10.2 L34.8 -7.3 33.6 -7.35 27.2 -7.25 21.9 -5.5 21.2 -5.2 M35.05 -4.25 L35.1 -0.65 34.8 1.95 34.35 1.2 29.6 -2.5 Q26.45 -3.3 23.7 -1.7 20.6 0.05 20.6 3.65 L20.45 3.8 19.1 2.35 17.95 0.6 20.5 -0.7 Q22.5 -1.8 25.15 -2.55 29.95 -3.95 35.05 -4.25 M31.9 1.7 Q33.1 2.65 33.1 4.1 33.1 6.75 32.15 8.5 30.95 10.75 28.5 10.75 25.5 10.75 24.1 9.05 22.6 7.35 22.6 3.6 22.6 1.75 24.85 0.2 27.2 -1.4 28.9 -0.25 L31.9 1.7 M-24.35 -27.85 L-22.35 -27.8 -24.35 -27.8 -24.35 -27.85 M-19.1 -13.95 L-20.45 -14.75 Q-20.7 -16.05 -21.9 -18.05 L-23.0 -20.0 -21.0 -20.0 Q-16.05 -20.85 -12.5 -24.05 L-11.6 -23.25 Q-10.1 -21.8 -6.9 -20.4 L-7.0 -20.45 -11.1 -19.8 Q-14.05 -19.5 -16.5 -17.95 -19.1 -16.3 -19.1 -14.3 L-19.1 -13.95" fill="#cdac98" fill-rule="evenodd" stroke="none"/>
      <path d="M5.4 -44.55 L5.55 -44.8 8.85 -43.25 8.9 -39.3 8.75 -34.95 6.65 -29.25 Q5.95 -27.55 2.9 -24.0 L0.0 -21.0 -1.15 -21.25 -3.1 -21.8 -3.1 -22.05 1.4 -28.25 Q5.9 -34.3 5.9 -39.3 5.9 -43.15 5.4 -44.55 M14.75 -11.15 L12.8 -12.35 11.2 -13.45 10.95 -13.7 10.9 -13.95 Q10.9 -19.2 13.65 -22.5 16.0 -25.4 19.65 -26.15 23.1 -26.8 25.65 -25.3 28.4 -23.7 28.4 -20.55 L27.9 -16.5 Q26.55 -12.8 22.15 -12.8 18.3 -12.8 17.2 -15.05 L16.9 -17.45 Q16.9 -18.85 17.2 -19.5 17.8 -20.8 19.65 -20.8 L21.45 -20.55 21.7 -20.3 21.9 -19.3 Q21.9 -18.5 21.05 -18.0 20.05 -17.45 19.9 -17.0 L20.05 -16.35 Q20.15 -16.0 20.9 -16.0 23.8 -16.0 24.9 -18.15 25.45 -19.25 25.4 -20.45 25.4 -21.8 24.7 -22.3 23.7 -23.05 20.5 -23.05 15.5 -23.05 14.7 -17.8 14.3 -15.15 14.9 -12.2 L14.8 -11.3 14.75 -11.15 M-6.95 -32.55 Q-5.85 -35.55 -5.2 -38.9 -4.2 -40.0 -3.6 -41.05 -3.0 -42.15 -2.55 -43.95 -2.1 -45.85 -2.1 -47.35 L0.3 -46.75 0.85 -46.55 0.9 -44.7 Q0.9 -37.5 -6.95 -32.55 M-9.9 -16.9 Q-12.3 -16.6 -13.85 -15.2 L-16.95 -12.7 -17.3 -12.9 -19.1 -13.95 -19.1 -14.3 Q-19.1 -16.3 -16.5 -17.95 -14.05 -19.5 -11.1 -19.8 L-7.0 -20.45 -6.9 -20.4 -6.15 -20.1 -5.6 -19.9 -4.95 -19.65 -2.95 -19.0 -2.7 -18.55 Q-4.6 -17.35 -7.15 -17.1 L-9.4 -17.95 -9.75 -17.7 -9.9 -16.9 M10.8 -4.8 L10.9 -5.55 10.95 -7.5 11.1 -7.5 Q11.9 -7.5 11.95 -7.7 L11.9 -7.95 12.1 -8.9 12.1 -9.55 12.0 -9.65 12.25 -9.95 Q13.8 -8.85 15.35 -8.2 L15.4 -5.7 15.1 -4.2 13.55 -3.25 13.45 -3.4 12.8 -3.9 12.35 -4.2 10.8 -4.8 M17.95 -3.4 L18.05 -3.45 18.1 -3.5 20.75 -4.95 20.9 -5.05 21.2 -5.2 21.9 -5.5 27.2 -7.25 33.6 -7.35 34.8 -7.3 35.05 -4.25 Q29.95 -3.95 25.15 -2.55 22.5 -1.8 20.5 -0.7 L17.95 0.6 17.3 -2.15 17.35 -2.6 17.4 -3.05 17.95 -3.4" fill="#7f98ff" fill-rule="evenodd" stroke="none"/>
      <path d="M18.0 17.25 L13.6 16.0 10.9 14.7 Q9.5 14.0 8.6 14.0 L7.5 14.15 7.1 14.3 Q7.1 15.8 6.6 16.0 5.0 15.45 1.95 12.85 -0.75 10.5 -1.65 10.5 L-2.6 10.65 -2.85 10.75 Q-2.95 12.55 -3.4 13.0 L-10.15 6.0 Q-10.9 6.0 -11.5 6.5 L-11.55 6.55 -11.65 6.85 -11.9 7.45 Q-11.9 8.3 -12.4 9.0 L-13.25 9.8 -14.25 11.1 -16.4 13.8 -16.8 12.4 Q-17.05 11.5 -18.15 11.5 -19.2 11.5 -20.65 14.05 L-21.9 16.55 -24.05 19.6 -24.85 20.9 -24.9 17.55 -25.05 13.75 -24.9 9.0 -24.0 4.45 Q-23.4 1.8 -23.4 0.15 L-20.4 1.0 -16.15 1.5 -16.0 1.55 -13.9 2.0 -12.1 1.75 -12.05 1.8 -7.6 2.25 11.35 5.0 12.1 5.5 12.7 5.2 Q14.0 5.7 15.2 6.7 L18.4 9.25 Q17.05 9.35 16.7 10.0 L16.6 10.8 Q16.6 11.5 17.15 12.75 L17.85 14.55 18.1 16.75 18.0 17.25" fill="#332d26" fill-rule="evenodd" stroke="none"/>
      <path d="M-15.4 17.45 L-13.1 31.0 -23.45 31.4 Q-24.5 28.85 -24.8 24.55 L-24.8 23.9 -18.65 15.1 -18.4 15.25 Q-18.4 18.5 -16.65 18.5 -15.4 18.5 -15.9 18.3 L-15.4 17.45" fill="#046193" fill-rule="evenodd" stroke="none"/>
      <path d="M-15.4 17.45 L-13.2 13.45 -11.4 10.0 -11.4 9.8 -10.35 9.0 -6.7 12.75 Q-3.2 16.0 -2.15 16.0 -0.9 16.0 -1.35 15.75 L-0.95 14.7 -0.85 14.0 Q0.45 15.3 2.85 16.8 6.5 19.0 9.1 19.0 L10.0 18.75 10.1 18.5 Q10.1 17.3 9.9 17.0 L14.85 18.5 Q12.6 19.15 10.5 20.35 6.15 23.4 3.6 24.55 L-0.05 26.6 Q-2.5 28.1 -4.1 28.75 -8.45 30.5 -11.1 30.75 L-13.1 31.0 -15.4 17.45" fill="#023f60" fill-rule="evenodd" stroke="none"/>
      <path d="M11.2 2.65 Q8.2 1.25 1.95 0.75 L-6.9 0.0 -9.4 -0.25 -11.2 -0.45 -22.8 -2.1 -23.65 -2.2 -22.3 -7.95 -21.15 -12.35 Q-18.6 -10.25 -10.55 -7.95 -3.7 -6.0 12.1 -1.95 11.35 0.95 11.2 2.65 M-19.65 -44.65 L-18.9 -44.5 Q-17.4 -44.5 -16.65 -46.1 -14.55 -47.6 -6.85 -47.7 -7.3 -47.2 -7.3 -46.2 -6.85 -43.15 -7.0 -42.1 L-8.0 -36.5 -8.5 -34.25 Q-8.9 -32.5 -9.7 -31.05 L-10.15 -30.3 -12.25 -27.65 -12.25 -27.4 Q-12.25 -26.45 -14.0 -25.8 L-14.55 -25.6 -14.5 -25.55 Q-15.95 -24.65 -18.2 -23.7 -21.8 -22.2 -23.35 -20.7 L-23.65 -21.5 Q-24.2 -24.0 -24.35 -27.1 L-24.35 -27.8 -22.35 -27.8 -24.35 -27.85 -24.4 -29.25 -24.3 -31.8 Q-24.05 -35.0 -23.1 -38.3 -21.85 -42.8 -19.75 -44.7 L-19.65 -44.65" fill="#221f1c" fill-rule="evenodd" stroke="none"/>
      <path d="M5.3 26.45 L0.1 33.2 Q-1.6 32.55 -2.8 31.35 L-3.85 30.35 Q0.25 28.8 5.3 26.45 M-8.6 37.75 Q-6.75 39.65 -4.85 40.25 L-7.6 44.55 -9.9 42.6 Q-12.4 40.55 -12.4 39.25 -12.4 37.35 -10.65 36.45 L-9.95 36.05 -8.6 37.75 M-9.0 33.8 L-9.05 33.65 -9.5 32.3 -5.8 31.1 Q-5.45 31.95 -3.4 33.5 L-1.15 34.95 -2.25 36.45 -3.4 38.1 -4.4 37.45 -7.35 35.75 Q-8.55 34.95 -8.9 34.0 L-9.0 33.8" fill="#5b5144" fill-rule="evenodd" stroke="none"/>
      <path d="M8.45 -53.05 Q7.35 -53.65 5.6 -54.1 L-0.3 -54.55 -13.95 -53.0 -17.3 -52.05 Q-18.65 -51.6 -21.6 -49.65 -25.1 -47.3 -25.1 -46.05 L-24.95 -45.2 Q-28.65 -40.35 -30.15 -36.0 -31.6 -31.85 -31.6 -26.15 L-30.1 -18.15 Q-27.95 -11.25 -24.0 -10.4 L-24.55 -8.5 -25.2 -5.95 Q-31.2 -9.0 -33.5 -14.7 -35.1 -18.65 -35.1 -25.55 -35.1 -29.75 -34.05 -35.6 -32.95 -41.75 -31.6 -44.3 -29.6 -48.25 -24.45 -52.7 -16.55 -59.55 -7.7 -59.55 9.15 -59.55 19.2 -51.05 26.9 -44.55 26.9 -38.2 L26.4 -35.25 26.0 -33.0 20.55 -37.85 20.65 -37.95 20.65 -38.3 20.85 -38.4 20.9 -39.15 Q20.9 -39.8 19.2 -42.6 17.5 -45.55 16.45 -46.55 L13.7 -50.1 Q11.6 -52.45 8.45 -53.05 M15.1 21.75 Q14.9 22.3 14.95 23.15 L15.1 27.3 Q13.45 29.1 12.4 31.2 L10.6 35.25 Q9.9 36.75 7.85 43.0 6.3 47.6 5.85 49.65 3.25 49.65 0.95 50.8 -1.0 51.8 -1.6 52.8 L-2.15 52.25 -4.15 50.3 -6.0 47.65 -6.1 47.4 Q-5.9 47.3 -6.15 47.05 L-5.9 46.3 -6.35 45.75 1.4 35.45 2.1 35.1 2.6 34.5 2.4 34.15 Q7.6 27.2 7.6 26.1 L7.5 25.45 15.1 21.75 M6.5 52.2 Q6.55 53.65 7.1 55.05 L7.15 58.15 7.45 59.8 5.65 58.7 2.65 57.25 Q1.8 56.75 0.5 55.1 L-0.2 54.55 Q0.9 53.85 3.1 52.9 L5.65 51.75 5.75 51.9 6.5 52.0 6.5 52.2" fill="#4e5963" fill-rule="evenodd" stroke="none"/>
    </g>
    <g id="shape1" transform="matrix(1.0, 0.0, 0.0, 1.0, 55.3, 60.2)">
      <path d="M5.5 -59.65 L10.75 -60.2 Q17.95 -60.2 29.05 -56.4 41.35 -52.2 41.35 -48.1 41.35 -47.35 31.8 -39.05 22.65 -31.15 21.3 -30.35 L20.35 -30.45 Q19.9 -30.6 19.9 -31.35 19.4 -31.6 18.6 -32.2 L15.65 -34.25 13.65 -35.25 12.85 -33.05 11.85 -29.95 14.25 -28.7 18.85 -25.85 Q21.65 -27.15 23.85 -27.85 L23.9 -28.05 24.35 -28.0 24.65 -28.1 25.05 -28.1 25.2 -27.7 Q26.6 -26.95 27.7 -24.75 L29.8 -19.35 31.65 -13.15 32.9 -8.15 32.6 -4.5 32.55 -3.5 32.7 -0.25 32.6 0.35 32.95 0.65 32.85 0.8 32.55 1.1 32.45 1.45 32.2 1.75 30.7 1.75 30.7 2.7 30.65 3.75 30.7 4.3 30.6 7.45 31.2 8.0 32.7 9.6 Q33.5 10.55 33.7 11.45 L34.45 15.3 34.7 18.5 Q34.7 22.7 33.5 26.85 32.2 31.45 31.5 35.4 31.95 37.6 32.25 41.75 32.25 43.0 31.25 47.35 L30.7 49.95 Q30.35 51.6 30.35 52.35 L29.55 54.7 28.25 57.5 Q27.75 58.5 26.5 59.1 L23.6 59.75 Q22.85 59.75 22.2 57.9 L21.4 55.6 Q19.75 53.35 19.0 53.4 18.15 53.45 17.3 52.5 L14.0 48.3 13.8 48.0 13.75 48.2 Q13.45 49.25 12.65 50.0 L12.5 51.05 12.75 52.65 13.0 54.25 Q13.0 58.65 12.8 59.75 12.15 63.15 9.5 64.0 8.45 63.1 8.6 61.8 L9.0 59.55 8.8 59.3 8.8 59.4 6.65 64.05 4.5 68.3 Q5.0 68.5 3.75 68.5 L2.5 68.25 Q3.15 65.6 1.35 61.65 -0.55 57.7 0.0 55.5 L-0.85 57.95 Q-1.4 59.8 -1.85 60.75 -1.5 61.0 -2.75 61.0 -5.3 61.0 -5.4 57.15 L-5.0 51.05 -5.7 51.35 -6.75 51.5 -8.0 51.25 -8.0 48.55 -6.35 43.95 Q-5.4 41.9 -3.35 41.4 L-3.45 41.25 -3.5 39.1 Q-3.5 36.1 -3.0 35.4 L-2.1 34.75 Q-2.5 33.85 -2.55 32.2 L-2.5 29.8 -2.45 27.8 -5.65 31.75 Q-10.6 37.5 -12.2 37.5 -18.6 32.45 -19.85 28.65 L-21.75 24.2 Q-23.5 19.95 -23.5 18.4 -23.5 15.55 -21.7 11.4 -25.7 15.95 -28.3 15.95 -30.95 15.95 -37.5 10.6 -44.05 5.35 -44.05 3.4 -44.05 2.3 -43.2 1.15 -42.15 -0.4 -40.45 -0.4 L-33.85 0.95 -29.55 -9.55 -28.0 -13.25 -30.45 -14.6 -32.15 -11.7 Q-35.55 -5.75 -36.05 -5.2 L-37.15 -6.15 Q-38.05 -6.15 -46.5 -11.05 L-51.3 -12.9 Q-54.5 -14.25 -55.1 -16.0 L-54.95 -16.15 -55.15 -16.25 -55.3 -17.35 Q-55.3 -22.0 -40.25 -40.2 -31.5 -48.6 -18.0 -54.3 -6.5 -59.15 0.2 -59.15 L5.5 -59.65 M10.7 -57.85 L10.65 -57.85 -1.75 -57.3 Q-3.85 -57.3 -11.35 -54.55 -17.95 -52.15 -21.75 -50.3 L-25.8 -48.1 -29.8 -45.75 -35.45 -41.35 -40.7 -36.35 Q-46.45 -30.05 -48.95 -26.0 -51.4 -22.0 -52.75 -16.7 -52.0 -16.6 -51.0 -16.05 -45.8 -13.2 -45.4 -13.05 -44.5 -12.2 -40.4 -10.05 L-36.85 -8.05 -31.95 -16.4 -32.0 -16.95 -31.9 -17.6 -31.3 -17.5 -30.45 -19.0 Q-30.45 -20.2 -27.75 -23.45 -24.75 -27.05 -20.5 -30.4 -8.8 -39.6 2.8 -39.6 8.95 -39.6 13.75 -37.85 18.6 -36.1 21.0 -32.9 22.8 -34.7 27.55 -38.45 36.25 -45.4 38.6 -48.4 34.15 -52.4 27.2 -54.95 19.3 -57.85 10.7 -57.85 M25.15 -24.3 L24.35 -26.0 23.5 -25.35 21.7 -24.25 21.55 -24.15 18.2 -22.45 Q8.55 -17.8 6.35 -16.35 4.5 -15.15 -0.5 -11.25 -3.6 -8.85 -5.8 -7.75 -5.45 -7.4 -6.6 -7.4 L-7.5 -7.4 -7.85 -7.85 -8.85 -8.5 Q-10.45 -9.65 -11.1 -9.65 -13.6 -9.65 -14.55 -6.95 -15.05 -5.6 -15.05 -4.1 -15.05 -1.9 -14.0 0.2 -12.45 3.4 -9.1 3.4 -7.75 3.4 -6.95 2.0 L-5.75 0.05 -5.45 0.05 -5.7 -1.05 -4.15 -1.05 -3.95 -0.9 -3.85 -0.65 -3.4 -0.7 Q2.8 -0.9 27.85 -0.3 L28.0 -0.3 28.05 -0.3 30.1 -0.25 30.25 -0.25 30.25 -0.55 30.25 -0.95 30.3 -1.0 30.3 -2.25 30.3 -3.5 30.3 -3.65 30.3 -4.95 30.5 -5.0 30.7 -8.85 Q30.7 -11.6 27.2 -19.7 L25.15 -24.3 M9.55 -31.8 Q9.55 -32.35 10.8 -34.15 11.55 -35.25 12.25 -35.8 8.05 -37.3 2.5 -37.3 -13.15 -37.3 -24.95 -22.55 -27.1 -19.9 -29.25 -16.45 L-27.35 -14.8 -25.0 -19.9 Q-24.15 -21.55 -20.2 -24.85 L-14.55 -29.2 Q-7.8 -33.9 -1.6 -33.4 1.65 -33.1 5.35 -31.9 7.2 -31.9 9.95 -30.8 L9.55 -31.8 M11.4 -21.95 Q14.25 -23.6 16.75 -24.85 L14.15 -26.3 Q10.15 -28.6 9.35 -28.7 4.8 -29.4 1.85 -30.6 -0.15 -31.4 -2.95 -31.4 -6.25 -31.4 -12.9 -27.2 L-19.5 -22.55 Q-21.6 -20.55 -22.9 -18.3 L-25.0 -14.2 Q-30.45 -3.5 -30.45 2.2 -30.45 3.55 -30.55 2.85 L-30.7 3.15 -31.65 3.4 -36.0 2.8 -40.6 1.85 -41.4 2.25 -41.65 3.5 -41.65 3.55 -41.4 4.15 -41.2 4.4 Q-40.1 5.95 -35.8 9.15 -29.95 13.45 -28.1 13.45 -25.8 13.45 -21.75 7.8 L-16.75 0.95 -15.85 0.85 -16.7 -1.9 -17.45 -4.95 Q-17.45 -5.95 -16.15 -8.1 -14.85 -10.25 -13.8 -11.0 -11.25 -12.7 -8.4 -11.2 -7.35 -10.65 -6.7 -10.1 -4.05 -12.6 4.75 -18.05 8.3 -20.25 11.4 -21.95 M21.55 2.95 L21.35 2.7 Q18.2 1.85 18.2 4.05 18.2 4.8 18.35 4.95 L18.45 5.2 19.95 5.45 Q21.7 5.45 21.7 3.95 L21.55 2.95 M29.65 16.45 L29.7 17.95 Q29.7 21.85 27.6 25.55 28.25 25.8 29.05 27.05 L30.1 28.95 31.7 23.7 Q32.7 20.6 32.7 18.45 32.45 15.2 31.5 12.7 30.2 9.2 28.15 9.25 24.1 11.4 21.5 14.9 18.7 18.7 18.7 22.25 18.7 23.05 19.45 27.3 L20.2 31.95 26.6 23.2 Q27.25 22.25 27.6 19.1 27.95 16.0 28.7 14.95 29.5 15.55 29.65 16.45 M16.1 3.45 L15.65 3.4 15.65 3.5 16.1 3.45 M11.8 2.5 L11.15 1.85 9.0 4.7 Q6.5 7.7 6.5 9.25 L6.9 11.15 7.2 12.0 7.5 13.0 7.5 13.05 7.65 13.35 8.85 12.0 12.1 8.1 12.0 6.35 11.8 2.5 M15.25 11.4 L15.25 12.75 Q15.15 15.75 14.75 17.3 L14.15 19.6 16.7 20.0 16.75 18.35 Q16.95 17.6 19.2 13.7 20.7 11.1 23.0 9.5 18.8 9.9 15.5 10.95 L15.25 11.1 15.25 11.4 M4.5 9.35 Q4.5 7.15 6.25 4.75 L6.85 4.05 5.8 3.0 4.8 1.45 -0.45 1.35 -0.6 1.8 -0.65 1.85 -0.35 5.9 -0.35 6.95 0.0 6.6 0.5 6.5 3.5 8.9 4.2 9.65 4.25 9.65 4.5 10.0 4.5 9.35 M7.15 1.6 L8.25 2.4 9.0 1.65 8.3 1.6 8.3 1.55 7.0 1.5 7.15 1.6 M5.4 13.25 L5.0 13.5 Q4.1 12.45 1.25 10.5 0.0 9.65 -0.35 8.55 L-0.35 11.1 -0.3 14.6 Q1.2 14.85 2.65 16.3 L3.5 17.25 4.65 18.8 Q5.0 16.65 6.1 15.15 L6.0 14.15 6.05 13.75 5.4 13.25 M-0.05 18.15 Q-0.45 18.8 -0.5 19.65 -0.15 20.3 -0.2 21.2 L-0.1 21.35 -0.2 21.45 -0.25 21.7 Q-0.5 23.7 0.0 24.5 L0.05 24.5 0.3 24.65 0.45 24.95 3.05 26.5 4.55 27.45 4.6 26.15 4.9 25.4 Q4.2 25.05 4.0 24.0 L4.0 22.35 4.05 21.65 1.5 19.4 0.15 17.95 -0.15 17.6 -0.05 18.15 M10.95 13.5 L10.0 14.65 Q6.5 18.75 6.5 22.3 L6.2 22.55 6.45 23.5 7.0 23.05 9.2 21.65 10.75 20.3 Q11.25 19.45 12.05 19.1 L12.0 16.85 11.8 15.6 12.05 12.55 12.1 12.0 10.95 13.5 M11.35 23.15 L11.35 22.9 11.35 22.65 11.1 22.9 7.75 26.0 Q6.35 27.4 6.35 29.3 L6.35 31.6 8.95 30.5 Q11.9 29.05 11.5 27.3 L11.35 23.15 M16.65 23.25 L16.75 23.15 16.75 23.0 16.5 23.0 13.45 22.85 13.5 25.35 Q13.5 29.9 13.05 30.65 L12.85 31.0 12.95 31.55 13.0 33.6 Q13.0 35.8 12.25 37.9 L12.2 37.95 12.25 38.05 12.3 38.3 12.3 38.35 12.3 38.45 12.45 39.05 12.5 40.0 12.5 40.45 12.5 40.75 12.5 40.85 12.5 40.9 Q13.35 41.2 13.75 42.3 L14.05 44.2 14.55 44.85 18.0 49.8 18.05 49.9 18.3 49.55 Q18.55 49.15 19.3 49.15 21.75 49.15 23.35 54.55 L23.65 55.75 23.8 54.45 Q24.0 53.6 25.4 53.0 26.5 53.65 26.6 54.85 L26.9 54.85 27.0 54.0 Q27.0 53.4 27.45 53.2 27.85 53.0 27.85 52.35 27.85 51.75 28.35 50.05 L28.8 47.75 29.45 44.45 Q30.05 41.65 30.05 40.4 L29.85 37.7 Q28.95 36.9 28.8 35.35 L28.45 32.0 27.1 29.0 26.45 27.35 Q22.2 33.8 20.7 37.25 20.35 37.7 19.7 37.95 18.2 36.8 18.05 34.0 L17.7 29.75 Q16.85 27.15 16.75 23.3 L15.95 23.7 16.65 23.25 M10.8 35.15 L11.2 32.45 Q9.55 33.65 6.55 35.25 L6.5 35.4 10.65 36.15 10.8 35.15 M-0.5 27.75 L-0.5 29.75 Q-0.5 32.2 1.05 34.3 L1.35 34.45 2.0 34.5 4.5 35.05 4.5 34.8 4.75 34.35 4.6 33.95 4.5 32.25 4.65 32.2 4.55 31.75 4.5 30.0 4.25 30.0 Q3.9 30.0 1.45 28.45 L-0.25 27.35 -0.3 27.3 -0.5 27.75 M9.5 38.45 L9.8 38.05 9.55 38.0 0.1 36.95 Q-1.5 37.15 -1.5 39.15 L-1.35 40.75 Q-0.9 41.25 1.9 41.25 L6.25 40.85 10.0 40.25 10.0 38.85 9.7 38.6 9.5 38.45 M-5.2 48.4 L-4.0 48.0 -1.85 48.0 -1.65 48.2 Q-1.5 48.35 -1.5 49.1 -1.5 49.5 -2.1 50.55 L-3.0 52.0 -3.0 56.5 -1.85 53.95 Q-0.6 51.5 0.75 51.5 L1.8 51.75 Q2.1 53.7 1.75 57.4 1.8 60.7 4.25 63.0 4.9 62.15 6.4 58.65 7.65 55.9 9.0 55.0 9.6 55.2 10.0 55.9 L10.8 57.0 10.75 54.2 10.5 51.75 10.6 49.25 Q10.75 48.5 11.25 48.05 L11.5 47.1 12.0 44.9 11.9 43.45 Q11.7 43.1 10.95 42.75 L2.0 43.5 Q-0.45 43.5 -1.85 42.85 L-2.75 43.7 Q-4.35 45.1 -5.35 48.25 L-5.5 48.5 -5.2 48.4 M-4.7 4.7 L-4.7 4.45 -4.75 4.65 -4.7 4.7 M-9.1 5.8 Q-10.05 5.8 -12.75 4.05 L-14.5 2.8 -17.8 9.0 Q-21.2 15.9 -21.2 18.95 -21.2 22.05 -17.2 28.15 L-12.15 35.2 -7.05 29.6 Q-3.6 25.85 -3.6 25.3 L-7.05 20.5 Q-10.5 15.4 -10.5 13.3 -10.5 12.4 -8.7 7.85 L-7.75 5.6 -9.1 5.8 M-3.25 21.85 L-3.3 21.9 -1.95 23.7 -2.0 22.4 -2.0 22.25 -2.15 21.75 -2.35 21.75 -3.0 21.75 -3.1 21.8 -3.25 21.85 M-4.4 20.4 L-4.4 20.35 -4.45 20.35 -4.4 20.4" fill="#000000" fill-rule="evenodd" stroke="none"/>
      <path d="M23.5 -25.35 L24.35 -26.0 25.15 -24.3 23.9 -25.6 23.5 -25.35 M30.25 -0.95 L30.25 -0.55 30.15 -0.3 30.25 -0.95 M27.85 -0.3 Q2.8 -0.9 -3.4 -0.7 L-3.85 -0.65 -3.95 -0.9 -4.15 -1.05 -5.7 -1.05 -5.45 0.05 -5.75 0.05 -6.95 2.0 Q-7.75 3.4 -9.1 3.4 -12.45 3.4 -14.0 0.2 -15.05 -1.9 -15.05 -4.1 -15.05 -5.6 -14.55 -6.95 -13.6 -9.65 -11.1 -9.65 -10.45 -9.65 -8.85 -8.5 L-7.85 -7.85 -7.5 -7.4 -6.6 -7.4 Q-5.45 -7.4 -5.8 -7.75 -3.6 -8.85 -0.5 -11.25 4.5 -15.15 6.35 -16.35 8.55 -17.8 18.2 -22.45 L21.55 -24.15 21.8 -23.55 22.8 -20.9 24.6 -16.2 Q26.45 -11.7 26.6 -10.2 26.4 -6.8 26.6 -4.3 26.85 -1.45 27.85 -0.3 M9.55 -31.8 L9.95 -30.8 Q7.2 -31.9 5.35 -31.9 1.65 -33.1 -1.6 -33.4 -7.8 -33.9 -14.55 -29.2 L-20.2 -24.85 Q-24.15 -21.55 -25.0 -19.9 L-27.35 -14.8 -29.25 -16.45 Q-27.1 -19.9 -24.95 -22.55 -13.15 -37.3 2.5 -37.3 8.05 -37.3 12.25 -35.8 11.55 -35.25 10.8 -34.15 9.55 -32.35 9.55 -31.8 M-41.2 4.4 L-37.55 5.65 -30.25 6.6 Q-29.75 6.6 -28.95 5.65 L-28.25 4.5 Q-28.25 2.2 -22.85 -11.2 -21.4 -13.8 -19.95 -15.5 -18.2 -17.65 -15.6 -19.55 L-11.0 -23.8 Q-6.85 -27.5 -5.05 -27.5 0.25 -27.5 7.5 -23.9 L11.4 -21.95 Q8.3 -20.25 4.75 -18.05 -4.05 -12.6 -6.7 -10.1 -7.35 -10.65 -8.4 -11.2 -11.25 -12.7 -13.8 -11.0 -14.85 -10.25 -16.15 -8.1 -17.45 -5.95 -17.45 -4.95 L-16.7 -1.9 -15.85 0.85 -16.75 0.95 -21.75 7.8 Q-25.8 13.45 -28.1 13.45 -29.95 13.45 -35.8 9.15 -40.1 5.95 -41.2 4.4 M-9.1 5.8 L-7.75 5.6 -8.7 7.85 Q-10.5 12.4 -10.5 13.3 -10.5 15.4 -7.05 20.5 L-3.6 25.3 Q-3.6 25.85 -7.05 29.6 L-12.15 35.2 -17.2 28.15 Q-21.2 22.05 -21.2 18.95 -21.2 15.9 -17.8 9.0 L-14.5 2.8 -12.75 4.05 Q-10.05 5.8 -9.1 5.8" fill="#4e5963" fill-rule="evenodd" stroke="none"/>
      <path d="M4.5 9.35 L4.5 10.0 4.25 9.65 4.5 9.35 M7.15 1.6 L7.0 1.5 8.3 1.55 8.3 1.6 9.0 1.65 8.25 2.4 7.15 1.6 M5.4 13.25 L5.15 13.6 5.0 13.5 5.4 13.25 M-0.05 18.15 L-0.15 17.6 0.15 17.95 -0.05 18.15 M11.8 15.6 L10.95 13.5 12.1 12.0 12.05 12.55 11.8 15.6" fill="#221f1c" fill-rule="evenodd" stroke="none"/>
      <path d="M30.25 -0.55 L30.25 -0.25 30.1 -0.25 30.15 -0.3 30.25 -0.55" fill="#5b6171" fill-rule="evenodd" stroke="none"/>
      <path d="M21.55 2.95 L21.7 3.95 Q21.7 5.45 19.95 5.45 L18.45 5.2 18.35 4.95 Q18.2 4.8 18.2 4.05 18.2 1.85 21.35 2.7 L21.55 2.95" fill="#ffffff" fill-rule="evenodd" stroke="none"/>
      <path d="M29.65 16.45 Q29.5 15.55 28.7 14.95 27.95 16.0 27.6 19.1 27.25 22.25 26.6 23.2 L20.2 31.95 19.45 27.3 Q18.7 23.05 18.7 22.25 18.7 18.7 21.5 14.9 24.1 11.4 28.15 9.25 30.2 9.2 31.5 12.7 32.45 15.2 32.7 18.45 32.7 20.6 31.7 23.7 L30.1 28.95 29.05 27.05 Q28.25 25.8 27.6 25.55 29.7 21.85 29.7 17.95 L29.65 16.45 M11.8 2.5 L12.0 6.35 12.1 8.1 8.85 12.0 7.65 13.35 7.5 13.05 7.5 13.0 7.2 12.0 6.9 11.15 6.5 9.25 Q6.5 7.7 9.0 4.7 L11.15 1.85 11.8 2.5 M4.2 9.65 L3.5 8.9 0.5 6.5 0.0 6.6 -0.35 6.95 -0.35 5.9 -0.65 1.85 -0.6 1.8 -0.45 1.35 4.8 1.45 5.8 3.0 6.85 4.05 6.25 4.75 Q4.5 7.15 4.5 9.35 L4.2 9.65 M5.0 13.5 L5.15 13.6 5.4 13.25 6.05 13.75 6.0 14.15 6.1 15.15 Q5.0 16.65 4.65 18.8 L3.5 17.25 2.65 16.3 Q1.2 14.85 -0.3 14.6 L-0.35 11.1 -0.35 8.55 Q0.0 9.65 1.25 10.5 4.1 12.45 5.0 13.5 M0.15 17.95 L1.5 19.4 4.05 21.65 4.0 22.35 4.0 24.0 Q4.2 25.05 4.9 25.4 L4.6 26.15 4.55 27.45 3.05 26.5 0.45 24.95 0.3 24.65 0.05 24.5 0.0 24.5 Q-0.5 23.7 -0.25 21.7 L-0.2 21.45 -0.1 21.35 -0.2 21.2 Q-0.15 20.3 -0.5 19.65 -0.45 18.8 -0.05 18.15 L0.15 17.95 M11.8 15.6 L12.0 16.85 12.05 19.1 Q11.25 19.45 10.75 20.3 L9.2 21.65 7.0 23.05 6.45 23.5 6.2 22.55 6.5 22.3 Q6.5 18.75 10.0 14.65 L10.95 13.5 11.8 15.6 M11.1 22.9 L11.35 23.15 11.5 27.3 Q11.9 29.05 8.95 30.5 L6.35 31.6 6.35 29.3 Q6.35 27.4 7.75 26.0 L11.1 22.9 M16.65 23.25 L15.95 23.7 16.75 23.3 Q16.85 27.15 17.7 29.75 L18.05 34.0 Q18.2 36.8 19.7 37.95 20.35 37.7 20.7 37.25 22.2 33.8 26.45 27.35 L27.1 29.0 28.45 32.0 28.8 35.35 Q28.95 36.9 29.85 37.7 L30.05 40.4 Q30.05 41.65 29.45 44.45 L28.8 47.75 28.35 50.05 Q27.85 51.75 27.85 52.35 27.85 53.0 27.45 53.2 27.0 53.4 27.0 54.0 L26.9 54.85 26.6 54.85 Q26.5 53.65 25.4 53.0 24.0 53.6 23.8 54.45 L23.35 54.55 Q21.75 49.15 19.3 49.15 18.55 49.15 18.3 49.55 L18.0 49.8 14.55 44.85 14.05 44.2 13.75 42.3 Q13.35 41.2 12.5 40.9 L12.5 40.85 12.5 40.75 12.5 40.45 12.5 40.0 12.45 39.05 12.3 38.45 12.25 37.9 Q13.0 35.8 13.0 33.6 L12.95 31.55 12.85 31.0 13.05 30.65 Q13.5 29.9 13.5 25.35 L13.45 22.85 16.5 23.0 16.65 23.25 M10.8 35.15 L10.65 36.15 6.5 35.4 6.55 35.25 Q9.55 33.65 11.2 32.45 L10.8 35.15 M-0.25 27.35 L1.45 28.45 Q3.9 30.0 4.25 30.0 L4.5 30.0 4.55 31.75 4.65 32.2 4.5 32.25 4.6 33.95 4.75 34.35 4.5 34.8 4.5 35.05 2.0 34.5 1.35 34.45 1.05 34.3 Q-0.5 32.2 -0.5 29.75 L-0.5 27.75 -0.25 27.35 M-5.35 48.25 Q-4.35 45.1 -2.75 43.7 L-1.85 42.85 Q-0.45 43.5 2.0 43.5 L10.95 42.75 Q11.7 43.1 11.9 43.45 L12.0 44.9 11.5 47.1 11.25 48.05 Q10.75 48.5 10.6 49.25 L10.5 51.75 10.75 54.2 10.8 57.0 10.0 55.9 Q9.6 55.2 9.0 55.0 7.65 55.9 6.4 58.65 4.9 62.15 4.25 63.0 1.8 60.7 1.75 57.4 2.1 53.7 1.8 51.75 L0.75 51.5 Q-0.6 51.5 -1.85 53.95 L-3.0 56.5 -3.0 52.0 -2.1 50.55 Q-1.5 49.5 -1.5 49.1 -1.5 48.35 -1.65 48.2 L-1.85 48.0 -4.0 48.0 -5.2 48.4 -5.35 48.25" fill="#58543a" fill-rule="evenodd" stroke="none"/>
      <path d="M15.25 11.4 L15.25 11.1 15.5 10.95 Q18.8 9.9 23.0 9.5 20.7 11.1 19.2 13.7 16.95 17.6 16.75 18.35 L16.7 20.0 14.15 19.6 14.75 17.3 Q15.15 15.75 15.25 12.75 L15.25 11.4" fill="#cdac98" fill-rule="evenodd" stroke="none"/>
      <path d="M4.2 9.65 L4.5 9.35 4.25 9.65 4.2 9.65 M11.35 23.15 L11.1 22.9 11.35 22.9 11.35 23.15 M12.3 38.3 L12.25 38.05 12.25 37.9 12.3 38.3 M18.0 49.8 L18.3 49.55 18.0 49.8" fill="#48463c" fill-rule="evenodd" stroke="none"/>
      <path d="M10.7 -57.85 Q19.3 -57.85 27.2 -54.95 34.15 -52.4 38.6 -48.4 36.25 -45.4 27.55 -38.45 22.8 -34.7 21.0 -32.9 18.6 -36.1 13.75 -37.85 8.95 -39.6 2.8 -39.6 -8.8 -39.6 -20.5 -30.4 -24.75 -27.05 -27.75 -23.45 -30.45 -20.2 -30.45 -19.0 L-31.3 -17.5 -31.9 -17.6 -32.0 -16.95 -31.95 -16.4 -36.85 -8.05 -40.4 -10.05 Q-44.5 -12.2 -45.4 -13.05 -45.8 -13.2 -51.0 -16.05 -52.0 -16.6 -52.75 -16.7 -51.4 -22.0 -48.95 -26.0 -46.45 -30.05 -40.7 -36.35 L-35.45 -41.35 -29.8 -45.75 -25.8 -48.1 -21.75 -50.3 Q-17.95 -52.15 -11.35 -54.55 -3.85 -57.3 -1.75 -57.3 L10.65 -57.85 10.7 -57.85 M9.55 38.0 L9.5 38.45 9.7 38.6 10.0 38.85 10.0 40.25 6.25 40.85 1.9 41.25 Q-0.9 41.25 -1.35 40.75 L-1.5 39.15 Q-1.5 37.15 0.1 36.95 L9.55 38.0" fill="#046193" fill-rule="evenodd" stroke="none"/>
      <path d="M12.3 38.45 L12.3 38.35 12.3 38.3 12.25 37.9 12.3 38.45" fill="#576164" fill-rule="evenodd" stroke="none"/>
      <path d="M23.5 -25.35 L23.9 -25.6 25.15 -24.3 27.2 -19.7 Q30.7 -11.6 30.7 -8.85 L30.5 -5.0 30.25 -4.95 30.3 -4.95 30.3 -3.65 30.3 -3.5 30.3 -2.25 30.3 -1.0 30.25 -0.95 30.15 -0.3 30.1 -0.25 28.05 -0.3 28.0 -0.3 27.85 -0.3 Q26.85 -1.45 26.6 -4.3 26.4 -6.8 26.6 -10.2 26.45 -11.7 24.6 -16.2 L22.8 -20.9 21.8 -23.55 21.55 -24.15 21.7 -24.25 23.5 -25.35 M-41.2 4.4 L-41.4 4.15 -41.65 3.55 -41.65 3.5 -41.4 2.25 -40.6 1.85 -36.0 2.8 -31.65 3.4 -30.7 3.15 -30.55 2.85 Q-30.45 3.55 -30.45 2.2 -30.45 -3.5 -25.0 -14.2 L-22.9 -18.3 Q-21.6 -20.55 -19.5 -22.55 L-12.9 -27.2 Q-6.25 -31.4 -2.95 -31.4 -0.15 -31.4 1.85 -30.6 4.8 -29.4 9.35 -28.7 10.15 -28.6 14.15 -26.3 L16.75 -24.85 Q14.25 -23.6 11.4 -21.95 L7.5 -23.9 Q0.25 -27.5 -5.05 -27.5 -6.85 -27.5 -11.0 -23.8 L-15.6 -19.55 Q-18.2 -17.65 -19.95 -15.5 -21.4 -13.8 -22.85 -11.2 -28.25 2.2 -28.25 4.5 L-28.95 5.65 Q-29.75 6.6 -30.25 6.6 L-37.55 5.65 -41.2 4.4" fill="#758593" fill-rule="evenodd" stroke="none"/>
    </g>
    <g id="shape2" transform="matrix(1.0, 0.0, 0.0, 1.0, 17.75, 35.95)">
      <path d="M6.5 -34.75 L8.55 -31.0 10.0 -29.4 Q11.0 -28.35 11.25 -27.55 L11.7 -25.9 12.25 -24.25 12.25 -22.75 13.7 -21.5 15.55 -18.0 Q16.6 -16.65 17.05 -14.6 L17.75 -11.25 17.75 -6.75 17.4 -6.5 16.75 -6.05 16.7 -6.1 Q16.45 -5.2 14.75 -4.25 L13.75 -3.75 13.75 -3.7 Q13.75 -1.5 12.4 2.1 10.9 6.05 10.75 7.45 9.75 15.7 9.75 18.25 9.75 21.8 10.75 25.55 11.75 29.25 11.75 30.05 L11.6 32.55 Q11.15 33.55 9.65 34.15 L8.8 35.0 Q7.3 35.4 6.25 35.95 L-1.95 35.95 -2.1 35.8 -2.1 35.75 Q-5.15 34.7 -9.25 28.15 -11.95 23.85 -14.7 17.95 -16.6 13.75 -17.25 8.9 -17.75 5.45 -17.75 -0.15 L-17.55 -7.75 Q-17.2 -10.75 -16.25 -12.6 -17.75 -14.3 -17.75 -15.8 L-17.65 -16.6 -17.75 -18.05 Q-17.75 -24.85 -13.9 -29.05 -8.65 -34.8 3.25 -35.45 L3.25 -35.5 Q5.15 -36.7 6.5 -34.75 M-2.25 -10.05 Q-2.25 -12.5 1.15 -16.2 -0.15 -17.1 -1.95 -17.3 L-2.25 -18.8 Q0.15 -19.8 2.75 -17.8 L2.8 -17.85 4.55 -19.35 Q3.25 -20.9 3.25 -21.3 3.25 -22.1 3.4 -22.25 L3.75 -22.5 Q4.2 -22.55 6.35 -20.65 8.7 -22.15 10.55 -21.95 9.95 -22.9 9.6 -24.35 9.0 -27.05 8.0 -28.5 L4.9 -31.7 Q3.85 -32.8 3.45 -33.9 -0.35 -34.5 -5.9 -31.35 -11.15 -28.45 -13.25 -25.75 -15.2 -23.3 -15.6 -20.65 L-15.75 -16.05 Q-14.95 -15.15 -14.25 -13.4 -11.45 -10.3 -2.3 -9.6 L-2.25 -9.6 -2.25 -10.05 M16.0 -7.6 Q15.65 -8.65 15.4 -10.05 L14.75 -14.25 Q14.4 -15.45 12.65 -18.35 L11.2 -20.85 7.9 -19.3 9.75 -17.75 9.5 -17.0 Q9.3 -16.55 8.5 -16.55 7.4 -16.55 5.9 -17.95 L4.15 -16.5 6.75 -13.75 6.5 -13.0 Q7.0 -12.55 5.75 -12.55 4.2 -12.55 2.7 -14.7 L2.55 -14.85 2.5 -14.8 Q0.05 -11.9 0.25 -9.25 L0.25 -9.2 Q2.3 -7.8 3.2 -7.3 6.8 -5.3 9.65 -5.3 12.7 -5.3 13.95 -6.35 15.3 -7.5 15.75 -7.55 L16.1 -7.4 16.0 -7.6 M9.6 2.45 Q10.35 -0.8 11.45 -3.15 L9.75 -3.05 Q4.7 -3.05 1.25 -5.55 -0.85 -7.1 -1.15 -8.1 L-1.2 -8.1 -1.6 -7.8 -3.5 -7.55 Q-10.2 -7.55 -14.35 -10.75 -14.5 -8.9 -15.0 -7.1 -15.7 -4.35 -15.75 -0.45 L-15.75 -0.2 -15.75 0.1 -15.7 2.8 Q-15.55 6.4 -15.05 9.55 L-14.4 12.7 -12.95 17.3 Q-9.6 25.7 -0.65 33.95 L5.15 33.55 7.05 33.2 7.95 32.75 8.75 31.85 Q9.75 31.1 9.75 30.45 9.75 29.55 8.85 27.35 7.9 25.0 7.8 23.95 L7.75 18.05 Q7.75 16.0 7.9 13.95 L8.2 10.55 8.85 6.15 8.9 5.65 9.6 2.45" fill="#000000" fill-rule="evenodd" stroke="none"/>
      <path d="M-15.75 -0.45 Q-15.7 -4.35 -15.0 -7.1 -14.5 -8.9 -14.35 -10.75 -10.2 -7.55 -3.5 -7.55 L-1.6 -7.8 -1.2 -8.1 -1.15 -8.1 Q-0.85 -7.1 1.25 -5.55 4.7 -3.05 9.75 -3.05 L11.45 -3.15 Q10.35 -0.8 9.6 2.45 L5.55 1.95 -6.5 0.7 -15.75 -0.45 M8.85 6.15 L8.2 10.55 -4.95 9.7 -15.05 9.55 Q-15.55 6.4 -15.7 2.8 L-5.25 4.45 8.85 6.15 M7.9 13.95 Q7.75 16.0 7.75 18.05 L7.8 23.95 Q7.9 25.0 8.85 27.35 9.75 29.55 9.75 30.45 9.75 31.1 8.75 31.85 L7.95 32.75 7.05 33.2 5.15 33.55 -0.65 33.95 Q-9.6 25.7 -12.95 17.3 L-14.4 12.7 -4.75 13.45 7.9 13.95" fill="#cdac98" fill-rule="evenodd" stroke="none"/>
      <path d="M-15.75 -0.45 L-6.5 0.7 5.55 1.95 9.6 2.45 8.9 5.65 8.85 6.15 -5.25 4.45 -15.7 2.8 -15.75 0.1 -15.75 -0.2 -15.75 -0.45 M8.2 10.55 L7.9 13.95 -4.75 13.45 -14.4 12.7 -15.05 9.55 -4.95 9.7 8.2 10.55" fill="#7f98ff" fill-rule="evenodd" stroke="none"/>
      <path d="M-2.3 -9.6 Q-11.45 -10.3 -14.25 -13.4 -14.95 -15.15 -15.75 -16.05 L-15.6 -20.65 Q-15.2 -23.3 -13.25 -25.75 -11.15 -28.45 -5.9 -31.35 -0.35 -34.5 3.45 -33.9 3.85 -32.8 4.9 -31.7 L8.0 -28.5 Q9.0 -27.05 9.6 -24.35 9.95 -22.9 10.55 -21.95 8.7 -22.15 6.35 -20.65 4.2 -22.55 3.75 -22.5 L3.4 -22.25 Q3.25 -22.1 3.25 -21.3 3.25 -20.9 4.55 -19.35 L2.8 -17.85 2.75 -17.8 Q0.15 -19.8 -2.25 -18.8 L-1.95 -17.3 Q-0.15 -17.1 1.15 -16.2 -2.25 -12.5 -2.25 -10.05 L-2.3 -9.6 M2.7 -14.7 Q4.2 -12.55 5.75 -12.55 7.0 -12.55 6.5 -13.0 L6.75 -13.75 4.15 -16.5 5.9 -17.95 Q7.4 -16.55 8.5 -16.55 9.3 -16.55 9.5 -17.0 L9.75 -17.75 7.9 -19.3 11.2 -20.85 12.65 -18.35 Q14.4 -15.45 14.75 -14.25 L15.4 -10.05 Q15.65 -8.65 16.0 -7.6 L15.75 -7.55 Q15.3 -7.5 13.95 -6.35 12.7 -5.3 9.65 -5.3 6.8 -5.3 3.2 -7.3 2.3 -7.8 0.25 -9.2 L0.25 -9.25 Q0.05 -11.9 2.5 -14.8 L2.7 -14.7" fill="#4e5963" fill-rule="evenodd" stroke="none"/>
    </g>
  </defs>
</svg>
