<?xml version="1.0" encoding="UTF-8" standalone="no"?>
<svg xmlns:ffdec="https://www.free-decompiler.com/flash" xmlns:xlink="http://www.w3.org/1999/xlink" ffdec:objectType="frame" height="243.6px" width="194.4px" xmlns="http://www.w3.org/2000/svg">
  <g transform="matrix(1.0, 0.0, 0.0, 1.0, 4.4, 72.6)">
    <use ffdec:characterId="878" height="149.45" transform="matrix(1.0, 0.0, 0.0, 1.0, 39.05, -38.5)" width="115.9" xlink:href="#shape0"/>
  </g>
  <defs>
    <g id="shape0" transform="matrix(1.0, 0.0, 0.0, 1.0, -39.05, 38.5)">
      <path d="M132.7 56.25 L132.75 57.45 132.8 61.35 130.0 59.95 129.8 59.7 132.25 57.6 132.7 56.25 M43.9 50.05 L43.9 49.5 44.05 49.85 43.9 50.05 M79.55 -33.55 L76.4 -33.55 79.55 -33.75 79.55 -33.55 M119.65 -18.4 L119.85 -18.65 120.2 -18.4 119.65 -18.4" fill="#026aa8" fill-rule="evenodd" stroke="none"/>
      <path d="M101.3 -9.25 L101.35 -9.25 101.4 -9.1 Q102.05 -7.8 102.35 -7.8 L102.9 -7.9 102.9 -8.05 102.95 -8.4 102.95 -9.0 102.45 -10.1 102.35 -10.55 102.35 -10.65 102.25 -10.85 102.05 -11.7 100.9 -16.0 Q100.05 -18.7 98.65 -20.45 L94.7 -24.3 90.0 -27.8 Q83.7 -32.5 81.1 -36.3 L80.95 -36.3 80.95 -36.25 80.9 -35.65 80.9 -35.35 80.8 -33.0 80.9 -29.2 80.95 -29.1 Q81.2 -27.35 82.4 -24.9 L82.05 -24.5 81.1 -24.3 Q80.0 -24.3 79.55 -24.75 L78.25 -25.55 78.0 -25.35 78.0 -24.8 78.0 -24.6 Q78.0 -23.25 78.65 -21.0 79.15 -19.35 79.75 -18.3 L80.3 -18.65 82.8 -21.0 83.1 -21.35 Q84.4 -22.55 85.25 -22.8 L85.35 -23.4 Q85.5 -23.95 85.9 -24.3 L86.8 -22.35 Q88.2 -19.95 91.4 -16.6 L95.3 -14.6 95.35 -14.6 97.6 -13.2 98.85 -12.2 100.85 -9.95 100.95 -9.95 101.3 -9.25 M79.55 -33.75 L79.55 -34.5 79.55 -35.35 79.55 -35.65 Q79.55 -37.35 79.85 -38.0 80.65 -39.9 84.0 -34.7 L84.85 -34.0 84.9 -33.95 85.0 -33.85 86.1 -32.9 88.4 -30.85 89.1 -30.2 Q92.65 -27.2 95.4 -25.8 97.5 -24.65 99.3 -21.95 L99.95 -20.95 101.2 -18.4 102.05 -16.4 102.7 -14.6 103.55 -11.9 103.65 -11.55 103.65 -11.4 104.0 -9.95 103.85 -9.95 103.85 -9.9 104.6 -7.45 105.3 -4.15 105.35 -4.0 105.45 -3.4 105.5 -3.1 105.4 -2.65 105.35 -2.65 105.4 -2.4 106.0 -0.2 106.05 -0.05 106.85 3.75 Q107.45 6.65 107.45 7.95 L107.35 8.4 107.25 8.45 107.3 8.55 107.3 8.6 Q108.05 9.25 108.35 10.25 L108.35 17.15 108.2 17.3 107.75 17.55 107.7 17.45 107.7 17.6 109.2 20.4 111.55 24.5 112.4 28.9 112.75 31.2 113.1 33.3 113.1 35.9 112.9 36.05 112.8 36.05 113.0 36.65 113.1 37.7 113.05 38.8 113.8 38.7 114.95 38.65 Q116.9 38.8 118.5 40.1 L120.0 42.0 120.05 42.05 Q120.9 43.5 121.6 43.3 L122.35 43.15 123.6 43.35 123.65 43.35 Q126.2 44.4 127.4 46.35 128.7 48.35 127.75 50.0 L131.9 52.5 132.55 53.4 132.75 55.0 132.75 55.05 132.75 55.15 132.7 56.25 132.25 57.6 129.8 59.7 129.65 59.8 130.0 59.95 132.8 61.35 134.65 62.3 135.1 62.65 Q136.6 64.15 139.4 68.1 L140.2 69.7 Q140.95 70.75 141.35 74.1 141.6 76.25 142.55 77.7 L142.55 77.75 143.2 78.25 144.4 79.15 145.75 79.95 149.35 81.25 Q152.7 82.6 152.7 83.2 152.7 86.55 150.75 89.2 L150.55 89.45 153.1 93.8 Q154.95 97.35 154.95 99.25 L154.8 100.7 154.2 101.3 Q151.45 102.65 149.2 104.35 148.3 105.05 145.25 106.4 140.9 108.4 138.15 108.4 L134.95 108.05 131.8 107.4 129.2 107.15 126.0 106.65 Q124.2 106.15 122.0 104.9 L118.05 103.2 116.35 102.1 Q113.7 103.25 110.25 104.3 L109.8 104.15 109.65 103.8 109.15 104.2 Q107.7 105.25 105.8 105.85 103.85 106.45 102.45 107.5 101.1 108.55 100.45 108.7 L98.5 108.7 98.35 108.6 98.25 108.05 97.65 108.1 94.25 108.4 Q89.05 108.4 83.75 105.95 80.15 104.3 78.2 102.5 76.8 101.25 72.55 99.25 L72.25 99.9 Q72.15 100.5 72.2 101.45 L72.25 103.25 72.1 103.4 71.65 103.65 70.7 101.95 69.5 100.15 69.4 100.15 Q69.55 101.6 68.75 103.75 L67.25 107.25 67.3 107.35 66.7 107.4 65.95 107.25 65.7 105.95 Q65.55 104.9 65.05 103.95 64.85 105.1 64.25 106.1 63.7 106.95 63.7 107.65 63.7 109.0 64.35 110.3 L64.25 110.7 63.55 110.95 Q63.15 110.95 61.5 109.95 L58.95 108.3 Q58.6 108.05 58.3 106.9 L57.85 104.95 57.7 104.8 55.25 107.3 54.1 108.45 53.75 108.85 52.7 109.9 52.6 109.95 Q51.95 109.25 52.0 107.4 L51.9 104.8 Q51.05 102.4 51.05 99.8 L51.35 97.6 49.8 97.65 Q45.95 97.65 43.9 96.8 42.0 96.1 41.2 94.45 40.6 93.15 40.55 90.7 L40.6 85.55 40.7 83.9 40.6 81.9 Q40.5 81.2 40.9 80.1 L41.35 78.95 Q39.95 78.65 39.35 73.2 L39.05 67.3 Q39.05 63.9 39.5 60.9 39.85 58.75 40.5 56.8 41.3 54.25 42.55 52.15 L42.7 51.9 43.9 50.05 44.05 49.85 46.15 47.55 Q46.95 46.7 47.9 46.0 48.35 45.6 48.95 45.3 L49.15 45.1 49.7 44.75 51.35 43.8 52.5 43.25 52.65 43.2 52.8 43.1 53.4 42.85 54.8 42.35 54.85 42.35 54.95 42.3 55.0 42.3 55.45 42.1 55.8 42.0 55.8 41.95 55.9 41.05 55.95 40.8 56.25 39.25 56.3 39.25 56.35 39.2 57.05 36.95 Q57.6 36.2 57.65 34.45 L57.4 34.25 57.65 33.9 Q57.7 33.15 58.0 32.7 L58.0 32.65 58.0 32.0 58.0 30.9 58.0 30.8 58.05 29.25 58.1 28.5 Q58.3 27.55 59.95 23.95 L60.15 23.4 Q60.5 22.75 61.0 22.05 61.9 20.8 63.0 19.9 63.95 19.2 64.7 18.05 64.35 17.15 64.3 15.85 L64.35 12.2 Q64.35 11.75 64.5 11.45 L64.35 11.2 63.75 10.8 63.3 10.45 62.3 9.7 Q61.85 9.4 60.8 9.1 L60.35 8.95 59.3 8.65 57.15 8.0 56.9 7.85 56.25 7.45 56.2 7.4 Q55.8 7.05 55.8 6.25 55.8 5.55 56.9 4.6 L58.0 3.55 58.0 3.5 57.6 2.65 56.4 1.85 56.2 1.75 55.55 1.45 55.5 1.45 55.25 1.35 54.5 1.0 53.9 0.75 53.65 0.65 52.0 -0.2 50.0 -1.75 49.6 -2.1 Q47.25 -4.05 47.25 -4.65 47.25 -5.35 47.95 -5.55 50.1 -6.0 51.35 -6.55 L47.95 -8.95 47.0 -9.75 46.8 -9.9 45.6 -11.1 44.75 -12.25 44.55 -12.5 43.7 -13.8 Q42.9 -15.1 42.45 -16.15 41.45 -18.3 41.2 -20.3 L45.9 -20.3 Q45.1 -21.75 44.65 -23.55 L44.05 -26.45 43.45 -29.15 Q42.8 -31.85 42.8 -32.5 L42.8 -32.55 Q42.8 -34.2 43.65 -34.2 L44.1 -34.05 46.0 -32.85 46.05 -32.8 46.2 -32.7 46.75 -32.2 47.5 -31.55 49.6 -29.5 Q51.15 -28.15 51.35 -27.45 L51.35 -27.35 51.4 -27.3 Q53.75 -25.65 55.1 -25.2 L55.15 -25.2 55.25 -25.15 55.3 -25.15 55.4 -25.1 Q56.25 -24.65 58.95 -23.9 L59.1 -23.85 64.3 -22.05 64.35 -22.05 64.45 -22.0 64.5 -22.0 64.65 -21.9 64.75 -21.85 64.9 -21.8 67.5 -20.4 67.75 -20.2 67.8 -20.2 68.2 -19.95 70.95 -18.0 71.65 -17.45 74.8 -14.8 76.75 -16.45 78.5 -17.5 Q78.1 -18.05 77.8 -19.0 L77.6 -19.7 77.25 -21.7 77.15 -21.9 77.15 -22.0 76.7 -23.55 76.7 -27.15 76.75 -27.3 77.35 -27.45 78.55 -27.05 79.85 -26.45 80.05 -26.35 Q80.2 -26.3 80.2 -26.8 L80.15 -27.55 79.9 -29.5 79.85 -29.75 79.85 -29.9 79.8 -30.55 79.55 -33.0 79.55 -33.55 79.55 -33.75 M58.05 -22.6 L55.95 -23.3 55.75 -23.4 Q54.35 -23.9 53.5 -24.3 51.25 -25.35 49.75 -27.05 48.8 -27.6 47.0 -29.5 L44.15 -32.7 44.1 -32.7 44.05 -32.2 44.7 -29.0 45.35 -25.7 Q45.35 -23.75 46.75 -21.6 L48.2 -19.4 48.2 -19.35 48.15 -18.9 48.05 -18.65 45.6 -18.75 42.85 -19.05 42.8 -19.05 42.85 -19.0 42.85 -18.85 42.9 -18.75 43.15 -17.95 43.2 -17.9 44.2 -15.25 Q45.2 -13.0 46.7 -11.45 47.75 -10.35 51.25 -8.1 L53.65 -6.65 53.85 -6.55 54.0 -6.45 54.5 -6.1 54.55 -6.1 54.5 -5.55 54.4 -5.35 52.7 -5.2 49.45 -4.8 49.4 -4.7 49.05 -4.55 48.9 -4.45 48.95 -4.4 51.0 -2.5 Q52.85 -0.95 53.95 -0.65 55.95 -0.2 57.7 1.3 L60.95 3.45 61.05 3.4 61.15 3.5 61.2 3.9 59.8 4.75 57.25 6.2 57.45 6.35 57.6 6.45 61.5 8.0 Q63.65 8.75 64.8 10.0 L65.05 9.7 65.3 9.5 65.6 9.35 66.3 8.9 66.45 8.8 Q67.7 8.15 69.6 7.45 L69.75 7.4 70.35 7.2 71.1 6.95 71.35 6.9 72.9 6.45 73.3 6.3 74.45 6.0 75.95 5.7 76.15 5.6 77.75 5.35 78.6 5.15 78.7 5.15 81.05 4.8 83.4 4.55 83.5 4.55 83.45 4.4 82.5 0.75 82.45 0.6 82.4 0.45 81.6 -2.35 81.5 -2.7 81.4 -2.85 81.1 -3.8 81.05 -3.95 81.05 -4.0 Q78.85 -9.55 74.4 -13.65 L71.95 -15.55 68.7 -17.75 67.75 -18.75 67.7 -18.8 67.4 -19.15 66.5 -19.65 62.4 -21.25 58.05 -22.6 M75.75 -14.15 L75.65 -14.1 75.9 -13.9 77.75 -12.15 77.8 -12.2 77.85 -12.2 77.9 -12.25 77.9 -12.3 78.0 -12.35 78.1 -12.5 78.15 -12.5 78.25 -12.6 78.35 -12.65 78.4 -12.7 78.5 -12.75 78.6 -12.8 78.65 -12.9 78.75 -12.95 82.45 -13.55 83.1 -13.5 83.45 -13.4 83.55 -13.4 84.7 -13.1 85.9 -12.65 89.6 -10.55 92.5 -7.6 95.05 -4.65 Q97.1 -2.45 98.85 1.2 L100.15 4.1 101.3 6.75 101.45 6.8 101.45 6.7 100.9 4.35 100.15 -0.35 99.0 -4.35 Q98.2 -6.7 97.2 -8.2 95.8 -10.3 89.9 -16.4 86.55 -19.85 85.6 -21.6 L85.6 -21.55 85.55 -21.55 85.55 -21.5 84.85 -20.7 82.55 -18.7 80.65 -17.35 75.75 -14.15 M85.55 -11.6 L85.15 -11.75 80.15 -11.55 78.5 -11.3 Q80.8 -8.55 82.15 -4.85 L83.5 -0.8 83.5 -0.75 83.55 -0.6 83.7 0.0 84.4 2.35 85.15 4.4 85.55 4.4 86.55 4.3 Q90.15 4.0 93.7 4.4 L94.0 4.5 94.55 4.55 96.3 4.85 96.85 5.0 96.85 4.95 99.35 5.85 98.2 3.4 95.0 -2.9 90.15 -8.05 90.05 -8.15 89.0 -9.25 Q88.1 -10.1 87.1 -10.5 L86.1 -11.15 85.55 -11.6 M101.9 -6.55 L101.6 -7.0 101.15 -7.65 101.1 -7.2 100.65 -7.9 99.1 -10.1 97.3 -11.5 95.4 -12.45 98.25 -9.0 100.15 -5.15 101.4 -1.15 101.85 0.5 101.85 0.55 101.9 0.75 101.95 1.0 102.65 6.45 102.65 6.95 102.6 7.15 104.35 7.65 104.45 7.55 104.85 7.4 105.9 7.6 Q105.6 6.65 105.4 4.85 L104.9 -0.3 104.85 -0.35 104.85 -0.4 104.55 -1.15 104.5 -1.3 104.3 -1.75 103.85 -2.75 102.95 -4.8 102.2 -6.1 101.9 -6.55 M125.75 46.35 L124.6 45.6 123.5 45.0 122.6 44.45 121.9 44.25 Q121.2 44.1 120.2 44.25 L119.95 44.3 119.9 44.3 Q119.0 44.3 118.85 43.5 L118.5 42.3 118.1 41.65 Q117.75 41.15 117.45 41.15 L114.9 40.95 112.9 40.9 112.8 41.65 Q113.95 41.7 114.75 42.1 L114.85 42.15 Q115.8 42.7 116.25 43.75 116.6 44.6 116.6 46.2 L116.85 46.25 116.9 46.25 116.85 46.45 118.6 47.15 118.9 47.3 119.15 47.5 119.2 47.55 119.35 47.65 119.9 48.05 120.25 48.45 120.4 48.6 120.5 48.7 120.5 48.8 121.25 50.3 121.35 51.0 121.35 51.1 121.7 51.75 121.75 51.95 121.85 52.15 123.1 54.9 123.1 54.95 123.15 55.05 123.15 55.1 123.2 55.95 123.3 55.95 Q124.1 56.25 124.75 56.65 125.6 57.1 126.1 57.65 L126.65 58.65 128.55 59.3 129.15 58.65 129.45 58.4 129.45 58.35 129.7 58.1 129.9 57.9 Q131.5 56.3 131.5 55.15 131.5 54.3 131.1 53.7 L130.4 52.85 Q129.0 51.8 125.8 51.45 L125.7 51.4 125.6 51.35 125.5 50.8 126.1 49.6 126.75 48.4 Q126.75 47.2 125.95 46.5 L125.75 46.35 M103.85 0.1 L104.05 0.85 103.7 0.0 103.85 0.1 M105.05 9.3 L105.0 9.15 104.9 9.0 104.55 9.5 Q103.5 8.95 102.2 8.45 L101.0 7.95 97.45 6.8 96.25 6.55 95.95 6.5 94.1 6.15 93.95 6.1 92.2 5.85 88.25 5.7 Q82.75 5.7 77.85 6.65 L77.75 6.7 77.55 6.75 76.95 6.9 Q73.9 7.55 71.1 8.6 L70.8 8.7 Q68.4 9.65 66.7 10.55 L65.65 11.2 65.75 11.6 65.45 11.8 65.9 13.45 65.95 15.8 65.9 17.6 66.1 17.65 67.3 17.2 71.35 16.05 71.5 16.05 72.4 15.85 76.95 14.85 78.15 14.65 86.85 13.6 Q89.85 13.5 93.0 13.7 L94.9 13.8 96.65 14.05 96.7 14.05 96.85 14.05 97.2 14.1 97.6 14.15 100.05 14.45 102.9 14.95 102.95 15.0 103.05 15.0 103.7 15.15 103.85 15.2 104.1 15.25 105.25 15.55 105.4 15.55 105.5 15.6 105.55 15.6 105.9 15.3 106.15 15.65 106.25 15.6 106.45 15.45 106.55 15.4 107.2 16.15 107.1 15.0 107.15 12.5 Q107.1 11.05 106.45 10.25 L106.25 10.0 Q105.8 9.5 105.1 9.2 L105.2 9.5 105.05 9.3 M103.5 18.95 L103.55 18.85 103.65 18.5 Q103.65 17.75 102.9 17.3 L102.5 17.1 102.4 17.1 101.05 17.55 100.45 17.85 99.9 18.05 99.85 18.05 98.25 18.45 98.35 18.75 98.5 18.8 99.0 19.05 99.05 19.05 99.45 19.1 99.55 19.2 Q100.05 20.1 101.1 20.1 102.2 20.1 102.95 19.4 L103.5 18.95 M106.6 19.35 L106.05 16.9 106.0 16.9 105.7 16.9 105.05 16.85 104.9 17.3 104.9 19.35 104.85 20.15 104.85 20.35 104.55 23.35 104.25 27.4 Q104.25 28.15 104.7 28.6 104.55 29.05 104.55 29.55 104.55 30.3 105.0 31.1 L105.2 32.9 105.2 33.05 105.2 33.8 105.2 35.2 105.2 37.3 105.6 37.35 106.4 37.6 106.6 37.65 106.55 37.25 106.45 35.2 Q106.45 34.7 106.6 34.15 L106.25 34.05 106.2 34.0 106.15 32.9 106.25 28.6 Q106.35 27.1 106.6 26.3 L106.6 26.15 106.8 23.9 106.7 20.3 106.7 20.15 106.7 19.8 106.6 19.35 M110.85 41.55 L111.55 41.6 111.55 40.8 111.55 40.75 111.2 40.6 111.2 40.2 Q111.2 39.85 111.6 39.45 L111.75 37.65 111.95 36.4 111.9 36.4 111.55 36.2 111.6 35.9 111.85 34.65 Q111.4 33.25 111.2 31.25 L110.55 25.85 Q110.35 24.6 108.05 20.8 L108.05 23.95 107.95 25.85 107.9 26.5 107.75 26.5 107.6 26.5 107.6 26.6 107.7 27.15 107.7 27.25 107.7 27.3 107.75 28.8 107.6 31.25 107.5 32.7 107.5 32.75 107.75 32.75 107.75 34.3 107.75 34.85 Q107.7 36.4 108.05 36.8 L108.05 38.65 107.95 38.75 108.3 39.15 Q108.95 39.85 109.05 40.45 L109.1 41.2 109.15 41.25 110.85 41.55 M84.25 17.95 L84.3 18.25 Q84.7 19.1 86.35 19.1 L88.0 18.8 88.05 18.8 88.25 18.8 88.35 18.8 89.1 18.75 Q90.15 18.6 90.3 17.9 L90.2 17.85 89.4 17.55 88.35 17.1 86.95 16.35 86.05 15.95 84.95 16.2 Q84.3 16.65 84.3 17.5 L84.25 17.7 84.25 17.95 M82.3 17.45 L82.45 16.05 82.5 15.45 77.3 16.35 76.2 21.45 74.8 28.15 Q74.8 29.3 75.1 30.75 L75.05 31.25 75.2 32.25 75.1 33.35 Q75.1 34.35 75.75 35.05 L75.75 35.15 75.9 35.3 75.95 35.35 76.2 35.7 76.4 35.95 77.25 37.25 77.45 38.15 77.8 39.2 Q78.4 40.5 80.8 40.8 L81.1 34.4 81.1 29.7 80.8 29.45 80.8 27.2 80.95 24.55 81.1 22.2 81.1 21.7 81.25 21.5 Q81.95 19.95 82.3 17.45 M102.95 37.75 L104.05 37.45 104.0 37.0 103.95 35.45 Q103.8 34.85 103.8 34.15 L103.9 33.2 103.4 31.7 103.2 30.7 103.15 30.55 103.05 30.15 102.65 28.7 102.35 28.05 101.75 26.85 Q100.95 26.35 99.5 24.4 98.95 24.2 98.25 23.5 L95.4 23.45 93.95 23.4 90.9 23.95 90.7 24.0 Q89.15 24.75 88.5 26.35 L88.1 27.6 87.8 29.4 87.75 29.85 87.7 29.95 87.7 30.0 87.65 30.3 87.6 30.65 87.15 32.9 Q86.65 34.7 86.3 37.6 L86.25 38.15 86.3 38.15 86.5 38.75 86.2 39.1 86.15 39.1 86.1 39.85 86.2 39.8 87.1 39.6 87.2 39.6 87.45 39.65 87.65 39.7 87.7 39.75 87.75 39.75 87.85 39.9 88.0 40.1 88.65 40.6 88.75 40.65 88.75 40.15 88.9 39.1 88.95 39.05 88.95 38.95 89.0 38.8 89.05 38.7 89.7 37.95 93.35 34.25 93.4 34.15 94.2 32.75 94.3 32.45 94.35 32.4 94.75 31.3 94.9 30.85 Q95.2 30.0 95.6 29.4 L95.65 29.25 95.7 29.25 95.9 28.95 96.6 28.35 96.65 28.3 96.7 28.3 97.1 28.45 Q97.3 28.55 97.3 28.95 L97.3 29.0 97.3 29.05 97.3 29.1 97.15 29.6 97.0 30.1 96.55 30.95 96.5 31.1 96.0 32.1 95.8 32.5 95.45 33.2 95.6 33.35 97.5 35.6 99.45 38.0 100.0 39.05 100.05 38.95 99.95 38.45 100.0 38.45 100.15 38.75 100.2 38.8 100.5 38.6 100.6 38.5 100.75 38.45 100.8 38.45 101.6 38.2 102.05 38.05 102.15 38.0 102.3 38.0 102.95 37.75 M96.85 21.95 L96.7 21.95 96.85 22.0 96.85 21.95 M97.2 37.3 L95.35 35.5 94.65 34.65 94.0 35.6 91.7 37.9 93.8 38.0 96.25 37.6 97.2 37.45 97.35 37.45 97.2 37.3 M86.5 28.9 L86.65 28.3 86.65 28.2 86.7 28.15 86.7 28.0 86.8 27.6 86.85 27.3 87.45 25.6 87.65 25.25 87.35 25.3 84.15 26.45 82.1 27.2 82.1 28.8 82.35 29.25 82.3 29.25 82.4 29.45 82.45 29.55 82.5 29.75 82.55 29.85 82.55 30.0 82.6 30.25 82.6 30.45 82.65 31.35 82.65 31.85 82.65 31.95 82.6 33.0 82.4 34.1 82.45 36.1 82.45 37.55 84.9 37.9 85.2 36.2 86.1 31.45 86.2 30.8 86.25 30.8 86.25 30.65 86.5 28.95 86.5 28.9 M86.7 43.85 L87.05 43.8 87.1 43.65 Q88.1 43.55 88.3 43.3 L88.25 42.75 88.1 42.15 87.75 42.1 87.65 41.7 87.55 41.6 87.45 41.6 86.65 41.65 86.3 41.65 85.4 41.85 Q85.25 41.95 85.25 42.45 L85.25 42.85 85.15 42.75 84.9 43.6 84.9 43.75 85.85 43.75 85.95 43.8 86.35 43.85 86.7 43.85 M89.5 43.3 L89.2 43.45 Q88.9 44.0 88.75 44.75 88.55 45.7 88.65 47.1 L88.7 48.3 Q89.25 46.2 90.25 44.7 92.7 40.95 97.5 42.6 L98.1 41.65 98.95 40.35 98.55 39.5 98.2 38.65 97.75 38.85 Q96.4 39.4 93.8 39.4 L90.5 39.15 Q89.4 40.7 89.9 42.0 L89.85 42.05 89.75 42.7 89.7 42.8 89.7 43.1 89.5 43.3 M82.2 41.95 L82.3 42.7 Q82.3 43.15 83.55 44.55 L83.65 44.6 83.7 44.7 83.65 44.55 83.75 44.4 83.65 44.25 83.6 43.6 83.65 43.3 83.75 41.95 Q83.95 41.25 84.6 40.75 L84.75 39.4 82.35 39.05 82.15 41.75 82.1 41.8 82.2 41.95 M85.2 45.05 L84.9 49.55 Q85.0 52.85 87.15 52.85 87.45 51.9 87.4 48.05 87.35 46.15 87.75 45.0 L86.05 45.1 85.2 45.05 M83.75 53.1 Q83.55 52.55 83.65 51.65 L84.0 48.55 84.05 47.7 82.45 45.65 Q80.8 43.35 80.3 42.25 L79.7 42.15 81.75 45.6 Q82.1 46.65 82.1 49.7 L81.95 52.7 81.8 53.2 Q81.05 54.9 78.9 54.9 L77.3 54.6 78.65 55.4 78.8 55.6 80.1 56.35 82.85 58.25 85.6 60.65 85.8 59.1 86.2 57.15 86.1 55.6 86.1 55.5 86.3 54.6 86.25 54.25 Q84.6 54.2 84.0 53.6 L83.75 53.1 M107.75 69.15 L109.4 69.25 112.65 69.3 114.65 69.25 115.5 69.15 116.85 68.75 117.65 68.25 Q118.05 68.0 118.5 67.9 L118.55 67.9 Q118.85 66.05 121.05 62.95 121.65 62.1 121.85 60.7 L122.0 58.25 122.0 56.7 121.7 55.15 120.95 53.65 120.4 52.05 Q120.2 50.65 118.15 49.15 L116.65 47.85 Q115.7 47.45 115.45 46.75 L115.35 46.25 115.15 44.75 Q114.9 43.9 114.05 43.5 L113.8 43.4 112.2 43.2 110.45 43.45 109.8 43.45 108.75 42.9 108.5 42.65 108.05 41.6 107.2 39.95 Q106.45 38.85 106.0 38.85 L105.85 38.85 Q101.9 38.9 100.15 40.6 L100.15 40.65 100.05 41.05 99.85 41.15 99.55 41.25 Q99.0 42.0 98.55 43.05 L98.65 43.05 98.7 43.15 98.55 43.6 98.55 43.65 98.25 43.8 98.2 44.0 97.35 46.2 97.0 46.35 96.95 46.35 Q96.4 45.7 96.35 45.45 L96.3 45.35 Q96.3 44.9 96.85 43.85 L95.55 43.65 Q94.1 43.65 93.05 44.2 92.6 44.4 92.2 44.75 L92.15 44.75 Q90.65 45.95 89.95 48.4 L89.9 48.5 89.85 48.85 89.75 49.05 89.8 49.05 Q89.25 51.2 89.4 53.65 89.4 57.15 89.75 58.5 90.35 60.35 91.65 61.1 L91.75 61.3 92.05 61.5 92.2 62.0 92.8 62.6 92.8 62.65 92.7 62.7 92.7 62.75 93.4 62.9 94.6 64.0 96.65 64.9 97.65 65.3 98.2 65.95 Q98.65 66.3 99.3 66.45 L99.4 66.6 101.35 67.75 Q103.7 68.75 107.75 69.15 M94.35 80.65 L94.85 80.95 94.9 80.95 96.45 82.05 97.65 82.5 99.6 82.95 104.6 83.05 106.8 83.05 112.45 82.95 112.75 82.95 114.95 82.7 115.25 82.65 115.25 82.55 115.8 82.45 116.0 82.5 116.0 82.45 116.3 77.7 Q116.4 76.1 117.3 72.95 L118.2 69.45 117.0 70.0 116.65 70.05 115.25 70.45 114.8 70.55 114.15 70.65 113.45 70.7 113.25 70.75 112.95 70.75 112.8 70.75 112.5 70.75 112.45 70.75 112.3 70.75 112.2 70.75 111.25 70.75 108.8 70.7 104.15 70.15 Q103.55 70.0 102.05 69.1 L98.25 67.2 96.1 66.1 96.05 66.05 95.75 65.9 95.05 65.55 94.85 65.4 94.8 65.4 94.65 65.3 92.8 64.25 92.25 67.0 91.5 70.0 89.85 72.9 Q88.35 75.15 88.1 75.9 L88.1 75.95 88.7 76.75 90.0 78.1 90.15 78.2 91.2 78.95 91.85 79.3 93.05 79.95 93.25 80.1 94.25 80.6 94.35 80.65 M118.75 72.5 L118.5 73.45 118.25 74.4 118.95 75.0 119.15 75.3 Q120.05 76.4 120.55 76.4 126.4 76.4 126.4 69.45 L126.3 68.2 126.2 67.6 126.15 67.35 126.1 66.8 126.1 66.6 125.9 65.0 125.8 62.6 Q125.85 60.9 124.55 59.05 L123.25 57.25 123.25 58.1 123.25 60.75 Q123.1 62.05 122.45 63.45 L121.0 65.9 Q119.95 67.45 119.75 68.45 L118.75 72.5 M87.8 54.1 L87.35 54.85 87.45 55.45 87.45 56.85 87.45 59.25 Q87.25 60.75 86.6 61.4 L86.3 61.55 86.8 62.45 90.95 67.05 91.35 65.05 91.65 63.65 91.55 63.55 91.25 63.35 91.25 63.1 90.95 62.5 Q88.7 61.65 88.1 58.35 87.8 56.9 87.95 55.2 L88.1 53.8 88.1 53.75 87.95 53.85 87.75 54.0 87.8 54.1 M84.15 61.4 L84.55 61.4 84.3 61.25 80.5 58.4 Q80.15 58.1 79.0 57.5 L78.8 57.4 77.9 57.0 77.8 56.95 77.7 56.85 77.6 56.8 77.15 56.55 76.65 56.8 74.15 57.65 73.15 58.4 71.8 59.4 69.3 61.15 67.2 62.75 62.45 66.35 59.85 68.8 59.35 69.4 58.55 70.35 58.4 70.6 Q55.0 75.35 53.65 79.3 L53.6 79.4 53.6 79.55 53.5 79.7 53.15 80.95 53.0 81.6 Q52.3 84.5 52.3 87.95 52.3 88.85 52.95 90.3 L52.95 91.35 53.25 92.3 53.25 93.6 Q53.25 94.95 52.75 96.85 52.3 98.7 52.3 99.8 52.3 101.4 52.9 103.1 53.45 104.6 53.25 107.25 L53.35 107.35 55.9 104.95 Q57.4 103.4 57.6 102.5 L57.55 102.45 58.0 102.35 Q58.75 102.35 59.05 103.75 L59.45 105.85 Q59.75 106.8 60.6 107.55 61.4 108.2 62.45 108.55 L62.55 106.7 Q62.55 105.4 63.05 104.5 L63.5 102.4 63.5 102.25 Q63.65 101.15 64.35 100.8 65.05 101.25 65.5 102.2 L65.65 102.5 Q66.2 103.7 66.8 104.2 67.8 102.95 68.05 101.15 L68.25 97.95 68.25 97.8 68.35 97.7 68.95 97.65 69.55 97.8 70.2 98.6 70.95 99.75 71.35 98.7 72.3 96.15 72.5 95.55 72.75 94.9 72.75 94.85 73.0 94.3 73.05 94.1 73.1 93.9 73.3 93.4 73.35 93.35 73.65 92.55 73.65 92.45 Q74.75 89.3 74.45 87.8 L74.55 87.65 75.1 87.55 Q75.65 87.55 76.05 88.2 L76.55 89.1 76.7 89.1 76.65 88.15 76.2 85.45 Q75.75 83.15 75.75 82.0 75.75 79.65 75.9 79.0 76.2 77.3 77.35 76.4 L77.65 76.15 Q78.15 76.55 78.45 77.45 L79.05 78.85 79.7 77.2 80.6 74.6 Q81.55 71.85 82.55 70.6 L82.75 70.45 83.4 71.05 83.65 71.75 83.85 71.3 83.95 71.25 83.95 71.2 84.7 69.05 Q85.15 67.45 84.8 66.3 L84.6 65.85 84.75 65.5 85.4 65.35 85.65 65.4 85.75 65.4 86.25 65.65 86.4 65.9 86.65 66.2 86.85 66.6 86.85 66.45 86.9 66.05 87.15 66.3 87.5 66.2 87.7 66.05 87.7 65.95 87.75 65.5 87.75 65.35 87.75 65.0 87.75 64.95 87.7 64.95 87.7 64.9 87.55 64.85 87.45 64.85 87.45 64.65 85.75 62.6 Q85.1 62.0 84.4 61.75 L84.15 61.4 M86.5 76.3 L87.15 74.75 88.2 73.25 89.3 71.45 90.6 68.4 90.35 68.2 88.55 66.2 88.75 68.2 88.7 68.7 88.65 68.95 88.55 69.05 87.95 69.15 87.35 69.1 87.0 68.75 86.5 67.9 84.5 74.15 84.3 74.75 83.8 74.85 83.3 74.75 82.9 74.3 82.8 73.3 Q81.35 75.4 80.5 79.25 L80.2 80.85 80.1 81.0 Q80.05 81.2 79.55 81.2 79.15 81.2 78.85 80.9 L78.25 80.1 77.4 78.5 Q77.0 79.7 77.0 81.95 L77.1 84.9 Q77.25 86.45 77.95 87.75 L78.0 87.8 78.0 88.85 78.0 90.85 78.0 93.15 77.9 93.3 Q77.8 93.5 77.4 93.5 L77.35 93.5 76.95 93.25 76.35 92.2 76.1 91.75 75.7 90.8 75.65 90.7 75.65 90.65 75.6 90.55 75.6 90.6 75.55 90.65 74.75 93.6 73.85 96.85 73.25 97.95 73.45 98.1 76.25 99.5 77.75 100.4 78.9 101.2 79.0 101.3 79.05 101.35 Q81.65 103.4 84.75 104.8 89.45 106.95 94.25 106.95 L98.45 106.75 98.65 107.15 98.65 107.2 98.75 107.15 98.8 107.25 99.4 107.3 99.9 107.25 100.0 107.25 102.35 106.0 103.85 104.85 105.55 104.15 Q108.4 103.0 108.95 102.5 L113.25 98.5 114.1 97.05 Q114.2 96.15 114.6 94.75 L115.25 92.4 115.65 89.95 115.95 87.45 116.0 83.95 115.95 83.95 111.65 84.2 111.45 84.2 111.3 84.2 109.9 84.3 109.35 84.3 109.0 84.3 107.15 84.35 107.05 84.35 105.8 84.35 104.05 84.35 103.05 84.35 98.8 84.15 97.85 84.05 97.3 83.95 97.2 83.95 Q96.4 83.7 95.15 82.9 L93.55 81.9 91.9 80.85 89.0 78.9 87.5 77.4 84.95 82.45 Q84.0 84.1 84.0 87.5 84.0 89.65 84.6 91.4 85.6 94.05 87.8 94.7 L89.4 94.95 89.7 94.95 Q91.85 94.8 92.9 93.3 L93.65 92.25 Q94.0 91.7 94.45 91.65 L94.75 91.7 94.9 91.7 95.0 91.8 95.05 92.25 Q95.05 93.45 93.35 94.85 L92.35 95.55 92.35 95.5 92.3 95.55 92.2 95.6 92.05 95.7 89.9 96.3 89.4 96.35 Q86.9 96.35 85.15 94.7 L84.75 94.3 83.7 92.9 83.4 92.35 83.35 92.25 83.25 92.05 Q82.85 91.5 82.75 89.9 L82.75 87.75 82.75 87.45 82.8 84.95 82.9 84.15 82.9 84.05 Q83.05 83.05 83.55 82.15 L84.9 79.75 85.0 79.6 86.4 76.55 86.55 76.3 86.5 76.3 M125.5 80.25 L125.15 77.05 125.2 76.55 125.0 76.15 124.55 76.45 Q122.6 77.7 121.35 77.7 119.6 77.7 118.25 76.45 L117.9 76.1 117.55 78.4 Q117.2 81.75 117.1 88.4 L117.05 88.9 117.15 88.85 117.15 88.9 Q117.0 91.1 116.25 94.75 L115.7 97.6 114.15 99.4 111.55 102.0 112.65 101.65 Q116.85 100.4 117.55 99.95 L117.65 99.95 120.55 98.2 Q122.3 96.9 122.95 95.8 L125.3 90.9 Q126.1 88.6 126.1 86.05 L125.65 81.35 125.5 80.25 M135.45 64.9 Q134.35 63.7 133.1 63.15 131.7 62.55 129.35 61.15 L127.0 59.75 127.05 61.8 127.5 66.2 127.7 69.4 127.65 71.6 126.75 74.4 126.2 75.2 126.25 75.25 127.0 76.45 128.85 79.9 128.85 79.95 129.0 80.15 130.0 81.6 130.15 81.8 130.25 81.9 Q132.05 84.05 134.4 84.75 L136.7 85.1 Q138.2 85.1 139.15 84.45 L140.15 83.2 140.2 83.2 140.35 82.75 140.65 81.1 140.65 80.35 140.4 76.75 140.35 76.25 140.2 75.4 140.2 75.3 140.05 74.7 139.4 71.7 139.3 71.4 138.3 69.1 138.3 69.05 138.25 69.0 138.25 68.95 138.2 68.9 138.2 68.85 138.05 68.7 136.15 65.75 135.45 64.9 M141.95 81.1 L141.9 81.1 141.9 81.25 141.5 83.05 141.35 83.4 141.15 83.8 140.4 85.0 Q139.1 86.55 136.9 86.55 135.15 86.55 133.55 85.9 132.0 85.25 130.55 84.05 L129.6 83.1 128.3 81.7 128.0 81.35 126.8 79.6 126.85 80.4 127.15 83.65 127.35 86.05 127.15 89.35 127.15 89.4 127.35 89.35 Q127.4 89.35 128.9 90.05 L130.85 90.85 131.45 91.1 133.65 91.6 134.8 91.75 139.9 92.05 140.5 92.05 Q144.75 92.05 147.4 90.4 148.65 89.6 149.55 88.4 L149.65 88.3 149.7 88.25 150.8 86.0 150.85 85.9 151.15 83.95 Q151.15 83.6 148.6 82.55 L145.1 81.2 Q143.65 80.65 142.65 79.9 L142.2 79.45 142.15 79.6 141.95 79.95 141.95 80.6 141.95 81.1 M127.0 90.25 Q125.85 95.65 121.75 98.95 120.25 100.2 117.9 101.35 L119.1 102.0 123.25 103.95 Q126.0 105.05 130.75 106.0 L138.25 106.95 Q141.45 106.95 147.65 103.7 153.65 100.55 153.65 99.25 153.65 98.5 151.6 94.6 150.0 91.6 149.65 90.5 146.5 93.5 140.5 93.5 L136.35 93.3 131.7 92.7 129.65 92.55 Q129.0 92.55 128.3 91.85 L127.5 91.05 127.0 90.25 M64.8 19.8 L64.25 20.4 63.15 21.5 63.15 21.55 63.1 21.55 62.25 22.9 62.05 23.2 61.8 23.6 60.55 25.85 Q59.65 27.6 59.35 30.25 59.2 31.85 59.3 34.65 L58.95 34.65 58.95 34.85 58.15 38.8 57.5 41.55 59.65 41.05 60.3 40.9 61.2 40.8 61.3 40.75 61.2 40.5 61.15 40.4 60.95 39.6 60.95 39.55 60.95 39.45 60.9 39.05 60.85 38.8 60.85 36.25 Q60.6 35.35 60.65 34.65 60.65 34.15 60.9 33.8 61.05 32.45 62.45 29.5 L64.35 25.3 65.1 20.9 65.4 19.5 65.55 19.05 65.5 19.05 65.15 19.4 65.0 19.6 64.8 19.8 M70.15 21.65 L70.35 19.85 70.35 18.0 67.1 18.85 66.35 22.6 65.3 26.8 64.3 28.95 63.1 31.05 Q62.45 32.2 62.25 33.3 L62.25 33.35 62.2 34.7 62.15 36.4 62.45 38.45 62.75 40.45 62.75 40.6 62.8 40.6 62.85 40.6 62.95 40.55 63.4 40.5 63.65 40.4 63.95 40.4 65.15 40.35 65.75 40.35 67.25 40.35 67.2 39.6 67.2 38.75 67.15 38.75 67.2 38.15 Q67.2 37.15 66.8 36.5 L67.2 36.85 Q67.2 33.65 67.45 32.45 L69.1 25.55 69.85 22.85 69.85 22.7 70.0 22.25 70.15 21.65 M72.05 17.55 L71.95 17.6 71.95 17.85 71.9 18.05 70.65 25.45 70.2 27.1 Q68.45 33.75 68.45 37.3 68.45 39.75 69.05 41.2 69.95 43.2 72.75 45.65 74.15 46.85 75.3 48.9 L75.4 49.1 75.5 49.3 75.8 49.85 76.05 50.45 76.25 50.95 77.25 52.75 Q77.85 53.5 78.75 53.5 80.45 53.5 80.8 51.6 L80.9 50.3 80.8 49.7 Q80.8 47.4 80.35 46.05 80.0 44.9 79.05 43.65 L76.85 40.75 74.75 37.3 74.7 37.25 74.65 37.15 74.15 36.35 74.0 36.05 73.85 35.65 73.85 32.4 Q73.5 31.45 73.5 28.15 73.5 26.3 73.95 24.8 L74.75 22.05 75.05 20.9 75.1 20.8 75.85 16.75 75.85 16.65 75.7 16.65 75.65 16.7 74.55 16.95 74.35 17.0 74.05 17.1 73.95 17.1 73.7 17.15 72.05 17.55 M42.85 74.1 L44.0 71.25 Q45.25 67.95 48.1 64.65 L49.8 62.75 51.2 61.35 51.3 61.25 52.75 60.05 53.95 59.2 54.35 58.95 54.7 58.8 Q54.85 58.7 54.95 58.7 L56.25 57.7 Q56.75 57.35 57.3 57.1 59.65 55.75 64.1 54.55 L66.3 54.0 68.05 53.55 68.65 53.45 69.05 53.35 71.65 52.85 73.7 52.8 75.0 52.95 75.4 52.95 75.55 53.0 75.45 52.7 75.45 52.65 75.1 51.75 75.05 51.05 74.6 49.7 74.15 49.15 72.3 47.0 70.65 45.1 70.6 45.05 70.4 44.9 70.1 44.7 70.05 44.65 70.0 44.6 69.05 43.55 68.2 42.5 67.6 41.6 66.95 41.6 62.4 41.85 62.0 41.9 61.85 41.9 Q56.65 42.55 52.7 44.45 49.3 46.1 46.8 48.7 45.3 50.25 44.15 52.15 40.3 58.4 40.3 67.35 40.3 70.5 40.65 72.05 L41.85 77.05 41.9 77.15 41.9 77.05 41.9 77.0 41.95 76.85 42.5 75.05 42.6 74.85 42.85 74.1 M75.75 55.05 L75.7 54.0 75.65 54.0 74.3 54.1 69.5 54.45 67.2 54.9 Q67.0 54.95 65.3 55.55 L62.55 56.65 59.45 57.8 Q57.7 58.3 56.2 59.45 L55.5 60.05 55.05 60.5 55.0 60.5 52.0 63.15 51.85 63.1 49.15 65.3 48.9 65.5 48.25 66.45 46.95 68.65 46.8 68.85 45.55 71.25 45.2 72.0 45.1 72.15 Q42.45 78.5 42.1 80.05 41.9 81.25 41.9 85.7 L41.95 91.05 Q42.1 93.2 42.8 94.2 43.5 95.35 45.2 95.8 L45.3 95.85 45.3 95.8 49.2 96.2 49.95 96.2 51.65 96.1 51.75 95.4 Q52.25 92.9 51.85 91.7 L51.1 90.05 51.05 88.05 Q51.05 86.05 51.2 84.35 L51.6 81.7 51.65 81.7 Q51.85 80.35 52.3 79.15 53.25 76.15 55.6 72.45 L55.9 72.0 57.15 70.15 Q58.15 68.65 59.35 67.3 L59.6 67.1 61.05 65.6 Q62.7 64.05 64.7 62.6 L65.6 61.95 72.3 57.1 72.45 57.0 72.55 56.95 Q73.65 56.25 74.5 55.8 L74.75 55.7 75.55 55.35 75.7 55.3 75.8 55.3 75.95 55.25 75.75 55.05" fill="#000000" fill-rule="evenodd" stroke="none"/>
      <path d="M124.6 45.6 L123.25 47.1 122.1 48.8 121.25 50.3 120.5 48.8 120.5 48.7 120.4 48.6 120.25 48.45 119.9 48.05 119.35 47.65 119.2 47.55 121.9 44.25 122.6 44.45 123.5 45.0 124.6 45.6 M121.7 51.75 L122.6 51.0 121.85 52.15 121.75 51.95 121.7 51.75 M125.8 51.45 Q129.0 51.8 130.4 52.85 L131.1 53.7 130.45 54.2 127.0 55.6 124.75 56.65 Q124.1 56.25 123.3 55.95 L123.35 55.15 123.35 55.1 123.15 55.05 123.1 54.95 123.95 54.05 125.65 51.65 125.8 51.45 M86.7 43.85 L86.35 43.85 85.95 43.8 85.85 43.75 84.9 43.75 84.9 43.6 85.15 42.75 85.25 42.85 85.25 42.45 Q85.25 41.95 85.4 41.85 L86.3 41.65 86.65 41.65 Q86.5 42.1 86.5 42.85 L86.7 43.85 M86.85 66.45 L86.85 66.6 86.65 66.2 86.85 66.45 M86.25 65.65 L85.75 65.4 86.1 65.35 86.25 65.65 M84.8 66.3 Q85.15 67.45 84.7 69.05 L83.95 71.2 83.8 70.75 83.6 69.55 Q83.3 68.95 82.55 69.65 L82.55 70.6 Q81.55 71.85 80.6 74.6 L79.7 77.2 Q79.4 76.3 78.6 75.65 78.1 75.2 77.75 75.4 77.4 75.6 77.35 76.4 76.2 77.3 75.9 79.0 75.75 79.65 75.75 82.0 75.75 83.15 76.2 85.45 L76.65 88.15 76.15 87.6 75.65 86.85 Q75.05 86.4 74.3 86.65 L74.3 87.6 74.55 87.65 74.45 87.8 Q74.75 89.3 73.65 92.45 L73.45 91.7 72.35 89.15 70.8 86.7 69.15 84.15 Q67.7 80.9 67.4 78.9 L67.35 74.2 67.45 70.6 Q67.6 68.55 68.45 66.95 L69.5 65.15 70.15 64.25 70.85 63.45 72.7 61.25 73.8 60.15 76.25 60.0 78.9 59.95 Q79.7 59.95 82.65 62.55 L84.85 64.55 Q84.3 65.05 84.3 65.65 L84.4 65.95 84.75 66.3 84.8 66.3" fill="#046193" fill-rule="evenodd" stroke="none"/>
      <path d="M124.6 45.6 L125.75 46.35 123.75 49.05 123.7 49.1 122.65 50.8 122.6 51.0 121.7 51.75 121.35 51.1 121.35 51.0 121.25 50.3 122.1 48.8 123.25 47.1 124.6 45.6 M131.1 53.7 Q131.5 54.3 131.5 55.15 131.5 56.3 129.9 57.9 L129.7 58.1 129.45 58.35 129.45 58.4 129.15 58.65 128.55 59.3 126.65 58.65 126.1 57.65 Q125.6 57.1 124.75 56.65 L127.0 55.6 130.45 54.2 131.1 53.7 M86.65 41.65 L87.45 41.6 87.55 41.6 87.65 41.7 87.75 42.1 88.1 42.15 88.25 42.75 88.3 43.3 Q88.1 43.55 87.1 43.65 L87.05 43.8 86.7 43.85 86.5 42.85 Q86.5 42.1 86.65 41.65 M73.65 92.45 L73.65 92.55 73.35 93.35 73.3 93.4 73.1 93.9 73.05 94.1 73.0 94.3 72.75 94.85 72.75 94.9 72.5 95.55 72.3 96.15 71.35 98.7 69.45 96.55 68.05 95.25 65.85 91.8 Q64.9 90.4 64.2 88.55 L63.15 85.5 62.0 82.3 61.25 79.25 60.75 75.7 60.55 73.55 61.2 70.7 Q61.6 69.0 62.6 67.9 L66.0 65.05 69.95 62.2 71.55 60.85 Q72.6 60.0 74.15 59.35 L75.5 58.7 76.2 58.1 76.15 58.2 79.0 58.5 80.35 58.85 81.75 59.55 84.5 62.0 86.55 64.55 86.35 64.4 Q85.55 63.95 84.85 64.55 L82.65 62.55 Q79.7 59.95 78.9 59.95 L76.25 60.0 73.8 60.15 72.7 61.25 70.85 63.45 70.15 64.25 69.5 65.15 68.45 66.95 Q67.6 68.55 67.45 70.6 L67.35 74.2 67.4 78.9 Q67.7 80.9 69.15 84.15 L70.8 86.7 72.35 89.15 73.45 91.7 73.65 92.45" fill="#023f60" fill-rule="evenodd" stroke="none"/>
      <path d="M75.9 -13.9 L75.75 -14.15 80.65 -17.35 81.85 -15.5 83.1 -13.5 82.45 -13.55 78.75 -12.95 78.65 -12.9 78.6 -12.8 78.5 -12.75 78.4 -12.7 78.35 -12.65 78.25 -12.6 78.15 -12.5 78.1 -12.5 78.0 -12.35 77.9 -12.3 77.9 -12.25 77.85 -12.2 77.8 -12.2 77.75 -12.15 75.9 -13.9 M96.25 6.55 L97.45 6.8 101.0 7.95 102.2 8.45 Q103.5 8.95 104.55 9.5 L104.9 9.0 105.0 9.15 105.05 9.3 105.1 10.95 105.4 13.25 105.5 14.85 105.5 15.6 105.4 15.55 105.25 15.55 104.1 15.25 104.1 15.0 103.85 15.2 103.7 15.15 103.05 15.0 102.95 15.0 102.9 14.95 100.05 14.45 97.6 14.15 97.2 14.1 96.85 14.05 96.7 14.05 96.7 13.9 96.65 12.75 96.6 11.65 96.65 10.5 96.4 8.1 96.25 6.55 M67.3 17.2 L66.1 17.65 65.9 17.6 65.95 15.8 65.9 13.45 65.45 11.8 65.75 11.6 65.65 11.2 66.7 10.55 66.7 12.0 66.95 13.6 67.15 15.1 67.15 16.65 67.3 17.2 M77.75 6.7 L77.85 6.65 77.85 6.7 77.75 6.7 M87.8 54.1 L87.75 54.0 87.95 53.85 88.1 53.75 88.1 53.8 87.95 55.2 Q87.8 56.9 88.1 58.35 88.7 61.65 90.95 62.5 L91.25 63.1 91.25 63.35 91.55 63.55 91.65 63.65 91.35 65.05 90.95 67.05 86.8 62.45 86.3 61.55 86.6 61.4 Q87.25 60.75 87.45 59.25 L87.45 56.85 87.45 55.45 87.35 54.85 87.8 54.1 M117.65 99.95 L117.55 99.95 Q116.85 100.4 112.65 101.65 L111.55 102.0 114.15 99.4 115.7 97.6 116.25 94.75 Q117.0 91.1 117.15 88.9 L117.15 88.85 117.05 88.9 117.1 88.4 Q117.2 81.75 117.55 78.4 L117.9 76.1 118.25 76.45 Q119.6 77.7 121.35 77.7 122.6 77.7 124.55 76.45 L125.0 76.15 125.2 76.55 125.15 77.05 125.5 80.25 Q123.3 80.95 122.8 84.2 L122.55 86.95 122.05 89.35 121.15 91.8 Q120.65 93.15 119.75 94.35 L118.1 96.9 Q117.55 98.0 117.55 99.5 L117.65 99.95 M128.85 79.9 L127.0 76.45 126.25 75.25 126.2 75.2 126.75 74.4 127.65 71.6 127.7 69.4 127.5 66.2 127.05 61.8 127.0 59.75 129.35 61.15 Q131.7 62.55 133.1 63.15 134.35 63.7 135.45 64.9 L134.3 65.2 Q132.85 65.9 131.15 68.6 129.9 70.65 129.2 73.15 128.6 75.4 128.6 77.9 L128.8 79.65 128.85 79.9 M130.25 81.9 L130.15 81.8 130.35 81.7 130.25 81.9 M48.1 64.65 L48.05 64.25 48.05 62.85 Q48.05 59.85 48.8 57.35 L51.15 51.2 Q51.7 49.85 52.95 48.3 L54.1 47.0 54.25 46.3 54.6 44.65 53.5 44.45 52.7 44.45 Q56.65 42.55 61.85 41.9 L62.0 41.9 62.4 41.85 66.95 41.6 67.6 41.6 68.2 42.5 69.05 43.55 70.0 44.6 70.05 44.65 70.1 44.7 70.4 44.9 70.6 45.05 70.65 45.1 72.3 47.0 74.15 49.15 74.6 49.7 75.05 51.05 75.1 51.75 75.05 51.75 75.45 52.65 75.45 52.7 75.4 52.95 75.2 52.55 74.4 50.95 73.0 48.55 72.15 47.25 71.15 46.05 Q70.0 45.0 68.2 44.45 L65.3 44.0 Q63.25 44.0 60.8 45.05 58.9 45.85 58.4 46.35 L57.1 48.0 56.1 49.7 54.7 53.0 Q54.05 55.05 54.05 56.45 L54.2 57.9 54.35 58.95 53.95 59.2 52.75 60.05 51.3 61.25 51.2 61.35 49.8 62.75 48.1 64.65" fill="#3d241d" fill-rule="evenodd" stroke="none"/>
      <path d="M83.1 -13.5 L81.85 -15.5 80.65 -17.35 82.55 -18.7 83.7 -16.55 85.9 -12.65 84.7 -13.1 83.55 -13.4 83.45 -13.4 83.1 -13.5 M105.05 9.3 L105.2 9.5 105.1 9.2 Q105.8 9.5 106.25 10.0 L106.25 11.6 106.45 14.7 106.45 15.4 106.45 15.45 106.25 15.6 106.15 15.65 105.9 15.3 105.55 15.6 105.5 15.6 105.5 14.85 105.4 13.25 105.1 10.95 105.05 9.3 M104.1 15.25 L103.85 15.2 104.1 15.0 104.1 15.25 M96.7 14.05 L96.65 14.05 94.9 13.8 94.35 11.3 93.95 6.95 93.95 6.1 94.1 6.15 95.95 6.5 96.25 6.55 96.4 8.1 96.65 10.5 96.6 11.65 96.65 12.75 96.7 13.9 96.7 14.05 M71.5 16.05 L71.35 16.05 67.3 17.2 67.15 16.65 67.15 15.1 66.95 13.6 66.7 12.0 66.7 10.55 Q68.4 9.65 70.8 8.7 L71.1 11.2 Q71.2 13.75 71.5 14.8 L71.5 16.05 M117.65 99.95 L117.55 99.5 Q117.55 98.0 118.1 96.9 L119.75 94.35 Q120.65 93.15 121.15 91.8 L122.05 89.35 122.55 86.95 122.8 84.2 Q123.3 80.95 125.5 80.25 L125.65 81.35 126.1 86.05 Q126.1 88.6 125.3 90.9 L122.95 95.8 Q122.3 96.9 120.55 98.2 L117.65 99.95 M128.85 79.9 L128.8 79.65 128.6 77.9 Q128.6 75.4 129.2 73.15 129.9 70.65 131.15 68.6 132.85 65.9 134.3 65.2 L135.45 64.9 136.15 65.75 138.05 68.7 138.2 68.85 138.2 68.9 138.25 68.95 138.2 68.95 138.05 69.0 Q137.25 69.3 136.8 70.3 L136.25 71.85 134.9 77.6 Q134.35 80.7 134.35 83.2 L134.4 84.75 Q132.05 84.05 130.25 81.9 L130.35 81.7 130.15 81.8 130.0 81.6 129.0 80.15 128.85 79.95 128.85 79.9 M42.85 74.1 L42.25 71.7 Q41.2 67.45 41.2 64.25 41.2 62.15 41.8 60.35 L43.45 55.8 45.05 51.5 Q45.35 50.8 46.6 49.0 L46.8 48.7 Q49.3 46.1 52.7 44.45 L53.5 44.45 54.6 44.65 54.25 46.3 54.1 47.0 52.95 48.3 Q51.7 49.85 51.15 51.2 L48.8 57.35 Q48.05 59.85 48.05 62.85 L48.05 64.25 48.1 64.65 Q45.25 67.95 44.0 71.25 L42.85 74.1 M41.85 77.05 L41.9 77.05 41.9 77.15 41.85 77.05 M54.35 58.95 L54.2 57.9 54.05 56.45 Q54.05 55.05 54.7 53.0 L56.1 49.7 57.1 48.0 58.4 46.35 Q58.9 45.85 60.8 45.05 63.25 44.0 65.3 44.0 L68.2 44.45 Q70.0 45.0 71.15 46.05 L72.15 47.25 73.0 48.55 74.4 50.95 75.2 52.55 75.4 52.95 75.0 52.95 73.85 51.2 72.0 48.4 70.8 47.2 Q70.1 46.6 68.95 46.2 L67.85 45.75 66.85 45.25 64.65 45.2 63.6 45.6 Q62.65 46.0 60.35 47.75 L59.55 48.75 58.8 49.75 Q57.75 50.8 57.3 51.75 56.8 52.95 56.4 55.8 L56.25 57.7 54.95 58.7 Q54.85 58.7 54.7 58.8 L54.35 58.95" fill="#583429" fill-rule="evenodd" stroke="none"/>
      <path d="M84.85 -20.7 L87.1 -18.15 90.25 -14.9 Q92.2 -12.25 93.5 -11.2 L94.95 -9.45 96.05 -7.65 97.9 -3.9 99.1 -0.3 100.05 3.4 100.15 4.1 98.85 1.2 Q97.1 -2.45 95.05 -4.65 L92.5 -7.6 89.6 -10.55 85.9 -12.65 83.7 -16.55 82.55 -18.7 84.85 -20.7 M106.25 10.0 L106.45 10.25 Q107.1 11.05 107.15 12.5 L107.1 15.0 107.2 16.15 106.55 15.4 106.45 15.45 106.45 15.4 106.45 14.7 106.25 11.6 106.25 10.0 M94.9 13.8 L93.0 13.7 92.8 11.7 92.2 7.5 92.2 5.85 93.95 6.1 93.95 6.95 94.35 11.3 94.9 13.8 M78.15 14.65 L76.95 14.85 72.4 15.85 71.5 16.05 71.5 14.8 Q71.2 13.75 71.1 11.2 L70.8 8.7 71.1 8.6 Q73.9 7.55 76.95 6.9 L77.55 6.75 77.75 6.7 77.85 6.7 78.0 10.15 78.15 13.2 78.15 14.65 M138.25 68.95 L138.25 69.0 138.3 69.05 138.3 69.1 139.3 71.4 139.4 71.7 140.05 74.7 140.2 75.3 140.2 75.4 140.35 76.25 140.4 76.75 140.35 76.75 139.5 76.85 139.1 76.9 138.95 80.35 138.75 82.75 138.8 83.7 139.15 84.45 Q138.2 85.1 136.7 85.1 L134.4 84.75 134.35 83.2 Q134.35 80.7 134.9 77.6 L136.25 71.85 136.8 70.3 Q137.25 69.3 138.05 69.0 L138.2 68.95 138.25 68.95 M46.8 48.7 L46.6 49.0 Q45.35 50.8 45.05 51.5 L43.45 55.8 41.8 60.35 Q41.2 62.15 41.2 64.25 41.2 67.45 42.25 71.7 L42.85 74.1 42.6 74.85 42.5 75.05 41.95 76.85 41.9 77.0 41.9 77.05 41.85 77.05 40.65 72.05 Q40.3 70.5 40.3 67.35 40.3 58.4 44.15 52.15 45.3 50.25 46.8 48.7 M75.4 52.95 L75.45 52.7 75.55 53.0 75.4 52.95 M75.45 52.65 L75.05 51.75 75.1 51.75 75.45 52.65 M56.25 57.7 L56.4 55.8 Q56.8 52.95 57.3 51.75 57.75 50.8 58.8 49.75 L59.55 48.75 60.35 47.75 Q62.65 46.0 63.6 45.6 L64.65 45.2 66.85 45.25 67.85 45.75 68.95 46.2 Q70.1 46.6 70.8 47.2 L72.0 48.4 73.85 51.2 75.0 52.95 73.7 52.8 71.65 52.85 69.05 53.35 69.1 52.7 Q69.1 50.85 67.6 48.75 65.65 48.4 64.4 49.1 63.05 49.85 63.05 51.7 L63.15 52.25 Q63.25 52.95 63.5 53.5 L64.1 54.55 Q59.65 55.75 57.3 57.1 56.75 57.35 56.25 57.7" fill="#8a5242" fill-rule="evenodd" stroke="none"/>
      <path d="M80.9 -35.35 L80.9 -35.65 80.95 -36.25 80.95 -36.3 81.1 -36.3 Q83.7 -32.5 90.0 -27.8 L94.7 -24.3 98.65 -20.45 Q100.05 -18.7 100.9 -16.0 L102.05 -11.7 102.25 -10.85 102.35 -10.65 102.35 -10.55 102.45 -10.1 102.95 -9.0 102.95 -8.4 102.9 -8.05 102.9 -7.9 102.35 -7.8 Q102.05 -7.8 101.4 -9.1 L101.35 -9.25 101.3 -9.25 101.1 -10.0 100.15 -14.15 98.4 -17.9 Q97.05 -19.95 94.75 -21.75 L90.6 -25.35 86.45 -29.15 83.25 -32.45 Q81.6 -34.25 80.9 -35.35 M58.05 -22.6 L62.4 -21.25 66.5 -19.65 67.4 -19.15 65.3 -19.6 Q65.15 -19.5 65.15 -18.9 65.15 -18.55 65.9 -17.45 66.7 -16.25 67.25 -15.85 L69.55 -14.25 71.5 -12.8 Q74.9 -9.95 76.45 -6.55 L77.6 -3.35 Q78.25 -1.15 78.65 -0.2 L79.95 2.9 81.05 4.8 78.7 5.15 78.75 4.85 77.55 2.25 75.8 -0.95 73.35 -4.5 73.2 -4.7 73.3 -4.8 73.35 -4.9 73.35 -5.15 Q73.35 -5.8 69.5 -10.25 63.9 -15.05 63.4 -15.05 62.95 -15.05 62.05 -15.55 L59.8 -16.8 Q58.35 -17.6 57.3 -17.75 L56.2 -18.7 55.05 -20.35 Q56.9 -22.15 57.9 -22.5 L58.05 -22.6 M83.45 4.4 L83.5 4.55 83.4 4.55 83.4 4.5 83.45 4.4 M77.75 5.35 L76.15 5.6 Q75.9 5.0 74.65 4.1 L74.7 4.0 74.75 3.95 74.8 3.75 73.45 2.2 71.8 0.55 70.1 -0.95 68.25 -2.5 Q66.8 -3.95 63.05 -5.8 59.2 -7.65 56.8 -7.85 L55.8 -8.7 Q54.2 -10.2 54.2 -12.6 54.2 -13.05 54.8 -13.5 L55.3 -14.15 55.3 -14.45 55.25 -14.5 56.1 -14.8 56.7 -14.75 Q58.35 -14.55 60.35 -13.7 L62.05 -12.9 Q62.3 -12.9 62.45 -13.05 L62.45 -13.1 Q63.05 -12.75 63.6 -12.35 L62.75 -12.25 Q62.6 -12.15 62.6 -11.35 L62.7 -10.45 63.8 -9.3 65.0 -8.2 Q65.3 -7.9 65.75 -7.8 L66.5 -7.5 69.3 -5.25 71.25 -3.1 74.65 1.3 76.55 3.9 77.75 5.35 M74.45 6.0 L73.3 6.3 Q72.7 5.55 71.0 4.5 68.6 3.0 66.65 2.35 L64.15 1.2 61.65 -0.05 59.55 -0.95 Q58.5 -2.0 58.5 -2.2 L58.95 -3.05 58.95 -3.2 61.65 -3.05 63.35 -2.75 63.7 -2.6 63.55 -2.1 Q63.55 -1.0 65.6 0.25 L69.6 2.6 70.5 3.0 Q71.35 3.35 71.5 3.45 L72.1 4.05 72.75 4.65 Q73.45 4.85 74.2 5.75 L74.45 6.0 M69.6 7.45 Q67.7 8.15 66.45 8.8 L65.75 8.45 Q64.2 7.5 64.2 6.15 L64.3 5.2 65.35 5.1 66.55 5.2 66.55 5.4 Q66.55 5.75 67.35 6.6 L67.9 6.95 68.55 7.05 69.4 7.4 69.6 7.45 M65.3 9.5 L65.05 9.7 65.1 9.65 65.3 9.5 M61.15 3.5 L61.05 3.4 61.15 3.35 61.4 3.5 61.15 3.5 M48.95 -4.4 L48.9 -4.45 49.05 -4.55 48.95 -4.4 M56.15 -5.85 L56.1 -5.85 56.1 -5.9 56.15 -5.85 M86.1 55.6 L86.2 57.15 85.8 59.1 85.6 60.65 82.85 58.25 80.1 56.35 80.35 56.15 Q82.05 55.15 83.6 55.15 L85.65 55.45 86.1 55.6 M104.6 83.05 L104.85 81.7 105.4 78.75 106.3 75.55 106.6 72.65 Q106.6 71.4 105.65 71.3 L103.0 70.75 101.0 69.6 98.9 68.55 98.4 68.5 Q98.15 68.5 97.95 68.65 L97.8 68.85 97.65 69.05 97.45 70.2 Q96.85 71.6 96.6 72.5 L95.1 77.65 94.55 79.9 94.3 80.4 94.25 80.6 93.25 80.1 93.05 79.95 91.85 79.3 Q92.05 78.4 92.55 77.2 L94.2 73.3 94.85 71.25 95.45 69.1 95.8 66.65 96.05 66.05 96.1 66.1 98.25 67.2 102.05 69.1 Q103.55 70.0 104.15 70.15 L108.8 70.7 108.5 70.7 108.35 72.5 107.95 75.8 107.3 79.45 106.8 83.05 104.6 83.05 M116.65 70.05 L117.0 70.0 118.2 69.45 117.3 72.95 Q116.4 76.1 116.3 77.7 L116.0 82.45 115.8 82.45 115.25 82.55 115.25 82.65 114.95 82.7 115.05 82.65 115.55 79.3 116.4 75.35 116.9 71.7 116.65 70.05 M126.3 68.2 L126.4 69.45 Q126.4 76.4 120.55 76.4 120.05 76.4 119.15 75.3 L118.95 75.0 119.65 73.85 121.75 70.35 122.35 69.45 123.0 68.7 Q124.15 67.6 125.05 67.6 125.55 67.65 126.3 68.2 M90.15 78.15 L90.15 78.2 90.0 78.1 90.15 78.15 M140.4 85.0 L140.5 85.1 143.2 87.1 145.4 89.15 147.4 90.4 Q144.75 92.05 140.5 92.05 L139.9 92.05 139.2 90.7 137.95 88.85 136.9 86.55 Q139.1 86.55 140.4 85.0 M150.85 85.9 L147.65 83.55 Q144.55 81.4 141.95 81.1 L141.95 80.6 141.95 79.95 142.15 79.6 142.2 79.45 142.65 79.9 Q143.65 80.65 145.1 81.2 L148.6 82.55 Q151.15 83.6 151.15 83.95 L150.85 85.9 M65.25 3.6 L65.1 3.6 64.9 3.4 65.25 3.6 M74.3 54.1 L74.3 54.45 74.3 55.4 74.5 55.8 Q73.65 56.25 72.55 56.95 72.45 55.9 71.7 55.4 70.8 54.7 69.25 55.15 L66.85 55.6 66.4 56.1 65.4 56.65 Q64.85 56.85 64.75 56.95 64.45 57.4 64.4 58.25 L64.35 59.7 64.65 62.05 64.7 62.6 Q62.7 64.05 61.05 65.6 L60.8 65.0 60.35 63.6 59.95 61.1 59.8 59.75 Q59.7 58.9 59.05 58.65 L58.3 58.75 57.4 59.25 56.2 59.45 Q57.7 58.3 59.45 57.8 L62.55 56.65 65.3 55.55 Q67.0 54.95 67.2 54.9 L69.5 54.45 74.3 54.1 M45.3 95.8 L45.3 95.85 45.2 95.8 Q43.5 95.35 42.8 94.2 42.1 93.2 41.95 91.05 L41.9 85.7 Q41.9 81.25 42.1 80.05 42.45 78.5 45.1 72.15 L45.2 72.15 45.2 72.0 45.55 71.25 45.2 72.3 Q44.2 75.5 43.95 77.15 L43.55 80.9 43.3 85.15 43.65 88.25 44.05 91.15 44.3 92.65 44.55 94.15 45.3 95.8 M55.0 60.5 L55.05 60.5 55.05 60.6 55.0 60.5" fill="#915e3c" fill-rule="evenodd" stroke="none"/>
      <path d="M80.9 -35.35 Q81.6 -34.25 83.25 -32.45 L86.45 -29.15 90.6 -25.35 94.75 -21.75 Q97.05 -19.95 98.4 -17.9 L100.15 -14.15 101.1 -10.0 101.3 -9.25 100.95 -9.95 100.85 -9.95 98.85 -12.2 97.6 -13.2 Q97.2 -14.15 95.8 -15.95 L92.7 -18.65 Q90.3 -20.45 88.4 -21.4 87.55 -21.85 86.8 -22.35 L85.9 -24.3 Q85.5 -23.95 85.35 -23.4 L84.7 -24.0 Q83.35 -25.25 82.65 -26.55 L81.55 -29.25 80.95 -29.1 80.9 -29.2 80.8 -33.0 80.9 -35.35 M82.8 -21.0 L80.3 -18.65 79.75 -18.3 Q79.15 -19.35 78.65 -21.0 78.0 -23.25 78.0 -24.6 L78.0 -24.8 78.55 -24.15 79.95 -22.75 Q80.65 -22.05 82.8 -21.0 M48.2 -19.35 L48.2 -19.4 46.75 -21.6 Q45.35 -23.75 45.35 -25.7 L44.7 -29.0 44.05 -32.2 44.1 -32.7 44.15 -32.7 47.0 -29.5 Q48.8 -27.6 49.75 -27.05 51.25 -25.35 53.5 -24.3 54.35 -23.9 55.75 -23.4 L55.95 -23.3 58.05 -22.6 57.9 -22.5 Q56.9 -22.15 55.05 -20.35 L56.2 -18.7 57.3 -17.75 Q58.35 -17.6 59.8 -16.8 L62.05 -15.55 Q62.95 -15.05 63.4 -15.05 63.9 -15.05 69.5 -10.25 73.35 -5.8 73.35 -5.15 L73.35 -4.9 73.3 -4.8 73.2 -4.7 72.9 -4.65 69.9 -7.5 68.15 -9.05 66.35 -10.5 63.6 -12.35 Q63.05 -12.75 62.45 -13.1 L62.55 -13.3 62.6 -13.3 62.6 -13.35 61.5 -14.4 Q60.65 -15.0 59.4 -15.5 57.6 -16.3 55.55 -16.6 L52.55 -16.9 50.6 -17.7 48.7 -18.7 48.2 -19.35 M73.3 6.3 L72.9 6.45 71.35 6.9 71.1 6.95 69.45 6.25 67.45 5.4 67.55 5.4 68.0 5.5 68.15 5.55 69.65 6.0 70.35 5.85 70.5 5.45 68.4 4.15 67.7 3.9 65.45 3.6 65.4 3.6 65.25 3.6 64.9 3.4 65.1 3.6 61.4 3.5 61.15 3.35 61.05 3.4 60.95 3.45 57.7 1.3 Q55.95 -0.2 53.95 -0.65 52.85 -0.95 51.0 -2.5 L48.95 -4.4 49.05 -4.55 Q49.6 -4.3 50.3 -4.0 L53.15 -3.2 57.4 -3.2 58.95 -3.2 58.95 -3.05 58.5 -2.2 Q58.5 -2.0 59.55 -0.95 L61.65 -0.05 64.15 1.2 66.65 2.35 Q68.6 3.0 71.0 4.5 72.7 5.55 73.3 6.3 M66.45 8.8 L66.3 8.9 65.6 9.35 65.3 9.5 65.1 9.65 65.05 9.7 64.8 10.0 Q63.65 8.75 61.5 8.0 L57.6 6.45 58.8 6.45 Q61.1 6.45 62.3 5.8 L62.6 5.6 62.7 5.6 63.8 5.25 63.9 5.25 63.95 5.25 64.3 5.15 64.3 5.2 64.2 6.15 Q64.2 7.5 65.75 8.45 L66.45 8.8 M54.0 -6.45 L53.85 -6.55 53.65 -6.65 51.25 -8.1 Q47.75 -10.35 46.7 -11.45 45.2 -13.0 44.2 -15.25 L43.2 -17.9 47.9 -15.85 50.3 -15.4 53.9 -15.05 56.1 -14.8 55.25 -14.5 55.3 -14.45 55.3 -14.15 54.8 -13.5 Q54.2 -13.05 54.2 -12.6 54.2 -10.2 55.8 -8.7 L56.8 -7.85 Q59.2 -7.65 63.05 -5.8 66.8 -3.95 68.25 -2.5 L70.1 -0.95 71.8 0.55 73.45 2.2 74.8 3.75 74.75 3.95 74.7 4.0 74.65 4.1 74.65 4.15 74.3 4.25 Q67.35 0.0 65.75 -1.45 L65.95 -1.3 Q66.75 -0.65 67.25 -0.65 L67.65 -0.75 67.75 -0.8 67.8 -1.0 67.85 -1.25 66.6 -2.4 65.15 -3.35 Q64.7 -3.5 64.05 -3.95 L63.15 -4.4 61.25 -4.65 59.3 -4.95 57.0 -5.6 56.4 -5.8 56.15 -5.85 56.1 -5.9 56.1 -5.85 54.05 -6.55 54.0 -6.45 M42.85 -19.0 L42.8 -19.05 42.85 -19.05 42.85 -19.0 M81.8 53.2 L82.35 53.1 83.75 53.1 84.0 53.6 Q84.6 54.2 86.25 54.25 L86.3 54.6 86.1 55.5 86.1 55.6 85.65 55.45 83.6 55.15 Q82.05 55.15 80.35 56.15 L80.1 56.35 78.8 55.6 78.65 55.4 77.3 54.6 78.9 54.9 Q81.05 54.9 81.8 53.2 M94.55 79.9 L94.35 80.65 94.25 80.6 94.3 80.4 94.55 79.9 M106.8 83.05 L107.3 79.45 107.95 75.8 108.35 72.5 108.5 70.7 108.8 70.7 111.25 70.75 112.2 70.75 112.3 70.75 112.45 70.75 112.5 70.75 112.8 70.75 112.95 70.75 113.25 70.75 113.45 70.7 114.15 70.65 114.8 70.55 115.05 70.55 Q115.0 72.6 114.45 74.55 L113.2 79.45 112.75 81.7 112.45 82.95 106.8 83.05 M96.05 66.05 L95.8 66.65 95.45 69.1 94.85 71.25 94.2 73.3 92.55 77.2 Q92.05 78.4 91.85 79.3 L91.2 78.95 90.15 78.2 90.15 78.15 90.65 76.75 91.5 74.55 92.15 72.4 92.85 70.05 93.5 67.75 Q94.0 66.45 94.75 65.45 L94.8 65.4 94.85 65.4 95.05 65.55 95.75 65.9 96.05 66.05 M118.95 75.0 L118.25 74.4 118.5 73.45 118.75 72.5 120.8 68.55 Q121.1 67.9 122.85 66.25 L125.05 64.0 125.6 64.7 125.9 65.0 126.1 66.6 126.1 66.8 126.15 67.35 126.2 67.6 126.3 68.2 Q125.55 67.65 125.05 67.6 124.15 67.6 123.0 68.7 L122.35 69.45 121.75 70.35 119.65 73.85 118.95 75.0 M136.9 86.55 L137.95 88.85 139.2 90.7 139.9 92.05 134.8 91.75 133.65 91.6 131.45 91.1 131.5 89.55 130.85 85.3 130.55 84.05 Q132.0 85.25 133.55 85.9 135.15 86.55 136.9 86.55 M74.3 54.1 L75.65 54.0 75.7 54.0 75.75 55.05 75.8 55.3 75.7 55.3 75.55 55.35 74.75 55.7 74.5 55.8 74.3 55.4 74.3 54.45 74.3 54.1 M61.05 65.6 L59.6 67.1 59.35 67.3 Q58.15 68.65 57.15 70.15 L55.9 72.0 55.05 69.95 Q54.15 67.65 53.95 66.6 L53.6 65.1 Q53.35 64.15 52.75 64.1 51.8 63.95 51.1 64.95 50.3 66.05 49.45 66.05 L49.15 65.3 51.85 63.1 52.0 63.15 55.0 60.5 55.05 60.6 55.05 60.5 55.5 60.05 56.2 59.45 57.4 59.25 58.3 58.75 59.05 58.65 Q59.7 58.9 59.8 59.75 L59.95 61.1 60.35 63.6 60.8 65.0 61.05 65.6 M49.2 96.2 L45.3 95.8 44.55 94.15 44.3 92.65 44.05 91.15 43.65 88.25 43.3 85.15 43.55 80.9 43.95 77.15 Q44.2 75.5 45.2 72.3 L45.55 71.25 46.8 68.85 46.95 68.65 Q46.95 71.05 47.5 73.1 L48.2 75.8 Q48.65 77.3 49.35 78.5 L50.3 79.75 50.45 79.9 Q49.45 80.9 48.9 84.6 48.5 87.45 48.5 90.1 L48.8 94.4 49.2 96.2" fill="#593924" fill-rule="evenodd" stroke="none"/>
      <path d="M97.6 -13.2 L95.35 -14.6 95.3 -14.6 91.4 -16.6 Q88.2 -19.95 86.8 -22.35 87.55 -21.85 88.4 -21.4 90.3 -20.45 92.7 -18.65 L95.8 -15.95 Q97.2 -14.15 97.6 -13.2 M85.35 -23.4 L85.25 -22.8 Q84.4 -22.55 83.1 -21.35 L82.8 -21.0 Q80.65 -22.05 79.95 -22.75 L78.55 -24.15 78.0 -24.8 78.0 -25.35 78.25 -25.55 79.55 -24.75 Q80.0 -24.3 81.1 -24.3 L82.05 -24.5 82.4 -24.9 Q81.2 -27.35 80.95 -29.1 L81.55 -29.25 82.65 -26.55 Q83.35 -25.25 84.7 -24.0 L85.35 -23.4 M57.6 6.45 L57.45 6.35 57.25 6.2 59.8 4.75 61.2 3.9 61.15 3.5 61.4 3.5 65.1 3.6 65.25 3.6 65.4 3.6 65.45 3.6 67.7 3.9 68.4 4.15 70.5 5.45 70.35 5.85 69.65 6.0 68.15 5.55 68.0 5.5 67.55 5.4 67.45 5.4 66.55 5.2 65.35 5.1 64.3 5.2 64.3 5.15 63.95 5.25 63.9 5.25 63.8 5.25 62.7 5.6 62.6 5.6 62.3 5.8 Q61.1 6.45 58.8 6.45 L57.6 6.45 M49.05 -4.55 L49.4 -4.7 49.45 -4.8 52.7 -5.2 54.4 -5.35 54.5 -5.55 54.55 -6.1 54.5 -6.1 54.0 -6.45 54.05 -6.55 56.1 -5.85 56.15 -5.85 56.4 -5.8 57.0 -5.6 59.3 -4.95 61.25 -4.65 63.15 -4.4 64.05 -3.95 Q64.7 -3.5 65.15 -3.35 L66.6 -2.4 67.85 -1.25 67.8 -1.0 67.75 -0.8 67.65 -0.75 67.25 -0.65 Q66.75 -0.65 65.95 -1.3 L65.75 -1.45 65.7 -1.45 65.6 -1.55 64.3 -2.3 63.7 -2.6 63.35 -2.75 61.65 -3.05 58.95 -3.2 57.4 -3.2 53.15 -3.2 50.3 -4.0 Q49.6 -4.3 49.05 -4.55 M43.2 -17.9 L43.15 -17.95 42.9 -18.75 42.85 -18.85 42.85 -19.0 42.85 -19.05 45.6 -18.75 48.05 -18.65 48.15 -18.9 48.2 -19.35 48.7 -18.7 50.6 -17.7 52.55 -16.9 55.55 -16.6 Q57.6 -16.3 59.4 -15.5 60.65 -15.0 61.5 -14.4 L62.6 -13.35 62.6 -13.3 62.55 -13.3 62.45 -13.1 62.45 -13.05 Q62.3 -12.9 62.05 -12.9 L60.35 -13.7 Q58.35 -14.55 56.7 -14.75 L56.1 -14.8 53.9 -15.05 50.3 -15.4 47.9 -15.85 43.2 -17.9 M81.8 53.2 L81.95 52.7 82.1 49.7 Q82.1 46.65 81.75 45.6 L79.7 42.15 80.3 42.25 Q80.8 43.35 82.45 45.65 L84.05 47.7 84.0 48.55 83.65 51.65 Q83.55 52.55 83.75 53.1 L82.35 53.1 81.8 53.2 M114.8 70.55 L115.25 70.45 116.65 70.05 116.9 71.7 116.4 75.35 115.55 79.3 115.05 82.65 114.95 82.7 112.75 82.95 112.45 82.95 112.75 81.7 113.2 79.45 114.45 74.55 Q115.0 72.6 115.05 70.55 L114.8 70.55 M118.75 72.5 L119.75 68.45 Q119.95 67.45 121.0 65.9 L122.45 63.45 Q123.1 62.05 123.25 60.75 L123.25 58.1 123.25 57.25 124.55 59.05 Q125.85 60.9 125.8 62.6 L125.9 65.0 125.6 64.7 125.05 64.0 122.85 66.25 Q121.1 67.9 120.8 68.55 L118.75 72.5 M94.8 65.4 L94.75 65.45 Q94.0 66.45 93.5 67.75 L92.85 70.05 92.15 72.4 91.5 74.55 90.65 76.75 90.15 78.15 90.0 78.1 88.7 76.75 88.1 75.95 88.1 75.9 Q88.35 75.15 89.85 72.9 L91.5 70.0 92.25 67.0 92.8 64.25 94.65 65.3 94.8 65.4 M130.55 84.05 L130.85 85.3 131.5 89.55 131.45 91.1 130.85 90.85 128.9 90.05 Q127.4 89.35 127.35 89.35 L127.15 89.35 127.35 86.05 127.15 83.65 126.85 80.4 126.8 79.6 128.0 81.35 128.3 81.7 129.6 83.1 130.55 84.05 M55.9 72.0 L55.6 72.45 Q53.25 76.15 52.3 79.15 51.85 80.35 51.65 81.7 L51.6 81.7 51.2 84.35 Q51.05 86.05 51.05 88.05 L51.1 90.05 51.85 91.7 Q52.25 92.9 51.75 95.4 L51.65 96.1 49.95 96.2 49.2 96.2 48.8 94.4 48.5 90.1 Q48.5 87.45 48.9 84.6 49.45 80.9 50.45 79.9 L50.3 79.75 49.35 78.5 Q48.65 77.3 48.2 75.8 L47.5 73.1 Q46.95 71.05 46.95 68.65 L48.25 66.45 48.9 65.5 49.15 65.3 49.45 66.05 Q50.3 66.05 51.1 64.95 51.8 63.95 52.75 64.1 53.35 64.15 53.6 65.1 L53.95 66.6 Q54.15 67.65 55.05 69.95 L55.9 72.0 M45.1 72.15 L45.2 72.0 45.2 72.15 45.1 72.15" fill="#462d1c" fill-rule="evenodd" stroke="none"/>
      <path d="M84.85 -20.7 L85.55 -21.5 85.55 -21.55 85.6 -21.55 85.6 -21.6 Q86.55 -19.85 89.9 -16.4 95.8 -10.3 97.2 -8.2 98.2 -6.7 99.0 -4.35 L100.15 -0.35 100.9 4.35 101.45 6.7 101.3 6.75 100.15 4.1 100.05 3.4 99.1 -0.3 97.9 -3.9 96.05 -7.65 94.95 -9.45 93.5 -11.2 Q92.2 -12.25 90.25 -14.9 L87.1 -18.15 84.85 -20.7 M93.0 13.7 Q89.85 13.5 86.85 13.6 L78.15 14.65 78.15 13.2 78.0 10.15 77.85 6.7 77.85 6.65 Q82.75 5.7 88.25 5.7 L92.2 5.85 92.2 7.5 92.8 11.7 93.0 13.7 M140.4 76.75 L140.65 80.35 140.65 81.1 140.35 82.75 140.2 83.2 140.15 83.2 139.15 84.45 138.8 83.7 138.75 82.75 138.95 80.35 139.1 76.9 139.5 76.85 140.35 76.75 140.4 76.75 M64.1 54.55 L63.5 53.5 Q63.25 52.95 63.15 52.25 L63.05 51.7 Q63.05 49.85 64.4 49.1 65.65 48.4 67.6 48.75 69.1 50.85 69.1 52.7 L69.05 53.35 68.65 53.45 68.05 53.55 66.3 54.0 64.1 54.55" fill="#b98c6f" fill-rule="evenodd" stroke="none"/>
      <path d="M54.8 42.35 L54.8 42.3 54.85 42.35 54.8 42.35" fill="#0491c6" fill-rule="evenodd" stroke="none"/>
      <path d="M103.65 -11.55 L103.8 -11.4 103.65 -11.4 103.65 -11.55 M120.0 42.0 L120.05 42.0 120.05 42.05 120.0 42.0 M55.45 42.1 L55.75 41.05 55.9 41.05 55.8 41.95 55.8 42.0 55.45 42.1 M58.0 32.65 L57.9 32.65 58.0 32.0 58.0 32.65 M57.95 29.25 L58.05 29.25 58.0 30.8 57.95 29.25 M123.15 55.1 L123.15 55.05 123.35 55.1 123.35 55.15 123.15 55.1" fill="#068cb9" fill-rule="evenodd" stroke="none"/>
      <path d="M83.5 -0.8 L82.15 -4.85 Q80.8 -8.55 78.5 -11.3 L80.15 -11.55 85.15 -11.75 85.55 -11.6 85.4 -11.5 84.7 -9.95 83.4 -6.55 83.35 -3.9 83.4 -1.25 83.5 -0.8 M100.65 -7.9 L100.45 -7.2 101.05 -3.95 101.85 0.5 101.4 -1.15 100.15 -5.15 98.25 -9.0 95.4 -12.45 97.3 -11.5 99.1 -10.1 100.65 -7.9 M104.5 -1.3 L104.35 -1.25 104.3 -1.2 104.3 -1.75 104.5 -1.3 M102.2 -6.1 L102.0 -6.1 101.9 -6.55 102.2 -6.1" fill="#221c15" fill-rule="evenodd" stroke="none"/>
      <path d="M83.5 -0.8 L83.4 -1.25 83.35 -3.9 83.4 -6.55 84.7 -9.95 85.4 -11.5 85.55 -11.6 86.1 -11.15 87.1 -10.5 Q88.1 -10.1 89.0 -9.25 L90.05 -8.15 90.15 -8.05 95.0 -2.9 98.2 3.4 99.35 5.85 96.85 4.95 Q96.45 3.75 95.45 2.4 93.7 0.05 90.95 -1.45 L87.65 -1.1 Q86.25 -0.65 85.65 -0.05 84.6 1.2 84.45 1.95 L84.4 2.35 83.7 0.0 83.55 -0.6 83.5 -0.75 83.5 -0.8 M100.65 -7.9 L101.1 -7.2 101.15 -7.65 101.6 -7.0 101.9 -6.55 102.0 -6.1 102.2 -6.1 102.95 -4.8 103.85 -2.75 104.3 -1.75 104.3 -1.2 104.35 -1.25 104.5 -1.3 104.55 -1.15 104.85 -0.4 104.85 -0.35 104.9 -0.3 105.4 4.85 Q105.6 6.65 105.9 7.6 L104.85 7.4 104.45 7.55 104.35 7.65 102.6 7.15 102.65 6.95 102.65 6.45 101.95 1.0 101.9 0.75 101.85 0.55 101.85 0.5 101.05 -3.95 100.45 -7.2 100.65 -7.9 M103.85 0.1 L103.7 0.0 104.05 0.85 103.85 0.1" fill="#352c20" fill-rule="evenodd" stroke="none"/>
      <path d="M67.4 -19.15 L67.7 -18.8 67.75 -18.75 68.7 -17.75 71.95 -15.55 74.4 -13.65 Q78.85 -9.55 81.05 -4.0 L81.05 -3.95 81.1 -3.8 81.4 -2.85 81.5 -2.7 81.6 -2.35 82.4 0.45 82.45 0.6 82.5 0.75 83.45 4.4 83.4 4.5 83.4 4.55 81.05 4.8 79.95 2.9 78.65 -0.2 Q78.25 -1.15 77.6 -3.35 L76.45 -6.55 Q74.9 -9.95 71.5 -12.8 L69.55 -14.25 67.25 -15.85 Q66.7 -16.25 65.9 -17.45 65.15 -18.55 65.15 -18.9 65.15 -19.5 65.3 -19.6 L67.4 -19.15 M78.7 5.15 L78.6 5.15 77.75 5.35 76.55 3.9 74.65 1.3 71.25 -3.1 69.3 -5.25 66.5 -7.5 65.75 -7.8 Q65.3 -7.9 65.0 -8.2 L63.8 -9.3 62.7 -10.45 62.6 -11.35 Q62.6 -12.15 62.75 -12.25 L63.6 -12.35 66.35 -10.5 68.15 -9.05 69.9 -7.5 72.9 -4.65 73.2 -4.7 73.35 -4.5 75.8 -0.95 77.55 2.25 78.75 4.85 78.7 5.15 M76.15 5.6 L75.95 5.7 74.45 6.0 74.2 5.75 Q73.45 4.85 72.75 4.65 L72.1 4.05 71.5 3.45 Q71.35 3.35 70.5 3.0 L69.6 2.6 65.6 0.25 Q63.55 -1.0 63.55 -2.1 L63.7 -2.6 64.3 -2.3 65.6 -1.55 65.7 -1.45 65.75 -1.45 Q67.35 0.0 74.3 4.25 L74.65 4.15 74.65 4.1 Q75.9 5.0 76.15 5.6 M71.1 6.95 L70.35 7.2 69.75 7.4 69.6 7.45 69.4 7.4 68.55 7.05 67.9 6.95 67.35 6.6 Q66.55 5.75 66.55 5.4 L66.55 5.2 67.45 5.4 69.45 6.25 71.1 6.95 M94.55 79.9 L95.1 77.65 96.6 72.5 Q96.85 71.6 97.45 70.2 L97.65 69.05 97.8 68.85 97.95 68.65 Q98.15 68.5 98.4 68.5 L98.9 68.55 101.0 69.6 103.0 70.75 105.65 71.3 Q106.6 71.4 106.6 72.65 L106.3 75.55 105.4 78.75 104.85 81.7 104.6 83.05 99.6 82.95 97.65 82.5 96.45 82.05 94.9 80.95 94.85 80.95 94.35 80.65 94.55 79.9 M140.4 85.0 L141.15 83.8 141.35 83.4 141.5 83.05 141.9 81.25 141.9 81.1 141.95 81.1 Q144.55 81.4 147.65 83.55 L150.85 85.9 150.8 86.0 149.7 88.25 149.65 88.3 149.55 88.4 Q148.65 89.6 147.4 90.4 L145.4 89.15 143.2 87.1 140.5 85.1 140.4 85.0 M72.55 56.95 L72.45 57.0 72.3 57.1 65.6 61.95 64.7 62.6 64.65 62.05 64.35 59.7 64.4 58.25 Q64.45 57.4 64.75 56.95 64.85 56.85 65.4 56.65 L66.4 56.1 66.85 55.6 69.25 55.15 Q70.8 54.7 71.7 55.4 72.45 55.9 72.55 56.95" fill="#af8661" fill-rule="evenodd" stroke="none"/>
      <path d="M96.85 4.95 L96.85 5.0 96.3 4.85 94.55 4.55 94.0 4.5 93.7 4.4 Q90.15 4.0 86.55 4.3 L85.55 4.4 85.15 4.4 84.4 2.35 84.45 1.95 Q84.6 1.2 85.65 -0.05 86.25 -0.65 87.65 -1.1 L90.95 -1.45 Q93.7 0.05 95.45 2.4 96.45 3.75 96.85 4.95" fill="#4b3f2e" fill-rule="evenodd" stroke="none"/>
      <path d="M106.0 -0.2 L106.15 -0.05 106.05 -0.05 106.0 -0.2 M57.9 32.65 L57.75 32.45 57.6 32.35 57.9 29.45 57.9 29.25 57.9 29.2 57.95 29.25 58.0 30.8 58.0 30.9 58.0 32.0 57.9 32.65 M51.35 -27.45 L51.4 -27.3 51.35 -27.35 51.35 -27.45 M123.3 55.95 L123.2 55.95 123.15 55.1 123.35 55.15 123.3 55.95 M114.75 42.1 L114.85 41.9 114.85 42.15 114.75 42.1" fill="#07a3d6" fill-rule="evenodd" stroke="none"/>
      <path d="M67.8 -20.2 L68.05 -20.25 68.2 -19.95 67.8 -20.2 M123.7 3.8 L123.65 3.7 123.9 3.75 123.9 4.3 123.7 3.8" fill="#057296" fill-rule="evenodd" stroke="none"/>
      <path d="M55.15 -25.2 L55.3 -25.15 55.25 -25.15 55.15 -25.2 M67.5 -20.4 L67.8 -20.2 67.75 -20.2 67.5 -20.4" fill="#03536d" fill-rule="evenodd" stroke="none"/>
      <path d="M104.85 20.15 L104.9 19.35 104.9 17.3 105.05 16.85 105.7 16.9 106.0 16.9 106.05 16.9 106.6 19.35 106.1 19.35 Q105.8 19.35 105.5 20.1 L104.85 20.15 M109.15 41.25 L109.1 41.2 109.05 40.45 Q108.95 39.85 108.3 39.15 L107.95 38.75 108.05 38.65 108.05 36.8 Q107.7 36.4 107.75 34.85 L107.75 34.3 107.75 32.75 107.5 32.7 107.6 31.25 107.75 28.8 107.7 27.3 108.45 27.75 108.75 32.75 109.15 38.0 109.15 41.25 M82.3 17.45 L82.0 17.45 81.35 18.05 80.8 18.65 Q80.5 18.65 80.45 18.5 L80.45 18.35 80.35 18.65 80.0 18.95 79.9 18.8 Q79.85 18.65 79.65 18.65 L78.65 18.9 78.35 19.7 77.9 20.1 Q77.6 20.15 77.55 20.45 L77.15 21.8 76.8 23.25 75.85 26.4 75.75 28.65 Q75.75 30.0 76.05 32.25 L76.35 34.5 76.35 34.8 76.35 34.95 75.75 35.15 75.75 35.05 Q75.1 34.35 75.1 33.35 L75.2 32.25 75.05 31.25 75.1 30.75 Q74.8 29.3 74.8 28.15 L76.2 21.45 77.3 16.35 82.5 15.45 82.45 16.05 82.3 17.45 M88.1 27.6 L88.5 26.35 Q89.15 24.75 90.7 24.0 L90.9 23.95 93.95 23.4 95.4 23.45 98.25 23.5 Q98.95 24.2 99.5 24.4 100.95 26.35 101.75 26.85 L102.35 28.05 102.65 28.7 103.05 30.15 103.15 30.55 103.2 30.7 103.4 31.7 103.9 33.2 103.8 34.15 Q103.8 34.85 103.95 35.45 L104.0 37.0 104.05 37.45 102.95 37.75 102.65 36.8 102.65 34.65 Q102.75 33.25 101.8 30.45 L100.85 28.5 99.8 26.35 Q99.55 25.65 98.5 25.15 97.35 24.7 96.95 24.45 L95.35 23.9 92.55 24.45 Q92.15 24.55 91.05 25.2 L89.85 25.95 Q89.2 26.35 88.25 27.45 L88.1 27.6 M96.5 31.1 L96.55 30.95 96.6 31.05 96.5 31.1 M96.7 28.3 L96.65 28.3 96.6 28.35 95.9 28.95 95.7 29.25 95.65 29.25 95.5 29.35 95.6 29.4 Q95.2 30.0 94.9 30.85 L94.75 31.3 94.4 32.25 94.35 32.3 94.35 32.4 94.3 32.45 94.2 32.75 93.4 34.15 93.35 34.25 89.7 37.95 89.05 38.7 89.0 38.8 88.95 38.95 88.95 39.05 88.9 39.1 88.75 40.15 88.65 40.6 88.0 40.1 88.35 38.85 Q88.8 37.65 89.25 37.15 L92.0 33.85 93.3 32.1 94.15 30.45 Q94.4 29.5 95.2 28.85 L96.25 28.15 96.4 28.15 96.6 28.25 96.7 28.3 M64.25 20.4 L64.2 20.75 64.2 21.75 64.8 19.8 65.0 19.6 65.15 19.4 65.5 19.05 65.55 19.05 65.4 19.5 65.1 20.9 64.35 25.3 62.45 29.5 Q61.05 32.45 60.9 33.8 60.65 34.15 60.65 34.65 60.6 35.35 60.85 36.25 L60.85 38.8 60.9 39.05 60.95 39.45 60.95 39.55 60.95 39.6 61.15 40.4 61.2 40.5 61.2 40.8 60.3 40.9 59.65 41.05 59.55 40.35 59.45 38.8 Q59.45 34.7 60.8 28.2 L62.05 23.2 62.25 22.9 63.1 21.55 63.15 21.55 63.15 21.5 64.25 20.4 M62.75 40.45 L62.45 38.45 62.15 36.4 62.2 34.7 62.25 33.35 62.25 33.3 Q62.45 32.2 63.1 31.05 L64.3 28.95 65.3 26.8 66.35 22.6 67.1 18.85 70.35 18.0 70.35 19.85 70.15 21.65 69.95 21.45 69.65 21.3 68.3 21.3 66.35 26.25 64.9 29.05 Q64.05 30.65 64.05 31.1 L64.2 33.6 64.1 36.1 Q64.05 36.8 64.3 38.45 64.3 39.65 63.65 40.4 L63.4 40.5 62.95 40.55 62.85 40.6 62.75 40.45 M72.05 17.55 L73.7 17.15 73.95 17.1 74.0 17.15 74.05 17.1 74.35 17.0 74.55 16.95 75.65 16.7 75.7 16.65 75.85 16.75 75.1 20.8 75.05 20.9 74.75 22.05 73.95 24.8 Q73.5 26.3 73.5 28.15 73.5 31.45 73.85 32.4 L73.85 35.65 74.0 36.05 74.15 36.35 74.65 37.15 74.7 37.25 74.75 37.3 74.65 37.3 74.6 37.3 74.5 37.3 73.95 36.65 Q73.35 35.75 73.35 35.3 L73.3 34.2 73.2 33.15 73.15 30.55 73.2 28.7 73.2 24.2 74.25 19.85 74.25 19.65 74.0 19.6 Q73.8 19.6 73.85 19.75 L73.7 19.9 73.35 19.8 73.3 19.6 Q72.45 21.0 72.0 23.1 L71.4 26.65 70.15 30.6 Q69.55 32.25 69.55 33.75 L70.05 37.75 70.4 39.6 Q70.65 40.75 71.25 41.65 L72.65 43.45 74.15 45.4 76.05 49.2 76.05 49.95 76.05 50.45 75.8 49.85 75.5 49.3 75.4 49.1 75.3 48.9 Q74.15 46.85 72.75 45.65 69.95 43.2 69.05 41.2 68.45 39.75 68.45 37.3 68.45 33.75 70.2 27.1 L70.65 25.45 71.9 18.05 71.95 17.85 72.05 17.55 M69.5 38.65 L69.4 37.85 69.3 37.85 69.25 38.05 69.35 38.45 69.45 38.65 69.5 38.65" fill="#141414" fill-rule="evenodd" stroke="none"/>
      <path d="M104.85 20.15 L105.5 20.1 Q105.8 19.35 106.1 19.35 L106.6 19.35 106.7 19.8 106.7 20.15 106.7 20.3 106.3 21.0 Q105.8 21.65 105.7 22.2 L105.5 24.45 105.3 28.95 105.55 32.3 105.8 35.5 105.8 36.6 105.6 37.35 105.2 37.3 105.2 35.2 105.2 33.8 105.2 33.05 105.2 32.9 105.0 31.1 Q104.55 30.3 104.55 29.55 104.55 29.05 104.7 28.6 104.25 28.15 104.25 27.4 L104.55 23.35 104.85 20.35 104.85 20.15 M107.95 25.85 L108.3 25.95 Q108.8 26.1 109.0 26.6 L109.65 28.6 Q110.35 30.4 110.25 32.55 110.2 33.65 110.5 36.45 L110.85 40.5 110.85 41.55 109.15 41.25 109.15 38.0 108.75 32.75 108.45 27.75 107.7 27.3 107.7 27.25 107.7 27.15 107.6 26.6 107.9 26.5 107.95 25.85 M75.75 35.15 L76.35 34.95 76.35 34.8 76.35 34.5 76.05 32.25 Q75.75 30.0 75.75 28.65 L75.85 26.4 76.8 23.25 77.15 21.8 77.55 20.45 Q77.6 20.15 77.9 20.1 L78.35 19.7 78.65 18.9 79.65 18.65 Q79.85 18.65 79.9 18.8 L80.0 18.95 80.35 18.65 80.45 18.35 80.45 18.5 Q80.5 18.65 80.8 18.65 L81.35 18.05 82.0 17.45 82.3 17.45 Q81.95 19.95 81.25 21.5 L81.1 21.7 81.1 22.2 80.35 22.7 Q79.0 23.8 78.4 25.3 L78.25 26.2 78.15 27.05 77.7 27.75 77.15 28.7 76.95 30.5 76.85 32.3 76.55 35.85 Q76.5 35.85 76.4 35.95 L76.2 35.7 75.95 35.35 75.9 35.3 75.75 35.15 M88.1 27.6 L88.25 27.45 Q89.2 26.35 89.85 25.95 L91.05 25.2 Q92.15 24.55 92.55 24.45 L95.35 23.9 96.95 24.45 Q97.35 24.7 98.5 25.15 99.55 25.65 99.8 26.35 L100.85 28.5 101.8 30.45 Q102.75 33.25 102.65 34.65 L102.65 36.8 102.95 37.75 102.3 38.0 102.15 38.0 102.05 38.05 Q101.85 37.6 101.8 36.75 L101.6 34.55 100.75 32.7 100.05 30.75 97.85 26.95 97.05 25.95 96.7 26.1 96.15 25.85 94.6 25.6 Q93.05 25.6 91.5 26.35 90.05 27.0 89.6 27.85 L88.5 29.45 87.6 30.65 87.65 30.3 87.7 30.0 87.7 29.95 87.75 29.85 87.8 29.4 88.1 27.6 M97.3 29.05 L97.3 29.0 97.35 29.05 97.3 29.05 M94.75 31.3 L94.35 32.4 94.35 32.3 94.4 32.25 94.75 31.3 M88.0 40.1 L87.85 39.9 87.75 39.75 87.7 39.75 87.65 39.7 87.6 39.5 Q87.6 38.95 88.85 36.1 90.15 33.3 90.65 32.75 L91.85 31.15 93.5 29.45 Q93.85 29.2 94.15 29.1 L94.75 28.8 95.2 28.45 95.8 28.2 96.4 28.15 96.25 28.15 95.2 28.85 Q94.4 29.5 94.15 30.45 L93.3 32.1 92.0 33.85 89.25 37.15 Q88.8 37.65 88.35 38.85 L88.0 40.1 M86.2 39.8 L86.1 39.85 86.15 39.1 86.2 39.1 86.2 39.5 86.2 39.8 M85.2 45.05 L86.05 45.1 87.75 45.0 Q87.35 46.15 87.4 48.05 87.45 51.9 87.15 52.85 85.0 52.85 84.9 49.55 L85.2 45.05 M64.25 20.4 L64.8 19.8 64.2 21.75 64.2 20.75 64.25 20.4 M61.2 40.5 L61.3 40.75 61.2 40.8 61.2 40.5 M59.65 41.05 L57.5 41.55 58.15 38.8 58.95 34.85 58.95 34.65 59.3 34.65 Q59.2 31.85 59.35 30.25 59.65 27.6 60.55 25.85 L61.8 23.6 62.05 23.2 60.8 28.2 Q59.45 34.7 59.45 38.8 L59.55 40.35 59.65 41.05 M62.75 40.45 L62.85 40.6 62.8 40.6 62.75 40.45 M63.65 40.4 Q64.3 39.65 64.3 38.45 64.05 36.8 64.1 36.1 L64.2 33.6 64.05 31.1 Q64.05 30.65 64.9 29.05 L66.35 26.25 68.3 21.3 69.65 21.3 69.95 21.45 70.15 21.65 70.0 22.25 69.85 22.7 69.85 22.85 68.55 24.4 Q66.95 26.7 66.4 29.45 L65.65 33.35 65.45 36.35 65.55 37.7 65.75 39.55 65.75 40.35 65.15 40.35 63.95 40.4 63.65 40.4 M71.95 17.85 L71.95 17.6 72.05 17.55 71.95 17.85 M73.95 17.1 L74.05 17.1 74.0 17.15 73.95 17.1 M75.7 16.65 L75.85 16.65 75.85 16.75 75.7 16.65 M76.05 49.2 L74.15 45.4 72.65 43.45 71.25 41.65 Q70.65 40.75 70.4 39.6 L70.05 37.75 69.55 33.75 Q69.55 32.25 70.15 30.6 L71.4 26.65 72.0 23.1 Q72.45 21.0 73.3 19.6 L73.35 19.8 73.7 19.9 73.85 19.75 Q73.8 19.6 74.0 19.6 L74.25 19.65 74.25 19.85 73.2 24.2 73.2 28.7 73.15 30.55 73.2 33.15 73.3 34.2 73.35 35.3 Q73.35 35.75 73.95 36.65 L74.5 37.3 Q74.15 37.25 73.75 36.85 L73.35 37.3 73.15 37.65 Q73.15 38.15 74.75 42.85 L75.5 45.5 76.05 48.0 76.05 48.25 76.05 48.35 76.05 48.5 76.05 49.2 M69.5 38.65 L69.45 38.65 69.35 38.45 69.25 38.05 69.3 37.85 69.4 37.85 69.5 38.65" fill="#1d1d1d" fill-rule="evenodd" stroke="none"/>
      <path d="M106.7 20.3 L106.8 23.9 106.6 26.15 106.6 26.3 Q106.35 27.1 106.25 28.6 L106.15 32.9 106.2 34.0 106.25 34.05 106.6 34.15 Q106.45 34.7 106.45 35.2 L106.55 37.25 106.4 37.6 105.6 37.35 105.8 36.6 105.8 35.5 105.55 32.3 105.3 28.95 105.5 24.45 105.7 22.2 Q105.8 21.65 106.3 21.0 L106.7 20.3 M107.95 25.85 L108.05 23.95 108.05 20.8 Q110.35 24.6 110.55 25.85 L111.2 31.25 Q111.4 33.25 111.85 34.65 L111.6 35.9 111.55 36.2 111.9 36.4 111.95 36.4 111.75 37.65 111.6 39.45 Q111.2 39.85 111.2 40.2 L111.2 40.6 111.55 40.75 111.55 40.8 111.55 41.6 110.85 41.55 110.85 40.5 110.5 36.45 Q110.2 33.65 110.25 32.55 110.35 30.4 109.65 28.6 L109.0 26.6 Q108.8 26.1 108.3 25.95 L107.95 25.85 M76.4 35.95 Q76.5 35.85 76.55 35.85 L76.85 32.3 76.95 30.5 77.15 28.7 77.7 27.75 78.15 27.05 78.25 26.2 78.4 25.3 Q79.0 23.8 80.35 22.7 L81.1 22.2 80.95 24.55 80.8 27.2 80.8 29.45 81.1 29.7 81.1 34.4 80.8 40.8 Q78.4 40.5 77.8 39.2 L77.45 38.15 77.25 37.25 76.4 35.95 M102.05 38.05 L101.6 38.2 100.8 38.45 100.75 38.45 100.6 38.5 100.5 38.6 100.2 38.8 100.15 38.75 100.0 38.45 99.95 38.45 100.05 38.95 100.0 39.05 99.45 38.0 97.5 35.6 95.6 33.35 95.45 33.2 95.8 32.5 96.0 32.1 96.5 31.1 96.6 31.05 96.55 30.95 97.0 30.1 97.15 29.6 97.3 29.1 97.3 29.05 97.35 29.05 97.3 29.0 97.3 28.95 Q97.3 28.55 97.1 28.45 L96.7 28.3 96.6 28.25 96.4 28.15 95.8 28.2 95.2 28.45 94.75 28.8 94.15 29.1 Q93.85 29.2 93.5 29.45 L91.85 31.15 90.65 32.75 Q90.15 33.3 88.85 36.1 87.6 38.95 87.6 39.5 L87.65 39.7 87.45 39.65 87.2 39.6 87.1 39.6 86.2 39.8 86.2 39.5 86.2 39.1 86.5 38.75 86.3 38.15 86.25 38.15 86.3 37.6 Q86.65 34.7 87.15 32.9 L87.6 30.65 88.5 29.45 89.6 27.85 Q90.05 27.0 91.5 26.35 93.05 25.6 94.6 25.6 L96.15 25.85 96.7 26.1 97.05 25.95 97.85 26.95 100.05 30.75 100.75 32.7 101.6 34.55 101.8 36.75 Q101.85 37.6 102.05 38.05 M95.65 29.25 L95.6 29.4 95.5 29.35 95.65 29.25 M88.75 40.15 L88.75 40.65 88.65 40.6 88.75 40.15 M69.85 22.85 L69.1 25.55 67.45 32.45 Q67.2 33.65 67.2 36.85 L66.8 36.5 Q67.2 37.15 67.2 38.15 L67.15 38.75 67.2 38.75 67.2 39.6 67.25 40.35 65.75 40.35 65.75 39.55 65.55 37.7 65.45 36.35 65.65 33.35 66.4 29.45 Q66.95 26.7 68.55 24.4 L69.85 22.85 M74.75 37.3 L76.85 40.75 79.05 43.65 Q80.0 44.9 80.35 46.05 80.8 47.4 80.8 49.7 L80.9 50.3 80.8 51.6 Q80.45 53.5 78.75 53.5 77.85 53.5 77.25 52.75 L76.25 50.95 76.05 50.45 76.05 49.95 76.05 49.2 76.05 48.5 76.05 48.35 76.05 48.25 76.05 48.0 75.5 45.5 74.75 42.85 Q73.15 38.15 73.15 37.65 L73.35 37.3 73.75 36.85 Q74.15 37.25 74.5 37.3 L74.6 37.3 74.65 37.3 74.75 37.3 M62.8 40.6 L62.75 40.6 62.75 40.45 62.8 40.6" fill="#282828" fill-rule="evenodd" stroke="none"/>
      <path d="M55.75 41.05 L55.8 40.75 55.95 40.8 55.9 41.05 55.75 41.05" fill="#039dfa" fill-rule="evenodd" stroke="none"/>
      <path d="M48.95 45.3 L48.9 45.2 49.15 45.1 48.95 45.3" fill="#0281cc" fill-rule="evenodd" stroke="none"/>
      <path d="M122.6 51.0 L122.65 50.8 123.7 49.1 123.75 49.05 125.75 46.35 125.95 46.5 Q126.75 47.2 126.75 48.4 L126.1 49.6 125.5 50.8 125.6 51.35 125.7 51.4 125.8 51.45 125.65 51.65 123.95 54.05 123.1 54.95 123.1 54.9 121.85 52.15 122.6 51.0 M121.9 44.25 L119.2 47.55 119.15 47.5 118.9 47.3 118.6 47.15 116.85 46.45 116.9 46.25 116.85 46.25 116.6 46.2 Q116.6 44.6 116.25 43.75 115.8 42.7 114.85 42.15 L114.85 41.9 114.75 42.1 Q113.95 41.7 112.8 41.65 L112.9 40.9 114.9 40.95 117.45 41.15 Q117.75 41.15 118.1 41.65 L118.5 42.3 118.85 43.5 Q119.0 44.3 119.9 44.3 L119.95 44.3 120.2 44.25 Q121.2 44.1 121.9 44.25 M89.5 43.3 L89.7 43.1 89.7 42.8 89.75 42.7 89.85 42.05 89.9 42.0 Q89.4 40.7 90.5 39.15 L93.8 39.4 Q96.4 39.4 97.75 38.85 L98.2 38.65 98.55 39.5 98.95 40.35 98.1 41.65 97.5 42.6 Q92.7 40.95 90.25 44.7 89.25 46.2 88.7 48.3 L88.65 47.1 Q88.55 45.7 88.75 44.75 88.9 44.0 89.2 43.45 L89.5 43.3 M82.2 41.95 L82.15 41.75 82.35 39.05 84.75 39.4 84.6 40.75 Q83.95 41.25 83.75 41.95 L83.65 43.3 83.6 43.6 83.65 44.25 83.75 44.4 83.55 44.55 Q82.3 43.15 82.3 42.7 L82.2 41.95 M84.3 61.25 L84.15 61.4 84.4 61.75 Q85.1 62.0 85.75 62.6 L87.45 64.65 87.45 64.85 87.55 64.85 87.7 64.9 87.7 64.95 87.75 64.95 87.75 65.0 87.75 65.35 87.75 65.5 87.7 65.95 87.7 66.05 87.5 66.2 87.15 66.3 86.9 66.05 86.85 66.45 86.65 66.2 86.4 65.9 86.25 65.65 86.1 65.35 85.75 65.4 85.65 65.4 85.4 65.35 84.75 65.5 84.6 65.85 84.8 66.3 84.75 66.3 84.4 65.95 84.3 65.65 Q84.3 65.05 84.85 64.55 85.55 63.95 86.35 64.4 L86.55 64.55 84.5 62.0 81.75 59.55 80.35 58.85 79.0 58.5 76.15 58.2 76.2 58.1 75.5 58.7 74.15 59.35 Q72.6 60.0 71.55 60.85 L69.95 62.2 66.0 65.05 62.6 67.9 Q61.6 69.0 61.2 70.7 L60.55 73.55 60.75 75.7 61.25 79.25 62.0 82.3 63.15 85.5 64.2 88.55 Q64.9 90.4 65.85 91.8 L68.05 95.25 69.45 96.55 71.35 98.7 70.95 99.75 70.2 98.6 69.55 97.8 68.95 97.65 68.35 97.7 68.25 97.8 68.25 97.95 68.05 101.15 Q67.8 102.95 66.8 104.2 66.2 103.7 65.65 102.5 L65.5 102.2 65.5 102.1 63.95 99.7 61.8 96.7 60.35 93.85 59.25 91.1 57.1 86.1 Q55.7 82.4 55.7 79.85 55.7 76.4 57.65 73.05 L59.05 70.7 59.55 69.2 59.35 69.4 59.85 68.8 62.45 66.35 67.2 62.75 69.3 61.15 71.8 59.4 73.15 58.4 74.15 57.65 76.65 56.8 77.15 56.55 77.6 56.8 77.7 56.85 77.8 56.95 77.9 57.0 78.8 57.4 79.0 57.5 Q80.15 58.1 80.5 58.4 L84.3 61.25 M83.95 71.2 L83.95 71.25 83.85 71.3 83.65 71.75 83.4 71.05 82.75 70.45 82.55 70.6 82.55 69.65 Q83.3 68.95 83.6 69.55 L83.8 70.75 83.95 71.2 M79.7 77.2 L79.05 78.85 78.45 77.45 Q78.15 76.55 77.65 76.15 L77.35 76.4 Q77.4 75.6 77.75 75.4 78.1 75.2 78.6 75.65 79.4 76.3 79.7 77.2 M76.65 88.15 L76.7 89.1 76.55 89.1 76.05 88.2 Q75.65 87.55 75.1 87.55 L74.55 87.65 74.3 87.6 74.3 86.65 Q75.05 86.4 75.65 86.85 L76.15 87.6 76.65 88.15 M53.0 81.6 L53.15 80.95 53.15 81.6 53.0 81.6 M53.6 79.55 L53.6 79.4 53.65 79.3 53.75 79.4 53.6 79.55 M127.0 90.25 L127.5 91.05 128.3 91.85 Q129.0 92.55 129.65 92.55 L131.7 92.7 136.35 93.3 140.5 93.5 Q146.5 93.5 149.65 90.5 150.0 91.6 151.6 94.6 153.65 98.5 153.65 99.25 153.65 100.55 147.65 103.7 141.45 106.95 138.25 106.95 L130.75 106.0 Q126.0 105.05 123.25 103.95 L119.1 102.0 117.9 101.35 Q120.25 100.2 121.75 98.95 125.85 95.65 127.0 90.25" fill="#02334d" fill-rule="evenodd" stroke="none"/>
      <path d="M65.5 102.2 Q65.05 101.25 64.35 100.8 63.65 101.15 63.5 102.25 L63.5 102.4 63.05 104.5 Q62.55 105.4 62.55 106.7 L62.45 108.55 Q61.4 108.2 60.6 107.55 59.75 106.8 59.45 105.85 L59.05 103.75 Q58.75 102.35 58.0 102.35 L57.55 102.45 57.6 102.5 Q57.4 103.4 55.9 104.95 L53.35 107.35 53.25 107.25 Q53.45 104.6 52.9 103.1 52.3 101.4 52.3 99.8 52.3 98.7 52.75 96.85 53.25 94.95 53.25 93.6 L53.25 92.3 52.95 91.35 52.95 90.3 Q52.3 88.85 52.3 87.95 52.3 84.5 53.0 81.6 L53.15 81.6 53.15 80.95 53.5 79.7 53.6 79.55 53.75 79.4 53.65 79.3 Q55.0 75.35 58.4 70.6 L58.55 70.35 59.35 69.4 59.55 69.2 59.05 70.7 57.65 73.05 Q55.7 76.4 55.7 79.85 55.7 82.4 57.1 86.1 L59.25 91.1 60.35 93.85 61.8 96.7 63.95 99.7 65.5 102.1 65.5 102.2" fill="#01293f" fill-rule="evenodd" stroke="none"/>
      <path d="M97.2 37.45 L96.25 37.6 93.8 38.0 91.7 37.9 94.0 35.6 94.65 34.65 95.35 35.5 97.2 37.3 97.2 37.45 M82.6 30.45 L86.45 28.9 86.5 28.95 86.25 30.65 86.25 30.8 86.2 30.8 86.1 31.45 82.6 33.0 82.65 31.95 82.65 31.85 82.65 31.35 82.6 30.45 M115.45 46.75 L114.9 47.6 114.45 48.5 113.75 48.7 113.4 48.7 113.05 48.65 113.0 48.5 112.95 48.2 113.2 46.05 113.45 44.0 Q113.5 43.55 113.8 43.4 L114.05 43.5 Q114.9 43.9 115.15 44.75 L115.35 46.25 115.45 46.75 M108.5 42.65 L107.9 43.6 106.45 44.9 Q105.7 44.9 105.55 43.15 L105.5 41.3 Q105.5 39.95 105.75 39.15 L105.85 38.85 106.0 38.85 Q106.45 38.85 107.2 39.95 L108.05 41.6 108.5 42.65 M97.0 46.35 L97.2 46.55 97.45 47.0 97.3 47.3 96.9 47.45 Q96.45 47.45 95.75 46.7 L94.9 45.75 93.7 44.9 Q93.1 44.55 93.05 44.2 94.1 43.65 95.55 43.65 L96.85 43.85 Q96.3 44.9 96.3 45.35 L96.35 45.45 Q96.4 45.7 96.95 46.35 L97.0 46.35 M87.35 69.1 L87.3 69.4 86.8 70.2 86.1 71.0 85.55 72.65 84.6 74.25 84.5 74.15 86.5 67.9 87.0 68.75 87.35 69.1 M83.3 74.75 L83.2 75.1 82.6 75.75 Q82.05 76.2 82.0 76.4 81.8 76.85 81.55 77.9 81.2 78.8 80.65 79.3 L80.5 79.25 Q81.35 75.4 82.8 73.3 L82.9 74.3 83.3 74.75 M78.85 80.9 L78.5 81.3 Q78.1 81.6 78.15 81.9 L78.15 83.05 78.05 84.1 78.0 85.15 77.95 87.75 Q77.25 86.45 77.1 84.9 L77.0 81.95 Q77.0 79.7 77.4 78.5 L78.25 80.1 78.85 80.9 M78.0 88.85 Q78.45 88.1 79.7 88.6 L79.65 88.5 80.35 88.75 81.45 89.05 82.75 87.45 82.75 87.75 82.75 89.9 Q82.85 91.5 83.25 92.05 L83.35 92.25 83.25 92.3 83.4 92.35 83.7 92.9 84.75 94.3 85.15 94.7 Q86.9 96.35 89.4 96.35 L89.9 96.3 92.05 95.7 92.2 95.6 92.3 95.55 92.35 95.5 92.35 95.55 92.25 95.75 91.25 96.6 Q90.05 97.35 88.65 97.35 L86.8 97.15 86.6 97.0 83.75 94.35 82.3 93.15 79.7 91.5 Q78.65 91.0 78.0 90.85 L78.0 88.85 M76.25 99.5 L73.45 98.1 73.25 97.95 73.85 96.85 74.75 93.6 75.55 90.65 75.65 90.65 75.65 90.7 75.7 90.8 76.1 91.75 76.05 92.3 Q76.05 92.75 77.9 94.1 L76.95 93.95 76.8 93.95 76.7 94.55 76.35 97.45 76.3 98.85 76.25 99.5 M95.0 91.8 L94.9 91.7 94.75 91.7 94.45 91.65 Q94.0 91.7 93.65 92.25 L92.9 93.3 Q91.85 94.8 89.7 94.95 L89.7 94.6 90.5 93.25 Q91.25 92.25 91.75 91.9 L92.75 91.3 93.65 90.8 94.5 90.25 95.6 89.95 95.65 90.05 95.7 90.35 95.05 91.75 95.0 91.8" fill="#845c42" fill-rule="evenodd" stroke="none"/>
      <path d="M107.75 69.15 L107.75 68.75 Q107.75 66.7 109.3 64.45 111.5 61.3 112.2 59.6 112.9 57.8 113.05 55.05 L113.15 50.6 111.85 52.45 110.25 54.6 Q109.8 54.1 109.8 53.25 109.8 52.45 110.35 50.4 L110.9 47.75 110.95 46.4 Q110.85 45.6 110.4 45.25 109.9 44.8 109.45 44.75 L108.45 44.3 108.35 44.2 Q106.2 51.25 105.6 51.25 104.9 51.25 104.8 50.15 L104.75 48.65 104.3 47.4 104.1 46.05 103.8 42.4 Q103.65 41.05 103.15 41.05 102.95 41.05 101.6 41.8 L100.05 42.65 99.45 43.45 Q98.85 44.0 98.25 44.15 L98.2 44.15 98.25 44.4 97.35 47.8 97.15 49.5 Q96.95 50.8 96.3 50.8 L95.6 49.9 94.9 48.55 93.7 47.45 92.5 46.3 Q91.0 46.7 90.35 47.85 L89.95 48.7 89.8 49.05 89.75 49.05 89.85 48.85 89.9 48.5 89.95 48.4 Q90.65 45.95 92.15 44.75 L92.2 44.75 Q92.6 44.4 93.05 44.2 93.1 44.55 93.7 44.9 L94.9 45.75 95.75 46.7 Q96.45 47.45 96.9 47.45 L97.3 47.3 97.45 47.0 97.2 46.55 97.0 46.35 97.35 46.2 98.2 44.0 98.25 43.8 98.55 43.65 98.55 43.6 98.7 43.15 98.65 43.05 98.55 43.05 Q99.0 42.0 99.55 41.25 L99.85 41.15 100.05 41.05 100.15 40.65 100.15 40.6 Q101.9 38.9 105.85 38.85 L105.75 39.15 Q105.5 39.95 105.5 41.3 L105.55 43.15 Q105.7 44.9 106.45 44.9 L107.9 43.6 108.5 42.65 108.75 42.9 109.8 43.45 110.45 43.45 112.2 43.2 113.8 43.4 Q113.5 43.55 113.45 44.0 L113.2 46.05 112.95 48.2 113.0 48.5 113.05 48.65 113.4 48.7 113.75 48.7 114.45 48.5 114.9 47.6 115.45 46.75 Q115.7 47.45 116.65 47.85 L116.75 48.2 117.4 50.0 Q117.65 50.8 118.05 51.0 118.55 51.2 118.9 51.75 L119.5 53.4 120.05 55.15 120.2 56.15 120.4 57.15 Q120.4 58.95 118.05 64.25 L115.5 69.15 114.65 69.25 112.65 69.3 109.4 69.25 107.75 69.15 M117.0 51.9 Q116.95 51.85 116.85 52.0 L117.0 51.95 117.0 51.9 M81.65 79.45 L81.6 79.9 81.3 81.4 81.3 82.35 83.25 80.4 84.9 78.5 86.5 76.3 86.55 76.3 86.4 76.55 85.0 79.6 84.9 79.75 83.55 82.15 Q83.05 83.05 82.9 84.05 L82.9 84.15 82.8 84.95 82.75 87.45 81.45 89.05 80.35 88.75 79.65 88.5 79.05 85.95 79.1 85.95 79.05 85.85 79.3 84.3 79.4 84.1 81.4 79.75 81.55 79.6 81.55 79.55 81.65 79.4 81.65 79.45 M105.8 84.35 L107.05 84.35 107.15 84.35 109.0 84.3 109.35 84.3 107.9 88.15 Q106.45 91.6 105.6 92.75 L102.2 97.35 101.35 98.5 100.3 99.5 99.2 100.5 Q98.25 101.3 97.75 101.3 97.3 101.3 97.05 101.0 L96.95 100.65 Q96.95 100.1 98.8 98.65 100.85 97.0 101.4 95.85 L102.5 93.5 103.65 91.1 105.1 86.35 105.8 84.35 M76.1 91.75 L76.35 92.2 76.95 93.25 77.35 93.5 77.4 93.5 Q77.8 93.5 77.9 93.3 L78.0 93.15 78.0 90.85 Q78.65 91.0 79.7 91.5 L82.3 93.15 83.75 94.35 86.6 97.0 86.8 97.15 85.15 96.7 81.75 95.45 80.9 95.05 79.4 94.45 79.3 94.4 78.85 94.3 78.15 94.15 77.9 94.1 Q76.05 92.75 76.05 92.3 L76.1 91.75 M82.9 94.15 L81.95 93.75 81.85 93.75 82.9 94.15" fill="#b7886b" fill-rule="evenodd" stroke="none"/>
      <path d="M89.8 49.05 L89.95 48.7 90.35 47.85 Q91.0 46.7 92.5 46.3 L93.7 47.45 94.9 48.55 95.6 49.9 96.3 50.8 Q96.95 50.8 97.15 49.5 L97.35 47.8 98.25 44.4 98.2 44.15 98.25 44.15 Q98.85 44.0 99.45 43.45 L100.05 42.65 101.6 41.8 Q102.95 41.05 103.15 41.05 103.65 41.05 103.8 42.4 L104.1 46.05 104.3 47.4 104.75 48.65 104.8 50.15 Q104.9 51.25 105.6 51.25 106.2 51.25 108.35 44.2 L108.45 44.3 109.45 44.75 Q109.9 44.8 110.4 45.25 110.85 45.6 110.95 46.4 L110.9 47.75 110.35 50.4 Q109.8 52.45 109.8 53.25 109.8 54.1 110.25 54.6 L111.85 52.45 113.15 50.6 113.05 55.05 Q112.9 57.8 112.2 59.6 111.5 61.3 109.3 64.45 107.75 66.7 107.75 68.75 L107.75 69.15 Q103.7 68.75 101.35 67.75 L99.4 66.6 99.3 66.45 Q98.65 66.3 98.2 65.95 L97.65 65.3 96.65 64.9 94.6 64.0 93.4 62.9 92.7 62.75 92.7 62.7 92.8 62.65 92.8 62.6 92.2 62.0 92.05 61.5 91.75 61.3 91.65 61.1 Q90.35 60.35 89.75 58.5 89.4 57.15 89.4 53.65 89.25 51.2 89.8 49.05 M115.5 69.15 L118.05 64.25 Q120.4 58.95 120.4 57.15 L120.2 56.15 120.05 55.15 119.5 53.4 118.9 51.75 Q118.55 51.2 118.05 51.0 117.65 50.8 117.4 50.0 L116.75 48.2 116.65 47.85 118.15 49.15 Q120.2 50.65 120.4 52.05 L120.95 53.65 121.7 55.15 122.0 56.7 122.0 58.25 121.85 60.7 Q121.65 62.1 121.05 62.95 118.85 66.05 118.55 67.9 L118.5 67.9 Q118.05 68.0 117.65 68.25 L116.85 68.75 115.5 69.15 M117.0 51.9 L117.0 51.95 116.85 52.0 Q116.95 51.85 117.0 51.9 M81.65 79.45 Q83.05 77.15 85.15 74.35 87.0 72.0 89.4 69.3 L90.35 68.2 90.6 68.4 89.3 71.45 88.2 73.25 87.15 74.75 86.5 76.3 84.9 78.5 83.25 80.4 81.3 82.35 81.3 81.4 81.6 79.9 81.65 79.45 M79.05 85.95 L79.05 85.85 79.1 85.95 79.05 85.95 M87.8 94.7 Q85.6 94.05 84.6 91.4 84.0 89.65 84.0 87.5 84.0 84.1 84.95 82.45 L87.5 77.4 89.0 78.9 91.9 80.85 93.55 81.9 95.15 82.9 Q96.4 83.7 97.2 83.95 L97.3 83.95 97.85 84.05 98.8 84.15 103.05 84.35 102.75 84.45 Q102.15 84.75 102.2 85.25 L102.1 86.3 102.05 87.3 101.1 91.3 Q100.4 94.0 98.5 95.35 L94.7 97.35 94.25 97.5 93.8 97.6 92.5 97.65 92.8 97.45 93.95 96.4 94.35 95.85 95.15 95.0 95.45 93.95 95.95 92.8 96.05 92.0 96.05 91.7 96.8 89.6 97.5 87.95 93.7 88.0 93.1 88.2 92.4 88.5 Q90.9 89.2 90.4 89.65 L89.05 90.9 88.25 91.6 88.2 91.85 Q87.85 93.1 87.8 94.7 M111.45 84.2 L111.65 84.2 115.95 83.95 116.0 83.95 115.95 87.45 115.65 89.95 115.25 92.4 114.6 94.75 Q114.2 96.15 114.1 97.05 L113.25 98.5 108.95 102.5 Q108.4 103.0 105.55 104.15 L103.85 104.85 102.35 106.0 100.0 107.25 99.9 107.25 99.4 107.3 98.8 107.25 98.75 107.15 98.65 107.2 98.65 107.15 98.45 106.75 94.25 106.95 Q89.45 106.95 84.75 104.8 81.65 103.4 79.05 101.35 L79.0 101.3 78.75 96.95 78.8 95.05 79.5 95.5 80.1 96.2 81.25 97.35 81.85 97.9 82.75 98.55 83.05 98.75 84.45 99.4 87.6 100.8 89.3 101.65 91.45 102.4 93.95 103.0 96.15 103.45 98.35 104.2 100.35 104.6 Q101.1 104.6 102.6 103.0 L103.95 101.2 Q103.95 100.65 104.45 100.0 L105.2 99.75 106.3 99.0 107.85 97.3 Q109.0 95.65 109.25 94.45 L110.5 90.05 Q111.55 86.55 111.55 85.1 L111.5 84.45 111.45 84.2 M83.35 92.25 L83.4 92.35 83.25 92.3 83.35 92.25 M90.75 86.9 L90.5 86.85 90.45 87.0 90.75 86.9" fill="#cdac98" fill-rule="evenodd" stroke="none"/>
      <path d="M100.45 17.85 L101.05 17.55 102.4 17.1 102.5 17.1 102.9 17.3 Q103.65 17.75 103.65 18.5 L103.55 18.85 103.5 18.95 102.8 18.75 102.15 18.5 101.15 18.6 101.05 18.65 101.05 18.45 101.0 17.95 100.45 17.85 M99.05 19.05 L99.0 19.05 98.5 18.8 98.35 18.75 98.25 18.45 99.85 18.05 99.65 18.65 99.65 18.8 99.1 19.05 99.05 19.05 M84.9 17.75 L84.55 17.9 84.25 17.95 84.25 17.7 84.3 17.5 Q84.3 16.65 84.95 16.2 L86.05 15.95 86.95 16.35 88.35 17.1 89.4 17.55 90.2 17.85 90.3 17.9 Q90.15 18.6 89.1 18.75 L88.25 18.2 Q87.5 17.7 86.95 17.55 L86.95 17.3 86.95 16.8 86.1 16.75 Q85.35 16.6 85.05 16.95 L84.9 17.55 84.9 17.75" fill="#999999" fill-rule="evenodd" stroke="none"/>
      <path d="M99.85 18.05 L99.9 18.05 100.45 17.85 101.0 17.95 101.05 18.45 101.05 18.65 100.85 19.1 100.3 19.4 Q99.75 19.4 99.65 19.1 L99.65 18.8 99.65 18.65 99.85 18.05 M86.95 17.55 L86.8 18.0 Q86.55 18.35 86.1 18.35 L85.8 18.3 85.7 18.35 85.5 18.25 85.4 18.1 84.9 17.75 84.9 17.55 85.05 16.95 Q85.35 16.6 86.1 16.75 L86.95 16.8 86.95 17.3 86.95 17.55" fill="#ffffff" fill-rule="evenodd" stroke="none"/>
      <path d="M103.5 18.95 L102.95 19.4 Q102.2 20.1 101.1 20.1 100.05 20.1 99.55 19.2 L99.45 19.1 99.05 19.05 99.1 19.05 99.65 18.8 99.65 19.1 Q99.75 19.4 100.3 19.4 L100.85 19.1 101.05 18.65 101.15 18.6 102.15 18.5 102.8 18.75 103.5 18.95 M84.9 17.75 L85.4 18.1 85.5 18.25 85.7 18.35 85.8 18.3 86.1 18.35 Q86.55 18.35 86.8 18.0 L86.95 17.55 Q87.5 17.7 88.25 18.2 L89.1 18.75 88.35 18.8 88.25 18.8 88.05 18.8 88.0 18.8 86.35 19.1 Q84.7 19.1 84.3 18.25 L84.25 17.95 84.55 17.9 84.9 17.75" fill="#cccccc" fill-rule="evenodd" stroke="none"/>
      <path d="M82.6 30.45 L82.6 30.25 82.55 30.0 82.55 29.85 82.5 29.75 82.45 29.55 82.4 29.45 82.3 29.25 82.35 29.25 82.1 28.8 82.1 27.2 84.15 26.45 87.35 25.3 87.65 25.25 87.45 25.6 86.85 27.3 86.8 27.6 86.7 28.0 86.7 28.15 86.65 28.2 86.65 28.3 86.5 28.9 86.45 28.9 82.6 30.45" fill="#5b3f2d" fill-rule="evenodd" stroke="none"/>
      <path d="M86.45 28.9 L86.5 28.9 86.5 28.95 86.45 28.9" fill="#9a694b" fill-rule="evenodd" stroke="none"/>
      <path d="M86.1 31.45 L85.2 36.2 84.9 37.9 82.45 37.55 82.45 36.1 82.4 34.1 82.6 33.0 86.1 31.45 M90.35 68.2 L89.4 69.3 Q87.0 72.0 85.15 74.35 83.05 77.15 81.65 79.45 L81.65 79.4 81.55 79.55 81.55 79.6 81.4 79.75 79.4 84.1 79.3 84.3 79.05 85.85 79.05 85.95 79.65 88.5 79.7 88.6 Q78.45 88.1 78.0 88.85 L78.0 87.8 77.95 87.75 78.0 85.15 78.05 84.1 78.15 83.05 78.15 81.9 Q78.1 81.6 78.5 81.3 L78.85 80.9 Q79.15 81.2 79.55 81.2 80.05 81.2 80.1 81.0 L80.2 80.85 80.5 79.25 80.65 79.3 Q81.2 78.8 81.55 77.9 81.8 76.85 82.0 76.4 82.05 76.2 82.6 75.75 L83.2 75.1 83.3 74.75 83.8 74.85 84.3 74.75 84.5 74.15 84.6 74.25 85.55 72.65 86.1 71.0 86.8 70.2 87.3 69.4 87.35 69.1 87.95 69.15 88.55 69.05 88.65 68.95 88.7 68.7 88.75 68.2 88.55 66.2 90.35 68.2 M103.05 84.35 L104.05 84.35 105.8 84.35 105.1 86.35 103.65 91.1 102.5 93.5 101.4 95.85 Q100.85 97.0 98.8 98.65 96.95 100.1 96.95 100.65 L97.05 101.0 Q97.3 101.3 97.75 101.3 98.25 101.3 99.2 100.5 L100.3 99.5 101.35 98.5 102.2 97.35 105.6 92.75 Q106.45 91.6 107.9 88.15 L109.35 84.3 109.9 84.3 111.3 84.2 111.45 84.2 111.5 84.45 111.55 85.1 Q111.55 86.55 110.5 90.05 L109.25 94.45 Q109.0 95.65 107.85 97.3 L106.3 99.0 105.2 99.75 104.45 100.0 Q103.95 100.65 103.95 101.2 L102.6 103.0 Q101.1 104.6 100.35 104.6 L98.35 104.2 96.15 103.45 93.95 103.0 91.45 102.4 89.3 101.65 87.6 100.8 84.45 99.4 83.05 98.75 82.75 98.55 81.85 97.9 81.25 97.35 80.1 96.2 79.5 95.5 78.8 95.05 78.75 96.95 79.0 101.3 78.9 101.2 77.75 100.4 76.25 99.5 76.3 98.85 76.35 97.45 76.7 94.55 76.8 93.95 76.95 93.95 77.9 94.1 78.15 94.15 78.85 94.3 79.3 94.4 79.4 94.45 80.9 95.05 81.75 95.45 85.15 96.7 86.8 97.15 88.65 97.35 Q90.05 97.35 91.25 96.6 L92.25 95.75 92.35 95.55 93.35 94.85 Q95.05 93.45 95.05 92.25 L95.0 91.8 95.05 91.75 95.7 90.35 95.65 90.05 95.6 89.95 94.5 90.25 93.65 90.8 92.75 91.3 91.75 91.9 Q91.25 92.25 90.5 93.25 L89.7 94.6 89.7 94.95 89.4 94.95 87.8 94.7 Q87.85 93.1 88.2 91.85 L88.25 91.6 89.05 90.9 90.4 89.65 Q90.9 89.2 92.4 88.5 L93.1 88.2 93.7 88.0 97.5 87.95 96.8 89.6 96.05 91.7 96.05 92.0 95.95 92.8 95.45 93.95 95.15 95.0 94.35 95.85 93.95 96.4 92.8 97.45 92.5 97.65 93.8 97.6 94.25 97.5 94.7 97.35 98.5 95.35 Q100.4 94.0 101.1 91.3 L102.05 87.3 102.1 86.3 102.2 85.25 Q102.15 84.75 102.75 84.45 L103.05 84.35 M75.55 90.65 L75.6 90.6 75.6 90.55 75.65 90.65 75.55 90.65 M90.75 86.9 L90.45 87.0 90.5 86.85 90.75 86.9 M82.9 94.15 L81.85 93.75 81.95 93.75 82.9 94.15" fill="#b48365" fill-rule="evenodd" stroke="none"/>
    </g>
  </defs>
</svg>
