<?xml version="1.0" encoding="UTF-8" standalone="no"?>
<svg xmlns:ffdec="https://www.free-decompiler.com/flash" xmlns:xlink="http://www.w3.org/1999/xlink" ffdec:objectType="frame" height="243.6px" width="194.4px" xmlns="http://www.w3.org/2000/svg">
  <g transform="matrix(1.0, 0.0, 0.0, 1.0, 4.4, 72.6)">
    <use ffdec:characterId="879" height="117.55" transform="matrix(1.0, 0.0, 0.0, 1.0, 41.1, -13.15)" width="92.8" xlink:href="#shape0"/>
  </g>
  <defs>
    <g id="shape0" transform="matrix(1.0, 0.0, 0.0, 1.0, -41.1, 13.15)">
      <path d="M65.15 6.85 L65.25 6.6 65.85 4.2 65.85 4.1 Q65.9 3.65 66.1 3.5 L66.1 3.35 66.95 0.95 67.85 -1.2 68.4 -2.2 68.4 -2.35 68.5 -2.45 Q69.5 -4.15 71.45 -5.75 L71.7 -5.95 73.8 -8.0 Q75.3 -9.3 76.75 -9.8 78.45 -10.4 80.15 -11.5 82.3 -12.5 87.5 -12.8 L91.0 -13.05 Q93.75 -12.6 96.95 -10.6 L99.35 -9.0 99.35 -8.95 102.6 -6.2 103.3 -5.6 103.7 -5.35 105.15 -3.5 106.5 -1.35 107.75 0.9 108.65 2.85 109.4 3.65 109.9 5.25 110.65 7.2 110.65 7.35 110.95 8.45 110.95 8.65 111.2 9.0 112.75 12.3 114.05 14.8 114.45 15.55 115.25 17.05 115.25 17.25 115.5 17.75 117.3 22.25 117.35 22.35 118.2 24.65 119.15 27.15 121.85 36.1 Q124.15 44.1 124.35 46.35 L124.45 46.45 124.45 46.8 124.25 47.3 124.15 47.35 124.1 47.45 124.25 47.7 Q123.75 47.8 123.35 48.2 L123.35 47.9 122.9 48.1 123.1 48.9 122.9 49.5 Q122.8 50.2 122.0 50.6 L121.85 50.7 121.8 50.8 122.0 50.85 123.6 51.2 125.9 51.8 129.1 53.75 Q129.4 53.85 130.5 54.7 L131.85 55.85 133.65 58.1 133.75 58.0 133.9 58.1 133.9 58.3 133.9 58.45 Q133.9 59.65 127.7 65.6 L124.6 68.1 Q125.75 68.45 126.15 70.55 L126.2 74.4 126.0 77.2 123.85 81.1 122.9 82.6 121.7 84.45 120.4 85.95 Q119.55 86.7 119.55 87.35 L119.15 87.9 118.65 88.2 118.65 88.9 118.55 88.9 118.1 91.4 Q117.5 92.65 116.75 93.2 L115.75 93.5 Q115.5 93.5 115.15 93.2 L114.6 94.0 114.8 94.95 115.2 97.85 115.65 100.45 115.65 100.65 116.05 103.65 115.9 104.25 115.65 104.4 115.3 104.05 114.3 103.5 Q112.95 102.65 112.0 102.25 L110.1 101.6 108.4 101.15 106.85 101.0 106.6 101.25 Q105.35 101.85 103.7 102.05 L103.25 102.05 102.0 102.05 101.3 101.95 100.7 101.85 100.35 101.8 100.3 101.8 99.2 101.6 99.05 101.6 98.6 101.5 94.9 101.15 91.75 101.45 87.85 101.95 86.65 102.4 83.7 103.55 Q80.85 104.5 77.7 104.4 L76.85 104.35 75.25 104.1 71.8 103.15 71.55 103.05 69.15 101.6 66.55 101.7 62.35 101.6 62.15 102.05 Q61.85 102.05 61.75 101.5 L61.35 101.5 60.6 101.45 60.45 101.35 60.4 101.1 60.4 100.8 Q60.4 100.65 60.7 100.65 L61.7 100.6 62.0 98.25 62.35 96.1 62.4 94.85 62.85 93.25 62.7 92.85 61.9 93.25 Q61.75 93.4 61.65 93.35 61.25 93.35 60.8 92.1 L60.2 90.45 59.45 89.05 58.8 87.6 58.45 86.1 58.0 84.7 57.15 83.35 Q56.55 82.5 56.55 82.05 L56.55 81.65 57.3 81.85 57.3 81.65 57.4 81.25 57.15 80.75 56.05 78.95 54.85 77.7 53.2 76.05 Q51.7 73.9 51.25 72.7 51.0 71.85 51.05 69.95 50.9 69.2 51.05 68.65 51.15 68.15 51.4 67.85 L47.6 65.7 45.65 64.0 44.1 62.65 Q43.65 62.05 42.0 60.85 41.2 60.15 41.2 59.55 L41.45 59.75 41.3 58.9 41.1 57.0 Q41.15 54.9 42.15 53.5 42.75 52.65 45.65 49.9 L50.4 46.45 Q54.1 43.95 54.9 44.55 L55.0 44.65 55.0 44.35 55.0 43.95 55.0 42.5 55.4 36.5 55.5 36.0 55.7 34.05 Q56.35 30.0 57.9 25.25 L58.5 23.15 59.25 21.0 59.35 20.65 60.05 18.85 60.2 18.5 Q60.55 17.5 61.0 16.75 L62.15 14.75 63.2 12.4 63.8 11.4 64.25 10.4 64.6 9.45 64.6 9.25 64.75 8.65 64.95 7.85 64.95 7.7 65.15 7.0 65.15 6.85 M105.15 5.1 L106.65 3.85 Q107.3 3.3 107.95 3.15 L107.1 1.7 105.65 -0.85 104.5 -2.95 Q103.55 -4.3 102.6 -4.95 L101.4 -5.95 100.5 -6.7 99.45 -7.7 98.15 -8.5 Q97.55 -8.7 96.95 -9.45 L95.85 -10.3 Q93.2 -11.6 92.6 -11.7 L89.65 -11.85 82.75 -11.25 80.15 -10.45 78.55 -9.8 77.1 -8.95 Q76.85 -8.7 75.55 -8.0 L74.35 -7.15 73.25 -6.05 71.9 -4.95 Q69.75 -3.2 68.65 -0.5 L67.7 1.85 66.85 3.65 66.95 3.65 67.55 4.1 68.9 4.7 69.95 5.1 70.1 5.2 71.55 5.65 71.9 5.65 74.45 6.2 75.25 6.35 75.3 6.35 75.3 5.1 Q75.4 3.25 75.75 1.7 76.05 0.1 76.85 -1.7 L77.2 -2.55 77.95 -3.4 Q78.05 -3.4 78.15 -3.5 78.3 -4.25 80.75 -4.85 L86.65 -5.7 90.3 -5.8 Q92.75 -5.75 94.2 -5.0 L96.0 -4.6 96.45 -4.25 97.45 -3.3 Q98.35 -2.05 99.2 1.65 99.95 4.9 100.0 6.85 L100.15 6.85 100.3 6.85 102.85 6.2 103.75 5.8 105.0 5.2 105.15 5.1 M81.2 -3.8 L81.1 -3.8 81.0 -3.75 80.45 -3.55 80.35 -3.5 80.95 -3.0 82.4 -1.35 83.55 0.2 84.1 0.7 85.2 1.9 85.7 3.0 85.7 3.1 Q86.4 3.8 88.2 3.85 89.5 3.95 90.15 3.15 L90.25 3.0 91.3 1.35 92.75 -1.1 93.25 -2.35 Q93.55 -3.15 94.0 -3.65 L94.35 -4.0 94.25 -4.0 93.25 -4.3 92.6 -4.45 91.45 -4.6 91.0 -4.6 90.3 -4.65 89.85 -4.65 89.35 -4.65 85.1 -4.6 83.4 -4.35 83.35 -4.35 82.4 -4.15 81.95 -4.0 81.6 -3.95 81.3 -3.9 81.2 -3.8 M78.9 0.9 L78.9 0.85 Q79.0 -0.55 80.0 -2.05 L80.15 -2.3 79.4 -2.8 Q77.85 -2.8 76.85 1.2 L76.6 2.3 Q76.3 3.8 76.15 5.25 L76.3 6.05 77.0 8.55 Q77.0 9.15 78.2 10.15 L80.1 11.8 81.75 13.0 81.9 13.05 82.05 13.2 Q82.8 13.75 83.2 14.25 L83.35 14.35 83.35 14.45 83.4 14.5 83.5 14.65 83.5 14.75 83.75 15.3 83.85 15.45 84.25 16.55 84.35 17.25 84.25 17.85 84.25 18.35 85.8 18.1 Q85.65 17.85 85.65 17.05 L85.65 16.85 85.65 15.2 85.6 14.65 85.6 14.6 85.35 13.6 85.3 13.6 84.8 13.5 84.8 13.4 84.8 13.3 84.35 12.9 84.15 12.7 83.9 12.5 82.55 11.4 81.7 10.45 Q81.2 9.65 80.75 9.4 78.85 8.05 78.45 7.1 78.15 6.4 78.2 5.05 L78.2 4.9 78.3 3.1 Q78.45 2.05 78.9 0.9 M84.6 3.35 L84.65 3.25 84.6 3.15 84.45 2.65 84.35 2.55 84.0 2.15 84.0 2.05 83.85 2.0 83.85 1.9 83.2 1.3 82.7 0.7 82.1 0.05 81.4 -1.0 80.85 -1.7 80.6 -1.2 80.15 -0.1 79.55 1.65 79.3 2.95 79.2 3.65 79.15 4.6 79.05 5.1 Q79.05 6.15 79.8 7.1 L81.75 9.0 82.7 9.95 82.7 10.0 82.75 10.0 83.05 10.35 83.35 10.5 83.35 10.6 83.55 10.85 83.85 10.95 84.65 11.8 84.65 11.85 84.95 12.15 85.1 12.35 85.15 12.35 85.1 12.3 85.15 10.9 85.15 8.65 84.95 7.2 84.85 6.6 84.8 6.35 84.8 6.2 84.6 3.5 84.6 3.35 M98.15 1.55 L97.3 -0.75 Q96.55 -3.05 96.2 -3.4 L96.0 -3.4 95.95 -3.4 95.15 -3.2 95.1 -3.2 95.2 -3.0 95.2 -2.95 95.3 -2.95 96.0 -1.6 96.45 -0.5 96.9 0.7 96.95 0.7 97.6 3.15 97.75 5.4 97.75 5.8 97.55 7.85 Q97.3 8.7 96.65 9.4 L94.85 11.05 94.2 11.55 92.8 12.7 92.2 13.3 92.05 13.35 92.05 13.4 91.6 13.75 91.5 14.25 91.45 16.45 91.35 17.15 90.95 18.2 91.15 18.2 92.45 18.35 92.55 18.45 93.25 18.35 93.4 18.35 93.4 17.05 93.4 16.4 93.55 15.4 Q93.7 14.6 94.0 14.15 L94.4 13.75 95.45 12.8 95.7 12.5 96.6 11.8 Q98.5 10.35 98.85 9.45 L99.05 7.25 98.9 5.1 98.35 1.9 98.15 1.55 M96.8 5.25 L96.75 3.75 Q96.55 1.9 95.6 0.05 L94.65 -1.75 94.25 -2.45 94.0 -1.4 92.6 0.85 92.05 1.85 92.1 2.0 92.1 2.55 92.1 3.0 92.05 4.0 92.05 8.55 92.05 8.95 91.95 9.6 91.95 9.75 91.85 11.85 91.65 12.55 92.9 11.45 94.25 10.25 95.3 9.45 Q96.3 8.65 96.65 7.35 L96.8 5.3 96.8 5.25 M122.75 47.0 L123.35 46.6 123.1 44.9 Q122.35 40.95 121.35 37.9 L121.1 37.25 120.9 37.4 119.9 38.05 119.85 38.15 120.4 38.75 120.95 40.15 121.45 41.5 121.7 42.9 122.35 45.5 122.75 47.1 122.75 47.0 M121.55 46.85 L120.9 43.7 120.1 41.05 119.5 39.05 118.65 39.6 117.85 40.3 118.2 40.95 Q119.05 42.6 119.3 45.15 L119.9 48.4 120.35 50.4 120.75 50.05 121.65 49.7 Q122.15 49.5 122.15 49.15 L121.95 48.65 121.7 48.2 121.85 47.9 121.55 46.85 M109.0 9.4 Q109.6 8.95 110.2 8.95 L110.2 8.9 109.2 6.2 108.55 4.0 107.45 4.9 105.7 5.8 105.35 6.05 Q102.75 7.45 101.15 7.65 L100.45 7.7 99.95 7.65 99.7 9.6 99.0 10.9 98.85 11.05 98.25 11.7 98.1 11.8 97.8 11.95 94.85 14.35 Q94.4 14.95 94.35 16.45 L94.35 16.75 94.25 16.9 94.15 17.35 94.25 17.6 94.25 18.3 94.35 18.3 94.65 18.35 95.0 17.75 95.3 17.4 Q95.3 16.65 96.0 15.95 96.8 15.2 97.9 15.05 L98.0 15.05 98.75 14.95 98.85 14.95 101.4 14.6 102.75 14.3 103.4 14.0 104.3 13.5 105.7 12.3 107.15 11.1 107.3 10.95 108.9 9.5 109.0 9.4 M111.5 22.7 Q111.55 22.6 111.65 22.6 L111.9 21.95 111.9 21.25 112.5 20.65 113.25 20.3 114.6 18.85 114.9 18.7 114.8 18.55 112.3 13.75 110.45 9.8 108.9 11.2 108.8 12.4 108.6 14.85 108.4 15.6 107.95 17.85 107.65 19.0 107.45 20.4 107.1 21.6 Q106.5 22.8 105.7 22.7 L105.35 22.7 105.15 22.6 105.15 23.05 105.25 23.55 105.25 23.8 105.35 24.15 105.55 26.45 105.65 26.45 Q106.35 26.4 107.0 25.95 L107.6 25.35 Q107.8 24.95 108.3 24.95 110.0 24.65 110.55 23.9 L110.65 23.9 110.65 23.8 111.5 22.7 M104.3 20.5 L104.85 20.4 Q105.2 20.4 105.35 21.0 L105.4 21.6 105.35 21.7 105.55 21.7 Q106.15 21.75 106.7 19.15 L107.6 15.05 107.95 11.9 104.85 14.25 Q103.45 15.2 101.4 15.55 L98.55 15.9 Q97.1 16.25 96.55 17.0 L96.1 17.55 96.15 17.75 96.0 18.2 95.65 18.8 Q95.15 19.35 94.55 19.3 L94.15 19.3 94.05 19.55 94.0 19.55 93.65 19.55 92.75 19.3 92.6 19.15 92.1 19.45 88.6 19.05 84.35 19.3 83.65 19.55 83.55 19.55 83.4 19.55 83.0 19.55 82.9 19.45 Q82.1 19.35 81.55 18.2 L81.3 17.85 80.85 16.65 80.85 16.45 80.15 15.9 Q79.3 15.45 77.6 15.4 L74.7 15.1 71.05 13.95 70.95 14.6 Q70.9 15.75 71.45 17.5 72.0 19.15 72.7 20.25 L73.35 20.25 73.35 20.1 73.5 20.1 73.7 19.55 74.2 19.45 74.45 19.55 75.45 20.3 76.5 21.0 77.0 21.15 77.1 21.1 77.25 20.9 77.5 20.5 77.55 20.4 Q77.75 19.55 78.5 19.55 78.85 19.55 79.55 20.3 L80.75 21.4 81.0 20.9 Q81.3 20.45 81.95 20.45 82.3 20.45 83.0 21.15 L83.35 21.45 83.5 21.6 84.1 21.85 84.6 21.6 84.95 21.35 Q85.35 20.65 85.9 20.75 86.4 20.75 86.6 21.25 L87.25 21.75 87.35 21.75 Q88.1 21.85 88.4 21.35 88.7 20.8 89.05 20.8 89.5 20.8 89.7 21.45 L89.8 21.55 89.9 21.7 89.9 21.9 90.25 22.2 91.25 21.95 91.65 21.45 Q92.3 20.8 92.75 20.8 93.3 20.8 93.5 21.35 93.7 21.85 94.05 21.85 L94.85 21.15 Q95.45 20.5 95.8 20.5 L96.55 21.25 96.95 21.9 97.9 21.35 Q98.25 20.8 99.0 20.8 99.6 20.8 99.7 21.35 L100.0 21.7 Q101.05 21.75 101.3 21.15 101.5 20.6 102.1 20.6 102.6 20.65 102.85 21.4 102.85 21.9 103.25 21.95 L103.55 21.95 103.6 21.85 103.8 21.1 104.3 20.5 M114.6 20.4 L113.8 21.0 115.25 24.3 116.75 28.6 117.3 28.15 118.15 27.25 116.65 23.5 115.25 19.8 114.6 20.4 M112.45 23.3 L112.5 23.3 112.75 24.4 113.0 25.7 113.35 26.9 113.95 29.0 114.45 31.15 116.25 29.2 Q115.55 29.2 115.3 28.05 L114.55 25.1 113.75 23.05 113.1 21.55 Q112.8 21.85 112.8 22.45 L112.45 23.3 M91.1 3.8 L91.15 3.35 90.6 4.3 Q90.0 4.9 88.2 4.9 86.55 4.8 85.6 4.3 L85.6 4.6 85.7 5.8 88.55 5.75 91.1 5.8 91.1 3.8 M85.95 8.05 L85.95 8.45 86.05 9.05 91.1 9.25 91.1 9.05 91.1 8.8 91.1 8.35 91.1 6.7 85.8 6.75 85.95 8.05 M86.15 11.8 L86.15 12.35 86.15 12.4 86.25 12.85 86.3 13.0 87.75 13.0 89.5 13.0 90.25 13.0 90.35 13.0 90.8 13.0 90.85 12.9 90.85 12.85 90.95 12.05 90.95 11.95 91.0 10.9 91.1 10.1 88.6 10.0 86.05 9.9 86.15 11.8 M90.4 15.45 L90.65 14.45 90.75 13.85 89.15 13.95 86.9 13.95 86.55 13.95 86.6 14.3 86.65 15.3 86.6 16.05 90.4 16.15 90.4 15.45 M86.4 18.1 L88.6 18.1 90.25 18.1 90.3 17.05 88.4 17.0 87.1 16.9 86.6 16.9 86.6 17.35 86.4 18.1 M77.55 14.45 L78.05 14.5 Q80.1 14.75 81.0 15.4 L81.3 15.6 81.9 16.05 82.1 17.15 82.2 17.55 82.3 17.65 82.3 17.75 82.65 18.2 Q82.8 18.35 83.2 18.5 L83.35 17.85 Q83.5 15.95 82.1 14.65 L78.3 11.55 76.7 9.9 76.6 9.9 Q75.95 8.95 75.8 8.3 L75.55 7.35 75.4 7.35 74.45 7.2 72.65 6.75 69.6 6.0 69.5 6.0 68.05 5.4 67.95 5.3 Q67.65 5.1 67.35 5.05 L66.7 4.6 66.05 7.7 65.3 9.65 65.25 9.65 65.25 9.75 65.3 9.75 66.0 10.35 66.2 10.5 66.4 10.7 67.45 11.4 68.15 11.9 69.3 12.35 Q70.9 12.85 72.0 13.35 L74.6 14.1 74.8 14.15 75.4 14.3 77.55 14.45 M83.05 23.2 Q82.7 22.7 81.95 22.6 L81.3 22.7 80.1 22.6 80.65 22.85 78.35 22.6 77.95 22.85 78.45 23.5 79.05 24.3 79.4 24.75 Q80.6 25.6 82.05 25.7 83.9 25.75 84.85 25.15 L85.0 25.1 85.55 24.6 85.7 24.4 Q85.2 24.05 83.7 23.4 L83.05 23.2 M97.1 22.85 L96.55 22.85 95.85 23.05 Q92.55 23.5 92.3 24.3 L93.25 24.8 93.55 24.95 Q95.3 25.75 96.1 25.8 L97.45 25.75 99.0 24.5 99.7 23.35 100.15 22.9 97.1 22.85 M101.25 33.85 Q101.05 33.05 101.15 31.95 L101.25 31.65 Q101.3 31.0 101.65 30.45 L100.9 30.2 100.3 29.95 97.1 30.2 94.2 30.55 Q93.65 30.55 93.65 30.3 L93.65 29.95 93.25 30.2 92.9 30.45 92.4 30.3 91.65 30.0 Q90.95 29.8 90.75 29.3 L90.5 29.8 89.85 30.2 89.5 30.05 89.3 29.95 88.85 30.05 88.45 30.2 88.05 29.85 87.9 29.45 87.7 29.7 87.15 30.0 86.4 29.5 85.9 29.0 Q85.35 29.0 84.65 29.65 L83.9 30.4 80.95 29.3 80.75 29.5 80.3 29.8 79.95 29.65 79.55 29.45 79.3 29.55 78.9 29.7 78.65 29.65 76.15 29.5 74.6 28.95 74.4 28.9 74.6 29.0 75.6 29.65 Q76.85 30.55 76.9 31.95 L76.9 32.1 76.9 32.25 76.85 32.9 76.3 35.0 76.5 35.15 77.95 37.4 78.7 38.15 79.4 38.85 79.55 38.9 79.65 39.05 81.25 40.35 81.8 40.7 83.35 41.65 83.85 42.1 84.95 42.75 85.7 43.25 86.6 43.6 86.65 43.6 86.8 43.7 87.1 43.85 87.15 43.9 87.35 43.9 87.4 43.95 88.45 44.55 88.8 44.8 88.95 44.8 89.3 44.8 89.65 44.45 90.3 44.3 92.8 43.4 92.8 43.35 94.2 42.6 94.5 42.4 95.5 41.8 95.8 41.55 96.2 41.2 96.55 41.05 96.95 40.7 97.1 40.65 97.6 40.3 98.05 39.95 98.25 39.75 98.55 39.5 99.35 38.65 99.35 38.55 99.95 38.05 100.15 37.6 100.8 36.25 Q101.15 35.85 101.4 35.75 L101.75 35.5 101.25 33.85 M82.45 42.3 L80.85 41.15 78.35 39.05 78.2 40.3 77.55 42.1 77.2 42.85 76.7 43.45 76.3 43.75 76.6 44.2 76.7 44.2 76.9 44.55 77.05 44.9 77.2 45.3 77.55 45.85 77.95 46.25 78.55 46.8 78.65 46.85 78.8 46.95 81.6 48.4 85.0 49.15 88.4 49.55 91.5 49.35 93.05 48.95 93.85 48.75 98.25 47.1 99.0 46.75 99.05 46.75 99.7 46.35 Q99.8 46.25 99.95 46.25 L101.0 45.4 101.6 44.35 101.65 44.3 Q101.25 43.85 100.65 43.35 L100.15 42.6 99.85 41.8 99.35 40.15 98.7 40.7 96.6 42.3 96.2 42.6 95.65 42.95 Q91.85 45.3 90.0 45.5 L89.35 45.7 88.55 45.55 88.45 45.5 Q87.5 45.4 84.85 43.85 L82.45 42.3 M101.4 38.75 L100.9 38.7 100.5 38.55 100.5 38.65 100.3 39.2 100.45 39.95 100.45 40.1 Q101.05 42.45 101.5 42.95 L101.5 43.0 101.6 43.0 101.75 43.1 101.85 43.25 102.0 43.35 102.15 43.35 102.3 43.4 102.35 43.4 102.75 43.55 103.1 43.6 103.3 43.6 103.95 43.6 104.15 43.6 105.05 43.6 105.2 43.6 105.65 43.55 106.15 43.45 106.2 43.4 106.35 43.4 Q108.1 42.9 109.2 41.4 L109.9 40.1 109.7 40.1 108.55 39.85 108.1 39.75 105.4 39.4 105.35 39.4 105.2 39.35 103.9 39.2 103.2 39.1 101.4 38.75 M100.9 46.8 L98.6 47.95 Q97.3 48.65 95.15 49.35 L93.3 50.0 88.4 50.5 84.5 50.2 80.85 48.95 79.4 48.4 78.2 47.7 80.15 51.7 82.4 55.7 84.15 57.85 85.15 59.25 Q86.05 58.35 86.8 58.1 L89.45 57.95 91.1 59.05 93.65 56.55 Q96.8 53.65 98.05 51.7 L99.45 49.7 100.55 47.7 100.9 46.8 M114.9 41.4 L116.0 40.85 116.95 40.15 117.0 39.75 117.2 39.25 Q117.5 38.9 118.3 38.55 L118.95 37.75 Q119.25 37.25 119.9 36.95 L120.85 36.15 120.0 33.05 118.55 28.25 117.0 30.05 115.25 31.95 Q114.8 32.0 114.45 32.55 L114.25 32.85 113.95 33.45 113.95 33.55 113.45 33.8 112.5 34.35 111.35 35.6 Q110.45 36.3 109.35 36.25 L108.55 36.25 107.15 37.2 107.15 38.05 107.15 38.55 110.2 39.0 110.55 39.05 110.8 39.1 110.95 39.1 110.85 39.4 110.95 39.6 110.95 39.75 Q110.85 40.95 109.6 42.45 108.4 43.85 106.65 44.35 L106.65 44.85 106.65 45.7 106.6 46.5 107.2 46.35 108.4 46.15 109.5 45.7 Q109.75 45.15 110.25 44.85 L111.35 44.35 112.3 43.7 Q112.4 43.35 113.5 42.9 L114.7 42.25 Q114.45 41.55 114.8 41.4 L114.9 41.4 M111.9 25.35 L111.65 24.05 111.15 24.75 110.65 25.25 110.7 26.2 110.95 27.4 111.2 28.7 112.0 33.45 112.75 32.95 113.35 32.55 113.25 32.45 113.35 32.4 113.5 31.95 113.35 31.5 113.35 31.3 113.25 30.95 113.1 30.45 112.6 27.75 111.9 25.35 M109.85 25.5 L109.2 25.7 Q108.75 25.75 107.95 26.4 L108.1 27.25 108.25 28.5 108.55 29.1 108.75 29.7 108.65 30.0 Q109.75 31.3 109.7 33.55 109.7 34.5 109.1 35.45 L110.65 34.8 111.3 34.2 111.35 34.2 Q110.85 34.0 110.7 32.6 L110.45 30.15 110.0 28.05 109.75 26.05 109.85 25.5 M107.45 29.0 L107.3 28.5 107.2 26.95 Q106.5 27.4 105.75 27.4 L105.7 27.4 105.75 28.4 105.75 28.6 107.45 29.0 M107.95 30.75 L107.65 30.4 Q106.85 29.7 105.25 29.8 103.8 29.8 103.1 30.4 L103.05 30.45 102.85 30.45 102.1 31.4 102.0 32.0 102.0 32.85 102.15 34.0 102.3 34.35 Q102.85 36.45 104.85 36.5 L105.5 36.5 Q107.15 36.45 108.1 35.3 108.75 34.5 108.8 33.55 L108.4 31.8 107.95 30.75 M106.2 38.4 L106.3 37.45 104.85 37.55 104.75 37.55 104.7 38.15 104.9 38.25 106.2 38.4 M103.8 38.05 L103.9 37.4 Q102.85 37.1 102.3 36.45 L101.05 37.75 103.8 38.15 103.8 38.05 M106.35 58.45 L105.95 58.1 Q105.75 58.0 105.85 55.4 L105.75 52.3 105.75 48.4 105.7 45.8 105.75 44.45 105.15 44.65 105.15 44.8 104.3 46.85 104.25 47.1 103.75 48.25 103.2 49.5 101.85 51.65 100.55 53.6 100.2 54.05 98.55 56.2 96.65 58.6 94.25 60.9 92.95 62.05 93.3 62.85 94.25 65.1 94.5 66.2 Q94.85 65.9 95.95 65.7 L98.85 64.7 100.2 63.75 100.5 63.6 101.65 62.8 101.8 62.65 101.85 62.55 102.0 62.5 103.55 61.35 104.85 60.15 106.35 58.55 106.45 58.45 106.35 58.45 M99.2 53.75 L99.45 53.25 101.05 50.95 102.45 48.6 103.05 47.35 103.4 46.25 103.75 44.9 103.95 44.65 102.75 44.65 102.35 45.4 101.95 46.65 101.15 48.65 98.6 52.5 97.15 54.25 94.75 56.8 91.65 59.65 91.95 60.15 92.25 61.25 92.55 61.0 94.0 59.9 96.1 57.8 99.2 53.75 M110.65 45.9 L110.65 46.5 110.55 47.1 Q110.45 48.75 110.65 51.95 L110.85 56.2 111.5 56.35 Q112.6 56.65 113.25 55.65 L113.5 55.2 113.35 54.35 113.35 52.75 113.25 51.35 113.0 49.9 112.85 48.45 112.8 46.85 112.45 45.15 111.05 45.7 110.65 45.9 M106.7 48.45 L106.8 50.35 106.7 57.5 108.1 57.65 Q110.0 57.8 110.1 57.3 L110.1 57.15 Q109.7 56.75 109.6 55.2 L109.6 52.05 109.6 46.95 109.6 46.65 109.0 46.95 106.7 47.45 106.65 47.45 106.7 48.45 M116.6 41.65 Q115.85 41.95 115.7 42.15 L115.75 42.75 115.75 43.55 116.05 45.3 116.5 47.0 117.0 50.7 117.35 52.8 118.3 52.65 119.1 52.5 119.9 51.35 Q119.3 51.2 118.9 49.15 118.55 47.9 118.45 46.1 L117.85 43.0 117.5 41.15 116.6 41.65 M113.8 48.55 L114.2 51.3 114.4 54.35 114.4 54.75 114.55 54.85 Q115.4 55.05 115.9 54.6 L116.35 54.25 116.65 53.9 116.2 51.95 115.75 48.55 115.05 45.35 Q114.8 44.45 114.9 43.25 L113.95 43.7 113.35 44.05 113.45 45.55 113.8 48.55 M120.75 51.7 L120.4 52.45 119.85 53.25 118.65 53.65 118.4 53.75 117.95 55.2 117.15 56.85 116.15 58.35 115.15 60.05 113.45 62.35 113.35 62.5 113.45 62.5 114.45 62.15 115.4 61.6 116.25 61.5 Q116.65 61.5 119.65 60.15 122.8 58.7 124.0 57.85 125.6 56.8 126.85 55.45 L127.95 54.2 Q125.55 52.75 122.65 52.05 L120.9 51.7 120.85 51.65 120.75 51.7 M112.45 62.05 L114.8 58.95 115.85 57.35 116.7 55.7 116.85 54.95 116.2 55.65 115.15 56.0 Q114.4 56.05 113.9 56.55 L113.45 56.9 Q113.0 57.15 112.75 57.3 L111.8 57.3 110.95 57.45 110.8 57.8 110.45 58.35 108.1 58.7 107.45 58.6 107.45 58.7 106.7 59.75 106.65 59.8 107.65 60.55 109.1 61.85 109.85 62.35 110.0 62.35 110.05 62.3 110.45 62.2 Q111.05 62.05 111.9 62.65 L112.4 62.2 112.5 62.15 112.5 62.05 112.45 62.05 M114.25 67.05 L113.1 65.75 111.15 63.5 108.4 63.9 Q107.75 64.15 107.3 64.6 L106.0 64.95 Q105.25 64.85 104.7 65.35 L103.6 66.4 102.45 67.75 101.25 70.25 Q100.35 72.2 100.3 72.8 L100.9 75.45 101.5 77.35 Q101.95 77.35 102.3 77.65 L102.85 77.9 104.65 78.85 106.7 80.3 107.45 81.1 107.95 82.0 Q108.75 83.1 108.75 83.55 L108.75 83.7 109.5 83.65 112.25 83.2 112.95 82.4 115.9 79.6 117.65 76.6 118.55 74.95 118.75 73.8 118.55 72.1 118.55 71.85 118.45 71.6 118.3 71.25 117.95 70.65 117.85 70.65 117.2 69.75 117.1 69.7 116.75 69.45 116.15 68.85 116.0 68.75 115.85 68.6 115.85 68.65 114.3 67.05 114.25 67.05 M100.15 70.15 L100.45 69.55 101.75 66.9 Q103.4 64.85 104.2 64.25 104.5 64.0 105.7 63.75 L106.5 63.5 105.7 62.8 104.65 61.7 102.45 63.5 99.8 65.4 98.7 65.95 97.9 66.4 97.8 66.4 97.65 66.4 97.15 66.65 97.1 66.65 96.55 66.8 96.35 66.85 96.3 66.85 96.15 66.85 95.8 66.85 95.65 66.9 95.3 66.9 94.55 66.85 94.55 68.35 94.55 68.6 94.4 70.75 93.75 72.95 93.65 73.15 93.65 73.2 93.55 73.2 92.9 74.3 93.05 74.25 93.7 74.05 94.0 74.0 94.15 74.0 94.25 74.0 94.35 74.0 95.35 73.7 95.6 73.65 95.85 73.55 95.95 73.55 96.2 73.45 99.35 72.2 99.85 70.8 100.15 70.15 M112.85 63.3 L112.8 63.4 112.75 63.5 113.9 64.95 Q114.4 66.1 116.75 67.95 118.4 69.2 119.05 70.25 L120.0 69.75 123.0 68.0 124.95 66.4 127.0 64.75 130.65 61.35 131.85 59.45 132.65 58.6 131.85 57.8 131.1 56.65 129.8 55.4 128.95 54.85 126.7 57.1 Q125.2 58.45 123.15 59.65 121.65 60.7 118.3 62.15 114.7 63.6 113.5 63.6 L112.95 63.45 112.95 63.4 112.85 63.3 M119.85 73.7 Q119.75 75.25 118.95 76.95 118.15 78.65 116.75 80.2 L115.3 81.65 114.55 82.35 115.65 83.3 117.2 85.15 Q118.1 86.0 118.45 86.9 L119.1 85.95 120.55 84.2 122.8 80.95 124.55 77.65 125.05 75.95 125.1 74.4 125.05 71.35 Q125.05 70.65 124.45 69.6 L123.95 68.5 123.3 69.0 Q120.55 71.15 119.55 71.2 119.85 72.0 119.85 73.7 M83.6 61.0 L83.65 60.95 83.65 60.9 84.45 60.0 83.35 58.6 81.7 56.3 80.6 54.7 80.35 54.45 80.1 53.75 80.0 53.65 79.4 52.5 77.7 48.65 76.85 46.95 76.15 45.5 75.75 44.8 75.55 44.45 75.4 44.65 74.95 44.65 75.25 44.9 75.55 46.15 76.05 47.25 76.5 48.3 78.2 52.65 79.0 54.25 79.0 54.35 79.15 54.7 79.75 55.7 79.9 56.05 80.15 56.75 80.45 57.25 81.9 59.4 82.9 60.4 83.5 61.05 83.55 61.05 83.6 61.0 M79.0 65.1 L79.9 65.45 81.1 66.1 81.55 64.45 Q82.2 62.35 83.0 61.8 82.4 61.5 81.3 60.05 L79.55 57.65 79.0 56.5 78.8 56.2 77.6 53.75 77.5 53.4 77.2 52.8 75.75 49.15 75.75 49.05 74.35 45.65 74.3 45.35 74.2 45.3 74.15 48.2 74.2 48.3 74.2 49.75 74.35 51.95 74.5 54.2 74.8 56.4 75.05 58.55 74.1 59.4 72.4 59.8 72.65 60.15 74.95 62.35 76.15 63.5 77.05 64.25 77.35 64.4 77.55 64.5 79.0 65.1 M86.05 59.65 L84.85 60.9 84.35 61.7 Q84.25 62.95 84.45 63.6 L85.0 64.6 85.6 65.2 Q89.7 65.35 90.95 64.15 91.35 63.65 91.35 62.55 91.45 61.5 91.15 60.85 L89.9 59.45 89.35 59.05 Q88.1 58.2 86.15 59.65 L86.05 59.65 M88.95 60.05 Q89.35 60.15 89.65 60.35 90.4 60.85 90.4 61.7 L90.05 63.4 Q89.45 64.45 87.5 64.4 85.15 64.4 85.2 62.7 85.2 61.5 86.05 60.7 L86.6 60.35 Q87.15 60.0 87.9 59.9 L88.8 60.0 88.95 60.05 M89.35 62.55 L89.45 61.8 Q89.5 61.25 88.95 61.05 88.4 60.85 87.75 61.05 L87.15 61.2 Q86.05 61.7 86.05 62.95 L86.55 63.15 87.5 63.45 Q88.85 63.45 89.3 62.7 L89.35 62.55 M88.55 66.2 L87.0 66.2 85.3 66.1 85.2 66.55 84.85 67.65 84.65 69.45 Q84.65 70.65 85.1 72.0 85.8 74.0 87.4 74.0 89.45 74.05 90.25 71.4 L90.5 70.3 90.6 69.55 90.6 68.65 90.5 67.5 90.4 67.05 90.05 66.05 90.0 65.9 89.85 65.9 88.55 66.2 M91.75 64.75 L91.65 64.9 90.95 65.45 91.35 66.85 91.5 68.65 Q91.45 70.9 91.0 72.2 90.0 75.1 87.35 75.0 85.9 74.95 85.2 74.25 L84.15 72.2 Q83.7 71.35 83.75 69.55 L83.85 67.4 84.35 65.35 84.2 65.1 83.85 64.5 83.55 63.9 83.4 62.95 82.75 63.8 82.4 64.75 82.3 65.6 Q81.75 67.0 81.7 69.2 81.55 71.05 82.65 73.0 84.2 76.2 87.75 76.25 91.25 76.4 92.75 72.7 L92.95 72.2 93.65 69.45 93.65 68.95 93.7 68.35 93.55 67.0 Q93.5 65.75 93.25 65.4 L92.45 63.6 92.3 63.25 92.25 63.3 92.2 63.5 92.2 63.95 91.75 64.75 M81.0 67.0 L81.0 66.9 80.85 66.9 80.75 66.9 79.3 66.55 77.6 65.6 77.55 65.6 74.3 63.0 72.75 61.5 71.55 60.25 71.45 60.15 71.25 59.8 71.1 59.65 71.1 59.6 71.05 59.6 70.95 59.45 70.8 59.25 70.6 59.25 70.35 59.25 68.9 58.7 68.8 58.7 68.2 58.55 67.5 57.8 67.5 57.75 67.1 57.25 66.6 57.3 65.9 57.35 Q64.4 57.3 63.95 56.55 L63.85 56.0 63.65 55.55 Q61.4 55.55 61.05 54.9 60.9 54.75 60.9 54.4 L60.8 53.9 60.3 53.9 60.25 53.85 60.3 53.95 62.15 57.95 Q62.65 59.2 64.05 61.05 L64.65 61.8 65.4 62.7 65.4 62.8 Q67.05 61.95 68.05 61.8 L69.1 61.8 69.8 62.15 69.85 62.15 70.95 62.55 71.05 62.65 71.2 62.7 72.85 63.9 74.65 64.95 Q76.05 65.7 76.5 66.2 L76.9 66.85 78.35 69.2 Q78.8 70.3 78.8 71.6 L78.8 72.0 78.8 72.2 78.65 73.05 78.7 72.8 78.8 72.85 79.05 72.95 80.75 73.45 80.85 73.45 80.85 73.55 81.25 73.55 81.4 73.65 81.45 73.65 81.7 73.7 81.75 73.7 81.7 73.55 81.6 73.55 81.2 72.25 Q80.65 70.8 80.75 69.2 L80.75 69.1 81.0 67.0 M99.05 73.35 L97.6 73.95 97.15 74.05 92.4 75.45 91.85 75.45 89.8 76.9 89.65 76.95 89.65 77.15 89.35 77.8 89.35 77.9 89.3 78.0 89.2 78.15 Q88.85 78.95 88.8 79.45 L88.7 79.8 88.7 79.95 88.85 81.4 88.85 81.55 88.95 82.15 88.95 82.4 88.95 83.1 88.95 84.2 88.95 84.3 88.95 84.55 90.8 84.55 91.35 84.45 92.55 84.3 92.9 84.35 93.3 84.0 94.0 83.1 94.75 82.15 95.7 81.4 96.15 81.1 97.05 80.4 98.55 79.1 100.0 77.8 Q100.15 77.65 100.2 77.65 L100.45 77.5 Q100.05 76.85 99.8 75.35 L99.7 75.25 99.7 75.0 99.45 73.65 99.45 73.35 99.45 73.2 99.35 73.2 99.05 73.35 M101.0 78.35 L98.75 80.2 96.15 82.5 95.35 83.2 94.65 84.05 93.9 84.9 89.5 88.65 86.8 91.3 87.75 91.95 87.9 92.1 88.1 92.3 88.85 92.85 89.7 93.4 91.35 94.3 91.75 94.55 93.2 96.0 93.7 96.6 94.25 97.45 94.35 97.55 95.35 99.0 95.85 98.25 Q96.1 97.9 96.6 97.85 L98.35 95.35 101.85 90.7 Q103.45 88.2 105.35 86.4 L106.1 85.6 106.2 85.45 107.6 83.8 107.65 83.7 107.0 82.85 106.7 82.35 105.85 80.95 105.7 80.8 105.7 80.75 104.5 79.8 104.4 79.75 104.3 79.65 104.25 79.65 103.55 79.25 102.85 78.95 102.75 78.85 101.15 78.35 101.05 78.35 101.0 78.35 M85.3 84.35 L85.3 84.45 85.35 84.55 87.6 84.55 87.6 84.0 87.6 81.65 87.6 81.45 87.6 81.4 87.35 79.8 Q87.15 78.6 86.4 77.7 L85.8 77.05 Q83.7 76.45 82.45 74.9 80.6 74.75 78.5 74.0 L78.3 74.75 78.2 74.95 78.65 75.5 78.9 76.25 79.0 76.55 79.3 77.15 82.2 80.4 84.6 83.45 85.3 84.35 M86.05 90.35 L87.5 88.9 86.45 87.7 86.15 87.2 86.05 87.2 Q85.6 87.2 84.85 86.0 L84.0 84.35 83.05 82.9 81.8 81.55 79.15 78.75 Q77.95 77.5 77.6 76.6 L76.6 76.9 76.5 76.95 75.25 77.4 73.25 78.2 71.75 79.0 71.45 79.15 71.05 79.5 70.25 80.2 70.2 80.2 69.3 81.1 69.15 81.15 69.0 81.3 68.4 82.35 68.2 82.75 69.75 84.55 70.95 86.35 72.35 87.9 75.25 91.9 Q77.2 94.55 77.2 94.95 L77.2 95.05 Q77.55 95.35 77.75 96.15 78.15 97.4 78.5 97.45 L79.95 97.45 80.3 97.4 80.35 97.4 81.3 95.8 81.45 95.65 81.55 95.5 82.1 95.0 82.3 94.95 82.3 94.85 82.4 94.7 82.45 94.55 82.8 94.2 83.15 93.85 83.35 93.55 84.95 91.7 85.1 91.45 85.15 91.4 85.15 91.3 85.2 91.3 85.95 90.5 86.05 90.35 M87.0 86.55 L87.0 86.6 Q87.05 86.9 87.35 86.9 L88.25 88.35 88.95 87.7 91.35 85.5 89.15 85.6 88.2 85.45 87.75 85.5 86.05 85.4 86.4 86.1 87.0 86.55 M80.15 103.05 L82.4 102.4 86.55 101.3 87.7 100.75 90.85 100.5 94.5 99.9 93.3 98.45 91.45 95.8 90.75 95.15 90.0 94.5 89.05 94.2 Q88.4 94.0 87.9 93.55 L86.05 92.1 85.95 92.3 82.9 95.5 82.45 96.4 81.6 97.25 81.3 98.1 81.1 98.25 80.85 98.4 80.45 98.45 80.1 98.55 79.55 98.55 79.3 98.55 Q77.5 98.45 77.05 97.85 L76.85 96.9 76.4 96.45 Q76.1 96.45 75.95 96.25 L75.8 95.95 75.8 95.5 75.9 95.05 Q75.25 94.45 74.3 92.9 L71.9 89.15 71.45 88.65 70.9 88.8 Q69.25 89.0 68.05 89.5 L66.95 90.1 66.0 90.5 63.8 92.05 63.7 92.15 63.65 92.25 64.1 93.1 64.45 93.85 64.6 94.0 64.65 94.1 65.55 95.2 65.65 95.35 66.95 97.35 Q67.85 99.15 69.35 100.35 L69.75 100.65 69.85 100.65 69.85 100.75 69.95 100.85 Q72.5 102.75 76.1 103.15 L77.6 103.25 77.75 103.25 80.15 103.05 M108.9 95.35 L108.65 95.35 Q107.65 95.3 106.5 94.0 L105.25 92.4 103.8 91.2 103.25 90.7 102.6 91.45 102.35 91.75 99.55 95.95 97.65 98.25 97.65 98.35 97.15 98.8 96.35 99.55 96.2 100.25 96.75 100.25 96.8 100.25 96.95 100.35 98.55 100.5 98.75 100.5 102.0 100.95 105.0 100.45 107.9 98.9 109.6 97.85 111.05 96.45 113.35 93.5 113.7 93.0 113.75 92.75 113.8 92.85 113.9 92.65 114.3 92.3 113.6 91.4 111.9 88.85 109.9 86.55 108.9 85.9 108.05 85.15 107.9 85.15 107.4 85.75 108.8 87.2 109.0 87.45 Q111.7 90.5 111.65 92.25 111.65 93.1 111.05 94.1 110.35 95.3 108.9 95.35 M114.9 84.2 L114.9 84.15 114.6 83.85 114.05 83.1 113.35 83.7 112.25 84.35 111.2 84.55 109.7 84.7 109.2 84.9 109.55 85.1 Q110.25 85.3 110.85 85.95 L110.95 86.0 110.95 86.1 111.8 87.1 112.25 87.6 112.6 88.15 114.3 90.35 114.8 90.95 115.75 92.3 Q117.5 90.95 117.6 88.9 L117.6 88.8 117.5 88.15 117.0 86.9 116.95 86.85 116.95 86.75 115.65 85.0 115.3 84.65 115.25 84.55 115.15 84.45 114.95 84.2 114.9 84.2 M105.85 91.45 L106.2 91.8 106.2 91.9 107.6 93.35 107.65 93.35 108.4 94.0 108.55 94.1 108.75 94.2 Q109.5 94.2 109.85 93.75 L110.05 93.5 110.1 93.4 110.25 93.25 110.55 92.4 110.55 92.15 110.55 91.9 110.45 91.55 110.35 91.3 110.2 91.05 110.0 90.7 109.9 90.6 109.25 89.65 108.75 88.9 108.45 88.5 107.15 87.2 106.6 86.7 106.1 87.2 104.05 89.65 105.85 91.45 M110.55 98.45 Q109.0 99.85 107.95 100.25 L109.35 100.5 110.85 100.95 114.3 102.25 114.9 102.55 114.55 100.45 114.3 99.15 113.8 95.0 113.5 95.35 111.05 97.95 110.55 98.45 M62.95 21.4 L62.8 21.1 62.5 20.9 62.0 22.85 61.25 25.35 61.0 26.55 60.6 27.85 60.55 29.0 60.55 29.3 60.7 29.7 61.2 30.45 61.9 30.75 62.35 28.55 62.7 26.2 Q62.7 24.4 62.85 23.7 L62.95 22.4 63.15 21.95 63.0 21.75 62.95 21.4 M58.4 27.9 L58.8 28.05 58.95 28.2 59.6 28.55 Q59.6 27.5 60.05 26.45 L60.8 23.9 61.2 22.6 61.35 21.4 61.5 20.8 61.55 20.3 61.25 20.1 61.15 19.95 61.15 19.9 60.8 19.55 Q60.25 20.65 59.8 22.25 L58.6 26.3 58.15 27.75 58.4 27.9 M64.15 22.8 L64.1 22.7 64.1 22.8 63.95 23.3 Q63.65 24.3 63.65 24.75 L63.65 25.95 63.6 27.25 Q63.35 28.05 63.2 29.65 L62.85 31.1 63.3 31.25 63.85 31.8 64.05 31.95 64.3 29.85 64.6 27.65 64.65 25.5 64.75 23.2 64.15 22.8 M65.65 23.9 L65.75 24.75 65.55 26.8 65.4 30.05 64.65 32.55 65.65 32.85 66.25 33.05 67.1 28.5 67.55 26.2 67.55 25.6 67.7 25.1 67.3 24.95 66.0 24.3 65.65 23.9 M67.2 34.85 L66.0 33.9 64.65 33.45 63.5 32.95 63.1 32.45 62.5 31.95 62.35 31.95 Q62.15 31.95 62.05 31.8 L60.55 31.1 59.75 30.0 58.5 29.1 57.9 28.55 Q57.05 31.5 56.65 34.5 L56.35 36.9 56.2 38.5 56.3 38.5 57.0 38.5 57.15 38.5 Q58.0 38.65 58.15 39.1 L58.25 39.5 58.25 39.95 59.0 40.1 Q59.45 40.15 59.6 40.55 60.05 41.3 59.95 41.75 L61.4 42.25 Q62.15 42.45 62.25 42.9 L62.25 43.85 Q64.25 43.9 64.6 44.4 64.8 44.7 64.65 45.15 L66.25 45.35 66.55 45.35 66.75 45.4 66.85 45.4 67.1 45.55 Q67.45 45.7 67.2 46.1 67.45 46.85 68.8 46.8 L70.45 46.95 70.55 47.0 70.7 47.1 70.75 47.25 Q71.3 47.7 72.25 47.8 72.9 47.8 73.2 48.1 L73.2 46.75 73.25 44.65 73.2 44.65 Q69.65 44.45 67.85 42.1 L67.8 42.0 67.7 41.95 67.65 41.8 Q66.95 40.8 66.75 39.95 L66.7 39.35 66.7 38.7 66.85 38.7 66.95 38.65 67.05 38.65 67.45 38.55 70.55 38.3 70.55 37.75 70.55 36.95 69.15 35.75 68.9 35.8 Q68.4 35.8 67.45 35.05 L67.2 34.85 M50.55 47.8 L48.6 49.15 47.8 49.65 47.15 50.05 47.15 50.1 47.25 50.1 48.5 52.15 51.75 54.95 55.2 57.85 56.55 58.45 58.4 59.05 62.05 59.75 61.85 59.3 59.1 53.65 58.75 53.6 Q58.15 53.25 58.25 51.8 L58.0 51.95 57.65 51.5 57.35 51.2 57.3 51.2 57.0 51.0 56.95 50.95 56.35 50.6 Q56.05 50.0 55.6 49.7 L55.7 49.55 55.6 48.75 55.5 48.45 55.0 47.35 54.9 46.65 55.0 45.85 55.0 45.4 54.5 45.65 52.65 46.35 50.55 47.8 M57.55 39.85 Q57.2 39.6 56.95 39.5 L56.65 39.6 56.1 39.5 56.0 42.5 56.0 43.35 55.9 43.7 55.85 45.9 55.85 47.0 55.85 47.3 56.0 47.8 56.35 48.25 56.45 48.75 56.55 49.05 56.55 49.35 56.65 49.4 56.65 49.55 56.7 49.7 57.05 49.9 58.0 50.4 58.25 50.6 58.25 50.0 58.4 48.6 58.45 46.25 58.45 45.15 58.5 43.7 58.5 42.45 Q58.5 41.65 58.95 41.5 L58.8 41.4 58.0 40.85 57.9 40.1 57.55 39.85 M61.15 43.25 L60.7 43.2 60.45 43.1 59.6 42.75 59.6 43.55 59.35 46.25 59.0 50.85 59.0 50.95 59.1 51.05 59.1 51.7 59.1 52.45 59.35 52.75 59.75 52.95 60.25 52.9 60.4 52.9 60.9 52.8 60.8 52.65 61.05 51.05 61.15 48.3 61.15 47.15 61.2 45.5 61.15 44.05 61.25 43.35 61.35 43.35 61.15 43.25 M72.7 27.4 L72.2 27.15 72.0 26.9 70.95 26.6 70.95 26.8 70.8 27.75 70.75 28.85 Q71.65 28.5 72.65 28.5 L72.65 27.65 72.7 27.4 M69.15 33.35 Q69.15 34.2 69.8 35.05 70.7 36.25 72.5 36.45 L72.85 36.45 Q74.9 36.5 75.6 34.4 L75.95 32.95 75.95 32.2 75.95 31.45 75.55 30.95 75.4 30.75 75.25 30.55 74.9 30.3 Q74.15 29.8 72.85 29.65 L72.35 29.65 70.45 30.05 69.75 31.5 69.15 33.25 69.15 33.35 M68.4 34.3 L68.2 33.2 Q68.3 30.75 69.75 29.45 L69.95 29.3 69.95 28.95 69.95 27.85 69.95 26.3 69.25 25.85 68.65 25.45 68.2 27.55 67.95 29.55 67.65 31.8 Q67.45 33.25 66.95 33.4 L68.2 34.3 68.4 34.35 68.4 34.3 M72.0 39.25 L72.0 39.35 68.3 39.6 67.65 39.6 68.3 41.05 68.5 41.4 68.65 41.55 68.75 41.55 68.9 41.8 69.1 42.1 69.35 42.3 Q70.25 43.0 71.55 43.35 L73.2 43.6 74.2 43.6 74.45 43.55 74.6 43.55 75.25 43.4 75.55 43.35 75.8 43.1 75.9 43.1 77.1 40.2 77.25 39.85 77.25 39.5 77.4 39.05 77.4 39.0 77.5 38.75 77.5 38.7 77.4 38.7 77.2 38.75 77.0 38.85 76.85 38.85 76.7 38.85 76.05 39.0 74.45 39.1 72.0 39.25 M63.65 45.35 L63.8 45.0 63.65 44.9 63.6 44.9 62.85 44.9 62.15 44.8 62.05 45.55 62.0 48.4 61.9 51.2 61.65 53.45 61.7 53.6 61.9 54.55 62.6 54.55 63.6 54.6 63.6 54.05 63.7 51.15 63.65 48.65 63.6 47.25 63.45 46.15 Q63.45 45.7 63.6 45.4 L63.65 45.35 M65.55 46.35 L64.3 46.25 64.6 48.55 64.6 53.25 64.55 54.85 64.75 55.1 64.95 55.8 Q65.4 56.55 66.25 56.5 L66.55 56.5 67.1 56.3 67.3 55.1 67.1 53.9 66.95 52.65 66.75 49.9 66.6 47.55 66.6 47.25 66.35 46.35 65.55 46.35 M69.15 47.8 L67.95 47.8 67.7 47.8 67.7 48.9 67.85 50.1 67.95 51.3 68.15 56.05 68.15 56.5 68.3 56.85 68.55 57.5 68.8 57.5 69.15 57.8 69.95 57.95 70.35 57.95 70.35 56.55 70.35 53.25 70.25 50.4 70.2 48.9 70.1 48.1 69.75 47.7 69.3 47.7 Q69.15 47.7 69.15 47.8 M73.85 38.05 L73.85 38.15 77.05 37.75 75.75 36.15 Q75.05 37.1 73.85 37.4 L73.85 38.05 M72.9 38.05 L72.9 37.45 72.75 37.45 71.4 37.25 71.4 38.25 72.7 38.15 72.9 38.05 M71.1 48.8 L71.05 48.8 71.05 48.9 71.2 50.1 71.2 51.3 71.3 56.05 71.25 57.75 71.4 57.8 71.45 58.2 71.75 58.55 71.75 58.6 72.15 58.9 72.7 58.9 73.05 58.7 74.0 58.3 73.45 52.4 73.2 49.15 73.05 49.15 72.15 49.05 71.1 48.8 M61.7 60.75 Q59.0 60.7 56.7 59.8 55.0 59.2 54.3 58.45 L52.6 57.0 51.15 55.8 48.45 53.65 Q46.5 52.05 46.35 50.95 L46.35 50.8 Q43.65 53.15 43.1 54.05 42.15 55.3 42.1 57.0 42.1 57.8 42.65 58.8 L43.1 59.65 43.25 60.15 43.25 60.25 45.0 61.85 46.15 62.95 Q46.3 63.0 46.45 63.15 48.6 65.25 49.3 65.45 L51.75 66.7 54.6 68.25 57.05 69.6 58.4 70.15 58.8 69.0 Q59.15 68.1 60.1 67.75 L61.55 66.7 63.3 65.4 64.3 64.0 64.75 63.4 63.95 62.15 62.85 60.75 61.7 60.75 M71.3 77.85 Q72.25 77.15 74.3 76.45 L77.35 75.7 77.2 75.35 77.1 75.15 77.1 75.0 77.1 74.5 77.1 74.4 77.2 74.3 77.4 73.35 77.75 71.9 77.75 70.45 Q77.7 69.7 77.25 69.1 L76.25 67.75 75.25 66.55 74.15 65.9 73.25 65.6 72.55 64.95 71.8 64.45 70.35 63.75 69.35 63.05 68.65 63.0 68.5 63.0 Q67.1 62.95 66.4 63.6 L66.25 63.75 66.0 63.8 65.9 63.8 65.85 64.25 65.55 64.9 65.1 65.45 64.45 66.05 62.6 67.4 61.55 68.25 60.8 68.75 Q60.2 69.0 59.9 69.35 L59.6 69.95 59.6 70.1 Q59.15 70.55 59.1 71.2 L59.15 71.5 58.85 73.05 59.25 74.15 59.9 75.5 Q60.4 76.55 61.0 77.05 L61.35 77.4 63.6 79.8 64.9 81.05 66.5 81.45 66.55 81.4 66.75 81.55 67.1 81.65 67.15 81.65 67.45 81.75 67.45 81.65 67.55 81.4 68.4 80.55 68.4 80.4 68.55 80.2 68.9 80.05 70.2 78.95 70.25 78.95 70.45 78.75 71.1 78.0 71.3 77.85 M59.8 80.2 L60.3 80.05 61.85 79.65 61.9 79.65 61.9 79.6 60.55 78.3 Q59.45 77.35 58.75 76.05 58.1 74.95 58.0 74.0 L57.9 73.3 58.1 72.1 58.25 71.15 53.65 69.0 52.8 68.6 52.45 68.45 52.3 69.0 52.1 69.95 Q52.0 72.2 53.8 74.75 L55.35 76.55 57.65 79.1 58.6 80.75 58.8 80.75 59.7 80.2 59.8 80.2 M68.65 88.05 L70.7 87.6 68.9 85.4 66.95 82.85 66.05 82.6 Q64.1 82.35 63.15 81.3 L62.6 80.55 62.2 80.75 60.2 81.25 Q59.95 81.3 59.15 81.85 L58.25 82.2 58.0 82.2 57.75 82.2 58.65 83.5 Q59.35 84.7 59.55 86.35 59.75 87.35 60.6 89.0 L62.0 91.75 62.25 91.55 63.5 90.7 Q63.95 90.35 64.4 90.15 L65.05 89.75 65.1 89.65 65.25 89.6 Q67.1 88.5 68.65 88.05 M63.6 94.35 L63.0 98.1 62.6 100.6 65.15 100.6 67.55 100.6 68.0 100.6 67.05 99.7 66.35 98.7 Q65.9 97.4 64.1 95.15 L63.6 94.35" fill="#000000" fill-rule="evenodd" stroke="none"/>
      <path d="M69.95 5.1 L68.9 4.7 67.55 4.1 66.95 3.65 66.85 3.65 67.7 1.85 68.65 -0.5 Q69.75 -3.2 71.9 -4.95 L73.25 -6.05 74.35 -7.15 75.55 -8.0 Q76.85 -8.7 77.1 -8.95 L78.55 -9.8 80.15 -10.45 82.75 -11.25 89.65 -11.85 92.6 -11.7 Q93.2 -11.6 95.85 -10.3 L96.95 -9.45 Q97.55 -8.7 98.15 -8.5 L99.45 -7.7 100.5 -6.7 101.4 -5.95 102.6 -4.95 Q103.55 -4.3 104.5 -2.95 L105.65 -0.85 107.1 1.7 107.95 3.15 Q107.3 3.3 106.65 3.85 L105.15 5.1 105.15 4.9 104.85 3.15 103.7 2.0 Q102.45 1.05 101.6 0.9 101.25 1.55 101.05 2.4 L101.0 4.0 100.5 5.8 100.3 6.85 100.15 6.85 100.0 6.85 Q99.95 4.9 99.2 1.65 98.35 -2.05 97.45 -3.3 L96.45 -4.25 96.0 -4.6 94.2 -5.0 Q92.75 -5.75 90.3 -5.8 L86.65 -5.7 80.75 -4.85 Q78.3 -4.25 78.15 -3.5 78.05 -3.4 77.95 -3.4 L77.2 -2.55 76.85 -1.7 Q76.05 0.1 75.75 1.7 75.4 3.25 75.3 5.1 L75.3 6.35 75.25 6.35 74.45 6.2 Q74.1 5.2 74.1 4.75 L74.1 1.15 Q73.2 -1.85 71.45 1.15 L70.45 3.5 69.95 5.05 69.95 5.1 M108.4 15.6 L108.6 14.85 108.8 12.4 108.9 11.2 110.45 9.8 112.3 13.75 114.8 18.55 114.9 18.7 114.6 18.85 113.25 20.3 112.5 20.65 111.9 21.25 111.9 21.95 111.65 22.6 Q111.55 22.6 111.5 22.7 110.7 20.0 108.75 15.6 L108.4 15.6 M105.25 23.55 L105.15 23.05 105.15 22.6 105.35 22.7 105.25 23.55 M96.0 18.2 L96.15 17.75 96.1 17.55 96.55 17.0 Q97.1 16.25 98.55 15.9 L101.4 15.55 Q103.45 15.2 104.85 14.25 L107.95 11.9 107.6 15.05 106.7 19.15 Q106.15 21.75 105.55 21.7 L105.35 21.7 105.4 21.6 105.35 21.0 Q105.2 20.4 104.85 20.4 L104.3 20.5 104.3 19.05 104.2 16.65 Q103.95 16.45 102.15 17.0 L96.0 18.2 M103.6 21.85 L103.55 21.95 103.25 21.95 103.6 21.85 M91.25 21.95 L90.25 22.2 89.9 21.9 91.25 21.95 M84.6 21.6 L84.1 21.85 83.5 21.6 84.6 21.6 M77.1 21.1 L77.0 21.15 76.5 21.0 77.1 21.1 M74.45 19.55 L74.2 19.45 73.7 19.55 73.5 20.1 73.35 20.1 73.35 20.25 72.7 20.25 Q72.0 19.15 71.45 17.5 70.9 15.75 70.95 14.6 L71.05 13.95 74.7 15.1 77.6 15.4 Q79.3 15.45 80.15 15.9 L80.85 16.45 80.85 16.65 81.3 17.85 81.55 18.2 76.5 17.25 Q74.95 17.2 74.6 17.55 L74.35 18.85 74.45 19.55 M114.25 32.85 L114.45 32.55 Q114.8 32.0 115.25 31.95 L117.0 30.05 118.55 28.25 120.0 33.05 120.85 36.15 119.9 36.95 Q119.25 37.25 118.95 37.75 L118.3 38.55 Q117.5 38.9 117.2 39.25 L117.0 39.75 116.95 40.15 116.0 40.85 114.9 41.4 114.8 39.6 114.4 35.5 114.25 32.85 M66.25 45.35 L64.65 45.15 Q64.8 44.7 64.6 44.4 64.25 43.9 62.25 43.85 L62.25 42.9 Q62.15 42.45 61.4 42.25 L59.95 41.75 Q60.05 41.3 59.6 40.55 59.45 40.15 59.0 40.1 L58.25 39.95 58.25 39.5 58.15 39.1 Q58.0 38.65 57.15 38.5 L57.0 38.5 56.3 38.5 56.2 38.5 56.35 36.9 56.65 34.5 Q57.05 31.5 57.9 28.55 L58.5 29.1 59.75 30.0 60.55 31.1 62.05 31.8 Q62.15 31.95 62.35 31.95 L62.5 31.95 63.1 32.45 63.5 32.95 64.65 33.45 66.0 33.9 67.2 34.85 67.1 35.35 67.1 36.95 67.05 38.3 66.95 38.65 66.85 38.7 66.7 38.7 66.7 39.35 66.75 39.95 66.55 41.5 66.35 44.1 66.25 45.2 66.25 45.35" fill="#1c181d" fill-rule="evenodd" stroke="none"/>
      <path d="M91.1 3.8 L91.1 5.8 88.55 5.75 85.7 5.8 85.6 4.6 85.6 4.3 Q86.55 4.8 88.2 4.9 90.0 4.9 90.6 4.3 L91.15 3.35 91.1 3.8 M91.1 8.35 L91.0 8.35 88.05 8.05 86.6 8.05 85.95 8.05 85.8 6.75 91.1 6.7 91.1 8.35 M90.35 13.0 L90.85 12.9 90.8 13.0 90.35 13.0 M90.95 11.95 L88.7 11.85 86.15 11.8 86.05 9.9 88.6 10.0 91.1 10.1 91.0 10.9 90.95 11.95 M86.65 15.3 L86.6 14.3 86.55 13.95 86.9 13.95 89.15 13.95 90.75 13.85 90.65 14.45 90.4 15.45 88.85 15.4 86.65 15.3 M86.4 18.1 L86.6 17.35 86.6 16.9 87.1 16.9 88.4 17.0 90.3 17.05 90.25 18.1 88.6 18.1 86.4 18.1 M97.15 54.25 L98.6 52.5 101.15 48.65 101.95 46.65 102.35 45.4 102.75 44.65 103.95 44.65 103.75 44.9 103.4 46.25 103.05 47.35 102.45 48.6 101.05 50.95 99.45 53.25 99.2 53.75 99.2 53.6 99.1 53.3 99.05 53.25 Q98.25 53.25 97.15 54.25 M80.0 53.65 Q79.0 52.65 79.0 54.2 L79.0 54.25 78.2 52.65 76.5 48.3 76.05 47.25 75.55 46.15 75.25 44.9 74.95 44.65 75.4 44.65 75.55 44.45 75.75 44.8 76.15 45.5 76.85 46.95 77.7 48.65 79.4 52.5 80.0 53.65 M89.9 59.45 L91.15 60.85 Q91.45 61.5 91.35 62.55 91.35 63.65 90.95 64.15 89.7 65.35 85.6 65.2 L85.0 64.6 84.45 63.6 Q84.25 62.95 84.35 61.7 L84.85 60.9 86.05 59.65 86.15 60.15 86.6 60.35 86.05 60.7 Q85.2 61.5 85.2 62.7 85.15 64.4 87.5 64.4 89.45 64.45 90.05 63.4 L90.4 61.7 Q90.4 60.85 89.65 60.35 89.35 60.15 88.95 60.05 L89.5 59.75 89.9 59.45 M92.95 72.2 L92.75 72.7 Q91.25 76.4 87.75 76.25 84.2 76.2 82.65 73.0 81.55 71.05 81.7 69.2 81.75 67.0 82.3 65.6 L82.4 64.75 82.75 63.8 83.4 62.95 83.55 63.9 83.85 64.5 84.2 65.1 84.35 65.35 83.85 67.4 83.75 69.55 Q83.7 71.35 84.15 72.2 L85.2 74.25 Q85.9 74.95 87.35 75.0 90.0 75.1 91.0 72.2 91.45 70.9 91.5 68.65 L91.35 66.85 90.95 65.45 91.65 64.9 91.75 64.75 92.3 67.85 92.1 70.25 Q92.1 72.0 92.95 72.2" fill="#966d59" fill-rule="evenodd" stroke="none"/>
      <path d="M93.25 -4.3 Q92.8 -4.0 92.8 -3.4 L92.55 -2.3 91.95 -1.2 Q91.15 -0.25 90.3 1.4 89.45 2.55 87.5 2.55 86.15 2.4 83.75 -0.75 L82.05 -2.95 81.2 -3.8 81.3 -3.9 81.6 -3.95 82.1 -3.2 Q82.65 -2.7 83.4 -2.7 L83.85 -2.7 84.35 -2.55 86.3 -2.3 88.2 -2.1 Q89.5 -2.05 91.25 -3.2 L92.6 -4.45 93.25 -4.3 M78.2 4.9 L78.2 5.05 Q78.15 6.4 78.45 7.1 78.85 8.05 80.75 9.4 81.2 9.65 81.7 10.45 L82.55 11.4 83.9 12.5 82.75 12.3 Q81.75 12.2 81.7 12.85 L81.75 13.0 80.1 11.8 78.2 10.15 Q77.0 9.15 77.0 8.55 L76.3 6.05 Q76.6 5.8 78.2 4.9 M85.65 17.05 Q85.65 17.85 85.8 18.1 L84.25 18.35 84.25 17.85 84.35 17.25 84.65 17.35 85.65 17.05 M83.35 14.35 L83.2 14.25 83.35 14.25 83.35 14.35 M99.05 7.25 L98.85 9.45 Q98.5 10.35 96.6 11.8 L95.7 12.5 95.45 12.15 Q95.1 11.7 94.2 11.55 L94.85 11.05 96.65 9.4 Q97.3 8.7 97.55 7.85 L97.75 5.8 98.05 6.25 Q98.5 7.1 99.05 7.25 M93.4 17.05 L93.4 18.35 93.25 18.35 92.55 18.45 92.45 18.35 91.15 18.2 90.95 18.2 91.35 17.15 91.85 17.15 93.4 17.05 M95.2 -3.0 L95.1 -3.2 95.15 -3.2 95.2 -3.0 M121.55 46.85 L121.85 47.9 121.7 48.2 121.95 48.65 122.15 49.15 Q122.15 49.5 121.65 49.7 L120.75 50.05 120.35 50.4 119.9 48.4 119.3 45.15 Q119.05 42.6 118.2 40.95 L117.85 40.3 118.65 39.6 119.5 39.05 120.1 41.05 120.9 43.7 121.55 46.85 M122.75 47.0 L122.75 47.1 122.35 45.5 121.7 42.9 121.45 41.5 120.95 40.15 120.4 38.75 119.85 38.15 119.9 38.05 120.9 37.4 121.1 37.25 121.35 37.9 Q122.35 40.95 123.1 44.9 L123.35 46.6 122.75 47.0 M107.15 11.1 L105.7 12.3 104.3 13.5 103.4 14.0 102.75 14.3 101.4 14.6 101.4 13.5 101.4 11.25 Q101.15 10.1 101.05 8.2 L101.15 7.65 Q102.75 7.45 105.35 6.05 L106.0 9.0 106.85 10.7 107.15 11.1 M112.45 23.3 L112.8 22.45 Q112.8 21.85 113.1 21.55 L113.75 23.05 114.55 25.1 115.3 28.05 Q115.55 29.2 116.25 29.2 L114.45 31.15 113.95 29.0 113.35 26.9 113.0 25.7 112.75 24.4 112.5 23.3 112.45 23.3 M114.6 20.4 L115.25 19.8 116.65 23.5 118.15 27.25 117.3 28.15 116.75 28.6 115.25 24.3 113.8 21.0 114.6 20.4 M82.3 17.65 L82.65 18.2 82.3 17.75 82.3 17.65 M74.6 14.1 L72.0 13.35 Q70.9 12.85 69.3 12.35 L68.15 11.9 68.5 11.05 68.8 9.5 69.25 8.0 69.65 6.35 69.6 6.0 72.65 6.75 74.45 7.2 74.45 9.05 74.35 10.85 74.45 13.05 74.6 14.1 M78.65 46.85 L78.65 46.8 79.4 45.65 79.65 44.3 80.1 43.2 81.6 45.05 83.5 47.15 85.0 49.15 81.6 48.4 78.8 46.95 78.65 46.85 M93.05 48.95 L94.15 47.55 97.05 43.55 97.55 43.95 98.05 44.45 98.35 45.2 98.55 45.7 99.0 46.75 98.25 47.1 93.85 48.75 93.05 48.95 M101.4 38.75 L103.2 39.1 103.9 39.2 103.55 39.75 102.85 41.05 103.2 41.45 104.65 40.15 105.4 39.4 108.1 39.75 107.55 40.3 107.0 40.95 106.1 42.15 105.2 43.55 105.2 43.6 105.05 43.6 104.3 43.35 Q103.4 43.1 103.05 42.5 L102.45 41.65 102.0 40.85 101.5 39.6 101.4 39.25 101.4 39.2 101.4 38.75 M106.35 43.4 L106.2 43.4 106.35 43.35 106.35 43.4 M103.1 43.6 L102.75 43.55 102.85 43.45 103.1 43.6 M102.15 43.35 L102.0 43.35 102.0 43.25 102.15 43.35 M109.85 25.5 L109.75 26.05 110.0 28.05 110.45 30.15 110.7 32.6 Q110.85 34.0 111.35 34.2 L111.3 34.2 110.65 34.8 109.1 35.45 Q109.7 34.5 109.7 33.55 109.75 31.3 108.65 30.0 L108.75 29.7 108.55 29.1 108.25 28.5 108.1 27.25 107.95 26.4 Q108.75 25.75 109.2 25.7 L109.85 25.5 M111.9 25.35 L112.6 27.75 113.1 30.45 113.25 30.95 113.35 31.3 113.35 31.5 113.5 31.95 113.35 32.4 113.25 32.45 113.35 32.55 112.75 32.95 112.0 33.45 111.2 28.7 110.95 27.4 110.7 26.2 110.65 25.25 111.15 24.75 111.65 24.05 111.9 25.35 M107.45 29.0 L105.75 28.6 105.75 28.4 105.7 27.4 105.75 27.4 Q106.5 27.4 107.2 26.95 L107.3 28.5 107.45 29.0 M103.1 30.4 Q103.8 29.8 105.25 29.8 106.85 29.7 107.65 30.4 L107.95 30.75 107.65 32.75 106.5 34.9 105.5 36.5 104.85 36.5 104.85 36.35 104.3 35.95 103.8 35.5 103.45 35.0 103.25 34.5 103.1 34.2 103.4 34.3 Q104.55 34.3 105.15 33.55 L105.55 32.45 105.25 31.0 Q104.75 29.95 103.4 30.3 L103.25 30.3 103.1 30.4 M106.2 38.4 L104.9 38.25 104.7 38.15 104.75 37.55 104.85 37.55 106.3 37.45 106.2 38.4 M110.65 45.9 L111.05 45.7 112.45 45.15 112.8 46.85 112.85 48.45 113.0 49.9 113.25 51.35 113.35 52.75 113.35 54.35 113.5 55.2 113.25 55.65 Q112.6 56.65 111.5 56.35 L110.85 56.2 110.65 51.95 Q110.45 48.75 110.55 47.1 L110.65 46.5 110.65 45.9 M106.7 48.45 L106.65 47.45 106.7 47.45 109.0 46.95 109.6 46.65 109.6 46.95 109.6 52.05 109.6 55.2 Q109.7 56.75 110.1 57.15 L110.1 57.3 Q110.0 57.8 108.1 57.65 L106.7 57.5 106.8 50.35 106.7 48.45 M113.8 48.55 L113.45 45.55 113.35 44.05 113.95 43.7 114.9 43.25 Q114.8 44.45 115.05 45.35 L115.75 48.55 116.2 51.95 116.65 53.9 116.35 54.25 115.9 54.6 Q115.4 55.05 114.55 54.85 L114.4 54.75 114.4 54.35 114.2 51.3 113.8 48.55 M116.6 41.65 L117.5 41.15 117.85 43.0 118.45 46.1 Q118.55 47.9 118.9 49.15 119.3 51.2 119.9 51.35 L119.1 52.5 118.3 52.65 117.35 52.8 117.0 50.7 116.5 47.0 116.05 45.3 115.75 43.55 115.75 42.75 115.7 42.15 Q115.85 41.95 116.6 41.65 M98.7 65.95 L99.8 65.4 102.45 63.5 104.65 61.7 105.7 62.8 106.5 63.5 105.7 63.75 Q104.5 64.0 104.2 64.25 103.4 64.85 101.75 66.9 L100.45 69.55 100.15 70.15 99.45 68.75 99.05 67.05 98.9 66.65 98.9 66.5 98.85 66.35 98.7 65.95 M96.2 73.45 L95.95 73.55 96.0 73.2 96.15 73.3 96.2 73.45 M94.25 74.0 L94.15 74.0 94.25 73.95 94.25 74.0 M81.7 73.55 L81.75 73.7 81.7 73.7 81.7 73.65 81.7 73.55 M79.05 72.95 L78.8 72.85 78.9 72.7 78.9 72.85 79.05 72.95 M76.9 66.85 L76.5 66.2 Q76.05 65.7 74.65 64.95 L72.85 63.9 71.2 62.7 71.05 62.65 72.0 62.05 72.75 61.5 74.3 63.0 77.55 65.6 77.4 65.85 77.35 65.9 77.0 66.7 77.0 66.8 76.9 66.85 M101.05 78.4 L101.0 78.35 101.05 78.35 101.05 78.4 M102.85 78.95 L103.55 79.25 104.25 79.65 103.75 80.55 102.85 81.55 Q102.0 82.15 100.9 83.55 L98.7 85.9 Q97.75 86.55 95.0 89.85 92.2 93.2 91.75 94.55 L91.35 94.3 89.7 93.4 88.85 92.85 Q88.95 92.55 89.55 92.15 L90.25 91.8 92.2 90.0 95.85 86.25 96.6 85.3 97.55 84.3 99.55 82.5 101.5 80.6 102.85 78.95 M106.7 82.35 L107.0 82.85 107.65 83.7 107.6 83.8 106.2 85.45 106.1 85.6 105.35 86.4 Q103.45 88.2 101.85 90.7 L98.35 95.35 96.6 97.85 Q96.1 97.9 95.85 98.25 L95.35 99.0 94.35 97.55 96.95 94.3 Q99.05 91.55 100.65 89.95 L104.2 85.75 Q105.95 83.65 106.7 82.35 M84.95 91.7 L83.35 93.55 83.15 93.85 Q82.7 92.5 81.0 90.15 L78.05 86.15 75.15 81.15 73.25 78.2 75.25 77.4 Q75.3 78.75 77.0 80.95 L79.95 84.7 83.2 89.35 84.95 91.7 M81.55 95.5 L81.45 95.65 81.25 95.3 Q81.4 95.35 81.55 95.5 M79.95 97.45 L78.5 97.45 Q78.15 97.4 77.75 96.15 77.55 95.35 77.2 95.05 L77.2 94.95 Q77.2 94.55 75.25 91.9 L72.35 87.9 70.95 86.35 69.75 84.55 68.2 82.75 68.4 82.35 69.0 81.3 69.15 81.15 69.3 81.1 69.15 81.25 71.05 84.35 74.2 88.65 77.25 93.75 Q78.9 96.65 79.95 97.45 M115.3 84.65 L115.65 85.0 116.95 86.75 Q116.5 86.6 115.75 87.05 114.45 87.6 114.25 87.95 L114.2 88.9 114.25 90.1 114.3 90.35 112.6 88.15 112.25 87.6 112.85 86.9 Q113.15 86.15 113.35 86.1 113.75 85.75 114.8 85.3 L115.3 84.65 M117.6 88.9 Q117.5 90.95 115.75 92.3 L114.8 90.95 115.65 91.2 Q116.75 91.2 117.3 90.3 L117.6 88.9 M106.2 91.8 L106.6 91.4 107.0 90.5 107.9 90.15 108.75 90.0 109.25 89.65 109.9 90.6 110.0 90.7 Q109.7 90.5 109.1 90.7 107.55 90.8 107.45 92.05 107.45 92.85 107.8 93.35 L108.4 93.85 108.55 93.95 108.9 94.0 109.35 94.0 109.6 93.95 109.75 93.85 109.85 93.75 Q109.5 94.2 108.75 94.2 L108.55 94.1 108.4 94.0 107.65 93.35 107.6 93.35 106.2 91.9 106.2 91.8 M61.2 30.45 L60.7 29.7 60.55 29.3 60.55 29.0 60.6 27.85 61.0 26.55 61.25 25.35 62.0 22.85 62.5 20.9 62.8 21.1 62.95 21.4 61.9 25.25 Q61.2 28.85 61.2 30.15 L61.2 30.45 M58.4 27.9 L58.15 27.75 58.6 26.3 59.8 22.25 Q60.25 20.65 60.8 19.55 L61.15 19.9 60.7 20.8 59.9 23.35 59.55 24.35 59.15 25.35 58.4 27.65 58.4 27.9 M64.15 22.8 L64.75 23.2 64.65 25.5 64.6 27.65 64.3 29.85 64.05 31.95 63.85 31.8 63.3 31.25 62.85 31.1 63.2 29.65 Q63.35 28.05 63.6 27.25 L63.65 25.95 63.65 24.75 Q63.65 24.3 63.95 23.3 L64.1 22.8 64.15 22.8 M65.65 23.9 L66.0 24.3 67.3 24.95 67.7 25.1 67.55 25.6 67.55 26.2 67.1 28.5 66.25 33.05 65.65 32.85 64.65 32.55 65.4 30.05 65.55 26.8 65.75 24.75 65.65 23.9 M57.05 49.9 L56.7 49.7 56.65 49.55 56.65 49.4 56.55 49.35 56.55 49.05 56.45 48.75 56.35 48.25 56.0 47.8 55.85 47.3 55.85 47.0 55.85 45.9 55.9 43.7 56.0 43.35 56.0 42.5 56.1 39.5 56.65 39.6 56.95 39.5 Q57.2 39.6 57.55 39.85 L57.2 41.8 57.05 45.2 57.05 46.65 57.0 48.65 57.0 49.5 57.05 49.9 M61.15 43.25 L61.35 43.35 61.25 43.35 61.15 43.25 M60.25 52.9 L59.75 52.95 59.35 52.75 59.1 52.45 59.1 51.7 59.1 51.05 59.0 50.95 59.0 50.85 59.35 46.25 59.6 43.55 59.6 42.75 60.45 43.1 60.45 44.65 60.4 46.35 60.3 47.6 60.25 51.85 60.25 52.9 M72.7 27.4 L72.65 27.65 72.65 28.5 Q71.65 28.5 70.75 28.85 L70.8 27.75 70.95 26.8 70.95 26.6 72.0 26.9 72.2 27.15 72.7 27.4 M69.15 33.35 L69.75 32.75 70.7 31.65 71.65 30.55 72.35 29.65 72.85 29.65 Q74.15 29.8 74.9 30.3 L73.5 30.2 Q72.75 30.4 72.4 30.95 72.25 31.3 72.25 31.75 L72.4 32.85 Q72.85 33.9 73.8 34.0 74.7 34.0 75.25 33.2 L75.1 33.7 74.95 34.5 74.5 35.25 73.7 35.8 72.5 36.45 Q70.7 36.25 69.8 35.05 69.15 34.2 69.15 33.35 M68.2 34.3 L66.95 33.4 Q67.45 33.25 67.65 31.8 L67.95 29.55 68.2 27.55 68.65 25.45 69.25 25.85 69.95 26.3 69.95 27.85 69.95 28.95 69.95 29.3 69.75 29.45 Q68.3 30.75 68.2 33.2 L68.4 34.3 68.2 34.3 M72.0 39.25 L74.45 39.1 76.05 39.0 75.75 39.75 75.75 39.95 75.45 41.3 74.9 41.95 73.65 42.6 71.55 43.35 Q70.25 43.0 69.35 42.3 L72.2 39.35 72.2 39.25 72.0 39.25 M76.7 38.85 L76.85 38.85 76.75 39.0 76.7 39.35 76.7 38.85 M77.4 38.7 L77.5 38.7 77.5 38.75 77.4 38.75 77.4 38.7 M68.9 41.8 L68.75 41.55 68.9 41.65 68.9 41.8 M63.65 45.35 L63.65 44.9 63.8 45.0 63.65 45.35 M62.85 44.9 L62.6 49.35 Q62.5 51.5 62.65 52.75 L62.6 54.45 62.6 54.55 61.9 54.55 61.7 53.6 61.65 53.45 61.9 51.2 62.0 48.4 62.05 45.55 62.15 44.8 62.85 44.9 M66.55 56.5 L66.25 56.5 Q65.4 56.55 64.95 55.8 L64.75 55.1 64.55 54.85 64.6 53.25 64.6 48.55 64.3 46.25 65.55 46.35 65.5 48.1 65.55 49.9 65.6 52.6 65.75 54.9 66.0 56.0 66.2 56.35 66.5 56.4 66.55 56.5 M69.15 57.8 L68.8 57.5 68.55 57.5 68.3 56.85 68.15 56.5 68.15 56.05 67.95 51.3 67.85 50.1 67.7 48.9 67.7 47.8 67.95 47.8 69.15 47.8 69.1 49.05 Q69.0 52.2 69.15 54.05 L69.1 56.55 Q69.0 57.3 69.15 57.8 M72.9 38.05 L72.7 38.15 71.4 38.25 71.4 37.25 72.75 37.45 72.9 37.45 72.9 38.05 M71.1 48.8 L72.15 49.05 72.15 49.75 72.05 52.3 72.35 54.75 72.5 56.0 72.7 57.3 72.7 58.6 72.7 58.9 72.15 58.9 71.75 58.6 71.75 58.55 71.45 58.2 71.4 57.8 71.25 57.75 71.3 56.05 71.2 51.3 71.2 50.1 71.05 48.9 71.1 48.8" fill="#cc9d3c" fill-rule="evenodd" stroke="none"/>
      <path d="M79.15 4.6 L80.0 4.3 82.3 3.75 84.6 3.35 84.6 3.5 84.8 6.2 84.8 6.35 84.85 6.6 84.95 7.2 85.15 8.65 84.25 8.9 Q83.75 9.15 83.55 9.3 L83.0 9.65 82.7 10.0 82.7 9.95 81.75 9.0 79.8 7.1 Q79.05 6.15 79.05 5.1 L79.15 4.6 M85.1 12.3 L85.15 12.35 85.1 12.35 85.1 12.3 M92.1 3.0 L92.75 3.25 Q93.25 3.3 95.1 4.2 L96.35 5.05 96.8 5.25 96.8 5.3 96.65 7.35 Q96.3 8.65 95.3 9.45 L94.25 10.25 93.75 9.45 Q92.95 8.55 92.25 8.55 L92.05 8.55 92.05 4.0 92.1 3.0 M87.15 61.2 L87.75 61.05 Q88.4 60.85 88.95 61.05 89.5 61.25 89.45 61.8 L89.35 62.55 89.05 62.5 88.4 62.3 Q87.9 62.15 87.6 61.85 L87.35 61.45 87.15 61.2 M88.55 66.2 Q88.4 66.2 88.4 66.3 88.0 66.65 87.9 67.05 L88.2 67.65 Q88.55 68.35 89.5 68.45 90.3 68.45 90.4 67.95 L90.5 67.5 90.6 68.65 90.6 69.55 90.5 70.3 90.3 70.15 88.0 68.35 Q85.8 67.35 85.2 67.5 L84.85 67.65 85.2 66.55 85.3 66.1 87.0 66.2 88.55 66.2 M90.05 66.05 L89.85 65.9 90.0 65.9 90.05 66.05 M63.5 90.7 L63.0 89.05 Q62.25 86.55 62.35 85.0 62.35 83.3 62.65 83.0 63.3 82.05 65.65 84.2 L68.15 86.9 68.65 88.05 Q67.1 88.5 65.25 89.6 L65.1 89.65 65.05 89.75 64.4 90.15 Q63.95 90.35 63.5 90.7" fill="#008484" fill-rule="evenodd" stroke="none"/>
      <path d="M102.0 62.5 L101.85 62.55 101.85 62.5 102.0 62.5 M100.2 63.75 L98.85 64.7 95.95 65.7 Q94.85 65.9 94.5 66.2 L94.25 65.1 93.3 62.85 92.95 62.05 94.25 60.9 96.65 58.6 98.55 56.2 100.2 54.05 100.55 53.6 100.55 53.9 100.45 57.85 100.35 59.45 100.3 61.5 100.2 63.45 100.2 63.75 M97.65 49.55 L94.35 54.45 Q91.95 57.6 91.1 57.5 L90.4 57.15 Q89.9 56.8 88.85 56.8 L87.6 57.0 85.65 57.15 Q85.2 57.15 83.5 54.55 L80.85 50.2 83.05 50.85 86.15 51.5 Q92.1 51.7 95.35 50.7 97.05 50.2 97.65 49.55 M79.0 56.5 L79.55 57.65 81.3 60.05 Q82.4 61.5 83.0 61.8 82.2 62.35 81.55 64.45 L81.1 66.1 79.9 65.45 79.0 65.1 78.85 63.9 78.8 61.6 78.85 59.55 78.85 57.5 79.0 56.5" fill="#52047b" fill-rule="evenodd" stroke="none"/>
      <path d="M96.55 41.05 L96.2 41.2 95.8 41.55 95.5 41.8 94.5 42.4 94.2 42.6 92.8 43.35 92.8 43.4 90.3 44.3 89.65 44.45 89.3 44.8 88.95 44.8 88.8 44.8 88.45 44.55 87.4 43.95 87.35 43.9 87.15 43.9 87.1 43.85 86.8 43.7 86.65 43.6 86.6 43.6 85.7 43.25 84.95 42.75 83.85 42.1 83.35 41.65 81.8 40.7 Q81.95 40.2 82.9 39.7 L84.0 38.7 Q85.6 37.45 86.4 37.25 L88.95 37.2 90.25 37.2 92.75 37.4 92.95 37.45 93.05 37.8 93.7 37.9 Q94.55 38.15 95.3 39.6 L95.45 39.7 96.0 40.35 96.55 41.05 M102.85 77.9 L102.3 77.65 Q101.95 77.35 101.5 77.35 L100.9 75.45 100.3 72.8 Q100.35 72.2 101.25 70.25 L102.45 67.75 103.6 66.4 104.7 65.35 Q105.25 64.85 106.0 64.95 L107.3 64.6 Q107.75 64.15 108.4 63.9 L111.15 63.5 113.1 65.75 114.25 67.05 113.9 68.5 113.0 70.3 111.7 72.1 108.25 75.45 107.15 76.2 Q106.35 76.55 106.1 76.8 L105.75 76.9 105.55 77.15 104.4 77.3 103.25 77.4 102.85 77.9 M89.8 76.9 L89.65 77.15 89.65 76.95 89.8 76.9 M90.8 84.55 L90.85 84.05 90.65 82.75 90.5 81.4 91.0 79.8 91.65 78.15 93.5 76.55 Q95.45 75.15 96.45 75.15 98.15 75.25 99.45 76.7 L100.15 77.55 100.2 77.65 Q100.15 77.65 100.0 77.8 L98.55 79.1 97.05 80.4 96.15 81.1 95.7 81.4 94.75 82.15 94.0 83.1 93.3 84.0 92.9 84.35 92.55 84.3 91.35 84.45 90.8 84.55 M99.45 73.35 L99.05 73.35 99.35 73.2 99.45 73.2 99.45 73.35 M92.55 78.75 Q92.7 79.3 93.25 79.3 93.75 79.35 94.55 78.6 95.35 77.85 95.35 77.4 95.45 76.25 94.0 76.7 92.6 77.15 92.55 78.15 L92.55 78.75 M79.0 76.55 L79.4 76.2 Q80.1 75.6 80.85 75.6 82.05 75.7 83.65 76.7 85.35 77.65 85.65 78.6 L86.15 80.45 86.25 82.35 85.6 83.95 85.3 84.35 84.6 83.45 82.2 80.4 79.3 77.15 79.0 76.55 M83.7 79.35 Q84.95 79.35 84.95 78.6 85.0 77.85 83.65 77.15 82.3 76.45 82.3 77.55 82.3 77.8 82.65 78.5 83.2 79.35 83.7 79.35 M66.0 63.8 L66.25 63.75 66.4 63.6 Q67.1 62.95 68.5 63.0 L68.65 63.0 69.35 63.05 70.35 63.75 71.8 64.45 72.55 64.95 73.25 65.6 74.15 65.9 75.25 66.55 76.25 67.75 77.25 69.1 Q77.7 69.7 77.75 70.45 L77.75 71.9 77.4 73.35 77.2 74.3 77.1 74.4 77.1 74.5 77.1 75.0 77.1 75.15 77.2 75.35 77.35 75.7 74.3 76.45 Q72.25 77.15 71.3 77.85 L70.55 77.15 68.4 75.15 Q65.3 72.0 65.4 68.65 65.5 67.35 65.75 66.7 L66.05 64.95 66.0 63.8 M70.45 78.75 L70.25 78.95 70.35 78.75 70.45 78.75 M67.45 81.65 L67.45 81.75 67.15 81.65 67.45 81.65" fill="#8a6b53" fill-rule="evenodd" stroke="none"/>
      <path d="M85.7 3.0 L85.2 1.9 84.1 0.7 83.55 0.2 82.4 -1.35 80.95 -3.0 80.35 -3.5 80.45 -3.55 81.0 -3.75 81.1 -3.8 81.2 -3.8 82.05 -2.95 83.75 -0.75 Q86.15 2.4 87.5 2.55 89.45 2.55 90.3 1.4 91.15 -0.25 91.95 -1.2 L92.55 -2.3 92.8 -3.4 Q92.8 -4.0 93.25 -4.3 L94.25 -4.0 94.35 -4.0 94.0 -3.65 Q93.55 -3.15 93.25 -2.35 L92.75 -1.1 91.3 1.35 90.25 3.0 86.15 2.85 85.7 3.0 M76.6 2.3 L78.9 0.9 Q78.45 2.05 78.3 3.1 L78.2 4.9 Q76.6 5.8 76.3 6.05 L76.15 5.25 Q76.3 3.8 76.6 2.3 M98.15 1.55 L98.35 1.9 98.9 5.1 99.05 7.25 Q98.5 7.1 98.05 6.25 L97.75 5.8 97.75 5.4 97.6 3.15 96.95 0.7 97.8 1.3 98.15 1.55 M101.4 14.6 L98.85 14.95 99.0 14.65 99.05 13.15 99.0 11.9 99.0 10.9 99.7 9.6 99.95 7.65 100.45 7.7 101.15 7.65 101.05 8.2 Q101.15 10.1 101.4 11.25 L101.4 13.5 101.4 14.6 M76.7 9.9 L76.7 9.95 Q76.6 11.05 77.1 13.05 L77.35 13.95 77.55 14.45 75.4 14.3 74.8 14.15 74.6 14.1 74.45 13.05 74.35 10.85 74.45 9.05 74.45 7.2 75.4 7.35 75.55 7.35 75.8 8.3 Q75.95 8.95 76.6 9.9 L76.7 9.9 M82.45 42.3 L82.45 42.4 83.0 43.25 83.85 44.1 85.15 45.9 85.9 46.85 86.75 47.7 87.6 48.25 Q88.55 48.8 89.45 48.9 90.25 48.9 92.95 46.25 95.65 43.55 95.65 43.0 L95.65 42.95 96.2 42.6 96.6 42.3 98.7 40.7 99.35 40.15 99.85 41.8 100.15 42.6 100.65 43.35 Q101.25 43.85 101.65 44.3 L101.6 44.35 101.0 45.4 99.95 46.25 Q99.8 46.25 99.7 46.35 L99.05 46.75 99.0 46.75 98.55 45.7 98.35 45.2 98.05 44.45 97.55 43.95 97.05 43.55 94.15 47.55 93.05 48.95 91.5 49.35 88.4 49.55 85.0 49.15 83.5 47.15 81.6 45.05 80.1 43.2 79.65 44.3 79.4 45.65 78.65 46.8 78.65 46.85 78.55 46.8 77.95 46.25 77.55 45.85 77.2 45.3 77.05 44.9 76.9 44.55 76.7 44.2 76.6 44.2 76.3 43.75 76.7 43.45 77.2 42.85 77.55 42.1 78.2 40.3 78.35 39.05 80.85 41.15 82.45 42.3 M103.9 39.2 L105.2 39.35 105.35 39.4 105.4 39.4 104.65 40.15 103.2 41.45 102.85 41.05 103.55 39.75 103.9 39.2 M108.1 39.75 L108.55 39.85 109.7 40.1 109.9 40.1 109.2 41.4 Q108.1 42.9 106.35 43.4 L106.35 43.35 106.2 43.4 106.15 43.45 105.65 43.55 105.2 43.6 105.2 43.55 106.1 42.15 107.0 40.95 107.55 40.3 108.1 39.75 M105.5 36.5 L106.5 34.9 107.65 32.75 107.95 30.75 108.4 31.8 108.8 33.55 Q108.75 34.5 108.1 35.3 107.15 36.45 105.5 36.5 M116.05 65.25 L116.25 64.15 Q116.65 63.45 118.2 63.4 L123.1 63.65 123.25 64.25 123.3 64.85 123.35 65.4 Q123.3 66.2 122.15 66.8 L118.55 67.35 Q116.7 67.3 116.2 66.3 L116.05 65.25 M71.05 62.65 L70.95 62.55 69.85 62.15 69.8 62.15 69.1 61.8 68.05 61.8 Q68.4 61.5 68.9 61.25 L71.1 59.6 71.1 59.65 71.25 59.8 71.45 60.15 71.55 60.25 72.75 61.5 72.0 62.05 71.05 62.65 M104.25 79.65 L104.3 79.65 104.4 79.75 104.5 79.8 105.7 80.75 105.7 80.8 105.55 81.05 103.7 83.3 99.8 87.85 95.8 92.65 93.2 96.0 91.75 94.55 Q92.2 93.2 95.0 89.85 97.75 86.55 98.7 85.9 L100.9 83.55 Q102.0 82.15 102.85 81.55 L103.75 80.55 104.25 79.65 M83.15 93.85 L82.8 94.2 82.45 94.55 82.4 94.7 82.3 94.85 82.3 94.95 82.1 95.0 81.55 95.5 Q81.4 95.35 81.25 95.3 L81.2 95.15 78.85 91.45 78.8 91.4 75.75 87.2 74.0 84.8 72.4 82.6 71.8 81.4 71.3 80.2 71.05 79.5 71.45 79.15 71.75 79.0 73.25 78.2 75.15 81.15 78.05 86.15 81.0 90.15 Q82.7 92.5 83.15 93.85 M111.8 87.1 L112.45 86.0 Q112.85 85.6 114.25 84.9 L114.9 84.2 114.95 84.2 115.15 84.45 115.25 84.55 115.3 84.65 114.8 85.3 Q113.75 85.75 113.35 86.1 113.15 86.15 112.85 86.9 L112.25 87.6 111.8 87.1 M105.85 91.45 L105.95 91.4 106.15 90.15 Q106.35 89.75 107.45 89.3 108.3 88.9 108.45 88.5 L108.75 88.9 109.25 89.65 108.75 90.0 107.9 90.15 107.0 90.5 106.6 91.4 106.2 91.8 105.85 91.45 M61.2 30.45 L61.2 30.15 Q61.2 28.85 61.9 25.25 L62.95 21.4 63.0 21.75 63.15 21.95 62.95 22.4 62.85 23.7 Q62.7 24.4 62.7 26.2 L62.35 28.55 61.9 30.75 61.2 30.45 M61.15 19.9 L61.15 19.95 61.25 20.1 61.55 20.3 61.5 20.8 61.35 21.4 61.2 22.6 60.8 23.9 60.05 26.45 Q59.6 27.5 59.6 28.55 L58.95 28.2 58.8 28.05 58.4 27.9 58.4 27.65 59.15 25.35 59.55 24.35 59.9 23.35 60.7 20.8 61.15 19.9 M57.55 39.85 L57.9 40.1 58.0 40.85 58.8 41.4 58.95 41.5 Q58.5 41.65 58.5 42.45 L58.5 43.7 58.45 45.15 58.45 46.25 58.4 48.6 58.25 50.0 58.25 50.6 58.0 50.4 57.05 49.9 57.0 49.5 57.0 48.65 57.05 46.65 57.05 45.2 57.2 41.8 57.55 39.85 M60.45 43.1 L60.7 43.2 61.15 43.25 61.25 43.35 61.15 44.05 61.2 45.5 61.15 47.15 61.15 48.3 61.05 51.05 60.8 52.65 60.9 52.8 60.4 52.9 60.25 52.9 60.25 51.85 60.3 47.6 60.4 46.35 60.45 44.65 60.45 43.1 M72.35 29.65 L71.65 30.55 70.7 31.65 69.75 32.75 69.15 33.35 69.15 33.25 69.75 31.5 70.45 30.05 72.35 29.65 M68.75 41.55 L68.65 41.55 68.5 41.4 68.3 41.05 67.65 39.6 68.3 39.6 72.0 39.35 72.0 39.25 72.2 39.25 72.2 39.35 69.35 42.3 69.1 42.1 68.9 41.8 68.9 41.65 68.75 41.55 M63.65 44.9 L63.65 45.35 63.6 45.4 Q63.45 45.7 63.45 46.15 L63.6 47.25 63.65 48.65 63.7 51.15 63.6 54.05 63.6 54.6 62.6 54.55 62.6 54.45 62.65 52.75 Q62.5 51.5 62.6 49.35 L62.85 44.9 63.6 44.9 63.65 44.9 M66.55 56.5 L66.5 56.4 66.2 56.35 66.0 56.0 65.75 54.9 65.6 52.6 65.55 49.9 65.5 48.1 65.55 46.35 66.35 46.35 66.6 47.25 66.6 47.55 66.75 49.9 66.95 52.65 67.1 53.9 67.3 55.1 67.1 56.3 66.55 56.5 M69.15 57.8 Q69.0 57.3 69.1 56.55 L69.15 54.05 Q69.0 52.2 69.1 49.05 L69.15 47.8 Q69.15 47.7 69.3 47.7 L69.75 47.7 70.1 48.1 70.2 48.9 70.25 50.4 70.35 53.25 70.35 56.55 70.35 57.95 69.95 57.95 69.15 57.8 M72.15 49.05 L73.05 49.15 73.2 49.15 73.45 52.4 74.0 58.3 73.05 58.7 72.7 58.9 72.7 58.6 72.7 57.3 72.5 56.0 72.35 54.75 72.05 52.3 72.15 49.75 72.15 49.05 M59.25 62.3 Q60.4 62.8 60.4 64.0 60.3 65.05 58.45 65.85 56.65 66.65 55.0 66.55 53.15 66.55 52.6 64.95 L52.45 63.95 52.45 63.6 Q52.45 62.95 53.75 62.5 55.0 62.0 56.45 61.95 L59.25 62.3" fill="#8e6c24" fill-rule="evenodd" stroke="none"/>
      <path d="M85.7 3.0 L86.15 2.85 90.25 3.0 90.15 3.15 Q89.5 3.95 88.2 3.85 86.4 3.8 85.7 3.1 L85.7 3.0 M76.6 2.3 L76.85 1.2 Q77.85 -2.8 79.4 -2.8 L80.15 -2.3 80.0 -2.05 Q79.0 -0.55 78.9 0.85 L78.9 0.9 76.6 2.3 M95.15 -3.2 L95.95 -3.4 96.0 -3.4 96.2 -3.4 Q96.55 -3.05 97.3 -0.75 L98.15 1.55 97.8 1.3 96.95 0.7 96.9 0.7 96.45 -0.5 96.0 -1.6 95.3 -2.95 95.2 -2.95 95.2 -3.0 95.15 -3.2 M98.85 14.95 L98.75 14.95 98.0 15.05 97.9 15.05 Q96.8 15.2 96.0 15.95 95.3 16.65 95.3 17.4 L95.0 17.75 94.65 18.35 94.35 18.3 94.25 18.3 94.25 17.6 94.15 17.35 94.25 16.9 94.35 16.75 94.35 16.45 Q94.4 14.95 94.85 14.35 L97.8 11.95 98.1 11.8 98.25 11.7 98.85 11.05 99.0 10.9 99.0 11.9 99.05 13.15 99.0 14.65 98.85 14.95 M82.3 17.65 L82.2 17.55 82.1 17.15 81.9 16.05 81.3 15.6 81.0 15.4 Q80.1 14.75 78.05 14.5 L77.55 14.45 77.35 13.95 77.1 13.05 Q76.6 11.05 76.7 9.95 L76.7 9.9 78.3 11.55 82.1 14.65 Q83.5 15.95 83.35 17.85 L83.2 18.5 Q82.8 18.35 82.65 18.2 L82.3 17.65 M95.65 42.95 L95.65 43.0 Q95.65 43.55 92.95 46.25 90.25 48.9 89.45 48.9 88.55 48.8 87.6 48.25 L86.75 47.7 85.9 46.85 85.15 45.9 83.85 44.1 83.0 43.25 82.45 42.4 82.45 42.3 84.85 43.85 Q87.5 45.4 88.45 45.5 L88.55 45.55 89.35 45.7 90.0 45.5 Q91.85 45.3 95.65 42.95 M103.8 38.05 L103.8 38.15 101.05 37.75 102.3 36.45 Q102.85 37.1 103.9 37.4 L103.8 38.05 M112.5 62.15 L112.4 62.2 111.9 62.65 Q111.05 62.05 110.45 62.2 L110.05 62.3 110.0 62.35 109.85 62.35 109.1 61.85 107.65 60.55 106.65 59.8 106.7 59.75 107.45 58.7 107.45 58.6 108.1 58.7 110.45 58.35 110.8 57.8 110.95 57.45 111.8 57.3 112.75 57.3 Q113.0 57.15 113.45 56.9 L113.9 56.55 Q114.4 56.05 115.15 56.0 L116.2 55.65 116.85 54.95 116.7 55.7 115.85 57.35 114.8 58.95 112.45 62.05 112.5 62.15 M99.85 70.8 L99.35 72.2 96.2 73.45 96.15 73.3 96.0 73.2 95.95 73.55 95.85 73.55 95.6 73.65 95.35 73.7 94.35 74.0 94.25 74.0 94.25 73.95 94.15 74.0 94.0 74.0 93.7 74.05 93.05 74.25 92.9 74.3 93.55 73.2 93.65 73.2 93.65 73.15 93.75 72.95 96.65 72.0 99.6 70.8 99.85 70.8 M112.85 63.3 L112.95 63.4 112.95 63.45 113.5 63.6 Q114.7 63.6 118.3 62.15 121.65 60.7 123.15 59.65 125.2 58.45 126.7 57.1 L128.95 54.85 129.8 55.4 131.1 56.65 131.85 57.8 132.65 58.6 131.85 59.45 130.65 61.35 127.0 64.75 124.95 66.4 123.0 68.0 120.0 69.75 119.05 70.25 Q118.4 69.2 116.75 67.95 114.4 66.1 113.9 64.95 L112.75 63.5 112.8 63.4 112.85 63.3 M116.05 65.25 L116.2 66.3 Q116.7 67.3 118.55 67.35 L122.15 66.8 Q123.3 66.2 123.35 65.4 L123.3 64.85 123.25 64.25 123.1 63.65 118.2 63.4 Q116.65 63.45 116.25 64.15 L116.05 65.25 M81.2 72.25 L81.6 73.55 81.7 73.55 81.7 73.65 81.45 73.65 81.4 73.65 81.25 73.55 80.85 73.55 80.85 73.45 80.75 73.45 79.05 72.95 78.9 72.85 78.9 72.7 78.8 72.85 78.7 72.8 78.8 72.2 78.8 72.0 78.8 71.6 79.4 71.85 81.2 72.25 M68.05 61.8 Q67.05 61.95 65.4 62.8 L65.4 62.7 64.65 61.8 64.05 61.05 Q62.65 59.2 62.15 57.95 L60.3 53.95 60.3 53.9 60.8 53.9 60.9 54.4 Q60.9 54.75 61.05 54.9 61.4 55.55 63.65 55.55 L63.85 56.0 63.95 56.55 Q64.4 57.3 65.9 57.35 L66.6 57.3 67.1 57.25 67.5 57.75 67.5 57.8 68.2 58.55 68.8 58.7 68.9 58.7 70.35 59.25 70.6 59.25 70.8 59.25 70.95 59.45 71.05 59.6 71.1 59.6 68.9 61.25 Q68.4 61.5 68.05 61.8 M105.7 80.8 L105.85 80.95 106.7 82.35 Q105.95 83.65 104.2 85.75 L100.65 89.95 Q99.05 91.55 96.95 94.3 L94.35 97.55 94.25 97.45 93.7 96.6 93.2 96.0 95.8 92.65 99.8 87.85 103.7 83.3 105.55 81.05 105.7 80.8 M81.45 95.65 L81.3 95.8 80.35 97.4 80.3 97.4 79.95 97.45 Q78.9 96.65 77.25 93.75 L74.2 88.65 71.05 84.35 69.15 81.25 69.3 81.1 70.2 80.2 70.25 80.2 71.05 79.5 71.3 80.2 71.8 81.4 72.4 82.6 74.0 84.8 75.75 87.2 78.8 91.4 78.85 91.45 81.2 95.15 81.25 95.3 81.45 95.65 M111.8 87.1 L110.95 86.1 110.95 86.0 110.85 85.95 Q110.25 85.3 109.55 85.1 L109.2 84.9 109.7 84.7 111.2 84.55 112.25 84.35 113.35 83.7 114.05 83.1 114.6 83.85 114.9 84.15 114.9 84.2 114.25 84.9 Q112.85 85.6 112.45 86.0 L111.8 87.1 M108.45 88.5 Q108.3 88.9 107.45 89.3 106.35 89.75 106.15 90.15 L105.95 91.4 105.85 91.45 104.05 89.65 106.1 87.2 106.6 86.7 107.15 87.2 108.45 88.5 M73.85 38.05 L73.85 37.4 Q75.05 37.1 75.75 36.15 L77.05 37.75 73.85 38.15 73.85 38.05 M61.7 60.75 L62.85 60.75 63.95 62.15 64.75 63.4 64.3 64.0 63.3 65.4 61.55 66.7 60.1 67.75 Q59.15 68.1 58.8 69.0 L58.4 70.15 57.05 69.6 54.6 68.25 51.75 66.7 49.3 65.45 Q48.6 65.25 46.45 63.15 46.3 63.0 46.15 62.95 L45.0 61.85 43.25 60.25 43.25 60.15 43.1 59.65 42.65 58.8 Q42.1 57.8 42.1 57.0 42.15 55.3 43.1 54.05 43.65 53.15 46.35 50.8 L46.35 50.95 Q46.5 52.05 48.45 53.65 L51.15 55.8 52.6 57.0 54.3 58.45 Q55.0 59.2 56.7 59.8 59.0 60.7 61.7 60.75 M59.25 62.3 L56.45 61.95 Q55.0 62.0 53.75 62.5 52.45 62.95 52.45 63.6 L52.45 63.95 52.6 64.95 Q53.15 66.55 55.0 66.55 56.65 66.65 58.45 65.85 60.3 65.05 60.4 64.0 60.4 62.8 59.25 62.3" fill="#644b1a" fill-rule="evenodd" stroke="none"/>
      <path d="M91.1 8.35 L91.1 8.8 91.1 9.05 91.1 9.25 86.05 9.05 85.95 8.45 85.95 8.05 86.6 8.05 88.05 8.05 91.0 8.35 91.1 8.35 M90.35 13.0 L90.25 13.0 89.5 13.0 87.75 13.0 86.3 13.0 86.25 12.85 86.15 12.4 86.15 12.35 86.15 11.8 88.7 11.85 90.95 11.95 90.95 12.05 90.85 12.85 90.85 12.9 90.35 13.0 M86.65 15.3 L88.85 15.4 90.4 15.45 90.4 16.15 86.6 16.05 86.65 15.3 M65.3 9.75 L65.25 9.75 65.25 9.65 65.3 9.65 65.3 9.75 M97.15 54.25 Q98.25 53.25 99.05 53.25 L99.1 53.3 99.2 53.6 99.2 53.75 96.1 57.8 94.0 59.9 92.55 61.0 92.25 61.25 91.95 60.15 91.65 59.65 94.75 56.8 97.15 54.25 M80.0 53.65 L80.1 53.75 80.35 54.45 80.6 54.7 81.7 56.3 83.35 58.6 84.45 60.0 83.65 60.9 83.65 60.95 83.6 61.0 83.5 61.05 82.9 60.4 81.9 59.4 80.45 57.25 80.15 56.75 79.9 56.05 79.75 55.7 79.15 54.7 79.0 54.35 79.0 54.25 79.0 54.2 Q79.0 52.65 80.0 53.65 M89.9 59.45 L89.5 59.75 88.95 60.05 88.8 60.0 87.9 59.9 Q87.15 60.0 86.6 60.35 L86.15 60.15 86.05 59.65 86.15 59.65 Q88.1 58.2 89.35 59.05 L89.9 59.45 M92.95 72.2 Q92.1 72.0 92.1 70.25 L92.3 67.85 91.75 64.75 92.2 63.95 92.2 63.5 92.25 63.3 92.3 63.25 92.45 63.6 93.25 65.4 Q93.5 65.75 93.55 67.0 L93.7 68.35 93.65 68.95 93.65 69.45 92.95 72.2" fill="#d0b591" fill-rule="evenodd" stroke="none"/>
      <path d="M83.2 24.5 L83.15 24.65 82.2 24.85 Q81.1 24.8 80.75 24.25 L80.75 24.0 80.6 23.65 Q80.65 22.9 81.3 22.7 L81.95 22.6 Q82.7 22.7 83.05 23.2 L83.2 24.0 83.2 24.5 M95.3 24.3 L95.2 23.9 Q95.2 23.3 95.85 23.05 L96.55 22.85 97.1 22.85 Q97.8 23.05 97.75 23.85 L97.75 24.3 97.6 24.6 96.3 24.85 Q95.6 24.8 95.3 24.35 L95.3 24.3" fill="#ffffff" fill-rule="evenodd" stroke="none"/>
      <path d="M85.1 -4.6 L89.35 -4.65 89.85 -4.65 90.3 -4.65 90.3 -4.45 Q90.3 -4.0 89.85 -3.9 L85.8 -3.75 Q85.2 -3.75 85.1 -4.0 L85.0 -4.35 85.1 -4.6 M84.35 12.9 L84.8 13.3 84.8 13.4 84.8 13.5 85.3 13.6 85.35 13.6 85.6 14.6 85.6 14.65 85.65 15.2 85.55 15.3 Q85.0 15.75 84.6 15.7 L83.85 15.45 83.75 15.3 83.5 14.75 83.5 14.65 83.4 14.5 83.35 14.45 83.35 14.35 83.55 13.75 Q83.85 13.05 84.25 12.9 L84.35 12.9 M94.4 13.75 L94.0 14.15 Q93.7 14.6 93.55 15.4 L92.75 15.45 Q92.2 15.45 91.85 14.95 L91.5 14.25 91.6 13.75 92.05 13.4 92.05 13.35 92.2 13.3 92.8 12.7 93.05 12.7 94.0 13.0 Q94.4 13.35 94.4 13.75 M107.45 4.9 L108.55 4.0 109.2 6.2 110.2 8.9 110.2 8.95 Q109.6 8.95 109.0 9.4 108.45 8.8 107.9 7.0 L107.45 4.9 M66.4 10.7 L66.2 10.5 66.0 10.35 65.3 9.75 65.3 9.65 66.05 7.7 66.7 4.6 67.35 5.05 Q67.65 5.1 67.95 5.3 L68.05 5.4 67.3 8.55 66.4 10.7 M100.45 39.95 L100.3 39.2 100.5 38.65 100.5 38.55 100.9 38.7 101.4 38.75 101.4 39.2 101.4 39.25 101.5 39.6 101.4 39.75 100.9 40.1 100.45 39.95 M103.1 30.4 L103.25 30.3 103.4 30.3 103.1 30.9 Q102.85 31.65 102.75 32.35 102.75 32.9 103.1 34.0 L102.95 34.2 103.1 34.2 103.25 34.5 103.45 35.0 103.8 35.5 104.3 35.95 104.85 36.35 104.85 36.5 Q102.85 36.45 102.3 34.35 L102.15 34.0 102.0 32.85 102.0 32.0 102.1 31.4 102.85 30.45 103.05 30.45 103.1 30.4 M98.85 66.35 L98.9 66.5 98.9 66.65 99.05 67.05 98.1 67.95 Q96.9 68.75 95.5 68.75 L94.55 68.6 94.55 68.35 94.55 66.85 95.3 66.9 95.65 66.9 95.8 66.85 96.15 66.85 96.3 66.85 96.35 66.85 96.55 66.8 97.1 66.65 97.15 66.65 97.65 66.4 97.8 66.4 97.9 66.4 98.85 66.35 M80.85 66.9 L81.0 67.0 80.75 69.1 80.25 68.8 79.5 68.3 79.05 68.15 78.5 67.95 77.0 66.8 77.0 66.7 77.35 65.9 77.4 65.85 77.55 65.6 77.6 65.6 79.3 66.55 80.75 66.9 80.85 66.9 M101.0 78.35 L101.05 78.4 100.15 79.65 99.1 80.45 98.15 81.3 97.15 82.15 96.2 83.1 94.5 85.1 Q88.95 90.15 87.9 92.1 L87.75 91.95 86.8 91.3 89.5 88.65 93.9 84.9 94.65 84.05 95.35 83.2 96.15 82.5 98.75 80.2 101.0 78.35 M76.6 76.9 L77.6 76.6 Q77.95 77.5 79.15 78.75 L81.8 81.55 83.05 82.9 84.0 84.35 84.85 86.0 Q85.6 87.2 86.05 87.2 L86.15 87.2 86.45 87.7 87.5 88.9 86.05 90.35 Q85.9 89.05 84.35 87.2 L81.45 83.65 78.8 79.6 76.6 76.9 M117.5 88.15 L117.6 88.8 117.6 88.9 117.3 90.3 116.2 90.5 Q115.25 90.5 115.15 90.15 L115.2 89.8 Q115.2 89.25 115.65 88.65 116.2 87.95 116.95 87.95 L117.5 88.15 M108.4 93.85 L108.3 93.7 108.3 93.2 108.4 92.5 Q108.4 92.15 108.8 91.75 109.5 91.1 110.1 91.55 L110.55 91.9 110.55 92.15 110.55 92.4 110.25 93.25 110.1 93.4 110.05 93.5 109.85 93.75 109.75 93.85 109.6 93.95 109.35 94.0 108.9 94.0 108.55 93.95 108.4 93.85 M72.5 36.45 L73.7 35.8 74.5 35.25 74.95 34.5 75.1 33.7 75.25 33.2 75.25 33.1 75.3 32.95 75.6 31.8 Q75.75 31.4 75.55 30.95 L75.95 31.45 75.95 32.2 75.95 32.95 75.6 34.4 Q74.9 36.5 72.85 36.45 L72.5 36.45 M76.05 39.0 L76.7 38.85 76.7 39.35 76.75 39.0 76.85 38.85 77.0 38.85 77.1 38.9 77.2 38.75 77.4 38.7 77.4 38.75 77.5 38.75 77.4 39.0 77.4 39.05 77.25 39.5 77.25 39.85 76.75 40.35 76.4 40.15 76.3 40.0 76.15 40.1 75.95 40.1 75.75 39.95 75.75 39.75 76.05 39.0" fill="#efe0c2" fill-rule="evenodd" stroke="none"/>
      <path d="M81.6 -3.95 L81.95 -4.0 82.4 -4.15 83.35 -4.35 83.4 -4.35 85.1 -4.6 85.0 -4.35 85.1 -4.0 Q85.2 -3.75 85.8 -3.75 L89.85 -3.9 Q90.3 -4.0 90.3 -4.45 L90.3 -4.65 91.0 -4.6 91.45 -4.6 92.6 -4.45 91.25 -3.2 Q89.5 -2.05 88.2 -2.1 L86.3 -2.3 84.35 -2.55 83.85 -2.7 83.4 -2.7 Q82.65 -2.7 82.1 -3.2 L81.6 -3.95 M83.9 12.5 L84.15 12.7 84.35 12.9 84.25 12.9 Q83.85 13.05 83.55 13.75 L83.35 14.35 83.35 14.25 83.2 14.25 Q82.8 13.75 82.05 13.2 L81.9 13.05 81.75 13.0 81.7 12.85 Q81.75 12.2 82.75 12.3 L83.9 12.5 M85.65 15.2 L85.65 16.85 85.65 17.05 84.65 17.35 84.35 17.25 84.25 16.55 83.85 15.45 84.6 15.7 Q85.0 15.75 85.55 15.3 L85.65 15.2 M95.7 12.5 L95.45 12.8 94.4 13.75 Q94.4 13.35 94.0 13.0 L93.05 12.7 92.8 12.7 94.2 11.55 Q95.1 11.7 95.45 12.15 L95.7 12.5 M93.55 15.4 L93.4 16.4 93.4 17.05 91.85 17.15 91.35 17.15 91.45 16.45 91.5 14.25 91.85 14.95 Q92.2 15.45 92.75 15.45 L93.55 15.4 M107.45 4.9 L107.9 7.0 Q108.45 8.8 109.0 9.4 L108.9 9.5 107.3 10.95 107.15 11.1 106.85 10.7 106.0 9.0 105.35 6.05 105.7 5.8 107.45 4.9 M68.15 11.9 L67.45 11.4 66.4 10.7 67.3 8.55 68.05 5.4 69.5 6.0 69.6 6.0 69.65 6.35 69.25 8.0 68.8 9.5 68.5 11.05 68.15 11.9 M105.05 43.6 L104.15 43.6 103.95 43.6 103.3 43.6 103.1 43.6 102.85 43.45 102.75 43.55 102.35 43.4 102.3 43.4 102.15 43.35 102.0 43.25 102.0 43.35 101.85 43.25 101.75 43.1 101.6 43.0 101.5 43.0 101.5 42.95 Q101.05 42.45 100.45 40.1 L100.45 39.95 100.9 40.1 101.4 39.75 101.5 39.6 102.0 40.85 102.45 41.65 103.05 42.5 Q103.4 43.1 104.3 43.35 L105.05 43.6 M103.4 30.3 Q104.75 29.95 105.25 31.0 L105.55 32.45 105.15 33.55 Q104.55 34.3 103.4 34.3 L103.1 34.2 102.95 34.2 103.1 34.0 Q102.75 32.9 102.75 32.35 102.85 31.65 103.1 30.9 L103.4 30.3 M98.7 65.95 L98.85 66.35 97.9 66.4 98.7 65.95 M99.05 67.05 L99.45 68.75 100.15 70.15 99.85 70.8 99.6 70.8 96.65 72.0 93.75 72.95 94.4 70.75 94.55 68.6 95.5 68.75 Q96.9 68.75 98.1 67.95 L99.05 67.05 M80.75 69.1 L80.75 69.2 Q80.65 70.8 81.2 72.25 L79.4 71.85 78.8 71.6 Q78.8 70.3 78.35 69.2 L76.9 66.85 77.0 66.8 78.5 67.95 79.05 68.15 79.5 68.3 80.25 68.8 80.75 69.1 M81.7 73.7 L81.45 73.65 81.7 73.65 81.7 73.7 M87.9 92.1 Q88.95 90.15 94.5 85.1 L96.2 83.1 97.15 82.15 98.15 81.3 99.1 80.45 100.15 79.65 101.05 78.4 101.05 78.35 101.15 78.35 102.75 78.85 102.85 78.95 101.5 80.6 99.55 82.5 97.55 84.3 96.6 85.3 95.85 86.25 92.2 90.0 90.25 91.8 89.55 92.15 Q88.95 92.55 88.85 92.85 L88.1 92.3 87.9 92.1 M76.6 76.9 L78.8 79.6 81.45 83.65 84.35 87.2 Q85.9 89.05 86.05 90.35 L85.95 90.5 85.2 91.3 85.15 91.3 85.15 91.4 85.1 91.45 84.95 91.7 83.2 89.35 79.95 84.7 77.0 80.95 Q75.3 78.75 75.25 77.4 L76.5 76.95 76.6 76.9 M116.95 86.75 L116.95 86.85 117.0 86.9 117.5 88.15 116.95 87.95 Q116.2 87.95 115.65 88.65 115.2 89.25 115.2 89.8 L115.15 90.15 Q115.25 90.5 116.2 90.5 L117.3 90.3 Q116.75 91.2 115.65 91.2 L114.8 90.95 114.3 90.35 114.25 90.1 114.2 88.9 114.25 87.95 Q114.45 87.6 115.75 87.05 116.5 86.6 116.95 86.75 M110.55 91.9 L110.1 91.55 Q109.5 91.1 108.8 91.75 108.4 92.15 108.4 92.5 L108.3 93.2 108.3 93.7 108.4 93.85 107.8 93.35 Q107.45 92.85 107.45 92.05 107.55 90.8 109.1 90.7 109.7 90.5 110.0 90.7 L110.2 91.05 110.35 91.3 110.45 91.55 110.55 91.9 M75.25 33.2 Q74.7 34.0 73.8 34.0 72.85 33.9 72.4 32.85 L72.25 31.75 Q72.25 31.3 72.4 30.95 72.75 30.4 73.5 30.2 L74.9 30.3 75.25 30.55 75.4 30.75 75.55 30.95 Q75.75 31.4 75.6 31.8 L75.3 32.95 75.25 33.1 75.25 33.2 M77.0 38.85 L77.2 38.75 77.1 38.9 77.0 38.85 M77.25 39.85 L77.1 40.2 75.9 43.1 75.8 43.1 75.55 43.35 75.25 43.4 74.6 43.55 74.45 43.55 74.2 43.6 73.2 43.6 71.55 43.35 73.65 42.6 74.9 41.95 75.45 41.3 75.75 39.95 75.95 40.1 76.15 40.1 76.3 40.0 76.4 40.15 76.75 40.35 77.25 39.85" fill="#ddbd0b" fill-rule="evenodd" stroke="none"/>
      <path d="M79.15 4.6 L79.2 3.65 79.3 2.95 79.55 1.65 80.15 -0.1 80.6 -1.2 80.85 -1.7 81.4 -1.0 82.1 0.05 82.7 0.7 83.2 1.3 83.85 1.9 83.85 2.0 84.0 2.05 84.0 2.15 84.35 2.55 84.45 2.65 84.6 3.15 84.65 3.25 84.6 3.35 82.3 3.75 80.0 4.3 79.15 4.6 M92.1 3.0 L92.1 2.55 92.1 2.0 92.05 1.85 92.6 0.85 94.0 -1.4 94.25 -2.45 94.65 -1.75 95.6 0.05 Q96.55 1.9 96.75 3.75 L96.8 5.25 96.35 5.05 95.1 4.2 Q93.25 3.3 92.75 3.25 L92.1 3.0 M89.35 62.55 L89.3 62.7 Q88.85 63.45 87.5 63.45 L86.55 63.15 86.05 62.95 Q86.05 61.7 87.15 61.2 L87.35 61.45 87.6 61.85 87.25 61.85 87.05 62.3 87.15 62.65 87.75 62.85 Q87.9 62.95 88.2 62.65 L88.4 62.3 89.05 62.5 89.35 62.55 M84.85 67.65 L85.2 67.5 Q85.8 67.35 88.0 68.35 L90.3 70.15 90.5 70.3 90.25 71.4 Q89.45 74.05 87.4 74.0 85.8 74.0 85.1 72.0 84.65 70.65 84.65 69.45 L84.85 67.65 M63.5 90.7 L62.25 91.55 62.0 91.75 60.6 89.0 Q59.75 87.35 59.55 86.35 59.35 84.7 58.65 83.5 L57.75 82.2 58.0 82.2 58.25 82.2 59.15 81.85 Q59.95 81.3 60.2 81.25 L62.2 80.75 62.6 80.55 63.15 81.3 Q64.1 82.35 66.05 82.6 L66.95 82.85 68.9 85.4 70.7 87.6 68.65 88.05 68.15 86.9 65.65 84.2 Q63.3 82.05 62.65 83.0 62.35 83.3 62.35 85.0 62.25 86.55 63.0 89.05 L63.5 90.7" fill="#006262" fill-rule="evenodd" stroke="none"/>
      <path d="M85.15 8.65 L85.15 10.9 85.1 12.3 85.1 12.35 84.95 12.15 84.65 11.85 84.65 11.8 83.85 10.95 83.55 10.85 83.35 10.6 83.35 10.5 83.05 10.35 82.75 10.0 82.7 10.0 83.0 9.65 83.55 9.3 Q83.75 9.15 84.25 8.9 L85.15 8.65 M94.25 10.25 L92.9 11.45 91.65 12.55 91.85 11.85 91.95 9.75 91.95 9.6 92.05 8.95 92.05 8.55 92.25 8.55 Q92.95 8.55 93.75 9.45 L94.25 10.25 M87.6 61.85 Q87.9 62.15 88.4 62.3 L88.2 62.65 Q87.9 62.95 87.75 62.85 L87.15 62.65 87.05 62.3 87.25 61.85 87.6 61.85 M90.5 67.5 L90.4 67.95 Q90.3 68.45 89.5 68.45 88.55 68.35 88.2 67.65 L87.9 67.05 Q88.0 66.65 88.4 66.3 88.4 66.2 88.55 66.2 L89.85 65.9 90.05 66.05 90.4 67.05 90.5 67.5" fill="#00bfbf" fill-rule="evenodd" stroke="none"/>
      <path d="M83.2 24.5 L83.2 24.0 83.05 23.2 83.7 23.4 Q85.2 24.05 85.7 24.4 L85.55 24.6 85.0 25.1 84.85 25.15 84.45 24.95 83.2 24.5 M81.3 22.7 Q80.65 22.9 80.6 23.65 L80.75 24.0 80.25 24.0 79.65 24.15 79.05 24.3 78.45 23.5 77.95 22.85 78.35 22.6 80.65 22.85 80.1 22.6 81.3 22.7 M95.85 23.05 Q95.2 23.3 95.2 23.9 L95.3 24.3 Q94.25 24.4 93.55 24.95 L93.25 24.8 92.3 24.3 Q92.55 23.5 95.85 23.05 M97.75 24.3 L97.75 23.85 Q97.8 23.05 97.1 22.85 L100.15 22.9 99.7 23.35 99.0 24.5 98.4 24.4 97.75 24.3" fill="#666666" fill-rule="evenodd" stroke="none"/>
      <path d="M80.75 24.0 L80.75 24.25 Q81.1 24.8 82.2 24.85 L83.15 24.65 83.2 24.5 84.45 24.95 84.85 25.15 Q83.9 25.75 82.05 25.7 80.6 25.6 79.4 24.75 L79.05 24.3 79.65 24.15 80.25 24.0 80.75 24.0 M95.3 24.3 L95.3 24.35 Q95.6 24.8 96.3 24.85 L97.6 24.6 97.75 24.3 98.4 24.4 99.0 24.5 97.45 25.75 96.1 25.8 Q95.3 25.75 93.55 24.95 94.25 24.4 95.3 24.3 M87.0 86.55 L86.4 86.1 86.05 85.4 87.75 85.5 88.2 85.45 89.15 85.6 91.35 85.5 88.95 87.7 88.25 88.35 87.35 86.9 Q87.05 86.9 87.0 86.6 L87.0 86.55 M110.55 98.45 L111.05 97.95 113.5 95.35 113.8 95.0 114.3 99.15 114.55 100.45 114.9 102.55 114.3 102.25 110.85 100.95 109.35 100.5 107.95 100.25 Q109.0 99.85 110.55 98.45 M63.6 94.35 L64.1 95.15 Q65.9 97.4 66.35 98.7 L67.05 99.7 68.0 100.6 67.55 100.6 65.15 100.6 62.6 100.6 63.0 98.1 63.6 94.35" fill="#cccccc" fill-rule="evenodd" stroke="none"/>
      <path d="M98.55 39.5 L98.25 39.75 98.05 39.95 97.6 40.3 97.1 40.65 96.95 40.7 96.55 41.05 96.0 40.35 95.45 39.7 95.3 39.6 Q94.55 38.15 93.7 37.9 L93.05 37.8 92.95 37.45 92.75 37.4 90.25 37.2 88.95 37.2 86.4 37.25 Q85.6 37.45 84.0 38.7 L82.9 39.7 Q81.95 40.2 81.8 40.7 L81.25 40.35 79.65 39.05 79.55 38.9 79.75 39.0 Q80.0 37.55 80.75 36.8 81.0 36.5 83.15 35.8 85.35 35.0 86.3 35.0 L86.6 35.25 86.8 35.3 89.15 35.3 95.5 35.75 97.05 36.7 Q97.45 36.8 97.9 37.6 L98.55 39.5 M102.85 77.9 L103.25 77.4 104.4 77.3 105.55 77.15 105.75 76.9 106.1 76.8 Q106.35 76.55 107.15 76.2 L108.25 75.45 111.7 72.1 113.0 70.3 113.9 68.5 114.25 67.05 114.3 67.05 115.85 68.65 115.4 70.25 114.1 74.25 Q112.95 77.05 111.8 78.15 L109.1 79.85 107.45 81.1 106.7 80.3 104.65 78.85 102.85 77.9 M116.75 69.45 L117.1 69.7 116.75 69.8 116.75 69.45 M89.8 76.9 L91.85 75.45 92.4 75.45 97.15 74.05 97.6 73.95 99.05 73.35 99.45 73.35 99.45 73.65 99.7 75.0 99.7 75.25 99.8 75.35 Q100.05 76.85 100.45 77.5 L100.2 77.65 100.15 77.55 99.45 76.7 Q98.15 75.25 96.45 75.15 95.45 75.15 93.5 76.55 L91.65 78.15 91.0 79.8 90.5 81.4 90.65 82.75 90.85 84.05 90.8 84.55 88.95 84.55 88.95 84.3 88.95 84.2 88.95 83.1 88.95 82.4 88.95 82.15 88.85 81.55 88.85 81.4 88.7 79.95 88.7 79.8 88.8 79.45 Q88.85 78.95 89.2 78.15 L89.3 78.0 89.35 77.9 89.35 77.8 89.65 77.15 89.8 76.9 M79.0 76.55 L78.9 76.25 78.65 75.5 78.2 74.95 78.3 74.75 78.5 74.0 Q80.6 74.75 82.45 74.9 83.7 76.45 85.8 77.05 L86.4 77.7 Q87.15 78.6 87.35 79.8 L87.6 81.4 87.6 81.45 87.6 81.65 87.6 84.0 87.6 84.55 85.35 84.55 85.3 84.45 85.3 84.35 85.6 83.95 86.25 82.35 86.15 80.45 85.65 78.6 Q85.35 77.65 83.65 76.7 82.05 75.7 80.85 75.6 80.1 75.6 79.4 76.2 L79.0 76.55 M81.1 98.25 L81.3 98.1 81.6 97.25 82.45 96.4 82.9 95.5 85.95 92.3 86.05 92.1 87.9 93.55 Q88.4 94.0 89.05 94.2 L90.0 94.5 90.75 95.15 91.45 95.8 93.3 98.45 94.5 99.9 90.85 100.5 87.7 100.75 86.55 101.3 82.4 102.4 80.15 103.05 80.6 101.45 81.1 98.25 M76.1 103.15 Q72.5 102.75 69.95 100.85 L69.85 100.75 69.85 100.65 69.75 100.65 69.35 100.35 Q67.85 99.15 66.95 97.35 L65.65 95.35 65.9 95.3 68.15 94.2 Q71.05 92.65 71.2 92.65 L71.65 93.2 71.75 93.35 71.9 93.5 73.15 95.8 74.3 99.05 75.05 100.75 75.9 102.4 76.1 103.15 M71.3 77.85 L71.1 78.0 70.45 78.75 70.35 78.75 70.25 78.95 70.2 78.95 68.9 80.05 68.9 79.95 Q68.9 79.45 67.35 78.5 L64.75 76.85 Q63.8 76.1 63.5 75.25 L63.2 73.65 Q62.95 72.25 62.95 69.2 62.85 67.75 62.6 67.4 L64.45 66.05 65.1 65.45 65.55 64.9 65.85 64.25 65.9 63.8 66.0 63.8 66.05 64.95 65.75 66.7 Q65.5 67.35 65.4 68.65 65.3 72.0 68.4 75.15 L70.55 77.15 71.3 77.85" fill="#6d5441" fill-rule="evenodd" stroke="none"/>
      <path d="M101.25 33.85 L101.75 35.5 101.4 35.75 Q101.15 35.85 100.8 36.25 L100.15 37.6 99.95 38.05 99.35 38.55 99.35 38.65 98.55 39.5 97.9 37.6 Q97.45 36.8 97.05 36.7 L95.5 35.75 89.15 35.3 86.8 35.3 86.6 35.25 86.3 35.0 Q85.35 35.0 83.15 35.8 81.0 36.5 80.75 36.8 80.0 37.55 79.75 39.0 L79.55 38.9 79.4 38.85 78.7 38.15 77.95 37.4 76.5 35.15 76.3 35.0 76.85 32.9 77.25 33.05 77.75 32.75 Q78.15 32.4 78.5 32.4 L79.2 32.1 Q79.65 31.65 80.35 31.65 L83.7 31.45 84.15 31.4 88.25 31.3 89.7 31.25 94.05 31.5 94.9 31.8 Q96.0 32.55 96.45 32.4 L97.9 32.55 99.45 33.35 100.9 34.05 101.25 33.85 M74.6 29.0 L74.4 28.9 74.6 28.95 74.6 29.0 M115.85 68.65 L115.85 68.6 116.0 68.75 116.15 68.85 116.75 69.45 116.75 69.8 117.1 69.7 117.2 69.75 117.85 70.65 117.95 70.65 118.3 71.25 118.45 71.6 118.55 71.85 118.55 72.1 118.75 73.8 118.55 74.95 117.65 76.6 115.9 79.6 112.95 82.4 112.25 83.2 109.5 83.65 108.75 83.7 108.75 83.55 Q108.75 83.1 107.95 82.0 L107.45 81.1 109.1 79.85 111.8 78.15 Q112.95 77.05 114.1 74.25 L115.4 70.25 115.85 68.65 M77.75 103.25 L77.6 103.25 76.1 103.15 75.9 102.4 75.05 100.75 74.3 99.05 73.15 95.8 71.9 93.5 71.75 93.35 71.65 93.2 71.2 92.65 Q71.05 92.65 68.15 94.2 L65.9 95.3 65.65 95.35 65.55 95.2 64.65 94.1 64.6 94.0 64.45 93.85 64.8 93.6 66.85 92.5 Q70.35 90.7 71.55 90.3 L73.35 93.4 75.8 97.45 Q76.85 99.3 77.1 101.0 77.25 102.05 77.55 102.8 L77.75 103.25 M98.75 100.5 L99.05 100.05 100.8 97.45 102.6 95.0 103.9 93.25 104.2 93.55 104.85 94.85 105.5 95.65 Q106.2 96.3 106.85 96.3 L108.25 96.0 108.9 95.35 Q110.35 95.3 111.05 94.1 111.65 93.1 111.65 92.25 111.7 90.5 109.0 87.45 L109.55 87.8 Q110.45 88.5 111.2 89.85 L112.5 92.25 113.35 93.5 111.05 96.45 109.6 97.85 107.9 98.9 105.0 100.45 102.0 100.95 98.75 100.5 M68.9 80.05 L68.55 80.2 68.4 80.4 68.4 80.55 67.55 81.4 67.45 81.65 67.15 81.65 67.1 81.65 66.75 81.55 66.55 81.4 66.5 81.45 64.9 81.05 63.6 79.8 61.35 77.4 61.0 77.05 Q60.4 76.55 59.9 75.5 L59.25 74.15 58.85 73.05 59.15 71.5 59.1 71.2 Q59.15 70.55 59.6 70.1 L59.6 69.95 59.9 69.35 Q60.2 69.0 60.8 68.75 L61.55 68.25 62.6 67.4 Q62.85 67.75 62.95 69.2 62.95 72.25 63.2 73.65 L63.5 75.25 Q63.8 76.1 64.75 76.85 L67.35 78.5 Q68.9 79.45 68.9 79.95 L68.9 80.05 M53.8 74.75 L53.95 74.5 54.05 74.15 Q54.1 73.8 54.3 73.55 L55.0 73.45 56.45 74.15 57.65 75.4 58.45 76.6 59.35 78.0 59.45 78.65 59.55 79.3 59.75 79.85 59.8 80.2 59.7 80.2 58.8 80.75 58.6 80.75 57.65 79.1 55.35 76.55 53.8 74.75" fill="#503e30" fill-rule="evenodd" stroke="none"/>
      <path d="M74.6 28.95 L76.15 29.5 78.65 29.65 78.9 29.7 79.3 29.55 79.55 29.45 79.95 29.65 80.3 29.8 80.75 29.5 80.95 29.3 83.9 30.4 84.65 29.65 Q85.35 29.0 85.9 29.0 L86.4 29.5 87.15 30.0 87.7 29.7 87.9 29.45 88.05 29.85 88.45 30.2 88.85 30.05 89.3 29.95 89.5 30.05 89.85 30.2 90.5 29.8 90.75 29.3 Q90.95 29.8 91.65 30.0 L92.4 30.3 92.9 30.45 93.25 30.2 93.65 29.95 93.65 30.3 Q93.65 30.55 94.2 30.55 L97.1 30.2 100.3 29.95 100.9 30.2 101.65 30.45 Q101.3 31.0 101.25 31.65 L101.15 31.95 Q101.05 33.05 101.25 33.85 L100.9 34.05 99.45 33.35 97.9 32.55 96.45 32.4 Q96.0 32.55 94.9 31.8 L94.05 31.5 89.7 31.25 88.25 31.3 84.15 31.4 83.7 31.45 80.35 31.65 Q79.65 31.65 79.2 32.1 L78.5 32.4 Q78.15 32.4 77.75 32.75 L77.25 33.05 76.85 32.9 76.9 32.25 76.9 32.1 76.9 31.95 Q76.85 30.55 75.6 29.65 L74.6 29.0 74.6 28.95 M119.85 73.7 Q119.85 72.0 119.55 71.2 120.55 71.15 123.3 69.0 L123.95 68.5 124.45 69.6 Q125.05 70.65 125.05 71.35 L125.1 74.4 125.05 75.95 124.55 77.65 122.8 80.95 120.55 84.2 119.1 85.95 118.45 86.9 Q118.1 86.0 117.2 85.15 L115.65 83.3 114.55 82.35 115.3 81.65 116.75 80.2 Q118.15 78.65 118.95 76.95 119.75 75.25 119.85 73.7 M81.1 98.25 L80.6 101.45 80.15 103.05 77.75 103.25 77.55 102.8 Q77.25 102.05 77.1 101.0 76.85 99.3 75.8 97.45 L73.35 93.4 71.55 90.3 Q70.35 90.7 66.85 92.5 L64.8 93.6 64.45 93.85 64.1 93.1 63.65 92.25 63.7 92.15 63.8 92.05 66.0 90.5 66.95 90.1 68.05 89.5 Q69.25 89.0 70.9 88.8 L71.45 88.65 71.9 89.15 74.3 92.9 Q75.25 94.45 75.9 95.05 L75.8 95.5 75.8 95.95 75.95 96.25 Q76.1 96.45 76.4 96.45 L76.85 96.9 77.05 97.85 Q77.5 98.45 79.3 98.55 L79.55 98.55 80.1 98.55 80.45 98.45 80.85 98.4 81.1 98.25 M98.75 100.5 L98.55 100.5 96.95 100.35 96.8 100.25 96.75 100.25 96.2 100.25 96.35 99.55 97.15 98.8 97.65 98.35 97.65 98.25 99.55 95.95 102.35 91.75 102.6 91.45 103.25 90.7 103.8 91.2 105.25 92.4 106.5 94.0 Q107.65 95.3 108.65 95.35 L108.9 95.35 108.25 96.0 106.85 96.3 Q106.2 96.3 105.5 95.65 L104.85 94.85 104.2 93.55 103.9 93.25 102.6 95.0 100.8 97.45 99.05 100.05 98.75 100.5 M109.0 87.45 L108.8 87.2 107.4 85.75 107.9 85.15 108.05 85.15 108.9 85.9 109.9 86.55 111.9 88.85 113.6 91.4 114.3 92.3 113.9 92.65 113.8 92.85 113.75 92.75 113.7 93.0 113.35 93.5 112.5 92.25 111.2 89.85 Q110.45 88.5 109.55 87.8 L109.0 87.45 M59.8 80.2 L59.75 79.85 59.55 79.3 59.45 78.65 59.35 78.0 58.45 76.6 57.65 75.4 56.45 74.15 55.0 73.45 54.3 73.55 Q54.1 73.8 54.05 74.15 L53.95 74.5 53.8 74.75 Q52.0 72.2 52.1 69.95 L52.3 69.0 52.45 68.45 52.8 68.6 53.65 69.0 58.25 71.15 58.1 72.1 57.9 73.3 58.0 74.0 Q58.1 74.95 58.75 76.05 59.45 77.35 60.55 78.3 L61.9 79.6 61.85 79.65 60.3 80.05 59.8 80.2" fill="#31261e" fill-rule="evenodd" stroke="none"/>
      <path d="M100.9 46.8 L100.55 47.7 99.45 49.7 98.05 51.7 Q96.8 53.65 93.65 56.55 L91.1 59.05 89.45 57.95 86.8 58.1 Q86.05 58.35 85.15 59.25 L84.15 57.85 82.4 55.7 80.15 51.7 78.2 47.7 79.4 48.4 80.85 48.95 84.5 50.2 88.4 50.5 93.3 50.0 95.15 49.35 Q97.3 48.65 98.6 47.95 L100.9 46.8 M103.55 61.35 L102.0 62.5 101.85 62.5 101.85 62.55 101.8 62.65 101.65 62.8 100.5 63.6 100.2 63.75 100.2 63.45 100.3 61.5 100.35 59.45 100.45 57.85 100.55 53.9 100.55 53.6 101.85 51.65 103.2 49.5 103.75 48.25 103.7 50.35 103.7 53.25 103.6 55.2 103.55 58.0 103.4 60.4 103.55 61.35 M97.65 49.55 Q97.05 50.2 95.35 50.7 92.1 51.7 86.15 51.5 L83.05 50.85 80.85 50.2 83.5 54.55 Q85.2 57.15 85.65 57.15 L87.6 57.0 88.85 56.8 Q89.9 56.8 90.4 57.15 L91.1 57.5 Q91.95 57.6 94.35 54.45 L97.65 49.55 M79.0 56.5 L78.85 57.5 78.85 59.55 78.8 61.6 78.85 63.9 79.0 65.1 77.55 64.5 77.35 64.4 77.05 64.25 76.15 63.5 76.3 63.4 76.6 62.85 76.3 61.85 76.05 60.25 76.25 59.4 76.5 58.45 76.4 54.35 76.15 52.15 75.8 50.1 75.75 49.15 77.2 52.8 77.5 53.4 77.6 53.75 78.8 56.2 79.0 56.5 M74.15 48.2 L74.2 45.3 74.3 45.35 74.15 48.2" fill="#390356" fill-rule="evenodd" stroke="none"/>
      <path d="M103.75 48.25 L104.25 47.1 104.3 46.85 105.15 44.8 105.15 44.65 105.75 44.45 105.7 45.8 105.75 48.4 105.75 52.3 105.85 55.4 Q105.75 58.0 105.95 58.1 L106.35 58.45 106.35 58.55 104.85 60.15 103.55 61.35 103.4 60.4 103.55 58.0 103.6 55.2 103.7 53.25 103.7 50.35 103.75 48.25 M120.75 51.7 L120.9 51.7 122.65 52.05 Q125.55 52.75 127.95 54.2 L126.85 55.45 Q125.6 56.8 124.0 57.85 122.8 58.7 119.65 60.15 116.65 61.5 116.25 61.5 L115.4 61.6 114.45 62.15 113.45 62.5 113.45 62.35 115.15 60.05 116.15 58.35 117.15 56.85 117.95 55.2 118.4 53.75 118.65 53.65 119.85 53.25 120.4 52.45 120.75 51.7 M76.15 63.5 L74.95 62.35 72.65 60.15 72.4 59.8 74.1 59.4 75.05 58.55 74.8 56.4 74.5 54.2 74.35 51.95 74.2 49.75 74.2 48.3 74.15 48.2 74.3 45.35 74.35 45.65 75.75 49.05 75.75 49.15 75.8 50.1 76.15 52.15 76.4 54.35 76.5 58.45 76.25 59.4 76.05 60.25 76.3 61.85 76.6 62.85 76.3 63.4 76.15 63.5 M50.55 47.8 L52.65 46.35 54.5 45.65 55.0 45.4 55.0 45.85 54.9 46.65 55.0 47.35 55.5 48.45 55.6 48.75 55.7 49.55 55.6 49.7 Q56.05 50.0 56.35 50.6 L56.95 50.95 57.0 51.0 57.3 51.2 57.35 51.2 57.65 51.5 58.0 51.95 58.25 51.8 Q58.15 53.25 58.75 53.6 L59.1 53.65 61.85 59.3 62.05 59.75 58.4 59.05 56.55 58.45 55.2 57.85 51.75 54.95 48.5 52.15 47.25 50.1 47.15 50.1 47.15 50.05 47.8 49.65 48.6 49.15 50.55 47.8" fill="#28023e" fill-rule="evenodd" stroke="none"/>
      <path d="M92.55 78.75 L92.55 78.15 Q92.6 77.15 94.0 76.7 95.45 76.25 95.35 77.4 95.35 77.85 94.55 78.6 93.75 79.35 93.25 79.3 92.7 79.3 92.55 78.75 M83.7 79.35 Q83.2 79.35 82.65 78.5 82.3 77.8 82.3 77.55 82.3 76.45 83.65 77.15 85.0 77.85 84.95 78.6 84.95 79.35 83.7 79.35" fill="#ac8c75" fill-rule="evenodd" stroke="none"/>
      <path d="M62.4 94.85 L61.9 93.25 62.7 92.85 62.85 93.25 62.4 94.85 M64.95 7.7 Q64.95 7.2 65.1 7.0 L65.15 6.85 65.15 7.0 64.95 7.7" fill="#7d06bd" fill-rule="evenodd" stroke="none"/>
      <path d="M108.4 101.15 L108.25 101.3 Q106.5 102.2 103.75 102.1 L103.7 102.05 Q105.35 101.85 106.6 101.25 L106.85 101.0 108.4 101.15" fill="#6b05a3" fill-rule="evenodd" stroke="none"/>
      <path d="M69.95 5.1 L69.95 5.05 70.45 3.5 71.45 1.15 Q73.2 -1.85 74.1 1.15 L74.1 4.75 Q74.1 5.2 74.45 6.2 L71.9 5.65 71.55 5.65 70.1 5.2 69.95 5.1 M100.3 6.85 L100.5 5.8 101.0 4.0 101.05 2.4 Q101.25 1.55 101.6 0.9 102.45 1.05 103.7 2.0 L104.85 3.15 105.15 4.9 105.15 5.1 105.0 5.2 103.75 5.8 102.85 6.2 100.3 6.85 M108.4 15.6 L108.75 15.6 Q110.7 20.0 111.5 22.7 L110.65 23.8 110.65 23.9 110.55 23.9 Q110.0 24.65 108.3 24.95 107.8 24.95 107.6 25.35 L107.0 25.95 Q106.35 26.4 105.65 26.45 L105.55 26.45 105.35 24.15 105.25 23.8 105.25 23.55 105.35 22.7 105.7 22.7 Q106.5 22.8 107.1 21.6 L107.45 20.4 107.65 19.0 107.95 17.85 108.4 15.6 M96.0 18.2 L102.15 17.0 Q103.95 16.45 104.2 16.65 L104.3 19.05 104.3 20.5 103.8 21.1 103.6 21.85 103.25 21.95 Q102.85 21.9 102.85 21.4 102.6 20.65 102.1 20.6 101.5 20.6 101.3 21.15 101.05 21.75 100.0 21.7 L99.7 21.35 Q99.6 20.8 99.0 20.8 98.25 20.8 97.9 21.35 L96.95 21.9 96.55 21.25 95.8 20.5 Q95.45 20.5 94.85 21.15 L94.05 21.85 Q93.7 21.85 93.5 21.35 93.3 20.8 92.75 20.8 92.3 20.8 91.65 21.45 L91.25 21.95 89.9 21.9 89.9 21.7 89.8 21.55 89.7 21.45 Q89.5 20.8 89.05 20.8 88.7 20.8 88.4 21.35 88.1 21.85 87.35 21.75 L87.25 21.75 86.6 21.25 Q86.4 20.75 85.9 20.75 85.35 20.65 84.95 21.35 L84.6 21.6 83.5 21.6 83.35 21.45 83.0 21.15 Q82.3 20.45 81.95 20.45 81.3 20.45 81.0 20.9 L80.75 21.4 79.55 20.3 Q78.85 19.55 78.5 19.55 77.75 19.55 77.55 20.4 L77.5 20.5 77.25 20.9 77.1 21.1 76.5 21.0 75.45 20.3 74.45 19.55 74.35 18.85 74.6 17.55 Q74.95 17.2 76.5 17.25 L81.55 18.2 Q82.1 19.35 82.9 19.45 L83.0 19.55 83.4 19.55 83.55 19.55 83.65 19.55 84.35 19.3 88.6 19.05 92.1 19.45 92.6 19.15 92.75 19.3 93.65 19.55 94.0 19.55 94.05 19.55 94.15 19.3 94.55 19.3 Q95.15 19.35 95.65 18.8 L96.0 18.2 M114.25 32.85 L114.4 35.5 114.8 39.6 114.9 41.4 114.8 41.4 Q114.45 41.55 114.7 42.25 L113.5 42.9 Q112.4 43.35 112.3 43.7 L111.35 44.35 110.25 44.85 Q109.75 45.15 109.5 45.7 L108.4 46.15 107.2 46.35 106.6 46.5 106.65 45.7 106.65 44.85 106.65 44.35 Q108.4 43.85 109.6 42.45 110.85 40.95 110.95 39.75 L110.95 39.6 110.85 39.4 110.95 39.1 110.8 39.1 110.55 39.05 110.2 39.0 107.15 38.55 107.15 38.05 107.15 37.2 108.55 36.25 109.35 36.25 Q110.45 36.3 111.35 35.6 L112.5 34.35 113.45 33.8 113.95 33.55 113.95 33.45 114.25 32.85 M66.25 45.35 L66.25 45.2 66.35 44.1 66.55 41.5 66.75 39.95 Q66.95 40.8 67.65 41.8 L67.7 41.95 67.8 42.0 67.85 42.1 Q69.65 44.45 73.2 44.65 L73.25 44.65 73.2 46.75 73.2 48.1 Q72.9 47.8 72.25 47.8 71.3 47.7 70.75 47.25 L70.7 47.1 70.55 47.0 70.45 46.95 68.8 46.8 Q67.45 46.85 67.2 46.1 67.45 45.7 67.1 45.55 L66.85 45.4 66.75 45.4 66.55 45.35 66.25 45.35 M66.95 38.65 L67.05 38.3 67.1 36.95 67.1 35.35 67.2 34.85 67.45 35.05 Q68.4 35.8 68.9 35.8 L69.15 35.75 70.55 36.95 70.55 37.75 70.55 38.3 67.45 38.55 67.05 38.65 66.95 38.65" fill="#333333" fill-rule="evenodd" stroke="none"/>
    </g>
  </defs>
</svg>
