<?xml version="1.0" encoding="UTF-8" standalone="no"?>
<svg xmlns:ffdec="https://www.free-decompiler.com/flash" xmlns:xlink="http://www.w3.org/1999/xlink" ffdec:objectType="frame" height="212.55px" width="398.95px" xmlns="http://www.w3.org/2000/svg">
  <g transform="matrix(1.0, 0.0, 0.0, 1.0, 194.95, 196.05)">
    <use ffdec:characterId="430" height="34.0" transform="matrix(1.0, 0.0, 0.0, 1.0, -20.6, -27.7)" width="46.45" xlink:href="#shape0"/>
    <use ffdec:characterId="431" height="103.5" transform="matrix(1.0, 0.0, 0.0, 1.0, -59.0, -103.85)" width="136.25" xlink:href="#shape1"/>
    <use ffdec:characterId="432" height="123.05" transform="matrix(0.9864, 0.1564, -0.1564, 0.9864, -34.0641, -193.173)" width="114.5" xlink:href="#shape2"/>
    <use ffdec:characterId="433" height="140.8" transform="matrix(0.9961, 0.0044, -0.0037, 0.8364, 36.7492, -113.6574)" width="48.9" xlink:href="#shape3"/>
    <use ffdec:characterId="434" height="179.0" transform="matrix(0.5721, 0.8146, -0.8146, 0.5721, 58.5192, -116.0331)" width="35.0" xlink:href="#shape4"/>
    <use ffdec:characterId="435" height="75.2" transform="matrix(0.9216, 0.0929, -0.0929, 0.9216, -43.9436, -100.7296)" width="43.0" xlink:href="#shape5"/>
    <use ffdec:characterId="448" height="59.95" transform="matrix(1.0, 0.0, 0.0, 1.0, 10.0, -119.0)" width="79.35" xlink:href="#shape6"/>
  </g>
  <defs>
    <g id="shape0" transform="matrix(1.0, 0.0, 0.0, 1.0, 29.45, 30.75)">
      <path d="M12.95 -26.5 Q12.9 -23.45 13.5 -20.7 13.9 -18.95 14.5 -17.65 14.4 -14.35 15.15 -10.65 16.0 -6.45 16.0 -4.15 L16.0 -2.5 16.2 -2.15 Q17.0 -0.8 17.0 0.1 L16.85 1.0 14.95 1.1 -1.0 1.75 Q-1.45 0.85 -2.25 0.25 L-2.1 0.1 -2.3 -0.65 -2.5 -2.2 Q-2.5 -7.45 -1.75 -12.35 L-2.0 -12.1 Q-3.15 -10.95 -10.25 -6.35 L-13.55 -3.65 Q-15.4 -2.4 -17.55 -2.05 -17.3 -0.3 -18.75 3.05 -19.45 3.55 -20.45 2.85 L-20.45 2.65 Q-22.7 1.9 -26.2 -0.7 -29.15 -3.65 -29.45 -8.95 -29.6 -12.5 -28.75 -14.35 L-28.7 -15.0 -28.6 -15.4 -28.85 -15.65 -28.6 -15.7 -28.15 -17.65 -26.9 -18.3 -26.3 -18.3 -24.75 -18.95 -22.7 -19.4 Q-19.2 -20.1 -17.0 -22.3 L-15.95 -22.65 Q-12.55 -25.45 -9.55 -26.65 -3.2 -29.1 1.3 -24.6 L1.55 -24.35 Q3.4 -28.25 5.9 -29.95 8.6 -31.75 10.8 -29.6 L12.95 -26.5 M9.0 -1.4 L10.65 -4.2 Q11.5 -5.55 13.6 -5.2 L13.5 -7.7 12.95 -11.05 Q12.55 -13.2 12.5 -14.45 L12.45 -16.6 11.75 -16.5 4.5 -15.45 4.45 -1.1 5.85 -1.1 9.0 -1.05 9.05 -1.05 9.35 -1.05 9.0 -1.4 M14.0 -0.95 L13.2 -2.85 10.5 -1.05 14.0 -0.95 M-12.4 -15.5 Q-13.25 -14.75 -18.35 -12.85 -23.95 -10.75 -26.75 -11.15 L-27.05 -9.25 Q-27.7 -5.3 -24.4 -1.9 L-24.15 -1.65 Q-23.2 -0.7 -20.4 0.9 -20.35 0.85 -20.25 0.95 L-20.2 0.4 Q-19.95 -1.05 -20.0 -1.9 L-21.65 -1.55 -24.15 -1.85 Q-24.25 -1.85 -24.35 -1.95 L-23.9 -2.7 -21.7 -4.1 Q-19.8 -4.7 -18.55 -3.65 L-18.0 -4.3 Q-17.55 -4.75 -16.05 -5.45 -14.7 -6.2 -14.2 -6.7 L-11.9 -8.3 Q-10.1 -9.5 -9.6 -10.0 L-7.65 -11.35 Q-9.0 -11.9 -10.45 -13.35 L-12.3 -15.4 -12.35 -15.55 -12.4 -15.5" fill="#000000" fill-rule="evenodd" stroke="none"/>
      <path d="M9.0 -1.05 L9.0 -1.4 9.05 -1.05 9.0 -1.05" fill="#5b6171" fill-rule="evenodd" stroke="none"/>
      <path d="M9.0 -1.05 L5.85 -1.1 4.45 -1.1 4.5 -15.45 11.75 -16.5 12.45 -16.6 12.5 -14.45 Q12.55 -13.2 12.95 -11.05 L13.5 -7.7 13.6 -5.2 Q11.5 -5.55 10.65 -4.2 L9.0 -1.4 9.0 -1.05 M-24.4 -1.9 Q-27.7 -5.3 -27.05 -9.25 L-26.75 -11.15 Q-23.95 -10.75 -18.35 -12.85 -13.25 -14.75 -12.4 -15.5 L-12.3 -15.4 -10.45 -13.35 Q-9.0 -11.9 -7.65 -11.35 L-9.6 -10.0 Q-10.1 -9.5 -11.9 -8.3 L-14.2 -6.7 Q-14.7 -6.2 -16.05 -5.45 -17.55 -4.75 -18.0 -4.3 L-18.55 -3.65 Q-19.8 -4.7 -21.7 -4.1 L-23.9 -2.7 -24.35 -1.95 -24.4 -1.9 M14.0 -0.95 L10.5 -1.05 13.2 -2.85 14.0 -0.95 M-24.15 -1.65 L-24.15 -1.85 -21.65 -1.55 -20.0 -1.9 Q-19.95 -1.05 -20.2 0.4 L-20.4 0.9 Q-23.2 -0.7 -24.15 -1.65" fill="#332d26" fill-rule="evenodd" stroke="none"/>
    </g>
    <g id="shape1" transform="matrix(1.0, 0.0, 0.0, 1.0, -40.9, -52.0)">
      <path d="M176.85 86.0 L177.0 90.05 177.15 92.35 Q177.2 94.1 176.5 95.3 174.45 99.0 165.75 99.0 L156.7 98.3 Q152.35 97.55 150.2 96.4 L142.5 105.5 135.2 95.65 Q133.6 101.6 131.45 103.6 L130.95 106.15 130.3 109.6 Q131.45 110.45 132.8 112.65 136.0 117.75 136.0 120.9 136.0 122.45 135.4 123.65 L136.55 125.4 Q138.1 128.2 138.55 130.25 L140.65 135.3 142.5 139.9 Q142.5 140.85 141.15 142.3 L141.0 142.5 141.0 142.6 Q141.0 143.9 139.0 144.85 136.4 146.0 131.25 146.0 L128.3 145.9 128.15 146.05 127.5 146.5 126.7 145.8 Q122.4 145.35 119.5 144.0 L117.25 142.75 116.15 143.75 Q112.65 147.0 111.75 147.0 108.3 147.0 104.85 143.5 L100.75 145.05 Q94.8 147.0 89.25 147.0 81.25 147.0 78.5 145.0 77.0 143.95 77.0 142.05 77.0 140.2 77.9 137.5 L78.15 136.9 75.8 137.7 71.5 139.0 Q70.45 139.35 68.1 140.4 L66.3 141.2 67.1 143.55 72.0 154.5 71.75 155.1 Q71.55 155.5 70.75 155.5 L70.3 155.45 69.75 155.5 67.3 155.0 62.5 155.0 57.15 154.25 Q52.75 153.8 50.3 152.75 47.55 151.6 45.5 150.3 44.7 149.8 43.0 147.6 41.5 145.7 41.15 144.6 L40.9 144.75 Q41.45 138.3 42.0 124.8 42.6 110.1 45.0 101.3 47.3 92.35 48.3 89.75 L50.55 83.75 Q52.05 80.15 53.5 78.05 58.7 70.1 61.6 66.15 66.6 59.3 72.0 55.0 L72.7 55.2 Q73.0 55.3 73.0 56.1 L73.5 56.05 73.5 56.0 73.3 56.0 73.15 55.85 Q73.0 55.65 73.0 54.9 73.0 54.45 73.75 54.3 L85.0 53.5 88.15 53.05 91.75 52.45 92.5 52.0 92.75 52.35 93.5 52.25 Q93.5 52.05 101.45 52.1 L110.5 52.5 122.5 54.0 126.2 55.25 Q130.0 56.45 132.55 56.75 135.55 57.15 140.45 59.35 145.5 61.55 145.5 62.65 L145.45 63.4 145.3 63.45 147.35 65.35 150.8 69.0 Q152.3 70.15 156.35 71.85 158.35 72.75 158.5 74.5 L159.75 74.95 Q162.35 76.0 163.0 76.8 L162.3 78.35 Q164.55 78.4 167.8 79.5 170.05 80.25 174.55 82.25 176.4 83.2 176.85 86.0 M175.2 91.45 L175.0 89.9 Q175.0 85.65 173.25 84.35 171.15 82.75 161.4 80.05 157.9 86.55 151.6 94.65 L152.5 95.0 155.55 95.75 165.9 96.75 Q173.25 96.75 174.8 93.75 175.35 92.8 175.2 91.45 M119.3 55.8 Q110.45 54.25 100.9 54.25 L94.4 54.45 96.55 56.75 Q97.45 57.45 98.65 59.3 100.95 60.75 108.65 60.75 112.8 60.75 115.85 59.3 L118.05 57.8 119.25 55.95 119.35 55.85 119.3 55.8 M122.4 70.85 Q126.45 69.3 130.3 66.05 L130.85 65.6 129.05 64.75 Q121.2 61.05 118.8 61.0 L118.65 60.85 118.55 60.35 116.9 61.25 114.75 62.1 115.75 63.8 117.5 68.75 118.4 71.3 118.65 71.9 119.7 71.65 121.8 71.05 122.4 70.85 M106.0 63.0 L103.5 62.9 102.95 62.9 103.5 63.65 102.85 67.15 101.75 70.5 101.6 71.05 101.5 71.35 101.5 71.4 101.45 71.6 102.4 71.7 105.1 71.95 114.65 72.25 116.15 72.2 112.7 62.65 108.5 63.0 106.0 63.0 M92.85 56.15 L91.85 54.75 91.85 54.7 91.05 54.8 84.5 56.0 82.1 56.0 Q83.05 56.95 84.2 58.95 L84.7 59.85 86.3 62.4 87.95 61.7 Q92.35 59.9 95.25 59.45 L95.9 59.35 95.05 58.5 92.85 56.15 M98.0 61.75 L97.95 61.7 97.55 61.05 96.15 61.55 Q91.8 63.0 90.0 63.8 L88.6 64.5 88.4 64.55 88.75 64.8 91.05 67.05 91.15 67.15 93.55 69.25 Q96.2 70.6 98.25 71.05 L99.3 71.25 100.0 68.15 101.35 62.8 98.8 62.35 Q98.2 62.1 98.0 61.75 M78.0 60.75 L78.5 61.55 81.35 65.55 Q82.05 64.5 84.6 63.2 L83.6 61.85 83.55 61.75 83.5 61.7 82.45 60.15 81.9 59.35 Q80.5 57.2 80.5 56.6 80.5 56.25 80.65 56.0 L75.2 56.0 76.45 58.1 78.0 60.75 M88.3 67.6 L87.25 66.55 86.35 65.5 Q83.95 66.6 82.6 67.25 L83.5 68.3 85.6 70.6 86.8 71.95 Q88.45 73.65 90.05 74.25 93.85 75.65 99.0 76.65 L99.15 76.7 99.05 76.25 99.0 74.3 99.05 73.5 97.55 73.15 Q92.65 71.75 88.3 67.6 M82.45 71.95 L82.3 71.8 82.2 71.75 78.75 74.05 Q74.7 76.35 72.5 76.5 L72.55 76.6 72.35 76.5 72.25 76.5 71.45 76.45 71.2 76.9 71.15 77.0 71.5 78.25 74.0 83.05 74.05 82.45 74.25 82.05 Q85.75 81.45 88.8 79.1 L90.5 77.55 91.5 77.1 89.0 75.8 85.15 73.0 82.9 70.9 82.5 71.45 82.45 71.95 M105.0 74.25 L101.1 73.85 101.1 73.9 100.85 77.0 105.0 77.65 112.4 78.25 114.15 78.25 114.4 78.25 116.35 78.25 116.7 78.2 118.7 78.05 117.05 74.4 114.5 74.5 113.95 74.5 112.85 74.5 111.75 74.5 105.3 74.25 105.0 74.25 M74.8 84.6 L75.55 86.15 76.0 86.9 79.1 86.6 Q84.8 86.25 89.5 84.55 91.85 83.7 94.05 82.3 L97.45 79.55 98.15 79.05 96.2 78.6 93.95 77.95 Q93.35 79.5 87.9 81.8 81.1 84.7 75.0 84.5 L74.7 84.45 74.8 84.6 M82.0 95.3 L81.95 95.55 85.7 96.15 89.9 96.75 Q95.25 96.75 99.95 94.9 L103.95 93.35 104.25 93.25 103.55 92.5 102.3 90.75 Q100.25 92.15 94.5 93.6 85.5 95.9 85.5 94.5 L88.5 94.5 85.5 94.45 81.15 94.05 80.75 94.0 82.0 95.3 M83.1 98.2 L84.3 99.5 Q87.7 103.3 88.25 103.3 98.05 103.3 105.55 100.1 108.85 98.75 111.6 97.1 107.95 96.35 105.45 94.35 104.9 95.35 101.5 96.8 96.5 99.0 90.0 99.0 L85.4 98.55 83.1 98.2 M89.4 92.25 Q94.45 92.25 98.15 90.25 L101.35 88.6 101.65 89.4 Q101.0 87.85 101.0 86.4 101.0 83.25 101.35 82.1 101.75 80.85 102.75 79.85 L101.35 79.65 Q100.5 81.6 94.6 84.75 86.65 89.0 78.5 89.0 L77.35 88.85 77.1 88.8 78.55 91.1 79.5 91.0 84.45 91.65 89.4 92.25 M121.4 80.1 L121.15 80.1 121.4 80.3 Q123.5 81.95 123.5 85.1 123.5 87.5 122.8 88.75 L121.8 90.0 Q120.5 91.0 118.25 91.0 112.65 91.0 110.8 88.85 L110.55 88.5 Q110.0 87.7 110.0 85.6 110.0 82.85 112.1 80.95 L112.7 80.5 112.1 80.5 105.0 80.1 104.55 80.6 Q103.55 81.9 103.5 83.25 L103.25 84.95 103.0 86.75 Q103.0 88.75 105.25 91.0 L106.05 91.75 107.3 92.75 Q110.95 95.25 116.4 95.25 120.95 95.25 124.15 93.25 L124.3 93.2 124.4 93.1 125.7 92.1 127.55 90.0 Q128.1 89.25 128.95 86.7 L129.8 83.35 Q129.8 82.5 128.65 80.35 L127.9 78.65 121.4 80.1 M118.8 81.55 L116.75 81.45 Q112.0 81.75 112.0 85.8 112.0 86.9 113.55 87.75 114.75 88.4 116.4 88.65 L118.4 88.75 Q120.15 88.75 121.0 86.8 121.45 85.85 121.5 85.1 121.5 82.1 118.8 81.55 M113.5 97.5 Q110.4 100.1 105.75 102.2 L102.75 103.4 124.25 103.05 121.9 101.6 Q118.75 99.3 117.8 97.45 L116.25 97.5 113.5 97.35 113.45 97.35 113.5 97.5 M122.85 73.2 L119.6 74.05 Q120.5 76.25 120.55 77.85 L124.7 76.95 Q128.4 75.85 131.4 73.85 133.45 72.45 137.2 68.75 L137.45 68.5 137.0 68.5 132.7 66.55 130.0 68.8 Q127.95 70.65 125.55 71.95 L122.85 73.2 M142.1 67.35 L142.45 66.35 141.65 67.2 Q137.65 71.6 136.5 73.3 L135.1 74.85 Q135.8 75.1 136.7 75.8 L139.4 78.4 141.05 71.6 142.1 67.35 M153.8 73.45 L149.8 70.75 Q146.1 68.15 144.8 66.35 L143.6 71.45 Q145.75 72.1 148.3 75.1 L149.7 76.75 152.9 80.4 153.65 79.45 156.5 74.85 156.35 74.8 156.25 74.75 153.8 73.45 M134.2 62.35 L136.05 60.15 Q133.7 59.2 132.5 59.0 L122.6 56.45 122.35 56.4 122.2 56.75 120.85 58.55 Q122.35 58.8 124.8 59.95 127.35 61.15 132.6 64.0 L134.2 62.35 M140.45 65.35 L142.55 63.1 139.65 61.7 137.5 60.75 Q137.4 61.5 136.05 63.1 L136.0 63.1 135.35 63.9 134.5 64.75 134.35 64.9 138.3 67.05 138.45 67.45 138.55 67.3 140.45 65.35 M131.6 77.25 Q132.75 77.55 134.25 78.5 L138.45 81.15 138.8 80.25 136.0 78.05 133.75 75.9 131.65 77.1 131.5 77.2 131.6 77.25 M137.85 82.65 L137.9 82.5 137.5 82.5 Q136.55 82.5 133.2 80.7 L131.5 79.8 Q132.0 81.4 132.0 83.8 132.0 86.3 130.85 88.75 L133.3 88.65 Q134.05 88.75 134.75 89.15 L137.85 82.65 M140.8 84.9 L139.7 83.3 139.25 84.55 138.1 87.65 136.35 92.1 138.25 91.2 Q140.75 90.05 143.35 88.4 L140.8 84.9 M130.15 90.15 L128.75 92.05 128.3 92.6 128.55 92.7 130.15 93.2 132.05 94.05 132.5 93.5 132.65 93.6 133.7 91.35 132.8 91.05 130.3 90.25 130.2 90.05 130.15 90.15 M126.75 94.1 Q123.8 96.5 119.75 97.25 L122.35 99.3 Q125.95 101.75 128.45 102.05 L128.5 102.0 128.6 102.05 129.05 102.05 129.95 101.8 130.0 101.75 Q131.15 100.95 132.0 98.25 L132.65 96.5 132.5 96.5 Q131.35 96.5 129.1 95.45 L126.75 94.1 M139.35 97.15 L142.75 102.3 152.2 90.35 Q157.85 82.8 160.05 77.55 L157.95 77.0 Q156.45 80.35 151.05 85.8 142.95 93.95 136.6 94.0 137.7 94.85 139.35 97.15 M142.75 83.35 L143.35 84.05 Q144.8 85.85 145.25 87.05 L148.5 84.55 151.7 81.7 Q150.45 81.0 148.15 78.75 L146.8 77.35 143.05 73.35 142.45 75.25 140.4 81.4 Q141.5 81.9 142.75 83.35 M72.05 58.5 L72.0 58.5 Q69.35 59.7 67.1 62.75 66.35 63.8 65.9 64.75 L63.3 68.0 59.2 73.6 Q56.8 76.85 55.55 79.25 52.1 85.75 50.2 90.45 47.7 96.65 47.0 101.75 L45.15 113.0 Q44.05 119.7 43.8 124.25 L43.4 135.45 43.15 143.85 Q44.25 144.8 44.85 146.05 45.85 148.0 46.65 148.65 48.35 149.95 53.7 151.0 L57.15 151.6 64.25 152.5 65.25 152.75 Q65.75 152.75 66.1 152.3 L66.15 152.2 67.9 152.75 67.1 151.1 64.8 144.3 63.0 138.35 63.0 133.6 Q63.0 127.3 64.05 118.85 L66.0 104.25 67.05 89.2 Q67.4 84.15 68.35 80.45 L68.65 79.25 68.7 79.1 68.6 78.9 68.5 77.15 Q68.5 76.35 68.75 75.85 69.0 75.35 69.55 74.9 L72.8 69.35 Q75.55 64.95 76.85 63.3 L76.8 63.2 76.65 63.0 76.6 62.95 75.8 61.75 74.65 59.7 73.75 57.5 72.05 58.5 M80.55 68.05 L78.2 65.05 75.0 70.6 73.5 72.95 73.15 73.45 72.95 73.8 73.65 73.5 77.05 72.3 79.45 70.75 Q80.0 70.4 80.6 70.2 L80.5 68.05 80.55 68.05 M73.05 86.0 L72.0 85.9 70.6 81.15 70.15 83.75 Q69.15 89.1 69.0 91.05 L68.55 98.1 68.0 105.3 66.25 118.75 Q65.0 128.65 65.0 133.5 65.0 136.3 65.8 139.45 L67.25 138.65 Q69.85 137.3 70.25 137.25 L74.35 135.85 Q77.35 134.95 78.8 135.1 L79.5 133.05 80.4 128.4 Q80.8 126.35 81.6 125.35 L81.0 124.25 Q80.5 122.9 80.7 121.3 L81.0 119.85 Q81.0 115.2 81.25 114.0 81.8 111.5 83.7 110.65 L83.65 110.55 84.0 109.0 83.5 102.55 83.75 102.45 83.0 101.05 Q79.5 97.25 79.5 96.75 L79.55 96.1 Q77.05 94.55 73.5 87.05 L73.05 86.0 M79.45 139.9 Q79.0 141.25 79.0 142.1 79.0 143.1 80.55 143.75 L84.15 144.55 Q84.0 144.2 84.0 143.3 L84.1 140.85 Q84.3 138.65 84.8 135.95 L85.05 134.5 Q85.85 130.45 86.75 128.15 84.55 127.75 83.15 126.85 L82.75 127.9 Q82.0 129.7 82.0 130.0 82.0 131.9 81.5 134.05 L80.8 136.15 79.95 138.4 79.45 139.9 M124.7 109.65 Q128.4 108.5 128.5 107.05 L128.7 104.5 128.1 104.4 125.5 105.5 125.0 105.5 122.0 105.5 121.7 105.5 122.0 106.0 122.0 110.3 124.7 109.65 M127.35 116.65 Q128.5 116.15 128.5 113.55 L127.3 113.3 127.0 113.25 125.55 113.25 125.5 113.55 125.5 116.25 125.85 116.6 126.75 116.75 127.35 116.65 M130.0 116.8 Q129.05 119.0 126.75 119.0 124.0 119.0 123.5 116.9 L123.5 114.6 Q123.5 113.4 123.85 112.55 L122.75 112.8 Q123.1 114.15 123.1 115.85 L123.05 119.0 123.25 119.0 Q124.1 119.0 125.1 119.65 L126.25 120.3 Q128.95 120.3 131.15 118.0 L132.35 117.0 130.8 114.55 130.5 114.15 Q130.5 115.6 130.0 116.8 M128.8 122.2 L127.25 122.5 Q125.3 122.5 124.35 122.0 L123.0 121.3 123.15 124.45 123.2 124.9 123.7 124.9 123.85 124.9 126.9 125.1 127.85 125.2 127.95 125.2 128.7 125.3 Q131.1 125.4 132.5 123.8 L133.35 122.6 134.0 121.25 Q134.0 120.45 133.5 119.2 L131.75 120.6 Q130.1 121.75 128.8 122.2 M137.35 133.6 L136.75 131.55 135.0 127.15 134.2 125.25 Q132.15 127.0 128.0 127.0 L125.7 126.8 Q126.45 128.2 126.65 131.0 L126.95 134.8 127.0 136.05 127.45 138.9 128.2 143.65 131.15 143.75 134.7 143.65 Q133.85 142.0 132.95 138.9 L132.75 138.2 131.7 134.5 129.5 127.25 Q132.05 126.2 133.4 129.7 L134.45 134.25 134.5 134.55 Q134.55 136.2 135.35 138.65 L136.05 140.6 137.15 143.3 138.0 143.05 138.0 142.75 Q138.0 142.2 139.0 141.4 140.0 140.6 140.0 139.85 L138.8 137.2 138.6 136.75 137.35 133.6 M125.1 134.3 L124.95 133.4 124.5 129.85 Q124.5 127.7 125.3 126.75 L124.95 126.7 123.25 126.5 123.5 130.5 123.35 134.05 123.25 134.7 123.2 134.8 121.75 137.25 120.05 139.75 118.85 141.15 118.8 141.2 119.0 141.3 Q121.95 142.7 125.6 143.35 L125.5 142.6 125.55 138.6 125.5 138.0 125.1 134.3 M121.55 132.6 L121.55 132.3 121.6 129.95 Q120.95 131.15 119.3 133.0 L119.05 133.3 118.7 133.7 Q116.65 136.0 116.0 136.0 113.65 136.0 113.5 134.0 113.75 131.6 113.5 130.8 112.5 127.45 112.5 125.9 L112.55 125.0 112.5 125.0 110.0 124.7 109.55 127.05 Q109.1 129.4 109.0 130.55 L109.1 134.15 Q108.85 136.5 106.75 136.5 103.8 136.5 102.15 133.65 L102.0 133.4 102.1 135.55 102.15 135.9 Q102.5 137.8 104.05 139.25 109.75 144.75 111.4 144.75 113.1 144.75 116.3 141.05 L116.7 140.6 116.8 140.45 120.0 136.5 Q121.25 135.05 121.55 132.6 M115.8 105.5 L112.25 105.5 112.5 107.35 112.0 111.6 115.45 111.3 120.3 110.6 120.05 109.9 120.0 108.15 120.05 106.95 Q120.2 106.1 120.6 105.5 L115.8 105.5 M103.5 111.75 L106.65 111.75 110.05 111.7 110.0 111.0 Q110.0 109.45 110.55 107.15 L111.0 105.5 106.0 105.5 98.85 105.5 99.05 108.65 99.35 111.6 103.5 111.75 M121.45 127.45 L121.15 123.7 Q120.9 121.05 121.0 119.25 L120.85 114.7 Q120.85 113.8 121.0 113.1 L106.75 114.0 102.35 113.95 Q102.8 114.8 102.95 116.35 L103.0 119.5 102.25 129.6 103.95 131.6 Q105.55 133.8 106.0 134.0 L106.4 131.05 Q106.6 128.9 107.0 127.8 L107.5 124.3 107.9 123.35 107.5 122.75 107.0 120.4 Q107.0 113.65 111.75 115.05 113.6 115.6 115.0 117.3 116.5 119.05 116.5 121.0 L116.25 123.5 Q115.8 124.45 114.4 124.8 L114.5 126.3 115.25 129.6 116.0 133.05 116.05 133.3 116.25 133.55 116.45 133.2 118.0 130.4 Q119.2 128.55 121.0 127.5 L121.5 127.65 121.45 127.45 M112.4 117.9 L110.25 117.05 109.45 118.5 Q109.0 119.35 109.0 120.15 109.0 120.75 109.6 121.75 L109.7 121.9 110.2 122.5 Q110.5 122.8 110.75 122.8 113.9 122.8 114.5 122.0 L114.5 120.85 Q114.5 119.3 113.9 118.75 113.55 118.4 112.4 117.9 M91.35 110.75 L97.0 111.45 97.0 105.5 95.3 105.5 95.15 105.35 95.1 105.25 91.3 105.5 90.75 105.5 86.15 104.9 85.85 104.8 85.95 105.75 86.0 109.3 Q87.3 109.4 90.65 110.6 L91.35 110.75 M90.7 115.15 Q89.25 115.55 89.25 117.25 L89.3 118.5 Q89.4 118.8 90.25 118.8 L92.15 118.7 92.45 118.6 Q93.35 118.35 94.0 117.5 94.3 115.0 91.8 115.0 L91.35 115.05 90.7 115.15 M101.0 113.95 L95.45 113.65 Q96.0 114.8 96.0 116.85 96.0 118.55 94.55 119.75 93.05 121.0 90.75 121.0 88.45 121.0 87.5 119.05 L87.0 117.0 Q87.0 115.45 88.4 114.05 89.3 113.1 90.4 112.6 88.9 111.85 87.8 111.75 L85.4 111.4 84.25 114.1 Q83.6 115.7 83.3 117.25 L85.1 119.3 Q87.4 121.8 88.25 121.8 93.9 121.8 97.15 120.4 98.85 119.65 100.5 118.5 L100.9 118.65 101.0 114.05 101.25 113.95 101.0 113.95 M83.3 121.25 L83.0 120.9 83.05 121.35 Q83.1 123.4 83.5 124.0 84.8 126.0 89.55 126.25 L90.9 126.25 Q95.25 126.25 97.95 125.4 L100.0 124.5 100.55 124.7 100.8 120.55 Q99.85 121.3 97.55 122.25 L97.35 122.35 97.2 122.4 96.55 122.65 96.4 122.7 96.3 122.75 96.2 122.8 96.1 122.85 92.2 123.85 90.0 124.0 Q85.8 124.0 83.3 121.25 M100.05 133.55 L100.0 132.05 100.45 126.55 98.5 127.5 Q96.65 128.15 94.15 128.4 94.75 129.95 94.95 132.3 L95.0 135.3 95.0 136.6 95.0 140.5 94.85 144.3 99.85 143.15 103.45 141.95 102.0 140.0 101.1 138.4 Q100.25 136.4 100.05 133.55 M93.0 135.5 L93.05 131.85 Q93.2 129.4 93.75 128.4 L91.0 128.5 88.5 128.4 87.3 135.85 87.25 136.05 86.4 141.0 Q85.95 143.55 85.85 144.7 L88.9 144.75 93.5 144.45 Q93.15 143.35 93.05 141.3 L93.05 140.75 93.0 136.75 93.0 135.5" fill="#000000" fill-rule="evenodd" stroke="none"/>
      <path d="M65.9 64.75 Q65.0 66.4 65.0 67.75 65.0 68.65 65.15 68.75 L66.0 69.0 66.55 68.75 Q67.4 66.75 68.8 65.45 L70.0 64.55 Q70.0 63.3 71.5 61.75 73.0 60.2 73.0 59.6 73.0 58.8 72.7 58.7 L72.05 58.5 73.75 57.5 74.65 59.7 Q73.65 60.5 72.5 62.05 71.25 63.8 69.3 67.5 68.25 69.4 67.05 72.4 L65.0 77.55 60.35 87.95 Q57.55 94.4 56.55 98.25 55.0 104.0 53.3 117.1 51.5 131.05 51.5 139.25 L51.4 142.6 51.5 147.0 Q51.6 148.3 53.45 150.7 L53.7 151.0 Q48.35 149.95 46.65 148.65 45.85 148.0 44.85 146.05 44.25 144.8 43.15 143.85 L43.4 135.45 43.8 124.25 Q44.05 119.7 45.15 113.0 L47.0 101.75 Q47.7 96.65 50.2 90.45 52.1 85.75 55.55 79.25 56.8 76.85 59.2 73.6 L63.3 68.0 65.9 64.75" fill="#7006a8" fill-rule="evenodd" stroke="none"/>
      <path d="M119.25 55.95 L118.05 57.8 115.85 59.3 Q112.8 60.75 108.65 60.75 100.95 60.75 98.65 59.3 97.45 57.45 96.55 56.75 L94.4 54.45 100.9 54.25 Q110.45 54.25 119.3 55.8 L119.25 55.95 M113.5 97.35 L116.25 97.5 117.8 97.45 Q118.75 99.3 121.9 101.6 L124.25 103.05 102.75 103.4 105.75 102.2 Q110.4 100.1 113.5 97.5 L113.5 97.35 M139.35 97.15 Q137.7 94.85 136.6 94.0 142.95 93.95 151.05 85.8 156.45 80.35 157.95 77.0 L160.05 77.55 Q157.85 82.8 152.2 90.35 L142.75 102.3 139.35 97.15 M74.65 59.7 L75.8 61.75 76.6 62.95 76.65 63.0 76.8 63.2 76.85 63.3 Q75.55 64.95 72.8 69.35 L69.55 74.9 Q69.0 75.35 68.75 75.85 68.5 76.35 68.5 77.15 L68.6 78.9 68.7 79.1 68.65 79.25 68.35 80.45 Q67.4 84.15 67.05 89.2 L66.0 104.25 64.05 118.85 Q63.0 127.3 63.0 133.6 L63.0 138.35 64.8 144.3 67.1 151.1 67.9 152.75 66.15 152.2 66.1 152.3 Q65.75 152.75 65.25 152.75 L64.25 152.5 57.15 151.6 53.7 151.0 53.45 150.7 Q51.6 148.3 51.5 147.0 L51.4 142.6 51.5 139.25 Q51.5 131.05 53.3 117.1 55.0 104.0 56.55 98.25 57.55 94.4 60.35 87.95 L65.0 77.55 67.05 72.4 Q68.25 69.4 69.3 67.5 71.25 63.8 72.5 62.05 73.65 60.5 74.65 59.7 M84.1 140.85 L84.0 143.3 Q84.0 144.2 84.15 144.55 L80.55 143.75 Q79.0 143.1 79.0 142.1 79.0 141.25 79.45 139.9 L81.2 140.4 84.1 140.85 M138.8 137.2 L140.0 139.85 Q140.0 140.6 139.0 141.4 138.0 142.2 138.0 142.75 L138.0 143.05 137.15 143.3 136.05 140.6 135.35 138.65 138.0 138.0 138.95 137.55 138.8 137.2 M125.55 138.6 L125.5 142.6 125.6 143.35 Q121.95 142.7 119.0 141.3 L118.85 141.15 120.05 139.75 121.75 137.25 Q123.4 138.15 125.55 138.6 M127.45 138.9 L130.0 139.0 132.95 138.9 Q133.85 142.0 134.7 143.65 L131.15 143.75 128.2 143.65 127.45 138.9 M116.0 133.05 L115.25 129.6 114.5 126.3 114.4 124.8 Q115.8 124.45 116.25 123.5 L116.5 121.0 Q116.5 119.05 115.0 117.3 113.6 115.6 111.75 115.05 107.0 113.65 107.0 120.4 L107.5 122.75 107.9 123.35 107.5 124.3 107.0 127.8 Q106.6 128.9 106.4 131.05 L106.0 134.0 Q105.55 133.8 103.95 131.6 L102.25 129.6 103.0 119.5 102.95 116.35 Q102.8 114.8 102.35 113.95 L106.75 114.0 121.0 113.1 Q120.85 113.8 120.85 114.7 L121.0 119.25 Q120.9 121.05 121.15 123.7 L121.45 127.45 121.0 127.5 Q119.2 128.55 118.0 130.4 L116.45 133.2 116.0 133.05 M101.1 138.4 L102.0 140.0 103.45 141.95 99.85 143.15 94.85 144.3 95.0 140.5 98.1 139.75 Q100.05 139.15 101.1 138.4 M93.05 140.75 L93.05 141.3 Q93.15 143.35 93.5 144.45 L88.9 144.75 85.85 144.7 Q85.95 143.55 86.4 141.0 L88.25 141.0 93.05 140.75" fill="#52047b" fill-rule="evenodd" stroke="none"/>
      <path d="M82.45 71.95 L82.5 71.45 82.9 70.9 85.15 73.0 89.0 75.8 91.5 77.1 90.5 77.55 88.8 79.1 Q85.75 81.45 74.25 82.05 L74.05 82.45 74.0 83.05 71.5 78.25 71.15 77.0 71.2 76.9 71.45 76.45 72.25 76.5 72.35 76.5 72.55 76.6 72.5 76.5 Q74.7 76.35 78.75 74.05 L82.2 71.75 82.3 71.8 82.45 71.95 M75.0 84.5 L74.8 84.6 74.7 84.45 75.0 84.5 M85.5 94.45 L88.5 94.5 85.5 94.5 85.5 94.45 M89.4 92.25 L84.45 91.65 79.5 91.0 78.55 91.1 77.1 88.8 77.35 88.85 78.5 89.0 Q86.65 89.0 94.6 84.75 100.5 81.6 101.35 79.65 L102.75 79.85 Q101.75 80.85 101.35 82.1 101.0 83.25 101.0 86.4 101.0 87.85 101.65 89.4 L101.35 88.6 98.15 90.25 Q94.45 92.25 89.4 92.25 M83.1 98.2 L85.4 98.55 90.0 99.0 Q96.5 99.0 101.5 96.8 104.9 95.35 105.45 94.35 107.95 96.35 111.6 97.1 108.85 98.75 105.55 100.1 98.05 103.3 88.25 103.3 87.7 103.3 84.3 99.5 L83.1 98.2 M141.65 67.2 L142.1 67.35 141.05 71.6 139.4 78.4 136.7 75.8 Q135.8 75.1 135.1 74.85 L136.5 73.3 Q137.65 71.6 141.65 67.2 M131.65 77.1 L131.6 77.25 131.5 77.2 131.65 77.1 M137.5 82.5 L137.85 82.65 134.75 89.15 Q134.05 88.75 133.3 88.65 L130.85 88.75 Q132.0 86.3 132.0 83.8 132.0 81.4 131.5 79.8 L133.2 80.7 Q136.55 82.5 137.5 82.5 M130.3 90.25 L130.15 90.15 130.2 90.05 130.3 90.25 M126.75 94.1 L129.1 95.45 Q131.35 96.5 132.5 96.5 L132.65 96.5 132.0 98.25 Q131.15 100.95 130.0 101.75 L129.95 101.8 129.05 102.05 128.6 102.05 128.5 102.0 128.45 102.05 Q125.95 101.75 122.35 99.3 L119.75 97.25 Q123.8 96.5 126.75 94.1 M80.55 68.05 L80.5 68.05 80.6 70.2 Q80.0 70.4 79.45 70.75 L77.05 72.3 73.65 73.5 72.95 73.8 73.15 73.45 73.5 72.95 75.0 70.6 78.2 65.05 80.55 68.05 M130.0 116.8 Q130.5 115.6 130.5 114.15 L130.8 114.55 132.35 117.0 131.15 118.0 Q128.95 120.3 126.25 120.3 L125.1 119.65 Q124.1 119.0 123.25 119.0 L123.05 119.0 123.1 115.85 Q123.1 114.15 122.75 112.8 L123.85 112.55 Q123.5 113.4 123.5 114.6 L123.5 116.9 Q124.0 119.0 126.75 119.0 129.05 119.0 130.0 116.8 M101.0 114.05 L100.9 118.65 100.5 118.5 Q98.85 119.65 97.15 120.4 93.9 121.8 88.25 121.8 87.4 121.8 85.1 119.3 L83.3 117.25 Q83.6 115.7 84.25 114.1 L85.4 111.4 87.8 111.75 Q88.9 111.85 90.4 112.6 89.3 113.1 88.4 114.05 87.0 115.45 87.0 117.0 L87.5 119.05 Q88.45 121.0 90.75 121.0 93.05 121.0 94.55 119.75 96.0 118.55 96.0 116.85 96.0 114.8 95.45 113.65 L101.0 113.95 101.0 114.05" fill="#393b45" fill-rule="evenodd" stroke="none"/>
      <path d="M116.9 61.25 L119.15 64.55 Q121.85 68.9 122.4 70.85 L121.8 71.05 119.7 71.65 119.0 71.8 118.4 71.3 117.5 68.75 115.75 63.8 114.75 62.1 116.9 61.25 M103.5 62.9 L106.0 63.0 106.0 63.5 Q105.7 69.2 105.1 71.95 L102.4 71.7 101.55 71.6 101.5 71.4 101.5 71.35 101.6 71.05 101.75 70.5 102.85 67.15 103.5 63.65 103.5 62.9 M84.2 58.95 Q83.05 56.95 82.1 56.0 L84.5 56.0 91.05 54.8 91.85 54.7 91.85 54.75 92.85 56.15 Q87.7 58.65 84.2 58.95 M88.6 64.5 L90.0 63.8 Q91.8 63.0 96.15 61.55 L97.55 61.05 97.95 61.7 98.0 61.75 Q97.6 63.1 93.75 65.5 L91.05 67.05 88.75 64.8 88.6 64.5 M110.8 88.85 L110.6 88.85 110.55 88.5 110.8 88.85 M107.3 92.75 L108.5 92.25 111.05 91.25 Q120.1 91.25 122.4 92.2 L124.15 93.25 Q120.95 95.25 116.4 95.25 110.95 95.25 107.3 92.75 M122.2 56.75 L122.35 56.4 122.6 56.45 132.5 59.0 Q133.7 59.2 136.05 60.15 L134.2 62.35 Q131.65 61.7 126.5 59.1 123.8 57.7 122.2 56.75 M125.0 105.5 L125.5 105.5 128.1 104.4 128.7 104.5 128.5 107.05 Q128.4 108.5 124.7 109.65 L125.0 106.75 125.0 105.5 M122.0 106.0 L121.7 105.5 122.0 105.5 122.0 106.0 M127.35 116.65 L127.3 116.55 127.5 114.85 127.4 113.7 127.3 113.3 128.5 113.55 Q128.5 116.15 127.35 116.65 M127.0 113.25 L125.5 113.55 125.55 113.25 127.0 113.25 M123.15 124.45 L123.7 124.9 123.2 124.9 123.15 124.45 M128.7 125.3 L128.9 125.3 129.0 125.0 129.0 124.05 128.8 122.2 Q130.1 121.75 131.75 120.6 L133.5 119.2 Q134.0 120.45 134.0 121.25 L133.35 122.6 132.5 123.8 Q131.1 125.4 128.7 125.3 M119.05 133.3 L119.3 133.0 Q120.95 131.15 121.6 129.95 L121.55 132.3 121.55 132.6 120.5 132.55 Q119.6 132.8 119.05 133.3 M102.1 135.55 L102.0 133.4 102.15 133.65 Q103.8 136.5 106.75 136.5 108.85 136.5 109.1 134.15 L109.0 130.55 Q109.1 129.4 109.55 127.05 L110.0 124.7 112.5 125.0 112.55 125.0 112.5 125.9 Q112.5 127.45 113.5 130.8 113.75 131.6 113.5 134.0 113.65 136.0 116.0 136.0 116.65 136.0 118.7 133.7 L118.6 133.85 117.75 135.3 114.45 138.55 Q111.65 141.0 110.0 141.0 L106.4 138.25 Q103.3 135.9 102.1 135.55 M115.45 111.3 L115.8 110.8 116.0 108.25 Q116.0 106.0 115.8 105.5 L120.6 105.5 Q120.2 106.1 120.05 106.95 L120.0 108.15 120.05 109.9 120.3 110.6 115.45 111.3 M103.5 111.75 L105.0 110.5 Q106.0 109.05 106.0 106.5 L106.0 105.5 111.0 105.5 110.55 107.15 Q110.0 109.45 110.0 111.0 L110.05 111.7 106.65 111.75 103.5 111.75 M112.4 117.9 Q113.55 118.4 113.9 118.75 114.5 119.3 114.5 120.85 L114.5 122.0 Q113.9 122.8 110.75 122.8 110.5 122.8 110.2 122.5 111.1 122.4 111.75 121.55 112.5 120.6 112.5 119.1 L112.4 117.9 M91.3 105.5 L95.1 105.25 95.15 105.35 95.3 105.5 97.0 105.5 97.0 111.45 91.35 110.75 91.95 110.85 92.0 108.6 91.85 107.0 91.3 105.5 M90.7 115.15 L90.5 116.4 Q90.5 116.8 91.25 117.8 L92.15 118.7 90.25 118.8 Q89.4 118.8 89.3 118.5 L89.25 117.25 Q89.25 115.55 90.7 115.15 M83.05 121.35 L83.3 121.25 Q85.8 124.0 90.0 124.0 L92.2 123.85 91.0 124.0 Q89.5 125.15 89.5 125.65 L89.55 126.25 Q84.8 126.0 83.5 124.0 83.1 123.4 83.05 121.35" fill="#cc9d3c" fill-rule="evenodd" stroke="none"/>
      <path d="M88.75 64.8 L88.4 64.55 88.6 64.5 88.75 64.8 M81.9 59.35 L81.7 59.35 Q79.7 59.4 78.0 60.75 L76.45 58.1 75.2 56.0 80.65 56.0 Q80.5 56.25 80.5 56.6 80.5 57.2 81.9 59.35 M88.3 67.6 L88.2 67.65 87.0 69.05 85.6 70.6 83.5 68.3 82.6 67.25 Q83.95 66.6 86.35 65.5 L87.25 66.55 88.3 67.6 M105.0 77.65 L100.85 77.0 101.1 73.9 101.1 73.85 105.0 74.25 105.0 77.65 M116.7 78.2 L116.35 78.25 116.5 78.0 116.7 78.2 M114.15 78.25 L112.4 78.25 113.5 78.0 Q113.95 78.0 114.15 78.25 M116.4 88.65 L116.5 88.1 115.0 86.5 Q115.0 85.1 117.0 83.35 L118.8 81.55 Q121.5 82.1 121.5 85.1 121.45 85.85 121.0 86.8 120.15 88.75 118.4 88.75 L116.4 88.65 M124.7 76.95 L120.55 77.85 Q120.5 76.25 119.6 74.05 L122.85 73.2 123.5 74.9 Q124.05 76.2 124.7 76.95 M136.05 63.1 Q137.4 61.5 137.5 60.75 L139.65 61.7 142.55 63.1 140.45 65.35 Q139.6 64.7 138.15 63.95 137.0 63.35 136.05 63.1" fill="#00a6a6" fill-rule="evenodd" stroke="none"/>
      <path d="M126.95 134.8 L126.65 131.0 Q126.45 128.2 125.7 126.8 L128.0 127.0 Q132.15 127.0 134.2 125.25 L135.0 127.15 136.75 131.55 137.35 133.6 137.05 133.8 134.45 134.25 133.4 129.7 Q132.05 126.2 129.5 127.25 L131.7 134.5 127.0 134.8 126.95 134.8 M123.35 134.05 L123.5 130.5 123.25 126.5 124.95 126.7 125.3 126.75 Q124.5 127.7 124.5 129.85 L124.95 133.4 125.1 134.3 124.7 133.95 Q124.15 133.25 123.45 133.1 L123.35 134.05 M95.0 135.3 L94.95 132.3 Q94.75 129.95 94.15 128.4 96.65 128.15 98.5 127.5 L100.45 126.55 100.0 132.05 100.05 133.55 98.65 134.0 95.25 135.25 95.0 135.3" fill="#cccccc" fill-rule="evenodd" stroke="none"/>
      <path d="M81.9 59.35 L82.45 60.15 83.5 61.7 83.55 61.75 83.6 61.85 84.6 63.2 Q82.05 64.5 81.35 65.55 L78.5 61.55 78.0 60.75 Q79.7 59.4 81.7 59.35 L81.9 59.35 M85.6 70.6 L87.0 69.05 88.2 67.65 88.3 67.6 Q92.65 71.75 97.55 73.15 L99.05 73.5 99.0 74.3 99.05 76.25 99.0 76.65 Q93.85 75.65 90.05 74.25 88.45 73.65 86.8 71.95 L85.6 70.6 M105.0 77.65 L105.0 74.25 105.3 74.25 111.75 74.5 112.85 74.5 113.95 74.5 114.5 74.5 117.05 74.4 118.7 78.05 116.7 78.2 116.5 78.0 116.35 78.25 114.4 78.25 114.15 78.25 Q113.95 78.0 113.5 78.0 L112.4 78.25 105.0 77.65 M124.7 76.95 Q124.05 76.2 123.5 74.9 L122.85 73.2 125.55 71.95 Q127.95 70.65 130.0 68.8 L132.7 66.55 137.0 68.5 137.2 68.75 Q133.45 72.45 131.4 73.85 128.4 75.85 124.7 76.95 M136.05 63.1 Q137.0 63.35 138.15 63.95 139.6 64.7 140.45 65.35 L138.55 67.3 138.3 67.05 134.35 64.9 134.5 64.75 135.35 63.9 136.0 63.1 136.05 63.1 M84.1 140.85 L81.2 140.4 79.45 139.9 79.95 138.4 80.8 136.15 84.8 135.95 Q84.3 138.65 84.1 140.85 M126.95 134.8 L127.0 134.8 131.7 134.5 132.75 138.2 132.95 138.9 130.0 139.0 127.45 138.9 127.0 136.05 126.95 134.8 M134.45 134.25 L137.05 133.8 137.35 133.6 138.6 136.75 138.8 137.2 138.95 137.55 138.0 138.0 135.35 138.65 Q134.55 136.2 134.5 134.55 L134.45 134.25 M123.35 134.05 L123.45 133.1 Q124.15 133.25 124.7 133.95 L125.1 134.3 125.5 138.0 125.55 138.6 Q123.4 138.15 121.75 137.25 L123.2 134.8 123.25 134.7 123.35 134.05 M95.0 135.3 L95.25 135.25 98.65 134.0 100.05 133.55 Q100.25 136.4 101.1 138.4 100.05 139.15 98.1 139.75 L95.0 140.5 95.0 136.6 95.0 135.3 M87.3 135.85 L93.0 135.5 93.0 136.75 93.05 140.75 88.25 141.0 86.4 141.0 87.25 136.05 87.3 135.85" fill="#006262" fill-rule="evenodd" stroke="none"/>
      <path d="M116.9 61.25 L118.55 60.35 118.65 60.85 118.8 61.0 Q121.2 61.05 129.05 64.75 L130.85 65.6 130.3 66.05 Q126.45 69.3 122.4 70.85 121.85 68.9 119.15 64.55 L116.9 61.25 M119.7 71.65 L118.65 71.9 118.4 71.3 119.0 71.8 119.7 71.65 M101.5 71.4 L101.55 71.6 102.4 71.7 101.45 71.6 101.5 71.4 M105.1 71.95 Q105.7 69.2 106.0 63.5 L106.0 63.0 108.5 63.0 112.7 62.65 116.15 72.2 114.65 72.25 105.1 71.95 M84.2 58.95 Q87.7 58.65 92.85 56.15 L95.05 58.5 95.25 59.45 Q92.35 59.9 87.95 61.7 L86.3 62.4 84.7 59.85 84.2 58.95 M98.0 61.75 Q98.2 62.1 98.8 62.35 L101.35 62.8 100.0 68.15 99.3 71.25 98.25 71.05 Q96.2 70.6 93.55 69.25 L91.15 67.15 91.05 67.05 93.75 65.5 Q97.6 63.1 98.0 61.75 M121.4 80.3 L121.4 80.1 127.9 78.65 128.65 80.35 Q129.8 82.5 129.8 83.35 L128.95 86.7 Q128.1 89.25 127.55 90.0 L125.7 92.1 124.4 93.1 124.3 93.2 124.15 93.25 122.4 92.2 Q120.1 91.25 111.05 91.25 L108.5 92.25 107.3 92.75 106.05 91.75 105.25 91.0 Q103.0 88.75 103.0 86.75 L103.25 84.95 103.5 83.25 Q103.55 81.9 104.55 80.6 L105.0 80.1 112.1 80.5 112.1 80.95 Q110.0 82.85 110.0 85.6 110.0 87.7 110.55 88.5 L110.6 88.85 110.8 88.85 Q112.65 91.0 118.25 91.0 120.5 91.0 121.8 90.0 L122.8 88.75 Q123.5 87.5 123.5 85.1 123.5 81.95 121.4 80.3 M122.2 56.75 Q123.8 57.7 126.5 59.1 131.65 61.7 134.2 62.35 L132.6 64.0 Q127.35 61.15 124.8 59.95 122.35 58.8 120.85 58.55 L122.2 56.75" fill="#8e6c24" fill-rule="evenodd" stroke="none"/>
      <path d="M75.0 84.5 Q81.1 84.7 87.9 81.8 93.35 79.5 93.95 77.95 L96.2 78.6 98.15 79.05 97.45 79.55 94.05 82.3 Q91.85 83.7 89.5 84.55 84.8 86.25 79.1 86.6 L76.0 86.9 75.55 86.15 74.8 84.6 75.0 84.5 M81.95 95.55 L82.0 95.3 80.75 94.0 81.15 94.05 85.5 94.45 85.5 94.5 Q85.5 95.9 94.5 93.6 100.25 92.15 102.3 90.75 L103.55 92.5 103.95 93.35 99.95 94.9 Q95.25 96.75 89.9 96.75 L85.7 96.15 81.95 95.55 M131.65 77.1 L133.75 75.9 136.0 78.05 138.8 80.25 138.45 81.15 134.25 78.5 Q132.75 77.55 131.6 77.25 L131.65 77.1 M128.75 92.05 L130.15 90.15 130.3 90.25 132.8 91.05 133.7 91.35 132.65 93.6 132.5 93.5 132.05 94.05 130.15 93.2 128.55 92.7 128.75 92.05 M125.0 105.5 L125.0 106.75 124.7 109.65 122.0 110.3 122.0 106.0 122.0 105.5 125.0 105.5 M127.3 113.3 L127.4 113.7 127.5 114.85 127.3 116.55 127.35 116.65 126.75 116.75 125.85 116.6 125.5 116.25 125.5 113.55 127.0 113.25 127.3 113.3 M123.15 124.45 L123.0 121.3 124.35 122.0 Q125.3 122.5 127.25 122.5 L128.8 122.2 129.0 124.05 129.0 125.0 128.9 125.3 128.7 125.3 127.95 125.2 127.85 125.2 126.9 125.1 123.85 124.9 123.7 124.9 123.15 124.45 M119.05 133.3 Q119.6 132.8 120.5 132.55 L121.55 132.6 Q121.25 135.05 120.0 136.5 L116.8 140.45 116.7 140.6 116.3 141.05 Q113.1 144.75 111.4 144.75 109.75 144.75 104.05 139.25 102.5 137.8 102.15 135.9 L102.1 135.55 Q103.3 135.9 106.4 138.25 L110.0 141.0 Q111.65 141.0 114.45 138.55 L117.75 135.3 118.6 133.85 118.7 133.7 119.05 133.3 M115.8 105.5 Q116.0 106.0 116.0 108.25 L115.8 110.8 115.45 111.3 112.0 111.6 112.5 107.35 112.25 105.5 115.8 105.5 M106.0 105.5 L106.0 106.5 Q106.0 109.05 105.0 110.5 L103.5 111.75 99.35 111.6 99.05 108.65 98.85 105.5 106.0 105.5 M110.2 122.5 L109.7 121.9 109.6 121.75 Q109.0 120.75 109.0 120.15 109.0 119.35 109.45 118.5 L110.25 117.05 112.4 117.9 112.5 119.1 Q112.5 120.6 111.75 121.55 111.1 122.4 110.2 122.5 M91.3 105.5 L91.85 107.0 92.0 108.6 91.95 110.85 91.35 110.75 90.65 110.6 Q87.3 109.4 86.0 109.3 L85.95 105.75 86.15 104.9 90.75 105.5 91.3 105.5 M92.15 118.7 L91.25 117.8 Q90.5 116.8 90.5 116.4 L90.7 115.15 91.35 115.05 91.8 115.0 Q94.3 115.0 94.0 117.5 93.35 118.35 92.45 118.6 L92.15 118.7 M89.55 126.25 L89.5 125.65 Q89.5 125.15 91.0 124.0 L92.2 123.85 96.1 122.85 96.2 122.8 96.3 122.75 96.4 122.7 96.55 122.65 97.2 122.4 97.35 122.35 97.55 122.25 Q99.85 121.3 100.8 120.55 L100.55 124.7 100.0 124.5 97.95 125.4 Q95.25 126.25 90.9 126.25 L89.55 126.25" fill="#906e27" fill-rule="evenodd" stroke="none"/>
      <path d="M149.7 76.75 L148.3 75.1 Q145.75 72.1 143.6 71.45 L144.8 66.35 Q146.1 68.15 149.8 70.75 L153.8 73.45 152.8 72.8 152.35 73.3 149.7 76.75 M140.8 84.9 L139.65 85.8 Q138.95 86.4 138.35 86.95 L138.1 87.65 139.25 84.55 139.7 83.3 140.8 84.9 M148.15 78.75 L147.25 79.8 142.75 83.35 Q141.5 81.9 140.4 81.4 L142.45 75.25 143.05 73.35 146.8 77.35 148.15 78.75 M80.8 136.15 L81.5 134.05 Q82.0 131.9 82.0 130.0 82.0 129.7 82.75 127.9 L83.15 126.85 Q84.55 127.75 86.75 128.15 85.85 130.45 85.05 134.5 L84.8 135.95 80.8 136.15 M87.3 135.85 L88.5 128.4 91.0 128.5 93.75 128.4 Q93.2 129.4 93.05 131.85 L93.0 135.5 87.3 135.85" fill="#d8d8d8" fill-rule="evenodd" stroke="none"/>
      <path d="M118.8 81.55 L117.0 83.35 Q115.0 85.1 115.0 86.5 L116.5 88.1 116.4 88.65 Q114.75 88.4 113.55 87.75 112.0 86.9 112.0 85.8 112.0 81.75 116.75 81.45 L118.8 81.55 M149.7 76.75 L152.35 73.3 152.8 72.8 153.8 73.45 156.25 74.75 156.35 74.8 156.5 74.85 153.65 79.45 152.9 80.4 149.7 76.75 M138.1 87.65 L138.35 86.95 Q138.95 86.4 139.65 85.8 L140.8 84.9 143.35 88.4 Q140.75 90.05 138.25 91.2 L136.35 92.1 138.1 87.65 M142.75 83.35 L147.25 79.8 148.15 78.75 Q150.45 81.0 151.7 81.7 L148.5 84.55 145.25 87.05 Q144.8 85.85 143.35 84.05 L142.75 83.35" fill="#046464" fill-rule="evenodd" stroke="none"/>
      <path d="M73.05 86.0 L73.5 87.05 Q77.05 94.55 79.55 96.1 L79.5 96.75 Q79.5 97.25 83.0 101.05 L83.75 102.45 83.5 102.55 84.0 109.0 83.65 110.55 83.7 110.65 Q81.8 111.5 81.25 114.0 81.0 115.2 81.0 119.85 L80.7 121.3 Q80.5 122.9 81.0 124.25 L81.6 125.35 Q80.8 126.35 80.4 128.4 L79.5 133.05 78.8 135.1 Q77.35 134.95 74.35 135.85 L70.25 137.25 Q69.85 137.3 67.25 138.65 L65.8 139.45 Q65.0 136.3 65.0 133.5 65.0 128.65 66.25 118.75 L68.0 105.3 68.55 98.1 69.0 91.05 Q69.15 89.1 70.15 83.75 L70.6 81.15 72.0 85.9 73.05 86.0" fill="#440367" fill-rule="evenodd" stroke="none"/>
      <path d="M65.9 64.75 Q66.35 63.8 67.1 62.75 69.35 59.7 72.0 58.5 L72.05 58.5 72.7 58.7 Q73.0 58.8 73.0 59.6 73.0 60.2 71.5 61.75 70.0 63.3 70.0 64.55 L68.8 65.45 Q67.4 66.75 66.55 68.75 L66.0 69.0 65.15 68.75 Q65.0 68.65 65.0 67.75 65.0 66.4 65.9 64.75" fill="#720aa9" fill-rule="evenodd" stroke="none"/>
      <path d="M175.2 91.45 Q175.35 92.8 174.8 93.75 173.25 96.75 165.9 96.75 L155.55 95.75 152.5 95.0 151.6 94.65 Q157.9 86.55 161.4 80.05 171.15 82.75 173.25 84.35 175.0 85.65 175.0 89.9 L175.2 91.45" fill="#4e3729" fill-rule="evenodd" stroke="none"/>
    </g>
    <g id="shape2" transform="matrix(1.0, 0.0, 0.0, 1.0, 65.0, 65.55)">
      <path d="M14.3 -64.9 Q26.6 -67.3 27.5 -60.85 L27.75 -54.8 28.0 -50.35 27.0 -38.0 Q26.85 -35.5 27.15 -30.8 L27.5 -25.8 27.45 -23.3 29.8 -23.9 32.25 -31.1 Q33.6 -36.0 37.2 -37.75 40.8 -39.5 44.55 -37.25 49.5 -32.15 49.5 -26.0 49.5 -23.95 48.5 -22.65 46.9 -20.5 43.0 -20.5 40.75 -20.5 39.3 -22.05 L37.55 -16.9 35.05 -9.75 Q35.3 -5.05 34.8 -1.95 34.15 2.45 31.7 3.6 L31.75 3.65 30.55 4.6 30.8 4.75 30.25 4.75 29.1 5.0 29.5 7.1 Q30.05 8.0 30.6 9.75 L32.75 16.1 34.15 21.0 Q34.15 23.6 32.05 23.85 32.7 28.75 33.3 31.6 L34.45 35.3 Q35.0 37.1 35.0 39.0 L34.9 39.35 33.05 39.75 Q33.45 42.65 33.7 48.1 L33.85 54.05 33.6 57.15 Q34.1 57.5 32.85 57.5 31.55 57.5 26.5 54.5 21.6 51.4 21.35 51.25 L21.25 51.25 21.4 51.6 21.5 52.55 21.3 53.55 20.65 53.9 Q16.5 51.5 14.45 46.85 13.6 44.9 12.1 38.65 11.85 38.75 10.8 39.75 L9.7 38.0 Q9.05 36.6 9.05 36.0 9.05 35.2 9.95 29.95 L10.4 27.45 10.05 27.5 Q8.9 29.6 5.5 31.9 0.05 35.55 -5.75 35.25 L-6.0 35.1 -6.25 34.15 Q-6.25 33.4 -5.0 32.15 L-3.25 30.35 -8.05 27.9 -9.4 26.7 Q-19.75 28.5 -24.25 28.5 -29.3 28.5 -32.2 26.45 L-33.4 25.4 -33.5 25.4 -33.5 25.05 Q-33.5 24.1 -33.9 23.55 L-33.85 23.55 Q-31.45 20.8 -29.0 17.15 L-28.0 15.6 -28.0 15.05 Q-27.45 13.0 -26.7 6.65 -26.0 1.0 -26.0 -0.05 -26.0 -10.95 -39.8 -27.3 -51.75 -41.4 -65.0 -50.1 -63.6 -52.0 -61.5 -52.35 -56.3 -53.6 -51.25 -53.5 -46.45 -53.45 -43.35 -52.25 L-34.7 -50.05 -33.9 -49.8 -33.95 -50.4 Q-33.35 -49.5 -32.0 -49.5 L-31.5 -49.55 -31.5 -49.05 -29.35 -48.25 -28.35 -47.8 Q-24.2 -46.0 -20.5 -43.55 -20.5 -46.65 -11.7 -52.9 -5.25 -57.55 0.5 -60.5 6.35 -63.35 14.3 -64.9 M20.15 -22.75 L21.0 -22.75 20.75 -23.25 22.0 -23.0 23.15 -23.2 23.3 -22.8 25.9 -23.05 Q25.3 -24.95 25.1 -27.9 L25.0 -34.65 26.0 -50.4 Q26.0 -53.35 25.5 -56.6 25.4 -57.05 25.45 -57.95 L25.5 -59.6 Q25.5 -60.5 25.0 -61.1 L25.0 -61.85 18.9 -62.25 Q7.25 -62.25 -4.35 -55.3 -14.2 -49.4 -18.75 -42.35 -16.95 -41.05 -15.25 -39.6 L-14.85 -39.25 Q-3.3 -29.45 7.95 -25.35 13.0 -23.55 17.65 -22.95 L20.15 -22.75 M-22.85 26.25 L-13.45 25.15 Q-9.4 24.25 -9.0 23.8 -8.4 23.1 -8.15 22.15 L-7.85 20.5 Q-7.55 17.75 -6.5 13.75 L-6.3 12.6 -5.75 10.95 -4.9 7.25 Q-4.65 6.25 -3.1 3.6 -2.15 2.65 -0.5 2.25 L-0.5 2.35 28.55 2.6 29.85 1.75 30.5 1.45 Q32.5 -0.1 32.5 -4.35 32.5 -7.7 33.5 -11.85 35.5 -20.45 37.8 -24.6 37.5 -25.45 37.5 -26.1 L37.5 -26.85 37.75 -27.1 Q38.05 -27.35 38.5 -27.5 L39.45 -26.3 39.7 -26.25 Q40.0 -26.1 40.0 -25.3 L40.0 -25.05 40.1 -24.8 Q40.9 -22.75 42.65 -22.75 45.9 -22.75 47.0 -24.25 47.6 -25.05 47.5 -25.9 47.5 -27.9 46.0 -31.4 43.9 -36.25 40.65 -36.25 37.05 -36.25 35.1 -32.5 L33.75 -28.5 Q32.9 -27.15 31.85 -24.4 L30.3 -20.25 28.95 -16.05 27.5 -12.0 Q26.6 -10.2 26.6 -7.5 26.6 -4.8 26.05 -3.75 L26.1 -3.55 25.9 -3.5 26.2 -3.1 26.4 -2.55 Q20.4 -2.3 17.3 -2.75 L3.8 -3.55 3.5 -3.5 1.95 -3.4 -3.5 -3.0 -6.0 -1.6 -7.2 0.0 -8.0 1.75 -8.7 4.6 -9.75 8.05 Q-12.8 16.45 -14.35 18.15 -16.05 20.0 -21.0 20.0 L-21.9 19.95 -24.05 19.65 -24.2 19.6 -24.55 19.55 -27.2 18.95 Q-29.3 22.95 -31.0 24.5 L-30.35 24.9 Q-28.05 26.25 -24.25 26.25 L-24.05 26.25 -23.45 26.25 -22.85 26.25 M-21.05 17.75 Q-17.45 17.7 -16.05 16.6 -14.45 15.4 -13.5 11.55 L-12.25 8.6 -11.1 5.55 Q-9.9 -1.8 -6.65 -4.45 -3.9 -6.7 0.9 -6.1 L4.05 -5.5 4.3 -5.35 11.15 -5.15 22.75 -4.8 22.3 -5.45 Q22.85 -5.0 23.5 -5.0 L24.0 -5.0 24.0 -9.35 28.35 -20.15 28.95 -21.6 23.15 -21.05 22.5 -21.0 22.4 -21.0 20.5 -21.0 Q10.3 -21.0 1.15 -25.65 -3.75 -28.15 -14.05 -35.85 -23.7 -43.1 -30.35 -46.1 -40.7 -50.75 -53.0 -50.75 L-53.5 -50.75 -57.45 -50.45 -61.5 -50.0 Q-53.5 -45.15 -47.3 -38.6 L-36.35 -26.25 Q-30.8 -20.25 -27.45 -13.35 -24.0 -6.25 -24.0 -0.4 L-24.75 8.0 -25.6 17.35 -24.75 17.45 -24.65 17.45 -22.3 17.7 -21.95 17.7 -21.25 17.75 -21.05 17.75 M20.5 6.5 L20.3 5.5 20.05 5.25 Q17.65 4.9 16.8 5.2 16.0 5.45 16.0 6.6 16.0 7.35 16.15 7.5 L16.25 7.75 18.25 8.0 19.8 7.75 Q20.5 7.4 20.5 6.5 M27.65 9.35 L26.35 10.75 21.55 14.6 Q19.0 16.6 17.0 18.55 L16.45 19.15 Q12.6 23.55 12.6 28.85 12.6 30.65 11.6 34.3 L11.75 34.35 Q12.5 32.45 16.85 27.95 L22.25 22.6 24.4 20.35 27.3 17.75 Q28.75 16.5 30.0 18.4 L30.85 19.95 31.55 20.0 31.85 20.1 31.8 19.95 Q29.65 13.45 27.8 9.3 L27.75 9.25 27.65 9.35 M28.3 20.25 Q24.35 23.55 20.95 26.8 14.25 33.25 14.25 35.65 L14.1 36.6 14.25 37.25 15.15 41.5 16.45 45.35 Q17.3 48.1 18.75 49.15 L18.65 48.05 18.5 46.75 18.5 46.4 Q18.6 46.0 19.4 46.0 19.85 46.0 22.65 48.95 26.0 52.4 30.8 54.3 31.15 53.75 31.4 50.25 L30.5 48.3 30.0 46.4 30.4 44.0 30.8 41.35 30.3 38.95 Q30.05 37.05 31.05 36.5 L31.85 38.1 31.85 37.9 Q31.85 33.65 31.15 31.4 30.8 30.25 30.15 25.9 L29.65 22.45 Q29.05 22.25 28.9 21.75 L28.3 20.25 M13.05 4.6 L13.05 4.55 12.85 4.55 13.05 4.6 M18.85 9.5 L18.65 9.75 19.3 9.75 18.85 9.5 M11.8 8.7 Q10.5 7.2 9.95 5.95 L10.3 14.35 10.9 21.45 Q12.85 18.55 18.35 13.75 L21.0 11.5 18.75 12.0 Q14.65 12.0 11.8 8.7 M-1.65 32.6 Q0.25 32.95 4.0 29.85 7.65 26.8 7.65 26.25 7.65 25.55 8.05 25.1 L7.65 24.75 7.45 24.6 8.05 22.35 8.15 18.35 Q8.4 14.3 8.05 10.6 7.35 3.25 4.5 3.25 1.75 3.25 0.3 4.55 L-0.7 4.6 Q-4.1 5.45 -4.05 10.25 -4.05 11.15 -5.2 15.7 -6.4 20.25 -6.4 21.25 L-5.6 23.5 -6.9 24.45 -7.6 25.35 -5.65 26.8 Q-2.75 28.8 -0.15 28.1 L-0.05 28.5 0.05 29.55 Q0.05 30.35 -1.6 32.0 L-2.0 32.5 -1.65 32.6" fill="#000000" fill-rule="evenodd" stroke="none"/>
      <path d="M-14.85 -39.25 Q-13.7 -40.05 -10.85 -42.9 L-5.75 -48.1 Q0.7 -53.55 18.55 -58.0 19.1 -54.2 19.85 -43.7 L20.5 -33.0 19.7 -27.15 Q19.4 -24.5 20.15 -22.75 L17.65 -22.95 Q13.0 -23.55 7.95 -25.35 -3.3 -29.45 -14.85 -39.25" fill="#006262" fill-rule="evenodd" stroke="none"/>
      <path d="M13.05 4.6 L12.85 4.55 13.05 4.55 13.05 4.6" fill="#1c181d" fill-rule="evenodd" stroke="none"/>
      <path d="M18.85 9.5 L19.3 9.75 18.65 9.75 18.85 9.5" fill="#8a6b53" fill-rule="evenodd" stroke="none"/>
      <path d="M-53.5 -50.75 L-46.1 -44.35 Q-42.15 -40.75 -37.75 -35.8 L-30.35 -27.5 Q-24.65 -21.45 -21.8 -11.1 -19.5 -2.7 -19.5 6.25 -19.5 8.9 -20.5 14.8 L-21.05 17.75 -21.25 17.75 -21.75 17.45 -21.95 17.7 -22.3 17.7 -24.65 17.45 -24.75 17.45 -25.6 17.35 -24.75 8.0 -24.0 -0.4 Q-24.0 -6.25 -27.45 -13.35 -30.8 -20.25 -36.35 -26.25 L-47.3 -38.6 Q-53.5 -45.15 -61.5 -50.0 L-57.45 -50.45 -53.5 -50.75 M20.5 6.5 Q20.5 7.4 19.8 7.75 L18.25 8.0 16.25 7.75 16.15 7.5 Q16.0 7.35 16.0 6.6 16.0 5.45 16.8 5.2 17.65 4.9 20.05 5.25 L20.3 5.5 20.5 6.5" fill="#ffffff" fill-rule="evenodd" stroke="none"/>
      <path d="M-21.25 17.75 L-21.95 17.7 -21.75 17.45 -21.25 17.75" fill="#52047b" fill-rule="evenodd" stroke="none"/>
      <path d="M-21.0 20.0 L-21.35 20.05 -21.35 20.0 -21.9 19.95 -21.0 20.0 M-22.85 26.25 L-23.45 26.25 -22.85 26.25" fill="#d29e00" fill-rule="evenodd" stroke="none"/>
      <path d="M11.8 8.7 Q14.65 12.0 18.75 12.0 L21.0 11.5 18.35 13.75 Q12.85 18.55 10.9 21.45 L10.3 14.35 9.95 5.95 Q10.5 7.2 11.8 8.7" fill="#4e3729" fill-rule="evenodd" stroke="none"/>
      <path d="M-53.5 -50.75 L-53.0 -50.75 Q-40.7 -50.75 -30.35 -46.1 -23.7 -43.1 -14.05 -35.85 -3.75 -28.15 1.15 -25.65 10.3 -21.0 20.5 -21.0 L22.4 -21.0 22.5 -21.0 23.15 -21.05 28.95 -21.6 28.35 -20.15 24.0 -9.35 24.0 -5.0 23.5 -5.0 Q22.85 -5.0 22.3 -5.45 L22.75 -4.8 11.15 -5.15 4.3 -5.35 4.05 -5.5 0.9 -6.1 Q-3.9 -6.7 -6.65 -4.45 -9.9 -1.8 -11.1 5.55 L-12.25 8.6 -13.5 11.55 Q-14.45 15.4 -16.05 16.6 -17.45 17.7 -21.05 17.75 L-20.5 14.8 Q-19.5 8.9 -19.5 6.25 -19.5 -2.7 -21.8 -11.1 -24.65 -21.45 -30.35 -27.5 L-37.75 -35.8 Q-42.15 -40.75 -46.1 -44.35 L-53.5 -50.75" fill="#cccccc" fill-rule="evenodd" stroke="none"/>
      <path d="M-14.85 -39.25 L-15.25 -39.6 Q-16.95 -41.05 -18.75 -42.35 -14.2 -49.4 -4.35 -55.3 7.25 -62.25 18.9 -62.25 L25.0 -61.85 25.0 -61.1 Q25.5 -60.5 25.5 -59.6 L25.45 -57.95 Q25.4 -57.05 25.5 -56.6 26.0 -53.35 26.0 -50.4 L25.0 -34.65 25.1 -27.9 Q25.3 -24.95 25.9 -23.05 L23.3 -22.8 23.15 -23.2 22.0 -23.0 20.75 -23.25 21.0 -22.75 20.15 -22.75 Q19.4 -24.5 19.7 -27.15 L20.5 -33.0 19.85 -43.7 Q19.1 -54.2 18.55 -58.0 0.7 -53.55 -5.75 -48.1 L-10.85 -42.9 Q-13.7 -40.05 -14.85 -39.25" fill="#00a6a6" fill-rule="evenodd" stroke="none"/>
      <path d="M26.1 -3.55 L26.05 -3.75 Q26.6 -4.8 26.6 -7.5 26.6 -10.2 27.5 -12.0 L28.95 -16.05 30.3 -20.25 31.85 -24.4 Q32.9 -27.15 33.75 -28.5 L35.1 -32.5 Q37.05 -36.25 40.65 -36.25 43.9 -36.25 46.0 -31.4 47.5 -27.9 47.5 -25.9 47.6 -25.05 47.0 -24.25 45.9 -22.75 42.65 -22.75 40.9 -22.75 40.1 -24.8 L40.0 -25.05 40.0 -25.3 Q40.0 -26.1 39.7 -26.25 L39.45 -26.3 38.5 -27.5 Q38.05 -27.35 37.75 -27.1 L37.5 -26.85 37.5 -26.1 Q37.5 -25.45 37.8 -24.6 35.5 -20.45 33.5 -11.85 32.5 -7.7 32.5 -4.35 32.5 -0.1 30.5 1.45 L29.85 1.75 28.55 2.6 -0.5 2.35 -0.5 2.25 Q-2.15 2.65 -3.1 3.6 -4.65 6.25 -4.9 7.25 L-5.75 10.95 -6.3 12.6 -6.5 13.75 Q-7.55 17.75 -7.85 20.5 L-8.15 22.15 Q-8.4 23.1 -9.0 23.8 -9.4 24.25 -13.45 25.15 L-22.85 26.25 Q-21.25 23.2 -21.25 22.15 L-21.35 20.05 -21.0 20.0 Q-16.05 20.0 -14.35 18.15 -12.8 16.45 -9.75 8.05 L-8.7 4.6 -8.0 1.75 -7.2 0.0 -6.0 -1.6 -3.5 -3.0 1.95 -3.4 3.5 -3.5 3.8 -3.55 17.3 -2.75 Q20.4 -2.3 26.4 -2.55 L26.2 -3.1 26.1 -3.55" fill="#8e6c24" fill-rule="evenodd" stroke="none"/>
      <path d="M-21.35 20.05 L-21.25 22.15 Q-21.25 23.2 -22.85 26.25 L-23.45 26.25 -24.05 26.25 -24.25 26.25 Q-28.05 26.25 -30.35 24.9 L-31.0 24.5 Q-29.3 22.95 -27.2 18.95 L-24.55 19.55 -24.2 19.6 -24.05 19.65 -21.9 19.95 -21.35 20.0 -21.35 20.05" fill="#cc9d3c" fill-rule="evenodd" stroke="none"/>
      <path d="M31.55 20.0 L30.85 19.95 30.0 18.4 Q28.75 16.5 27.3 17.75 L24.4 20.35 22.25 22.6 16.85 27.95 Q12.5 32.45 11.75 34.35 L11.6 34.3 Q12.6 30.65 12.6 28.85 12.6 23.55 16.45 19.15 L17.0 18.55 Q19.0 16.6 21.55 14.6 L26.35 10.75 27.65 9.35 27.8 9.3 Q29.65 13.45 31.8 19.95 L31.55 20.0 M28.3 20.25 L28.9 21.75 Q29.05 22.25 29.65 22.45 L30.15 25.9 Q30.8 30.25 31.15 31.4 31.85 33.65 31.85 37.9 L31.85 38.1 31.05 36.5 Q30.05 37.05 30.3 38.95 L30.8 41.35 30.4 44.0 30.0 46.4 30.5 48.3 31.4 50.25 Q31.15 53.75 30.8 54.3 26.0 52.4 22.65 48.95 19.85 46.0 19.4 46.0 18.6 46.0 18.5 46.4 L18.5 46.75 18.65 48.05 18.75 49.15 Q17.3 48.1 16.45 45.35 L15.15 41.5 14.25 37.25 14.1 36.6 14.25 35.65 Q14.25 33.25 20.95 26.8 24.35 23.55 28.3 20.25 M-1.6 32.0 Q0.05 30.35 0.05 29.55 L-0.05 28.5 -0.15 28.1 Q-2.75 28.8 -5.65 26.8 L-7.6 25.35 -6.9 24.45 -5.6 23.5 -6.4 21.25 Q-6.4 20.25 -5.2 15.7 -4.05 11.15 -4.05 10.25 -4.1 5.45 -0.7 4.6 L0.3 4.55 Q1.75 3.25 4.5 3.25 7.35 3.25 8.05 10.6 8.4 14.3 8.15 18.35 L8.05 22.35 7.45 24.6 7.65 24.75 8.05 25.1 Q7.65 25.55 7.65 26.25 7.65 26.8 4.0 29.85 0.25 32.95 -1.65 32.6 L-1.6 32.0" fill="#e8e8e0" fill-rule="evenodd" stroke="none"/>
    </g>
    <g id="shape3" transform="matrix(1.0, 0.0, 0.0, 1.0, 15.9, 50.8)">
      <path d="M25.15 -40.3 L21.45 -46.2 19.75 -47.85 19.6 -47.7 19.1 -47.15 19.0 -45.85 Q19.0 -43.4 21.25 -40.15 23.5 -36.9 23.5 -32.75 23.5 -28.85 22.35 -25.6 20.6 -20.85 16.95 -20.1 L15.5 -20.0 15.25 -20.0 Q8.1 -20.1 6.1 -26.0 5.05 -29.0 5.5 -32.0 5.5 -36.8 7.25 -40.45 9.0 -44.15 9.0 -45.3 L8.4 -46.45 8.0 -46.95 7.85 -47.1 7.45 -47.6 3.6 -44.3 Q-2.05 -39.35 -5.0 -34.1 -10.7 -24.0 -11.5 -18.0 -12.2 -12.5 -12.8 -2.75 -13.5 7.7 -13.5 14.0 L-12.5 47.75 -13.35 67.75 Q-13.8 77.35 -13.35 84.55 L-13.2 86.55 -13.2 86.6 -13.1 87.3 -12.95 87.3 -8.05 87.35 Q1.45 87.4 13.3 86.75 L21.0 85.6 21.5 85.55 30.75 84.55 Q29.8 82.15 29.8 78.6 L29.95 76.1 Q28.75 76.75 25.0 77.55 L21.5 78.2 9.0 79.0 3.4 78.65 -2.45 78.5 -2.5 78.5 -2.6 78.5 -2.8 78.35 -2.9 78.2 Q-3.8 77.35 -3.95 75.75 -3.9 73.5 -4.0 72.55 L-4.25 66.55 -4.5 54.55 Q-4.5 49.85 -5.0 40.35 L-5.5 31.1 Q-5.5 23.85 -5.15 19.3 L-4.0 4.75 Q-3.65 0.35 -3.6 -8.65 -3.2 -16.45 -1.0 -21.0 L-0.25 -20.55 -0.1 -20.35 0.0 -20.5 Q0.9 -17.7 2.95 -15.2 7.0 -10.25 13.65 -10.25 17.55 -10.25 20.05 -11.0 22.15 -11.65 23.55 -12.85 L24.0 -13.25 25.0 -14.5 25.35 -15.0 Q27.1 -15.75 28.2 -16.75 29.25 -17.75 29.45 -18.8 L29.7 -18.75 29.7 -18.8 Q30.0 -23.9 29.8 -27.15 L29.8 -27.65 29.75 -27.8 29.75 -28.05 29.65 -28.75 29.6 -29.4 29.55 -29.7 29.5 -30.0 29.45 -30.3 29.35 -30.7 29.35 -30.85 29.15 -31.65 29.05 -32.1 29.0 -32.35 28.95 -32.65 28.9 -32.85 28.75 -33.35 28.65 -33.85 28.55 -34.05 28.5 -34.3 28.2 -35.1 28.05 -35.65 25.15 -40.3 M29.7 -38.8 Q30.35 -37.05 31.0 -33.1 32.3 -24.95 31.95 -16.6 L31.25 -16.5 Q31.55 -15.2 31.5 -13.55 L31.5 -8.5 Q32.0 -4.2 32.0 1.15 L31.0 26.3 31.75 52.4 32.5 84.4 32.5 84.5 32.55 84.5 32.8 84.65 Q33.0 84.75 33.0 85.5 L32.85 86.2 Q32.65 86.2 32.55 86.5 L20.5 88.35 Q9.35 90.0 -5.0 90.0 L-14.75 89.55 -14.75 89.25 Q-14.75 88.5 -15.1 88.05 L-15.9 87.35 -15.35 87.3 Q-15.7 86.5 -15.7 85.5 -15.4 82.95 -15.5 82.0 L-15.6 78.15 -15.5 75.0 -14.5 47.6 -15.5 13.65 -15.25 -3.3 Q-14.85 -13.95 -13.5 -19.25 -11.55 -27.05 -6.5 -35.75 -3.65 -40.5 -0.5 -43.85 3.35 -47.85 7.0 -49.0 L7.0 -49.25 7.25 -49.35 8.25 -49.5 Q10.15 -49.5 10.75 -47.6 L11.0 -45.55 Q11.0 -42.5 9.25 -39.25 7.5 -36.0 7.5 -31.65 7.5 -28.1 8.3 -26.25 10.0 -22.25 15.15 -22.25 18.85 -22.25 20.55 -27.5 21.4 -30.1 21.5 -32.75 21.5 -35.25 19.25 -39.3 17.0 -43.4 17.0 -46.05 17.0 -50.6 19.0 -50.8 21.45 -51.05 26.0 -44.35 28.55 -41.85 29.7 -38.8 M7.0 -9.35 Q4.4 -10.55 2.3 -12.7 0.3 -14.85 -0.5 -16.45 L-1.0 -12.85 -1.2 -9.8 -1.5 -6.5 -1.65 -0.1 Q-1.65 3.9 -2.0 6.25 -3.5 17.15 -3.5 31.5 L-2.7 51.15 -1.5 73.0 -1.5 76.5 -1.25 76.5 5.05 76.75 9.35 76.9 9.4 76.9 10.5 76.9 18.85 76.4 19.05 76.35 19.15 76.3 19.35 76.25 21.5 75.8 23.2 75.45 24.65 75.25 24.95 75.2 25.3 75.15 25.65 75.1 26.5 75.0 29.5 74.75 29.5 74.5 30.0 74.65 30.0 71.05 29.9 67.35 26.9 67.9 24.0 68.0 21.55 67.85 Q14.8 67.0 12.3 61.3 11.0 58.4 11.0 53.8 11.0 46.3 15.5 40.5 L18.6 36.5 Q20.0 34.35 20.0 32.25 20.0 28.25 15.5 23.2 11.0 18.15 11.0 12.85 11.0 6.7 13.85 2.4 16.45 -1.45 21.0 -3.1 23.0 -3.9 25.45 -4.2 L29.9 -4.5 29.7 -8.65 29.5 -12.5 29.55 -14.8 29.4 -14.45 29.35 -14.25 29.45 -15.7 Q28.45 -13.7 25.5 -11.6 L24.85 -11.15 24.75 -11.05 22.8 -10.0 21.6 -9.45 Q18.0 -8.0 13.75 -8.0 10.05 -8.0 7.0 -9.35 M29.05 -8.75 L29.1 -8.8 29.0 -7.7 29.05 -8.75 M22.4 65.7 L22.7 65.7 23.7 65.75 23.9 65.75 27.05 65.15 29.9 64.5 29.9 63.6 30.0 56.05 Q30.0 46.3 29.0 26.4 L30.0 7.0 29.95 -3.0 28.5 -2.8 Q25.5 -2.7 22.75 -1.35 L21.0 -0.3 20.25 0.05 Q17.45 1.45 15.75 4.05 15.35 4.6 14.2 8.3 13.0 12.1 13.0 12.85 13.0 17.5 17.5 22.25 19.55 24.4 20.7 26.75 22.0 29.45 22.0 32.35 22.0 33.7 21.4 35.3 20.35 38.15 17.5 41.9 13.0 47.75 13.0 53.55 13.0 57.6 14.25 60.3 16.55 65.15 22.4 65.7" fill="#000000" fill-rule="evenodd" stroke="none"/>
      <path d="M21.45 -46.2 L20.8 -46.8 21.05 -46.15 21.4 -45.15 19.6 -47.7 19.75 -47.85 21.45 -46.2 M-13.35 84.55 L-13.0 84.55 -13.2 86.55 -13.35 84.55 M9.3 76.85 Q7.9 65.65 8.1 47.65 8.8 22.45 8.8 11.35 L8.15 2.9 Q7.45 -4.85 7.0 -7.0 L7.0 -9.35 Q10.05 -8.0 13.75 -8.0 18.0 -8.0 21.6 -9.45 21.0 -7.0 21.0 -4.4 L21.0 -3.1 Q16.45 -1.45 13.85 2.4 11.0 6.7 11.0 12.85 11.0 18.15 15.5 23.2 20.0 28.25 20.0 32.25 20.0 34.35 18.6 36.5 L15.5 40.5 Q11.0 46.3 11.0 53.8 11.0 58.4 12.3 61.3 14.8 67.0 21.55 67.85 L21.5 71.25 21.5 75.8 19.35 76.25 19.15 76.3 19.05 76.35 18.85 76.4 10.5 76.9 9.3 76.85" fill="#7006a8" fill-rule="evenodd" stroke="none"/>
      <path d="M16.95 -20.1 L17.0 -19.5 Q16.4 -19.5 15.55 -19.85 L15.25 -20.0 15.5 -20.0 16.95 -20.1" fill="#52047b" fill-rule="evenodd" stroke="none"/>
      <path d="M21.4 -45.15 L21.05 -46.15 20.8 -46.8 21.45 -46.2 25.15 -40.3 24.25 -39.75 Q23.4 -42.05 21.4 -45.15 M21.5 75.8 L21.5 71.25 21.55 67.85 24.0 68.0 26.9 67.9 29.9 67.35 30.0 71.05 30.0 74.65 29.5 74.5 29.5 74.75 26.5 75.0 25.65 75.1 25.3 75.15 24.95 75.2 24.65 75.25 23.2 75.45 21.5 75.8 M21.0 -3.1 L21.0 -4.4 Q21.0 -7.0 21.6 -9.45 L22.8 -10.0 24.75 -11.05 24.85 -11.15 25.5 -11.6 Q28.45 -13.7 29.45 -15.7 L29.35 -14.25 29.4 -14.45 29.55 -14.8 29.5 -12.5 29.7 -8.65 29.9 -4.5 25.45 -4.2 Q23.0 -3.9 21.0 -3.1 M29.7 -18.8 L29.7 -18.75 29.45 -18.8 29.7 -18.8 M29.05 -8.75 L29.0 -7.7 29.1 -8.8 29.05 -8.75" fill="#9309dd" fill-rule="evenodd" stroke="none"/>
      <path d="M21.0 -0.3 L20.5 14.85 20.8 16.55 Q21.0 17.55 20.8 18.25 20.5 19.25 20.5 21.55 L20.7 26.75 Q19.55 24.4 17.5 22.25 13.0 17.5 13.0 12.85 13.0 12.1 14.2 8.3 15.35 4.6 15.75 4.05 17.45 1.45 20.25 0.05 L21.0 -0.3 M21.4 35.3 L22.0 42.25 Q22.6 50.2 22.0 55.75 L22.05 62.6 Q22.15 64.25 22.4 65.7 16.55 65.15 14.25 60.3 13.0 57.6 13.0 53.55 13.0 47.75 17.5 41.9 20.35 38.15 21.4 35.3" fill="#006262" fill-rule="evenodd" stroke="none"/>
      <path d="M21.4 -45.15 Q23.4 -42.05 24.25 -39.75 25.5 -36.35 25.5 -31.1 25.5 -27.15 24.3 -24.35 23.75 -23.05 23.0 -22.1 20.85 -19.5 17.0 -19.5 L16.95 -20.1 Q20.6 -20.85 22.35 -25.6 23.5 -28.85 23.5 -32.75 23.5 -36.9 21.25 -40.15 19.0 -43.4 19.0 -45.85 L19.1 -47.15 19.6 -47.7 21.4 -45.15 M-13.35 84.55 Q-13.8 77.35 -13.35 67.75 L-12.5 47.75 -13.5 14.0 Q-13.5 7.7 -12.8 -2.75 -12.2 -12.5 -11.5 -18.0 -10.7 -24.0 -5.0 -34.1 -2.05 -39.35 3.6 -44.3 L7.45 -47.6 7.85 -47.1 8.0 -46.95 8.0 -46.55 Q8.0 -45.85 4.35 -41.55 L0.5 -37.0 Q-2.65 -31.3 -3.85 -27.6 L-7.15 -18.4 Q-9.05 -12.75 -9.1 -9.25 L-10.0 27.6 -9.75 33.45 -9.5 41.75 -9.6 55.25 Q-9.6 60.15 -8.8 69.9 -8.0 79.7 -8.0 84.25 L-8.05 87.35 -12.95 87.3 -13.1 87.3 -13.2 86.6 -13.2 86.55 -13.0 84.55 -13.35 84.55 M9.35 76.9 L9.3 76.85 10.5 76.9 9.4 76.9 9.35 76.9" fill="#8e6c24" fill-rule="evenodd" stroke="none"/>
      <path d="M21.0 -0.3 L22.75 -1.35 Q25.5 -2.7 28.5 -2.8 L29.95 -3.0 30.0 7.0 29.0 26.4 Q30.0 46.3 30.0 56.05 L29.9 63.6 29.9 64.5 27.05 65.15 23.9 65.75 23.7 65.75 22.7 65.7 22.4 65.7 Q22.15 64.25 22.05 62.6 L22.0 55.75 Q22.6 50.2 22.0 42.25 L21.4 35.3 Q22.0 33.7 22.0 32.35 22.0 29.45 20.7 26.75 L20.5 21.55 Q20.5 19.25 20.8 18.25 21.0 17.55 20.8 16.55 L20.5 14.85 21.0 -0.3" fill="#00a6a6" fill-rule="evenodd" stroke="none"/>
      <path d="M17.0 -19.5 Q20.85 -19.5 23.0 -22.1 L23.0 -19.6 23.05 -16.6 22.55 -15.65 Q22.55 -14.8 22.8 -14.65 L23.2 -14.5 23.55 -12.85 Q22.15 -11.65 20.05 -11.0 17.55 -10.25 13.65 -10.25 7.0 -10.25 2.95 -15.2 0.9 -17.7 0.0 -20.5 L-0.25 -20.55 -1.0 -21.0 Q-3.2 -16.45 -3.6 -8.65 -3.65 0.35 -4.0 4.75 L-5.15 19.3 Q-5.5 23.85 -5.5 31.1 L-5.0 40.35 Q-4.5 49.85 -4.5 54.55 L-4.25 66.55 -4.0 72.55 Q-3.9 73.5 -3.95 75.75 -3.8 77.35 -2.9 78.2 L-2.8 78.35 -2.6 78.5 -2.5 78.5 -2.45 78.5 3.4 78.65 9.0 79.0 21.5 78.2 21.5 85.55 21.0 85.6 13.3 86.75 Q1.45 87.4 -8.05 87.35 L-8.0 84.25 Q-8.0 79.7 -8.8 69.9 -9.6 60.15 -9.6 55.25 L-9.5 41.75 -9.75 33.45 -10.0 27.6 -9.1 -9.25 Q-9.05 -12.75 -7.15 -18.4 L-3.85 -27.6 Q-2.65 -31.3 0.5 -37.0 L4.35 -41.55 Q8.0 -45.85 8.0 -46.55 L8.0 -46.95 8.4 -46.45 9.0 -45.3 Q9.0 -44.15 7.25 -40.45 5.5 -36.8 5.5 -32.0 5.05 -29.0 6.1 -26.0 8.1 -20.1 15.25 -20.0 L15.55 -19.85 Q16.4 -19.5 17.0 -19.5" fill="#cc9d3c" fill-rule="evenodd" stroke="none"/>
      <path d="M24.25 -39.75 L25.15 -40.3 28.05 -35.65 28.2 -35.1 28.5 -34.3 28.55 -34.05 28.65 -33.85 28.75 -33.35 28.9 -32.85 28.95 -32.65 29.0 -32.35 29.05 -32.1 29.15 -31.65 29.35 -30.85 29.35 -30.7 29.45 -30.3 29.5 -30.0 29.55 -29.7 29.6 -29.4 29.65 -28.75 29.75 -28.05 29.75 -27.8 29.8 -27.65 29.8 -27.15 Q30.0 -23.9 29.7 -18.8 L29.45 -18.8 Q29.25 -17.75 28.2 -16.75 27.1 -15.75 25.35 -15.0 L25.0 -14.5 24.0 -13.25 23.55 -12.85 23.2 -14.5 22.8 -14.65 Q22.55 -14.8 22.55 -15.65 L23.05 -16.6 23.0 -19.6 23.0 -22.1 Q23.75 -23.05 24.3 -24.35 25.5 -27.15 25.5 -31.1 25.5 -36.35 24.25 -39.75 M21.5 78.2 L25.0 77.55 Q28.75 76.75 29.95 76.1 L29.8 78.6 Q29.8 82.15 30.75 84.55 L21.5 85.55 21.5 78.2" fill="#dab974" fill-rule="evenodd" stroke="none"/>
      <path d="M7.0 -9.35 L7.0 -7.0 Q7.45 -4.85 8.15 2.9 L8.8 11.35 Q8.8 22.45 8.1 47.65 7.9 65.65 9.3 76.85 L9.35 76.9 5.05 76.75 -1.25 76.5 -1.5 76.5 -1.5 73.0 -2.7 51.15 -3.5 31.5 Q-3.5 17.15 -2.0 6.25 -1.65 3.9 -1.65 -0.1 L-1.5 -6.5 -1.2 -9.8 -1.0 -12.85 -0.5 -16.45 Q0.3 -14.85 2.3 -12.7 4.4 -10.55 7.0 -9.35" fill="#440367" fill-rule="evenodd" stroke="none"/>
    </g>
    <g id="shape4" transform="matrix(1.0, 0.0, 0.0, 1.0, 16.0, 80.5)">
      <path d="M4.45 -50.95 L5.35 -48.15 6.5 -43.75 Q6.5 -42.9 5.0 -41.1 L5.0 -38.5 5.3 -38.65 5.35 -38.7 5.55 -38.8 8.1 -40.25 9.3 -40.9 9.8 -41.2 14.55 -44.0 Q15.45 -44.6 16.1 -46.9 16.6 -48.75 17.5 -49.6 L17.65 -49.7 18.0 -50.0 Q18.75 -49.2 18.95 -47.15 L19.0 -43.75 Q19.0 -37.75 18.05 -35.75 16.4 -32.25 9.3 -27.5 7.6 -26.35 7.35 -23.6 L7.0 -20.95 7.0 -21.0 Q7.5 -20.35 7.8 -18.85 L8.0 -17.15 Q8.0 -13.35 5.3 -10.0 L5.3 -9.9 5.5 -8.0 5.25 -4.55 Q6.25 -4.25 6.7 -2.8 7.0 -1.75 7.0 1.15 7.0 5.0 4.65 7.05 5.0 7.65 4.95 8.75 L4.55 11.25 4.45 13.75 4.5 16.05 Q4.5 20.0 5.75 27.1 7.0 34.25 7.0 38.9 7.0 46.05 6.25 53.6 5.5 61.2 5.5 71.75 L5.45 82.8 Q5.4 84.15 5.5 85.05 L6.25 87.0 7.0 89.25 Q7.0 90.4 2.0 94.3 -3.4 98.5 -6.5 98.5 -9.45 98.5 -10.05 95.8 L-10.0 92.9 -10.0 90.3 Q-9.75 89.7 -9.5 89.6 L-5.5 88.8 Q-4.5 85.8 -4.5 84.0 L-4.5 55.5 -4.05 55.2 -4.1 54.35 Q-3.9 51.05 -4.0 49.75 -4.2 45.95 -4.0 40.3 -3.95 38.85 -4.65 35.65 L-5.5 31.0 -5.55 25.7 -5.5 21.75 -5.45 16.35 -5.3 14.85 -5.5 15.0 -6.35 14.2 -6.5 13.0 Q-6.5 11.9 -5.9 10.5 L-6.0 9.9 Q-6.0 8.4 -4.6 6.6 L-4.6 6.55 -4.5 5.05 -4.75 4.0 -5.0 2.6 Q-5.0 1.4 -4.4 -1.65 L-4.15 -2.85 Q-5.25 -2.2 -6.5 -1.5 -7.25 -2.05 -7.45 -3.05 L-7.5 -4.75 Q-7.5 -7.9 -7.3 -8.65 -6.8 -10.7 -4.7 -12.8 L-5.4 -16.15 -5.5 -22.15 -5.45 -24.8 -5.15 -26.2 -8.15 -28.95 -12.35 -33.0 Q-15.15 -35.4 -15.7 -36.6 -16.0 -37.3 -16.0 -39.75 -16.0 -41.95 -15.1 -44.7 -13.95 -48.35 -12.0 -48.5 L-11.95 -48.5 -11.25 -48.35 Q-11.0 -48.3 -11.0 -47.5 L-11.05 -47.4 -10.45 -45.75 Q-9.95 -43.3 -9.4 -42.3 L-9.35 -42.25 Q-8.75 -41.2 -6.75 -39.6 L-3.75 -37.25 Q-3.45 -37.9 -3.45 -40.25 -3.4 -42.45 -2.6 -43.75 L-2.5 -43.85 -2.5 -43.9 -2.15 -44.35 -1.7 -45.05 -0.65 -46.65 Q0.75 -48.8 1.0 -50.1 1.6 -53.1 2.4 -53.45 L3.45 -52.9 4.05 -51.9 4.05 -51.85 4.45 -50.95 M17.0 -43.1 L16.8 -43.5 16.75 -43.4 13.7 -40.85 Q11.4 -39.05 11.0 -39.0 9.15 -38.6 6.7 -36.4 L4.85 -34.65 4.0 -34.0 Q3.25 -34.8 3.05 -36.15 L3.0 -38.15 3.0 -41.35 3.85 -42.75 4.5 -44.0 3.75 -46.45 3.65 -46.8 3.0 -48.85 2.8 -49.1 2.8 -49.05 0.7 -45.6 Q-1.0 -43.0 -1.25 -42.0 -1.6 -40.7 -1.6 -38.6 L-1.6 -34.85 -1.75 -34.65 -2.05 -34.55 -2.75 -34.5 Q-3.95 -34.5 -7.4 -37.25 -10.65 -39.85 -11.25 -40.85 -12.0 -42.2 -12.45 -43.85 L-12.5 -44.15 Q-14.0 -40.8 -14.0 -40.0 -14.0 -37.45 -10.8 -33.75 -8.05 -30.6 -3.5 -27.1 L-3.7 -26.4 -4.1 -26.1 Q-3.3 -23.85 -3.15 -20.35 L-2.5 -13.6 -2.5 -12.85 0.2 -15.6 0.3 -15.65 0.4 -15.8 0.8 -16.15 3.3 -18.75 Q4.2 -20.3 4.85 -22.65 L5.8 -25.85 Q6.5 -27.7 8.95 -29.35 L12.8 -32.25 Q13.95 -33.45 15.15 -35.7 L17.0 -39.0 17.0 -42.45 17.0 -43.1 M5.65 -17.3 L5.7 -18.0 5.35 -17.55 2.95 -15.05 Q0.65 -13.05 -2.0 -11.5 L-2.5 -11.8 -2.5 -11.0 -2.9 -10.8 -3.5 -10.5 -3.65 -10.75 -4.1 -9.3 -5.5 -5.6 Q-0.35 -6.15 4.5 -12.85 5.5 -14.25 5.65 -17.3 M-1.55 3.55 Q1.3 0.75 2.0 -1.1 L3.05 -7.0 3.2 -7.9 Q1.25 -6.2 -1.9 -4.2 L-2.8 -3.65 -2.55 -2.15 -2.5 1.25 Q-2.5 3.2 -2.65 4.6 L-1.55 3.55 M-4.0 10.3 Q-2.95 10.3 -0.8 8.55 L2.05 6.3 Q4.3 5.2 4.8 3.7 5.0 3.15 5.0 0.85 L4.35 -1.05 Q3.55 0.95 2.3 2.55 -1.7 6.7 -4.3 10.1 L-4.45 10.25 -4.0 10.3 M-0.7 93.4 L4.8 89.3 Q4.8 88.55 4.15 87.1 3.5 85.6 3.5 84.8 L3.5 71.65 Q3.5 61.9 4.25 50.6 L5.0 38.85 Q5.0 34.95 4.8 33.95 L3.5 27.5 Q3.05 25.1 2.75 20.9 L2.5 16.15 2.6 10.8 3.1 8.25 -1.55 11.65 -3.6 13.3 -3.9 13.55 Q-3.65 14.95 -3.55 16.75 L-3.5 17.25 -3.5 17.75 -3.5 17.9 -3.5 17.95 -3.5 18.25 -3.55 20.35 -3.55 20.65 -3.55 20.85 Q-3.85 27.25 -3.5 29.3 L-3.25 30.9 -2.1 41.75 -2.05 43.55 -2.0 46.9 -2.1 58.55 -2.3 58.65 -2.3 58.95 -2.5 63.5 Q-2.4 65.05 -2.45 68.1 L-2.5 71.75 -2.5 81.45 -2.5 82.25 -2.45 83.85 -2.45 83.9 -2.2 87.5 Q-2.85 90.95 -8.0 91.75 L-8.0 94.3 -7.45 95.4 Q-7.15 96.25 -6.5 96.25 -4.95 96.25 -0.75 93.4 L-0.7 93.4" fill="#000000" fill-rule="evenodd" stroke="none"/>
      <path d="M-12.45 -43.85 Q-12.0 -42.2 -11.25 -40.85 L-11.65 -40.65 Q-12.55 -42.45 -12.45 -43.85 M3.65 -46.8 L3.75 -46.45 3.55 -46.55 3.65 -46.8 M-0.7 93.4 L-0.75 93.4 -0.75 93.3 -0.7 93.4 M-2.45 83.85 L-2.5 82.25 -2.5 81.45 -2.4 82.25 -2.45 83.85 M-3.25 30.9 L-3.5 29.3 Q-3.85 27.25 -3.55 20.85 L-3.55 22.7 -3.5 26.35 -3.35 30.15 -3.25 30.9 M-3.55 16.75 Q-3.65 14.95 -3.9 13.55 L-3.6 13.3 -3.55 16.75 M-2.55 -27.75 L-2.6 -27.1 -2.8 -27.65 -2.55 -27.75" fill="#b49789" fill-rule="evenodd" stroke="none"/>
      <path d="M5.35 -17.55 L5.65 -17.3 Q5.5 -14.25 4.5 -12.85 -0.35 -6.15 -5.5 -5.6 L-4.1 -9.3 -3.65 -10.75 -3.5 -10.5 -2.9 -10.8 -2.5 -11.0 -2.5 -11.8 -2.0 -11.5 Q0.65 -13.05 2.95 -15.05 L5.35 -17.55 M-4.3 10.1 Q-1.7 6.7 2.3 2.55 3.55 0.95 4.35 -1.05 L5.0 0.85 Q5.0 3.15 4.8 3.7 4.3 5.2 2.05 6.3 L-0.8 8.55 Q-2.95 10.3 -4.0 10.3 L-4.3 10.1" fill="#d8b469" fill-rule="evenodd" stroke="none"/>
      <path d="M16.75 -43.4 L17.0 -43.1 17.0 -42.45 Q15.5 -40.2 11.8 -36.45 L5.0 -30.0 4.15 -30.7 Q4.0 -30.95 4.0 -31.9 4.0 -33.1 4.85 -34.65 L6.7 -36.4 Q9.15 -38.6 11.0 -39.0 11.4 -39.05 13.7 -40.85 L16.75 -43.4 M0.8 -16.15 L0.4 -15.8 0.3 -15.65 0.2 -15.6 -2.5 -12.85 -2.5 -13.6 -3.15 -20.35 Q-3.3 -23.85 -4.1 -26.1 L-3.7 -26.4 -3.5 -27.1 Q-8.05 -30.6 -10.8 -33.75 -14.0 -37.45 -14.0 -40.0 -14.0 -40.8 -12.5 -44.15 L-12.45 -43.85 Q-12.55 -42.45 -11.65 -40.65 L-10.35 -38.55 -4.6 -31.35 Q-3.5 -29.8 -2.8 -27.65 L-2.6 -27.1 -2.55 -27.75 Q-2.25 -28.75 -1.7 -29.0 L-2.0 -31.25 -2.05 -34.55 -1.75 -34.65 -1.6 -34.85 -1.6 -38.6 Q-1.6 -40.7 -1.25 -42.0 -1.0 -43.0 0.7 -45.6 L2.8 -49.05 3.0 -48.85 3.65 -46.8 3.55 -46.55 2.4 -43.7 Q0.65 -39.75 0.5 -38.75 0.15 -36.95 0.55 -33.4 L1.0 -29.35 Q1.0 -27.9 0.5 -27.1 0.95 -27.0 -0.05 -27.0 L0.5 -19.7 0.8 -16.15 M-1.9 -4.2 Q-1.65 -3.6 -1.55 -2.7 L-1.5 -0.1 -1.55 3.55 -2.65 4.6 Q-2.5 3.2 -2.5 1.25 L-2.55 -2.15 -2.8 -3.65 -1.9 -4.2 M-0.75 93.4 Q-4.95 96.25 -6.5 96.25 -7.15 96.25 -7.45 95.4 L-8.0 94.3 -8.0 91.75 Q-2.85 90.95 -2.2 87.5 L-2.45 83.9 -2.45 83.85 -2.4 82.25 -2.5 81.45 -2.5 71.75 -2.45 68.1 Q-2.4 65.05 -2.5 63.5 L-2.3 58.95 -2.3 58.65 -2.1 58.55 -2.0 46.9 -2.05 43.55 -2.1 41.75 -3.25 30.9 -3.35 30.15 -3.5 26.35 -3.55 22.7 -3.55 20.85 -3.55 20.65 -3.55 20.35 -3.5 18.25 -3.5 17.95 -3.5 17.9 -3.5 17.75 -3.5 17.25 -3.55 16.75 -3.6 13.3 -1.55 11.65 Q-1.2 13.1 -1.1 15.05 L-1.0 21.3 0.0 33.0 0.6 38.8 Q0.9 42.25 0.5 44.55 -0.4 49.85 -0.1 51.55 0.5 54.65 0.5 56.0 L0.5 64.4 Q0.4 72.75 0.0 77.25 L-0.65 82.45 -1.0 87.75 -0.75 93.3 -0.75 93.4" fill="#d0b591" fill-rule="evenodd" stroke="none"/>
      <path d="M-0.4 -73.7 Q0.55 -73.9 1.9 -75.05 3.25 -76.2 4.05 -76.05 5.25 -75.8 6.8 -72.85 L9.0 -69.1 Q9.45 -68.3 12.05 -64.9 L14.5 -61.6 11.75 -59.05 10.1 -57.1 10.2 -56.95 Q9.55 -58.15 7.05 -57.75 7.0 -54.25 6.0 -50.0 L5.35 -48.15 4.45 -50.95 4.5 -52.05 4.05 -59.85 Q3.45 -67.3 2.5 -69.0 1.25 -68.3 0.15 -65.05 L0.1 -65.45 -0.5 -69.6 -0.4 -73.55 -0.4 -73.7 M17.5 -49.6 L17.5 -50.1 17.65 -49.7 17.5 -49.6 M-0.75 -58.0 Q0.4 -54.0 1.5 -52.0 1.9 -53.25 2.4 -53.45 1.6 -53.1 1.0 -50.1 0.75 -48.8 -0.65 -46.65 L-1.7 -45.05 Q-2.05 -47.95 -3.0 -49.1 L-8.5 -55.05 -8.75 -55.3 -7.25 -58.5 -5.15 -63.35 -3.55 -60.3 Q-2.2 -58.0 -1.25 -58.0 L-0.75 -58.0" fill="#00a6a6" fill-rule="evenodd" stroke="none"/>
      <path d="M-0.4 -73.7 L-0.4 -73.55 -0.5 -69.6 0.1 -65.45 0.15 -65.05 0.5 -62.15 0.5 -62.1 Q0.5 -60.9 -0.5 -58.1 L-0.4 -58.05 -0.75 -58.0 -1.25 -58.0 Q-2.2 -58.0 -3.55 -60.3 L-5.15 -63.35 -5.2 -63.45 -5.25 -63.5 -6.4 -65.7 -6.6 -66.15 -5.85 -68.1 -4.75 -72.55 Q-4.15 -75.2 -3.1 -76.75 L-2.55 -77.45 -2.3 -77.55 -1.6 -77.0 Q-0.45 -76.0 -0.4 -73.7 M5.35 -48.15 L6.0 -50.0 Q7.0 -54.25 7.05 -57.75 9.55 -58.15 10.2 -56.95 L10.2 -56.9 Q10.5 -56.35 10.5 -54.1 L10.5 -53.35 Q10.45 -45.0 9.3 -40.9 L8.1 -40.25 5.55 -38.8 5.35 -38.7 5.3 -38.65 5.0 -38.5 5.0 -41.1 Q6.5 -42.9 6.5 -43.75 L5.35 -48.15 M-1.7 -45.05 L-2.15 -44.35 -2.5 -43.9 -2.5 -43.85 -2.6 -43.75 Q-3.4 -42.45 -3.45 -40.25 -3.45 -37.9 -3.75 -37.25 L-6.75 -39.6 Q-8.75 -41.2 -9.35 -42.25 L-9.4 -42.3 Q-9.95 -43.3 -10.45 -45.75 L-11.05 -47.4 -11.0 -47.5 Q-11.0 -48.3 -11.25 -48.35 L-11.95 -48.5 -12.0 -50.65 Q-12.0 -54.0 -10.75 -57.2 L-8.75 -55.3 -8.5 -55.05 -3.0 -49.1 Q-2.05 -47.95 -1.7 -45.05" fill="#006262" fill-rule="evenodd" stroke="none"/>
      <path d="M10.2 -56.95 L10.1 -57.1 11.75 -59.05 14.5 -61.6 12.05 -64.9 Q9.45 -68.3 9.0 -69.1 L6.8 -72.85 Q5.25 -75.8 4.05 -76.05 3.25 -76.2 1.9 -75.05 0.55 -73.9 -0.4 -73.7 -0.45 -76.0 -1.6 -77.0 L-2.3 -77.55 3.25 -79.5 4.4 -79.9 4.75 -79.75 5.0 -80.1 5.05 -80.15 Q5.3 -80.5 6.0 -80.5 6.95 -80.5 7.6 -78.25 8.95 -73.8 10.8 -70.0 11.25 -69.05 14.55 -64.2 L16.5 -61.25 16.25 -57.5 16.3 -53.0 16.8 -52.9 17.5 -50.1 17.5 -49.6 Q16.6 -48.75 16.1 -46.9 15.45 -44.6 14.55 -44.0 L9.8 -41.2 9.3 -40.9 Q10.45 -45.0 10.5 -53.35 L10.5 -54.1 Q10.5 -56.35 10.2 -56.9 L10.2 -56.95 M0.15 -65.05 Q1.25 -68.3 2.5 -69.0 3.45 -67.3 4.05 -59.85 L4.5 -52.05 4.45 -50.95 4.05 -51.85 4.05 -51.9 3.45 -52.9 2.4 -53.45 Q1.9 -53.25 1.5 -52.0 0.4 -54.0 -0.75 -58.0 L-0.4 -58.05 -0.5 -58.1 Q0.5 -60.9 0.5 -62.1 L0.5 -62.15 0.15 -65.05 M-6.6 -66.15 L-6.4 -65.7 -5.25 -63.5 -5.2 -63.45 -5.15 -63.35 -7.25 -58.5 -8.75 -55.3 -10.75 -57.2 -10.05 -58.9 -6.6 -66.15" fill="#00d9d9" fill-rule="evenodd" stroke="none"/>
      <path d="M17.0 -42.45 L17.0 -39.0 15.15 -35.7 Q13.95 -33.45 12.8 -32.25 L8.95 -29.35 Q6.5 -27.7 5.8 -25.85 L4.85 -22.65 Q4.2 -20.3 3.3 -18.75 L0.8 -16.15 0.5 -19.7 -0.05 -27.0 Q0.95 -27.0 0.5 -27.1 1.0 -27.9 1.0 -29.35 L0.55 -33.4 Q0.15 -36.95 0.5 -38.75 0.65 -39.75 2.4 -43.7 L3.55 -46.55 3.75 -46.45 4.5 -44.0 3.85 -42.75 3.0 -41.35 3.0 -38.15 3.05 -36.15 Q3.25 -34.8 4.0 -34.0 L4.85 -34.65 Q4.0 -33.1 4.0 -31.9 4.0 -30.95 4.15 -30.7 L5.0 -30.0 11.8 -36.45 Q15.5 -40.2 17.0 -42.45 M-11.25 -40.85 Q-10.65 -39.85 -7.4 -37.25 -3.95 -34.5 -2.75 -34.5 L-2.05 -34.55 -2.0 -31.25 -1.7 -29.0 Q-2.25 -28.75 -2.55 -27.75 L-2.8 -27.65 Q-3.5 -29.8 -4.6 -31.35 L-10.35 -38.55 -11.65 -40.65 -11.25 -40.85 M-1.9 -4.2 Q1.25 -6.2 3.2 -7.9 L3.05 -7.0 2.0 -1.1 Q1.3 0.75 -1.55 3.55 L-1.5 -0.1 -1.55 -2.7 Q-1.65 -3.6 -1.9 -4.2 M-1.55 11.65 L3.1 8.25 2.6 10.8 2.5 16.15 2.75 20.9 Q3.05 25.1 3.5 27.5 L4.8 33.95 Q5.0 34.95 5.0 38.85 L4.25 50.6 Q3.5 61.9 3.5 71.65 L3.5 84.8 Q3.5 85.6 4.15 87.1 4.8 88.55 4.8 89.3 L-0.7 93.4 -0.75 93.3 -1.0 87.75 -0.65 82.45 0.0 77.25 Q0.4 72.75 0.5 64.4 L0.5 56.0 Q0.5 54.65 -0.1 51.55 -0.4 49.85 0.5 44.55 0.9 42.25 0.6 38.8 L0.0 33.0 -1.0 21.3 -1.1 15.05 Q-1.2 13.1 -1.55 11.65" fill="#966d59" fill-rule="evenodd" stroke="none"/>
    </g>
    <g id="shape5" transform="matrix(1.0, 0.0, 0.0, 1.0, 19.5, 27.2)">
      <path d="M11.35 -23.85 L3.0 -23.0 -3.1 -21.4 Q-7.0 -20.3 -8.5 -19.0 -6.45 -18.2 -4.65 -16.85 L-1.45 -14.65 Q3.4 -12.05 17.55 -10.75 L21.0 -10.75 Q20.05 -15.5 17.0 -20.0 14.65 -23.4 11.35 -23.85 M4.0 1.7 L4.05 -0.3 4.1 -1.7 Q4.35 -3.55 5.0 -4.7 -0.6 -5.85 -5.1 -8.15 L-6.45 -3.4 -6.75 -2.45 -7.6 0.55 -7.75 1.1 -8.5 4.9 Q-4.05 6.75 -0.05 6.75 L4.35 6.3 4.05 5.25 4.0 3.0 4.0 2.9 4.0 1.7 M17.75 -3.5 L7.0 -4.3 7.0 -4.25 6.6 -0.35 6.5 0.2 6.35 1.45 6.15 2.95 5.85 6.15 10.5 5.5 Q15.3 4.9 16.0 4.5 L17.5 3.4 17.5 3.05 17.5 1.55 17.6 0.35 17.6 0.25 17.65 -0.45 17.75 -1.45 17.9 -3.0 17.95 -3.45 17.95 -3.5 17.75 -3.5 M19.8 -0.9 Q19.5 2.35 19.5 4.05 19.5 6.0 18.0 6.6 L17.5 6.75 16.75 11.15 Q16.0 14.4 16.0 16.55 L16.2 19.05 16.25 21.5 Q15.9 21.95 10.55 22.75 L6.5 23.25 6.5 23.5 8.0 26.0 9.8 30.05 9.85 30.15 10.2 30.2 Q10.5 30.3 10.5 31.05 L13.2 34.0 Q15.5 36.4 15.5 37.9 15.5 40.5 11.75 44.05 7.6 48.0 3.25 48.0 -0.8 48.0 -10.0 35.05 -18.5 23.05 -18.5 21.15 L-18.45 20.65 Q-19.5 19.9 -19.5 19.15 -19.5 17.3 -18.25 9.8 L-17.6 7.55 -17.0 5.3 -16.9 3.4 -16.6 2.2 Q-17.65 1.1 -17.9 0.3 L-17.9 -1.3 Q-17.5 -3.65 -15.55 -8.3 L-12.95 -13.8 Q-14.5 -15.6 -14.5 -17.25 -14.5 -19.4 -7.55 -22.2 -1.1 -24.85 3.5 -25.25 11.4 -30.55 18.05 -21.5 20.45 -18.2 22.1 -13.75 23.5 -9.85 23.5 -7.55 L23.35 -4.75 Q22.7 -3.8 19.95 -3.55 L20.0 -3.15 20.0 -3.0 19.8 -0.9 M21.5 -8.35 Q1.9 -9.5 -3.9 -13.25 L-7.1 -15.7 Q-8.85 -16.8 -12.5 -16.85 L-10.75 -14.6 Q-8.9 -12.5 -6.25 -10.85 2.1 -5.75 17.65 -5.75 L21.5 -6.25 21.5 -8.35 M15.2 7.05 L8.35 8.2 0.25 9.0 Q-7.65 9.0 -13.5 4.8 L-15.0 3.65 -15.0 4.75 -16.0 11.25 -17.5 18.8 Q-15.9 19.65 -13.4 20.35 -8.6 21.75 -1.55 21.75 L8.4 21.45 14.3 19.75 Q14.0 18.55 14.0 15.75 14.0 11.4 14.15 10.35 14.4 8.35 15.2 7.05 M2.35 24.0 L3.15 23.6 2.3 23.7 -1.75 24.0 Q-6.15 24.0 -12.1 22.75 L-16.15 21.7 -11.0 29.95 -11.0 29.9 Q-11.0 29.4 -9.3 29.1 -6.65 28.65 -4.5 27.55 -3.05 27.1 -0.85 25.8 L2.35 24.0 M4.85 25.3 Q1.9 27.35 -6.5 31.0 L-10.3 31.0 -7.9 34.7 -4.4 39.4 2.55 34.6 8.0 31.1 Q6.0 28.2 4.85 25.3 M9.35 32.95 Q6.45 35.65 -3.5 40.5 0.9 45.75 3.3 45.75 6.8 45.75 10.3 42.25 13.3 39.25 13.3 37.85 L9.55 33.25 9.35 32.95 M-9.7 -0.9 L-8.9 -3.6 -8.6 -4.4 Q-7.5 -7.75 -6.55 -8.95 L-7.1 -9.25 Q-9.8 -10.85 -11.5 -12.35 -11.7 -10.7 -13.1 -7.4 L-13.6 -6.3 -14.5 -4.35 -14.9 -3.35 Q-15.75 -1.25 -15.75 -0.35 -15.75 1.4 -10.5 4.0 L-10.25 4.1 -10.3 3.95 -10.5 2.9 -10.0 0.1 -9.7 -0.9" fill="#000000" fill-rule="evenodd" stroke="none"/>
      <path d="M15.2 7.05 Q14.4 8.35 14.15 10.35 14.0 11.4 14.0 15.75 14.0 18.55 14.3 19.75 L8.4 21.45 -1.55 21.75 Q-8.6 21.75 -13.4 20.35 -15.9 19.65 -17.5 18.8 L-16.0 11.25 -15.0 4.75 -15.0 3.65 -13.5 4.8 Q-7.65 9.0 0.25 9.0 L8.35 8.2 15.2 7.05" fill="#530176" fill-rule="evenodd" stroke="none"/>
      <path d="M2.3 23.7 L2.35 24.0 -0.85 25.8 Q-3.05 27.1 -4.5 27.55 -6.65 28.65 -9.3 29.1 -11.0 29.4 -11.0 29.9 L-11.0 29.95 -16.15 21.7 -12.1 22.75 Q-6.15 24.0 -1.75 24.0 L2.3 23.7 M9.35 32.95 L9.55 33.25 13.3 37.85 Q13.3 39.25 10.3 42.25 6.8 45.75 3.3 45.75 0.9 45.75 -3.5 40.5 6.45 35.65 9.35 32.95" fill="#4e3729" fill-rule="evenodd" stroke="none"/>
      <path d="M21.5 -8.35 L21.5 -6.25 17.65 -5.75 Q2.1 -5.75 -6.25 -10.85 -8.9 -12.5 -10.75 -14.6 L-12.5 -16.85 Q-8.85 -16.8 -7.1 -15.7 L-3.9 -13.25 Q1.9 -9.5 21.5 -8.35 M4.85 25.3 Q6.0 28.2 8.0 31.1 L2.55 34.6 -4.4 39.4 -7.9 34.7 -10.3 31.0 -6.5 31.0 Q1.9 27.35 4.85 25.3" fill="#cc9d3c" fill-rule="evenodd" stroke="none"/>
      <path d="M11.35 -23.85 Q14.65 -23.4 17.0 -20.0 20.05 -15.5 21.0 -10.75 L17.55 -10.75 Q3.4 -12.05 -1.45 -14.65 L-4.65 -16.85 Q-6.45 -18.2 -8.5 -19.0 -7.0 -20.3 -3.1 -21.4 L3.0 -23.0 11.35 -23.85" fill="#393b45" fill-rule="evenodd" stroke="none"/>
      <path d="M-7.6 0.55 L-6.75 -2.45 -6.45 -3.4 -5.1 -8.15 Q-0.6 -5.85 5.0 -4.7 4.35 -3.55 4.1 -1.7 L4.05 -0.3 4.0 1.7 -2.85 1.25 -7.15 0.65 -7.6 0.55 M6.35 1.45 L6.5 0.2 6.6 -0.35 7.0 -4.25 7.0 -4.3 17.75 -3.5 17.95 -3.45 17.9 -3.0 17.75 -1.45 17.65 -0.45 13.75 0.25 Q8.6 0.8 6.35 1.45 M-9.7 -0.9 L-12.85 -3.4 Q-13.7 -4.1 -14.5 -4.35 L-13.6 -6.3 -13.1 -7.4 Q-11.7 -10.7 -11.5 -12.35 -9.8 -10.85 -7.1 -9.25 L-6.55 -8.95 Q-7.5 -7.75 -8.6 -4.4 L-8.9 -3.6 -9.7 -0.9" fill="#d8d8d8" fill-rule="evenodd" stroke="none"/>
      <path d="M-7.6 0.55 L-7.15 0.65 -2.85 1.25 4.0 1.7 4.0 2.9 4.0 3.0 4.05 5.25 4.35 6.3 -0.05 6.75 Q-4.05 6.75 -8.5 4.9 L-7.75 1.1 -7.6 0.55 M6.35 1.45 Q8.6 0.8 13.75 0.25 L17.65 -0.45 17.6 0.25 17.6 0.35 17.5 1.55 17.5 3.05 17.5 3.4 16.0 4.5 Q15.3 4.9 10.5 5.5 L5.85 6.15 6.15 2.95 6.35 1.45 M20.0 -3.0 L20.05 -3.0 20.3 -2.85 20.5 -2.0 Q20.5 -1.45 19.8 -0.9 L20.0 -3.0 M-14.5 -4.35 Q-13.7 -4.1 -12.85 -3.4 L-9.7 -0.9 -10.0 0.1 -10.5 2.9 -10.3 3.95 -10.5 4.0 Q-15.75 1.4 -15.75 -0.35 -15.75 -1.25 -14.9 -3.35 L-14.5 -4.35" fill="#006262" fill-rule="evenodd" stroke="none"/>
    </g>
    <g id="shape6" transform="matrix(1.0, 0.0, 0.0, 1.0, -10.0, 119.0)">
      <path d="M49.7 -118.15 Q64.35 -116.35 69.45 -113.95 72.65 -112.4 79.1 -107.85 87.45 -103.0 88.85 -100.6 89.2 -99.8 89.35 -93.65 89.65 -83.6 83.3 -74.7 72.5 -59.8 46.5 -59.1 35.7 -58.8 31.65 -61.4 30.1 -62.5 27.8 -62.8 25.1 -63.15 24.1 -63.55 17.2 -67.2 15.2 -70.25 12.15 -74.95 11.05 -77.9 10.1 -80.5 10.0 -83.85 9.85 -90.1 13.0 -95.1 16.05 -100.15 23.75 -105.95 34.05 -113.9 45.75 -119.0 L49.65 -118.7 49.7 -118.15 M41.55 -101.75 Q32.8 -98.6 29.9 -95.0 27.4 -92.05 27.55 -85.85 27.65 -81.95 28.15 -80.4 29.0 -77.4 31.95 -74.9 34.75 -72.6 39.9 -70.35 46.8 -67.25 52.45 -67.45 62.95 -67.7 68.7 -76.5 72.9 -82.75 72.75 -87.4 L72.6 -92.0 Q72.0 -94.65 69.2 -96.9 66.65 -98.65 60.95 -100.45 L60.0 -100.6 Q59.1 -101.15 57.9 -101.5 L56.85 -103.0 41.95 -102.6 41.55 -101.75" fill="#00a6a6" fill-opacity="0.49803922" fill-rule="evenodd" stroke="none"/>
      <path d="M41.55 -101.75 L41.95 -102.6 56.85 -103.0 57.9 -101.5 Q59.1 -101.15 60.0 -100.6 L60.95 -100.45 Q66.65 -98.65 69.2 -96.9 72.0 -94.65 72.6 -92.0 L72.75 -87.4 Q72.9 -82.75 68.7 -76.5 62.95 -67.7 52.45 -67.45 46.8 -67.25 39.9 -70.35 34.75 -72.6 31.95 -74.9 29.0 -77.4 28.15 -80.4 27.65 -81.95 27.55 -85.85 27.4 -92.05 29.9 -95.0 32.8 -98.6 41.55 -101.75" fill="#00f9f9" fill-opacity="0.49803922" fill-rule="evenodd" stroke="none"/>
      <path d="M49.65 -118.7 L51.45 -118.75 52.25 -118.8 50.7 -118.45 49.7 -118.15 49.65 -118.7" fill="#ff6633" fill-opacity="0.49803922" fill-rule="evenodd" stroke="none"/>
    </g>
  </defs>
</svg>
