<?xml version="1.0" encoding="UTF-8" standalone="no"?>
<svg xmlns:ffdec="https://www.free-decompiler.com/flash" xmlns:xlink="http://www.w3.org/1999/xlink" ffdec:objectType="frame" height="212.55px" width="398.95px" xmlns="http://www.w3.org/2000/svg">
  <g transform="matrix(1.0, 0.0, 0.0, 1.0, 194.95, 196.05)">
    <use ffdec:characterId="439" height="74.8" transform="matrix(1.2957, 0.6057, -0.6057, 1.2957, 4.0343, -122.576)" width="39.6" xlink:href="#shape0"/>
    <use ffdec:characterId="434" height="179.0" transform="matrix(0.7485, -0.6587, 0.6587, 0.7485, -18.3537, -147.4675)" width="35.0" xlink:href="#shape1"/>
    <use ffdec:characterId="440" height="101.5" transform="matrix(0.9976, -0.0565, 0.0565, 0.9976, -67.9348, -86.5609)" width="170.0" xlink:href="#shape2"/>
    <use ffdec:characterId="432" height="123.05" transform="matrix(0.9333, 0.3559, -0.3559, 0.9333, 40.2642, -186.8553)" width="114.5" xlink:href="#shape3"/>
    <use ffdec:characterId="442" height="59.55" transform="matrix(1.0, 0.0, 0.0, 1.0, -21.25, -171.25)" width="67.65" xlink:href="#shape4"/>
  </g>
  <defs>
    <g id="shape0" transform="matrix(1.0, 0.0, 0.0, 1.0, 28.0, 40.8)">
      <path d="M6.05 -31.5 L4.95 -33.1 Q4.05 -34.45 2.95 -35.35 -0.65 -38.25 -8.0 -38.25 -15.2 -38.25 -19.65 -32.35 -23.3 -27.5 -23.5 -21.6 -23.55 -18.75 -24.25 -12.4 L-25.0 -3.25 -25.9 31.5 -14.0 30.75 Q-14.0 30.55 -5.95 30.6 1.95 30.65 8.6 30.95 L8.5 30.15 Q9.5 11.5 9.5 2.05 L9.45 -4.8 Q9.4 -9.05 9.5 -11.75 L9.35 -18.65 Q9.35 -21.5 9.85 -23.55 9.2 -24.45 8.25 -26.8 6.6 -31.0 6.05 -31.5 M0.3 -29.25 Q-0.9 -30.65 -7.75 -33.35 -12.35 -33.35 -15.85 -26.8 -17.85 -23.05 -18.75 -19.1 L-14.0 -19.75 Q-14.0 -20.0 3.7 -20.0 L3.5 -23.1 Q3.5 -24.15 2.45 -26.1 L0.3 -29.25 M8.9 -31.5 L10.25 -28.85 Q10.8 -26.15 11.25 -24.8 L11.45 -24.25 11.3 -23.35 11.35 -23.15 11.3 -23.1 11.6 -19.95 Q11.4 -16.2 11.5 -14.35 L11.5 -3.5 11.2 9.85 10.5 31.3 10.45 31.35 10.5 32.0 10.35 32.7 Q10.15 32.7 10.05 33.0 L-4.9 32.75 -20.0 33.5 -26.0 33.5 Q-26.25 33.5 -27.0 34.0 -27.75 32.95 -27.95 31.25 L-28.0 28.4 Q-27.15 13.5 -27.0 6.0 L-26.9 -4.8 Q-26.8 -11.45 -26.0 -16.1 L-24.45 -27.15 Q-22.8 -33.7 -17.5 -37.5 -8.5 -43.95 1.95 -37.75 6.1 -35.3 8.85 -31.6 L8.9 -31.5 M6.7 -15.6 Q7.5 -12.95 7.5 -10.5 7.5 -2.25 6.8 9.25 6.25 19.15 5.5 25.0 L5.45 25.65 5.3 26.55 4.5 27.0 3.9 26.05 -18.25 27.0 -21.85 26.65 -22.5 27.0 Q-23.5 26.6 -23.5 25.15 -23.5 16.9 -22.5 3.1 -21.2 -14.45 -21.0 -19.35 -20.25 -21.0 -19.05 -24.6 -17.8 -27.9 -16.1 -30.25 -12.8 -34.75 -8.85 -35.05 -5.6 -35.3 -0.75 -32.6 2.15 -30.3 3.6 -28.0 5.2 -25.35 5.5 -21.75 5.75 -18.7 6.7 -15.6 M-19.5 -9.0 L-13.0 -9.0 -13.0 -11.25 -12.45 -11.25 -12.5 -11.35 Q-12.1 -11.75 -11.15 -11.8 L-11.15 -11.85 Q-10.1 -12.95 -8.1 -12.25 L-8.0 -11.5 -8.0 -9.0 -3.45 -9.0 -3.35 -10.75 Q-1.0 -10.9 -0.1 -9.0 L5.4 -9.0 5.5 -10.75 Q5.5 -13.65 4.55 -16.1 4.15 -17.1 3.9 -18.4 L-14.5 -17.5 -17.65 -17.0 -19.0 -16.5 -19.2 -16.55 -19.2 -16.5 -19.7 -11.3 -19.75 -9.0 -19.75 -8.9 -19.5 -9.0 M0.5 -3.25 L0.35 0.55 0.1 1.85 5.0 2.15 5.3 -6.9 0.45 -6.55 0.5 -3.25 M-9.25 3.6 L-8.5 4.6 Q-8.5 5.45 -9.5 6.0 -10.4 6.5 -11.5 6.5 L-12.6 6.25 Q-13.0 6.65 -13.0 5.4 L-12.85 4.9 -13.0 4.8 -13.0 3.6 -14.9 3.7 -20.55 4.5 -21.0 11.55 -21.0 12.15 -17.0 11.75 Q-17.0 11.55 -6.15 11.85 L4.85 12.45 5.0 6.8 4.95 3.7 2.3 3.75 -0.8 3.6 -1.0 3.8 Q-0.5 4.0 -1.75 4.0 L-3.0 3.75 -3.05 3.55 -9.25 3.5 -9.3 3.5 -9.3 3.55 -9.25 3.6 M4.5 14.0 L-20.95 14.0 -20.85 19.1 Q-20.9 22.25 -21.25 24.55 L-20.6 24.6 Q-16.5 25.0 -4.5 24.25 L3.5 24.0 Q3.55 21.25 4.35 16.25 L4.7 14.05 4.7 13.95 4.5 14.0 M-19.85 -7.0 L-20.0 -3.75 -20.4 2.55 Q-19.1 1.75 -15.0 1.75 L-13.0 1.65 -13.0 -6.75 -19.85 -7.0 M-8.6 -6.6 Q-8.6 -5.15 -9.0 -3.55 L-9.1 1.65 -5.65 1.7 -3.25 1.75 -3.5 -4.55 -3.5 -6.5 -6.5 -6.5 -8.6 -6.6" fill="#000000" fill-rule="evenodd" stroke="none"/>
      <path d="M0.3 -29.25 L2.45 -26.1 Q3.5 -24.15 3.5 -23.1 L3.7 -20.0 Q-14.0 -20.0 -14.0 -19.75 L-18.75 -19.1 Q-17.85 -23.05 -15.85 -26.8 -12.35 -33.35 -7.75 -33.35 -0.9 -30.65 0.3 -29.25 M0.5 -3.25 L0.45 -6.55 5.3 -6.9 5.0 2.15 0.1 1.85 0.35 0.55 0.5 -3.25 M4.5 14.0 L4.7 14.05 4.35 16.25 Q3.55 21.25 3.5 24.0 L-4.5 24.25 Q-16.5 25.0 -20.6 24.6 L-21.25 24.55 Q-20.9 22.25 -20.85 19.1 L-20.95 14.0 4.5 14.0 M-8.6 -6.6 L-6.5 -6.5 -3.5 -6.5 -3.5 -4.55 -3.25 1.75 -5.65 1.7 -9.1 1.65 -9.0 -3.55 Q-8.6 -5.15 -8.6 -6.6 M-19.85 -7.0 L-13.0 -6.75 -13.0 1.65 -15.0 1.75 Q-19.1 1.75 -20.4 2.55 L-20.0 -3.75 -19.85 -7.0" fill="#3b3b3b" fill-rule="evenodd" stroke="none"/>
      <path d="M-19.0 -16.5 L-17.65 -17.0 -14.5 -17.5 3.9 -18.4 Q4.15 -17.1 4.55 -16.1 5.5 -13.65 5.5 -10.75 L5.4 -9.0 -0.1 -9.0 Q-1.0 -10.9 -3.35 -10.75 L-3.45 -9.0 -8.0 -9.0 -8.0 -11.5 -8.1 -12.25 Q-10.1 -12.95 -11.15 -11.85 L-11.15 -11.8 Q-12.1 -11.75 -12.5 -11.35 L-12.45 -11.25 -13.0 -11.25 -13.0 -9.0 -19.5 -9.0 -19.75 -9.0 -19.7 -11.3 -19.2 -16.5 -19.0 -16.5 M-9.25 3.5 L-3.05 3.55 -3.0 3.75 -1.75 4.0 Q-0.5 4.0 -1.0 3.8 L-0.8 3.6 2.3 3.75 4.95 3.7 5.0 6.8 4.85 12.45 -6.15 11.85 Q-17.0 11.55 -17.0 11.75 L-21.0 12.15 -21.0 11.55 -20.55 4.5 -14.9 3.7 -13.0 3.6 -13.0 4.8 -12.85 4.9 -13.0 5.4 Q-13.0 6.65 -12.6 6.25 L-11.5 6.5 Q-10.4 6.5 -9.5 6.0 -8.5 5.45 -8.5 4.6 L-9.25 3.6 -9.25 3.5" fill="#413d34" fill-rule="evenodd" stroke="none"/>
      <path d="M6.05 -31.5 Q6.6 -31.0 8.25 -26.8 9.2 -24.45 9.85 -23.55 9.35 -21.5 9.35 -18.65 L9.5 -11.75 Q9.4 -9.05 9.45 -4.8 L9.5 2.05 Q9.5 11.5 8.5 30.15 L8.6 30.95 Q1.95 30.65 -5.95 30.6 -14.0 30.55 -14.0 30.75 L-25.9 31.5 -25.0 -3.25 -24.25 -12.4 Q-23.55 -18.75 -23.5 -21.6 -23.3 -27.5 -19.65 -32.35 -15.2 -38.25 -8.0 -38.25 -0.65 -38.25 2.95 -35.35 4.05 -34.45 4.95 -33.1 L6.05 -31.5 M6.7 -15.6 Q5.75 -18.7 5.5 -21.75 5.2 -25.35 3.6 -28.0 2.15 -30.3 -0.75 -32.6 -5.6 -35.3 -8.85 -35.05 -12.8 -34.75 -16.1 -30.25 -17.8 -27.9 -19.05 -24.6 -20.25 -21.0 -21.0 -19.35 -21.2 -14.45 -22.5 3.1 -23.5 16.9 -23.5 25.15 -23.5 26.6 -22.5 27.0 L-21.85 26.65 -18.25 27.0 3.9 26.05 4.5 27.0 5.3 26.55 5.45 25.65 5.5 25.0 Q6.25 19.15 6.8 9.25 7.5 -2.25 7.5 -10.5 7.5 -12.95 6.7 -15.6" fill="#52047b" fill-rule="evenodd" stroke="none"/>
    </g>
    <g id="shape1" transform="matrix(1.0, 0.0, 0.0, 1.0, 16.0, 80.5)">
      <path d="M4.45 -50.95 L5.35 -48.15 6.5 -43.75 Q6.5 -42.9 5.0 -41.1 L5.0 -38.5 5.3 -38.65 5.35 -38.7 5.55 -38.8 8.1 -40.25 9.3 -40.9 9.8 -41.2 14.55 -44.0 Q15.45 -44.6 16.1 -46.9 16.6 -48.75 17.5 -49.6 L17.65 -49.7 18.0 -50.0 Q18.75 -49.2 18.95 -47.15 L19.0 -43.75 Q19.0 -37.75 18.05 -35.75 16.4 -32.25 9.3 -27.5 7.6 -26.35 7.35 -23.6 L7.0 -20.95 7.0 -21.0 Q7.5 -20.35 7.8 -18.85 L8.0 -17.15 Q8.0 -13.35 5.3 -10.0 L5.3 -9.9 5.5 -8.0 5.25 -4.55 Q6.25 -4.25 6.7 -2.8 7.0 -1.75 7.0 1.15 7.0 5.0 4.65 7.05 5.0 7.65 4.95 8.75 L4.55 11.25 4.45 13.75 4.5 16.05 Q4.5 20.0 5.75 27.1 7.0 34.25 7.0 38.9 7.0 46.05 6.25 53.6 5.5 61.2 5.5 71.75 L5.45 82.8 Q5.4 84.15 5.5 85.05 L6.25 87.0 7.0 89.25 Q7.0 90.4 2.0 94.3 -3.4 98.5 -6.5 98.5 -9.45 98.5 -10.05 95.8 L-10.0 92.9 -10.0 90.3 Q-9.75 89.7 -9.5 89.6 L-5.5 88.8 Q-4.5 85.8 -4.5 84.0 L-4.5 55.5 -4.05 55.2 -4.1 54.35 Q-3.9 51.05 -4.0 49.75 -4.2 45.95 -4.0 40.3 -3.95 38.85 -4.65 35.65 L-5.5 31.0 -5.55 25.7 -5.5 21.75 -5.45 16.35 -5.3 14.85 -5.5 15.0 -6.35 14.2 -6.5 13.0 Q-6.5 11.9 -5.9 10.5 L-6.0 9.9 Q-6.0 8.4 -4.6 6.6 L-4.6 6.55 -4.5 5.05 -4.75 4.0 -5.0 2.6 Q-5.0 1.4 -4.4 -1.65 L-4.15 -2.85 Q-5.25 -2.2 -6.5 -1.5 -7.25 -2.05 -7.45 -3.05 L-7.5 -4.75 Q-7.5 -7.9 -7.3 -8.65 -6.8 -10.7 -4.7 -12.8 L-5.4 -16.15 -5.5 -22.15 -5.45 -24.8 -5.15 -26.2 -8.15 -28.95 -12.35 -33.0 Q-15.15 -35.4 -15.7 -36.6 -16.0 -37.3 -16.0 -39.75 -16.0 -41.95 -15.1 -44.7 -13.95 -48.35 -12.0 -48.5 L-11.95 -48.5 -11.25 -48.35 Q-11.0 -48.3 -11.0 -47.5 L-11.05 -47.4 -10.45 -45.75 Q-9.95 -43.3 -9.4 -42.3 L-9.35 -42.25 Q-8.75 -41.2 -6.75 -39.6 L-3.75 -37.25 Q-3.45 -37.9 -3.45 -40.25 -3.4 -42.45 -2.6 -43.75 L-2.5 -43.85 -2.5 -43.9 -2.15 -44.35 -1.7 -45.05 -0.65 -46.65 Q0.75 -48.8 1.0 -50.1 1.6 -53.1 2.4 -53.45 L3.45 -52.9 4.05 -51.9 4.05 -51.85 4.45 -50.95 M17.0 -43.1 L16.8 -43.5 16.75 -43.4 13.7 -40.85 Q11.4 -39.05 11.0 -39.0 9.15 -38.6 6.7 -36.4 L4.85 -34.65 4.0 -34.0 Q3.25 -34.8 3.05 -36.15 L3.0 -38.15 3.0 -41.35 3.85 -42.75 4.5 -44.0 3.75 -46.45 3.65 -46.8 3.0 -48.85 2.8 -49.1 2.8 -49.05 0.7 -45.6 Q-1.0 -43.0 -1.25 -42.0 -1.6 -40.7 -1.6 -38.6 L-1.6 -34.85 -1.75 -34.65 -2.05 -34.55 -2.75 -34.5 Q-3.95 -34.5 -7.4 -37.25 -10.65 -39.85 -11.25 -40.85 -12.0 -42.2 -12.45 -43.85 L-12.5 -44.15 Q-14.0 -40.8 -14.0 -40.0 -14.0 -37.45 -10.8 -33.75 -8.05 -30.6 -3.5 -27.1 L-3.7 -26.4 -4.1 -26.1 Q-3.3 -23.85 -3.15 -20.35 L-2.5 -13.6 -2.5 -12.85 0.2 -15.6 0.3 -15.65 0.4 -15.8 0.8 -16.15 3.3 -18.75 Q4.2 -20.3 4.85 -22.65 L5.8 -25.85 Q6.5 -27.7 8.95 -29.35 L12.8 -32.25 Q13.95 -33.45 15.15 -35.7 L17.0 -39.0 17.0 -42.45 17.0 -43.1 M5.65 -17.3 L5.7 -18.0 5.35 -17.55 2.95 -15.05 Q0.65 -13.05 -2.0 -11.5 L-2.5 -11.8 -2.5 -11.0 -2.9 -10.8 -3.5 -10.5 -3.65 -10.75 -4.1 -9.3 -5.5 -5.6 Q-0.35 -6.15 4.5 -12.85 5.5 -14.25 5.65 -17.3 M-1.55 3.55 Q1.3 0.75 2.0 -1.1 L3.05 -7.0 3.2 -7.9 Q1.25 -6.2 -1.9 -4.2 L-2.8 -3.65 -2.55 -2.15 -2.5 1.25 Q-2.5 3.2 -2.65 4.6 L-1.55 3.55 M-4.0 10.3 Q-2.95 10.3 -0.8 8.55 L2.05 6.3 Q4.3 5.2 4.8 3.7 5.0 3.15 5.0 0.85 L4.35 -1.05 Q3.55 0.95 2.3 2.55 -1.7 6.7 -4.3 10.1 L-4.45 10.25 -4.0 10.3 M-0.7 93.4 L4.8 89.3 Q4.8 88.55 4.15 87.1 3.5 85.6 3.5 84.8 L3.5 71.65 Q3.5 61.9 4.25 50.6 L5.0 38.85 Q5.0 34.95 4.8 33.95 L3.5 27.5 Q3.05 25.1 2.75 20.9 L2.5 16.15 2.6 10.8 3.1 8.25 -1.55 11.65 -3.6 13.3 -3.9 13.55 Q-3.65 14.95 -3.55 16.75 L-3.5 17.25 -3.5 17.75 -3.5 17.9 -3.5 17.95 -3.5 18.25 -3.55 20.35 -3.55 20.65 -3.55 20.85 Q-3.85 27.25 -3.5 29.3 L-3.25 30.9 -2.1 41.75 -2.05 43.55 -2.0 46.9 -2.1 58.55 -2.3 58.65 -2.3 58.95 -2.5 63.5 Q-2.4 65.05 -2.45 68.1 L-2.5 71.75 -2.5 81.45 -2.5 82.25 -2.45 83.85 -2.45 83.9 -2.2 87.5 Q-2.85 90.95 -8.0 91.75 L-8.0 94.3 -7.45 95.4 Q-7.15 96.25 -6.5 96.25 -4.95 96.25 -0.75 93.4 L-0.7 93.4" fill="#000000" fill-rule="evenodd" stroke="none"/>
      <path d="M-12.45 -43.85 Q-12.0 -42.2 -11.25 -40.85 L-11.65 -40.65 Q-12.55 -42.45 -12.45 -43.85 M3.65 -46.8 L3.75 -46.45 3.55 -46.55 3.65 -46.8 M-0.7 93.4 L-0.75 93.4 -0.75 93.3 -0.7 93.4 M-2.45 83.85 L-2.5 82.25 -2.5 81.45 -2.4 82.25 -2.45 83.85 M-3.25 30.9 L-3.5 29.3 Q-3.85 27.25 -3.55 20.85 L-3.55 22.7 -3.5 26.35 -3.35 30.15 -3.25 30.9 M-3.55 16.75 Q-3.65 14.95 -3.9 13.55 L-3.6 13.3 -3.55 16.75 M-2.55 -27.75 L-2.6 -27.1 -2.8 -27.65 -2.55 -27.75" fill="#b49789" fill-rule="evenodd" stroke="none"/>
      <path d="M5.35 -17.55 L5.65 -17.3 Q5.5 -14.25 4.5 -12.85 -0.35 -6.15 -5.5 -5.6 L-4.1 -9.3 -3.65 -10.75 -3.5 -10.5 -2.9 -10.8 -2.5 -11.0 -2.5 -11.8 -2.0 -11.5 Q0.65 -13.05 2.95 -15.05 L5.35 -17.55 M-4.3 10.1 Q-1.7 6.7 2.3 2.55 3.55 0.95 4.35 -1.05 L5.0 0.85 Q5.0 3.15 4.8 3.7 4.3 5.2 2.05 6.3 L-0.8 8.55 Q-2.95 10.3 -4.0 10.3 L-4.3 10.1" fill="#d8b469" fill-rule="evenodd" stroke="none"/>
      <path d="M16.75 -43.4 L17.0 -43.1 17.0 -42.45 Q15.5 -40.2 11.8 -36.45 L5.0 -30.0 4.15 -30.7 Q4.0 -30.95 4.0 -31.9 4.0 -33.1 4.85 -34.65 L6.7 -36.4 Q9.15 -38.6 11.0 -39.0 11.4 -39.05 13.7 -40.85 L16.75 -43.4 M0.8 -16.15 L0.4 -15.8 0.3 -15.65 0.2 -15.6 -2.5 -12.85 -2.5 -13.6 -3.15 -20.35 Q-3.3 -23.85 -4.1 -26.1 L-3.7 -26.4 -3.5 -27.1 Q-8.05 -30.6 -10.8 -33.75 -14.0 -37.45 -14.0 -40.0 -14.0 -40.8 -12.5 -44.15 L-12.45 -43.85 Q-12.55 -42.45 -11.65 -40.65 L-10.35 -38.55 -4.6 -31.35 Q-3.5 -29.8 -2.8 -27.65 L-2.6 -27.1 -2.55 -27.75 Q-2.25 -28.75 -1.7 -29.0 L-2.0 -31.25 -2.05 -34.55 -1.75 -34.65 -1.6 -34.85 -1.6 -38.6 Q-1.6 -40.7 -1.25 -42.0 -1.0 -43.0 0.7 -45.6 L2.8 -49.05 3.0 -48.85 3.65 -46.8 3.55 -46.55 2.4 -43.7 Q0.65 -39.75 0.5 -38.75 0.15 -36.95 0.55 -33.4 L1.0 -29.35 Q1.0 -27.9 0.5 -27.1 0.95 -27.0 -0.05 -27.0 L0.5 -19.7 0.8 -16.15 M-1.9 -4.2 Q-1.65 -3.6 -1.55 -2.7 L-1.5 -0.1 -1.55 3.55 -2.65 4.6 Q-2.5 3.2 -2.5 1.25 L-2.55 -2.15 -2.8 -3.65 -1.9 -4.2 M-0.75 93.4 Q-4.95 96.25 -6.5 96.25 -7.15 96.25 -7.45 95.4 L-8.0 94.3 -8.0 91.75 Q-2.85 90.95 -2.2 87.5 L-2.45 83.9 -2.45 83.85 -2.4 82.25 -2.5 81.45 -2.5 71.75 -2.45 68.1 Q-2.4 65.05 -2.5 63.5 L-2.3 58.95 -2.3 58.65 -2.1 58.55 -2.0 46.9 -2.05 43.55 -2.1 41.75 -3.25 30.9 -3.35 30.15 -3.5 26.35 -3.55 22.7 -3.55 20.85 -3.55 20.65 -3.55 20.35 -3.5 18.25 -3.5 17.95 -3.5 17.9 -3.5 17.75 -3.5 17.25 -3.55 16.75 -3.6 13.3 -1.55 11.65 Q-1.2 13.1 -1.1 15.05 L-1.0 21.3 0.0 33.0 0.6 38.8 Q0.9 42.25 0.5 44.55 -0.4 49.85 -0.1 51.55 0.5 54.65 0.5 56.0 L0.5 64.4 Q0.4 72.75 0.0 77.25 L-0.65 82.45 -1.0 87.75 -0.75 93.3 -0.75 93.4" fill="#d0b591" fill-rule="evenodd" stroke="none"/>
      <path d="M-0.4 -73.7 Q0.55 -73.9 1.9 -75.05 3.25 -76.2 4.05 -76.05 5.25 -75.8 6.8 -72.85 L9.0 -69.1 Q9.45 -68.3 12.05 -64.9 L14.5 -61.6 11.75 -59.05 10.1 -57.1 10.2 -56.95 Q9.55 -58.15 7.05 -57.75 7.0 -54.25 6.0 -50.0 L5.35 -48.15 4.45 -50.95 4.5 -52.05 4.05 -59.85 Q3.45 -67.3 2.5 -69.0 1.25 -68.3 0.15 -65.05 L0.1 -65.45 -0.5 -69.6 -0.4 -73.55 -0.4 -73.7 M17.5 -49.6 L17.5 -50.1 17.65 -49.7 17.5 -49.6 M-0.75 -58.0 Q0.4 -54.0 1.5 -52.0 1.9 -53.25 2.4 -53.45 1.6 -53.1 1.0 -50.1 0.75 -48.8 -0.65 -46.65 L-1.7 -45.05 Q-2.05 -47.95 -3.0 -49.1 L-8.5 -55.05 -8.75 -55.3 -7.25 -58.5 -5.15 -63.35 -3.55 -60.3 Q-2.2 -58.0 -1.25 -58.0 L-0.75 -58.0" fill="#00a6a6" fill-rule="evenodd" stroke="none"/>
      <path d="M-0.4 -73.7 L-0.4 -73.55 -0.5 -69.6 0.1 -65.45 0.15 -65.05 0.5 -62.15 0.5 -62.1 Q0.5 -60.9 -0.5 -58.1 L-0.4 -58.05 -0.75 -58.0 -1.25 -58.0 Q-2.2 -58.0 -3.55 -60.3 L-5.15 -63.35 -5.2 -63.45 -5.25 -63.5 -6.4 -65.7 -6.6 -66.15 -5.85 -68.1 -4.75 -72.55 Q-4.15 -75.2 -3.1 -76.75 L-2.55 -77.45 -2.3 -77.55 -1.6 -77.0 Q-0.45 -76.0 -0.4 -73.7 M5.35 -48.15 L6.0 -50.0 Q7.0 -54.25 7.05 -57.75 9.55 -58.15 10.2 -56.95 L10.2 -56.9 Q10.5 -56.35 10.5 -54.1 L10.5 -53.35 Q10.45 -45.0 9.3 -40.9 L8.1 -40.25 5.55 -38.8 5.35 -38.7 5.3 -38.65 5.0 -38.5 5.0 -41.1 Q6.5 -42.9 6.5 -43.75 L5.35 -48.15 M-1.7 -45.05 L-2.15 -44.35 -2.5 -43.9 -2.5 -43.85 -2.6 -43.75 Q-3.4 -42.45 -3.45 -40.25 -3.45 -37.9 -3.75 -37.25 L-6.75 -39.6 Q-8.75 -41.2 -9.35 -42.25 L-9.4 -42.3 Q-9.95 -43.3 -10.45 -45.75 L-11.05 -47.4 -11.0 -47.5 Q-11.0 -48.3 -11.25 -48.35 L-11.95 -48.5 -12.0 -50.65 Q-12.0 -54.0 -10.75 -57.2 L-8.75 -55.3 -8.5 -55.05 -3.0 -49.1 Q-2.05 -47.95 -1.7 -45.05" fill="#006262" fill-rule="evenodd" stroke="none"/>
      <path d="M10.2 -56.95 L10.1 -57.1 11.75 -59.05 14.5 -61.6 12.05 -64.9 Q9.45 -68.3 9.0 -69.1 L6.8 -72.85 Q5.25 -75.8 4.05 -76.05 3.25 -76.2 1.9 -75.05 0.55 -73.9 -0.4 -73.7 -0.45 -76.0 -1.6 -77.0 L-2.3 -77.55 3.25 -79.5 4.4 -79.9 4.75 -79.75 5.0 -80.1 5.05 -80.15 Q5.3 -80.5 6.0 -80.5 6.95 -80.5 7.6 -78.25 8.95 -73.8 10.8 -70.0 11.25 -69.05 14.55 -64.2 L16.5 -61.25 16.25 -57.5 16.3 -53.0 16.8 -52.9 17.5 -50.1 17.5 -49.6 Q16.6 -48.75 16.1 -46.9 15.45 -44.6 14.55 -44.0 L9.8 -41.2 9.3 -40.9 Q10.45 -45.0 10.5 -53.35 L10.5 -54.1 Q10.5 -56.35 10.2 -56.9 L10.2 -56.95 M0.15 -65.05 Q1.25 -68.3 2.5 -69.0 3.45 -67.3 4.05 -59.85 L4.5 -52.05 4.45 -50.95 4.05 -51.85 4.05 -51.9 3.45 -52.9 2.4 -53.45 Q1.9 -53.25 1.5 -52.0 0.4 -54.0 -0.75 -58.0 L-0.4 -58.05 -0.5 -58.1 Q0.5 -60.9 0.5 -62.1 L0.5 -62.15 0.15 -65.05 M-6.6 -66.15 L-6.4 -65.7 -5.25 -63.5 -5.2 -63.45 -5.15 -63.35 -7.25 -58.5 -8.75 -55.3 -10.75 -57.2 -10.05 -58.9 -6.6 -66.15" fill="#00d9d9" fill-rule="evenodd" stroke="none"/>
      <path d="M17.0 -42.45 L17.0 -39.0 15.15 -35.7 Q13.95 -33.45 12.8 -32.25 L8.95 -29.35 Q6.5 -27.7 5.8 -25.85 L4.85 -22.65 Q4.2 -20.3 3.3 -18.75 L0.8 -16.15 0.5 -19.7 -0.05 -27.0 Q0.95 -27.0 0.5 -27.1 1.0 -27.9 1.0 -29.35 L0.55 -33.4 Q0.15 -36.95 0.5 -38.75 0.65 -39.75 2.4 -43.7 L3.55 -46.55 3.75 -46.45 4.5 -44.0 3.85 -42.75 3.0 -41.35 3.0 -38.15 3.05 -36.15 Q3.25 -34.8 4.0 -34.0 L4.85 -34.65 Q4.0 -33.1 4.0 -31.9 4.0 -30.95 4.15 -30.7 L5.0 -30.0 11.8 -36.45 Q15.5 -40.2 17.0 -42.45 M-11.25 -40.85 Q-10.65 -39.85 -7.4 -37.25 -3.95 -34.5 -2.75 -34.5 L-2.05 -34.55 -2.0 -31.25 -1.7 -29.0 Q-2.25 -28.75 -2.55 -27.75 L-2.8 -27.65 Q-3.5 -29.8 -4.6 -31.35 L-10.35 -38.55 -11.65 -40.65 -11.25 -40.85 M-1.9 -4.2 Q1.25 -6.2 3.2 -7.9 L3.05 -7.0 2.0 -1.1 Q1.3 0.75 -1.55 3.55 L-1.5 -0.1 -1.55 -2.7 Q-1.65 -3.6 -1.9 -4.2 M-1.55 11.65 L3.1 8.25 2.6 10.8 2.5 16.15 2.75 20.9 Q3.05 25.1 3.5 27.5 L4.8 33.95 Q5.0 34.95 5.0 38.85 L4.25 50.6 Q3.5 61.9 3.5 71.65 L3.5 84.8 Q3.5 85.6 4.15 87.1 4.8 88.55 4.8 89.3 L-0.7 93.4 -0.75 93.3 -1.0 87.75 -0.65 82.45 0.0 77.25 Q0.4 72.75 0.5 64.4 L0.5 56.0 Q0.5 54.65 -0.1 51.55 -0.4 49.85 0.5 44.55 0.9 42.25 0.6 38.8 L0.0 33.0 -1.0 21.3 -1.1 15.05 Q-1.2 13.1 -1.55 11.65" fill="#966d59" fill-rule="evenodd" stroke="none"/>
    </g>
    <g id="shape2" transform="matrix(1.0, 0.0, 0.0, 1.0, -18.0, -60.3)">
      <path d="M165.85 90.35 Q170.15 91.95 178.15 99.55 L177.85 100.85 177.6 101.35 180.15 103.35 182.65 105.95 Q183.7 105.85 184.4 106.6 L186.25 109.1 186.7 109.35 187.0 110.5 187.4 111.4 Q188.0 113.05 188.0 115.35 188.0 118.35 185.8 120.5 183.25 123.0 178.75 123.0 L173.3 122.45 Q172.1 122.1 170.1 121.15 L169.5 121.35 169.15 121.6 Q167.6 119.95 167.35 118.7 163.9 120.4 162.2 120.4 L155.85 116.6 153.35 117.05 Q150.3 117.05 149.4 115.35 148.8 113.3 148.4 112.75 L146.35 110.8 144.25 108.95 143.55 107.8 139.7 112.6 Q139.2 114.25 138.3 115.85 137.3 117.55 136.35 118.15 L136.35 118.3 Q139.55 119.3 141.35 120.95 143.35 122.75 143.35 125.1 143.35 125.8 144.7 126.95 146.05 128.15 146.05 128.7 L145.95 129.85 Q147.85 130.8 149.8 133.2 153.0 137.05 153.0 138.9 L153.0 139.65 152.8 140.05 152.75 140.3 152.3 140.5 152.35 141.2 Q152.35 142.7 149.75 143.7 149.7 145.85 149.25 148.75 L148.5 154.2 Q149.95 154.65 150.95 155.75 152.1 157.15 152.1 158.65 L151.85 160.55 Q151.45 161.8 150.65 161.8 L137.65 160.45 127.3 158.9 Q127.05 158.65 127.05 157.35 L127.3 154.95 Q128.25 154.75 129.3 153.75 128.35 154.5 127.75 154.5 126.9 154.5 124.2 151.85 L120.5 148.0 119.5 146.75 119.5 146.85 119.95 148.65 113.25 149.0 Q109.9 149.0 102.0 147.4 100.55 149.1 92.75 151.9 83.55 155.25 79.95 155.25 L78.55 155.1 78.2 155.85 Q77.65 156.85 77.05 156.85 72.55 156.85 69.55 156.0 66.25 154.95 66.25 153.15 66.25 146.55 68.6 140.9 71.75 133.2 77.3 137.45 L77.6 136.9 Q78.55 135.35 80.55 134.75 L82.5 132.15 Q84.05 130.25 85.35 129.25 85.0 128.85 85.0 128.15 L85.0 127.45 85.05 127.5 85.15 127.15 85.6 127.05 85.8 126.85 Q86.1 125.1 86.75 123.6 88.5 119.85 89.3 115.75 L90.0 115.15 90.05 115.25 90.05 115.15 Q90.1 113.25 90.6 110.2 91.3 106.15 92.1 105.15 92.6 101.3 94.25 96.75 96.25 91.45 98.75 89.75 L95.8 90.2 Q90.55 91.2 83.95 95.3 79.0 98.35 74.6 102.25 70.55 105.7 68.25 109.85 66.45 113.05 65.2 117.55 L63.05 126.65 61.8 131.15 62.0 132.85 61.9 133.8 61.45 134.0 60.7 134.35 59.9 133.1 59.8 133.1 59.8 133.0 Q58.65 130.85 57.3 126.95 55.15 120.55 54.4 119.1 L49.35 110.95 48.05 109.0 44.4 111.8 Q38.75 116.3 36.05 118.9 L35.6 118.9 Q31.8 124.0 26.2 124.0 22.85 124.0 20.95 117.9 20.0 114.75 19.7 111.35 L18.0 103.05 Q18.0 102.45 22.15 98.25 L22.55 97.9 Q25.35 93.2 32.0 87.75 32.6 87.35 51.5 73.9 67.35 62.6 77.05 62.6 81.95 62.6 90.15 64.25 97.45 65.8 100.15 66.95 101.5 68.15 103.05 69.0 104.65 69.9 108.0 70.5 L108.05 70.5 108.65 67.45 109.55 64.1 Q110.85 61.45 111.6 61.0 113.5 59.65 118.2 61.0 127.55 62.5 133.25 64.75 138.15 66.7 141.85 69.9 L142.4 69.9 Q151.35 70.25 153.15 74.75 L159.9 80.75 Q165.85 86.35 165.85 89.95 L165.85 90.35 M134.8 91.85 Q134.15 93.4 134.15 95.15 134.15 95.85 136.0 96.8 138.4 98.0 141.9 98.0 144.05 98.0 147.7 96.7 L148.15 96.45 148.2 96.5 148.95 96.2 154.25 93.75 Q155.1 93.35 159.35 92.0 163.2 90.6 163.2 89.75 163.2 88.65 162.6 87.35 161.5 88.25 158.3 89.1 L152.3 90.45 145.75 93.15 Q141.4 94.85 140.2 94.85 136.55 94.85 135.15 92.0 L134.95 91.55 134.9 91.65 134.8 91.85 M164.85 91.9 L163.75 92.75 Q162.3 93.7 161.05 93.9 L163.8 96.35 168.85 99.5 169.9 98.3 171.45 96.75 170.45 95.95 Q166.75 93.2 164.85 91.9 M178.5 120.75 Q182.55 120.7 184.6 118.5 186.0 117.0 186.0 115.5 186.0 114.7 185.0 112.4 L184.0 110.05 182.65 108.8 Q180.65 110.7 174.5 114.6 L169.5 117.55 170.65 119.0 170.75 119.0 Q171.7 119.0 173.1 119.9 174.05 120.45 176.0 120.65 L178.4 120.75 178.5 120.75 M175.1 100.55 L175.45 100.5 175.5 100.0 172.7 97.7 Q172.7 98.85 172.3 99.3 171.85 99.7 170.45 100.5 L172.9 102.0 173.8 101.35 Q174.2 100.75 175.1 100.55 M159.0 115.9 Q161.8 117.65 162.55 117.65 164.9 117.65 172.3 113.15 177.85 109.7 180.7 107.45 180.4 106.9 177.45 104.45 L175.6 102.9 175.2 103.35 Q173.9 104.85 172.75 104.85 L166.9 100.65 158.2 94.6 157.65 94.8 157.85 94.95 157.9 95.0 159.4 96.3 163.05 100.55 Q163.35 101.2 166.35 104.55 169.1 107.55 169.1 108.65 169.1 109.4 167.3 110.5 L167.15 110.2 166.7 109.5 166.4 109.0 164.6 106.35 Q164.0 106.95 161.8 108.15 L159.2 109.5 161.1 111.7 Q161.5 111.05 162.3 110.65 L165.95 109.25 166.55 109.45 Q166.75 109.55 166.75 110.4 166.75 111.2 164.9 112.3 L162.2 113.85 161.3 113.95 161.15 114.1 161.2 114.25 Q160.9 114.65 158.9 115.5 L158.55 115.6 159.0 115.9 M109.65 70.75 L109.3 70.7 114.25 71.3 121.15 70.95 125.9 70.35 127.0 70.45 127.55 70.85 Q127.8 70.45 127.85 71.25 L129.8 70.9 138.25 69.9 Q136.05 68.6 133.35 67.3 123.6 62.6 113.25 62.6 111.8 62.6 111.25 66.15 110.7 69.35 109.65 70.75 M105.2 72.25 Q104.1 71.8 99.5 69.2 91.8 64.8 77.45 64.8 74.85 64.8 67.35 68.3 L58.85 72.25 Q55.2 73.45 51.45 76.55 L44.65 82.1 Q34.2 89.25 28.8 94.45 L28.8 94.55 24.7 98.8 20.6 102.95 21.05 106.4 21.55 109.8 Q21.55 112.1 22.95 116.75 24.45 121.75 25.55 121.75 32.5 121.75 37.05 111.3 L39.9 104.15 Q41.15 101.2 42.3 100.9 L43.95 99.05 Q45.55 97.5 46.3 97.0 47.5 95.85 49.6 94.0 L54.45 89.75 Q58.05 86.5 59.4 84.7 62.25 81.1 69.3 77.75 78.55 73.4 88.75 73.4 L97.45 73.95 106.05 74.45 112.7 73.65 Q108.25 73.5 105.2 72.25 M143.2 72.05 L141.25 71.95 136.55 72.45 131.85 72.9 126.05 73.75 120.55 74.85 112.3 76.4 106.1 76.8 88.9 75.6 84.3 76.1 79.7 76.55 Q78.35 76.55 73.8 78.45 71.55 79.4 69.25 80.4 65.85 81.35 63.3 83.95 L59.55 87.95 Q56.45 90.45 51.15 95.75 L47.3 99.5 Q46.1 100.9 45.7 102.3 47.6 104.0 50.1 107.65 L50.45 108.1 50.9 108.75 51.8 110.2 52.0 110.55 52.05 110.65 55.45 116.5 Q57.55 120.2 59.5 124.65 L60.4 126.9 Q62.1 119.65 65.5 110.3 67.15 105.7 72.85 100.7 77.05 97.05 85.0 91.95 91.1 88.05 101.05 86.65 L122.35 85.25 136.1 84.2 142.15 82.05 Q144.05 81.4 147.25 78.6 L151.0 75.4 150.5 74.25 Q149.75 73.1 147.45 72.55 L143.85 72.1 143.25 72.0 143.2 72.05 M136.4 106.3 L136.4 106.25 137.2 104.0 137.35 103.45 116.5 98.1 99.7 92.15 99.35 92.65 97.8 95.25 Q100.45 95.35 105.55 96.85 L111.4 98.8 111.7 98.5 112.4 98.8 112.65 99.25 116.1 100.6 125.1 102.95 Q133.15 105.1 136.35 106.5 L136.4 106.3 M97.0 96.7 L96.2 98.65 95.25 102.1 Q95.9 102.35 97.05 103.1 L100.6 104.55 101.2 104.8 101.75 103.95 Q102.75 102.55 102.85 101.65 103.05 99.65 104.1 98.75 L100.8 97.85 97.0 96.7 M101.3 89.85 L100.8 90.55 Q104.15 90.85 106.6 92.1 L108.2 92.9 Q108.6 91.7 109.75 90.25 L111.5 88.3 108.5 88.65 101.3 89.45 101.3 89.85 M114.3 94.85 Q114.3 94.0 116.9 89.95 117.3 88.95 117.9 88.3 L116.8 87.85 113.6 88.1 113.6 88.3 Q113.6 89.55 111.95 91.65 L110.3 93.75 114.25 95.05 114.3 95.05 114.3 94.85 M136.15 99.4 Q135.2 99.0 134.35 98.4 131.9 96.75 131.9 95.35 131.9 94.6 132.2 93.3 L124.3 90.7 119.65 89.05 Q117.45 93.9 115.85 95.45 L118.9 96.2 127.55 98.45 136.45 101.0 138.55 101.65 139.3 101.15 Q138.45 100.45 138.1 100.0 L136.15 99.4 M130.2 89.9 L132.85 90.85 133.6 87.55 123.05 87.45 120.55 87.55 Q122.85 88.45 125.05 88.65 L130.2 89.9 M148.7 80.6 L148.25 80.9 141.1 85.1 Q137.6 86.95 135.7 87.45 L135.7 87.55 Q136.25 87.55 137.05 90.05 137.75 92.5 139.35 92.5 L149.1 89.25 155.25 87.25 161.35 85.45 Q160.05 83.75 157.75 81.85 152.3 77.4 152.3 76.75 L152.3 76.55 152.25 76.7 Q151.7 78.35 148.7 80.6 M156.1 95.85 L156.1 95.4 155.95 95.5 151.95 97.15 149.1 98.3 Q151.05 101.45 155.85 106.1 L157.15 107.4 157.55 107.2 Q162.0 105.2 163.6 104.95 L160.15 100.7 156.1 95.85 M38.5 113.7 L41.15 111.7 Q45.15 108.75 47.15 107.65 L44.55 103.3 44.6 103.3 43.65 103.25 Q42.4 103.25 41.1 106.5 L38.45 113.65 38.4 113.8 38.5 113.7 M79.25 142.05 Q77.3 142.05 74.55 141.25 L71.5 140.1 Q70.35 141.65 69.55 145.0 68.5 149.2 68.5 151.85 68.5 153.15 68.75 153.15 L69.45 153.5 70.8 153.75 72.35 152.55 Q73.9 151.35 74.6 151.35 76.6 151.35 77.8 152.3 L78.45 152.9 84.0 151.9 90.1 150.3 95.9 147.2 Q96.75 146.75 97.55 146.45 L92.9 145.35 Q84.3 143.35 80.3 141.9 L79.25 142.05 M79.1 139.2 L79.05 139.2 79.75 139.45 87.05 141.5 87.0 140.9 87.3 140.3 88.2 138.5 88.45 138.0 90.0 135.05 Q91.65 132.05 93.0 130.5 L92.85 130.5 92.25 130.5 91.5 130.5 87.35 130.15 Q87.0 131.0 85.65 132.5 L85.1 133.1 83.15 134.95 81.75 135.9 81.8 136.0 82.15 137.9 82.2 138.05 81.25 137.45 80.65 137.8 Q79.7 138.45 79.1 139.2 M76.05 154.6 L76.55 154.55 76.35 154.2 75.55 153.65 Q74.7 153.2 73.85 154.2 L73.35 154.2 74.0 154.25 76.05 154.6 M153.4 106.75 Q148.05 100.8 147.05 99.1 144.25 100.05 142.45 100.3 143.55 101.75 145.25 105.1 145.95 107.4 149.8 111.6 151.15 110.35 154.95 108.45 L153.4 106.75 M141.9 103.85 L140.5 102.2 139.5 104.55 Q138.35 107.25 138.35 107.75 138.35 108.45 138.9 109.25 L139.4 109.9 Q141.35 106.95 142.6 105.5 L141.9 103.85 M151.3 112.55 L150.7 112.5 151.0 112.9 152.8 114.65 154.1 114.5 154.1 114.4 154.9 114.3 156.8 113.65 159.0 112.9 156.85 110.55 Q152.65 112.55 151.3 112.55 M130.2 111.75 L132.75 112.25 133.2 111.55 Q134.1 110.4 136.25 109.3 L135.95 108.45 131.75 107.7 126.25 106.1 115.35 102.7 Q114.35 102.35 112.6 101.2 L112.55 101.15 112.55 101.2 111.7 103.6 109.05 107.25 Q114.2 108.55 120.8 109.85 L130.2 111.75 M137.6 112.5 L138.35 111.45 138.3 111.45 Q137.75 111.45 137.3 110.95 L137.1 111.2 136.35 111.9 Q134.25 114.1 134.1 116.25 L134.15 116.25 135.15 116.25 Q136.2 115.6 137.6 112.75 L137.6 112.5 M128.4 117.55 L122.45 116.8 122.1 119.8 124.6 119.9 125.1 119.9 128.25 119.75 134.1 119.6 134.3 118.3 128.4 117.55 M126.75 122.3 L125.4 122.3 124.35 122.3 124.35 122.55 123.8 123.6 121.0 126.4 120.65 126.75 120.3 127.05 118.65 128.4 118.2 128.75 Q117.4 128.75 115.15 127.25 L114.45 126.75 112.55 125.3 108.15 121.85 108.05 121.85 108.0 121.85 107.8 121.85 107.6 121.9 107.5 121.9 101.95 123.5 101.6 123.6 100.5 124.0 95.0 126.2 Q90.25 125.6 89.1 125.0 L89.1 125.05 88.15 127.5 88.7 127.65 91.4 128.25 Q94.95 128.25 100.35 126.1 L102.5 125.15 Q104.9 124.05 106.05 124.05 L106.5 124.1 Q107.8 124.35 108.75 125.8 L109.55 126.55 110.85 127.2 111.85 128.15 111.9 128.15 112.35 128.6 113.95 130.05 Q115.65 131.2 117.1 131.75 L119.4 132.25 121.35 129.6 121.5 128.85 121.85 127.5 Q122.8 124.8 124.6 124.8 L124.7 124.8 124.75 124.8 124.85 124.8 124.95 124.8 125.6 124.9 126.7 125.1 127.05 125.2 128.05 125.6 Q128.3 125.05 128.65 124.8 L129.1 125.95 Q130.85 126.55 134.1 127.9 137.25 129.2 140.35 129.55 L142.45 129.65 142.5 129.3 143.3 129.2 142.35 127.4 141.4 127.55 140.6 127.55 Q137.05 127.35 132.85 125.45 L128.8 123.4 128.5 123.3 128.35 123.1 128.2 123.0 127.85 122.45 127.9 122.3 126.75 122.3 M133.95 121.95 L132.15 122.2 131.05 122.25 131.1 122.45 131.05 122.55 136.0 123.85 137.95 124.45 138.9 124.75 141.2 125.45 141.4 125.5 140.95 124.2 138.2 121.95 136.55 120.65 136.5 120.7 136.5 120.75 Q136.0 121.5 133.95 121.95 M132.0 115.85 L132.1 114.4 122.2 112.6 108.15 109.55 100.45 107.25 Q96.95 105.95 94.7 104.3 94.25 106.4 94.25 107.2 94.25 108.35 103.25 110.9 L107.2 112.0 Q120.4 115.55 132.0 115.95 L132.0 115.85 M137.85 136.8 Q137.0 133.9 137.0 131.5 L137.05 131.05 136.1 130.7 136.3 131.6 136.5 133.5 136.4 137.35 136.35 137.35 136.3 138.7 136.25 140.2 136.25 140.4 136.15 141.85 136.05 143.85 136.25 143.8 140.15 143.05 139.45 141.3 139.4 141.1 138.8 139.5 138.75 139.45 138.05 137.5 137.85 136.8 M134.15 135.35 L134.25 134.45 134.5 132.65 Q134.75 131.25 135.1 130.35 L132.5 129.4 Q128.05 127.75 127.3 127.75 125.8 127.75 123.55 130.8 L124.45 134.6 Q125.4 138.7 126.25 140.5 L126.5 140.5 Q126.9 137.1 127.4 134.95 128.25 131.0 130.5 131.0 L130.95 131.1 131.95 131.8 Q132.95 132.8 134.0 135.3 L134.15 135.6 134.15 135.35 M144.8 133.8 L143.3 132.4 142.7 131.5 139.0 131.5 140.15 135.6 140.8 138.4 140.9 138.9 141.35 141.0 141.5 141.85 141.45 142.8 149.6 141.35 147.8 140.2 147.45 139.95 149.5 139.2 148.35 137.95 148.3 137.9 148.05 137.55 147.5 136.75 147.35 136.55 146.0 134.8 144.8 133.8 M129.95 135.3 L129.05 139.65 Q128.15 144.5 126.5 144.5 124.4 144.5 123.0 138.15 L122.15 132.6 121.35 133.45 121.45 134.5 121.0 136.8 121.0 140.75 Q121.0 145.9 122.25 146.8 L125.05 149.55 127.5 151.65 127.85 151.8 127.95 151.8 128.0 151.8 Q128.6 151.8 130.5 149.8 L131.0 149.25 133.5 146.0 Q134.0 144.8 134.05 143.2 L134.0 140.9 Q132.9 140.45 132.15 137.8 L132.1 137.6 132.05 137.3 131.95 136.95 130.95 133.65 130.8 133.25 130.8 133.3 130.3 134.3 129.95 135.3 M134.0 148.4 Q135.4 147.45 135.75 146.5 L135.95 145.0 Q135.7 146.05 134.0 148.4 M147.35 144.4 L146.2 144.6 136.35 145.95 134.95 148.7 Q133.5 151.2 133.45 152.5 133.4 153.9 132.85 155.55 L132.0 157.25 135.45 157.85 140.6 158.2 143.2 156.1 Q145.4 154.25 146.4 154.0 146.1 153.1 146.1 152.15 146.1 150.0 146.8 146.65 L147.35 144.4 M110.2 100.4 L110.35 100.1 110.3 100.1 105.9 99.15 105.85 99.15 105.85 99.2 105.4 101.2 Q104.95 102.6 104.95 103.2 104.95 104.1 104.25 105.0 L103.75 105.7 104.4 105.9 107.05 106.7 Q107.45 105.55 109.2 102.75 L110.2 100.4 M112.7 115.45 L112.7 115.4 110.4 115.0 106.25 114.15 105.95 114.05 104.1 113.35 103.9 115.0 103.7 117.5 109.05 118.3 112.9 118.8 119.9 119.65 120.15 117.85 120.35 116.55 112.7 115.45 M97.5 116.35 L101.4 117.1 101.95 112.5 98.65 111.1 98.2 110.95 93.35 108.95 92.95 110.95 92.3 114.8 Q93.9 115.55 97.5 116.35 M121.25 122.15 L110.55 121.0 112.15 122.65 Q115.2 125.95 117.95 125.95 118.5 125.95 120.2 123.5 120.75 122.65 121.25 122.15 M89.6 123.7 L93.85 123.75 Q94.8 123.75 100.3 121.6 L104.35 120.1 Q94.6 118.6 91.5 117.25 91.35 119.45 90.15 122.4 L89.6 123.7 M100.9 138.0 L102.3 134.75 104.1 129.95 Q104.75 128.05 105.3 127.05 L100.95 128.65 97.8 129.6 95.0 130.35 95.0 130.5 93.1 134.45 91.2 138.05 91.15 138.1 89.35 140.75 88.3 141.85 95.3 143.75 98.5 144.5 98.5 144.25 99.1 142.3 98.85 142.25 Q98.75 142.6 98.7 142.0 L99.2 142.0 99.7 140.75 100.15 139.7 100.3 139.3 100.4 139.1 100.9 138.0 M118.85 134.5 Q117.2 134.5 116.35 133.9 L115.65 133.4 115.45 133.3 114.35 137.55 113.55 140.05 113.4 140.5 112.45 143.4 112.4 143.5 111.2 146.65 113.15 146.7 119.25 146.2 119.1 145.8 119.0 144.5 119.0 144.3 119.0 141.8 119.0 140.55 119.0 140.4 119.05 138.75 Q119.05 136.3 119.3 134.55 L119.3 134.5 119.15 134.5 118.85 134.5 M112.05 138.45 L112.7 134.65 Q112.9 133.15 113.6 132.3 L111.05 130.65 107.0 127.55 Q106.7 129.85 103.75 136.95 L102.8 139.15 102.3 140.25 101.25 142.65 100.25 144.9 110.2 146.55 110.0 145.55 Q110.0 144.85 110.55 143.65 L110.65 143.45 111.25 141.8 111.4 141.0 Q111.65 139.25 112.0 138.5 L112.05 138.45 M146.95 156.55 Q144.65 156.55 143.2 158.65 L149.75 159.4 Q149.45 156.5 146.95 156.55" fill="#000000" fill-rule="evenodd" stroke="none"/>
      <path d="M136.35 106.5 L136.4 106.3 136.35 106.5 M114.25 95.05 L110.3 93.75 111.95 91.65 Q113.6 89.55 113.6 88.3 L113.6 88.1 116.8 87.85 117.9 88.3 Q117.3 88.95 116.9 89.95 114.3 94.0 114.3 94.85 L114.25 95.05 M110.3 100.1 L110.2 100.4 109.2 102.75 Q107.45 105.55 107.05 106.7 L104.4 105.9 103.75 105.7 104.25 105.0 Q104.95 104.1 104.95 103.2 104.95 102.6 105.4 101.2 L105.85 99.2 105.9 99.15 110.3 100.1" fill="#221c15" fill-rule="evenodd" stroke="none"/>
      <path d="M136.15 99.4 L138.1 100.0 Q138.45 100.45 139.3 101.15 L138.55 101.65 136.45 101.0 136.15 99.7 136.15 99.4 M155.25 87.25 L150.75 83.95 148.7 80.6 Q151.7 78.35 152.25 76.7 L152.3 76.75 Q152.3 77.4 157.75 81.85 160.05 83.75 161.35 85.45 L155.25 87.25 M131.75 107.7 L135.95 108.45 136.25 109.3 Q134.1 110.4 133.2 111.55 L132.75 112.25 130.2 111.75 129.8 111.25 Q129.8 109.15 131.75 107.7 M137.95 124.45 L135.55 122.95 133.95 121.95 Q136.0 121.5 136.5 120.75 L136.5 120.7 136.55 120.65 138.2 121.95 140.95 124.2 141.4 125.5 141.2 125.45 138.9 124.75 137.95 124.45" fill="#666666" fill-rule="evenodd" stroke="none"/>
      <path d="M101.3 89.85 L101.3 89.45 108.5 88.65 111.5 88.3 109.75 90.25 Q108.6 91.7 108.2 92.9 L106.6 92.1 Q104.15 90.85 100.8 90.55 L101.3 89.85 M97.0 96.7 L100.8 97.85 104.1 98.75 Q103.05 99.65 102.85 101.65 102.75 102.55 101.75 103.95 L101.2 104.8 100.6 104.55 97.05 103.1 Q95.9 102.35 95.25 102.1 L96.2 98.65 97.0 96.7 M136.45 101.0 L127.55 98.45 118.9 96.2 115.85 95.45 Q117.45 93.9 119.65 89.05 L124.3 90.7 132.2 93.3 Q131.9 94.6 131.9 95.35 131.9 96.75 134.35 98.4 135.2 99.0 136.15 99.4 L136.15 99.7 136.45 101.0 M155.25 87.25 L149.1 89.25 139.35 92.5 Q137.75 92.5 137.05 90.05 136.25 87.55 135.7 87.55 L135.7 87.45 Q137.6 86.95 141.1 85.1 L148.25 80.9 148.7 80.6 150.75 83.95 155.25 87.25 M79.25 142.05 L80.3 141.9 Q84.3 143.35 92.9 145.35 L97.55 146.45 Q96.75 146.75 95.9 147.2 L90.1 150.3 84.0 151.9 78.45 152.9 77.8 152.3 Q76.6 151.35 74.6 151.35 73.9 151.35 72.35 152.55 L70.8 153.75 69.45 153.5 68.75 153.15 Q68.5 153.15 68.5 151.85 68.5 149.2 69.55 145.0 70.35 141.65 71.5 140.1 L74.55 141.25 Q77.3 142.05 79.25 142.05 M76.35 154.2 L76.05 154.6 74.0 154.25 73.85 154.2 Q74.7 153.2 75.55 153.65 L76.35 154.2 M131.75 107.7 Q129.8 109.15 129.8 111.25 L130.2 111.75 120.8 109.85 Q114.2 108.55 109.05 107.25 L111.7 103.6 112.55 101.2 112.6 101.2 Q114.35 102.35 115.35 102.7 L126.25 106.1 131.75 107.7 M137.1 111.2 L137.3 110.95 Q137.75 111.45 138.3 111.45 L138.35 111.45 137.6 112.5 Q137.55 111.5 137.1 111.2 M117.1 131.75 Q115.65 131.2 113.95 130.05 L112.35 128.6 111.9 128.15 115.8 130.8 117.1 131.75 M114.45 126.75 L115.15 127.25 114.8 127.15 114.45 126.75 M118.65 128.4 L120.3 127.05 119.85 128.7 118.65 128.4 M137.95 124.45 L136.0 123.85 131.05 122.55 131.1 122.45 131.05 122.25 132.15 122.2 133.95 121.95 135.55 122.95 137.95 124.45 M147.35 144.4 L146.8 146.65 Q146.1 150.0 146.1 152.15 146.1 153.1 146.4 154.0 145.4 154.25 143.2 156.1 L140.6 158.2 135.45 157.85 132.0 157.25 132.85 155.55 Q133.4 153.9 133.45 152.5 133.5 151.2 134.95 148.7 L136.35 145.95 146.2 144.6 147.35 144.4 M89.6 123.7 L90.15 122.4 Q91.35 119.45 91.5 117.25 94.6 118.6 104.35 120.1 L100.3 121.6 Q94.8 123.75 93.85 123.75 L89.6 123.7 M121.25 122.15 Q120.75 122.65 120.2 123.5 118.5 125.95 117.95 125.95 115.2 125.95 112.15 122.65 L110.55 121.0 121.25 122.15 M146.95 156.55 Q149.45 156.5 149.75 159.4 L143.2 158.65 Q144.65 156.55 146.95 156.55" fill="#333333" fill-rule="evenodd" stroke="none"/>
      <path d="M164.85 91.9 Q166.75 93.2 170.45 95.95 L171.45 96.75 169.9 98.3 168.85 99.5 163.8 96.35 161.05 93.9 Q162.3 93.7 163.75 92.75 L164.85 91.9 M130.8 130.95 L133.2 132.15 134.2 132.65 131.95 131.8 130.95 131.1 130.8 130.95" fill="#e5e5e5" fill-rule="evenodd" stroke="none"/>
      <path d="M136.35 106.5 Q133.15 105.1 125.1 102.95 L116.1 100.6 112.65 99.25 112.4 98.8 111.7 98.5 111.4 98.8 105.55 96.85 Q100.45 95.35 97.8 95.25 L99.35 92.65 99.7 92.15 116.5 98.1 137.35 103.45 137.2 104.0 136.4 106.25 136.4 106.3 136.35 106.5 M130.2 89.9 L125.05 88.65 Q122.85 88.45 120.55 87.55 L123.05 87.45 133.6 87.55 132.85 90.85 130.2 89.9 M141.9 103.85 L142.6 105.5 Q141.35 106.95 139.4 109.9 L138.9 109.25 Q138.35 108.45 138.35 107.75 138.35 107.25 139.5 104.55 L140.5 102.2 141.9 103.85 M137.6 112.5 L137.6 112.75 Q136.2 115.6 135.15 116.25 L134.15 116.25 134.1 116.25 Q134.25 114.1 136.35 111.9 L137.1 111.2 Q137.55 111.5 137.6 112.5 M128.25 119.75 L125.1 119.9 124.6 119.9 122.1 119.8 122.45 116.8 128.4 117.55 128.45 118.4 128.25 119.75 M123.8 123.6 L124.35 122.55 124.35 122.3 125.4 122.3 126.75 122.3 Q125.5 122.65 123.8 123.6 M128.35 123.1 L128.5 123.3 128.8 123.4 132.85 125.45 Q137.05 127.35 140.6 127.55 140.15 128.15 140.15 128.7 L140.35 129.55 Q137.25 129.2 134.1 127.9 130.85 126.55 129.1 125.95 L128.65 124.8 Q128.3 125.05 128.05 125.6 L127.05 125.2 127.15 125.05 128.35 123.1 M121.85 127.5 L121.5 128.85 121.35 129.6 119.4 132.25 117.1 131.75 115.8 130.8 111.9 128.15 111.85 128.15 110.85 127.2 109.55 126.55 108.75 125.8 Q107.8 124.35 106.5 124.1 108.05 123.1 108.05 121.95 L108.05 121.85 108.15 121.85 112.55 125.3 114.45 126.75 114.8 127.15 115.15 127.25 Q117.4 128.75 118.2 128.75 L118.65 128.4 119.85 128.7 120.3 127.05 120.65 126.75 120.6 126.8 Q120.6 127.25 120.85 127.35 L121.6 127.55 121.85 127.5 M100.35 126.1 Q94.95 128.25 91.4 128.25 L88.7 127.65 88.15 127.5 89.1 125.05 89.1 125.0 Q90.25 125.6 95.0 126.2 L100.5 124.0 101.6 123.6 99.7 125.6 100.35 126.1 M129.95 135.3 L130.0 135.5 130.0 141.05 Q129.7 144.75 128.5 146.95 127.6 148.65 127.5 151.65 L125.05 149.55 122.25 146.8 Q121.0 145.9 121.0 140.75 L121.0 136.8 121.45 134.5 121.35 133.45 122.15 132.6 123.0 138.15 Q124.4 144.5 126.5 144.5 128.15 144.5 129.05 139.65 L129.95 135.3 M130.95 133.65 L130.8 133.3 130.8 133.25 130.95 133.65 M112.9 118.8 L109.05 118.3 103.7 117.5 103.9 115.0 104.1 113.35 105.95 114.05 106.25 114.15 110.4 115.0 112.7 115.4 112.7 115.45 112.85 115.6 Q113.45 116.3 113.45 117.05 L113.1 118.4 112.9 118.8 M97.5 116.35 Q93.9 115.55 92.3 114.8 L92.95 110.95 93.35 108.95 98.2 110.95 98.65 111.1 98.1 114.25 97.5 116.35" fill="#8e6c24" fill-rule="evenodd" stroke="none"/>
      <path d="M135.15 92.0 Q136.55 94.85 140.2 94.85 141.4 94.85 145.75 93.15 L152.3 90.45 158.3 89.1 Q161.5 88.25 162.6 87.35 163.2 88.65 163.2 89.75 163.2 90.6 159.35 92.0 155.1 93.35 154.25 93.75 L148.95 96.2 148.2 96.5 148.15 96.45 147.7 96.7 Q144.05 98.0 141.9 98.0 138.4 98.0 136.0 96.8 134.15 95.85 134.15 95.15 134.15 93.4 134.8 91.85 L135.15 92.0 M128.4 117.55 L134.3 118.3 134.1 119.6 128.25 119.75 128.45 118.4 128.4 117.55 M123.8 123.6 Q125.5 122.65 126.75 122.3 L127.9 122.3 127.85 122.45 128.2 123.0 128.35 123.1 127.15 125.05 127.05 125.2 126.7 125.1 125.6 124.9 124.95 124.8 124.85 124.8 124.75 124.8 124.7 124.8 124.6 124.8 Q122.8 124.8 121.85 127.5 L121.6 127.55 120.85 127.35 Q120.6 127.25 120.6 126.8 L120.65 126.75 121.0 126.4 123.8 123.6 M140.6 127.55 L141.4 127.55 142.35 127.4 143.3 129.2 142.5 129.3 142.45 129.65 140.35 129.55 140.15 128.7 Q140.15 128.15 140.6 127.55 M106.5 124.1 L106.05 124.05 Q104.9 124.05 102.5 125.15 L100.35 126.1 99.7 125.6 101.6 123.6 101.95 123.5 107.5 121.9 107.6 121.9 107.8 121.85 108.0 121.85 108.05 121.85 108.05 121.95 Q108.05 123.1 106.5 124.1 M127.5 151.65 Q127.6 148.65 128.5 146.95 129.7 144.75 130.0 141.05 L130.0 135.5 129.95 135.3 130.3 134.3 130.8 133.3 130.95 133.65 131.95 136.95 132.05 137.3 132.1 137.6 132.15 137.8 Q132.9 140.45 134.0 140.9 L134.05 143.2 Q134.0 144.8 133.5 146.0 L131.0 149.25 130.5 149.8 Q128.6 151.8 128.0 151.8 L127.95 151.8 127.85 151.8 127.5 151.65 M112.7 115.45 L120.35 116.55 120.15 117.85 119.9 119.65 112.9 118.8 113.1 118.4 113.45 117.05 Q113.45 116.3 112.85 115.6 L112.7 115.45 M98.65 111.1 L101.95 112.5 101.4 117.1 97.5 116.35 98.1 114.25 98.65 111.1" fill="#cc9d3c" fill-rule="evenodd" stroke="none"/>
      <path d="M158.2 94.6 L157.9 95.0 157.85 94.95 158.2 94.6 M167.15 110.2 L166.75 110.4 Q166.75 109.55 166.55 109.45 L166.7 109.5 167.15 110.2 M100.25 81.1 L100.25 81.35 100.15 81.1 100.25 81.1 M79.75 139.45 L79.05 139.2 79.1 139.2 79.75 139.45" fill="#942403" fill-rule="evenodd" stroke="none"/>
      <path d="M105.2 72.25 Q108.25 73.5 112.7 73.65 L106.05 74.45 97.45 73.95 88.75 73.4 Q78.55 73.4 69.3 77.75 62.25 81.1 59.4 84.7 58.05 86.5 54.45 89.75 L49.6 94.0 Q47.5 95.85 46.3 97.0 45.55 97.5 43.95 99.05 L42.3 100.9 Q41.15 101.2 39.9 104.15 L37.05 111.3 Q32.5 121.75 25.55 121.75 24.45 121.75 22.95 116.75 21.55 112.1 21.55 109.8 L21.05 106.4 20.6 102.95 24.7 98.8 28.8 94.55 28.8 94.45 Q34.2 89.25 44.65 82.1 L51.45 76.55 Q55.2 73.45 58.85 72.25 L67.35 68.3 Q74.85 64.8 77.45 64.8 91.8 64.8 99.5 69.2 104.1 71.8 105.2 72.25 M109.65 70.75 Q110.7 69.35 111.25 66.15 111.8 62.6 113.25 62.6 123.6 62.6 133.35 67.3 136.05 68.6 138.25 69.9 L129.8 70.9 127.85 71.25 Q127.8 70.45 127.55 70.85 L127.0 70.45 125.9 70.35 121.15 70.95 114.25 71.3 109.3 70.7 109.65 70.75 M38.45 113.65 L41.1 106.5 Q42.4 103.25 43.65 103.25 L44.6 103.3 44.55 103.3 47.15 107.65 Q45.15 108.75 41.15 111.7 L38.5 113.7 38.45 113.65" fill="#440367" fill-rule="evenodd" stroke="none"/>
      <path d="M158.2 94.6 L166.9 100.65 172.75 104.85 Q173.9 104.85 175.2 103.35 L175.6 102.9 177.45 104.45 Q180.4 106.9 180.7 107.45 177.85 109.7 172.3 113.15 164.9 117.65 162.55 117.65 161.8 117.65 159.0 115.9 L158.9 115.5 Q160.9 114.65 161.2 114.25 L161.15 114.1 161.3 113.95 162.2 113.85 164.9 112.3 Q166.75 111.2 166.75 110.4 L167.15 110.2 167.3 110.5 Q169.1 109.4 169.1 108.65 169.1 107.55 166.35 104.55 163.35 101.2 163.05 100.55 L159.4 96.3 157.9 95.0 158.2 94.6 M100.25 81.1 L100.15 81.1 100.25 81.35 100.25 81.1 M50.45 108.1 Q52.0 104.4 56.75 99.0 63.3 91.45 67.8 89.15 79.6 83.25 83.65 81.9 92.25 79.1 104.75 79.1 L120.55 78.7 126.15 78.05 Q127.95 77.2 130.95 76.25 L139.5 73.55 143.2 72.05 143.25 72.0 143.85 72.1 147.45 72.55 Q149.75 73.1 150.5 74.25 L151.0 75.4 147.25 78.6 Q144.05 81.4 142.15 82.05 L136.1 84.2 122.35 85.25 101.05 86.65 Q91.1 88.05 85.0 91.95 77.05 97.05 72.85 100.7 67.15 105.7 65.5 110.3 62.1 119.65 60.4 126.9 L59.5 124.65 Q57.55 120.2 55.45 116.5 L52.05 110.65 52.0 110.55 51.8 110.2 50.9 108.75 50.45 108.1 M79.75 139.45 L79.1 139.2 Q79.7 138.45 80.65 137.8 L81.25 137.45 82.2 138.05 82.15 137.9 81.8 136.0 81.75 135.9 83.15 134.95 84.8 135.9 87.1 137.5 87.65 138.0 87.7 138.0 88.2 138.5 87.3 140.3 87.0 140.9 87.05 141.5 79.75 139.45 M138.8 139.5 L139.4 141.1 139.25 141.3 136.15 141.85 136.25 140.4 137.0 140.0 Q137.9 139.6 138.65 139.55 L138.8 139.5 M130.5 131.0 Q128.25 131.0 127.4 134.95 126.9 137.1 126.5 140.5 L126.25 140.5 Q125.4 138.7 124.45 134.6 L123.55 130.8 Q125.8 127.75 127.3 127.75 128.05 127.75 132.5 129.4 L135.1 130.35 Q134.75 131.25 134.5 132.65 L134.25 134.45 134.15 135.35 134.0 135.3 Q132.95 132.8 131.95 131.8 L134.2 132.65 133.2 132.15 130.8 130.95 130.5 131.0 M141.25 138.3 Q141.9 136.75 143.65 136.85 146.4 137.0 147.05 136.8 L147.5 136.75 148.05 137.55 148.3 137.9 148.35 137.95 149.5 139.2 147.45 139.95 146.05 140.3 141.35 141.0 140.9 138.9 141.25 138.3 M99.7 140.75 L99.2 142.0 98.7 142.0 Q98.75 142.6 98.85 142.25 L99.1 142.3 98.5 144.25 98.5 144.5 95.3 143.75 88.3 141.85 89.35 140.75 91.15 138.1 94.2 138.8 95.65 139.2 97.55 139.85 99.7 140.75 M111.4 141.0 L111.25 141.8 110.65 143.45 110.55 143.65 Q110.0 144.85 110.0 145.55 L110.2 146.55 100.25 144.9 101.25 142.65 102.3 140.25 102.9 140.15 104.85 140.05 111.4 141.0 M113.6 140.45 L116.75 140.75 Q118.15 141.25 119.0 141.8 L119.0 144.3 119.0 144.5 119.1 145.8 119.25 146.2 113.15 146.7 111.2 146.65 112.4 143.5 112.95 143.55 112.55 143.4 112.45 143.4 113.4 140.5 113.6 140.45" fill="#7006a8" fill-rule="evenodd" stroke="none"/>
      <path d="M50.45 108.1 L50.1 107.65 Q47.6 104.0 45.7 102.3 46.1 100.9 47.3 99.5 L51.15 95.75 Q56.45 90.45 59.55 87.95 L63.3 83.95 Q65.85 81.35 69.25 80.4 71.55 79.4 73.8 78.45 78.35 76.55 79.7 76.55 L84.3 76.1 88.9 75.6 106.1 76.8 112.3 76.4 120.55 74.85 126.05 73.75 131.85 72.9 136.55 72.45 141.25 71.95 143.2 72.05 139.5 73.55 130.95 76.25 Q127.95 77.2 126.15 78.05 L120.55 78.7 104.75 79.1 Q92.25 79.1 83.65 81.9 79.6 83.25 67.8 89.15 63.3 91.45 56.75 99.0 52.0 104.4 50.45 108.1 M139.45 141.3 L140.15 143.05 136.25 143.8 136.05 143.85 136.15 141.85 139.25 141.3 139.45 141.3 M141.35 141.0 L146.05 140.3 147.45 139.95 147.8 140.2 149.6 141.35 141.45 142.8 141.5 141.85 141.35 141.0" fill="#9309dd" fill-rule="evenodd" stroke="none"/>
      <path d="M155.95 95.5 L156.1 95.85 160.15 100.7 163.6 104.95 Q162.0 105.2 157.55 107.2 L157.15 107.4 155.85 106.1 Q151.05 101.45 149.1 98.3 L151.95 97.15 155.95 95.5 M85.65 132.5 Q87.0 131.0 87.35 130.15 L91.5 130.5 92.25 130.5 92.85 130.5 93.0 130.5 Q91.65 132.05 90.0 135.05 L86.75 133.0 85.65 132.5 M88.45 138.0 L88.2 138.5 87.7 138.0 88.45 138.0 M153.4 106.75 L154.95 108.45 Q151.15 110.35 149.8 111.6 145.95 107.4 145.25 105.1 143.55 101.75 142.45 100.3 144.25 100.05 147.05 99.1 148.05 100.8 153.4 106.75 M132.0 115.85 L132.0 115.95 Q120.4 115.55 107.2 112.0 L103.25 110.9 Q94.25 108.35 94.25 107.2 94.25 106.4 94.7 104.3 96.95 105.95 100.45 107.25 L108.15 109.55 122.2 112.6 132.1 114.4 132.0 115.85 M136.4 137.35 L136.5 133.5 136.3 131.6 136.1 130.7 137.05 131.05 137.0 131.5 Q137.0 133.9 137.85 136.8 137.05 136.9 136.4 137.35 M138.75 139.45 L138.8 139.5 138.65 139.55 138.75 139.45 M139.4 141.1 L139.45 141.3 139.25 141.3 139.4 141.1 M144.8 133.8 Q142.9 134.1 140.8 135.25 L140.15 135.6 139.0 131.5 142.7 131.5 143.3 132.4 144.8 133.8 M93.1 134.45 L95.0 130.5 95.0 130.35 97.8 129.6 100.95 128.65 105.3 127.05 Q104.75 128.05 104.1 129.95 L102.3 134.75 100.9 138.0 Q99.45 136.6 95.55 135.2 L93.1 134.45 M100.15 139.7 L99.7 140.75 97.55 139.85 99.0 140.0 100.15 139.7 M91.15 138.1 L91.2 138.05 92.25 138.25 Q92.9 138.35 94.2 138.8 L91.15 138.1 M114.35 137.55 L115.45 133.3 115.65 133.4 116.35 133.9 Q117.2 134.5 118.85 134.5 L119.3 134.55 Q119.05 136.3 119.05 138.75 116.15 137.7 114.35 137.55 M103.75 136.95 Q106.7 129.85 107.0 127.55 L111.05 130.65 113.6 132.3 Q112.9 133.15 112.7 134.65 L112.05 138.45 Q110.7 137.65 107.6 137.25 L103.75 136.95 M102.3 140.25 L102.8 139.15 102.45 139.95 102.5 139.95 102.9 140.15 102.3 140.25 M112.4 143.5 L112.45 143.4 112.55 143.4 112.95 143.55 112.4 143.5" fill="#cccccc" fill-rule="evenodd" stroke="none"/>
      <path d="M175.1 100.55 Q174.2 100.75 173.8 101.35 L172.9 102.0 170.45 100.5 Q171.85 99.7 172.3 99.3 172.7 98.85 172.7 97.7 L175.5 100.0 175.45 100.5 175.1 100.55 M166.4 109.0 L165.95 109.25 162.3 110.65 Q161.5 111.05 161.1 111.7 L159.2 109.5 161.8 108.15 Q164.0 106.95 164.6 106.35 L166.4 109.0 M151.0 112.9 L151.3 112.55 Q152.65 112.55 156.85 110.55 L159.0 112.9 156.8 113.65 154.9 114.3 154.1 114.4 154.1 114.5 152.8 114.65 151.0 112.9 M140.8 138.4 L141.25 138.3 140.9 138.9 140.8 138.4 M147.05 136.8 L147.35 136.55 147.5 136.75 147.05 136.8 M113.4 140.5 L113.55 140.05 113.6 140.45 113.4 140.5" fill="#00a6a6" fill-rule="evenodd" stroke="none"/>
      <path d="M83.15 134.95 L85.1 133.1 85.65 132.5 86.75 133.0 90.0 135.05 88.45 138.0 87.7 138.0 87.65 138.0 87.1 137.5 84.8 135.9 83.15 134.95 M136.4 137.35 Q137.05 136.9 137.85 136.8 L138.05 137.5 138.75 139.45 138.65 139.55 Q137.9 139.6 137.0 140.0 L136.25 140.4 136.25 140.2 136.3 138.7 136.35 137.35 136.4 137.35 M140.15 135.6 L140.8 135.25 Q142.9 134.1 144.8 133.8 L146.0 134.8 147.35 136.55 147.05 136.8 Q146.4 137.0 143.65 136.85 141.9 136.75 141.25 138.3 L140.8 138.4 140.15 135.6 M93.1 134.45 L95.55 135.2 Q99.45 136.6 100.9 138.0 L100.4 139.1 100.3 139.3 100.15 139.7 99.0 140.0 97.55 139.85 95.65 139.2 94.2 138.8 Q92.9 138.35 92.25 138.25 L91.2 138.05 93.1 134.45 M114.35 137.55 Q116.15 137.7 119.05 138.75 L119.0 140.4 119.0 140.55 119.0 141.8 Q118.15 141.25 116.75 140.75 L113.6 140.45 113.55 140.05 114.35 137.55 M103.75 136.95 L107.6 137.25 Q110.7 137.65 112.05 138.45 L112.0 138.5 Q111.65 139.25 111.4 141.0 L104.85 140.05 102.9 140.15 102.5 139.95 102.45 139.95 102.8 139.15 103.75 136.95" fill="#006262" fill-rule="evenodd" stroke="none"/>
      <path d="M176.0 120.65 Q174.05 120.45 173.1 119.9 171.7 119.0 170.75 119.0 L170.65 119.0 169.5 117.55 174.5 114.6 Q180.65 110.7 182.65 108.8 L184.0 110.05 185.0 112.4 Q186.0 114.7 186.0 115.5 186.0 117.0 184.6 118.5 182.55 120.7 178.5 120.75 L176.0 120.65" fill="#4e3729" fill-rule="evenodd" stroke="none"/>
    </g>
    <g id="shape3" transform="matrix(1.0, 0.0, 0.0, 1.0, 65.0, 65.55)">
      <path d="M14.3 -64.9 Q26.6 -67.3 27.5 -60.85 L27.75 -54.8 28.0 -50.35 27.0 -38.0 Q26.85 -35.5 27.15 -30.8 L27.5 -25.8 27.45 -23.3 29.8 -23.9 32.25 -31.1 Q33.6 -36.0 37.2 -37.75 40.8 -39.5 44.55 -37.25 49.5 -32.15 49.5 -26.0 49.5 -23.95 48.5 -22.65 46.9 -20.5 43.0 -20.5 40.75 -20.5 39.3 -22.05 L37.55 -16.9 35.05 -9.75 Q35.3 -5.05 34.8 -1.95 34.15 2.45 31.7 3.6 L31.75 3.65 30.55 4.6 30.8 4.75 30.25 4.75 29.1 5.0 29.5 7.1 Q30.05 8.0 30.6 9.75 L32.75 16.1 34.15 21.0 Q34.15 23.6 32.05 23.85 32.7 28.75 33.3 31.6 L34.45 35.3 Q35.0 37.1 35.0 39.0 L34.9 39.35 33.05 39.75 Q33.45 42.65 33.7 48.1 L33.85 54.05 33.6 57.15 Q34.1 57.5 32.85 57.5 31.55 57.5 26.5 54.5 21.6 51.4 21.35 51.25 L21.25 51.25 21.4 51.6 21.5 52.55 21.3 53.55 20.65 53.9 Q16.5 51.5 14.45 46.85 13.6 44.9 12.1 38.65 11.85 38.75 10.8 39.75 L9.7 38.0 Q9.05 36.6 9.05 36.0 9.05 35.2 9.95 29.95 L10.4 27.45 10.05 27.5 Q8.9 29.6 5.5 31.9 0.05 35.55 -5.75 35.25 L-6.0 35.1 -6.25 34.15 Q-6.25 33.4 -5.0 32.15 L-3.25 30.35 -8.05 27.9 -9.4 26.7 Q-19.75 28.5 -24.25 28.5 -29.3 28.5 -32.2 26.45 L-33.4 25.4 -33.5 25.4 -33.5 25.05 Q-33.5 24.1 -33.9 23.55 L-33.85 23.55 Q-31.45 20.8 -29.0 17.15 L-28.0 15.6 -28.0 15.05 Q-27.45 13.0 -26.7 6.65 -26.0 1.0 -26.0 -0.05 -26.0 -10.95 -39.8 -27.3 -51.75 -41.4 -65.0 -50.1 -63.6 -52.0 -61.5 -52.35 -56.3 -53.6 -51.25 -53.5 -46.45 -53.45 -43.35 -52.25 L-34.7 -50.05 -33.9 -49.8 -33.95 -50.4 Q-33.35 -49.5 -32.0 -49.5 L-31.5 -49.55 -31.5 -49.05 -29.35 -48.25 -28.35 -47.8 Q-24.2 -46.0 -20.5 -43.55 -20.5 -46.65 -11.7 -52.9 -5.25 -57.55 0.5 -60.5 6.35 -63.35 14.3 -64.9 M20.15 -22.75 L21.0 -22.75 20.75 -23.25 22.0 -23.0 23.15 -23.2 23.3 -22.8 25.9 -23.05 Q25.3 -24.95 25.1 -27.9 L25.0 -34.65 26.0 -50.4 Q26.0 -53.35 25.5 -56.6 25.4 -57.05 25.45 -57.95 L25.5 -59.6 Q25.5 -60.5 25.0 -61.1 L25.0 -61.85 18.9 -62.25 Q7.25 -62.25 -4.35 -55.3 -14.2 -49.4 -18.75 -42.35 -16.95 -41.05 -15.25 -39.6 L-14.85 -39.25 Q-3.3 -29.45 7.95 -25.35 13.0 -23.55 17.65 -22.95 L20.15 -22.75 M-22.85 26.25 L-13.45 25.15 Q-9.4 24.25 -9.0 23.8 -8.4 23.1 -8.15 22.15 L-7.85 20.5 Q-7.55 17.75 -6.5 13.75 L-6.3 12.6 -5.75 10.95 -4.9 7.25 Q-4.65 6.25 -3.1 3.6 -2.15 2.65 -0.5 2.25 L-0.5 2.35 28.55 2.6 29.85 1.75 30.5 1.45 Q32.5 -0.1 32.5 -4.35 32.5 -7.7 33.5 -11.85 35.5 -20.45 37.8 -24.6 37.5 -25.45 37.5 -26.1 L37.5 -26.85 37.75 -27.1 Q38.05 -27.35 38.5 -27.5 L39.45 -26.3 39.7 -26.25 Q40.0 -26.1 40.0 -25.3 L40.0 -25.05 40.1 -24.8 Q40.9 -22.75 42.65 -22.75 45.9 -22.75 47.0 -24.25 47.6 -25.05 47.5 -25.9 47.5 -27.9 46.0 -31.4 43.9 -36.25 40.65 -36.25 37.05 -36.25 35.1 -32.5 L33.75 -28.5 Q32.9 -27.15 31.85 -24.4 L30.3 -20.25 28.95 -16.05 27.5 -12.0 Q26.6 -10.2 26.6 -7.5 26.6 -4.8 26.05 -3.75 L26.1 -3.55 25.9 -3.5 26.2 -3.1 26.4 -2.55 Q20.4 -2.3 17.3 -2.75 L3.8 -3.55 3.5 -3.5 1.95 -3.4 -3.5 -3.0 -6.0 -1.6 -7.2 0.0 -8.0 1.75 -8.7 4.6 -9.75 8.05 Q-12.8 16.45 -14.35 18.15 -16.05 20.0 -21.0 20.0 L-21.9 19.95 -24.05 19.65 -24.2 19.6 -24.55 19.55 -27.2 18.95 Q-29.3 22.95 -31.0 24.5 L-30.35 24.9 Q-28.05 26.25 -24.25 26.25 L-24.05 26.25 -23.45 26.25 -22.85 26.25 M-21.05 17.75 Q-17.45 17.7 -16.05 16.6 -14.45 15.4 -13.5 11.55 L-12.25 8.6 -11.1 5.55 Q-9.9 -1.8 -6.65 -4.45 -3.9 -6.7 0.9 -6.1 L4.05 -5.5 4.3 -5.35 11.15 -5.15 22.75 -4.8 22.3 -5.45 Q22.85 -5.0 23.5 -5.0 L24.0 -5.0 24.0 -9.35 28.35 -20.15 28.95 -21.6 23.15 -21.05 22.5 -21.0 22.4 -21.0 20.5 -21.0 Q10.3 -21.0 1.15 -25.65 -3.75 -28.15 -14.05 -35.85 -23.7 -43.1 -30.35 -46.1 -40.7 -50.75 -53.0 -50.75 L-53.5 -50.75 -57.45 -50.45 -61.5 -50.0 Q-53.5 -45.15 -47.3 -38.6 L-36.35 -26.25 Q-30.8 -20.25 -27.45 -13.35 -24.0 -6.25 -24.0 -0.4 L-24.75 8.0 -25.6 17.35 -24.75 17.45 -24.65 17.45 -22.3 17.7 -21.95 17.7 -21.25 17.75 -21.05 17.75 M20.5 6.5 L20.3 5.5 20.05 5.25 Q17.65 4.9 16.8 5.2 16.0 5.45 16.0 6.6 16.0 7.35 16.15 7.5 L16.25 7.75 18.25 8.0 19.8 7.75 Q20.5 7.4 20.5 6.5 M27.65 9.35 L26.35 10.75 21.55 14.6 Q19.0 16.6 17.0 18.55 L16.45 19.15 Q12.6 23.55 12.6 28.85 12.6 30.65 11.6 34.3 L11.75 34.35 Q12.5 32.45 16.85 27.95 L22.25 22.6 24.4 20.35 27.3 17.75 Q28.75 16.5 30.0 18.4 L30.85 19.95 31.55 20.0 31.85 20.1 31.8 19.95 Q29.65 13.45 27.8 9.3 L27.75 9.25 27.65 9.35 M28.3 20.25 Q24.35 23.55 20.95 26.8 14.25 33.25 14.25 35.65 L14.1 36.6 14.25 37.25 15.15 41.5 16.45 45.35 Q17.3 48.1 18.75 49.15 L18.65 48.05 18.5 46.75 18.5 46.4 Q18.6 46.0 19.4 46.0 19.85 46.0 22.65 48.95 26.0 52.4 30.8 54.3 31.15 53.75 31.4 50.25 L30.5 48.3 30.0 46.4 30.4 44.0 30.8 41.35 30.3 38.95 Q30.05 37.05 31.05 36.5 L31.85 38.1 31.85 37.9 Q31.85 33.65 31.15 31.4 30.8 30.25 30.15 25.9 L29.65 22.45 Q29.05 22.25 28.9 21.75 L28.3 20.25 M13.05 4.6 L13.05 4.55 12.85 4.55 13.05 4.6 M18.85 9.5 L18.65 9.75 19.3 9.75 18.85 9.5 M11.8 8.7 Q10.5 7.2 9.95 5.95 L10.3 14.35 10.9 21.45 Q12.85 18.55 18.35 13.75 L21.0 11.5 18.75 12.0 Q14.65 12.0 11.8 8.7 M-1.65 32.6 Q0.25 32.95 4.0 29.85 7.65 26.8 7.65 26.25 7.65 25.55 8.05 25.1 L7.65 24.75 7.45 24.6 8.05 22.35 8.15 18.35 Q8.4 14.3 8.05 10.6 7.35 3.25 4.5 3.25 1.75 3.25 0.3 4.55 L-0.7 4.6 Q-4.1 5.45 -4.05 10.25 -4.05 11.15 -5.2 15.7 -6.4 20.25 -6.4 21.25 L-5.6 23.5 -6.9 24.45 -7.6 25.35 -5.65 26.8 Q-2.75 28.8 -0.15 28.1 L-0.05 28.5 0.05 29.55 Q0.05 30.35 -1.6 32.0 L-2.0 32.5 -1.65 32.6" fill="#000000" fill-rule="evenodd" stroke="none"/>
      <path d="M-14.85 -39.25 Q-13.7 -40.05 -10.85 -42.9 L-5.75 -48.1 Q0.7 -53.55 18.55 -58.0 19.1 -54.2 19.85 -43.7 L20.5 -33.0 19.7 -27.15 Q19.4 -24.5 20.15 -22.75 L17.65 -22.95 Q13.0 -23.55 7.95 -25.35 -3.3 -29.45 -14.85 -39.25" fill="#006262" fill-rule="evenodd" stroke="none"/>
      <path d="M13.05 4.6 L12.85 4.55 13.05 4.55 13.05 4.6" fill="#1c181d" fill-rule="evenodd" stroke="none"/>
      <path d="M18.85 9.5 L19.3 9.75 18.65 9.75 18.85 9.5" fill="#8a6b53" fill-rule="evenodd" stroke="none"/>
      <path d="M-53.5 -50.75 L-46.1 -44.35 Q-42.15 -40.75 -37.75 -35.8 L-30.35 -27.5 Q-24.65 -21.45 -21.8 -11.1 -19.5 -2.7 -19.5 6.25 -19.5 8.9 -20.5 14.8 L-21.05 17.75 -21.25 17.75 -21.75 17.45 -21.95 17.7 -22.3 17.7 -24.65 17.45 -24.75 17.45 -25.6 17.35 -24.75 8.0 -24.0 -0.4 Q-24.0 -6.25 -27.45 -13.35 -30.8 -20.25 -36.35 -26.25 L-47.3 -38.6 Q-53.5 -45.15 -61.5 -50.0 L-57.45 -50.45 -53.5 -50.75 M20.5 6.5 Q20.5 7.4 19.8 7.75 L18.25 8.0 16.25 7.75 16.15 7.5 Q16.0 7.35 16.0 6.6 16.0 5.45 16.8 5.2 17.65 4.9 20.05 5.25 L20.3 5.5 20.5 6.5" fill="#ffffff" fill-rule="evenodd" stroke="none"/>
      <path d="M-21.25 17.75 L-21.95 17.7 -21.75 17.45 -21.25 17.75" fill="#52047b" fill-rule="evenodd" stroke="none"/>
      <path d="M-21.0 20.0 L-21.35 20.05 -21.35 20.0 -21.9 19.95 -21.0 20.0 M-22.85 26.25 L-23.45 26.25 -22.85 26.25" fill="#d29e00" fill-rule="evenodd" stroke="none"/>
      <path d="M11.8 8.7 Q14.65 12.0 18.75 12.0 L21.0 11.5 18.35 13.75 Q12.85 18.55 10.9 21.45 L10.3 14.35 9.95 5.95 Q10.5 7.2 11.8 8.7" fill="#4e3729" fill-rule="evenodd" stroke="none"/>
      <path d="M-53.5 -50.75 L-53.0 -50.75 Q-40.7 -50.75 -30.35 -46.1 -23.7 -43.1 -14.05 -35.85 -3.75 -28.15 1.15 -25.65 10.3 -21.0 20.5 -21.0 L22.4 -21.0 22.5 -21.0 23.15 -21.05 28.95 -21.6 28.35 -20.15 24.0 -9.35 24.0 -5.0 23.5 -5.0 Q22.85 -5.0 22.3 -5.45 L22.75 -4.8 11.15 -5.15 4.3 -5.35 4.05 -5.5 0.9 -6.1 Q-3.9 -6.7 -6.65 -4.45 -9.9 -1.8 -11.1 5.55 L-12.25 8.6 -13.5 11.55 Q-14.45 15.4 -16.05 16.6 -17.45 17.7 -21.05 17.75 L-20.5 14.8 Q-19.5 8.9 -19.5 6.25 -19.5 -2.7 -21.8 -11.1 -24.65 -21.45 -30.35 -27.5 L-37.75 -35.8 Q-42.15 -40.75 -46.1 -44.35 L-53.5 -50.75" fill="#cccccc" fill-rule="evenodd" stroke="none"/>
      <path d="M-14.85 -39.25 L-15.25 -39.6 Q-16.95 -41.05 -18.75 -42.35 -14.2 -49.4 -4.35 -55.3 7.25 -62.25 18.9 -62.25 L25.0 -61.85 25.0 -61.1 Q25.5 -60.5 25.5 -59.6 L25.45 -57.95 Q25.4 -57.05 25.5 -56.6 26.0 -53.35 26.0 -50.4 L25.0 -34.65 25.1 -27.9 Q25.3 -24.95 25.9 -23.05 L23.3 -22.8 23.15 -23.2 22.0 -23.0 20.75 -23.25 21.0 -22.75 20.15 -22.75 Q19.4 -24.5 19.7 -27.15 L20.5 -33.0 19.85 -43.7 Q19.1 -54.2 18.55 -58.0 0.7 -53.55 -5.75 -48.1 L-10.85 -42.9 Q-13.7 -40.05 -14.85 -39.25" fill="#00a6a6" fill-rule="evenodd" stroke="none"/>
      <path d="M26.1 -3.55 L26.05 -3.75 Q26.6 -4.8 26.6 -7.5 26.6 -10.2 27.5 -12.0 L28.95 -16.05 30.3 -20.25 31.85 -24.4 Q32.9 -27.15 33.75 -28.5 L35.1 -32.5 Q37.05 -36.25 40.65 -36.25 43.9 -36.25 46.0 -31.4 47.5 -27.9 47.5 -25.9 47.6 -25.05 47.0 -24.25 45.9 -22.75 42.65 -22.75 40.9 -22.75 40.1 -24.8 L40.0 -25.05 40.0 -25.3 Q40.0 -26.1 39.7 -26.25 L39.45 -26.3 38.5 -27.5 Q38.05 -27.35 37.75 -27.1 L37.5 -26.85 37.5 -26.1 Q37.5 -25.45 37.8 -24.6 35.5 -20.45 33.5 -11.85 32.5 -7.7 32.5 -4.35 32.5 -0.1 30.5 1.45 L29.85 1.75 28.55 2.6 -0.5 2.35 -0.5 2.25 Q-2.15 2.65 -3.1 3.6 -4.65 6.25 -4.9 7.25 L-5.75 10.95 -6.3 12.6 -6.5 13.75 Q-7.55 17.75 -7.85 20.5 L-8.15 22.15 Q-8.4 23.1 -9.0 23.8 -9.4 24.25 -13.45 25.15 L-22.85 26.25 Q-21.25 23.2 -21.25 22.15 L-21.35 20.05 -21.0 20.0 Q-16.05 20.0 -14.35 18.15 -12.8 16.45 -9.75 8.05 L-8.7 4.6 -8.0 1.75 -7.2 0.0 -6.0 -1.6 -3.5 -3.0 1.95 -3.4 3.5 -3.5 3.8 -3.55 17.3 -2.75 Q20.4 -2.3 26.4 -2.55 L26.2 -3.1 26.1 -3.55" fill="#8e6c24" fill-rule="evenodd" stroke="none"/>
      <path d="M-21.35 20.05 L-21.25 22.15 Q-21.25 23.2 -22.85 26.25 L-23.45 26.25 -24.05 26.25 -24.25 26.25 Q-28.05 26.25 -30.35 24.9 L-31.0 24.5 Q-29.3 22.95 -27.2 18.95 L-24.55 19.55 -24.2 19.6 -24.05 19.65 -21.9 19.95 -21.35 20.0 -21.35 20.05" fill="#cc9d3c" fill-rule="evenodd" stroke="none"/>
      <path d="M31.55 20.0 L30.85 19.95 30.0 18.4 Q28.75 16.5 27.3 17.75 L24.4 20.35 22.25 22.6 16.85 27.95 Q12.5 32.45 11.75 34.35 L11.6 34.3 Q12.6 30.65 12.6 28.85 12.6 23.55 16.45 19.15 L17.0 18.55 Q19.0 16.6 21.55 14.6 L26.35 10.75 27.65 9.35 27.8 9.3 Q29.65 13.45 31.8 19.95 L31.55 20.0 M28.3 20.25 L28.9 21.75 Q29.05 22.25 29.65 22.45 L30.15 25.9 Q30.8 30.25 31.15 31.4 31.85 33.65 31.85 37.9 L31.85 38.1 31.05 36.5 Q30.05 37.05 30.3 38.95 L30.8 41.35 30.4 44.0 30.0 46.4 30.5 48.3 31.4 50.25 Q31.15 53.75 30.8 54.3 26.0 52.4 22.65 48.95 19.85 46.0 19.4 46.0 18.6 46.0 18.5 46.4 L18.5 46.75 18.65 48.05 18.75 49.15 Q17.3 48.1 16.45 45.35 L15.15 41.5 14.25 37.25 14.1 36.6 14.25 35.65 Q14.25 33.25 20.95 26.8 24.35 23.55 28.3 20.25 M-1.6 32.0 Q0.05 30.35 0.05 29.55 L-0.05 28.5 -0.15 28.1 Q-2.75 28.8 -5.65 26.8 L-7.6 25.35 -6.9 24.45 -5.6 23.5 -6.4 21.25 Q-6.4 20.25 -5.2 15.7 -4.05 11.15 -4.05 10.25 -4.1 5.45 -0.7 4.6 L0.3 4.55 Q1.75 3.25 4.5 3.25 7.35 3.25 8.05 10.6 8.4 14.3 8.15 18.35 L8.05 22.35 7.45 24.6 7.65 24.75 8.05 25.1 Q7.65 25.55 7.65 26.25 7.65 26.8 4.0 29.85 0.25 32.95 -1.65 32.6 L-1.6 32.0" fill="#e8e8e0" fill-rule="evenodd" stroke="none"/>
    </g>
    <g id="shape4" transform="matrix(1.0, 0.0, 0.0, 1.0, 21.25, 171.25)">
      <path d="M32.4 -162.35 L33.6 -161.25 34.15 -160.7 32.95 -161.5 32.1 -161.95 32.4 -162.35" fill="#ff6633" fill-opacity="0.49803922" fill-rule="evenodd" stroke="none"/>
      <path d="M4.35 -159.6 Q0.8 -159.3 -3.05 -155.15 -5.5 -152.55 -6.15 -151.25 -7.55 -148.75 -7.25 -145.25 -6.9 -141.9 -5.0 -137.15 -2.45 -130.7 1.3 -127.2 8.3 -120.65 17.7 -122.65 24.45 -124.0 27.35 -127.15 L30.2 -130.25 Q31.5 -132.35 31.1 -135.6 30.6 -138.4 28.05 -143.2 L27.55 -143.9 26.75 -145.85 27.0 -147.5 17.05 -156.8 16.25 -156.5 Q8.55 -160.1 4.35 -159.6 M32.1 -161.95 Q40.45 -151.35 42.25 -146.55 43.35 -143.45 44.6 -136.4 46.9 -127.85 46.25 -125.4 46.0 -124.65 42.2 -120.55 35.9 -113.8 26.05 -112.1 9.45 -109.35 -7.9 -125.6 -15.15 -132.35 -16.1 -136.65 -16.4 -138.3 -17.7 -140.0 -19.25 -141.95 -19.6 -142.9 -21.8 -149.65 -21.1 -152.95 -20.05 -157.95 -18.9 -160.6 -17.85 -162.9 -15.75 -165.1 -11.85 -169.3 -6.6 -170.55 -1.35 -171.85 7.4 -170.7 19.15 -169.25 30.1 -165.05 L32.4 -162.35 32.1 -161.95" fill="#00a6a6" fill-opacity="0.49803922" fill-rule="evenodd" stroke="none"/>
      <path d="M4.35 -159.6 Q8.55 -160.1 16.25 -156.5 L17.05 -156.8 27.0 -147.5 26.75 -145.85 27.55 -143.9 28.05 -143.2 Q30.6 -138.4 31.1 -135.6 31.5 -132.35 30.2 -130.25 L27.35 -127.15 Q24.45 -124.0 17.7 -122.65 8.3 -120.65 1.3 -127.2 -2.45 -130.7 -5.0 -137.15 -6.9 -141.9 -7.25 -145.25 -7.55 -148.75 -6.15 -151.25 -5.5 -152.55 -3.05 -155.15 0.8 -159.3 4.35 -159.6" fill="#00f9f9" fill-opacity="0.49803922" fill-rule="evenodd" stroke="none"/>
    </g>
  </defs>
</svg>
