<?xml version="1.0" encoding="UTF-8" standalone="no"?>
<svg xmlns:ffdec="https://www.free-decompiler.com/flash" xmlns:xlink="http://www.w3.org/1999/xlink" ffdec:objectType="frame" height="116.7px" width="93.7px" xmlns="http://www.w3.org/2000/svg">
  <g transform="matrix(1.0, 0.0, 0.0, 1.0, 20.6, 26.6)">
    <clipPath id="clipPath0" transform="matrix(1.0, 0.0, 0.0, 1.0, 0.0, 0.0)">
      <path d="M18.6 -12.1 Q32.65 -10.5 42.0 0.55 46.25 5.5 48.35 11.05 L47.1 12.1 Q48.35 17.65 47.45 23.95 L47.15 25.75 46.4 27.35 Q44.7 30.8 42.8 33.0 34.35 42.95 30.75 45.0 29.1 45.95 20.7 49.55 L20.1 48.85 12.3 48.0 10.3 47.55 7.4 50.25 Q5.25 48.75 2.25 48.35 L-2.4 48.7 -6.35 45.3 Q-14.9 36.55 -15.0 24.4 L-15.0 23.7 -15.0 23.15 -15.2 22.4 -14.9 22.2 -14.9 21.95 Q-14.45 14.65 -11.2 8.45 L-14.3 4.8 Q-11.5 -1.0 -6.0 -5.45 3.6 -13.1 16.1 -12.4 L16.8 -12.35 18.6 -12.1" fill="#00ff00" fill-rule="evenodd" stroke="none"/>
    </clipPath>
    <g clip-path="url(#clipPath0)">
      <use ffdec:characterId="1059" height="65.1" transform="matrix(1.0, 0.0, 0.0, 1.0, -4.45, -15.8)" width="51.5" xlink:href="#shape1"/>
    </g>
    <use ffdec:characterId="1060" height="65.05" transform="matrix(1.0, 0.0, 0.0, 1.0, -1.65, -14.45)" width="50.65" xlink:href="#shape2"/>
  </g>
  <defs>
    <g id="shape1" transform="matrix(1.0, 0.0, 0.0, 1.0, 4.45, 15.8)">
      <path d="M-2.65 21.2 L-3.0 21.05 Q-4.25 20.5 -4.25 19.9 L-4.25 19.75 -4.25 19.5 -4.2 19.2 -4.15 19.15 Q-2.0 19.25 -1.0 18.2 -0.35 17.45 -0.35 16.5 L-0.4 15.65 -0.5 14.6 Q-1.55 14.5 -1.8 14.15 L-1.9 13.35 -1.55 11.35 Q-2.4 11.55 -2.65 10.9 L-2.75 10.2 -2.65 9.35 -2.2 8.1 Q-2.85 8.15 -3.0 7.45 L-3.05 6.35 -3.05 4.75 -2.05 2.45 -4.15 2.05 Q-4.45 1.9 -4.45 1.35 -4.45 0.5 -2.85 -1.3 -1.2 -3.15 -0.15 -3.3 L-1.25 -3.8 Q-1.9 -4.15 -1.9 -4.8 -1.9 -6.05 -1.0 -6.9 0.0 -7.85 2.75 -8.8 2.35 -8.9 2.3 -9.15 L2.25 -9.45 2.5 -10.1 3.6 -11.1 Q5.7 -12.3 10.15 -12.05 9.65 -12.75 10.5 -13.9 11.35 -15.1 12.5 -15.1 L15.05 -14.5 18.4 -13.6 Q18.1 -14.95 18.95 -15.5 L21.2 -15.65 Q22.4 -15.45 24.6 -14.5 L27.4 -13.3 27.5 -14.85 28.8 -15.1 Q31.4 -15.1 34.1 -13.45 36.05 -12.3 37.15 -11.0 L37.15 -11.1 37.2 -12.6 37.75 -12.7 Q38.6 -12.7 40.1 -11.9 41.65 -11.1 43.1 -9.85 46.75 -6.65 46.75 -3.55 L46.7 -1.6 45.9 0.7 45.45 1.35 45.35 1.5 45.3 1.5 45.3 1.55 44.65 2.25 44.6 2.35 44.5 2.55 44.5 2.6 44.45 2.65 44.35 2.8 43.8 3.4 Q42.35 4.6 39.65 4.6 L39.1 4.55 35.6 3.55 34.95 3.3 34.85 3.25 34.9 3.35 34.9 3.4 34.25 3.4 34.25 3.55 Q33.65 3.8 32.9 5.2 L32.35 6.1 Q33.95 6.9 35.05 7.8 36.15 8.7 36.15 9.15 L36.1 9.45 36.0 9.5 35.9 9.55 35.95 9.55 38.6 11.4 40.65 13.55 Q41.4 14.6 41.45 15.3 L41.45 15.35 41.4 15.65 41.25 15.7 41.25 15.8 39.5 20.55 39.4 20.85 38.6 22.8 Q37.3 25.85 36.9 25.85 L36.85 25.8 36.85 25.85 37.0 27.05 Q37.0 28.4 36.15 29.35 L35.55 30.15 Q35.25 30.65 35.25 31.4 35.25 32.1 35.7 33.25 L36.15 35.3 36.1 36.45 36.4 36.35 36.5 36.35 36.65 36.3 37.95 36.25 Q38.6 36.4 39.1 36.85 L39.45 37.25 38.75 37.85 Q38.25 37.05 37.7 37.05 L36.75 37.25 35.8 37.5 35.6 37.5 35.45 37.75 35.4 37.85 35.1 38.35 33.95 39.85 34.05 39.95 34.45 39.7 37.2 39.35 36.3 40.2 Q34.45 40.5 33.1 41.1 L31.75 41.9 31.65 41.95 31.0 42.25 31.1 42.25 31.5 42.5 31.6 42.55 32.05 42.9 32.55 43.25 31.9 43.65 31.8 43.55 Q30.35 42.5 27.95 42.05 L26.6 41.8 26.25 41.75 26.15 41.7 26.1 41.65 24.35 43.8 23.3 44.95 23.15 45.05 22.25 46.0 21.35 47.7 20.3 47.9 20.45 47.55 21.95 45.05 23.0 43.9 23.85 43.15 24.25 42.75 24.5 42.4 24.55 42.35 25.15 41.5 25.25 41.4 25.4 41.25 25.05 41.25 24.0 41.25 23.55 41.35 23.3 41.4 23.3 41.5 23.25 41.5 23.25 41.4 22.8 41.4 22.55 41.4 21.9 41.4 21.55 41.4 21.45 41.1 22.15 40.6 22.25 40.55 22.1 40.45 21.9 40.3 21.8 40.2 20.35 39.1 18.9 37.85 17.65 36.6 17.65 36.4 16.4 36.2 17.0 38.35 17.3 41.1 17.6 41.85 17.8 42.5 18.15 43.55 18.75 45.85 18.8 46.1 18.85 46.4 18.5 47.25 Q18.2 47.55 17.1 48.05 L14.95 48.9 13.9 49.25 12.55 49.25 12.45 49.25 12.3 49.15 12.2 49.1 11.7 44.4 11.6 43.65 11.55 43.25 11.5 43.0 11.5 42.9 11.45 42.85 11.05 39.7 10.8 36.45 10.85 36.15 10.4 36.2 10.45 36.5 10.45 36.7 10.6 37.75 10.65 39.35 10.45 42.25 10.3 46.65 10.3 49.1 9.5 49.05 9.5 48.85 9.15 49.05 8.45 49.05 7.75 48.8 8.6 48.55 8.9 48.4 9.5 48.25 9.6 44.95 9.75 42.8 9.95 40.6 9.9 38.4 Q9.9 37.55 10.05 36.95 L9.9 36.85 9.75 36.8 9.8 36.3 9.2 36.45 9.05 36.45 Q7.7 36.75 7.45 37.0 L6.95 37.65 6.35 38.45 5.85 39.0 Q6.2 39.0 6.3 39.25 L6.35 39.9 6.35 39.95 6.3 40.45 6.3 40.55 6.15 41.4 6.15 41.75 6.05 42.9 6.0 43.4 6.05 45.35 6.0 47.15 5.95 48.15 5.2 47.85 5.3 46.0 5.3 44.65 5.3 43.2 5.35 42.5 5.4 42.3 5.5 41.5 5.65 40.25 5.5 39.8 5.35 39.55 Q4.5 40.7 4.25 41.95 L3.35 45.3 3.05 47.15 2.55 47.0 2.85 45.2 2.85 45.05 3.6 41.35 Q3.75 40.7 4.6 39.5 L5.95 37.75 6.65 36.85 6.7 36.75 6.85 36.6 7.35 36.3 7.35 36.25 7.4 36.25 7.45 36.2 7.5 36.2 Q9.1 35.35 11.6 35.3 L15.35 35.35 15.75 35.35 17.1 35.35 18.9 35.8 18.95 35.8 18.95 35.85 19.1 35.85 21.7 37.1 22.5 37.55 20.2 35.2 20.0 35.05 18.95 34.25 17.65 33.95 16.25 33.7 15.2 33.55 15.15 33.55 14.4 33.4 10.85 33.1 8.85 33.95 7.7 34.55 6.15 35.55 5.6 36.15 4.65 37.25 3.5 39.05 2.85 40.85 2.15 42.65 1.95 43.05 1.9 43.15 1.7 43.55 1.4 44.45 1.2 45.45 1.05 45.75 1.05 46.6 0.3 46.45 0.3 45.75 0.35 44.8 0.35 44.4 Q0.35 41.85 0.5 40.95 L0.65 39.95 0.15 39.15 -0.5 42.7 -0.55 42.75 -1.0 44.3 -1.5 46.1 -2.25 45.95 -1.8 44.7 -1.25 43.3 -0.8 40.2 -0.4 38.1 -0.6 37.6 -0.65 35.5 Q-0.65 33.4 -0.2 31.8 L-0.1 31.55 0.1 31.15 0.05 31.0 Q0.65 29.45 1.7 28.6 L-0.25 26.7 -0.5 26.25 -0.6 25.8 -0.65 25.1 Q-0.65 24.0 -0.35 23.75 L0.3 23.65 0.45 23.65 1.1 23.6 2.3 23.45 2.75 23.25 3.2 23.05 3.6 22.75 5.1 21.45 6.3 20.1 8.0 17.2 8.75 15.85 9.4 14.25 9.65 13.5 9.5 13.5 9.4 13.5 8.9 13.45 8.65 13.45 8.35 13.35 7.1 12.85 6.7 12.65 6.6 12.9 6.15 14.2 6.15 15.35 6.15 15.55 6.0 16.9 5.4 18.35 4.65 19.5 3.9 20.35 3.8 20.4 0.9 21.65 0.85 21.65 0.8 21.7 0.0 21.7 -2.2 21.4 -2.45 21.2 -2.65 21.2 M45.15 -6.75 Q43.3 -9.65 37.9 -12.0 L37.85 -10.6 Q37.85 -9.8 37.5 -9.45 L36.3 -10.85 34.75 -12.25 31.9 -13.65 Q29.6 -14.6 28.1 -14.35 28.1 -13.65 28.8 -12.75 L29.45 -11.65 29.4 -11.35 29.35 -11.4 28.95 -11.35 Q28.7 -11.35 27.95 -11.9 L26.4 -13.05 24.05 -14.15 Q21.8 -15.05 19.45 -15.05 L19.05 -14.75 19.0 -14.15 19.45 -13.5 19.85 -12.85 19.8 -12.55 19.75 -12.5 19.0 -12.5 16.05 -13.55 12.6 -14.3 Q11.6 -14.3 11.1 -13.7 10.8 -13.25 10.8 -12.8 10.8 -12.35 11.75 -12.0 L12.65 -11.35 12.6 -11.0 11.85 -11.0 Q7.35 -11.85 4.8 -10.9 3.95 -10.55 3.45 -10.1 L3.1 -9.55 Q3.1 -9.2 4.0 -8.95 5.0 -8.65 5.0 -8.4 L4.9 -8.1 4.85 -8.05 Q1.3 -8.0 -0.25 -6.75 -1.2 -5.95 -1.2 -4.8 -1.2 -4.5 -0.05 -4.15 1.3 -3.75 1.7 -3.15 0.35 -3.25 -1.75 -1.35 L-3.2 0.1 Q-3.75 0.85 -3.75 1.25 L-3.75 1.45 -3.75 1.5 -3.7 1.45 -2.3 1.6 -1.5 1.6 -0.85 1.75 -1.85 4.1 Q-2.4 5.3 -2.4 6.15 L-2.35 7.25 -1.8 6.85 Q-1.25 6.5 -1.1 6.5 L-0.75 6.6 -0.65 6.8 -1.5 8.45 -2.05 10.1 -1.95 10.5 -0.35 10.8 -0.75 11.9 -1.2 13.25 -1.0 13.55 -0.6 13.6 Q0.05 13.7 0.15 14.8 L0.25 15.75 0.35 16.55 Q0.35 17.65 -0.1 18.35 -0.7 19.25 -2.15 19.75 L-2.2 19.8 -2.4 19.85 -3.65 19.85 -3.05 20.35 Q-2.05 20.95 0.0 20.95 2.05 20.95 3.1 20.05 L3.75 19.35 4.2 18.75 Q4.85 18.3 5.15 17.45 L5.4 16.2 5.65 13.65 6.05 12.1 6.0 12.0 6.1 11.65 6.25 11.65 6.6 10.75 6.65 10.65 7.05 9.7 Q7.7 8.2 8.5 7.4 L8.75 7.05 9.75 5.7 11.05 4.35 12.2 3.2 12.6 2.55 13.8 1.95 14.95 1.4 15.6 0.85 19.45 -0.45 24.65 -0.6 29.0 0.05 Q30.85 0.55 31.35 0.9 L32.05 1.25 33.2 1.9 33.4 1.95 33.5 2.0 34.45 2.3 34.7 2.4 35.85 2.85 36.05 2.95 36.2 3.0 39.0 3.8 39.65 3.85 40.7 3.8 41.55 3.65 42.0 3.55 42.7 3.05 44.35 1.4 Q46.05 -0.85 46.05 -3.55 46.05 -5.2 45.15 -6.75 M37.15 24.25 L37.5 23.75 37.7 23.35 38.35 21.55 38.4 21.55 39.5 19.45 39.8 18.55 40.15 17.65 40.55 16.8 40.85 15.9 40.8 15.55 40.85 15.5 40.9 15.45 40.9 15.4 40.65 15.0 40.35 14.55 40.25 14.45 39.75 13.65 39.75 13.6 38.95 12.6 37.8 11.55 37.15 11.1 36.95 11.0 34.2 9.65 34.1 9.6 33.55 9.4 30.75 8.55 26.75 8.1 Q24.3 8.1 22.1 8.95 21.45 9.2 20.85 9.55 L20.7 9.6 20.2 9.85 Q19.8 10.1 18.35 11.1 L17.2 11.65 17.1 11.6 17.0 11.75 16.85 11.65 16.85 11.55 16.85 11.35 Q16.85 10.35 16.2 9.75 15.95 9.55 15.7 9.6 L15.5 9.75 15.15 9.85 14.8 9.95 14.3 10.3 Q13.7 10.85 13.15 12.05 L13.0 12.5 12.35 15.4 12.35 15.5 12.35 15.75 12.35 16.05 12.35 16.15 12.35 16.35 12.35 16.65 12.35 16.8 12.45 17.2 12.5 17.25 12.5 17.4 12.85 17.75 13.0 17.95 13.9 18.05 14.3 17.95 14.7 17.7 14.8 17.65 15.25 17.15 15.25 17.1 15.3 17.15 15.35 17.1 15.35 17.15 21.45 18.0 Q24.85 18.75 28.35 20.0 31.8 21.15 33.95 22.35 L34.45 22.65 34.5 22.65 34.7 22.8 34.8 22.85 34.95 22.95 35.45 23.3 35.55 23.4 36.3 24.25 36.55 24.85 37.15 24.25 M30.0 2.55 L30.5 1.55 30.6 1.25 30.5 1.2 29.3 0.75 Q27.15 0.05 22.8 0.05 19.55 0.05 17.35 0.85 16.75 1.1 15.6 1.85 L14.0 2.55 Q13.15 3.05 12.65 3.9 L11.45 5.25 10.3 6.25 Q9.95 6.55 9.15 7.9 L8.4 8.8 8.25 9.05 7.55 10.0 7.25 11.15 7.05 11.6 7.0 11.8 7.6 12.05 8.1 12.25 8.45 12.4 9.1 12.7 9.8 13.05 10.65 11.25 Q11.55 9.7 13.25 8.2 14.65 6.75 16.85 5.45 20.1 3.5 22.25 4.0 25.65 3.8 28.85 4.75 L29.6 3.35 30.0 2.55 M32.3 2.25 L31.4 1.7 31.05 1.8 31.0 1.9 Q31.0 2.65 30.3 4.05 L29.75 5.0 Q30.65 5.3 31.55 5.75 L32.55 4.3 33.05 3.3 Q33.25 3.1 33.45 3.05 L32.3 2.25 M34.0 7.95 L33.95 7.9 33.4 7.55 33.25 7.5 33.05 7.4 32.7 7.25 32.2 7.0 31.8 6.85 30.0 5.95 29.95 5.95 Q26.85 4.7 21.5 4.7 L21.45 4.7 Q20.35 4.7 18.75 5.35 17.05 6.0 15.45 7.2 11.4 10.15 10.1 14.35 9.75 15.7 9.0 17.05 L7.25 19.9 7.2 20.0 6.4 21.0 6.3 21.15 6.15 21.35 6.05 21.4 5.35 22.15 5.3 22.2 5.25 22.3 4.65 22.85 Q2.5 24.7 0.5 24.6 L0.0 24.5 0.0 25.65 1.2 27.05 1.85 27.7 2.15 26.85 2.25 26.7 Q2.55 26.15 3.25 25.85 4.45 25.0 6.05 24.7 L6.85 24.6 6.95 24.55 7.95 24.5 8.85 24.55 8.9 24.55 10.05 24.65 10.1 24.65 11.75 21.6 13.2 18.85 12.45 18.35 12.3 18.2 12.25 18.15 12.25 18.1 12.2 18.05 12.05 17.85 11.7 17.2 11.65 16.4 11.65 15.9 Q11.65 14.95 11.95 13.55 12.25 11.9 12.75 11.25 L13.0 10.95 13.45 10.35 13.65 10.2 14.0 9.85 14.25 9.65 15.55 9.1 15.65 9.1 16.0 9.1 16.95 9.75 Q17.3 10.25 17.3 10.85 17.85 10.35 18.75 9.85 18.8 9.8 21.2 8.65 L22.85 7.95 24.45 7.4 24.6 7.35 28.4 7.4 28.55 7.4 28.75 7.45 29.85 7.55 30.65 7.65 30.65 7.7 30.85 7.75 31.35 8.05 32.35 8.4 32.75 8.45 33.4 8.55 33.7 8.65 34.65 8.95 35.05 9.1 35.1 9.15 35.15 9.15 35.25 9.2 34.5 8.25 34.0 7.95 M25.75 21.75 L25.9 21.7 26.5 21.2 26.65 21.05 26.6 21.05 26.0 20.45 25.25 20.0 24.8 19.6 23.9 19.4 23.25 19.25 23.25 19.35 23.3 19.55 23.3 20.1 23.3 20.15 23.4 20.65 23.9 21.55 25.0 21.8 25.3 21.8 25.75 21.75 M22.6 25.9 L22.6 25.85 22.85 24.85 23.15 23.5 Q23.15 22.7 22.65 22.15 L21.6 21.25 20.55 20.2 Q20.1 19.5 20.05 18.6 L19.55 18.5 19.45 18.5 19.25 18.45 19.2 18.45 16.2 17.95 16.0 18.6 15.05 21.25 13.7 24.75 14.15 25.4 14.2 25.5 15.75 27.35 16.35 28.3 17.05 29.35 18.25 31.1 20.6 33.9 21.0 34.3 21.15 34.45 21.35 34.65 21.95 35.25 23.05 36.35 23.5 36.8 23.55 36.85 23.55 36.75 Q23.95 35.45 24.7 33.8 25.2 32.75 25.2 31.15 L25.1 29.9 24.15 28.6 23.3 27.35 22.65 26.1 22.6 25.9 M33.7 25.5 L34.1 25.25 34.25 25.05 34.6 24.35 34.6 24.3 Q34.6 24.0 34.25 23.75 33.9 23.45 33.4 23.4 L33.0 23.35 32.9 23.35 32.75 23.35 32.65 23.35 32.55 23.4 Q32.3 23.4 32.15 23.55 31.85 23.7 31.85 24.05 L32.1 24.85 Q32.45 25.6 33.0 25.6 L33.7 25.5 M15.85 29.1 L15.8 29.1 15.3 28.3 15.2 28.25 15.15 28.15 15.15 28.1 15.1 28.05 13.55 25.85 13.5 25.85 12.95 25.75 12.8 25.75 12.65 25.75 12.6 25.75 11.05 25.6 10.8 25.55 8.5 25.4 6.2 25.55 Q4.05 25.85 3.15 26.8 L2.75 27.3 2.55 28.1 Q5.25 27.2 6.65 27.0 L12.0 27.35 12.65 27.6 13.9 28.2 14.9 28.7 14.95 28.75 15.05 28.75 15.65 29.1 15.85 29.2 15.95 29.3 15.85 29.1 M11.95 29.2 Q12.7 29.25 12.85 29.75 L14.8 30.15 15.7 30.7 16.6 31.2 Q16.95 31.3 17.25 31.5 L17.1 31.3 16.3 30.55 15.7 30.05 14.8 29.5 13.9 29.05 12.9 28.45 11.95 28.15 10.55 28.05 6.55 27.95 5.05 27.95 3.8 28.25 Q2.55 28.7 1.95 29.3 L1.3 30.3 0.7 31.35 Q0.15 32.25 0.05 33.5 L0.0 35.55 Q0.0 36.75 0.5 38.15 L0.8 38.9 0.9 39.1 Q1.2 37.85 1.8 36.15 2.2 34.9 2.75 33.95 3.65 32.55 4.8 32.0 L6.25 30.95 Q7.05 30.3 7.85 30.2 L7.95 30.15 Q10.3 29.35 11.5 29.2 L11.95 29.2 M11.55 30.35 L11.35 30.3 10.65 30.3 10.55 30.3 9.4 30.45 Q8.2 30.75 7.0 31.45 L4.55 33.1 Q3.5 33.65 2.95 34.95 L2.25 36.95 Q1.75 37.95 1.4 40.8 L1.15 42.55 1.85 40.95 2.35 39.7 2.85 38.65 3.6 37.45 4.45 36.35 Q5.4 34.95 7.1 34.05 L10.25 32.6 10.3 32.6 12.0 32.45 12.1 32.45 12.2 32.45 12.25 32.45 12.45 32.45 14.05 32.6 14.55 32.7 16.05 32.9 16.7 33.0 18.0 33.15 16.25 31.95 15.55 31.5 14.25 30.95 13.25 30.65 12.25 30.45 12.1 30.45 11.6 30.35 11.55 30.35 M16.05 37.85 L16.0 37.75 15.95 37.1 15.95 37.0 15.95 36.8 16.0 36.3 16.05 36.15 13.3 36.05 11.2 36.1 11.6 37.35 11.8 38.65 11.85 38.8 11.85 38.85 11.85 38.95 11.95 40.3 12.1 41.45 12.1 41.75 12.15 41.85 12.15 42.0 12.2 42.0 12.2 42.1 12.35 43.7 12.4 43.85 12.4 43.9 12.45 44.05 12.55 43.95 12.8 43.8 12.95 43.75 Q13.35 43.55 14.25 43.3 L17.0 42.8 17.25 42.8 17.05 42.05 16.4 39.7 16.2 38.85 16.05 37.85 M19.95 37.15 L18.95 36.75 19.4 37.1 20.75 38.35 Q21.25 38.9 22.05 39.45 22.45 39.5 22.85 39.85 L23.0 39.95 24.35 40.35 24.55 40.35 24.35 40.05 24.3 40.0 24.15 39.9 22.4 38.65 22.35 38.55 22.3 38.55 20.05 37.2 20.0 37.15 19.95 37.15 M16.3 43.5 L14.4 44.05 Q13.75 44.25 13.25 44.5 12.85 44.65 12.5 44.85 L12.55 45.2 12.6 45.45 12.6 45.6 12.6 45.85 12.6 45.95 12.65 46.05 12.8 47.75 12.85 47.85 12.85 48.0 12.85 48.4 12.75 48.75 12.7 48.9 Q13.45 48.5 15.8 47.8 18.15 47.1 18.15 46.45 L18.15 46.4 18.1 46.1 17.95 45.3 17.9 45.1 17.5 43.55 17.45 43.5 17.45 43.45 16.3 43.5 M30.8 41.4 L31.25 41.05 Q31.6 40.8 32.15 40.65 L34.2 38.05 Q35.45 36.45 35.45 35.4 L35.0 33.6 Q34.6 32.45 34.6 31.35 34.6 30.0 35.45 28.95 L36.05 28.2 36.3 27.05 35.9 25.5 35.85 25.4 35.8 25.45 35.5 26.5 35.1 27.35 33.45 30.3 32.75 32.15 32.0 34.1 Q31.0 35.95 28.8 36.25 L29.85 38.3 30.65 40.9 30.65 41.3 30.65 41.4 30.65 41.55 30.8 41.4 M32.45 30.95 L32.9 30.0 32.95 29.8 31.85 28.5 30.4 27.05 29.35 26.4 27.9 26.0 23.55 24.95 23.3 25.9 Q23.3 26.25 23.45 26.6 L23.7 26.9 24.6 27.85 24.75 28.0 24.9 28.2 25.3 28.85 25.3 28.9 25.75 30.25 25.85 31.2 25.85 32.7 25.7 33.65 25.15 34.75 26.25 35.1 26.65 35.3 27.9 35.6 Q30.1 35.15 30.7 34.6 L31.15 34.0 31.4 33.5 31.5 33.2 31.8 32.6 32.15 31.65 32.45 31.0 32.45 30.95 M26.6 36.1 L27.1 36.55 Q27.9 37.3 28.6 38.75 L28.6 39.05 28.75 38.9 29.2 38.6 28.65 37.5 28.1 36.3 28.0 36.3 27.5 36.1 26.6 36.1 M27.65 38.7 L27.5 38.35 27.45 38.35 27.45 38.3 27.4 38.25 26.75 37.5 26.65 37.4 Q26.2 36.95 25.55 36.45 L24.6 35.7 23.8 37.3 23.7 37.45 23.7 37.4 23.6 37.4 23.65 37.45 24.3 38.15 24.3 38.25 24.65 38.65 25.2 39.65 25.15 39.85 25.15 39.9 25.2 39.95 25.4 40.15 25.7 40.55 25.85 40.6 26.0 40.85 26.15 40.8 26.2 40.95 26.2 41.25 26.2 41.35 26.35 41.35 27.75 41.4 27.8 41.45 27.8 41.35 27.8 41.25 27.85 40.6 27.85 40.55 27.9 39.7 27.85 39.7 27.65 38.7 M29.45 39.3 Q29.1 39.9 28.6 39.9 L28.6 41.5 30.0 41.85 29.45 39.3" fill="#000000" fill-rule="evenodd" stroke="none"/>
      <path d="M-3.75 1.45 L-3.75 1.25 Q-3.75 0.85 -3.2 0.1 L-1.75 -1.35 Q0.35 -3.25 1.7 -3.15 1.3 -3.75 -0.05 -4.15 -1.2 -4.5 -1.2 -4.8 -1.2 -5.95 -0.25 -6.75 1.3 -8.0 4.85 -8.05 L4.9 -8.1 5.0 -8.4 Q5.0 -8.65 4.0 -8.95 3.1 -9.2 3.1 -9.55 L3.45 -10.1 Q3.95 -10.55 4.8 -10.9 7.35 -11.85 11.85 -11.0 L12.6 -11.0 12.65 -11.35 11.75 -12.0 Q10.8 -12.35 10.8 -12.8 10.8 -13.25 11.1 -13.7 11.6 -14.3 12.6 -14.3 L16.05 -13.55 19.0 -12.5 19.75 -12.5 19.8 -12.55 19.85 -12.85 19.45 -13.5 19.0 -14.15 19.05 -14.75 19.45 -15.05 Q21.8 -15.05 24.05 -14.15 L26.4 -13.05 27.95 -11.9 Q28.7 -11.35 28.95 -11.35 L29.35 -11.4 29.4 -11.35 29.45 -11.65 28.8 -12.75 Q28.1 -13.65 28.1 -14.35 29.6 -14.6 31.9 -13.65 L34.75 -12.25 36.3 -10.85 37.5 -9.45 Q37.85 -9.8 37.85 -10.6 L37.9 -12.0 Q43.3 -9.65 45.15 -6.75 L45.15 -6.65 45.4 -5.35 Q45.4 -3.0 44.45 -1.35 43.6 0.1 42.15 1.25 40.75 2.35 39.85 2.35 L38.05 1.9 35.25 1.5 Q33.75 1.5 33.4 1.9 L33.4 1.95 33.2 1.9 32.05 1.25 31.35 0.9 Q30.85 0.55 29.0 0.05 L24.65 -0.6 19.45 -0.45 15.6 0.85 14.95 1.4 13.8 1.95 12.6 2.55 12.2 3.2 11.05 4.35 9.75 5.7 8.75 7.05 8.5 7.4 Q7.7 8.2 7.05 9.7 L6.65 10.65 6.6 10.65 Q6.55 10.35 6.35 10.35 L5.8 11.4 5.05 12.9 Q4.5 14.0 4.35 15.4 L4.05 16.65 3.2 17.9 2.15 19.1 Q1.15 20.1 0.15 20.1 L-1.95 19.8 -2.15 19.75 Q-0.7 19.25 -0.1 18.35 0.35 17.65 0.35 16.55 L0.25 15.75 0.15 14.8 Q0.05 13.7 -0.6 13.6 L-1.0 13.55 -1.2 13.25 -0.75 11.9 -0.35 10.8 -1.95 10.5 -2.05 10.1 -1.5 8.45 -0.65 6.8 -0.75 6.6 -1.1 6.5 Q-1.25 6.5 -1.8 6.85 L-2.35 7.25 -2.4 6.15 Q-2.4 5.3 -1.85 4.1 L-0.85 1.75 -1.5 1.6 -2.3 1.6 -3.7 1.45 -3.75 1.45 M40.7 3.8 L39.65 3.85 39.0 3.8 39.2 3.7 39.25 3.55 39.8 3.65 40.8 3.75 40.55 3.75 40.7 3.8 M36.05 2.95 L35.85 2.85 34.7 2.4 35.0 2.45 35.45 2.6 36.05 2.95" fill="#11111e" fill-rule="evenodd" stroke="none"/>
      <path d="M45.15 -6.75 Q46.05 -5.2 46.05 -3.55 46.05 -0.85 44.35 1.4 L42.7 3.05 42.0 3.55 41.55 3.65 40.7 3.8 40.55 3.75 40.8 3.75 39.8 3.65 39.25 3.55 39.2 3.7 39.0 3.8 36.2 3.0 36.05 2.95 35.45 2.6 35.0 2.45 34.7 2.4 34.45 2.3 33.5 2.0 33.4 1.95 33.4 1.9 Q33.75 1.5 35.25 1.5 L38.05 1.9 39.85 2.35 Q40.75 2.35 42.15 1.25 43.6 0.1 44.45 -1.35 45.4 -3.0 45.4 -5.35 L45.15 -6.65 45.15 -6.75 M6.65 10.65 L6.6 10.75 6.25 11.65 6.1 11.65 6.0 12.0 6.05 12.1 5.65 13.65 5.4 16.2 5.15 17.45 Q4.85 18.3 4.2 18.75 L3.75 19.35 3.1 20.05 Q2.05 20.95 0.0 20.95 -2.05 20.95 -3.05 20.35 L-3.65 19.85 -2.4 19.85 -2.2 19.8 -2.15 19.75 -1.95 19.8 0.15 20.1 Q1.15 20.1 2.15 19.1 L3.2 17.9 4.05 16.65 4.35 15.4 Q4.5 14.0 5.05 12.9 L5.8 11.4 6.35 10.35 Q6.55 10.35 6.6 10.65 L6.65 10.65" fill="#000033" fill-rule="evenodd" stroke="none"/>
      <path d="M39.1 4.55 L39.65 4.6 Q42.35 4.6 43.8 3.4 L44.35 2.8 44.45 2.65 44.5 2.6 44.5 2.55 44.6 2.35 44.65 2.25 45.3 1.55 45.3 1.5 45.35 1.5 45.35 2.15 Q45.35 5.95 46.2 8.55 L46.8 10.35 47.05 12.55 46.9 17.45 46.3 20.5 45.5 22.25 Q45.45 21.3 44.85 19.85 L43.7 17.2 Q42.15 13.95 41.0 12.55 39.45 10.55 39.2 7.6 L39.1 5.05 39.1 4.55" fill="#932500" fill-rule="evenodd" stroke="none"/>
      <path d="M1.05 46.6 L1.05 45.75 1.2 45.45 1.4 44.45 1.7 43.55 1.9 43.15 1.95 43.05 2.1 43.2 2.4 44.05 2.85 44.85 2.85 45.05 2.85 45.2 2.55 47.0 1.05 46.6 M5.6 36.15 L6.15 35.55 7.7 34.55 8.1 35.05 7.6 36.1 7.5 36.2 7.45 36.2 7.4 36.25 7.35 36.25 7.35 36.3 6.85 36.6 6.7 36.75 6.4 36.8 Q5.75 36.8 5.6 36.5 L5.6 36.15 M40.65 15.0 L40.9 15.4 40.9 15.45 40.85 15.5 40.8 15.55 40.85 15.9 40.55 16.8 40.15 17.65 39.8 18.55 39.5 19.45 38.4 21.55 38.35 21.55 37.7 23.35 37.5 23.75 37.15 24.25 36.9 23.75 37.2 22.95 37.7 21.8 38.1 20.55 38.6 19.3 39.75 16.8 40.15 16.0 40.35 15.6 40.35 15.25 40.65 15.0 M12.85 17.75 L12.5 17.4 12.5 17.25 12.45 17.2 12.35 16.8 12.35 16.65 12.35 16.35 12.35 16.15 12.35 16.05 13.4 15.25 14.25 14.35 Q14.7 13.95 14.7 14.6 L14.1 16.25 Q13.5 17.55 13.1 17.85 L13.05 17.85 12.9 17.8 12.85 17.75 M12.35 15.5 L12.35 15.4 13.0 12.5 13.15 12.05 Q13.7 10.85 14.3 10.3 L14.8 9.95 15.15 9.85 15.5 9.75 15.75 9.95 15.8 10.05 15.85 10.15 15.85 10.2 15.85 10.25 15.95 10.65 15.95 10.8 14.25 13.2 12.35 15.5 M7.95 24.5 L6.95 24.55 6.85 24.6 6.05 24.7 7.45 22.4 9.05 19.8 9.25 19.7 9.3 19.65 9.35 19.65 10.3 19.1 11.2 18.55 11.2 18.7 10.35 20.55 9.35 22.15 7.95 24.5 M2.25 26.7 L2.15 26.85 1.85 27.7 1.2 27.05 0.0 25.65 0.0 24.5 0.5 24.6 0.95 25.15 1.4 25.65 2.2 26.65 2.25 26.7 M19.45 7.8 L19.35 8.3 Q19.15 8.7 18.55 8.7 L18.2 8.55 18.15 8.1 Q18.15 7.45 18.8 7.3 19.45 7.15 19.45 7.8 M16.0 18.6 L16.1 18.6 16.45 18.7 16.6 18.75 16.1 20.2 15.3 22.4 14.45 24.9 14.2 25.5 14.15 25.4 13.7 24.75 15.05 21.25 16.0 18.6 M13.25 44.5 L13.35 44.65 13.5 45.3 13.5 46.4 13.6 47.0 13.75 47.55 13.25 47.75 12.95 47.9 12.9 47.95 12.85 47.85 12.8 47.75 12.65 46.05 12.6 45.95 12.6 45.85 12.6 45.6 12.6 45.45 12.55 45.2 12.5 44.85 Q12.85 44.65 13.25 44.5" fill="#e7d1a1" fill-rule="evenodd" stroke="none"/>
      <path d="M6.15 15.35 L6.15 14.2 6.6 12.9 6.7 12.65 7.1 12.85 8.35 13.35 7.75 13.85 6.8 14.7 6.15 15.35 M38.6 22.8 L39.4 20.85 39.5 20.55 41.25 15.8 41.25 15.7 41.4 15.65 41.45 15.35 41.45 15.3 Q41.4 14.6 40.65 13.55 L38.6 11.4 35.95 9.55 36.0 9.5 36.1 9.45 36.15 9.15 Q36.15 8.7 35.05 7.8 33.95 6.9 32.35 6.1 L32.9 5.2 Q33.65 3.8 34.25 3.55 L34.25 3.4 34.9 3.4 34.95 3.3 35.6 3.55 39.1 4.55 39.1 5.05 39.2 7.6 Q39.45 10.55 41.0 12.55 42.15 13.95 43.7 17.2 L44.85 19.85 Q45.45 21.3 45.5 22.25 L45.55 22.55 Q45.55 23.55 45.0 25.25 L44.15 28.05 43.7 29.45 43.3 30.9 43.1 31.6 42.95 32.3 42.6 32.8 42.3 31.95 41.9 30.5 41.35 29.15 41.15 28.85 Q41.0 27.0 39.9 25.5 L38.95 23.65 38.6 22.8" fill="#fd4000" fill-rule="evenodd" stroke="none"/>
      <path d="M-2.65 21.2 L-2.45 21.2 -2.2 21.4 0.0 21.7 0.8 21.7 0.85 21.65 0.9 21.65 3.8 20.4 3.85 20.4 3.65 20.85 2.95 22.4 2.3 23.45 1.1 23.6 0.45 23.65 0.3 23.65 -0.35 23.75 Q-0.65 24.0 -0.65 25.1 L-0.6 25.8 -0.5 26.25 -0.25 26.7 1.7 28.6 Q0.65 29.45 0.05 31.0 L0.1 31.15 -0.1 31.55 -0.25 31.55 Q-1.4 31.55 -1.65 27.95 -2.6 27.2 -2.7 22.6 L-2.85 21.7 Q-2.85 21.3 -2.65 21.2 M5.4 18.35 L6.0 16.9 6.15 15.55 6.15 15.35 6.8 14.7 7.75 13.85 8.35 13.35 8.65 13.45 8.9 13.45 9.4 13.5 9.5 13.5 9.65 13.5 9.4 14.25 8.75 15.85 8.0 16.4 5.4 18.35 M39.45 37.25 L39.1 36.85 Q38.6 36.4 37.95 36.25 L37.95 34.65 38.0 32.65 37.8 30.65 37.55 28.65 37.2 26.6 36.9 25.85 Q37.3 25.85 38.6 22.8 L38.95 23.65 39.9 25.5 Q41.0 27.0 41.15 28.85 L41.35 29.15 41.9 30.5 42.3 31.95 42.6 32.8 42.45 32.95 42.35 33.0 42.35 33.05 41.9 33.35 41.9 34.6 40.8 35.85 40.7 35.95 39.45 37.25" fill="#fc8f3f" fill-rule="evenodd" stroke="none"/>
      <path d="M14.4 33.4 L15.15 33.55 15.2 33.55 16.25 33.7 16.55 34.0 Q17.1 34.55 17.1 35.05 L17.1 35.35 15.75 35.35 15.35 35.35 15.35 35.05 15.2 34.2 14.7 33.75 14.4 33.4 M22.1 8.95 Q24.3 8.1 26.75 8.1 L30.75 8.55 30.65 8.75 29.9 10.45 29.3 12.2 27.75 15.85 26.8 18.3 25.85 18.1 24.15 17.7 22.8 17.45 21.5 17.2 19.85 16.9 19.7 16.8 19.8 16.4 19.95 15.85 20.75 13.6 22.1 9.1 22.1 8.95 M39.75 13.6 L39.75 13.65 40.25 14.45 39.8 15.65 39.1 17.05 38.4 18.4 37.05 21.55 36.65 22.7 35.95 22.2 36.65 20.65 37.85 17.6 39.0 15.15 39.15 14.9 39.45 14.25 39.75 13.6 M32.3 2.25 L33.45 3.05 Q33.25 3.1 33.05 3.3 L32.55 4.3 31.55 5.75 Q30.65 5.3 29.75 5.0 L30.3 4.05 Q31.0 2.65 31.0 1.9 L31.05 1.8 31.4 1.7 32.3 2.25 M32.7 7.25 L33.05 7.4 33.25 7.5 33.4 7.55 33.95 7.9 34.0 7.95 34.15 8.1 34.55 8.75 34.65 8.95 33.7 8.65 33.4 8.55 33.1 7.95 32.7 7.25 M28.6 7.3 L28.75 7.45 28.55 7.4 28.6 7.3 M24.45 7.4 L22.85 7.95 21.2 8.65 Q18.8 9.8 18.75 9.85 17.85 10.35 17.3 10.85 17.3 10.25 16.95 9.75 L16.0 9.1 15.65 9.1 15.7 9.05 16.6 7.85 18.4 6.75 Q19.65 6.1 19.8 6.1 21.65 6.1 23.65 7.0 L24.45 7.4 M12.2 18.05 L12.25 18.1 12.25 18.15 12.25 18.2 12.2 18.15 11.75 18.2 11.3 18.5 11.2 18.55 10.3 19.1 9.35 19.65 9.3 19.65 9.25 19.7 9.05 19.8 7.2 20.75 6.15 21.35 6.3 21.15 6.7 20.8 7.35 20.5 7.75 20.2 8.65 19.45 9.0 19.1 9.2 19.0 10.2 18.4 10.8 17.8 11.05 17.5 11.15 17.65 Q11.6 18.1 12.1 18.1 L12.2 18.05 M20.3 6.9 L19.05 6.95 Q18.55 7.1 18.05 7.55 L17.25 8.25 17.05 8.85 17.1 9.35 18.05 9.55 Q19.45 9.55 20.35 8.45 L20.9 7.4 20.85 7.1 20.3 6.9 M19.5 19.7 L19.65 19.95 20.9 21.3 22.0 22.6 22.45 23.65 22.25 24.65 22.1 25.8 Q22.1 26.45 22.5 27.1 L22.9 27.7 23.05 27.85 23.05 27.9 22.45 29.7 21.85 31.4 21.45 33.1 21.1 34.15 21.0 34.3 20.6 33.9 18.25 31.1 17.05 29.35 17.55 27.75 17.85 26.2 18.15 24.65 19.15 21.15 19.5 19.75 19.5 19.7 M23.5 36.8 L23.55 36.75 23.55 36.85 23.5 36.8 M22.65 26.1 L22.6 25.95 22.6 25.9 22.65 26.1 M15.85 10.15 L15.95 10.3 16.0 10.85 15.95 10.95 15.95 10.8 15.95 10.65 15.85 10.25 15.85 10.2 15.85 10.15 M19.2 18.45 L19.25 18.45 19.2 18.55 19.2 18.45 M13.55 17.85 L14.15 17.35 14.55 16.95 14.3 17.3 14.25 17.35 14.0 17.55 13.95 17.6 13.55 17.85 M17.05 46.35 L16.85 46.2 16.75 45.75 16.75 45.3 16.3 43.5 17.45 43.45 17.45 43.5 17.5 43.55 17.9 45.1 17.95 45.3 18.05 46.1 18.0 46.1 17.85 46.15 17.8 46.15 17.1 46.35 17.05 46.35 M35.5 26.5 L35.8 25.45 35.85 25.4 35.9 25.5 36.3 27.05 36.05 28.2 35.45 28.95 Q34.6 30.0 34.6 31.35 34.6 32.45 35.0 33.6 L35.45 35.4 Q35.45 36.45 34.2 38.05 L32.15 40.65 Q31.6 40.8 31.25 41.05 L30.8 41.4 30.65 41.4 30.65 41.3 30.65 40.9 31.2 40.45 32.2 39.65 32.8 38.9 33.4 38.1 34.3 36.6 34.7 35.05 34.55 34.25 34.45 33.35 34.25 32.5 34.1 31.65 34.2 30.75 34.35 29.75 35.1 28.85 35.7 27.7 35.6 27.1 35.5 26.5 M27.85 39.7 L27.9 39.7 27.85 40.55 27.65 40.3 Q27.4 40.05 26.9 40.05 26.4 40.05 26.25 40.45 L26.2 40.85 26.2 40.95 26.3 41.3 26.2 41.25 26.2 40.95 26.15 40.8 26.0 40.85 25.85 40.6 25.7 40.55 25.4 40.15 25.2 39.95 25.15 39.9 25.55 39.15 Q26.0 38.75 26.65 38.8 27.25 38.9 27.7 39.4 L27.85 39.7 M27.8 41.35 L27.8 41.45 27.75 41.4 27.8 41.35" fill="#8e6c24" fill-rule="evenodd" stroke="none"/>
      <path d="M17.65 33.95 L18.95 34.25 20.0 35.05 20.2 35.2 22.5 37.55 21.7 37.1 19.1 35.85 18.95 35.85 18.95 35.8 18.85 35.05 18.5 34.5 17.85 34.1 17.65 33.95 M36.9 23.75 L37.15 24.25 36.55 24.85 36.3 24.25 35.55 23.4 35.45 23.3 34.95 22.95 34.8 22.85 34.7 22.8 34.5 22.65 34.45 22.65 33.95 22.35 Q31.8 21.15 28.35 20.0 24.85 18.75 21.45 18.0 L15.35 17.15 15.35 17.1 15.3 17.15 15.25 17.1 15.25 17.15 14.8 17.65 14.7 17.7 14.3 17.95 13.9 18.05 13.0 17.95 12.85 17.75 12.9 17.8 13.05 17.85 13.1 17.85 13.3 17.85 13.35 17.85 13.55 17.85 13.95 17.6 14.0 17.55 14.25 17.35 14.3 17.3 14.55 16.95 14.55 16.9 14.65 16.8 14.8 16.65 14.9 16.5 15.05 16.5 15.3 16.5 15.35 16.65 15.35 16.55 16.05 16.55 16.8 16.55 16.8 16.65 20.7 17.35 23.9 18.05 27.25 19.0 29.55 19.8 Q31.65 20.4 34.25 21.8 36.3 22.95 36.9 23.75 M15.5 9.75 L15.7 9.6 Q15.95 9.55 16.2 9.75 16.85 10.35 16.85 11.35 L16.85 11.55 16.85 11.65 16.6 11.8 16.05 11.4 16.05 11.25 16.0 10.9 16.0 10.85 15.95 10.3 15.85 10.15 15.8 10.05 15.75 9.95 15.5 9.75 M34.1 9.6 L34.2 9.65 36.95 11.0 37.15 11.1 37.8 11.55 38.95 12.6 38.15 14.7 37.05 17.15 35.75 20.4 35.15 21.65 Q33.25 20.55 30.25 19.6 L30.1 19.5 31.15 16.8 Q31.65 15.45 32.3 14.05 L32.9 12.6 33.4 11.1 33.6 10.3 Q33.75 9.85 34.1 9.65 L34.1 9.6 M7.6 12.05 L7.0 11.8 7.05 11.6 7.25 11.15 7.55 10.0 8.25 9.05 8.4 8.8 9.15 7.9 Q9.95 6.55 10.3 6.25 L11.45 5.25 12.65 3.9 Q13.15 3.05 14.0 2.55 L15.6 1.85 Q16.75 1.1 17.35 0.85 19.55 0.05 22.8 0.05 27.15 0.05 29.3 0.75 L30.5 1.2 30.6 1.25 30.5 1.55 30.0 2.55 29.55 2.35 27.95 1.65 27.15 1.3 24.6 1.0 22.5 1.1 20.75 1.25 19.55 1.4 19.4 1.6 19.1 1.85 18.7 1.9 18.15 2.1 18.0 2.25 17.9 2.4 17.25 2.8 16.3 3.1 Q14.95 3.45 14.0 4.45 L12.5 6.0 10.8 7.7 9.5 9.2 Q9.1 9.55 8.85 10.0 L8.4 10.8 7.95 11.65 7.6 12.05 M31.8 6.85 Q32.65 7.6 32.75 8.45 L32.35 8.4 31.35 8.05 30.85 7.75 30.65 7.7 30.65 7.65 29.85 7.55 28.75 7.45 28.6 7.3 28.3 7.0 27.4 6.4 25.5 5.7 25.45 5.7 23.5 5.6 21.6 5.5 19.4 5.75 16.4 7.3 14.9 8.3 13.65 9.3 Q12.75 10.15 12.25 11.35 L11.7 13.3 10.95 15.35 Q10.95 16.5 9.4 18.6 L9.35 18.7 9.05 19.0 9.0 19.1 8.65 19.45 7.75 20.2 7.35 20.5 6.7 20.8 6.3 21.15 6.4 21.0 7.2 20.0 7.25 19.9 9.0 17.05 Q9.75 15.7 10.1 14.35 11.4 10.15 15.45 7.2 17.05 6.0 18.75 5.35 20.35 4.7 21.45 4.7 L21.5 4.7 Q26.85 4.7 29.95 5.95 L30.0 5.95 31.8 6.85 M12.25 18.15 L12.3 18.2 12.45 18.35 13.2 18.85 11.75 21.6 10.1 24.65 10.05 24.65 8.9 24.55 8.85 24.55 10.5 21.45 11.2 20.35 11.35 20.1 11.75 19.25 12.05 18.7 12.25 18.2 12.25 18.15 M19.45 18.5 L19.55 18.5 20.05 18.6 Q20.1 19.5 20.55 20.2 L21.6 21.25 22.65 22.15 Q23.15 22.7 23.15 23.5 L22.85 24.85 22.6 25.85 22.6 25.9 22.6 25.95 22.65 26.1 23.3 27.35 24.15 28.6 25.1 29.9 25.2 31.15 Q25.2 32.75 24.7 33.8 23.95 35.45 23.55 36.75 L23.5 36.8 23.05 36.35 23.8 34.35 24.65 31.15 24.65 31.1 24.75 30.4 Q24.75 29.55 23.95 28.95 L23.7 28.85 23.55 28.5 23.45 28.45 23.4 28.35 23.15 27.95 23.05 27.85 22.9 27.7 22.5 27.1 Q22.1 26.45 22.1 25.8 L22.25 24.65 22.45 23.65 22.0 22.6 20.9 21.3 19.65 19.95 19.5 19.7 19.45 19.6 19.45 19.4 19.45 19.0 19.45 18.9 19.45 18.5 M30.8 41.4 L30.65 41.55 30.65 41.4 30.8 41.4 M30.65 40.9 L29.85 38.3 28.8 36.25 Q31.0 35.95 32.0 34.1 L32.75 32.15 33.45 30.3 35.1 27.35 35.5 26.5 35.6 27.1 35.7 27.7 35.1 28.85 34.35 29.75 34.2 30.75 34.1 31.65 34.25 32.5 34.45 33.35 34.55 34.25 34.7 35.05 34.3 36.6 33.4 38.1 32.8 38.9 32.2 39.65 31.2 40.45 30.65 40.9 M23.7 37.4 L23.7 37.45 23.8 37.3 24.6 35.7 25.55 36.45 Q26.2 36.95 26.65 37.4 L26.75 37.5 27.4 38.25 27.45 38.3 27.45 38.35 27.5 38.35 27.65 38.7 27.25 38.35 Q26.65 37.95 25.75 37.95 25.1 37.95 24.65 38.65 L24.3 38.25 24.3 38.15 23.65 37.45 23.7 37.4" fill="#34270e" fill-rule="evenodd" stroke="none"/>
      <path d="M3.8 20.4 L3.9 20.35 3.85 20.4 3.8 20.4 M35.95 9.55 L35.9 9.55 36.0 9.5 35.95 9.55 M34.9 3.4 L34.9 3.35 34.85 3.25 34.95 3.3 34.9 3.4" fill="#ff7c51" fill-rule="evenodd" stroke="none"/>
      <path d="M1.95 43.05 L2.15 42.65 2.85 40.85 3.5 39.05 4.65 37.25 5.6 36.15 5.6 36.5 Q5.75 36.8 6.4 36.8 L6.7 36.75 6.65 36.85 5.95 37.75 4.6 39.5 Q3.75 40.7 3.6 41.35 L2.85 45.05 2.85 44.85 2.4 44.05 2.1 43.2 1.95 43.05 M7.7 34.55 L8.85 33.95 10.85 33.1 14.4 33.4 14.7 33.75 15.2 34.2 15.35 35.05 15.35 35.35 11.6 35.3 Q9.1 35.35 7.5 36.2 L7.6 36.1 8.1 35.05 7.7 34.55 M40.65 15.0 L40.35 15.25 40.35 15.6 40.15 16.0 39.75 16.8 38.6 19.3 38.1 20.55 37.7 21.8 37.2 22.95 36.9 23.75 Q36.3 22.95 34.25 21.8 31.65 20.4 29.55 19.8 L27.25 19.0 23.9 18.05 20.7 17.35 16.8 16.65 16.8 16.55 16.05 16.55 15.35 16.55 15.35 16.65 15.3 16.5 15.05 16.5 14.9 16.5 14.8 16.65 14.65 16.8 14.55 16.9 14.55 16.95 14.15 17.35 13.55 17.85 13.35 17.85 13.3 17.85 13.1 17.85 Q13.5 17.55 14.1 16.25 L14.7 14.6 Q14.7 13.95 14.25 14.35 L13.4 15.25 12.35 16.05 12.35 15.75 12.35 15.5 14.25 13.2 15.95 10.8 15.95 10.95 16.0 10.85 16.0 10.9 16.05 11.25 16.05 11.4 16.6 11.8 16.85 11.65 17.0 11.75 17.1 11.6 17.2 11.65 18.35 11.1 Q19.8 10.1 20.2 9.85 L20.7 9.6 20.85 9.55 Q21.45 9.2 22.1 8.95 L22.1 9.1 20.75 13.6 19.95 15.85 19.8 16.4 19.7 16.8 19.85 16.9 21.5 17.2 22.8 17.45 24.15 17.7 25.85 18.1 26.8 18.3 26.95 18.35 27.8 18.55 29.1 19.05 30.1 19.5 30.25 19.6 Q33.25 20.55 35.15 21.65 L35.4 21.8 35.5 21.9 35.75 22.05 35.95 22.2 36.65 22.7 37.05 21.55 38.4 18.4 39.1 17.05 39.8 15.65 40.25 14.45 40.35 14.55 40.65 15.0 M34.65 8.95 L34.55 8.75 34.15 8.1 34.0 7.95 34.5 8.25 35.25 9.2 35.15 9.15 35.1 9.15 35.05 9.1 34.65 8.95 M8.85 24.55 L7.95 24.5 9.35 22.15 10.35 20.55 11.2 18.7 11.2 18.55 11.3 18.5 11.75 18.2 12.2 18.15 12.25 18.2 12.05 18.7 11.75 19.25 11.35 20.1 11.2 20.35 10.5 21.45 8.85 24.55 M6.05 24.7 Q4.45 25.0 3.25 25.85 2.55 26.15 2.25 26.7 L2.2 26.65 1.4 25.65 0.95 25.15 0.5 24.6 Q2.5 24.7 4.65 22.85 L5.25 22.3 5.3 22.2 5.35 22.15 6.05 21.4 6.15 21.35 7.2 20.75 9.05 19.8 7.45 22.4 6.05 24.7 M20.3 6.9 L20.85 7.1 20.9 7.4 20.35 8.45 Q19.45 9.55 18.05 9.55 L17.1 9.35 17.05 8.85 17.25 8.25 18.05 7.55 Q18.55 7.1 19.05 6.95 L20.3 6.9 M19.45 7.8 Q19.45 7.15 18.8 7.3 18.15 7.45 18.15 8.1 L18.2 8.55 18.55 8.7 Q19.15 8.7 19.35 8.3 L19.45 7.8 M16.6 18.75 L17.8 19.15 19.0 19.45 19.5 19.7 19.5 19.75 19.15 21.15 18.15 24.65 17.85 26.2 17.55 27.75 17.05 29.35 16.35 28.3 15.75 27.35 14.2 25.5 14.45 24.9 15.3 22.4 16.1 20.2 16.6 18.75 M13.25 44.5 Q13.75 44.25 14.4 44.05 L16.3 43.5 16.75 45.3 16.75 45.75 16.85 46.2 17.05 46.35 16.95 46.45 15.1 47.25 13.75 47.55 13.6 47.0 13.5 46.4 13.5 45.3 13.35 44.65 13.25 44.5 M17.95 45.3 L18.1 46.1 18.05 46.1 17.95 45.3 M12.85 48.0 L12.85 47.85 12.9 47.95 12.85 48.0 M27.85 40.55 L27.85 40.6 27.8 41.25 27.8 41.35 27.75 41.4 26.35 41.35 26.3 41.3 26.2 40.95 26.2 40.85 26.25 40.45 Q26.4 40.05 26.9 40.05 27.4 40.05 27.65 40.3 L27.85 40.55" fill="#cd9e3f" fill-rule="evenodd" stroke="none"/>
      <path d="M16.25 33.7 L17.65 33.95 17.85 34.1 18.5 34.5 18.85 35.05 18.95 35.8 18.9 35.8 17.1 35.35 17.1 35.05 Q17.1 34.55 16.55 34.0 L16.25 33.7 M9.15 49.05 L9.5 48.85 9.5 49.05 9.15 49.05 M30.75 8.55 L33.55 9.4 34.1 9.6 34.1 9.65 Q33.75 9.85 33.6 10.3 L33.4 11.1 32.9 12.6 32.3 14.05 Q31.65 15.45 31.15 16.8 L30.1 19.5 29.1 19.05 27.8 18.55 26.95 18.35 26.8 18.3 27.75 15.85 29.3 12.2 29.9 10.45 30.65 8.75 30.75 8.55 M38.95 12.6 L39.75 13.6 39.45 14.25 39.15 14.9 39.0 15.15 37.85 17.6 36.65 20.65 35.95 22.2 35.75 22.05 35.5 21.9 35.4 21.8 35.15 21.65 35.75 20.4 37.05 17.15 38.15 14.7 38.95 12.6 M30.0 2.55 L29.6 3.35 28.85 4.75 Q25.65 3.8 22.25 4.0 20.1 3.5 16.85 5.45 14.65 6.75 13.25 8.2 11.55 9.7 10.65 11.25 L9.8 13.05 9.1 12.7 8.45 12.4 8.1 12.25 7.6 12.05 7.95 11.65 8.4 10.8 8.85 10.0 Q9.1 9.55 9.5 9.2 L10.8 7.7 12.5 6.0 14.0 4.45 Q14.95 3.45 16.3 3.1 L17.25 2.8 17.9 2.4 18.0 2.25 18.15 2.1 18.7 1.9 19.1 1.85 19.4 1.6 19.55 1.4 20.75 1.25 22.5 1.1 24.6 1.0 27.15 1.3 27.95 1.65 29.55 2.35 30.0 2.55 M32.7 7.25 L33.1 7.95 33.4 8.55 32.75 8.45 Q32.65 7.6 31.8 6.85 L32.2 7.0 32.7 7.25 M9.0 19.1 L9.05 19.0 9.35 18.7 9.4 18.6 Q10.95 16.5 10.95 15.35 L11.7 13.3 12.25 11.35 Q12.75 10.15 13.65 9.3 L14.9 8.3 16.4 7.3 19.4 5.75 21.6 5.5 23.5 5.6 25.45 5.7 25.5 5.7 27.4 6.4 28.3 7.0 28.6 7.3 28.55 7.4 28.4 7.4 24.6 7.35 24.45 7.4 23.65 7.0 Q21.65 6.1 19.8 6.1 19.65 6.1 18.4 6.75 L16.6 7.85 15.7 9.05 15.65 9.1 15.55 9.1 14.25 9.65 14.0 9.85 13.65 10.2 13.45 10.35 13.0 10.95 12.75 11.25 Q12.25 11.9 11.95 13.55 11.65 14.95 11.65 15.9 L11.65 16.4 11.7 17.2 12.05 17.85 12.2 18.05 12.1 18.1 Q11.6 18.1 11.15 17.65 L11.05 17.5 10.8 17.8 10.2 18.4 9.2 19.0 9.0 19.1 M19.45 18.5 L19.45 18.9 19.45 19.0 19.45 19.4 19.45 19.6 19.5 19.7 19.0 19.45 17.8 19.15 16.6 18.75 16.45 18.7 16.1 18.6 16.0 18.6 16.2 17.95 19.2 18.45 19.2 18.55 19.25 18.45 19.45 18.5 M23.05 27.85 L23.15 27.95 23.4 28.35 23.45 28.45 23.55 28.5 23.7 28.85 23.95 28.95 Q24.75 29.55 24.75 30.4 L24.65 31.1 24.65 31.15 23.8 34.35 23.05 36.35 21.95 35.25 21.35 34.65 21.15 34.45 21.0 34.3 21.1 34.15 21.45 33.1 21.85 31.4 22.45 29.7 23.05 27.9 23.05 27.85 M13.75 47.55 L15.1 47.25 16.95 46.45 17.05 46.35 17.1 46.35 17.8 46.15 17.85 46.15 18.0 46.1 18.05 46.1 18.1 46.1 18.15 46.4 18.15 46.45 Q18.15 47.1 15.8 47.8 13.45 48.5 12.7 48.9 L12.75 48.75 12.85 48.4 12.85 48.0 12.9 47.95 12.95 47.9 13.25 47.75 13.75 47.55 M27.65 38.7 L27.85 39.7 27.7 39.4 Q27.25 38.9 26.65 38.8 26.0 38.75 25.55 39.15 L25.15 39.9 25.15 39.85 25.2 39.65 24.65 38.65 Q25.1 37.95 25.75 37.95 26.65 37.95 27.25 38.35 L27.65 38.7 M26.35 41.35 L26.2 41.35 26.2 41.25 26.3 41.3 26.35 41.35" fill="#473612" fill-rule="evenodd" stroke="none"/>
      <path d="M3.05 47.15 L3.35 45.3 4.25 41.95 Q4.5 40.7 5.35 39.55 L5.5 39.8 5.65 40.25 5.5 41.5 5.4 42.3 5.3 42.4 5.35 42.5 5.3 43.2 5.3 44.65 5.3 46.0 5.2 47.85 4.65 47.7 4.65 47.6 4.65 47.45 4.65 46.2 4.65 46.05 4.65 46.0 Q4.65 44.45 4.8 43.4 L4.4 44.15 Q3.85 45.45 3.65 46.2 L3.5 47.25 3.5 47.3 3.05 47.15 M6.3 40.55 L6.3 40.45 6.35 39.95 6.35 39.9 6.3 39.25 Q6.2 39.0 5.85 39.0 L6.35 38.45 6.95 37.65 7.45 37.0 Q7.7 36.75 9.05 36.45 L9.2 36.45 9.8 36.3 9.75 36.8 9.9 36.85 10.05 36.95 Q9.9 37.55 9.9 38.4 L9.95 40.6 9.75 42.8 9.6 44.95 9.5 48.25 8.9 48.4 8.85 48.0 9.0 46.4 9.1 44.55 9.25 42.8 9.35 41.1 9.25 39.35 9.15 39.0 9.1 38.15 8.85 38.3 Q8.0 38.65 7.6 39.1 L6.8 40.05 6.3 40.6 6.3 40.55 M23.3 20.1 L23.3 19.55 23.25 19.35 23.25 19.25 23.9 19.4 24.8 19.6 25.25 20.0 26.0 20.45 26.6 21.05 26.65 21.05 26.5 21.2 25.9 21.7 25.75 21.75 25.75 21.55 25.7 21.3 Q25.55 21.1 25.05 20.8 L24.55 20.55 Q24.55 19.9 24.05 19.85 23.6 19.8 23.5 20.15 L23.35 20.1 23.3 20.1 M32.75 23.35 L32.9 23.35 33.0 23.35 33.4 23.4 Q33.9 23.45 34.25 23.75 34.6 24.0 34.6 24.3 L34.6 24.35 34.25 25.05 34.1 25.25 33.7 25.5 33.2 25.05 32.55 24.4 32.7 24.4 Q33.05 24.4 33.15 24.15 L33.15 23.95 33.0 23.45 32.95 23.4 32.75 23.35 M32.15 23.55 Q32.3 23.4 32.55 23.4 32.35 23.45 32.25 23.6 L32.2 23.8 32.15 23.55 M13.25 30.65 L14.25 30.95 15.55 31.5 16.25 31.95 18.0 33.15 16.7 33.0 16.05 32.9 15.25 32.2 14.25 31.45 13.25 30.65 M11.8 38.65 L11.6 37.35 11.2 36.1 13.3 36.05 16.05 36.15 16.0 36.3 15.95 36.8 15.95 37.0 15.95 37.1 16.0 37.75 16.05 37.85 15.85 37.75 Q15.1 37.1 14.05 37.1 12.25 37.1 11.95 38.15 L11.8 38.65 M24.3 40.0 L24.35 40.05 24.55 40.35 24.35 40.35 23.0 39.95 22.85 39.85 Q22.45 39.5 22.05 39.45 21.25 38.9 20.75 38.35 L19.4 37.1 18.95 36.75 19.95 37.15 21.55 38.5 24.05 40.05 24.3 40.0" fill="#666666" fill-rule="evenodd" stroke="none"/>
      <path d="M23.3 20.15 L23.3 20.1 23.35 20.1 23.3 20.15 M23.5 20.15 Q23.6 19.8 24.05 19.85 24.55 19.9 24.55 20.55 L24.6 20.75 24.55 21.0 Q24.45 21.2 24.05 21.2 23.65 21.2 23.55 20.95 L23.45 20.5 23.5 20.15 M32.55 23.4 L32.65 23.35 32.75 23.35 32.95 23.4 33.0 23.45 33.15 23.95 33.15 24.15 Q33.05 24.4 32.7 24.4 L32.55 24.4 32.3 24.2 32.2 23.85 32.2 23.8 32.25 23.6 Q32.35 23.45 32.55 23.4" fill="#ffffff" fill-rule="evenodd" stroke="none"/>
      <path d="M6.05 42.9 L6.15 41.75 6.8 41.2 7.5 40.35 8.2 39.45 Q8.6 39.05 9.15 39.0 L9.25 39.35 9.35 41.1 9.25 42.8 9.1 44.55 9.0 46.4 8.85 48.0 8.9 48.4 8.6 48.55 8.45 47.45 8.4 46.45 8.6 43.65 8.75 41.35 8.75 40.55 7.3 41.95 6.1 42.9 6.05 42.9 M25.75 21.75 L25.3 21.8 25.0 21.8 23.9 21.55 23.4 20.65 23.3 20.15 23.35 20.1 23.5 20.15 23.45 20.5 23.55 20.95 Q23.65 21.2 24.05 21.2 24.45 21.2 24.55 21.0 L24.6 20.75 24.55 20.55 25.05 20.8 Q25.55 21.1 25.7 21.3 L25.75 21.55 25.75 21.75 M9.4 30.45 L10.55 30.3 10.65 30.3 11.35 30.3 11.55 30.35 11.5 30.45 13.15 31.85 14.0 32.5 14.05 32.6 12.45 32.45 12.25 32.45 12.2 32.45 12.1 32.45 12.0 32.45 10.3 32.6 10.25 32.6 10.05 31.8 9.55 30.7 9.4 30.45 M16.2 38.85 L16.4 39.7 15.9 39.6 15.8 39.35 Q15.7 39.0 14.65 39.0 L13.6 39.15 12.55 39.8 12.75 41.85 12.95 43.75 12.8 43.8 12.55 43.95 12.45 44.05 12.4 43.9 12.4 43.85 12.35 43.7 12.2 42.1 12.2 42.0 12.15 42.0 12.15 41.85 12.1 41.75 12.1 41.45 12.0 40.25 11.95 40.3 11.85 38.95 12.2 38.65 12.45 38.5 12.7 38.35 12.9 38.2 13.25 38.05 13.3 38.0 13.45 37.95 13.55 37.95 15.5 38.4 15.95 38.7 16.2 38.85 M19.95 37.15 L20.0 37.15 20.05 37.2 22.3 38.55 22.35 38.55 22.4 38.65 24.15 39.9 24.3 40.0 24.05 40.05 21.55 38.5 19.95 37.15 M4.25 47.0 L4.25 46.95 4.6 46.15 4.65 46.2 4.65 47.45 4.65 47.6 4.65 47.7 4.25 47.55 4.25 47.1 4.25 47.0" fill="#cccccc" fill-rule="evenodd" stroke="none"/>
      <path d="M33.7 25.5 L33.0 25.6 Q32.45 25.6 32.1 24.85 L31.85 24.05 Q31.85 23.7 32.15 23.55 L32.2 23.8 32.2 23.85 32.3 24.2 32.55 24.4 33.2 25.05 33.7 25.5" fill="#d6d6d6" fill-rule="evenodd" stroke="none"/>
      <path d="M3.9 20.35 L4.65 19.5 5.4 18.35 8.0 16.4 8.75 15.85 8.0 17.2 6.3 20.1 5.1 21.45 3.6 22.75 3.2 23.05 2.75 23.25 2.3 23.45 2.95 22.4 3.65 20.85 3.85 20.4 3.9 20.35 M37.95 36.25 L36.65 36.3 36.65 36.05 36.55 36.2 36.5 36.3 36.5 36.35 36.4 36.35 36.1 36.45 36.15 35.3 35.7 33.25 Q35.25 32.1 35.25 31.4 35.25 30.65 35.55 30.15 L36.15 29.35 Q37.0 28.4 37.0 27.05 L36.85 25.85 36.9 25.85 37.2 26.6 37.55 28.65 37.8 30.65 38.0 32.65 37.95 34.65 37.95 36.25" fill="#edbd1b" fill-rule="evenodd" stroke="none"/>
      <path d="M-1.5 46.1 L-1.0 44.3 -0.55 42.75 -0.55 43.0 -0.6 43.35 -0.35 44.8 -0.25 45.4 -0.25 45.6 -0.25 45.7 -0.35 46.3 -1.5 46.1 M11.7 44.4 L12.2 49.1 12.3 49.15 12.45 49.25 11.4 49.3 11.15 49.25 11.25 48.45 11.5 45.85 Q11.45 45.45 11.7 44.65 L11.7 44.4 M13.9 49.25 L14.95 48.9 17.1 48.05 Q18.2 47.55 18.5 47.25 L18.85 46.4 18.8 46.1 18.85 46.1 18.95 46.0 19.3 45.05 19.4 44.85 19.65 43.95 20.1 43.4 20.6 42.9 20.85 42.65 21.85 42.6 Q23.0 42.6 23.7 43.0 L23.85 43.15 23.0 43.9 21.95 45.05 20.45 47.55 20.3 47.9 18.05 48.3 Q16.25 48.65 15.35 49.3 L13.9 49.25 M35.45 37.75 L35.6 37.5 35.8 37.5 36.75 37.25 37.7 37.05 Q38.25 37.05 38.75 37.85 L38.6 38.0 38.25 38.35 37.2 37.35 36.45 37.55 35.45 37.75 M6.95 26.15 L5.4 26.15 4.85 26.4 4.35 26.65 3.65 26.85 3.25 26.95 2.75 27.3 3.15 26.8 Q4.05 25.85 6.2 25.55 L6.6 25.9 6.95 26.15 M15.85 29.2 L15.85 29.1 15.95 29.3 15.85 29.2 M0.8 38.9 L0.5 38.15 Q0.0 36.75 0.0 35.55 L0.05 33.5 Q0.15 32.25 0.7 31.35 L1.3 30.3 1.95 29.3 Q2.55 28.7 3.8 28.25 L5.05 27.95 6.55 27.95 6.6 28.05 7.45 29.05 7.5 29.1 7.35 29.15 6.25 29.9 5.1 30.4 Q4.0 31.05 3.4 31.65 L2.35 32.9 1.7 34.25 1.15 35.45 Q0.9 36.05 0.8 36.75 L0.8 38.0 0.8 38.9" fill="#840808" fill-rule="evenodd" stroke="none"/>
      <path d="M-0.55 42.75 L-0.5 42.7 0.15 39.15 0.65 39.95 0.5 40.95 Q0.35 41.85 0.35 44.4 L0.35 44.8 0.3 45.75 0.3 46.45 -0.15 46.35 -0.15 46.2 -0.25 45.7 -0.25 45.6 -0.25 45.4 -0.35 44.8 -0.6 43.35 -0.55 43.0 -0.55 42.75 M10.3 49.1 L10.3 46.65 10.45 42.25 10.65 39.35 10.6 37.75 10.45 36.7 10.45 36.5 10.4 36.2 10.85 36.15 10.8 36.45 11.05 39.7 11.45 42.85 11.5 42.9 11.5 43.0 11.55 43.25 11.3 44.05 10.95 45.3 10.8 46.45 10.6 47.65 10.4 48.75 10.35 49.15 10.3 49.1 M18.75 45.85 L18.15 43.55 17.8 42.5 17.6 41.85 17.3 41.1 17.0 38.35 16.4 36.2 17.65 36.4 17.65 36.6 18.9 37.85 20.35 39.1 21.8 40.2 21.9 40.3 22.1 40.45 22.15 40.6 21.45 41.1 21.55 41.4 21.9 41.4 22.55 41.4 22.8 41.4 23.25 41.4 23.25 41.5 23.3 41.5 23.3 41.4 23.55 41.35 24.0 41.25 25.05 41.25 25.2 41.35 25.25 41.4 25.15 41.5 24.55 42.35 24.45 42.35 24.0 42.2 22.85 41.95 22.1 42.05 22.0 42.1 21.9 42.1 20.95 41.85 20.3 42.0 Q20.1 42.05 19.8 42.25 L18.55 42.65 18.7 43.0 18.9 43.4 19.2 44.2 19.4 44.85 19.3 45.05 18.95 46.0 18.75 45.85 M37.2 39.35 L34.45 39.7 34.05 39.95 33.95 39.85 35.1 38.35 35.4 37.85 35.95 38.0 37.05 38.65 37.4 39.2 37.2 39.35 M11.05 25.6 L12.6 25.75 12.65 25.75 12.8 25.75 12.95 25.75 13.5 25.85 13.55 25.85 15.1 28.05 15.15 28.1 15.15 28.15 15.2 28.25 15.3 28.3 15.8 29.1 15.85 29.1 15.85 29.2 15.65 29.1 15.05 28.75 14.95 28.75 14.9 28.7 13.9 28.2 12.65 27.6 12.0 27.35 6.65 27.0 Q5.25 27.2 2.55 28.1 L2.75 27.3 3.25 26.95 3.65 26.85 4.35 26.65 4.85 26.4 5.4 26.15 6.95 26.15 11.2 26.5 12.05 26.75 11.6 26.25 11.05 25.6 M10.55 28.05 L11.95 28.15 12.9 28.45 13.9 29.05 14.8 29.5 15.7 30.05 16.3 30.55 17.1 31.3 17.25 31.5 Q16.95 31.3 16.6 31.2 L15.7 30.7 14.8 30.15 12.85 29.75 Q12.7 29.25 11.95 29.2 L11.5 28.75 10.65 28.15 10.55 28.05 M19.6 39.6 L18.7 38.8 17.85 38.1 17.85 38.15 18.2 39.4 18.4 40.7 18.35 41.15 18.25 41.65 18.5 41.6 20.3 41.2 20.65 40.85 20.15 40.3 19.6 39.6 M26.6 36.1 L27.5 36.1 28.0 36.3 28.1 36.3 28.65 37.5 29.2 38.6 28.75 38.9 28.6 39.05 28.6 38.75 Q27.9 37.3 27.1 36.55 L26.6 36.1 M29.45 39.3 L30.0 41.85 28.6 41.5 28.6 39.9 Q29.1 39.9 29.45 39.3" fill="#3e0202" fill-rule="evenodd" stroke="none"/>
      <path d="M11.55 43.25 L11.6 43.65 11.7 44.4 11.7 44.65 Q11.45 45.45 11.5 45.85 L11.25 48.45 11.15 49.25 10.5 49.15 10.35 49.15 10.4 48.75 10.6 47.65 10.8 46.45 10.95 45.3 11.3 44.05 11.55 43.25 M18.8 46.1 L18.75 45.85 18.95 46.0 18.85 46.1 18.8 46.1 M22.1 40.45 L22.25 40.55 22.15 40.6 22.1 40.45 M25.05 41.25 L25.4 41.25 25.25 41.4 25.2 41.35 25.05 41.25 M24.55 42.35 L24.5 42.4 24.25 42.75 23.85 43.15 23.7 43.0 Q23.0 42.6 21.85 42.6 L20.85 42.65 20.6 42.9 20.1 43.4 19.65 43.95 19.4 44.85 19.2 44.2 18.9 43.4 18.7 43.0 18.55 42.65 19.8 42.25 Q20.1 42.05 20.3 42.0 L20.95 41.85 21.9 42.1 22.0 42.1 22.1 42.05 22.85 41.95 24.0 42.2 24.45 42.35 24.55 42.35 M35.4 37.85 L35.45 37.75 36.45 37.55 37.2 37.35 38.25 38.35 37.4 39.2 37.05 38.65 35.95 38.0 35.4 37.85 M11.05 25.6 L11.6 26.25 12.05 26.75 11.2 26.5 6.95 26.15 6.6 25.9 6.2 25.55 8.5 25.4 10.8 25.55 11.05 25.6 M10.55 28.05 L10.65 28.15 11.5 28.75 11.95 29.2 11.5 29.2 Q10.3 29.35 7.95 30.15 L7.85 30.2 Q7.05 30.3 6.25 30.95 L4.8 32.0 Q3.65 32.55 2.75 33.95 2.2 34.9 1.8 36.15 1.2 37.85 0.9 39.1 L0.8 38.9 0.8 38.0 0.8 36.75 Q0.9 36.05 1.15 35.45 L1.7 34.25 2.35 32.9 3.4 31.65 Q4.0 31.05 5.1 30.4 L6.25 29.9 7.35 29.15 7.5 29.1 7.45 29.05 6.6 28.05 6.55 27.95 10.55 28.05 M19.6 39.6 L20.15 40.3 20.65 40.85 20.3 41.2 18.5 41.6 18.25 41.65 18.35 41.15 18.4 40.7 18.2 39.4 17.85 38.15 17.85 38.1 18.7 38.8 19.6 39.6 M-0.25 45.7 L-0.15 46.2 -0.15 46.35 -0.35 46.3 -0.25 45.7" fill="#5c0404" fill-rule="evenodd" stroke="none"/>
      <path d="M6.15 41.75 L6.15 41.4 6.3 40.55 6.3 40.6 6.8 40.05 7.6 39.1 Q8.0 38.65 8.85 38.3 L9.1 38.15 9.15 39.0 Q8.6 39.05 8.2 39.45 L7.5 40.35 6.8 41.2 6.15 41.75 M11.55 30.35 L11.6 30.35 12.1 30.45 12.25 30.45 13.25 30.65 14.25 31.45 15.25 32.2 16.05 32.9 14.55 32.7 14.05 32.6 14.0 32.5 13.15 31.85 11.5 30.45 11.55 30.35 M16.05 37.85 L16.2 38.85 15.95 38.7 15.5 38.4 13.55 37.95 13.45 37.95 13.3 38.0 13.25 38.05 12.9 38.2 12.7 38.35 12.45 38.5 12.2 38.65 11.85 38.95 11.85 38.85 11.85 38.8 11.8 38.65 11.95 38.15 Q12.25 37.1 14.05 37.1 15.1 37.1 15.85 37.75 L16.05 37.85 M3.5 47.3 L3.5 47.25 3.65 46.2 Q3.85 45.45 4.4 44.15 L4.8 43.4 Q4.65 44.45 4.65 46.0 L4.65 46.05 4.6 46.15 4.25 46.95 4.25 47.0 4.2 47.15 4.1 47.5 3.5 47.3" fill="#999999" fill-rule="evenodd" stroke="none"/>
      <path d="M5.4 42.3 L5.35 42.5 5.3 42.4 5.4 42.3 M5.95 48.15 L6.0 47.15 6.05 45.35 6.0 43.4 6.05 42.9 6.1 42.9 7.3 41.95 8.75 40.55 8.75 41.35 8.6 43.65 8.4 46.45 8.45 47.45 8.6 48.55 7.75 48.8 5.95 48.15 M10.25 32.6 L7.1 34.05 Q5.4 34.95 4.45 36.35 L3.6 37.45 2.85 38.65 2.35 39.7 1.85 40.95 1.15 42.55 1.4 40.8 Q1.75 37.95 2.25 36.95 L2.95 34.95 Q3.5 33.65 4.55 33.1 L7.0 31.45 Q8.2 30.75 9.4 30.45 L9.55 30.7 10.05 31.8 10.25 32.6 M16.4 39.7 L17.05 42.05 17.25 42.8 17.0 42.8 14.25 43.3 Q13.35 43.55 12.95 43.75 L12.75 41.85 12.55 39.8 13.6 39.15 14.65 39.0 Q15.7 39.0 15.8 39.35 L15.9 39.6 16.4 39.7 M12.1 41.45 L11.95 40.3 12.0 40.25 12.1 41.45 M4.1 47.5 L4.2 47.15 4.25 47.0 4.25 47.1 4.25 47.55 4.1 47.5 M4.6 46.15 L4.65 46.05 4.65 46.2 4.6 46.15" fill="#e2e2e2" fill-rule="evenodd" stroke="none"/>
      <path d="M36.85 25.85 L36.85 25.8 36.9 25.85 36.85 25.85" fill="#f3d368" fill-rule="evenodd" stroke="none"/>
      <path d="M21.35 47.7 L22.25 46.0 23.15 45.05 23.3 44.95 24.35 43.8 26.1 41.65 26.15 41.7 26.25 41.75 26.6 41.8 27.95 42.05 Q30.35 42.5 31.8 43.55 L31.9 43.65 31.4 44.0 30.9 43.8 29.4 43.05 28.3 42.8 27.9 42.65 27.25 42.6 25.9 42.5 25.5 43.1 24.7 44.55 24.3 45.35 23.85 46.15 23.5 47.1 23.45 47.25 23.4 47.35 21.35 47.7 M31.6 42.55 L31.5 42.5 31.1 42.25 31.0 42.25 31.65 41.95 31.75 41.9 33.1 41.1 Q34.45 40.5 36.3 40.2 L35.95 40.55 33.7 42.4 33.35 42.4 31.6 42.55 M26.65 35.3 L26.25 35.1 25.15 34.75 25.7 33.65 25.85 32.7 25.85 31.2 25.75 30.25 25.3 28.9 25.3 28.85 24.9 28.2 24.75 28.0 24.6 27.85 23.7 26.9 23.45 26.6 Q23.3 26.25 23.3 25.9 L23.55 24.95 27.9 26.0 29.35 26.4 30.4 27.05 31.85 28.5 32.95 29.8 32.9 30.0 32.45 30.95 32.4 30.95 31.4 29.8 30.25 29.05 29.1 28.25 Q28.85 28.0 27.2 27.45 L25.6 26.95 25.2 26.85 25.6 27.45 26.7 28.65 27.5 29.65 27.4 29.6 27.55 29.8 27.75 30.65 27.75 31.0 27.8 31.05 27.8 31.8 27.8 32.8 27.5 33.9 27.2 34.45 27.0 34.95 26.65 35.3" fill="#473629" fill-rule="evenodd" stroke="none"/>
      <path d="M32.55 43.25 L32.05 42.9 31.6 42.55 33.35 42.4 33.7 42.4 32.55 43.25 M32.45 31.0 L32.15 31.65 31.8 32.6 31.65 32.45 31.15 31.65 29.95 30.9 28.65 30.15 28.45 30.05 28.3 30.0 28.2 29.95 28.15 29.9 28.05 29.85 27.95 29.8 27.5 29.65 26.7 28.65 25.6 27.45 25.2 26.85 25.6 26.95 27.2 27.45 Q28.85 28.0 29.1 28.25 L30.25 29.05 31.4 29.8 32.4 30.95 32.45 31.0 M23.5 47.1 L23.85 46.15 24.3 45.35 24.7 44.55 25.5 43.1 25.9 42.5 27.25 42.6 27.9 42.65 28.3 42.8 29.4 43.05 30.9 43.8 31.4 44.0 30.25 44.75 29.7 44.7 29.05 44.8 29.05 44.7 29.0 44.65 26.05 45.45 Q24.25 46.1 23.85 46.75 L23.5 47.1" fill="#604837" fill-rule="evenodd" stroke="none"/>
      <path d="M32.45 30.95 L32.45 31.0 32.4 30.95 32.45 30.95" fill="#735844" fill-rule="evenodd" stroke="none"/>
      <path d="M31.8 32.6 L31.5 33.2 31.4 33.5 30.9 33.05 29.45 31.8 Q28.8 31.45 28.05 31.15 L27.8 31.05 27.75 31.0 27.75 30.65 27.55 29.8 27.4 29.6 27.5 29.65 27.95 29.8 28.05 29.85 28.15 29.9 28.2 29.95 28.3 30.0 28.45 30.05 28.65 30.15 29.95 30.9 31.15 31.65 31.65 32.45 31.8 32.6 M23.4 47.35 L23.45 47.25 23.5 47.1 23.85 46.75 Q24.25 46.1 26.05 45.45 L29.0 44.65 29.05 44.7 29.05 44.8 29.7 44.7 30.25 44.75 27.9 46.2 25.45 47.0 23.4 47.35" fill="#795b46" fill-rule="evenodd" stroke="none"/>
      <path d="M31.4 33.5 L31.15 34.0 30.7 34.6 Q30.1 35.15 27.9 35.6 L26.65 35.3 27.0 34.95 27.2 34.45 27.5 33.9 27.8 32.8 27.8 31.8 27.8 31.05 28.05 31.15 Q28.8 31.45 29.45 31.8 L30.9 33.05 31.4 33.5" fill="#946f56" fill-rule="evenodd" stroke="none"/>
    </g>
    <g id="shape2" transform="matrix(1.0, 0.0, 0.0, 1.0, 1.65, 14.45)">
      <path d="M-1.45 -8.8 L-1.1 -9.0 Q4.8 -11.85 11.9 -12.35 26.35 -13.45 37.35 -4.0 42.5 0.4 45.45 5.95 L46.4 7.85 46.9 10.85 47.4 12.45 47.35 12.7 46.95 11.35 47.0 11.65 47.0 13.05 47.0 13.6 47.0 14.3 Q46.75 28.35 36.75 38.35 26.55 48.6 12.0 48.6 5.6 48.6 0.0 46.6 L0.0 45.75 Q5.6 47.8 12.05 47.8 26.25 47.8 36.25 37.8 46.25 27.75 46.25 13.6 L45.95 8.7 Q42.95 1.8 36.85 -3.45 26.05 -12.7 11.95 -11.6 4.65 -11.05 -1.4 -7.9 L-1.45 -8.8" fill="#8e6c24" fill-rule="evenodd" stroke="none"/>
      <path d="M-1.45 -8.8 L-1.65 -10.95 Q4.45 -13.8 11.75 -14.35 27.0 -15.5 38.65 -5.5 44.75 -0.25 47.95 6.45 L48.75 9.25 48.8 9.75 49.0 12.5 48.9 15.8 48.75 18.6 48.75 18.8 48.6 19.55 48.55 19.8 Q46.75 31.15 38.15 39.75 27.35 50.6 12.0 50.6 5.6 50.6 0.0 48.7 L0.0 46.6 Q5.6 48.6 12.0 48.6 26.55 48.6 36.75 38.35 46.75 28.35 47.0 14.3 L47.0 13.6 47.0 13.05 47.0 11.65 46.95 11.35 47.35 12.7 47.4 12.45 46.9 10.85 46.4 7.85 45.45 5.95 Q42.5 0.4 37.35 -4.0 26.35 -13.45 11.9 -12.35 4.8 -11.85 -1.1 -9.0 L-1.45 -8.8" fill="#473612" fill-rule="evenodd" stroke="none"/>
    </g>
  </defs>
</svg>
