<?xml version="1.0" encoding="UTF-8" standalone="no"?>
<svg xmlns:ffdec="https://www.free-decompiler.com/flash" xmlns:xlink="http://www.w3.org/1999/xlink" ffdec:objectType="frame" height="116.7px" width="93.7px" xmlns="http://www.w3.org/2000/svg">
  <g transform="matrix(1.0, 0.0, 0.0, 1.0, 20.6, 26.6)">
    <clipPath id="clipPath0" transform="matrix(1.0, 0.0, 0.0, 1.0, 0.0, 0.0)">
      <path d="M18.6 -12.1 Q32.65 -10.5 42.0 0.55 46.25 5.5 48.35 11.05 L47.1 12.1 Q48.35 17.65 47.45 23.95 L47.15 25.75 46.4 27.35 Q44.7 30.8 42.8 33.0 34.35 42.95 30.75 45.0 29.1 45.95 20.7 49.55 L20.1 48.85 12.3 48.0 10.3 47.55 7.4 50.25 Q5.25 48.75 2.25 48.35 L-2.4 48.7 -6.35 45.3 Q-14.9 36.55 -15.0 24.4 L-15.0 23.7 -15.0 23.15 -15.2 22.4 -14.9 22.2 -14.9 21.95 Q-14.45 14.65 -11.2 8.45 L-14.3 4.8 Q-11.5 -1.0 -6.0 -5.45 3.6 -13.1 16.1 -12.4 L16.8 -12.35 18.6 -12.1" fill="#00ff00" fill-rule="evenodd" stroke="none"/>
    </clipPath>
    <g clip-path="url(#clipPath0)">
      <use ffdec:characterId="1061" height="116.7" transform="matrix(1.0, 0.0, 0.0, 1.0, -20.6, -26.6)" width="93.7" xlink:href="#shape1"/>
    </g>
    <use ffdec:characterId="1060" height="65.05" transform="matrix(1.0, 0.0, 0.0, 1.0, -1.65, -14.45)" width="50.65" xlink:href="#shape2"/>
  </g>
  <defs>
    <g id="shape1" transform="matrix(1.0, 0.0, 0.0, 1.0, 20.6, 26.6)">
      <path d="M-8.05 -19.75 L-7.15 -20.5 -7.8 -20.9 -8.05 -21.25 Q-8.05 -22.4 -3.65 -22.45 L0.0 -22.5 2.8 -23.0 6.3 -24.3 Q7.65 -24.6 7.6 -23.25 L18.4 -24.15 20.35 -23.6 23.35 -22.9 25.15 -22.45 26.7 -22.15 32.4 -21.05 35.35 -20.55 35.05 -21.0 Q34.8 -21.25 34.8 -21.65 L34.8 -21.95 34.6 -22.3 Q34.1 -22.85 34.1 -24.15 34.1 -25.7 35.05 -26.3 36.25 -27.25 38.6 -25.15 39.85 -24.25 42.75 -22.9 45.25 -21.7 46.5 -20.55 L49.1 -17.9 51.2 -15.35 52.55 -10.4 52.45 -9.9 53.4 -9.0 54.7 -7.35 57.35 -3.7 Q58.8 -1.75 58.95 -0.85 L60.0 5.7 Q60.8 9.65 61.7 12.1 62.65 14.6 62.95 18.55 L63.4 25.05 63.7 28.35 64.0 31.75 64.1 33.3 Q64.2 34.3 64.5 34.8 64.95 35.55 64.95 37.95 L64.85 43.1 64.5 51.05 64.4 54.35 64.5 57.65 Q64.5 60.3 64.0 62.15 63.3 61.05 63.1 59.5 62.85 57.05 62.25 56.25 L61.7 55.15 58.55 51.1 58.25 50.85 56.9 50.15 56.85 47.3 56.85 46.45 56.85 45.6 56.85 45.45 56.7 44.3 56.6 41.7 Q56.6 38.7 56.95 35.1 L57.4 28.8 Q57.4 23.05 55.25 14.2 53.2 6.15 51.5 3.1 L47.95 -3.25 Q45.7 -7.2 43.45 -9.65 L42.25 -11.4 41.15 -13.0 Q39.55 -14.85 35.5 -16.0 L29.1 -17.85 24.2 -19.25 Q23.85 -18.95 23.0 -18.6 L22.65 -18.8 21.85 -19.6 21.8 -19.65 21.15 -20.15 Q18.75 -23.95 18.15 -22.65 17.85 -22.1 17.85 -20.9 L17.85 -20.6 17.85 -20.05 17.85 -19.45 15.6 -19.35 17.85 -19.35 17.85 -18.9 18.1 -17.1 11.25 -15.9 Q8.45 -15.55 5.65 -14.05 L3.0 -12.2 2.8 -12.25 0.2 -13.1 0.15 -13.2 0.05 -13.2 Q-1.0 -13.5 -2.7 -14.75 L-2.7 -14.85 -4.0 -16.35 -5.55 -17.85 -6.1 -18.3 -6.5 -18.7 -6.65 -18.75 -6.65 -18.8 -8.05 -19.75 M-0.75 84.6 L-0.85 85.0 -1.35 85.5 -1.9 85.85 -2.15 86.35 Q-2.5 86.75 -3.05 86.75 L-3.65 86.45 -4.0 86.1 Q-4.4 86.35 -4.5 87.15 -4.75 87.9 -5.1 88.3 L-5.8 89.45 Q-6.1 90.1 -6.8 90.1 -7.8 90.1 -8.1 89.25 L-8.25 88.35 -8.25 88.3 -9.1 88.6 -10.2 87.95 Q-10.75 87.25 -11.3 87.25 L-11.65 87.55 -12.4 87.9 Q-13.55 87.9 -13.75 86.45 L-13.8 84.6 -13.75 83.05 Q-13.8 82.2 -15.1 81.55 -16.05 81.15 -16.0 80.0 -15.75 78.75 -15.85 78.2 L-15.9 76.65 -16.0 75.05 -16.2 75.55 Q-16.6 75.9 -17.15 75.9 -18.15 75.9 -18.3 74.0 L-18.15 72.0 -18.3 70.5 -18.4 68.35 -18.85 67.55 -19.25 66.5 -19.25 64.85 Q-20.25 64.65 -20.55 64.1 L-20.6 63.1 -20.25 58.4 -19.9 54.35 -19.9 45.75 Q-19.9 40.45 -19.4 37.05 L-19.0 34.85 -18.4 33.75 Q-17.95 33.25 -18.15 32.65 -18.25 32.05 -17.45 31.55 L-17.65 29.75 -17.45 25.7 Q-17.35 24.35 -17.6 21.7 L-17.85 17.75 Q-17.85 14.95 -17.45 11.75 -17.15 8.55 -17.15 5.1 -17.15 1.45 -16.55 -0.7 L-14.55 -7.8 Q-13.6 -11.4 -10.9 -15.75 L-9.0 -18.6 -8.55 -16.05 -8.05 -14.15 -7.65 -11.95 -6.75 -9.6 -10.15 -9.6 Q-10.05 -8.15 -9.25 -6.55 L-8.35 -4.85 -7.75 -3.9 -7.55 -3.7 -6.95 -2.9 -6.05 -2.0 -5.95 -1.85 -7.2 1.25 Q-9.05 5.45 -9.05 6.1 L-9.05 16.25 -8.95 20.85 -8.85 21.7 -8.05 25.65 -7.25 29.65 -6.65 31.7 -6.05 33.7 Q-5.7 35.25 -4.75 36.55 L-3.75 37.55 -3.95 37.9 -4.0 37.9 -3.95 37.95 -4.35 38.25 -4.5 38.3 -4.5 38.35 -5.25 38.95 -6.6 40.05 -8.1 41.75 -8.25 41.5 -8.25 41.9 -9.05 43.2 -9.2 43.4 Q-10.1 44.95 -10.65 46.85 L-11.45 49.85 -11.75 54.5 -11.55 58.8 Q-11.15 62.75 -10.1 63.05 L-10.4 63.9 -10.6 65.2 -10.5 66.7 -10.6 67.9 -10.65 71.65 Q-10.6 73.45 -10.15 74.4 -9.6 75.55 -8.25 76.15 L-3.85 76.7 -2.7 76.7 -3.0 78.25 Q-3.0 80.25 -2.3 81.95 -2.2 82.25 -2.25 83.85 -2.25 85.2 -1.85 85.7 L-1.75 85.65 -1.7 85.65 -1.0 84.9 -0.75 84.6 M47.2 -8.2 L47.6 -8.25 47.45 -8.4 47.2 -8.2 M61.65 17.0 L61.3 14.05 Q61.3 15.7 61.55 17.0 L61.65 17.0 M62.15 59.9 L62.25 60.35 62.15 59.95 62.15 59.9" fill="#014974" fill-rule="evenodd" stroke="none"/>
      <path d="M64.0 62.15 L64.0 62.2 64.5 62.5 65.3 63.1 66.35 63.8 69.0 64.7 Q71.45 65.7 71.45 66.15 71.45 68.6 70.05 70.55 L69.85 70.7 71.7 73.9 Q73.1 76.5 73.1 77.85 L73.05 79.0 72.5 79.35 Q70.5 80.35 68.9 81.6 L66.0 83.15 Q62.8 84.55 60.8 84.55 L58.45 84.3 56.15 83.85 54.3 83.7 51.95 83.3 Q50.6 82.95 48.95 82.0 L46.1 80.8 Q45.2 80.4 44.85 79.95 L40.4 81.55 40.05 81.45 39.95 81.2 39.55 81.5 Q38.55 82.25 37.1 82.7 35.75 83.15 34.7 83.9 L33.2 84.85 31.75 84.85 31.7 84.8 31.6 84.3 31.2 84.4 28.7 84.55 Q24.85 84.55 21.05 82.75 18.35 81.55 16.95 80.3 L12.75 77.85 12.55 78.4 12.5 79.55 12.55 80.8 12.45 80.9 12.1 81.1 11.4 79.85 10.55 78.55 10.45 78.55 Q10.6 79.6 10.0 81.15 L8.95 83.75 8.95 83.8 8.55 83.85 7.95 83.75 7.75 82.75 7.3 81.3 6.7 82.9 Q6.3 83.5 6.3 84.05 6.3 85.0 6.75 86.0 L6.7 86.3 6.15 86.4 4.7 85.7 2.8 84.5 Q2.6 84.3 2.35 83.45 L2.0 82.1 1.9 81.95 0.1 83.8 -0.75 84.6 -1.0 84.9 -1.7 85.65 -1.75 85.65 -1.85 85.7 Q-2.25 85.2 -2.25 83.85 -2.2 82.25 -2.3 81.95 -3.0 80.25 -3.0 78.25 L-2.7 76.7 -3.85 76.7 -8.25 76.15 Q-9.6 75.55 -10.15 74.4 -10.6 73.45 -10.65 71.65 L-10.6 67.9 -10.5 66.7 -10.6 65.2 -10.4 63.9 -10.1 63.05 Q-11.15 62.75 -11.55 58.8 L-11.75 54.5 -11.45 49.85 -10.65 46.85 Q-10.1 44.95 -9.2 43.4 L-9.05 43.2 -8.25 41.9 -8.1 41.75 -6.6 40.05 -5.25 38.95 -4.5 38.35 -4.35 38.25 -3.95 37.95 -2.7 37.3 -1.9 36.95 -1.75 36.8 -1.7 36.75 -1.3 36.65 -0.25 36.2 -0.1 36.2 0.3 36.05 0.5 36.0 0.5 35.95 0.6 35.3 0.6 35.1 0.85 33.95 0.9 33.9 1.45 32.3 Q1.85 31.75 1.9 30.4 L1.65 30.3 1.9 30.05 Q1.95 29.5 2.15 29.15 L2.15 28.7 2.15 28.65 2.15 27.8 2.15 27.45 2.15 26.6 2.2 26.1 3.55 22.75 3.75 22.4 4.3 21.4 Q5.0 20.45 5.75 19.8 6.5 19.3 6.95 18.4 L6.75 16.8 6.75 14.1 6.85 13.65 6.8 13.4 Q6.6 13.35 6.35 13.15 L6.05 12.9 5.3 12.3 4.2 11.9 3.85 11.85 3.1 11.55 1.55 11.1 1.3 11.0 0.85 10.7 0.8 10.7 Q0.5 10.4 0.5 9.85 0.5 9.3 1.3 8.6 L2.15 7.85 2.15 7.8 1.85 7.2 0.95 6.6 0.8 6.5 0.35 6.3 0.3 6.25 0.1 6.2 -0.4 5.95 -0.85 5.8 -1.05 5.7 -2.25 5.1 -3.75 3.95 -4.0 3.7 Q-5.7 2.3 -5.7 1.8 -5.7 1.35 -5.2 1.2 L-2.7 0.45 -5.2 -1.3 -5.95 -1.85 -6.05 -2.0 -6.95 -2.9 -7.55 -3.7 -7.75 -3.9 -8.35 -4.85 -9.25 -6.55 Q-10.05 -8.15 -10.15 -9.6 L-6.75 -9.6 -7.65 -11.95 -8.05 -14.15 -8.55 -16.05 -9.0 -18.6 Q-9.0 -19.8 -8.35 -19.8 L-8.05 -19.75 -6.65 -18.8 -6.65 -18.75 -6.5 -18.7 -6.1 -18.3 -5.55 -17.85 -4.0 -16.35 -2.7 -14.85 -2.7 -14.75 Q-1.0 -13.5 0.05 -13.2 L0.15 -13.2 0.2 -13.1 2.8 -12.25 3.0 -12.2 6.75 -10.85 6.85 -10.8 6.95 -10.8 7.1 -10.75 7.2 -10.7 9.35 -9.55 9.6 -9.35 11.6 -7.95 12.1 -7.5 14.4 -5.6 15.85 -6.8 17.1 -7.6 16.6 -8.75 16.5 -9.15 16.2 -10.65 16.15 -10.8 15.85 -11.95 15.85 -12.2 15.85 -14.75 16.25 -14.85 17.15 -14.55 18.15 -14.15 18.25 -14.05 18.4 -14.35 18.35 -14.9 18.2 -16.4 18.15 -16.5 18.15 -16.65 18.1 -17.1 17.85 -18.9 17.85 -19.35 17.85 -19.45 17.85 -20.05 17.85 -20.6 17.85 -20.9 Q17.85 -22.1 18.15 -22.65 18.75 -23.95 21.15 -20.15 L21.8 -19.65 21.85 -19.6 22.65 -18.8 24.4 -17.4 24.85 -16.9 Q27.5 -14.65 29.5 -13.65 31.05 -12.85 32.4 -10.8 L32.85 -10.05 33.7 -8.25 34.35 -6.7 34.8 -5.45 35.45 -3.5 35.5 -3.2 35.5 -3.1 35.8 -2.05 35.7 -2.05 35.75 -2.0 36.25 -0.2 36.7 2.2 36.7 2.35 36.9 2.75 36.9 2.9 36.85 3.25 36.7 3.3 36.85 3.5 37.25 5.1 37.25 5.2 37.95 8.0 38.3 11.05 38.3 11.4 38.15 11.45 38.2 11.5 38.2 11.55 Q38.75 12.0 38.95 12.7 L38.95 17.8 38.85 17.9 38.55 18.1 39.6 20.15 41.3 23.15 41.9 26.3 42.2 28.05 42.45 29.6 42.45 31.5 42.3 31.55 42.25 31.7 42.35 32.05 42.45 32.85 42.45 33.65 42.95 33.6 43.8 33.6 Q45.25 33.65 46.4 34.6 L47.5 36.0 47.55 36.0 Q48.15 37.1 48.65 37.0 L49.25 36.75 50.1 37.0 50.2 37.0 Q52.05 37.75 52.9 39.2 53.85 40.6 53.2 41.85 L56.2 43.7 56.7 44.3 56.85 45.45 56.85 45.6 56.85 46.45 56.45 47.35 54.65 48.9 54.6 49.0 54.75 49.1 56.9 50.15 58.25 50.85 58.55 51.1 61.7 55.15 62.25 56.25 Q62.85 57.05 63.1 59.5 63.3 61.05 64.0 62.15 M33.9 -1.45 L33.9 -1.4 Q34.35 -0.5 34.6 -0.5 L35.05 -0.55 35.05 -0.65 35.05 -0.9 35.05 -1.35 34.65 -2.15 34.6 -2.5 34.6 -2.55 34.55 -2.7 34.35 -3.25 33.55 -6.5 Q32.9 -8.45 31.9 -9.7 L28.95 -12.55 25.55 -15.15 Q20.9 -18.6 19.1 -21.3 L18.95 -21.3 18.9 -20.8 18.9 -20.6 18.85 -18.9 18.9 -16.1 18.9 -16.05 Q19.1 -14.8 20.0 -13.0 L19.7 -12.65 19.1 -12.55 Q18.25 -12.55 17.9 -12.9 17.45 -13.35 17.0 -13.45 L16.75 -13.35 16.7 -12.95 16.7 -12.75 Q16.7 -11.8 17.25 -10.1 L18.1 -8.15 18.45 -8.4 20.25 -10.1 20.5 -10.4 Q21.45 -11.25 22.1 -11.4 L22.2 -11.9 22.55 -12.55 Q22.7 -11.9 23.15 -11.15 24.2 -9.35 26.55 -6.95 L29.4 -5.45 29.45 -5.45 31.1 -4.4 32.0 -3.7 33.5 -2.05 33.55 -2.05 33.9 -1.45 M9.0 -8.8 L8.35 -9.15 5.35 -10.3 2.2 -11.25 0.6 -11.85 0.45 -11.85 -1.15 -12.55 Q-2.8 -13.35 -3.85 -14.55 L-5.95 -16.35 -8.05 -18.7 -8.05 -18.3 -7.55 -16.0 -7.15 -13.6 Q-7.15 -12.2 -6.1 -10.6 L-5.05 -8.95 -5.1 -8.55 -5.15 -8.4 -6.95 -8.45 -9.0 -8.75 -9.0 -8.65 -8.95 -8.55 -8.95 -8.45 -8.7 -7.85 -8.65 -7.8 -7.95 -5.9 Q-7.2 -4.25 -6.2 -3.15 L-2.8 -0.7 -1.05 0.35 -0.95 0.45 -0.8 0.5 -0.4 0.8 -0.4 1.15 -0.55 1.35 -1.75 1.45 -4.15 1.7 -4.2 1.75 -4.4 1.95 -4.5 2.0 -4.5 2.05 -3.0 3.35 Q-1.65 4.55 -0.8 4.7 0.6 5.1 1.95 6.2 3.35 7.4 4.3 7.8 L4.35 7.7 4.45 7.8 4.45 8.1 Q4.45 8.2 3.45 8.7 2.2 9.25 1.55 9.75 L1.65 9.9 1.85 9.95 4.7 11.05 Q6.2 11.7 7.15 12.55 L7.3 12.3 7.5 12.2 7.7 12.1 Q7.9 11.9 8.25 11.75 L8.3 11.7 8.35 11.7 Q9.2 11.2 10.65 10.7 L10.75 10.7 11.15 10.55 11.75 10.35 11.85 10.3 13.0 9.95 13.3 9.85 14.15 9.65 15.25 9.35 15.45 9.35 16.6 9.15 17.25 9.0 17.3 9.0 19.0 8.75 20.75 8.55 20.75 8.5 20.05 5.8 20.05 5.7 20.0 5.55 19.4 3.5 19.35 3.25 19.3 3.15 19.0 2.45 19.0 2.35 18.95 2.35 18.95 2.3 Q17.35 -1.75 14.15 -4.75 L12.4 -6.15 9.95 -7.75 9.2 -8.45 9.2 -8.5 9.0 -8.8 M20.1 -8.45 L18.75 -7.4 Q16.5 -5.85 15.1 -5.15 L15.05 -5.05 15.25 -4.95 16.6 -3.65 16.7 -3.8 16.85 -3.9 16.95 -4.0 17.05 -4.0 17.1 -4.05 17.1 -4.1 17.15 -4.1 17.25 -4.2 17.3 -4.25 20.05 -4.7 20.5 -4.65 20.75 -4.6 20.8 -4.6 21.65 -4.35 22.55 -4.0 25.25 -2.5 27.45 -0.3 29.3 1.8 Q30.7 3.45 32.0 6.15 L32.95 8.2 33.85 10.2 33.95 10.25 33.95 10.2 Q33.65 9.6 33.55 8.45 L32.95 5.0 32.15 2.05 Q31.6 0.35 30.8 -0.8 29.8 -2.35 25.5 -6.7 23.0 -9.3 22.35 -10.6 L22.3 -10.5 21.8 -9.95 20.1 -8.45 M22.3 -3.25 L22.0 -3.3 18.35 -3.2 17.15 -3.05 Q18.8 -1.05 19.75 1.7 L20.75 4.65 20.8 4.75 20.9 5.2 21.45 6.95 21.95 8.5 22.3 8.45 23.0 8.4 Q25.7 8.15 28.25 8.5 L28.5 8.5 28.9 8.55 30.15 8.8 30.55 8.85 32.4 9.55 31.6 7.7 Q29.9 4.05 29.2 3.15 L25.7 -0.65 25.6 -0.7 24.85 -1.55 23.4 -2.45 22.7 -2.95 22.3 -3.25 M34.25 0.45 L34.05 0.1 33.7 -0.4 33.65 -0.05 33.35 -0.55 32.2 -2.1 30.85 -3.2 Q30.7 -3.25 29.5 -3.85 L31.6 -1.35 32.95 1.55 33.9 4.4 34.25 5.8 34.3 5.9 34.8 9.95 34.8 10.3 34.75 10.45 36.05 10.85 36.1 10.8 36.45 10.7 37.2 10.8 36.9 8.8 36.45 5.05 36.45 4.95 36.2 4.4 36.2 4.3 35.95 3.95 35.75 3.25 35.05 1.7 34.55 0.8 34.25 0.45 M-1.75 37.8 Q-4.25 39.0 -6.05 40.85 -7.15 42.0 -8.05 43.45 -10.85 47.95 -10.85 54.55 L-10.6 57.95 -9.7 61.6 -9.7 61.65 -9.65 61.6 -9.65 61.5 -9.2 60.15 -9.1 60.0 -8.95 59.5 -8.1 57.4 Q-7.2 55.05 -5.1 52.55 L-3.85 51.15 -2.85 50.15 -2.8 50.1 -1.7 49.2 -0.85 48.5 -0.55 48.4 -0.3 48.3 -0.1 48.25 0.85 47.5 1.6 47.0 Q3.35 46.05 6.55 45.15 L8.25 44.75 9.5 44.45 9.95 44.35 10.2 44.25 12.1 43.95 Q12.1 43.8 13.6 43.95 L14.5 44.0 14.85 44.0 15.0 44.0 14.9 43.8 14.65 43.1 14.65 42.6 14.3 41.6 13.95 41.25 12.6 39.65 11.4 38.25 11.35 38.2 11.25 38.15 10.95 37.9 10.9 37.85 10.2 37.1 9.6 36.35 9.15 35.65 8.65 35.65 5.35 35.9 5.0 35.9 4.95 35.9 Q1.1 36.4 -1.75 37.8 M0.85 48.75 L0.3 49.2 0.0 49.5 0.0 49.55 -2.25 51.4 -2.3 51.4 -4.35 53.0 -4.5 53.2 -5.05 53.9 -6.0 55.45 -6.05 55.65 -7.0 57.4 -7.25 57.95 -7.35 58.1 -9.5 63.85 Q-9.7 64.65 -9.7 68.0 L-9.65 71.95 Q-9.5 73.45 -9.0 74.2 -8.5 75.05 -7.25 75.35 L-7.2 75.35 -7.15 75.45 -7.15 75.35 -4.35 75.7 -3.75 75.7 -2.55 75.55 -2.5 75.1 Q-2.1 73.25 -2.3 72.35 L-2.9 71.1 -3.0 69.7 -2.85 66.95 -2.55 65.05 -2.05 63.2 Q-1.35 61.05 0.4 58.25 L0.6 57.95 1.5 56.55 3.15 54.5 3.3 54.35 4.35 53.3 7.1 51.05 7.7 50.6 12.6 47.0 12.7 47.0 14.25 46.1 14.4 46.0 15.0 45.8 15.05 45.75 15.2 45.75 15.25 45.7 15.1 45.5 15.05 44.75 14.1 44.85 10.55 45.1 8.85 45.4 7.45 45.95 5.45 46.7 3.15 47.6 Q1.9 47.9 0.85 48.75 M-1.45 64.5 L-1.5 64.95 Q-2.05 67.1 -2.05 69.55 -2.05 70.3 -1.55 71.3 L-1.55 72.1 -1.35 72.8 -1.35 73.75 Q-1.35 74.75 -1.7 76.15 L-2.05 78.25 Q-2.05 79.45 -1.55 80.7 -1.15 81.75 -1.35 83.75 L-1.3 83.8 0.6 82.1 1.85 80.3 1.7 80.25 2.15 80.15 Q2.65 80.15 2.95 81.15 L3.15 82.7 4.1 84.0 Q4.6 84.45 5.4 84.65 L5.45 83.35 Q5.45 82.35 5.85 81.75 L6.15 80.25 6.15 80.05 Q6.2 79.25 6.75 79.0 7.3 79.3 7.65 80.0 L7.7 80.3 Q8.1 81.1 8.6 81.5 9.35 80.6 9.5 79.25 L9.6 76.95 9.6 76.85 9.7 76.75 10.15 76.7 10.6 76.85 11.0 77.4 11.6 78.2 11.85 77.45 12.55 75.6 12.75 75.2 12.95 74.7 12.95 74.65 13.1 74.3 13.15 74.1 13.2 73.95 13.3 73.6 13.3 73.55 13.6 72.95 13.6 72.9 Q14.35 70.6 14.15 69.45 L14.25 69.4 14.7 69.35 15.35 69.8 15.7 70.5 15.85 70.5 15.8 69.8 15.45 67.8 Q15.1 66.05 15.1 65.25 L15.2 63.05 Q15.45 61.85 16.25 61.15 L16.55 60.95 17.1 61.9 17.55 62.95 18.0 61.8 18.6 59.9 Q19.35 57.8 20.1 56.95 L20.25 56.8 Q20.55 56.95 20.75 57.25 L20.9 57.75 21.1 57.45 21.1 57.4 21.65 55.8 Q22.0 54.55 21.8 53.7 L21.6 53.4 21.75 53.15 22.2 53.1 22.4 53.1 22.8 53.3 22.95 53.5 23.05 53.7 23.25 54.0 23.25 53.9 23.25 53.6 23.45 53.75 23.75 53.65 23.85 53.6 23.85 53.55 23.95 53.15 23.95 53.1 23.95 52.85 23.85 52.8 23.85 52.75 23.75 52.75 23.7 52.75 23.7 52.55 22.5 51.05 21.45 50.4 21.25 50.2 21.5 50.2 21.4 50.1 18.55 47.95 17.45 47.3 17.35 47.25 16.7 46.95 16.6 46.9 16.55 46.9 16.5 46.85 16.15 46.6 15.8 46.85 Q14.5 47.2 13.95 47.5 L13.2 47.95 12.2 48.75 10.45 50.0 8.85 51.15 5.4 53.75 3.45 55.55 3.2 55.95 3.05 56.1 2.55 56.7 2.4 56.95 Q0.0 60.4 -1.05 63.35 L-1.05 63.45 -1.1 63.45 -1.1 63.55 -1.45 64.5 M40.85 35.65 L41.3 35.65 41.3 35.1 41.3 35.05 41.1 34.9 41.1 34.7 41.35 34.15 41.5 32.85 41.6 31.9 41.6 31.85 41.35 31.75 41.35 31.5 41.55 30.65 41.05 28.05 40.6 24.2 Q40.45 23.2 38.75 20.45 L38.75 22.75 38.7 24.2 38.7 24.6 38.55 24.6 38.4 24.6 38.4 24.7 38.45 25.1 38.45 25.15 38.55 26.3 38.4 28.05 38.35 29.15 38.35 29.2 38.55 29.2 38.55 30.3 38.55 30.75 Q38.55 31.85 38.75 32.15 L38.75 33.6 38.9 33.9 39.5 34.85 39.5 35.35 39.55 35.45 40.85 35.65 M48.9 37.6 Q48.35 37.45 47.6 37.6 L47.5 37.7 47.45 37.7 Q46.8 37.7 46.7 37.1 L46.4 36.2 46.15 35.7 45.65 35.35 43.7 35.25 42.3 35.2 42.25 35.65 Q43.05 35.7 43.65 36.05 L43.7 36.15 Q44.45 36.55 44.75 37.3 L45.0 39.05 45.2 39.05 45.2 39.2 Q45.9 39.4 46.45 39.75 L46.7 39.95 46.9 40.0 46.9 40.05 47.05 40.1 47.45 40.45 47.5 40.55 47.7 40.7 47.85 40.8 47.9 40.85 47.9 40.9 48.35 42.05 48.55 42.5 48.55 42.65 48.7 43.1 48.75 43.2 48.85 43.45 49.8 45.4 49.8 45.45 49.8 45.5 49.85 46.15 49.9 46.2 51.0 46.7 Q51.6 47.0 52.0 47.5 L52.35 48.15 53.8 48.65 54.2 48.15 54.4 47.95 54.6 47.75 54.75 47.65 Q55.9 46.45 55.9 45.6 L55.65 44.55 55.1 43.95 Q54.1 43.1 51.7 42.95 L51.65 42.85 51.6 42.8 51.55 42.4 52.0 41.6 52.4 40.7 Q52.4 39.75 51.85 39.3 L51.7 39.2 50.9 38.6 50.05 38.2 Q49.8 37.95 49.4 37.8 L48.9 37.6 M42.95 37.05 Q42.75 37.1 42.7 37.4 L42.5 38.95 42.35 40.5 42.35 40.75 42.45 40.85 42.7 40.9 42.95 40.9 43.45 40.75 43.7 40.1 44.15 39.45 44.1 39.05 44.0 37.95 Q43.8 37.35 43.1 37.1 L42.95 37.05 M40.9 39.2 Q40.85 38.6 40.5 38.35 L39.75 37.95 39.1 37.7 Q39.1 37.6 38.95 37.6 37.4 42.8 36.95 42.8 36.5 42.8 36.35 41.95 L36.3 40.85 36.05 39.95 35.85 38.95 35.7 36.25 Q35.5 35.3 35.15 35.3 L34.0 35.85 32.9 36.45 32.45 37.05 31.6 37.55 31.6 37.75 30.95 40.2 30.8 41.45 Q30.65 42.4 30.15 42.4 L29.65 41.75 29.1 40.8 28.25 40.0 Q27.5 39.35 27.45 39.1 26.3 39.45 25.8 40.2 L25.55 40.9 25.4 41.15 Q24.95 42.7 25.15 44.55 L25.35 48.05 Q25.8 49.45 26.75 49.95 L26.85 50.1 27.05 50.25 27.15 50.6 27.6 51.05 27.6 51.1 27.55 51.15 Q27.85 51.15 28.05 51.3 L28.95 52.15 30.45 52.8 31.1 53.0 31.6 53.55 32.4 53.95 32.4 54.0 Q32.95 54.5 33.9 54.8 35.6 55.55 38.55 55.85 L38.55 55.55 Q38.55 54.05 39.7 52.45 41.3 50.15 41.8 48.85 42.3 47.6 42.35 45.5 L42.5 42.3 41.55 43.6 40.4 45.25 Q40.0 44.85 40.0 44.2 40.0 43.6 40.45 42.1 L40.85 40.15 40.9 39.2 M51.85 52.85 L51.7 51.05 Q51.75 49.85 50.85 48.45 L49.85 47.15 49.85 47.75 49.85 49.7 49.3 51.7 48.25 53.5 Q47.5 54.65 47.3 55.3 L46.6 58.25 46.4 58.95 46.25 59.7 46.75 60.1 46.9 60.4 Q47.55 61.15 47.9 61.15 52.25 61.15 52.25 56.1 L52.1 55.15 52.05 54.75 52.05 54.55 52.0 54.1 52.0 54.0 51.85 52.85 M35.85 5.85 L35.6 5.2 35.7 5.35 35.85 5.85 M36.55 12.1 L36.5 11.95 36.45 11.85 36.2 12.2 34.45 11.4 33.6 11.05 31.0 10.25 30.1 10.0 29.9 9.95 28.6 9.7 28.4 9.7 27.15 9.55 24.25 9.35 16.65 10.1 16.6 10.2 16.4 10.2 15.95 10.3 Q13.75 10.75 11.75 11.55 L11.45 11.6 Q9.75 12.25 8.55 12.95 L7.75 13.4 7.85 13.75 7.6 13.85 7.9 15.1 7.95 16.8 7.9 18.1 8.05 18.15 Q8.4 17.95 8.95 17.85 L11.85 17.0 12.0 17.0 12.6 16.8 16.0 16.1 16.85 15.95 23.25 15.15 27.7 15.25 29.1 15.35 30.45 15.55 30.5 15.55 30.55 15.55 30.85 15.55 31.1 15.6 32.9 15.85 35.05 16.15 35.05 16.25 35.1 16.25 35.6 16.3 35.75 16.35 35.85 16.35 36.7 16.65 36.85 16.65 36.9 16.7 36.9 16.65 36.95 16.7 37.2 16.4 37.4 16.7 37.45 16.7 37.6 16.55 37.7 16.45 38.15 17.1 38.1 16.25 38.1 14.4 Q38.1 13.35 37.6 12.7 L37.45 12.55 36.6 11.95 36.65 12.2 36.55 12.1 M24.9 19.0 Q25.7 18.9 25.75 18.35 L25.7 18.3 25.15 18.1 24.3 17.75 23.35 17.2 22.65 16.95 21.85 17.15 Q21.4 17.4 21.4 18.0 L21.3 18.2 21.3 18.4 21.4 18.6 Q21.65 19.25 22.9 19.25 L24.1 19.0 24.15 19.0 24.25 19.0 24.3 19.0 24.9 19.0 M23.0 26.45 L23.05 25.95 23.05 25.9 23.1 25.85 23.1 25.7 23.15 25.45 23.25 25.15 23.7 23.95 23.8 23.75 23.65 23.75 Q23.1 23.85 21.25 24.6 L19.75 25.1 19.7 26.3 19.95 26.65 20.0 26.8 20.05 26.85 20.05 27.15 20.1 27.2 20.1 27.35 20.15 27.6 20.15 28.2 20.15 28.55 20.15 28.65 20.1 29.45 20.0 30.2 20.05 31.7 20.05 32.7 21.85 33.0 22.0 31.75 22.65 28.3 22.8 27.8 22.8 27.7 23.0 26.45 M34.35 33.05 L34.45 33.05 34.6 33.05 35.05 32.9 35.85 32.65 35.8 32.3 35.75 31.2 35.7 30.25 35.75 29.55 35.4 28.45 35.2 27.7 35.15 27.65 35.15 27.3 34.8 26.2 34.65 25.75 34.1 24.9 32.5 23.1 31.6 22.45 29.5 22.4 28.4 22.4 26.15 22.75 26.05 22.8 Q24.9 23.35 24.45 24.55 L24.2 25.4 24.2 25.45 23.95 26.8 23.85 27.15 23.85 27.2 23.8 27.4 23.8 27.7 23.45 29.35 Q23.1 30.65 22.9 32.7 L22.8 33.15 23.0 33.65 22.7 33.8 22.7 34.0 22.65 34.4 22.7 34.35 23.4 34.2 23.5 34.2 23.7 34.3 23.8 34.35 23.85 34.35 23.95 34.45 24.1 34.6 24.6 34.9 24.65 34.95 24.65 34.7 24.7 33.8 24.8 33.8 24.8 33.65 24.85 33.6 25.35 33.0 27.95 30.3 28.05 30.25 28.65 29.2 28.7 28.95 28.75 28.95 29.0 28.35 29.0 28.1 29.1 27.8 29.65 26.75 29.7 26.65 29.85 26.5 30.45 25.95 30.7 26.1 30.85 26.45 30.85 26.5 30.85 26.55 30.8 26.9 30.65 27.25 30.35 27.9 30.25 28.0 29.95 28.8 29.85 29.05 29.5 29.55 29.65 29.65 31.05 31.3 32.45 33.05 32.85 33.75 32.85 33.8 32.9 33.75 32.85 33.35 32.95 33.65 33.05 33.65 33.2 33.45 33.3 33.45 33.45 33.35 34.05 33.2 34.35 33.05 M37.7 19.35 L37.25 17.55 37.05 17.55 36.55 17.55 36.45 17.9 36.45 19.35 36.45 20.05 36.45 20.15 36.25 22.35 35.95 25.35 Q35.95 25.85 36.3 26.15 L36.25 26.9 36.5 28.0 36.65 29.35 36.65 30.0 36.65 31.0 36.65 32.55 36.95 32.55 37.6 32.7 37.7 32.85 37.65 32.5 37.6 31.0 37.7 30.25 37.45 30.2 37.4 30.15 37.4 29.35 37.45 26.15 Q37.5 25.05 37.7 24.5 L37.7 24.35 37.8 22.7 37.75 20.15 37.75 20.05 37.75 19.7 37.7 19.35 M33.15 18.3 L32.8 18.4 32.8 18.5 31.6 18.7 31.7 18.95 31.75 19.0 32.15 19.15 32.45 19.25 32.5 19.3 Q32.9 19.95 33.65 19.95 34.55 19.95 35.05 19.45 L35.45 19.05 35.5 18.75 Q35.5 18.2 35.05 17.9 L34.7 17.75 34.65 17.8 33.6 18.1 33.15 18.3 M5.05 22.25 L4.95 22.5 3.95 24.2 Q3.35 25.45 3.15 27.35 3.05 28.55 3.1 30.65 L2.8 30.65 2.8 30.75 2.25 33.65 1.7 35.6 3.35 35.3 3.8 35.2 4.45 35.1 4.55 35.05 4.45 34.9 4.45 34.8 4.3 34.2 4.3 34.15 4.25 33.8 4.25 33.65 4.25 31.8 4.1 30.65 Q4.1 30.25 4.25 30.0 4.3 28.95 5.4 26.85 L6.75 23.75 7.3 20.5 7.6 19.5 7.65 19.15 7.6 19.15 7.35 19.45 7.25 19.55 7.15 19.7 6.7 20.15 5.95 20.95 5.85 21.0 5.2 22.0 5.05 22.25 M11.0 21.1 L11.15 19.75 11.15 18.4 8.8 19.05 8.25 21.8 7.45 24.9 6.75 26.45 5.85 27.95 5.2 29.6 5.2 29.65 5.2 30.65 5.1 31.9 5.4 33.35 5.6 34.85 5.6 34.9 5.65 34.9 5.7 34.9 6.1 34.9 6.3 34.8 6.5 34.8 7.35 34.8 7.85 34.8 8.95 34.8 8.85 34.2 8.85 33.65 8.85 33.6 8.85 33.15 8.55 31.95 8.85 32.2 9.05 28.95 10.25 23.9 10.75 21.95 10.85 21.9 10.9 21.55 11.0 21.1 M15.2 17.5 L15.2 17.45 15.05 17.45 14.25 17.6 14.1 17.75 13.9 17.75 13.75 17.8 13.65 17.8 12.45 18.1 12.35 18.1 12.35 18.3 12.35 18.5 11.35 23.85 11.0 25.05 Q9.8 29.95 9.8 32.55 9.8 34.35 10.2 35.35 10.9 36.8 12.9 38.6 13.9 39.55 14.75 41.1 L14.85 41.2 14.9 41.3 15.1 41.75 15.35 42.1 15.5 42.5 16.2 43.85 Q16.65 44.35 17.3 44.35 18.55 44.35 18.85 43.0 L18.9 42.0 18.85 41.65 Q18.85 40.0 18.5 38.95 L17.55 37.15 15.95 35.05 14.35 32.55 14.35 32.5 14.3 32.45 13.95 31.85 13.85 31.55 13.7 31.35 13.7 28.9 Q13.5 28.3 13.5 25.85 13.5 24.5 13.75 23.4 L14.35 21.4 14.65 20.5 14.7 20.45 15.2 17.5 M19.95 18.0 L20.05 17.0 20.05 16.55 16.25 17.2 15.45 20.95 14.4 25.85 Q14.4 26.65 14.7 27.75 L14.65 28.05 14.75 28.85 14.7 29.65 Q14.7 30.35 15.1 30.9 L15.1 30.95 15.25 31.1 15.35 31.15 15.45 31.35 15.55 31.45 15.6 31.5 16.2 32.5 16.4 33.15 16.6 33.9 Q17.1 34.9 18.85 35.1 L19.0 30.4 19.1 26.95 18.85 26.8 18.85 25.1 18.9 23.2 19.0 21.5 19.1 21.2 19.15 20.95 Q19.65 19.85 19.95 18.0 M20.9 37.75 L21.05 37.75 20.9 37.6 20.85 37.15 20.9 36.95 Q20.9 36.2 21.05 35.95 21.15 35.45 21.6 35.05 L21.65 35.05 21.75 34.1 19.95 33.8 19.75 35.85 19.9 35.95 19.95 36.55 20.8 37.85 20.85 37.9 20.9 37.9 20.9 37.85 20.9 37.75 M20.9 44.15 Q20.8 43.7 20.85 43.05 L21.2 40.8 21.2 40.15 20.05 38.6 18.45 36.15 18.0 36.15 19.5 38.6 19.7 41.65 19.65 43.8 19.55 44.2 Q19.0 45.4 17.4 45.4 L16.25 45.25 17.25 45.8 17.35 45.95 18.35 46.5 20.3 47.85 22.3 49.6 22.5 48.45 22.8 47.1 22.7 45.95 22.7 45.85 22.9 45.25 22.8 44.95 Q21.6 44.9 21.2 44.45 L20.9 44.15 M31.25 33.65 L28.3 34.1 25.95 33.9 Q25.15 35.05 25.5 36.0 L25.4 36.0 25.35 36.55 25.3 36.6 25.3 36.75 25.2 36.95 24.95 37.05 24.65 37.95 24.55 39.7 24.6 40.55 Q24.95 39.0 25.75 37.9 27.55 35.25 31.05 36.45 L31.55 35.7 32.1 34.8 31.8 34.15 31.6 33.55 31.25 33.65 M30.8 32.55 L29.45 31.2 28.95 30.65 28.5 31.3 26.85 33.0 28.3 33.05 30.1 32.7 30.85 32.65 30.95 32.65 30.8 32.55 M37.25 33.65 L37.1 33.65 37.05 33.9 Q36.9 34.45 36.9 35.5 L36.95 36.75 Q37.05 38.15 37.6 38.15 L38.7 37.15 39.15 36.45 38.75 35.65 38.15 34.45 Q37.6 33.65 37.25 33.65 M23.05 35.65 L22.9 35.65 Q22.35 35.7 22.2 35.9 L22.1 36.35 22.1 36.65 21.95 36.55 21.85 37.15 21.85 37.3 22.5 37.3 22.6 37.3 22.9 37.35 23.1 37.35 23.4 37.3 23.45 37.2 24.3 36.95 24.25 36.55 24.15 36.05 23.95 36.05 23.8 35.7 23.75 35.65 23.7 35.65 23.05 35.65 M29.8 39.4 Q30.25 40.0 30.6 40.0 L30.85 39.85 31.0 39.65 30.8 39.3 30.65 39.1 30.2 38.5 30.15 38.45 30.55 37.35 29.55 37.2 27.8 37.6 28.3 38.15 29.1 38.7 29.8 39.4 M22.0 38.25 L21.85 41.5 Q21.85 43.95 23.45 43.95 23.7 43.2 23.65 40.45 L23.85 38.2 22.65 38.25 22.0 38.25 M23.95 44.85 L23.65 45.35 23.7 45.8 23.7 46.85 23.65 48.65 Q23.55 49.7 23.05 50.2 L22.8 50.25 23.15 51.0 26.3 54.3 26.5 52.85 26.75 51.8 26.7 51.75 26.45 51.65 26.45 51.4 26.3 51.0 Q24.6 50.35 24.15 47.9 23.95 46.9 24.1 45.7 L24.15 44.6 24.1 44.7 23.95 44.75 23.95 44.85 M36.25 66.0 L37.8 66.0 41.95 65.95 42.2 65.95 43.8 65.75 43.9 65.75 44.05 65.7 44.05 65.65 44.45 65.65 44.6 65.65 44.8 62.15 Q44.85 60.95 45.55 58.65 L46.25 56.1 45.3 56.5 45.1 56.55 44.05 56.8 43.85 56.9 43.7 56.9 43.25 57.0 42.7 57.0 42.6 57.05 42.3 57.05 42.25 57.05 42.1 57.05 41.95 57.05 41.85 57.05 41.8 57.05 41.1 57.05 39.3 57.0 35.9 56.6 Q35.45 56.5 34.35 55.8 33.05 55.1 31.6 54.45 L30.05 53.65 29.95 53.6 29.8 53.5 29.3 53.2 29.05 53.1 28.95 53.0 27.6 52.25 27.2 54.3 26.65 56.5 25.4 58.6 Q24.3 60.15 24.15 60.75 L24.15 60.8 24.6 61.45 25.55 62.4 25.6 62.5 26.45 63.05 26.9 63.35 27.8 63.8 27.9 63.85 28.7 64.2 28.75 64.25 29.1 64.5 30.25 65.3 31.2 65.65 32.5 65.95 36.25 66.0 M23.0 61.1 L23.45 60.0 24.2 58.85 25.0 57.55 26.0 55.3 25.8 55.15 24.45 53.65 24.65 55.15 24.6 55.5 24.6 55.75 24.55 55.8 24.05 55.85 23.65 55.8 23.4 55.55 23.0 54.9 21.5 59.5 21.4 60.0 21.05 60.05 20.65 60.0 Q20.35 59.9 20.35 59.6 L20.3 58.9 Q19.2 60.45 18.6 63.2 L18.4 64.45 18.35 64.55 17.85 64.65 17.35 64.5 17.0 63.85 16.35 62.7 Q16.1 63.55 16.1 65.2 L16.1 67.45 Q16.2 68.5 16.7 69.45 L16.7 70.25 16.7 71.75 16.7 73.45 16.65 73.55 Q16.6 73.7 16.35 73.7 L16.25 73.7 15.95 73.5 15.5 72.75 15.4 72.4 15.05 71.7 15.05 71.6 15.0 71.5 15.0 71.6 14.4 73.75 13.7 76.15 13.25 76.95 13.5 77.0 15.5 78.1 15.5 77.6 15.55 76.55 Q15.55 75.8 15.85 74.45 L15.9 74.0 15.95 74.0 16.7 74.1 16.85 74.1 17.35 74.3 17.75 74.35 17.8 74.35 Q18.35 74.5 18.9 74.75 19.4 75.1 19.55 75.1 L21.95 75.95 23.15 76.35 24.6 76.5 Q25.6 76.5 26.45 75.9 L27.2 75.35 27.25 75.15 27.15 75.2 27.1 75.3 25.5 75.75 25.15 75.75 Q23.25 75.75 21.95 74.5 L21.75 74.3 20.9 73.25 20.75 72.85 20.7 72.75 20.65 72.7 Q20.3 72.2 20.25 71.05 L20.25 69.45 20.25 69.2 20.3 67.45 20.35 66.85 20.35 66.8 Q20.45 66.0 20.8 65.35 L21.85 63.55 21.9 63.5 22.95 61.25 23.0 61.1 M28.2 65.2 L26.95 64.45 24.85 63.0 23.7 61.9 21.85 65.6 Q21.15 66.8 21.15 69.3 21.15 70.9 21.65 72.15 22.35 74.05 23.95 74.6 23.95 73.35 24.2 72.45 L24.25 72.3 24.85 71.75 25.9 70.9 Q26.15 70.55 27.25 70.05 L27.85 69.8 28.3 69.7 31.05 69.55 30.55 70.85 29.95 72.35 29.95 72.6 29.9 73.2 29.5 74.0 29.35 74.75 28.75 75.45 28.4 75.8 27.6 76.55 27.45 76.7 28.35 76.7 Q28.4 76.65 28.7 76.55 L28.95 76.5 31.75 75.05 Q33.15 74.05 33.65 72.1 L34.35 69.15 34.45 68.35 34.45 67.65 Q34.45 67.3 34.9 67.1 L35.1 66.95 32.0 66.85 31.3 66.8 30.85 66.7 Q30.2 66.5 29.35 65.95 L29.35 65.9 28.2 65.2 M29.7 71.1 L29.65 71.05 28.8 71.3 28.25 71.7 27.55 72.1 26.85 72.45 25.95 73.5 25.3 74.5 25.3 74.7 Q26.9 74.65 27.65 73.55 L28.2 72.75 Q28.5 72.35 28.8 72.35 L29.0 72.35 29.1 72.35 29.2 72.4 29.3 72.4 29.7 71.4 29.7 71.1 M39.45 66.95 L37.1 66.95 36.6 68.45 35.5 72.0 34.7 73.7 33.9 75.45 32.0 77.45 Q30.65 78.5 30.65 78.85 L30.7 79.15 Q30.85 79.35 31.25 79.35 L32.3 78.8 33.1 78.05 33.9 77.35 34.45 76.5 37.0 73.15 38.7 69.8 39.7 66.9 39.45 66.95 M60.9 55.75 L60.8 55.65 60.75 55.5 59.3 53.35 58.8 52.8 Q58.0 51.85 57.05 51.4 L54.35 50.0 52.65 49.0 52.7 50.5 53.0 53.7 53.15 56.0 53.1 57.7 52.4 59.7 52.05 60.3 52.1 60.35 52.65 61.2 53.95 63.7 54.0 63.8 54.1 63.9 54.9 65.0 54.95 65.1 55.0 65.2 Q56.3 66.8 58.05 67.3 L59.7 67.55 Q60.8 67.55 61.5 67.05 L62.25 66.15 62.45 65.8 62.65 64.6 62.65 64.05 62.5 61.45 62.45 61.1 62.25 60.45 62.25 60.35 62.15 59.9 61.7 57.7 61.65 57.5 60.95 55.85 60.9 55.8 60.9 55.75 M70.1 68.1 L70.3 66.75 Q70.3 66.45 68.45 65.65 L65.85 64.65 Q64.85 64.25 64.1 63.7 L63.75 63.4 63.75 63.5 63.55 63.8 63.55 64.2 63.55 64.6 63.55 64.7 63.25 66.0 63.1 66.3 62.95 66.55 62.45 67.5 Q61.5 68.6 59.9 68.6 L59.85 68.6 57.4 68.1 Q56.3 67.65 55.25 66.8 L54.55 66.05 53.55 65.05 53.4 64.8 52.45 63.5 52.45 64.1 52.75 66.45 52.9 68.25 52.75 70.6 52.75 70.65 52.9 70.65 54.0 71.1 55.45 71.75 55.85 71.95 57.55 72.3 58.3 72.4 62.1 72.7 62.55 72.7 Q65.6 72.7 67.55 71.45 L69.1 69.95 69.2 69.85 69.25 69.85 70.1 68.2 70.1 68.1 M62.55 73.7 L59.55 73.5 56.1 73.15 54.6 72.95 Q54.1 72.95 53.55 72.45 L53.0 71.95 52.65 71.3 Q51.75 75.2 48.75 77.65 47.7 78.6 45.95 79.45 L46.85 79.9 49.85 81.3 Q51.95 82.15 55.35 82.85 L60.9 83.5 Q63.25 83.5 67.75 81.15 72.1 78.85 72.1 77.85 72.1 77.35 70.7 74.5 L69.2 71.45 Q66.85 73.7 62.55 73.7 M51.55 63.95 L51.25 61.65 51.25 61.25 51.15 60.95 50.85 61.2 Q49.4 62.15 48.55 62.15 47.2 62.15 46.25 61.2 L45.95 60.95 45.7 62.65 Q45.45 65.05 45.35 69.9 L45.35 70.3 45.45 70.3 44.75 74.6 44.4 76.65 43.25 78.0 41.3 79.9 42.15 79.65 45.7 78.45 45.75 78.45 47.9 77.1 Q49.25 76.2 49.7 75.35 L51.4 71.75 Q52.0 70.1 52.0 68.25 L51.65 64.8 51.55 64.05 51.55 63.95" fill="#000000" fill-rule="evenodd" stroke="none"/>
      <path d="M3.0 -12.2 L5.65 -14.05 Q8.45 -15.55 11.25 -15.9 L18.1 -17.1 18.15 -16.65 18.15 -16.5 18.2 -16.4 18.35 -14.9 18.4 -14.35 18.25 -14.05 18.15 -14.15 17.15 -14.55 16.25 -14.85 15.85 -14.75 15.85 -12.2 15.35 -11.9 9.5 -9.6 9.35 -9.55 7.2 -10.7 7.1 -10.75 6.95 -10.8 6.85 -10.8 6.75 -10.85 3.0 -12.2 M17.85 -19.35 L15.6 -19.35 17.85 -19.45 17.85 -19.35 M22.65 -18.8 L23.0 -18.6 Q23.85 -18.95 24.2 -19.25 L29.1 -17.85 35.5 -16.0 Q39.55 -14.85 41.15 -13.0 L42.25 -11.4 43.45 -9.65 Q45.7 -7.2 47.95 -3.25 L51.5 3.1 Q53.2 6.15 55.25 14.2 57.4 23.05 57.4 28.8 L56.95 35.1 Q56.6 38.7 56.6 41.7 L56.7 44.3 56.2 43.7 53.2 41.85 Q53.85 40.6 52.9 39.2 52.05 37.75 50.2 37.0 L50.1 37.0 50.55 25.0 50.45 13.35 Q49.9 13.1 49.45 12.2 L48.25 9.2 47.0 5.45 Q46.1 3.2 45.2 1.8 L42.95 -1.05 40.35 -4.05 35.4 -7.25 33.7 -8.25 32.85 -10.05 32.4 -10.8 Q31.05 -12.85 29.5 -13.65 27.5 -14.65 24.85 -16.9 L24.4 -17.4 22.65 -18.8 M56.85 46.45 L56.85 47.3 56.9 50.15 54.75 49.1 54.65 48.9 56.45 47.35 56.85 46.45 M47.2 -8.2 L47.45 -8.4 47.6 -8.25 47.2 -8.2 M-5.95 -1.85 L-5.2 -1.3 -2.7 0.45 -5.2 1.2 Q-5.7 1.35 -5.7 1.8 -5.7 2.3 -4.0 3.7 L-3.75 3.95 -2.25 5.1 -1.05 5.7 -1.3 6.1 -2.2 8.0 Q-2.8 8.75 -3.05 9.95 L-3.3 12.1 -3.45 14.05 -3.65 16.15 -3.65 20.25 Q-3.65 22.45 -3.05 24.2 L-1.55 27.95 -1.05 29.95 -0.35 31.85 0.9 33.9 0.85 33.95 0.6 35.1 0.5 35.05 0.45 35.25 0.3 36.05 -0.1 36.2 -0.25 36.2 -1.3 36.65 -1.7 36.75 -1.75 36.8 -1.9 36.95 -2.7 37.3 -3.95 37.95 -4.0 37.9 -3.95 37.9 -3.75 37.55 -4.75 36.55 Q-5.7 35.25 -6.05 33.7 L-6.65 31.7 -7.25 29.65 -8.05 25.65 -8.85 21.7 -8.95 20.85 -9.05 16.25 -9.05 6.1 Q-9.05 5.45 -7.2 1.25 L-5.95 -1.85 M-8.1 41.75 L-8.25 41.9 -8.25 41.5 -8.1 41.75 M50.2 8.05 L50.4 8.4 50.4 8.0 50.2 7.95 50.2 8.05" fill="#026aa8" fill-rule="evenodd" stroke="none"/>
      <path d="M18.9 -20.6 L18.9 -20.8 18.95 -21.3 19.1 -21.3 Q20.9 -18.6 25.55 -15.15 L28.95 -12.55 31.9 -9.7 Q32.9 -8.45 33.55 -6.5 L34.35 -3.25 34.55 -2.7 34.6 -2.55 34.6 -2.5 34.65 -2.15 35.05 -1.35 35.05 -0.9 35.05 -0.65 35.05 -0.55 34.6 -0.5 Q34.35 -0.5 33.9 -1.4 L33.9 -1.45 33.65 -2.05 32.95 -5.15 31.7 -7.8 Q30.65 -9.35 29.0 -10.7 L25.95 -13.35 22.95 -16.1 20.65 -18.5 18.9 -20.6 M9.0 -8.8 L7.45 -9.1 7.35 -8.55 Q7.35 -8.35 7.9 -7.5 8.45 -6.65 8.95 -6.45 L10.6 -5.2 12.0 -4.1 Q14.45 -2.05 15.6 0.5 L16.5 2.8 17.25 5.1 18.2 7.35 19.0 8.75 17.3 9.0 17.3 8.8 16.4 6.9 15.2 4.55 13.35 2.0 13.25 1.75 13.3 1.7 13.35 1.65 13.35 1.45 Q13.35 1.0 10.6 -2.25 6.45 -5.8 6.1 -5.8 5.7 -5.8 5.05 -6.15 L3.4 -7.05 Q2.4 -7.65 1.6 -7.75 L0.8 -8.45 0.0 -9.65 Q1.3 -11.0 2.05 -11.25 L2.2 -11.25 5.35 -10.3 8.35 -9.15 9.0 -8.8 M0.75 -5.55 L1.2 -5.5 3.85 -4.8 5.05 -4.2 5.4 -4.3 5.4 -4.35 6.2 -3.8 5.6 -3.7 5.55 -3.1 5.55 -2.4 6.35 -1.55 7.25 -0.8 7.75 -0.5 8.35 -0.2 10.35 1.4 11.8 2.9 14.35 6.2 15.7 8.1 16.6 9.15 15.45 9.35 14.35 8.2 14.35 8.15 14.4 8.15 14.4 8.0 13.5 6.85 12.2 5.6 Q11.85 5.2 10.95 4.55 L9.6 3.45 Q8.55 2.35 5.85 1.0 3.05 -0.4 1.25 -0.55 L0.5 -1.1 Q-0.65 -2.25 -0.65 -4.0 L-0.25 -4.65 0.15 -5.15 0.15 -5.35 0.1 -5.4 0.75 -5.55 M2.8 2.9 L4.85 2.95 6.05 3.25 6.3 3.35 Q6.15 3.5 6.15 3.7 6.15 4.55 7.7 5.45 L10.6 7.2 11.3 7.4 Q11.95 7.65 12.0 7.8 L12.45 8.2 12.95 8.6 13.95 9.45 14.15 9.65 13.3 9.85 Q12.9 9.3 11.6 8.5 9.85 7.4 8.45 6.95 L6.6 6.15 4.85 5.2 3.2 4.55 2.45 3.6 2.8 2.95 2.8 2.9 M-4.5 2.05 L-4.5 2.0 -4.4 1.95 -4.5 2.05 M4.35 7.7 L4.45 7.65 4.6 7.8 4.45 7.8 4.35 7.7 M7.3 7.85 L7.2 7.7 7.45 7.85 7.3 7.85 M4.35 53.3 L4.2 52.85 3.85 51.8 3.55 49.95 3.4 49.0 Q3.35 48.35 2.95 48.15 2.6 47.95 2.35 48.25 L1.65 48.65 0.85 48.75 Q1.9 47.9 3.15 47.6 L5.45 46.7 7.45 45.95 8.85 45.4 10.55 45.1 14.1 44.85 14.1 45.1 14.1 45.8 14.25 46.1 12.7 47.0 12.75 46.9 Q12.7 46.1 12.15 45.8 L10.35 45.6 8.6 45.95 8.3 46.35 7.6 46.7 Q7.15 46.85 7.1 46.95 6.85 47.25 6.8 47.85 L6.75 48.9 6.95 50.65 7.1 51.05 4.35 53.3 M-7.0 57.4 L-7.2 58.15 -8.15 61.7 -8.45 64.5 -8.6 67.55 -8.35 69.85 -8.05 72.0 -7.9 73.05 -7.75 74.1 -7.15 75.35 -7.15 75.45 -7.2 75.35 -7.25 75.35 Q-8.5 75.05 -9.0 74.2 -9.5 73.45 -9.65 71.95 L-9.7 68.0 Q-9.7 64.65 -9.5 63.85 L-7.35 58.1 -7.2 58.05 -7.25 57.95 -7.0 57.4 M52.1 55.15 L52.25 56.1 Q52.25 61.15 47.9 61.15 47.55 61.15 46.9 60.4 L46.75 60.1 47.2 59.3 48.75 56.7 49.25 56.1 49.75 55.5 Q50.5 54.7 51.2 54.75 51.6 54.75 52.1 55.15 M8.4 9.1 L8.4 9.2 9.0 10.1 9.4 10.35 9.85 10.4 10.45 10.7 10.65 10.7 Q9.2 11.2 8.35 11.7 L7.85 11.45 Q6.7 10.75 6.7 9.7 L6.75 9.0 7.5 8.95 8.4 9.1 M22.7 45.95 L22.8 47.1 22.5 48.45 22.3 49.6 20.3 47.85 18.35 46.5 18.5 46.35 Q19.7 45.6 20.85 45.6 L22.35 45.8 22.7 45.95 M36.25 66.0 L36.45 65.05 36.9 62.9 37.45 60.55 37.7 58.4 Q37.7 57.5 37.0 57.45 L35.1 57.05 33.6 56.25 32.1 55.4 31.7 55.3 31.35 55.45 31.25 55.65 31.2 55.8 31.0 56.6 30.35 58.25 29.3 62.05 28.9 63.7 28.7 64.1 28.7 64.2 27.9 63.85 27.8 63.8 26.9 63.35 27.45 61.7 28.65 58.9 29.05 57.4 29.5 55.85 29.85 54.05 29.95 53.6 30.05 53.65 31.6 54.45 Q33.05 55.1 34.35 55.8 35.45 56.5 35.9 56.6 L39.3 57.0 39.1 57.0 Q38.95 57.3 38.95 58.25 L38.75 60.75 38.2 63.4 37.8 66.0 36.25 66.0 M25.6 62.4 L25.6 62.5 25.55 62.4 25.6 62.4 M63.55 64.6 L63.55 64.2 63.55 63.8 63.75 63.5 63.75 63.4 64.1 63.7 Q64.85 64.25 65.85 64.65 L68.45 65.65 Q70.3 66.45 70.3 66.75 L70.1 68.1 67.8 66.4 Q65.5 64.85 63.55 64.6 M67.55 71.45 Q65.6 72.7 62.55 72.7 L62.1 72.7 61.55 71.65 60.7 70.25 59.9 68.6 Q61.5 68.6 62.45 67.5 L62.5 67.55 Q62.85 67.95 64.5 68.95 L66.1 70.5 67.55 71.45 M45.1 56.55 L45.3 56.5 46.25 56.1 45.55 58.65 Q44.85 60.95 44.8 62.15 L44.6 65.65 44.45 65.65 44.05 65.65 44.05 65.7 43.9 65.75 Q44.05 64.45 44.35 63.3 L44.85 60.4 45.25 57.7 45.1 56.55" fill="#915e3c" fill-rule="evenodd" stroke="none"/>
      <path d="M18.9 -20.6 L20.65 -18.5 22.95 -16.1 25.95 -13.35 29.0 -10.7 Q30.65 -9.35 31.7 -7.8 L32.95 -5.15 33.65 -2.05 33.9 -1.45 33.55 -2.05 33.5 -2.05 32.0 -3.7 31.1 -4.4 29.8 -6.45 27.55 -8.4 24.4 -10.45 23.15 -11.15 Q22.7 -11.9 22.55 -12.55 L22.2 -11.9 21.65 -12.3 20.15 -14.15 19.35 -16.1 18.9 -16.05 18.9 -16.1 18.85 -18.9 18.9 -20.6 M20.25 -10.1 L18.45 -8.4 18.1 -8.15 17.25 -10.1 Q16.7 -11.8 16.7 -12.75 L16.7 -12.95 17.15 -12.4 18.2 -11.4 20.25 -10.1 M2.2 -11.25 L2.05 -11.25 Q1.3 -11.0 0.0 -9.65 L0.8 -8.45 1.6 -7.75 Q2.4 -7.65 3.4 -7.05 L5.05 -6.15 Q5.7 -5.8 6.1 -5.8 6.45 -5.8 10.6 -2.25 13.35 1.0 13.35 1.45 L13.35 1.65 13.3 1.7 13.25 1.75 13.0 1.8 10.85 -0.2 9.55 -1.35 8.25 -2.45 6.2 -3.8 5.4 -4.35 5.45 -4.45 5.55 -4.45 4.7 -5.25 3.15 -6.1 0.3 -6.95 -1.9 -7.1 -3.3 -7.7 -4.65 -8.45 -5.05 -8.95 -6.1 -10.6 Q-7.15 -12.2 -7.15 -13.6 L-7.55 -16.0 -8.05 -18.3 -8.05 -18.7 -5.95 -16.35 -3.85 -14.55 Q-2.8 -13.35 -1.15 -12.55 L0.45 -11.85 0.6 -11.85 2.2 -11.25 M-8.65 -7.8 L-5.25 -6.45 Q-4.55 -6.1 -3.45 -6.0 L-0.85 -5.8 0.75 -5.55 0.1 -5.4 0.15 -5.35 0.15 -5.15 -0.25 -4.65 -0.65 -4.0 Q-0.65 -2.25 0.5 -1.1 L1.25 -0.55 Q3.05 -0.4 5.85 1.0 8.55 2.35 9.6 3.45 L10.95 4.55 Q11.85 5.2 12.2 5.6 L13.5 6.85 14.4 8.0 14.4 8.15 14.35 8.15 14.35 8.2 14.35 8.35 14.3 8.35 14.1 8.4 Q9.35 5.5 8.0 4.35 L8.95 4.7 9.15 4.7 9.2 4.65 Q9.2 4.6 9.35 4.55 L9.35 4.35 Q9.35 4.15 8.4 3.5 L7.35 2.8 6.55 2.35 5.95 2.05 4.5 1.8 3.1 1.65 1.35 1.15 0.95 1.0 0.8 0.95 0.75 0.95 -0.75 0.45 -0.8 0.5 -0.95 0.45 -1.05 0.35 -2.8 -0.7 -6.2 -3.15 Q-7.2 -4.25 -7.95 -5.9 L-8.65 -7.8 M-4.4 1.95 L-3.45 2.3 -1.4 2.9 1.65 2.85 2.8 2.9 2.8 2.95 2.45 3.6 3.2 4.55 4.85 5.2 6.6 6.15 8.45 6.95 Q9.85 7.4 11.6 8.5 12.9 9.3 13.3 9.85 L13.0 9.95 11.85 10.3 11.75 10.35 10.55 9.85 9.05 9.2 9.1 9.2 9.45 9.25 9.55 9.3 10.65 9.65 11.15 9.55 11.3 9.2 9.75 8.35 9.2 8.1 7.6 7.85 7.45 7.85 7.2 7.7 7.3 7.85 4.6 7.8 4.45 7.65 4.35 7.7 4.3 7.8 Q3.35 7.4 1.95 6.2 0.6 5.1 -0.8 4.7 -1.65 4.55 -3.0 3.35 L-4.5 2.05 -4.4 1.95 M-4.35 53.0 L-2.3 51.4 -2.25 51.4 0.0 49.55 0.0 49.5 0.3 49.2 0.85 48.75 1.65 48.65 2.35 48.25 Q2.6 47.95 2.95 48.15 3.35 48.35 3.4 49.0 L3.55 49.95 3.85 51.8 4.2 52.85 4.35 53.3 3.3 54.35 3.15 54.5 1.5 56.55 0.6 57.95 0.0 56.4 -0.85 54.0 -1.1 52.9 Q-1.3 52.2 -1.7 52.15 -2.45 52.1 -2.9 52.8 -3.45 53.6 -4.15 53.6 L-4.35 53.0 M14.1 44.85 L15.05 44.75 15.1 45.5 15.2 45.75 15.05 45.75 15.0 45.8 14.4 46.0 14.25 46.1 14.1 45.8 14.1 45.1 14.1 44.85 M-6.0 55.45 Q-6.0 57.25 -5.55 58.8 L-5.05 60.7 -4.2 62.7 -3.45 63.55 -3.35 63.7 Q-4.15 64.5 -4.5 67.15 -4.85 69.2 -4.85 71.2 L-4.55 74.35 -4.35 75.7 -7.15 75.35 -7.75 74.1 -7.9 73.05 -8.05 72.0 -8.35 69.85 -8.6 67.55 -8.45 64.5 -8.15 61.7 -7.2 58.15 -7.0 57.4 -6.05 55.65 -6.0 55.45 M46.6 58.25 L48.1 55.4 Q48.3 54.9 49.65 53.7 L51.2 52.15 51.6 52.55 51.85 52.85 52.0 54.0 52.0 54.1 52.05 54.55 52.05 54.75 52.1 55.15 Q51.6 54.75 51.2 54.75 50.5 54.7 49.75 55.5 L49.25 56.1 48.75 56.7 47.2 59.3 46.75 60.1 46.25 59.7 46.4 58.95 46.6 58.25 M6.75 9.0 L6.7 9.7 Q6.7 10.75 7.85 11.45 L8.35 11.7 8.3 11.7 8.25 11.75 Q7.9 11.9 7.7 12.1 L7.5 12.2 7.3 12.3 7.15 12.55 Q6.2 11.7 4.7 11.05 L1.85 9.95 2.7 9.95 5.3 9.55 5.3 9.45 Q5.4 9.35 5.55 9.3 L6.45 9.1 6.75 9.0 M19.55 44.2 L19.95 44.15 20.9 44.15 21.2 44.45 Q21.6 44.9 22.8 44.95 L22.9 45.25 22.7 45.85 22.7 45.95 22.35 45.8 20.85 45.6 Q19.7 45.6 18.5 46.35 L18.35 46.5 17.35 45.95 17.25 45.8 16.25 45.25 17.4 45.4 Q19.0 45.4 19.55 44.2 M37.8 66.0 L38.2 63.4 38.75 60.75 38.95 58.25 Q38.95 57.3 39.1 57.0 L39.3 57.0 41.1 57.05 41.8 57.05 41.85 57.05 41.95 57.05 42.1 57.05 42.25 57.05 42.3 57.05 42.6 57.05 42.7 57.0 43.25 57.0 43.7 56.9 43.85 56.9 Q43.85 58.4 43.45 59.8 L42.5 63.4 42.2 65.05 41.95 65.95 37.8 66.0 M29.95 53.6 L29.85 54.05 29.5 55.85 29.05 57.4 28.65 58.9 27.45 61.7 26.9 63.35 26.45 63.05 25.6 62.5 25.6 62.4 26.0 61.45 26.65 59.8 27.1 58.2 27.65 56.5 28.15 54.8 Q28.5 53.9 29.0 53.15 L29.05 53.1 29.3 53.2 29.8 53.5 29.95 53.6 M28.7 64.2 L28.7 64.1 28.9 63.7 28.75 64.25 28.7 64.2 M62.1 72.7 L58.3 72.4 57.55 72.3 55.85 71.95 55.9 70.85 55.45 67.65 55.25 66.8 Q56.3 67.65 57.4 68.1 L59.85 68.6 59.9 68.6 60.7 70.25 61.55 71.65 62.1 72.7" fill="#593924" fill-rule="evenodd" stroke="none"/>
      <path d="M31.1 -4.4 L29.45 -5.45 29.4 -5.45 26.55 -6.95 Q24.2 -9.35 23.15 -11.15 L24.4 -10.45 27.55 -8.4 29.8 -6.45 31.1 -4.4 M22.2 -11.9 L22.1 -11.4 Q21.45 -11.25 20.5 -10.4 L20.25 -10.1 18.2 -11.4 17.15 -12.4 16.7 -12.95 16.75 -13.35 17.0 -13.45 Q17.45 -13.35 17.9 -12.9 18.25 -12.55 19.1 -12.55 L19.7 -12.65 20.0 -13.0 Q19.1 -14.8 18.9 -16.05 L19.35 -16.1 20.15 -14.15 21.65 -12.3 22.2 -11.9 M-5.05 -8.95 L-4.65 -8.45 -3.3 -7.7 -1.9 -7.1 0.3 -6.95 3.15 -6.1 4.7 -5.25 5.55 -4.45 5.45 -4.45 5.4 -4.35 5.4 -4.3 5.05 -4.2 3.85 -4.8 1.2 -5.5 0.75 -5.55 -0.85 -5.8 -3.45 -6.0 Q-4.55 -6.1 -5.25 -6.45 L-8.65 -7.8 -8.7 -7.85 -8.95 -8.45 -8.95 -8.55 -9.0 -8.65 -9.0 -8.75 -6.95 -8.45 -5.15 -8.4 -5.1 -8.55 -5.05 -8.95 M-0.8 0.5 L-0.75 0.45 0.75 0.95 0.8 0.95 0.95 1.0 1.35 1.15 3.1 1.65 4.5 1.8 5.95 2.05 6.55 2.35 7.35 2.8 8.4 3.5 Q9.35 4.15 9.35 4.35 L9.35 4.55 Q9.2 4.6 9.2 4.65 L9.15 4.7 8.95 4.7 8.0 4.35 7.95 4.3 7.85 4.2 7.75 4.15 7.7 4.05 6.75 3.55 6.3 3.35 6.05 3.25 4.85 2.95 2.8 2.9 1.65 2.85 -1.4 2.9 -3.45 2.3 -4.4 1.95 -4.2 1.75 -4.15 1.7 -1.75 1.45 -0.55 1.35 -0.4 1.15 -0.4 0.8 -0.8 0.5 M4.6 7.8 L7.3 7.85 7.45 7.85 7.6 7.85 9.2 8.1 9.75 8.35 11.3 9.2 11.15 9.55 10.65 9.65 9.55 9.3 9.45 9.25 9.1 9.2 9.05 9.2 8.4 9.1 7.5 8.95 6.75 9.0 6.45 9.1 5.55 9.3 Q5.4 9.35 5.3 9.45 L5.3 9.55 2.7 9.95 1.85 9.95 1.65 9.9 1.55 9.75 Q2.2 9.25 3.45 8.7 4.45 8.2 4.45 8.1 L4.45 7.8 4.6 7.8 M-4.35 53.0 L-4.15 53.6 Q-3.45 53.6 -2.9 52.8 -2.45 52.1 -1.7 52.15 -1.3 52.2 -1.1 52.9 L-0.85 54.0 0.0 56.4 0.6 57.95 0.4 58.25 Q-1.35 61.05 -2.05 63.2 L-2.55 65.05 -2.85 66.95 -3.0 69.7 -2.9 71.1 -2.3 72.35 Q-2.1 73.25 -2.5 75.1 L-2.55 75.55 -3.75 75.7 -4.35 75.7 -4.55 74.35 -4.85 71.2 Q-4.85 69.2 -4.5 67.15 -4.15 64.5 -3.35 63.7 L-3.45 63.55 -4.2 62.7 -5.05 60.7 -5.55 58.8 Q-6.0 57.25 -6.0 55.45 L-5.05 53.9 -4.5 53.2 -4.35 53.0 M-7.35 58.1 L-7.25 57.95 -7.2 58.05 -7.35 58.1 M46.6 58.25 L47.3 55.3 Q47.5 54.65 48.25 53.5 L49.3 51.7 49.85 49.7 49.85 47.75 49.85 47.15 50.85 48.45 Q51.75 49.85 51.7 51.05 L51.85 52.85 51.6 52.55 51.2 52.15 49.65 53.7 Q48.3 54.9 48.1 55.4 L46.6 58.25 M19.55 44.2 L19.65 43.8 19.7 41.65 19.5 38.6 18.0 36.15 18.45 36.15 20.05 38.6 21.2 40.15 21.2 40.8 20.85 43.05 Q20.8 43.7 20.9 44.15 L19.95 44.15 19.55 44.2 M25.55 62.4 L24.6 61.45 24.15 60.8 24.15 60.75 Q24.3 60.15 25.4 58.6 L26.65 56.5 27.2 54.3 27.6 52.25 28.95 53.0 29.05 53.1 29.0 53.15 Q28.5 53.9 28.15 54.8 L27.65 56.5 27.1 58.2 26.65 59.8 26.0 61.45 25.6 62.4 25.55 62.4 M55.85 71.95 L55.45 71.75 54.0 71.1 52.9 70.65 52.75 70.6 52.9 68.25 52.75 66.45 52.45 64.1 52.45 63.5 53.4 64.8 53.55 65.05 54.55 66.05 55.25 66.8 55.45 67.65 55.9 70.85 55.85 71.95 M43.85 56.9 L44.05 56.8 45.1 56.55 45.25 57.7 44.85 60.4 44.35 63.3 Q44.05 64.45 43.9 65.75 L43.8 65.75 42.2 65.95 41.95 65.95 42.2 65.05 42.5 63.4 43.45 59.8 Q43.85 58.4 43.85 56.9" fill="#462d1c" fill-rule="evenodd" stroke="none"/>
      <path d="M19.0 8.75 L18.2 7.35 17.25 5.1 16.5 2.8 15.6 0.5 Q14.45 -2.05 12.0 -4.1 L10.6 -5.2 8.95 -6.45 Q8.45 -6.65 7.9 -7.5 7.35 -8.35 7.35 -8.55 L7.45 -9.1 9.0 -8.8 9.2 -8.5 9.2 -8.45 9.95 -7.75 12.4 -6.15 14.15 -4.75 Q17.35 -1.75 18.95 2.3 L18.95 2.35 19.0 2.35 19.0 2.45 19.3 3.15 19.35 3.25 19.4 3.5 20.0 5.55 20.05 5.7 20.05 5.8 20.75 8.5 20.75 8.55 19.0 8.75 M13.25 1.75 L13.35 2.0 15.2 4.55 16.4 6.9 17.3 8.8 17.3 9.0 17.25 9.0 16.6 9.15 15.7 8.1 14.35 6.2 11.8 2.9 10.35 1.4 8.35 -0.2 7.75 -0.5 7.25 -0.8 6.35 -1.55 5.55 -2.4 5.55 -3.1 5.6 -3.7 6.2 -3.8 8.25 -2.45 9.55 -1.35 10.85 -0.2 13.0 1.8 13.25 1.75 M14.35 8.2 L15.45 9.35 15.25 9.35 14.15 9.65 13.95 9.45 12.95 8.6 12.45 8.2 12.0 7.8 Q11.95 7.65 11.3 7.4 L10.6 7.2 7.7 5.45 Q6.15 4.55 6.15 3.7 6.15 3.5 6.3 3.35 L6.75 3.55 7.7 4.05 7.75 4.15 7.85 4.2 7.95 4.3 8.0 4.35 Q9.35 5.5 14.1 8.4 L14.3 8.35 14.35 8.35 14.35 8.2 M9.05 9.2 L10.55 9.85 11.75 10.35 11.15 10.55 10.75 10.7 10.65 10.7 10.45 10.7 9.85 10.4 9.4 10.35 9.0 10.1 8.4 9.2 8.4 9.1 9.05 9.2 M12.7 47.0 L12.6 47.0 7.7 50.6 7.1 51.05 6.95 50.65 6.75 48.9 6.8 47.85 Q6.85 47.25 7.1 46.95 7.15 46.85 7.6 46.7 L8.3 46.35 8.6 45.95 10.35 45.6 12.15 45.8 Q12.7 46.1 12.75 46.9 L12.7 47.0 M28.9 63.7 L29.3 62.05 30.35 58.25 31.0 56.6 31.2 55.8 31.25 55.65 31.35 55.45 31.7 55.3 32.1 55.4 33.6 56.25 35.1 57.05 37.0 57.45 Q37.7 57.5 37.7 58.4 L37.45 60.55 36.9 62.9 36.45 65.05 36.25 66.0 32.5 65.95 31.2 65.65 30.25 65.3 29.1 64.5 28.75 64.25 28.9 63.7 M63.55 64.6 Q65.5 64.85 67.8 66.4 L70.1 68.1 70.1 68.2 69.25 69.85 69.2 69.85 69.1 69.95 67.55 71.45 66.1 70.5 64.5 68.95 Q62.85 67.95 62.5 67.55 L62.45 67.5 62.95 66.55 63.1 66.3 63.25 66.0 63.55 64.7 63.55 64.6" fill="#af8661" fill-rule="evenodd" stroke="none"/>
      <path d="M15.85 -12.2 L15.85 -11.95 16.15 -10.8 16.2 -10.65 16.5 -9.15 16.6 -8.75 17.1 -7.6 15.85 -6.8 14.4 -5.6 12.1 -7.5 11.6 -7.95 9.6 -9.35 9.5 -9.6 15.35 -11.9 15.85 -12.2 M35.5 -3.2 L35.45 -3.5 34.8 -5.45 34.35 -6.7 33.7 -8.25 35.4 -7.25 40.35 -4.05 42.95 -1.05 45.2 1.8 Q46.1 3.2 47.0 5.45 L48.25 9.2 49.45 12.2 Q49.9 13.1 50.45 13.35 L50.55 25.0 50.1 37.0 49.25 36.75 48.65 37.0 Q48.15 37.1 47.55 36.0 L47.5 36.0 46.4 34.6 Q45.25 33.65 43.8 33.6 L42.95 33.6 42.45 33.65 42.45 32.85 42.35 32.05 42.25 31.7 42.3 31.55 42.45 31.5 42.45 29.6 42.2 28.05 42.7 26.95 43.25 24.7 43.6 22.45 43.45 20.6 Q43.25 17.95 42.7 15.75 42.2 13.4 41.35 11.0 40.6 8.8 37.4 5.2 L37.25 5.1 36.85 3.5 36.85 3.25 36.9 2.9 36.9 2.75 36.7 2.35 36.7 2.2 36.25 -0.2 35.75 -2.0 35.8 -2.05 35.5 -3.1 35.7 -3.1 35.5 -3.2 M0.9 33.9 L-0.35 31.85 -1.05 29.95 -1.55 27.95 -3.05 24.2 Q-3.65 22.45 -3.65 20.25 L-3.65 16.15 -3.45 14.05 -3.3 12.1 -3.05 9.95 Q-2.8 8.75 -2.2 8.0 L-1.3 6.1 -1.05 5.7 -0.85 5.8 -0.4 5.95 0.1 6.2 0.3 6.25 0.35 6.3 0.8 6.5 0.95 6.6 1.85 7.2 2.15 7.8 2.15 7.85 1.3 8.6 Q0.5 9.3 0.5 9.85 0.5 10.4 0.8 10.7 L0.85 10.7 1.3 11.0 1.55 11.1 3.1 11.55 3.85 11.85 3.6 12.2 Q2.0 14.7 1.65 16.3 L1.1 19.45 0.8 21.7 0.95 22.75 1.2 24.3 1.65 25.95 2.05 26.8 1.85 28.9 1.95 29.05 2.05 29.15 2.15 29.15 Q1.95 29.5 1.9 30.05 L1.65 30.3 1.9 30.4 Q1.85 31.75 1.45 32.3 L0.9 33.9" fill="#0491c6" fill-rule="evenodd" stroke="none"/>
      <path d="M9.6 -9.35 L9.35 -9.55 9.5 -9.6 9.6 -9.35 M50.2 8.05 L50.2 7.95 50.4 8.0 50.4 8.4 50.2 8.05" fill="#057296" fill-rule="evenodd" stroke="none"/>
      <path d="M22.55 -4.0 L20.9 -6.9 20.1 -8.45 21.8 -9.95 23.45 -8.1 25.75 -5.75 Q27.15 -3.7 28.15 -2.95 L29.1 -1.7 29.95 -0.3 31.35 2.35 32.2 5.05 32.9 7.7 32.95 8.2 32.0 6.15 Q30.7 3.45 29.3 1.8 L27.45 -0.3 25.25 -2.5 22.55 -4.0 M-6.05 40.85 L-6.2 41.15 -7.35 42.95 -8.55 46.05 -9.7 49.4 Q-10.15 50.7 -10.15 52.25 -10.15 54.65 -9.4 57.7 L-8.95 59.5 -9.1 60.0 -9.2 60.15 -9.65 61.5 -9.65 61.6 -9.7 61.65 -9.7 61.6 -10.6 57.95 -10.85 54.55 Q-10.85 47.95 -8.05 43.45 -7.15 42.0 -6.05 40.85 M14.85 44.0 L14.85 43.8 14.65 43.1 14.9 43.8 15.0 44.0 14.85 44.0 M0.85 47.5 L0.95 46.1 Q1.25 44.0 1.6 43.1 L2.7 41.7 3.2 40.9 3.85 40.15 Q5.55 38.9 6.2 38.6 L7.1 38.35 6.95 38.35 8.6 38.35 9.4 38.7 10.15 39.05 11.5 39.75 12.4 40.7 13.75 42.65 14.5 44.0 13.6 43.95 Q12.1 43.8 12.1 43.95 L10.2 44.25 10.25 43.8 Q10.25 42.45 9.15 40.9 7.7 40.7 6.8 41.2 5.85 41.75 5.85 43.1 L5.95 43.5 6.15 44.35 6.55 45.15 Q3.35 46.05 1.6 47.0 L0.85 47.5 M37.45 12.55 L37.6 12.7 Q38.1 13.35 38.1 14.4 L38.1 16.25 38.15 17.1 37.7 16.45 37.6 16.55 37.6 16.45 37.6 16.0 37.45 13.75 37.45 12.55 M29.1 15.35 L27.7 15.25 27.6 13.8 27.15 10.75 27.15 9.55 28.4 9.7 28.4 10.35 Q28.4 11.55 28.75 13.45 L29.1 15.35 M16.85 15.95 L16.0 16.1 12.6 16.8 12.0 17.0 12.0 16.05 Q11.8 15.25 11.75 13.4 L11.45 11.6 11.75 11.55 Q13.75 10.75 15.95 10.3 L16.4 10.2 16.6 10.2 16.65 10.2 16.75 12.65 16.85 14.9 16.85 15.95 M58.05 67.3 L58.0 66.15 Q58.0 64.25 58.45 62.05 58.7 60.45 59.4 57.8 L59.8 56.65 Q60.2 55.95 60.75 55.75 L60.9 55.75 60.9 55.8 60.95 55.85 61.65 57.5 61.7 57.7 62.15 59.9 62.15 59.95 62.25 60.35 62.25 60.45 62.45 61.1 62.5 61.45 62.45 61.45 61.75 61.5 61.5 61.55 61.4 64.05 61.3 65.75 61.3 66.5 61.5 67.05 Q60.8 67.55 59.7 67.55 L58.05 67.3" fill="#8a5242" fill-rule="evenodd" stroke="none"/>
      <path d="M18.75 -7.4 L20.1 -8.45 20.9 -6.9 22.55 -4.0 21.65 -4.35 20.8 -4.6 20.75 -4.6 20.5 -4.65 19.6 -6.1 18.75 -7.4 M-1.75 37.8 L-1.15 37.8 -0.35 37.9 -0.65 39.1 -0.75 39.65 -1.55 40.6 Q-2.5 41.7 -2.85 42.7 L-4.55 47.25 Q-5.15 49.0 -5.15 51.25 L-5.15 52.25 -5.1 52.55 Q-7.2 55.05 -8.1 57.4 L-8.95 59.5 -9.4 57.7 Q-10.15 54.65 -10.15 52.25 -10.15 50.7 -9.7 49.4 L-8.55 46.05 -7.35 42.95 -6.2 41.15 -6.05 40.85 Q-4.25 39.0 -1.75 37.8 M-0.55 48.4 L-0.65 47.6 -0.75 46.55 -0.3 44.0 0.75 41.65 1.45 40.35 2.4 39.2 Q2.75 38.85 4.2 38.25 6.0 37.4 7.5 37.4 L9.55 37.8 Q10.9 38.2 11.75 38.95 L12.5 39.75 13.1 40.8 14.15 42.5 14.75 43.7 14.85 44.0 14.5 44.0 13.75 42.65 12.4 40.7 11.5 39.75 10.15 39.05 9.4 38.7 8.6 38.35 6.95 38.35 7.1 38.35 6.2 38.6 Q5.55 38.9 3.85 40.15 L3.2 40.9 2.7 41.7 1.6 43.1 Q1.25 44.0 0.95 46.1 L0.85 47.5 -0.1 48.25 -0.3 48.3 -0.55 48.4 M36.55 12.1 L36.65 12.2 36.6 11.95 37.45 12.55 37.45 13.75 37.6 16.0 37.6 16.45 37.6 16.55 37.45 16.7 37.4 16.7 37.2 16.4 36.95 16.7 36.9 16.65 36.9 16.1 36.85 14.95 36.6 13.25 36.55 12.1 M35.85 16.35 L35.75 16.35 35.85 16.25 35.85 16.35 M30.5 15.55 L30.45 15.55 29.1 15.35 28.75 13.45 Q28.4 11.55 28.4 10.35 L28.4 9.7 28.6 9.7 29.9 9.95 30.1 10.0 30.2 11.15 30.45 12.9 30.45 13.75 30.45 14.55 30.45 15.4 30.5 15.55 M12.0 17.0 L11.85 17.0 8.95 17.85 8.85 17.4 8.8 16.3 8.65 15.2 8.55 14.0 8.55 12.95 Q9.75 12.25 11.45 11.6 L11.75 13.4 Q11.8 15.25 12.0 16.05 L12.0 17.0 M58.8 52.8 L59.3 53.35 60.75 55.5 60.8 55.65 60.9 55.75 60.75 55.75 Q60.2 55.95 59.8 56.65 L59.4 57.8 Q58.7 60.45 58.45 62.05 58.0 64.25 58.0 66.15 L58.05 67.3 Q56.3 66.8 55.0 65.2 L55.1 65.05 54.95 65.1 54.9 65.0 54.1 63.9 54.0 63.8 53.95 63.7 53.95 63.5 53.85 62.25 Q53.85 60.45 54.3 58.8 54.7 56.95 55.7 55.45 56.9 53.5 58.0 52.95 L58.8 52.8 M45.75 78.45 L45.7 78.05 Q45.7 76.95 46.1 76.2 L47.3 74.35 48.35 72.4 49.05 70.65 49.35 68.9 49.5 66.85 Q49.9 64.5 51.55 63.95 L51.55 64.05 51.65 64.8 52.0 68.25 Q52.0 70.1 51.4 71.75 L49.7 75.35 Q49.25 76.2 47.9 77.1 L45.75 78.45" fill="#583429" fill-rule="evenodd" stroke="none"/>
      <path d="M18.75 -7.4 L19.6 -6.1 20.5 -4.65 20.05 -4.7 17.3 -4.25 17.25 -4.2 17.15 -4.1 17.1 -4.1 17.1 -4.05 17.05 -4.0 16.95 -4.0 16.85 -3.9 16.7 -3.8 16.6 -3.65 15.25 -4.95 15.1 -5.15 Q16.5 -5.85 18.75 -7.4 M-5.1 52.55 L-5.15 52.25 -5.15 51.25 Q-5.15 49.0 -4.55 47.25 L-2.85 42.7 Q-2.5 41.7 -1.55 40.6 L-0.75 39.65 -0.65 39.1 -0.35 37.9 -1.15 37.8 -1.75 37.8 Q1.1 36.4 4.95 35.9 L5.0 35.9 5.35 35.9 8.65 35.65 9.15 35.65 9.6 36.35 10.2 37.1 10.9 37.85 10.95 37.9 11.25 38.15 11.35 38.2 11.4 38.25 12.6 39.65 13.95 41.25 14.3 41.6 14.65 42.6 14.65 43.1 14.85 43.8 14.85 44.0 14.75 43.7 14.15 42.5 13.1 40.8 12.5 39.75 11.75 38.95 Q10.9 38.2 9.55 37.8 L7.5 37.4 Q6.0 37.4 4.2 38.25 2.75 38.85 2.4 39.2 L1.45 40.35 0.75 41.65 -0.3 44.0 -0.75 46.55 -0.65 47.6 -0.55 48.4 -0.85 48.5 -1.7 49.2 -2.8 50.1 -2.85 50.15 -3.85 51.15 -5.1 52.55 M30.1 10.0 L31.0 10.25 33.6 11.05 34.45 11.4 36.2 12.2 36.45 11.85 36.5 11.95 36.55 12.1 36.6 13.25 36.85 14.95 36.9 16.1 36.9 16.65 36.9 16.7 36.85 16.65 36.7 16.65 35.85 16.35 35.85 16.25 35.75 16.35 35.6 16.3 35.1 16.25 35.05 16.25 35.05 16.15 32.9 15.85 31.1 15.6 30.85 15.55 30.55 15.55 30.5 15.55 30.45 15.4 30.45 14.55 30.45 13.75 30.45 12.9 30.2 11.15 30.1 10.0 M8.95 17.85 Q8.4 17.95 8.05 18.15 L7.9 18.1 7.95 16.8 7.9 15.1 7.6 13.85 7.85 13.75 7.75 13.4 8.55 12.95 8.55 14.0 8.65 15.2 8.8 16.3 8.85 17.4 8.95 17.85 M16.6 10.2 L16.65 10.1 16.65 10.2 16.6 10.2 M23.95 44.85 L23.95 44.75 24.1 44.7 24.15 44.6 24.1 45.7 Q23.95 46.9 24.15 47.9 24.6 50.35 26.3 51.0 L26.45 51.4 26.45 51.65 26.7 51.75 26.75 51.8 26.5 52.85 26.3 54.3 23.15 51.0 22.8 50.25 23.05 50.2 Q23.55 49.7 23.65 48.65 L23.7 46.85 23.7 45.8 23.65 45.35 23.95 44.85 M58.8 52.8 L58.0 52.95 Q56.9 53.5 55.7 55.45 54.7 56.95 54.3 58.8 53.85 60.45 53.85 62.25 L53.95 63.5 53.95 63.7 52.65 61.2 52.1 60.35 52.05 60.3 52.4 59.7 53.1 57.7 53.15 56.0 53.0 53.7 52.7 50.5 52.65 49.0 54.35 50.0 57.05 51.4 Q58.0 51.85 58.8 52.8 M54.95 65.1 L55.1 65.05 55.0 65.2 54.95 65.1 M45.75 78.45 L45.7 78.45 42.15 79.65 41.3 79.9 43.25 78.0 44.4 76.65 44.75 74.6 45.45 70.3 45.35 70.3 45.35 69.9 Q45.45 65.05 45.7 62.65 L45.95 60.95 46.25 61.2 Q47.2 62.15 48.55 62.15 49.4 62.15 50.85 61.2 L51.15 60.95 51.25 61.25 51.25 61.65 51.55 63.95 Q49.9 64.5 49.5 66.85 L49.35 68.9 49.05 70.65 48.35 72.4 47.3 74.35 46.1 76.2 Q45.7 76.95 45.7 78.05 L45.75 78.45" fill="#3d241d" fill-rule="evenodd" stroke="none"/>
      <path d="M20.75 4.65 L19.75 1.7 Q18.8 -1.05 17.15 -3.05 L18.35 -3.2 22.0 -3.3 22.3 -3.25 22.2 -3.15 21.65 -2.05 20.75 0.5 20.7 2.35 20.75 4.35 20.75 4.65 M33.35 -0.55 Q33.2 -0.4 33.2 -0.05 L33.65 2.35 34.25 5.6 34.25 5.8 33.9 4.4 32.95 1.55 31.6 -1.35 29.5 -3.85 Q30.7 -3.25 30.85 -3.2 L32.2 -2.1 33.35 -0.55 M36.2 4.3 L36.05 4.35 35.95 4.35 35.95 3.95 36.2 4.3 M34.55 0.8 L34.3 0.8 34.25 0.45 34.55 0.8" fill="#221c15" fill-rule="evenodd" stroke="none"/>
      <path d="M21.8 -9.95 L22.3 -10.5 22.35 -10.6 Q23.0 -9.3 25.5 -6.7 29.8 -2.35 30.8 -0.8 31.6 0.35 32.15 2.05 L32.95 5.0 33.55 8.45 Q33.65 9.6 33.95 10.2 L33.85 10.2 32.95 8.2 32.9 7.7 32.2 5.05 31.35 2.35 29.95 -0.3 29.1 -1.7 28.15 -2.95 Q27.15 -3.7 25.75 -5.75 L23.45 -8.1 21.8 -9.95 M27.7 15.25 L23.25 15.15 16.85 15.95 16.85 14.9 16.75 12.65 16.65 10.2 16.65 10.1 24.25 9.35 27.15 9.55 27.15 10.75 27.6 13.8 27.7 15.25 M6.55 45.15 L6.15 44.35 5.95 43.5 5.85 43.1 Q5.85 41.75 6.8 41.2 7.7 40.7 9.15 40.9 10.25 42.45 10.25 43.8 L10.2 44.25 9.95 44.35 9.5 44.45 8.25 44.75 6.55 45.15 M62.5 61.45 L62.65 64.05 62.65 64.6 62.45 65.8 62.25 66.15 61.5 67.05 61.3 66.5 61.3 65.75 61.4 64.05 61.5 61.55 61.75 61.5 62.45 61.45 62.5 61.45" fill="#b98c6f" fill-rule="evenodd" stroke="none"/>
      <path d="M20.75 4.65 L20.75 4.35 20.7 2.35 20.75 0.5 21.65 -2.05 22.2 -3.15 22.3 -3.25 22.7 -2.95 23.4 -2.45 24.85 -1.55 25.6 -0.7 25.7 -0.65 29.2 3.15 Q29.9 4.05 31.6 7.7 L32.4 9.55 30.55 8.85 29.5 7.0 Q28.25 5.3 26.3 4.2 L23.8 4.45 Q22.8 4.7 22.35 5.2 21.6 6.15 21.5 6.65 L21.45 6.95 20.9 5.2 20.8 4.75 20.75 4.65 M33.35 -0.55 L33.65 -0.05 33.7 -0.4 34.05 0.1 34.25 0.45 34.3 0.8 34.55 0.8 35.05 1.7 35.75 3.25 35.95 3.95 35.95 4.35 36.05 4.35 36.2 4.3 36.2 4.4 36.45 4.95 36.45 5.05 36.9 8.8 37.2 10.8 36.45 10.7 36.1 10.8 36.05 10.85 34.75 10.45 34.8 10.3 34.8 9.95 34.3 5.9 34.25 5.8 34.25 5.6 33.65 2.35 33.2 -0.05 Q33.2 -0.4 33.35 -0.55 M35.85 5.85 L35.7 5.35 35.6 5.2 35.85 5.85" fill="#352c20" fill-rule="evenodd" stroke="none"/>
      <path d="M35.5 -3.1 L35.5 -3.2 35.7 -3.1 35.5 -3.1 M0.3 36.05 L0.45 35.25 0.6 35.3 0.5 35.95 0.5 36.0 0.3 36.05 M2.15 26.6 L2.15 27.45 2.05 26.65 2.15 26.6 M2.15 28.65 L2.15 28.7 2.15 29.15 2.05 29.15 2.15 28.65 M49.8 45.5 L50.0 45.5 50.0 45.6 49.8 45.5" fill="#068cb9" fill-rule="evenodd" stroke="none"/>
      <path d="M-1.5 64.95 L-1.45 64.5 -1.45 65.0 -1.5 64.95 M-1.05 63.45 L-1.05 63.35 -1.0 63.4 -1.05 63.45 M3.2 55.95 L3.45 55.55 5.4 53.75 8.85 51.15 10.45 50.0 12.2 48.75 13.2 47.95 13.95 47.5 Q14.5 47.2 15.8 46.85 L16.15 46.6 16.5 46.85 16.55 46.9 16.6 46.9 16.7 46.95 17.35 47.25 17.45 47.3 18.55 47.95 21.4 50.1 21.25 50.2 21.45 50.4 22.5 51.05 23.7 52.55 23.7 52.75 23.75 52.75 23.85 52.75 23.85 52.8 23.95 52.85 23.95 53.1 23.95 53.15 23.85 53.55 23.85 53.6 23.75 53.65 23.45 53.75 23.25 53.6 23.25 53.9 23.05 53.7 22.95 53.5 22.8 53.3 22.7 53.1 22.4 53.1 22.2 53.1 21.75 53.15 21.6 53.4 21.8 53.7 21.75 53.75 21.45 53.55 21.4 53.3 Q21.4 52.9 21.8 52.5 L21.8 52.45 22.9 52.4 23.0 52.45 21.5 50.65 19.55 48.8 Q19.2 48.5 18.5 48.3 L17.45 48.05 15.4 47.85 14.9 48.25 13.95 48.7 Q12.85 49.1 12.05 49.8 L10.9 50.75 8.0 52.85 5.55 54.9 Q4.75 55.75 4.45 57.0 L3.95 59.0 3.95 59.15 4.15 60.65 4.5 63.2 Q4.6 64.1 5.05 65.55 L5.95 67.8 6.7 70.05 7.9 72.4 9.5 75.0 10.55 75.85 11.85 77.45 11.6 78.2 11.0 77.4 10.6 76.85 10.15 76.7 9.7 76.75 9.6 76.85 9.6 76.95 9.5 79.25 Q9.35 80.6 8.6 81.5 8.1 81.1 7.7 80.3 L7.65 80.0 7.65 79.95 6.5 78.2 4.9 75.95 3.85 73.95 3.05 71.95 1.45 68.25 Q0.4 65.6 0.4 63.7 0.4 61.15 1.9 58.7 L2.8 57.0 3.3 55.9 3.2 55.95 M21.1 57.4 L21.1 57.45 20.9 57.75 20.75 57.25 Q20.55 56.95 20.25 56.8 L20.1 56.95 20.1 56.25 20.85 56.2 Q21.05 56.4 21.05 57.05 L21.1 57.4 M18.0 61.8 L17.55 62.95 17.1 61.9 16.55 60.95 16.25 61.15 Q16.35 60.55 16.6 60.45 16.85 60.3 17.15 60.65 17.75 61.1 18.0 61.8 M15.8 69.8 L15.85 70.5 15.7 70.5 15.35 69.8 14.7 69.35 14.25 69.4 14.1 69.35 14.1 68.65 15.05 68.8 Q15.45 69.1 15.45 69.35 L15.8 69.8 M43.65 36.05 Q43.05 35.7 42.25 35.65 L42.3 35.2 43.7 35.25 45.65 35.35 46.15 35.7 46.4 36.2 46.7 37.1 Q46.8 37.7 47.45 37.7 L47.5 37.7 47.6 37.6 Q48.35 37.45 48.9 37.6 L46.9 40.05 46.9 40.0 46.7 39.95 46.45 39.75 Q45.9 39.4 45.2 39.2 L45.2 39.05 45.0 39.05 44.75 37.3 Q44.45 36.55 43.7 36.15 L43.7 35.9 43.65 36.05 M51.7 39.2 L51.85 39.3 Q52.4 39.75 52.4 40.7 L52.0 41.6 51.55 42.4 51.6 42.8 51.65 42.85 51.7 42.95 51.65 43.05 50.4 44.85 49.8 45.45 49.8 45.4 48.85 43.45 49.4 42.5 49.45 42.4 50.25 41.2 50.25 41.15 Q51.0 40.0 51.7 39.2 M20.8 37.85 L19.95 36.55 19.9 35.95 19.75 35.85 19.95 33.8 21.75 34.1 21.65 35.05 21.6 35.05 Q21.15 35.45 21.05 35.95 20.9 36.2 20.9 36.95 L20.85 37.15 20.9 37.6 21.05 37.75 20.9 37.75 20.8 37.85 M31.25 33.65 L31.6 33.55 31.8 34.15 32.1 34.8 31.55 35.7 31.05 36.45 Q27.55 35.25 25.75 37.9 24.95 39.0 24.6 40.55 L24.55 39.7 24.65 37.95 24.95 37.05 25.2 36.95 25.3 36.75 25.3 36.6 25.35 36.55 25.4 36.0 25.5 36.0 Q25.15 35.05 25.95 33.9 L28.3 34.1 31.25 33.65 M62.55 73.7 Q66.85 73.7 69.2 71.45 L70.7 74.5 Q72.1 77.35 72.1 77.85 72.1 78.85 67.75 81.15 63.25 83.5 60.9 83.5 L55.35 82.85 Q51.95 82.15 49.85 81.3 L46.85 79.9 45.95 79.45 Q47.7 78.6 48.75 77.65 51.75 75.2 52.65 71.3 L53.0 71.95 53.55 72.45 Q54.1 72.95 54.6 72.95 L56.1 73.15 59.55 73.5 62.55 73.7" fill="#02334d" fill-rule="evenodd" stroke="none"/>
      <path d="M13.6 72.9 L13.6 72.95 13.3 73.55 13.3 73.6 13.2 73.95 13.15 74.1 13.1 74.3 12.95 74.65 12.95 74.7 12.75 75.2 12.55 75.6 11.85 77.45 10.55 75.85 9.5 75.0 7.9 72.4 6.7 70.05 5.95 67.8 5.05 65.55 Q4.6 64.1 4.5 63.2 L4.15 60.65 3.95 59.15 3.95 59.0 4.45 57.0 Q4.75 55.75 5.55 54.9 L8.0 52.85 10.9 50.75 12.05 49.8 Q12.85 49.1 13.95 48.7 L14.9 48.25 15.4 47.85 17.45 48.05 18.5 48.3 Q19.2 48.5 19.55 48.8 L21.5 50.65 23.0 52.45 22.9 52.4 21.8 52.45 21.8 52.5 20.15 51.05 Q18.0 49.1 17.4 49.1 L15.5 49.2 13.7 49.25 12.9 50.1 11.5 51.7 11.0 52.25 10.55 52.9 9.8 54.25 Q9.15 55.45 9.05 56.95 L9.0 59.55 9.05 63.0 Q9.15 64.5 10.3 66.85 L11.45 68.7 12.6 70.5 13.5 72.35 13.6 72.9 M50.9 38.6 L51.7 39.2 Q51.0 40.0 50.25 41.15 L50.25 41.2 49.45 42.4 49.4 42.5 48.7 43.1 48.55 42.65 48.55 42.5 48.35 42.05 49.05 40.95 49.85 39.7 50.9 38.6 M55.65 44.55 L55.9 45.6 Q55.9 46.45 54.75 47.65 L54.6 47.75 54.4 47.95 54.2 48.15 53.8 48.65 52.35 48.15 52.0 47.5 Q51.6 47.0 51.0 46.7 51.55 46.4 52.65 45.95 L55.15 44.9 55.65 44.55 M23.1 37.35 L23.0 36.65 23.05 35.65 23.7 35.65 23.75 35.65 23.8 35.7 23.95 36.05 24.15 36.05 24.25 36.55 24.3 36.95 23.45 37.2 23.4 37.3 23.1 37.35" fill="#023f60" fill-rule="evenodd" stroke="none"/>
      <path d="M23.25 53.9 L23.25 54.0 23.05 53.7 23.25 53.9 M22.8 53.3 L22.4 53.1 22.7 53.1 22.8 53.3 M21.8 53.7 Q22.0 54.55 21.65 55.8 L21.1 57.4 21.05 57.05 Q21.05 56.4 20.85 56.2 L20.1 56.25 20.1 56.95 Q19.35 57.8 18.6 59.9 L18.0 61.8 Q17.75 61.1 17.15 60.65 16.85 60.3 16.6 60.45 16.35 60.55 16.25 61.15 15.45 61.85 15.2 63.05 L15.1 65.25 Q15.1 66.05 15.45 67.8 L15.8 69.8 15.45 69.35 Q15.45 69.1 15.05 68.8 L14.1 68.65 14.1 69.35 14.25 69.4 14.15 69.45 Q14.35 70.6 13.6 72.9 L13.5 72.35 12.6 70.5 11.45 68.7 10.3 66.85 Q9.15 64.5 9.05 63.0 L9.0 59.55 9.05 56.95 Q9.15 55.45 9.8 54.25 L10.55 52.9 11.0 52.25 11.5 51.7 12.9 50.1 13.7 49.25 15.5 49.2 17.4 49.1 Q18.0 49.1 20.15 51.05 L21.8 52.5 Q21.4 52.9 21.4 53.3 L21.45 53.55 21.75 53.75 21.8 53.7 M46.9 40.05 L48.9 37.6 49.4 37.8 Q49.8 37.95 50.05 38.2 L50.9 38.6 49.85 39.7 49.05 40.95 48.35 42.05 47.9 40.9 47.9 40.85 47.85 40.8 47.7 40.7 47.5 40.55 47.45 40.45 47.05 40.1 46.9 40.05 M51.7 42.95 Q54.1 43.1 55.1 43.95 L55.65 44.55 55.15 44.9 52.65 45.95 Q51.55 46.4 51.0 46.7 L49.9 46.2 50.0 45.6 50.0 45.5 49.8 45.5 49.8 45.45 50.4 44.85 51.65 43.05 51.7 42.95 M48.85 43.45 L48.75 43.2 48.7 43.1 49.4 42.5 48.85 43.45 M23.1 37.35 L22.9 37.35 22.6 37.3 22.5 37.3 21.85 37.3 21.85 37.15 21.95 36.55 22.1 36.65 22.1 36.35 22.2 35.9 Q22.35 35.7 22.9 35.65 L23.05 35.65 23.0 36.65 23.1 37.35" fill="#046193" fill-rule="evenodd" stroke="none"/>
      <path d="M37.25 5.1 L37.4 5.2 37.25 5.2 37.25 5.1 M2.15 27.45 L2.15 27.8 2.15 28.65 2.05 29.15 1.95 29.05 1.85 28.9 2.05 26.8 2.05 26.65 2.15 27.45 M43.65 36.05 L43.7 35.9 43.7 36.15 43.65 36.05 M49.9 46.2 L49.85 46.15 49.8 45.5 50.0 45.6 49.9 46.2" fill="#07a3d6" fill-rule="evenodd" stroke="none"/>
      <path d="M37.4 5.2 Q40.6 8.8 41.35 11.0 42.2 13.4 42.7 15.75 43.25 17.95 43.45 20.6 L43.6 22.45 43.25 24.7 42.7 26.95 42.2 28.05 41.9 26.3 41.3 23.15 39.6 20.15 38.55 18.1 38.85 17.9 38.95 17.8 38.95 12.7 Q38.75 12.0 38.2 11.55 L38.2 11.5 38.15 11.45 38.3 11.4 38.3 11.05 37.95 8.0 37.25 5.2 37.4 5.2 M3.85 11.85 L4.2 11.9 5.3 12.3 6.05 12.9 6.35 13.15 Q6.6 13.35 6.8 13.4 L6.85 13.65 6.75 14.1 6.75 16.8 6.95 18.4 Q6.5 19.3 5.75 19.8 5.0 20.45 4.3 21.4 L3.75 22.4 3.55 22.75 2.2 26.1 2.15 26.6 2.05 26.65 2.05 26.8 1.65 25.95 1.2 24.3 0.95 22.75 0.8 21.7 1.1 19.45 1.65 16.3 Q2.0 14.7 3.6 12.2 L3.85 11.85" fill="#65d2fc" fill-rule="evenodd" stroke="none"/>
      <path d="M30.55 8.85 L30.15 8.8 28.9 8.55 28.5 8.5 28.25 8.5 Q25.7 8.15 23.0 8.4 L22.3 8.45 21.95 8.5 21.45 6.95 21.5 6.65 Q21.6 6.15 22.35 5.2 22.8 4.7 23.8 4.45 L26.3 4.2 Q28.25 5.3 29.5 7.0 L30.55 8.85" fill="#4b3f2e" fill-rule="evenodd" stroke="none"/>
      <path d="M21.3 18.4 L21.3 18.2 21.4 18.0 Q21.4 17.4 21.85 17.15 L22.65 16.95 23.35 17.2 24.3 17.75 25.15 18.1 25.7 18.3 25.75 18.35 Q25.7 18.9 24.9 19.0 L24.25 18.55 23.35 18.1 23.35 17.9 23.35 17.55 22.65 17.5 21.95 17.6 21.85 18.1 21.85 18.2 21.5 18.35 21.3 18.4 M33.15 18.3 L33.6 18.1 34.65 17.8 34.7 17.75 35.05 17.9 Q35.5 18.2 35.5 18.75 L35.45 19.05 35.4 19.1 34.95 18.95 34.45 18.75 33.65 18.9 33.6 18.9 33.6 18.7 33.6 18.35 33.15 18.3 M32.15 19.15 L31.75 19.0 31.7 18.95 31.6 18.7 32.8 18.5 Q32.55 18.6 32.55 18.95 L32.55 19.0 32.2 19.15 32.15 19.15" fill="#999999" fill-rule="evenodd" stroke="none"/>
      <path d="M21.85 18.2 L21.85 18.1 21.95 17.6 22.65 17.5 23.35 17.55 23.35 17.9 23.35 18.1 23.15 18.4 Q23.0 18.65 22.65 18.65 L22.5 18.6 22.4 18.65 22.25 18.6 22.2 18.5 21.85 18.2 M32.8 18.5 L32.8 18.4 33.15 18.3 33.6 18.35 33.6 18.7 33.6 18.9 33.5 19.25 Q33.35 19.45 33.05 19.45 32.7 19.45 32.55 19.25 L32.55 19.0 32.55 18.95 Q32.55 18.6 32.8 18.5" fill="#ffffff" fill-rule="evenodd" stroke="none"/>
      <path d="M21.3 18.4 L21.5 18.35 21.85 18.2 22.2 18.5 22.25 18.6 22.4 18.65 22.5 18.6 22.65 18.65 Q23.0 18.65 23.15 18.4 L23.35 18.1 24.25 18.55 24.9 19.0 24.3 19.0 24.25 19.0 24.15 19.0 24.1 19.0 22.9 19.25 Q21.65 19.25 21.4 18.6 L21.3 18.4 M35.45 19.05 L35.05 19.45 Q34.55 19.95 33.65 19.95 32.9 19.95 32.5 19.3 L32.45 19.25 32.15 19.15 32.2 19.15 32.55 19.0 32.55 19.25 Q32.7 19.45 33.05 19.45 33.35 19.45 33.5 19.25 L33.6 18.9 33.65 18.9 34.45 18.75 34.95 18.95 35.4 19.1 35.45 19.05" fill="#cccccc" fill-rule="evenodd" stroke="none"/>
      <path d="M39.55 35.45 L39.5 35.35 39.5 34.85 38.9 33.9 38.75 33.6 38.75 32.15 Q38.55 31.85 38.55 30.75 L38.55 30.3 38.55 29.2 38.35 29.15 38.4 28.05 38.55 26.3 38.45 25.15 38.55 25.15 Q38.55 25.45 39.1 25.55 L39.3 29.2 39.55 33.05 39.55 35.45 M35.05 32.9 L34.8 32.15 34.8 30.65 Q34.8 29.55 34.2 27.6 L33.5 26.1 32.75 24.5 Q32.5 24.0 31.75 23.65 L30.65 23.15 29.45 22.7 27.45 23.15 Q27.1 23.2 26.35 23.65 25.7 24.0 25.4 24.25 24.95 24.55 24.25 25.35 L24.2 25.4 24.45 24.55 Q24.9 23.35 26.05 22.8 L26.15 22.75 28.4 22.4 29.5 22.4 31.6 22.45 32.5 23.1 34.1 24.9 34.65 25.75 34.8 26.2 35.15 27.3 35.15 27.65 35.2 27.7 35.4 28.45 35.75 29.55 35.7 30.25 35.75 31.2 35.8 32.3 35.85 32.65 35.05 32.9 M30.25 25.85 L30.45 25.9 30.45 25.95 29.85 26.5 29.7 26.65 Q29.65 26.65 29.55 26.75 L29.65 26.75 29.1 27.8 29.0 28.1 29.0 28.35 28.75 28.85 28.75 28.95 28.7 28.95 28.65 29.2 28.05 30.25 27.95 30.3 25.35 33.0 24.85 33.6 24.8 33.65 24.8 33.8 24.7 33.8 24.65 34.7 24.6 34.9 24.1 34.6 24.3 33.65 24.95 32.45 27.05 30.0 27.95 28.8 28.6 27.6 Q28.8 26.85 29.35 26.3 L30.1 25.85 30.25 25.85 M30.35 27.9 L30.45 27.95 30.25 28.0 30.35 27.9 M32.85 33.75 L32.9 33.75 32.85 33.8 32.85 33.75 M36.45 20.05 L36.45 19.35 36.45 17.9 36.55 17.55 37.05 17.55 37.25 17.55 37.7 19.35 37.35 19.45 Q37.1 19.45 36.9 19.95 36.7 20.35 36.45 20.05 M3.35 35.3 L3.3 34.8 3.15 33.65 Q3.15 30.65 4.2 25.9 L5.05 22.25 5.2 22.0 5.85 21.0 5.95 20.95 6.7 20.15 6.7 20.4 6.7 21.2 7.15 19.7 7.25 19.55 7.35 19.45 7.6 19.15 7.65 19.15 7.6 19.5 7.3 20.5 6.75 23.75 5.4 26.85 Q4.3 28.95 4.25 30.0 4.1 30.25 4.1 30.65 L4.25 31.8 4.25 33.65 4.25 33.8 4.3 34.15 4.3 34.2 4.45 34.8 4.45 34.9 4.45 35.1 3.8 35.2 3.35 35.3 M11.0 21.1 L10.9 20.95 Q10.85 20.8 10.65 20.8 L9.7 20.85 8.25 24.4 7.2 26.5 6.55 28.0 6.6 29.8 6.6 31.7 6.75 33.35 Q6.75 34.3 6.3 34.8 L6.1 34.9 5.7 34.9 5.6 34.85 5.4 33.35 5.1 31.9 5.2 30.65 5.2 29.65 5.2 29.6 5.85 27.95 6.75 26.45 7.45 24.9 8.25 21.8 8.8 19.05 11.15 18.4 11.15 19.75 11.0 21.1 M15.05 17.45 L15.2 17.5 14.7 20.45 14.65 20.5 14.35 21.4 13.75 23.4 Q13.5 24.5 13.5 25.85 13.5 28.3 13.7 28.9 L13.7 31.35 13.85 31.55 13.95 31.85 14.3 32.45 14.35 32.5 14.35 32.55 14.25 32.55 13.75 32.05 13.35 31.1 13.3 30.3 13.25 29.5 13.2 27.65 13.25 26.25 13.25 22.95 14.05 19.75 14.05 19.65 13.85 19.55 Q13.7 19.55 13.7 19.7 L13.6 19.8 13.35 19.7 13.3 19.55 Q12.7 20.6 12.4 22.1 L11.95 24.75 11.0 27.65 Q10.6 28.85 10.6 29.95 L10.95 32.9 11.25 34.2 11.8 35.65 12.9 37.05 13.95 38.5 15.35 41.25 15.35 41.85 15.35 42.1 15.1 41.75 14.9 41.3 14.85 41.2 14.8 41.1 14.75 41.1 Q13.9 39.55 12.9 38.6 10.9 36.8 10.2 35.35 9.8 34.35 9.8 32.55 9.8 29.95 11.0 25.05 L11.35 23.85 12.35 18.5 12.35 18.3 12.45 18.1 13.65 17.8 13.75 17.8 13.85 17.8 13.9 17.75 14.1 17.75 14.25 17.6 15.05 17.45 M15.1 30.95 L15.1 30.9 Q14.7 30.35 14.7 29.65 L14.75 28.85 14.65 28.05 14.7 27.75 Q14.4 26.65 14.4 25.85 L15.45 20.95 16.25 17.2 20.05 16.55 20.05 17.0 19.95 18.0 19.7 18.0 19.2 18.5 18.8 18.9 Q18.6 18.9 18.55 18.75 L18.55 18.65 18.5 18.95 18.2 19.1 18.15 19.0 17.9 18.9 17.25 19.05 17.05 19.65 16.7 19.95 16.4 20.2 16.15 21.2 15.9 22.25 15.2 24.6 15.1 26.2 15.35 28.85 15.55 30.55 15.55 30.7 15.5 30.8 15.1 30.95 M10.35 33.15 L10.45 33.35 10.55 33.6 10.6 33.6 10.45 32.95 10.35 32.95 10.35 33.15" fill="#141414" fill-rule="evenodd" stroke="none"/>
      <path d="M38.7 24.2 L38.9 24.25 39.45 24.7 39.95 26.15 Q40.45 27.5 40.35 29.05 L40.6 31.9 40.85 34.9 40.85 35.65 39.55 35.45 39.55 33.05 39.3 29.2 39.1 25.55 Q38.55 25.45 38.55 25.15 L38.45 25.15 38.45 25.1 38.4 24.7 38.7 24.6 38.7 24.2 M34.35 33.05 L34.2 32.15 34.0 30.55 33.45 29.15 32.9 27.75 31.3 25.0 30.7 24.25 30.5 24.35 30.05 24.2 28.95 23.95 Q27.8 23.95 26.65 24.5 25.55 25.0 25.25 25.55 L24.45 26.8 23.8 27.7 23.8 27.4 23.85 27.2 23.85 27.15 23.95 26.8 24.2 25.45 24.2 25.4 24.25 25.35 Q24.95 24.55 25.4 24.25 25.7 24.0 26.35 23.65 27.1 23.2 27.45 23.15 L29.45 22.7 30.65 23.15 31.75 23.65 Q32.5 24.0 32.75 24.5 L33.5 26.1 34.2 27.6 Q34.8 29.55 34.8 30.65 L34.8 32.15 35.05 32.9 34.6 33.05 34.45 33.05 34.35 33.05 M22.7 34.0 L22.7 34.15 22.7 34.35 22.65 34.4 22.7 34.0 M23.8 34.35 L23.8 34.15 Q23.8 33.75 24.7 31.7 25.6 29.6 26.0 29.2 L26.9 28.0 28.15 26.8 Q28.35 26.6 28.65 26.55 L29.0 26.3 29.4 26.05 29.8 25.9 30.25 25.85 30.1 25.85 29.35 26.3 Q28.8 26.85 28.6 27.6 L27.95 28.8 27.05 30.0 24.95 32.45 24.3 33.65 24.1 34.6 23.95 34.45 23.85 34.35 23.8 34.35 M30.85 26.5 L30.95 26.5 30.85 26.55 30.85 26.5 M36.45 20.05 Q36.7 20.35 36.9 19.95 37.1 19.45 37.35 19.45 L37.7 19.35 37.75 19.7 37.75 20.05 37.75 20.15 37.45 20.6 37.0 21.5 36.9 23.15 36.7 26.5 36.95 28.9 37.1 31.3 37.1 32.05 36.95 32.55 36.65 32.55 36.65 31.0 36.65 30.0 36.65 29.35 36.5 28.0 36.25 26.9 36.3 26.15 Q35.95 25.85 35.95 25.35 L36.25 22.35 36.45 20.15 36.45 20.05 M3.35 35.3 L1.7 35.6 2.25 33.65 2.8 30.75 2.8 30.65 3.1 30.65 Q3.05 28.55 3.15 27.35 3.35 25.45 3.95 24.2 L4.95 22.5 5.05 22.25 4.2 25.9 Q3.15 30.65 3.15 33.65 L3.3 34.8 3.35 35.3 M6.7 20.15 L7.15 19.7 6.7 21.2 6.7 20.4 6.7 20.15 M4.45 34.9 L4.55 35.05 4.45 35.1 4.45 34.9 M6.3 34.8 Q6.75 34.3 6.75 33.35 L6.6 31.7 6.6 29.8 6.55 28.0 7.2 26.5 8.25 24.4 9.7 20.85 10.65 20.8 Q10.85 20.8 10.9 20.95 L11.0 21.1 10.9 21.55 10.85 21.9 10.75 21.95 9.85 23.1 Q8.65 24.8 8.3 26.8 L7.7 29.6 7.6 31.85 7.65 32.85 7.85 34.2 7.85 34.8 7.35 34.8 6.5 34.8 6.3 34.8 M5.6 34.85 L5.7 34.9 5.65 34.9 5.6 34.85 M15.05 17.45 L15.2 17.45 15.2 17.5 15.05 17.45 M12.35 18.3 L12.35 18.1 12.45 18.1 12.35 18.3 M13.75 17.8 L13.9 17.75 13.85 17.8 13.75 17.8 M15.1 30.95 L15.5 30.8 15.55 30.7 15.55 30.55 15.35 28.85 15.1 26.2 15.2 24.6 15.9 22.25 16.15 21.2 16.4 20.2 16.7 19.95 17.05 19.65 17.25 19.05 17.9 18.9 18.15 19.0 18.2 19.1 18.5 18.95 18.55 18.65 18.55 18.75 Q18.6 18.9 18.8 18.9 L19.2 18.5 19.7 18.0 19.95 18.0 Q19.65 19.85 19.15 20.95 L19.1 21.2 19.0 21.5 18.5 21.9 Q17.45 22.7 17.1 23.75 L16.95 24.4 16.85 25.05 16.55 25.5 16.15 26.25 16.0 27.6 15.95 28.9 15.7 31.45 15.6 31.5 15.55 31.45 15.45 31.35 15.35 31.15 15.25 31.1 15.1 30.95 M15.35 41.25 L13.95 38.5 12.9 37.05 11.8 35.65 11.25 34.2 10.95 32.9 10.6 29.95 Q10.6 28.85 11.0 27.65 L11.95 24.75 12.4 22.1 Q12.7 20.6 13.3 19.55 L13.35 19.7 13.6 19.8 13.7 19.7 Q13.7 19.55 13.85 19.55 L14.05 19.65 14.05 19.75 13.25 22.95 13.25 26.25 13.2 27.65 13.25 29.5 13.3 30.3 13.35 31.1 13.75 32.05 14.25 32.55 13.65 32.2 13.3 32.55 13.2 32.85 14.35 36.65 14.9 38.55 15.35 40.35 15.35 40.6 15.35 40.75 15.35 41.25 M10.35 33.15 L10.35 32.95 10.45 32.95 10.6 33.6 10.55 33.6 10.45 33.35 10.35 33.15 M29.0 28.35 L28.75 28.95 28.75 28.85 29.0 28.35 M22.0 38.25 L22.65 38.25 23.85 38.2 23.65 40.45 Q23.7 43.2 23.45 43.95 21.85 43.95 21.85 41.5 L22.0 38.25" fill="#1d1d1d" fill-rule="evenodd" stroke="none"/>
      <path d="M20.15 27.6 L20.1 27.35 20.1 27.2 20.05 27.15 20.05 26.85 20.0 26.8 19.95 26.65 19.7 26.3 19.75 25.1 21.25 24.6 Q23.1 23.85 23.65 23.75 L23.8 23.75 23.7 23.95 23.25 25.15 23.15 25.45 23.1 25.7 23.1 25.85 23.05 25.9 23.05 25.95 23.0 26.45 22.95 26.45 Q21.2 27.05 20.15 27.6" fill="#5b3f2d" fill-rule="evenodd" stroke="none"/>
      <path d="M42.95 37.05 L43.1 37.1 Q43.8 37.35 44.0 37.95 L44.1 39.05 44.15 39.45 43.7 40.1 43.45 40.75 42.95 40.9 42.7 40.9 42.45 40.85 42.35 40.75 42.35 40.5 42.5 38.95 42.7 37.4 Q42.75 37.1 42.95 37.05 M20.15 27.6 Q21.2 27.05 22.95 26.45 L23.0 26.45 22.8 27.7 22.8 27.8 22.65 28.3 20.1 29.45 20.15 28.65 20.15 28.55 20.15 28.2 20.15 27.6 M30.8 32.55 L30.85 32.65 30.1 32.7 28.3 33.05 26.85 33.0 28.5 31.3 28.95 30.65 29.45 31.2 30.8 32.55 M37.25 33.65 Q37.6 33.65 38.15 34.45 L38.75 35.65 39.15 36.45 38.7 37.15 37.6 38.15 Q37.05 38.15 36.95 36.75 L36.9 35.5 Q36.9 34.45 37.05 33.9 L37.1 33.65 37.25 33.65 M29.8 39.4 L29.1 38.7 28.3 38.15 27.8 37.6 29.55 37.2 30.55 37.35 30.15 38.45 30.2 38.5 30.65 39.1 30.8 39.3 31.0 39.65 30.85 39.85 30.6 40.0 Q30.25 40.0 29.8 39.4 M20.25 69.2 L20.25 69.45 20.25 71.05 Q20.3 72.2 20.65 72.7 L20.7 72.75 20.65 72.8 20.75 72.85 20.9 73.25 21.75 74.3 21.95 74.5 Q23.25 75.75 25.15 75.75 L25.5 75.75 27.1 75.3 27.15 75.2 27.25 75.15 27.2 75.35 26.45 75.9 Q25.6 76.5 24.6 76.5 L23.15 76.35 23.05 76.25 20.9 74.35 19.95 73.45 18.0 72.2 16.7 71.75 16.7 70.25 Q17.1 69.75 18.0 70.1 L18.0 70.05 18.5 70.25 19.3 70.45 20.25 69.2 M16.7 74.1 L15.95 74.0 15.9 74.0 15.85 74.45 Q15.55 75.8 15.55 76.55 L15.5 77.6 15.5 78.1 13.5 77.0 13.25 76.95 13.7 76.15 14.4 73.75 15.0 71.6 15.05 71.6 15.05 71.7 15.4 72.4 15.35 72.8 Q15.35 73.15 16.7 74.1 M16.7 69.45 Q16.2 68.5 16.1 67.45 L16.1 65.2 Q16.1 63.55 16.35 62.7 L17.0 63.85 17.35 64.5 17.1 64.7 16.85 65.2 16.85 66.0 16.75 66.8 16.7 67.55 16.7 69.45 M18.6 63.2 Q19.2 60.45 20.3 58.9 L20.35 59.6 Q20.35 59.9 20.65 60.0 L20.55 60.15 20.15 60.7 19.65 61.15 19.35 62.25 18.75 63.3 18.6 63.2 M21.5 59.5 L23.0 54.9 23.4 55.55 23.65 55.8 23.55 56.0 23.15 56.6 22.7 57.15 22.3 58.4 21.6 59.55 21.5 59.5 M29.7 71.1 L29.7 71.4 29.3 72.4 29.2 72.4 29.1 72.35 29.0 72.35 28.8 72.35 Q28.5 72.35 28.2 72.75 L27.65 73.55 Q26.9 74.65 25.3 74.7 L25.3 74.5 25.95 73.5 26.85 72.45 27.55 72.1 28.25 71.7 28.8 71.3 29.65 71.05 29.7 71.1" fill="#845c42" fill-rule="evenodd" stroke="none"/>
      <path d="M38.7 24.2 L38.75 22.75 38.75 20.45 Q40.45 23.2 40.6 24.2 L41.05 28.05 41.55 30.65 41.35 31.5 41.35 31.75 41.6 31.85 41.6 31.9 41.5 32.85 41.35 34.15 41.1 34.7 41.1 34.9 41.3 35.05 41.3 35.1 41.3 35.65 40.85 35.65 40.85 34.9 40.6 31.9 40.35 29.05 Q40.45 27.5 39.95 26.15 L39.45 24.7 38.9 24.25 38.7 24.2 M23.8 27.7 L24.45 26.8 25.25 25.55 Q25.55 25.0 26.65 24.5 27.8 23.95 28.95 23.95 L30.05 24.2 30.5 24.35 30.7 24.25 31.3 25.0 32.9 27.75 33.45 29.15 34.0 30.55 34.2 32.15 34.35 33.05 34.05 33.2 33.45 33.35 33.3 33.45 33.2 33.45 33.05 33.65 32.95 33.65 32.85 33.35 32.9 33.75 32.85 33.75 32.45 33.05 31.05 31.3 29.65 29.65 29.5 29.55 29.85 29.05 29.95 28.8 30.25 28.0 30.45 27.95 30.35 27.9 30.65 27.25 30.8 26.9 30.85 26.55 30.95 26.5 30.85 26.5 30.85 26.45 30.7 26.1 30.45 25.95 30.45 25.9 30.25 25.85 29.8 25.9 29.4 26.05 29.0 26.3 28.65 26.55 Q28.35 26.6 28.15 26.8 L26.9 28.0 26.0 29.2 Q25.6 29.6 24.7 31.7 23.8 33.75 23.8 34.15 L23.8 34.35 23.7 34.3 23.5 34.2 23.4 34.2 22.7 34.35 22.7 34.15 22.7 34.0 22.7 33.8 23.0 33.65 22.8 33.15 22.9 32.7 Q23.1 30.65 23.45 29.35 L23.8 27.7 M37.75 20.15 L37.8 22.7 37.7 24.35 37.7 24.5 Q37.5 25.05 37.45 26.15 L37.4 29.35 37.4 30.15 37.45 30.2 37.7 30.25 37.6 31.0 37.65 32.5 37.6 32.7 36.95 32.55 37.1 32.05 37.1 31.3 36.95 28.9 36.7 26.5 36.9 23.15 37.0 21.5 37.45 20.6 37.75 20.15 M7.85 34.8 L7.85 34.2 7.65 32.85 7.6 31.85 7.7 29.6 8.3 26.8 Q8.65 24.8 9.85 23.1 L10.75 21.95 10.25 23.9 9.05 28.95 8.85 32.2 8.55 31.95 8.85 33.15 8.85 33.6 8.85 33.65 8.85 34.2 8.95 34.8 7.85 34.8 M14.35 32.55 L15.95 35.05 17.55 37.15 18.5 38.95 Q18.85 40.0 18.85 41.65 L18.9 42.0 18.85 43.0 Q18.55 44.35 17.3 44.35 16.65 44.35 16.2 43.85 L15.5 42.5 15.35 42.1 15.35 41.85 15.35 41.25 15.35 40.75 15.35 40.6 15.35 40.35 14.9 38.55 14.35 36.65 13.2 32.85 13.3 32.55 13.65 32.2 14.25 32.55 14.35 32.55 M14.85 41.2 L14.75 41.1 14.8 41.1 14.85 41.2 M19.0 21.5 L18.9 23.2 18.85 25.1 18.85 26.8 19.1 26.95 19.0 30.4 18.85 35.1 Q17.1 34.9 16.6 33.9 L16.4 33.15 16.2 32.5 15.6 31.5 15.7 31.45 15.95 28.9 16.0 27.6 16.15 26.25 16.55 25.5 16.85 25.05 16.95 24.4 17.1 23.75 Q17.45 22.7 18.5 21.9 L19.0 21.5 M5.65 34.9 L5.6 34.9 5.6 34.85 5.65 34.9 M29.7 26.65 L29.65 26.75 29.55 26.75 Q29.65 26.65 29.7 26.65 M24.65 34.7 L24.65 34.95 24.6 34.9 24.65 34.7" fill="#282828" fill-rule="evenodd" stroke="none"/>
      <path d="M22.65 28.3 L22.0 31.75 21.85 33.0 20.05 32.7 20.05 31.7 20.0 30.2 20.1 29.45 22.65 28.3 M25.8 55.15 L25.15 55.95 22.0 59.7 Q20.35 61.7 19.35 63.45 L19.3 63.65 17.75 66.8 17.75 66.9 17.55 68.05 17.55 68.1 18.0 70.05 18.0 70.1 Q17.1 69.75 16.7 70.25 L16.7 69.45 16.7 67.55 16.75 66.8 16.85 66.0 16.85 65.2 17.1 64.7 17.35 64.5 17.85 64.65 18.35 64.55 18.4 64.45 18.6 63.2 18.75 63.3 19.35 62.25 19.65 61.15 20.15 60.7 20.55 60.15 20.65 60.0 21.05 60.05 21.4 60.0 21.5 59.5 21.6 59.55 22.3 58.4 22.7 57.15 23.15 56.6 23.55 56.0 23.65 55.8 24.05 55.85 24.55 55.8 24.6 55.75 24.6 55.5 24.65 55.15 24.45 53.65 25.8 55.15 M15.0 71.6 L15.0 71.5 15.05 71.6 15.0 71.6 M25.95 68.8 L26.05 68.8 25.9 68.9 25.95 68.8 M19.6 73.85 L19.65 73.85 20.35 74.1 19.6 73.85" fill="#b48365" fill-rule="evenodd" stroke="none"/>
      <path d="M0.45 35.25 L0.5 35.05 0.6 35.1 0.6 35.3 0.45 35.25" fill="#039dfa" fill-rule="evenodd" stroke="none"/>
      <path d="M-1.45 64.5 L-1.1 63.55 -1.1 63.45 -1.05 63.45 -1.0 63.4 -1.05 63.35 Q0.0 60.4 2.4 56.95 L2.55 56.7 3.05 56.1 3.2 55.95 3.3 55.9 2.8 57.0 1.9 58.7 Q0.4 61.15 0.4 63.7 0.4 65.6 1.45 68.25 L3.05 71.95 3.85 73.95 4.9 75.95 6.5 78.2 7.65 79.95 7.65 80.0 Q7.3 79.3 6.75 79.0 6.2 79.25 6.15 80.05 L6.15 80.25 5.85 81.75 Q5.45 82.35 5.45 83.35 L5.4 84.65 Q4.6 84.45 4.1 84.0 L3.15 82.7 2.95 81.15 Q2.65 80.15 2.15 80.15 L1.7 80.25 1.85 80.3 0.6 82.1 -1.3 83.8 -1.35 83.75 Q-1.15 81.75 -1.55 80.7 -2.05 79.45 -2.05 78.25 L-1.7 76.15 Q-1.35 74.75 -1.35 73.75 L-1.35 72.8 -1.55 72.1 -1.55 71.3 Q-2.05 70.3 -2.05 69.55 -2.05 67.1 -1.5 64.95 L-1.45 65.0 -1.45 64.5" fill="#01293f" fill-rule="evenodd" stroke="none"/>
      <path d="M40.9 39.2 L40.85 40.15 40.45 42.1 Q40.0 43.6 40.0 44.2 40.0 44.85 40.4 45.25 L41.55 43.6 42.5 42.3 42.35 45.5 Q42.3 47.6 41.8 48.85 41.3 50.15 39.7 52.45 38.55 54.05 38.55 55.55 L38.55 55.85 Q35.6 55.55 33.9 54.8 32.95 54.5 32.4 54.0 L32.4 53.95 31.6 53.55 31.1 53.0 30.45 52.8 28.95 52.15 28.05 51.3 Q27.85 51.15 27.55 51.15 L27.6 51.1 27.6 51.05 27.15 50.6 27.05 50.25 26.85 50.1 26.75 49.95 Q25.8 49.45 25.35 48.05 L25.15 44.55 Q24.95 42.7 25.4 41.15 L25.55 40.9 25.8 40.2 Q26.3 39.45 27.45 39.1 27.5 39.35 28.25 40.0 L29.1 40.8 29.65 41.75 30.15 42.4 Q30.65 42.4 30.8 41.45 L30.95 40.2 31.6 37.75 31.6 37.55 32.45 37.05 32.9 36.45 34.0 35.85 35.15 35.3 Q35.5 35.3 35.7 36.25 L35.85 38.95 36.05 39.95 36.3 40.85 36.35 41.95 Q36.5 42.8 36.95 42.8 37.4 42.8 38.95 37.6 39.1 37.6 39.1 37.7 L39.75 37.95 40.5 38.35 Q40.85 38.6 40.9 39.2 M25.8 55.15 L26.0 55.3 25.0 57.55 24.2 58.85 23.45 60.0 23.0 61.1 21.85 62.7 20.65 64.1 19.15 65.55 19.15 64.85 19.4 63.7 19.4 63.4 19.35 63.45 Q20.35 61.7 22.0 59.7 L25.15 55.95 25.8 55.15 M20.7 72.75 L20.75 72.85 20.65 72.8 20.7 72.75 M28.2 65.2 L29.35 65.9 29.35 65.95 Q30.2 66.5 30.85 66.7 L31.3 66.8 32.0 66.85 35.1 66.95 34.9 67.1 Q34.45 67.3 34.45 67.65 L34.45 68.35 34.35 69.15 33.65 72.1 Q33.15 74.05 31.75 75.05 L28.95 76.5 28.7 76.55 Q28.4 76.65 28.35 76.7 L27.45 76.7 27.6 76.55 28.4 75.8 28.75 75.45 29.35 74.75 29.5 74.0 29.9 73.2 29.95 72.6 29.95 72.35 30.55 70.85 31.05 69.55 28.3 69.7 27.85 69.8 27.25 70.05 Q26.15 70.55 25.9 70.9 L24.85 71.75 24.25 72.3 24.2 72.45 Q23.95 73.35 23.95 74.6 22.35 74.05 21.65 72.15 21.15 70.9 21.15 69.3 21.15 66.8 21.85 65.6 L23.7 61.9 24.85 63.0 26.95 64.45 28.2 65.2 M25.95 68.8 L25.9 68.9 26.05 68.8 25.95 68.8" fill="#cdac98" fill-rule="evenodd" stroke="none"/>
      <path d="M19.35 63.45 L19.4 63.4 19.4 63.7 19.15 64.85 19.15 65.55 20.65 64.1 21.85 62.7 23.0 61.1 22.95 61.25 21.9 63.5 21.85 63.55 20.8 65.35 Q20.45 66.0 20.35 66.8 L20.35 66.85 20.3 67.45 20.25 69.2 19.3 70.45 18.5 70.25 18.0 70.05 17.55 68.1 17.55 68.05 17.75 66.9 17.75 66.8 19.3 63.65 19.35 63.45 M23.15 76.35 L21.95 75.95 19.55 75.1 Q19.4 75.1 18.9 74.75 18.35 74.5 17.8 74.35 L17.75 74.35 17.35 74.3 16.85 74.1 16.7 74.1 Q15.35 73.15 15.35 72.8 L15.4 72.4 15.5 72.75 15.95 73.5 16.25 73.7 16.35 73.7 Q16.6 73.7 16.65 73.55 L16.7 73.45 16.7 71.75 18.0 72.2 19.95 73.45 20.9 74.35 23.05 76.25 23.15 76.35 M39.45 66.95 L39.7 66.9 38.7 69.8 37.0 73.15 34.45 76.5 33.9 77.35 33.1 78.05 32.3 78.8 31.25 79.35 Q30.85 79.35 30.7 79.15 L30.65 78.85 Q30.65 78.5 32.0 77.45 L33.9 75.45 34.7 73.7 35.5 72.0 36.6 68.45 37.1 66.95 39.45 66.95 M19.6 73.85 L20.35 74.1 19.65 73.85 19.6 73.85" fill="#b7886b" fill-rule="evenodd" stroke="none"/>
      <path d="M-4.35 38.25 L-4.5 38.35 -4.5 38.3 -4.35 38.25" fill="#0281cc" fill-rule="evenodd" stroke="none"/>
    </g>
    <g id="shape2" transform="matrix(1.0, 0.0, 0.0, 1.0, 1.65, 14.45)">
      <path d="M-1.45 -8.8 L-1.1 -9.0 Q4.8 -11.85 11.9 -12.35 26.35 -13.45 37.35 -4.0 42.5 0.4 45.45 5.95 L46.4 7.85 46.9 10.85 47.4 12.45 47.35 12.7 46.95 11.35 47.0 11.65 47.0 13.05 47.0 13.6 47.0 14.3 Q46.75 28.35 36.75 38.35 26.55 48.6 12.0 48.6 5.6 48.6 0.0 46.6 L0.0 45.75 Q5.6 47.8 12.05 47.8 26.25 47.8 36.25 37.8 46.25 27.75 46.25 13.6 L45.95 8.7 Q42.95 1.8 36.85 -3.45 26.05 -12.7 11.95 -11.6 4.65 -11.05 -1.4 -7.9 L-1.45 -8.8" fill="#8e6c24" fill-rule="evenodd" stroke="none"/>
      <path d="M-1.45 -8.8 L-1.65 -10.95 Q4.45 -13.8 11.75 -14.35 27.0 -15.5 38.65 -5.5 44.75 -0.25 47.95 6.45 L48.75 9.25 48.8 9.75 49.0 12.5 48.9 15.8 48.75 18.6 48.75 18.8 48.6 19.55 48.55 19.8 Q46.75 31.15 38.15 39.75 27.35 50.6 12.0 50.6 5.6 50.6 0.0 48.7 L0.0 46.6 Q5.6 48.6 12.0 48.6 26.55 48.6 36.75 38.35 46.75 28.35 47.0 14.3 L47.0 13.6 47.0 13.05 47.0 11.65 46.95 11.35 47.35 12.7 47.4 12.45 46.9 10.85 46.4 7.85 45.45 5.95 Q42.5 0.4 37.35 -4.0 26.35 -13.45 11.9 -12.35 4.8 -11.85 -1.1 -9.0 L-1.45 -8.8" fill="#473612" fill-rule="evenodd" stroke="none"/>
    </g>
  </defs>
</svg>
