<?xml version="1.0" encoding="UTF-8" standalone="no"?>
<svg xmlns:ffdec="https://www.free-decompiler.com/flash" xmlns:xlink="http://www.w3.org/1999/xlink" ffdec:objectType="frame" height="116.7px" width="93.7px" xmlns="http://www.w3.org/2000/svg">
  <g transform="matrix(1.0, 0.0, 0.0, 1.0, 20.6, 26.6)">
    <clipPath id="clipPath0">
      <path d="M 14.02 -12.46 L 13.33 -12.45 L 12.63 -12.43 L 11.94 -12.4 L 11.26 -12.35 L 10.57 -12.29 L 9.9 -12.21 L 9.23 -12.12 L 8.56 -12.02 L 7.9 -11.9 L 7.24 -11.77 L 6.59 -11.63 L 5.94 -11.47 L 5.3 -11.3 L 4.66 -11.12 L 4.03 -10.92 L 3.4 -10.71 L 2.78 -10.48 L 2.16 -10.24 L 1.55 -9.99 L 0.94 -9.72 L 0.33 -9.44 L -0.27 -9.15 L -0.86 -8.84 L -1.45 -8.52 L -2.04 -8.18 L -2.62 -7.83 L -3.19 -7.47 L -3.76 -7.09 L -4.33 -6.7 L -4.89 -6.3 L -5.45 -5.88 L -6 -5.45 L -6.68 -4.89 L -7.33 -4.32 L -7.97 -3.73 L -8.58 -3.14 L -9.17 -2.54 L -9.75 -1.92 L -10.3 -1.3 L -10.82 -0.66 L -11.33 -0.02 L -11.82 0.64 L -12.29 1.31 L -12.73 1.98 L -13.16 2.67 L -13.56 3.37 L -13.94 4.08 L -14.3 4.8 L -11.2 8.45 L -11.6 9.23 L -11.97 10.02 L -12.32 10.81 L -12.65 11.62 L -12.96 12.43 L -13.24 13.25 L -13.51 14.09 L -13.75 14.93 L -13.97 15.77 L -14.17 16.63 L -14.35 17.49 L -14.5 18.37 L -14.63 19.25 L -14.74 20.14 L -14.83 21.04 L -14.9 21.95 L -14.9 22.2 L -15.2 22.4 L -15 23.15 L -15 23.7 L -15 24.4 L -14.99 25.16 L -14.95 25.91 L -14.91 26.65 L -14.84 27.38 L -14.76 28.11 L -14.67 28.84 L -14.55 29.55 L -14.42 30.26 L -14.28 30.97 L -14.11 31.66 L -13.93 32.35 L -13.74 33.03 L -13.52 33.71 L -13.3 34.38 L -13.05 35.04 L -12.79 35.7 L -12.51 36.35 L -12.21 36.99 L -11.9 37.63 L -11.57 38.26 L -11.23 38.88 L -10.87 39.5 L -10.49 40.11 L -10.1 40.71 L -9.69 41.31 L -9.26 41.9 L -8.82 42.48 L -8.36 43.06 L -7.88 43.63 L -7.39 44.19 L -6.88 44.75 L -6.35 45.3 L -2.4 48.7 L 2.25 48.35 L 2.99 48.47 L 3.7 48.62 L 4.04 48.71 L 4.38 48.8 L 4.71 48.91 L 5.04 49.03 L 5.36 49.15 L 5.67 49.28 L 5.97 49.42 L 6.27 49.57 L 6.56 49.73 L 6.85 49.89 L 7.13 50.07 L 7.4 50.25 L 10.3 47.55 L 12.3 48 L 20.1 48.85 L 20.7 49.55 L 24.48 47.92 L 27.41 46.61 L 28.56 46.09 L 29.5 45.64 L 30.23 45.28 L 30.75 45 L 31.22 44.71 L 31.73 44.36 L 32.27 43.95 L 32.85 43.48 L 33.47 42.95 L 34.13 42.35 L 34.83 41.69 L 35.56 40.97 L 36.33 40.19 L 37.14 39.35 L 37.99 38.45 L 38.88 37.48 L 39.8 36.45 L 40.76 35.36 L 41.76 34.21 L 42.8 33 L 43.27 32.43 L 43.74 31.82 L 44.2 31.17 L 44.65 30.49 L 45.1 29.76 L 45.54 29 L 45.97 28.19 L 46.4 27.35 L 47.15 25.75 L 47.45 23.95 L 47.55 23.17 L 47.64 22.39 L 47.71 21.61 L 47.77 20.85 L 47.8 20.09 L 47.82 19.33 L 47.83 18.58 L 47.81 17.84 L 47.78 17.1 L 47.74 16.37 L 47.67 15.64 L 47.59 14.92 L 47.49 14.21 L 47.38 13.5 L 47.25 12.8 L 47.1 12.1 L 48.35 11.05 L 48.08 10.36 L 47.79 9.67 L 47.49 8.99 L 47.17 8.31 L 46.83 7.64 L 46.47 6.97 L 46.1 6.31 L 45.71 5.65 L 45.31 5 L 44.89 4.35 L 44.45 3.7 L 43.99 3.06 L 43.52 2.43 L 43.03 1.8 L 42.52 1.17 L 42 0.55 L 41.41 -0.13 L 40.81 -0.79 L 40.21 -1.44 L 39.59 -2.06 L 38.96 -2.67 L 38.33 -3.26 L 37.68 -3.83 L 37.03 -4.38 L 36.37 -4.92 L 35.7 -5.43 L 35.02 -5.93 L 34.33 -6.41 L 33.63 -6.87 L 32.92 -7.31 L 32.2 -7.73 L 31.48 -8.14 L 30.74 -8.52 L 29.99 -8.89 L 29.24 -9.24 L 28.48 -9.57 L 27.7 -9.88 L 26.92 -10.18 L 26.13 -10.45 L 25.33 -10.71 L 24.52 -10.95 L 23.7 -11.17 L 22.88 -11.37 L 22.04 -11.55 L 21.19 -11.72 L 20.34 -11.86 L 19.47 -11.99 L 18.6 -12.1 L 16.8 -12.35 L 16.1 -12.4 L 15.06 -12.44 L 14.02 -12.46 Z"/>
    </clipPath>
    <g clip-path="url(#clipPath0)">
      <use ffdec:characterId="1063" height="88.35" transform="matrix(1.0, 0.0, 0.0, 1.0, -17.05, -13.5)" width="78.55" xlink:href="#shape0"/>
    </g>
    <use ffdec:characterId="1060" height="65.05" transform="matrix(1.0, 0.0, 0.0, 1.0, -1.65, -14.45)" width="50.65" xlink:href="#shape1"/>
  </g>
  <defs>
    <g id="shape0" transform="matrix(1.0, 0.0, 0.0, 1.0, 17.05, 13.5)">
      <path d="M6.35 -7.7 Q6.4 -10.35 5.1 -11.05 3.85 -11.65 2.0 -10.6 0.2 -9.55 -1.1 -7.55 -2.6 -5.3 -2.65 -2.9 L-2.7 -1.85 -2.55 -0.25 Q-1.8 1.65 1.2 1.8 1.8 1.8 2.4 0.85 L2.9 -0.25 3.8 -1.5 4.7 -2.8 6.2 -5.55 6.35 -7.7 M7.9 -1.45 L7.8 -0.25 7.8 -0.05 7.75 1.1 7.75 2.2 8.2 3.35 8.3 3.7 Q7.55 3.85 6.55 4.6 L5.85 5.1 4.4 6.5 Q3.4 7.5 3.3 8.2 L2.5 11.5 2.45 14.05 2.4 15.8 2.5 17.0 Q2.65 17.6 3.55 19.0 L3.45 19.15 3.4 19.35 3.0 20.7 2.15 21.95 0.85 23.75 0.95 23.9 1.4 24.4 Q0.8 25.4 0.95 25.55 L1.25 25.75 1.4 26.2 1.15 27.25 0.9 28.4 0.9 28.85 1.05 29.05 0.85 32.85 0.8 33.7 0.8 33.9 0.8 34.1 0.75 34.0 Q0.25 33.7 -2.1 35.2 L-5.05 37.4 -7.2 39.65 Q-7.85 40.5 -7.9 41.8 L-7.75 43.05 -7.7 43.5 -7.85 43.4 -7.3 44.15 -5.95 45.35 -5.05 46.2 -3.9 47.2 -1.4 48.55 -1.7 49.05 -1.7 49.85 -1.5 51.6 Q-1.3 52.3 -0.35 53.65 L0.7 54.65 1.45 55.45 2.15 56.65 2.3 56.9 2.2 57.15 Q1.6 55.8 1.15 55.8 L0.45 55.85 0.1 55.8 -0.45 55.6 -0.75 55.6 Q-1.75 55.8 -1.85 56.25 L-1.9 57.0 Q-1.95 58.4 -1.45 60.05 L-0.2 63.2 1.4 67.05 Q2.5 69.75 2.9 69.75 L3.35 69.65 3.45 69.55 3.55 68.7 3.75 69.25 Q3.85 69.6 4.4 69.6 L4.7 69.55 4.95 69.6 5.25 69.8 5.35 69.6 8.0 69.65 9.65 69.6 11.1 70.5 11.3 70.55 13.35 71.15 14.4 71.3 Q14.15 71.65 12.15 72.1 L5.6 72.65 Q-1.5 72.45 -6.25 67.0 -8.45 64.5 -9.8 61.2 L-12.15 55.0 Q-13.45 51.4 -13.85 48.7 -14.55 44.55 -15.4 40.45 L-16.45 35.2 Q-17.25 30.75 -16.95 24.0 L-16.7 18.75 -16.0 15.3 -12.55 4.35 -11.15 -0.5 -9.65 -5.35 Q-9.05 -6.9 -6.35 -10.3 -5.25 -11.6 -3.55 -12.15 L3.95 -13.5 28.15 -11.75 45.45 -9.75 48.7 -8.05 51.15 -5.95 54.8 -1.25 56.95 2.1 57.55 3.3 Q59.7 7.6 60.7 12.4 61.65 16.95 61.5 21.45 61.4 25.25 60.75 28.1 60.1 31.05 60.05 34.3 59.95 37.95 60.5 41.3 61.05 44.65 60.85 49.85 L60.5 55.95 Q60.05 58.15 58.2 63.4 57.65 64.95 56.3 66.65 L54.95 68.05 53.25 69.7 Q49.7 73.0 47.2 74.1 45.25 74.95 42.35 74.85 L39.95 74.5 Q37.35 74.1 36.1 73.55 L35.0 73.05 34.0 72.5 Q31.35 71.8 30.4 71.3 29.2 70.7 29.25 70.0 L29.25 69.75 29.6 69.8 30.1 69.9 30.85 69.9 30.9 69.9 31.15 69.9 Q32.85 69.95 34.0 69.35 L34.05 69.3 35.15 69.6 36.3 70.0 37.75 70.7 38.35 71.1 38.5 71.35 38.75 71.3 38.8 70.85 38.6 68.95 38.5 68.85 40.95 67.45 42.95 65.7 42.85 65.85 40.95 67.7 Q39.65 68.95 39.65 69.65 L39.75 69.8 40.2 70.25 Q44.65 66.2 44.65 65.25 44.85 64.9 44.65 64.65 44.55 64.15 43.8 64.15 L43.25 64.2 42.8 64.25 42.7 63.5 42.5 62.65 42.7 61.95 42.75 61.35 Q42.3 61.3 41.85 61.6 L41.5 61.75 41.15 63.3 Q40.6 64.6 39.7 64.6 L39.3 64.4 39.3 64.35 40.05 63.2 Q40.45 62.4 40.45 61.7 L40.45 61.25 40.75 61.1 41.0 60.75 Q41.0 60.3 41.5 59.8 L42.35 58.9 43.05 57.8 43.7 56.85 45.0 54.45 45.1 52.7 45.05 50.25 Q44.9 48.95 44.15 48.7 L46.1 47.15 Q49.85 43.5 49.95 42.7 L49.95 42.65 49.85 42.55 49.8 42.45 49.75 42.45 48.65 41.1 47.8 40.4 46.9 39.75 44.95 38.6 43.55 38.2 42.45 37.95 42.4 37.9 42.5 37.85 43.1 37.15 43.15 36.8 43.1 36.3 Q43.2 36.15 43.4 36.1 L43.4 36.3 Q43.6 36.05 43.9 36.0 L43.8 35.9 43.9 35.8 43.9 35.75 43.95 35.75 44.1 35.45 44.05 35.25 44.05 35.2 43.95 35.2 42.4 28.8 40.75 23.2 40.15 21.65 40.75 21.05 41.1 20.25 Q42.3 20.2 42.8 19.3 L43.15 17.85 Q43.15 17.0 42.65 16.35 42.15 15.85 41.4 15.8 40.6 15.7 40.1 16.25 L39.95 16.5 39.7 16.1 39.85 15.3 40.05 12.7 40.05 12.6 Q42.3 12.55 43.25 11.2 43.75 10.45 43.8 9.45 L43.7 8.15 43.5 6.65 Q43.5 5.75 43.1 5.15 42.7 4.3 41.85 4.1 L38.5 4.0 38.0 4.3 37.95 4.2 Q37.75 3.3 36.45 1.15 34.55 -1.1 33.0 -1.85 L33.0 -3.8 32.2 -5.65 32.15 -5.8 31.65 -6.5 31.45 -6.75 30.15 -8.25 29.0 -9.55 28.9 -9.85 28.2 -10.6 27.7 -10.95 24.5 -11.2 21.9 -11.25 16.35 -10.7 Q12.85 -10.25 12.8 -9.55 L12.7 -9.45 11.5 -8.65 Q10.0 -7.25 9.1 -5.3 8.2 -3.45 7.9 -1.45 M38.2 -7.7 Q37.05 -7.2 36.8 -6.25 L36.75 -4.7 36.75 -2.9 Q36.8 -1.65 37.3 -0.75 38.7 1.65 43.55 1.8 45.7 1.9 47.15 -0.15 48.25 -1.75 48.25 -2.95 48.35 -4.45 47.45 -6.25 46.3 -8.65 44.4 -8.95 L41.0 -8.7 Q39.65 -8.4 38.2 -7.7 M51.05 42.65 L51.0 42.55 50.9 42.45 50.85 42.55 51.05 42.65 M7.1 10.55 L7.1 10.65 7.0 11.05 Q6.95 10.8 7.05 10.65 L7.1 10.55 M5.15 64.45 Q5.25 64.35 5.6 64.15 L5.65 64.4 5.4 65.35 5.15 64.45" fill="#7d06bd" fill-rule="evenodd" stroke="none"/>
      <path d="M6.35 -7.7 L6.2 -5.55 4.7 -2.8 3.8 -1.5 2.9 -0.25 2.4 0.85 Q1.8 1.8 1.2 1.8 -1.8 1.65 -2.55 -0.25 L-2.7 -1.85 -2.65 -2.9 Q-2.6 -5.3 -1.1 -7.55 0.2 -9.55 2.0 -10.6 3.85 -11.65 5.1 -11.05 6.4 -10.35 6.35 -7.7 M39.3 64.35 L39.3 64.4 39.7 64.6 Q40.6 64.6 41.15 63.3 L41.5 61.75 41.85 61.6 Q42.3 61.3 42.75 61.35 L42.7 61.95 42.5 62.65 42.7 63.5 42.8 64.25 43.25 64.2 43.8 64.15 Q44.55 64.15 44.65 64.65 44.85 64.9 44.65 65.25 44.65 66.2 40.2 70.25 L39.75 69.8 39.65 69.65 Q39.65 68.95 40.95 67.7 L42.85 65.85 42.95 65.7 40.95 67.45 38.5 68.85 38.3 67.3 38.05 65.4 37.9 64.85 38.25 64.35 38.65 64.5 39.3 64.35 M34.05 69.3 L34.0 69.35 Q32.85 69.95 31.15 69.9 L31.15 69.8 32.9 69.35 33.1 69.2 34.05 69.3 M4.7 69.55 L4.4 69.6 Q3.85 69.6 3.75 69.25 L3.55 68.7 3.45 69.55 3.35 69.65 2.9 69.75 Q2.5 69.75 1.4 67.05 L-0.2 63.2 -1.45 60.05 Q-1.95 58.4 -1.9 57.0 L-1.85 56.25 Q-1.75 55.8 -0.75 55.6 L-0.45 55.6 0.1 55.8 0.45 55.85 1.15 55.8 Q1.6 55.8 2.2 57.15 L2.2 57.2 2.2 57.3 1.75 57.15 1.75 57.4 2.15 58.2 2.65 59.05 2.95 60.0 3.15 60.9 3.6 61.75 4.0 62.65 4.4 63.75 4.9 64.45 5.15 64.45 5.4 65.35 5.35 66.15 5.15 67.5 4.9 68.95 4.35 68.95 4.15 69.1 4.15 69.25 4.2 69.5 4.3 69.55 4.7 69.55 M38.2 -7.7 Q39.65 -8.4 41.0 -8.7 L44.4 -8.95 Q46.3 -8.65 47.45 -6.25 48.35 -4.45 48.25 -2.95 48.25 -1.75 47.15 -0.15 45.7 1.9 43.55 1.8 38.7 1.65 37.3 -0.75 36.8 -1.65 36.75 -2.9 L36.75 -4.7 36.8 -6.25 Q37.05 -7.2 38.2 -7.7" fill="#6b05a3" fill-rule="evenodd" stroke="none"/>
      <path d="M7.9 -1.45 Q8.2 -3.45 9.1 -5.3 10.0 -7.25 11.5 -8.65 L12.7 -9.45 12.8 -9.55 Q12.85 -10.25 16.35 -10.7 L21.9 -11.25 24.5 -11.2 27.7 -10.95 28.2 -10.6 28.9 -9.85 28.75 -9.85 Q26.4 -10.2 25.55 -8.4 25.25 -7.65 25.2 -5.65 25.15 -4.25 25.85 -3.15 26.7 -1.75 28.35 -1.65 30.8 -1.6 31.7 -3.45 32.2 -4.45 32.2 -5.5 L32.2 -5.65 33.0 -3.8 33.0 -1.85 33.0 -1.15 32.85 0.1 32.5 1.65 32.5 1.7 31.9 2.2 31.8 2.3 32.15 3.0 33.1 4.15 33.95 5.55 34.7 6.85 35.3 8.1 35.7 8.65 36.1 9.6 36.5 10.85 36.5 10.9 36.7 11.6 36.75 11.65 36.7 11.7 36.8 11.9 37.85 14.0 38.2 14.6 38.65 15.55 39.3 16.9 39.35 16.95 39.4 16.8 39.65 16.25 39.7 16.15 39.7 16.1 39.95 16.5 39.85 16.65 39.7 17.05 39.65 17.05 39.65 17.1 39.55 17.4 39.55 17.45 40.65 20.2 40.9 20.25 41.1 20.25 40.75 21.05 40.15 21.65 39.65 20.25 39.65 20.2 38.45 17.4 38.35 17.05 38.35 16.95 37.85 15.95 37.6 15.55 36.75 13.95 35.75 11.85 35.65 11.7 35.65 11.6 35.45 10.9 35.4 10.85 35.4 10.8 34.95 9.55 34.7 8.6 34.25 8.1 33.6 6.85 32.85 5.5 32.05 4.15 31.1 2.95 30.9 2.8 30.45 2.4 28.35 0.7 26.9 -0.3 Q25.0 -1.6 23.2 -1.8 L21.05 -1.65 Q17.75 -1.5 16.45 -0.9 15.4 -0.2 14.35 0.15 13.45 0.45 12.5 1.3 L11.15 2.6 11.15 2.4 Q11.25 0.6 10.4 -0.6 9.6 -1.55 8.4 -1.55 L8.0 -1.55 7.9 -1.45 M38.0 4.3 L38.5 4.0 41.85 4.1 Q42.7 4.3 43.1 5.15 43.5 5.75 43.5 6.65 L43.7 8.15 43.8 9.45 Q43.75 10.45 43.25 11.2 42.3 12.55 40.05 12.6 L39.3 12.6 Q37.2 12.55 36.55 10.8 L36.55 10.75 36.4 10.15 Q36.2 9.45 36.25 8.6 L36.3 7.9 36.55 6.65 37.05 5.2 38.0 4.3 M1.05 29.05 L0.9 28.85 0.9 28.4 1.15 27.25 1.4 26.2 1.25 25.75 0.95 25.55 Q0.8 25.4 1.4 24.4 L0.95 23.9 0.85 23.75 2.15 21.95 3.0 20.7 2.55 22.0 Q1.6 25.0 1.2 27.55 L1.1 28.7 1.05 29.05 M3.55 19.0 Q2.65 17.6 2.5 17.0 L2.4 15.8 2.45 14.05 2.5 11.5 3.3 8.2 Q3.4 7.5 4.4 6.5 L5.85 5.1 6.75 5.45 9.1 4.9 8.8 5.55 8.8 5.6 8.25 6.95 Q7.7 8.2 7.7 8.4 L7.7 8.55 7.5 8.8 7.5 8.95 7.15 10.4 7.1 10.5 7.1 10.55 7.05 10.65 Q6.95 10.8 7.0 11.05 L6.95 11.2 6.85 11.7 6.75 12.1 6.75 12.2 6.55 12.7 6.25 13.4 5.95 14.05 5.25 15.45 4.5 16.7 4.0 17.8 3.9 18.05 3.55 19.0 M14.45 -4.7 Q13.7 -4.2 13.7 -3.65 L13.7 -3.2 Q13.75 -2.75 13.95 -2.35 14.35 -1.0 15.65 -1.0 18.15 -0.9 18.2 -3.85 18.35 -4.95 17.6 -5.3 L16.1 -5.4 Q15.1 -5.2 14.45 -4.7" fill="#9607e2" fill-rule="evenodd" stroke="none"/>
      <path d="M5.85 5.1 L6.55 4.6 Q7.55 3.85 8.3 3.7 L8.2 3.35 7.75 2.2 7.75 1.1 7.8 -0.05 7.8 -0.25 7.9 -1.45 8.0 -1.55 8.4 -1.55 Q9.6 -1.55 10.4 -0.6 11.25 0.6 11.15 2.4 L11.15 2.6 11.05 2.75 Q9.8 3.7 9.15 4.8 L9.15 4.85 9.1 4.85 9.1 4.9 6.75 5.45 5.85 5.1 M28.9 -9.85 L29.0 -9.55 30.15 -8.25 31.45 -6.75 31.65 -6.5 32.15 -5.8 32.2 -5.65 32.2 -5.5 Q32.2 -4.45 31.7 -3.45 30.8 -1.6 28.35 -1.65 26.7 -1.75 25.85 -3.15 25.15 -4.25 25.2 -5.65 25.25 -7.65 25.55 -8.4 26.4 -10.2 28.75 -9.85 L28.9 -9.85 M33.0 -1.85 Q34.55 -1.1 36.45 1.15 37.75 3.3 37.95 4.2 L38.0 4.3 37.05 5.2 36.55 6.65 36.3 7.9 36.25 8.6 Q36.2 9.45 36.4 10.15 L36.55 10.75 36.55 10.8 36.5 10.8 36.5 10.85 36.1 9.6 35.7 8.65 35.3 8.1 34.7 6.85 33.95 5.55 33.1 4.15 32.15 3.0 31.8 2.3 31.9 2.2 32.5 1.7 32.5 1.65 32.85 0.1 33.0 -1.15 33.0 -1.85 M39.95 16.5 L40.1 16.25 Q40.6 15.7 41.4 15.8 42.15 15.85 42.65 16.35 43.15 17.0 43.15 17.85 L42.8 19.3 Q42.3 20.2 41.1 20.25 L40.9 20.25 40.65 20.2 39.55 17.45 39.55 17.4 39.65 17.1 39.65 17.05 39.7 17.05 39.85 16.65 39.95 16.5 M14.45 -4.7 Q15.1 -5.2 16.1 -5.4 L17.6 -5.3 Q18.35 -4.95 18.2 -3.85 18.15 -0.9 15.65 -1.0 14.35 -1.0 13.95 -2.35 13.75 -2.75 13.7 -3.2 L13.7 -3.65 Q13.7 -4.2 14.45 -4.7" fill="#a240fb" fill-rule="evenodd" stroke="none"/>
      <path d="M46.8 40.45 L47.45 40.85 48.2 41.65 48.65 42.3 49.1 42.75 48.65 43.3 47.95 44.5 45.6 46.6 44.4 47.65 43.15 48.6 Q42.4 49.25 41.3 49.75 L40.7 50.05 39.25 48.6 Q37.8 47.5 37.5 46.75 L36.75 45.85 36.8 45.75 36.9 45.75 36.9 45.8 37.2 45.85 Q37.95 45.95 40.2 44.95 L43.2 43.5 45.45 41.85 46.8 40.45 M43.35 46.7 L43.25 46.3 43.15 45.95 40.15 45.75 Q39.2 45.8 38.95 46.25 38.8 46.4 38.8 47.0 L38.95 47.6 Q39.25 48.2 40.4 48.3 L42.65 47.9 Q43.35 47.55 43.35 47.05 L43.35 46.7 M25.85 4.25 L26.25 4.2 26.4 4.2 26.5 4.2 27.2 5.75 27.65 7.3 27.45 7.1 26.9 6.75 26.85 6.75 26.6 6.0 26.3 5.25 25.9 4.5 25.85 4.5 25.85 4.4 25.85 4.25 M22.75 8.2 L22.6 8.25 Q22.3 8.75 21.45 8.7 20.3 8.7 19.95 8.2 L19.9 8.15 19.95 8.15 20.2 8.1 22.75 8.2 M28.15 13.1 L28.2 13.7 28.2 14.5 28.2 15.4 28.1 15.6 28.05 15.6 27.5 15.65 27.45 15.65 Q26.8 15.8 26.3 16.2 L25.9 17.1 25.7 17.4 25.45 17.75 25.25 17.65 25.25 17.35 25.15 17.1 25.25 16.8 25.25 16.75 25.25 16.55 Q25.35 15.6 25.65 15.25 L27.45 13.8 27.65 13.65 28.15 13.1 M14.2 7.75 L14.4 7.05 Q15.0 4.55 15.95 4.6 L16.45 4.85 16.35 5.05 Q15.7 5.95 15.7 6.8 L15.7 6.85 14.2 7.75 M14.85 15.3 L14.7 14.95 14.6 14.45 Q14.2 13.15 14.25 12.5 L15.35 13.45 17.7 15.4 Q18.5 16.25 18.45 17.45 L18.35 17.85 18.0 17.6 17.95 17.6 17.75 17.35 17.7 17.25 17.65 16.95 17.55 16.25 17.2 16.05 17.05 15.85 Q16.4 15.45 15.1 15.35 L14.85 15.3 M26.1 33.05 L26.1 33.1 24.5 35.1 Q22.75 36.7 22.2 36.7 L21.05 36.4 20.6 36.0 20.0 35.5 19.5 34.9 18.75 33.8 18.2 33.25 17.9 32.7 17.9 32.6 19.4 33.6 Q21.05 34.6 21.65 34.65 L21.65 34.7 22.15 34.75 22.55 34.65 Q23.7 34.55 26.1 33.05 M12.5 30.05 L12.5 30.0 12.5 29.55 Q13.25 29.4 13.7 28.8 L14.5 29.85 12.5 30.05 M8.9 44.8 Q8.3 44.85 7.3 45.4 L6.75 44.8 6.4 44.3 5.25 42.4 4.05 39.9 4.05 39.85 4.4 39.9 4.45 40.15 4.5 40.5 Q4.75 40.95 6.15 40.9 L6.25 41.2 6.35 41.55 Q6.65 42.05 7.55 42.05 L8.05 41.95 8.35 41.9 8.55 42.2 8.6 42.3 Q8.65 42.6 9.05 42.75 L9.35 42.85 10.35 43.2 10.5 43.2 10.6 43.2 10.7 43.3 10.8 43.45 9.35 44.5 Q9.15 44.6 8.9 44.8 M17.1 51.35 L17.3 52.05 17.3 52.1 17.4 52.1 17.4 52.15 17.2 52.15 17.15 52.1 16.9 52.05 16.85 52.05 15.75 51.7 15.7 51.65 15.7 51.55 15.65 51.65 15.55 51.65 15.65 51.25 15.65 51.2 15.65 51.15 15.65 50.95 16.1 51.1 17.1 51.35 M4.15 46.2 Q4.15 45.45 3.4 45.05 L1.7 44.85 0.0 45.25 Q-0.8 45.5 -0.8 45.85 L-0.8 46.15 -0.75 46.8 Q-0.4 47.8 0.8 47.8 L2.95 47.35 Q4.05 46.8 4.15 46.2 M3.95 48.45 Q3.35 48.7 3.15 49.3 L2.9 50.05 2.1 49.7 0.5 48.8 Q0.1 48.55 -1.25 47.85 L-2.75 47.1 -4.55 45.65 Q-4.65 45.6 -4.8 45.5 L-5.45 44.85 -6.55 43.9 -6.55 43.75 -6.6 43.5 -6.9 43.0 -7.25 41.85 Q-7.2 40.65 -6.65 39.95 L-4.65 37.95 -4.55 38.0 Q-4.5 38.7 -3.3 39.7 L-1.7 41.05 -0.75 41.8 0.35 42.7 1.8 43.55 4.9 44.15 5.65 44.15 6.35 45.0 6.85 45.75 6.6 46.2 5.95 47.05 4.85 47.9 3.95 48.45 M31.2 30.0 L31.2 30.05 29.5 29.8 30.3 28.95 31.2 29.55 31.2 30.0 M33.0 43.55 L33.0 43.5 33.45 42.85 33.45 42.8 33.85 42.8 35.3 42.65 35.55 42.3 35.65 42.05 36.15 41.95 36.75 41.95 37.15 41.75 37.5 41.55 Q37.8 41.25 38.25 41.2 L38.9 40.95 39.3 40.55 39.25 41.0 38.7 42.05 37.95 43.05 36.55 44.95 36.5 45.0 36.2 45.35 Q35.7 44.95 35.3 45.0 L35.1 45.05 35.0 45.15 34.9 45.15 34.5 44.85 33.55 44.05 33.0 43.55 M28.7 50.4 L28.45 51.25 26.5 52.05 26.45 52.0 26.3 51.95 26.25 52.05 26.25 52.1 26.05 52.15 25.95 52.25 25.25 52.35 25.2 52.4 25.1 52.4 24.95 52.45 24.5 52.5 24.8 51.95 24.8 51.9 24.95 51.7 26.75 51.15 Q28.2 50.5 28.6 50.5 L28.7 50.4 M32.45 56.65 L32.5 56.75 33.05 57.6 31.4 59.65 29.2 62.3 26.9 65.1 25.25 67.05 25.25 67.0 24.8 66.5 24.6 66.1 26.15 64.0 28.7 61.0 31.15 58.2 32.3 56.75 32.45 56.65 M32.5 63.3 L31.3 62.2 32.6 60.7 32.9 60.3 33.25 60.6 34.05 61.35 33.45 61.95 Q32.75 62.2 32.65 62.5 L32.5 63.2 32.5 63.3 M36.15 60.6 L35.65 59.95 35.6 59.95 35.6 59.85 Q35.25 59.45 34.75 59.35 L34.55 59.2 34.85 59.1 35.8 59.0 36.45 58.9 37.1 58.5 37.55 58.1 37.9 58.6 38.05 58.7 38.05 58.75 37.65 59.2 36.55 59.95 36.15 60.6 M17.2 65.95 L17.2 66.0 16.6 66.95 16.55 67.0 16.3 67.0 Q15.7 66.5 14.65 64.7 L12.75 61.55 10.7 58.85 Q9.95 57.75 9.65 56.85 L10.2 56.3 10.25 56.25 10.8 55.85 11.0 56.3 11.3 57.0 11.7 57.75 12.65 59.1 13.65 60.6 15.65 63.2 15.65 63.3 15.7 63.3 17.1 65.6 17.15 65.65 17.2 65.95" fill="#644b1a" fill-rule="evenodd" stroke="none"/>
      <path d="M40.15 21.65 L40.75 23.2 42.4 28.8 43.95 35.2 44.05 35.2 44.05 35.25 44.1 35.45 43.95 35.75 43.9 35.75 43.9 35.8 43.8 35.9 43.9 36.0 Q43.6 36.05 43.4 36.3 L43.4 36.1 Q43.2 36.15 43.1 36.3 L43.15 36.8 43.1 37.15 42.5 37.85 42.4 37.9 42.35 37.95 42.45 37.95 43.55 38.2 44.95 38.6 46.9 39.75 47.8 40.4 48.65 41.1 49.75 42.45 49.8 42.45 49.85 42.55 49.95 42.65 49.95 42.7 Q49.85 43.5 46.1 47.15 L44.15 48.7 Q44.9 48.95 45.05 50.25 L45.1 52.7 45.0 54.45 43.7 56.85 43.05 57.8 42.35 58.9 41.5 59.8 Q41.0 60.3 41.0 60.75 L40.75 61.1 40.45 61.25 40.45 61.7 Q40.45 62.4 40.05 63.2 L39.3 64.35 38.65 64.5 38.25 64.35 37.9 64.85 38.05 65.4 38.3 67.3 38.5 68.85 38.6 68.95 38.8 70.85 38.75 71.3 38.5 71.35 38.35 71.1 37.75 70.7 36.3 70.0 35.15 69.6 34.05 69.3 33.1 69.2 32.9 69.35 31.15 69.8 30.9 69.9 30.85 69.9 30.1 69.9 29.6 69.8 29.25 69.75 29.05 69.7 29.0 69.7 28.3 69.6 28.25 69.6 27.95 69.55 25.65 69.3 23.7 69.55 21.25 69.8 20.55 70.1 18.65 70.8 14.95 71.35 14.4 71.3 13.35 71.15 11.3 70.55 11.1 70.5 9.65 69.6 8.0 69.65 5.35 69.6 5.25 69.8 4.95 69.6 4.7 69.55 4.3 69.55 4.2 69.5 4.15 69.25 4.15 69.1 4.35 68.95 4.9 68.95 5.15 67.5 5.35 66.15 5.4 65.35 5.65 64.4 5.6 64.15 Q5.25 64.35 5.15 64.45 L4.9 64.45 4.4 63.75 4.0 62.65 3.6 61.75 3.15 60.9 2.95 60.0 2.65 59.05 2.15 58.2 1.75 57.4 1.75 57.15 2.2 57.3 2.2 57.2 2.2 57.15 2.3 56.9 2.15 56.65 1.45 55.45 0.7 54.65 -0.35 53.65 Q-1.3 52.3 -1.5 51.6 L-1.7 49.85 -1.7 49.05 -1.4 48.55 -3.9 47.2 -5.05 46.2 -5.95 45.35 -7.3 44.15 -7.85 43.4 -7.7 43.5 -7.75 43.05 -7.9 41.8 Q-7.85 40.5 -7.2 39.65 L-5.05 37.4 -2.1 35.2 Q0.25 33.7 0.75 34.0 L0.8 34.1 0.8 33.9 0.8 33.7 0.85 32.85 1.05 29.05 1.1 28.7 1.2 27.55 Q1.6 25.0 2.55 22.0 L3.0 20.7 3.4 19.35 3.45 19.15 3.55 19.0 3.9 18.05 4.0 17.8 4.5 16.7 5.25 15.45 5.95 14.05 6.25 13.4 6.55 12.7 6.75 12.2 6.75 12.1 6.85 11.7 6.95 11.2 7.0 11.05 7.1 10.65 7.1 10.55 7.1 10.5 7.15 10.4 7.5 8.95 7.5 8.8 7.7 8.55 7.7 8.4 Q7.7 8.2 8.25 6.95 L8.8 5.6 8.8 5.55 9.1 4.9 9.1 4.85 9.15 4.85 9.15 4.8 Q9.8 3.7 11.05 2.75 L11.15 2.6 12.5 1.3 Q13.45 0.45 14.35 0.15 15.4 -0.2 16.45 -0.9 17.75 -1.5 21.05 -1.65 L23.2 -1.8 Q25.0 -1.6 26.9 -0.3 L28.35 0.7 30.45 2.4 30.9 2.8 31.1 2.95 32.05 4.15 32.85 5.5 33.6 6.85 34.25 8.1 34.7 8.6 34.95 9.55 35.4 10.8 35.4 10.85 35.45 10.9 35.65 11.6 35.65 11.7 35.75 11.85 36.75 13.95 37.6 15.55 37.85 15.95 38.35 16.95 38.35 17.05 38.45 17.4 39.65 20.2 39.65 20.25 40.15 21.65 M32.05 9.45 L33.0 8.7 33.8 8.2 33.25 7.35 32.35 5.75 31.6 4.5 30.45 3.25 29.65 2.6 29.1 2.1 28.45 1.5 27.65 1.05 26.9 0.45 26.25 -0.15 24.25 -1.0 22.4 -1.05 18.05 -0.7 16.45 -0.2 15.45 0.15 14.5 0.7 13.6 1.3 Q13.0 1.65 12.85 1.9 L12.15 2.55 11.35 3.25 Q10.0 4.3 9.25 6.0 L8.75 7.4 8.2 8.6 8.6 8.8 Q9.2 9.2 9.5 9.2 L10.1 9.5 10.2 9.5 11.1 9.8 11.3 9.9 12.85 10.1 13.35 10.25 13.45 10.25 13.45 9.5 13.65 7.35 14.4 5.2 14.6 4.75 15.1 4.2 15.2 4.15 Q15.25 3.7 16.85 3.35 L20.55 2.8 22.8 2.65 25.2 3.1 26.3 3.45 26.6 3.65 27.25 4.25 Q27.75 5.05 28.3 7.3 L28.8 10.5 28.95 10.5 29.0 10.5 30.55 10.15 31.2 9.95 31.9 9.5 32.05 9.45 M41.15 30.05 L41.5 30.4 41.9 31.3 42.2 32.15 42.35 33.0 42.75 34.65 42.95 35.65 43.4 35.3 43.15 34.25 Q42.75 31.75 42.15 29.9 L42.0 29.5 41.85 29.55 41.2 29.95 41.15 30.05 M38.05 32.05 L38.75 31.75 39.35 31.35 39.4 31.05 Q39.4 30.85 39.55 30.8 L40.2 30.3 40.65 29.85 Q40.85 29.45 41.2 29.3 L41.85 28.8 41.3 26.9 40.4 23.9 39.4 25.0 38.3 26.25 Q38.05 26.25 37.8 26.6 L37.65 26.8 37.5 27.15 37.55 27.2 37.15 27.3 36.6 27.7 35.85 28.5 Q35.35 28.9 34.7 28.9 L34.1 28.85 33.25 29.45 33.25 30.0 33.25 30.3 35.15 30.6 35.4 30.65 35.55 30.7 35.6 30.7 35.6 30.85 35.6 30.95 35.6 31.05 Q35.6 31.75 34.8 32.8 34.05 33.6 33.0 33.9 L33.0 34.25 33.0 34.75 32.9 35.25 33.35 35.2 34.05 35.1 34.7 34.75 35.25 34.25 35.85 33.9 36.45 33.5 Q36.5 33.3 37.2 33.0 L37.95 32.6 Q37.85 32.2 38.0 32.1 L38.05 32.05 M41.35 31.9 L40.95 30.65 40.45 30.9 39.95 31.4 40.15 31.75 Q40.7 32.85 40.85 34.4 L41.2 36.45 41.5 37.7 41.75 37.5 42.3 37.3 42.65 36.9 42.45 36.6 42.3 36.3 42.4 36.1 42.25 35.5 41.9 33.5 41.35 31.9 M46.8 40.45 L45.45 41.85 43.2 43.5 40.2 44.95 Q37.95 45.95 37.2 45.85 L36.9 45.8 36.9 45.75 36.8 45.75 36.75 45.85 37.5 46.75 Q37.8 47.5 39.25 48.6 L40.7 50.05 41.3 49.75 Q42.4 49.25 43.15 48.6 L44.4 47.65 45.6 46.6 47.95 44.5 48.65 43.3 49.1 42.75 48.65 42.3 48.2 41.65 47.45 40.85 46.8 40.45 M41.9 38.45 L41.85 38.45 41.75 38.6 41.5 39.0 41.15 39.5 40.45 39.7 40.2 39.75 40.0 40.65 39.5 41.75 38.9 42.65 38.25 43.65 37.15 45.15 37.15 45.25 37.85 44.95 38.4 44.65 38.95 44.6 41.0 43.75 43.75 42.35 45.55 40.9 46.25 40.1 Q44.7 39.15 42.9 38.75 L41.9 38.45 M41.2 38.25 Q40.85 38.2 40.55 36.95 L40.25 35.05 39.95 33.1 39.7 32.0 39.15 32.25 Q38.7 32.45 38.6 32.55 L38.65 32.9 38.65 33.45 38.8 34.55 39.1 35.55 39.4 37.9 39.65 39.2 40.2 39.1 40.7 39.0 41.2 38.25 M43.35 49.3 Q41.6 50.6 41.0 50.65 L41.15 52.25 Q41.15 53.15 40.6 54.25 L39.25 56.25 38.4 57.15 37.9 57.6 38.5 58.15 39.55 59.4 Q40.1 59.85 40.25 60.4 L40.7 59.8 41.6 58.75 42.95 56.75 44.1 54.65 44.4 53.65 44.45 52.6 44.45 50.7 44.1 49.7 43.75 49.0 43.35 49.3 M33.45 9.3 L32.45 9.95 32.15 10.05 Q30.5 10.9 29.55 11.0 L29.1 11.05 28.75 11.0 28.65 12.25 28.15 13.1 27.65 13.65 27.45 13.8 25.65 15.25 Q25.35 15.6 25.25 16.55 L25.25 16.75 25.25 16.8 25.15 17.1 25.25 17.35 25.25 17.65 25.45 17.75 25.7 17.4 25.9 17.1 26.3 16.2 Q26.8 15.8 27.45 15.65 L27.5 15.65 28.05 15.6 28.1 15.6 29.65 15.4 30.5 15.2 30.95 14.95 31.45 14.7 32.45 13.95 33.25 13.2 33.35 13.15 34.35 12.25 34.5 12.15 Q34.8 11.85 35.15 11.85 L35.15 11.8 34.55 10.1 34.1 8.8 33.45 9.3 M25.85 4.25 L25.75 4.3 25.85 4.4 25.85 4.5 25.9 4.5 26.3 5.25 26.6 6.0 26.85 6.75 26.9 6.75 27.35 8.25 27.4 9.6 27.4 9.95 27.3 11.2 26.75 12.15 25.55 13.15 25.2 13.45 24.35 14.15 23.9 14.55 23.85 14.6 23.6 14.85 23.6 15.2 23.5 16.55 23.45 16.95 23.2 17.6 23.3 17.65 24.1 17.75 24.2 17.8 24.6 17.75 24.7 17.75 24.7 16.95 24.7 16.55 24.75 15.85 25.1 15.15 25.35 14.85 25.95 14.3 26.7 13.6 28.1 12.2 28.2 10.85 28.15 9.45 27.75 7.45 27.65 7.3 27.2 5.75 26.5 4.2 26.4 4.2 26.25 4.2 25.85 4.25 M22.8 3.4 L22.45 3.4 22.15 3.4 19.5 3.45 18.5 3.55 18.45 3.55 17.85 3.7 17.6 3.75 17.4 3.8 17.2 3.85 17.1 3.9 17.0 3.9 16.6 4.1 16.6 4.15 17.0 4.4 17.9 5.5 18.6 6.45 18.9 6.75 19.6 7.45 19.9 8.15 19.95 8.2 Q20.3 8.7 21.45 8.7 22.3 8.75 22.6 8.25 L22.75 8.2 23.45 7.1 24.3 5.6 24.6 4.85 Q24.75 4.3 25.05 4.0 L25.25 3.75 24.65 3.65 24.25 3.55 23.5 3.45 23.2 3.4 22.8 3.4 M26.85 9.55 L26.8 8.65 Q26.6 7.45 26.05 6.35 L25.45 5.15 25.25 4.8 25.1 5.45 24.25 6.8 23.85 7.45 23.85 7.5 23.9 7.9 23.85 8.15 23.85 8.8 23.85 11.65 23.85 11.85 23.8 12.3 23.8 12.35 23.7 13.65 23.65 14.05 24.4 13.45 25.25 12.65 25.9 12.2 Q26.55 11.7 26.75 10.9 L26.8 9.6 26.85 9.55 M23.25 8.4 L22.95 9.0 Q22.55 9.4 21.5 9.3 L19.85 9.0 19.85 9.15 19.9 9.95 21.65 9.95 23.25 9.95 23.25 8.65 23.25 8.4 M20.1 11.35 L20.1 11.6 20.1 11.9 20.15 11.9 23.25 12.1 23.25 12.0 23.25 11.8 23.25 11.5 23.25 10.45 20.0 10.5 20.1 11.35 M31.45 19.1 L31.8 19.0 32.15 19.3 32.15 19.75 32.15 19.8 32.3 19.8 Q32.65 19.85 33.05 18.25 L33.5 15.65 33.8 13.7 31.8 15.2 Q30.95 15.8 29.65 15.95 L27.9 16.2 Q27.0 16.35 26.7 16.9 L26.4 17.25 26.45 17.4 26.4 17.6 26.1 18.0 Q25.85 18.35 25.45 18.35 L25.15 18.3 25.15 18.35 25.1 18.4 25.1 18.45 24.8 18.5 24.3 18.3 24.2 18.25 23.85 18.4 21.7 18.15 19.05 18.3 Q18.9 18.5 18.6 18.5 L18.55 18.45 18.15 18.45 18.15 18.4 17.3 17.65 17.2 17.45 16.9 16.65 16.85 16.6 16.4 16.2 14.9 15.9 13.05 15.65 10.8 14.95 10.7 15.35 Q10.65 16.1 11.05 17.15 L11.85 18.9 12.2 18.9 12.2 18.85 12.3 18.85 12.45 18.5 12.75 18.4 12.85 18.45 13.55 18.95 14.15 19.35 14.45 19.45 14.5 19.45 14.6 19.45 14.65 19.3 14.8 19.1 14.85 18.95 Q15.0 18.45 15.45 18.45 L16.15 18.95 16.8 19.65 17.0 19.25 Q17.2 19.0 17.6 19.0 L18.15 19.45 18.2 19.55 18.45 19.7 18.55 19.75 18.9 19.85 19.25 19.75 19.4 19.6 Q19.75 19.2 20.0 19.2 20.3 19.2 20.4 19.55 L20.85 19.85 20.95 19.85 21.6 19.6 Q21.7 19.25 22.05 19.25 22.3 19.25 22.4 19.7 L22.45 19.75 22.5 19.8 22.55 19.9 22.75 20.1 23.3 19.9 23.65 19.7 Q24.05 19.25 24.3 19.25 24.65 19.25 24.75 19.6 L25.1 19.85 25.65 19.55 Q25.95 19.1 26.15 19.1 L26.7 19.6 26.9 19.9 Q27.3 19.9 27.45 19.6 27.7 19.25 28.2 19.25 28.6 19.25 28.65 19.6 L28.8 19.8 Q29.5 19.85 29.6 19.55 29.8 19.15 30.15 19.15 30.45 19.15 30.55 19.65 30.55 19.9 30.85 20.0 L31.1 20.0 31.1 19.85 31.2 19.45 31.45 19.1 M23.15 14.4 L23.15 14.35 23.2 13.85 23.2 13.8 23.25 13.1 23.25 12.55 21.7 12.55 20.15 12.4 20.15 13.65 20.2 13.95 20.2 14.0 20.25 14.35 20.25 14.4 20.3 14.4 21.15 14.4 22.3 14.4 22.75 14.4 23.05 14.45 23.15 14.4 M22.9 15.95 L22.95 15.3 23.0 14.9 22.05 14.95 20.65 14.95 20.4 14.95 20.4 15.25 20.55 15.85 20.55 16.3 22.85 16.35 22.9 15.95 M20.4 16.8 L20.4 17.1 20.3 17.55 21.7 17.55 22.75 17.6 22.75 17.55 22.8 16.9 21.6 16.9 20.8 16.8 20.4 16.8 M26.25 20.65 Q24.2 20.95 24.05 21.4 L24.6 21.8 24.75 21.85 Q25.9 22.4 26.4 22.4 L27.25 22.3 28.15 21.55 28.2 21.55 28.65 20.85 28.9 20.55 27.0 20.55 26.6 20.55 26.25 20.65 M36.05 20.45 L36.1 20.35 36.25 20.0 36.25 19.55 36.55 19.15 37.05 18.95 37.9 18.05 38.05 17.9 38.0 17.85 36.5 14.85 35.3 12.4 34.3 13.25 34.3 14.05 34.2 15.55 34.05 16.05 33.8 17.45 33.55 18.15 33.45 19.0 33.2 19.75 Q32.9 20.5 32.45 20.45 L32.15 20.45 32.0 20.35 32.05 20.65 32.1 21.0 32.1 21.1 32.1 21.35 32.3 22.8 33.15 22.45 33.5 22.05 34.0 21.85 Q35.0 21.65 35.4 21.2 L35.4 21.15 35.45 21.15 36.05 20.45 M32.45 23.35 L32.35 23.35 32.45 24.0 32.45 24.15 33.45 24.4 33.4 24.05 33.35 23.15 32.45 23.35 M34.95 22.2 L34.55 22.3 Q34.25 22.3 33.8 22.75 L33.9 23.3 33.95 24.1 34.1 24.45 34.3 24.85 34.25 25.0 Q34.9 25.8 34.85 27.2 L34.5 28.4 35.45 28.0 35.8 27.65 35.85 27.6 Q35.6 27.4 35.45 26.65 L35.35 25.05 35.0 23.75 34.9 22.5 34.95 22.2 M38.35 18.7 L37.9 19.0 37.45 19.35 38.35 21.4 39.3 24.15 39.65 23.75 40.1 23.3 39.2 20.95 38.35 18.7 M36.75 21.5 L36.95 22.25 37.1 23.05 37.5 24.4 37.8 25.75 38.95 24.5 Q38.5 24.45 38.35 23.75 L37.9 21.95 37.35 20.65 37.0 19.7 Q36.8 19.85 36.75 20.3 L36.55 20.75 36.75 21.5 M36.25 22.05 L36.1 21.3 35.7 21.7 35.4 22.0 35.45 22.65 35.65 23.35 35.8 24.15 36.25 27.15 36.75 26.85 37.1 26.5 37.05 26.5 37.1 26.45 37.2 26.25 37.1 25.9 37.15 25.9 37.1 25.8 37.05 25.55 37.0 25.25 36.6 23.6 36.25 22.05 M15.7 6.85 L15.7 6.8 Q15.7 5.95 16.35 5.05 L16.45 4.85 15.95 4.6 Q15.0 4.55 14.4 7.05 L14.2 7.75 14.0 9.55 14.1 10.05 14.45 11.65 Q14.5 12.0 15.25 12.6 L16.4 13.65 17.45 14.4 17.65 14.5 18.35 15.2 18.45 15.25 18.45 15.3 18.55 15.4 18.55 15.45 18.75 15.85 18.75 15.95 19.05 16.6 19.05 17.05 19.05 17.45 19.05 17.75 20.0 17.55 19.9 16.95 19.9 16.75 19.9 15.8 19.85 15.4 19.85 15.35 19.75 14.75 19.65 14.75 19.35 14.7 19.35 14.55 19.05 14.4 18.9 14.15 18.8 14.05 17.95 13.4 17.4 12.75 16.85 12.15 Q15.7 11.35 15.4 10.65 L15.2 9.45 15.2 9.4 15.35 8.2 15.7 6.85 M19.25 8.4 L19.25 8.3 19.25 8.2 19.1 7.9 19.05 7.9 18.85 7.6 18.8 7.6 18.8 7.5 18.75 7.5 18.4 7.1 18.0 6.75 17.65 6.35 17.2 5.65 16.9 5.2 16.7 5.55 16.4 6.2 16.15 7.3 Q15.95 7.6 15.9 8.1 L15.85 8.6 15.8 9.15 15.8 9.5 Q15.75 10.1 16.25 10.8 16.65 11.35 17.45 11.9 L18.0 12.5 18.05 12.55 18.2 12.7 18.45 12.95 18.6 13.05 18.75 13.15 19.25 13.65 19.3 13.65 19.4 13.85 19.5 13.95 19.5 13.1 19.5 11.65 19.4 10.8 19.4 10.45 19.4 10.4 19.35 10.25 19.35 10.15 19.25 8.55 19.25 8.4 M14.25 12.5 L14.2 12.4 13.7 11.45 13.6 10.85 13.5 10.9 12.9 10.8 11.8 10.5 9.9 10.05 9.8 10.05 8.9 9.6 8.85 9.6 8.45 9.45 8.05 9.15 7.7 11.05 7.15 12.3 7.15 12.35 7.6 12.7 7.75 12.85 7.85 12.95 8.45 13.4 8.55 13.4 8.95 13.7 9.7 13.95 11.4 14.6 13.0 15.05 13.15 15.15 13.5 15.2 14.85 15.3 15.1 15.35 Q16.4 15.45 17.05 15.85 L17.2 16.05 17.55 16.25 17.65 16.95 17.7 17.25 17.75 17.35 17.75 17.4 17.95 17.6 18.0 17.6 18.35 17.85 18.45 17.45 Q18.5 16.25 17.7 15.4 L15.35 13.45 14.25 12.5 M10.2 15.95 L10.1 15.7 10.1 14.75 9.9 14.7 7.4 13.35 7.0 13.05 6.05 15.15 4.7 17.65 4.6 17.85 4.9 18.15 5.5 18.5 6.0 18.9 6.2 19.3 6.5 19.75 6.75 19.9 7.3 20.3 Q7.45 20.55 8.15 21.0 L8.9 21.4 8.95 21.45 9.05 21.45 9.65 21.7 9.65 21.8 9.7 21.8 11.05 22.3 11.85 22.7 11.95 21.05 12.15 19.55 12.0 19.55 Q10.7 19.55 10.2 15.95 M2.9 23.65 L3.1 23.75 3.2 23.9 3.65 24.1 Q3.65 23.4 3.9 22.8 L4.4 21.15 4.65 20.35 4.7 19.65 4.8 19.25 4.85 18.95 4.7 18.85 4.6 18.75 4.35 18.4 Q4.0 19.2 3.8 20.2 L3.0 22.7 2.7 23.6 2.9 23.65 M5.7 19.65 L5.65 19.45 5.4 19.3 5.15 20.55 4.7 22.05 4.5 22.8 4.3 23.65 4.3 24.4 4.2 24.5 4.35 24.85 4.65 25.25 5.15 25.45 5.35 24.1 5.55 22.65 5.65 21.1 5.7 20.25 Q5.7 20.05 5.85 20.0 L5.8 19.85 5.7 19.65 M8.35 28.0 L7.55 27.4 6.85 27.15 6.1 26.85 5.85 26.5 5.5 26.25 5.35 26.2 5.35 26.25 5.2 26.1 4.3 25.65 3.75 25.0 3.05 24.5 3.0 24.45 2.6 24.1 1.8 27.75 1.6 29.3 1.55 30.25 1.6 30.25 2.0 30.25 2.15 30.25 2.7 30.7 2.85 30.85 2.85 31.1 3.3 31.3 3.65 31.55 3.9 32.35 4.75 32.6 5.3 33.0 5.3 33.6 Q6.55 33.6 6.75 33.95 L6.85 34.4 7.8 34.55 8.0 34.55 8.15 34.6 8.2 34.6 8.35 34.65 8.35 34.7 8.4 35.05 Q8.55 35.5 9.35 35.45 L10.45 35.5 10.45 35.55 10.5 35.65 10.6 35.75 Q11.0 36.05 11.55 36.05 L12.15 36.2 12.15 35.35 12.2 34.1 12.15 34.1 Q9.9 33.95 8.8 32.5 L8.75 32.5 8.75 32.4 8.65 32.35 8.15 31.15 8.05 30.8 8.05 30.4 8.2 30.35 8.25 30.35 8.3 30.35 8.55 30.3 10.45 30.2 10.45 29.85 10.5 29.35 9.6 28.55 9.5 28.6 8.45 28.1 8.35 28.0 M6.5 20.5 L6.4 20.45 6.4 20.5 6.35 20.75 6.15 21.7 6.15 22.5 6.1 23.25 5.95 24.75 5.65 25.65 6.0 25.75 6.25 26.1 6.4 26.25 6.6 24.9 6.75 23.55 6.85 22.2 6.9 20.7 6.5 20.5 M7.4 22.95 L7.3 25.0 6.85 26.6 7.4 26.8 7.8 26.9 8.35 24.05 8.6 22.65 8.6 22.25 8.75 21.95 8.4 21.85 Q7.85 21.65 7.6 21.4 L7.4 21.2 7.45 21.7 7.4 22.95 M9.1 27.65 L9.05 26.95 Q9.1 25.45 9.95 24.65 L10.1 24.5 10.05 24.3 10.05 23.65 10.1 22.7 9.65 22.45 9.25 22.1 9.05 23.45 8.85 24.7 8.65 26.2 8.25 27.15 9.05 27.7 9.15 27.7 9.1 27.65 M10.7 22.95 L10.6 23.6 10.55 24.25 11.8 24.1 11.8 23.55 11.8 23.35 11.5 23.25 11.35 23.05 10.7 22.85 10.7 22.95 M29.6 27.35 Q29.5 26.85 29.55 26.25 L29.55 25.95 29.85 25.25 29.4 25.1 29.0 24.95 27.0 25.1 25.2 25.35 Q24.8 25.35 24.8 25.15 L24.8 24.95 24.6 25.1 24.35 25.35 24.05 25.15 23.65 25.0 23.05 24.5 22.9 24.9 22.45 25.1 22.3 25.05 22.1 24.95 21.85 25.0 21.6 25.1 21.4 24.9 21.3 24.65 21.1 24.85 20.8 25.0 Q20.6 25.0 20.35 24.65 L20.0 24.3 Q19.75 24.3 19.25 24.75 L18.8 25.15 17.0 24.5 16.8 24.7 16.55 24.85 16.35 24.75 16.15 24.65 15.9 24.75 15.7 24.85 15.5 24.75 14.0 24.7 13.0 24.3 12.9 24.3 13.6 24.75 Q14.4 25.4 14.4 26.25 L14.4 26.35 14.4 26.8 14.1 28.1 14.15 28.15 15.1 29.55 15.55 30.0 16.1 30.5 16.15 30.6 16.15 30.65 17.15 31.4 17.55 31.65 18.45 32.25 18.75 32.5 19.4 32.95 19.9 33.25 Q20.15 33.3 20.4 33.5 L20.55 33.5 20.65 33.55 20.8 33.6 20.85 33.6 20.95 33.7 21.0 33.7 21.65 34.0 21.85 34.2 21.85 34.25 22.0 34.25 22.15 34.2 22.35 34.0 22.8 33.85 24.35 33.3 Q24.65 33.1 25.2 32.85 L25.4 32.7 26.0 32.35 26.15 32.2 26.5 32.0 26.6 31.9 26.7 31.8 26.9 31.65 27.0 31.6 27.3 31.4 27.6 31.1 27.75 31.05 27.9 30.9 27.9 30.85 28.35 30.35 28.35 30.3 28.75 29.95 28.95 29.75 29.25 28.9 29.65 28.55 29.9 28.45 29.6 27.35 M18.2 20.7 L17.6 20.35 17.15 20.45 16.4 20.45 16.8 20.55 15.35 20.35 15.1 20.55 15.4 20.95 15.75 21.45 16.1 21.7 Q16.7 22.25 17.65 22.25 L19.4 21.95 19.45 21.9 19.8 21.55 19.9 21.5 18.65 20.95 18.2 20.7 M17.9 32.6 L16.85 32.0 15.35 30.65 15.35 30.7 15.25 31.4 14.85 32.5 14.65 32.95 14.25 33.35 14.1 33.55 14.2 33.8 14.25 33.85 14.4 34.0 14.5 34.3 14.6 34.45 14.85 34.8 15.0 35.1 15.05 35.1 15.05 35.15 15.45 35.45 15.5 35.45 15.5 35.5 15.65 35.55 17.4 36.45 19.45 36.95 21.6 37.15 23.6 37.0 24.5 36.8 25.0 36.65 27.75 35.65 Q27.95 35.5 28.2 35.45 L28.25 35.35 28.65 35.2 28.75 35.1 29.45 34.6 29.8 33.9 29.8 33.85 29.2 33.3 28.95 32.85 28.75 32.35 28.35 31.3 27.95 31.65 26.7 32.7 26.45 32.85 26.1 33.05 Q23.7 34.55 22.55 34.65 L22.15 34.75 21.65 34.7 21.65 34.65 Q21.05 34.6 19.4 33.6 L17.9 32.6 M13.6 25.55 L13.5 25.45 13.45 25.4 13.35 25.35 13.2 25.1 11.9 24.75 11.55 24.75 Q10.85 24.75 10.45 25.05 L9.95 25.95 9.6 27.05 9.6 27.1 Q9.6 27.65 10.0 28.15 10.55 28.9 11.7 29.05 L11.9 29.05 Q13.15 29.05 13.6 27.75 L13.9 26.85 13.9 26.35 13.9 25.9 13.6 25.55 M11.0 30.15 L11.85 30.05 11.95 30.0 11.95 29.6 11.85 29.6 11.0 29.5 11.0 30.15 M12.5 30.05 L14.5 29.85 13.7 28.8 Q13.25 29.4 12.5 29.55 L12.5 30.0 12.5 30.05 M14.65 31.1 L14.65 30.9 14.7 30.65 14.8 30.6 14.8 30.4 14.6 30.4 14.5 30.5 14.4 30.5 14.25 30.5 13.95 30.6 12.85 30.7 11.45 30.8 9.1 30.95 8.65 30.95 9.1 31.9 9.2 32.1 9.25 32.2 9.3 32.2 9.5 32.35 9.6 32.5 9.7 32.6 Q10.35 33.1 11.1 33.3 L12.15 33.45 12.75 33.45 12.9 33.45 13.0 33.45 13.35 33.35 13.55 33.3 13.7 33.1 13.75 33.1 14.5 31.35 14.65 31.1 M11.45 36.85 L10.8 36.7 10.8 36.8 10.85 37.5 10.85 38.25 10.95 41.25 10.95 42.3 11.0 42.3 11.0 42.35 11.05 42.55 11.25 42.75 11.25 42.8 11.45 43.0 11.85 43.0 12.1 42.85 12.65 42.65 12.25 38.9 12.15 36.9 12.0 36.9 11.45 36.85 M9.65 42.35 L10.1 42.4 10.35 42.4 10.35 42.35 10.35 41.55 10.35 39.5 10.35 37.7 10.25 36.8 10.2 36.3 9.95 36.0 9.7 36.05 9.6 36.05 8.85 36.1 8.75 36.1 8.75 36.7 8.8 37.5 8.85 38.25 8.95 41.2 8.95 41.45 9.1 41.75 9.2 42.15 9.3 42.15 9.65 42.35 M16.35 39.7 L15.95 39.0 14.9 36.6 14.4 35.55 14.0 34.65 13.7 34.25 13.6 33.95 13.5 34.1 13.25 34.1 13.35 34.3 13.55 35.1 13.9 35.75 14.15 36.45 15.25 39.1 15.75 40.1 15.75 40.15 15.8 40.4 16.2 41.0 16.3 41.2 16.45 41.65 16.65 41.95 17.55 43.3 18.15 43.95 18.55 44.3 19.1 43.65 18.45 42.8 17.4 41.35 16.7 40.4 16.6 40.2 16.4 39.75 16.35 39.7 M13.65 36.9 L13.65 36.85 12.8 34.7 12.75 34.55 12.75 36.3 12.75 36.45 12.75 37.3 12.85 38.7 12.9 40.1 13.15 41.4 13.25 42.75 12.7 43.3 11.7 43.55 11.8 43.75 13.2 45.15 14.0 45.85 14.5 46.3 14.7 46.4 14.85 46.5 15.7 46.85 16.25 47.05 17.05 47.5 17.3 46.4 Q17.7 45.15 18.2 44.8 L17.15 43.75 16.15 42.2 15.7 41.45 15.65 41.3 14.9 39.75 14.8 39.6 14.65 39.2 13.65 36.9 M15.95 36.45 L15.25 36.0 16.45 38.45 17.85 41.0 18.9 42.35 19.5 43.2 20.6 42.45 22.2 42.4 23.25 43.1 24.8 41.55 Q26.85 39.7 27.6 38.45 L28.45 37.25 29.15 36.0 29.4 35.45 27.95 36.15 25.85 37.0 24.65 37.45 21.55 37.75 19.2 37.55 16.85 36.8 15.95 36.45 M2.1 37.4 L2.6 37.7 2.85 37.85 2.85 37.45 2.9 36.6 2.95 35.1 2.95 34.4 3.0 33.5 3.0 32.7 Q3.0 32.2 3.2 32.15 L3.15 32.1 2.65 31.75 2.55 31.3 2.4 31.1 1.95 30.9 1.8 30.95 1.45 30.9 1.4 32.85 1.4 33.3 1.35 33.5 1.35 34.9 1.25 35.55 1.25 35.75 1.4 36.05 1.6 36.4 1.65 36.7 1.75 36.85 1.75 37.0 1.8 37.05 1.8 37.25 2.1 37.4 M4.2 33.15 L3.65 32.95 3.65 33.45 3.45 35.1 3.3 38.0 3.35 38.15 3.35 38.45 3.35 39.0 3.45 39.15 3.75 39.25 4.05 39.2 4.15 39.2 4.45 39.2 4.45 39.1 4.5 38.1 4.6 36.45 4.6 35.65 4.65 34.65 4.65 33.75 4.7 33.3 4.65 33.25 4.35 33.15 4.2 33.1 4.2 33.15 M0.75 35.3 L0.8 34.9 0.8 34.6 0.45 34.7 -0.65 35.2 Q-1.1 35.35 -1.95 36.1 L-3.2 36.9 -3.7 37.25 -4.1 37.45 -4.1 37.5 -3.25 38.8 -1.25 40.5 0.9 42.35 1.75 42.7 2.9 43.1 5.2 43.55 5.1 43.25 3.35 39.7 3.1 39.7 Q2.7 39.5 2.85 38.6 L2.6 38.7 2.45 38.35 2.25 38.25 2.3 38.2 2.2 38.2 2.0 38.1 1.95 38.0 1.6 37.85 1.15 37.3 1.2 37.15 1.15 36.7 1.1 36.5 0.75 35.8 0.75 35.3 M7.4 35.2 L6.6 35.1 6.75 36.55 6.75 39.5 6.7 40.45 6.9 40.6 7.0 41.05 Q7.3 41.55 7.8 41.45 L8.0 41.45 8.35 41.35 8.4 40.6 8.3 39.85 8.3 39.1 8.15 37.4 8.0 35.9 8.0 35.75 8.05 35.75 7.8 35.2 7.4 35.2 M6.15 34.3 L5.65 34.3 5.2 34.2 5.2 34.65 5.15 36.45 5.1 38.2 4.9 39.6 4.9 39.7 5.1 40.3 5.5 40.3 6.15 40.35 6.15 39.95 6.2 38.15 6.15 36.6 6.1 35.75 6.05 35.1 6.15 34.6 6.15 34.55 6.25 34.3 6.15 34.3 M10.7 43.3 L10.6 43.2 10.5 43.2 10.35 43.2 9.35 42.85 9.05 42.75 Q8.65 42.6 8.6 42.3 L8.55 42.2 8.35 41.9 8.05 41.95 7.55 42.05 Q6.65 42.05 6.35 41.55 L6.25 41.2 6.15 40.9 Q4.75 40.95 4.5 40.5 L4.45 40.15 4.4 39.9 4.05 39.85 4.05 39.9 5.25 42.4 6.4 44.3 6.75 44.8 7.3 45.4 Q8.3 44.85 8.9 44.8 L9.6 44.8 10.0 45.0 10.05 45.0 10.7 45.3 10.7 45.35 10.8 45.35 10.85 45.4 11.9 46.1 13.0 46.75 Q13.9 47.2 14.15 47.55 L14.45 47.95 15.35 49.35 15.35 49.4 15.65 50.95 15.65 51.15 15.65 51.2 15.5 51.85 15.55 51.65 15.65 51.65 15.75 51.7 16.85 52.05 16.9 52.05 17.15 52.1 17.2 52.15 17.4 52.25 17.45 52.25 17.4 52.15 17.4 52.1 17.3 52.1 17.3 52.05 17.1 51.35 Q16.8 50.4 16.85 49.4 L16.85 49.3 Q16.85 48.7 17.0 48.0 L16.9 47.95 16.85 47.95 15.9 47.8 14.9 47.15 14.85 47.15 Q13.95 46.55 12.8 45.6 L11.85 44.6 11.1 43.85 10.95 43.55 10.7 43.3 M3.95 48.45 L4.85 47.9 5.95 47.05 6.6 46.2 6.85 45.75 6.35 45.0 5.65 44.15 4.9 44.15 1.8 43.55 0.35 42.7 -0.75 41.8 -1.7 41.05 -3.3 39.7 Q-4.5 38.7 -4.55 38.0 L-4.65 37.95 -6.65 39.95 Q-7.2 40.65 -7.25 41.85 L-6.9 43.0 -6.6 43.5 -6.55 43.75 -6.55 43.9 -5.45 44.85 -4.8 45.5 Q-4.65 45.6 -4.55 45.65 L-2.75 47.1 -1.25 47.85 Q0.1 48.55 0.5 48.8 L2.1 49.7 2.9 50.05 3.15 49.3 Q3.35 48.7 3.95 48.45 M5.5 48.35 L4.85 48.8 4.4 49.05 3.85 49.45 3.65 49.9 3.65 49.95 Q3.35 50.25 3.35 50.65 L3.35 50.8 Q3.2 51.35 3.2 51.85 L3.4 52.45 3.85 53.35 4.5 54.3 4.75 54.5 4.75 54.55 6.1 56.0 6.95 56.8 7.9 57.1 8.0 57.0 8.15 57.15 8.35 57.2 8.55 57.25 8.55 57.2 8.6 57.0 9.1 56.45 9.15 56.4 9.2 56.35 9.5 56.1 10.25 55.45 10.35 55.4 10.4 55.3 10.6 55.1 10.6 55.05 10.8 54.95 10.95 54.8 Q11.55 54.35 12.8 53.9 L14.7 53.4 14.6 53.2 14.6 53.1 14.6 53.0 14.6 52.75 14.6 52.6 14.8 52.0 14.95 51.1 14.95 50.2 14.65 49.35 14.05 48.5 13.45 47.7 12.7 47.35 12.15 47.15 11.75 46.8 11.3 46.4 10.35 46.0 9.75 45.6 9.25 45.6 9.2 45.6 7.85 45.85 7.8 46.0 7.55 46.1 7.5 46.3 7.4 46.75 7.05 47.05 6.65 47.45 5.5 48.35 M20.55 43.9 L21.25 43.6 21.75 43.65 21.9 43.65 22.35 43.9 Q22.85 44.15 22.85 44.75 L22.6 45.75 Q22.2 46.4 21.0 46.4 19.5 46.35 19.6 45.35 19.6 44.6 20.15 44.1 L20.55 43.9 M22.5 43.3 L22.15 43.1 Q21.45 42.55 20.15 43.45 L20.15 43.5 19.4 44.2 Q19.05 44.6 19.05 44.75 L19.1 45.85 19.45 46.55 19.85 46.95 Q22.4 47.0 23.2 46.25 L23.45 45.3 23.25 44.15 22.5 43.3 M23.7 46.6 L23.65 46.75 23.2 47.1 23.45 47.95 23.6 49.05 23.2 51.35 Q22.55 53.1 20.95 53.0 20.0 53.0 19.6 52.5 L18.9 51.35 Q18.65 50.7 18.75 49.65 L18.8 48.35 19.05 47.0 18.95 46.85 18.75 46.5 18.55 46.15 18.5 45.45 18.05 46.1 17.9 46.6 17.75 47.15 Q17.45 48.0 17.4 49.4 17.3 50.6 17.95 51.85 18.95 53.75 21.15 53.8 23.35 53.85 24.3 51.55 L24.4 51.25 24.8 49.55 24.8 49.25 24.8 48.9 24.8 48.0 24.65 47.05 24.1 45.95 23.95 45.65 23.95 45.75 23.95 45.85 23.95 45.95 23.9 46.0 23.9 46.15 23.7 46.6 M22.9 50.1 L22.95 49.65 22.95 49.05 22.9 48.35 22.85 48.05 22.6 47.45 22.55 47.35 22.45 47.35 21.65 47.55 20.7 47.55 19.65 47.5 19.6 47.8 19.4 48.45 19.3 49.55 Q19.25 50.3 19.5 51.15 19.95 52.35 20.95 52.4 22.2 52.45 22.8 50.75 L22.9 50.1 M33.8 25.45 L33.55 25.15 32.1 24.85 30.8 25.15 30.7 25.25 30.65 25.25 30.65 25.35 30.15 25.85 30.1 26.3 30.1 26.7 30.15 27.4 30.25 27.7 Q30.55 28.95 31.85 29.05 L32.2 29.05 Q33.25 28.95 33.85 28.3 L34.3 27.2 34.0 26.2 33.8 25.45 M31.2 30.0 L31.2 29.55 30.3 28.95 29.5 29.8 31.2 30.05 31.2 30.0 M31.2 30.75 L30.8 30.7 29.65 30.4 29.4 30.35 29.1 30.3 29.1 30.35 29.0 30.7 29.05 31.1 29.05 31.25 29.7 33.05 29.8 33.1 29.9 33.15 29.95 33.15 29.95 33.25 30.0 33.3 30.15 33.3 30.25 33.3 30.3 33.35 30.5 33.45 30.8 33.45 30.9 33.5 31.25 33.5 31.35 33.5 32.0 33.5 32.05 33.5 32.35 33.45 32.6 33.35 32.7 33.35 32.75 33.3 Q33.9 33.0 34.55 32.1 L34.95 31.25 34.85 31.25 34.1 31.1 33.9 31.05 32.15 30.85 32.05 30.8 31.2 30.75 M31.85 30.15 L32.7 30.2 32.7 29.55 31.85 29.6 31.75 29.6 31.75 30.0 31.85 30.15 M31.0 44.5 L31.85 43.75 32.75 42.75 32.75 42.7 32.5 42.55 32.5 40.85 32.45 38.85 32.45 36.45 32.35 34.8 32.45 34.0 32.0 34.1 32.0 34.25 31.6 35.5 31.45 35.65 31.15 36.4 30.8 37.05 29.95 38.4 29.15 39.7 28.95 39.95 27.9 41.3 26.75 42.75 25.25 44.2 24.4 44.95 24.65 45.45 25.25 46.85 25.4 47.55 26.25 47.2 Q27.5 46.95 28.1 46.55 L28.95 46.0 29.1 45.85 29.8 45.45 29.9 45.35 29.95 45.3 30.1 45.25 31.0 44.5 M28.3 39.75 L28.5 39.5 29.5 38.0 30.35 36.6 30.7 35.8 30.95 35.1 31.15 34.3 31.3 34.1 30.5 34.1 30.3 34.6 30.0 35.3 29.55 36.6 27.95 39.0 27.0 40.1 25.55 41.7 23.65 43.5 23.8 43.85 23.95 44.5 24.2 44.3 25.1 43.6 26.4 42.3 28.3 39.75 M35.4 35.25 L35.35 35.65 35.45 38.7 35.6 41.3 36.0 41.4 Q36.6 41.65 37.05 40.95 L37.2 40.65 37.1 40.15 37.15 39.15 37.05 38.25 36.95 37.4 36.8 36.5 36.8 35.5 36.55 34.4 35.7 34.75 35.4 34.9 35.4 35.25 M33.0 35.9 L33.0 36.5 33.05 37.65 33.0 42.15 33.9 42.2 35.15 41.95 35.1 41.85 Q34.85 41.65 34.8 40.65 L34.8 38.7 34.8 35.55 34.8 35.35 34.5 35.5 33.05 35.8 33.0 35.8 33.0 35.9 M37.1 33.75 L37.1 33.8 37.15 34.65 37.45 36.5 37.6 38.25 37.8 40.15 37.8 40.4 37.9 40.45 38.7 40.35 39.0 40.1 39.2 39.85 Q39.0 39.55 38.9 38.65 L38.65 36.55 38.25 34.55 38.05 33.25 37.55 33.55 37.1 33.75 M22.15 45.3 L22.2 44.8 Q22.3 44.5 21.9 44.3 21.6 44.15 21.15 44.3 L20.8 44.4 Q20.15 44.75 20.15 45.45 L20.4 45.65 21.0 45.8 Q21.85 45.8 22.15 45.4 L22.15 45.3 M27.45 47.65 L27.35 47.65 27.0 47.8 26.95 47.8 26.6 47.9 26.55 47.95 26.45 47.95 26.15 47.95 26.1 47.95 25.9 47.95 25.4 47.95 25.45 48.9 25.45 49.05 25.35 50.4 24.95 51.7 24.8 51.9 24.8 51.95 24.5 52.5 24.95 52.45 25.1 52.4 25.2 52.4 25.25 52.35 25.95 52.25 26.05 52.15 26.25 52.1 26.5 52.05 28.45 51.25 28.7 50.4 28.9 50.05 29.05 49.65 29.85 47.95 31.4 46.3 32.35 46.0 32.9 45.85 33.05 45.8 33.25 45.75 33.65 45.4 34.05 45.35 34.1 45.35 34.2 45.3 34.75 45.25 34.9 45.25 35.0 45.15 35.1 45.05 35.3 45.0 Q35.7 44.95 36.2 45.35 L36.5 45.0 36.55 44.95 37.95 43.05 38.7 42.05 39.25 41.0 39.3 40.55 38.9 40.95 38.25 41.2 Q37.8 41.25 37.5 41.55 L37.15 41.75 36.75 41.95 36.15 41.95 35.65 42.05 35.55 42.3 35.3 42.65 33.85 42.8 33.45 42.8 33.45 42.85 33.0 43.5 33.0 43.55 32.15 44.3 31.7 44.75 30.35 45.85 28.7 47.05 28.05 47.45 27.45 47.65 M37.75 48.05 L37.0 47.2 35.75 45.85 34.05 46.1 Q33.6 46.25 33.4 46.55 33.05 46.85 32.55 46.8 32.1 46.7 31.75 47.0 L31.1 47.65 30.35 48.5 29.55 50.1 29.0 51.65 29.4 53.25 29.7 54.45 30.3 54.65 30.65 54.9 31.7 55.4 33.05 56.35 33.45 56.8 33.8 57.35 34.3 58.3 34.3 58.4 34.75 58.4 36.45 58.1 36.95 57.65 38.7 55.85 39.8 54.1 40.4 53.0 40.55 52.25 40.45 51.25 40.4 51.15 40.4 51.1 40.25 50.95 40.2 50.7 40.0 50.3 40.0 50.25 39.55 49.75 39.4 49.7 39.3 49.55 38.9 49.2 38.75 49.15 38.7 49.05 37.75 48.05 M31.6 55.95 L31.0 55.65 30.65 55.45 30.5 55.4 29.55 55.1 29.5 55.1 28.05 56.3 26.45 57.65 25.95 58.1 25.45 58.7 25.05 59.2 22.3 61.55 20.65 63.15 21.15 63.55 21.25 63.65 21.45 63.8 21.85 64.15 22.4 64.5 23.45 65.1 23.7 65.2 24.6 66.1 24.8 66.5 25.25 67.0 25.25 67.05 25.95 67.95 26.25 67.5 26.7 67.15 27.75 65.7 29.95 62.8 Q31.0 61.2 32.15 60.1 L32.6 59.6 32.65 59.5 33.5 58.55 33.55 58.5 33.2 57.9 33.05 57.6 32.5 56.75 32.45 56.65 32.35 56.65 32.35 56.55 31.65 56.0 31.6 55.95 M34.05 61.35 L33.25 60.6 32.9 60.3 32.6 60.7 31.3 62.2 32.5 63.3 32.65 63.5 33.55 64.45 34.1 64.9 34.3 64.95 34.95 64.7 35.1 64.5 35.15 64.4 35.4 63.85 35.4 63.75 35.4 63.55 35.35 63.35 35.3 63.15 35.15 63.05 35.0 62.8 34.95 62.7 34.65 62.15 34.3 61.7 34.05 61.35 M38.05 58.75 L38.05 58.7 37.9 58.6 37.55 58.1 37.1 58.5 36.45 58.9 35.8 59.0 34.85 59.1 34.55 59.2 34.75 59.35 Q35.25 59.45 35.6 59.85 L35.6 59.95 35.65 59.95 36.15 60.6 36.45 60.9 36.6 61.2 37.75 62.6 38.0 63.0 38.65 63.8 Q39.35 63.3 39.65 62.55 L39.8 61.7 39.8 61.65 39.75 61.2 39.35 60.4 39.35 60.35 38.6 59.25 38.35 59.0 38.25 58.9 38.2 58.75 38.05 58.75 M37.1 64.5 L37.3 64.25 37.35 64.2 37.35 64.05 37.45 64.15 37.5 64.05 37.75 63.8 37.3 63.2 36.2 61.7 34.95 60.25 34.3 59.8 33.85 59.35 33.8 59.35 33.4 59.75 34.3 60.6 34.5 60.8 Q36.1 62.65 36.1 63.8 36.1 64.35 35.7 64.85 35.25 65.65 34.35 65.65 L34.25 65.65 Q33.55 65.65 32.85 64.85 L32.1 63.85 31.2 63.1 30.85 62.7 30.45 63.2 30.3 63.45 28.6 66.1 27.35 67.5 27.35 67.55 27.15 67.85 26.55 68.3 26.45 68.7 26.45 68.8 26.8 68.8 26.9 68.8 27.9 68.9 30.0 69.15 31.9 68.85 33.8 67.9 34.8 67.15 35.7 66.4 37.1 64.5 M28.45 52.0 L28.45 51.95 28.35 51.95 28.25 52.0 27.3 52.35 27.0 52.45 24.05 53.35 23.8 53.25 23.75 53.35 22.45 54.25 22.35 54.25 22.35 54.3 22.35 54.35 22.2 54.7 22.15 54.8 22.15 54.9 22.1 55.0 21.75 55.8 21.75 55.95 21.75 56.05 21.85 57.0 21.85 57.15 22.0 57.45 21.9 57.6 21.9 58.1 21.9 58.75 21.9 58.95 23.05 58.9 23.45 58.9 24.2 58.85 24.4 58.85 24.65 58.65 25.1 58.1 Q25.25 57.65 25.55 57.45 L26.15 57.0 Q26.3 56.85 26.45 56.8 L26.9 56.4 27.9 55.55 28.8 54.7 28.95 54.65 29.05 54.55 28.65 53.2 28.65 53.1 28.5 52.15 28.45 52.0 M19.65 58.9 L19.75 58.9 21.1 58.95 21.05 58.65 21.1 57.15 21.1 57.0 20.95 56.0 Q20.8 55.3 20.3 54.7 L19.95 54.3 Q18.65 53.9 17.9 52.95 16.7 52.85 15.4 52.35 L15.35 52.85 15.25 52.95 15.5 53.35 15.7 53.8 15.75 54.05 15.9 54.3 17.7 56.4 19.25 58.25 19.65 58.9 M20.15 62.6 L21.05 61.7 20.35 60.9 20.2 60.6 20.15 60.6 Q19.85 60.6 19.4 59.85 L18.85 58.9 18.2 58.0 17.55 57.1 15.8 55.4 Q15.1 54.6 14.9 54.05 L14.2 54.25 14.15 54.25 Q13.7 54.35 13.35 54.55 12.75 54.7 12.2 55.0 L12.15 55.05 11.25 55.55 11.05 55.6 10.8 55.85 10.25 56.25 10.2 56.3 9.65 56.85 9.55 57.0 9.15 57.6 9.05 57.85 9.95 58.9 Q10.05 59.35 10.7 60.05 L11.55 61.1 13.45 63.5 14.65 65.4 14.6 65.55 Q14.85 65.7 14.95 66.2 15.2 67.0 15.45 67.0 L16.3 67.0 16.55 67.0 16.6 66.95 17.2 66.0 17.2 65.95 17.3 65.75 Q17.55 65.55 17.7 65.5 L17.75 65.4 17.85 65.4 17.9 65.3 17.95 65.25 18.1 64.95 18.35 64.75 18.45 64.6 19.4 63.4 19.5 63.3 19.5 63.2 19.6 63.2 19.6 63.15 20.15 62.6 M20.7 60.3 Q20.75 60.4 20.95 60.4 L21.5 61.3 21.9 60.9 23.45 59.55 22.05 59.6 21.45 59.5 21.15 59.55 20.1 59.5 20.35 60.0 20.7 60.25 20.7 60.3 M16.45 70.5 L17.9 70.1 20.4 69.35 21.1 69.1 23.15 68.9 25.4 68.5 24.65 67.7 23.5 66.0 23.05 65.55 22.55 65.2 22.0 64.9 Q21.55 64.85 21.3 64.6 L20.15 63.75 20.1 63.8 18.1 65.85 17.9 66.35 17.4 66.9 Q17.25 67.0 17.15 67.45 L17.05 67.55 16.9 67.6 Q16.7 67.6 16.6 67.7 L16.4 67.7 16.15 67.7 15.85 67.7 Q14.8 67.7 14.5 67.3 L14.35 66.65 14.1 66.4 13.9 66.2 13.7 66.05 13.7 65.75 13.75 65.55 12.75 64.15 11.3 61.8 11.05 61.55 10.65 61.6 8.9 62.05 8.25 62.45 7.6 62.7 6.25 63.65 6.2 63.75 6.15 63.8 6.5 64.35 6.65 64.75 6.75 64.85 6.85 64.9 7.35 65.6 7.4 65.7 8.2 66.95 Q8.8 68.05 9.7 68.85 L9.95 69.05 10.0 69.05 10.05 69.1 10.05 69.15 Q11.7 70.35 13.95 70.55 L14.9 70.6 15.0 70.6 16.45 70.5 M35.7 67.4 L35.4 67.6 33.85 68.7 34.65 68.9 35.6 69.2 37.75 70.0 38.05 70.15 37.85 68.85 37.75 68.05 37.45 65.5 37.2 65.7 35.7 67.4 M3.8 56.3 L4.05 56.25 5.1 55.9 4.3 55.05 3.1 53.7 Q2.65 53.0 2.65 52.4 L2.55 51.95 2.65 51.2 2.85 50.6 -0.05 49.3 -0.6 49.0 -0.8 48.95 -0.95 49.3 -1.05 49.9 Q-1.05 51.25 0.05 52.85 L0.95 54.05 2.45 55.6 3.0 56.65 3.15 56.55 3.65 56.3 3.8 56.3 M9.25 61.15 L10.55 60.9 9.5 59.5 8.2 57.9 7.7 57.8 Q6.5 57.6 5.85 56.9 L5.5 56.45 5.3 56.55 4.0 56.9 3.4 57.25 2.85 57.45 2.65 57.45 2.5 57.45 3.05 58.3 3.6 60.05 4.3 61.75 5.15 63.45 5.3 63.3 6.1 62.8 6.6 62.45 7.0 62.2 7.05 62.2 7.15 62.05 9.25 61.15 M5.7 67.45 L5.5 68.95 7.1 68.95 8.6 68.95 8.85 68.95 8.3 68.4 7.8 67.8 Q7.55 67.0 6.5 65.55 L6.1 65.15 5.7 67.45" fill="#000000" fill-rule="evenodd" stroke="none"/>
      <path d="M40.05 12.6 L40.05 12.7 39.85 15.3 39.7 16.1 39.7 16.15 39.65 16.25 39.4 16.8 39.35 16.95 39.3 16.9 38.65 15.55 38.2 14.6 37.85 14.0 36.8 11.9 36.7 11.7 36.75 11.65 36.7 11.6 36.5 10.9 36.5 10.85 36.5 10.8 36.55 10.8 Q37.2 12.55 39.3 12.6 L40.05 12.6" fill="#a220f9" fill-rule="evenodd" stroke="none"/>
      <path d="M32.15 10.05 L32.45 9.95 33.45 9.3 33.8 10.65 Q34.05 11.8 34.5 12.15 L34.35 12.25 33.35 13.15 33.25 13.2 33.1 12.95 32.55 11.85 32.15 10.05 M25.95 14.3 L25.35 14.85 25.1 14.4 Q24.8 14.15 24.5 14.15 L24.35 14.15 25.2 13.45 Q25.75 13.6 26.0 13.9 L26.1 14.05 25.95 14.3 M24.75 15.85 L24.7 16.55 24.7 16.95 23.75 16.95 23.45 16.95 23.5 16.55 23.6 15.2 23.75 15.6 24.3 15.95 24.75 15.85 M19.5 3.45 L19.45 3.55 19.5 3.8 19.95 4.0 22.45 3.85 22.8 3.5 22.8 3.4 23.2 3.4 23.5 3.45 24.25 3.55 23.35 4.3 Q22.3 5.05 21.45 5.0 L20.25 4.85 19.05 4.65 18.75 4.6 18.5 4.6 Q18.0 4.6 17.65 4.25 L17.4 3.8 17.6 3.75 17.85 3.7 18.45 3.55 18.5 3.55 19.5 3.45 M18.8 14.05 L18.9 14.15 19.05 14.4 Q18.8 14.45 18.6 14.85 L18.45 15.2 18.35 15.2 17.65 14.5 17.45 14.4 17.45 14.35 Q17.45 13.9 18.05 13.95 L18.8 14.05 M19.9 15.8 L19.9 16.75 19.9 16.95 19.3 17.1 19.05 17.05 19.05 16.6 18.75 15.95 19.25 16.1 19.8 15.85 19.9 15.8 M9.9 10.05 L9.95 10.25 9.65 11.35 9.3 12.25 9.2 13.15 8.95 13.7 8.55 13.4 8.45 13.4 7.85 12.95 8.4 11.65 8.9 9.65 8.9 9.6 9.8 10.05 9.9 10.05 M13.2 25.1 L13.35 25.35 13.45 25.4 13.5 25.45 13.6 25.55 13.6 26.2 13.45 26.85 13.45 26.9 13.35 26.95 Q13.05 27.4 12.5 27.4 11.9 27.4 11.7 26.8 L11.5 26.1 11.7 25.55 Q11.85 25.15 12.25 25.1 L13.2 25.1 M13.65 31.15 L13.9 31.25 14.0 31.25 14.05 31.25 14.1 31.3 14.35 31.4 14.65 31.1 14.5 31.35 13.75 33.1 13.7 33.1 13.55 33.3 13.35 33.35 13.0 33.45 12.9 33.45 12.75 33.45 12.15 33.45 11.1 33.3 12.4 32.85 13.2 32.4 13.55 32.05 13.65 31.15 M16.85 49.3 L16.85 49.4 Q16.8 50.4 17.1 51.35 L16.1 51.1 15.65 50.95 15.35 49.4 15.35 49.35 14.45 47.95 14.45 47.9 15.4 48.6 15.75 48.75 16.1 48.9 16.45 49.2 16.85 49.3 M17.4 52.25 L17.2 52.15 17.4 52.15 17.4 52.25 M30.9 25.15 Q31.8 24.95 32.1 25.6 L32.3 26.5 32.0 27.2 Q31.7 27.7 30.9 27.65 L30.8 27.65 30.65 27.65 30.65 27.6 30.8 27.4 30.5 26.45 30.8 25.55 30.9 25.15 M29.7 30.95 L30.0 31.75 30.35 32.2 30.7 32.8 31.45 33.3 32.0 33.5 31.35 33.5 31.25 33.5 30.9 33.5 30.8 33.45 30.55 33.35 30.5 33.45 30.3 33.35 30.25 33.3 30.15 33.3 30.1 33.25 30.0 33.3 29.95 33.25 29.95 33.15 29.9 33.15 29.8 33.1 29.7 33.05 29.05 31.25 29.05 31.1 29.4 31.25 29.7 31.1 29.7 30.95 M25.45 49.05 L26.0 49.15 Q26.85 49.15 27.65 48.6 L28.2 48.05 28.45 49.15 28.9 50.05 28.7 50.4 28.6 50.5 Q28.2 50.5 26.75 51.15 L24.95 51.7 25.35 50.4 25.45 49.05 M28.1 47.6 L27.45 47.65 28.05 47.45 28.1 47.6 M21.85 64.15 L21.45 63.8 21.25 63.65 Q21.9 62.45 25.4 59.35 L26.5 58.05 27.0 57.45 27.7 56.9 28.25 56.4 28.9 55.9 29.5 55.15 29.5 55.1 29.55 55.1 30.5 55.4 30.65 55.45 29.7 56.5 28.5 57.65 27.3 58.85 26.7 59.45 26.25 60.0 23.9 62.4 22.8 63.5 22.35 63.75 21.85 64.15 M35.0 62.8 L35.15 63.05 35.3 63.15 35.35 63.35 35.4 63.55 35.1 63.35 34.3 63.4 34.0 63.9 34.0 64.35 34.0 64.65 34.0 64.75 33.65 64.45 33.45 63.65 Q33.5 62.9 34.5 62.8 L35.0 62.8 M35.1 64.5 L34.95 64.7 34.8 64.8 35.1 64.5 M39.35 60.35 L39.35 60.4 39.75 61.2 39.35 61.1 Q38.9 61.1 38.6 61.55 38.3 61.85 38.3 62.25 L38.3 62.5 38.9 62.7 39.65 62.55 Q39.25 63.15 38.5 63.1 L38.0 63.0 37.75 62.6 37.65 62.45 37.6 61.7 37.75 61.1 Q37.85 60.9 38.65 60.45 L39.35 60.35 M14.2 54.25 L15.55 55.85 17.25 58.4 19.05 60.6 Q20.0 61.8 20.15 62.6 L19.6 63.15 19.6 63.2 19.5 63.2 19.5 63.3 19.4 63.4 18.4 62.0 16.3 59.05 14.5 56.75 Q13.45 55.3 13.35 54.55 13.7 54.35 14.15 54.25 L14.2 54.25" fill="#ddbd0b" fill-rule="evenodd" stroke="none"/>
      <path d="M34.5 12.15 Q34.05 11.8 33.8 10.65 L33.45 9.3 34.1 8.8 34.55 10.1 35.15 11.8 35.15 11.85 Q34.8 11.85 34.5 12.15 M25.35 14.85 L25.1 15.15 24.75 15.85 24.3 15.95 23.75 15.6 23.6 15.2 23.6 14.85 23.85 14.6 23.9 14.55 24.35 14.15 24.5 14.15 Q24.8 14.15 25.1 14.4 L25.35 14.85 M19.5 3.45 L22.15 3.4 22.45 3.4 22.8 3.4 22.8 3.5 22.45 3.85 19.95 4.0 19.5 3.8 19.45 3.55 19.5 3.45 M19.05 14.4 L19.35 14.55 19.35 14.7 19.65 14.75 19.75 14.75 19.85 15.35 19.85 15.4 19.9 15.8 19.8 15.85 19.25 16.1 18.75 15.95 18.75 15.85 18.55 15.45 18.55 15.4 18.45 15.3 18.45 15.25 18.45 15.2 18.6 14.85 Q18.8 14.45 19.05 14.4 M7.85 12.95 L7.75 12.85 7.6 12.7 7.15 12.35 7.15 12.3 7.7 11.05 8.05 9.15 8.45 9.45 8.85 9.6 8.9 9.6 8.9 9.65 8.4 11.65 7.85 12.95 M13.35 26.95 L13.45 26.9 13.45 26.85 13.6 26.2 13.6 25.55 13.9 25.9 13.9 26.35 13.9 26.85 13.6 27.75 Q13.15 29.05 11.9 29.05 L11.7 29.05 11.7 28.95 12.45 28.6 12.9 28.2 13.2 27.75 13.3 27.3 13.35 26.95 M14.4 30.5 L14.5 30.5 14.6 30.4 14.8 30.4 14.8 30.6 14.7 30.65 14.65 30.9 14.65 31.1 14.35 31.4 14.1 31.3 14.05 31.25 14.0 31.25 13.9 31.25 13.65 31.15 13.7 31.1 13.95 30.6 14.25 30.5 14.25 30.8 14.35 30.6 14.4 30.5 M14.85 47.15 L14.9 47.15 15.9 47.8 16.85 47.95 16.9 47.95 17.0 48.0 Q16.85 48.7 16.85 49.3 L16.45 49.2 16.1 48.9 15.75 48.75 15.4 48.6 14.45 47.9 14.45 47.85 14.7 47.35 14.7 47.25 14.85 47.15 M31.85 29.05 Q30.55 28.95 30.25 27.7 L30.15 27.4 30.1 26.7 30.1 26.3 30.15 25.85 30.65 25.35 30.65 25.25 30.7 25.25 30.8 25.15 30.9 25.15 30.8 25.55 30.5 26.45 30.8 27.4 30.65 27.6 30.65 27.65 30.8 27.65 30.85 27.8 31.0 28.1 31.2 28.45 31.6 28.65 31.85 28.95 31.85 29.05 M29.65 30.4 L29.65 30.75 29.65 30.8 29.7 30.95 29.7 31.1 29.4 31.25 29.05 31.1 29.0 30.7 29.1 30.35 29.1 30.3 29.4 30.35 29.65 30.4 M25.45 49.05 L25.45 48.9 25.4 47.95 25.9 47.95 26.1 47.95 26.15 47.95 26.45 47.95 26.55 47.95 26.6 47.9 26.95 47.8 27.0 47.8 27.35 47.65 27.45 47.65 28.1 47.6 28.15 47.7 28.15 47.8 28.2 48.05 27.65 48.6 Q26.85 49.15 26.0 49.15 L25.45 49.05 M21.25 63.65 L21.15 63.55 20.65 63.15 22.3 61.55 25.05 59.2 25.45 58.7 25.95 58.1 26.45 57.65 28.05 56.3 29.5 55.1 29.5 55.15 28.9 55.9 28.25 56.4 27.7 56.9 27.0 57.45 26.5 58.05 25.4 59.35 Q21.9 62.45 21.25 63.65 M35.4 63.55 L35.4 63.75 35.4 63.85 35.15 64.4 35.1 64.5 34.8 64.8 34.65 64.8 34.1 64.8 34.0 64.75 34.0 64.65 34.0 64.35 34.0 63.9 34.3 63.4 35.1 63.35 35.4 63.55 M39.75 61.2 L39.8 61.65 39.8 61.7 39.65 62.55 38.9 62.7 38.3 62.5 38.3 62.25 Q38.3 61.85 38.6 61.55 38.9 61.1 39.35 61.1 L39.75 61.2 M14.2 54.25 L14.9 54.05 Q15.1 54.6 15.8 55.4 L17.55 57.1 18.2 58.0 18.85 58.9 19.4 59.85 Q19.85 60.6 20.15 60.6 L20.2 60.6 20.35 60.9 21.05 61.7 20.15 62.6 Q20.0 61.8 19.05 60.6 L17.25 58.4 15.55 55.85 14.2 54.25" fill="#efe0c2" fill-rule="evenodd" stroke="none"/>
      <path d="M10.1 9.5 L9.5 9.2 Q9.2 9.2 8.6 8.8 L8.2 8.6 8.75 7.4 9.25 6.0 Q10.0 4.3 11.35 3.25 L12.15 2.55 12.85 1.9 Q13.0 1.65 13.6 1.3 L14.5 0.7 15.45 0.15 16.45 -0.2 18.05 -0.7 22.4 -1.05 24.25 -1.0 26.25 -0.15 26.9 0.45 27.65 1.05 28.45 1.5 29.1 2.1 29.65 2.6 30.45 3.25 31.6 4.5 32.35 5.75 33.25 7.35 33.8 8.2 33.0 8.7 32.05 9.45 32.0 9.4 31.8 8.25 31.1 7.5 Q30.35 6.95 29.8 6.85 L29.5 7.8 29.5 8.75 29.1 9.95 29.0 10.5 28.95 10.5 28.8 10.5 28.3 7.3 Q27.75 5.05 27.25 4.25 L26.6 3.65 26.3 3.45 25.2 3.1 22.8 2.65 20.55 2.8 16.85 3.35 Q15.25 3.7 15.2 4.15 L15.1 4.2 14.6 4.75 14.4 5.2 13.65 7.35 13.45 9.5 13.45 10.25 13.35 10.25 12.85 10.1 12.7 9.25 12.65 7.0 Q12.1 5.15 11.05 7.0 L10.4 8.55 10.1 9.45 10.1 9.5 M37.65 26.8 L37.8 26.6 Q38.05 26.25 38.3 26.25 L39.4 25.0 40.4 23.9 41.3 26.9 41.85 28.8 41.2 29.3 Q40.85 29.45 40.65 29.85 L40.2 30.3 39.55 30.8 Q39.4 30.85 39.4 31.05 L39.35 31.35 38.75 31.75 38.05 32.05 37.95 30.95 37.8 28.45 37.65 26.8 M26.4 17.6 L26.45 17.4 26.4 17.25 26.7 16.9 Q27.0 16.35 27.9 16.2 L29.65 15.95 Q30.95 15.8 31.8 15.2 L33.8 13.7 33.5 15.65 33.05 18.25 Q32.65 19.85 32.3 19.8 L32.15 19.8 32.15 19.75 32.15 19.3 31.8 19.0 31.45 19.1 31.45 18.15 Q31.6 16.8 31.4 16.7 L30.15 16.9 26.4 17.6 M31.1 19.85 L31.1 20.0 30.85 20.0 31.1 19.85 M23.3 19.9 L22.75 20.1 22.55 19.9 23.3 19.9 M19.25 19.75 L18.9 19.85 18.55 19.75 19.25 19.75 M14.5 19.45 L14.45 19.45 14.15 19.35 14.5 19.45 M12.85 18.45 L12.75 18.4 12.45 18.5 12.3 18.85 12.2 18.85 12.2 18.9 11.85 18.9 11.05 17.15 Q10.65 16.1 10.7 15.35 L10.8 14.95 13.05 15.65 14.9 15.9 16.4 16.2 16.85 16.6 16.9 16.65 17.2 17.45 17.3 17.65 14.15 17.0 Q13.2 17.0 13.0 17.25 12.85 17.4 12.8 18.05 L12.85 18.45 M34.05 16.05 L34.2 15.55 34.3 14.05 34.3 13.25 35.3 12.4 36.5 14.85 38.0 17.85 38.05 17.9 37.9 18.05 37.05 18.95 36.55 19.15 36.25 19.55 36.25 20.0 36.1 20.35 36.05 20.45 Q35.55 18.8 34.25 16.05 L34.05 16.05 M32.1 21.0 L32.05 20.65 32.0 20.35 32.15 20.45 32.1 21.0 M8.9 21.4 L8.15 21.0 Q7.45 20.55 7.3 20.3 L6.75 19.9 6.5 19.75 6.2 19.3 6.0 18.9 5.5 18.5 4.9 18.15 4.6 17.85 4.7 17.65 6.05 15.15 7.0 13.05 7.4 13.35 9.9 14.7 10.1 14.75 10.1 15.7 10.2 15.95 9.95 15.95 9.35 18.15 8.9 20.65 8.9 21.4 M7.8 34.55 L6.85 34.4 6.75 33.95 Q6.55 33.6 5.3 33.6 L5.3 33.0 4.75 32.6 3.9 32.35 3.65 31.55 3.3 31.3 2.85 31.1 2.85 30.85 2.7 30.7 2.15 30.25 2.0 30.25 1.6 30.25 1.55 30.25 1.6 29.3 1.8 27.75 2.6 24.1 3.0 24.45 3.05 24.5 3.75 25.0 4.3 25.65 5.2 26.1 5.35 26.25 5.35 26.2 5.5 26.25 5.85 26.5 6.1 26.85 6.85 27.15 7.55 27.4 8.35 28.0 8.3 28.3 8.3 29.35 8.3 30.2 8.25 30.35 8.2 30.35 8.05 30.4 8.05 30.8 8.15 31.15 8.0 32.15 7.85 33.8 7.8 34.45 7.8 34.55" fill="#1c181d" fill-rule="evenodd" stroke="none"/>
      <path d="M41.15 30.05 L41.2 29.95 41.85 29.55 42.0 29.5 42.15 29.9 Q42.75 31.75 43.15 34.25 L43.4 35.3 42.95 35.65 42.75 34.65 42.35 33.0 42.2 32.15 41.9 31.3 41.5 30.4 41.15 30.05 M41.35 31.9 L41.9 33.5 42.25 35.5 42.4 36.1 42.3 36.3 42.45 36.6 42.65 36.9 42.3 37.3 41.75 37.5 41.5 37.7 41.2 36.45 40.85 34.4 Q40.7 32.85 40.15 31.75 L39.95 31.4 40.45 30.9 40.95 30.65 41.35 31.9 M41.2 38.25 L40.7 39.0 40.2 39.1 39.65 39.2 39.4 37.9 39.1 35.55 38.8 34.55 38.65 33.45 38.65 32.9 38.6 32.55 Q38.7 32.45 39.15 32.25 L39.7 32.0 39.95 33.1 40.25 35.05 40.55 36.95 Q40.85 38.2 41.2 38.25 M32.15 10.05 L32.55 11.85 33.1 12.95 33.25 13.2 32.45 13.95 31.45 14.7 30.95 14.95 30.5 15.2 29.65 15.4 29.65 14.7 29.65 13.35 29.5 11.45 29.55 11.0 Q30.5 10.9 32.15 10.05 M25.85 4.4 L25.75 4.3 25.85 4.25 25.85 4.4 M28.2 10.85 L28.1 12.2 26.7 13.6 25.95 14.3 26.1 14.05 26.0 13.9 Q25.75 13.6 25.2 13.45 L25.55 13.15 26.75 12.15 27.3 11.2 27.4 9.95 27.6 10.25 28.2 10.85 M24.7 16.95 L24.7 17.75 24.6 17.75 24.2 17.8 24.1 17.75 23.3 17.65 23.2 17.6 23.45 16.95 23.75 16.95 24.7 16.95 M24.25 3.55 L24.65 3.65 Q24.35 3.8 24.35 4.2 L24.2 4.85 23.8 5.55 22.8 7.2 Q22.2 7.9 21.05 7.9 20.2 7.85 18.65 5.85 L17.65 4.4 17.1 3.9 17.2 3.85 17.4 3.8 17.65 4.25 Q18.0 4.6 18.5 4.6 L18.75 4.6 19.05 4.65 20.25 4.85 21.45 5.0 Q22.3 5.05 23.35 4.3 L24.25 3.55 M32.45 23.35 L33.35 23.15 33.4 24.05 33.45 24.4 32.45 24.15 32.45 24.0 32.35 23.35 32.45 23.35 M36.25 22.05 L36.6 23.6 37.0 25.25 37.05 25.55 37.1 25.8 37.15 25.9 37.1 25.9 37.2 26.25 37.1 26.45 37.05 26.5 37.1 26.5 36.75 26.85 36.25 27.15 35.8 24.15 35.65 23.35 35.45 22.65 35.4 22.0 35.7 21.7 36.1 21.3 36.25 22.05 M36.75 21.5 L36.55 20.75 36.75 20.3 Q36.8 19.85 37.0 19.7 L37.35 20.65 37.9 21.95 38.35 23.75 Q38.5 24.45 38.95 24.5 L37.8 25.75 37.5 24.4 37.1 23.05 36.95 22.25 36.75 21.5 M38.35 18.7 L39.2 20.95 40.1 23.3 39.65 23.75 39.3 24.15 38.35 21.4 37.45 19.35 37.9 19.0 38.35 18.7 M34.95 22.2 L34.9 22.5 35.0 23.75 35.35 25.05 35.45 26.65 Q35.6 27.4 35.85 27.6 L35.8 27.65 35.45 28.0 34.5 28.4 34.85 27.2 Q34.9 25.8 34.25 25.0 L34.3 24.85 34.1 24.45 33.95 24.1 33.9 23.3 33.8 22.75 Q34.25 22.3 34.55 22.3 L34.95 22.2 M15.2 9.4 L15.2 9.45 15.4 10.65 Q15.7 11.35 16.85 12.15 L17.4 12.75 17.95 13.4 18.8 14.05 18.05 13.95 Q17.45 13.9 17.45 14.35 L17.45 14.4 16.4 13.65 15.25 12.6 Q14.5 12.0 14.45 11.65 L14.1 10.05 Q14.25 9.95 15.2 9.4 M19.9 16.95 L20.0 17.55 19.05 17.75 19.05 17.45 19.05 17.05 19.3 17.1 19.9 16.95 M18.45 15.25 L18.35 15.2 18.45 15.2 18.45 15.25 M12.9 10.8 L12.85 12.0 12.8 13.05 12.85 14.45 13.0 15.05 11.4 14.6 9.7 13.95 8.95 13.7 9.2 13.15 9.3 12.25 9.65 11.35 9.95 10.25 9.9 10.05 11.8 10.5 12.9 10.8 M17.95 17.6 L17.75 17.4 17.75 17.35 17.95 17.6 M4.6 18.75 L4.35 19.25 3.85 20.85 3.6 21.45 3.35 22.05 2.9 23.45 2.9 23.65 2.7 23.6 3.0 22.7 3.8 20.2 Q4.0 19.2 4.35 18.4 L4.6 18.75 M4.65 25.25 L4.35 24.85 4.2 24.5 4.3 24.4 4.3 23.65 4.5 22.8 4.7 22.05 5.15 20.55 5.4 19.3 5.65 19.45 5.7 19.65 5.15 22.0 4.65 25.05 4.65 25.25 M6.4 20.5 L6.5 20.5 6.9 20.7 6.85 22.2 6.75 23.55 6.6 24.9 6.4 26.25 6.25 26.1 6.0 25.75 5.65 25.65 5.95 24.75 6.1 23.25 6.15 22.5 6.15 21.7 6.35 20.75 6.4 20.5 M9.05 27.7 L8.25 27.15 8.65 26.2 8.85 24.7 9.05 23.45 9.25 22.1 9.65 22.45 10.1 22.7 10.05 23.65 10.05 24.3 10.1 24.5 9.95 24.65 Q9.1 25.45 9.05 26.95 L9.1 27.65 9.05 27.7 M7.4 22.95 L7.45 21.7 7.4 21.2 7.6 21.4 Q7.85 21.65 8.4 21.85 L8.75 21.95 8.6 22.25 8.6 22.65 8.35 24.05 7.8 26.9 7.4 26.8 6.85 26.6 7.3 25.0 7.4 22.95 M10.7 22.95 L10.7 22.85 11.35 23.05 11.5 23.25 11.8 23.35 11.8 23.55 11.8 24.1 10.55 24.25 10.6 23.6 10.7 22.95 M15.5 35.45 L15.9 34.7 16.15 33.9 16.4 33.15 17.3 34.4 18.55 35.7 19.45 36.95 17.4 36.45 15.65 35.55 15.5 35.5 15.5 35.45 M24.5 36.8 L25.15 35.95 26.95 33.45 27.3 33.7 27.6 34.0 27.75 34.45 27.9 34.75 28.2 35.45 Q27.95 35.5 27.75 35.65 L25.0 36.65 24.5 36.8 M26.7 32.7 L26.75 32.7 26.75 32.8 26.7 32.7 M13.2 25.1 L12.25 25.1 Q11.85 25.15 11.7 25.55 L11.5 26.1 11.7 26.8 Q11.9 27.4 12.5 27.4 13.05 27.4 13.35 26.95 L13.3 27.3 13.2 27.75 12.9 28.2 12.45 28.6 11.7 28.95 11.7 29.05 Q10.55 28.9 10.0 28.15 9.6 27.65 9.6 27.1 L9.95 26.7 10.5 26.0 11.15 25.35 11.55 24.75 11.9 24.75 13.2 25.1 M11.0 30.15 L11.0 29.5 11.85 29.6 11.95 29.6 11.95 30.0 11.85 30.05 11.0 30.15 M14.4 30.5 L14.35 30.6 14.25 30.8 14.25 30.5 14.4 30.5 M13.95 30.6 L13.7 31.1 13.65 31.15 13.55 32.05 13.2 32.4 12.4 32.85 11.1 33.3 Q10.35 33.1 9.7 32.6 L11.45 30.8 12.85 30.7 13.95 30.6 M9.5 32.35 L9.3 32.2 9.5 32.25 Q9.35 32.25 9.5 32.35 M11.85 43.0 L11.45 43.0 11.25 42.8 11.25 42.75 11.05 42.55 11.0 42.35 11.0 42.3 10.95 42.3 10.95 41.25 10.85 38.25 10.85 37.5 10.8 36.8 10.8 36.7 11.45 36.85 11.4 37.35 11.4 38.85 11.55 40.4 11.7 41.2 11.85 41.95 11.85 42.8 11.85 43.0 M9.6 36.05 L9.6 36.85 Q9.55 38.8 9.65 39.95 L9.6 41.55 9.65 42.35 9.3 42.15 9.2 42.15 9.1 41.75 8.95 41.45 8.95 41.2 8.85 38.25 8.8 37.5 8.75 36.7 8.75 36.1 8.85 36.1 9.6 36.05 M2.4 31.1 L2.2 32.4 2.1 34.45 2.1 35.3 2.0 36.6 2.0 37.05 2.1 37.4 1.8 37.25 1.8 37.05 1.75 37.0 1.75 36.85 1.65 36.7 1.6 36.4 1.4 36.05 1.25 35.75 1.25 35.55 1.35 34.9 1.35 33.5 1.4 33.3 1.4 32.85 1.45 30.9 1.8 30.95 1.95 30.9 2.4 31.1 M4.05 39.2 L3.75 39.25 3.45 39.15 3.35 39.0 3.35 38.45 3.35 38.15 3.3 38.0 3.45 35.1 3.65 33.45 3.65 32.95 4.2 33.15 4.2 34.1 4.15 35.2 4.05 35.95 4.0 38.65 4.05 39.2 M8.0 41.45 L7.8 41.45 Q7.3 41.55 7.0 41.05 L6.9 40.6 6.7 40.45 6.75 39.5 6.75 36.55 6.6 35.1 7.4 35.2 7.35 36.2 7.35 37.4 7.4 39.1 7.5 40.5 7.6 41.2 7.75 41.35 7.9 41.4 8.0 41.45 M5.65 34.3 L5.5 37.0 5.55 39.15 5.5 40.2 5.5 40.3 5.1 40.3 4.9 39.7 4.9 39.6 5.1 38.2 5.15 36.45 5.2 34.65 5.2 34.2 5.65 34.3 M6.15 34.55 L6.15 34.3 6.25 34.3 6.15 34.55 M10.8 43.45 L10.7 43.3 10.95 43.55 10.8 43.45 M11.85 44.6 L12.8 45.6 Q13.95 46.55 14.85 47.15 L14.7 47.25 14.7 47.35 14.45 47.85 14.45 47.9 14.45 47.95 14.15 47.55 Q13.9 47.2 13.0 46.75 L11.9 46.1 10.85 45.4 10.8 45.35 11.4 44.95 11.85 44.6 M17.4 52.15 L17.45 52.25 17.4 52.25 17.4 52.15 M15.75 51.7 L15.65 51.65 15.7 51.55 15.7 51.65 15.75 51.7 M30.8 25.15 L32.1 24.85 33.55 25.15 33.8 25.45 33.8 25.5 33.55 26.7 32.85 28.05 32.2 29.05 31.85 29.05 31.85 28.95 31.6 28.65 31.2 28.45 31.0 28.1 30.85 27.8 30.8 27.65 30.9 27.65 Q31.7 27.7 32.0 27.2 L32.3 26.5 32.1 25.6 Q31.8 24.95 30.9 25.15 L30.8 25.15 M29.65 30.4 L30.8 30.7 31.2 30.75 31.0 31.1 30.65 31.8 30.8 32.1 31.7 31.3 32.15 30.85 33.9 31.05 33.5 31.4 33.15 31.75 32.6 32.55 32.05 33.45 32.05 33.5 32.0 33.5 31.45 33.3 30.7 32.8 30.35 32.2 30.0 31.75 29.7 30.95 29.65 30.8 29.65 30.75 29.65 30.4 M31.85 30.15 L31.75 30.0 31.75 29.6 31.85 29.6 32.7 29.55 32.7 30.2 31.85 30.15 M30.5 33.45 L30.55 33.35 30.8 33.45 30.5 33.45 M30.15 33.3 L30.0 33.3 30.1 33.25 30.15 33.3 M33.05 35.8 L34.5 35.5 34.8 35.35 34.8 35.55 34.8 38.7 34.8 40.65 Q34.85 41.65 35.1 41.85 L35.15 41.95 33.9 42.2 33.0 42.15 33.05 37.65 33.0 36.5 33.0 35.9 33.05 35.8 M35.4 35.25 L35.4 34.9 35.7 34.75 36.55 34.4 36.8 35.5 36.8 36.5 36.95 37.4 37.05 38.25 37.15 39.15 37.1 40.15 37.2 40.65 37.05 40.95 Q36.6 41.65 36.0 41.4 L35.6 41.3 35.45 38.7 35.35 35.65 35.4 35.25 M37.1 33.75 L37.55 33.55 38.05 33.25 38.25 34.55 38.65 36.55 38.9 38.65 Q39.0 39.55 39.2 39.85 L39.0 40.1 38.7 40.35 37.9 40.45 37.8 40.4 37.8 40.15 37.6 38.25 37.45 36.5 37.15 34.65 37.1 33.8 37.1 33.75 M28.2 48.05 L28.15 47.8 28.15 47.7 28.1 47.6 28.05 47.45 28.7 47.05 30.35 45.85 31.7 44.75 32.35 45.45 32.9 45.85 32.35 46.0 31.4 46.3 29.85 47.95 29.05 49.65 28.9 50.05 28.45 49.15 28.2 48.05 M26.5 52.05 L26.25 52.1 26.25 52.05 26.3 51.95 26.45 52.0 26.5 52.05 M30.65 55.45 L31.0 55.65 31.6 55.95 31.45 55.95 31.2 56.45 30.55 57.15 29.4 58.4 27.95 59.8 25.7 62.3 Q23.9 64.4 23.7 65.2 L23.45 65.1 22.4 64.5 21.85 64.15 22.35 63.75 22.8 63.5 23.9 62.4 26.25 60.0 26.7 59.45 27.3 58.85 28.5 57.65 29.7 56.5 30.65 55.45 M33.05 57.6 L33.2 57.9 33.55 58.5 33.5 58.55 32.65 59.5 32.6 59.6 32.15 60.1 Q31.0 61.2 29.95 62.8 L27.75 65.7 26.7 67.15 26.25 67.5 25.95 67.95 25.25 67.05 26.9 65.1 29.2 62.3 31.4 59.65 33.05 57.6 M34.65 62.15 L34.95 62.7 35.0 62.8 34.5 62.8 Q33.5 62.9 33.45 63.65 L33.65 64.45 34.0 64.75 34.1 64.8 34.65 64.8 34.8 64.8 34.95 64.7 34.3 64.95 34.1 64.9 33.55 64.45 32.65 63.5 32.9 63.2 33.2 62.65 33.65 62.5 34.25 62.4 34.65 62.15 M38.35 59.0 L38.6 59.25 39.35 60.35 38.65 60.45 Q37.85 60.9 37.75 61.1 L37.6 61.7 37.65 62.45 37.75 62.6 36.6 61.2 36.45 60.9 36.8 60.4 37.1 59.95 Q37.35 59.65 38.0 59.45 L38.35 59.0 M39.65 62.55 Q39.35 63.3 38.65 63.8 L38.0 63.0 38.5 63.1 Q39.25 63.15 39.65 62.55 M19.4 63.4 L18.45 64.6 18.35 64.75 17.0 62.45 15.1 60.0 13.35 56.85 12.2 55.0 Q12.75 54.7 13.35 54.55 13.45 55.3 14.5 56.75 L16.3 59.05 18.4 62.0 19.4 63.4 M17.3 65.75 L17.2 65.95 17.15 65.65 17.3 65.75 M16.3 67.0 L15.45 67.0 Q15.2 67.0 14.95 66.2 14.85 65.7 14.6 65.55 L14.65 65.4 13.45 63.5 11.55 61.1 10.7 60.05 Q10.05 59.35 9.95 58.9 L9.05 57.85 9.15 57.6 9.55 57.0 9.65 56.85 Q9.95 57.75 10.7 58.85 L12.75 61.55 14.65 64.7 Q15.7 66.5 16.3 67.0" fill="#cc9d3c" fill-rule="evenodd" stroke="none"/>
      <path d="M43.35 46.7 L43.35 47.05 Q43.35 47.55 42.65 47.9 L40.4 48.3 Q39.25 48.2 38.95 47.6 L38.8 47.0 Q38.8 46.4 38.95 46.25 39.2 45.8 40.15 45.75 L43.15 45.95 43.25 46.3 43.35 46.7 M27.65 7.3 L27.75 7.45 28.15 9.45 28.2 10.85 27.6 10.25 27.4 9.95 27.4 9.6 27.35 8.25 26.9 6.75 27.45 7.1 27.65 7.3 M24.65 3.65 L25.25 3.75 25.05 4.0 Q24.75 4.3 24.6 4.85 L24.3 5.6 23.45 7.1 22.75 8.2 20.2 8.1 19.95 8.15 19.9 8.15 19.6 7.45 18.9 6.75 18.6 6.45 17.9 5.5 17.0 4.4 16.6 4.15 16.6 4.1 17.0 3.9 17.1 3.9 17.65 4.4 18.65 5.85 Q20.2 7.85 21.05 7.9 22.2 7.9 22.8 7.2 L23.8 5.55 24.2 4.85 24.35 4.2 Q24.35 3.8 24.65 3.65 M28.15 13.1 L28.65 12.25 28.75 11.0 29.1 11.05 29.55 11.0 29.5 11.45 29.65 13.35 29.65 14.7 29.65 15.4 28.1 15.6 28.2 15.4 28.2 14.5 28.2 13.7 28.15 13.1 M14.2 7.75 L15.7 6.85 15.35 8.2 15.2 9.4 Q14.25 9.95 14.1 10.05 L14.0 9.55 14.2 7.75 M12.9 10.8 L13.5 10.9 13.6 10.85 13.7 11.45 14.2 12.4 14.25 12.5 Q14.2 13.15 14.6 14.45 L14.7 14.95 14.85 15.3 13.5 15.2 13.15 15.15 13.0 15.05 12.85 14.45 12.8 13.05 12.85 12.0 12.9 10.8 M4.6 18.75 L4.7 18.85 4.85 18.95 4.8 19.25 4.7 19.65 4.65 20.35 4.4 21.15 3.9 22.8 Q3.65 23.4 3.65 24.1 L3.2 23.9 3.1 23.75 2.9 23.65 2.9 23.45 3.35 22.05 3.6 21.45 3.85 20.85 4.35 19.25 4.6 18.75 M4.65 25.25 L4.65 25.05 5.15 22.0 5.7 19.65 5.8 19.85 5.85 20.0 Q5.7 20.05 5.7 20.25 L5.65 21.1 5.55 22.65 5.35 24.1 5.15 25.45 4.65 25.25 M15.5 35.45 L15.45 35.45 15.05 35.15 15.05 35.1 15.0 35.1 14.85 34.8 14.6 34.45 14.5 34.3 14.4 34.0 14.25 33.85 14.2 33.8 14.1 33.55 14.25 33.35 14.65 32.95 14.85 32.5 15.25 31.4 15.35 30.7 15.35 30.65 16.85 32.0 17.9 32.6 17.9 32.7 18.2 33.25 18.75 33.8 19.5 34.9 20.0 35.5 20.6 36.0 21.05 36.4 22.2 36.7 Q22.75 36.7 24.5 35.1 L26.1 33.1 26.1 33.05 26.45 32.85 26.7 32.7 27.95 31.65 28.35 31.3 28.75 32.35 28.95 32.85 29.2 33.3 29.8 33.85 29.8 33.9 29.45 34.6 28.75 35.1 28.65 35.2 28.25 35.35 28.2 35.45 27.9 34.75 27.75 34.45 27.6 34.0 27.3 33.7 26.95 33.45 25.15 35.95 24.5 36.8 23.6 37.0 21.6 37.15 19.45 36.95 18.55 35.7 17.3 34.4 16.4 33.15 16.15 33.9 15.9 34.7 15.5 35.45 M26.7 32.7 L26.75 32.8 26.75 32.7 26.7 32.7 M9.6 27.1 L9.6 27.05 9.95 25.95 10.45 25.05 Q10.85 24.75 11.55 24.75 L11.15 25.35 10.5 26.0 9.95 26.7 9.6 27.1 M9.7 32.6 L9.6 32.5 9.5 32.35 Q9.35 32.25 9.5 32.25 L9.3 32.2 9.25 32.2 9.2 32.1 9.1 31.9 8.65 30.95 9.1 30.95 11.45 30.8 9.7 32.6 M11.85 43.0 L11.85 42.8 11.85 41.95 11.7 41.2 11.55 40.4 11.4 38.85 11.4 37.35 11.45 36.85 12.0 36.9 12.15 36.9 12.25 38.9 12.65 42.65 12.1 42.85 11.85 43.0 M9.6 36.05 L9.7 36.05 9.95 36.0 10.2 36.3 10.25 36.8 10.35 37.7 10.35 39.5 10.35 41.55 10.35 42.35 10.35 42.4 10.1 42.4 9.65 42.35 9.6 41.55 9.65 39.95 Q9.55 38.8 9.6 36.85 L9.6 36.05 M2.4 31.1 L2.55 31.3 2.65 31.75 3.15 32.1 3.2 32.15 Q3.0 32.2 3.0 32.7 L3.0 33.5 2.95 34.4 2.95 35.1 2.9 36.6 2.85 37.45 2.85 37.85 2.6 37.7 2.1 37.4 2.0 37.05 2.0 36.6 2.1 35.3 2.1 34.45 2.2 32.4 2.4 31.1 M4.2 33.15 L4.2 33.1 4.35 33.15 4.65 33.25 4.7 33.3 4.65 33.75 4.65 34.65 4.6 35.65 4.6 36.45 4.5 38.1 4.45 39.1 4.45 39.2 4.15 39.2 4.05 39.2 4.0 38.65 4.05 35.95 4.15 35.2 4.2 34.1 4.2 33.15 M8.0 41.45 L7.9 41.4 7.75 41.35 7.6 41.2 7.5 40.5 7.4 39.1 7.35 37.4 7.35 36.2 7.4 35.2 7.8 35.2 8.05 35.75 8.0 35.75 8.0 35.9 8.15 37.4 8.3 39.1 8.3 39.85 8.4 40.6 8.35 41.35 8.0 41.45 M5.65 34.3 L6.15 34.3 6.15 34.55 6.15 34.6 6.05 35.1 6.1 35.75 6.15 36.6 6.2 38.15 6.15 39.95 6.15 40.35 5.5 40.3 5.5 40.2 5.55 39.15 5.5 37.0 5.65 34.3 M8.9 44.8 Q9.15 44.6 9.35 44.5 L10.8 43.45 10.95 43.55 11.1 43.85 11.85 44.6 11.4 44.95 10.8 45.35 10.7 45.35 10.7 45.3 10.05 45.0 10.0 45.0 9.6 44.8 8.9 44.8 M4.15 46.2 Q4.05 46.8 2.95 47.35 L0.8 47.8 Q-0.4 47.8 -0.75 46.8 L-0.8 46.15 -0.8 45.85 Q-0.8 45.5 0.0 45.25 L1.7 44.85 3.4 45.05 Q4.15 45.45 4.15 46.2 M33.8 25.45 L34.0 26.2 34.3 27.2 33.85 28.3 Q33.25 28.95 32.2 29.05 L32.85 28.05 33.55 26.7 33.8 25.5 33.8 25.45 M32.05 33.5 L32.05 33.45 32.6 32.55 33.15 31.75 33.5 31.4 33.9 31.05 34.1 31.1 34.85 31.25 34.95 31.25 34.55 32.1 Q33.9 33.0 32.75 33.3 L32.7 33.35 32.6 33.35 32.35 33.45 32.05 33.5 M32.15 30.85 L31.7 31.3 30.8 32.1 30.65 31.8 31.0 31.1 31.2 30.75 32.05 30.8 32.15 30.85 M31.7 44.75 L32.15 44.3 33.0 43.55 33.55 44.05 34.5 44.85 34.9 45.15 34.75 45.25 34.2 45.3 34.1 45.35 34.05 45.35 33.65 45.4 33.25 45.75 33.05 45.8 32.9 45.85 32.35 45.45 31.7 44.75 M31.6 55.95 L31.65 56.0 32.35 56.55 32.35 56.65 32.45 56.65 32.3 56.75 31.15 58.2 28.7 61.0 26.15 64.0 24.6 66.1 23.7 65.2 Q23.9 64.4 25.7 62.3 L27.95 59.8 29.4 58.4 30.55 57.15 31.2 56.45 31.45 55.95 31.6 55.95 M32.5 63.3 L32.5 63.2 32.65 62.5 Q32.75 62.2 33.45 61.95 L34.05 61.35 34.3 61.7 34.65 62.15 34.25 62.4 33.65 62.5 33.2 62.65 32.9 63.2 32.65 63.5 32.5 63.3 M36.15 60.6 L36.55 59.95 37.65 59.2 38.05 58.75 38.2 58.75 38.25 58.9 38.35 59.0 38.0 59.45 Q37.35 59.65 37.1 59.95 L36.8 60.4 36.45 60.9 36.15 60.6 M18.35 64.75 L18.1 64.95 17.95 65.25 17.9 65.3 17.85 65.4 17.75 65.4 17.7 65.5 Q17.55 65.55 17.3 65.75 L17.15 65.65 17.1 65.6 15.7 63.3 15.65 63.3 15.65 63.2 13.65 60.6 12.65 59.1 11.7 57.75 11.3 57.0 11.0 56.3 10.8 55.85 11.05 55.6 11.25 55.55 12.15 55.05 12.2 55.0 13.35 56.85 15.1 60.0 17.0 62.45 18.35 64.75" fill="#8e6c24" fill-rule="evenodd" stroke="none"/>
      <path d="M23.85 8.15 L23.9 7.9 23.85 7.5 23.85 7.45 24.25 6.8 25.1 5.45 25.25 4.8 25.45 5.15 26.05 6.35 Q26.6 7.45 26.8 8.65 L26.85 9.55 26.55 9.45 25.7 8.85 24.3 8.25 23.85 8.15 M15.8 9.15 L15.85 8.6 15.9 8.1 Q15.95 7.6 16.15 7.3 L16.4 6.2 16.7 5.55 16.9 5.2 17.2 5.65 17.65 6.35 18.0 6.75 18.4 7.1 18.75 7.5 18.8 7.5 18.8 7.6 18.85 7.6 19.05 7.9 19.1 7.9 19.25 8.2 19.25 8.3 19.25 8.4 17.85 8.6 16.35 8.95 15.8 9.15 M19.4 48.45 L19.6 48.35 21.3 48.9 22.85 49.95 22.9 50.1 22.8 50.75 Q22.2 52.45 20.95 52.4 19.95 52.35 19.5 51.15 19.25 50.3 19.3 49.55 L19.4 48.45 M20.8 44.4 L20.95 44.6 21.05 44.85 20.85 44.85 20.75 45.05 20.8 45.35 21.15 45.45 21.45 45.35 21.6 45.15 22.0 45.3 22.15 45.3 22.15 45.4 Q21.85 45.8 21.0 45.8 L20.4 45.65 20.15 45.45 Q20.15 44.75 20.8 44.4 M6.1 62.8 L5.3 63.3 5.15 63.45 4.3 61.75 3.6 60.05 3.05 58.3 2.5 57.45 2.65 57.45 2.85 57.45 3.4 57.25 4.0 56.9 5.3 56.55 5.5 56.45 5.85 56.9 Q6.5 57.6 7.7 57.8 L8.2 57.9 9.5 59.5 10.55 60.9 9.25 61.15 8.95 60.4 7.4 58.75 Q5.95 57.4 5.55 58.0 5.35 58.15 5.35 59.25 5.3 60.25 5.7 61.8 L6.1 62.8" fill="#006262" fill-rule="evenodd" stroke="none"/>
      <path d="M23.85 8.15 L24.3 8.25 25.7 8.85 26.55 9.45 26.85 9.55 26.8 9.6 26.75 10.9 Q26.55 11.7 25.9 12.2 L25.25 12.65 24.95 12.2 23.95 11.6 23.85 11.65 23.85 8.8 23.85 8.15 M15.8 9.15 L16.35 8.95 17.85 8.6 19.25 8.4 19.25 8.55 19.35 10.15 19.35 10.25 19.4 10.4 19.4 10.45 19.4 10.8 19.5 11.65 19.05 11.8 Q18.65 12.0 18.6 12.1 L18.15 12.3 18.05 12.55 18.0 12.5 17.45 11.9 Q16.65 11.35 16.25 10.8 15.75 10.1 15.8 9.5 L15.8 9.15 M22.9 50.1 L22.85 49.95 21.3 48.9 19.6 48.35 19.4 48.45 19.6 47.8 19.65 47.5 20.7 47.55 21.65 47.55 21.55 47.6 21.3 48.05 21.45 48.45 Q21.65 48.9 22.3 48.95 22.85 48.95 22.9 48.55 L22.9 48.35 22.95 49.05 22.95 49.65 22.9 50.1 M20.8 44.4 L21.15 44.3 Q21.6 44.15 21.9 44.3 22.3 44.5 22.2 44.8 L22.15 45.3 22.0 45.3 21.6 45.15 21.05 44.85 20.95 44.6 20.8 44.4 M22.6 47.45 L22.45 47.35 22.55 47.35 22.6 47.45 M6.1 62.8 L5.7 61.8 Q5.3 60.25 5.35 59.25 5.35 58.15 5.55 58.0 5.95 57.4 7.4 58.75 L8.95 60.4 9.25 61.15 7.15 62.05 7.05 62.2 7.0 62.2 6.6 62.45 6.1 62.8" fill="#008484" fill-rule="evenodd" stroke="none"/>
      <path d="M23.25 8.4 L23.25 8.65 23.25 9.95 21.65 9.95 19.9 9.95 19.85 9.15 19.85 9.0 21.5 9.3 Q22.55 9.4 22.95 9.0 L23.25 8.4 M23.25 11.5 L21.45 11.35 20.4 11.35 20.1 11.35 20.0 10.5 23.25 10.45 23.25 11.5 M23.2 13.8 L21.75 13.65 20.15 13.65 20.15 12.4 21.7 12.55 23.25 12.55 23.25 13.1 23.2 13.8 M22.75 14.4 L23.15 14.4 23.05 14.45 22.75 14.4 M20.55 15.85 L20.4 15.25 20.4 14.95 20.65 14.95 22.05 14.95 23.0 14.9 22.95 15.3 22.9 15.95 21.85 15.85 20.55 15.85 M20.4 16.8 L20.8 16.8 21.6 16.9 22.8 16.9 22.75 17.55 22.75 17.6 21.7 17.55 20.3 17.55 20.4 17.1 20.4 16.8 M15.75 40.1 L15.25 39.1 14.15 36.45 13.9 35.75 13.55 35.1 13.35 34.3 13.25 34.1 13.5 34.1 13.6 33.95 13.7 34.25 14.0 34.65 14.4 35.55 14.9 36.6 15.95 39.0 16.35 39.7 Q15.75 39.1 15.75 40.0 L15.75 40.1 M20.15 43.5 L20.2 43.85 20.55 43.9 20.15 44.1 Q19.6 44.6 19.6 45.35 19.5 46.35 21.0 46.4 22.2 46.4 22.6 45.75 L22.85 44.75 Q22.85 44.15 22.35 43.9 L21.9 43.65 22.0 43.65 22.3 43.5 22.5 43.3 23.25 44.15 23.45 45.3 23.2 46.25 Q22.4 47.0 19.85 46.95 L19.45 46.55 19.1 45.85 19.05 44.75 Q19.05 44.6 19.4 44.2 L20.15 43.5 M24.4 51.25 L24.3 51.55 Q23.35 53.85 21.15 53.8 18.95 53.75 17.95 51.85 17.3 50.6 17.4 49.4 17.45 48.0 17.75 47.15 L17.9 46.6 18.05 46.1 18.5 45.45 18.55 46.15 18.75 46.5 18.95 46.85 19.05 47.0 18.8 48.35 18.75 49.65 Q18.65 50.7 18.9 51.35 L19.6 52.5 Q20.0 53.0 20.95 53.0 22.55 53.1 23.2 51.35 L23.6 49.05 23.45 47.95 23.2 47.1 23.65 46.75 23.7 46.6 23.95 48.55 23.85 50.05 Q23.85 51.15 24.4 51.25 M27.0 40.1 L27.95 39.0 29.55 36.6 30.0 35.3 30.3 34.6 30.5 34.1 31.3 34.1 31.15 34.3 30.95 35.1 30.7 35.8 30.35 36.6 29.5 38.0 28.5 39.5 28.3 39.75 28.3 39.7 28.25 39.5 Q27.7 39.5 27.0 40.1 M33.05 35.8 L33.0 35.9 33.0 35.8 33.05 35.8" fill="#966d59" fill-rule="evenodd" stroke="none"/>
      <path d="M25.25 12.65 L24.4 13.45 23.65 14.05 23.7 13.65 23.8 12.35 23.8 12.3 23.85 11.85 23.85 11.65 23.95 11.6 24.95 12.2 25.25 12.65 M19.5 11.65 L19.5 13.1 19.5 13.95 19.4 13.85 19.3 13.65 19.25 13.65 18.75 13.15 18.6 13.05 18.45 12.95 18.2 12.7 18.05 12.55 18.15 12.3 18.6 12.1 Q18.65 12.0 19.05 11.8 L19.5 11.65 M22.9 48.35 L22.9 48.55 Q22.85 48.95 22.3 48.95 21.65 48.9 21.45 48.45 L21.3 48.05 21.55 47.6 21.65 47.55 22.45 47.35 22.6 47.45 22.85 48.05 22.9 48.35 M21.05 44.85 L21.6 45.15 21.45 45.35 21.15 45.45 20.8 45.35 20.75 45.05 20.85 44.85 21.05 44.85" fill="#00bfbf" fill-rule="evenodd" stroke="none"/>
      <path d="M20.1 11.35 L20.4 11.35 21.45 11.35 23.25 11.5 23.25 11.8 23.25 12.0 23.25 12.1 20.15 11.9 20.1 11.9 20.1 11.6 20.1 11.35 M23.2 13.8 L23.2 13.85 23.15 14.35 23.15 14.4 22.75 14.4 22.3 14.4 21.15 14.4 20.3 14.4 20.25 14.4 20.25 14.35 20.2 14.0 20.2 13.95 20.15 13.65 21.75 13.65 23.2 13.8 M20.55 15.85 L21.85 15.85 22.9 15.95 22.85 16.35 20.55 16.3 20.55 15.85 M15.75 40.1 L15.75 40.0 Q15.75 39.1 16.35 39.7 L16.4 39.75 16.6 40.2 16.7 40.4 17.4 41.35 18.45 42.8 19.1 43.65 18.55 44.3 18.15 43.95 17.55 43.3 16.65 41.95 16.45 41.65 16.3 41.2 16.2 41.0 15.8 40.4 15.75 40.15 15.75 40.1 M20.55 43.9 L20.2 43.85 20.15 43.5 20.15 43.45 Q21.45 42.55 22.15 43.1 L22.5 43.3 22.3 43.5 22.0 43.65 21.9 43.65 21.75 43.65 21.25 43.6 20.55 43.9 M24.4 51.25 Q23.85 51.15 23.85 50.05 L23.95 48.55 23.7 46.6 23.9 46.15 23.9 46.0 23.95 45.95 23.95 45.85 23.95 45.75 23.95 45.65 24.1 45.95 24.65 47.05 24.8 48.0 24.8 48.9 24.8 49.25 24.8 49.55 24.4 51.25 M27.0 40.1 Q27.7 39.5 28.25 39.5 L28.3 39.7 28.3 39.75 26.4 42.3 25.1 43.6 24.2 44.3 23.95 44.5 23.8 43.85 23.65 43.5 25.55 41.7 27.0 40.1" fill="#d0b591" fill-rule="evenodd" stroke="none"/>
      <path d="M10.1 9.5 L10.1 9.45 10.4 8.55 11.05 7.0 Q12.1 5.15 12.65 7.0 L12.7 9.25 12.85 10.1 11.3 9.9 11.1 9.8 10.2 9.5 10.1 9.5 M29.0 10.5 L29.1 9.95 29.5 8.75 29.5 7.8 29.8 6.85 Q30.35 6.95 31.1 7.5 L31.8 8.25 32.0 9.4 32.05 9.45 31.9 9.5 31.2 9.95 30.55 10.15 29.0 10.5 M37.65 26.8 L37.8 28.45 37.95 30.95 38.05 32.05 38.0 32.1 Q37.85 32.2 37.95 32.6 L37.2 33.0 Q36.5 33.3 36.45 33.5 L35.85 33.9 35.25 34.25 34.7 34.75 34.05 35.1 33.35 35.2 32.9 35.25 33.0 34.75 33.0 34.25 33.0 33.9 Q34.05 33.6 34.8 32.8 35.6 31.75 35.6 31.05 L35.6 30.95 35.6 30.85 35.6 30.7 35.55 30.7 35.4 30.65 35.15 30.6 33.25 30.3 33.25 30.0 33.25 29.45 34.1 28.85 34.7 28.9 Q35.35 28.9 35.85 28.5 L36.6 27.7 37.15 27.3 37.55 27.2 37.5 27.15 37.65 26.8 M26.4 17.6 L30.15 16.9 31.4 16.7 Q31.6 16.8 31.45 18.15 L31.45 19.1 31.2 19.45 31.1 19.85 30.85 20.0 Q30.55 19.9 30.55 19.65 30.45 19.15 30.15 19.15 29.8 19.15 29.6 19.55 29.5 19.85 28.8 19.8 L28.65 19.6 Q28.6 19.25 28.2 19.25 27.7 19.25 27.45 19.6 27.3 19.9 26.9 19.9 L26.7 19.6 26.15 19.1 Q25.95 19.1 25.65 19.55 L25.1 19.85 24.75 19.6 Q24.65 19.25 24.3 19.25 24.05 19.25 23.65 19.7 L23.3 19.9 22.55 19.9 22.5 19.8 22.45 19.75 22.4 19.7 Q22.3 19.25 22.05 19.25 21.7 19.25 21.6 19.6 L20.95 19.85 20.85 19.85 20.4 19.55 Q20.3 19.2 20.0 19.2 19.75 19.2 19.4 19.6 L19.25 19.75 18.55 19.75 18.45 19.7 18.2 19.55 18.15 19.45 17.6 19.0 Q17.2 19.0 17.0 19.25 L16.8 19.65 16.15 18.95 15.45 18.45 Q15.0 18.45 14.85 18.95 L14.8 19.1 14.65 19.3 14.6 19.45 14.5 19.45 14.15 19.35 13.55 18.95 12.85 18.45 12.8 18.05 Q12.85 17.4 13.0 17.25 13.2 17.0 14.15 17.0 L17.3 17.65 18.15 18.4 18.15 18.45 18.55 18.45 18.6 18.5 Q18.9 18.5 19.05 18.3 L21.7 18.15 23.85 18.4 24.2 18.25 24.3 18.3 24.8 18.5 25.1 18.45 25.1 18.4 25.15 18.35 25.15 18.3 25.45 18.35 Q25.85 18.35 26.1 18.0 L26.4 17.6 M34.05 16.05 L34.25 16.05 Q35.55 18.8 36.05 20.45 L35.45 21.15 35.4 21.15 35.4 21.2 Q35.0 21.65 34.0 21.85 L33.5 22.05 33.15 22.45 32.3 22.8 32.1 21.35 32.1 21.1 32.1 21.0 32.15 20.45 32.45 20.45 Q32.9 20.5 33.2 19.75 L33.45 19.0 33.55 18.15 33.8 17.45 34.05 16.05 M8.9 21.4 L8.9 20.65 9.35 18.15 9.95 15.95 10.2 15.95 Q10.7 19.55 12.0 19.55 L12.15 19.55 11.95 21.05 11.85 22.7 11.05 22.3 9.7 21.8 9.65 21.8 9.65 21.7 9.05 21.45 8.95 21.45 8.9 21.4 M7.8 34.55 L7.8 34.45 7.85 33.8 8.0 32.15 8.15 31.15 8.65 32.35 8.75 32.4 8.75 32.5 8.8 32.5 Q9.9 33.95 12.15 34.1 L12.2 34.1 12.15 35.35 12.15 36.2 11.55 36.05 Q11.0 36.05 10.6 35.75 L10.5 35.65 10.45 35.55 10.45 35.5 9.35 35.45 Q8.55 35.5 8.4 35.05 L8.35 34.7 8.35 34.65 8.2 34.6 8.15 34.6 8.0 34.55 7.8 34.55 M8.25 30.35 L8.3 30.2 8.3 29.35 8.3 28.3 8.35 28.0 8.45 28.1 9.5 28.6 9.6 28.55 10.5 29.35 10.45 29.85 10.45 30.2 8.55 30.3 8.3 30.35 8.25 30.35" fill="#333333" fill-rule="evenodd" stroke="none"/>
      <path d="M26.25 20.65 L26.6 20.55 27.0 20.55 Q27.45 20.65 27.4 21.15 L27.4 21.45 27.3 21.65 26.5 21.8 Q26.05 21.8 25.9 21.45 L25.9 21.4 25.85 21.2 Q25.85 20.75 26.25 20.65 M18.35 21.5 L18.35 21.65 17.7 21.8 Q17.05 21.8 16.85 21.4 L16.8 21.3 16.7 21.05 Q16.8 20.55 17.15 20.45 L17.6 20.35 18.2 20.7 18.4 21.3 18.35 21.5" fill="#ffffff" fill-rule="evenodd" stroke="none"/>
      <path d="M28.2 21.55 L28.15 21.55 27.25 22.3 26.4 22.4 Q25.9 22.4 24.75 21.85 25.25 21.5 25.9 21.4 L25.9 21.45 Q26.05 21.8 26.5 21.8 L27.3 21.65 27.4 21.45 27.85 21.5 28.2 21.55 M16.8 21.3 L16.85 21.4 Q17.05 21.8 17.7 21.8 L18.35 21.65 18.35 21.5 19.1 21.85 19.4 21.95 17.65 22.25 Q16.7 22.25 16.1 21.7 L15.75 21.45 16.15 21.35 16.55 21.2 16.8 21.3 M20.7 60.3 L20.7 60.25 20.35 60.0 20.1 59.5 21.15 59.55 21.45 59.5 22.05 59.6 23.45 59.55 21.9 60.9 21.5 61.3 20.95 60.4 Q20.75 60.4 20.7 60.3 M35.7 67.4 L37.2 65.7 37.45 65.5 37.75 68.05 37.85 68.85 38.05 70.15 37.75 70.0 35.6 69.2 34.65 68.9 33.85 68.7 35.4 67.6 35.7 67.4 M5.7 67.45 L6.1 65.15 6.5 65.55 Q7.55 67.0 7.8 67.8 L8.3 68.4 8.85 68.95 8.6 68.95 7.1 68.95 5.5 68.95 5.7 67.45" fill="#cccccc" fill-rule="evenodd" stroke="none"/>
      <path d="M24.75 21.85 L24.6 21.8 24.05 21.4 Q24.2 20.95 26.25 20.65 25.85 20.75 25.85 21.2 L25.9 21.4 Q25.25 21.5 24.75 21.85 M27.0 20.55 L28.9 20.55 28.65 20.85 28.2 21.55 27.85 21.5 27.4 21.45 27.4 21.15 Q27.45 20.65 27.0 20.55 M18.35 21.5 L18.4 21.3 18.2 20.7 18.65 20.95 19.9 21.5 19.8 21.55 19.45 21.9 19.4 21.95 19.1 21.85 18.35 21.5 M17.15 20.45 Q16.8 20.55 16.7 21.05 L16.8 21.3 16.55 21.2 16.15 21.35 15.75 21.45 15.4 20.95 15.1 20.55 15.35 20.35 16.8 20.55 16.4 20.45 17.15 20.45" fill="#666666" fill-rule="evenodd" stroke="none"/>
      <path d="M43.35 49.3 L43.75 49.0 44.1 49.7 44.45 50.7 44.45 52.6 44.4 53.65 44.1 54.65 42.95 56.75 41.6 58.75 40.7 59.8 40.25 60.4 Q40.1 59.85 39.55 59.4 L38.5 58.15 37.9 57.6 38.4 57.15 39.25 56.25 40.6 54.25 Q41.15 53.15 41.15 52.25 L41.0 50.65 Q41.6 50.6 43.35 49.3 M14.4 26.8 L14.4 26.35 14.4 26.25 Q14.4 25.4 13.6 24.75 L12.9 24.3 13.0 24.3 14.0 24.7 15.5 24.75 15.7 24.85 15.9 24.75 16.15 24.65 16.35 24.75 16.55 24.85 16.8 24.7 17.0 24.5 18.8 25.15 19.25 24.75 Q19.75 24.3 20.0 24.3 L20.35 24.65 Q20.6 25.0 20.8 25.0 L21.1 24.85 21.3 24.65 21.4 24.9 21.6 25.1 21.85 25.0 22.1 24.95 22.3 25.05 22.45 25.1 22.9 24.9 23.05 24.5 23.65 25.0 24.05 25.15 24.35 25.35 24.6 25.1 24.8 24.95 24.8 25.15 Q24.8 25.35 25.2 25.35 L27.0 25.1 29.0 24.95 29.4 25.1 29.85 25.25 29.55 25.95 29.55 26.25 Q29.5 26.85 29.6 27.35 L29.4 27.55 28.45 27.1 27.45 26.6 26.6 26.45 Q26.4 26.6 25.7 26.1 L25.1 25.9 22.4 25.75 21.5 25.8 18.95 25.85 18.65 25.9 16.6 26.0 Q16.15 26.0 15.85 26.3 L15.4 26.45 Q15.2 26.45 14.95 26.65 L14.65 26.9 14.4 26.8 M34.5 60.8 L34.3 60.6 33.4 59.75 33.8 59.35 33.85 59.35 34.3 59.8 34.95 60.25 36.2 61.7 37.3 63.2 37.75 63.8 37.5 64.05 37.45 64.15 37.35 64.05 37.35 64.2 37.3 64.25 37.1 64.5 36.6 63.8 35.75 62.3 Q35.35 61.45 34.75 60.95 L34.5 60.8 M27.9 68.9 L26.9 68.8 26.8 68.8 26.45 68.8 26.45 68.7 26.55 68.3 27.15 67.85 27.35 67.55 27.35 67.5 28.6 66.1 30.3 63.45 30.45 63.2 30.85 62.7 31.2 63.1 32.1 63.85 32.85 64.85 Q33.55 65.65 34.25 65.65 L34.35 65.65 33.95 66.1 33.1 66.25 32.2 65.95 31.8 65.4 31.35 64.6 31.2 64.4 30.45 65.5 29.25 67.0 28.25 68.65 28.1 68.9 27.9 68.9 M17.05 67.55 L16.7 69.55 16.45 70.5 15.0 70.6 14.85 70.4 Q14.65 69.8 14.6 69.2 L13.7 67.0 12.2 64.45 11.1 62.55 8.2 63.9 Q7.5 64.25 6.9 64.65 L6.65 64.75 6.5 64.35 6.15 63.8 6.2 63.75 6.25 63.65 7.6 62.7 8.25 62.45 8.9 62.05 10.65 61.6 11.05 61.55 11.3 61.8 12.75 64.15 13.75 65.55 13.7 65.75 13.7 66.05 13.9 66.2 14.1 66.4 14.35 66.65 14.5 67.3 Q14.8 67.7 15.85 67.7 L16.15 67.7 16.4 67.7 16.6 67.7 Q16.7 67.6 16.9 67.6 L17.05 67.55 M0.05 52.85 Q-1.05 51.25 -1.05 49.9 L-0.95 49.3 -0.8 48.95 -0.6 49.0 -0.05 49.3 2.85 50.6 2.65 51.2 2.55 51.95 2.65 52.4 Q2.65 53.0 3.1 53.7 L4.3 55.05 5.1 55.9 4.05 56.25 3.8 56.3 3.75 56.05 3.6 55.7 3.6 55.3 3.45 54.95 2.95 54.05 2.45 53.25 1.75 52.45 0.8 52.05 0.35 52.1 0.2 52.45 0.1 52.75 0.05 52.85" fill="#31261e" fill-rule="evenodd" stroke="none"/>
      <path d="M29.6 27.35 L29.9 28.45 29.65 28.55 29.25 28.9 28.95 29.75 28.75 29.95 28.35 30.3 28.35 30.35 27.9 30.85 27.5 29.75 26.95 29.15 26.0 28.55 22.05 28.3 20.6 28.3 20.4 28.15 20.25 28.1 Q19.75 28.1 18.35 28.6 17.0 29.05 16.85 29.2 16.35 29.75 16.2 30.6 L16.15 30.6 16.1 30.5 15.55 30.0 15.1 29.55 14.15 28.15 14.1 28.1 14.4 26.8 14.65 26.9 14.95 26.65 Q15.2 26.45 15.4 26.45 L15.85 26.3 Q16.15 26.0 16.6 26.0 L18.65 25.9 18.95 25.85 21.5 25.8 22.4 25.75 25.1 25.9 25.7 26.1 Q26.4 26.6 26.6 26.45 L27.45 26.6 28.45 27.1 29.4 27.55 29.6 27.35 M8.35 57.2 L8.15 57.15 8.0 57.0 7.9 57.1 6.95 56.8 6.1 56.0 4.75 54.55 4.75 54.5 4.5 54.3 3.85 53.35 3.4 52.45 3.2 51.85 Q3.2 51.35 3.35 50.8 L3.35 50.65 Q3.35 50.25 3.65 49.95 L3.65 49.9 3.85 49.45 4.4 49.05 4.85 48.8 5.5 48.35 5.7 49.35 Q5.7 51.35 5.95 52.15 L6.1 53.15 Q6.25 53.7 6.9 54.15 L8.45 55.15 9.5 56.1 9.2 56.35 9.15 56.4 9.1 56.45 8.6 57.0 8.55 57.2 8.35 57.2 M38.7 49.05 L38.75 49.15 38.9 49.2 39.3 49.55 39.3 49.8 39.4 49.7 39.55 49.75 40.0 50.25 40.0 50.3 40.2 50.7 40.25 50.95 40.4 51.1 40.4 51.15 40.4 51.2 40.45 51.25 40.55 52.25 40.4 53.0 39.8 54.1 38.7 55.85 36.95 57.65 36.45 58.1 34.75 58.4 34.3 58.4 34.3 58.3 33.8 57.35 33.45 56.8 34.5 56.05 36.2 55.0 Q36.95 54.3 37.6 52.5 L38.45 50.05 38.7 49.05 M34.5 60.8 L34.75 60.95 Q35.35 61.45 35.75 62.3 L36.6 63.8 37.1 64.5 35.7 66.4 34.8 67.15 33.8 67.9 31.9 68.85 30.0 69.15 27.9 68.9 28.1 68.9 28.25 68.65 29.25 67.0 30.45 65.5 31.2 64.4 31.35 64.6 31.8 65.4 32.2 65.95 33.1 66.25 33.95 66.1 34.35 65.65 Q35.25 65.65 35.7 64.85 36.1 64.35 36.1 63.8 36.1 62.65 34.5 60.8 M15.0 70.6 L14.9 70.6 13.95 70.55 13.75 70.05 13.25 69.05 12.8 67.95 12.1 66.0 11.3 64.6 11.25 64.45 11.15 64.35 10.85 64.0 8.95 64.95 7.55 65.65 7.4 65.7 7.35 65.6 6.85 64.9 6.75 64.85 6.65 64.75 6.9 64.65 Q7.5 64.25 8.2 63.9 L11.1 62.55 12.2 64.45 13.7 67.0 14.6 69.2 Q14.65 69.8 14.85 70.4 L15.0 70.6 M0.05 52.85 L0.1 52.75 0.2 52.45 0.35 52.1 0.8 52.05 1.75 52.45 2.45 53.25 2.95 54.05 3.45 54.95 3.6 55.3 3.6 55.7 3.75 56.05 3.8 56.3 3.65 56.3 3.15 56.55 3.0 56.65 2.45 55.6 0.95 54.05 0.05 52.85" fill="#503e30" fill-rule="evenodd" stroke="none"/>
      <path d="M27.9 30.85 L27.9 30.9 27.75 31.05 27.6 31.1 27.3 31.4 27.0 31.6 26.9 31.65 26.7 31.8 26.6 31.9 26.3 31.4 25.95 30.95 25.9 30.9 Q25.45 30.05 24.95 29.9 L24.5 29.9 24.5 29.6 24.3 29.55 22.8 29.45 22.0 29.45 20.3 29.5 Q19.85 29.6 18.8 30.35 L18.1 31.05 Q17.6 31.35 17.55 31.65 L17.15 31.4 16.15 30.65 16.15 30.6 16.2 30.6 Q16.35 29.75 16.85 29.2 17.0 29.05 18.35 28.6 19.75 28.1 20.25 28.1 L20.4 28.15 20.6 28.3 22.05 28.3 26.0 28.55 26.95 29.15 27.5 29.75 27.9 30.85 M5.5 48.35 L6.65 47.45 7.05 47.05 7.4 46.75 7.5 46.3 7.55 46.1 7.7 46.8 7.5 47.85 7.3 49.05 Q7.15 51.15 9.15 53.1 L10.5 54.3 10.95 54.8 10.8 54.95 10.6 55.05 10.6 55.1 10.4 55.3 10.35 55.4 10.25 55.45 9.5 56.1 8.45 55.15 6.9 54.15 Q6.25 53.7 6.1 53.15 L5.95 52.15 Q5.7 51.35 5.7 49.35 L5.5 48.35 M30.65 54.9 Q30.7 54.55 30.85 54.5 L31.6 54.45 32.3 54.35 32.5 54.2 32.6 54.15 Q32.75 53.9 33.25 53.75 L34.0 53.35 36.15 51.2 36.95 50.1 37.5 49.0 37.75 48.05 38.7 49.05 38.45 50.05 37.6 52.5 Q36.95 54.3 36.2 55.0 L34.5 56.05 33.45 56.8 33.05 56.35 31.7 55.4 30.65 54.9 M39.3 49.55 L39.4 49.7 39.3 49.8 39.3 49.55 M28.45 52.0 L28.5 52.15 28.65 53.1 28.65 53.2 29.05 54.55 28.95 54.65 28.95 54.6 28.45 54.1 Q27.7 53.15 26.6 53.15 25.95 53.15 24.75 54.05 L23.65 55.0 23.2 55.95 22.9 57.0 23.0 57.85 23.15 58.65 23.05 58.9 21.9 58.95 21.9 58.75 21.9 58.1 21.9 57.6 22.0 57.45 21.85 57.15 21.85 57.0 21.75 56.05 21.75 55.95 21.75 55.8 22.1 55.0 22.15 54.9 22.15 54.8 22.2 54.7 22.35 54.35 22.35 54.3 22.45 54.25 23.75 53.35 23.8 53.25 24.05 53.35 27.0 52.45 27.3 52.35 28.25 52.0 28.45 52.0 M15.75 54.05 L15.7 53.8 15.5 53.35 15.25 52.95 15.35 52.85 15.4 52.35 Q16.7 52.85 17.9 52.95 18.65 53.9 19.95 54.3 L20.3 54.7 Q20.8 55.3 20.95 56.0 L21.1 57.0 21.1 57.15 21.05 58.65 21.1 58.95 19.75 58.9 19.65 58.9 19.85 58.6 20.25 57.6 20.15 56.4 19.9 55.3 Q19.65 54.65 18.6 54.1 17.65 53.4 16.85 53.4 16.4 53.4 15.95 53.75 L15.75 54.05 M17.05 67.55 L17.15 67.45 Q17.25 67.0 17.4 66.9 L17.9 66.35 18.1 65.85 20.1 63.8 20.15 63.75 21.3 64.6 Q21.55 64.85 22.0 64.9 L22.55 65.2 23.05 65.55 23.5 66.0 24.65 67.7 25.4 68.5 23.15 68.9 21.1 69.1 20.4 69.35 17.9 70.1 16.45 70.5 16.7 69.55 17.05 67.55 M13.95 70.55 Q11.7 70.35 10.05 69.15 L10.05 69.1 10.0 69.05 9.95 69.05 9.7 68.85 Q8.8 68.05 8.2 66.95 L7.4 65.7 7.55 65.65 8.95 64.95 10.85 64.0 11.15 64.35 11.25 64.45 11.3 64.6 12.1 66.0 12.8 67.95 13.25 69.05 13.75 70.05 13.95 70.55" fill="#6d5441" fill-rule="evenodd" stroke="none"/>
      <path d="M26.6 31.9 L26.5 32.0 26.15 32.2 26.0 32.35 25.4 32.7 25.2 32.85 Q24.65 33.1 24.35 33.3 L22.8 33.85 22.35 34.0 22.15 34.2 22.0 34.25 21.85 34.25 21.85 34.2 21.65 34.0 21.0 33.7 20.95 33.7 20.85 33.6 20.8 33.6 20.65 33.55 20.55 33.5 20.4 33.5 Q20.15 33.3 19.9 33.25 L19.4 32.95 18.75 32.5 18.45 32.25 17.55 31.65 Q17.6 31.35 18.1 31.05 L18.8 30.35 Q19.85 29.6 20.3 29.5 L22.0 29.45 22.8 29.45 24.3 29.55 24.5 29.6 24.5 29.9 24.95 29.9 Q25.45 30.05 25.9 30.9 L25.95 30.95 26.3 31.4 26.6 31.9 M7.55 46.1 L7.8 46.0 7.85 45.85 9.2 45.6 9.25 45.6 9.75 45.6 10.35 46.0 11.3 46.4 11.75 46.8 12.15 47.15 12.7 47.35 13.45 47.7 14.05 48.5 14.65 49.35 14.95 50.2 14.95 51.1 14.8 52.0 14.6 52.6 14.6 52.75 14.6 53.0 14.6 53.1 14.6 53.2 14.7 53.4 12.8 53.9 Q11.55 54.35 10.95 54.8 L10.5 54.3 9.15 53.1 Q7.15 51.15 7.3 49.05 L7.5 47.85 7.7 46.8 7.55 46.1 M8.55 57.2 L8.55 57.25 8.35 57.2 8.55 57.2 M30.65 54.9 L30.3 54.65 29.7 54.45 29.4 53.25 29.0 51.65 29.55 50.1 30.35 48.5 31.1 47.65 31.75 47.0 Q32.1 46.7 32.55 46.8 33.05 46.85 33.4 46.55 33.6 46.25 34.05 46.1 L35.75 45.85 37.0 47.2 37.75 48.05 37.5 49.0 36.95 50.1 36.15 51.2 34.0 53.35 33.25 53.75 Q32.75 53.9 32.6 54.15 L32.5 54.2 32.3 54.35 31.6 54.45 30.85 54.5 Q30.7 54.55 30.65 54.9 M40.4 51.15 L40.45 51.25 40.4 51.2 40.4 51.15 M28.25 52.0 L28.35 51.95 28.45 51.95 28.45 52.0 28.25 52.0 M28.95 54.65 L28.8 54.7 27.9 55.55 26.9 56.4 26.45 56.8 Q26.3 56.85 26.15 57.0 L25.55 57.45 Q25.25 57.65 25.1 58.1 L24.65 58.65 24.4 58.85 24.2 58.85 23.45 58.9 23.05 58.9 23.15 58.65 23.0 57.85 22.9 57.0 23.2 55.95 23.65 55.0 24.75 54.05 Q25.95 53.15 26.6 53.15 27.7 53.15 28.45 54.1 L28.95 54.6 28.95 54.65 M22.35 54.3 L22.35 54.25 22.45 54.25 22.35 54.3 M25.4 55.3 L25.95 54.5 Q25.95 53.8 25.1 54.1 24.25 54.35 24.2 55.0 L24.2 55.35 Q24.25 55.7 24.65 55.7 L25.4 55.3 M15.75 54.05 L15.95 53.75 Q16.4 53.4 16.85 53.4 17.65 53.4 18.6 54.1 19.65 54.65 19.9 55.3 L20.15 56.4 20.25 57.6 19.85 58.6 19.65 58.9 19.25 58.25 17.7 56.4 15.9 54.3 15.75 54.05 M18.6 54.35 Q17.75 53.9 17.75 54.6 L18.0 55.2 18.65 55.8 Q19.4 55.8 19.45 55.3 19.45 54.8 18.6 54.35" fill="#8a6b53" fill-rule="evenodd" stroke="none"/>
      <path d="M41.75 38.6 L41.9 38.45 42.9 38.75 Q44.7 39.15 46.25 40.1 L45.55 40.9 43.75 42.35 41.0 43.75 38.95 44.6 38.4 44.65 37.85 44.95 37.15 45.25 37.15 45.15 38.25 43.65 38.9 42.65 39.5 41.75 40.0 40.65 40.2 39.75 40.45 39.7 41.15 39.5 41.5 39.0 41.75 38.6 M14.0 45.85 L13.2 45.15 11.8 43.75 11.7 43.55 12.7 43.3 13.25 42.75 13.15 41.4 12.9 40.1 12.85 38.7 12.75 37.3 12.75 36.45 12.75 36.3 12.75 34.55 12.8 34.7 13.65 36.85 13.65 36.9 13.7 37.5 14.0 38.8 14.1 40.15 14.15 42.7 14.05 43.25 13.9 43.9 14.05 44.85 14.25 45.45 14.1 45.75 14.0 45.85 M0.75 35.3 L0.75 35.8 1.1 36.5 1.15 36.7 1.2 37.15 1.15 37.3 1.6 37.85 1.95 38.0 2.0 38.1 2.2 38.2 2.3 38.2 2.25 38.25 2.45 38.35 2.6 38.7 2.85 38.6 Q2.7 39.5 3.1 39.7 L3.35 39.7 5.1 43.25 5.2 43.55 2.9 43.1 1.75 42.7 0.9 42.35 -1.25 40.5 -3.25 38.8 -4.1 37.5 -4.1 37.45 -3.7 37.25 -3.2 36.9 -1.95 36.1 Q-1.1 35.35 -0.65 35.2 L0.45 34.7 0.8 34.6 0.8 34.9 0.75 35.3 M31.15 36.4 L31.45 35.65 31.6 35.5 32.0 34.25 32.0 34.1 32.45 34.0 32.35 34.8 32.45 36.45 32.45 38.85 32.5 40.85 32.5 42.55 32.75 42.7 32.75 42.75 31.85 43.75 31.0 44.5 30.95 43.95 31.0 42.4 31.1 40.65 31.1 39.5 31.1 37.7 31.15 36.4" fill="#28023e" fill-rule="evenodd" stroke="none"/>
      <path d="M14.0 45.85 L14.1 45.75 14.25 45.45 14.05 44.85 13.9 43.9 14.05 43.25 14.15 42.7 14.1 40.15 14.0 38.8 13.7 37.5 13.65 36.9 14.65 39.2 14.8 39.6 14.9 39.75 15.65 41.3 15.7 41.45 15.65 42.1 15.65 43.4 15.55 44.65 15.65 46.1 15.7 46.85 14.85 46.5 14.7 46.4 14.5 46.3 14.0 45.85 M15.95 36.45 L16.85 36.8 19.2 37.55 21.55 37.75 24.65 37.45 25.85 37.0 27.95 36.15 29.4 35.45 29.15 36.0 28.45 37.25 27.6 38.45 Q26.85 39.7 24.8 41.55 L23.25 43.1 22.2 42.4 20.6 42.45 19.5 43.2 18.9 42.35 17.85 41.0 16.45 38.45 15.25 36.0 15.95 36.45 M18.2 38.0 L16.9 37.55 18.55 40.3 Q19.6 41.9 19.9 41.9 L21.05 41.8 21.85 41.7 22.9 41.9 23.25 42.15 Q23.8 42.15 25.25 40.2 L27.35 37.15 25.95 37.9 20.2 38.35 18.2 38.0 M31.0 44.5 L30.1 45.25 30.0 45.25 29.95 45.3 29.9 45.35 29.8 45.45 29.1 45.85 28.95 46.0 28.95 45.8 29.0 44.6 29.05 43.3 29.1 42.35 29.15 39.85 29.15 39.7 29.95 38.4 30.8 37.05 31.15 36.4 31.1 37.7 31.1 39.5 31.1 40.65 31.0 42.4 30.95 43.95 31.0 44.5" fill="#390356" fill-rule="evenodd" stroke="none"/>
      <path d="M15.7 41.45 L16.15 42.2 17.15 43.75 18.2 44.8 Q17.7 45.15 17.3 46.4 L17.05 47.5 16.25 47.05 15.7 46.85 15.65 46.1 15.55 44.65 15.65 43.4 15.65 42.1 15.7 41.45 M18.2 38.0 L20.2 38.35 25.95 37.9 27.35 37.15 25.25 40.2 Q23.8 42.15 23.25 42.15 L22.9 41.9 21.85 41.7 21.05 41.8 19.9 41.9 Q19.6 41.9 18.55 40.3 L16.9 37.55 18.2 38.0 M30.1 45.25 L29.95 45.3 30.0 45.25 30.1 45.25 M28.95 46.0 L28.1 46.55 Q27.5 46.95 26.25 47.2 L25.4 47.55 25.25 46.85 24.65 45.45 24.4 44.95 25.25 44.2 26.75 42.75 27.9 41.3 28.95 39.95 29.15 39.7 29.15 39.85 29.1 42.35 29.05 43.3 29.0 44.6 28.95 45.8 28.95 46.0" fill="#52047b" fill-rule="evenodd" stroke="none"/>
      <path d="M25.4 55.3 L24.65 55.7 Q24.25 55.7 24.2 55.35 L24.2 55.0 Q24.25 54.35 25.1 54.1 25.95 53.8 25.95 54.5 L25.4 55.3 M18.6 54.35 Q19.45 54.8 19.45 55.3 19.4 55.8 18.65 55.8 L18.0 55.2 17.75 54.6 Q17.75 53.9 18.6 54.35" fill="#ac8c75" fill-rule="evenodd" stroke="none"/>
    </g>
    <g id="shape1" transform="matrix(1.0, 0.0, 0.0, 1.0, 1.65, 14.45)">
      <path d="M-1.45 -8.8 L-1.1 -9.0 Q4.8 -11.85 11.9 -12.35 26.35 -13.45 37.35 -4.0 42.5 0.4 45.45 5.95 L46.4 7.85 46.9 10.85 47.4 12.45 47.35 12.7 46.95 11.35 47.0 11.65 47.0 13.05 47.0 13.6 47.0 14.3 Q46.75 28.35 36.75 38.35 26.55 48.6 12.0 48.6 5.6 48.6 0.0 46.6 L0.0 45.75 Q5.6 47.8 12.05 47.8 26.25 47.8 36.25 37.8 46.25 27.75 46.25 13.6 L45.95 8.7 Q42.95 1.8 36.85 -3.45 26.05 -12.7 11.95 -11.6 4.65 -11.05 -1.4 -7.9 L-1.45 -8.8" fill="#8e6c24" fill-rule="evenodd" stroke="none"/>
      <path d="M-1.45 -8.8 L-1.65 -10.95 Q4.45 -13.8 11.75 -14.35 27.0 -15.5 38.65 -5.5 44.75 -0.25 47.95 6.45 L48.75 9.25 48.8 9.75 49.0 12.5 48.9 15.8 48.75 18.6 48.75 18.8 48.6 19.55 48.55 19.8 Q46.75 31.15 38.15 39.75 27.35 50.6 12.0 50.6 5.6 50.6 0.0 48.7 L0.0 46.6 Q5.6 48.6 12.0 48.6 26.55 48.6 36.75 38.35 46.75 28.35 47.0 14.3 L47.0 13.6 47.0 13.05 47.0 11.65 46.95 11.35 47.35 12.7 47.4 12.45 46.9 10.85 46.4 7.85 45.45 5.95 Q42.5 0.4 37.35 -4.0 26.35 -13.45 11.9 -12.35 4.8 -11.85 -1.1 -9.0 L-1.45 -8.8" fill="#473612" fill-rule="evenodd" stroke="none"/>
    </g>
  </defs>
</svg>
