<?xml version="1.0" encoding="UTF-8" standalone="no"?>
<svg xmlns:ffdec="https://www.free-decompiler.com/flash" xmlns:xlink="http://www.w3.org/1999/xlink" ffdec:objectType="frame" height="135.65px" width="129.65px" xmlns="http://www.w3.org/2000/svg">
  <g transform="matrix(1.0, 0.0, 0.0, 1.0, 45.0, 57.4)">
    <use ffdec:characterId="933" height="47.45" id="bgcolor" transform="matrix(1.0, 0.0, 0.0, 1.0, -4.2, -3.9)" width="47.45" xlink:href="#sprite0"/>
    <use ffdec:characterId="921" height="22.0" id="hitbox" transform="matrix(2.2297, 0.0, 0.0, 2.1749, -4.55, -4.25)" width="22.0" xlink:href="#sprite1"/>
    <clipPath id="clipPath0" transform="matrix(1.0, 0.0, 0.0, 1.0, 0.0, 0.0)">
      <path d="M40.0 0.0 L40.0 40.0 0.0 40.0 0.0 0.0 40.0 0.0" fill="#cccccc" fill-rule="evenodd" stroke="none"/>
    </clipPath>
    <g clip-path="url(#clipPath0)">
      <filter id="filter0">
        <feColorMatrix in="SourceGraphic" result="filterResult0" type="matrix" values="0 0 0 0 0.2,0 0 0 0 0.2,0 0 0 0 1.0,0 0 0 1 0"/>
        <feConvolveMatrix divisor="1600.0" in="filterResult0" kernelMatrix="1 1 1 1 1 1 1 1 1 1 1 1 1 1 1 1 1 1 1 1 1 1 1 1 1 1 1 1 1 1 1 1 1 1 1 1 1 1 1 1 1 1 1 1 1 1 1 1 1 1 1 1 1 1 1 1 1 1 1 1 1 1 1 1 1 1 1 1 1 1 1 1 1 1 1 1 1 1 1 1 1 1 1 1 1 1 1 1 1 1 1 1 1 1 1 1 1 1 1 1 1 1 1 1 1 1 1 1 1 1 1 1 1 1 1 1 1 1 1 1 1 1 1 1 1 1 1 1 1 1 1 1 1 1 1 1 1 1 1 1 1 1 1 1 1 1 1 1 1 1 1 1 1 1 1 1 1 1 1 1 1 1 1 1 1 1 1 1 1 1 1 1 1 1 1 1 1 1 1 1 1 1 1 1 1 1 1 1 1 1 1 1 1 1 1 1 1 1 1 1 1 1 1 1 1 1 1 1 1 1 1 1 1 1 1 1 1 1 1 1 1 1 1 1 1 1 1 1 1 1 1 1 1 1 1 1 1 1 1 1 1 1 1 1 1 1 1 1 1 1 1 1 1 1 1 1 1 1 1 1 1 1 1 1 1 1 1 1 1 1 1 1 1 1 1 1 1 1 1 1 1 1 1 1 1 1 1 1 1 1 1 1 1 1 1 1 1 1 1 1 1 1 1 1 1 1 1 1 1 1 1 1 1 1 1 1 1 1 1 1 1 1 1 1 1 1 1 1 1 1 1 1 1 1 1 1 1 1 1 1 1 1 1 1 1 1 1 1 1 1 1 1 1 1 1 1 1 1 1 1 1 1 1 1 1 1 1 1 1 1 1 1 1 1 1 1 1 1 1 1 1 1 1 1 1 1 1 1 1 1 1 1 1 1 1 1 1 1 1 1 1 1 1 1 1 1 1 1 1 1 1 1 1 1 1 1 1 1 1 1 1 1 1 1 1 1 1 1 1 1 1 1 1 1 1 1 1 1 1 1 1 1 1 1 1 1 1 1 1 1 1 1 1 1 1 1 1 1 1 1 1 1 1 1 1 1 1 1 1 1 1 1 1 1 1 1 1 1 1 1 1 1 1 1 1 1 1 1 1 1 1 1 1 1 1 1 1 1 1 1 1 1 1 1 1 1 1 1 1 1 1 1 1 1 1 1 1 1 1 1 1 1 1 1 1 1 1 1 1 1 1 1 1 1 1 1 1 1 1 1 1 1 1 1 1 1 1 1 1 1 1 1 1 1 1 1 1 1 1 1 1 1 1 1 1 1 1 1 1 1 1 1 1 1 1 1 1 1 1 1 1 1 1 1 1 1 1 1 1 1 1 1 1 1 1 1 1 1 1 1 1 1 1 1 1 1 1 1 1 1 1 1 1 1 1 1 1 1 1 1 1 1 1 1 1 1 1 1 1 1 1 1 1 1 1 1 1 1 1 1 1 1 1 1 1 1 1 1 1 1 1 1 1 1 1 1 1 1 1 1 1 1 1 1 1 1 1 1 1 1 1 1 1 1 1 1 1 1 1 1 1 1 1 1 1 1 1 1 1 1 1 1 1 1 1 1 1 1 1 1 1 1 1 1 1 1 1 1 1 1 1 1 1 1 1 1 1 1 1 1 1 1 1 1 1 1 1 1 1 1 1 1 1 1 1 1 1 1 1 1 1 1 1 1 1 1 1 1 1 1 1 1 1 1 1 1 1 1 1 1 1 1 1 1 1 1 1 1 1 1 1 1 1 1 1 1 1 1 1 1 1 1 1 1 1 1 1 1 1 1 1 1 1 1 1 1 1 1 1 1 1 1 1 1 1 1 1 1 1 1 1 1 1 1 1 1 1 1 1 1 1 1 1 1 1 1 1 1 1 1 1 1 1 1 1 1 1 1 1 1 1 1 1 1 1 1 1 1 1 1 1 1 1 1 1 1 1 1 1 1 1 1 1 1 1 1 1 1 1 1 1 1 1 1 1 1 1 1 1 1 1 1 1 1 1 1 1 1 1 1 1 1 1 1 1 1 1 1 1 1 1 1 1 1 1 1 1 1 1 1 1 1 1 1 1 1 1 1 1 1 1 1 1 1 1 1 1 1 1 1 1 1 1 1 1 1 1 1 1 1 1 1 1 1 1 1 1 1 1 1 1 1 1 1 1 1 1 1 1 1 1 1 1 1 1 1 1 1 1 1 1 1 1 1 1 1 1 1 1 1 1 1 1 1 1 1 1 1 1 1 1 1 1 1 1 1 1 1 1 1 1 1 1 1 1 1 1 1 1 1 1 1 1 1 1 1 1 1 1 1 1 1 1 1 1 1 1 1 1 1 1 1 1 1 1 1 1 1 1 1 1 1 1 1 1 1 1 1 1 1 1 1 1 1 1 1 1 1 1 1 1 1 1 1 1 1 1 1 1 1 1 1 1 1 1 1 1 1 1 1 1 1 1 1 1 1 1 1 1 1 1 1 1 1 1 1 1 1 1 1 1 1 1 1 1 1 1 1 1 1 1 1 1 1 1 1 1 1 1 1 1 1 1 1 1 1 1 1 1 1 1 1 1 1 1 1 1 1 1 1 1 1 1 1 1 1 1 1 1 1 1 1 1 1 1 1 1 1 1 1 1 1 1 1 1 1 1 1 1 1 1 1 1 1 1 1 1 1 1 1 1 1 1 1 1 1 1 1 1 1 1 1 1 1 1 1 1 1 1 1 1 1 1 1 1 1 1 1 1 1 1 1 1 1 1 1 1 1 1 1 1 1 1 1 1 1 1 1 1 1 1 1 1 1 1 1 1 1 1 1 1 1 1 1 1 1 1 1 1 1 1 1 1 1 1 1 1 1 1 1 1 1 1 1 1 1 1 1 1 1 1 1 1 1 1 1 1 1 1 1 1 1 1 1 1 1 1 1 1 1 1 1 1 1 1 1 1 1 1 1 1 1 1 1 1 1 1 1 1 1 1 1 1 1 1 1 1 1 1 1 1 1 1 1 1 1 1 1 1 1 1 1 1 1 1 1 1 1 1 1 1 1 1 1 1 1 1 1 1 1 1 1 1 1 1 1 1 1 1 1 1 1 1 1 1 1 1 1 1 1 1 1 1 1 1 1 1 1 1 1 1 1 1 1 1 1 1 1 1 1 1 1 1 1 1 1 1 1 1 1 1 1 1 1 1 1 1 1 1 1 1 1 1 1 1 1 1 1 1 1 1 1 1 1 1 1 1 1 1 1 1 1 1 1 1 1 1 1 1 1 1 1 1 1 1 1 1 1 1 1 1 1 1 1 1 1 1 1 1 1 1 1 1 1 1 1 1 1 1 1 1 1 1 1 1 1 1 1 1 1 1 1 1 1 1 1 1 1 1 1 1 1 1 1 1 1 1 1 1 1 1 1 1 1 1 1 1 1 1 1 1 1 1 1 1 1 1 1 1 1 1 1 1 1 1 1 1 1 1 1 1 1 1 1 1 1 1 1 1 1 1 1 1 1 1 1 1 1 1 1 1 1 1 1 1 1 1 1 1 1 1 1 1 1 1 1 1 1 1 1 1 1 1 1 1 1 1 1 1 1 1 1 1 1 1 1 1 1 1 1 1 1 1 1 1 1 1 1 1 1" order="40 40" result="filterResult1"/>
        <feComposite in="SourceGraphic" in2="filterResult1" operator="over" result="filterResult2"/>
      </filter>
      <use ffdec:characterId="987" filter="url(#filter0)" height="36.75" transform="matrix(1.0, 0.0, 0.0, 1.0, 1.6, 2.5)" width="37.1" xlink:href="#sprite2"/>
      <filter id="filter3">
        <feColorMatrix in="SourceGraphic" result="filterResult3" type="matrix" values="0 0 0 0 0.0,0 0 0 0 0.0,0 0 0 0 0.0,0 0 0 1 0"/>
        <feConvolveMatrix divisor="9.0" in="filterResult3" kernelMatrix="1 1 1 1 1 1 1 1 1" order="3 3" result="filterResult4"/>
        <feComposite in="SourceGraphic" in2="filterResult4" operator="over" result="filterResult5"/>
      </filter>
      <use ffdec:characterId="983" filter="url(#filter3)" height="15.25" transform="matrix(1.0, 0.0, 0.0, 1.0, 16.75, 24.4)" width="28.35" xlink:href="#text0"/>
    </g>
    <filter id="filter4">
      <feColorMatrix in="SourceGraphic" result="filterResult6" type="matrix" values="0 0 0 0 0.0,0 0 0 0 0.0,0 0 0 0 0.0,0 0 0 1 0"/>
      <feConvolveMatrix divisor="4.0" in="filterResult6" kernelMatrix="1 1 1 1" order="2 2" result="filterResult7"/>
      <feComposite in="SourceGraphic" in2="filterResult7" operator="over" result="filterResult8"/>
    </filter>
    <use ffdec:characterId="935" filter="url(#filter4)" height="15.75" id="txt_hotkey" transform="matrix(1.0, 0.0, 0.0, 1.0, -3.85, -0.1)" width="18.0" xlink:href="#text1"/>
    <use ffdec:characterId="948" ffdec:characterName="Army_fla.Hud_BgButton_151" height="97.6" id="bg" transform="matrix(1.0, 0.0, 0.0, 1.0, -29.05, -29.25)" width="97.6" xlink:href="#sprite3"/>
    <use ffdec:characterId="950" ffdec:characterName="Army_fla.Hud_cooldown_152" height="48.5" id="cdcover" transform="matrix(0.9979, 0.0, 0.0, 0.9897, -4.2, -3.9997)" width="48.1" xlink:href="#sprite4"/>
    <use ffdec:characterId="950" ffdec:characterName="Army_fla.Hud_cooldown_152" height="48.5" id="cd" transform="matrix(0.9979, 0.0, 0.0, 0.9897, -4.2, -3.9997)" width="48.1" xlink:href="#sprite4"/>
    <use ffdec:characterId="953" ffdec:characterName="Army_fla.Hud_Description_153" height="50.1" id="desc" transform="matrix(0.0746, 0.0, 0.0, 0.0746, 14.6505, 16.4782)" width="129.55" xlink:href="#sprite5"/>
  </g>
  <defs>
    <g id="sprite0" transform="matrix(1.0, 0.0, 0.0, 1.0, 0.0, 0.0)">
      <use ffdec:characterId="932" height="47.45" transform="matrix(1.0, 0.0, 0.0, 1.0, 0.0, 0.0)" width="47.45" xlink:href="#shape0"/>
    </g>
    <g id="shape0" transform="matrix(1.0, 0.0, 0.0, 1.0, 0.0, 0.0)">
      <path d="M47.45 0.0 L47.45 47.45 0.0 47.45 0.0 0.0 47.45 0.0" fill="#564732" fill-rule="evenodd" stroke="none"/>
    </g>
    <g id="sprite1" transform="matrix(1.0, 0.0, 0.0, 1.0, 0.0, 0.0)">
      <use ffdec:characterId="145" height="22.0" transform="matrix(1.0, 0.0, 0.0, 1.0, 0.0, 0.0)" width="22.0" xlink:href="#shape1"/>
    </g>
    <g id="shape1" transform="matrix(1.0, 0.0, 0.0, 1.0, 0.0, 0.0)">
      <path d="M22.0 0.0 L22.0 22.0 0.0 22.0 0.0 0.0 22.0 0.0" fill="#00ff00" fill-opacity="0.0" fill-rule="evenodd" stroke="none"/>
    </g>
    <g id="sprite2" transform="matrix(1.0, 0.0, 0.0, 1.0, 19.75, 17.7)">
      <use ffdec:characterId="986" height="36.75" transform="matrix(1.0, 0.0, 0.0, 1.0, -19.75, -17.7)" width="37.1" xlink:href="#shape3"/>
    </g>
    <g id="shape3" transform="matrix(1.0, 0.0, 0.0, 1.0, 19.75, 17.7)">
      <path d="M11.75 -15.7 L10.05 -16.8 9.05 -17.0 Q5.05 -17.0 3.65 -14.15 L3.0 -12.45 3.0 -11.55 3.0 -11.45 2.95 -11.4 3.0 -11.15 3.0 -10.35 2.75 -7.4 2.35 -7.0 2.45 -7.0 2.1 -6.85 1.55 -6.55 1.05 -6.15 1.05 -6.1 1.9 -6.0 5.5 -6.0 5.7 -8.95 5.95 -10.35 5.85 -10.35 5.85 -10.4 6.15 -11.05 Q10.25 -10.85 13.0 -10.95 L13.65 -10.95 13.55 -11.3 13.45 -12.3 12.9 -14.0 Q12.4 -15.3 11.75 -15.7 M13.45 -14.6 Q14.25 -12.9 14.25 -11.4 L14.2 -10.8 14.25 -10.75 14.1 -10.45 13.95 -10.4 13.95 -10.0 13.8 -8.7 13.6 -7.6 13.35 -6.45 Q13.1 -6.05 11.9 -5.9 L12.45 -5.6 Q12.8 -5.1 13.9 -4.8 16.05 -3.95 16.05 -3.25 L16.05 -3.1 16.45 -2.95 17.3 -1.8 17.35 -0.8 17.3 0.05 16.15 0.95 16.05 0.95 Q15.8 1.55 14.6 1.55 L13.35 1.3 Q13.0 1.0 12.95 0.45 L12.25 -0.1 12.3 1.15 12.25 1.65 12.2 1.75 11.95 2.0 11.9 2.05 11.9 2.25 12.2 3.25 12.1 3.45 12.35 3.8 12.55 4.15 12.85 4.5 Q13.95 5.65 13.95 6.45 13.95 7.0 13.65 7.0 L13.35 7.0 13.55 7.3 13.55 7.35 13.7 8.2 14.3 8.4 15.5 9.05 15.55 9.05 15.6 9.3 Q15.6 9.75 13.85 10.75 11.95 11.8 10.6 11.8 L10.0 11.75 9.8 11.8 Q9.4 11.55 9.35 11.2 L9.35 10.6 9.2 9.4 8.6 8.05 8.45 7.75 8.2 8.05 7.2 9.2 Q6.7 9.7 5.8 10.2 L4.5 10.95 4.5 11.1 4.2 11.9 Q3.9 12.5 3.95 12.75 3.9 12.9 3.65 12.9 3.25 12.9 2.25 12.0 L1.45 11.0 0.85 9.9 0.85 9.05 0.85 8.8 0.8 8.8 0.75 8.55 0.85 8.35 1.3 7.65 2.2 7.0 2.2 6.8 Q2.2 5.9 2.7 4.75 2.8 4.25 3.2 3.7 L3.35 3.5 3.2 3.4 3.2 2.2 3.25 2.2 3.2 2.15 3.2 1.8 3.05 1.15 3.05 -0.9 Q2.25 -0.35 2.0 -0.35 L1.65 -0.45 1.65 0.65 Q1.65 2.3 1.45 2.55 L-0.45 2.75 -2.35 2.8 -2.2 2.55 -2.2 0.05 -2.15 -2.1 -2.05 -2.8 -2.1 -3.1 Q-2.1 -4.0 1.05 -5.4 L0.45 -5.5 Q0.3 -5.55 0.3 -6.05 0.3 -6.5 0.45 -6.65 L1.55 -7.35 1.8 -7.7 Q2.2 -8.0 2.2 -8.75 L2.3 -10.35 2.2 -11.3 2.3 -11.7 2.3 -11.9 Q2.3 -13.75 3.6 -15.4 5.6 -17.85 9.9 -17.7 L12.25 -16.1 13.45 -14.6 M9.5 -10.25 L7.55 -10.3 7.15 -8.05 7.15 -6.0 8.3 -5.85 9.0 -5.9 Q9.0 -7.6 9.15 -8.25 L9.25 -9.35 9.5 -10.25 M9.8 -6.45 L10.8 -6.6 12.3 -6.7 12.6 -6.9 12.85 -7.25 13.05 -8.45 10.35 -8.45 9.85 -8.45 9.75 -7.6 9.75 -6.45 9.8 -6.45 M0.0 -1.7 L-1.05 -2.5 -1.35 -2.55 -1.55 -2.1 -1.55 2.1 0.95 2.1 1.0 -0.8 0.0 -1.7 M3.7 -0.9 Q3.7 0.9 3.85 1.75 L8.05 1.75 10.7 1.5 11.3 1.5 11.65 1.55 11.65 1.15 11.4 -2.55 11.35 -4.35 11.05 -4.7 10.7 -5.15 10.4 -5.8 10.2 -5.8 9.7 -5.8 9.65 -5.65 9.15 -5.2 9.35 -4.55 9.5 -3.85 10.25 -3.9 10.3 -3.65 9.85 -3.15 10.25 -2.4 10.2 -2.1 9.9 -2.0 Q9.75 -2.0 9.55 -2.35 L9.5 -1.6 9.25 -1.55 Q8.85 -1.65 8.85 -2.0 L8.9 -2.45 8.6 -2.25 8.25 -2.55 Q8.25 -2.85 8.75 -3.2 L8.2 -3.55 8.0 -3.8 Q8.0 -4.55 8.8 -4.0 L8.75 -4.2 8.55 -5.0 8.55 -5.15 6.95 -5.3 Q6.6 -5.3 6.5 -5.5 L6.5 -5.55 6.4 -5.5 6.15 -5.3 6.05 -5.35 5.45 -5.3 5.6 -5.2 5.9 -3.9 5.75 -3.0 4.4 -1.95 3.65 -1.35 3.7 -0.9 M4.75 -3.15 L5.25 -3.9 Q5.35 -4.35 4.95 -4.65 4.25 -5.25 2.05 -5.0 L-1.05 -3.35 Q1.25 -1.25 1.9 -1.25 2.75 -1.25 4.0 -2.6 L4.75 -3.15 M11.0 -10.05 Q10.65 -10.05 10.65 -9.65 L10.7 -9.3 11.05 -9.25 11.35 -9.65 11.0 -10.05 M13.15 -9.15 L13.1 -9.15 13.15 -9.1 13.15 -9.15 M11.9 -4.9 L12.05 -2.9 12.15 -1.3 12.8 -0.75 13.0 -0.5 13.05 -0.95 13.6 -1.65 13.5 -1.8 Q13.5 -2.45 14.3 -2.9 L15.2 -3.15 13.35 -4.25 12.25 -4.9 11.65 -5.15 11.9 -4.9 M14.55 -2.1 L14.5 -2.0 14.6 -2.0 14.95 -2.1 15.75 -1.9 Q16.15 -1.65 16.15 -0.9 L16.15 0.15 16.25 0.0 16.7 -0.8 16.5 -1.75 Q16.2 -2.55 15.8 -2.55 15.05 -2.55 14.55 -2.1 M13.95 0.9 L15.35 0.9 15.5 -1.35 Q13.6 -1.75 13.6 0.2 13.6 0.55 13.95 0.9 M11.15 2.1 L9.8 2.15 8.7 2.3 5.85 2.45 3.95 2.4 3.85 3.05 11.25 3.0 11.15 2.1 M11.4 3.9 L11.25 3.65 5.8 3.75 3.85 3.75 3.45 4.75 Q3.1 5.7 3.05 6.4 L3.35 6.5 3.35 6.55 11.15 6.35 12.55 6.4 12.45 6.25 12.85 6.3 13.0 6.3 13.1 6.15 12.45 5.1 11.75 4.25 11.4 3.9 M13.05 8.4 L12.85 7.8 12.75 6.95 10.25 7.05 10.45 7.35 10.95 8.35 11.35 9.3 11.5 10.25 11.5 10.9 12.8 10.4 12.75 10.25 Q12.75 9.65 13.0 9.2 L12.95 8.6 13.05 8.4 M13.7 8.95 L13.55 9.8 13.45 10.1 14.1 9.8 14.6 9.35 13.9 9.05 13.7 8.95 M1.5 9.0 L1.75 9.95 1.7 10.0 1.9 10.45 2.1 10.4 4.0 10.45 4.2 10.5 4.2 10.15 4.3 10.2 5.25 9.65 6.5 8.75 5.15 7.65 3.75 8.4 1.5 8.85 1.5 9.0 M3.65 11.15 L3.25 11.15 2.5 11.1 3.35 11.9 3.6 11.25 3.65 11.15" fill="#282828" fill-rule="evenodd" stroke="none"/>
      <path d="M11.75 -15.7 Q12.4 -15.3 12.9 -14.0 L13.45 -12.3 13.55 -11.3 13.65 -10.95 13.0 -10.95 Q10.25 -10.85 6.15 -11.05 L5.85 -10.4 5.85 -10.35 5.95 -10.35 5.7 -8.95 5.5 -6.0 1.9 -6.0 1.05 -6.1 1.05 -6.15 1.55 -6.55 2.1 -6.85 2.45 -7.0 2.35 -7.0 2.75 -7.4 3.0 -10.35 3.0 -11.15 2.95 -11.4 3.0 -11.45 3.0 -11.55 3.0 -12.45 3.65 -14.15 Q5.05 -17.0 9.05 -17.0 L10.05 -16.8 11.75 -15.7 M9.5 -10.25 L9.25 -9.35 9.15 -8.25 Q9.0 -7.6 9.0 -5.9 L8.3 -5.85 7.15 -6.0 7.15 -8.05 7.55 -10.3 9.5 -10.25 M11.15 2.1 L11.25 3.0 3.85 3.05 3.95 2.4 5.85 2.45 8.7 2.3 9.8 2.15 11.15 2.1 M3.65 11.15 L3.6 11.25 3.35 11.9 2.5 11.1 3.25 11.15 3.65 11.15 M1.5 9.0 L1.5 8.85 3.75 8.4 5.15 7.65 6.5 8.75 5.25 9.65 4.3 10.2 4.2 10.15 4.2 10.5 4.0 10.45 2.1 10.4 1.9 10.45 1.7 10.0 1.75 9.95 1.5 9.0 M13.7 8.95 L13.9 9.05 14.6 9.35 14.1 9.8 13.45 10.1 13.55 9.8 13.7 8.95 M13.05 8.4 L12.95 8.6 13.0 9.2 Q12.75 9.65 12.75 10.25 L12.8 10.4 11.5 10.9 11.5 10.25 11.35 9.3 10.95 8.35 10.45 7.35 10.25 7.05 12.75 6.95 12.85 7.8 13.05 8.4" fill="#666666" fill-rule="evenodd" stroke="none"/>
      <path d="M0.0 -1.7 L1.0 -0.8 0.95 2.1 -1.55 2.1 -1.55 -2.1 -1.35 -2.55 -1.05 -2.5 0.0 -1.7 M9.8 -6.45 L9.75 -6.45 9.75 -7.6 9.85 -8.45 10.35 -8.45 13.05 -8.45 12.85 -7.25 12.6 -6.9 12.3 -6.7 10.8 -6.6 9.8 -6.45 M11.0 -10.05 L11.35 -9.65 11.05 -9.25 10.7 -9.3 10.65 -9.65 Q10.65 -10.05 11.0 -10.05 M14.6 -2.0 L14.55 -2.1 Q15.05 -2.55 15.8 -2.55 16.2 -2.55 16.5 -1.75 L16.7 -0.8 16.25 0.0 16.15 0.15 16.15 -0.9 Q16.15 -1.65 15.75 -1.9 L14.95 -2.1 14.6 -2.0 M13.95 0.9 Q13.6 0.55 13.6 0.2 13.6 -1.75 15.5 -1.35 L15.35 0.9 13.95 0.9" fill="#999999" fill-rule="evenodd" stroke="none"/>
      <path d="M4.75 -3.15 L4.0 -2.6 Q2.75 -1.25 1.9 -1.25 1.25 -1.25 -1.05 -3.35 L2.05 -5.0 Q4.25 -5.25 4.95 -4.65 5.35 -4.35 5.25 -3.9 L4.75 -3.15 M3.7 -0.9 L3.65 -1.35 4.4 -1.95 5.75 -3.0 5.9 -3.9 5.6 -5.2 5.45 -5.3 6.05 -5.35 6.15 -5.3 6.4 -5.5 6.5 -5.55 6.5 -5.5 Q6.6 -5.3 6.95 -5.3 L8.55 -5.15 8.55 -5.0 8.75 -4.2 8.8 -4.0 Q8.0 -4.55 8.0 -3.8 L8.2 -3.55 8.75 -3.2 Q8.25 -2.85 8.25 -2.55 L8.6 -2.25 8.9 -2.45 8.85 -2.0 Q8.85 -1.65 9.25 -1.55 L9.5 -1.6 9.55 -2.35 Q9.75 -2.0 9.9 -2.0 L10.2 -2.1 10.25 -2.4 9.85 -3.15 10.3 -3.65 10.25 -3.9 9.5 -3.85 9.35 -4.55 9.15 -5.2 9.65 -5.65 9.7 -5.8 10.2 -5.8 10.4 -5.8 10.7 -5.15 11.05 -4.7 11.35 -4.35 11.4 -2.55 11.65 1.15 11.65 1.55 11.3 1.5 10.7 1.5 8.05 1.75 3.85 1.75 Q3.7 0.9 3.7 -0.9 M11.9 -4.9 L11.65 -5.15 12.25 -4.9 13.35 -4.25 15.2 -3.15 14.3 -2.9 Q13.5 -2.45 13.5 -1.8 L13.6 -1.65 13.05 -0.95 13.0 -0.5 12.8 -0.75 12.15 -1.3 12.05 -2.9 11.9 -4.9 M11.4 3.9 L11.75 4.25 12.45 5.1 13.1 6.15 13.0 6.3 12.85 6.3 12.45 6.25 12.55 6.4 11.15 6.35 3.35 6.55 3.35 6.5 3.05 6.4 Q3.1 5.7 3.45 4.75 L3.85 3.75 5.8 3.75 11.25 3.65 11.4 3.9" fill="#333333" fill-rule="evenodd" stroke="none"/>
      <path d="M-14.4 -6.3 L-13.75 -8.0 Q-12.35 -10.85 -8.35 -10.85 L-7.35 -10.65 -5.65 -9.55 Q-5.0 -9.15 -4.5 -7.85 L-3.95 -6.15 -3.85 -5.15 -3.75 -4.8 -4.4 -4.8 Q-7.15 -4.7 -11.25 -4.9 L-11.55 -4.25 -11.55 -4.2 -11.45 -4.2 -11.7 -2.8 -11.9 0.15 -15.5 0.15 -16.35 0.05 -16.35 0.0 -15.85 -0.4 -15.3 -0.7 -14.95 -0.85 -15.05 -0.85 -14.65 -1.25 -14.4 -4.2 -14.4 -5.0 -14.45 -5.25 -14.4 -5.3 -14.4 -5.4 -14.4 -6.3 M-9.85 -4.15 L-7.9 -4.1 -8.15 -3.2 -8.25 -2.1 -8.4 0.25 -9.1 0.3 -10.25 0.15 -10.25 -1.9 -9.85 -4.15 M-6.25 8.25 L-6.15 9.15 -13.55 9.2 -13.45 8.55 -11.55 8.6 -8.7 8.45 -7.6 8.3 -6.25 8.25 M-3.7 15.1 L-3.5 15.2 -2.8 15.5 -3.3 15.95 -3.95 16.25 -3.85 15.95 -3.7 15.1 M-4.45 14.75 L-4.4 15.35 -4.65 16.4 -4.6 16.55 -5.9 17.05 -5.9 16.4 -6.05 15.45 -6.45 14.5 -6.95 13.5 -7.15 13.2 -4.65 13.1 -4.55 13.95 -4.35 14.55 -4.45 14.75 M-14.05 18.05 L-14.9 17.25 -14.15 17.3 -13.75 17.3 -13.8 17.4 -14.05 18.05 M-12.25 13.8 L-10.9 14.9 -12.15 15.8 -13.1 16.35 -13.2 16.3 -13.2 16.65 -13.4 16.6 -15.3 16.55 -15.5 16.6 -15.7 16.15 -15.65 16.1 -15.9 15.15 -15.9 15.0 -13.65 14.55 -12.25 13.8" fill="#666666" fill-rule="evenodd" stroke="none"/>
      <path d="M-14.4 -6.3 L-14.4 -5.4 -14.4 -5.3 -14.45 -5.25 -14.4 -5.0 -14.4 -4.2 -14.65 -1.25 -15.05 -0.85 -14.95 -0.85 -15.3 -0.7 -15.85 -0.4 -16.35 0.0 -16.35 0.05 -15.5 0.15 -11.9 0.15 -11.7 -2.8 -11.45 -4.2 -11.55 -4.2 -11.55 -4.25 -11.25 -4.9 Q-7.15 -4.7 -4.4 -4.8 L-3.75 -4.8 -3.85 -5.15 -3.95 -6.15 -4.5 -7.85 Q-5.0 -9.15 -5.65 -9.55 L-7.35 -10.65 -8.35 -10.85 Q-12.35 -10.85 -13.75 -8.0 L-14.4 -6.3 M-15.85 -1.2 L-15.6 -1.55 Q-15.2 -1.85 -15.2 -2.6 L-15.1 -4.2 -15.2 -5.15 -15.1 -5.55 -15.1 -5.75 Q-15.1 -7.6 -13.8 -9.25 -11.8 -11.7 -7.5 -11.55 -6.6 -11.2 -5.15 -9.95 -4.3 -9.2 -3.95 -8.45 -3.15 -6.75 -3.15 -5.25 L-3.2 -4.65 -3.15 -4.6 Q-3.15 -4.35 -3.3 -4.3 L-3.45 -4.25 -3.45 -3.85 -3.6 -2.55 -3.8 -1.45 Q-3.8 -0.65 -4.05 -0.3 -4.3 0.1 -5.5 0.25 L-4.95 0.55 -3.5 1.35 Q-1.35 2.2 -1.35 2.9 L-1.35 3.05 -0.95 3.2 Q-0.25 3.85 -0.1 4.35 L-0.05 5.35 -0.1 6.2 Q-0.3 6.55 -1.25 7.1 L-1.35 7.1 Q-1.6 7.7 -2.8 7.7 L-4.05 7.45 -4.45 6.6 -5.15 6.05 -5.1 7.3 -5.15 7.8 -5.2 7.9 -5.45 8.15 -5.5 8.2 -5.5 8.4 -5.2 9.4 -5.3 9.6 -5.05 9.95 -4.85 10.3 -4.55 10.65 Q-3.45 11.8 -3.45 12.6 -3.45 13.15 -3.75 13.15 L-4.05 13.15 -3.85 13.45 -3.85 13.5 -3.7 14.35 -3.1 14.55 Q-2.0 14.95 -1.9 15.2 L-1.85 15.2 -1.8 15.45 Q-1.8 15.9 -3.55 16.9 -5.45 17.95 -6.8 17.95 L-7.4 17.9 -7.6 17.95 -8.05 17.35 -8.05 16.75 -8.2 15.55 -8.8 14.2 -8.95 13.9 -9.2 14.2 -10.2 15.35 Q-10.7 15.85 -11.6 16.35 L-12.9 17.1 -12.9 17.25 -13.2 18.05 -13.45 18.9 Q-13.5 19.05 -13.75 19.05 -14.15 19.05 -15.15 18.15 L-15.95 17.15 -16.55 16.05 -16.55 15.2 -16.55 14.95 -16.6 14.95 -16.65 14.7 -16.55 14.5 -16.1 13.8 Q-15.75 13.35 -15.2 13.15 L-15.2 12.95 Q-15.2 12.05 -14.7 10.9 L-14.2 9.85 -14.05 9.65 -14.2 9.55 -14.2 8.35 -14.15 8.35 -14.2 8.3 -14.2 7.95 -14.35 7.3 -14.35 5.25 -15.4 5.8 -15.75 5.7 -15.75 6.8 Q-15.75 8.45 -15.95 8.7 L-17.85 8.9 -19.75 8.95 -19.6 8.7 -19.6 6.2 -19.55 4.05 -19.45 3.35 -19.5 3.05 Q-19.5 2.15 -16.35 0.75 L-16.95 0.65 -17.1 0.1 -16.95 -0.5 -15.85 -1.2 M-6.7 -3.15 L-6.35 -3.1 Q-6.05 -3.1 -6.05 -3.5 -6.05 -3.85 -6.4 -3.9 -6.75 -3.9 -6.75 -3.5 L-6.7 -3.15 M-9.85 -4.15 L-10.25 -1.9 -10.25 0.15 -9.1 0.3 -8.4 0.25 -8.25 -2.1 -8.15 -3.2 -7.9 -4.1 -9.85 -4.15 M-7.6 -0.3 L-6.6 -0.45 -5.1 -0.55 -4.8 -0.75 -4.55 -1.1 -4.35 -2.3 -7.05 -2.3 -7.55 -2.3 -7.65 -1.45 -7.65 -0.3 -7.6 -0.3 M-4.3 -3.0 L-4.25 -2.95 -4.25 -3.0 -4.3 -3.0 M-4.4 5.65 L-4.35 5.2 -3.8 4.5 -3.9 4.35 Q-3.9 3.7 -3.1 3.25 L-2.2 3.0 -4.05 1.9 -5.15 1.25 -5.75 1.0 -5.5 1.25 Q-5.3 1.8 -5.35 3.25 L-5.25 4.85 -4.6 5.4 -4.4 5.65 M-2.85 4.05 L-2.9 4.15 -2.8 4.15 -2.45 4.05 -1.65 4.25 Q-1.25 4.5 -1.25 5.25 L-1.25 6.3 -1.15 6.15 Q-0.7 5.75 -0.7 5.35 L-0.9 4.4 Q-1.2 3.6 -1.6 3.6 -2.35 3.6 -2.85 4.05 M-6.35 1.45 L-6.7 1.0 -7.0 0.35 -7.2 0.35 -7.7 0.35 -7.75 0.5 -8.25 0.95 -8.05 1.6 -7.9 2.3 -7.15 2.25 -7.1 2.5 -7.55 3.0 -7.15 3.75 -7.2 4.05 -7.5 4.15 -7.85 3.8 -7.9 4.55 -8.15 4.6 Q-8.55 4.5 -8.55 4.15 L-8.5 3.7 -8.8 3.9 -9.15 3.6 Q-9.15 3.3 -8.65 2.95 L-9.2 2.6 -9.4 2.35 Q-9.4 1.6 -8.6 2.15 L-8.65 1.95 -8.85 1.15 -8.85 1.0 -10.45 0.85 Q-10.8 0.85 -10.9 0.65 L-10.9 0.6 -11.0 0.65 -11.25 0.85 -11.35 0.8 -11.95 0.85 -11.8 0.95 Q-11.5 1.4 -11.5 2.25 -11.5 3.0 -11.65 3.15 L-13.0 4.2 -13.75 4.8 -13.7 5.25 -13.55 7.9 -9.35 7.9 -6.7 7.65 -6.1 7.65 -5.75 7.7 -5.75 7.3 -6.0 3.6 Q-5.95 2.4 -6.05 1.8 L-6.35 1.45 M-6.25 8.25 L-7.6 8.3 -8.7 8.45 -11.55 8.6 -13.45 8.55 -13.55 9.2 -6.15 9.15 -6.25 8.25 M-6.0 10.05 L-6.15 9.8 -11.6 9.9 -13.55 9.9 -13.95 10.9 -14.35 12.55 -14.05 12.65 -14.05 12.7 -6.25 12.5 -4.85 12.55 -4.95 12.4 -4.55 12.45 -4.4 12.45 -4.3 12.3 -4.95 11.25 -5.65 10.4 -6.0 10.05 M-3.45 7.05 L-2.05 7.05 -1.9 4.8 Q-3.8 4.4 -3.8 6.35 L-3.45 7.05 M-12.15 2.25 Q-12.05 1.8 -12.45 1.5 -13.15 0.9 -15.35 1.15 -16.7 1.6 -18.45 2.8 -16.15 4.9 -15.5 4.9 -14.65 4.9 -13.4 3.55 L-12.65 3.0 -12.15 2.25 M-18.75 3.6 L-18.95 4.05 -18.95 8.25 -16.45 8.25 -16.4 5.35 -17.4 4.45 -18.45 3.65 -18.75 3.6 M-12.25 13.8 L-13.65 14.55 -15.9 15.0 -15.9 15.15 -15.65 16.1 -15.7 16.15 -15.5 16.6 -15.3 16.55 -13.4 16.6 -13.2 16.65 -13.2 16.3 -13.1 16.35 -12.15 15.8 -10.9 14.9 -12.25 13.8 M-14.05 18.05 L-13.8 17.4 -13.75 17.3 -14.15 17.3 -14.9 17.25 -14.05 18.05 M-4.45 14.75 L-4.35 14.55 -4.55 13.95 -4.65 13.1 -7.15 13.2 -6.95 13.5 -6.45 14.5 -6.05 15.45 -5.9 16.4 -5.9 17.05 -4.6 16.55 -4.65 16.4 -4.4 15.35 -4.45 14.75 M-3.7 15.1 L-3.85 15.95 -3.95 16.25 -3.3 15.95 -2.8 15.5 -3.5 15.2 -3.7 15.1" fill="#282828" fill-rule="evenodd" stroke="none"/>
      <path d="M-6.7 -3.15 L-6.75 -3.5 Q-6.75 -3.9 -6.4 -3.9 -6.05 -3.85 -6.05 -3.5 -6.05 -3.1 -6.35 -3.1 L-6.7 -3.15 M-7.6 -0.3 L-7.65 -0.3 -7.65 -1.45 -7.55 -2.3 -7.05 -2.3 -4.35 -2.3 -4.55 -1.1 -4.8 -0.75 -5.1 -0.55 -6.6 -0.45 -7.6 -0.3 M-2.8 4.15 L-2.85 4.05 Q-2.35 3.6 -1.6 3.6 -1.2 3.6 -0.9 4.4 L-0.7 5.35 Q-0.7 5.75 -1.15 6.15 L-1.25 6.3 -1.25 5.25 Q-1.25 4.5 -1.65 4.25 L-2.45 4.05 -2.8 4.15 M-3.45 7.05 L-3.8 6.35 Q-3.8 4.4 -1.9 4.8 L-2.05 7.05 -3.45 7.05 M-18.75 3.6 L-18.45 3.65 -17.4 4.45 -16.4 5.35 -16.45 8.25 -18.95 8.25 -18.95 4.05 -18.75 3.6" fill="#999999" fill-rule="evenodd" stroke="none"/>
      <path d="M-4.4 5.65 L-4.6 5.4 -5.25 4.85 -5.35 3.25 Q-5.3 1.8 -5.5 1.25 L-5.75 1.0 -5.15 1.25 -4.05 1.9 -2.2 3.0 -3.1 3.25 Q-3.9 3.7 -3.9 4.35 L-3.8 4.5 -4.35 5.2 -4.4 5.65 M-6.35 1.45 L-6.05 1.8 Q-5.95 2.4 -6.0 3.6 L-5.75 7.3 -5.75 7.7 -6.1 7.65 -6.7 7.65 -9.35 7.9 -13.55 7.9 -13.7 5.25 -13.75 4.8 -13.0 4.2 -11.65 3.15 Q-11.5 3.0 -11.5 2.25 -11.5 1.4 -11.8 0.95 L-11.95 0.85 -11.35 0.8 -11.25 0.85 -11.0 0.65 -10.9 0.6 -10.9 0.65 Q-10.8 0.85 -10.45 0.85 L-8.85 1.0 -8.85 1.15 -8.65 1.95 -8.6 2.15 Q-9.4 1.6 -9.4 2.35 L-9.2 2.6 -8.65 2.95 Q-9.15 3.3 -9.15 3.6 L-8.8 3.9 -8.5 3.7 -8.55 4.15 Q-8.55 4.5 -8.15 4.6 L-7.9 4.55 -7.85 3.8 -7.5 4.15 -7.2 4.05 -7.15 3.75 -7.55 3.0 -7.1 2.5 -7.15 2.25 -7.9 2.3 -8.05 1.6 -8.25 0.95 -7.75 0.5 -7.7 0.35 -7.2 0.35 -7.0 0.35 -6.7 1.0 -6.35 1.45 M-6.0 10.05 L-5.65 10.4 -4.95 11.25 -4.3 12.3 -4.4 12.45 -4.55 12.45 -4.95 12.4 -4.85 12.55 -6.25 12.5 -14.05 12.7 -14.05 12.65 -14.35 12.55 -13.95 10.9 -13.55 9.9 -11.6 9.9 -6.15 9.8 -6.0 10.05 M-12.15 2.25 L-12.65 3.0 -13.4 3.55 Q-14.65 4.9 -15.5 4.9 -16.15 4.9 -18.45 2.8 -16.7 1.6 -15.35 1.15 -13.15 0.9 -12.45 1.5 -12.05 1.8 -12.15 2.25" fill="#333333" fill-rule="evenodd" stroke="none"/>
    </g>
    <g id="text0" transform="matrix(1.0, 0.0, 0.0, 1.0, -17.85, -1.8)">
      <g transform="matrix(1.0, 0.0, 0.0, 1.0, 0.0, 0.0)">
        <use fill="#ffcc66" height="15.25" transform="matrix(0.0156, 0.0, 0.0, 0.0156, 18.0, 15.0)" width="28.35" xlink:href="#font_Lithos_Pro_Regular_x0"/>
        <use fill="#ffcc66" height="15.25" transform="matrix(0.0156, 0.0, 0.0, 0.0156, 27.65, 15.0)" width="28.35" xlink:href="#font_Lithos_Pro_Regular_20"/>
      </g>
    </g>
    <g id="font_Lithos_Pro_Regular_x0">
      <path d="M172.0 39.0 L22.5 -102.5 Q30.0 -110.5 59.0 -139.5 88.0 -168.0 124.5 -204.5 161.0 -240.5 192.0 -271.0 222.5 -301.5 233.5 -313.0 215.0 -332.0 186.0 -362.0 156.5 -391.5 126.0 -423.0 95.5 -454.5 72.0 -478.5 49.0 -502.0 43.0 -508.5 L208.0 -651.0 Q224.0 -632.0 248.5 -602.5 273.0 -572.5 299.0 -540.5 325.5 -508.0 347.0 -482.0 369.0 -455.5 379.0 -444.0 389.0 -455.5 412.5 -482.0 435.5 -508.5 464.0 -541.0 492.0 -573.5 518.0 -603.5 544.0 -633.0 560.0 -651.0 L715.0 -513.0 Q705.0 -503.0 676.0 -476.5 647.0 -450.0 611.5 -418.0 575.5 -386.0 546.5 -359.0 517.0 -332.5 507.0 -322.5 520.5 -308.5 551.5 -278.0 583.0 -247.0 619.0 -211.0 655.0 -175.5 683.0 -147.0 711.5 -119.0 720.0 -110.5 L555.0 38.0 Q542.5 23.5 516.0 -7.5 489.5 -38.5 458.5 -75.0 427.5 -111.5 401.0 -142.5 374.5 -173.5 361.5 -188.5 353.0 -179.0 326.5 -147.0 300.0 -115.0 267.0 -75.5 234.5 -36.0 208.0 -3.5 181.0 29.0 172.0 39.0" fill-rule="evenodd" stroke="none"/>
    </g>
    <g id="font_Lithos_Pro_Regular_20">
      <path d="M662.0 -182.0 L662.0 -182.0 662.0 8.5 Q652.0 7.0 603.5 5.5 555.0 4.0 481.0 3.0 407.0 1.5 320.0 0.5 233.0 0.0 145.5 0.0 L107.5 0.0 92.0 -36.0 Q114.5 -55.5 150.5 -86.5 187.0 -118.0 228.0 -157.0 269.0 -196.0 306.0 -239.5 342.5 -283.0 366.0 -327.5 389.5 -372.0 390.0 -413.5 389.0 -463.5 364.0 -495.0 338.5 -526.0 299.0 -543.0 259.5 -560.0 217.0 -567.0 174.0 -573.5 138.0 -574.5 L171.0 -744.5 Q334.5 -730.0 436.0 -688.0 537.5 -646.0 584.5 -587.0 631.0 -528.0 630.5 -461.5 629.5 -402.5 606.5 -355.5 583.5 -308.5 550.5 -273.0 517.0 -237.5 486.0 -214.0 454.5 -190.0 437.0 -178.0 L437.0 -170.0 662.0 -182.0" fill-rule="evenodd" stroke="none"/>
    </g>
    <g id="sprite3" transform="matrix(1.0, 0.0, 0.0, 1.0, 29.05, 29.25)">
      <clipPath id="clipPath1" transform="matrix(1.0, 0.0, 0.0, 1.0, 0.0, 0.0)">
        <path d="M46.5 -7.45 L46.65 -7.3 46.7 -7.2 Q47.2 -9.05 47.4 -0.7 L47.5 18.6 47.4 42.5 47.4 42.8 47.35 48.6 -7.85 48.6 -7.95 42.8 -8.0 42.5 -8.0 -1.85 -7.35 -7.1 -7.3 -7.25 Q-7.15 -7.8 -7.0 -7.3 L-6.75 -7.35 -6.5 -7.4 -0.55 -7.7 18.75 -7.8 42.65 -7.7 44.9 -7.55 45.0 -7.55 46.5 -7.45 M40.0 40.0 L40.0 0.0 0.0 0.0 0.0 40.0 40.0 40.0" fill="#00ff00" fill-rule="evenodd" stroke="none"/>
      </clipPath>
      <g clip-path="url(#clipPath1)">
        <use ffdec:characterId="937" height="49.05" transform="matrix(1.0, 0.0, 0.0, 1.0, -5.2, -5.05)" width="49.95" xlink:href="#shape5"/>
      </g>
    </g>
    <g id="shape5" transform="matrix(1.0, 0.0, 0.0, 1.0, 5.2, 5.05)">
      <path d="M18.85 -5.05 L40.4 -5.0 42.4 -4.85 42.5 -4.85 43.85 -4.75 44.0 -4.6 44.05 -4.55 Q44.5 -6.2 44.65 1.3 L44.75 18.7 44.65 40.2 44.5 42.2 Q44.4 43.75 44.05 43.75 L43.8 43.55 42.9 43.75 40.4 44.0 0.45 44.0 -3.55 43.55 -3.6 43.55 -4.6 43.75 -4.95 42.7 -5.2 40.2 -5.2 0.3 -4.6 -4.45 -4.55 -4.55 Q-4.45 -5.05 -4.3 -4.6 L-4.05 -4.65 -3.85 -4.7 1.5 -5.0 18.85 -5.05 M36.4 1.65 L36.8 1.25 41.65 -3.2 42.1 -3.6 41.7 -3.65 41.6 -3.85 40.4 -3.7 0.45 -3.7 -3.0 -4.1 2.5 0.85 3.3 1.65 1.8 1.65 1.8 2.6 1.8 1.65 3.3 1.65 3.6 1.95 2.0 1.95 2.0 2.8 1.8 2.6 0.3 1.1 -3.9 -4.2 -4.2 -4.3 -3.95 1.3 -3.85 18.7 -3.95 40.2 -4.05 42.2 -4.05 42.5 -4.0 42.3 -3.6 41.8 -1.65 39.65 1.8 36.1 1.8 37.95 2.0 37.95 1.8 37.95 1.8 36.1 2.0 35.9 2.0 37.95 2.6 37.95 -0.4 40.9 -2.75 42.9 1.5 42.7 18.85 42.65 40.4 42.7 42.4 42.85 42.5 42.85 42.4 42.8 39.65 40.55 37.05 37.95 38.0 37.95 38.15 37.95 38.15 36.45 38.15 37.95 38.0 37.95 38.0 36.35 38.15 36.45 40.9 39.3 42.85 41.45 43.6 42.45 43.4 40.2 43.4 0.3 43.85 -3.65 43.8 -3.65 42.95 -3.5 42.8 -3.3 39.0 1.45 38.15 2.3 38.15 1.65 36.4 1.65 38.15 1.65 38.15 2.3 38.0 2.45 38.0 1.95 36.0 1.95 36.4 1.65" fill="#473a29" fill-rule="evenodd" stroke="none"/>
      <path d="M3.3 1.65 L2.5 0.85 -3.0 -4.1 0.45 -3.7 40.4 -3.7 41.6 -3.85 41.7 -3.65 42.1 -3.6 41.65 -3.2 36.8 1.25 36.4 1.65 3.3 1.65 36.4 1.65 36.0 1.95 3.6 1.95 3.3 1.65 M1.8 36.1 L-1.65 39.65 -3.6 41.8 -4.0 42.3 -4.05 42.2 -3.95 40.2 -3.85 18.7 -3.95 1.3 -4.2 -4.3 -3.9 -4.2 0.3 1.1 1.8 2.6 2.0 2.8 2.0 35.9 1.8 36.1 1.8 35.0 1.8 33.05 1.8 2.6 1.8 33.05 1.8 35.0 1.8 36.1" fill="#bfaf91" fill-rule="evenodd" stroke="none"/>
      <path d="M38.15 2.3 L39.0 1.45 42.8 -3.3 42.95 -3.5 43.8 -3.65 43.85 -3.65 43.4 0.3 43.4 40.2 43.6 42.45 42.85 41.45 40.9 39.3 38.15 36.45 38.15 2.3 38.15 36.45 38.0 36.35 38.0 2.45 38.15 2.3 M37.05 37.95 L39.65 40.55 42.4 42.8 42.4 42.85 40.4 42.7 18.85 42.65 1.5 42.7 -2.75 42.9 -0.4 40.9 2.6 37.95 26.5 37.95 Q27.1 37.75 27.6 37.95 L37.05 37.95" fill="#6c5b3e" fill-rule="evenodd" stroke="none"/>
      <path d="M3.3 1.65 L36.4 1.65 38.15 1.65 38.15 2.3 38.15 36.45 38.15 37.95 38.0 37.95 37.05 37.95 27.6 37.95 Q27.1 37.75 26.5 37.95 L2.6 37.95 2.0 37.95 1.8 37.95 1.8 36.1 1.8 35.0 1.8 33.05 1.8 2.6 1.8 1.65 3.3 1.65 Z" fill="none" stroke="#473a29" stroke-linecap="round" stroke-linejoin="round" stroke-opacity="0.49019608" stroke-width="1.0"/>
    </g>
    <g id="sprite4" transform="matrix(1.0, 0.0, 0.0, 1.0, 0.0, 48.5)">
      <use ffdec:characterId="949" height="340.0" transform="matrix(0.2505, 0.0, 0.0, 0.1427, 0.0114, -48.4851)" width="192.0" xlink:href="#shape6"/>
    </g>
    <g id="shape6" transform="matrix(1.0, 0.0, 0.0, 1.0, 2.15, 3.05)">
      <path d="M189.85 -3.05 L189.85 336.95 -2.15 336.95 -2.15 -3.05 189.85 -3.05" fill="#000000" fill-opacity="0.29803923" fill-rule="evenodd" stroke="none"/>
    </g>
    <g id="sprite5" transform="matrix(1.0, 0.0, 0.0, 1.0, 64.35, 49.9)">
      <use ffdec:characterId="58" height="400.0" transform="matrix(0.1796, 0.0, 0.0, 0.1248, -62.85, -49.9)" width="700.0" xlink:href="#shape7"/>
      <use ffdec:characterId="951" height="18.1" id="txt_name" transform="matrix(1.0, 0.0, 0.0, 1.0, -63.85, -49.05)" width="129.05" xlink:href="#text2"/>
      <use ffdec:characterId="952" height="35.25" id="txt_desc" transform="matrix(1.0, 0.0, 0.0, 1.0, -64.35, -35.05)" width="129.05" xlink:href="#text3"/>
    </g>
    <g id="shape7" transform="matrix(1.0, 0.0, 0.0, 1.0, 0.0, 0.0)">
      <path d="M700.0 400.0 L0.0 400.0 0.0 0.0 700.0 0.0 700.0 400.0" fill="#000000" fill-opacity="0.49803922" fill-rule="evenodd" stroke="none"/>
    </g>
    <g id="text2" transform="matrix(1.0, 0.0, 0.0, 1.0, -51.35, 2.0)">
      <g transform="matrix(1.0, 0.0, 0.0, 1.0, 51.35, -2.0)">
        <use fill="#ffffff" height="18.1" transform="matrix(0.0117, 0.0, 0.0, 0.0117, 45.95, 13.05)" width="129.05" xlink:href="#font_Lithos_Pro_Regular_N0"/>
        <use fill="#ffffff" height="18.1" transform="matrix(0.0117, 0.0, 0.0, 0.0117, 56.95, 13.05)" width="129.05" xlink:href="#font_Lithos_Pro_Regular_a0"/>
        <use fill="#ffffff" height="18.1" transform="matrix(0.0117, 0.0, 0.0, 0.0117, 65.45, 13.05)" width="129.05" xlink:href="#font_Lithos_Pro_Regular_m0"/>
        <use fill="#ffffff" height="18.1" transform="matrix(0.0117, 0.0, 0.0, 0.0117, 76.75, 13.05)" width="129.05" xlink:href="#font_Lithos_Pro_Regular_e0"/>
      </g>
    </g>
    <g id="font_Lithos_Pro_Regular_N0">
      <path d="M216.5 7.5 L120.0 0.0 Q121.5 -20.5 124.5 -75.5 127.0 -130.5 131.0 -207.0 135.0 -283.5 139.0 -368.0 143.0 -452.5 147.0 -531.5 151.0 -610.5 153.5 -670.5 156.5 -730.5 158.0 -758.0 L160.0 -758.0 Q168.0 -748.5 209.0 -705.5 249.5 -663.0 309.5 -600.0 370.0 -537.0 437.0 -467.5 503.5 -398.0 564.0 -335.0 624.5 -272.0 666.0 -229.5 707.5 -186.5 716.5 -177.0 716.5 -185.5 717.0 -225.0 717.5 -265.0 718.0 -323.5 719.0 -382.5 720.0 -447.5 720.5 -513.0 721.5 -572.0 722.5 -631.5 723.0 -672.0 723.5 -712.5 724.0 -722.0 L819.0 -716.5 Q818.0 -697.0 815.0 -641.0 812.5 -585.0 808.5 -504.5 805.0 -424.0 801.5 -332.0 798.0 -240.0 795.5 -148.5 792.5 -57.0 791.5 21.5 L789.5 21.5 Q781.5 13.5 739.5 -29.5 697.0 -72.5 635.0 -136.5 572.5 -200.5 504.0 -271.5 435.0 -342.5 373.5 -406.5 312.0 -470.0 271.5 -513.0 231.5 -555.5 225.5 -563.0 L223.5 -563.0 Q223.5 -553.0 223.0 -511.0 222.5 -468.5 221.5 -407.0 220.5 -345.0 219.5 -277.0 218.5 -209.0 217.5 -147.5 217.0 -86.0 216.5 -44.0 216.0 -2.0 216.5 7.5" fill-rule="evenodd" stroke="none"/>
    </g>
    <g id="font_Lithos_Pro_Regular_a0">
      <path d="M226.5 -255.0 L476.5 -265.0 Q473.0 -271.5 460.0 -295.0 447.5 -318.5 430.0 -350.5 412.5 -382.5 395.0 -414.0 378.0 -445.5 365.0 -468.0 352.5 -490.5 349.5 -495.5 345.0 -488.5 332.5 -464.0 319.5 -439.5 303.0 -406.0 286.0 -373.0 269.5 -340.0 253.0 -307.0 241.0 -283.5 229.5 -260.0 226.5 -255.0 M93.5 18.5 L14.5 -26.5 Q27.5 -49.5 55.0 -100.0 83.0 -150.5 119.0 -216.5 155.0 -283.0 193.5 -353.0 231.5 -423.5 265.0 -485.0 299.0 -547.0 322.0 -589.0 345.0 -630.5 350.5 -640.0 L352.5 -640.0 Q376.5 -601.5 414.5 -538.0 452.0 -474.0 496.0 -399.0 540.0 -323.5 582.5 -250.0 625.5 -176.5 660.0 -119.0 694.0 -61.0 713.0 -32.5 L630.0 17.5 Q623.0 4.0 605.5 -28.5 587.5 -61.0 566.5 -99.0 545.5 -137.0 529.0 -166.5 512.0 -196.0 508.0 -202.5 L191.5 -190.5 Q186.5 -179.0 173.0 -150.5 159.5 -121.5 143.5 -86.5 127.0 -52.0 113.0 -23.0 99.0 6.5 93.5 18.5" fill-rule="evenodd" stroke="none"/>
    </g>
    <g id="font_Lithos_Pro_Regular_m0">
      <path d="M115.0 22.5 L31.0 -4.0 Q35.5 -14.5 51.5 -61.5 68.0 -108.0 91.0 -176.5 114.5 -245.0 140.0 -320.0 165.0 -395.0 187.5 -462.0 210.0 -529.0 224.5 -573.0 239.0 -617.5 241.0 -624.0 L245.0 -624.0 Q254.0 -606.5 276.0 -563.5 298.5 -521.0 327.5 -465.5 356.5 -410.5 385.5 -355.5 414.5 -300.5 437.0 -259.0 459.5 -217.0 468.0 -201.0 477.5 -216.5 502.5 -258.5 527.5 -300.0 560.0 -354.0 592.0 -408.0 623.5 -460.5 655.0 -513.0 677.5 -550.5 700.0 -588.0 705.5 -597.5 L708.5 -597.5 Q716.0 -579.0 732.5 -535.5 749.0 -492.5 771.5 -434.0 793.5 -375.5 818.0 -311.5 842.5 -247.5 865.5 -187.0 889.0 -127.0 907.0 -80.0 925.0 -33.0 935.0 -9.5 L850.0 22.5 Q843.0 1.5 826.0 -47.0 809.5 -95.5 787.5 -156.5 766.0 -218.0 745.0 -277.0 724.0 -336.5 708.5 -379.5 693.5 -422.0 689.5 -433.5 680.0 -418.0 657.5 -381.5 635.5 -345.5 606.5 -298.0 577.5 -250.5 548.0 -202.0 518.5 -153.5 494.5 -114.5 470.5 -75.5 458.0 -55.5 L456.0 -55.5 Q436.0 -93.0 408.0 -144.5 380.5 -196.5 351.0 -252.5 321.5 -308.0 295.5 -356.5 270.0 -405.0 254.0 -435.5 250.0 -421.0 239.0 -385.0 228.0 -349.0 213.0 -300.0 198.0 -251.5 182.0 -199.0 166.0 -146.5 151.5 -99.0 137.0 -52.0 127.5 -19.5 117.5 13.5 115.0 22.5" fill-rule="evenodd" stroke="none"/>
    </g>
    <g id="font_Lithos_Pro_Regular_e0">
      <path d="M458.5 -68.5 L461.5 9.5 Q451.5 9.5 417.0 8.5 383.0 7.5 337.5 6.0 292.0 5.0 247.0 3.5 202.0 2.0 170.5 1.0 138.5 0.0 132.0 0.0 133.0 -18.5 133.5 -56.0 134.5 -93.5 134.5 -136.0 135.0 -178.0 135.0 -211.0 135.0 -244.0 135.0 -252.5 L135.0 -368.5 Q135.0 -373.5 135.0 -397.5 134.5 -421.5 134.0 -454.5 134.0 -488.0 133.5 -521.5 133.0 -555.0 132.5 -579.5 132.5 -603.5 132.0 -609.5 139.5 -609.5 168.5 -611.0 197.5 -612.0 238.0 -614.5 278.5 -616.5 320.0 -618.5 362.0 -621.0 395.0 -623.0 428.5 -625.0 443.0 -626.0 L447.0 -552.0 Q431.0 -552.0 397.5 -551.5 364.0 -551.0 326.5 -550.0 288.5 -549.0 259.5 -548.5 231.0 -548.0 224.0 -548.0 L224.0 -334.5 Q231.0 -334.5 253.5 -335.0 276.0 -336.0 305.5 -337.0 335.5 -338.5 365.0 -340.0 394.5 -342.0 416.5 -343.5 L419.5 -269.0 Q407.0 -269.0 378.5 -269.5 350.5 -270.0 317.0 -271.0 284.5 -271.0 258.5 -271.5 232.5 -272.0 224.0 -272.0 L224.0 -65.5 Q233.0 -65.5 258.0 -65.0 283.0 -65.0 317.0 -65.0 351.5 -65.0 388.5 -66.0 425.5 -66.5 458.5 -68.5" fill-rule="evenodd" stroke="none"/>
    </g>
    <g id="text3" transform="matrix(1.0, 0.0, 0.0, 1.0, -51.35, 2.0)">
      <g transform="matrix(1.0, 0.0, 0.0, 1.0, 51.35, -2.0)">
        <use fill="#ffffff" height="35.25" transform="matrix(0.0098, 0.0, 0.0, 0.0098, 49.05, 7.2)" width="129.05" xlink:href="#font_Lithos_Pro_Regular_N0"/>
        <use fill="#ffffff" height="35.25" transform="matrix(0.0098, 0.0, 0.0, 0.0098, 58.2, 7.2)" width="129.05" xlink:href="#font_Lithos_Pro_Regular_a0"/>
        <use fill="#ffffff" height="35.25" transform="matrix(0.0098, 0.0, 0.0, 0.0098, 65.3, 7.2)" width="129.05" xlink:href="#font_Lithos_Pro_Regular_m0"/>
        <use fill="#ffffff" height="35.25" transform="matrix(0.0098, 0.0, 0.0, 0.0098, 74.7, 7.2)" width="129.05" xlink:href="#font_Lithos_Pro_Regular_e0"/>
      </g>
      <g transform="matrix(1.0, 0.0, 0.0, 1.0, 51.35, -2.0)">
        <use fill="#ffffff" height="35.25" transform="matrix(0.0098, 0.0, 0.0, 0.0098, 46.0, 16.95)" width="129.05" xlink:href="#font_Lithos_Pro_Regular_k0"/>
        <use fill="#ffffff" height="35.25" transform="matrix(0.0098, 0.0, 0.0, 0.0098, 52.6, 16.95)" width="129.05" xlink:href="#font_Lithos_Pro_Regular_j0"/>
        <use fill="#ffffff" height="35.25" transform="matrix(0.0098, 0.0, 0.0, 0.0098, 56.25, 16.95)" width="129.05" xlink:href="#font_Lithos_Pro_Regular_h0"/>
        <use fill="#ffffff" height="35.25" transform="matrix(0.0098, 0.0, 0.0, 0.0098, 64.5, 16.95)" width="129.05" xlink:href="#font_Lithos_Pro_Regular_k0"/>
        <use fill="#ffffff" height="35.25" transform="matrix(0.0098, 0.0, 0.0, 0.0098, 71.1, 16.95)" width="129.05" xlink:href="#font_Lithos_Pro_Regular_j0"/>
        <use fill="#ffffff" height="35.25" transform="matrix(0.0098, 0.0, 0.0, 0.0098, 74.75, 16.95)" width="129.05" xlink:href="#font_Lithos_Pro_Regular_h0"/>
      </g>
      <g transform="matrix(1.0, 0.0, 0.0, 1.0, 51.35, -2.0)">
        <use fill="#ffffff" height="35.25" transform="matrix(0.0098, 0.0, 0.0, 0.0098, 46.0, 26.7)" width="129.05" xlink:href="#font_Lithos_Pro_Regular_k0"/>
        <use fill="#ffffff" height="35.25" transform="matrix(0.0098, 0.0, 0.0, 0.0098, 52.6, 26.7)" width="129.05" xlink:href="#font_Lithos_Pro_Regular_j0"/>
        <use fill="#ffffff" height="35.25" transform="matrix(0.0098, 0.0, 0.0, 0.0098, 56.25, 26.7)" width="129.05" xlink:href="#font_Lithos_Pro_Regular_h0"/>
        <use fill="#ffffff" height="35.25" transform="matrix(0.0098, 0.0, 0.0, 0.0098, 64.5, 26.7)" width="129.05" xlink:href="#font_Lithos_Pro_Regular_k0"/>
        <use fill="#ffffff" height="35.25" transform="matrix(0.0098, 0.0, 0.0, 0.0098, 71.1, 26.7)" width="129.05" xlink:href="#font_Lithos_Pro_Regular_j0"/>
        <use fill="#ffffff" height="35.25" transform="matrix(0.0098, 0.0, 0.0, 0.0098, 74.75, 26.7)" width="129.05" xlink:href="#font_Lithos_Pro_Regular_h0"/>
      </g>
    </g>
    <g id="font_Lithos_Pro_Regular_k0">
      <path d="M621.5 -61.5 L558.0 8.5 Q553.5 4.0 523.0 -26.5 493.0 -56.5 449.0 -100.5 405.0 -144.0 359.5 -189.5 314.0 -235.5 278.5 -271.0 243.0 -306.5 230.0 -320.5 235.5 -326.0 265.5 -353.5 295.5 -381.5 337.5 -421.0 379.5 -460.5 421.5 -500.5 464.0 -540.5 495.0 -569.5 526.0 -599.0 533.0 -606.5 L587.5 -540.0 Q572.5 -528.5 540.0 -501.0 507.0 -473.5 467.0 -440.0 427.0 -406.0 392.0 -375.5 356.5 -345.0 336.5 -327.0 346.0 -316.0 373.5 -289.5 401.5 -262.5 438.5 -228.0 476.0 -193.5 513.5 -159.0 551.0 -124.5 580.5 -98.0 609.5 -72.0 621.5 -61.5 M228.0 9.5 L130.0 9.5 Q130.5 -1.0 131.5 -30.0 132.5 -59.0 133.0 -99.0 134.0 -139.5 134.5 -182.5 135.0 -225.5 135.0 -263.0 L135.0 -355.5 Q135.0 -385.0 134.0 -426.0 133.5 -466.5 132.5 -508.0 131.5 -549.5 130.5 -580.0 130.0 -610.5 130.0 -619.0 L228.0 -619.0 Q227.5 -612.5 227.0 -583.5 226.0 -554.5 225.0 -514.5 224.5 -474.0 223.5 -433.5 223.0 -393.0 223.0 -363.5 L223.0 -270.5 Q223.0 -244.0 223.5 -200.5 224.0 -157.5 225.0 -111.5 225.5 -66.0 226.5 -32.0 227.5 1.5 228.0 9.5" fill-rule="evenodd" stroke="none"/>
    </g>
    <g id="font_Lithos_Pro_Regular_j0">
      <path d="M258.0 -400.5 L258.0 -264.5 Q257.0 -170.0 230.5 -104.5 204.0 -39.5 161.5 1.0 119.0 41.5 70.5 61.5 L25.5 -7.5 Q70.0 -25.5 102.0 -57.0 134.0 -88.5 151.5 -139.5 169.0 -190.5 169.0 -266.5 L169.0 -402.5 Q169.0 -409.0 168.5 -438.0 168.0 -467.0 167.5 -503.5 166.5 -540.5 166.0 -570.5 165.5 -600.5 165.0 -609.5 L263.0 -609.5 Q262.0 -601.0 261.0 -571.5 259.5 -542.0 259.0 -497.5 258.0 -453.5 258.0 -400.5" fill-rule="evenodd" stroke="none"/>
    </g>
    <g id="font_Lithos_Pro_Regular_h0">
      <path d="M228.0 0.0 L132.0 0.0 Q132.5 -12.0 133.0 -40.0 133.5 -67.5 134.0 -103.0 134.5 -138.0 134.5 -172.0 135.0 -206.5 135.0 -231.5 135.0 -256.5 135.0 -264.0 L135.0 -358.0 Q135.0 -363.0 134.5 -388.0 134.5 -412.5 134.0 -447.0 133.5 -481.5 132.5 -516.5 132.0 -551.5 131.0 -577.0 130.5 -602.5 130.0 -609.5 L229.0 -609.5 Q228.5 -604.0 228.0 -583.0 227.0 -562.5 226.5 -533.5 225.5 -504.5 225.0 -476.0 224.5 -447.0 224.5 -426.0 224.0 -405.0 224.0 -400.0 L224.0 -336.5 618.5 -352.5 618.5 -418.5 Q618.5 -425.0 618.0 -451.5 618.0 -478.5 617.5 -512.0 617.0 -546.0 616.5 -573.5 616.0 -601.0 615.5 -609.5 L714.5 -609.5 Q714.0 -602.5 713.0 -574.5 712.0 -547.0 711.0 -509.0 710.5 -471.0 709.5 -432.5 708.5 -394.5 708.0 -367.0 707.5 -339.0 707.5 -332.0 L707.5 -245.5 Q707.5 -241.5 707.5 -217.0 708.0 -193.0 708.5 -159.0 708.5 -124.5 709.0 -90.0 710.0 -56.0 710.5 -31.0 711.0 -6.0 711.5 0.0 L613.5 0.0 Q614.5 -12.0 615.5 -41.5 616.5 -71.0 617.0 -105.0 618.0 -139.5 618.0 -166.5 618.5 -193.5 618.5 -200.5 L618.5 -288.5 224.0 -272.0 224.0 -219.0 Q224.0 -203.5 224.5 -171.0 225.0 -139.0 225.5 -102.5 226.5 -66.0 227.0 -37.5 227.5 -8.5 228.0 0.0" fill-rule="evenodd" stroke="none"/>
    </g>
  </defs>
</svg>
