<?xml version="1.0" encoding="UTF-8" standalone="no"?>
<svg xmlns:ffdec="https://www.free-decompiler.com/flash" xmlns:xlink="http://www.w3.org/1999/xlink" ffdec:objectType="frame" height="135.65px" width="129.65px" xmlns="http://www.w3.org/2000/svg">
  <g transform="matrix(1.0, 0.0, 0.0, 1.0, 45.0, 57.4)">
    <use ffdec:characterId="933" height="47.45" id="bgcolor" transform="matrix(1.0, 0.0, 0.0, 1.0, -4.2, -3.9)" width="47.45" xlink:href="#sprite0"/>
    <use ffdec:characterId="921" height="22.0" id="hitbox" transform="matrix(2.2297, 0.0, 0.0, 2.1749, -4.55, -4.25)" width="22.0" xlink:href="#sprite1"/>
    <clipPath id="clipPath0">
      <path d="M 0 0 L 0 40 L 40 40 L 40 0 Z"/>
    </clipPath>
    <g clip-path="url(#clipPath0)">
      <filter id="filter0">
        <feColorMatrix in="SourceGraphic" result="filterResult0" type="matrix" values="0 0 0 0 0.2,0 0 0 0 0.2,0 0 0 0 1.0,0 0 0 1 0"/>
        <feConvolveMatrix divisor="900.0" in="filterResult0" kernelMatrix="1 1 1 1 1 1 1 1 1 1 1 1 1 1 1 1 1 1 1 1 1 1 1 1 1 1 1 1 1 1 1 1 1 1 1 1 1 1 1 1 1 1 1 1 1 1 1 1 1 1 1 1 1 1 1 1 1 1 1 1 1 1 1 1 1 1 1 1 1 1 1 1 1 1 1 1 1 1 1 1 1 1 1 1 1 1 1 1 1 1 1 1 1 1 1 1 1 1 1 1 1 1 1 1 1 1 1 1 1 1 1 1 1 1 1 1 1 1 1 1 1 1 1 1 1 1 1 1 1 1 1 1 1 1 1 1 1 1 1 1 1 1 1 1 1 1 1 1 1 1 1 1 1 1 1 1 1 1 1 1 1 1 1 1 1 1 1 1 1 1 1 1 1 1 1 1 1 1 1 1 1 1 1 1 1 1 1 1 1 1 1 1 1 1 1 1 1 1 1 1 1 1 1 1 1 1 1 1 1 1 1 1 1 1 1 1 1 1 1 1 1 1 1 1 1 1 1 1 1 1 1 1 1 1 1 1 1 1 1 1 1 1 1 1 1 1 1 1 1 1 1 1 1 1 1 1 1 1 1 1 1 1 1 1 1 1 1 1 1 1 1 1 1 1 1 1 1 1 1 1 1 1 1 1 1 1 1 1 1 1 1 1 1 1 1 1 1 1 1 1 1 1 1 1 1 1 1 1 1 1 1 1 1 1 1 1 1 1 1 1 1 1 1 1 1 1 1 1 1 1 1 1 1 1 1 1 1 1 1 1 1 1 1 1 1 1 1 1 1 1 1 1 1 1 1 1 1 1 1 1 1 1 1 1 1 1 1 1 1 1 1 1 1 1 1 1 1 1 1 1 1 1 1 1 1 1 1 1 1 1 1 1 1 1 1 1 1 1 1 1 1 1 1 1 1 1 1 1 1 1 1 1 1 1 1 1 1 1 1 1 1 1 1 1 1 1 1 1 1 1 1 1 1 1 1 1 1 1 1 1 1 1 1 1 1 1 1 1 1 1 1 1 1 1 1 1 1 1 1 1 1 1 1 1 1 1 1 1 1 1 1 1 1 1 1 1 1 1 1 1 1 1 1 1 1 1 1 1 1 1 1 1 1 1 1 1 1 1 1 1 1 1 1 1 1 1 1 1 1 1 1 1 1 1 1 1 1 1 1 1 1 1 1 1 1 1 1 1 1 1 1 1 1 1 1 1 1 1 1 1 1 1 1 1 1 1 1 1 1 1 1 1 1 1 1 1 1 1 1 1 1 1 1 1 1 1 1 1 1 1 1 1 1 1 1 1 1 1 1 1 1 1 1 1 1 1 1 1 1 1 1 1 1 1 1 1 1 1 1 1 1 1 1 1 1 1 1 1 1 1 1 1 1 1 1 1 1 1 1 1 1 1 1 1 1 1 1 1 1 1 1 1 1 1 1 1 1 1 1 1 1 1 1 1 1 1 1 1 1 1 1 1 1 1 1 1 1 1 1 1 1 1 1 1 1 1 1 1 1 1 1 1 1 1 1 1 1 1 1 1 1 1 1 1 1 1 1 1 1 1 1 1 1 1 1 1 1 1 1 1 1 1 1 1 1 1 1 1 1 1 1 1 1 1 1 1 1 1 1 1 1 1 1 1 1 1 1 1 1 1 1 1 1 1 1 1 1 1 1 1 1 1 1 1 1 1 1 1 1 1 1 1 1 1 1 1 1 1 1 1 1 1 1 1 1 1 1 1 1 1 1 1 1 1 1 1 1 1 1 1 1 1 1 1 1 1 1 1 1 1 1 1 1 1 1 1 1 1 1 1 1 1 1 1 1 1 1 1 1 1 1 1 1 1 1 1 1 1 1 1 1 1 1 1 1 1 1 1 1 1 1 1 1 1 1 1 1 1 1 1 1 1 1 1 1 1 1 1 1 1 1 1 1 1 1 1 1 1 1 1 1 1 1 1 1 1 1 1 1 1 1 1 1 1 1 1 1 1 1 1 1 1 1 1 1 1 1 1 1 1 1 1 1 1 1 1 1 1 1 1" order="30 30" result="filterResult1"/>
        <feComposite in="SourceGraphic" in2="filterResult1" operator="over" result="filterResult2"/>
      </filter>
      <use ffdec:characterId="994" filter="url(#filter0)" height="77.25" transform="matrix(0.4002, 0.0, 0.0, 0.4002, 3.3104, 1.7314)" width="86.4" xlink:href="#sprite2"/>
      <filter id="filter5">
        <feColorMatrix in="SourceGraphic" result="filterResult3" type="matrix" values="0 0 0 0 0.0,0 0 0 0 0.0,0 0 0 0 0.0,0 0 0 1 0"/>
        <feConvolveMatrix divisor="9.0" in="filterResult3" kernelMatrix="1 1 1 1 1 1 1 1 1" order="3 3" result="filterResult4"/>
        <feComposite in="SourceGraphic" in2="filterResult4" operator="over" result="filterResult5"/>
      </filter>
      <use ffdec:characterId="992" filter="url(#filter5)" height="15.4" transform="matrix(1.0, 0.0, 0.0, 1.0, 2.75, 24.25)" width="42.35" xlink:href="#text0"/>
    </g>
    <filter id="filter6">
      <feColorMatrix in="SourceGraphic" result="filterResult6" type="matrix" values="0 0 0 0 0.0,0 0 0 0 0.0,0 0 0 0 0.0,0 0 0 1 0"/>
      <feConvolveMatrix divisor="4.0" in="filterResult6" kernelMatrix="1 1 1 1" order="2 2" result="filterResult7"/>
      <feComposite in="SourceGraphic" in2="filterResult7" operator="over" result="filterResult8"/>
    </filter>
    <use ffdec:characterId="935" filter="url(#filter6)" height="15.75" id="txt_hotkey" transform="matrix(1.0, 0.0, 0.0, 1.0, -3.85, -0.1)" width="18.0" xlink:href="#text1"/>
    <use ffdec:characterId="948" ffdec:characterName="Army_fla.Hud_BgButton_151" height="97.6" id="bg" transform="matrix(1.0, 0.0, 0.0, 1.0, -29.05, -29.25)" width="97.6" xlink:href="#sprite3"/>
    <use ffdec:characterId="950" ffdec:characterName="Army_fla.Hud_cooldown_152" height="48.5" id="cdcover" transform="matrix(0.9979, 0.0, 0.0, 0.9897, -4.2, -3.9997)" width="48.1" xlink:href="#sprite4"/>
    <use ffdec:characterId="950" ffdec:characterName="Army_fla.Hud_cooldown_152" height="48.5" id="cd" transform="matrix(0.9979, 0.0, 0.0, 0.9897, -4.2, -3.9997)" width="48.1" xlink:href="#sprite5"/>
    <use ffdec:characterId="953" ffdec:characterName="Army_fla.Hud_Description_153" height="50.1" id="desc" transform="matrix(0.0746, 0.0, 0.0, 0.0746, 14.6505, 16.4782)" width="129.55" xlink:href="#sprite6"/>
  </g>
  <defs>
    <g id="sprite0" transform="matrix(1.0, 0.0, 0.0, 1.0, 0.0, 0.0)">
      <use ffdec:characterId="932" height="47.45" transform="matrix(1.0, 0.0, 0.0, 1.0, 0.0, 0.0)" width="47.45" xlink:href="#shape0"/>
    </g>
    <g id="shape0" transform="matrix(1.0, 0.0, 0.0, 1.0, 0.0, 0.0)">
      <path d="M47.45 0.0 L47.45 47.45 0.0 47.45 0.0 0.0 47.45 0.0" fill="#564732" fill-rule="evenodd" stroke="none"/>
    </g>
    <g id="sprite1" transform="matrix(1.0, 0.0, 0.0, 1.0, 0.0, 0.0)">
      <use ffdec:characterId="145" height="22.0" transform="matrix(1.0, 0.0, 0.0, 1.0, 0.0, 0.0)" width="22.0" xlink:href="#shape1"/>
    </g>
    <g id="shape1" transform="matrix(1.0, 0.0, 0.0, 1.0, 0.0, 0.0)">
      <path d="M22.0 0.0 L22.0 22.0 0.0 22.0 0.0 0.0 22.0 0.0" fill="#00ff00" fill-opacity="0.0" fill-rule="evenodd" stroke="none"/>
    </g>
    <g id="sprite2" transform="matrix(1.0, 0.0, 0.0, 1.0, 43.2, 38.65)">
      <use ffdec:characterId="993" height="77.25" transform="matrix(1.0, 0.0, 0.0, 1.0, -43.2, -38.65)" width="86.4" xlink:href="#shape2"/>
    </g>
    <g id="shape2" transform="matrix(1.0, 0.0, 0.0, 1.0, 43.2, 38.65)">
      <path d="M7.5 37.5 L7.6 37.5 7.5 37.9 7.5 37.5 M21.2 -28.15 Q22.85 -28.15 24.7 -26.75 26.85 -25.1 29.2 -21.5 31.85 -17.5 33.15 -15.95 L31.05 -14.9 Q27.95 -13.25 26.7 -12.75 L19.75 -9.7 15.95 -14.95 12.05 -20.45 Q17.7 -24.15 17.7 -26.3 L17.7 -26.4 18.15 -26.65 19.05 -27.5 Q19.65 -28.15 21.2 -28.15 M3.7 -15.8 L3.8 -15.55 Q3.8 -15.3 7.75 -9.9 L10.75 -5.8 6.7 -4.0 Q5.0 -3.2 0.95 -1.0 L-2.0 0.55 -3.8 -2.9 -5.7 -6.5 -7.35 -11.05 -7.85 -11.8 -3.95 -12.9 Q-0.45 -13.8 3.7 -15.8 M-22.2 -2.55 L-21.95 -5.75 Q-21.55 -6.95 -20.15 -7.8 L-19.35 -7.8 -19.1 -8.1 -19.0 -8.35 -17.05 -9.05 -17.2 -7.9 Q-17.2 -6.8 -14.9 -1.45 L-12.45 3.9 -13.7 4.2 Q-18.3 5.35 -19.05 5.85 -20.1 3.55 -21.5 1.45 -22.2 0.4 -22.2 -2.55" fill="#333333" fill-rule="evenodd" stroke="none"/>
      <path d="M22.9 -30.25 L23.35 -30.15 26.1 -28.35 Q28.25 -27.05 28.7 -26.25 30.0 -23.85 33.1 -20.2 35.2 -17.65 35.2 -16.15 L35.15 -15.5 Q36.2 -14.5 36.95 -13.1 L38.6 -9.75 Q43.2 1.75 43.2 3.5 43.2 6.2 42.9 6.5 L40.2 8.75 Q40.1 10.15 33.8 13.35 30.65 14.95 26.7 16.6 L17.8 20.5 Q12.8 22.65 10.6 23.3 11.45 24.3 11.95 25.95 13.05 29.25 13.2 35.05 L13.2 35.1 13.2 35.2 Q13.2 36.45 11.7 36.9 L8.6 37.4 7.6 37.5 7.5 37.5 1.45 37.6 -8.0 37.3 Q-11.25 36.85 -12.7 35.15 L-12.75 35.1 -13.05 34.65 -13.45 34.65 -13.4 34.25 -13.95 33.35 -14.6 32.4 -14.1 32.4 -15.05 29.15 -17.0 18.45 -17.25 18.45 -17.15 17.9 Q-17.15 17.25 -17.55 16.15 L-17.5 16.15 Q-18.45 11.7 -20.45 7.4 L-21.1 6.1 -21.2 5.7 -21.5 4.5 Q-22.05 3.2 -23.65 1.4 L-23.85 1.2 Q-24.2 0.15 -24.2 -2.65 L-23.95 -6.15 -23.1 -7.8 -23.5 -7.8 -22.35 -8.45 Q-20.15 -9.45 -19.3 -10.3 L-12.95 -12.4 -4.95 -14.65 Q0.05 -15.85 4.75 -18.4 L4.6 -18.4 6.2 -19.25 8.15 -20.35 9.95 -21.65 9.5 -21.35 Q14.0 -24.55 16.4 -27.45 L16.5 -27.55 16.4 -27.55 13.65 -27.15 15.9 -27.75 Q18.35 -28.55 18.7 -29.85 20.6 -30.75 22.9 -30.25 M21.2 -28.15 Q19.65 -28.15 19.05 -27.5 L18.15 -26.65 17.7 -26.4 17.7 -26.3 Q17.7 -24.15 12.05 -20.45 L15.95 -14.95 19.75 -9.7 26.7 -12.75 Q27.95 -13.25 31.05 -14.9 L33.15 -15.95 Q31.85 -17.5 29.2 -21.5 26.85 -25.1 24.7 -26.75 22.85 -28.15 21.2 -28.15 M4.95 -26.8 L4.15 -26.8 4.7 -26.9 4.95 -26.8 M11.1 -26.95 L11.75 -27.0 11.9 -27.0 11.1 -26.95 M-5.55 -26.8 L-2.15 -27.15 -2.1 -26.8 -5.55 -26.8 M14.05 -13.15 L13.95 -13.3 10.7 -19.25 10.75 -19.6 10.55 -19.5 9.6 -18.95 9.3 -18.75 9.2 -18.55 8.9 -18.5 Q6.75 -17.35 4.85 -16.35 6.55 -14.9 8.9 -11.5 L9.45 -10.7 12.4 -6.5 12.5 -6.55 16.45 -8.3 16.5 -8.3 17.3 -8.65 17.15 -8.85 Q15.8 -10.3 14.05 -13.15 M3.8 -15.55 L3.8 -15.85 3.7 -15.8 Q-0.45 -13.8 -3.95 -12.9 L-7.85 -11.8 -7.35 -11.05 -5.7 -6.5 -3.8 -2.9 -2.0 0.55 0.95 -1.0 Q5.0 -3.2 6.7 -4.0 L10.75 -5.8 7.75 -9.9 Q3.8 -15.3 3.8 -15.55 M40.1 -0.55 L38.7 -3.95 37.9 -5.75 37.85 -5.85 35.85 -10.1 33.7 -14.0 Q30.4 -11.65 22.75 -8.4 L10.2 -3.4 Q3.1 0.35 -0.65 2.1 -7.15 5.15 -18.45 7.05 L-18.5 7.05 -18.4 7.35 Q-16.15 12.8 -15.4 16.2 L-14.9 16.2 -14.7 16.35 Q-14.5 16.5 -14.5 17.3 L-14.5 17.65 -14.6 18.1 -14.9 18.4 -14.95 18.4 -14.0 21.75 -13.05 25.1 -12.7 26.85 -12.45 28.35 -12.35 29.25 -11.9 31.65 -11.45 32.45 -10.45 32.45 -10.2 32.55 Q-10.0 32.7 -10.0 33.55 L-10.0 33.85 -9.95 33.9 -9.9 33.95 -9.85 34.0 -9.7 34.2 -9.7 34.15 -9.65 34.0 -9.45 33.35 -4.0 28.0 Q1.25 23.75 3.8 22.6 L3.95 22.55 Q6.65 21.35 8.55 21.9 9.6 21.3 11.4 20.45 L15.85 18.4 20.55 16.5 25.2 14.65 Q30.55 11.6 33.1 10.35 35.9 8.95 37.7 8.35 L39.2 6.55 Q41.2 4.35 41.2 3.7 L41.2 3.65 41.2 3.55 40.7 1.2 40.65 1.05 40.5 0.6 40.35 0.15 40.1 -0.55 M7.1 35.3 L8.5 35.25 11.05 35.1 10.5 30.0 Q10.05 26.1 8.7 24.15 L8.35 24.25 7.3 24.5 4.9 25.15 Q2.45 25.9 0.6 26.85 L-2.3 28.7 -3.05 29.3 -3.2 29.55 -3.35 29.7 -7.75 34.8 -7.95 34.95 -8.35 35.3 -8.1 35.3 1.45 35.35 1.6 35.35 3.55 35.35 4.65 35.35 7.1 35.3 M-22.2 -2.55 Q-22.2 0.4 -21.5 1.45 -20.1 3.55 -19.05 5.85 -18.3 5.35 -13.7 4.2 L-12.45 3.9 -14.9 -1.45 Q-17.2 -6.8 -17.2 -7.9 L-17.05 -9.05 -19.0 -8.35 -19.1 -8.1 -19.35 -7.8 -20.15 -7.8 Q-21.55 -6.95 -21.95 -5.75 L-22.2 -2.55 M-5.95 -3.15 L-7.05 -5.0 Q-9.65 -9.25 -10.45 -11.1 L-15.75 -9.5 -14.8 -7.1 -13.65 -4.15 -12.25 -1.15 -10.7 2.25 -10.7 3.45 -4.2 1.5 Q-4.45 -0.35 -5.95 -3.15 M-33.0 19.0 L-33.85 19.0 -33.2 18.75 -33.0 19.0 M-25.05 34.65 L-24.45 34.2 -24.65 34.65 -24.95 34.65 -25.05 34.65" fill="#202020" fill-rule="evenodd" stroke="none"/>
      <path d="M-12.45 28.35 Q-10.15 26.45 -3.35 23.0 11.25 15.6 16.95 11.9 18.85 10.65 24.7 7.7 L28.3 5.75 29.9 4.6 30.95 3.95 31.7 3.35 Q34.65 1.05 38.4 -0.7 L39.8 -1.3 40.1 -0.55 40.35 0.15 40.5 0.6 40.65 1.05 40.7 1.2 41.2 3.55 41.2 3.65 41.2 3.7 Q41.2 4.35 39.2 6.55 L37.7 8.35 Q35.9 8.95 33.1 10.35 30.55 11.6 25.2 14.65 L20.55 16.5 15.85 18.4 11.4 20.45 Q9.6 21.3 8.55 21.9 6.65 21.35 3.95 22.55 L3.8 22.6 Q1.25 23.75 -4.0 28.0 L-9.45 33.35 -9.65 33.8 -9.9 33.95 -9.95 33.9 -10.0 33.85 -10.0 33.55 Q-10.0 32.7 -10.2 32.55 L-10.45 32.45 -11.45 32.45 -11.9 31.65 -12.35 29.25 -12.45 28.35 M4.9 25.15 L7.3 24.5 8.35 24.25 8.7 24.15 Q10.05 26.1 10.5 30.0 L11.05 35.1 8.5 35.25 7.1 35.3 7.1 34.55 6.95 33.85 5.6 29.9 Q4.8 27.6 4.8 26.1 L4.9 25.15 M-27.95 -17.6 L-27.95 -17.85 -27.1 -17.85 -27.95 -17.6 M-27.2 16.2 L-27.2 16.1 -27.15 16.2 -27.2 16.2" fill="#999999" fill-rule="evenodd" stroke="none"/>
      <path d="M8.6 37.4 L7.5 37.9 7.6 37.5 8.6 37.4 M-17.9 37.8 L-24.7 38.1 Q-29.85 38.1 -31.55 34.4 -32.15 33.1 -33.2 26.15 L-33.7 20.45 -33.85 19.0 -33.0 19.0 -26.65 18.8 Q-26.4 20.1 -26.3 21.65 L-26.2 27.35 -26.3 30.15 -26.2 32.6 -29.55 32.85 Q-30.85 33.0 -30.95 33.25 L-30.8 33.55 -30.55 34.5 -30.3 34.65 -25.05 34.65 -24.95 34.65 -23.7 35.9 -22.25 36.7 -20.7 37.4 -17.9 37.8 M-34.15 17.1 L-34.95 14.15 -39.9 2.35 Q-43.2 -5.55 -43.2 -9.55 -43.2 -13.75 -42.8 -14.75 -41.9 -16.95 -37.4 -20.65 -34.85 -22.7 -34.0 -23.15 -32.45 -23.9 -28.2 -24.9 L-22.6 -26.5 -17.45 -28.0 Q-14.25 -28.85 -8.9 -32.4 -2.2 -36.9 -0.2 -37.9 3.8 -39.85 8.95 -36.6 L10.1 -35.85 Q8.85 -35.1 7.95 -33.45 6.65 -31.25 5.35 -30.5 L3.5 -29.4 -7.25 -28.7 -8.5 -28.25 -8.35 -27.95 Q-8.35 -27.15 -8.15 -26.95 L-7.95 -26.8 -5.55 -26.8 -2.1 -26.8 -1.25 -26.8 -5.15 -24.9 -14.2 -21.15 -14.2 -20.9 -14.85 -20.9 -29.2 -19.85 Q-30.85 -19.35 -30.15 -18.55 -29.45 -17.85 -27.95 -17.85 L-27.95 -17.6 -28.95 -17.25 Q-34.05 -13.95 -34.9 -11.75 L-35.15 -9.8 -36.45 -9.7 Q-38.0 -9.55 -38.0 -8.9 L-37.8 -7.9 -37.6 -7.8 -35.2 -7.8 -35.2 -6.2 Q-35.2 -2.3 -34.85 -1.2 -34.45 0.1 -33.0 2.45 L-33.85 2.6 Q-34.3 2.7 -34.5 2.9 -35.75 3.1 -35.75 3.85 L-35.5 4.8 -35.3 5.0 -31.2 5.15 Q-29.85 7.2 -28.85 10.25 -28.25 12.15 -27.2 16.1 L-27.2 16.2 -32.7 16.6 -34.15 17.1 M16.4 -27.55 L16.5 -27.55 16.4 -27.45 16.4 -27.55 M18.6 -29.8 L18.35 -29.65 18.2 -30.0 18.6 -29.8 M40.1 -0.55 L39.8 -1.3 38.4 -0.7 Q34.65 1.05 31.7 3.35 L30.95 3.95 29.9 4.6 28.3 5.75 24.7 7.7 Q18.85 10.65 16.95 11.9 11.25 15.6 -3.35 23.0 -10.15 26.45 -12.45 28.35 L-12.7 26.85 -13.05 25.1 Q-10.95 24.9 1.0 18.15 12.3 11.8 15.95 9.15 16.3 8.9 29.6 1.6 L38.7 -3.95 40.1 -0.55 M-9.9 33.95 L-9.65 33.8 -9.45 33.35 -9.65 34.0 -9.7 34.15 -9.7 34.2 -9.85 34.0 -9.9 33.95 M35.85 -10.1 L33.1 -8.15 Q24.3 -2.3 15.95 1.5 12.25 3.2 7.3 6.3 L-0.45 11.15 -9.5 15.1 Q-12.7 16.55 -14.5 17.65 L-14.5 17.3 Q-14.5 16.5 -14.7 16.35 L-14.9 16.2 -15.4 16.2 Q-16.15 12.8 -18.4 7.35 L-18.45 7.05 Q-7.15 5.15 -0.65 2.1 3.1 0.35 10.2 -3.4 L22.75 -8.4 Q30.4 -11.65 33.7 -14.0 L35.85 -10.1 M4.9 25.15 L4.8 26.1 Q4.8 27.6 5.6 29.9 L6.95 33.85 7.1 34.55 7.1 35.3 4.65 35.35 4.4 34.7 4.15 34.15 3.05 31.65 2.7 28.45 Q2.55 27.15 1.75 26.35 L0.6 26.85 Q2.45 25.9 4.9 25.15 M-8.1 35.3 L-8.35 35.3 -7.95 34.95 -8.2 35.2 -8.1 35.3" fill="#666666" fill-rule="evenodd" stroke="none"/>
      <path d="M10.7 -19.25 L13.95 -13.3 14.05 -13.15 12.1 -12.75 Q10.5 -12.0 9.45 -10.7 L8.9 -11.5 Q6.55 -14.9 4.85 -16.35 6.75 -17.35 8.9 -18.5 L9.2 -18.55 9.3 -18.75 9.6 -18.95 10.55 -19.5 10.7 -19.25 M17.15 -8.85 L17.3 -8.65 16.5 -8.3 17.15 -8.85 M-12.25 -1.15 L-13.65 -4.15 -14.8 -7.1 -15.75 -9.5 -10.45 -11.1 Q-9.65 -9.25 -7.05 -5.0 L-5.95 -3.15 -7.95 -2.8 Q-10.6 -2.1 -12.25 -1.15" fill="#363530" fill-rule="evenodd" stroke="none"/>
      <path d="M9.45 -10.7 Q10.5 -12.0 12.1 -12.75 L14.05 -13.15 Q15.8 -10.3 17.15 -8.85 L16.5 -8.3 16.45 -8.3 12.5 -6.55 12.4 -6.5 9.45 -10.7 M-12.25 -1.15 Q-10.6 -2.1 -7.95 -2.8 L-5.95 -3.15 Q-4.45 -0.35 -4.2 1.5 L-10.7 3.45 -10.7 2.25 -12.25 -1.15" fill="#272623" fill-rule="evenodd" stroke="none"/>
      <path d="M7.5 37.9 L-6.95 38.6 -14.1 38.1 -17.9 37.8 -20.7 37.4 -22.25 36.7 -23.7 35.9 -24.95 34.65 -24.65 34.65 -13.45 34.65 -13.05 34.65 -12.75 35.1 -12.7 35.15 Q-11.25 36.85 -8.0 37.3 L1.45 37.6 7.5 37.5 7.5 37.9 M10.1 -35.85 L10.7 -36.15 Q17.65 -38.95 22.9 -30.25 20.6 -30.75 18.7 -29.85 L18.6 -29.8 18.2 -30.0 18.0 -29.9 14.45 -29.9 9.45 -29.6 3.5 -29.4 5.35 -30.5 Q6.65 -31.25 7.95 -33.45 8.85 -35.1 10.1 -35.85 M13.65 -27.15 L16.4 -27.55 16.4 -27.45 Q14.0 -24.55 9.5 -21.35 L9.45 -21.35 9.15 -21.1 9.05 -21.2 Q-12.2 -21.2 -12.2 -20.95 L-14.2 -20.9 -14.2 -21.15 -5.15 -24.9 -1.25 -26.8 4.15 -26.8 4.95 -26.8 11.1 -26.95 11.9 -27.0 11.95 -27.0 13.65 -27.15 M4.6 -18.4 L4.75 -18.4 Q0.05 -15.85 -4.95 -14.65 L-12.95 -12.4 -19.3 -10.3 -19.3 -10.35 -19.85 -10.1 -20.05 -10.05 -20.15 -10.0 Q-30.95 -10.1 -35.15 -9.8 L-34.9 -11.75 Q-34.05 -13.95 -28.95 -17.25 L-27.95 -17.6 -27.1 -17.85 -9.2 -18.15 4.6 -18.4 M-23.5 -7.8 L-23.1 -7.8 -23.95 -6.15 -24.2 -2.65 Q-24.2 0.15 -23.85 1.2 L-23.7 1.5 -23.3 2.2 Q-30.25 2.05 -33.0 2.45 -34.45 0.1 -34.85 -1.2 -35.2 -2.3 -35.2 -6.2 L-35.2 -7.8 -23.5 -7.8 M-21.1 6.1 L-20.45 7.4 Q-18.45 11.7 -17.5 16.15 L-17.55 16.15 Q-23.35 16.05 -27.15 16.2 L-27.2 16.1 Q-28.25 12.15 -28.85 10.25 -29.85 7.2 -31.2 5.15 L-25.9 5.35 -22.95 5.55 -21.45 5.45 -21.3 5.8 -21.1 6.1 M-17.25 18.45 L-17.0 18.45 -15.05 29.15 -14.1 32.4 -14.6 32.4 Q-22.1 32.35 -26.2 32.6 L-26.3 30.15 -26.2 27.35 -26.3 21.65 Q-26.4 20.1 -26.65 18.8 L-17.25 18.45 M38.7 -3.95 L29.6 1.6 Q16.3 8.9 15.95 9.15 12.3 11.8 1.0 18.15 -10.95 24.9 -13.05 25.1 L-14.0 21.75 -14.95 18.4 -14.9 18.4 -14.6 18.1 -14.5 17.65 Q-12.7 16.55 -9.5 15.1 L-0.45 11.15 7.3 6.3 Q12.25 3.2 15.95 1.5 24.3 -2.3 33.1 -8.15 L35.85 -10.1 37.85 -5.85 37.9 -5.75 38.7 -3.95 M4.65 35.35 L3.55 35.35 1.6 35.35 1.45 35.35 -8.1 35.3 -8.2 35.2 -7.95 34.95 -7.75 34.8 -3.35 29.7 -3.2 29.55 -3.05 29.3 -2.3 28.7 0.6 26.85 1.75 26.35 Q2.55 27.15 2.7 28.45 L3.05 31.65 4.15 34.15 4.4 34.7 4.65 35.35" fill="#515151" fill-rule="evenodd" stroke="none"/>
      <path d="M-33.85 19.0 L-34.2 19.0 -34.4 18.85 -34.65 17.85 Q-34.65 17.4 -34.15 17.1 L-32.7 16.6 -27.2 16.2 -27.15 16.2 Q-23.35 16.05 -17.55 16.15 -17.15 17.25 -17.15 17.9 L-17.25 18.45 -26.65 18.8 -33.0 19.0 -33.2 18.75 -33.85 19.0 M18.7 -29.85 Q18.35 -28.55 15.9 -27.75 L13.65 -27.15 11.95 -27.0 11.9 -27.0 11.75 -27.0 11.1 -26.95 4.95 -26.8 4.7 -26.9 4.15 -26.8 -1.25 -26.8 -2.1 -26.8 -2.15 -27.15 -5.55 -26.8 -7.95 -26.8 -8.15 -26.95 Q-8.35 -27.15 -8.35 -27.95 L-8.5 -28.25 -7.25 -28.7 3.5 -29.4 9.45 -29.6 14.45 -29.9 18.0 -29.9 18.2 -30.0 18.35 -29.65 18.6 -29.8 18.7 -29.85 M9.5 -21.35 L9.95 -21.65 8.15 -20.35 6.2 -19.25 4.6 -18.4 -9.2 -18.15 -27.1 -17.85 -27.95 -17.85 Q-29.45 -17.85 -30.15 -18.55 -30.85 -19.35 -29.2 -19.85 L-14.85 -20.9 -14.2 -20.9 -12.2 -20.95 Q-12.2 -21.2 9.05 -21.2 L9.15 -21.1 9.45 -21.35 9.5 -21.35 M-19.3 -10.3 Q-20.15 -9.45 -22.35 -8.45 L-23.5 -7.8 -35.2 -7.8 -37.6 -7.8 -37.8 -7.9 -38.0 -8.9 Q-38.0 -9.55 -36.45 -9.7 L-35.15 -9.8 Q-30.95 -10.1 -20.15 -10.0 L-20.05 -10.05 -19.85 -10.1 -19.3 -10.35 -19.3 -10.3 M-23.85 1.2 L-23.65 1.4 Q-22.05 3.2 -21.5 4.5 L-21.2 5.7 -21.1 6.1 -21.3 5.8 -21.45 5.45 -22.95 5.55 -25.9 5.35 -31.2 5.15 -35.3 5.0 -35.5 4.8 -35.75 3.85 Q-35.75 3.1 -34.5 2.9 -34.3 2.7 -33.85 2.6 L-33.0 2.45 Q-30.25 2.05 -23.3 2.2 L-23.7 1.5 -23.85 1.2 M-14.6 32.4 L-13.95 33.35 -13.4 34.25 -13.45 34.65 -24.65 34.65 -24.45 34.2 -25.05 34.65 -30.3 34.65 -30.55 34.5 -30.8 33.55 -30.95 33.25 Q-30.85 33.0 -29.55 32.85 L-26.2 32.6 Q-22.1 32.35 -14.6 32.4" fill="#3a3a3a" fill-rule="evenodd" stroke="none"/>
    </g>
    <g id="text0" transform="matrix(1.0, 0.0, 0.0, 1.0, -3.85, -1.65)">
      <g transform="matrix(1.0, 0.0, 0.0, 1.0, 0.0, 0.0)">
        <use fill="#ffcc66" height="15.4" transform="matrix(0.0156, 0.0, 0.0, 0.0156, 4.0, 15.0)" width="42.35" xlink:href="#font_Lithos_Pro_Regular_x0"/>
        <use fill="#ffcc66" height="15.4" transform="matrix(0.0156, 0.0, 0.0, 0.0156, 13.65, 15.0)" width="42.35" xlink:href="#font_Lithos_Pro_Regular_10"/>
        <use fill="#ffcc66" height="15.4" transform="matrix(0.0156, 0.0, 0.0, 0.0156, 24.7, 15.0)" width="42.35" xlink:href="#font_Lithos_Pro_Regular_.0"/>
        <use fill="#ffcc66" height="15.4" transform="matrix(0.0156, 0.0, 0.0, 0.0156, 27.65, 15.0)" width="42.35" xlink:href="#font_Lithos_Pro_Regular_50"/>
      </g>
    </g>
    <g id="font_Lithos_Pro_Regular_x0">
      <path d="M172.0 39.0 L22.5 -102.5 Q30.0 -110.5 59.0 -139.5 88.0 -168.0 124.5 -204.5 161.0 -240.5 192.0 -271.0 222.5 -301.5 233.5 -313.0 215.0 -332.0 186.0 -362.0 156.5 -391.5 126.0 -423.0 95.5 -454.5 72.0 -478.5 49.0 -502.0 43.0 -508.5 L208.0 -651.0 Q224.0 -632.0 248.5 -602.5 273.0 -572.5 299.0 -540.5 325.5 -508.0 347.0 -482.0 369.0 -455.5 379.0 -444.0 389.0 -455.5 412.5 -482.0 435.5 -508.5 464.0 -541.0 492.0 -573.5 518.0 -603.5 544.0 -633.0 560.0 -651.0 L715.0 -513.0 Q705.0 -503.0 676.0 -476.5 647.0 -450.0 611.5 -418.0 575.5 -386.0 546.5 -359.0 517.0 -332.5 507.0 -322.5 520.5 -308.5 551.5 -278.0 583.0 -247.0 619.0 -211.0 655.0 -175.5 683.0 -147.0 711.5 -119.0 720.0 -110.5 L555.0 38.0 Q542.5 23.5 516.0 -7.5 489.5 -38.5 458.5 -75.0 427.5 -111.5 401.0 -142.5 374.5 -173.5 361.5 -188.5 353.0 -179.0 326.5 -147.0 300.0 -115.0 267.0 -75.5 234.5 -36.0 208.0 -3.5 181.0 29.0 172.0 39.0" fill-rule="evenodd" stroke="none"/>
    </g>
    <g id="font_Lithos_Pro_Regular_10">
      <path d="M573.5 0.0 L573.5 0.0 340.0 0.0 Q340.5 -14.0 341.5 -57.5 342.5 -100.5 343.0 -162.0 344.0 -223.5 344.0 -293.0 L344.0 -502.0 Q321.0 -493.0 289.0 -478.0 257.5 -463.5 230.5 -450.5 L178.0 -582.5 Q190.0 -588.5 228.5 -605.5 266.5 -623.0 321.0 -647.5 375.5 -672.5 437.0 -700.0 498.0 -728.0 556.0 -755.0 L576.5 -742.5 Q576.0 -717.0 575.0 -669.5 573.5 -622.0 572.5 -560.0 571.5 -498.0 571.5 -428.0 L571.5 -271.5 Q571.5 -160.5 571.5 -92.5 572.0 -24.0 573.5 0.0" fill-rule="evenodd" stroke="none"/>
    </g>
    <g id="font_Lithos_Pro_Regular_.0">
      <path d="M73.5 0.0 L73.5 0.0 73.5 -158.5 243.5 -158.5 243.5 0.0 73.5 0.0" fill-rule="evenodd" stroke="none"/>
    </g>
    <g id="font_Lithos_Pro_Regular_50">
      <path d="M370.0 -568.5 L370.0 -568.5 357.5 -496.0 Q448.0 -488.0 506.0 -468.5 563.5 -449.0 595.0 -421.0 626.5 -393.0 639.0 -359.0 651.0 -325.5 650.5 -289.0 650.0 -221.0 592.5 -155.5 535.5 -90.5 429.0 -41.5 322.5 7.0 174.5 25.5 L145.5 -144.5 Q183.0 -147.0 226.0 -154.5 268.5 -162.0 307.0 -175.5 345.5 -189.5 370.0 -210.5 394.5 -231.0 395.5 -260.5 395.5 -303.0 339.0 -323.5 282.5 -343.5 170.5 -346.5 L217.5 -727.0 Q247.0 -727.5 291.5 -728.5 336.0 -730.0 387.0 -731.5 438.0 -733.0 487.5 -735.0 537.5 -737.0 578.0 -738.5 618.5 -740.0 642.5 -741.5 L641.5 -556.5 370.0 -568.5" fill-rule="evenodd" stroke="none"/>
    </g>
    <g id="sprite3" transform="matrix(1.0, 0.0, 0.0, 1.0, 29.05, 29.25)">
      <clipPath id="clipPath1">
        <path d="M 40 0 L 40 40 L 0 40 L 0 0 Z M 18.75 -7.8 L -0.55 -7.7 L -6.5 -7.4 L -6.75 -7.35 L -7 -7.3 L -7.04 -7.4 L -7.07 -7.48 L -7.11 -7.52 L -7.14 -7.54 L -7.18 -7.52 L -7.22 -7.47 L -7.26 -7.38 L -7.3 -7.25 L -7.35 -7.1 L -8 -1.85 L -8 42.5 L -7.95 42.8 L -7.85 48.6 L 47.35 48.6 L 47.4 42.8 L 47.4 42.5 L 47.5 18.6 L 47.4 -0.7 L 47.36 -2.3 L 47.31 -3.69 L 47.25 -4.87 L 47.19 -5.83 L 47.12 -6.57 L 47.04 -7.11 L 47 -7.3 L 46.96 -7.43 L 46.92 -7.51 L 46.89 -7.53 L 46.87 -7.54 L 46.83 -7.51 L 46.79 -7.45 L 46.74 -7.35 L 46.7 -7.2 L 46.65 -7.3 L 46.5 -7.45 L 45 -7.55 L 44.9 -7.55 L 42.65 -7.7 L 18.75 -7.8 Z"/>
      </clipPath>
      <g clip-path="url(#clipPath1)">
        <use ffdec:characterId="937" height="49.05" transform="matrix(1.0, 0.0, 0.0, 1.0, -5.2, -5.05)" width="49.95" xlink:href="#shape3"/>
      </g>
    </g>
    <g id="shape3" transform="matrix(1.0, 0.0, 0.0, 1.0, 5.2, 5.05)">
      <path d="M18.85 -5.05 L40.4 -5.0 42.4 -4.85 42.5 -4.85 43.85 -4.75 44.0 -4.6 44.05 -4.55 Q44.5 -6.2 44.65 1.3 L44.75 18.7 44.65 40.2 44.5 42.2 Q44.4 43.75 44.05 43.75 L43.8 43.55 42.9 43.75 40.4 44.0 0.45 44.0 -3.55 43.55 -3.6 43.55 -4.6 43.75 -4.95 42.7 -5.2 40.2 -5.2 0.3 -4.6 -4.45 -4.55 -4.55 Q-4.45 -5.05 -4.3 -4.6 L-4.05 -4.65 -3.85 -4.7 1.5 -5.0 18.85 -5.05 M36.4 1.65 L36.8 1.25 41.65 -3.2 42.1 -3.6 41.7 -3.65 41.6 -3.85 40.4 -3.7 0.45 -3.7 -3.0 -4.1 2.5 0.85 3.3 1.65 1.8 1.65 1.8 2.6 1.8 1.65 3.3 1.65 3.6 1.95 2.0 1.95 2.0 2.8 1.8 2.6 0.3 1.1 -3.9 -4.2 -4.2 -4.3 -3.95 1.3 -3.85 18.7 -3.95 40.2 -4.05 42.2 -4.05 42.5 -4.0 42.3 -3.6 41.8 -1.65 39.65 1.8 36.1 1.8 37.95 2.0 37.95 1.8 37.95 1.8 36.1 2.0 35.9 2.0 37.95 2.6 37.95 -0.4 40.9 -2.75 42.9 1.5 42.7 18.85 42.65 40.4 42.7 42.4 42.85 42.5 42.85 42.4 42.8 39.65 40.55 37.05 37.95 38.0 37.95 38.15 37.95 38.15 36.45 38.15 37.95 38.0 37.95 38.0 36.35 38.15 36.45 40.9 39.3 42.85 41.45 43.6 42.45 43.4 40.2 43.4 0.3 43.85 -3.65 43.8 -3.65 42.95 -3.5 42.8 -3.3 39.0 1.45 38.15 2.3 38.15 1.65 36.4 1.65 38.15 1.65 38.15 2.3 38.0 2.45 38.0 1.95 36.0 1.95 36.4 1.65" fill="#473a29" fill-rule="evenodd" stroke="none"/>
      <path d="M3.3 1.65 L2.5 0.85 -3.0 -4.1 0.45 -3.7 40.4 -3.7 41.6 -3.85 41.7 -3.65 42.1 -3.6 41.65 -3.2 36.8 1.25 36.4 1.65 3.3 1.65 36.4 1.65 36.0 1.95 3.6 1.95 3.3 1.65 M1.8 36.1 L-1.65 39.65 -3.6 41.8 -4.0 42.3 -4.05 42.2 -3.95 40.2 -3.85 18.7 -3.95 1.3 -4.2 -4.3 -3.9 -4.2 0.3 1.1 1.8 2.6 2.0 2.8 2.0 35.9 1.8 36.1 1.8 35.0 1.8 33.05 1.8 2.6 1.8 33.05 1.8 35.0 1.8 36.1" fill="#bfaf91" fill-rule="evenodd" stroke="none"/>
      <path d="M38.15 2.3 L39.0 1.45 42.8 -3.3 42.95 -3.5 43.8 -3.65 43.85 -3.65 43.4 0.3 43.4 40.2 43.6 42.45 42.85 41.45 40.9 39.3 38.15 36.45 38.15 2.3 38.15 36.45 38.0 36.35 38.0 2.45 38.15 2.3 M37.05 37.95 L39.65 40.55 42.4 42.8 42.4 42.85 40.4 42.7 18.85 42.65 1.5 42.7 -2.75 42.9 -0.4 40.9 2.6 37.95 26.5 37.95 Q27.1 37.75 27.6 37.95 L37.05 37.95" fill="#6c5b3e" fill-rule="evenodd" stroke="none"/>
      <path d="M3.3 1.65 L36.4 1.65 38.15 1.65 38.15 2.3 38.15 36.45 38.15 37.95 38.0 37.95 37.05 37.95 27.6 37.95 Q27.1 37.75 26.5 37.95 L2.6 37.95 2.0 37.95 1.8 37.95 1.8 36.1 1.8 35.0 1.8 33.05 1.8 2.6 1.8 1.65 3.3 1.65 Z" fill="none" stroke="#473a29" stroke-linecap="round" stroke-linejoin="round" stroke-opacity="0.49019608" stroke-width="1.0"/>
    </g>
    <g id="sprite4" transform="matrix(1.0, 0.0, 0.0, 1.0, 0.0, 48.5)">
      <use ffdec:characterId="949" height="340.0" transform="matrix(0.2505, 0.0, 0.0, 0.1427, 0.0114, -48.4851)" width="192.0" xlink:href="#shape4"/>
    </g>
    <g id="shape4" transform="matrix(1.0, 0.0, 0.0, 1.0, 2.15, 3.05)">
      <path d="M189.85 -3.05 L189.85 336.95 -2.15 336.95 -2.15 -3.05 189.85 -3.05" fill="#000000" fill-opacity="0.29803923" fill-rule="evenodd" stroke="none"/>
    </g>
    <g id="sprite5" transform="matrix(1.0, 0.0, 0.0, 1.0, 0.0, 48.5)">
      <use ffdec:characterId="949" height="340.0" transform="matrix(0.2505, 0.0, 0.0, 0.1427, 0.0114, -48.4851)" width="192.0" xlink:href="#shape5"/>
    </g>
    <g id="shape5" transform="matrix(1.0, 0.0, 0.0, 1.0, 2.15, 3.05)">
      <path d="M189.85 -3.05 L189.85 336.95 -2.15 336.95 -2.15 -3.05 189.85 -3.05" fill="#000000" fill-opacity="0.49803922" fill-rule="evenodd" stroke="none"/>
    </g>
    <g id="sprite6" transform="matrix(1.0, 0.0, 0.0, 1.0, 64.35, 49.9)">
      <use ffdec:characterId="58" height="400.0" transform="matrix(0.1796, 0.0, 0.0, 0.1248, -62.85, -49.9)" width="700.0" xlink:href="#shape6"/>
      <use ffdec:characterId="951" height="18.1" id="txt_name" transform="matrix(1.0, 0.0, 0.0, 1.0, -63.85, -49.05)" width="129.05" xlink:href="#text2"/>
      <use ffdec:characterId="952" height="35.25" id="txt_desc" transform="matrix(1.0, 0.0, 0.0, 1.0, -64.35, -35.05)" width="129.05" xlink:href="#text3"/>
    </g>
    <g id="shape6" transform="matrix(1.0, 0.0, 0.0, 1.0, 0.0, 0.0)">
      <path d="M700.0 400.0 L0.0 400.0 0.0 0.0 700.0 0.0 700.0 400.0" fill="#000000" fill-opacity="0.49803922" fill-rule="evenodd" stroke="none"/>
    </g>
    <g id="text2" transform="matrix(1.0, 0.0, 0.0, 1.0, -51.35, 2.0)">
      <g transform="matrix(1.0, 0.0, 0.0, 1.0, 51.35, -2.0)">
        <use fill="#ffffff" height="18.1" transform="matrix(0.0117, 0.0, 0.0, 0.0117, 45.95, 13.05)" width="129.05" xlink:href="#font_Lithos_Pro_Regular_N0"/>
        <use fill="#ffffff" height="18.1" transform="matrix(0.0117, 0.0, 0.0, 0.0117, 56.95, 13.05)" width="129.05" xlink:href="#font_Lithos_Pro_Regular_a0"/>
        <use fill="#ffffff" height="18.1" transform="matrix(0.0117, 0.0, 0.0, 0.0117, 65.45, 13.05)" width="129.05" xlink:href="#font_Lithos_Pro_Regular_m0"/>
        <use fill="#ffffff" height="18.1" transform="matrix(0.0117, 0.0, 0.0, 0.0117, 76.75, 13.05)" width="129.05" xlink:href="#font_Lithos_Pro_Regular_e0"/>
      </g>
    </g>
    <g id="font_Lithos_Pro_Regular_N0">
      <path d="M216.5 7.5 L120.0 0.0 Q121.5 -20.5 124.5 -75.5 127.0 -130.5 131.0 -207.0 135.0 -283.5 139.0 -368.0 143.0 -452.5 147.0 -531.5 151.0 -610.5 153.5 -670.5 156.5 -730.5 158.0 -758.0 L160.0 -758.0 Q168.0 -748.5 209.0 -705.5 249.5 -663.0 309.5 -600.0 370.0 -537.0 437.0 -467.5 503.5 -398.0 564.0 -335.0 624.5 -272.0 666.0 -229.5 707.5 -186.5 716.5 -177.0 716.5 -185.5 717.0 -225.0 717.5 -265.0 718.0 -323.5 719.0 -382.5 720.0 -447.5 720.5 -513.0 721.5 -572.0 722.5 -631.5 723.0 -672.0 723.5 -712.5 724.0 -722.0 L819.0 -716.5 Q818.0 -697.0 815.0 -641.0 812.5 -585.0 808.5 -504.5 805.0 -424.0 801.5 -332.0 798.0 -240.0 795.5 -148.5 792.5 -57.0 791.5 21.5 L789.5 21.5 Q781.5 13.5 739.5 -29.5 697.0 -72.5 635.0 -136.5 572.5 -200.5 504.0 -271.5 435.0 -342.5 373.5 -406.5 312.0 -470.0 271.5 -513.0 231.5 -555.5 225.5 -563.0 L223.5 -563.0 Q223.5 -553.0 223.0 -511.0 222.5 -468.5 221.5 -407.0 220.5 -345.0 219.5 -277.0 218.5 -209.0 217.5 -147.5 217.0 -86.0 216.5 -44.0 216.0 -2.0 216.5 7.5" fill-rule="evenodd" stroke="none"/>
    </g>
    <g id="font_Lithos_Pro_Regular_a0">
      <path d="M226.5 -255.0 L476.5 -265.0 Q473.0 -271.5 460.0 -295.0 447.5 -318.5 430.0 -350.5 412.5 -382.5 395.0 -414.0 378.0 -445.5 365.0 -468.0 352.5 -490.5 349.5 -495.5 345.0 -488.5 332.5 -464.0 319.5 -439.5 303.0 -406.0 286.0 -373.0 269.5 -340.0 253.0 -307.0 241.0 -283.5 229.5 -260.0 226.5 -255.0 M93.5 18.5 L14.5 -26.5 Q27.5 -49.5 55.0 -100.0 83.0 -150.5 119.0 -216.5 155.0 -283.0 193.5 -353.0 231.5 -423.5 265.0 -485.0 299.0 -547.0 322.0 -589.0 345.0 -630.5 350.5 -640.0 L352.5 -640.0 Q376.5 -601.5 414.5 -538.0 452.0 -474.0 496.0 -399.0 540.0 -323.5 582.5 -250.0 625.5 -176.5 660.0 -119.0 694.0 -61.0 713.0 -32.5 L630.0 17.5 Q623.0 4.0 605.5 -28.5 587.5 -61.0 566.5 -99.0 545.5 -137.0 529.0 -166.5 512.0 -196.0 508.0 -202.5 L191.5 -190.5 Q186.5 -179.0 173.0 -150.5 159.5 -121.5 143.5 -86.5 127.0 -52.0 113.0 -23.0 99.0 6.5 93.5 18.5" fill-rule="evenodd" stroke="none"/>
    </g>
    <g id="font_Lithos_Pro_Regular_m0">
      <path d="M115.0 22.5 L31.0 -4.0 Q35.5 -14.5 51.5 -61.5 68.0 -108.0 91.0 -176.5 114.5 -245.0 140.0 -320.0 165.0 -395.0 187.5 -462.0 210.0 -529.0 224.5 -573.0 239.0 -617.5 241.0 -624.0 L245.0 -624.0 Q254.0 -606.5 276.0 -563.5 298.5 -521.0 327.5 -465.5 356.5 -410.5 385.5 -355.5 414.5 -300.5 437.0 -259.0 459.5 -217.0 468.0 -201.0 477.5 -216.5 502.5 -258.5 527.5 -300.0 560.0 -354.0 592.0 -408.0 623.5 -460.5 655.0 -513.0 677.5 -550.5 700.0 -588.0 705.5 -597.5 L708.5 -597.5 Q716.0 -579.0 732.5 -535.5 749.0 -492.5 771.5 -434.0 793.5 -375.5 818.0 -311.5 842.5 -247.5 865.5 -187.0 889.0 -127.0 907.0 -80.0 925.0 -33.0 935.0 -9.5 L850.0 22.5 Q843.0 1.5 826.0 -47.0 809.5 -95.5 787.5 -156.5 766.0 -218.0 745.0 -277.0 724.0 -336.5 708.5 -379.5 693.5 -422.0 689.5 -433.5 680.0 -418.0 657.5 -381.5 635.5 -345.5 606.5 -298.0 577.5 -250.5 548.0 -202.0 518.5 -153.5 494.5 -114.5 470.5 -75.5 458.0 -55.5 L456.0 -55.5 Q436.0 -93.0 408.0 -144.5 380.5 -196.5 351.0 -252.5 321.5 -308.0 295.5 -356.5 270.0 -405.0 254.0 -435.5 250.0 -421.0 239.0 -385.0 228.0 -349.0 213.0 -300.0 198.0 -251.5 182.0 -199.0 166.0 -146.5 151.5 -99.0 137.0 -52.0 127.5 -19.5 117.5 13.5 115.0 22.5" fill-rule="evenodd" stroke="none"/>
    </g>
    <g id="font_Lithos_Pro_Regular_e0">
      <path d="M458.5 -68.5 L461.5 9.5 Q451.5 9.5 417.0 8.5 383.0 7.5 337.5 6.0 292.0 5.0 247.0 3.5 202.0 2.0 170.5 1.0 138.5 0.0 132.0 0.0 133.0 -18.5 133.5 -56.0 134.5 -93.5 134.5 -136.0 135.0 -178.0 135.0 -211.0 135.0 -244.0 135.0 -252.5 L135.0 -368.5 Q135.0 -373.5 135.0 -397.5 134.5 -421.5 134.0 -454.5 134.0 -488.0 133.5 -521.5 133.0 -555.0 132.5 -579.5 132.5 -603.5 132.0 -609.5 139.5 -609.5 168.5 -611.0 197.5 -612.0 238.0 -614.5 278.5 -616.5 320.0 -618.5 362.0 -621.0 395.0 -623.0 428.5 -625.0 443.0 -626.0 L447.0 -552.0 Q431.0 -552.0 397.5 -551.5 364.0 -551.0 326.5 -550.0 288.5 -549.0 259.5 -548.5 231.0 -548.0 224.0 -548.0 L224.0 -334.5 Q231.0 -334.5 253.5 -335.0 276.0 -336.0 305.5 -337.0 335.5 -338.5 365.0 -340.0 394.5 -342.0 416.5 -343.5 L419.5 -269.0 Q407.0 -269.0 378.5 -269.5 350.5 -270.0 317.0 -271.0 284.5 -271.0 258.5 -271.5 232.5 -272.0 224.0 -272.0 L224.0 -65.5 Q233.0 -65.5 258.0 -65.0 283.0 -65.0 317.0 -65.0 351.5 -65.0 388.5 -66.0 425.5 -66.5 458.5 -68.5" fill-rule="evenodd" stroke="none"/>
    </g>
    <g id="text3" transform="matrix(1.0, 0.0, 0.0, 1.0, -51.35, 2.0)">
      <g transform="matrix(1.0, 0.0, 0.0, 1.0, 51.35, -2.0)">
        <use fill="#ffffff" height="35.25" transform="matrix(0.0098, 0.0, 0.0, 0.0098, 49.05, 7.2)" width="129.05" xlink:href="#font_Lithos_Pro_Regular_N0"/>
        <use fill="#ffffff" height="35.25" transform="matrix(0.0098, 0.0, 0.0, 0.0098, 58.2, 7.2)" width="129.05" xlink:href="#font_Lithos_Pro_Regular_a0"/>
        <use fill="#ffffff" height="35.25" transform="matrix(0.0098, 0.0, 0.0, 0.0098, 65.3, 7.2)" width="129.05" xlink:href="#font_Lithos_Pro_Regular_m0"/>
        <use fill="#ffffff" height="35.25" transform="matrix(0.0098, 0.0, 0.0, 0.0098, 74.7, 7.2)" width="129.05" xlink:href="#font_Lithos_Pro_Regular_e0"/>
      </g>
      <g transform="matrix(1.0, 0.0, 0.0, 1.0, 51.35, -2.0)">
        <use fill="#ffffff" height="35.25" transform="matrix(0.0098, 0.0, 0.0, 0.0098, 46.0, 16.95)" width="129.05" xlink:href="#font_Lithos_Pro_Regular_k0"/>
        <use fill="#ffffff" height="35.25" transform="matrix(0.0098, 0.0, 0.0, 0.0098, 52.6, 16.95)" width="129.05" xlink:href="#font_Lithos_Pro_Regular_j0"/>
        <use fill="#ffffff" height="35.25" transform="matrix(0.0098, 0.0, 0.0, 0.0098, 56.25, 16.95)" width="129.05" xlink:href="#font_Lithos_Pro_Regular_h0"/>
        <use fill="#ffffff" height="35.25" transform="matrix(0.0098, 0.0, 0.0, 0.0098, 64.5, 16.95)" width="129.05" xlink:href="#font_Lithos_Pro_Regular_k0"/>
        <use fill="#ffffff" height="35.25" transform="matrix(0.0098, 0.0, 0.0, 0.0098, 71.1, 16.95)" width="129.05" xlink:href="#font_Lithos_Pro_Regular_j0"/>
        <use fill="#ffffff" height="35.25" transform="matrix(0.0098, 0.0, 0.0, 0.0098, 74.75, 16.95)" width="129.05" xlink:href="#font_Lithos_Pro_Regular_h0"/>
      </g>
      <g transform="matrix(1.0, 0.0, 0.0, 1.0, 51.35, -2.0)">
        <use fill="#ffffff" height="35.25" transform="matrix(0.0098, 0.0, 0.0, 0.0098, 46.0, 26.7)" width="129.05" xlink:href="#font_Lithos_Pro_Regular_k0"/>
        <use fill="#ffffff" height="35.25" transform="matrix(0.0098, 0.0, 0.0, 0.0098, 52.6, 26.7)" width="129.05" xlink:href="#font_Lithos_Pro_Regular_j0"/>
        <use fill="#ffffff" height="35.25" transform="matrix(0.0098, 0.0, 0.0, 0.0098, 56.25, 26.7)" width="129.05" xlink:href="#font_Lithos_Pro_Regular_h0"/>
        <use fill="#ffffff" height="35.25" transform="matrix(0.0098, 0.0, 0.0, 0.0098, 64.5, 26.7)" width="129.05" xlink:href="#font_Lithos_Pro_Regular_k0"/>
        <use fill="#ffffff" height="35.25" transform="matrix(0.0098, 0.0, 0.0, 0.0098, 71.1, 26.7)" width="129.05" xlink:href="#font_Lithos_Pro_Regular_j0"/>
        <use fill="#ffffff" height="35.25" transform="matrix(0.0098, 0.0, 0.0, 0.0098, 74.75, 26.7)" width="129.05" xlink:href="#font_Lithos_Pro_Regular_h0"/>
      </g>
    </g>
    <g id="font_Lithos_Pro_Regular_k0">
      <path d="M621.5 -61.5 L558.0 8.5 Q553.5 4.0 523.0 -26.5 493.0 -56.5 449.0 -100.5 405.0 -144.0 359.5 -189.5 314.0 -235.5 278.5 -271.0 243.0 -306.5 230.0 -320.5 235.5 -326.0 265.5 -353.5 295.5 -381.5 337.5 -421.0 379.5 -460.5 421.5 -500.5 464.0 -540.5 495.0 -569.5 526.0 -599.0 533.0 -606.5 L587.5 -540.0 Q572.5 -528.5 540.0 -501.0 507.0 -473.5 467.0 -440.0 427.0 -406.0 392.0 -375.5 356.5 -345.0 336.5 -327.0 346.0 -316.0 373.5 -289.5 401.5 -262.5 438.5 -228.0 476.0 -193.5 513.5 -159.0 551.0 -124.5 580.5 -98.0 609.5 -72.0 621.5 -61.5 M228.0 9.5 L130.0 9.5 Q130.5 -1.0 131.5 -30.0 132.5 -59.0 133.0 -99.0 134.0 -139.5 134.5 -182.5 135.0 -225.5 135.0 -263.0 L135.0 -355.5 Q135.0 -385.0 134.0 -426.0 133.5 -466.5 132.5 -508.0 131.5 -549.5 130.5 -580.0 130.0 -610.5 130.0 -619.0 L228.0 -619.0 Q227.5 -612.5 227.0 -583.5 226.0 -554.5 225.0 -514.5 224.5 -474.0 223.5 -433.5 223.0 -393.0 223.0 -363.5 L223.0 -270.5 Q223.0 -244.0 223.5 -200.5 224.0 -157.5 225.0 -111.5 225.5 -66.0 226.5 -32.0 227.5 1.5 228.0 9.5" fill-rule="evenodd" stroke="none"/>
    </g>
    <g id="font_Lithos_Pro_Regular_j0">
      <path d="M258.0 -400.5 L258.0 -264.5 Q257.0 -170.0 230.5 -104.5 204.0 -39.5 161.5 1.0 119.0 41.5 70.5 61.5 L25.5 -7.5 Q70.0 -25.5 102.0 -57.0 134.0 -88.5 151.5 -139.5 169.0 -190.5 169.0 -266.5 L169.0 -402.5 Q169.0 -409.0 168.5 -438.0 168.0 -467.0 167.5 -503.5 166.5 -540.5 166.0 -570.5 165.5 -600.5 165.0 -609.5 L263.0 -609.5 Q262.0 -601.0 261.0 -571.5 259.5 -542.0 259.0 -497.5 258.0 -453.5 258.0 -400.5" fill-rule="evenodd" stroke="none"/>
    </g>
    <g id="font_Lithos_Pro_Regular_h0">
      <path d="M228.0 0.0 L132.0 0.0 Q132.5 -12.0 133.0 -40.0 133.5 -67.5 134.0 -103.0 134.5 -138.0 134.5 -172.0 135.0 -206.5 135.0 -231.5 135.0 -256.5 135.0 -264.0 L135.0 -358.0 Q135.0 -363.0 134.5 -388.0 134.5 -412.5 134.0 -447.0 133.5 -481.5 132.5 -516.5 132.0 -551.5 131.0 -577.0 130.5 -602.5 130.0 -609.5 L229.0 -609.5 Q228.5 -604.0 228.0 -583.0 227.0 -562.5 226.5 -533.5 225.5 -504.5 225.0 -476.0 224.5 -447.0 224.5 -426.0 224.0 -405.0 224.0 -400.0 L224.0 -336.5 618.5 -352.5 618.5 -418.5 Q618.5 -425.0 618.0 -451.5 618.0 -478.5 617.5 -512.0 617.0 -546.0 616.5 -573.5 616.0 -601.0 615.5 -609.5 L714.5 -609.5 Q714.0 -602.5 713.0 -574.5 712.0 -547.0 711.0 -509.0 710.5 -471.0 709.5 -432.5 708.5 -394.5 708.0 -367.0 707.5 -339.0 707.5 -332.0 L707.5 -245.5 Q707.5 -241.5 707.5 -217.0 708.0 -193.0 708.5 -159.0 708.5 -124.5 709.0 -90.0 710.0 -56.0 710.5 -31.0 711.0 -6.0 711.5 0.0 L613.5 0.0 Q614.5 -12.0 615.5 -41.5 616.5 -71.0 617.0 -105.0 618.0 -139.5 618.0 -166.5 618.5 -193.5 618.5 -200.5 L618.5 -288.5 224.0 -272.0 224.0 -219.0 Q224.0 -203.5 224.5 -171.0 225.0 -139.0 225.5 -102.5 226.5 -66.0 227.0 -37.5 227.5 -8.5 228.0 0.0" fill-rule="evenodd" stroke="none"/>
    </g>
  </defs>
</svg>
