<?xml version="1.0" encoding="UTF-8" standalone="no"?>
<svg xmlns:ffdec="https://www.free-decompiler.com/flash" xmlns:xlink="http://www.w3.org/1999/xlink" ffdec:objectType="frame" height="135.65px" width="129.65px" xmlns="http://www.w3.org/2000/svg">
  <g transform="matrix(1.0, 0.0, 0.0, 1.0, 45.0, 57.4)">
    <use ffdec:characterId="933" height="47.45" id="bgcolor" transform="matrix(1.0, 0.0, 0.0, 1.0, -4.2, -3.9)" width="47.45" xlink:href="#sprite0"/>
    <use ffdec:characterId="921" height="22.0" id="hitbox" transform="matrix(2.2297, 0.0, 0.0, 2.1749, -4.55, -4.25)" width="22.0" xlink:href="#sprite1"/>
    <clipPath id="clipPath0">
      <path d="M 0 0 L 0 40 L 40 40 L 40 0 Z"/>
    </clipPath>
    <g clip-path="url(#clipPath0)">
      <filter id="filter0">
        <feColorMatrix in="SourceGraphic" result="filterResult0" type="matrix" values="0 0 0 0 0.2,0 0 0 0 0.2,0 0 0 0 1.0,0 0 0 1 0"/>
        <feConvolveMatrix divisor="676.0" in="filterResult0" kernelMatrix="1 1 1 1 1 1 1 1 1 1 1 1 1 1 1 1 1 1 1 1 1 1 1 1 1 1 1 1 1 1 1 1 1 1 1 1 1 1 1 1 1 1 1 1 1 1 1 1 1 1 1 1 1 1 1 1 1 1 1 1 1 1 1 1 1 1 1 1 1 1 1 1 1 1 1 1 1 1 1 1 1 1 1 1 1 1 1 1 1 1 1 1 1 1 1 1 1 1 1 1 1 1 1 1 1 1 1 1 1 1 1 1 1 1 1 1 1 1 1 1 1 1 1 1 1 1 1 1 1 1 1 1 1 1 1 1 1 1 1 1 1 1 1 1 1 1 1 1 1 1 1 1 1 1 1 1 1 1 1 1 1 1 1 1 1 1 1 1 1 1 1 1 1 1 1 1 1 1 1 1 1 1 1 1 1 1 1 1 1 1 1 1 1 1 1 1 1 1 1 1 1 1 1 1 1 1 1 1 1 1 1 1 1 1 1 1 1 1 1 1 1 1 1 1 1 1 1 1 1 1 1 1 1 1 1 1 1 1 1 1 1 1 1 1 1 1 1 1 1 1 1 1 1 1 1 1 1 1 1 1 1 1 1 1 1 1 1 1 1 1 1 1 1 1 1 1 1 1 1 1 1 1 1 1 1 1 1 1 1 1 1 1 1 1 1 1 1 1 1 1 1 1 1 1 1 1 1 1 1 1 1 1 1 1 1 1 1 1 1 1 1 1 1 1 1 1 1 1 1 1 1 1 1 1 1 1 1 1 1 1 1 1 1 1 1 1 1 1 1 1 1 1 1 1 1 1 1 1 1 1 1 1 1 1 1 1 1 1 1 1 1 1 1 1 1 1 1 1 1 1 1 1 1 1 1 1 1 1 1 1 1 1 1 1 1 1 1 1 1 1 1 1 1 1 1 1 1 1 1 1 1 1 1 1 1 1 1 1 1 1 1 1 1 1 1 1 1 1 1 1 1 1 1 1 1 1 1 1 1 1 1 1 1 1 1 1 1 1 1 1 1 1 1 1 1 1 1 1 1 1 1 1 1 1 1 1 1 1 1 1 1 1 1 1 1 1 1 1 1 1 1 1 1 1 1 1 1 1 1 1 1 1 1 1 1 1 1 1 1 1 1 1 1 1 1 1 1 1 1 1 1 1 1 1 1 1 1 1 1 1 1 1 1 1 1 1 1 1 1 1 1 1 1 1 1 1 1 1 1 1 1 1 1 1 1 1 1 1 1 1 1 1 1 1 1 1 1 1 1 1 1 1 1 1 1 1 1 1 1 1 1 1 1 1 1 1 1 1 1 1 1 1 1 1 1 1 1 1 1 1 1 1 1 1 1 1 1 1 1 1 1 1 1 1 1 1 1 1 1 1 1 1 1 1 1 1 1 1 1 1 1 1 1 1 1 1 1 1 1 1 1 1 1 1 1 1 1 1 1 1 1 1 1 1 1 1 1 1 1 1 1 1 1 1 1 1 1 1 1 1 1 1 1 1 1 1 1 1 1 1 1 1 1 1 1 1" order="26 26" result="filterResult1"/>
        <feComposite in="SourceGraphic" in2="filterResult1" operator="over" result="filterResult2"/>
      </filter>
      <use ffdec:characterId="998" filter="url(#filter0)" height="118.0" transform="matrix(0.2536, 0.0, 0.0, 0.2536, 5.5957, 3.2334)" width="91.5" xlink:href="#sprite2"/>
      <filter id="filter5">
        <feColorMatrix in="SourceGraphic" result="filterResult3" type="matrix" values="0 0 0 0 0.0,0 0 0 0 0.0,0 0 0 0 0.0,0 0 0 1 0"/>
        <feConvolveMatrix divisor="9.0" in="filterResult3" kernelMatrix="1 1 1 1 1 1 1 1 1" order="3 3" result="filterResult4"/>
        <feComposite in="SourceGraphic" in2="filterResult4" operator="over" result="filterResult5"/>
      </filter>
      <use ffdec:characterId="992" filter="url(#filter5)" height="15.4" transform="matrix(1.0, 0.0, 0.0, 1.0, 2.75, 24.25)" width="42.35" xlink:href="#text0"/>
    </g>
    <filter id="filter6">
      <feColorMatrix in="SourceGraphic" result="filterResult6" type="matrix" values="0 0 0 0 0.0,0 0 0 0 0.0,0 0 0 0 0.0,0 0 0 1 0"/>
      <feConvolveMatrix divisor="4.0" in="filterResult6" kernelMatrix="1 1 1 1" order="2 2" result="filterResult7"/>
      <feComposite in="SourceGraphic" in2="filterResult7" operator="over" result="filterResult8"/>
    </filter>
    <use ffdec:characterId="935" filter="url(#filter6)" height="15.75" id="txt_hotkey" transform="matrix(1.0, 0.0, 0.0, 1.0, -3.85, -0.1)" width="18.0" xlink:href="#text1"/>
    <use ffdec:characterId="948" ffdec:characterName="Army_fla.Hud_BgButton_151" height="97.6" id="bg" transform="matrix(1.0, 0.0, 0.0, 1.0, -29.05, -29.25)" width="97.6" xlink:href="#sprite3"/>
    <use ffdec:characterId="950" ffdec:characterName="Army_fla.Hud_cooldown_152" height="48.5" id="cdcover" transform="matrix(0.9979, 0.0, 0.0, 0.9897, -4.2, -3.9997)" width="48.1" xlink:href="#sprite4"/>
    <use ffdec:characterId="950" ffdec:characterName="Army_fla.Hud_cooldown_152" height="48.5" id="cd" transform="matrix(0.9979, 0.0, 0.0, 0.9897, -4.2, -3.9997)" width="48.1" xlink:href="#sprite5"/>
    <use ffdec:characterId="953" ffdec:characterName="Army_fla.Hud_Description_153" height="50.1" id="desc" transform="matrix(0.0746, 0.0, 0.0, 0.0746, 14.6505, 16.4782)" width="129.55" xlink:href="#sprite6"/>
  </g>
  <defs>
    <g id="sprite0" transform="matrix(1.0, 0.0, 0.0, 1.0, 0.0, 0.0)">
      <use ffdec:characterId="932" height="47.45" transform="matrix(1.0, 0.0, 0.0, 1.0, 0.0, 0.0)" width="47.45" xlink:href="#shape0"/>
    </g>
    <g id="shape0" transform="matrix(1.0, 0.0, 0.0, 1.0, 0.0, 0.0)">
      <path d="M47.45 0.0 L47.45 47.45 0.0 47.45 0.0 0.0 47.45 0.0" fill="#564732" fill-rule="evenodd" stroke="none"/>
    </g>
    <g id="sprite1" transform="matrix(1.0, 0.0, 0.0, 1.0, 0.0, 0.0)">
      <use ffdec:characterId="145" height="22.0" transform="matrix(1.0, 0.0, 0.0, 1.0, 0.0, 0.0)" width="22.0" xlink:href="#shape1"/>
    </g>
    <g id="shape1" transform="matrix(1.0, 0.0, 0.0, 1.0, 0.0, 0.0)">
      <path d="M22.0 0.0 L22.0 22.0 0.0 22.0 0.0 0.0 22.0 0.0" fill="#00ff00" fill-opacity="0.0" fill-rule="evenodd" stroke="none"/>
    </g>
    <g id="sprite2" transform="matrix(1.0, 0.0, 0.0, 1.0, 45.75, 59.4)">
      <use ffdec:characterId="997" height="118.0" transform="matrix(1.0, 0.0, 0.0, 1.0, -45.75, -59.4)" width="91.5" xlink:href="#shape2"/>
    </g>
    <g id="shape2" transform="matrix(1.0, 0.0, 0.0, 1.0, 45.75, 59.4)">
      <path d="M-7.4 29.9 L-8.25 15.15 -8.2 12.75 -8.05 12.05 -10.6 11.0 Q-15.75 8.4 -15.45 4.75 L-15.95 7.6 Q-16.4 9.75 -17.75 10.85 -20.35 9.15 -21.65 6.5 L-23.5 2.0 -23.75 1.75 Q-24.25 4.05 -24.75 4.75 L-25.75 4.85 Q-28.1 4.85 -30.95 -4.4 L-31.85 -6.7 Q-32.35 -8.0 -32.25 -8.9 L-32.25 -13.4 Q-32.25 -18.25 -31.25 -23.8 -30.55 -27.65 -30.35 -30.5 L-35.15 -30.15 Q-34.9 -29.4 -34.8 -28.3 L-34.75 -25.05 -35.25 -20.75 -35.75 -16.45 -35.3 -14.2 -34.75 -11.75 Q-34.7 -10.95 -34.95 -9.5 L-35.25 -7.45 Q-34.75 -2.4 -34.75 -0.25 -32.65 0.9 -31.2 2.7 -29.75 4.55 -29.75 6.1 -29.75 10.35 -34.5 10.35 -38.9 10.35 -39.75 8.0 -40.2 6.8 -39.75 5.35 L-39.75 2.35 -36.75 -0.15 -36.75 -5.55 -37.75 -16.25 -37.3 -19.5 Q-36.85 -22.35 -36.75 -23.75 L-36.9 -27.7 Q-36.9 -29.15 -36.45 -30.15 L-36.75 -30.15 Q-41.7 -30.15 -42.95 -30.9 -43.25 -31.05 -43.25 -31.8 L-43.2 -32.45 Q-43.55 -33.25 -43.7 -34.5 L-43.75 -37.9 -43.7 -41.3 -43.15 -43.45 -43.25 -43.9 -43.2 -44.65 -43.1 -45.0 -42.25 -45.15 Q-41.2 -45.15 -39.25 -44.0 L-15.5 -42.9 -11.7 -42.9 -11.7 -43.4 -10.6 -42.95 -10.5 -42.95 Q-11.55 -44.15 -11.75 -46.55 L-11.75 -50.75 Q-11.85 -53.7 -12.3 -55.8 L-12.75 -58.45 -12.65 -59.05 -11.2 -59.4 1.25 -58.65 2.25 -57.65 Q0.75 -54.25 0.35 -50.35 0.1 -48.0 0.25 -43.35 L7.7 -43.8 24.8 -44.4 Q32.3 -44.0 36.3 -44.7 L39.55 -45.4 40.25 -39.75 Q40.3 -39.05 41.05 -36.85 L41.75 -34.15 41.75 -33.4 41.55 -33.0 41.6 -32.8 40.75 -32.65 37.95 -33.05 33.55 -33.45 34.25 -32.15 33.75 -26.5 33.25 -20.9 Q33.25 -20.5 33.95 -19.75 34.5 -17.5 35.55 -15.3 36.6 -13.1 37.8 -11.85 L37.8 -11.8 Q36.85 -12.2 35.0 -10.5 L34.8 -10.3 35.0 -10.95 32.85 -11.3 32.75 -11.35 Q33.6 -9.7 33.75 -6.9 L33.75 -1.2 33.55 2.0 33.25 2.2 33.25 3.35 Q38.1 3.05 39.35 4.85 39.75 5.45 39.75 7.55 39.75 9.7 39.05 10.7 37.95 12.35 34.75 12.35 31.4 12.35 30.75 10.85 30.4 10.1 30.75 9.2 L31.0 4.4 31.55 -1.05 31.35 -2.25 31.25 -6.3 31.3 -9.6 Q31.45 -10.95 31.8 -11.6 31.1 -11.85 30.75 -12.15 L30.35 -10.55 Q28.15 -2.65 21.75 8.85 20.6 8.3 20.6 6.65 L20.55 3.75 18.5 9.3 Q17.2 12.75 16.75 14.85 16.35 16.9 16.15 20.45 L15.8 26.1 Q16.0 26.35 14.75 26.35 13.8 26.35 12.7 25.05 L10.3 22.0 Q6.7 17.5 1.65 15.5 L2.0 22.65 2.25 28.85 2.25 31.35 Q2.25 34.8 2.7 38.35 L2.85 39.35 3.0 40.55 3.05 40.7 Q3.75 45.25 3.75 48.5 L3.7 49.25 Q3.55 49.25 3.5 49.35 L3.5 49.7 2.75 49.85 2.65 49.85 Q2.2 50.5 0.3 51.1 L0.25 51.15 Q0.1 49.8 -0.35 48.95 L1.75 48.35 1.8 48.35 Q1.1 46.1 0.6 40.55 L0.45 38.3 0.4 37.5 0.25 35.5 0.05 31.2 -0.25 21.0 Q-0.8 19.25 -0.85 17.55 -0.9 15.7 -0.15 14.85 L-6.45 12.65 Q-5.95 14.2 -5.85 16.15 L-5.75 21.9 -5.25 32.75 -5.25 33.3 -5.25 37.8 -5.25 38.15 -5.3 40.25 -5.35 40.6 Q-5.65 43.5 -7.25 49.65 L-4.65 49.55 -4.75 49.65 -4.75 51.85 -5.25 51.85 -6.2 51.85 -6.55 51.4 Q-7.75 49.85 -8.25 49.85 -9.0 49.85 -9.2 50.1 L-9.25 50.35 -9.25 49.25 Q-9.25 46.95 -8.25 42.95 L-7.7 40.2 -7.7 40.15 -7.45 38.1 -7.25 32.85 -7.4 29.9 M-9.75 -56.9 L-9.5 -51.1 -9.25 -46.95 -9.45 -43.0 -9.45 -42.95 -1.55 -43.25 -1.7 -43.85 -1.75 -46.15 -1.25 -51.0 -0.75 -55.9 -0.85 -56.9 -1.0 -57.0 -9.75 -56.9 M-41.75 -33.15 L-34.7 -33.15 -34.75 -33.4 -34.75 -34.8 -34.25 -38.55 -33.35 -41.3 -35.95 -41.4 -40.2 -41.75 Q-41.3 -41.9 -41.75 -42.15 L-41.75 -33.15 M-6.5 -38.0 L-10.1 -39.8 -11.1 -40.75 -15.25 -40.65 -26.7 -41.05 -26.25 -40.15 Q-26.25 -39.4 -26.55 -38.65 L-26.7 -38.2 -26.25 -38.0 -24.5 -37.35 Q-18.65 -35.5 -9.0 -35.05 L-6.2 -37.65 -6.15 -37.65 -6.15 -37.7 -6.5 -38.0 M-6.1 -40.1 L-4.55 -39.05 -4.5 -39.1 -2.15 -41.05 -7.25 -40.85 -6.1 -40.1 M-4.7 -36.2 L-6.45 -34.95 -3.1 -34.9 -4.25 -35.75 -4.7 -36.2 M-30.05 -40.15 L-28.75 -39.2 -28.75 -39.65 -28.6 -41.1 -30.4 -41.2 -31.0 -41.2 -31.25 -41.2 -31.25 -41.15 Q-31.05 -41.15 -30.25 -40.35 L-30.05 -40.15 M-31.25 -35.95 L-32.2 -37.7 -32.45 -36.4 -32.4 -34.2 -32.5 -33.15 -30.25 -33.15 Q-30.4 -34.1 -31.0 -35.45 L-31.25 -35.95 M-22.5 -34.15 L-23.5 -34.4 -24.85 -34.75 -25.0 -34.8 -26.25 -35.2 -28.15 -35.95 -28.25 -36.0 -28.75 -36.25 -28.65 -35.9 -28.6 -35.8 -28.45 -35.25 -28.25 -33.15 -28.25 -32.65 -28.25 -32.25 -28.25 -32.15 -28.25 -32.05 Q-28.35 -28.75 -29.25 -23.3 -30.25 -17.35 -30.25 -13.3 -30.25 -8.0 -29.9 -6.6 -29.4 -4.7 -26.0 1.85 L-25.75 1.85 -25.75 1.75 -25.5 0.45 -25.2 -1.4 -24.95 -1.5 -24.0 -1.65 Q-22.6 -1.65 -20.55 2.75 L-18.5 7.75 -18.25 7.75 -16.7 -0.4 -16.45 -0.5 -15.85 -0.65 -15.65 -0.65 -15.5 -0.65 Q-15.0 -0.65 -13.75 2.5 L-13.65 2.75 -13.55 2.95 -13.55 3.0 -13.4 3.3 -13.35 3.4 -12.0 6.75 -11.95 6.85 -11.85 6.95 -11.8 7.0 -11.75 7.1 -11.7 7.15 -11.65 7.2 -11.6 7.25 -11.55 7.3 -10.15 8.3 -10.1 8.3 -10.05 8.35 -4.95 10.55 -4.75 10.6 -1.7 11.6 Q3.55 13.25 7.85 16.8 L14.25 22.65 Q12.95 18.25 15.65 10.75 L16.6 8.2 Q19.5 -0.05 19.8 -1.9 L20.05 -2.0 21.0 -2.15 Q23.05 -2.15 23.1 0.15 L23.1 0.3 23.0 1.15 22.95 1.5 22.75 2.85 23.4 1.8 24.25 0.2 Q26.85 -4.8 28.05 -10.35 L28.75 -14.9 29.0 -15.0 29.05 -15.0 29.2 -15.05 29.25 -15.05 30.0 -15.15 Q30.45 -15.15 31.2 -14.45 L32.0 -13.75 34.05 -13.9 27.95 -27.05 Q26.25 -31.55 25.85 -36.3 L25.75 -39.0 25.75 -39.5 25.55 -39.35 25.5 -39.3 23.95 -38.3 22.65 -37.7 22.65 -37.65 19.25 -36.25 Q9.85 -32.65 -2.5 -32.65 -15.2 -32.65 -22.5 -34.15 M37.75 -42.65 L28.0 -42.3 28.3 -41.75 29.8 -39.4 32.25 -36.6 32.9 -35.8 38.75 -35.75 38.25 -39.05 37.75 -42.4 37.75 -42.65 M23.75 -41.3 L25.75 -42.15 25.75 -42.2 23.7 -42.1 23.75 -41.3 M1.8 -34.95 L10.05 -35.7 Q13.8 -36.4 18.75 -38.65 L21.25 -39.95 21.25 -42.0 12.3 -41.65 0.9 -41.15 Q0.1 -40.0 -2.65 -37.8 0.35 -35.85 1.75 -35.15 L1.75 -34.95 1.8 -34.95 M30.05 -27.0 L31.2 -24.45 31.1 -28.45 Q31.15 -31.85 31.95 -33.5 L28.55 -33.65 28.45 -33.7 Q29.15 -29.4 30.05 -27.0 M30.05 -35.55 L28.05 -37.9 28.25 -35.0 28.9 -35.35 30.05 -35.55 M34.1 5.95 L34.15 6.0 33.75 5.85 33.0 6.0 32.8 6.35 32.75 6.75 32.75 6.95 32.75 7.2 32.8 7.55 32.8 7.7 32.95 8.1 33.0 8.15 33.3 8.25 33.35 8.25 33.1 8.4 32.9 8.7 Q32.75 8.95 32.75 9.25 L32.8 10.15 33.0 10.25 Q37.75 10.3 37.75 7.7 37.75 6.75 37.2 6.1 36.35 5.1 34.45 5.45 L34.1 5.55 33.8 5.6 34.1 5.95 M-34.75 2.8 Q-37.75 1.7 -37.75 5.45 -38.05 7.05 -37.75 7.5 -37.4 8.1 -34.35 8.1 -32.5 8.1 -31.95 7.15 L-31.75 6.05 Q-31.75 3.9 -34.75 2.8 M-3.35 49.45 L-1.75 49.25 Q-1.8 50.4 -2.0 50.65 -2.8 49.7 -3.35 49.45 M-9.25 50.45 L-9.2 50.7 -9.25 50.65 -9.25 50.45" fill="#333333" fill-rule="evenodd" stroke="none"/>
      <path d="M-4.65 49.55 L-7.25 49.65 Q-5.65 43.5 -5.35 40.6 L-5.3 40.25 -5.25 38.15 -5.25 37.8 -5.25 33.3 -5.25 32.75 -5.75 21.9 -5.85 16.15 Q-5.95 14.2 -6.45 12.65 L-0.15 14.85 Q-0.9 15.7 -0.85 17.55 -0.8 19.25 -0.25 21.0 L0.05 31.2 0.25 35.5 0.4 37.5 0.45 38.3 0.6 40.55 Q1.1 46.1 1.8 48.35 L1.75 48.35 -0.35 48.95 -0.75 48.35 -1.4 48.6 -1.75 48.85 -1.75 49.25 -3.35 49.45 -3.75 49.35 -4.6 49.5 -4.65 49.55 M-41.75 -33.15 L-41.75 -42.15 Q-41.3 -41.9 -40.2 -41.75 L-35.95 -41.4 -33.35 -41.3 -34.25 -38.55 -34.75 -34.8 -34.75 -33.4 -34.7 -33.15 -41.75 -33.15 M-9.75 -56.9 L-1.0 -57.0 -0.85 -56.9 -0.75 -55.9 -1.25 -51.0 -1.75 -46.15 -1.7 -43.85 -1.55 -43.25 -9.45 -42.95 -9.45 -43.0 -9.25 -46.95 -9.5 -51.1 -9.75 -56.9 M-6.5 -38.0 L-6.15 -37.65 -6.2 -37.65 -9.0 -35.05 Q-18.65 -35.5 -24.5 -37.35 L-26.25 -38.0 -26.7 -38.2 -26.55 -38.65 Q-26.25 -39.4 -26.25 -40.15 L-26.7 -41.05 -15.25 -40.65 -11.1 -40.75 -10.1 -39.8 -6.5 -38.0 M-31.25 -35.95 L-31.0 -35.45 Q-30.4 -34.1 -30.25 -33.15 L-32.5 -33.15 -32.4 -34.2 -32.45 -36.4 -32.2 -37.7 -31.25 -35.95 M-30.05 -40.15 L-30.25 -40.35 Q-31.05 -41.15 -31.25 -41.15 L-31.25 -41.2 -31.0 -41.2 -30.4 -41.2 -28.6 -41.1 -28.75 -39.65 -28.75 -39.2 -30.05 -40.15 M-4.7 -36.2 L-4.25 -35.75 -3.1 -34.9 -6.45 -34.95 -4.7 -36.2 M-6.1 -40.1 L-7.25 -40.85 -2.15 -41.05 -4.5 -39.1 -4.55 -39.05 -6.1 -40.1 M23.75 -41.3 L23.7 -42.1 25.75 -42.2 25.75 -42.15 23.75 -41.3 M37.75 -42.65 L37.75 -42.4 38.25 -39.05 38.75 -35.75 32.9 -35.8 32.25 -36.6 29.8 -39.4 28.3 -41.75 28.0 -42.3 37.75 -42.65 M1.75 -35.15 Q0.35 -35.85 -2.65 -37.8 0.1 -40.0 0.9 -41.15 L12.3 -41.65 21.25 -42.0 21.25 -39.95 18.75 -38.65 Q13.8 -36.4 10.05 -35.7 L1.8 -34.95 1.75 -35.15 M30.05 -35.55 L28.9 -35.35 28.25 -35.0 28.05 -37.9 30.05 -35.55" fill="#666666" fill-rule="evenodd" stroke="none"/>
      <path d="M-22.5 -34.15 L-22.2 -34.1 Q-21.75 -31.6 -21.75 -29.2 L-21.75 -28.05 Q-21.45 -27.5 -21.25 -26.25 L-20.8 -22.7 -20.25 -19.15 -20.25 2.25 -20.35 2.55 -20.55 2.75 Q-22.6 -1.65 -24.0 -1.65 L-24.95 -1.5 -25.2 -1.4 -25.5 0.45 -25.75 1.75 -25.0 -2.9 -24.25 -7.0 Q-24.25 -9.7 -23.75 -12.0 -23.25 -14.3 -23.25 -15.25 L-28.25 -33.15 -28.45 -35.25 -28.6 -35.8 -28.65 -35.9 -28.25 -36.0 -28.15 -35.95 -26.25 -35.2 -25.0 -34.8 -24.75 -34.05 -24.85 -34.75 -23.5 -34.4 -22.5 -34.15 M-15.85 -0.65 L-15.85 -1.15 -15.75 -6.25 Q-16.25 -10.0 -16.25 -15.45 L-16.15 -20.9 Q-15.75 -24.3 -14.25 -25.65 -12.05 -21.95 -10.55 -16.9 L-8.25 -7.75 Q-6.95 -2.3 -4.75 9.85 L-4.75 10.6 -4.95 10.55 -10.05 8.35 -10.1 8.3 -10.15 8.3 -11.55 7.3 -11.6 7.25 -11.65 7.2 -11.7 7.15 -11.75 7.1 -11.8 7.0 -11.85 6.95 -11.95 6.85 -12.0 6.75 -13.35 3.4 -13.4 3.3 -13.55 3.0 -13.55 2.95 -13.7 2.0 -13.75 2.5 Q-15.0 -0.65 -15.5 -0.65 L-15.65 -0.65 -15.85 -0.65 M16.6 8.2 Q15.45 6.95 15.0 4.45 L14.55 0.25 13.05 -7.65 10.1 -16.25 Q7.75 -22.7 7.75 -23.2 7.75 -25.0 8.75 -28.5 10.4 -27.2 12.1 -22.8 13.85 -18.15 16.25 -16.0 L20.7 -9.05 24.25 -2.15 24.25 0.2 23.4 1.8 23.25 1.85 22.95 1.5 23.0 1.15 23.1 0.3 23.1 0.15 Q23.05 -2.15 21.0 -2.15 L20.05 -2.0 19.8 -1.9 Q19.5 -0.05 16.6 8.2 M28.05 -10.35 Q25.15 -11.55 23.25 -19.9 22.15 -24.8 21.75 -30.0 21.75 -33.9 22.55 -36.4 L22.65 -37.65 22.65 -37.7 23.95 -38.3 25.5 -39.3 25.55 -39.35 25.75 -39.0 25.85 -36.3 25.75 -35.75 25.25 -32.5 Q25.25 -29.25 27.75 -20.2 L29.25 -15.05 29.2 -15.05 29.05 -15.0 29.0 -15.0 28.75 -14.9 28.05 -10.35 M34.1 5.55 L34.45 5.45 Q36.35 5.1 37.2 6.1 37.75 6.75 37.75 7.7 37.75 10.3 33.0 10.25 L32.8 10.15 32.75 9.25 Q32.75 8.95 32.9 8.7 L33.1 8.4 33.35 8.25 33.3 8.25 33.0 8.15 32.95 8.1 32.8 7.7 32.8 7.55 32.75 7.2 32.75 6.95 32.75 6.75 32.8 6.35 33.0 6.0 33.75 5.85 34.15 6.0 34.1 5.95 34.1 5.55 M-34.75 2.8 Q-31.75 3.9 -31.75 6.05 L-31.95 7.15 Q-32.5 8.1 -34.35 8.1 -37.4 8.1 -37.75 7.5 -38.05 7.05 -37.75 5.45 -37.75 1.7 -34.75 2.8" fill="#999999" fill-rule="evenodd" stroke="none"/>
      <path d="M-20.55 2.75 L-20.35 2.55 -20.25 2.25 -20.25 -19.15 -20.8 -22.7 -21.25 -26.25 Q-21.45 -27.5 -21.75 -28.05 L-21.75 -29.2 Q-21.75 -31.6 -22.2 -34.1 L-22.5 -34.15 Q-15.2 -32.65 -2.5 -32.65 9.85 -32.65 19.25 -36.25 L22.65 -37.65 22.55 -36.4 Q21.75 -33.9 21.75 -30.0 22.15 -24.8 23.25 -19.9 25.15 -11.55 28.05 -10.35 26.85 -4.8 24.25 0.2 L24.25 -2.15 20.7 -9.05 16.25 -16.0 Q13.85 -18.15 12.1 -22.8 10.4 -27.2 8.75 -28.5 7.75 -25.0 7.75 -23.2 7.75 -22.7 10.1 -16.25 L13.05 -7.65 14.55 0.25 15.0 4.45 Q15.45 6.95 16.6 8.2 L15.65 10.75 Q12.95 18.25 14.25 22.65 L7.85 16.8 Q3.55 13.25 -1.7 11.6 L-4.75 10.6 -4.75 9.85 Q-6.95 -2.3 -8.25 -7.75 L-10.55 -16.9 Q-12.05 -21.95 -14.25 -25.65 -15.75 -24.3 -16.15 -20.9 L-16.25 -15.45 Q-16.25 -10.0 -15.75 -6.25 L-15.85 -1.15 -15.85 -0.65 -16.45 -0.5 -16.7 -0.4 -18.25 7.75 -18.5 7.75 -20.55 2.75 M-24.85 -34.75 L-24.75 -34.05 -25.0 -34.8 -24.85 -34.75 M-28.25 -33.15 L-23.25 -15.25 Q-23.25 -14.3 -23.75 -12.0 -24.25 -9.7 -24.25 -7.0 L-25.0 -2.9 -25.75 1.75 -25.75 1.85 -26.0 1.85 Q-29.4 -4.7 -29.9 -6.6 -30.25 -8.0 -30.25 -13.3 -30.25 -17.35 -29.25 -23.3 -28.35 -28.75 -28.25 -32.05 L-28.25 -32.15 -28.25 -32.25 -28.25 -32.65 -28.25 -33.15 M25.85 -36.3 Q26.25 -31.55 27.95 -27.05 L34.05 -13.9 32.0 -13.75 31.2 -14.45 Q30.45 -15.15 30.0 -15.15 L29.25 -15.05 27.75 -20.2 Q25.25 -29.25 25.25 -32.5 L25.75 -35.75 25.85 -36.3 M23.4 1.8 L22.75 2.85 22.95 1.5 23.25 1.85 23.4 1.8 M-13.55 2.95 L-13.65 2.75 -13.75 2.5 -13.7 2.0 -13.55 2.95" fill="#cccccc" fill-rule="evenodd" stroke="none"/>
      <path d="M2.25 28.85 Q2.9 28.85 3.45 29.35 4.0 29.85 4.6 29.85 6.6 29.85 7.8 28.1 9.7 25.3 10.25 24.85 11.45 25.7 11.7 28.15 L11.75 31.85 12.25 31.45 13.25 30.85 13.95 31.5 14.25 32.35 Q14.85 30.85 15.75 30.85 16.55 30.85 16.65 31.2 L16.75 31.85 Q17.0 31.3 18.25 30.35 18.95 30.65 19.25 31.35 19.75 31.05 20.2 29.4 20.65 27.9 22.25 27.35 23.3 27.95 23.3 28.8 L22.75 30.6 22.75 30.85 Q24.8 30.35 25.25 29.25 25.55 28.35 27.25 28.35 27.95 28.35 28.3 27.85 L28.75 27.35 29.45 27.55 Q29.75 27.65 29.75 28.45 29.75 29.1 28.9 30.6 28.0 32.15 28.0 32.6 28.0 33.15 28.35 34.25 28.65 35.2 28.55 35.85 L30.25 34.35 Q32.0 35.5 32.25 36.4 L35.95 32.2 Q36.95 31.35 38.55 31.35 L39.75 30.55 40.75 29.4 41.8 29.35 42.05 29.5 Q42.25 29.6 42.25 30.35 42.25 31.0 41.0 33.55 L39.25 37.1 40.25 36.85 Q41.05 37.8 41.1 38.6 L41.0 39.45 41.85 39.9 Q42.7 40.25 42.75 41.15 L42.75 41.5 Q43.9 40.5 44.75 40.35 L45.45 40.5 Q45.75 40.6 45.75 41.35 45.75 43.55 41.1 48.05 37.1 51.9 34.75 53.15 L32.75 53.95 29.4 54.9 23.25 56.35 19.25 56.85 9.3 57.6 0.5 58.6 -0.5 58.5 -8.3 58.1 Q-9.4 57.35 -14.7 57.6 L-15.5 57.65 -29.15 56.65 -32.05 56.15 -32.3 56.05 -32.35 56.05 -32.4 56.1 -35.0 55.5 -36.4 55.5 Q-38.2 54.45 -39.95 52.2 -42.3 49.1 -42.7 47.6 L-43.85 45.65 Q-45.75 42.3 -45.75 41.25 -45.75 40.5 -45.25 40.35 L-44.75 40.35 -41.05 44.3 Q-41.75 41.65 -41.75 39.95 L-41.5 37.65 -41.6 37.5 -40.75 37.35 -37.25 40.6 Q-36.5 41.4 -36.15 41.35 L-34.75 41.15 Q-35.75 39.05 -35.75 37.4 L-35.5 35.6 -35.25 33.65 -35.0 33.5 -34.0 33.35 Q-33.6 33.35 -32.65 34.35 L-31.45 35.65 Q-31.25 34.85 -31.25 32.15 L-31.1 32.0 -30.25 31.85 -28.5 32.9 Q-27.15 33.9 -26.5 34.65 -24.55 32.95 -24.55 29.7 -24.6 25.35 -24.25 24.4 -22.25 25.05 -21.55 27.8 L-20.45 32.35 Q-20.15 32.35 -19.9 32.5 L-18.95 32.65 Q-18.25 32.65 -18.2 32.0 -18.1 31.35 -17.75 31.35 L-17.1 31.6 -15.95 31.85 Q-14.6 31.85 -12.9 29.1 -11.2 26.35 -9.75 26.35 L-8.7 26.4 -7.95 26.6 Q-8.1 28.25 -7.4 29.9 L-7.25 32.85 -7.45 38.1 Q-15.25 37.95 -15.25 38.1 -23.35 38.7 -29.7 40.35 L-32.25 41.6 -35.2 43.55 -35.6 43.9 -34.4 46.1 -33.65 47.55 -33.25 48.1 Q-32.15 49.7 -30.95 49.85 L-30.75 49.85 Q-30.6 49.85 -29.35 50.95 -28.05 52.05 -27.5 52.15 L-27.2 51.4 Q-26.85 50.9 -25.25 50.15 -26.25 48.05 -26.25 46.95 -26.25 46.1 -26.05 45.8 -25.9 45.6 -25.25 45.35 -23.55 46.1 -23.6 46.85 -23.7 47.35 -22.75 47.35 L-21.5 48.95 -19.7 50.9 -17.3 52.05 -14.5 53.15 -15.3 51.6 -15.75 49.9 -15.7 49.65 Q-15.55 49.35 -14.75 49.35 -14.1 49.35 -13.4 50.5 L-12.5 52.15 -12.2 52.35 -12.25 50.9 -12.2 50.65 Q-12.05 50.35 -11.25 50.35 -10.5 50.35 -10.05 51.45 -9.55 52.8 -8.2 53.4 -9.1 51.85 -9.2 50.7 L-9.25 50.45 -9.25 50.35 -9.2 50.1 Q-9.0 49.85 -8.25 49.85 -7.75 49.85 -6.55 51.4 L-6.2 51.85 -4.75 53.4 -4.75 51.85 -4.75 49.65 -4.65 49.55 -4.6 49.5 -3.75 49.35 -3.35 49.45 Q-2.8 49.7 -2.0 50.65 -1.8 50.4 -1.75 49.25 L-1.75 48.85 -1.4 48.6 -0.75 48.35 -0.35 48.95 Q0.1 49.8 0.25 51.15 L0.25 51.9 0.65 52.25 1.8 52.4 2.9 51.45 Q3.75 50.45 4.25 50.35 5.2 51.0 5.3 52.15 L8.0 49.65 9.15 49.55 10.3 49.35 12.0 46.7 Q12.95 44.95 13.75 44.85 L14.45 45.5 14.75 46.15 15.45 46.05 16.55 46.1 16.65 46.5 16.75 47.6 16.3 49.1 15.5 50.6 15.25 50.9 16.65 50.25 Q17.3 49.85 18.0 49.85 19.25 49.85 19.25 51.15 21.3 50.75 22.85 48.95 24.2 47.35 24.75 47.35 25.5 47.35 25.75 47.85 L26.0 48.4 28.65 46.3 Q30.2 44.85 31.05 44.45 L31.25 44.35 31.45 44.65 Q31.95 45.4 32.05 46.35 32.2 47.5 31.5 47.9 L31.75 48.1 34.6 45.45 35.1 45.0 35.9 44.3 34.4 43.45 34.25 43.4 33.3 42.9 Q32.1 42.35 31.0 41.95 L30.3 41.7 29.05 41.35 23.0 39.8 23.05 39.6 22.9 39.8 19.2 39.05 17.25 38.85 2.7 38.35 Q2.25 34.8 2.25 31.35 L2.25 28.85 M-37.25 48.6 L-37.2 47.85 Q-37.2 47.1 -37.6 46.3 L-38.0 45.65 -38.2 45.8 -39.1 46.65 -37.45 48.65 -37.25 48.6" fill="#3c3cff" fill-rule="evenodd" stroke="none"/>
      <path d="M32.75 53.95 Q29.1 55.65 23.9 56.65 L19.25 56.85 23.25 56.35 29.4 54.9 32.75 53.95 M-7.45 38.1 L-7.7 40.15 -7.7 40.2 -8.25 42.95 Q-9.25 46.95 -9.25 49.25 L-9.25 50.35 -9.25 50.45 -9.25 50.65 -9.2 50.7 Q-9.1 51.85 -8.2 53.4 -9.55 52.8 -10.05 51.45 -10.5 50.35 -11.25 50.35 -12.05 50.35 -12.2 50.65 L-12.25 50.9 -12.2 52.35 -12.5 52.15 -13.4 50.5 Q-14.1 49.35 -14.75 49.35 -15.55 49.35 -15.7 49.65 L-15.75 49.9 -15.3 51.6 -14.5 53.15 -17.3 52.05 -19.7 50.9 -21.5 48.95 -22.75 47.35 Q-23.7 47.35 -23.6 46.85 -23.55 46.1 -25.25 45.35 -25.9 45.6 -26.05 45.8 -26.25 46.1 -26.25 46.95 -26.25 48.05 -25.25 50.15 -26.85 50.9 -27.2 51.4 L-27.5 52.15 Q-28.05 52.05 -29.35 50.95 -30.6 49.85 -30.75 49.85 L-30.95 49.85 Q-32.15 49.7 -33.25 48.1 L-33.65 47.55 -34.4 46.1 -35.6 43.9 -35.2 43.55 -32.25 41.6 -29.7 40.35 Q-23.35 38.7 -15.25 38.1 -15.25 37.95 -7.45 38.1 M-6.2 51.85 L-5.25 51.85 -4.75 51.85 -4.75 53.4 -6.2 51.85 M0.25 51.15 L0.3 51.1 Q2.2 50.5 2.65 49.85 L2.75 49.85 3.5 49.7 3.5 49.35 Q3.55 49.25 3.7 49.25 L3.75 48.5 Q3.75 45.25 3.05 40.7 L3.0 40.55 2.85 39.35 2.7 38.35 17.25 38.85 19.2 39.05 22.9 39.8 23.0 39.8 29.05 41.35 30.3 41.7 31.0 41.95 Q32.1 42.35 33.3 42.9 L34.25 43.4 34.4 43.45 35.9 44.3 35.1 45.0 34.6 45.45 31.75 48.1 31.5 47.9 Q32.2 47.5 32.05 46.35 31.95 45.4 31.45 44.65 L31.25 44.35 31.05 44.45 Q30.2 44.85 28.65 46.3 L26.0 48.4 25.75 47.85 Q25.5 47.35 24.75 47.35 24.2 47.35 22.85 48.95 21.3 50.75 19.25 51.15 19.25 49.85 18.0 49.85 17.3 49.85 16.65 50.25 L15.25 50.9 15.5 50.6 16.3 49.1 16.75 47.6 16.65 46.5 16.55 46.1 15.45 46.05 14.75 46.15 14.45 45.5 13.75 44.85 Q12.95 44.95 12.0 46.7 L10.3 49.35 9.15 49.55 8.0 49.65 5.3 52.15 Q5.2 51.0 4.25 50.35 3.75 50.45 2.9 51.45 L1.8 52.4 0.65 52.25 0.25 51.9 0.25 51.15 M-37.25 48.6 L-37.45 48.65 -39.1 46.65 -38.2 45.8 -38.0 45.65 -37.6 46.3 Q-37.2 47.1 -37.2 47.85 L-37.25 48.6" fill="#000099" fill-rule="evenodd" stroke="none"/>
    </g>
    <g id="text0" transform="matrix(1.0, 0.0, 0.0, 1.0, -3.85, -1.65)">
      <g transform="matrix(1.0, 0.0, 0.0, 1.0, 0.0, 0.0)">
        <use fill="#ffcc66" height="15.4" transform="matrix(0.0156, 0.0, 0.0, 0.0156, 4.0, 15.0)" width="42.35" xlink:href="#font_Lithos_Pro_Regular_x0"/>
        <use fill="#ffcc66" height="15.4" transform="matrix(0.0156, 0.0, 0.0, 0.0156, 13.65, 15.0)" width="42.35" xlink:href="#font_Lithos_Pro_Regular_10"/>
        <use fill="#ffcc66" height="15.4" transform="matrix(0.0156, 0.0, 0.0, 0.0156, 24.7, 15.0)" width="42.35" xlink:href="#font_Lithos_Pro_Regular_.0"/>
        <use fill="#ffcc66" height="15.4" transform="matrix(0.0156, 0.0, 0.0, 0.0156, 27.65, 15.0)" width="42.35" xlink:href="#font_Lithos_Pro_Regular_50"/>
      </g>
    </g>
    <g id="font_Lithos_Pro_Regular_x0">
      <path d="M172.0 39.0 L22.5 -102.5 Q30.0 -110.5 59.0 -139.5 88.0 -168.0 124.5 -204.5 161.0 -240.5 192.0 -271.0 222.5 -301.5 233.5 -313.0 215.0 -332.0 186.0 -362.0 156.5 -391.5 126.0 -423.0 95.5 -454.5 72.0 -478.5 49.0 -502.0 43.0 -508.5 L208.0 -651.0 Q224.0 -632.0 248.5 -602.5 273.0 -572.5 299.0 -540.5 325.5 -508.0 347.0 -482.0 369.0 -455.5 379.0 -444.0 389.0 -455.5 412.5 -482.0 435.5 -508.5 464.0 -541.0 492.0 -573.5 518.0 -603.5 544.0 -633.0 560.0 -651.0 L715.0 -513.0 Q705.0 -503.0 676.0 -476.5 647.0 -450.0 611.5 -418.0 575.5 -386.0 546.5 -359.0 517.0 -332.5 507.0 -322.5 520.5 -308.5 551.5 -278.0 583.0 -247.0 619.0 -211.0 655.0 -175.5 683.0 -147.0 711.5 -119.0 720.0 -110.5 L555.0 38.0 Q542.5 23.5 516.0 -7.5 489.5 -38.5 458.5 -75.0 427.5 -111.5 401.0 -142.5 374.5 -173.5 361.5 -188.5 353.0 -179.0 326.5 -147.0 300.0 -115.0 267.0 -75.5 234.5 -36.0 208.0 -3.5 181.0 29.0 172.0 39.0" fill-rule="evenodd" stroke="none"/>
    </g>
    <g id="font_Lithos_Pro_Regular_10">
      <path d="M573.5 0.0 L573.5 0.0 340.0 0.0 Q340.5 -14.0 341.5 -57.5 342.5 -100.5 343.0 -162.0 344.0 -223.5 344.0 -293.0 L344.0 -502.0 Q321.0 -493.0 289.0 -478.0 257.5 -463.5 230.5 -450.5 L178.0 -582.5 Q190.0 -588.5 228.5 -605.5 266.5 -623.0 321.0 -647.5 375.5 -672.5 437.0 -700.0 498.0 -728.0 556.0 -755.0 L576.5 -742.5 Q576.0 -717.0 575.0 -669.5 573.5 -622.0 572.5 -560.0 571.5 -498.0 571.5 -428.0 L571.5 -271.5 Q571.5 -160.5 571.5 -92.5 572.0 -24.0 573.5 0.0" fill-rule="evenodd" stroke="none"/>
    </g>
    <g id="font_Lithos_Pro_Regular_.0">
      <path d="M73.5 0.0 L73.5 0.0 73.5 -158.5 243.5 -158.5 243.5 0.0 73.5 0.0" fill-rule="evenodd" stroke="none"/>
    </g>
    <g id="font_Lithos_Pro_Regular_50">
      <path d="M370.0 -568.5 L370.0 -568.5 357.5 -496.0 Q448.0 -488.0 506.0 -468.5 563.5 -449.0 595.0 -421.0 626.5 -393.0 639.0 -359.0 651.0 -325.5 650.5 -289.0 650.0 -221.0 592.5 -155.5 535.5 -90.5 429.0 -41.5 322.5 7.0 174.5 25.5 L145.5 -144.5 Q183.0 -147.0 226.0 -154.5 268.5 -162.0 307.0 -175.5 345.5 -189.5 370.0 -210.5 394.5 -231.0 395.5 -260.5 395.5 -303.0 339.0 -323.5 282.5 -343.5 170.5 -346.5 L217.5 -727.0 Q247.0 -727.5 291.5 -728.5 336.0 -730.0 387.0 -731.5 438.0 -733.0 487.5 -735.0 537.5 -737.0 578.0 -738.5 618.5 -740.0 642.5 -741.5 L641.5 -556.5 370.0 -568.5" fill-rule="evenodd" stroke="none"/>
    </g>
    <g id="sprite3" transform="matrix(1.0, 0.0, 0.0, 1.0, 29.05, 29.25)">
      <clipPath id="clipPath1">
        <path d="M 40 0 L 40 40 L 0 40 L 0 0 Z M 18.75 -7.8 L -0.55 -7.7 L -6.5 -7.4 L -6.75 -7.35 L -7 -7.3 L -7.04 -7.4 L -7.07 -7.48 L -7.11 -7.52 L -7.14 -7.54 L -7.18 -7.52 L -7.22 -7.47 L -7.26 -7.38 L -7.3 -7.25 L -7.35 -7.1 L -8 -1.85 L -8 42.5 L -7.95 42.8 L -7.85 48.6 L 47.35 48.6 L 47.4 42.8 L 47.4 42.5 L 47.5 18.6 L 47.4 -0.7 L 47.36 -2.3 L 47.31 -3.69 L 47.25 -4.87 L 47.19 -5.83 L 47.12 -6.57 L 47.04 -7.11 L 47 -7.3 L 46.96 -7.43 L 46.92 -7.51 L 46.89 -7.53 L 46.87 -7.54 L 46.83 -7.51 L 46.79 -7.45 L 46.74 -7.35 L 46.7 -7.2 L 46.65 -7.3 L 46.5 -7.45 L 45 -7.55 L 44.9 -7.55 L 42.65 -7.7 L 18.75 -7.8 Z"/>
      </clipPath>
      <g clip-path="url(#clipPath1)">
        <use ffdec:characterId="937" height="49.05" transform="matrix(1.0, 0.0, 0.0, 1.0, -5.2, -5.05)" width="49.95" xlink:href="#shape3"/>
      </g>
    </g>
    <g id="shape3" transform="matrix(1.0, 0.0, 0.0, 1.0, 5.2, 5.05)">
      <path d="M18.85 -5.05 L40.4 -5.0 42.4 -4.85 42.5 -4.85 43.85 -4.75 44.0 -4.6 44.05 -4.55 Q44.5 -6.2 44.65 1.3 L44.75 18.7 44.65 40.2 44.5 42.2 Q44.4 43.75 44.05 43.75 L43.8 43.55 42.9 43.75 40.4 44.0 0.45 44.0 -3.55 43.55 -3.6 43.55 -4.6 43.75 -4.95 42.7 -5.2 40.2 -5.2 0.3 -4.6 -4.45 -4.55 -4.55 Q-4.45 -5.05 -4.3 -4.6 L-4.05 -4.65 -3.85 -4.7 1.5 -5.0 18.85 -5.05 M36.4 1.65 L36.8 1.25 41.65 -3.2 42.1 -3.6 41.7 -3.65 41.6 -3.85 40.4 -3.7 0.45 -3.7 -3.0 -4.1 2.5 0.85 3.3 1.65 1.8 1.65 1.8 2.6 1.8 1.65 3.3 1.65 3.6 1.95 2.0 1.95 2.0 2.8 1.8 2.6 0.3 1.1 -3.9 -4.2 -4.2 -4.3 -3.95 1.3 -3.85 18.7 -3.95 40.2 -4.05 42.2 -4.05 42.5 -4.0 42.3 -3.6 41.8 -1.65 39.65 1.8 36.1 1.8 37.95 2.0 37.95 1.8 37.95 1.8 36.1 2.0 35.9 2.0 37.95 2.6 37.95 -0.4 40.9 -2.75 42.9 1.5 42.7 18.85 42.65 40.4 42.7 42.4 42.85 42.5 42.85 42.4 42.8 39.65 40.55 37.05 37.95 38.0 37.95 38.15 37.95 38.15 36.45 38.15 37.95 38.0 37.95 38.0 36.35 38.15 36.45 40.9 39.3 42.85 41.45 43.6 42.45 43.4 40.2 43.4 0.3 43.85 -3.65 43.8 -3.65 42.95 -3.5 42.8 -3.3 39.0 1.45 38.15 2.3 38.15 1.65 36.4 1.65 38.15 1.65 38.15 2.3 38.0 2.45 38.0 1.95 36.0 1.95 36.4 1.65" fill="#473a29" fill-rule="evenodd" stroke="none"/>
      <path d="M3.3 1.65 L2.5 0.85 -3.0 -4.1 0.45 -3.7 40.4 -3.7 41.6 -3.85 41.7 -3.65 42.1 -3.6 41.65 -3.2 36.8 1.25 36.4 1.65 3.3 1.65 36.4 1.65 36.0 1.95 3.6 1.95 3.3 1.65 M1.8 36.1 L-1.65 39.65 -3.6 41.8 -4.0 42.3 -4.05 42.2 -3.95 40.2 -3.85 18.7 -3.95 1.3 -4.2 -4.3 -3.9 -4.2 0.3 1.1 1.8 2.6 2.0 2.8 2.0 35.9 1.8 36.1 1.8 35.0 1.8 33.05 1.8 2.6 1.8 33.05 1.8 35.0 1.8 36.1" fill="#bfaf91" fill-rule="evenodd" stroke="none"/>
      <path d="M38.15 2.3 L39.0 1.45 42.8 -3.3 42.95 -3.5 43.8 -3.65 43.85 -3.65 43.4 0.3 43.4 40.2 43.6 42.45 42.85 41.45 40.9 39.3 38.15 36.45 38.15 2.3 38.15 36.45 38.0 36.35 38.0 2.45 38.15 2.3 M37.05 37.95 L39.65 40.55 42.4 42.8 42.4 42.85 40.4 42.7 18.85 42.65 1.5 42.7 -2.75 42.9 -0.4 40.9 2.6 37.95 26.5 37.95 Q27.1 37.75 27.6 37.95 L37.05 37.95" fill="#6c5b3e" fill-rule="evenodd" stroke="none"/>
      <path d="M3.3 1.65 L36.4 1.65 38.15 1.65 38.15 2.3 38.15 36.45 38.15 37.95 38.0 37.95 37.05 37.95 27.6 37.95 Q27.1 37.75 26.5 37.95 L2.6 37.95 2.0 37.95 1.8 37.95 1.8 36.1 1.8 35.0 1.8 33.05 1.8 2.6 1.8 1.65 3.3 1.65 Z" fill="none" stroke="#473a29" stroke-linecap="round" stroke-linejoin="round" stroke-opacity="0.49019608" stroke-width="1.0"/>
    </g>
    <g id="sprite4" transform="matrix(1.0, 0.0, 0.0, 1.0, 0.0, 48.5)">
      <use ffdec:characterId="949" height="340.0" transform="matrix(0.2505, 0.0, 0.0, 0.1427, 0.0114, -48.4851)" width="192.0" xlink:href="#shape4"/>
    </g>
    <g id="shape4" transform="matrix(1.0, 0.0, 0.0, 1.0, 2.15, 3.05)">
      <path d="M189.85 -3.05 L189.85 336.95 -2.15 336.95 -2.15 -3.05 189.85 -3.05" fill="#000000" fill-opacity="0.29803923" fill-rule="evenodd" stroke="none"/>
    </g>
    <g id="sprite5" transform="matrix(1.0, 0.0, 0.0, 1.0, 0.0, 48.5)">
      <use ffdec:characterId="949" height="340.0" transform="matrix(0.2505, 0.0, 0.0, 0.1427, 0.0114, -48.4851)" width="192.0" xlink:href="#shape5"/>
    </g>
    <g id="shape5" transform="matrix(1.0, 0.0, 0.0, 1.0, 2.15, 3.05)">
      <path d="M189.85 -3.05 L189.85 336.95 -2.15 336.95 -2.15 -3.05 189.85 -3.05" fill="#000000" fill-opacity="0.49803922" fill-rule="evenodd" stroke="none"/>
    </g>
    <g id="sprite6" transform="matrix(1.0, 0.0, 0.0, 1.0, 64.35, 49.9)">
      <use ffdec:characterId="58" height="400.0" transform="matrix(0.1796, 0.0, 0.0, 0.1248, -62.85, -49.9)" width="700.0" xlink:href="#shape6"/>
      <use ffdec:characterId="951" height="18.1" id="txt_name" transform="matrix(1.0, 0.0, 0.0, 1.0, -63.85, -49.05)" width="129.05" xlink:href="#text2"/>
      <use ffdec:characterId="952" height="35.25" id="txt_desc" transform="matrix(1.0, 0.0, 0.0, 1.0, -64.35, -35.05)" width="129.05" xlink:href="#text3"/>
    </g>
    <g id="shape6" transform="matrix(1.0, 0.0, 0.0, 1.0, 0.0, 0.0)">
      <path d="M700.0 400.0 L0.0 400.0 0.0 0.0 700.0 0.0 700.0 400.0" fill="#000000" fill-opacity="0.49803922" fill-rule="evenodd" stroke="none"/>
    </g>
    <g id="text2" transform="matrix(1.0, 0.0, 0.0, 1.0, -51.35, 2.0)">
      <g transform="matrix(1.0, 0.0, 0.0, 1.0, 51.35, -2.0)">
        <use fill="#ffffff" height="18.1" transform="matrix(0.0117, 0.0, 0.0, 0.0117, 45.95, 13.05)" width="129.05" xlink:href="#font_Lithos_Pro_Regular_N0"/>
        <use fill="#ffffff" height="18.1" transform="matrix(0.0117, 0.0, 0.0, 0.0117, 56.95, 13.05)" width="129.05" xlink:href="#font_Lithos_Pro_Regular_a0"/>
        <use fill="#ffffff" height="18.1" transform="matrix(0.0117, 0.0, 0.0, 0.0117, 65.45, 13.05)" width="129.05" xlink:href="#font_Lithos_Pro_Regular_m0"/>
        <use fill="#ffffff" height="18.1" transform="matrix(0.0117, 0.0, 0.0, 0.0117, 76.75, 13.05)" width="129.05" xlink:href="#font_Lithos_Pro_Regular_e0"/>
      </g>
    </g>
    <g id="font_Lithos_Pro_Regular_N0">
      <path d="M216.5 7.5 L120.0 0.0 Q121.5 -20.5 124.5 -75.5 127.0 -130.5 131.0 -207.0 135.0 -283.5 139.0 -368.0 143.0 -452.5 147.0 -531.5 151.0 -610.5 153.5 -670.5 156.5 -730.5 158.0 -758.0 L160.0 -758.0 Q168.0 -748.5 209.0 -705.5 249.5 -663.0 309.5 -600.0 370.0 -537.0 437.0 -467.5 503.5 -398.0 564.0 -335.0 624.5 -272.0 666.0 -229.5 707.5 -186.5 716.5 -177.0 716.5 -185.5 717.0 -225.0 717.5 -265.0 718.0 -323.5 719.0 -382.5 720.0 -447.5 720.5 -513.0 721.5 -572.0 722.5 -631.5 723.0 -672.0 723.5 -712.5 724.0 -722.0 L819.0 -716.5 Q818.0 -697.0 815.0 -641.0 812.5 -585.0 808.5 -504.5 805.0 -424.0 801.5 -332.0 798.0 -240.0 795.5 -148.5 792.5 -57.0 791.5 21.5 L789.5 21.5 Q781.5 13.5 739.5 -29.5 697.0 -72.5 635.0 -136.5 572.5 -200.5 504.0 -271.5 435.0 -342.5 373.5 -406.5 312.0 -470.0 271.5 -513.0 231.5 -555.5 225.5 -563.0 L223.5 -563.0 Q223.5 -553.0 223.0 -511.0 222.5 -468.5 221.5 -407.0 220.5 -345.0 219.5 -277.0 218.5 -209.0 217.5 -147.5 217.0 -86.0 216.5 -44.0 216.0 -2.0 216.5 7.5" fill-rule="evenodd" stroke="none"/>
    </g>
    <g id="font_Lithos_Pro_Regular_a0">
      <path d="M226.5 -255.0 L476.5 -265.0 Q473.0 -271.5 460.0 -295.0 447.5 -318.5 430.0 -350.5 412.5 -382.5 395.0 -414.0 378.0 -445.5 365.0 -468.0 352.5 -490.5 349.5 -495.5 345.0 -488.5 332.5 -464.0 319.5 -439.5 303.0 -406.0 286.0 -373.0 269.5 -340.0 253.0 -307.0 241.0 -283.5 229.5 -260.0 226.5 -255.0 M93.5 18.5 L14.5 -26.5 Q27.5 -49.5 55.0 -100.0 83.0 -150.5 119.0 -216.5 155.0 -283.0 193.5 -353.0 231.5 -423.5 265.0 -485.0 299.0 -547.0 322.0 -589.0 345.0 -630.5 350.5 -640.0 L352.5 -640.0 Q376.5 -601.5 414.5 -538.0 452.0 -474.0 496.0 -399.0 540.0 -323.5 582.5 -250.0 625.5 -176.5 660.0 -119.0 694.0 -61.0 713.0 -32.5 L630.0 17.5 Q623.0 4.0 605.5 -28.5 587.5 -61.0 566.5 -99.0 545.5 -137.0 529.0 -166.5 512.0 -196.0 508.0 -202.5 L191.5 -190.5 Q186.5 -179.0 173.0 -150.5 159.5 -121.5 143.5 -86.5 127.0 -52.0 113.0 -23.0 99.0 6.5 93.5 18.5" fill-rule="evenodd" stroke="none"/>
    </g>
    <g id="font_Lithos_Pro_Regular_m0">
      <path d="M115.0 22.5 L31.0 -4.0 Q35.5 -14.5 51.5 -61.5 68.0 -108.0 91.0 -176.5 114.5 -245.0 140.0 -320.0 165.0 -395.0 187.5 -462.0 210.0 -529.0 224.5 -573.0 239.0 -617.5 241.0 -624.0 L245.0 -624.0 Q254.0 -606.5 276.0 -563.5 298.5 -521.0 327.5 -465.5 356.5 -410.5 385.5 -355.5 414.5 -300.5 437.0 -259.0 459.5 -217.0 468.0 -201.0 477.5 -216.5 502.5 -258.5 527.5 -300.0 560.0 -354.0 592.0 -408.0 623.5 -460.5 655.0 -513.0 677.5 -550.5 700.0 -588.0 705.5 -597.5 L708.5 -597.5 Q716.0 -579.0 732.5 -535.5 749.0 -492.5 771.5 -434.0 793.5 -375.5 818.0 -311.5 842.5 -247.5 865.5 -187.0 889.0 -127.0 907.0 -80.0 925.0 -33.0 935.0 -9.5 L850.0 22.5 Q843.0 1.5 826.0 -47.0 809.5 -95.5 787.5 -156.5 766.0 -218.0 745.0 -277.0 724.0 -336.5 708.5 -379.5 693.5 -422.0 689.5 -433.5 680.0 -418.0 657.5 -381.5 635.5 -345.5 606.5 -298.0 577.5 -250.5 548.0 -202.0 518.5 -153.5 494.5 -114.5 470.5 -75.5 458.0 -55.5 L456.0 -55.5 Q436.0 -93.0 408.0 -144.5 380.5 -196.5 351.0 -252.5 321.5 -308.0 295.5 -356.5 270.0 -405.0 254.0 -435.5 250.0 -421.0 239.0 -385.0 228.0 -349.0 213.0 -300.0 198.0 -251.5 182.0 -199.0 166.0 -146.5 151.5 -99.0 137.0 -52.0 127.5 -19.5 117.5 13.5 115.0 22.5" fill-rule="evenodd" stroke="none"/>
    </g>
    <g id="font_Lithos_Pro_Regular_e0">
      <path d="M458.5 -68.5 L461.5 9.5 Q451.5 9.5 417.0 8.5 383.0 7.5 337.5 6.0 292.0 5.0 247.0 3.5 202.0 2.0 170.5 1.0 138.5 0.0 132.0 0.0 133.0 -18.5 133.5 -56.0 134.5 -93.5 134.5 -136.0 135.0 -178.0 135.0 -211.0 135.0 -244.0 135.0 -252.5 L135.0 -368.5 Q135.0 -373.5 135.0 -397.5 134.5 -421.5 134.0 -454.5 134.0 -488.0 133.5 -521.5 133.0 -555.0 132.5 -579.5 132.5 -603.5 132.0 -609.5 139.5 -609.5 168.5 -611.0 197.5 -612.0 238.0 -614.5 278.5 -616.5 320.0 -618.5 362.0 -621.0 395.0 -623.0 428.5 -625.0 443.0 -626.0 L447.0 -552.0 Q431.0 -552.0 397.5 -551.5 364.0 -551.0 326.5 -550.0 288.5 -549.0 259.5 -548.5 231.0 -548.0 224.0 -548.0 L224.0 -334.5 Q231.0 -334.5 253.5 -335.0 276.0 -336.0 305.5 -337.0 335.5 -338.5 365.0 -340.0 394.5 -342.0 416.5 -343.5 L419.5 -269.0 Q407.0 -269.0 378.5 -269.5 350.5 -270.0 317.0 -271.0 284.5 -271.0 258.5 -271.5 232.5 -272.0 224.0 -272.0 L224.0 -65.5 Q233.0 -65.5 258.0 -65.0 283.0 -65.0 317.0 -65.0 351.5 -65.0 388.5 -66.0 425.5 -66.5 458.5 -68.5" fill-rule="evenodd" stroke="none"/>
    </g>
    <g id="text3" transform="matrix(1.0, 0.0, 0.0, 1.0, -51.35, 2.0)">
      <g transform="matrix(1.0, 0.0, 0.0, 1.0, 51.35, -2.0)">
        <use fill="#ffffff" height="35.25" transform="matrix(0.0098, 0.0, 0.0, 0.0098, 49.05, 7.2)" width="129.05" xlink:href="#font_Lithos_Pro_Regular_N0"/>
        <use fill="#ffffff" height="35.25" transform="matrix(0.0098, 0.0, 0.0, 0.0098, 58.2, 7.2)" width="129.05" xlink:href="#font_Lithos_Pro_Regular_a0"/>
        <use fill="#ffffff" height="35.25" transform="matrix(0.0098, 0.0, 0.0, 0.0098, 65.3, 7.2)" width="129.05" xlink:href="#font_Lithos_Pro_Regular_m0"/>
        <use fill="#ffffff" height="35.25" transform="matrix(0.0098, 0.0, 0.0, 0.0098, 74.7, 7.2)" width="129.05" xlink:href="#font_Lithos_Pro_Regular_e0"/>
      </g>
      <g transform="matrix(1.0, 0.0, 0.0, 1.0, 51.35, -2.0)">
        <use fill="#ffffff" height="35.25" transform="matrix(0.0098, 0.0, 0.0, 0.0098, 46.0, 16.95)" width="129.05" xlink:href="#font_Lithos_Pro_Regular_k0"/>
        <use fill="#ffffff" height="35.25" transform="matrix(0.0098, 0.0, 0.0, 0.0098, 52.6, 16.95)" width="129.05" xlink:href="#font_Lithos_Pro_Regular_j0"/>
        <use fill="#ffffff" height="35.25" transform="matrix(0.0098, 0.0, 0.0, 0.0098, 56.25, 16.95)" width="129.05" xlink:href="#font_Lithos_Pro_Regular_h0"/>
        <use fill="#ffffff" height="35.25" transform="matrix(0.0098, 0.0, 0.0, 0.0098, 64.5, 16.95)" width="129.05" xlink:href="#font_Lithos_Pro_Regular_k0"/>
        <use fill="#ffffff" height="35.25" transform="matrix(0.0098, 0.0, 0.0, 0.0098, 71.1, 16.95)" width="129.05" xlink:href="#font_Lithos_Pro_Regular_j0"/>
        <use fill="#ffffff" height="35.25" transform="matrix(0.0098, 0.0, 0.0, 0.0098, 74.75, 16.95)" width="129.05" xlink:href="#font_Lithos_Pro_Regular_h0"/>
      </g>
      <g transform="matrix(1.0, 0.0, 0.0, 1.0, 51.35, -2.0)">
        <use fill="#ffffff" height="35.25" transform="matrix(0.0098, 0.0, 0.0, 0.0098, 46.0, 26.7)" width="129.05" xlink:href="#font_Lithos_Pro_Regular_k0"/>
        <use fill="#ffffff" height="35.25" transform="matrix(0.0098, 0.0, 0.0, 0.0098, 52.6, 26.7)" width="129.05" xlink:href="#font_Lithos_Pro_Regular_j0"/>
        <use fill="#ffffff" height="35.25" transform="matrix(0.0098, 0.0, 0.0, 0.0098, 56.25, 26.7)" width="129.05" xlink:href="#font_Lithos_Pro_Regular_h0"/>
        <use fill="#ffffff" height="35.25" transform="matrix(0.0098, 0.0, 0.0, 0.0098, 64.5, 26.7)" width="129.05" xlink:href="#font_Lithos_Pro_Regular_k0"/>
        <use fill="#ffffff" height="35.25" transform="matrix(0.0098, 0.0, 0.0, 0.0098, 71.1, 26.7)" width="129.05" xlink:href="#font_Lithos_Pro_Regular_j0"/>
        <use fill="#ffffff" height="35.25" transform="matrix(0.0098, 0.0, 0.0, 0.0098, 74.75, 26.7)" width="129.05" xlink:href="#font_Lithos_Pro_Regular_h0"/>
      </g>
    </g>
    <g id="font_Lithos_Pro_Regular_k0">
      <path d="M621.5 -61.5 L558.0 8.5 Q553.5 4.0 523.0 -26.5 493.0 -56.5 449.0 -100.5 405.0 -144.0 359.5 -189.5 314.0 -235.5 278.5 -271.0 243.0 -306.5 230.0 -320.5 235.5 -326.0 265.5 -353.5 295.5 -381.5 337.5 -421.0 379.5 -460.5 421.5 -500.5 464.0 -540.5 495.0 -569.5 526.0 -599.0 533.0 -606.5 L587.5 -540.0 Q572.5 -528.5 540.0 -501.0 507.0 -473.5 467.0 -440.0 427.0 -406.0 392.0 -375.5 356.5 -345.0 336.5 -327.0 346.0 -316.0 373.5 -289.5 401.5 -262.5 438.5 -228.0 476.0 -193.5 513.5 -159.0 551.0 -124.5 580.5 -98.0 609.5 -72.0 621.5 -61.5 M228.0 9.5 L130.0 9.5 Q130.5 -1.0 131.5 -30.0 132.5 -59.0 133.0 -99.0 134.0 -139.5 134.5 -182.5 135.0 -225.5 135.0 -263.0 L135.0 -355.5 Q135.0 -385.0 134.0 -426.0 133.5 -466.5 132.5 -508.0 131.5 -549.5 130.5 -580.0 130.0 -610.5 130.0 -619.0 L228.0 -619.0 Q227.5 -612.5 227.0 -583.5 226.0 -554.5 225.0 -514.5 224.5 -474.0 223.5 -433.5 223.0 -393.0 223.0 -363.5 L223.0 -270.5 Q223.0 -244.0 223.5 -200.5 224.0 -157.5 225.0 -111.5 225.5 -66.0 226.5 -32.0 227.5 1.5 228.0 9.5" fill-rule="evenodd" stroke="none"/>
    </g>
    <g id="font_Lithos_Pro_Regular_j0">
      <path d="M258.0 -400.5 L258.0 -264.5 Q257.0 -170.0 230.5 -104.5 204.0 -39.5 161.5 1.0 119.0 41.5 70.5 61.5 L25.5 -7.5 Q70.0 -25.5 102.0 -57.0 134.0 -88.5 151.5 -139.5 169.0 -190.5 169.0 -266.5 L169.0 -402.5 Q169.0 -409.0 168.5 -438.0 168.0 -467.0 167.5 -503.5 166.5 -540.5 166.0 -570.5 165.5 -600.5 165.0 -609.5 L263.0 -609.5 Q262.0 -601.0 261.0 -571.5 259.5 -542.0 259.0 -497.5 258.0 -453.5 258.0 -400.5" fill-rule="evenodd" stroke="none"/>
    </g>
    <g id="font_Lithos_Pro_Regular_h0">
      <path d="M228.0 0.0 L132.0 0.0 Q132.5 -12.0 133.0 -40.0 133.5 -67.5 134.0 -103.0 134.5 -138.0 134.5 -172.0 135.0 -206.5 135.0 -231.5 135.0 -256.5 135.0 -264.0 L135.0 -358.0 Q135.0 -363.0 134.5 -388.0 134.5 -412.5 134.0 -447.0 133.5 -481.5 132.5 -516.5 132.0 -551.5 131.0 -577.0 130.5 -602.5 130.0 -609.5 L229.0 -609.5 Q228.5 -604.0 228.0 -583.0 227.0 -562.5 226.5 -533.5 225.5 -504.5 225.0 -476.0 224.5 -447.0 224.5 -426.0 224.0 -405.0 224.0 -400.0 L224.0 -336.5 618.5 -352.5 618.5 -418.5 Q618.5 -425.0 618.0 -451.5 618.0 -478.5 617.5 -512.0 617.0 -546.0 616.5 -573.5 616.0 -601.0 615.5 -609.5 L714.5 -609.5 Q714.0 -602.5 713.0 -574.5 712.0 -547.0 711.0 -509.0 710.5 -471.0 709.5 -432.5 708.5 -394.5 708.0 -367.0 707.5 -339.0 707.5 -332.0 L707.5 -245.5 Q707.5 -241.5 707.5 -217.0 708.0 -193.0 708.5 -159.0 708.5 -124.5 709.0 -90.0 710.0 -56.0 710.5 -31.0 711.0 -6.0 711.5 0.0 L613.5 0.0 Q614.5 -12.0 615.5 -41.5 616.5 -71.0 617.0 -105.0 618.0 -139.5 618.0 -166.5 618.5 -193.5 618.5 -200.5 L618.5 -288.5 224.0 -272.0 224.0 -219.0 Q224.0 -203.5 224.5 -171.0 225.0 -139.0 225.5 -102.5 226.5 -66.0 227.0 -37.5 227.5 -8.5 228.0 0.0" fill-rule="evenodd" stroke="none"/>
    </g>
  </defs>
</svg>
