<?xml version="1.0" encoding="UTF-8" standalone="no"?>
<svg xmlns:ffdec="https://www.free-decompiler.com/flash" xmlns:xlink="http://www.w3.org/1999/xlink" ffdec:objectType="frame" height="135.65px" width="129.65px" xmlns="http://www.w3.org/2000/svg">
  <g transform="matrix(1.0, 0.0, 0.0, 1.0, 45.0, 57.4)">
    <use ffdec:characterId="933" height="47.45" id="bgcolor" transform="matrix(1.0, 0.0, 0.0, 1.0, -4.2, -3.9)" width="47.45" xlink:href="#sprite0"/>
    <use ffdec:characterId="921" height="22.0" id="hitbox" transform="matrix(2.2297, 0.0, 0.0, 2.1749, -4.55, -4.25)" width="22.0" xlink:href="#sprite1"/>
    <clipPath id="clipPath0" transform="matrix(1.0, 0.0, 0.0, 1.0, 0.0, 0.0)">
      <path d="M40.0 0.0 L40.0 40.0 0.0 40.0 0.0 0.0 40.0 0.0" fill="#cccccc" fill-rule="evenodd" stroke="none"/>
    </clipPath>
    <g clip-path="url(#clipPath0)">
      <filter id="filter0">
        <feColorMatrix in="SourceGraphic" result="filterResult0" type="matrix" values="0 0 0 0 0.3019608,0 0 0 0 0.69411767,0 0 0 0 0.99215686,0 0 0 1 0"/>
        <feConvolveMatrix divisor="25.0" in="filterResult0" kernelMatrix="1 1 1 1 1 1 1 1 1 1 1 1 1 1 1 1 1 1 1 1 1 1 1 1 1" order="5 5" result="filterResult1"/>
        <feComposite in="SourceGraphic" in2="filterResult1" operator="over" result="filterResult2"/>
      </filter>
      <use ffdec:characterId="383" filter="url(#filter0)" height="149.95" id="MC" transform="matrix(0.3013, 0.0, 0.0, 0.3013, -2.8435, -2.4892)" width="197.6" xlink:href="#sprite2"/>
    </g>
    <filter id="filter1">
      <feColorMatrix in="SourceGraphic" result="filterResult3" type="matrix" values="0 0 0 0 0.0,0 0 0 0 0.0,0 0 0 0 0.0,0 0 0 1 0"/>
      <feConvolveMatrix divisor="4.0" in="filterResult3" kernelMatrix="1 1 1 1" order="2 2" result="filterResult4"/>
      <feComposite in="SourceGraphic" in2="filterResult4" operator="over" result="filterResult5"/>
    </filter>
    <use ffdec:characterId="935" filter="url(#filter1)" height="15.75" id="txt_hotkey" transform="matrix(1.0, 0.0, 0.0, 1.0, -3.85, -0.1)" width="18.0" xlink:href="#text0"/>
    <use ffdec:characterId="948" ffdec:characterName="Army_fla.Hud_BgButton_151" height="97.6" id="bg" transform="matrix(1.0, 0.0, 0.0, 1.0, -29.05, -29.25)" width="97.6" xlink:href="#sprite3"/>
    <use ffdec:characterId="950" ffdec:characterName="Army_fla.Hud_cooldown_152" height="48.5" id="cdcover" transform="matrix(0.9979, 0.0, 0.0, 0.9897, -4.2, -3.9997)" width="48.1" xlink:href="#sprite4"/>
    <use ffdec:characterId="950" ffdec:characterName="Army_fla.Hud_cooldown_152" height="48.5" id="cd" transform="matrix(0.9979, 0.0, 0.0, 0.9897, -4.2, -3.9997)" width="48.1" xlink:href="#sprite4"/>
    <use ffdec:characterId="953" ffdec:characterName="Army_fla.Hud_Description_153" height="50.1" id="desc" transform="matrix(1.0, 0.0, 0.0, 1.0, -44.9, -57.4)" width="129.55" xlink:href="#sprite5"/>
  </g>
  <defs>
    <g id="sprite0" transform="matrix(1.0, 0.0, 0.0, 1.0, 0.0, 0.0)">
      <use ffdec:characterId="932" height="47.45" transform="matrix(1.0, 0.0, 0.0, 1.0, 0.0, 0.0)" width="47.45" xlink:href="#shape0"/>
    </g>
    <g id="shape0" transform="matrix(1.0, 0.0, 0.0, 1.0, 0.0, 0.0)">
      <path d="M47.45 0.0 L47.45 47.45 0.0 47.45 0.0 0.0 47.45 0.0" fill="#564732" fill-rule="evenodd" stroke="none"/>
    </g>
    <g id="sprite1" transform="matrix(1.0, 0.0, 0.0, 1.0, 0.0, 0.0)">
      <use ffdec:characterId="145" height="22.0" transform="matrix(1.0, 0.0, 0.0, 1.0, 0.0, 0.0)" width="22.0" xlink:href="#shape1"/>
    </g>
    <g id="shape1" transform="matrix(1.0, 0.0, 0.0, 1.0, 0.0, 0.0)">
      <path d="M22.0 0.0 L22.0 22.0 0.0 22.0 0.0 0.0 22.0 0.0" fill="#00ff00" fill-opacity="0.0" fill-rule="evenodd" stroke="none"/>
    </g>
    <g id="sprite2" transform="matrix(1.0, 0.0, 0.0, 1.0, 84.45, 143.35)">
      <use ffdec:characterId="237" height="88.25" transform="matrix(0.9983, 0.0267, -0.0267, 0.9983, -70.3454, -108.7049)" width="88.5" xlink:href="#shape3"/>
      <use ffdec:characterId="238" height="34.0" transform="matrix(1.0, 0.0, 0.0, 1.0, -21.5, -34.05)" width="46.45" xlink:href="#shape4"/>
      <use ffdec:characterId="380" height="74.2" transform="matrix(1.0, 0.0, 0.0, 1.0, -22.1, -92.0)" width="79.1" xlink:href="#shape5"/>
      <use ffdec:characterId="240" height="75.85" transform="matrix(0.9936, 0.1093, -0.1093, 0.9936, -21.3374, -138.201)" width="69.4" xlink:href="#shape6"/>
      <use ffdec:characterId="241" height="79.75" transform="matrix(0.1108, 0.9921, -0.9921, 0.1108, 23.7825, -83.2672)" width="63.25" xlink:href="#shape7"/>
      <use ffdec:characterId="12" height="46.8" transform="matrix(0.8771, 0.4787, -0.4787, 0.8771, -23.0446, -84.9294)" width="25.3" xlink:href="#shape8"/>
    </g>
    <g id="shape3" transform="matrix(1.0, 0.0, 0.0, 1.0, 44.25, 44.1)">
      <path d="M-29.4 35.95 Q-30.75 34.75 -31.75 33.1 -33.25 30.65 -34.1 29.85 L-37.25 26.7 -38.9 24.95 -40.6 22.8 -41.1 21.65 Q-41.65 19.85 -41.65 16.65 -41.65 13.85 -41.2 12.05 -40.75 10.3 -39.15 6.9 L-37.05 4.1 -35.65 2.5 -35.55 2.4 -34.65 1.25 -33.85 -0.1 Q-33.2 -1.45 -33.15 -2.75 L-33.15 -2.8 -33.15 -2.9 Q-33.05 -9.05 -31.85 -12.9 -30.2 -18.35 -25.6 -23.15 -21.85 -27.1 -13.2 -32.35 L-5.75 -36.65 -1.1 -39.15 1.35 -39.9 6.35 -41.15 7.6 -41.35 9.6 -41.4 9.95 -41.35 Q12.6 -40.9 20.75 -38.4 L21.65 -38.15 Q30.4 -36.0 33.25 -34.9 35.75 -34.0 38.95 -30.9 L40.0 -29.85 36.1 -29.85 Q34.35 -31.7 33.25 -32.35 30.8 -33.75 28.7 -34.3 L24.75 -34.9 21.55 -35.65 19.6 -36.15 14.75 -37.4 Q11.6 -38.4 7.45 -37.85 L6.65 -37.45 2.65 -35.95 -4.1 -33.6 -7.8 -31.35 -11.95 -28.8 -12.6 -28.4 Q-18.05 -24.95 -21.15 -21.35 L-24.0 -17.25 -25.65 -14.15 Q-27.35 -10.8 -28.45 -6.8 -29.65 -2.45 -29.65 0.85 L-29.7 1.75 -29.8 2.9 -29.85 3.2 -30.15 4.6 -30.45 5.45 -31.75 6.8 -33.6 8.1 -34.2 8.9 -36.45 12.05 Q-36.65 12.6 -36.65 15.5 -36.65 17.3 -36.25 18.75 L-35.5 20.6 -35.45 20.65 -35.6 21.45 -33.5 23.05 -33.1 23.35 -31.8 24.5 Q-30.45 25.25 -29.3 26.15 L-29.45 33.4 -29.4 35.95 M41.6 -27.75 Q42.25 -26.7 42.25 -25.9 42.25 -21.3 35.75 -18.85 33.3 -17.9 31.65 -16.5 L30.65 -15.6 Q28.9 -13.75 28.75 -11.65 28.6 -9.15 27.1 -3.2 L26.35 0.15 26.2 1.05 Q25.75 3.35 25.75 4.85 L25.75 4.95 Q25.75 6.9 26.5 9.55 27.25 12.2 27.25 13.45 27.25 17.75 26.4 20.4 L22.9 28.1 Q20.5 33.1 18.15 34.85 L16.7 35.85 16.7 35.9 16.3 36.35 14.8 37.2 14.75 37.2 Q10.7 39.95 9.9 40.2 L-1.6 40.85 -2.25 40.85 -4.8 40.85 -16.65 40.35 -16.85 40.2 Q-17.95 39.55 -20.8 39.0 L-20.85 39.0 -21.6 38.85 -25.2 37.95 -27.55 37.15 -27.15 27.95 -27.05 28.05 Q-24.7 30.4 -24.7 32.05 L-23.65 32.65 -21.55 34.2 -17.3 34.7 -12.5 34.95 -6.0 35.2 -2.05 35.25 -0.2 35.2 0.3 35.2 0.35 35.2 6.05 35.8 6.35 36.0 6.45 35.95 13.8 34.45 15.15 33.15 16.9 30.85 17.5 29.85 19.45 26.8 Q21.4 23.9 21.65 22.6 22.35 19.2 22.65 14.5 22.9 10.2 22.75 6.55 L22.75 6.4 23.8 0.1 23.9 -0.65 24.75 -9.65 25.95 -14.05 Q26.6 -16.5 28.9 -17.65 L30.45 -18.4 35.7 -21.1 Q39.25 -23.3 39.25 -25.35 39.25 -26.0 37.95 -27.7 L41.6 -27.75 M-35.4 25.5 L-35.1 25.9 -34.95 26.05 -34.15 26.4 -34.75 25.9 -35.5 25.35 -35.4 25.5" fill="#766463" fill-rule="evenodd" stroke="none"/>
      <path d="M40.0 -29.85 L38.95 -30.9 Q35.75 -34.0 33.25 -34.9 30.4 -36.0 21.65 -38.15 L20.75 -38.4 Q12.6 -40.9 9.95 -41.35 L9.6 -41.4 7.6 -41.35 6.35 -41.15 1.35 -39.9 -1.1 -39.15 -5.75 -36.65 -13.2 -32.35 Q-21.85 -27.1 -25.6 -23.15 -30.2 -18.35 -31.85 -12.9 -33.05 -9.05 -33.15 -2.9 L-33.15 -2.8 -33.15 -2.75 Q-33.2 -1.45 -33.85 -0.1 L-34.65 1.25 -35.55 2.4 -35.65 2.5 -37.05 4.1 -39.15 6.9 Q-40.75 10.3 -41.2 12.05 -41.65 13.85 -41.65 16.65 -41.65 19.85 -41.1 21.65 L-40.6 22.8 -38.9 24.95 -37.25 26.7 -34.1 29.85 Q-33.25 30.65 -31.75 33.1 -30.75 34.75 -29.4 35.95 L-29.4 36.0 -28.95 36.4 -28.65 36.6 -27.55 37.15 -25.2 37.95 -21.6 38.85 -20.85 39.0 -20.8 39.0 Q-17.95 39.55 -16.85 40.2 L-16.65 40.35 -4.8 40.85 -2.25 40.85 -1.6 40.85 9.9 40.2 Q10.7 39.95 14.75 37.2 L14.8 37.2 16.3 36.35 16.7 35.9 16.7 35.85 18.15 34.85 Q20.5 33.1 22.9 28.1 L26.4 20.4 Q27.25 17.75 27.25 13.45 27.25 12.2 26.5 9.55 25.75 6.9 25.75 4.95 L25.75 4.85 Q25.75 3.35 26.2 1.05 L26.35 0.15 27.1 -3.2 Q28.6 -9.15 28.75 -11.65 28.9 -13.75 30.65 -15.6 L31.65 -16.5 Q33.3 -17.9 35.75 -18.85 42.25 -21.3 42.25 -25.9 42.25 -26.7 41.6 -27.75 L40.0 -29.85 M17.45 -41.85 L20.05 -41.35 Q24.1 -40.5 28.4 -39.05 44.25 -33.85 44.25 -26.05 44.25 -21.9 42.5 -19.8 41.25 -18.3 38.45 -17.25 34.75 -15.9 33.9 -15.4 32.65 -14.65 31.85 -13.5 31.5 -10.4 29.55 -3.8 L29.25 -2.8 28.45 1.35 28.25 2.35 Q28.7 3.6 28.55 5.3 L28.85 7.3 29.05 8.05 29.3 10.8 29.9 16.85 29.5 18.8 Q29.05 20.1 29.05 20.7 L26.35 26.55 23.05 32.85 20.45 35.8 18.65 37.25 17.95 37.75 Q17.25 39.25 14.75 40.5 12.7 41.5 9.65 42.15 5.85 43.9 3.1 44.15 L2.7 44.1 -7.25 43.25 -8.65 43.5 -11.8 42.9 -16.15 43.15 -16.85 43.0 -22.1 42.25 -27.25 40.05 -29.2 39.4 -32.75 36.75 Q-33.9 35.4 -34.2 34.1 L-34.3 33.75 -35.75 31.65 -37.2 30.4 -40.85 27.5 -43.3 24.35 Q-44.1 23.0 -44.1 21.45 L-44.0 20.65 -44.1 20.1 -43.95 18.4 -44.2 17.4 -44.25 15.35 -44.25 15.3 Q-43.8 14.2 -43.8 13.55 L-43.35 10.45 -43.2 9.6 -42.05 7.9 -41.15 5.65 Q-40.75 4.65 -39.5 3.4 -38.4 1.45 -36.85 -0.05 L-36.75 -1.45 -35.95 -9.55 Q-35.5 -12.6 -33.15 -16.4 L-31.5 -18.95 -30.1 -21.8 Q-28.5 -24.6 -26.45 -26.8 L-22.85 -29.2 Q-18.7 -32.2 -16.2 -34.65 L-15.8 -35.0 -12.45 -36.6 -5.85 -39.5 Q-4.0 -39.95 -0.55 -41.35 L1.7 -42.3 2.8 -42.75 2.85 -42.75 3.0 -42.85 4.95 -43.75 6.3 -44.05 Q13.45 -44.35 17.45 -41.85" fill="#000000" fill-rule="evenodd" stroke="none"/>
      <path d="M-29.3 26.15 Q-30.45 25.25 -31.8 24.5 L-33.1 23.35 -33.5 23.05 -35.6 21.45 -35.45 20.65 -35.5 20.6 -36.25 18.75 Q-36.65 17.3 -36.65 15.5 -36.65 12.6 -36.45 12.05 L-34.2 8.9 -33.6 8.1 -31.75 6.8 -30.45 5.45 -30.15 4.6 -29.85 3.2 -29.8 2.9 -29.7 1.75 -29.65 0.85 Q-29.65 -2.45 -28.45 -6.8 -27.35 -10.8 -25.65 -14.15 L-24.0 -17.25 -21.15 -21.35 Q-18.05 -24.95 -12.6 -28.4 L-11.95 -28.8 -7.8 -31.35 -4.1 -33.6 2.65 -35.95 6.65 -37.45 7.45 -37.85 Q11.6 -38.4 14.75 -37.4 L19.6 -36.15 21.55 -35.65 24.75 -34.9 28.7 -34.3 Q30.8 -33.75 33.25 -32.35 34.35 -31.7 36.1 -29.85 L14.05 -29.85 10.55 -28.8 10.55 -31.35 10.35 -32.1 8.35 -32.3 8.1 -32.1 8.05 -31.35 8.1 -28.05 2.65 -26.35 0.1 -25.4 0.0 -25.6 Q-1.05 -28.25 -2.95 -26.8 -2.85 -25.7 -2.05 -24.2 L-2.9 -23.35 -5.4 -19.35 -7.5 -19.1 Q-7.95 -19.0 -7.95 -18.45 L-7.8 -17.5 -7.65 -17.35 -6.7 -17.35 -8.65 -14.1 -11.3 -9.6 Q-13.1 -6.45 -13.45 -4.8 L-13.45 0.15 -15.75 2.0 Q-16.95 3.0 -16.95 4.65 -16.95 5.85 -15.65 7.45 -19.45 8.35 -20.65 10.0 L-22.2 12.95 -24.3 14.9 Q-25.05 13.9 -26.4 13.9 L-26.45 14.8 -25.9 16.25 Q-28.15 18.2 -28.45 19.4 L-28.95 22.2 -29.35 22.15 -32.45 22.2 -32.15 23.4 -29.25 24.2 -29.15 24.25 -29.3 26.15 M37.95 -27.7 Q39.25 -26.0 39.25 -25.35 39.25 -23.3 35.7 -21.1 L30.45 -18.4 28.9 -17.65 Q26.6 -16.5 25.95 -14.05 L24.75 -9.65 23.9 -0.65 23.8 0.1 22.75 6.4 22.75 6.55 Q22.9 10.2 22.65 14.5 22.35 19.2 21.65 22.6 21.4 23.9 19.45 26.8 L17.5 29.85 16.9 30.85 15.15 33.15 13.8 34.45 6.45 35.95 6.05 35.8 0.35 35.2 0.3 35.2 -0.2 35.2 -2.05 35.25 -6.0 35.2 -12.5 34.95 -17.3 34.7 -21.55 34.2 -23.65 32.65 -24.7 32.05 Q-24.7 30.4 -27.05 28.05 L-27.15 27.95 -27.0 24.65 -26.95 24.65 Q-25.6 24.65 -24.95 23.65 L-25.4 22.9 -26.9 22.55 -26.9 21.9 Q-26.85 20.15 -24.7 18.2 -23.35 20.15 -21.95 20.15 -20.7 20.15 -21.2 19.7 L-20.95 18.65 -22.6 17.05 -22.9 16.75 -20.9 14.9 Q-20.5 14.4 -20.0 12.45 -19.6 10.95 -18.7 10.7 L-15.4 9.85 -13.95 9.45 Q-13.45 9.1 -13.45 7.55 -13.45 6.85 -13.8 6.25 L-14.95 4.45 Q-13.5 2.95 -11.85 2.3 -10.95 1.9 -10.95 1.05 L-11.3 -2.65 Q-11.35 -5.15 -9.9 -7.1 -9.05 -8.25 -7.55 -11.25 L-5.45 -15.35 -4.5 -17.35 -2.4 -17.35 -2.1 -17.65 Q-1.95 -17.65 -1.95 -18.35 L-2.15 -19.2 -2.4 -19.35 -3.4 -19.35 -3.15 -19.8 -0.95 -22.25 0.55 -20.85 1.55 -21.85 0.9 -23.45 1.05 -23.55 4.35 -24.95 8.25 -25.9 Q8.55 -23.1 9.55 -21.85 10.05 -22.05 10.55 -22.35 L10.55 -26.25 11.05 -26.35 12.65 -27.0 14.1 -27.6 37.95 -27.7" fill="#544847" fill-rule="evenodd" stroke="none"/>
      <path d="M-29.4 35.95 L-29.45 33.4 -29.3 26.15 -29.15 24.25 -29.25 24.2 -32.15 23.4 -32.45 22.2 -29.35 22.15 -28.95 22.2 -28.45 19.4 Q-28.15 18.2 -25.9 16.25 L-26.45 14.8 -26.4 13.9 Q-25.05 13.9 -24.3 14.9 L-22.2 12.95 -20.65 10.0 Q-19.45 8.35 -15.65 7.45 -16.95 5.85 -16.95 4.65 -16.95 3.0 -15.75 2.0 L-13.45 0.15 -13.45 -4.8 Q-13.1 -6.45 -11.3 -9.6 L-8.65 -14.1 -6.7 -17.35 -7.65 -17.35 -7.8 -17.5 -7.95 -18.45 Q-7.95 -19.0 -7.5 -19.1 L-5.4 -19.35 -2.9 -23.35 -2.05 -24.2 Q-2.85 -25.7 -2.95 -26.8 -1.05 -28.25 0.0 -25.6 L0.1 -25.4 2.65 -26.35 8.1 -28.05 8.05 -31.35 8.1 -32.1 8.35 -32.3 10.35 -32.1 10.55 -31.35 10.55 -28.8 14.05 -29.85 36.1 -29.85 40.0 -29.85 41.6 -27.75 37.95 -27.7 14.1 -27.6 12.65 -27.0 11.05 -26.35 10.55 -26.25 10.55 -22.35 Q10.05 -22.05 9.55 -21.85 8.55 -23.1 8.25 -25.9 L4.35 -24.95 1.05 -23.55 0.9 -23.45 1.55 -21.85 0.55 -20.85 -0.95 -22.25 -3.15 -19.8 -3.4 -19.35 -2.4 -19.35 -2.15 -19.2 -1.95 -18.35 Q-1.95 -17.65 -2.1 -17.65 L-2.4 -17.35 -4.5 -17.35 -5.45 -15.35 -7.55 -11.25 Q-9.05 -8.25 -9.9 -7.1 -11.35 -5.15 -11.3 -2.65 L-10.95 1.05 Q-10.95 1.9 -11.85 2.3 -13.5 2.95 -14.95 4.45 L-13.8 6.25 Q-13.45 6.85 -13.45 7.55 -13.45 9.1 -13.95 9.45 L-15.4 9.85 -18.7 10.7 Q-19.6 10.95 -20.0 12.45 -20.5 14.4 -20.9 14.9 L-22.9 16.75 -22.6 17.05 -20.95 18.65 -21.2 19.7 Q-20.7 20.15 -21.95 20.15 -23.35 20.15 -24.7 18.2 -26.85 20.15 -26.9 21.9 L-26.9 22.55 -25.4 22.9 -24.95 23.65 Q-25.6 24.65 -26.95 24.65 L-27.0 24.65 -27.15 27.95 -27.55 37.15 -28.65 36.6 -28.95 36.4 -29.4 36.0 -29.4 35.95" fill="#332b2b" fill-rule="evenodd" stroke="none"/>
      <path d="M6.45 35.95 L6.35 36.0 6.05 35.8 6.45 35.95 M-35.4 25.5 L-35.5 25.35 -34.75 25.9 -34.15 26.4 -34.95 26.05 -35.1 25.9 -35.4 25.5" fill="#794d31" fill-rule="evenodd" stroke="none"/>
    </g>
    <g id="shape4" transform="matrix(1.0, 0.0, 0.0, 1.0, 29.45, 30.75)">
      <path d="M12.95 -26.5 Q12.9 -23.45 13.5 -20.7 13.9 -18.95 14.5 -17.65 14.4 -14.35 15.15 -10.65 16.0 -6.45 16.0 -4.15 L16.0 -2.5 16.2 -2.15 Q17.0 -0.8 17.0 0.1 L16.85 1.0 14.95 1.1 -1.0 1.75 Q-1.45 0.85 -2.25 0.25 L-2.1 0.1 -2.3 -0.65 -2.5 -2.2 Q-2.5 -7.45 -1.75 -12.35 L-2.0 -12.1 Q-3.15 -10.95 -10.25 -6.35 L-13.55 -3.65 Q-15.4 -2.4 -17.55 -2.05 -17.3 -0.3 -18.75 3.05 -19.45 3.55 -20.45 2.85 L-20.45 2.65 Q-22.7 1.9 -26.2 -0.7 -29.15 -3.65 -29.45 -8.95 -29.6 -12.5 -28.75 -14.35 L-28.7 -15.0 -28.6 -15.4 -28.85 -15.65 -28.6 -15.7 -28.15 -17.65 -26.9 -18.3 -26.3 -18.3 -24.75 -18.95 -22.7 -19.4 Q-19.2 -20.1 -17.0 -22.3 L-15.95 -22.65 Q-12.55 -25.45 -9.55 -26.65 -3.2 -29.1 1.3 -24.6 L1.55 -24.35 Q3.4 -28.25 5.9 -29.95 8.6 -31.75 10.8 -29.6 L12.95 -26.5 M9.0 -1.4 L10.65 -4.2 Q11.5 -5.55 13.6 -5.2 L13.5 -7.7 12.95 -11.05 Q12.55 -13.2 12.5 -14.45 L12.45 -16.6 11.75 -16.5 4.5 -15.45 4.45 -1.1 5.85 -1.1 9.0 -1.05 9.05 -1.05 9.35 -1.05 9.0 -1.4 M13.2 -2.85 L10.5 -1.05 14.0 -0.95 13.2 -2.85 M-12.4 -15.5 Q-13.25 -14.75 -18.35 -12.85 -23.95 -10.75 -26.75 -11.15 L-27.05 -9.25 Q-27.7 -5.3 -24.4 -1.9 L-24.15 -1.65 Q-23.2 -0.7 -20.4 0.9 -20.35 0.85 -20.25 0.95 L-20.2 0.4 Q-19.95 -1.05 -20.0 -1.9 L-21.65 -1.55 -24.15 -1.85 Q-24.25 -1.85 -24.35 -1.95 L-23.9 -2.7 -21.7 -4.1 Q-19.8 -4.7 -18.55 -3.65 L-18.0 -4.3 Q-17.55 -4.75 -16.05 -5.45 -14.7 -6.2 -14.2 -6.7 L-11.9 -8.3 Q-10.1 -9.5 -9.6 -10.0 L-7.65 -11.35 Q-9.0 -11.9 -10.45 -13.35 L-12.3 -15.4 -12.35 -15.55 -12.4 -15.5" fill="#000000" fill-rule="evenodd" stroke="none"/>
      <path d="M9.0 -1.05 L9.0 -1.4 9.05 -1.05 9.0 -1.05" fill="#5b6171" fill-rule="evenodd" stroke="none"/>
      <path d="M9.0 -1.05 L5.85 -1.1 4.45 -1.1 4.5 -15.45 11.75 -16.5 12.45 -16.6 12.5 -14.45 Q12.55 -13.2 12.95 -11.05 L13.5 -7.7 13.6 -5.2 Q11.5 -5.55 10.65 -4.2 L9.0 -1.4 9.0 -1.05 M-24.4 -1.9 Q-27.7 -5.3 -27.05 -9.25 L-26.75 -11.15 Q-23.95 -10.75 -18.35 -12.85 -13.25 -14.75 -12.4 -15.5 L-12.3 -15.4 -10.45 -13.35 Q-9.0 -11.9 -7.65 -11.35 L-9.6 -10.0 Q-10.1 -9.5 -11.9 -8.3 L-14.2 -6.7 Q-14.7 -6.2 -16.05 -5.45 -17.55 -4.75 -18.0 -4.3 L-18.55 -3.65 Q-19.8 -4.7 -21.7 -4.1 L-23.9 -2.7 -24.35 -1.95 -24.4 -1.9 M13.2 -2.85 L14.0 -0.95 10.5 -1.05 13.2 -2.85 M-24.15 -1.65 L-24.15 -1.85 -21.65 -1.55 -20.0 -1.9 Q-19.95 -1.05 -20.2 0.4 L-20.4 0.9 Q-23.2 -0.7 -24.15 -1.65" fill="#332d26" fill-rule="evenodd" stroke="none"/>
    </g>
    <g id="shape5" transform="matrix(1.0, 0.0, 0.0, 1.0, 23.0, 35.2)">
      <path d="M33.3 -22.35 L32.95 -24.75 Q31.85 -29.7 28.75 -31.4 26.75 -32.5 21.9 -32.5 13.25 -32.5 8.3 -26.55 L7.0 -24.75 Q6.0 -23.25 5.45 -21.7 L11.9 -20.8 15.9 -20.75 17.95 -20.3 20.55 -19.5 22.4 -18.15 23.25 -17.3 23.45 -17.35 Q24.55 -17.45 25.4 -15.95 L25.5 -15.8 26.4 -15.15 26.8 -14.75 26.75 -16.1 26.95 -17.85 27.0 -18.0 Q27.65 -19.85 29.15 -21.1 L29.9 -21.55 29.85 -21.65 30.5 -22.05 32.0 -22.5 32.05 -22.35 32.8 -22.25 32.8 -22.0 33.3 -22.05 33.3 -22.35 M6.8 -28.0 Q7.85 -29.3 10.3 -31.25 12.9 -33.3 14.4 -33.75 24.6 -36.95 30.45 -33.0 34.8 -30.1 35.35 -24.75 L35.4 -22.75 35.2 -22.15 34.95 -21.9 35.5 -21.75 37.5 -21.5 Q38.35 -20.3 39.15 -19.4 L40.75 -17.95 41.0 -17.05 Q42.25 -15.3 42.6 -12.15 L43.25 -7.0 43.15 -6.6 44.35 -5.75 Q47.45 -3.3 48.1 -1.5 L48.5 -1.3 49.5 -0.15 49.7 0.2 49.75 0.15 49.9 0.55 Q50.5 1.85 50.5 3.6 50.5 7.45 49.2 9.45 47.95 11.35 43.0 15.3 L38.0 15.3 38.05 15.45 Q35.3 15.2 33.5 12.25 31.85 11.65 29.35 9.25 28.35 9.05 27.2 7.85 L26.25 6.95 25.6 6.45 24.8 6.0 23.65 5.1 Q22.9 8.4 22.9 12.0 L22.9 13.65 22.9 13.75 22.9 13.9 23.2 15.05 Q23.05 15.85 20.65 16.35 L20.25 16.45 20.4 17.6 20.4 18.65 Q22.15 18.5 23.2 20.05 24.6 23.35 25.4 24.3 L28.8 28.35 29.75 30.1 Q30.95 30.45 31.8 32.0 32.5 33.4 32.5 34.55 L32.3 35.85 31.55 36.75 30.05 36.6 28.05 36.25 Q27.15 36.25 24.4 37.3 L21.5 38.5 19.3 38.5 Q19.15 38.1 19.3 37.4 L19.5 35.9 19.5 35.2 19.3 35.25 19.0 35.0 18.9 36.45 Q18.55 37.0 17.0 37.0 16.4 37.0 15.9 36.55 15.4 36.05 14.75 36.05 13.65 36.05 13.25 37.05 12.9 38.0 12.0 38.0 11.15 38.0 10.5 37.3 L9.85 36.55 Q5.85 38.5 5.0 38.5 L3.2 38.75 1.75 39.0 Q1.4 39.0 -0.15 37.45 L-2.0 35.75 Q-2.05 36.85 -3.45 37.95 -4.75 39.0 -5.75 39.0 L-7.5 38.75 -7.5 36.05 -9.5 35.8 -9.5 36.4 Q-9.5 39.0 -16.0 39.0 L-17.5 38.75 Q-17.5 36.8 -17.1 35.75 L-19.05 36.15 -21.75 36.5 -23.0 36.25 Q-23.0 34.9 -22.05 32.35 L-21.4 30.85 -21.3 30.55 -19.95 26.75 Q-19.4 24.75 -18.55 22.9 L-17.6 21.15 -17.6 19.9 -17.45 17.65 -17.4 17.6 Q-19.7 17.3 -20.35 16.55 -20.95 15.95 -20.6 14.75 L-20.6 14.4 -20.6 13.1 Q-20.6 1.65 -17.9 -6.45 -14.35 -17.3 -6.5 -19.95 L-6.25 -20.1 -5.85 -20.25 Q-2.5 -21.75 3.0 -21.75 3.25 -22.7 4.55 -24.75 L4.65 -24.95 6.8 -28.0 M2.3 -19.0 L2.15 -19.0 1.0 -19.0 -2.3 -18.75 -3.6 -18.55 Q-4.7 -18.3 -5.15 -17.85 L-5.4 -17.6 Q-6.3 -16.9 -7.45 -16.75 L-7.5 -16.75 Q-11.5 -14.55 -13.2 -10.95 L-16.55 -3.05 -14.6 -1.5 -12.75 0.3 Q-11.35 1.6 -10.1 1.8 L-10.0 -2.1 -9.75 -2.3 -8.75 -2.5 -4.4 0.45 Q0.0 3.5 1.0 3.75 0.5 3.05 0.5 1.8 L0.5 1.05 Q0.25 0.5 1.5 0.5 6.25 4.4 8.15 5.75 L11.0 2.75 14.5 -1.0 Q15.25 -0.15 15.45 1.05 L15.5 2.55 15.5 2.8 17.7 1.1 Q19.5 -0.5 19.75 -0.5 21.0 -0.5 21.0 1.0 21.7 0.8 22.2 -0.05 22.5 -0.5 23.05 -0.5 24.9 -5.0 24.9 -8.4 L24.95 -8.55 25.0 -8.85 25.05 -9.5 24.3 -11.1 23.8 -12.3 22.8 -14.8 22.6 -15.0 22.45 -15.15 22.35 -15.2 Q21.25 -16.05 19.75 -16.7 L19.15 -16.95 18.45 -17.2 17.15 -17.65 16.1 -17.9 16.05 -17.9 16.0 -17.95 Q15.1 -18.45 14.0 -18.35 L12.25 -17.9 8.4 -18.35 2.65 -18.95 2.3 -19.0 M40.7 -8.1 Q40.45 -12.15 39.45 -15.05 38.3 -18.55 36.4 -19.15 35.35 -19.95 33.5 -20.1 31.55 -20.25 30.5 -19.5 L30.4 -19.5 Q28.75 -19.05 28.75 -15.7 28.75 -13.35 31.75 -9.5 34.6 -5.75 36.0 -5.75 39.25 -5.75 39.25 -8.15 L40.25 -8.05 40.7 -8.05 40.7 -8.1 M28.75 -9.25 L28.2 -9.9 27.55 -6.9 27.0 -4.15 26.55 -2.5 26.05 -2.3 24.9 1.05 24.7 1.65 Q26.0 2.2 26.65 3.25 L27.2 3.95 Q28.35 4.35 29.0 5.3 L30.6 6.6 31.65 7.5 31.25 5.95 30.25 -3.9 30.3 -6.3 30.45 -7.25 28.75 -9.25 M38.95 -2.6 Q39.0 1.6 39.25 2.2 40.35 2.25 42.9 1.1 L46.25 -0.55 43.1 -3.4 40.8 -5.45 40.5 -4.95 Q39.95 -4.15 38.85 -3.8 L38.95 -2.6 M32.5 -5.15 L32.7 -3.25 32.75 2.5 Q32.75 3.55 33.35 5.6 L34.5 5.5 37.6 6.15 40.65 6.75 Q42.75 6.75 45.15 5.0 47.2 3.5 47.4 2.75 L47.7 1.2 Q47.15 1.9 45.75 2.85 43.6 4.3 42.5 4.3 L42.0 4.25 39.5 4.45 Q37.3 4.45 36.8 2.4 L36.75 -0.3 Q36.75 -1.5 36.15 -3.55 34.25 -3.75 32.5 -5.15 M56.1 -2.45 L55.9 -2.45 56.1 -2.55 56.1 -2.45 M50.1 -2.45 L50.2 -2.6 50.5 -2.45 50.1 -2.45 M47.65 5.55 Q44.8 9.0 40.9 9.0 36.2 9.0 35.2 8.0 34.6 7.4 33.8 7.1 L34.25 8.35 35.25 10.8 35.75 11.25 35.7 11.55 36.95 11.9 Q37.5 12.15 37.9 12.55 L39.7 12.25 43.4 12.25 44.3 11.55 46.8 8.85 48.05 6.45 48.5 4.5 47.65 5.55 M16.55 14.45 L16.55 14.5 17.2 14.4 17.45 14.4 18.9 14.25 20.55 13.75 20.95 13.45 20.9 11.6 20.95 9.85 21.45 5.0 21.7 3.6 19.0 5.5 Q18.2 5.5 18.05 4.95 L18.0 4.05 17.5 4.45 Q15.15 6.25 14.0 6.5 13.4 5.7 13.4 5.05 L13.5 3.55 10.5 6.05 10.35 7.95 Q10.15 8.5 9.0 8.5 L8.4 8.4 8.5 10.5 8.2 12.95 7.5 14.9 12.4 14.75 13.45 14.7 14.2 14.65 16.25 14.5 16.55 14.45 M25.65 33.55 L26.0 34.0 Q26.55 33.5 26.95 33.3 27.6 32.95 28.8 32.75 L28.25 31.55 27.5 31.45 26.55 29.95 Q24.8 26.8 24.3 26.5 L22.3 23.35 Q21.4 21.95 20.25 21.7 L18.9 21.75 18.6 21.65 17.9 21.75 17.6 21.75 17.0 21.8 13.2 21.9 -6.45 22.8 -11.3 23.1 -13.85 23.25 -15.85 23.05 -16.7 25.3 -18.1 29.05 -18.65 32.45 -18.65 32.5 -19.5 32.55 -19.75 32.6 -20.0 33.75 -20.1 33.8 -18.15 33.65 -16.75 33.5 -15.1 33.75 -15.0 36.0 -15.0 36.3 -14.95 36.3 -14.4 36.3 Q-11.75 36.2 -11.95 34.95 -12.2 33.5 -9.5 33.5 -5.6 33.5 -5.2 34.6 -4.95 35.25 -5.5 36.3 -3.7 35.05 -4.0 33.8 L-2.25 33.5 Q-0.65 33.5 -0.2 34.25 0.25 35.0 1.0 35.0 1.65 35.0 1.9 34.5 2.15 34.0 2.75 34.0 3.9 34.0 4.1 34.7 L4.55 36.05 Q5.95 35.9 8.2 34.7 L10.25 33.5 Q10.95 33.5 11.3 34.0 L11.8 35.0 Q13.0 34.2 14.05 34.2 L16.25 34.8 17.35 33.2 Q17.95 32.5 19.0 32.5 20.4 32.5 20.9 33.9 L21.55 35.8 23.3 35.25 22.8 34.75 Q22.5 34.4 22.5 33.65 L22.5 32.95 22.55 33.0 22.8 32.65 23.75 32.5 Q24.65 32.5 25.25 33.1 L25.65 33.55 M-5.6 15.3 L6.1 14.95 6.0 14.25 Q6.0 9.55 6.7 7.45 L5.9 6.9 3.5 5.0 2.0 7.0 Q-0.35 6.0 -3.45 4.15 L-5.0 3.2 -8.0 1.05 -8.1 4.05 -8.4 4.3 -9.5 4.5 Q-12.65 4.5 -16.85 -1.35 L-17.0 -1.55 -17.1 -1.2 Q-17.95 2.7 -18.1 8.5 L-18.1 14.95 -14.2 15.5 -13.6 15.5 -5.6 15.3 M16.6 16.6 Q16.1 16.7 15.85 17.0 6.85 17.75 -13.85 17.75 L-15.35 17.75 Q-15.3 19.05 -15.6 21.05 L-8.95 20.4 0.4 19.75 17.0 19.1 17.0 18.9 18.15 19.0 18.6 19.0 18.55 18.95 Q18.4 18.7 18.4 17.75 L18.6 16.55 16.6 16.6" fill="#000000" fill-rule="evenodd" stroke="none"/>
      <path d="M40.25 -8.05 L39.25 -8.15 Q39.25 -5.75 36.0 -5.75 34.6 -5.75 31.75 -9.5 28.75 -13.35 28.75 -15.7 28.75 -19.05 30.4 -19.5 L30.5 -19.5 Q31.55 -20.25 33.5 -20.1 35.35 -19.95 36.4 -19.15 38.3 -18.55 39.45 -15.05 40.45 -12.15 40.7 -8.1 L40.25 -8.05 M47.65 5.55 L48.5 4.5 48.05 6.45 46.8 8.85 44.3 11.55 43.4 12.25 39.7 12.25 37.9 12.55 Q37.5 12.15 36.95 11.9 L35.7 11.55 35.75 11.25 35.25 10.8 34.25 8.35 33.8 7.1 Q34.6 7.4 35.2 8.0 36.2 9.0 40.9 9.0 44.8 9.0 47.65 5.55" fill="#cdac98" fill-rule="evenodd" stroke="none"/>
      <path d="M2.65 -18.95 L8.4 -18.35 12.25 -17.9 14.0 -18.35 Q15.1 -18.45 16.0 -17.95 L16.05 -17.9 16.1 -17.9 17.15 -17.65 18.45 -17.2 19.15 -16.95 19.75 -16.7 Q21.25 -16.05 22.35 -15.2 L22.45 -15.15 22.6 -15.0 22.8 -14.8 23.8 -12.3 24.3 -11.1 25.05 -9.5 25.0 -8.85 24.95 -8.55 24.9 -8.4 Q24.9 -5.0 23.05 -0.5 22.5 -0.5 22.2 -0.05 21.7 0.8 21.0 1.0 21.0 -0.5 19.75 -0.5 19.5 -0.5 17.7 1.1 L15.5 2.8 15.5 2.55 15.45 1.05 Q15.25 -0.15 14.5 -1.0 L11.0 2.75 8.15 5.75 Q6.25 4.4 1.5 0.5 0.25 0.5 0.5 1.05 L0.5 1.8 Q0.5 3.05 1.0 3.75 0.0 3.5 -4.4 0.45 L-8.75 -2.5 -9.75 -2.3 -10.0 -2.1 -10.1 1.8 Q-11.35 1.6 -12.75 0.3 L-14.6 -1.5 -16.55 -3.05 -13.2 -10.95 Q-11.5 -14.55 -7.5 -16.75 L-7.45 -16.75 Q-6.3 -16.9 -5.4 -17.6 L-5.15 -17.85 Q-4.7 -18.3 -3.6 -18.55 L-2.3 -18.75 1.0 -19.0 2.15 -19.0 2.3 -19.0 2.5 -18.95 2.65 -18.95 M32.5 -5.15 Q34.25 -3.75 36.15 -3.55 36.75 -1.5 36.75 -0.3 L36.8 2.4 Q37.3 4.45 39.5 4.45 L42.0 4.25 42.5 4.3 Q43.6 4.3 45.75 2.85 47.15 1.9 47.7 1.2 L47.4 2.75 Q47.2 3.5 45.15 5.0 42.75 6.75 40.65 6.75 L37.6 6.15 34.5 5.5 33.35 5.6 Q32.75 3.55 32.75 2.5 L32.7 -3.25 32.5 -5.15 M16.6 16.6 L18.6 16.55 18.4 17.75 Q18.4 18.7 18.55 18.95 L18.6 19.0 18.15 19.0 17.0 18.9 17.0 19.1 0.4 19.75 -8.95 20.4 -15.6 21.05 Q-15.3 19.05 -15.35 17.75 L-13.85 17.75 Q6.85 17.75 15.85 17.0 16.1 16.7 16.6 16.6" fill="#332d26" fill-rule="evenodd" stroke="none"/>
      <path d="M32.8 -22.25 L32.05 -22.35 32.0 -22.5 30.5 -22.05 29.85 -21.65 29.9 -21.55 29.15 -21.1 Q27.65 -19.85 27.0 -18.0 L26.95 -17.85 26.75 -16.1 26.8 -14.75 26.4 -15.15 25.5 -15.8 25.4 -15.95 Q24.55 -17.45 23.45 -17.35 L23.25 -17.3 22.4 -18.15 20.55 -19.5 17.95 -20.3 15.9 -20.75 11.9 -20.8 5.45 -21.7 Q6.0 -23.25 7.0 -24.75 L8.3 -26.55 Q13.25 -32.5 21.9 -32.5 26.75 -32.5 28.75 -31.4 31.85 -29.7 32.95 -24.75 L33.3 -22.35 32.8 -22.25 M38.95 -2.6 L38.85 -3.8 Q39.95 -4.15 40.5 -4.95 L40.8 -5.45 43.1 -3.4 46.25 -0.55 42.9 1.1 Q40.35 2.25 39.25 2.2 39.0 1.6 38.95 -2.6" fill="#544847" fill-rule="evenodd" stroke="none"/>
      <path d="M17.5 4.45 L18.0 4.05 18.05 4.95 Q18.2 5.5 19.0 5.5 L21.7 3.6 21.45 5.0 20.95 9.85 20.9 11.6 20.95 13.45 20.55 13.75 18.9 14.25 17.45 14.4 17.2 14.4 16.55 14.5 16.55 14.45 16.5 13.65 17.3 6.2 17.5 4.45 M17.9 21.75 L18.6 21.65 18.9 21.75 20.25 21.7 Q21.4 21.95 22.3 23.35 L24.3 26.5 Q24.8 26.8 26.55 29.95 L27.5 31.45 28.25 31.55 28.8 32.75 Q27.6 32.95 26.95 33.3 26.55 33.5 26.0 34.0 L25.65 33.55 Q24.75 32.1 24.55 31.2 L23.1 31.15 21.45 28.4 17.7 21.85 17.9 21.75 M-14.4 36.3 L-14.95 36.3 -15.0 36.0 -15.1 33.75 -16.75 33.5 -18.15 33.65 -20.1 33.8 -20.0 33.75 -19.75 32.6 -19.5 32.55 -18.65 32.5 -18.65 32.45 -18.1 29.05 -16.7 25.3 -15.85 23.05 -13.85 23.25 -11.3 23.1 -11.55 24.5 Q-11.3 24.85 -11.3 25.55 L-11.4 26.7 -11.9 26.95 -12.15 27.1 -12.8 29.6 -13.0 30.4 -14.4 36.2 -14.4 36.3 M-5.0 3.2 L-5.0 5.35 -5.5 14.75 -5.6 15.3 -13.6 15.5 -14.2 15.5 -18.1 14.95 -18.1 8.5 Q-17.95 2.7 -17.1 -1.2 L-16.85 -1.35 Q-12.65 4.5 -9.5 4.5 L-8.4 4.3 -8.1 4.05 -8.0 1.05 -5.0 3.2" fill="#046193" fill-rule="evenodd" stroke="none"/>
      <path d="M28.75 -9.25 L30.45 -7.25 30.3 -6.3 30.25 -3.9 31.25 5.95 31.65 7.5 30.6 6.6 29.0 5.3 Q28.35 4.35 27.2 3.95 L26.65 3.25 Q26.0 2.2 24.7 1.65 L24.9 1.05 26.05 -2.3 26.55 -2.5 27.0 -4.15 27.55 -6.9 28.2 -9.9 28.75 -9.25 M16.55 14.45 L16.25 14.5 14.2 14.65 13.45 14.7 12.4 14.75 7.5 14.9 8.2 12.95 8.5 10.5 8.4 8.4 9.0 8.5 Q10.15 8.5 10.35 7.95 L10.5 6.05 13.5 3.55 13.4 5.05 Q13.4 5.7 14.0 6.5 15.15 6.25 17.5 4.45 L17.3 6.2 16.5 13.65 16.55 14.45 M17.7 21.85 L21.45 28.4 23.1 31.15 24.55 31.2 Q24.75 32.1 25.65 33.55 L25.25 33.1 Q24.65 32.5 23.75 32.5 L22.8 32.65 22.55 33.0 22.5 32.95 22.5 33.65 Q22.5 34.4 22.8 34.75 L23.3 35.25 21.55 35.8 20.9 33.9 Q20.4 32.5 19.0 32.5 17.95 32.5 17.35 33.2 L16.25 34.8 14.05 34.2 Q13.0 34.2 11.8 35.0 L11.3 34.0 Q10.95 33.5 10.25 33.5 L8.2 34.7 Q5.95 35.9 4.55 36.05 L4.1 34.7 Q3.9 34.0 2.75 34.0 2.15 34.0 1.9 34.5 1.65 35.0 1.0 35.0 0.25 35.0 -0.2 34.25 -0.65 33.5 -2.25 33.5 L-4.0 33.8 Q-3.7 35.05 -5.5 36.3 -4.95 35.25 -5.2 34.6 -5.6 33.5 -9.5 33.5 -12.2 33.5 -11.95 34.95 -11.75 36.2 -14.4 36.3 L-14.4 36.2 -13.0 30.4 -12.8 29.6 -12.15 27.1 -11.9 26.95 -11.4 26.7 -11.3 25.55 Q-11.3 24.85 -11.55 24.5 L-11.3 23.1 -6.45 22.8 13.2 21.9 17.0 21.8 17.6 21.75 17.7 21.85 M-5.0 3.2 L-3.45 4.15 Q-0.35 6.0 2.0 7.0 L3.5 5.0 5.9 6.9 6.7 7.45 Q6.0 9.55 6.0 14.25 L6.1 14.95 -5.6 15.3 -5.5 14.75 -5.0 5.35 -5.0 3.2" fill="#023f60" fill-rule="evenodd" stroke="none"/>
      <path d="M17.9 21.75 L17.7 21.85 17.6 21.75 17.9 21.75" fill="#942403" fill-rule="evenodd" stroke="none"/>
      <path d="M2.3 -19.0 L2.65 -18.95 2.5 -18.95 2.3 -19.0" fill="#731c02" fill-rule="evenodd" stroke="none"/>
    </g>
    <g id="shape6" transform="matrix(1.0, 0.0, 0.0, 1.0, 34.7, 37.9)">
      <path d="M-17.4 -0.8 L-21.4 -0.55 -21.4 -4.2 -21.15 -10.05 -21.1 -10.45 Q-20.4 -16.95 -15.7 -20.0 L-10.0 -23.85 Q-7.25 -25.8 -4.9 -28.05 -3.5 -29.4 -2.45 -31.0 -1.5 -32.45 -1.3 -33.3 -1.1 -34.15 -0.3 -34.65 0.45 -35.15 1.7 -35.35 L1.85 -35.35 3.85 -35.8 Q5.2 -32.7 5.8 -31.8 7.75 -29.0 11.6 -27.3 14.1 -26.2 18.4 -23.3 L24.2 -19.25 Q26.45 -17.75 27.9 -15.3 28.8 -13.75 29.35 -11.75 L29.35 -11.3 29.5 -11.3 29.8 -9.85 Q30.25 -7.5 30.3 -3.65 L30.25 -0.55 30.1 -0.25 28.05 -0.3 28.0 -0.3 27.75 -4.0 Q27.1 -12.0 21.7 -17.0 19.65 -18.9 15.3 -21.2 9.85 -24.05 8.1 -25.25 L6.95 -25.95 4.45 -28.55 3.7 -29.1 3.55 -29.55 3.35 -29.8 0.8 -29.7 0.8 -29.75 0.75 -29.7 -0.5 -28.55 Q-2.1 -25.9 -2.55 -25.5 L-6.4 -22.15 -7.0 -21.45 -9.05 -20.25 Q-9.8 -19.5 -11.8 -17.85 L-13.95 -15.75 Q-17.0 -12.15 -17.3 -4.2 L-17.4 -0.8 M-18.15 1.45 L-18.2 1.55 Q-18.2 5.95 -18.35 6.7 L-18.55 7.6 -18.65 7.7 -18.8 7.9 -21.65 13.0 -24.3 16.5 Q-25.9 18.6 -26.15 19.6 L-27.1 20.65 -28.5 20.5 -31.15 20.2 -31.6 20.15 -31.45 19.55 -30.8 19.05 -26.1 13.8 -26.0 13.65 -25.65 13.15 -24.85 11.9 Q-21.2 6.0 -21.2 2.55 L-21.2 1.45 -18.15 1.45" fill="#4b4238" fill-rule="evenodd" stroke="none"/>
      <path d="M5.45 -37.35 Q5.85 -36.65 6.55 -36.15 6.75 -34.4 9.1 -32.2 11.9 -29.55 15.85 -27.8 18.9 -26.45 21.3 -24.6 L26.45 -20.25 Q31.15 -16.35 31.9 -10.4 L32.7 -0.25 32.6 0.35 32.95 0.65 32.85 0.8 32.55 1.1 32.45 1.45 32.2 1.75 30.7 1.75 30.7 2.7 30.65 3.75 30.7 4.3 30.6 7.45 31.2 8.0 32.7 9.6 Q33.5 10.55 33.7 11.45 L34.45 15.3 34.7 18.5 Q34.7 22.7 33.5 26.85 31.85 32.6 31.2 37.25 30.85 37.7 30.2 37.95 28.95 37.2 28.8 35.35 L28.45 32.0 27.1 29.0 26.45 27.35 Q22.2 33.8 20.7 37.25 20.35 37.7 19.7 37.95 18.2 36.8 18.05 34.0 L17.7 29.75 Q16.85 27.15 16.75 23.3 L15.95 23.7 16.75 23.15 16.75 23.0 16.5 23.0 12.35 22.8 10.8 24.05 6.25 24.4 5.35 24.65 Q-0.8 24.3 -1.85 22.5 L-2.15 21.75 -2.35 21.75 -3.0 21.75 -3.1 21.8 -3.25 21.85 -5.55 23.0 -10.9 23.15 -15.05 22.7 -18.5 23.35 -21.95 23.95 -24.2 23.45 -25.7 22.95 -29.85 22.4 -33.7 21.75 -34.35 20.75 Q-34.7 20.1 -34.7 19.3 L-31.1 15.6 Q-27.25 11.5 -26.15 9.45 L-25.0 6.85 -23.7 4.2 Q-23.5 3.9 -23.4 1.15 L-23.2 0.4 -23.2 0.35 Q-23.2 -0.15 -22.7 -0.3 L-23.15 -2.35 -23.2 -5.75 Q-23.2 -12.75 -22.65 -14.35 -21.35 -18.3 -14.9 -23.3 L-11.9 -25.0 -8.8 -27.0 -6.9 -29.15 -5.05 -31.25 Q-3.95 -32.25 -2.45 -36.05 -0.4 -38.85 4.5 -37.4 L5.45 -37.35 M29.35 -11.75 Q28.8 -13.75 27.9 -15.3 26.45 -17.75 24.2 -19.25 L18.4 -23.3 Q14.1 -26.2 11.6 -27.3 7.75 -29.0 5.8 -31.8 5.2 -32.7 3.85 -35.8 L1.85 -35.35 1.7 -35.35 Q0.45 -35.15 -0.3 -34.65 -1.1 -34.15 -1.3 -33.3 -1.5 -32.45 -2.45 -31.0 -3.5 -29.4 -4.9 -28.05 -7.25 -25.8 -10.0 -23.85 L-15.7 -20.0 Q-20.4 -16.95 -21.1 -10.45 L-21.15 -10.05 -21.4 -4.2 -21.4 -0.55 -17.4 -0.8 -15.2 -0.8 -13.1 -0.95 -13.05 -0.95 -9.3 -1.0 -4.15 -1.05 -3.95 -0.9 -3.85 -0.65 -3.4 -0.7 Q2.8 -0.9 28.0 -0.3 L28.05 -0.3 30.1 -0.25 30.25 -0.25 30.25 -0.55 30.3 -3.65 Q30.25 -7.5 29.8 -9.85 L29.5 -11.3 29.35 -11.75 M21.55 2.95 L21.35 2.7 Q18.2 1.85 18.2 4.05 18.2 4.8 18.35 4.95 L18.45 5.2 19.95 5.45 Q21.7 5.45 21.7 3.95 L21.55 2.95 M29.7 17.95 Q29.7 21.85 27.6 25.55 28.25 25.8 29.05 27.05 L30.1 28.95 31.7 23.7 Q32.7 20.6 32.7 18.45 32.45 15.2 31.5 12.7 30.2 9.2 28.15 9.25 24.1 11.4 21.5 14.9 18.7 18.7 18.7 22.25 18.7 23.05 19.45 27.3 L20.2 31.95 26.6 23.2 Q27.25 22.25 27.6 19.1 27.95 16.0 28.7 14.95 29.5 15.55 29.65 16.45 L29.7 17.95 M16.1 3.45 L15.65 3.4 15.65 3.5 16.1 3.45 M15.25 11.1 L15.25 11.4 15.25 12.75 Q15.15 15.75 14.75 17.3 L14.15 19.6 16.7 20.0 16.75 18.35 Q16.95 17.6 19.2 13.7 20.7 11.1 23.0 9.5 18.8 9.9 15.5 10.95 L15.25 11.1 M6.75 22.6 Q9.1 22.45 10.3 20.5 L11.5 17.8 12.05 12.55 12.0 6.35 11.8 2.5 Q11.05 1.4 9.75 1.6 L9.35 1.7 8.3 1.6 8.3 1.55 -0.45 1.35 -0.6 1.8 -0.65 1.85 -0.35 5.9 -0.35 11.1 -0.2 17.2 Q0.3 20.95 2.2 22.5 L6.35 22.5 6.4 22.65 6.75 22.6 M-25.6 20.8 L-24.7 20.95 -24.35 21.45 Q-24.2 21.75 -23.45 21.75 L-18.85 21.2 -16.7 20.45 -12.5 20.65 -9.55 21.2 -6.65 20.6 -5.15 20.2 -5.25 18.5 -5.85 9.05 Q-5.4 6.35 -5.4 4.8 -5.4 2.65 -6.45 1.15 L-6.4 1.0 -6.55 1.0 -9.7 1.1 -15.2 1.45 -18.15 1.45 -21.2 1.45 -21.2 2.55 Q-21.2 6.0 -24.85 11.9 L-25.65 13.15 -26.0 13.65 -26.1 13.8 -30.8 19.05 -32.2 20.0 -31.6 20.15 -31.15 20.2 -28.5 20.5 -27.1 20.65 -26.15 20.75 -25.6 20.8 M-18.55 7.6 Q-18.0 6.95 -17.45 7.0 L-17.3 6.8 Q-17.2 6.75 -17.2 7.55 -17.2 8.45 -21.15 14.2 L-25.7 20.75 -26.15 20.75 -26.2 19.95 -26.15 19.6 Q-25.9 18.6 -24.3 16.5 L-21.65 13.0 -18.8 7.9 -18.65 7.7 -18.55 7.6 M-12.75 8.35 L-12.7 9.3 Q-12.7 10.65 -14.5 15.25 L-16.4 20.0 -16.7 20.25 -17.15 20.05 -17.2 19.05 Q-17.2 17.6 -15.5 13.85 -13.75 9.95 -13.65 8.0 L-12.95 8.0 -12.75 8.35" fill="#000000" fill-rule="evenodd" stroke="none"/>
      <path d="M-17.4 -0.8 L-17.3 -4.2 Q-17.0 -12.15 -13.95 -15.75 L-11.8 -17.85 Q-9.8 -19.5 -9.05 -20.25 L-7.0 -21.45 -6.4 -22.15 -2.55 -25.5 Q-2.1 -25.9 -0.5 -28.55 L0.75 -29.7 0.8 -29.75 0.8 -29.7 3.35 -29.8 3.55 -29.55 3.7 -29.1 4.45 -28.55 6.95 -25.95 8.1 -25.25 Q9.85 -24.05 15.3 -21.2 19.65 -18.9 21.7 -17.0 27.1 -12.0 27.75 -4.0 L28.0 -0.3 Q2.8 -0.9 -3.4 -0.7 L-3.85 -0.65 -3.95 -0.9 -4.15 -1.05 -9.3 -1.0 -13.05 -0.95 -13.05 -1.3 -13.1 -0.95 -15.2 -0.8 -17.4 -0.8 M6.35 22.5 L2.2 22.5 Q0.3 20.95 -0.2 17.2 L-0.35 11.1 -0.35 5.9 -0.65 1.85 -0.6 1.8 -0.45 1.35 8.3 1.55 8.3 1.6 9.35 1.7 9.75 1.6 Q11.05 1.4 11.8 2.5 L12.0 6.35 12.05 12.55 11.5 17.8 10.3 20.5 Q9.1 22.45 6.75 22.6 L6.35 22.5 M-18.15 1.45 L-15.2 1.45 -9.7 1.1 -6.55 1.0 -6.4 1.0 -6.45 1.15 Q-5.4 2.65 -5.4 4.8 -5.4 6.35 -5.85 9.05 L-5.25 18.5 -5.15 20.2 -6.65 20.6 -9.55 21.2 -12.5 20.65 -16.7 20.45 -18.85 21.2 -23.45 21.75 Q-24.2 21.75 -24.35 21.45 L-24.7 20.95 -25.6 20.8 -25.7 20.75 -21.15 14.2 Q-17.2 8.45 -17.2 7.55 -17.2 6.75 -17.3 6.8 L-17.45 7.0 Q-18.0 6.95 -18.55 7.6 L-18.35 6.7 Q-18.2 5.95 -18.2 1.55 L-18.15 1.45 M-26.15 20.75 L-27.1 20.65 -26.15 19.6 -26.2 19.95 -26.15 20.75 M-31.6 20.15 L-32.2 20.0 -30.8 19.05 -31.45 19.55 -31.6 20.15 M-12.75 8.35 L-12.95 8.0 -13.65 8.0 Q-13.75 9.95 -15.5 13.85 -17.2 17.6 -17.2 19.05 L-17.15 20.05 -16.7 20.25 -16.4 20.0 -14.5 15.25 Q-12.7 10.65 -12.7 9.3 L-12.75 8.35" fill="#332d26" fill-rule="evenodd" stroke="none"/>
      <path d="M30.1 -0.25 L30.25 -0.55 30.25 -0.25 30.1 -0.25" fill="#5b6171" fill-rule="evenodd" stroke="none"/>
      <path d="M21.55 2.95 L21.7 3.95 Q21.7 5.45 19.95 5.45 L18.45 5.2 18.35 4.95 Q18.2 4.8 18.2 4.05 18.2 1.85 21.35 2.7 L21.55 2.95" fill="#ffffff" fill-rule="evenodd" stroke="none"/>
      <path d="M29.7 17.95 L29.65 16.45 Q29.5 15.55 28.7 14.95 27.95 16.0 27.6 19.1 27.25 22.25 26.6 23.2 L20.2 31.95 19.45 27.3 Q18.7 23.05 18.7 22.25 18.7 18.7 21.5 14.9 24.1 11.4 28.15 9.25 30.2 9.2 31.5 12.7 32.45 15.2 32.7 18.45 32.7 20.6 31.7 23.7 L30.1 28.95 29.05 27.05 Q28.25 25.8 27.6 25.55 29.7 21.85 29.7 17.95" fill="#48463c" fill-rule="evenodd" stroke="none"/>
      <path d="M15.25 11.1 L15.5 10.95 Q18.8 9.9 23.0 9.5 20.7 11.1 19.2 13.7 16.95 17.6 16.75 18.35 L16.7 20.0 14.15 19.6 14.75 17.3 Q15.15 15.75 15.25 12.75 L15.25 11.4 15.25 11.1" fill="#cdac98" fill-rule="evenodd" stroke="none"/>
    </g>
    <g id="shape7" transform="matrix(1.0, 0.0, 0.0, 1.0, 31.6, 39.85)">
      <path d="M11.25 -27.2 L16.1 -27.85 16.25 -27.65 20.15 -27.6 24.15 -26.1 27.2 -24.95 26.1 -26.4 Q22.25 -30.45 14.05 -31.6 L13.9 -31.7 8.8 -32.35 3.65 -32.9 Q3.3 -31.1 -0.3 -27.55 L-0.25 -25.9 -0.15 -25.85 1.35 -24.75 2.3 -25.15 5.15 -26.05 10.45 -27.1 11.2 -27.2 11.25 -27.2 M25.15 -29.6 L28.55 -26.4 30.95 -23.5 31.3 -23.35 31.65 -22.6 31.15 -21.9 31.15 -21.2 Q29.7 -22.25 28.55 -22.1 L24.0 -23.95 Q19.15 -25.9 15.1 -25.7 L14.05 -25.6 Q10.05 -25.15 6.9 -23.95 L3.05 -22.6 3.15 -21.95 Q3.15 -21.0 2.65 -20.35 2.1 -19.6 1.15 -19.6 0.95 -19.6 0.1 -20.05 L0.15 -18.85 Q0.25 -17.55 2.75 -7.8 5.15 1.65 5.15 3.2 5.15 5.45 3.35 14.7 2.0 21.95 3.0 25.9 7.7 26.05 8.7 28.9 9.2 30.4 8.65 32.2 8.65 35.85 7.8 37.15 6.0 39.9 -0.1 39.9 -5.45 39.9 -7.2 36.9 -8.35 34.9 -8.35 29.7 -8.35 24.2 -6.35 19.85 -4.35 15.55 -4.35 11.75 -4.35 5.4 -6.2 0.9 -9.0 -5.95 -8.85 -10.05 -8.65 -13.45 -9.3 -19.6 L-9.6 -19.45 Q-10.2 -19.1 -10.35 -19.1 L-10.6 -19.1 -12.4 -18.55 -16.85 -17.3 -19.4 -15.95 Q-21.2 -15.1 -24.6 -15.1 -30.25 -15.1 -31.35 -18.55 -31.7 -19.6 -31.55 -21.0 L-31.35 -22.3 Q-31.35 -28.2 -29.3 -30.5 -24.8 -35.6 -10.15 -35.35 -9.9 -36.95 -9.35 -37.65 L-9.35 -37.85 -9.3 -38.65 -9.1 -39.05 Q-3.45 -41.2 -1.2 -37.4 L-0.4 -35.55 Q9.1 -35.65 16.4 -33.55 L16.35 -33.5 21.15 -32.6 Q22.2 -32.45 23.5 -31.25 L25.15 -29.6 M2.0 -1.35 L0.8 -5.55 Q-1.6 -14.2 -1.85 -16.85 L-1.9 -17.85 -2.1 -20.35 -2.1 -20.55 -2.15 -21.4 -4.05 -22.6 -5.0 -23.25 -7.1 -21.45 -6.85 -20.3 Q-6.4 -18.3 -6.55 -15.05 L-6.85 -9.8 Q-6.85 -8.45 -6.25 -6.5 L-5.9 -5.45 -5.6 -4.55 -3.45 1.15 Q-2.65 3.55 -2.45 7.7 L-2.45 7.75 -2.35 10.9 -2.35 11.4 Q-2.35 15.6 -4.35 20.4 -6.35 25.25 -6.35 29.4 L-5.85 33.7 Q-5.2 37.25 -4.3 37.65 L-4.1 37.7 -3.3 37.7 3.85 37.65 4.65 37.55 4.8 37.15 Q4.7 36.8 5.15 36.45 L6.55 35.15 6.65 32.05 Q7.0 30.2 6.7 29.45 6.25 28.45 4.05 28.25 L4.0 28.25 3.75 28.2 3.6 28.2 3.25 28.2 2.55 28.15 Q0.4 28.15 0.35 30.05 0.3 31.05 0.55 32.95 L-0.35 33.4 Q-1.05 33.1 -1.25 32.2 L-1.35 30.45 Q-1.35 28.2 -0.95 27.45 -0.4 26.25 1.3 26.0 L0.8 24.5 Q0.65 23.7 0.65 21.45 L0.65 21.3 Q0.65 19.5 0.8 17.75 1.1 14.45 1.9 11.3 3.15 6.5 3.15 3.3 L2.45 0.35 2.1 -0.85 2.0 -1.35 M-13.85 -31.85 L-13.8 -32.6 -19.1 -32.25 Q-29.35 -31.0 -29.35 -22.45 L-29.3 -19.35 Q-28.6 -17.35 -24.85 -17.35 -21.75 -17.35 -17.85 -19.2 -14.85 -20.65 -12.3 -21.0 L-12.35 -21.25 Q-12.35 -22.15 -9.85 -24.65 L-10.1 -27.0 -12.25 -29.05 Q-13.85 -30.7 -13.85 -31.85 M-10.3 -32.85 L-10.3 -33.0 -10.45 -32.95 -10.3 -32.85 M-5.9 -29.35 L-5.35 -28.95 -4.45 -29.85 -2.85 -31.8 -2.55 -32.1 -2.85 -36.85 -5.3 -36.8 -5.5 -36.8 -6.15 -36.8 -8.2 -36.65 -8.15 -35.95 -8.35 -34.55 -8.35 -31.3 -6.6 -29.8 -6.35 -29.65 -6.05 -29.45 -5.9 -29.35" fill="#000000" fill-rule="evenodd" stroke="none"/>
      <path d="M8.8 -32.35 L13.9 -31.7 14.05 -31.6 Q22.25 -30.45 26.1 -26.4 L27.2 -24.95 24.15 -26.1 20.15 -27.6 16.25 -27.65 16.1 -27.85 11.25 -27.2 11.15 -27.7 Q11.15 -28.45 11.55 -28.75 L12.15 -29.05 Q11.05 -29.0 9.8 -29.75 L8.15 -30.8 Q8.3 -31.75 8.8 -32.35 M3.65 -27.7 Q3.65 -28.6 4.75 -29.25 5.8 -29.85 6.8 -29.6 L7.0 -29.4 7.15 -28.5 Q7.15 -26.6 5.15 -26.6 L4.05 -26.85 Q3.65 -26.45 3.65 -27.7" fill="#a88677" fill-rule="evenodd" stroke="none"/>
      <path d="M8.8 -32.35 Q8.3 -31.75 8.15 -30.8 L9.8 -29.75 Q11.05 -29.0 12.15 -29.05 L11.55 -28.75 Q11.15 -28.45 11.15 -27.7 L11.2 -27.2 10.45 -27.1 5.15 -26.05 2.3 -25.15 1.35 -24.75 -0.15 -25.85 -0.25 -25.9 -0.3 -27.55 Q3.3 -31.1 3.65 -32.9 L8.8 -32.35 M3.65 -27.7 Q3.65 -26.45 4.05 -26.85 L5.15 -26.6 Q7.15 -26.6 7.15 -28.5 L7.0 -29.4 6.8 -29.6 Q5.8 -29.85 4.75 -29.25 3.65 -28.6 3.65 -27.7 M-13.85 -31.85 Q-13.85 -30.7 -12.25 -29.05 L-10.1 -27.0 -9.85 -24.65 Q-12.35 -22.15 -12.35 -21.25 L-12.3 -21.0 Q-14.85 -20.65 -17.85 -19.2 -21.75 -17.35 -24.85 -17.35 -28.6 -17.35 -29.3 -19.35 L-29.35 -22.45 Q-29.35 -31.0 -19.1 -32.25 L-13.8 -32.6 -13.85 -31.85" fill="#baae96" fill-rule="evenodd" stroke="none"/>
      <path d="M11.15 -27.7 L11.25 -27.2 11.2 -27.2 11.15 -27.7" fill="#bba095" fill-rule="evenodd" stroke="none"/>
      <path d="M-1.9 -17.85 L-1.85 -16.85 Q-1.6 -14.2 0.8 -5.55 L2.0 -1.35 Q0.3 0.4 -0.9 3.75 L-2.45 7.7 Q-2.65 3.55 -3.45 1.15 L-5.6 -4.55 -5.9 -5.45 -5.65 -4.75 Q-4.9 -6.95 -4.7 -8.55 -4.45 -10.55 -2.85 -15.15 L-1.9 -17.85 M2.45 0.35 L3.15 3.3 Q3.15 6.5 1.9 11.3 1.1 14.45 0.8 17.75 -0.8 22.25 -1.6 23.45 -3.7 26.85 -4.15 29.3 -4.35 30.4 -4.35 34.9 L-4.3 37.65 Q-5.2 37.25 -5.85 33.7 L-6.35 29.4 Q-6.35 25.25 -4.35 20.4 -2.35 15.6 -2.35 11.4 L-2.35 10.9 -0.35 4.75 Q0.55 2.25 2.45 0.35 M0.65 21.45 Q0.65 23.7 0.8 24.5 L1.3 26.0 Q-0.4 26.25 -0.95 27.45 -1.35 28.2 -1.35 30.45 L-1.25 32.2 Q-1.05 33.1 -0.35 33.4 L0.55 32.95 Q0.3 31.05 0.35 30.05 0.4 28.15 2.55 28.15 L3.25 28.2 3.15 33.7 Q3.15 36.05 2.3 37.65 L3.85 37.65 4.05 36.7 4.15 32.0 4.05 28.25 Q6.25 28.45 6.7 29.45 7.0 30.2 6.65 32.05 L6.55 35.15 5.15 36.45 Q4.7 36.8 4.8 37.15 L4.65 37.55 3.85 37.65 -3.3 37.7 -3.35 34.5 Q-3.35 28.95 -1.4 25.6 -0.3 23.7 0.65 21.45 M-5.3 -36.8 L-2.85 -36.85 -2.55 -32.1 -2.85 -31.8 -4.45 -29.85 -5.35 -28.95 -5.9 -29.35 Q-5.7 -31.25 -5.65 -34.15 L-5.3 -36.8 M-6.35 -29.65 L-6.6 -29.8 -8.35 -31.3 -8.35 -34.55 -8.15 -35.95 -8.2 -36.65 -6.15 -36.8 -5.85 -35.05 Q-5.85 -32.3 -6.5 -29.75 L-6.35 -29.65 M-2.1 -20.55 L-2.2 -20.55 -3.7 -15.2 -5.35 -9.6 -6.25 -6.5 Q-6.85 -8.45 -6.85 -9.8 L-6.55 -15.05 Q-6.4 -18.3 -6.85 -20.3 L-7.1 -21.45 -5.0 -23.25 -4.05 -22.6 -2.15 -21.4 -2.1 -20.55" fill="#31282d" fill-rule="evenodd" stroke="none"/>
      <path d="M-1.9 -17.85 L-2.85 -15.15 Q-4.45 -10.55 -4.7 -8.55 -4.9 -6.95 -5.65 -4.75 L-5.9 -5.45 -6.25 -6.5 -5.35 -9.6 -3.7 -15.2 -2.2 -20.55 -2.1 -20.55 -2.1 -20.35 -1.9 -17.85 M-2.45 7.7 L-0.9 3.75 Q0.3 0.4 2.0 -1.35 L2.1 -0.85 2.45 0.35 Q0.55 2.25 -0.35 4.75 L-2.35 10.9 -2.45 7.75 -2.45 7.7 M0.8 17.75 Q0.65 19.5 0.65 21.3 L0.65 21.45 Q-0.3 23.7 -1.4 25.6 -3.35 28.95 -3.35 34.5 L-3.3 37.7 -4.1 37.7 -4.3 37.65 -4.35 34.9 Q-4.35 30.4 -4.15 29.3 -3.7 26.85 -1.6 23.45 -0.8 22.25 0.8 17.75 M3.25 28.2 L3.6 28.2 3.75 28.2 4.0 28.25 4.05 28.25 4.15 32.0 4.05 36.7 3.85 37.65 2.3 37.65 Q3.15 36.05 3.15 33.7 L3.25 28.2 M-5.3 -36.8 L-5.65 -34.15 Q-5.7 -31.25 -5.9 -29.35 L-6.05 -29.45 -6.35 -29.65 -6.5 -29.75 Q-5.85 -32.3 -5.85 -35.05 L-6.15 -36.8 -5.5 -36.8 -5.3 -36.8" fill="#463941" fill-rule="evenodd" stroke="none"/>
    </g>
    <g id="shape8" transform="matrix(1.0, 0.0, 0.0, 1.0, 12.65, 23.4)">
      <path d="M12.65 -15.15 Q12.65 -10.85 10.5 -5.55 L6.75 2.55 Q5.65 2.7 5.25 3.7 L4.6 3.5 7.55 7.8 Q11.8 14.2 11.8 15.7 11.8 16.45 9.65 18.2 6.3 20.9 -0.3 23.0 L-1.05 23.3 -2.35 23.4 Q-5.0 23.4 -8.8 14.15 -12.25 5.8 -12.25 3.1 L-12.2 2.75 -12.65 2.5 -12.05 -0.4 Q-10.9 -5.45 -9.75 -7.35 L-10.15 -7.7 -10.3 -7.55 -10.85 -7.3 Q-11.85 -8.5 -11.85 -8.95 -11.85 -11.25 -8.05 -15.25 -4.7 -18.8 -1.55 -20.55 7.25 -25.55 10.75 -21.75 12.65 -19.65 12.65 -15.15 M8.9 -20.75 Q3.95 -20.75 1.45 -19.5 -0.15 -18.7 -4.6 -14.75 L-7.8 -11.15 -9.15 -9.15 -8.15 -8.55 -8.05 -8.55 -8.05 -8.5 -7.65 -8.15 Q-4.25 -4.8 -2.8 -4.05 L5.2 1.65 7.65 -4.9 Q10.65 -12.55 10.65 -15.05 9.9 -20.75 8.9 -20.75 M1.25 2.65 L1.65 2.05 -1.8 -0.6 -3.4 -0.45 Q-6.5 -0.05 -9.75 2.85 L-9.65 4.25 -9.65 5.3 Q-9.65 6.15 -8.75 8.55 L-8.3 7.9 -8.25 8.1 -8.25 8.2 -8.05 8.45 -7.95 8.45 -7.7 9.45 -6.6 8.35 -5.6 8.1 -5.6 7.9 -5.2 7.8 -5.1 7.55 -1.75 5.6 2.45 3.3 Q2.0 2.95 1.35 2.8 L1.25 2.65 M3.4 6.2 L3.4 5.75 3.3 4.7 Q-3.35 9.65 -6.4 10.75 L-7.55 11.0 -7.65 11.1 -6.4 13.95 Q-3.05 21.2 -1.8 21.2 0.55 21.0 9.4 14.8 L3.6 6.15 3.4 6.2 M-9.7 -0.05 L-9.4 -0.3 Q-7.3 -2.05 -4.2 -2.6 L-8.15 -5.95 -9.85 -0.25 -10.0 0.25 -9.7 -0.05" fill="#000000" fill-rule="evenodd" stroke="none"/>
      <path d="M1.25 2.65 L1.35 2.8 Q2.0 2.95 2.45 3.3 L-1.75 5.6 -5.1 7.55 -5.2 7.8 -5.6 7.9 -5.6 8.1 -6.6 8.35 -7.7 9.45 -7.95 8.45 -8.05 8.45 -8.25 8.2 -8.25 8.1 -8.3 7.9 -8.75 8.55 Q-9.65 6.15 -9.65 5.3 L-9.65 4.25 -9.75 2.85 Q-6.5 -0.05 -3.4 -0.45 L-1.8 -0.6 1.65 2.05 1.25 2.65" fill="#332d26" fill-rule="evenodd" stroke="none"/>
      <path d="M-9.85 -0.25 L-8.15 -5.95 -4.2 -2.6 Q-7.3 -2.05 -9.4 -0.3 L-9.7 -0.05 -9.85 -0.25 M3.4 6.2 L3.6 6.15 9.4 14.8 Q0.55 21.0 -1.8 21.2 -3.05 21.2 -6.4 13.95 L-7.65 11.1 -7.55 11.0 -6.4 10.75 Q-3.35 9.65 3.3 4.7 L3.4 5.75 3.4 6.2" fill="#cdac98" fill-rule="evenodd" stroke="none"/>
      <path d="M-9.85 -0.25 L-9.7 -0.05 -10.0 0.25 -9.85 -0.25" fill="#c6b19f" fill-rule="evenodd" stroke="none"/>
      <path d="M8.9 -20.75 Q9.9 -20.75 10.65 -15.05 10.65 -12.55 7.65 -4.9 L5.2 1.65 -2.8 -4.05 Q-4.25 -4.8 -7.65 -8.15 L-8.05 -8.5 -8.05 -8.55 -8.15 -8.55 -9.15 -9.15 -7.8 -11.15 -4.6 -14.75 Q-0.15 -18.7 1.45 -19.5 3.95 -20.75 8.9 -20.75" fill="#046193" fill-rule="evenodd" stroke="none"/>
    </g>
    <g id="sprite3" transform="matrix(1.0, 0.0, 0.0, 1.0, 29.05, 29.25)">
      <clipPath id="clipPath1" transform="matrix(1.0, 0.0, 0.0, 1.0, 0.0, 0.0)">
        <path d="M46.5 -7.45 L46.65 -7.3 46.7 -7.2 Q47.2 -9.05 47.4 -0.7 L47.5 18.6 47.4 42.5 47.4 42.8 47.35 48.6 -7.85 48.6 -7.95 42.8 -8.0 42.5 -8.0 -1.85 -7.35 -7.1 -7.3 -7.25 Q-7.15 -7.8 -7.0 -7.3 L-6.75 -7.35 -6.5 -7.4 -0.55 -7.7 18.75 -7.8 42.65 -7.7 44.9 -7.55 45.0 -7.55 46.5 -7.45 M40.0 40.0 L40.0 0.0 0.0 0.0 0.0 40.0 40.0 40.0" fill="#00ff00" fill-rule="evenodd" stroke="none"/>
      </clipPath>
      <g clip-path="url(#clipPath1)">
        <use ffdec:characterId="937" height="49.05" transform="matrix(1.0, 0.0, 0.0, 1.0, -5.2, -5.05)" width="49.95" xlink:href="#shape10"/>
      </g>
    </g>
    <g id="shape10" transform="matrix(1.0, 0.0, 0.0, 1.0, 5.2, 5.05)">
      <path d="M18.85 -5.05 L40.4 -5.0 42.4 -4.85 42.5 -4.85 43.85 -4.75 44.0 -4.6 44.05 -4.55 Q44.5 -6.2 44.65 1.3 L44.75 18.7 44.65 40.2 44.5 42.2 Q44.4 43.75 44.05 43.75 L43.8 43.55 42.9 43.75 40.4 44.0 0.45 44.0 -3.55 43.55 -3.6 43.55 -4.6 43.75 -4.95 42.7 -5.2 40.2 -5.2 0.3 -4.6 -4.45 -4.55 -4.55 Q-4.45 -5.05 -4.3 -4.6 L-4.05 -4.65 -3.85 -4.7 1.5 -5.0 18.85 -5.05 M36.4 1.65 L36.8 1.25 41.65 -3.2 42.1 -3.6 41.7 -3.65 41.6 -3.85 40.4 -3.7 0.45 -3.7 -3.0 -4.1 2.5 0.85 3.3 1.65 1.8 1.65 1.8 2.6 1.8 1.65 3.3 1.65 3.6 1.95 2.0 1.95 2.0 2.8 1.8 2.6 0.3 1.1 -3.9 -4.2 -4.2 -4.3 -3.95 1.3 -3.85 18.7 -3.95 40.2 -4.05 42.2 -4.05 42.5 -4.0 42.3 -3.6 41.8 -1.65 39.65 1.8 36.1 1.8 37.95 2.0 37.95 1.8 37.95 1.8 36.1 2.0 35.9 2.0 37.95 2.6 37.95 -0.4 40.9 -2.75 42.9 1.5 42.7 18.85 42.65 40.4 42.7 42.4 42.85 42.5 42.85 42.4 42.8 39.65 40.55 37.05 37.95 38.0 37.95 38.15 37.95 38.15 36.45 38.15 37.95 38.0 37.95 38.0 36.35 38.15 36.45 40.9 39.3 42.85 41.45 43.6 42.45 43.4 40.2 43.4 0.3 43.85 -3.65 43.8 -3.65 42.95 -3.5 42.8 -3.3 39.0 1.45 38.15 2.3 38.15 1.65 36.4 1.65 38.15 1.65 38.15 2.3 38.0 2.45 38.0 1.95 36.0 1.95 36.4 1.65" fill="#473a29" fill-rule="evenodd" stroke="none"/>
      <path d="M3.3 1.65 L2.5 0.85 -3.0 -4.1 0.45 -3.7 40.4 -3.7 41.6 -3.85 41.7 -3.65 42.1 -3.6 41.65 -3.2 36.8 1.25 36.4 1.65 3.3 1.65 36.4 1.65 36.0 1.95 3.6 1.95 3.3 1.65 M1.8 36.1 L-1.65 39.65 -3.6 41.8 -4.0 42.3 -4.05 42.2 -3.95 40.2 -3.85 18.7 -3.95 1.3 -4.2 -4.3 -3.9 -4.2 0.3 1.1 1.8 2.6 2.0 2.8 2.0 35.9 1.8 36.1 1.8 35.0 1.8 33.05 1.8 2.6 1.8 33.05 1.8 35.0 1.8 36.1" fill="#bfaf91" fill-rule="evenodd" stroke="none"/>
      <path d="M38.15 2.3 L39.0 1.45 42.8 -3.3 42.95 -3.5 43.8 -3.65 43.85 -3.65 43.4 0.3 43.4 40.2 43.6 42.45 42.85 41.45 40.9 39.3 38.15 36.45 38.15 2.3 38.15 36.45 38.0 36.35 38.0 2.45 38.15 2.3 M37.05 37.95 L39.65 40.55 42.4 42.8 42.4 42.85 40.4 42.7 18.85 42.65 1.5 42.7 -2.75 42.9 -0.4 40.9 2.6 37.95 26.5 37.95 Q27.1 37.75 27.6 37.95 L37.05 37.95" fill="#6c5b3e" fill-rule="evenodd" stroke="none"/>
      <path d="M3.3 1.65 L36.4 1.65 38.15 1.65 38.15 2.3 38.15 36.45 38.15 37.95 38.0 37.95 37.05 37.95 27.6 37.95 Q27.1 37.75 26.5 37.95 L2.6 37.95 2.0 37.95 1.8 37.95 1.8 36.1 1.8 35.0 1.8 33.05 1.8 2.6 1.8 1.65 3.3 1.65 Z" fill="none" stroke="#473a29" stroke-linecap="round" stroke-linejoin="round" stroke-opacity="0.49019608" stroke-width="1.0"/>
    </g>
    <g id="sprite4" transform="matrix(1.0, 0.0, 0.0, 1.0, 0.0, 48.5)">
      <use ffdec:characterId="949" height="340.0" transform="matrix(0.2505, 0.0, 0.0, 0.1427, 0.0114, -48.4851)" width="192.0" xlink:href="#shape11"/>
    </g>
    <g id="shape11" transform="matrix(1.0, 0.0, 0.0, 1.0, 2.15, 3.05)">
      <path d="M189.85 -3.05 L189.85 336.95 -2.15 336.95 -2.15 -3.05 189.85 -3.05" fill="#000000" fill-opacity="0.29803923" fill-rule="evenodd" stroke="none"/>
    </g>
    <g id="sprite5" transform="matrix(1.0, 0.0, 0.0, 1.0, 64.35, 49.9)">
      <use ffdec:characterId="58" height="400.0" transform="matrix(0.1796, 0.0, 0.0, 0.1248, -62.85, -49.9)" width="700.0" xlink:href="#shape12"/>
      <use ffdec:characterId="951" height="18.1" id="txt_name" transform="matrix(1.0, 0.0, 0.0, 1.0, -63.85, -49.05)" width="129.05" xlink:href="#text1"/>
      <use ffdec:characterId="952" height="35.25" id="txt_desc" transform="matrix(1.0, 0.0, 0.0, 1.0, -64.35, -35.05)" width="129.05" xlink:href="#text2"/>
    </g>
    <g id="shape12" transform="matrix(1.0, 0.0, 0.0, 1.0, 0.0, 0.0)">
      <path d="M700.0 400.0 L0.0 400.0 0.0 0.0 700.0 0.0 700.0 400.0" fill="#000000" fill-opacity="0.49803922" fill-rule="evenodd" stroke="none"/>
    </g>
    <g id="text1" transform="matrix(1.0, 0.0, 0.0, 1.0, -51.35, 2.0)">
      <g transform="matrix(1.0, 0.0, 0.0, 1.0, 51.35, -2.0)">
        <use fill="#ffffff" height="18.1" transform="matrix(0.0117, 0.0, 0.0, 0.0117, 45.95, 13.05)" width="129.05" xlink:href="#font_Lithos_Pro_Regular_N0"/>
        <use fill="#ffffff" height="18.1" transform="matrix(0.0117, 0.0, 0.0, 0.0117, 56.95, 13.05)" width="129.05" xlink:href="#font_Lithos_Pro_Regular_a0"/>
        <use fill="#ffffff" height="18.1" transform="matrix(0.0117, 0.0, 0.0, 0.0117, 65.45, 13.05)" width="129.05" xlink:href="#font_Lithos_Pro_Regular_m0"/>
        <use fill="#ffffff" height="18.1" transform="matrix(0.0117, 0.0, 0.0, 0.0117, 76.75, 13.05)" width="129.05" xlink:href="#font_Lithos_Pro_Regular_e0"/>
      </g>
    </g>
    <g id="font_Lithos_Pro_Regular_N0">
      <path d="M216.5 7.5 L120.0 0.0 Q121.5 -20.5 124.5 -75.5 127.0 -130.5 131.0 -207.0 135.0 -283.5 139.0 -368.0 143.0 -452.5 147.0 -531.5 151.0 -610.5 153.5 -670.5 156.5 -730.5 158.0 -758.0 L160.0 -758.0 Q168.0 -748.5 209.0 -705.5 249.5 -663.0 309.5 -600.0 370.0 -537.0 437.0 -467.5 503.5 -398.0 564.0 -335.0 624.5 -272.0 666.0 -229.5 707.5 -186.5 716.5 -177.0 716.5 -185.5 717.0 -225.0 717.5 -265.0 718.0 -323.5 719.0 -382.5 720.0 -447.5 720.5 -513.0 721.5 -572.0 722.5 -631.5 723.0 -672.0 723.5 -712.5 724.0 -722.0 L819.0 -716.5 Q818.0 -697.0 815.0 -641.0 812.5 -585.0 808.5 -504.5 805.0 -424.0 801.5 -332.0 798.0 -240.0 795.5 -148.5 792.5 -57.0 791.5 21.5 L789.5 21.5 Q781.5 13.5 739.5 -29.5 697.0 -72.5 635.0 -136.5 572.5 -200.5 504.0 -271.5 435.0 -342.5 373.5 -406.5 312.0 -470.0 271.5 -513.0 231.5 -555.5 225.5 -563.0 L223.5 -563.0 Q223.5 -553.0 223.0 -511.0 222.5 -468.5 221.5 -407.0 220.5 -345.0 219.5 -277.0 218.5 -209.0 217.5 -147.5 217.0 -86.0 216.5 -44.0 216.0 -2.0 216.5 7.5" fill-rule="evenodd" stroke="none"/>
    </g>
    <g id="font_Lithos_Pro_Regular_a0">
      <path d="M226.5 -255.0 L476.5 -265.0 Q473.0 -271.5 460.0 -295.0 447.5 -318.5 430.0 -350.5 412.5 -382.5 395.0 -414.0 378.0 -445.5 365.0 -468.0 352.5 -490.5 349.5 -495.5 345.0 -488.5 332.5 -464.0 319.5 -439.5 303.0 -406.0 286.0 -373.0 269.5 -340.0 253.0 -307.0 241.0 -283.5 229.5 -260.0 226.5 -255.0 M93.5 18.5 L14.5 -26.5 Q27.5 -49.5 55.0 -100.0 83.0 -150.5 119.0 -216.5 155.0 -283.0 193.5 -353.0 231.5 -423.5 265.0 -485.0 299.0 -547.0 322.0 -589.0 345.0 -630.5 350.5 -640.0 L352.5 -640.0 Q376.5 -601.5 414.5 -538.0 452.0 -474.0 496.0 -399.0 540.0 -323.5 582.5 -250.0 625.5 -176.5 660.0 -119.0 694.0 -61.0 713.0 -32.5 L630.0 17.5 Q623.0 4.0 605.5 -28.5 587.5 -61.0 566.5 -99.0 545.5 -137.0 529.0 -166.5 512.0 -196.0 508.0 -202.5 L191.5 -190.5 Q186.5 -179.0 173.0 -150.5 159.5 -121.5 143.5 -86.5 127.0 -52.0 113.0 -23.0 99.0 6.5 93.5 18.5" fill-rule="evenodd" stroke="none"/>
    </g>
    <g id="font_Lithos_Pro_Regular_m0">
      <path d="M115.0 22.5 L31.0 -4.0 Q35.5 -14.5 51.5 -61.5 68.0 -108.0 91.0 -176.5 114.5 -245.0 140.0 -320.0 165.0 -395.0 187.5 -462.0 210.0 -529.0 224.5 -573.0 239.0 -617.5 241.0 -624.0 L245.0 -624.0 Q254.0 -606.5 276.0 -563.5 298.5 -521.0 327.5 -465.5 356.5 -410.5 385.5 -355.5 414.5 -300.5 437.0 -259.0 459.5 -217.0 468.0 -201.0 477.5 -216.5 502.5 -258.5 527.5 -300.0 560.0 -354.0 592.0 -408.0 623.5 -460.5 655.0 -513.0 677.5 -550.5 700.0 -588.0 705.5 -597.5 L708.5 -597.5 Q716.0 -579.0 732.5 -535.5 749.0 -492.5 771.5 -434.0 793.5 -375.5 818.0 -311.5 842.5 -247.5 865.5 -187.0 889.0 -127.0 907.0 -80.0 925.0 -33.0 935.0 -9.5 L850.0 22.5 Q843.0 1.5 826.0 -47.0 809.5 -95.5 787.5 -156.5 766.0 -218.0 745.0 -277.0 724.0 -336.5 708.5 -379.5 693.5 -422.0 689.5 -433.5 680.0 -418.0 657.5 -381.5 635.5 -345.5 606.5 -298.0 577.5 -250.5 548.0 -202.0 518.5 -153.5 494.5 -114.5 470.5 -75.5 458.0 -55.5 L456.0 -55.5 Q436.0 -93.0 408.0 -144.5 380.5 -196.5 351.0 -252.5 321.5 -308.0 295.5 -356.5 270.0 -405.0 254.0 -435.5 250.0 -421.0 239.0 -385.0 228.0 -349.0 213.0 -300.0 198.0 -251.5 182.0 -199.0 166.0 -146.5 151.5 -99.0 137.0 -52.0 127.5 -19.5 117.5 13.5 115.0 22.5" fill-rule="evenodd" stroke="none"/>
    </g>
    <g id="font_Lithos_Pro_Regular_e0">
      <path d="M458.5 -68.5 L461.5 9.5 Q451.5 9.5 417.0 8.5 383.0 7.5 337.5 6.0 292.0 5.0 247.0 3.5 202.0 2.0 170.5 1.0 138.5 0.0 132.0 0.0 133.0 -18.5 133.5 -56.0 134.5 -93.5 134.5 -136.0 135.0 -178.0 135.0 -211.0 135.0 -244.0 135.0 -252.5 L135.0 -368.5 Q135.0 -373.5 135.0 -397.5 134.5 -421.5 134.0 -454.5 134.0 -488.0 133.5 -521.5 133.0 -555.0 132.5 -579.5 132.5 -603.5 132.0 -609.5 139.5 -609.5 168.5 -611.0 197.5 -612.0 238.0 -614.5 278.5 -616.5 320.0 -618.5 362.0 -621.0 395.0 -623.0 428.5 -625.0 443.0 -626.0 L447.0 -552.0 Q431.0 -552.0 397.5 -551.5 364.0 -551.0 326.5 -550.0 288.5 -549.0 259.5 -548.5 231.0 -548.0 224.0 -548.0 L224.0 -334.5 Q231.0 -334.5 253.5 -335.0 276.0 -336.0 305.5 -337.0 335.5 -338.5 365.0 -340.0 394.5 -342.0 416.5 -343.5 L419.5 -269.0 Q407.0 -269.0 378.5 -269.5 350.5 -270.0 317.0 -271.0 284.5 -271.0 258.5 -271.5 232.5 -272.0 224.0 -272.0 L224.0 -65.5 Q233.0 -65.5 258.0 -65.0 283.0 -65.0 317.0 -65.0 351.5 -65.0 388.5 -66.0 425.5 -66.5 458.5 -68.5" fill-rule="evenodd" stroke="none"/>
    </g>
    <g id="text2" transform="matrix(1.0, 0.0, 0.0, 1.0, -51.35, 2.0)">
      <g transform="matrix(1.0, 0.0, 0.0, 1.0, 51.35, -2.0)">
        <use fill="#ffffff" height="35.25" transform="matrix(0.0098, 0.0, 0.0, 0.0098, 49.05, 7.2)" width="129.05" xlink:href="#font_Lithos_Pro_Regular_N0"/>
        <use fill="#ffffff" height="35.25" transform="matrix(0.0098, 0.0, 0.0, 0.0098, 58.2, 7.2)" width="129.05" xlink:href="#font_Lithos_Pro_Regular_a0"/>
        <use fill="#ffffff" height="35.25" transform="matrix(0.0098, 0.0, 0.0, 0.0098, 65.3, 7.2)" width="129.05" xlink:href="#font_Lithos_Pro_Regular_m0"/>
        <use fill="#ffffff" height="35.25" transform="matrix(0.0098, 0.0, 0.0, 0.0098, 74.7, 7.2)" width="129.05" xlink:href="#font_Lithos_Pro_Regular_e0"/>
      </g>
      <g transform="matrix(1.0, 0.0, 0.0, 1.0, 51.35, -2.0)">
        <use fill="#ffffff" height="35.25" transform="matrix(0.0098, 0.0, 0.0, 0.0098, 46.0, 16.95)" width="129.05" xlink:href="#font_Lithos_Pro_Regular_k0"/>
        <use fill="#ffffff" height="35.25" transform="matrix(0.0098, 0.0, 0.0, 0.0098, 52.6, 16.95)" width="129.05" xlink:href="#font_Lithos_Pro_Regular_j0"/>
        <use fill="#ffffff" height="35.25" transform="matrix(0.0098, 0.0, 0.0, 0.0098, 56.25, 16.95)" width="129.05" xlink:href="#font_Lithos_Pro_Regular_h0"/>
        <use fill="#ffffff" height="35.25" transform="matrix(0.0098, 0.0, 0.0, 0.0098, 64.5, 16.95)" width="129.05" xlink:href="#font_Lithos_Pro_Regular_k0"/>
        <use fill="#ffffff" height="35.25" transform="matrix(0.0098, 0.0, 0.0, 0.0098, 71.1, 16.95)" width="129.05" xlink:href="#font_Lithos_Pro_Regular_j0"/>
        <use fill="#ffffff" height="35.25" transform="matrix(0.0098, 0.0, 0.0, 0.0098, 74.75, 16.95)" width="129.05" xlink:href="#font_Lithos_Pro_Regular_h0"/>
      </g>
      <g transform="matrix(1.0, 0.0, 0.0, 1.0, 51.35, -2.0)">
        <use fill="#ffffff" height="35.25" transform="matrix(0.0098, 0.0, 0.0, 0.0098, 46.0, 26.7)" width="129.05" xlink:href="#font_Lithos_Pro_Regular_k0"/>
        <use fill="#ffffff" height="35.25" transform="matrix(0.0098, 0.0, 0.0, 0.0098, 52.6, 26.7)" width="129.05" xlink:href="#font_Lithos_Pro_Regular_j0"/>
        <use fill="#ffffff" height="35.25" transform="matrix(0.0098, 0.0, 0.0, 0.0098, 56.25, 26.7)" width="129.05" xlink:href="#font_Lithos_Pro_Regular_h0"/>
        <use fill="#ffffff" height="35.25" transform="matrix(0.0098, 0.0, 0.0, 0.0098, 64.5, 26.7)" width="129.05" xlink:href="#font_Lithos_Pro_Regular_k0"/>
        <use fill="#ffffff" height="35.25" transform="matrix(0.0098, 0.0, 0.0, 0.0098, 71.1, 26.7)" width="129.05" xlink:href="#font_Lithos_Pro_Regular_j0"/>
        <use fill="#ffffff" height="35.25" transform="matrix(0.0098, 0.0, 0.0, 0.0098, 74.75, 26.7)" width="129.05" xlink:href="#font_Lithos_Pro_Regular_h0"/>
      </g>
    </g>
    <g id="font_Lithos_Pro_Regular_k0">
      <path d="M621.5 -61.5 L558.0 8.5 Q553.5 4.0 523.0 -26.5 493.0 -56.5 449.0 -100.5 405.0 -144.0 359.5 -189.5 314.0 -235.5 278.5 -271.0 243.0 -306.5 230.0 -320.5 235.5 -326.0 265.5 -353.5 295.5 -381.5 337.5 -421.0 379.5 -460.5 421.5 -500.5 464.0 -540.5 495.0 -569.5 526.0 -599.0 533.0 -606.5 L587.5 -540.0 Q572.5 -528.5 540.0 -501.0 507.0 -473.5 467.0 -440.0 427.0 -406.0 392.0 -375.5 356.5 -345.0 336.5 -327.0 346.0 -316.0 373.5 -289.5 401.5 -262.5 438.5 -228.0 476.0 -193.5 513.5 -159.0 551.0 -124.5 580.5 -98.0 609.5 -72.0 621.5 -61.5 M228.0 9.5 L130.0 9.5 Q130.5 -1.0 131.5 -30.0 132.5 -59.0 133.0 -99.0 134.0 -139.5 134.5 -182.5 135.0 -225.5 135.0 -263.0 L135.0 -355.5 Q135.0 -385.0 134.0 -426.0 133.5 -466.5 132.5 -508.0 131.5 -549.5 130.5 -580.0 130.0 -610.5 130.0 -619.0 L228.0 -619.0 Q227.5 -612.5 227.0 -583.5 226.0 -554.5 225.0 -514.5 224.5 -474.0 223.5 -433.5 223.0 -393.0 223.0 -363.5 L223.0 -270.5 Q223.0 -244.0 223.5 -200.5 224.0 -157.5 225.0 -111.5 225.5 -66.0 226.5 -32.0 227.5 1.5 228.0 9.5" fill-rule="evenodd" stroke="none"/>
    </g>
    <g id="font_Lithos_Pro_Regular_j0">
      <path d="M258.0 -400.5 L258.0 -264.5 Q257.0 -170.0 230.5 -104.5 204.0 -39.5 161.5 1.0 119.0 41.5 70.5 61.5 L25.5 -7.5 Q70.0 -25.5 102.0 -57.0 134.0 -88.5 151.5 -139.5 169.0 -190.5 169.0 -266.5 L169.0 -402.5 Q169.0 -409.0 168.5 -438.0 168.0 -467.0 167.5 -503.5 166.5 -540.5 166.0 -570.5 165.5 -600.5 165.0 -609.5 L263.0 -609.5 Q262.0 -601.0 261.0 -571.5 259.5 -542.0 259.0 -497.5 258.0 -453.5 258.0 -400.5" fill-rule="evenodd" stroke="none"/>
    </g>
    <g id="font_Lithos_Pro_Regular_h0">
      <path d="M228.0 0.0 L132.0 0.0 Q132.5 -12.0 133.0 -40.0 133.5 -67.5 134.0 -103.0 134.5 -138.0 134.5 -172.0 135.0 -206.5 135.0 -231.5 135.0 -256.5 135.0 -264.0 L135.0 -358.0 Q135.0 -363.0 134.5 -388.0 134.5 -412.5 134.0 -447.0 133.5 -481.5 132.5 -516.5 132.0 -551.5 131.0 -577.0 130.5 -602.5 130.0 -609.5 L229.0 -609.5 Q228.5 -604.0 228.0 -583.0 227.0 -562.5 226.5 -533.5 225.5 -504.5 225.0 -476.0 224.5 -447.0 224.5 -426.0 224.0 -405.0 224.0 -400.0 L224.0 -336.5 618.5 -352.5 618.5 -418.5 Q618.5 -425.0 618.0 -451.5 618.0 -478.5 617.5 -512.0 617.0 -546.0 616.5 -573.5 616.0 -601.0 615.5 -609.5 L714.5 -609.5 Q714.0 -602.5 713.0 -574.5 712.0 -547.0 711.0 -509.0 710.5 -471.0 709.5 -432.5 708.5 -394.5 708.0 -367.0 707.5 -339.0 707.5 -332.0 L707.5 -245.5 Q707.5 -241.5 707.5 -217.0 708.0 -193.0 708.5 -159.0 708.5 -124.5 709.0 -90.0 710.0 -56.0 710.5 -31.0 711.0 -6.0 711.5 0.0 L613.5 0.0 Q614.5 -12.0 615.5 -41.5 616.5 -71.0 617.0 -105.0 618.0 -139.5 618.0 -166.5 618.5 -193.5 618.5 -200.5 L618.5 -288.5 224.0 -272.0 224.0 -219.0 Q224.0 -203.5 224.5 -171.0 225.0 -139.0 225.5 -102.5 226.5 -66.0 227.0 -37.5 227.5 -8.5 228.0 0.0" fill-rule="evenodd" stroke="none"/>
    </g>
  </defs>
</svg>
