<?xml version="1.0" encoding="UTF-8" standalone="no"?>
<svg xmlns:ffdec="https://www.free-decompiler.com/flash" xmlns:xlink="http://www.w3.org/1999/xlink" ffdec:objectType="frame" height="135.65px" width="129.65px" xmlns="http://www.w3.org/2000/svg">
  <g transform="matrix(1.0, 0.0, 0.0, 1.0, 45.0, 57.4)">
    <use ffdec:characterId="933" height="47.45" id="bgcolor" transform="matrix(1.0, 0.0, 0.0, 1.0, -4.2, -3.9)" width="47.45" xlink:href="#sprite0"/>
    <use ffdec:characterId="921" height="22.0" id="hitbox" transform="matrix(2.2297, 0.0, 0.0, 2.1749, -4.55, -4.25)" width="22.0" xlink:href="#sprite1"/>
    <clipPath id="clipPath0">
      <path d="M 0 0 L 0 40 L 40 40 L 40 0 Z"/>
    </clipPath>
    <g clip-path="url(#clipPath0)">
      <filter id="filter0">
        <feColorMatrix in="SourceGraphic" result="filterResult0" type="matrix" values="0 0 0 0 1.0,0 0 0 0 0.0,0 0 0 0 0.0,0 0 0 1 0"/>
        <feConvolveMatrix divisor="25.0" in="filterResult0" kernelMatrix="1 1 1 1 1 1 1 1 1 1 1 1 1 1 1 1 1 1 1 1 1 1 1 1 1" order="5 5" result="filterResult1"/>
        <feComposite in="SourceGraphic" in2="filterResult1" operator="over" result="filterResult2"/>
      </filter>
      <use ffdec:characterId="345" filter="url(#filter0)" height="160.5" id="MC" transform="matrix(0.2835, 0.0, 0.0, 0.2835, 2.5194, -2.6095)" width="169.0" xlink:href="#sprite2"/>
    </g>
    <filter id="filter1">
      <feColorMatrix in="SourceGraphic" result="filterResult3" type="matrix" values="0 0 0 0 0.0,0 0 0 0 0.0,0 0 0 0 0.0,0 0 0 1 0"/>
      <feConvolveMatrix divisor="4.0" in="filterResult3" kernelMatrix="1 1 1 1" order="2 2" result="filterResult4"/>
      <feComposite in="SourceGraphic" in2="filterResult4" operator="over" result="filterResult5"/>
    </filter>
    <use ffdec:characterId="935" filter="url(#filter1)" height="15.75" id="txt_hotkey" transform="matrix(1.0, 0.0, 0.0, 1.0, -3.85, -0.1)" width="18.0" xlink:href="#text0"/>
    <use ffdec:characterId="948" ffdec:characterName="Army_fla.Hud_BgButton_151" height="97.6" id="bg" transform="matrix(1.0, 0.0, 0.0, 1.0, -29.05, -29.25)" width="97.6" xlink:href="#sprite3"/>
    <use ffdec:characterId="950" ffdec:characterName="Army_fla.Hud_cooldown_152" height="48.5" id="cdcover" transform="matrix(0.9979, 0.0, 0.0, 0.9897, -4.2, -3.9997)" width="48.1" xlink:href="#sprite4"/>
    <use ffdec:characterId="950" ffdec:characterName="Army_fla.Hud_cooldown_152" height="48.5" id="cd" transform="matrix(0.9979, 0.0, 0.0, 0.9897, -4.2, -3.9997)" width="48.1" xlink:href="#sprite5"/>
    <use ffdec:characterId="953" ffdec:characterName="Army_fla.Hud_Description_153" height="50.1" id="desc" transform="matrix(1.0, 0.0, 0.0, 1.0, -44.9, -57.4)" width="129.55" xlink:href="#sprite6"/>
  </g>
  <defs>
    <g id="sprite0" transform="matrix(1.0, 0.0, 0.0, 1.0, 0.0, 0.0)">
      <use ffdec:characterId="932" height="47.45" transform="matrix(1.0, 0.0, 0.0, 1.0, 0.0, 0.0)" width="47.45" xlink:href="#shape0"/>
    </g>
    <g id="shape0" transform="matrix(1.0, 0.0, 0.0, 1.0, 0.0, 0.0)">
      <path d="M47.45 0.0 L47.45 47.45 0.0 47.45 0.0 0.0 47.45 0.0" fill="#564732" fill-rule="evenodd" stroke="none"/>
    </g>
    <g id="sprite1" transform="matrix(1.0, 0.0, 0.0, 1.0, 0.0, 0.0)">
      <use ffdec:characterId="145" height="22.0" transform="matrix(1.0, 0.0, 0.0, 1.0, 0.0, 0.0)" width="22.0" xlink:href="#shape1"/>
    </g>
    <g id="shape1" transform="matrix(1.0, 0.0, 0.0, 1.0, 0.0, 0.0)">
      <path d="M22.0 0.0 L22.0 22.0 0.0 22.0 0.0 0.0 22.0 0.0" fill="#00ff00" fill-opacity="0.0" fill-rule="evenodd" stroke="none"/>
    </g>
    <g id="sprite2" transform="matrix(1.0, 0.0, 0.0, 1.0, 43.5, 144.85)">
      <use ffdec:characterId="201" height="34.0" transform="matrix(1.0, 0.0, 0.0, 1.0, -22.7, -28.1)" width="46.45" xlink:href="#shape2"/>
      <use ffdec:characterId="202" height="88.5" transform="matrix(-0.7383, -0.0963, 0.1292, -0.9904, -14.4654, -21.102)" width="27.5" xlink:href="#shape3"/>
      <use ffdec:characterId="202" height="88.5" transform="matrix(-0.7383, -0.0963, 0.1292, -0.9904, -6.3654, -29.702)" width="27.5" xlink:href="#shape3"/>
      <use ffdec:characterId="202" height="88.5" transform="matrix(-0.7383, -0.0963, 0.1292, -0.9904, -1.4154, -21.052)" width="27.5" xlink:href="#shape3"/>
      <use ffdec:characterId="327" height="76.1" transform="matrix(1.0, 0.0, 0.0, 1.0, -37.95, -84.35)" width="92.05" xlink:href="#shape4"/>
      <use ffdec:characterId="328" height="71.65" transform="matrix(0.991, 0.1308, -0.1308, 0.991, -19.6928, -139.6001)" width="69.5" xlink:href="#shape5"/>
      <use ffdec:characterId="329" height="117.95" transform="matrix(0.6719, 0.7379, -0.7379, 0.6719, 74.7257, -82.4752)" width="25.6" xlink:href="#shape6"/>
      <use ffdec:characterId="202" height="88.5" transform="matrix(-0.5846, 0.5639, -0.6256, -0.6485, 96.7223, -4.9076)" width="27.5" xlink:href="#shape3"/>
      <use ffdec:characterId="298" height="51.75" transform="matrix(0.7655, -0.6418, 0.6418, 0.7655, -17.2576, -62.2026)" width="32.7" xlink:href="#shape7"/>
    </g>
    <g id="shape2" transform="matrix(1.0, 0.0, 0.0, 1.0, 29.45, 30.75)">
      <path d="M9.0 -1.05 L5.85 -1.1 4.45 -1.1 4.5 -15.45 11.75 -16.5 12.45 -16.6 12.5 -14.45 Q12.55 -13.2 12.95 -11.05 L13.5 -7.7 13.6 -5.2 Q11.5 -5.55 10.65 -4.2 L9.0 -1.4 9.0 -1.05 M-24.4 -1.9 Q-27.7 -5.3 -27.05 -9.25 L-26.75 -11.15 Q-23.95 -10.75 -18.35 -12.85 -13.25 -14.75 -12.4 -15.5 L-12.3 -15.4 -10.45 -13.35 Q-9.0 -11.9 -7.65 -11.35 L-9.6 -10.0 Q-10.1 -9.5 -11.9 -8.3 L-14.2 -6.7 Q-14.7 -6.2 -16.05 -5.45 -17.55 -4.75 -18.0 -4.3 L-18.55 -3.65 Q-19.8 -4.7 -21.7 -4.1 L-23.9 -2.7 -24.35 -1.95 -24.4 -1.9 M10.5 -1.05 L13.2 -2.85 14.0 -0.95 10.5 -1.05 M-24.15 -1.65 L-24.15 -1.85 -21.65 -1.55 -20.0 -1.9 Q-19.95 -1.05 -20.2 0.4 L-20.4 0.9 Q-23.2 -0.7 -24.15 -1.65" fill="#372c22" fill-rule="evenodd" stroke="none"/>
      <path d="M12.95 -26.5 Q12.9 -23.45 13.5 -20.7 13.9 -18.95 14.5 -17.65 14.4 -14.35 15.15 -10.65 16.0 -6.45 16.0 -4.15 L16.0 -2.5 16.2 -2.15 Q17.0 -0.8 17.0 0.1 L16.85 1.0 14.95 1.1 -1.0 1.75 Q-1.45 0.85 -2.25 0.25 L-2.1 0.1 -2.3 -0.65 -2.5 -2.2 Q-2.5 -7.45 -1.75 -12.35 L-2.0 -12.1 Q-3.15 -10.95 -10.25 -6.35 L-13.55 -3.65 Q-15.4 -2.4 -17.55 -2.05 -17.3 -0.3 -18.75 3.05 -19.45 3.55 -20.45 2.85 L-20.45 2.65 Q-22.7 1.9 -26.2 -0.7 -29.15 -3.65 -29.45 -8.95 -29.6 -12.5 -28.75 -14.35 L-28.7 -15.0 -28.6 -15.4 -28.85 -15.65 -28.6 -15.7 -28.15 -17.65 -26.9 -18.3 -26.3 -18.3 -24.75 -18.95 -22.7 -19.4 Q-19.2 -20.1 -17.0 -22.3 L-15.95 -22.65 Q-12.55 -25.45 -9.55 -26.65 -3.2 -29.1 1.3 -24.6 L1.55 -24.35 Q3.4 -28.25 5.9 -29.95 8.6 -31.75 10.8 -29.6 L12.95 -26.5 M9.0 -1.4 L10.65 -4.2 Q11.5 -5.55 13.6 -5.2 L13.5 -7.7 12.95 -11.05 Q12.55 -13.2 12.5 -14.45 L12.45 -16.6 11.75 -16.5 4.5 -15.45 4.45 -1.1 5.85 -1.1 9.0 -1.05 9.05 -1.05 9.35 -1.05 9.0 -1.4 M10.5 -1.05 L14.0 -0.95 13.2 -2.85 10.5 -1.05 M-12.4 -15.5 Q-13.25 -14.75 -18.35 -12.85 -23.95 -10.75 -26.75 -11.15 L-27.05 -9.25 Q-27.7 -5.3 -24.4 -1.9 L-24.15 -1.65 Q-23.2 -0.7 -20.4 0.9 -20.35 0.85 -20.25 0.95 L-20.2 0.4 Q-19.95 -1.05 -20.0 -1.9 L-21.65 -1.55 -24.15 -1.85 Q-24.25 -1.85 -24.35 -1.95 L-23.9 -2.7 -21.7 -4.1 Q-19.8 -4.7 -18.55 -3.65 L-18.0 -4.3 Q-17.55 -4.75 -16.05 -5.45 -14.7 -6.2 -14.2 -6.7 L-11.9 -8.3 Q-10.1 -9.5 -9.6 -10.0 L-7.65 -11.35 Q-9.0 -11.9 -10.45 -13.35 L-12.3 -15.4 -12.35 -15.55 -12.4 -15.5" fill="#000000" fill-rule="evenodd" stroke="none"/>
      <path d="M9.0 -1.05 L9.0 -1.4 9.05 -1.05 9.0 -1.05" fill="#5b6171" fill-rule="evenodd" stroke="none"/>
    </g>
    <g id="shape3" transform="matrix(1.0, 0.0, 0.0, 1.0, 13.75, 44.25)">
      <path d="M-3.2 -19.55 L-3.2 -19.6 -3.25 -23.1 -3.1 -26.95 Q-2.6 -29.85 -0.75 -30.25 3.5 -30.5 3.95 -27.2 L4.25 -22.2 4.25 -19.0 7.75 -18.45 Q7.25 -22.15 4.7 -28.55 L0.3 -39.25 Q-2.05 -35.85 -4.35 -29.4 L-7.7 -19.0 -4.25 -19.25 -3.2 -19.15 -3.15 -19.15 -3.2 -19.55 M1.45 -27.75 L1.25 -28.2 Q-1.95 -26.7 -1.7 -23.4 L-1.25 -20.45 -1.1 -18.75 2.45 -18.75 2.55 -18.85 1.95 -21.9 Q1.55 -24.75 1.75 -27.5 L1.45 -27.75 M5.45 -32.3 Q10.25 -20.5 10.25 -17.85 L10.0 -16.25 Q9.65 -15.75 8.5 -15.75 6.95 -15.75 5.35 -16.75 L4.25 -17.4 4.25 -17.25 3.6 -16.9 3.85 -13.65 3.75 -7.75 3.8 -1.2 3.75 3.5 3.7 13.05 Q6.45 13.4 9.8 16.55 13.25 19.8 13.25 20.9 L13.25 21.35 13.6 22.3 13.75 25.65 13.45 32.75 12.75 43.75 11.75 44.25 11.6 44.15 11.0 44.25 6.05 39.25 2.1 35.05 1.75 35.25 -1.95 35.25 -2.1 35.1 -2.1 35.05 -3.65 36.1 -6.7 38.0 Q-9.9 41.4 -11.75 42.75 -13.15 42.0 -13.55 39.05 L-13.75 34.15 Q-13.25 26.3 -13.25 22.55 -13.9 19.85 -10.6 16.95 -7.4 14.1 -2.85 13.35 L-2.75 4.75 -2.8 -1.45 -2.75 -7.7 -2.9 -13.9 -2.7 -16.75 -2.95 -16.75 -3.1 -16.9 -3.25 -17.55 -5.05 -17.1 -7.0 -16.75 Q-9.3 -16.75 -9.75 -17.85 L-9.75 -19.15 Q-9.75 -22.95 -4.9 -33.75 -1.05 -42.3 0.25 -44.25 1.15 -42.8 5.45 -32.3 M1.85 -16.75 L-0.85 -16.75 -0.65 -13.65 -0.75 -7.75 Q-0.65 -5.45 -0.7 -1.2 L-0.75 3.5 -0.85 15.2 Q-1.0 26.05 -1.35 32.5 L-0.55 32.6 0.2 32.9 0.9 32.75 1.45 32.7 1.3 31.9 1.25 29.4 1.75 4.75 1.7 -1.45 Q1.65 -5.2 1.75 -7.7 L1.6 -13.9 Q1.6 -15.55 1.85 -16.75 M3.85 14.9 L3.65 14.75 3.65 15.2 3.1 32.95 3.25 33.5 Q5.0 34.45 7.05 36.85 L10.75 41.25 10.75 40.15 11.25 21.8 11.25 21.7 8.35 19.05 3.85 14.9 M-11.6 39.2 Q-10.2 37.15 -7.4 35.5 L-2.95 33.1 -3.2 31.9 -3.25 29.4 -2.85 14.85 -5.8 16.35 Q-9.95 18.45 -10.45 21.05 L-10.85 25.4 Q-11.05 28.05 -11.75 29.3 L-11.75 39.05 -11.7 39.3 -11.6 39.2" fill="#000000" fill-rule="evenodd" stroke="none"/>
      <path d="M-3.2 -19.15 L-4.25 -19.25 -7.7 -19.0 -4.35 -29.4 Q-2.05 -35.85 0.3 -39.25 L4.7 -28.55 Q7.25 -22.15 7.75 -18.45 L4.25 -19.0 4.25 -22.2 3.95 -27.2 Q3.5 -30.5 -0.75 -30.25 -2.6 -29.85 -3.1 -26.95 L-3.25 -23.1 -3.2 -19.6 -3.2 -19.55 -3.2 -19.15 M1.45 -27.75 L1.75 -27.5 Q1.55 -24.75 1.95 -21.9 L2.55 -18.85 2.45 -18.75 -1.1 -18.75 -1.25 -20.45 -1.7 -23.4 Q-1.95 -26.7 1.25 -28.2 L1.45 -27.75" fill="#60606c" fill-rule="evenodd" stroke="none"/>
      <path d="M1.85 -16.75 Q1.6 -15.55 1.6 -13.9 L1.75 -7.7 Q1.65 -5.2 1.7 -1.45 L1.75 4.75 1.25 29.4 1.3 31.9 1.45 32.7 0.9 32.75 0.2 32.9 -0.55 32.6 -1.35 32.5 Q-1.0 26.05 -0.85 15.2 L-0.75 3.5 -0.7 -1.2 Q-0.65 -5.45 -0.75 -7.75 L-0.65 -13.65 -0.85 -16.75 1.85 -16.75" fill="#14100c" fill-rule="evenodd" stroke="none"/>
      <path d="M3.65 15.2 L3.85 14.9 8.35 19.05 11.25 21.7 11.25 21.8 10.75 40.15 10.75 41.25 7.05 36.85 Q5.0 34.45 3.25 33.5 L3.1 32.95 3.65 15.2 M-11.75 39.05 L-11.75 29.3 Q-11.05 28.05 -10.85 25.4 L-10.45 21.05 Q-9.95 18.45 -5.8 16.35 L-2.85 14.85 -3.25 29.4 -3.2 31.9 -2.95 33.1 -7.4 35.5 Q-10.2 37.15 -11.6 39.2 L-11.75 39.05" fill="#942403" fill-rule="evenodd" stroke="none"/>
    </g>
    <g id="shape4" transform="matrix(1.0, 0.0, 0.0, 1.0, 46.0, 38.05)">
      <path d="M2.45 -26.0 L6.45 -25.95 7.35 -25.75 9.85 -24.45 15.25 -21.35 Q16.2 -21.75 17.85 -20.4 L21.05 -16.95 Q21.6 -15.1 25.55 -9.9 L29.8 -3.15 32.75 2.6 33.4 3.2 33.75 3.25 Q34.0 3.35 34.05 3.95 L35.7 6.3 39.05 12.05 42.7 16.9 Q46.05 21.4 46.05 22.65 46.05 23.8 45.85 23.65 46.25 24.05 45.05 24.05 L43.45 25.85 42.35 27.3 Q39.35 31.05 36.55 31.05 L36.35 31.05 34.8 31.55 34.65 31.5 34.05 31.55 33.7 31.4 Q32.75 30.7 30.3 27.5 27.4 23.6 26.55 21.85 L24.05 17.45 Q22.7 14.95 22.3 13.65 19.25 15.55 18.05 15.55 L16.35 15.3 Q16.15 15.6 16.1 15.0 14.5 14.5 12.55 10.8 L11.45 8.6 11.3 10.15 11.1 13.45 Q12.75 13.35 13.75 14.85 15.15 18.15 15.95 19.1 L19.35 23.15 Q20.45 24.55 20.45 26.2 L20.3 27.15 20.1 27.3 20.25 27.45 19.95 27.55 19.95 27.65 19.9 28.5 19.7 28.85 Q20.55 30.95 21.55 35.45 L21.55 36.2 21.35 36.6 21.4 36.85 20.55 37.05 20.4 37.25 Q20.2 37.25 20.1 37.55 L-7.2 38.05 -19.7 37.85 -31.45 37.35 -31.45 35.45 -31.45 34.55 -32.2 34.55 Q-42.0 34.55 -44.95 29.1 -45.9 27.4 -46.0 25.35 L-45.95 23.65 Q-45.95 19.15 -42.45 5.65 L-42.45 5.45 Q-42.45 4.35 -41.0 -0.4 L-39.45 -5.7 -38.45 -11.45 Q-37.9 -14.7 -36.95 -16.95 -36.1 -19.0 -35.35 -22.95 L-34.15 -29.55 Q-32.4 -37.15 -27.95 -37.95 L-27.95 -38.05 -18.85 -37.55 Q-6.95 -36.45 -6.95 -32.15 L-7.35 -29.5 -7.85 -26.9 -6.45 -26.95 -6.35 -27.2 -4.35 -27.0 -3.95 -26.95 -4.0 -26.9 2.45 -26.0 M13.45 -5.4 Q15.45 -10.1 15.45 -13.6 L15.5 -13.75 15.55 -14.05 15.6 -14.7 Q15.25 -15.35 14.85 -16.3 L14.35 -17.5 13.35 -20.0 13.15 -20.2 13.0 -20.35 12.9 -20.4 12.0 -21.0 11.65 -21.2 11.3 -21.4 10.55 -21.75 10.3 -21.9 9.7 -22.15 9.0 -22.4 8.35 -22.65 7.7 -22.85 7.6 -22.85 7.5 -22.9 7.1 -23.0 6.65 -23.1 6.15 -23.25 Q5.85 -22.95 5.2 -22.95 L5.15 -22.95 5.35 -22.3 4.05 -22.45 3.1 -22.35 3.0 -23.1 1.75 -23.25 2.9 -22.25 Q5.85 -19.5 8.65 -14.65 L10.6 -11.0 13.2 -5.3 13.3 -5.05 13.45 -5.4 M18.4 -16.6 L17.2 -18.05 17.9 -16.05 18.5 -13.8 18.1 -12.1 17.55 -9.35 17.1 -7.7 16.6 -7.5 15.45 -4.15 15.25 -3.55 15.3 -3.5 Q14.3 -1.7 14.1 0.35 L13.95 1.25 14.05 2.05 13.75 3.55 13.3 5.05 12.45 6.0 13.25 6.9 14.55 9.05 16.05 11.25 17.5 13.65 19.4 12.6 Q23.35 10.4 25.6 8.55 L29.65 5.65 31.85 4.1 Q29.3 0.6 23.7 -8.7 20.8 -13.45 18.4 -16.6 M8.65 4.3 L11.1 4.05 11.55 3.3 11.55 3.15 Q11.4 2.5 11.55 2.1 L11.85 1.5 12.0 -0.2 12.25 -1.6 Q11.2 -2.8 9.85 -6.15 L9.35 -7.4 7.05 -12.9 1.65 -20.05 Q-1.9 -24.35 -3.65 -23.45 L-3.8 -23.7 -3.85 -23.85 -6.8 -24.15 -7.15 -24.2 -7.3 -24.2 -8.45 -24.2 -10.05 -24.1 -11.75 -23.95 -12.35 -23.9 -11.95 -23.7 -11.9 -23.7 Q-9.6 -22.55 -6.85 -19.0 L-1.2 -11.15 3.35 -3.5 Q5.1 -0.45 6.8 1.75 L8.55 3.85 8.45 4.3 8.65 4.3 M42.8 22.4 Q41.0 20.4 38.3 15.85 L36.55 17.05 34.1 19.3 32.0 21.0 29.7 22.9 34.65 29.45 35.8 28.55 36.05 28.55 37.2 28.25 37.25 28.25 37.35 28.3 37.95 27.95 39.8 25.9 42.2 23.6 42.4 23.1 42.8 22.4 M25.3 15.55 Q26.85 18.95 28.05 20.6 L28.65 21.4 Q29.05 19.95 32.45 17.3 35.3 15.05 37.4 14.4 L37.05 13.75 32.85 5.75 27.1 10.3 23.9 12.6 25.3 15.55 M5.4 4.45 L6.0 4.45 5.8 4.25 Q4.35 2.85 2.4 -0.8 L-2.2 -9.4 Q-7.3 -16.45 -11.1 -20.65 L-13.45 -23.15 -13.45 -23.25 -13.45 -23.65 -13.75 -23.55 -14.6 -23.05 -14.85 -22.8 Q-15.75 -22.1 -16.9 -21.95 L-16.95 -21.95 Q-20.95 -19.75 -22.65 -16.15 -25.95 -9.3 -26.55 -6.4 -27.3 -2.9 -27.5 2.1 -26.65 2.15 -26.65 2.5 L-26.5 3.25 -26.3 3.45 Q-25.15 4.15 -19.75 4.5 L-6.05 4.8 5.4 4.45 M9.0 7.35 L9.15 6.75 -5.95 7.05 -24.15 6.35 -24.0 7.2 -23.95 9.8 -24.05 13.75 -24.35 15.85 -18.4 15.2 -9.05 14.55 7.55 13.9 7.55 13.7 8.7 13.8 9.15 13.8 9.1 13.75 8.95 13.0 9.1 13.0 9.05 10.55 Q8.85 8.45 9.0 7.35 M7.55 16.6 L7.0 16.6 6.3 16.65 4.7 16.7 3.75 16.7 -15.9 17.6 -18.9 17.8 -19.4 17.8 -20.45 17.9 -20.75 17.9 -23.3 18.05 -25.3 17.85 -26.15 20.1 -27.55 23.85 -28.1 27.25 -28.65 28.5 -26.75 28.45 -23.65 28.4 -23.5 28.4 -23.45 28.4 -22.45 28.4 -21.45 28.35 -20.15 28.3 7.6 26.85 8.45 26.8 9.55 26.65 10.05 26.65 11.8 26.6 12.7 26.6 14.05 26.6 16.95 26.55 17.05 26.55 17.8 26.55 18.25 26.55 17.1 24.75 Q15.35 21.6 14.85 21.3 L12.85 18.15 Q11.95 16.75 10.8 16.5 L9.45 16.55 9.15 16.45 8.45 16.55 8.15 16.55 7.55 16.6 M13.95 35.65 L16.55 35.55 19.35 35.55 18.55 33.3 Q17.55 30.05 17.55 29.4 L17.6 28.85 13.45 28.8 12.5 28.85 9.1 29.1 7.9 29.2 6.75 29.25 -9.55 30.05 -23.4 30.05 -28.45 30.05 -28.45 30.55 -28.45 30.85 -28.45 31.05 -28.45 31.1 Q-28.6 32.8 -29.45 35.85 L-23.5 35.85 13.95 35.65 M-26.5 13.65 L-26.5 9.25 Q-26.4 7.3 -25.95 6.05 L-27.45 5.55 Q-28.5 5.1 -28.75 4.65 L-29.35 3.5 -29.95 3.6 Q-29.5 -5.15 -27.35 -11.65 -23.8 -22.5 -15.95 -25.15 L-15.7 -25.3 -15.3 -25.45 Q-13.1 -26.45 -9.9 -26.75 L-9.95 -27.65 -9.45 -29.85 Q-8.95 -31.45 -8.95 -32.1 -8.95 -33.6 -11.55 -34.2 L-23.65 -35.7 -27.2 -35.7 -27.65 -35.15 -27.8 -35.05 -27.95 -34.95 -28.75 -34.5 Q-30.7 -33.5 -31.2 -31.4 -31.45 -30.2 -32.05 -28.5 L-32.95 -25.7 -34.2 -20.6 -35.45 -14.9 -38.0 -4.0 -39.35 1.0 Q-40.45 2.3 -40.45 4.9 L-40.4 6.55 -40.95 8.85 -42.5 15.35 Q-43.9 21.55 -43.95 23.35 L-43.95 23.45 -43.95 23.6 -43.95 23.7 Q-43.85 26.65 -41.8 29.25 -38.45 33.45 -31.35 32.5 L-31.3 32.15 -30.95 31.0 -30.95 30.95 -30.9 30.5 -30.7 30.1 -30.4 30.1 -30.35 30.05 -30.65 30.05 -30.7 30.0 -31.25 29.8 Q-31.55 29.6 -31.55 28.8 -31.55 27.5 -30.75 25.35 L-29.4 21.55 -28.0 17.7 -27.05 15.95 -27.05 14.7 -27.0 13.65 -26.9 13.65 -26.5 13.7 -26.5 13.65" fill="#000000" fill-rule="evenodd" stroke="none"/>
      <path d="M-11.9 -23.7 L-11.95 -23.7 -11.75 -23.95 -11.9 -23.7 M-26.5 13.65 L-26.5 13.7 -26.9 13.65 -26.5 13.65 M-27.65 -35.15 L-27.2 -35.7 -27.35 -35.45 -27.65 -35.15" fill="#14100c" fill-rule="evenodd" stroke="none"/>
      <path d="M2.9 -22.25 L1.75 -23.25 3.0 -23.1 3.1 -22.35 2.9 -22.25 M-6.8 -24.15 L-3.85 -23.85 -3.8 -23.7 -3.65 -23.45 Q-1.9 -24.35 1.65 -20.05 L7.05 -12.9 9.35 -7.4 9.85 -6.15 Q11.2 -2.8 12.25 -1.6 L12.0 -0.2 11.85 1.5 11.55 2.1 Q11.4 2.5 11.55 3.15 L11.55 3.3 11.1 4.05 8.65 4.3 8.55 3.85 6.8 1.75 Q5.1 -0.45 3.35 -3.5 L-1.2 -11.15 -6.85 -19.0 Q-9.6 -22.55 -11.9 -23.7 L-11.75 -23.95 -11.95 -23.7 -12.35 -23.9 -11.75 -23.95 -10.05 -24.1 -8.45 -24.2 -7.3 -24.2 -7.15 -24.2 -6.95 -24.15 -6.8 -24.15 M25.3 15.55 L23.9 12.6 27.1 10.3 32.85 5.75 37.05 13.75 37.4 14.4 Q35.3 15.05 32.45 17.3 29.05 19.95 28.65 21.4 L28.05 20.6 Q26.85 18.95 25.3 15.55 M5.4 4.45 L5.8 4.25 6.0 4.45 5.4 4.45 M9.0 7.35 Q8.85 8.45 9.05 10.55 L9.1 13.0 8.95 13.0 9.1 13.75 9.15 13.8 8.7 13.8 7.55 13.7 7.55 13.9 -9.05 14.55 -18.4 15.2 -24.35 15.85 -24.05 13.75 -23.95 9.8 -24.0 7.2 -24.15 6.35 -5.95 7.05 9.15 6.75 9.0 7.35 M-27.2 -35.7 L-23.65 -35.7 -11.55 -34.2 Q-8.95 -33.6 -8.95 -32.1 -8.95 -31.45 -9.45 -29.85 L-9.95 -27.65 -9.9 -26.75 Q-13.1 -26.45 -15.3 -25.45 L-15.7 -25.3 -15.95 -25.15 Q-23.8 -22.5 -27.35 -11.65 -29.5 -5.15 -29.95 3.6 L-29.35 3.5 -28.75 4.65 Q-28.5 5.1 -27.45 5.55 L-25.95 6.05 Q-26.4 7.3 -26.5 9.25 L-26.5 13.65 -26.9 13.65 -27.0 13.65 -27.05 14.7 -27.05 15.95 -28.0 17.7 -29.4 21.55 -30.75 25.35 Q-31.55 27.5 -31.55 28.8 -31.55 29.6 -31.25 29.8 L-30.7 30.0 -30.65 30.05 -30.35 30.05 -30.4 30.1 -30.7 30.1 -30.9 30.5 -30.95 30.95 -30.95 31.0 Q-35.05 30.65 -35.95 29.95 -37.05 29.05 -39.45 28.8 L-40.45 20.55 Q-40.45 19.35 -38.15 8.2 L-34.9 -6.9 -32.95 -13.65 -30.9 -20.4 -28.35 -28.2 -26.45 -33.95 Q-26.45 -34.8 -27.35 -35.45 L-27.2 -35.7 M-13.75 -23.55 L-13.45 -23.65 -13.45 -23.25 -13.75 -23.55" fill="#221c15" fill-rule="evenodd" stroke="none"/>
      <path d="M12.0 -21.0 L12.05 -18.4 Q12.05 -15.8 10.6 -11.0 L8.65 -14.65 Q5.85 -19.5 2.9 -22.25 L3.1 -22.35 4.05 -22.45 5.35 -22.3 5.15 -22.95 5.2 -22.95 Q5.85 -22.95 6.15 -23.25 L6.65 -23.1 7.1 -23.0 7.5 -22.9 7.6 -22.85 7.7 -22.85 8.35 -22.65 9.0 -22.4 9.7 -22.15 10.3 -21.9 10.55 -21.75 11.3 -21.4 11.65 -21.2 12.0 -21.0 M13.2 -5.3 L13.45 -5.4 13.3 -5.05 13.2 -5.3 M8.65 4.3 L8.45 4.3 8.55 3.85 8.65 4.3 M5.8 4.25 L5.4 4.45 -6.05 4.8 -19.75 4.5 -14.9 -6.5 Q-10.95 -15.5 -10.95 -18.1 -10.95 -20.1 -11.1 -20.65 -7.3 -16.45 -2.2 -9.4 L2.4 -0.8 Q4.35 2.85 5.8 4.25 M7.55 16.6 L7.1 16.9 Q7.75 18.3 8.85 19.55 9.65 20.45 11.55 24.2 L12.7 26.6 11.8 26.6 10.05 26.65 9.55 26.65 8.45 26.8 7.6 26.85 -20.15 28.3 -21.45 28.35 -22.45 28.4 -23.45 28.4 -22.15 24.25 Q-20.4 19.25 -20.45 18.55 L-20.45 17.9 -19.4 17.8 -18.9 17.8 -15.9 17.6 3.75 16.7 4.7 16.7 6.3 16.65 7.0 16.6 7.55 16.6 M-30.95 31.0 L-31.3 32.15 -31.35 32.5 Q-38.45 33.45 -41.8 29.25 -43.85 26.65 -43.95 23.7 L-43.95 23.6 -43.95 23.45 -43.95 23.35 Q-43.9 21.55 -42.5 15.35 L-40.95 8.85 -40.4 6.55 -40.45 4.9 Q-40.45 2.3 -39.35 1.0 L-38.0 -4.0 -35.45 -14.9 -34.2 -20.6 -32.95 -25.7 -32.05 -28.5 Q-31.45 -30.2 -31.2 -31.4 -30.7 -33.5 -28.75 -34.5 L-27.95 -34.95 -27.8 -35.05 -27.65 -35.15 -27.35 -35.45 Q-26.45 -34.8 -26.45 -33.95 L-28.35 -28.2 -30.9 -20.4 -32.95 -13.65 -34.9 -6.9 -38.15 8.2 Q-40.45 19.35 -40.45 20.55 L-39.45 28.8 Q-37.05 29.05 -35.95 29.95 -35.05 30.65 -30.95 31.0 M-6.95 3.05 L-8.2 3.3 -7.0 3.2 -6.95 3.05" fill="#372c22" fill-rule="evenodd" stroke="none"/>
      <path d="M42.8 22.4 L42.4 23.1 42.2 23.6 39.8 25.9 37.95 27.95 37.35 28.3 37.25 28.25 37.2 28.25 36.05 28.55 35.8 28.55 34.65 29.45 29.7 22.9 32.0 21.0 34.1 19.3 36.55 17.05 38.3 15.85 Q41.0 20.4 42.8 22.4" fill="#aa8a71" fill-rule="evenodd" stroke="none"/>
      <path d="M12.0 -21.0 L12.9 -20.4 13.0 -20.35 13.15 -20.2 13.35 -20.0 14.35 -17.5 14.85 -16.3 Q15.25 -15.35 15.6 -14.7 L15.55 -14.05 15.5 -13.75 15.45 -13.6 Q15.45 -10.1 13.45 -5.4 L13.2 -5.3 10.6 -11.0 Q12.05 -15.8 12.05 -18.4 L12.0 -21.0 M-11.1 -20.65 Q-10.95 -20.1 -10.95 -18.1 -10.95 -15.5 -14.9 -6.5 L-19.75 4.5 Q-25.15 4.15 -26.3 3.45 L-26.3 3.25 -26.5 3.25 -26.65 2.5 Q-26.65 2.15 -27.5 2.1 -27.3 -2.9 -26.55 -6.4 -25.95 -9.3 -22.65 -16.15 -20.95 -19.75 -16.95 -21.95 L-16.9 -21.95 Q-15.75 -22.1 -14.85 -22.8 L-14.6 -23.05 -13.75 -23.55 -13.45 -23.25 -13.45 -23.15 -11.1 -20.65 M12.7 26.6 L11.55 24.2 Q9.65 20.45 8.85 19.55 7.75 18.3 7.1 16.9 L7.55 16.6 8.15 16.55 8.25 16.65 8.45 16.55 9.15 16.45 9.45 16.55 10.8 16.5 Q11.95 16.75 12.85 18.15 L14.85 21.3 Q15.35 21.6 17.1 24.75 L18.25 26.55 17.8 26.55 17.05 26.55 16.95 26.55 14.05 26.6 12.7 26.6 M-20.45 17.9 L-20.45 18.55 Q-20.4 19.25 -22.15 24.25 L-23.45 28.4 -23.5 28.4 -23.65 28.4 -26.75 28.45 -28.65 28.5 -28.1 27.25 -27.55 23.85 -26.15 20.1 -25.3 17.85 -23.3 18.05 -20.75 17.9 -20.45 17.9" fill="#695441" fill-rule="evenodd" stroke="none"/>
      <path d="M18.4 -16.6 Q20.8 -13.45 23.7 -8.7 29.3 0.6 31.85 4.1 L29.65 5.65 25.6 8.55 Q23.35 10.4 19.4 12.6 L17.5 13.65 16.05 11.25 14.55 9.05 13.25 6.9 12.45 6.0 13.3 5.05 13.75 3.55 14.05 2.05 13.95 1.25 14.1 0.35 Q14.3 -1.7 15.3 -3.5 L15.25 -3.55 15.45 -4.15 16.6 -7.5 17.1 -7.7 17.55 -9.35 18.1 -12.1 18.5 -13.8 17.9 -16.05 17.2 -18.05 18.4 -16.6 M-7.15 -24.2 L-6.8 -24.15 -6.95 -24.15 -7.15 -24.2 M12.5 28.85 L13.1 28.85 13.15 29.1 Q13.8 31.7 14.05 34.4 L13.95 35.65 -23.5 35.85 -23.55 35.4 -23.45 32.3 -23.4 30.05 -9.55 30.05 6.75 29.25 7.9 29.2 9.1 29.1 12.5 28.85 M-6.95 3.05 L-7.0 3.2 -8.2 3.3 -6.95 3.05" fill="#7b1102" fill-rule="evenodd" stroke="none"/>
      <path d="M8.45 16.55 L8.25 16.65 8.15 16.55 8.45 16.55 M12.5 28.85 L13.45 28.8 17.6 28.85 17.55 29.4 Q17.55 30.05 18.55 33.3 L19.35 35.55 16.55 35.55 13.95 35.65 14.05 34.4 Q13.8 31.7 13.15 29.1 L13.1 28.85 12.5 28.85 M-23.5 35.85 L-29.45 35.85 Q-28.6 32.8 -28.45 31.1 L-28.45 31.05 -28.45 30.85 -28.45 30.55 -28.45 30.05 -23.4 30.05 -23.45 32.3 -23.55 35.4 -23.5 35.85" fill="#942403" fill-rule="evenodd" stroke="none"/>
    </g>
    <g id="shape5" transform="matrix(1.0, 0.0, 0.0, 1.0, 34.35, 43.55)">
      <path d="M31.85 2.8 L32.0 2.8 Q32.6 2.8 32.35 2.5 L32.3 1.15 32.25 -1.55 31.95 -2.8 Q31.7 -5.05 30.85 -7.55 29.85 -10.55 27.2 -16.55 L27.25 -16.6 22.4 -23.6 Q15.6 -32.7 6.7 -39.1 L5.45 -40.0 4.15 -40.85 3.4 -41.35 3.0 -41.6 2.95 -41.55 2.9 -41.5 2.85 -41.35 1.55 -39.75 0.65 -38.8 -5.3 -32.3 -5.85 -31.6 -12.3 -21.5 -12.7 -20.8 -12.75 -20.7 -12.75 -20.6 -12.8 -20.6 -12.8 -20.5 -14.85 -15.75 -16.85 -9.65 -17.8 -5.9 -17.85 -5.9 -17.9 -5.9 -17.95 -5.4 -18.05 -4.85 -18.3 -2.95 -18.9 2.75 -19.1 2.85 -19.1 4.85 -19.1 4.9 -19.1 5.0 -19.1 5.05 -19.1 5.15 -19.1 5.3 -19.1 5.35 -19.1 5.55 -19.2 7.2 -19.55 12.35 -19.6 13.05 -19.75 15.1 -19.75 15.45 -19.8 15.65 -19.85 15.9 -20.35 16.1 -20.3 16.15 -20.1 16.6 -26.05 18.95 Q-31.85 21.3 -31.85 22.35 L-31.85 22.45 -31.8 23.0 -31.7 23.15 -31.6 23.25 -31.6 23.35 -24.5 23.35 -23.5 23.35 -13.8 23.35 Q-7.8 23.3 -6.6 15.0 L-5.85 8.4 Q-5.45 5.55 -4.55 4.2 L-4.6 3.5 -4.7 3.0 -1.65 2.65 Q4.4 2.45 28.55 3.05 L28.6 3.1 28.65 3.05 29.8 3.05 31.65 3.1 31.85 3.1 32.25 3.1 31.95 2.95 31.85 2.8 M1.7 -43.55 Q8.5 -43.75 20.0 -30.95 24.4 -26.05 27.6 -21.25 29.85 -17.9 30.5 -16.2 L32.1 -12.8 Q34.25 -7.4 34.65 -4.4 L34.75 -4.4 34.85 -3.6 35.0 -3.45 35.1 -3.3 35.05 -3.0 35.15 -2.5 Q35.15 0.25 34.75 2.75 L34.8 3.4 34.6 4.15 34.3 4.45 34.2 4.8 33.95 5.1 30.75 5.1 31.35 8.55 31.4 13.95 31.7 16.8 Q31.85 19.2 31.4 20.9 30.0 26.1 22.4 26.1 L19.35 25.9 Q17.35 28.1 10.65 28.1 1.25 28.1 -0.1 25.85 L-0.4 25.1 -0.6 25.1 Q-2.95 25.1 -4.7 23.9 L-5.15 24.5 Q-7.25 25.6 -23.1 25.6 -31.8 25.6 -33.8 24.0 -34.45 23.5 -34.35 22.85 L-34.1 22.25 Q-34.1 20.95 -29.8 18.35 -25.25 15.6 -22.35 15.6 L-21.9 15.6 -22.05 15.3 -22.1 14.1 Q-22.35 8.25 -22.2 5.25 -22.05 2.25 -21.4 0.55 L-21.6 -0.65 Q-21.6 -3.2 -20.3 -7.1 L-20.3 -9.75 -19.8 -10.8 Q-19.0 -12.75 -18.85 -15.0 -17.8 -16.6 -17.8 -17.85 L-17.8 -17.95 Q-14.6 -24.7 -9.7 -31.6 -2.9 -41.1 1.7 -42.75 L1.7 -43.55 M29.0 5.1 L28.9 5.1 28.9 5.5 29.0 5.1 M18.0 9.95 L18.9 10.1 19.95 9.85 20.25 9.4 20.4 8.35 20.3 7.25 20.2 6.85 18.25 6.75 17.85 6.8 17.4 6.75 17.4 6.85 17.4 9.85 17.45 10.1 18.0 9.95 M20.9 23.9 Q28.4 23.9 29.4 14.9 L29.55 12.6 Q22.35 12.65 17.25 14.3 L15.85 14.9 19.7 15.35 19.9 21.35 20.2 22.85 20.25 23.45 20.6 23.55 20.9 23.9 M9.95 5.6 L10.05 4.9 9.95 4.9 1.3 4.7 1.15 5.15 1.1 5.2 1.4 9.25 1.4 14.45 Q1.4 19.2 1.55 20.55 2.05 24.3 3.95 25.85 L17.9 25.85 17.9 17.6 17.7 17.15 Q11.9 18.75 10.35 14.25 9.9 12.9 9.9 8.2 L9.95 5.6" fill="#000000" fill-rule="evenodd" stroke="none"/>
      <path d="M-31.85 22.35 L-31.6 23.25 -31.7 23.15 -31.8 23.0 -31.85 22.45 -31.85 22.35 M-23.5 22.75 Q-16.25 18.25 -16.3 12.0 -16.3 8.85 -15.35 3.45 L-13.8 -5.15 Q-13.1 -9.5 -11.2 -14.15 -9.05 -19.35 -6.4 -22.4 -2.95 -26.3 2.15 -32.95 L4.95 -36.6 9.85 -32.15 Q19.35 -23.6 22.45 -17.65 L23.25 -15.7 Q25.3 -13.8 25.65 -10.75 28.05 -7.25 28.6 -3.45 L29.15 -1.35 29.6 1.35 29.45 2.1 29.25 2.65 Q29.55 2.8 28.9 2.8 L28.85 2.8 28.65 3.05 28.55 3.05 Q4.4 2.45 -1.65 2.65 L-4.7 3.0 -4.6 3.5 -4.55 4.2 Q-5.45 5.55 -5.85 8.4 L-6.6 15.0 Q-7.8 23.3 -13.8 23.35 L-23.5 23.35 -23.5 22.75 M9.95 4.9 L9.95 5.6 9.9 8.2 Q9.9 12.9 10.35 14.25 11.9 18.75 17.7 17.15 L17.9 17.6 17.9 25.85 3.95 25.85 Q2.05 24.3 1.55 20.55 1.4 19.2 1.4 14.45 L1.4 9.25 1.1 5.2 1.15 5.15 1.3 4.7 9.95 4.9" fill="#372c22" fill-rule="evenodd" stroke="none"/>
      <path d="M-17.85 -5.55 L-18.05 -4.85 -17.95 -5.4 -17.85 -5.55 M31.95 2.95 L32.25 3.1 31.85 3.1 31.95 2.95" fill="#5b6171" fill-rule="evenodd" stroke="none"/>
      <path d="M20.9 23.9 L20.6 23.55 20.25 23.45 20.2 22.85 19.9 21.35 19.7 15.35 15.85 14.9 17.25 14.3 Q22.35 12.65 29.55 12.6 L29.4 14.9 Q28.4 23.9 20.9 23.9" fill="#aa8a71" fill-rule="evenodd" stroke="none"/>
      <path d="M17.85 6.8 L18.25 6.75 20.2 6.85 20.3 7.25 20.4 8.35 20.25 9.4 19.95 9.85 18.9 10.1 18.0 9.95 17.4 9.85 17.4 6.85 17.85 6.8" fill="#ffffff" fill-rule="evenodd" stroke="none"/>
      <path d="M-17.95 -5.4 L-17.9 -5.9 -17.85 -5.9 -17.85 -5.55 -17.95 -5.4" fill="#969cab" fill-rule="evenodd" stroke="none"/>
      <path d="M-12.75 -20.6 L-12.8 -20.5 -12.8 -20.6 -12.75 -20.6 M-17.8 -5.9 L-17.85 -5.55 -17.85 -5.9 -17.8 -5.9" fill="#855b36" fill-rule="evenodd" stroke="none"/>
      <path d="M31.65 3.1 L31.8 2.8 31.85 2.8 31.95 2.95 31.85 3.1 31.65 3.1" fill="#402c1a" fill-rule="evenodd" stroke="none"/>
      <path d="M-24.5 23.35 L-23.5 22.75 -23.5 23.35 -24.5 23.35 M28.55 3.05 L28.65 3.05 28.6 3.1 28.55 3.05 M9.95 5.6 L9.95 4.9 10.05 4.9 9.95 5.6" fill="#221c15" fill-rule="evenodd" stroke="none"/>
      <path d="M-12.75 -20.6 L-12.75 -20.7 -12.7 -20.8 -12.3 -21.5 -5.85 -31.6 -5.3 -32.3 0.65 -38.8 1.55 -39.75 2.85 -41.35 2.9 -41.5 2.95 -41.55 3.0 -41.6 3.4 -41.35 4.15 -40.85 5.45 -40.0 6.7 -39.1 Q15.6 -32.7 22.4 -23.6 L27.25 -16.6 27.2 -16.55 Q29.85 -10.55 30.85 -7.55 31.7 -5.05 31.95 -2.8 L32.25 -1.55 32.3 1.15 32.35 2.5 Q32.6 2.8 32.0 2.8 L31.85 2.8 31.8 2.8 31.65 3.1 29.8 3.05 28.65 3.05 28.85 2.8 28.9 2.8 Q29.55 2.8 29.25 2.65 L29.45 2.1 29.6 1.35 29.15 -1.35 28.6 -3.45 Q28.05 -7.25 25.65 -10.75 25.3 -13.8 23.25 -15.7 L22.45 -17.65 Q19.35 -23.6 9.85 -32.15 L4.95 -36.6 2.15 -32.95 Q-2.95 -26.3 -6.4 -22.4 -9.05 -19.35 -11.2 -14.15 -13.1 -9.5 -13.8 -5.15 L-15.35 3.45 Q-16.3 8.85 -16.3 12.0 -16.25 18.25 -23.5 22.75 L-24.5 23.35 -31.6 23.35 -31.6 23.25 -31.85 22.35 Q-31.85 21.3 -26.05 18.95 L-20.1 16.6 -20.3 16.15 -20.35 16.1 -19.85 15.9 -19.8 15.65 -19.75 15.45 -19.75 15.1 -19.6 13.05 -19.55 12.35 -19.2 7.2 -19.1 5.55 -19.1 5.35 -19.1 5.3 -19.1 5.15 -19.1 5.05 -19.1 5.0 -19.1 4.9 -19.1 4.85 -19.1 2.85 -18.9 2.75 -18.3 -2.95 -18.05 -4.85 -17.85 -5.55 -17.8 -5.9 -16.85 -9.65 -14.85 -15.75 -12.8 -20.5 -12.75 -20.6" fill="#695441" fill-rule="evenodd" stroke="none"/>
    </g>
    <g id="shape6" transform="matrix(1.0, 0.0, 0.0, 1.0, 10.6, 58.2)">
      <path d="M-2.6 -50.8 Q-0.9 -49.25 0.25 -47.3 L2.55 -43.25 6.5 -35.35 Q8.65 -30.7 9.8 -27.2 13.75 -15.6 14.55 -9.35 15.0 -6.1 15.0 5.25 15.0 22.8 9.7 32.8 8.1 35.75 3.05 43.3 -1.2 49.65 -4.4 55.1 -4.85 54.55 -5.9 54.1 L-3.4 49.85 0.4 44.0 4.15 37.6 8.2 31.05 Q9.8 28.55 10.85 24.7 11.9 20.3 12.65 18.0 13.15 16.35 13.3 13.5 L13.35 10.55 13.1 5.15 12.8 -3.0 12.15 -10.2 11.3 -14.05 7.95 -25.5 Q5.75 -32.35 1.35 -40.95 0.25 -43.0 -3.85 -48.75 L-3.85 -48.8 Q-2.75 -49.65 -2.6 -50.8 M-5.35 56.75 L-6.2 58.25 -6.35 58.25 -6.1 58.55 -6.3 59.3 Q-6.55 59.75 -7.35 59.75 -8.55 59.75 -9.6 58.55 L-9.6 57.5 -9.4 57.5 -9.45 57.1 -8.75 54.9 -7.75 56.0 -7.65 56.1 -8.25 57.4 -7.15 57.45 -7.1 57.45 -7.15 57.05 -7.15 57.0 -7.05 56.45 -5.6 56.75 -5.35 56.75 M-7.85 -50.3 Q-10.55 -55.15 -10.55 -55.6 L-10.5 -56.35 -10.6 -56.45 Q-10.6 -57.5 -10.1 -58.2 L-8.55 -57.8 Q-7.9 -57.5 -7.7 -57.0 -6.8 -56.75 -5.75 -55.25 L-3.65 -52.2 Q-4.65 -52.35 -5.75 -51.35 L-8.25 -55.05 -6.2 -51.15 Q-6.7 -51.7 -7.6 -51.7 L-7.85 -50.3 M-4.3 -48.5 L-3.65 -47.2 -1.85 -43.15 Q-0.4 -39.95 1.3 -35.25 L3.9 -27.1 Q5.9 -19.55 6.9 -14.3 L7.6 -9.25 Q7.95 -6.0 7.95 5.35 L7.8 12.55 7.75 12.9 Q7.0 25.15 3.8 32.9 2.55 35.85 -1.4 43.4 L-6.65 53.85 -7.2 53.7 -7.1 52.1 -7.1 51.2 -6.5 49.95 -3.5 44.1 -0.55 37.7 2.6 31.15 Q3.9 28.65 4.7 24.8 L6.1 18.1 Q6.7 15.65 6.65 10.65 L6.5 5.25 6.2 -2.9 5.75 -10.1 Q5.15 -14.3 2.4 -25.4 0.7 -32.25 -2.75 -40.85 L-5.9 -46.85 -5.7 -47.7 -4.3 -48.5 M-8.55 -55.75 L-8.65 -55.75 -8.45 -55.4 -8.55 -55.7 -8.55 -55.75" fill="#000000" fill-rule="evenodd" stroke="none"/>
      <path d="M11.3 -14.05 L12.15 -10.2 12.8 -3.0 13.1 5.15 13.35 10.55 13.3 13.5 13.2 13.5 10.4 13.75 Q8.75 13.75 7.75 12.9 L7.8 12.55 7.95 5.35 Q7.95 -6.0 7.6 -9.25 L6.9 -14.3 11.3 -14.05" fill="#221c15" fill-rule="evenodd" stroke="none"/>
      <path d="M-4.4 55.1 L-4.1 55.8 -4.45 56.45 Q-4.75 56.7 -5.35 56.75 L-5.6 56.75 -7.05 56.45 -7.65 56.1 -7.75 56.0 -8.75 54.9 -9.1 54.55 -9.1 53.5 -8.55 53.55 Q-9.2 52.15 -9.45 49.35 L-9.6 43.5 -8.6 11.25 Q-8.5 4.75 -8.75 -8.1 L-9.1 -20.5 -8.95 -36.65 Q-8.75 -44.9 -7.85 -50.3 L-7.6 -51.7 Q-6.7 -51.7 -6.2 -51.15 L-6.1 -50.95 -5.75 -51.35 Q-4.65 -52.35 -3.65 -52.2 L-2.95 -52.0 -2.7 -51.95 -2.6 -51.15 -2.6 -50.8 Q-2.75 -49.65 -3.85 -48.8 L-3.85 -48.75 Q-4.05 -48.65 -4.3 -48.5 L-5.7 -47.7 -5.9 -46.85 -6.1 -45.85 -6.6 -42.2 -6.55 -39.1 Q-6.5 -37.1 -6.6 -35.75 -7.1 -29.0 -7.1 -23.0 L-6.85 -10.45 -6.6 2.05 -6.85 28.5 -7.1 51.2 -7.1 52.1 -7.2 53.7 -6.65 53.85 -5.9 54.1 Q-4.85 54.55 -4.4 55.1" fill="#cccc99" fill-rule="evenodd" stroke="none"/>
      <path d="M-3.85 -48.75 Q0.25 -43.0 1.35 -40.95 5.75 -32.35 7.95 -25.5 L11.3 -14.05 6.9 -14.3 Q5.9 -19.55 3.9 -27.1 L1.3 -35.25 Q-0.4 -39.95 -1.85 -43.15 L-3.65 -47.2 -4.3 -48.5 Q-4.05 -48.65 -3.85 -48.75 M13.3 13.5 Q13.15 16.35 12.65 18.0 11.9 20.3 10.85 24.7 9.8 28.55 8.2 31.05 L4.15 37.6 0.4 44.0 -3.4 49.85 -5.9 54.1 -6.65 53.85 -1.4 43.4 Q2.55 35.85 3.8 32.9 7.0 25.15 7.75 12.9 8.75 13.75 10.4 13.75 L13.2 13.5 13.3 13.5 M-6.2 -51.15 L-8.25 -55.05 -5.75 -51.35 -6.1 -50.95 -6.2 -51.15 M-7.05 56.45 L-7.15 57.0 -7.15 57.05 -7.15 57.45 -8.25 57.4 -7.65 56.1 -7.05 56.45" fill="#942403" fill-rule="evenodd" stroke="none"/>
    </g>
    <g id="shape7" transform="matrix(1.0, 0.0, 0.0, 1.0, 5.0, 24.9)">
      <path d="M5.65 -1.85 Q7.1 0.45 8.65 5.35 10.6 11.7 10.6 15.2 10.6 16.7 10.95 20.2 10.95 20.45 11.9 21.15 L13.3 22.1 Q14.85 23.1 16.35 23.3 L17.8 23.45 Q20.9 24.6 22.4 24.6 24.4 24.6 25.05 21.5 L25.35 19.15 Q24.7 18.0 23.95 15.15 L21.95 7.5 19.25 0.7 Q17.5 -3.45 17.25 -4.6 L9.55 -2.85 5.65 -1.85 M0.95 -0.3 L1.15 0.35 -1.55 -0.1 Q-2.5 -1.9 -3.35 -4.85 -5.0 -10.55 -5.0 -14.35 -5.0 -23.0 -1.05 -24.55 2.25 -25.9 7.7 -22.3 12.3 -19.3 16.45 -14.4 20.4 -9.7 20.4 -7.65 L20.15 -6.45 19.95 -6.15 20.3 -6.15 20.55 -5.35 19.3 -5.05 21.25 -1.1 Q22.7 2.65 22.7 3.8 22.7 4.35 24.85 10.65 L27.0 16.85 27.3 16.85 27.4 17.1 27.45 18.0 27.45 18.3 27.7 19.1 27.35 19.55 Q27.1 21.2 26.3 23.2 24.95 26.85 23.05 26.85 20.9 26.85 18.05 25.8 14.75 24.5 13.35 24.3 12.1 24.1 11.1 23.45 L9.55 22.2 Q8.1 21.05 8.3 19.2 L8.85 16.35 7.9 11.75 6.9 8.05 Q6.9 6.65 5.15 2.55 L3.65 -1.25 0.95 -0.3 M18.55 -6.35 Q16.2 -10.3 13.0 -14.15 6.05 -22.65 0.15 -22.65 -1.15 -22.65 -2.2 -19.1 L-2.95 -15.45 Q-2.95 -13.85 -0.9 -6.55 L0.45 -1.85 Q3.6 -3.9 8.3 -5.05 12.85 -6.15 17.9 -6.2 L18.1 -6.3 18.25 -6.2 18.65 -6.2 18.55 -6.35" fill="#000000" fill-rule="evenodd" stroke="none"/>
      <path d="M5.65 -1.85 L9.55 -2.85 17.25 -4.6 Q17.5 -3.45 19.25 0.7 L21.95 7.5 23.95 15.15 Q24.7 18.0 25.35 19.15 L25.05 21.5 Q24.4 24.6 22.4 24.6 20.9 24.6 17.8 23.45 L16.35 23.3 Q14.85 23.1 13.3 22.1 L11.9 21.15 Q10.95 20.45 10.95 20.2 10.6 16.7 10.6 15.2 10.6 11.7 8.65 5.35 7.1 0.45 5.65 -1.85" fill="#aa8a71" fill-rule="evenodd" stroke="none"/>
      <path d="M18.25 -6.2 L18.1 -6.3 17.9 -6.2 Q12.85 -6.15 8.3 -5.05 3.6 -3.9 0.45 -1.85 L-0.9 -6.55 Q-2.95 -13.85 -2.95 -15.45 L-2.2 -19.1 Q-1.15 -22.65 0.15 -22.65 6.05 -22.65 13.0 -14.15 16.2 -10.3 18.55 -6.35 L18.25 -6.2" fill="#942403" fill-rule="evenodd" stroke="none"/>
    </g>
    <g id="sprite3" transform="matrix(1.0, 0.0, 0.0, 1.0, 29.05, 29.25)">
      <clipPath id="clipPath1">
        <path d="M 40 0 L 40 40 L 0 40 L 0 0 Z M 18.75 -7.8 L -0.55 -7.7 L -6.5 -7.4 L -6.75 -7.35 L -7 -7.3 L -7.04 -7.4 L -7.07 -7.48 L -7.11 -7.52 L -7.14 -7.54 L -7.18 -7.52 L -7.22 -7.47 L -7.26 -7.38 L -7.3 -7.25 L -7.35 -7.1 L -8 -1.85 L -8 42.5 L -7.95 42.8 L -7.85 48.6 L 47.35 48.6 L 47.4 42.8 L 47.4 42.5 L 47.5 18.6 L 47.4 -0.7 L 47.36 -2.3 L 47.31 -3.69 L 47.25 -4.87 L 47.19 -5.83 L 47.12 -6.57 L 47.04 -7.11 L 47 -7.3 L 46.96 -7.43 L 46.92 -7.51 L 46.89 -7.53 L 46.87 -7.54 L 46.83 -7.51 L 46.79 -7.45 L 46.74 -7.35 L 46.7 -7.2 L 46.65 -7.3 L 46.5 -7.45 L 45 -7.55 L 44.9 -7.55 L 42.65 -7.7 L 18.75 -7.8 Z"/>
      </clipPath>
      <g clip-path="url(#clipPath1)">
        <use ffdec:characterId="937" height="49.05" transform="matrix(1.0, 0.0, 0.0, 1.0, -5.2, -5.05)" width="49.95" xlink:href="#shape8"/>
      </g>
    </g>
    <g id="shape8" transform="matrix(1.0, 0.0, 0.0, 1.0, 5.2, 5.05)">
      <path d="M18.85 -5.05 L40.4 -5.0 42.4 -4.85 42.5 -4.85 43.85 -4.75 44.0 -4.6 44.05 -4.55 Q44.5 -6.2 44.65 1.3 L44.75 18.7 44.65 40.2 44.5 42.2 Q44.4 43.75 44.05 43.75 L43.8 43.55 42.9 43.75 40.4 44.0 0.45 44.0 -3.55 43.55 -3.6 43.55 -4.6 43.75 -4.95 42.7 -5.2 40.2 -5.2 0.3 -4.6 -4.45 -4.55 -4.55 Q-4.45 -5.05 -4.3 -4.6 L-4.05 -4.65 -3.85 -4.7 1.5 -5.0 18.85 -5.05 M36.4 1.65 L36.8 1.25 41.65 -3.2 42.1 -3.6 41.7 -3.65 41.6 -3.85 40.4 -3.7 0.45 -3.7 -3.0 -4.1 2.5 0.85 3.3 1.65 1.8 1.65 1.8 2.6 1.8 1.65 3.3 1.65 3.6 1.95 2.0 1.95 2.0 2.8 1.8 2.6 0.3 1.1 -3.9 -4.2 -4.2 -4.3 -3.95 1.3 -3.85 18.7 -3.95 40.2 -4.05 42.2 -4.05 42.5 -4.0 42.3 -3.6 41.8 -1.65 39.65 1.8 36.1 1.8 37.95 2.0 37.95 1.8 37.95 1.8 36.1 2.0 35.9 2.0 37.95 2.6 37.95 -0.4 40.9 -2.75 42.9 1.5 42.7 18.85 42.65 40.4 42.7 42.4 42.85 42.5 42.85 42.4 42.8 39.65 40.55 37.05 37.95 38.0 37.95 38.15 37.95 38.15 36.45 38.15 37.95 38.0 37.95 38.0 36.35 38.15 36.45 40.9 39.3 42.85 41.45 43.6 42.45 43.4 40.2 43.4 0.3 43.85 -3.65 43.8 -3.65 42.95 -3.5 42.8 -3.3 39.0 1.45 38.15 2.3 38.15 1.65 36.4 1.65 38.15 1.65 38.15 2.3 38.0 2.45 38.0 1.95 36.0 1.95 36.4 1.65" fill="#473a29" fill-rule="evenodd" stroke="none"/>
      <path d="M3.3 1.65 L2.5 0.85 -3.0 -4.1 0.45 -3.7 40.4 -3.7 41.6 -3.85 41.7 -3.65 42.1 -3.6 41.65 -3.2 36.8 1.25 36.4 1.65 3.3 1.65 36.4 1.65 36.0 1.95 3.6 1.95 3.3 1.65 M1.8 36.1 L-1.65 39.65 -3.6 41.8 -4.0 42.3 -4.05 42.2 -3.95 40.2 -3.85 18.7 -3.95 1.3 -4.2 -4.3 -3.9 -4.2 0.3 1.1 1.8 2.6 2.0 2.8 2.0 35.9 1.8 36.1 1.8 35.0 1.8 33.05 1.8 2.6 1.8 33.05 1.8 35.0 1.8 36.1" fill="#bfaf91" fill-rule="evenodd" stroke="none"/>
      <path d="M38.15 2.3 L39.0 1.45 42.8 -3.3 42.95 -3.5 43.8 -3.65 43.85 -3.65 43.4 0.3 43.4 40.2 43.6 42.45 42.85 41.45 40.9 39.3 38.15 36.45 38.15 2.3 38.15 36.45 38.0 36.35 38.0 2.45 38.15 2.3 M37.05 37.95 L39.65 40.55 42.4 42.8 42.4 42.85 40.4 42.7 18.85 42.65 1.5 42.7 -2.75 42.9 -0.4 40.9 2.6 37.95 26.5 37.95 Q27.1 37.75 27.6 37.95 L37.05 37.95" fill="#6c5b3e" fill-rule="evenodd" stroke="none"/>
      <path d="M3.3 1.65 L36.4 1.65 38.15 1.65 38.15 2.3 38.15 36.45 38.15 37.95 38.0 37.95 37.05 37.95 27.6 37.95 Q27.1 37.75 26.5 37.95 L2.6 37.95 2.0 37.95 1.8 37.95 1.8 36.1 1.8 35.0 1.8 33.05 1.8 2.6 1.8 1.65 3.3 1.65 Z" fill="none" stroke="#473a29" stroke-linecap="round" stroke-linejoin="round" stroke-opacity="0.49019608" stroke-width="1.0"/>
    </g>
    <g id="sprite4" transform="matrix(1.0, 0.0, 0.0, 1.0, 0.0, 48.5)">
      <use ffdec:characterId="949" height="340.0" transform="matrix(0.2505, 0.0, 0.0, 0.1427, 0.0114, -48.4851)" width="192.0" xlink:href="#shape9"/>
    </g>
    <g id="shape9" transform="matrix(1.0, 0.0, 0.0, 1.0, 2.15, 3.05)">
      <path d="M189.85 -3.05 L189.85 336.95 -2.15 336.95 -2.15 -3.05 189.85 -3.05" fill="#000000" fill-opacity="0.29803923" fill-rule="evenodd" stroke="none"/>
    </g>
    <g id="sprite5" transform="matrix(1.0, 0.0, 0.0, 1.0, 0.0, 48.5)">
      <use ffdec:characterId="949" height="340.0" transform="matrix(0.2505, 0.0, 0.0, 0.1427, 0.0114, -48.4851)" width="192.0" xlink:href="#shape10"/>
    </g>
    <g id="shape10" transform="matrix(1.0, 0.0, 0.0, 1.0, 2.15, 3.05)">
      <path d="M189.85 -3.05 L189.85 336.95 -2.15 336.95 -2.15 -3.05 189.85 -3.05" fill="#000000" fill-opacity="0.49803922" fill-rule="evenodd" stroke="none"/>
    </g>
    <g id="sprite6" transform="matrix(1.0, 0.0, 0.0, 1.0, 64.35, 49.9)">
      <use ffdec:characterId="58" height="400.0" transform="matrix(0.1796, 0.0, 0.0, 0.1248, -62.85, -49.9)" width="700.0" xlink:href="#shape11"/>
      <use ffdec:characterId="951" height="18.1" id="txt_name" transform="matrix(1.0, 0.0, 0.0, 1.0, -63.85, -49.05)" width="129.05" xlink:href="#text1"/>
      <use ffdec:characterId="952" height="35.25" id="txt_desc" transform="matrix(1.0, 0.0, 0.0, 1.0, -64.35, -35.05)" width="129.05" xlink:href="#text2"/>
    </g>
    <g id="shape11" transform="matrix(1.0, 0.0, 0.0, 1.0, 0.0, 0.0)">
      <path d="M700.0 400.0 L0.0 400.0 0.0 0.0 700.0 0.0 700.0 400.0" fill="#000000" fill-opacity="0.49803922" fill-rule="evenodd" stroke="none"/>
    </g>
    <g id="text1" transform="matrix(1.0, 0.0, 0.0, 1.0, -51.35, 2.0)">
      <g transform="matrix(1.0, 0.0, 0.0, 1.0, 51.35, -2.0)">
        <use fill="#ffffff" height="18.1" transform="matrix(0.0117, 0.0, 0.0, 0.0117, 45.95, 13.05)" width="129.05" xlink:href="#font_Lithos_Pro_Regular_N0"/>
        <use fill="#ffffff" height="18.1" transform="matrix(0.0117, 0.0, 0.0, 0.0117, 56.95, 13.05)" width="129.05" xlink:href="#font_Lithos_Pro_Regular_a0"/>
        <use fill="#ffffff" height="18.1" transform="matrix(0.0117, 0.0, 0.0, 0.0117, 65.45, 13.05)" width="129.05" xlink:href="#font_Lithos_Pro_Regular_m0"/>
        <use fill="#ffffff" height="18.1" transform="matrix(0.0117, 0.0, 0.0, 0.0117, 76.75, 13.05)" width="129.05" xlink:href="#font_Lithos_Pro_Regular_e0"/>
      </g>
    </g>
    <g id="font_Lithos_Pro_Regular_N0">
      <path d="M216.5 7.5 L120.0 0.0 Q121.5 -20.5 124.5 -75.5 127.0 -130.5 131.0 -207.0 135.0 -283.5 139.0 -368.0 143.0 -452.5 147.0 -531.5 151.0 -610.5 153.5 -670.5 156.5 -730.5 158.0 -758.0 L160.0 -758.0 Q168.0 -748.5 209.0 -705.5 249.5 -663.0 309.5 -600.0 370.0 -537.0 437.0 -467.5 503.5 -398.0 564.0 -335.0 624.5 -272.0 666.0 -229.5 707.5 -186.5 716.5 -177.0 716.5 -185.5 717.0 -225.0 717.5 -265.0 718.0 -323.5 719.0 -382.5 720.0 -447.5 720.5 -513.0 721.5 -572.0 722.5 -631.5 723.0 -672.0 723.5 -712.5 724.0 -722.0 L819.0 -716.5 Q818.0 -697.0 815.0 -641.0 812.5 -585.0 808.5 -504.5 805.0 -424.0 801.5 -332.0 798.0 -240.0 795.5 -148.5 792.5 -57.0 791.5 21.5 L789.5 21.5 Q781.5 13.5 739.5 -29.5 697.0 -72.5 635.0 -136.5 572.5 -200.5 504.0 -271.5 435.0 -342.5 373.5 -406.5 312.0 -470.0 271.5 -513.0 231.5 -555.5 225.5 -563.0 L223.5 -563.0 Q223.5 -553.0 223.0 -511.0 222.5 -468.5 221.5 -407.0 220.5 -345.0 219.5 -277.0 218.5 -209.0 217.5 -147.5 217.0 -86.0 216.5 -44.0 216.0 -2.0 216.5 7.5" fill-rule="evenodd" stroke="none"/>
    </g>
    <g id="font_Lithos_Pro_Regular_a0">
      <path d="M226.5 -255.0 L476.5 -265.0 Q473.0 -271.5 460.0 -295.0 447.5 -318.5 430.0 -350.5 412.5 -382.5 395.0 -414.0 378.0 -445.5 365.0 -468.0 352.5 -490.5 349.5 -495.5 345.0 -488.5 332.5 -464.0 319.5 -439.5 303.0 -406.0 286.0 -373.0 269.5 -340.0 253.0 -307.0 241.0 -283.5 229.5 -260.0 226.5 -255.0 M93.5 18.5 L14.5 -26.5 Q27.5 -49.5 55.0 -100.0 83.0 -150.5 119.0 -216.5 155.0 -283.0 193.5 -353.0 231.5 -423.5 265.0 -485.0 299.0 -547.0 322.0 -589.0 345.0 -630.5 350.5 -640.0 L352.5 -640.0 Q376.5 -601.5 414.5 -538.0 452.0 -474.0 496.0 -399.0 540.0 -323.5 582.5 -250.0 625.5 -176.5 660.0 -119.0 694.0 -61.0 713.0 -32.5 L630.0 17.5 Q623.0 4.0 605.5 -28.5 587.5 -61.0 566.5 -99.0 545.5 -137.0 529.0 -166.5 512.0 -196.0 508.0 -202.5 L191.5 -190.5 Q186.5 -179.0 173.0 -150.5 159.5 -121.5 143.5 -86.5 127.0 -52.0 113.0 -23.0 99.0 6.5 93.5 18.5" fill-rule="evenodd" stroke="none"/>
    </g>
    <g id="font_Lithos_Pro_Regular_m0">
      <path d="M115.0 22.5 L31.0 -4.0 Q35.5 -14.5 51.5 -61.5 68.0 -108.0 91.0 -176.5 114.5 -245.0 140.0 -320.0 165.0 -395.0 187.5 -462.0 210.0 -529.0 224.5 -573.0 239.0 -617.5 241.0 -624.0 L245.0 -624.0 Q254.0 -606.5 276.0 -563.5 298.5 -521.0 327.5 -465.5 356.5 -410.5 385.5 -355.5 414.5 -300.5 437.0 -259.0 459.5 -217.0 468.0 -201.0 477.5 -216.5 502.5 -258.5 527.5 -300.0 560.0 -354.0 592.0 -408.0 623.5 -460.5 655.0 -513.0 677.5 -550.5 700.0 -588.0 705.5 -597.5 L708.5 -597.5 Q716.0 -579.0 732.5 -535.5 749.0 -492.5 771.5 -434.0 793.5 -375.5 818.0 -311.5 842.5 -247.5 865.5 -187.0 889.0 -127.0 907.0 -80.0 925.0 -33.0 935.0 -9.5 L850.0 22.5 Q843.0 1.5 826.0 -47.0 809.5 -95.5 787.5 -156.5 766.0 -218.0 745.0 -277.0 724.0 -336.5 708.5 -379.5 693.5 -422.0 689.5 -433.5 680.0 -418.0 657.5 -381.5 635.5 -345.5 606.5 -298.0 577.5 -250.5 548.0 -202.0 518.5 -153.5 494.5 -114.5 470.5 -75.5 458.0 -55.5 L456.0 -55.5 Q436.0 -93.0 408.0 -144.5 380.5 -196.5 351.0 -252.5 321.5 -308.0 295.5 -356.5 270.0 -405.0 254.0 -435.5 250.0 -421.0 239.0 -385.0 228.0 -349.0 213.0 -300.0 198.0 -251.5 182.0 -199.0 166.0 -146.5 151.5 -99.0 137.0 -52.0 127.5 -19.5 117.5 13.5 115.0 22.5" fill-rule="evenodd" stroke="none"/>
    </g>
    <g id="font_Lithos_Pro_Regular_e0">
      <path d="M458.5 -68.5 L461.5 9.5 Q451.5 9.5 417.0 8.5 383.0 7.5 337.5 6.0 292.0 5.0 247.0 3.5 202.0 2.0 170.5 1.0 138.5 0.0 132.0 0.0 133.0 -18.5 133.5 -56.0 134.5 -93.5 134.5 -136.0 135.0 -178.0 135.0 -211.0 135.0 -244.0 135.0 -252.5 L135.0 -368.5 Q135.0 -373.5 135.0 -397.5 134.5 -421.5 134.0 -454.5 134.0 -488.0 133.5 -521.5 133.0 -555.0 132.5 -579.5 132.5 -603.5 132.0 -609.5 139.5 -609.5 168.5 -611.0 197.5 -612.0 238.0 -614.5 278.5 -616.5 320.0 -618.5 362.0 -621.0 395.0 -623.0 428.5 -625.0 443.0 -626.0 L447.0 -552.0 Q431.0 -552.0 397.5 -551.5 364.0 -551.0 326.5 -550.0 288.5 -549.0 259.5 -548.5 231.0 -548.0 224.0 -548.0 L224.0 -334.5 Q231.0 -334.5 253.5 -335.0 276.0 -336.0 305.5 -337.0 335.5 -338.5 365.0 -340.0 394.5 -342.0 416.5 -343.5 L419.5 -269.0 Q407.0 -269.0 378.5 -269.5 350.5 -270.0 317.0 -271.0 284.5 -271.0 258.5 -271.5 232.5 -272.0 224.0 -272.0 L224.0 -65.5 Q233.0 -65.5 258.0 -65.0 283.0 -65.0 317.0 -65.0 351.5 -65.0 388.5 -66.0 425.5 -66.5 458.5 -68.5" fill-rule="evenodd" stroke="none"/>
    </g>
    <g id="text2" transform="matrix(1.0, 0.0, 0.0, 1.0, -51.35, 2.0)">
      <g transform="matrix(1.0, 0.0, 0.0, 1.0, 51.35, -2.0)">
        <use fill="#ffffff" height="35.25" transform="matrix(0.0098, 0.0, 0.0, 0.0098, 49.05, 7.2)" width="129.05" xlink:href="#font_Lithos_Pro_Regular_N0"/>
        <use fill="#ffffff" height="35.25" transform="matrix(0.0098, 0.0, 0.0, 0.0098, 58.2, 7.2)" width="129.05" xlink:href="#font_Lithos_Pro_Regular_a0"/>
        <use fill="#ffffff" height="35.25" transform="matrix(0.0098, 0.0, 0.0, 0.0098, 65.3, 7.2)" width="129.05" xlink:href="#font_Lithos_Pro_Regular_m0"/>
        <use fill="#ffffff" height="35.25" transform="matrix(0.0098, 0.0, 0.0, 0.0098, 74.7, 7.2)" width="129.05" xlink:href="#font_Lithos_Pro_Regular_e0"/>
      </g>
      <g transform="matrix(1.0, 0.0, 0.0, 1.0, 51.35, -2.0)">
        <use fill="#ffffff" height="35.25" transform="matrix(0.0098, 0.0, 0.0, 0.0098, 46.0, 16.95)" width="129.05" xlink:href="#font_Lithos_Pro_Regular_k0"/>
        <use fill="#ffffff" height="35.25" transform="matrix(0.0098, 0.0, 0.0, 0.0098, 52.6, 16.95)" width="129.05" xlink:href="#font_Lithos_Pro_Regular_j0"/>
        <use fill="#ffffff" height="35.25" transform="matrix(0.0098, 0.0, 0.0, 0.0098, 56.25, 16.95)" width="129.05" xlink:href="#font_Lithos_Pro_Regular_h0"/>
        <use fill="#ffffff" height="35.25" transform="matrix(0.0098, 0.0, 0.0, 0.0098, 64.5, 16.95)" width="129.05" xlink:href="#font_Lithos_Pro_Regular_k0"/>
        <use fill="#ffffff" height="35.25" transform="matrix(0.0098, 0.0, 0.0, 0.0098, 71.1, 16.95)" width="129.05" xlink:href="#font_Lithos_Pro_Regular_j0"/>
        <use fill="#ffffff" height="35.25" transform="matrix(0.0098, 0.0, 0.0, 0.0098, 74.75, 16.95)" width="129.05" xlink:href="#font_Lithos_Pro_Regular_h0"/>
      </g>
      <g transform="matrix(1.0, 0.0, 0.0, 1.0, 51.35, -2.0)">
        <use fill="#ffffff" height="35.25" transform="matrix(0.0098, 0.0, 0.0, 0.0098, 46.0, 26.7)" width="129.05" xlink:href="#font_Lithos_Pro_Regular_k0"/>
        <use fill="#ffffff" height="35.25" transform="matrix(0.0098, 0.0, 0.0, 0.0098, 52.6, 26.7)" width="129.05" xlink:href="#font_Lithos_Pro_Regular_j0"/>
        <use fill="#ffffff" height="35.25" transform="matrix(0.0098, 0.0, 0.0, 0.0098, 56.25, 26.7)" width="129.05" xlink:href="#font_Lithos_Pro_Regular_h0"/>
        <use fill="#ffffff" height="35.25" transform="matrix(0.0098, 0.0, 0.0, 0.0098, 64.5, 26.7)" width="129.05" xlink:href="#font_Lithos_Pro_Regular_k0"/>
        <use fill="#ffffff" height="35.25" transform="matrix(0.0098, 0.0, 0.0, 0.0098, 71.1, 26.7)" width="129.05" xlink:href="#font_Lithos_Pro_Regular_j0"/>
        <use fill="#ffffff" height="35.25" transform="matrix(0.0098, 0.0, 0.0, 0.0098, 74.75, 26.7)" width="129.05" xlink:href="#font_Lithos_Pro_Regular_h0"/>
      </g>
    </g>
    <g id="font_Lithos_Pro_Regular_k0">
      <path d="M621.5 -61.5 L558.0 8.5 Q553.5 4.0 523.0 -26.5 493.0 -56.5 449.0 -100.5 405.0 -144.0 359.5 -189.5 314.0 -235.5 278.5 -271.0 243.0 -306.5 230.0 -320.5 235.5 -326.0 265.5 -353.5 295.5 -381.5 337.5 -421.0 379.5 -460.5 421.5 -500.5 464.0 -540.5 495.0 -569.5 526.0 -599.0 533.0 -606.5 L587.5 -540.0 Q572.5 -528.5 540.0 -501.0 507.0 -473.5 467.0 -440.0 427.0 -406.0 392.0 -375.5 356.5 -345.0 336.5 -327.0 346.0 -316.0 373.5 -289.5 401.5 -262.5 438.5 -228.0 476.0 -193.5 513.5 -159.0 551.0 -124.5 580.5 -98.0 609.5 -72.0 621.5 -61.5 M228.0 9.5 L130.0 9.5 Q130.5 -1.0 131.5 -30.0 132.5 -59.0 133.0 -99.0 134.0 -139.5 134.5 -182.5 135.0 -225.5 135.0 -263.0 L135.0 -355.5 Q135.0 -385.0 134.0 -426.0 133.5 -466.5 132.5 -508.0 131.5 -549.5 130.5 -580.0 130.0 -610.5 130.0 -619.0 L228.0 -619.0 Q227.5 -612.5 227.0 -583.5 226.0 -554.5 225.0 -514.5 224.5 -474.0 223.5 -433.5 223.0 -393.0 223.0 -363.5 L223.0 -270.5 Q223.0 -244.0 223.5 -200.5 224.0 -157.5 225.0 -111.5 225.5 -66.0 226.5 -32.0 227.5 1.5 228.0 9.5" fill-rule="evenodd" stroke="none"/>
    </g>
    <g id="font_Lithos_Pro_Regular_j0">
      <path d="M258.0 -400.5 L258.0 -264.5 Q257.0 -170.0 230.5 -104.5 204.0 -39.5 161.5 1.0 119.0 41.5 70.5 61.5 L25.5 -7.5 Q70.0 -25.5 102.0 -57.0 134.0 -88.5 151.5 -139.5 169.0 -190.5 169.0 -266.5 L169.0 -402.5 Q169.0 -409.0 168.5 -438.0 168.0 -467.0 167.5 -503.5 166.5 -540.5 166.0 -570.5 165.5 -600.5 165.0 -609.5 L263.0 -609.5 Q262.0 -601.0 261.0 -571.5 259.5 -542.0 259.0 -497.5 258.0 -453.5 258.0 -400.5" fill-rule="evenodd" stroke="none"/>
    </g>
    <g id="font_Lithos_Pro_Regular_h0">
      <path d="M228.0 0.0 L132.0 0.0 Q132.5 -12.0 133.0 -40.0 133.5 -67.5 134.0 -103.0 134.5 -138.0 134.5 -172.0 135.0 -206.5 135.0 -231.5 135.0 -256.5 135.0 -264.0 L135.0 -358.0 Q135.0 -363.0 134.5 -388.0 134.5 -412.5 134.0 -447.0 133.5 -481.5 132.5 -516.5 132.0 -551.5 131.0 -577.0 130.5 -602.5 130.0 -609.5 L229.0 -609.5 Q228.5 -604.0 228.0 -583.0 227.0 -562.5 226.5 -533.5 225.5 -504.5 225.0 -476.0 224.5 -447.0 224.5 -426.0 224.0 -405.0 224.0 -400.0 L224.0 -336.5 618.5 -352.5 618.5 -418.5 Q618.5 -425.0 618.0 -451.5 618.0 -478.5 617.5 -512.0 617.0 -546.0 616.5 -573.5 616.0 -601.0 615.5 -609.5 L714.5 -609.5 Q714.0 -602.5 713.0 -574.5 712.0 -547.0 711.0 -509.0 710.5 -471.0 709.5 -432.5 708.5 -394.5 708.0 -367.0 707.5 -339.0 707.5 -332.0 L707.5 -245.5 Q707.5 -241.5 707.5 -217.0 708.0 -193.0 708.5 -159.0 708.5 -124.5 709.0 -90.0 710.0 -56.0 710.5 -31.0 711.0 -6.0 711.5 0.0 L613.5 0.0 Q614.5 -12.0 615.5 -41.5 616.5 -71.0 617.0 -105.0 618.0 -139.5 618.0 -166.5 618.5 -193.5 618.5 -200.5 L618.5 -288.5 224.0 -272.0 224.0 -219.0 Q224.0 -203.5 224.5 -171.0 225.0 -139.0 225.5 -102.5 226.5 -66.0 227.0 -37.5 227.5 -8.5 228.0 0.0" fill-rule="evenodd" stroke="none"/>
    </g>
  </defs>
</svg>
