<?xml version="1.0" encoding="UTF-8" standalone="no"?>
<svg xmlns:ffdec="https://www.free-decompiler.com/flash" xmlns:xlink="http://www.w3.org/1999/xlink" ffdec:objectType="frame" height="135.65px" width="129.65px" xmlns="http://www.w3.org/2000/svg">
  <g transform="matrix(1.0, 0.0, 0.0, 1.0, 45.0, 57.4)">
    <use ffdec:characterId="933" height="47.45" id="bgcolor" transform="matrix(1.0, 0.0, 0.0, 1.0, -4.2, -3.9)" width="47.45" xlink:href="#sprite0"/>
    <use ffdec:characterId="921" height="22.0" id="hitbox" transform="matrix(2.2297, 0.0, 0.0, 2.1749, -4.55, -4.25)" width="22.0" xlink:href="#sprite1"/>
    <clipPath id="clipPath0">
      <path d="M 0 0 L 0 40 L 40 40 L 40 0 Z"/>
    </clipPath>
    <g clip-path="url(#clipPath0)">
      <filter id="filter0">
        <feColorMatrix in="SourceGraphic" result="filterResult0" type="matrix" values="0 0 0 0 0.2,0 0 0 0 0.2,0 0 0 0 1.0,0 0 0 1 0"/>
        <feConvolveMatrix divisor="1600.0" in="filterResult0" kernelMatrix="1 1 1 1 1 1 1 1 1 1 1 1 1 1 1 1 1 1 1 1 1 1 1 1 1 1 1 1 1 1 1 1 1 1 1 1 1 1 1 1 1 1 1 1 1 1 1 1 1 1 1 1 1 1 1 1 1 1 1 1 1 1 1 1 1 1 1 1 1 1 1 1 1 1 1 1 1 1 1 1 1 1 1 1 1 1 1 1 1 1 1 1 1 1 1 1 1 1 1 1 1 1 1 1 1 1 1 1 1 1 1 1 1 1 1 1 1 1 1 1 1 1 1 1 1 1 1 1 1 1 1 1 1 1 1 1 1 1 1 1 1 1 1 1 1 1 1 1 1 1 1 1 1 1 1 1 1 1 1 1 1 1 1 1 1 1 1 1 1 1 1 1 1 1 1 1 1 1 1 1 1 1 1 1 1 1 1 1 1 1 1 1 1 1 1 1 1 1 1 1 1 1 1 1 1 1 1 1 1 1 1 1 1 1 1 1 1 1 1 1 1 1 1 1 1 1 1 1 1 1 1 1 1 1 1 1 1 1 1 1 1 1 1 1 1 1 1 1 1 1 1 1 1 1 1 1 1 1 1 1 1 1 1 1 1 1 1 1 1 1 1 1 1 1 1 1 1 1 1 1 1 1 1 1 1 1 1 1 1 1 1 1 1 1 1 1 1 1 1 1 1 1 1 1 1 1 1 1 1 1 1 1 1 1 1 1 1 1 1 1 1 1 1 1 1 1 1 1 1 1 1 1 1 1 1 1 1 1 1 1 1 1 1 1 1 1 1 1 1 1 1 1 1 1 1 1 1 1 1 1 1 1 1 1 1 1 1 1 1 1 1 1 1 1 1 1 1 1 1 1 1 1 1 1 1 1 1 1 1 1 1 1 1 1 1 1 1 1 1 1 1 1 1 1 1 1 1 1 1 1 1 1 1 1 1 1 1 1 1 1 1 1 1 1 1 1 1 1 1 1 1 1 1 1 1 1 1 1 1 1 1 1 1 1 1 1 1 1 1 1 1 1 1 1 1 1 1 1 1 1 1 1 1 1 1 1 1 1 1 1 1 1 1 1 1 1 1 1 1 1 1 1 1 1 1 1 1 1 1 1 1 1 1 1 1 1 1 1 1 1 1 1 1 1 1 1 1 1 1 1 1 1 1 1 1 1 1 1 1 1 1 1 1 1 1 1 1 1 1 1 1 1 1 1 1 1 1 1 1 1 1 1 1 1 1 1 1 1 1 1 1 1 1 1 1 1 1 1 1 1 1 1 1 1 1 1 1 1 1 1 1 1 1 1 1 1 1 1 1 1 1 1 1 1 1 1 1 1 1 1 1 1 1 1 1 1 1 1 1 1 1 1 1 1 1 1 1 1 1 1 1 1 1 1 1 1 1 1 1 1 1 1 1 1 1 1 1 1 1 1 1 1 1 1 1 1 1 1 1 1 1 1 1 1 1 1 1 1 1 1 1 1 1 1 1 1 1 1 1 1 1 1 1 1 1 1 1 1 1 1 1 1 1 1 1 1 1 1 1 1 1 1 1 1 1 1 1 1 1 1 1 1 1 1 1 1 1 1 1 1 1 1 1 1 1 1 1 1 1 1 1 1 1 1 1 1 1 1 1 1 1 1 1 1 1 1 1 1 1 1 1 1 1 1 1 1 1 1 1 1 1 1 1 1 1 1 1 1 1 1 1 1 1 1 1 1 1 1 1 1 1 1 1 1 1 1 1 1 1 1 1 1 1 1 1 1 1 1 1 1 1 1 1 1 1 1 1 1 1 1 1 1 1 1 1 1 1 1 1 1 1 1 1 1 1 1 1 1 1 1 1 1 1 1 1 1 1 1 1 1 1 1 1 1 1 1 1 1 1 1 1 1 1 1 1 1 1 1 1 1 1 1 1 1 1 1 1 1 1 1 1 1 1 1 1 1 1 1 1 1 1 1 1 1 1 1 1 1 1 1 1 1 1 1 1 1 1 1 1 1 1 1 1 1 1 1 1 1 1 1 1 1 1 1 1 1 1 1 1 1 1 1 1 1 1 1 1 1 1 1 1 1 1 1 1 1 1 1 1 1 1 1 1 1 1 1 1 1 1 1 1 1 1 1 1 1 1 1 1 1 1 1 1 1 1 1 1 1 1 1 1 1 1 1 1 1 1 1 1 1 1 1 1 1 1 1 1 1 1 1 1 1 1 1 1 1 1 1 1 1 1 1 1 1 1 1 1 1 1 1 1 1 1 1 1 1 1 1 1 1 1 1 1 1 1 1 1 1 1 1 1 1 1 1 1 1 1 1 1 1 1 1 1 1 1 1 1 1 1 1 1 1 1 1 1 1 1 1 1 1 1 1 1 1 1 1 1 1 1 1 1 1 1 1 1 1 1 1 1 1 1 1 1 1 1 1 1 1 1 1 1 1 1 1 1 1 1 1 1 1 1 1 1 1 1 1 1 1 1 1 1 1 1 1 1 1 1 1 1 1 1 1 1 1 1 1 1 1 1 1 1 1 1 1 1 1 1 1 1 1 1 1 1 1 1 1 1 1 1 1 1 1 1 1 1 1 1 1 1 1 1 1 1 1 1 1 1 1 1 1 1 1 1 1 1 1 1 1 1 1 1 1 1 1 1 1 1 1 1 1 1 1 1 1 1 1 1 1 1 1 1 1 1 1 1 1 1 1 1 1 1 1 1 1 1 1 1 1 1 1 1 1 1 1 1 1 1 1 1 1 1 1 1 1 1 1 1 1 1 1 1 1 1 1 1 1 1 1 1 1 1 1 1 1 1 1 1 1 1 1 1 1 1 1 1 1 1 1 1 1 1 1 1 1 1 1 1 1 1 1 1 1 1 1 1 1 1 1 1 1 1 1 1 1 1 1 1 1 1 1 1 1 1 1 1 1 1 1 1 1 1 1 1 1 1 1 1 1 1 1 1 1 1 1 1 1 1 1 1 1 1 1 1 1 1 1 1 1 1 1 1 1 1 1 1 1 1 1 1 1 1 1 1 1 1 1 1 1 1 1 1 1 1 1 1 1 1 1 1 1 1 1 1 1 1 1 1 1 1 1 1 1 1 1 1 1 1 1 1 1 1 1 1 1 1 1 1 1 1 1 1 1 1 1 1 1 1 1 1 1 1 1 1 1 1 1 1 1 1 1 1 1 1 1 1 1 1 1 1 1 1 1 1 1 1 1 1 1 1 1 1 1 1 1 1 1 1 1 1 1 1 1 1 1 1 1 1 1 1 1 1 1 1 1 1 1 1 1 1 1 1 1 1 1 1 1 1 1 1 1 1 1 1 1 1 1 1 1 1 1 1 1 1 1 1 1 1 1 1 1 1 1 1 1 1 1 1 1 1 1 1 1 1 1 1 1 1 1 1 1 1 1 1 1 1 1 1 1 1 1 1 1 1 1 1 1 1 1 1 1 1 1 1 1 1 1 1 1 1 1 1 1 1 1 1 1 1 1 1 1 1 1 1 1 1 1 1 1 1 1 1 1 1 1 1 1 1 1 1 1 1 1 1 1 1 1 1 1 1 1 1 1 1 1 1 1 1 1 1 1 1 1 1 1 1 1 1 1 1 1 1 1 1 1 1 1 1 1 1 1" order="40 40" result="filterResult1"/>
        <feComposite in="SourceGraphic" in2="filterResult1" operator="over" result="filterResult2"/>
      </filter>
      <use ffdec:characterId="1004" filter="url(#filter0)" height="39.25" transform="matrix(1.0, 0.0, 0.0, 1.0, 2.6, 1.6)" width="34.9" xlink:href="#sprite2"/>
      <filter id="filter3">
        <feColorMatrix in="SourceGraphic" result="filterResult3" type="matrix" values="0 0 0 0 0.0,0 0 0 0 0.0,0 0 0 0 0.0,0 0 0 1 0"/>
        <feConvolveMatrix divisor="9.0" in="filterResult3" kernelMatrix="1 1 1 1 1 1 1 1 1" order="3 3" result="filterResult4"/>
        <feComposite in="SourceGraphic" in2="filterResult4" operator="over" result="filterResult5"/>
      </filter>
      <use ffdec:characterId="983" filter="url(#filter3)" height="15.25" transform="matrix(1.0, 0.0, 0.0, 1.0, 16.75, 24.4)" width="28.35" xlink:href="#text0"/>
    </g>
    <filter id="filter4">
      <feColorMatrix in="SourceGraphic" result="filterResult6" type="matrix" values="0 0 0 0 0.0,0 0 0 0 0.0,0 0 0 0 0.0,0 0 0 1 0"/>
      <feConvolveMatrix divisor="4.0" in="filterResult6" kernelMatrix="1 1 1 1" order="2 2" result="filterResult7"/>
      <feComposite in="SourceGraphic" in2="filterResult7" operator="over" result="filterResult8"/>
    </filter>
    <use ffdec:characterId="935" filter="url(#filter4)" height="15.75" id="txt_hotkey" transform="matrix(1.0, 0.0, 0.0, 1.0, -3.85, -0.1)" width="18.0" xlink:href="#text1"/>
    <use ffdec:characterId="948" ffdec:characterName="Army_fla.Hud_BgButton_151" height="97.6" id="bg" transform="matrix(1.0, 0.0, 0.0, 1.0, -29.05, -29.25)" width="97.6" xlink:href="#sprite3"/>
    <use ffdec:characterId="950" ffdec:characterName="Army_fla.Hud_cooldown_152" height="48.5" id="cdcover" transform="matrix(0.9979, 0.0, 0.0, 0.9897, -4.2, -3.9997)" width="48.1" xlink:href="#sprite4"/>
    <use ffdec:characterId="950" ffdec:characterName="Army_fla.Hud_cooldown_152" height="48.5" id="cd" transform="matrix(0.9979, 0.0, 0.0, 0.9897, -4.2, -3.9997)" width="48.1" xlink:href="#sprite5"/>
    <use ffdec:characterId="953" ffdec:characterName="Army_fla.Hud_Description_153" height="50.1" id="desc" transform="matrix(0.0746, 0.0, 0.0, 0.0746, 14.6505, 16.4782)" width="129.55" xlink:href="#sprite6"/>
  </g>
  <defs>
    <g id="sprite0" transform="matrix(1.0, 0.0, 0.0, 1.0, 0.0, 0.0)">
      <use ffdec:characterId="932" height="47.45" transform="matrix(1.0, 0.0, 0.0, 1.0, 0.0, 0.0)" width="47.45" xlink:href="#shape0"/>
    </g>
    <g id="shape0" transform="matrix(1.0, 0.0, 0.0, 1.0, 0.0, 0.0)">
      <path d="M47.45 0.0 L47.45 47.45 0.0 47.45 0.0 0.0 47.45 0.0" fill="#564732" fill-rule="evenodd" stroke="none"/>
    </g>
    <g id="sprite1" transform="matrix(1.0, 0.0, 0.0, 1.0, 0.0, 0.0)">
      <use ffdec:characterId="145" height="22.0" transform="matrix(1.0, 0.0, 0.0, 1.0, 0.0, 0.0)" width="22.0" xlink:href="#shape1"/>
    </g>
    <g id="shape1" transform="matrix(1.0, 0.0, 0.0, 1.0, 0.0, 0.0)">
      <path d="M22.0 0.0 L22.0 22.0 0.0 22.0 0.0 0.0 22.0 0.0" fill="#00ff00" fill-opacity="0.0" fill-rule="evenodd" stroke="none"/>
    </g>
    <g id="sprite2" transform="matrix(1.0, 0.0, 0.0, 1.0, 1.4, 0.75)">
      <use ffdec:characterId="1003" height="39.25" transform="matrix(1.0, 0.0, 0.0, 1.0, -1.4, -0.75)" width="34.9" xlink:href="#shape2"/>
    </g>
    <g id="shape2" transform="matrix(1.0, 0.0, 0.0, 1.0, 1.4, 0.75)">
      <path d="M27.85 3.35 L27.9 3.35 27.9 3.45 27.85 3.35 M26.0 3.6 L25.9 3.65 25.35 3.75 23.15 4.3 22.85 4.35 Q20.3 5.05 19.55 5.65 L19.5 5.65 19.5 5.55 16.95 2.85 17.75 2.5 19.35 2.1 23.0 1.55 23.4 1.7 24.35 2.1 26.1 3.3 26.0 3.6 M16.5 31.75 L17.0 31.5 17.05 30.75 17.5 30.4 19.55 24.3 21.65 18.6 25.4 9.4 27.7 4.95 28.35 5.65 30.25 9.75 Q32.25 14.45 32.25 19.0 L32.3 20.6 32.0 22.5 30.85 24.25 30.15 25.6 30.0 25.75 Q25.9 31.45 16.6 32.05 L16.5 31.75 M15.5 4.25 L15.5 3.25 18.0 5.4 18.25 7.8 17.15 18.55 16.5 24.8 Q15.9 19.65 16.0 14.0 L15.75 7.5 15.5 4.25 M26.75 16.2 Q26.75 16.8 26.9 16.75 L30.75 16.75 Q31.25 16.3 31.25 15.5 L31.15 14.35 30.25 14.25 Q30.05 14.25 28.45 15.0 26.75 15.85 26.75 16.2 M22.75 35.8 Q22.5 34.85 22.5 33.25 L22.55 32.45 Q25.1 31.8 26.5 30.6 L30.45 26.75 30.5 26.75 31.5 25.65 Q30.7 28.1 29.5 29.5 L25.5 34.0 Q24.9 34.65 22.75 35.75 L22.75 35.8" fill="#333333" fill-rule="evenodd" stroke="none"/>
      <path d="M27.9 3.45 L28.05 3.55 29.4 4.85 29.2 5.2 Q30.0 6.1 30.7 7.75 L32.25 11.5 Q33.25 15.65 33.25 19.1 L33.25 21.1 33.35 21.15 33.5 21.75 Q33.5 24.0 32.5 26.6 31.45 29.15 29.85 31.0 26.6 34.75 25.4 35.5 L22.0 37.2 Q18.5 38.5 13.6 38.5 5.1 38.5 1.35 31.8 -1.25 27.1 -1.25 20.0 L-1.4 18.8 Q-1.35 18.25 -0.9 18.05 L-1.0 16.95 -1.0 16.4 Q-1.0 6.75 5.45 2.25 11.55 -2.05 21.0 -0.15 24.2 0.05 27.85 3.35 L27.9 3.45 M16.95 2.85 L19.5 5.55 19.5 5.65 19.55 5.65 Q20.3 5.05 22.85 4.35 L23.15 4.3 25.35 3.75 25.9 3.65 26.0 3.6 26.35 3.55 26.1 3.3 24.35 2.1 23.4 1.7 23.0 1.55 20.4 0.85 Q15.55 -0.15 11.05 1.0 8.3 1.7 7.0 2.65 L4.4 4.9 2.25 7.15 Q0.0 10.55 0.0 16.45 0.0 17.65 0.85 21.2 L1.85 25.0 Q3.0 27.85 3.95 28.85 6.7 31.55 12.2 32.05 L12.25 32.05 14.45 32.1 16.6 32.05 Q25.9 31.45 30.0 25.75 L30.15 25.6 30.85 24.25 32.0 22.5 32.3 20.6 32.25 19.0 Q32.25 14.45 30.25 9.75 L28.35 5.65 27.7 4.95 25.4 9.4 21.65 18.6 19.55 24.3 17.5 30.4 17.05 30.75 17.0 31.5 16.5 31.75 16.45 31.7 16.25 31.75 16.0 31.4 15.65 31.45 12.25 32.0 11.55 31.0 11.5 30.05 11.6 29.45 11.3 27.65 11.25 24.5 Q10.75 20.6 10.75 18.75 L10.5 7.05 10.5 4.25 10.6 2.05 Q10.95 1.15 12.75 1.85 12.75 0.7 14.05 1.05 14.8 1.3 15.15 1.75 16.0 2.05 16.95 2.85 M26.75 16.2 Q26.75 15.85 28.45 15.0 30.05 14.25 30.25 14.25 L31.15 14.35 31.25 15.5 Q31.25 16.3 30.75 16.75 L26.9 16.75 Q26.75 16.8 26.75 16.2 M15.5 4.25 L15.75 7.5 16.0 14.0 Q15.9 19.65 16.5 24.8 L17.15 18.55 18.25 7.8 18.0 5.4 15.5 3.25 15.5 4.25 M11.5 3.1 L11.5 11.15 11.55 15.4 11.75 19.6 Q12.5 25.6 12.5 28.05 L12.5 29.25 12.5 29.5 12.5 30.35 15.7 30.35 15.7 30.0 15.75 28.0 Q15.25 25.4 15.25 24.5 L15.0 17.15 14.5 2.75 11.5 3.1 M4.25 16.0 Q3.5 16.5 1.85 16.5 L0.75 16.35 0.75 14.85 Q1.85 14.0 2.9 14.3 L4.75 15.5 4.25 16.0 M17.05 33.2 L14.5 33.25 Q9.3 33.25 6.0 31.5 L5.3 31.1 Q2.25 29.1 0.75 25.35 L-0.05 22.85 Q0.35 25.95 1.6 29.5 2.85 32.6 3.85 33.7 L5.3 35.05 6.2 35.65 9.45 36.9 10.2 37.05 12.25 37.3 13.55 37.35 17.45 37.15 19.0 36.9 19.15 36.85 22.75 35.8 22.75 35.75 Q24.9 34.65 25.5 34.0 L29.5 29.5 Q30.7 28.1 31.5 25.65 L30.5 26.75 30.45 26.75 26.5 30.6 Q25.1 31.8 22.55 32.45 L21.65 32.65 21.45 32.7 21.3 32.75 21.2 32.75 20.95 32.8 19.15 33.05 17.05 33.2" fill="#202020" fill-rule="evenodd" stroke="none"/>
      <path d="M26.0 3.6 L26.1 3.3 26.35 3.55 26.0 3.6 M23.0 1.55 L19.35 2.1 17.75 2.5 16.95 2.85 Q16.0 2.05 15.15 1.75 14.8 1.3 14.05 1.05 12.75 0.7 12.75 1.85 10.95 1.15 10.6 2.05 L10.5 4.25 10.5 7.05 10.75 18.75 Q10.75 20.6 11.25 24.5 L11.3 27.65 11.6 29.45 11.5 30.05 11.55 31.0 12.25 32.0 15.65 31.45 16.0 31.4 16.25 31.75 16.45 31.7 16.5 31.75 16.6 32.05 14.45 32.1 12.25 32.05 12.2 32.05 Q6.7 31.55 3.95 28.85 3.0 27.85 1.85 25.0 L0.85 21.2 Q0.0 17.65 0.0 16.45 0.0 10.55 2.25 7.15 L4.4 4.9 7.0 2.65 Q8.3 1.7 11.05 1.0 15.55 -0.15 20.4 0.85 L23.0 1.55 M4.25 16.0 L4.75 15.5 2.9 14.3 Q1.85 14.0 0.75 14.85 L0.75 16.35 1.85 16.5 Q3.5 16.5 4.25 16.0 M17.05 33.2 L17.0 33.55 Q17.0 35.9 17.45 37.15 L13.55 37.35 12.25 37.3 10.2 37.05 9.45 36.9 6.2 35.65 5.3 35.05 5.25 32.65 5.3 31.1 6.0 31.5 Q9.3 33.25 14.5 33.25 L17.05 33.2" fill="#666666" fill-rule="evenodd" stroke="none"/>
      <path d="M11.5 3.1 L14.5 2.75 15.0 17.15 15.25 24.5 Q15.25 25.4 15.75 28.0 L15.7 30.0 15.7 30.35 12.5 30.35 12.5 29.5 12.5 29.25 12.5 28.05 Q12.5 25.6 11.75 19.6 L11.55 15.4 11.5 11.15 11.5 3.1 M5.3 31.1 L5.25 32.65 5.3 35.05 3.85 33.7 Q2.85 32.6 1.6 29.5 0.35 25.95 -0.05 22.85 L0.75 25.35 Q2.25 29.1 5.3 31.1" fill="#999999" fill-rule="evenodd" stroke="none"/>
      <path d="M17.45 37.15 Q17.0 35.9 17.0 33.55 L17.05 33.2 19.15 33.05 20.95 32.8 21.2 32.75 21.3 32.75 21.45 32.7 21.65 32.65 22.55 32.45 22.5 33.25 Q22.5 34.85 22.75 35.8 L19.15 36.85 19.0 36.9 17.45 37.15" fill="#515151" fill-rule="evenodd" stroke="none"/>
    </g>
    <g id="text0" transform="matrix(1.0, 0.0, 0.0, 1.0, -17.85, -1.8)">
      <g transform="matrix(1.0, 0.0, 0.0, 1.0, 0.0, 0.0)">
        <use fill="#ffcc66" height="15.25" transform="matrix(0.0156, 0.0, 0.0, 0.0156, 18.0, 15.0)" width="28.35" xlink:href="#font_Lithos_Pro_Regular_x0"/>
        <use fill="#ffcc66" height="15.25" transform="matrix(0.0156, 0.0, 0.0, 0.0156, 27.65, 15.0)" width="28.35" xlink:href="#font_Lithos_Pro_Regular_20"/>
      </g>
    </g>
    <g id="font_Lithos_Pro_Regular_x0">
      <path d="M172.0 39.0 L22.5 -102.5 Q30.0 -110.5 59.0 -139.5 88.0 -168.0 124.5 -204.5 161.0 -240.5 192.0 -271.0 222.5 -301.5 233.5 -313.0 215.0 -332.0 186.0 -362.0 156.5 -391.5 126.0 -423.0 95.5 -454.5 72.0 -478.5 49.0 -502.0 43.0 -508.5 L208.0 -651.0 Q224.0 -632.0 248.5 -602.5 273.0 -572.5 299.0 -540.5 325.5 -508.0 347.0 -482.0 369.0 -455.5 379.0 -444.0 389.0 -455.5 412.5 -482.0 435.5 -508.5 464.0 -541.0 492.0 -573.5 518.0 -603.5 544.0 -633.0 560.0 -651.0 L715.0 -513.0 Q705.0 -503.0 676.0 -476.5 647.0 -450.0 611.5 -418.0 575.5 -386.0 546.5 -359.0 517.0 -332.5 507.0 -322.5 520.5 -308.5 551.5 -278.0 583.0 -247.0 619.0 -211.0 655.0 -175.5 683.0 -147.0 711.5 -119.0 720.0 -110.5 L555.0 38.0 Q542.5 23.5 516.0 -7.5 489.5 -38.5 458.5 -75.0 427.5 -111.5 401.0 -142.5 374.5 -173.5 361.5 -188.5 353.0 -179.0 326.5 -147.0 300.0 -115.0 267.0 -75.5 234.5 -36.0 208.0 -3.5 181.0 29.0 172.0 39.0" fill-rule="evenodd" stroke="none"/>
    </g>
    <g id="font_Lithos_Pro_Regular_20">
      <path d="M662.0 -182.0 L662.0 -182.0 662.0 8.5 Q652.0 7.0 603.5 5.5 555.0 4.0 481.0 3.0 407.0 1.5 320.0 0.5 233.0 0.0 145.5 0.0 L107.5 0.0 92.0 -36.0 Q114.5 -55.5 150.5 -86.5 187.0 -118.0 228.0 -157.0 269.0 -196.0 306.0 -239.5 342.5 -283.0 366.0 -327.5 389.5 -372.0 390.0 -413.5 389.0 -463.5 364.0 -495.0 338.5 -526.0 299.0 -543.0 259.5 -560.0 217.0 -567.0 174.0 -573.5 138.0 -574.5 L171.0 -744.5 Q334.5 -730.0 436.0 -688.0 537.5 -646.0 584.5 -587.0 631.0 -528.0 630.5 -461.5 629.5 -402.5 606.5 -355.5 583.5 -308.5 550.5 -273.0 517.0 -237.5 486.0 -214.0 454.5 -190.0 437.0 -178.0 L437.0 -170.0 662.0 -182.0" fill-rule="evenodd" stroke="none"/>
    </g>
    <g id="sprite3" transform="matrix(1.0, 0.0, 0.0, 1.0, 29.05, 29.25)">
      <clipPath id="clipPath1">
        <path d="M 40 0 L 40 40 L 0 40 L 0 0 Z M 18.75 -7.8 L -0.55 -7.7 L -6.5 -7.4 L -6.75 -7.35 L -7 -7.3 L -7.04 -7.4 L -7.07 -7.48 L -7.11 -7.52 L -7.14 -7.54 L -7.18 -7.52 L -7.22 -7.47 L -7.26 -7.38 L -7.3 -7.25 L -7.35 -7.1 L -8 -1.85 L -8 42.5 L -7.95 42.8 L -7.85 48.6 L 47.35 48.6 L 47.4 42.8 L 47.4 42.5 L 47.5 18.6 L 47.4 -0.7 L 47.36 -2.3 L 47.31 -3.69 L 47.25 -4.87 L 47.19 -5.83 L 47.12 -6.57 L 47.04 -7.11 L 47 -7.3 L 46.96 -7.43 L 46.92 -7.51 L 46.89 -7.53 L 46.87 -7.54 L 46.83 -7.51 L 46.79 -7.45 L 46.74 -7.35 L 46.7 -7.2 L 46.65 -7.3 L 46.5 -7.45 L 45 -7.55 L 44.9 -7.55 L 42.65 -7.7 L 18.75 -7.8 Z"/>
      </clipPath>
      <g clip-path="url(#clipPath1)">
        <use ffdec:characterId="937" height="49.05" transform="matrix(1.0, 0.0, 0.0, 1.0, -5.2, -5.05)" width="49.95" xlink:href="#shape3"/>
      </g>
    </g>
    <g id="shape3" transform="matrix(1.0, 0.0, 0.0, 1.0, 5.2, 5.05)">
      <path d="M18.85 -5.05 L40.4 -5.0 42.4 -4.85 42.5 -4.85 43.85 -4.75 44.0 -4.6 44.05 -4.55 Q44.5 -6.2 44.65 1.3 L44.75 18.7 44.65 40.2 44.5 42.2 Q44.4 43.75 44.05 43.75 L43.8 43.55 42.9 43.75 40.4 44.0 0.45 44.0 -3.55 43.55 -3.6 43.55 -4.6 43.75 -4.95 42.7 -5.2 40.2 -5.2 0.3 -4.6 -4.45 -4.55 -4.55 Q-4.45 -5.05 -4.3 -4.6 L-4.05 -4.65 -3.85 -4.7 1.5 -5.0 18.85 -5.05 M36.4 1.65 L36.8 1.25 41.65 -3.2 42.1 -3.6 41.7 -3.65 41.6 -3.85 40.4 -3.7 0.45 -3.7 -3.0 -4.1 2.5 0.85 3.3 1.65 1.8 1.65 1.8 2.6 1.8 1.65 3.3 1.65 3.6 1.95 2.0 1.95 2.0 2.8 1.8 2.6 0.3 1.1 -3.9 -4.2 -4.2 -4.3 -3.95 1.3 -3.85 18.7 -3.95 40.2 -4.05 42.2 -4.05 42.5 -4.0 42.3 -3.6 41.8 -1.65 39.65 1.8 36.1 1.8 37.95 2.0 37.95 1.8 37.95 1.8 36.1 2.0 35.9 2.0 37.95 2.6 37.95 -0.4 40.9 -2.75 42.9 1.5 42.7 18.85 42.65 40.4 42.7 42.4 42.85 42.5 42.85 42.4 42.8 39.65 40.55 37.05 37.95 38.0 37.95 38.15 37.95 38.15 36.45 38.15 37.95 38.0 37.95 38.0 36.35 38.15 36.45 40.9 39.3 42.85 41.45 43.6 42.45 43.4 40.2 43.4 0.3 43.85 -3.65 43.8 -3.65 42.95 -3.5 42.8 -3.3 39.0 1.45 38.15 2.3 38.15 1.65 36.4 1.65 38.15 1.65 38.15 2.3 38.0 2.45 38.0 1.95 36.0 1.95 36.4 1.65" fill="#473a29" fill-rule="evenodd" stroke="none"/>
      <path d="M3.3 1.65 L2.5 0.85 -3.0 -4.1 0.45 -3.7 40.4 -3.7 41.6 -3.85 41.7 -3.65 42.1 -3.6 41.65 -3.2 36.8 1.25 36.4 1.65 3.3 1.65 36.4 1.65 36.0 1.95 3.6 1.95 3.3 1.65 M1.8 36.1 L-1.65 39.65 -3.6 41.8 -4.0 42.3 -4.05 42.2 -3.95 40.2 -3.85 18.7 -3.95 1.3 -4.2 -4.3 -3.9 -4.2 0.3 1.1 1.8 2.6 2.0 2.8 2.0 35.9 1.8 36.1 1.8 35.0 1.8 33.05 1.8 2.6 1.8 33.05 1.8 35.0 1.8 36.1" fill="#bfaf91" fill-rule="evenodd" stroke="none"/>
      <path d="M38.15 2.3 L39.0 1.45 42.8 -3.3 42.95 -3.5 43.8 -3.65 43.85 -3.65 43.4 0.3 43.4 40.2 43.6 42.45 42.85 41.45 40.9 39.3 38.15 36.45 38.15 2.3 38.15 36.45 38.0 36.35 38.0 2.45 38.15 2.3 M37.05 37.95 L39.65 40.55 42.4 42.8 42.4 42.85 40.4 42.7 18.85 42.65 1.5 42.7 -2.75 42.9 -0.4 40.9 2.6 37.95 26.5 37.95 Q27.1 37.75 27.6 37.95 L37.05 37.95" fill="#6c5b3e" fill-rule="evenodd" stroke="none"/>
      <path d="M3.3 1.65 L36.4 1.65 38.15 1.65 38.15 2.3 38.15 36.45 38.15 37.95 38.0 37.95 37.05 37.95 27.6 37.95 Q27.1 37.75 26.5 37.95 L2.6 37.95 2.0 37.95 1.8 37.95 1.8 36.1 1.8 35.0 1.8 33.05 1.8 2.6 1.8 1.65 3.3 1.65 Z" fill="none" stroke="#473a29" stroke-linecap="round" stroke-linejoin="round" stroke-opacity="0.49019608" stroke-width="1.0"/>
    </g>
    <g id="sprite4" transform="matrix(1.0, 0.0, 0.0, 1.0, 0.0, 48.5)">
      <use ffdec:characterId="949" height="340.0" transform="matrix(0.2505, 0.0, 0.0, 0.1427, 0.0114, -48.4851)" width="192.0" xlink:href="#shape4"/>
    </g>
    <g id="shape4" transform="matrix(1.0, 0.0, 0.0, 1.0, 2.15, 3.05)">
      <path d="M189.85 -3.05 L189.85 336.95 -2.15 336.95 -2.15 -3.05 189.85 -3.05" fill="#000000" fill-opacity="0.29803923" fill-rule="evenodd" stroke="none"/>
    </g>
    <g id="sprite5" transform="matrix(1.0, 0.0, 0.0, 1.0, 0.0, 48.5)">
      <use ffdec:characterId="949" height="340.0" transform="matrix(0.2505, 0.0, 0.0, 0.1427, 0.0114, -48.4851)" width="192.0" xlink:href="#shape5"/>
    </g>
    <g id="shape5" transform="matrix(1.0, 0.0, 0.0, 1.0, 2.15, 3.05)">
      <path d="M189.85 -3.05 L189.85 336.95 -2.15 336.95 -2.15 -3.05 189.85 -3.05" fill="#000000" fill-opacity="0.49803922" fill-rule="evenodd" stroke="none"/>
    </g>
    <g id="sprite6" transform="matrix(1.0, 0.0, 0.0, 1.0, 64.35, 49.9)">
      <use ffdec:characterId="58" height="400.0" transform="matrix(0.1796, 0.0, 0.0, 0.1248, -62.85, -49.9)" width="700.0" xlink:href="#shape6"/>
      <use ffdec:characterId="951" height="18.1" id="txt_name" transform="matrix(1.0, 0.0, 0.0, 1.0, -63.85, -49.05)" width="129.05" xlink:href="#text2"/>
      <use ffdec:characterId="952" height="35.25" id="txt_desc" transform="matrix(1.0, 0.0, 0.0, 1.0, -64.35, -35.05)" width="129.05" xlink:href="#text3"/>
    </g>
    <g id="shape6" transform="matrix(1.0, 0.0, 0.0, 1.0, 0.0, 0.0)">
      <path d="M700.0 400.0 L0.0 400.0 0.0 0.0 700.0 0.0 700.0 400.0" fill="#000000" fill-opacity="0.49803922" fill-rule="evenodd" stroke="none"/>
    </g>
    <g id="text2" transform="matrix(1.0, 0.0, 0.0, 1.0, -51.35, 2.0)">
      <g transform="matrix(1.0, 0.0, 0.0, 1.0, 51.35, -2.0)">
        <use fill="#ffffff" height="18.1" transform="matrix(0.0117, 0.0, 0.0, 0.0117, 45.95, 13.05)" width="129.05" xlink:href="#font_Lithos_Pro_Regular_N0"/>
        <use fill="#ffffff" height="18.1" transform="matrix(0.0117, 0.0, 0.0, 0.0117, 56.95, 13.05)" width="129.05" xlink:href="#font_Lithos_Pro_Regular_a0"/>
        <use fill="#ffffff" height="18.1" transform="matrix(0.0117, 0.0, 0.0, 0.0117, 65.45, 13.05)" width="129.05" xlink:href="#font_Lithos_Pro_Regular_m0"/>
        <use fill="#ffffff" height="18.1" transform="matrix(0.0117, 0.0, 0.0, 0.0117, 76.75, 13.05)" width="129.05" xlink:href="#font_Lithos_Pro_Regular_e0"/>
      </g>
    </g>
    <g id="font_Lithos_Pro_Regular_N0">
      <path d="M216.5 7.5 L120.0 0.0 Q121.5 -20.5 124.5 -75.5 127.0 -130.5 131.0 -207.0 135.0 -283.5 139.0 -368.0 143.0 -452.5 147.0 -531.5 151.0 -610.5 153.5 -670.5 156.5 -730.5 158.0 -758.0 L160.0 -758.0 Q168.0 -748.5 209.0 -705.5 249.5 -663.0 309.5 -600.0 370.0 -537.0 437.0 -467.5 503.5 -398.0 564.0 -335.0 624.5 -272.0 666.0 -229.5 707.5 -186.5 716.5 -177.0 716.5 -185.5 717.0 -225.0 717.5 -265.0 718.0 -323.5 719.0 -382.5 720.0 -447.5 720.5 -513.0 721.5 -572.0 722.5 -631.5 723.0 -672.0 723.5 -712.5 724.0 -722.0 L819.0 -716.5 Q818.0 -697.0 815.0 -641.0 812.5 -585.0 808.5 -504.5 805.0 -424.0 801.5 -332.0 798.0 -240.0 795.5 -148.5 792.5 -57.0 791.5 21.5 L789.5 21.5 Q781.5 13.5 739.5 -29.5 697.0 -72.5 635.0 -136.5 572.5 -200.5 504.0 -271.5 435.0 -342.5 373.5 -406.5 312.0 -470.0 271.5 -513.0 231.5 -555.5 225.5 -563.0 L223.5 -563.0 Q223.5 -553.0 223.0 -511.0 222.5 -468.5 221.5 -407.0 220.5 -345.0 219.5 -277.0 218.5 -209.0 217.5 -147.5 217.0 -86.0 216.5 -44.0 216.0 -2.0 216.5 7.5" fill-rule="evenodd" stroke="none"/>
    </g>
    <g id="font_Lithos_Pro_Regular_a0">
      <path d="M226.5 -255.0 L476.5 -265.0 Q473.0 -271.5 460.0 -295.0 447.5 -318.5 430.0 -350.5 412.5 -382.5 395.0 -414.0 378.0 -445.5 365.0 -468.0 352.5 -490.5 349.5 -495.5 345.0 -488.5 332.5 -464.0 319.5 -439.5 303.0 -406.0 286.0 -373.0 269.5 -340.0 253.0 -307.0 241.0 -283.5 229.5 -260.0 226.5 -255.0 M93.5 18.5 L14.5 -26.5 Q27.5 -49.5 55.0 -100.0 83.0 -150.5 119.0 -216.5 155.0 -283.0 193.5 -353.0 231.5 -423.5 265.0 -485.0 299.0 -547.0 322.0 -589.0 345.0 -630.5 350.5 -640.0 L352.5 -640.0 Q376.5 -601.5 414.5 -538.0 452.0 -474.0 496.0 -399.0 540.0 -323.5 582.5 -250.0 625.5 -176.5 660.0 -119.0 694.0 -61.0 713.0 -32.5 L630.0 17.5 Q623.0 4.0 605.5 -28.5 587.5 -61.0 566.5 -99.0 545.5 -137.0 529.0 -166.5 512.0 -196.0 508.0 -202.5 L191.5 -190.5 Q186.5 -179.0 173.0 -150.5 159.5 -121.5 143.5 -86.5 127.0 -52.0 113.0 -23.0 99.0 6.5 93.5 18.5" fill-rule="evenodd" stroke="none"/>
    </g>
    <g id="font_Lithos_Pro_Regular_m0">
      <path d="M115.0 22.5 L31.0 -4.0 Q35.5 -14.5 51.5 -61.5 68.0 -108.0 91.0 -176.5 114.5 -245.0 140.0 -320.0 165.0 -395.0 187.5 -462.0 210.0 -529.0 224.5 -573.0 239.0 -617.5 241.0 -624.0 L245.0 -624.0 Q254.0 -606.5 276.0 -563.5 298.5 -521.0 327.5 -465.5 356.5 -410.5 385.5 -355.5 414.5 -300.5 437.0 -259.0 459.5 -217.0 468.0 -201.0 477.5 -216.5 502.5 -258.5 527.5 -300.0 560.0 -354.0 592.0 -408.0 623.5 -460.5 655.0 -513.0 677.5 -550.5 700.0 -588.0 705.5 -597.5 L708.5 -597.5 Q716.0 -579.0 732.5 -535.5 749.0 -492.5 771.5 -434.0 793.5 -375.5 818.0 -311.5 842.5 -247.5 865.5 -187.0 889.0 -127.0 907.0 -80.0 925.0 -33.0 935.0 -9.5 L850.0 22.5 Q843.0 1.5 826.0 -47.0 809.5 -95.5 787.5 -156.5 766.0 -218.0 745.0 -277.0 724.0 -336.5 708.5 -379.5 693.5 -422.0 689.5 -433.5 680.0 -418.0 657.5 -381.5 635.5 -345.5 606.5 -298.0 577.5 -250.5 548.0 -202.0 518.5 -153.5 494.5 -114.5 470.5 -75.5 458.0 -55.5 L456.0 -55.5 Q436.0 -93.0 408.0 -144.5 380.5 -196.5 351.0 -252.5 321.5 -308.0 295.5 -356.5 270.0 -405.0 254.0 -435.5 250.0 -421.0 239.0 -385.0 228.0 -349.0 213.0 -300.0 198.0 -251.5 182.0 -199.0 166.0 -146.5 151.5 -99.0 137.0 -52.0 127.5 -19.5 117.5 13.5 115.0 22.5" fill-rule="evenodd" stroke="none"/>
    </g>
    <g id="font_Lithos_Pro_Regular_e0">
      <path d="M458.5 -68.5 L461.5 9.5 Q451.5 9.5 417.0 8.5 383.0 7.5 337.5 6.0 292.0 5.0 247.0 3.5 202.0 2.0 170.5 1.0 138.5 0.0 132.0 0.0 133.0 -18.5 133.5 -56.0 134.5 -93.5 134.5 -136.0 135.0 -178.0 135.0 -211.0 135.0 -244.0 135.0 -252.5 L135.0 -368.5 Q135.0 -373.5 135.0 -397.5 134.5 -421.5 134.0 -454.5 134.0 -488.0 133.5 -521.5 133.0 -555.0 132.5 -579.5 132.5 -603.5 132.0 -609.5 139.5 -609.5 168.5 -611.0 197.5 -612.0 238.0 -614.5 278.5 -616.5 320.0 -618.5 362.0 -621.0 395.0 -623.0 428.5 -625.0 443.0 -626.0 L447.0 -552.0 Q431.0 -552.0 397.5 -551.5 364.0 -551.0 326.5 -550.0 288.5 -549.0 259.5 -548.5 231.0 -548.0 224.0 -548.0 L224.0 -334.5 Q231.0 -334.5 253.5 -335.0 276.0 -336.0 305.5 -337.0 335.5 -338.5 365.0 -340.0 394.5 -342.0 416.5 -343.5 L419.5 -269.0 Q407.0 -269.0 378.5 -269.5 350.5 -270.0 317.0 -271.0 284.5 -271.0 258.5 -271.5 232.5 -272.0 224.0 -272.0 L224.0 -65.5 Q233.0 -65.5 258.0 -65.0 283.0 -65.0 317.0 -65.0 351.5 -65.0 388.5 -66.0 425.5 -66.5 458.5 -68.5" fill-rule="evenodd" stroke="none"/>
    </g>
    <g id="text3" transform="matrix(1.0, 0.0, 0.0, 1.0, -51.35, 2.0)">
      <g transform="matrix(1.0, 0.0, 0.0, 1.0, 51.35, -2.0)">
        <use fill="#ffffff" height="35.25" transform="matrix(0.0098, 0.0, 0.0, 0.0098, 49.05, 7.2)" width="129.05" xlink:href="#font_Lithos_Pro_Regular_N0"/>
        <use fill="#ffffff" height="35.25" transform="matrix(0.0098, 0.0, 0.0, 0.0098, 58.2, 7.2)" width="129.05" xlink:href="#font_Lithos_Pro_Regular_a0"/>
        <use fill="#ffffff" height="35.25" transform="matrix(0.0098, 0.0, 0.0, 0.0098, 65.3, 7.2)" width="129.05" xlink:href="#font_Lithos_Pro_Regular_m0"/>
        <use fill="#ffffff" height="35.25" transform="matrix(0.0098, 0.0, 0.0, 0.0098, 74.7, 7.2)" width="129.05" xlink:href="#font_Lithos_Pro_Regular_e0"/>
      </g>
      <g transform="matrix(1.0, 0.0, 0.0, 1.0, 51.35, -2.0)">
        <use fill="#ffffff" height="35.25" transform="matrix(0.0098, 0.0, 0.0, 0.0098, 46.0, 16.95)" width="129.05" xlink:href="#font_Lithos_Pro_Regular_k0"/>
        <use fill="#ffffff" height="35.25" transform="matrix(0.0098, 0.0, 0.0, 0.0098, 52.6, 16.95)" width="129.05" xlink:href="#font_Lithos_Pro_Regular_j0"/>
        <use fill="#ffffff" height="35.25" transform="matrix(0.0098, 0.0, 0.0, 0.0098, 56.25, 16.95)" width="129.05" xlink:href="#font_Lithos_Pro_Regular_h0"/>
        <use fill="#ffffff" height="35.25" transform="matrix(0.0098, 0.0, 0.0, 0.0098, 64.5, 16.95)" width="129.05" xlink:href="#font_Lithos_Pro_Regular_k0"/>
        <use fill="#ffffff" height="35.25" transform="matrix(0.0098, 0.0, 0.0, 0.0098, 71.1, 16.95)" width="129.05" xlink:href="#font_Lithos_Pro_Regular_j0"/>
        <use fill="#ffffff" height="35.25" transform="matrix(0.0098, 0.0, 0.0, 0.0098, 74.75, 16.95)" width="129.05" xlink:href="#font_Lithos_Pro_Regular_h0"/>
      </g>
      <g transform="matrix(1.0, 0.0, 0.0, 1.0, 51.35, -2.0)">
        <use fill="#ffffff" height="35.25" transform="matrix(0.0098, 0.0, 0.0, 0.0098, 46.0, 26.7)" width="129.05" xlink:href="#font_Lithos_Pro_Regular_k0"/>
        <use fill="#ffffff" height="35.25" transform="matrix(0.0098, 0.0, 0.0, 0.0098, 52.6, 26.7)" width="129.05" xlink:href="#font_Lithos_Pro_Regular_j0"/>
        <use fill="#ffffff" height="35.25" transform="matrix(0.0098, 0.0, 0.0, 0.0098, 56.25, 26.7)" width="129.05" xlink:href="#font_Lithos_Pro_Regular_h0"/>
        <use fill="#ffffff" height="35.25" transform="matrix(0.0098, 0.0, 0.0, 0.0098, 64.5, 26.7)" width="129.05" xlink:href="#font_Lithos_Pro_Regular_k0"/>
        <use fill="#ffffff" height="35.25" transform="matrix(0.0098, 0.0, 0.0, 0.0098, 71.1, 26.7)" width="129.05" xlink:href="#font_Lithos_Pro_Regular_j0"/>
        <use fill="#ffffff" height="35.25" transform="matrix(0.0098, 0.0, 0.0, 0.0098, 74.75, 26.7)" width="129.05" xlink:href="#font_Lithos_Pro_Regular_h0"/>
      </g>
    </g>
    <g id="font_Lithos_Pro_Regular_k0">
      <path d="M621.5 -61.5 L558.0 8.5 Q553.5 4.0 523.0 -26.5 493.0 -56.5 449.0 -100.5 405.0 -144.0 359.5 -189.5 314.0 -235.5 278.5 -271.0 243.0 -306.5 230.0 -320.5 235.5 -326.0 265.5 -353.5 295.5 -381.5 337.5 -421.0 379.5 -460.5 421.5 -500.5 464.0 -540.5 495.0 -569.5 526.0 -599.0 533.0 -606.5 L587.5 -540.0 Q572.5 -528.5 540.0 -501.0 507.0 -473.5 467.0 -440.0 427.0 -406.0 392.0 -375.5 356.5 -345.0 336.5 -327.0 346.0 -316.0 373.5 -289.5 401.5 -262.5 438.5 -228.0 476.0 -193.5 513.5 -159.0 551.0 -124.5 580.5 -98.0 609.5 -72.0 621.5 -61.5 M228.0 9.5 L130.0 9.5 Q130.5 -1.0 131.5 -30.0 132.5 -59.0 133.0 -99.0 134.0 -139.5 134.5 -182.5 135.0 -225.5 135.0 -263.0 L135.0 -355.5 Q135.0 -385.0 134.0 -426.0 133.5 -466.5 132.5 -508.0 131.5 -549.5 130.5 -580.0 130.0 -610.5 130.0 -619.0 L228.0 -619.0 Q227.5 -612.5 227.0 -583.5 226.0 -554.5 225.0 -514.5 224.5 -474.0 223.5 -433.5 223.0 -393.0 223.0 -363.5 L223.0 -270.5 Q223.0 -244.0 223.5 -200.5 224.0 -157.5 225.0 -111.5 225.5 -66.0 226.5 -32.0 227.5 1.5 228.0 9.5" fill-rule="evenodd" stroke="none"/>
    </g>
    <g id="font_Lithos_Pro_Regular_j0">
      <path d="M258.0 -400.5 L258.0 -264.5 Q257.0 -170.0 230.5 -104.5 204.0 -39.5 161.5 1.0 119.0 41.5 70.5 61.5 L25.5 -7.5 Q70.0 -25.5 102.0 -57.0 134.0 -88.5 151.5 -139.5 169.0 -190.5 169.0 -266.5 L169.0 -402.5 Q169.0 -409.0 168.5 -438.0 168.0 -467.0 167.5 -503.5 166.5 -540.5 166.0 -570.5 165.5 -600.5 165.0 -609.5 L263.0 -609.5 Q262.0 -601.0 261.0 -571.5 259.5 -542.0 259.0 -497.5 258.0 -453.5 258.0 -400.5" fill-rule="evenodd" stroke="none"/>
    </g>
    <g id="font_Lithos_Pro_Regular_h0">
      <path d="M228.0 0.0 L132.0 0.0 Q132.5 -12.0 133.0 -40.0 133.5 -67.5 134.0 -103.0 134.5 -138.0 134.5 -172.0 135.0 -206.5 135.0 -231.5 135.0 -256.5 135.0 -264.0 L135.0 -358.0 Q135.0 -363.0 134.5 -388.0 134.5 -412.5 134.0 -447.0 133.5 -481.5 132.5 -516.5 132.0 -551.5 131.0 -577.0 130.5 -602.5 130.0 -609.5 L229.0 -609.5 Q228.5 -604.0 228.0 -583.0 227.0 -562.5 226.5 -533.5 225.5 -504.5 225.0 -476.0 224.5 -447.0 224.5 -426.0 224.0 -405.0 224.0 -400.0 L224.0 -336.5 618.5 -352.5 618.5 -418.5 Q618.5 -425.0 618.0 -451.5 618.0 -478.5 617.5 -512.0 617.0 -546.0 616.5 -573.5 616.0 -601.0 615.5 -609.5 L714.5 -609.5 Q714.0 -602.5 713.0 -574.5 712.0 -547.0 711.0 -509.0 710.5 -471.0 709.5 -432.5 708.5 -394.5 708.0 -367.0 707.5 -339.0 707.5 -332.0 L707.5 -245.5 Q707.5 -241.5 707.5 -217.0 708.0 -193.0 708.5 -159.0 708.5 -124.5 709.0 -90.0 710.0 -56.0 710.5 -31.0 711.0 -6.0 711.5 0.0 L613.5 0.0 Q614.5 -12.0 615.5 -41.5 616.5 -71.0 617.0 -105.0 618.0 -139.5 618.0 -166.5 618.5 -193.5 618.5 -200.5 L618.5 -288.5 224.0 -272.0 224.0 -219.0 Q224.0 -203.5 224.5 -171.0 225.0 -139.0 225.5 -102.5 226.5 -66.0 227.0 -37.5 227.5 -8.5 228.0 0.0" fill-rule="evenodd" stroke="none"/>
    </g>
  </defs>
</svg>
