<?xml version="1.0" encoding="UTF-8" standalone="no"?>
<svg xmlns:ffdec="https://www.free-decompiler.com/flash" xmlns:xlink="http://www.w3.org/1999/xlink" ffdec:objectType="frame" height="135.65px" width="129.65px" xmlns="http://www.w3.org/2000/svg">
  <g transform="matrix(1.0, 0.0, 0.0, 1.0, 45.0, 57.4)">
    <use ffdec:characterId="933" height="47.45" id="bgcolor" transform="matrix(1.0, 0.0, 0.0, 1.0, -4.2, -3.9)" width="47.45" xlink:href="#sprite0"/>
    <use ffdec:characterId="921" height="22.0" id="hitbox" transform="matrix(2.2297, 0.0, 0.0, 2.1749, -4.55, -4.25)" width="22.0" xlink:href="#sprite1"/>
    <clipPath id="clipPath0" transform="matrix(1.0, 0.0, 0.0, 1.0, 0.0, 0.0)">
      <path d="M40.0 0.0 L40.0 40.0 0.0 40.0 0.0 0.0 40.0 0.0" fill="#cccccc" fill-rule="evenodd" stroke="none"/>
    </clipPath>
    <g clip-path="url(#clipPath0)">
      <filter id="filter0">
        <feColorMatrix in="SourceGraphic" result="filterResult0" type="matrix" values="0 0 0 0 0.2,0 0 0 0 0.2,0 0 0 0 1.0,0 0 0 1 0"/>
        <feConvolveMatrix divisor="400.0" in="filterResult0" kernelMatrix="1 1 1 1 1 1 1 1 1 1 1 1 1 1 1 1 1 1 1 1 1 1 1 1 1 1 1 1 1 1 1 1 1 1 1 1 1 1 1 1 1 1 1 1 1 1 1 1 1 1 1 1 1 1 1 1 1 1 1 1 1 1 1 1 1 1 1 1 1 1 1 1 1 1 1 1 1 1 1 1 1 1 1 1 1 1 1 1 1 1 1 1 1 1 1 1 1 1 1 1 1 1 1 1 1 1 1 1 1 1 1 1 1 1 1 1 1 1 1 1 1 1 1 1 1 1 1 1 1 1 1 1 1 1 1 1 1 1 1 1 1 1 1 1 1 1 1 1 1 1 1 1 1 1 1 1 1 1 1 1 1 1 1 1 1 1 1 1 1 1 1 1 1 1 1 1 1 1 1 1 1 1 1 1 1 1 1 1 1 1 1 1 1 1 1 1 1 1 1 1 1 1 1 1 1 1 1 1 1 1 1 1 1 1 1 1 1 1 1 1 1 1 1 1 1 1 1 1 1 1 1 1 1 1 1 1 1 1 1 1 1 1 1 1 1 1 1 1 1 1 1 1 1 1 1 1 1 1 1 1 1 1 1 1 1 1 1 1 1 1 1 1 1 1 1 1 1 1 1 1 1 1 1 1 1 1 1 1 1 1 1 1 1 1 1 1 1 1 1 1 1 1 1 1 1 1 1 1 1 1 1 1 1 1 1 1 1 1 1 1 1 1 1 1 1 1 1 1 1 1 1 1 1 1 1 1 1 1 1 1 1 1 1 1 1 1 1 1 1 1 1 1 1 1 1 1 1 1 1 1 1 1 1 1 1 1 1 1 1 1 1 1 1 1 1 1 1 1 1 1 1 1 1 1 1 1 1 1 1 1 1 1 1 1 1 1 1 1 1 1" order="20 20" result="filterResult1"/>
        <feComposite in="SourceGraphic" in2="filterResult1" operator="over" result="filterResult2"/>
      </filter>
      <use ffdec:characterId="979" filter="url(#filter0)" height="73.5" transform="matrix(0.4168, 0.0, 0.0, 0.4168, 1.5956, 2.3334)" width="78.0" xlink:href="#sprite2"/>
      <filter id="filter4">
        <feColorMatrix in="SourceGraphic" result="filterResult3" type="matrix" values="0 0 0 0 0.0,0 0 0 0 0.0,0 0 0 0 0.0,0 0 0 1 0"/>
        <feConvolveMatrix divisor="9.0" in="filterResult3" kernelMatrix="1 1 1 1 1 1 1 1 1" order="3 3" result="filterResult4"/>
        <feComposite in="SourceGraphic" in2="filterResult4" operator="over" result="filterResult5"/>
      </filter>
      <use ffdec:characterId="969" filter="url(#filter4)" height="15.2" transform="matrix(1.0, 0.0, 0.0, 1.0, 2.75, 24.35)" width="42.35" xlink:href="#text0"/>
    </g>
    <filter id="filter5">
      <feColorMatrix in="SourceGraphic" result="filterResult6" type="matrix" values="0 0 0 0 0.0,0 0 0 0 0.0,0 0 0 0 0.0,0 0 0 1 0"/>
      <feConvolveMatrix divisor="4.0" in="filterResult6" kernelMatrix="1 1 1 1" order="2 2" result="filterResult7"/>
      <feComposite in="SourceGraphic" in2="filterResult7" operator="over" result="filterResult8"/>
    </filter>
    <use ffdec:characterId="935" filter="url(#filter5)" height="15.75" id="txt_hotkey" transform="matrix(1.0, 0.0, 0.0, 1.0, -3.85, -0.1)" width="18.0" xlink:href="#text1"/>
    <use ffdec:characterId="948" ffdec:characterName="Army_fla.Hud_BgButton_151" height="97.6" id="bg" transform="matrix(1.0, 0.0, 0.0, 1.0, -29.05, -29.25)" width="97.6" xlink:href="#sprite3"/>
    <use ffdec:characterId="950" ffdec:characterName="Army_fla.Hud_cooldown_152" height="48.5" id="cdcover" transform="matrix(0.9979, 0.0, 0.0, 0.9897, -4.2, -3.9997)" width="48.1" xlink:href="#sprite4"/>
    <use ffdec:characterId="950" ffdec:characterName="Army_fla.Hud_cooldown_152" height="48.5" id="cd" transform="matrix(0.9979, 0.0, 0.0, 0.9897, -4.2, -3.9997)" width="48.1" xlink:href="#sprite4"/>
    <use ffdec:characterId="953" ffdec:characterName="Army_fla.Hud_Description_153" height="50.1" id="desc" transform="matrix(0.0746, 0.0, 0.0, 0.0746, 14.6505, 16.4782)" width="129.55" xlink:href="#sprite5"/>
  </g>
  <defs>
    <g id="sprite0" transform="matrix(1.0, 0.0, 0.0, 1.0, 0.0, 0.0)">
      <use ffdec:characterId="932" height="47.45" transform="matrix(1.0, 0.0, 0.0, 1.0, 0.0, 0.0)" width="47.45" xlink:href="#shape0"/>
    </g>
    <g id="shape0" transform="matrix(1.0, 0.0, 0.0, 1.0, 0.0, 0.0)">
      <path d="M47.45 0.0 L47.45 47.45 0.0 47.45 0.0 0.0 47.45 0.0" fill="#564732" fill-rule="evenodd" stroke="none"/>
    </g>
    <g id="sprite1" transform="matrix(1.0, 0.0, 0.0, 1.0, 0.0, 0.0)">
      <use ffdec:characterId="145" height="22.0" transform="matrix(1.0, 0.0, 0.0, 1.0, 0.0, 0.0)" width="22.0" xlink:href="#shape1"/>
    </g>
    <g id="shape1" transform="matrix(1.0, 0.0, 0.0, 1.0, 0.0, 0.0)">
      <path d="M22.0 0.0 L22.0 22.0 0.0 22.0 0.0 0.0 22.0 0.0" fill="#00ff00" fill-opacity="0.0" fill-rule="evenodd" stroke="none"/>
    </g>
    <g id="sprite2" transform="matrix(1.0, 0.0, 0.0, 1.0, 39.0, 36.75)">
      <use ffdec:characterId="978" height="73.5" transform="matrix(1.0, 0.0, 0.0, 1.0, -39.0, -36.75)" width="78.0" xlink:href="#shape3"/>
    </g>
    <g id="shape3" transform="matrix(1.0, 0.0, 0.0, 1.0, 39.0, 36.75)">
      <path d="M25.6 -8.05 Q28.25 -7.05 31.75 -4.75 34.35 -3.05 39.0 0.75 L38.75 1.35 Q38.55 1.75 37.8 1.75 L37.4 2.05 37.5 2.25 37.5 28.05 37.15 28.3 36.95 28.5 Q35.85 29.95 22.2 31.9 1.6 34.8 -6.5 36.75 L-7.25 36.6 -7.45 36.25 -7.5 36.25 -8.0 35.6 -8.75 35.75 Q-10.05 35.75 -10.95 34.55 L-12.5 32.75 -15.35 31.3 Q-17.6 30.15 -18.0 29.55 -19.0 28.2 -23.4 26.0 -26.95 24.2 -27.0 22.55 -27.65 21.4 -27.65 19.9 L-27.5 16.55 -27.55 13.15 -27.5 10.15 -27.55 7.2 -27.5 3.5 -27.65 0.05 -27.4 -1.55 Q-27.85 -2.15 -27.95 -2.7 -34.95 -6.05 -37.4 -11.8 -39.0 -15.6 -39.0 -23.0 -39.0 -28.55 -38.3 -29.9 -36.8 -33.0 -31.8 -33.75 -31.25 -34.45 -28.9 -34.85 L-28.5 -35.25 -28.25 -34.95 -25.4 -35.3 Q-16.0 -36.0 19.5 -36.5 L19.5 -36.75 20.2 -36.5 Q20.5 -36.35 20.5 -35.55 L20.35 -34.5 20.2 -34.3 Q21.45 -30.05 21.75 -22.85 22.15 -13.85 24.0 -9.45 L23.95 -9.25 24.05 -9.25 24.2 -9.15 23.3 -9.25 22.45 -9.15 22.35 -9.25 21.65 -9.55 Q21.55 -11.1 20.45 -11.25 L18.05 -11.0 17.9 -10.7 17.9 -10.35 16.1 -11.25 Q10.7 -13.9 10.05 -14.75 7.1 -18.5 6.7 -19.65 6.5 -20.2 6.5 -23.35 L6.55 -24.05 Q6.65 -27.7 8.1 -30.05 9.45 -32.25 11.8 -33.3 6.45 -33.15 -2.5 -33.25 -18.6 -33.4 -25.05 -32.8 L-27.4 -32.6 -27.3 -31.25 -27.2 -27.1 Q-26.9 -25.8 -27.05 -23.2 L-27.05 -22.55 -27.1 -20.7 -27.05 -19.85 -27.0 -19.25 -26.9 -18.6 -26.45 -15.85 Q-25.4 -9.4 -24.15 -3.9 -20.75 -4.95 -10.95 -6.05 L-12.75 -5.6 Q-14.05 -5.3 -15.15 -3.95 L-15.9 -2.75 -23.55 -1.95 -18.25 0.95 -17.7 1.25 -14.2 3.2 -14.1 3.3 Q-10.4 5.4 -7.8 7.05 L-7.5 6.75 Q-7.05 7.1 -6.75 7.75 -3.8 6.7 11.55 4.3 L31.45 1.25 34.15 0.85 34.7 0.75 34.75 0.75 35.7 0.6 33.35 -0.8 30.55 -2.45 25.9 -5.15 25.6 -5.4 25.5 -5.45 25.6 -6.6 25.6 -8.0 25.6 -8.05 M17.8 -32.75 Q15.75 -32.25 13.0 -30.85 L11.55 -29.85 10.0 -28.6 Q8.5 -26.65 8.5 -23.35 8.5 -21.6 10.25 -19.25 L11.05 -17.35 Q11.7 -15.95 13.0 -15.25 15.3 -13.9 19.0 -12.15 L21.1 -11.05 20.65 -13.3 Q20.25 -16.05 19.8 -20.85 19.6 -22.75 19.5 -27.25 L18.95 -30.45 18.55 -32.9 17.8 -32.75 M35.0 7.75 L35.2 7.85 35.2 7.75 Q35.4 4.4 35.85 2.7 L31.05 3.5 26.65 3.85 24.35 4.3 24.85 6.05 25.0 10.3 27.75 9.5 35.0 7.75 M28.05 28.05 L28.05 28.0 28.0 26.05 Q27.75 25.0 27.85 24.15 27.95 23.5 28.3 23.1 L27.5 22.55 Q28.5 21.45 31.6 20.55 L34.9 19.85 34.9 18.0 35.0 15.0 35.1 9.7 Q33.9 10.5 31.6 11.05 27.7 11.8 26.5 12.25 L25.0 12.25 25.0 15.0 Q25.0 16.6 24.0 16.75 L14.5 17.75 12.0 17.5 11.75 13.55 9.4 14.0 -6.4 16.05 -6.4 16.1 -6.45 18.1 -6.5 21.35 -6.5 25.9 -5.6 26.0 Q-4.1 26.0 -1.1 24.9 L1.75 23.75 2.8 24.0 3.0 24.75 3.0 32.25 2.6 32.5 3.0 32.4 10.45 31.05 28.1 28.4 28.15 28.4 28.05 28.05 M22.5 5.05 L22.5 4.65 22.45 4.65 18.25 5.5 13.1 6.55 Q13.85 7.9 14.0 10.15 L14.0 15.55 Q16.45 15.5 18.5 14.75 23.0 14.5 23.0 14.05 L23.0 10.75 22.75 7.65 22.5 5.05 M34.85 21.5 L33.6 22.15 Q31.5 23.15 30.0 23.25 L30.0 28.15 35.4 27.6 Q34.8 26.65 34.8 25.25 35.1 22.7 35.0 21.75 L35.0 21.4 34.85 21.5 M-6.45 14.15 Q-4.55 13.45 -0.2 12.7 L11.5 11.2 11.5 6.85 6.3 7.8 -2.0 9.25 -6.4 9.25 -6.4 10.1 -6.5 14.05 -6.5 14.15 -6.45 14.15 M16.0 7.6 Q16.0 6.85 17.2 6.45 L19.8 6.5 19.75 7.75 19.5 9.4 Q19.5 10.1 19.9 10.55 L20.5 11.3 Q19.95 12.25 18.5 12.25 L16.5 12.0 16.25 9.7 16.0 7.6 M1.0 26.5 Q0.0 26.4 -1.95 27.3 -4.0 28.25 -5.75 28.25 L-6.55 28.25 -6.65 34.9 Q-4.7 33.95 1.85 32.65 0.85 31.75 0.9 29.85 1.15 27.55 1.0 26.5 M-34.3 -30.8 L-33.75 -31.0 Q-33.4 -31.15 -33.2 -31.45 L-34.4 -30.95 Q-36.75 -29.85 -37.0 -28.35 L-37.1 -25.65 -37.0 -23.1 Q-37.0 -15.55 -36.05 -13.4 -34.95 -10.85 -31.65 -7.95 -32.6 -10.95 -33.45 -17.9 -34.5 -26.3 -34.5 -30.65 L-34.3 -30.8 M-27.25 -8.45 L-28.45 -17.35 Q-29.5 -24.8 -29.5 -31.0 L-29.5 -32.4 -30.45 -32.3 -32.5 -31.7 -32.7 -31.65 Q-31.95 -30.0 -31.65 -27.6 L-31.6 -27.15 -31.55 -26.05 -31.5 -19.6 Q-31.45 -17.05 -30.7 -13.45 L-29.5 -7.25 -30.1 -6.65 -26.7 -4.2 -27.15 -7.95 -27.25 -8.45 M-19.5 3.05 L-24.4 0.65 -25.5 0.0 -25.5 4.4 Q-24.4 4.8 -22.8 5.75 L-17.45 9.0 -11.05 11.85 -9.1 12.85 Q-9.2 10.25 -8.75 8.7 -10.45 8.4 -14.4 6.15 L-19.5 3.05 M-8.55 24.8 L-8.5 21.5 -8.9 15.85 Q-11.8 14.7 -18.5 10.75 L-25.5 6.4 -25.5 15.55 -23.85 16.95 -21.5 19.25 -21.0 18.75 Q-20.45 19.5 -20.2 20.8 L-20.0 22.1 -20.2 25.3 -20.35 25.4 -20.3 25.45 -16.35 28.05 -14.45 29.35 -14.5 27.9 Q-14.5 22.0 -11.5 23.3 L-8.6 24.95 -8.55 25.0 -8.55 24.8 M-25.5 22.0 L-21.8 24.45 -22.0 22.25 -22.0 20.8 -22.0 20.75 -22.5 20.75 Q-24.15 20.75 -25.5 19.25 L-25.5 22.0 M-9.4 27.25 Q-10.75 25.95 -12.2 25.55 L-12.7 30.6 -8.6 33.7 -8.65 32.75 -8.5 28.8 -8.55 27.8 -9.4 27.25" fill="#333333" fill-rule="evenodd" stroke="none"/>
      <path d="M30.55 -2.45 L33.35 -0.8 35.7 0.6 34.75 0.75 33.2 -0.6 Q31.85 -1.65 30.5 -2.35 L30.55 -2.45 M-26.45 -15.85 L-26.9 -18.6 -26.75 -18.65 -26.25 -19.75 -26.1 -19.85 -27.05 -19.85 -27.1 -20.7 -27.05 -22.55 -27.05 -23.2 Q-26.9 -25.8 -27.2 -27.1 L-27.3 -31.25 -27.4 -32.6 -25.05 -32.8 Q-18.6 -33.4 -2.5 -33.25 6.45 -33.15 11.8 -33.3 9.45 -32.25 8.1 -30.05 6.65 -27.7 6.55 -24.05 L6.5 -23.35 Q6.5 -20.2 6.7 -19.65 L6.7 -19.6 -3.1 -18.55 -14.75 -18.05 -19.25 -16.7 -26.45 -15.85 M17.8 -32.75 L18.55 -32.9 18.95 -30.45 19.5 -27.25 Q19.6 -22.75 19.8 -20.85 20.25 -16.05 20.65 -13.3 L21.1 -11.05 19.0 -12.15 Q15.3 -13.9 13.0 -15.25 11.7 -15.95 11.05 -17.35 L10.25 -19.25 Q8.5 -21.6 8.5 -23.35 8.5 -26.65 10.0 -28.6 L11.55 -29.85 13.0 -30.85 Q15.75 -32.25 17.8 -32.75 M32.4 5.85 L32.8 6.6 32.15 7.3 31.25 7.65 Q30.6 7.4 30.25 7.0 L30.95 6.15 Q31.45 5.85 32.4 5.85 M25.6 7.5 L26.55 6.6 27.3 6.35 27.65 7.15 Q27.45 7.85 26.65 8.15 L25.6 7.5 M33.3 24.05 Q33.2 24.75 32.3 25.1 L31.25 24.5 Q31.75 23.75 32.2 23.5 L33.0 23.3 33.3 24.05 M3.25 10.0 L3.55 10.75 Q3.45 11.45 2.55 11.75 1.9 11.5 1.5 11.1 1.95 10.45 2.35 10.25 L3.25 10.0 M8.75 10.25 L7.65 9.55 Q8.55 8.15 9.25 8.15 10.0 8.45 10.25 9.25 L9.65 9.85 8.75 10.25 M0.5 28.15 Q0.2 28.95 -0.5 29.25 L-1.5 28.55 -0.7 27.7 0.1 27.4 0.5 28.15 M-31.65 -27.6 L-31.45 -28.0 -30.75 -28.75 Q-29.8 -28.3 -29.75 -27.25 L-30.0 -27.05 Q-30.3 -26.8 -30.75 -26.6 L-31.6 -27.15 -31.65 -27.6 M-27.15 -7.95 Q-27.45 -7.4 -28.15 -7.15 L-29.15 -7.75 Q-28.65 -8.6 -27.5 -9.0 L-27.25 -8.45 -27.15 -7.95 M-29.75 -16.9 L-30.75 -17.5 -30.45 -18.25 -29.75 -19.0 Q-28.9 -18.6 -28.65 -17.9 -28.9 -17.2 -29.75 -16.9 M-3.5 11.25 Q-3.8 11.95 -4.55 12.25 L-5.55 11.6 Q-4.95 10.7 -3.9 10.5 L-3.5 11.25 M-17.35 6.1 Q-17.6 6.8 -18.4 7.15 L-19.4 6.5 Q-18.9 5.7 -17.75 5.35 L-17.35 6.1 M-10.25 9.25 Q-10.35 9.95 -11.25 10.25 L-12.25 9.55 -11.35 8.7 -10.55 8.4 -10.25 9.25 M-23.0 3.05 Q-23.3 3.75 -24.05 4.05 L-24.45 3.9 -25.05 3.4 -25.05 2.25 -24.35 2.15 -23.4 2.25 -23.0 3.05 M-23.55 21.0 Q-22.75 21.3 -22.5 22.0 -22.8 22.75 -23.55 23.05 L-24.55 22.4 -24.25 21.65 -23.55 21.0 M-10.4 27.2 L-10.25 28.05 -11.25 28.75 -12.25 28.05 -11.35 27.15 -10.55 26.9 -10.4 27.2" fill="#3f3f3f" fill-rule="evenodd" stroke="none"/>
      <path d="M-10.95 -6.05 Q-20.75 -4.95 -24.15 -3.9 -25.4 -9.4 -26.45 -15.85 L-19.25 -16.7 -14.75 -18.05 -3.1 -18.55 6.7 -19.6 6.7 -19.65 Q7.1 -18.5 10.05 -14.75 10.7 -13.9 16.1 -11.25 L17.9 -10.35 17.9 -10.0 17.9 -9.75 17.4 -9.75 Q13.3 -9.55 13.3 -10.35 13.35 -11.25 10.25 -11.25 L7.8 -10.85 5.6 -10.35 Q5.25 -10.3 5.3 -10.55 L5.35 -11.1 Q4.85 -11.9 0.0 -11.75 -1.05 -11.5 -1.75 -10.2 L-2.5 -9.0 Q-5.1 -9.0 -7.65 -8.15 -8.45 -7.9 -8.75 -7.15 -8.95 -6.7 -10.95 -6.05 M-26.9 -18.6 L-27.0 -19.25 -27.05 -19.85 -26.1 -19.85 -26.25 -19.75 -26.75 -18.65 -26.9 -18.6" fill="#525252" fill-rule="evenodd" stroke="none"/>
      <path d="M4.05 -7.15 Q3.9 -6.1 2.5 -6.1 L1.45 -6.25 1.0 -6.75 1.0 -7.9 1.85 -8.0 3.75 -7.9 4.05 -7.15 M4.9 -3.4 L5.6 -4.05 Q6.35 -3.75 6.65 -3.05 6.35 -2.3 5.6 -2.0 5.0 -2.25 4.6 -2.65 L4.9 -3.4 M16.5 -9.25 L16.9 -8.15 16.25 -7.5 Q15.7 -7.15 15.35 -7.15 L14.35 -7.75 14.65 -8.55 Q14.95 -9.1 15.35 -9.25 L16.5 -9.25 M14.5 -3.75 Q15.2 -3.45 15.5 -2.75 L14.85 -2.15 14.0 -1.75 13.0 -2.45 Q13.8 -3.75 14.5 -3.75 M24.1 -5.1 Q23.5 -5.35 23.05 -5.75 23.65 -6.65 24.75 -6.9 L25.1 -6.1 Q24.9 -5.4 24.1 -5.1 M21.15 -2.15 L21.85 -2.05 22.5 -1.25 21.85 -0.65 Q21.35 -0.25 21.0 -0.25 L20.0 -0.95 Q20.6 -1.9 21.15 -2.15 M29.05 -1.8 L29.25 -2.2 30.0 -2.25 30.7 -2.05 Q31.0 -1.95 31.0 -1.15 31.0 0.1 30.75 -0.2 L30.0 0.25 29.25 0.0 Q29.0 -0.2 29.0 -1.0 L29.05 -1.8 M10.5 2.75 L9.5 2.05 9.75 1.4 Q10.05 0.9 10.5 0.75 11.2 1.05 11.5 1.75 L10.5 2.75 M4.25 0.4 Q4.55 -0.1 5.0 -0.25 5.7 0.05 6.0 0.75 L5.0 1.75 4.0 1.05 4.25 0.4 M-11.75 -1.1 L-10.9 -1.95 -10.05 -2.25 -9.75 -1.5 Q-9.85 -0.85 -10.75 -0.5 L-11.75 -1.1 M-4.95 -4.75 L-5.55 -5.25 Q-4.95 -6.15 -3.9 -6.35 L-3.5 -5.6 Q-3.85 -4.8 -4.55 -4.55 L-4.95 -4.75 M-2.0 3.25 Q-1.3 3.55 -1.0 4.25 -1.5 5.05 -2.0 5.25 L-3.0 4.55 -2.75 3.9 -2.0 3.25 M-6.0 0.75 Q-5.3 1.05 -5.0 1.75 -5.5 2.55 -6.0 2.75 -6.7 2.5 -7.0 2.05 L-6.75 1.4 -6.0 0.75" fill="#eddcb7" fill-rule="evenodd" stroke="none"/>
      <path d="M24.2 -9.15 Q25.3 -8.95 25.6 -8.05 L25.6 -8.0 25.6 -6.6 25.5 -5.45 25.6 -5.4 25.9 -5.15 Q26.65 -4.55 26.65 -3.65 L26.65 -3.6 Q28.55 -3.35 30.5 -2.35 31.85 -1.65 33.2 -0.6 L34.75 0.75 34.7 0.75 34.15 0.85 31.45 1.25 11.55 4.3 Q-3.8 6.7 -6.75 7.75 -7.05 7.1 -7.5 6.75 L-7.8 7.05 Q-10.4 5.4 -14.1 3.3 L-14.2 3.2 -17.7 1.25 Q-16.85 0.85 -15.5 0.4 L-16.35 -0.85 -15.9 -2.75 -15.15 -3.95 Q-14.05 -5.3 -12.75 -5.6 L-10.95 -6.05 Q-8.95 -6.7 -8.75 -7.15 -8.45 -7.9 -7.65 -8.15 -5.1 -9.0 -2.5 -9.0 L-1.75 -10.2 Q-1.05 -11.5 0.0 -11.75 4.85 -11.9 5.35 -11.1 L5.3 -10.55 Q5.25 -10.3 5.6 -10.35 L7.8 -10.85 10.25 -11.25 Q13.35 -11.25 13.3 -10.35 13.3 -9.55 17.4 -9.75 L17.9 -9.75 17.9 -10.0 17.9 -10.35 17.9 -10.7 18.05 -11.0 20.45 -11.25 Q21.55 -11.1 21.65 -9.55 L22.35 -9.25 22.45 -9.15 23.3 -9.25 24.2 -9.15 M24.1 -5.1 Q24.9 -5.4 25.1 -6.1 L24.75 -6.9 Q23.65 -6.65 23.05 -5.75 23.5 -5.35 24.1 -5.1 M14.5 -3.75 Q13.8 -3.75 13.0 -2.45 L14.0 -1.75 14.85 -2.15 15.5 -2.75 Q15.2 -3.45 14.5 -3.75 M16.5 -9.25 L15.35 -9.25 Q14.95 -9.1 14.65 -8.55 L14.35 -7.75 15.35 -7.15 Q15.7 -7.15 16.25 -7.5 L16.9 -8.15 16.5 -9.25 M4.9 -3.4 L4.6 -2.65 Q5.0 -2.25 5.6 -2.0 6.35 -2.3 6.65 -3.05 6.35 -3.75 5.6 -4.05 L4.9 -3.4 M4.05 -7.15 L3.75 -7.9 1.85 -8.0 1.0 -7.9 1.0 -6.75 1.45 -6.25 2.5 -6.1 Q3.9 -6.1 4.05 -7.15 M21.15 -2.15 Q20.6 -1.9 20.0 -0.95 L21.0 -0.25 Q21.35 -0.25 21.85 -0.65 L22.5 -1.25 21.85 -2.05 21.15 -2.15 M29.05 -1.8 L29.0 -1.0 Q29.0 -0.2 29.25 0.0 L30.0 0.25 30.75 -0.2 Q31.0 0.1 31.0 -1.15 31.0 -1.95 30.7 -2.05 L30.0 -2.25 29.25 -2.2 29.05 -1.8 M10.5 2.75 L11.5 1.75 Q11.2 1.05 10.5 0.75 10.05 0.9 9.75 1.4 L9.5 2.05 10.5 2.75 M4.25 0.4 L4.0 1.05 5.0 1.75 6.0 0.75 Q5.7 0.05 5.0 -0.25 4.55 -0.1 4.25 0.4 M-11.75 -1.1 L-10.75 -0.5 Q-9.85 -0.85 -9.75 -1.5 L-10.05 -2.25 -10.9 -1.95 -11.75 -1.1 M-6.0 0.75 L-6.75 1.4 -7.0 2.05 Q-6.7 2.5 -6.0 2.75 -5.5 2.55 -5.0 1.75 -5.3 1.05 -6.0 0.75 M-2.0 3.25 L-2.75 3.9 -3.0 4.55 -2.0 5.25 Q-1.5 5.05 -1.0 4.25 -1.3 3.55 -2.0 3.25 M-4.95 -4.75 L-4.55 -4.55 Q-3.85 -4.8 -3.5 -5.6 L-3.9 -6.35 Q-4.95 -6.15 -5.55 -5.25 L-4.95 -4.75" fill="#cc9d3c" fill-rule="evenodd" stroke="none"/>
      <path d="M3.0 32.25 L3.0 24.75 2.8 24.0 1.75 23.75 -1.1 24.9 Q-4.1 26.0 -5.6 26.0 L-6.5 25.9 -6.5 21.35 -6.45 18.1 -6.4 16.1 -6.4 16.05 9.4 14.0 11.75 13.55 12.0 17.5 14.5 17.75 24.0 16.75 Q25.0 16.6 25.0 15.0 L25.0 12.25 26.5 12.25 Q27.7 11.8 31.6 11.05 33.9 10.5 35.1 9.7 L35.0 15.0 34.9 18.0 34.9 19.85 31.6 20.55 Q28.5 21.45 27.5 22.55 L28.3 23.1 Q27.95 23.5 27.85 24.15 27.75 25.0 28.0 26.05 L28.05 28.0 28.05 28.05 28.1 28.4 10.45 31.05 3.0 32.4 3.0 32.25 M-31.65 -27.6 Q-31.95 -30.0 -32.7 -31.65 L-32.5 -31.7 -30.45 -32.3 -29.5 -32.4 -29.5 -31.0 Q-29.5 -24.8 -28.45 -17.35 L-27.25 -8.45 -27.5 -9.0 Q-28.65 -8.6 -29.15 -7.75 L-28.15 -7.15 Q-27.45 -7.4 -27.15 -7.95 L-26.7 -4.2 -30.1 -6.65 -29.5 -7.25 -30.7 -13.45 Q-31.45 -17.05 -31.5 -19.6 L-31.55 -26.05 -31.6 -27.15 -30.75 -26.6 Q-30.3 -26.8 -30.0 -27.05 L-29.75 -27.25 Q-29.8 -28.3 -30.75 -28.75 L-31.45 -28.0 -31.65 -27.6 M-29.75 -16.9 Q-28.9 -17.2 -28.65 -17.9 -28.9 -18.6 -29.75 -19.0 L-30.45 -18.25 -30.75 -17.5 -29.75 -16.9 M-10.25 9.25 L-10.55 8.4 -11.35 8.7 -12.25 9.55 -11.25 10.25 Q-10.35 9.95 -10.25 9.25 M-17.35 6.1 L-17.75 5.35 Q-18.9 5.7 -19.4 6.5 L-18.4 7.15 Q-17.6 6.8 -17.35 6.1 M-19.5 3.05 L-14.4 6.15 Q-10.45 8.4 -8.75 8.7 -9.2 10.25 -9.1 12.85 L-11.05 11.85 -17.45 9.0 -22.8 5.75 Q-24.4 4.8 -25.5 4.4 L-25.5 0.0 -24.4 0.65 -19.5 3.05 M-23.0 3.05 L-23.4 2.25 -24.35 2.15 -25.05 2.25 -25.05 3.4 -24.45 3.9 -24.05 4.05 Q-23.3 3.75 -23.0 3.05 M-25.5 22.0 L-25.5 19.25 Q-24.15 20.75 -22.5 20.75 L-22.0 20.75 -22.0 20.8 -22.0 22.25 -21.8 24.45 -25.5 22.0 M-23.55 21.0 L-24.25 21.65 -24.55 22.4 -23.55 23.05 Q-22.8 22.75 -22.5 22.0 -22.75 21.3 -23.55 21.0 M-9.4 27.25 L-8.55 27.8 -8.5 28.8 -8.65 32.75 -8.6 33.7 -12.7 30.6 -12.2 25.55 Q-10.75 25.95 -9.4 27.25 M-10.4 27.2 L-10.55 26.9 -11.35 27.15 -12.25 28.05 -11.25 28.75 -10.25 28.05 -10.4 27.2" fill="#999999" fill-rule="evenodd" stroke="none"/>
      <path d="M32.4 5.85 Q31.45 5.85 30.95 6.15 L30.25 7.0 Q30.6 7.4 31.25 7.65 L32.15 7.3 32.8 6.6 32.4 5.85 M35.2 7.75 L35.0 7.75 27.75 9.5 25.0 10.3 24.85 6.05 24.35 4.3 26.65 3.85 31.05 3.5 35.85 2.7 Q35.4 4.4 35.2 7.75 M22.45 4.65 L22.5 5.05 22.75 7.65 23.0 10.75 23.0 14.05 Q23.0 14.5 18.5 14.75 16.45 15.5 14.0 15.55 L14.0 10.15 Q13.85 7.9 13.1 6.55 L18.25 5.5 22.45 4.65 M25.6 7.5 L26.65 8.15 Q27.45 7.85 27.65 7.15 L27.3 6.35 26.55 6.6 25.6 7.5 M35.0 21.75 Q35.1 22.7 34.8 25.25 34.8 26.65 35.4 27.6 L30.0 28.15 30.0 23.25 Q31.5 23.15 33.6 22.15 L34.85 21.5 35.0 21.75 M33.3 24.05 L33.0 23.3 32.2 23.5 Q31.75 23.75 31.25 24.5 L32.3 25.1 Q33.2 24.75 33.3 24.05 M-6.5 14.05 L-6.4 10.1 -6.4 9.25 -2.0 9.25 6.3 7.8 11.5 6.85 11.5 11.2 -0.2 12.7 Q-4.55 13.45 -6.45 14.15 L-6.5 14.05 M16.0 7.6 L16.25 9.7 16.5 12.0 18.5 12.25 Q19.95 12.25 20.5 11.3 L19.9 10.55 Q19.5 10.1 19.5 9.4 L19.75 7.75 19.8 6.5 17.2 6.45 Q16.0 6.85 16.0 7.6 M8.75 10.25 L9.65 9.85 10.25 9.25 Q10.0 8.45 9.25 8.15 8.55 8.15 7.65 9.55 L8.75 10.25 M3.25 10.0 L2.35 10.25 Q1.95 10.45 1.5 11.1 1.9 11.5 2.55 11.75 3.45 11.45 3.55 10.75 L3.25 10.0 M0.5 28.15 L0.1 27.4 -0.7 27.7 -1.5 28.55 -0.5 29.25 Q0.2 28.95 0.5 28.15 M1.0 26.5 Q1.15 27.55 0.9 29.85 0.85 31.75 1.85 32.65 -4.7 33.95 -6.65 34.9 L-6.55 28.25 -5.75 28.25 Q-4.0 28.25 -1.95 27.3 0.0 26.4 1.0 26.5 M-3.5 11.25 L-3.9 10.5 Q-4.95 10.7 -5.55 11.6 L-4.55 12.25 Q-3.8 11.95 -3.5 11.25" fill="#cccccc" fill-rule="evenodd" stroke="none"/>
      <path d="M-34.4 -30.95 L-34.3 -30.8 -34.5 -30.65 Q-34.5 -26.3 -33.45 -17.9 -32.6 -10.95 -31.65 -7.95 -34.95 -10.85 -36.05 -13.4 -37.0 -15.55 -37.0 -23.1 L-37.1 -25.65 -37.0 -28.35 Q-36.75 -29.85 -34.4 -30.95 M-20.2 25.3 L-20.0 22.1 -20.2 20.8 Q-20.45 19.5 -21.0 18.75 L-21.5 19.25 -23.85 16.95 -25.5 15.55 -25.5 6.4 -18.5 10.75 Q-11.8 14.7 -8.9 15.85 L-8.5 21.5 -8.55 24.8 -8.6 24.95 -11.5 23.3 Q-14.5 22.0 -14.5 27.9 L-14.45 29.35 -16.35 28.05 -20.3 25.45 -20.2 25.3" fill="#666666" fill-rule="evenodd" stroke="none"/>
      <path d="M25.9 -5.15 L30.55 -2.45 30.5 -2.35 Q28.55 -3.35 26.65 -3.6 L26.65 -3.65 Q26.65 -4.55 25.9 -5.15 M-17.7 1.25 L-18.25 0.95 -23.55 -1.95 -15.9 -2.75 -16.35 -0.85 -15.5 0.4 Q-16.85 0.85 -17.7 1.25" fill="#725c3f" fill-rule="evenodd" stroke="none"/>
    </g>
    <g id="text0" transform="matrix(1.0, 0.0, 0.0, 1.0, -3.85, -1.75)">
      <g transform="matrix(1.0, 0.0, 0.0, 1.0, 0.0, 0.0)">
        <use fill="#ffcc66" height="15.2" transform="matrix(0.0156, 0.0, 0.0, 0.0156, 2.0, 15.0)" width="42.35" xlink:href="#font_Lithos_Pro_Regular_70"/>
        <use fill="#ffcc66" height="15.2" transform="matrix(0.0156, 0.0, 0.0, 0.0156, 13.05, 15.0)" width="42.35" xlink:href="#font_Lithos_Pro_Regular_50"/>
        <use fill="#ffcc66" height="15.2" transform="matrix(0.0156, 0.0, 0.0, 0.0156, 24.1, 15.0)" width="42.35" xlink:href="#font_Lithos_Pro_Regular__0"/>
      </g>
    </g>
    <g id="font_Lithos_Pro_Regular_70">
      <path d="M154.5 -552.0 L154.5 -552.0 150.5 -737.5 Q180.5 -737.0 231.5 -735.5 282.0 -734.0 345.0 -732.5 408.0 -730.5 475.0 -729.0 542.0 -727.5 604.5 -726.5 667.0 -726.0 716.5 -726.0 L728.0 -709.5 Q715.5 -677.0 691.5 -616.5 667.5 -556.0 636.5 -479.5 606.0 -403.0 573.5 -322.5 541.0 -241.5 512.0 -168.5 483.0 -95.5 462.0 -42.5 441.5 11.0 434.0 32.5 L223.0 -57.5 Q229.5 -70.0 248.0 -107.5 267.0 -145.0 293.5 -197.5 320.0 -250.0 349.0 -307.5 377.5 -365.0 403.5 -417.0 429.5 -469.0 447.5 -505.0 465.5 -541.5 470.0 -552.0 L154.5 -552.0" fill-rule="evenodd" stroke="none"/>
    </g>
    <g id="font_Lithos_Pro_Regular_50">
      <path d="M370.0 -568.5 L370.0 -568.5 357.5 -496.0 Q448.0 -488.0 506.0 -468.5 563.5 -449.0 595.0 -421.0 626.5 -393.0 639.0 -359.0 651.0 -325.5 650.5 -289.0 650.0 -221.0 592.5 -155.5 535.5 -90.5 429.0 -41.5 322.5 7.0 174.5 25.5 L145.5 -144.5 Q183.0 -147.0 226.0 -154.5 268.5 -162.0 307.0 -175.5 345.5 -189.5 370.0 -210.5 394.5 -231.0 395.5 -260.5 395.5 -303.0 339.0 -323.5 282.5 -343.5 170.5 -346.5 L217.5 -727.0 Q247.0 -727.5 291.5 -728.5 336.0 -730.0 387.0 -731.5 438.0 -733.0 487.5 -735.0 537.5 -737.0 578.0 -738.5 618.5 -740.0 642.5 -741.5 L641.5 -556.5 370.0 -568.5" fill-rule="evenodd" stroke="none"/>
    </g>
    <g id="font_Lithos_Pro_Regular__0">
      <path d="M375.0 21.5 L375.0 21.5 275.5 -42.0 Q294.0 -73.0 326.0 -126.0 358.5 -179.5 400.5 -249.5 442.5 -319.5 491.5 -401.0 538.0 -478.0 580.5 -547.0 622.5 -616.0 654.5 -668.0 686.0 -720.5 701.5 -748.5 L804.0 -686.0 Q776.0 -649.0 721.5 -564.0 666.5 -479.0 594.0 -357.0 545.5 -275.5 501.0 -199.0 457.0 -123.0 424.0 -65.0 390.5 -6.5 375.0 21.5 M793.5 -99.5 L793.5 -99.5 Q812.5 -99.5 831.0 -109.0 849.0 -119.0 861.0 -139.5 873.0 -160.5 873.5 -193.5 872.5 -244.0 850.5 -267.5 829.0 -291.5 801.0 -291.0 762.0 -290.0 741.0 -262.0 720.0 -234.0 720.0 -190.5 720.5 -145.0 741.0 -122.5 761.5 -99.5 793.5 -99.5 M791.5 0.0 L791.5 0.0 Q713.5 -1.0 665.0 -26.5 616.5 -52.5 594.0 -94.5 571.5 -136.5 571.5 -186.5 571.5 -237.5 597.0 -285.5 622.5 -334.0 675.0 -365.5 728.0 -397.5 809.0 -398.5 913.0 -399.0 968.0 -349.0 1022.5 -299.5 1023.0 -194.5 1023.5 -170.0 1012.0 -137.5 1001.0 -105.0 975.0 -73.5 948.5 -42.0 904.0 -21.5 859.0 -1.0 791.5 0.0 M263.0 -432.0 L263.0 -432.0 Q298.5 -432.0 320.5 -455.0 342.5 -477.5 343.0 -525.5 342.0 -578.5 321.0 -601.0 299.5 -623.0 269.5 -622.5 229.5 -621.5 209.5 -593.0 189.5 -565.0 189.5 -522.5 190.5 -477.5 212.0 -455.0 233.5 -432.0 263.0 -432.0 M261.0 -328.5 L261.0 -328.5 Q183.0 -329.5 134.5 -355.0 86.0 -380.5 63.5 -423.0 41.0 -465.0 41.0 -514.5 41.0 -565.0 66.0 -613.5 91.5 -661.5 144.0 -693.0 197.0 -725.0 278.5 -726.0 382.0 -726.5 437.0 -676.5 492.0 -627.0 492.5 -522.5 493.0 -498.0 481.5 -465.5 470.5 -433.0 444.5 -402.0 418.0 -370.5 373.5 -350.0 328.5 -329.5 261.0 -328.5" fill-rule="evenodd" stroke="none"/>
    </g>
    <g id="sprite3" transform="matrix(1.0, 0.0, 0.0, 1.0, 29.05, 29.25)">
      <clipPath id="clipPath1" transform="matrix(1.0, 0.0, 0.0, 1.0, 0.0, 0.0)">
        <path d="M46.5 -7.45 L46.65 -7.3 46.7 -7.2 Q47.2 -9.05 47.4 -0.7 L47.5 18.6 47.4 42.5 47.4 42.8 47.35 48.6 -7.85 48.6 -7.95 42.8 -8.0 42.5 -8.0 -1.85 -7.35 -7.1 -7.3 -7.25 Q-7.15 -7.8 -7.0 -7.3 L-6.75 -7.35 -6.5 -7.4 -0.55 -7.7 18.75 -7.8 42.65 -7.7 44.9 -7.55 45.0 -7.55 46.5 -7.45 M40.0 40.0 L40.0 0.0 0.0 0.0 0.0 40.0 40.0 40.0" fill="#00ff00" fill-rule="evenodd" stroke="none"/>
      </clipPath>
      <g clip-path="url(#clipPath1)">
        <use ffdec:characterId="937" height="49.05" transform="matrix(1.0, 0.0, 0.0, 1.0, -5.2, -5.05)" width="49.95" xlink:href="#shape5"/>
      </g>
    </g>
    <g id="shape5" transform="matrix(1.0, 0.0, 0.0, 1.0, 5.2, 5.05)">
      <path d="M18.85 -5.05 L40.4 -5.0 42.4 -4.85 42.5 -4.85 43.85 -4.75 44.0 -4.6 44.05 -4.55 Q44.5 -6.2 44.65 1.3 L44.75 18.7 44.65 40.2 44.5 42.2 Q44.4 43.75 44.05 43.75 L43.8 43.55 42.9 43.75 40.4 44.0 0.45 44.0 -3.55 43.55 -3.6 43.55 -4.6 43.75 -4.95 42.7 -5.2 40.2 -5.2 0.3 -4.6 -4.45 -4.55 -4.55 Q-4.45 -5.05 -4.3 -4.6 L-4.05 -4.65 -3.85 -4.7 1.5 -5.0 18.85 -5.05 M36.4 1.65 L36.8 1.25 41.65 -3.2 42.1 -3.6 41.7 -3.65 41.6 -3.85 40.4 -3.7 0.45 -3.7 -3.0 -4.1 2.5 0.85 3.3 1.65 1.8 1.65 1.8 2.6 1.8 1.65 3.3 1.65 3.6 1.95 2.0 1.95 2.0 2.8 1.8 2.6 0.3 1.1 -3.9 -4.2 -4.2 -4.3 -3.95 1.3 -3.85 18.7 -3.95 40.2 -4.05 42.2 -4.05 42.5 -4.0 42.3 -3.6 41.8 -1.65 39.65 1.8 36.1 1.8 37.95 2.0 37.95 1.8 37.95 1.8 36.1 2.0 35.9 2.0 37.95 2.6 37.95 -0.4 40.9 -2.75 42.9 1.5 42.7 18.85 42.65 40.4 42.7 42.4 42.85 42.5 42.85 42.4 42.8 39.65 40.55 37.05 37.95 38.0 37.95 38.15 37.95 38.15 36.45 38.15 37.95 38.0 37.95 38.0 36.35 38.15 36.45 40.9 39.3 42.85 41.45 43.6 42.45 43.4 40.2 43.4 0.3 43.85 -3.65 43.8 -3.65 42.95 -3.5 42.8 -3.3 39.0 1.45 38.15 2.3 38.15 1.65 36.4 1.65 38.15 1.65 38.15 2.3 38.0 2.45 38.0 1.95 36.0 1.95 36.4 1.65" fill="#473a29" fill-rule="evenodd" stroke="none"/>
      <path d="M3.3 1.65 L2.5 0.85 -3.0 -4.1 0.45 -3.7 40.4 -3.7 41.6 -3.85 41.7 -3.65 42.1 -3.6 41.65 -3.2 36.8 1.25 36.4 1.65 3.3 1.65 36.4 1.65 36.0 1.95 3.6 1.95 3.3 1.65 M1.8 36.1 L-1.65 39.65 -3.6 41.8 -4.0 42.3 -4.05 42.2 -3.95 40.2 -3.85 18.7 -3.95 1.3 -4.2 -4.3 -3.9 -4.2 0.3 1.1 1.8 2.6 2.0 2.8 2.0 35.9 1.8 36.1 1.8 35.0 1.8 33.05 1.8 2.6 1.8 33.05 1.8 35.0 1.8 36.1" fill="#bfaf91" fill-rule="evenodd" stroke="none"/>
      <path d="M38.15 2.3 L39.0 1.45 42.8 -3.3 42.95 -3.5 43.8 -3.65 43.85 -3.65 43.4 0.3 43.4 40.2 43.6 42.45 42.85 41.45 40.9 39.3 38.15 36.45 38.15 2.3 38.15 36.45 38.0 36.35 38.0 2.45 38.15 2.3 M37.05 37.95 L39.65 40.55 42.4 42.8 42.4 42.85 40.4 42.7 18.85 42.65 1.5 42.7 -2.75 42.9 -0.4 40.9 2.6 37.95 26.5 37.95 Q27.1 37.75 27.6 37.95 L37.05 37.95" fill="#6c5b3e" fill-rule="evenodd" stroke="none"/>
      <path d="M3.3 1.65 L36.4 1.65 38.15 1.65 38.15 2.3 38.15 36.45 38.15 37.95 38.0 37.95 37.05 37.95 27.6 37.95 Q27.1 37.75 26.5 37.95 L2.6 37.95 2.0 37.95 1.8 37.95 1.8 36.1 1.8 35.0 1.8 33.05 1.8 2.6 1.8 1.65 3.3 1.65 Z" fill="none" stroke="#473a29" stroke-linecap="round" stroke-linejoin="round" stroke-opacity="0.49019608" stroke-width="1.0"/>
    </g>
    <g id="sprite4" transform="matrix(1.0, 0.0, 0.0, 1.0, 0.0, 48.5)">
      <use ffdec:characterId="949" height="340.0" transform="matrix(0.2505, 0.0, 0.0, 0.1427, 0.0114, -48.4851)" width="192.0" xlink:href="#shape6"/>
    </g>
    <g id="shape6" transform="matrix(1.0, 0.0, 0.0, 1.0, 2.15, 3.05)">
      <path d="M189.85 -3.05 L189.85 336.95 -2.15 336.95 -2.15 -3.05 189.85 -3.05" fill="#000000" fill-opacity="0.29803923" fill-rule="evenodd" stroke="none"/>
    </g>
    <g id="sprite5" transform="matrix(1.0, 0.0, 0.0, 1.0, 64.35, 49.9)">
      <use ffdec:characterId="58" height="400.0" transform="matrix(0.1796, 0.0, 0.0, 0.1248, -62.85, -49.9)" width="700.0" xlink:href="#shape7"/>
      <use ffdec:characterId="951" height="18.1" id="txt_name" transform="matrix(1.0, 0.0, 0.0, 1.0, -63.85, -49.05)" width="129.05" xlink:href="#text2"/>
      <use ffdec:characterId="952" height="35.25" id="txt_desc" transform="matrix(1.0, 0.0, 0.0, 1.0, -64.35, -35.05)" width="129.05" xlink:href="#text3"/>
    </g>
    <g id="shape7" transform="matrix(1.0, 0.0, 0.0, 1.0, 0.0, 0.0)">
      <path d="M700.0 400.0 L0.0 400.0 0.0 0.0 700.0 0.0 700.0 400.0" fill="#000000" fill-opacity="0.49803922" fill-rule="evenodd" stroke="none"/>
    </g>
    <g id="text2" transform="matrix(1.0, 0.0, 0.0, 1.0, -51.35, 2.0)">
      <g transform="matrix(1.0, 0.0, 0.0, 1.0, 51.35, -2.0)">
        <use fill="#ffffff" height="18.1" transform="matrix(0.0117, 0.0, 0.0, 0.0117, 45.95, 13.05)" width="129.05" xlink:href="#font_Lithos_Pro_Regular_N0"/>
        <use fill="#ffffff" height="18.1" transform="matrix(0.0117, 0.0, 0.0, 0.0117, 56.95, 13.05)" width="129.05" xlink:href="#font_Lithos_Pro_Regular_a0"/>
        <use fill="#ffffff" height="18.1" transform="matrix(0.0117, 0.0, 0.0, 0.0117, 65.45, 13.05)" width="129.05" xlink:href="#font_Lithos_Pro_Regular_m0"/>
        <use fill="#ffffff" height="18.1" transform="matrix(0.0117, 0.0, 0.0, 0.0117, 76.75, 13.05)" width="129.05" xlink:href="#font_Lithos_Pro_Regular_e0"/>
      </g>
    </g>
    <g id="font_Lithos_Pro_Regular_N0">
      <path d="M216.5 7.5 L120.0 0.0 Q121.5 -20.5 124.5 -75.5 127.0 -130.5 131.0 -207.0 135.0 -283.5 139.0 -368.0 143.0 -452.5 147.0 -531.5 151.0 -610.5 153.5 -670.5 156.5 -730.5 158.0 -758.0 L160.0 -758.0 Q168.0 -748.5 209.0 -705.5 249.5 -663.0 309.5 -600.0 370.0 -537.0 437.0 -467.5 503.5 -398.0 564.0 -335.0 624.5 -272.0 666.0 -229.5 707.5 -186.5 716.5 -177.0 716.5 -185.5 717.0 -225.0 717.5 -265.0 718.0 -323.5 719.0 -382.5 720.0 -447.5 720.5 -513.0 721.5 -572.0 722.5 -631.5 723.0 -672.0 723.5 -712.5 724.0 -722.0 L819.0 -716.5 Q818.0 -697.0 815.0 -641.0 812.5 -585.0 808.5 -504.5 805.0 -424.0 801.5 -332.0 798.0 -240.0 795.5 -148.5 792.5 -57.0 791.5 21.5 L789.5 21.5 Q781.5 13.5 739.5 -29.5 697.0 -72.5 635.0 -136.5 572.5 -200.5 504.0 -271.5 435.0 -342.5 373.5 -406.5 312.0 -470.0 271.5 -513.0 231.5 -555.5 225.5 -563.0 L223.5 -563.0 Q223.5 -553.0 223.0 -511.0 222.5 -468.5 221.5 -407.0 220.5 -345.0 219.5 -277.0 218.5 -209.0 217.5 -147.5 217.0 -86.0 216.5 -44.0 216.0 -2.0 216.5 7.5" fill-rule="evenodd" stroke="none"/>
    </g>
    <g id="font_Lithos_Pro_Regular_a0">
      <path d="M226.5 -255.0 L476.5 -265.0 Q473.0 -271.5 460.0 -295.0 447.5 -318.5 430.0 -350.5 412.5 -382.5 395.0 -414.0 378.0 -445.5 365.0 -468.0 352.5 -490.5 349.5 -495.5 345.0 -488.5 332.5 -464.0 319.5 -439.5 303.0 -406.0 286.0 -373.0 269.5 -340.0 253.0 -307.0 241.0 -283.5 229.5 -260.0 226.5 -255.0 M93.5 18.5 L14.5 -26.5 Q27.5 -49.5 55.0 -100.0 83.0 -150.5 119.0 -216.5 155.0 -283.0 193.5 -353.0 231.5 -423.5 265.0 -485.0 299.0 -547.0 322.0 -589.0 345.0 -630.5 350.5 -640.0 L352.5 -640.0 Q376.5 -601.5 414.5 -538.0 452.0 -474.0 496.0 -399.0 540.0 -323.5 582.5 -250.0 625.5 -176.5 660.0 -119.0 694.0 -61.0 713.0 -32.5 L630.0 17.5 Q623.0 4.0 605.5 -28.5 587.5 -61.0 566.5 -99.0 545.5 -137.0 529.0 -166.5 512.0 -196.0 508.0 -202.5 L191.5 -190.5 Q186.5 -179.0 173.0 -150.5 159.5 -121.5 143.5 -86.5 127.0 -52.0 113.0 -23.0 99.0 6.5 93.5 18.5" fill-rule="evenodd" stroke="none"/>
    </g>
    <g id="font_Lithos_Pro_Regular_m0">
      <path d="M115.0 22.5 L31.0 -4.0 Q35.5 -14.5 51.5 -61.5 68.0 -108.0 91.0 -176.5 114.5 -245.0 140.0 -320.0 165.0 -395.0 187.5 -462.0 210.0 -529.0 224.5 -573.0 239.0 -617.5 241.0 -624.0 L245.0 -624.0 Q254.0 -606.5 276.0 -563.5 298.5 -521.0 327.5 -465.5 356.5 -410.5 385.5 -355.5 414.5 -300.5 437.0 -259.0 459.5 -217.0 468.0 -201.0 477.5 -216.5 502.5 -258.5 527.5 -300.0 560.0 -354.0 592.0 -408.0 623.5 -460.5 655.0 -513.0 677.5 -550.5 700.0 -588.0 705.5 -597.5 L708.5 -597.5 Q716.0 -579.0 732.5 -535.5 749.0 -492.5 771.5 -434.0 793.5 -375.5 818.0 -311.5 842.5 -247.5 865.5 -187.0 889.0 -127.0 907.0 -80.0 925.0 -33.0 935.0 -9.5 L850.0 22.5 Q843.0 1.5 826.0 -47.0 809.5 -95.5 787.5 -156.5 766.0 -218.0 745.0 -277.0 724.0 -336.5 708.5 -379.5 693.5 -422.0 689.5 -433.5 680.0 -418.0 657.5 -381.5 635.5 -345.5 606.5 -298.0 577.5 -250.5 548.0 -202.0 518.5 -153.5 494.5 -114.5 470.5 -75.5 458.0 -55.5 L456.0 -55.5 Q436.0 -93.0 408.0 -144.5 380.5 -196.5 351.0 -252.5 321.5 -308.0 295.5 -356.5 270.0 -405.0 254.0 -435.5 250.0 -421.0 239.0 -385.0 228.0 -349.0 213.0 -300.0 198.0 -251.5 182.0 -199.0 166.0 -146.5 151.5 -99.0 137.0 -52.0 127.5 -19.5 117.5 13.5 115.0 22.5" fill-rule="evenodd" stroke="none"/>
    </g>
    <g id="font_Lithos_Pro_Regular_e0">
      <path d="M458.5 -68.5 L461.5 9.5 Q451.5 9.5 417.0 8.5 383.0 7.5 337.5 6.0 292.0 5.0 247.0 3.5 202.0 2.0 170.5 1.0 138.5 0.0 132.0 0.0 133.0 -18.5 133.5 -56.0 134.5 -93.5 134.5 -136.0 135.0 -178.0 135.0 -211.0 135.0 -244.0 135.0 -252.5 L135.0 -368.5 Q135.0 -373.5 135.0 -397.5 134.5 -421.5 134.0 -454.5 134.0 -488.0 133.5 -521.5 133.0 -555.0 132.5 -579.5 132.5 -603.5 132.0 -609.5 139.5 -609.5 168.5 -611.0 197.5 -612.0 238.0 -614.5 278.5 -616.5 320.0 -618.5 362.0 -621.0 395.0 -623.0 428.5 -625.0 443.0 -626.0 L447.0 -552.0 Q431.0 -552.0 397.5 -551.5 364.0 -551.0 326.5 -550.0 288.5 -549.0 259.5 -548.5 231.0 -548.0 224.0 -548.0 L224.0 -334.5 Q231.0 -334.5 253.5 -335.0 276.0 -336.0 305.5 -337.0 335.5 -338.5 365.0 -340.0 394.5 -342.0 416.5 -343.5 L419.5 -269.0 Q407.0 -269.0 378.5 -269.5 350.5 -270.0 317.0 -271.0 284.5 -271.0 258.5 -271.5 232.5 -272.0 224.0 -272.0 L224.0 -65.5 Q233.0 -65.5 258.0 -65.0 283.0 -65.0 317.0 -65.0 351.5 -65.0 388.5 -66.0 425.5 -66.5 458.5 -68.5" fill-rule="evenodd" stroke="none"/>
    </g>
    <g id="text3" transform="matrix(1.0, 0.0, 0.0, 1.0, -51.35, 2.0)">
      <g transform="matrix(1.0, 0.0, 0.0, 1.0, 51.35, -2.0)">
        <use fill="#ffffff" height="35.25" transform="matrix(0.0098, 0.0, 0.0, 0.0098, 49.05, 7.2)" width="129.05" xlink:href="#font_Lithos_Pro_Regular_N0"/>
        <use fill="#ffffff" height="35.25" transform="matrix(0.0098, 0.0, 0.0, 0.0098, 58.2, 7.2)" width="129.05" xlink:href="#font_Lithos_Pro_Regular_a0"/>
        <use fill="#ffffff" height="35.25" transform="matrix(0.0098, 0.0, 0.0, 0.0098, 65.3, 7.2)" width="129.05" xlink:href="#font_Lithos_Pro_Regular_m0"/>
        <use fill="#ffffff" height="35.25" transform="matrix(0.0098, 0.0, 0.0, 0.0098, 74.7, 7.2)" width="129.05" xlink:href="#font_Lithos_Pro_Regular_e0"/>
      </g>
      <g transform="matrix(1.0, 0.0, 0.0, 1.0, 51.35, -2.0)">
        <use fill="#ffffff" height="35.25" transform="matrix(0.0098, 0.0, 0.0, 0.0098, 46.0, 16.95)" width="129.05" xlink:href="#font_Lithos_Pro_Regular_k0"/>
        <use fill="#ffffff" height="35.25" transform="matrix(0.0098, 0.0, 0.0, 0.0098, 52.6, 16.95)" width="129.05" xlink:href="#font_Lithos_Pro_Regular_j0"/>
        <use fill="#ffffff" height="35.25" transform="matrix(0.0098, 0.0, 0.0, 0.0098, 56.25, 16.95)" width="129.05" xlink:href="#font_Lithos_Pro_Regular_h0"/>
        <use fill="#ffffff" height="35.25" transform="matrix(0.0098, 0.0, 0.0, 0.0098, 64.5, 16.95)" width="129.05" xlink:href="#font_Lithos_Pro_Regular_k0"/>
        <use fill="#ffffff" height="35.25" transform="matrix(0.0098, 0.0, 0.0, 0.0098, 71.1, 16.95)" width="129.05" xlink:href="#font_Lithos_Pro_Regular_j0"/>
        <use fill="#ffffff" height="35.25" transform="matrix(0.0098, 0.0, 0.0, 0.0098, 74.75, 16.95)" width="129.05" xlink:href="#font_Lithos_Pro_Regular_h0"/>
      </g>
      <g transform="matrix(1.0, 0.0, 0.0, 1.0, 51.35, -2.0)">
        <use fill="#ffffff" height="35.25" transform="matrix(0.0098, 0.0, 0.0, 0.0098, 46.0, 26.7)" width="129.05" xlink:href="#font_Lithos_Pro_Regular_k0"/>
        <use fill="#ffffff" height="35.25" transform="matrix(0.0098, 0.0, 0.0, 0.0098, 52.6, 26.7)" width="129.05" xlink:href="#font_Lithos_Pro_Regular_j0"/>
        <use fill="#ffffff" height="35.25" transform="matrix(0.0098, 0.0, 0.0, 0.0098, 56.25, 26.7)" width="129.05" xlink:href="#font_Lithos_Pro_Regular_h0"/>
        <use fill="#ffffff" height="35.25" transform="matrix(0.0098, 0.0, 0.0, 0.0098, 64.5, 26.7)" width="129.05" xlink:href="#font_Lithos_Pro_Regular_k0"/>
        <use fill="#ffffff" height="35.25" transform="matrix(0.0098, 0.0, 0.0, 0.0098, 71.1, 26.7)" width="129.05" xlink:href="#font_Lithos_Pro_Regular_j0"/>
        <use fill="#ffffff" height="35.25" transform="matrix(0.0098, 0.0, 0.0, 0.0098, 74.75, 26.7)" width="129.05" xlink:href="#font_Lithos_Pro_Regular_h0"/>
      </g>
    </g>
    <g id="font_Lithos_Pro_Regular_k0">
      <path d="M621.5 -61.5 L558.0 8.5 Q553.5 4.0 523.0 -26.5 493.0 -56.5 449.0 -100.5 405.0 -144.0 359.5 -189.5 314.0 -235.5 278.5 -271.0 243.0 -306.5 230.0 -320.5 235.5 -326.0 265.5 -353.5 295.5 -381.5 337.5 -421.0 379.5 -460.5 421.5 -500.5 464.0 -540.5 495.0 -569.5 526.0 -599.0 533.0 -606.5 L587.5 -540.0 Q572.5 -528.5 540.0 -501.0 507.0 -473.5 467.0 -440.0 427.0 -406.0 392.0 -375.5 356.5 -345.0 336.5 -327.0 346.0 -316.0 373.5 -289.5 401.5 -262.5 438.5 -228.0 476.0 -193.5 513.5 -159.0 551.0 -124.5 580.5 -98.0 609.5 -72.0 621.5 -61.5 M228.0 9.5 L130.0 9.5 Q130.5 -1.0 131.5 -30.0 132.5 -59.0 133.0 -99.0 134.0 -139.5 134.5 -182.5 135.0 -225.5 135.0 -263.0 L135.0 -355.5 Q135.0 -385.0 134.0 -426.0 133.5 -466.5 132.5 -508.0 131.5 -549.5 130.5 -580.0 130.0 -610.5 130.0 -619.0 L228.0 -619.0 Q227.5 -612.5 227.0 -583.5 226.0 -554.5 225.0 -514.5 224.5 -474.0 223.5 -433.5 223.0 -393.0 223.0 -363.5 L223.0 -270.5 Q223.0 -244.0 223.5 -200.5 224.0 -157.5 225.0 -111.5 225.5 -66.0 226.5 -32.0 227.5 1.5 228.0 9.5" fill-rule="evenodd" stroke="none"/>
    </g>
    <g id="font_Lithos_Pro_Regular_j0">
      <path d="M258.0 -400.5 L258.0 -264.5 Q257.0 -170.0 230.5 -104.5 204.0 -39.5 161.5 1.0 119.0 41.5 70.5 61.5 L25.5 -7.5 Q70.0 -25.5 102.0 -57.0 134.0 -88.5 151.5 -139.5 169.0 -190.5 169.0 -266.5 L169.0 -402.5 Q169.0 -409.0 168.5 -438.0 168.0 -467.0 167.5 -503.5 166.5 -540.5 166.0 -570.5 165.5 -600.5 165.0 -609.5 L263.0 -609.5 Q262.0 -601.0 261.0 -571.5 259.5 -542.0 259.0 -497.5 258.0 -453.5 258.0 -400.5" fill-rule="evenodd" stroke="none"/>
    </g>
    <g id="font_Lithos_Pro_Regular_h0">
      <path d="M228.0 0.0 L132.0 0.0 Q132.5 -12.0 133.0 -40.0 133.5 -67.5 134.0 -103.0 134.5 -138.0 134.5 -172.0 135.0 -206.5 135.0 -231.5 135.0 -256.5 135.0 -264.0 L135.0 -358.0 Q135.0 -363.0 134.5 -388.0 134.5 -412.5 134.0 -447.0 133.5 -481.5 132.5 -516.5 132.0 -551.5 131.0 -577.0 130.5 -602.5 130.0 -609.5 L229.0 -609.5 Q228.5 -604.0 228.0 -583.0 227.0 -562.5 226.5 -533.5 225.5 -504.5 225.0 -476.0 224.5 -447.0 224.5 -426.0 224.0 -405.0 224.0 -400.0 L224.0 -336.5 618.5 -352.5 618.5 -418.5 Q618.5 -425.0 618.0 -451.5 618.0 -478.5 617.5 -512.0 617.0 -546.0 616.5 -573.5 616.0 -601.0 615.5 -609.5 L714.5 -609.5 Q714.0 -602.5 713.0 -574.5 712.0 -547.0 711.0 -509.0 710.5 -471.0 709.5 -432.5 708.5 -394.5 708.0 -367.0 707.5 -339.0 707.5 -332.0 L707.5 -245.5 Q707.5 -241.5 707.5 -217.0 708.0 -193.0 708.5 -159.0 708.5 -124.5 709.0 -90.0 710.0 -56.0 710.5 -31.0 711.0 -6.0 711.5 0.0 L613.5 0.0 Q614.5 -12.0 615.5 -41.5 616.5 -71.0 617.0 -105.0 618.0 -139.5 618.0 -166.5 618.5 -193.5 618.5 -200.5 L618.5 -288.5 224.0 -272.0 224.0 -219.0 Q224.0 -203.5 224.5 -171.0 225.0 -139.0 225.5 -102.5 226.5 -66.0 227.0 -37.5 227.5 -8.5 228.0 0.0" fill-rule="evenodd" stroke="none"/>
    </g>
  </defs>
</svg>
