<?xml version="1.0" encoding="UTF-8" standalone="no"?>
<svg xmlns:ffdec="https://www.free-decompiler.com/flash" xmlns:xlink="http://www.w3.org/1999/xlink" ffdec:objectType="frame" height="135.65px" width="129.65px" xmlns="http://www.w3.org/2000/svg">
  <g transform="matrix(1.0, 0.0, 0.0, 1.0, 45.0, 57.4)">
    <use ffdec:characterId="933" height="47.45" id="bgcolor" transform="matrix(1.0, 0.0, 0.0, 1.0, -4.2, -3.9)" width="47.45" xlink:href="#sprite0"/>
    <use ffdec:characterId="921" height="22.0" id="hitbox" transform="matrix(2.2297, 0.0, 0.0, 2.1749, -4.55, -4.25)" width="22.0" xlink:href="#sprite1"/>
    <clipPath id="clipPath0">
      <path d="M 0 0 L 0 40 L 40 40 L 40 0 Z"/>
    </clipPath>
    <g clip-path="url(#clipPath0)">
      <filter id="filter0">
        <feColorMatrix in="SourceGraphic" result="filterResult0" type="matrix" values="0 0 0 0 1.0,0 0 0 0 0.0,0 0 0 0 0.0,0 0 0 1 0"/>
        <feConvolveMatrix divisor="25.0" in="filterResult0" kernelMatrix="1 1 1 1 1 1 1 1 1 1 1 1 1 1 1 1 1 1 1 1 1 1 1 1 1" order="5 5" result="filterResult1"/>
        <feComposite in="SourceGraphic" in2="filterResult1" operator="over" result="filterResult2"/>
      </filter>
      <use ffdec:characterId="378" filter="url(#filter0)" height="147.2" id="MC" transform="matrix(0.3013, 0.0, 0.0, 0.3013, -3.2086, -3.9921)" width="196.65" xlink:href="#sprite2"/>
    </g>
    <filter id="filter1">
      <feColorMatrix in="SourceGraphic" result="filterResult3" type="matrix" values="0 0 0 0 0.0,0 0 0 0 0.0,0 0 0 0 0.0,0 0 0 1 0"/>
      <feConvolveMatrix divisor="4.0" in="filterResult3" kernelMatrix="1 1 1 1" order="2 2" result="filterResult4"/>
      <feComposite in="SourceGraphic" in2="filterResult4" operator="over" result="filterResult5"/>
    </filter>
    <use ffdec:characterId="935" filter="url(#filter1)" height="15.75" id="txt_hotkey" transform="matrix(1.0, 0.0, 0.0, 1.0, -3.85, -0.1)" width="18.0" xlink:href="#text0"/>
    <use ffdec:characterId="948" ffdec:characterName="Army_fla.Hud_BgButton_151" height="97.6" id="bg" transform="matrix(1.0, 0.0, 0.0, 1.0, -29.05, -29.25)" width="97.6" xlink:href="#sprite3"/>
    <use ffdec:characterId="950" ffdec:characterName="Army_fla.Hud_cooldown_152" height="48.5" id="cdcover" transform="matrix(0.9979, 0.0, 0.0, 0.9897, -4.2, -3.9997)" width="48.1" xlink:href="#sprite4"/>
    <use ffdec:characterId="950" ffdec:characterName="Army_fla.Hud_cooldown_152" height="48.5" id="cd" transform="matrix(0.9979, 0.0, 0.0, 0.9897, -4.2, -3.9997)" width="48.1" xlink:href="#sprite5"/>
    <use ffdec:characterId="953" ffdec:characterName="Army_fla.Hud_Description_153" height="50.1" id="desc" transform="matrix(1.0, 0.0, 0.0, 1.0, -44.9, -57.4)" width="129.55" xlink:href="#sprite6"/>
  </g>
  <defs>
    <g id="sprite0" transform="matrix(1.0, 0.0, 0.0, 1.0, 0.0, 0.0)">
      <use ffdec:characterId="932" height="47.45" transform="matrix(1.0, 0.0, 0.0, 1.0, 0.0, 0.0)" width="47.45" xlink:href="#shape0"/>
    </g>
    <g id="shape0" transform="matrix(1.0, 0.0, 0.0, 1.0, 0.0, 0.0)">
      <path d="M47.45 0.0 L47.45 47.45 0.0 47.45 0.0 0.0 47.45 0.0" fill="#564732" fill-rule="evenodd" stroke="none"/>
    </g>
    <g id="sprite1" transform="matrix(1.0, 0.0, 0.0, 1.0, 0.0, 0.0)">
      <use ffdec:characterId="145" height="22.0" transform="matrix(1.0, 0.0, 0.0, 1.0, 0.0, 0.0)" width="22.0" xlink:href="#shape1"/>
    </g>
    <g id="shape1" transform="matrix(1.0, 0.0, 0.0, 1.0, 0.0, 0.0)">
      <path d="M22.0 0.0 L22.0 22.0 0.0 22.0 0.0 0.0 22.0 0.0" fill="#00ff00" fill-opacity="0.0" fill-rule="evenodd" stroke="none"/>
    </g>
    <g id="sprite2" transform="matrix(1.0, 0.0, 0.0, 1.0, 92.3, 141.7)">
      <use ffdec:characterId="370" height="88.25" transform="matrix(0.9983, 0.0267, -0.0267, 0.9983, -77.6396, -106.9126)" width="88.5" xlink:href="#shape2"/>
      <use ffdec:characterId="201" height="34.0" transform="matrix(1.0, 0.0, 0.0, 1.0, -28.5, -32.05)" width="46.45" xlink:href="#shape3"/>
      <use ffdec:characterId="371" height="70.45" transform="matrix(1.0, 0.0, 0.0, 1.0, -29.9, -87.4)" width="78.2" xlink:href="#shape4"/>
      <use ffdec:characterId="372" height="55.7" transform="matrix(0.9936, 0.1093, -0.1093, 0.9936, -29.2866, -126.1985)" width="69.15" xlink:href="#shape5"/>
      <use ffdec:characterId="373" height="77.0" transform="matrix(-0.0286, 0.9973, -0.9973, -0.0286, 23.9468, -73.08)" width="60.1" xlink:href="#shape6"/>
      <use ffdec:characterId="199" height="46.8" transform="matrix(0.8771, 0.4787, -0.4787, 0.8771, -30.5342, -81.1389)" width="25.3" xlink:href="#shape7"/>
    </g>
    <g id="shape2" transform="matrix(1.0, 0.0, 0.0, 1.0, 44.55, 44.3)">
      <path d="M5.75 35.6 L6.15 35.75 6.05 35.8 5.75 35.6 M-35.25 25.85 L-35.4 25.7 -35.7 25.3 -35.8 25.15 -35.05 25.7 -34.45 26.2 -35.25 25.85" fill="#794d31" fill-rule="evenodd" stroke="none"/>
      <path d="M20.45 -38.6 L21.35 -38.35 32.95 -35.1 Q35.45 -34.2 38.65 -31.1 41.95 -27.9 41.95 -26.1 41.95 -21.5 35.45 -19.05 33.0 -18.1 31.35 -16.7 L30.35 -15.8 Q28.6 -13.95 28.45 -11.85 28.3 -9.35 26.8 -3.4 L26.05 -0.05 25.9 0.85 Q25.45 3.15 25.45 4.65 L25.45 4.75 Q25.45 6.7 26.2 9.35 26.95 12.0 26.95 13.25 26.95 17.55 26.1 20.2 L22.6 27.9 Q20.2 32.9 17.85 34.65 L16.4 35.65 16.4 35.7 16.0 36.15 14.5 37.0 14.45 37.0 9.6 40.0 -1.9 40.65 -2.55 40.65 -5.1 40.65 -16.95 40.15 -17.15 40.0 Q-18.25 39.35 -21.1 38.8 L-21.15 38.8 -21.9 38.65 -25.5 37.75 Q-28.1 37.0 -28.95 36.4 -30.75 35.05 -32.05 32.9 -33.55 30.45 -34.4 29.65 L-37.55 26.5 -39.2 24.75 -40.9 22.6 -41.4 21.45 Q-41.95 19.65 -41.95 16.45 -41.95 13.65 -41.5 11.85 -41.05 10.1 -39.45 6.7 L-37.35 3.9 -35.95 2.3 -35.85 2.2 -34.95 1.05 -34.15 -0.3 Q-33.5 -1.65 -33.45 -2.95 L-33.45 -3.0 -33.45 -3.1 Q-33.35 -9.25 -32.15 -13.1 -30.5 -18.55 -25.9 -23.35 -22.15 -27.3 -13.5 -32.55 L-6.05 -36.85 -1.4 -39.35 1.05 -40.1 6.05 -41.35 9.3 -41.6 Q11.7 -41.3 20.45 -38.6 M6.15 35.75 L13.5 34.25 14.85 32.95 16.6 30.65 17.2 29.65 19.15 26.6 Q21.1 23.7 21.35 22.4 22.05 19.0 22.35 14.3 22.6 10.0 22.45 6.35 L22.45 6.2 23.5 -0.1 23.6 -0.85 24.45 -9.85 25.65 -14.25 Q26.3 -16.7 28.6 -17.85 L30.15 -18.6 35.4 -21.3 Q38.95 -23.5 38.95 -25.55 38.95 -26.45 36.6 -29.15 34.3 -31.75 32.95 -32.55 30.5 -33.95 28.4 -34.5 L24.45 -35.1 21.25 -35.85 19.3 -36.35 14.45 -37.6 7.15 -38.05 6.35 -37.65 2.35 -36.15 -4.4 -33.8 -8.1 -31.55 -12.25 -29.0 -12.9 -28.6 Q-18.35 -25.15 -21.45 -21.55 L-24.3 -17.45 -25.95 -14.35 Q-27.65 -11.0 -28.75 -7.0 -29.95 -2.65 -29.95 0.65 L-30.0 1.55 -30.1 2.7 -30.15 3.0 -30.45 4.4 -30.75 5.25 Q-31.2 6.0 -32.05 6.6 L-33.9 7.9 -34.5 8.7 Q-36.45 11.05 -36.75 11.85 -36.95 12.4 -36.95 15.3 -36.95 17.1 -36.55 18.55 L-35.8 20.4 -35.75 20.45 -35.9 21.25 -33.8 22.85 -33.4 23.15 Q-32.8 23.65 -32.1 24.3 -30.05 25.45 -28.35 26.95 L-27.35 27.85 Q-25.0 30.2 -25.0 31.85 -24.5 32.1 -23.95 32.45 L-21.85 34.0 -17.6 34.5 -12.8 34.75 -6.3 35.0 -2.35 35.05 -0.5 35.0 0.0 35.0 0.05 35.0 Q4.2 34.95 5.75 35.6 L6.05 35.8 6.15 35.75 M-35.25 25.85 L-34.45 26.2 -35.05 25.7 -35.8 25.15 -35.7 25.3 -35.4 25.7 -35.25 25.85" fill="#925e3a" fill-rule="evenodd" stroke="none"/>
      <path d="M20.45 -38.6 Q11.7 -41.3 9.3 -41.6 L6.05 -41.35 1.05 -40.1 -1.4 -39.35 -6.05 -36.85 -13.5 -32.55 Q-22.15 -27.3 -25.9 -23.35 -30.5 -18.55 -32.15 -13.1 -33.35 -9.25 -33.45 -3.1 L-33.45 -3.0 -33.45 -2.95 Q-33.5 -1.65 -34.15 -0.3 L-34.95 1.05 -35.85 2.2 -35.95 2.3 -37.35 3.9 -39.45 6.7 Q-41.05 10.1 -41.5 11.85 -41.95 13.65 -41.95 16.45 -41.95 19.65 -41.4 21.45 L-40.9 22.6 -39.2 24.75 -37.55 26.5 -34.4 29.65 Q-33.55 30.45 -32.05 32.9 -30.75 35.05 -28.95 36.4 -28.1 37.0 -25.5 37.75 L-21.9 38.65 -21.15 38.8 -21.1 38.8 Q-18.25 39.35 -17.15 40.0 L-16.95 40.15 -5.1 40.65 -2.55 40.65 -1.9 40.65 9.6 40.0 14.45 37.0 14.5 37.0 16.0 36.15 16.4 35.7 16.4 35.65 17.85 34.65 Q20.2 32.9 22.6 27.9 L26.1 20.2 Q26.95 17.55 26.95 13.25 26.95 12.0 26.2 9.35 25.45 6.7 25.45 4.75 L25.45 4.65 Q25.45 3.15 25.9 0.85 L26.05 -0.05 26.8 -3.4 Q28.3 -9.35 28.45 -11.85 28.6 -13.95 30.35 -15.8 L31.35 -16.7 Q33.0 -18.1 35.45 -19.05 41.95 -21.5 41.95 -26.1 41.95 -27.9 38.65 -31.1 35.45 -34.2 32.95 -35.1 L21.35 -38.35 20.45 -38.6 M1.4 -42.5 L2.5 -42.95 2.55 -42.95 2.7 -43.05 4.65 -43.95 6.0 -44.25 Q13.15 -44.55 17.15 -42.05 22.4 -41.15 28.1 -39.25 43.95 -34.05 43.95 -26.25 43.95 -22.1 42.2 -20.0 40.95 -18.5 38.15 -17.45 L33.6 -15.6 Q32.35 -14.85 31.55 -13.7 31.2 -10.6 29.25 -4.0 L28.95 -3.0 28.15 1.15 27.95 2.15 Q28.4 3.4 28.25 5.1 L28.55 7.1 28.75 7.85 29.0 10.6 29.6 16.65 29.2 18.6 Q28.75 19.9 28.75 20.5 L26.05 26.35 Q23.4 31.8 22.75 32.65 L20.15 35.6 18.35 37.05 17.65 37.55 Q16.95 39.05 14.45 40.3 12.4 41.3 9.35 41.95 5.55 43.7 2.8 43.95 L2.4 43.9 -7.55 43.05 -8.95 43.3 -12.1 42.7 -16.45 42.95 -17.15 42.8 -22.4 42.05 -27.55 39.85 -29.5 39.2 -33.05 36.55 Q-34.2 35.2 -34.5 33.9 L-34.6 33.55 -36.05 31.45 Q-36.65 30.85 -37.5 30.2 L-41.15 27.3 -43.6 24.15 Q-44.4 22.8 -44.4 21.25 L-44.3 20.45 -44.4 19.9 -44.25 18.2 -44.5 17.2 -44.55 15.15 -44.55 15.1 Q-44.1 14.0 -44.1 13.35 L-43.65 10.25 -43.5 9.4 -42.35 7.7 -41.45 5.45 Q-41.05 4.45 -39.8 3.2 -38.7 1.25 -37.15 -0.25 L-37.05 -1.65 -36.25 -9.75 Q-35.8 -12.8 -33.45 -16.6 L-31.8 -19.15 -30.4 -22.0 Q-28.8 -24.8 -26.75 -27.0 L-23.15 -29.4 Q-19.0 -32.4 -16.5 -34.85 L-16.1 -35.2 -12.75 -36.8 Q-10.35 -37.8 -6.15 -39.7 -3.75 -40.3 1.4 -42.5" fill="#000000" fill-rule="evenodd" stroke="none"/>
      <path d="M5.75 35.6 Q4.2 34.95 0.05 35.0 L0.0 35.0 -0.5 35.0 -2.35 35.05 -6.3 35.0 -12.8 34.75 -17.6 34.5 -21.85 34.0 -23.95 32.45 Q-24.5 32.1 -25.0 31.85 -25.0 30.2 -27.35 27.85 L-28.35 26.95 Q-30.05 25.45 -32.1 24.3 -32.8 23.65 -33.4 23.15 L-33.8 22.85 -35.9 21.25 -35.75 20.45 -35.8 20.4 -36.55 18.55 Q-36.95 17.1 -36.95 15.3 -36.95 12.4 -36.75 11.85 -36.45 11.05 -34.5 8.7 L-33.9 7.9 -32.05 6.6 Q-31.2 6.0 -30.75 5.25 L-30.45 4.4 -30.15 3.0 -30.1 2.7 -30.0 1.55 -29.95 0.65 Q-29.95 -2.65 -28.75 -7.0 -27.65 -11.0 -25.95 -14.35 L-24.3 -17.45 -21.45 -21.55 Q-18.35 -25.15 -12.9 -28.6 L-12.25 -29.0 -8.1 -31.55 -4.4 -33.8 2.35 -36.15 6.35 -37.65 7.15 -38.05 14.45 -37.6 19.3 -36.35 21.25 -35.85 24.45 -35.1 28.4 -34.5 Q30.5 -33.95 32.95 -32.55 34.3 -31.75 36.6 -29.15 38.95 -26.45 38.95 -25.55 38.95 -23.5 35.4 -21.3 L30.15 -18.6 28.6 -17.85 Q26.3 -16.7 25.65 -14.25 L24.45 -9.85 23.6 -0.85 23.5 -0.1 22.45 6.2 22.45 6.35 Q22.6 10.0 22.35 14.3 22.05 19.0 21.35 22.4 21.1 23.7 19.15 26.6 L17.2 29.65 16.6 30.65 14.85 32.95 13.5 34.25 6.15 35.75 5.75 35.6" fill="#6a442b" fill-rule="evenodd" stroke="none"/>
    </g>
    <g id="shape3" transform="matrix(1.0, 0.0, 0.0, 1.0, 29.45, 30.75)">
      <path d="M9.0 -1.05 L5.85 -1.1 4.45 -1.1 4.5 -15.45 11.75 -16.5 12.45 -16.6 12.5 -14.45 Q12.55 -13.2 12.95 -11.05 L13.5 -7.7 13.6 -5.2 Q11.5 -5.55 10.65 -4.2 L9.0 -1.4 9.0 -1.05 M-24.4 -1.9 Q-27.7 -5.3 -27.05 -9.25 L-26.75 -11.15 Q-23.95 -10.75 -18.35 -12.85 -13.25 -14.75 -12.4 -15.5 L-12.3 -15.4 -10.45 -13.35 Q-9.0 -11.9 -7.65 -11.35 L-9.6 -10.0 Q-10.1 -9.5 -11.9 -8.3 L-14.2 -6.7 Q-14.7 -6.2 -16.05 -5.45 -17.55 -4.75 -18.0 -4.3 L-18.55 -3.65 Q-19.8 -4.7 -21.7 -4.1 L-23.9 -2.7 -24.35 -1.95 -24.4 -1.9 M10.5 -1.05 L13.2 -2.85 14.0 -0.95 10.5 -1.05 M-24.15 -1.65 L-24.15 -1.85 -21.65 -1.55 -20.0 -1.9 Q-19.95 -1.05 -20.2 0.4 L-20.4 0.9 Q-23.2 -0.7 -24.15 -1.65" fill="#372c22" fill-rule="evenodd" stroke="none"/>
      <path d="M12.95 -26.5 Q12.9 -23.45 13.5 -20.7 13.9 -18.95 14.5 -17.65 14.4 -14.35 15.15 -10.65 16.0 -6.45 16.0 -4.15 L16.0 -2.5 16.2 -2.15 Q17.0 -0.8 17.0 0.1 L16.85 1.0 14.95 1.1 -1.0 1.75 Q-1.45 0.85 -2.25 0.25 L-2.1 0.1 -2.3 -0.65 -2.5 -2.2 Q-2.5 -7.45 -1.75 -12.35 L-2.0 -12.1 Q-3.15 -10.95 -10.25 -6.35 L-13.55 -3.65 Q-15.4 -2.4 -17.55 -2.05 -17.3 -0.3 -18.75 3.05 -19.45 3.55 -20.45 2.85 L-20.45 2.65 Q-22.7 1.9 -26.2 -0.7 -29.15 -3.65 -29.45 -8.95 -29.6 -12.5 -28.75 -14.35 L-28.7 -15.0 -28.6 -15.4 -28.85 -15.65 -28.6 -15.7 -28.15 -17.65 -26.9 -18.3 -26.3 -18.3 -24.75 -18.95 -22.7 -19.4 Q-19.2 -20.1 -17.0 -22.3 L-15.95 -22.65 Q-12.55 -25.45 -9.55 -26.65 -3.2 -29.1 1.3 -24.6 L1.55 -24.35 Q3.4 -28.25 5.9 -29.95 8.6 -31.75 10.8 -29.6 L12.95 -26.5 M9.0 -1.4 L10.65 -4.2 Q11.5 -5.55 13.6 -5.2 L13.5 -7.7 12.95 -11.05 Q12.55 -13.2 12.5 -14.45 L12.45 -16.6 11.75 -16.5 4.5 -15.45 4.45 -1.1 5.85 -1.1 9.0 -1.05 9.05 -1.05 9.35 -1.05 9.0 -1.4 M10.5 -1.05 L14.0 -0.95 13.2 -2.85 10.5 -1.05 M-12.4 -15.5 Q-13.25 -14.75 -18.35 -12.85 -23.95 -10.75 -26.75 -11.15 L-27.05 -9.25 Q-27.7 -5.3 -24.4 -1.9 L-24.15 -1.65 Q-23.2 -0.7 -20.4 0.9 -20.35 0.85 -20.25 0.95 L-20.2 0.4 Q-19.95 -1.05 -20.0 -1.9 L-21.65 -1.55 -24.15 -1.85 Q-24.25 -1.85 -24.35 -1.95 L-23.9 -2.7 -21.7 -4.1 Q-19.8 -4.7 -18.55 -3.65 L-18.0 -4.3 Q-17.55 -4.75 -16.05 -5.45 -14.7 -6.2 -14.2 -6.7 L-11.9 -8.3 Q-10.1 -9.5 -9.6 -10.0 L-7.65 -11.35 Q-9.0 -11.9 -10.45 -13.35 L-12.3 -15.4 -12.35 -15.55 -12.4 -15.5" fill="#000000" fill-rule="evenodd" stroke="none"/>
      <path d="M9.0 -1.05 L9.0 -1.4 9.05 -1.05 9.0 -1.05" fill="#5b6171" fill-rule="evenodd" stroke="none"/>
    </g>
    <g id="shape4" transform="matrix(1.0, 0.0, 0.0, 1.0, 23.8, 32.6)">
      <path d="M8.6 -28.65 Q11.2 -30.7 12.7 -31.15 22.9 -34.35 28.75 -30.4 33.85 -27.0 33.7 -20.15 L33.5 -19.55 33.25 -19.3 33.8 -19.15 35.8 -18.9 37.45 -16.8 39.05 -15.35 39.3 -14.45 Q40.55 -12.7 40.9 -9.55 L41.55 -4.4 41.45 -4.0 42.65 -3.15 Q45.75 -0.7 46.4 1.1 L46.8 1.3 47.8 2.45 Q48.8 3.95 48.8 6.2 48.8 10.05 47.5 12.05 46.25 13.95 41.3 17.9 L36.3 17.9 36.35 18.05 Q33.6 17.8 31.8 14.85 30.15 14.25 27.65 11.85 26.65 11.65 25.5 10.45 L24.55 9.55 23.9 9.05 23.1 8.6 Q22.6 8.4 21.95 7.7 21.2 11.0 21.2 14.6 L21.2 16.25 21.2 16.35 21.2 16.5 21.5 17.65 Q21.35 18.45 18.95 18.95 L18.55 19.05 18.7 20.2 18.7 21.25 Q20.45 21.1 21.5 22.65 22.9 25.95 23.7 26.9 L27.1 30.95 Q28.2 32.35 28.2 34.0 L28.05 34.95 27.85 35.1 28.0 35.25 27.7 35.35 27.7 35.45 27.65 36.3 27.45 36.65 21.2 36.6 14.5 37.05 -1.8 37.85 -22.9 37.85 -22.95 37.8 -23.5 37.6 Q-23.8 37.4 -23.8 36.6 -23.8 35.3 -23.0 33.15 L-21.65 29.35 -20.25 25.5 -19.3 23.75 -19.3 22.5 -19.15 20.25 -19.1 20.2 Q-21.4 19.9 -22.05 19.15 -22.65 18.55 -22.3 17.35 L-22.3 17.0 -22.3 15.7 Q-22.3 4.25 -19.6 -3.85 -16.05 -14.7 -8.2 -17.35 L-7.95 -17.5 -7.55 -17.65 Q-4.2 -19.15 1.3 -19.15 1.55 -20.15 2.95 -22.35 L5.1 -25.4 Q6.15 -26.7 8.6 -28.65 M31.6 -19.75 Q30.85 -26.7 27.05 -28.8 25.05 -29.9 20.2 -29.9 11.55 -29.9 6.6 -23.95 4.6 -21.55 3.75 -19.1 L10.2 -18.2 14.2 -18.15 16.25 -17.7 18.85 -16.9 20.7 -15.55 21.55 -14.7 21.75 -14.75 Q22.85 -14.85 23.7 -13.35 L23.8 -13.2 24.7 -12.55 25.1 -12.15 25.05 -13.5 25.25 -15.25 25.3 -15.4 Q25.95 -17.25 27.45 -18.5 L28.2 -18.95 28.15 -19.05 28.8 -19.45 30.3 -19.9 30.35 -19.75 31.1 -19.65 31.1 -19.4 31.6 -19.45 31.6 -19.75 M18.05 -14.1 L17.45 -14.35 16.75 -14.6 15.45 -15.05 14.4 -15.3 13.9 -15.45 Q13.6 -15.15 12.95 -15.15 L12.9 -15.15 13.4 -13.3 13.6 -12.5 Q14.2 -9.9 14.2 -8.3 L14.15 -7.25 14.8 -7.7 15.1 -7.9 Q16.0 -8.45 17.0 -8.2 L17.85 -7.9 18.05 -8.0 18.2 -7.15 Q18.2 -6.65 17.0 -5.9 L15.15 -4.9 13.85 -4.35 15.05 -2.9 16.7 -1.1 16.6 -0.45 Q16.45 -0.15 15.7 -0.15 15.2 -0.15 14.6 -0.45 L13.25 -1.45 12.75 -1.95 Q11.45 1.3 9.7 3.35 L9.0 3.2 Q8.7 3.05 8.7 2.25 L10.45 -2.55 10.65 -3.05 10.3 -2.95 7.45 -2.15 6.25 -2.35 5.7 -2.85 Q6.8 -4.2 9.45 -5.1 L9.9 -5.15 10.0 -5.2 9.85 -5.4 Q7.7 -8.2 7.7 -8.65 L7.9 -9.5 8.2 -9.6 Q9.85 -8.85 11.9 -6.65 L12.2 -8.25 Q12.2 -9.55 11.45 -12.1 10.85 -14.15 10.75 -15.3 L6.7 -15.75 0.95 -16.35 0.55 -16.4 0.45 -16.4 -0.7 -16.4 -4.0 -16.15 -5.3 -15.95 Q-6.4 -15.7 -6.85 -15.25 L-7.1 -15.0 Q-8.0 -14.3 -9.15 -14.15 L-9.2 -14.15 Q-13.2 -11.95 -14.9 -8.35 -18.2 -1.5 -18.8 1.4 -19.65 5.3 -19.8 11.1 L-19.8 17.55 -15.9 18.1 -15.3 18.1 -11.65 18.0 10.7 17.35 11.75 17.3 12.5 17.25 14.55 17.1 15.75 17.0 17.2 16.85 18.85 16.35 19.25 16.05 19.2 14.2 19.25 12.45 19.75 7.6 20.05 5.95 20.25 5.2 20.2 4.85 Q20.2 4.25 20.6 4.05 L21.2 2.4 Q23.2 -2.3 23.2 -5.8 L23.25 -5.95 23.3 -6.25 23.35 -6.9 22.6 -8.5 22.1 -9.7 21.1 -12.2 20.9 -12.4 20.75 -12.55 20.65 -12.6 18.05 -14.1 M39.0 -5.5 Q38.75 -9.55 37.75 -12.45 36.6 -15.95 34.7 -16.55 33.65 -17.35 31.8 -17.5 29.85 -17.65 28.8 -16.9 L28.7 -16.9 Q27.05 -16.45 27.05 -13.1 27.05 -10.75 30.05 -6.9 32.9 -3.15 34.3 -3.15 37.55 -3.15 37.55 -5.55 L38.55 -5.45 39.0 -5.45 39.0 -5.5 M27.05 -6.65 L26.5 -7.3 25.85 -4.3 25.3 -1.55 24.85 0.1 24.35 0.3 23.2 3.65 23.0 4.25 Q24.3 4.8 24.95 5.85 L25.5 6.55 Q26.65 6.95 27.3 7.9 L28.9 9.2 29.95 10.1 29.55 8.55 28.55 -1.3 28.6 -3.7 28.75 -4.65 27.05 -6.65 M46.1 3.7 L44.05 5.45 Q41.9 6.9 40.8 6.9 L40.3 6.85 37.8 7.05 Q35.6 7.05 35.1 5.0 L35.05 2.3 Q35.05 1.1 34.45 -0.95 32.55 -1.15 30.8 -2.55 L31.0 -0.65 31.05 5.1 Q31.05 6.75 32.55 10.95 L33.55 13.4 34.05 13.85 34.0 14.15 35.25 14.5 36.2 15.15 38.0 14.85 41.7 14.85 42.6 14.15 45.1 11.45 46.35 9.05 46.8 6.4 Q46.8 5.0 46.35 3.95 L46.15 3.55 46.1 3.7 M37.15 -1.2 L37.25 0.0 Q37.3 4.2 37.55 4.8 38.65 4.85 41.2 3.7 L44.55 2.05 41.4 -0.8 39.1 -2.85 38.8 -2.35 Q38.25 -1.55 37.15 -1.2 M48.4 0.15 L48.5 0.0 48.8 0.15 48.4 0.15 M54.2 0.15 L54.4 0.05 54.4 0.15 54.2 0.15 M14.9 19.2 Q14.4 19.3 14.15 19.6 5.15 20.35 -15.55 20.35 L-17.05 20.35 Q-17.0 21.65 -17.3 23.65 L-10.65 23.0 -1.3 22.35 15.3 21.7 15.3 21.5 16.45 21.6 16.9 21.6 16.85 21.55 Q16.7 21.3 16.7 20.35 L16.9 19.15 14.9 19.2 M21.8 34.4 L24.7 34.35 24.8 34.35 25.55 34.35 26.0 34.35 24.85 32.55 Q23.1 29.4 22.6 29.1 L20.6 25.95 Q19.7 24.55 18.55 24.3 L17.2 24.35 16.9 24.25 16.2 24.35 15.9 24.35 15.3 24.4 11.5 24.5 -8.15 25.4 -13.0 25.7 -15.55 25.85 -17.55 25.65 -18.4 27.9 -19.8 31.65 -20.35 35.05 Q-20.55 35.75 -20.9 36.3 L-19.0 36.25 -15.9 36.2 -15.75 36.2 -12.4 36.1 15.35 34.65 16.2 34.6 19.55 34.4 21.8 34.4" fill="#000000" fill-rule="evenodd" stroke="none"/>
      <path d="M46.35 3.95 L46.1 3.7 46.15 3.55 46.35 3.95" fill="#c6b19f" fill-rule="evenodd" stroke="none"/>
      <path d="M31.1 -19.65 L30.35 -19.75 30.3 -19.9 28.8 -19.45 28.15 -19.05 28.2 -18.95 27.45 -18.5 Q25.95 -17.25 25.3 -15.4 L25.25 -15.25 25.05 -13.5 25.1 -12.15 24.7 -12.55 23.8 -13.2 23.7 -13.35 Q22.85 -14.85 21.75 -14.75 L21.55 -14.7 20.7 -15.55 18.85 -16.9 16.25 -17.7 14.2 -18.15 10.2 -18.2 3.75 -19.1 Q4.6 -21.55 6.6 -23.95 11.55 -29.9 20.2 -29.9 25.05 -29.9 27.05 -28.8 30.85 -26.7 31.6 -19.75 L31.1 -19.65 M37.15 -1.2 Q38.25 -1.55 38.8 -2.35 L39.1 -2.85 41.4 -0.8 44.55 2.05 41.2 3.7 Q38.65 4.85 37.55 4.8 37.3 4.2 37.25 0.0 L37.15 -1.2" fill="#794d31" fill-rule="evenodd" stroke="none"/>
      <path d="M14.9 19.2 L16.9 19.15 16.7 20.35 Q16.7 21.3 16.85 21.55 L16.9 21.6 16.45 21.6 15.3 21.5 15.3 21.7 -1.3 22.35 -10.65 23.0 -17.3 23.65 Q-17.0 21.65 -17.05 20.35 L-15.55 20.35 Q5.15 20.35 14.15 19.6 14.4 19.3 14.9 19.2" fill="#332d26" fill-rule="evenodd" stroke="none"/>
      <path d="M38.55 -5.45 L37.55 -5.55 Q37.55 -3.15 34.3 -3.15 32.9 -3.15 30.05 -6.9 27.05 -10.75 27.05 -13.1 27.05 -16.45 28.7 -16.9 L28.8 -16.9 Q29.85 -17.65 31.8 -17.5 33.65 -17.35 34.7 -16.55 36.6 -15.95 37.75 -12.45 38.75 -9.55 39.0 -5.5 L38.55 -5.45 M46.35 3.95 Q46.8 5.0 46.8 6.4 L46.35 9.05 45.1 11.45 42.6 14.15 41.7 14.85 38.0 14.85 36.2 15.15 35.25 14.5 34.0 14.15 34.05 13.85 33.55 13.4 32.55 10.95 Q31.05 6.75 31.05 5.1 L31.0 -0.65 30.8 -2.55 Q32.55 -1.15 34.45 -0.95 35.05 1.1 35.05 2.3 L35.1 5.0 Q35.6 7.05 37.8 7.05 L40.3 6.85 40.8 6.9 Q41.9 6.9 44.05 5.45 L46.1 3.7 46.35 3.95" fill="#aa8a71" fill-rule="evenodd" stroke="none"/>
      <path d="M0.55 -16.4 L0.8 -16.35 0.0 -15.5 0.0 -14.25 Q0.0 -7.85 -5.1 5.55 -8.85 15.3 -11.15 18.0 L-11.65 18.0 -15.3 18.1 -15.9 18.1 -19.8 17.55 -19.8 11.1 Q-19.65 5.3 -18.8 1.4 -18.2 -1.5 -14.9 -8.35 -13.2 -11.95 -9.2 -14.15 L-9.15 -14.15 Q-8.0 -14.3 -7.1 -15.0 L-6.85 -15.25 Q-6.4 -15.7 -5.3 -15.95 L-4.0 -16.15 -0.7 -16.4 0.45 -16.4 0.55 -16.4 M15.75 17.0 L15.9 15.15 Q16.25 11.3 17.0 8.5 L19.3 1.8 Q21.0 -3.2 21.0 -5.35 21.0 -7.75 20.65 -8.5 19.45 -10.9 18.8 -12.85 L18.05 -14.1 20.65 -12.6 20.75 -12.55 20.9 -12.4 21.1 -12.2 22.1 -9.7 22.6 -8.5 23.35 -6.9 23.3 -6.25 23.25 -5.95 23.2 -5.8 Q23.2 -2.3 21.2 2.4 L20.6 4.05 Q20.2 4.25 20.2 4.85 L20.25 5.2 20.05 5.95 19.75 7.6 19.25 12.45 19.2 14.2 19.25 16.05 18.85 16.35 17.2 16.85 15.75 17.0 M15.9 24.35 L16.2 24.35 16.9 24.25 17.2 24.35 18.55 24.3 Q19.7 24.55 20.6 25.95 L22.6 29.1 Q23.1 29.4 24.85 32.55 L26.0 34.35 25.55 34.35 24.8 34.35 24.7 34.35 21.8 34.4 19.75 31.0 15.9 24.35 M-15.75 36.2 L-15.9 36.2 -19.0 36.25 -20.9 36.3 Q-20.55 35.75 -20.35 35.05 L-19.8 31.65 -18.4 27.9 -17.55 25.65 -15.55 25.85 -13.0 25.7 -13.25 27.1 Q-13.0 27.45 -13.0 28.15 L-13.1 29.3 -13.6 29.55 -13.85 29.7 -14.5 32.2 -15.75 36.2" fill="#942403" fill-rule="evenodd" stroke="none"/>
      <path d="M10.45 -2.55 L8.7 2.25 Q8.7 3.05 9.0 3.2 L9.7 3.35 Q11.45 1.3 12.75 -1.95 L13.25 -1.45 14.6 -0.45 Q15.2 -0.15 15.7 -0.15 16.45 -0.15 16.6 -0.45 L16.7 -1.1 15.05 -2.9 13.85 -4.35 15.15 -4.9 17.0 -5.9 Q18.2 -6.65 18.2 -7.15 L18.05 -8.0 17.85 -7.9 17.0 -8.2 Q16.0 -8.45 15.1 -7.9 L14.8 -7.7 14.15 -7.25 14.2 -8.3 Q14.2 -9.9 13.6 -12.5 L13.4 -13.3 12.9 -15.15 12.95 -15.15 Q13.6 -15.15 13.9 -15.45 L14.4 -15.3 15.45 -15.05 16.75 -14.6 17.45 -14.35 18.05 -14.1 18.8 -12.85 Q19.45 -10.9 20.65 -8.5 21.0 -7.75 21.0 -5.35 21.0 -3.2 19.3 1.8 L17.0 8.5 Q16.25 11.3 15.9 15.15 L15.75 17.0 14.55 17.1 12.5 17.25 11.75 17.3 10.7 17.35 -11.65 18.0 -11.15 18.0 Q-8.85 15.3 -5.1 5.55 0.0 -7.85 0.0 -14.25 L0.0 -15.5 0.8 -16.35 0.55 -16.4 0.95 -16.35 6.7 -15.75 10.75 -15.3 Q10.85 -14.15 11.45 -12.1 12.2 -9.55 12.2 -8.25 L11.9 -6.65 Q9.85 -8.85 8.2 -9.6 L7.9 -9.5 7.7 -8.65 Q7.7 -8.2 9.85 -5.4 L10.0 -5.2 9.9 -5.15 9.45 -5.1 Q6.8 -4.2 5.7 -2.85 L6.25 -2.35 7.45 -2.15 10.3 -2.95 10.45 -2.55 M27.05 -6.65 L28.75 -4.65 28.6 -3.7 28.55 -1.3 29.55 8.55 29.95 10.1 28.9 9.2 27.3 7.9 Q26.65 6.95 25.5 6.55 L24.95 5.85 Q24.3 4.8 23.0 4.25 L23.2 3.65 24.35 0.3 24.85 0.1 25.3 -1.55 25.85 -4.3 26.5 -7.3 27.05 -6.65 M15.9 24.35 L19.75 31.0 21.8 34.4 19.55 34.4 16.2 34.6 15.35 34.65 -12.4 36.1 -15.75 36.2 -14.5 32.2 -13.85 29.7 -13.6 29.55 -13.1 29.3 -13.0 28.15 Q-13.0 27.45 -13.25 27.1 L-13.0 25.7 -8.15 25.4 11.5 24.5 15.3 24.4 15.9 24.35" fill="#731c02" fill-rule="evenodd" stroke="none"/>
    </g>
    <g id="shape5" transform="matrix(1.0, 0.0, 0.0, 1.0, 34.55, 27.85)">
      <path d="M3.8 -25.1 L7.85 -25.3 Q24.65 -25.3 30.15 -11.3 32.4 -5.55 32.55 0.95 L31.8 2.7 31.65 2.95 29.6 2.9 28.85 0.2 28.8 0.05 Q27.5 -6.3 26.55 -8.9 21.75 -21.9 7.35 -21.9 -3.45 -21.9 -9.9 -14.45 -15.7 -7.75 -16.25 2.5 L-16.3 8.6 -16.25 14.75 Q-16.25 17.2 -16.65 17.8 -17.7 19.55 -22.15 20.55 -22.85 20.7 -27.25 23.2 L-31.8 23.2 -31.9 23.0 -32.0 22.85 -32.05 22.3 -32.05 22.2 Q-32.05 21.15 -26.25 18.8 L-20.3 16.45 -20.5 16.0 -20.55 15.95 -20.05 15.75 -20.0 15.5 -19.95 15.3 -19.95 14.95 -19.8 12.9 -19.75 12.2 -19.4 7.05 -19.3 5.4 -19.3 5.2 -19.3 5.15 -19.3 5.0 -19.3 4.9 -19.3 4.85 -19.3 4.75 -19.3 4.7 -19.35 1.3 -19.4 0.9 -19.45 0.5 -19.45 0.45 -19.4 -0.3 -18.05 -5.7 -18.85 -4.75 Q-17.8 -9.7 -15.9 -13.35 L-15.85 -13.4 -14.95 -14.4 -13.85 -16.55 -13.8 -16.6 -13.4 -17.15 -12.65 -18.0 Q-8.45 -22.55 -1.55 -24.25 L0.7 -24.65 3.8 -25.1" fill="#695441" fill-rule="evenodd" stroke="none"/>
      <path d="M-27.25 23.2 Q-22.85 20.7 -22.15 20.55 -17.7 19.55 -16.65 17.8 -16.25 17.2 -16.25 14.75 L-16.3 8.6 -16.25 2.5 Q-15.7 -7.75 -9.9 -14.45 -3.45 -21.9 7.35 -21.9 21.75 -21.9 26.55 -8.9 27.5 -6.3 28.8 0.05 L28.85 0.2 29.6 2.9 10.35 2.55 -1.85 2.5 -4.9 2.85 -4.8 3.35 -4.75 4.05 Q-5.65 5.4 -6.05 8.25 L-6.8 14.85 Q-8.0 23.15 -14.0 23.2 L-27.25 23.2 M7.9 25.7 L3.75 25.7 Q1.85 24.15 1.35 20.4 1.2 19.05 1.2 14.3 L1.2 9.1 0.9 5.05 0.95 5.0 1.1 4.55 9.35 4.75 9.85 4.75 9.85 4.8 10.9 4.9 11.3 4.8 Q12.6 4.6 13.35 5.7 L13.55 9.55 13.6 15.75 13.05 21.0 11.85 23.7 Q10.65 25.65 8.3 25.8 L7.9 25.7" fill="#372c22" fill-rule="evenodd" stroke="none"/>
      <path d="M3.8 -25.1 L0.7 -24.65 -1.55 -24.25 3.8 -25.1 M-13.85 -16.55 L-14.95 -14.4 -15.85 -13.4 Q-14.95 -15.15 -13.85 -16.55 M-18.85 -4.75 L-18.05 -5.7 -19.4 -0.3 -19.45 0.45 -19.6 -0.15 -18.85 -4.75 M31.65 2.95 L31.8 2.7 32.55 0.95 32.55 2.95 32.05 2.95 31.65 2.95" fill="#5b6171" fill-rule="evenodd" stroke="none"/>
      <path d="M31.2 -12.8 Q33.45 -7.3 34.6 3.25 L34.4 4.0 34.1 4.3 34.0 4.65 33.75 4.95 30.55 4.95 Q31.0 6.5 31.15 8.4 L31.2 13.8 31.5 16.65 Q31.65 19.05 31.2 20.75 29.85 25.8 22.6 25.95 L18.7 26.2 17.5 26.9 18.4 26.2 18.05 26.2 13.9 26.0 12.35 27.25 7.8 27.6 7.45 27.7 6.9 27.85 Q0.75 27.5 -0.3 25.7 L-0.6 24.95 -0.8 24.95 -1.45 24.95 -3.7 25.2 -4.8 25.15 Q-5.45 24.7 -6.7 24.75 L-7.5 24.9 -23.3 25.45 Q-32.0 25.45 -34.0 23.85 -34.65 23.35 -34.55 22.7 L-34.3 22.1 Q-34.3 20.8 -30.0 18.2 -25.45 15.45 -22.55 15.45 L-22.1 15.45 -22.25 15.15 -22.3 13.95 Q-22.55 8.1 -22.4 5.1 -22.25 2.1 -21.6 0.4 L-21.8 -0.8 Q-21.8 -3.65 -20.2 -8.15 -18.1 -14.0 -14.45 -18.4 -3.85 -31.05 15.25 -26.8 27.25 -22.4 31.2 -12.8 M32.55 0.95 Q32.4 -5.55 30.15 -11.3 24.65 -25.3 7.85 -25.3 L3.8 -25.1 -1.55 -24.25 Q-8.45 -22.55 -12.65 -18.0 L-13.4 -17.15 -13.8 -16.6 -13.85 -16.55 Q-14.95 -15.15 -15.85 -13.4 L-15.9 -13.35 Q-17.8 -9.7 -18.85 -4.75 L-19.6 -0.15 -19.45 0.45 -19.45 0.5 -19.4 0.9 -19.35 1.3 -19.3 4.7 -19.3 4.75 -19.3 4.85 -19.3 4.9 -19.3 5.0 -19.3 5.15 -19.3 5.2 -19.3 5.4 -19.4 7.05 -19.75 12.2 -19.8 12.9 -19.95 14.95 -19.95 15.3 -20.0 15.5 -20.05 15.75 -20.55 15.95 -20.5 16.0 -20.3 16.45 -26.25 18.8 Q-32.05 21.15 -32.05 22.2 L-32.05 22.3 -32.0 22.85 -31.9 23.0 -31.8 23.2 -27.25 23.2 -14.0 23.2 Q-8.0 23.15 -6.8 14.85 L-6.05 8.25 Q-5.65 5.4 -4.75 4.05 L-4.8 3.35 -4.9 2.85 -1.85 2.5 10.35 2.55 29.6 2.9 31.65 2.95 32.05 2.95 32.55 2.95 32.55 0.95 M28.8 4.95 L28.7 4.95 28.7 5.35 28.8 4.95 M20.3 23.35 L20.4 23.4 20.6 23.6 21.35 23.75 Q28.25 23.35 29.2 14.75 L29.35 12.45 Q22.15 12.5 17.05 14.15 L16.8 14.3 16.8 14.6 16.8 15.95 Q16.7 18.95 16.3 20.5 L15.7 22.8 18.6 23.25 20.25 23.5 20.3 23.35 M8.3 25.8 Q10.65 25.65 11.85 23.7 L13.05 21.0 13.6 15.75 13.55 9.55 13.35 5.7 Q12.6 4.6 11.3 4.8 L10.9 4.9 9.85 4.8 9.85 4.75 9.35 4.75 1.1 4.55 0.95 5.0 0.9 5.05 1.2 9.1 1.2 14.3 Q1.2 19.05 1.35 20.4 1.85 24.15 3.75 25.7 L7.9 25.7 7.95 25.85 8.3 25.8 M17.8 9.8 L18.7 9.95 Q19.95 9.95 19.75 9.7 L20.05 9.25 20.2 8.2 20.1 7.1 20.0 6.7 18.05 6.6 17.65 6.65 17.2 6.6 17.2 6.7 17.2 9.7 17.25 9.95 17.8 9.8" fill="#000000" fill-rule="evenodd" stroke="none"/>
      <path d="M20.3 23.35 L20.25 23.5 18.6 23.25 15.7 22.8 16.3 20.5 Q16.7 18.95 16.8 15.95 L16.8 14.6 16.8 14.3 17.05 14.15 Q22.15 12.5 29.35 12.45 L29.2 14.75 Q28.25 23.35 21.35 23.75 L20.6 23.6 20.4 23.4 20.3 23.35" fill="#aa8a71" fill-rule="evenodd" stroke="none"/>
      <path d="M17.65 6.65 L18.05 6.6 20.0 6.7 20.1 7.1 20.2 8.2 20.05 9.25 19.75 9.7 Q19.95 9.95 18.7 9.95 L17.8 9.8 17.2 9.7 17.2 6.7 17.65 6.65" fill="#ffffff" fill-rule="evenodd" stroke="none"/>
    </g>
    <g id="shape6" transform="matrix(1.0, 0.0, 0.0, 1.0, 30.05, 41.5)">
      <path d="M1.3 -34.5 Q3.05 -33.65 3.45 -33.25 4.6 -32.1 4.85 -29.75 L2.4 -29.5 Q1.1 -29.3 0.15 -29.8 -0.55 -30.2 -0.85 -30.95 L-0.7 -31.0 -0.6 -31.05 -0.95 -31.15 Q-1.35 -32.4 -0.9 -34.5 L1.3 -34.5 M3.3 -22.45 L5.05 -22.5 5.05 -21.3 Q4.7 -20.8 4.6 -20.0 L4.6 -19.95 4.25 -19.8 4.0 -19.6 4.0 -13.85 3.55 -13.85 -1.85 1.05 -2.0 1.65 -2.5 -3.1 -3.0 -7.35 -2.85 -9.3 Q-0.05 -11.1 1.15 -15.05 L2.15 -18.1 1.75 -18.15 2.25 -18.1 2.4 -18.85 Q3.1 -20.95 3.5 -21.5 L3.15 -21.8 3.3 -22.45 M4.0 -9.95 L4.0 -7.25 Q5.0 4.75 5.0 11.05 L5.0 20.5 Q5.0 21.6 6.0 25.35 7.0 29.1 7.0 30.0 L7.0 31.3 6.5 32.05 Q6.25 32.75 7.1 33.15 L6.1 33.25 4.0 25.0 Q3.7 24.1 3.35 19.95 3.0 16.0 3.0 14.25 L2.95 10.95 Q2.9 8.2 3.0 6.55 3.05 5.55 4.0 2.5 L4.6 0.65 4.4 -2.35 4.05 -2.35 Q2.45 3.0 2.3 5.8 2.1 8.55 2.15 13.0 2.2 17.4 2.5 21.0 2.75 24.55 3.0 25.3 L3.8 28.1 4.75 31.0 Q5.0 31.65 4.85 33.25 L2.15 33.25 0.5 33.25 Q0.4 29.75 -0.4 24.25 L-1.75 15.05 -2.0 15.05 -2.0 8.1 -1.5 3.0 1.8 -4.45 4.0 -9.95 M-0.35 33.2 L-3.35 32.75 -3.5 31.35 -2.75 27.1 -2.05 23.15 -1.0 27.8 Q-0.45 29.75 -0.35 33.05 L-0.35 33.2 M-2.75 -10.95 L-2.0 -19.15 -1.7 -19.4 -1.45 -21.0 Q-1.45 -21.8 -2.1 -21.95 L-2.1 -22.1 2.7 -22.45 2.35 -22.4 2.2 -21.95 Q1.6 -21.7 1.15 -20.35 0.6 -18.7 0.5 -16.6 0.25 -14.4 -1.65 -12.25 L-2.75 -10.95" fill="#211b14" fill-rule="evenodd" stroke="none"/>
      <path d="M27.8 -31.6 L27.8 -32.15 27.8 -32.75 27.8 -32.9 27.35 -36.6 27.0 -38.55 Q26.2 -38.05 24.8 -37.55 L23.55 -37.15 20.6 -36.25 13.55 -34.55 6.75 -32.95 7.05 -30.75 Q7.05 -28.1 4.7 -27.55 L2.2 -27.5 0.05 -27.75 Q-1.95 -28.1 -2.45 -29.0 L-3.15 -30.25 Q-13.45 -26.9 -21.75 -20.5 L-22.45 -19.95 -21.7 -20.25 Q-18.65 -21.4 -14.3 -22.35 L-4.6 -23.95 -3.95 -24.0 5.8 -24.5 15.6 -23.6 21.1 -22.9 21.35 -22.85 22.15 -23.0 Q22.75 -23.0 23.75 -22.45 L26.15 -21.9 26.3 -22.4 26.35 -22.55 27.5 -27.75 27.75 -30.4 27.8 -31.35 27.8 -31.6 M29.3 -39.55 Q30.05 -37.3 30.05 -33.0 30.05 -19.0 26.7 -19.0 L26.1 -19.05 25.55 -19.0 Q24.75 -19.0 23.0 -20.05 L22.1 -20.65 21.5 -20.75 15.6 -21.5 9.85 -22.2 7.1 -22.45 7.25 -17.2 6.85 -17.3 6.75 -16.8 6.3 -13.85 6.0 -13.65 6.0 -13.15 Q7.0 1.55 7.0 8.75 L6.95 14.0 Q6.9 17.3 7.0 19.55 7.15 23.6 8.1 25.75 9.0 27.75 9.0 29.85 9.0 34.5 7.55 35.25 L2.5 35.5 Q-4.2 35.5 -5.5 33.55 -5.9 32.95 -5.75 32.15 L-5.5 31.3 Q-5.5 29.65 -4.65 27.05 -3.85 24.65 -4.0 22.0 L-4.0 12.75 -5.0 -12.3 -5.0 -17.7 -5.25 -17.35 Q-5.6 -18.25 -5.15 -21.75 L-11.4 -21.05 Q-16.0 -20.6 -21.95 -17.5 L-27.9 -14.5 -28.25 -14.55 -28.8 -14.0 Q-31.15 -14.0 -29.05 -16.65 L-26.15 -19.75 Q-21.45 -24.0 -18.95 -25.5 -10.9 -30.45 -3.95 -32.4 -4.45 -34.55 -3.05 -35.6 -1.9 -36.5 0.3 -36.5 2.5 -36.5 4.05 -35.8 L5.65 -34.75 11.8 -36.3 26.7 -41.0 26.75 -41.0 26.75 -41.2 Q26.85 -41.5 27.65 -41.5 28.65 -41.5 29.3 -39.55 M1.3 -34.5 L-0.9 -34.5 Q-1.35 -32.4 -0.95 -31.15 L-0.6 -31.05 -0.7 -31.0 -0.85 -30.95 Q-0.55 -30.2 0.15 -29.8 1.1 -29.3 2.4 -29.5 L4.85 -29.75 Q4.6 -32.1 3.45 -33.25 3.05 -33.65 1.3 -34.5 M3.3 -22.45 L2.7 -22.45 -2.1 -22.1 -2.45 -22.05 -2.45 -22.0 -2.1 -21.95 Q-1.45 -21.8 -1.45 -21.0 L-1.7 -19.4 -2.0 -19.35 -2.0 -19.15 -2.75 -10.95 -2.75 -10.75 -2.85 -9.6 -2.85 -9.3 -3.0 -7.35 -2.5 -3.1 -2.0 1.65 -2.0 2.1 -2.0 8.1 -2.0 15.05 -2.0 22.25 -2.05 23.1 -2.05 23.15 -2.75 27.1 -3.5 31.35 -3.35 32.75 -0.35 33.2 0.5 33.25 2.15 33.25 4.85 33.25 6.1 33.25 7.1 33.15 Q6.25 32.75 6.5 32.05 L7.0 31.3 7.0 30.0 Q7.0 29.1 6.0 25.35 5.0 21.6 5.0 20.5 L5.0 11.05 Q5.0 4.75 4.0 -7.25 L4.0 -9.95 4.0 -13.85 4.0 -19.6 4.25 -19.8 4.6 -19.95 4.6 -20.0 Q4.7 -20.8 5.05 -21.3 L5.05 -22.5 3.3 -22.45" fill="#000000" fill-rule="evenodd" stroke="none"/>
      <path d="M2.7 -22.45 L3.3 -22.45 3.15 -21.8 3.5 -21.5 Q3.1 -20.95 2.4 -18.85 L2.25 -18.1 1.75 -18.15 2.15 -18.1 1.15 -15.05 Q-0.05 -11.1 -2.85 -9.3 L-2.85 -9.6 -2.75 -10.75 -2.75 -10.95 -1.65 -12.25 Q0.25 -14.4 0.5 -16.6 0.6 -18.7 1.15 -20.35 1.6 -21.7 2.2 -21.95 L2.35 -22.4 2.7 -22.45 M4.0 -13.85 L4.0 -9.95 1.8 -4.45 -1.5 3.0 -2.0 8.1 -2.0 2.1 -2.0 1.65 -1.85 1.05 3.55 -13.85 4.0 -13.85 M6.1 33.25 L4.85 33.25 Q5.0 31.65 4.75 31.0 L3.8 28.1 3.0 25.3 Q2.75 24.55 2.5 21.0 2.2 17.4 2.15 13.0 2.1 8.55 2.3 5.8 2.45 3.0 4.05 -2.35 L4.4 -2.35 4.6 0.65 4.0 2.5 Q3.05 5.55 3.0 6.55 2.9 8.2 2.95 10.95 L3.0 14.25 Q3.0 16.0 3.35 19.95 3.7 24.1 4.0 25.0 L6.1 33.25 M0.5 33.25 L-0.35 33.2 -0.35 33.05 Q-0.45 29.75 -1.0 27.8 L-2.05 23.15 -2.05 23.1 -2.0 22.25 -2.0 15.05 -1.75 15.05 -0.4 24.25 Q0.4 29.75 0.5 33.25" fill="#372c22" fill-rule="evenodd" stroke="none"/>
      <path d="M23.55 -37.15 L23.45 -36.05 23.35 -35.5 25.05 -35.3 24.05 -34.1 23.1 -32.55 Q20.95 -32.1 19.55 -31.0 19.1 -29.9 20.9 -28.2 L24.05 -25.5 Q23.15 -25.5 22.0 -24.3 21.05 -23.25 21.05 -23.0 L21.1 -22.9 15.6 -23.6 5.8 -24.5 -3.95 -24.0 -4.6 -23.95 -14.3 -22.35 Q-18.65 -21.4 -21.7 -20.25 L-21.75 -20.5 Q-13.45 -26.9 -3.15 -30.25 L-2.45 -29.0 Q-1.95 -28.1 0.05 -27.75 L2.2 -27.5 4.7 -27.55 Q7.05 -28.1 7.05 -30.75 L6.75 -32.95 13.55 -34.55 20.6 -36.25 23.55 -37.15 M27.5 -27.75 L27.6 -28.8 26.85 -29.3 27.65 -29.45 27.75 -30.4 27.5 -27.75 M27.8 -31.35 L27.35 -31.5 27.8 -31.6 27.8 -31.35" fill="#60606c" fill-rule="evenodd" stroke="none"/>
      <path d="M23.55 -37.15 L24.8 -37.55 Q26.2 -38.05 27.0 -38.55 L27.35 -36.6 27.8 -32.9 27.8 -32.75 27.8 -32.15 27.8 -31.6 27.35 -31.5 27.8 -31.35 27.75 -30.4 27.65 -29.45 26.85 -29.3 27.6 -28.8 27.5 -27.75 26.35 -22.55 26.3 -22.4 26.15 -21.9 23.75 -22.45 Q22.75 -23.0 22.15 -23.0 L21.35 -22.85 21.1 -22.9 21.05 -23.0 Q21.05 -23.25 22.0 -24.3 23.15 -25.5 24.05 -25.5 L20.9 -28.2 Q19.1 -29.9 19.55 -31.0 20.95 -32.1 23.1 -32.55 L24.05 -34.1 25.05 -35.3 23.35 -35.5 23.45 -36.05 23.55 -37.15" fill="#414149" fill-rule="evenodd" stroke="none"/>
    </g>
    <g id="shape7" transform="matrix(1.0, 0.0, 0.0, 1.0, 12.05, 21.8)">
      <path d="M13.25 -13.55 Q13.25 -9.25 11.1 -3.95 L7.35 4.15 Q6.25 4.3 5.85 5.3 L5.2 5.1 8.15 9.4 Q12.4 15.8 12.4 17.3 12.4 18.05 10.25 19.8 6.9 22.5 0.3 24.6 L-0.45 24.9 -1.75 25.0 Q-4.4 25.0 -8.2 15.75 -11.65 7.4 -11.65 4.7 L-11.6 4.35 -12.05 4.1 -11.45 1.2 Q-10.3 -3.85 -9.15 -5.75 L-9.55 -6.1 -9.7 -5.95 -10.25 -5.7 Q-11.25 -6.9 -11.25 -7.35 -11.25 -9.65 -7.45 -13.65 -4.1 -17.2 -0.95 -18.95 7.85 -23.95 11.35 -20.15 13.25 -18.05 13.25 -13.55 M9.5 -19.15 Q4.55 -19.15 2.05 -17.9 0.45 -17.1 -4.0 -13.15 L-7.2 -9.55 -8.55 -7.55 -7.55 -6.95 -7.45 -6.95 -7.45 -6.9 -7.05 -6.55 Q-3.65 -3.2 -2.2 -2.45 2.85 0.95 5.8 3.25 L8.25 -3.3 Q11.25 -10.95 11.25 -13.45 10.5 -19.15 9.5 -19.15 M1.85 4.25 L2.25 3.65 -1.3 0.95 -7.55 -4.35 -9.25 1.35 -9.55 2.4 Q-9.15 3.7 -9.05 5.85 L-9.05 6.9 Q-9.05 8.55 -5.8 15.55 -2.45 22.8 -1.2 22.8 1.15 22.6 10.0 16.4 L2.45 5.15 1.85 4.25" fill="#000000" fill-rule="evenodd" stroke="none"/>
      <path d="M1.85 4.25 L2.45 5.15 10.0 16.4 Q1.15 22.6 -1.2 22.8 -2.45 22.8 -5.8 15.55 -9.05 8.55 -9.05 6.9 L-9.05 5.85 Q-9.15 3.7 -9.55 2.4 L-9.25 1.35 -7.55 -4.35 -1.3 0.95 2.25 3.65 1.85 4.25" fill="#aa8a71" fill-rule="evenodd" stroke="none"/>
      <path d="M9.5 -19.15 Q10.5 -19.15 11.25 -13.45 11.25 -10.95 8.25 -3.3 L5.8 3.25 Q2.85 0.95 -2.2 -2.45 -3.65 -3.2 -7.05 -6.55 L-7.45 -6.9 -7.45 -6.95 -7.55 -6.95 -8.55 -7.55 -7.2 -9.55 -4.0 -13.15 Q0.45 -17.1 2.05 -17.9 4.55 -19.15 9.5 -19.15" fill="#942403" fill-rule="evenodd" stroke="none"/>
    </g>
    <g id="sprite3" transform="matrix(1.0, 0.0, 0.0, 1.0, 29.05, 29.25)">
      <clipPath id="clipPath1">
        <path d="M 40 0 L 40 40 L 0 40 L 0 0 Z M 18.75 -7.8 L -0.55 -7.7 L -6.5 -7.4 L -6.75 -7.35 L -7 -7.3 L -7.04 -7.4 L -7.07 -7.48 L -7.11 -7.52 L -7.14 -7.54 L -7.18 -7.52 L -7.22 -7.47 L -7.26 -7.38 L -7.3 -7.25 L -7.35 -7.1 L -8 -1.85 L -8 42.5 L -7.95 42.8 L -7.85 48.6 L 47.35 48.6 L 47.4 42.8 L 47.4 42.5 L 47.5 18.6 L 47.4 -0.7 L 47.36 -2.3 L 47.31 -3.69 L 47.25 -4.87 L 47.19 -5.83 L 47.12 -6.57 L 47.04 -7.11 L 47 -7.3 L 46.96 -7.43 L 46.92 -7.51 L 46.89 -7.53 L 46.87 -7.54 L 46.83 -7.51 L 46.79 -7.45 L 46.74 -7.35 L 46.7 -7.2 L 46.65 -7.3 L 46.5 -7.45 L 45 -7.55 L 44.9 -7.55 L 42.65 -7.7 L 18.75 -7.8 Z"/>
      </clipPath>
      <g clip-path="url(#clipPath1)">
        <use ffdec:characterId="937" height="49.05" transform="matrix(1.0, 0.0, 0.0, 1.0, -5.2, -5.05)" width="49.95" xlink:href="#shape8"/>
      </g>
    </g>
    <g id="shape8" transform="matrix(1.0, 0.0, 0.0, 1.0, 5.2, 5.05)">
      <path d="M18.85 -5.05 L40.4 -5.0 42.4 -4.85 42.5 -4.85 43.85 -4.75 44.0 -4.6 44.05 -4.55 Q44.5 -6.2 44.65 1.3 L44.75 18.7 44.65 40.2 44.5 42.2 Q44.4 43.75 44.05 43.75 L43.8 43.55 42.9 43.75 40.4 44.0 0.45 44.0 -3.55 43.55 -3.6 43.55 -4.6 43.75 -4.95 42.7 -5.2 40.2 -5.2 0.3 -4.6 -4.45 -4.55 -4.55 Q-4.45 -5.05 -4.3 -4.6 L-4.05 -4.65 -3.85 -4.7 1.5 -5.0 18.85 -5.05 M36.4 1.65 L36.8 1.25 41.65 -3.2 42.1 -3.6 41.7 -3.65 41.6 -3.85 40.4 -3.7 0.45 -3.7 -3.0 -4.1 2.5 0.85 3.3 1.65 1.8 1.65 1.8 2.6 1.8 1.65 3.3 1.65 3.6 1.95 2.0 1.95 2.0 2.8 1.8 2.6 0.3 1.1 -3.9 -4.2 -4.2 -4.3 -3.95 1.3 -3.85 18.7 -3.95 40.2 -4.05 42.2 -4.05 42.5 -4.0 42.3 -3.6 41.8 -1.65 39.65 1.8 36.1 1.8 37.95 2.0 37.95 1.8 37.95 1.8 36.1 2.0 35.9 2.0 37.95 2.6 37.95 -0.4 40.9 -2.75 42.9 1.5 42.7 18.85 42.65 40.4 42.7 42.4 42.85 42.5 42.85 42.4 42.8 39.65 40.55 37.05 37.95 38.0 37.95 38.15 37.95 38.15 36.45 38.15 37.95 38.0 37.95 38.0 36.35 38.15 36.45 40.9 39.3 42.85 41.45 43.6 42.45 43.4 40.2 43.4 0.3 43.85 -3.65 43.8 -3.65 42.95 -3.5 42.8 -3.3 39.0 1.45 38.15 2.3 38.15 1.65 36.4 1.65 38.15 1.65 38.15 2.3 38.0 2.45 38.0 1.95 36.0 1.95 36.4 1.65" fill="#473a29" fill-rule="evenodd" stroke="none"/>
      <path d="M3.3 1.65 L2.5 0.85 -3.0 -4.1 0.45 -3.7 40.4 -3.7 41.6 -3.85 41.7 -3.65 42.1 -3.6 41.65 -3.2 36.8 1.25 36.4 1.65 3.3 1.65 36.4 1.65 36.0 1.95 3.6 1.95 3.3 1.65 M1.8 36.1 L-1.65 39.65 -3.6 41.8 -4.0 42.3 -4.05 42.2 -3.95 40.2 -3.85 18.7 -3.95 1.3 -4.2 -4.3 -3.9 -4.2 0.3 1.1 1.8 2.6 2.0 2.8 2.0 35.9 1.8 36.1 1.8 35.0 1.8 33.05 1.8 2.6 1.8 33.05 1.8 35.0 1.8 36.1" fill="#bfaf91" fill-rule="evenodd" stroke="none"/>
      <path d="M38.15 2.3 L39.0 1.45 42.8 -3.3 42.95 -3.5 43.8 -3.65 43.85 -3.65 43.4 0.3 43.4 40.2 43.6 42.45 42.85 41.45 40.9 39.3 38.15 36.45 38.15 2.3 38.15 36.45 38.0 36.35 38.0 2.45 38.15 2.3 M37.05 37.95 L39.65 40.55 42.4 42.8 42.4 42.85 40.4 42.7 18.85 42.65 1.5 42.7 -2.75 42.9 -0.4 40.9 2.6 37.95 26.5 37.95 Q27.1 37.75 27.6 37.95 L37.05 37.95" fill="#6c5b3e" fill-rule="evenodd" stroke="none"/>
      <path d="M3.3 1.65 L36.4 1.65 38.15 1.65 38.15 2.3 38.15 36.45 38.15 37.95 38.0 37.95 37.05 37.95 27.6 37.95 Q27.1 37.75 26.5 37.95 L2.6 37.95 2.0 37.95 1.8 37.95 1.8 36.1 1.8 35.0 1.8 33.05 1.8 2.6 1.8 1.65 3.3 1.65 Z" fill="none" stroke="#473a29" stroke-linecap="round" stroke-linejoin="round" stroke-opacity="0.49019608" stroke-width="1.0"/>
    </g>
    <g id="sprite4" transform="matrix(1.0, 0.0, 0.0, 1.0, 0.0, 48.5)">
      <use ffdec:characterId="949" height="340.0" transform="matrix(0.2505, 0.0, 0.0, 0.1427, 0.0114, -48.4851)" width="192.0" xlink:href="#shape9"/>
    </g>
    <g id="shape9" transform="matrix(1.0, 0.0, 0.0, 1.0, 2.15, 3.05)">
      <path d="M189.85 -3.05 L189.85 336.95 -2.15 336.95 -2.15 -3.05 189.85 -3.05" fill="#000000" fill-opacity="0.29803923" fill-rule="evenodd" stroke="none"/>
    </g>
    <g id="sprite5" transform="matrix(1.0, 0.0, 0.0, 1.0, 0.0, 48.5)">
      <use ffdec:characterId="949" height="340.0" transform="matrix(0.2505, 0.0, 0.0, 0.1427, 0.0114, -48.4851)" width="192.0" xlink:href="#shape10"/>
    </g>
    <g id="shape10" transform="matrix(1.0, 0.0, 0.0, 1.0, 2.15, 3.05)">
      <path d="M189.85 -3.05 L189.85 336.95 -2.15 336.95 -2.15 -3.05 189.85 -3.05" fill="#000000" fill-opacity="0.49803922" fill-rule="evenodd" stroke="none"/>
    </g>
    <g id="sprite6" transform="matrix(1.0, 0.0, 0.0, 1.0, 64.35, 49.9)">
      <use ffdec:characterId="58" height="400.0" transform="matrix(0.1796, 0.0, 0.0, 0.1248, -62.85, -49.9)" width="700.0" xlink:href="#shape11"/>
      <use ffdec:characterId="951" height="18.1" id="txt_name" transform="matrix(1.0, 0.0, 0.0, 1.0, -63.85, -49.05)" width="129.05" xlink:href="#text1"/>
      <use ffdec:characterId="952" height="35.25" id="txt_desc" transform="matrix(1.0, 0.0, 0.0, 1.0, -64.35, -35.05)" width="129.05" xlink:href="#text2"/>
    </g>
    <g id="shape11" transform="matrix(1.0, 0.0, 0.0, 1.0, 0.0, 0.0)">
      <path d="M700.0 400.0 L0.0 400.0 0.0 0.0 700.0 0.0 700.0 400.0" fill="#000000" fill-opacity="0.49803922" fill-rule="evenodd" stroke="none"/>
    </g>
    <g id="text1" transform="matrix(1.0, 0.0, 0.0, 1.0, -51.35, 2.0)">
      <g transform="matrix(1.0, 0.0, 0.0, 1.0, 51.35, -2.0)">
        <use fill="#ffffff" height="18.1" transform="matrix(0.0117, 0.0, 0.0, 0.0117, 45.95, 13.05)" width="129.05" xlink:href="#font_Lithos_Pro_Regular_N0"/>
        <use fill="#ffffff" height="18.1" transform="matrix(0.0117, 0.0, 0.0, 0.0117, 56.95, 13.05)" width="129.05" xlink:href="#font_Lithos_Pro_Regular_a0"/>
        <use fill="#ffffff" height="18.1" transform="matrix(0.0117, 0.0, 0.0, 0.0117, 65.45, 13.05)" width="129.05" xlink:href="#font_Lithos_Pro_Regular_m0"/>
        <use fill="#ffffff" height="18.1" transform="matrix(0.0117, 0.0, 0.0, 0.0117, 76.75, 13.05)" width="129.05" xlink:href="#font_Lithos_Pro_Regular_e0"/>
      </g>
    </g>
    <g id="font_Lithos_Pro_Regular_N0">
      <path d="M216.5 7.5 L120.0 0.0 Q121.5 -20.5 124.5 -75.5 127.0 -130.5 131.0 -207.0 135.0 -283.5 139.0 -368.0 143.0 -452.5 147.0 -531.5 151.0 -610.5 153.5 -670.5 156.5 -730.5 158.0 -758.0 L160.0 -758.0 Q168.0 -748.5 209.0 -705.5 249.5 -663.0 309.5 -600.0 370.0 -537.0 437.0 -467.5 503.5 -398.0 564.0 -335.0 624.5 -272.0 666.0 -229.5 707.5 -186.5 716.5 -177.0 716.5 -185.5 717.0 -225.0 717.5 -265.0 718.0 -323.5 719.0 -382.5 720.0 -447.5 720.5 -513.0 721.5 -572.0 722.5 -631.5 723.0 -672.0 723.5 -712.5 724.0 -722.0 L819.0 -716.5 Q818.0 -697.0 815.0 -641.0 812.5 -585.0 808.5 -504.5 805.0 -424.0 801.5 -332.0 798.0 -240.0 795.5 -148.5 792.5 -57.0 791.5 21.5 L789.5 21.5 Q781.5 13.5 739.5 -29.5 697.0 -72.5 635.0 -136.5 572.5 -200.5 504.0 -271.5 435.0 -342.5 373.5 -406.5 312.0 -470.0 271.5 -513.0 231.5 -555.5 225.5 -563.0 L223.5 -563.0 Q223.5 -553.0 223.0 -511.0 222.5 -468.5 221.5 -407.0 220.5 -345.0 219.5 -277.0 218.5 -209.0 217.5 -147.5 217.0 -86.0 216.5 -44.0 216.0 -2.0 216.5 7.5" fill-rule="evenodd" stroke="none"/>
    </g>
    <g id="font_Lithos_Pro_Regular_a0">
      <path d="M226.5 -255.0 L476.5 -265.0 Q473.0 -271.5 460.0 -295.0 447.5 -318.5 430.0 -350.5 412.5 -382.5 395.0 -414.0 378.0 -445.5 365.0 -468.0 352.5 -490.5 349.5 -495.5 345.0 -488.5 332.5 -464.0 319.5 -439.5 303.0 -406.0 286.0 -373.0 269.5 -340.0 253.0 -307.0 241.0 -283.5 229.5 -260.0 226.5 -255.0 M93.5 18.5 L14.5 -26.5 Q27.5 -49.5 55.0 -100.0 83.0 -150.5 119.0 -216.5 155.0 -283.0 193.5 -353.0 231.5 -423.5 265.0 -485.0 299.0 -547.0 322.0 -589.0 345.0 -630.5 350.5 -640.0 L352.5 -640.0 Q376.5 -601.5 414.5 -538.0 452.0 -474.0 496.0 -399.0 540.0 -323.5 582.5 -250.0 625.5 -176.5 660.0 -119.0 694.0 -61.0 713.0 -32.5 L630.0 17.5 Q623.0 4.0 605.5 -28.5 587.5 -61.0 566.5 -99.0 545.5 -137.0 529.0 -166.5 512.0 -196.0 508.0 -202.5 L191.5 -190.5 Q186.5 -179.0 173.0 -150.5 159.5 -121.5 143.5 -86.5 127.0 -52.0 113.0 -23.0 99.0 6.5 93.5 18.5" fill-rule="evenodd" stroke="none"/>
    </g>
    <g id="font_Lithos_Pro_Regular_m0">
      <path d="M115.0 22.5 L31.0 -4.0 Q35.5 -14.5 51.5 -61.5 68.0 -108.0 91.0 -176.5 114.5 -245.0 140.0 -320.0 165.0 -395.0 187.5 -462.0 210.0 -529.0 224.5 -573.0 239.0 -617.5 241.0 -624.0 L245.0 -624.0 Q254.0 -606.5 276.0 -563.5 298.5 -521.0 327.5 -465.5 356.5 -410.5 385.5 -355.5 414.5 -300.5 437.0 -259.0 459.5 -217.0 468.0 -201.0 477.5 -216.5 502.5 -258.5 527.5 -300.0 560.0 -354.0 592.0 -408.0 623.5 -460.5 655.0 -513.0 677.5 -550.5 700.0 -588.0 705.5 -597.5 L708.5 -597.5 Q716.0 -579.0 732.5 -535.5 749.0 -492.5 771.5 -434.0 793.5 -375.5 818.0 -311.5 842.5 -247.5 865.5 -187.0 889.0 -127.0 907.0 -80.0 925.0 -33.0 935.0 -9.5 L850.0 22.5 Q843.0 1.5 826.0 -47.0 809.5 -95.5 787.5 -156.5 766.0 -218.0 745.0 -277.0 724.0 -336.5 708.5 -379.5 693.5 -422.0 689.5 -433.5 680.0 -418.0 657.5 -381.5 635.5 -345.5 606.5 -298.0 577.5 -250.5 548.0 -202.0 518.5 -153.5 494.5 -114.5 470.5 -75.5 458.0 -55.5 L456.0 -55.5 Q436.0 -93.0 408.0 -144.5 380.5 -196.5 351.0 -252.5 321.5 -308.0 295.5 -356.5 270.0 -405.0 254.0 -435.5 250.0 -421.0 239.0 -385.0 228.0 -349.0 213.0 -300.0 198.0 -251.5 182.0 -199.0 166.0 -146.5 151.5 -99.0 137.0 -52.0 127.5 -19.5 117.5 13.5 115.0 22.5" fill-rule="evenodd" stroke="none"/>
    </g>
    <g id="font_Lithos_Pro_Regular_e0">
      <path d="M458.5 -68.5 L461.5 9.5 Q451.5 9.5 417.0 8.5 383.0 7.5 337.5 6.0 292.0 5.0 247.0 3.5 202.0 2.0 170.5 1.0 138.5 0.0 132.0 0.0 133.0 -18.5 133.5 -56.0 134.5 -93.5 134.5 -136.0 135.0 -178.0 135.0 -211.0 135.0 -244.0 135.0 -252.5 L135.0 -368.5 Q135.0 -373.5 135.0 -397.5 134.5 -421.5 134.0 -454.5 134.0 -488.0 133.5 -521.5 133.0 -555.0 132.5 -579.5 132.5 -603.5 132.0 -609.5 139.5 -609.5 168.5 -611.0 197.5 -612.0 238.0 -614.5 278.5 -616.5 320.0 -618.5 362.0 -621.0 395.0 -623.0 428.5 -625.0 443.0 -626.0 L447.0 -552.0 Q431.0 -552.0 397.5 -551.5 364.0 -551.0 326.5 -550.0 288.5 -549.0 259.5 -548.5 231.0 -548.0 224.0 -548.0 L224.0 -334.5 Q231.0 -334.5 253.5 -335.0 276.0 -336.0 305.5 -337.0 335.5 -338.5 365.0 -340.0 394.5 -342.0 416.5 -343.5 L419.5 -269.0 Q407.0 -269.0 378.5 -269.5 350.5 -270.0 317.0 -271.0 284.5 -271.0 258.5 -271.5 232.5 -272.0 224.0 -272.0 L224.0 -65.5 Q233.0 -65.5 258.0 -65.0 283.0 -65.0 317.0 -65.0 351.5 -65.0 388.5 -66.0 425.5 -66.5 458.5 -68.5" fill-rule="evenodd" stroke="none"/>
    </g>
    <g id="text2" transform="matrix(1.0, 0.0, 0.0, 1.0, -51.35, 2.0)">
      <g transform="matrix(1.0, 0.0, 0.0, 1.0, 51.35, -2.0)">
        <use fill="#ffffff" height="35.25" transform="matrix(0.0098, 0.0, 0.0, 0.0098, 49.05, 7.2)" width="129.05" xlink:href="#font_Lithos_Pro_Regular_N0"/>
        <use fill="#ffffff" height="35.25" transform="matrix(0.0098, 0.0, 0.0, 0.0098, 58.2, 7.2)" width="129.05" xlink:href="#font_Lithos_Pro_Regular_a0"/>
        <use fill="#ffffff" height="35.25" transform="matrix(0.0098, 0.0, 0.0, 0.0098, 65.3, 7.2)" width="129.05" xlink:href="#font_Lithos_Pro_Regular_m0"/>
        <use fill="#ffffff" height="35.25" transform="matrix(0.0098, 0.0, 0.0, 0.0098, 74.7, 7.2)" width="129.05" xlink:href="#font_Lithos_Pro_Regular_e0"/>
      </g>
      <g transform="matrix(1.0, 0.0, 0.0, 1.0, 51.35, -2.0)">
        <use fill="#ffffff" height="35.25" transform="matrix(0.0098, 0.0, 0.0, 0.0098, 46.0, 16.95)" width="129.05" xlink:href="#font_Lithos_Pro_Regular_k0"/>
        <use fill="#ffffff" height="35.25" transform="matrix(0.0098, 0.0, 0.0, 0.0098, 52.6, 16.95)" width="129.05" xlink:href="#font_Lithos_Pro_Regular_j0"/>
        <use fill="#ffffff" height="35.25" transform="matrix(0.0098, 0.0, 0.0, 0.0098, 56.25, 16.95)" width="129.05" xlink:href="#font_Lithos_Pro_Regular_h0"/>
        <use fill="#ffffff" height="35.25" transform="matrix(0.0098, 0.0, 0.0, 0.0098, 64.5, 16.95)" width="129.05" xlink:href="#font_Lithos_Pro_Regular_k0"/>
        <use fill="#ffffff" height="35.25" transform="matrix(0.0098, 0.0, 0.0, 0.0098, 71.1, 16.95)" width="129.05" xlink:href="#font_Lithos_Pro_Regular_j0"/>
        <use fill="#ffffff" height="35.25" transform="matrix(0.0098, 0.0, 0.0, 0.0098, 74.75, 16.95)" width="129.05" xlink:href="#font_Lithos_Pro_Regular_h0"/>
      </g>
      <g transform="matrix(1.0, 0.0, 0.0, 1.0, 51.35, -2.0)">
        <use fill="#ffffff" height="35.25" transform="matrix(0.0098, 0.0, 0.0, 0.0098, 46.0, 26.7)" width="129.05" xlink:href="#font_Lithos_Pro_Regular_k0"/>
        <use fill="#ffffff" height="35.25" transform="matrix(0.0098, 0.0, 0.0, 0.0098, 52.6, 26.7)" width="129.05" xlink:href="#font_Lithos_Pro_Regular_j0"/>
        <use fill="#ffffff" height="35.25" transform="matrix(0.0098, 0.0, 0.0, 0.0098, 56.25, 26.7)" width="129.05" xlink:href="#font_Lithos_Pro_Regular_h0"/>
        <use fill="#ffffff" height="35.25" transform="matrix(0.0098, 0.0, 0.0, 0.0098, 64.5, 26.7)" width="129.05" xlink:href="#font_Lithos_Pro_Regular_k0"/>
        <use fill="#ffffff" height="35.25" transform="matrix(0.0098, 0.0, 0.0, 0.0098, 71.1, 26.7)" width="129.05" xlink:href="#font_Lithos_Pro_Regular_j0"/>
        <use fill="#ffffff" height="35.25" transform="matrix(0.0098, 0.0, 0.0, 0.0098, 74.75, 26.7)" width="129.05" xlink:href="#font_Lithos_Pro_Regular_h0"/>
      </g>
    </g>
    <g id="font_Lithos_Pro_Regular_k0">
      <path d="M621.5 -61.5 L558.0 8.5 Q553.5 4.0 523.0 -26.5 493.0 -56.5 449.0 -100.5 405.0 -144.0 359.5 -189.5 314.0 -235.5 278.5 -271.0 243.0 -306.5 230.0 -320.5 235.5 -326.0 265.5 -353.5 295.5 -381.5 337.5 -421.0 379.5 -460.5 421.5 -500.5 464.0 -540.5 495.0 -569.5 526.0 -599.0 533.0 -606.5 L587.5 -540.0 Q572.5 -528.5 540.0 -501.0 507.0 -473.5 467.0 -440.0 427.0 -406.0 392.0 -375.5 356.5 -345.0 336.5 -327.0 346.0 -316.0 373.5 -289.5 401.5 -262.5 438.5 -228.0 476.0 -193.5 513.5 -159.0 551.0 -124.5 580.5 -98.0 609.5 -72.0 621.5 -61.5 M228.0 9.5 L130.0 9.5 Q130.5 -1.0 131.5 -30.0 132.5 -59.0 133.0 -99.0 134.0 -139.5 134.5 -182.5 135.0 -225.5 135.0 -263.0 L135.0 -355.5 Q135.0 -385.0 134.0 -426.0 133.5 -466.5 132.5 -508.0 131.5 -549.5 130.5 -580.0 130.0 -610.5 130.0 -619.0 L228.0 -619.0 Q227.5 -612.5 227.0 -583.5 226.0 -554.5 225.0 -514.5 224.5 -474.0 223.5 -433.5 223.0 -393.0 223.0 -363.5 L223.0 -270.5 Q223.0 -244.0 223.5 -200.5 224.0 -157.5 225.0 -111.5 225.5 -66.0 226.5 -32.0 227.5 1.5 228.0 9.5" fill-rule="evenodd" stroke="none"/>
    </g>
    <g id="font_Lithos_Pro_Regular_j0">
      <path d="M258.0 -400.5 L258.0 -264.5 Q257.0 -170.0 230.5 -104.5 204.0 -39.5 161.5 1.0 119.0 41.5 70.5 61.5 L25.5 -7.5 Q70.0 -25.5 102.0 -57.0 134.0 -88.5 151.5 -139.5 169.0 -190.5 169.0 -266.5 L169.0 -402.5 Q169.0 -409.0 168.5 -438.0 168.0 -467.0 167.5 -503.5 166.5 -540.5 166.0 -570.5 165.5 -600.5 165.0 -609.5 L263.0 -609.5 Q262.0 -601.0 261.0 -571.5 259.5 -542.0 259.0 -497.5 258.0 -453.5 258.0 -400.5" fill-rule="evenodd" stroke="none"/>
    </g>
    <g id="font_Lithos_Pro_Regular_h0">
      <path d="M228.0 0.0 L132.0 0.0 Q132.5 -12.0 133.0 -40.0 133.5 -67.5 134.0 -103.0 134.5 -138.0 134.5 -172.0 135.0 -206.5 135.0 -231.5 135.0 -256.5 135.0 -264.0 L135.0 -358.0 Q135.0 -363.0 134.5 -388.0 134.5 -412.5 134.0 -447.0 133.5 -481.5 132.5 -516.5 132.0 -551.5 131.0 -577.0 130.5 -602.5 130.0 -609.5 L229.0 -609.5 Q228.5 -604.0 228.0 -583.0 227.0 -562.5 226.5 -533.5 225.5 -504.5 225.0 -476.0 224.5 -447.0 224.5 -426.0 224.0 -405.0 224.0 -400.0 L224.0 -336.5 618.5 -352.5 618.5 -418.5 Q618.5 -425.0 618.0 -451.5 618.0 -478.5 617.5 -512.0 617.0 -546.0 616.5 -573.5 616.0 -601.0 615.5 -609.5 L714.5 -609.5 Q714.0 -602.5 713.0 -574.5 712.0 -547.0 711.0 -509.0 710.5 -471.0 709.5 -432.5 708.5 -394.5 708.0 -367.0 707.5 -339.0 707.5 -332.0 L707.5 -245.5 Q707.5 -241.5 707.5 -217.0 708.0 -193.0 708.5 -159.0 708.5 -124.5 709.0 -90.0 710.0 -56.0 710.5 -31.0 711.0 -6.0 711.5 0.0 L613.5 0.0 Q614.5 -12.0 615.5 -41.5 616.5 -71.0 617.0 -105.0 618.0 -139.5 618.0 -166.5 618.5 -193.5 618.5 -200.5 L618.5 -288.5 224.0 -272.0 224.0 -219.0 Q224.0 -203.5 224.5 -171.0 225.0 -139.0 225.5 -102.5 226.5 -66.0 227.0 -37.5 227.5 -8.5 228.0 0.0" fill-rule="evenodd" stroke="none"/>
    </g>
  </defs>
</svg>
