<?xml version="1.0" encoding="UTF-8" standalone="no"?>
<svg xmlns:ffdec="https://www.free-decompiler.com/flash" xmlns:xlink="http://www.w3.org/1999/xlink" ffdec:objectType="frame" height="135.65px" width="129.65px" xmlns="http://www.w3.org/2000/svg">
  <g transform="matrix(1.0, 0.0, 0.0, 1.0, 45.0, 57.4)">
    <use ffdec:characterId="933" height="47.45" id="bgcolor" transform="matrix(1.0, 0.0, 0.0, 1.0, -4.2, -3.9)" width="47.45" xlink:href="#sprite0"/>
    <use ffdec:characterId="921" height="22.0" id="hitbox" transform="matrix(2.2297, 0.0, 0.0, 2.1749, -4.55, -4.25)" width="22.0" xlink:href="#sprite1"/>
    <clipPath id="clipPath0">
      <path d="M 0 0 L 0 40 L 40 40 L 40 0 Z"/>
    </clipPath>
    <g clip-path="url(#clipPath0)">
      <filter id="filter0">
        <feColorMatrix in="SourceGraphic" result="filterResult0" type="matrix" values="0 0 0 0 0.3019608,0 0 0 0 0.69411767,0 0 0 0 0.99215686,0 0 0 1 0"/>
        <feConvolveMatrix divisor="2601.0" in="filterResult0" kernelMatrix="1 1 1 1 1 1 1 1 1 1 1 1 1 1 1 1 1 1 1 1 1 1 1 1 1 1 1 1 1 1 1 1 1 1 1 1 1 1 1 1 1 1 1 1 1 1 1 1 1 1 1 1 1 1 1 1 1 1 1 1 1 1 1 1 1 1 1 1 1 1 1 1 1 1 1 1 1 1 1 1 1 1 1 1 1 1 1 1 1 1 1 1 1 1 1 1 1 1 1 1 1 1 1 1 1 1 1 1 1 1 1 1 1 1 1 1 1 1 1 1 1 1 1 1 1 1 1 1 1 1 1 1 1 1 1 1 1 1 1 1 1 1 1 1 1 1 1 1 1 1 1 1 1 1 1 1 1 1 1 1 1 1 1 1 1 1 1 1 1 1 1 1 1 1 1 1 1 1 1 1 1 1 1 1 1 1 1 1 1 1 1 1 1 1 1 1 1 1 1 1 1 1 1 1 1 1 1 1 1 1 1 1 1 1 1 1 1 1 1 1 1 1 1 1 1 1 1 1 1 1 1 1 1 1 1 1 1 1 1 1 1 1 1 1 1 1 1 1 1 1 1 1 1 1 1 1 1 1 1 1 1 1 1 1 1 1 1 1 1 1 1 1 1 1 1 1 1 1 1 1 1 1 1 1 1 1 1 1 1 1 1 1 1 1 1 1 1 1 1 1 1 1 1 1 1 1 1 1 1 1 1 1 1 1 1 1 1 1 1 1 1 1 1 1 1 1 1 1 1 1 1 1 1 1 1 1 1 1 1 1 1 1 1 1 1 1 1 1 1 1 1 1 1 1 1 1 1 1 1 1 1 1 1 1 1 1 1 1 1 1 1 1 1 1 1 1 1 1 1 1 1 1 1 1 1 1 1 1 1 1 1 1 1 1 1 1 1 1 1 1 1 1 1 1 1 1 1 1 1 1 1 1 1 1 1 1 1 1 1 1 1 1 1 1 1 1 1 1 1 1 1 1 1 1 1 1 1 1 1 1 1 1 1 1 1 1 1 1 1 1 1 1 1 1 1 1 1 1 1 1 1 1 1 1 1 1 1 1 1 1 1 1 1 1 1 1 1 1 1 1 1 1 1 1 1 1 1 1 1 1 1 1 1 1 1 1 1 1 1 1 1 1 1 1 1 1 1 1 1 1 1 1 1 1 1 1 1 1 1 1 1 1 1 1 1 1 1 1 1 1 1 1 1 1 1 1 1 1 1 1 1 1 1 1 1 1 1 1 1 1 1 1 1 1 1 1 1 1 1 1 1 1 1 1 1 1 1 1 1 1 1 1 1 1 1 1 1 1 1 1 1 1 1 1 1 1 1 1 1 1 1 1 1 1 1 1 1 1 1 1 1 1 1 1 1 1 1 1 1 1 1 1 1 1 1 1 1 1 1 1 1 1 1 1 1 1 1 1 1 1 1 1 1 1 1 1 1 1 1 1 1 1 1 1 1 1 1 1 1 1 1 1 1 1 1 1 1 1 1 1 1 1 1 1 1 1 1 1 1 1 1 1 1 1 1 1 1 1 1 1 1 1 1 1 1 1 1 1 1 1 1 1 1 1 1 1 1 1 1 1 1 1 1 1 1 1 1 1 1 1 1 1 1 1 1 1 1 1 1 1 1 1 1 1 1 1 1 1 1 1 1 1 1 1 1 1 1 1 1 1 1 1 1 1 1 1 1 1 1 1 1 1 1 1 1 1 1 1 1 1 1 1 1 1 1 1 1 1 1 1 1 1 1 1 1 1 1 1 1 1 1 1 1 1 1 1 1 1 1 1 1 1 1 1 1 1 1 1 1 1 1 1 1 1 1 1 1 1 1 1 1 1 1 1 1 1 1 1 1 1 1 1 1 1 1 1 1 1 1 1 1 1 1 1 1 1 1 1 1 1 1 1 1 1 1 1 1 1 1 1 1 1 1 1 1 1 1 1 1 1 1 1 1 1 1 1 1 1 1 1 1 1 1 1 1 1 1 1 1 1 1 1 1 1 1 1 1 1 1 1 1 1 1 1 1 1 1 1 1 1 1 1 1 1 1 1 1 1 1 1 1 1 1 1 1 1 1 1 1 1 1 1 1 1 1 1 1 1 1 1 1 1 1 1 1 1 1 1 1 1 1 1 1 1 1 1 1 1 1 1 1 1 1 1 1 1 1 1 1 1 1 1 1 1 1 1 1 1 1 1 1 1 1 1 1 1 1 1 1 1 1 1 1 1 1 1 1 1 1 1 1 1 1 1 1 1 1 1 1 1 1 1 1 1 1 1 1 1 1 1 1 1 1 1 1 1 1 1 1 1 1 1 1 1 1 1 1 1 1 1 1 1 1 1 1 1 1 1 1 1 1 1 1 1 1 1 1 1 1 1 1 1 1 1 1 1 1 1 1 1 1 1 1 1 1 1 1 1 1 1 1 1 1 1 1 1 1 1 1 1 1 1 1 1 1 1 1 1 1 1 1 1 1 1 1 1 1 1 1 1 1 1 1 1 1 1 1 1 1 1 1 1 1 1 1 1 1 1 1 1 1 1 1 1 1 1 1 1 1 1 1 1 1 1 1 1 1 1 1 1 1 1 1 1 1 1 1 1 1 1 1 1 1 1 1 1 1 1 1 1 1 1 1 1 1 1 1 1 1 1 1 1 1 1 1 1 1 1 1 1 1 1 1 1 1 1 1 1 1 1 1 1 1 1 1 1 1 1 1 1 1 1 1 1 1 1 1 1 1 1 1 1 1 1 1 1 1 1 1 1 1 1 1 1 1 1 1 1 1 1 1 1 1 1 1 1 1 1 1 1 1 1 1 1 1 1 1 1 1 1 1 1 1 1 1 1 1 1 1 1 1 1 1 1 1 1 1 1 1 1 1 1 1 1 1 1 1 1 1 1 1 1 1 1 1 1 1 1 1 1 1 1 1 1 1 1 1 1 1 1 1 1 1 1 1 1 1 1 1 1 1 1 1 1 1 1 1 1 1 1 1 1 1 1 1 1 1 1 1 1 1 1 1 1 1 1 1 1 1 1 1 1 1 1 1 1 1 1 1 1 1 1 1 1 1 1 1 1 1 1 1 1 1 1 1 1 1 1 1 1 1 1 1 1 1 1 1 1 1 1 1 1 1 1 1 1 1 1 1 1 1 1 1 1 1 1 1 1 1 1 1 1 1 1 1 1 1 1 1 1 1 1 1 1 1 1 1 1 1 1 1 1 1 1 1 1 1 1 1 1 1 1 1 1 1 1 1 1 1 1 1 1 1 1 1 1 1 1 1 1 1 1 1 1 1 1 1 1 1 1 1 1 1 1 1 1 1 1 1 1 1 1 1 1 1 1 1 1 1 1 1 1 1 1 1 1 1 1 1 1 1 1 1 1 1 1 1 1 1 1 1 1 1 1 1 1 1 1 1 1 1 1 1 1 1 1 1 1 1 1 1 1 1 1 1 1 1 1 1 1 1 1 1 1 1 1 1 1 1 1 1 1 1 1 1 1 1 1 1 1 1 1 1 1 1 1 1 1 1 1 1 1 1 1 1 1 1 1 1 1 1 1 1 1 1 1 1 1 1 1 1 1 1 1 1 1 1 1 1 1 1 1 1 1 1 1 1 1 1 1 1 1 1 1 1 1 1 1 1 1 1 1 1 1 1 1 1 1 1 1 1 1 1 1 1 1 1 1 1 1 1 1 1 1 1 1 1 1 1 1 1 1 1 1 1 1 1 1 1 1 1 1 1 1 1 1 1 1 1 1 1 1 1 1 1 1 1 1 1 1 1 1 1 1 1 1 1 1 1 1 1 1 1 1 1 1 1 1 1 1 1 1 1 1 1 1 1 1 1 1 1 1 1 1 1 1 1 1 1 1 1 1 1 1 1 1 1 1 1 1 1 1 1 1 1 1 1 1 1 1 1 1 1 1 1 1 1 1 1 1 1 1 1 1 1 1 1 1 1 1 1 1 1 1 1 1 1 1 1 1 1 1 1 1 1 1 1 1 1 1 1 1 1 1 1 1 1 1 1 1 1 1 1 1 1 1 1 1 1 1 1 1 1 1 1 1 1 1 1 1 1 1 1 1 1 1 1 1 1 1 1 1 1 1 1 1 1 1 1 1 1 1 1 1 1 1 1 1 1 1 1 1 1 1 1 1 1 1 1 1 1 1 1 1 1 1 1 1 1 1 1 1 1 1 1 1 1 1 1 1 1 1 1 1 1 1 1 1 1 1 1 1 1 1 1 1 1 1 1 1 1 1 1 1 1 1 1 1 1 1 1 1 1 1 1 1 1 1 1 1 1 1 1 1 1 1 1 1 1 1 1 1 1 1 1 1 1 1 1 1 1 1 1 1 1 1 1 1 1 1 1 1 1 1 1 1 1 1 1 1 1 1 1 1 1 1 1 1 1 1 1 1 1 1 1 1 1 1 1 1 1 1 1 1 1 1 1 1 1 1 1 1 1 1 1 1 1 1 1 1 1 1 1 1 1 1 1 1 1 1 1 1 1 1 1 1 1 1 1 1 1 1 1 1 1 1 1 1 1 1 1 1 1 1 1 1 1 1 1 1 1 1 1 1 1 1 1 1 1 1 1 1 1 1 1 1 1 1 1 1 1 1 1 1 1 1 1 1 1 1 1 1 1 1 1 1 1 1 1 1 1 1 1 1 1 1 1 1 1 1 1 1 1 1 1 1 1 1 1 1 1 1 1 1 1 1 1 1 1 1 1 1 1 1 1 1 1 1 1 1 1 1 1 1 1 1 1 1 1 1 1 1 1 1 1 1 1 1 1 1 1 1 1 1 1 1 1 1 1 1 1 1 1 1 1 1 1 1 1 1 1 1 1 1 1 1 1 1 1 1 1 1 1 1 1 1 1 1 1 1 1 1 1 1 1 1 1 1 1 1 1 1 1 1 1 1 1 1 1 1 1 1 1 1 1 1 1 1 1 1 1 1 1 1 1 1 1 1 1 1 1 1 1 1 1 1 1 1 1 1 1 1 1 1 1 1 1 1 1 1 1 1 1 1 1 1 1 1 1 1 1 1 1 1 1 1 1 1 1 1 1 1 1 1 1 1 1 1 1 1 1 1 1 1 1 1 1 1 1 1 1 1 1 1 1 1 1 1 1 1 1 1 1 1 1 1 1 1 1 1 1 1 1 1 1 1 1 1 1 1 1 1 1 1 1 1 1 1 1 1 1 1 1 1 1 1 1 1 1 1 1 1 1 1 1 1 1 1 1 1 1 1 1 1 1 1 1 1 1 1 1 1 1 1 1 1 1 1 1 1 1 1 1 1 1 1 1 1 1 1 1 1 1 1 1 1 1 1 1 1 1 1 1 1 1 1 1 1 1 1 1 1 1 1 1 1 1 1 1 1 1 1 1 1 1 1 1 1 1 1 1 1 1 1 1 1 1 1 1 1 1 1 1 1 1 1 1 1 1 1 1 1 1 1 1 1 1 1 1 1 1 1 1 1 1 1 1 1 1 1 1 1 1 1 1 1 1 1 1 1 1 1 1 1 1 1 1 1 1 1 1 1 1 1 1 1 1 1 1 1 1 1 1 1 1 1 1 1 1 1 1 1 1 1 1 1 1 1 1 1 1 1 1 1 1 1 1 1 1 1 1 1 1 1 1 1 1 1 1 1 1 1 1 1 1 1 1 1 1 1 1 1 1 1 1 1 1 1 1 1 1 1 1 1 1 1 1 1 1 1 1 1 1 1 1 1 1 1 1 1 1 1 1 1 1 1 1 1 1 1 1 1 1 1 1 1 1 1 1 1 1 1 1 1 1 1 1 1 1 1 1 1 1 1 1 1 1 1 1 1 1 1 1 1 1 1 1 1 1 1 1 1 1 1 1 1 1 1 1 1 1" order="51 51" result="filterResult1"/>
        <feComposite in="SourceGraphic" in2="filterResult1" operator="over" result="filterResult2"/>
      </filter>
      <use ffdec:characterId="956" filter="url(#filter0)" height="26.0" transform="matrix(0.863, 0.0, 0.0, 1.0, -24.7, 8.5)" width="105.45" xlink:href="#sprite2"/>
    </g>
    <filter id="filter1">
      <feColorMatrix in="SourceGraphic" result="filterResult3" type="matrix" values="0 0 0 0 0.0,0 0 0 0 0.0,0 0 0 0 0.0,0 0 0 1 0"/>
      <feConvolveMatrix divisor="4.0" in="filterResult3" kernelMatrix="1 1 1 1" order="2 2" result="filterResult4"/>
      <feComposite in="SourceGraphic" in2="filterResult4" operator="over" result="filterResult5"/>
    </filter>
    <use ffdec:characterId="935" filter="url(#filter1)" height="15.75" id="txt_hotkey" transform="matrix(1.0, 0.0, 0.0, 1.0, -3.85, -0.1)" width="18.0" xlink:href="#text0"/>
    <use ffdec:characterId="948" ffdec:characterName="Army_fla.Hud_BgButton_151" height="97.6" id="bg" transform="matrix(1.0, 0.0, 0.0, 1.0, -29.05, -29.25)" width="97.6" xlink:href="#sprite3"/>
    <use ffdec:characterId="950" ffdec:characterName="Army_fla.Hud_cooldown_152" height="48.5" id="cdcover" transform="matrix(0.9979, 0.0, 0.0, 0.9897, -4.2, -3.9997)" width="48.1" xlink:href="#sprite4"/>
    <use ffdec:characterId="950" ffdec:characterName="Army_fla.Hud_cooldown_152" height="48.5" id="cd" transform="matrix(0.9979, 0.0, 0.0, 0.9897, -4.2, -3.9997)" width="48.1" xlink:href="#sprite5"/>
    <use ffdec:characterId="953" ffdec:characterName="Army_fla.Hud_Description_153" height="50.1" id="desc" transform="matrix(1.0, 0.0, 0.0, 1.0, -44.9, -57.4)" width="129.55" xlink:href="#sprite6"/>
  </g>
  <defs>
    <g id="sprite0" transform="matrix(1.0, 0.0, 0.0, 1.0, 0.0, 0.0)">
      <use ffdec:characterId="932" height="47.45" transform="matrix(1.0, 0.0, 0.0, 1.0, 0.0, 0.0)" width="47.45" xlink:href="#shape0"/>
    </g>
    <g id="shape0" transform="matrix(1.0, 0.0, 0.0, 1.0, 0.0, 0.0)">
      <path d="M47.45 0.0 L47.45 47.45 0.0 47.45 0.0 0.0 47.45 0.0" fill="#564732" fill-rule="evenodd" stroke="none"/>
    </g>
    <g id="sprite1" transform="matrix(1.0, 0.0, 0.0, 1.0, 0.0, 0.0)">
      <use ffdec:characterId="145" height="22.0" transform="matrix(1.0, 0.0, 0.0, 1.0, 0.0, 0.0)" width="22.0" xlink:href="#shape1"/>
    </g>
    <g id="shape1" transform="matrix(1.0, 0.0, 0.0, 1.0, 0.0, 0.0)">
      <path d="M22.0 0.0 L22.0 22.0 0.0 22.0 0.0 0.0 22.0 0.0" fill="#00ff00" fill-opacity="0.0" fill-rule="evenodd" stroke="none"/>
    </g>
    <g id="sprite2" transform="matrix(1.0, 0.0, 0.0, 1.0, 0.0, 0.0)">
      <use ffdec:characterId="955" height="26.0" transform="matrix(1.0, 0.0, 0.0, 1.0, 0.0, 0.0)" width="105.45" xlink:href="#shape2"/>
    </g>
    <g id="shape2" transform="matrix(1.0, 0.0, 0.0, 1.0, 0.0, 0.0)">
      <path d="M104.6 7.6 L104.55 7.6 104.5 7.65 104.0 7.95 103.2 8.45 102.85 8.7 102.65 8.85 102.15 9.55 102.05 9.7 101.9 10.2 101.9 10.45 101.9 10.6 101.95 10.95 102.25 11.3 102.35 11.45 102.65 11.7 102.85 11.85 102.75 11.9 102.7 11.9 102.65 11.95 102.55 11.95 102.4 12.05 102.3 12.2 101.65 12.6 101.2 12.95 100.95 13.1 100.65 13.4 100.65 13.3 100.5 13.0 100.4 12.7 100.3 12.35 100.3 12.3 100.2 11.9 100.1 11.4 100.0 10.95 99.95 10.65 99.9 10.25 99.6 8.75 99.55 8.5 98.85 6.5 98.75 6.3 98.6 5.9 99.0 5.95 99.85 6.0 100.25 6.05 100.85 6.1 101.85 6.2 102.6 6.3 103.1 6.55 103.4 6.7 103.65 6.85 103.8 6.9 104.2 7.1 104.6 7.6" fill="url(#gradient0)" fill-rule="evenodd" stroke="none"/>
      <path d="M102.85 11.85 L102.65 11.7 102.35 11.45 102.25 11.3 101.95 10.95 101.9 10.6 101.9 10.45 101.9 10.2 102.05 9.7 102.15 9.55 102.65 8.85 102.85 8.7 103.2 8.45 104.0 7.95 104.5 7.65 104.55 7.6 104.6 7.6 104.7 7.85 104.7 7.95 104.7 8.1 104.7 8.35 104.55 8.6 104.55 8.65 104.4 8.7 104.45 8.7 104.55 8.7 104.5 8.75 104.45 8.95 104.45 9.05 104.4 9.1 104.4 9.2 104.4 9.3 104.4 9.45 104.45 9.6 104.35 9.65 104.15 9.75 104.0 9.8 103.85 9.85 103.8 9.85 103.75 9.9 103.6 9.95 103.5 10.0 103.4 10.05 103.3 10.1 103.15 10.2 103.1 10.2 103.1 10.25 103.1 10.4 103.1 10.5 103.35 10.9 103.5 11.1 103.6 11.15 103.8 11.3 104.15 11.35 104.2 11.55 104.2 11.7 104.2 11.75 104.15 11.95 104.1 12.0 104.1 11.95 104.1 11.85 103.9 11.8 103.65 11.85 103.35 11.8 103.15 11.8 102.9 11.85 102.85 11.85 102.95 11.95 102.9 12.0 102.75 11.9 102.85 11.85 M98.6 5.9 L98.75 6.3 98.85 6.5 99.55 8.5 99.6 8.75 99.9 10.25 99.8 9.9 99.65 9.15 99.55 8.7 99.5 8.45 99.4 8.1 99.3 7.85 99.15 7.45 98.85 6.6 98.7 6.25 98.6 5.95 98.55 5.9 98.6 5.9 M100.3 12.35 L100.4 12.7 100.5 13.0 100.65 13.3 100.65 13.4 100.95 13.1 101.2 12.95 101.65 12.6 102.3 12.2 102.2 12.3 102.15 12.35 102.15 12.45 102.1 12.45 102.0 12.55 101.4 12.95 101.25 13.05 101.05 13.2 100.7 13.55 100.65 13.55 100.65 13.45 100.55 13.25 100.4 12.7 100.3 12.4 100.3 12.35 M96.8 21.05 L96.8 21.0 99.3 21.15 99.4 21.2 100.0 21.5 Q100.65 21.85 101.45 21.85 L101.5 22.05 101.5 22.4 101.4 22.95 101.35 22.95 101.35 23.1 101.15 23.35 100.15 23.9 99.75 23.95 99.6 23.95 97.65 24.0 97.45 24.05 96.55 24.05 96.65 24.0 96.8 24.0 97.05 23.95 97.2 23.95 97.3 23.95 97.45 23.95 97.45 23.9 97.4 23.9 97.35 23.85 97.15 23.9 96.95 23.85 96.65 23.85 96.5 23.85 96.25 23.9 96.1 23.9 96.0 23.9 95.9 23.9 95.75 23.9 95.5 23.95 95.2 23.95 95.15 24.0 95.05 24.0 94.85 23.95 94.7 23.95 94.7 23.85 94.6 23.85 94.5 23.85 94.3 23.85 94.2 23.8 94.05 23.8 93.95 23.8 93.9 23.8 93.8 23.8 93.7 23.8 93.55 23.85 93.35 23.85 93.15 23.9 93.05 23.95 93.0 23.9 92.9 23.85 92.8 23.85 92.65 23.9 92.45 23.95 92.35 23.95 92.25 23.95 92.2 23.95 92.05 23.95 91.9 24.0 91.7 24.05 91.45 24.1 91.3 24.15 91.25 24.15 91.4 24.2 91.45 24.25 91.3 24.25 91.05 24.25 91.0 24.25 91.0 24.15 91.0 24.05 90.95 24.05 90.9 24.0 90.8 24.0 90.75 23.95 90.7 24.0 90.65 23.95 90.55 24.0 90.5 24.05 90.45 24.05 90.4 24.1 90.3 24.1 90.45 24.15 90.5 24.15 90.55 24.2 90.35 24.2 90.25 24.2 86.9 24.3 86.0 24.3 85.55 24.35 83.25 24.65 83.15 24.65 83.05 24.7 82.55 24.8 82.25 24.75 79.95 24.45 77.35 24.05 77.1 24.0 76.3 23.9 72.3 23.2 71.0 23.0 70.8 22.95 70.85 22.9 71.0 22.9 71.05 22.85 71.1 22.85 71.05 22.8 71.0 22.75 70.9 22.7 70.8 22.7 70.7 22.6 70.65 22.65 70.6 22.6 70.5 22.6 70.45 22.65 70.35 22.65 70.25 22.65 70.15 22.65 70.1 22.7 70.15 22.7 70.2 22.8 70.25 22.85 70.0 22.8 69.0 22.6 68.35 22.7 68.25 22.7 67.95 22.7 67.0 22.85 67.2 22.8 67.65 22.7 67.9 22.65 67.95 22.65 67.85 22.6 67.5 22.65 67.15 22.7 66.75 22.7 66.45 22.75 66.05 22.8 65.75 22.8 65.65 22.8 65.55 22.85 65.2 22.9 64.85 22.95 64.55 23.05 64.5 23.05 64.4 23.0 64.35 23.0 64.2 23.0 63.9 23.05 63.65 23.1 63.55 23.15 63.4 23.25 63.6 23.2 63.35 23.35 62.9 23.35 61.7 23.5 61.5 23.55 61.3 23.55 60.25 23.65 60.25 23.45 60.15 23.65 59.9 23.7 58.4 23.8 56.05 23.95 51.2 24.15 50.9 24.15 49.8 24.2 46.9 24.2 46.85 24.2 46.85 24.1 46.9 24.1 50.1 23.9 51.75 23.7 55.15 23.3 55.0 23.05 55.2 23.3 55.2 23.35 55.5 23.3 57.0 23.05 58.75 22.75 61.0 22.45 61.0 22.3 61.05 22.3 61.1 22.4 61.0 22.45 61.2 22.4 64.25 22.05 67.1 21.75 69.45 21.6 70.35 21.7 70.3 21.45 70.4 21.45 70.4 21.6 71.3 21.7 72.05 21.85 72.45 21.95 72.75 22.05 73.15 22.15 73.2 22.15 73.35 22.2 73.4 22.15 73.4 22.35 74.75 22.7 78.6 23.35 80.8 23.45 82.85 23.35 83.2 23.3 84.4 23.2 85.15 23.15 85.4 23.15 85.55 23.15 85.6 23.15 85.6 23.25 85.65 23.2 85.75 23.2 85.75 23.1 85.8 23.1 85.8 23.05 86.15 23.05 86.2 22.95 86.25 22.95 86.3 22.85 86.35 22.8 86.4 22.7 86.4 22.6 86.45 22.6 86.5 22.55 86.6 22.6 86.7 22.7 86.8 22.85 86.85 22.9 87.55 22.85 88.05 22.8 88.4 22.8 88.45 22.35 88.45 22.25 Q88.5 22.15 88.75 22.15 L89.05 22.45 89.1 22.65 89.15 22.7 89.15 22.8 89.45 22.8 89.45 22.7 89.5 22.65 89.55 22.65 89.55 22.7 89.45 22.85 89.65 22.8 89.75 22.8 90.35 22.7 90.45 22.7 91.3 22.55 91.35 22.55 91.6 22.5 91.95 22.45 92.0 22.35 92.1 22.35 92.15 22.45 92.25 22.45 92.45 22.35 92.4 22.0 92.35 21.75 92.35 21.55 92.3 21.35 92.0 19.7 91.8 18.75 91.65 18.15 91.4 16.85 91.3 16.45 91.2 15.85 91.15 15.7 91.1 15.35 90.95 14.8 90.85 14.45 90.65 13.55 89.6 9.5 89.55 9.3 Q88.65 5.6 88.4 3.6 L88.3 2.7 89.1 2.8 89.7 2.65 91.45 2.85 92.75 2.8 93.1 2.8 94.0 3.0 94.3 3.0 94.65 3.5 94.55 4.2 94.55 4.3 93.35 4.95 92.7 5.5 93.9 5.65 93.85 6.25 94.2 7.85 94.7 9.75 94.95 10.6 95.1 11.15 95.3 11.8 95.45 12.35 95.75 13.35 95.75 13.55 96.15 15.1 96.7 17.45 96.7 17.55 96.8 17.8 Q96.4 17.75 95.75 18.05 95.15 18.3 94.6 18.75 L94.5 18.85 94.0 19.4 93.9 19.55 93.9 19.7 Q93.9 20.1 94.55 20.7 L95.0 21.05 95.85 21.4 96.45 21.45 Q96.7 21.45 96.75 21.3 L96.75 21.25 96.8 21.05 M43.4 24.2 L43.25 24.2 42.5 24.2 42.05 24.2 41.25 24.25 40.05 24.2 39.15 24.2 38.7 24.2 38.45 24.2 38.0 24.25 36.4 24.1 36.3 24.1 35.8 24.1 35.45 24.1 35.2 24.1 35.0 24.1 34.95 24.1 34.85 24.05 34.9 24.05 34.95 24.0 34.95 23.9 34.9 23.9 34.85 23.85 34.8 23.8 34.7 23.8 34.55 23.8 34.5 23.85 34.45 23.85 34.4 23.95 34.55 24.0 34.6 24.0 34.65 24.05 34.55 24.05 34.4 24.05 33.4 24.05 32.45 23.95 32.3 23.95 31.9 23.95 31.65 24.0 31.6 24.0 31.25 24.05 31.0 24.05 30.55 24.1 29.55 24.2 29.05 24.25 28.75 24.3 28.65 24.3 29.2 23.85 30.35 23.45 31.8 23.05 33.15 22.85 34.25 22.75 34.6 22.75 35.15 22.75 35.55 22.75 35.9 22.8 36.7 22.85 37.3 22.95 37.35 22.95 37.4 22.95 37.8 23.05 38.65 23.25 39.05 23.4 39.9 23.65 40.95 23.8 42.0 23.95 42.25 23.95 42.8 24.0 43.45 24.05 43.45 24.1 43.45 24.2 43.4 24.2 M26.9 24.55 L26.25 24.6 25.3 24.7 24.8 24.8 24.8 24.7 24.75 24.75 24.65 24.75 24.65 24.8 24.55 24.8 24.45 24.85 24.4 24.85 24.4 24.8 24.3 24.3 23.95 23.15 23.65 22.05 23.5 21.55 22.9 19.55 22.35 17.6 21.6 15.15 21.15 13.45 20.5 11.3 20.1 10.0 20.0 9.6 19.85 9.1 19.6 8.2 19.1 6.65 18.5 4.95 18.4 4.6 17.7 2.4 17.6 2.1 17.6 2.05 17.65 2.15 17.65 2.2 17.7 2.1 17.7 1.85 17.7 1.75 17.7 1.7 17.85 1.75 20.05 1.9 20.05 1.85 20.2 1.85 20.5 1.85 20.9 1.8 21.15 1.75 21.15 1.85 21.15 1.9 21.15 1.95 21.15 2.1 22.15 6.45 22.35 7.3 23.7 13.25 23.85 14.0 24.6 16.85 25.2 18.7 25.25 18.8 26.05 20.85 26.35 21.6 26.65 22.6 26.9 24.35 26.9 24.55 M19.35 25.45 L19.1 25.5 17.8 25.65 17.6 25.7 17.35 25.7 16.7 25.75 15.75 25.8 14.6 25.85 13.35 25.9 12.7 25.95 11.95 26.0 11.9 26.0 11.55 25.9 11.3 25.85 11.2 25.8 10.75 25.7 10.65 25.6 10.7 25.6 10.75 25.55 10.7 25.45 10.7 25.25 10.65 25.2 10.55 25.2 10.5 25.25 10.5 25.3 10.4 25.3 10.35 25.35 10.3 25.35 10.3 25.4 10.15 25.35 8.3 25.15 8.05 25.1 7.2 25.05 7.15 25.05 7.05 24.95 6.95 24.9 Q6.75 24.75 6.6 24.7 L6.05 24.4 6.0 24.35 6.05 24.35 6.1 24.4 6.1 24.3 6.0 24.3 5.95 24.25 5.9 24.2 5.85 24.1 5.75 24.05 5.7 24.0 5.6 24.0 5.6 23.95 5.55 23.95 5.5 24.0 5.45 24.0 5.35 24.0 5.25 24.0 5.2 23.95 5.2 24.0 5.0 23.85 Q4.55 23.6 4.15 23.5 L3.85 23.0 3.85 22.85 3.9 22.8 4.05 22.7 4.1 22.7 4.15 22.65 4.2 22.6 4.2 22.55 4.3 22.5 4.35 22.45 4.4 22.4 4.75 22.5 5.2 22.75 5.35 22.9 5.45 22.95 5.6 23.1 5.65 23.1 5.75 23.15 6.0 23.3 6.4 23.45 6.45 23.5 7.1 23.65 7.25 23.65 7.55 23.65 7.85 23.6 8.1 23.6 8.9 23.55 9.15 23.55 9.5 23.55 9.95 23.55 10.1 23.5 10.05 23.3 10.0 23.15 10.0 23.1 9.8 22.6 9.75 22.45 9.7 22.25 9.7 22.2 9.65 22.1 9.65 22.05 9.6 21.95 9.55 21.8 9.45 21.45 9.35 21.1 9.3 20.95 9.25 20.9 9.1 20.35 9.0 20.05 8.95 19.95 8.9 19.8 8.85 19.65 8.65 18.95 7.95 16.95 7.9 16.75 7.55 15.7 7.45 15.35 5.6 9.25 6.05 9.1 6.0 9.15 6.0 9.3 6.05 9.25 6.1 9.2 6.45 9.05 6.65 8.95 7.0 8.3 7.0 8.1 7.05 8.05 7.1 8.05 7.35 8.0 7.15 7.9 6.9 7.85 6.7 7.45 6.35 7.1 6.15 6.95 6.05 6.85 5.95 6.7 5.8 6.6 5.5 6.45 5.05 6.15 4.7 5.9 4.95 5.7 5.35 5.3 5.55 5.1 5.75 5.2 5.85 5.1 Q6.85 4.4 8.8 3.45 L9.9 7.6 12.15 14.8 14.25 22.05 14.95 24.0 15.35 25.15 15.4 25.15 14.9 23.8 14.25 21.85 14.05 20.95 13.4 18.7 13.05 17.65 12.8 16.8 12.7 16.35 12.15 14.6 11.3 11.85 10.65 9.8 9.95 7.4 9.75 6.65 9.1 4.1 8.9 3.25 10.35 2.6 10.95 2.4 12.15 2.0 12.8 1.85 12.8 1.9 13.35 3.5 13.95 5.4 14.2 6.25 14.35 6.8 14.55 7.45 14.7 7.95 15.0 9.0 15.5 10.75 16.0 12.3 16.3 13.45 16.35 13.55 16.6 14.45 16.95 15.65 16.95 15.7 17.2 16.5 17.25 16.7 17.3 16.9 17.35 17.1 17.45 17.5 17.6 18.0 17.95 19.2 18.4 20.8 18.45 20.9 18.55 21.4 18.6 21.5 18.65 21.6 18.75 21.9 18.95 22.8 19.3 24.4 19.55 25.3 19.5 25.3 19.45 25.25 19.3 25.25 19.3 25.3 19.25 25.3 19.2 25.35 19.1 25.4 19.35 25.4 19.35 25.45 M5.45 24.1 L5.2 24.0 5.25 24.0 5.4 24.05 5.45 24.1 M5.2 18.95 L4.75 18.95 4.4 19.0 4.1 19.05 3.35 19.1 3.2 19.05 3.15 19.05 2.9 18.95 2.8 18.95 2.55 18.85 2.4 18.85 2.3 18.75 2.25 18.7 1.9 18.3 1.8 18.2 1.6 18.0 1.4 17.85 1.15 17.7 1.05 17.6 0.85 17.5 0.75 17.4 0.55 17.2 0.35 17.0 0.35 16.95 0.15 16.7 0.05 16.3 0.05 16.25 0.05 15.85 0.05 15.6 0.05 15.3 0.1 15.15 0.25 14.55 0.35 14.2 0.45 14.1 0.65 14.0 0.95 13.85 1.15 13.7 1.75 13.4 2.25 13.2 2.3 13.2 2.4 13.15 2.6 13.05 2.7 12.95 2.75 12.8 2.75 12.85 2.75 12.95 2.7 13.05 2.8 13.25 2.85 13.45 2.95 13.9 3.2 14.7 3.55 15.65 3.55 15.7 3.65 16.1 3.8 16.6 3.9 16.95 3.9 17.05 4.2 18.35 4.6 18.6 5.05 18.85 5.2 18.95 M67.95 22.65 L68.05 22.6 68.0 22.6 67.95 22.65 M24.35 23.7 L24.25 23.65 24.2 23.6 24.15 23.6 24.3 23.85 24.3 24.0 24.35 24.0 24.35 24.05 24.4 24.05 24.4 24.15 24.45 24.1 24.5 24.1 24.5 24.05 24.55 24.0 24.55 23.9 24.5 23.85 24.45 23.8 24.4 23.8 24.4 23.75 24.35 23.7 M24.45 24.9 L24.55 24.85 24.5 24.9 24.45 24.9" fill="#caeae9" fill-opacity="0.99607843" fill-rule="evenodd" stroke="none"/>
      <path d="M102.85 11.85 L102.9 11.85 103.15 11.8 103.35 11.8 103.65 11.85 103.9 11.8 104.1 11.85 104.1 11.95 104.1 12.0 104.1 12.05 104.05 12.1 104.0 12.2 103.9 12.25 103.8 12.4 103.7 12.45 103.5 12.65 103.25 12.8 103.15 12.75 103.0 12.75 102.9 12.75 Q102.7 12.8 102.6 12.95 L102.55 12.95 102.45 13.05 102.4 13.1 102.35 13.2 102.3 13.3 102.25 13.55 102.2 13.65 102.25 13.8 102.2 13.8 102.1 13.85 102.05 13.8 102.0 13.85 101.9 13.85 101.85 13.8 101.8 13.8 101.75 13.65 101.7 13.35 101.7 13.25 101.95 12.7 102.1 12.45 102.15 12.45 102.15 12.35 102.2 12.3 102.3 12.2 102.4 12.05 102.55 11.95 102.65 11.95 102.7 11.9 102.75 11.9 102.9 12.0 102.95 11.95 102.85 11.85" fill="url(#gradient1)" fill-rule="evenodd" stroke="none"/>
      <path d="M102.1 12.45 L101.95 12.7 101.7 13.25 101.7 13.35 101.75 13.65 101.8 13.8 101.85 13.8 101.9 13.85 102.0 13.85 102.05 13.8 102.1 13.85 102.2 13.8 102.25 13.8 102.2 13.65 102.25 13.55 102.3 13.55 102.5 13.85 102.55 13.9 102.55 13.95 102.6 13.95 102.7 14.05 102.8 14.05 103.2 14.2 103.65 14.35 103.7 14.35 103.95 14.45 104.2 14.55 104.45 14.7 105.1 15.3 105.1 15.45 105.2 15.55 105.4 16.15 105.45 16.55 105.4 17.0 105.35 17.2 105.25 17.4 105.2 17.4 105.05 17.4 104.75 17.35 104.65 17.4 104.3 17.4 104.0 17.45 103.45 17.55 102.6 17.7 102.05 17.85 101.95 17.9 101.9 17.9 101.9 17.8 101.9 17.7 101.9 17.65 101.9 17.55 102.0 17.45 102.15 17.4 102.35 17.3 103.25 16.7 103.3 16.7 103.65 16.45 103.85 16.15 103.85 16.1 103.95 15.9 103.6 15.8 103.35 15.75 103.1 15.7 102.85 15.65 102.75 15.6 102.65 15.55 102.45 15.5 102.15 15.45 101.85 15.3 101.6 15.2 101.25 15.05 101.2 15.05 101.1 15.0 101.05 14.85 100.95 14.5 100.8 14.05 100.6 13.45 100.65 13.45 100.65 13.55 100.7 13.55 101.05 13.2 101.25 13.05 101.4 12.95 102.0 12.55 102.1 12.45 M101.15 15.05 L101.1 15.05 101.1 15.0 101.15 15.05" fill="url(#gradient2)" fill-rule="evenodd" stroke="none"/>
      <path d="M101.1 15.0 L101.2 15.05 101.25 15.05 101.6 15.2 101.85 15.3 102.15 15.45 102.45 15.5 102.65 15.55 102.75 15.6 102.85 15.65 103.1 15.7 103.35 15.75 103.6 15.8 103.95 15.9 103.85 16.1 103.85 16.15 103.65 16.45 103.3 16.7 103.25 16.7 102.35 17.3 102.15 17.4 102.0 17.45 101.9 17.55 101.8 17.15 101.75 17.05 101.7 16.9 101.65 16.75 101.55 16.4 101.45 16.1 101.4 15.95 101.35 15.9 101.35 15.8 101.3 15.7 101.25 15.6 101.2 15.3 101.15 15.05 101.1 15.0" fill="url(#gradient3)" fill-rule="evenodd" stroke="none"/>
      <path d="M99.9 10.25 L99.95 10.65 100.0 10.95 100.1 11.4 100.2 11.9 100.3 12.3 100.3 12.35 100.3 12.4 100.4 12.7 100.55 13.25 100.65 13.45 100.6 13.45 100.8 14.05 100.95 14.5 101.05 14.85 101.1 15.0 101.1 15.05 101.15 15.05 101.2 15.3 101.25 15.6 101.3 15.7 101.35 15.8 101.35 15.9 101.4 15.95 101.45 16.1 101.55 16.4 101.65 16.75 101.7 16.9 101.75 17.05 101.8 17.15 101.9 17.55 101.9 17.65 101.9 17.7 101.9 17.8 101.9 17.9 101.95 17.9 102.05 17.85 102.6 17.7 103.45 17.55 104.0 17.45 104.3 17.4 104.65 17.4 104.75 17.35 105.05 17.4 105.2 17.4 105.15 17.45 105.05 17.6 104.95 17.7 103.45 18.25 101.6 18.45 101.2 18.5 101.05 18.5 100.25 18.45 99.6 18.35 99.5 18.4 99.55 18.45 99.75 18.65 99.95 18.75 99.85 18.8 Q99.7 18.95 99.7 19.25 L99.75 19.4 99.75 19.55 99.2 19.55 98.55 19.6 97.8 19.7 97.75 19.7 96.45 19.8 95.4 19.85 Q94.95 19.9 94.95 20.25 L95.15 20.6 95.25 20.65 95.8 20.75 95.8 20.8 95.9 20.85 95.95 20.9 96.65 21.05 96.75 21.05 96.8 21.05 96.75 21.25 96.75 21.3 Q96.7 21.45 96.45 21.45 L95.85 21.4 95.0 21.05 94.55 20.7 Q93.9 20.1 93.9 19.7 L93.9 19.55 94.0 19.4 94.5 18.85 94.6 18.75 Q95.15 18.3 95.75 18.05 96.4 17.75 96.8 17.8 L96.7 17.55 96.7 17.45 96.15 15.1 95.75 13.55 95.75 13.35 95.45 12.35 95.3 11.8 95.1 11.15 94.95 10.6 94.7 9.75 94.2 7.85 93.85 6.25 93.9 5.65 93.95 5.65 95.1 5.65 95.6 5.6 96.4 5.5 97.1 5.45 97.8 5.65 98.55 5.8 98.6 5.9 98.55 5.9 98.6 5.95 98.7 6.25 98.85 6.6 99.15 7.45 99.3 7.85 99.4 8.1 99.5 8.45 99.55 8.7 99.65 9.15 99.8 9.9 99.9 10.25 M99.9 14.3 L99.75 14.3 99.7 14.35 99.65 14.35 99.6 14.45 99.65 14.5 99.65 14.55 99.75 14.55 99.75 14.5 99.8 14.55 99.85 14.55 99.9 14.5 99.95 14.45 100.0 14.45 100.0 14.3 99.95 14.35 99.9 14.3" fill="url(#gradient4)" fill-rule="evenodd" stroke="none"/>
      <path d="M86.25 2.45 L87.05 2.55 88.25 2.75 88.65 5.5 89.1 7.6 89.5 9.35 89.85 10.6 90.0 11.25 90.15 11.8 90.2 12.05 90.5 13.1 90.65 13.55 90.85 14.45 90.95 14.8 91.1 15.35 91.15 15.7 91.2 15.85 91.3 16.45 91.4 16.85 91.65 18.15 91.8 18.75 92.0 19.7 92.3 21.35 92.35 21.55 92.35 21.75 92.4 22.0 92.45 22.35 92.25 22.45 92.15 22.45 92.1 22.35 92.0 22.35 91.95 22.45 91.6 22.5 91.35 22.55 91.3 22.55 90.45 22.7 90.35 22.7 89.75 22.8 89.65 22.8 89.45 22.85 89.55 22.7 89.55 22.65 89.5 22.65 89.55 22.6 89.75 21.95 89.75 21.85 89.7 21.2 89.7 21.1 89.7 21.0 Q89.7 20.75 89.85 20.6 L89.7 20.2 89.3 18.8 89.05 17.7 88.85 17.0 88.25 14.45 88.2 14.3 88.05 13.55 88.05 13.5 87.95 13.3 87.8 12.55 87.65 11.8 87.65 11.7 87.2 9.8 86.95 8.35 86.8 7.55 86.75 7.1 86.65 6.55 86.6 6.1 86.45 5.35 86.25 3.75 86.2 2.45 86.25 2.45" fill="url(#gradient5)" fill-rule="evenodd" stroke="none"/>
      <path d="M28.75 24.3 L28.65 24.4 28.3 24.45 28.25 24.45 26.9 24.6 26.9 24.55 26.95 24.5 26.95 24.4 26.95 24.3 26.8 22.8 26.55 21.95 26.4 21.55 26.15 20.85 25.7 19.75 25.5 19.3 25.3 18.7 24.85 17.25 24.3 15.3 23.75 13.1 23.7 12.85 23.3 11.1 22.8 8.9 22.5 7.6 22.4 7.25 22.25 6.55 22.2 6.25 22.05 5.7 21.65 3.85 21.15 1.95 21.15 1.9 22.45 1.85 22.7 2.25 23.0 2.35 25.65 2.65 25.65 2.6 24.55 2.55 Q23.5 2.5 22.45 1.85 L21.15 1.85 21.15 1.75 20.9 1.8 20.5 1.85 20.2 1.85 20.05 1.85 18.45 1.8 17.7 1.7 17.7 1.65 17.65 1.65 17.65 1.6 17.45 1.6 17.3 0.95 17.35 0.95 19.45 0.7 22.45 0.5 25.1 0.35 31.45 0.25 Q33.1 0.25 33.5 0.6 L34.1 1.35 34.65 1.8 34.95 1.95 35.35 2.1 35.55 2.1 35.55 2.15 35.45 2.15 35.5 2.2 35.5 2.25 35.7 2.3 35.75 2.3 35.8 2.35 35.9 2.35 35.95 2.4 36.1 2.45 36.25 2.45 36.35 2.45 36.4 2.45 36.5 2.45 36.7 2.5 36.75 2.5 36.85 2.5 37.0 2.45 37.15 2.5 37.25 2.45 37.35 2.45 37.25 2.4 37.4 2.4 37.6 2.4 38.1 2.45 38.4 2.45 38.6 2.45 38.7 2.45 38.85 2.45 39.0 2.45 39.05 2.45 41.65 1.95 42.6 1.45 43.05 1.4 44.0 1.25 Q45.0 1.1 45.35 0.75 L45.4 0.75 45.65 0.7 46.7 0.55 46.95 0.25 48.25 0.1 51.05 0.05 53.9 0.05 55.35 0.05 55.5 0.05 55.5 0.6 56.0 1.0 56.3 1.25 56.35 1.3 57.25 1.4 57.6 1.45 57.65 1.4 57.7 1.45 57.6 1.45 57.5 1.45 57.4 1.5 57.3 1.5 57.25 1.5 57.35 1.55 57.45 1.6 57.55 1.6 57.55 1.65 57.65 1.65 57.8 1.65 57.85 1.6 57.85 1.65 57.95 1.65 58.0 1.65 58.05 1.6 58.15 1.6 58.15 1.5 58.05 1.5 58.0 1.55 57.95 1.55 57.9 1.6 57.85 1.6 57.95 1.45 58.15 1.45 58.7 1.45 58.75 1.45 58.85 1.45 58.9 1.45 59.0 1.45 59.1 1.45 62.4 1.15 62.7 1.05 63.35 0.55 Q63.65 0.35 64.45 0.1 L65.55 0.1 65.2 0.15 64.85 0.2 64.7 0.2 64.45 0.25 64.65 0.25 64.85 0.3 65.05 0.35 65.15 0.35 65.2 0.35 65.3 0.35 65.35 0.35 65.5 0.35 65.7 0.4 66.0 0.35 66.1 0.35 66.25 0.35 66.3 0.35 66.7 0.4 66.8 0.4 66.95 0.35 67.1 0.35 67.2 0.35 67.5 0.3 67.65 0.3 67.75 0.3 67.85 0.25 67.8 0.25 67.65 0.25 67.55 0.2 67.45 0.2 67.2 0.2 67.15 0.2 67.1 0.15 67.8 0.15 69.0 0.2 69.6 0.2 69.7 0.2 69.85 0.2 72.3 0.45 72.6 0.5 73.3 0.85 73.85 1.2 74.35 1.7 74.4 2.1 74.95 2.2 76.4 2.35 79.25 2.55 79.35 2.6 79.35 2.55 80.2 2.55 80.95 2.65 81.65 2.7 82.1 2.7 83.95 2.5 83.95 2.55 84.05 2.55 84.05 2.5 84.8 2.4 85.9 2.25 86.25 2.3 86.25 2.45 86.2 2.45 86.25 3.75 86.45 5.35 86.6 6.1 86.65 6.55 86.75 7.1 86.8 7.55 86.95 8.35 87.2 9.8 87.65 11.7 87.65 11.8 87.8 12.55 87.95 13.3 88.05 13.5 88.05 13.55 88.2 14.3 88.25 14.45 88.85 17.0 89.05 17.7 89.3 18.8 89.7 20.2 89.85 20.6 Q89.7 20.75 89.7 21.0 L89.7 21.1 89.7 21.2 89.75 21.95 89.55 22.6 89.5 22.65 89.45 22.7 89.15 22.7 89.1 22.65 89.05 22.45 88.75 22.15 Q88.5 22.15 88.45 22.25 L88.45 22.35 88.4 22.8 88.05 22.8 87.55 22.85 86.85 22.9 86.8 22.85 86.7 22.7 86.6 22.6 86.5 22.55 86.45 22.6 86.4 22.6 86.4 22.7 86.35 22.8 86.3 22.85 86.25 22.95 86.2 22.95 86.1 22.95 85.75 22.95 85.5 22.35 85.35 22.1 85.35 22.05 85.1 21.45 85.05 21.1 84.95 20.75 84.85 20.45 84.4 19.35 84.3 19.2 84.0 19.4 84.0 19.45 84.0 19.95 83.9 19.95 83.65 18.6 83.6 18.25 83.5 17.8 83.45 17.6 83.4 17.2 83.3 16.85 83.1 15.7 82.95 15.05 81.95 11.25 81.55 10.2 81.5 10.1 81.1 10.5 80.95 10.05 80.65 9.75 80.45 9.7 80.45 9.75 80.4 9.7 80.4 10.4 80.5 11.4 80.7 12.55 80.8 13.05 80.85 13.35 80.95 13.75 81.0 14.05 81.05 14.4 81.15 14.7 81.4 15.8 81.75 17.25 81.75 17.3 81.85 17.7 81.9 17.85 82.05 18.6 82.15 19.1 82.15 19.2 82.2 19.6 82.5 21.15 82.55 21.4 82.6 21.85 82.7 22.65 82.8 23.15 82.05 23.2 80.75 23.25 79.8 23.2 75.45 22.7 73.4 22.15 73.4 22.05 73.3 21.6 73.1 21.0 73.0 20.7 72.7 19.55 72.4 18.5 72.35 18.3 72.05 17.15 71.75 16.2 71.4 15.0 71.2 14.5 71.1 14.25 70.95 13.85 70.85 13.4 70.55 12.5 70.2 11.6 70.15 11.35 70.05 11.1 69.7 10.2 69.65 10.05 69.6 9.9 69.0 8.35 68.95 8.15 68.9 8.1 68.9 8.05 68.75 7.7 68.75 7.6 68.65 7.7 68.45 7.75 68.35 8.3 68.35 8.4 68.5 9.35 68.65 10.5 68.7 10.9 68.7 11.05 68.75 11.1 68.75 11.35 68.8 11.6 68.85 12.1 68.9 12.7 68.95 12.95 69.05 13.75 69.2 14.7 69.45 16.45 70.3 21.45 69.9 21.4 67.1 21.55 63.8 21.9 63.25 22.0 61.05 22.3 60.05 17.75 59.95 17.45 58.9 13.35 58.6 12.2 57.95 9.15 57.25 6.3 57.25 6.25 56.45 3.35 55.95 2.7 55.9 2.7 55.9 2.75 55.95 2.8 56.35 3.35 57.2 6.35 57.55 7.8 57.85 9.15 58.55 12.2 59.0 13.95 59.7 16.7 59.9 17.45 60.15 18.5 60.7 20.85 61.0 22.3 61.0 22.45 58.75 22.75 57.0 23.05 55.5 23.3 55.2 23.35 55.2 23.3 55.0 23.05 55.15 23.3 51.75 23.7 50.1 23.9 46.9 24.1 46.9 24.05 46.85 24.0 46.8 24.0 46.75 23.95 46.7 24.0 46.65 24.05 46.6 24.05 46.55 24.1 46.5 24.1 46.45 24.1 46.3 24.1 46.25 24.05 46.05 24.05 46.0 24.05 45.75 24.05 45.65 24.0 45.45 24.0 45.2 23.95 45.0 23.95 44.95 23.95 44.8 23.95 44.65 23.95 44.35 24.0 44.1 24.0 43.75 24.05 43.55 24.05 43.45 24.1 43.45 24.05 43.45 23.95 43.45 23.75 43.4 23.45 43.2 22.85 Q43.05 22.7 42.9 22.7 42.65 22.65 42.55 22.85 L42.55 22.95 42.5 23.05 42.2 23.1 42.05 23.1 41.75 23.2 41.7 23.2 41.55 22.8 41.55 22.65 41.2 22.05 40.9 22.25 40.9 22.45 40.8 22.9 40.75 22.65 40.55 22.0 Q40.4 21.5 39.8 21.55 L39.7 21.55 39.45 20.55 39.3 19.8 39.15 19.15 38.85 18.3 38.85 18.2 38.85 18.15 38.7 17.7 38.5 17.1 38.4 16.65 38.35 16.4 38.25 15.9 38.15 15.3 38.0 14.75 38.0 14.65 37.95 14.45 37.8 13.85 37.6 13.2 37.55 12.95 37.5 12.8 37.45 12.7 36.85 11.45 36.55 11.1 36.55 11.05 36.5 10.8 36.05 10.25 35.95 10.45 35.8 10.45 35.7 11.25 35.75 12.35 35.85 13.7 35.95 14.35 36.0 14.7 36.0 14.8 36.1 15.25 36.15 15.6 36.3 16.35 36.5 17.6 36.6 18.2 36.7 18.9 36.75 19.3 36.75 19.35 36.8 19.5 36.8 19.65 36.85 20.0 36.85 20.05 37.1 21.95 37.3 22.95 36.7 22.85 35.9 22.8 35.55 22.75 35.15 22.75 34.6 22.75 34.25 22.75 33.15 22.85 31.8 23.05 30.35 23.45 29.2 23.85 28.65 24.3 28.75 24.3 M82.05 3.55 L82.65 5.65 83.05 6.8 83.75 8.95 84.45 12.15 84.45 12.35 Q84.75 13.6 85.2 14.6 L84.5 12.35 83.8 8.95 82.7 5.7 82.05 3.5 82.05 3.55 82.0 3.5 79.55 3.8 79.05 3.9 78.0 4.05 79.65 3.85 81.8 3.55 82.05 3.55 M85.55 9.55 L85.55 9.8 85.7 11.05 85.55 9.55 M86.3 14.0 L86.35 14.3 86.15 13.0 86.3 14.0 M86.35 14.6 L86.15 15.05 85.7 15.7 85.75 15.75 86.35 14.6 M71.85 3.0 L71.85 3.35 Q71.9 3.6 72.05 3.65 L72.3 3.7 72.6 3.75 72.1 3.65 71.95 3.45 71.9 3.0 71.85 3.0 M69.7 1.25 L70.65 2.5 70.75 2.8 71.3 3.0 70.8 2.8 70.7 2.5 69.75 1.25 69.65 1.2 69.7 1.25 M69.65 1.2 L69.4 1.5 68.65 2.25 69.45 1.5 69.65 1.2 M40.55 13.2 L40.7 13.7 40.75 13.9 Q41.3 15.6 41.65 15.6 41.9 15.6 41.95 15.95 42.0 16.35 42.4 16.35 L42.7 16.25 42.75 16.15 42.75 16.05 42.4 16.1 Q42.05 16.1 41.95 15.75 L41.95 15.65 41.7 15.35 Q41.25 15.35 40.55 13.0 L40.0 10.9 39.7 9.55 38.9 6.7 Q38.45 5.25 38.35 4.4 L38.15 4.35 37.45 4.2 36.55 3.75 34.7 3.6 33.95 3.6 33.9 3.5 33.85 3.4 33.65 3.25 32.0 3.25 30.55 3.4 30.45 3.5 30.5 3.75 30.45 3.75 30.75 5.25 31.35 8.1 31.6 9.35 33.15 16.65 33.3 17.6 33.3 17.4 33.25 17.1 31.8 9.95 31.6 9.1 30.75 4.95 30.65 4.45 30.5 3.75 30.55 3.7 33.65 3.45 33.85 3.65 33.95 3.85 36.5 4.0 36.7 4.05 37.05 4.2 Q37.25 4.25 37.45 4.45 L38.35 4.65 38.85 6.95 39.15 7.95 39.65 9.8 40.55 13.2 M41.6 4.6 L41.6 4.75 44.1 4.5 44.8 4.15 44.85 3.95 44.1 4.35 43.1 4.5 41.6 4.6 M51.8 10.9 L51.2 8.05 50.75 6.05 50.4 4.45 49.8 1.55 49.3 1.7 49.2 1.7 48.1 2.0 47.8 2.0 46.5 2.25 45.55 2.55 45.35 2.85 Q45.2 2.85 45.2 3.1 L45.05 3.5 44.75 3.6 44.85 3.7 45.05 3.65 45.2 3.25 Q45.2 3.05 45.35 3.0 L45.55 2.7 45.8 2.6 46.5 2.45 48.1 2.15 49.3 1.85 49.8 1.7 50.75 6.2 51.15 8.05 52.2 12.75 53.05 16.2 53.7 18.6 54.6 21.55 54.85 22.35 54.6 21.5 53.75 18.6 53.7 18.55 52.95 15.7 52.2 12.65 51.8 10.9" fill="url(#gradient6)" fill-rule="evenodd" stroke="none"/>
      <path d="M82.05 3.55 L81.8 3.55 79.65 3.85 78.0 4.05 79.05 3.9 79.55 3.8 82.0 3.5 82.05 3.55 82.05 3.5 82.7 5.7 83.8 8.95 84.5 12.35 85.2 14.6 Q84.75 13.6 84.45 12.35 L84.45 12.15 83.75 8.95 83.05 6.8 82.65 5.65 82.05 3.55 M83.6 18.25 L83.65 18.6 83.9 19.95 84.0 19.95 84.0 20.05 83.9 20.05 83.6 18.45 83.6 18.25 M85.75 22.95 L86.1 22.95 86.2 22.95 86.15 23.05 85.8 23.05 85.75 22.95 M89.15 22.7 L89.45 22.7 89.45 22.8 89.15 22.8 89.15 22.7 M89.75 21.95 L89.7 21.2 89.75 21.85 89.75 21.95 M80.45 9.75 L80.45 9.7 80.65 9.75 80.95 10.05 81.1 10.5 81.5 10.1 81.55 10.2 81.2 10.8 81.15 10.7 81.1 10.5 81.05 10.55 80.85 10.05 80.45 9.75 M85.55 9.55 L85.7 11.05 85.55 9.8 85.55 9.55 M86.35 14.6 L85.75 15.75 85.7 15.7 86.15 15.05 86.35 14.6 M86.3 14.0 L86.15 13.0 86.35 14.3 86.3 14.0 M73.4 22.15 L75.45 22.7 79.8 23.2 80.75 23.25 82.05 23.2 82.8 23.15 82.85 23.3 82.85 23.35 80.8 23.45 78.6 23.35 74.75 22.7 73.4 22.35 73.4 22.15 M69.65 1.2 L69.45 1.5 68.65 2.25 69.4 1.5 69.65 1.2 69.75 1.25 70.7 2.5 70.8 2.8 71.3 3.0 70.75 2.8 70.65 2.5 69.7 1.25 69.65 1.2 M71.85 3.0 L71.9 3.0 71.95 3.45 72.1 3.65 72.6 3.75 72.3 3.7 72.05 3.65 Q71.9 3.6 71.85 3.35 L71.85 3.0 M68.75 7.7 L68.65 7.7 68.75 7.6 68.75 7.7 M68.95 12.95 L69.15 14.3 69.2 14.6 69.2 14.7 69.05 13.75 68.95 12.95 M69.0 8.35 L68.9 8.1 68.95 8.15 69.0 8.35 M61.0 22.3 L60.7 20.85 60.15 18.5 59.9 17.45 59.7 16.7 59.0 13.95 58.55 12.2 57.85 9.15 57.55 7.8 57.2 6.35 56.35 3.35 55.95 2.8 55.9 2.75 55.9 2.7 55.95 2.7 56.45 3.35 57.25 6.25 57.25 6.3 57.95 9.15 58.6 12.2 58.9 13.35 59.95 17.45 60.05 17.75 61.05 22.3 63.25 22.0 63.8 21.9 67.1 21.55 69.9 21.4 70.3 21.45 70.35 21.7 69.45 21.6 67.1 21.75 64.25 22.05 61.2 22.4 61.0 22.45 61.1 22.4 61.05 22.3 61.0 22.3" fill="url(#gradient7)" fill-rule="evenodd" stroke="none"/>
      <path d="M81.55 10.2 L81.95 11.25 82.95 15.05 83.1 15.7 83.3 16.85 83.4 17.2 83.45 17.6 83.5 17.8 83.6 18.25 83.6 18.45 83.9 20.05 84.0 20.05 84.0 19.95 84.0 19.45 84.0 19.4 84.3 19.2 84.4 19.35 84.85 20.45 84.95 20.75 85.05 21.1 85.1 21.45 85.35 22.05 85.35 22.1 85.5 22.35 85.75 22.95 85.4 23.0 84.7 23.05 83.8 23.05 82.8 23.15 82.7 22.65 82.6 21.85 82.55 21.4 82.5 21.15 82.2 19.6 82.15 19.2 82.15 19.1 82.05 18.6 81.9 17.85 81.85 17.7 81.75 17.3 81.75 17.25 81.4 15.8 81.15 14.7 81.05 14.4 81.0 14.05 80.95 13.75 80.85 13.35 80.8 13.05 80.7 12.55 80.5 11.4 80.4 10.4 80.4 9.7 80.45 9.75 80.85 10.05 81.05 10.55 81.1 10.5 81.15 10.7 81.2 10.8 81.55 10.2" fill="url(#gradient8)" fill-rule="evenodd" stroke="none"/>
      <path d="M93.15 24.2 L93.05 24.2 92.95 24.25 92.8 24.3 92.7 24.35 92.65 24.35 92.55 24.35 92.5 24.4 92.25 24.3 92.2 24.3 92.15 24.35 92.05 24.35 91.85 24.35 91.75 24.3 91.6 24.3 91.55 24.25 91.45 24.25 91.4 24.2 91.25 24.15 91.3 24.15 91.45 24.1 91.7 24.05 91.9 24.0 92.05 23.95 92.2 23.95 92.25 23.95 92.35 23.95 92.45 23.95 92.65 23.9 92.8 23.85 92.9 23.85 93.0 23.9 93.05 23.95 93.05 24.0 93.1 24.05 93.15 24.05 93.2 24.1 93.25 24.2 93.15 24.2 M70.8 22.95 L70.75 22.95 70.7 22.9 70.65 22.9 70.55 22.9 70.45 22.9 70.4 22.9 70.35 22.85 70.25 22.85 70.2 22.8 70.15 22.7 70.1 22.7 70.15 22.65 70.25 22.65 70.35 22.65 70.45 22.65 70.5 22.6 70.6 22.6 70.65 22.65 70.7 22.6 70.8 22.7 70.9 22.7 71.0 22.75 71.05 22.8 71.1 22.85 71.05 22.85 71.0 22.9 70.85 22.9 70.8 22.95 M67.0 22.85 L66.85 22.85 66.7 22.9 66.5 22.95 66.3 22.95 65.75 23.0 65.05 23.05 64.75 23.05 64.55 23.05 64.85 22.95 65.2 22.9 65.55 22.85 65.65 22.8 65.75 22.8 66.05 22.8 66.45 22.75 66.75 22.7 67.15 22.7 67.5 22.65 67.85 22.6 67.95 22.65 67.9 22.65 67.65 22.7 67.2 22.8 67.0 22.85 M64.5 23.05 L64.4 23.05 63.95 23.15 63.65 23.2 63.6 23.2 63.4 23.25 63.55 23.15 63.65 23.1 63.9 23.05 64.2 23.0 64.35 23.0 64.4 23.0 64.5 23.05 M34.85 24.05 L34.8 24.1 34.7 24.05 34.7 24.1 34.65 24.1 34.65 24.05 34.6 24.0 34.55 24.0 34.4 23.95 34.45 23.85 34.5 23.85 34.55 23.8 34.7 23.8 34.8 23.8 34.85 23.85 34.9 23.9 34.95 23.9 34.95 24.0 34.9 24.05 34.85 24.05 M10.65 25.6 L10.65 25.65 10.6 25.55 10.55 25.55 10.5 25.6 10.45 25.55 10.5 25.55 10.5 25.5 10.45 25.5 10.35 25.4 10.3 25.4 10.3 25.35 10.35 25.35 10.4 25.3 10.5 25.3 10.5 25.25 10.55 25.2 10.65 25.2 10.7 25.25 10.7 25.45 10.75 25.55 10.7 25.6 10.65 25.6 M6.05 24.4 L6.0 24.45 6.0 24.4 5.95 24.35 5.9 24.4 5.8 24.3 5.7 24.3 5.6 24.3 5.55 24.25 5.55 24.2 5.5 24.2 5.45 24.1 5.4 24.05 5.25 24.0 5.2 24.0 5.2 23.95 5.25 24.0 5.35 24.0 5.45 24.0 5.5 24.0 5.55 23.95 5.6 23.95 5.6 24.0 5.7 24.0 5.75 24.05 5.85 24.1 5.9 24.2 5.95 24.25 6.0 24.3 6.1 24.3 6.1 24.4 6.05 24.35 6.0 24.35 6.05 24.4 M3.35 9.65 L3.4 9.8 3.45 9.85 3.4 9.85 3.45 9.9 3.45 10.0 3.5 10.1 3.5 10.15 3.55 10.15 3.55 10.3 3.6 10.3 3.6 10.35 3.5 10.35 3.5 10.3 3.45 10.3 3.4 10.05 3.4 9.95 3.35 9.95 3.35 9.85 3.35 9.65 M35.55 2.15 L35.55 2.2 35.65 2.25 35.8 2.2 35.95 2.2 36.1 2.2 36.2 2.2 36.35 2.2 36.55 2.2 36.65 2.2 36.85 2.3 37.0 2.35 37.15 2.35 37.2 2.4 37.25 2.4 37.35 2.45 37.25 2.45 37.15 2.5 37.0 2.45 36.85 2.5 36.75 2.5 36.7 2.5 36.5 2.45 36.4 2.45 36.35 2.45 36.25 2.45 36.1 2.45 35.95 2.4 35.9 2.35 35.8 2.35 35.75 2.3 35.7 2.3 35.5 2.25 35.5 2.2 35.45 2.15 35.55 2.15 M57.7 1.45 L57.75 1.5 57.75 1.55 57.8 1.6 57.85 1.6 57.9 1.6 57.95 1.55 58.0 1.55 58.05 1.5 58.15 1.5 58.15 1.6 58.05 1.6 58.0 1.65 57.95 1.65 57.85 1.65 57.85 1.6 57.8 1.65 57.65 1.65 57.55 1.65 57.55 1.6 57.45 1.6 57.35 1.55 57.25 1.5 57.3 1.5 57.4 1.5 57.5 1.45 57.6 1.45 57.7 1.45 M82.8 23.15 L83.8 23.05 84.7 23.05 85.4 23.0 85.75 22.95 85.8 23.05 85.8 23.1 85.75 23.1 85.75 23.2 85.65 23.2 85.6 23.25 85.6 23.15 85.55 23.15 85.4 23.15 85.15 23.15 84.4 23.2 83.2 23.3 82.85 23.35 82.85 23.3 82.8 23.15 M67.95 22.65 L68.0 22.6 68.05 22.6 67.95 22.65 M24.35 23.7 L24.4 23.75 24.4 23.8 24.45 23.8 24.5 23.85 24.55 23.9 24.55 24.0 24.5 24.05 24.5 24.1 24.45 24.1 24.4 24.15 24.4 24.05 24.35 24.05 24.35 24.0 24.3 24.0 24.3 23.85 24.15 23.6 24.2 23.6 24.25 23.65 24.35 23.7 M17.45 1.6 L17.65 1.6 17.65 1.65 17.7 1.65 17.7 1.7 17.7 1.75 17.7 1.85 17.7 2.1 17.65 2.2 17.65 2.15 17.6 2.05 17.55 2.0 17.5 1.7 17.45 1.6" fill="#aaccdd" fill-opacity="0.99607843" fill-rule="evenodd" stroke="none"/>
      <path d="M94.6 24.1 L94.5 24.1 94.35 24.15 94.25 24.15 94.2 24.2 94.1 24.2 93.9 24.2 93.8 24.2 93.7 24.2 93.6 24.3 93.5 24.25 93.4 24.25 93.35 24.2 93.2 24.25 93.15 24.2 93.25 24.2 93.2 24.1 93.15 24.05 93.1 24.05 93.05 24.0 93.05 23.95 93.15 23.9 93.35 23.85 93.55 23.85 93.7 23.8 93.8 23.8 93.9 23.8 93.95 23.8 94.05 23.8 94.2 23.8 94.3 23.85 94.5 23.85 94.6 23.85 94.7 23.85 94.7 23.95 94.6 23.95 94.6 24.05 94.6 24.1" fill="url(#gradient9)" fill-rule="evenodd" stroke="none"/>
      <path d="M96.55 24.05 L96.45 24.05 96.25 24.05 95.7 24.05 95.6 24.05 95.55 24.05 94.9 24.05 94.7 24.05 94.65 24.1 94.6 24.1 94.6 24.05 94.6 23.95 94.7 23.95 94.85 23.95 95.05 24.0 95.15 24.0 95.2 23.95 95.5 23.95 95.75 23.9 95.9 23.9 96.0 23.9 96.1 23.9 96.25 23.9 96.5 23.85 96.65 23.85 96.95 23.85 97.15 23.9 97.35 23.85 97.4 23.9 97.45 23.9 97.45 23.95 97.3 23.95 97.2 23.95 97.05 23.95 96.8 24.0 96.65 24.0 96.55 24.05 M46.45 24.2 L46.3 24.2 46.2 24.25 46.1 24.25 46.05 24.25 45.8 24.3 45.65 24.3 45.6 24.3 45.45 24.3 45.35 24.35 45.05 24.3 44.95 24.3 44.8 24.3 44.7 24.3 44.4 24.35 44.25 24.3 44.15 24.3 44.1 24.3 44.0 24.3 43.95 24.3 43.85 24.25 43.65 24.25 43.4 24.2 43.45 24.2 43.45 24.1 43.55 24.05 43.75 24.05 44.1 24.0 44.35 24.0 44.65 23.95 44.8 23.95 44.95 23.95 45.0 23.95 45.2 23.95 45.45 24.0 45.65 24.0 45.75 24.05 46.0 24.05 46.05 24.05 46.25 24.05 46.3 24.1 46.45 24.1 46.5 24.1 46.5 24.2 46.45 24.2 M19.6 25.4 L19.55 25.4 19.5 25.45 19.35 25.45 19.35 25.4 19.1 25.4 19.2 25.35 19.25 25.3 19.3 25.3 19.3 25.25 19.45 25.25 19.5 25.3 19.55 25.3 19.55 25.35 19.6 25.3 19.6 25.4" fill="#839fdb" fill-opacity="0.99607843" fill-rule="evenodd" stroke="none"/>
      <path d="M65.55 0.1 L65.65 0.1 65.8 0.1 66.0 0.1 66.1 0.05 66.2 0.1 66.25 0.1 66.4 0.05 66.65 0.1 66.85 0.1 67.05 0.15 67.1 0.15 67.15 0.2 67.2 0.2 67.45 0.2 67.55 0.2 67.65 0.25 67.8 0.25 67.85 0.25 67.75 0.3 67.65 0.3 67.5 0.3 67.2 0.35 67.1 0.35 66.95 0.35 66.8 0.4 66.7 0.4 66.3 0.35 66.25 0.35 66.1 0.35 66.0 0.35 65.7 0.4 65.5 0.35 65.35 0.35 65.3 0.35 65.2 0.35 65.15 0.35 65.05 0.35 64.85 0.3 64.65 0.25 64.45 0.25 64.7 0.2 64.85 0.2 65.2 0.15 65.55 0.1" fill="#bcfefd" fill-opacity="0.8117647" fill-rule="evenodd" stroke="none"/>
      <path d="M68.65 7.7 L68.75 7.7 68.9 8.05 68.9 8.1 69.0 8.35 69.6 9.9 69.65 10.05 69.7 10.2 70.05 11.1 70.15 11.35 70.2 11.6 70.55 12.5 70.85 13.4 70.95 13.85 71.1 14.25 71.2 14.5 71.4 15.0 71.75 16.2 72.05 17.15 72.35 18.3 72.4 18.5 72.7 19.55 73.0 20.7 73.1 21.0 73.3 21.6 73.4 22.05 73.4 22.15 73.35 22.2 73.2 22.15 73.15 22.15 72.75 22.05 72.45 21.95 72.05 21.85 71.3 21.7 70.4 21.6 70.4 21.45 70.3 21.45 69.45 16.45 69.2 14.7 69.2 14.6 69.15 14.3 68.95 12.95 68.9 12.7 68.85 12.1 68.8 11.6 68.75 11.35 68.75 11.1 68.7 11.05 68.7 10.9 68.65 10.5 68.5 9.35 68.35 8.4 68.35 8.3 68.45 7.75 68.65 7.7" fill="url(#gradient10)" fill-rule="evenodd" stroke="none"/>
      <path d="M51.8 10.9 L52.2 12.65 52.95 15.7 53.7 18.55 53.75 18.6 54.6 21.5 54.85 22.35 54.6 21.55 53.7 18.6 53.05 16.2 52.2 12.75 51.15 8.05 50.75 6.2 49.8 1.7 49.3 1.85 48.1 2.15 46.5 2.45 45.8 2.6 45.55 2.7 45.35 3.0 Q45.2 3.05 45.2 3.25 L45.05 3.65 44.85 3.7 44.75 3.6 45.05 3.5 45.2 3.1 Q45.2 2.85 45.35 2.85 L45.55 2.55 46.5 2.25 47.8 2.0 48.1 2.0 49.2 1.7 49.3 1.7 49.8 1.55 50.4 4.45 50.75 6.05 51.2 8.05 51.8 10.9 M41.6 4.6 L43.1 4.5 44.1 4.35 44.85 3.95 44.8 4.15 44.1 4.5 41.6 4.75 41.6 4.6 M40.55 13.2 L39.65 9.8 39.15 7.95 38.85 6.95 38.35 4.65 37.45 4.45 Q37.25 4.25 37.05 4.2 L36.7 4.05 36.5 4.0 33.95 3.85 33.85 3.65 33.65 3.45 30.55 3.7 30.5 3.75 30.65 4.45 30.75 4.95 31.6 9.1 31.8 9.95 33.25 17.1 33.3 17.4 33.3 17.6 33.15 16.65 31.6 9.35 31.35 8.1 30.75 5.25 30.45 3.75 30.5 3.75 30.45 3.5 30.55 3.4 32.0 3.25 33.65 3.25 33.85 3.4 33.9 3.5 33.95 3.6 34.7 3.6 36.55 3.75 37.45 4.2 38.15 4.35 38.35 4.4 Q38.45 5.25 38.9 6.7 L39.7 9.55 40.0 10.9 40.55 13.0 Q41.25 15.35 41.7 15.35 L41.95 15.65 41.95 15.75 Q42.05 16.1 42.4 16.1 L42.75 16.05 42.75 16.15 42.7 16.25 42.4 16.35 Q42.0 16.35 41.95 15.95 41.9 15.6 41.65 15.6 41.3 15.6 40.75 13.9 L40.7 13.7 40.55 13.2 M42.55 22.95 Q42.65 22.8 42.9 22.8 43.25 22.8 43.4 23.55 L43.45 23.75 43.45 23.95 43.45 24.05 42.8 24.0 42.25 23.95 42.0 23.95 40.95 23.8 39.9 23.65 39.05 23.4 38.65 23.25 37.8 23.05 37.4 22.95 37.35 22.95 37.1 21.9 37.1 21.55 37.05 21.45 37.0 20.85 36.85 20.05 36.85 20.0 36.8 19.65 36.8 19.5 36.75 19.3 36.7 18.9 36.6 18.15 36.3 16.25 36.05 14.75 35.75 12.2 35.75 12.0 35.75 11.35 35.95 10.45 36.05 10.25 36.5 10.8 36.55 11.05 36.55 11.1 36.85 11.45 37.45 12.7 37.5 12.8 37.5 12.85 37.55 12.95 37.55 13.05 37.8 13.85 37.95 14.45 38.0 14.65 38.0 14.75 38.15 15.3 38.25 15.9 38.35 16.4 38.4 16.65 38.85 18.45 39.3 20.1 39.65 21.65 39.7 21.8 Q40.35 21.7 40.55 22.2 L40.8 23.1 40.85 23.1 40.9 22.45 41.05 22.35 41.2 22.25 41.55 22.8 Q41.55 23.25 41.7 23.35 L42.2 23.25 42.5 23.2 42.55 22.95 M21.15 1.85 L22.45 1.85 Q23.5 2.5 24.55 2.55 L25.65 2.6 25.65 2.65 23.0 2.35 22.7 2.25 22.45 1.85 21.15 1.9 21.15 1.85" fill="url(#gradient11)" fill-rule="evenodd" stroke="none"/>
      <path d="M43.45 23.75 L43.4 23.55 Q43.25 22.8 42.9 22.8 42.65 22.8 42.55 22.95 L42.55 22.85 Q42.65 22.65 42.9 22.7 43.05 22.7 43.2 22.85 L43.4 23.45 43.45 23.75 M42.55 22.95 L42.5 23.2 42.2 23.25 41.7 23.35 Q41.55 23.25 41.55 22.8 L41.2 22.25 41.05 22.35 40.9 22.45 40.85 23.1 40.8 23.1 40.55 22.2 Q40.35 21.7 39.7 21.8 L39.65 21.65 39.3 20.1 38.85 18.45 38.4 16.65 38.5 17.1 38.7 17.7 38.85 18.15 38.85 18.2 38.85 18.3 39.15 19.15 39.3 19.8 39.45 20.55 39.7 21.55 39.8 21.55 Q40.4 21.5 40.55 22.0 L40.75 22.65 40.8 22.9 40.9 22.45 40.9 22.25 41.2 22.05 41.55 22.65 41.55 22.8 41.7 23.2 41.75 23.2 42.05 23.1 42.2 23.1 42.5 23.05 42.55 22.95 M37.8 13.85 L37.55 13.05 37.55 12.95 37.5 12.85 37.5 12.8 37.55 12.95 37.6 13.2 37.8 13.85 M35.95 10.45 L35.75 11.35 35.75 12.0 35.75 12.2 36.05 14.75 36.3 16.25 36.6 18.15 36.7 18.9 36.6 18.2 36.5 17.6 36.3 16.35 36.15 15.6 36.1 15.25 36.0 14.8 36.0 14.7 35.95 14.35 35.85 13.7 35.75 12.35 35.7 11.25 35.8 10.45 35.95 10.45 M36.75 19.3 L36.8 19.5 36.75 19.35 36.75 19.3 M36.85 20.05 L37.0 20.85 37.05 21.45 37.1 21.55 37.1 21.9 37.35 22.95 37.3 22.95 37.1 21.95 36.85 20.05" fill="url(#gradient12)" fill-rule="evenodd" stroke="none"/>
      <path d="M46.9 24.2 L46.9 24.25 46.85 24.25 46.85 24.3 46.75 24.3 46.75 24.35 46.7 24.3 46.65 24.35 46.6 24.3 46.45 24.25 46.45 24.2 46.5 24.2 46.5 24.1 46.55 24.1 46.6 24.05 46.65 24.05 46.7 24.0 46.75 23.95 46.8 24.0 46.85 24.0 46.9 24.05 46.9 24.1 46.85 24.1 46.85 24.2 46.9 24.2" fill="url(#gradient13)" fill-rule="evenodd" stroke="none"/>
      <path d="M24.4 24.8 L23.85 24.85 22.65 25.0 21.9 25.1 20.55 25.3 19.6 25.4 19.6 25.3 19.3 24.0 18.8 22.15 18.75 21.9 18.65 21.6 18.6 21.5 18.45 20.9 18.4 20.8 18.15 19.8 17.95 19.2 17.6 18.0 17.45 17.5 17.35 17.1 17.3 16.9 17.25 16.7 17.2 16.5 17.15 16.2 16.65 14.4 16.05 12.25 15.95 12.05 15.05 8.9 14.45 6.8 14.05 5.6 13.45 3.65 13.05 2.5 12.85 1.85 13.85 1.6 15.75 1.15 17.3 0.9 17.35 0.95 17.3 0.95 17.45 1.6 17.5 1.7 17.55 2.0 17.6 2.05 17.6 2.1 17.7 2.4 18.4 4.6 18.5 4.95 19.1 6.65 19.6 8.2 19.85 9.1 20.0 9.6 20.1 10.0 20.5 11.3 21.15 13.45 21.6 15.15 22.35 17.6 22.9 19.55 23.5 21.55 23.65 22.05 23.95 23.15 24.3 24.3 24.4 24.8 M21.15 1.95 L21.65 3.85 22.05 5.7 22.2 6.25 22.25 6.55 22.4 7.25 22.5 7.6 22.8 8.9 23.3 11.1 23.7 12.85 23.75 13.1 24.3 15.3 24.85 17.25 25.3 18.7 25.5 19.3 25.7 19.75 26.15 20.85 26.4 21.55 26.55 21.95 26.8 22.8 26.95 24.3 26.95 24.4 26.95 24.5 26.9 24.55 26.9 24.35 26.65 22.6 26.35 21.6 26.05 20.85 25.25 18.8 25.2 18.7 24.6 16.85 23.85 14.0 23.7 13.25 22.35 7.3 22.15 6.45 21.15 2.1 21.15 1.95 M20.05 1.85 L20.05 1.9 17.85 1.75 17.7 1.7 18.45 1.8 20.05 1.85" fill="url(#gradient14)" fill-rule="evenodd" stroke="none"/>
      <path d="M12.8 1.85 L12.85 1.85 13.05 2.5 13.45 3.65 14.05 5.6 14.45 6.8 15.05 8.9 15.95 12.05 16.05 12.25 16.65 14.4 17.15 16.2 17.2 16.5 16.95 15.7 16.95 15.65 16.6 14.45 16.35 13.55 16.3 13.45 16.0 12.3 15.5 10.75 15.0 9.0 14.7 7.95 14.55 7.45 14.35 6.8 14.2 6.25 13.95 5.4 13.35 3.5 12.8 1.9 12.8 1.85 M18.4 20.8 L17.95 19.2 18.15 19.8 18.4 20.8 M18.6 21.5 L18.55 21.4 18.45 20.9 18.6 21.5 M18.75 21.9 L18.8 22.15 19.3 24.0 19.6 25.3 19.55 25.35 19.55 25.3 19.3 24.4 18.95 22.8 18.75 21.9" fill="url(#gradient15)" fill-rule="evenodd" stroke="none"/>
      <path d="M6.65 19.05 L6.55 19.05 5.75 19.1 5.7 19.1 5.4 19.05 5.25 18.95 5.2 18.95 5.05 18.85 4.6 18.6 4.2 18.35 3.9 17.05 3.9 16.95 3.8 16.6 3.65 16.1 3.55 15.7 3.55 15.65 3.2 14.7 2.95 13.9 2.85 13.45 2.8 13.25 2.7 13.05 2.75 12.95 2.75 12.85 2.8 12.8 2.8 12.7 2.8 12.6 2.75 12.3 2.45 11.6 2.45 11.55 2.4 11.45 2.4 11.4 2.2 10.95 2.15 10.8 2.2 10.45 2.45 10.2 2.9 9.85 3.35 9.6 3.35 9.65 3.35 9.85 3.35 9.95 3.4 9.95 3.4 10.05 3.45 10.3 3.5 10.3 3.5 10.35 3.6 10.35 3.6 10.3 3.55 10.3 3.55 10.15 3.45 9.8 3.35 9.55 3.55 9.5 3.75 9.45 4.0 9.45 4.0 9.55 4.2 10.25 4.45 11.1 4.55 11.5 4.6 11.75 4.7 12.1 4.75 12.3 4.9 12.7 5.1 13.5 5.4 14.5 5.4 14.55 5.55 14.95 5.7 15.5 5.8 15.85 5.85 15.95 6.2 17.3 6.3 17.75 6.45 18.35 6.65 19.05" fill="url(#gradient16)" fill-rule="evenodd" stroke="none"/>
      <path d="M8.9 19.8 L8.95 19.9 8.45 19.8 8.3 19.8 8.0 19.7 7.4 19.65 7.2 19.6 7.1 19.45 6.7 19.1 6.65 19.05 6.45 18.35 6.3 17.75 6.2 17.3 5.85 15.95 5.8 15.85 5.7 15.5 5.55 14.95 5.4 14.55 5.4 14.5 5.1 13.5 4.9 12.7 4.75 12.3 4.7 12.1 4.6 11.75 4.55 11.5 4.45 11.1 4.2 10.25 4.0 9.55 4.4 9.5 5.2 9.35 5.5 9.3 5.75 10.1 5.8 10.2 6.05 11.15 6.35 12.05 6.55 12.7 6.65 13.05 6.75 13.35 6.85 13.5 7.0 14.1 7.3 15.05 7.4 15.35 7.55 15.7 7.9 16.75 7.95 16.95 8.15 17.6 8.45 18.5 8.5 18.75 8.65 19.05 8.7 19.2 8.85 19.65 8.9 19.8" fill="url(#gradient17)" fill-rule="evenodd" stroke="none"/>
      <path d="M3.85 22.85 L3.8 22.9 3.8 22.8 3.9 22.7 4.05 22.5 4.05 22.45 3.95 22.2 3.9 22.1 4.05 21.9 4.1 21.8 4.15 21.7 4.25 21.55 4.3 21.45 4.35 21.4 4.4 21.25 4.45 21.15 4.45 21.1 4.45 20.95 4.4 20.9 4.4 21.0 4.3 21.0 4.2 21.0 4.3 20.9 4.45 20.85 4.5 20.8 4.55 20.85 4.65 20.9 4.75 20.95 4.8 21.0 4.95 21.05 5.05 21.05 5.15 21.1 5.25 21.1 5.3 21.1 5.25 21.2 5.2 21.25 5.1 21.45 5.05 21.55 5.0 21.65 4.8 21.85 4.75 21.9 4.75 22.0 4.7 22.05 4.65 22.1 4.6 22.2 4.45 22.35 4.35 22.3 4.35 22.35 4.4 22.4 4.35 22.45 4.3 22.5 4.2 22.55 4.2 22.6 4.15 22.65 4.1 22.7 4.05 22.7 3.9 22.8 3.85 22.85" fill="#e7fffe" fill-opacity="0.99607843" fill-rule="evenodd" stroke="none"/>
      <path d="M5.15 21.1 L5.2 21.05 5.25 21.0 5.4 20.95 5.7 20.95 5.85 20.95 5.95 20.95 6.1 20.95 6.15 20.95 6.3 20.95 6.6 20.9 6.85 20.9 7.15 20.85 7.4 20.8 7.7 20.8 7.65 20.7 7.9 20.6 8.25 20.5 8.35 20.45 8.85 20.2 9.0 20.05 9.1 20.35 9.25 20.9 9.3 20.95 9.35 21.1 9.45 21.45 9.55 21.8 9.6 21.95 9.65 22.05 9.65 22.1 9.7 22.2 9.7 22.25 9.75 22.45 9.8 22.6 9.95 23.05 10.0 23.1 10.0 23.15 10.05 23.3 7.2 23.45 6.4 23.2 5.6 22.95 4.7 22.35 4.45 22.35 4.6 22.2 4.65 22.1 4.7 22.05 4.75 22.0 4.75 21.9 4.8 21.85 5.0 21.65 5.05 21.55 5.1 21.45 5.2 21.25 5.25 21.2 5.3 21.1 5.25 21.1 5.15 21.1" fill="#c0e7e6" fill-opacity="0.99607843" fill-rule="evenodd" stroke="none"/>
      <path d="M4.45 22.35 L4.7 22.35 5.6 22.95 6.4 23.2 7.2 23.45 10.05 23.3 10.1 23.5 9.95 23.55 9.5 23.55 9.15 23.55 8.9 23.55 8.1 23.6 7.85 23.6 7.55 23.65 7.25 23.65 7.1 23.65 6.45 23.5 6.4 23.45 6.0 23.3 5.75 23.15 5.65 23.1 5.6 23.1 5.45 22.95 5.35 22.9 5.2 22.75 4.75 22.5 4.4 22.4 4.35 22.35 4.35 22.3 4.45 22.35 M10.0 23.1 L9.95 23.05 9.8 22.6 10.0 23.1 M9.45 21.45 L9.35 21.1 9.45 21.45" fill="url(#gradient18)" fill-rule="evenodd" stroke="none"/>
    </g>
    <radialGradient cx="0" cy="0" gradientTransform="matrix(0.004, 0.0, 0.0, 0.0048, 103.4, 10.7)" gradientUnits="userSpaceOnUse" id="gradient0" r="819.2" spreadMethod="pad">
      <stop offset="0.0" stop-color="#feffff" stop-opacity="0.99607843"/>
      <stop offset="1.0" stop-color="#c0e7e6" stop-opacity="0.8509804"/>
    </radialGradient>
    <radialGradient cx="0" cy="0" gradientTransform="matrix(0.0027, 0.0, 0.0, 0.0032, 104.05, 12.05)" gradientUnits="userSpaceOnUse" id="gradient1" r="819.2" spreadMethod="pad">
      <stop offset="0.0" stop-color="#feffff" stop-opacity="0.99607843"/>
      <stop offset="1.0" stop-color="#c0e7e6" stop-opacity="0.8509804"/>
    </radialGradient>
    <radialGradient cx="0" cy="0" gradientTransform="matrix(0.0043, 0.0, 0.0, 0.0051, 103.1, 15.9)" gradientUnits="userSpaceOnUse" id="gradient2" r="819.2" spreadMethod="pad">
      <stop offset="0.0" stop-color="#feffff" stop-opacity="0.99607843"/>
      <stop offset="1.0" stop-color="#c0e7e6" stop-opacity="0.8509804"/>
    </radialGradient>
    <radialGradient cx="0" cy="0" gradientTransform="matrix(0.0024, 0.0, 0.0, 0.0028, 102.75, 16.45)" gradientUnits="userSpaceOnUse" id="gradient3" r="819.2" spreadMethod="pad">
      <stop offset="0.0" stop-color="#feffff" stop-opacity="0.99607843"/>
      <stop offset="1.0" stop-color="#c0e7e6" stop-opacity="0.8509804"/>
    </radialGradient>
    <radialGradient cx="0" cy="0" gradientTransform="matrix(0.0117, 0.0, 0.0, 0.0138, 98.55, 15.7)" gradientUnits="userSpaceOnUse" id="gradient4" r="819.2" spreadMethod="pad">
      <stop offset="0.0" stop-color="#feffff" stop-opacity="0.99607843"/>
      <stop offset="1.0" stop-color="#c0e7e6" stop-opacity="0.8509804"/>
    </radialGradient>
    <radialGradient cx="0" cy="0" gradientTransform="matrix(0.0147, 0.0, 0.0, 0.0174, 88.3, 9.55)" gradientUnits="userSpaceOnUse" id="gradient5" r="819.2" spreadMethod="pad">
      <stop offset="0.0" stop-color="#feffff" stop-opacity="0.99607843"/>
      <stop offset="1.0" stop-color="#c0e7e6" stop-opacity="0.8509804"/>
    </radialGradient>
    <radialGradient cx="0" cy="0" gradientTransform="matrix(0.0492, 0.0, 0.0, 0.0583, 55.15, 15.3)" gradientUnits="userSpaceOnUse" id="gradient6" r="819.2" spreadMethod="pad">
      <stop offset="0.0" stop-color="#feffff" stop-opacity="0.99607843"/>
      <stop offset="1.0" stop-color="#c0e7e6" stop-opacity="0.8509804"/>
    </radialGradient>
    <radialGradient cx="0" cy="0" gradientTransform="matrix(0.0341, 0.0, 0.0, 0.0404, 63.8, 12.05)" gradientUnits="userSpaceOnUse" id="gradient7" r="819.2" spreadMethod="pad">
      <stop offset="0.0" stop-color="#feffff" stop-opacity="0.99607843"/>
      <stop offset="1.0" stop-color="#c0e7e6" stop-opacity="0.8509804"/>
    </radialGradient>
    <linearGradient gradientTransform="matrix(0.0013, 0.0049, -0.0017, 6.0E-4, 83.35, 17.9)" gradientUnits="userSpaceOnUse" id="gradient8" spreadMethod="pad" x1="-819.2" x2="819.2">
      <stop offset="0.0" stop-color="#feffff" stop-opacity="0.99607843"/>
      <stop offset="1.0" stop-color="#c0e7e6" stop-opacity="0.8509804"/>
    </linearGradient>
    <radialGradient cx="0" cy="0" gradientTransform="matrix(0.0014, 0.0, 0.0, 0.0017, 94.65, 24.15)" gradientUnits="userSpaceOnUse" id="gradient9" r="819.2" spreadMethod="pad">
      <stop offset="0.0" stop-color="#feffff" stop-opacity="0.99607843"/>
      <stop offset="1.0" stop-color="#c0e7e6" stop-opacity="0.8509804"/>
    </radialGradient>
    <linearGradient gradientTransform="matrix(0.001, 0.0061, -0.0018, 4.0E-4, 71.55, 18.45)" gradientUnits="userSpaceOnUse" id="gradient10" spreadMethod="pad" x1="-819.2" x2="819.2">
      <stop offset="0.0" stop-color="#feffff" stop-opacity="0.99607843"/>
      <stop offset="1.0" stop-color="#c0e7e6" stop-opacity="0.8509804"/>
    </linearGradient>
    <radialGradient cx="0" cy="0" gradientTransform="matrix(0.035, 0.0, 0.0, 0.0414, 47.85, 12.25)" gradientUnits="userSpaceOnUse" id="gradient11" r="819.2" spreadMethod="pad">
      <stop offset="0.0" stop-color="#feffff" stop-opacity="0.99607843"/>
      <stop offset="1.0" stop-color="#c0e7e6" stop-opacity="0.8509804"/>
    </radialGradient>
    <radialGradient cx="0" cy="0" gradientTransform="matrix(0.0106, 0.0, 0.0, 0.0126, 37.0, 20.3)" gradientUnits="userSpaceOnUse" id="gradient12" r="819.2" spreadMethod="pad">
      <stop offset="0.0" stop-color="#feffff" stop-opacity="0.99607843"/>
      <stop offset="1.0" stop-color="#c0e7e6" stop-opacity="0.8509804"/>
    </radialGradient>
    <linearGradient gradientTransform="matrix(0.001, 0.0045, -0.0322, 0.0099, 73.35, 18.95)" gradientUnits="userSpaceOnUse" id="gradient13" spreadMethod="pad" x1="-819.2" x2="819.2">
      <stop offset="0.0" stop-color="#99b9dc" stop-opacity="0.99607843"/>
      <stop offset="1.0" stop-color="#839fdb" stop-opacity="0.99607843"/>
    </linearGradient>
    <radialGradient cx="0" cy="0" gradientTransform="matrix(0.014, 0.0, 0.0, 0.0165, 21.4, 13.95)" gradientUnits="userSpaceOnUse" id="gradient14" r="819.2" spreadMethod="pad">
      <stop offset="0.0" stop-color="#feffff" stop-opacity="0.99607843"/>
      <stop offset="1.0" stop-color="#c0e7e6" stop-opacity="0.8509804"/>
    </radialGradient>
    <radialGradient cx="0" cy="0" gradientTransform="matrix(0.0188, 0.0, 0.0, 0.0222, 18.8, 18.0)" gradientUnits="userSpaceOnUse" id="gradient15" r="819.2" spreadMethod="pad">
      <stop offset="0.0" stop-color="#feffff" stop-opacity="0.99607843"/>
      <stop offset="1.0" stop-color="#c0e7e6" stop-opacity="0.8509804"/>
    </radialGradient>
    <radialGradient cx="0" cy="0" gradientTransform="matrix(0.0083, 0.0, 0.0, 0.0099, 3.85, 17.25)" gradientUnits="userSpaceOnUse" id="gradient16" r="819.2" spreadMethod="pad">
      <stop offset="0.0" stop-color="#feffff" stop-opacity="0.99607843"/>
      <stop offset="1.0" stop-color="#c0e7e6" stop-opacity="0.8509804"/>
    </radialGradient>
    <radialGradient cx="0" cy="0" gradientTransform="matrix(0.0105, 0.0, 0.0, 0.0125, 6.45, 18.95)" gradientUnits="userSpaceOnUse" id="gradient17" r="819.2" spreadMethod="pad">
      <stop offset="0.0" stop-color="#feffff" stop-opacity="0.99607843"/>
      <stop offset="1.0" stop-color="#c0e7e6" stop-opacity="0.8509804"/>
    </radialGradient>
    <radialGradient cx="0" cy="0" gradientTransform="matrix(0.0052, 0.0, 0.0, 0.0061, 7.9, 23.0)" gradientUnits="userSpaceOnUse" id="gradient18" r="819.2" spreadMethod="pad">
      <stop offset="0.0" stop-color="#feffff" stop-opacity="0.99607843"/>
      <stop offset="1.0" stop-color="#c0e7e6" stop-opacity="0.8509804"/>
    </radialGradient>
    <g id="sprite3" transform="matrix(1.0, 0.0, 0.0, 1.0, 29.05, 29.25)">
      <clipPath id="clipPath1">
        <path d="M 40 0 L 40 40 L 0 40 L 0 0 Z M 18.75 -7.8 L -0.55 -7.7 L -6.5 -7.4 L -6.75 -7.35 L -7 -7.3 L -7.04 -7.4 L -7.07 -7.48 L -7.11 -7.52 L -7.14 -7.54 L -7.18 -7.52 L -7.22 -7.47 L -7.26 -7.38 L -7.3 -7.25 L -7.35 -7.1 L -8 -1.85 L -8 42.5 L -7.95 42.8 L -7.85 48.6 L 47.35 48.6 L 47.4 42.8 L 47.4 42.5 L 47.5 18.6 L 47.4 -0.7 L 47.36 -2.3 L 47.31 -3.69 L 47.25 -4.87 L 47.19 -5.83 L 47.12 -6.57 L 47.04 -7.11 L 47 -7.3 L 46.96 -7.43 L 46.92 -7.51 L 46.89 -7.53 L 46.87 -7.54 L 46.83 -7.51 L 46.79 -7.45 L 46.74 -7.35 L 46.7 -7.2 L 46.65 -7.3 L 46.5 -7.45 L 45 -7.55 L 44.9 -7.55 L 42.65 -7.7 L 18.75 -7.8 Z"/>
      </clipPath>
      <g clip-path="url(#clipPath1)">
        <use ffdec:characterId="937" height="49.05" transform="matrix(1.0, 0.0, 0.0, 1.0, -5.2, -5.05)" width="49.95" xlink:href="#shape3"/>
      </g>
    </g>
    <g id="shape3" transform="matrix(1.0, 0.0, 0.0, 1.0, 5.2, 5.05)">
      <path d="M18.85 -5.05 L40.4 -5.0 42.4 -4.85 42.5 -4.85 43.85 -4.75 44.0 -4.6 44.05 -4.55 Q44.5 -6.2 44.65 1.3 L44.75 18.7 44.65 40.2 44.5 42.2 Q44.4 43.75 44.05 43.75 L43.8 43.55 42.9 43.75 40.4 44.0 0.45 44.0 -3.55 43.55 -3.6 43.55 -4.6 43.75 -4.95 42.7 -5.2 40.2 -5.2 0.3 -4.6 -4.45 -4.55 -4.55 Q-4.45 -5.05 -4.3 -4.6 L-4.05 -4.65 -3.85 -4.7 1.5 -5.0 18.85 -5.05 M36.4 1.65 L36.8 1.25 41.65 -3.2 42.1 -3.6 41.7 -3.65 41.6 -3.85 40.4 -3.7 0.45 -3.7 -3.0 -4.1 2.5 0.85 3.3 1.65 1.8 1.65 1.8 2.6 1.8 1.65 3.3 1.65 3.6 1.95 2.0 1.95 2.0 2.8 1.8 2.6 0.3 1.1 -3.9 -4.2 -4.2 -4.3 -3.95 1.3 -3.85 18.7 -3.95 40.2 -4.05 42.2 -4.05 42.5 -4.0 42.3 -3.6 41.8 -1.65 39.65 1.8 36.1 1.8 37.95 2.0 37.95 1.8 37.95 1.8 36.1 2.0 35.9 2.0 37.95 2.6 37.95 -0.4 40.9 -2.75 42.9 1.5 42.7 18.85 42.65 40.4 42.7 42.4 42.85 42.5 42.85 42.4 42.8 39.65 40.55 37.05 37.95 38.0 37.95 38.15 37.95 38.15 36.45 38.15 37.95 38.0 37.95 38.0 36.35 38.15 36.45 40.9 39.3 42.85 41.45 43.6 42.45 43.4 40.2 43.4 0.3 43.85 -3.65 43.8 -3.65 42.95 -3.5 42.8 -3.3 39.0 1.45 38.15 2.3 38.15 1.65 36.4 1.65 38.15 1.65 38.15 2.3 38.0 2.45 38.0 1.95 36.0 1.95 36.4 1.65" fill="#473a29" fill-rule="evenodd" stroke="none"/>
      <path d="M3.3 1.65 L2.5 0.85 -3.0 -4.1 0.45 -3.7 40.4 -3.7 41.6 -3.85 41.7 -3.65 42.1 -3.6 41.65 -3.2 36.8 1.25 36.4 1.65 3.3 1.65 36.4 1.65 36.0 1.95 3.6 1.95 3.3 1.65 M1.8 36.1 L-1.65 39.65 -3.6 41.8 -4.0 42.3 -4.05 42.2 -3.95 40.2 -3.85 18.7 -3.95 1.3 -4.2 -4.3 -3.9 -4.2 0.3 1.1 1.8 2.6 2.0 2.8 2.0 35.9 1.8 36.1 1.8 35.0 1.8 33.05 1.8 2.6 1.8 33.05 1.8 35.0 1.8 36.1" fill="#bfaf91" fill-rule="evenodd" stroke="none"/>
      <path d="M38.15 2.3 L39.0 1.45 42.8 -3.3 42.95 -3.5 43.8 -3.65 43.85 -3.65 43.4 0.3 43.4 40.2 43.6 42.45 42.85 41.45 40.9 39.3 38.15 36.45 38.15 2.3 38.15 36.45 38.0 36.35 38.0 2.45 38.15 2.3 M37.05 37.95 L39.65 40.55 42.4 42.8 42.4 42.85 40.4 42.7 18.85 42.65 1.5 42.7 -2.75 42.9 -0.4 40.9 2.6 37.95 26.5 37.95 Q27.1 37.75 27.6 37.95 L37.05 37.95" fill="#6c5b3e" fill-rule="evenodd" stroke="none"/>
      <path d="M3.3 1.65 L36.4 1.65 38.15 1.65 38.15 2.3 38.15 36.45 38.15 37.95 38.0 37.95 37.05 37.95 27.6 37.95 Q27.1 37.75 26.5 37.95 L2.6 37.95 2.0 37.95 1.8 37.95 1.8 36.1 1.8 35.0 1.8 33.05 1.8 2.6 1.8 1.65 3.3 1.65 Z" fill="none" stroke="#473a29" stroke-linecap="round" stroke-linejoin="round" stroke-opacity="0.49019608" stroke-width="1.0"/>
    </g>
    <g id="sprite4" transform="matrix(1.0, 0.0, 0.0, 1.0, 0.0, 48.5)">
      <use ffdec:characterId="949" height="340.0" transform="matrix(0.2505, 0.0, 0.0, 0.1427, 0.0114, -48.4851)" width="192.0" xlink:href="#shape4"/>
    </g>
    <g id="shape4" transform="matrix(1.0, 0.0, 0.0, 1.0, 2.15, 3.05)">
      <path d="M189.85 -3.05 L189.85 336.95 -2.15 336.95 -2.15 -3.05 189.85 -3.05" fill="#000000" fill-opacity="0.29803923" fill-rule="evenodd" stroke="none"/>
    </g>
    <g id="sprite5" transform="matrix(1.0, 0.0, 0.0, 1.0, 0.0, 48.5)">
      <use ffdec:characterId="949" height="340.0" transform="matrix(0.2505, 0.0, 0.0, 0.1427, 0.0114, -48.4851)" width="192.0" xlink:href="#shape5"/>
    </g>
    <g id="shape5" transform="matrix(1.0, 0.0, 0.0, 1.0, 2.15, 3.05)">
      <path d="M189.85 -3.05 L189.85 336.95 -2.15 336.95 -2.15 -3.05 189.85 -3.05" fill="#000000" fill-opacity="0.49803922" fill-rule="evenodd" stroke="none"/>
    </g>
    <g id="sprite6" transform="matrix(1.0, 0.0, 0.0, 1.0, 64.35, 49.9)">
      <use ffdec:characterId="58" height="400.0" transform="matrix(0.1796, 0.0, 0.0, 0.1248, -62.85, -49.9)" width="700.0" xlink:href="#shape6"/>
      <use ffdec:characterId="951" height="18.1" id="txt_name" transform="matrix(1.0, 0.0, 0.0, 1.0, -63.85, -49.05)" width="129.05" xlink:href="#text1"/>
      <use ffdec:characterId="952" height="35.25" id="txt_desc" transform="matrix(1.0, 0.0, 0.0, 1.0, -64.35, -35.05)" width="129.05" xlink:href="#text2"/>
    </g>
    <g id="shape6" transform="matrix(1.0, 0.0, 0.0, 1.0, 0.0, 0.0)">
      <path d="M700.0 400.0 L0.0 400.0 0.0 0.0 700.0 0.0 700.0 400.0" fill="#000000" fill-opacity="0.49803922" fill-rule="evenodd" stroke="none"/>
    </g>
    <g id="text1" transform="matrix(1.0, 0.0, 0.0, 1.0, -51.35, 2.0)">
      <g transform="matrix(1.0, 0.0, 0.0, 1.0, 51.35, -2.0)">
        <use fill="#ffffff" height="18.1" transform="matrix(0.0117, 0.0, 0.0, 0.0117, 45.95, 13.05)" width="129.05" xlink:href="#font_Lithos_Pro_Regular_N0"/>
        <use fill="#ffffff" height="18.1" transform="matrix(0.0117, 0.0, 0.0, 0.0117, 56.95, 13.05)" width="129.05" xlink:href="#font_Lithos_Pro_Regular_a0"/>
        <use fill="#ffffff" height="18.1" transform="matrix(0.0117, 0.0, 0.0, 0.0117, 65.45, 13.05)" width="129.05" xlink:href="#font_Lithos_Pro_Regular_m0"/>
        <use fill="#ffffff" height="18.1" transform="matrix(0.0117, 0.0, 0.0, 0.0117, 76.75, 13.05)" width="129.05" xlink:href="#font_Lithos_Pro_Regular_e0"/>
      </g>
    </g>
    <g id="font_Lithos_Pro_Regular_N0">
      <path d="M216.5 7.5 L120.0 0.0 Q121.5 -20.5 124.5 -75.5 127.0 -130.5 131.0 -207.0 135.0 -283.5 139.0 -368.0 143.0 -452.5 147.0 -531.5 151.0 -610.5 153.5 -670.5 156.5 -730.5 158.0 -758.0 L160.0 -758.0 Q168.0 -748.5 209.0 -705.5 249.5 -663.0 309.5 -600.0 370.0 -537.0 437.0 -467.5 503.5 -398.0 564.0 -335.0 624.5 -272.0 666.0 -229.5 707.5 -186.5 716.5 -177.0 716.5 -185.5 717.0 -225.0 717.5 -265.0 718.0 -323.5 719.0 -382.5 720.0 -447.5 720.5 -513.0 721.5 -572.0 722.5 -631.5 723.0 -672.0 723.5 -712.5 724.0 -722.0 L819.0 -716.5 Q818.0 -697.0 815.0 -641.0 812.5 -585.0 808.5 -504.5 805.0 -424.0 801.5 -332.0 798.0 -240.0 795.5 -148.5 792.5 -57.0 791.5 21.5 L789.5 21.5 Q781.5 13.5 739.5 -29.5 697.0 -72.5 635.0 -136.5 572.5 -200.5 504.0 -271.5 435.0 -342.5 373.5 -406.5 312.0 -470.0 271.5 -513.0 231.5 -555.5 225.5 -563.0 L223.5 -563.0 Q223.5 -553.0 223.0 -511.0 222.5 -468.5 221.5 -407.0 220.5 -345.0 219.5 -277.0 218.5 -209.0 217.5 -147.5 217.0 -86.0 216.5 -44.0 216.0 -2.0 216.5 7.5" fill-rule="evenodd" stroke="none"/>
    </g>
    <g id="font_Lithos_Pro_Regular_a0">
      <path d="M226.5 -255.0 L476.5 -265.0 Q473.0 -271.5 460.0 -295.0 447.5 -318.5 430.0 -350.5 412.5 -382.5 395.0 -414.0 378.0 -445.5 365.0 -468.0 352.5 -490.5 349.5 -495.5 345.0 -488.5 332.5 -464.0 319.5 -439.5 303.0 -406.0 286.0 -373.0 269.5 -340.0 253.0 -307.0 241.0 -283.5 229.5 -260.0 226.5 -255.0 M93.5 18.5 L14.5 -26.5 Q27.5 -49.5 55.0 -100.0 83.0 -150.5 119.0 -216.5 155.0 -283.0 193.5 -353.0 231.5 -423.5 265.0 -485.0 299.0 -547.0 322.0 -589.0 345.0 -630.5 350.5 -640.0 L352.5 -640.0 Q376.5 -601.5 414.5 -538.0 452.0 -474.0 496.0 -399.0 540.0 -323.5 582.5 -250.0 625.5 -176.5 660.0 -119.0 694.0 -61.0 713.0 -32.5 L630.0 17.5 Q623.0 4.0 605.5 -28.5 587.5 -61.0 566.5 -99.0 545.5 -137.0 529.0 -166.5 512.0 -196.0 508.0 -202.5 L191.5 -190.5 Q186.5 -179.0 173.0 -150.5 159.5 -121.5 143.5 -86.5 127.0 -52.0 113.0 -23.0 99.0 6.5 93.5 18.5" fill-rule="evenodd" stroke="none"/>
    </g>
    <g id="font_Lithos_Pro_Regular_m0">
      <path d="M115.0 22.5 L31.0 -4.0 Q35.5 -14.5 51.5 -61.5 68.0 -108.0 91.0 -176.5 114.5 -245.0 140.0 -320.0 165.0 -395.0 187.5 -462.0 210.0 -529.0 224.5 -573.0 239.0 -617.5 241.0 -624.0 L245.0 -624.0 Q254.0 -606.5 276.0 -563.5 298.5 -521.0 327.5 -465.5 356.5 -410.5 385.5 -355.5 414.5 -300.5 437.0 -259.0 459.5 -217.0 468.0 -201.0 477.5 -216.5 502.5 -258.5 527.5 -300.0 560.0 -354.0 592.0 -408.0 623.5 -460.5 655.0 -513.0 677.5 -550.5 700.0 -588.0 705.5 -597.5 L708.5 -597.5 Q716.0 -579.0 732.5 -535.5 749.0 -492.5 771.5 -434.0 793.5 -375.5 818.0 -311.5 842.5 -247.5 865.5 -187.0 889.0 -127.0 907.0 -80.0 925.0 -33.0 935.0 -9.5 L850.0 22.5 Q843.0 1.5 826.0 -47.0 809.5 -95.5 787.5 -156.5 766.0 -218.0 745.0 -277.0 724.0 -336.5 708.5 -379.5 693.5 -422.0 689.5 -433.5 680.0 -418.0 657.5 -381.5 635.5 -345.5 606.5 -298.0 577.5 -250.5 548.0 -202.0 518.5 -153.5 494.5 -114.5 470.5 -75.5 458.0 -55.5 L456.0 -55.5 Q436.0 -93.0 408.0 -144.5 380.5 -196.5 351.0 -252.5 321.5 -308.0 295.5 -356.5 270.0 -405.0 254.0 -435.5 250.0 -421.0 239.0 -385.0 228.0 -349.0 213.0 -300.0 198.0 -251.5 182.0 -199.0 166.0 -146.5 151.5 -99.0 137.0 -52.0 127.5 -19.5 117.5 13.5 115.0 22.5" fill-rule="evenodd" stroke="none"/>
    </g>
    <g id="font_Lithos_Pro_Regular_e0">
      <path d="M458.5 -68.5 L461.5 9.5 Q451.5 9.5 417.0 8.5 383.0 7.5 337.5 6.0 292.0 5.0 247.0 3.5 202.0 2.0 170.5 1.0 138.5 0.0 132.0 0.0 133.0 -18.5 133.5 -56.0 134.5 -93.5 134.5 -136.0 135.0 -178.0 135.0 -211.0 135.0 -244.0 135.0 -252.5 L135.0 -368.5 Q135.0 -373.5 135.0 -397.5 134.5 -421.5 134.0 -454.5 134.0 -488.0 133.5 -521.5 133.0 -555.0 132.5 -579.5 132.5 -603.5 132.0 -609.5 139.5 -609.5 168.5 -611.0 197.5 -612.0 238.0 -614.5 278.5 -616.5 320.0 -618.5 362.0 -621.0 395.0 -623.0 428.5 -625.0 443.0 -626.0 L447.0 -552.0 Q431.0 -552.0 397.5 -551.5 364.0 -551.0 326.5 -550.0 288.5 -549.0 259.5 -548.5 231.0 -548.0 224.0 -548.0 L224.0 -334.5 Q231.0 -334.5 253.5 -335.0 276.0 -336.0 305.5 -337.0 335.5 -338.5 365.0 -340.0 394.5 -342.0 416.5 -343.5 L419.5 -269.0 Q407.0 -269.0 378.5 -269.5 350.5 -270.0 317.0 -271.0 284.5 -271.0 258.5 -271.5 232.5 -272.0 224.0 -272.0 L224.0 -65.5 Q233.0 -65.5 258.0 -65.0 283.0 -65.0 317.0 -65.0 351.5 -65.0 388.5 -66.0 425.5 -66.5 458.5 -68.5" fill-rule="evenodd" stroke="none"/>
    </g>
    <g id="text2" transform="matrix(1.0, 0.0, 0.0, 1.0, -51.35, 2.0)">
      <g transform="matrix(1.0, 0.0, 0.0, 1.0, 51.35, -2.0)">
        <use fill="#ffffff" height="35.25" transform="matrix(0.0098, 0.0, 0.0, 0.0098, 49.05, 7.2)" width="129.05" xlink:href="#font_Lithos_Pro_Regular_N0"/>
        <use fill="#ffffff" height="35.25" transform="matrix(0.0098, 0.0, 0.0, 0.0098, 58.2, 7.2)" width="129.05" xlink:href="#font_Lithos_Pro_Regular_a0"/>
        <use fill="#ffffff" height="35.25" transform="matrix(0.0098, 0.0, 0.0, 0.0098, 65.3, 7.2)" width="129.05" xlink:href="#font_Lithos_Pro_Regular_m0"/>
        <use fill="#ffffff" height="35.25" transform="matrix(0.0098, 0.0, 0.0, 0.0098, 74.7, 7.2)" width="129.05" xlink:href="#font_Lithos_Pro_Regular_e0"/>
      </g>
      <g transform="matrix(1.0, 0.0, 0.0, 1.0, 51.35, -2.0)">
        <use fill="#ffffff" height="35.25" transform="matrix(0.0098, 0.0, 0.0, 0.0098, 46.0, 16.95)" width="129.05" xlink:href="#font_Lithos_Pro_Regular_k0"/>
        <use fill="#ffffff" height="35.25" transform="matrix(0.0098, 0.0, 0.0, 0.0098, 52.6, 16.95)" width="129.05" xlink:href="#font_Lithos_Pro_Regular_j0"/>
        <use fill="#ffffff" height="35.25" transform="matrix(0.0098, 0.0, 0.0, 0.0098, 56.25, 16.95)" width="129.05" xlink:href="#font_Lithos_Pro_Regular_h0"/>
        <use fill="#ffffff" height="35.25" transform="matrix(0.0098, 0.0, 0.0, 0.0098, 64.5, 16.95)" width="129.05" xlink:href="#font_Lithos_Pro_Regular_k0"/>
        <use fill="#ffffff" height="35.25" transform="matrix(0.0098, 0.0, 0.0, 0.0098, 71.1, 16.95)" width="129.05" xlink:href="#font_Lithos_Pro_Regular_j0"/>
        <use fill="#ffffff" height="35.25" transform="matrix(0.0098, 0.0, 0.0, 0.0098, 74.75, 16.95)" width="129.05" xlink:href="#font_Lithos_Pro_Regular_h0"/>
      </g>
      <g transform="matrix(1.0, 0.0, 0.0, 1.0, 51.35, -2.0)">
        <use fill="#ffffff" height="35.25" transform="matrix(0.0098, 0.0, 0.0, 0.0098, 46.0, 26.7)" width="129.05" xlink:href="#font_Lithos_Pro_Regular_k0"/>
        <use fill="#ffffff" height="35.25" transform="matrix(0.0098, 0.0, 0.0, 0.0098, 52.6, 26.7)" width="129.05" xlink:href="#font_Lithos_Pro_Regular_j0"/>
        <use fill="#ffffff" height="35.25" transform="matrix(0.0098, 0.0, 0.0, 0.0098, 56.25, 26.7)" width="129.05" xlink:href="#font_Lithos_Pro_Regular_h0"/>
        <use fill="#ffffff" height="35.25" transform="matrix(0.0098, 0.0, 0.0, 0.0098, 64.5, 26.7)" width="129.05" xlink:href="#font_Lithos_Pro_Regular_k0"/>
        <use fill="#ffffff" height="35.25" transform="matrix(0.0098, 0.0, 0.0, 0.0098, 71.1, 26.7)" width="129.05" xlink:href="#font_Lithos_Pro_Regular_j0"/>
        <use fill="#ffffff" height="35.25" transform="matrix(0.0098, 0.0, 0.0, 0.0098, 74.75, 26.7)" width="129.05" xlink:href="#font_Lithos_Pro_Regular_h0"/>
      </g>
    </g>
    <g id="font_Lithos_Pro_Regular_k0">
      <path d="M621.5 -61.5 L558.0 8.5 Q553.5 4.0 523.0 -26.5 493.0 -56.5 449.0 -100.5 405.0 -144.0 359.5 -189.5 314.0 -235.5 278.5 -271.0 243.0 -306.5 230.0 -320.5 235.5 -326.0 265.5 -353.5 295.5 -381.5 337.5 -421.0 379.5 -460.5 421.5 -500.5 464.0 -540.5 495.0 -569.5 526.0 -599.0 533.0 -606.5 L587.5 -540.0 Q572.5 -528.5 540.0 -501.0 507.0 -473.5 467.0 -440.0 427.0 -406.0 392.0 -375.5 356.5 -345.0 336.5 -327.0 346.0 -316.0 373.5 -289.5 401.5 -262.5 438.5 -228.0 476.0 -193.5 513.5 -159.0 551.0 -124.5 580.5 -98.0 609.5 -72.0 621.5 -61.5 M228.0 9.5 L130.0 9.5 Q130.5 -1.0 131.5 -30.0 132.5 -59.0 133.0 -99.0 134.0 -139.5 134.5 -182.5 135.0 -225.5 135.0 -263.0 L135.0 -355.5 Q135.0 -385.0 134.0 -426.0 133.5 -466.5 132.5 -508.0 131.5 -549.5 130.5 -580.0 130.0 -610.5 130.0 -619.0 L228.0 -619.0 Q227.5 -612.5 227.0 -583.5 226.0 -554.5 225.0 -514.5 224.5 -474.0 223.5 -433.5 223.0 -393.0 223.0 -363.5 L223.0 -270.5 Q223.0 -244.0 223.5 -200.5 224.0 -157.5 225.0 -111.5 225.5 -66.0 226.5 -32.0 227.5 1.5 228.0 9.5" fill-rule="evenodd" stroke="none"/>
    </g>
    <g id="font_Lithos_Pro_Regular_j0">
      <path d="M258.0 -400.5 L258.0 -264.5 Q257.0 -170.0 230.5 -104.5 204.0 -39.5 161.5 1.0 119.0 41.5 70.5 61.5 L25.5 -7.5 Q70.0 -25.5 102.0 -57.0 134.0 -88.5 151.5 -139.5 169.0 -190.5 169.0 -266.5 L169.0 -402.5 Q169.0 -409.0 168.5 -438.0 168.0 -467.0 167.5 -503.5 166.5 -540.5 166.0 -570.5 165.5 -600.5 165.0 -609.5 L263.0 -609.5 Q262.0 -601.0 261.0 -571.5 259.5 -542.0 259.0 -497.5 258.0 -453.5 258.0 -400.5" fill-rule="evenodd" stroke="none"/>
    </g>
    <g id="font_Lithos_Pro_Regular_h0">
      <path d="M228.0 0.0 L132.0 0.0 Q132.5 -12.0 133.0 -40.0 133.5 -67.5 134.0 -103.0 134.5 -138.0 134.5 -172.0 135.0 -206.5 135.0 -231.5 135.0 -256.5 135.0 -264.0 L135.0 -358.0 Q135.0 -363.0 134.5 -388.0 134.5 -412.5 134.0 -447.0 133.5 -481.5 132.5 -516.5 132.0 -551.5 131.0 -577.0 130.5 -602.5 130.0 -609.5 L229.0 -609.5 Q228.5 -604.0 228.0 -583.0 227.0 -562.5 226.5 -533.5 225.5 -504.5 225.0 -476.0 224.5 -447.0 224.5 -426.0 224.0 -405.0 224.0 -400.0 L224.0 -336.5 618.5 -352.5 618.5 -418.5 Q618.5 -425.0 618.0 -451.5 618.0 -478.5 617.5 -512.0 617.0 -546.0 616.5 -573.5 616.0 -601.0 615.5 -609.5 L714.5 -609.5 Q714.0 -602.5 713.0 -574.5 712.0 -547.0 711.0 -509.0 710.5 -471.0 709.5 -432.5 708.5 -394.5 708.0 -367.0 707.5 -339.0 707.5 -332.0 L707.5 -245.5 Q707.5 -241.5 707.5 -217.0 708.0 -193.0 708.5 -159.0 708.5 -124.5 709.0 -90.0 710.0 -56.0 710.5 -31.0 711.0 -6.0 711.5 0.0 L613.5 0.0 Q614.5 -12.0 615.5 -41.5 616.5 -71.0 617.0 -105.0 618.0 -139.5 618.0 -166.5 618.5 -193.5 618.5 -200.5 L618.5 -288.5 224.0 -272.0 224.0 -219.0 Q224.0 -203.5 224.5 -171.0 225.0 -139.0 225.5 -102.5 226.5 -66.0 227.0 -37.5 227.5 -8.5 228.0 0.0" fill-rule="evenodd" stroke="none"/>
    </g>
  </defs>
</svg>
