<?xml version="1.0" encoding="UTF-8" standalone="no"?>
<svg xmlns:ffdec="https://www.free-decompiler.com/flash" xmlns:xlink="http://www.w3.org/1999/xlink" ffdec:objectType="frame" height="135.65px" width="129.65px" xmlns="http://www.w3.org/2000/svg">
  <g transform="matrix(1.0, 0.0, 0.0, 1.0, 45.0, 57.4)">
    <use ffdec:characterId="933" height="47.45" id="bgcolor" transform="matrix(1.0, 0.0, 0.0, 1.0, -4.2, -3.9)" width="47.45" xlink:href="#sprite0"/>
    <use ffdec:characterId="921" height="22.0" id="hitbox" transform="matrix(2.2297, 0.0, 0.0, 2.1749, -4.55, -4.25)" width="22.0" xlink:href="#sprite1"/>
    <clipPath id="clipPath0" transform="matrix(1.0, 0.0, 0.0, 1.0, 0.0, 0.0)">
      <path d="M40.0 0.0 L40.0 40.0 0.0 40.0 0.0 0.0 40.0 0.0" fill="#cccccc" fill-rule="evenodd" stroke="none"/>
    </clipPath>
    <g clip-path="url(#clipPath0)">
      <use ffdec:characterId="961" height="32.95" transform="matrix(1.0, 0.0, 0.0, 1.0, 4.05, 2.9)" width="33.75" xlink:href="#shape3"/>
    </g>
    <filter id="filter0">
      <feColorMatrix in="SourceGraphic" result="filterResult0" type="matrix" values="0 0 0 0 0.0,0 0 0 0 0.0,0 0 0 0 0.0,0 0 0 1 0"/>
      <feConvolveMatrix divisor="4.0" in="filterResult0" kernelMatrix="1 1 1 1" order="2 2" result="filterResult1"/>
      <feComposite in="SourceGraphic" in2="filterResult1" operator="over" result="filterResult2"/>
    </filter>
    <use ffdec:characterId="935" filter="url(#filter0)" height="15.75" id="txt_hotkey" transform="matrix(1.0, 0.0, 0.0, 1.0, -3.85, -0.1)" width="18.0" xlink:href="#text0"/>
    <use ffdec:characterId="948" ffdec:characterName="Army_fla.Hud_BgButton_151" height="97.6" id="bg" transform="matrix(1.0, 0.0, 0.0, 1.0, -29.05, -29.25)" width="97.6" xlink:href="#sprite2"/>
    <use ffdec:characterId="950" ffdec:characterName="Army_fla.Hud_cooldown_152" height="48.5" id="cdcover" transform="matrix(0.9979, 0.0, 0.0, 0.9897, -4.2, -3.9997)" width="48.1" xlink:href="#sprite3"/>
    <use ffdec:characterId="950" ffdec:characterName="Army_fla.Hud_cooldown_152" height="48.5" id="cd" transform="matrix(0.9979, 0.0, 0.0, 0.9897, -4.2, -3.9997)" width="48.1" xlink:href="#sprite3"/>
    <use ffdec:characterId="953" ffdec:characterName="Army_fla.Hud_Description_153" height="50.1" id="desc" transform="matrix(1.0, 0.0, 0.0, 1.0, -44.9, -57.4)" width="129.55" xlink:href="#sprite4"/>
  </g>
  <defs>
    <g id="sprite0" transform="matrix(1.0, 0.0, 0.0, 1.0, 0.0, 0.0)">
      <use ffdec:characterId="932" height="47.45" transform="matrix(1.0, 0.0, 0.0, 1.0, 0.0, 0.0)" width="47.45" xlink:href="#shape0"/>
    </g>
    <g id="shape0" transform="matrix(1.0, 0.0, 0.0, 1.0, 0.0, 0.0)">
      <path d="M47.45 0.0 L47.45 47.45 0.0 47.45 0.0 0.0 47.45 0.0" fill="#564732" fill-rule="evenodd" stroke="none"/>
    </g>
    <g id="sprite1" transform="matrix(1.0, 0.0, 0.0, 1.0, 0.0, 0.0)">
      <use ffdec:characterId="145" height="22.0" transform="matrix(1.0, 0.0, 0.0, 1.0, 0.0, 0.0)" width="22.0" xlink:href="#shape1"/>
    </g>
    <g id="shape1" transform="matrix(1.0, 0.0, 0.0, 1.0, 0.0, 0.0)">
      <path d="M22.0 0.0 L22.0 22.0 0.0 22.0 0.0 0.0 22.0 0.0" fill="#00ff00" fill-opacity="0.0" fill-rule="evenodd" stroke="none"/>
    </g>
    <g id="shape3" transform="matrix(1.0, 0.0, 0.0, 1.0, -4.05, -2.9)">
      <path d="M36.45 5.55 Q35.95 6.0 35.25 6.0 34.15 6.0 33.75 5.1 L33.6 4.35 Q33.6 2.85 35.25 2.9 36.9 2.9 36.9 4.4 L36.45 5.55 M31.1 12.15 Q30.05 12.15 29.6 11.15 L29.45 10.4 Q29.45 9.0 31.1 8.8 32.75 8.65 32.75 10.45 L32.3 11.6 Q31.85 12.15 31.1 12.15 M27.8 5.5 Q27.8 6.2 27.35 6.65 26.85 7.1 26.15 7.1 25.05 7.1 24.65 6.2 L24.5 5.4 Q24.5 3.9 26.15 4.0 27.8 4.05 27.8 5.5 M21.3 10.2 Q20.8 10.7 20.1 10.7 19.0 10.7 18.6 9.8 L18.45 9.0 Q18.45 7.45 20.1 7.55 21.75 7.7 21.75 9.1 21.75 9.75 21.3 10.2 M27.0 14.4 Q26.5 14.85 25.7 14.85 24.55 14.85 24.15 13.95 L24.0 13.2 Q24.0 11.5 25.75 11.5 27.45 11.5 27.45 13.2 27.45 13.95 27.0 14.4 M20.7 18.5 Q20.2 19.05 19.5 19.05 18.4 19.05 18.0 18.05 L17.85 17.3 Q17.85 15.75 19.5 15.85 21.15 15.9 21.15 17.35 21.15 18.0 20.7 18.5 M24.75 21.5 Q24.75 23.1 23.1 23.1 22.0 23.1 21.6 22.2 L21.45 21.45 Q21.45 19.95 23.1 20.0 24.75 20.0 24.75 21.5 M28.05 22.85 Q26.75 22.85 26.3 21.95 L26.15 21.15 Q26.15 19.5 28.1 19.5 30.0 19.5 30.0 21.25 30.0 22.85 28.05 22.85 M35.0 19.6 Q34.55 20.1 33.8 20.1 32.75 20.1 32.3 19.1 L32.15 18.45 Q32.15 16.9 33.8 16.95 35.45 16.95 35.45 18.45 35.45 19.15 35.0 19.6 M10.25 5.85 Q9.75 6.3 9.05 6.3 7.9 6.3 7.55 5.4 L7.4 4.65 Q7.4 2.85 9.05 3.1 10.7 3.35 10.7 4.65 10.7 5.35 10.25 5.85 M14.0 6.8 Q14.0 5.35 15.65 5.25 17.3 5.15 17.3 6.9 17.3 7.55 16.85 8.05 16.35 8.55 15.65 8.55 14.55 8.55 14.15 7.6 L14.0 6.8 M5.75 14.3 Q4.6 14.3 4.2 13.4 L4.05 12.6 Q4.05 11.05 5.75 11.15 7.4 11.3 7.4 12.7 7.4 13.35 6.9 13.8 6.4 14.3 5.75 14.3 M4.65 22.25 Q4.65 20.65 6.3 20.8 7.95 20.9 7.95 22.35 7.95 22.95 7.45 23.45 6.95 24.0 6.3 24.0 5.2 24.0 4.8 23.0 L4.65 22.25 M13.5 16.0 Q13.0 16.5 12.35 16.5 11.25 16.5 10.85 15.55 L10.7 14.85 Q10.7 13.3 12.35 13.35 14.0 13.4 14.0 14.9 14.0 15.55 13.5 16.0 M10.7 25.05 Q10.7 23.4 12.65 23.4 14.55 23.4 14.55 25.1 14.55 26.7 12.6 26.7 11.3 26.7 10.85 25.8 L10.7 25.05 M13.5 34.15 Q13.5 32.65 15.15 32.7 16.8 32.75 16.8 34.2 16.8 34.95 16.35 35.4 L15.15 35.85 Q14.05 35.85 13.65 34.85 L13.5 34.15 M19.25 30.3 Q19.25 28.75 20.9 28.8 22.55 28.85 22.55 30.35 22.55 31.0 22.1 31.45 21.65 31.95 20.9 31.95 19.8 31.95 19.4 31.05 L19.25 30.3 M7.95 31.7 Q7.95 32.4 7.45 32.85 7.0 33.35 6.3 33.35 5.2 33.35 4.8 32.4 L4.65 31.65 Q4.65 30.1 6.3 30.15 7.95 30.2 7.95 31.7 M36.15 27.0 Q35.0 27.0 34.55 26.0 L34.4 25.35 Q34.4 23.8 36.1 23.85 37.8 23.85 37.8 25.35 37.8 26.05 37.3 26.55 36.8 27.0 36.15 27.0 M34.2 32.3 Q33.7 32.85 33.05 32.85 31.95 32.85 31.55 31.85 L31.4 31.1 Q31.4 29.55 33.05 29.65 34.7 29.7 34.7 31.15 34.7 31.8 34.2 32.3 M27.15 27.15 L27.0 26.4 Q27.0 24.85 28.65 24.9 30.3 24.95 30.3 26.45 30.3 27.15 29.8 27.6 29.35 28.1 28.65 28.1 27.55 28.1 27.15 27.15 M24.15 32.5 Q24.15 30.85 26.1 30.85 28.05 30.85 28.05 32.55 28.05 34.2 26.1 34.2 24.8 34.2 24.3 33.2 L24.15 32.5" fill="#000033" fill-rule="evenodd" stroke="none"/>
    </g>
    <g id="sprite2" transform="matrix(1.0, 0.0, 0.0, 1.0, 29.05, 29.25)">
      <clipPath id="clipPath1" transform="matrix(1.0, 0.0, 0.0, 1.0, 0.0, 0.0)">
        <path d="M46.5 -7.45 L46.65 -7.3 46.7 -7.2 Q47.2 -9.05 47.4 -0.7 L47.5 18.6 47.4 42.5 47.4 42.8 47.35 48.6 -7.85 48.6 -7.95 42.8 -8.0 42.5 -8.0 -1.85 -7.35 -7.1 -7.3 -7.25 Q-7.15 -7.8 -7.0 -7.3 L-6.75 -7.35 -6.5 -7.4 -0.55 -7.7 18.75 -7.8 42.65 -7.7 44.9 -7.55 45.0 -7.55 46.5 -7.45 M40.0 40.0 L40.0 0.0 0.0 0.0 0.0 40.0 40.0 40.0" fill="#00ff00" fill-rule="evenodd" stroke="none"/>
      </clipPath>
      <g clip-path="url(#clipPath1)">
        <use ffdec:characterId="937" height="49.05" transform="matrix(1.0, 0.0, 0.0, 1.0, -5.2, -5.05)" width="49.95" xlink:href="#shape5"/>
      </g>
    </g>
    <g id="shape5" transform="matrix(1.0, 0.0, 0.0, 1.0, 5.2, 5.05)">
      <path d="M18.85 -5.05 L40.4 -5.0 42.4 -4.85 42.5 -4.85 43.85 -4.75 44.0 -4.6 44.05 -4.55 Q44.5 -6.2 44.65 1.3 L44.75 18.7 44.65 40.2 44.5 42.2 Q44.4 43.75 44.05 43.75 L43.8 43.55 42.9 43.75 40.4 44.0 0.45 44.0 -3.55 43.55 -3.6 43.55 -4.6 43.75 -4.95 42.7 -5.2 40.2 -5.2 0.3 -4.6 -4.45 -4.55 -4.55 Q-4.45 -5.05 -4.3 -4.6 L-4.05 -4.65 -3.85 -4.7 1.5 -5.0 18.85 -5.05 M36.4 1.65 L36.8 1.25 41.65 -3.2 42.1 -3.6 41.7 -3.65 41.6 -3.85 40.4 -3.7 0.45 -3.7 -3.0 -4.1 2.5 0.85 3.3 1.65 1.8 1.65 1.8 2.6 1.8 1.65 3.3 1.65 3.6 1.95 2.0 1.95 2.0 2.8 1.8 2.6 0.3 1.1 -3.9 -4.2 -4.2 -4.3 -3.95 1.3 -3.85 18.7 -3.95 40.2 -4.05 42.2 -4.05 42.5 -4.0 42.3 -3.6 41.8 -1.65 39.65 1.8 36.1 1.8 37.95 2.0 37.95 1.8 37.95 1.8 36.1 2.0 35.9 2.0 37.95 2.6 37.95 -0.4 40.9 -2.75 42.9 1.5 42.7 18.85 42.65 40.4 42.7 42.4 42.85 42.5 42.85 42.4 42.8 39.65 40.55 37.05 37.95 38.0 37.95 38.15 37.95 38.15 36.45 38.15 37.95 38.0 37.95 38.0 36.35 38.15 36.45 40.9 39.3 42.85 41.45 43.6 42.45 43.4 40.2 43.4 0.3 43.85 -3.65 43.8 -3.65 42.95 -3.5 42.8 -3.3 39.0 1.45 38.15 2.3 38.15 1.65 36.4 1.65 38.15 1.65 38.15 2.3 38.0 2.45 38.0 1.95 36.0 1.95 36.4 1.65" fill="#473a29" fill-rule="evenodd" stroke="none"/>
      <path d="M3.3 1.65 L2.5 0.85 -3.0 -4.1 0.45 -3.7 40.4 -3.7 41.6 -3.85 41.7 -3.65 42.1 -3.6 41.65 -3.2 36.8 1.25 36.4 1.65 3.3 1.65 36.4 1.65 36.0 1.95 3.6 1.95 3.3 1.65 M1.8 36.1 L-1.65 39.65 -3.6 41.8 -4.0 42.3 -4.05 42.2 -3.95 40.2 -3.85 18.7 -3.95 1.3 -4.2 -4.3 -3.9 -4.2 0.3 1.1 1.8 2.6 2.0 2.8 2.0 35.9 1.8 36.1 1.8 35.0 1.8 33.05 1.8 2.6 1.8 33.05 1.8 35.0 1.8 36.1" fill="#bfaf91" fill-rule="evenodd" stroke="none"/>
      <path d="M38.15 2.3 L39.0 1.45 42.8 -3.3 42.95 -3.5 43.8 -3.65 43.85 -3.65 43.4 0.3 43.4 40.2 43.6 42.45 42.85 41.45 40.9 39.3 38.15 36.45 38.15 2.3 38.15 36.45 38.0 36.35 38.0 2.45 38.15 2.3 M37.05 37.95 L39.65 40.55 42.4 42.8 42.4 42.85 40.4 42.7 18.85 42.65 1.5 42.7 -2.75 42.9 -0.4 40.9 2.6 37.95 26.5 37.95 Q27.1 37.75 27.6 37.95 L37.05 37.95" fill="#6c5b3e" fill-rule="evenodd" stroke="none"/>
      <path d="M3.3 1.65 L36.4 1.65 38.15 1.65 38.15 2.3 38.15 36.45 38.15 37.95 38.0 37.95 37.05 37.95 27.6 37.95 Q27.1 37.75 26.5 37.95 L2.6 37.95 2.0 37.95 1.8 37.95 1.8 36.1 1.8 35.0 1.8 33.05 1.8 2.6 1.8 1.65 3.3 1.65 Z" fill="none" stroke="#473a29" stroke-linecap="round" stroke-linejoin="round" stroke-opacity="0.49019608" stroke-width="1.0"/>
    </g>
    <g id="sprite3" transform="matrix(1.0, 0.0, 0.0, 1.0, 0.0, 48.5)">
      <use ffdec:characterId="949" height="340.0" transform="matrix(0.2505, 0.0, 0.0, 0.1427, 0.0114, -48.4851)" width="192.0" xlink:href="#shape6"/>
    </g>
    <g id="shape6" transform="matrix(1.0, 0.0, 0.0, 1.0, 2.15, 3.05)">
      <path d="M189.85 -3.05 L189.85 336.95 -2.15 336.95 -2.15 -3.05 189.85 -3.05" fill="#000000" fill-opacity="0.29803923" fill-rule="evenodd" stroke="none"/>
    </g>
    <g id="sprite4" transform="matrix(1.0, 0.0, 0.0, 1.0, 64.35, 49.9)">
      <use ffdec:characterId="58" height="400.0" transform="matrix(0.1796, 0.0, 0.0, 0.1248, -62.85, -49.9)" width="700.0" xlink:href="#shape7"/>
      <use ffdec:characterId="951" height="18.1" id="txt_name" transform="matrix(1.0, 0.0, 0.0, 1.0, -63.85, -49.05)" width="129.05" xlink:href="#text1"/>
      <use ffdec:characterId="952" height="35.25" id="txt_desc" transform="matrix(1.0, 0.0, 0.0, 1.0, -64.35, -35.05)" width="129.05" xlink:href="#text2"/>
    </g>
    <g id="shape7" transform="matrix(1.0, 0.0, 0.0, 1.0, 0.0, 0.0)">
      <path d="M700.0 400.0 L0.0 400.0 0.0 0.0 700.0 0.0 700.0 400.0" fill="#000000" fill-opacity="0.49803922" fill-rule="evenodd" stroke="none"/>
    </g>
    <g id="text1" transform="matrix(1.0, 0.0, 0.0, 1.0, -51.35, 2.0)">
      <g transform="matrix(1.0, 0.0, 0.0, 1.0, 51.35, -2.0)">
        <use fill="#ffffff" height="18.1" transform="matrix(0.0117, 0.0, 0.0, 0.0117, 45.95, 13.05)" width="129.05" xlink:href="#font_Lithos_Pro_Regular_N0"/>
        <use fill="#ffffff" height="18.1" transform="matrix(0.0117, 0.0, 0.0, 0.0117, 56.95, 13.05)" width="129.05" xlink:href="#font_Lithos_Pro_Regular_a0"/>
        <use fill="#ffffff" height="18.1" transform="matrix(0.0117, 0.0, 0.0, 0.0117, 65.45, 13.05)" width="129.05" xlink:href="#font_Lithos_Pro_Regular_m0"/>
        <use fill="#ffffff" height="18.1" transform="matrix(0.0117, 0.0, 0.0, 0.0117, 76.75, 13.05)" width="129.05" xlink:href="#font_Lithos_Pro_Regular_e0"/>
      </g>
    </g>
    <g id="font_Lithos_Pro_Regular_N0">
      <path d="M216.5 7.5 L120.0 0.0 Q121.5 -20.5 124.5 -75.5 127.0 -130.5 131.0 -207.0 135.0 -283.5 139.0 -368.0 143.0 -452.5 147.0 -531.5 151.0 -610.5 153.5 -670.5 156.5 -730.5 158.0 -758.0 L160.0 -758.0 Q168.0 -748.5 209.0 -705.5 249.5 -663.0 309.5 -600.0 370.0 -537.0 437.0 -467.5 503.5 -398.0 564.0 -335.0 624.5 -272.0 666.0 -229.5 707.5 -186.5 716.5 -177.0 716.5 -185.5 717.0 -225.0 717.5 -265.0 718.0 -323.5 719.0 -382.5 720.0 -447.5 720.5 -513.0 721.5 -572.0 722.5 -631.5 723.0 -672.0 723.5 -712.5 724.0 -722.0 L819.0 -716.5 Q818.0 -697.0 815.0 -641.0 812.5 -585.0 808.5 -504.5 805.0 -424.0 801.5 -332.0 798.0 -240.0 795.5 -148.5 792.5 -57.0 791.5 21.5 L789.5 21.5 Q781.5 13.5 739.5 -29.5 697.0 -72.5 635.0 -136.5 572.5 -200.5 504.0 -271.5 435.0 -342.5 373.5 -406.5 312.0 -470.0 271.5 -513.0 231.5 -555.5 225.5 -563.0 L223.5 -563.0 Q223.5 -553.0 223.0 -511.0 222.5 -468.5 221.5 -407.0 220.5 -345.0 219.5 -277.0 218.5 -209.0 217.5 -147.5 217.0 -86.0 216.5 -44.0 216.0 -2.0 216.5 7.5" fill-rule="evenodd" stroke="none"/>
    </g>
    <g id="font_Lithos_Pro_Regular_a0">
      <path d="M226.5 -255.0 L476.5 -265.0 Q473.0 -271.5 460.0 -295.0 447.5 -318.5 430.0 -350.5 412.5 -382.5 395.0 -414.0 378.0 -445.5 365.0 -468.0 352.5 -490.5 349.5 -495.5 345.0 -488.5 332.5 -464.0 319.5 -439.5 303.0 -406.0 286.0 -373.0 269.5 -340.0 253.0 -307.0 241.0 -283.5 229.5 -260.0 226.5 -255.0 M93.5 18.5 L14.5 -26.5 Q27.5 -49.5 55.0 -100.0 83.0 -150.5 119.0 -216.5 155.0 -283.0 193.5 -353.0 231.5 -423.5 265.0 -485.0 299.0 -547.0 322.0 -589.0 345.0 -630.5 350.5 -640.0 L352.5 -640.0 Q376.5 -601.5 414.5 -538.0 452.0 -474.0 496.0 -399.0 540.0 -323.5 582.5 -250.0 625.5 -176.5 660.0 -119.0 694.0 -61.0 713.0 -32.5 L630.0 17.5 Q623.0 4.0 605.5 -28.5 587.5 -61.0 566.5 -99.0 545.5 -137.0 529.0 -166.5 512.0 -196.0 508.0 -202.5 L191.5 -190.5 Q186.5 -179.0 173.0 -150.5 159.5 -121.5 143.5 -86.5 127.0 -52.0 113.0 -23.0 99.0 6.5 93.5 18.5" fill-rule="evenodd" stroke="none"/>
    </g>
    <g id="font_Lithos_Pro_Regular_m0">
      <path d="M115.0 22.5 L31.0 -4.0 Q35.5 -14.5 51.5 -61.5 68.0 -108.0 91.0 -176.5 114.5 -245.0 140.0 -320.0 165.0 -395.0 187.5 -462.0 210.0 -529.0 224.5 -573.0 239.0 -617.5 241.0 -624.0 L245.0 -624.0 Q254.0 -606.5 276.0 -563.5 298.5 -521.0 327.5 -465.5 356.5 -410.5 385.5 -355.5 414.5 -300.5 437.0 -259.0 459.5 -217.0 468.0 -201.0 477.5 -216.5 502.5 -258.5 527.5 -300.0 560.0 -354.0 592.0 -408.0 623.5 -460.5 655.0 -513.0 677.5 -550.5 700.0 -588.0 705.5 -597.5 L708.5 -597.5 Q716.0 -579.0 732.5 -535.5 749.0 -492.5 771.5 -434.0 793.5 -375.5 818.0 -311.5 842.5 -247.5 865.5 -187.0 889.0 -127.0 907.0 -80.0 925.0 -33.0 935.0 -9.5 L850.0 22.5 Q843.0 1.5 826.0 -47.0 809.5 -95.5 787.5 -156.5 766.0 -218.0 745.0 -277.0 724.0 -336.5 708.5 -379.5 693.5 -422.0 689.5 -433.5 680.0 -418.0 657.5 -381.5 635.5 -345.5 606.5 -298.0 577.5 -250.5 548.0 -202.0 518.5 -153.5 494.5 -114.5 470.5 -75.5 458.0 -55.5 L456.0 -55.5 Q436.0 -93.0 408.0 -144.5 380.5 -196.5 351.0 -252.5 321.5 -308.0 295.5 -356.5 270.0 -405.0 254.0 -435.5 250.0 -421.0 239.0 -385.0 228.0 -349.0 213.0 -300.0 198.0 -251.5 182.0 -199.0 166.0 -146.5 151.5 -99.0 137.0 -52.0 127.5 -19.5 117.5 13.5 115.0 22.5" fill-rule="evenodd" stroke="none"/>
    </g>
    <g id="font_Lithos_Pro_Regular_e0">
      <path d="M458.5 -68.5 L461.5 9.5 Q451.5 9.5 417.0 8.5 383.0 7.5 337.5 6.0 292.0 5.0 247.0 3.5 202.0 2.0 170.5 1.0 138.5 0.0 132.0 0.0 133.0 -18.5 133.5 -56.0 134.5 -93.5 134.5 -136.0 135.0 -178.0 135.0 -211.0 135.0 -244.0 135.0 -252.5 L135.0 -368.5 Q135.0 -373.5 135.0 -397.5 134.5 -421.5 134.0 -454.5 134.0 -488.0 133.5 -521.5 133.0 -555.0 132.5 -579.5 132.5 -603.5 132.0 -609.5 139.5 -609.5 168.5 -611.0 197.5 -612.0 238.0 -614.5 278.5 -616.5 320.0 -618.5 362.0 -621.0 395.0 -623.0 428.5 -625.0 443.0 -626.0 L447.0 -552.0 Q431.0 -552.0 397.5 -551.5 364.0 -551.0 326.5 -550.0 288.5 -549.0 259.5 -548.5 231.0 -548.0 224.0 -548.0 L224.0 -334.5 Q231.0 -334.5 253.5 -335.0 276.0 -336.0 305.5 -337.0 335.5 -338.5 365.0 -340.0 394.5 -342.0 416.5 -343.5 L419.5 -269.0 Q407.0 -269.0 378.5 -269.5 350.5 -270.0 317.0 -271.0 284.5 -271.0 258.5 -271.5 232.5 -272.0 224.0 -272.0 L224.0 -65.5 Q233.0 -65.5 258.0 -65.0 283.0 -65.0 317.0 -65.0 351.5 -65.0 388.5 -66.0 425.5 -66.5 458.5 -68.5" fill-rule="evenodd" stroke="none"/>
    </g>
    <g id="text2" transform="matrix(1.0, 0.0, 0.0, 1.0, -51.35, 2.0)">
      <g transform="matrix(1.0, 0.0, 0.0, 1.0, 51.35, -2.0)">
        <use fill="#ffffff" height="35.25" transform="matrix(0.0098, 0.0, 0.0, 0.0098, 49.05, 7.2)" width="129.05" xlink:href="#font_Lithos_Pro_Regular_N0"/>
        <use fill="#ffffff" height="35.25" transform="matrix(0.0098, 0.0, 0.0, 0.0098, 58.2, 7.2)" width="129.05" xlink:href="#font_Lithos_Pro_Regular_a0"/>
        <use fill="#ffffff" height="35.25" transform="matrix(0.0098, 0.0, 0.0, 0.0098, 65.3, 7.2)" width="129.05" xlink:href="#font_Lithos_Pro_Regular_m0"/>
        <use fill="#ffffff" height="35.25" transform="matrix(0.0098, 0.0, 0.0, 0.0098, 74.7, 7.2)" width="129.05" xlink:href="#font_Lithos_Pro_Regular_e0"/>
      </g>
      <g transform="matrix(1.0, 0.0, 0.0, 1.0, 51.35, -2.0)">
        <use fill="#ffffff" height="35.25" transform="matrix(0.0098, 0.0, 0.0, 0.0098, 46.0, 16.95)" width="129.05" xlink:href="#font_Lithos_Pro_Regular_k0"/>
        <use fill="#ffffff" height="35.25" transform="matrix(0.0098, 0.0, 0.0, 0.0098, 52.6, 16.95)" width="129.05" xlink:href="#font_Lithos_Pro_Regular_j0"/>
        <use fill="#ffffff" height="35.25" transform="matrix(0.0098, 0.0, 0.0, 0.0098, 56.25, 16.95)" width="129.05" xlink:href="#font_Lithos_Pro_Regular_h0"/>
        <use fill="#ffffff" height="35.25" transform="matrix(0.0098, 0.0, 0.0, 0.0098, 64.5, 16.95)" width="129.05" xlink:href="#font_Lithos_Pro_Regular_k0"/>
        <use fill="#ffffff" height="35.25" transform="matrix(0.0098, 0.0, 0.0, 0.0098, 71.1, 16.95)" width="129.05" xlink:href="#font_Lithos_Pro_Regular_j0"/>
        <use fill="#ffffff" height="35.25" transform="matrix(0.0098, 0.0, 0.0, 0.0098, 74.75, 16.95)" width="129.05" xlink:href="#font_Lithos_Pro_Regular_h0"/>
      </g>
      <g transform="matrix(1.0, 0.0, 0.0, 1.0, 51.35, -2.0)">
        <use fill="#ffffff" height="35.25" transform="matrix(0.0098, 0.0, 0.0, 0.0098, 46.0, 26.7)" width="129.05" xlink:href="#font_Lithos_Pro_Regular_k0"/>
        <use fill="#ffffff" height="35.25" transform="matrix(0.0098, 0.0, 0.0, 0.0098, 52.6, 26.7)" width="129.05" xlink:href="#font_Lithos_Pro_Regular_j0"/>
        <use fill="#ffffff" height="35.25" transform="matrix(0.0098, 0.0, 0.0, 0.0098, 56.25, 26.7)" width="129.05" xlink:href="#font_Lithos_Pro_Regular_h0"/>
        <use fill="#ffffff" height="35.25" transform="matrix(0.0098, 0.0, 0.0, 0.0098, 64.5, 26.7)" width="129.05" xlink:href="#font_Lithos_Pro_Regular_k0"/>
        <use fill="#ffffff" height="35.25" transform="matrix(0.0098, 0.0, 0.0, 0.0098, 71.1, 26.7)" width="129.05" xlink:href="#font_Lithos_Pro_Regular_j0"/>
        <use fill="#ffffff" height="35.25" transform="matrix(0.0098, 0.0, 0.0, 0.0098, 74.75, 26.7)" width="129.05" xlink:href="#font_Lithos_Pro_Regular_h0"/>
      </g>
    </g>
    <g id="font_Lithos_Pro_Regular_k0">
      <path d="M621.5 -61.5 L558.0 8.5 Q553.5 4.0 523.0 -26.5 493.0 -56.5 449.0 -100.5 405.0 -144.0 359.5 -189.5 314.0 -235.5 278.5 -271.0 243.0 -306.5 230.0 -320.5 235.5 -326.0 265.5 -353.5 295.5 -381.5 337.5 -421.0 379.5 -460.5 421.5 -500.5 464.0 -540.5 495.0 -569.5 526.0 -599.0 533.0 -606.5 L587.5 -540.0 Q572.5 -528.5 540.0 -501.0 507.0 -473.5 467.0 -440.0 427.0 -406.0 392.0 -375.5 356.5 -345.0 336.5 -327.0 346.0 -316.0 373.5 -289.5 401.5 -262.5 438.5 -228.0 476.0 -193.5 513.5 -159.0 551.0 -124.5 580.5 -98.0 609.5 -72.0 621.5 -61.5 M228.0 9.5 L130.0 9.5 Q130.5 -1.0 131.5 -30.0 132.5 -59.0 133.0 -99.0 134.0 -139.5 134.5 -182.5 135.0 -225.5 135.0 -263.0 L135.0 -355.5 Q135.0 -385.0 134.0 -426.0 133.5 -466.5 132.5 -508.0 131.5 -549.5 130.5 -580.0 130.0 -610.5 130.0 -619.0 L228.0 -619.0 Q227.5 -612.5 227.0 -583.5 226.0 -554.5 225.0 -514.5 224.5 -474.0 223.5 -433.5 223.0 -393.0 223.0 -363.5 L223.0 -270.5 Q223.0 -244.0 223.5 -200.5 224.0 -157.5 225.0 -111.5 225.5 -66.0 226.5 -32.0 227.5 1.5 228.0 9.5" fill-rule="evenodd" stroke="none"/>
    </g>
    <g id="font_Lithos_Pro_Regular_j0">
      <path d="M258.0 -400.5 L258.0 -264.5 Q257.0 -170.0 230.5 -104.5 204.0 -39.5 161.5 1.0 119.0 41.5 70.5 61.5 L25.5 -7.5 Q70.0 -25.5 102.0 -57.0 134.0 -88.5 151.5 -139.5 169.0 -190.5 169.0 -266.5 L169.0 -402.5 Q169.0 -409.0 168.5 -438.0 168.0 -467.0 167.5 -503.5 166.5 -540.5 166.0 -570.5 165.5 -600.5 165.0 -609.5 L263.0 -609.5 Q262.0 -601.0 261.0 -571.5 259.5 -542.0 259.0 -497.5 258.0 -453.5 258.0 -400.5" fill-rule="evenodd" stroke="none"/>
    </g>
    <g id="font_Lithos_Pro_Regular_h0">
      <path d="M228.0 0.0 L132.0 0.0 Q132.5 -12.0 133.0 -40.0 133.5 -67.5 134.0 -103.0 134.5 -138.0 134.5 -172.0 135.0 -206.5 135.0 -231.5 135.0 -256.5 135.0 -264.0 L135.0 -358.0 Q135.0 -363.0 134.5 -388.0 134.5 -412.5 134.0 -447.0 133.5 -481.5 132.5 -516.5 132.0 -551.5 131.0 -577.0 130.5 -602.5 130.0 -609.5 L229.0 -609.5 Q228.5 -604.0 228.0 -583.0 227.0 -562.5 226.5 -533.5 225.5 -504.5 225.0 -476.0 224.5 -447.0 224.5 -426.0 224.0 -405.0 224.0 -400.0 L224.0 -336.5 618.5 -352.5 618.5 -418.5 Q618.5 -425.0 618.0 -451.5 618.0 -478.5 617.5 -512.0 617.0 -546.0 616.5 -573.5 616.0 -601.0 615.5 -609.5 L714.5 -609.5 Q714.0 -602.5 713.0 -574.5 712.0 -547.0 711.0 -509.0 710.5 -471.0 709.5 -432.5 708.5 -394.5 708.0 -367.0 707.5 -339.0 707.5 -332.0 L707.5 -245.5 Q707.5 -241.5 707.5 -217.0 708.0 -193.0 708.5 -159.0 708.5 -124.5 709.0 -90.0 710.0 -56.0 710.5 -31.0 711.0 -6.0 711.5 0.0 L613.5 0.0 Q614.5 -12.0 615.5 -41.5 616.5 -71.0 617.0 -105.0 618.0 -139.5 618.0 -166.5 618.5 -193.5 618.5 -200.5 L618.5 -288.5 224.0 -272.0 224.0 -219.0 Q224.0 -203.5 224.5 -171.0 225.0 -139.0 225.5 -102.5 226.5 -66.0 227.0 -37.5 227.5 -8.5 228.0 0.0" fill-rule="evenodd" stroke="none"/>
    </g>
  </defs>
</svg>
