<?xml version="1.0" encoding="UTF-8" standalone="no"?>
<svg xmlns:ffdec="https://www.free-decompiler.com/flash" xmlns:xlink="http://www.w3.org/1999/xlink" ffdec:objectType="frame" height="152.55px" width="267.25px" xmlns="http://www.w3.org/2000/svg">
  <g transform="matrix(1.0, 0.0, 0.0, 1.0, 121.65, 148.6)">
    <use ffdec:characterId="300" height="26.8" transform="matrix(1.0, 0.0, 0.0, 1.0, -38.55, -25.6)" width="61.5" xlink:href="#shape0"/>
    <use ffdec:characterId="196" height="60.5" transform="matrix(0.7071, 0.7071, -0.7071, 0.7071, -15.0049, -91.2385)" width="40.25" xlink:href="#shape1"/>
    <use ffdec:characterId="297" height="65.85" transform="matrix(1.0, 0.0, 0.0, 1.0, -30.6, -77.15)" width="68.5" xlink:href="#shape2"/>
    <use ffdec:characterId="198" height="55.8" transform="matrix(0.6254, 0.7799, -0.7799, 0.6254, 51.2031, -112.6426)" width="74.05" xlink:href="#shape3"/>
    <use ffdec:characterId="199" height="46.8" transform="matrix(0.9989, -0.024, 0.0213, 0.8849, 10.5992, -48.4505)" width="25.3" xlink:href="#shape4"/>
    <use ffdec:characterId="200" height="100.35" transform="matrix(0.1137, 0.9931, -0.9931, 0.1137, 104.2377, -37.7092)" width="26.0" xlink:href="#shape5"/>
  </g>
  <defs>
    <g id="shape0" transform="matrix(1.0, 0.0, 0.0, 1.0, 38.0, 30.3)">
      <path d="M13.3 -24.95 Q10.75 -25.15 11.0 -21.85 L11.0 -18.85 11.0 -15.85 Q11.25 -13.05 10.55 -10.05 9.95 -7.4 8.75 -5.25 L14.0 -5.65 14.5 -5.7 14.55 -5.7 15.0 -5.7 15.35 -5.75 15.55 -5.75 16.4 -5.85 16.65 -5.85 16.65 -6.15 16.65 -6.25 Q16.9 -8.65 17.65 -10.05 L17.7 -10.3 17.75 -10.6 17.9 -11.75 17.95 -11.95 18.0 -12.3 18.0 -12.55 18.05 -12.75 18.05 -12.85 18.5 -16.5 Q18.5 -20.8 17.5 -22.95 16.9 -24.25 16.0 -25.15 L13.3 -24.95 M16.3 -28.0 L19.25 -24.5 Q20.3 -22.1 20.5 -20.4 L20.5 -16.6 20.3 -14.75 19.8 -13.35 21.45 -10.0 23.15 -6.45 23.3 -6.35 23.5 -5.5 22.5 -4.5 21.65 -4.3 21.55 -4.25 18.0 -4.0 17.9 -4.0 17.6 -4.0 17.0 -4.0 16.8 -4.0 16.5 -4.05 16.5 -3.5 2.8 -3.5 2.65 -3.6 2.55 -4.0 2.35 -4.0 1.8 -4.0 1.75 -4.05 Q0.35 -4.25 0.0 -5.4 -0.2 -6.1 0.0 -6.85 0.0 -8.65 1.25 -10.45 2.5 -12.25 2.5 -14.0 2.5 -15.4 1.0 -16.5 L0.45 -16.9 -2.5 -17.05 -2.5 -16.6 -3.0 -16.2 -3.0 -14.9 Q-3.0 -12.95 -3.3 -11.15 L-3.45 -10.25 -3.85 -10.1 -4.05 -10.0 Q-4.25 -8.75 -5.4 -7.75 L-6.8 -6.85 Q-9.0 -5.0 -11.25 -5.0 L-11.7 -5.1 -11.75 -4.9 -11.9 -4.9 -16.25 -4.4 -23.35 -5.25 -29.45 -5.75 -32.95 -5.1 -36.4 -4.5 -38.0 -4.75 -38.0 -8.85 -36.65 -10.95 -36.45 -11.1 -36.5 -11.2 -36.6 -12.3 Q-36.6 -14.95 -34.75 -18.55 -32.95 -22.1 -30.7 -23.75 L-28.2 -26.35 Q-27.4 -26.85 -23.7 -25.5 -19.55 -22.65 -16.2 -22.55 L-8.75 -23.0 -5.25 -22.8 -5.3 -23.35 Q-5.3 -24.85 -3.3 -26.55 L-2.6 -27.05 Q1.25 -29.7 7.25 -29.25 7.85 -30.0 9.7 -30.25 12.85 -30.65 16.3 -28.0 M19.15 -9.2 L18.5 -7.75 17.75 -6.4 20.7 -6.5 19.6 -8.3 19.15 -9.2 M-32.2 -18.65 Q-34.1 -14.8 -34.65 -11.9 L-33.6 -12.0 Q-30.65 -12.0 -30.6 -10.6 -31.05 -8.95 -30.95 -8.35 L-22.8 -7.5 -15.2 -6.5 Q-15.45 -7.35 -15.25 -8.45 L-14.5 -11.8 Q-14.5 -13.6 -31.6 -19.7 L-32.2 -18.65 M-36.1 -6.75 L-32.95 -7.75 -32.95 -9.85 Q-34.75 -9.85 -35.45 -8.8 L-36.15 -7.1 -36.15 -6.75 -36.1 -6.75 M-13.25 -5.3 L-13.15 -5.6 -13.4 -5.4 -13.25 -5.3" fill="#000000" fill-rule="evenodd" stroke="none"/>
      <path d="M13.3 -24.95 L16.0 -25.15 Q16.9 -24.25 17.5 -22.95 18.5 -20.8 18.5 -16.5 L18.05 -12.85 18.05 -12.75 18.0 -12.55 18.0 -12.3 17.95 -11.95 17.9 -11.75 17.75 -10.6 17.7 -10.3 17.65 -10.05 Q16.9 -8.65 16.65 -6.25 L16.65 -6.15 16.65 -5.85 16.4 -5.85 15.55 -5.75 15.35 -5.75 15.0 -5.7 14.55 -5.7 14.5 -5.7 14.0 -5.65 8.75 -5.25 Q9.95 -7.4 10.55 -10.05 11.25 -13.05 11.0 -15.85 L11.0 -18.85 11.0 -21.85 Q10.75 -25.15 13.3 -24.95 M-36.15 -7.1 L-35.45 -8.8 Q-34.75 -9.85 -32.95 -9.85 L-32.95 -7.75 -36.1 -6.75 -36.15 -7.1 M-32.2 -18.65 L-31.6 -19.7 Q-14.5 -13.6 -14.5 -11.8 L-15.25 -8.45 Q-15.45 -7.35 -15.2 -6.5 L-22.8 -7.5 -30.95 -8.35 Q-31.05 -8.95 -30.6 -10.6 -30.65 -12.0 -33.6 -12.0 L-34.65 -11.9 Q-34.1 -14.8 -32.2 -18.65 M19.15 -9.2 L19.6 -8.3 20.7 -6.5 17.75 -6.4 18.5 -7.75 19.15 -9.2" fill="#5b6171" fill-rule="evenodd" stroke="none"/>
    </g>
    <g id="shape1" transform="matrix(1.0, 0.0, 0.0, 1.0, 12.9, 30.5)">
      <path d="M27.0 -30.0 L27.0 -29.8 27.0 -29.5 27.2 -28.15 27.1 -28.0 26.65 -28.0 26.65 -27.95 27.05 -23.85 27.05 26.15 27.0 26.25 27.25 26.4 27.35 26.55 Q26.65 27.55 26.55 28.85 L26.35 28.85 26.05 29.5 25.95 28.9 24.45 28.95 Q10.85 29.0 -10.4 29.5 L-11.15 29.25 -11.4 28.4 Q-11.7 29.7 -11.9 30.0 -12.7 24.65 -12.85 15.95 L-12.9 0.95 -12.9 -15.0 Q-12.8 -25.7 -12.0 -29.55 L-11.9 -30.0 -11.75 -29.65 -11.75 -29.6 -11.75 -29.55 -11.7 -29.45 -11.65 -29.6 -6.45 -29.9 25.95 -30.0 26.05 -30.5 26.2 -30.05 26.2 -30.0 27.0 -30.0 M22.5 -27.9 L22.5 26.35 25.65 26.2 Q25.2 21.65 25.1 15.45 L25.05 0.45 25.05 -15.5 Q25.1 -23.8 25.65 -27.95 L22.5 -27.9 M20.0 -15.55 L19.75 -23.0 Q19.8 -26.35 20.6 -27.9 L-7.15 -27.55 Q-6.75 -25.95 -6.75 -23.95 L-6.9 -18.35 -6.9 -14.4 -6.4 -14.5 20.05 -14.5 20.0 -15.55 M-6.6 -5.25 L-5.9 -6.0 0.25 -6.0 0.25 -6.8 0.2 -8.1 0.25 -8.35 0.05 -8.35 0.0 -9.15 0.05 -10.0 0.25 -10.35 4.1 -10.5 4.3 -10.35 4.4 -10.25 4.8 -10.05 5.0 -9.75 5.0 -6.0 10.6 -6.0 11.0 -7.4 11.0 -7.75 11.45 -7.95 11.5 -8.0 11.55 -8.0 Q14.0 -8.95 14.75 -6.05 L14.75 -6.0 20.3 -6.0 20.1 -12.4 8.5 -12.0 -6.9 -12.5 -6.9 -7.1 -6.9 -5.3 -6.85 -4.35 -6.6 -5.25 M5.0 -2.1 L4.95 2.25 4.85 3.1 7.1 3.1 10.5 3.1 10.5 0.5 10.55 0.5 10.5 -2.3 10.5 -3.5 7.0 -3.5 5.0 -3.5 5.0 -2.1 M15.0 -1.5 L15.0 2.05 14.9 2.65 15.0 3.15 17.6 3.25 20.5 3.5 20.35 -3.7 15.0 -3.55 15.0 -1.5 M-6.4 12.4 Q-6.35 11.4 -3.05 11.05 3.0 10.35 20.45 11.0 L20.5 6.0 15.75 5.55 14.8 5.5 14.65 5.75 Q14.1 6.5 12.5 6.5 L11.0 6.25 11.0 5.35 4.65 5.25 4.4 5.25 4.3 5.5 4.35 5.5 4.6 5.5 5.0 6.5 4.15 7.1 Q3.35 7.5 2.5 7.5 L0.0 7.25 0.0 5.25 -2.3 5.25 -6.7 4.95 -6.5 12.35 -6.4 15.3 -6.5 26.8 3.0 26.5 20.9 26.4 Q20.35 24.6 20.35 22.4 L20.5 16.8 20.45 13.55 20.45 13.5 20.45 13.35 20.0 13.5 -6.05 13.5 -6.2 13.35 -6.4 12.4 M0.0 -3.65 L-0.3 -3.65 -6.85 -4.05 -6.75 3.6 -3.0 3.25 0.0 3.15 0.0 -3.65 M-10.9 -27.5 L-11.3 -27.5 -11.3 -27.45 -10.9 -23.35 -10.9 26.65 -11.05 27.05 -10.85 27.05 -8.1 26.9 Q-8.55 25.4 -8.55 23.35 L-8.4 18.05 -8.45 12.85 -8.4 7.55 Q-8.9 -2.1 -8.9 -12.85 L-8.95 -16.55 -8.9 -21.6 -9.05 -25.75 -8.9 -27.5 -10.9 -27.5" fill="#000000" fill-rule="evenodd" stroke="none"/>
      <path d="M4.6 5.5 L4.35 5.5 4.4 5.25 4.65 5.25 4.6 5.5 M-6.5 12.35 L-6.4 12.4 -6.5 12.35" fill="#71695b" fill-rule="evenodd" stroke="none"/>
      <path d="M20.0 -15.55 L20.05 -14.5 -6.4 -14.5 -6.9 -14.4 -6.9 -18.35 -6.75 -23.95 Q-6.75 -25.95 -7.15 -27.55 L20.6 -27.9 Q19.8 -26.35 19.75 -23.0 L20.0 -15.55 M15.0 -1.5 L15.0 -3.55 20.35 -3.7 20.5 3.5 17.6 3.25 15.0 3.15 14.9 2.65 15.0 2.05 15.0 -1.5 M5.0 -2.1 L5.0 -3.5 7.0 -3.5 10.5 -3.5 10.5 -2.3 10.55 0.5 10.5 0.5 10.5 3.1 7.1 3.1 4.85 3.1 4.95 2.25 5.0 -2.1 M-6.4 12.4 L-6.2 13.35 -6.05 13.5 20.0 13.5 20.45 13.5 20.45 13.55 20.5 16.8 20.35 22.4 Q20.35 24.6 20.9 26.4 L3.0 26.5 -6.5 26.8 -6.4 15.3 -6.5 12.35 -6.4 12.4 M0.0 -3.65 L0.0 3.15 -3.0 3.25 -6.75 3.6 -6.85 -4.05 -0.3 -3.65 0.0 -3.65" fill="#3b3b3b" fill-rule="evenodd" stroke="none"/>
      <path d="M-6.9 -5.3 L-6.9 -7.1 -6.9 -12.5 8.5 -12.0 20.1 -12.4 20.3 -6.0 14.75 -6.0 14.75 -6.05 Q14.0 -8.95 11.55 -8.0 L11.5 -8.0 11.45 -7.95 11.0 -7.75 11.0 -7.4 10.6 -6.0 5.0 -6.0 5.0 -9.75 4.8 -10.05 4.4 -10.25 4.3 -10.35 4.1 -10.5 0.25 -10.35 0.05 -10.0 0.0 -9.15 0.05 -8.35 0.25 -8.35 0.2 -8.1 0.25 -6.8 0.25 -6.0 -5.9 -6.0 -6.6 -5.25 -6.9 -5.3 M4.65 5.25 L11.0 5.35 11.0 6.25 12.5 6.5 Q14.1 6.5 14.65 5.75 L14.8 5.5 15.75 5.55 20.5 6.0 20.45 11.0 Q3.0 10.35 -3.05 11.05 -6.35 11.4 -6.4 12.4 L-6.5 12.35 -6.7 4.95 -2.3 5.25 0.0 5.25 0.0 7.25 2.5 7.5 Q3.35 7.5 4.15 7.1 L5.0 6.5 4.6 5.5 4.65 5.25" fill="#413d34" fill-rule="evenodd" stroke="none"/>
      <path d="M22.5 -27.9 L25.65 -27.95 Q25.1 -23.8 25.05 -15.5 L25.05 0.45 25.1 15.45 Q25.2 21.65 25.65 26.2 L22.5 26.35 22.5 -27.9 M-11.3 -27.45 L-10.9 -27.5 -8.9 -27.5 -9.05 -25.75 -8.9 -21.6 -8.95 -16.55 -8.9 -12.85 Q-8.9 -2.1 -8.4 7.55 L-8.45 12.85 -8.4 18.05 -8.55 23.35 Q-8.55 25.4 -8.1 26.9 L-10.85 27.05 -10.9 26.65 -10.9 -23.35 -11.3 -27.45" fill="#731c02" fill-rule="evenodd" stroke="none"/>
    </g>
    <g id="shape2" transform="matrix(1.0, 0.0, 0.0, 1.0, 24.5, 28.35)">
      <path d="M21.3 -25.85 L21.5 -25.0 21.1 -24.55 23.95 -22.25 Q25.7 -20.65 26.5 -18.85 L26.3 -18.3 29.9 -15.75 Q33.5 -12.55 33.5 -11.8 L33.5 -11.65 33.85 -11.45 34.55 -11.25 34.95 -10.6 36.75 -8.9 Q42.5 -3.0 42.5 -0.85 L42.5 -0.45 43.05 0.6 Q44.0 2.8 44.0 9.15 L43.85 12.2 43.45 12.45 43.5 13.25 Q43.5 14.95 39.75 18.75 L34.5 23.5 33.75 23.25 33.55 22.9 32.05 21.6 30.25 20.05 Q27.95 19.5 27.3 19.1 L27.1 18.95 27.05 19.2 26.1 19.65 22.05 21.6 Q23.2 23.15 25.4 27.6 28.0 32.85 28.0 33.75 L27.95 35.3 Q27.65 36.3 26.5 36.5 L26.35 36.2 Q26.15 36.2 26.05 36.5 L10.45 36.1 -8.5 37.0 -21.4 37.0 -22.0 37.5 -22.7 37.15 -22.8 37.0 -23.1 37.0 -23.3 36.85 Q-23.5 36.65 -23.5 35.9 -23.5 35.6 -22.9 35.5 L-22.0 31.6 -20.85 27.5 -19.8 25.2 -18.5 23.0 -18.3 20.6 Q-18.05 19.85 -17.45 19.85 L-17.5 19.05 Q-17.5 14.65 -16.45 10.45 -15.65 7.05 -14.3 4.35 L-16.0 4.5 Q-21.7 4.5 -23.6 0.75 -24.5 -0.95 -24.5 -3.9 L-23.75 -10.1 Q-23.0 -15.8 -23.0 -16.85 -22.6 -20.1 -19.75 -23.35 -16.15 -27.35 -11.0 -27.5 L-11.0 -28.25 Q-7.0 -28.7 1.4 -27.35 8.95 -26.2 11.05 -25.25 L11.15 -25.05 Q16.5 -26.95 21.05 -26.0 21.2 -25.9 21.3 -25.85 M19.45 -24.05 L14.0 -23.5 11.65 -23.0 10.0 -22.5 Q8.7 -22.1 7.55 -21.4 L5.25 -19.85 Q4.0 -18.95 2.65 -17.5 L0.55 -15.4 1.5 -13.05 2.4 -10.7 Q4.4 -12.65 9.4 -14.95 16.55 -18.25 22.5 -18.55 L22.5 -19.25 23.0 -19.25 21.55 -20.75 Q19.5 -23.25 19.5 -23.65 L19.5 -24.05 19.45 -24.05 M5.6 -24.2 L0.8 -25.25 -4.25 -25.1 Q-7.55 -25.15 -9.5 -26.05 L-10.0 -21.8 -10.5 -17.4 -10.35 -12.65 Q-9.6 -11.0 -8.4 -7.3 L-6.85 -7.3 -6.75 -7.45 -5.2 -9.3 Q-3.0 -11.6 -0.5 -12.55 L-1.0 -14.4 -0.9 -15.4 -1.0 -16.15 Q-1.0 -18.95 6.4 -22.95 L8.0 -23.75 5.6 -24.2 M-2.2 -2.7 Q0.9 -0.3 3.05 0.75 L7.0 3.15 Q7.05 2.2 8.05 1.5 L7.7 0.85 Q6.25 -0.2 4.8 -3.05 3.7 -5.2 3.1 -7.45 2.6 -7.05 2.0 -7.0 L1.25 -7.3 1.15 -7.45 Q1.0 -7.7 1.0 -8.15 L0.5 -8.25 Q0.7 -8.95 0.15 -10.75 L-5.5 -4.95 -4.35 -4.35 -2.85 -3.25 -2.2 -2.7 M10.0 -1.0 L10.65 -0.5 Q13.4 -3.55 17.25 -6.25 24.6 -11.45 30.4 -11.75 L27.8 -13.9 24.2 -16.95 15.0 -14.3 Q5.7 -11.65 4.25 -9.75 5.1 -8.9 5.45 -7.6 6.0 -5.65 6.75 -4.5 L8.55 -2.25 9.75 -0.95 10.0 -1.0 M17.3 -3.5 L12.4 0.3 10.95 1.8 10.75 2.05 Q11.15 2.4 10.5 2.5 10.0 3.35 10.2 4.15 12.4 5.35 14.95 8.25 17.5 11.1 18.45 12.7 19.65 10.3 24.15 6.2 29.3 1.45 32.5 -0.35 36.85 -2.9 39.55 -2.45 L39.15 -3.15 Q36.5 -7.75 31.55 -9.6 L31.5 -9.6 29.6 -9.2 Q24.75 -8.25 22.55 -6.75 L19.75 -5.05 17.3 -3.5 M30.5 17.85 Q33.05 19.25 34.25 20.85 L35.55 19.8 Q38.3 18.1 39.5 16.5 39.95 15.9 40.8 13.3 41.3 12.15 42.0 11.8 L42.0 6.45 Q41.2 8.45 39.05 11.25 35.8 15.5 31.75 16.6 L30.3 17.45 Q30.15 17.5 30.05 17.6 L30.0 17.6 30.5 17.85 M24.9 17.25 L26.05 16.8 Q24.8 16.5 24.0 16.0 L22.5 14.55 22.5 10.85 Q20.7 13.05 19.0 15.5 L18.7 15.45 18.45 15.5 Q22.7 16.9 24.0 17.65 L24.9 17.25 M-8.9 5.95 Q-8.3 6.2 -7.6 6.55 -0.95 10.0 2.25 10.75 6.25 11.65 14.6 14.25 L17.45 15.15 13.15 10.7 10.9 8.2 Q8.05 6.7 2.0 2.5 L-3.1 -0.65 -3.7 -1.05 Q-5.45 -2.4 -6.35 -3.9 -10.05 0.65 -12.25 5.45 -11.1 5.0 -8.9 5.95 M-11.75 21.95 Q-6.25 22.2 -0.7 22.05 L15.5 20.75 18.4 20.5 16.5 20.5 -2.1 19.25 -8.0 18.0 -11.0 17.45 -12.05 17.3 -12.15 17.25 -15.3 16.2 Q-15.65 18.85 -15.6 21.55 L-15.9 21.7 -15.6 21.7 -11.75 21.95 M-13.5 34.8 L-4.5 34.25 Q-4.5 34.05 8.5 34.1 L20.75 34.25 26.0 34.5 26.0 33.9 Q26.0 32.85 23.25 28.3 20.85 24.35 20.55 22.55 L17.0 22.9 10.7 23.5 -3.75 24.5 -10.65 24.2 -12.2 24.15 -16.35 23.85 -17.1 25.45 -19.5 30.0 -20.1 34.0 -20.35 35.25 -13.5 34.8 M-11.4 14.9 L-7.85 15.75 -4.3 16.65 -1.35 17.25 19.65 18.3 13.3 16.25 2.5 13.0 Q-1.7 11.9 -6.05 9.75 L-9.6 7.95 -12.6 6.3 Q-14.3 10.2 -15.05 14.35 L-11.5 14.85 -11.4 14.9 M-22.5 -4.05 Q-22.5 -0.45 -21.7 0.35 -20.0 2.05 -13.0 1.5 L-12.6 1.6 -10.25 -2.25 -10.5 -3.85 -10.3 -5.6 Q-11.4 -6.95 -12.0 -11.3 -12.45 -14.5 -12.5 -17.8 L-12.35 -23.25 -12.0 -25.25 Q-16.75 -24.25 -19.0 -21.0 -20.4 -18.95 -21.0 -15.1 L-22.5 -4.05 M-8.5 -4.95 L-8.3 -5.25 -8.5 -5.1 -8.5 -4.95 M-8.15 -5.4 L-8.05 -5.55 -8.1 -5.55 -8.15 -5.4" fill="#000000" fill-rule="evenodd" stroke="none"/>
      <path d="M19.45 -24.05 L19.5 -23.65 Q19.5 -23.25 21.55 -20.75 L23.0 -19.25 22.5 -19.25 22.5 -18.55 Q16.55 -18.25 9.4 -14.95 4.4 -12.65 2.4 -10.7 L1.5 -13.05 0.55 -15.4 2.65 -17.5 Q4.0 -18.95 5.25 -19.85 L7.55 -21.4 Q8.7 -22.1 10.0 -22.5 L11.65 -23.0 14.0 -23.5 19.45 -24.05 M1.15 -7.45 L1.25 -7.3 2.0 -7.0 Q2.6 -7.05 3.1 -7.45 3.7 -5.2 4.8 -3.05 6.25 -0.2 7.7 0.85 L8.05 1.5 Q7.05 2.2 7.0 3.15 L3.05 0.75 Q0.9 -0.3 -2.2 -2.7 L-1.55 -2.25 -1.5 -2.3 Q0.15 -3.85 0.75 -4.85 L0.95 -5.95 Q0.9 -6.8 1.0 -7.1 L1.15 -7.45 M30.3 17.45 L31.75 16.6 Q35.8 15.5 39.05 11.25 41.2 8.45 42.0 6.45 L42.0 11.8 Q41.3 12.15 40.8 13.3 39.95 15.9 39.5 16.5 38.3 18.1 35.55 19.8 L34.25 20.85 Q33.05 19.25 30.5 17.85 L30.3 17.45 M17.3 -3.5 L19.75 -5.05 22.55 -6.75 Q24.75 -8.25 29.6 -9.2 L31.5 -9.6 31.55 -9.6 Q36.5 -7.75 39.15 -3.15 L39.55 -2.45 Q36.85 -2.9 32.5 -0.35 29.3 1.45 24.15 6.2 19.65 10.3 18.45 12.7 17.5 11.1 14.95 8.25 12.4 5.35 10.2 4.15 10.0 3.35 10.5 2.5 11.15 2.4 10.75 2.05 L10.95 1.8 12.4 0.3 17.3 -3.5 M10.0 -1.0 L9.75 -0.95 8.55 -2.25 6.75 -4.5 Q6.0 -5.65 5.45 -7.6 5.1 -8.9 4.25 -9.75 5.7 -11.65 15.0 -14.3 L24.2 -16.95 27.8 -13.9 30.4 -11.75 Q24.6 -11.45 17.25 -6.25 13.4 -3.55 10.65 -0.5 L10.0 -1.0 M-3.7 -1.05 L-3.1 -0.65 2.0 2.5 Q8.05 6.7 10.9 8.2 L13.15 10.7 17.45 15.15 14.6 14.25 Q6.25 11.65 2.25 10.75 -0.95 10.0 -7.6 6.55 -8.3 6.2 -8.9 5.95 L-8.75 5.8 -6.5 3.0 Q-4.3 0.5 -3.7 -1.05 M24.9 17.25 L24.0 17.65 Q22.7 16.9 18.45 15.5 L18.7 15.45 19.0 15.5 Q20.7 13.05 22.5 10.85 L22.5 14.55 24.0 16.0 Q24.8 16.5 26.05 16.8 L24.9 17.25 M-11.0 17.45 L-8.0 18.0 -2.1 19.25 16.5 20.5 18.4 20.5 15.5 20.75 -0.7 22.05 Q-6.25 22.2 -11.75 21.95 L-11.5 21.3 Q-11.05 19.95 -11.0 17.45 M-9.6 7.95 L-6.05 9.75 Q-1.7 11.9 2.5 13.0 L13.3 16.25 19.65 18.3 -1.35 17.25 -4.3 16.65 -7.85 15.75 -11.4 14.9 -10.75 13.25 Q-9.5 9.85 -9.5 8.75 L-9.6 7.95" fill="#5b6171" fill-rule="evenodd" stroke="none"/>
      <path d="M1.15 -7.45 L1.0 -7.1 Q0.9 -6.8 0.95 -5.95 L0.75 -4.85 Q0.15 -3.85 -1.5 -2.3 L-1.55 -2.25 -2.2 -2.7 -2.85 -3.25 -4.35 -4.35 -5.5 -4.95 0.15 -10.75 Q0.7 -8.95 0.5 -8.25 L1.0 -8.15 Q1.0 -7.7 1.15 -7.45 M-3.7 -1.05 Q-4.3 0.5 -6.5 3.0 L-8.75 5.8 -8.9 5.95 Q-11.1 5.0 -12.25 5.45 -10.05 0.65 -6.35 -3.9 -5.45 -2.4 -3.7 -1.05 M-11.0 17.45 Q-11.05 19.95 -11.5 21.3 L-11.75 21.95 -15.6 21.7 -15.6 21.55 Q-15.65 18.85 -15.3 16.2 L-12.15 17.25 -12.05 17.3 -11.0 17.45 M-9.6 7.95 L-9.5 8.75 Q-9.5 9.85 -10.75 13.25 L-11.4 14.9 -11.5 14.85 -15.05 14.35 Q-14.3 10.2 -12.6 6.3 L-9.6 7.95" fill="#969cab" fill-rule="evenodd" stroke="none"/>
      <path d="M-22.5 -4.05 L-21.0 -15.1 Q-20.4 -18.95 -19.0 -21.0 -16.75 -24.25 -12.0 -25.25 L-12.35 -23.25 -12.5 -17.8 Q-12.45 -14.5 -12.0 -11.3 -11.4 -6.95 -10.3 -5.6 L-10.5 -3.85 -10.25 -2.25 -12.6 1.6 -13.0 1.5 Q-20.0 2.05 -21.7 0.35 -22.5 -0.45 -22.5 -4.05" fill="#aa8a71" fill-rule="evenodd" stroke="none"/>
      <path d="M-12.2 24.15 L-12.95 28.9 Q-13.5 32.2 -13.5 34.4 L-13.5 34.8 -20.35 35.25 -20.1 34.0 -19.5 30.0 -17.1 25.45 -16.35 23.85 -12.2 24.15" fill="#942403" fill-rule="evenodd" stroke="none"/>
      <path d="M5.6 -24.2 L8.0 -23.75 6.4 -22.95 Q-1.0 -18.95 -1.0 -16.15 L-0.9 -15.4 -1.0 -14.4 -0.5 -12.55 Q-3.0 -11.6 -5.2 -9.3 L-6.75 -7.45 -6.85 -7.3 -8.4 -7.3 Q-9.6 -11.0 -10.35 -12.65 L-10.5 -17.4 -10.0 -21.8 -9.5 -26.05 Q-7.55 -25.15 -4.25 -25.1 L0.8 -25.25 5.6 -24.2 M-12.2 24.15 L-10.65 24.2 -3.75 24.5 10.7 23.5 17.0 22.9 20.55 22.55 Q20.85 24.35 23.25 28.3 26.0 32.85 26.0 33.9 L26.0 34.5 20.75 34.25 8.5 34.1 Q-4.5 34.05 -4.5 34.25 L-13.5 34.8 -13.5 34.4 Q-13.5 32.2 -12.95 28.9 L-12.2 24.15" fill="#731c02" fill-rule="evenodd" stroke="none"/>
    </g>
    <g id="shape3" transform="matrix(1.0, 0.0, 0.0, 1.0, 34.55, 27.9)">
      <path d="M3.8 -25.15 L7.85 -25.35 Q24.65 -25.35 30.15 -11.35 31.75 -7.3 32.3 -2.85 L34.65 -1.45 36.2 0.35 Q37.5 1.3 37.5 2.1 L37.4 2.95 37.3 3.0 35.3 3.0 32.15 -0.15 Q29.5 -2.6 28.1 -3.25 L26.55 -8.95 Q21.75 -21.95 7.35 -21.95 -3.45 -21.95 -9.9 -14.5 -15.7 -7.8 -16.25 2.45 L-16.3 8.55 -16.25 14.7 Q-16.25 17.15 -16.65 17.75 -17.7 19.5 -22.15 20.5 -22.85 20.65 -27.25 23.15 L-31.8 23.15 -31.9 22.95 -32.0 22.8 -32.05 22.25 -32.05 22.15 Q-32.05 21.1 -26.25 18.75 L-20.3 16.4 -20.5 15.95 -20.55 15.9 -20.05 15.7 -20.0 15.45 -19.95 15.25 -19.95 14.9 -19.8 12.85 -19.75 12.15 -19.4 7.0 -19.3 5.35 -19.3 5.15 -19.3 5.1 -19.3 4.95 -19.3 4.85 -19.3 4.8 -19.3 4.7 -19.3 4.65 -19.35 1.25 -19.4 0.85 -19.45 0.45 -19.45 0.4 -19.4 -0.35 -18.05 -5.75 -18.85 -4.8 Q-17.8 -9.75 -15.9 -13.4 L-15.85 -13.45 -14.95 -14.45 -13.85 -16.6 -13.8 -16.65 -13.4 -17.2 -12.65 -18.05 Q-8.45 -22.6 -1.55 -24.3 L0.7 -24.7 3.8 -25.15" fill="#969cab" fill-rule="evenodd" stroke="none"/>
      <path d="M35.3 3.0 L37.3 3.0 37.4 2.95 37.5 2.1 Q37.5 1.3 36.2 0.35 L34.65 -1.45 32.3 -2.85 Q31.75 -7.3 30.15 -11.35 24.65 -25.35 7.85 -25.35 L3.8 -25.15 -1.55 -24.3 Q-8.45 -22.6 -12.65 -18.05 L-13.4 -17.2 -13.8 -16.65 -13.85 -16.6 Q-14.95 -15.2 -15.85 -13.45 L-15.9 -13.4 Q-17.8 -9.75 -18.85 -4.8 L-19.6 -0.2 -19.45 0.4 -19.45 0.45 -19.4 0.85 -19.35 1.25 -19.3 4.65 -19.3 4.7 -19.3 4.8 -19.3 4.85 -19.3 4.95 -19.3 5.1 -19.3 5.15 -19.3 5.35 -19.4 7.0 -19.75 12.15 -19.8 12.85 -19.95 14.9 -19.95 15.25 -20.0 15.45 -20.05 15.7 -20.55 15.9 -20.5 15.95 -20.3 16.4 -26.25 18.75 Q-32.05 21.1 -32.05 22.15 L-32.05 22.25 -32.0 22.8 -31.9 22.95 -31.8 23.15 -27.25 23.15 -14.0 23.15 Q-8.0 23.1 -6.8 14.8 L-6.05 8.2 Q-5.65 5.35 -4.75 4.0 L-4.8 3.3 -4.9 2.8 -1.85 2.45 Q4.35 2.25 29.6 2.85 L30.95 2.9 31.0 2.85 31.35 2.75 32.05 2.6 32.05 3.05 35.3 3.0 M35.25 -3.45 L37.25 -1.6 38.8 0.45 Q39.5 1.75 39.5 2.4 39.5 3.8 38.95 4.15 37.3 5.3 30.7 5.5 L31.15 8.35 31.2 13.75 31.5 16.6 Q31.65 19.0 31.2 20.7 29.8 25.9 22.2 25.9 L19.15 25.7 Q17.15 27.9 10.45 27.9 1.05 27.9 -0.3 25.65 L-0.6 24.9 -0.8 24.9 Q-3.15 24.9 -4.9 23.7 -4.9 24.05 -5.35 24.3 -7.45 25.4 -23.3 25.4 -32.0 25.4 -34.0 23.8 -34.65 23.3 -34.55 22.65 L-34.3 22.05 Q-34.3 20.75 -30.0 18.15 -25.45 15.4 -22.55 15.4 L-22.1 15.4 -22.2 15.25 -22.25 15.1 -22.3 13.9 Q-22.55 8.05 -22.4 5.05 -22.25 2.05 -21.6 0.35 L-21.8 -0.85 Q-21.8 -3.7 -20.2 -8.2 -18.1 -14.05 -14.45 -18.45 -3.85 -31.1 15.25 -26.85 27.25 -22.45 31.2 -12.85 32.6 -9.4 33.6 -3.95 L35.25 -3.45 M28.8 4.9 L28.7 4.9 28.7 5.3 28.8 4.9 M29.2 14.7 L29.35 12.4 Q22.15 12.45 17.05 14.1 L15.65 14.7 19.5 15.15 19.7 21.15 20.0 22.65 20.05 23.25 20.4 23.35 20.7 23.7 Q28.2 23.7 29.2 14.7 M17.8 9.75 L18.7 9.9 Q19.95 9.9 19.75 9.65 L20.05 9.2 20.2 8.15 20.1 7.05 20.0 6.65 18.05 6.55 17.65 6.6 17.2 6.55 17.2 6.65 17.2 9.65 17.25 9.9 17.8 9.75 M1.2 9.05 L1.2 14.25 Q1.2 19.0 1.35 20.35 1.85 24.1 3.75 25.65 L17.7 25.65 17.7 17.4 17.5 16.95 Q11.7 18.55 10.15 14.05 9.7 12.7 9.7 8.0 L9.75 5.4 9.85 4.7 1.1 4.5 0.95 4.95 0.9 5.0 1.2 9.05" fill="#000000" fill-rule="evenodd" stroke="none"/>
      <path d="M3.8 -25.15 L0.7 -24.7 -1.55 -24.3 3.8 -25.15 M-13.85 -16.6 L-14.95 -14.45 -15.85 -13.45 Q-14.95 -15.2 -13.85 -16.6 M-18.85 -4.8 L-18.05 -5.75 -19.4 -0.35 -19.45 0.4 -19.6 -0.2 -18.85 -4.8 M-27.25 23.15 Q-22.85 20.65 -22.15 20.5 -17.7 19.5 -16.65 17.75 -16.25 17.15 -16.25 14.7 L-16.3 8.55 -16.25 2.45 Q-15.7 -7.8 -9.9 -14.5 -3.45 -21.95 7.35 -21.95 21.75 -21.95 26.55 -8.95 L28.1 -3.25 Q29.5 -2.6 32.15 -0.15 L35.3 3.0 32.05 3.05 32.05 2.6 31.35 2.75 31.0 2.85 30.95 2.9 29.6 2.85 Q4.35 2.25 -1.85 2.45 L-4.9 2.8 -4.8 3.3 -4.75 4.0 Q-5.65 5.35 -6.05 8.2 L-6.8 14.8 Q-8.0 23.1 -14.0 23.15 L-27.25 23.15 M1.2 9.05 L0.9 5.0 0.95 4.95 1.1 4.5 9.85 4.7 9.75 5.4 9.7 8.0 Q9.7 12.7 10.15 14.05 11.7 18.55 17.5 16.95 L17.7 17.4 17.7 25.65 3.75 25.65 Q1.85 24.1 1.35 20.35 1.2 19.0 1.2 14.25 L1.2 9.05" fill="#5b6171" fill-rule="evenodd" stroke="none"/>
      <path d="M29.2 14.7 Q28.2 23.7 20.7 23.7 L20.4 23.35 20.05 23.25 20.0 22.65 19.7 21.15 19.5 15.15 15.65 14.7 17.05 14.1 Q22.15 12.45 29.35 12.4 L29.2 14.7" fill="#aa8a71" fill-rule="evenodd" stroke="none"/>
      <path d="M17.65 6.6 L18.05 6.55 20.0 6.65 20.1 7.05 20.2 8.15 20.05 9.2 19.75 9.65 Q19.95 9.9 18.7 9.9 L17.8 9.75 17.2 9.65 17.2 6.65 17.65 6.6" fill="#ffffff" fill-rule="evenodd" stroke="none"/>
    </g>
    <g id="shape4" transform="matrix(1.0, 0.0, 0.0, 1.0, 12.05, 21.8)">
      <path d="M13.25 -13.55 Q13.25 -9.25 11.1 -3.95 L7.35 4.15 Q6.25 4.3 5.85 5.3 L5.2 5.1 8.15 9.4 Q12.4 15.8 12.4 17.3 12.4 18.05 10.25 19.8 6.9 22.5 0.3 24.6 L-0.45 24.9 -1.75 25.0 Q-4.4 25.0 -8.2 15.75 -11.65 7.4 -11.65 4.7 L-11.6 4.35 -12.05 4.1 -11.45 1.2 Q-10.3 -3.85 -9.15 -5.75 L-9.55 -6.1 -9.7 -5.95 -10.25 -5.7 Q-11.25 -6.9 -11.25 -7.35 -11.25 -9.65 -7.45 -13.65 -4.1 -17.2 -0.95 -18.95 7.85 -23.95 11.35 -20.15 13.25 -18.05 13.25 -13.55 M9.5 -19.15 Q4.55 -19.15 2.05 -17.9 0.45 -17.1 -4.0 -13.15 L-7.2 -9.55 -8.55 -7.55 -7.55 -6.95 -7.45 -6.95 -7.45 -6.9 -7.05 -6.55 Q-3.65 -3.2 -2.2 -2.45 2.85 0.95 5.8 3.25 L8.25 -3.3 Q11.25 -10.95 11.25 -13.45 10.5 -19.15 9.5 -19.15 M1.85 4.25 L2.25 3.65 -1.3 0.95 -7.55 -4.35 -9.25 1.35 -9.55 2.4 Q-9.15 3.7 -9.05 5.85 L-9.05 6.9 Q-9.05 8.55 -5.8 15.55 -2.45 22.8 -1.2 22.8 1.15 22.6 10.0 16.4 L2.45 5.15 1.85 4.25" fill="#000000" fill-rule="evenodd" stroke="none"/>
      <path d="M1.85 4.25 L2.45 5.15 10.0 16.4 Q1.15 22.6 -1.2 22.8 -2.45 22.8 -5.8 15.55 -9.05 8.55 -9.05 6.9 L-9.05 5.85 Q-9.15 3.7 -9.55 2.4 L-9.25 1.35 -7.55 -4.35 -1.3 0.95 2.25 3.65 1.85 4.25" fill="#aa8a71" fill-rule="evenodd" stroke="none"/>
      <path d="M9.5 -19.15 Q10.5 -19.15 11.25 -13.45 11.25 -10.95 8.25 -3.3 L5.8 3.25 Q2.85 0.95 -2.2 -2.45 -3.65 -3.2 -7.05 -6.55 L-7.45 -6.9 -7.45 -6.95 -7.55 -6.95 -8.55 -7.55 -7.2 -9.55 -4.0 -13.15 Q0.45 -17.1 2.05 -17.9 4.55 -19.15 9.5 -19.15" fill="#942403" fill-rule="evenodd" stroke="none"/>
    </g>
    <g id="shape5" transform="matrix(1.0, 0.0, 0.0, 1.0, 14.5, 74.85)">
      <path d="M-1.55 -53.25 L-1.85 -46.5 -1.85 -46.15 -2.0 -42.25 -2.05 -34.65 -1.85 -29.2 -1.8 -28.4 -1.5 -25.1 -1.5 -24.6 -1.5 -24.35 Q-1.5 -22.85 0.0 -20.6 2.1 -17.5 5.5 -17.5 L6.1 -17.55 8.0 -17.2 8.0 -18.15 8.0 -18.4 8.0 -18.5 8.0 -18.55 7.9 -20.5 7.6 -24.9 7.4 -32.7 7.4 -35.2 7.15 -40.5 7.1 -41.05 6.5 -48.2 5.55 -56.05 5.05 -58.3 Q3.15 -65.4 -1.0 -70.85 L-1.0 -68.05 Q-1.0 -65.7 -1.55 -53.25 M1.8 -70.8 L2.6 -69.45 Q3.4 -67.35 3.9 -66.6 L5.7 -63.05 Q6.85 -60.65 7.0 -59.1 8.3 -48.65 8.45 -43.85 10.2 -19.15 10.2 -13.3 L10.15 -10.7 10.25 -10.7 10.6 -11.15 Q11.25 -10.35 11.45 -8.15 L11.5 -5.2 Q11.5 -2.35 11.0 -0.45 L10.9 1.1 10.35 1.35 9.0 2.95 Q7.3 4.0 0.45 4.0 L-9.2 3.35 Q-13.4 2.35 -14.5 -0.6 L-14.5 -10.35 -14.3 -10.55 -13.65 -10.7 -13.65 -53.7 Q-12.4 -63.95 -5.85 -70.9 L-2.2 -74.6 -2.2 -74.65 -2.15 -74.65 -1.95 -74.85 -1.3 -74.65 -1.15 -74.4 Q-0.7 -74.3 -0.2 -74.0 L1.8 -70.8 M4.5 -10.75 L8.5 -10.7 Q8.0 -11.75 7.95 -13.1 L7.95 -15.2 7.0 -15.0 Q2.1 -15.0 -0.85 -18.5 L-1.15 -18.85 -1.75 -19.95 Q-2.35 -18.9 -4.2 -17.45 -6.35 -15.75 -8.0 -15.0 L-11.45 -15.0 -11.5 -15.75 -11.65 -15.7 -11.65 -14.95 -11.65 -13.5 -11.75 -10.5 -11.75 -10.4 -8.15 -10.6 -8.15 -10.45 -8.15 -10.4 Q-5.05 -10.7 4.5 -10.65 L4.55 -10.65 4.5 -10.75 M9.5 -9.0 L-12.7 -9.0 -12.8 -6.7 -1.5 -6.8 4.8 -6.75 9.4 -6.7 9.55 -7.25 9.5 -7.35 9.5 -9.0 M9.3 -3.35 L9.3 -4.95 4.4 -4.75 -1.3 -4.65 -7.0 -4.8 -12.85 -5.05 -13.0 -3.2 Q-13.1 -1.7 -12.3 -0.75 -10.05 2.05 0.45 2.05 7.3 2.05 9.45 -0.2 L9.35 -0.7 9.3 -3.35 M-3.45 -70.35 L-3.4 -70.45 -3.45 -70.4 -3.45 -70.35 -4.2 -69.45 -6.7 -66.6 -6.95 -66.65 -8.9 -63.0 -10.5 -59.45 Q-11.4 -57.15 -11.5 -55.55 L-11.55 -54.2 -11.9 -41.1 -11.9 -40.6 -11.9 -40.35 -11.9 -40.25 -11.9 -40.15 -11.8 -32.8 -11.75 -25.55 -11.75 -25.5 -11.65 -21.3 -11.65 -16.6 -11.65 -16.5 -11.5 -16.5 -9.65 -17.25 Q-7.45 -17.95 -6.3 -18.7 L-6.25 -18.95 -6.2 -18.95 -6.15 -19.25 -4.85 -20.15 Q-4.0 -20.95 -4.0 -22.25 L-4.1 -23.15 -4.0 -23.3 -4.0 -26.9 -4.0 -31.4 -4.0 -35.4 -3.95 -38.3 -3.75 -47.95 -3.5 -55.1 Q-3.4 -57.5 -3.65 -62.35 L-3.8 -64.85 -3.85 -65.15 Q-3.85 -68.1 -3.45 -70.35 M-1.7 -72.7 L-1.75 -72.65 -1.5 -72.45 -1.45 -72.45 -1.7 -72.7 M-0.8 12.65 L0.8 12.75 Q3.1 13.05 4.9 14.35 7.45 16.2 7.45 19.3 7.45 22.0 6.7 23.15 5.1 25.5 -0.15 25.5 -7.2 25.5 -8.8 22.65 -9.3 21.75 -9.25 20.6 L-9.0 19.65 Q-9.0 16.3 -6.45 14.4 -4.7 13.05 -2.35 12.75 L-0.8 12.65 M-6.4 22.15 Q-4.85 23.55 -0.35 23.55 4.35 23.55 5.5 21.5 6.05 20.45 5.7 19.65 5.7 16.95 3.0 15.6 1.15 14.75 -0.8 14.75 -5.15 14.75 -6.6 16.7 -7.3 17.65 -7.3 19.65 -7.3 21.3 -6.4 22.15" fill="#000000" fill-rule="evenodd" stroke="none"/>
      <path d="M9.3 -3.35 L9.35 -0.7 9.45 -0.2 Q7.3 2.05 0.45 2.05 -10.05 2.05 -12.3 -0.75 -13.1 -1.7 -13.0 -3.2 L-12.85 -5.05 -7.0 -4.8 -1.3 -4.65 4.4 -4.75 9.3 -4.95 9.3 -3.35 M-6.4 22.15 Q-7.3 21.3 -7.3 19.65 -7.3 17.65 -6.6 16.7 -5.15 14.75 -0.8 14.75 1.15 14.75 3.0 15.6 5.7 16.95 5.7 19.65 6.05 20.45 5.5 21.5 4.35 23.55 -0.35 23.55 -4.85 23.55 -6.4 22.15" fill="#8e6c24" fill-rule="evenodd" stroke="none"/>
      <path d="M9.5 -9.0 L9.5 -7.35 9.55 -7.25 9.4 -6.7 4.8 -6.75 -1.5 -6.8 -12.8 -6.7 -12.7 -9.0 9.5 -9.0" fill="#cc9d3c" fill-rule="evenodd" stroke="none"/>
      <path d="M-11.45 -15.0 L-11.45 -14.95 -11.2 -13.5 -11.5 -13.5 -11.65 -13.5 -11.65 -14.95 -11.45 -15.0 M4.5 -10.65 L4.5 -10.75 4.55 -10.65 4.5 -10.65 M-3.45 -70.35 L-3.45 -70.4 -3.4 -70.45 -3.45 -70.35 M-11.5 -16.5 L-11.65 -16.5 -11.65 -16.6 -11.45 -16.7 -11.5 -16.5" fill="#60606c" fill-rule="evenodd" stroke="none"/>
      <path d="M-11.65 -14.95 L-11.65 -15.7 -11.5 -15.75 -11.45 -15.0 -11.65 -14.95" fill="#a9a9b1" fill-rule="evenodd" stroke="none"/>
      <path d="M-1.55 -53.25 L3.0 -57.0 5.05 -58.3 5.55 -56.05 6.5 -48.2 5.5 -47.35 0.7 -43.8 -2.0 -41.95 -2.0 -42.25 -1.85 -46.15 -1.85 -46.5 -1.55 -53.25 M7.1 -41.05 L7.15 -40.5 7.4 -35.2 4.3 -32.75 -1.8 -28.4 -1.85 -29.2 -2.05 -34.65 0.5 -36.6 Q4.75 -39.8 7.1 -41.05 M-3.65 -62.35 Q-3.4 -57.5 -3.5 -55.1 L-3.75 -47.95 -8.0 -44.8 -11.9 -41.1 -11.55 -54.2 -8.85 -56.35 Q-5.1 -59.5 -3.65 -61.55 L-3.65 -62.35 M-3.95 -38.3 L-4.0 -35.4 -4.0 -31.4 -4.05 -31.4 -7.1 -29.5 -11.75 -25.55 -11.8 -32.8 -3.95 -38.3 M-4.0 -26.9 L-4.0 -23.3 -4.1 -23.15 -4.0 -22.25 Q-4.0 -20.95 -4.85 -20.15 L-6.15 -19.25 -6.2 -18.95 -6.25 -18.95 -6.3 -18.7 Q-7.45 -17.95 -9.65 -17.25 L-11.5 -16.5 -11.45 -16.7 -11.65 -16.6 -11.65 -21.3 -6.4 -25.1 -4.0 -26.9" fill="#a7b9be" fill-rule="evenodd" stroke="none"/>
      <path d="M-11.45 -15.0 L-8.0 -15.0 Q-6.35 -15.75 -4.2 -17.45 -2.35 -18.9 -1.75 -19.95 L-1.15 -18.85 -0.85 -18.5 Q2.1 -15.0 7.0 -15.0 L7.95 -15.2 7.95 -13.1 Q8.0 -11.75 8.5 -10.7 L4.5 -10.75 4.5 -10.65 Q-5.05 -10.7 -8.15 -10.4 L-8.15 -10.45 -8.15 -10.6 -11.75 -10.4 -11.75 -10.5 -11.65 -13.5 -11.5 -13.5 -11.2 -13.5 -11.45 -14.95 -11.45 -15.0 M-3.45 -70.35 Q-3.85 -68.1 -3.85 -65.15 L-3.8 -64.85 -3.65 -62.35 -3.65 -61.55 Q-5.1 -59.5 -8.85 -56.35 L-11.55 -54.2 -11.5 -55.55 Q-11.4 -57.15 -10.5 -59.45 L-8.9 -63.0 -6.95 -66.65 -6.7 -66.6 -4.2 -69.45 -3.45 -70.35 M-3.75 -47.95 L-3.95 -38.3 -11.8 -32.8 -11.9 -40.15 -11.9 -40.25 -11.9 -40.35 -11.9 -40.6 -11.9 -41.1 -8.0 -44.8 -3.75 -47.95 M-4.0 -31.4 L-4.0 -26.9 -6.4 -25.1 -11.65 -21.3 -11.75 -25.5 -11.75 -25.55 -7.1 -29.5 -4.05 -31.4 -4.0 -31.4" fill="#cdd7da" fill-rule="evenodd" stroke="none"/>
      <path d="M5.05 -58.3 L3.0 -57.0 -1.55 -53.25 Q-1.0 -65.7 -1.0 -68.05 L-1.0 -70.85 Q3.15 -65.4 5.05 -58.3 M-2.0 -42.25 L-2.0 -41.95 0.7 -43.8 5.5 -47.35 6.5 -48.2 7.1 -41.05 Q4.75 -39.8 0.5 -36.6 L-2.05 -34.65 -2.0 -42.25 M7.4 -35.2 L7.4 -32.7 7.6 -24.9 7.9 -20.5 8.0 -18.55 8.0 -18.5 8.0 -18.4 8.0 -18.15 8.0 -17.2 6.1 -17.55 5.5 -17.5 Q2.1 -17.5 0.0 -20.6 -1.5 -22.85 -1.5 -24.35 L-1.5 -24.6 -1.5 -25.1 -1.8 -28.4 4.3 -32.75 7.4 -35.2" fill="#8ca4aa" fill-rule="evenodd" stroke="none"/>
    </g>
  </defs>
</svg>
