<?xml version="1.0" encoding="UTF-8" standalone="no"?>
<svg xmlns:ffdec="https://www.free-decompiler.com/flash" xmlns:xlink="http://www.w3.org/1999/xlink" ffdec:objectType="frame" height="331.45px" width="107.3px" xmlns="http://www.w3.org/2000/svg">
  <g transform="matrix(1.0, 0.0, 0.0, 1.0, 0.0, 0.0)">
    <clipPath id="clipPath0" transform="matrix(1.0, 0.0, 0.0, 1.0, 0.0, 0.0)">
      <path d="M107.3 5.6 L107.3 322.6 82.65 322.6 81.4 321.35 Q78.4 318.85 73.85 319.3 71.8 319.5 70.0 320.25 L69.35 320.3 Q65.95 320.65 63.35 322.6 L54.8 322.6 54.55 322.4 Q51.6 319.9 47.35 319.9 L44.85 320.15 42.35 320.0 Q37.85 320.1 34.75 322.6 L6.25 322.6 6.25 5.6 107.3 5.6" fill="#00ff00" fill-rule="evenodd" stroke="none"/>
    </clipPath>
    <g clip-path="url(#clipPath0)">
      <use ffdec:characterId="246" height="294.15" transform="matrix(0.799, 0.0565, -0.0565, 0.799, 16.6174, 90.0207)" width="113.5" xlink:href="#shape1"/>
    </g>
  </g>
  <defs>
    <g id="shape1" transform="matrix(1.0, 0.0, 0.0, 1.0, 56.5, 184.15)">
      <path d="M1.75 -149.9 L3.6 -149.1 Q4.1 -148.85 4.55 -148.55 4.85 -151.3 8.55 -152.65 11.05 -153.5 13.75 -153.5 L17.0 -153.3 17.05 -153.3 20.3 -153.0 22.4 -152.55 24.5 -151.0 29.5 -148.35 Q31.7 -147.0 33.75 -145.1 36.2 -142.85 38.0 -140.0 L38.7 -139.75 Q39.0 -139.6 39.0 -138.8 L39.0 -138.35 40.35 -135.4 Q41.55 -132.4 42.5 -131.5 L43.3 -131.45 43.8 -131.25 43.9 -131.1 44.75 -131.15 44.8 -131.25 45.5 -131.45 47.35 -134.35 48.65 -136.1 Q49.5 -138.3 49.5 -140.4 49.5 -142.3 48.8 -142.9 L45.05 -146.0 45.0 -147.1 45.25 -147.3 45.6 -147.45 Q45.95 -148.35 47.95 -148.5 50.65 -148.75 53.5 -147.0 55.9 -145.3 56.3 -143.75 57.0 -140.9 57.0 -136.8 57.0 -128.15 53.55 -124.25 50.35 -120.6 43.7 -120.5 L43.95 -119.8 Q44.5 -118.0 44.5 -117.05 L44.25 -115.15 44.05 -113.95 45.55 -113.95 46.0 -114.5 46.7 -114.0 47.0 -113.0 47.0 -112.75 46.5 -110.0 Q46.0 -107.9 46.0 -107.3 L46.05 -104.85 47.85 -105.1 50.25 -105.5 51.3 -105.25 Q51.5 -105.15 51.5 -103.9 51.5 -102.05 50.25 -100.35 48.45 -98.0 45.0 -98.0 40.5 -98.0 38.8 -100.6 37.95 -101.9 38.0 -103.4 L38.05 -108.4 Q38.2 -110.55 39.0 -111.85 L39.0 -112.15 Q39.0 -113.15 39.9 -113.45 L42.25 -113.8 42.05 -114.8 42.0 -117.25 42.05 -119.7 42.2 -120.5 Q37.6 -120.7 35.3 -122.3 33.0 -123.95 30.75 -128.85 L29.35 -130.5 29.5 -121.9 29.05 -115.8 28.5 -109.75 Q28.4 -107.65 27.15 -106.55 L24.5 -104.6 Q22.8 -103.1 20.55 -98.75 18.3 -94.5 16.6 -86.75 L15.2 -80.15 Q19.35 -81.95 34.0 -80.0 35.25 -79.35 37.8 -77.55 L41.0 -75.35 47.2 -70.4 Q52.5 -65.8 52.5 -64.75 L52.45 -64.0 52.25 -63.75 50.5 -63.5 48.25 -64.1 45.8 -64.75 Q39.6 -65.0 34.35 -64.85 35.5 -63.6 37.05 -60.9 L41.3 -52.35 Q42.55 -49.7 43.65 -45.5 L45.5 -38.1 45.5 -35.5 45.4 -35.25 Q45.25 -35.0 44.5 -35.0 44.3 -35.0 41.95 -36.95 L38.8 -39.25 Q37.65 -39.7 35.8 -40.8 L33.25 -42.35 Q31.15 -43.45 28.15 -46.05 25.4 -48.4 23.75 -50.35 L19.85 -55.0 18.0 -57.55 18.0 -57.3 17.5 -55.3 Q17.0 -53.9 17.0 -53.35 L17.0 -51.5 16.55 -50.75 15.8 -50.7 15.65 -49.0 15.5 -46.9 Q15.5 -44.85 17.1 -43.0 L20.3 -38.85 Q23.0 -32.4 23.0 -31.15 L22.8 -30.25 Q18.6 -32.15 14.25 -23.1 10.5 -15.4 10.5 -11.4 L12.5 -6.55 Q14.5 -2.0 14.5 1.6 L14.35 5.4 12.05 8.8 12.0 20.55 Q12.0 30.45 12.4 33.35 12.8 36.45 15.8 49.05 16.8 53.35 17.0 63.3 17.05 66.7 19.8 72.0 L22.1 76.0 Q28.0 76.15 30.55 81.25 32.0 84.2 32.0 87.55 32.0 93.35 27.25 101.5 22.3 110.0 18.0 110.0 10.0 110.0 4.0 98.75 2.0 95.0 0.6 90.65 -0.5 87.25 -0.5 86.3 -0.5 84.55 0.25 80.5 1.0 76.45 1.0 74.75 L1.25 71.9 1.5 69.05 Q1.15 67.1 1.2 65.95 L1.5 64.85 1.4 63.45 1.55 61.1 1.5 60.4 1.55 60.2 1.5 60.0 Q0.65 55.75 0.5 52.8 L0.0 45.95 Q-0.35 41.85 -1.0 38.55 -3.1 28.65 -3.6 22.95 -4.0 18.95 -4.0 10.25 L-3.95 4.85 -3.5 1.5 -8.45 -2.45 Q-10.0 -3.65 -10.0 -5.6 -10.0 -8.85 -8.0 -13.5 L-8.0 -21.35 Q-8.35 -23.0 -6.8 -25.4 L-4.1 -29.25 Q-2.5 -31.85 -2.15 -33.4 -2.0 -34.2 -2.0 -37.1 -2.0 -40.75 -3.75 -42.1 -5.5 -43.5 -5.5 -44.6 L-5.1 -46.75 -4.5 -49.1 -4.5 -51.2 -4.35 -52.0 -4.5 -52.0 -6.0 -52.25 -6.0 -60.1 -5.45 -61.0 -5.5 -64.0 -5.45 -67.45 -5.35 -67.95 -6.0 -68.05 -6.0 -67.75 Q-6.0 -66.65 -9.6 -57.45 -13.4 -47.8 -15.0 -45.6 -22.45 -35.2 -39.0 -28.5 -39.75 -29.05 -39.95 -30.05 L-40.0 -31.75 Q-40.0 -37.15 -36.75 -43.75 -34.4 -48.5 -30.65 -53.3 L-36.25 -53.0 -42.65 -53.4 -52.6 -54.0 -52.8 -54.1 Q-53.0 -54.25 -53.0 -55.0 -42.3 -66.9 -39.35 -68.5 -33.25 -72.4 -28.85 -74.25 -25.15 -75.75 -20.1 -76.8 L-20.05 -78.1 Q-20.25 -80.15 -22.5 -81.6 -23.7 -82.4 -24.2 -84.75 L-24.5 -87.6 -24.55 -89.5 Q-24.5 -91.5 -24.0 -93.0 -22.95 -96.2 -19.95 -96.4 L-21.35 -98.0 Q-22.8 -100.5 -23.0 -101.9 L-23.0 -105.1 -22.95 -107.2 -25.25 -105.5 Q-26.95 -104.25 -28.75 -103.35 -30.45 -102.45 -32.0 -101.95 -32.0 -101.3 -32.5 -98.9 L-32.95 -96.4 -29.35 -96.5 -29.15 -96.35 Q-29.0 -96.25 -29.0 -95.5 L-29.2 -95.15 -29.15 -95.05 Q-29.0 -94.65 -29.0 -93.65 -29.0 -88.45 -29.5 -86.35 -31.05 -80.0 -36.5 -80.0 -42.35 -80.0 -44.0 -83.1 -44.85 -84.7 -44.5 -86.5 -44.5 -87.95 -43.5 -89.0 L-42.45 -86.85 Q-41.75 -85.85 -39.1 -86.25 -38.95 -87.5 -39.15 -90.95 -39.15 -94.05 -38.0 -95.5 L-37.85 -95.3 -36.25 -95.9 -35.45 -96.05 -35.5 -98.0 Q-35.5 -100.75 -35.3 -101.25 L-35.2 -101.5 Q-42.15 -101.55 -46.55 -105.3 L-50.35 -110.0 Q-52.05 -112.3 -54.7 -114.9 -56.5 -117.0 -56.5 -119.6 L-56.5 -122.8 Q-56.25 -124.1 -54.5 -127.1 -52.4 -130.6 -47.95 -131.05 -43.95 -131.5 -42.0 -128.85 L-41.35 -128.75 -41.15 -128.85 Q-41.0 -128.8 -41.0 -128.0 -41.0 -127.75 -41.55 -127.35 L-42.05 -127.05 -43.75 -126.1 Q-46.5 -124.75 -46.5 -123.3 -46.5 -120.95 -44.65 -118.25 -41.85 -114.25 -36.5 -114.25 -34.55 -114.25 -33.15 -120.85 -32.4 -124.45 -31.5 -130.75 -29.6 -139.05 -24.6 -143.85 -22.4 -145.95 -20.05 -146.85 L-20.5 -147.1 -20.5 -155.75 -20.2 -155.85 -19.4 -156.0 Q-19.75 -156.75 -19.8 -158.05 L-19.5 -162.75 Q-19.5 -165.0 -20.0 -170.05 L-19.75 -175.55 -19.5 -183.75 Q-17.4 -184.9 -15.95 -182.75 -14.6 -180.0 -13.85 -179.25 -12.45 -177.85 -11.35 -175.9 L-9.5 -172.5 -5.1 -165.8 Q-2.7 -162.35 -1.5 -160.05 L-0.1 -160.25 Q0.1 -157.9 0.75 -155.15 L2.0 -150.1 1.75 -149.9 M18.15 -150.55 L16.75 -150.95 13.9 -151.25 Q10.0 -151.25 7.85 -149.35 6.7 -148.3 6.25 -146.85 L6.5 -146.15 8.2 -143.35 8.4 -142.95 8.9 -142.1 10.7 -139.1 11.3 -138.25 11.35 -138.2 11.5 -138.0 13.5 -136.0 13.6 -135.9 13.85 -135.6 14.9 -134.3 16.0 -135.85 16.55 -136.3 17.1 -136.7 17.5 -136.95 17.5 -137.25 18.25 -137.35 18.6 -137.4 18.7 -137.45 18.85 -137.45 18.95 -137.5 19.1 -137.55 19.15 -137.45 19.75 -137.5 Q24.7 -137.5 27.85 -135.2 L28.05 -135.05 28.3 -134.85 Q30.15 -133.3 32.25 -130.1 L34.5 -127.0 34.5 -128.4 Q34.5 -130.75 35.35 -134.4 35.9 -136.75 36.55 -138.15 L35.9 -139.1 34.25 -141.3 33.5 -142.25 Q32.2 -143.8 26.95 -146.9 L26.65 -147.05 26.4 -147.2 26.35 -147.2 Q22.05 -149.7 18.3 -151.35 L18.15 -150.55 M25.0 -126.6 L25.9 -129.7 Q26.35 -131.2 29.0 -130.8 L27.0 -132.6 Q25.5 -134.3 22.4 -135.05 L19.75 -135.55 19.85 -135.4 19.65 -135.3 Q18.15 -134.85 17.35 -133.95 16.45 -132.35 15.8 -131.7 L16.0 -131.15 16.5 -129.0 Q16.5 -127.95 15.2 -125.85 17.85 -126.0 20.5 -124.0 L22.75 -122.25 23.4 -123.85 Q24.25 -125.8 25.0 -126.6 M37.5 -131.5 Q37.25 -128.0 36.5 -125.1 36.85 -125.05 36.3 -125.0 37.5 -124.0 39.0 -123.4 39.1 -125.05 40.0 -127.85 40.45 -129.3 41.0 -130.15 L40.2 -131.15 Q39.5 -132.35 38.3 -135.35 37.55 -133.0 37.5 -131.5 M13.35 -126.25 Q14.5 -127.6 14.5 -129.0 14.5 -130.6 12.4 -133.5 L9.5 -137.0 Q8.05 -138.6 6.5 -141.15 4.65 -144.15 4.55 -145.7 L2.9 -146.85 Q0.2 -148.75 -4.5 -148.75 -10.05 -148.75 -11.55 -143.6 -12.05 -141.95 -12.05 -139.85 L-12.0 -137.85 -12.0 -134.8 Q-12.1 -132.95 -12.75 -131.85 -13.35 -130.8 -15.05 -128.75 -16.0 -127.65 -16.0 -126.4 L-15.75 -126.35 -15.55 -126.05 -15.5 -125.5 -15.6 -125.2 -14.75 -124.5 -14.05 -124.0 Q-13.0 -123.25 -12.5 -122.1 -12.15 -121.3 -12.25 -119.75 L-12.5 -117.25 Q-12.5 -115.9 -11.9 -115.05 -11.25 -114.1 -9.6 -113.35 L-9.0 -111.1 Q-8.65 -109.75 -8.1 -108.85 L-1.4 -98.15 Q3.5 -90.75 4.9 -90.75 L6.5 -91.1 Q6.1 -95.1 7.15 -101.55 8.4 -109.4 8.5 -112.5 L9.15 -112.8 10.5 -113.75 Q12.5 -115.0 12.5 -115.3 L12.0 -119.2 11.6 -122.3 11.5 -123.1 11.5 -123.15 Q11.5 -124.1 12.25 -125.1 L13.0 -125.95 13.35 -126.25 M9.45 -129.8 L11.3 -129.75 Q11.5 -129.5 11.5 -128.25 11.5 -127.3 10.8 -126.0 L10.75 -126.0 10.55 -125.65 9.75 -124.5 9.55 -124.25 8.5 -123.05 Q6.9 -121.5 5.25 -121.5 L4.3 -121.75 4.15 -121.65 Q4.0 -121.7 4.0 -122.5 4.0 -124.4 6.25 -127.3 L7.7 -128.8 Q8.55 -129.6 9.45 -129.8 M10.5 -105.0 L12.45 -104.35 Q13.8 -103.75 14.4 -103.75 16.3 -103.75 16.55 -106.05 16.9 -108.95 18.55 -110.0 24.0 -113.2 24.0 -114.4 24.0 -119.1 19.9 -121.6 16.85 -123.55 13.6 -123.2 L13.5 -123.0 14.0 -119.05 14.5 -115.1 Q14.5 -113.65 13.5 -112.5 12.35 -111.15 10.3 -111.0 L10.3 -110.95 10.5 -109.55 10.15 -105.05 10.15 -105.0 10.5 -105.0 M18.65 -112.3 Q18.25 -112.0 17.5 -112.0 15.8 -112.0 15.5 -113.15 15.35 -113.75 15.5 -114.5 15.5 -116.25 15.85 -116.7 16.6 -117.75 19.0 -114.85 L19.0 -112.6 18.65 -112.3 M4.35 -112.65 Q4.95 -112.45 5.4 -111.1 6.0 -109.2 6.0 -107.35 5.5 -102.5 5.5 -99.5 L5.4 -99.25 Q5.25 -99.0 4.5 -99.0 3.65 -99.0 3.0 -101.9 L2.5 -104.85 2.75 -108.05 2.9 -109.5 3.05 -112.0 3.35 -112.3 Q3.9 -112.8 4.35 -112.65 M-3.35 -110.85 Q-1.3 -111.05 -0.5 -109.55 L-0.15 -108.3 Q-0.15 -104.35 0.5 -103.1 L0.5 -100.5 0.4 -100.25 Q0.25 -100.0 -0.5 -100.0 -1.2 -100.0 -2.4 -103.4 L-4.0 -108.1 -4.0 -110.75 -3.4 -110.85 -3.35 -110.85 M14.7 -108.75 Q15.0 -108.6 15.0 -107.8 L14.9 -107.0 14.75 -106.85 Q14.5 -106.6 14.0 -106.5 L13.25 -106.7 Q13.0 -106.85 13.0 -107.65 L13.05 -108.5 13.25 -108.85 14.0 -109.0 14.7 -108.75 M11.95 -78.3 L12.45 -78.2 Q13.15 -81.1 15.0 -87.25 15.5 -89.05 15.7 -92.8 16.15 -96.15 18.05 -98.5 L19.45 -101.15 Q20.25 -103.1 21.0 -104.1 L24.0 -106.8 Q26.3 -108.7 26.5 -109.75 L27.2 -115.85 27.5 -120.4 27.3 -126.6 25.75 -123.75 24.25 -120.35 Q25.35 -118.45 25.65 -117.25 26.0 -116.05 26.0 -114.15 26.0 -111.9 24.85 -110.85 23.85 -109.95 19.25 -107.85 19.15 -105.95 18.65 -104.45 17.75 -101.5 14.75 -101.5 L12.95 -101.7 12.0 -99.9 11.15 -98.55 11.1 -98.5 9.05 -95.55 8.95 -91.35 Q8.65 -88.6 5.25 -88.5 L5.0 -88.5 4.95 -88.5 4.5 -88.5 Q3.35 -88.65 2.3 -89.3 L1.2 -90.1 Q0.25 -90.95 -0.55 -92.15 -0.7 -90.95 -1.0 -89.9 -1.7 -87.5 -3.0 -87.5 -4.45 -87.5 -6.25 -89.85 -8.0 -92.15 -8.0 -93.75 L-7.9 -93.85 -8.0 -93.8 -8.85 -93.55 -9.9 -93.15 -9.95 -93.1 -10.0 -93.1 -12.0 -92.5 -12.65 -92.6 -12.7 -92.6 -12.65 -92.55 -10.0 -88.1 -10.0 -83.05 -9.35 -82.95 Q-8.4 -82.65 -8.0 -81.35 -8.0 -80.0 -7.65 -79.05 -6.95 -77.25 -4.65 -77.25 L1.1 -77.75 1.8 -77.85 8.25 -78.5 11.1 -78.4 11.25 -78.35 11.95 -78.3 M48.5 -127.5 L48.5 -123.65 Q52.35 -125.25 54.0 -129.5 55.35 -132.9 55.0 -136.8 55.0 -141.35 54.45 -142.7 53.05 -145.95 48.9 -146.2 L50.25 -144.1 Q51.5 -141.6 51.5 -140.35 51.5 -137.45 50.4 -134.4 L49.9 -133.15 Q49.05 -131.25 47.85 -130.2 L48.0 -129.8 48.15 -129.05 48.35 -128.1 48.5 -127.5 M43.9 -129.0 L42.8 -125.9 41.4 -122.85 43.15 -122.75 47.0 -123.15 45.8 -125.6 Q44.85 -127.85 44.6 -129.0 L44.5 -129.0 43.9 -129.0 M40.8 -108.1 Q40.0 -105.05 40.0 -103.6 40.0 -102.25 41.0 -101.35 42.3 -100.25 44.9 -100.25 47.05 -100.25 47.75 -100.95 L48.3 -101.75 48.55 -102.35 Q45.2 -101.95 44.3 -104.15 44.0 -104.85 44.0 -107.25 L44.1 -111.0 44.3 -111.65 40.5 -111.1 Q41.1 -109.85 40.8 -108.1 M15.25 -77.9 Q15.4 -77.4 14.95 -77.15 L14.75 -75.95 14.5 -74.95 14.2 -73.45 15.0 -73.5 Q17.4 -73.5 18.65 -71.8 20.35 -69.45 22.25 -68.6 L24.4 -67.65 Q26.7 -66.85 29.55 -66.75 33.45 -66.6 44.6 -66.7 L46.55 -66.75 Q48.25 -66.25 48.8 -66.25 L48.7 -66.35 46.8 -68.25 45.05 -69.95 Q42.25 -72.5 40.3 -73.25 L38.2 -74.45 35.5 -76.6 Q32.7 -78.75 22.9 -78.75 15.85 -78.75 15.15 -78.05 L15.25 -77.9 M12.0 -76.1 L8.15 -76.25 -5.25 -75.0 -5.75 -75.0 -5.85 -74.3 -6.0 -72.3 -6.0 -70.65 Q-5.65 -70.2 -4.5 -69.95 L-4.5 -70.0 -4.45 -69.95 -1.3 -69.75 Q7.6 -69.75 10.45 -70.7 11.4 -71.05 11.7 -71.5 L12.0 -72.0 12.0 -74.6 12.15 -75.1 Q12.0 -75.25 12.0 -76.0 L12.0 -76.1 M21.35 -66.7 L21.3 -66.75 Q20.1 -67.2 17.6 -68.95 L16.5 -69.7 16.0 -69.35 15.95 -69.15 16.0 -68.2 16.0 -68.15 Q16.0 -67.3 17.45 -64.2 L19.5 -59.35 Q19.85 -58.05 22.2 -55.2 L25.5 -51.5 28.4 -47.9 Q30.6 -45.3 33.0 -44.6 34.95 -44.05 38.25 -42.05 L42.85 -39.4 43.0 -39.35 42.95 -39.45 41.8 -44.5 41.55 -45.7 Q40.6 -49.75 38.55 -52.5 36.35 -55.4 31.5 -64.75 L31.5 -64.8 28.8 -64.75 24.55 -65.55 21.35 -66.7 M14.7 -70.05 L15.45 -70.45 14.4 -71.15 14.7 -70.05 M12.9 -68.35 L12.95 -68.6 12.85 -68.55 6.45 -67.7 Q5.15 -66.2 1.35 -63.7 -2.4 -61.2 -3.55 -59.6 L-3.6 -58.85 -4.0 -58.7 -4.0 -54.75 8.05 -62.5 10.45 -64.05 Q12.1 -65.2 12.5 -66.25 L12.9 -68.35 M13.4 -63.75 L15.6 -58.65 17.6 -58.3 Q17.15 -59.15 17.0 -59.75 L15.25 -64.25 14.6 -65.8 13.75 -64.15 13.4 -63.75 M15.25 -56.3 L12.0 -56.0 8.75 -56.45 5.3 -57.25 5.1 -57.65 2.4 -55.8 -1.55 -53.25 4.25 -52.75 15.0 -52.75 Q15.0 -55.0 15.25 -56.1 L15.25 -56.35 15.25 -56.3 M6.45 -58.6 L11.0 -58.8 12.95 -58.8 12.5 -59.9 11.75 -62.4 8.5 -60.1 6.45 -58.6 M-4.25 -25.3 L-5.0 -24.0 Q-5.85 -22.5 -6.0 -21.35 L-6.15 -17.4 -6.05 -15.2 -6.0 -13.6 -6.0 -13.5 Q-6.0 -12.4 -7.0 -9.15 L-7.15 -8.6 -8.0 -5.8 -5.35 -3.3 -5.1 -3.05 -3.95 -1.8 Q-2.65 -0.35 -2.5 0.5 L-2.7 0.9 -2.3 2.4 Q-1.9 4.5 -1.95 7.3 L-1.95 7.65 -2.0 15.55 -1.65 19.1 -1.65 19.15 -1.25 22.6 0.0 31.3 0.25 32.85 1.9 46.3 3.3 59.3 7.0 58.75 7.8 58.6 8.0 58.55 8.05 58.55 8.25 58.55 11.3 58.5 12.55 58.5 14.65 58.5 13.5 49.3 13.1 47.1 12.65 44.5 11.7 39.45 11.5 38.2 11.45 38.0 10.5 32.3 Q10.0 28.65 10.0 20.25 L10.0 13.3 Q9.6 10.95 9.65 9.6 9.7 8.1 10.6 7.9 10.75 7.05 11.5 5.75 12.5 3.95 12.5 1.65 12.5 -0.3 10.95 -4.6 L10.5 -5.85 9.95 -7.35 8.65 -10.95 8.5 -11.35 8.5 -11.5 8.5 -11.6 8.65 -13.25 Q9.15 -17.25 11.8 -23.1 13.3 -26.5 15.0 -28.75 L15.5 -29.4 Q17.65 -32.05 20.05 -32.65 L20.3 -32.75 19.8 -34.15 19.05 -36.5 Q18.2 -38.6 16.3 -40.25 14.15 -42.15 13.65 -43.95 13.5 -44.55 13.5 -47.55 L13.35 -49.6 Q13.45 -50.25 13.85 -50.6 L10.55 -50.5 10.15 -50.5 7.35 -50.65 6.15 -50.7 4.35 -50.85 1.3 -51.05 0.55 -51.1 -1.1 -51.25 -2.65 -51.5 Q-2.35 -50.35 -2.35 -49.1 -2.35 -46.8 -3.35 -44.75 -0.85 -44.1 -0.2 -41.3 0.0 -40.35 0.0 -37.1 L-0.2 -33.2 Q-0.55 -31.0 -1.6 -29.25 L-4.15 -25.45 -4.25 -25.3 M3.5 61.5 L3.5 62.4 3.5 63.05 9.95 62.6 14.95 63.25 14.8 60.55 4.0 61.5 3.5 61.5 M9.3 65.5 L4.0 65.5 4.0 65.8 3.75 69.7 Q4.75 68.6 6.55 67.25 L9.3 65.5 M3.5 73.5 L3.35 73.3 3.15 75.05 Q4.65 73.95 7.2 72.6 12.8 69.7 16.05 69.1 15.45 67.05 15.2 65.5 L13.5 65.5 Q13.5 66.3 9.35 68.7 4.9 71.25 4.05 73.25 L3.5 73.5 M9.75 73.45 Q8.5 73.95 8.05 74.25 L5.15 76.65 3.85 77.65 5.0 77.6 Q8.9 77.6 14.45 79.0 15.9 77.4 17.85 76.7 L16.95 75.9 Q15.15 74.1 9.8 73.5 L9.75 73.45 M14.2 71.95 L17.05 72.75 17.5 73.05 17.15 72.2 16.6 70.75 Q15.95 71.3 14.2 71.95 M14.7 83.1 L14.8 83.15 Q15.0 83.25 15.0 84.0 15.0 84.5 14.35 84.9 L14.05 85.05 13.85 85.15 13.5 86.35 Q13.1 88.05 13.0 89.8 13.0 92.1 15.25 93.6 17.5 95.1 17.5 96.0 L17.25 97.1 17.0 97.3 Q17.5 97.5 16.25 97.5 15.85 97.5 14.0 95.9 L11.5 93.3 Q11.0 92.5 11.0 89.35 L11.05 88.65 11.05 88.6 Q11.05 87.1 11.35 85.75 L10.5 85.9 7.55 86.25 3.0 88.0 1.8 87.75 1.65 87.85 Q2.15 91.25 5.15 96.65 L5.75 97.65 6.25 98.5 Q9.1 103.2 12.05 105.55 L13.3 106.45 Q15.45 107.75 17.65 107.75 20.0 107.75 23.85 102.75 L27.3 97.55 27.7 96.5 28.0 95.55 28.9 92.3 30.0 87.6 29.75 84.85 29.25 83.2 28.8 82.25 Q26.75 78.25 21.65 78.25 16.95 78.25 14.7 83.1 M1.65 86.6 Q2.3 85.7 6.65 84.5 9.7 83.65 12.05 83.3 L12.5 82.1 13.2 80.75 11.05 80.1 Q8.8 79.4 2.5 79.9 L1.5 86.4 1.5 86.8 1.65 86.6 M-16.4 -179.4 L-17.35 -181.0 -17.5 -181.0 -17.55 -178.8 -17.55 -178.75 -17.75 -174.5 -18.0 -169.9 -17.0 -156.25 Q-17.0 -155.5 -17.15 -155.35 L-17.3 -155.3 -15.5 -154.75 -15.0 -157.35 -14.7 -157.8 -13.75 -158.0 -12.85 -157.6 -11.95 -156.8 -11.5 -156.35 Q-10.55 -155.55 -9.35 -155.6 L-8.2 -157.95 -7.65 -158.65 Q-7.3 -159.0 -6.75 -159.0 -5.5 -159.0 -5.15 -158.05 -5.0 -157.6 -5.0 -156.5 L-3.3 -158.7 Q-4.9 -160.25 -8.0 -165.4 L-8.45 -166.1 -9.25 -167.4 -16.4 -179.4 M-14.55 -152.3 L-18.5 -153.0 -18.5 -147.3 Q-16.6 -147.7 -14.55 -147.3 L-12.85 -146.85 -12.5 -147.4 -10.6 -149.3 Q-8.65 -150.6 -5.95 -150.85 L-3.5 -150.9 -3.45 -150.9 0.05 -150.4 -1.05 -152.3 Q-1.75 -153.85 -2.0 -155.35 L-2.1 -155.6 -2.15 -155.35 -2.65 -154.05 Q-2.95 -153.5 -3.75 -153.5 -4.4 -153.5 -6.0 -154.75 L-7.0 -155.6 Q-7.65 -153.0 -9.25 -153.0 L-11.3 -153.65 -12.2 -154.05 -13.0 -154.6 Q-13.0 -153.2 -13.55 -152.7 L-13.6 -152.6 Q-13.95 -152.35 -14.55 -152.3 M-47.95 -120.55 Q-48.5 -122.15 -48.5 -123.5 -48.5 -125.45 -47.5 -126.85 L-46.3 -128.0 -47.45 -128.25 -47.5 -128.25 -48.5 -128.15 Q-51.9 -127.7 -53.5 -124.0 L-54.4 -119.95 -54.5 -119.65 Q-54.5 -117.95 -52.35 -115.2 L-52.2 -115.0 -52.0 -114.75 -48.0 -110.5 -47.55 -110.1 -47.05 -109.65 -46.9 -109.5 Q-42.7 -105.8 -39.05 -104.45 -39.95 -105.9 -40.5 -108.75 L-40.35 -111.8 -40.1 -112.45 Q-44.15 -113.6 -46.5 -117.5 L-47.2 -118.8 -47.95 -120.55 M-13.85 -141.3 L-13.85 -142.5 -13.55 -145.0 Q-17.7 -145.9 -21.2 -143.95 -25.2 -141.7 -27.25 -136.35 -29.3 -130.15 -30.1 -128.1 L-31.05 -124.05 Q-31.6 -120.75 -32.0 -119.5 -31.65 -117.4 -32.0 -115.6 -32.25 -114.3 -32.9 -113.45 -33.7 -112.5 -35.0 -112.15 L-35.5 -112.05 -35.25 -111.9 -32.05 -109.65 Q-29.2 -107.5 -28.05 -106.25 L-24.85 -108.6 Q-23.85 -109.4 -23.8 -111.55 -23.75 -112.7 -24.0 -114.6 -24.2 -117.9 -22.95 -120.35 L-22.65 -120.95 -22.3 -121.5 -22.1 -121.8 -21.4 -122.6 -17.95 -125.5 -18.0 -126.35 Q-18.0 -129.4 -16.9 -130.45 -15.0 -132.3 -14.0 -134.6 L-13.9 -140.4 -13.85 -141.3 M-11.35 -126.95 L-10.25 -126.5 -9.25 -125.95 -9.0 -125.85 Q-6.0 -124.45 -6.0 -121.5 -6.0 -120.35 -6.25 -120.0 -6.6 -119.5 -7.75 -119.5 -9.15 -119.5 -10.6 -122.15 L-11.65 -123.15 -13.2 -124.85 -13.5 -125.15 Q-13.5 -127.55 -11.35 -126.95 M-22.0 -112.1 L-21.9 -110.25 -21.75 -110.25 -21.5 -110.5 -21.3 -110.25 Q-20.1 -110.2 -18.8 -109.55 L-18.35 -109.3 Q-16.45 -111.8 -13.35 -112.95 -14.35 -113.85 -14.55 -115.2 L-14.5 -117.35 Q-14.3 -121.4 -16.1 -122.4 L-17.25 -123.45 -18.5 -122.4 Q-21.55 -119.8 -21.75 -118.85 L-21.95 -115.5 -22.0 -112.1 M-36.7 -109.55 L-37.0 -109.95 -37.0 -109.35 -36.5 -106.85 Q-36.0 -105.1 -36.0 -104.5 L-36.05 -103.75 -35.25 -103.75 Q-33.45 -103.75 -31.3 -104.6 -33.65 -105.85 -36.7 -109.55 M-20.5 -103.5 Q-20.5 -105.55 -19.55 -107.45 L-20.3 -107.9 -20.7 -108.15 -20.75 -108.0 -21.0 -105.35 -20.8 -103.4 -20.35 -101.6 -20.5 -103.5 M-18.4 -102.75 Q-16.75 -103.3 -15.6 -102.75 -14.5 -102.25 -14.5 -101.25 -14.5 -100.75 -14.85 -100.25 -12.4 -99.15 -12.0 -95.75 L-11.5 -95.1 Q-4.25 -96.85 -6.0 -100.1 L-5.5 -100.3 -8.9 -105.35 -10.35 -108.0 -11.2 -110.25 -11.7 -111.25 -14.5 -109.15 Q-18.5 -106.2 -18.5 -103.15 L-18.45 -102.75 -18.4 -102.75 M-19.6 -100.0 Q-18.6 -98.15 -17.0 -97.0 -15.15 -95.65 -13.7 -93.95 -14.65 -98.1 -17.5 -99.0 -19.15 -99.45 -19.6 -100.0 M-12.5 -103.3 Q-12.5 -106.05 -9.1 -105.25 L-9.0 -103.55 Q-9.0 -102.2 -9.65 -101.5 -10.1 -101.0 -10.75 -101.0 -12.2 -101.0 -12.5 -102.05 L-12.5 -103.3 M-9.75 -99.25 Q-9.5 -99.1 -9.5 -98.3 L-9.55 -97.5 -9.75 -97.35 -9.65 -97.15 -10.5 -97.0 -11.3 -97.15 -11.5 -97.6 -11.2 -98.75 -10.5 -99.5 -9.75 -99.25 M-4.0 -98.25 L-4.0 -98.3 -4.0 -97.8 -3.8 -97.85 -4.0 -98.25 M-17.95 -77.3 Q-17.8 -77.85 -16.9 -77.95 L-15.35 -78.1 -13.25 -78.55 -11.85 -78.75 -12.15 -80.9 -12.0 -84.5 Q-12.0 -85.95 -12.9 -88.05 L-13.65 -89.6 -15.0 -91.6 -17.5 -94.05 Q-21.1 -94.3 -22.15 -91.6 -22.5 -90.6 -22.5 -87.75 -22.5 -84.6 -20.75 -83.2 -18.65 -81.55 -18.0 -77.35 L-18.0 -77.2 -17.95 -77.3 M-13.8 -89.45 Q-13.5 -88.75 -13.5 -87.6 -13.5 -86.8 -14.75 -85.9 -15.95 -85.0 -16.75 -85.0 L-18.5 -85.25 -18.5 -88.25 Q-16.4 -90.9 -14.85 -90.4 -14.15 -90.15 -13.8 -89.45 M-16.15 -81.4 Q-16.0 -80.95 -16.0 -80.0 L-16.4 -79.8 -17.0 -79.5 -17.7 -79.8 Q-18.0 -80.05 -18.0 -80.85 -18.0 -82.2 -17.0 -82.5 -16.35 -82.05 -16.15 -81.4 M-10.0 -78.3 L-9.45 -78.35 -10.0 -80.0 -10.0 -78.3 M-8.05 -73.45 L-8.0 -74.2 -8.0 -75.65 -8.2 -75.8 -8.9 -76.75 Q-11.25 -76.0 -17.25 -74.85 L-27.85 -72.75 Q-28.15 -72.6 -32.2 -70.6 L-36.35 -68.25 Q-42.9 -64.25 -47.2 -58.25 L-48.5 -56.35 -48.6 -56.1 -48.5 -56.1 -46.45 -55.95 -36.25 -55.25 Q-30.25 -55.25 -24.0 -57.9 -18.7 -60.15 -14.85 -63.5 -12.25 -65.75 -10.3 -68.55 -8.4 -71.3 -8.05 -73.45 M-34.0 -93.5 L-37.15 -93.5 -37.05 -92.8 -37.0 -90.0 Q-36.8 -87.7 -37.3 -85.95 -38.35 -82.45 -42.0 -83.85 L-40.35 -82.9 Q-38.8 -82.25 -36.5 -82.25 -31.3 -82.25 -31.05 -87.55 L-31.05 -92.1 -30.65 -94.65 -34.0 -93.5 M-13.6 -61.55 Q-22.0 -57.35 -27.6 -54.15 -27.95 -53.2 -29.05 -51.6 L-32.55 -46.8 Q-37.7 -39.35 -38.0 -32.1 L-37.1 -32.3 -32.95 -33.55 Q-27.45 -35.6 -23.1 -39.35 L-20.85 -41.5 -20.0 -42.45 Q-18.25 -44.4 -16.6 -46.75 -16.35 -46.5 -16.0 -46.5 -15.25 -46.5 -15.1 -46.75 L-15.0 -47.0 -15.4 -48.55 -14.85 -49.5 Q-13.7 -51.35 -12.7 -54.65 L-11.35 -60.0 -10.7 -62.25 -10.0 -64.45 -9.95 -64.6 Q-11.7 -62.55 -13.5 -61.6 L-13.6 -61.55 M-3.5 -64.3 L-3.5 -62.9 -0.75 -65.0 3.0 -67.55 -1.5 -67.5 -3.6 -67.7 -3.55 -67.1 -3.5 -64.3" fill="#000000" fill-opacity="0.0" fill-rule="evenodd" stroke="none"/>
      <path d="M16.75 -150.95 L18.15 -150.55 18.1 -150.0 Q14.8 -148.75 12.5 -146.75 11.0 -145.45 10.0 -143.85 L8.9 -142.1 8.4 -142.95 8.2 -143.35 8.9 -144.85 Q9.9 -147.05 11.0 -148.15 12.8 -149.95 16.75 -150.95 M26.35 -147.2 L26.4 -147.2 26.65 -147.05 26.95 -146.9 27.2 -146.7 Q21.65 -146.15 19.1 -144.9 17.25 -143.45 15.85 -143.05 L11.35 -138.2 11.3 -138.25 10.7 -139.1 Q11.35 -140.6 14.4 -143.2 L14.0 -143.5 15.25 -143.95 17.6 -145.8 18.05 -146.1 18.1 -145.5 18.05 -145.9 18.2 -146.05 Q20.7 -147.3 26.35 -147.2 M34.25 -141.3 L35.9 -139.1 36.25 -138.6 Q35.55 -138.75 34.9 -139.45 34.15 -140.35 33.3 -140.35 24.4 -140.35 20.25 -139.1 L17.6 -137.95 17.0 -137.5 Q15.2 -136.1 13.85 -135.6 L13.6 -135.9 13.5 -136.0 16.05 -137.9 16.0 -138.25 17.05 -139.2 Q18.15 -139.95 19.5 -140.5 L21.55 -141.35 24.5 -141.5 Q32.05 -141.5 34.25 -141.3 M28.3 -134.85 L28.05 -135.05 28.0 -135.5 28.1 -136.15 28.5 -135.85 32.9 -135.7 35.6 -135.45 35.4 -134.65 28.3 -134.85 M48.15 -129.05 L50.4 -129.9 54.55 -131.1 54.05 -129.65 Q50.85 -127.5 49.5 -127.5 L48.5 -127.5 48.35 -128.1 48.15 -129.05 M-47.95 -120.55 L-47.2 -118.8 -47.5 -115.9 Q-47.5 -113.9 -46.5 -110.1 L-46.65 -109.9 -47.05 -109.65 -47.55 -110.1 -47.95 -110.7 -48.6 -111.9 Q-49.0 -112.8 -49.0 -113.75 L-48.7 -115.9 Q-48.45 -117.4 -48.5 -118.25 L-48.3 -120.05 -47.95 -120.55 M-52.2 -115.0 L-52.35 -115.2 -52.5 -117.45 Q-52.7 -119.15 -54.0 -119.85 -51.6 -125.1 -48.5 -128.15 L-47.5 -128.25 -47.45 -128.25 -47.25 -128.2 Q-49.4 -126.0 -50.55 -123.35 -52.25 -119.4 -51.6 -114.75 L-51.9 -114.65 -52.2 -115.0 M-32.9 -113.45 Q-30.5 -114.7 -28.65 -119.8 -27.35 -123.25 -26.35 -127.85 L-23.5 -135.35 Q-20.75 -141.7 -13.85 -141.3 L-13.9 -140.4 Q-18.1 -139.3 -20.3 -137.8 -22.6 -136.2 -23.0 -134.0 -23.15 -132.9 -24.2 -130.4 L-25.5 -126.5 Q-26.05 -122.9 -28.55 -117.8 -31.4 -112.0 -33.5 -112.0 L-35.0 -112.15 Q-33.7 -112.5 -32.9 -113.45 M-21.4 -122.6 L-22.1 -121.8 -22.3 -121.5 -22.65 -120.95 -22.95 -120.35 Q-22.8 -124.3 -21.5 -127.95 -19.6 -133.25 -16.0 -135.5 L-14.75 -135.35 Q-14.5 -136.05 -14.5 -134.8 L-17.6 -132.65 Q-20.8 -130.25 -21.0 -126.0 L-21.4 -122.6" fill="#594d44" fill-opacity="0.0" fill-rule="evenodd" stroke="none"/>
      <path d="M16.75 -150.95 Q12.8 -149.95 11.0 -148.15 9.9 -147.05 8.9 -144.85 L8.2 -143.35 6.5 -146.15 6.25 -146.85 Q6.7 -148.3 7.85 -149.35 10.0 -151.25 13.9 -151.25 L16.75 -150.95 M8.9 -142.1 L10.0 -143.85 Q11.0 -145.45 12.5 -146.75 14.8 -148.75 18.1 -150.0 L18.15 -150.55 18.3 -151.35 Q22.05 -149.7 26.35 -147.2 20.7 -147.3 18.2 -146.05 L18.05 -145.9 18.1 -145.5 18.05 -146.1 17.6 -145.8 15.25 -143.95 14.0 -143.5 14.4 -143.2 Q11.35 -140.6 10.7 -139.1 L8.9 -142.1 M26.95 -146.9 Q32.2 -143.8 33.5 -142.25 L34.25 -141.3 Q32.05 -141.5 24.5 -141.5 L21.55 -141.35 19.5 -140.5 Q18.15 -139.95 17.05 -139.2 L16.0 -138.25 16.05 -137.9 13.5 -136.0 11.5 -138.0 11.35 -138.2 15.85 -143.05 Q17.25 -143.45 19.1 -144.9 21.65 -146.15 27.2 -146.7 L26.95 -146.9 M35.9 -139.1 L36.55 -138.15 Q35.9 -136.75 35.35 -134.4 34.5 -130.75 34.5 -128.4 L34.5 -127.0 32.25 -130.1 Q30.15 -133.3 28.3 -134.85 L35.4 -134.65 35.6 -135.45 32.9 -135.7 28.5 -135.85 28.1 -136.15 28.0 -135.5 28.05 -135.05 27.85 -135.2 Q24.7 -137.5 19.75 -137.5 L19.15 -137.45 19.1 -137.55 18.95 -137.5 18.85 -137.45 18.7 -137.45 18.6 -137.4 18.25 -137.35 17.5 -137.25 17.5 -136.95 17.1 -136.7 16.55 -136.3 16.0 -135.85 14.9 -134.3 13.85 -135.6 Q15.2 -136.1 17.0 -137.5 L17.6 -137.95 20.25 -139.1 Q24.4 -140.35 33.3 -140.35 34.15 -140.35 34.9 -139.45 35.55 -138.75 36.25 -138.6 L35.9 -139.1 M37.5 -131.5 Q37.55 -133.0 38.3 -135.35 39.5 -132.35 40.2 -131.15 L41.0 -130.15 Q40.45 -129.3 40.0 -127.85 39.1 -125.05 39.0 -123.4 37.5 -124.0 36.3 -125.0 36.85 -125.05 36.5 -125.1 37.25 -128.0 37.5 -131.5 M48.15 -129.05 L48.0 -129.8 47.85 -130.2 Q49.05 -131.25 49.9 -133.15 L50.4 -134.4 Q51.5 -137.45 51.5 -140.35 51.5 -141.6 50.25 -144.1 L48.9 -146.2 Q53.05 -145.95 54.45 -142.7 55.0 -141.35 55.0 -136.8 55.35 -132.9 54.0 -129.5 52.35 -125.25 48.5 -123.65 L48.5 -127.5 49.5 -127.5 Q50.85 -127.5 54.05 -129.65 L54.55 -131.1 50.4 -129.9 48.15 -129.05 M43.9 -129.0 L44.5 -129.0 44.6 -129.0 Q44.85 -127.85 45.8 -125.6 L47.0 -123.15 43.15 -122.75 41.4 -122.85 42.8 -125.9 43.9 -129.0 M-47.45 -128.25 L-46.3 -128.0 -47.5 -126.85 Q-48.5 -125.45 -48.5 -123.5 -48.5 -122.15 -47.95 -120.55 L-48.3 -120.05 -48.5 -118.25 Q-48.45 -117.4 -48.7 -115.9 L-49.0 -113.75 Q-49.0 -112.8 -48.6 -111.9 L-47.95 -110.7 -48.0 -110.5 -52.0 -114.75 -51.9 -114.65 -51.6 -114.75 Q-52.25 -119.4 -50.55 -123.35 -49.4 -126.0 -47.25 -128.2 L-47.45 -128.25 M-47.2 -118.8 L-46.5 -117.5 Q-44.15 -113.6 -40.1 -112.45 L-40.35 -111.8 -40.5 -108.75 Q-39.95 -105.9 -39.05 -104.45 -42.7 -105.8 -46.9 -109.5 L-46.65 -109.9 -46.5 -110.1 Q-47.5 -113.9 -47.5 -115.9 L-47.2 -118.8 M-54.4 -119.95 L-53.5 -124.0 Q-51.9 -127.7 -48.5 -128.15 -51.6 -125.1 -54.0 -119.85 L-54.4 -119.95 M-32.9 -113.45 Q-32.25 -114.3 -32.0 -115.6 -31.65 -117.4 -32.0 -119.5 -31.6 -120.75 -31.05 -124.05 L-30.1 -128.1 Q-29.3 -130.15 -27.25 -136.35 -25.2 -141.7 -21.2 -143.95 -17.7 -145.9 -13.55 -145.0 L-13.85 -142.5 -13.85 -141.3 Q-20.75 -141.7 -23.5 -135.35 L-26.35 -127.85 Q-27.35 -123.25 -28.65 -119.8 -30.5 -114.7 -32.9 -113.45 M-13.9 -140.4 L-14.0 -134.6 Q-15.0 -132.3 -16.9 -130.45 -18.0 -129.4 -18.0 -126.35 L-17.95 -125.5 -21.4 -122.6 -21.0 -126.0 Q-20.8 -130.25 -17.6 -132.65 L-14.5 -134.8 Q-14.5 -136.05 -14.75 -135.35 L-16.0 -135.5 Q-19.6 -133.25 -21.5 -127.95 -22.8 -124.3 -22.95 -120.35 -24.2 -117.9 -24.0 -114.6 -23.75 -112.7 -23.8 -111.55 -23.85 -109.4 -24.85 -108.6 L-28.05 -106.25 Q-29.2 -107.5 -32.05 -109.65 L-35.25 -111.9 -35.0 -112.15 -33.5 -112.0 Q-31.4 -112.0 -28.55 -117.8 -26.05 -122.9 -25.5 -126.5 L-24.2 -130.4 Q-23.15 -132.9 -23.0 -134.0 -22.6 -136.2 -20.3 -137.8 -18.1 -139.3 -13.9 -140.4 M-37.0 -109.35 L-36.7 -109.55 Q-33.65 -105.85 -31.3 -104.6 -33.45 -103.75 -35.25 -103.75 L-36.05 -103.75 -36.0 -104.5 Q-36.0 -105.1 -36.5 -106.85 L-37.0 -109.35" fill="#7e6d61" fill-opacity="0.0" fill-rule="evenodd" stroke="none"/>
      <path d="M25.0 -126.6 Q24.25 -125.8 23.4 -123.85 L22.75 -122.25 20.5 -124.0 Q17.85 -126.0 15.2 -125.85 16.5 -127.95 16.5 -129.0 L16.0 -131.15 15.8 -131.7 Q16.45 -132.35 17.35 -133.95 18.15 -134.85 19.65 -135.3 L19.85 -135.4 19.75 -135.55 22.4 -135.05 Q25.5 -134.3 27.0 -132.6 L29.0 -130.8 Q26.35 -131.2 25.9 -129.7 L25.0 -126.6 M-15.55 -126.05 L-14.05 -127.7 -10.5 -131.35 -8.65 -135.1 Q-7.55 -137.4 -6.1 -138.25 -2.75 -140.2 1.15 -138.35 L6.3 -134.85 Q7.2 -134.05 8.5 -131.65 L9.45 -129.8 Q8.55 -129.6 7.7 -128.8 L6.25 -127.3 Q4.0 -124.4 4.0 -122.5 4.0 -121.7 4.15 -121.65 L4.3 -121.75 5.25 -121.5 Q6.9 -121.5 8.5 -123.05 L9.55 -124.25 9.75 -124.5 10.55 -125.65 10.75 -126.0 10.8 -126.0 12.0 -127.0 12.35 -126.9 12.5 -127.0 12.6 -126.95 12.7 -126.9 13.35 -126.25 13.0 -125.95 12.25 -125.1 Q11.5 -124.1 11.5 -123.15 L11.5 -123.1 11.6 -122.3 12.0 -119.2 12.5 -115.3 Q12.5 -115.0 10.5 -113.75 L9.15 -112.8 8.5 -112.5 Q8.4 -109.4 7.15 -101.55 6.1 -95.1 6.5 -91.1 L4.9 -90.75 Q3.5 -90.75 -1.4 -98.15 L-8.1 -108.85 Q-8.65 -109.75 -9.0 -111.1 L-9.6 -113.35 Q-11.25 -114.1 -11.9 -115.05 -12.5 -115.9 -12.5 -117.25 L-12.25 -119.75 Q-12.15 -121.3 -12.5 -122.1 -13.0 -123.25 -14.05 -124.0 L-14.75 -124.5 -15.6 -125.2 -15.5 -125.5 -15.55 -126.05 M2.0 -112.85 Q2.0 -114.15 1.0 -117.55 0.0 -121.05 0.0 -121.85 L-1.15 -120.75 -1.5 -119.85 -1.5 -111.6 0.25 -111.7 2.0 -112.1 2.0 -112.85 M-3.4 -110.85 L-4.0 -110.75 -4.0 -108.1 -2.4 -103.4 Q-1.2 -100.0 -0.5 -100.0 0.25 -100.0 0.4 -100.25 L0.5 -100.5 0.5 -103.1 Q-0.15 -104.35 -0.15 -108.3 L-0.5 -109.55 Q-1.3 -111.05 -3.35 -110.85 L-3.45 -111.0 -3.4 -110.85 M4.35 -112.65 Q3.9 -112.8 3.35 -112.3 L3.05 -112.0 2.9 -109.5 2.75 -108.05 2.5 -104.85 3.0 -101.9 Q3.65 -99.0 4.5 -99.0 5.25 -99.0 5.4 -99.25 L5.5 -99.5 Q5.5 -102.5 6.0 -107.35 6.0 -109.2 5.4 -111.1 4.95 -112.45 4.35 -112.65 M-11.35 -126.95 Q-13.5 -127.55 -13.5 -125.15 L-13.2 -124.85 -11.65 -123.15 -10.6 -122.15 Q-9.15 -119.5 -7.75 -119.5 -6.6 -119.5 -6.25 -120.0 -6.0 -120.35 -6.0 -121.5 -6.0 -124.45 -9.0 -125.85 L-9.25 -125.95 -10.25 -126.5 -11.35 -126.95 M-18.5 -103.15 Q-18.5 -106.2 -14.5 -109.15 L-11.7 -111.25 -11.2 -110.25 -10.35 -108.0 -8.9 -105.35 -5.5 -100.3 -6.0 -100.1 Q-4.25 -96.85 -11.5 -95.1 L-12.0 -95.75 Q-12.4 -99.15 -14.85 -100.25 -14.5 -100.75 -14.5 -101.25 -14.5 -102.25 -15.6 -102.75 -16.75 -103.3 -18.4 -102.75 L-18.5 -103.15 M-9.75 -99.25 L-10.5 -99.5 -11.2 -98.75 -11.5 -97.6 -11.3 -97.15 -10.5 -97.0 -9.65 -97.15 -9.75 -97.35 -9.55 -97.5 -9.5 -98.3 Q-9.5 -99.1 -9.75 -99.25 M-12.5 -103.3 L-12.5 -102.05 Q-12.2 -101.0 -10.75 -101.0 -10.1 -101.0 -9.65 -101.5 -9.0 -102.2 -9.0 -103.55 L-9.1 -105.25 Q-12.5 -106.05 -12.5 -103.3" fill="#847b6a" fill-opacity="0.0" fill-rule="evenodd" stroke="none"/>
      <path d="M11.3 -138.25 L10.7 -139.1 11.3 -138.25 M-46.9 -109.5 L-47.05 -109.65 -46.65 -109.9 -46.9 -109.5 M-47.55 -110.1 L-48.0 -110.5 -47.95 -110.7 -47.55 -110.1 M-52.0 -114.75 L-52.2 -115.0 -51.9 -114.65 -52.0 -114.75 M-52.35 -115.2 Q-54.5 -117.95 -54.5 -119.65 L-54.4 -119.95 -54.0 -119.85 Q-52.7 -119.15 -52.5 -117.45 L-52.35 -115.2 M-35.25 -111.9 L-35.5 -112.05 -35.0 -112.15 -35.25 -111.9" fill="#625b4f" fill-opacity="0.0" fill-rule="evenodd" stroke="none"/>
      <path d="M-15.55 -126.05 L-15.75 -126.35 -16.0 -126.4 Q-16.0 -127.65 -15.05 -128.75 -13.35 -130.8 -12.75 -131.85 -12.1 -132.95 -12.0 -134.8 L-12.0 -137.85 -12.05 -139.85 Q-12.05 -141.95 -11.55 -143.6 -10.05 -148.75 -4.5 -148.75 0.2 -148.75 2.9 -146.85 L4.55 -145.7 Q4.65 -144.15 6.5 -141.15 8.05 -138.6 9.5 -137.0 L12.4 -133.5 Q14.5 -130.6 14.5 -129.0 14.5 -127.6 13.35 -126.25 L12.7 -126.9 12.6 -126.95 12.5 -127.0 12.35 -126.9 12.0 -127.0 10.8 -126.0 Q11.5 -127.3 11.5 -128.25 11.5 -129.5 11.3 -129.75 L9.45 -129.8 8.5 -131.65 Q7.2 -134.05 6.3 -134.85 L1.15 -138.35 Q-2.75 -140.2 -6.1 -138.25 -7.55 -137.4 -8.65 -135.1 L-10.5 -131.35 -14.05 -127.7 -15.55 -126.05 M10.15 -105.05 L10.5 -109.55 10.3 -110.95 10.3 -111.0 Q12.35 -111.15 13.5 -112.5 14.5 -113.65 14.5 -115.1 L14.0 -119.05 13.5 -123.0 13.6 -123.2 Q16.85 -123.55 19.9 -121.6 24.0 -119.1 24.0 -114.4 24.0 -113.2 18.55 -110.0 16.9 -108.95 16.55 -106.05 16.3 -103.75 14.4 -103.75 13.8 -103.75 12.45 -104.35 L10.5 -105.0 10.15 -105.05 M18.65 -112.3 L19.0 -112.6 19.0 -114.85 Q16.6 -117.75 15.85 -116.7 15.5 -116.25 15.5 -114.5 15.35 -113.75 15.5 -113.15 15.8 -112.0 17.5 -112.0 18.25 -112.0 18.65 -112.3 M2.0 -112.85 L2.0 -112.1 0.25 -111.7 -1.5 -111.6 -1.5 -119.85 -1.15 -120.75 0.0 -121.85 Q0.0 -121.05 1.0 -117.55 2.0 -114.15 2.0 -112.85 M-3.4 -110.85 L-3.45 -111.0 -3.35 -110.85 -3.4 -110.85 M14.7 -108.75 L14.0 -109.0 13.25 -108.85 13.05 -108.5 13.0 -107.65 Q13.0 -106.85 13.25 -106.7 L14.0 -106.5 Q14.5 -106.6 14.75 -106.85 L14.9 -107.0 15.0 -107.8 Q15.0 -108.6 14.7 -108.75 M40.8 -108.1 Q41.1 -109.85 40.5 -111.1 L44.3 -111.65 44.1 -111.0 44.0 -107.25 Q44.0 -104.85 44.3 -104.15 45.2 -101.95 48.55 -102.35 L48.3 -101.75 47.75 -100.95 Q47.05 -100.25 44.9 -100.25 42.3 -100.25 41.0 -101.35 40.0 -102.25 40.0 -103.6 40.0 -105.05 40.8 -108.1 M-18.0 -77.35 Q-18.65 -81.55 -20.75 -83.2 -22.5 -84.6 -22.5 -87.75 -22.5 -90.6 -22.15 -91.6 -21.1 -94.3 -17.5 -94.05 L-15.0 -91.6 -13.65 -89.6 -12.9 -88.05 Q-12.0 -85.95 -12.0 -84.5 L-12.15 -80.9 -11.85 -78.75 -13.25 -78.55 -15.35 -78.1 -16.9 -77.95 Q-17.8 -77.85 -17.95 -77.3 L-18.0 -77.35 M-16.15 -81.4 Q-16.35 -82.05 -17.0 -82.5 -18.0 -82.2 -18.0 -80.85 -18.0 -80.05 -17.7 -79.8 L-17.0 -79.5 -16.4 -79.8 -16.0 -80.0 Q-16.0 -80.95 -16.15 -81.4 M-13.8 -89.45 Q-14.15 -90.15 -14.85 -90.4 -16.4 -90.9 -18.5 -88.25 L-18.5 -85.25 -16.75 -85.0 Q-15.95 -85.0 -14.75 -85.9 -13.5 -86.8 -13.5 -87.6 -13.5 -88.75 -13.8 -89.45 M-34.0 -93.5 L-30.65 -94.65 -31.05 -92.1 -31.05 -87.55 Q-31.3 -82.25 -36.5 -82.25 -38.8 -82.25 -40.35 -82.9 L-42.0 -83.85 Q-38.35 -82.45 -37.3 -85.95 -36.8 -87.7 -37.0 -90.0 L-37.05 -92.8 -37.15 -93.5 -34.0 -93.5" fill="#baae96" fill-opacity="0.0" fill-rule="evenodd" stroke="none"/>
      <path d="M12.0 -99.9 L12.95 -101.7 14.75 -101.5 Q17.75 -101.5 18.65 -104.45 19.15 -105.95 19.25 -107.85 23.85 -109.95 24.85 -110.85 26.0 -111.9 26.0 -114.15 26.0 -116.05 25.65 -117.25 25.35 -118.45 24.25 -120.35 L25.75 -123.75 27.3 -126.6 27.5 -120.4 27.2 -115.85 26.5 -109.75 Q26.3 -108.7 24.0 -106.8 L21.0 -104.1 Q20.25 -103.1 19.45 -101.15 L18.05 -98.5 Q16.15 -96.15 15.7 -92.8 15.5 -89.05 15.0 -87.25 13.15 -81.1 12.45 -78.2 L11.95 -78.3 12.05 -84.35 Q12.35 -89.55 13.8 -92.35 L18.7 -100.9 23.25 -108.85 Q21.9 -108.4 20.6 -105.8 L19.0 -102.35 16.5 -98.95 Q14.7 -96.75 14.3 -95.6 L11.3 -87.6 Q11.0 -86.45 11.0 -81.55 L11.1 -78.4 8.25 -78.5 1.8 -77.85 1.95 -77.85 Q2.75 -81.45 4.9 -87.05 L5.45 -88.5 5.25 -88.5 Q8.65 -88.6 8.95 -91.35 L9.05 -95.55 11.1 -98.5 11.15 -98.55 Q11.05 -94.3 9.9 -91.5 8.0 -87.0 8.0 -82.4 8.0 -79.6 8.5 -78.6 L8.8 -78.85 9.3 -82.4 Q9.3 -87.4 10.65 -90.95 12.0 -94.5 12.0 -98.35 L12.0 -99.9 M1.2 -90.1 Q0.35 -89.15 -0.45 -87.5 -2.3 -83.55 -4.6 -83.25 L-6.9 -89.65 -8.85 -93.55 -8.0 -93.8 -8.0 -93.75 Q-8.0 -92.15 -6.25 -89.85 -4.45 -87.5 -3.0 -87.5 -1.7 -87.5 -1.0 -89.9 -0.7 -90.95 -0.55 -92.15 0.25 -90.95 1.2 -90.1 M-10.0 -93.1 L-10.0 -91.85 -8.4 -86.2 Q-6.95 -82.1 -4.25 -82.1 -2.0 -82.1 0.4 -86.05 L2.3 -89.3 Q3.35 -88.65 4.5 -88.5 L4.1 -88.55 3.05 -86.0 Q1.0 -80.6 1.0 -79.55 L1.1 -77.75 -4.65 -77.25 Q-6.95 -77.25 -7.65 -79.05 -8.0 -80.0 -8.0 -81.35 -8.4 -82.65 -9.35 -82.95 L-10.0 -83.05 -10.0 -88.1 -12.65 -92.55 -12.65 -92.6 -12.0 -92.5 -10.0 -93.1 M6.45 -58.6 L8.5 -60.1 11.75 -62.4 12.5 -59.9 12.95 -58.8 11.0 -58.8 6.45 -58.6 M0.55 -51.1 L0.25 -49.55 0.0 -47.55 Q0.0 -45.4 0.2 -45.1 L2.5 -42.0 Q3.7 -39.9 3.95 -38.45 L4.0 -35.4 Q4.0 -31.15 3.0 -29.6 2.15 -28.3 -2.05 -26.35 L-4.25 -25.3 -4.15 -25.45 -1.6 -29.25 Q-0.55 -31.0 -0.2 -33.2 L0.0 -37.1 Q0.0 -40.35 -0.2 -41.3 -0.85 -44.1 -3.35 -44.75 -2.35 -46.8 -2.35 -49.1 -2.35 -50.35 -2.65 -51.5 L-1.1 -51.25 0.55 -51.1 M-5.0 -24.0 Q1.9 -26.5 3.85 -29.2 5.0 -30.85 5.0 -35.4 L4.8 -38.95 Q4.45 -40.55 3.05 -43.1 2.2 -44.7 1.8 -47.4 L1.3 -51.05 4.35 -50.85 6.15 -50.7 6.1 -50.65 6.0 -48.3 Q6.0 -47.05 7.25 -43.25 8.5 -39.5 8.5 -37.8 8.5 -34.6 7.2 -30.7 5.45 -25.35 2.25 -24.1 -0.75 -23.0 -2.8 -21.0 -4.6 -19.3 -5.1 -17.6 -5.3 -16.9 -6.05 -15.2 L-6.15 -17.4 -6.0 -21.35 Q-5.85 -22.5 -5.0 -24.0 M7.35 -50.65 L10.15 -50.5 10.0 -50.5 10.0 -42.25 Q11.65 -38.35 15.85 -35.3 17.0 -34.4 20.05 -32.65 17.65 -32.05 15.5 -29.4 L15.5 -29.85 14.6 -31.2 12.5 -31.5 Q11.45 -31.5 10.5 -27.6 L9.5 -23.1 7.5 -18.25 Q6.9 -16.95 4.9 -15.45 L2.5 -13.6 Q0.6 -11.3 -1.0 -4.8 -2.0 -0.8 -2.3 2.4 L-2.7 0.9 -2.5 0.5 Q-2.65 -0.35 -3.95 -1.8 L-2.85 -6.65 -2.6 -6.75 -2.5 -7.5 -2.6 -7.6 Q-1.35 -12.2 1.0 -15.5 L0.75 -15.85 Q-1.2 -15.5 -3.45 -9.0 L-5.1 -3.05 -5.35 -3.3 -8.0 -5.8 -7.15 -8.6 -6.75 -8.6 Q-5.3 -16.05 -2.4 -19.6 -0.7 -21.65 3.0 -23.5 6.35 -25.2 7.55 -27.25 9.5 -30.5 9.5 -37.8 9.5 -39.25 8.95 -40.75 8.15 -42.9 7.8 -44.75 7.55 -45.95 7.45 -48.25 L7.35 -50.65 M10.55 -50.5 L13.85 -50.6 Q13.45 -50.25 13.35 -49.6 L13.5 -47.55 Q13.5 -44.55 13.65 -43.95 14.15 -42.15 16.3 -40.25 18.2 -38.6 19.05 -36.5 L19.8 -34.15 19.75 -34.35 17.05 -36.05 Q12.7 -38.9 12.0 -41.25 11.5 -42.95 11.3 -46.2 L10.9 -50.5 10.55 -50.5 M15.0 -28.75 Q13.3 -26.5 11.8 -23.1 9.15 -17.25 8.65 -13.25 L7.0 -10.7 Q3.0 -4.25 3.0 -2.0 L3.05 -0.9 3.5 -0.6 4.65 -2.2 5.5 -3.5 Q5.5 -6.65 7.65 -9.6 L8.65 -10.95 9.95 -7.35 Q8.8 -6.5 8.3 -4.5 L7.0 0.3 4.45 4.95 2.0 9.3 Q0.85 11.7 -1.55 18.85 L-1.65 19.1 -2.0 15.55 -1.95 7.65 -1.95 7.3 -1.6 7.25 Q-0.45 -4.45 2.75 -11.1 3.4 -12.5 5.1 -13.65 7.4 -15.25 7.75 -15.6 8.3 -16.2 8.75 -17.7 L9.5 -20.1 10.85 -24.8 12.25 -29.5 14.25 -28.95 15.0 -28.75 M10.95 -4.6 Q12.5 -0.3 12.5 1.65 12.5 3.95 11.5 5.75 10.75 7.05 10.6 7.9 9.7 8.1 9.65 9.6 9.6 10.95 10.0 13.3 L10.0 20.25 Q10.0 28.65 10.5 32.3 L11.45 38.0 Q9.7 40.65 8.85 42.9 7.5 46.55 7.5 53.35 7.5 56.6 7.8 58.6 L7.0 58.75 3.3 59.3 1.9 46.3 0.25 32.85 0.0 31.3 -1.25 22.6 -0.25 19.95 2.75 11.5 Q4.15 6.45 7.95 2.0 10.6 -1.2 10.95 -4.6 M11.7 39.45 L12.65 44.5 Q12.0 45.55 11.65 46.55 11.0 48.4 11.0 54.6 11.0 56.2 11.3 58.5 L8.25 58.55 Q7.6 48.35 11.7 39.45 M13.1 47.1 L13.5 49.3 14.65 58.5 12.55 58.5 Q12.3 53.25 12.55 50.35 12.7 48.65 13.1 47.1 M9.75 7.05 Q6.6 9.55 5.5 13.25 4.95 15.15 4.6 20.2 4.25 24.75 3.2 27.3 2.15 29.8 0.1 31.9 L0.25 32.85 Q2.35 30.6 3.75 28.1 5.6 24.75 6.0 21.3 L6.1 17.9 Q6.1 15.85 6.55 14.55 L8.4 11.2 Q10.0 8.45 10.0 7.6 L9.9 6.85 9.75 7.05 M9.3 29.25 L10.1 26.4 10.0 22.2 Q9.45 23.3 9.15 24.9 L8.3 28.5 7.15 31.8 Q6.45 34.05 5.55 35.55 L2.45 39.55 1.3 41.15 1.5 42.9 4.15 39.95 6.75 36.3 Q7.45 35.05 8.15 32.7 8.85 30.15 9.3 29.25 M9.3 65.5 L6.55 67.25 Q4.75 68.6 3.75 69.7 L4.0 65.8 4.0 65.5 9.3 65.5 M14.2 71.95 Q15.95 71.3 16.6 70.75 L17.15 72.2 17.5 73.05 17.05 72.75 14.2 71.95 M14.35 84.9 Q14.6 85.95 15.2 86.65 17.15 89.0 24.0 89.0 26.45 89.0 28.9 85.9 L29.75 84.85 30.0 87.6 28.9 92.3 28.0 95.55 Q14.25 89.95 14.25 85.05 L14.05 85.05 14.35 84.9 M29.25 83.2 L28.25 84.95 Q26.25 87.8 19.55 87.8 17.65 87.8 16.8 85.7 15.85 83.55 14.7 83.1 16.95 78.25 21.65 78.25 26.75 78.25 28.8 82.25 L29.25 83.2 M10.5 85.9 L8.75 89.75 6.6 93.4 Q5.5 95.4 5.15 96.65 2.15 91.25 1.65 87.85 L1.8 87.75 3.0 88.0 7.55 86.25 10.5 85.9 M5.75 97.65 Q7.75 94.95 10.5 89.6 L11.05 88.65 11.0 89.35 Q11.0 92.5 11.5 93.3 L14.0 95.9 Q15.85 97.5 16.25 97.5 17.5 97.5 17.0 97.3 L17.25 97.1 17.5 96.0 Q17.5 95.1 15.25 93.6 13.0 92.1 13.0 89.8 13.1 88.05 13.5 86.35 L13.5 87.25 Q15.2 89.95 18.05 92.8 18.7 93.5 19.6 93.85 L21.55 94.3 Q23.55 94.7 26.1 95.85 L27.7 96.5 27.3 97.55 23.85 102.75 Q20.0 107.75 17.65 107.75 15.45 107.75 13.3 106.45 L13.3 106.2 13.5 102.85 13.25 95.55 12.5 95.55 12.0 104.0 12.05 105.55 Q9.1 103.2 6.25 98.5 L5.75 97.65 M-17.55 -178.75 L-17.55 -178.8 -17.5 -181.0 -17.35 -181.0 -16.4 -179.4 -16.1 -178.85 -13.6 -170.15 Q-11.5 -163.1 -11.5 -157.1 L-11.5 -156.35 -11.95 -156.8 -12.85 -157.6 -13.4 -160.45 -13.5 -165.75 Q-13.5 -166.8 -16.25 -174.8 L-17.55 -178.75 M-9.25 -167.4 L-8.45 -166.1 -7.75 -162.6 -6.75 -159.0 Q-7.3 -159.0 -7.65 -158.65 L-8.6 -162.05 -9.5 -167.0 -9.5 -167.8 -9.25 -167.4 M-14.55 -152.3 L-14.5 -151.05 -14.5 -148.25 -14.55 -147.3 Q-16.6 -147.7 -18.5 -147.3 L-18.5 -153.0 -14.55 -152.3 M-12.5 -147.4 L-12.2 -154.05 -11.3 -153.65 -9.25 -153.0 Q-7.65 -153.0 -7.0 -155.6 L-6.0 -154.75 Q-6.5 -154.3 -6.5 -152.9 L-6.1 -151.25 -5.95 -150.85 Q-8.65 -150.6 -10.6 -149.3 L-12.5 -147.4 M-2.15 -155.35 L-2.0 -155.35 Q-1.75 -153.85 -1.05 -152.3 L0.05 -150.4 -3.45 -150.9 -3.5 -150.9 -3.5 -151.55 Q-3.5 -152.7 -3.75 -153.5 -2.95 -153.5 -2.65 -154.05 L-2.15 -155.35 M-20.8 -103.4 L-21.0 -105.35 -20.75 -108.0 -20.7 -108.15 -20.3 -107.9 -19.55 -107.45 Q-20.5 -105.55 -20.5 -103.5 L-20.8 -103.4 M-19.6 -100.0 Q-19.15 -99.45 -17.5 -99.0 -14.65 -98.1 -13.7 -93.95 -15.15 -95.65 -17.0 -97.0 -18.6 -98.15 -19.6 -100.0 M-3.5 -64.3 L-3.55 -67.1 -3.6 -67.7 -1.5 -67.5 3.0 -67.55 -0.75 -65.0 -3.5 -62.9 -3.5 -64.3" fill="#31282d" fill-opacity="0.0" fill-rule="evenodd" stroke="none"/>
      <path d="M12.0 -99.9 L12.0 -98.35 Q12.0 -94.5 10.65 -90.95 9.3 -87.4 9.3 -82.4 L8.8 -78.85 8.5 -78.6 Q8.0 -79.6 8.0 -82.4 8.0 -87.0 9.9 -91.5 11.05 -94.3 11.15 -98.55 L12.0 -99.9 M5.25 -88.5 L5.45 -88.5 4.9 -87.05 Q2.75 -81.45 1.95 -77.85 L1.8 -77.85 1.1 -77.75 1.0 -79.55 Q1.0 -80.6 3.05 -86.0 L4.1 -88.55 4.5 -88.5 4.95 -88.5 5.0 -88.5 5.25 -88.5 M11.1 -78.4 L11.0 -81.55 Q11.0 -86.45 11.3 -87.6 L14.3 -95.6 Q14.7 -96.75 16.5 -98.95 L19.0 -102.35 20.6 -105.8 Q21.9 -108.4 23.25 -108.85 L18.7 -100.9 13.8 -92.35 Q12.35 -89.55 12.05 -84.35 L11.95 -78.3 11.25 -78.35 11.1 -78.4 M1.2 -90.1 L2.3 -89.3 0.4 -86.05 Q-2.0 -82.1 -4.25 -82.1 -6.95 -82.1 -8.4 -86.2 L-10.0 -91.85 -10.0 -93.1 -9.95 -93.1 -9.9 -93.15 -8.85 -93.55 -6.9 -89.65 -4.6 -83.25 Q-2.3 -83.55 -0.45 -87.5 0.35 -89.15 1.2 -90.1 M-4.25 -25.3 L-2.05 -26.35 Q2.15 -28.3 3.0 -29.6 4.0 -31.15 4.0 -35.4 L3.95 -38.45 Q3.7 -39.9 2.5 -42.0 L0.2 -45.1 Q0.0 -45.4 0.0 -47.55 L0.25 -49.55 0.55 -51.1 1.3 -51.05 1.8 -47.4 Q2.2 -44.7 3.05 -43.1 4.45 -40.55 4.8 -38.95 L5.0 -35.4 Q5.0 -30.85 3.85 -29.2 1.9 -26.5 -5.0 -24.0 L-4.25 -25.3 M-6.05 -15.2 Q-5.3 -16.9 -5.1 -17.6 -4.6 -19.3 -2.8 -21.0 -0.75 -23.0 2.25 -24.1 5.45 -25.35 7.2 -30.7 8.5 -34.6 8.5 -37.8 8.5 -39.5 7.25 -43.25 6.0 -47.05 6.0 -48.3 L6.1 -50.65 6.15 -50.7 7.35 -50.65 7.45 -48.25 Q7.55 -45.95 7.8 -44.75 8.15 -42.9 8.95 -40.75 9.5 -39.25 9.5 -37.8 9.5 -30.5 7.55 -27.25 6.35 -25.2 3.0 -23.5 -0.7 -21.65 -2.4 -19.6 -5.3 -16.05 -6.75 -8.6 L-7.15 -8.6 -7.0 -9.15 Q-6.0 -12.4 -6.0 -13.5 L-6.0 -13.6 -6.05 -15.2 M10.15 -50.5 L10.55 -50.5 10.9 -50.5 11.3 -46.2 Q11.5 -42.95 12.0 -41.25 12.7 -38.9 17.05 -36.05 L19.75 -34.35 19.8 -34.15 20.3 -32.75 20.05 -32.65 Q17.0 -34.4 15.85 -35.3 11.65 -38.35 10.0 -42.25 L10.0 -50.5 10.15 -50.5 M15.5 -29.4 L15.0 -28.75 14.25 -28.95 12.25 -29.5 10.85 -24.8 9.5 -20.1 8.75 -17.7 Q8.3 -16.2 7.75 -15.6 7.4 -15.25 5.1 -13.65 3.4 -12.5 2.75 -11.1 -0.45 -4.45 -1.6 7.25 L-1.95 7.3 Q-1.9 4.5 -2.3 2.4 -2.0 -0.8 -1.0 -4.8 0.6 -11.3 2.5 -13.6 L4.9 -15.45 Q6.9 -16.95 7.5 -18.25 L9.5 -23.1 10.5 -27.6 Q11.45 -31.5 12.5 -31.5 L14.6 -31.2 15.5 -29.85 15.5 -29.4 M8.65 -13.25 L8.5 -11.6 8.5 -11.5 8.5 -11.35 8.65 -10.95 7.65 -9.6 Q5.5 -6.65 5.5 -3.5 L4.65 -2.2 3.5 -0.6 3.05 -0.9 3.0 -2.0 Q3.0 -4.25 7.0 -10.7 L8.65 -13.25 M9.95 -7.35 L10.5 -5.85 10.95 -4.6 Q10.6 -1.2 7.95 2.0 4.15 6.45 2.75 11.5 L-0.25 19.95 -1.25 22.6 -1.65 19.15 -1.65 19.1 -1.55 18.85 Q0.85 11.7 2.0 9.3 L4.45 4.95 7.0 0.3 8.3 -4.5 Q8.8 -6.5 9.95 -7.35 M11.45 38.0 L11.5 38.2 11.7 39.45 Q7.6 48.35 8.25 58.55 L8.05 58.55 8.0 58.55 7.8 58.6 Q7.5 56.6 7.5 53.35 7.5 46.55 8.85 42.9 9.7 40.65 11.45 38.0 M12.65 44.5 L13.1 47.1 Q12.7 48.65 12.55 50.35 12.3 53.25 12.55 58.5 L11.3 58.5 Q11.0 56.2 11.0 54.6 11.0 48.4 11.65 46.55 12.0 45.55 12.65 44.5 M-3.95 -1.8 L-5.1 -3.05 -3.45 -9.0 Q-1.2 -15.5 0.75 -15.85 L1.0 -15.5 Q-1.35 -12.2 -2.6 -7.6 L-2.5 -7.5 -2.6 -6.75 -2.85 -6.65 -3.95 -1.8 M9.75 7.05 L9.9 6.85 10.0 7.6 Q10.0 8.45 8.4 11.2 L6.55 14.55 Q6.1 15.85 6.1 17.9 L6.0 21.3 Q5.6 24.75 3.75 28.1 2.35 30.6 0.25 32.85 L0.1 31.9 Q2.15 29.8 3.2 27.3 4.25 24.75 4.6 20.2 4.95 15.15 5.5 13.25 6.6 9.55 9.75 7.05 M9.3 29.25 Q8.85 30.15 8.15 32.7 7.45 35.05 6.75 36.3 L4.15 39.95 1.5 42.9 1.3 41.15 2.45 39.55 5.55 35.55 Q6.45 34.05 7.15 31.8 L8.3 28.5 9.15 24.9 Q9.45 23.3 10.0 22.2 L10.1 26.4 9.3 29.25 M14.35 84.9 Q15.0 84.5 15.0 84.0 15.0 83.25 14.8 83.15 L14.7 83.1 Q15.85 83.55 16.8 85.7 17.65 87.8 19.55 87.8 26.25 87.8 28.25 84.95 L29.25 83.2 29.75 84.85 28.9 85.9 Q26.45 89.0 24.0 89.0 17.15 89.0 15.2 86.65 14.6 85.95 14.35 84.9 M10.5 85.9 L11.35 85.75 Q11.05 87.1 11.05 88.6 L11.05 88.65 10.5 89.6 Q7.75 94.95 5.75 97.65 L5.15 96.65 Q5.5 95.4 6.6 93.4 L8.75 89.75 10.5 85.9 M13.5 86.35 L13.85 85.15 14.05 85.05 14.25 85.05 Q14.25 89.95 28.0 95.55 L27.7 96.5 26.1 95.85 Q23.55 94.7 21.55 94.3 L19.6 93.85 Q18.7 93.5 18.05 92.8 15.2 89.95 13.5 87.25 L13.5 86.35 M12.05 105.55 L12.0 104.0 12.5 95.55 13.25 95.55 13.5 102.85 13.3 106.2 13.3 106.45 12.05 105.55 M-14.55 -147.3 L-14.5 -148.25 -14.5 -151.05 -14.55 -152.3 Q-13.95 -152.35 -13.6 -152.6 L-13.55 -152.7 Q-13.0 -153.2 -13.0 -154.6 L-12.2 -154.05 -12.5 -147.4 -12.85 -146.85 -14.55 -147.3 M-3.5 -150.9 L-5.95 -150.85 -6.1 -151.25 -6.5 -152.9 Q-6.5 -154.3 -6.0 -154.75 -4.4 -153.5 -3.75 -153.5 -3.5 -152.7 -3.5 -151.55 L-3.5 -150.9" fill="#463941" fill-opacity="0.0" fill-rule="evenodd" stroke="none"/>
      <path d="M-17.55 -178.75 L-16.25 -174.8 Q-13.5 -166.8 -13.5 -165.75 L-13.4 -160.45 -12.85 -157.6 -13.75 -158.0 -14.7 -157.8 -15.0 -157.35 -15.5 -154.75 -17.3 -155.3 -17.15 -155.35 Q-17.0 -155.5 -17.0 -156.25 L-18.0 -169.9 -17.75 -174.5 -17.55 -178.75 M-11.5 -156.35 L-11.5 -157.1 Q-11.5 -163.1 -13.6 -170.15 L-16.1 -178.85 -16.4 -179.4 -9.25 -167.4 -9.5 -167.8 -9.5 -167.0 -8.6 -162.05 -7.65 -158.65 -8.2 -157.95 -9.35 -155.6 Q-10.55 -155.55 -11.5 -156.35 M-8.45 -166.1 L-8.0 -165.4 Q-4.9 -160.25 -3.3 -158.7 L-5.0 -156.5 Q-5.0 -157.6 -5.15 -158.05 -5.5 -159.0 -6.75 -159.0 L-7.75 -162.6 -8.45 -166.1" fill="#65525e" fill-opacity="0.0" fill-rule="evenodd" stroke="none"/>
      <path d="M46.8 -68.25 L46.3 -68.75 45.85 -69.0 42.0 -71.1 40.4 -72.0 40.05 -72.2 39.05 -72.75 Q30.25 -75.75 23.2 -77.15 17.6 -78.3 15.25 -77.9 L15.15 -78.05 Q15.85 -78.75 22.9 -78.75 32.7 -78.75 35.5 -76.6 L38.2 -74.45 40.3 -73.25 Q42.25 -72.5 45.05 -69.95 L46.8 -68.25 M14.75 -75.95 L14.65 -75.45 18.95 -75.15 20.5 -75.0 20.6 -75.0 21.0 -74.25 Q23.15 -70.5 24.0 -70.0 L25.0 -70.85 22.95 -74.85 27.4 -74.1 28.25 -72.15 Q29.5 -69.45 30.0 -69.0 L31.0 -69.6 29.85 -73.45 31.45 -72.95 33.2 -72.35 33.5 -71.0 Q34.25 -68.5 35.5 -68.5 36.25 -68.5 36.4 -68.75 L36.5 -69.0 35.75 -71.45 38.8 -70.25 40.1 -69.45 41.8 -68.4 44.2 -66.95 44.6 -66.7 Q33.45 -66.6 29.55 -66.75 26.7 -66.85 24.4 -67.65 L22.25 -68.6 Q20.35 -69.45 18.65 -71.8 17.4 -73.5 15.0 -73.5 L14.2 -73.45 14.5 -74.95 14.75 -75.95 M12.0 -76.1 L12.0 -76.0 Q12.0 -75.25 12.15 -75.1 L12.0 -74.6 12.0 -72.0 11.7 -71.5 Q11.4 -71.05 10.45 -70.7 7.6 -69.75 -1.3 -69.75 L-4.45 -69.95 -4.5 -70.0 -4.5 -69.95 Q-5.65 -70.2 -6.0 -70.65 L-6.0 -72.3 -5.85 -74.3 -5.75 -75.0 -5.25 -75.0 8.15 -76.25 12.0 -76.1 M21.35 -66.7 L24.55 -65.55 28.8 -64.75 31.5 -64.8 31.5 -64.75 Q36.35 -55.4 38.55 -52.5 40.6 -49.75 41.55 -45.7 L41.8 -44.5 40.35 -46.7 33.8 -55.5 31.9 -57.7 Q30.65 -59.15 30.25 -60.0 29.85 -60.9 27.95 -62.15 L25.55 -63.75 22.8 -65.75 21.35 -66.7 M42.85 -39.4 L38.25 -42.05 Q34.95 -44.05 33.0 -44.6 30.6 -45.3 28.4 -47.9 L25.5 -51.5 22.2 -55.2 Q19.85 -58.05 19.5 -59.35 L17.45 -64.2 Q16.0 -67.3 16.0 -68.15 L16.0 -68.2 Q16.3 -67.4 17.3 -66.35 L20.0 -64.1 22.5 -62.15 22.5 -61.1 22.55 -59.2 Q22.75 -57.8 23.5 -57.5 L24.1 -57.8 24.5 -58.0 24.5 -60.7 26.5 -59.5 Q27.85 -59.5 28.45 -58.85 L28.25 -57.95 Q28.0 -56.35 28.0 -52.65 28.0 -51.15 29.0 -50.0 29.5 -50.1 29.8 -50.35 29.9 -52.4 30.5 -56.2 L31.05 -55.5 33.05 -53.3 32.75 -52.55 Q32.5 -51.65 32.5 -49.15 32.5 -47.65 33.5 -46.5 L34.5 -47.1 Q34.5 -48.55 34.95 -50.95 L35.8 -49.6 37.2 -47.0 37.0 -44.6 37.05 -43.45 Q37.25 -42.8 38.0 -42.5 38.5 -42.6 38.8 -42.85 L39.1 -44.2 39.8 -43.25 42.85 -39.4 M12.85 -68.55 L12.9 -68.35 12.5 -66.25 Q12.1 -65.2 10.45 -64.05 L8.05 -62.5 -4.0 -54.75 -4.0 -58.7 -3.6 -58.85 -3.55 -59.6 Q-2.4 -61.2 1.35 -63.7 5.15 -66.2 6.45 -67.7 L12.85 -68.55 M15.25 -56.1 Q15.0 -55.0 15.0 -52.75 L4.25 -52.75 -1.55 -53.25 2.4 -55.8 5.1 -57.65 5.3 -57.25 8.75 -56.45 12.0 -56.0 15.25 -56.3 15.25 -56.1 M3.5 61.5 L4.0 61.5 14.8 60.55 14.95 63.25 9.95 62.6 3.5 63.05 3.5 62.4 3.5 61.5 M9.75 73.45 L9.8 73.5 Q15.15 74.1 16.95 75.9 L17.85 76.7 Q15.9 77.4 14.45 79.0 8.9 77.6 5.0 77.6 L3.85 77.65 5.15 76.65 8.05 74.25 Q8.5 73.95 9.75 73.45 M3.5 73.5 L4.05 73.25 Q4.9 71.25 9.35 68.7 13.5 66.3 13.5 65.5 L15.2 65.5 Q15.45 67.05 16.05 69.1 12.8 69.7 7.2 72.6 4.65 73.95 3.15 75.05 L3.35 73.3 3.5 73.5 M1.5 86.4 L2.5 79.9 Q8.8 79.4 11.05 80.1 L13.2 80.75 12.5 82.1 12.05 83.3 Q9.7 83.65 6.65 84.5 2.3 85.7 1.65 86.6 L1.5 86.4 M-8.2 -75.8 Q-26.55 -69.5 -32.35 -67.1 -34.9 -66.05 -42.85 -61.1 L-47.2 -58.25 Q-42.9 -64.25 -36.35 -68.25 L-32.2 -70.6 Q-28.15 -72.6 -27.85 -72.75 L-17.25 -74.85 Q-11.25 -76.0 -8.9 -76.75 L-8.2 -75.8 M-46.45 -55.95 L-41.85 -58.9 -36.5 -62.2 -36.5 -61.25 -36.45 -58.8 Q-36.25 -57.05 -35.5 -56.5 L-34.9 -56.8 -34.5 -57.0 -34.15 -63.6 -30.5 -65.5 -29.85 -65.75 -30.0 -62.4 -29.8 -60.95 Q-29.5 -59.65 -29.0 -59.0 L-28.4 -59.3 -28.0 -59.5 -28.15 -62.25 -28.0 -64.75 -27.25 -66.7 -24.75 -67.6 -25.0 -64.35 Q-25.0 -62.5 -24.6 -61.75 L-23.75 -61.5 Q-22.95 -61.5 -22.7 -61.85 L-22.5 -62.5 Q-23.5 -65.4 -22.4 -67.75 L-22.0 -68.55 -17.85 -70.0 -18.0 -69.75 -18.0 -63.75 -16.75 -63.5 -15.8 -63.65 -15.75 -64.0 Q-16.15 -66.95 -16.0 -69.25 L-15.2 -70.9 -12.15 -71.95 -8.05 -73.45 Q-8.4 -71.3 -10.3 -68.55 -12.25 -65.75 -14.85 -63.5 -18.7 -60.15 -24.0 -57.9 -30.25 -55.25 -36.25 -55.25 L-46.45 -55.95 M-13.6 -61.55 L-13.8 -61.4 -19.5 -55.0 -25.45 -54.65 Q-26.0 -54.45 -26.0 -54.0 -26.0 -53.25 -25.8 -53.1 L-25.6 -53.0 -21.25 -53.0 -23.0 -50.95 -24.2 -49.5 -30.4 -49.15 -31.0 -48.5 -30.8 -47.6 -30.6 -47.5 -25.9 -47.5 -28.95 -43.75 -30.8 -43.65 Q-33.0 -43.35 -34.0 -42.1 -33.3 -41.5 -32.0 -41.5 L-30.65 -41.55 -30.15 -42.2 Q-35.1 -35.95 -37.1 -32.3 L-38.0 -32.1 Q-37.7 -39.35 -32.55 -46.8 L-29.05 -51.6 Q-27.95 -53.2 -27.6 -54.15 -22.0 -57.35 -13.6 -61.55 M-32.95 -33.55 L-29.85 -37.7 -23.45 -46.2 Q-22.35 -41.5 -21.0 -41.5 L-20.85 -41.5 -23.1 -39.35 Q-27.45 -35.6 -32.95 -33.55 M-20.0 -42.45 L-20.0 -42.8 Q-20.0 -43.4 -22.0 -47.1 L-22.05 -48.05 -19.9 -50.65 Q-18.5 -47.5 -17.5 -47.5 -16.75 -47.5 -16.6 -47.75 L-16.5 -48.0 Q-16.75 -49.9 -17.8 -51.75 L-18.3 -52.6 -16.1 -55.25 -16.6 -54.65 Q-15.95 -51.5 -15.0 -51.5 L-14.15 -51.65 -14.1 -51.85 -14.0 -53.35 Q-14.0 -54.2 -15.05 -56.5 L-11.9 -60.3 -10.95 -61.4 -10.7 -62.25 -11.35 -60.0 -12.7 -54.65 Q-13.7 -51.35 -14.85 -49.5 L-15.4 -48.55 -15.4 -48.6 -15.65 -48.15 -16.25 -47.25 -16.6 -46.75 Q-18.25 -44.4 -20.0 -42.45 M-27.1 -41.35 L-28.55 -39.45 Q-27.65 -37.5 -27.0 -37.5 L-26.2 -37.6 -26.35 -37.75 -26.15 -37.85 Q-26.0 -38.0 -26.0 -38.75 -26.0 -39.45 -27.05 -41.25 L-27.1 -41.35" fill="#046193" fill-opacity="0.0" fill-rule="evenodd" stroke="none"/>
      <path d="M15.25 -77.9 Q17.6 -78.3 23.2 -77.15 30.25 -75.75 39.05 -72.75 L40.05 -72.2 40.4 -72.0 42.0 -71.1 45.85 -69.0 46.3 -68.75 46.8 -68.25 48.7 -66.35 48.8 -66.25 Q48.25 -66.25 46.55 -66.75 L44.6 -66.7 44.2 -66.95 41.8 -68.4 40.1 -69.45 38.8 -70.25 35.75 -71.45 36.5 -69.0 36.4 -68.75 Q36.25 -68.5 35.5 -68.5 34.25 -68.5 33.5 -71.0 L33.2 -72.35 31.45 -72.95 29.85 -73.45 31.0 -69.6 30.0 -69.0 Q29.5 -69.45 28.25 -72.15 L27.4 -74.1 22.95 -74.85 25.0 -70.85 24.0 -70.0 Q23.15 -70.5 21.0 -74.25 L20.6 -75.0 20.5 -75.0 18.95 -75.15 14.65 -75.45 14.75 -75.95 14.95 -77.15 Q15.4 -77.4 15.25 -77.9 M16.0 -68.2 L15.95 -69.15 16.0 -69.35 16.5 -69.7 17.6 -68.95 Q20.1 -67.2 21.3 -66.75 L21.35 -66.7 22.8 -65.75 25.55 -63.75 27.95 -62.15 Q29.85 -60.9 30.25 -60.0 30.65 -59.15 31.9 -57.7 L33.8 -55.5 40.35 -46.7 41.8 -44.5 42.95 -39.45 43.0 -39.35 42.85 -39.4 39.8 -43.25 39.1 -44.2 38.8 -42.85 Q38.5 -42.6 38.0 -42.5 37.25 -42.8 37.05 -43.45 L37.0 -44.6 37.2 -47.0 35.8 -49.6 34.95 -50.95 Q34.5 -48.55 34.5 -47.1 L33.5 -46.5 Q32.5 -47.65 32.5 -49.15 32.5 -51.65 32.75 -52.55 L33.05 -53.3 31.05 -55.5 30.5 -56.2 Q29.9 -52.4 29.8 -50.35 29.5 -50.1 29.0 -50.0 28.0 -51.15 28.0 -52.65 28.0 -56.35 28.25 -57.95 L28.45 -58.85 Q27.85 -59.5 26.5 -59.5 L24.5 -60.7 24.5 -58.0 24.1 -57.8 23.5 -57.5 Q22.75 -57.8 22.55 -59.2 L22.5 -61.1 22.5 -62.15 20.0 -64.1 17.3 -66.35 Q16.3 -67.4 16.0 -68.2 M-8.2 -75.8 L-8.0 -75.65 -8.0 -74.2 -8.05 -73.45 -12.15 -71.95 -15.2 -70.9 -16.0 -69.25 Q-16.15 -66.95 -15.75 -64.0 L-15.8 -63.65 -16.75 -63.5 -18.0 -63.75 -18.0 -69.75 -17.85 -70.0 -22.0 -68.55 -22.4 -67.75 Q-23.5 -65.4 -22.5 -62.5 L-22.7 -61.85 Q-22.95 -61.5 -23.75 -61.5 L-24.6 -61.75 Q-25.0 -62.5 -25.0 -64.35 L-24.75 -67.6 -27.25 -66.7 -28.0 -64.75 -28.15 -62.25 -28.0 -59.5 -28.4 -59.3 -29.0 -59.0 Q-29.5 -59.65 -29.8 -60.95 L-30.0 -62.4 -29.85 -65.75 -30.5 -65.5 -34.15 -63.6 -34.5 -57.0 -34.9 -56.8 -35.5 -56.5 Q-36.25 -57.05 -36.45 -58.8 L-36.5 -61.25 -36.5 -62.2 -41.85 -58.9 -46.45 -55.95 -48.5 -56.1 -48.5 -56.35 -47.2 -58.25 -42.85 -61.1 Q-34.9 -66.05 -32.35 -67.1 -26.55 -69.5 -8.2 -75.8 M-37.1 -32.3 Q-35.1 -35.95 -30.15 -42.2 L-30.65 -41.55 -32.0 -41.5 Q-33.3 -41.5 -34.0 -42.1 -33.0 -43.35 -30.8 -43.65 L-28.95 -43.75 -25.9 -47.5 -30.6 -47.5 -30.8 -47.6 -31.0 -48.5 -30.4 -49.15 -24.2 -49.5 -23.0 -50.95 -21.25 -53.0 -25.6 -53.0 -25.8 -53.1 Q-26.0 -53.25 -26.0 -54.0 -26.0 -54.45 -25.45 -54.65 L-19.5 -55.0 -13.8 -61.4 -13.6 -61.55 -13.5 -61.6 Q-11.7 -62.55 -9.95 -64.6 L-10.0 -64.45 -10.7 -62.25 -10.95 -61.4 -11.9 -60.3 -15.05 -56.5 Q-14.0 -54.2 -14.0 -53.35 L-14.1 -51.85 -14.15 -51.65 -15.0 -51.5 Q-15.95 -51.5 -16.6 -54.65 L-16.1 -55.25 -18.3 -52.6 -17.8 -51.75 Q-16.75 -49.9 -16.5 -48.0 L-16.6 -47.75 Q-16.75 -47.5 -17.5 -47.5 -18.5 -47.5 -19.9 -50.65 L-22.05 -48.05 -22.0 -47.1 Q-20.0 -43.4 -20.0 -42.8 L-20.0 -42.45 -20.85 -41.5 -21.0 -41.5 Q-22.35 -41.5 -23.45 -46.2 L-29.85 -37.7 -32.95 -33.55 -37.1 -32.3 M-15.4 -48.55 L-15.0 -47.0 -15.1 -46.75 Q-15.25 -46.5 -16.0 -46.5 -16.35 -46.5 -16.6 -46.75 L-16.25 -47.25 -15.65 -48.15 -15.4 -48.6 -15.4 -48.55 M-27.1 -41.35 L-27.05 -41.25 Q-26.0 -39.45 -26.0 -38.75 -26.0 -38.0 -26.15 -37.85 L-26.35 -37.75 -26.2 -37.6 -27.0 -37.5 Q-27.65 -37.5 -28.55 -39.45 L-27.1 -41.35" fill="#023f60" fill-opacity="0.0" fill-rule="evenodd" stroke="none"/>
    </g>
  </defs>
</svg>
