<?xml version="1.0" encoding="UTF-8" standalone="no"?>
<svg xmlns:ffdec="https://www.free-decompiler.com/flash" xmlns:xlink="http://www.w3.org/1999/xlink" ffdec:objectType="frame" height="331.45px" width="107.3px" xmlns="http://www.w3.org/2000/svg">
  <g transform="matrix(1.0, 0.0, 0.0, 1.0, 0.0, 0.0)">
    <clipPath id="clipPath0">
      <path d="M 6.25 5.6 L 6.25 322.6 L 34.75 322.6 L 35.14 322.3 L 35.55 322.01 L 35.96 321.75 L 36.39 321.5 L 36.82 321.27 L 37.27 321.06 L 37.73 320.87 L 38.2 320.7 L 38.68 320.55 L 39.17 320.41 L 39.67 320.3 L 40.19 320.2 L 40.71 320.12 L 41.25 320.06 L 41.79 320.02 L 42.35 320 L 44.85 320.15 L 47.35 319.9 L 47.88 319.91 L 48.39 319.94 L 48.9 319.99 L 49.39 320.06 L 49.88 320.14 L 50.35 320.25 L 50.82 320.38 L 51.28 320.52 L 51.72 320.69 L 52.15 320.88 L 52.58 321.08 L 52.99 321.31 L 53.4 321.55 L 53.79 321.81 L 54.18 322.1 L 54.55 322.4 L 54.8 322.6 L 63.35 322.6 L 63.68 322.36 L 64.01 322.14 L 64.35 321.92 L 64.7 321.73 L 65.05 321.54 L 65.41 321.36 L 65.78 321.2 L 66.15 321.05 L 66.53 320.91 L 66.91 320.79 L 67.3 320.67 L 67.7 320.58 L 68.1 320.49 L 68.51 320.41 L 68.93 320.35 L 69.35 320.3 L 70 320.25 L 70.45 320.07 L 70.92 319.91 L 71.39 319.76 L 71.86 319.64 L 72.35 319.53 L 72.84 319.43 L 73.34 319.36 L 73.85 319.3 L 74.54 319.25 L 75.2 319.23 L 75.65 319.24 L 76.1 319.26 L 76.53 319.31 L 76.96 319.36 L 77.38 319.44 L 77.79 319.53 L 78.19 319.64 L 78.58 319.76 L 78.96 319.9 L 79.34 320.06 L 79.7 320.23 L 80.06 320.42 L 80.41 320.63 L 80.75 320.85 L 81.08 321.09 L 81.4 321.35 L 82.65 322.6 L 107.3 322.6 L 107.3 5.6 Z"/>
    </clipPath>
  </g>
</svg>
