<?xml version="1.0" encoding="UTF-8" standalone="no"?>
<svg xmlns:ffdec="https://www.free-decompiler.com/flash" xmlns:xlink="http://www.w3.org/1999/xlink" ffdec:objectType="frame" height="59.5px" width="154.55px" xmlns="http://www.w3.org/2000/svg">
  <g transform="matrix(1.0, 0.0, 0.0, 1.0, 1.8, 1.75)">
    <use ffdec:characterId="177" height="55.0" transform="matrix(1.0, 0.0, 0.0, 1.0, 0.45, 0.5)" width="150.05" xlink:href="#shape0"/>
    <use ffdec:characterId="178" height="59.5" transform="matrix(1.0, 0.0, 0.0, 1.0, -1.8, -1.75)" width="154.55" xlink:href="#shape1"/>
  </g>
  <defs>
    <g id="shape0" transform="matrix(1.0, 0.0, 0.0, 1.0, -0.45, -0.5)">
      <path d="M150.0 55.0 L0.95 55.0 0.95 1.0 150.0 1.0 150.0 55.0" fill="#00ff00" fill-opacity="0.0" fill-rule="evenodd" stroke="none"/>
      <path d="M150.0 55.0 L0.95 55.0 0.95 1.0 150.0 1.0 150.0 55.0 Z" fill="none" stroke="#330000" stroke-linecap="round" stroke-linejoin="round" stroke-width="1.0"/>
    </g>
    <g id="shape1" transform="matrix(1.0, 0.0, 0.0, 1.0, 0.5, 0.5)">
      <path d="M153.55 1.25 L153.55 57.25 153.2 58.15 152.3 58.5 1.25 58.5 0.4 58.15 Q0.0 57.75 0.0 57.25 L0.0 1.25 Q0.0 0.75 0.4 0.4 0.75 0.0 1.25 0.0 L152.3 0.0 Q152.8 0.0 153.2 0.4 153.55 0.75 153.55 1.25 M151.05 2.5 L2.5 2.5 2.5 56.0 151.05 56.0 151.05 2.5" fill="#d2b061" fill-rule="evenodd" stroke="none"/>
      <path d="M153.55 1.25 L153.55 57.25 153.2 58.15 152.3 58.5 1.25 58.5 0.4 58.15 Q0.0 57.75 0.0 57.25 L0.0 1.25 Q0.0 0.75 0.4 0.4 0.75 0.0 1.25 0.0 L152.3 0.0 Q152.8 0.0 153.2 0.4 153.55 0.75 153.55 1.25 M151.05 2.5 L2.5 2.5 2.5 56.0 151.05 56.0 151.05 2.5 Z" fill="none" stroke="#330000" stroke-linecap="round" stroke-linejoin="round" stroke-width="1.0"/>
    </g>
  </defs>
</svg>
