<?xml version="1.0" encoding="UTF-8" standalone="no"?>
<svg xmlns:ffdec="https://www.free-decompiler.com/flash" xmlns:xlink="http://www.w3.org/1999/xlink" ffdec:objectType="frame" height="54.6px" width="54.8px" xmlns="http://www.w3.org/2000/svg">
  <g transform="matrix(1.0, 0.0, 0.0, 1.0, 27.4, 27.3)">
    <use ffdec:characterId="705" height="39.0" transform="matrix(0.6228, 0.7804, -0.7804, 0.6228, 3.3997, -26.4717)" width="37.8" xlink:href="#shape0"/>
  </g>
  <defs>
    <g id="shape0" transform="matrix(1.0, 0.0, 0.0, 1.0, 18.6, 19.2)">
      <path d="M11.85 -15.0 L12.05 -14.85 11.75 -14.3 11.75 -14.25 11.65 -14.0 11.5 -13.7 11.35 -13.35 11.25 -13.15 11.35 -11.35 11.45 -10.6 11.6 -9.3 Q11.6 -8.5 11.75 -8.25 L12.45 -7.8 13.1 -7.4 Q14.15 -6.25 14.15 -5.6 L13.9 -5.05 13.85 -5.05 13.55 -4.8 12.1 -6.65 Q11.4 -7.35 11.1 -7.35 L10.8 -7.25 9.6 -6.9 8.25 -6.65 6.55 -6.45 5.9 -6.5 5.85 -6.5 5.7 -7.15 5.65 -7.2 5.7 -7.25 5.55 -7.5 5.35 -7.55 5.25 -7.65 4.95 -8.75 4.95 -9.3 Q4.55 -9.35 4.15 -9.75 L3.5 -10.2 3.05 -10.05 2.85 -8.55 3.1 -7.75 3.0 -7.8 2.9 -8.0 2.45 -8.85 2.35 -8.7 2.25 -8.4 2.3 -7.85 2.75 -6.9 3.65 -4.95 Q3.9 -4.05 3.8 -2.1 L3.75 -2.1 2.9 -2.15 2.25 -2.25 0.85 -2.95 Q-0.1 -3.25 -0.6 -2.55 L-0.5 -2.45 -0.85 -2.1 -1.8 -1.05 -2.75 -0.15 -3.6 0.75 -4.6 2.05 -4.7 2.1 -5.1 1.8 Q-6.05 3.05 -6.8 3.35 L-7.2 3.0 -7.2 2.8 -7.2 1.85 -6.95 1.8 -6.75 1.85 -6.5 2.1 -4.7 0.55 -3.05 -1.05 -1.85 -2.55 -1.4 -2.9 -0.9 -3.25 -0.85 -3.25 -0.8 -3.3 -0.7 -3.35 -0.45 -3.45 0.1 -3.6 0.2 -3.6 0.45 -3.65 0.7 -3.65 0.8 -3.65 1.85 -3.4 2.85 -3.15 2.9 -4.25 Q2.9 -5.2 2.35 -6.05 L2.3 -6.15 2.05 -6.6 1.9 -6.85 1.75 -7.3 1.75 -7.25 1.8 -7.15 1.65 -7.1 1.55 -7.35 1.35 -7.35 1.3 -7.35 0.0 -6.65 -0.15 -6.6 -0.1 -6.5 0.0 -5.7 0.0 -5.75 0.0 -5.6 0.0 -5.4 -0.15 -4.7 -0.1 -4.0 -0.3 -3.95 -0.7 -5.5 Q-0.85 -6.5 -2.0 -7.2 -4.7 -8.65 -6.2 -10.25 L-6.2 -10.3 -6.2 -10.55 -5.9 -10.65 Q-5.5 -10.65 -4.95 -10.25 L-4.35 -9.75 -3.8 -9.5 -3.7 -9.45 -3.05 -9.0 Q-0.95 -7.75 -0.9 -7.35 L0.8 -7.9 Q1.55 -8.1 1.8 -8.65 L1.9 -8.9 1.95 -9.2 2.2 -10.35 2.4 -11.55 1.95 -12.15 1.55 -12.85 1.55 -12.95 1.5 -13.2 1.45 -13.6 1.25 -14.0 1.15 -14.3 0.95 -14.85 1.05 -15.1 1.2 -15.2 2.0 -14.3 2.9 -12.9 3.3 -12.2 3.35 -12.1 3.45 -11.95 3.9 -11.25 4.35 -10.8 4.9 -10.75 5.2 -10.65 5.4 -10.55 5.55 -10.3 5.75 -9.95 5.85 -9.5 6.15 -7.8 8.9 -8.1 10.65 -8.3 Q10.4 -9.3 10.4 -11.3 L10.4 -11.4 10.4 -11.65 10.4 -11.7 10.5 -13.05 10.55 -13.5 10.65 -13.9 10.7 -14.05 Q11.0 -14.85 11.65 -14.95 L11.85 -15.0 M18.3 3.7 L18.2 4.4 Q18.2 5.1 17.45 6.5 L17.2 6.95 16.85 7.8 16.55 7.95 16.15 8.5 16.05 9.15 16.05 9.25 15.85 9.65 16.0 8.8 16.1 8.65 15.75 9.2 15.2 10.2 15.45 10.35 15.35 10.6 15.05 10.7 14.8 10.65 14.7 10.7 14.65 10.65 14.85 11.5 14.8 11.85 14.65 12.15 14.35 12.6 13.95 12.8 13.9 12.9 13.8 13.05 13.7 13.15 13.55 13.65 10.1 16.1 9.95 16.3 8.85 16.55 7.8 16.85 7.35 16.8 7.75 15.15 7.8 14.45 Q7.8 13.55 9.45 11.45 L10.8 9.6 11.25 9.6 11.4 9.55 12.25 10.05 13.25 10.5 13.4 10.5 13.55 10.45 13.55 10.35 13.65 10.2 13.55 10.15 13.5 10.1 12.0 9.1 11.85 9.0 10.25 8.4 10.6 9.0 10.25 9.35 9.7 9.9 9.1 10.6 9.0 10.5 9.0 10.65 8.4 11.1 8.3 10.2 8.15 9.75 7.95 9.3 7.7 7.25 7.65 7.1 7.65 6.9 8.55 4.65 9.25 3.35 10.05 2.0 10.45 1.85 11.15 1.65 12.0 1.35 12.5 1.15 14.4 0.45 15.45 -0.5 15.95 -2.0 15.95 -2.15 15.9 -2.25 Q15.15 -2.2 14.75 -1.45 L14.7 -1.3 14.1 -0.3 13.45 0.1 12.3 0.5 Q10.5 1.05 9.9 1.35 9.25 1.65 9.2 1.85 L9.05 2.3 7.8 3.3 6.6 4.7 5.4 2.05 5.25 1.7 5.95 1.5 7.25 1.8 Q8.45 1.8 9.45 0.3 L9.95 -0.2 12.3 -0.4 12.35 -0.65 Q12.35 -0.95 13.95 -1.35 L14.45 -1.7 14.6 -2.1 15.95 -3.35 16.1 -3.0 16.85 -2.75 17.25 -2.55 17.85 -2.15 18.3 -1.4 17.55 -0.9 16.95 -1.0 16.65 -1.15 16.1 0.45 Q16.1 1.0 16.75 1.7 L17.7 2.55 17.85 2.45 Q18.2 2.8 18.3 3.7 M7.7 16.9 L7.2 17.1 7.25 17.05 7.3 17.0 7.7 16.9 M2.3 18.9 L2.3 18.95 1.8 19.05 1.25 19.05 0.05 19.1 -0.25 19.0 -1.95 18.8 -2.25 18.9 -2.3 19.0 -2.8 19.0 -2.85 18.75 -2.9 18.75 -4.05 18.65 -4.25 18.6 -4.25 18.65 -4.45 18.55 -4.5 18.5 -4.65 18.45 -5.45 18.4 -5.95 18.35 -6.5 18.2 -6.6 18.15 -7.8 17.45 -7.9 17.4 -8.85 16.6 -8.9 16.5 -9.3 16.55 -9.45 16.55 -10.65 15.55 -11.1 14.9 -11.1 14.85 -12.4 13.75 -12.5 13.55 -12.15 13.8 -12.35 13.4 -12.35 13.35 -12.45 13.35 -12.6 13.35 -12.95 13.05 -13.45 12.8 -13.5 12.75 -13.55 12.7 -13.7 12.55 -13.8 12.45 -14.0 12.2 -14.7 10.9 -14.55 10.5 -14.15 10.1 -13.95 9.8 -13.4 9.75 -12.75 9.8 -12.65 9.85 -12.6 10.1 -12.65 10.3 -12.9 10.65 -13.05 10.8 -12.55 10.8 -12.25 10.8 -12.0 10.8 -11.5 10.7 -11.25 10.35 -10.35 10.1 -9.4 9.85 -9.45 10.1 -9.2 9.9 Q-7.7 9.1 -7.5 8.85 L-7.25 7.6 -7.05 7.1 -7.7 6.55 -7.75 6.5 -7.8 6.6 Q-8.3 7.65 -9.5 7.65 L-10.25 7.35 -8.95 6.55 Q-8.1 6.0 -8.7 5.0 L-8.7 4.1 -9.2 3.1 -9.8 3.0 -11.75 3.5 Q-11.95 3.5 -12.15 3.65 L-12.3 3.75 -12.5 3.8 -13.85 3.5 -14.45 3.6 -14.45 4.9 Q-14.5 5.65 -14.95 5.85 L-15.35 5.9 -15.75 5.85 -15.8 5.6 -15.5 5.05 -15.3 4.65 -15.3 3.6 -15.15 3.1 -14.85 2.6 -14.05 2.25 -13.95 2.4 -12.8 2.0 -11.7 1.45 Q-10.95 1.2 -10.45 0.75 -9.3 1.35 -8.75 2.6 L-8.1 4.5 -7.8 5.45 -7.05 6.15 Q-6.45 6.3 -6.05 6.85 L-6.0 6.95 -5.9 7.05 -5.95 7.95 Q-6.0 9.1 -6.5 9.75 L-9.05 11.5 -9.45 11.8 -9.8 12.05 -10.6 12.65 -10.7 12.7 -11.2 13.15 -11.4 13.45 -11.4 13.6 -11.35 13.75 -11.7 14.05 -11.2 14.25 -11.25 14.55 -11.1 14.85 -11.1 14.7 -10.9 13.95 -10.65 13.9 -10.45 13.85 -10.05 13.6 -9.65 13.15 -9.35 12.75 -8.9 12.2 -8.8 12.15 -8.75 12.15 -8.75 12.1 -8.3 11.85 -8.25 11.8 -7.55 11.6 -6.95 11.15 -6.5 10.8 -6.0 10.95 -5.9 10.6 -5.45 10.35 -5.35 10.4 Q-5.15 10.45 -4.5 11.1 L-3.6 12.0 -2.4 12.9 Q-2.1 13.1 -2.1 13.35 L-2.1 13.8 -1.05 15.9 -0.45 16.95 -0.25 17.2 -0.2 17.25 -0.05 17.4 0.05 17.3 0.15 17.0 0.25 16.95 0.15 16.85 0.15 16.8 0.1 16.8 0.1 16.75 -0.05 16.25 -0.2 15.75 -0.9 13.3 Q-0.9 12.05 -0.05 10.95 L0.7 9.8 0.8 9.85 0.65 10.3 0.65 10.4 0.6 10.55 0.15 12.15 0.0 13.15 0.45 14.45 2.1 16.05 4.35 15.8 5.4 15.5 5.5 15.5 5.2 16.05 5.75 14.25 6.35 12.0 6.75 11.45 6.6 11.1 6.15 9.3 5.55 7.5 Q5.4 7.05 4.65 6.55 3.95 6.0 3.6 6.0 3.2 6.0 2.65 6.8 L2.15 7.65 1.35 8.75 1.3 8.75 1.35 8.55 1.35 8.25 0.9 8.1 Q0.7 8.1 -0.45 10.1 -1.4 11.75 -1.95 12.0 L-2.1 12.05 -2.15 12.05 -2.8 11.55 -2.85 11.5 -3.5 10.7 -4.05 10.15 -4.4 9.2 -4.8 7.5 Q-4.65 7.5 -4.55 7.35 L-4.4 7.2 -4.45 7.15 -4.8 6.85 -5.0 6.7 -5.15 6.1 -5.15 6.05 -5.5 6.05 -5.55 5.9 -6.05 5.15 -6.5 4.3 -5.6 3.35 -5.3 3.05 -4.7 2.15 -4.6 2.05 -4.2 1.85 -4.15 1.85 -4.1 2.1 -4.9 3.1 Q-5.7 3.9 -5.7 4.5 L-5.65 4.35 -4.95 5.0 -4.05 6.35 -3.0 7.45 Q-2.6 7.0 -1.45 6.2 L0.6 4.85 Q1.45 4.3 1.45 3.3 1.45 2.2 1.8 2.0 3.15 3.05 3.15 3.75 L2.7 3.6 3.3 3.8 3.55 3.7 5.05 3.45 5.1 3.5 5.25 3.75 5.15 4.05 5.1 4.4 4.3 4.35 3.3 4.45 3.3 4.65 3.35 4.7 3.5 4.8 3.55 4.85 3.9 5.05 4.65 5.4 4.85 5.5 5.5 5.8 6.15 7.3 Q6.95 9.0 7.15 11.0 L7.2 12.2 6.7 14.4 6.4 15.55 6.2 16.85 5.35 17.0 4.7 17.15 3.4 17.45 Q2.6 17.75 2.3 18.2 L2.15 18.55 2.15 18.6 2.1 18.8 2.15 18.85 2.3 18.85 2.3 18.9 M-17.45 4.5 L-17.55 4.35 -17.45 4.3 -17.35 4.3 -17.4 4.4 -17.45 4.5 M-6.8 -17.25 L-6.45 -17.4 -6.55 -17.25 -6.6 -17.25 -6.8 -17.25 M-13.9 -5.6 L-13.75 -5.5 -13.55 -5.4 Q-12.95 -5.1 -11.8 -5.1 -10.65 -5.1 -10.3 -5.9 L-9.45 -7.65 -7.5 -10.05 -7.35 -10.0 -7.2 -9.75 -8.55 -7.65 Q-9.7 -5.85 -9.85 -4.2 L-9.85 -4.15 -9.9 -3.6 -9.75 -2.85 -9.6 -2.45 -9.2 -1.35 -9.2 -1.05 -9.15 -0.3 -8.85 0.25 -8.75 0.45 -8.7 0.65 -8.7 0.7 -9.2 0.15 Q-9.55 -0.35 -9.7 -1.15 L-9.8 -1.55 -10.25 -3.15 -10.5 -2.45 -10.5 -1.8 -10.8 -1.4 -10.8 -2.45 -11.25 -3.4 Q-11.55 -3.9 -11.1 -4.2 L-13.25 -4.55 -13.55 -4.65 -13.9 -4.85 -14.35 -5.25 -14.45 -5.4 -14.7 -5.85 -14.45 -5.9 -13.9 -5.6 M2.3 -7.85 L2.15 -7.85 2.3 -7.85 M-0.2 15.75 L-0.1 15.7 -0.2 15.75 M-4.05 8.95 L-4.05 9.05 -3.95 9.2 -3.85 9.25 -4.05 8.95 M-3.9 15.1 L-4.2 15.75 -4.35 16.35 -4.35 16.45 -4.35 16.8 -4.25 17.55 -3.05 17.6 -3.0 17.6 -1.35 17.4 -1.65 17.0 -1.7 16.9 -2.1 16.05 -2.45 15.0 -2.6 15.1 -3.8 15.1 -3.9 15.1 M-4.4 14.4 L-3.65 14.25 -2.95 14.25 -4.1 13.2 Q-5.55 11.75 -5.9 11.75 L-7.6 12.85 -9.15 13.8 -9.15 13.85 -9.1 14.05 -9.15 14.3 -9.15 15.1 -8.2 15.6 -8.05 15.65 -6.6 15.9 -6.0 15.85 -5.8 15.8 Q-5.15 15.65 -5.0 15.1 L-4.6 14.5 -4.4 14.4 M15.85 2.2 L14.4 1.35 13.1 2.0 11.25 2.45 10.35 3.95 9.35 6.0 9.7 5.3 11.55 6.45 14.85 8.65 15.05 8.25 16.35 6.15 16.8 4.15 Q16.95 3.45 17.3 3.0 L16.6 2.65 15.85 2.2 M10.85 10.65 L9.25 13.2 Q8.65 14.0 8.6 14.95 L8.6 15.05 8.65 15.3 11.25 14.4 12.45 12.6 13.75 10.9 12.85 11.0 11.4 10.85 10.85 10.65 M14.65 10.65 L14.6 10.6 14.65 10.65 M5.4 2.05 L5.45 2.0 5.4 2.05 M8.4 8.15 L8.3 8.75 Q8.3 9.55 8.85 9.6 L8.9 9.9 9.15 9.6 9.55 9.2 9.65 9.1 9.6 9.05 9.6 8.7 9.5 8.0 Q8.65 7.7 8.4 8.15" fill="#505050" fill-rule="evenodd" stroke="none"/>
      <path d="M11.75 -15.15 L11.8 -15.05 11.75 -15.05 11.75 -15.15 M12.75 -14.7 L12.9 -14.55 12.75 -14.7 M14.65 -12.45 L15.0 -12.0 15.0 -11.85 14.65 -12.45 M15.4 -11.2 L15.6 -10.95 15.75 -10.65 15.4 -11.2 M15.75 -10.55 L15.8 -10.45 15.75 -10.4 15.7 -10.3 15.75 -10.55 M15.85 9.65 L15.45 10.65 14.65 12.15 14.8 11.85 14.85 11.5 14.65 10.65 14.7 10.7 14.8 10.65 15.05 10.7 15.35 10.6 15.45 10.35 15.2 10.2 15.75 9.2 16.1 8.65 16.0 8.8 15.85 9.65 M13.55 13.65 L13.55 13.8 12.8 14.7 12.35 14.9 10.75 16.1 10.1 16.25 9.95 16.3 10.1 16.1 13.55 13.65 M7.8 16.85 L7.7 16.9 7.3 17.0 7.25 17.05 7.35 16.8 7.8 16.85 M2.35 18.85 L2.3 18.9 2.3 18.85 2.15 18.85 2.35 18.85 M0.05 19.1 L-0.15 19.1 -1.25 19.2 -1.7 19.05 -2.3 19.0 -2.25 18.9 -1.95 18.8 -0.25 19.0 0.05 19.1 M-2.8 19.0 L-3.65 18.9 -4.2 18.7 -4.45 18.55 -4.25 18.65 -4.25 18.6 -4.05 18.65 -2.9 18.75 -2.85 18.75 -2.8 19.0 M-7.8 17.45 L-8.45 17.05 -8.9 16.55 -8.85 16.6 -7.9 17.4 -7.8 17.45 M-12.5 13.55 Q-12.65 13.25 -12.95 13.05 L-12.6 13.35 -12.45 13.35 -12.35 13.35 -12.35 13.4 -12.15 13.8 -12.5 13.55 M-13.8 12.45 L-14.0 12.25 -14.0 12.2 -13.8 12.45 M0.6 -17.85 L0.6 -17.75 0.6 -17.85 M11.5 -13.7 L11.45 -13.25 11.4 -12.5 11.45 -10.6 11.35 -11.35 11.25 -13.15 11.35 -13.35 11.5 -13.7 M12.1 -6.65 L10.8 -7.25 11.1 -7.35 Q11.4 -7.35 12.1 -6.65 M6.55 -6.45 L6.1 -6.45 5.85 -6.35 5.85 -6.45 5.9 -6.5 6.55 -6.45 M5.0 -6.15 L4.65 -5.3 4.5 -2.65 4.5 -0.95 4.55 -0.6 Q4.4 -1.25 4.4 -1.95 L4.4 -2.15 4.55 -4.65 Q4.55 -5.35 5.0 -6.15 M-7.25 -13.35 L-7.35 -13.3 -7.35 -13.35 -7.25 -13.35 M5.35 -7.55 L5.3 -7.55 5.25 -7.65 5.35 -7.55 M3.5 4.8 L3.9 5.05 3.55 4.85 3.5 4.8 M0.0 -6.65 L-0.1 -6.5 -0.15 -6.6 0.0 -6.65 M-7.2 2.8 L-7.2 3.0 -7.25 2.9 -7.2 2.8 M-16.3 -6.1 L-15.8 -6.25 -16.25 -6.1 -16.3 -6.1 M-9.75 -2.85 L-9.9 -3.6 -9.85 -4.15 -9.75 -2.85 M-8.25 11.8 L-8.3 11.85 -8.75 12.1 -8.75 12.15 -8.8 12.15 -8.9 12.2 -8.85 12.15 -8.8 12.15 -8.45 11.9 -8.25 11.8 M-10.9 13.95 L-11.1 14.7 -11.1 14.85 -11.25 14.55 -11.2 14.25 -11.7 14.05 -11.35 13.75 -11.25 13.8 -10.9 13.95 M-10.45 0.75 Q-10.95 1.2 -11.7 1.45 L-10.5 0.75 -10.45 0.75 M10.45 1.85 L12.5 1.15 12.0 1.35 11.15 1.65 10.45 1.85 M7.65 6.9 L7.65 7.1 7.6 7.0 7.65 6.9 M14.65 10.65 L14.6 10.6 14.65 10.65" fill="#293125" fill-rule="evenodd" stroke="none"/>
      <path d="M11.8 -15.05 L11.85 -15.0 11.65 -14.95 11.7 -15.05 11.75 -15.05 11.8 -15.05 M5.7 -7.15 L5.65 -7.15 5.65 -7.2 5.7 -7.15 M-4.95 -14.15 L-4.9 -14.15 -4.85 -14.15 -4.95 -14.15 M2.3 -7.85 L2.15 -7.85 2.3 -7.85 M-4.7 2.1 L-4.6 2.05 -4.7 2.15 -4.7 2.1 M0.1 -5.6 L0.15 -5.4 0.05 -5.45 0.0 -5.4 0.0 -5.6 0.1 -5.6 M13.2 -3.5 L13.25 -3.45 13.2 -3.5 M-0.2 15.75 L-0.1 15.7 -0.2 15.75 M-16.0 1.85 L-16.05 1.7 -15.95 1.8 -16.0 1.85 M9.0 10.65 L9.0 10.5 9.1 10.6 9.0 10.65 M0.8 9.8 L0.7 9.8 0.85 9.55 0.8 9.8" fill="#3c4433" fill-rule="evenodd" stroke="none"/>
      <path d="M-8.9 16.55 L-8.9 16.5 -8.85 16.6 -8.9 16.55 M3.15 -7.55 L3.0 -7.8 3.1 -7.75 3.15 -7.55 M1.3 8.75 L1.35 8.75 1.2 9.0 1.3 8.75 M0.8 9.85 L0.7 9.8 0.8 9.8 0.8 9.85 M-0.3 4.4 L-0.2 4.5 -0.45 4.65 -0.3 4.4" fill="#212d21" fill-rule="evenodd" stroke="none"/>
      <path d="M0.0 -5.7 L0.1 -5.6 0.0 -5.6 0.0 -5.75 0.0 -5.7" fill="#4c573f" fill-rule="evenodd" stroke="none"/>
      <path d="M15.75 -10.4 L15.75 -10.35 15.7 -10.3 15.75 -10.4 M5.4 2.05 L5.45 2.0 5.4 2.05" fill="#323c2b" fill-rule="evenodd" stroke="none"/>
      <path d="M7.2 17.1 L6.75 17.75 6.5 17.85 Q5.3 17.85 4.4 18.4 L2.55 18.9 2.45 18.9 2.35 18.85 2.15 18.85 2.1 18.8 2.15 18.6 2.15 18.55 2.3 18.2 Q2.6 17.75 3.4 17.45 L4.7 17.15 5.35 17.0 6.2 16.85 6.4 15.55 6.7 14.4 7.2 12.2 7.15 11.0 Q6.95 9.0 6.15 7.3 L5.5 5.8 4.85 5.5 4.65 5.4 3.9 5.05 3.5 4.8 3.35 4.7 3.3 4.65 3.3 4.45 4.3 4.35 5.1 4.4 5.15 4.05 5.25 3.75 5.1 3.5 Q4.7 3.0 4.25 1.8 L3.8 0.2 3.75 -0.6 3.65 -0.6 Q3.1 -0.6 1.35 -1.65 L0.25 -2.0 -0.5 -2.45 -0.6 -2.55 Q-0.1 -3.25 0.85 -2.95 L2.25 -2.25 2.9 -2.15 3.75 -2.1 3.8 -2.1 Q3.9 -4.05 3.65 -4.95 L2.75 -6.9 2.3 -7.85 2.25 -8.4 2.35 -8.7 2.45 -8.85 2.9 -8.0 3.0 -7.8 3.15 -7.55 4.05 -6.0 4.7 -6.85 5.3 -7.55 5.35 -7.55 5.55 -7.5 5.7 -7.25 5.65 -7.2 5.65 -7.15 5.15 -6.4 5.05 -6.2 5.0 -6.15 Q4.55 -5.35 4.55 -4.65 L4.4 -2.15 4.4 -1.95 Q4.4 -1.25 4.55 -0.6 L4.65 -0.1 4.8 0.6 4.85 0.75 4.9 0.8 4.95 1.0 5.25 1.7 5.4 2.05 6.6 4.7 7.8 3.3 9.05 2.3 9.2 1.85 Q9.25 1.65 9.9 1.35 10.5 1.05 12.3 0.5 L13.45 0.1 14.1 -0.3 14.7 -1.3 14.75 -1.45 Q15.15 -2.2 15.9 -2.25 L15.95 -2.15 15.95 -2.0 15.45 -0.5 14.4 0.45 12.5 1.15 10.45 1.85 10.05 2.0 9.25 3.35 8.55 4.65 7.65 6.9 7.6 7.0 7.65 7.1 7.7 7.25 7.95 9.3 8.15 9.75 8.3 10.2 8.4 11.1 9.0 10.65 9.1 10.6 9.7 9.9 10.25 9.35 10.6 9.0 10.25 8.4 11.85 9.0 12.0 9.1 13.5 10.1 13.55 10.15 13.65 10.2 13.55 10.35 13.55 10.45 13.4 10.5 13.25 10.5 12.25 10.05 11.4 9.55 11.25 9.6 10.8 9.6 9.45 11.45 Q7.8 13.55 7.8 14.45 L7.75 15.15 7.35 16.8 7.25 17.05 7.2 17.1 M-7.2 3.0 L-6.8 3.35 Q-6.05 3.05 -5.1 1.8 L-4.7 2.1 -4.7 2.15 -5.3 3.05 -5.6 3.35 -6.5 4.3 -6.05 5.15 -5.55 5.9 -5.5 6.05 -5.15 6.05 -5.15 6.1 -5.0 6.7 -4.8 6.85 -4.45 7.15 -4.4 7.2 -4.55 7.35 Q-4.65 7.5 -4.8 7.5 L-4.4 9.2 -4.05 10.15 -3.5 10.7 -2.85 11.5 -2.8 11.55 -2.15 12.05 -2.1 12.05 -1.95 12.0 Q-1.4 11.75 -0.45 10.1 0.7 8.1 0.9 8.1 L1.35 8.25 1.35 8.55 1.3 8.75 1.2 9.0 0.95 9.0 0.85 9.55 0.7 9.8 -0.05 10.95 Q-0.9 12.05 -0.9 13.3 L-0.2 15.75 -0.05 16.25 0.1 16.75 0.1 16.8 0.15 16.8 0.15 16.85 0.15 16.9 0.15 17.0 0.05 17.3 -0.05 17.4 -0.2 17.25 -0.25 17.2 -0.45 16.95 -1.05 15.9 -2.1 13.8 -2.1 13.35 Q-2.1 13.1 -2.4 12.9 L-3.6 12.0 -4.5 11.1 Q-5.15 10.45 -5.35 10.4 L-5.45 10.35 -5.9 10.6 -6.0 10.95 -6.5 10.8 -6.95 11.15 -7.55 11.6 -8.25 11.8 -8.45 11.9 -8.8 12.15 -8.85 12.15 -8.9 12.2 -9.35 12.75 -9.65 13.15 -10.05 13.6 -10.45 13.85 -10.65 13.9 -10.9 13.95 -11.25 13.8 -11.35 13.75 -11.4 13.6 -11.4 13.45 -11.2 13.15 -10.7 12.7 -10.6 12.65 -9.8 12.05 -9.45 11.8 -9.05 11.5 -6.5 9.75 Q-6.0 9.1 -5.95 7.95 L-5.9 7.05 -6.0 6.95 -6.05 6.85 Q-6.45 6.3 -7.05 6.15 L-7.8 5.45 -8.1 4.5 -8.75 2.6 Q-9.3 1.35 -10.45 0.75 L-10.5 0.75 -11.7 1.45 -12.8 2.0 -13.95 2.4 -14.05 2.25 -14.15 2.15 -14.05 2.05 -13.0 1.15 -12.55 0.8 -11.3 -0.3 -10.8 -1.4 -10.5 -1.8 -10.5 -2.45 -10.25 -3.15 -9.8 -1.55 -9.7 -1.15 Q-9.55 -0.35 -9.2 0.15 L-8.7 0.7 -8.4 1.05 -7.8 1.8 -7.75 1.9 -7.65 2.15 -7.65 2.2 -7.25 2.9 -7.2 3.0" fill="#333333" fill-rule="evenodd" stroke="none"/>
      <path d="M15.8 -10.45 L16.1 -9.8 16.85 -8.25 17.25 -7.4 17.55 -7.0 17.8 -6.55 18.1 -5.1 18.5 -3.45 18.55 -3.3 18.6 -3.05 18.6 -2.9 18.75 0.6 18.5 2.9 18.3 3.7 Q18.2 2.8 17.85 2.45 L17.7 2.55 16.75 1.7 Q16.1 1.0 16.1 0.45 L16.65 -1.15 16.95 -1.0 17.55 -0.9 18.3 -1.4 17.85 -2.15 17.25 -2.55 16.85 -2.75 16.1 -3.0 15.95 -3.35 14.6 -2.1 14.45 -1.7 13.95 -1.35 Q12.35 -0.95 12.35 -0.65 L12.3 -0.4 9.95 -0.2 9.45 0.3 Q8.45 1.8 7.25 1.8 L5.95 1.5 5.25 1.7 4.95 1.0 4.9 0.8 4.85 0.75 5.1 0.6 Q5.1 -0.75 5.4 -3.35 L5.7 -4.5 5.75 -4.5 6.05 -4.9 6.6 -5.3 7.2 -5.5 7.4 -5.55 7.85 -5.65 8.0 -5.7 8.05 -5.7 9.95 -6.1 10.05 -6.15 11.4 -6.15 12.5 -4.85 13.2 -4.15 Q13.8 -3.6 13.95 -3.6 L14.1 -3.65 14.15 -3.8 14.15 -3.95 14.25 -4.35 14.25 -4.5 14.3 -4.65 14.75 -4.5 15.15 -4.5 Q15.5 -4.5 15.5 -4.65 L16.1 -5.1 16.05 -5.3 14.95 -5.65 14.55 -5.95 14.25 -6.75 13.35 -7.75 12.5 -8.7 Q12.2 -9.3 12.15 -10.7 L11.9 -12.65 12.0 -12.7 12.05 -12.7 12.5 -12.95 12.5 -13.2 13.4 -12.2 15.45 -10.05 15.7 -10.3 15.75 -10.35 15.75 -10.4 15.8 -10.45 M-14.0 12.25 L-14.65 11.6 Q-14.85 10.8 -15.15 10.35 L-16.0 9.45 -16.65 8.1 -17.1 7.0 -17.3 5.9 -17.3 4.8 -17.45 4.5 -17.4 4.4 -17.35 4.3 -17.45 4.3 -17.55 4.35 -17.55 4.3 -17.55 4.05 -17.75 2.7 -17.75 2.5 -17.8 2.25 -16.9 2.1 -16.25 1.95 -16.3 1.95 -16.05 1.85 -16.0 1.85 -15.95 1.8 -16.05 1.7 -16.65 1.45 -17.25 1.05 -17.55 0.65 -17.75 -0.45 -17.75 -0.65 -17.4 -2.65 -17.15 -3.5 -16.85 -4.25 -16.85 -4.3 Q-16.6 -4.7 -15.95 -4.85 L-15.0 -5.05 -14.5 -5.2 -14.35 -5.25 -13.9 -4.85 -13.55 -4.65 -13.25 -4.55 -11.1 -4.2 Q-11.55 -3.9 -11.25 -3.4 L-10.8 -2.45 -10.8 -1.4 -11.3 -0.3 -12.55 0.8 -13.0 1.15 -14.05 2.05 -14.15 2.15 -14.05 2.25 -14.85 2.6 -15.15 3.1 -15.3 3.6 -15.3 4.65 -15.5 5.05 -15.8 5.6 -15.75 5.85 -15.35 5.9 -14.95 5.85 Q-14.5 5.65 -14.45 4.9 L-14.45 3.6 -13.85 3.5 -12.5 3.8 -12.3 3.75 -12.15 3.65 Q-11.95 3.5 -11.75 3.5 L-9.8 3.0 -9.2 3.1 -8.7 4.1 -8.7 5.0 Q-8.1 6.0 -8.95 6.55 L-10.25 7.35 -9.5 7.65 Q-8.3 7.65 -7.8 6.6 L-7.75 6.5 -7.7 6.55 -7.05 7.1 -7.25 7.6 -7.5 8.85 Q-7.7 9.1 -9.2 9.9 L-9.45 10.1 -9.4 9.85 -10.35 10.1 -11.25 10.35 -11.5 10.7 -12.0 10.8 -12.25 10.8 -12.55 10.8 -13.05 10.8 -12.9 10.65 -12.65 10.3 -12.6 10.1 -12.65 9.85 -12.75 9.8 -13.4 9.75 -13.95 9.8 -14.15 10.1 -14.55 10.5 -14.7 10.9 -14.0 12.2 -14.0 12.25 M11.75 -15.05 L11.7 -15.05 11.65 -14.95 Q11.0 -14.85 10.7 -14.05 L10.65 -13.9 10.55 -13.5 10.5 -13.05 10.4 -11.7 10.4 -11.65 10.4 -11.4 10.4 -11.3 Q10.4 -9.3 10.65 -8.3 L8.9 -8.1 6.15 -7.8 5.85 -9.5 5.75 -9.95 5.55 -10.3 5.4 -10.55 5.2 -10.65 4.9 -10.75 4.35 -10.8 3.9 -11.25 3.45 -11.95 3.35 -12.1 3.3 -12.2 2.9 -12.9 2.0 -14.3 1.2 -15.2 1.05 -15.1 1.05 -15.15 1.05 -15.2 1.05 -15.25 1.05 -15.35 1.05 -15.5 0.85 -16.65 0.8 -16.9 0.6 -17.75 0.6 -17.85 1.05 -17.8 1.2 -17.8 2.55 -17.85 2.6 -17.85 2.7 -17.85 4.95 -17.85 5.2 -16.6 5.3 -16.1 5.7 -15.35 5.6 -15.25 5.1 -14.6 4.85 -14.3 4.05 -13.05 4.1 -12.75 4.35 -12.75 5.1 -13.6 5.45 -14.05 5.75 -14.4 6.0 -14.65 6.0 -14.7 6.1 -14.5 6.15 -14.5 6.5 -14.0 6.6 -13.9 Q7.15 -13.25 7.95 -13.25 L8.55 -13.45 8.6 -13.55 8.6 -13.6 Q8.35 -14.1 7.3 -14.5 L7.1 -14.6 6.55 -15.15 6.05 -15.75 6.0 -15.75 6.1 -16.05 6.15 -16.55 6.0 -17.25 Q5.9 -17.6 6.2 -18.0 6.35 -17.65 7.15 -17.3 L8.45 -16.8 10.35 -15.9 10.75 -15.45 Q11.05 -15.15 11.4 -15.15 L11.75 -15.15 11.75 -15.05 M-4.95 -14.15 L-6.6 -14.05 -7.0 -14.0 -7.4 -14.1 -8.15 -14.7 -8.4 -15.15 -8.45 -15.25 -8.35 -15.35 -7.55 -15.9 -5.75 -16.35 -5.0 -15.8 -4.7 -16.1 -4.7 -16.15 -4.8 -16.3 -4.85 -16.4 -5.5 -16.95 -5.85 -17.1 -4.25 -17.75 -2.45 -18.2 -2.15 -18.25 -2.1 -18.25 -0.5 -18.35 -0.2 -18.35 -0.2 -18.2 0.15 -16.75 0.2 -16.7 0.45 -15.35 -0.05 -14.7 -1.1 -13.65 -2.5 -12.15 -2.7 -11.75 -2.6 -11.45 -2.35 -11.6 -0.35 -13.3 0.25 -13.95 0.3 -13.95 0.95 -14.85 1.15 -14.3 1.25 -14.0 1.45 -13.6 1.5 -13.2 1.55 -12.95 1.55 -12.85 1.95 -12.15 2.4 -11.55 2.2 -10.35 1.95 -9.2 1.9 -8.9 1.8 -8.65 Q1.55 -8.1 0.8 -7.9 L-0.9 -7.35 Q-0.95 -7.75 -3.05 -9.0 L-3.7 -9.45 -3.8 -9.5 -4.35 -9.75 -4.95 -10.25 Q-5.5 -10.65 -5.9 -10.65 L-6.2 -10.55 -6.2 -10.3 -6.5 -10.3 -7.05 -10.2 -7.1 -10.15 -7.35 -10.0 -7.5 -10.05 -9.45 -7.65 -10.3 -5.9 Q-10.65 -5.1 -11.8 -5.1 -12.95 -5.1 -13.55 -5.4 L-13.75 -5.5 -13.9 -5.6 -13.85 -5.9 -13.85 -5.95 -13.95 -6.15 -14.2 -6.2 -14.5 -6.3 -14.7 -6.3 -15.3 -6.35 -15.7 -7.25 -15.7 -7.35 -15.8 -7.5 -15.9 -7.85 -14.85 -9.4 -14.35 -10.0 -13.2 -11.25 -12.1 -12.6 -11.85 -13.05 -11.8 -13.15 -11.75 -13.2 -11.55 -13.45 -11.35 -13.6 -10.8 -14.0 -10.75 -14.05 -8.95 -14.55 -8.9 -14.55 Q-8.7 -14.55 -8.5 -13.8 L-8.45 -13.55 -8.25 -12.45 -8.3 -11.3 -8.25 -11.0 Q-8.2 -10.55 -7.8 -10.35 L-7.5 -10.5 -7.45 -11.25 -7.4 -11.5 -7.35 -11.85 -7.3 -12.2 -7.25 -12.35 -7.25 -12.5 -7.2 -12.75 -7.2 -12.95 -7.25 -13.15 -7.25 -13.2 -7.35 -13.3 -7.25 -13.35 -7.1 -13.4 -4.95 -13.55 -4.85 -13.65 -4.8 -13.85 -4.85 -14.15 -4.9 -14.15 -4.95 -14.15 M5.25 -7.65 L5.3 -7.55 4.7 -6.85 4.05 -6.0 3.15 -7.55 3.1 -7.75 2.85 -8.55 3.05 -10.05 3.5 -10.2 4.15 -9.75 Q4.55 -9.35 4.95 -9.3 L4.95 -8.75 5.25 -7.65 M-0.5 -2.45 L0.25 -2.0 1.35 -1.65 Q3.1 -0.6 3.65 -0.6 L3.75 -0.6 3.8 0.2 4.25 1.8 Q4.7 3.0 5.1 3.5 L5.05 3.45 3.55 3.7 3.3 3.8 2.7 3.6 3.15 3.75 Q3.15 3.05 1.8 2.0 1.45 2.2 1.45 3.3 1.45 4.3 0.6 4.85 L-1.45 6.2 Q-2.6 7.0 -3.0 7.45 L-4.05 6.35 -4.95 5.0 -5.65 4.35 -5.7 4.5 Q-5.7 3.9 -4.9 3.1 L-4.1 2.1 -4.15 1.85 -4.2 1.85 -4.6 2.05 -3.6 0.75 -2.75 -0.15 -1.8 -1.05 -0.85 -2.1 -0.5 -2.45 M0.1 -5.6 L0.75 -5.85 0.9 -5.95 0.95 -6.0 1.65 -6.6 1.9 -6.85 2.05 -6.6 2.3 -6.15 2.35 -6.05 Q2.9 -5.2 2.9 -4.25 L2.85 -3.15 1.85 -3.4 0.8 -3.65 0.7 -3.65 0.45 -3.65 0.2 -3.6 0.1 -3.6 -0.45 -3.45 -0.05 -3.9 -0.1 -4.0 -0.15 -4.7 0.0 -5.4 0.05 -5.45 0.15 -5.4 0.1 -5.6 M-0.7 -3.35 L-0.8 -3.3 -0.85 -3.25 -0.9 -3.25 -1.4 -2.9 -1.85 -2.55 -3.05 -1.05 -4.7 0.55 -6.5 2.1 -6.75 1.85 -6.95 1.8 -7.2 1.85 -7.2 2.8 -7.25 2.9 -7.65 2.2 -7.65 2.15 -7.75 1.9 -7.8 1.8 -8.4 1.05 -8.7 0.7 -8.7 0.65 -8.75 0.45 -8.85 0.25 -9.15 -0.3 -9.2 -1.05 -8.9 -1.1 -8.85 -1.9 -9.15 -4.55 Q-9.15 -5.5 -8.4 -7.0 L-7.75 -8.0 -7.7 -8.05 Q-7.0 -8.85 -6.2 -8.85 L-5.65 -8.75 -4.9 -8.5 -3.95 -8.1 -3.9 -8.1 -3.45 -7.8 -2.5 -7.1 -1.4 -6.45 Q-1.15 -6.25 -1.15 -5.7 L-1.1 -4.85 -1.05 -4.05 -0.7 -3.35 M13.2 -3.5 L13.25 -3.45 13.2 -3.5 M1.35 8.75 L2.15 7.65 2.65 6.8 Q3.2 6.0 3.6 6.0 3.95 6.0 4.65 6.55 5.4 7.05 5.55 7.5 L6.15 9.3 6.6 11.1 6.75 11.45 6.35 12.0 5.75 14.25 5.2 16.05 5.5 15.5 5.4 15.5 4.35 15.8 2.1 16.05 0.45 14.45 0.0 13.15 0.15 12.15 0.6 10.55 0.65 10.4 0.65 10.3 0.8 9.85 0.8 9.8 0.85 9.55 0.95 9.0 1.2 9.0 1.35 8.75 M0.15 16.8 L0.15 16.85 0.25 16.95 0.15 17.0 0.15 16.9 0.15 16.85 0.15 16.8 M-0.3 4.4 L-0.45 4.65 -0.2 4.5 -0.3 4.4 M-4.05 8.95 L-3.85 9.25 -3.95 9.2 -4.05 9.05 -4.05 8.95 M-4.4 14.4 L-4.6 14.5 -5.0 15.1 Q-5.15 15.65 -5.8 15.8 L-6.0 15.85 -6.6 15.9 -8.05 15.65 -8.2 15.6 -9.15 15.1 -9.15 14.3 -9.1 14.05 -9.15 13.85 -9.15 13.8 -7.6 12.85 -5.9 11.75 Q-5.55 11.75 -4.1 13.2 L-2.95 14.25 -3.65 14.25 -4.4 14.4 M-3.9 15.1 L-3.8 15.1 -2.6 15.1 -2.45 15.0 -2.1 16.05 -1.7 16.9 -1.65 17.0 -1.35 17.4 -3.0 17.6 -3.05 17.6 -4.25 17.55 -4.35 16.8 -4.35 16.45 -4.35 16.35 -4.2 15.75 -3.9 15.1 M15.85 2.2 L16.6 2.65 17.3 3.0 Q16.95 3.45 16.8 4.15 L16.35 6.15 15.05 8.25 14.85 8.65 11.55 6.45 9.7 5.3 9.35 6.0 10.35 3.95 11.25 2.45 13.1 2.0 14.4 1.35 15.85 2.2 M10.85 10.65 L11.4 10.85 12.85 11.0 13.75 10.9 12.45 12.6 11.25 14.4 8.65 15.3 8.6 15.05 8.6 14.95 Q8.65 14.0 9.25 13.2 L10.85 10.65 M8.4 8.15 Q8.65 7.7 9.5 8.0 L9.6 8.7 9.6 9.05 9.65 9.1 9.55 9.2 9.15 9.6 8.9 9.9 8.85 9.6 Q8.3 9.55 8.3 8.75 L8.4 8.15" fill="#6d6d6d" fill-rule="evenodd" stroke="none"/>
      <path d="M10.75 -16.8 L10.95 -16.45 11.05 -16.3 11.1 -16.25 11.35 -15.95 11.65 -15.65 11.7 -15.3 11.75 -15.15 11.4 -15.15 Q11.05 -15.15 10.75 -15.45 L10.35 -15.9 8.45 -16.8 7.15 -17.3 Q6.35 -17.65 6.2 -18.0 5.9 -17.6 6.0 -17.25 L6.15 -16.55 6.1 -16.05 6.0 -15.75 6.05 -15.75 6.55 -15.15 7.1 -14.6 7.3 -14.5 Q8.35 -14.1 8.6 -13.6 L8.6 -13.55 8.55 -13.45 7.95 -13.25 Q7.15 -13.25 6.6 -13.9 L6.5 -14.0 6.15 -14.5 6.1 -14.5 6.0 -14.7 6.0 -14.65 5.75 -14.4 5.45 -14.05 5.1 -13.6 4.35 -12.75 4.1 -12.75 4.05 -13.05 4.85 -14.3 5.1 -14.6 5.6 -15.25 5.7 -15.35 5.3 -16.1 5.2 -16.6 4.95 -17.85 2.7 -17.85 2.6 -17.85 2.55 -17.85 1.2 -17.8 1.05 -17.8 0.6 -17.85 0.6 -17.75 0.8 -16.9 0.85 -16.65 1.05 -15.5 1.05 -15.35 1.05 -15.25 1.05 -15.2 1.05 -15.15 1.05 -15.1 0.95 -14.85 0.3 -13.95 0.25 -13.95 -0.35 -13.3 -2.35 -11.6 -2.6 -11.45 -2.7 -11.75 -2.5 -12.15 -1.1 -13.65 -0.05 -14.7 0.45 -15.35 0.2 -16.7 0.15 -16.75 -0.2 -18.2 -0.2 -18.35 -0.5 -18.35 -2.1 -18.25 -2.15 -18.25 -2.45 -18.2 -4.25 -17.75 -5.85 -17.1 -5.5 -16.95 -4.85 -16.4 -4.8 -16.3 -4.7 -16.15 -4.7 -16.1 -5.0 -15.8 -5.75 -16.35 -7.55 -15.9 -8.35 -15.35 -8.45 -15.25 -8.4 -15.15 -8.15 -14.7 -7.4 -14.1 -7.0 -14.0 -6.6 -14.05 -4.95 -14.15 -4.85 -14.15 -4.8 -13.85 -4.85 -13.65 -4.95 -13.55 -7.1 -13.4 -7.25 -13.35 -7.35 -13.35 -7.35 -13.3 -7.25 -13.2 -7.25 -13.15 -7.2 -12.95 -7.2 -12.75 -7.25 -12.5 -7.25 -12.35 -7.3 -12.2 -7.35 -11.85 -7.4 -11.5 -7.45 -11.25 -7.5 -10.5 -7.8 -10.35 Q-8.2 -10.55 -8.25 -11.0 L-8.3 -11.3 -8.25 -12.45 -8.45 -13.55 -8.5 -13.8 Q-8.7 -14.55 -8.9 -14.55 L-8.95 -14.55 -10.75 -14.05 -10.8 -14.0 -11.35 -13.6 -11.55 -13.45 -11.75 -13.2 -11.8 -13.15 -11.85 -13.05 -12.1 -12.6 -13.2 -11.25 -14.35 -10.0 -14.85 -9.4 -15.9 -7.85 -15.8 -7.5 -15.7 -7.35 -15.7 -7.25 -15.3 -6.35 -14.7 -6.3 -14.5 -6.3 -14.2 -6.2 -13.95 -6.15 -13.85 -5.95 -13.85 -5.9 -13.9 -5.6 -14.45 -5.9 -14.7 -5.85 -14.45 -5.4 -14.35 -5.25 -14.5 -5.2 -15.0 -5.05 -15.95 -4.85 Q-16.6 -4.7 -16.85 -4.3 L-16.85 -4.25 -17.15 -3.5 -17.4 -2.65 -17.75 -0.65 -17.75 -0.45 -17.55 0.65 -17.25 1.05 -16.65 1.45 -16.05 1.7 -16.0 1.85 -16.05 1.85 -16.3 1.95 -16.25 1.95 -16.9 2.1 -17.8 2.25 -17.85 1.8 -18.15 -2.2 Q-18.15 -2.9 -17.25 -5.2 L-16.4 -7.2 -16.2 -7.7 -15.35 -9.65 -14.2 -11.0 -13.65 -11.55 -13.15 -12.5 -12.95 -12.8 -12.3 -13.4 -12.15 -13.45 -11.75 -13.9 -11.4 -14.4 -11.1 -14.5 -9.9 -14.9 -9.7 -15.0 Q-9.15 -15.25 -8.7 -15.85 L-8.4 -16.25 -8.25 -16.5 -8.1 -16.5 -8.05 -16.5 -6.8 -17.25 -6.6 -17.25 -6.55 -17.25 -6.45 -17.4 -5.0 -18.25 -3.2 -18.65 -0.45 -18.8 0.0 -18.85 0.05 -18.65 0.3 -18.6 1.65 -18.45 3.8 -18.3 4.7 -18.35 5.45 -18.3 6.2 -18.35 7.0 -18.3 8.75 -17.8 8.85 -17.65 Q9.5 -16.8 10.75 -16.8 M12.05 -14.85 L12.7 -14.7 12.75 -14.7 12.9 -14.55 13.05 -14.45 13.65 -13.55 14.65 -12.45 15.0 -11.85 15.4 -11.2 15.75 -10.65 15.75 -10.55 15.7 -10.3 15.45 -10.05 13.4 -12.2 12.5 -13.2 12.5 -12.95 12.05 -12.7 12.0 -12.7 11.9 -12.65 12.15 -10.7 Q12.2 -9.3 12.5 -8.7 L13.35 -7.75 14.25 -6.75 14.55 -5.95 14.95 -5.65 16.05 -5.3 16.1 -5.1 15.5 -4.65 Q15.5 -4.5 15.15 -4.5 L14.75 -4.5 14.3 -4.65 14.25 -4.5 14.25 -4.35 14.15 -3.95 14.15 -3.8 14.1 -3.65 13.95 -3.6 Q13.8 -3.6 13.2 -4.15 L12.5 -4.85 11.4 -6.15 10.05 -6.15 9.95 -6.1 8.05 -5.7 8.0 -5.7 7.85 -5.65 7.4 -5.55 7.2 -5.5 6.6 -5.3 6.05 -4.9 5.75 -4.5 5.7 -4.5 5.4 -3.35 Q5.1 -0.75 5.1 0.6 L4.85 0.75 4.8 0.6 4.65 -0.1 4.55 -0.6 4.5 -0.95 4.5 -2.65 4.65 -5.3 5.0 -6.15 5.05 -6.2 5.15 -6.4 5.65 -7.15 5.7 -7.15 5.85 -6.5 5.9 -6.5 5.85 -6.45 5.85 -6.35 6.1 -6.45 6.55 -6.45 8.25 -6.65 9.6 -6.9 10.8 -7.25 12.1 -6.65 13.55 -4.8 13.85 -5.05 13.9 -5.05 14.15 -5.6 Q14.15 -6.25 13.1 -7.4 L12.45 -7.8 11.75 -8.25 Q11.6 -8.5 11.6 -9.3 L11.45 -10.6 11.4 -12.5 11.45 -13.25 11.5 -13.7 11.65 -14.0 11.75 -14.25 11.75 -14.3 12.05 -14.85 M-7.35 -10.0 L-7.1 -10.15 -7.05 -10.2 -6.5 -10.3 -6.2 -10.3 -6.2 -10.25 Q-4.7 -8.65 -2.0 -7.2 -0.85 -6.5 -0.7 -5.5 L-0.3 -3.95 -0.1 -4.0 -0.05 -3.9 -0.45 -3.45 -0.7 -3.35 -1.05 -4.05 -1.1 -4.85 -1.15 -5.7 Q-1.15 -6.25 -1.4 -6.45 L-2.5 -7.1 -3.45 -7.8 -3.9 -8.1 -3.95 -8.1 -4.9 -8.5 -5.65 -8.75 -6.2 -8.85 Q-7.0 -8.85 -7.7 -8.05 L-7.75 -8.0 -8.4 -7.0 Q-9.15 -5.5 -9.15 -4.55 L-8.85 -1.9 -8.9 -1.1 -9.2 -1.05 -9.2 -1.35 -9.6 -2.45 -9.75 -2.85 -9.85 -4.15 -9.85 -4.2 Q-9.7 -5.85 -8.55 -7.65 L-7.2 -9.75 -7.35 -10.0 M0.0 -6.65 L1.3 -7.35 1.35 -7.35 1.55 -7.35 1.65 -7.1 1.8 -7.15 1.75 -7.25 1.75 -7.3 1.9 -6.85 1.65 -6.6 0.95 -6.0 0.9 -5.95 0.75 -5.85 0.1 -5.6 0.0 -5.7 -0.1 -6.5 0.0 -6.65 M-16.3 -6.1 L-16.25 -6.1 -15.8 -6.25 -16.3 -6.1" fill="#8a8a8a" fill-rule="evenodd" stroke="none"/>
      <path d="M10.75 -16.8 L11.7 -16.05 14.0 -13.8 15.9 -11.15 17.15 -8.8 18.15 -6.3 19.1 -3.7 19.2 -1.4 19.05 4.2 18.95 4.9 18.45 5.7 18.1 6.4 17.9 7.05 16.35 9.8 14.9 12.65 Q13.95 14.25 12.15 15.45 L9.65 16.95 6.9 17.7 4.4 18.8 2.2 19.5 0.4 19.8 -4.7 19.2 -5.95 18.65 -6.05 18.6 -8.2 17.6 Q-10.1 16.6 -10.85 15.9 L-14.1 12.9 -15.3 11.55 -15.75 10.25 -16.25 9.45 Q-17.15 8.35 -17.45 6.75 L-17.9 3.9 -18.2 0.35 -18.35 -0.05 -18.6 -1.65 -18.2 -3.75 -17.7 -5.7 Q-17.3 -6.75 -16.7 -7.3 L-15.6 -9.9 -13.75 -12.2 -12.65 -13.95 -11.55 -14.55 -11.2 -14.65 -10.85 -14.8 -10.15 -15.45 -7.8 -17.15 Q-6.4 -18.2 -5.15 -18.55 L-4.75 -18.8 -2.45 -19.2 7.85 -18.3 Q9.15 -18.1 10.1 -17.4 L10.75 -16.8 Q9.5 -16.8 8.85 -17.65 L8.75 -17.8 7.0 -18.3 6.2 -18.35 5.45 -18.3 4.7 -18.35 3.8 -18.3 1.65 -18.45 0.3 -18.6 0.05 -18.65 0.0 -18.85 -0.45 -18.8 -3.2 -18.65 -5.0 -18.25 -6.45 -17.4 -6.8 -17.25 -8.05 -16.5 -8.1 -16.5 -8.25 -16.5 -8.4 -16.25 -8.7 -15.85 Q-9.15 -15.25 -9.7 -15.0 L-9.9 -14.9 -11.1 -14.5 -11.4 -14.4 -11.75 -13.9 -12.15 -13.45 -12.3 -13.4 -12.95 -12.8 -13.15 -12.5 -13.65 -11.55 -14.2 -11.0 -15.35 -9.65 -16.2 -7.7 -16.4 -7.2 -17.25 -5.2 Q-18.15 -2.9 -18.15 -2.2 L-17.85 1.8 -17.8 2.25 -17.75 2.5 -17.75 2.7 -17.55 4.05 -17.55 4.3 -17.55 4.35 -17.45 4.5 -17.3 4.8 -17.3 5.9 -17.1 7.0 -16.65 8.1 -16.0 9.45 -15.15 10.35 Q-14.85 10.8 -14.65 11.6 L-14.0 12.25 -13.8 12.45 -13.7 12.55 -13.55 12.7 -13.5 12.75 -13.45 12.8 -12.95 13.05 Q-12.65 13.25 -12.5 13.55 L-12.4 13.75 -11.1 14.85 -11.1 14.9 -10.65 15.55 -9.45 16.55 -9.3 16.55 -8.9 16.5 -8.9 16.55 -8.45 17.05 -7.8 17.45 -6.6 18.15 -6.5 18.2 -5.95 18.35 -5.45 18.4 -4.65 18.45 -4.5 18.5 -4.45 18.55 -4.2 18.7 -3.65 18.9 -2.8 19.0 -2.3 19.0 -1.7 19.05 -1.25 19.2 -0.15 19.1 0.05 19.1 1.25 19.05 1.8 19.05 2.3 18.95 2.3 18.9 2.35 18.85 2.45 18.9 2.55 18.9 4.4 18.4 Q5.3 17.85 6.5 17.85 L6.75 17.75 7.2 17.1 7.7 16.9 7.8 16.85 8.85 16.55 9.95 16.3 10.1 16.25 10.75 16.1 12.35 14.9 12.8 14.7 13.55 13.8 13.55 13.65 13.7 13.15 13.8 13.05 13.9 12.9 13.95 12.8 14.35 12.6 14.65 12.15 15.45 10.65 15.85 9.65 16.05 9.25 16.05 9.15 16.15 8.5 16.55 7.95 16.85 7.8 17.2 6.95 17.45 6.5 Q18.2 5.1 18.2 4.4 L18.3 3.7 18.5 2.9 18.75 0.6 18.6 -2.9 18.6 -3.05 18.55 -3.3 18.5 -3.45 18.1 -5.1 17.8 -6.55 17.55 -7.0 17.25 -7.4 16.85 -8.25 16.1 -9.8 15.8 -10.45 15.75 -10.55 15.75 -10.65 15.6 -10.95 15.4 -11.2 15.0 -11.85 15.0 -12.0 14.65 -12.45 13.65 -13.55 13.05 -14.45 12.9 -14.55 12.75 -14.7 12.7 -14.7 12.05 -14.85 11.85 -15.0 11.8 -15.05 11.75 -15.15 11.7 -15.3 11.65 -15.65 11.35 -15.95 11.1 -16.25 11.05 -16.3 10.95 -16.45 10.75 -16.8" fill="#161616" fill-rule="evenodd" stroke="none"/>
    </g>
  </defs>
</svg>
