<?xml version="1.0" encoding="UTF-8" standalone="no"?>
<svg xmlns:ffdec="https://www.free-decompiler.com/flash" xmlns:xlink="http://www.w3.org/1999/xlink" ffdec:objectType="frame" height="182.3px" width="166.05px" xmlns="http://www.w3.org/2000/svg">
  <g transform="matrix(1.0, 0.0, 0.0, 1.0, 38.9, 151.05)">
    <use ffdec:characterId="201" height="34.0" transform="matrix(1.0, 0.0, 0.0, 1.0, -17.2, -28.1)" width="46.45" xlink:href="#shape0"/>
    <use ffdec:characterId="385" height="88.5" transform="matrix(-0.8999, -0.4288, 0.4288, -0.8999, 16.7001, -19.6351)" width="27.5" xlink:href="#shape1"/>
    <use ffdec:characterId="385" height="88.5" transform="matrix(-0.8999, -0.4288, 0.4288, -0.8999, 2.5001, -29.6851)" width="27.5" xlink:href="#shape1"/>
    <use ffdec:characterId="385" height="88.5" transform="matrix(-0.8999, -0.4288, 0.4288, -0.8999, 9.4001, -23.0851)" width="27.5" xlink:href="#shape1"/>
    <use ffdec:characterId="842" height="86.0" transform="matrix(0.8527, 0.5196, -0.5196, 0.8527, 8.7878, -93.7437)" width="99.4" xlink:href="#shape2"/>
    <use ffdec:characterId="387" height="113.55" transform="matrix(0.8382, 0.5413, -0.5413, 0.8382, 47.5871, -151.0261)" width="69.4" xlink:href="#shape3"/>
    <use ffdec:characterId="393" height="117.95" transform="matrix(0.8437, 0.5157, -0.5157, 0.8437, 93.8213, -95.6711)" width="25.6" xlink:href="#shape4"/>
    <use ffdec:characterId="392" height="44.45" transform="matrix(0.4567, -0.8783, 0.8783, 0.4567, -6.3069, -69.0017)" width="30.15" xlink:href="#shape5"/>
  </g>
  <defs>
    <g id="shape0" transform="matrix(1.0, 0.0, 0.0, 1.0, 29.45, 30.75)">
      <path d="M9.0 -1.05 L5.85 -1.1 4.45 -1.1 4.5 -15.45 11.75 -16.5 12.45 -16.6 12.5 -14.45 Q12.55 -13.2 12.95 -11.05 L13.5 -7.7 13.6 -5.2 Q11.5 -5.55 10.65 -4.2 L9.0 -1.4 9.0 -1.05 M-24.4 -1.9 Q-27.7 -5.3 -27.05 -9.25 L-26.75 -11.15 Q-23.95 -10.75 -18.35 -12.85 -13.25 -14.75 -12.4 -15.5 L-12.3 -15.4 -10.45 -13.35 Q-9.0 -11.9 -7.65 -11.35 L-9.6 -10.0 Q-10.1 -9.5 -11.9 -8.3 L-14.2 -6.7 Q-14.7 -6.2 -16.05 -5.45 -17.55 -4.75 -18.0 -4.3 L-18.55 -3.65 Q-19.8 -4.7 -21.7 -4.1 L-23.9 -2.7 -24.35 -1.95 -24.4 -1.9 M10.5 -1.05 L13.2 -2.85 14.0 -0.95 10.5 -1.05 M-24.15 -1.65 L-24.15 -1.85 -21.65 -1.55 -20.0 -1.9 Q-19.95 -1.05 -20.2 0.4 L-20.4 0.9 Q-23.2 -0.7 -24.15 -1.65" fill="#372c22" fill-rule="evenodd" stroke="none"/>
      <path d="M12.95 -26.5 Q12.9 -23.45 13.5 -20.7 13.9 -18.95 14.5 -17.65 14.4 -14.35 15.15 -10.65 16.0 -6.45 16.0 -4.15 L16.0 -2.5 16.2 -2.15 Q17.0 -0.8 17.0 0.1 L16.85 1.0 14.95 1.1 -1.0 1.75 Q-1.45 0.85 -2.25 0.25 L-2.1 0.1 -2.3 -0.65 -2.5 -2.2 Q-2.5 -7.45 -1.75 -12.35 L-2.0 -12.1 Q-3.15 -10.95 -10.25 -6.35 L-13.55 -3.65 Q-15.4 -2.4 -17.55 -2.05 -17.3 -0.3 -18.75 3.05 -19.45 3.55 -20.45 2.85 L-20.45 2.65 Q-22.7 1.9 -26.2 -0.7 -29.15 -3.65 -29.45 -8.95 -29.6 -12.5 -28.75 -14.35 L-28.7 -15.0 -28.6 -15.4 -28.85 -15.65 -28.6 -15.7 -28.15 -17.65 -26.9 -18.3 -26.3 -18.3 -24.75 -18.95 -22.7 -19.4 Q-19.2 -20.1 -17.0 -22.3 L-15.95 -22.65 Q-12.55 -25.45 -9.55 -26.65 -3.2 -29.1 1.3 -24.6 L1.55 -24.35 Q3.4 -28.25 5.9 -29.95 8.6 -31.75 10.8 -29.6 L12.95 -26.5 M9.0 -1.4 L10.65 -4.2 Q11.5 -5.55 13.6 -5.2 L13.5 -7.7 12.95 -11.05 Q12.55 -13.2 12.5 -14.45 L12.45 -16.6 11.75 -16.5 4.5 -15.45 4.45 -1.1 5.85 -1.1 9.0 -1.05 9.05 -1.05 9.35 -1.05 9.0 -1.4 M10.5 -1.05 L14.0 -0.95 13.2 -2.85 10.5 -1.05 M-12.4 -15.5 Q-13.25 -14.75 -18.35 -12.85 -23.95 -10.75 -26.75 -11.15 L-27.05 -9.25 Q-27.7 -5.3 -24.4 -1.9 L-24.15 -1.65 Q-23.2 -0.7 -20.4 0.9 -20.35 0.85 -20.25 0.95 L-20.2 0.4 Q-19.95 -1.05 -20.0 -1.9 L-21.65 -1.55 -24.15 -1.85 Q-24.25 -1.85 -24.35 -1.95 L-23.9 -2.7 -21.7 -4.1 Q-19.8 -4.7 -18.55 -3.65 L-18.0 -4.3 Q-17.55 -4.75 -16.05 -5.45 -14.7 -6.2 -14.2 -6.7 L-11.9 -8.3 Q-10.1 -9.5 -9.6 -10.0 L-7.65 -11.35 Q-9.0 -11.9 -10.45 -13.35 L-12.3 -15.4 -12.35 -15.55 -12.4 -15.5" fill="#000000" fill-rule="evenodd" stroke="none"/>
      <path d="M9.0 -1.05 L9.0 -1.4 9.05 -1.05 9.0 -1.05" fill="#5b6171" fill-rule="evenodd" stroke="none"/>
    </g>
    <g id="shape1" transform="matrix(1.0, 0.0, 0.0, 1.0, 13.75, 44.25)">
      <path d="M-3.2 -19.55 L-3.2 -19.6 -3.25 -23.1 -3.1 -26.95 Q-2.6 -29.85 -0.75 -30.25 3.5 -30.5 3.95 -27.2 L4.25 -22.2 4.25 -19.0 7.75 -18.45 Q7.25 -22.15 4.7 -28.55 L0.3 -39.25 Q-2.05 -35.85 -4.35 -29.4 L-7.7 -19.0 -4.25 -19.25 -3.2 -19.15 -3.15 -19.15 -3.2 -19.55 M1.25 -28.2 Q-1.95 -26.7 -1.7 -23.4 L-1.25 -20.45 -1.1 -18.75 2.45 -18.75 2.55 -18.85 1.95 -21.9 Q1.55 -24.75 1.75 -27.5 L1.45 -27.75 1.25 -28.2 M5.45 -32.3 Q10.25 -20.5 10.25 -17.85 L10.0 -16.25 Q9.65 -15.75 8.5 -15.75 6.95 -15.75 5.35 -16.75 L4.25 -17.4 4.25 -17.25 3.6 -16.9 3.85 -13.65 3.75 -7.75 3.8 -1.2 3.75 3.5 3.7 13.05 Q6.45 13.4 9.8 16.55 13.25 19.8 13.25 20.9 L13.25 21.35 13.6 22.3 13.75 25.65 13.45 32.75 12.75 43.75 11.75 44.25 11.6 44.15 11.0 44.25 6.05 39.25 2.1 35.05 1.75 35.25 -1.95 35.25 -2.1 35.1 -2.1 35.05 -3.65 36.1 -6.7 38.0 Q-9.9 41.4 -11.75 42.75 -13.15 42.0 -13.55 39.05 L-13.75 34.15 Q-13.25 26.3 -13.25 22.55 -13.9 19.85 -10.6 16.95 -7.4 14.1 -2.85 13.35 L-2.75 4.75 -2.8 -1.45 -2.75 -7.7 -2.9 -13.9 -2.7 -16.75 -2.95 -16.75 -3.1 -16.9 -3.25 -17.55 -5.05 -17.1 -7.0 -16.75 Q-9.3 -16.75 -9.75 -17.85 L-9.75 -19.15 Q-9.75 -22.95 -4.9 -33.75 -1.05 -42.3 0.25 -44.25 1.15 -42.8 5.45 -32.3 M1.85 -16.75 L-0.85 -16.75 -0.65 -13.65 -0.75 -7.75 Q-0.65 -5.45 -0.7 -1.2 L-0.75 3.5 -0.85 15.2 Q-1.0 26.05 -1.35 32.5 L-0.55 32.6 0.2 32.9 0.9 32.75 1.45 32.7 1.3 31.9 1.25 29.4 1.75 4.75 1.7 -1.45 Q1.65 -5.2 1.75 -7.7 L1.6 -13.9 Q1.6 -15.55 1.85 -16.75 M3.9 14.95 L3.85 14.9 3.65 14.75 3.65 15.2 3.1 32.95 3.25 33.5 Q5.0 34.45 7.05 36.85 L10.15 40.55 10.75 41.25 10.75 40.15 11.25 21.8 11.25 21.7 8.35 19.05 3.9 14.95 M-11.6 39.2 Q-10.2 37.15 -7.4 35.5 L-2.95 33.1 -3.2 31.9 -3.25 29.4 -2.85 14.85 -5.8 16.35 Q-9.95 18.45 -10.45 21.05 L-10.85 25.4 Q-11.05 28.05 -11.75 29.3 L-11.75 39.05 -11.7 39.3 -11.6 39.2" fill="#000000" fill-rule="evenodd" stroke="none"/>
      <path d="M-3.2 -19.15 L-4.25 -19.25 -7.7 -19.0 -4.35 -29.4 Q-2.05 -35.85 0.3 -39.25 L4.7 -28.55 Q7.25 -22.15 7.75 -18.45 L4.25 -19.0 4.25 -22.2 3.95 -27.2 Q3.5 -30.5 -0.75 -30.25 -2.6 -29.85 -3.1 -26.95 L-3.25 -23.1 -3.2 -19.6 -3.2 -19.55 -3.2 -19.15 M1.25 -28.2 L1.45 -27.75 1.75 -27.5 Q1.55 -24.75 1.95 -21.9 L2.55 -18.85 2.45 -18.75 -1.1 -18.75 -1.25 -20.45 -1.7 -23.4 Q-1.95 -26.7 1.25 -28.2" fill="#60606c" fill-rule="evenodd" stroke="none"/>
      <path d="M1.85 -16.75 Q1.6 -15.55 1.6 -13.9 L1.75 -7.7 Q1.65 -5.2 1.7 -1.45 L1.75 4.75 1.25 29.4 1.3 31.9 1.45 32.7 0.9 32.75 0.2 32.9 -0.55 32.6 -1.35 32.5 Q-1.0 26.05 -0.85 15.2 L-0.75 3.5 -0.7 -1.2 Q-0.65 -5.45 -0.75 -7.75 L-0.65 -13.65 -0.85 -16.75 1.85 -16.75" fill="#14100c" fill-rule="evenodd" stroke="none"/>
      <path d="M3.85 14.9 L3.9 14.95 3.65 15.2 3.85 14.9 M10.75 40.15 L10.75 41.25 10.15 40.55 10.75 40.15" fill="#942403" fill-rule="evenodd" stroke="none"/>
      <path d="M3.65 15.2 L3.9 14.95 8.35 19.05 11.25 21.7 11.25 21.8 10.75 40.15 10.15 40.55 7.05 36.85 Q5.0 34.45 3.25 33.5 L3.1 32.95 3.65 15.2 M-11.75 39.05 L-11.75 29.3 Q-11.05 28.05 -10.85 25.4 L-10.45 21.05 Q-9.95 18.45 -5.8 16.35 L-2.85 14.85 -3.25 29.4 -3.2 31.9 -2.95 33.1 -7.4 35.5 Q-10.2 37.15 -11.6 39.2 L-11.75 39.05" fill="#046193" fill-rule="evenodd" stroke="none"/>
    </g>
    <g id="shape2" transform="matrix(1.0, 0.0, 0.0, 1.0, 44.4, 39.55)">
      <path d="M18.05 -8.1 L25.6 -7.0 Q25.35 -7.75 25.35 -8.7 L25.5 -12.1 Q25.4 -13.25 25.45 -15.55 L25.5 -18.5 25.5 -30.55 21.55 -29.8 19.05 -29.35 17.6 -29.4 17.6 -29.5 17.55 -29.55 17.55 -29.5 12.2 -29.5 Q14.0 -27.75 15.25 -25.0 L16.15 -20.35 16.5 -16.75 Q16.5 -13.75 16.05 -11.85 L15.45 -9.3 15.4 -9.0 15.55 -8.95 15.55 -9.25 16.15 -9.25 15.75 -8.85 16.65 -8.5 17.95 -7.85 18.0 -7.8 18.05 -8.1 M28.0 -29.0 Q27.5 -27.15 27.5 -24.85 L27.5 -17.0 28.0 -17.0 28.7 -16.45 29.45 -16.55 39.7 -17.05 Q39.1 -18.8 38.95 -21.5 L39.0 -28.1 38.9 -29.85 39.0 -30.35 31.15 -30.75 28.5 -30.7 28.0 -29.0 M8.9 -31.6 L10.8 -31.8 17.15 -32.2 17.25 -32.35 19.1 -32.3 25.0 -32.75 Q25.0 -33.0 40.5 -32.5 L51.55 -31.95 51.55 -31.55 Q53.9 -31.65 54.7 -28.75 55.0 -27.55 55.0 -23.75 L54.85 -19.85 Q54.4 -17.7 52.55 -15.5 L52.6 -15.1 52.0 -15.0 28.3 -15.0 28.2 -15.05 27.5 -15.0 27.5 -6.1 27.45 -6.05 27.5 -6.0 Q27.0 -5.0 25.75 -5.0 L17.75 -5.45 17.85 -6.1 17.0 -6.0 14.95 -6.3 14.8 -5.1 Q14.0 -1.0 14.0 0.8 14.0 2.05 13.45 3.65 12.7 5.7 11.4 6.0 L11.25 6.3 10.35 6.3 10.5 7.6 10.35 9.75 10.6 11.3 11.15 12.7 11.1 13.45 11.6 13.45 Q12.45 14.7 13.8 14.95 L14.6 16.7 15.75 17.3 15.85 17.25 16.05 17.9 Q17.15 18.65 19.0 23.1 19.0 24.0 16.3 25.85 11.0 29.55 -4.85 38.05 -6.25 38.8 -8.65 39.35 L-12.65 40.45 -21.55 44.05 -28.6 46.45 Q-29.35 45.95 -30.05 43.1 -30.65 40.65 -30.65 39.35 L-30.4 38.3 -30.7 38.35 -31.4 38.1 Q-31.75 37.85 -31.75 36.95 L-31.6 36.45 -32.15 35.05 -32.15 35.15 Q-36.95 35.1 -39.6 32.25 -41.0 30.85 -41.65 28.9 L-42.05 27.25 Q-43.2 22.9 -43.3 8.95 L-43.35 8.75 Q-43.6 7.7 -43.45 2.7 L-43.35 -2.8 -43.85 -8.6 Q-44.15 -11.9 -43.85 -14.3 -43.5 -16.5 -43.85 -20.5 L-44.4 -27.2 Q-44.65 -35.0 -40.55 -36.9 L-40.6 -37.0 -31.65 -38.85 Q-19.9 -40.9 -18.75 -36.75 L-18.5 -34.1 -18.4 -32.8 Q-18.0 -32.15 -18.0 -31.35 L-18.0 -30.95 Q-11.95 -31.85 -3.0 -31.25 3.75 -32.85 7.5 -32.0 L8.9 -31.6 M8.45 -14.2 L10.1 -11.2 12.65 -6.3 13.55 -10.75 Q14.5 -15.5 14.5 -16.75 14.5 -20.05 13.05 -24.25 11.25 -29.35 8.75 -29.35 L7.2 -29.35 6.6 -29.35 -1.45 -29.15 Q2.25 -26.2 6.3 -18.35 L6.45 -18.05 8.05 -14.95 8.45 -14.2 M17.55 -30.0 L17.55 -29.9 17.55 -30.0 M12.25 -2.85 Q7.55 -9.2 4.5 -17.0 1.8 -23.95 -1.95 -26.95 L-4.15 -28.45 -4.75 -29.0 -11.65 -28.6 -14.15 -28.4 Q-7.45 -25.0 -1.1 -13.25 1.3 -9.8 3.75 -4.05 L7.15 4.15 8.45 4.15 9.75 4.25 10.75 3.0 Q12.0 1.8 12.0 -0.6 L12.25 -2.85 M52.1 -27.9 Q51.45 -29.15 50.35 -29.9 L41.0 -30.25 41.2 -28.8 Q41.25 -26.15 41.5 -25.35 L41.5 -17.1 51.3 -17.25 51.6 -17.3 52.25 -20.05 53.0 -23.4 53.0 -24.35 Q52.85 -26.45 52.1 -27.9 M-12.5 4.6 L-8.5 4.0 4.45 4.1 Q3.9 2.85 3.3 0.9 1.15 -6.25 -2.85 -11.5 -4.8 -14.0 -8.5 -20.05 -11.9 -24.75 -16.85 -27.7 L-17.55 -28.1 -19.75 -27.85 -23.35 -27.25 Q-24.9 -26.8 -26.85 -24.75 -28.35 -23.05 -28.8 -21.45 L-29.0 -18.9 Q-29.0 -12.6 -27.85 -6.15 -26.7 0.75 -24.5 6.0 L-24.1 5.9 -16.0 5.0 -15.15 4.95 -13.85 4.8 -12.65 4.65 -12.5 4.6 M-24.2 15.0 L-24.35 15.85 -18.4 15.2 -9.05 14.55 7.55 13.9 7.55 13.7 8.7 13.8 9.15 13.8 9.1 13.75 8.95 13.0 9.1 13.0 9.05 10.55 9.0 9.75 Q8.5 8.85 8.5 7.75 L8.5 7.65 8.7 6.3 2.45 6.25 3.3 6.8 3.5 6.9 -3.05 7.0 0.2 6.3 -3.1 6.55 -3.2 6.55 -16.5 7.5 -22.1 8.1 -22.55 8.15 -24.55 8.5 -24.5 8.8 -24.8 9.05 -24.9 9.15 -24.6 10.0 -24.5 12.35 -24.55 15.0 -24.5 15.0 -24.2 15.0 M9.35 20.25 Q11.25 19.2 13.0 18.4 L12.85 18.15 Q11.95 16.75 10.8 16.5 L9.45 16.55 9.15 16.45 8.45 16.55 8.15 16.55 7.55 16.6 7.0 16.6 6.3 16.65 4.7 16.7 3.75 16.7 -15.9 17.6 -18.9 17.8 -19.4 17.8 -20.45 17.9 -20.75 17.9 -23.3 18.05 -25.3 17.85 -26.15 20.1 -27.55 23.85 -28.05 27.15 -28.05 27.5 -28.05 27.7 -28.9 31.7 -29.7 35.4 -28.3 35.15 -26.85 35.05 -25.25 34.95 -24.25 34.8 -23.85 34.55 -22.75 33.85 Q-21.15 32.75 -18.25 32.75 L-17.75 32.7 -13.95 30.95 Q-8.6 28.3 -6.1 27.2 L-5.65 27.0 -5.05 26.75 -4.7 26.6 -4.15 26.35 -1.4 25.2 Q3.85 23.3 7.4 21.3 L9.35 20.25 M10.85 22.05 L10.5 22.2 7.05 23.7 Q4.3 24.9 3.3 25.5 1.25 26.65 -3.1 28.4 L-7.2 30.05 Q-11.95 33.2 -18.5 35.25 L-21.05 36.0 -21.75 36.3 -25.4 37.15 -25.95 37.25 -27.8 37.7 Q-27.5 39.85 -27.6 43.0 -28.7 43.55 -27.35 43.55 -24.9 43.55 -19.3 41.15 L-10.55 37.5 Q5.7 32.45 16.55 22.4 L14.6 20.2 Q13.7 20.85 12.2 21.5 L10.85 22.05 M-39.35 -34.65 L-39.35 -34.6 -39.55 -34.3 -39.65 -34.15 -39.8 -34.0 -40.45 -33.35 Q-42.05 -31.9 -42.05 -29.75 L-42.1 -26.75 -42.25 -23.75 -42.15 -18.55 -41.85 -12.7 -41.5 -1.5 -41.5 3.65 Q-42.2 5.15 -41.55 7.7 L-41.05 9.3 -41.0 11.65 -40.85 18.35 Q-40.55 24.65 -40.15 26.45 L-40.15 26.55 -40.1 26.7 -40.05 26.8 Q-39.2 29.6 -36.6 31.55 -34.65 32.95 -32.25 33.25 L-31.35 30.55 -31.35 30.45 -31.1 29.85 -31.2 29.8 -31.45 29.45 -31.55 28.8 Q-31.55 27.5 -30.75 25.35 L-29.4 21.55 -28.0 17.7 -27.05 15.95 -27.05 14.7 -27.0 13.75 -27.0 8.25 -26.5 7.8 -26.3 6.85 Q-28.6 5.55 -30.0 -5.9 -30.75 -12.35 -31.0 -18.9 -31.0 -24.25 -28.4 -26.75 -25.7 -29.3 -20.5 -30.5 L-20.5 -31.1 -20.45 -31.9 -20.5 -31.9 -20.65 -33.9 Q-20.55 -35.6 -20.7 -36.2 -21.1 -37.65 -23.75 -37.55 L-35.85 -35.9 -39.25 -34.95 -39.35 -34.65 M-6.35 -27.2 L-6.1 -27.15 -6.35 -27.15 -6.35 -27.2" fill="#000000" fill-rule="evenodd" stroke="none"/>
      <path d="M28.0 -29.0 L28.5 -30.7 31.15 -30.75 39.0 -30.35 38.9 -29.85 39.0 -28.1 38.95 -21.5 Q39.1 -18.8 39.7 -17.05 L29.45 -16.55 28.7 -16.45 28.0 -17.0 27.5 -17.0 27.5 -24.85 Q27.5 -27.15 28.0 -29.0 M6.45 -18.05 L6.3 -18.35 6.45 -18.35 6.45 -18.05 M12.25 -2.85 L12.0 -0.6 Q12.0 1.8 10.75 3.0 L9.75 4.25 8.45 4.15 7.15 4.15 3.75 -4.05 Q1.3 -9.8 -1.1 -13.25 -7.45 -25.0 -14.15 -28.4 L-11.65 -28.6 -4.75 -29.0 -4.15 -28.45 -1.95 -26.95 Q1.8 -23.95 4.5 -17.0 7.55 -9.2 12.25 -2.85 M-12.6 4.15 L-12.5 4.6 -12.65 4.65 -12.6 4.15 M-3.05 7.0 L3.5 6.9 3.3 6.8 2.45 6.25 8.7 6.3 8.5 7.65 8.5 7.75 Q8.5 8.85 9.0 9.75 L9.05 10.55 9.1 13.0 8.95 13.0 9.1 13.75 9.15 13.8 8.7 13.8 7.55 13.7 7.55 13.9 -9.05 14.55 -18.4 15.2 -24.35 15.85 -24.2 15.0 -24.55 15.0 -24.5 12.35 -24.6 10.0 -24.9 9.15 -24.8 9.05 -24.5 8.8 -24.55 8.5 -22.55 8.15 -22.1 8.1 -16.5 7.5 -3.2 6.55 -3.05 7.0 M-39.35 -34.65 L-39.25 -34.95 -35.85 -35.9 -23.75 -37.55 Q-21.1 -37.65 -20.7 -36.2 -20.55 -35.6 -20.65 -33.9 L-20.5 -31.9 -20.45 -31.9 -20.5 -31.1 -20.5 -30.5 Q-25.7 -29.3 -28.4 -26.75 -31.0 -24.25 -31.0 -18.9 -30.75 -12.35 -30.0 -5.9 -28.6 5.55 -26.3 6.85 L-26.5 7.8 -27.0 8.25 -27.0 13.75 -27.05 14.7 -27.05 15.95 -28.0 17.7 -29.4 21.55 -30.75 25.35 Q-31.55 27.5 -31.55 28.8 L-31.45 29.45 -31.2 29.8 -31.1 29.85 -31.35 30.45 -31.35 30.55 -34.4 30.5 -37.5 22.8 Q-37.8 21.65 -38.5 10.25 L-39.25 -5.1 -39.15 -12.15 -38.9 -19.2 -38.45 -27.4 -38.1 -33.45 Q-38.3 -34.25 -39.35 -34.65 M-40.05 26.8 L-40.1 26.7 -40.15 26.55 -40.15 26.45 -40.05 26.8 M-6.35 -27.2 L-6.35 -27.15 -6.1 -27.15 -6.35 -27.2" fill="#221c15" fill-rule="evenodd" stroke="none"/>
      <path d="M7.2 -29.35 L7.0 -29.25 6.6 -29.35 7.2 -29.35 M10.5 22.2 L10.55 22.3 Q8.55 23.65 7.05 23.7 L10.5 22.2 M-40.15 26.45 Q-40.55 24.65 -40.85 18.35 L-41.0 11.65 -41.05 9.3 -41.55 7.7 Q-42.2 5.15 -41.5 3.65 L-41.5 -1.5 -41.85 -12.7 -42.15 -18.55 -42.25 -23.75 -42.1 -26.75 -42.05 -29.75 Q-42.05 -31.9 -40.45 -33.35 L-39.8 -34.0 -39.65 -34.15 -39.55 -34.3 -39.35 -34.6 -39.35 -34.65 Q-38.3 -34.25 -38.1 -33.45 L-38.45 -27.4 -38.9 -19.2 -39.15 -12.15 -39.25 -5.1 -38.5 10.25 Q-37.8 21.65 -37.5 22.8 L-34.4 30.5 -31.35 30.55 -32.25 33.25 Q-34.65 32.95 -36.6 31.55 -39.2 29.6 -40.05 26.8 L-40.15 26.45" fill="#372c22" fill-rule="evenodd" stroke="none"/>
      <path d="M10.85 22.05 L10.55 22.3 10.5 22.2 10.85 22.05" fill="#695441" fill-rule="evenodd" stroke="none"/>
      <path d="M8.45 16.55 L8.25 16.65 8.15 16.55 8.45 16.55" fill="#942403" fill-rule="evenodd" stroke="none"/>
      <path d="M-3.2 6.55 L-3.1 6.55 0.2 6.3 -3.05 7.0 -3.2 6.55" fill="#14100c" fill-rule="evenodd" stroke="none"/>
      <path d="M17.6 -29.4 L19.05 -29.35 21.55 -29.8 25.5 -30.55 25.5 -18.5 25.45 -15.55 Q25.4 -13.25 25.5 -12.1 L25.35 -8.7 Q25.35 -7.75 25.6 -7.0 L18.05 -8.1 17.95 -7.85 16.65 -8.5 15.75 -8.85 16.15 -9.25 15.55 -9.25 15.55 -8.95 15.4 -9.0 15.45 -9.3 16.05 -11.85 Q16.5 -13.75 16.5 -16.75 L16.15 -20.35 15.25 -25.0 Q14.0 -27.75 12.2 -29.5 L17.55 -29.5 17.6 -29.4 M10.55 22.3 L10.85 22.05 12.2 21.5 Q13.7 20.85 14.6 20.2 L16.55 22.4 Q5.7 32.45 -10.55 37.5 L-19.3 41.15 Q-24.9 43.55 -27.35 43.55 -28.7 43.55 -27.6 43.0 -27.5 39.85 -27.8 37.7 L-25.95 37.25 -25.4 37.15 -21.75 36.3 -21.05 36.0 -18.5 35.25 Q-11.95 33.2 -7.2 30.05 L-3.1 28.4 Q1.25 26.65 3.3 25.5 4.3 24.9 7.05 23.7 8.55 23.65 10.55 22.3" fill="#023f60" fill-rule="evenodd" stroke="none"/>
      <path d="M7.0 -29.25 Q7.15 -28.0 7.95 -25.85 L9.0 -22.5 9.0 -14.6 8.45 -14.2 8.05 -14.95 6.45 -18.05 6.45 -18.35 6.3 -18.35 Q2.25 -26.2 -1.45 -29.15 L6.6 -29.35 7.0 -29.25 M-16.85 -27.7 Q-11.9 -24.75 -8.5 -20.05 -4.8 -14.0 -2.85 -11.5 1.15 -6.25 3.3 0.9 3.9 2.85 4.45 4.1 L-8.5 4.0 -12.5 4.6 -12.6 4.15 -12.5 -2.0 Q-12.5 -10.7 -13.85 -18.4 -15.0 -24.85 -16.85 -27.7 M7.0 16.6 L7.0 16.65 Q7.65 18.2 8.85 19.55 L9.35 20.25 7.4 21.3 Q3.85 23.3 -1.4 25.2 L-4.15 26.35 -4.8 26.45 -5.05 26.75 -5.65 27.0 -6.15 27.05 -6.1 27.2 Q-8.6 28.3 -13.95 30.95 L-17.75 32.7 -18.25 32.75 Q-21.15 32.75 -22.75 33.85 L-23.85 34.55 -23.7 32.9 -22.9 29.05 Q-22.1 25.7 -22.1 24.65 L-21.95 23.7 Q-20.4 19.2 -20.45 18.55 L-20.45 17.9 -19.4 17.8 -18.9 17.8 -15.9 17.6 3.75 16.7 4.7 16.7 6.3 16.65 7.0 16.6" fill="#383121" fill-rule="evenodd" stroke="none"/>
      <path d="M7.2 -29.35 L8.75 -29.35 Q11.25 -29.35 13.05 -24.25 14.5 -20.05 14.5 -16.75 14.5 -15.5 13.55 -10.75 L12.65 -6.3 10.1 -11.2 8.45 -14.2 9.0 -14.6 9.0 -22.5 7.95 -25.85 Q7.15 -28.0 7.0 -29.25 L7.2 -29.35 M-16.85 -27.7 Q-15.0 -24.85 -13.85 -18.4 -12.5 -10.7 -12.5 -2.0 L-12.6 4.15 -12.65 4.65 -13.85 4.8 -15.15 4.95 -16.0 5.0 -24.1 5.9 -24.5 6.0 Q-26.7 0.75 -27.85 -6.15 -29.0 -12.6 -29.0 -18.9 L-28.8 -21.45 Q-28.35 -23.05 -26.85 -24.75 -24.9 -26.8 -23.35 -27.25 L-19.75 -27.85 -17.55 -28.1 -16.85 -27.7 M9.35 20.25 L8.85 19.55 Q7.65 18.2 7.0 16.65 L7.0 16.6 7.55 16.6 8.15 16.55 8.25 16.65 8.45 16.55 9.15 16.45 9.45 16.55 10.8 16.5 Q11.95 16.75 12.85 18.15 L13.0 18.4 Q11.25 19.2 9.35 20.25 M-20.45 17.9 L-20.45 18.55 Q-20.4 19.2 -21.95 23.7 L-22.1 24.65 Q-22.1 25.7 -22.9 29.05 L-23.7 32.9 -23.85 34.55 -24.25 34.8 -25.25 34.95 -26.85 35.05 -28.3 35.15 -29.7 35.4 -28.9 31.7 -28.05 27.7 -28.05 27.5 -28.05 27.15 -27.55 23.85 -26.15 20.1 -25.3 17.85 -23.3 18.05 -20.75 17.9 -20.45 17.9" fill="#746645" fill-rule="evenodd" stroke="none"/>
      <path d="M52.1 -27.9 L52.75 -25.15 53.0 -24.35 53.0 -23.4 52.25 -20.05 51.6 -17.3 51.3 -17.25 41.5 -17.1 41.5 -25.35 Q41.25 -26.15 41.2 -28.8 L41.0 -30.25 50.35 -29.9 Q51.45 -29.15 52.1 -27.9" fill="#cdac98" fill-rule="evenodd" stroke="none"/>
    </g>
    <g id="shape3" transform="matrix(1.0, 0.0, 0.0, 1.0, 34.7, 53.8)">
      <path d="M7.05 -49.9 L8.75 -45.65 8.75 -43.35 8.35 -43.05 8.35 -42.95 Q14.0 -37.95 18.75 -31.5 22.85 -27.5 26.25 -22.45 29.15 -18.1 30.8 -14.15 L30.95 -14.15 Q31.65 -12.4 31.9 -10.4 L32.7 -0.25 32.6 0.35 32.95 0.65 32.85 0.8 32.55 1.1 32.45 1.45 32.2 1.75 30.7 1.75 30.7 2.7 30.65 3.75 30.7 4.3 30.6 7.45 31.2 8.0 32.7 9.6 Q33.5 10.55 33.7 11.45 L34.45 15.3 34.7 18.5 Q34.7 22.7 33.5 26.85 32.2 31.45 31.5 35.4 31.95 37.6 32.25 41.75 32.25 43.0 31.25 47.35 L30.7 49.95 Q30.35 51.6 30.35 52.35 L29.55 54.7 28.25 57.5 Q27.75 58.5 26.5 59.1 L23.6 59.75 Q22.85 59.75 22.2 57.9 L21.4 55.6 Q19.75 53.35 19.0 53.4 18.15 53.45 17.3 52.5 L14.0 48.3 12.15 45.5 Q11.8 46.1 10.0 46.1 8.05 46.1 6.2 40.0 4.75 35.15 4.75 33.5 L4.6 33.15 4.25 33.5 3.15 33.8 Q1.35 33.8 -0.3 23.65 -1.45 23.2 -1.85 22.5 L-2.15 21.75 -2.35 21.75 -3.0 21.75 -3.1 21.8 -3.25 21.85 -5.55 23.0 -10.9 23.15 -15.05 22.7 -18.5 23.35 -21.95 23.95 -24.2 23.45 -25.7 22.95 -29.85 22.4 -33.7 21.75 -34.35 20.75 Q-34.7 20.1 -34.7 19.3 L-31.1 15.6 Q-27.25 11.5 -26.15 9.45 L-25.0 6.85 -23.7 4.2 Q-23.5 3.9 -23.4 1.15 L-23.2 0.4 -23.2 0.35 Q-23.2 -0.15 -22.7 -0.3 L-23.15 -2.35 -23.2 -5.75 Q-23.2 -12.75 -22.65 -14.35 L-21.95 -15.85 -22.0 -16.05 Q-22.0 -20.8 -12.1 -32.8 -5.85 -40.4 -2.15 -43.4 -2.15 -43.9 -1.65 -44.2 L-1.8 -44.75 -2.1 -47.0 Q1.25 -55.5 4.55 -53.4 5.7 -52.7 7.05 -49.9 M6.25 -44.5 L5.75 -47.0 3.3 -51.0 Q2.45 -50.25 1.55 -48.9 L0.65 -47.25 Q0.0 -45.35 0.3 -44.75 L0.4 -44.65 1.6 -44.65 6.25 -44.4 6.3 -44.4 6.25 -44.5 M4.5 -41.9 L0.05 -42.4 -2.7 -39.45 -4.0 -38.05 -5.15 -36.8 -10.1 -31.25 -11.7 -29.4 -11.85 -29.2 -12.0 -29.05 -17.7 -20.3 -18.55 -18.35 -19.25 -16.3 -19.45 -15.55 -19.75 -15.55 Q-20.25 -15.4 -20.25 -14.65 L-20.15 -13.65 -20.55 -13.3 -21.1 -10.45 -21.15 -10.05 -21.4 -4.2 -21.4 -0.55 -17.4 -0.8 -15.2 -0.8 -13.1 -0.95 -13.05 -0.95 -9.3 -1.0 -4.15 -1.05 -3.95 -0.9 -3.85 -0.65 -3.4 -0.7 Q2.8 -0.9 28.0 -0.3 L28.05 -0.3 30.1 -0.25 30.25 -0.25 30.25 -0.55 30.3 -3.65 Q30.25 -7.5 29.8 -9.85 L29.5 -11.3 29.35 -11.75 28.4 -14.35 28.7 -14.35 28.6 -14.5 25.75 -18.75 Q20.8 -26.15 18.55 -28.65 L11.05 -36.9 5.35 -41.85 5.3 -41.9 4.5 -41.9 M21.7 3.95 L21.55 2.95 21.35 2.7 Q18.2 1.85 18.2 4.05 18.2 4.8 18.35 4.95 L18.45 5.2 19.95 5.45 Q21.7 5.45 21.7 3.95 M27.6 19.1 Q27.95 16.0 28.7 14.95 29.5 15.55 29.65 16.45 L29.7 17.95 Q29.7 21.85 27.6 25.55 28.25 25.8 29.05 27.05 L30.1 28.95 31.7 23.7 Q32.7 20.6 32.7 18.45 32.45 15.2 31.5 12.7 30.2 9.2 28.15 9.25 24.1 11.4 21.5 14.9 18.7 18.7 18.7 22.25 18.7 23.05 19.45 27.3 L20.2 31.95 26.6 23.2 Q27.25 22.25 27.6 19.1 M15.65 3.5 L16.1 3.45 15.65 3.4 15.65 3.5 M15.25 11.1 L15.25 11.4 15.25 12.75 Q15.15 15.75 14.75 17.3 L14.15 19.6 16.7 20.0 16.75 18.35 Q16.95 17.6 19.2 13.7 20.7 11.1 23.0 9.5 18.8 9.9 15.5 10.95 L15.25 11.1 M6.75 22.6 Q9.1 22.45 10.3 20.5 L11.5 17.8 12.05 12.55 12.0 6.35 11.8 2.5 Q11.05 1.4 9.75 1.6 L9.35 1.7 8.3 1.6 8.3 1.55 -0.45 1.35 -0.6 1.8 -0.65 1.85 -0.35 5.9 -0.35 11.1 -0.2 17.2 Q0.05 19.2 0.75 20.6 L1.6 21.9 2.2 22.5 6.35 22.5 6.4 22.65 6.75 22.6 M16.5 23.0 L12.35 22.8 10.8 24.05 6.25 24.4 5.35 24.65 2.2 24.35 2.4 27.25 Q2.45 28.95 3.25 29.35 L5.35 29.8 6.15 31.35 6.6 33.05 Q6.6 33.6 7.9 37.8 L9.75 43.25 10.0 43.25 10.05 41.75 10.3 41.2 11.25 41.0 Q11.65 41.0 14.55 44.85 L18.0 49.8 18.05 49.9 18.3 49.55 Q18.55 49.15 19.3 49.15 21.75 49.15 23.35 54.55 L23.65 55.75 23.8 54.45 Q24.0 53.6 25.4 53.0 26.5 53.65 26.6 54.85 L26.9 54.85 27.0 54.0 Q27.0 53.4 27.45 53.2 27.85 53.0 27.85 52.35 27.85 51.75 28.35 50.05 L28.8 47.75 29.45 44.45 Q30.05 41.65 30.05 40.4 L29.85 37.7 Q28.95 36.9 28.8 35.35 L28.45 32.0 27.1 29.0 26.45 27.35 Q22.2 33.8 20.7 37.25 20.35 37.7 19.7 37.95 18.2 36.8 18.05 34.0 L17.7 29.75 Q16.85 27.15 16.75 23.3 L15.95 23.7 16.65 23.25 16.75 23.15 16.75 23.0 16.5 23.0 M-6.55 1.0 L-9.7 1.1 -15.2 1.45 -18.15 1.45 -18.2 1.45 -21.2 1.45 -21.2 2.55 Q-21.2 6.0 -24.85 11.9 L-25.65 13.15 -26.0 13.65 -26.1 13.8 -30.8 19.05 -32.2 20.0 -31.6 20.15 -31.15 20.2 -28.5 20.5 -27.1 20.65 -26.15 20.75 -25.6 20.8 -24.7 20.95 -24.35 21.45 Q-24.2 21.75 -23.45 21.75 L-18.85 21.2 -16.7 20.45 -12.5 20.65 -9.55 21.2 -6.65 20.6 -5.15 20.2 -5.25 18.5 -5.85 9.05 Q-5.4 6.35 -5.4 4.8 -5.4 2.65 -6.45 1.15 L-6.4 1.0 -6.55 1.0 M-18.55 7.6 Q-18.0 6.95 -17.45 7.0 L-17.3 6.8 Q-17.2 6.75 -17.2 7.55 -17.2 8.45 -21.15 14.2 L-25.55 20.55 -25.7 20.75 -26.15 20.75 -26.2 19.95 -26.15 19.6 Q-25.9 18.6 -24.3 16.5 L-21.65 13.0 -18.8 7.9 -18.65 7.7 -18.55 7.6 M-12.7 9.3 Q-12.7 10.65 -14.5 15.25 L-16.4 20.0 -16.7 20.25 -17.15 20.05 -17.2 19.05 Q-17.2 17.6 -15.5 13.85 -13.75 9.95 -13.65 8.0 L-12.95 8.0 -12.75 8.35 -12.7 9.3" fill="#000000" fill-rule="evenodd" stroke="none"/>
      <path d="M-18.15 1.45 L-18.2 1.55 -18.2 1.45 -18.15 1.45" fill="#4b4238" fill-rule="evenodd" stroke="none"/>
      <path d="M-2.7 -39.45 L-3.9 -38.1 -5.05 -36.75 -5.15 -36.8 -4.0 -38.05 -2.7 -39.45 M-17.7 -20.3 L-17.9 -19.9 Q-17.85 -19.45 -18.1 -18.95 L-18.55 -18.35 -17.7 -20.3 M-6.45 1.15 L-6.55 1.0 -6.4 1.0 -6.45 1.15 M-30.8 19.05 L-31.45 19.55 -31.6 20.15 -32.2 20.0 -30.8 19.05 M-27.1 20.65 L-26.15 19.6 -26.2 19.95 -26.15 20.75 -27.1 20.65" fill="#332d26" fill-rule="evenodd" stroke="none"/>
      <path d="M30.1 -0.25 L30.25 -0.55 30.25 -0.25 30.1 -0.25" fill="#5b6171" fill-rule="evenodd" stroke="none"/>
      <path d="M21.7 3.95 Q21.7 5.45 19.95 5.45 L18.45 5.2 18.35 4.95 Q18.2 4.8 18.2 4.05 18.2 1.85 21.35 2.7 L21.55 2.95 21.7 3.95" fill="#ffffff" fill-rule="evenodd" stroke="none"/>
      <path d="M27.6 19.1 Q27.25 22.25 26.6 23.2 L20.2 31.95 19.45 27.3 Q18.7 23.05 18.7 22.25 18.7 18.7 21.5 14.9 24.1 11.4 28.15 9.25 30.2 9.2 31.5 12.7 32.45 15.2 32.7 18.45 32.7 20.6 31.7 23.7 L30.1 28.95 29.05 27.05 Q28.25 25.8 27.6 25.55 29.7 21.85 29.7 17.95 L29.65 16.45 Q29.5 15.55 28.7 14.95 27.95 16.0 27.6 19.1 M18.0 49.8 L14.55 44.85 Q11.65 41.0 11.25 41.0 L10.3 41.2 10.05 41.75 10.0 43.25 9.75 43.25 7.9 37.8 Q6.6 33.6 6.6 33.05 L6.15 31.35 5.35 29.8 3.25 29.35 Q2.45 28.95 2.4 27.25 L2.2 24.35 5.35 24.65 6.25 24.4 10.8 24.05 12.35 22.8 16.5 23.0 16.65 23.25 15.95 23.7 16.75 23.3 Q16.85 27.15 17.7 29.75 L18.05 34.0 Q18.2 36.8 19.7 37.95 20.35 37.7 20.7 37.25 22.2 33.8 26.45 27.35 L27.1 29.0 28.45 32.0 28.8 35.35 Q28.95 36.9 29.85 37.7 L30.05 40.4 Q30.05 41.65 29.45 44.45 L28.8 47.75 28.35 50.05 Q27.85 51.75 27.85 52.35 27.85 53.0 27.45 53.2 27.0 53.4 27.0 54.0 L26.9 54.85 26.6 54.85 Q26.5 53.65 25.4 53.0 24.0 53.6 23.8 54.45 L23.35 54.55 Q21.75 49.15 19.3 49.15 18.55 49.15 18.3 49.55 L18.0 49.8" fill="#48463c" fill-rule="evenodd" stroke="none"/>
      <path d="M15.25 11.1 L15.5 10.95 Q18.8 9.9 23.0 9.5 20.7 11.1 19.2 13.7 16.95 17.6 16.75 18.35 L16.7 20.0 14.15 19.6 14.75 17.3 Q15.15 15.75 15.25 12.75 L15.25 11.4 15.25 11.1" fill="#cdac98" fill-rule="evenodd" stroke="none"/>
      <path d="M-3.95 -0.9 L-3.4 -0.7 -3.85 -0.65 -3.95 -0.9 M-25.55 20.55 L-24.7 20.95 -25.6 20.8 -25.7 20.75 -25.55 20.55" fill="#221f1c" fill-rule="evenodd" stroke="none"/>
      <path d="M5.35 -41.85 L4.5 -41.9 5.3 -41.9 5.35 -41.85" fill="#332e28" fill-rule="evenodd" stroke="none"/>
      <path d="M-17.4 -0.8 L-17.3 -4.2 Q-17.15 -8.65 -16.1 -11.7 -15.2 -12.55 -14.4 -14.7 L-14.05 -15.6 -13.95 -15.75 -13.55 -16.2 -13.85 -16.2 -13.0 -18.8 Q-11.15 -21.65 -5.9 -27.5 L3.0 -38.7 8.05 -33.6 Q14.7 -27.2 16.15 -25.0 L18.95 -21.4 21.55 -18.05 24.0 -14.25 Q24.05 -13.95 24.8 -13.3 27.3 -9.3 27.75 -4.0 L28.0 -0.3 Q2.8 -0.9 -3.4 -0.7 L-3.95 -0.9 -4.15 -1.05 -9.3 -1.0 -13.05 -0.95 -13.05 -1.3 -13.1 -0.95 -15.2 -0.8 -17.4 -0.8 M6.35 22.5 L2.2 22.5 1.6 21.9 0.75 20.6 Q0.05 19.2 -0.2 17.2 L-0.35 11.1 -0.35 5.9 -0.65 1.85 -0.6 1.8 -0.45 1.35 8.3 1.55 8.3 1.6 9.35 1.7 9.75 1.6 Q11.05 1.4 11.8 2.5 L12.0 6.35 12.05 12.55 11.5 17.8 10.3 20.5 Q9.1 22.45 6.75 22.6 L6.35 22.5 M-6.55 1.0 L-6.45 1.15 Q-5.4 2.65 -5.4 4.8 -5.4 6.35 -5.85 9.05 L-5.25 18.5 -5.15 20.2 -6.65 20.6 -9.55 21.2 -12.5 20.65 -16.7 20.45 -18.85 21.2 -23.45 21.75 Q-24.2 21.75 -24.35 21.45 L-24.7 20.95 -25.55 20.55 -21.15 14.2 Q-17.2 8.45 -17.2 7.55 -17.2 6.75 -17.3 6.8 L-17.45 7.0 Q-18.0 6.95 -18.55 7.6 L-18.35 6.7 Q-18.2 5.95 -18.2 1.55 L-18.15 1.45 -15.2 1.45 -9.7 1.1 -6.55 1.0 M-12.7 9.3 L-12.75 8.35 -12.95 8.0 -13.65 8.0 Q-13.75 9.95 -15.5 13.85 -17.2 17.6 -17.2 19.05 L-17.15 20.05 -16.7 20.25 -16.4 20.0 -14.5 15.25 Q-12.7 10.65 -12.7 9.3" fill="#383121" fill-rule="evenodd" stroke="none"/>
      <path d="M6.25 -44.5 L6.25 -44.4 1.6 -44.65 0.4 -44.65 0.3 -44.75 Q0.0 -45.35 0.65 -47.25 L1.55 -48.9 Q2.45 -50.25 3.3 -51.0 L5.75 -47.0 6.25 -44.5 M-2.7 -39.45 L0.05 -42.4 4.5 -41.9 5.35 -41.85 11.05 -36.9 18.55 -28.65 Q20.8 -26.15 25.75 -18.75 L28.6 -14.5 28.4 -14.35 29.35 -11.75 29.35 -11.3 29.5 -11.3 29.8 -9.85 Q30.25 -7.5 30.3 -3.65 L30.25 -0.55 30.1 -0.25 28.05 -0.3 28.0 -0.3 27.75 -4.0 Q27.3 -9.3 24.8 -13.3 24.05 -13.95 24.0 -14.25 L21.55 -18.05 18.95 -21.4 16.15 -25.0 Q14.7 -27.2 8.05 -33.6 L3.0 -38.7 -5.9 -27.5 Q-11.15 -21.65 -13.0 -18.8 L-13.85 -16.2 -13.55 -16.2 -13.95 -15.75 -14.05 -15.6 -14.4 -14.7 Q-15.2 -12.55 -16.1 -11.7 -17.15 -8.65 -17.3 -4.2 L-17.4 -0.8 -21.4 -0.55 -21.4 -4.2 -21.15 -10.05 -21.1 -10.45 -20.55 -13.3 -20.15 -13.65 -20.25 -14.65 Q-20.25 -15.4 -19.75 -15.55 L-19.45 -15.55 -19.25 -16.3 -18.55 -18.35 -18.1 -18.95 Q-17.85 -19.45 -17.9 -19.9 L-17.7 -20.3 -12.0 -29.05 -11.85 -29.2 -11.7 -29.4 -10.1 -31.25 -5.15 -36.8 -5.05 -36.75 -3.9 -38.1 -2.7 -39.45 M-18.2 1.55 Q-18.2 5.95 -18.35 6.7 L-18.55 7.6 -18.65 7.7 -18.8 7.9 -21.65 13.0 -24.3 16.5 Q-25.9 18.6 -26.15 19.6 L-27.1 20.65 -28.5 20.5 -31.15 20.2 -31.6 20.15 -31.45 19.55 -30.8 19.05 -26.1 13.8 -26.0 13.65 -25.65 13.15 -24.85 11.9 Q-21.2 6.0 -21.2 2.55 L-21.2 1.45 -18.2 1.45 -18.2 1.55" fill="#746645" fill-rule="evenodd" stroke="none"/>
    </g>
    <g id="shape4" transform="matrix(1.0, 0.0, 0.0, 1.0, 10.6, 58.2)">
      <path d="M11.3 -14.05 L7.95 -25.5 Q5.75 -32.35 1.35 -40.95 0.25 -43.0 -3.85 -48.75 L-3.85 -48.8 Q-2.75 -49.65 -2.6 -50.8 -0.9 -49.25 0.25 -47.3 L2.55 -43.25 6.5 -35.35 Q8.65 -30.7 9.8 -27.2 13.75 -15.6 14.55 -9.35 15.0 -6.1 15.0 5.25 15.0 22.8 9.7 32.8 8.1 35.75 3.05 43.3 -1.2 49.65 -4.4 55.1 -4.85 54.55 -5.9 54.1 L-3.4 49.85 0.4 44.0 4.15 37.6 8.2 31.05 Q9.8 28.55 10.85 24.7 11.9 20.3 12.65 18.0 13.15 16.35 13.3 13.5 L13.35 10.55 13.1 5.15 12.8 -3.0 12.15 -10.2 11.3 -14.05 M-4.3 -48.5 L-3.65 -47.2 -1.85 -43.15 Q-0.4 -39.95 1.3 -35.25 L3.9 -27.1 Q5.9 -19.55 6.9 -14.3 L7.6 -9.25 Q7.95 -6.0 7.95 5.35 L7.8 12.55 7.75 12.9 Q7.0 25.15 3.8 32.9 2.55 35.85 -1.4 43.4 L-6.6 53.8 -6.65 53.85 -7.2 53.7 -7.1 52.1 -7.1 51.2 -6.5 49.95 -3.5 44.1 -0.55 37.7 2.6 31.15 Q3.9 28.65 4.7 24.8 L6.1 18.1 Q6.7 15.65 6.65 10.65 L6.5 5.25 6.2 -2.9 5.75 -10.1 Q5.15 -14.3 2.4 -25.4 0.7 -32.25 -2.75 -40.85 L-5.9 -46.85 -5.7 -47.7 -4.3 -48.5 M-7.85 -50.3 Q-10.55 -55.15 -10.55 -55.6 L-10.5 -56.35 -10.6 -56.45 Q-10.6 -57.5 -10.1 -58.2 L-8.55 -57.8 Q-7.9 -57.5 -7.7 -57.0 -6.8 -56.75 -5.75 -55.25 L-3.65 -52.2 Q-4.65 -52.35 -5.75 -51.35 L-8.25 -55.05 -6.2 -51.15 Q-6.7 -51.7 -7.6 -51.7 L-7.85 -50.3 M-8.55 -55.75 L-8.65 -55.75 -8.45 -55.4 -8.55 -55.7 -8.55 -55.75 M-8.75 54.9 L-7.75 56.0 -7.65 56.1 -8.25 57.4 -7.15 57.45 -7.1 57.45 -7.15 57.15 -7.15 57.0 -7.05 56.45 -5.6 56.75 -5.35 56.75 -6.2 58.25 -6.35 58.25 -6.1 58.55 -6.3 59.3 Q-6.55 59.75 -7.35 59.75 -8.55 59.75 -9.6 58.55 L-9.6 57.5 -9.4 57.5 -9.45 57.1 -8.75 54.9" fill="#000000" fill-rule="evenodd" stroke="none"/>
      <path d="M6.9 -14.3 L11.3 -14.05 12.15 -10.2 12.8 -3.0 13.1 5.15 13.35 10.55 13.3 13.5 13.2 13.5 10.4 13.75 Q8.75 13.75 7.75 12.9 L7.8 12.55 7.95 5.35 Q7.95 -6.0 7.6 -9.25 L6.9 -14.3" fill="#221c15" fill-rule="evenodd" stroke="none"/>
      <path d="M-3.85 -48.75 Q-4.05 -48.65 -4.3 -48.5 L-5.7 -47.7 -5.9 -46.85 -6.1 -45.85 -6.6 -42.2 -6.55 -39.1 Q-6.5 -37.1 -6.6 -35.75 -7.1 -29.0 -7.1 -23.0 L-6.85 -10.45 -6.6 2.05 -6.85 28.5 -7.1 51.2 -7.1 52.1 -7.2 53.7 -6.65 53.85 -6.1 54.05 -6.05 54.05 -5.9 54.1 Q-4.85 54.55 -4.4 55.1 L-4.1 55.8 -4.45 56.45 Q-4.75 56.7 -5.35 56.75 L-5.6 56.75 -7.05 56.45 -7.65 56.1 -7.75 56.0 -8.75 54.9 -9.1 54.55 -9.1 53.5 -8.55 53.55 Q-9.2 52.15 -9.45 49.35 L-9.6 43.5 -8.6 11.25 Q-8.5 4.75 -8.75 -8.1 L-9.1 -20.5 -8.95 -36.65 Q-8.75 -44.9 -7.85 -50.3 L-7.6 -51.7 Q-6.7 -51.7 -6.2 -51.15 L-6.1 -50.95 -5.75 -51.35 Q-4.65 -52.35 -3.65 -52.2 L-2.95 -52.0 -2.7 -51.95 -2.6 -51.15 -2.6 -50.8 Q-2.75 -49.65 -3.85 -48.8 L-3.85 -48.75" fill="#cccc99" fill-rule="evenodd" stroke="none"/>
      <path d="M-3.85 -48.75 Q0.25 -43.0 1.35 -40.95 5.75 -32.35 7.95 -25.5 L11.3 -14.05 6.9 -14.3 Q5.9 -19.55 3.9 -27.1 L1.3 -35.25 Q-0.4 -39.95 -1.85 -43.15 L-3.65 -47.2 -4.3 -48.5 Q-4.05 -48.65 -3.85 -48.75 M13.3 13.5 Q13.15 16.35 12.65 18.0 11.9 20.3 10.85 24.7 9.8 28.55 8.2 31.05 L4.15 37.6 0.4 44.0 -3.4 49.85 -5.9 54.1 -6.05 54.05 -6.1 54.05 -6.6 53.8 -1.4 43.4 Q2.55 35.85 3.8 32.9 7.0 25.15 7.75 12.9 8.75 13.75 10.4 13.75 L13.2 13.5 13.3 13.5 M-5.75 -51.35 L-6.1 -50.95 -6.2 -51.15 -8.25 -55.05 -5.75 -51.35 M-7.65 56.1 L-7.05 56.45 -7.15 57.0 -7.15 57.15 -7.15 57.45 -8.25 57.4 -7.65 56.1" fill="#046193" fill-rule="evenodd" stroke="none"/>
      <path d="M-6.65 53.85 L-6.6 53.8 -6.1 54.05 -6.65 53.85" fill="#942403" fill-rule="evenodd" stroke="none"/>
    </g>
    <g id="shape5" transform="matrix(1.0, 0.0, 0.0, 1.0, 10.0, 25.15)">
      <path d="M16.3 -11.8 L15.8 -13.45 Q14.2 -19.35 12.35 -21.3 11.05 -22.65 8.8 -23.0 L4.8 -23.15 1.8 -23.05 -2.0 -21.35 -3.45 -19.95 -5.1 -18.1 Q-6.6 -16.7 -6.35 -14.6 L-5.0 -15.1 Q-2.45 -15.7 0.5 -15.1 L8.8 -14.8 Q11.0 -14.3 13.3 -12.7 14.95 -12.4 15.8 -11.7 L16.5 -11.05 16.3 -11.8 M0.55 -13.1 L-3.95 -13.1 Q-7.75 -12.25 -7.75 -7.85 -7.75 -4.5 -3.85 -2.35 -0.85 -0.75 1.15 -1.15 1.35 -5.3 1.85 -7.2 3.05 -11.75 6.6 -12.75 L0.55 -13.1 M5.5 -10.55 Q4.65 -9.55 4.15 -7.05 L5.7 -7.7 9.0 -8.4 Q11.1 -8.4 14.25 -6.7 L16.45 -5.3 16.35 -6.75 Q16.05 -7.85 14.6 -9.0 L14.2 -9.15 13.15 -9.95 Q10.8 -11.55 9.65 -11.55 L7.95 -11.25 7.4 -11.35 Q6.25 -11.45 5.5 -10.55 M6.8 -5.55 Q5.05 -4.85 3.75 -4.6 L3.35 1.05 4.8 0.45 Q8.35 -1.0 9.15 -1.0 14.15 -1.0 16.6 0.35 L16.5 -2.8 16.35 -2.8 Q12.9 -4.8 11.75 -5.25 L11.05 -5.75 Q10.5 -6.15 9.75 -6.15 8.35 -6.15 6.8 -5.55 M18.7 -6.7 Q19.8 -2.65 19.5 4.0 21.45 12.7 17.75 16.75 15.55 19.15 13.15 19.15 L10.0 19.3 Q7.65 19.2 6.0 18.25 1.05 15.3 1.05 4.0 L1.05 3.25 1.0 2.6 1.05 2.45 1.1 0.45 1.0 0.45 -0.75 0.5 Q-3.6 0.5 -6.0 -0.75 -10.0 -2.9 -10.0 -7.8 -10.0 -10.5 -9.0 -12.25 L-9.0 -12.3 Q-9.0 -20.6 -2.05 -23.7 1.4 -25.25 4.85 -25.15 11.2 -25.15 13.75 -23.2 18.85 -19.35 18.9 -6.85 L18.7 -6.7 M10.25 1.15 Q7.35 1.15 6.1 2.0 L3.3 3.5 3.3 4.2 Q3.3 11.95 4.7 14.2 6.5 17.15 13.0 17.15 15.1 17.15 16.4 14.3 18.25 10.3 16.75 2.65 L13.65 1.9 Q11.2 1.15 10.25 1.15" fill="#000000" fill-rule="evenodd" stroke="none"/>
      <path d="M6.8 -5.55 Q8.35 -6.15 9.75 -6.15 10.5 -6.15 11.05 -5.75 L11.75 -5.25 Q12.9 -4.8 16.35 -2.8 L16.5 -2.8 16.6 0.35 Q14.15 -1.0 9.15 -1.0 8.35 -1.0 4.8 0.45 L3.35 1.05 3.75 -4.6 Q5.05 -4.85 6.8 -5.55" fill="#332d26" fill-rule="evenodd" stroke="none"/>
      <path d="M5.5 -10.55 Q6.25 -11.45 7.4 -11.35 L7.95 -11.25 9.65 -11.55 Q10.8 -11.55 13.15 -9.95 L14.2 -9.15 14.6 -9.0 Q16.05 -7.85 16.35 -6.75 L16.45 -5.3 14.25 -6.7 Q11.1 -8.4 9.0 -8.4 L5.7 -7.7 4.15 -7.05 Q4.65 -9.55 5.5 -10.55 M10.25 1.15 Q11.2 1.15 13.65 1.9 L16.75 2.65 Q18.25 10.3 16.4 14.3 15.1 17.15 13.0 17.15 6.5 17.15 4.7 14.2 3.3 11.95 3.3 4.2 L3.3 3.5 6.1 2.0 Q7.35 1.15 10.25 1.15" fill="#cdac98" fill-rule="evenodd" stroke="none"/>
      <path d="M15.8 -11.7 Q14.95 -12.4 13.3 -12.7 11.0 -14.3 8.8 -14.8 L0.5 -15.1 Q-2.45 -15.7 -5.0 -15.1 L-6.35 -14.6 Q-6.6 -16.7 -5.1 -18.1 L-3.45 -19.95 -2.0 -21.35 1.8 -23.05 4.8 -23.15 8.8 -23.0 Q11.05 -22.65 12.35 -21.3 14.2 -19.35 15.8 -13.45 L16.3 -11.8 15.8 -11.7" fill="#046193" fill-rule="evenodd" stroke="none"/>
      <path d="M0.55 -13.1 L6.6 -12.75 Q3.05 -11.75 1.85 -7.2 1.35 -5.3 1.15 -1.15 -0.85 -0.75 -3.85 -2.35 -7.75 -4.5 -7.75 -7.85 -7.75 -12.25 -3.95 -13.1 L0.55 -13.1" fill="#035078" fill-rule="evenodd" stroke="none"/>
    </g>
  </defs>
</svg>
