<?xml version="1.0" encoding="UTF-8" standalone="no"?>
<svg xmlns:ffdec="https://www.free-decompiler.com/flash" xmlns:xlink="http://www.w3.org/1999/xlink" ffdec:objectType="frame" height="39.25px" width="34.9px" xmlns="http://www.w3.org/2000/svg">
  <g transform="matrix(1.0, 0.0, 0.0, 1.0, 1.4, 0.75)">
    <use ffdec:characterId="1003" height="39.25" transform="matrix(1.0, 0.0, 0.0, 1.0, -1.4, -0.75)" width="34.9" xlink:href="#shape0"/>
  </g>
  <defs>
    <g id="shape0" transform="matrix(1.0, 0.0, 0.0, 1.0, 1.4, 0.75)">
      <path d="M27.85 3.35 L27.9 3.35 27.9 3.45 27.85 3.35 M26.0 3.6 L25.9 3.65 25.35 3.75 23.15 4.3 22.85 4.35 Q20.3 5.05 19.55 5.65 L19.5 5.65 19.5 5.55 16.95 2.85 17.75 2.5 19.35 2.1 23.0 1.55 23.4 1.7 24.35 2.1 26.1 3.3 26.0 3.6 M16.5 31.75 L17.0 31.5 17.05 30.75 17.5 30.4 19.55 24.3 21.65 18.6 25.4 9.4 27.7 4.95 28.35 5.65 30.25 9.75 Q32.25 14.45 32.25 19.0 L32.3 20.6 32.0 22.5 30.85 24.25 30.15 25.6 30.0 25.75 Q25.9 31.45 16.6 32.05 L16.5 31.75 M15.5 4.25 L15.5 3.25 18.0 5.4 18.25 7.8 17.15 18.55 16.5 24.8 Q15.9 19.65 16.0 14.0 L15.75 7.5 15.5 4.25 M26.75 16.2 Q26.75 16.8 26.9 16.75 L30.75 16.75 Q31.25 16.3 31.25 15.5 L31.15 14.35 30.25 14.25 Q30.05 14.25 28.45 15.0 26.75 15.85 26.75 16.2 M22.75 35.8 Q22.5 34.85 22.5 33.25 L22.55 32.45 Q25.1 31.8 26.5 30.6 L30.45 26.75 30.5 26.75 31.5 25.65 Q30.7 28.1 29.5 29.5 L25.5 34.0 Q24.9 34.65 22.75 35.75 L22.75 35.8" fill="#333333" fill-rule="evenodd" stroke="none"/>
      <path d="M27.9 3.45 L28.05 3.55 29.4 4.85 29.2 5.2 Q30.0 6.1 30.7 7.75 L32.25 11.5 Q33.25 15.65 33.25 19.1 L33.25 21.1 33.35 21.15 33.5 21.75 Q33.5 24.0 32.5 26.6 31.45 29.15 29.85 31.0 26.6 34.75 25.4 35.5 L22.0 37.2 Q18.5 38.5 13.6 38.5 5.1 38.5 1.35 31.8 -1.25 27.1 -1.25 20.0 L-1.4 18.8 Q-1.35 18.25 -0.9 18.05 L-1.0 16.95 -1.0 16.4 Q-1.0 6.75 5.45 2.25 11.55 -2.05 21.0 -0.15 24.2 0.05 27.85 3.35 L27.9 3.45 M16.95 2.85 L19.5 5.55 19.5 5.65 19.55 5.65 Q20.3 5.05 22.85 4.35 L23.15 4.3 25.35 3.75 25.9 3.65 26.0 3.6 26.35 3.55 26.1 3.3 24.35 2.1 23.4 1.7 23.0 1.55 20.4 0.85 Q15.55 -0.15 11.05 1.0 8.3 1.7 7.0 2.65 L4.4 4.9 2.25 7.15 Q0.0 10.55 0.0 16.45 0.0 17.65 0.85 21.2 L1.85 25.0 Q3.0 27.85 3.95 28.85 6.7 31.55 12.2 32.05 L12.25 32.05 14.45 32.1 16.6 32.05 Q25.9 31.45 30.0 25.75 L30.15 25.6 30.85 24.25 32.0 22.5 32.3 20.6 32.25 19.0 Q32.25 14.45 30.25 9.75 L28.35 5.65 27.7 4.95 25.4 9.4 21.65 18.6 19.55 24.3 17.5 30.4 17.05 30.75 17.0 31.5 16.5 31.75 16.45 31.7 16.25 31.75 16.0 31.4 15.65 31.45 12.25 32.0 11.55 31.0 11.5 30.05 11.6 29.45 11.3 27.65 11.25 24.5 Q10.75 20.6 10.75 18.75 L10.5 7.05 10.5 4.25 10.6 2.05 Q10.95 1.15 12.75 1.85 12.75 0.7 14.05 1.05 14.8 1.3 15.15 1.75 16.0 2.05 16.95 2.85 M26.75 16.2 Q26.75 15.85 28.45 15.0 30.05 14.25 30.25 14.25 L31.15 14.35 31.25 15.5 Q31.25 16.3 30.75 16.75 L26.9 16.75 Q26.75 16.8 26.75 16.2 M15.5 4.25 L15.75 7.5 16.0 14.0 Q15.9 19.65 16.5 24.8 L17.15 18.55 18.25 7.8 18.0 5.4 15.5 3.25 15.5 4.25 M11.5 3.1 L11.5 11.15 11.55 15.4 11.75 19.6 Q12.5 25.6 12.5 28.05 L12.5 29.25 12.5 29.5 12.5 30.35 15.7 30.35 15.7 30.0 15.75 28.0 Q15.25 25.4 15.25 24.5 L15.0 17.15 14.5 2.75 11.5 3.1 M4.25 16.0 Q3.5 16.5 1.85 16.5 L0.75 16.35 0.75 14.85 Q1.85 14.0 2.9 14.3 L4.75 15.5 4.25 16.0 M17.05 33.2 L14.5 33.25 Q9.3 33.25 6.0 31.5 L5.3 31.1 Q2.25 29.1 0.75 25.35 L-0.05 22.85 Q0.35 25.95 1.6 29.5 2.85 32.6 3.85 33.7 L5.3 35.05 6.2 35.65 9.45 36.9 10.2 37.05 12.25 37.3 13.55 37.35 17.45 37.15 19.0 36.9 19.15 36.85 22.75 35.8 22.75 35.75 Q24.9 34.65 25.5 34.0 L29.5 29.5 Q30.7 28.1 31.5 25.65 L30.5 26.75 30.45 26.75 26.5 30.6 Q25.1 31.8 22.55 32.45 L21.65 32.65 21.45 32.7 21.3 32.75 21.2 32.75 20.95 32.8 19.15 33.05 17.05 33.2" fill="#202020" fill-rule="evenodd" stroke="none"/>
      <path d="M26.0 3.6 L26.1 3.3 26.35 3.55 26.0 3.6 M23.0 1.55 L19.35 2.1 17.75 2.5 16.95 2.85 Q16.0 2.05 15.15 1.75 14.8 1.3 14.05 1.05 12.75 0.7 12.75 1.85 10.95 1.15 10.6 2.05 L10.5 4.25 10.5 7.05 10.75 18.75 Q10.75 20.6 11.25 24.5 L11.3 27.65 11.6 29.45 11.5 30.05 11.55 31.0 12.25 32.0 15.65 31.45 16.0 31.4 16.25 31.75 16.45 31.7 16.5 31.75 16.6 32.05 14.45 32.1 12.25 32.05 12.2 32.05 Q6.7 31.55 3.95 28.85 3.0 27.85 1.85 25.0 L0.85 21.2 Q0.0 17.65 0.0 16.45 0.0 10.55 2.25 7.15 L4.4 4.9 7.0 2.65 Q8.3 1.7 11.05 1.0 15.55 -0.15 20.4 0.85 L23.0 1.55 M4.25 16.0 L4.75 15.5 2.9 14.3 Q1.85 14.0 0.75 14.85 L0.75 16.35 1.85 16.5 Q3.5 16.5 4.25 16.0 M17.05 33.2 L17.0 33.55 Q17.0 35.9 17.45 37.15 L13.55 37.35 12.25 37.3 10.2 37.05 9.45 36.9 6.2 35.65 5.3 35.05 5.25 32.65 5.3 31.1 6.0 31.5 Q9.3 33.25 14.5 33.25 L17.05 33.2" fill="#666666" fill-rule="evenodd" stroke="none"/>
      <path d="M11.5 3.1 L14.5 2.75 15.0 17.15 15.25 24.5 Q15.25 25.4 15.75 28.0 L15.7 30.0 15.7 30.35 12.5 30.35 12.5 29.5 12.5 29.25 12.5 28.05 Q12.5 25.6 11.75 19.6 L11.55 15.4 11.5 11.15 11.5 3.1 M5.3 31.1 L5.25 32.65 5.3 35.05 3.85 33.7 Q2.85 32.6 1.6 29.5 0.35 25.95 -0.05 22.85 L0.75 25.35 Q2.25 29.1 5.3 31.1" fill="#999999" fill-rule="evenodd" stroke="none"/>
      <path d="M17.45 37.15 Q17.0 35.9 17.0 33.55 L17.05 33.2 19.15 33.05 20.95 32.8 21.2 32.75 21.3 32.75 21.45 32.7 21.65 32.65 22.55 32.45 22.5 33.25 Q22.5 34.85 22.75 35.8 L19.15 36.85 19.0 36.9 17.45 37.15" fill="#515151" fill-rule="evenodd" stroke="none"/>
    </g>
  </defs>
</svg>
