<?xml version="1.0" encoding="UTF-8" standalone="no"?>
<svg xmlns:ffdec="https://www.free-decompiler.com/flash" xmlns:xlink="http://www.w3.org/1999/xlink" ffdec:objectType="frame" height="103.95px" width="124.8px" xmlns="http://www.w3.org/2000/svg">
  <g transform="matrix(1.0, 0.0, 0.0, 1.0, 54.3, 58.95)">
    <use ffdec:characterId="676" height="92.2" transform="matrix(1.0, 0.0, 0.0, 1.0, -48.7, -50.95)" width="111.0" xlink:href="#shape0"/>
  </g>
  <defs>
    <g id="shape0" transform="matrix(1.0, 0.0, 0.0, 1.0, 48.7, 50.95)">
      <path d="M11.0 -6.9 L10.55 -6.95 10.45 -7.25 Q10.45 -7.6 11.25 -7.75 12.05 -7.85 12.05 -7.35 12.05 -6.9 11.0 -6.9 M-34.3 -11.7 Q-34.3 -12.35 -33.35 -11.95 -32.45 -11.6 -32.45 -11.25 -32.45 -10.9 -32.85 -10.9 -33.7 -10.9 -34.3 -11.7 M-31.7 -5.1 L-32.9 -5.35 -32.9 -5.5 -31.7 -5.8 Q-30.55 -5.8 -30.55 -5.45 -30.55 -5.25 -30.7 -5.2 L-31.7 -5.1 M-20.7 -2.8 Q-20.0 -2.9 -20.0 -2.45 -20.0 -1.9 -20.85 -1.9 L-21.35 -1.95 -21.4 -2.25 Q-21.4 -2.65 -20.7 -2.8 M-21.15 -5.75 Q-21.15 -7.05 -18.75 -4.85 -18.75 -4.5 -19.1 -4.5 -19.6 -4.5 -20.4 -5.05 L-21.15 -5.75 M-12.0 -9.0 L-12.55 -9.4 -12.7 -9.85 -12.65 -10.15 Q-12.15 -10.15 -11.8 -9.75 L-11.55 -9.35 Q-11.55 -9.0 -12.0 -9.0 M-12.0 -0.35 L-12.05 -0.65 Q-12.05 -1.1 -10.6 -1.15 -9.15 -1.2 -9.15 -0.8 -9.15 -0.45 -9.35 -0.4 L-11.55 -0.3 -12.0 -0.35 M-19.4 1.3 L-18.35 1.2 -18.25 1.45 Q-18.25 2.1 -19.15 2.1 L-19.65 2.05 -19.75 1.75 -19.4 1.3 M-28.6 0.8 Q-28.6 1.1 -28.95 1.35 L-29.9 1.95 -30.25 1.5 -29.8 0.95 Q-29.3 0.55 -28.7 0.5 L-28.6 0.8" fill="#990000" fill-rule="evenodd" stroke="none"/>
      <path d="M13.55 -22.55 L13.25 -21.35 12.9 -19.75 Q12.95 -19.6 12.45 -19.6 L12.1 -19.65 12.0 -20.0 Q12.0 -20.85 12.35 -22.0 12.7 -23.25 13.15 -23.55 13.55 -23.25 13.55 -22.55 M15.0 -15.5 Q15.15 -15.6 15.15 -15.1 15.15 -14.8 13.8 -13.8 L12.15 -12.45 11.75 -11.0 Q11.45 -10.05 10.6 -9.8 L10.3 -9.85 10.2 -10.2 Q10.2 -11.65 11.05 -13.3 L11.85 -15.1 Q11.85 -15.6 11.95 -15.45 L12.3 -15.25 Q12.5 -15.1 12.75 -15.1 L13.3 -15.2 13.95 -15.5 15.0 -15.5 M8.9 -12.35 L9.05 -11.95 Q8.25 -10.7 7.85 -10.6 7.55 -10.8 7.5 -10.9 L7.45 -11.4 Q7.45 -12.2 7.85 -12.35 L8.9 -12.35 M9.05 -8.45 L8.65 -8.05 8.25 -8.3 8.9 -8.75 9.05 -8.45 M3.5 -6.95 L3.95 -3.7 3.65 -3.05 3.35 -2.4 Q3.35 -2.1 3.65 -1.5 L3.95 -0.55 3.45 1.05 Q2.85 2.55 2.15 2.95 L1.65 2.05 1.2 1.3 0.2 1.05 Q-0.7 0.8 -0.8 0.1 -0.85 -0.8 -1.45 -1.55 -2.3 -2.65 -3.85 -2.55 L-5.3 -2.55 -5.6 -2.6 -5.7 -3.0 -5.2 -4.1 Q-4.7 -5.0 -4.7 -5.35 L-5.1 -6.55 -3.7 -6.8 Q-2.05 -6.8 -1.9 -6.25 L-1.45 -5.75 1.1 -6.4 Q2.85 -7.05 3.5 -6.95 M14.15 -3.85 L13.75 -3.5 13.35 -3.75 Q13.6 -4.05 14.0 -4.15 L14.15 -3.85 M11.65 -1.0 L12.3 -1.4 12.4 -1.15 12.05 -0.75 11.65 -1.0 M13.55 -0.8 L13.15 -0.4 12.75 -0.65 12.75 -1.1 13.4 -1.1 13.55 -0.8 M18.4 -1.4 L18.45 -0.75 Q18.45 0.2 17.5 0.2 16.5 0.2 16.5 -0.55 16.5 -1.6 18.4 -1.4 M11.2 11.2 L10.8 11.6 10.4 11.35 11.05 10.9 11.2 11.2 M9.5 10.2 L9.85 10.6 9.5 11.0 9.1 10.75 Q9.1 10.35 9.5 10.2 M11.2 15.0 L10.8 15.35 10.4 15.15 11.05 14.7 11.2 15.0 M11.7 17.35 L11.65 16.9 Q11.65 16.25 12.4 16.3 13.15 16.3 13.15 17.05 L13.1 17.6 12.5 17.75 Q11.85 17.75 11.7 17.35 M-20.8 -6.2 L-21.2 -5.8 -21.6 -6.05 -20.95 -6.5 -20.8 -6.2 M-27.65 -9.0 Q-27.65 -8.65 -27.8 -8.55 L-28.35 -8.45 -29.05 -8.55 -29.0 -9.5 -27.7 -9.5 -27.65 -9.0 M-19.95 -21.9 Q-18.7 -22.55 -17.7 -22.2 -16.85 -21.95 -16.85 -21.35 -16.85 -20.95 -17.25 -20.8 L-19.1 -20.6 -19.95 -20.7 -19.95 -21.9 M-15.7 -4.95 Q-15.45 -5.3 -15.05 -5.4 L-14.9 -5.1 -15.3 -4.7 -15.7 -4.95 M-17.65 -4.3 L-18.05 -3.9 -18.45 -4.15 -17.8 -4.6 -17.65 -4.3 M-10.8 -4.05 L-10.8 -2.25 -10.85 -1.2 -11.2 -1.15 -12.35 -1.45 -14.9 -1.75 -15.5 -2.65 Q-15.5 -3.5 -11.3 -5.7 -10.9 -5.1 -10.8 -4.05 M-14.5 -2.8 L-14.7 -2.6 -14.5 -2.55 -14.5 -2.8 M-2.8 -9.85 L-3.15 -9.8 Q-3.95 -9.8 -4.05 -11.15 -4.05 -11.85 -3.65 -11.95 L-3.1 -11.3 -2.75 -10.4 -2.8 -9.95 -2.8 -9.85 M-3.15 -9.05 L-3.15 -9.5 -2.0 -9.35 -1.95 -9.2 Q-2.05 -8.85 -2.55 -8.85 L-3.15 -9.05 M-6.65 -4.9 L-6.8 -4.5 -7.55 -4.3 -8.45 -4.1 -9.0 -4.25 -9.8 -5.15 -9.8 -5.6 -6.8 -5.3 -6.65 -4.9 M-3.9 1.2 Q-3.7 1.55 -4.7 1.55 -5.5 1.55 -5.9 1.15 L-5.9 0.1 -4.45 0.0 -3.9 1.2 M-6.85 5.3 L-10.8 5.3 Q-11.35 4.75 -11.35 4.15 -11.35 3.55 -10.5 2.05 -9.65 0.6 -9.65 1.9 -9.65 1.75 -7.55 2.75 -5.5 3.75 -5.5 3.95 -5.5 4.35 -5.85 4.7 -6.2 5.15 -6.85 5.3 M-2.55 10.6 L-2.95 11.0 -3.35 10.75 -2.7 10.3 -2.55 10.6 M-1.3 13.05 L-1.15 13.35 -1.55 13.75 -1.95 13.5 Q-1.75 13.15 -1.3 13.05 M-3.65 14.2 L-3.3 14.6 -3.65 15.0 -4.05 14.75 Q-4.05 14.35 -3.65 14.2 M-3.15 16.05 L-2.5 15.6 -2.35 15.9 -2.75 16.3 -3.15 16.05 M-6.05 15.9 L-5.5 16.6 -5.6 17.0 -5.95 17.1 -6.4 17.0 Q-6.4 16.1 -6.05 15.9 M-10.1 21.4 L-10.6 21.3 Q-10.6 20.05 -9.1 18.8 -7.65 17.5 -7.65 19.65 -7.65 20.15 -8.75 20.8 -9.7 21.4 -10.1 21.4 M-23.7 0.7 L-23.55 1.0 -23.95 1.4 -24.35 1.15 Q-24.15 0.8 -23.7 0.7 M-24.4 3.6 L-24.65 3.75 -25.05 3.5 Q-25.05 2.85 -24.65 2.75 -24.3 2.95 -24.3 3.2 L-24.4 3.6 M-29.65 3.9 Q-30.7 6.3 -32.25 6.3 -33.3 6.3 -33.95 4.4 L-34.35 2.45 Q-34.35 -0.4 -31.6 -0.55 -28.85 -0.65 -28.85 0.65 -28.85 2.05 -29.65 3.9 M-26.35 4.2 L-26.3 5.25 -26.35 5.4 -26.7 5.5 -27.15 5.05 -27.4 4.35 -26.35 4.2" fill="#990000" fill-rule="evenodd" stroke="none"/>
      <path d="M9.75 -32.4 Q9.75 -33.0 10.15 -33.1 L11.25 -33.05 11.5 -32.4 Q11.5 -31.75 10.6 -31.75 L9.85 -31.8 9.75 -32.4 M6.5 -34.2 Q6.5 -35.35 7.25 -35.2 8.0 -35.1 8.0 -34.25 8.0 -33.35 7.25 -33.25 6.5 -33.4 6.5 -34.2 M2.9 -26.25 Q2.85 -26.0 2.25 -26.0 L1.75 -26.05 1.5 -26.25 1.5 -28.0 Q2.45 -28.7 2.8 -28.3 L3.0 -27.25 2.9 -26.25 M20.0 -20.9 Q20.0 -20.25 19.1 -20.25 L18.35 -20.3 18.25 -20.9 Q18.25 -21.95 19.75 -21.55 L20.0 -20.9 M13.25 -21.9 L13.1 -21.5 12.5 -21.25 Q11.75 -21.8 11.75 -21.9 11.75 -23.1 13.0 -22.55 L13.25 -21.9 M18.25 -0.05 Q18.5 -0.05 18.5 0.5 18.5 1.25 17.6 1.25 L16.85 1.1 Q16.75 1.15 16.75 0.55 16.75 0.0 17.15 -0.1 L18.25 -0.05 M25.25 -21.55 L25.5 -20.9 Q25.5 -20.25 24.6 -20.25 L23.85 -20.3 23.75 -20.9 Q23.75 -21.95 25.25 -21.55 M27.0 -15.35 Q27.0 -15.9 27.75 -16.1 28.5 -16.25 28.5 -15.35 L28.4 -14.75 27.75 -14.5 Q27.0 -15.05 27.0 -15.35 M22.4 -10.25 L23.5 -10.3 23.75 -9.65 23.6 -9.25 23.0 -9.0 22.25 -9.65 Q22.25 -10.05 22.4 -10.25 M20.75 -2.75 L20.0 -3.4 Q20.0 -4.65 21.25 -4.05 L21.5 -3.4 21.35 -3.0 20.75 -2.75 M29.15 -2.95 Q31.5 -2.75 31.5 -1.9 31.5 -1.45 31.2 -1.35 L29.5 -1.25 27.05 -1.6 Q26.75 -1.75 26.75 -2.15 26.75 -3.15 29.15 -2.95 M44.15 6.5 L44.25 7.0 43.95 7.6 42.85 7.75 41.6 7.6 41.5 7.05 Q41.5 6.45 41.95 6.35 42.45 6.15 44.0 6.35 L44.15 6.5 M42.4 10.25 Q43.5 10.5 43.5 11.45 43.5 12.5 42.75 12.5 L41.25 11.05 Q41.25 10.0 42.4 10.25 M40.7 15.9 Q40.5 16.5 39.6 16.5 L37.45 15.25 35.75 14.0 35.2 14.75 33.75 15.0 Q32.4 15.0 30.9 14.15 29.4 13.25 29.25 12.25 L29.5 12.15 30.1 12.0 Q30.55 12.0 31.7 12.7 32.85 13.35 33.55 13.35 L35.85 11.45 Q38.0 9.8 39.35 10.85 L40.0 11.8 40.4 12.9 Q40.75 13.65 40.75 14.7 L40.7 15.9 M43.5 24.0 L43.5 25.45 Q43.3 26.5 42.25 26.5 41.4 26.5 40.5 23.75 L39.75 20.9 39.85 20.35 Q42.55 20.05 43.25 21.75 L43.5 24.0 M41.0 30.6 Q41.0 33.25 39.0 33.25 38.15 33.25 37.25 32.05 36.5 31.1 36.5 30.8 L37.05 29.4 37.9 28.0 Q39.8 27.15 40.6 28.75 41.0 29.55 41.0 30.6 M36.9 4.0 L37.0 4.5 Q37.0 4.9 36.5 5.2 L35.35 5.5 34.6 5.35 34.5 4.8 Q34.5 4.3 34.95 3.95 L36.75 3.85 36.9 4.0 M33.0 6.05 L32.85 6.75 32.25 7.0 Q31.85 7.0 31.05 6.05 L30.25 5.0 26.75 5.2 Q24.35 5.7 23.5 4.85 23.0 4.5 23.0 3.9 L23.1 3.35 25.7 3.45 31.1 3.75 32.25 4.9 Q33.0 5.6 33.0 6.05 M32.45 1.6 L31.25 1.75 Q29.0 1.75 29.0 0.8 29.0 -0.15 30.9 0.05 32.75 0.25 32.75 1.0 L32.45 1.6 M33.65 8.75 L33.75 9.25 Q33.75 9.75 33.0 10.25 32.3 10.75 31.85 10.75 L30.85 10.6 Q30.75 10.65 30.75 10.05 30.75 9.45 31.4 9.1 L33.5 8.6 33.65 8.75 M26.2 0.6 L24.75 0.75 23.15 0.45 Q23.0 0.35 23.0 0.05 23.0 -0.7 24.75 -0.8 26.5 -0.85 26.5 0.0 26.5 0.5 26.2 0.6 M23.25 1.5 L23.1 2.0 22.5 2.25 21.75 1.55 Q21.75 0.3 23.0 0.85 23.25 0.9 23.25 1.5 M24.75 7.8 Q24.75 6.95 25.9 6.9 L29.25 6.85 29.4 7.0 29.5 7.5 Q29.5 7.95 28.7 8.35 L27.5 8.75 Q25.6 8.75 25.0 8.35 L24.75 7.8 M24.9 11.65 L26.5 12.85 26.3 13.4 Q26.15 13.75 25.75 13.75 24.6 13.75 22.8 12.5 21.0 11.3 21.0 10.65 21.0 9.75 21.6 9.75 22.2 9.75 23.1 10.75 L24.9 11.65 M22.7 20.1 Q23.35 20.0 24.1 20.6 24.5 21.35 24.75 23.0 L25.95 25.75 Q26.5 26.7 26.5 27.75 L26.45 28.7 Q26.25 29.25 25.5 29.25 24.05 29.25 23.4 27.55 22.95 26.35 23.0 25.15 L22.5 22.7 22.0 21.15 Q22.0 20.2 22.7 20.1 M27.5 19.85 Q27.5 17.4 29.65 18.05 31.75 18.75 31.75 21.2 L31.6 22.6 Q31.35 23.25 30.5 23.25 29.25 23.25 28.25 21.75 27.5 20.55 27.5 19.85 M34.75 17.85 Q35.3 17.65 37.1 17.85 L38.0 19.75 37.85 20.25 Q37.85 20.5 37.25 20.5 36.9 20.5 36.65 20.15 L36.25 19.6 Q35.75 19.1 35.1 19.05 L34.35 19.1 Q34.25 19.15 34.25 18.55 34.25 17.95 34.75 17.85 M35.15 24.1 L35.5 24.25 Q35.9 24.6 36.3 25.85 L36.75 27.85 Q36.75 29.75 35.5 29.75 L34.75 29.5 34.0 29.25 33.8 29.2 34.0 30.55 Q34.0 31.3 33.6 31.85 33.15 32.5 32.35 32.5 30.7 32.5 29.95 31.0 29.5 30.15 29.5 29.3 29.5 27.0 31.75 27.45 L32.75 27.85 32.75 26.55 Q32.75 25.3 32.9 24.8 32.35 24.4 32.0 23.55 L31.75 22.25 Q31.75 20.6 33.9 20.4 36.0 20.15 36.0 22.35 36.0 22.95 35.25 23.95 L35.15 24.1 M12.9 1.9 L12.25 2.25 11.6 1.7 11.5 1.35 Q11.5 0.8 12.25 0.6 13.0 0.45 13.0 1.3 L12.9 1.9 M12.0 3.35 Q12.75 3.2 12.75 4.05 L12.65 4.65 12.0 5.0 Q11.25 4.35 11.25 4.1 11.25 3.55 12.0 3.35 M12.0 11.2 Q12.0 12.0 11.25 12.25 10.5 11.75 10.3 10.5 L10.25 8.8 10.25 6.85 Q11.65 6.4 11.75 7.5 L12.0 11.2 M18.15 9.0 L18.25 9.5 18.1 10.0 17.5 10.25 16.75 9.55 Q16.75 8.35 18.0 8.85 L18.15 9.0 M7.25 16.35 L7.3 14.9 Q7.45 14.1 8.25 13.75 8.85 14.25 8.75 15.15 L8.75 16.5 Q8.75 17.7 10.65 19.65 12.5 21.6 12.5 24.7 L12.4 25.65 12.25 25.85 11.75 26.0 11.25 25.9 11.0 25.65 Q10.9 21.65 9.05 19.95 7.25 18.25 7.25 16.35 M8.25 21.75 Q8.8 21.6 9.4 22.25 L9.75 24.1 Q9.75 24.65 9.0 25.25 7.75 24.15 7.75 22.45 7.75 21.95 8.25 21.75 M15.35 15.0 L14.75 15.25 Q14.15 15.25 13.75 14.4 L13.5 13.5 Q13.5 11.9 14.5 12.8 15.5 13.75 15.5 14.5 L15.35 15.0 M17.9 16.1 L17.5 14.6 Q17.5 12.85 18.65 14.2 19.75 15.5 19.75 16.8 L19.65 18.15 19.5 18.35 19.0 18.5 18.5 18.4 18.25 18.15 17.9 16.1 M18.15 18.5 L18.25 19.0 17.9 20.05 17.5 21.05 Q17.5 22.5 19.4 22.9 21.25 23.35 21.25 25.65 L21.1 26.75 Q20.85 27.25 19.75 27.25 17.85 27.25 17.4 25.75 L17.25 24.1 16.8 23.35 16.25 22.6 Q16.0 22.15 16.0 21.1 L16.1 19.35 Q16.5 18.3 18.0 18.35 L18.15 18.5 M14.0 17.25 L14.5 20.5 Q14.5 22.0 13.75 22.0 12.95 22.0 12.8 20.7 L12.75 19.0 12.5 17.4 12.25 16.05 Q12.25 15.5 12.65 15.35 L13.6 15.5 14.0 17.25 M14.0 29.0 L14.0 28.4 Q14.0 27.2 14.75 27.2 15.5 27.25 15.5 28.4 15.5 29.5 14.75 29.5 14.1 29.5 14.0 29.0 M19.75 32.45 Q19.75 31.0 20.95 30.4 L22.75 30.5 23.5 32.25 23.75 33.6 Q23.75 35.25 22.25 35.25 20.5 35.25 19.95 33.8 L19.75 32.45 M33.5 36.5 Q33.5 37.5 32.6 37.5 L31.65 37.3 Q31.25 37.75 30.35 37.75 29.2 37.75 28.6 37.15 L27.75 36.25 Q27.3 35.95 27.1 35.15 L27.0 34.5 Q27.0 32.05 29.5 32.9 31.0 33.45 31.6 34.5 32.6 34.55 33.1 35.35 33.5 35.95 33.5 36.5 M37.5 34.95 Q40.0 36.3 40.0 39.65 L39.85 40.75 Q39.6 41.25 38.75 41.25 37.35 41.25 36.05 38.9 L35.0 36.5 Q35.0 33.6 37.5 34.95 M-21.35 -50.9 Q-20.25 -50.55 -20.25 -49.0 L-20.3 -48.0 Q-20.45 -47.5 -21.25 -47.5 -22.5 -47.5 -22.5 -49.55 -22.5 -51.25 -21.35 -50.9 M-9.5 -45.95 Q-9.5 -47.1 -8.2 -47.2 -7.25 -47.25 -6.75 -46.45 -5.65 -46.4 -5.35 -45.75 L-5.25 -45.05 Q-5.25 -44.2 -5.75 -43.6 L-5.9 -43.4 -5.75 -43.1 -6.25 -42.3 Q-6.25 -42.2 -5.75 -41.85 -5.25 -41.55 -5.25 -41.1 -5.25 -40.65 -5.9 -39.75 -5.25 -39.05 -5.25 -38.55 -5.25 -38.05 -5.6 -37.05 L-6.0 -35.25 -6.2 -35.1 -6.75 -35.0 -7.2 -35.05 -7.5 -35.25 -7.5 -36.8 -8.0 -36.75 Q-9.0 -36.75 -8.75 -38.35 L-8.65 -40.75 Q-8.45 -42.15 -7.75 -42.75 L-7.8 -42.8 Q-9.25 -42.95 -9.25 -43.65 L-8.9 -44.35 -9.0 -45.05 -9.5 -45.95 M-12.25 -45.0 L-11.65 -42.95 -11.25 -41.25 -11.3 -39.9 -11.5 -39.85 -11.55 -39.75 -11.7 -39.6 -12.25 -39.5 Q-13.2 -39.5 -13.8 -41.35 L-14.15 -42.85 Q-14.75 -43.15 -14.95 -43.6 L-15.25 -44.75 -15.75 -45.7 -16.25 -46.95 -16.5 -47.65 Q-16.5 -48.55 -15.45 -49.05 -14.35 -49.6 -13.5 -48.5 L-13.45 -48.25 Q-12.85 -47.85 -12.5 -46.75 L-12.25 -45.0 M-18.3 -43.4 L-18.5 -43.3 -19.0 -43.25 Q-19.65 -43.25 -19.75 -43.7 L-19.75 -44.2 Q-19.75 -45.35 -19.0 -45.2 -18.25 -45.1 -18.25 -44.25 L-18.3 -43.4 M-15.7 -37.55 L-16.0 -37.75 -16.0 -39.5 Q-14.95 -40.2 -14.65 -39.8 -14.5 -39.6 -14.5 -38.75 L-14.5 -37.75 -14.7 -37.6 -15.25 -37.5 -15.7 -37.55 M-20.1 -38.4 L-19.9 -38.15 -19.25 -36.75 -19.3 -36.15 -19.5 -36.1 -19.5 -36.0 -19.55 -35.55 -19.75 -35.35 -20.25 -35.25 Q-20.75 -35.25 -21.05 -35.75 L-21.25 -36.4 -21.05 -37.05 -21.65 -37.95 -23.25 -40.25 -24.25 -40.6 Q-25.2 -41.05 -25.25 -41.75 L-25.25 -42.0 Q-25.75 -42.0 -25.85 -42.5 L-25.8 -43.15 Q-26.85 -43.45 -27.1 -44.4 L-27.6 -44.85 -27.75 -46.4 -27.6 -47.5 Q-27.2 -48.45 -25.75 -48.0 -24.9 -47.7 -24.5 -47.0 -23.95 -47.0 -23.8 -46.35 L-23.75 -45.75 -23.25 -45.3 -22.75 -45.0 Q-22.25 -44.3 -22.5 -44.35 L-22.25 -44.25 -21.65 -43.6 -21.5 -43.15 -20.6 -41.2 -20.0 -39.0 -20.1 -38.4 M-15.15 -31.2 Q-15.75 -31.25 -15.75 -32.1 -15.75 -32.9 -14.7 -33.35 -13.6 -33.9 -12.9 -32.25 L-12.25 -31.55 -11.75 -30.65 -11.35 -29.85 -11.05 -29.35 -10.4 -28.75 -8.9 -26.6 Q-8.0 -25.05 -8.0 -24.25 L-8.05 -23.8 -8.25 -23.6 -8.75 -23.5 Q-9.15 -23.5 -10.05 -25.2 L-11.25 -27.5 -11.85 -28.25 Q-13.15 -28.3 -13.3 -29.15 L-13.4 -29.7 Q-14.2 -30.4 -14.4 -31.05 L-15.15 -31.2 M-12.5 -36.0 Q-13.15 -36.0 -13.25 -36.45 L-13.25 -36.95 Q-13.25 -38.1 -12.5 -37.95 -11.75 -37.85 -11.75 -37.0 L-11.8 -36.15 -12.0 -36.05 -12.5 -36.0 M-19.0 -34.4 Q-19.0 -33.95 -19.25 -33.85 L-19.85 -33.75 -20.55 -33.8 -20.65 -33.95 -20.75 -34.4 Q-20.75 -35.5 -19.15 -35.05 -19.0 -35.05 -19.0 -34.4 M-17.05 -27.55 Q-17.2 -27.0 -18.0 -27.0 -19.55 -27.0 -20.2 -28.6 L-20.5 -30.05 Q-20.5 -32.3 -18.45 -31.6 -16.45 -30.95 -15.05 -28.4 -10.75 -24.1 -10.75 -22.75 L-10.8 -22.3 -11.0 -22.1 -11.5 -22.0 Q-12.25 -22.0 -13.9 -25.05 L-17.0 -28.25 -17.05 -27.55 M-7.0 -32.25 Q-8.0 -32.25 -7.75 -33.3 -7.75 -34.45 -7.0 -34.45 -6.25 -34.45 -6.25 -33.3 -6.25 -32.75 -6.5 -32.3 L-7.0 -32.25 M-5.5 -27.5 L-4.7 -25.9 Q-4.25 -25.1 -4.25 -24.3 L-4.3 -23.15 -4.5 -23.05 -5.0 -23.0 Q-5.45 -23.0 -6.55 -25.95 L-7.5 -28.75 -7.3 -29.3 -6.05 -29.15 -5.5 -27.5 M-28.5 -38.05 L-29.4 -38.3 -29.65 -38.55 -29.75 -39.1 Q-29.75 -40.1 -28.9 -40.3 -27.85 -41.7 -27.05 -41.05 L-26.75 -39.85 -26.7 -39.65 -26.5 -39.15 -26.25 -38.85 -26.0 -39.1 -25.35 -39.25 Q-24.65 -39.25 -24.5 -38.05 L-24.5 -36.75 -24.5 -35.55 Q-23.85 -35.35 -23.35 -34.75 -22.75 -34.05 -22.75 -33.55 L-22.8 -33.0 -22.95 -32.85 -23.5 -32.75 Q-24.0 -32.75 -24.6 -33.35 L-25.75 -34.25 Q-26.8 -34.6 -26.95 -35.5 -27.9 -35.65 -28.15 -37.1 L-28.25 -38.0 -28.5 -38.05 M-31.3 -43.8 L-31.5 -43.6 -32.0 -43.5 Q-33.25 -43.5 -33.25 -44.6 -33.25 -45.5 -32.25 -45.35 -31.25 -45.2 -31.25 -44.25 L-31.3 -43.8 M-31.0 -36.1 Q-31.0 -37.05 -30.0 -36.75 -29.0 -36.5 -29.0 -35.9 -29.0 -35.45 -29.25 -35.35 L-30.0 -35.25 Q-30.8 -35.25 -31.0 -35.75 L-31.0 -36.1 M-25.5 -31.95 Q-23.25 -30.55 -23.25 -29.9 -23.25 -29.45 -23.5 -29.35 L-24.25 -29.25 -26.2 -30.5 -27.75 -31.65 Q-27.75 -33.35 -25.5 -31.95 M-27.2 -28.1 L-27.5 -28.85 Q-27.5 -30.15 -26.1 -29.4 -24.75 -28.7 -24.75 -28.15 -24.75 -27.5 -25.6 -27.5 -26.7 -27.5 -27.2 -28.1 M-20.85 -3.65 Q-20.0 -3.65 -20.0 -2.85 L-20.0 -2.25 -20.2 -2.1 -20.75 -2.0 Q-21.5 -2.0 -21.75 -3.05 -21.75 -3.65 -20.85 -3.65 M-13.75 -21.0 Q-14.8 -21.0 -15.6 -21.8 -16.25 -22.4 -16.25 -22.9 -16.25 -25.4 -12.75 -21.65 -12.75 -21.2 -13.0 -21.1 L-13.75 -21.0 M-17.5 -23.75 L-17.7 -23.6 -18.25 -23.5 Q-19.0 -23.5 -20.75 -26.05 -20.75 -27.7 -19.35 -26.7 -18.05 -25.75 -17.5 -24.25 L-17.5 -23.75 M-15.25 -16.0 Q-15.25 -15.25 -16.1 -15.25 -16.85 -15.25 -17.0 -15.75 L-17.0 -16.1 Q-17.0 -17.0 -16.1 -16.85 -15.25 -16.65 -15.25 -16.0 M-16.0 -9.15 L-16.05 -8.75 -16.75 -8.5 -17.5 -9.15 -17.3 -9.75 -16.15 -9.8 Q-16.0 -9.8 -16.0 -9.15 M-9.8 1.0 L-10.0 1.15 -10.5 1.25 -11.3 0.75 -11.5 0.05 Q-11.5 -0.9 -10.6 -0.65 -9.75 -0.35 -9.75 0.3 L-9.8 1.0 M-16.75 9.25 L-17.55 9.1 -17.65 9.0 -17.75 8.55 Q-17.75 7.45 -15.9 7.85 L-15.8 8.0 -15.75 8.5 Q-15.75 9.25 -16.75 9.25 M-11.05 13.75 L-11.0 14.25 -11.05 14.75 -11.75 15.0 -12.5 14.3 -12.3 13.7 -11.15 13.6 -11.05 13.75 M-3.6 14.0 L-4.3 13.85 -4.4 13.75 -4.5 13.3 Q-4.5 12.15 -2.9 12.6 L-2.8 12.75 -2.75 13.25 Q-2.75 14.0 -3.6 14.0 M-0.8 21.5 L-0.75 22.0 -0.8 22.5 -1.5 22.75 -2.25 22.05 -2.05 21.4 -0.9 21.35 -0.8 21.5" fill="#990000" fill-rule="evenodd" stroke="none"/>
      <path d="M1.25 -32.4 Q1.25 -33.0 0.85 -33.1 L-0.25 -33.05 -0.5 -32.4 Q-0.5 -31.75 0.4 -31.75 L1.15 -31.8 1.25 -32.4 M4.5 -34.2 Q4.5 -35.35 3.75 -35.2 3.0 -35.1 3.0 -34.25 3.0 -33.35 3.75 -33.25 4.5 -33.4 4.5 -34.2 M9.5 -28.0 Q8.55 -28.7 8.2 -28.3 L8.0 -27.25 8.1 -26.25 Q8.15 -26.0 8.75 -26.0 L9.25 -26.05 9.5 -26.25 9.5 -28.0 M-8.1 -20.25 L-7.35 -20.3 -7.25 -20.9 Q-7.25 -21.95 -8.75 -21.55 L-9.0 -20.9 Q-9.0 -20.25 -8.1 -20.25 M-2.1 -21.5 L-1.5 -21.25 -0.75 -21.9 Q-0.75 -23.1 -2.0 -22.55 L-2.25 -21.9 -2.1 -21.5 M-7.25 -0.05 Q-7.5 -0.05 -7.5 0.5 -7.5 1.25 -6.6 1.25 L-5.85 1.1 Q-5.75 1.15 -5.75 0.55 -5.75 0.0 -6.15 -0.1 L-7.25 -0.05 M-12.85 -20.3 L-12.75 -20.9 Q-12.75 -21.95 -14.25 -21.55 L-14.5 -20.9 Q-14.5 -20.25 -13.6 -20.25 L-12.85 -20.3 M-16.75 -16.1 Q-17.5 -16.25 -17.5 -15.35 L-17.4 -14.75 -16.75 -14.5 Q-16.0 -15.05 -16.0 -15.35 -16.0 -15.9 -16.75 -16.1 M-11.4 -10.25 L-12.5 -10.3 -12.75 -9.65 -12.6 -9.25 -12.0 -9.0 -11.25 -9.65 Q-11.25 -10.05 -11.4 -10.25 M-9.75 -2.75 L-9.0 -3.4 Q-9.0 -4.65 -10.25 -4.05 L-10.5 -3.4 -10.35 -3.0 -9.75 -2.75 M-16.05 -1.6 Q-15.75 -1.75 -15.75 -2.15 -15.75 -3.15 -18.15 -2.95 -20.5 -2.75 -20.5 -1.9 L-20.2 -1.35 -18.5 -1.25 Q-16.6 -1.25 -16.05 -1.6 M-33.25 7.0 L-32.95 7.6 -31.85 7.75 -30.6 7.6 -30.5 7.05 Q-30.5 6.45 -30.95 6.35 -31.45 6.15 -33.0 6.35 L-33.15 6.5 -33.25 7.0 M-31.4 10.25 Q-32.5 10.5 -32.5 11.45 -32.5 12.5 -31.75 12.5 L-30.25 11.05 Q-30.25 10.0 -31.4 10.25 M-32.5 24.0 L-32.5 25.45 Q-32.3 26.5 -31.25 26.5 -30.4 26.5 -29.5 23.75 L-28.75 20.9 -28.85 20.35 Q-31.55 20.05 -32.25 21.75 L-32.5 24.0 M-29.7 15.9 Q-29.5 16.5 -28.6 16.5 -28.1 16.5 -26.45 15.25 L-24.75 14.0 -24.2 14.75 -22.75 15.0 Q-21.4 15.0 -19.9 14.15 -18.4 13.25 -18.25 12.25 L-18.5 12.15 -19.1 12.0 Q-19.55 12.0 -20.7 12.7 L-22.55 13.35 -24.85 11.45 Q-27.0 9.8 -28.35 10.85 L-29.0 11.8 -29.4 12.9 Q-29.75 13.65 -29.75 14.7 L-29.7 15.9 M-30.0 30.6 Q-30.0 33.25 -28.0 33.25 -27.15 33.25 -26.25 32.05 -25.5 31.1 -25.5 30.8 L-26.05 29.4 -26.9 28.0 Q-28.8 27.15 -29.6 28.75 -30.0 29.55 -30.0 30.6 M-25.9 4.0 L-26.0 4.5 -25.5 5.2 -24.35 5.5 -23.6 5.35 -23.5 4.8 Q-23.5 4.3 -23.95 3.95 L-25.75 3.85 -25.9 4.0 M-22.0 6.05 L-21.85 6.75 Q-21.85 7.0 -21.25 7.0 L-20.05 6.05 -19.25 5.0 -15.75 5.2 Q-13.35 5.7 -12.5 4.85 -12.0 4.5 -12.0 3.9 L-12.1 3.35 -14.7 3.45 -20.1 3.75 -21.25 4.9 Q-22.0 5.6 -22.0 6.05 M-21.45 1.6 L-20.25 1.75 Q-18.0 1.75 -18.0 0.8 -18.0 -0.15 -19.9 0.05 -21.75 0.25 -21.75 1.0 L-21.45 1.6 M-22.65 8.75 L-22.75 9.25 Q-22.75 9.75 -22.0 10.25 -21.3 10.75 -20.85 10.75 L-19.85 10.6 Q-19.75 10.65 -19.75 10.05 -19.75 9.45 -20.4 9.1 L-22.5 8.6 -22.65 8.75 M-15.2 0.6 L-13.75 0.75 -12.15 0.45 Q-12.0 0.35 -12.0 0.05 -12.0 -0.7 -13.75 -0.8 -15.5 -0.85 -15.5 0.0 -15.5 0.5 -15.2 0.6 M-12.1 2.0 L-11.5 2.25 -10.75 1.55 Q-10.75 0.3 -12.0 0.85 -12.25 0.9 -12.25 1.5 L-12.1 2.0 M-10.6 9.75 Q-11.2 9.75 -12.1 10.75 L-13.9 11.65 Q-15.2 12.35 -15.5 12.85 L-15.3 13.4 Q-15.15 13.75 -14.75 13.75 -13.6 13.75 -11.8 12.5 -10.0 11.3 -10.0 10.65 -10.0 9.75 -10.6 9.75 M-13.75 7.8 Q-13.75 6.95 -14.9 6.9 L-18.25 6.85 -18.4 7.0 -18.5 7.5 Q-18.5 7.95 -17.7 8.35 L-16.5 8.75 Q-14.6 8.75 -14.0 8.35 L-13.75 7.8 M-11.7 20.1 Q-12.35 20.0 -13.1 20.6 -13.5 21.35 -13.75 23.0 L-14.95 25.75 Q-15.5 26.7 -15.5 27.75 L-15.45 28.7 Q-15.25 29.25 -14.5 29.25 -13.05 29.25 -12.4 27.55 -11.95 26.35 -12.0 25.15 L-11.5 22.7 -11.0 21.15 Q-11.0 20.2 -11.7 20.1 M-16.5 19.85 Q-16.5 17.4 -18.65 18.05 -20.75 18.75 -20.75 21.2 L-20.6 22.6 Q-20.35 23.25 -19.5 23.25 -18.25 23.25 -17.25 21.75 -16.5 20.55 -16.5 19.85 M-23.75 17.85 Q-24.3 17.65 -26.1 17.85 L-27.0 19.75 -26.85 20.25 -26.25 20.5 Q-25.9 20.5 -25.65 20.15 L-25.25 19.6 Q-24.75 19.1 -24.1 19.05 L-23.35 19.1 Q-23.25 19.15 -23.25 18.55 -23.25 17.95 -23.75 17.85 M-24.15 24.1 L-24.5 24.25 Q-24.9 24.6 -25.3 25.85 L-25.75 27.85 Q-25.75 29.75 -24.5 29.75 L-23.75 29.5 -23.0 29.25 -22.8 29.2 -23.0 30.55 Q-23.0 31.3 -22.6 31.85 -22.15 32.5 -21.35 32.5 -19.7 32.5 -18.95 31.0 -18.5 30.15 -18.5 29.3 -18.5 27.0 -20.75 27.45 L-21.75 27.85 -21.75 26.55 Q-21.75 25.3 -21.9 24.8 L-21.0 23.55 -20.75 22.25 Q-20.75 20.6 -22.9 20.4 -25.0 20.15 -25.0 22.35 -25.0 22.95 -24.25 23.95 L-24.15 24.1 M-1.9 1.9 L-1.25 2.25 -0.6 1.7 -0.5 1.35 Q-0.5 0.8 -1.25 0.6 -2.0 0.45 -2.0 1.3 L-1.9 1.9 M-1.0 3.35 Q-1.75 3.2 -1.75 4.05 L-1.65 4.65 -1.0 5.0 Q-0.25 4.35 -0.25 4.1 -0.25 3.55 -1.0 3.35 M-0.25 12.25 Q0.5 11.75 0.7 10.5 L0.75 8.8 0.75 6.85 Q-0.65 6.4 -0.75 7.5 L-1.0 11.2 Q-1.0 12.0 -0.25 12.25 M-7.25 9.5 L-7.1 10.0 -6.5 10.25 -5.75 9.55 Q-5.75 8.35 -7.0 8.85 L-7.15 9.0 -7.25 9.5 M1.6 22.25 L1.25 24.1 Q1.25 24.65 2.0 25.25 3.25 24.15 3.25 22.45 3.25 21.95 2.75 21.75 2.2 21.6 1.6 22.25 M3.7 14.9 Q3.55 14.1 2.75 13.75 2.15 14.25 2.25 15.15 L2.25 16.5 Q2.25 17.7 0.35 19.65 -1.5 21.6 -1.5 24.7 L-1.4 25.65 -1.25 25.85 -0.75 26.0 -0.25 25.9 0.0 25.65 Q0.1 21.65 1.95 19.95 3.75 18.25 3.75 16.35 L3.7 14.9 M-4.35 15.0 Q-4.35 15.25 -3.75 15.25 -3.15 15.25 -2.75 14.4 L-2.5 13.5 Q-2.5 11.9 -3.5 12.8 -4.5 13.75 -4.5 14.5 L-4.35 15.0 M-7.5 18.4 L-7.25 18.15 -6.9 16.1 -6.5 14.6 Q-6.5 12.85 -7.65 14.2 -8.75 15.5 -8.75 16.8 L-8.65 18.15 -8.5 18.35 -8.0 18.5 -7.5 18.4 M-7.15 18.5 L-7.25 19.0 -6.9 20.05 -6.5 21.05 Q-6.5 22.5 -8.4 22.9 -10.25 23.35 -10.25 25.65 L-10.1 26.75 Q-9.85 27.25 -8.75 27.25 -6.85 27.25 -6.4 25.75 L-6.25 24.1 -5.8 23.35 -5.25 22.6 Q-5.0 22.15 -5.0 21.1 L-5.1 19.35 Q-5.5 18.3 -7.0 18.35 L-7.15 18.5 M-1.25 16.05 Q-1.25 15.5 -1.65 15.35 L-2.6 15.5 -3.0 17.25 -3.5 20.5 Q-3.5 22.0 -2.75 22.0 -1.95 22.0 -1.8 20.7 L-1.75 19.0 -1.5 17.4 -1.25 16.05 M-3.0 28.4 Q-3.0 27.2 -3.75 27.2 -4.5 27.25 -4.5 28.4 -4.5 29.5 -3.75 29.5 -3.1 29.5 -3.0 29.0 L-3.0 28.4 M-8.75 32.45 Q-8.75 31.0 -9.95 30.4 L-11.75 30.5 -12.5 32.25 -12.75 33.6 Q-12.75 35.25 -11.25 35.25 -9.5 35.25 -8.95 33.8 L-8.75 32.45 M-22.1 35.35 Q-22.5 35.95 -22.5 36.5 -22.5 37.5 -21.6 37.5 L-20.65 37.3 Q-20.25 37.75 -19.35 37.75 -18.2 37.75 -17.6 37.15 L-16.75 36.25 Q-16.3 35.95 -16.1 35.15 L-16.0 34.5 Q-16.0 32.05 -18.5 32.9 -20.0 33.45 -20.6 34.5 -21.6 34.55 -22.1 35.35 M-26.5 34.95 Q-29.0 36.3 -29.0 39.65 L-28.85 40.75 Q-28.6 41.25 -27.75 41.25 -26.35 41.25 -25.05 38.9 L-24.0 36.5 Q-24.0 33.6 -26.5 34.95 M32.35 -50.9 Q31.25 -50.55 31.25 -49.0 L31.3 -48.0 Q31.45 -47.5 32.25 -47.5 33.5 -47.5 33.5 -49.55 33.5 -51.25 32.35 -50.9 M19.9 -44.35 L20.0 -45.05 20.5 -45.95 Q20.5 -47.1 19.2 -47.2 18.25 -47.25 17.75 -46.45 16.65 -46.4 16.35 -45.75 L16.25 -45.05 Q16.25 -44.2 16.75 -43.6 L16.9 -43.4 16.75 -43.1 17.25 -42.3 16.75 -41.85 Q16.25 -41.55 16.25 -41.1 16.25 -40.65 16.9 -39.75 16.25 -39.05 16.25 -38.55 16.25 -38.05 16.6 -37.05 L17.0 -35.25 17.2 -35.1 17.75 -35.0 18.2 -35.05 18.5 -35.25 18.5 -36.8 19.0 -36.75 Q20.0 -36.75 19.75 -38.35 L19.65 -40.75 Q19.45 -42.15 18.75 -42.75 L18.8 -42.8 Q20.25 -42.95 20.25 -43.65 L19.9 -44.35 M23.25 -45.0 L22.65 -42.95 22.25 -41.25 22.3 -39.9 22.5 -39.85 22.55 -39.75 22.7 -39.6 23.25 -39.5 Q24.2 -39.5 24.8 -41.35 L25.15 -42.85 Q25.75 -43.15 25.95 -43.6 L26.25 -44.75 26.75 -45.7 27.25 -46.95 27.5 -47.65 Q27.5 -48.55 26.45 -49.05 25.35 -49.6 24.5 -48.5 L24.45 -48.25 Q23.85 -47.85 23.5 -46.75 L23.25 -45.0 M29.3 -43.4 L29.5 -43.3 30.0 -43.25 Q30.65 -43.25 30.75 -43.7 L30.75 -44.2 Q30.75 -45.35 30.0 -45.2 29.25 -45.1 29.25 -44.25 L29.3 -43.4 M30.9 -38.15 L30.25 -36.75 30.3 -36.15 30.5 -36.1 30.5 -36.0 30.55 -35.55 30.75 -35.35 31.25 -35.25 Q31.75 -35.25 32.05 -35.75 L32.25 -36.4 32.05 -37.05 32.65 -37.95 34.25 -40.25 35.25 -40.6 Q36.2 -41.05 36.25 -41.75 L36.25 -42.0 Q36.75 -42.0 36.85 -42.5 L36.8 -43.15 Q37.85 -43.45 38.1 -44.4 L38.6 -44.85 38.75 -46.4 38.6 -47.5 Q38.2 -48.45 36.75 -48.0 35.9 -47.7 35.5 -47.0 34.95 -47.0 34.8 -46.35 L34.75 -45.75 34.25 -45.3 Q33.85 -45.15 33.75 -45.0 33.25 -44.3 33.5 -44.35 L33.25 -44.25 32.65 -43.6 32.5 -43.15 31.6 -41.2 31.0 -39.0 31.1 -38.4 30.9 -38.15 M27.0 -37.75 L27.0 -39.5 Q25.95 -40.2 25.65 -39.8 25.5 -39.6 25.5 -38.75 L25.5 -37.75 25.7 -37.6 26.25 -37.5 26.7 -37.55 27.0 -37.75 M26.15 -31.2 Q26.75 -31.25 26.75 -32.1 26.75 -32.9 25.7 -33.35 24.6 -33.9 23.9 -32.25 L23.25 -31.55 22.75 -30.65 22.35 -29.85 22.05 -29.35 21.4 -28.75 19.9 -26.6 Q19.0 -25.05 19.0 -24.25 L19.05 -23.8 19.25 -23.6 19.75 -23.5 Q20.15 -23.5 21.05 -25.2 L22.25 -27.5 22.85 -28.25 Q24.15 -28.3 24.3 -29.15 L24.4 -29.7 Q25.2 -30.4 25.4 -31.05 L26.15 -31.2 M23.5 -36.0 Q24.15 -36.0 24.25 -36.45 L24.25 -36.95 Q24.25 -38.1 23.5 -37.95 22.75 -37.85 22.75 -37.0 L22.8 -36.15 23.0 -36.05 23.5 -36.0 M30.0 -34.4 Q30.0 -33.95 30.25 -33.85 L30.85 -33.75 31.55 -33.8 31.65 -33.95 31.75 -34.4 Q31.75 -35.5 30.15 -35.05 30.0 -35.05 30.0 -34.4 M29.0 -27.0 Q30.55 -27.0 31.2 -28.6 L31.5 -30.05 Q31.5 -32.3 29.45 -31.6 27.45 -30.95 26.05 -28.4 21.75 -24.1 21.75 -22.75 L21.8 -22.3 22.0 -22.1 22.5 -22.0 Q23.25 -22.0 24.9 -25.05 L28.0 -28.25 28.05 -27.55 Q28.2 -27.0 29.0 -27.0 M17.5 -32.3 L18.0 -32.25 Q19.0 -32.25 18.75 -33.3 18.75 -34.45 18.0 -34.45 17.25 -34.45 17.25 -33.3 17.25 -32.75 17.5 -32.3 M18.5 -28.75 L18.3 -29.3 17.05 -29.15 16.5 -27.5 15.7 -25.9 Q15.25 -25.1 15.25 -24.3 L15.3 -23.15 15.5 -23.05 16.0 -23.0 Q16.45 -23.0 17.55 -25.95 L18.5 -28.75 M39.5 -38.05 L40.4 -38.3 40.65 -38.55 40.75 -39.1 Q40.75 -40.1 39.9 -40.3 38.85 -41.7 38.05 -41.05 L37.75 -39.85 37.7 -39.65 37.5 -39.15 37.25 -38.85 37.0 -39.1 36.35 -39.25 Q35.65 -39.25 35.5 -38.05 L35.5 -36.75 35.5 -35.55 34.35 -34.75 Q33.75 -34.05 33.75 -33.55 L33.8 -33.0 33.95 -32.85 34.5 -32.75 Q35.0 -32.75 35.6 -33.35 L36.75 -34.25 Q37.8 -34.6 37.95 -35.5 38.9 -35.65 39.15 -37.1 L39.25 -38.0 39.5 -38.05 M42.5 -43.6 L43.0 -43.5 Q44.25 -43.5 44.25 -44.6 44.25 -45.5 43.25 -45.35 42.25 -45.2 42.25 -44.25 L42.3 -43.8 42.5 -43.6 M42.0 -36.1 Q42.0 -37.05 41.0 -36.75 40.0 -36.5 40.0 -35.9 40.0 -35.45 40.25 -35.35 L41.0 -35.25 Q41.8 -35.25 42.0 -35.75 L42.0 -36.1 M36.5 -31.95 Q34.25 -30.55 34.25 -29.9 34.25 -29.45 34.5 -29.35 L35.25 -29.25 Q35.55 -29.25 37.2 -30.5 L38.75 -31.65 Q38.75 -33.35 36.5 -31.95 M38.5 -28.85 Q38.5 -30.15 37.1 -29.4 35.75 -28.7 35.75 -28.15 35.75 -27.5 36.6 -27.5 37.7 -27.5 38.2 -28.1 L38.5 -28.85 M32.75 -3.05 Q32.75 -3.65 31.85 -3.65 31.0 -3.65 31.0 -2.85 L31.0 -2.25 31.2 -2.1 31.75 -2.0 Q32.5 -2.0 32.75 -3.05 M24.75 -21.0 Q25.8 -21.0 26.6 -21.8 27.25 -22.4 27.25 -22.9 27.25 -25.4 23.75 -21.65 23.75 -21.2 24.0 -21.1 L24.75 -21.0 M28.5 -23.75 L28.7 -23.6 29.25 -23.5 Q30.0 -23.5 31.75 -26.05 31.75 -27.7 30.35 -26.7 29.05 -25.75 28.5 -24.25 L28.5 -23.75 M27.1 -15.25 Q27.85 -15.25 28.0 -15.75 L28.0 -16.1 Q28.0 -17.0 27.1 -16.85 26.25 -16.65 26.25 -16.0 26.25 -15.25 27.1 -15.25 M27.05 -8.75 L27.75 -8.5 28.5 -9.15 28.3 -9.75 27.15 -9.8 Q27.0 -9.8 27.0 -9.15 L27.05 -8.75 M21.0 1.15 L21.5 1.25 22.3 0.75 22.5 0.05 Q22.5 -0.9 21.6 -0.65 20.75 -0.35 20.75 0.3 L20.8 1.0 21.0 1.15 M27.75 9.25 L28.55 9.1 28.65 9.0 28.75 8.55 Q28.75 7.45 26.9 7.85 L26.8 8.0 26.75 8.5 Q26.75 9.25 27.75 9.25 M22.0 14.25 L22.05 14.75 22.75 15.0 23.5 14.3 23.3 13.7 22.15 13.6 22.05 13.75 22.0 14.25 M14.6 14.0 L15.3 13.85 15.4 13.75 15.5 13.3 Q15.5 12.15 13.9 12.6 L13.8 12.75 13.75 13.25 Q13.75 14.0 14.6 14.0 M11.8 22.5 L12.5 22.75 13.25 22.05 13.05 21.4 11.9 21.35 11.8 21.5 11.75 22.0 11.8 22.5" fill="#990000" fill-rule="evenodd" stroke="none"/>
      <path d="M-16.2 -22.3 Q-16.75 -22.6 -16.6 -23.0 L-16.0 -23.9 -15.35 -23.8 Q-14.8 -23.45 -15.25 -22.7 L-15.65 -22.1 -16.2 -22.3 M-19.4 -20.4 Q-20.4 -20.95 -19.9 -21.55 -19.45 -22.15 -18.7 -21.7 -17.95 -21.25 -18.2 -20.55 -18.75 -20.0 -19.4 -20.4 M-16.55 -12.95 Q-16.65 -14.1 -16.15 -14.2 L-15.15 -13.85 -14.35 -13.25 Q-14.1 -13.1 -14.4 -12.6 L-14.7 -12.15 -15.05 -12.05 -16.55 -12.95 M-1.05 -24.3 L-1.45 -23.7 -2.0 -23.9 Q-2.9 -24.4 -1.8 -25.5 L-1.15 -25.4 Q-0.6 -25.05 -1.05 -24.3 M-5.1 -19.75 L-5.2 -19.1 -6.1 -18.8 Q-7.15 -19.4 -6.1 -20.15 L-5.35 -20.05 -5.1 -19.75 M16.05 -13.45 L16.65 -13.4 Q17.3 -13.0 16.85 -12.25 L16.35 -11.7 15.85 -11.85 Q15.35 -12.15 15.45 -12.55 L16.05 -13.45 M1.3 -28.45 L0.75 -28.65 Q-0.15 -29.15 0.95 -30.25 L1.6 -30.2 Q2.15 -29.85 1.7 -29.05 L1.3 -28.45 M6.9 -29.75 Q7.15 -30.45 7.9 -30.0 L8.4 -29.6 8.3 -28.95 Q7.4 -28.55 7.15 -28.7 6.7 -29.0 6.9 -29.75 M9.25 -22.15 Q9.05 -22.65 9.8 -23.15 L10.5 -23.0 10.75 -22.7 10.65 -22.05 9.75 -21.7 9.25 -22.15 M14.95 -16.95 L14.0 -16.65 Q12.9 -17.25 14.1 -18.05 L14.75 -17.95 15.05 -17.65 14.95 -16.95 M19.1 -21.9 L18.5 -21.85 Q17.6 -22.35 19.0 -24.35 20.3 -26.3 21.05 -25.9 L21.4 -25.3 20.6 -23.8 Q19.65 -22.15 19.1 -21.9 M35.15 -32.45 L35.55 -31.9 35.1 -30.85 34.35 -29.9 33.8 -30.05 Q33.3 -30.35 33.45 -30.8 L34.45 -32.55 34.7 -32.65 35.15 -32.45 M37.05 -29.2 Q37.8 -30.05 38.6 -29.55 39.55 -29.05 39.2 -28.4 L37.15 -27.8 Q36.25 -28.35 37.05 -29.2 M49.5 -23.3 L50.75 -22.55 Q51.55 -21.9 51.05 -21.0 L47.75 -20.8 44.95 -21.6 44.5 -21.95 Q45.6 -24.45 47.45 -24.2 L49.5 -23.3 M41.05 -24.95 Q41.5 -24.45 41.05 -23.7 40.8 -23.25 38.9 -22.45 L36.95 -21.6 37.3 -20.75 36.85 -19.4 Q36.15 -18.2 34.65 -17.3 33.1 -16.45 32.2 -16.85 L32.2 -17.1 32.4 -17.7 33.8 -18.75 Q34.95 -19.4 35.3 -20.0 35.45 -20.25 34.8 -22.95 34.45 -25.65 36.05 -26.3 L37.15 -26.4 38.3 -26.2 Q39.15 -26.1 40.1 -25.6 L41.05 -24.95 M53.95 -17.85 Q56.25 -16.5 55.25 -14.8 54.85 -14.05 53.35 -13.85 52.15 -13.7 51.85 -13.85 L50.95 -15.05 50.15 -16.45 Q50.35 -18.5 52.15 -18.4 L53.95 -17.85 M28.85 -27.6 L29.35 -27.45 Q29.7 -27.25 29.7 -26.65 L29.4 -25.5 28.9 -24.9 Q28.9 -24.85 28.35 -25.15 27.9 -25.4 27.85 -25.9 27.8 -26.7 28.7 -27.55 L28.85 -27.6 M28.7 -23.2 L29.25 -22.7 Q29.45 -22.6 29.15 -22.1 28.95 -21.75 27.75 -21.5 L26.45 -21.35 Q25.7 -20.75 24.85 -18.2 24.1 -15.9 22.9 -15.55 L21.85 -15.6 21.4 -15.95 22.8 -18.15 25.75 -22.7 27.35 -23.15 28.7 -23.2 M24.6 -24.95 L24.1 -23.8 Q22.95 -21.85 22.15 -22.35 21.3 -22.8 22.45 -24.35 23.55 -25.85 24.2 -25.5 L24.6 -24.95 M31.4 -22.4 L31.85 -22.25 Q32.3 -22.0 32.35 -21.1 L32.2 -19.85 31.6 -19.05 Q31.55 -18.95 31.05 -19.25 30.55 -19.55 30.55 -20.3 L31.15 -22.35 31.4 -22.4 M20.55 -20.05 L20.0 -18.7 Q19.35 -17.6 18.95 -17.45 L18.5 -17.5 Q17.85 -17.9 18.65 -19.5 19.45 -21.0 20.2 -20.6 L20.55 -20.05 M20.25 -16.65 L20.15 -16.0 19.2 -15.7 Q18.1 -16.35 19.2 -17.1 L19.9 -17.05 20.25 -16.65 M26.2 -11.45 Q26.5 -12.0 27.8 -12.25 L29.5 -13.35 Q30.75 -14.15 31.35 -14.15 L31.7 -13.75 Q31.95 -13.4 31.75 -13.05 31.15 -12.05 29.2 -11.15 27.25 -10.2 26.65 -10.5 25.9 -10.95 26.2 -11.45 M26.1 -15.2 Q25.35 -15.6 25.9 -16.65 L27.55 -19.55 27.7 -19.6 28.2 -19.45 Q28.6 -19.2 28.55 -18.3 L28.3 -17.05 Q27.35 -15.4 26.7 -15.1 L26.1 -15.2 M35.7 -7.25 Q35.95 -7.85 36.85 -8.2 L39.25 -7.6 42.25 -7.2 Q43.3 -7.25 44.25 -6.7 L45.05 -6.2 Q45.45 -5.75 45.05 -5.1 44.35 -3.85 42.5 -4.1 41.25 -4.35 40.25 -4.95 39.6 -5.35 37.85 -5.8 L36.25 -6.1 Q35.45 -6.6 35.7 -7.25 M37.9 -11.5 Q35.75 -12.75 37.45 -14.3 39.1 -15.75 41.2 -14.55 L42.3 -13.7 Q42.8 -13.15 42.35 -12.4 41.75 -11.35 39.95 -11.2 L37.9 -11.5 M39.8 -18.8 Q39.9 -19.35 40.95 -20.85 L43.05 -20.65 43.45 -20.3 Q43.65 -20.2 43.35 -19.65 43.15 -19.35 42.75 -19.3 L42.05 -19.25 Q41.4 -19.05 41.0 -18.5 L40.7 -17.85 Q40.7 -17.7 40.15 -18.0 39.65 -18.3 39.8 -18.8 M45.4 -16.05 L45.7 -16.25 47.5 -16.15 Q48.8 -15.95 49.45 -15.55 51.1 -14.6 50.45 -13.5 L49.9 -13.0 49.3 -12.45 49.15 -12.3 50.4 -11.8 51.35 -10.8 Q51.7 -10.1 51.3 -9.4 50.45 -8.0 48.8 -8.1 47.8 -8.1 47.05 -8.55 45.1 -9.7 46.6 -11.4 L47.45 -12.05 46.35 -12.7 44.9 -13.75 43.35 -13.55 42.1 -14.0 Q40.7 -14.85 41.55 -16.8 42.4 -18.75 44.3 -17.65 L45.35 -16.2 45.4 -16.05 M15.05 -7.85 L15.05 -7.1 14.2 -6.85 13.85 -6.9 Q13.4 -7.2 13.6 -7.95 13.85 -8.65 14.6 -8.25 L15.05 -7.85 M15.85 -6.35 Q16.1 -7.1 16.85 -6.65 L17.35 -6.25 17.3 -5.55 16.15 -5.35 Q15.65 -5.6 15.85 -6.35 M23.2 -1.25 L21.2 -1.3 19.7 -2.15 18.05 -3.1 Q18.35 -4.55 19.35 -4.1 20.35 -3.5 22.65 -2.45 23.35 -2.05 23.2 -1.25 M24.35 -8.7 L24.65 -8.35 24.6 -7.65 23.6 -7.35 Q22.6 -7.95 23.6 -8.8 L23.85 -8.85 24.35 -8.7 M30.9 5.35 L32.7 5.95 Q33.2 6.25 33.3 7.2 31.75 7.75 30.3 6.9 29.85 6.65 29.95 6.1 30.05 5.55 30.9 5.35 M23.5 3.5 Q22.9 2.95 23.0 2.1 23.75 1.85 24.45 2.35 L25.65 3.0 Q26.7 3.6 29.3 3.0 31.9 2.3 34.6 3.85 L35.35 4.45 35.5 4.7 35.35 5.15 35.05 5.55 34.65 5.65 Q31.15 3.75 28.8 4.5 L24.75 4.25 23.5 3.5 M27.65 -3.45 Q27.85 -3.3 27.55 -2.75 27.25 -2.25 26.3 -2.35 L25.4 -2.6 Q24.0 -3.4 25.3 -3.8 26.6 -4.15 27.25 -3.8 L27.65 -3.45 M32.15 -4.45 L31.8 -4.35 29.85 -5.1 28.35 -5.5 Q26.85 -6.35 28.6 -6.7 30.25 -7.0 31.4 -6.35 L32.5 -5.55 32.6 -5.35 32.45 -4.85 32.15 -4.45 M32.05 -4.1 L32.55 -3.95 33.25 -3.1 33.95 -2.25 Q35.2 -1.55 36.5 -3.0 37.8 -4.35 39.8 -3.2 L40.65 -2.5 Q41.0 -2.05 40.45 -1.1 39.5 0.55 37.95 0.2 L36.45 -0.55 35.55 -0.5 34.65 -0.4 Q34.15 -0.4 33.2 -0.95 L31.75 -1.9 Q31.05 -2.8 31.85 -4.05 L32.05 -4.1 M27.0 -0.2 Q26.5 -0.5 26.6 -0.9 26.6 -1.35 27.15 -1.7 L28.9 -1.1 31.95 0.05 Q33.25 0.8 32.9 1.45 L31.3 1.6 29.8 0.8 28.25 0.2 27.0 -0.2 M38.55 4.45 Q37.5 3.85 37.9 3.2 L39.3 3.15 Q40.25 3.7 39.9 4.35 39.55 4.9 39.05 4.75 L38.55 4.45 M44.95 1.5 Q43.7 0.75 43.8 -0.6 43.85 -1.85 44.75 -2.1 L46.65 -1.85 47.95 -1.4 Q49.4 -0.55 48.65 0.75 47.75 2.25 46.2 1.95 L44.95 1.5 M54.1 -8.6 L55.3 -8.4 Q56.2 -7.9 55.75 -7.15 L55.1 -6.4 Q55.3 -5.8 54.85 -5.05 54.25 -4.05 53.4 -3.8 L52.25 -3.55 50.95 -3.5 50.35 -3.8 Q48.2 -5.0 50.2 -6.75 51.4 -7.75 52.65 -7.75 53.15 -8.6 54.1 -8.6 M55.95 -12.65 Q58.4 -14.15 61.3 -12.45 L62.2 -11.75 Q62.45 -11.3 62.05 -10.55 61.35 -9.35 58.7 -9.4 L56.05 -9.7 Q53.55 -11.15 55.95 -12.65 M-47.8 -4.6 Q-46.95 -5.35 -45.6 -4.6 L-44.75 -4.05 Q-44.4 -3.7 -44.8 -3.0 L-47.2 -2.9 Q-48.7 -3.75 -47.8 -4.6 M-35.9 -12.1 L-36.55 -12.35 -37.6 -12.35 Q-38.6 -12.95 -38.05 -14.15 -37.55 -14.95 -36.65 -15.0 -36.05 -15.95 -35.3 -15.85 L-34.65 -15.6 Q-33.95 -15.2 -33.65 -14.45 L-33.6 -14.25 -33.25 -14.2 -32.8 -13.4 -32.15 -13.55 -31.25 -13.65 Q-30.85 -13.4 -30.4 -12.4 L-29.05 -12.35 -27.95 -11.3 -26.6 -10.05 -26.55 -9.85 -26.7 -9.3 -27.0 -8.9 -27.35 -8.75 -28.65 -9.55 -28.9 -9.05 Q-29.4 -8.2 -30.6 -9.2 L-32.65 -10.5 Q-33.75 -11.4 -33.9 -12.3 L-34.0 -12.3 Q-34.85 -11.1 -35.45 -11.45 -35.85 -11.7 -35.9 -12.1 M-38.1 -9.55 L-36.05 -9.0 -34.35 -8.5 -33.25 -7.8 -33.3 -7.6 -33.2 -7.5 -33.2 -7.3 -33.35 -6.8 Q-33.85 -5.95 -35.75 -6.35 L-37.2 -6.8 Q-37.75 -6.45 -38.25 -6.5 L-39.4 -6.8 -40.5 -6.85 -41.8 -7.05 -42.55 -7.15 Q-43.35 -7.6 -43.25 -8.75 -43.15 -10.0 -41.8 -10.2 L-41.55 -10.1 -39.8 -10.15 -38.1 -9.55 M-39.8 -3.5 L-39.8 -3.3 -40.0 -2.8 Q-40.3 -2.25 -40.75 -2.4 -40.95 -2.45 -41.2 -2.65 -42.15 -3.2 -41.7 -3.8 -41.2 -4.4 -40.45 -3.95 L-39.8 -3.5 M-36.05 0.55 L-34.5 0.65 -34.0 1.0 -34.05 1.2 -34.0 1.25 -33.6 1.55 -33.5 1.8 -33.7 2.3 Q-33.95 2.7 -34.5 2.75 L-35.15 2.55 -35.65 2.1 -36.7 2.15 -39.5 2.4 -40.3 3.05 Q-41.2 3.65 -41.8 3.35 L-42.0 3.2 Q-42.25 3.65 -42.75 3.5 L-43.3 3.15 Q-44.1 3.9 -45.05 3.6 L-45.7 3.85 -47.1 3.2 -48.0 2.5 Q-48.6 1.7 -47.45 0.65 -46.8 0.05 -46.0 0.05 -45.7 -0.4 -45.1 -0.2 L-44.5 0.05 Q-44.1 0.05 -43.9 -0.15 L-43.35 -0.45 Q-42.5 -0.55 -42.7 -0.3 L-42.45 -0.5 -41.6 -0.7 -41.15 -0.6 -39.05 -0.4 -36.85 0.15 -36.35 0.55 -36.05 0.55 M-33.75 -2.65 L-35.25 -3.55 Q-35.3 -4.8 -34.8 -4.85 L-33.85 -4.45 -33.0 -3.95 -32.95 -3.7 -33.15 -3.2 -33.4 -2.8 -33.75 -2.65 M-27.6 -0.15 L-28.7 -0.05 Q-29.4 -0.45 -29.3 -1.55 -29.2 -2.8 -27.45 -2.6 L-26.45 -2.8 -25.45 -2.75 -24.55 -2.7 -23.95 -2.75 -23.15 -3.0 -20.55 -3.25 -18.05 -2.8 -17.65 -2.6 -17.6 -2.3 -17.75 -1.8 -19.85 -1.55 -22.45 -1.65 -23.4 -1.5 Q-24.1 -0.4 -24.95 -0.7 L-25.45 -0.9 -27.15 -0.7 -27.6 -0.15 M-30.5 -4.8 Q-30.8 -4.25 -31.2 -4.4 L-31.65 -4.65 Q-32.65 -5.25 -32.15 -5.75 -31.7 -6.35 -30.95 -5.95 L-30.25 -5.5 -30.25 -5.25 -30.5 -4.8 M-32.35 1.6 L-31.95 2.1 -32.2 2.7 -32.55 3.25 -32.75 3.3 -33.2 3.1 Q-34.15 2.55 -32.95 1.45 -32.9 1.3 -32.35 1.6 M-25.45 4.45 Q-26.2 5.8 -27.9 5.55 L-29.3 5.1 Q-31.25 3.95 -29.6 2.55 -28.05 1.15 -25.15 1.2 -19.25 -0.4 -18.1 0.3 -17.9 0.4 -17.75 0.55 L-17.7 0.85 -17.85 1.3 Q-18.2 1.95 -21.7 1.9 L-26.0 2.95 -25.4 3.35 Q-25.05 3.75 -25.45 4.45 M-24.25 -8.15 L-24.5 -7.7 Q-25.0 -6.8 -25.75 -7.6 -26.75 -8.15 -26.4 -8.8 L-25.0 -8.9 -24.25 -8.15 M-21.7 -5.5 L-22.05 -6.0 Q-22.15 -6.45 -21.3 -6.95 L-19.6 -6.65 -17.85 -6.55 -16.2 -6.1 -15.25 -5.5 -15.25 -5.25 -15.45 -4.8 -18.75 -4.95 -21.7 -5.5 M-40.25 8.05 L-40.9 8.65 -41.25 8.8 -41.75 8.55 Q-42.65 8.05 -42.4 7.25 -43.05 5.6 -42.1 5.3 L-40.9 5.6 -40.75 5.65 -40.2 5.75 -39.8 5.7 -39.9 5.3 -39.7 4.7 Q-39.35 4.1 -38.25 4.55 -37.15 5.15 -37.15 5.2 L-36.1 5.8 Q-35.55 5.35 -34.8 5.2 L-33.45 5.3 -33.05 5.6 -32.95 5.85 -33.15 6.35 -34.25 7.0 Q-35.2 7.25 -35.55 7.55 -36.4 8.25 -37.25 7.95 -37.85 8.7 -39.25 8.2 L-40.05 7.8 -40.25 8.05 M-46.55 7.85 L-46.7 8.3 Q-47.3 9.4 -48.25 8.85 -49.05 8.4 -48.4 7.65 -47.8 6.8 -46.95 7.3 L-46.65 7.55 -46.55 7.85 M-39.8 11.15 Q-40.65 10.7 -39.9 10.0 -39.15 9.2 -38.65 9.5 -38.25 9.75 -38.25 10.05 L-38.6 10.75 Q-39.0 11.4 -39.5 11.35 L-39.8 11.15 M-33.45 8.5 Q-31.1 7.25 -30.55 7.55 -30.15 7.8 -30.2 8.05 L-30.5 8.75 -32.55 9.8 -34.3 10.6 Q-35.8 9.75 -33.45 8.5 M-31.8 11.75 Q-32.9 11.1 -31.55 10.25 -30.25 9.45 -29.8 9.75 -29.2 10.05 -29.65 10.75 -30.2 11.7 -31.0 11.85 L-31.8 11.75 M-6.55 19.7 Q-7.05 19.4 -6.6 18.6 -6.2 17.85 -5.5 18.25 L-5.0 18.55 -4.95 18.8 -5.15 19.3 Q-5.55 19.95 -6.55 19.7 M-18.1 3.75 Q-18.65 4.65 -19.75 4.95 -20.55 5.2 -21.0 4.95 -23.15 3.7 -18.15 2.6 -17.75 2.8 -17.8 3.05 L-18.1 3.75 M-22.35 5.65 L-22.35 5.9 -22.5 6.4 Q-22.9 7.05 -25.95 7.3 -27.4 6.45 -25.8 5.75 -24.35 5.15 -22.8 5.4 L-22.35 5.65 M-14.3 8.7 Q-14.65 9.35 -15.2 9.2 L-15.5 9.0 Q-16.25 8.55 -15.7 7.9 -15.05 7.25 -14.5 7.55 -13.85 7.95 -14.3 8.7 M-8.65 11.9 L-8.75 12.6 -9.7 12.95 -10.15 12.5 Q-10.3 12.0 -9.6 11.45 -9.55 11.3 -8.95 11.65 L-8.65 11.9 M2.95 11.6 L2.8 12.1 Q2.55 12.55 1.95 12.55 L1.25 12.35 Q0.4 11.85 1.1 11.25 1.8 10.65 2.35 10.95 L2.9 11.35 2.95 11.6 M6.6 21.5 L6.1 22.1 5.95 22.15 5.5 22.0 Q4.55 21.45 5.8 20.05 L6.0 20.05 6.45 20.25 Q7.1 20.65 6.6 21.5 M13.8 19.05 L14.2 19.3 14.1 20.05 13.1 20.35 12.65 19.85 Q12.45 19.35 13.2 18.8 L13.35 18.8 13.8 19.05 M17.25 12.45 L16.8 13.0 Q16.75 12.95 16.65 13.05 L16.2 12.9 Q15.2 12.35 16.4 11.15 L16.6 11.15 17.05 11.4 Q17.7 11.75 17.25 12.45 M26.05 14.3 L25.9 15.05 Q25.45 15.15 24.95 15.35 L24.5 14.85 Q24.3 14.3 25.0 13.85 L25.15 13.8 25.65 14.0 26.05 14.3" fill="#990000" fill-rule="evenodd" stroke="none"/>
    </g>
  </defs>
</svg>
