<?xml version="1.0" encoding="UTF-8" standalone="no"?>
<svg xmlns:ffdec="https://www.free-decompiler.com/flash" xmlns:xlink="http://www.w3.org/1999/xlink" ffdec:objectType="frame" height="73.5px" width="78.0px" xmlns="http://www.w3.org/2000/svg">
  <g transform="matrix(1.0, 0.0, 0.0, 1.0, 39.0, 36.75)">
    <use ffdec:characterId="978" height="73.5" transform="matrix(1.0, 0.0, 0.0, 1.0, -39.0, -36.75)" width="78.0" xlink:href="#shape0"/>
  </g>
  <defs>
    <g id="shape0" transform="matrix(1.0, 0.0, 0.0, 1.0, 39.0, 36.75)">
      <path d="M25.6 -8.05 Q28.25 -7.05 31.75 -4.75 34.35 -3.05 39.0 0.75 L38.75 1.35 Q38.55 1.75 37.8 1.75 L37.4 2.05 37.5 2.25 37.5 28.05 37.15 28.3 36.95 28.5 Q35.85 29.95 22.2 31.9 1.6 34.8 -6.5 36.75 L-7.25 36.6 -7.45 36.25 -7.5 36.25 -8.0 35.6 -8.75 35.75 Q-10.05 35.75 -10.95 34.55 L-12.5 32.75 -15.35 31.3 Q-17.6 30.15 -18.0 29.55 -19.0 28.2 -23.4 26.0 -26.95 24.2 -27.0 22.55 -27.65 21.4 -27.65 19.9 L-27.5 16.55 -27.55 13.15 -27.5 10.15 -27.55 7.2 -27.5 3.5 -27.65 0.05 -27.4 -1.55 Q-27.85 -2.15 -27.95 -2.7 -34.95 -6.05 -37.4 -11.8 -39.0 -15.6 -39.0 -23.0 -39.0 -28.55 -38.3 -29.9 -36.8 -33.0 -31.8 -33.75 -31.25 -34.45 -28.9 -34.85 L-28.5 -35.25 -28.25 -34.95 -25.4 -35.3 Q-16.0 -36.0 19.5 -36.5 L19.5 -36.75 20.2 -36.5 Q20.5 -36.35 20.5 -35.55 L20.35 -34.5 20.2 -34.3 Q21.45 -30.05 21.75 -22.85 22.15 -13.85 24.0 -9.45 L23.95 -9.25 24.05 -9.25 24.2 -9.15 23.3 -9.25 22.45 -9.15 22.35 -9.25 21.65 -9.55 Q21.55 -11.1 20.45 -11.25 L18.05 -11.0 17.9 -10.7 17.9 -10.35 16.1 -11.25 Q10.7 -13.9 10.05 -14.75 7.1 -18.5 6.7 -19.65 6.5 -20.2 6.5 -23.35 L6.55 -24.05 Q6.65 -27.7 8.1 -30.05 9.45 -32.25 11.8 -33.3 6.45 -33.15 -2.5 -33.25 -18.6 -33.4 -25.05 -32.8 L-27.4 -32.6 -27.3 -31.25 -27.2 -27.1 Q-26.9 -25.8 -27.05 -23.2 L-27.05 -22.55 -27.1 -20.7 -27.05 -19.85 -27.0 -19.25 -26.9 -18.6 -26.45 -15.85 Q-25.4 -9.4 -24.15 -3.9 -20.75 -4.95 -10.95 -6.05 L-12.75 -5.6 Q-14.05 -5.3 -15.15 -3.95 L-15.9 -2.75 -23.55 -1.95 -18.25 0.95 -17.7 1.25 -14.2 3.2 -14.1 3.3 Q-10.4 5.4 -7.8 7.05 L-7.5 6.75 Q-7.05 7.1 -6.75 7.75 -3.8 6.7 11.55 4.3 L31.45 1.25 34.15 0.85 34.7 0.75 34.75 0.75 35.7 0.6 33.35 -0.8 30.55 -2.45 25.9 -5.15 25.6 -5.4 25.5 -5.45 25.6 -6.6 25.6 -8.0 25.6 -8.05 M17.8 -32.75 Q15.75 -32.25 13.0 -30.85 L11.55 -29.85 10.0 -28.6 Q8.5 -26.65 8.5 -23.35 8.5 -21.6 10.25 -19.25 L11.05 -17.35 Q11.7 -15.95 13.0 -15.25 15.3 -13.9 19.0 -12.15 L21.1 -11.05 20.65 -13.3 Q20.25 -16.05 19.8 -20.85 19.6 -22.75 19.5 -27.25 L18.95 -30.45 18.55 -32.9 17.8 -32.75 M35.0 7.75 L35.2 7.85 35.2 7.75 Q35.4 4.4 35.85 2.7 L31.05 3.5 26.65 3.85 24.35 4.3 24.85 6.05 25.0 10.3 27.75 9.5 35.0 7.75 M28.05 28.05 L28.05 28.0 28.0 26.05 Q27.75 25.0 27.85 24.15 27.95 23.5 28.3 23.1 L27.5 22.55 Q28.5 21.45 31.6 20.55 L34.9 19.85 34.9 18.0 35.0 15.0 35.1 9.7 Q33.9 10.5 31.6 11.05 27.7 11.8 26.5 12.25 L25.0 12.25 25.0 15.0 Q25.0 16.6 24.0 16.75 L14.5 17.75 12.0 17.5 11.75 13.55 9.4 14.0 -6.4 16.05 -6.4 16.1 -6.45 18.1 -6.5 21.35 -6.5 25.9 -5.6 26.0 Q-4.1 26.0 -1.1 24.9 L1.75 23.75 2.8 24.0 3.0 24.75 3.0 32.25 2.6 32.5 3.0 32.4 10.45 31.05 28.1 28.4 28.15 28.4 28.05 28.05 M22.5 5.05 L22.5 4.65 22.45 4.65 18.25 5.5 13.1 6.55 Q13.85 7.9 14.0 10.15 L14.0 15.55 Q16.45 15.5 18.5 14.75 23.0 14.5 23.0 14.05 L23.0 10.75 22.75 7.65 22.5 5.05 M34.85 21.5 L33.6 22.15 Q31.5 23.15 30.0 23.25 L30.0 28.15 35.4 27.6 Q34.8 26.65 34.8 25.25 35.1 22.7 35.0 21.75 L35.0 21.4 34.85 21.5 M-6.45 14.15 Q-4.55 13.45 -0.2 12.7 L11.5 11.2 11.5 6.85 6.3 7.8 -2.0 9.25 -6.4 9.25 -6.4 10.1 -6.5 14.05 -6.5 14.15 -6.45 14.15 M16.0 7.6 Q16.0 6.85 17.2 6.45 L19.8 6.5 19.75 7.75 19.5 9.4 Q19.5 10.1 19.9 10.55 L20.5 11.3 Q19.95 12.25 18.5 12.25 L16.5 12.0 16.25 9.7 16.0 7.6 M1.0 26.5 Q0.0 26.4 -1.95 27.3 -4.0 28.25 -5.75 28.25 L-6.55 28.25 -6.65 34.9 Q-4.7 33.95 1.85 32.65 0.85 31.75 0.9 29.85 1.15 27.55 1.0 26.5 M-34.3 -30.8 L-33.75 -31.0 Q-33.4 -31.15 -33.2 -31.45 L-34.4 -30.95 Q-36.75 -29.85 -37.0 -28.35 L-37.1 -25.65 -37.0 -23.1 Q-37.0 -15.55 -36.05 -13.4 -34.95 -10.85 -31.65 -7.95 -32.6 -10.95 -33.45 -17.9 -34.5 -26.3 -34.5 -30.65 L-34.3 -30.8 M-27.25 -8.45 L-28.45 -17.35 Q-29.5 -24.8 -29.5 -31.0 L-29.5 -32.4 -30.45 -32.3 -32.5 -31.7 -32.7 -31.65 Q-31.95 -30.0 -31.65 -27.6 L-31.6 -27.15 -31.55 -26.05 -31.5 -19.6 Q-31.45 -17.05 -30.7 -13.45 L-29.5 -7.25 -30.1 -6.65 -26.7 -4.2 -27.15 -7.95 -27.25 -8.45 M-19.5 3.05 L-24.4 0.65 -25.5 0.0 -25.5 4.4 Q-24.4 4.8 -22.8 5.75 L-17.45 9.0 -11.05 11.85 -9.1 12.85 Q-9.2 10.25 -8.75 8.7 -10.45 8.4 -14.4 6.15 L-19.5 3.05 M-8.55 24.8 L-8.5 21.5 -8.9 15.85 Q-11.8 14.7 -18.5 10.75 L-25.5 6.4 -25.5 15.55 -23.85 16.95 -21.5 19.25 -21.0 18.75 Q-20.45 19.5 -20.2 20.8 L-20.0 22.1 -20.2 25.3 -20.35 25.4 -20.3 25.45 -16.35 28.05 -14.45 29.35 -14.5 27.9 Q-14.5 22.0 -11.5 23.3 L-8.6 24.95 -8.55 25.0 -8.55 24.8 M-25.5 22.0 L-21.8 24.45 -22.0 22.25 -22.0 20.8 -22.0 20.75 -22.5 20.75 Q-24.15 20.75 -25.5 19.25 L-25.5 22.0 M-9.4 27.25 Q-10.75 25.95 -12.2 25.55 L-12.7 30.6 -8.6 33.7 -8.65 32.75 -8.5 28.8 -8.55 27.8 -9.4 27.25" fill="#333333" fill-rule="evenodd" stroke="none"/>
      <path d="M30.55 -2.45 L33.35 -0.8 35.7 0.6 34.75 0.75 33.2 -0.6 Q31.85 -1.65 30.5 -2.35 L30.55 -2.45 M-26.45 -15.85 L-26.9 -18.6 -26.75 -18.65 -26.25 -19.75 -26.1 -19.85 -27.05 -19.85 -27.1 -20.7 -27.05 -22.55 -27.05 -23.2 Q-26.9 -25.8 -27.2 -27.1 L-27.3 -31.25 -27.4 -32.6 -25.05 -32.8 Q-18.6 -33.4 -2.5 -33.25 6.45 -33.15 11.8 -33.3 9.45 -32.25 8.1 -30.05 6.65 -27.7 6.55 -24.05 L6.5 -23.35 Q6.5 -20.2 6.7 -19.65 L6.7 -19.6 -3.1 -18.55 -14.75 -18.05 -19.25 -16.7 -26.45 -15.85 M17.8 -32.75 L18.55 -32.9 18.95 -30.45 19.5 -27.25 Q19.6 -22.75 19.8 -20.85 20.25 -16.05 20.65 -13.3 L21.1 -11.05 19.0 -12.15 Q15.3 -13.9 13.0 -15.25 11.7 -15.95 11.05 -17.35 L10.25 -19.25 Q8.5 -21.6 8.5 -23.35 8.5 -26.65 10.0 -28.6 L11.55 -29.85 13.0 -30.85 Q15.75 -32.25 17.8 -32.75 M32.4 5.85 L32.8 6.6 32.15 7.3 31.25 7.65 Q30.6 7.4 30.25 7.0 L30.95 6.15 Q31.45 5.85 32.4 5.85 M25.6 7.5 L26.55 6.6 27.3 6.35 27.65 7.15 Q27.45 7.85 26.65 8.15 L25.6 7.5 M33.3 24.05 Q33.2 24.75 32.3 25.1 L31.25 24.5 Q31.75 23.75 32.2 23.5 L33.0 23.3 33.3 24.05 M3.25 10.0 L3.55 10.75 Q3.45 11.45 2.55 11.75 1.9 11.5 1.5 11.1 1.95 10.45 2.35 10.25 L3.25 10.0 M8.75 10.25 L7.65 9.55 Q8.55 8.15 9.25 8.15 10.0 8.45 10.25 9.25 L9.65 9.85 8.75 10.25 M0.5 28.15 Q0.2 28.95 -0.5 29.25 L-1.5 28.55 -0.7 27.7 0.1 27.4 0.5 28.15 M-31.65 -27.6 L-31.45 -28.0 -30.75 -28.75 Q-29.8 -28.3 -29.75 -27.25 L-30.0 -27.05 Q-30.3 -26.8 -30.75 -26.6 L-31.6 -27.15 -31.65 -27.6 M-27.15 -7.95 Q-27.45 -7.4 -28.15 -7.15 L-29.15 -7.75 Q-28.65 -8.6 -27.5 -9.0 L-27.25 -8.45 -27.15 -7.95 M-29.75 -16.9 L-30.75 -17.5 -30.45 -18.25 -29.75 -19.0 Q-28.9 -18.6 -28.65 -17.9 -28.9 -17.2 -29.75 -16.9 M-3.5 11.25 Q-3.8 11.95 -4.55 12.25 L-5.55 11.6 Q-4.95 10.7 -3.9 10.5 L-3.5 11.25 M-17.35 6.1 Q-17.6 6.8 -18.4 7.15 L-19.4 6.5 Q-18.9 5.7 -17.75 5.35 L-17.35 6.1 M-10.25 9.25 Q-10.35 9.95 -11.25 10.25 L-12.25 9.55 -11.35 8.7 -10.55 8.4 -10.25 9.25 M-23.0 3.05 Q-23.3 3.75 -24.05 4.05 L-24.45 3.9 -25.05 3.4 -25.05 2.25 -24.35 2.15 -23.4 2.25 -23.0 3.05 M-23.55 21.0 Q-22.75 21.3 -22.5 22.0 -22.8 22.75 -23.55 23.05 L-24.55 22.4 -24.25 21.65 -23.55 21.0 M-10.4 27.2 L-10.25 28.05 -11.25 28.75 -12.25 28.05 -11.35 27.15 -10.55 26.9 -10.4 27.2" fill="#3f3f3f" fill-rule="evenodd" stroke="none"/>
      <path d="M-10.95 -6.05 Q-20.75 -4.95 -24.15 -3.9 -25.4 -9.4 -26.45 -15.85 L-19.25 -16.7 -14.75 -18.05 -3.1 -18.55 6.7 -19.6 6.7 -19.65 Q7.1 -18.5 10.05 -14.75 10.7 -13.9 16.1 -11.25 L17.9 -10.35 17.9 -10.0 17.9 -9.75 17.4 -9.75 Q13.3 -9.55 13.3 -10.35 13.35 -11.25 10.25 -11.25 L7.8 -10.85 5.6 -10.35 Q5.25 -10.3 5.3 -10.55 L5.35 -11.1 Q4.85 -11.9 0.0 -11.75 -1.05 -11.5 -1.75 -10.2 L-2.5 -9.0 Q-5.1 -9.0 -7.65 -8.15 -8.45 -7.9 -8.75 -7.15 -8.95 -6.7 -10.95 -6.05 M-26.9 -18.6 L-27.0 -19.25 -27.05 -19.85 -26.1 -19.85 -26.25 -19.75 -26.75 -18.65 -26.9 -18.6" fill="#525252" fill-rule="evenodd" stroke="none"/>
      <path d="M4.05 -7.15 Q3.9 -6.1 2.5 -6.1 L1.45 -6.25 1.0 -6.75 1.0 -7.9 1.85 -8.0 3.75 -7.9 4.05 -7.15 M4.9 -3.4 L5.6 -4.05 Q6.35 -3.75 6.65 -3.05 6.35 -2.3 5.6 -2.0 5.0 -2.25 4.6 -2.65 L4.9 -3.4 M16.5 -9.25 L16.9 -8.15 16.25 -7.5 Q15.7 -7.15 15.35 -7.15 L14.35 -7.75 14.65 -8.55 Q14.95 -9.1 15.35 -9.25 L16.5 -9.25 M14.5 -3.75 Q15.2 -3.45 15.5 -2.75 L14.85 -2.15 14.0 -1.75 13.0 -2.45 Q13.8 -3.75 14.5 -3.75 M24.1 -5.1 Q23.5 -5.35 23.05 -5.75 23.65 -6.65 24.75 -6.9 L25.1 -6.1 Q24.9 -5.4 24.1 -5.1 M21.15 -2.15 L21.85 -2.05 22.5 -1.25 21.85 -0.65 Q21.35 -0.25 21.0 -0.25 L20.0 -0.95 Q20.6 -1.9 21.15 -2.15 M29.05 -1.8 L29.25 -2.2 30.0 -2.25 30.7 -2.05 Q31.0 -1.95 31.0 -1.15 31.0 0.1 30.75 -0.2 L30.0 0.25 29.25 0.0 Q29.0 -0.2 29.0 -1.0 L29.05 -1.8 M10.5 2.75 L9.5 2.05 9.75 1.4 Q10.05 0.9 10.5 0.75 11.2 1.05 11.5 1.75 L10.5 2.75 M4.25 0.4 Q4.55 -0.1 5.0 -0.25 5.7 0.05 6.0 0.75 L5.0 1.75 4.0 1.05 4.25 0.4 M-11.75 -1.1 L-10.9 -1.95 -10.05 -2.25 -9.75 -1.5 Q-9.85 -0.85 -10.75 -0.5 L-11.75 -1.1 M-4.95 -4.75 L-5.55 -5.25 Q-4.95 -6.15 -3.9 -6.35 L-3.5 -5.6 Q-3.85 -4.8 -4.55 -4.55 L-4.95 -4.75 M-2.0 3.25 Q-1.3 3.55 -1.0 4.25 -1.5 5.05 -2.0 5.25 L-3.0 4.55 -2.75 3.9 -2.0 3.25 M-6.0 0.75 Q-5.3 1.05 -5.0 1.75 -5.5 2.55 -6.0 2.75 -6.7 2.5 -7.0 2.05 L-6.75 1.4 -6.0 0.75" fill="#eddcb7" fill-rule="evenodd" stroke="none"/>
      <path d="M24.2 -9.15 Q25.3 -8.95 25.6 -8.05 L25.6 -8.0 25.6 -6.6 25.5 -5.45 25.6 -5.4 25.9 -5.15 Q26.65 -4.55 26.65 -3.65 L26.65 -3.6 Q28.55 -3.35 30.5 -2.35 31.85 -1.65 33.2 -0.6 L34.75 0.75 34.7 0.75 34.15 0.85 31.45 1.25 11.55 4.3 Q-3.8 6.7 -6.75 7.75 -7.05 7.1 -7.5 6.75 L-7.8 7.05 Q-10.4 5.4 -14.1 3.3 L-14.2 3.2 -17.7 1.25 Q-16.85 0.85 -15.5 0.4 L-16.35 -0.85 -15.9 -2.75 -15.15 -3.95 Q-14.05 -5.3 -12.75 -5.6 L-10.95 -6.05 Q-8.95 -6.7 -8.75 -7.15 -8.45 -7.9 -7.65 -8.15 -5.1 -9.0 -2.5 -9.0 L-1.75 -10.2 Q-1.05 -11.5 0.0 -11.75 4.85 -11.9 5.35 -11.1 L5.3 -10.55 Q5.25 -10.3 5.6 -10.35 L7.8 -10.85 10.25 -11.25 Q13.35 -11.25 13.3 -10.35 13.3 -9.55 17.4 -9.75 L17.9 -9.75 17.9 -10.0 17.9 -10.35 17.9 -10.7 18.05 -11.0 20.45 -11.25 Q21.55 -11.1 21.65 -9.55 L22.35 -9.25 22.45 -9.15 23.3 -9.25 24.2 -9.15 M24.1 -5.1 Q24.9 -5.4 25.1 -6.1 L24.75 -6.9 Q23.65 -6.65 23.05 -5.75 23.5 -5.35 24.1 -5.1 M14.5 -3.75 Q13.8 -3.75 13.0 -2.45 L14.0 -1.75 14.85 -2.15 15.5 -2.75 Q15.2 -3.45 14.5 -3.75 M16.5 -9.25 L15.35 -9.25 Q14.95 -9.1 14.65 -8.55 L14.35 -7.75 15.35 -7.15 Q15.7 -7.15 16.25 -7.5 L16.9 -8.15 16.5 -9.25 M4.9 -3.4 L4.6 -2.65 Q5.0 -2.25 5.6 -2.0 6.35 -2.3 6.65 -3.05 6.35 -3.75 5.6 -4.05 L4.9 -3.4 M4.05 -7.15 L3.75 -7.9 1.85 -8.0 1.0 -7.9 1.0 -6.75 1.45 -6.25 2.5 -6.1 Q3.9 -6.1 4.05 -7.15 M21.15 -2.15 Q20.6 -1.9 20.0 -0.95 L21.0 -0.25 Q21.35 -0.25 21.85 -0.65 L22.5 -1.25 21.85 -2.05 21.15 -2.15 M29.05 -1.8 L29.0 -1.0 Q29.0 -0.2 29.25 0.0 L30.0 0.25 30.75 -0.2 Q31.0 0.1 31.0 -1.15 31.0 -1.95 30.7 -2.05 L30.0 -2.25 29.25 -2.2 29.05 -1.8 M10.5 2.75 L11.5 1.75 Q11.2 1.05 10.5 0.75 10.05 0.9 9.75 1.4 L9.5 2.05 10.5 2.75 M4.25 0.4 L4.0 1.05 5.0 1.75 6.0 0.75 Q5.7 0.05 5.0 -0.25 4.55 -0.1 4.25 0.4 M-11.75 -1.1 L-10.75 -0.5 Q-9.85 -0.85 -9.75 -1.5 L-10.05 -2.25 -10.9 -1.95 -11.75 -1.1 M-6.0 0.75 L-6.75 1.4 -7.0 2.05 Q-6.7 2.5 -6.0 2.75 -5.5 2.55 -5.0 1.75 -5.3 1.05 -6.0 0.75 M-2.0 3.25 L-2.75 3.9 -3.0 4.55 -2.0 5.25 Q-1.5 5.05 -1.0 4.25 -1.3 3.55 -2.0 3.25 M-4.95 -4.75 L-4.55 -4.55 Q-3.85 -4.8 -3.5 -5.6 L-3.9 -6.35 Q-4.95 -6.15 -5.55 -5.25 L-4.95 -4.75" fill="#cc9d3c" fill-rule="evenodd" stroke="none"/>
      <path d="M3.0 32.25 L3.0 24.75 2.8 24.0 1.75 23.75 -1.1 24.9 Q-4.1 26.0 -5.6 26.0 L-6.5 25.9 -6.5 21.35 -6.45 18.1 -6.4 16.1 -6.4 16.05 9.4 14.0 11.75 13.55 12.0 17.5 14.5 17.75 24.0 16.75 Q25.0 16.6 25.0 15.0 L25.0 12.25 26.5 12.25 Q27.7 11.8 31.6 11.05 33.9 10.5 35.1 9.7 L35.0 15.0 34.9 18.0 34.9 19.85 31.6 20.55 Q28.5 21.45 27.5 22.55 L28.3 23.1 Q27.95 23.5 27.85 24.15 27.75 25.0 28.0 26.05 L28.05 28.0 28.05 28.05 28.1 28.4 10.45 31.05 3.0 32.4 3.0 32.25 M-31.65 -27.6 Q-31.95 -30.0 -32.7 -31.65 L-32.5 -31.7 -30.45 -32.3 -29.5 -32.4 -29.5 -31.0 Q-29.5 -24.8 -28.45 -17.35 L-27.25 -8.45 -27.5 -9.0 Q-28.65 -8.6 -29.15 -7.75 L-28.15 -7.15 Q-27.45 -7.4 -27.15 -7.95 L-26.7 -4.2 -30.1 -6.65 -29.5 -7.25 -30.7 -13.45 Q-31.45 -17.05 -31.5 -19.6 L-31.55 -26.05 -31.6 -27.15 -30.75 -26.6 Q-30.3 -26.8 -30.0 -27.05 L-29.75 -27.25 Q-29.8 -28.3 -30.75 -28.75 L-31.45 -28.0 -31.65 -27.6 M-29.75 -16.9 Q-28.9 -17.2 -28.65 -17.9 -28.9 -18.6 -29.75 -19.0 L-30.45 -18.25 -30.75 -17.5 -29.75 -16.9 M-10.25 9.25 L-10.55 8.4 -11.35 8.7 -12.25 9.55 -11.25 10.25 Q-10.35 9.95 -10.25 9.25 M-17.35 6.1 L-17.75 5.35 Q-18.9 5.7 -19.4 6.5 L-18.4 7.15 Q-17.6 6.8 -17.35 6.1 M-19.5 3.05 L-14.4 6.15 Q-10.45 8.4 -8.75 8.7 -9.2 10.25 -9.1 12.85 L-11.05 11.85 -17.45 9.0 -22.8 5.75 Q-24.4 4.8 -25.5 4.4 L-25.5 0.0 -24.4 0.65 -19.5 3.05 M-23.0 3.05 L-23.4 2.25 -24.35 2.15 -25.05 2.25 -25.05 3.4 -24.45 3.9 -24.05 4.05 Q-23.3 3.75 -23.0 3.05 M-25.5 22.0 L-25.5 19.25 Q-24.15 20.75 -22.5 20.75 L-22.0 20.75 -22.0 20.8 -22.0 22.25 -21.8 24.45 -25.5 22.0 M-23.55 21.0 L-24.25 21.65 -24.55 22.4 -23.55 23.05 Q-22.8 22.75 -22.5 22.0 -22.75 21.3 -23.55 21.0 M-9.4 27.25 L-8.55 27.8 -8.5 28.8 -8.65 32.75 -8.6 33.7 -12.7 30.6 -12.2 25.55 Q-10.75 25.95 -9.4 27.25 M-10.4 27.2 L-10.55 26.9 -11.35 27.15 -12.25 28.05 -11.25 28.75 -10.25 28.05 -10.4 27.2" fill="#999999" fill-rule="evenodd" stroke="none"/>
      <path d="M32.4 5.85 Q31.45 5.85 30.95 6.15 L30.25 7.0 Q30.6 7.4 31.25 7.65 L32.15 7.3 32.8 6.6 32.4 5.85 M35.2 7.75 L35.0 7.75 27.75 9.5 25.0 10.3 24.85 6.05 24.35 4.3 26.65 3.85 31.05 3.5 35.85 2.7 Q35.4 4.4 35.2 7.75 M22.45 4.65 L22.5 5.05 22.75 7.65 23.0 10.75 23.0 14.05 Q23.0 14.5 18.5 14.75 16.45 15.5 14.0 15.55 L14.0 10.15 Q13.85 7.9 13.1 6.55 L18.25 5.5 22.45 4.65 M25.6 7.5 L26.65 8.15 Q27.45 7.85 27.65 7.15 L27.3 6.35 26.55 6.6 25.6 7.5 M35.0 21.75 Q35.1 22.7 34.8 25.25 34.8 26.65 35.4 27.6 L30.0 28.15 30.0 23.25 Q31.5 23.15 33.6 22.15 L34.85 21.5 35.0 21.75 M33.3 24.05 L33.0 23.3 32.2 23.5 Q31.75 23.75 31.25 24.5 L32.3 25.1 Q33.2 24.75 33.3 24.05 M-6.5 14.05 L-6.4 10.1 -6.4 9.25 -2.0 9.25 6.3 7.8 11.5 6.85 11.5 11.2 -0.2 12.7 Q-4.55 13.45 -6.45 14.15 L-6.5 14.05 M16.0 7.6 L16.25 9.7 16.5 12.0 18.5 12.25 Q19.95 12.25 20.5 11.3 L19.9 10.55 Q19.5 10.1 19.5 9.4 L19.75 7.75 19.8 6.5 17.2 6.45 Q16.0 6.85 16.0 7.6 M8.75 10.25 L9.65 9.85 10.25 9.25 Q10.0 8.45 9.25 8.15 8.55 8.15 7.65 9.55 L8.75 10.25 M3.25 10.0 L2.35 10.25 Q1.95 10.45 1.5 11.1 1.9 11.5 2.55 11.75 3.45 11.45 3.55 10.75 L3.25 10.0 M0.5 28.15 L0.1 27.4 -0.7 27.7 -1.5 28.55 -0.5 29.25 Q0.2 28.95 0.5 28.15 M1.0 26.5 Q1.15 27.55 0.9 29.85 0.85 31.75 1.85 32.65 -4.7 33.95 -6.65 34.9 L-6.55 28.25 -5.75 28.25 Q-4.0 28.25 -1.95 27.3 0.0 26.4 1.0 26.5 M-3.5 11.25 L-3.9 10.5 Q-4.95 10.7 -5.55 11.6 L-4.55 12.25 Q-3.8 11.95 -3.5 11.25" fill="#cccccc" fill-rule="evenodd" stroke="none"/>
      <path d="M-34.4 -30.95 L-34.3 -30.8 -34.5 -30.65 Q-34.5 -26.3 -33.45 -17.9 -32.6 -10.95 -31.65 -7.95 -34.95 -10.85 -36.05 -13.4 -37.0 -15.55 -37.0 -23.1 L-37.1 -25.65 -37.0 -28.35 Q-36.75 -29.85 -34.4 -30.95 M-20.2 25.3 L-20.0 22.1 -20.2 20.8 Q-20.45 19.5 -21.0 18.75 L-21.5 19.25 -23.85 16.95 -25.5 15.55 -25.5 6.4 -18.5 10.75 Q-11.8 14.7 -8.9 15.85 L-8.5 21.5 -8.55 24.8 -8.6 24.95 -11.5 23.3 Q-14.5 22.0 -14.5 27.9 L-14.45 29.35 -16.35 28.05 -20.3 25.45 -20.2 25.3" fill="#666666" fill-rule="evenodd" stroke="none"/>
      <path d="M25.9 -5.15 L30.55 -2.45 30.5 -2.35 Q28.55 -3.35 26.65 -3.6 L26.65 -3.65 Q26.65 -4.55 25.9 -5.15 M-17.7 1.25 L-18.25 0.95 -23.55 -1.95 -15.9 -2.75 -16.35 -0.85 -15.5 0.4 Q-16.85 0.85 -17.7 1.25" fill="#725c3f" fill-rule="evenodd" stroke="none"/>
    </g>
  </defs>
</svg>
