<?xml version="1.0" encoding="UTF-8" standalone="no"?>
<svg xmlns:ffdec="https://www.free-decompiler.com/flash" xmlns:xlink="http://www.w3.org/1999/xlink" ffdec:objectType="frame" height="32.3px" width="48.4px" xmlns="http://www.w3.org/2000/svg">
  <g transform="matrix(1.0, 0.0, 0.0, 1.0, 24.2, 19.8)">
    <use ffdec:characterId="1255" height="25.0" transform="matrix(1.0, 0.0, 0.0, 1.0, -24.2, -12.5)" width="48.4" xlink:href="#shape0"/>
    <use ffdec:characterId="1256" height="19.45" id="txt_num" transform="matrix(1.0, 0.0, 0.0, 1.0, -14.15, -9.25)" width="27.3" xlink:href="#text0"/>
  </g>
  <defs>
    <g id="shape0" transform="matrix(1.0, 0.0, 0.0, 1.0, 24.2, 12.5)">
      <path d="M17.1 -8.9 Q24.2 -5.2 24.2 0.0 24.2 5.2 17.1 8.8 13.4 10.7 8.9 11.7 L0.0 12.5 Q-10.0 12.5 -17.1 8.8 -24.2 5.2 -24.2 0.0 -24.2 -5.2 -17.1 -8.9 -10.0 -12.5 0.0 -12.5 10.0 -12.5 17.1 -8.9" fill="#a68032" fill-opacity="0.0" fill-rule="evenodd" stroke="none"/>
      <path d="M8.55 -4.45 Q12.1 -2.6 12.1 0.0 12.1 2.6 8.55 4.4 6.7 5.35 4.45 5.85 L0.0 6.25 Q-5.0 6.25 -8.55 4.4 -12.1 2.6 -12.1 0.0 -12.1 -2.6 -8.55 -4.45 -5.0 -6.25 0.0 -6.25 5.0 -6.25 8.55 -4.45" fill="#a68032" fill-rule="evenodd" stroke="none"/>
      <path d="M8.55 -4.45 Q12.1 -2.6 12.1 0.0 12.1 2.6 8.55 4.4 6.7 5.35 4.45 5.85 L0.0 6.25 Q-5.0 6.25 -8.55 4.4 -12.1 2.6 -12.1 0.0 -12.1 -2.6 -8.55 -4.45 -5.0 -6.25 0.0 -6.25 5.0 -6.25 8.55 -4.45 Z" fill="none" stroke="#7f551b" stroke-linecap="round" stroke-linejoin="round" stroke-width="3.0"/>
    </g>
    <g id="text0" transform="matrix(1.0, 0.0, 0.0, 1.0, 2.0, 2.0)">
      <g transform="matrix(1.0, 0.0, 0.0, 1.0, -2.0, -2.0)">
        <use fill="#693f16" height="19.45" transform="matrix(0.0117, 0.0, 0.0, 0.0117, 9.75, 13.6)" width="27.3" xlink:href="#font_Lithos_Pro_Regular_50"/>
      </g>
    </g>
    <g id="font_Lithos_Pro_Regular_50">
      <path d="M370.0 -568.5 L370.0 -568.5 357.5 -496.0 Q448.0 -488.0 506.0 -468.5 563.5 -449.0 595.0 -421.0 626.5 -393.0 639.0 -359.0 651.0 -325.5 650.5 -289.0 650.0 -221.0 592.5 -155.5 535.5 -90.5 429.0 -41.5 322.5 7.0 174.5 25.5 L145.5 -144.5 Q183.0 -147.0 226.0 -154.5 268.5 -162.0 307.0 -175.5 345.5 -189.5 370.0 -210.5 394.5 -231.0 395.5 -260.5 395.5 -303.0 339.0 -323.5 282.5 -343.5 170.5 -346.5 L217.5 -727.0 Q247.0 -727.5 291.5 -728.5 336.0 -730.0 387.0 -731.5 438.0 -733.0 487.5 -735.0 537.5 -737.0 578.0 -738.5 618.5 -740.0 642.5 -741.5 L641.5 -556.5 370.0 -568.5" fill-rule="evenodd" stroke="none"/>
    </g>
  </defs>
</svg>
