<?xml version="1.0" encoding="UTF-8" standalone="no"?>
<svg xmlns:ffdec="https://www.free-decompiler.com/flash" xmlns:xlink="http://www.w3.org/1999/xlink" ffdec:objectType="frame" height="32.3px" width="48.4px" xmlns="http://www.w3.org/2000/svg">
  <g transform="matrix(1.0, 0.0, 0.0, 1.0, 24.2, 19.8)">
    <use ffdec:characterId="1259" height="15.5" transform="matrix(1.0, 0.0, 0.0, 1.0, -13.6, -7.75)" width="27.2" xlink:href="#shape0"/>
    <use ffdec:characterId="1256" height="19.45" id="txt_num" transform="matrix(1.0, 0.0, 0.0, 1.0, -14.15, -9.25)" width="27.3" xlink:href="#text0"/>
    <use ffdec:characterId="975" height="35.05" transform="matrix(0.6463, 0.0, 0.0, 0.6463, -9.7, -19.8)" width="29.95" xlink:href="#shape1"/>
  </g>
  <defs>
    <g id="shape0" transform="matrix(1.0, 0.0, 0.0, 1.0, 13.6, 7.75)">
      <path d="M8.55 -4.45 Q12.1 -2.6 12.1 0.0 12.1 2.6 8.55 4.4 6.7 5.35 4.45 5.85 L0.0 6.25 Q-5.0 6.25 -8.55 4.4 -12.1 2.6 -12.1 0.0 -12.1 -2.6 -8.55 -4.45 -5.0 -6.25 0.0 -6.25 5.0 -6.25 8.55 -4.45" fill="#a68032" fill-opacity="0.69411767" fill-rule="evenodd" stroke="none"/>
      <path d="M8.55 -4.45 Q12.1 -2.6 12.1 0.0 12.1 2.6 8.55 4.4 6.7 5.35 4.45 5.85 L0.0 6.25 Q-5.0 6.25 -8.55 4.4 -12.1 2.6 -12.1 0.0 -12.1 -2.6 -8.55 -4.45 -5.0 -6.25 0.0 -6.25 5.0 -6.25 8.55 -4.45 Z" fill="none" stroke="#7f551b" stroke-linecap="round" stroke-linejoin="round" stroke-width="3.0"/>
    </g>
    <g id="text0" transform="matrix(1.0, 0.0, 0.0, 1.0, 2.0, 2.0)">
      <g transform="matrix(1.0, 0.0, 0.0, 1.0, -2.0, -2.0)">
        <use fill="#693f16" height="19.45" transform="matrix(0.0117, 0.0, 0.0, 0.0117, 9.75, 13.6)" width="27.3" xlink:href="#font_Lithos_Pro_Regular_50"/>
      </g>
    </g>
    <g id="font_Lithos_Pro_Regular_50">
      <path d="M370.0 -568.5 L370.0 -568.5 357.5 -496.0 Q448.0 -488.0 506.0 -468.5 563.5 -449.0 595.0 -421.0 626.5 -393.0 639.0 -359.0 651.0 -325.5 650.5 -289.0 650.0 -221.0 592.5 -155.5 535.5 -90.5 429.0 -41.5 322.5 7.0 174.5 25.5 L145.5 -144.5 Q183.0 -147.0 226.0 -154.5 268.5 -162.0 307.0 -175.5 345.5 -189.5 370.0 -210.5 394.5 -231.0 395.5 -260.5 395.5 -303.0 339.0 -323.5 282.5 -343.5 170.5 -346.5 L217.5 -727.0 Q247.0 -727.5 291.5 -728.5 336.0 -730.0 387.0 -731.5 438.0 -733.0 487.5 -735.0 537.5 -737.0 578.0 -738.5 618.5 -740.0 642.5 -741.5 L641.5 -556.5 370.0 -568.5" fill-rule="evenodd" stroke="none"/>
    </g>
    <g id="shape1" transform="matrix(1.0, 0.0, 0.0, 1.0, 0.0, 0.0)">
      <path d="M25.45 12.55 L25.95 12.65 26.4 12.7 Q26.1 12.25 26.1 11.6 L26.25 9.8 Q25.95 7.5 25.4 6.35 L24.6 4.65 24.45 4.25 23.55 3.1 Q22.2 2.1 20.35 1.6 L19.9 1.5 15.55 0.95 14.55 0.9 Q7.75 0.9 4.85 4.25 2.2 7.3 3.0 12.7 L3.1 12.7 3.6 12.7 4.05 12.65 5.25 12.5 6.05 12.45 6.95 12.4 7.3 12.35 7.1 12.0 7.05 11.2 7.15 9.85 7.55 9.3 Q7.55 7.7 9.9 6.3 12.2 4.8 15.0 4.6 18.2 4.35 20.15 5.9 21.35 6.75 21.95 8.2 22.45 9.55 22.45 11.5 L22.45 12.45 24.1 12.5 25.3 12.55 25.45 12.55 M24.9 3.15 L26.05 4.65 Q26.7 5.5 26.75 6.25 L27.55 12.65 27.55 12.8 28.4 12.95 29.15 13.15 29.5 14.1 29.4 14.1 Q29.85 15.3 29.75 17.15 L29.65 20.65 29.95 27.65 Q29.95 29.85 27.55 31.95 24.0 35.05 16.75 35.05 11.1 35.05 6.8 33.4 1.6 31.55 1.05 28.05 L0.55 25.9 Q0.1 24.35 0.1 23.65 L0.1 19.55 0.1 18.2 0.1 16.5 0.0 14.85 Q0.0 14.35 0.15 14.05 L0.1 14.0 0.3 13.5 Q1.05 12.95 2.15 12.8 L2.0 11.85 2.0 10.15 1.95 7.15 Q2.1 6.05 3.85 3.85 5.45 1.65 7.55 1.2 L9.25 0.7 9.55 0.5 16.0 0.05 16.95 0.0 19.15 0.3 19.55 0.4 22.35 1.35 Q24.0 1.95 24.9 3.15 M21.15 9.3 Q21.15 5.95 15.9 5.95 13.05 5.95 10.8 6.95 8.95 7.8 8.6 9.05 L8.6 9.4 8.5 9.8 8.5 9.85 8.15 10.75 Q7.8 11.75 8.4 12.3 L16.1 12.35 21.4 12.4 Q21.2 12.0 21.15 11.45 L21.15 9.3 M5.55 31.75 L6.6 32.2 Q10.45 34.0 16.7 34.0 L23.7 33.25 Q27.15 32.1 28.35 29.45 28.8 28.45 28.75 26.85 L28.6 24.1 28.6 21.4 28.6 18.75 28.55 16.15 Q28.55 15.0 28.95 14.1 L27.7 14.0 27.1 13.7 25.2 13.55 24.0 13.5 23.85 13.5 23.8 13.5 15.75 13.3 Q7.75 13.3 4.95 13.55 L4.9 13.5 4.9 13.4 4.85 13.5 4.75 13.55 3.6 13.7 3.15 14.0 1.05 14.1 1.0 14.1 1.0 14.15 1.2 16.05 1.15 18.85 1.15 24.35 Q1.15 25.6 1.7 27.05 2.25 28.65 3.3 29.85 4.1 30.8 5.35 31.6 L5.55 31.75 M15.8 17.65 Q16.85 17.9 17.75 18.45 19.0 19.2 19.0 19.95 19.0 21.1 18.15 22.15 L17.3 23.2 Q17.3 23.45 18.45 25.1 L19.55 26.85 19.4 27.3 19.0 27.45 12.05 27.45 Q13.0 26.65 13.95 23.45 L13.9 22.9 13.85 22.75 13.4 22.8 12.2 21.6 12.1 20.45 Q12.1 19.45 13.95 18.65 L15.8 17.65" fill="#342f27" fill-rule="evenodd" stroke="none"/>
      <path d="M15.55 0.95 L19.9 1.5 20.35 1.6 Q22.2 2.1 23.55 3.1 L24.45 4.25 24.6 4.65 25.4 6.35 Q25.95 7.5 26.25 9.8 L26.1 11.6 Q26.1 12.25 26.4 12.7 L25.95 12.65 25.45 12.55 25.45 12.35 24.85 7.9 Q24.45 5.85 23.2 4.9 L23.3 4.7 23.15 4.55 21.7 3.5 19.4 2.55 18.15 2.1 18.0 2.15 17.35 1.95 15.45 1.45 15.55 0.95 M21.95 8.2 Q21.35 6.75 20.15 5.9 18.2 4.35 15.0 4.6 12.2 4.8 9.9 6.3 7.55 7.7 7.55 9.3 L7.15 9.85 7.05 11.2 7.1 12.0 7.3 12.35 6.95 12.4 6.05 12.45 5.25 12.5 Q4.95 12.25 4.9 11.55 L4.9 10.15 Q4.9 7.35 7.55 5.5 9.95 3.85 13.45 3.65 16.85 3.3 19.25 4.55 21.9 5.8 21.95 8.2 M25.2 13.55 L27.1 13.7 27.7 14.0 28.95 14.1 Q28.55 15.0 28.55 16.15 L28.6 18.75 28.6 21.4 28.6 24.1 28.75 26.85 Q28.8 28.45 28.35 29.45 27.15 32.1 23.7 33.25 L16.7 34.0 Q10.45 34.0 6.6 32.2 L5.55 31.75 5.6 31.6 8.15 31.5 8.6 31.6 9.0 31.55 9.35 31.7 16.1 32.05 22.4 31.65 Q23.15 31.45 23.7 30.9 L25.3 29.85 Q26.25 29.0 26.25 28.6 L26.2 28.15 26.1 28.05 26.0 28.0 26.35 25.95 26.25 23.1 26.0 16.75 Q25.8 14.35 25.2 13.55 M12.05 27.45 L10.5 27.45 10.5 27.05 Q10.5 26.2 11.65 24.5 L12.55 23.45 12.6 23.45 12.6 23.4 12.65 23.35 12.6 23.35 12.5 23.35 Q11.25 23.35 10.5 21.75 L10.15 20.7 10.25 20.45 10.8 19.3 10.95 18.9 12.45 18.1 Q13.6 17.45 14.75 17.45 L15.8 17.5 15.8 17.55 15.8 17.65 13.95 18.65 Q12.1 19.45 12.1 20.45 L12.2 21.6 13.4 22.8 13.85 22.75 13.9 22.9 13.95 23.45 Q13.0 26.65 12.05 27.45" fill="#4a4640" fill-rule="evenodd" stroke="none"/>
      <path d="M18.0 2.15 L18.15 2.1 19.4 2.55 21.7 3.5 23.15 4.55 23.3 4.7 23.2 4.9 Q24.45 5.85 24.85 7.9 L25.45 12.35 25.3 12.55 24.1 12.5 22.45 12.45 22.45 11.5 Q22.45 9.55 21.95 8.2 21.9 5.8 19.25 4.55 16.85 3.3 13.45 3.65 9.95 3.85 7.55 5.5 4.9 7.35 4.9 10.15 L4.9 11.55 Q4.95 12.25 5.25 12.5 L4.05 12.65 4.4 11.0 Q4.5 7.8 4.7 7.35 5.05 6.1 5.35 5.7 5.9 4.85 7.3 3.95 L10.65 2.5 16.7 2.2 17.35 2.2 18.0 2.15 M4.95 13.55 Q7.75 13.3 15.75 13.3 L23.8 13.5 23.8 13.55 23.8 15.35 24.35 19.8 24.9 24.9 24.6 27.05 24.55 28.2 24.6 28.55 23.6 29.65 21.8 30.4 16.6 30.8 12.0 30.65 9.1 30.5 8.95 30.55 7.65 29.2 Q6.15 27.65 5.95 26.8 5.4 24.45 5.4 22.3 L5.75 17.85 Q5.85 15.25 4.95 13.55 M12.05 27.45 L19.0 27.45 19.4 27.3 19.55 26.85 18.45 25.1 Q17.3 23.45 17.3 23.2 L18.15 22.15 Q19.0 21.1 19.0 19.95 19.0 19.2 17.75 18.45 16.85 17.9 15.8 17.65 L15.8 17.55 15.8 17.5 14.75 17.45 Q13.6 17.45 12.45 18.1 L10.95 18.9 10.8 19.3 10.25 20.45 10.15 20.7 10.5 21.75 Q11.25 23.35 12.5 23.35 L12.6 23.45 12.55 23.45 11.65 24.5 Q10.5 26.2 10.5 27.05 L10.5 27.45 12.05 27.45" fill="#6d685f" fill-rule="evenodd" stroke="none"/>
      <path d="M24.0 13.5 L25.2 13.55 Q25.8 14.35 26.0 16.75 L26.25 23.1 26.35 25.95 26.0 28.0 26.1 28.05 26.2 28.15 26.25 28.6 Q26.25 29.0 25.3 29.85 L23.7 30.9 Q23.15 31.45 22.4 31.65 L16.1 32.05 9.35 31.7 9.0 31.55 8.6 31.6 8.15 31.5 6.65 30.3 5.2 28.4 Q4.3 27.0 4.35 24.9 L4.1 18.3 Q4.1 14.35 4.75 13.55 L4.95 13.55 Q5.85 15.25 5.75 17.85 L5.4 22.3 Q5.4 24.45 5.95 26.8 6.15 27.65 7.65 29.2 L8.95 30.55 9.1 30.5 12.0 30.65 16.6 30.8 21.8 30.4 23.6 29.65 24.6 28.55 24.55 28.2 24.6 27.05 24.9 24.9 24.35 19.8 23.8 15.35 23.8 13.55 24.0 13.5" fill="#5f5a52" fill-rule="evenodd" stroke="none"/>
      <path d="M23.85 13.5 L24.0 13.5 23.8 13.55 23.85 13.5 M12.6 23.4 L12.5 23.35 12.6 23.35 12.6 23.4" fill="#666666" fill-rule="evenodd" stroke="none"/>
      <path d="M23.8 13.5 L23.85 13.5 23.8 13.55 23.8 13.5 M12.6 23.45 L12.5 23.35 12.6 23.4 12.6 23.45" fill="#5f5747" fill-rule="evenodd" stroke="none"/>
      <path d="M25.45 12.35 L25.45 12.55 25.3 12.55 25.45 12.35 M5.55 31.75 L5.35 31.6 5.6 31.6 5.55 31.75" fill="#333333" fill-rule="evenodd" stroke="none"/>
      <path d="M15.55 0.95 L15.45 1.45 17.35 1.95 17.35 2.2 16.7 2.2 10.65 2.5 7.3 3.95 Q5.9 4.85 5.35 5.7 5.05 6.1 4.7 7.35 4.5 7.8 4.4 11.0 L4.05 12.65 3.6 12.7 3.1 12.7 3.0 12.7 Q2.2 7.3 4.85 4.25 7.75 0.9 14.55 0.9 L15.55 0.95 M5.35 31.6 Q4.1 30.8 3.3 29.85 2.25 28.65 1.7 27.05 1.15 25.6 1.15 24.35 L1.15 18.85 1.2 16.05 1.0 14.15 1.05 14.1 3.15 14.0 3.6 13.7 4.75 13.55 Q4.1 14.35 4.1 18.3 L4.35 24.9 Q4.3 27.0 5.2 28.4 L6.65 30.3 8.15 31.5 5.6 31.6 5.35 31.6" fill="#7e786d" fill-rule="evenodd" stroke="none"/>
      <path d="M17.35 1.95 L18.0 2.15 17.35 2.2 17.35 1.95" fill="#999999" fill-rule="evenodd" stroke="none"/>
      <path d="M4.75 13.55 L4.85 13.5 4.9 13.4 4.9 13.5 4.95 13.55 4.75 13.55" fill="#cccccc" fill-rule="evenodd" stroke="none"/>
      <path d="M12.6 23.4 L12.6 23.35 12.65 23.35 12.6 23.4" fill="#000000" fill-rule="evenodd" stroke="none"/>
    </g>
  </defs>
</svg>
