<?xml version="1.0" encoding="UTF-8" standalone="no"?>
<svg xmlns:ffdec="https://www.free-decompiler.com/flash" xmlns:xlink="http://www.w3.org/1999/xlink" ffdec:objectType="frame" height="209.35px" width="298.55px" xmlns="http://www.w3.org/2000/svg">
  <g transform="matrix(1.0, 0.0, 0.0, 1.0, 140.15, 193.55)">
    <use ffdec:characterId="196" height="60.5" transform="matrix(1.6992, 0.0, 0.0, 1.6992, -22.2191, -111.1743)" width="40.25" xlink:href="#shape0"/>
    <use ffdec:characterId="426" height="82.45" transform="matrix(1.0, 0.0, 0.0, 1.0, -55.3, -80.45)" width="117.5" xlink:href="#shape1"/>
    <use ffdec:characterId="211" height="92.0" transform="matrix(0.7817, 0.6228, -0.6228, 0.7817, 76.4646, -155.4288)" width="74.05" xlink:href="#shape2"/>
    <use ffdec:characterId="209" height="222.7" transform="matrix(0.771, 0.3139, -0.3139, 0.771, 48.0715, -175.5062)" width="15.5" xlink:href="#shape3"/>
    <use ffdec:characterId="209" height="222.7" transform="matrix(0.755, 0.3509, -0.3509, 0.755, 54.9447, -173.1147)" width="15.5" xlink:href="#shape3"/>
    <use ffdec:characterId="209" height="222.7" transform="matrix(0.737, 0.3873, -0.3873, 0.737, 61.0056, -170.736)" width="15.5" xlink:href="#shape3"/>
    <use ffdec:characterId="209" height="222.7" transform="matrix(-0.0022, 0.9882, -0.9882, -0.0022, 158.3874, -9.4282)" width="15.5" xlink:href="#shape3"/>
  </g>
  <defs>
    <g id="shape0" transform="matrix(1.0, 0.0, 0.0, 1.0, 12.9, 30.5)">
      <path d="M27.0 -30.0 L27.0 -29.8 27.0 -29.5 27.2 -28.15 27.1 -28.0 26.65 -28.0 26.65 -27.95 27.05 -23.85 27.05 26.15 27.0 26.25 27.25 26.4 27.35 26.55 Q26.65 27.55 26.55 28.85 L26.35 28.85 26.05 29.5 25.95 28.9 24.45 28.95 Q10.85 29.0 -10.4 29.5 L-11.15 29.25 -11.4 28.4 Q-11.7 29.7 -11.9 30.0 -12.7 24.65 -12.85 15.95 L-12.9 0.95 -12.9 -15.0 Q-12.8 -25.7 -12.0 -29.55 L-11.9 -30.0 -11.75 -29.65 -11.75 -29.6 -11.75 -29.55 -11.7 -29.45 -11.65 -29.6 -6.45 -29.9 25.95 -30.0 26.05 -30.5 26.2 -30.05 26.2 -30.0 27.0 -30.0 M22.5 -27.9 L22.5 26.35 25.65 26.2 Q25.2 21.65 25.1 15.45 L25.05 0.45 25.05 -15.5 Q25.1 -23.8 25.65 -27.95 L22.5 -27.9 M20.0 -15.55 L19.75 -23.0 Q19.8 -26.35 20.6 -27.9 L-7.15 -27.55 Q-6.75 -25.95 -6.75 -23.95 L-6.9 -18.35 -6.9 -14.4 -6.4 -14.5 20.05 -14.5 20.0 -15.55 M-6.6 -5.25 L-5.9 -6.0 0.25 -6.0 0.25 -6.8 0.2 -8.1 0.25 -8.35 0.05 -8.35 0.0 -9.15 0.05 -10.0 0.25 -10.35 4.1 -10.5 4.3 -10.35 4.4 -10.25 4.8 -10.05 5.0 -9.75 5.0 -6.0 10.6 -6.0 11.0 -7.4 11.0 -7.75 11.45 -7.95 11.5 -8.0 11.55 -8.0 Q14.0 -8.95 14.75 -6.05 L14.75 -6.0 20.3 -6.0 20.1 -12.4 8.5 -12.0 -6.9 -12.5 -6.9 -7.1 -6.9 -5.3 -6.85 -4.35 -6.6 -5.25 M5.0 -2.1 L4.95 2.25 4.85 3.1 7.1 3.1 10.5 3.1 10.5 0.5 10.55 0.5 10.5 -2.3 10.5 -3.5 7.0 -3.5 5.0 -3.5 5.0 -2.1 M15.0 -1.5 L15.0 2.05 14.9 2.65 15.0 3.15 17.6 3.25 20.5 3.5 20.35 -3.7 15.0 -3.55 15.0 -1.5 M-6.4 12.4 Q-6.35 11.4 -3.05 11.05 3.0 10.35 20.45 11.0 L20.5 6.0 15.75 5.55 14.8 5.5 14.65 5.75 Q14.1 6.5 12.5 6.5 L11.0 6.25 11.0 5.35 4.65 5.25 4.4 5.25 4.3 5.5 4.35 5.5 4.6 5.5 5.0 6.5 4.15 7.1 Q3.35 7.5 2.5 7.5 L0.0 7.25 0.0 5.25 -2.3 5.25 -6.7 4.95 -6.5 12.35 -6.4 15.3 -6.5 26.8 3.0 26.5 20.9 26.4 Q20.35 24.6 20.35 22.4 L20.5 16.8 20.45 13.55 20.45 13.5 20.45 13.35 20.0 13.5 -6.05 13.5 -6.2 13.35 -6.4 12.4 M0.0 -3.65 L-0.3 -3.65 -6.85 -4.05 -6.75 3.6 -3.0 3.25 0.0 3.15 0.0 -3.65 M-10.9 -27.5 L-11.3 -27.5 -11.3 -27.45 -10.9 -23.35 -10.9 26.65 -11.05 27.05 -10.85 27.05 -8.1 26.9 Q-8.55 25.4 -8.55 23.35 L-8.4 18.05 -8.45 12.85 -8.4 7.55 Q-8.9 -2.1 -8.9 -12.85 L-8.95 -16.55 -8.9 -21.6 -9.05 -25.75 -8.9 -27.5 -10.9 -27.5" fill="#000000" fill-rule="evenodd" stroke="none"/>
      <path d="M4.6 5.5 L4.35 5.5 4.4 5.25 4.65 5.25 4.6 5.5 M-6.5 12.35 L-6.4 12.4 -6.5 12.35" fill="#71695b" fill-rule="evenodd" stroke="none"/>
      <path d="M20.0 -15.55 L20.05 -14.5 -6.4 -14.5 -6.9 -14.4 -6.9 -18.35 -6.75 -23.95 Q-6.75 -25.95 -7.15 -27.55 L20.6 -27.9 Q19.8 -26.35 19.75 -23.0 L20.0 -15.55 M15.0 -1.5 L15.0 -3.55 20.35 -3.7 20.5 3.5 17.6 3.25 15.0 3.15 14.9 2.65 15.0 2.05 15.0 -1.5 M5.0 -2.1 L5.0 -3.5 7.0 -3.5 10.5 -3.5 10.5 -2.3 10.55 0.5 10.5 0.5 10.5 3.1 7.1 3.1 4.85 3.1 4.95 2.25 5.0 -2.1 M-6.4 12.4 L-6.2 13.35 -6.05 13.5 20.0 13.5 20.45 13.5 20.45 13.55 20.5 16.8 20.35 22.4 Q20.35 24.6 20.9 26.4 L3.0 26.5 -6.5 26.8 -6.4 15.3 -6.5 12.35 -6.4 12.4 M0.0 -3.65 L0.0 3.15 -3.0 3.25 -6.75 3.6 -6.85 -4.05 -0.3 -3.65 0.0 -3.65" fill="#3b3b3b" fill-rule="evenodd" stroke="none"/>
      <path d="M-6.9 -5.3 L-6.9 -7.1 -6.9 -12.5 8.5 -12.0 20.1 -12.4 20.3 -6.0 14.75 -6.0 14.75 -6.05 Q14.0 -8.95 11.55 -8.0 L11.5 -8.0 11.45 -7.95 11.0 -7.75 11.0 -7.4 10.6 -6.0 5.0 -6.0 5.0 -9.75 4.8 -10.05 4.4 -10.25 4.3 -10.35 4.1 -10.5 0.25 -10.35 0.05 -10.0 0.0 -9.15 0.05 -8.35 0.25 -8.35 0.2 -8.1 0.25 -6.8 0.25 -6.0 -5.9 -6.0 -6.6 -5.25 -6.9 -5.3 M4.65 5.25 L11.0 5.35 11.0 6.25 12.5 6.5 Q14.1 6.5 14.65 5.75 L14.8 5.5 15.75 5.55 20.5 6.0 20.45 11.0 Q3.0 10.35 -3.05 11.05 -6.35 11.4 -6.4 12.4 L-6.5 12.35 -6.7 4.95 -2.3 5.25 0.0 5.25 0.0 7.25 2.5 7.5 Q3.35 7.5 4.15 7.1 L5.0 6.5 4.6 5.5 4.65 5.25" fill="#413d34" fill-rule="evenodd" stroke="none"/>
      <path d="M22.5 -27.9 L25.65 -27.95 Q25.1 -23.8 25.05 -15.5 L25.05 0.45 25.1 15.45 Q25.2 21.65 25.65 26.2 L22.5 26.35 22.5 -27.9 M-11.3 -27.45 L-10.9 -27.5 -8.9 -27.5 -9.05 -25.75 -8.9 -21.6 -8.95 -16.55 -8.9 -12.85 Q-8.9 -2.1 -8.4 7.55 L-8.45 12.85 -8.4 18.05 -8.55 23.35 Q-8.55 25.4 -8.1 26.9 L-10.85 27.05 -10.9 26.65 -10.9 -23.35 -11.3 -27.45" fill="#731c02" fill-rule="evenodd" stroke="none"/>
    </g>
    <g id="shape1" transform="matrix(1.0, 0.0, 0.0, 1.0, 66.5, 23.45)">
      <path d="M22.55 -18.1 L22.6 -18.1 21.85 -18.45 14.0 -21.5 13.85 -21.55 Q7.05 -22.65 1.5 -16.6 L-1.85 -13.85 -3.2 -12.95 -3.3 -12.9 Q-5.25 -11.85 -8.0 -11.5 -12.1 -10.9 -14.7 -9.5 -16.4 -8.6 -18.85 -6.25 L-25.05 -0.15 Q-28.2 3.35 -29.0 6.05 -29.55 8.0 -31.65 12.45 L-34.5 18.8 Q-35.15 20.75 -35.6 24.95 -36.3 28.6 -39.1 30.5 -40.95 31.7 -44.2 32.25 L-49.75 33.1 Q-52.95 33.75 -55.0 35.6 -57.15 37.55 -58.0 40.8 L-59.2 47.1 Q-60.3 50.6 -64.1 52.5 L-64.35 52.75 -64.1 52.8 Q-60.75 53.0 -58.95 53.7 L-58.1 54.05 -55.5 55.05 -52.8 55.6 -23.75 56.75 -22.45 56.75 -18.5 56.7 -18.0 56.7 Q-1.2 56.35 3.6 53.7 5.4 52.75 5.4 51.5 L5.0 50.25 Q4.9 48.45 5.65 46.15 L7.0 42.3 8.1 34.45 Q8.65 29.7 11.3 26.55 L14.0 22.55 Q15.95 19.65 17.55 18.3 L21.8 14.7 Q24.35 12.55 26.3 11.25 29.1 9.4 32.3 3.85 35.5 -1.7 35.5 -4.5 35.5 -6.7 32.3 -10.7 L31.3 -11.9 31.25 -11.95 29.8 -13.45 26.5 -16.0 22.55 -18.1 M-34.6 34.05 L-34.0 33.5 -33.9 33.55 -33.85 33.55 -33.75 33.65 Q-33.15 33.95 -33.0 34.5 L-34.55 36.3 -35.65 37.65 -35.65 37.7 -36.6 38.9 Q-39.5 42.75 -39.5 44.15 -39.5 45.7 -39.1 46.05 -38.4 46.75 -35.5 46.75 -32.0 46.75 -27.5 45.0 -24.2 43.7 -20.35 41.45 L-19.45 40.95 -15.75 38.55 -11.1 35.05 Q-7.85 32.45 -5.4 28.15 L-1.5 20.8 Q3.2 12.65 11.55 8.3 L12.45 7.85 16.05 5.3 17.35 4.25 20.5 1.1 26.0 -5.0 26.45 -4.75 26.65 -4.6 26.7 -4.55 Q27.0 -4.25 27.0 -3.4 L27.0 -3.3 27.0 -3.25 Q26.95 -2.25 26.05 -0.9 24.4 1.4 20.2 4.75 15.2 8.7 11.75 10.55 7.95 12.5 4.3 16.6 1.15 20.05 -1.0 24.0 L-4.95 31.2 Q-7.85 35.55 -12.75 38.55 -24.3 45.6 -26.35 46.65 -31.05 49.0 -35.75 49.0 -40.6 49.0 -41.55 46.8 L-41.5 44.55 Q-41.5 41.55 -39.75 39.2 -38.6 37.55 -34.6 34.05 M-5.7 -4.25 Q-6.15 -4.4 -6.45 -4.6 -7.0 -4.95 -6.8 -5.5 L-6.7 -5.65 -6.5 -6.1 Q-6.5 -7.85 -5.65 -9.55 -4.8 -11.15 -3.45 -12.15 L-3.0 -12.5 -2.25 -12.25 Q-2.0 -12.1 -2.0 -11.3 L-2.0 -11.25 -2.05 -11.0 -2.25 -10.55 -3.25 -8.8 -4.35 -6.45 -4.5 -5.6 -1.25 -5.65 -1.0 -5.65 11.6 -6.15 18.95 -7.15 19.65 -7.4 21.7 -8.35 Q23.1 -9.15 25.0 -9.5 L25.7 -9.35 Q26.0 -9.25 26.0 -8.5 L26.0 -8.35 23.5 -5.8 21.7 -5.2 21.7 -5.15 Q19.05 -4.45 14.8 -4.0 L3.5 -3.5 Q-3.4 -3.5 -5.7 -4.25 M14.95 -23.1 Q21.25 -21.95 28.0 -17.5 29.9 -16.5 31.85 -14.4 L34.75 -11.1 36.4 -9.65 Q37.3 -8.75 37.5 -7.95 38.55 -7.4 39.75 -6.1 L43.3 -1.35 Q46.5 4.5 46.5 7.35 L46.3 10.1 46.75 11.2 Q47.2 12.7 47.5 15.55 49.5 22.85 49.5 23.8 49.5 24.7 48.45 25.45 L48.5 28.0 Q48.5 28.4 48.85 29.5 49.0 30.6 48.3 31.3 47.7 31.95 46.4 32.4 L46.8 36.45 47.0 41.5 Q46.85 44.6 48.9 46.85 51.0 49.15 51.0 50.5 51.0 55.0 44.5 55.0 L41.7 54.65 39.3 54.25 32.5 53.5 Q31.8 53.15 31.5 51.75 L30.25 47.55 Q29.55 45.3 28.5 39.3 L28.5 33.2 26.05 32.75 24.0 31.8 24.0 26.55 24.4 26.35 23.1 26.05 21.5 26.75 18.5 28.0 15.55 28.0 17.9 29.1 Q21.5 31.05 21.5 32.0 L21.5 32.2 21.8 32.25 22.0 33.0 22.0 48.25 Q23.1 48.5 24.5 49.9 27.0 52.5 27.0 53.85 27.0 54.6 26.6 54.8 25.4 55.45 20.55 55.75 L18.45 56.15 16.0 56.5 12.85 56.35 5.8 56.0 5.65 55.85 5.6 55.7 4.4 55.75 Q2.4 55.75 0.5 57.4 -4.8 59.0 -23.75 59.0 L-46.15 57.85 Q-53.65 57.0 -57.5 56.0 L-61.35 55.75 Q-65.0 55.45 -66.0 54.3 -66.5 53.7 -66.5 52.6 -66.5 51.1 -64.2 49.15 -61.75 47.0 -61.5 46.0 L-60.0 39.55 Q-59.6 37.5 -58.8 36.2 -57.6 34.35 -54.85 32.8 L-51.75 31.75 -46.1 30.25 -41.7 29.25 Q-40.45 28.95 -39.5 28.05 -37.4 26.2 -36.95 22.0 -36.4 17.1 -35.1 15.05 -34.1 13.45 -32.35 8.8 -30.65 4.15 -29.5 2.3 -25.1 -4.7 -18.1 -9.75 -16.25 -11.05 -13.45 -11.95 L-4.85 -14.6 Q-3.25 -15.1 -1.35 -16.75 L2.05 -20.0 Q7.0 -24.5 14.95 -23.1 M37.6 -4.95 L37.5 -5.05 37.5 -4.9 Q37.5 0.95 34.05 6.5 L39.8 6.25 42.1 5.9 44.3 5.6 Q43.7 3.05 41.5 -0.2 39.65 -3.0 37.6 -4.95 M44.45 7.1 Q42.45 7.65 40.5 8.5 L32.65 8.5 31.55 9.85 36.75 9.85 42.55 9.8 Q43.9 9.0 44.25 8.5 L44.5 7.35 44.5 7.1 44.45 7.1 M42.95 17.95 L43.25 19.6 46.1 19.1 45.25 16.35 43.9 11.85 42.0 12.5 41.25 12.5 Q42.3 14.8 42.95 17.95 M44.0 24.25 L45.75 23.95 47.3 23.3 46.6 20.8 45.55 21.35 43.65 21.95 44.0 24.25 M41.55 20.65 L41.35 19.5 40.0 12.75 40.2 12.5 39.15 12.5 40.5 18.3 Q41.5 23.8 41.5 25.4 L41.25 27.0 37.0 27.5 32.0 27.4 Q32.5 27.05 32.5 26.5 L32.5 19.5 32.55 15.2 Q32.65 13.5 33.0 12.5 L31.0 12.5 31.5 15.2 31.5 19.0 31.5 24.85 Q30.95 26.5 27.0 26.5 L25.3 26.45 Q26.0 27.75 26.0 30.3 L30.9 30.85 35.65 31.25 Q47.6 31.25 47.05 27.0 L46.8 26.2 44.25 26.5 42.0 26.25 42.0 25.45 41.75 21.85 Q41.5 21.95 41.5 20.9 L41.55 20.65 M44.45 32.9 L35.5 33.5 30.2 33.35 Q30.75 34.8 30.8 36.7 31.0 40.85 31.25 42.0 L33.55 51.75 40.85 52.35 44.65 52.75 Q46.8 52.75 48.0 51.55 L48.8 50.35 Q48.8 49.85 46.9 48.05 45.0 46.2 45.0 42.05 L44.75 37.45 44.5 33.8 44.45 32.9 M28.4 13.15 L24.3 16.75 24.55 19.5 24.55 19.85 24.8 19.3 29.05 19.0 29.0 17.4 29.05 14.55 Q29.2 13.3 29.6 12.5 L29.1 12.5 28.4 13.15 M25.15 21.0 L24.8 21.0 24.65 20.85 24.55 20.5 24.5 22.4 24.5 22.5 24.5 24.25 25.25 24.25 29.5 24.25 Q29.2 23.0 29.1 20.95 L29.0 21.0 25.15 21.0 M22.5 20.75 L22.55 18.2 20.8 19.65 Q18.05 21.95 16.3 23.8 L14.55 25.75 14.5 25.85 15.35 25.6 22.5 24.6 22.5 20.75 M37.55 12.5 L33.9 12.5 Q34.55 14.6 34.55 18.25 L34.55 19.55 35.0 19.5 35.7 19.7 36.0 20.25 37.25 20.15 38.55 20.25 Q37.5 14.85 37.5 13.25 L37.55 12.5 M36.15 22.0 L35.3 22.0 35.3 21.9 35.0 22.0 34.5 21.9 34.5 22.15 34.5 24.8 34.5 25.25 35.45 25.25 39.25 25.25 39.5 25.25 39.35 24.55 38.85 22.0 38.85 21.85 38.6 22.0 38.5 22.0 36.15 22.0 M10.8 34.2 L13.0 32.75 15.9 31.2 14.95 30.75 Q13.15 29.85 12.45 29.1 11.25 31.4 10.7 33.95 L10.65 34.3 Q10.7 34.2 10.8 34.2 M10.35 35.85 L9.65 40.45 10.35 40.0 Q12.2 38.85 14.55 37.8 16.1 37.05 17.05 35.4 L18.5 33.0 17.5 32.15 Q17.35 33.0 14.8 34.5 12.3 36.0 11.5 36.0 L10.35 35.85 M11.0 48.0 L10.2 54.0 13.55 54.25 Q17.95 54.6 17.95 54.3 17.25 53.55 17.8 52.75 L19.9 49.2 19.85 48.0 20.0 43.0 19.65 35.95 17.55 38.25 Q14.7 41.2 12.3 42.1 L11.85 43.9 Q11.15 46.35 11.0 48.0 M21.0 53.25 L24.3 53.25 23.05 51.8 Q22.5 51.3 22.0 51.1 L22.0 52.5 21.0 53.0 20.85 52.75 20.8 52.8 20.55 53.25 21.0 53.25 M7.9 53.6 L7.95 54.0 8.05 54.0 8.0 53.55 7.9 53.55 7.9 53.6" fill="#000000" fill-rule="evenodd" stroke="none"/>
      <path d="M37.5 -4.9 L37.6 -4.95 Q39.65 -3.0 41.5 -0.2 43.7 3.05 44.3 5.6 L42.1 5.9 39.8 6.25 34.05 6.5 Q37.5 0.95 37.5 -4.9 M22.5 20.75 L22.5 24.6 15.35 25.6 14.5 25.85 14.55 25.75 16.3 23.8 Q18.05 21.95 20.8 19.65 L22.55 18.2 22.5 20.75 M11.0 48.0 Q11.15 46.35 11.85 43.9 L12.3 42.1 Q14.7 41.2 17.55 38.25 L19.65 35.95 20.0 43.0 19.85 48.0 19.9 49.2 17.8 52.75 Q17.25 53.55 17.95 54.3 17.95 54.6 13.55 54.25 L10.2 54.0 11.0 48.0 M21.0 53.0 L22.0 52.5 22.0 51.1 Q22.5 51.3 23.05 51.8 L24.3 53.25 21.0 53.25 21.0 53.0" fill="#333333" fill-rule="evenodd" stroke="none"/>
      <path d="M44.0 24.25 L43.65 21.95 45.55 21.35 46.6 20.8 47.3 23.3 45.75 23.95 44.0 24.25 M24.5 22.4 Q24.55 21.35 25.15 21.0 L29.0 21.0 29.1 20.95 Q29.2 23.0 29.5 24.25 L25.25 24.25 25.0 24.0 24.5 22.5 24.5 22.4 M34.5 22.15 L36.15 22.0 38.5 22.0 38.6 22.0 38.85 22.0 39.35 24.55 39.5 25.2 39.25 25.25 35.45 25.25 34.5 24.8 34.5 22.15" fill="#cc9d3c" fill-rule="evenodd" stroke="none"/>
      <path d="M42.95 17.95 Q42.3 14.8 41.25 12.5 L42.0 12.5 43.9 11.85 45.25 16.35 46.1 19.1 43.25 19.6 42.95 17.95 M24.5 22.4 L24.55 20.5 24.65 20.85 24.8 21.0 25.15 21.0 Q24.55 21.35 24.5 22.4 M28.4 13.15 L29.1 12.5 29.6 12.5 Q29.2 13.3 29.05 14.55 L29.0 17.4 29.05 19.0 24.8 19.3 24.55 19.85 24.55 19.5 24.3 16.75 28.4 13.15 M25.25 24.25 L24.5 24.25 24.5 22.5 25.0 24.0 25.25 24.25 M34.5 22.15 L34.5 21.9 35.0 22.0 35.3 21.9 35.3 22.0 36.15 22.0 34.5 22.15 M37.55 12.5 L37.5 13.25 Q37.5 14.85 38.55 20.25 L37.25 20.15 36.0 20.25 35.7 19.7 35.0 19.5 34.55 19.55 34.55 18.25 Q34.55 14.6 33.9 12.5 L37.55 12.5 M38.6 22.0 L38.85 21.85 38.85 22.0 38.6 22.0 M39.35 24.55 L39.5 25.25 39.25 25.25 39.5 25.2 39.35 24.55 M35.45 25.25 L34.5 25.25 34.5 24.8 35.45 25.25" fill="#e5e5e5" fill-rule="evenodd" stroke="none"/>
      <path d="M44.45 32.9 L44.5 33.8 44.75 37.45 45.0 42.05 Q45.0 46.2 46.9 48.05 48.8 49.85 48.8 50.35 L48.0 51.55 Q46.8 52.75 44.65 52.75 L40.85 52.35 33.55 51.75 31.25 42.0 Q31.0 40.85 30.8 36.7 30.75 34.8 30.2 33.35 L35.5 33.5 44.45 32.9" fill="#aa8a71" fill-rule="evenodd" stroke="none"/>
      <path d="M44.5 7.35 L44.25 8.5 Q43.9 9.0 42.55 9.8 L36.75 9.85 31.55 9.85 32.65 8.5 40.5 8.5 Q42.45 7.65 44.45 7.1 L44.5 7.35 M10.7 33.95 Q11.25 31.4 12.45 29.1 13.15 29.85 14.95 30.75 L15.9 31.2 13.0 32.75 10.8 34.2 10.7 33.95" fill="#8e6c24" fill-rule="evenodd" stroke="none"/>
      <path d="M22.55 -18.1 L17.3 -18.2 12.05 -17.75 Q11.6 -17.65 9.55 -16.55 L7.05 -15.25 1.05 -13.25 -0.75 -11.7 Q-1.65 -10.85 -2.25 -10.55 L-2.05 -11.0 -2.0 -11.25 -2.0 -11.3 Q-2.0 -12.1 -2.25 -12.25 L-3.0 -12.5 -3.45 -12.15 Q-4.8 -11.15 -5.65 -9.55 -6.5 -7.85 -6.5 -6.1 L-6.7 -5.65 -6.8 -5.5 Q-7.0 -4.95 -6.45 -4.6 -6.15 -4.4 -5.7 -4.25 -6.25 -3.1 -8.15 -0.8 L-11.35 3.25 Q-12.05 4.7 -11.85 7.65 L-11.5 11.25 -11.6 13.75 -11.8 13.9 -12.35 14.0 Q-15.5 11.75 -15.5 5.05 -15.5 1.35 -14.0 -2.75 L-12.5 -7.05 Q-12.5 -7.95 -12.65 -8.25 L-13.5 -9.0 Q-17.9 -3.4 -19.95 2.45 -22.0 8.3 -22.0 15.1 L-22.05 17.55 -22.0 17.65 Q-22.85 20.2 -23.35 23.2 -24.15 27.7 -24.85 36.25 L-24.9 36.4 -25.75 36.5 Q-27.55 36.5 -28.65 33.7 L-29.0 32.75 -28.6 32.75 -28.6 27.35 -28.5 22.55 Q-28.35 21.15 -27.1 17.5 -26.0 14.2 -26.0 12.6 -26.0 11.8 -26.25 11.7 L-27.0 11.5 Q-33.0 18.85 -33.0 31.0 L-32.8 32.55 -32.7 32.95 -33.2 33.3 -33.75 33.6 -33.85 33.55 -33.9 33.55 -34.0 33.5 -34.6 34.05 -35.45 34.45 -38.55 35.4 -38.85 35.45 -42.9 36.25 -43.25 36.35 -49.5 37.5 -54.6 37.5 -54.8 37.35 Q-55.0 37.15 -55.0 36.4 L-54.7 35.95 -55.0 35.6 Q-52.95 33.75 -49.75 33.1 L-44.2 32.25 Q-40.95 31.7 -39.1 30.5 -36.3 28.6 -35.6 24.95 -35.15 20.75 -34.5 18.8 L-31.65 12.45 Q-29.55 8.0 -29.0 6.05 -28.2 3.35 -25.05 -0.15 L-18.85 -6.25 Q-16.4 -8.6 -14.7 -9.5 -12.1 -10.9 -8.0 -11.5 -5.25 -11.85 -3.3 -12.9 L-3.2 -12.95 -1.85 -13.85 1.5 -16.6 Q7.05 -22.65 13.85 -21.55 L14.0 -21.5 21.85 -18.45 22.6 -18.1 22.55 -18.1 M41.55 20.65 L41.5 20.9 Q41.5 21.95 41.75 21.85 L42.0 25.45 42.0 26.25 44.25 26.5 46.8 26.2 47.05 27.0 Q47.6 31.25 35.65 31.25 L30.9 30.85 26.0 30.3 Q26.0 27.75 25.3 26.45 L27.0 26.5 Q30.95 26.5 31.5 24.85 L31.5 19.0 31.5 15.2 31.0 12.5 33.0 12.5 Q32.65 13.5 32.55 15.2 L32.5 19.5 32.5 26.5 Q32.5 27.05 32.0 27.4 L37.0 27.5 41.25 27.0 41.5 25.4 Q41.5 23.8 40.5 18.3 L39.15 12.5 40.2 12.5 40.0 12.75 41.35 19.5 41.55 20.65" fill="#942403" fill-rule="evenodd" stroke="none"/>
      <path d="M-2.25 -10.55 Q-1.65 -10.85 -0.75 -11.7 L1.05 -13.25 7.05 -15.25 9.55 -16.55 Q11.6 -17.65 12.05 -17.75 L17.3 -18.2 22.55 -18.1 26.5 -16.0 29.8 -13.45 28.95 -13.95 Q25.95 -15.5 23.0 -13.0 L22.05 -11.95 Q21.05 -11.0 19.2 -10.3 13.5 -8.1 0.0 -8.1 -1.75 -8.1 -1.85 -8.85 L-2.25 -10.55 M-55.0 35.6 L-54.7 35.95 -55.0 36.4 Q-55.0 37.15 -54.8 37.35 L-54.6 37.5 -49.5 37.5 -43.25 36.35 -42.9 36.25 -38.85 35.45 -38.55 35.4 -35.45 34.45 -34.6 34.05 Q-38.6 37.55 -39.75 39.2 -41.5 41.55 -41.5 44.55 L-41.55 46.8 Q-40.6 49.0 -35.75 49.0 -31.05 49.0 -26.35 46.65 -24.3 45.6 -12.75 38.55 -7.85 35.55 -4.95 31.2 L-1.0 24.0 Q1.15 20.05 4.3 16.6 7.95 12.5 11.75 10.55 15.2 8.7 20.2 4.75 24.4 1.4 26.05 -0.9 25.7 1.1 21.45 7.15 17.15 13.25 16.0 14.05 10.5 17.7 6.7 22.15 4.25 25.0 1.55 29.5 L-2.6 37.3 Q-5.15 42.2 -7.25 44.8 -11.85 50.65 -16.1 52.25 -19.0 53.3 -21.15 55.45 L-22.45 56.75 -23.75 56.75 -52.8 55.6 -50.95 54.9 Q-48.2 53.75 -45.9 53.75 L-40.5 53.8 Q-39.5 53.7 -39.5 52.05 -39.5 51.5 -44.0 45.65 -48.6 39.6 -49.5 39.5 -52.9 39.65 -53.05 41.55 L-52.75 44.8 -53.35 48.1 -54.0 51.0 Q-54.2 50.0 -55.75 50.0 -56.5 50.0 -57.5 51.05 -58.5 52.1 -58.5 52.9 -58.5 53.6 -58.1 54.05 L-58.95 53.7 Q-60.75 53.0 -64.1 52.8 L-64.1 52.5 Q-60.3 50.6 -59.2 47.1 L-58.0 40.8 Q-57.15 37.55 -55.0 35.6 M-33.2 33.3 L-32.7 32.95 -32.8 32.55 -33.0 31.0 Q-33.0 18.85 -27.0 11.5 L-26.25 11.7 Q-26.0 11.8 -26.0 12.6 -26.0 14.2 -27.1 17.5 -28.35 21.15 -28.5 22.55 L-28.6 27.35 -28.6 32.75 -29.0 32.75 -28.65 33.7 Q-27.55 36.5 -25.75 36.5 L-24.9 36.4 -24.85 36.25 Q-24.15 27.7 -23.35 23.2 -22.85 20.2 -22.0 17.65 L-22.05 17.55 -22.0 15.1 Q-22.0 8.3 -19.95 2.45 -17.9 -3.4 -13.5 -9.0 L-12.65 -8.25 Q-12.5 -7.95 -12.5 -7.05 L-14.0 -2.75 Q-15.5 1.35 -15.5 5.05 -15.5 11.75 -12.35 14.0 L-11.8 13.9 -11.6 13.75 -11.5 11.25 -11.85 7.65 Q-12.05 4.7 -11.35 3.25 L-8.15 -0.8 Q-6.25 -3.1 -5.7 -4.25 -3.4 -3.5 3.5 -3.5 L14.8 -4.0 Q19.05 -4.45 21.7 -5.15 L20.4 -3.2 Q17.8 1.15 13.25 3.0 8.0 5.1 -7.0 13.5 -7.0 14.5 -3.85 17.8 -5.75 19.95 -7.9 24.25 L-8.95 26.35 Q-9.35 26.45 -9.6 26.8 L-12.1 29.55 Q-14.5 31.0 -15.35 31.3 -18.15 32.4 -20.9 32.7 -22.5 32.9 -22.5 33.4 L-22.3 34.35 -22.1 34.5 Q-18.35 34.4 -18.45 35.7 -18.5 36.6 -17.7 36.9 L-18.0 37.05 -21.35 38.85 Q-23.05 39.75 -23.85 40.5 -26.05 42.45 -28.35 41.9 -30.6 41.4 -32.0 42.8 L-32.55 41.75 Q-33.0 41.05 -33.0 40.35 L-32.2 36.8 Q-31.8 34.65 -33.2 33.3 M11.6 -6.15 L12.95 -6.25 15.0 -6.55 19.1 -7.2 19.65 -7.4 18.95 -7.15 11.6 -6.15 M17.35 4.25 L16.05 5.3 Q16.15 4.65 17.0 4.35 L17.35 4.25 M-15.75 38.55 L-19.45 40.95 -20.0 40.8 -15.75 38.55 M-18.0 56.7 L-18.5 56.7 -18.0 56.4 -18.0 56.7 M10.35 35.85 L11.5 36.0 Q12.3 36.0 14.8 34.5 17.35 33.0 17.5 32.15 L18.5 33.0 17.05 35.4 Q16.1 37.05 14.55 37.8 12.2 38.85 10.35 40.0 L9.65 40.45 10.35 35.85 M-4.35 -6.45 L-4.0 -6.15 -1.25 -5.65 -4.5 -5.6 -4.35 -6.45" fill="#731c02" fill-rule="evenodd" stroke="none"/>
      <path d="M-33.85 33.55 L-33.75 33.6 -33.2 33.3 Q-31.8 34.65 -32.2 36.8 L-33.0 40.35 Q-33.0 41.05 -32.55 41.75 L-32.0 42.8 Q-30.6 41.4 -28.35 41.9 -26.05 42.45 -23.85 40.5 -23.05 39.75 -21.35 38.85 L-18.0 37.05 -17.7 36.9 Q-18.5 36.6 -18.45 35.7 -18.35 34.4 -22.1 34.5 L-22.3 34.35 -22.5 33.4 Q-22.5 32.9 -20.9 32.7 -18.15 32.4 -15.35 31.3 -14.5 31.0 -12.1 29.55 L-9.6 26.8 Q-9.35 26.45 -8.95 26.35 L-7.9 24.25 Q-5.75 19.95 -3.85 17.8 -7.0 14.5 -7.0 13.5 8.0 5.1 13.25 3.0 17.8 1.15 20.4 -3.2 L21.7 -5.15 21.7 -5.2 23.5 -5.8 26.0 -8.35 26.0 -8.5 Q26.0 -9.25 25.7 -9.35 L25.0 -9.5 Q23.1 -9.15 21.7 -8.35 L19.65 -7.4 19.1 -7.2 15.0 -6.55 12.95 -6.25 11.6 -6.15 -1.0 -5.65 -1.25 -5.65 -4.0 -6.15 -4.35 -6.45 -3.25 -8.8 -2.25 -10.55 -1.85 -8.85 Q-1.75 -8.1 0.0 -8.1 13.5 -8.1 19.2 -10.3 21.05 -11.0 22.05 -11.95 L23.0 -13.0 Q25.95 -15.5 28.95 -13.95 L29.8 -13.45 31.25 -11.95 31.3 -11.9 32.3 -10.7 Q35.5 -6.7 35.5 -4.5 35.5 -1.7 32.3 3.85 29.1 9.4 26.3 11.25 24.35 12.55 21.8 14.7 L17.55 18.3 Q15.95 19.65 14.0 22.55 L11.3 26.55 Q8.65 29.7 8.1 34.45 L7.0 42.3 5.65 46.15 Q4.9 48.45 5.0 50.25 L5.4 51.5 Q5.4 52.75 3.6 53.7 -1.2 56.35 -18.0 56.7 L-18.0 56.4 -18.5 56.7 -22.45 56.75 -21.15 55.45 Q-19.0 53.3 -16.1 52.25 -11.85 50.65 -7.25 44.8 -5.15 42.2 -2.6 37.3 L1.55 29.5 Q4.25 25.0 6.7 22.15 10.5 17.7 16.0 14.05 17.15 13.25 21.45 7.15 25.7 1.1 26.05 -0.9 26.95 -2.25 27.0 -3.25 L27.0 -3.3 27.0 -3.4 Q27.0 -4.25 26.7 -4.55 L26.65 -4.6 26.45 -4.75 26.0 -5.0 20.5 1.1 17.35 4.25 17.0 4.35 Q16.15 4.65 16.05 5.3 L12.45 7.85 11.55 8.3 Q3.2 12.65 -1.5 20.8 L-5.4 28.15 Q-7.85 32.45 -11.1 35.05 L-15.75 38.55 -20.0 40.8 -19.45 40.95 -20.35 41.45 Q-24.2 43.7 -27.5 45.0 -32.0 46.75 -35.5 46.75 -38.4 46.75 -39.1 46.05 -39.5 45.7 -39.5 44.15 -39.5 42.75 -36.6 38.9 L-35.65 37.7 -35.65 37.65 -34.55 36.3 -33.0 34.5 Q-33.15 33.95 -33.75 33.65 L-33.85 33.55 M-52.8 55.6 L-55.5 55.05 -58.1 54.05 Q-58.5 53.6 -58.5 52.9 -58.5 52.1 -57.5 51.05 -56.5 50.0 -55.75 50.0 -54.2 50.0 -54.0 51.0 L-53.35 48.1 -52.75 44.8 -53.05 41.55 Q-52.9 39.65 -49.5 39.5 -48.6 39.6 -44.0 45.65 -39.5 51.5 -39.5 52.05 -39.5 53.7 -40.5 53.8 L-45.9 53.75 Q-48.2 53.75 -50.95 54.9 L-52.8 55.6" fill="#5a1501" fill-rule="evenodd" stroke="none"/>
    </g>
    <g id="shape2" transform="matrix(1.0, 0.0, 0.0, 1.0, 34.55, 64.1)">
      <path d="M25.05 -12.05 L25.15 -12.1 25.9 -12.35 28.0 -12.75 29.6 -12.65 Q23.85 -25.35 7.85 -25.35 L3.8 -25.15 -1.55 -24.3 Q-8.45 -22.6 -12.65 -18.05 L-13.4 -17.2 -13.8 -16.65 -13.85 -16.6 Q-14.95 -15.2 -15.85 -13.45 L-15.9 -13.4 Q-17.8 -9.75 -18.85 -4.8 L-19.6 -0.2 -19.45 0.4 -19.45 0.45 -19.4 0.85 -19.35 1.25 -19.3 4.65 -19.3 4.7 -19.3 4.8 -19.3 4.85 -19.3 4.95 -19.3 5.1 -19.3 5.15 -19.3 5.35 -19.4 7.0 -19.75 12.15 -19.8 12.85 -19.95 14.9 -19.95 15.25 -20.0 15.45 -19.95 15.55 -17.0 15.45 -16.25 15.5 -12.15 15.75 -12.1 15.75 -12.15 15.35 Q-12.15 14.75 -11.6 13.95 -11.1 13.15 -11.1 12.5 -11.1 10.05 -9.35 4.2 L-7.9 -0.15 -8.15 -0.6 -7.7 -2.95 Q-7.25 -4.65 -7.25 -5.3 L-6.75 -6.85 -6.15 -8.1 -6.3 -9.0 -6.45 -9.6 -6.45 -9.55 -6.5 -10.15 -6.5 -10.35 -6.5 -10.4 -6.55 -10.75 -6.3 -11.0 -6.15 -11.15 -5.45 -11.4 -1.95 -11.6 2.75 -11.0 25.05 -12.05 M-4.65 -3.3 L1.15 -3.9 3.45 -3.5 5.15 -3.25 15.6 -3.75 19.65 -4.4 25.9 -5.3 27.6 -5.5 31.8 -5.75 30.5 -10.45 28.35 -10.25 26.0 -10.35 26.25 -9.7 21.4 -9.55 Q16.2 -9.45 10.85 -9.65 L7.85 -9.2 4.8 -8.75 0.15 -9.15 -3.8 -9.5 -4.0 -8.3 -4.1 -8.05 -4.05 -7.75 -4.95 -3.45 -4.95 -3.35 -5.0 -3.2 -4.65 -3.3 M26.0 -2.75 L20.9 -2.1 19.25 -2.15 12.75 -1.75 -5.1 -1.05 -5.5 -1.05 -5.9 1.1 -6.1 1.25 -6.9 3.7 Q-8.25 7.45 -8.25 8.35 -8.25 9.95 -9.1 12.5 L-10.2 16.45 -10.0 17.05 -11.75 17.7 -12.95 17.85 -14.8 18.05 -15.1 18.1 -16.25 18.1 -18.55 18.0 -19.45 17.9 -22.5 17.4 -22.5 17.3 -22.55 17.3 -26.25 18.75 Q-32.05 21.1 -32.05 22.15 L-32.05 22.25 -32.0 22.8 -31.95 22.9 -31.9 22.95 -31.8 23.15 -21.85 23.15 -17.05 23.15 -16.85 23.15 -14.0 23.15 Q-8.0 23.1 -6.8 14.8 L-6.05 8.2 Q-5.65 5.35 -4.75 4.0 L-4.8 3.3 -4.9 2.8 -3.55 2.55 -2.25 2.5 -2.2 2.5 -1.85 2.45 2.1 2.4 19.5 2.65 28.1 2.85 29.6 2.85 30.0 2.85 30.95 2.9 31.0 2.85 31.35 2.75 32.05 2.6 32.05 3.05 33.1 3.05 35.3 3.0 35.4 3.0 37.3 3.0 37.4 2.95 37.5 2.1 Q37.5 1.3 36.2 0.35 L34.65 -1.45 32.3 -2.85 32.25 -3.05 32.2 -3.7 32.15 -3.7 29.15 -3.25 28.4 -3.1 28.25 -3.1 26.0 -2.75 M31.7 -11.6 Q32.8 -8.45 33.6 -3.95 L35.25 -3.45 37.25 -1.6 38.8 0.45 Q39.5 1.75 39.5 2.4 39.5 3.8 38.95 4.15 37.3 5.3 30.7 5.5 L31.15 8.35 31.2 13.75 31.5 16.6 Q31.65 19.0 31.2 20.7 29.8 25.9 22.2 25.9 L19.15 25.7 Q17.15 27.9 10.45 27.9 1.05 27.9 -0.3 25.65 L-0.6 24.9 -0.8 24.9 Q-3.15 24.9 -4.9 23.7 -4.9 24.05 -5.35 24.3 -7.45 25.4 -23.3 25.4 -32.0 25.4 -34.0 23.8 -34.65 23.3 -34.55 22.65 L-34.3 22.05 Q-34.3 20.75 -30.0 18.15 -25.45 15.4 -22.55 15.4 L-22.1 15.4 -22.2 15.25 -22.25 15.1 -22.3 13.9 Q-22.55 8.05 -22.4 5.05 -22.25 2.05 -21.6 0.35 L-21.8 -0.85 Q-21.8 -3.7 -20.2 -8.2 -18.1 -14.05 -14.45 -18.45 -3.85 -31.1 15.25 -26.85 27.25 -22.45 31.2 -12.85 L31.5 -12.1 31.65 -11.75 31.7 -11.6 M28.7 5.3 L28.8 4.9 28.7 4.9 28.7 5.3 M20.7 23.7 Q28.2 23.7 29.2 14.7 L29.35 12.4 Q22.15 12.45 17.05 14.1 L15.65 14.7 19.5 15.15 19.7 21.15 20.0 22.65 20.05 23.25 20.4 23.35 20.7 23.7 M17.8 9.75 L18.7 9.9 Q19.95 9.9 19.75 9.65 L20.05 9.2 20.2 8.15 20.1 7.05 20.0 6.65 18.05 6.55 17.65 6.6 17.2 6.55 17.2 6.65 17.2 9.65 17.25 9.9 17.8 9.75 M9.85 4.7 L1.1 4.5 0.95 4.95 0.9 5.0 1.2 9.05 1.2 14.25 Q1.2 19.0 1.35 20.35 1.85 24.1 3.75 25.65 L17.7 25.65 17.7 17.4 17.5 16.95 Q11.7 18.55 10.15 14.05 9.7 12.7 9.7 8.0 L9.75 5.4 9.85 4.7" fill="#000000" fill-rule="evenodd" stroke="none"/>
      <path d="M12.75 -1.75 Q14.5 -1.6 16.6 -1.75 L19.15 -1.9 20.8 -2.05 25.4 -2.45 25.45 -2.45 25.65 -2.45 25.9 -2.5 26.0 -2.75 28.25 -3.1 29.65 -1.6 33.1 3.05 32.05 3.05 32.05 2.6 31.35 2.75 31.0 2.85 30.95 2.9 30.0 2.85 29.85 2.7 29.6 2.85 28.1 2.85 19.5 2.65 2.1 2.4 -1.85 2.45 -2.2 2.5 -2.25 2.5 -3.55 2.25 -3.55 2.55 -4.9 2.8 -4.8 3.3 -4.75 4.0 Q-5.65 5.35 -6.05 8.2 L-6.8 14.8 Q-8.0 23.1 -14.0 23.15 L-16.85 23.15 -16.85 22.8 -17.05 23.15 -21.85 23.15 -21.85 23.05 Q-21.85 21.75 -19.05 18.55 L-18.55 18.0 -16.25 18.1 -15.1 18.1 -14.8 18.05 -12.95 17.85 -11.75 17.7 -10.0 17.05 -10.2 16.45 -9.1 12.5 Q-8.25 9.95 -8.25 8.35 -8.25 7.45 -6.9 3.7 L-6.1 1.25 -5.9 1.1 -5.5 -1.05 -5.1 -1.05 12.75 -1.75" fill="#8e6c24" fill-rule="evenodd" stroke="none"/>
      <path d="M20.7 23.7 L20.4 23.35 20.05 23.25 20.0 22.65 19.7 21.15 19.5 15.15 15.65 14.7 17.05 14.1 Q22.15 12.45 29.35 12.4 L29.2 14.7 Q28.2 23.7 20.7 23.7" fill="#aa8a71" fill-rule="evenodd" stroke="none"/>
      <path d="M17.65 6.6 L18.05 6.55 20.0 6.65 20.1 7.05 20.2 8.15 20.05 9.2 19.75 9.65 Q19.95 9.9 18.7 9.9 L17.8 9.75 17.2 9.65 17.2 6.65 17.65 6.6" fill="#ffffff" fill-rule="evenodd" stroke="none"/>
      <path d="M3.8 -25.15 L0.7 -24.7 -1.55 -24.3 3.8 -25.15 M-13.85 -16.6 L-14.95 -14.45 -15.85 -13.45 Q-14.95 -15.2 -13.85 -16.6 M-18.85 -4.8 L-18.05 -5.75 -19.4 -0.35 -19.45 0.4 -19.6 -0.2 -18.85 -4.8" fill="#5b6171" fill-rule="evenodd" stroke="none"/>
      <path d="M-16.25 15.5 L-16.25 14.7 -16.3 8.55 -16.25 2.45 Q-15.7 -7.8 -9.9 -14.5 -3.45 -21.95 7.35 -21.95 19.85 -21.95 25.15 -12.1 L25.05 -12.05 2.75 -11.0 -1.95 -11.6 -5.45 -11.4 -6.15 -11.15 -6.3 -11.0 -6.55 -10.75 -6.5 -10.4 -6.5 -10.35 -6.5 -10.15 -6.45 -9.55 -6.45 -9.6 -6.3 -9.0 -6.15 -8.1 -6.75 -6.85 -7.25 -5.3 Q-7.25 -4.65 -7.7 -2.95 L-8.15 -0.6 -7.9 -0.15 -9.35 4.2 Q-11.1 10.05 -11.1 12.5 -11.1 13.15 -11.6 13.95 -12.15 14.75 -12.15 15.35 L-12.15 15.75 -16.25 15.5 M27.6 -5.5 L25.9 -5.3 19.65 -4.4 15.6 -3.75 5.15 -3.25 3.45 -3.5 1.15 -3.9 -4.65 -3.3 -4.95 -3.35 -4.95 -3.45 -4.05 -7.75 -4.1 -8.05 -4.0 -8.3 -3.8 -9.5 0.15 -9.15 4.8 -8.75 7.85 -9.2 10.85 -9.65 Q16.2 -9.45 21.4 -9.55 L26.25 -9.7 26.55 -8.95 27.6 -5.5 M9.85 4.7 L9.75 5.4 9.7 8.0 Q9.7 12.7 10.15 14.05 11.7 18.55 17.5 16.95 L17.7 17.4 17.7 25.65 3.75 25.65 Q1.85 24.1 1.35 20.35 1.2 19.0 1.2 14.25 L1.2 9.05 0.9 5.0 0.95 4.95 1.1 4.5 9.85 4.7" fill="#333333" fill-rule="evenodd" stroke="none"/>
      <path d="M3.8 -25.15 L7.85 -25.35 Q23.85 -25.35 29.6 -12.65 L28.0 -12.75 25.9 -12.35 25.15 -12.1 25.05 -12.05 25.15 -12.1 Q19.85 -21.95 7.35 -21.95 -3.45 -21.95 -9.9 -14.5 -15.7 -7.8 -16.25 2.45 L-16.3 8.55 -16.25 14.7 -16.25 15.5 -17.0 15.45 -19.95 15.55 -20.0 15.45 -19.95 15.25 -19.95 14.9 -19.8 12.85 -19.75 12.15 -19.4 7.0 -19.3 5.35 -19.3 5.15 -19.3 5.1 -19.3 4.95 -19.3 4.85 -19.3 4.8 -19.3 4.7 -19.3 4.65 -19.35 1.25 -19.4 0.85 -19.45 0.45 -19.45 0.4 -19.4 -0.35 -18.05 -5.75 -18.85 -4.8 Q-17.8 -9.75 -15.9 -13.4 L-15.85 -13.45 -14.95 -14.45 -13.85 -16.6 -13.8 -16.65 -13.4 -17.2 -12.65 -18.05 Q-8.45 -22.6 -1.55 -24.3 L0.7 -24.7 3.8 -25.15 M-12.15 15.35 L-12.1 15.75 -12.15 15.75 -12.15 15.35 M27.6 -5.5 L26.55 -8.95 26.25 -9.7 26.0 -10.35 28.35 -10.25 30.5 -10.45 31.8 -5.75 27.6 -5.5 M-4.95 -3.35 L-4.65 -3.3 -5.0 -3.2 -4.95 -3.35 M12.75 -1.75 L19.25 -2.15 20.9 -2.1 26.0 -2.75 25.9 -2.5 25.65 -2.45 25.45 -2.45 25.4 -2.45 20.8 -2.05 19.15 -1.9 16.6 -1.75 Q14.5 -1.6 12.75 -1.75 M-2.25 2.5 L-3.55 2.55 -3.55 2.25 -2.25 2.5 M29.0 -2.75 L29.35 -2.5 29.05 -2.7 29.0 -2.7 29.0 -2.75" fill="#666666" fill-rule="evenodd" stroke="none"/>
      <path d="M28.4 -3.1 L29.15 -3.25 29.0 -2.75 28.4 -3.1 M32.15 -3.7 L32.2 -3.7 32.25 -3.05 32.15 -3.7 M35.4 3.0 L35.3 3.0 35.05 2.75 35.4 3.0 M-31.9 22.95 L-31.95 22.9 -31.9 22.85 -31.9 22.95" fill="#999999" fill-rule="evenodd" stroke="none"/>
      <path d="M-22.55 17.3 L-22.5 17.3 -22.5 17.4 -22.55 17.3" fill="#8b6b28" fill-rule="evenodd" stroke="none"/>
      <path d="M28.25 -3.1 L28.4 -3.1 29.0 -2.75 29.15 -3.25 32.15 -3.7 32.25 -3.05 32.3 -2.85 34.65 -1.45 36.2 0.35 Q37.5 1.3 37.5 2.1 L37.4 2.95 37.3 3.0 35.4 3.0 35.05 2.75 35.3 3.0 33.1 3.05 29.65 -1.6 28.25 -3.1 M30.0 2.85 L29.6 2.85 29.85 2.7 30.0 2.85 M-16.85 23.15 L-17.05 23.15 -16.85 22.8 -16.85 23.15 M-21.85 23.15 L-31.8 23.15 -31.9 22.95 -31.9 22.85 -31.95 22.9 -32.0 22.8 -32.05 22.25 -32.05 22.15 Q-32.05 21.1 -26.25 18.75 L-22.55 17.3 -22.5 17.4 -19.45 17.9 -18.55 18.0 -19.05 18.55 Q-21.85 21.75 -21.85 23.05 L-21.85 23.15 M29.0 -2.75 L29.0 -2.7 29.05 -2.7 29.35 -2.5 29.0 -2.75" fill="#cc9d3c" fill-rule="evenodd" stroke="none"/>
      <path d="M10.9 -60.35 Q0.8 -60.35 -4.9 -52.6 -8.1 -48.25 -11.75 -37.2 -13.45 -32.2 -13.35 -24.85 L-13.25 -13.35 -11.6 -15.0 -8.0 -17.95 -8.2 -18.9 -8.25 -21.35 Q-8.25 -27.9 -4.3 -35.05 0.4 -43.65 7.25 -43.95 16.55 -48.55 21.05 -35.3 22.5 -31.1 23.25 -25.55 L23.45 -24.15 24.5 -23.35 28.35 -19.45 28.8 -18.95 29.25 -18.7 28.55 -29.45 Q28.15 -35.95 26.75 -40.1 L25.25 -45.35 23.5 -50.95 23.0 -52.85 Q22.45 -54.65 21.4 -56.05 18.2 -60.35 10.9 -60.35 M3.65 -61.7 L-2.25 -61.1 -9.7 -59.35 Q-10.95 -59.0 -13.3 -57.3 L-16.0 -54.95 -19.1 -50.45 Q-21.1 -47.55 -21.85 -45.35 -24.95 -36.75 -25.25 -34.4 L-25.25 -25.45 Q-24.75 -16.85 -24.75 -12.35 L-14.7 -12.1 Q-15.35 -13.0 -15.35 -14.25 L-15.25 -17.1 -15.3 -20.0 -15.25 -22.5 Q-15.25 -30.45 -14.95 -32.55 -14.45 -35.85 -11.75 -44.1 -8.45 -54.05 0.3 -59.8 L3.65 -61.7 M8.05 -63.95 L8.25 -63.3 Q12.7 -64.25 16.75 -62.6 21.95 -60.25 25.1 -52.25 L28.3 -41.85 Q29.9 -37.5 30.4 -31.1 L31.25 -20.45 31.25 -15.2 31.15 -14.9 30.5 -14.6 29.75 -14.5 Q28.25 -14.5 26.3 -17.3 L23.25 -21.35 18.9 -23.8 Q15.8 -25.45 15.0 -26.85 L15.85 -27.4 15.35 -27.4 15.25 -27.95 Q15.0 -29.15 13.3 -32.55 11.9 -35.4 11.1 -36.15 L11.2 -35.25 11.25 -31.85 Q11.25 -26.65 11.05 -26.2 10.45 -25.1 6.25 -25.1 L3.65 -25.5 Q2.0 -25.95 1.75 -26.2 L1.75 -32.0 Q0.7 -30.4 0.0 -28.25 -1.55 -23.35 -0.95 -17.95 -0.8 -17.7 -1.3 -17.65 -1.6 -16.7 -3.05 -16.05 -4.1 -15.6 -6.25 -15.1 L-7.0 -15.3 -7.25 -16.15 -9.8 -13.45 Q-12.55 -10.7 -13.55 -10.2 L-13.6 -10.1 -13.75 -10.1 -25.75 -9.6 Q-27.05 -11.05 -27.2 -13.25 L-27.25 -17.35 -27.25 -25.0 -27.15 -34.5 Q-26.7 -37.6 -23.75 -46.2 -23.0 -48.3 -21.2 -51.2 L-18.0 -56.2 Q-17.45 -57.2 -15.45 -58.85 -13.25 -60.65 -11.75 -61.1 L-6.15 -62.9 7.8 -64.1 8.05 -63.95 M21.05 -25.8 L20.25 -31.85 Q19.9 -33.95 17.9 -37.65 15.6 -41.95 14.0 -41.95 5.2 -41.95 2.35 -40.2 -0.8 -38.25 -3.75 -30.45 -6.05 -24.35 -6.2 -18.55 L-5.55 -18.05 -5.2 -18.3 -3.25 -19.1 -3.25 -22.7 Q-2.3 -25.3 -0.85 -31.45 1.2 -36.6 7.05 -38.35 12.45 -39.95 15.75 -33.25 17.25 -30.25 17.85 -27.35 18.9 -27.1 20.25 -26.3 L21.05 -25.8 M9.55 -36.4 Q5.75 -36.15 3.3 -33.85 3.8 -32.85 3.8 -31.15 L3.75 -27.35 9.25 -27.35 Q9.4 -29.1 9.15 -32.95 9.1 -35.0 9.55 -36.4" fill="#000000" fill-rule="evenodd" stroke="none"/>
      <path d="M3.65 -61.7 L0.3 -59.8 Q-8.45 -54.05 -11.75 -44.1 -14.45 -35.85 -14.95 -32.55 -15.25 -30.45 -15.25 -22.5 L-15.3 -20.0 -15.25 -17.1 -15.35 -14.25 Q-15.35 -13.0 -14.7 -12.1 L-24.75 -12.35 Q-24.75 -16.85 -25.25 -25.45 L-25.25 -34.4 Q-24.95 -36.75 -21.85 -45.35 -21.1 -47.55 -19.1 -50.45 L-16.0 -54.95 -13.3 -57.3 Q-10.95 -59.0 -9.7 -59.35 L-2.25 -61.1 3.65 -61.7" fill="#942403" fill-rule="evenodd" stroke="none"/>
      <path d="M10.9 -60.35 Q18.2 -60.35 21.4 -56.05 22.45 -54.65 23.0 -52.85 L23.5 -50.95 25.25 -45.35 26.75 -40.1 Q28.15 -35.95 28.55 -29.45 L29.25 -18.7 28.8 -18.95 28.35 -19.45 24.5 -23.35 23.45 -24.15 23.25 -25.55 Q22.5 -31.1 21.05 -35.3 16.55 -48.55 7.25 -43.95 0.4 -43.65 -4.3 -35.05 -8.25 -27.9 -8.25 -21.35 L-8.2 -18.9 -8.0 -17.95 -11.6 -15.0 -13.25 -13.35 -13.35 -24.85 Q-13.45 -32.2 -11.75 -37.2 -8.1 -48.25 -4.9 -52.6 0.8 -60.35 10.9 -60.35" fill="#7b1102" fill-rule="evenodd" stroke="none"/>
      <path d="M21.05 -25.8 L20.25 -26.3 Q18.9 -27.1 17.85 -27.35 17.25 -30.25 15.75 -33.25 12.45 -39.95 7.05 -38.35 1.2 -36.6 -0.85 -31.45 -2.3 -25.3 -3.25 -22.7 L-3.25 -19.1 -5.2 -18.3 -5.55 -18.05 -6.2 -18.55 Q-6.05 -24.35 -3.75 -30.45 -0.8 -38.25 2.35 -40.2 5.2 -41.95 14.0 -41.95 15.6 -41.95 17.9 -37.65 19.9 -33.95 20.25 -31.85 L21.05 -25.8" fill="#cc9d3c" fill-rule="evenodd" stroke="none"/>
      <path d="M9.55 -36.4 Q9.1 -35.0 9.15 -32.95 9.4 -29.1 9.25 -27.35 L3.75 -27.35 3.8 -31.15 Q3.8 -32.85 3.3 -33.85 5.75 -36.15 9.55 -36.4" fill="#8e6c24" fill-rule="evenodd" stroke="none"/>
    </g>
    <g id="shape3" transform="matrix(1.0, 0.0, 0.0, 1.0, 10.0, 160.0)">
      <path d="M2.9 -87.0 L1.2 -87.0 1.5 -86.75 2.0 -86.95 2.0 57.1 1.6 59.3 1.5 60.3 1.5 60.7 1.4 61.95 1.2 61.95 1.0 62.7 0.95 62.0 -0.75 62.15 Q-2.45 62.15 -4.15 61.3 L-4.5 62.7 -4.6 61.1 -4.85 60.9 -5.0 59.95 -4.65 59.9 Q-5.25 47.25 -5.45 24.65 L-5.5 -10.9 -5.5 -21.65 -5.45 -80.15 -5.4 -87.0 -6.0 -87.0 -6.35 -87.85 -7.0 -88.55 -7.45 -90.45 -7.5 -93.5 Q-7.5 -97.3 -7.3 -98.15 -6.75 -100.4 -4.7 -101.6 L-5.5 -101.75 Q-5.5 -114.1 -6.0 -139.05 L-6.1 -140.3 -6.6 -139.8 -9.0 -137.5 Q-9.45 -138.05 -9.75 -138.95 L-10.0 -140.0 Q-10.0 -142.85 -6.8 -150.6 -4.4 -156.45 -2.8 -158.9 L-2.3 -159.6 -2.25 -159.85 -2.1 -159.85 -2.0 -160.0 -1.65 -159.85 -1.4 -159.8 -1.0 -158.9 -0.25 -157.0 1.1 -154.35 1.65 -152.9 1.8 -152.3 2.15 -151.3 2.3 -150.75 Q5.5 -141.65 5.5 -140.05 L5.3 -138.35 Q5.5 -138.0 4.25 -138.0 3.35 -138.0 1.55 -139.85 L1.0 -140.4 1.0 -102.6 Q2.05 -102.35 2.9 -101.65 5.2 -99.75 5.5 -95.5 L5.5 -88.0 5.1 -87.8 4.75 -87.55 4.75 -88.05 Q4.75 -89.3 4.6 -88.65 L3.8 -89.0 Q3.0 -91.25 2.9 -95.45 2.7 -100.35 1.25 -100.35 -4.6 -100.35 -5.25 -97.7 -5.2 -94.25 -5.4 -91.05 L-5.55 -88.8 -5.4 -88.85 -5.35 -91.1 -5.25 -90.75 -5.15 -89.3 -5.0 -88.85 Q-2.2 -89.1 3.55 -89.0 L3.65 -88.9 3.05 -88.7 Q2.8 -88.45 2.8 -87.65 L2.9 -87.0 M-2.95 -102.3 L-0.4 -102.75 Q-1.15 -104.35 -1.15 -107.05 L-1.0 -112.35 -1.0 -122.5 -1.05 -126.95 -1.0 -133.0 Q-0.9 -134.35 -1.1 -138.25 -1.1 -141.0 -0.4 -142.35 L-0.5 -142.6 -0.4 -143.2 0.5 -143.5 Q1.3 -143.5 1.6 -143.1 2.1 -142.45 2.8 -142.1 L0.0 -150.6 -1.75 -156.2 -3.8 -151.5 Q-6.85 -144.6 -7.5 -142.1 -6.5 -143.15 -5.5 -143.5 L-4.75 -143.25 Q-4.55 -143.15 -4.5 -142.7 L-3.85 -142.75 Q-3.7 -142.1 -3.85 -140.9 L-4.0 -139.0 -3.7 -124.85 -3.0 -102.6 -3.05 -102.3 -2.95 -102.3 M0.1 -87.0 L-3.5 -87.0 -3.5 -67.35 0.05 -67.5 0.05 -80.15 0.1 -87.0 M0.85 59.3 Q0.25 46.7 0.05 24.65 L0.0 -10.9 0.0 -21.65 0.05 -65.5 -3.5 -65.5 -3.5 57.1 -3.9 59.3 -3.95 60.0 -3.25 60.1 -0.9 60.3 Q-0.2 60.3 0.1 59.85 0.35 59.3 0.5 59.3 L0.85 59.45 0.85 59.3" fill="#000000" fill-rule="evenodd" stroke="none"/>
      <path d="M-3.0 -102.6 L-3.7 -124.85 -4.0 -139.0 -3.85 -140.9 Q-3.7 -142.1 -3.85 -142.75 L-4.5 -142.7 Q-4.55 -143.15 -4.75 -143.25 L-5.5 -143.5 Q-6.5 -143.15 -7.5 -142.1 -6.85 -144.6 -3.8 -151.5 L-1.75 -156.2 0.0 -150.6 2.8 -142.1 Q2.1 -142.45 1.6 -143.1 1.3 -143.5 0.5 -143.5 L-0.4 -143.2 -0.5 -142.6 -0.4 -142.35 Q-1.1 -141.0 -1.1 -138.25 -0.9 -134.35 -1.0 -133.0 L-1.05 -126.95 -1.0 -122.5 -1.0 -112.35 -1.15 -107.05 Q-1.15 -104.35 -0.4 -102.75 L-2.95 -102.3 -3.0 -102.6" fill="#60606c" fill-rule="evenodd" stroke="none"/>
      <path d="M2.9 -87.0 L2.8 -87.65 Q2.8 -88.45 3.05 -88.7 L3.65 -88.9 3.8 -89.0 4.6 -88.65 Q4.75 -89.3 4.75 -88.05 L4.75 -87.55 4.55 -87.15 3.8 -87.0 3.1 -86.85 2.9 -87.0 M0.5 59.3 Q0.35 59.3 0.1 59.85 -0.2 60.3 -0.9 60.3 L-3.25 60.1 -3.95 60.0 -3.9 59.3 -3.5 57.1 -3.5 -65.5 0.05 -65.5 0.0 -21.65 0.0 -10.9 0.05 24.65 Q0.25 46.7 0.85 59.3 L0.5 59.3" fill="#211b14" fill-rule="evenodd" stroke="none"/>
      <path d="M3.65 -88.9 L3.55 -89.0 Q-2.2 -89.1 -5.0 -88.85 L-5.15 -89.3 -5.25 -90.75 -5.35 -91.1 -5.4 -91.05 Q-5.2 -94.25 -5.25 -97.7 -4.6 -100.35 1.25 -100.35 2.7 -100.35 2.9 -95.45 3.0 -91.25 3.8 -89.0 L3.65 -88.9 M0.1 -87.0 L0.05 -80.15 0.05 -67.5 -3.5 -67.35 -3.5 -87.0 0.1 -87.0" fill="#942403" fill-rule="evenodd" stroke="none"/>
    </g>
  </defs>
</svg>
