<?xml version="1.0" encoding="UTF-8" standalone="no"?>
<svg xmlns:ffdec="https://www.free-decompiler.com/flash" xmlns:xlink="http://www.w3.org/1999/xlink" ffdec:objectType="morphshape" height="59.2px" width="71.15px" xmlns="http://www.w3.org/2000/svg">
  <g transform="matrix(1.0, 0.0, 0.0, 1.0, 32.85, 37.65)">
    <path d="M-13.6 -7.05 Q-12.3 -2.95 -10.25 1.25 -6.2 9.7 -2.7 9.7 2.1 9.7 7.4 7.05 14.25 3.55 14.25 -2.1 14.25 -5.1 9.05 -7.45 -1.0 -12.05 -1.55 -12.4 -8.4 -17.45 -11.65 -13.25 -13.6 -10.7 -13.6 -7.05 -12.3 -2.95 -10.25 1.25 -6.2 9.7 -2.7 9.7 2.1 9.7 7.4 7.05 14.25 3.55 14.25 -2.1 14.25 -5.1 9.05 -7.45 -1.0 -12.05 -1.55 -12.4 -8.4 -17.45 -11.65 -13.25 -13.6 -10.7 -13.6 -7.05 -12.3 -2.95 -10.25 1.25 -6.2 9.7 -2.7 9.7 2.1 9.7 7.4 7.05 14.25 3.55 14.25 -2.1 14.25 -5.1 9.05 -7.45 -1.0 -12.05 -1.55 -12.4 -8.4 -17.45 -11.65 -13.25 -13.6 -10.7 -13.6 -7.05" fill="#ffffe5" fill-opacity="0.2" fill-rule="evenodd" stroke="none">
      <animate attributeName="fill" dur="2s" repeatCount="indefinite" values="#ffffe5;#ffffe6"/>
      <animate attributeName="fill-opacity" dur="2s" repeatCount="indefinite" values="0.2;0.2"/>
      <animate attributeName="d" dur="2s" repeatCount="indefinite" values="M-13.6 -7.05 Q-12.3 -2.95 -10.25 1.25 -6.2 9.7 -2.7 9.7 2.1 9.7 7.4 7.05 14.25 3.55 14.25 -2.1 14.25 -5.1 9.05 -7.45 -1.0 -12.05 -1.55 -12.4 -8.4 -17.45 -11.65 -13.25 -13.6 -10.7 -13.6 -7.05 -12.3 -2.95 -10.25 1.25 -6.2 9.7 -2.7 9.7 2.1 9.7 7.4 7.05 14.25 3.55 14.25 -2.1 14.25 -5.1 9.05 -7.45 -1.0 -12.05 -1.55 -12.4 -8.4 -17.45 -11.65 -13.25 -13.6 -10.7 -13.6 -7.05 -12.3 -2.95 -10.25 1.25 -6.2 9.7 -2.7 9.7 2.1 9.7 7.4 7.05 14.25 3.55 14.25 -2.1 14.25 -5.1 9.05 -7.45 -1.0 -12.05 -1.55 -12.4 -8.4 -17.45 -11.65 -13.25 -13.6 -10.7 -13.6 -7.05;M-32.85 -26.0 Q-31.1 -20.75 -28.3 -15.3 -22.4 -14.05 -16.7 -16.6 -9.8 -19.7 -5.95 -25.45 -5.05 -26.8 -5.6 -28.6 -5.85 -29.3 -6.05 -30.0 -13.75 -33.35 -14.35 -33.65 -24.85 -40.9 -29.85 -34.95 -32.85 -31.2 -32.85 -26.0 -24.95 8.75 -24.65 9.35 -18.25 21.55 -12.65 21.55 -5.05 21.55 3.35 17.7 4.95 16.85 6.5 16.05 3.1 13.95 -0.25 11.85 -5.8 8.7 -11.6 6.0 -12.45 6.4 -13.25 6.8 -19.15 9.35 -25.3 8.1 6.0 0.45 14.95 5.6 20.5 8.85 25.8 12.5 38.3 4.8 38.3 -6.55 38.3 -13.7 25.05 -19.3 18.4 -22.15 11.75 -25.0 12.15 -23.8 12.5 -22.65 13.35 -19.65 11.9 -17.45 6.25 -9.0 -3.3 -4.0"/>
    </path>
    <path d="M-13.6 -7.05 Q-13.6 -10.7 -11.65 -13.25 -8.4 -17.45 -1.55 -12.4 -1.0 -12.05 9.05 -7.45 14.25 -5.1 14.25 -2.1 14.25 3.55 7.4 7.05 2.1 9.7 -2.7 9.7 -6.2 9.7 -10.25 1.25 -12.3 -2.95 -13.6 -7.05 -13.6 -10.7 -11.65 -13.25 -8.4 -17.45 -1.55 -12.4 -1.0 -12.05 9.05 -7.45 14.25 -5.1 14.25 -2.1 14.25 3.55 7.4 7.05 2.1 9.7 -2.7 9.7 -6.2 9.7 -10.25 1.25 -12.3 -2.95 -13.6 -7.05 -13.6 -10.7 -11.65 -13.25 -8.4 -17.45 -1.55 -12.4 -1.0 -12.05 9.05 -7.45 14.25 -5.1 14.25 -2.1 14.25 3.55 7.4 7.05 2.1 9.7 -2.7 9.7 -6.2 9.7 -10.25 1.25 -12.3 -2.95 -13.6 -7.05 -13.6 -10.7 -11.65 -13.25 -8.4 -17.45 -1.55 -12.4 -1.0 -12.05 9.05 -7.45 14.25 -5.1 14.25 -2.1 14.25 3.55 7.4 7.05 2.1 9.7 -2.7 9.7 -6.2 9.7 -10.25 1.25 -12.3 -2.95 -13.6 -7.05 -13.6 -10.7 -11.65 -13.25 -8.4 -17.45 -1.55 -12.4 -1.0 -12.05 9.05 -7.45 14.25 -5.1 14.25 -2.1 14.25 3.55 7.4 7.05 2.1 9.7 -2.7 9.7 -6.2 9.7 -10.25 1.25 -12.3 -2.95 -13.6 -7.05 Z" fill="none" stroke="#000000" stroke-linecap="round" stroke-linejoin="round" stroke-opacity="0.0" stroke-width="0.0">
      <animate attributeName="stroke" dur="2s" repeatCount="indefinite" values="#000000;#000001"/>
      <animate attributeName="stroke-width" dur="2s" repeatCount="indefinite" values="0.0;0.0"/>
      <animate attributeName="fill-opacity" dur="2s" repeatCount="indefinite" values="0.0;0.0"/>
      <animate attributeName="d" dur="2s" repeatCount="indefinite" values="M-13.6 -7.05 Q-13.6 -10.7 -11.65 -13.25 -8.4 -17.45 -1.55 -12.4 -1.0 -12.05 9.05 -7.45 14.25 -5.1 14.25 -2.1 14.25 3.55 7.4 7.05 2.1 9.7 -2.7 9.7 -6.2 9.7 -10.25 1.25 -12.3 -2.95 -13.6 -7.05 -13.6 -10.7 -11.65 -13.25 -8.4 -17.45 -1.55 -12.4 -1.0 -12.05 9.05 -7.45 14.25 -5.1 14.25 -2.1 14.25 3.55 7.4 7.05 2.1 9.7 -2.7 9.7 -6.2 9.7 -10.25 1.25 -12.3 -2.95 -13.6 -7.05 -13.6 -10.7 -11.65 -13.25 -8.4 -17.45 -1.55 -12.4 -1.0 -12.05 9.05 -7.45 14.25 -5.1 14.25 -2.1 14.25 3.55 7.4 7.05 2.1 9.7 -2.7 9.7 -6.2 9.7 -10.25 1.25 -12.3 -2.95 -13.6 -7.05 -13.6 -10.7 -11.65 -13.25 -8.4 -17.45 -1.55 -12.4 -1.0 -12.05 9.05 -7.45 14.25 -5.1 14.25 -2.1 14.25 3.55 7.4 7.05 2.1 9.7 -2.7 9.7 -6.2 9.7 -10.25 1.25 -12.3 -2.95 -13.6 -7.05 -13.6 -10.7 -11.65 -13.25 -8.4 -17.45 -1.55 -12.4 -1.0 -12.05 9.05 -7.45 14.25 -5.1 14.25 -2.1 14.25 3.55 7.4 7.05 2.1 9.7 -2.7 9.7 -6.2 9.7 -10.25 1.25 -12.3 -2.95 -13.6 -7.05 Z;M-32.85 -26.0 Q-32.85 -31.2 -29.85 -34.95 -24.85 -40.9 -14.35 -33.65 -13.75 -33.35 -6.05 -30.0 -5.85 -29.3 -5.6 -28.6 -5.05 -26.8 -5.95 -25.45 -9.8 -19.7 -16.7 -16.6 -22.4 -14.05 -28.3 -15.3 -31.1 -20.75 -32.85 -26.0 -19.15 9.35 -13.25 6.8 -12.45 6.4 -11.6 6.0 -5.8 8.7 -0.25 11.85 3.1 13.95 6.5 16.05 4.95 16.85 3.35 17.7 -5.05 21.55 -12.65 21.55 -18.25 21.55 -24.65 9.35 -24.95 8.75 -25.3 8.1 -19.15 9.35 -13.25 6.8 -12.45 6.4 -11.6 6.0 -5.8 8.7 -0.25 11.85 3.1 13.95 6.5 16.05 4.95 16.85 3.35 17.7 -5.05 21.55 -12.65 21.55 -18.25 21.55 -24.65 9.35 -24.95 8.75 -25.3 8.1 6.25 -9.0 11.9 -17.45 13.35 -19.65 12.5 -22.65 12.15 -23.8 11.75 -25.0 18.4 -22.15 25.05 -19.3 38.3 -13.7 38.3 -6.55 38.3 4.8 25.8 12.5 20.5 8.85 14.95 5.6 6.0 0.45 -3.3 -4.0 6.25 -9.0 11.9 -17.45 13.35 -19.65 12.5 -22.65 12.15 -23.8 11.75 -25.0 18.4 -22.15 25.05 -19.3 38.3 -13.7 38.3 -6.55 38.3 4.8 25.8 12.5 20.5 8.85 14.95 5.6 6.0 0.45 -3.3 -4.0 Z"/>
    </path>
  </g>
</svg>
