<?xml version="1.0" encoding="UTF-8" standalone="no"?>
<svg xmlns:ffdec="https://www.free-decompiler.com/flash" xmlns:xlink="http://www.w3.org/1999/xlink" ffdec:objectType="frame" height="407.0px" width="1092.75px" xmlns="http://www.w3.org/2000/svg">
  <g transform="matrix(1.0, 0.0, 0.0, 1.0, 220.75, 3.05)">
    <use ffdec:characterId="15" height="177.05" id="but_juice" transform="matrix(0.3348, 0.0, 0.0, 1.2812, 55.432, 164.0256)" width="625.3" xlink:href="#sprite0"/>
    <use ffdec:characterId="15" height="177.05" id="but_sleva" transform="matrix(0.3348, 0.0, 0.0, 1.2812, 437.382, 166.0256)" width="625.3" xlink:href="#sprite0"/>
    <use ffdec:characterId="1083" height="19.5" transform="matrix(1.0, 0.0, 0.0, 1.0, 291.95, 82.9)" width="113.45" xlink:href="#text0"/>
  </g>
  <defs>
    <g id="sprite0" transform="matrix(1.0, 0.0, 0.0, 1.0, 56.8, 20.0)">
      <use ffdec:characterId="14" height="177.05" transform="matrix(1.0, 0.0, 0.0, 1.0, -56.8, -20.0)" width="625.3" xlink:href="#shape0"/>
    </g>
    <g id="shape0" transform="matrix(1.0, 0.0, 0.0, 1.0, 56.8, 20.0)">
      <path d="M568.5 157.05 L-56.8 157.05 -56.8 -20.0 568.5 -20.0 568.5 157.05" fill="#3399cc" fill-opacity="0.0" fill-rule="evenodd" stroke="none"/>
    </g>
    <g id="text0" transform="matrix(1.0, 0.0, 0.0, 1.0, -2.95, -3.05)">
      <g transform="matrix(1.0, 0.0, 0.0, 1.0, 0.0, 0.0)">
        <use fill="#ffffff" height="19.5" transform="matrix(0.0225, 0.0, 0.0, 0.0225, 0.0, 21.0)" width="113.45" xlink:href="#font_Lithos_Pro_Regular_p0"/>
        <use fill="#ffffff" height="19.5" transform="matrix(0.0225, 0.0, 0.0, 0.0225, 12.9, 21.0)" width="113.45" xlink:href="#font_Lithos_Pro_Regular_r0"/>
        <use fill="#ffffff" height="19.5" transform="matrix(0.0225, 0.0, 0.0, 0.0225, 27.05, 21.0)" width="113.45" xlink:href="#font_Lithos_Pro_Regular_e0"/>
        <use fill="#ffffff" height="19.5" transform="matrix(0.0225, 0.0, 0.0, 0.0225, 39.2, 21.0)" width="113.45" xlink:href="#font_Lithos_Pro_Regular_s0"/>
        <use fill="#ffffff" height="19.5" transform="matrix(0.0225, 0.0, 0.0, 0.0225, 50.25, 21.0)" width="113.45" xlink:href="#font_Lithos_Pro_Regular_e0"/>
        <use fill="#ffffff" height="19.5" transform="matrix(0.0225, 0.0, 0.0, 0.0225, 62.4, 21.0)" width="113.45" xlink:href="#font_Lithos_Pro_Regular_n0"/>
        <use fill="#ffffff" height="19.5" transform="matrix(0.0225, 0.0, 0.0, 0.0225, 80.85, 21.0)" width="113.45" xlink:href="#font_Lithos_Pro_Regular_t0"/>
        <use fill="#ffffff" height="19.5" transform="matrix(0.0225, 0.0, 0.0, 0.0225, 93.85, 21.0)" width="113.45" xlink:href="#font_Lithos_Pro_Regular_s0"/>
      </g>
    </g>
    <g id="font_Lithos_Pro_Regular_p0">
      <path d="M223.0 -541.0 L223.0 -248.0 Q279.0 -258.5 324.5 -280.0 370.0 -301.5 397.5 -336.5 424.5 -371.0 425.0 -421.0 425.5 -433.5 419.0 -453.0 412.5 -472.5 392.0 -492.0 372.0 -512.0 331.0 -526.0 290.5 -539.5 223.0 -541.0 M224.0 0.0 L131.0 0.0 Q131.5 -15.5 132.5 -55.5 133.0 -95.5 134.0 -145.5 134.5 -195.5 134.5 -240.0 135.0 -285.0 135.0 -309.5 L135.0 -405.0 Q135.0 -413.5 134.5 -443.5 134.5 -473.5 134.0 -510.0 133.5 -546.0 133.5 -575.0 133.0 -603.5 133.0 -609.5 153.0 -609.5 185.0 -609.0 217.0 -608.0 252.0 -606.0 287.5 -604.0 317.5 -599.5 412.0 -584.5 465.0 -542.5 518.0 -500.5 519.0 -431.5 518.5 -368.5 481.0 -317.5 443.5 -266.5 377.0 -231.5 311.0 -196.0 223.0 -180.5 L223.0 -131.0 Q223.0 -124.0 223.0 -106.0 223.0 -88.0 223.0 -66.0 223.0 -44.0 223.5 -26.0 223.5 -7.5 224.0 0.0" fill-rule="evenodd" stroke="none"/>
    </g>
    <g id="font_Lithos_Pro_Regular_r0">
      <path d="M224.0 -543.0 L224.0 -266.5 Q224.0 -256.0 224.5 -227.5 224.5 -199.0 225.0 -162.5 225.5 -125.5 226.5 -90.0 227.0 -54.5 228.0 -29.5 228.5 -5.0 229.0 0.0 L133.0 0.0 Q134.0 -7.0 134.5 -39.0 135.0 -70.5 135.0 -114.5 135.0 -158.5 135.0 -202.5 135.0 -246.5 135.0 -277.5 135.0 -309.0 135.0 -315.5 L135.0 -386.0 Q135.0 -397.5 134.5 -430.0 134.5 -462.5 133.5 -501.5 133.0 -541.0 132.0 -571.5 131.0 -602.0 130.0 -609.5 164.0 -610.0 218.5 -609.5 273.0 -609.0 332.5 -602.5 425.5 -591.5 476.0 -555.5 527.0 -519.5 527.5 -462.0 526.5 -408.0 490.0 -363.0 454.0 -318.0 395.0 -284.0 405.0 -270.5 435.0 -237.0 465.0 -203.0 501.5 -162.5 538.5 -122.0 569.0 -89.5 599.5 -57.0 610.5 -46.0 L539.5 16.5 Q536.0 12.0 512.5 -16.5 489.0 -45.0 455.5 -86.5 422.0 -127.5 387.5 -170.5 352.5 -213.0 326.0 -246.0 299.5 -279.0 290.5 -291.0 308.5 -300.0 332.0 -313.5 355.5 -327.0 377.5 -346.0 400.0 -365.0 415.0 -390.5 429.5 -416.0 430.0 -449.0 431.0 -470.0 415.5 -491.0 399.5 -512.5 355.0 -527.0 310.0 -542.0 224.0 -543.0" fill-rule="evenodd" stroke="none"/>
    </g>
    <g id="font_Lithos_Pro_Regular_e0">
      <path d="M458.5 -68.5 L461.5 9.5 Q451.5 9.5 417.0 8.5 383.0 7.5 337.5 6.0 292.0 5.0 247.0 3.5 202.0 2.0 170.5 1.0 138.5 0.0 132.0 0.0 133.0 -18.5 133.5 -56.0 134.5 -93.5 134.5 -136.0 135.0 -178.0 135.0 -211.0 135.0 -244.0 135.0 -252.5 L135.0 -368.5 Q135.0 -373.5 135.0 -397.5 134.5 -421.5 134.0 -454.5 134.0 -488.0 133.5 -521.5 133.0 -555.0 132.5 -579.5 132.5 -603.5 132.0 -609.5 139.5 -609.5 168.5 -611.0 197.5 -612.0 238.0 -614.5 278.5 -616.5 320.0 -618.5 362.0 -621.0 395.0 -623.0 428.5 -625.0 443.0 -626.0 L447.0 -552.0 Q431.0 -552.0 397.5 -551.5 364.0 -551.0 326.5 -550.0 288.5 -549.0 259.5 -548.5 231.0 -548.0 224.0 -548.0 L224.0 -334.5 Q231.0 -334.5 253.5 -335.0 276.0 -336.0 305.5 -337.0 335.5 -338.5 365.0 -340.0 394.5 -342.0 416.5 -343.5 L419.5 -269.0 Q407.0 -269.0 378.5 -269.5 350.5 -270.0 317.0 -271.0 284.5 -271.0 258.5 -271.5 232.5 -272.0 224.0 -272.0 L224.0 -65.5 Q233.0 -65.5 258.0 -65.0 283.0 -65.0 317.0 -65.0 351.5 -65.0 388.5 -66.0 425.5 -66.5 458.5 -68.5" fill-rule="evenodd" stroke="none"/>
    </g>
    <g id="font_Lithos_Pro_Regular_s0">
      <path d="M131.0 16.5 L107.5 -55.5 Q143.5 -62.0 180.5 -73.0 218.0 -83.5 250.0 -99.0 281.5 -114.5 301.5 -135.0 321.0 -155.0 321.5 -181.5 321.5 -214.0 297.0 -235.5 272.5 -257.0 222.0 -280.5 161.0 -309.0 123.0 -341.0 85.0 -373.5 84.0 -420.0 84.5 -456.5 108.5 -490.0 132.0 -523.0 171.5 -550.5 211.0 -578.0 259.5 -597.5 308.0 -617.0 358.5 -626.0 L377.5 -554.0 Q354.0 -551.0 321.0 -542.5 288.0 -533.5 255.0 -519.5 222.5 -505.0 200.5 -484.0 179.0 -462.5 178.0 -434.5 179.0 -411.0 196.5 -394.5 214.5 -377.5 239.0 -365.0 264.0 -352.0 284.5 -341.0 320.5 -322.0 350.0 -304.0 380.0 -285.5 398.0 -261.5 416.0 -237.5 416.5 -202.0 416.0 -156.0 383.0 -113.5 349.5 -70.5 286.0 -36.5 222.5 -2.5 131.0 16.5" fill-rule="evenodd" stroke="none"/>
    </g>
    <g id="font_Lithos_Pro_Regular_n0">
      <path d="M197.5 6.0 L103.5 0.0 Q105.0 -17.5 107.5 -64.0 110.5 -111.0 114.0 -176.0 117.5 -241.0 121.5 -313.0 125.0 -384.5 128.5 -451.5 132.0 -519.0 134.5 -569.5 137.0 -620.5 138.0 -644.0 L143.5 -644.0 Q151.0 -636.0 186.5 -600.0 221.5 -564.0 274.0 -511.5 326.0 -459.0 383.5 -400.5 441.5 -342.5 493.5 -290.0 546.0 -237.0 581.5 -201.5 617.5 -165.5 625.5 -157.5 625.5 -165.0 625.5 -198.0 626.0 -231.5 626.0 -280.5 626.5 -329.5 626.5 -384.0 627.0 -438.5 627.5 -488.0 627.5 -537.5 628.0 -571.5 628.5 -605.5 628.5 -613.5 L719.5 -609.5 Q718.5 -593.0 715.5 -545.0 713.0 -497.5 710.0 -429.0 707.0 -360.5 703.5 -282.0 700.5 -204.0 698.0 -126.0 695.5 -48.0 694.0 18.5 L690.0 18.5 Q682.5 11.5 645.5 -24.5 608.5 -61.0 554.5 -114.5 500.5 -168.5 441.0 -227.5 381.5 -286.5 329.0 -339.5 276.0 -392.0 241.5 -426.5 207.5 -461.0 203.5 -465.0 L201.5 -465.0 Q202.0 -460.0 202.0 -426.5 201.5 -393.0 201.0 -342.0 200.5 -291.0 200.0 -234.0 199.0 -177.0 198.5 -125.0 198.0 -73.5 197.5 -37.5 197.0 -2.0 197.5 6.0" fill-rule="evenodd" stroke="none"/>
    </g>
    <g id="font_Lithos_Pro_Regular_t0">
      <path d="M346.0 0.0 L240.0 0.0 Q241.5 -7.5 242.5 -38.5 243.5 -69.5 244.5 -116.0 245.0 -162.5 245.5 -215.5 245.5 -269.0 246.0 -320.5 246.0 -372.5 246.0 -414.5 L246.0 -536.5 Q206.0 -536.5 164.0 -536.0 122.5 -535.0 86.0 -534.0 49.5 -533.0 25.0 -531.5 0.5 -530.0 -5.0 -528.5 L-5.0 -611.5 Q4.0 -609.5 31.0 -607.5 58.5 -606.0 94.0 -604.5 130.0 -603.5 165.0 -602.5 200.0 -602.0 224.0 -601.5 248.5 -601.0 252.0 -601.0 L334.0 -601.0 Q340.0 -601.0 364.0 -601.5 387.5 -601.5 421.0 -602.5 454.0 -603.5 488.0 -604.5 522.0 -606.0 548.0 -607.5 574.0 -609.0 584.0 -611.5 L584.0 -528.5 Q582.0 -530.0 554.5 -531.5 527.0 -533.0 486.5 -534.0 446.0 -535.0 405.0 -536.0 364.0 -536.5 335.0 -536.5 L335.0 -401.5 Q335.0 -334.0 336.5 -266.5 338.0 -198.5 340.0 -141.0 342.0 -83.0 343.5 -45.0 345.5 -7.5 346.0 0.0" fill-rule="evenodd" stroke="none"/>
    </g>
  </defs>
</svg>
