<?xml version="1.0" encoding="UTF-8" standalone="no"?>
<svg xmlns:ffdec="https://www.free-decompiler.com/flash" xmlns:xlink="http://www.w3.org/1999/xlink" ffdec:objectType="frame" height="77.75px" width="79.9px" xmlns="http://www.w3.org/2000/svg">
  <g transform="matrix(1.0, 0.0, 0.0, 1.0, 43.4, 38.85)">
    <use ffdec:characterId="1001" height="77.75" transform="matrix(1.0, 0.0, 0.0, 1.0, -43.4, -38.85)" width="79.9" xlink:href="#shape0"/>
  </g>
  <defs>
    <g id="shape0" transform="matrix(1.0, 0.0, 0.0, 1.0, 43.4, 38.85)">
      <path d="M15.2 -38.8 L15.8 -38.6 Q16.1 -38.45 16.1 -37.65 L15.95 -36.6 15.8 -36.4 Q17.05 -32.15 17.35 -24.95 17.65 -18.25 18.75 -14.1 L17.65 -14.2 Q17.65 -15.55 16.7 -17.0 L15.95 -17.9 Q15.15 -18.6 14.25 -18.6 L11.15 -18.45 Q11.35 -18.95 10.85 -19.3 L9.8 -20.1 Q8.4 -21.65 7.65 -21.9 L5.6 -21.7 4.65 -21.45 Q4.5 -22.75 2.9 -22.95 L2.15 -22.95 2.1 -25.45 2.15 -26.15 Q2.25 -29.8 3.7 -32.15 5.05 -34.35 7.4 -35.4 2.05 -35.25 -6.9 -35.35 -23.0 -35.5 -29.45 -34.9 L-31.8 -34.7 -31.7 -33.35 -31.6 -29.2 Q-31.3 -27.9 -31.45 -25.3 L-31.45 -24.65 -31.5 -22.8 -31.45 -21.95 -31.4 -21.35 -31.3 -20.7 -30.85 -17.95 Q-29.8 -11.5 -28.55 -6.0 -26.1 -6.75 -20.45 -7.55 L-21.7 -6.25 -22.2 -4.65 -27.95 -4.05 -22.85 -1.25 -22.75 -1.0 -22.35 -0.85 -22.25 -0.9 -22.1 -0.85 -18.6 1.1 -18.5 1.2 -12.2 4.95 -11.85 4.7 Q-11.45 5.05 -11.15 5.65 -8.2 4.6 7.15 2.2 L27.05 -0.85 29.75 -1.25 30.3 -1.35 30.35 -1.35 31.3 -1.5 Q30.35 -2.05 28.95 -2.9 L26.15 -4.55 25.65 -4.85 Q25.6 -5.35 24.65 -5.9 L23.4 -6.85 23.1 -8.0 Q22.9 -8.85 22.15 -9.5 L22.05 -9.8 Q24.4 -8.8 27.35 -6.85 29.95 -5.15 34.6 -1.35 L34.35 -0.75 Q34.15 -0.35 33.4 -0.35 L33.0 -0.05 33.1 0.15 33.1 20.5 33.0 20.45 32.25 21.1 31.3 19.95 Q30.3 18.4 29.4 17.95 L30.5 17.75 30.5 15.9 30.6 12.9 30.7 7.6 Q29.5 8.4 27.2 8.95 23.3 9.7 22.1 10.15 L20.6 10.15 20.6 12.9 Q20.6 14.5 19.6 14.65 L10.1 15.65 7.6 15.4 7.35 11.45 5.0 11.9 -10.8 13.95 -10.8 14.0 -10.85 16.0 -10.9 19.25 -10.9 20.8 -11.1 20.9 Q-12.1 21.35 -12.1 22.0 L-11.5 23.35 -10.6 24.7 -11.05 25.05 -11.1 25.2 -12.9 25.35 -13.75 25.2 -13.8 25.15 -15.65 23.8 Q-14.6 22.95 -14.6 22.5 -14.6 21.9 -15.1 21.95 -15.6 22.05 -15.6 21.4 L-15.6 21.35 -13.0 22.85 -12.95 22.9 -12.95 22.7 -12.9 19.4 -13.3 13.75 Q-16.2 12.6 -22.9 8.65 L-29.9 4.3 -29.9 13.45 -28.5 14.65 -29.7 14.75 -29.95 15.05 -29.8 14.3 -29.8 13.75 -30.8 13.8 -30.35 12.85 -30.55 12.2 -30.8 11.55 -30.45 10.75 -30.1 10.1 -30.15 9.3 -31.9 9.35 -31.9 8.05 -31.95 5.1 -31.9 1.4 -32.05 -2.05 -31.8 -3.65 -32.35 -4.8 Q-39.35 -8.15 -41.8 -13.9 -43.4 -17.7 -43.4 -25.1 -43.4 -30.65 -42.7 -32.0 -41.2 -35.1 -36.2 -35.85 -35.65 -36.55 -33.3 -36.95 L-32.9 -37.35 -32.65 -37.05 -29.8 -37.4 Q-20.4 -38.1 15.1 -38.6 L15.2 -38.8 M33.1 24.25 L33.1 24.9 32.55 24.7 33.1 24.25 M28.25 28.05 L17.8 29.8 -0.85 32.7 -1.5 31.8 -1.25 30.95 -1.0 30.25 6.05 28.95 23.7 26.3 23.75 26.3 23.65 25.95 23.65 25.9 23.6 23.95 Q23.35 22.9 23.45 22.05 23.55 21.4 23.9 21.0 L23.1 20.45 Q24.1 19.35 27.2 18.45 L27.35 18.4 Q26.5 19.25 26.5 20.5 L26.7 21.0 25.6 21.15 25.6 25.35 Q24.75 26.15 24.55 26.65 L24.5 26.85 Q24.5 27.6 24.65 27.8 L24.8 27.95 28.9 27.55 28.7 27.95 28.35 28.0 28.25 28.0 28.25 28.05 M-23.15 26.7 L-23.5 26.4 -22.95 26.4 -22.85 26.65 -23.15 26.7 M-24.6 25.7 L-25.3 25.25 Q-24.5 24.85 -24.5 23.65 L-24.7 23.35 Q-23.9 23.85 -23.0 24.45 L-24.05 24.65 Q-24.6 24.8 -24.6 25.3 L-24.6 25.7 M30.6 5.65 L30.8 5.75 30.8 5.65 Q31.0 2.3 31.45 0.6 L26.65 1.4 22.25 1.75 19.95 2.2 20.45 3.95 20.6 8.2 23.35 7.4 30.6 5.65 M27.75 5.2 L26.85 5.55 25.85 4.9 Q26.2 4.25 26.55 4.05 L28.0 3.75 28.4 4.5 27.75 5.2 M22.15 4.5 L22.9 4.25 23.25 5.05 Q23.05 5.75 22.25 6.05 L21.2 5.4 22.15 4.5 M27.45 21.7 L28.0 22.2 27.8 22.95 26.85 22.4 27.45 21.7 M15.35 5.65 L15.1 7.3 Q15.1 8.0 15.5 8.45 L16.1 9.2 Q15.55 10.15 14.1 10.15 L12.1 9.9 11.85 7.6 11.6 5.5 Q11.6 4.75 12.8 4.35 L15.4 4.4 15.35 5.65 M18.05 2.55 L13.85 3.4 8.7 4.45 Q9.45 5.8 9.6 8.05 L9.6 13.45 Q12.05 13.4 14.1 12.65 18.6 12.4 18.6 11.95 L18.6 8.65 18.35 5.55 18.1 2.95 18.1 2.55 18.05 2.55 M3.25 7.45 Q4.15 6.05 4.85 6.05 5.6 6.35 5.85 7.15 L5.25 7.75 4.35 8.15 Q3.65 7.9 3.25 7.45 M-10.85 12.05 Q-8.95 11.35 -4.6 10.6 L7.1 9.1 7.1 4.75 1.9 5.7 -6.4 7.15 -10.8 7.15 -10.8 8.0 -10.9 11.95 -10.9 12.05 -10.85 12.05 M-38.8 -33.05 Q-41.15 -31.95 -41.4 -30.45 L-41.5 -27.75 -41.4 -25.2 Q-41.4 -17.65 -40.45 -15.5 -39.35 -12.95 -36.05 -10.05 -37.0 -13.05 -37.85 -20.0 -38.9 -28.4 -38.9 -32.75 L-38.7 -32.9 -38.15 -33.1 -37.6 -33.55 -38.8 -33.05 M-31.7 -11.1 L-32.85 -19.45 -32.9 -20.0 -32.9 -20.05 Q-33.6 -25.0 -33.8 -29.35 L-33.9 -33.1 -33.9 -34.5 -34.85 -34.4 -36.9 -33.8 -37.1 -33.75 Q-36.4 -32.25 -36.1 -30.05 L-36.05 -29.7 -35.85 -30.1 -35.15 -30.85 Q-34.2 -30.4 -34.15 -29.35 L-34.4 -29.15 -35.15 -28.7 -36.0 -29.25 -35.95 -28.15 -35.9 -21.7 Q-35.85 -19.15 -35.1 -15.55 L-33.95 -9.7 -33.9 -9.35 -34.5 -8.75 -31.1 -6.3 -31.55 -10.05 Q-31.85 -9.5 -32.55 -9.25 L-33.55 -9.85 Q-33.05 -10.7 -31.9 -11.1 L-31.65 -10.55 -31.7 -11.1 M-35.15 -19.6 L-34.85 -20.35 -34.15 -21.1 Q-33.3 -20.7 -33.05 -20.0 -33.3 -19.3 -34.15 -19.0 L-35.15 -19.6 M-29.9 -2.1 L-29.9 2.3 Q-28.8 2.7 -27.2 3.65 L-21.85 6.9 -15.45 9.75 -13.5 10.75 Q-13.6 8.15 -13.15 6.6 -14.85 6.3 -18.8 4.05 L-23.9 0.95 -28.8 -1.45 -29.9 -2.1 M-8.95 10.15 Q-9.65 9.9 -9.95 9.5 -9.35 8.6 -8.3 8.4 L-7.9 9.15 Q-8.2 9.85 -8.95 10.15 M-2.9 9.0 L-2.05 8.15 -1.15 7.9 -0.85 8.65 Q-0.95 9.35 -1.85 9.65 L-2.9 9.0 M-15.75 6.6 L-14.95 6.3 -14.65 7.15 Q-14.75 7.85 -15.65 8.15 -16.25 7.9 -16.65 7.45 -16.25 6.85 -15.75 6.6 M-28.0 15.05 L-25.9 17.15 -25.4 16.65 Q-24.85 17.4 -24.6 18.7 L-24.4 20.0 -24.6 23.2 -24.75 23.3 -26.35 20.95 -26.4 20.15 -26.4 18.7 -26.4 18.65 -26.9 18.65 -28.05 18.45 -29.2 16.8 -28.35 15.95 -28.0 15.5 -28.0 15.05 M-7.45 23.45 L-5.5 22.8 -2.65 21.65 -1.6 21.9 -1.4 22.65 -1.4 26.55 -3.4 26.65 -3.4 24.4 Q-4.25 24.3 -5.85 25.0 L-6.05 24.65 -6.75 24.6 -7.45 23.45 M-22.8 5.05 L-23.8 4.4 Q-23.3 3.6 -22.15 3.25 L-21.75 4.0 Q-22.0 4.7 -22.8 5.05 M-27.4 0.95 Q-27.7 1.65 -28.45 1.95 L-28.85 1.8 -29.45 1.3 -29.45 0.15 -28.75 0.05 -27.8 0.15 -27.4 0.95 M-27.65 19.05 Q-27.1 19.35 -26.9 19.9 L-26.95 20.05 -27.65 19.05 M-4.65 27.05 L-4.9 27.15 -5.9 26.45 -5.1 25.6 -4.3 25.3 -3.9 26.05 -4.35 26.8 -4.4 26.8 -4.65 27.05 M-16.6 26.0 L-16.65 25.95 -15.75 25.05 -14.95 24.8 -14.8 25.1 -14.75 25.2 -15.85 25.45 -16.05 25.85 -16.6 26.0 M-13.0 31.35 L-13.05 30.65 -12.95 29.4 -12.6 29.4 -12.55 29.4 -12.6 29.75 -12.3 30.75 -11.8 31.15 -13.0 31.35 M-13.8 30.95 L-13.25 31.35 -13.6 31.4 -13.8 30.95 M-16.9 26.15 L-17.6 26.4 -17.75 26.1 Q-17.6 26.1 -17.6 25.4 L-17.6 25.15 -16.75 24.65 -16.9 26.15" fill="#443514" fill-rule="evenodd" stroke="none"/>
      <path d="M15.1 -38.6 L15.1 -38.85 15.2 -38.8 15.1 -38.6 M-12.2 4.95 L-11.9 4.65 -11.85 4.7 -12.2 4.95" fill="#333333" fill-rule="evenodd" stroke="none"/>
      <path d="M-30.85 -17.95 L-31.3 -20.7 -31.4 -21.35 -31.45 -21.95 -31.5 -22.8 -31.45 -24.65 -31.45 -25.3 Q-31.3 -27.9 -31.6 -29.2 L-31.7 -33.35 -31.8 -34.7 -29.45 -34.9 Q-23.0 -35.5 -6.9 -35.35 2.05 -35.25 7.4 -35.4 5.05 -34.35 3.7 -32.15 2.25 -29.8 2.15 -26.15 L2.1 -25.45 2.15 -22.95 0.4 -22.6 -2.85 -22.4 Q-5.05 -22.25 -6.1 -21.0 L-6.4 -20.7 -7.5 -20.65 -19.15 -20.15 -23.65 -18.8 Q-26.55 -18.05 -30.85 -17.95" fill="#4a3916" fill-rule="evenodd" stroke="none"/>
      <path d="M18.75 -14.1 Q20.65 -13.9 20.55 -13.2 L20.4 -11.75 Q21.65 -11.65 21.8 -10.8 L22.05 -9.8 22.15 -9.5 Q22.9 -8.85 23.1 -8.0 L23.4 -6.85 24.65 -5.9 Q25.6 -5.35 25.65 -4.85 L25.6 -4.7 26.1 -4.45 26.4 -4.3 28.8 -2.7 30.35 -1.35 30.3 -1.35 29.75 -1.25 27.05 -0.85 7.15 2.2 Q-8.2 4.6 -11.15 5.65 -11.45 5.05 -11.85 4.7 L-11.9 4.65 -12.2 4.95 -18.5 1.2 -18.6 1.1 -22.1 -0.85 -22.2 -0.95 -22.25 -0.9 -22.35 -0.85 -22.75 -1.0 -22.85 -1.25 -22.85 -1.45 -22.35 -4.15 -22.2 -4.65 -21.7 -6.25 -20.45 -7.55 -18.9 -8.95 Q-17.15 -10.3 -15.85 -9.75 -15.95 -11.15 -14.85 -11.85 L-13.45 -12.85 -13.6 -13.6 Q-13.3 -14.4 -11.6 -15.35 -10.35 -15.5 -10.35 -15.7 L-10.2 -16.25 -9.5 -17.2 -9.4 -18.3 Q-9.4 -19.0 -8.85 -19.45 L-7.55 -20.05 Q-6.8 -20.4 -6.4 -20.7 L-6.1 -21.0 Q-5.05 -22.25 -2.85 -22.4 L0.4 -22.6 2.15 -22.95 2.9 -22.95 Q4.5 -22.75 4.65 -21.45 L5.6 -21.7 7.65 -21.9 Q8.4 -21.65 9.8 -20.1 L10.85 -19.3 Q11.35 -18.95 11.15 -18.45 L14.25 -18.6 Q15.15 -18.6 15.95 -17.9 L16.7 -17.0 Q17.65 -15.55 17.65 -14.2 L18.75 -14.1 M33.15 22.3 L33.5 23.05 Q33.5 23.85 33.1 24.25 L32.55 24.7 33.1 24.9 Q36.5 26.05 36.5 27.95 L36.35 28.65 36.05 28.7 33.75 28.95 32.25 28.9 32.5 29.25 31.95 30.1 32.2 30.15 32.3 30.4 32.4 31.4 Q32.4 32.35 31.95 32.65 L29.9 32.9 27.4 32.65 Q27.8 32.0 27.35 30.45 27.45 30.1 28.05 29.95 L28.0 29.2 28.05 28.4 28.25 28.05 28.25 28.0 28.35 28.0 28.65 28.0 28.7 27.95 28.9 27.55 24.8 27.95 24.65 27.8 Q24.5 27.6 24.5 26.85 L24.55 26.65 Q24.75 26.15 25.6 25.35 L26.2 24.8 26.25 24.75 Q27.4 23.75 27.8 22.95 L28.0 22.2 27.45 21.7 27.25 21.55 26.7 21.0 26.5 20.5 Q26.5 19.25 27.35 18.4 L27.75 18.05 29.4 17.95 Q30.3 18.4 31.3 19.95 L32.25 21.1 Q31.8 21.55 31.5 22.25 31.8 22.7 32.5 22.95 L33.15 22.3 M-0.25 33.6 Q-0.1 33.7 -0.1 34.4 -0.1 35.25 -1.8 35.9 L-4.35 36.4 -7.6 36.1 Q-7.65 36.95 -8.1 37.7 -8.9 38.9 -10.6 38.9 -13.0 38.9 -13.55 38.05 L-13.6 37.05 Q-13.6 36.15 -12.75 35.9 L-8.95 35.0 -9.05 34.45 Q-15.2 36.4 -17.1 36.4 -21.15 36.4 -21.5 35.25 L-21.1 33.45 -23.85 32.9 Q-24.6 32.55 -24.6 31.8 -24.6 31.05 -24.2 30.75 L-23.6 30.45 -27.3 30.4 -27.45 30.15 -27.6 29.15 Q-27.6 28.1 -26.45 27.55 -25.55 27.15 -23.15 26.7 L-22.85 26.65 -22.95 26.4 -23.5 26.4 -24.3 26.4 -24.45 26.25 -24.6 25.7 -24.6 25.3 Q-24.6 24.8 -24.05 24.65 L-23.0 24.45 -22.95 24.45 -22.85 24.2 -23.1 24.15 -23.35 23.75 -23.6 22.75 -23.35 22.2 -21.85 22.05 Q-21.15 20.95 -20.3 20.65 -20.7 17.0 -14.8 18.15 L-14.7 18.55 -14.6 19.65 Q-14.6 20.3 -15.1 20.55 -15.6 20.8 -15.6 21.35 L-15.6 21.4 Q-15.6 22.05 -15.1 21.95 -14.6 21.9 -14.6 22.5 -14.6 22.95 -15.65 23.8 L-16.75 24.65 -17.6 25.15 -17.6 25.4 Q-17.6 26.1 -17.75 26.1 L-17.6 26.4 -16.9 26.15 -16.6 26.0 -16.05 25.85 -15.85 25.45 -14.75 25.2 -13.75 25.2 -12.9 25.35 -11.1 25.2 -11.05 25.05 -10.6 24.7 -11.5 23.35 -12.1 22.0 Q-12.1 21.35 -11.1 20.9 L-10.9 20.8 -8.35 20.4 -7.55 20.65 -7.45 20.9 -6.05 21.15 -5.6 21.9 -7.5 23.35 -7.5 23.4 -7.45 23.45 -6.75 24.6 -6.05 24.65 -5.85 25.0 -5.6 25.4 -6.05 26.0 -5.75 27.4 -5.05 27.4 -4.95 27.75 -5.1 29.2 -5.6 29.4 -6.0 29.4 -6.1 29.7 -4.65 30.9 -5.35 32.05 -5.3 32.65 -4.05 33.0 -4.15 33.95 Q-3.95 34.5 -2.05 34.5 L-1.8 34.5 -1.35 34.75 -0.85 34.5 -0.7 34.4 -0.3 34.15 -0.25 33.6 M-30.55 24.35 L-31.85 24.4 -33.35 24.35 -33.1 24.7 Q-33.55 25.65 -34.1 25.9 L-37.3 25.9 -37.45 25.65 -37.6 24.65 -37.55 23.85 -37.45 23.7 -37.0 24.0 Q-36.1 23.7 -36.0 23.0 L-36.3 22.25 Q-37.25 22.4 -37.85 23.15 L-40.6 23.4 -39.6 22.7 -38.35 22.3 Q-37.6 21.85 -37.6 21.25 L-37.65 20.55 -38.1 20.5 -38.1 20.4 -38.2 19.8 Q-38.25 19.7 -38.6 19.5 L-37.1 18.75 -37.65 18.2 -37.6 18.1 Q-37.1 17.7 -37.1 17.25 L-37.1 17.05 -36.85 16.5 Q-36.85 16.15 -37.1 16.1 L-37.35 15.75 -37.25 15.1 -37.15 14.8 -38.65 14.65 -38.65 14.5 Q-36.5 13.65 -36.35 13.3 -35.5 13.65 -34.6 14.95 L-34.6 15.45 -33.8 16.2 -34.55 17.15 -34.6 17.2 -35.0 17.25 -35.0 18.0 -35.3 17.25 Q-36.4 17.45 -37.0 18.35 L-36.0 19.0 -35.15 18.45 -35.5 19.35 -34.95 19.6 -35.0 19.6 -36.0 20.1 -36.0 20.8 -36.1 21.2 -36.0 21.3 -36.5 21.85 -36.0 22.2 -36.0 22.75 -33.5 23.0 Q-31.55 23.0 -31.05 22.5 L-31.0 24.25 -30.55 24.35 M16.65 -13.45 L16.4 -12.8 17.4 -12.1 18.4 -13.1 Q18.1 -13.8 17.4 -14.1 16.95 -13.95 16.65 -13.45 M12.4 -13.1 L13.4 -14.1 Q13.1 -14.8 12.4 -15.1 11.95 -14.95 11.65 -14.45 L11.4 -13.8 Q11.7 -13.35 12.4 -13.1 M9.4 -13.1 Q8.95 -12.95 8.65 -12.45 L8.4 -11.8 Q8.7 -11.35 9.4 -11.1 L10.4 -12.1 Q10.1 -12.8 9.4 -13.1 M1.65 -18.45 L1.4 -17.8 Q1.7 -17.35 2.4 -17.1 L3.4 -18.1 Q3.1 -18.8 2.4 -19.1 1.95 -18.95 1.65 -18.45 M0.4 -13.1 L1.4 -14.1 Q1.1 -14.8 0.4 -15.1 L-0.35 -14.45 -0.6 -13.8 Q-0.3 -13.35 0.4 -13.1 M4.35 -7.2 L4.1 -6.55 5.05 -5.85 5.15 -5.85 5.3 -5.9 5.3 -5.95 6.1 -6.85 5.45 -7.65 4.85 -7.55 4.65 -7.55 4.3 -7.5 4.35 -7.2 M1.1 -4.85 L1.15 -4.85 1.1 -5.35 Q0.8 -6.05 0.1 -6.35 L-0.65 -5.7 -0.9 -5.05 -0.85 -4.8 -0.7 -4.8 0.75 -4.85 0.9 -4.85 1.1 -4.85 M24.6 -3.1 Q24.6 -2.3 24.85 -2.1 25.0 -1.95 25.6 -1.85 L26.35 -2.3 Q26.6 -2.0 26.6 -3.25 26.6 -4.05 26.3 -4.15 L26.0 -4.2 25.6 -4.35 24.85 -4.3 24.65 -3.9 24.6 -3.1 M21.4 -7.6 Q20.95 -7.45 20.65 -6.95 L20.4 -6.3 Q20.7 -5.85 21.4 -5.6 L22.4 -6.6 Q22.1 -7.3 21.4 -7.6 M17.1 -4.35 Q16.4 -4.35 15.6 -3.05 15.9 -2.6 16.6 -2.35 16.95 -2.35 17.45 -2.75 L18.1 -3.35 Q17.8 -4.05 17.1 -4.35 M10.1 -5.85 Q9.4 -5.85 8.6 -4.55 8.9 -4.1 9.6 -3.85 9.95 -3.85 10.45 -4.25 L11.1 -4.85 Q10.8 -5.55 10.1 -5.85 M5.35 -0.7 L5.1 -0.05 Q5.4 0.4 6.1 0.65 L7.1 -0.35 Q6.8 -1.05 6.1 -1.35 5.65 -1.2 5.35 -0.7 M0.6 -0.35 L1.6 -1.35 Q1.3 -2.05 0.6 -2.35 0.15 -2.2 -0.15 -1.7 L-0.4 -1.05 0.6 -0.35 M30.55 24.5 L30.5 24.45 Q30.05 24.6 29.75 25.1 29.55 25.4 29.5 25.65 L29.5 25.75 Q29.8 26.2 30.5 26.45 L31.5 25.45 Q31.2 24.8 30.55 24.5 M19.4 34.05 Q19.4 33.0 20.25 32.35 21.5 31.4 24.2 32.15 L24.3 32.55 24.4 33.65 Q24.4 35.9 21.65 35.9 19.85 35.9 19.45 35.05 L19.4 34.05 M33.0 27.45 L34.0 26.45 Q33.7 25.75 33.0 25.45 L32.75 25.6 32.4 25.9 32.25 26.1 Q32.0 26.45 32.0 26.75 L33.0 27.45 M24.6 29.4 Q25.3 29.7 25.6 30.4 L24.95 31.0 24.1 31.4 Q23.4 31.15 23.1 30.7 23.9 29.4 24.6 29.4 M-14.85 -2.85 L-15.35 -2.8 -15.35 -2.75 -15.4 -2.55 Q-15.1 -2.1 -14.4 -1.85 -13.9 -2.05 -13.4 -2.85 L-13.55 -3.15 -12.4 -3.35 Q-12.7 -4.05 -13.4 -4.35 -14.1 -4.35 -14.9 -3.05 L-14.85 -2.85 M-12.9 -9.4 L-13.6 -9.6 -14.35 -9.55 -14.55 -9.15 -14.6 -8.35 -14.35 -7.35 -13.6 -7.1 -12.85 -7.55 Q-12.6 -7.25 -12.6 -8.5 -12.6 -9.3 -12.9 -9.4 M-7.25 -13.5 L-6.6 -14.1 Q-6.9 -14.8 -7.6 -15.1 -8.3 -15.1 -9.1 -13.8 -8.8 -13.35 -8.1 -13.1 L-7.25 -13.5 M-6.85 -5.45 L-7.1 -4.8 Q-6.8 -4.35 -6.1 -4.1 -5.6 -4.3 -5.1 -5.1 -5.4 -5.8 -6.1 -6.1 L-6.85 -5.45 M-11.15 -0.7 L-11.4 -0.05 -10.4 0.65 Q-9.9 0.45 -9.4 -0.35 -9.7 -1.05 -10.4 -1.35 L-11.15 -0.7 M-20.1 -3.3 Q-19.8 -2.85 -19.1 -2.6 -18.75 -2.6 -18.25 -3.0 L-17.6 -3.6 Q-17.9 -4.3 -18.6 -4.6 -19.3 -4.6 -20.1 -3.3 M-6.4 1.15 L-7.15 1.8 -7.4 2.45 -6.4 3.15 Q-5.9 2.95 -5.4 2.15 -5.7 1.45 -6.4 1.15 M-19.75 23.0 L-19.1 22.4 Q-19.4 21.7 -20.1 21.4 -20.8 21.4 -21.6 22.7 -21.3 23.15 -20.6 23.4 -20.25 23.4 -19.75 23.0 M-35.0 18.0 L-35.0 18.15 -35.05 18.3 -35.0 18.0 M-9.1 29.7 Q-8.8 30.15 -8.1 30.4 L-7.25 30.0 -6.6 29.4 Q-6.9 28.7 -7.6 28.4 -8.3 28.4 -9.1 29.7 M-12.95 29.4 L-13.6 29.2 Q-14.1 29.65 -14.3 30.4 -14.0 30.6 -13.8 30.95 L-13.6 31.4 -13.25 31.35 -13.0 31.35 -11.8 31.15 -12.3 30.75 -12.6 29.75 -12.55 29.4 -12.6 29.4 -12.95 29.4 M-15.35 32.55 L-15.6 33.2 -14.6 33.9 Q-14.1 33.7 -13.6 32.9 -13.9 32.2 -14.6 31.9 -15.05 32.05 -15.35 32.55 M-18.6 25.9 Q-19.05 26.05 -19.35 26.55 L-19.6 27.2 Q-19.3 27.65 -18.6 27.9 -18.1 27.7 -17.6 26.9 -17.9 26.2 -18.6 25.9" fill="#cc9d3c" fill-rule="evenodd" stroke="none"/>
      <path d="M33.1 20.5 L34.0 21.45 33.15 22.3 32.5 22.95 Q31.8 22.7 31.5 22.25 31.8 21.55 32.25 21.1 L33.0 20.45 33.1 20.5 M12.4 -13.1 Q11.7 -13.35 11.4 -13.8 L11.65 -14.45 Q11.95 -14.95 12.4 -15.1 13.1 -14.8 13.4 -14.1 L12.4 -13.1 M16.65 -13.45 Q16.95 -13.95 17.4 -14.1 18.1 -13.8 18.4 -13.1 L17.4 -12.1 16.4 -12.8 16.65 -13.45 M0.4 -13.1 Q-0.3 -13.35 -0.6 -13.8 L-0.35 -14.45 0.4 -15.1 Q1.1 -14.8 1.4 -14.1 L0.4 -13.1 M1.65 -18.45 Q1.95 -18.95 2.4 -19.1 3.1 -18.8 3.4 -18.1 L2.4 -17.1 Q1.7 -17.35 1.4 -17.8 L1.65 -18.45 M9.4 -13.1 Q10.1 -12.8 10.4 -12.1 L9.4 -11.1 Q8.7 -11.35 8.4 -11.8 L8.65 -12.45 Q8.95 -12.95 9.4 -13.1 M4.65 -7.55 L4.85 -7.55 5.45 -7.65 6.1 -6.85 5.3 -5.95 5.3 -5.9 5.15 -5.85 5.05 -5.85 4.1 -6.55 4.35 -7.2 4.65 -7.55 M0.75 -4.85 L-0.7 -4.8 -0.9 -5.05 -0.65 -5.7 0.1 -6.35 Q0.8 -6.05 1.1 -5.35 L0.75 -4.85 M0.6 -0.35 L-0.4 -1.05 -0.15 -1.7 Q0.15 -2.2 0.6 -2.35 1.3 -2.05 1.6 -1.35 L0.6 -0.35 M5.35 -0.7 Q5.65 -1.2 6.1 -1.35 6.8 -1.05 7.1 -0.35 L6.1 0.65 Q5.4 0.4 5.1 -0.05 L5.35 -0.7 M10.1 -5.85 Q10.8 -5.55 11.1 -4.85 L10.45 -4.25 Q9.95 -3.85 9.6 -3.85 8.9 -4.1 8.6 -4.55 9.4 -5.85 10.1 -5.85 M17.1 -4.35 Q17.8 -4.05 18.1 -3.35 L17.45 -2.75 Q16.95 -2.35 16.6 -2.35 15.9 -2.6 15.6 -3.05 16.4 -4.35 17.1 -4.35 M21.4 -7.6 Q22.1 -7.3 22.4 -6.6 L21.4 -5.6 Q20.7 -5.85 20.4 -6.3 L20.65 -6.95 Q20.95 -7.45 21.4 -7.6 M24.6 -3.1 L24.65 -3.9 24.85 -4.3 25.6 -4.35 26.0 -4.2 26.3 -4.15 Q26.6 -4.05 26.6 -3.25 26.6 -2.0 26.35 -2.3 L25.6 -1.85 Q25.0 -1.95 24.85 -2.1 24.6 -2.3 24.6 -3.1 M30.55 24.5 Q31.2 24.8 31.5 25.45 L30.5 26.45 Q29.8 26.2 29.5 25.75 L29.5 25.65 Q29.55 25.4 29.75 25.1 30.05 24.6 30.5 24.45 L30.55 24.5 M33.0 27.45 L32.0 26.75 Q32.0 26.45 32.25 26.1 L32.4 25.9 32.75 25.6 33.0 25.45 Q33.7 25.75 34.0 26.45 L33.0 27.45 M-7.25 -13.5 L-8.1 -13.1 Q-8.8 -13.35 -9.1 -13.8 -8.3 -15.1 -7.6 -15.1 -6.9 -14.8 -6.6 -14.1 L-7.25 -13.5 M-12.9 -9.4 Q-12.6 -9.3 -12.6 -8.5 -12.6 -7.25 -12.85 -7.55 L-13.6 -7.1 -14.35 -7.35 -14.6 -8.35 -14.55 -9.15 -14.35 -9.55 -13.6 -9.6 -12.9 -9.4 M-14.9 -3.05 Q-14.1 -4.35 -13.4 -4.35 -12.7 -4.05 -12.4 -3.35 L-13.55 -3.15 -13.4 -2.85 Q-13.9 -2.05 -14.4 -1.85 -15.1 -2.1 -15.4 -2.55 L-15.35 -2.75 -15.35 -2.8 -14.85 -2.85 -14.8 -2.9 -14.9 -3.05 M-20.1 -3.3 Q-19.3 -4.6 -18.6 -4.6 -17.9 -4.3 -17.6 -3.6 L-18.25 -3.0 Q-18.75 -2.6 -19.1 -2.6 -19.8 -2.85 -20.1 -3.3 M-11.15 -0.7 L-10.4 -1.35 Q-9.7 -1.05 -9.4 -0.35 -9.9 0.45 -10.4 0.65 L-11.4 -0.05 -11.15 -0.7 M-6.85 -5.45 L-6.1 -6.1 Q-5.4 -5.8 -5.1 -5.1 -5.6 -4.3 -6.1 -4.1 -6.8 -4.35 -7.1 -4.8 L-6.85 -5.45 M-6.4 1.15 Q-5.7 1.45 -5.4 2.15 -5.9 2.95 -6.4 3.15 L-7.4 2.45 -7.15 1.8 -6.4 1.15 M-19.75 23.0 Q-20.25 23.4 -20.6 23.4 -21.3 23.15 -21.6 22.7 -20.8 21.4 -20.1 21.4 -19.4 21.7 -19.1 22.4 L-19.75 23.0 M-9.1 29.7 Q-8.3 28.4 -7.6 28.4 -6.9 28.7 -6.6 29.4 L-7.25 30.0 -8.1 30.4 Q-8.8 30.15 -9.1 29.7 M-18.6 25.9 Q-17.9 26.2 -17.6 26.9 -18.1 27.7 -18.6 27.9 -19.3 27.65 -19.6 27.2 L-19.35 26.55 Q-19.05 26.05 -18.6 25.9 M-15.35 32.55 Q-15.05 32.05 -14.6 31.9 -13.9 32.2 -13.6 32.9 -14.1 33.7 -14.6 33.9 L-15.6 33.2 -15.35 32.55" fill="#eddcb7" fill-rule="evenodd" stroke="none"/>
      <path d="M30.35 -1.35 L28.8 -2.7 26.4 -4.3 26.1 -4.45 26.15 -4.55 28.95 -2.9 Q30.35 -2.05 31.3 -1.5 L30.35 -1.35 M4.65 -7.55 L4.35 -7.2 4.3 -7.5 4.65 -7.55 M1.1 -4.85 L0.9 -4.85 0.75 -4.85 1.1 -5.35 1.1 -4.85 M-0.7 -4.8 L-0.85 -4.8 -0.9 -5.05 -0.7 -4.8" fill="#3f3f3f" fill-rule="evenodd" stroke="none"/>
      <path d="M1.1 -5.35 L1.15 -4.85 1.1 -4.85 1.1 -5.35" fill="#a88960" fill-rule="evenodd" stroke="none"/>
      <path d="M-22.2 -4.65 L-22.35 -4.15 -22.85 -1.45 -22.85 -1.25 -27.95 -4.05 -22.2 -4.65 M-22.25 -0.9 L-22.2 -0.95 -22.1 -0.85 -22.25 -0.9 M26.1 -4.45 L25.6 -4.7 25.65 -4.85 26.15 -4.55 26.1 -4.45 M-14.85 -2.85 L-14.9 -3.05 -14.8 -2.9 -14.85 -2.85" fill="#725c3f" fill-rule="evenodd" stroke="none"/>
      <path d="M26.7 21.0 L27.25 21.55 27.45 21.7 26.85 22.4 27.8 22.95 Q27.4 23.75 26.25 24.75 L26.2 24.8 25.6 25.35 25.6 21.15 26.7 21.0 M18.1 2.95 L18.05 2.55 18.1 2.95 M-4.95 27.75 L-5.05 27.4 -5.75 27.4 -6.05 26.0 -5.6 25.4 -5.85 25.0 Q-4.25 24.3 -3.4 24.4 L-3.4 26.65 -4.35 26.8 -3.9 26.05 -4.3 25.3 -5.1 25.6 -5.9 26.45 -4.9 27.15 -4.65 27.05 -4.95 27.75 M-5.1 29.2 L-5.1 29.45 -4.85 30.1 -4.6 30.75 -4.65 30.9 -6.1 29.7 -6.0 29.4 -5.6 29.4 -5.1 29.2" fill="#977328" fill-rule="evenodd" stroke="none"/>
      <path d="M-10.9 20.8 L-10.9 19.25 -10.85 16.0 -10.8 14.0 -10.8 13.95 5.0 11.9 7.35 11.45 7.6 15.4 10.1 15.65 19.6 14.65 Q20.6 14.5 20.6 12.9 L20.6 10.15 22.1 10.15 Q23.3 9.7 27.2 8.95 29.5 8.4 30.7 7.6 L30.6 12.9 30.5 15.9 30.5 17.75 29.4 17.95 27.75 18.05 27.35 18.4 27.2 18.45 Q24.1 19.35 23.1 20.45 L23.9 21.0 Q23.55 21.4 23.45 22.05 23.35 22.9 23.6 23.95 L23.65 25.9 23.65 25.95 23.7 26.3 6.05 28.95 -1.0 30.25 -1.0 30.05 -1.1 28.8 -1.0 28.05 -0.75 27.25 -0.85 26.5 -1.4 26.55 -1.4 22.65 -1.6 21.9 -2.65 21.65 -5.5 22.8 -7.45 23.45 -7.5 23.4 -7.5 23.35 -5.6 21.9 -6.05 21.15 -7.45 20.9 -7.55 20.65 -8.35 20.4 -10.9 20.8 M-31.9 -11.1 Q-33.05 -10.7 -33.55 -9.85 L-32.55 -9.25 Q-31.85 -9.5 -31.55 -10.05 L-31.1 -6.3 -34.5 -8.75 -33.9 -9.35 -33.95 -9.7 -35.1 -15.55 Q-35.85 -19.15 -35.9 -21.7 L-35.95 -28.15 -36.0 -29.25 -35.15 -28.7 -34.4 -29.15 -34.15 -29.35 Q-34.2 -30.4 -35.15 -30.85 L-35.85 -30.1 -36.05 -29.7 -36.1 -30.05 Q-36.4 -32.25 -37.1 -33.75 L-36.9 -33.8 -34.85 -34.4 -33.9 -34.5 -33.9 -33.1 -33.8 -29.35 Q-33.6 -25.0 -32.9 -20.05 L-32.9 -20.0 -32.85 -19.45 -31.7 -11.1 -31.9 -11.1 M-29.9 -2.1 L-28.8 -1.45 -23.9 0.95 -18.8 4.05 Q-14.85 6.3 -13.15 6.6 -13.6 8.15 -13.5 10.75 L-15.45 9.75 -21.85 6.9 -27.2 3.65 Q-28.8 2.7 -29.9 2.3 L-29.9 -2.1 M-35.15 -19.6 L-34.15 -19.0 Q-33.3 -19.3 -33.05 -20.0 -33.3 -20.7 -34.15 -21.1 L-34.85 -20.35 -35.15 -19.6 M-15.75 6.6 Q-16.25 6.85 -16.65 7.45 -16.25 7.9 -15.65 8.15 -14.75 7.85 -14.65 7.15 L-14.95 6.3 -15.75 6.6 M-15.65 23.8 L-13.8 25.15 -13.75 25.2 -14.75 25.2 -14.8 25.1 -14.95 24.8 -15.75 25.05 -16.65 25.95 -16.6 26.0 -16.9 26.15 -16.75 24.65 -15.65 23.8 M-27.4 0.95 L-27.8 0.15 -28.75 0.05 -29.45 0.15 -29.45 1.3 -28.85 1.8 -28.45 1.95 Q-27.7 1.65 -27.4 0.95 M-22.8 5.05 Q-22.0 4.7 -21.75 4.0 L-22.15 3.25 Q-23.3 3.6 -23.8 4.4 L-22.8 5.05 M-28.05 18.45 L-26.9 18.65 -26.4 18.65 -26.4 18.7 -26.4 20.15 -26.35 20.95 -26.95 20.05 -26.9 19.9 Q-27.1 19.35 -27.65 19.05 L-28.05 18.45 M-12.95 29.4 L-13.05 30.65 -13.0 31.35 -13.25 31.35 -13.8 30.95 Q-14.0 30.6 -14.3 30.4 -14.1 29.65 -13.6 29.2 L-12.95 29.4" fill="#735622" fill-rule="evenodd" stroke="none"/>
      <path d="M-6.4 -20.7 Q-6.8 -20.4 -7.55 -20.05 L-8.85 -19.45 Q-9.4 -19.0 -9.4 -18.3 L-9.5 -17.2 -10.2 -16.25 -10.35 -15.7 Q-10.35 -15.5 -11.6 -15.35 -13.3 -14.4 -13.6 -13.6 L-13.45 -12.85 -14.85 -11.85 Q-15.95 -11.15 -15.85 -9.75 -17.15 -10.3 -18.9 -8.95 L-20.45 -7.55 Q-26.1 -6.75 -28.55 -6.0 -29.8 -11.5 -30.85 -17.95 -26.55 -18.05 -23.65 -18.8 L-19.15 -20.15 -7.5 -20.65 -6.4 -20.7 M-38.7 -32.9 L-38.9 -32.75 Q-38.9 -28.4 -37.85 -20.0 -37.0 -13.05 -36.05 -10.05 -39.35 -12.95 -40.45 -15.5 -41.4 -17.65 -41.4 -25.2 L-41.5 -27.75 -41.4 -30.45 Q-41.15 -31.95 -38.8 -33.05 L-38.7 -32.9 M-15.6 21.35 Q-15.6 20.8 -15.1 20.55 -14.6 20.3 -14.6 19.65 L-14.7 18.55 -14.8 18.15 Q-20.7 17.0 -20.3 20.65 -21.15 20.95 -21.85 22.05 L-23.35 22.2 -23.6 22.75 -23.35 23.75 -23.1 24.15 -22.85 24.2 -22.95 24.45 -23.0 24.45 Q-23.9 23.85 -24.7 23.35 L-24.6 23.2 -24.4 20.0 -24.6 18.7 Q-24.85 17.4 -25.4 16.65 L-25.9 17.15 -28.0 15.05 -28.15 14.65 -28.3 14.75 -28.5 14.65 -29.9 13.45 -29.9 4.3 -22.9 8.65 Q-16.2 12.6 -13.3 13.75 L-12.9 19.4 -12.95 22.7 -13.0 22.85 -15.6 21.35" fill="#5a441b" fill-rule="evenodd" stroke="none"/>
      <path d="M-31.9 -11.1 L-31.7 -11.1 -31.65 -10.55 -31.9 -11.1" fill="#999999" fill-rule="evenodd" stroke="none"/>
      <path d="M-0.85 32.7 L-0.25 33.6 -0.3 34.15 -0.7 34.4 -0.5 33.75 -0.6 33.25 -2.5 33.3 -2.5 33.85 -1.8 34.5 -2.05 34.5 Q-3.95 34.5 -4.15 33.95 L-4.05 33.0 -5.3 32.65 -5.35 32.05 -4.65 30.9 -4.6 30.75 -4.85 30.1 -5.1 29.45 -5.1 29.2 -4.95 27.75 -4.65 27.05 -4.4 26.8 -4.35 26.8 -3.4 26.65 -1.4 26.55 -0.85 26.5 -0.75 27.25 -1.0 28.05 -1.1 28.8 -1.0 30.05 -1.0 30.25 -1.25 30.95 -1.5 31.8 -0.85 32.7 M-25.3 25.25 L-27.5 25.5 -30.0 25.25 -29.85 24.45 -30.55 24.35 -31.0 24.25 -31.05 22.5 Q-31.55 23.0 -33.5 23.0 L-36.0 22.75 -36.0 22.2 -36.5 21.85 -36.0 21.3 -36.0 20.8 -36.0 20.1 -35.0 19.6 -34.95 19.6 -35.5 19.35 -35.15 18.45 -35.05 18.3 -35.0 18.15 -35.0 18.0 -35.0 17.25 -34.6 17.2 -34.55 17.15 -33.8 16.2 -34.6 15.45 -34.6 14.95 -34.6 14.55 -34.45 13.05 -34.35 11.0 Q-34.35 10.05 -33.75 9.7 L-31.9 9.35 -30.15 9.3 -30.1 10.1 -30.45 10.75 -30.8 11.55 -30.55 12.2 -30.35 12.85 -30.8 13.8 -29.8 13.75 -29.8 14.3 -29.95 15.05 -30.5 16.35 -29.5 17.0 -29.2 16.8 -28.05 18.45 -27.65 19.05 -26.95 20.05 -26.35 20.95 -24.75 23.3 -24.7 23.35 -24.5 23.65 Q-24.5 24.85 -25.3 25.25 M-40.6 23.4 L-41.5 23.75 Q-41.85 23.75 -42.35 23.25 L-42.85 22.5 Q-42.85 21.95 -42.15 21.55 L-41.35 21.0 -41.35 20.3 Q-41.35 19.35 -40.9 18.8 L-40.8 18.3 -40.85 17.55 Q-40.85 16.55 -40.35 15.1 L-40.3 15.0 -40.15 15.05 -39.5 15.25 -38.85 15.15 -38.6 15.0 -38.65 14.65 -37.15 14.8 -37.25 15.1 -37.35 15.75 -37.1 16.1 Q-36.85 16.15 -36.85 16.5 L-37.1 17.05 -37.1 17.25 Q-37.1 17.7 -37.6 18.1 L-37.65 18.2 -37.1 18.75 -38.6 19.5 Q-38.25 19.7 -38.2 19.8 L-38.1 20.4 -38.1 20.5 -37.65 20.55 -37.6 21.25 Q-37.6 21.85 -38.35 22.3 L-39.6 22.7 -40.6 23.4 M-39.85 13.1 L-39.85 12.55 Q-39.85 10.95 -37.7 10.7 -35.6 10.45 -35.6 11.6 L-36.0 12.25 Q-36.4 12.7 -36.35 13.25 L-36.35 13.3 Q-36.5 13.65 -38.65 14.5 -38.9 13.75 -39.6 13.25 L-39.85 13.1 M-32.5 20.5 L-32.8 19.75 Q-33.9 19.95 -34.5 20.85 L-33.5 21.5 Q-32.6 21.2 -32.5 20.5 M-27.0 23.0 Q-26.1 22.7 -26.0 22.0 L-26.3 21.25 Q-27.4 21.45 -28.0 22.35 L-27.0 23.0 M-30.15 27.7 Q-30.0 27.9 -30.0 28.65 -30.0 29.45 -31.0 30.0 -31.9 30.5 -33.0 30.5 L-33.35 30.4 -33.75 30.5 -35.0 30.25 -35.25 29.5 -35.5 28.75 Q-35.1 28.25 -34.45 28.15 L-33.35 28.15 -33.0 27.95 Q-31.5 27.3 -30.3 27.5 L-30.15 27.7 M-2.6 29.5 L-2.8 29.05 -4.1 29.05 -4.1 29.6 -3.6 30.0 -2.95 29.8 -2.6 29.5" fill="#cea043" fill-rule="evenodd" stroke="none"/>
      <path d="M-37.45 23.7 L-38.0 23.35 -37.85 23.15 Q-37.25 22.4 -36.3 22.25 L-36.0 23.0 Q-36.1 23.7 -37.0 24.0 L-37.45 23.7 M-40.3 15.0 L-40.6 14.4 Q-40.6 12.85 -39.85 13.1 L-39.6 13.25 Q-38.9 13.75 -38.65 14.5 L-38.65 14.65 -38.6 15.0 -38.85 15.15 -39.5 15.25 -40.15 15.05 -40.3 15.0 M-28.5 14.65 L-28.3 14.75 -28.15 14.65 -28.0 15.05 -28.0 15.5 -28.35 15.95 -29.2 16.8 -29.5 17.0 -30.5 16.35 -29.95 15.05 -29.7 14.75 -28.5 14.65 M-35.15 18.45 L-36.0 19.0 -37.0 18.35 Q-36.4 17.45 -35.3 17.25 L-35.0 18.0 -35.05 18.3 -35.15 18.45 M-32.5 20.5 Q-32.6 21.2 -33.5 21.5 L-34.5 20.85 Q-33.9 19.95 -32.8 19.75 L-32.5 20.5 M-27.0 23.0 L-28.0 22.35 Q-27.4 21.45 -26.3 21.25 L-26.0 22.0 Q-26.1 22.7 -27.0 23.0 M-1.8 34.5 L-2.5 33.85 -2.5 33.3 -0.6 33.25 -0.5 33.75 -0.7 34.4 -0.85 34.5 -1.35 34.75 -1.8 34.5 M-2.6 29.5 L-2.95 29.8 -3.6 30.0 -4.1 29.6 -4.1 29.05 -2.8 29.05 -2.6 29.5" fill="#e4cc98" fill-rule="evenodd" stroke="none"/>
      <path d="M30.8 5.65 L30.6 5.65 23.35 7.4 20.6 8.2 20.45 3.95 19.95 2.2 22.25 1.75 26.65 1.4 31.45 0.6 Q31.0 2.3 30.8 5.65 M22.15 4.5 L21.2 5.4 22.25 6.05 Q23.05 5.75 23.25 5.05 L22.9 4.25 22.15 4.5 M27.75 5.2 L28.4 4.5 28.0 3.75 26.55 4.05 Q26.2 4.25 25.85 4.9 L26.85 5.55 27.75 5.2 M15.35 5.65 L15.4 4.4 12.8 4.35 Q11.6 4.75 11.6 5.5 L11.85 7.6 12.1 9.9 14.1 10.15 Q15.55 10.15 16.1 9.2 L15.5 8.45 Q15.1 8.0 15.1 7.3 L15.35 5.65 M18.05 2.55 L18.1 2.95 18.35 5.55 18.6 8.65 18.6 11.95 Q18.6 12.4 14.1 12.65 12.05 13.4 9.6 13.45 L9.6 8.05 Q9.45 5.8 8.7 4.45 L13.85 3.4 18.05 2.55 M-10.9 11.95 L-10.8 8.0 -10.8 7.15 -6.4 7.15 1.9 5.7 7.1 4.75 7.1 9.1 -4.6 10.6 Q-8.95 11.35 -10.85 12.05 L-10.9 11.95 M3.25 7.45 Q3.65 7.9 4.35 8.15 L5.25 7.75 5.85 7.15 Q5.6 6.35 4.85 6.05 4.15 6.05 3.25 7.45 M-2.9 9.0 L-1.85 9.65 Q-0.95 9.35 -0.85 8.65 L-1.15 7.9 -2.05 8.15 -2.9 9.0 M-8.95 10.15 Q-8.2 9.85 -7.9 9.15 L-8.3 8.4 Q-9.35 8.6 -9.95 9.5 -9.65 9.9 -8.95 10.15" fill="#aa822d" fill-rule="evenodd" stroke="none"/>
    </g>
  </defs>
</svg>
