<?xml version="1.0" encoding="UTF-8" standalone="no"?>
<svg xmlns:ffdec="https://www.free-decompiler.com/flash" xmlns:xlink="http://www.w3.org/1999/xlink" ffdec:objectType="frame" height="459.0px" width="700.0px" xmlns="http://www.w3.org/2000/svg">
  <g transform="matrix(1.0, 0.0, 0.0, 1.0, 0.0, 59.0)">
    <use ffdec:characterId="1074" height="400.0" transform="matrix(1.0, 0.0, 0.0, 1.0, 0.0, 0.0)" width="700.0" xlink:href="#shape0"/>
  </g>
  <defs>
    <g id="shape0" transform="matrix(1.0, 0.0, 0.0, 1.0, 0.0, 0.0)">
      <path d="M700.0 53.0 L0.0 53.0 0.0 0.0 215.5 0.0 212.9 3.05 212.0 3.95 Q210.3 5.6 210.3 6.45 L210.35 6.6 210.3 6.8 Q210.3 7.5 211.95 9.05 L214.25 11.05 215.5 12.2 215.5 34.15 214.25 35.25 211.95 37.25 Q210.3 38.8 210.3 39.5 L210.35 39.7 210.3 39.85 Q210.3 40.7 212.0 42.35 L212.9 43.25 215.5 46.3 Q217.7 48.65 218.7 49.05 L219.05 49.3 481.4 49.3 484.45 46.6 487.05 43.55 487.95 42.65 Q489.65 41.0 489.65 40.15 L489.6 40.0 489.65 39.8 Q489.65 39.1 488.0 37.55 L485.7 35.55 484.45 34.45 484.45 11.95 485.7 10.8 488.0 8.8 Q489.65 7.25 489.65 6.55 L489.6 6.35 489.65 6.2 Q489.65 5.35 487.95 3.7 L487.05 2.8 484.7 0.0 700.0 0.0 700.0 53.0 M651.2 358.65 L651.2 399.3 692.5 399.3 692.5 358.65 651.2 358.65 M700.0 400.0 L0.0 400.0 0.0 340.0 700.0 340.0 700.0 400.0" fill="#010101" fill-opacity="0.0" fill-rule="evenodd" stroke="none"/>
    </g>
  </defs>
</svg>
