<?xml version="1.0" encoding="UTF-8" standalone="no"?>
<svg xmlns:ffdec="https://www.free-decompiler.com/flash" xmlns:xlink="http://www.w3.org/1999/xlink" ffdec:objectType="frame" height="31.85px" width="63.35px" xmlns="http://www.w3.org/2000/svg">
  <g transform="matrix(1.0, 0.0, 0.0, 1.0, 27.6, 31.05)">
    <use ffdec:characterId="519" height="71.7" transform="matrix(-0.1587, 0.0591, 0.0718, 0.1927, 18.3087, -18.8993)" width="99.5" xlink:href="#shape0"/>
    <use ffdec:characterId="528" height="66.5" transform="matrix(-0.1198, -0.1198, -0.1198, 0.1198, -4.2302, -11.0274)" width="39.5" xlink:href="#shape1"/>
    <use ffdec:characterId="529" height="92.4" transform="matrix(-0.1106, -0.128, -0.128, 0.1106, -10.6273, -16.9237)" width="41.5" xlink:href="#shape2"/>
    <use ffdec:characterId="530" height="150.0" transform="matrix(-0.1746, 0.0, 0.0, 0.1694, 18.6205, -28.7658)" width="181.5" xlink:href="#shape3"/>
    <use ffdec:characterId="528" height="66.5" transform="matrix(-0.0847, -0.1467, -0.1467, 0.0847, -8.5664, -10.2458)" width="39.5" xlink:href="#shape1"/>
    <use ffdec:characterId="531" height="117.3" transform="matrix(-0.167, -0.028, -0.028, 0.167, 33.3492, -23.1236)" width="133.6" xlink:href="#shape4"/>
    <use ffdec:characterId="527" height="71.7" transform="matrix(-0.1646, 0.0392, 0.0476, 0.1999, 13.4201, -18.4645)" width="99.5" xlink:href="#shape5"/>
  </g>
  <defs>
    <g id="shape0" transform="matrix(1.0, 0.0, 0.0, 1.0, 42.55, 43.75)">
      <path d="M-1.25 -37.75 L-1.45 -36.7 -1.2 -36.6 Q-1.85 -35.9 -4.15 -34.2 L-9.7 -30.0 -12.4 -27.35 -12.55 -27.2 -12.2 -27.15 -13.65 -25.55 -13.9 -25.3 Q-22.0 -16.15 -25.4 -7.3 -26.7 -3.85 -29.65 1.8 L-34.15 10.7 -37.5 19.3 -40.1 26.25 Q-38.35 26.15 -36.4 26.2 L-33.05 26.25 -30.15 25.8 Q-28.7 25.35 -28.45 23.7 L-28.45 19.5 -25.95 15.35 Q-24.2 12.45 -22.95 11.25 -19.0 7.5 -9.6 3.7 -2.4 0.75 0.85 0.2 L15.0 -2.5 25.05 -4.6 27.45 -5.25 28.2 -5.4 29.25 -5.85 29.35 -5.65 42.45 -8.6 40.7 -9.25 36.95 -10.35 Q37.4 -12.1 41.55 -13.15 L49.95 -14.85 51.8 -15.0 45.6 -16.4 Q42.45 -17.15 42.45 -18.3 42.45 -19.05 43.35 -19.3 L47.3 -20.35 44.85 -23.65 44.9 -23.75 43.45 -25.8 Q40.95 -29.9 40.95 -31.05 L41.0 -31.6 40.95 -31.75 40.95 -31.95 Q40.95 -33.7 39.2 -36.55 L39.15 -36.65 38.95 -37.2 38.3 -38.1 Q39.1 -38.3 39.75 -38.1 40.75 -37.8 41.3 -36.45 42.1 -33.35 42.95 -32.15 L43.1 -31.4 43.8 -30.3 44.45 -28.55 45.2 -27.2 Q47.35 -23.55 49.95 -21.9 L49.9 -21.6 Q51.3 -21.45 53.8 -20.45 L54.0 -20.15 Q53.9 -19.15 53.35 -18.85 L47.45 -18.05 52.55 -17.2 Q55.5 -16.7 56.95 -15.2 56.95 -14.25 56.4 -13.9 55.55 -13.4 49.7 -12.95 L45.9 -12.05 42.45 -11.1 41.55 -10.85 Q43.85 -10.45 44.85 -9.55 45.45 -9.0 45.45 -8.35 45.45 -7.25 42.15 -6.55 L32.95 -4.5 20.95 -1.2 20.15 -1.35 13.55 0.2 -1.9 3.2 Q-5.35 4.1 -9.05 5.85 L-14.7 8.5 Q-18.35 9.95 -20.0 11.35 -21.35 12.45 -23.15 15.2 -25.05 18.1 -27.15 26.1 L-26.95 26.45 -26.95 26.9 -26.95 26.95 Q-26.95 27.65 -27.1 27.65 L-27.4 27.95 -38.95 27.95 -41.55 27.2 -42.45 26.6 -42.55 26.5 -42.45 25.35 -42.45 25.15 -42.2 25.15 -42.1 25.15 -41.9 24.5 Q-40.5 19.95 -35.0 8.45 -27.15 -7.5 -26.4 -9.3 -23.65 -15.65 -22.1 -18.35 -20.05 -22.0 -17.45 -24.95 -17.25 -25.75 -14.2 -28.65 L-10.35 -32.1 Q-6.2 -35.6 -1.35 -37.65 L-1.25 -37.75 M41.15 -22.1 L41.55 -22.2 41.95 -22.1 41.15 -22.1" fill="#000000" fill-rule="evenodd" stroke="none"/>
      <path d="M39.75 -38.1 Q39.1 -38.3 38.3 -38.1 L38.95 -37.2 39.15 -36.65 39.2 -36.55 Q40.95 -33.7 40.95 -31.95 L40.95 -31.75 41.0 -31.6 40.95 -31.05 Q40.95 -29.9 43.45 -25.8 L44.9 -23.75 44.85 -23.65 47.3 -20.35 43.35 -19.3 Q42.45 -19.05 42.45 -18.3 42.45 -17.15 45.6 -16.4 L51.8 -15.0 49.95 -14.85 41.55 -13.15 Q37.4 -12.1 36.95 -10.35 L40.7 -9.25 42.45 -8.6 29.35 -5.65 29.25 -5.85 28.2 -5.4 27.45 -5.25 25.05 -4.6 15.0 -2.5 0.85 0.2 Q-2.4 0.75 -9.6 3.7 -19.0 7.5 -22.95 11.25 -24.2 12.45 -25.95 15.35 L-28.45 19.5 -28.45 23.7 Q-28.7 25.35 -30.15 25.8 L-33.05 26.25 -36.4 26.2 Q-38.35 26.15 -40.1 26.25 L-37.5 19.3 -34.15 10.7 -29.65 1.8 Q-26.7 -3.85 -25.4 -7.3 -22.0 -16.15 -13.9 -25.3 L-13.65 -25.55 -12.2 -27.15 -12.55 -27.2 -12.4 -27.35 -9.7 -30.0 -4.15 -34.2 Q-1.85 -35.9 -1.2 -36.6 L-1.45 -36.7 -1.25 -37.75 -1.1 -38.1 Q0.45 -38.8 2.1 -39.95 L2.65 -40.35 2.75 -40.3 2.85 -40.45 Q5.85 -42.05 15.95 -43.2 L28.45 -43.75 Q34.15 -43.55 38.25 -39.45 L39.4 -38.55 39.75 -38.1 M41.15 -22.1 L41.95 -22.1 41.55 -22.2 41.15 -22.1" fill="#242939" fill-rule="evenodd" stroke="none"/>
    </g>
    <g id="shape1" transform="matrix(1.0, 0.0, 0.0, 1.0, 20.0, 34.0)">
      <path d="M-0.55 -31.45 L0.2 -30.7 0.35 -30.5 1.95 -28.55 1.05 -28.25 2.45 -26.25 5.5 -21.0 Q8.35 -17.5 10.55 -16.25 15.0 -13.8 15.0 -12.4 L14.9 -11.55 14.75 -11.2 11.05 -10.75 Q11.9 -9.9 16.1 -8.15 19.5 -6.8 19.5 -5.35 19.5 -4.4 18.3 -4.2 15.95 -3.75 7.05 -4.25 L9.2 -3.1 Q11.0 -2.05 11.0 -1.4 11.0 -0.6 10.7 -0.3 L10.0 0.0 8.5 0.0 7.25 -0.3 Q4.0 -0.65 4.0 2.4 4.0 3.35 5.0 4.5 L5.0 4.8 9.2 12.05 Q9.5 12.65 9.5 17.0 9.5 19.9 8.75 25.05 8.15 29.0 7.45 30.75 L7.55 30.75 7.7 31.0 Q7.55 31.45 7.55 32.05 L6.0 32.5 Q-0.4 32.5 -1.45 30.5 -1.9 29.55 -2.0 20.75 -2.0 18.15 -3.3 15.05 -4.6 11.8 -7.0 8.75 -11.3 3.25 -14.4 -2.6 -18.5 -10.35 -18.5 -15.25 L-18.45 -15.95 -18.95 -17.1 -18.95 -17.2 Q-18.35 -16.5 -17.5 -16.5 L-16.7 -16.6 -16.8 -16.75 -16.75 -17.0 -16.5 -16.5 -16.9 -16.05 -15.45 -11.45 Q-14.2 -7.15 -12.7 -4.95 L-9.35 1.1 Q-7.0 5.45 -5.45 7.25 -2.8 10.2 -1.45 13.5 -0.4 16.2 0.0 19.55 L0.05 22.65 0.0 26.0 Q0.0 27.7 -0.3 29.15 -0.4 29.85 -0.1 29.9 L5.05 30.35 Q5.15 29.1 5.85 27.35 L7.0 23.8 7.25 20.1 7.5 17.1 Q7.5 14.55 5.0 10.2 2.5 5.85 2.5 -0.4 2.5 -1.1 2.85 -1.25 L3.1 -1.3 3.8 -1.8 3.85 -1.65 4.25 -1.5 5.25 -2.05 5.25 -2.0 5.75 -2.25 Q6.1 -3.05 5.25 -4.15 L5.1 -4.35 5.0 -6.5 6.15 -6.65 8.55 -6.25 14.3 -6.25 Q13.35 -6.55 10.45 -8.75 7.5 -11.0 7.5 -11.45 7.5 -12.35 7.75 -12.6 8.35 -13.25 10.8 -13.25 8.95 -14.3 4.45 -19.65 -0.1 -25.0 -0.45 -27.2 L-0.5 -27.4 -0.5 -27.6 -0.6 -27.65 Q-1.65 -27.95 -1.8 -28.85 L-2.1 -29.4 -2.0 -29.5 Q-0.8 -30.4 -0.55 -31.45" fill="#000000" fill-rule="evenodd" stroke="none"/>
      <path d="M-18.95 -17.2 L-19.55 -18.25 -20.0 -20.1 Q-20.0 -21.05 -18.65 -23.95 -17.4 -26.6 -16.55 -27.75 L-15.75 -29.35 Q-15.2 -30.65 -14.0 -31.85 -13.0 -32.75 -11.2 -33.05 L-9.05 -33.25 -4.25 -34.0 -0.55 -33.75 -0.5 -32.05 -0.55 -31.45 Q-0.8 -30.4 -2.0 -29.5 L-2.1 -29.4 -1.8 -28.85 Q-1.65 -27.95 -0.6 -27.65 L-0.5 -27.6 -0.5 -27.4 -0.55 -27.35 -0.5 -27.2 -0.45 -27.2 Q-0.1 -25.0 4.45 -19.65 8.95 -14.3 10.8 -13.25 8.35 -13.25 7.75 -12.6 7.5 -12.35 7.5 -11.45 7.5 -11.0 10.45 -8.75 13.35 -6.55 14.3 -6.25 L8.55 -6.25 6.15 -6.65 5.0 -6.5 5.1 -4.35 5.25 -4.15 Q6.1 -3.05 5.75 -2.25 L5.25 -2.0 5.25 -2.05 4.25 -1.5 3.85 -1.65 3.8 -1.8 3.1 -1.3 2.85 -1.25 Q2.5 -1.1 2.5 -0.4 2.5 5.85 5.0 10.2 7.5 14.55 7.5 17.1 L7.25 20.1 7.0 23.8 5.85 27.35 Q5.15 29.1 5.05 30.35 L-0.1 29.9 Q-0.4 29.85 -0.3 29.15 0.0 27.7 0.0 26.0 L0.05 22.65 0.0 19.55 Q-0.4 16.2 -1.45 13.5 -2.8 10.2 -5.45 7.25 -7.0 5.45 -9.35 1.1 L-12.7 -4.95 Q-14.2 -7.15 -15.45 -11.45 L-16.9 -16.05 -16.5 -16.5 -16.75 -17.0 -16.8 -16.75 -16.7 -16.6 -17.5 -16.5 Q-18.35 -16.5 -18.95 -17.2" fill="#3f362e" fill-rule="evenodd" stroke="none"/>
    </g>
    <g id="shape2" transform="matrix(1.0, 0.0, 0.0, 1.0, 26.55, 49.9)">
      <path d="M-2.5 -6.05 Q-2.9 -13.5 -4.2 -19.55 L-4.7 -21.7 -4.8 -22.0 -5.75 -25.35 Q-6.6 -27.95 -7.6 -30.35 L-9.7 -34.75 Q-12.3 -39.5 -15.75 -43.65 L-17.55 -45.45 Q-19.5 -47.45 -21.9 -47.45 -24.5 -47.45 -24.95 -45.05 -25.25 -43.85 -24.95 -42.5 -24.95 -38.45 -22.5 -35.9 L-16.15 -30.1 Q-10.55 -24.45 -7.5 -16.65 -5.25 -10.8 -4.35 -3.15 L-3.2 8.6 -3.2 8.65 -3.2 8.8 -3.05 8.6 Q-2.55 8.05 -2.4 7.2 L-2.4 7.3 -2.3 6.7 -2.3 6.4 -2.3 6.3 -2.3 6.2 -2.3 5.75 -2.3 1.1 -2.3 0.9 -2.5 -6.05 M-14.7 -45.6 L-13.25 -44.0 -13.0 -43.8 -12.2 -42.85 -12.0 -42.3 -11.6 -41.7 Q-10.25 -39.55 -8.35 -35.2 L-5.7 -29.1 -3.45 -23.1 Q-1.85 -17.8 -1.2 -10.85 -0.85 -7.65 -0.75 -3.5 L6.25 0.4 Q11.15 3.45 13.0 6.25 L12.8 6.95 Q12.6 7.35 12.0 7.35 L9.75 6.95 7.5 6.4 7.3 6.1 Q7.1 5.9 7.1 6.65 L14.95 22.05 14.95 22.75 Q14.8 22.9 14.8 23.1 L14.8 23.35 14.15 23.5 Q12.8 23.5 10.65 21.7 L8.3 19.6 Q8.3 22.6 9.65 28.4 L11.0 33.75 11.0 34.6 10.85 35.15 10.9 35.35 Q10.85 35.55 10.25 35.55 9.45 35.55 7.4 31.75 L4.4 26.3 4.2 26.3 3.4 34.15 2.45 42.25 Q2.8 42.5 1.85 42.5 0.75 42.5 -0.25 39.25 -1.15 35.4 -1.65 34.2 L-3.6 30.05 Q-4.8 27.55 -5.0 25.9 L-5.2 25.9 Q-6.35 29.95 -6.6 33.25 L-6.65 33.45 -7.35 33.7 Q-9.15 33.7 -9.15 27.55 -8.9 20.25 -9.1 18.0 L-10.5 19.0 -11.65 19.85 -14.55 19.85 -14.7 19.7 -14.8 18.8 -12.15 15.5 Q-9.15 11.9 -8.1 10.15 L-13.8 9.7 Q-13.4 9.0 -13.6 8.5 -13.35 7.65 -11.45 6.3 -9.3 4.75 -8.9 4.1 L-7.4 1.55 -5.8 -1.0 -5.7 -0.95 -5.9 -2.5 Q-6.9 -9.85 -9.1 -16.2 -12.3 -25.35 -20.15 -31.6 -23.6 -34.35 -24.7 -35.9 -26.55 -38.5 -26.55 -42.55 -26.55 -49.2 -22.4 -49.85 -19.95 -50.25 -17.75 -48.35 L-14.7 -45.6 M9.2 4.75 L9.1 4.8 9.3 4.8 9.2 4.75" fill="#000000" fill-rule="evenodd" stroke="none"/>
      <path d="M-11.75 -33.4 L-12.0 -33.25 -12.0 -33.65 -11.75 -33.4 M-3.0 -6.0 L-2.5 -6.05 -2.3 0.9 Q-2.45 -2.4 -3.0 -6.0 M-2.3 5.75 L-2.3 6.2 -2.3 6.3 -2.3 6.4 -2.3 6.7 -2.4 7.3 -2.4 7.2 -2.3 5.75" fill="#3e4762" fill-rule="evenodd" stroke="none"/>
      <path d="M-12.15 -33.85 L-12.05 -33.75 -11.2 -32.8 -11.75 -33.4 -12.0 -33.65 -12.0 -33.25 -12.05 -33.7 -12.15 -33.85 M-3.2 8.65 L-3.2 8.6 -3.05 8.6 -3.2 8.65" fill="#242939" fill-rule="evenodd" stroke="none"/>
      <path d="M-24.95 -45.05 Q-21.55 -43.4 -18.35 -40.5 L-14.25 -36.2 -12.15 -33.85 -12.05 -33.7 -12.0 -33.25 Q-12.0 -32.45 -7.6 -24.9 L-7.45 -23.9 -7.4 -23.6 -6.55 -20.25 -6.5 -20.15 Q-4.1 -13.1 -3.0 -6.0 -2.45 -2.4 -2.3 0.9 L-2.3 1.1 -2.3 5.75 -2.4 7.2 Q-2.55 8.05 -3.05 8.6 L-3.2 8.6 -4.35 -3.15 Q-5.25 -10.8 -7.5 -16.65 -10.55 -24.45 -16.15 -30.1 L-22.5 -35.9 Q-24.95 -38.45 -24.95 -42.5 -25.25 -43.85 -24.95 -45.05" fill="#3f362e" fill-rule="evenodd" stroke="none"/>
      <path d="M-24.95 -45.05 Q-24.5 -47.45 -21.9 -47.45 -19.5 -47.45 -17.55 -45.45 L-15.75 -43.65 Q-12.3 -39.5 -9.7 -34.75 L-7.6 -30.35 Q-6.6 -27.95 -5.75 -25.35 L-4.8 -22.0 -4.7 -21.7 -4.2 -19.55 Q-2.9 -13.5 -2.5 -6.05 L-3.0 -6.0 Q-4.1 -13.1 -6.5 -20.15 L-6.55 -20.25 -7.4 -23.6 -7.45 -23.9 -7.6 -24.9 Q-12.0 -32.45 -12.0 -33.25 L-11.75 -33.4 -11.2 -32.8 -12.05 -33.75 -12.15 -33.85 -14.25 -36.2 -18.35 -40.5 Q-21.55 -43.4 -24.95 -45.05" fill="#5b5042" fill-rule="evenodd" stroke="none"/>
    </g>
    <g id="shape3" transform="matrix(1.0, 0.0, 0.0, 1.0, 95.5, 78.0)">
      <path d="M1.3 -77.85 L1.5 -77.0 -5.6 -70.05 Q-13.45 -62.3 -16.75 -57.35 L-17.0 -57.1 Q-14.05 -58.35 -6.6 -62.0 1.2 -65.4 10.0 -67.0 L12.1 -67.0 12.3 -66.85 12.5 -66.0 5.9 -59.9 -3.3 -51.25 4.35 -53.3 17.0 -56.0 20.6 -56.0 20.8 -55.85 21.0 -55.0 17.6 -51.85 Q13.45 -48.05 10.6 -44.75 5.95 -39.2 4.8 -35.5 10.25 -34.3 15.0 -31.35 18.15 -29.6 24.55 -27.9 34.25 -25.25 44.25 -25.25 50.6 -25.25 57.6 -28.1 64.65 -31.0 67.5 -31.0 78.9 -31.0 83.5 -13.5 86.0 -3.95 86.0 7.8 L85.8 13.85 Q85.45 19.5 84.75 22.5 83.55 27.55 80.35 30.0 78.6 31.8 76.95 32.55 74.3 33.75 65.5 35.0 57.75 36.1 53.8 40.05 50.15 44.9 47.5 47.3 39.4 54.75 33.15 56.95 28.75 58.5 20.0 58.5 L10.5 57.9 10.5 58.0 Q10.5 60.4 16.5 67.5 L16.15 68.3 15.0 68.5 9.75 67.05 7.7 66.6 Q6.05 66.25 5.5 65.8 4.7 65.25 1.8 64.55 L-2.8 63.75 0.95 67.2 Q3.35 69.35 4.5 70.8 4.1 72.0 2.75 72.0 1.35 72.0 0.5 71.4 -0.6 70.55 -4.0 70.0 -6.4 69.6 -9.55 68.25 L-16.55 66.4 Q-21.1 65.0 -23.55 64.75 -23.4 66.25 -19.0 70.6 L-19.05 71.25 -19.25 71.75 -20.25 72.0 Q-41.05 68.1 -48.55 65.25 -53.0 63.55 -56.1 62.0 L-62.5 58.5 -74.15 51.7 Q-80.65 47.35 -84.05 42.75 -86.9 38.8 -89.15 33.05 -90.75 29.1 -92.5 22.8 -93.1 20.5 -94.3 12.5 -95.5 4.6 -95.5 2.9 L-95.0 -0.65 Q-94.5 -3.75 -94.5 -5.25 -94.5 -9.4 -94.0 -13.1 -93.3 -17.6 -91.3 -21.0 L-89.25 -25.25 Q-88.35 -26.75 -87.4 -27.2 -85.35 -31.6 -83.95 -32.7 -80.1 -40.55 -58.0 -59.0 -36.5 -77.0 -32.75 -77.0 L-31.8 -76.75 -31.65 -76.85 Q-31.5 -76.8 -31.5 -76.0 -31.5 -75.7 -33.65 -71.95 L-37.05 -66.25 -42.0 -56.6 -33.05 -62.35 Q-27.3 -66.1 -22.55 -68.25 -18.2 -70.15 -12.0 -73.7 -6.2 -76.55 1.1 -78.0 L1.3 -77.85 M6.75 -64.1 L7.0 -64.35 6.7 -64.25 Q-3.1 -61.85 -10.65 -57.9 -15.0 -55.65 -22.5 -50.5 L-22.3 -50.0 Q-21.65 -49.0 -19.25 -49.0 -16.6 -49.0 -12.7 -52.35 -7.75 -56.6 -2.5 -58.5 0.55 -59.6 4.4 -61.75 L6.75 -64.1 M15.1 -53.35 L-7.0 -47.5 -7.5 -47.6 -7.45 -47.4 Q-7.4 -46.7 -6.55 -45.75 -5.5 -44.5 -4.25 -44.5 -1.8 -44.5 8.0 -49.5 L14.8 -53.1 14.75 -53.0 15.05 -53.25 15.1 -53.35 M12.25 -19.0 L12.2 -19.1 12.0 -19.0 Q9.45 -19.0 5.75 -20.85 3.55 -21.9 -1.75 -24.6 -4.9 -26.5 -8.35 -27.6 -14.0 -29.45 -14.0 -26.15 L-13.25 -23.4 Q-12.2 -20.7 -10.5 -20.5 L-10.45 -20.95 Q-10.35 -20.85 -10.3 -21.0 -10.15 -21.1 -10.25 -21.35 L-9.5 -21.5 -9.2 -21.35 -9.0 -21.25 -6.5 -20.1 Q-2.65 -18.4 2.1 -17.25 L13.35 -17.25 12.25 -19.0 M55.65 36.3 Q58.95 33.85 62.35 33.25 L76.25 30.65 Q77.6 30.2 78.6 28.3 81.4 25.55 82.5 21.55 84.0 15.8 84.0 7.65 84.0 -5.55 80.65 -15.5 76.15 -28.75 67.25 -28.75 65.4 -28.75 58.35 -25.85 51.3 -23.0 44.25 -23.0 L41.0 -23.1 41.0 -23.0 Q41.0 -21.7 34.25 -20.75 25.75 -19.5 13.85 -20.75 14.0 -19.55 16.05 -18.15 18.0 -16.8 18.0 -16.3 18.0 -15.2 17.5 -15.1 L9.5 -15.0 Q0.65 -15.0 -1.7 -15.95 -3.75 -16.8 -5.3 -16.75 L-2.2 -13.35 0.0 -11.0 -0.05 -10.25 -0.3 -10.0 -4.5 -10.0 Q-5.8 -11.2 -14.3 -10.55 -23.25 -9.9 -26.55 -11.75 -28.2 -12.7 -29.5 -12.85 L-27.0 -9.75 Q-25.0 -7.1 -25.0 -6.5 L-25.05 -5.8 -25.3 -5.75 -25.95 -5.6 -27.5 -5.5 Q-29.9 -5.5 -30.1 -6.0 -30.4 -6.6 -35.0 -7.0 L-37.1 -7.45 -41.05 -8.25 Q-43.65 -8.6 -47.45 -9.65 L-52.05 -11.0 Q-51.05 -8.7 -48.5 -6.5 -48.55 -5.9 -48.8 -5.7 L-50.0 -5.5 Q-53.35 -5.5 -60.35 -9.75 L-69.0 -15.1 Q-71.15 -16.1 -73.1 -17.55 L-76.75 -20.35 Q-77.55 -21.0 -81.6 -22.9 L-85.95 -25.0 -86.05 -25.0 -88.75 -20.35 Q-92.15 -14.8 -92.5 -11.5 L-92.6 -7.9 -92.5 -4.0 Q-92.5 -2.75 -93.0 -0.2 L-93.5 2.85 Q-93.5 4.25 -90.5 21.5 -89.85 24.95 -87.6 30.55 L-83.5 39.8 Q-81.55 43.75 -74.0 48.5 L-61.8 56.25 Q-57.8 59.3 -47.55 62.7 -36.95 66.2 -23.55 68.75 -24.9 67.55 -25.95 65.15 -26.85 63.05 -27.0 61.55 L-26.65 61.15 -25.75 61.0 Q-18.15 64.5 -16.3 64.75 -14.3 65.05 -9.3 66.45 -5.1 67.65 -2.5 67.75 -2.65 66.5 -4.2 64.8 L-6.5 62.05 -6.15 61.25 -4.25 61.0 -1.6 61.45 1.1 62.25 4.2 62.7 Q5.25 62.65 6.5 63.55 7.75 64.45 9.3 65.1 L11.85 65.75 Q8.5 59.4 8.5 58.15 8.5 57.55 8.65 57.05 8.5 56.7 8.5 56.15 L8.5 55.45 8.6 55.25 8.8 55.15 9.75 55.0 14.9 55.65 20.0 56.25 Q30.15 56.25 34.7 54.05 37.15 52.85 46.5 45.05 L53.1 38.4 54.6 37.1 55.35 37.05 55.45 36.45 55.65 36.3 M-37.15 -71.6 L-47.6 -64.25 -49.1 -63.1 -49.15 -63.05 -61.0 -53.55 Q-74.7 -42.0 -82.55 -32.55 L-82.5 -32.0 -83.45 -30.45 -84.55 -28.25 -84.55 -28.0 -83.85 -28.2 Q-84.6 -27.6 -84.95 -26.7 -82.3 -26.5 -81.55 -25.85 L-81.45 -25.75 Q-80.35 -24.9 -78.55 -24.05 L-77.8 -23.75 -78.05 -24.2 Q-73.6 -25.45 -65.45 -35.5 -60.75 -41.3 -56.5 -47.6 -50.25 -54.05 -44.95 -59.95 L-41.95 -63.25 -42.5 -63.6 -41.7 -64.4 -40.7 -64.7 -40.6 -64.7 -40.35 -65.15 -38.45 -68.55 -37.85 -69.6 -37.35 -70.55 -36.85 -71.4 -36.55 -72.0 -37.15 -71.6 M-43.8 -51.85 L-43.05 -50.75 Q-41.9 -49.5 -40.25 -49.5 -38.15 -49.5 -34.05 -54.15 -28.95 -59.9 -23.5 -62.6 -17.25 -65.7 -10.55 -69.6 L-7.45 -71.4 -4.8 -74.1 -4.5 -74.35 -4.85 -74.2 Q-19.0 -68.05 -26.1 -64.4 -38.75 -57.95 -43.5 -52.0 L-43.75 -52.1 -43.95 -52.25 -43.8 -51.85 M-29.45 -8.75 Q-31.0 -9.25 -32.25 -9.95 L-35.5 -11.85 Q-42.8 -15.15 -44.5 -16.35 -49.5 -21.85 -52.85 -21.8 -56.0 -21.75 -56.0 -17.4 -56.2 -16.6 -56.0 -15.75 -55.8 -14.95 -55.3 -14.5 L-55.1 -14.5 -55.0 -14.5 -54.8 -14.45 -54.15 -14.2 -53.5 -14.0 -53.45 -14.0 -44.0 -11.0 -37.75 -10.2 -36.65 -10.05 Q-32.0 -9.45 -29.5 -8.5 L-28.15 -7.8 -29.2 -8.65 -29.45 -8.75 M-10.0 -12.75 L-5.65 -12.75 -7.25 -13.7 Q-10.1 -15.65 -11.0 -16.0 L-17.1 -18.0 Q-20.6 -19.15 -23.0 -20.5 -28.05 -23.6 -30.0 -24.0 -33.5 -24.75 -33.5 -20.25 L-33.4 -18.0 -33.0 -16.9 -32.25 -17.0 -32.15 -17.0 -32.0 -17.0 -30.15 -16.45 -27.6 -15.15 Q-23.85 -13.1 -22.3 -12.75 L-10.3 -12.75 -10.0 -12.75 M-5.65 -12.75 L-5.0 -12.75 -5.1 -12.95 -5.65 -12.75" fill="#000000" fill-rule="evenodd" stroke="none"/>
      <path d="M6.75 -64.1 L6.7 -64.25 7.0 -64.35 6.75 -64.1 M15.05 -53.25 L15.1 -53.35 15.05 -53.25 M-7.0 -47.5 L-7.45 -47.4 -7.5 -47.6 -7.0 -47.5 M-36.85 -71.4 L-37.15 -71.6 -36.55 -72.0 -36.85 -71.4 M-43.8 -51.85 L-43.95 -52.25 -43.75 -52.1 -43.5 -52.0 -43.8 -51.85 M-4.85 -74.2 L-4.5 -74.35 -4.8 -74.1 -4.85 -74.2 M-29.45 -8.75 L-29.2 -8.65 -28.15 -7.8 -29.5 -8.5 -29.45 -8.75" fill="#11131a" fill-rule="evenodd" stroke="none"/>
      <path d="M55.5 36.3 L55.65 36.3 55.45 36.45 55.5 36.3" fill="#242939" fill-rule="evenodd" stroke="none"/>
      <path d="M6.7 -64.25 L6.75 -64.1 4.4 -61.75 Q0.55 -59.6 -2.5 -58.5 -7.75 -56.6 -12.7 -52.35 -16.6 -49.0 -19.25 -49.0 -21.65 -49.0 -22.3 -50.0 L-22.5 -50.5 Q-15.0 -55.65 -10.65 -57.9 -3.1 -61.85 6.7 -64.25 M15.05 -53.25 L14.8 -53.1 8.0 -49.5 Q-1.8 -44.5 -4.25 -44.5 -5.5 -44.5 -6.55 -45.75 -7.4 -46.7 -7.45 -47.4 L-7.0 -47.5 15.1 -53.35 15.05 -53.25 M12.0 -19.0 L12.25 -19.0 13.35 -17.25 2.1 -17.25 Q-2.65 -18.4 -6.5 -20.1 L-9.0 -21.25 -9.2 -21.35 -9.5 -21.5 -10.25 -21.35 Q-10.15 -21.1 -10.3 -21.0 -10.35 -20.85 -10.45 -20.95 L-10.5 -20.5 Q-12.2 -20.7 -13.25 -23.4 L-14.0 -26.15 Q-14.0 -29.45 -8.35 -27.6 -4.9 -26.5 -1.75 -24.6 3.55 -21.9 5.75 -20.85 9.45 -19.0 12.0 -19.0 M-81.55 -25.85 Q-82.3 -26.5 -84.95 -26.7 -84.6 -27.6 -83.85 -28.2 L-84.55 -28.0 -84.55 -28.25 -83.45 -30.45 -82.5 -32.0 -82.55 -32.55 Q-74.7 -42.0 -61.0 -53.55 L-49.15 -63.05 -49.1 -63.1 -47.6 -64.25 -37.15 -71.6 -36.85 -71.4 -37.35 -70.55 -37.85 -69.6 -38.45 -68.55 -40.35 -65.15 -40.7 -64.7 -41.7 -64.4 -42.5 -63.6 -41.95 -63.25 -44.95 -59.95 Q-50.25 -54.05 -56.5 -47.6 -60.75 -41.3 -65.45 -35.5 -73.6 -25.45 -78.05 -24.2 L-78.55 -24.05 Q-80.35 -24.9 -81.45 -25.75 L-81.5 -25.9 -81.55 -25.85 M-4.8 -74.1 L-7.45 -71.4 -10.55 -69.6 Q-17.25 -65.7 -23.5 -62.6 -28.95 -59.9 -34.05 -54.15 -38.15 -49.5 -40.25 -49.5 -41.9 -49.5 -43.05 -50.75 L-43.8 -51.85 -43.5 -52.0 Q-38.75 -57.95 -26.1 -64.4 -19.0 -68.05 -4.85 -74.2 L-4.8 -74.1 M-29.5 -8.5 Q-32.0 -9.45 -36.65 -10.05 L-37.75 -10.2 -44.0 -11.0 -53.45 -14.0 -53.5 -14.0 -54.15 -14.2 -54.8 -14.45 -55.0 -14.5 -55.1 -14.5 -55.3 -14.5 Q-55.8 -14.95 -56.0 -15.75 -56.2 -16.6 -56.0 -17.4 -56.0 -21.75 -52.85 -21.8 -49.5 -21.85 -44.5 -16.35 -42.8 -15.15 -35.5 -11.85 L-32.25 -9.95 Q-31.0 -9.25 -29.45 -8.75 L-29.5 -8.5 M-10.3 -12.75 L-22.3 -12.75 Q-23.85 -13.1 -27.6 -15.15 L-30.15 -16.45 -32.0 -17.0 -32.15 -17.0 -32.25 -17.0 -33.0 -16.9 -33.4 -18.0 -33.5 -20.25 Q-33.5 -24.75 -30.0 -24.0 -28.05 -23.6 -23.0 -20.5 -20.6 -19.15 -17.1 -18.0 L-11.0 -16.0 Q-10.1 -15.65 -7.25 -13.7 L-5.65 -12.75 -10.0 -12.75 -10.3 -13.0 -10.3 -12.75" fill="#1d1c16" fill-rule="evenodd" stroke="none"/>
      <path d="M55.5 36.1 L55.65 36.3 55.5 36.3 55.5 36.1" fill="#221f1c" fill-rule="evenodd" stroke="none"/>
      <path d="M-87.6 30.55 L-87.5 30.5 Q-87.5 28.95 -81.0 32.1 -72.6 36.25 -71.5 36.5 L-65.1 38.05 -55.0 40.5 -45.8 42.6 -32.65 43.25 Q-6.1 43.25 9.25 38.9 17.65 36.5 21.2 35.85 29.0 34.5 40.75 34.5 L47.25 34.65 55.1 35.0 55.3 35.2 Q55.5 35.35 55.5 36.1 L55.5 36.3 55.45 36.45 55.35 37.05 54.6 37.1 53.1 38.4 46.5 45.05 Q37.15 52.85 34.7 54.05 30.15 56.25 20.0 56.25 L14.9 55.65 9.75 55.0 8.8 55.15 8.6 55.25 8.5 55.45 8.5 56.15 Q8.5 56.7 8.65 57.05 8.5 57.55 8.5 58.15 8.5 59.4 11.85 65.75 L9.3 65.1 Q7.75 64.45 6.5 63.55 5.25 62.65 4.2 62.7 L1.1 62.25 -1.6 61.45 -4.25 61.0 -6.15 61.25 -6.5 62.05 -4.2 64.8 Q-2.65 66.5 -2.5 67.75 -5.1 67.65 -9.3 66.45 -14.3 65.05 -16.3 64.75 -18.15 64.5 -25.75 61.0 L-26.65 61.15 -27.0 61.55 Q-26.85 63.05 -25.95 65.15 -24.9 67.55 -23.55 68.75 -36.95 66.2 -47.55 62.7 -57.8 59.3 -61.8 56.25 L-74.0 48.5 Q-81.55 43.75 -83.5 39.8 L-87.6 30.55" fill="#5b5042" fill-rule="evenodd" stroke="none"/>
      <path d="M-87.6 30.55 Q-89.85 24.95 -90.5 21.5 -93.5 4.25 -93.5 2.85 L-93.0 -0.2 Q-92.5 -2.75 -92.5 -4.0 L-92.6 -7.9 -92.5 -11.5 Q-92.15 -14.8 -88.75 -20.35 L-86.05 -25.0 -85.95 -25.0 -81.6 -22.9 Q-77.55 -21.0 -76.75 -20.35 L-73.1 -17.55 Q-71.15 -16.1 -69.0 -15.1 L-60.35 -9.75 Q-53.35 -5.5 -50.0 -5.5 L-48.8 -5.7 Q-48.55 -5.9 -48.5 -6.5 -51.05 -8.7 -52.05 -11.0 L-47.45 -9.65 Q-43.65 -8.6 -41.05 -8.25 L-37.1 -7.45 -35.0 -7.0 Q-30.4 -6.6 -30.1 -6.0 -29.9 -5.5 -27.5 -5.5 L-25.95 -5.6 -25.3 -5.75 -25.05 -5.8 -25.0 -6.5 Q-25.0 -7.1 -27.0 -9.75 L-29.5 -12.85 Q-28.2 -12.7 -26.55 -11.75 -23.25 -9.9 -14.3 -10.55 -5.8 -11.2 -4.5 -10.0 L-0.3 -10.0 -0.05 -10.25 0.0 -11.0 -2.2 -13.35 -5.3 -16.75 Q-3.75 -16.8 -1.7 -15.95 0.65 -15.0 9.5 -15.0 L17.5 -15.1 Q18.0 -15.2 18.0 -16.3 18.0 -16.8 16.05 -18.15 14.0 -19.55 13.85 -20.75 25.75 -19.5 34.25 -20.75 41.0 -21.7 41.0 -23.0 L41.0 -23.1 44.25 -23.0 Q51.3 -23.0 58.35 -25.85 65.4 -28.75 67.25 -28.75 76.15 -28.75 80.65 -15.5 84.0 -5.55 84.0 7.65 84.0 15.8 82.5 21.55 81.4 25.55 78.6 28.3 77.6 30.2 76.25 30.65 L62.35 33.25 Q58.95 33.85 55.65 36.3 L55.5 36.1 Q55.5 35.35 55.3 35.2 L55.1 35.0 47.25 34.65 40.75 34.5 Q29.0 34.5 21.2 35.85 17.65 36.5 9.25 38.9 -6.1 43.25 -32.65 43.25 L-45.8 42.6 -55.0 40.5 -65.1 38.05 -71.5 36.5 Q-72.6 36.25 -81.0 32.1 -87.5 28.95 -87.5 30.5 L-87.6 30.55" fill="#3f362e" fill-rule="evenodd" stroke="none"/>
    </g>
    <g id="shape4" transform="matrix(1.0, 0.0, 0.0, 1.0, 66.8, 58.65)">
      <path d="M44.7 -52.2 Q45.55 -53.75 46.6 -54.6 45.05 -53.55 30.8 -46.05 L26.7 -41.7 22.95 -37.7 23.05 -37.45 Q23.5 -36.35 24.55 -36.35 25.45 -36.35 30.85 -41.15 L36.85 -46.6 44.7 -52.2 M50.85 -57.85 L51.1 -57.7 51.3 -56.85 49.9 -55.3 48.55 -53.85 Q45.7 -50.65 45.3 -48.6 45.0 -47.25 45.15 -44.6 L44.95 -43.25 Q49.45 -44.65 55.6 -48.7 61.35 -52.55 63.55 -53.0 L64.1 -53.1 64.15 -52.9 64.05 -50.7 63.8 -48.5 Q63.8 -47.25 65.3 -43.5 66.8 -39.75 66.8 -37.05 L66.7 -33.45 Q66.3 -30.95 64.8 -29.85 64.55 -29.95 64.4 -30.4 64.25 -30.8 63.55 -30.8 58.75 -30.8 57.8 -29.55 L57.8 -28.05 57.75 -26.5 Q57.75 -25.9 58.3 -25.8 L63.15 -24.85 Q63.8 -24.65 63.8 -24.25 63.8 -22.7 59.8 -13.55 58.65 -11.05 56.45 -8.8 52.6 -4.85 47.8 -4.85 L47.3 -4.85 47.9 -3.8 48.6 -2.4 Q52.0 4.65 53.3 13.65 L55.0 26.65 Q56.65 34.55 61.8 40.2 L61.45 40.85 60.3 41.15 55.7 38.6 49.35 34.65 49.35 34.35 49.3 35.0 Q49.3 37.3 54.55 45.55 L59.8 53.4 59.6 54.4 58.05 54.65 Q54.4 54.65 47.0 49.35 L39.85 43.65 39.8 44.4 Q39.8 46.95 43.05 51.5 46.3 56.1 46.3 57.25 L46.05 58.45 45.05 58.65 43.8 58.4 43.35 57.1 42.8 57.15 Q41.85 57.15 35.45 54.95 L24.8 51.65 11.1 48.9 3.1 47.4 -2.4 46.75 0.5 50.15 Q3.95 54.3 4.8 56.2 L4.7 56.85 Q4.55 57.15 3.8 57.15 2.65 57.15 -0.2 55.85 L-4.4 53.9 Q-10.0 51.8 -12.2 50.7 L-10.95 53.65 Q-10.05 55.65 -9.7 57.15 L-9.95 57.75 Q-10.15 58.15 -10.95 58.15 -11.7 58.15 -16.9 54.85 L-25.9 49.4 -33.7 44.45 -35.05 43.05 -35.9 42.9 Q-36.2 43.3 -36.2 42.15 L-37.0 41.6 Q-40.0 39.85 -45.4 40.65 L-45.55 40.5 -45.65 40.15 -46.2 40.15 -48.2 40.1 -48.2 40.15 Q-48.2 40.8 -51.45 42.7 -54.85 44.65 -56.45 44.65 -59.75 44.65 -61.4 42.9 L-62.7 40.7 -64.65 38.6 -66.2 36.45 Q-66.8 34.95 -66.8 31.75 L-66.7 27.9 -66.4 22.75 -65.7 15.45 Q-65.25 11.8 -62.8 8.4 -60.2 4.8 -57.9 5.4 -57.35 8.0 -57.7 15.85 -57.4 22.1 -53.6 22.4 L-53.2 18.9 Q-53.2 13.3 -52.75 10.8 -52.35 8.4 -51.55 6.85 L-51.15 7.1 Q-51.1 6.5 -50.7 6.35 L-43.4 6.7 -43.3 6.95 Q-31.45 6.65 -21.7 0.3 -14.85 -4.15 -11.2 -9.6 -9.9 -11.6 -6.75 -14.95 L-1.65 -20.05 2.05 -23.4 Q1.5 -24.6 1.35 -26.2 L1.3 -29.35 Q1.3 -44.55 8.8 -55.35 9.85 -54.85 9.85 -53.1 9.85 -51.8 9.3 -50.3 L9.3 -39.85 11.75 -44.75 Q13.75 -48.2 16.1 -50.1 17.4 -51.15 20.95 -55.45 24.35 -59.15 26.6 -58.6 L26.7 -58.15 26.8 -57.0 25.45 -50.5 23.3 -41.8 23.3 -41.55 Q25.1 -44.95 33.95 -50.35 39.35 -53.7 44.65 -56.2 L48.3 -57.85 50.85 -57.85 M24.1 -55.3 L24.1 -55.55 24.0 -55.4 Q17.25 -48.85 14.6 -45.25 10.0 -39.05 10.8 -34.55 L10.45 -34.3 9.8 -33.85 9.85 -33.15 10.1 -32.6 11.3 -32.35 Q13.25 -32.35 15.6 -37.4 L18.1 -43.35 22.0 -49.65 23.3 -51.55 23.3 -51.6 23.5 -52.6 24.05 -55.05 24.1 -55.3 M53.8 -44.8 Q47.7 -41.2 42.55 -40.3 L40.25 -39.8 40.05 -39.75 39.9 -39.7 39.7 -39.65 39.55 -39.6 39.2 -39.5 39.05 -39.45 37.65 -39.0 37.45 -38.9 37.25 -38.85 33.3 -36.7 32.25 -35.8 31.35 -34.85 29.7 -32.05 29.55 -31.85 28.5 -30.45 28.4 -30.35 28.0 -29.9 27.9 -29.8 27.6 -29.5 18.45 -29.75 Q14.9 -28.75 13.6 -27.75 L12.85 -27.6 10.45 -26.65 8.3 -25.85 8.15 -25.85 2.5 -21.55 1.65 -20.9 Q-6.3 -14.2 -10.2 -7.05 -11.3 -5.0 -13.4 -3.0 L-15.25 -2.35 Q-16.75 -1.6 -17.35 -0.95 L-21.15 1.5 -26.75 5.0 -26.7 5.1 -26.95 5.0 Q-32.5 7.35 -36.3 8.4 -35.9 9.1 -35.45 10.5 L-35.2 11.45 -35.1 11.6 Q-32.05 16.9 -29.35 19.0 -26.95 20.9 -23.95 20.9 -23.3 20.9 -21.95 20.3 -20.55 19.65 -19.95 19.65 -19.55 19.65 -18.9 20.0 -8.95 7.4 2.5 16.8 6.55 20.2 9.75 25.55 12.5 30.15 12.5 32.15 12.5 33.8 11.25 35.1 9.4 37.0 5.5 37.0 3.25 37.0 -11.6 30.8 L-11.75 30.75 -11.75 31.1 Q-11.75 33.45 -12.8 36.15 L-13.2 36.95 -13.1 36.95 -14.25 40.05 -14.7 40.15 -15.3 40.05 Q-16.45 41.2 -17.8 41.95 L-18.6 42.35 -19.7 42.75 -20.2 42.85 -22.7 43.15 -22.85 43.35 -23.15 43.65 -25.1 43.65 Q-27.45 42.8 -29.85 41.4 L-29.35 41.45 Q-32.3 39.6 -34.4 35.95 L-35.9 36.55 Q-36.3 37.6 -37.7 38.45 L-38.0 38.65 -37.85 38.75 Q-36.4 39.5 -35.15 40.9 L-34.85 41.2 -34.55 41.2 -31.5 43.75 -31.4 43.85 -31.5 43.9 -31.3 44.05 -28.15 45.9 Q-25.35 47.1 -20.3 50.1 -15.8 52.75 -13.2 53.65 L-14.25 51.4 Q-14.9 50.05 -16.15 49.15 L-16.2 47.95 -15.7 47.8 -14.45 47.65 -9.2 49.6 Q-3.45 51.9 0.1 52.9 L-2.35 49.85 Q-3.95 47.9 -4.15 46.65 L-4.2 46.65 -5.2 45.95 Q-4.1 44.15 0.2 44.65 L9.3 46.15 24.85 49.4 Q31.7 50.65 36.5 52.5 38.7 53.35 42.55 55.25 L40.95 52.15 Q38.5 47.65 37.8 45.95 L37.8 40.7 Q37.75 40.55 37.85 40.45 38.0 40.15 38.8 40.15 L46.1 45.4 Q53.65 50.8 55.35 51.4 L55.6 51.4 55.55 51.3 51.0 43.85 Q48.25 39.1 47.3 35.95 L47.3 31.45 47.45 31.3 48.3 31.15 Q49.2 31.15 52.05 33.35 54.95 35.6 56.3 35.7 54.15 31.15 52.95 25.05 L51.2 14.15 Q50.2 7.85 48.5 2.85 L48.35 2.4 48.1 2.95 48.05 3.05 Q47.8 0.95 46.8 -1.4 L46.8 -1.5 45.6 -4.0 45.5 -4.05 45.4 -4.25 42.65 -9.1 Q42.65 -9.7 43.15 -10.2 L43.65 -11.05 Q45.3 -12.8 45.3 -14.3 L45.3 -14.6 45.2 -14.55 Q44.35 -14.25 42.9 -13.15 L42.35 -12.7 42.15 -12.75 39.1 -13.15 38.1 -16.95 39.25 -21.95 Q40.6 -26.85 41.3 -28.05 43.4 -32.85 44.75 -35.25 46.1 -37.75 47.8 -39.0 L47.8 -39.1 Q47.8 -39.75 49.2 -40.6 L51.25 -41.9 51.45 -42.0 51.5 -42.05 51.6 -42.1 53.3 -43.85 54.05 -44.55 55.3 -45.55 55.85 -46.0 55.2 -45.65 53.8 -44.8 M-7.2 -1.65 L-7.2 -4.0 -7.15 -6.05 Q-6.95 -7.45 -6.2 -7.85 L-6.15 -7.8 -5.75 -7.45 -5.65 -7.3 Q-5.15 -6.5 -5.15 -5.05 L-5.2 -1.6 -1.9 -1.6 2.7 -5.35 8.05 -9.55 Q11.9 -12.3 16.2 -10.05 18.1 -9.05 21.3 -5.85 L20.95 -5.25 20.8 -5.1 20.8 -4.6 Q20.8 -1.25 17.35 2.9 13.05 8.15 6.8 8.15 0.2 8.15 -3.2 5.2 L-5.35 2.45 -5.9 1.75 -6.2 1.4 -6.2 1.05 -6.45 0.25 -7.15 -0.35 -7.2 -1.2 -7.2 -1.65 M27.65 -25.55 L27.7 -25.55 27.4 -25.95 27.3 -26.1 27.65 -26.0 27.85 -25.5 28.15 -24.9 27.65 -25.55 M7.05 -47.4 Q4.4 -41.85 3.6 -35.75 3.15 -31.7 3.3 -24.5 5.25 -26.05 6.8 -26.65 L6.8 -26.95 7.2 -27.55 7.3 -34.55 7.55 -37.6 7.35 -38.25 7.15 -40.3 7.15 -40.55 Q7.65 -45.05 7.3 -47.3 L7.1 -47.55 7.05 -47.4 M8.05 -1.15 Q8.05 -3.9 5.7 -3.9 3.3 -3.85 3.3 -1.1 L3.5 -0.2 Q3.95 0.65 5.3 0.65 6.45 0.65 7.25 0.15 8.05 -0.35 8.05 -1.15 M40.05 -13.75 Q40.8 -14.9 43.55 -16.3 47.3 -18.2 47.3 -14.05 47.3 -11.95 46.6 -10.8 46.0 -9.8 44.65 -8.85 L45.55 -7.7 Q47.1 -7.1 47.7 -7.1 54.3 -7.1 57.4 -13.6 L59.35 -18.9 Q60.35 -22.05 61.1 -23.1 57.1 -23.5 56.15 -25.25 55.8 -25.85 55.8 -28.2 55.8 -30.5 56.5 -31.3 58.25 -33.3 64.3 -32.85 L64.55 -34.95 64.8 -37.1 Q64.8 -38.65 64.35 -39.55 63.45 -41.4 62.8 -43.55 62.0 -45.85 61.85 -48.45 L55.85 -43.45 50.8 -39.4 50.8 -39.35 45.3 -30.6 Q39.8 -21.15 39.8 -14.85 39.8 -14.15 40.05 -13.75 M3.0 20.2 L1.25 18.7 0.5 18.1 Q-3.9 14.75 -6.75 14.75 -8.2 14.75 -13.0 17.9 L-17.6 20.95 -16.15 22.3 Q-14.05 24.35 -13.5 25.25 -13.35 18.35 -10.7 17.9 -7.75 17.4 -5.5 26.0 L-4.3 24.1 Q-3.6 22.45 -4.0 21.3 L-4.0 19.05 Q-4.25 18.5 -3.0 18.5 -1.7 18.5 0.3 22.75 L1.85 25.4 Q2.5 26.65 2.5 27.55 3.1 27.15 4.5 24.95 L5.6 23.3 5.05 22.5 Q4.5 21.55 3.0 20.2 M6.95 25.35 L5.75 27.5 Q3.9 30.5 2.75 30.5 0.55 30.5 -0.1 28.1 -1.0 24.85 -1.6 24.3 L-3.1 27.3 Q-4.7 30.0 -5.75 30.0 -6.95 30.0 -7.2 29.35 L-7.25 27.55 Q-7.15 24.05 -9.85 21.5 -10.3 22.05 -10.6 23.25 L-10.9 24.65 Q-11.15 26.55 -12.15 27.7 L-12.05 28.1 -10.7 28.6 -9.1 29.45 Q-6.05 31.1 -4.5 31.5 L0.0 33.15 Q4.3 34.75 5.4 34.75 8.0 34.75 9.5 33.55 10.5 32.75 10.5 32.25 10.5 30.9 8.25 27.3 L6.95 25.35 M-10.2 23.45 L-10.2 23.5 -10.2 23.45 M-37.2 12.65 Q-36.2 26.35 -34.15 31.95 L-33.5 33.5 -33.35 33.45 Q-33.2 33.5 -33.2 34.2 -29.85 40.9 -23.05 40.9 -17.75 40.9 -15.2 36.4 L-13.7 31.75 Q-13.5 29.8 -13.65 29.05 -13.85 27.9 -15.7 25.7 -18.45 22.4 -20.4 22.65 L-26.4 22.9 Q-31.4 21.8 -33.75 18.15 -35.65 14.05 -37.2 12.65 M-39.15 15.6 L-39.2 14.0 Q-39.2 10.9 -38.3 8.85 L-41.2 9.15 -46.1 8.75 -46.5 8.95 -45.4 11.2 Q-44.1 13.65 -43.55 15.1 L-43.45 15.45 -42.4 18.95 Q-41.65 21.0 -40.7 22.2 -39.4 23.8 -38.65 25.7 L-37.45 28.95 -36.75 30.75 -36.75 30.8 Q-36.15 32.55 -35.9 33.85 L-35.5 33.75 -36.65 30.8 -36.7 30.7 -37.25 28.9 Q-39.0 22.75 -39.15 15.65 L-39.15 15.6 M-39.05 31.7 L-40.2 28.4 Q-40.55 27.2 -41.9 24.95 L-43.65 21.65 -46.65 13.95 -48.3 9.65 -48.7 9.65 -50.0 9.5 Q-51.25 11.6 -51.55 14.25 -51.9 17.1 -51.9 22.9 -52.4 27.05 -52.8 36.75 -51.9 36.85 -51.35 37.3 -50.55 37.9 -46.05 37.9 L-44.25 37.85 -42.25 37.6 Q-39.2 37.05 -37.9 35.45 -37.9 34.95 -39.05 31.7 M-54.95 24.65 Q-59.4 24.65 -60.0 17.05 L-59.7 8.65 Q-63.5 12.05 -64.4 18.0 -64.7 20.0 -64.7 27.7 L-64.75 31.15 Q-64.65 34.0 -64.2 35.65 -63.95 36.5 -61.5 39.35 -58.9 42.45 -57.95 42.45 -55.6 42.45 -52.65 40.75 L-51.05 39.8 -52.85 39.3 -52.9 39.7 -53.7 40.15 Q-54.35 39.45 -54.6 38.2 L-54.65 38.15 -54.7 36.95 -54.65 36.95 -54.7 34.95 -54.05 26.55 -53.85 24.6 -54.95 24.65 M-44.95 29.85 L-45.2 28.4 -45.15 26.9 Q-44.0 26.85 -43.3 27.9 -41.7 28.3 -41.7 31.4 -41.7 32.85 -42.2 33.45 -41.7 33.65 -42.95 33.65 -44.45 33.65 -44.7 32.05 L-44.7 30.45 -44.95 29.85 M-49.4 27.8 L-49.2 28.85 -48.9 28.9 -48.7 31.15 -48.75 32.45 -49.15 33.4 Q-48.7 33.65 -49.95 33.65 L-51.2 33.4 -51.2 29.15 Q-51.2 28.25 -50.9 27.7 -50.6 27.2 -50.2 27.15 L-49.4 27.8" fill="#000000" fill-rule="evenodd" stroke="none"/>
      <path d="M24.0 -55.4 L24.1 -55.55 24.1 -55.3 24.0 -55.4 M7.05 -47.4 L7.1 -47.55 7.3 -47.3 7.05 -47.4" fill="#11131a" fill-rule="evenodd" stroke="none"/>
      <path d="M54.05 -44.55 L53.8 -44.8 55.2 -45.65 55.3 -45.55 54.05 -44.55 M48.1 2.95 L48.35 2.4 48.5 2.85 48.1 2.95 M-31.3 44.05 L-31.5 43.9 -31.4 43.85 -31.25 43.95 -31.3 44.05 M-12.3 4.1 L-12.05 4.4 -12.15 4.45 -12.3 4.1" fill="#3e4762" fill-rule="evenodd" stroke="none"/>
      <path d="M32.25 -35.8 L31.6 -34.55 Q30.75 -32.75 29.7 -32.05 L31.35 -34.85 32.25 -35.8 M-35.45 10.5 L-34.85 11.15 -35.2 11.45 -35.45 10.5 M-21.7 10.35 L-21.95 9.95 -21.85 9.9 -21.7 10.35 M-7.45 -1.3 L-7.2 -1.65 -7.2 -1.2 -7.45 -1.3 M49.15 -40.7 L51.25 -41.9 49.2 -40.6 49.15 -40.7 M-11.75 31.1 L-11.75 30.75 -11.6 30.8 -11.75 31.1 M45.3 -14.3 L45.2 -14.55 45.3 -14.3 M55.35 51.4 L55.55 51.3 55.35 51.4 M-39.15 15.6 L-39.15 15.65 -39.45 15.65 -39.15 15.6 M-37.25 28.9 L-36.7 30.7 -36.75 30.8 -36.75 30.75 -37.45 28.95 -37.25 28.9 M-36.65 30.8 L-35.5 33.75 -35.9 33.85 Q-36.15 32.55 -36.75 30.8 L-36.65 30.8 M-43.45 15.45 L-43.55 15.1 -43.4 15.15 -43.45 15.45" fill="#242939" fill-rule="evenodd" stroke="none"/>
      <path d="M8.05 -1.15 Q8.05 -0.35 7.25 0.15 6.45 0.65 5.3 0.65 3.95 0.65 3.5 -0.2 L3.3 -1.1 Q3.3 -3.85 5.7 -3.9 8.05 -3.9 8.05 -1.15" fill="#ffffff" fill-rule="evenodd" stroke="none"/>
      <path d="M45.5 -4.05 L45.6 -4.0 46.8 -1.5 46.8 -1.4 45.5 -4.05" fill="#60606c" fill-rule="evenodd" stroke="none"/>
      <path d="M6.95 25.35 L8.25 27.3 Q10.5 30.9 10.5 32.25 10.5 32.75 9.5 33.55 8.0 34.75 5.4 34.75 4.3 34.75 0.0 33.15 L-4.5 31.5 Q-6.05 31.1 -9.1 29.45 L-10.7 28.6 -12.05 28.1 -12.15 27.7 Q-11.15 26.55 -10.9 24.65 L-10.6 23.25 Q-10.3 22.05 -9.85 21.5 -7.15 24.05 -7.25 27.55 L-7.2 29.35 Q-6.95 30.0 -5.75 30.0 -4.7 30.0 -3.1 27.3 L-1.6 24.3 Q-1.0 24.85 -0.1 28.1 0.55 30.5 2.75 30.5 3.9 30.5 5.75 27.5 L6.95 25.35 M3.0 20.2 Q4.5 21.55 5.05 22.5 L5.6 23.3 4.5 24.95 Q3.1 27.15 2.5 27.55 2.5 26.65 1.85 25.4 L0.3 22.75 Q-1.7 18.5 -3.0 18.5 -4.25 18.5 -4.0 19.05 L-4.0 21.3 Q-3.6 22.45 -4.3 24.1 L-5.5 26.0 Q-7.75 17.4 -10.7 17.9 -13.35 18.35 -13.5 25.25 -14.05 24.35 -16.15 22.3 L-17.6 20.95 -13.0 17.9 Q-8.2 14.75 -6.75 14.75 -3.9 14.75 0.5 18.1 L1.25 18.7 3.0 20.2 M-10.2 23.45 L-10.2 23.5 -10.2 23.45 M-37.2 12.65 Q-35.65 14.05 -33.75 18.15 -31.4 21.8 -26.4 22.9 L-20.4 22.65 Q-18.45 22.4 -15.7 25.7 -13.85 27.9 -13.65 29.05 -13.5 29.8 -13.7 31.75 L-15.2 36.4 Q-17.75 40.9 -23.05 40.9 -29.85 40.9 -33.2 34.2 -33.2 33.5 -33.35 33.45 L-33.5 33.5 -34.15 31.95 Q-36.2 26.35 -37.2 12.65 M-54.95 24.65 L-53.85 24.6 -54.05 26.55 -54.7 34.95 -54.65 36.95 -54.7 36.95 -54.65 38.15 -54.6 38.2 Q-54.35 39.45 -53.7 40.15 L-52.9 39.7 -52.85 39.3 -51.05 39.8 -52.65 40.75 Q-55.6 42.45 -57.95 42.45 -58.9 42.45 -61.5 39.35 -63.95 36.5 -64.2 35.65 -64.65 34.0 -64.75 31.15 L-64.7 27.7 Q-64.7 20.0 -64.4 18.0 -63.5 12.05 -59.7 8.65 L-60.0 17.05 Q-59.4 24.65 -54.95 24.65" fill="#baae96" fill-rule="evenodd" stroke="none"/>
      <path d="M-34.85 11.15 L-34.7 11.3 -35.1 11.6 -35.2 11.45 -34.85 11.15" fill="#221f1c" fill-rule="evenodd" stroke="none"/>
      <path d="M-12.3 4.1 L-12.05 4.35 -12.05 4.4 -12.3 4.1" fill="#332e28" fill-rule="evenodd" stroke="none"/>
      <path d="M40.05 -13.75 Q39.8 -14.15 39.8 -14.85 39.8 -21.15 45.3 -30.6 L50.8 -39.35 50.8 -39.4 55.85 -43.45 61.85 -48.45 Q62.0 -45.85 62.8 -43.55 63.45 -41.4 64.35 -39.55 64.8 -38.65 64.8 -37.1 L64.55 -34.95 64.3 -32.85 Q58.25 -33.3 56.5 -31.3 55.8 -30.5 55.8 -28.2 55.8 -25.85 56.15 -25.25 57.1 -23.5 61.1 -23.1 60.35 -22.05 59.35 -18.9 L57.4 -13.6 Q54.3 -7.1 47.7 -7.1 47.1 -7.1 45.55 -7.7 L44.65 -8.85 Q46.0 -9.8 46.6 -10.8 47.3 -11.95 47.3 -14.05 47.3 -18.2 43.55 -16.3 40.8 -14.9 40.05 -13.75 M-39.05 31.7 Q-37.9 34.95 -37.9 35.45 -39.2 37.05 -42.25 37.6 L-44.25 37.85 -46.05 37.9 Q-50.55 37.9 -51.35 37.3 -51.9 36.85 -52.8 36.75 -52.4 27.05 -51.9 22.9 -51.9 17.1 -51.55 14.25 -51.25 11.6 -50.0 9.5 L-48.7 9.65 -48.3 9.65 -46.65 13.95 -43.65 21.65 -41.9 24.95 Q-40.55 27.2 -40.2 28.4 L-39.05 31.7 M-44.95 29.85 L-44.7 30.45 -44.7 32.05 Q-44.45 33.65 -42.95 33.65 -41.7 33.65 -42.2 33.45 -41.7 32.85 -41.7 31.4 -41.7 28.3 -43.3 27.9 -44.0 26.85 -45.15 26.9 L-45.2 28.4 -44.95 29.85 M-49.4 27.8 L-50.2 27.15 Q-50.6 27.2 -50.9 27.7 -51.2 28.25 -51.2 29.15 L-51.2 33.4 -49.95 33.65 Q-48.7 33.65 -49.15 33.4 L-48.75 32.45 -48.7 31.15 -48.9 28.9 -49.2 28.85 -49.4 27.8" fill="#82625e" fill-rule="evenodd" stroke="none"/>
      <path d="M44.7 -52.2 L36.85 -46.6 30.85 -41.15 Q25.45 -36.35 24.55 -36.35 23.5 -36.35 23.05 -37.45 L22.95 -37.7 26.7 -41.7 30.8 -46.05 Q45.05 -53.55 46.6 -54.6 45.55 -53.75 44.7 -52.2 M24.1 -55.3 L24.05 -55.05 23.5 -52.6 23.3 -51.6 23.3 -51.55 22.0 -49.65 18.1 -43.35 15.6 -37.4 Q13.25 -32.35 11.3 -32.35 L10.1 -32.6 9.85 -33.15 9.8 -33.85 10.45 -34.3 10.8 -34.55 Q10.0 -39.05 14.6 -45.25 17.25 -48.85 24.0 -55.4 L24.1 -55.3 M7.3 -47.3 Q7.65 -45.05 7.15 -40.55 L7.15 -40.3 7.35 -38.25 7.55 -37.6 7.3 -34.55 7.2 -27.55 6.8 -26.95 6.8 -26.65 Q5.25 -26.05 3.3 -24.5 3.15 -31.7 3.6 -35.75 4.4 -41.85 7.05 -47.4 L7.3 -47.3" fill="#1d1c16" fill-rule="evenodd" stroke="none"/>
      <path d="M32.25 -35.8 L33.3 -36.7 37.25 -38.85 37.45 -38.9 37.65 -39.0 39.05 -39.45 39.2 -39.5 39.55 -39.6 39.7 -39.65 39.9 -39.7 40.05 -39.75 40.25 -39.8 42.55 -40.3 Q47.7 -41.2 53.8 -44.8 L54.05 -44.55 53.3 -43.85 51.6 -42.1 51.5 -42.05 51.45 -42.0 51.25 -41.9 49.15 -40.7 44.45 -37.85 39.2 -34.05 Q36.3 -31.9 35.6 -30.85 L34.15 -27.75 Q32.8 -25.55 31.45 -25.0 L31.25 -25.25 30.15 -25.0 27.85 -25.5 27.65 -26.0 27.3 -26.1 27.4 -25.95 27.7 -25.55 27.65 -25.55 27.55 -25.6 24.9 -26.25 20.6 -25.8 15.35 -24.8 13.3 -23.55 Q8.3 -20.15 6.3 -19.05 3.15 -17.2 0.35 -14.65 -6.05 -10.85 -6.2 -7.85 -6.95 -7.45 -7.15 -6.05 L-7.2 -4.0 -7.2 -1.65 -7.45 -1.3 -9.8 1.8 -12.05 4.35 -12.3 4.1 -14.95 6.45 Q-18.65 9.45 -21.85 9.9 L-21.95 9.95 -21.7 10.35 -22.4 10.85 -25.45 11.25 Q-28.8 11.7 -30.45 12.65 L-33.4 12.65 -33.55 12.5 -33.7 11.9 -34.7 11.3 -34.85 11.15 -35.45 10.5 Q-35.9 9.1 -36.3 8.4 -32.5 7.35 -26.95 5.0 L-26.7 5.1 -26.75 5.0 -21.15 1.5 -17.35 -0.95 Q-16.75 -1.6 -15.25 -2.35 L-13.4 -3.0 Q-11.3 -5.0 -10.2 -7.05 -6.3 -14.2 1.65 -20.9 L2.5 -21.55 8.15 -25.85 8.3 -25.85 10.45 -26.65 12.85 -27.6 13.6 -27.75 Q14.9 -28.75 18.45 -29.75 L27.6 -29.5 27.9 -29.8 28.0 -29.9 28.4 -30.35 28.5 -30.45 29.55 -31.85 29.7 -32.05 Q30.75 -32.75 31.6 -34.55 L32.25 -35.8 M-43.55 15.1 Q-44.1 13.65 -45.4 11.2 L-46.5 8.95 -46.1 8.75 -41.2 9.15 -38.3 8.85 Q-39.2 10.9 -39.2 14.0 L-39.15 15.6 -39.45 15.65 -43.4 15.15 -43.55 15.1" fill="#5b5042" fill-rule="evenodd" stroke="none"/>
      <path d="M-34.7 11.3 L-33.7 11.9 -33.55 12.5 -33.4 12.65 -30.45 12.65 Q-28.8 11.7 -25.45 11.25 L-22.4 10.85 -21.7 10.35 -21.85 9.9 Q-18.65 9.45 -14.95 6.45 L-12.3 4.1 -12.15 4.45 -12.05 4.4 -12.05 4.35 -9.8 1.8 -7.45 -1.3 -7.2 -1.2 -7.15 -0.35 -6.45 0.25 -6.2 1.05 -6.2 1.4 -5.9 1.75 -5.35 2.45 -3.2 5.2 Q0.2 8.15 6.8 8.15 13.05 8.15 17.35 2.9 20.8 -1.25 20.8 -4.6 L20.8 -5.1 20.95 -5.25 21.3 -5.85 Q18.1 -9.05 16.2 -10.05 11.9 -12.3 8.05 -9.55 L2.7 -5.35 -1.9 -1.6 -5.2 -1.6 -5.15 -5.05 Q-5.15 -6.5 -5.65 -7.3 L-5.75 -7.45 -6.15 -7.8 -6.2 -7.85 Q-6.05 -10.85 0.35 -14.65 3.15 -17.2 6.3 -19.05 8.3 -20.15 13.3 -23.55 L15.35 -24.8 20.6 -25.8 24.9 -26.25 27.55 -25.6 27.65 -25.55 28.15 -24.9 27.85 -25.5 30.15 -25.0 31.25 -25.25 31.45 -25.0 Q32.8 -25.55 34.15 -27.75 L35.6 -30.85 Q36.3 -31.9 39.2 -34.05 L44.45 -37.85 49.15 -40.7 49.2 -40.6 Q47.8 -39.75 47.8 -39.1 L47.8 -39.0 Q46.1 -37.75 44.75 -35.25 43.4 -32.85 41.3 -28.05 40.6 -26.85 39.25 -21.95 L38.1 -16.95 39.1 -13.15 42.15 -12.75 42.35 -12.7 42.9 -13.15 Q44.35 -14.25 45.2 -14.55 L45.3 -14.3 Q45.3 -12.8 43.65 -11.05 L43.15 -10.2 Q42.65 -9.7 42.65 -9.1 L45.4 -4.25 45.5 -4.05 46.8 -1.4 Q47.8 0.95 48.05 3.05 L48.1 2.95 48.5 2.85 Q50.2 7.85 51.2 14.15 L52.95 25.05 Q54.15 31.15 56.3 35.7 54.95 35.6 52.05 33.35 49.2 31.15 48.3 31.15 L47.45 31.3 47.3 31.45 47.3 35.95 Q48.25 39.1 51.0 43.85 L55.55 51.3 55.35 51.4 Q53.65 50.8 46.1 45.4 L38.8 40.15 Q38.0 40.15 37.85 40.45 37.75 40.55 37.8 40.7 L37.8 45.95 Q38.5 47.65 40.95 52.15 L42.55 55.25 Q38.7 53.35 36.5 52.5 31.7 50.65 24.85 49.4 L9.3 46.15 0.2 44.65 Q-4.1 44.15 -5.2 45.95 L-4.2 46.65 -4.15 46.65 Q-3.95 47.9 -2.35 49.85 L0.1 52.9 Q-3.45 51.9 -9.2 49.6 L-14.45 47.65 -15.7 47.8 -16.2 47.95 -16.15 49.15 Q-14.9 50.05 -14.25 51.4 L-13.2 53.65 Q-15.8 52.75 -20.3 50.1 -25.35 47.1 -28.15 45.9 L-31.3 44.05 -31.25 43.95 -31.4 43.85 -31.5 43.75 -34.55 41.2 -34.85 41.2 -35.15 40.9 Q-36.4 39.5 -37.85 38.75 L-37.7 38.45 Q-36.3 37.6 -35.9 36.55 L-34.4 35.95 Q-32.3 39.6 -29.35 41.45 L-29.85 41.4 Q-27.45 42.8 -25.1 43.65 L-23.15 43.65 -22.85 43.35 -22.7 43.15 -20.2 42.85 -19.7 42.75 -18.6 42.35 -17.8 41.95 Q-16.45 41.2 -15.3 40.05 L-14.7 40.15 -14.25 40.05 -13.1 36.95 -13.2 36.95 -12.8 36.15 Q-11.75 33.45 -11.75 31.1 L-11.6 30.8 Q3.25 37.0 5.5 37.0 9.4 37.0 11.25 35.1 12.5 33.8 12.5 32.15 12.5 30.15 9.75 25.55 6.55 20.2 2.5 16.8 -8.95 7.4 -18.9 20.0 -19.55 19.65 -19.95 19.65 -20.55 19.65 -21.95 20.3 -23.3 20.9 -23.95 20.9 -26.95 20.9 -29.35 19.0 -32.05 16.9 -35.1 11.6 L-34.7 11.3 M-39.15 15.65 Q-39.0 22.75 -37.25 28.9 L-37.45 28.95 -38.65 25.7 Q-39.4 23.8 -40.7 22.2 -41.65 21.0 -42.4 18.95 L-43.45 15.45 -43.4 15.15 -39.45 15.65 -39.15 15.65" fill="#3f362e" fill-rule="evenodd" stroke="none"/>
    </g>
    <g id="shape5" transform="matrix(1.0, 0.0, 0.0, 1.0, 42.55, 43.75)">
      <path d="M-1.25 -37.75 L-1.45 -36.7 -1.2 -36.6 Q-1.85 -35.9 -4.15 -34.2 L-9.7 -30.0 -12.4 -27.35 -12.55 -27.2 -12.2 -27.15 -13.65 -25.55 -13.9 -25.3 Q-22.0 -16.15 -25.4 -7.3 -26.7 -3.85 -29.65 1.8 L-34.15 10.7 -37.5 19.3 -40.1 26.25 Q-38.35 26.15 -36.4 26.2 L-33.05 26.25 -30.15 25.8 Q-28.7 25.35 -28.45 23.7 L-28.45 19.5 -25.95 15.35 Q-24.2 12.45 -22.95 11.25 -19.0 7.5 -9.6 3.7 -2.4 0.75 0.85 0.2 L15.0 -2.5 25.05 -4.6 27.45 -5.25 28.2 -5.4 29.25 -5.85 29.35 -5.65 42.45 -8.6 40.7 -9.25 36.95 -10.35 Q37.4 -12.1 41.55 -13.15 L49.95 -14.85 51.8 -15.0 45.6 -16.4 Q42.45 -17.15 42.45 -18.3 42.45 -19.05 43.35 -19.3 L47.3 -20.35 44.85 -23.65 44.9 -23.75 43.45 -25.8 Q40.95 -29.9 40.95 -31.05 L41.0 -31.6 40.95 -31.75 40.95 -31.95 Q40.95 -33.7 39.2 -36.55 L39.15 -36.65 38.95 -37.2 38.3 -38.1 Q39.1 -38.3 39.75 -38.1 40.75 -37.8 41.3 -36.45 42.1 -33.35 42.95 -32.15 L43.1 -31.4 43.8 -30.3 44.45 -28.55 45.2 -27.2 Q47.35 -23.55 49.95 -21.9 L49.9 -21.6 Q51.3 -21.45 53.8 -20.45 L54.0 -20.15 Q53.9 -19.15 53.35 -18.85 L47.45 -18.05 52.55 -17.2 Q55.5 -16.7 56.95 -15.2 56.95 -14.25 56.4 -13.9 55.55 -13.4 49.7 -12.95 L45.9 -12.05 42.45 -11.1 41.55 -10.85 Q43.85 -10.45 44.85 -9.55 45.45 -9.0 45.45 -8.35 45.45 -7.25 42.15 -6.55 L32.95 -4.5 20.95 -1.2 20.15 -1.35 13.55 0.2 -1.9 3.2 Q-5.35 4.1 -9.05 5.85 L-14.7 8.5 Q-18.35 9.95 -20.0 11.35 -21.35 12.45 -23.15 15.2 -25.05 18.1 -27.15 26.1 L-26.95 26.45 -26.95 26.9 -26.95 26.95 Q-26.95 27.65 -27.1 27.65 L-27.4 27.95 -38.95 27.95 -41.55 27.2 -42.45 26.6 -42.55 26.5 -42.45 25.35 -42.45 25.15 -42.2 25.15 -42.1 25.15 -41.9 24.5 Q-40.5 19.95 -35.0 8.45 -27.15 -7.5 -26.4 -9.3 -23.65 -15.65 -22.1 -18.35 -20.05 -22.0 -17.45 -24.95 -17.25 -25.75 -14.2 -28.65 L-10.35 -32.1 Q-6.2 -35.6 -1.35 -37.65 L-1.25 -37.75 M41.15 -22.1 L41.55 -22.2 41.95 -22.1 41.15 -22.1" fill="#000000" fill-rule="evenodd" stroke="none"/>
      <path d="M-1.25 -37.75 L-1.1 -38.1 Q0.45 -38.8 2.1 -39.95 L2.65 -40.35 2.75 -40.3 2.85 -40.45 Q5.85 -42.05 15.95 -43.2 L28.45 -43.75 Q34.15 -43.55 38.25 -39.45 L39.4 -38.55 39.75 -38.1 Q39.1 -38.3 38.3 -38.1 L38.95 -37.2 39.15 -36.65 39.2 -36.55 Q40.95 -33.7 40.95 -31.95 L40.95 -31.75 41.0 -31.6 40.95 -31.05 Q40.95 -29.9 43.45 -25.8 L44.9 -23.75 44.85 -23.65 47.3 -20.35 43.35 -19.3 Q42.45 -19.05 42.45 -18.3 42.45 -17.15 45.6 -16.4 L51.8 -15.0 49.95 -14.85 41.55 -13.15 Q37.4 -12.1 36.95 -10.35 L40.7 -9.25 42.45 -8.6 29.35 -5.65 29.25 -5.85 28.2 -5.4 27.45 -5.25 25.05 -4.6 15.0 -2.5 0.85 0.2 Q-2.4 0.75 -9.6 3.7 -19.0 7.5 -22.95 11.25 -24.2 12.45 -25.95 15.35 L-28.45 19.5 -28.45 23.7 Q-28.7 25.35 -30.15 25.8 L-33.05 26.25 -36.4 26.2 Q-38.35 26.15 -40.1 26.25 L-37.5 19.3 -34.15 10.7 -29.65 1.8 Q-26.7 -3.85 -25.4 -7.3 -22.0 -16.15 -13.9 -25.3 L-13.65 -25.55 -12.2 -27.15 -12.4 -27.35 -9.7 -30.0 -4.15 -34.2 Q-1.85 -35.9 -1.2 -36.6 L-1.45 -36.7 -1.25 -37.75 M41.15 -22.1 L41.95 -22.1 41.55 -22.2 41.15 -22.1" fill="#3f362e" fill-rule="evenodd" stroke="none"/>
      <path d="M-12.4 -27.35 L-12.2 -27.15 -12.55 -27.2 -12.4 -27.35" fill="#242939" fill-rule="evenodd" stroke="none"/>
    </g>
  </defs>
</svg>
