<?xml version="1.0" encoding="UTF-8" standalone="no"?>
<svg xmlns:ffdec="https://www.free-decompiler.com/flash" xmlns:xlink="http://www.w3.org/1999/xlink" ffdec:objectType="frame" height="255.8px" width="563.85px" xmlns="http://www.w3.org/2000/svg">
  <g transform="matrix(1.0, 0.0, 0.0, 1.0, 281.95, 127.9)">
    <use ffdec:characterId="122" height="255.8" transform="matrix(1.0, 0.0, 0.0, 1.0, -281.95, -127.9)" width="563.85" xlink:href="#shape0"/>
  </g>
  <defs>
    <g id="shape0" transform="matrix(1.0, 0.0, 0.0, 1.0, 281.95, 127.9)">
      <path d="M148.7 -32.5 L148.85 -32.8 148.9 -33.05 148.9 -33.1 149.65 -33.3 148.7 -32.5 M161.65 -48.95 L162.45 -48.55 Q162.05 -48.2 161.3 -48.1 L161.65 -48.95 M-154.0 7.55 L-153.95 7.65 Q-154.3 8.7 -154.6 9.05 L-154.65 8.8 -154.4 8.65 -154.7 8.4 -154.25 8.15 -154.2 8.1 -154.1 7.95 -154.0 7.55 M-228.95 12.65 L-228.95 12.8 -228.95 12.75 -228.95 12.65" fill="#ffffff" fill-rule="evenodd" stroke="none"/>
      <path d="M109.4 -121.6 Q116.1 -123.85 124.5 -125.65 138.95 -128.7 147.4 -127.6 157.7 -124.9 162.85 -123.05 167.25 -121.5 171.65 -119.1 179.55 -114.8 188.4 -107.5 L202.15 -95.6 Q219.6 -80.75 227.35 -49.45 232.4 -29.15 232.85 -4.75 255.3 -1.25 262.6 8.25 265.45 12.05 266.35 17.25 266.9 20.35 266.9 26.5 266.9 41.15 263.95 50.1 262.05 55.95 258.2 62.25 L259.4 62.1 Q260.65 62.25 260.65 64.65 260.65 65.05 263.95 67.5 268.5 70.9 271.3 73.45 281.9 83.25 281.9 93.15 281.9 98.9 281.25 100.25 280.2 102.3 273.65 107.9 271.95 109.35 245.2 112.6 L198.9 117.9 197.45 117.45 197.2 117.2 185.9 117.9 Q171.5 117.9 163.95 113.2 159.5 110.45 158.0 109.8 154.0 108.2 147.9 107.9 L140.6 106.2 Q133.65 104.3 130.9 103.9 L122.45 102.95 Q113.05 102.15 102.4 102.4 L98.8 103.15 94.4 103.9 92.0 103.55 91.55 103.25 Q89.0 106.65 83.9 110.7 80.25 113.6 73.4 118.15 L71.3 120.3 Q68.9 122.2 63.55 123.6 47.1 127.9 2.9 127.9 -31.65 127.9 -53.35 123.45 -68.05 120.4 -82.25 113.65 -98.75 105.8 -105.3 103.85 -120.45 99.4 -143.95 99.4 L-166.95 100.3 Q-167.0 101.3 -167.15 101.35 L-167.7 101.9 Q-176.75 103.9 -181.9 106.45 -184.65 108.55 -186.95 110.9 L-187.85 110.6 -190.95 113.65 Q-194.45 116.95 -198.25 119.1 -206.8 123.9 -216.95 123.9 -228.1 123.9 -240.65 118.25 -250.55 113.8 -257.45 107.9 L-259.65 105.9 -261.35 105.9 Q-262.35 103.6 -264.15 101.7 L-264.55 101.3 -263.85 101.4 -265.95 98.65 -272.45 88.4 Q-276.85 81.4 -279.55 69.35 -281.95 58.5 -281.95 48.65 -281.95 39.7 -275.35 28.5 -267.6 15.35 -256.95 12.9 -244.0 11.9 -233.45 13.05 -235.2 9.9 -237.2 1.65 L-239.95 -11.5 Q-239.95 -18.9 -235.55 -27.4 -230.35 -37.5 -221.95 -41.85 -212.6 -48.6 -204.15 -52.6 L-204.3 -52.75 -204.6 -53.1 Q-202.9 -53.7 -201.3 -54.55 L-199.7 -54.95 -199.45 -54.7 Q-180.3 -62.4 -165.95 -53.1 -140.2 -37.95 -131.4 -23.7 -124.95 -13.35 -124.95 3.15 -124.95 16.05 -128.45 21.15 -129.0 21.95 -129.95 25.1 -130.9 28.2 -132.15 29.95 -136.4 35.9 -149.45 35.9 L-154.65 35.7 Q-149.15 37.25 -138.6 38.2 L-138.7 38.85 -100.45 40.4 -82.95 39.35 -75.65 38.85 -76.3 38.3 -80.05 36.0 -79.95 35.9 -79.8 35.85 Q-83.85 32.6 -86.0 27.4 -87.7 23.2 -88.0 18.1 L-87.95 13.9 Q-87.95 -2.15 -79.85 -13.55 -71.25 -25.8 -53.85 -32.2 L-53.95 -34.0 Q-53.95 -37.55 -50.6 -43.6 -46.7 -50.7 -40.25 -56.8 -22.55 -73.55 3.9 -73.6 28.35 -77.15 48.4 -69.3 62.05 -64.0 69.55 -55.05 67.9 -63.9 67.9 -76.6 67.9 -83.95 68.8 -87.7 70.5 -94.6 75.9 -100.1 81.05 -105.3 89.5 -111.05 99.9 -118.1 109.4 -121.6 M176.45 88.4 L183.25 87.7 Q210.1 82.85 221.85 45.65 226.2 32.0 227.95 15.4 228.9 6.5 228.9 -0.1 228.9 -45.9 218.9 -64.6 203.25 -93.85 179.45 -109.95 159.25 -123.6 140.9 -123.6 119.1 -123.6 99.45 -113.55 87.75 -107.55 82.9 -102.35 74.0 -93.0 72.5 -88.45 71.8 -86.4 71.8 -83.45 L71.9 -76.85 Q71.9 -62.65 74.5 -53.2 L75.7 -49.5 76.25 -47.8 76.5 -46.95 80.9 -31.95 Q82.2 -29.05 83.45 -26.7 84.3 -24.7 84.65 -20.1 86.9 -16.2 91.45 -12.0 101.75 -2.55 103.65 -0.1 114.85 14.05 124.6 18.95 131.4 22.4 141.3 22.4 149.2 22.4 154.15 19.85 157.5 18.1 159.5 15.15 L159.6 14.95 Q162.45 13.55 165.4 9.95 L165.6 9.75 165.4 11.1 169.4 7.5 171.05 5.85 Q176.95 -0.2 179.9 -6.65 182.9 -13.2 182.9 -20.1 182.9 -23.25 180.55 -28.35 177.95 -33.9 173.85 -38.8 168.45 -45.35 162.45 -48.55 L161.65 -48.95 Q157.7 -50.9 153.45 -51.4 L151.35 -51.55 150.4 -51.6 Q144.9 -51.6 143.85 -47.1 143.35 -44.85 143.9 -42.35 143.9 -37.9 144.2 -37.05 145.05 -34.7 148.9 -33.1 L148.9 -33.05 148.85 -32.8 148.7 -32.5 148.25 -31.8 Q147.55 -31.1 145.9 -31.1 140.9 -31.1 139.9 -36.85 L139.9 -42.85 Q139.9 -49.75 142.9 -53.05 144.3 -54.65 146.35 -55.4 L147.25 -55.7 Q153.75 -57.55 163.4 -52.25 167.4 -50.05 170.95 -47.2 L174.3 -44.3 Q176.95 -41.8 179.3 -38.8 L179.55 -38.5 Q186.9 -29.1 186.9 -20.5 186.9 -15.2 184.9 -8.25 182.65 -0.45 179.4 3.15 L175.1 8.85 Q172.0 13.0 170.15 14.4 L164.8 18.65 Q161.4 21.15 159.45 21.75 L156.35 23.8 Q151.7 26.2 144.9 26.75 L144.85 26.75 144.9 26.9 Q143.6 27.95 132.25 30.9 121.25 33.75 118.9 33.9 105.65 34.85 97.45 36.5 L95.6 36.85 95.5 36.9 94.35 37.15 Q89.75 38.25 84.9 39.9 L83.75 40.2 75.5 43.0 74.85 43.25 73.6 43.75 74.85 43.75 79.3 44.3 81.8 45.0 91.35 45.5 92.7 45.7 92.75 45.7 Q98.6 46.5 102.85 48.45 107.2 50.45 113.0 55.3 L126.9 67.65 Q133.1 73.15 147.85 80.2 165.1 88.4 174.9 88.4 L176.45 88.4 M-3.0 -32.9 L-2.6 -32.7 0.5 -30.95 Q5.75 -27.7 10.3 -22.9 17.4 -15.45 21.4 -5.45 24.9 3.35 24.9 11.0 24.9 17.45 23.05 26.3 19.9 41.65 12.4 54.15 4.9 66.7 -6.0 75.2 L-3.9 75.0 1.65 74.4 Q3.6 74.2 7.5 72.9 L7.8 72.8 8.3 72.65 8.35 72.65 Q12.75 71.2 16.65 70.4 22.2 69.3 27.45 66.05 L36.4 59.4 43.15 54.0 43.45 53.55 44.05 53.25 50.2 48.3 Q57.95 41.7 62.85 36.35 L63.65 35.4 63.9 35.1 64.4 34.55 72.25 22.75 73.2 20.9 73.2 20.85 Q75.25 16.55 76.85 11.8 80.9 -0.4 80.9 -12.6 L80.85 -16.85 78.9 -23.35 74.55 -37.9 71.9 -43.35 Q63.65 -60.35 45.8 -66.15 35.15 -69.6 15.05 -69.6 1.3 -69.6 -4.2 -69.25 -11.65 -68.75 -16.45 -67.15 -21.25 -65.55 -26.45 -61.8 -30.15 -59.1 -38.85 -51.6 -43.75 -47.4 -46.7 -42.75 -49.8 -37.9 -50.0 -33.5 -44.25 -35.35 -37.6 -36.6 -29.4 -38.15 -22.1 -37.8 L-22.1 -37.75 -20.3 -37.65 -17.35 -37.35 -17.05 -37.3 Q-9.55 -36.2 -3.0 -32.9 M84.9 -11.6 Q84.85 1.95 82.1 11.75 78.45 24.65 69.15 36.4 L63.65 42.15 Q72.8 38.6 89.8 34.4 115.6 28.05 132.95 26.2 124.3 24.55 116.85 19.35 109.95 14.55 100.4 3.15 93.3 -5.55 87.15 -9.85 L84.9 -11.6 M106.25 98.0 L110.9 97.9 Q131.25 97.9 154.9 105.8 161.1 107.85 169.5 111.2 175.7 113.65 176.4 113.65 L198.35 113.6 Q198.9 113.5 198.7 113.0 198.35 112.35 199.4 111.65 L202.9 109.15 206.45 106.3 209.15 103.9 Q211.1 101.95 216.0 98.65 L223.15 93.65 235.95 82.95 Q243.3 76.35 246.9 71.15 L255.1 60.05 Q259.6 53.7 261.15 48.65 262.55 44.15 262.85 35.85 L262.9 26.5 Q262.9 8.3 247.4 2.5 244.3 1.35 236.75 -0.2 234.1 -0.75 232.9 -1.35 L232.9 0.0 Q232.9 26.25 224.85 49.9 210.25 92.9 174.9 92.9 163.75 92.9 146.85 84.75 L139.5 81.0 134.15 77.95 125.65 72.4 Q122.35 70.1 118.6 65.7 114.35 60.7 111.9 58.65 104.0 52.0 92.9 50.1 L96.9 52.15 Q102.85 55.45 104.35 61.5 104.9 63.65 104.9 70.9 L104.9 79.7 Q104.75 82.75 103.8 84.9 L95.75 97.1 94.8 98.55 94.75 98.55 94.3 99.25 93.8 99.95 93.9 99.95 105.75 98.0 106.25 98.0 M249.4 74.15 Q246.25 77.9 237.45 85.65 L223.4 98.15 216.05 104.05 208.4 110.15 206.6 112.2 215.65 111.6 Q245.05 109.85 267.4 105.4 275.75 103.75 277.45 100.2 278.05 98.9 278.05 96.75 L277.9 92.9 Q277.9 85.4 269.9 77.8 L262.1 70.9 256.3 65.15 Q253.3 69.55 249.4 74.15 M98.45 59.65 L97.9 58.75 97.65 58.4 96.55 56.95 95.85 56.15 95.8 56.15 95.65 56.0 Q89.45 49.8 76.1 49.4 L74.4 49.4 73.9 49.4 Q63.35 49.6 53.2 57.85 L50.95 59.75 48.4 62.15 Q45.6 64.95 43.4 67.9 41.5 70.35 40.05 72.95 36.9 78.5 36.9 82.25 36.9 87.5 38.9 90.2 42.8 95.4 54.05 95.4 62.65 95.4 66.65 89.05 67.9 87.0 68.5 84.6 L68.7 83.85 68.85 83.05 68.9 82.4 Q68.9 79.5 68.25 79.0 66.6 77.65 58.65 76.9 L58.3 76.65 Q57.95 76.4 57.9 75.25 L57.9 75.1 57.9 74.9 57.9 74.8 57.95 74.4 Q58.15 73.25 59.45 72.95 L62.9 72.9 Q70.1 72.9 72.2 77.45 72.9 79.0 72.9 82.65 72.9 87.2 69.2 92.45 67.55 94.75 65.55 96.35 L65.5 96.35 64.4 97.15 60.75 98.95 60.2 99.1 58.55 99.5 55.0 99.9 54.4 99.9 49.2 99.6 Q32.9 97.65 32.9 82.5 32.9 72.25 39.35 64.75 41.25 62.55 44.9 59.55 43.9 59.1 43.45 58.5 L40.4 61.15 Q35.55 66.0 24.5 71.55 5.85 80.9 -14.1 80.9 L-14.5 80.9 Q-33.1 91.6 -59.7 92.75 L-66.45 92.9 -66.6 92.9 -66.85 92.9 -67.75 92.9 -72.0 92.75 -77.65 92.3 -78.25 92.25 -91.4 90.65 Q-107.25 88.4 -117.45 88.4 -138.25 88.4 -156.55 94.05 L-160.35 95.3 Q-153.9 94.9 -143.95 94.9 -120.45 94.9 -105.6 99.35 -99.4 101.2 -83.1 109.15 -69.2 115.9 -54.3 118.95 -32.45 123.4 2.9 123.4 L39.4 121.85 Q67.15 119.25 73.65 113.15 74.8 112.05 82.4 106.1 87.9 101.85 89.65 98.9 98.1 85.95 99.5 83.1 100.2 81.6 100.6 78.5 L100.9 71.15 100.7 67.35 Q100.2 62.85 98.45 59.65 M-145.2 51.1 Q-114.45 67.4 -63.95 67.4 L-41.35 67.45 Q-33.85 67.3 -30.35 66.15 -27.2 65.1 -22.5 61.5 L-9.35 51.4 Q-5.7 48.8 -1.05 41.05 3.55 33.45 5.9 31.9 L7.35 32.35 Q7.9 32.65 7.9 34.25 L7.35 36.15 Q5.85 39.5 0.15 46.9 -7.1 56.25 -8.35 56.9 -16.3 61.45 -24.15 66.75 -29.4 70.35 -31.6 71.1 -34.45 72.05 -41.1 72.05 L-58.25 71.95 -63.1 71.9 Q-74.9 71.9 -84.75 71.3 -99.5 70.4 -109.8 68.15 L-117.1 66.3 -122.4 64.65 -122.45 64.6 -123.5 64.25 -139.5 57.45 -139.95 57.2 -140.25 57.05 -141.0 56.7 -143.95 55.15 -146.8 53.55 -147.8 53.0 -152.2 50.4 Q-162.55 44.05 -169.8 37.75 -178.95 29.85 -178.95 25.25 L-178.9 24.7 Q-185.95 16.8 -185.95 5.25 -185.95 0.45 -183.2 -2.6 -179.2 -7.1 -169.95 -7.1 -165.7 -7.1 -161.95 -4.35 L-161.95 -4.3 Q-159.85 -2.75 -157.95 -0.35 -156.5 1.5 -155.3 3.7 L-154.95 4.3 -153.95 6.4 -154.0 7.55 -154.1 7.95 -154.2 8.1 -154.25 8.15 -154.7 8.4 -154.4 8.65 -154.65 8.8 -155.95 8.9 Q-158.35 8.9 -159.55 6.15 L-160.45 4.1 -160.4 4.2 -160.6 3.8 -161.2 2.4 -161.25 2.35 Q-162.4 1.15 -162.85 -1.0 -164.05 -2.6 -169.95 -2.6 L-170.3 -2.6 Q-178.35 -2.55 -180.9 0.5 L-181.2 0.9 -181.25 0.95 Q-181.95 1.95 -181.95 5.4 L-181.95 5.45 Q-181.95 12.55 -179.1 17.9 L-177.0 21.15 Q-172.0 27.55 -162.35 29.95 L-162.15 30.0 Q-156.45 31.4 -149.1 31.4 -135.25 31.4 -130.7 17.15 -130.1 15.1 -129.65 12.85 L-129.55 12.3 -129.05 8.5 -129.05 8.05 -129.0 7.3 -128.95 2.65 -128.75 -5.45 Q-128.75 -8.45 -129.4 -10.45 -130.3 -13.15 -139.95 -28.1 -144.45 -34.9 -154.75 -42.8 -168.9 -53.6 -180.95 -53.6 -187.55 -53.6 -193.95 -51.9 L-195.1 -51.6 -196.9 -51.05 -197.0 -51.05 -197.0 -51.0 Q-199.2 -50.55 -201.2 -49.5 L-202.95 -48.75 -203.35 -48.55 -203.9 -48.3 -204.55 -48.0 Q-211.6 -44.6 -218.5 -39.1 -226.45 -32.75 -231.1 -25.5 -235.95 -18.05 -235.95 -11.75 -235.95 -5.6 -228.95 12.65 L-228.95 12.75 -228.95 12.8 -229.2 13.6 -229.1 13.6 Q-217.55 15.35 -209.2 19.95 -206.1 21.65 -203.45 23.75 L-199.65 27.1 Q-193.95 32.85 -191.5 40.35 -189.95 45.05 -189.95 48.9 -189.95 55.55 -194.7 62.45 L-196.95 65.25 Q-200.45 69.0 -205.2 70.95 -210.15 72.9 -216.45 72.9 -228.75 72.9 -236.45 64.15 L-239.4 60.2 Q-238.65 63.45 -236.7 68.15 -235.75 70.7 -233.35 74.05 -230.6 77.95 -227.2 80.9 -224.9 82.9 -214.95 85.9 -211.8 86.8 -200.75 87.95 L-176.35 89.4 -167.1 88.55 -163.45 88.1 -155.95 86.9 -145.5 86.9 Q-138.6 85.4 -131.5 84.65 L-117.45 83.9 Q-106.2 83.9 -90.3 86.15 -74.4 88.4 -66.1 88.4 -36.55 88.4 -16.7 77.5 -17.3 76.75 -16.8 76.55 L-14.4 76.2 Q0.9 67.0 10.1 50.9 12.2 47.25 13.9 43.4 15.6 39.5 16.9 35.35 18.55 30.05 19.6 24.35 20.9 17.0 20.9 10.75 20.9 7.25 19.5 1.85 17.4 -6.25 13.1 -12.85 1.65 -30.45 -21.7 -32.35 L-27.6 -32.6 -27.85 -32.6 -31.05 -32.5 Q-47.05 -31.6 -62.1 -22.55 -67.95 -19.05 -72.6 -14.85 -76.35 -11.45 -77.45 -9.6 -82.65 -0.6 -83.5 3.15 -83.95 5.0 -83.95 13.65 -83.95 15.65 -83.4 19.2 -82.75 23.05 -81.95 25.65 -80.85 29.1 -77.75 31.7 L-76.05 32.95 -76.05 33.3 Q-75.65 34.65 -73.45 34.85 -72.75 35.4 -71.75 35.4 L-70.9 35.25 Q-67.05 36.4 -62.1 36.4 L-52.65 35.6 -52.6 35.6 -52.35 35.55 -51.75 35.4 -50.05 35.05 -49.4 34.85 -48.7 34.65 Q-40.05 32.15 -34.15 26.15 L-34.0 26.05 Q-30.6 22.55 -28.65 18.4 L-27.95 16.85 Q-27.1 14.7 -27.1 13.4 -27.1 12.1 -28.3 11.45 -31.4 9.9 -41.35 9.9 L-41.7 9.65 Q-42.1 9.4 -42.1 7.9 -42.1 6.65 -41.4 6.4 L-41.0 6.3 -34.9 5.9 -34.1 5.9 Q-25.7 5.9 -23.55 9.65 -22.9 10.8 -22.95 12.25 -22.95 12.95 -23.1 13.4 -23.1 15.9 -25.05 19.95 -26.8 23.5 -29.35 26.65 L-31.6 29.15 Q-41.6 39.3 -57.3 40.7 L-62.1 40.9 -62.45 40.9 -63.9 40.9 -63.9 41.25 Q-64.35 42.2 -66.9 42.9 -74.35 44.9 -100.45 44.9 -121.9 44.9 -131.2 44.3 -145.6 43.4 -154.5 40.7 L-154.55 40.7 -155.0 40.55 -158.2 39.4 -161.55 37.75 Q-161.9 37.6 -162.3 37.4 L-165.75 36.15 -164.35 37.55 Q-159.45 42.15 -153.65 46.05 -149.65 48.75 -145.2 51.1 M53.05 50.8 L49.7 53.4 Q51.7 52.25 53.1 50.95 L53.05 50.8 M-74.8 38.75 L-75.15 38.6 -75.45 38.8 -74.8 38.75 M-205.65 65.85 Q-202.45 64.45 -200.1 62.4 L-197.75 59.9 Q-193.95 55.15 -193.95 49.0 -193.95 39.2 -201.25 31.4 -214.35 17.4 -246.95 17.4 -261.95 17.4 -268.55 24.3 -270.7 26.5 -271.9 29.4 L-272.95 32.65 -277.1 42.7 Q-277.95 44.6 -277.95 49.15 -277.95 57.7 -276.5 65.4 L-274.2 74.4 -272.8 78.35 Q-267.9 90.95 -258.25 100.9 -249.6 109.8 -238.6 114.65 -227.9 119.4 -216.95 119.4 -209.15 119.4 -202.45 115.75 -199.1 113.9 -191.7 107.9 L-182.65 101.85 -176.7 98.5 Q-173.15 96.55 -168.95 94.65 L-166.35 93.55 -164.1 92.6 -166.65 92.9 -175.95 93.9 Q-208.5 93.9 -223.2 87.45 -243.95 78.3 -243.95 53.4 -244.4 51.55 -244.4 49.3 -244.4 44.8 -241.95 42.9 L-241.8 43.05 -241.7 43.1 -241.25 42.4 Q-237.75 37.9 -227.45 37.9 -217.65 37.9 -214.8 39.9 L-214.7 40.05 -214.2 40.8 Q-213.1 42.25 -211.95 42.65 L-212.35 44.05 Q-212.85 44.9 -214.45 44.9 -216.0 44.9 -216.6 44.5 L-217.6 43.65 Q-219.35 42.4 -227.1 42.4 -237.15 42.4 -239.0 45.2 -240.0 46.6 -238.95 48.25 -238.95 55.05 -232.25 62.15 -226.1 68.65 -221.95 68.65 -212.1 68.65 -205.65 65.85" fill="#999999" fill-rule="evenodd" stroke="none"/>
      <path d="M92.75 45.7 L92.7 45.7 91.35 45.5 81.8 45.0 79.3 44.3 74.85 43.75 74.85 43.3 74.85 43.25 75.5 43.0 83.75 40.2 84.9 39.9 Q89.75 38.25 94.35 37.15 L95.5 36.9 95.6 36.85 96.9 36.65 97.45 36.5 Q105.65 34.85 118.9 33.9 121.25 33.75 132.25 30.9 143.6 27.95 144.9 26.9 L144.9 26.75 Q151.7 26.2 156.35 23.8 L159.45 21.75 Q161.4 21.15 164.8 18.65 L170.15 14.4 Q172.0 13.0 175.1 8.85 L179.4 3.15 Q182.65 -0.45 184.9 -8.25 186.9 -15.2 186.9 -20.5 186.9 -29.1 179.55 -38.5 L179.3 -38.8 Q176.95 -41.8 174.3 -44.3 L171.9 -46.85 170.95 -47.2 Q167.4 -50.05 163.4 -52.25 153.75 -57.55 147.25 -55.7 L146.35 -55.4 Q144.3 -54.65 142.9 -53.05 L142.9 -53.5 Q142.9 -60.75 150.35 -61.4 157.25 -61.95 166.8 -56.95 176.6 -51.75 183.2 -43.7 190.65 -34.55 190.65 -25.25 190.65 -24.0 191.8 -17.15 L192.9 -9.1 Q192.9 -2.65 183.75 8.25 180.55 12.0 169.4 23.15 165.9 26.65 151.2 30.2 134.1 34.35 132.4 35.15 130.8 35.9 120.9 38.4 110.9 40.9 107.4 41.4 107.05 41.4 104.7 42.9 L101.4 45.15 100.45 44.8 Q99.35 44.15 97.9 44.15 97.4 44.15 92.75 45.7 M-3.0 -32.9 Q-2.6 -34.05 -0.3 -36.75 2.75 -40.4 6.5 -43.4 17.1 -51.9 23.15 -47.6 40.2 -40.2 47.65 -33.85 50.85 -31.15 54.05 -15.9 56.9 -2.4 56.9 4.4 56.9 18.85 52.6 26.9 50.85 30.15 46.95 35.35 L38.65 46.4 Q33.4 53.6 16.85 66.4 L8.35 72.65 8.3 72.65 7.8 72.8 7.5 72.9 Q3.6 74.2 1.65 74.4 L-3.9 75.0 -6.0 75.2 Q4.9 66.7 12.4 54.15 19.9 41.65 23.05 26.3 24.9 17.45 24.9 11.0 24.9 3.35 21.4 -5.45 17.4 -15.45 10.3 -22.9 5.75 -27.7 0.5 -30.95 L-2.6 -32.7 -3.0 -32.9 M84.9 -11.6 L87.15 -9.85 Q93.3 -5.55 100.4 3.15 109.95 14.55 116.85 19.35 124.3 24.55 132.95 26.2 115.6 28.05 89.8 34.4 72.8 38.6 63.65 42.15 L69.15 36.4 Q78.45 24.65 82.1 11.75 84.85 1.95 84.9 -11.6 M139.5 81.0 L137.2 81.9 Q122.3 88.0 119.65 89.4 116.75 90.95 106.5 97.8 L106.25 98.0 105.75 98.0 93.9 99.95 93.8 99.95 94.3 99.25 94.75 98.55 94.8 98.55 96.3 97.5 95.75 97.1 103.8 84.9 Q104.75 82.75 104.9 79.7 L104.9 70.9 Q104.9 63.65 104.35 61.5 102.85 55.45 96.9 52.15 L92.9 50.1 Q104.0 52.0 111.9 58.65 114.35 60.7 118.6 65.7 122.35 70.1 125.65 72.4 L134.15 77.95 139.5 81.0 M249.4 74.15 Q253.3 69.55 256.3 65.15 L262.1 70.9 269.9 77.8 Q277.9 85.4 277.9 92.9 L278.05 96.75 Q278.05 98.9 277.45 100.2 275.75 103.75 267.4 105.4 245.05 109.85 215.65 111.6 L206.6 112.2 208.4 110.15 216.05 104.05 223.4 98.15 237.45 85.65 Q246.25 77.9 249.4 74.15 M100.7 67.35 L100.9 71.15 100.6 78.5 Q100.2 81.6 99.5 83.1 98.1 85.95 89.65 98.9 87.9 101.85 82.4 106.1 74.8 112.05 73.65 113.15 67.15 119.25 39.4 121.85 L2.9 123.4 Q-32.45 123.4 -54.3 118.95 -69.2 115.9 -83.1 109.15 -99.4 101.2 -105.6 99.35 -120.45 94.9 -143.95 94.9 -153.9 94.9 -160.35 95.3 L-156.55 94.05 Q-138.25 88.4 -117.45 88.4 -107.25 88.4 -91.4 90.65 L-78.25 92.25 -77.65 92.3 -72.0 92.75 -67.75 92.9 -66.85 92.9 -66.6 92.9 -66.45 92.9 -59.7 92.75 -56.95 93.9 Q-33.15 100.35 -20.35 103.1 -5.0 106.4 3.3 106.4 L23.4 103.4 Q41.0 100.4 45.9 100.4 46.95 100.4 49.2 99.6 L54.4 99.9 55.0 99.9 58.55 99.5 60.2 99.1 60.75 98.95 64.4 97.15 65.5 96.35 65.55 96.35 Q68.5 95.2 70.15 93.9 71.7 92.55 77.5 88.45 82.2 85.15 84.4 82.65 85.6 81.25 86.9 76.9 88.5 71.55 89.35 69.85 92.7 63.1 100.7 67.35 M57.95 74.4 L57.9 74.8 57.9 74.4 57.95 74.4 M57.9 75.25 Q57.95 76.4 58.3 76.65 L58.65 76.9 Q66.6 77.65 68.25 79.0 68.9 79.5 68.9 82.4 L68.85 83.05 68.7 83.85 Q67.1 84.9 65.4 84.9 61.35 84.9 59.65 82.95 58.7 81.85 57.9 79.65 L57.9 75.25 M7.35 36.15 Q7.9 36.35 7.9 37.9 7.9 39.3 -10.6 61.9 -23.8 77.9 -66.45 77.9 -91.05 77.9 -101.2 77.05 L-107.2 76.35 -107.5 76.3 Q-108.85 76.9 -110.45 76.9 -120.7 76.9 -130.4 72.6 -135.45 70.4 -140.2 67.4 L-144.55 64.55 -149.45 61.4 -153.3 59.3 Q-155.3 58.15 -158.95 56.65 L-158.95 55.65 -159.15 55.55 Q-169.75 49.7 -171.95 45.15 -172.9 43.2 -179.05 35.95 -184.9 29.0 -186.2 25.65 -187.1 23.2 -188.1 15.25 L-188.95 6.15 Q-188.95 -1.8 -183.3 -8.0 -178.25 -13.55 -170.95 -15.55 -163.65 -17.55 -158.55 -14.7 -152.95 -11.55 -152.95 -3.6 -152.95 0.7 -153.4 1.6 -153.85 2.55 -155.3 3.7 -156.5 1.5 -157.95 -0.35 -159.85 -2.75 -161.95 -4.3 L-161.95 -4.35 Q-165.7 -7.1 -169.95 -7.1 -179.2 -7.1 -183.2 -2.6 -185.95 0.45 -185.95 5.25 -185.95 16.8 -178.9 24.7 L-178.95 25.25 Q-178.95 29.85 -169.8 37.75 -162.55 44.05 -152.2 50.4 L-147.8 53.0 -146.8 53.55 -143.95 55.15 -141.0 56.7 -140.25 57.05 -139.95 57.2 -139.5 57.45 -123.5 64.25 -122.45 64.6 -122.4 64.65 -122.2 64.8 -121.1 65.35 -117.1 66.3 -109.8 68.15 Q-99.5 70.4 -84.75 71.3 L-84.45 71.55 -82.95 72.65 Q-69.3 72.65 -58.6 72.0 L-58.25 71.95 -41.1 72.05 Q-34.45 72.05 -31.6 71.1 -29.4 70.35 -24.15 66.75 -16.3 61.45 -8.35 56.9 -7.1 56.25 0.15 46.9 5.85 39.5 7.35 36.15 M-196.95 65.25 Q-196.95 69.4 -196.35 70.45 -194.65 73.6 -187.2 76.15 -187.1 76.15 -177.95 80.9 L-172.35 81.5 -167.0 82.5 -131.5 84.65 Q-138.6 85.4 -145.5 86.9 L-155.95 86.9 -163.45 88.1 -167.05 87.9 -167.1 88.55 -176.35 89.4 -200.75 87.95 Q-211.8 86.8 -214.95 85.9 -224.9 82.9 -227.2 80.9 -230.6 77.95 -233.35 74.05 -235.75 70.7 -236.7 68.15 -238.65 63.45 -239.4 60.2 L-236.45 64.15 Q-228.75 72.9 -216.45 72.9 -210.15 72.9 -205.2 70.95 -200.45 69.0 -196.95 65.25 M-34.0 26.05 L-34.1 24.9 -30.1 19.85 -27.95 16.85 -28.65 18.4 Q-30.6 22.55 -34.0 26.05 M-41.0 6.3 Q-40.05 2.3 -37.0 -0.5 -32.6 -4.5 -25.1 -4.85 -19.05 -5.15 -17.55 -0.8 -17.1 0.55 -17.1 6.4 -17.1 10.8 -20.35 17.65 -24.05 25.3 -29.35 26.65 -26.8 23.5 -25.05 19.95 -23.1 15.9 -23.1 13.4 -22.95 12.95 -22.95 12.25 -22.9 10.8 -23.55 9.65 -25.7 5.9 -34.1 5.9 L-34.9 5.9 -41.0 6.3 M-180.95 1.25 Q-180.95 2.3 -181.7 4.6 L-181.95 5.45 -181.95 5.4 Q-181.95 1.95 -181.25 0.95 L-181.2 0.9 -180.9 0.5 -180.95 1.15 -180.95 1.25 M-161.25 2.35 L-161.2 2.4 -160.6 3.8 -160.4 4.2 -160.45 4.1 -161.25 2.35 M-115.75 71.6 L-113.95 72.05 -113.95 71.9 -115.75 71.6 M-214.2 40.8 L-214.7 40.05 -214.8 39.9 Q-217.65 37.9 -227.45 37.9 -237.75 37.9 -241.25 42.4 L-241.8 43.05 -241.95 42.9 Q-244.4 44.8 -244.4 49.3 -244.4 51.55 -243.95 53.4 -243.95 78.3 -223.2 87.45 -208.5 93.9 -175.95 93.9 L-166.65 92.9 -166.35 93.55 -168.95 94.65 Q-173.15 96.55 -176.7 98.5 L-182.65 101.85 -185.95 101.9 -209.15 100.4 -223.95 98.9 Q-225.2 98.7 -230.2 96.6 -235.25 94.45 -235.7 93.9 -237.35 92.0 -241.5 89.7 -245.6 87.4 -247.7 84.9 -248.95 83.4 -251.9 75.2 -254.95 66.55 -254.95 63.5 -254.95 61.1 -252.6 53.35 -250.35 45.8 -249.2 43.9 -247.95 40.8 -246.55 38.8 -244.0 35.0 -239.95 34.15 -228.0 31.45 -219.85 33.4 -212.95 35.1 -212.95 38.4 L-213.0 39.85 -213.45 40.4 -213.85 40.65 -214.2 40.8" fill="#c4c4c4" fill-rule="evenodd" stroke="none"/>
      <path d="M76.5 -46.95 L76.8 -46.1 86.9 -46.1 Q94.0 -48.25 97.75 -54.2 101.0 -61.15 102.65 -64.1 107.55 -72.45 109.9 -75.65 113.05 -79.9 116.4 -81.75 119.75 -83.6 125.35 -84.15 L139.9 -84.6 Q151.35 -84.6 157.55 -81.7 159.5 -80.85 161.1 -79.55 L162.9 -78.1 167.9 -74.65 Q172.15 -71.6 175.65 -69.6 180.9 -66.65 186.6 -59.55 L194.65 -48.35 Q205.3 -33.35 207.2 -25.0 208.0 -21.35 208.05 -16.05 L207.9 -4.5 Q207.9 7.4 206.35 15.35 L200.9 42.4 Q197.55 61.6 186.35 76.6 183.65 80.2 179.05 85.25 L176.45 88.4 174.9 88.4 Q165.1 88.4 147.85 80.2 133.1 73.15 126.9 67.65 L113.0 55.3 Q107.2 50.45 102.85 48.45 98.6 46.5 92.75 45.7 97.4 44.15 97.9 44.15 99.35 44.15 100.45 44.8 L101.4 45.15 104.7 42.9 Q107.05 41.4 107.4 41.4 110.9 40.9 120.9 38.4 130.8 35.9 132.4 35.15 134.1 34.35 151.2 30.2 165.9 26.65 169.4 23.15 180.55 12.0 183.75 8.25 192.9 -2.65 192.9 -9.1 L191.8 -17.15 Q190.65 -24.0 190.65 -25.25 190.65 -34.55 183.2 -43.7 176.6 -51.75 166.8 -56.95 157.25 -61.95 150.35 -61.4 142.9 -60.75 142.9 -53.5 L142.9 -53.05 Q139.9 -49.75 139.9 -42.85 L139.9 -36.85 Q140.9 -31.1 145.9 -31.1 147.55 -31.1 148.25 -31.8 L148.7 -32.5 149.65 -33.3 151.4 -36.1 151.7 -37.6 151.9 -39.1 Q152.4 -40.0 153.75 -40.75 154.9 -41.4 154.9 -41.85 154.55 -42.85 154.6 -43.4 154.6 -44.3 156.4 -45.85 158.65 -47.75 161.3 -48.1 162.05 -48.2 162.45 -48.55 168.45 -45.35 173.85 -38.8 177.95 -33.9 180.55 -28.35 182.9 -23.25 182.9 -20.1 182.9 -13.2 179.9 -6.65 176.95 -0.2 171.05 5.85 L169.4 7.5 165.4 11.1 165.6 9.75 165.4 9.95 Q162.45 13.55 159.6 14.95 L159.5 15.15 Q157.5 18.1 154.15 19.85 149.2 22.4 141.3 22.4 131.4 22.4 124.6 18.95 114.85 14.05 103.65 -0.1 101.75 -2.55 91.45 -12.0 86.9 -16.2 84.65 -20.1 84.3 -24.7 83.45 -26.7 82.2 -29.05 80.9 -31.95 L76.5 -46.95 M74.85 43.75 L73.6 43.75 74.85 43.25 74.85 43.3 74.85 43.75 M95.6 36.85 L97.45 36.5 96.9 36.65 95.6 36.85 M174.3 -44.3 L170.95 -47.2 171.9 -46.85 174.3 -44.3 M8.35 72.65 L16.85 66.4 Q33.4 53.6 38.65 46.4 L46.95 35.35 Q50.85 30.15 52.6 26.9 56.9 18.85 56.9 4.4 56.9 -2.4 54.05 -15.9 50.85 -31.15 47.65 -33.85 40.2 -40.2 23.15 -47.6 17.1 -51.9 6.5 -43.4 2.75 -40.4 -0.3 -36.75 -2.6 -34.05 -3.0 -32.9 -9.55 -36.2 -17.05 -37.3 -16.55 -38.4 -16.2 -39.8 -14.9 -45.4 -14.6 -45.85 -12.05 -49.75 -5.85 -51.8 5.5 -55.6 30.9 -55.6 49.6 -55.6 60.9 -36.35 70.9 -19.35 70.9 3.75 70.9 14.7 70.1 18.0 68.75 23.75 61.9 35.65 L62.85 36.35 Q57.95 41.7 50.2 48.3 L44.05 53.25 43.45 53.55 43.15 54.0 36.4 59.4 27.45 66.05 Q22.2 69.3 16.65 70.4 12.75 71.2 8.35 72.65 M139.5 81.0 L146.85 84.75 Q163.75 92.9 174.9 92.9 210.25 92.9 224.85 49.9 232.9 26.25 232.9 0.0 L232.9 -1.35 Q234.1 -0.75 236.75 -0.2 244.3 1.35 247.4 2.5 262.9 8.3 262.9 26.5 L262.85 35.85 Q262.55 44.15 261.15 48.65 259.6 53.7 255.1 60.05 L246.9 71.15 Q243.3 76.35 235.95 82.95 L223.15 93.65 216.0 98.65 Q211.1 101.95 209.15 103.9 L206.45 106.3 202.9 109.15 199.4 111.65 Q198.35 112.35 198.7 113.0 198.9 113.5 198.35 113.6 L176.4 113.65 Q175.7 113.65 169.5 111.2 161.1 107.85 154.9 105.8 131.25 97.9 110.9 97.9 L106.25 98.0 106.5 97.8 Q116.75 90.95 119.65 89.4 122.3 88.0 137.2 81.9 L139.5 81.0 M94.8 98.55 L95.75 97.1 96.3 97.5 94.8 98.55 M7.35 36.15 L7.9 34.25 Q7.9 32.65 7.35 32.35 L5.9 31.9 Q3.55 33.45 -1.05 41.05 -5.7 48.8 -9.35 51.4 L-22.5 61.5 Q-27.2 65.1 -30.35 66.15 -33.85 67.3 -41.35 67.45 L-63.95 67.4 Q-114.45 67.4 -145.2 51.1 L-138.9 52.4 Q-131.3 53.7 -129.2 54.4 -125.8 55.4 -111.25 57.15 L-91.45 58.9 Q-76.45 58.9 -65.45 50.15 -61.6 47.05 -59.05 43.55 -57.8 41.8 -57.3 40.7 -41.6 39.3 -31.6 29.15 L-29.35 26.65 Q-24.05 25.3 -20.35 17.65 -17.1 10.8 -17.1 6.4 -17.1 0.55 -17.55 -0.8 -19.05 -5.15 -25.1 -4.85 -32.6 -4.5 -37.0 -0.5 -40.05 2.3 -41.0 6.3 L-41.4 6.4 Q-42.1 6.65 -42.1 7.9 -42.1 9.4 -41.7 9.65 L-41.35 9.9 Q-31.4 9.9 -28.3 11.45 -27.1 12.1 -27.1 13.4 -27.1 14.7 -27.95 16.85 L-30.1 19.85 -34.1 24.9 -34.0 26.05 -34.15 26.15 Q-40.05 32.15 -48.7 34.65 -46.45 33.4 -44.95 31.3 -43.1 28.7 -43.1 26.4 -43.1 23.15 -45.1 19.65 -47.0 16.45 -50.85 16.9 -54.85 17.4 -56.95 14.65 L-59.1 11.35 Q-61.25 10.05 -62.0 7.7 -62.5 6.05 -62.3 4.0 L-61.95 2.0 -61.9 1.05 -61.95 0.0 Q-61.95 -4.15 -61.65 -5.55 -61.35 -6.9 -60.25 -7.85 L-57.1 -10.7 -56.75 -10.7 Q-50.95 -15.75 -39.1 -15.0 -34.25 -16.6 -30.6 -16.6 -6.85 -16.6 4.1 0.9 13.35 15.65 13.9 43.4 12.2 47.25 10.1 50.9 0.9 67.0 -14.4 76.2 L-16.8 76.55 Q-17.3 76.75 -16.7 77.5 -36.55 88.4 -66.1 88.4 -74.4 88.4 -90.3 86.15 -106.2 83.9 -117.45 83.9 L-131.5 84.65 -167.0 82.5 -172.35 81.5 -177.95 80.9 Q-187.1 76.15 -187.2 76.15 -194.65 73.6 -196.35 70.45 -196.95 69.4 -196.95 65.25 L-194.7 62.45 Q-189.95 55.55 -189.95 48.9 -189.95 45.05 -191.5 40.35 -193.95 32.85 -199.65 27.1 L-203.45 23.75 -203.4 23.65 -203.7 23.4 -203.25 23.15 Q-202.95 22.95 -202.95 21.4 -202.95 20.45 -204.65 16.95 L-208.45 9.1 Q-213.95 -3.0 -213.95 -11.6 -213.95 -19.55 -209.0 -27.35 -202.5 -37.6 -191.45 -37.6 -177.6 -37.6 -168.15 -34.5 -151.5 -29.0 -148.2 -14.6 -146.6 -6.9 -143.95 -1.1 -142.5 2.1 -142.05 5.45 L-141.65 9.8 Q-141.35 11.55 -139.9 12.15 -138.25 12.9 -133.95 12.9 L-129.65 12.85 Q-130.1 15.1 -130.7 17.15 -135.25 31.4 -149.1 31.4 -156.45 31.4 -162.15 30.0 L-162.35 29.95 Q-172.0 27.55 -177.0 21.15 L-179.1 17.9 Q-178.35 17.8 -178.25 17.55 L-178.2 17.15 Q-177.9 14.4 -176.2 9.85 -174.2 4.4 -172.45 4.4 -170.7 4.4 -163.8 7.15 L-156.95 9.9 Q-155.35 9.9 -154.6 9.05 -154.3 8.7 -153.95 7.65 L-154.0 7.55 -153.95 6.4 -154.95 4.3 -155.3 3.7 Q-153.85 2.55 -153.4 1.6 -152.95 0.7 -152.95 -3.6 -152.95 -11.55 -158.55 -14.7 -163.65 -17.55 -170.95 -15.55 -178.25 -13.55 -183.3 -8.0 -188.95 -1.8 -188.95 6.15 L-188.1 15.25 Q-187.1 23.2 -186.2 25.65 -184.9 29.0 -179.05 35.95 -172.9 43.2 -171.95 45.15 -169.75 49.7 -159.15 55.55 L-158.95 55.65 -158.95 56.65 Q-155.3 58.15 -153.3 59.3 L-149.45 61.4 -144.55 64.55 -140.2 67.4 Q-135.45 70.4 -130.4 72.6 -120.7 76.9 -110.45 76.9 -108.85 76.9 -107.5 76.3 L-107.2 76.35 -101.2 77.05 Q-91.05 77.9 -66.45 77.9 -23.8 77.9 -10.6 61.9 7.9 39.3 7.9 37.9 7.9 36.35 7.35 36.15" fill="#d8d8d8" fill-rule="evenodd" stroke="none"/>
      <path d="M95.8 56.15 L95.35 56.35 95.65 56.0 95.8 56.15 M53.2 57.85 L53.65 58.4 50.95 59.75 53.2 57.85 M43.4 67.9 L46.9 67.9 Q53.05 64.8 57.1 62.9 64.65 59.4 69.9 59.4 L80.4 60.65 90.9 61.9 Q96.5 61.9 98.85 60.65 L98.9 60.65 98.45 59.65 Q100.2 62.85 100.7 67.35 92.7 63.1 89.35 69.85 88.5 71.55 86.9 76.9 85.6 81.25 84.4 82.65 82.2 85.15 77.5 88.45 71.7 92.55 70.15 93.9 68.5 95.2 65.55 96.35 67.55 94.75 69.2 92.45 72.9 87.2 72.9 82.65 72.9 79.0 72.2 77.45 70.1 72.9 62.9 72.9 L59.45 72.95 Q58.15 73.25 57.95 74.4 L57.9 74.4 57.9 74.8 57.9 74.9 57.9 75.1 57.9 75.25 57.9 79.65 Q58.7 81.85 59.65 82.95 61.35 84.9 65.4 84.9 67.1 84.9 68.7 83.85 L68.5 84.6 Q67.9 87.0 66.65 89.05 62.65 95.4 54.05 95.4 42.8 95.4 38.9 90.2 36.9 87.5 36.9 82.25 36.9 78.5 40.05 72.95 41.5 70.35 43.4 67.9 M-59.7 92.75 Q-33.1 91.6 -14.5 80.9 L-14.1 80.9 Q5.85 80.9 24.5 71.55 35.55 66.0 40.4 61.15 L43.45 58.5 Q43.9 59.1 44.9 59.55 41.25 62.55 39.35 64.75 32.9 72.25 32.9 82.5 32.9 97.65 49.2 99.6 46.95 100.4 45.9 100.4 41.0 100.4 23.4 103.4 L3.3 106.4 Q-5.0 106.4 -20.35 103.1 -33.15 100.35 -56.95 93.9 L-59.7 92.75 M-164.35 37.55 L-165.75 36.15 -162.3 37.4 -163.15 37.1 Q-163.8 37.15 -164.35 37.55 M-58.25 71.95 L-58.6 72.0 Q-69.3 72.65 -82.95 72.65 L-84.45 71.55 -84.75 71.3 Q-74.9 71.9 -63.1 71.9 L-58.25 71.95 M-117.1 66.3 L-121.1 65.35 -122.2 64.8 -122.4 64.65 -117.1 66.3 M-52.65 35.6 L-52.65 35.55 -52.6 35.6 -52.65 35.6 M-170.3 -2.6 Q-178.0 -1.1 -180.95 1.25 L-180.95 1.15 -180.9 0.5 Q-178.35 -2.55 -170.3 -2.6 M-163.45 88.1 L-167.1 88.55 -167.05 87.9 -163.45 88.1 M-115.75 71.6 L-113.95 71.9 -113.95 72.05 -115.75 71.6 M-272.8 78.35 L-272.4 67.75 Q-271.85 56.2 -269.7 48.3 -263.35 24.4 -241.45 24.4 -224.25 24.4 -212.95 31.9 -208.65 34.75 -206.15 38.15 -203.95 41.15 -203.95 43.25 L-206.45 49.55 Q-208.95 55.7 -208.95 57.9 L-208.25 62.45 Q-207.4 64.7 -205.65 65.85 -212.1 68.65 -221.95 68.65 -226.1 68.65 -232.25 62.15 -238.95 55.05 -238.95 48.25 -240.0 46.6 -239.0 45.2 -237.15 42.4 -227.1 42.4 -219.35 42.4 -217.6 43.65 L-216.6 44.5 Q-216.0 44.9 -214.45 44.9 -212.85 44.9 -212.35 44.05 L-211.95 42.65 Q-213.1 42.25 -214.2 40.8 L-213.85 40.65 -213.45 40.4 -213.0 39.85 -212.95 38.4 Q-212.95 35.1 -219.85 33.4 -228.0 31.45 -239.95 34.15 -244.0 35.0 -246.55 38.8 -247.95 40.8 -249.2 43.9 -250.35 45.8 -252.6 53.35 -254.95 61.1 -254.95 63.5 -254.95 66.55 -251.9 75.2 -248.95 83.4 -247.7 84.9 -245.6 87.4 -241.5 89.7 -237.35 92.0 -235.7 93.9 -235.25 94.45 -230.2 96.6 -225.2 98.7 -223.95 98.9 L-209.15 100.4 -185.95 101.9 -182.65 101.85 -191.7 107.9 Q-199.1 113.9 -202.45 115.75 -209.15 119.4 -216.95 119.4 -227.9 119.4 -238.6 114.65 -249.6 109.8 -258.25 100.9 -267.9 90.95 -272.8 78.35" fill="#d7d7d7" fill-rule="evenodd" stroke="none"/>
      <path d="M76.5 -46.95 L76.25 -47.8 75.7 -49.5 74.5 -53.2 Q71.9 -62.65 71.9 -76.85 L71.8 -83.45 Q71.8 -86.4 72.5 -88.45 74.0 -93.0 82.9 -102.35 87.75 -107.55 99.45 -113.55 119.1 -123.6 140.9 -123.6 159.25 -123.6 179.45 -109.95 203.25 -93.85 218.9 -64.6 228.9 -45.9 228.9 -0.1 228.9 6.5 227.95 15.4 226.2 32.0 221.85 45.65 210.1 82.85 183.25 87.7 L176.45 88.4 179.05 85.25 Q183.65 80.2 186.35 76.6 197.55 61.6 200.9 42.4 L206.35 15.35 Q207.9 7.4 207.9 -4.5 L208.05 -16.05 Q208.0 -21.35 207.2 -25.0 205.3 -33.35 194.65 -48.35 L186.6 -59.55 Q180.9 -66.65 175.65 -69.6 172.15 -71.6 167.9 -74.65 L162.9 -78.1 161.1 -79.55 Q159.5 -80.85 157.55 -81.7 151.35 -84.6 139.9 -84.6 L125.35 -84.15 Q119.75 -83.6 116.4 -81.75 113.05 -79.9 109.9 -75.65 107.55 -72.45 102.65 -64.1 101.0 -61.15 97.75 -54.2 94.0 -48.25 86.9 -46.1 L76.8 -46.1 76.5 -46.95 M148.9 -33.1 Q145.05 -34.7 144.2 -37.05 143.9 -37.9 143.9 -42.35 143.35 -44.85 143.85 -47.1 144.9 -51.6 150.4 -51.6 L151.35 -51.55 153.45 -51.4 Q157.7 -50.9 161.65 -48.95 L161.3 -48.1 Q158.65 -47.75 156.4 -45.85 154.6 -44.3 154.6 -43.4 154.55 -42.85 154.9 -41.85 154.9 -41.4 153.75 -40.75 152.4 -40.0 151.9 -39.1 L151.7 -37.6 151.4 -36.1 149.65 -33.3 148.9 -33.1 M62.85 36.35 L61.9 35.65 Q68.75 23.75 70.1 18.0 70.9 14.7 70.9 3.75 70.9 -19.35 60.9 -36.35 49.6 -55.6 30.9 -55.6 5.5 -55.6 -5.85 -51.8 -12.05 -49.75 -14.6 -45.85 -14.9 -45.4 -16.2 -39.8 -16.55 -38.4 -17.05 -37.3 L-17.35 -37.35 -20.3 -37.65 -22.1 -37.75 -22.1 -37.8 Q-29.4 -38.15 -37.6 -36.6 -44.25 -35.35 -50.0 -33.5 -49.8 -37.9 -46.7 -42.75 -43.75 -47.4 -38.85 -51.6 -30.15 -59.1 -26.45 -61.8 -21.25 -65.55 -16.45 -67.15 -11.65 -68.75 -4.2 -69.25 1.3 -69.6 15.05 -69.6 35.15 -69.6 45.8 -66.15 63.65 -60.35 71.9 -43.35 L74.55 -37.9 78.9 -23.35 80.85 -16.85 80.9 -12.6 Q80.9 -0.4 76.85 11.8 75.25 16.55 73.2 20.85 L73.2 20.9 72.25 22.75 64.4 34.55 63.9 35.1 63.65 35.4 62.85 36.35 M95.8 56.15 L95.85 56.15 96.55 56.95 97.65 58.4 97.9 58.75 98.45 59.65 98.9 60.65 98.85 60.65 Q96.5 61.9 90.9 61.9 L80.4 60.65 69.9 59.4 Q64.65 59.4 57.1 62.9 53.05 64.8 46.9 67.9 L43.4 67.9 Q45.6 64.95 48.4 62.15 L50.95 59.75 53.65 58.4 53.2 57.85 Q63.35 49.6 73.9 49.4 L74.4 49.4 76.1 49.4 Q89.45 49.8 95.65 56.0 L95.35 56.35 95.8 56.15 M-154.6 9.05 Q-155.35 9.9 -156.95 9.9 L-163.8 7.15 Q-170.7 4.4 -172.45 4.4 -174.2 4.4 -176.2 9.85 -177.9 14.4 -178.2 17.15 L-178.25 17.55 Q-178.35 17.8 -179.1 17.9 -181.95 12.55 -181.95 5.45 L-181.7 4.6 Q-180.95 2.3 -180.95 1.25 -178.0 -1.1 -170.3 -2.6 L-169.95 -2.6 Q-164.05 -2.6 -162.85 -1.0 -162.4 1.15 -161.25 2.35 L-160.45 4.1 -159.55 6.15 Q-158.35 8.9 -155.95 8.9 L-154.65 8.8 -154.6 9.05 M-129.65 12.85 L-133.95 12.9 Q-138.25 12.9 -139.9 12.15 -141.35 11.55 -141.65 9.8 L-142.05 5.45 Q-142.5 2.1 -143.95 -1.1 -146.6 -6.9 -148.2 -14.6 -151.5 -29.0 -168.15 -34.5 -177.6 -37.6 -191.45 -37.6 -202.5 -37.6 -209.0 -27.35 -213.95 -19.55 -213.95 -11.6 -213.95 -3.0 -208.45 9.1 L-204.65 16.95 Q-202.95 20.45 -202.95 21.4 -202.95 22.95 -203.25 23.15 L-203.7 23.4 -203.4 23.65 -203.45 23.75 Q-206.1 21.65 -209.2 19.95 -217.55 15.35 -229.1 13.6 L-228.95 12.8 -228.95 12.65 Q-235.95 -5.6 -235.95 -11.75 -235.95 -18.05 -231.1 -25.5 -226.45 -32.75 -218.5 -39.1 -211.6 -44.6 -204.55 -48.0 L-203.9 -48.3 -203.35 -48.55 -202.95 -48.75 -201.2 -49.5 Q-199.2 -50.55 -197.0 -51.0 L-197.0 -51.05 -196.9 -51.05 -195.1 -51.6 -193.95 -51.9 Q-187.55 -53.6 -180.95 -53.6 -168.9 -53.6 -154.75 -42.8 -144.45 -34.9 -139.95 -28.1 -130.3 -13.15 -129.4 -10.45 -128.75 -8.45 -128.75 -5.45 L-128.95 2.65 -129.0 7.3 -129.05 8.05 -129.05 8.5 -129.55 12.3 -129.65 12.85 M13.9 43.4 Q13.35 15.65 4.1 0.9 -6.85 -16.6 -30.6 -16.6 -34.25 -16.6 -39.1 -15.0 -50.95 -15.75 -56.75 -10.7 L-57.1 -10.7 -60.25 -7.85 Q-61.35 -6.9 -61.65 -5.55 -61.95 -4.15 -61.95 0.0 L-61.9 1.05 -61.95 2.0 -62.3 4.0 Q-62.5 6.05 -62.0 7.7 -61.25 10.05 -59.1 11.35 L-56.95 14.65 Q-54.85 17.4 -50.85 16.9 -47.0 16.45 -45.1 19.65 -43.1 23.15 -43.1 26.4 -43.1 28.7 -44.95 31.3 -46.45 33.4 -48.7 34.65 L-49.4 34.85 -50.05 35.05 -51.75 35.4 -52.35 35.55 -52.6 35.6 -52.65 35.55 -52.65 35.6 -62.1 36.4 Q-67.05 36.4 -70.9 35.25 L-71.75 35.4 Q-72.75 35.4 -73.45 34.85 -75.65 34.65 -76.05 33.3 L-76.05 32.95 -77.75 31.7 Q-80.85 29.1 -81.95 25.65 -82.75 23.05 -83.4 19.2 -83.95 15.65 -83.95 13.65 -83.95 5.0 -83.5 3.15 -82.65 -0.6 -77.45 -9.6 -76.35 -11.45 -72.6 -14.85 -67.95 -19.05 -62.1 -22.55 -47.05 -31.6 -31.05 -32.5 L-27.85 -32.6 -27.6 -32.6 -21.7 -32.35 Q1.65 -30.45 13.1 -12.85 17.4 -6.25 19.5 1.85 20.9 7.25 20.9 10.75 20.9 17.0 19.6 24.35 18.55 30.05 16.9 35.35 15.6 39.5 13.9 43.4 M-57.3 40.7 Q-57.8 41.8 -59.05 43.55 -61.6 47.05 -65.45 50.15 -76.45 58.9 -91.45 58.9 L-111.25 57.15 Q-125.8 55.4 -129.2 54.4 -131.3 53.7 -138.9 52.4 L-145.2 51.1 Q-149.65 48.75 -153.65 46.05 -159.45 42.15 -164.35 37.55 -163.8 37.15 -163.15 37.1 L-162.3 37.4 Q-161.9 37.6 -161.55 37.75 L-158.2 39.4 -155.0 40.55 -154.55 40.7 -154.5 40.7 Q-145.6 43.4 -131.2 44.3 -121.9 44.9 -100.45 44.9 -74.35 44.9 -66.9 42.9 -64.35 42.2 -63.9 41.25 L-63.9 40.9 -62.45 40.9 -62.1 40.9 -57.3 40.7 M-272.8 78.35 L-274.2 74.4 -276.5 65.4 Q-277.95 57.7 -277.95 49.15 -277.95 44.6 -277.1 42.7 L-272.95 32.65 -271.9 29.4 Q-270.7 26.5 -268.55 24.3 -261.95 17.4 -246.95 17.4 -214.35 17.4 -201.25 31.4 -193.95 39.2 -193.95 49.0 -193.95 55.15 -197.75 59.9 L-200.1 62.4 Q-202.45 64.45 -205.65 65.85 -207.4 64.7 -208.25 62.45 L-208.95 57.9 Q-208.95 55.7 -206.45 49.55 L-203.95 43.25 Q-203.95 41.15 -206.15 38.15 -208.65 34.75 -212.95 31.9 -224.25 24.4 -241.45 24.4 -263.35 24.4 -269.7 48.3 -271.85 56.2 -272.4 67.75 L-272.8 78.35" fill="#e7e7e7" fill-rule="evenodd" stroke="none"/>
    </g>
  </defs>
</svg>
