<?xml version="1.0" encoding="UTF-8" standalone="no"?>
<svg xmlns:ffdec="https://www.free-decompiler.com/flash" xmlns:xlink="http://www.w3.org/1999/xlink" ffdec:objectType="text" height="19.0px" width="245.0px" xmlns="http://www.w3.org/2000/svg">
  <g transform="matrix(1.0, 0.0, 0.0, 1.0, 28.0, -4.0)">
    <g transform="matrix(1.0, 0.0, 0.0, 1.0, -30.0, 0.0)">
      <use fill="#ffffff" height="19.0" transform="matrix(0.0215, 0.0, 0.0, 0.0215, 0.0, 21.0)" width="245.0" xlink:href="#font_QTypeSquare-Medium_22pt_st_C0"/>
      <use fill="#ffffff" height="19.0" transform="matrix(0.0215, 0.0, 0.0, 0.0215, 19.0, 21.0)" width="245.0" xlink:href="#font_QTypeSquare-Medium_22pt_st_l0"/>
      <use fill="#ffffff" height="19.0" transform="matrix(0.0215, 0.0, 0.0, 0.0215, 28.0, 21.0)" width="245.0" xlink:href="#font_QTypeSquare-Medium_22pt_st_i0"/>
      <use fill="#ffffff" height="19.0" transform="matrix(0.0215, 0.0, 0.0, 0.0215, 35.0, 21.0)" width="245.0" xlink:href="#font_QTypeSquare-Medium_22pt_st_c0"/>
      <use fill="#ffffff" height="19.0" transform="matrix(0.0215, 0.0, 0.0, 0.0215, 51.0, 21.0)" width="245.0" xlink:href="#font_QTypeSquare-Medium_22pt_st_k0"/>
      <use fill="#ffffff" height="19.0" transform="matrix(0.0215, 0.0, 0.0, 0.0215, 73.0, 21.0)" width="245.0" xlink:href="#font_QTypeSquare-Medium_22pt_st_H0"/>
      <use fill="#ffffff" height="19.0" transform="matrix(0.0215, 0.0, 0.0, 0.0215, 92.0, 21.0)" width="245.0" xlink:href="#font_QTypeSquare-Medium_22pt_st_e0"/>
      <use fill="#ffffff" height="19.0" transform="matrix(0.0215, 0.0, 0.0, 0.0215, 108.0, 21.0)" width="245.0" xlink:href="#font_QTypeSquare-Medium_22pt_st_r0"/>
      <use fill="#ffffff" height="19.0" transform="matrix(0.0215, 0.0, 0.0, 0.0215, 120.0, 21.0)" width="245.0" xlink:href="#font_QTypeSquare-Medium_22pt_st_e0"/>
      <use fill="#ffffff" height="19.0" transform="matrix(0.0215, 0.0, 0.0, 0.0215, 144.0, 21.0)" width="245.0" xlink:href="#font_QTypeSquare-Medium_22pt_st_t0"/>
      <use fill="#ffffff" height="19.0" transform="matrix(0.0215, 0.0, 0.0, 0.0215, 155.0, 21.0)" width="245.0" xlink:href="#font_QTypeSquare-Medium_22pt_st_o0"/>
      <use fill="#ffffff" height="19.0" transform="matrix(0.0215, 0.0, 0.0, 0.0215, 179.0, 21.0)" width="245.0" xlink:href="#font_QTypeSquare-Medium_22pt_st_S0"/>
      <use fill="#ffffff" height="19.0" transform="matrix(0.0215, 0.0, 0.0, 0.0215, 198.0, 21.0)" width="245.0" xlink:href="#font_QTypeSquare-Medium_22pt_st_t0"/>
      <use fill="#ffffff" height="19.0" transform="matrix(0.0215, 0.0, 0.0, 0.0215, 209.0, 21.0)" width="245.0" xlink:href="#font_QTypeSquare-Medium_22pt_st_a0"/>
      <use fill="#ffffff" height="19.0" transform="matrix(0.0215, 0.0, 0.0, 0.0215, 225.0, 21.0)" width="245.0" xlink:href="#font_QTypeSquare-Medium_22pt_st_r0"/>
      <use fill="#ffffff" height="19.0" transform="matrix(0.0215, 0.0, 0.0, 0.0215, 237.0, 21.0)" width="245.0" xlink:href="#font_QTypeSquare-Medium_22pt_st_t0"/>
    </g>
  </g>
  <defs>
    <g id="font_QTypeSquare-Medium_22pt_st_C0">
      <path d="M186.2 -651.65 L651.65 -651.65 651.65 -605.1 744.75 -605.1 744.75 -512.0 791.25 -512.0 791.25 -465.45 605.1 -465.45 605.1 -512.0 232.75 -512.0 232.75 -93.1 605.1 -93.1 605.1 -139.65 791.25 -139.65 791.25 -93.1 744.75 -93.1 744.75 0.0 651.65 0.0 651.65 46.55 186.2 46.55 186.2 0.0 139.65 0.0 139.65 -46.55 93.1 -46.55 93.1 -558.55 139.65 -558.55 139.65 -605.1 186.2 -605.1 186.2 -651.65" fill-rule="evenodd" stroke="none"/>
    </g>
    <g id="font_QTypeSquare-Medium_22pt_st_l0">
      <path d="M232.75 -698.2 L232.75 -93.1 418.9 -93.1 418.9 46.55 186.2 46.55 186.2 0.0 139.65 0.0 139.65 -46.55 93.1 -46.55 93.1 -698.2 232.75 -698.2" fill-rule="evenodd" stroke="none"/>
    </g>
    <g id="font_QTypeSquare-Medium_22pt_st_i0">
      <path d="M232.75 -512.0 L232.75 46.55 93.1 46.55 93.1 -512.0 232.75 -512.0 M232.75 -744.75 L232.75 -605.1 93.1 -605.1 93.1 -744.75 232.75 -744.75" fill-rule="evenodd" stroke="none"/>
    </g>
    <g id="font_QTypeSquare-Medium_22pt_st_c0">
      <path d="M558.55 -465.45 L605.1 -465.45 605.1 -418.9 651.65 -418.9 651.65 -325.8 512.0 -325.8 512.0 -372.35 232.75 -372.35 232.75 -93.1 512.0 -93.1 512.0 -139.65 651.65 -139.65 651.65 -46.55 605.1 -46.55 605.1 0.0 558.55 0.0 558.55 46.55 186.2 46.55 186.2 0.0 139.65 0.0 139.65 -46.55 93.1 -46.55 93.1 -418.9 139.65 -418.9 139.65 -465.45 186.2 -465.45 186.2 -512.0 558.55 -512.0 558.55 -465.45" fill-rule="evenodd" stroke="none"/>
    </g>
    <g id="font_QTypeSquare-Medium_22pt_st_k0">
      <path d="M372.35 -372.35 L372.35 -418.9 418.9 -418.9 418.9 -465.45 465.45 -465.45 465.45 -512.0 651.65 -512.0 651.65 -465.45 558.55 -465.45 558.55 -372.35 512.0 -372.35 512.0 -325.8 465.45 -325.8 465.45 -279.25 418.9 -279.25 418.9 -186.2 465.45 -186.2 465.45 -139.65 512.0 -139.65 512.0 -93.1 558.55 -93.1 558.55 -46.55 605.1 -46.55 605.1 0.0 651.65 0.0 651.65 46.55 465.45 46.55 465.45 0.0 418.9 0.0 418.9 -46.55 372.35 -46.55 372.35 -93.1 325.8 -93.1 325.8 -139.65 279.25 -139.65 279.25 -186.2 232.75 -186.2 232.75 46.55 93.1 46.55 93.1 -698.2 232.75 -698.2 232.75 -279.25 279.25 -279.25 279.25 -325.8 325.8 -325.8 325.8 -372.35 372.35 -372.35" fill-rule="evenodd" stroke="none"/>
    </g>
    <g id="font_QTypeSquare-Medium_22pt_st_H0">
      <path d="M232.75 -372.35 L651.65 -372.35 651.65 -651.65 791.25 -651.65 791.25 46.55 651.65 46.55 651.65 -232.75 232.75 -232.75 232.75 46.55 93.1 46.55 93.1 -651.65 232.75 -651.65 232.75 -372.35" fill-rule="evenodd" stroke="none"/>
    </g>
    <g id="font_QTypeSquare-Medium_22pt_st_e0">
      <path d="M512.0 -279.25 L512.0 -372.35 232.75 -372.35 232.75 -279.25 512.0 -279.25 M558.55 -465.45 L605.1 -465.45 605.1 -418.9 651.65 -418.9 651.65 -186.2 232.75 -186.2 232.75 -93.1 512.0 -93.1 512.0 -139.65 651.65 -139.65 651.65 -46.55 605.1 -46.55 605.1 0.0 558.55 0.0 558.55 46.55 186.2 46.55 186.2 0.0 139.65 0.0 139.65 -46.55 93.1 -46.55 93.1 -418.9 139.65 -418.9 139.65 -465.45 186.2 -465.45 186.2 -512.0 558.55 -512.0 558.55 -465.45" fill-rule="evenodd" stroke="none"/>
    </g>
    <g id="font_QTypeSquare-Medium_22pt_st_r0">
      <path d="M465.45 -465.45 L512.0 -465.45 512.0 -418.9 558.55 -418.9 558.55 -325.8 418.9 -325.8 418.9 -372.35 232.75 -372.35 232.75 46.55 93.1 46.55 93.1 -512.0 465.45 -512.0 465.45 -465.45" fill-rule="evenodd" stroke="none"/>
    </g>
    <g id="font_QTypeSquare-Medium_22pt_st_t0">
      <path d="M418.9 -372.35 L232.75 -372.35 232.75 -93.1 465.45 -93.1 465.45 46.55 186.2 46.55 186.2 0.0 139.65 0.0 139.65 -46.55 93.1 -46.55 93.1 -372.35 46.55 -372.35 46.55 -512.0 93.1 -512.0 93.1 -651.65 232.75 -651.65 232.75 -512.0 418.9 -512.0 418.9 -372.35" fill-rule="evenodd" stroke="none"/>
    </g>
    <g id="font_QTypeSquare-Medium_22pt_st_o0">
      <path d="M512.0 -93.1 L512.0 -372.35 232.75 -372.35 232.75 -93.1 512.0 -93.1 M558.55 -465.45 L605.1 -465.45 605.1 -418.9 651.65 -418.9 651.65 -46.55 605.1 -46.55 605.1 0.0 558.55 0.0 558.55 46.55 186.2 46.55 186.2 0.0 139.65 0.0 139.65 -46.55 93.1 -46.55 93.1 -418.9 139.65 -418.9 139.65 -465.45 186.2 -465.45 186.2 -512.0 558.55 -512.0 558.55 -465.45" fill-rule="evenodd" stroke="none"/>
    </g>
    <g id="font_QTypeSquare-Medium_22pt_st_S0">
      <path d="M186.2 -651.65 L698.2 -651.65 698.2 -605.1 744.75 -605.1 744.75 -558.55 791.25 -558.55 791.25 -465.45 651.65 -465.45 651.65 -512.0 232.75 -512.0 232.75 -372.35 698.2 -372.35 698.2 -325.8 744.75 -325.8 744.75 -279.25 791.25 -279.25 791.25 -46.55 744.75 -46.55 744.75 0.0 698.2 0.0 698.2 46.55 186.2 46.55 186.2 0.0 139.65 0.0 139.65 -46.55 93.1 -46.55 93.1 -139.65 232.75 -139.65 232.75 -93.1 651.65 -93.1 651.65 -232.75 186.2 -232.75 186.2 -279.25 139.65 -279.25 139.65 -325.8 93.1 -325.8 93.1 -558.55 139.65 -558.55 139.65 -605.1 186.2 -605.1 186.2 -651.65" fill-rule="evenodd" stroke="none"/>
    </g>
    <g id="font_QTypeSquare-Medium_22pt_st_a0">
      <path d="M512.0 -93.1 L512.0 -372.35 232.75 -372.35 232.75 -93.1 512.0 -93.1 M139.65 -418.9 L139.65 -465.45 186.2 -465.45 186.2 -512.0 651.65 -512.0 651.65 46.55 186.2 46.55 186.2 0.0 139.65 0.0 139.65 -46.55 93.1 -46.55 93.1 -418.9 139.65 -418.9" fill-rule="evenodd" stroke="none"/>
    </g>
  </defs>
</svg>
