<?xml version="1.0" encoding="UTF-8" standalone="no"?>
<svg xmlns:ffdec="https://www.free-decompiler.com/flash" xmlns:xlink="http://www.w3.org/1999/xlink" ffdec:objectType="text" height="16.9px" width="46.8px" xmlns="http://www.w3.org/2000/svg">
  <g transform="matrix(1.0, 0.0, 0.0, 1.0, -48.6, 2.0)">
    <g transform="matrix(1.0, 0.0, 0.0, 1.0, 48.6, -2.0)">
      <use fill="#cc9d3e" height="16.9" transform="matrix(0.0098, 0.0, 0.0, 0.0098, 3.2, 9.65)" width="46.8" xlink:href="#font_Lithos_Pro_Regular_W0"/>
      <use fill="#cc9d3e" height="16.9" transform="matrix(0.0098, 0.0, 0.0, 0.0098, 14.85, 9.65)" width="46.8" xlink:href="#font_Lithos_Pro_Regular_h0"/>
      <use fill="#cc9d3e" height="16.9" transform="matrix(0.0098, 0.0, 0.0, 0.0098, 24.05, 9.65)" width="46.8" xlink:href="#font_Lithos_Pro_Regular_o0"/>
      <use fill="#cc9d3e" height="16.9" transform="matrix(0.0098, 0.0, 0.0, 0.0098, 30.75, 9.65)" width="46.8" xlink:href="#font_Lithos_Pro_Regular_a0"/>
      <use fill="#cc9d3e" height="16.9" transform="matrix(0.0098, 0.0, 0.0, 0.0098, 39.45, 9.65)" width="46.8" xlink:href="#font_Lithos_Pro_Regular_.0"/>
    </g>
  </g>
  <defs>
    <g id="font_Lithos_Pro_Regular_W0">
      <path d="M898.0 -726.0 L898.0 -726.0 1107.0 -644.0 Q1102.0 -634.0 1079.5 -587.0 1057.5 -540.0 1025.0 -470.5 992.0 -400.5 955.5 -322.5 918.5 -244.0 884.0 -171.5 850.0 -98.5 824.5 -45.5 798.5 7.5 788.5 26.5 L778.0 26.5 Q756.5 -2.0 724.5 -46.0 692.5 -90.0 658.0 -138.0 623.5 -186.5 595.0 -227.0 566.0 -267.5 551.0 -289.0 526.0 -254.0 493.5 -206.5 460.5 -159.0 426.0 -109.5 391.5 -59.5 362.0 -17.0 332.5 25.5 314.5 51.0 L304.0 51.0 Q293.5 31.0 271.5 -20.0 249.5 -71.0 220.5 -141.0 191.5 -211.0 159.5 -288.5 127.5 -366.0 98.0 -439.0 68.0 -512.5 44.5 -570.0 20.5 -627.5 8.0 -657.5 L225.0 -737.5 Q236.0 -701.5 250.5 -654.0 265.0 -606.0 281.0 -554.5 297.0 -503.0 311.5 -456.0 326.5 -409.0 338.0 -374.5 349.0 -339.5 354.0 -325.0 363.0 -341.0 392.0 -387.0 420.5 -433.5 462.0 -500.5 503.5 -567.5 551.0 -646.0 L561.0 -646.0 Q629.5 -541.5 683.5 -464.5 737.5 -387.5 766.0 -343.5 L769.0 -343.5 Q775.5 -361.0 788.5 -399.0 801.5 -437.0 817.5 -485.5 833.5 -533.5 849.5 -582.0 865.5 -630.5 878.5 -669.0 891.5 -707.5 898.0 -726.0" fill-rule="evenodd" stroke="none"/>
    </g>
    <g id="font_Lithos_Pro_Regular_h0">
      <path d="M323.5 0.0 L96.5 0.0 Q97.0 -12.0 97.0 -40.0 97.5 -67.5 97.5 -103.0 98.0 -138.0 98.0 -172.5 98.5 -206.5 98.5 -231.5 98.5 -256.5 98.5 -264.0 L98.5 -358.0 Q98.5 -363.5 98.5 -389.0 98.0 -414.5 97.5 -450.0 97.5 -486.0 97.0 -522.0 96.0 -558.0 95.5 -584.5 95.0 -611.0 94.5 -618.5 L324.5 -618.5 Q324.0 -611.0 323.0 -582.5 322.0 -554.0 321.5 -518.0 320.5 -482.5 320.0 -454.0 319.5 -425.5 319.5 -418.5 L319.5 -388.0 544.0 -404.0 544.0 -437.0 Q544.0 -443.5 543.5 -468.5 543.5 -494.0 543.0 -526.0 542.0 -557.5 541.5 -584.0 540.5 -610.0 540.0 -618.5 L769.0 -618.5 Q768.5 -611.0 768.0 -582.5 767.5 -553.5 767.0 -514.5 766.5 -475.0 766.0 -436.0 765.5 -396.5 765.5 -368.0 765.0 -339.5 765.0 -332.5 L765.0 -245.5 Q765.0 -241.5 765.0 -217.5 765.5 -193.5 766.0 -159.0 766.0 -125.0 766.5 -90.5 767.5 -56.0 768.0 -31.0 768.5 -6.0 769.0 0.0 L540.0 0.0 Q540.5 -12.0 541.0 -39.5 541.5 -67.0 542.5 -98.5 543.0 -130.5 543.5 -155.5 544.0 -180.5 544.0 -187.5 L544.0 -247.5 319.5 -231.5 319.5 -206.0 Q319.5 -190.0 320.0 -159.5 320.5 -129.5 321.0 -95.5 322.0 -62.0 322.5 -35.0 323.0 -8.5 323.5 0.0" fill-rule="evenodd" stroke="none"/>
    </g>
    <g id="font_Lithos_Pro_Regular_o0">
      <path d="M409.5 -127.0 L409.5 -127.0 Q482.0 -127.0 524.0 -175.0 565.5 -223.5 566.5 -319.5 566.0 -403.0 531.5 -446.5 496.5 -490.5 432.5 -490.5 382.0 -490.0 347.5 -463.5 313.0 -437.5 295.5 -393.5 277.5 -350.0 277.5 -297.0 278.0 -239.5 296.0 -202.0 313.5 -164.0 343.5 -145.5 373.5 -127.0 409.5 -127.0 M399.5 14.5 L399.5 14.5 Q306.0 13.5 237.5 -12.5 169.5 -39.0 125.5 -82.5 81.5 -126.0 60.0 -178.5 39.0 -230.5 39.0 -283.5 39.0 -347.5 63.5 -409.0 88.5 -470.5 138.5 -521.0 188.5 -571.0 265.0 -601.0 341.5 -631.0 444.5 -632.0 556.5 -631.5 637.0 -595.0 718.0 -558.5 761.0 -490.0 804.5 -422.0 805.0 -325.5 805.5 -275.5 785.5 -217.0 766.0 -159.0 719.5 -106.5 673.5 -54.0 595.0 -20.5 516.5 13.5 399.5 14.5" fill-rule="evenodd" stroke="none"/>
    </g>
    <g id="font_Lithos_Pro_Regular_a0">
      <path d="M301.0 -222.5 L454.5 -229.5 Q434.5 -268.0 413.0 -306.5 391.5 -345.0 378.0 -373.0 361.0 -340.5 340.0 -300.0 319.5 -259.5 301.0 -222.5 M184.5 29.5 L0.0 -65.0 Q7.5 -76.5 30.5 -114.0 54.0 -152.0 88.0 -206.5 121.5 -261.5 161.0 -324.0 200.0 -387.0 239.5 -449.0 279.0 -511.5 313.5 -564.0 347.5 -616.5 371.5 -650.5 L391.0 -650.5 Q426.0 -602.0 472.5 -535.0 518.5 -467.5 568.5 -394.0 618.5 -321.0 664.0 -254.0 709.5 -187.0 742.0 -139.0 775.0 -91.0 787.5 -75.0 L599.0 28.5 Q584.5 6.5 567.0 -22.0 549.5 -50.5 535.5 -73.5 521.5 -96.5 517.0 -102.5 L243.5 -89.5 Q241.0 -84.5 230.5 -64.0 220.5 -43.5 207.5 -18.0 195.0 8.0 184.5 29.5" fill-rule="evenodd" stroke="none"/>
    </g>
    <g id="font_Lithos_Pro_Regular_.0">
      <path d="M73.5 0.0 L73.5 0.0 73.5 -158.5 243.5 -158.5 243.5 0.0 73.5 0.0" fill-rule="evenodd" stroke="none"/>
    </g>
  </defs>
</svg>
