<?xml version="1.0" encoding="UTF-8" standalone="no"?>
<svg xmlns:ffdec="https://www.free-decompiler.com/flash" xmlns:xlink="http://www.w3.org/1999/xlink" ffdec:objectType="text" height="39.05px" width="96.55px" xmlns="http://www.w3.org/2000/svg">
  <g transform="matrix(1.0, 0.0, 0.0, 1.0, -26.9, -0.75)">
    <g transform="matrix(1.0, 0.0, 0.0, 1.0, 26.45, 0.0)">
      <use fill="#cc9d3e" height="39.05" transform="matrix(0.0117, 0.0, 0.0, 0.0117, 20.0, 12.0)" width="96.55" xlink:href="#font_Lithos_Pro_Regular_M0"/>
      <use fill="#cc9d3e" height="39.05" transform="matrix(0.0117, 0.0, 0.0, 0.0117, 34.05, 12.0)" width="96.55" xlink:href="#font_Lithos_Pro_Regular_o0"/>
      <use fill="#cc9d3e" height="39.05" transform="matrix(0.0117, 0.0, 0.0, 0.0117, 44.95, 12.0)" width="96.55" xlink:href="#font_Lithos_Pro_Regular_u0"/>
      <use fill="#cc9d3e" height="39.05" transform="matrix(0.0117, 0.0, 0.0, 0.0117, 55.2, 12.0)" width="96.55" xlink:href="#font_Lithos_Pro_Regular_s0"/>
      <use fill="#cc9d3e" height="39.05" transform="matrix(0.0117, 0.0, 0.0, 0.0117, 62.3, 12.0)" width="96.55" xlink:href="#font_Lithos_Pro_Regular_e0"/>
    </g>
    <g transform="matrix(1.0, 0.0, 0.0, 1.0, 26.45, 0.0)">
      <use fill="#cc9d3e" height="39.05" transform="matrix(0.0117, 0.0, 0.0, 0.0117, 0.0, 25.0)" width="96.55" xlink:href="#font_Lithos_Pro_Regular_S0"/>
      <use fill="#cc9d3e" height="39.05" transform="matrix(0.0117, 0.0, 0.0, 0.0117, 7.55, 25.0)" width="96.55" xlink:href="#font_Lithos_Pro_Regular_c0"/>
      <use fill="#cc9d3e" height="39.05" transform="matrix(0.0117, 0.0, 0.0, 0.0117, 15.65, 25.0)" width="96.55" xlink:href="#font_Lithos_Pro_Regular_r0"/>
      <use fill="#cc9d3e" height="39.05" transform="matrix(0.0117, 0.0, 0.0, 0.0117, 25.1, 25.0)" width="96.55" xlink:href="#font_Lithos_Pro_Regular_e0"/>
      <use fill="#cc9d3e" height="39.05" transform="matrix(0.0117, 0.0, 0.0, 0.0117, 32.95, 25.0)" width="96.55" xlink:href="#font_Lithos_Pro_Regular_e0"/>
      <use fill="#cc9d3e" height="39.05" transform="matrix(0.0117, 0.0, 0.0, 0.0117, 40.8, 25.0)" width="96.55" xlink:href="#font_Lithos_Pro_Regular_n0"/>
      <use fill="#cc9d3e" height="39.05" transform="matrix(0.0117, 0.0, 0.0, 0.0117, 55.35, 25.0)" width="96.55" xlink:href="#font_Lithos_Pro_Regular_E0"/>
      <use fill="#cc9d3e" height="39.05" transform="matrix(0.0117, 0.0, 0.0, 0.0117, 63.8, 25.0)" width="96.55" xlink:href="#font_Lithos_Pro_Regular_d0"/>
      <use fill="#cc9d3e" height="39.05" transform="matrix(0.0117, 0.0, 0.0, 0.0117, 73.95, 25.0)" width="96.55" xlink:href="#font_Lithos_Pro_Regular_g0"/>
      <use fill="#cc9d3e" height="39.05" transform="matrix(0.0117, 0.0, 0.0, 0.0117, 83.1, 25.0)" width="96.55" xlink:href="#font_Lithos_Pro_Regular_e0"/>
    </g>
    <g transform="matrix(1.0, 0.0, 0.0, 1.0, 26.45, 0.0)">
      <use fill="#cc9d3e" height="39.05" transform="matrix(0.0117, 0.0, 0.0, 0.0117, 8.0, 38.0)" width="96.55" xlink:href="#font_Lithos_Pro_Regular_s0"/>
      <use fill="#cc9d3e" height="39.05" transform="matrix(0.0117, 0.0, 0.0, 0.0117, 15.1, 38.0)" width="96.55" xlink:href="#font_Lithos_Pro_Regular_c0"/>
      <use fill="#cc9d3e" height="39.05" transform="matrix(0.0117, 0.0, 0.0, 0.0117, 23.2, 38.0)" width="96.55" xlink:href="#font_Lithos_Pro_Regular_r0"/>
      <use fill="#cc9d3e" height="39.05" transform="matrix(0.0117, 0.0, 0.0, 0.0117, 32.65, 38.0)" width="96.55" xlink:href="#font_Lithos_Pro_Regular_o0"/>
      <use fill="#cc9d3e" height="39.05" transform="matrix(0.0117, 0.0, 0.0, 0.0117, 43.5, 38.0)" width="96.55" xlink:href="#font_Lithos_Pro_Regular_l0"/>
      <use fill="#cc9d3e" height="39.05" transform="matrix(0.0117, 0.0, 0.0, 0.0117, 50.9, 38.0)" width="96.55" xlink:href="#font_Lithos_Pro_Regular_l0"/>
      <use fill="#cc9d3e" height="39.05" transform="matrix(0.0117, 0.0, 0.0, 0.0117, 58.3, 38.0)" width="96.55" xlink:href="#font_Lithos_Pro_Regular_i0"/>
      <use fill="#cc9d3e" height="39.05" transform="matrix(0.0117, 0.0, 0.0, 0.0117, 64.1, 38.0)" width="96.55" xlink:href="#font_Lithos_Pro_Regular_n0"/>
      <use fill="#cc9d3e" height="39.05" transform="matrix(0.0117, 0.0, 0.0, 0.0117, 74.65, 38.0)" width="96.55" xlink:href="#font_Lithos_Pro_Regular_g0"/>
    </g>
  </g>
  <defs>
    <g id="font_Lithos_Pro_Regular_M0">
      <path d="M212.0 32.0 L212.0 32.0 10.5 -43.0 Q15.5 -54.0 33.5 -100.5 51.5 -146.5 78.5 -215.5 105.5 -284.0 136.5 -363.0 167.5 -441.5 198.0 -517.5 228.5 -593.5 253.5 -655.0 279.0 -716.0 294.0 -749.5 L304.5 -749.5 Q323.5 -718.5 351.0 -673.5 378.0 -628.5 408.5 -578.5 439.0 -528.0 468.0 -481.0 496.5 -433.5 518.5 -397.5 540.0 -361.5 550.0 -345.5 562.5 -364.0 585.0 -400.5 607.5 -437.0 635.5 -482.5 664.0 -528.5 692.5 -576.0 721.5 -624.0 747.0 -665.0 772.0 -706.5 788.5 -733.5 L799.0 -733.5 Q817.0 -694.5 844.0 -635.0 871.0 -575.0 903.0 -504.0 935.0 -433.5 967.0 -361.5 999.5 -289.5 1027.5 -226.5 1056.0 -163.5 1076.0 -119.5 1095.5 -75.5 1103.0 -60.5 L896.0 32.0 Q886.0 6.5 870.0 -35.5 854.0 -77.5 835.5 -125.5 817.0 -174.0 800.0 -219.5 783.0 -264.5 770.5 -296.5 758.5 -328.5 755.0 -338.0 749.5 -330.0 726.0 -294.0 702.5 -258.0 669.0 -207.5 635.5 -156.5 600.0 -104.0 564.0 -51.5 534.5 -10.0 L524.5 -10.0 Q494.5 -55.5 462.0 -106.5 429.5 -157.5 399.5 -205.0 370.0 -252.5 349.5 -287.0 328.5 -321.5 322.0 -333.5 316.5 -317.0 305.5 -280.0 294.5 -243.0 281.0 -196.0 267.5 -149.0 253.5 -102.5 240.0 -55.5 229.0 -19.5 218.0 16.5 212.0 32.0" fill-rule="evenodd" stroke="none"/>
    </g>
    <g id="font_Lithos_Pro_Regular_o0">
      <path d="M409.5 -127.0 L409.5 -127.0 Q482.0 -127.0 524.0 -175.0 565.5 -223.5 566.5 -319.5 566.0 -403.0 531.5 -446.5 496.5 -490.5 432.5 -490.5 382.0 -490.0 347.5 -463.5 313.0 -437.5 295.5 -393.5 277.5 -350.0 277.5 -297.0 278.0 -239.5 296.0 -202.0 313.5 -164.0 343.5 -145.5 373.5 -127.0 409.5 -127.0 M399.5 14.5 L399.5 14.5 Q306.0 13.5 237.5 -12.5 169.5 -39.0 125.5 -82.5 81.5 -126.0 60.0 -178.5 39.0 -230.5 39.0 -283.5 39.0 -347.5 63.5 -409.0 88.5 -470.5 138.5 -521.0 188.5 -571.0 265.0 -601.0 341.5 -631.0 444.5 -632.0 556.5 -631.5 637.0 -595.0 718.0 -558.5 761.0 -490.0 804.5 -422.0 805.0 -325.5 805.5 -275.5 785.5 -217.0 766.0 -159.0 719.5 -106.5 673.5 -54.0 595.0 -20.5 516.5 13.5 399.5 14.5" fill-rule="evenodd" stroke="none"/>
    </g>
    <g id="font_Lithos_Pro_Regular_u0">
      <path d="M289.0 -462.0 L289.0 -403.5 Q288.5 -334.5 292.0 -288.5 295.0 -242.5 304.0 -213.5 313.0 -184.5 331.0 -165.5 345.5 -150.5 363.5 -143.5 381.0 -137.0 402.5 -137.0 427.0 -137.0 446.5 -146.5 465.5 -156.5 478.5 -175.0 488.0 -187.5 493.5 -204.0 499.0 -220.0 501.5 -247.5 504.0 -275.0 504.5 -321.5 505.0 -368.0 505.0 -441.5 L505.0 -474.0 Q505.0 -520.5 503.0 -561.5 501.0 -602.0 500.0 -627.0 L725.0 -627.0 Q725.0 -617.0 725.0 -593.5 725.5 -570.5 725.5 -539.0 726.0 -507.5 726.0 -472.5 L726.0 -431.5 Q726.5 -348.5 720.5 -285.0 714.5 -221.5 697.0 -172.5 679.5 -123.5 645.0 -84.0 602.0 -35.5 535.5 -10.5 469.0 14.5 390.5 14.5 351.5 15.0 303.5 8.0 255.5 0.5 208.5 -23.0 161.5 -46.5 126.0 -95.0 109.0 -118.0 97.5 -145.0 85.5 -172.0 78.0 -209.0 70.5 -246.5 67.0 -300.5 63.5 -355.0 63.5 -433.5 L63.5 -480.5 Q63.5 -501.5 64.0 -528.0 64.0 -555.0 64.5 -578.5 64.5 -602.0 64.5 -612.5 L294.0 -612.5 Q291.5 -595.5 290.5 -558.5 289.0 -521.0 289.0 -462.0" fill-rule="evenodd" stroke="none"/>
    </g>
    <g id="font_Lithos_Pro_Regular_s0">
      <path d="M79.5 17.5 L56.0 -138.5 Q107.5 -137.0 154.0 -142.5 201.0 -148.0 231.0 -161.0 261.0 -173.5 262.0 -194.5 263.5 -208.5 243.0 -222.0 223.0 -236.0 167.0 -260.0 136.0 -273.5 105.0 -293.0 73.5 -312.5 52.0 -341.5 30.5 -370.0 29.5 -411.0 30.0 -465.5 77.5 -514.5 125.5 -563.0 214.0 -596.5 303.0 -629.5 427.0 -637.0 L451.5 -479.5 Q356.0 -480.0 308.0 -471.0 260.0 -461.5 260.0 -434.5 260.0 -418.0 284.5 -405.5 308.5 -393.0 354.0 -376.0 380.5 -366.5 413.0 -349.5 445.0 -332.5 469.5 -304.0 493.5 -276.0 494.5 -232.5 495.0 -178.0 452.0 -125.5 409.0 -72.5 317.5 -33.5 225.5 5.0 79.5 17.5" fill-rule="evenodd" stroke="none"/>
    </g>
    <g id="font_Lithos_Pro_Regular_e0">
      <path d="M519.5 -147.0 L522.5 9.5 Q510.0 9.5 468.5 8.5 427.5 7.5 371.0 6.0 315.0 5.0 257.5 3.5 200.5 2.0 156.0 1.0 112.0 0.0 94.5 0.0 95.0 -18.5 95.5 -56.0 96.0 -93.5 96.5 -136.0 96.5 -178.5 96.5 -211.0 96.5 -244.0 96.5 -253.0 L96.5 -368.5 Q96.5 -373.5 96.5 -397.5 96.0 -421.5 96.0 -455.0 95.5 -489.0 95.0 -523.5 95.0 -558.0 94.5 -584.0 94.5 -610.0 94.5 -618.5 113.0 -618.5 155.5 -620.0 198.5 -621.0 252.5 -623.0 307.0 -625.0 360.0 -627.0 413.0 -629.5 452.0 -631.0 491.5 -633.0 504.0 -634.0 L508.0 -484.5 Q494.0 -484.5 465.0 -483.5 435.5 -483.0 402.5 -482.0 369.0 -481.0 343.5 -480.0 317.5 -479.5 310.5 -479.5 L310.5 -373.5 Q318.0 -373.5 338.5 -374.0 359.0 -375.0 385.5 -376.0 412.0 -377.0 436.5 -378.5 461.5 -380.0 477.5 -381.5 L479.5 -236.5 Q469.5 -236.5 445.5 -237.0 421.5 -237.5 393.5 -238.0 365.0 -238.5 342.0 -239.0 319.0 -239.5 310.5 -239.5 L310.5 -145.0 Q320.0 -145.0 347.0 -144.5 373.5 -144.5 407.0 -144.5 441.0 -144.5 471.5 -145.0 502.0 -145.5 519.5 -147.0" fill-rule="evenodd" stroke="none"/>
    </g>
    <g id="font_Lithos_Pro_Regular_S0">
      <path d="M95.5 18.5 L95.5 18.5 67.5 -156.5 Q118.5 -155.0 165.5 -163.5 213.0 -171.5 244.0 -188.5 274.5 -205.0 275.5 -229.5 276.0 -239.0 268.0 -248.5 260.0 -258.0 238.0 -272.0 216.0 -286.0 175.0 -309.0 142.0 -327.5 110.0 -351.5 78.5 -376.0 57.5 -408.0 36.5 -440.5 35.5 -483.5 36.0 -541.5 84.5 -597.5 133.5 -653.0 225.5 -693.0 317.5 -733.0 447.5 -745.5 L475.0 -574.5 Q379.0 -574.5 330.5 -558.5 282.5 -542.5 282.5 -511.0 282.5 -493.5 307.0 -477.5 332.0 -462.0 382.0 -438.5 410.5 -425.0 443.0 -404.0 476.0 -383.0 499.5 -351.0 523.5 -319.0 524.5 -273.5 524.5 -230.5 501.0 -185.5 477.5 -140.0 426.5 -98.5 375.5 -57.5 294.0 -26.5 212.0 4.5 95.5 18.5" fill-rule="evenodd" stroke="none"/>
    </g>
    <g id="font_Lithos_Pro_Regular_c0">
      <path d="M556.0 -158.5 L565.5 7.5 Q541.0 10.5 514.5 12.5 487.5 14.5 455.0 14.5 340.5 14.0 260.0 -9.5 179.5 -33.0 129.5 -71.5 79.5 -109.5 56.0 -155.5 33.0 -201.5 33.0 -247.5 33.0 -302.5 60.5 -360.5 88.5 -418.5 145.5 -472.5 202.5 -526.5 290.5 -568.0 378.5 -610.0 499.0 -632.0 L540.0 -460.0 Q445.0 -443.5 385.5 -414.5 326.5 -385.5 298.5 -348.5 271.0 -311.0 271.5 -270.5 272.0 -218.5 322.5 -187.0 372.5 -155.5 466.0 -154.5 494.5 -154.5 517.0 -155.5 539.5 -157.0 556.0 -158.5" fill-rule="evenodd" stroke="none"/>
    </g>
    <g id="font_Lithos_Pro_Regular_r0">
      <path d="M311.5 -492.5 L311.5 -266.0 Q311.5 -255.5 311.5 -227.5 312.0 -199.0 312.5 -162.0 312.5 -125.5 313.0 -90.0 314.0 -54.5 314.5 -29.5 315.0 -5.0 315.5 0.0 L95.5 0.0 Q96.5 -7.0 97.5 -31.5 98.0 -56.0 98.5 -89.5 98.5 -123.0 98.5 -156.5 98.5 -190.0 98.5 -214.0 98.5 -238.5 98.5 -244.5 L98.5 -386.0 Q98.5 -394.5 98.5 -419.0 98.0 -443.0 97.5 -474.5 97.5 -506.0 97.0 -537.0 96.0 -568.0 95.5 -590.0 95.0 -612.5 94.5 -618.5 194.0 -619.0 285.0 -617.5 376.5 -616.5 444.5 -608.0 547.5 -595.0 602.0 -557.0 656.0 -519.0 656.5 -458.5 656.0 -404.5 626.0 -361.5 596.0 -319.0 539.5 -284.5 551.0 -273.0 577.0 -247.5 603.5 -222.5 634.5 -193.0 665.5 -163.0 691.5 -138.5 717.0 -113.5 727.0 -102.5 L545.0 29.5 Q537.5 19.0 516.0 -12.0 494.5 -43.0 466.0 -84.5 437.5 -126.0 409.0 -168.0 380.0 -209.5 358.0 -241.5 336.0 -273.5 328.0 -285.5 352.5 -297.5 375.5 -316.0 399.0 -334.0 414.0 -359.5 429.5 -384.5 430.0 -417.0 431.5 -448.5 405.5 -469.5 379.5 -491.0 311.5 -492.5" fill-rule="evenodd" stroke="none"/>
    </g>
    <g id="font_Lithos_Pro_Regular_n0">
      <path d="M264.0 6.0 L62.5 0.0 Q64.0 -16.0 67.0 -59.5 69.5 -103.0 73.0 -163.5 76.5 -224.0 80.5 -291.5 84.0 -359.5 88.0 -424.5 91.5 -489.5 95.0 -542.0 98.0 -594.0 100.5 -624.0 L116.5 -629.0 Q157.0 -603.0 210.5 -566.5 264.0 -530.0 321.0 -490.5 378.5 -451.0 428.5 -415.5 479.0 -380.0 512.5 -355.0 546.5 -330.5 553.0 -324.0 553.0 -338.5 553.0 -369.5 552.5 -400.0 552.5 -438.5 552.0 -477.0 552.0 -515.0 551.5 -552.5 551.5 -582.0 551.5 -611.0 552.0 -623.0 L752.5 -618.5 Q749.5 -583.5 745.5 -532.0 741.5 -480.5 737.5 -419.0 734.0 -357.5 730.5 -293.0 726.5 -229.5 723.5 -170.0 720.0 -111.0 717.5 -63.5 715.0 -16.0 714.0 13.5 L697.5 17.5 Q668.5 0.0 620.0 -33.0 571.5 -66.0 515.0 -106.0 458.5 -145.5 405.0 -184.0 352.0 -222.5 313.5 -250.5 275.5 -279.0 263.0 -289.0 263.0 -274.5 263.0 -243.5 263.0 -212.0 263.0 -173.0 263.0 -134.0 263.0 -96.0 263.5 -58.0 263.5 -30.0 263.5 -2.5 264.0 6.0" fill-rule="evenodd" stroke="none"/>
    </g>
    <g id="font_Lithos_Pro_Regular_E0">
      <path d="M563.0 -165.5 L563.0 -165.5 567.0 10.5 Q557.0 10.5 524.0 9.5 490.5 9.0 443.5 8.0 396.0 6.5 343.5 5.5 291.0 4.0 242.0 3.0 193.5 1.5 157.5 1.0 121.5 0.0 107.5 0.0 108.5 -17.0 109.0 -49.5 109.5 -82.0 110.0 -121.0 110.0 -160.0 110.5 -197.5 110.5 -234.5 110.5 -261.5 110.5 -288.0 110.5 -296.0 L110.5 -433.0 Q110.5 -439.0 110.5 -467.0 110.0 -495.0 109.5 -535.0 109.5 -574.5 109.0 -615.5 108.5 -656.0 108.0 -686.5 108.0 -717.0 107.5 -727.0 126.0 -727.0 171.5 -728.5 217.0 -730.0 276.0 -732.5 334.5 -735.0 392.0 -737.5 449.5 -740.0 492.0 -742.5 534.0 -744.5 546.5 -745.5 L550.5 -575.5 Q535.5 -575.5 503.0 -574.5 471.0 -574.0 434.5 -573.0 398.5 -572.0 370.0 -571.0 341.5 -570.5 333.5 -570.5 L333.5 -435.0 Q342.0 -435.0 364.5 -436.0 387.0 -436.5 416.0 -438.0 445.0 -439.5 472.0 -441.0 499.0 -442.5 517.0 -444.0 L520.0 -280.5 Q508.5 -280.5 482.0 -281.0 456.0 -282.0 424.5 -282.5 393.5 -283.5 368.0 -284.0 343.0 -284.5 333.5 -284.5 L333.5 -163.5 Q344.5 -163.5 374.0 -163.0 403.0 -163.0 440.0 -163.0 477.0 -163.0 510.5 -163.5 544.0 -164.0 563.0 -165.5" fill-rule="evenodd" stroke="none"/>
    </g>
    <g id="font_Lithos_Pro_Regular_d0">
      <path d="M313.5 -475.0 L313.5 -158.0 Q345.5 -162.0 379.5 -175.5 413.5 -189.5 442.5 -213.0 472.0 -237.0 490.5 -271.0 508.5 -305.5 509.0 -351.0 508.0 -404.5 480.0 -431.0 452.0 -458.0 407.5 -467.0 363.0 -476.0 313.5 -475.0 M96.5 -275.5 L96.5 -383.0 Q96.5 -389.0 96.5 -412.0 96.5 -435.0 96.0 -466.5 95.5 -498.5 95.0 -530.0 94.5 -562.0 94.0 -586.5 93.5 -610.5 92.5 -618.5 179.5 -618.5 244.0 -617.0 309.0 -616.0 359.0 -613.0 409.5 -609.5 451.5 -604.0 543.0 -592.0 600.0 -566.5 657.5 -540.5 688.0 -508.0 718.5 -475.5 730.0 -442.0 741.0 -409.0 740.5 -382.0 739.5 -297.5 702.0 -232.5 665.0 -168.0 600.0 -121.5 535.0 -75.5 451.5 -47.0 368.5 -18.5 276.0 -6.0 183.5 6.5 91.5 4.0 92.5 -8.5 93.0 -38.0 94.0 -67.5 94.5 -105.0 95.0 -142.0 95.5 -178.5 96.0 -214.5 96.5 -241.0 96.5 -267.5 96.5 -275.5" fill-rule="evenodd" stroke="none"/>
    </g>
    <g id="font_Lithos_Pro_Regular_g0">
      <path d="M632.0 -198.5 L632.0 -135.0 Q632.0 -117.0 632.5 -90.5 633.0 -64.0 633.5 -40.0 634.0 -16.0 634.0 -6.0 619.5 -2.5 588.5 2.0 557.0 7.0 514.5 10.5 472.0 14.5 424.0 14.5 286.5 13.5 200.0 -22.0 113.5 -58.0 73.0 -116.5 32.5 -175.0 33.0 -244.5 32.5 -285.5 55.5 -340.5 78.0 -395.5 133.5 -452.5 188.5 -510.0 284.5 -558.5 380.5 -606.5 525.5 -634.0 L568.5 -453.5 Q518.0 -448.0 465.5 -432.5 413.5 -417.5 368.5 -393.0 323.5 -368.0 296.0 -333.5 268.5 -298.5 267.5 -253.5 268.5 -211.0 293.5 -185.5 318.0 -160.0 354.0 -149.5 389.5 -138.5 424.0 -140.0 L424.0 -205.5 Q424.0 -223.5 423.0 -243.0 422.0 -262.0 422.0 -285.5 L633.0 -285.5 Q632.0 -255.5 632.0 -236.0 632.0 -217.0 632.0 -198.5" fill-rule="evenodd" stroke="none"/>
    </g>
    <g id="font_Lithos_Pro_Regular_l0">
      <path d="M93.5 -618.5 L322.5 -618.5 Q322.0 -610.0 321.5 -577.0 320.5 -544.0 319.5 -497.0 319.0 -450.5 318.0 -401.0 317.5 -351.0 317.5 -309.0 L317.5 -156.5 Q330.0 -156.5 364.5 -156.5 399.0 -157.0 442.5 -157.5 486.0 -158.5 524.5 -160.5 L525.5 9.5 Q516.0 9.5 477.5 8.5 439.0 7.5 384.5 6.0 330.0 5.0 272.5 3.5 215.0 2.0 167.5 1.0 119.5 0.0 94.5 0.0 95.0 -18.5 95.5 -56.0 96.0 -93.5 96.5 -136.0 96.5 -178.5 96.5 -211.0 96.5 -244.0 96.5 -252.5 L96.5 -368.5 Q96.5 -373.5 96.5 -398.5 96.0 -423.0 95.5 -457.5 95.5 -492.5 95.0 -527.0 94.5 -562.0 94.0 -587.0 94.0 -612.5 93.5 -618.5" fill-rule="evenodd" stroke="none"/>
    </g>
    <g id="font_Lithos_Pro_Regular_i0">
      <path d="M315.5 -357.5 L315.5 -263.0 Q315.5 -229.5 316.0 -188.0 316.5 -146.5 317.0 -106.5 318.0 -66.5 318.5 -37.5 319.0 -8.5 319.5 0.0 L92.5 0.0 Q93.0 -12.0 93.0 -40.0 93.5 -67.5 93.5 -103.0 94.0 -138.0 94.0 -172.5 94.5 -206.5 94.5 -231.5 94.5 -256.5 94.5 -264.0 L94.5 -358.5 Q94.5 -364.0 94.5 -389.5 94.0 -414.5 94.0 -450.5 93.5 -486.0 93.0 -522.0 93.0 -558.0 92.5 -584.5 92.5 -611.0 92.5 -618.5 L319.5 -618.5 Q319.0 -611.5 318.5 -585.5 318.0 -559.0 317.0 -521.0 316.5 -482.5 316.0 -440.0 315.5 -397.0 315.5 -357.5" fill-rule="evenodd" stroke="none"/>
    </g>
  </defs>
</svg>
