<?xml version="1.0" encoding="UTF-8" standalone="no"?>
<svg xmlns:ffdec="https://www.free-decompiler.com/flash" xmlns:xlink="http://www.w3.org/1999/xlink" ffdec:objectType="text" height="19.45px" width="27.1px" xmlns="http://www.w3.org/2000/svg">
  <g transform="matrix(1.0, 0.0, 0.0, 1.0, -58.45, 2.0)">
    <g transform="matrix(1.0, 0.0, 0.0, 1.0, 58.45, -2.0)">
      <use fill="#cc9d3e" height="19.45" transform="matrix(0.0098, 0.0, 0.0, 0.0098, 2.2, 9.65)" width="27.1" xlink:href="#font_Lithos_Pro_Regular_O0"/>
      <use fill="#cc9d3e" height="19.45" transform="matrix(0.0098, 0.0, 0.0, 0.0098, 11.9, 9.65)" width="27.1" xlink:href="#font_Lithos_Pro_Regular_f0"/>
      <use fill="#cc9d3e" height="19.45" transform="matrix(0.0098, 0.0, 0.0, 0.0098, 18.4, 9.65)" width="27.1" xlink:href="#font_Lithos_Pro_Regular_f0"/>
    </g>
  </g>
  <defs>
    <g id="font_Lithos_Pro_Regular_O0">
      <path d="M447.5 -142.0 L447.5 -142.0 Q531.5 -142.5 580.5 -201.5 629.5 -261.0 631.5 -376.0 631.5 -475.5 589.5 -530.0 547.5 -584.5 473.0 -585.0 414.5 -584.0 374.0 -551.5 333.5 -519.0 312.0 -466.0 291.0 -412.5 291.0 -349.0 291.5 -280.5 313.0 -234.5 334.0 -188.5 369.5 -165.0 405.0 -142.0 447.5 -142.0 M436.0 16.5 L436.0 16.5 Q334.0 15.5 259.0 -15.0 184.5 -46.0 136.0 -97.0 88.0 -148.0 64.5 -210.0 41.0 -271.5 41.0 -334.0 41.0 -409.0 68.0 -481.5 95.5 -553.5 150.5 -613.0 205.5 -672.0 289.5 -707.5 373.0 -742.5 486.5 -743.5 608.5 -743.0 697.5 -700.0 786.0 -657.0 834.0 -576.5 882.0 -496.0 882.5 -383.0 882.5 -336.0 869.0 -282.0 855.0 -228.0 824.0 -175.0 793.0 -122.5 741.5 -79.0 689.5 -35.5 614.0 -10.0 539.0 16.0 436.0 16.5" fill-rule="evenodd" stroke="none"/>
    </g>
    <g id="font_Lithos_Pro_Regular_f0">
      <path d="M314.5 0.0 L93.5 0.0 Q94.5 -18.5 95.0 -56.0 96.0 -93.5 96.0 -136.0 96.5 -178.5 96.5 -211.0 96.5 -244.0 96.5 -253.0 L96.5 -368.5 Q96.5 -373.5 96.5 -397.5 96.0 -421.5 95.5 -455.0 95.5 -489.0 95.0 -523.5 94.5 -558.0 94.0 -584.0 94.0 -610.0 93.5 -618.5 125.5 -618.5 179.0 -620.0 233.0 -621.5 295.5 -623.5 358.0 -625.5 416.0 -627.5 474.0 -629.5 514.0 -631.0 L518.5 -481.0 313.5 -477.0 313.5 -351.0 Q329.0 -351.0 375.5 -353.5 422.5 -356.0 501.0 -359.0 L503.0 -215.0 313.5 -217.0 313.5 -147.5 Q313.5 -141.0 313.5 -120.0 314.0 -99.0 314.0 -73.0 314.0 -47.0 314.5 -26.0 314.5 -5.5 314.5 0.0" fill-rule="evenodd" stroke="none"/>
    </g>
  </defs>
</svg>
