<?xml version="1.0" encoding="UTF-8" standalone="no"?>
<svg xmlns:ffdec="https://www.free-decompiler.com/flash" xmlns:xlink="http://www.w3.org/1999/xlink" ffdec:objectType="text" height="25.35px" width="155.05px" xmlns="http://www.w3.org/2000/svg">
  <g transform="matrix(1.0, 0.0, 0.0, 1.0, -0.8, -5.55)">
    <g transform="matrix(1.0, 0.0, 0.0, 1.0, 0.0, 0.0)">
      <use fill="#cd9e3f" height="25.35" transform="matrix(0.0293, 0.0, 0.0, 0.0293, 0.0, 29.0)" width="155.05" xlink:href="#font_Lithos_Pro_Regular_Y0"/>
      <use fill="#cd9e3f" height="25.35" transform="matrix(0.0293, 0.0, 0.0, 0.0293, 21.9, 29.0)" width="155.05" xlink:href="#font_Lithos_Pro_Regular_o0"/>
      <use fill="#cd9e3f" height="25.35" transform="matrix(0.0293, 0.0, 0.0, 0.0293, 46.65, 29.0)" width="155.05" xlink:href="#font_Lithos_Pro_Regular_u0"/>
      <use fill="#cd9e3f" height="25.35" transform="matrix(0.0293, 0.0, 0.0, 0.0293, 77.3, 29.0)" width="155.05" xlink:href="#font_Lithos_Pro_Regular_A0"/>
      <use fill="#cd9e3f" height="25.35" transform="matrix(0.0293, 0.0, 0.0, 0.0293, 102.65, 29.0)" width="155.05" xlink:href="#font_Lithos_Pro_Regular_r0"/>
      <use fill="#cd9e3f" height="25.35" transform="matrix(0.0293, 0.0, 0.0, 0.0293, 123.8, 29.0)" width="155.05" xlink:href="#font_Lithos_Pro_Regular_e0"/>
    </g>
  </g>
  <defs>
    <g id="font_Lithos_Pro_Regular_Y0">
      <path d="M511.0 0.0 L511.0 0.0 270.5 0.0 Q271.0 -9.5 271.5 -31.0 272.5 -52.0 273.5 -76.5 274.5 -101.0 275.0 -120.5 275.5 -139.5 275.5 -145.5 L275.5 -190.5 Q274.5 -290.5 237.5 -365.5 200.5 -440.5 142.5 -479.5 111.5 -500.0 81.5 -513.0 51.5 -525.5 26.5 -532.5 L105.5 -743.5 Q157.5 -727.0 208.0 -701.0 258.0 -675.0 298.0 -636.0 327.0 -608.0 352.5 -566.0 378.5 -524.5 397.5 -465.0 L405.5 -465.0 Q423.0 -516.0 452.0 -558.0 481.0 -600.0 518.0 -635.0 555.0 -670.5 603.5 -698.5 651.5 -726.5 711.0 -743.5 L775.5 -532.5 Q740.5 -525.5 698.5 -505.5 657.0 -486.0 620.5 -455.5 589.5 -430.5 563.5 -391.0 537.5 -352.0 522.0 -301.5 506.5 -251.0 506.0 -192.5 L506.0 -126.0 Q506.0 -120.0 506.5 -103.0 507.0 -86.0 507.5 -65.5 508.5 -44.5 509.5 -26.5 510.5 -8.5 511.0 0.0" fill-rule="evenodd" stroke="none"/>
    </g>
    <g id="font_Lithos_Pro_Regular_o0">
      <path d="M409.5 -127.0 L409.5 -127.0 Q482.0 -127.0 524.0 -175.0 565.5 -223.5 566.5 -319.5 566.0 -403.0 531.5 -446.5 496.5 -490.5 432.5 -490.5 382.0 -490.0 347.5 -463.5 313.0 -437.5 295.5 -393.5 277.5 -350.0 277.5 -297.0 278.0 -239.5 296.0 -202.0 313.5 -164.0 343.5 -145.5 373.5 -127.0 409.5 -127.0 M399.5 14.5 L399.5 14.5 Q306.0 13.5 237.5 -12.5 169.5 -39.0 125.5 -82.5 81.5 -126.0 60.0 -178.5 39.0 -230.5 39.0 -283.5 39.0 -347.5 63.5 -409.0 88.5 -470.5 138.5 -521.0 188.5 -571.0 265.0 -601.0 341.5 -631.0 444.5 -632.0 556.5 -631.5 637.0 -595.0 718.0 -558.5 761.0 -490.0 804.5 -422.0 805.0 -325.5 805.5 -275.5 785.5 -217.0 766.0 -159.0 719.5 -106.5 673.5 -54.0 595.0 -20.5 516.5 13.5 399.5 14.5" fill-rule="evenodd" stroke="none"/>
    </g>
    <g id="font_Lithos_Pro_Regular_u0">
      <path d="M289.0 -462.0 L289.0 -403.5 Q288.5 -334.5 292.0 -288.5 295.0 -242.5 304.0 -213.5 313.0 -184.5 331.0 -165.5 345.5 -150.5 363.5 -143.5 381.0 -137.0 402.5 -137.0 427.0 -137.0 446.5 -146.5 465.5 -156.5 478.5 -175.0 488.0 -187.5 493.5 -204.0 499.0 -220.0 501.5 -247.5 504.0 -275.0 504.5 -321.5 505.0 -368.0 505.0 -441.5 L505.0 -474.0 Q505.0 -520.5 503.0 -561.5 501.0 -602.0 500.0 -627.0 L725.0 -627.0 Q725.0 -617.0 725.0 -593.5 725.5 -570.5 725.5 -539.0 726.0 -507.5 726.0 -472.5 L726.0 -431.5 Q726.5 -348.5 720.5 -285.0 714.5 -221.5 697.0 -172.5 679.5 -123.5 645.0 -84.0 602.0 -35.5 535.5 -10.5 469.0 14.5 390.5 14.5 351.5 15.0 303.5 8.0 255.5 0.5 208.5 -23.0 161.5 -46.5 126.0 -95.0 109.0 -118.0 97.5 -145.0 85.5 -172.0 78.0 -209.0 70.5 -246.5 67.0 -300.5 63.5 -355.0 63.5 -433.5 L63.5 -480.5 Q63.5 -501.5 64.0 -528.0 64.0 -555.0 64.5 -578.5 64.5 -602.0 64.5 -612.5 L294.0 -612.5 Q291.5 -595.5 290.5 -558.5 289.0 -521.0 289.0 -462.0" fill-rule="evenodd" stroke="none"/>
    </g>
    <g id="font_Lithos_Pro_Regular_A0">
      <path d="M328.0 -261.5 L328.0 -261.5 501.0 -270.5 Q486.0 -300.0 470.0 -332.0 453.5 -364.0 439.0 -393.0 424.5 -422.0 415.0 -443.5 402.5 -418.5 387.5 -387.5 372.0 -356.0 356.5 -323.0 341.5 -290.5 328.0 -261.5 M194.5 32.5 L194.5 32.5 0.0 -76.0 Q8.5 -90.0 34.5 -134.5 60.5 -178.5 99.0 -243.0 137.0 -307.5 181.0 -381.5 225.5 -455.5 269.0 -528.5 313.0 -601.5 351.0 -663.5 388.5 -725.0 414.0 -765.0 L424.0 -765.0 Q461.5 -708.5 513.0 -629.0 564.5 -550.0 620.0 -463.5 676.0 -377.0 727.0 -298.5 778.0 -219.5 815.0 -163.5 852.0 -107.0 865.5 -88.5 L662.5 31.5 Q647.0 5.5 628.0 -28.0 608.5 -61.5 592.5 -89.5 576.0 -117.5 570.5 -127.0 L262.0 -110.0 Q257.5 -102.0 246.0 -77.0 234.5 -52.5 220.5 -22.5 206.5 7.5 194.5 32.5" fill-rule="evenodd" stroke="none"/>
    </g>
    <g id="font_Lithos_Pro_Regular_r0">
      <path d="M311.5 -492.5 L311.5 -266.0 Q311.5 -255.5 311.5 -227.5 312.0 -199.0 312.5 -162.0 312.5 -125.5 313.0 -90.0 314.0 -54.5 314.5 -29.5 315.0 -5.0 315.5 0.0 L95.5 0.0 Q96.5 -7.0 97.5 -31.5 98.0 -56.0 98.5 -89.5 98.5 -123.0 98.5 -156.5 98.5 -190.0 98.5 -214.0 98.5 -238.5 98.5 -244.5 L98.5 -386.0 Q98.5 -394.5 98.5 -419.0 98.0 -443.0 97.5 -474.5 97.5 -506.0 97.0 -537.0 96.0 -568.0 95.5 -590.0 95.0 -612.5 94.5 -618.5 194.0 -619.0 285.0 -617.5 376.5 -616.5 444.5 -608.0 547.5 -595.0 602.0 -557.0 656.0 -519.0 656.5 -458.5 656.0 -404.5 626.0 -361.5 596.0 -319.0 539.5 -284.5 551.0 -273.0 577.0 -247.5 603.5 -222.5 634.5 -193.0 665.5 -163.0 691.5 -138.5 717.0 -113.5 727.0 -102.5 L545.0 29.5 Q537.5 19.0 516.0 -12.0 494.5 -43.0 466.0 -84.5 437.5 -126.0 409.0 -168.0 380.0 -209.5 358.0 -241.5 336.0 -273.5 328.0 -285.5 352.5 -297.5 375.5 -316.0 399.0 -334.0 414.0 -359.5 429.5 -384.5 430.0 -417.0 431.5 -448.5 405.5 -469.5 379.5 -491.0 311.5 -492.5" fill-rule="evenodd" stroke="none"/>
    </g>
    <g id="font_Lithos_Pro_Regular_e0">
      <path d="M519.5 -147.0 L522.5 9.5 Q510.0 9.5 468.5 8.5 427.5 7.5 371.0 6.0 315.0 5.0 257.5 3.5 200.5 2.0 156.0 1.0 112.0 0.0 94.5 0.0 95.0 -18.5 95.5 -56.0 96.0 -93.5 96.5 -136.0 96.5 -178.5 96.5 -211.0 96.5 -244.0 96.5 -253.0 L96.5 -368.5 Q96.5 -373.5 96.5 -397.5 96.0 -421.5 96.0 -455.0 95.5 -489.0 95.0 -523.5 95.0 -558.0 94.5 -584.0 94.5 -610.0 94.5 -618.5 113.0 -618.5 155.5 -620.0 198.5 -621.0 252.5 -623.0 307.0 -625.0 360.0 -627.0 413.0 -629.5 452.0 -631.0 491.5 -633.0 504.0 -634.0 L508.0 -484.5 Q494.0 -484.5 465.0 -483.5 435.5 -483.0 402.5 -482.0 369.0 -481.0 343.5 -480.0 317.5 -479.5 310.5 -479.5 L310.5 -373.5 Q318.0 -373.5 338.5 -374.0 359.0 -375.0 385.5 -376.0 412.0 -377.0 436.5 -378.5 461.5 -380.0 477.5 -381.5 L479.5 -236.5 Q469.5 -236.5 445.5 -237.0 421.5 -237.5 393.5 -238.0 365.0 -238.5 342.0 -239.0 319.0 -239.5 310.5 -239.5 L310.5 -145.0 Q320.0 -145.0 347.0 -144.5 373.5 -144.5 407.0 -144.5 441.0 -144.5 471.5 -145.0 502.0 -145.5 519.5 -147.0" fill-rule="evenodd" stroke="none"/>
    </g>
  </defs>
</svg>
