<?xml version="1.0" encoding="UTF-8" standalone="no"?>
<svg xmlns:ffdec="https://www.free-decompiler.com/flash" xmlns:xlink="http://www.w3.org/1999/xlink" ffdec:objectType="text" height="32.95px" width="296.55px" xmlns="http://www.w3.org/2000/svg">
  <g transform="matrix(1.0, 0.0, 0.0, 1.0, -0.05, -8.4)">
    <g transform="matrix(1.0, 0.0, 0.0, 1.0, 0.0, 0.0)">
      <use fill="#cd9e3f" height="32.95" transform="matrix(0.0391, 0.0, 0.0, 0.0391, 0.0, 39.0)" width="296.55" xlink:href="#font_Lithos_Pro_Regular_V0"/>
      <use fill="#cd9e3f" height="32.95" transform="matrix(0.0391, 0.0, 0.0, 0.0391, 32.3, 39.0)" width="296.55" xlink:href="#font_Lithos_Pro_Regular_I0"/>
      <use fill="#cd9e3f" height="32.95" transform="matrix(0.0391, 0.0, 0.0, 0.0391, 49.75, 39.0)" width="296.55" xlink:href="#font_Lithos_Pro_Regular_C0"/>
      <use fill="#cd9e3f" height="32.95" transform="matrix(0.0391, 0.0, 0.0, 0.0391, 75.55, 39.0)" width="296.55" xlink:href="#font_Lithos_Pro_Regular_T0"/>
      <use fill="#cd9e3f" height="32.95" transform="matrix(0.0391, 0.0, 0.0, 0.0391, 100.35, 39.0)" width="296.55" xlink:href="#font_Lithos_Pro_Regular_O0"/>
      <use fill="#cd9e3f" height="32.95" transform="matrix(0.0391, 0.0, 0.0, 0.0391, 136.25, 39.0)" width="296.55" xlink:href="#font_Lithos_Pro_Regular_R0"/>
      <use fill="#cd9e3f" height="32.95" transform="matrix(0.0391, 0.0, 0.0, 0.0391, 167.25, 39.0)" width="296.55" xlink:href="#font_Lithos_Pro_Regular_I0"/>
      <use fill="#cd9e3f" height="32.95" transform="matrix(0.0391, 0.0, 0.0, 0.0391, 184.7, 39.0)" width="296.55" xlink:href="#font_Lithos_Pro_Regular_O0"/>
      <use fill="#cd9e3f" height="32.95" transform="matrix(0.0391, 0.0, 0.0, 0.0391, 220.8, 39.0)" width="296.55" xlink:href="#font_Lithos_Pro_Regular_U0"/>
      <use fill="#cd9e3f" height="32.95" transform="matrix(0.0391, 0.0, 0.0, 0.0391, 254.7, 39.0)" width="296.55" xlink:href="#font_Lithos_Pro_Regular_S0"/>
    </g>
  </g>
  <defs>
    <g id="font_Lithos_Pro_Regular_V0">
      <path d="M625.5 -748.5 L625.5 -748.5 841.5 -637.0 Q831.0 -622.0 801.5 -575.0 772.0 -528.5 730.5 -462.0 688.5 -395.0 641.5 -320.0 594.5 -245.0 549.5 -173.0 504.5 -101.5 468.5 -44.5 432.5 12.5 412.5 43.0 L402.5 43.0 Q375.5 1.0 338.0 -60.0 300.5 -121.0 258.5 -192.0 216.5 -263.0 174.5 -334.0 132.5 -405.5 96.5 -467.0 60.5 -529.0 35.0 -571.5 10.0 -614.5 1.0 -629.0 L221.0 -748.5 Q228.0 -733.5 247.0 -693.5 266.0 -653.0 291.5 -599.0 317.0 -545.5 343.0 -490.0 369.0 -435.0 390.0 -390.5 410.5 -346.0 420.5 -324.5 430.5 -346.5 452.5 -392.5 474.5 -438.0 502.0 -494.5 529.5 -551.0 556.0 -605.0 582.5 -659.5 601.5 -698.5 620.5 -737.5 625.5 -748.5" fill-rule="evenodd" stroke="none"/>
    </g>
    <g id="font_Lithos_Pro_Regular_I0">
      <path d="M341.0 -419.0 L341.0 -419.0 341.0 -309.0 Q341.0 -269.5 341.5 -220.5 342.0 -172.0 342.5 -125.0 343.5 -78.0 344.0 -44.0 344.5 -10.0 345.0 0.0 L107.5 0.0 Q108.0 -14.5 108.5 -47.0 109.0 -80.0 109.5 -121.0 110.0 -162.5 110.0 -203.0 110.5 -243.0 110.5 -272.5 110.5 -302.0 110.5 -311.0 L110.5 -421.5 Q110.5 -427.5 110.0 -457.5 110.0 -487.0 109.5 -529.0 109.0 -571.0 108.5 -613.0 108.0 -655.5 108.0 -686.5 107.5 -717.5 107.5 -726.0 L345.0 -726.0 Q344.5 -718.5 344.0 -687.5 343.5 -656.5 342.5 -611.5 342.0 -566.5 341.5 -516.5 341.0 -466.0 341.0 -419.0" fill-rule="evenodd" stroke="none"/>
    </g>
    <g id="font_Lithos_Pro_Regular_C0">
      <path d="M606.5 -179.0 L606.5 -179.0 616.5 8.5 Q590.0 11.5 561.0 14.0 531.5 16.5 496.0 16.5 370.0 15.5 282.5 -12.5 194.5 -40.5 140.0 -86.0 85.5 -132.0 60.5 -185.5 35.5 -239.5 36.0 -292.0 36.0 -356.0 66.0 -423.5 95.5 -490.5 157.5 -553.0 219.5 -615.5 315.5 -665.0 411.5 -714.5 544.0 -743.5 L589.0 -547.0 Q481.5 -527.0 414.5 -491.5 347.5 -456.0 316.5 -411.0 285.5 -366.0 286.0 -317.5 286.5 -277.5 313.5 -245.0 340.5 -213.0 390.0 -193.5 439.5 -174.5 508.0 -174.0 539.0 -174.0 563.5 -176.0 588.0 -177.5 606.5 -179.0" fill-rule="evenodd" stroke="none"/>
    </g>
    <g id="font_Lithos_Pro_Regular_T0">
      <path d="M456.5 0.0 L456.5 0.0 220.0 0.0 Q220.5 -10.5 221.5 -40.0 222.0 -69.5 222.5 -110.0 222.5 -151.0 223.0 -196.5 223.0 -241.5 223.0 -284.0 L223.0 -553.0 Q204.0 -553.0 171.5 -552.0 139.0 -551.5 103.5 -550.5 67.5 -549.0 38.5 -548.5 9.5 -547.5 -3.5 -547.0 L-3.5 -726.0 Q11.5 -724.5 44.5 -723.5 77.5 -722.5 119.0 -721.5 160.5 -720.5 199.5 -719.5 239.0 -718.5 265.5 -718.0 292.5 -718.0 297.0 -718.0 L386.0 -718.0 Q392.5 -718.0 419.0 -718.0 445.5 -718.5 483.0 -719.5 520.5 -720.5 559.5 -721.5 599.0 -722.5 631.0 -723.5 663.0 -724.5 678.5 -726.0 L678.5 -547.0 Q672.0 -547.0 649.5 -548.0 626.5 -548.5 595.5 -549.5 565.0 -550.5 534.0 -551.0 503.5 -552.0 481.5 -552.5 459.0 -553.0 453.5 -553.0 L453.5 -268.0 Q453.5 -227.5 453.5 -184.5 454.0 -141.0 454.0 -102.0 454.5 -63.0 455.0 -35.5 456.0 -8.5 456.5 0.0" fill-rule="evenodd" stroke="none"/>
    </g>
    <g id="font_Lithos_Pro_Regular_O0">
      <path d="M447.5 -142.0 L447.5 -142.0 Q531.5 -142.5 580.5 -201.5 629.5 -261.0 631.5 -376.0 631.5 -475.5 589.5 -530.0 547.5 -584.5 473.0 -585.0 414.5 -584.0 374.0 -551.5 333.5 -519.0 312.0 -466.0 291.0 -412.5 291.0 -349.0 291.5 -280.5 313.0 -234.5 334.0 -188.5 369.5 -165.0 405.0 -142.0 447.5 -142.0 M436.0 16.5 L436.0 16.5 Q334.0 15.5 259.0 -15.0 184.5 -46.0 136.0 -97.0 88.0 -148.0 64.5 -210.0 41.0 -271.5 41.0 -334.0 41.0 -409.0 68.0 -481.5 95.5 -553.5 150.5 -613.0 205.5 -672.0 289.5 -707.5 373.0 -742.5 486.5 -743.5 608.5 -743.0 697.5 -700.0 786.0 -657.0 834.0 -576.5 882.0 -496.0 882.5 -383.0 882.5 -336.0 869.0 -282.0 855.0 -228.0 824.0 -175.0 793.0 -122.5 741.5 -79.0 689.5 -35.5 614.0 -10.0 539.0 16.0 436.0 16.5" fill-rule="evenodd" stroke="none"/>
    </g>
    <g id="font_Lithos_Pro_Regular_R0">
      <path d="M333.5 -584.5 L333.5 -584.5 333.5 -312.5 Q333.5 -300.0 334.0 -267.0 334.0 -233.5 334.5 -190.5 335.0 -147.0 336.0 -105.5 336.5 -64.0 337.5 -34.5 338.0 -5.5 338.5 0.0 L110.5 0.0 Q111.5 -8.5 112.5 -46.0 113.0 -83.0 113.0 -134.5 113.0 -186.0 113.0 -237.5 113.0 -289.0 112.5 -325.5 112.5 -362.5 112.5 -370.0 L112.5 -454.0 Q112.5 -464.0 112.5 -492.0 112.0 -520.0 111.5 -557.0 111.0 -594.0 110.5 -630.5 110.0 -667.0 109.0 -693.0 108.5 -719.5 107.5 -726.0 178.0 -726.0 246.5 -725.0 314.5 -724.0 375.0 -721.0 435.5 -717.5 482.0 -711.5 596.0 -697.0 655.5 -653.0 715.0 -609.5 715.5 -538.5 714.5 -476.0 679.5 -426.0 644.0 -376.0 583.5 -334.0 596.0 -320.0 626.0 -289.0 656.0 -257.5 692.0 -220.5 727.5 -183.5 757.0 -152.5 786.5 -121.5 797.5 -108.5 L610.0 32.5 Q602.5 20.0 577.5 -16.5 553.0 -53.0 520.0 -101.5 486.5 -150.5 453.5 -199.5 420.0 -248.5 394.5 -286.0 369.0 -324.0 360.0 -338.5 383.5 -351.5 410.5 -374.0 438.0 -396.5 457.5 -426.0 477.0 -455.0 478.0 -489.5 478.5 -514.0 465.0 -535.5 452.0 -556.5 420.0 -570.0 388.5 -583.5 333.5 -584.5" fill-rule="evenodd" stroke="none"/>
    </g>
    <g id="font_Lithos_Pro_Regular_U0">
      <path d="M308.0 -544.0 L308.0 -544.0 308.0 -474.0 Q308.0 -393.0 311.5 -338.0 315.5 -283.0 325.5 -248.0 336.0 -213.0 355.0 -190.5 373.0 -170.0 395.5 -161.5 418.0 -153.0 442.0 -153.5 469.5 -153.5 492.5 -165.0 516.0 -176.5 533.5 -201.5 543.5 -216.5 549.5 -236.5 555.5 -256.0 558.5 -289.0 561.5 -322.0 562.5 -377.5 563.0 -433.0 563.0 -519.0 L563.0 -558.0 Q563.0 -612.0 561.0 -660.0 559.0 -708.0 558.0 -737.5 L792.5 -737.5 Q792.5 -725.5 792.5 -698.5 793.0 -671.0 793.0 -634.0 793.5 -597.0 793.5 -556.0 L793.5 -509.0 Q794.0 -411.0 787.5 -336.0 781.5 -260.5 762.0 -202.5 743.0 -144.5 704.5 -98.0 657.0 -41.5 586.0 -12.5 515.0 16.5 429.0 16.5 386.0 17.5 334.5 8.5 283.0 0.0 232.5 -28.0 182.0 -55.5 142.0 -111.5 123.5 -139.0 110.5 -170.5 97.5 -202.0 89.5 -246.0 81.5 -290.0 78.0 -354.0 74.5 -418.5 74.5 -511.0 L74.5 -566.5 Q74.5 -591.0 75.0 -622.5 75.0 -654.0 75.5 -681.5 75.5 -709.5 75.5 -722.0 L314.0 -722.0 Q311.0 -702.0 309.5 -658.0 308.0 -613.5 308.0 -544.0" fill-rule="evenodd" stroke="none"/>
    </g>
    <g id="font_Lithos_Pro_Regular_S0">
      <path d="M95.5 18.5 L95.5 18.5 67.5 -156.5 Q118.5 -155.0 165.5 -163.5 213.0 -171.5 244.0 -188.5 274.5 -205.0 275.5 -229.5 276.0 -239.0 268.0 -248.5 260.0 -258.0 238.0 -272.0 216.0 -286.0 175.0 -309.0 142.0 -327.5 110.0 -351.5 78.5 -376.0 57.5 -408.0 36.5 -440.5 35.5 -483.5 36.0 -541.5 84.5 -597.5 133.5 -653.0 225.5 -693.0 317.5 -733.0 447.5 -745.5 L475.0 -574.5 Q379.0 -574.5 330.5 -558.5 282.5 -542.5 282.5 -511.0 282.5 -493.5 307.0 -477.5 332.0 -462.0 382.0 -438.5 410.5 -425.0 443.0 -404.0 476.0 -383.0 499.5 -351.0 523.5 -319.0 524.5 -273.5 524.5 -230.5 501.0 -185.5 477.5 -140.0 426.5 -98.5 375.5 -57.5 294.0 -26.5 212.0 4.5 95.5 18.5" fill-rule="evenodd" stroke="none"/>
    </g>
  </defs>
</svg>
