<?xml version="1.0" encoding="UTF-8" standalone="no"?>
<svg xmlns:ffdec="https://www.free-decompiler.com/flash" xmlns:xlink="http://www.w3.org/1999/xlink" ffdec:objectType="text" height="36.5px" width="166.95px" xmlns="http://www.w3.org/2000/svg">
  <g transform="matrix(1.0, 0.0, 0.0, 1.0, 2.0, 2.0)">
    <g transform="matrix(1.0, 0.0, 0.0, 1.0, -2.0, -2.0)">
      <use fill="#ceb06c" height="36.5" transform="matrix(0.0127, 0.0, 0.0, 0.0127, 0.0, 13.95)" width="166.95" xlink:href="#font_Lithos_Pro_Regular_M0"/>
      <use fill="#ceb06c" height="36.5" transform="matrix(0.0127, 0.0, 0.0, 0.0127, 14.2, 13.95)" width="166.95" xlink:href="#font_Lithos_Pro_Regular_a0"/>
      <use fill="#ceb06c" height="36.5" transform="matrix(0.0127, 0.0, 0.0, 0.0127, 20.65, 13.95)" width="166.95" xlink:href="#font_Lithos_Pro_Regular_t0"/>
      <use fill="#ceb06c" height="36.5" transform="matrix(0.0127, 0.0, 0.0, 0.0127, 26.35, 13.95)" width="166.95" xlink:href="#font_Lithos_Pro_Regular_c0"/>
      <use fill="#ceb06c" height="36.5" transform="matrix(0.0127, 0.0, 0.0, 0.0127, 34.0, 13.95)" width="166.95" xlink:href="#font_Lithos_Pro_Regular_h0"/>
    </g>
    <g transform="matrix(1.0, 0.0, 0.0, 1.0, -2.0, -2.0)">
      <use fill="#ceb06c" height="36.5" transform="matrix(0.0127, 0.0, 0.0, 0.0127, 48.6, 13.95)" width="166.95" xlink:href="#font_Lithos_Pro_Regular_E0"/>
      <use fill="#ceb06c" height="36.5" transform="matrix(0.0127, 0.0, 0.0, 0.0127, 56.05, 13.95)" width="166.95" xlink:href="#font_Lithos_Pro_Regular_x0"/>
      <use fill="#ceb06c" height="36.5" transform="matrix(0.0127, 0.0, 0.0, 0.0127, 64.6, 13.95)" width="166.95" xlink:href="#font_Lithos_Pro_Regular_p0"/>
      <use fill="#ceb06c" height="36.5" transform="matrix(0.0127, 0.0, 0.0, 0.0127, 71.85, 13.95)" width="166.95" xlink:href="#font_Lithos_Pro_Regular_:0"/>
    </g>
    <g transform="matrix(1.0, 0.0, 0.0, 1.0, -2.0, -2.0)">
      <use fill="#ceb06c" height="36.5" transform="matrix(0.0127, 0.0, 0.0, 0.0127, 0.0, 31.2)" width="166.95" xlink:href="#font_Lithos_Pro_Regular_F0"/>
      <use fill="#ceb06c" height="36.5" transform="matrix(0.0127, 0.0, 0.0, 0.0127, 6.95, 31.2)" width="166.95" xlink:href="#font_Lithos_Pro_Regular_i0"/>
      <use fill="#ceb06c" height="36.5" transform="matrix(0.0127, 0.0, 0.0, 0.0127, 11.5, 31.2)" width="166.95" xlink:href="#font_Lithos_Pro_Regular_r0"/>
      <use fill="#ceb06c" height="36.5" transform="matrix(0.0127, 0.0, 0.0, 0.0127, 19.5, 31.2)" width="166.95" xlink:href="#font_Lithos_Pro_Regular_s0"/>
      <use fill="#ceb06c" height="36.5" transform="matrix(0.0127, 0.0, 0.0, 0.0127, 25.75, 31.2)" width="166.95" xlink:href="#font_Lithos_Pro_Regular_t0"/>
    </g>
    <g transform="matrix(1.0, 0.0, 0.0, 1.0, -2.0, -2.0)">
      <use fill="#ceb06c" height="36.5" transform="matrix(0.0127, 0.0, 0.0, 0.0127, 37.0, 31.2)" width="166.95" xlink:href="#font_Lithos_Pro_Regular_T0"/>
      <use fill="#ceb06c" height="36.5" transform="matrix(0.0127, 0.0, 0.0, 0.0127, 45.45, 31.2)" width="166.95" xlink:href="#font_Lithos_Pro_Regular_i0"/>
      <use fill="#ceb06c" height="36.5" transform="matrix(0.0127, 0.0, 0.0, 0.0127, 50.0, 31.2)" width="166.95" xlink:href="#font_Lithos_Pro_Regular_m0"/>
      <use fill="#ceb06c" height="36.5" transform="matrix(0.0127, 0.0, 0.0, 0.0127, 62.25, 31.2)" width="166.95" xlink:href="#font_Lithos_Pro_Regular_e0"/>
    </g>
    <g transform="matrix(1.0, 0.0, 0.0, 1.0, -2.0, -2.0)">
      <use fill="#ceb06c" height="36.5" transform="matrix(0.0127, 0.0, 0.0, 0.0127, 73.0, 31.2)" width="166.95" xlink:href="#font_Lithos_Pro_Regular_B0"/>
      <use fill="#ceb06c" height="36.5" transform="matrix(0.0127, 0.0, 0.0, 0.0127, 81.3, 31.2)" width="166.95" xlink:href="#font_Lithos_Pro_Regular_o0"/>
      <use fill="#ceb06c" height="36.5" transform="matrix(0.0127, 0.0, 0.0, 0.0127, 90.9, 31.2)" width="166.95" xlink:href="#font_Lithos_Pro_Regular_n0"/>
      <use fill="#ceb06c" height="36.5" transform="matrix(0.0127, 0.0, 0.0, 0.0127, 101.35, 31.2)" width="166.95" xlink:href="#font_Lithos_Pro_Regular_u0"/>
      <use fill="#ceb06c" height="36.5" transform="matrix(0.0127, 0.0, 0.0, 0.0127, 110.95, 31.2)" width="166.95" xlink:href="#font_Lithos_Pro_Regular_s0"/>
    </g>
  </g>
  <defs>
    <g id="font_Lithos_Pro_Regular_M0">
      <path d="M127.0 26.5 L43.0 -5.5 Q47.5 -15.5 62.5 -58.0 77.5 -100.0 99.0 -164.0 120.5 -228.0 145.5 -302.0 170.5 -376.0 195.0 -450.0 219.0 -523.5 239.5 -585.5 260.0 -647.5 272.5 -687.0 285.5 -727.0 286.5 -733.0 L288.5 -733.0 Q297.0 -716.0 316.5 -677.5 336.0 -639.0 362.0 -587.5 388.0 -536.0 416.5 -481.0 445.0 -425.5 471.0 -375.0 497.0 -325.0 516.5 -288.5 535.5 -252.0 543.5 -238.5 553.0 -253.5 574.5 -290.5 596.0 -327.5 625.0 -377.0 653.5 -426.5 684.0 -479.5 714.5 -532.5 741.5 -580.0 769.0 -627.5 787.5 -660.0 806.5 -692.5 812.0 -701.0 L814.0 -701.0 Q823.0 -679.5 843.0 -628.5 862.5 -577.5 888.0 -509.0 914.0 -440.5 942.5 -365.0 970.5 -290.0 997.0 -219.5 1023.5 -149.0 1044.5 -94.0 1065.5 -39.0 1077.0 -11.5 L989.0 26.5 Q982.0 6.5 966.5 -38.0 950.5 -82.0 929.5 -140.0 908.5 -198.0 886.0 -260.0 863.5 -321.5 843.5 -376.5 823.0 -431.0 809.0 -469.0 794.5 -506.5 790.5 -517.0 778.5 -499.0 753.0 -455.0 727.5 -411.5 695.0 -355.0 662.5 -298.5 629.5 -241.5 596.5 -184.5 570.0 -139.0 543.5 -94.0 530.5 -73.0 L528.5 -73.0 Q505.5 -115.5 473.5 -177.0 441.5 -238.5 407.5 -305.5 374.0 -372.5 345.5 -431.0 317.0 -489.0 301.0 -525.0 295.5 -508.5 282.0 -465.0 268.0 -421.5 249.5 -363.0 231.0 -304.0 211.0 -240.5 191.0 -177.0 173.0 -120.0 155.0 -63.5 142.5 -24.0 130.5 15.5 127.0 26.5" fill-rule="evenodd" stroke="none"/>
    </g>
    <g id="font_Lithos_Pro_Regular_a0">
      <path d="M226.5 -255.0 L476.5 -265.0 Q473.0 -271.5 460.0 -295.0 447.5 -318.5 430.0 -350.5 412.5 -382.5 395.0 -414.0 378.0 -445.5 365.0 -468.0 352.5 -490.5 349.5 -495.5 345.0 -488.5 332.5 -464.0 319.5 -439.5 303.0 -406.0 286.0 -373.0 269.5 -340.0 253.0 -307.0 241.0 -283.5 229.5 -260.0 226.5 -255.0 M93.5 18.5 L14.5 -26.5 Q27.5 -49.5 55.0 -100.0 83.0 -150.5 119.0 -216.5 155.0 -283.0 193.5 -353.0 231.5 -423.5 265.0 -485.0 299.0 -547.0 322.0 -589.0 345.0 -630.5 350.5 -640.0 L352.5 -640.0 Q376.5 -601.5 414.5 -538.0 452.0 -474.0 496.0 -399.0 540.0 -323.5 582.5 -250.0 625.5 -176.5 660.0 -119.0 694.0 -61.0 713.0 -32.5 L630.0 17.5 Q623.0 4.0 605.5 -28.5 587.5 -61.0 566.5 -99.0 545.5 -137.0 529.0 -166.5 512.0 -196.0 508.0 -202.5 L191.5 -190.5 Q186.5 -179.0 173.0 -150.5 159.5 -121.5 143.5 -86.5 127.0 -52.0 113.0 -23.0 99.0 6.5 93.5 18.5" fill-rule="evenodd" stroke="none"/>
    </g>
    <g id="font_Lithos_Pro_Regular_t0">
      <path d="M346.0 0.0 L240.0 0.0 Q241.5 -7.5 242.5 -38.5 243.5 -69.5 244.5 -116.0 245.0 -162.5 245.5 -215.5 245.5 -269.0 246.0 -320.5 246.0 -372.5 246.0 -414.5 L246.0 -536.5 Q206.0 -536.5 164.0 -536.0 122.5 -535.0 86.0 -534.0 49.5 -533.0 25.0 -531.5 0.5 -530.0 -5.0 -528.5 L-5.0 -611.5 Q4.0 -609.5 31.0 -607.5 58.5 -606.0 94.0 -604.5 130.0 -603.5 165.0 -602.5 200.0 -602.0 224.0 -601.5 248.5 -601.0 252.0 -601.0 L334.0 -601.0 Q340.0 -601.0 364.0 -601.5 387.5 -601.5 421.0 -602.5 454.0 -603.5 488.0 -604.5 522.0 -606.0 548.0 -607.5 574.0 -609.0 584.0 -611.5 L584.0 -528.5 Q582.0 -530.0 554.5 -531.5 527.0 -533.0 486.5 -534.0 446.0 -535.0 405.0 -536.0 364.0 -536.5 335.0 -536.5 L335.0 -401.5 Q335.0 -334.0 336.5 -266.5 338.0 -198.5 340.0 -141.0 342.0 -83.0 343.5 -45.0 345.5 -7.5 346.0 0.0" fill-rule="evenodd" stroke="none"/>
    </g>
    <g id="font_Lithos_Pro_Regular_c0">
      <path d="M560.0 -69.0 L569.0 7.5 Q556.0 10.0 525.5 12.0 495.0 14.5 452.5 14.5 334.0 13.5 257.0 -14.0 179.5 -41.5 136.0 -83.0 92.5 -124.5 74.5 -167.5 57.0 -211.0 57.5 -243.5 57.5 -299.5 84.0 -357.5 111.0 -415.5 167.0 -468.5 222.5 -521.5 309.0 -562.5 395.5 -603.0 515.0 -625.0 L529.5 -547.0 Q452.5 -537.5 385.0 -513.0 317.0 -488.0 265.0 -450.0 212.5 -412.5 183.0 -363.5 153.0 -315.0 152.5 -258.0 152.0 -206.0 183.5 -160.5 214.5 -115.5 283.0 -88.0 351.0 -60.0 461.5 -59.0 490.5 -59.0 517.0 -62.0 543.5 -65.0 560.0 -69.0" fill-rule="evenodd" stroke="none"/>
    </g>
    <g id="font_Lithos_Pro_Regular_h0">
      <path d="M228.0 0.0 L132.0 0.0 Q132.5 -12.0 133.0 -40.0 133.5 -67.5 134.0 -103.0 134.5 -138.0 134.5 -172.0 135.0 -206.5 135.0 -231.5 135.0 -256.5 135.0 -264.0 L135.0 -358.0 Q135.0 -363.0 134.5 -388.0 134.5 -412.5 134.0 -447.0 133.5 -481.5 132.5 -516.5 132.0 -551.5 131.0 -577.0 130.5 -602.5 130.0 -609.5 L229.0 -609.5 Q228.5 -604.0 228.0 -583.0 227.0 -562.5 226.5 -533.5 225.5 -504.5 225.0 -476.0 224.5 -447.0 224.5 -426.0 224.0 -405.0 224.0 -400.0 L224.0 -336.5 618.5 -352.5 618.5 -418.5 Q618.5 -425.0 618.0 -451.5 618.0 -478.5 617.5 -512.0 617.0 -546.0 616.5 -573.5 616.0 -601.0 615.5 -609.5 L714.5 -609.5 Q714.0 -602.5 713.0 -574.5 712.0 -547.0 711.0 -509.0 710.5 -471.0 709.5 -432.5 708.5 -394.5 708.0 -367.0 707.5 -339.0 707.5 -332.0 L707.5 -245.5 Q707.5 -241.5 707.5 -217.0 708.0 -193.0 708.5 -159.0 708.5 -124.5 709.0 -90.0 710.0 -56.0 710.5 -31.0 711.0 -6.0 711.5 0.0 L613.5 0.0 Q614.5 -12.0 615.5 -41.5 616.5 -71.0 617.0 -105.0 618.0 -139.5 618.0 -166.5 618.5 -193.5 618.5 -200.5 L618.5 -288.5 224.0 -272.0 224.0 -219.0 Q224.0 -203.5 224.5 -171.0 225.0 -139.0 225.5 -102.5 226.5 -66.0 227.0 -37.5 227.5 -8.5 228.0 0.0" fill-rule="evenodd" stroke="none"/>
    </g>
    <g id="font_Lithos_Pro_Regular_E0">
      <path d="M491.0 -77.5 L495.5 10.5 Q489.5 10.5 455.0 9.5 421.0 8.5 372.5 7.0 324.5 5.5 276.0 4.0 227.5 2.0 192.5 1.0 157.5 0.0 150.5 0.0 151.5 -17.0 152.0 -49.5 152.5 -82.0 153.0 -121.5 153.0 -160.5 153.5 -198.0 153.5 -235.5 153.5 -262.5 153.5 -289.0 153.5 -297.0 L153.5 -434.0 Q153.5 -440.0 153.5 -468.0 153.0 -496.0 152.5 -535.0 152.5 -574.0 152.0 -613.5 151.5 -652.5 151.0 -681.0 151.0 -710.0 150.5 -716.5 159.0 -716.5 190.5 -718.0 222.0 -719.5 266.0 -722.0 309.5 -724.5 353.5 -727.5 397.5 -730.0 431.0 -732.5 464.0 -734.5 475.0 -736.0 L479.0 -655.0 Q465.5 -655.0 431.0 -654.0 396.5 -653.5 356.0 -652.5 315.5 -651.5 284.5 -650.5 253.0 -650.0 245.5 -650.0 L245.5 -390.0 Q253.0 -390.0 277.5 -391.0 301.5 -391.5 333.5 -393.5 365.0 -395.0 395.5 -397.0 425.5 -399.0 445.0 -401.0 L448.0 -320.5 Q438.5 -320.5 410.0 -321.0 381.0 -322.0 346.0 -322.5 311.0 -323.5 282.5 -324.0 254.0 -324.5 245.5 -324.5 L245.5 -74.5 Q255.5 -74.5 282.5 -74.0 309.5 -73.5 346.0 -73.5 382.5 -73.5 421.0 -74.5 459.0 -75.5 491.0 -77.5" fill-rule="evenodd" stroke="none"/>
    </g>
    <g id="font_Lithos_Pro_Regular_x0">
      <path d="M100.5 18.5 L36.0 -42.0 Q44.0 -48.5 68.5 -74.5 93.5 -100.0 126.5 -136.0 159.5 -172.0 192.5 -208.5 226.0 -245.5 251.0 -273.5 276.5 -301.5 286.0 -312.5 271.0 -329.0 241.0 -361.5 211.5 -394.0 177.0 -432.0 142.5 -469.5 113.5 -502.0 84.0 -534.0 70.0 -550.0 L137.5 -614.5 Q147.0 -602.0 170.0 -573.5 193.0 -545.0 223.0 -508.5 253.0 -471.5 284.0 -434.5 315.5 -397.5 341.0 -367.5 354.0 -381.5 385.0 -416.0 416.0 -450.5 452.5 -491.5 489.0 -533.0 519.0 -567.0 549.0 -601.0 560.0 -613.5 L622.5 -552.0 Q610.5 -540.0 576.5 -507.0 543.0 -473.5 502.5 -433.0 462.5 -393.0 430.0 -359.5 398.0 -326.5 388.0 -314.5 397.0 -304.5 421.0 -278.0 445.5 -251.5 477.5 -217.0 509.5 -182.0 542.0 -147.0 574.5 -111.5 600.0 -84.0 625.5 -56.5 637.0 -45.0 L566.5 17.5 Q558.5 8.0 534.5 -20.0 511.0 -48.0 479.5 -85.5 448.5 -122.5 417.0 -159.5 386.0 -196.5 362.5 -224.0 339.5 -251.5 332.0 -260.0 328.0 -254.5 305.5 -227.0 283.0 -199.0 250.5 -160.0 218.5 -121.0 186.0 -82.0 153.5 -43.5 130.0 -15.5 106.0 12.5 100.5 18.5" fill-rule="evenodd" stroke="none"/>
    </g>
    <g id="font_Lithos_Pro_Regular_p0">
      <path d="M223.0 -541.0 L223.0 -248.0 Q279.0 -258.5 324.5 -280.0 370.0 -301.5 397.5 -336.5 424.5 -371.0 425.0 -421.0 425.5 -433.5 419.0 -453.0 412.5 -472.5 392.0 -492.0 372.0 -512.0 331.0 -526.0 290.5 -539.5 223.0 -541.0 M224.0 0.0 L131.0 0.0 Q131.5 -15.5 132.5 -55.5 133.0 -95.5 134.0 -145.5 134.5 -195.5 134.5 -240.0 135.0 -285.0 135.0 -309.5 L135.0 -405.0 Q135.0 -413.5 134.5 -443.5 134.5 -473.5 134.0 -510.0 133.5 -546.0 133.5 -575.0 133.0 -603.5 133.0 -609.5 153.0 -609.5 185.0 -609.0 217.0 -608.0 252.0 -606.0 287.5 -604.0 317.5 -599.5 412.0 -584.5 465.0 -542.5 518.0 -500.5 519.0 -431.5 518.5 -368.5 481.0 -317.5 443.5 -266.5 377.0 -231.5 311.0 -196.0 223.0 -180.5 L223.0 -131.0 Q223.0 -124.0 223.0 -106.0 223.0 -88.0 223.0 -66.0 223.0 -44.0 223.5 -26.0 223.5 -7.5 224.0 0.0" fill-rule="evenodd" stroke="none"/>
    </g>
    <g id="font_Lithos_Pro_Regular_:0">
      <path d="M83.0 -397.5 L83.0 -507.0 193.5 -507.0 193.5 -397.5 83.0 -397.5 M83.0 -41.0 L83.0 -150.5 193.5 -150.5 193.5 -41.0 83.0 -41.0" fill-rule="evenodd" stroke="none"/>
    </g>
    <g id="font_Lithos_Pro_Regular_F0">
      <path d="M248.5 0.0 L145.5 0.0 Q148.0 -17.0 149.5 -49.5 151.0 -82.0 152.0 -121.5 152.5 -160.5 153.0 -198.0 153.5 -235.5 153.5 -263.0 153.5 -290.0 153.5 -298.0 L153.5 -434.0 Q153.5 -440.0 153.5 -468.0 153.0 -496.0 152.5 -535.0 152.5 -574.0 152.0 -613.5 151.0 -652.5 150.5 -681.0 150.0 -709.5 149.5 -716.5 158.0 -716.5 189.0 -717.5 220.0 -719.0 262.5 -720.5 305.0 -722.5 348.5 -724.5 392.0 -727.0 426.0 -728.5 459.5 -730.5 473.0 -732.0 L477.0 -653.0 245.5 -648.0 245.5 -387.0 Q253.5 -387.0 279.5 -388.0 306.0 -389.0 340.5 -390.5 374.5 -392.0 406.5 -393.5 438.5 -395.0 457.5 -396.0 L460.5 -317.5 245.5 -321.5 245.5 -224.5 Q245.5 -218.5 245.5 -196.0 245.5 -173.5 245.5 -142.5 245.5 -111.5 245.5 -80.5 246.0 -49.5 246.5 -27.5 247.5 -5.0 248.5 0.0" fill-rule="evenodd" stroke="none"/>
    </g>
    <g id="font_Lithos_Pro_Regular_i0">
      <path d="M224.0 -357.5 L224.0 -263.5 Q224.0 -230.0 224.5 -188.5 225.0 -147.0 225.5 -106.5 226.5 -66.5 227.0 -37.5 227.5 -8.5 228.0 0.0 L132.0 0.0 Q132.5 -12.0 133.0 -40.0 133.5 -67.5 134.0 -103.0 134.5 -138.0 134.5 -172.5 135.0 -207.0 135.0 -232.0 135.0 -257.0 135.0 -264.5 L135.0 -358.5 Q135.0 -364.0 134.5 -388.5 134.5 -413.0 134.0 -447.5 133.5 -482.0 132.5 -516.5 132.0 -551.5 131.0 -577.0 130.5 -602.5 130.0 -609.5 L229.0 -609.5 Q228.5 -603.0 227.5 -578.5 226.5 -553.5 226.0 -517.0 225.0 -480.5 224.5 -439.0 224.0 -397.0 224.0 -357.5" fill-rule="evenodd" stroke="none"/>
    </g>
    <g id="font_Lithos_Pro_Regular_r0">
      <path d="M224.0 -543.0 L224.0 -266.5 Q224.0 -256.0 224.5 -227.5 224.5 -199.0 225.0 -162.5 225.5 -125.5 226.5 -90.0 227.0 -54.5 228.0 -29.5 228.5 -5.0 229.0 0.0 L133.0 0.0 Q134.0 -7.0 134.5 -39.0 135.0 -70.5 135.0 -114.5 135.0 -158.5 135.0 -202.5 135.0 -246.5 135.0 -277.5 135.0 -309.0 135.0 -315.5 L135.0 -386.0 Q135.0 -397.5 134.5 -430.0 134.5 -462.5 133.5 -501.5 133.0 -541.0 132.0 -571.5 131.0 -602.0 130.0 -609.5 164.0 -610.0 218.5 -609.5 273.0 -609.0 332.5 -602.5 425.5 -591.5 476.0 -555.5 527.0 -519.5 527.5 -462.0 526.5 -408.0 490.0 -363.0 454.0 -318.0 395.0 -284.0 405.0 -270.5 435.0 -237.0 465.0 -203.0 501.5 -162.5 538.5 -122.0 569.0 -89.5 599.5 -57.0 610.5 -46.0 L539.5 16.5 Q536.0 12.0 512.5 -16.5 489.0 -45.0 455.5 -86.5 422.0 -127.5 387.5 -170.5 352.5 -213.0 326.0 -246.0 299.5 -279.0 290.5 -291.0 308.5 -300.0 332.0 -313.5 355.5 -327.0 377.5 -346.0 400.0 -365.0 415.0 -390.5 429.5 -416.0 430.0 -449.0 431.0 -470.0 415.5 -491.0 399.5 -512.5 355.0 -527.0 310.0 -542.0 224.0 -543.0" fill-rule="evenodd" stroke="none"/>
    </g>
    <g id="font_Lithos_Pro_Regular_s0">
      <path d="M131.0 16.5 L107.5 -55.5 Q143.5 -62.0 180.5 -73.0 218.0 -83.5 250.0 -99.0 281.5 -114.5 301.5 -135.0 321.0 -155.0 321.5 -181.5 321.5 -214.0 297.0 -235.5 272.5 -257.0 222.0 -280.5 161.0 -309.0 123.0 -341.0 85.0 -373.5 84.0 -420.0 84.5 -456.5 108.5 -490.0 132.0 -523.0 171.5 -550.5 211.0 -578.0 259.5 -597.5 308.0 -617.0 358.5 -626.0 L377.5 -554.0 Q354.0 -551.0 321.0 -542.5 288.0 -533.5 255.0 -519.5 222.5 -505.0 200.5 -484.0 179.0 -462.5 178.0 -434.5 179.0 -411.0 196.5 -394.5 214.5 -377.5 239.0 -365.0 264.0 -352.0 284.5 -341.0 320.5 -322.0 350.0 -304.0 380.0 -285.5 398.0 -261.5 416.0 -237.5 416.5 -202.0 416.0 -156.0 383.0 -113.5 349.5 -70.5 286.0 -36.5 222.5 -2.5 131.0 16.5" fill-rule="evenodd" stroke="none"/>
    </g>
    <g id="font_Lithos_Pro_Regular_T0">
      <path d="M391.5 0.0 L281.0 0.0 Q282.5 -9.0 283.5 -45.5 284.5 -82.0 285.5 -136.5 286.0 -191.0 286.5 -254.0 286.5 -316.5 287.0 -377.5 287.0 -439.0 287.0 -488.5 L287.0 -641.0 Q242.5 -641.0 196.0 -640.0 149.5 -639.5 108.0 -638.0 66.5 -636.5 37.0 -635.0 8.0 -633.5 -3.0 -632.0 L-3.0 -719.0 Q10.5 -716.5 42.5 -714.5 74.5 -712.5 115.5 -711.0 156.5 -709.5 195.5 -708.5 234.5 -707.5 261.0 -707.0 288.0 -706.5 292.0 -706.5 L381.0 -706.5 Q387.5 -706.5 414.0 -707.0 440.5 -707.5 477.5 -708.5 515.0 -709.5 553.5 -711.0 592.5 -712.5 623.5 -714.5 654.5 -716.5 669.0 -719.0 L669.0 -632.0 Q662.5 -633.5 629.5 -635.0 597.0 -636.5 550.5 -638.0 504.5 -639.5 458.5 -640.0 412.5 -641.0 379.0 -641.0 L379.0 -472.0 Q379.0 -393.0 380.5 -313.5 382.0 -234.0 384.5 -166.0 386.5 -97.5 388.5 -53.0 390.5 -8.5 391.5 0.0" fill-rule="evenodd" stroke="none"/>
    </g>
    <g id="font_Lithos_Pro_Regular_m0">
      <path d="M115.0 22.5 L31.0 -4.0 Q35.5 -14.5 51.5 -61.5 68.0 -108.0 91.0 -176.5 114.5 -245.0 140.0 -320.0 165.0 -395.0 187.5 -462.0 210.0 -529.0 224.5 -573.0 239.0 -617.5 241.0 -624.0 L245.0 -624.0 Q254.0 -606.5 276.0 -563.5 298.5 -521.0 327.5 -465.5 356.5 -410.5 385.5 -355.5 414.5 -300.5 437.0 -259.0 459.5 -217.0 468.0 -201.0 477.5 -216.5 502.5 -258.5 527.5 -300.0 560.0 -354.0 592.0 -408.0 623.5 -460.5 655.0 -513.0 677.5 -550.5 700.0 -588.0 705.5 -597.5 L708.5 -597.5 Q716.0 -579.0 732.5 -535.5 749.0 -492.5 771.5 -434.0 793.5 -375.5 818.0 -311.5 842.5 -247.5 865.5 -187.0 889.0 -127.0 907.0 -80.0 925.0 -33.0 935.0 -9.5 L850.0 22.5 Q843.0 1.5 826.0 -47.0 809.5 -95.5 787.5 -156.5 766.0 -218.0 745.0 -277.0 724.0 -336.5 708.5 -379.5 693.5 -422.0 689.5 -433.5 680.0 -418.0 657.5 -381.5 635.5 -345.5 606.5 -298.0 577.5 -250.5 548.0 -202.0 518.5 -153.5 494.5 -114.5 470.5 -75.5 458.0 -55.5 L456.0 -55.5 Q436.0 -93.0 408.0 -144.5 380.5 -196.5 351.0 -252.5 321.5 -308.0 295.5 -356.5 270.0 -405.0 254.0 -435.5 250.0 -421.0 239.0 -385.0 228.0 -349.0 213.0 -300.0 198.0 -251.5 182.0 -199.0 166.0 -146.5 151.5 -99.0 137.0 -52.0 127.5 -19.5 117.5 13.5 115.0 22.5" fill-rule="evenodd" stroke="none"/>
    </g>
    <g id="font_Lithos_Pro_Regular_e0">
      <path d="M458.5 -68.5 L461.5 9.5 Q451.5 9.5 417.0 8.5 383.0 7.5 337.5 6.0 292.0 5.0 247.0 3.5 202.0 2.0 170.5 1.0 138.5 0.0 132.0 0.0 133.0 -18.5 133.5 -56.0 134.5 -93.5 134.5 -136.0 135.0 -178.0 135.0 -211.0 135.0 -244.0 135.0 -252.5 L135.0 -368.5 Q135.0 -373.5 135.0 -397.5 134.5 -421.5 134.0 -454.5 134.0 -488.0 133.5 -521.5 133.0 -555.0 132.5 -579.5 132.5 -603.5 132.0 -609.5 139.5 -609.5 168.5 -611.0 197.5 -612.0 238.0 -614.5 278.5 -616.5 320.0 -618.5 362.0 -621.0 395.0 -623.0 428.5 -625.0 443.0 -626.0 L447.0 -552.0 Q431.0 -552.0 397.5 -551.5 364.0 -551.0 326.5 -550.0 288.5 -549.0 259.5 -548.5 231.0 -548.0 224.0 -548.0 L224.0 -334.5 Q231.0 -334.5 253.5 -335.0 276.0 -336.0 305.5 -337.0 335.5 -338.5 365.0 -340.0 394.5 -342.0 416.5 -343.5 L419.5 -269.0 Q407.0 -269.0 378.5 -269.5 350.5 -270.0 317.0 -271.0 284.5 -271.0 258.5 -271.5 232.5 -272.0 224.0 -272.0 L224.0 -65.5 Q233.0 -65.5 258.0 -65.0 283.0 -65.0 317.0 -65.0 351.5 -65.0 388.5 -66.0 425.5 -66.5 458.5 -68.5" fill-rule="evenodd" stroke="none"/>
    </g>
    <g id="font_Lithos_Pro_Regular_B0">
      <path d="M241.5 -651.0 L241.5 -402.5 Q298.0 -404.5 340.0 -425.0 382.5 -445.0 405.5 -476.5 428.5 -507.5 429.0 -542.5 428.5 -577.0 409.5 -598.0 391.0 -619.5 362.0 -630.5 332.5 -642.0 300.5 -646.0 268.5 -650.5 241.5 -651.0 M241.5 -344.0 L241.5 -67.5 Q298.0 -73.0 346.5 -93.0 394.5 -112.5 424.0 -146.5 453.5 -180.0 454.5 -228.5 453.5 -283.0 396.5 -315.5 339.5 -347.5 241.5 -344.0 M153.5 -379.0 L153.5 -492.5 Q153.5 -505.0 153.0 -537.5 153.0 -569.5 152.0 -608.0 151.5 -646.0 150.5 -676.5 149.5 -707.5 148.5 -716.5 189.0 -716.5 224.5 -715.5 259.5 -714.0 289.5 -710.5 366.5 -703.5 414.0 -687.0 461.0 -670.5 485.0 -648.0 509.5 -626.0 517.5 -601.5 526.0 -577.5 525.5 -556.0 526.0 -536.0 516.0 -508.5 506.0 -481.0 478.0 -451.5 450.0 -422.0 396.0 -396.5 L396.0 -394.0 Q432.5 -388.5 469.5 -368.5 506.0 -348.0 531.0 -314.5 556.0 -280.5 557.0 -234.5 556.5 -172.5 508.0 -118.0 459.0 -64.0 369.5 -29.5 280.0 4.5 156.5 6.0 L148.5 6.0 Q150.0 -12.0 151.0 -53.5 152.0 -95.5 152.5 -148.0 153.0 -200.5 153.0 -251.0 153.5 -301.5 153.5 -337.0 153.5 -372.0 153.5 -379.0" fill-rule="evenodd" stroke="none"/>
    </g>
    <g id="font_Lithos_Pro_Regular_o0">
      <path d="M380.0 -53.0 L380.0 -53.0 Q451.0 -53.0 510.0 -84.5 569.0 -116.0 604.5 -176.0 640.0 -236.5 641.0 -322.5 640.0 -400.5 608.5 -452.5 576.5 -504.5 524.5 -530.5 472.5 -556.5 410.5 -556.5 329.0 -555.5 271.0 -519.5 212.5 -483.5 181.5 -423.0 151.0 -362.0 150.5 -287.0 151.0 -221.0 178.5 -168.5 206.0 -115.5 257.0 -84.5 308.5 -53.5 380.0 -53.0 M371.5 14.5 L371.5 14.5 Q269.5 13.5 199.5 -26.0 129.0 -65.5 93.0 -130.5 56.5 -195.5 56.5 -273.5 57.0 -371.5 101.5 -450.5 146.5 -529.5 228.5 -576.0 310.5 -623.0 424.0 -624.0 515.0 -623.5 585.0 -588.5 655.0 -553.5 695.0 -487.5 735.0 -421.0 736.0 -327.0 736.5 -274.5 717.0 -216.0 697.5 -157.5 654.5 -105.0 611.5 -52.5 542.0 -19.5 472.0 13.5 371.5 14.5" fill-rule="evenodd" stroke="none"/>
    </g>
    <g id="font_Lithos_Pro_Regular_n0">
      <path d="M197.5 6.0 L103.5 0.0 Q105.0 -17.5 107.5 -64.0 110.5 -111.0 114.0 -176.0 117.5 -241.0 121.5 -313.0 125.0 -384.5 128.5 -451.5 132.0 -519.0 134.5 -569.5 137.0 -620.5 138.0 -644.0 L143.5 -644.0 Q151.0 -636.0 186.5 -600.0 221.5 -564.0 274.0 -511.5 326.0 -459.0 383.5 -400.5 441.5 -342.5 493.5 -290.0 546.0 -237.0 581.5 -201.5 617.5 -165.5 625.5 -157.5 625.5 -165.0 625.5 -198.0 626.0 -231.5 626.0 -280.5 626.5 -329.5 626.5 -384.0 627.0 -438.5 627.5 -488.0 627.5 -537.5 628.0 -571.5 628.5 -605.5 628.5 -613.5 L719.5 -609.5 Q718.5 -593.0 715.5 -545.0 713.0 -497.5 710.0 -429.0 707.0 -360.5 703.5 -282.0 700.5 -204.0 698.0 -126.0 695.5 -48.0 694.0 18.5 L690.0 18.5 Q682.5 11.5 645.5 -24.5 608.5 -61.0 554.5 -114.5 500.5 -168.5 441.0 -227.5 381.5 -286.5 329.0 -339.5 276.0 -392.0 241.5 -426.5 207.5 -461.0 203.5 -465.0 L201.5 -465.0 Q202.0 -460.0 202.0 -426.5 201.5 -393.0 201.0 -342.0 200.5 -291.0 200.0 -234.0 199.0 -177.0 198.5 -125.0 198.0 -73.5 197.5 -37.5 197.0 -2.0 197.5 6.0" fill-rule="evenodd" stroke="none"/>
    </g>
    <g id="font_Lithos_Pro_Regular_u0">
      <path d="M184.5 -462.0 L184.5 -403.5 Q184.5 -333.5 188.0 -285.0 191.5 -237.0 201.0 -202.5 210.0 -168.0 227.5 -140.0 254.5 -96.5 293.0 -76.0 332.0 -55.5 382.0 -56.0 441.5 -57.0 478.5 -80.0 516.0 -103.5 538.5 -139.0 559.5 -171.0 569.0 -216.0 578.5 -261.0 580.5 -318.5 583.0 -376.0 582.5 -444.5 L582.5 -474.5 Q582.5 -520.0 580.5 -557.0 578.5 -594.0 577.5 -619.0 L670.5 -619.0 Q670.5 -603.5 671.0 -564.5 671.5 -525.5 671.5 -473.5 L671.5 -432.5 Q672.0 -349.0 665.5 -284.5 659.5 -219.5 642.0 -169.0 624.0 -118.5 589.5 -78.5 549.0 -31.0 496.0 -8.5 443.5 14.5 369.5 14.5 344.0 15.0 307.0 9.0 269.5 3.0 230.0 -19.5 190.5 -42.0 157.0 -90.0 141.0 -113.5 129.0 -141.0 117.5 -169.0 110.0 -207.0 102.5 -245.5 99.0 -300.5 95.5 -355.5 95.5 -434.5 L95.5 -481.5 Q95.5 -502.0 96.0 -527.0 96.0 -551.5 96.5 -573.0 96.5 -595.0 96.5 -605.5 L188.5 -605.5 Q187.5 -589.5 186.0 -555.5 184.5 -521.5 184.5 -462.0" fill-rule="evenodd" stroke="none"/>
    </g>
  </defs>
</svg>
