<?xml version="1.0" encoding="UTF-8" standalone="no"?>
<svg xmlns:ffdec="https://www.free-decompiler.com/flash" xmlns:xlink="http://www.w3.org/1999/xlink" ffdec:objectType="text" height="36.5px" width="71.7px" xmlns="http://www.w3.org/2000/svg">
  <g transform="matrix(1.0, 0.0, 0.0, 1.0, -64.65, 2.0)">
    <g transform="matrix(1.0, 0.0, 0.0, 1.0, 64.65, -2.0)">
      <use fill="#c19c46" height="36.5" transform="matrix(0.0127, 0.0, 0.0, 0.0127, 44.1, 13.95)" width="71.7" xlink:href="#font_Lithos_Pro_Regular_20"/>
      <use fill="#c19c46" height="36.5" transform="matrix(0.0127, 0.0, 0.0, 0.0127, 53.3, 13.95)" width="71.7" xlink:href="#font_Lithos_Pro_Regular_50"/>
      <use fill="#c19c46" height="36.5" transform="matrix(0.0127, 0.0, 0.0, 0.0127, 62.5, 13.95)" width="71.7" xlink:href="#font_Lithos_Pro_Regular_00"/>
    </g>
    <g transform="matrix(1.0, 0.0, 0.0, 1.0, 64.65, -2.0)">
      <use fill="#c19c46" height="36.5" transform="matrix(0.0127, 0.0, 0.0, 0.0127, 34.9, 31.2)" width="71.7" xlink:href="#font_Lithos_Pro_Regular_10"/>
      <use fill="#c19c46" height="36.5" transform="matrix(0.0127, 0.0, 0.0, 0.0127, 44.1, 31.2)" width="71.7" xlink:href="#font_Lithos_Pro_Regular_20"/>
      <use fill="#c19c46" height="36.5" transform="matrix(0.0127, 0.0, 0.0, 0.0127, 53.3, 31.2)" width="71.7" xlink:href="#font_Lithos_Pro_Regular_00"/>
      <use fill="#c19c46" height="36.5" transform="matrix(0.0127, 0.0, 0.0, 0.0127, 62.5, 31.2)" width="71.7" xlink:href="#font_Lithos_Pro_Regular_30"/>
    </g>
  </g>
  <defs>
    <g id="font_Lithos_Pro_Regular_20">
      <path d="M574.5 -79.5 L574.5 8.5 Q564.0 7.5 524.5 6.0 485.0 5.0 428.0 3.5 371.0 2.5 308.5 1.5 246.0 0.5 189.5 0.0 L73.5 0.0 71.5 -10.0 Q124.5 -45.5 186.0 -93.0 248.0 -140.5 304.5 -196.5 360.5 -253.0 396.5 -314.0 433.0 -375.0 434.0 -437.0 433.5 -490.5 406.5 -530.0 380.0 -569.0 337.0 -595.0 294.0 -621.0 245.0 -634.5 195.5 -648.0 149.5 -650.0 L168.0 -734.0 Q284.5 -719.5 366.0 -677.5 447.5 -635.5 490.5 -575.0 533.0 -515.0 533.5 -446.0 532.5 -384.0 504.5 -328.0 477.0 -272.0 434.5 -224.5 392.5 -176.5 347.5 -138.0 303.0 -100.0 268.0 -72.5 L269.0 -68.5 574.5 -79.5" fill-rule="evenodd" stroke="none"/>
    </g>
    <g id="font_Lithos_Pro_Regular_50">
      <path d="M276.5 -640.0 L257.0 -529.5 Q368.5 -510.0 428.0 -474.5 488.0 -439.5 510.5 -397.0 532.5 -354.0 531.5 -311.5 530.5 -253.5 498.0 -199.5 465.5 -145.0 412.0 -100.0 359.0 -54.5 296.0 -23.0 233.0 9.0 171.0 22.5 L148.5 -57.5 Q191.0 -65.0 240.0 -84.5 289.0 -103.5 333.0 -134.0 377.0 -164.0 405.0 -204.5 433.0 -245.0 434.0 -295.0 433.0 -362.0 363.5 -404.0 294.5 -446.0 172.0 -458.0 L214.0 -714.5 Q224.0 -715.0 255.0 -716.0 285.5 -717.0 327.5 -718.5 369.5 -719.5 413.0 -721.0 456.0 -722.5 491.0 -724.0 526.0 -725.5 542.5 -727.0 L541.5 -638.0 276.5 -640.0" fill-rule="evenodd" stroke="none"/>
    </g>
    <g id="font_Lithos_Pro_Regular_00">
      <path d="M364.5 -97.5 L364.5 -97.5 Q404.0 -97.5 444.5 -114.0 485.0 -130.5 519.5 -164.0 554.0 -198.0 575.5 -249.0 596.5 -300.5 597.0 -370.0 596.5 -437.5 565.5 -494.5 534.0 -551.0 481.0 -585.5 427.5 -619.5 360.5 -620.5 293.0 -620.0 240.5 -585.5 188.0 -551.5 157.5 -491.0 127.5 -431.0 127.0 -352.5 127.0 -307.0 142.0 -262.0 157.0 -217.0 186.5 -180.0 216.5 -143.0 261.0 -120.5 305.5 -98.0 364.5 -97.5 M350.0 -17.5 L350.0 -17.5 Q291.5 -17.5 236.0 -38.5 180.5 -60.0 135.5 -102.5 91.0 -144.5 64.0 -208.5 37.5 -272.0 37.0 -357.5 37.5 -435.5 64.5 -498.5 91.5 -561.5 138.5 -606.5 185.0 -651.5 244.5 -676.0 304.0 -700.0 369.5 -700.5 461.5 -700.0 533.0 -658.0 604.5 -616.0 645.0 -540.5 686.0 -465.5 687.0 -365.5 687.0 -298.0 663.5 -236.0 640.0 -174.0 596.0 -125.0 551.5 -75.5 489.5 -47.0 427.5 -18.0 350.0 -17.5" fill-rule="evenodd" stroke="none"/>
    </g>
    <g id="font_Lithos_Pro_Regular_10">
      <path d="M434.0 0.0 L338.0 0.0 Q338.0 -14.0 339.5 -57.5 341.0 -100.5 342.5 -162.0 344.0 -224.0 344.0 -294.0 L344.0 -559.0 Q328.5 -540.5 301.5 -513.5 275.0 -486.5 248.0 -460.0 221.5 -434.0 206.0 -417.5 L159.5 -473.0 Q166.5 -479.0 193.0 -504.0 220.0 -528.5 257.0 -563.5 294.5 -598.5 332.0 -634.5 370.0 -670.5 398.5 -698.0 427.5 -726.0 437.0 -737.0 L440.0 -737.0 Q440.0 -719.0 438.0 -673.0 436.0 -626.5 434.0 -562.5 432.0 -499.0 432.0 -429.0 L432.0 -271.5 Q432.0 -160.5 432.0 -92.5 432.0 -24.0 434.0 0.0" fill-rule="evenodd" stroke="none"/>
    </g>
    <g id="font_Lithos_Pro_Regular_30">
      <path d="M192.5 -660.5 L205.0 -739.5 Q250.5 -737.0 303.5 -723.5 356.0 -710.5 404.0 -686.0 452.0 -661.5 482.5 -626.5 513.0 -591.5 514.0 -546.0 513.0 -509.0 492.5 -475.5 472.5 -442.5 443.0 -417.5 414.0 -392.5 387.0 -381.0 L387.0 -379.0 Q427.5 -369.0 461.0 -349.5 495.0 -330.0 515.5 -300.0 536.0 -270.5 536.5 -229.5 535.5 -177.0 502.5 -131.5 469.5 -86.5 413.5 -51.5 358.0 -17.0 290.0 3.0 221.5 23.0 150.5 25.5 L144.5 -57.5 Q189.0 -54.5 238.5 -63.5 288.0 -72.5 332.0 -93.5 376.0 -114.5 403.5 -147.0 431.0 -180.0 432.0 -224.5 431.0 -259.0 409.0 -283.0 387.0 -307.5 353.0 -323.0 319.0 -338.5 282.5 -346.0 246.0 -353.5 216.5 -354.5 L216.5 -385.0 Q248.0 -388.0 283.0 -400.0 318.0 -411.5 349.0 -430.5 379.5 -449.0 399.0 -474.5 418.5 -499.5 419.0 -529.5 418.5 -561.5 398.5 -585.5 378.5 -610.0 345.5 -626.5 312.5 -643.0 272.5 -651.5 232.5 -660.0 192.5 -660.5" fill-rule="evenodd" stroke="none"/>
    </g>
  </defs>
</svg>
