<?xml version="1.0" encoding="UTF-8" standalone="no"?>
<svg xmlns:ffdec="https://www.free-decompiler.com/flash" xmlns:xlink="http://www.w3.org/1999/xlink" ffdec:objectType="text" height="26.9px" width="92.25px" xmlns="http://www.w3.org/2000/svg">
  <g transform="matrix(1.0, 0.0, 0.0, 1.0, -0.7, -1.45)">
    <g transform="matrix(1.0, 0.0, 0.0, 1.0, 0.0, 0.0)">
      <use fill="#ceb06c" height="26.9" transform="matrix(0.0117, 0.0, 0.0, 0.0117, 0.0, 11.0)" width="92.25" xlink:href="#font_Lithos_Pro_Regular_G0"/>
      <use fill="#ceb06c" height="26.9" transform="matrix(0.0117, 0.0, 0.0, 0.0117, 8.9, 11.0)" width="92.25" xlink:href="#font_Lithos_Pro_Regular_o0"/>
      <use fill="#ceb06c" height="26.9" transform="matrix(0.0117, 0.0, 0.0, 0.0117, 18.1, 11.0)" width="92.25" xlink:href="#font_Lithos_Pro_Regular_l0"/>
      <use fill="#ceb06c" height="26.9" transform="matrix(0.0117, 0.0, 0.0, 0.0117, 24.0, 11.0)" width="92.25" xlink:href="#font_Lithos_Pro_Regular_d0"/>
      <use fill="#ceb06c" height="26.9" transform="matrix(0.0117, 0.0, 0.0, 0.0117, 36.25, 11.0)" width="92.25" xlink:href="#font_Lithos_Pro_Regular_E0"/>
      <use fill="#ceb06c" height="26.9" transform="matrix(0.0117, 0.0, 0.0, 0.0117, 43.15, 11.0)" width="92.25" xlink:href="#font_Lithos_Pro_Regular_a0"/>
      <use fill="#ceb06c" height="26.9" transform="matrix(0.0117, 0.0, 0.0, 0.0117, 51.65, 11.0)" width="92.25" xlink:href="#font_Lithos_Pro_Regular_r0"/>
      <use fill="#ceb06c" height="26.9" transform="matrix(0.0117, 0.0, 0.0, 0.0117, 59.05, 11.0)" width="92.25" xlink:href="#font_Lithos_Pro_Regular_n0"/>
      <use fill="#ceb06c" height="26.9" transform="matrix(0.0117, 0.0, 0.0, 0.0117, 68.7, 11.0)" width="92.25" xlink:href="#font_Lithos_Pro_Regular_e0"/>
      <use fill="#ceb06c" height="26.9" transform="matrix(0.0117, 0.0, 0.0, 0.0117, 75.05, 11.0)" width="92.25" xlink:href="#font_Lithos_Pro_Regular_d0"/>
      <use fill="#ceb06c" height="26.9" transform="matrix(0.0117, 0.0, 0.0, 0.0117, 83.7, 11.0)" width="92.25" xlink:href="#font_Lithos_Pro_Regular_:0"/>
    </g>
    <g transform="matrix(1.0, 0.0, 0.0, 1.0, 0.0, 0.0)">
      <use fill="#ceb06c" height="26.9" transform="matrix(0.0117, 0.0, 0.0, 0.0117, 0.0, 27.0)" width="92.25" xlink:href="#font_Lithos_Pro_Regular_G0"/>
      <use fill="#ceb06c" height="26.9" transform="matrix(0.0117, 0.0, 0.0, 0.0117, 8.9, 27.0)" width="92.25" xlink:href="#font_Lithos_Pro_Regular_o0"/>
      <use fill="#ceb06c" height="26.9" transform="matrix(0.0117, 0.0, 0.0, 0.0117, 18.1, 27.0)" width="92.25" xlink:href="#font_Lithos_Pro_Regular_l0"/>
      <use fill="#ceb06c" height="26.9" transform="matrix(0.0117, 0.0, 0.0, 0.0117, 24.0, 27.0)" width="92.25" xlink:href="#font_Lithos_Pro_Regular_d0"/>
      <use fill="#ceb06c" height="26.9" transform="matrix(0.0117, 0.0, 0.0, 0.0117, 36.25, 27.0)" width="92.25" xlink:href="#font_Lithos_Pro_Regular_S0"/>
      <use fill="#ceb06c" height="26.9" transform="matrix(0.0117, 0.0, 0.0, 0.0117, 42.55, 27.0)" width="92.25" xlink:href="#font_Lithos_Pro_Regular_p0"/>
      <use fill="#ceb06c" height="26.9" transform="matrix(0.0117, 0.0, 0.0, 0.0117, 49.15, 27.0)" width="92.25" xlink:href="#font_Lithos_Pro_Regular_e0"/>
      <use fill="#ceb06c" height="26.9" transform="matrix(0.0117, 0.0, 0.0, 0.0117, 55.5, 27.0)" width="92.25" xlink:href="#font_Lithos_Pro_Regular_n0"/>
      <use fill="#ceb06c" height="26.9" transform="matrix(0.0117, 0.0, 0.0, 0.0117, 65.15, 27.0)" width="92.25" xlink:href="#font_Lithos_Pro_Regular_t0"/>
      <use fill="#ceb06c" height="26.9" transform="matrix(0.0117, 0.0, 0.0, 0.0117, 72.15, 27.0)" width="92.25" xlink:href="#font_Lithos_Pro_Regular_:0"/>
    </g>
  </g>
  <defs>
    <g id="font_Lithos_Pro_Regular_G0">
      <path d="M665.5 -234.0 L665.5 -159.5 Q665.5 -138.5 666.5 -108.0 667.0 -77.0 667.5 -50.5 668.5 -24.0 668.5 -16.0 645.0 -7.5 608.5 0.0 572.0 7.5 528.5 12.0 485.5 16.5 442.5 16.5 325.5 15.5 240.5 -23.5 155.0 -62.5 108.5 -129.5 62.0 -197.0 61.5 -282.5 61.0 -326.5 86.5 -387.5 111.5 -448.0 170.0 -513.5 228.0 -578.5 326.0 -637.5 424.0 -696.0 568.5 -736.0 L589.0 -647.0 Q500.5 -629.5 424.0 -593.5 347.0 -557.5 288.5 -508.0 230.0 -459.0 196.5 -401.0 163.5 -343.0 163.0 -281.5 163.0 -227.0 196.0 -175.5 229.0 -124.0 296.0 -90.5 362.5 -57.0 464.0 -56.0 496.5 -56.0 525.5 -60.5 554.5 -65.0 573.5 -71.5 L573.5 -242.5 Q573.5 -265.5 572.5 -286.5 571.5 -307.5 570.5 -313.0 L666.5 -313.0 Q666.0 -295.0 665.5 -276.0 665.5 -257.0 665.5 -234.0" fill-rule="evenodd" stroke="none"/>
    </g>
    <g id="font_Lithos_Pro_Regular_o0">
      <path d="M380.0 -53.0 L380.0 -53.0 Q451.0 -53.0 510.0 -84.5 569.0 -116.0 604.5 -176.0 640.0 -236.5 641.0 -322.5 640.0 -400.5 608.5 -452.5 576.5 -504.5 524.5 -530.5 472.5 -556.5 410.5 -556.5 329.0 -555.5 271.0 -519.5 212.5 -483.5 181.5 -423.0 151.0 -362.0 150.5 -287.0 151.0 -221.0 178.5 -168.5 206.0 -115.5 257.0 -84.5 308.5 -53.5 380.0 -53.0 M371.5 14.5 L371.5 14.5 Q269.5 13.5 199.5 -26.0 129.0 -65.5 93.0 -130.5 56.5 -195.5 56.5 -273.5 57.0 -371.5 101.5 -450.5 146.5 -529.5 228.5 -576.0 310.5 -623.0 424.0 -624.0 515.0 -623.5 585.0 -588.5 655.0 -553.5 695.0 -487.5 735.0 -421.0 736.0 -327.0 736.5 -274.5 717.0 -216.0 697.5 -157.5 654.5 -105.0 611.5 -52.5 542.0 -19.5 472.0 13.5 371.5 14.5" fill-rule="evenodd" stroke="none"/>
    </g>
    <g id="font_Lithos_Pro_Regular_l0">
      <path d="M131.0 -609.5 L232.0 -609.5 Q230.5 -601.5 229.0 -570.0 227.5 -538.0 226.5 -493.0 225.5 -448.0 224.5 -399.5 224.0 -351.0 224.0 -309.0 L224.0 -68.5 Q236.0 -68.5 272.0 -68.5 308.0 -69.0 357.0 -69.5 406.0 -70.5 456.5 -72.5 L456.5 9.5 Q446.5 9.5 413.0 8.5 379.5 7.5 334.5 6.0 289.0 5.0 244.5 3.5 199.5 2.0 167.5 1.0 135.0 0.0 127.0 0.0 130.0 -18.5 131.5 -56.0 133.5 -93.5 134.0 -136.0 134.5 -178.5 135.0 -211.0 135.0 -244.0 135.0 -253.0 L135.0 -368.5 Q135.0 -373.5 135.0 -397.5 134.5 -421.5 134.0 -455.0 134.0 -488.5 133.5 -522.0 132.5 -555.0 132.0 -579.5 131.5 -604.0 131.0 -609.5" fill-rule="evenodd" stroke="none"/>
    </g>
    <g id="font_Lithos_Pro_Regular_d0">
      <path d="M223.0 -541.0 L223.0 -72.0 Q316.5 -78.5 387.0 -105.5 457.0 -132.0 503.5 -172.5 550.0 -212.5 573.0 -260.0 596.0 -307.5 596.0 -355.5 595.5 -422.5 551.5 -464.0 507.5 -506.0 424.0 -524.5 340.5 -543.5 223.0 -541.0 M135.0 -275.5 L135.0 -383.5 Q135.0 -389.5 135.0 -411.5 134.5 -433.5 134.5 -464.0 134.0 -494.0 133.5 -524.5 133.0 -555.0 132.0 -578.5 131.0 -601.5 130.0 -609.5 157.0 -609.5 195.0 -609.5 233.0 -609.5 275.5 -608.5 318.5 -607.5 359.5 -604.5 472.5 -595.0 539.5 -567.5 606.0 -540.0 638.5 -504.0 671.0 -468.5 681.0 -434.0 691.0 -399.5 690.0 -376.0 689.0 -292.5 655.0 -229.5 621.0 -166.5 563.0 -122.0 505.0 -77.5 432.0 -49.5 359.5 -22.0 281.0 -9.0 203.0 4.0 129.0 4.0 130.0 -9.0 131.0 -38.5 132.0 -67.5 133.0 -105.0 133.5 -142.5 134.0 -178.5 134.5 -215.0 135.0 -241.5 135.0 -268.0 135.0 -275.5" fill-rule="evenodd" stroke="none"/>
    </g>
    <g id="font_Lithos_Pro_Regular_E0">
      <path d="M491.0 -77.5 L495.5 10.5 Q489.5 10.5 455.0 9.5 421.0 8.5 372.5 7.0 324.5 5.5 276.0 4.0 227.5 2.0 192.5 1.0 157.5 0.0 150.5 0.0 151.5 -17.0 152.0 -49.5 152.5 -82.0 153.0 -121.5 153.0 -160.5 153.5 -198.0 153.5 -235.5 153.5 -262.5 153.5 -289.0 153.5 -297.0 L153.5 -434.0 Q153.5 -440.0 153.5 -468.0 153.0 -496.0 152.5 -535.0 152.5 -574.0 152.0 -613.5 151.5 -652.5 151.0 -681.0 151.0 -710.0 150.5 -716.5 159.0 -716.5 190.5 -718.0 222.0 -719.5 266.0 -722.0 309.5 -724.5 353.5 -727.5 397.5 -730.0 431.0 -732.5 464.0 -734.5 475.0 -736.0 L479.0 -655.0 Q465.5 -655.0 431.0 -654.0 396.5 -653.5 356.0 -652.5 315.5 -651.5 284.5 -650.5 253.0 -650.0 245.5 -650.0 L245.5 -390.0 Q253.0 -390.0 277.5 -391.0 301.5 -391.5 333.5 -393.5 365.0 -395.0 395.5 -397.0 425.5 -399.0 445.0 -401.0 L448.0 -320.5 Q438.5 -320.5 410.0 -321.0 381.0 -322.0 346.0 -322.5 311.0 -323.5 282.5 -324.0 254.0 -324.5 245.5 -324.5 L245.5 -74.5 Q255.5 -74.5 282.5 -74.0 309.5 -73.5 346.0 -73.5 382.5 -73.5 421.0 -74.5 459.0 -75.5 491.0 -77.5" fill-rule="evenodd" stroke="none"/>
    </g>
    <g id="font_Lithos_Pro_Regular_a0">
      <path d="M226.5 -255.0 L476.5 -265.0 Q473.0 -271.5 460.0 -295.0 447.5 -318.5 430.0 -350.5 412.5 -382.5 395.0 -414.0 378.0 -445.5 365.0 -468.0 352.5 -490.5 349.5 -495.5 345.0 -488.5 332.5 -464.0 319.5 -439.5 303.0 -406.0 286.0 -373.0 269.5 -340.0 253.0 -307.0 241.0 -283.5 229.5 -260.0 226.5 -255.0 M93.5 18.5 L14.5 -26.5 Q27.5 -49.5 55.0 -100.0 83.0 -150.5 119.0 -216.5 155.0 -283.0 193.5 -353.0 231.5 -423.5 265.0 -485.0 299.0 -547.0 322.0 -589.0 345.0 -630.5 350.5 -640.0 L352.5 -640.0 Q376.5 -601.5 414.5 -538.0 452.0 -474.0 496.0 -399.0 540.0 -323.5 582.5 -250.0 625.5 -176.5 660.0 -119.0 694.0 -61.0 713.0 -32.5 L630.0 17.5 Q623.0 4.0 605.5 -28.5 587.5 -61.0 566.5 -99.0 545.5 -137.0 529.0 -166.5 512.0 -196.0 508.0 -202.5 L191.5 -190.5 Q186.5 -179.0 173.0 -150.5 159.5 -121.5 143.5 -86.5 127.0 -52.0 113.0 -23.0 99.0 6.5 93.5 18.5" fill-rule="evenodd" stroke="none"/>
    </g>
    <g id="font_Lithos_Pro_Regular_r0">
      <path d="M224.0 -543.0 L224.0 -266.5 Q224.0 -256.0 224.5 -227.5 224.5 -199.0 225.0 -162.5 225.5 -125.5 226.5 -90.0 227.0 -54.5 228.0 -29.5 228.5 -5.0 229.0 0.0 L133.0 0.0 Q134.0 -7.0 134.5 -39.0 135.0 -70.5 135.0 -114.5 135.0 -158.5 135.0 -202.5 135.0 -246.5 135.0 -277.5 135.0 -309.0 135.0 -315.5 L135.0 -386.0 Q135.0 -397.5 134.5 -430.0 134.5 -462.5 133.5 -501.5 133.0 -541.0 132.0 -571.5 131.0 -602.0 130.0 -609.5 164.0 -610.0 218.5 -609.5 273.0 -609.0 332.5 -602.5 425.5 -591.5 476.0 -555.5 527.0 -519.5 527.5 -462.0 526.5 -408.0 490.0 -363.0 454.0 -318.0 395.0 -284.0 405.0 -270.5 435.0 -237.0 465.0 -203.0 501.5 -162.5 538.5 -122.0 569.0 -89.5 599.5 -57.0 610.5 -46.0 L539.5 16.5 Q536.0 12.0 512.5 -16.5 489.0 -45.0 455.5 -86.5 422.0 -127.5 387.5 -170.5 352.5 -213.0 326.0 -246.0 299.5 -279.0 290.5 -291.0 308.5 -300.0 332.0 -313.5 355.5 -327.0 377.5 -346.0 400.0 -365.0 415.0 -390.5 429.5 -416.0 430.0 -449.0 431.0 -470.0 415.5 -491.0 399.5 -512.5 355.0 -527.0 310.0 -542.0 224.0 -543.0" fill-rule="evenodd" stroke="none"/>
    </g>
    <g id="font_Lithos_Pro_Regular_n0">
      <path d="M197.5 6.0 L103.5 0.0 Q105.0 -17.5 107.5 -64.0 110.5 -111.0 114.0 -176.0 117.5 -241.0 121.5 -313.0 125.0 -384.5 128.5 -451.5 132.0 -519.0 134.5 -569.5 137.0 -620.5 138.0 -644.0 L143.5 -644.0 Q151.0 -636.0 186.5 -600.0 221.5 -564.0 274.0 -511.5 326.0 -459.0 383.5 -400.5 441.5 -342.5 493.5 -290.0 546.0 -237.0 581.5 -201.5 617.5 -165.5 625.5 -157.5 625.5 -165.0 625.5 -198.0 626.0 -231.5 626.0 -280.5 626.5 -329.5 626.5 -384.0 627.0 -438.5 627.5 -488.0 627.5 -537.5 628.0 -571.5 628.5 -605.5 628.5 -613.5 L719.5 -609.5 Q718.5 -593.0 715.5 -545.0 713.0 -497.5 710.0 -429.0 707.0 -360.5 703.5 -282.0 700.5 -204.0 698.0 -126.0 695.5 -48.0 694.0 18.5 L690.0 18.5 Q682.5 11.5 645.5 -24.5 608.5 -61.0 554.5 -114.5 500.5 -168.5 441.0 -227.5 381.5 -286.5 329.0 -339.5 276.0 -392.0 241.5 -426.5 207.5 -461.0 203.5 -465.0 L201.5 -465.0 Q202.0 -460.0 202.0 -426.5 201.5 -393.0 201.0 -342.0 200.5 -291.0 200.0 -234.0 199.0 -177.0 198.5 -125.0 198.0 -73.5 197.5 -37.5 197.0 -2.0 197.5 6.0" fill-rule="evenodd" stroke="none"/>
    </g>
    <g id="font_Lithos_Pro_Regular_e0">
      <path d="M458.5 -68.5 L461.5 9.5 Q451.5 9.5 417.0 8.5 383.0 7.5 337.5 6.0 292.0 5.0 247.0 3.5 202.0 2.0 170.5 1.0 138.5 0.0 132.0 0.0 133.0 -18.5 133.5 -56.0 134.5 -93.5 134.5 -136.0 135.0 -178.0 135.0 -211.0 135.0 -244.0 135.0 -252.5 L135.0 -368.5 Q135.0 -373.5 135.0 -397.5 134.5 -421.5 134.0 -454.5 134.0 -488.0 133.5 -521.5 133.0 -555.0 132.5 -579.5 132.5 -603.5 132.0 -609.5 139.5 -609.5 168.5 -611.0 197.5 -612.0 238.0 -614.5 278.5 -616.5 320.0 -618.5 362.0 -621.0 395.0 -623.0 428.5 -625.0 443.0 -626.0 L447.0 -552.0 Q431.0 -552.0 397.5 -551.5 364.0 -551.0 326.5 -550.0 288.5 -549.0 259.5 -548.5 231.0 -548.0 224.0 -548.0 L224.0 -334.5 Q231.0 -334.5 253.5 -335.0 276.0 -336.0 305.5 -337.0 335.5 -338.5 365.0 -340.0 394.5 -342.0 416.5 -343.5 L419.5 -269.0 Q407.0 -269.0 378.5 -269.5 350.5 -270.0 317.0 -271.0 284.5 -271.0 258.5 -271.5 232.5 -272.0 224.0 -272.0 L224.0 -65.5 Q233.0 -65.5 258.0 -65.0 283.0 -65.0 317.0 -65.0 351.5 -65.0 388.5 -66.0 425.5 -66.5 458.5 -68.5" fill-rule="evenodd" stroke="none"/>
    </g>
    <g id="font_Lithos_Pro_Regular_:0">
      <path d="M83.0 -397.5 L83.0 -507.0 193.5 -507.0 193.5 -397.5 83.0 -397.5 M83.0 -41.0 L83.0 -150.5 193.5 -150.5 193.5 -41.0 83.0 -41.0" fill-rule="evenodd" stroke="none"/>
    </g>
    <g id="font_Lithos_Pro_Regular_S0">
      <path d="M149.5 18.5 L122.5 -58.5 Q161.0 -66.0 200.5 -79.5 240.5 -93.0 274.5 -112.0 308.5 -131.5 329.5 -156.5 350.5 -182.0 351.0 -213.0 351.5 -250.0 325.5 -276.0 299.5 -302.0 244.5 -330.5 178.0 -365.0 138.0 -402.5 98.0 -440.0 97.0 -493.5 97.5 -534.5 123.0 -572.5 148.0 -610.5 190.5 -643.0 232.5 -675.5 284.0 -699.0 335.5 -723.0 389.0 -735.0 L410.5 -656.0 Q386.0 -652.5 350.5 -641.0 315.0 -630.0 280.0 -612.0 245.0 -593.5 221.0 -568.5 197.5 -543.0 196.5 -511.0 197.5 -484.5 217.0 -464.0 236.5 -443.5 263.0 -427.5 289.5 -412.0 312.0 -399.0 351.5 -377.0 383.0 -355.0 414.5 -333.5 433.5 -306.0 452.0 -278.5 452.5 -237.5 452.5 -186.5 417.5 -137.0 383.0 -87.0 315.5 -46.0 248.0 -5.0 149.5 18.5" fill-rule="evenodd" stroke="none"/>
    </g>
    <g id="font_Lithos_Pro_Regular_p0">
      <path d="M223.0 -541.0 L223.0 -248.0 Q279.0 -258.5 324.5 -280.0 370.0 -301.5 397.5 -336.5 424.5 -371.0 425.0 -421.0 425.5 -433.5 419.0 -453.0 412.5 -472.5 392.0 -492.0 372.0 -512.0 331.0 -526.0 290.5 -539.5 223.0 -541.0 M224.0 0.0 L131.0 0.0 Q131.5 -15.5 132.5 -55.5 133.0 -95.5 134.0 -145.5 134.5 -195.5 134.5 -240.0 135.0 -285.0 135.0 -309.5 L135.0 -405.0 Q135.0 -413.5 134.5 -443.5 134.5 -473.5 134.0 -510.0 133.5 -546.0 133.5 -575.0 133.0 -603.5 133.0 -609.5 153.0 -609.5 185.0 -609.0 217.0 -608.0 252.0 -606.0 287.5 -604.0 317.5 -599.5 412.0 -584.5 465.0 -542.5 518.0 -500.5 519.0 -431.5 518.5 -368.5 481.0 -317.5 443.5 -266.5 377.0 -231.5 311.0 -196.0 223.0 -180.5 L223.0 -131.0 Q223.0 -124.0 223.0 -106.0 223.0 -88.0 223.0 -66.0 223.0 -44.0 223.5 -26.0 223.5 -7.5 224.0 0.0" fill-rule="evenodd" stroke="none"/>
    </g>
    <g id="font_Lithos_Pro_Regular_t0">
      <path d="M346.0 0.0 L240.0 0.0 Q241.5 -7.5 242.5 -38.5 243.5 -69.5 244.5 -116.0 245.0 -162.5 245.5 -215.5 245.5 -269.0 246.0 -320.5 246.0 -372.5 246.0 -414.5 L246.0 -536.5 Q206.0 -536.5 164.0 -536.0 122.5 -535.0 86.0 -534.0 49.5 -533.0 25.0 -531.5 0.5 -530.0 -5.0 -528.5 L-5.0 -611.5 Q4.0 -609.5 31.0 -607.5 58.5 -606.0 94.0 -604.5 130.0 -603.5 165.0 -602.5 200.0 -602.0 224.0 -601.5 248.5 -601.0 252.0 -601.0 L334.0 -601.0 Q340.0 -601.0 364.0 -601.5 387.5 -601.5 421.0 -602.5 454.0 -603.5 488.0 -604.5 522.0 -606.0 548.0 -607.5 574.0 -609.0 584.0 -611.5 L584.0 -528.5 Q582.0 -530.0 554.5 -531.5 527.0 -533.0 486.5 -534.0 446.0 -535.0 405.0 -536.0 364.0 -536.5 335.0 -536.5 L335.0 -401.5 Q335.0 -334.0 336.5 -266.5 338.0 -198.5 340.0 -141.0 342.0 -83.0 343.5 -45.0 345.5 -7.5 346.0 0.0" fill-rule="evenodd" stroke="none"/>
    </g>
  </defs>
</svg>
