<?xml version="1.0" encoding="UTF-8" standalone="no"?>
<svg xmlns:ffdec="https://www.free-decompiler.com/flash" xmlns:xlink="http://www.w3.org/1999/xlink" ffdec:objectType="text" height="12.4px" width="86.5px" xmlns="http://www.w3.org/2000/svg">
  <g transform="matrix(1.0, 0.0, 0.0, 1.0, -1.35, -1.35)">
    <g transform="matrix(1.0, 0.0, 0.0, 1.0, 0.0, 0.0)">
      <use fill="#cd9e3f" height="12.4" transform="matrix(0.0127, 0.0, 0.0, 0.0127, 0.0, 13.0)" width="86.5" xlink:href="#font_Lithos_Pro_Regular_D0"/>
      <use fill="#cd9e3f" height="12.4" transform="matrix(0.0127, 0.0, 0.0, 0.0127, 10.8, 13.0)" width="86.5" xlink:href="#font_Lithos_Pro_Regular_i0"/>
      <use fill="#cd9e3f" height="12.4" transform="matrix(0.0127, 0.0, 0.0, 0.0127, 16.0, 13.0)" width="86.5" xlink:href="#font_Lithos_Pro_Regular_f0"/>
      <use fill="#cd9e3f" height="12.4" transform="matrix(0.0127, 0.0, 0.0, 0.0127, 23.15, 13.0)" width="86.5" xlink:href="#font_Lithos_Pro_Regular_f0"/>
      <use fill="#cd9e3f" height="12.4" transform="matrix(0.0127, 0.0, 0.0, 0.0127, 30.3, 13.0)" width="86.5" xlink:href="#font_Lithos_Pro_Regular_i0"/>
      <use fill="#cd9e3f" height="12.4" transform="matrix(0.0127, 0.0, 0.0, 0.0127, 35.45, 13.0)" width="86.5" xlink:href="#font_Lithos_Pro_Regular_c0"/>
      <use fill="#cd9e3f" height="12.4" transform="matrix(0.0127, 0.0, 0.0, 0.0127, 43.15, 13.0)" width="86.5" xlink:href="#font_Lithos_Pro_Regular_u0"/>
      <use fill="#cd9e3f" height="12.4" transform="matrix(0.0127, 0.0, 0.0, 0.0127, 53.2, 13.0)" width="86.5" xlink:href="#font_Lithos_Pro_Regular_l0"/>
      <use fill="#cd9e3f" height="12.4" transform="matrix(0.0127, 0.0, 0.0, 0.0127, 59.75, 13.0)" width="86.5" xlink:href="#font_Lithos_Pro_Regular_t0"/>
      <use fill="#cd9e3f" height="12.4" transform="matrix(0.0127, 0.0, 0.0, 0.0127, 67.75, 13.0)" width="86.5" xlink:href="#font_Lithos_Pro_Regular_y0"/>
      <use fill="#cd9e3f" height="12.4" transform="matrix(0.0127, 0.0, 0.0, 0.0127, 77.3, 13.0)" width="86.5" xlink:href="#font_Lithos_Pro_Regular_:0"/>
    </g>
  </g>
  <defs>
    <g id="font_Lithos_Pro_Regular_D0">
      <path d="M336.0 -562.0 L336.0 -562.0 336.0 -181.0 Q374.0 -187.0 415.5 -204.0 457.0 -221.0 493.0 -249.5 529.0 -278.0 551.5 -318.5 574.0 -359.5 574.5 -413.0 573.5 -472.5 538.5 -505.0 503.5 -537.5 449.0 -550.0 395.0 -562.5 336.0 -562.0 M110.5 -323.0 L110.5 -323.0 110.5 -449.5 Q110.5 -457.0 110.5 -484.0 110.5 -511.0 110.0 -548.0 109.5 -585.0 109.0 -622.5 108.5 -660.0 107.5 -688.0 106.5 -716.5 105.5 -726.0 199.0 -726.0 270.0 -724.0 341.0 -722.5 396.5 -718.0 451.5 -714.0 499.0 -707.5 598.5 -693.0 661.5 -663.0 725.0 -633.0 759.0 -595.5 793.0 -557.5 806.0 -519.0 818.5 -480.5 818.0 -448.5 817.0 -352.0 775.5 -278.0 734.0 -203.5 662.0 -150.0 590.0 -96.5 498.5 -62.0 407.0 -27.5 305.5 -11.5 204.5 5.0 104.5 5.0 105.5 -10.0 106.5 -44.5 107.5 -79.0 108.5 -123.0 109.0 -166.5 109.5 -209.0 110.0 -252.0 110.5 -283.0 110.5 -314.0 110.5 -323.0" fill-rule="evenodd" stroke="none"/>
    </g>
    <g id="font_Lithos_Pro_Regular_i0">
      <path d="M315.5 -357.5 L315.5 -263.0 Q315.5 -229.5 316.0 -188.0 316.5 -146.5 317.0 -106.5 318.0 -66.5 318.5 -37.5 319.0 -8.5 319.5 0.0 L92.5 0.0 Q93.0 -12.0 93.0 -40.0 93.5 -67.5 93.5 -103.0 94.0 -138.0 94.0 -172.5 94.5 -206.5 94.5 -231.5 94.5 -256.5 94.5 -264.0 L94.5 -358.5 Q94.5 -364.0 94.5 -389.5 94.0 -414.5 94.0 -450.5 93.5 -486.0 93.0 -522.0 93.0 -558.0 92.5 -584.5 92.5 -611.0 92.5 -618.5 L319.5 -618.5 Q319.0 -611.5 318.5 -585.5 318.0 -559.0 317.0 -521.0 316.5 -482.5 316.0 -440.0 315.5 -397.0 315.5 -357.5" fill-rule="evenodd" stroke="none"/>
    </g>
    <g id="font_Lithos_Pro_Regular_f0">
      <path d="M314.5 0.0 L93.5 0.0 Q94.5 -18.5 95.0 -56.0 96.0 -93.5 96.0 -136.0 96.5 -178.5 96.5 -211.0 96.5 -244.0 96.5 -253.0 L96.5 -368.5 Q96.5 -373.5 96.5 -397.5 96.0 -421.5 95.5 -455.0 95.5 -489.0 95.0 -523.5 94.5 -558.0 94.0 -584.0 94.0 -610.0 93.5 -618.5 125.5 -618.5 179.0 -620.0 233.0 -621.5 295.5 -623.5 358.0 -625.5 416.0 -627.5 474.0 -629.5 514.0 -631.0 L518.5 -481.0 313.5 -477.0 313.5 -351.0 Q329.0 -351.0 375.5 -353.5 422.5 -356.0 501.0 -359.0 L503.0 -215.0 313.5 -217.0 313.5 -147.5 Q313.5 -141.0 313.5 -120.0 314.0 -99.0 314.0 -73.0 314.0 -47.0 314.5 -26.0 314.5 -5.5 314.5 0.0" fill-rule="evenodd" stroke="none"/>
    </g>
    <g id="font_Lithos_Pro_Regular_c0">
      <path d="M556.0 -158.5 L565.5 7.5 Q541.0 10.5 514.5 12.5 487.5 14.5 455.0 14.5 340.5 14.0 260.0 -9.5 179.5 -33.0 129.5 -71.5 79.5 -109.5 56.0 -155.5 33.0 -201.5 33.0 -247.5 33.0 -302.5 60.5 -360.5 88.5 -418.5 145.5 -472.5 202.5 -526.5 290.5 -568.0 378.5 -610.0 499.0 -632.0 L540.0 -460.0 Q445.0 -443.5 385.5 -414.5 326.5 -385.5 298.5 -348.5 271.0 -311.0 271.5 -270.5 272.0 -218.5 322.5 -187.0 372.5 -155.5 466.0 -154.5 494.5 -154.5 517.0 -155.5 539.5 -157.0 556.0 -158.5" fill-rule="evenodd" stroke="none"/>
    </g>
    <g id="font_Lithos_Pro_Regular_u0">
      <path d="M289.0 -462.0 L289.0 -403.5 Q288.5 -334.5 292.0 -288.5 295.0 -242.5 304.0 -213.5 313.0 -184.5 331.0 -165.5 345.5 -150.5 363.5 -143.5 381.0 -137.0 402.5 -137.0 427.0 -137.0 446.5 -146.5 465.5 -156.5 478.5 -175.0 488.0 -187.5 493.5 -204.0 499.0 -220.0 501.5 -247.5 504.0 -275.0 504.5 -321.5 505.0 -368.0 505.0 -441.5 L505.0 -474.0 Q505.0 -520.5 503.0 -561.5 501.0 -602.0 500.0 -627.0 L725.0 -627.0 Q725.0 -617.0 725.0 -593.5 725.5 -570.5 725.5 -539.0 726.0 -507.5 726.0 -472.5 L726.0 -431.5 Q726.5 -348.5 720.5 -285.0 714.5 -221.5 697.0 -172.5 679.5 -123.5 645.0 -84.0 602.0 -35.5 535.5 -10.5 469.0 14.5 390.5 14.5 351.5 15.0 303.5 8.0 255.5 0.5 208.5 -23.0 161.5 -46.5 126.0 -95.0 109.0 -118.0 97.5 -145.0 85.5 -172.0 78.0 -209.0 70.5 -246.5 67.0 -300.5 63.5 -355.0 63.5 -433.5 L63.5 -480.5 Q63.5 -501.5 64.0 -528.0 64.0 -555.0 64.5 -578.5 64.5 -602.0 64.5 -612.5 L294.0 -612.5 Q291.5 -595.5 290.5 -558.5 289.0 -521.0 289.0 -462.0" fill-rule="evenodd" stroke="none"/>
    </g>
    <g id="font_Lithos_Pro_Regular_l0">
      <path d="M93.5 -618.5 L322.5 -618.5 Q322.0 -610.0 321.5 -577.0 320.5 -544.0 319.5 -497.0 319.0 -450.5 318.0 -401.0 317.5 -351.0 317.5 -309.0 L317.5 -156.5 Q330.0 -156.5 364.5 -156.5 399.0 -157.0 442.5 -157.5 486.0 -158.5 524.5 -160.5 L525.5 9.5 Q516.0 9.5 477.5 8.5 439.0 7.5 384.5 6.0 330.0 5.0 272.5 3.5 215.0 2.0 167.5 1.0 119.5 0.0 94.5 0.0 95.0 -18.5 95.5 -56.0 96.0 -93.5 96.5 -136.0 96.5 -178.5 96.5 -211.0 96.5 -244.0 96.5 -252.5 L96.5 -368.5 Q96.5 -373.5 96.5 -398.5 96.0 -423.0 95.5 -457.5 95.5 -492.5 95.0 -527.0 94.5 -562.0 94.0 -587.0 94.0 -612.5 93.5 -618.5" fill-rule="evenodd" stroke="none"/>
    </g>
    <g id="font_Lithos_Pro_Regular_t0">
      <path d="M421.5 0.0 L194.5 0.0 Q195.0 -12.5 195.5 -51.5 196.0 -90.5 196.0 -141.5 196.5 -192.5 196.5 -241.0 L196.5 -461.0 Q181.5 -461.0 153.5 -460.5 125.0 -459.5 93.0 -459.0 61.5 -458.0 35.0 -457.0 8.5 -456.5 -3.0 -456.0 L-3.0 -616.5 Q10.0 -615.0 40.5 -614.0 70.5 -613.0 108.5 -612.0 146.0 -611.5 181.5 -610.5 217.5 -610.0 242.0 -609.5 266.5 -609.5 270.0 -609.5 L351.0 -609.5 Q357.0 -609.5 381.0 -609.5 405.0 -610.0 439.0 -610.5 473.5 -611.5 509.0 -612.0 544.5 -613.0 574.0 -614.0 603.0 -615.0 617.0 -616.5 L617.0 -456.0 Q609.5 -456.5 580.0 -457.0 550.5 -458.0 514.5 -459.0 478.5 -459.5 451.0 -460.5 423.0 -461.0 418.5 -461.0 L418.5 -227.5 Q418.5 -181.0 419.0 -132.5 419.0 -83.5 420.0 -46.5 420.5 -10.0 421.5 0.0" fill-rule="evenodd" stroke="none"/>
    </g>
    <g id="font_Lithos_Pro_Regular_y0">
      <path d="M471.0 0.0 L241.0 0.0 Q241.5 -8.5 242.0 -26.5 243.0 -44.5 244.0 -65.5 244.5 -86.5 245.5 -102.5 246.0 -119.0 246.0 -124.0 L246.0 -160.0 Q245.0 -244.5 213.5 -304.5 181.5 -364.0 129.5 -397.5 101.5 -414.5 74.5 -422.5 47.5 -430.5 25.0 -436.5 L96.5 -635.0 Q144.0 -622.0 190.0 -599.5 236.0 -577.0 272.5 -544.0 298.0 -519.5 321.5 -482.5 344.5 -446.0 361.5 -395.5 L369.0 -395.5 Q384.5 -439.0 410.5 -476.0 437.0 -513.0 470.0 -543.0 504.0 -573.0 548.0 -597.5 592.5 -622.0 647.0 -637.0 L705.5 -437.5 Q674.0 -431.5 636.0 -417.5 598.0 -403.5 564.0 -379.0 522.0 -347.0 495.0 -292.0 468.0 -236.5 467.0 -162.0 L467.0 -107.5 Q467.0 -100.0 467.5 -78.0 468.0 -56.0 469.0 -33.0 470.0 -10.0 471.0 0.0" fill-rule="evenodd" stroke="none"/>
    </g>
    <g id="font_Lithos_Pro_Regular_:0">
      <path d="M76.5 -353.5 L76.5 -353.5 76.5 -507.0 241.5 -507.0 241.5 -353.5 76.5 -353.5 M76.5 0.0 L76.5 0.0 76.5 -153.5 241.5 -153.5 241.5 0.0 76.5 0.0" fill-rule="evenodd" stroke="none"/>
    </g>
  </defs>
</svg>
