<?xml version="1.0" encoding="UTF-8" standalone="no"?>
<svg xmlns:ffdec="https://www.free-decompiler.com/flash" xmlns:xlink="http://www.w3.org/1999/xlink" ffdec:objectType="text" height="32.5px" width="146.65px" xmlns="http://www.w3.org/2000/svg">
  <g transform="matrix(1.0, 0.0, 0.0, 1.0, 2.0, 2.0)">
    <g transform="matrix(1.0, 0.0, 0.0, 1.0, -2.0, -2.0)">
      <use fill="#fac87c" height="32.5" transform="matrix(0.0215, 0.0, 0.0, 0.0215, 35.8, 23.25)" width="146.65" xlink:href="#font_Lithos_Pro_Regular_S0"/>
      <use fill="#fac87c" height="32.5" transform="matrix(0.0215, 0.0, 0.0, 0.0215, 47.85, 23.25)" width="146.65" xlink:href="#font_Lithos_Pro_Regular_e0"/>
      <use fill="#fac87c" height="32.5" transform="matrix(0.0215, 0.0, 0.0, 0.0215, 60.4, 23.25)" width="146.65" xlink:href="#font_Lithos_Pro_Regular_l0"/>
      <use fill="#fac87c" height="32.5" transform="matrix(0.0215, 0.0, 0.0, 0.0215, 72.1, 23.25)" width="146.65" xlink:href="#font_Lithos_Pro_Regular_e0"/>
      <use fill="#fac87c" height="32.5" transform="matrix(0.0215, 0.0, 0.0, 0.0215, 84.65, 23.25)" width="146.65" xlink:href="#font_Lithos_Pro_Regular_c0"/>
      <use fill="#fac87c" height="32.5" transform="matrix(0.0215, 0.0, 0.0, 0.0215, 97.65, 23.25)" width="146.65" xlink:href="#font_Lithos_Pro_Regular_t0"/>
    </g>
  </g>
  <defs>
    <g id="font_Lithos_Pro_Regular_S0">
      <path d="M95.5 18.5 L95.5 18.5 67.5 -156.5 Q118.5 -155.0 165.5 -163.5 213.0 -171.5 244.0 -188.5 274.5 -205.0 275.5 -229.5 276.0 -239.0 268.0 -248.5 260.0 -258.0 238.0 -272.0 216.0 -286.0 175.0 -309.0 142.0 -327.5 110.0 -351.5 78.5 -376.0 57.5 -408.0 36.5 -440.5 35.5 -483.5 36.0 -541.5 84.5 -597.5 133.5 -653.0 225.5 -693.0 317.5 -733.0 447.5 -745.5 L475.0 -574.5 Q379.0 -574.5 330.5 -558.5 282.5 -542.5 282.5 -511.0 282.5 -493.5 307.0 -477.5 332.0 -462.0 382.0 -438.5 410.5 -425.0 443.0 -404.0 476.0 -383.0 499.5 -351.0 523.5 -319.0 524.5 -273.5 524.5 -230.5 501.0 -185.5 477.5 -140.0 426.5 -98.5 375.5 -57.5 294.0 -26.5 212.0 4.5 95.5 18.5" fill-rule="evenodd" stroke="none"/>
    </g>
    <g id="font_Lithos_Pro_Regular_e0">
      <path d="M519.5 -147.0 L522.5 9.5 Q510.0 9.5 468.5 8.5 427.5 7.5 371.0 6.0 315.0 5.0 257.5 3.5 200.5 2.0 156.0 1.0 112.0 0.0 94.5 0.0 95.0 -18.5 95.5 -56.0 96.0 -93.5 96.5 -136.0 96.5 -178.5 96.5 -211.0 96.5 -244.0 96.5 -253.0 L96.5 -368.5 Q96.5 -373.5 96.5 -397.5 96.0 -421.5 96.0 -455.0 95.5 -489.0 95.0 -523.5 95.0 -558.0 94.5 -584.0 94.5 -610.0 94.5 -618.5 113.0 -618.5 155.5 -620.0 198.5 -621.0 252.5 -623.0 307.0 -625.0 360.0 -627.0 413.0 -629.5 452.0 -631.0 491.5 -633.0 504.0 -634.0 L508.0 -484.5 Q494.0 -484.5 465.0 -483.5 435.5 -483.0 402.5 -482.0 369.0 -481.0 343.5 -480.0 317.5 -479.5 310.5 -479.5 L310.5 -373.5 Q318.0 -373.5 338.5 -374.0 359.0 -375.0 385.5 -376.0 412.0 -377.0 436.5 -378.5 461.5 -380.0 477.5 -381.5 L479.5 -236.5 Q469.5 -236.5 445.5 -237.0 421.5 -237.5 393.5 -238.0 365.0 -238.5 342.0 -239.0 319.0 -239.5 310.5 -239.5 L310.5 -145.0 Q320.0 -145.0 347.0 -144.5 373.5 -144.5 407.0 -144.5 441.0 -144.5 471.5 -145.0 502.0 -145.5 519.5 -147.0" fill-rule="evenodd" stroke="none"/>
    </g>
    <g id="font_Lithos_Pro_Regular_l0">
      <path d="M93.5 -618.5 L322.5 -618.5 Q322.0 -610.0 321.5 -577.0 320.5 -544.0 319.5 -497.0 319.0 -450.5 318.0 -401.0 317.5 -351.0 317.5 -309.0 L317.5 -156.5 Q330.0 -156.5 364.5 -156.5 399.0 -157.0 442.5 -157.5 486.0 -158.5 524.5 -160.5 L525.5 9.5 Q516.0 9.5 477.5 8.5 439.0 7.5 384.5 6.0 330.0 5.0 272.5 3.5 215.0 2.0 167.5 1.0 119.5 0.0 94.5 0.0 95.0 -18.5 95.5 -56.0 96.0 -93.5 96.5 -136.0 96.5 -178.5 96.5 -211.0 96.5 -244.0 96.5 -252.5 L96.5 -368.5 Q96.5 -373.5 96.5 -398.5 96.0 -423.0 95.5 -457.5 95.5 -492.5 95.0 -527.0 94.5 -562.0 94.0 -587.0 94.0 -612.5 93.5 -618.5" fill-rule="evenodd" stroke="none"/>
    </g>
    <g id="font_Lithos_Pro_Regular_c0">
      <path d="M556.0 -158.5 L565.5 7.5 Q541.0 10.5 514.5 12.5 487.5 14.5 455.0 14.5 340.5 14.0 260.0 -9.5 179.5 -33.0 129.5 -71.5 79.5 -109.5 56.0 -155.5 33.0 -201.5 33.0 -247.5 33.0 -302.5 60.5 -360.5 88.5 -418.5 145.5 -472.5 202.5 -526.5 290.5 -568.0 378.5 -610.0 499.0 -632.0 L540.0 -460.0 Q445.0 -443.5 385.5 -414.5 326.5 -385.5 298.5 -348.5 271.0 -311.0 271.5 -270.5 272.0 -218.5 322.5 -187.0 372.5 -155.5 466.0 -154.5 494.5 -154.5 517.0 -155.5 539.5 -157.0 556.0 -158.5" fill-rule="evenodd" stroke="none"/>
    </g>
    <g id="font_Lithos_Pro_Regular_t0">
      <path d="M421.5 0.0 L194.5 0.0 Q195.0 -12.5 195.5 -51.5 196.0 -90.5 196.0 -141.5 196.5 -192.5 196.5 -241.0 L196.5 -461.0 Q181.5 -461.0 153.5 -460.5 125.0 -459.5 93.0 -459.0 61.5 -458.0 35.0 -457.0 8.5 -456.5 -3.0 -456.0 L-3.0 -616.5 Q10.0 -615.0 40.5 -614.0 70.5 -613.0 108.5 -612.0 146.0 -611.5 181.5 -610.5 217.5 -610.0 242.0 -609.5 266.5 -609.5 270.0 -609.5 L351.0 -609.5 Q357.0 -609.5 381.0 -609.5 405.0 -610.0 439.0 -610.5 473.5 -611.5 509.0 -612.0 544.5 -613.0 574.0 -614.0 603.0 -615.0 617.0 -616.5 L617.0 -456.0 Q609.5 -456.5 580.0 -457.0 550.5 -458.0 514.5 -459.0 478.5 -459.5 451.0 -460.5 423.0 -461.0 418.5 -461.0 L418.5 -227.5 Q418.5 -181.0 419.0 -132.5 419.0 -83.5 420.0 -46.5 420.5 -10.0 421.5 0.0" fill-rule="evenodd" stroke="none"/>
    </g>
  </defs>
</svg>
