<?xml version="1.0" encoding="UTF-8" standalone="no"?>
<svg xmlns:ffdec="https://www.free-decompiler.com/flash" xmlns:xlink="http://www.w3.org/1999/xlink" ffdec:objectType="text" height="18.3px" width="100.25px" xmlns="http://www.w3.org/2000/svg">
  <g transform="matrix(1.0, 0.0, 0.0, 1.0, 1.2, -3.8)">
    <g transform="matrix(1.0, 0.0, 0.0, 1.0, 0.0, 0.0)">
      <use fill="#7f551b" height="18.3" transform="matrix(0.0215, 0.0, 0.0, 0.0215, 0.0, 20.0)" width="100.25" xlink:href="#font_Charlemagne_Std_A0"/>
      <use fill="#7f551b" height="18.3" transform="matrix(0.0215, 0.0, 0.0, 0.0215, 15.65, 20.0)" width="100.25" xlink:href="#font_Charlemagne_Std_R0"/>
      <use fill="#7f551b" height="18.3" transform="matrix(0.0215, 0.0, 0.0, 0.0215, 32.0, 20.0)" width="100.25" xlink:href="#font_Charlemagne_Std_A0"/>
      <use fill="#7f551b" height="18.3" transform="matrix(0.0215, 0.0, 0.0, 0.0215, 47.65, 20.0)" width="100.25" xlink:href="#font_Charlemagne_Std_B0"/>
      <use fill="#7f551b" height="18.3" transform="matrix(0.0215, 0.0, 0.0, 0.0215, 62.7, 20.0)" width="100.25" xlink:href="#font_Charlemagne_Std_I0"/>
      <use fill="#7f551b" height="18.3" transform="matrix(0.0215, 0.0, 0.0, 0.0215, 72.4, 20.0)" width="100.25" xlink:href="#font_Charlemagne_Std_A0"/>
    </g>
  </g>
  <defs>
    <g id="font_Charlemagne_Std_A0">
      <path d="M426.0 -362.5 L426.0 -362.5 Q417.0 -388.5 402.5 -431.0 388.0 -473.0 371.5 -520.0 355.5 -566.5 342.0 -606.5 328.0 -646.5 321.5 -669.0 L319.5 -669.0 Q307.0 -633.5 290.5 -588.0 274.0 -542.0 257.0 -496.0 240.0 -450.0 227.5 -415.0 215.0 -380.0 211.0 -366.5 L426.0 -362.5 M432.0 4.0 L437.0 -17.5 Q464.0 -19.5 490.5 -23.0 516.5 -26.5 540.5 -32.0 534.5 -48.5 524.0 -80.5 513.0 -112.5 499.5 -152.0 486.0 -191.0 472.5 -228.5 459.0 -266.5 448.5 -294.0 438.0 -322.0 433.0 -331.5 418.5 -331.5 386.0 -330.5 354.0 -329.0 315.5 -327.0 277.0 -325.5 244.5 -323.0 211.5 -320.5 196.5 -318.5 194.0 -312.0 184.0 -278.5 174.5 -245.5 162.0 -199.0 150.0 -153.0 139.5 -108.0 129.0 -62.5 125.0 -32.0 144.5 -26.5 167.5 -23.0 191.0 -19.5 213.0 -17.5 L217.0 4.0 Q200.0 3.0 169.5 2.0 139.0 1.0 108.5 0.5 78.5 0.0 62.5 0.0 48.0 0.0 25.0 0.5 1.5 1.0 -21.0 2.0 -44.0 3.0 -56.5 4.0 L-53.5 -17.5 Q-31.0 -20.0 -8.5 -23.5 14.0 -27.0 34.5 -32.0 44.5 -49.0 65.5 -100.0 86.5 -151.0 114.0 -221.5 141.5 -292.0 170.5 -368.5 199.5 -445.0 225.5 -513.5 251.0 -582.0 268.5 -628.5 285.5 -675.5 289.5 -686.0 272.0 -691.0 250.0 -694.0 228.0 -697.5 208.5 -699.5 L207.5 -721.0 Q224.0 -720.0 252.0 -719.0 280.0 -718.0 305.5 -717.5 331.0 -717.0 341.0 -717.0 363.5 -717.0 398.5 -717.5 434.0 -718.0 467.0 -719.0 500.0 -720.0 516.0 -721.0 L513.0 -699.5 Q492.5 -697.5 473.0 -694.0 453.0 -691.0 435.0 -686.0 440.0 -668.5 451.5 -633.5 463.0 -598.0 479.0 -553.0 494.5 -507.5 511.0 -460.5 527.5 -413.5 542.5 -372.5 553.5 -342.5 570.0 -298.5 586.0 -255.0 605.5 -206.5 624.5 -157.5 644.0 -112.0 664.0 -66.0 682.0 -32.0 704.0 -27.5 726.5 -24.0 749.0 -20.5 772.0 -17.5 L775.0 4.0 Q770.0 3.0 751.0 2.5 732.0 2.0 705.5 1.0 679.5 0.5 652.5 0.5 626.0 0.0 605.0 0.0 593.0 0.0 569.5 0.5 545.5 0.5 517.5 1.0 490.0 2.0 466.5 2.5 443.0 3.0 432.0 4.0" fill-rule="evenodd" stroke="none"/>
    </g>
    <g id="font_Charlemagne_Std_R0">
      <path d="M280.5 -393.0 L280.5 -361.5 Q308.5 -361.0 340.0 -365.0 372.0 -369.0 405.5 -381.0 428.5 -389.0 455.0 -408.5 482.0 -428.0 501.5 -461.5 521.0 -495.5 522.0 -546.0 522.5 -579.5 500.0 -613.0 477.5 -646.0 425.5 -668.5 373.5 -690.5 285.5 -691.5 284.5 -675.0 283.5 -637.5 282.5 -600.0 282.0 -554.0 281.0 -508.0 281.0 -464.5 280.5 -421.5 280.5 -393.0 M166.0 -369.5 L166.0 -432.0 Q166.0 -444.0 166.0 -471.0 165.5 -497.5 165.5 -531.5 165.0 -565.5 164.5 -598.5 164.0 -631.0 163.0 -655.0 162.0 -678.5 161.0 -685.0 151.5 -687.5 130.0 -690.0 108.5 -692.0 86.0 -694.5 63.5 -696.5 51.5 -697.5 L48.5 -719.0 269.0 -720.0 Q318.5 -720.0 372.0 -718.5 425.0 -717.0 473.5 -711.0 522.5 -705.0 558.0 -691.5 599.0 -675.5 622.5 -646.0 645.5 -617.0 646.0 -574.5 645.5 -542.0 626.0 -505.5 606.5 -469.5 574.0 -436.5 541.5 -403.5 501.5 -381.0 505.5 -372.5 525.0 -339.5 545.0 -307.0 575.5 -259.5 605.5 -211.5 642.0 -159.0 678.0 -106.0 715.0 -57.5 752.0 -9.0 784.0 25.5 L739.0 32.5 Q716.5 21.5 675.5 -16.0 634.5 -54.0 586.0 -105.0 537.5 -156.0 492.0 -206.5 446.5 -257.0 415.5 -292.5 384.5 -328.5 378.5 -336.0 348.5 -333.5 321.5 -332.0 294.5 -330.0 280.5 -330.0 L280.5 -303.5 Q280.5 -277.5 281.0 -239.5 281.0 -201.5 282.0 -160.5 282.5 -119.5 283.5 -85.0 284.5 -50.5 285.5 -32.0 295.0 -29.0 316.0 -26.5 337.0 -23.5 359.0 -21.0 381.0 -18.5 393.0 -17.5 L397.0 4.0 Q383.0 3.0 350.5 2.0 318.0 1.0 282.0 0.5 246.0 0.0 221.0 0.0 205.0 0.0 180.0 0.5 154.5 0.5 128.0 1.0 101.0 2.0 79.5 2.5 57.5 3.0 48.5 4.0 L52.5 -17.5 Q60.5 -18.0 80.5 -20.0 100.5 -22.0 123.0 -25.0 146.0 -28.0 161.0 -32.0 162.5 -44.0 163.5 -82.0 164.5 -120.0 165.0 -171.5 165.5 -223.0 166.0 -276.0 166.0 -328.5 166.0 -369.5" fill-rule="evenodd" stroke="none"/>
    </g>
    <g id="font_Charlemagne_Std_B0">
      <path d="M277.5 -443.5 L277.5 -386.0 Q302.5 -385.5 336.5 -392.5 370.5 -400.0 400.5 -421.0 429.0 -442.0 444.5 -476.5 460.0 -510.5 460.0 -550.0 459.5 -617.5 422.5 -657.0 385.5 -697.0 321.5 -698.0 309.0 -698.0 298.5 -696.5 287.5 -695.0 280.5 -692.0 280.0 -687.5 279.0 -661.5 278.5 -636.0 278.0 -598.5 278.0 -561.0 277.5 -520.0 277.5 -479.0 277.5 -443.5 M277.5 -355.5 L277.5 -300.0 Q277.5 -266.5 278.5 -225.0 280.0 -184.0 281.5 -145.0 283.5 -106.0 285.5 -79.0 288.0 -51.5 290.0 -46.0 308.5 -34.0 332.0 -29.0 355.5 -24.0 371.5 -24.5 444.0 -25.5 477.5 -60.5 510.5 -95.5 510.0 -149.5 510.0 -183.0 496.5 -217.5 483.0 -252.0 458.5 -282.0 433.5 -312.0 398.5 -331.0 377.5 -341.5 354.5 -347.5 331.0 -353.5 310.5 -355.5 290.0 -357.0 277.5 -355.5 M167.0 -345.5 L167.0 -409.5 Q167.0 -438.0 166.5 -478.0 166.0 -518.0 165.0 -559.5 164.0 -601.5 162.5 -635.0 161.5 -669.0 160.0 -685.5 133.0 -690.0 105.0 -692.5 77.0 -694.5 54.5 -696.0 L49.5 -717.5 Q63.0 -718.0 100.5 -719.0 137.5 -720.5 184.5 -722.0 231.5 -723.5 274.5 -724.5 317.5 -725.5 343.0 -725.5 417.5 -725.0 463.5 -711.5 509.0 -698.0 533.0 -677.0 557.0 -656.0 565.5 -633.5 574.0 -611.0 573.5 -592.5 574.0 -570.5 570.0 -548.5 565.5 -526.0 547.0 -496.0 527.5 -466.0 503.5 -445.0 479.0 -423.5 455.5 -410.0 432.0 -396.0 415.0 -389.0 L415.0 -386.0 Q466.5 -377.5 514.0 -351.5 562.0 -325.5 592.5 -284.5 623.5 -243.0 624.5 -188.5 624.0 -129.0 594.5 -85.0 564.5 -41.0 511.0 -16.5 457.5 8.0 386.0 8.5 374.5 8.5 351.5 7.0 328.0 6.0 300.0 4.0 272.5 2.5 247.0 1.0 221.5 0.0 205.0 0.0 196.0 0.0 175.0 0.5 154.5 0.5 130.0 1.0 105.0 2.0 83.0 2.5 61.0 3.0 49.5 4.0 L53.5 -17.5 Q66.0 -18.5 86.5 -20.5 107.5 -23.0 128.0 -26.0 148.5 -28.5 160.0 -32.0 162.5 -59.0 164.0 -98.0 165.5 -137.0 166.0 -181.5 167.0 -225.5 167.0 -268.0 167.0 -311.0 167.0 -345.5" fill-rule="evenodd" stroke="none"/>
    </g>
    <g id="font_Charlemagne_Std_I0">
      <path d="M283.5 -420.0 L283.5 -356.5 Q283.5 -306.0 283.5 -252.5 284.0 -199.0 284.5 -152.0 285.0 -104.5 286.0 -72.5 287.0 -40.0 288.5 -32.0 302.0 -28.5 323.5 -26.0 344.5 -23.0 365.0 -20.5 385.0 -18.5 396.0 -17.5 L401.0 4.0 Q389.0 3.0 355.5 2.0 322.0 1.0 282.0 0.5 241.5 0.0 209.0 0.0 190.5 0.0 159.0 0.5 127.5 1.0 96.5 2.0 66.0 3.0 49.5 4.0 L53.5 -17.5 Q63.0 -18.0 84.5 -20.5 106.0 -23.5 128.0 -26.5 150.0 -29.5 162.0 -32.0 163.5 -49.0 164.5 -88.0 165.5 -127.0 166.0 -176.5 166.5 -226.5 167.0 -276.5 167.0 -326.0 167.0 -364.5 L167.0 -425.0 Q167.0 -439.0 167.0 -475.0 166.5 -511.0 166.0 -555.0 165.5 -598.5 164.5 -634.5 163.5 -671.0 162.0 -685.0 151.0 -687.5 129.5 -690.5 107.5 -693.0 86.5 -696.0 65.0 -698.5 54.5 -699.5 L49.5 -721.0 Q60.0 -720.0 90.5 -719.0 121.0 -718.0 161.5 -717.5 202.5 -717.0 243.5 -717.0 270.5 -717.0 304.0 -717.5 337.0 -718.0 364.0 -719.0 391.5 -720.0 401.0 -721.0 L396.0 -699.5 Q385.5 -698.5 367.5 -696.0 349.0 -693.0 328.5 -690.5 307.5 -687.5 288.5 -685.0 286.5 -674.0 285.5 -635.5 284.5 -596.5 284.0 -540.0 283.5 -484.0 283.5 -420.0" fill-rule="evenodd" stroke="none"/>
    </g>
  </defs>
</svg>
