<?xml version="1.0" encoding="UTF-8" standalone="no"?>
<svg xmlns:ffdec="https://www.free-decompiler.com/flash" xmlns:xlink="http://www.w3.org/1999/xlink" ffdec:objectType="text" height="11.6px" width="58.75px" xmlns="http://www.w3.org/2000/svg">
  <g transform="matrix(1.0, 0.0, 0.0, 1.0, 0.65, -0.7)">
    <g transform="matrix(1.0, 0.0, 0.0, 1.0, 0.0, 0.0)">
      <use fill="#7f6239" height="11.6" transform="matrix(0.0117, 0.0, 0.0, 0.0117, 0.0, 11.0)" width="58.75" xlink:href="#font_Charlemagne_Std_a0"/>
      <use fill="#7f6239" height="11.6" transform="matrix(0.0117, 0.0, 0.0, 0.0117, 8.35, 11.0)" width="58.75" xlink:href="#font_Charlemagne_Std_c0"/>
      <use fill="#7f6239" height="11.6" transform="matrix(0.0117, 0.0, 0.0, 0.0117, 18.05, 11.0)" width="58.75" xlink:href="#font_Charlemagne_Std_h0"/>
      <use fill="#7f6239" height="11.6" transform="matrix(0.0117, 0.0, 0.0, 0.0117, 29.7, 11.0)" width="58.75" xlink:href="#font_Charlemagne_Std_a0"/>
      <use fill="#7f6239" height="11.6" transform="matrix(0.0117, 0.0, 0.0, 0.0117, 38.25, 11.0)" width="58.75" xlink:href="#font_Charlemagne_Std_i0"/>
      <use fill="#7f6239" height="11.6" transform="matrix(0.0117, 0.0, 0.0, 0.0117, 43.55, 11.0)" width="58.75" xlink:href="#font_Charlemagne_Std_a0"/>
    </g>
  </g>
  <defs>
    <g id="font_Charlemagne_Std_a0">
      <path d="M426.0 -362.5 L426.0 -362.5 Q417.0 -388.5 402.5 -431.0 388.0 -473.0 371.5 -520.0 355.5 -566.5 342.0 -606.5 328.0 -646.5 321.5 -669.0 L319.5 -669.0 Q307.0 -633.5 290.5 -588.0 274.0 -542.0 257.0 -496.0 240.0 -450.0 227.5 -415.0 215.0 -380.0 211.0 -366.5 L426.0 -362.5 M432.0 4.0 L437.0 -17.5 Q464.0 -19.5 490.5 -23.0 516.5 -26.5 540.5 -32.0 534.5 -48.5 524.0 -80.5 513.0 -112.5 499.5 -152.0 486.0 -191.0 472.5 -228.5 459.0 -266.5 448.5 -294.0 438.0 -322.0 433.0 -331.5 418.5 -331.5 386.0 -330.5 354.0 -329.0 315.5 -327.0 277.0 -325.5 244.5 -323.0 211.5 -320.5 196.5 -318.5 194.0 -312.0 184.0 -278.5 174.5 -245.5 162.0 -199.0 150.0 -153.0 139.5 -108.0 129.0 -62.5 125.0 -32.0 144.5 -26.5 167.5 -23.0 191.0 -19.5 213.0 -17.5 L217.0 4.0 Q200.0 3.0 169.5 2.0 139.0 1.0 108.5 0.5 78.5 0.0 62.5 0.0 48.0 0.0 25.0 0.5 1.5 1.0 -21.0 2.0 -44.0 3.0 -56.5 4.0 L-53.5 -17.5 Q-31.0 -20.0 -8.5 -23.5 14.0 -27.0 34.5 -32.0 44.5 -49.0 65.5 -100.0 86.5 -151.0 114.0 -221.5 141.5 -292.0 170.5 -368.5 199.5 -445.0 225.5 -513.5 251.0 -582.0 268.5 -628.5 285.5 -675.5 289.5 -686.0 272.0 -691.0 250.0 -694.0 228.0 -697.5 208.5 -699.5 L207.5 -721.0 Q224.0 -720.0 252.0 -719.0 280.0 -718.0 305.5 -717.5 331.0 -717.0 341.0 -717.0 363.5 -717.0 398.5 -717.5 434.0 -718.0 467.0 -719.0 500.0 -720.0 516.0 -721.0 L513.0 -699.5 Q492.5 -697.5 473.0 -694.0 453.0 -691.0 435.0 -686.0 440.0 -668.5 451.5 -633.5 463.0 -598.0 479.0 -553.0 494.5 -507.5 511.0 -460.5 527.5 -413.5 542.5 -372.5 553.5 -342.5 570.0 -298.5 586.0 -255.0 605.5 -206.5 624.5 -157.5 644.0 -112.0 664.0 -66.0 682.0 -32.0 704.0 -27.5 726.5 -24.0 749.0 -20.5 772.0 -17.5 L775.0 4.0 Q770.0 3.0 751.0 2.5 732.0 2.0 705.5 1.0 679.5 0.5 652.5 0.5 626.0 0.0 605.0 0.0 593.0 0.0 569.5 0.5 545.5 0.5 517.5 1.0 490.0 2.0 466.5 2.5 443.0 3.0 432.0 4.0" fill-rule="evenodd" stroke="none"/>
    </g>
    <g id="font_Charlemagne_Std_c0">
      <path d="M760.0 -486.5 L736.5 -493.5 Q736.5 -504.0 735.5 -520.5 734.5 -537.0 733.5 -553.0 732.0 -569.5 730.5 -578.5 720.5 -602.0 687.0 -629.5 654.0 -657.0 602.0 -677.0 550.0 -696.5 483.5 -697.5 390.0 -696.5 322.0 -656.5 254.0 -616.5 217.0 -550.0 180.0 -483.5 179.5 -402.5 180.0 -327.0 208.5 -260.5 237.5 -194.0 289.0 -143.0 340.5 -92.0 409.5 -63.0 479.0 -34.0 560.5 -33.5 620.0 -33.0 683.5 -45.0 747.5 -57.0 803.0 -89.0 L788.5 -44.5 Q776.5 -34.5 739.5 -20.0 702.0 -6.0 642.0 5.0 581.5 16.0 501.0 16.5 481.0 17.0 442.5 14.0 403.5 11.0 357.0 1.5 311.0 -8.5 268.5 -28.5 168.0 -78.5 112.5 -160.5 57.5 -242.5 56.5 -342.0 57.0 -412.5 78.5 -471.0 100.0 -529.0 136.5 -573.5 173.0 -618.0 218.5 -648.5 271.5 -684.0 322.0 -702.5 372.0 -721.0 422.0 -727.5 472.0 -734.0 523.5 -733.5 569.0 -733.0 612.5 -728.5 656.0 -723.5 689.5 -717.5 722.5 -711.0 737.5 -707.0 741.0 -714.5 745.0 -733.5 749.5 -753.0 753.5 -772.0 757.5 -791.0 759.0 -798.0 L782.5 -803.0 Q771.0 -718.5 766.0 -639.0 760.5 -559.5 760.0 -486.5" fill-rule="evenodd" stroke="none"/>
    </g>
    <g id="font_Charlemagne_Std_h0">
      <path d="M167.0 -330.0 L167.0 -426.0 Q167.0 -439.5 167.0 -475.5 166.5 -511.5 166.0 -555.5 165.5 -599.0 164.5 -635.0 163.5 -671.5 162.0 -685.0 152.0 -687.5 131.5 -690.5 111.0 -693.0 89.5 -696.0 68.0 -698.5 54.5 -699.5 L49.5 -721.0 Q59.0 -720.0 89.0 -719.0 119.5 -718.0 157.5 -717.5 195.5 -717.0 229.5 -717.0 262.0 -717.0 297.0 -717.5 332.5 -718.0 359.5 -719.0 387.0 -720.0 396.0 -721.0 L391.0 -699.5 Q376.0 -698.5 356.0 -696.0 336.0 -693.0 318.5 -690.5 300.5 -687.5 291.5 -685.0 289.5 -670.0 287.5 -631.0 286.0 -592.0 284.5 -543.0 283.5 -494.0 283.5 -448.5 L283.5 -398.5 Q290.5 -398.5 321.0 -398.0 351.5 -398.0 396.0 -397.5 440.5 -397.5 490.0 -397.5 540.0 -397.0 586.0 -397.5 631.5 -398.0 664.5 -399.0 697.5 -399.5 708.5 -401.5 L708.5 -448.5 Q708.5 -479.0 708.5 -515.5 708.5 -552.0 708.0 -587.5 707.0 -622.5 706.0 -648.5 704.5 -675.0 702.5 -685.0 693.0 -687.5 675.0 -690.5 657.0 -693.0 636.5 -696.0 616.5 -698.5 601.0 -699.5 L596.0 -721.0 Q605.5 -720.0 635.0 -719.0 664.5 -718.0 702.0 -717.5 739.0 -717.0 772.0 -717.0 806.0 -717.0 841.5 -717.5 877.5 -718.0 905.0 -719.0 932.5 -720.0 942.5 -721.0 L936.5 -699.5 Q926.0 -698.5 907.0 -696.0 888.0 -693.0 868.0 -690.5 847.5 -687.5 832.0 -685.0 830.5 -678.5 829.5 -653.0 828.0 -628.0 827.5 -593.0 826.5 -558.5 826.0 -523.5 825.5 -488.0 825.0 -461.5 825.0 -435.0 825.0 -426.0 L825.0 -354.5 Q825.0 -309.0 825.5 -258.5 826.0 -208.5 827.0 -161.5 828.0 -115.0 829.5 -80.0 831.5 -45.5 834.0 -32.0 845.0 -29.5 865.5 -26.5 886.0 -23.5 906.0 -20.5 926.5 -18.0 937.5 -17.5 L942.5 4.0 Q935.0 3.0 914.5 2.5 894.0 2.0 867.5 1.0 841.0 0.5 815.0 0.5 789.5 0.0 771.0 0.0 748.0 0.0 713.5 0.5 679.5 1.0 647.0 2.0 614.5 3.0 596.0 4.0 L601.0 -17.5 Q609.5 -18.0 630.0 -20.5 650.5 -23.5 671.5 -26.5 692.0 -29.5 702.5 -32.0 705.5 -50.5 706.5 -94.0 708.0 -138.0 708.5 -194.0 708.5 -250.0 708.5 -305.0 L708.5 -364.5 Q695.5 -364.5 661.5 -362.5 627.0 -361.0 580.0 -358.5 533.5 -356.5 483.5 -353.5 433.5 -351.0 389.5 -348.5 345.5 -345.5 316.5 -344.0 288.0 -342.0 283.5 -341.0 L283.5 -305.0 Q283.5 -252.0 284.5 -196.5 286.0 -141.0 287.5 -96.5 289.5 -52.0 291.5 -32.0 306.0 -28.5 325.0 -25.5 344.5 -22.5 362.5 -20.5 380.5 -18.0 391.0 -17.5 L396.0 4.0 Q387.5 3.0 367.0 2.5 347.0 2.0 321.0 1.0 295.5 0.5 271.0 0.5 246.5 0.0 229.5 0.0 202.0 0.0 166.0 0.5 130.0 1.0 98.0 2.0 65.5 3.0 49.5 4.0 L55.5 -17.5 Q68.0 -18.0 89.0 -20.5 110.5 -23.5 131.0 -26.5 151.5 -29.5 162.0 -32.0 163.5 -50.5 164.5 -87.5 165.5 -124.5 166.0 -169.5 166.5 -214.5 167.0 -257.0 167.0 -299.5 167.0 -330.0" fill-rule="evenodd" stroke="none"/>
    </g>
    <g id="font_Charlemagne_Std_i0">
      <path d="M283.5 -420.0 L283.5 -356.5 Q283.5 -306.0 283.5 -252.5 284.0 -199.0 284.5 -152.0 285.0 -104.5 286.0 -72.5 287.0 -40.0 288.5 -32.0 302.0 -28.5 323.5 -26.0 344.5 -23.0 365.0 -20.5 385.0 -18.5 396.0 -17.5 L401.0 4.0 Q389.0 3.0 355.5 2.0 322.0 1.0 282.0 0.5 241.5 0.0 209.0 0.0 190.5 0.0 159.0 0.5 127.5 1.0 96.5 2.0 66.0 3.0 49.5 4.0 L53.5 -17.5 Q63.0 -18.0 84.5 -20.5 106.0 -23.5 128.0 -26.5 150.0 -29.5 162.0 -32.0 163.5 -49.0 164.5 -88.0 165.5 -127.0 166.0 -176.5 166.5 -226.5 167.0 -276.5 167.0 -326.0 167.0 -364.5 L167.0 -425.0 Q167.0 -439.0 167.0 -475.0 166.5 -511.0 166.0 -555.0 165.5 -598.5 164.5 -634.5 163.5 -671.0 162.0 -685.0 151.0 -687.5 129.5 -690.5 107.5 -693.0 86.5 -696.0 65.0 -698.5 54.5 -699.5 L49.5 -721.0 Q60.0 -720.0 90.5 -719.0 121.0 -718.0 161.5 -717.5 202.5 -717.0 243.5 -717.0 270.5 -717.0 304.0 -717.5 337.0 -718.0 364.0 -719.0 391.5 -720.0 401.0 -721.0 L396.0 -699.5 Q385.5 -698.5 367.5 -696.0 349.0 -693.0 328.5 -690.5 307.5 -687.5 288.5 -685.0 286.5 -674.0 285.5 -635.5 284.5 -596.5 284.0 -540.0 283.5 -484.0 283.5 -420.0" fill-rule="evenodd" stroke="none"/>
    </g>
  </defs>
</svg>
