<?xml version="1.0" encoding="UTF-8" standalone="no"?>
<svg xmlns:ffdec="https://www.free-decompiler.com/flash" xmlns:xlink="http://www.w3.org/1999/xlink" ffdec:objectType="text" height="10.85px" width="82.0px" xmlns="http://www.w3.org/2000/svg">
  <g transform="matrix(1.0, 0.0, 0.0, 1.0, 0.55, -0.45)">
    <g transform="matrix(1.0, 0.0, 0.0, 1.0, 0.0, 0.0)">
      <use fill="#6f774d" height="10.85" transform="matrix(0.0098, 0.0, 0.0, 0.0098, 0.0, 9.0)" width="82.0" xlink:href="#font_Charlemagne_Std_a0"/>
      <use fill="#6f774d" height="10.85" transform="matrix(0.0098, 0.0, 0.0, 0.0098, 7.1, 9.0)" width="82.0" xlink:href="#font_Charlemagne_Std_d0"/>
      <use fill="#6f774d" height="10.85" transform="matrix(0.0098, 0.0, 0.0, 0.0098, 16.45, 9.0)" width="82.0" xlink:href="#font_Charlemagne_Std_r0"/>
      <use fill="#6f774d" height="10.85" transform="matrix(0.0098, 0.0, 0.0, 0.0098, 23.95, 9.0)" width="82.0" xlink:href="#font_Charlemagne_Std_i0"/>
      <use fill="#6f774d" height="10.85" transform="matrix(0.0098, 0.0, 0.0, 0.0098, 28.35, 9.0)" width="82.0" xlink:href="#font_Charlemagne_Std_a0"/>
      <use fill="#6f774d" height="10.85" transform="matrix(0.0098, 0.0, 0.0, 0.0098, 35.2, 9.0)" width="82.0" xlink:href="#font_Charlemagne_Std_t0"/>
      <use fill="#6f774d" height="10.85" transform="matrix(0.0098, 0.0, 0.0, 0.0098, 42.65, 9.0)" width="82.0" xlink:href="#font_Charlemagne_Std_i0"/>
      <use fill="#6f774d" height="10.85" transform="matrix(0.0098, 0.0, 0.0, 0.0098, 46.9, 9.0)" width="82.0" xlink:href="#font_Charlemagne_Std_c0"/>
      <use fill="#6f774d" height="10.85" transform="matrix(0.0098, 0.0, 0.0, 0.0098, 57.5, 9.0)" width="82.0" xlink:href="#font_Charlemagne_Std_s0"/>
      <use fill="#6f774d" height="10.85" transform="matrix(0.0098, 0.0, 0.0, 0.0098, 63.0, 9.0)" width="82.0" xlink:href="#font_Charlemagne_Std_e0"/>
      <use fill="#6f774d" height="10.85" transform="matrix(0.0098, 0.0, 0.0, 0.0098, 69.35, 9.0)" width="82.0" xlink:href="#font_Charlemagne_Std_a0"/>
    </g>
  </g>
  <defs>
    <g id="font_Charlemagne_Std_a0">
      <path d="M426.0 -362.5 L426.0 -362.5 Q417.0 -388.5 402.5 -431.0 388.0 -473.0 371.5 -520.0 355.5 -566.5 342.0 -606.5 328.0 -646.5 321.5 -669.0 L319.5 -669.0 Q307.0 -633.5 290.5 -588.0 274.0 -542.0 257.0 -496.0 240.0 -450.0 227.5 -415.0 215.0 -380.0 211.0 -366.5 L426.0 -362.5 M432.0 4.0 L437.0 -17.5 Q464.0 -19.5 490.5 -23.0 516.5 -26.5 540.5 -32.0 534.5 -48.5 524.0 -80.5 513.0 -112.5 499.5 -152.0 486.0 -191.0 472.5 -228.5 459.0 -266.5 448.5 -294.0 438.0 -322.0 433.0 -331.5 418.5 -331.5 386.0 -330.5 354.0 -329.0 315.5 -327.0 277.0 -325.5 244.5 -323.0 211.5 -320.5 196.5 -318.5 194.0 -312.0 184.0 -278.5 174.5 -245.5 162.0 -199.0 150.0 -153.0 139.5 -108.0 129.0 -62.5 125.0 -32.0 144.5 -26.5 167.5 -23.0 191.0 -19.5 213.0 -17.5 L217.0 4.0 Q200.0 3.0 169.5 2.0 139.0 1.0 108.5 0.5 78.5 0.0 62.5 0.0 48.0 0.0 25.0 0.5 1.5 1.0 -21.0 2.0 -44.0 3.0 -56.5 4.0 L-53.5 -17.5 Q-31.0 -20.0 -8.5 -23.5 14.0 -27.0 34.5 -32.0 44.5 -49.0 65.5 -100.0 86.5 -151.0 114.0 -221.5 141.5 -292.0 170.5 -368.5 199.5 -445.0 225.5 -513.5 251.0 -582.0 268.5 -628.5 285.5 -675.5 289.5 -686.0 272.0 -691.0 250.0 -694.0 228.0 -697.5 208.5 -699.5 L207.5 -721.0 Q224.0 -720.0 252.0 -719.0 280.0 -718.0 305.5 -717.5 331.0 -717.0 341.0 -717.0 363.5 -717.0 398.5 -717.5 434.0 -718.0 467.0 -719.0 500.0 -720.0 516.0 -721.0 L513.0 -699.5 Q492.5 -697.5 473.0 -694.0 453.0 -691.0 435.0 -686.0 440.0 -668.5 451.5 -633.5 463.0 -598.0 479.0 -553.0 494.5 -507.5 511.0 -460.5 527.5 -413.5 542.5 -372.5 553.5 -342.5 570.0 -298.5 586.0 -255.0 605.5 -206.5 624.5 -157.5 644.0 -112.0 664.0 -66.0 682.0 -32.0 704.0 -27.5 726.5 -24.0 749.0 -20.5 772.0 -17.5 L775.0 4.0 Q770.0 3.0 751.0 2.5 732.0 2.0 705.5 1.0 679.5 0.5 652.5 0.5 626.0 0.0 605.0 0.0 593.0 0.0 569.5 0.5 545.5 0.5 517.5 1.0 490.0 2.0 466.5 2.5 443.0 3.0 432.0 4.0" fill-rule="evenodd" stroke="none"/>
    </g>
    <g id="font_Charlemagne_Std_d0">
      <path d="M283.5 -381.0 L283.5 -341.0 Q283.5 -319.0 284.0 -278.5 284.5 -237.5 285.5 -192.0 286.5 -146.0 288.0 -108.5 289.0 -71.5 290.5 -56.5 324.5 -44.0 353.5 -40.5 382.0 -37.5 402.5 -38.0 476.5 -38.0 545.0 -59.5 613.0 -80.5 667.5 -122.5 721.5 -164.5 753.0 -226.5 785.0 -289.0 785.5 -371.0 786.5 -436.5 761.5 -498.0 736.5 -559.0 674.0 -607.5 636.0 -635.0 586.0 -651.5 536.0 -668.0 482.5 -675.5 429.0 -683.0 381.0 -683.0 368.5 -683.0 351.5 -682.5 335.0 -681.5 318.5 -680.5 302.0 -679.0 290.5 -677.0 289.5 -671.5 288.5 -644.5 287.5 -617.5 287.0 -579.0 286.0 -540.5 285.0 -500.0 284.5 -460.0 284.0 -427.5 283.5 -395.5 283.5 -381.0 M167.0 -350.5 L167.0 -431.0 Q167.0 -449.5 166.5 -487.5 166.0 -525.0 165.5 -568.0 164.5 -610.5 163.0 -643.5 162.0 -676.5 160.0 -685.0 146.0 -688.0 125.5 -690.5 104.5 -693.5 84.5 -696.0 64.0 -698.5 51.5 -699.5 L49.5 -721.0 Q55.5 -720.0 76.0 -719.5 96.5 -719.0 123.5 -718.0 150.0 -717.5 176.0 -717.5 201.5 -717.0 218.0 -717.0 237.0 -717.0 278.0 -718.0 318.5 -719.0 366.0 -720.0 414.0 -721.0 454.5 -721.0 545.0 -721.0 618.5 -709.5 692.5 -698.5 743.5 -674.0 803.0 -645.0 840.5 -605.0 877.5 -565.0 894.5 -519.0 911.5 -473.0 911.5 -426.0 911.5 -344.0 879.0 -268.0 846.0 -192.0 777.5 -131.0 708.5 -70.0 602.0 -34.5 495.5 1.0 348.0 2.0 330.0 2.0 297.5 2.0 264.5 2.0 225.0 2.5 186.0 2.5 148.5 3.0 111.0 3.0 84.5 3.5 57.5 3.5 49.5 4.0 L53.5 -17.5 Q64.0 -18.0 84.0 -20.0 104.5 -22.0 125.5 -25.0 147.0 -28.0 160.0 -32.0 162.0 -39.0 163.0 -72.0 164.5 -105.0 165.5 -153.0 166.0 -201.0 166.5 -253.0 167.0 -305.0 167.0 -350.5" fill-rule="evenodd" stroke="none"/>
    </g>
    <g id="font_Charlemagne_Std_r0">
      <path d="M280.5 -393.0 L280.5 -361.5 Q308.5 -361.0 340.0 -365.0 372.0 -369.0 405.5 -381.0 428.5 -389.0 455.0 -408.5 482.0 -428.0 501.5 -461.5 521.0 -495.5 522.0 -546.0 522.5 -579.5 500.0 -613.0 477.5 -646.0 425.5 -668.5 373.5 -690.5 285.5 -691.5 284.5 -675.0 283.5 -637.5 282.5 -600.0 282.0 -554.0 281.0 -508.0 281.0 -464.5 280.5 -421.5 280.5 -393.0 M166.0 -369.5 L166.0 -432.0 Q166.0 -444.0 166.0 -471.0 165.5 -497.5 165.5 -531.5 165.0 -565.5 164.5 -598.5 164.0 -631.0 163.0 -655.0 162.0 -678.5 161.0 -685.0 151.5 -687.5 130.0 -690.0 108.5 -692.0 86.0 -694.5 63.5 -696.5 51.5 -697.5 L48.5 -719.0 269.0 -720.0 Q318.5 -720.0 372.0 -718.5 425.0 -717.0 473.5 -711.0 522.5 -705.0 558.0 -691.5 599.0 -675.5 622.5 -646.0 645.5 -617.0 646.0 -574.5 645.5 -542.0 626.0 -505.5 606.5 -469.5 574.0 -436.5 541.5 -403.5 501.5 -381.0 505.5 -372.5 525.0 -339.5 545.0 -307.0 575.5 -259.5 605.5 -211.5 642.0 -159.0 678.0 -106.0 715.0 -57.5 752.0 -9.0 784.0 25.5 L739.0 32.5 Q716.5 21.5 675.5 -16.0 634.5 -54.0 586.0 -105.0 537.5 -156.0 492.0 -206.5 446.5 -257.0 415.5 -292.5 384.5 -328.5 378.5 -336.0 348.5 -333.5 321.5 -332.0 294.5 -330.0 280.5 -330.0 L280.5 -303.5 Q280.5 -277.5 281.0 -239.5 281.0 -201.5 282.0 -160.5 282.5 -119.5 283.5 -85.0 284.5 -50.5 285.5 -32.0 295.0 -29.0 316.0 -26.5 337.0 -23.5 359.0 -21.0 381.0 -18.5 393.0 -17.5 L397.0 4.0 Q383.0 3.0 350.5 2.0 318.0 1.0 282.0 0.5 246.0 0.0 221.0 0.0 205.0 0.0 180.0 0.5 154.5 0.5 128.0 1.0 101.0 2.0 79.5 2.5 57.5 3.0 48.5 4.0 L52.5 -17.5 Q60.5 -18.0 80.5 -20.0 100.5 -22.0 123.0 -25.0 146.0 -28.0 161.0 -32.0 162.5 -44.0 163.5 -82.0 164.5 -120.0 165.0 -171.5 165.5 -223.0 166.0 -276.0 166.0 -328.5 166.0 -369.5" fill-rule="evenodd" stroke="none"/>
    </g>
    <g id="font_Charlemagne_Std_i0">
      <path d="M283.5 -420.0 L283.5 -356.5 Q283.5 -306.0 283.5 -252.5 284.0 -199.0 284.5 -152.0 285.0 -104.5 286.0 -72.5 287.0 -40.0 288.5 -32.0 302.0 -28.5 323.5 -26.0 344.5 -23.0 365.0 -20.5 385.0 -18.5 396.0 -17.5 L401.0 4.0 Q389.0 3.0 355.5 2.0 322.0 1.0 282.0 0.5 241.5 0.0 209.0 0.0 190.5 0.0 159.0 0.5 127.5 1.0 96.5 2.0 66.0 3.0 49.5 4.0 L53.5 -17.5 Q63.0 -18.0 84.5 -20.5 106.0 -23.5 128.0 -26.5 150.0 -29.5 162.0 -32.0 163.5 -49.0 164.5 -88.0 165.5 -127.0 166.0 -176.5 166.5 -226.5 167.0 -276.5 167.0 -326.0 167.0 -364.5 L167.0 -425.0 Q167.0 -439.0 167.0 -475.0 166.5 -511.0 166.0 -555.0 165.5 -598.5 164.5 -634.5 163.5 -671.0 162.0 -685.0 151.0 -687.5 129.5 -690.5 107.5 -693.0 86.5 -696.0 65.0 -698.5 54.5 -699.5 L49.5 -721.0 Q60.0 -720.0 90.5 -719.0 121.0 -718.0 161.5 -717.5 202.5 -717.0 243.5 -717.0 270.5 -717.0 304.0 -717.5 337.0 -718.0 364.0 -719.0 391.5 -720.0 401.0 -721.0 L396.0 -699.5 Q385.5 -698.5 367.5 -696.0 349.0 -693.0 328.5 -690.5 307.5 -687.5 288.5 -685.0 286.5 -674.0 285.5 -635.5 284.5 -596.5 284.0 -540.0 283.5 -484.0 283.5 -420.0" fill-rule="evenodd" stroke="none"/>
    </g>
    <g id="font_Charlemagne_Std_t0">
      <path d="M323.5 -377.5 L323.5 -423.5 Q323.5 -453.0 323.0 -491.5 323.0 -530.5 322.0 -569.0 321.5 -607.5 320.5 -636.5 319.5 -665.5 318.5 -675.0 237.0 -674.5 183.0 -667.5 129.0 -661.0 97.5 -651.0 66.5 -641.0 53.0 -632.0 47.0 -614.5 42.0 -588.0 37.0 -561.5 32.5 -535.5 L9.0 -529.5 Q11.5 -555.0 15.0 -600.0 19.0 -645.5 22.0 -695.5 25.0 -746.0 24.5 -787.5 L48.0 -783.5 Q48.5 -772.5 50.0 -753.5 51.5 -734.0 54.0 -717.0 61.0 -716.0 93.0 -714.0 125.5 -712.5 173.5 -711.0 222.0 -709.0 277.0 -708.0 332.0 -707.0 385.0 -707.0 441.0 -707.0 498.5 -708.0 556.0 -709.0 605.5 -711.0 655.0 -712.5 687.5 -714.0 720.0 -716.0 727.0 -717.0 730.0 -727.0 734.0 -746.0 738.0 -765.0 741.0 -780.5 L766.5 -784.5 Q765.0 -777.0 761.5 -751.0 757.5 -725.0 753.5 -690.0 749.0 -655.0 745.0 -619.5 741.0 -584.5 738.0 -557.0 735.0 -530.0 734.0 -520.0 L710.5 -526.5 Q712.0 -557.5 712.5 -586.0 713.5 -614.5 712.5 -632.0 702.5 -639.5 674.0 -647.5 645.5 -655.0 606.5 -661.0 567.5 -667.5 525.0 -671.0 483.0 -675.0 445.0 -675.0 444.0 -664.0 443.0 -634.5 442.0 -605.0 441.5 -566.5 440.5 -528.5 440.5 -490.0 440.0 -452.0 440.0 -423.5 L440.0 -377.5 Q440.0 -343.0 440.5 -297.0 440.5 -251.0 441.5 -201.5 442.0 -152.5 443.0 -108.0 444.0 -63.5 445.0 -32.0 453.0 -30.5 471.0 -28.5 489.5 -26.5 511.0 -24.5 533.0 -22.0 551.0 -20.0 569.5 -18.5 577.5 -17.5 L581.5 4.0 Q571.5 3.0 547.5 2.5 523.5 2.0 493.0 1.0 462.0 0.5 432.5 0.5 402.5 0.0 380.5 0.0 363.0 0.0 334.5 0.5 306.0 0.5 275.5 1.0 244.5 2.0 219.0 2.5 194.0 3.0 182.0 4.0 L187.0 -17.5 Q200.0 -18.5 226.0 -21.5 252.5 -24.0 278.5 -27.0 305.0 -30.0 318.5 -32.0 319.5 -62.5 320.5 -107.0 321.5 -151.5 322.0 -201.0 323.0 -251.0 323.0 -297.0 323.5 -343.5 323.5 -377.5" fill-rule="evenodd" stroke="none"/>
    </g>
    <g id="font_Charlemagne_Std_c0">
      <path d="M760.0 -486.5 L736.5 -493.5 Q736.5 -504.0 735.5 -520.5 734.5 -537.0 733.5 -553.0 732.0 -569.5 730.5 -578.5 720.5 -602.0 687.0 -629.5 654.0 -657.0 602.0 -677.0 550.0 -696.5 483.5 -697.5 390.0 -696.5 322.0 -656.5 254.0 -616.5 217.0 -550.0 180.0 -483.5 179.5 -402.5 180.0 -327.0 208.5 -260.5 237.5 -194.0 289.0 -143.0 340.5 -92.0 409.5 -63.0 479.0 -34.0 560.5 -33.5 620.0 -33.0 683.5 -45.0 747.5 -57.0 803.0 -89.0 L788.5 -44.5 Q776.5 -34.5 739.5 -20.0 702.0 -6.0 642.0 5.0 581.5 16.0 501.0 16.5 481.0 17.0 442.5 14.0 403.5 11.0 357.0 1.5 311.0 -8.5 268.5 -28.5 168.0 -78.5 112.5 -160.5 57.5 -242.5 56.5 -342.0 57.0 -412.5 78.5 -471.0 100.0 -529.0 136.5 -573.5 173.0 -618.0 218.5 -648.5 271.5 -684.0 322.0 -702.5 372.0 -721.0 422.0 -727.5 472.0 -734.0 523.5 -733.5 569.0 -733.0 612.5 -728.5 656.0 -723.5 689.5 -717.5 722.5 -711.0 737.5 -707.0 741.0 -714.5 745.0 -733.5 749.5 -753.0 753.5 -772.0 757.5 -791.0 759.0 -798.0 L782.5 -803.0 Q771.0 -718.5 766.0 -639.0 760.5 -559.5 760.0 -486.5" fill-rule="evenodd" stroke="none"/>
    </g>
    <g id="font_Charlemagne_Std_s0">
      <path d="M88.5 97.5 L64.5 103.5 Q65.5 97.5 68.0 77.0 70.5 56.0 73.5 29.0 76.5 2.0 79.0 -23.5 81.0 -49.0 81.0 -64.5 81.0 -75.0 82.0 -97.5 83.0 -120.0 84.0 -146.0 84.5 -172.5 85.0 -194.5 85.0 -216.5 84.0 -226.5 L107.5 -220.0 Q107.5 -213.0 108.5 -195.0 109.5 -177.5 111.5 -158.5 113.5 -140.0 115.0 -130.0 136.5 -80.0 178.0 -49.5 220.0 -19.5 273.5 -18.5 314.5 -18.5 347.5 -35.0 380.0 -51.5 399.5 -80.5 418.5 -109.5 419.0 -147.5 418.5 -188.5 400.0 -218.0 381.0 -247.5 351.5 -270.5 321.5 -293.5 288.0 -314.5 237.0 -346.5 196.5 -379.5 156.0 -413.0 132.0 -454.5 108.0 -496.0 107.5 -553.0 107.5 -594.0 128.5 -635.5 150.0 -676.5 196.5 -704.5 243.0 -732.5 318.5 -733.5 364.5 -733.0 401.0 -726.5 437.5 -720.0 456.5 -715.0 462.0 -733.5 466.0 -755.5 470.5 -777.0 475.0 -798.0 L498.5 -801.0 Q487.5 -725.0 481.0 -654.0 474.0 -583.5 474.0 -520.5 L450.5 -530.5 Q450.5 -556.5 449.5 -575.5 448.0 -594.5 446.5 -608.5 440.5 -627.5 422.0 -648.5 403.5 -670.0 375.0 -685.0 346.5 -700.0 310.5 -700.5 266.5 -700.0 239.0 -684.5 211.0 -668.5 198.0 -645.0 185.5 -622.0 185.5 -598.0 186.0 -565.5 206.5 -540.0 226.5 -515.0 260.0 -493.0 293.5 -470.5 333.0 -446.5 376.5 -420.5 415.0 -389.5 454.0 -358.5 478.5 -314.5 503.0 -271.0 504.0 -207.0 503.0 -135.5 469.5 -85.5 436.0 -36.0 379.5 -10.0 322.5 16.0 252.0 16.5 227.0 16.5 200.0 13.0 173.0 10.0 149.5 4.5 125.5 -1.5 111.0 -9.0 108.0 1.0 104.5 18.5 100.5 36.5 96.0 57.0 92.0 78.0 88.5 97.5" fill-rule="evenodd" stroke="none"/>
    </g>
    <g id="font_Charlemagne_Std_e0">
      <path d="M167.0 -351.0 L167.0 -398.0 Q167.0 -433.5 166.5 -477.0 166.0 -521.0 165.0 -563.5 164.0 -606.5 162.5 -639.0 161.5 -671.5 160.0 -684.0 149.5 -686.5 129.0 -689.0 108.5 -692.0 87.5 -694.5 66.5 -697.0 53.5 -698.5 L49.5 -721.0 Q68.0 -720.0 92.0 -719.5 116.0 -718.5 141.5 -718.0 167.0 -718.0 190.5 -717.5 214.0 -717.0 231.5 -717.0 242.0 -717.0 272.5 -717.0 303.0 -717.0 343.5 -717.5 384.0 -718.0 424.0 -718.5 464.0 -719.5 493.5 -721.0 523.0 -722.0 532.5 -724.5 534.5 -734.0 536.5 -746.0 539.0 -758.5 540.5 -772.5 L564.0 -776.5 Q562.0 -767.5 559.0 -739.0 556.0 -710.0 552.5 -674.5 549.5 -638.5 547.0 -608.0 544.5 -577.5 543.5 -564.5 L521.0 -571.5 Q521.0 -575.5 521.5 -589.5 521.5 -603.0 521.5 -618.5 521.5 -634.5 521.0 -645.5 513.0 -656.5 485.0 -664.5 456.5 -673.0 419.5 -678.0 382.0 -683.5 347.0 -686.0 312.0 -688.5 290.5 -688.5 289.5 -683.5 288.5 -660.5 287.5 -637.5 287.0 -603.5 286.0 -570.0 285.0 -533.5 284.5 -497.0 284.0 -466.0 283.5 -434.5 283.5 -415.5 L283.5 -395.0 Q328.5 -395.0 372.0 -397.0 416.0 -399.5 449.5 -403.0 482.5 -406.5 496.0 -411.5 499.5 -423.0 502.0 -434.0 504.5 -445.0 506.0 -455.5 L527.5 -457.5 Q526.0 -450.0 522.5 -424.5 519.5 -399.0 515.0 -367.0 510.5 -335.0 507.0 -307.5 503.0 -279.5 501.0 -266.0 L481.5 -274.5 Q482.5 -291.0 483.0 -309.0 483.5 -327.5 483.5 -343.0 467.5 -351.0 437.0 -356.0 407.0 -361.0 367.5 -363.5 328.0 -365.5 283.5 -365.5 L283.5 -345.0 Q283.5 -325.5 284.0 -291.0 284.5 -256.5 285.0 -215.5 286.0 -174.5 287.0 -135.5 287.5 -96.5 288.5 -67.5 289.5 -39.0 290.5 -29.5 342.5 -29.5 389.5 -32.5 437.0 -36.0 475.0 -43.5 513.0 -51.0 536.5 -64.5 545.0 -91.5 550.0 -114.5 555.0 -137.5 559.0 -154.5 L583.0 -160.5 Q580.0 -148.5 575.0 -118.5 570.0 -88.0 564.5 -50.5 559.5 -13.0 555.0 21.5 550.5 55.5 549.0 75.5 L527.5 71.5 Q527.5 51.0 527.5 36.0 527.0 21.0 526.5 9.0 517.0 7.5 488.0 6.5 459.0 5.0 419.0 3.5 379.0 2.5 337.5 1.5 295.5 1.0 260.0 0.5 225.0 0.0 205.0 0.0 186.5 0.0 158.0 0.5 129.0 1.0 99.5 2.0 70.0 3.0 49.5 4.0 L54.5 -17.5 Q63.5 -18.0 83.0 -20.0 102.5 -22.0 124.0 -25.0 145.5 -28.0 160.0 -32.0 161.5 -39.5 162.5 -73.5 164.0 -107.5 165.0 -156.0 166.0 -204.5 166.5 -256.5 167.0 -308.0 167.0 -351.0" fill-rule="evenodd" stroke="none"/>
    </g>
  </defs>
</svg>
