<?xml version="1.0" encoding="UTF-8" standalone="no"?>
<svg xmlns:ffdec="https://www.free-decompiler.com/flash" xmlns:xlink="http://www.w3.org/1999/xlink" ffdec:objectType="text" height="29.85px" width="268.15px" xmlns="http://www.w3.org/2000/svg">
  <g transform="matrix(1.0, 0.0, 0.0, 1.0, -59.5, -5.45)">
    <g transform="matrix(1.0, 0.0, 0.0, 1.0, 0.0, 0.0)">
      <use fill="#ffcc33" height="29.85" transform="matrix(0.0332, 0.0, 0.0, 0.0332, 58.0, 33.0)" width="268.15" xlink:href="#font_Lithos_Pro_Regular_G0"/>
      <use fill="#ffcc33" height="29.85" transform="matrix(0.0332, 0.0, 0.0, 0.0332, 84.15, 33.0)" width="268.15" xlink:href="#font_Lithos_Pro_Regular_A0"/>
      <use fill="#ffcc33" height="29.85" transform="matrix(0.0332, 0.0, 0.0, 0.0332, 113.9, 33.0)" width="268.15" xlink:href="#font_Lithos_Pro_Regular_M0"/>
      <use fill="#ffcc33" height="29.85" transform="matrix(0.0332, 0.0, 0.0, 0.0332, 151.9, 33.0)" width="268.15" xlink:href="#font_Lithos_Pro_Regular_E0"/>
      <use fill="#ffcc33" height="29.85" transform="matrix(0.0332, 0.0, 0.0, 0.0332, 183.55, 33.0)" width="268.15" xlink:href="#font_Lithos_Pro_Regular_S0"/>
      <use fill="#ffcc33" height="29.85" transform="matrix(0.0332, 0.0, 0.0, 0.0332, 203.15, 33.0)" width="268.15" xlink:href="#font_Lithos_Pro_Regular_A0"/>
      <use fill="#ffcc33" height="29.85" transform="matrix(0.0332, 0.0, 0.0, 0.0332, 230.2, 33.0)" width="268.15" xlink:href="#font_Lithos_Pro_Regular_V0"/>
      <use fill="#ffcc33" height="29.85" transform="matrix(0.0332, 0.0, 0.0, 0.0332, 258.65, 33.0)" width="268.15" xlink:href="#font_Lithos_Pro_Regular_E0"/>
      <use fill="#ffcc33" height="29.85" transform="matrix(0.0332, 0.0, 0.0, 0.0332, 280.8, 33.0)" width="268.15" xlink:href="#font_Lithos_Pro_Regular_D0"/>
    </g>
  </g>
  <defs>
    <g id="font_Lithos_Pro_Regular_G0">
      <path d="M683.0 -233.0 L683.0 -233.0 683.0 -158.5 Q683.0 -138.0 683.5 -106.5 684.0 -75.5 684.5 -47.0 685.0 -19.0 685.0 -7.0 671.5 -3.0 638.0 2.5 605.0 8.0 558.0 12.5 511.5 16.5 459.0 16.5 310.5 13.5 217.0 -28.5 123.5 -70.0 79.5 -138.0 35.5 -206.0 36.0 -287.5 35.0 -335.5 59.5 -399.0 84.0 -462.5 142.5 -529.0 201.5 -595.5 304.5 -652.5 407.5 -710.0 564.5 -745.5 L611.5 -544.5 Q558.5 -537.5 501.0 -518.0 443.5 -498.5 392.5 -467.5 342.0 -436.0 310.0 -394.0 278.5 -351.5 277.5 -299.0 278.0 -261.0 295.5 -234.0 313.0 -207.0 341.0 -190.5 369.0 -173.5 401.0 -166.0 433.5 -158.5 463.0 -159.5 L464.0 -241.5 Q464.0 -263.5 463.0 -285.0 462.0 -306.0 462.0 -327.5 L684.0 -327.5 Q683.5 -298.5 683.0 -277.0 683.0 -255.5 683.0 -233.0" fill-rule="evenodd" stroke="none"/>
    </g>
    <g id="font_Lithos_Pro_Regular_A0">
      <path d="M328.0 -261.5 L328.0 -261.5 501.0 -270.5 Q486.0 -300.0 470.0 -332.0 453.5 -364.0 439.0 -393.0 424.5 -422.0 415.0 -443.5 402.5 -418.5 387.5 -387.5 372.0 -356.0 356.5 -323.0 341.5 -290.5 328.0 -261.5 M194.5 32.5 L194.5 32.5 0.0 -76.0 Q8.5 -90.0 34.5 -134.5 60.5 -178.5 99.0 -243.0 137.0 -307.5 181.0 -381.5 225.5 -455.5 269.0 -528.5 313.0 -601.5 351.0 -663.5 388.5 -725.0 414.0 -765.0 L424.0 -765.0 Q461.5 -708.5 513.0 -629.0 564.5 -550.0 620.0 -463.5 676.0 -377.0 727.0 -298.5 778.0 -219.5 815.0 -163.5 852.0 -107.0 865.5 -88.5 L662.5 31.5 Q647.0 5.5 628.0 -28.0 608.5 -61.5 592.5 -89.5 576.0 -117.5 570.5 -127.0 L262.0 -110.0 Q257.5 -102.0 246.0 -77.0 234.5 -52.5 220.5 -22.5 206.5 7.5 194.5 32.5" fill-rule="evenodd" stroke="none"/>
    </g>
    <g id="font_Lithos_Pro_Regular_M0">
      <path d="M212.0 32.0 L212.0 32.0 10.5 -43.0 Q15.5 -54.0 33.5 -100.5 51.5 -146.5 78.5 -215.5 105.5 -284.0 136.5 -363.0 167.5 -441.5 198.0 -517.5 228.5 -593.5 253.5 -655.0 279.0 -716.0 294.0 -749.5 L304.5 -749.5 Q323.5 -718.5 351.0 -673.5 378.0 -628.5 408.5 -578.5 439.0 -528.0 468.0 -481.0 496.5 -433.5 518.5 -397.5 540.0 -361.5 550.0 -345.5 562.5 -364.0 585.0 -400.5 607.5 -437.0 635.5 -482.5 664.0 -528.5 692.5 -576.0 721.5 -624.0 747.0 -665.0 772.0 -706.5 788.5 -733.5 L799.0 -733.5 Q817.0 -694.5 844.0 -635.0 871.0 -575.0 903.0 -504.0 935.0 -433.5 967.0 -361.5 999.5 -289.5 1027.5 -226.5 1056.0 -163.5 1076.0 -119.5 1095.5 -75.5 1103.0 -60.5 L896.0 32.0 Q886.0 6.5 870.0 -35.5 854.0 -77.5 835.5 -125.5 817.0 -174.0 800.0 -219.5 783.0 -264.5 770.5 -296.5 758.5 -328.5 755.0 -338.0 749.5 -330.0 726.0 -294.0 702.5 -258.0 669.0 -207.5 635.5 -156.5 600.0 -104.0 564.0 -51.5 534.5 -10.0 L524.5 -10.0 Q494.5 -55.5 462.0 -106.5 429.5 -157.5 399.5 -205.0 370.0 -252.5 349.5 -287.0 328.5 -321.5 322.0 -333.5 316.5 -317.0 305.5 -280.0 294.5 -243.0 281.0 -196.0 267.5 -149.0 253.5 -102.5 240.0 -55.5 229.0 -19.5 218.0 16.5 212.0 32.0" fill-rule="evenodd" stroke="none"/>
    </g>
    <g id="font_Lithos_Pro_Regular_E0">
      <path d="M563.0 -165.5 L563.0 -165.5 567.0 10.5 Q557.0 10.5 524.0 9.5 490.5 9.0 443.5 8.0 396.0 6.5 343.5 5.5 291.0 4.0 242.0 3.0 193.5 1.5 157.5 1.0 121.5 0.0 107.5 0.0 108.5 -17.0 109.0 -49.5 109.5 -82.0 110.0 -121.0 110.0 -160.0 110.5 -197.5 110.5 -234.5 110.5 -261.5 110.5 -288.0 110.5 -296.0 L110.5 -433.0 Q110.5 -439.0 110.5 -467.0 110.0 -495.0 109.5 -535.0 109.5 -574.5 109.0 -615.5 108.5 -656.0 108.0 -686.5 108.0 -717.0 107.5 -727.0 126.0 -727.0 171.5 -728.5 217.0 -730.0 276.0 -732.5 334.5 -735.0 392.0 -737.5 449.5 -740.0 492.0 -742.5 534.0 -744.5 546.5 -745.5 L550.5 -575.5 Q535.5 -575.5 503.0 -574.5 471.0 -574.0 434.5 -573.0 398.5 -572.0 370.0 -571.0 341.5 -570.5 333.5 -570.5 L333.5 -435.0 Q342.0 -435.0 364.5 -436.0 387.0 -436.5 416.0 -438.0 445.0 -439.5 472.0 -441.0 499.0 -442.5 517.0 -444.0 L520.0 -280.5 Q508.5 -280.5 482.0 -281.0 456.0 -282.0 424.5 -282.5 393.5 -283.5 368.0 -284.0 343.0 -284.5 333.5 -284.5 L333.5 -163.5 Q344.5 -163.5 374.0 -163.0 403.0 -163.0 440.0 -163.0 477.0 -163.0 510.5 -163.5 544.0 -164.0 563.0 -165.5" fill-rule="evenodd" stroke="none"/>
    </g>
    <g id="font_Lithos_Pro_Regular_S0">
      <path d="M95.5 18.5 L95.5 18.5 67.5 -156.5 Q118.5 -155.0 165.5 -163.5 213.0 -171.5 244.0 -188.5 274.5 -205.0 275.5 -229.5 276.0 -239.0 268.0 -248.5 260.0 -258.0 238.0 -272.0 216.0 -286.0 175.0 -309.0 142.0 -327.5 110.0 -351.5 78.5 -376.0 57.5 -408.0 36.5 -440.5 35.5 -483.5 36.0 -541.5 84.5 -597.5 133.5 -653.0 225.5 -693.0 317.5 -733.0 447.5 -745.5 L475.0 -574.5 Q379.0 -574.5 330.5 -558.5 282.5 -542.5 282.5 -511.0 282.5 -493.5 307.0 -477.5 332.0 -462.0 382.0 -438.5 410.5 -425.0 443.0 -404.0 476.0 -383.0 499.5 -351.0 523.5 -319.0 524.5 -273.5 524.5 -230.5 501.0 -185.5 477.5 -140.0 426.5 -98.5 375.5 -57.5 294.0 -26.5 212.0 4.5 95.5 18.5" fill-rule="evenodd" stroke="none"/>
    </g>
    <g id="font_Lithos_Pro_Regular_V0">
      <path d="M625.5 -748.5 L625.5 -748.5 841.5 -637.0 Q831.0 -622.0 801.5 -575.0 772.0 -528.5 730.5 -462.0 688.5 -395.0 641.5 -320.0 594.5 -245.0 549.5 -173.0 504.5 -101.5 468.5 -44.5 432.5 12.5 412.5 43.0 L402.5 43.0 Q375.5 1.0 338.0 -60.0 300.5 -121.0 258.5 -192.0 216.5 -263.0 174.5 -334.0 132.5 -405.5 96.5 -467.0 60.5 -529.0 35.0 -571.5 10.0 -614.5 1.0 -629.0 L221.0 -748.5 Q228.0 -733.5 247.0 -693.5 266.0 -653.0 291.5 -599.0 317.0 -545.5 343.0 -490.0 369.0 -435.0 390.0 -390.5 410.5 -346.0 420.5 -324.5 430.5 -346.5 452.5 -392.5 474.5 -438.0 502.0 -494.5 529.5 -551.0 556.0 -605.0 582.5 -659.5 601.5 -698.5 620.5 -737.5 625.5 -748.5" fill-rule="evenodd" stroke="none"/>
    </g>
    <g id="font_Lithos_Pro_Regular_D0">
      <path d="M336.0 -562.0 L336.0 -562.0 336.0 -181.0 Q374.0 -187.0 415.5 -204.0 457.0 -221.0 493.0 -249.5 529.0 -278.0 551.5 -318.5 574.0 -359.5 574.5 -413.0 573.5 -472.5 538.5 -505.0 503.5 -537.5 449.0 -550.0 395.0 -562.5 336.0 -562.0 M110.5 -323.0 L110.5 -323.0 110.5 -449.5 Q110.5 -457.0 110.5 -484.0 110.5 -511.0 110.0 -548.0 109.5 -585.0 109.0 -622.5 108.5 -660.0 107.5 -688.0 106.5 -716.5 105.5 -726.0 199.0 -726.0 270.0 -724.0 341.0 -722.5 396.5 -718.0 451.5 -714.0 499.0 -707.5 598.5 -693.0 661.5 -663.0 725.0 -633.0 759.0 -595.5 793.0 -557.5 806.0 -519.0 818.5 -480.5 818.0 -448.5 817.0 -352.0 775.5 -278.0 734.0 -203.5 662.0 -150.0 590.0 -96.5 498.5 -62.0 407.0 -27.5 305.5 -11.5 204.5 5.0 104.5 5.0 105.5 -10.0 106.5 -44.5 107.5 -79.0 108.5 -123.0 109.0 -166.5 109.5 -209.0 110.0 -252.0 110.5 -283.0 110.5 -314.0 110.5 -323.0" fill-rule="evenodd" stroke="none"/>
    </g>
  </defs>
</svg>
