<?xml version="1.0" encoding="UTF-8" standalone="no"?>
<svg xmlns:ffdec="https://www.free-decompiler.com/flash" xmlns:xlink="http://www.w3.org/1999/xlink" ffdec:objectType="text" height="10.4px" width="32.6px" xmlns="http://www.w3.org/2000/svg">
  <g transform="matrix(1.0, 0.0, 0.0, 1.0, -55.95, 0.0)">
    <g transform="matrix(1.0, 0.0, 0.0, 1.0, 55.0, 0.0)">
      <use fill="#cd9e3f" height="10.4" transform="matrix(0.0098, 0.0, 0.0, 0.0098, 0.0, 9.0)" width="32.6" xlink:href="#font_Lithos_Pro_Regular_S0"/>
      <use fill="#cd9e3f" height="10.4" transform="matrix(0.0098, 0.0, 0.0, 0.0098, 5.25, 9.0)" width="32.6" xlink:href="#font_Lithos_Pro_Regular_p0"/>
      <use fill="#cd9e3f" height="10.4" transform="matrix(0.0098, 0.0, 0.0, 0.0098, 10.75, 9.0)" width="32.6" xlink:href="#font_Lithos_Pro_Regular_e0"/>
      <use fill="#cd9e3f" height="10.4" transform="matrix(0.0098, 0.0, 0.0, 0.0098, 16.05, 9.0)" width="32.6" xlink:href="#font_Lithos_Pro_Regular_e0"/>
      <use fill="#cd9e3f" height="10.4" transform="matrix(0.0098, 0.0, 0.0, 0.0098, 21.35, 9.0)" width="32.6" xlink:href="#font_Lithos_Pro_Regular_d0"/>
    </g>
  </g>
  <defs>
    <g id="font_Lithos_Pro_Regular_S0">
      <path d="M149.5 18.5 L122.5 -58.5 Q161.0 -66.0 200.5 -79.5 240.5 -93.0 274.5 -112.0 308.5 -131.5 329.5 -156.5 350.5 -182.0 351.0 -213.0 351.5 -250.0 325.5 -276.0 299.5 -302.0 244.5 -330.5 178.0 -365.0 138.0 -402.5 98.0 -440.0 97.0 -493.5 97.5 -534.5 123.0 -572.5 148.0 -610.5 190.5 -643.0 232.5 -675.5 284.0 -699.0 335.5 -723.0 389.0 -735.0 L410.5 -656.0 Q386.0 -652.5 350.5 -641.0 315.0 -630.0 280.0 -612.0 245.0 -593.5 221.0 -568.5 197.5 -543.0 196.5 -511.0 197.5 -484.5 217.0 -464.0 236.5 -443.5 263.0 -427.5 289.5 -412.0 312.0 -399.0 351.5 -377.0 383.0 -355.0 414.5 -333.5 433.5 -306.0 452.0 -278.5 452.5 -237.5 452.5 -186.5 417.5 -137.0 383.0 -87.0 315.5 -46.0 248.0 -5.0 149.5 18.5" fill-rule="evenodd" stroke="none"/>
    </g>
    <g id="font_Lithos_Pro_Regular_p0">
      <path d="M223.0 -541.0 L223.0 -248.0 Q279.0 -258.5 324.5 -280.0 370.0 -301.5 397.5 -336.5 424.5 -371.0 425.0 -421.0 425.5 -433.5 419.0 -453.0 412.5 -472.5 392.0 -492.0 372.0 -512.0 331.0 -526.0 290.5 -539.5 223.0 -541.0 M224.0 0.0 L131.0 0.0 Q131.5 -15.5 132.5 -55.5 133.0 -95.5 134.0 -145.5 134.5 -195.5 134.5 -240.0 135.0 -285.0 135.0 -309.5 L135.0 -405.0 Q135.0 -413.5 134.5 -443.5 134.5 -473.5 134.0 -510.0 133.5 -546.0 133.5 -575.0 133.0 -603.5 133.0 -609.5 153.0 -609.5 185.0 -609.0 217.0 -608.0 252.0 -606.0 287.5 -604.0 317.5 -599.5 412.0 -584.5 465.0 -542.5 518.0 -500.5 519.0 -431.5 518.5 -368.5 481.0 -317.5 443.5 -266.5 377.0 -231.5 311.0 -196.0 223.0 -180.5 L223.0 -131.0 Q223.0 -124.0 223.0 -106.0 223.0 -88.0 223.0 -66.0 223.0 -44.0 223.5 -26.0 223.5 -7.5 224.0 0.0" fill-rule="evenodd" stroke="none"/>
    </g>
    <g id="font_Lithos_Pro_Regular_e0">
      <path d="M458.5 -68.5 L461.5 9.5 Q451.5 9.5 417.0 8.5 383.0 7.5 337.5 6.0 292.0 5.0 247.0 3.5 202.0 2.0 170.5 1.0 138.5 0.0 132.0 0.0 133.0 -18.5 133.5 -56.0 134.5 -93.5 134.5 -136.0 135.0 -178.0 135.0 -211.0 135.0 -244.0 135.0 -252.5 L135.0 -368.5 Q135.0 -373.5 135.0 -397.5 134.5 -421.5 134.0 -454.5 134.0 -488.0 133.5 -521.5 133.0 -555.0 132.5 -579.5 132.5 -603.5 132.0 -609.5 139.5 -609.5 168.5 -611.0 197.5 -612.0 238.0 -614.5 278.5 -616.5 320.0 -618.5 362.0 -621.0 395.0 -623.0 428.5 -625.0 443.0 -626.0 L447.0 -552.0 Q431.0 -552.0 397.5 -551.5 364.0 -551.0 326.5 -550.0 288.5 -549.0 259.5 -548.5 231.0 -548.0 224.0 -548.0 L224.0 -334.5 Q231.0 -334.5 253.5 -335.0 276.0 -336.0 305.5 -337.0 335.5 -338.5 365.0 -340.0 394.5 -342.0 416.5 -343.5 L419.5 -269.0 Q407.0 -269.0 378.5 -269.5 350.5 -270.0 317.0 -271.0 284.5 -271.0 258.5 -271.5 232.5 -272.0 224.0 -272.0 L224.0 -65.5 Q233.0 -65.5 258.0 -65.0 283.0 -65.0 317.0 -65.0 351.5 -65.0 388.5 -66.0 425.5 -66.5 458.5 -68.5" fill-rule="evenodd" stroke="none"/>
    </g>
    <g id="font_Lithos_Pro_Regular_d0">
      <path d="M223.0 -541.0 L223.0 -72.0 Q316.5 -78.5 387.0 -105.5 457.0 -132.0 503.5 -172.5 550.0 -212.5 573.0 -260.0 596.0 -307.5 596.0 -355.5 595.5 -422.5 551.5 -464.0 507.5 -506.0 424.0 -524.5 340.5 -543.5 223.0 -541.0 M135.0 -275.5 L135.0 -383.5 Q135.0 -389.5 135.0 -411.5 134.5 -433.5 134.5 -464.0 134.0 -494.0 133.5 -524.5 133.0 -555.0 132.0 -578.5 131.0 -601.5 130.0 -609.5 157.0 -609.5 195.0 -609.5 233.0 -609.5 275.5 -608.5 318.5 -607.5 359.5 -604.5 472.5 -595.0 539.5 -567.5 606.0 -540.0 638.5 -504.0 671.0 -468.5 681.0 -434.0 691.0 -399.5 690.0 -376.0 689.0 -292.5 655.0 -229.5 621.0 -166.5 563.0 -122.0 505.0 -77.5 432.0 -49.5 359.5 -22.0 281.0 -9.0 203.0 4.0 129.0 4.0 130.0 -9.0 131.0 -38.5 132.0 -67.5 133.0 -105.0 133.5 -142.5 134.0 -178.5 134.5 -215.0 135.0 -241.5 135.0 -268.0 135.0 -275.5" fill-rule="evenodd" stroke="none"/>
    </g>
  </defs>
</svg>
