<?xml version="1.0" encoding="UTF-8" standalone="no"?>
<svg xmlns:ffdec="https://www.free-decompiler.com/flash" xmlns:xlink="http://www.w3.org/1999/xlink" ffdec:objectType="text" height="12.7px" width="167.2px" xmlns="http://www.w3.org/2000/svg">
  <g transform="matrix(1.0, 0.0, 0.0, 1.0, -1.05, -0.6)">
    <g transform="matrix(1.0, 0.0, 0.0, 1.0, 0.0, 0.0)">
      <use fill="#000000" height="12.7" transform="matrix(0.0127, 0.0, 0.0, 0.0127, 0.0, 12.0)" width="167.2" xlink:href="#font_Lithos_Pro_Regular_s0"/>
      <use fill="#000000" height="12.7" transform="matrix(0.0127, 0.0, 0.0, 0.0127, 6.25, 12.0)" width="167.2" xlink:href="#font_Lithos_Pro_Regular_t0"/>
      <use fill="#000000" height="12.7" transform="matrix(0.0127, 0.0, 0.0, 0.0127, 13.0, 12.0)" width="167.2" xlink:href="#font_Lithos_Pro_Regular_a0"/>
      <use fill="#000000" height="12.7" transform="matrix(0.0127, 0.0, 0.0, 0.0127, 22.25, 12.0)" width="167.2" xlink:href="#font_Lithos_Pro_Regular_r0"/>
      <use fill="#000000" height="12.7" transform="matrix(0.0127, 0.0, 0.0, 0.0127, 30.25, 12.0)" width="167.2" xlink:href="#font_Lithos_Pro_Regular_t0"/>
      <use fill="#000000" height="12.7" transform="matrix(0.0127, 0.0, 0.0, 0.0127, 41.5, 12.0)" width="167.2" xlink:href="#font_Lithos_Pro_Regular_E0"/>
      <use fill="#000000" height="12.7" transform="matrix(0.0127, 0.0, 0.0, 0.0127, 48.95, 12.0)" width="167.2" xlink:href="#font_Lithos_Pro_Regular_r0"/>
      <use fill="#000000" height="12.7" transform="matrix(0.0127, 0.0, 0.0, 0.0127, 56.95, 12.0)" width="167.2" xlink:href="#font_Lithos_Pro_Regular_r0"/>
      <use fill="#000000" height="12.7" transform="matrix(0.0127, 0.0, 0.0, 0.0127, 64.85, 12.0)" width="167.2" xlink:href="#font_Lithos_Pro_Regular_o0"/>
      <use fill="#000000" height="12.7" transform="matrix(0.0127, 0.0, 0.0, 0.0127, 74.8, 12.0)" width="167.2" xlink:href="#font_Lithos_Pro_Regular_r0"/>
      <use fill="#000000" height="12.7" transform="matrix(0.0127, 0.0, 0.0, 0.0127, 86.7, 12.0)" width="167.2" xlink:href="#font_Lithos_Pro_Regular_-0"/>
      <use fill="#000000" height="12.7" transform="matrix(0.0127, 0.0, 0.0, 0.0127, 95.15, 12.0)" width="167.2" xlink:href="#font_Lithos_Pro_Regular_s0"/>
      <use fill="#000000" height="12.7" transform="matrix(0.0127, 0.0, 0.0, 0.0127, 101.4, 12.0)" width="167.2" xlink:href="#font_Lithos_Pro_Regular_t0"/>
      <use fill="#000000" height="12.7" transform="matrix(0.0127, 0.0, 0.0, 0.0127, 108.15, 12.0)" width="167.2" xlink:href="#font_Lithos_Pro_Regular_a0"/>
      <use fill="#000000" height="12.7" transform="matrix(0.0127, 0.0, 0.0, 0.0127, 117.4, 12.0)" width="167.2" xlink:href="#font_Lithos_Pro_Regular_r0"/>
      <use fill="#000000" height="12.7" transform="matrix(0.0127, 0.0, 0.0, 0.0127, 125.4, 12.0)" width="167.2" xlink:href="#font_Lithos_Pro_Regular_t0"/>
      <use fill="#000000" height="12.7" transform="matrix(0.0127, 0.0, 0.0, 0.0127, 132.75, 12.0)" width="167.2" xlink:href="#font_Lithos_Pro_Regular_M0"/>
      <use fill="#000000" height="12.7" transform="matrix(0.0127, 0.0, 0.0, 0.0127, 146.95, 12.0)" width="167.2" xlink:href="#font_Lithos_Pro_Regular_s0"/>
      <use fill="#000000" height="12.7" transform="matrix(0.0127, 0.0, 0.0, 0.0127, 153.2, 12.0)" width="167.2" xlink:href="#font_Lithos_Pro_Regular_g0"/>
    </g>
  </g>
  <defs>
    <g id="font_Lithos_Pro_Regular_s0">
      <path d="M131.0 16.5 L107.5 -55.5 Q143.5 -62.0 180.5 -73.0 218.0 -83.5 250.0 -99.0 281.5 -114.5 301.5 -135.0 321.0 -155.0 321.5 -181.5 321.5 -214.0 297.0 -235.5 272.5 -257.0 222.0 -280.5 161.0 -309.0 123.0 -341.0 85.0 -373.5 84.0 -420.0 84.5 -456.5 108.5 -490.0 132.0 -523.0 171.5 -550.5 211.0 -578.0 259.5 -597.5 308.0 -617.0 358.5 -626.0 L377.5 -554.0 Q354.0 -551.0 321.0 -542.5 288.0 -533.5 255.0 -519.5 222.5 -505.0 200.5 -484.0 179.0 -462.5 178.0 -434.5 179.0 -411.0 196.5 -394.5 214.5 -377.5 239.0 -365.0 264.0 -352.0 284.5 -341.0 320.5 -322.0 350.0 -304.0 380.0 -285.5 398.0 -261.5 416.0 -237.5 416.5 -202.0 416.0 -156.0 383.0 -113.5 349.5 -70.5 286.0 -36.5 222.5 -2.5 131.0 16.5" fill-rule="evenodd" stroke="none"/>
    </g>
    <g id="font_Lithos_Pro_Regular_t0">
      <path d="M346.0 0.0 L240.0 0.0 Q241.5 -7.5 242.5 -38.5 243.5 -69.5 244.5 -116.0 245.0 -162.5 245.5 -215.5 245.5 -269.0 246.0 -320.5 246.0 -372.5 246.0 -414.5 L246.0 -536.5 Q206.0 -536.5 164.0 -536.0 122.5 -535.0 86.0 -534.0 49.5 -533.0 25.0 -531.5 0.5 -530.0 -5.0 -528.5 L-5.0 -611.5 Q4.0 -609.5 31.0 -607.5 58.5 -606.0 94.0 -604.5 130.0 -603.5 165.0 -602.5 200.0 -602.0 224.0 -601.5 248.5 -601.0 252.0 -601.0 L334.0 -601.0 Q340.0 -601.0 364.0 -601.5 387.5 -601.5 421.0 -602.5 454.0 -603.5 488.0 -604.5 522.0 -606.0 548.0 -607.5 574.0 -609.0 584.0 -611.5 L584.0 -528.5 Q582.0 -530.0 554.5 -531.5 527.0 -533.0 486.5 -534.0 446.0 -535.0 405.0 -536.0 364.0 -536.5 335.0 -536.5 L335.0 -401.5 Q335.0 -334.0 336.5 -266.5 338.0 -198.5 340.0 -141.0 342.0 -83.0 343.5 -45.0 345.5 -7.5 346.0 0.0" fill-rule="evenodd" stroke="none"/>
    </g>
    <g id="font_Lithos_Pro_Regular_a0">
      <path d="M226.5 -255.0 L476.5 -265.0 Q473.0 -271.5 460.0 -295.0 447.5 -318.5 430.0 -350.5 412.5 -382.5 395.0 -414.0 378.0 -445.5 365.0 -468.0 352.5 -490.5 349.5 -495.5 345.0 -488.5 332.5 -464.0 319.5 -439.5 303.0 -406.0 286.0 -373.0 269.5 -340.0 253.0 -307.0 241.0 -283.5 229.5 -260.0 226.5 -255.0 M93.5 18.5 L14.5 -26.5 Q27.5 -49.5 55.0 -100.0 83.0 -150.5 119.0 -216.5 155.0 -283.0 193.5 -353.0 231.5 -423.5 265.0 -485.0 299.0 -547.0 322.0 -589.0 345.0 -630.5 350.5 -640.0 L352.5 -640.0 Q376.5 -601.5 414.5 -538.0 452.0 -474.0 496.0 -399.0 540.0 -323.5 582.5 -250.0 625.5 -176.5 660.0 -119.0 694.0 -61.0 713.0 -32.5 L630.0 17.5 Q623.0 4.0 605.5 -28.5 587.5 -61.0 566.5 -99.0 545.5 -137.0 529.0 -166.5 512.0 -196.0 508.0 -202.5 L191.5 -190.5 Q186.5 -179.0 173.0 -150.5 159.5 -121.5 143.5 -86.5 127.0 -52.0 113.0 -23.0 99.0 6.5 93.5 18.5" fill-rule="evenodd" stroke="none"/>
    </g>
    <g id="font_Lithos_Pro_Regular_r0">
      <path d="M224.0 -543.0 L224.0 -266.5 Q224.0 -256.0 224.5 -227.5 224.5 -199.0 225.0 -162.5 225.5 -125.5 226.5 -90.0 227.0 -54.5 228.0 -29.5 228.5 -5.0 229.0 0.0 L133.0 0.0 Q134.0 -7.0 134.5 -39.0 135.0 -70.5 135.0 -114.5 135.0 -158.5 135.0 -202.5 135.0 -246.5 135.0 -277.5 135.0 -309.0 135.0 -315.5 L135.0 -386.0 Q135.0 -397.5 134.5 -430.0 134.5 -462.5 133.5 -501.5 133.0 -541.0 132.0 -571.5 131.0 -602.0 130.0 -609.5 164.0 -610.0 218.5 -609.5 273.0 -609.0 332.5 -602.5 425.5 -591.5 476.0 -555.5 527.0 -519.5 527.5 -462.0 526.5 -408.0 490.0 -363.0 454.0 -318.0 395.0 -284.0 405.0 -270.5 435.0 -237.0 465.0 -203.0 501.5 -162.5 538.5 -122.0 569.0 -89.5 599.5 -57.0 610.5 -46.0 L539.5 16.5 Q536.0 12.0 512.5 -16.5 489.0 -45.0 455.5 -86.5 422.0 -127.5 387.5 -170.5 352.5 -213.0 326.0 -246.0 299.5 -279.0 290.5 -291.0 308.5 -300.0 332.0 -313.5 355.5 -327.0 377.5 -346.0 400.0 -365.0 415.0 -390.5 429.5 -416.0 430.0 -449.0 431.0 -470.0 415.5 -491.0 399.5 -512.5 355.0 -527.0 310.0 -542.0 224.0 -543.0" fill-rule="evenodd" stroke="none"/>
    </g>
    <g id="font_Lithos_Pro_Regular_E0">
      <path d="M491.0 -77.5 L495.5 10.5 Q489.5 10.5 455.0 9.5 421.0 8.5 372.5 7.0 324.5 5.5 276.0 4.0 227.5 2.0 192.5 1.0 157.5 0.0 150.5 0.0 151.5 -17.0 152.0 -49.5 152.5 -82.0 153.0 -121.5 153.0 -160.5 153.5 -198.0 153.5 -235.5 153.5 -262.5 153.5 -289.0 153.5 -297.0 L153.5 -434.0 Q153.5 -440.0 153.5 -468.0 153.0 -496.0 152.5 -535.0 152.5 -574.0 152.0 -613.5 151.5 -652.5 151.0 -681.0 151.0 -710.0 150.5 -716.5 159.0 -716.5 190.5 -718.0 222.0 -719.5 266.0 -722.0 309.5 -724.5 353.5 -727.5 397.5 -730.0 431.0 -732.5 464.0 -734.5 475.0 -736.0 L479.0 -655.0 Q465.5 -655.0 431.0 -654.0 396.5 -653.5 356.0 -652.5 315.5 -651.5 284.5 -650.5 253.0 -650.0 245.5 -650.0 L245.5 -390.0 Q253.0 -390.0 277.5 -391.0 301.5 -391.5 333.5 -393.5 365.0 -395.0 395.5 -397.0 425.5 -399.0 445.0 -401.0 L448.0 -320.5 Q438.5 -320.5 410.0 -321.0 381.0 -322.0 346.0 -322.5 311.0 -323.5 282.5 -324.0 254.0 -324.5 245.5 -324.5 L245.5 -74.5 Q255.5 -74.5 282.5 -74.0 309.5 -73.5 346.0 -73.5 382.5 -73.5 421.0 -74.5 459.0 -75.5 491.0 -77.5" fill-rule="evenodd" stroke="none"/>
    </g>
    <g id="font_Lithos_Pro_Regular_o0">
      <path d="M380.0 -53.0 L380.0 -53.0 Q451.0 -53.0 510.0 -84.5 569.0 -116.0 604.5 -176.0 640.0 -236.5 641.0 -322.5 640.0 -400.5 608.5 -452.5 576.5 -504.5 524.5 -530.5 472.5 -556.5 410.5 -556.5 329.0 -555.5 271.0 -519.5 212.5 -483.5 181.5 -423.0 151.0 -362.0 150.5 -287.0 151.0 -221.0 178.5 -168.5 206.0 -115.5 257.0 -84.5 308.5 -53.5 380.0 -53.0 M371.5 14.5 L371.5 14.5 Q269.5 13.5 199.5 -26.0 129.0 -65.5 93.0 -130.5 56.5 -195.5 56.5 -273.5 57.0 -371.5 101.5 -450.5 146.5 -529.5 228.5 -576.0 310.5 -623.0 424.0 -624.0 515.0 -623.5 585.0 -588.5 655.0 -553.5 695.0 -487.5 735.0 -421.0 736.0 -327.0 736.5 -274.5 717.0 -216.0 697.5 -157.5 654.5 -105.0 611.5 -52.5 542.0 -19.5 472.0 13.5 371.5 14.5" fill-rule="evenodd" stroke="none"/>
    </g>
    <g id="font_Lithos_Pro_Regular_-0">
      <path d="M29.5 -312.0 L24.5 -389.0 Q41.0 -388.5 74.5 -388.0 108.0 -388.0 149.5 -387.5 190.5 -387.0 230.0 -387.0 269.0 -386.5 296.5 -386.5 324.0 -386.5 330.5 -387.0 L333.5 -322.5 Q327.5 -323.0 299.5 -322.5 271.0 -322.5 230.5 -321.0 190.5 -319.5 148.5 -318.0 107.0 -316.0 74.5 -314.5 42.0 -313.0 29.5 -312.0" fill-rule="evenodd" stroke="none"/>
    </g>
    <g id="font_Lithos_Pro_Regular_M0">
      <path d="M127.0 26.5 L43.0 -5.5 Q47.5 -15.5 62.5 -58.0 77.5 -100.0 99.0 -164.0 120.5 -228.0 145.5 -302.0 170.5 -376.0 195.0 -450.0 219.0 -523.5 239.5 -585.5 260.0 -647.5 272.5 -687.0 285.5 -727.0 286.5 -733.0 L288.5 -733.0 Q297.0 -716.0 316.5 -677.5 336.0 -639.0 362.0 -587.5 388.0 -536.0 416.5 -481.0 445.0 -425.5 471.0 -375.0 497.0 -325.0 516.5 -288.5 535.5 -252.0 543.5 -238.5 553.0 -253.5 574.5 -290.5 596.0 -327.5 625.0 -377.0 653.5 -426.5 684.0 -479.5 714.5 -532.5 741.5 -580.0 769.0 -627.5 787.5 -660.0 806.5 -692.5 812.0 -701.0 L814.0 -701.0 Q823.0 -679.5 843.0 -628.5 862.5 -577.5 888.0 -509.0 914.0 -440.5 942.5 -365.0 970.5 -290.0 997.0 -219.5 1023.5 -149.0 1044.5 -94.0 1065.5 -39.0 1077.0 -11.5 L989.0 26.5 Q982.0 6.5 966.5 -38.0 950.5 -82.0 929.5 -140.0 908.5 -198.0 886.0 -260.0 863.5 -321.5 843.5 -376.5 823.0 -431.0 809.0 -469.0 794.5 -506.5 790.5 -517.0 778.5 -499.0 753.0 -455.0 727.5 -411.5 695.0 -355.0 662.5 -298.5 629.5 -241.5 596.5 -184.5 570.0 -139.0 543.5 -94.0 530.5 -73.0 L528.5 -73.0 Q505.5 -115.5 473.5 -177.0 441.5 -238.5 407.5 -305.5 374.0 -372.5 345.5 -431.0 317.0 -489.0 301.0 -525.0 295.5 -508.5 282.0 -465.0 268.0 -421.5 249.5 -363.0 231.0 -304.0 211.0 -240.5 191.0 -177.0 173.0 -120.0 155.0 -63.5 142.5 -24.0 130.5 15.5 127.0 26.5" fill-rule="evenodd" stroke="none"/>
    </g>
    <g id="font_Lithos_Pro_Regular_g0">
      <path d="M596.0 -199.5 L596.0 -136.0 Q596.0 -118.0 596.5 -91.5 597.0 -65.0 597.5 -42.5 598.0 -20.0 598.0 -13.0 576.5 -5.5 543.5 1.0 510.0 7.0 471.0 10.5 431.5 14.5 392.5 14.5 286.5 14.0 211.5 -19.5 136.5 -53.0 96.5 -110.0 57.0 -167.5 56.5 -240.5 56.0 -280.0 79.0 -331.5 101.5 -383.0 153.5 -438.5 205.5 -493.5 292.0 -542.5 379.0 -592.0 507.0 -626.0 L525.5 -546.0 Q449.0 -531.5 382.0 -501.5 314.5 -471.5 263.0 -430.5 211.0 -389.0 181.5 -340.5 152.0 -292.0 151.5 -239.5 151.0 -193.0 178.0 -150.5 204.5 -107.5 262.5 -80.5 320.0 -53.0 411.5 -52.0 441.5 -52.0 467.5 -55.5 493.5 -59.0 508.0 -64.5 L508.0 -205.5 Q508.0 -226.0 507.0 -243.5 506.0 -261.5 505.0 -266.0 L596.0 -266.0 596.0 -199.5" fill-rule="evenodd" stroke="none"/>
    </g>
  </defs>
</svg>
