<?xml version="1.0" encoding="UTF-8" standalone="no"?>
<svg xmlns:ffdec="https://www.free-decompiler.com/flash" xmlns:xlink="http://www.w3.org/1999/xlink" ffdec:objectType="text" height="15.45px" width="101.65px" xmlns="http://www.w3.org/2000/svg">
  <g transform="matrix(1.0, 0.0, 0.0, 1.0, -31.55, -1.5)">
    <g transform="matrix(1.0, 0.0, 0.0, 1.0, 0.0, 0.0)">
      <use fill="#cd9e3f" height="15.45" transform="matrix(0.0156, 0.0, 0.0, 0.0156, 30.0, 15.0)" width="101.65" xlink:href="#font_Lithos_Pro_Regular_U0"/>
      <use fill="#cd9e3f" height="15.45" transform="matrix(0.0156, 0.0, 0.0, 0.0156, 43.55, 15.0)" width="101.65" xlink:href="#font_Lithos_Pro_Regular_P0"/>
      <use fill="#cd9e3f" height="15.45" transform="matrix(0.0156, 0.0, 0.0, 0.0156, 55.0, 15.0)" width="101.65" xlink:href="#font_Lithos_Pro_Regular_G0"/>
      <use fill="#cd9e3f" height="15.45" transform="matrix(0.0156, 0.0, 0.0, 0.0156, 66.85, 15.0)" width="101.65" xlink:href="#font_Lithos_Pro_Regular_R0"/>
      <use fill="#cd9e3f" height="15.45" transform="matrix(0.0156, 0.0, 0.0, 0.0156, 79.25, 15.0)" width="101.65" xlink:href="#font_Lithos_Pro_Regular_A0"/>
      <use fill="#cd9e3f" height="15.45" transform="matrix(0.0156, 0.0, 0.0, 0.0156, 92.75, 15.0)" width="101.65" xlink:href="#font_Lithos_Pro_Regular_D0"/>
      <use fill="#cd9e3f" height="15.45" transform="matrix(0.0156, 0.0, 0.0, 0.0156, 106.1, 15.0)" width="101.65" xlink:href="#font_Lithos_Pro_Regular_E0"/>
      <use fill="#cd9e3f" height="15.45" transform="matrix(0.0156, 0.0, 0.0, 0.0156, 116.05, 15.0)" width="101.65" xlink:href="#font_Lithos_Pro_Regular_S0"/>
    </g>
  </g>
  <defs>
    <g id="font_Lithos_Pro_Regular_U0">
      <path d="M308.0 -544.0 L308.0 -544.0 308.0 -474.0 Q308.0 -393.0 311.5 -338.0 315.5 -283.0 325.5 -248.0 336.0 -213.0 355.0 -190.5 373.0 -170.0 395.5 -161.5 418.0 -153.0 442.0 -153.5 469.5 -153.5 492.5 -165.0 516.0 -176.5 533.5 -201.5 543.5 -216.5 549.5 -236.5 555.5 -256.0 558.5 -289.0 561.5 -322.0 562.5 -377.5 563.0 -433.0 563.0 -519.0 L563.0 -558.0 Q563.0 -612.0 561.0 -660.0 559.0 -708.0 558.0 -737.5 L792.5 -737.5 Q792.5 -725.5 792.5 -698.5 793.0 -671.0 793.0 -634.0 793.5 -597.0 793.5 -556.0 L793.5 -509.0 Q794.0 -411.0 787.5 -336.0 781.5 -260.5 762.0 -202.5 743.0 -144.5 704.5 -98.0 657.0 -41.5 586.0 -12.5 515.0 16.5 429.0 16.5 386.0 17.5 334.5 8.5 283.0 0.0 232.5 -28.0 182.0 -55.5 142.0 -111.5 123.5 -139.0 110.5 -170.5 97.5 -202.0 89.5 -246.0 81.5 -290.0 78.0 -354.0 74.5 -418.5 74.5 -511.0 L74.5 -566.5 Q74.5 -591.0 75.0 -622.5 75.0 -654.0 75.5 -681.5 75.5 -709.5 75.5 -722.0 L314.0 -722.0 Q311.0 -702.0 309.5 -658.0 308.0 -613.5 308.0 -544.0" fill-rule="evenodd" stroke="none"/>
    </g>
    <g id="font_Lithos_Pro_Regular_P0">
      <path d="M333.5 -582.5 L333.5 -582.5 333.5 -325.0 Q364.0 -329.5 396.0 -348.0 428.0 -366.0 450.0 -397.0 472.0 -427.5 473.0 -470.0 473.5 -499.0 461.0 -523.0 449.0 -547.0 418.5 -562.5 388.0 -578.0 333.5 -582.5 M335.5 0.0 L335.5 0.0 107.5 0.0 Q108.0 -14.0 108.0 -47.5 108.5 -81.5 109.0 -126.0 109.5 -170.5 109.5 -216.5 110.0 -262.5 110.5 -301.5 110.5 -340.5 110.5 -363.0 L110.5 -475.5 Q110.5 -483.0 110.0 -509.0 110.0 -534.5 109.5 -569.0 109.0 -604.0 108.5 -638.0 108.0 -672.0 108.0 -696.0 107.5 -720.5 107.5 -726.0 253.0 -726.5 351.5 -721.0 450.0 -715.5 513.0 -700.5 565.0 -687.5 608.5 -662.5 652.0 -637.0 678.5 -596.5 704.5 -556.5 705.5 -499.0 705.5 -431.5 664.0 -366.5 623.0 -301.5 540.0 -252.0 457.5 -202.5 333.5 -181.0 L333.5 -153.5 Q333.5 -145.0 333.5 -124.0 333.5 -102.5 333.5 -77.0 334.0 -51.5 334.5 -30.0 335.0 -9.0 335.5 0.0" fill-rule="evenodd" stroke="none"/>
    </g>
    <g id="font_Lithos_Pro_Regular_G0">
      <path d="M683.0 -233.0 L683.0 -233.0 683.0 -158.5 Q683.0 -138.0 683.5 -106.5 684.0 -75.5 684.5 -47.0 685.0 -19.0 685.0 -7.0 671.5 -3.0 638.0 2.5 605.0 8.0 558.0 12.5 511.5 16.5 459.0 16.5 310.5 13.5 217.0 -28.5 123.5 -70.0 79.5 -138.0 35.5 -206.0 36.0 -287.5 35.0 -335.5 59.5 -399.0 84.0 -462.5 142.5 -529.0 201.5 -595.5 304.5 -652.5 407.5 -710.0 564.5 -745.5 L611.5 -544.5 Q558.5 -537.5 501.0 -518.0 443.5 -498.5 392.5 -467.5 342.0 -436.0 310.0 -394.0 278.5 -351.5 277.5 -299.0 278.0 -261.0 295.5 -234.0 313.0 -207.0 341.0 -190.5 369.0 -173.5 401.0 -166.0 433.5 -158.5 463.0 -159.5 L464.0 -241.5 Q464.0 -263.5 463.0 -285.0 462.0 -306.0 462.0 -327.5 L684.0 -327.5 Q683.5 -298.5 683.0 -277.0 683.0 -255.5 683.0 -233.0" fill-rule="evenodd" stroke="none"/>
    </g>
    <g id="font_Lithos_Pro_Regular_R0">
      <path d="M333.5 -584.5 L333.5 -584.5 333.5 -312.5 Q333.5 -300.0 334.0 -267.0 334.0 -233.5 334.5 -190.5 335.0 -147.0 336.0 -105.5 336.5 -64.0 337.5 -34.5 338.0 -5.5 338.5 0.0 L110.5 0.0 Q111.5 -8.5 112.5 -46.0 113.0 -83.0 113.0 -134.5 113.0 -186.0 113.0 -237.5 113.0 -289.0 112.5 -325.5 112.5 -362.5 112.5 -370.0 L112.5 -454.0 Q112.5 -464.0 112.5 -492.0 112.0 -520.0 111.5 -557.0 111.0 -594.0 110.5 -630.5 110.0 -667.0 109.0 -693.0 108.5 -719.5 107.5 -726.0 178.0 -726.0 246.5 -725.0 314.5 -724.0 375.0 -721.0 435.5 -717.5 482.0 -711.5 596.0 -697.0 655.5 -653.0 715.0 -609.5 715.5 -538.5 714.5 -476.0 679.5 -426.0 644.0 -376.0 583.5 -334.0 596.0 -320.0 626.0 -289.0 656.0 -257.5 692.0 -220.5 727.5 -183.5 757.0 -152.5 786.5 -121.5 797.5 -108.5 L610.0 32.5 Q602.5 20.0 577.5 -16.5 553.0 -53.0 520.0 -101.5 486.5 -150.5 453.5 -199.5 420.0 -248.5 394.5 -286.0 369.0 -324.0 360.0 -338.5 383.5 -351.5 410.5 -374.0 438.0 -396.5 457.5 -426.0 477.0 -455.0 478.0 -489.5 478.5 -514.0 465.0 -535.5 452.0 -556.5 420.0 -570.0 388.5 -583.5 333.5 -584.5" fill-rule="evenodd" stroke="none"/>
    </g>
    <g id="font_Lithos_Pro_Regular_A0">
      <path d="M328.0 -261.5 L328.0 -261.5 501.0 -270.5 Q486.0 -300.0 470.0 -332.0 453.5 -364.0 439.0 -393.0 424.5 -422.0 415.0 -443.5 402.5 -418.5 387.5 -387.5 372.0 -356.0 356.5 -323.0 341.5 -290.5 328.0 -261.5 M194.5 32.5 L194.5 32.5 0.0 -76.0 Q8.5 -90.0 34.5 -134.5 60.5 -178.5 99.0 -243.0 137.0 -307.5 181.0 -381.5 225.5 -455.5 269.0 -528.5 313.0 -601.5 351.0 -663.5 388.5 -725.0 414.0 -765.0 L424.0 -765.0 Q461.5 -708.5 513.0 -629.0 564.5 -550.0 620.0 -463.5 676.0 -377.0 727.0 -298.5 778.0 -219.5 815.0 -163.5 852.0 -107.0 865.5 -88.5 L662.5 31.5 Q647.0 5.5 628.0 -28.0 608.5 -61.5 592.5 -89.5 576.0 -117.5 570.5 -127.0 L262.0 -110.0 Q257.5 -102.0 246.0 -77.0 234.5 -52.5 220.5 -22.5 206.5 7.5 194.5 32.5" fill-rule="evenodd" stroke="none"/>
    </g>
    <g id="font_Lithos_Pro_Regular_D0">
      <path d="M336.0 -562.0 L336.0 -562.0 336.0 -181.0 Q374.0 -187.0 415.5 -204.0 457.0 -221.0 493.0 -249.5 529.0 -278.0 551.5 -318.5 574.0 -359.5 574.5 -413.0 573.5 -472.5 538.5 -505.0 503.5 -537.5 449.0 -550.0 395.0 -562.5 336.0 -562.0 M110.5 -323.0 L110.5 -323.0 110.5 -449.5 Q110.5 -457.0 110.5 -484.0 110.5 -511.0 110.0 -548.0 109.5 -585.0 109.0 -622.5 108.5 -660.0 107.5 -688.0 106.5 -716.5 105.5 -726.0 199.0 -726.0 270.0 -724.0 341.0 -722.5 396.5 -718.0 451.5 -714.0 499.0 -707.5 598.5 -693.0 661.5 -663.0 725.0 -633.0 759.0 -595.5 793.0 -557.5 806.0 -519.0 818.5 -480.5 818.0 -448.5 817.0 -352.0 775.5 -278.0 734.0 -203.5 662.0 -150.0 590.0 -96.5 498.5 -62.0 407.0 -27.5 305.5 -11.5 204.5 5.0 104.5 5.0 105.5 -10.0 106.5 -44.5 107.5 -79.0 108.5 -123.0 109.0 -166.5 109.5 -209.0 110.0 -252.0 110.5 -283.0 110.5 -314.0 110.5 -323.0" fill-rule="evenodd" stroke="none"/>
    </g>
    <g id="font_Lithos_Pro_Regular_E0">
      <path d="M563.0 -165.5 L563.0 -165.5 567.0 10.5 Q557.0 10.5 524.0 9.5 490.5 9.0 443.5 8.0 396.0 6.5 343.5 5.5 291.0 4.0 242.0 3.0 193.5 1.5 157.5 1.0 121.5 0.0 107.5 0.0 108.5 -17.0 109.0 -49.5 109.5 -82.0 110.0 -121.0 110.0 -160.0 110.5 -197.5 110.5 -234.5 110.5 -261.5 110.5 -288.0 110.5 -296.0 L110.5 -433.0 Q110.5 -439.0 110.5 -467.0 110.0 -495.0 109.5 -535.0 109.5 -574.5 109.0 -615.5 108.5 -656.0 108.0 -686.5 108.0 -717.0 107.5 -727.0 126.0 -727.0 171.5 -728.5 217.0 -730.0 276.0 -732.5 334.5 -735.0 392.0 -737.5 449.5 -740.0 492.0 -742.5 534.0 -744.5 546.5 -745.5 L550.5 -575.5 Q535.5 -575.5 503.0 -574.5 471.0 -574.0 434.5 -573.0 398.5 -572.0 370.0 -571.0 341.5 -570.5 333.5 -570.5 L333.5 -435.0 Q342.0 -435.0 364.5 -436.0 387.0 -436.5 416.0 -438.0 445.0 -439.5 472.0 -441.0 499.0 -442.5 517.0 -444.0 L520.0 -280.5 Q508.5 -280.5 482.0 -281.0 456.0 -282.0 424.5 -282.5 393.5 -283.5 368.0 -284.0 343.0 -284.5 333.5 -284.5 L333.5 -163.5 Q344.5 -163.5 374.0 -163.0 403.0 -163.0 440.0 -163.0 477.0 -163.0 510.5 -163.5 544.0 -164.0 563.0 -165.5" fill-rule="evenodd" stroke="none"/>
    </g>
    <g id="font_Lithos_Pro_Regular_S0">
      <path d="M95.5 18.5 L95.5 18.5 67.5 -156.5 Q118.5 -155.0 165.5 -163.5 213.0 -171.5 244.0 -188.5 274.5 -205.0 275.5 -229.5 276.0 -239.0 268.0 -248.5 260.0 -258.0 238.0 -272.0 216.0 -286.0 175.0 -309.0 142.0 -327.5 110.0 -351.5 78.5 -376.0 57.5 -408.0 36.5 -440.5 35.5 -483.5 36.0 -541.5 84.5 -597.5 133.5 -653.0 225.5 -693.0 317.5 -733.0 447.5 -745.5 L475.0 -574.5 Q379.0 -574.5 330.5 -558.5 282.5 -542.5 282.5 -511.0 282.5 -493.5 307.0 -477.5 332.0 -462.0 382.0 -438.5 410.5 -425.0 443.0 -404.0 476.0 -383.0 499.5 -351.0 523.5 -319.0 524.5 -273.5 524.5 -230.5 501.0 -185.5 477.5 -140.0 426.5 -98.5 375.5 -57.5 294.0 -26.5 212.0 4.5 95.5 18.5" fill-rule="evenodd" stroke="none"/>
    </g>
  </defs>
</svg>
