<?xml version="1.0" encoding="UTF-8" standalone="no"?>
<svg xmlns:ffdec="https://www.free-decompiler.com/flash" xmlns:xlink="http://www.w3.org/1999/xlink" ffdec:objectType="text" height="23.45px" width="166.6px" xmlns="http://www.w3.org/2000/svg">
  <g transform="matrix(1.0, 0.0, 0.0, 1.0, 2.0, 2.0)">
    <g transform="matrix(1.0, 0.0, 0.0, 1.0, -2.0, -2.0)">
      <use fill="#cd9e3f" height="23.45" transform="matrix(0.0146, 0.0, 0.0, 0.0146, 0.0, 16.5)" width="166.6" xlink:href="#font_Lithos_Pro_Regular_H0"/>
      <use fill="#cd9e3f" height="23.45" transform="matrix(0.0146, 0.0, 0.0, 0.0146, 13.9, 16.5)" width="166.6" xlink:href="#font_Lithos_Pro_Regular_P0"/>
    </g>
    <g transform="matrix(1.0, 0.0, 0.0, 1.0, -2.0, -2.0)">
      <use fill="#cd9e3f" height="23.45" transform="matrix(0.0146, 0.0, 0.0, 0.0146, 28.35, 16.5)" width="166.6" xlink:href="#font_Lithos_Pro_Regular_I0"/>
      <use fill="#cd9e3f" height="23.45" transform="matrix(0.0146, 0.0, 0.0, 0.0146, 34.95, 16.5)" width="166.6" xlink:href="#font_Lithos_Pro_Regular_n0"/>
      <use fill="#cd9e3f" height="23.45" transform="matrix(0.0146, 0.0, 0.0, 0.0146, 46.9, 16.5)" width="166.6" xlink:href="#font_Lithos_Pro_Regular_c0"/>
      <use fill="#cd9e3f" height="23.45" transform="matrix(0.0146, 0.0, 0.0, 0.0146, 55.75, 16.5)" width="166.6" xlink:href="#font_Lithos_Pro_Regular_r0"/>
      <use fill="#cd9e3f" height="23.45" transform="matrix(0.0146, 0.0, 0.0, 0.0146, 66.35, 16.5)" width="166.6" xlink:href="#font_Lithos_Pro_Regular_e0"/>
      <use fill="#cd9e3f" height="23.45" transform="matrix(0.0146, 0.0, 0.0, 0.0146, 74.9, 16.5)" width="166.6" xlink:href="#font_Lithos_Pro_Regular_a0"/>
      <use fill="#cd9e3f" height="23.45" transform="matrix(0.0146, 0.0, 0.0, 0.0146, 86.45, 16.5)" width="166.6" xlink:href="#font_Lithos_Pro_Regular_s0"/>
      <use fill="#cd9e3f" height="23.45" transform="matrix(0.0146, 0.0, 0.0, 0.0146, 94.1, 16.5)" width="166.6" xlink:href="#font_Lithos_Pro_Regular_e0"/>
    </g>
  </g>
  <defs>
    <g id="font_Lithos_Pro_Regular_H0">
      <path d="M345.0 0.0 L345.0 0.0 107.5 0.0 Q108.0 -14.5 108.5 -47.0 109.0 -80.0 109.5 -121.5 110.0 -163.0 110.0 -203.0 110.5 -243.5 110.5 -273.0 110.5 -302.5 110.5 -311.5 L110.5 -422.0 Q110.5 -428.0 110.0 -458.0 110.0 -487.5 109.5 -529.5 109.0 -571.0 108.0 -613.5 107.5 -655.5 106.5 -686.5 106.0 -717.5 105.5 -726.0 L346.0 -726.0 Q345.5 -720.0 344.5 -696.5 344.0 -673.0 343.5 -641.0 342.5 -609.0 342.0 -577.5 341.5 -545.5 341.5 -522.0 341.0 -498.5 341.0 -492.5 L341.0 -451.5 607.0 -471.0 607.0 -514.0 Q607.0 -521.5 606.5 -551.0 606.5 -581.0 606.0 -618.0 605.0 -655.5 604.5 -686.0 603.5 -716.5 603.0 -726.0 L841.5 -726.0 Q841.0 -717.5 840.5 -684.0 840.0 -650.5 839.5 -604.5 839.0 -558.5 838.5 -512.5 838.0 -466.5 838.0 -433.0 837.5 -399.5 837.5 -391.5 L837.5 -289.0 Q837.5 -284.0 837.5 -255.5 838.0 -227.0 838.5 -187.0 838.5 -147.0 839.0 -106.5 839.5 -65.5 840.5 -36.5 841.0 -7.0 841.5 0.0 L603.0 0.0 Q603.5 -14.0 604.0 -46.5 604.5 -78.5 605.5 -116.0 606.0 -153.0 606.5 -182.5 607.0 -212.0 607.0 -220.0 L607.0 -298.0 341.0 -278.5 341.0 -241.5 Q341.0 -223.5 341.5 -188.0 342.0 -152.5 342.5 -112.5 343.5 -72.5 344.0 -41.0 344.5 -10.0 345.0 0.0" fill-rule="evenodd" stroke="none"/>
    </g>
    <g id="font_Lithos_Pro_Regular_P0">
      <path d="M333.5 -582.5 L333.5 -582.5 333.5 -325.0 Q364.0 -329.5 396.0 -348.0 428.0 -366.0 450.0 -397.0 472.0 -427.5 473.0 -470.0 473.5 -499.0 461.0 -523.0 449.0 -547.0 418.5 -562.5 388.0 -578.0 333.5 -582.5 M335.5 0.0 L335.5 0.0 107.5 0.0 Q108.0 -14.0 108.0 -47.5 108.5 -81.5 109.0 -126.0 109.5 -170.5 109.5 -216.5 110.0 -262.5 110.5 -301.5 110.5 -340.5 110.5 -363.0 L110.5 -475.5 Q110.5 -483.0 110.0 -509.0 110.0 -534.5 109.5 -569.0 109.0 -604.0 108.5 -638.0 108.0 -672.0 108.0 -696.0 107.5 -720.5 107.5 -726.0 253.0 -726.5 351.5 -721.0 450.0 -715.5 513.0 -700.5 565.0 -687.5 608.5 -662.5 652.0 -637.0 678.5 -596.5 704.5 -556.5 705.5 -499.0 705.5 -431.5 664.0 -366.5 623.0 -301.5 540.0 -252.0 457.5 -202.5 333.5 -181.0 L333.5 -153.5 Q333.5 -145.0 333.5 -124.0 333.5 -102.5 333.5 -77.0 334.0 -51.5 334.5 -30.0 335.0 -9.0 335.5 0.0" fill-rule="evenodd" stroke="none"/>
    </g>
    <g id="font_Lithos_Pro_Regular_I0">
      <path d="M341.0 -419.0 L341.0 -419.0 341.0 -309.0 Q341.0 -269.5 341.5 -220.5 342.0 -172.0 342.5 -125.0 343.5 -78.0 344.0 -44.0 344.5 -10.0 345.0 0.0 L107.5 0.0 Q108.0 -14.5 108.5 -47.0 109.0 -80.0 109.5 -121.0 110.0 -162.5 110.0 -203.0 110.5 -243.0 110.5 -272.5 110.5 -302.0 110.5 -311.0 L110.5 -421.5 Q110.5 -427.5 110.0 -457.5 110.0 -487.0 109.5 -529.0 109.0 -571.0 108.5 -613.0 108.0 -655.5 108.0 -686.5 107.5 -717.5 107.5 -726.0 L345.0 -726.0 Q344.5 -718.5 344.0 -687.5 343.5 -656.5 342.5 -611.5 342.0 -566.5 341.5 -516.5 341.0 -466.0 341.0 -419.0" fill-rule="evenodd" stroke="none"/>
    </g>
    <g id="font_Lithos_Pro_Regular_n0">
      <path d="M264.0 6.0 L62.5 0.0 Q64.0 -16.0 67.0 -59.5 69.5 -103.0 73.0 -163.5 76.5 -224.0 80.5 -291.5 84.0 -359.5 88.0 -424.5 91.5 -489.5 95.0 -542.0 98.0 -594.0 100.5 -624.0 L116.5 -629.0 Q157.0 -603.0 210.5 -566.5 264.0 -530.0 321.0 -490.5 378.5 -451.0 428.5 -415.5 479.0 -380.0 512.5 -355.0 546.5 -330.5 553.0 -324.0 553.0 -338.5 553.0 -369.5 552.5 -400.0 552.5 -438.5 552.0 -477.0 552.0 -515.0 551.5 -552.5 551.5 -582.0 551.5 -611.0 552.0 -623.0 L752.5 -618.5 Q749.5 -583.5 745.5 -532.0 741.5 -480.5 737.5 -419.0 734.0 -357.5 730.5 -293.0 726.5 -229.5 723.5 -170.0 720.0 -111.0 717.5 -63.5 715.0 -16.0 714.0 13.5 L697.5 17.5 Q668.5 0.0 620.0 -33.0 571.5 -66.0 515.0 -106.0 458.5 -145.5 405.0 -184.0 352.0 -222.5 313.5 -250.5 275.5 -279.0 263.0 -289.0 263.0 -274.5 263.0 -243.5 263.0 -212.0 263.0 -173.0 263.0 -134.0 263.0 -96.0 263.5 -58.0 263.5 -30.0 263.5 -2.5 264.0 6.0" fill-rule="evenodd" stroke="none"/>
    </g>
    <g id="font_Lithos_Pro_Regular_c0">
      <path d="M556.0 -158.5 L565.5 7.5 Q541.0 10.5 514.5 12.5 487.5 14.5 455.0 14.5 340.5 14.0 260.0 -9.5 179.5 -33.0 129.5 -71.5 79.5 -109.5 56.0 -155.5 33.0 -201.5 33.0 -247.5 33.0 -302.5 60.5 -360.5 88.5 -418.5 145.5 -472.5 202.5 -526.5 290.5 -568.0 378.5 -610.0 499.0 -632.0 L540.0 -460.0 Q445.0 -443.5 385.5 -414.5 326.5 -385.5 298.5 -348.5 271.0 -311.0 271.5 -270.5 272.0 -218.5 322.5 -187.0 372.5 -155.5 466.0 -154.5 494.5 -154.5 517.0 -155.5 539.5 -157.0 556.0 -158.5" fill-rule="evenodd" stroke="none"/>
    </g>
    <g id="font_Lithos_Pro_Regular_r0">
      <path d="M311.5 -492.5 L311.5 -266.0 Q311.5 -255.5 311.5 -227.5 312.0 -199.0 312.5 -162.0 312.5 -125.5 313.0 -90.0 314.0 -54.5 314.5 -29.5 315.0 -5.0 315.5 0.0 L95.5 0.0 Q96.5 -7.0 97.5 -31.5 98.0 -56.0 98.5 -89.5 98.5 -123.0 98.5 -156.5 98.5 -190.0 98.5 -214.0 98.5 -238.5 98.5 -244.5 L98.5 -386.0 Q98.5 -394.5 98.5 -419.0 98.0 -443.0 97.5 -474.5 97.5 -506.0 97.0 -537.0 96.0 -568.0 95.5 -590.0 95.0 -612.5 94.5 -618.5 194.0 -619.0 285.0 -617.5 376.5 -616.5 444.5 -608.0 547.5 -595.0 602.0 -557.0 656.0 -519.0 656.5 -458.5 656.0 -404.5 626.0 -361.5 596.0 -319.0 539.5 -284.5 551.0 -273.0 577.0 -247.5 603.5 -222.5 634.5 -193.0 665.5 -163.0 691.5 -138.5 717.0 -113.5 727.0 -102.5 L545.0 29.5 Q537.5 19.0 516.0 -12.0 494.5 -43.0 466.0 -84.5 437.5 -126.0 409.0 -168.0 380.0 -209.5 358.0 -241.5 336.0 -273.5 328.0 -285.5 352.5 -297.5 375.5 -316.0 399.0 -334.0 414.0 -359.5 429.5 -384.5 430.0 -417.0 431.5 -448.5 405.5 -469.5 379.5 -491.0 311.5 -492.5" fill-rule="evenodd" stroke="none"/>
    </g>
    <g id="font_Lithos_Pro_Regular_e0">
      <path d="M519.5 -147.0 L522.5 9.5 Q510.0 9.5 468.5 8.5 427.5 7.5 371.0 6.0 315.0 5.0 257.5 3.5 200.5 2.0 156.0 1.0 112.0 0.0 94.5 0.0 95.0 -18.5 95.5 -56.0 96.0 -93.5 96.5 -136.0 96.5 -178.5 96.5 -211.0 96.5 -244.0 96.5 -253.0 L96.5 -368.5 Q96.5 -373.5 96.5 -397.5 96.0 -421.5 96.0 -455.0 95.5 -489.0 95.0 -523.5 95.0 -558.0 94.5 -584.0 94.5 -610.0 94.5 -618.5 113.0 -618.5 155.5 -620.0 198.5 -621.0 252.5 -623.0 307.0 -625.0 360.0 -627.0 413.0 -629.5 452.0 -631.0 491.5 -633.0 504.0 -634.0 L508.0 -484.5 Q494.0 -484.5 465.0 -483.5 435.5 -483.0 402.5 -482.0 369.0 -481.0 343.5 -480.0 317.5 -479.5 310.5 -479.5 L310.5 -373.5 Q318.0 -373.5 338.5 -374.0 359.0 -375.0 385.5 -376.0 412.0 -377.0 436.5 -378.5 461.5 -380.0 477.5 -381.5 L479.5 -236.5 Q469.5 -236.5 445.5 -237.0 421.5 -237.5 393.5 -238.0 365.0 -238.5 342.0 -239.0 319.0 -239.5 310.5 -239.5 L310.5 -145.0 Q320.0 -145.0 347.0 -144.5 373.5 -144.5 407.0 -144.5 441.0 -144.5 471.5 -145.0 502.0 -145.5 519.5 -147.0" fill-rule="evenodd" stroke="none"/>
    </g>
    <g id="font_Lithos_Pro_Regular_a0">
      <path d="M301.0 -222.5 L454.5 -229.5 Q434.5 -268.0 413.0 -306.5 391.5 -345.0 378.0 -373.0 361.0 -340.5 340.0 -300.0 319.5 -259.5 301.0 -222.5 M184.5 29.5 L0.0 -65.0 Q7.5 -76.5 30.5 -114.0 54.0 -152.0 88.0 -206.5 121.5 -261.5 161.0 -324.0 200.0 -387.0 239.5 -449.0 279.0 -511.5 313.5 -564.0 347.5 -616.5 371.5 -650.5 L391.0 -650.5 Q426.0 -602.0 472.5 -535.0 518.5 -467.5 568.5 -394.0 618.5 -321.0 664.0 -254.0 709.5 -187.0 742.0 -139.0 775.0 -91.0 787.5 -75.0 L599.0 28.5 Q584.5 6.5 567.0 -22.0 549.5 -50.5 535.5 -73.5 521.5 -96.5 517.0 -102.5 L243.5 -89.5 Q241.0 -84.5 230.5 -64.0 220.5 -43.5 207.5 -18.0 195.0 8.0 184.5 29.5" fill-rule="evenodd" stroke="none"/>
    </g>
    <g id="font_Lithos_Pro_Regular_s0">
      <path d="M79.5 17.5 L56.0 -138.5 Q107.5 -137.0 154.0 -142.5 201.0 -148.0 231.0 -161.0 261.0 -173.5 262.0 -194.5 263.5 -208.5 243.0 -222.0 223.0 -236.0 167.0 -260.0 136.0 -273.5 105.0 -293.0 73.5 -312.5 52.0 -341.5 30.5 -370.0 29.5 -411.0 30.0 -465.5 77.5 -514.5 125.5 -563.0 214.0 -596.5 303.0 -629.5 427.0 -637.0 L451.5 -479.5 Q356.0 -480.0 308.0 -471.0 260.0 -461.5 260.0 -434.5 260.0 -418.0 284.5 -405.5 308.5 -393.0 354.0 -376.0 380.5 -366.5 413.0 -349.5 445.0 -332.5 469.5 -304.0 493.5 -276.0 494.5 -232.5 495.0 -178.0 452.0 -125.5 409.0 -72.5 317.5 -33.5 225.5 5.0 79.5 17.5" fill-rule="evenodd" stroke="none"/>
    </g>
  </defs>
</svg>
