<?xml version="1.0" encoding="UTF-8" standalone="no"?>
<svg xmlns:ffdec="https://www.free-decompiler.com/flash" xmlns:xlink="http://www.w3.org/1999/xlink" ffdec:objectType="text" height="19.25px" width="126.1px" xmlns="http://www.w3.org/2000/svg">
  <g transform="matrix(1.0, 0.0, 0.0, 1.0, 2.0, 2.0)">
    <g transform="matrix(1.0, 0.0, 0.0, 1.0, -2.0, -2.0)">
      <use fill="#e7ca43" height="19.25" transform="matrix(0.0127, 0.0, 0.0, 0.0127, 0.0, 13.95)" width="126.1" xlink:href="#font_Lithos_Pro_Regular_C0"/>
      <use fill="#e7ca43" height="19.25" transform="matrix(0.0127, 0.0, 0.0, 0.0127, 7.45, 13.95)" width="126.1" xlink:href="#font_Lithos_Pro_Regular_o0"/>
      <use fill="#e7ca43" height="19.25" transform="matrix(0.0127, 0.0, 0.0, 0.0127, 17.5, 13.95)" width="126.1" xlink:href="#font_Lithos_Pro_Regular_s0"/>
      <use fill="#e7ca43" height="19.25" transform="matrix(0.0127, 0.0, 0.0, 0.0127, 23.75, 13.95)" width="126.1" xlink:href="#font_Lithos_Pro_Regular_t0"/>
      <use fill="#e7ca43" height="19.25" transform="matrix(0.0127, 0.0, 0.0, 0.0127, 31.1, 13.95)" width="126.1" xlink:href="#font_Lithos_Pro_Regular_s0"/>
    </g>
    <g transform="matrix(1.0, 0.0, 0.0, 1.0, -2.0, -2.0)">
      <use fill="#e7ca43" height="19.25" transform="matrix(0.0127, 0.0, 0.0, 0.0127, 41.25, 13.95)" width="126.1" xlink:href="#font_Lithos_Pro_Regular_40"/>
      <use fill="#e7ca43" height="19.25" transform="matrix(0.0127, 0.0, 0.0, 0.0127, 50.45, 13.95)" width="126.1" xlink:href="#font_Lithos_Pro_Regular_00"/>
    </g>
    <g transform="matrix(1.0, 0.0, 0.0, 1.0, -2.0, -2.0)">
      <use fill="#e7ca43" height="19.25" transform="matrix(0.0127, 0.0, 0.0, 0.0127, 63.55, 13.95)" width="126.1" xlink:href="#font_Lithos_Pro_Regular_E0"/>
      <use fill="#e7ca43" height="19.25" transform="matrix(0.0127, 0.0, 0.0, 0.0127, 71.0, 13.95)" width="126.1" xlink:href="#font_Lithos_Pro_Regular_x0"/>
      <use fill="#e7ca43" height="19.25" transform="matrix(0.0127, 0.0, 0.0, 0.0127, 79.55, 13.95)" width="126.1" xlink:href="#font_Lithos_Pro_Regular_p0"/>
    </g>
  </g>
  <defs>
    <g id="font_Lithos_Pro_Regular_C0">
      <path d="M627.0 -76.0 L637.0 6.0 Q614.0 11.0 579.0 13.5 544.0 16.5 498.0 16.5 393.5 16.0 318.5 -6.0 243.5 -28.0 193.5 -63.0 143.5 -98.5 114.5 -139.5 85.5 -180.0 73.5 -219.0 61.0 -257.5 61.5 -286.5 61.5 -350.5 91.5 -418.0 121.5 -486.0 184.0 -548.5 246.5 -611.0 344.5 -659.5 442.5 -708.0 577.5 -733.0 L593.0 -647.0 Q504.5 -636.5 427.0 -607.0 350.0 -577.0 291.0 -531.5 232.0 -486.0 199.0 -428.0 165.5 -370.5 165.0 -304.0 164.5 -240.5 199.5 -185.5 234.5 -130.5 310.5 -96.5 386.0 -62.5 508.0 -61.5 539.0 -61.5 569.5 -65.5 600.5 -69.5 627.0 -76.0" fill-rule="evenodd" stroke="none"/>
    </g>
    <g id="font_Lithos_Pro_Regular_o0">
      <path d="M380.0 -53.0 L380.0 -53.0 Q451.0 -53.0 510.0 -84.5 569.0 -116.0 604.5 -176.0 640.0 -236.5 641.0 -322.5 640.0 -400.5 608.5 -452.5 576.5 -504.5 524.5 -530.5 472.5 -556.5 410.5 -556.5 329.0 -555.5 271.0 -519.5 212.5 -483.5 181.5 -423.0 151.0 -362.0 150.5 -287.0 151.0 -221.0 178.5 -168.5 206.0 -115.5 257.0 -84.5 308.5 -53.5 380.0 -53.0 M371.5 14.5 L371.5 14.5 Q269.5 13.5 199.5 -26.0 129.0 -65.5 93.0 -130.5 56.5 -195.5 56.5 -273.5 57.0 -371.5 101.5 -450.5 146.5 -529.5 228.5 -576.0 310.5 -623.0 424.0 -624.0 515.0 -623.5 585.0 -588.5 655.0 -553.5 695.0 -487.5 735.0 -421.0 736.0 -327.0 736.5 -274.5 717.0 -216.0 697.5 -157.5 654.5 -105.0 611.5 -52.5 542.0 -19.5 472.0 13.5 371.5 14.5" fill-rule="evenodd" stroke="none"/>
    </g>
    <g id="font_Lithos_Pro_Regular_s0">
      <path d="M131.0 16.5 L107.5 -55.5 Q143.5 -62.0 180.5 -73.0 218.0 -83.5 250.0 -99.0 281.5 -114.5 301.5 -135.0 321.0 -155.0 321.5 -181.5 321.5 -214.0 297.0 -235.5 272.5 -257.0 222.0 -280.5 161.0 -309.0 123.0 -341.0 85.0 -373.5 84.0 -420.0 84.5 -456.5 108.5 -490.0 132.0 -523.0 171.5 -550.5 211.0 -578.0 259.5 -597.5 308.0 -617.0 358.5 -626.0 L377.5 -554.0 Q354.0 -551.0 321.0 -542.5 288.0 -533.5 255.0 -519.5 222.5 -505.0 200.5 -484.0 179.0 -462.5 178.0 -434.5 179.0 -411.0 196.5 -394.5 214.5 -377.5 239.0 -365.0 264.0 -352.0 284.5 -341.0 320.5 -322.0 350.0 -304.0 380.0 -285.5 398.0 -261.5 416.0 -237.5 416.5 -202.0 416.0 -156.0 383.0 -113.5 349.5 -70.5 286.0 -36.5 222.5 -2.5 131.0 16.5" fill-rule="evenodd" stroke="none"/>
    </g>
    <g id="font_Lithos_Pro_Regular_t0">
      <path d="M346.0 0.0 L240.0 0.0 Q241.5 -7.5 242.5 -38.5 243.5 -69.5 244.5 -116.0 245.0 -162.5 245.5 -215.5 245.5 -269.0 246.0 -320.5 246.0 -372.5 246.0 -414.5 L246.0 -536.5 Q206.0 -536.5 164.0 -536.0 122.5 -535.0 86.0 -534.0 49.5 -533.0 25.0 -531.5 0.5 -530.0 -5.0 -528.5 L-5.0 -611.5 Q4.0 -609.5 31.0 -607.5 58.5 -606.0 94.0 -604.5 130.0 -603.5 165.0 -602.5 200.0 -602.0 224.0 -601.5 248.5 -601.0 252.0 -601.0 L334.0 -601.0 Q340.0 -601.0 364.0 -601.5 387.5 -601.5 421.0 -602.5 454.0 -603.5 488.0 -604.5 522.0 -606.0 548.0 -607.5 574.0 -609.0 584.0 -611.5 L584.0 -528.5 Q582.0 -530.0 554.5 -531.5 527.0 -533.0 486.5 -534.0 446.0 -535.0 405.0 -536.0 364.0 -536.5 335.0 -536.5 L335.0 -401.5 Q335.0 -334.0 336.5 -266.5 338.0 -198.5 340.0 -141.0 342.0 -83.0 343.5 -45.0 345.5 -7.5 346.0 0.0" fill-rule="evenodd" stroke="none"/>
    </g>
    <g id="font_Lithos_Pro_Regular_40">
      <path d="M428.0 -239.5 L428.0 -543.5 426.0 -543.5 Q412.5 -523.0 381.5 -481.5 350.5 -440.0 314.0 -391.5 277.0 -343.0 246.0 -301.5 214.5 -260.0 199.5 -239.5 L428.0 -239.5 M511.0 -748.5 L511.0 -238.5 622.5 -241.5 615.5 -165.0 510.0 -168.0 510.0 -120.0 Q510.0 -88.5 510.5 -55.5 511.0 -23.0 512.0 0.0 L421.0 0.0 Q422.0 -21.5 424.0 -55.0 426.0 -88.0 426.0 -131.0 L426.0 -167.0 61.5 -167.0 59.5 -175.0 505.0 -748.5 511.0 -748.5" fill-rule="evenodd" stroke="none"/>
    </g>
    <g id="font_Lithos_Pro_Regular_00">
      <path d="M364.5 -97.5 L364.5 -97.5 Q404.0 -97.5 444.5 -114.0 485.0 -130.5 519.5 -164.0 554.0 -198.0 575.5 -249.0 596.5 -300.5 597.0 -370.0 596.5 -437.5 565.5 -494.5 534.0 -551.0 481.0 -585.5 427.5 -619.5 360.5 -620.5 293.0 -620.0 240.5 -585.5 188.0 -551.5 157.5 -491.0 127.5 -431.0 127.0 -352.5 127.0 -307.0 142.0 -262.0 157.0 -217.0 186.5 -180.0 216.5 -143.0 261.0 -120.5 305.5 -98.0 364.5 -97.5 M350.0 -17.5 L350.0 -17.5 Q291.5 -17.5 236.0 -38.5 180.5 -60.0 135.5 -102.5 91.0 -144.5 64.0 -208.5 37.5 -272.0 37.0 -357.5 37.5 -435.5 64.5 -498.5 91.5 -561.5 138.5 -606.5 185.0 -651.5 244.5 -676.0 304.0 -700.0 369.5 -700.5 461.5 -700.0 533.0 -658.0 604.5 -616.0 645.0 -540.5 686.0 -465.5 687.0 -365.5 687.0 -298.0 663.5 -236.0 640.0 -174.0 596.0 -125.0 551.5 -75.5 489.5 -47.0 427.5 -18.0 350.0 -17.5" fill-rule="evenodd" stroke="none"/>
    </g>
    <g id="font_Lithos_Pro_Regular_E0">
      <path d="M491.0 -77.5 L495.5 10.5 Q489.5 10.5 455.0 9.5 421.0 8.5 372.5 7.0 324.5 5.5 276.0 4.0 227.5 2.0 192.5 1.0 157.5 0.0 150.5 0.0 151.5 -17.0 152.0 -49.5 152.5 -82.0 153.0 -121.5 153.0 -160.5 153.5 -198.0 153.5 -235.5 153.5 -262.5 153.5 -289.0 153.5 -297.0 L153.5 -434.0 Q153.5 -440.0 153.5 -468.0 153.0 -496.0 152.5 -535.0 152.5 -574.0 152.0 -613.5 151.5 -652.5 151.0 -681.0 151.0 -710.0 150.5 -716.5 159.0 -716.5 190.5 -718.0 222.0 -719.5 266.0 -722.0 309.5 -724.5 353.5 -727.5 397.5 -730.0 431.0 -732.5 464.0 -734.5 475.0 -736.0 L479.0 -655.0 Q465.5 -655.0 431.0 -654.0 396.5 -653.5 356.0 -652.5 315.5 -651.5 284.5 -650.5 253.0 -650.0 245.5 -650.0 L245.5 -390.0 Q253.0 -390.0 277.5 -391.0 301.5 -391.5 333.5 -393.5 365.0 -395.0 395.5 -397.0 425.5 -399.0 445.0 -401.0 L448.0 -320.5 Q438.5 -320.5 410.0 -321.0 381.0 -322.0 346.0 -322.5 311.0 -323.5 282.5 -324.0 254.0 -324.5 245.5 -324.5 L245.5 -74.5 Q255.5 -74.5 282.5 -74.0 309.5 -73.5 346.0 -73.5 382.5 -73.5 421.0 -74.5 459.0 -75.5 491.0 -77.5" fill-rule="evenodd" stroke="none"/>
    </g>
    <g id="font_Lithos_Pro_Regular_x0">
      <path d="M100.5 18.5 L36.0 -42.0 Q44.0 -48.5 68.5 -74.5 93.5 -100.0 126.5 -136.0 159.5 -172.0 192.5 -208.5 226.0 -245.5 251.0 -273.5 276.5 -301.5 286.0 -312.5 271.0 -329.0 241.0 -361.5 211.5 -394.0 177.0 -432.0 142.5 -469.5 113.5 -502.0 84.0 -534.0 70.0 -550.0 L137.5 -614.5 Q147.0 -602.0 170.0 -573.5 193.0 -545.0 223.0 -508.5 253.0 -471.5 284.0 -434.5 315.5 -397.5 341.0 -367.5 354.0 -381.5 385.0 -416.0 416.0 -450.5 452.5 -491.5 489.0 -533.0 519.0 -567.0 549.0 -601.0 560.0 -613.5 L622.5 -552.0 Q610.5 -540.0 576.5 -507.0 543.0 -473.5 502.5 -433.0 462.5 -393.0 430.0 -359.5 398.0 -326.5 388.0 -314.5 397.0 -304.5 421.0 -278.0 445.5 -251.5 477.5 -217.0 509.5 -182.0 542.0 -147.0 574.5 -111.5 600.0 -84.0 625.5 -56.5 637.0 -45.0 L566.5 17.5 Q558.5 8.0 534.5 -20.0 511.0 -48.0 479.5 -85.5 448.5 -122.5 417.0 -159.5 386.0 -196.5 362.5 -224.0 339.5 -251.5 332.0 -260.0 328.0 -254.5 305.5 -227.0 283.0 -199.0 250.5 -160.0 218.5 -121.0 186.0 -82.0 153.5 -43.5 130.0 -15.5 106.0 12.5 100.5 18.5" fill-rule="evenodd" stroke="none"/>
    </g>
    <g id="font_Lithos_Pro_Regular_p0">
      <path d="M223.0 -541.0 L223.0 -248.0 Q279.0 -258.5 324.5 -280.0 370.0 -301.5 397.5 -336.5 424.5 -371.0 425.0 -421.0 425.5 -433.5 419.0 -453.0 412.5 -472.5 392.0 -492.0 372.0 -512.0 331.0 -526.0 290.5 -539.5 223.0 -541.0 M224.0 0.0 L131.0 0.0 Q131.5 -15.5 132.5 -55.5 133.0 -95.5 134.0 -145.5 134.5 -195.5 134.5 -240.0 135.0 -285.0 135.0 -309.5 L135.0 -405.0 Q135.0 -413.5 134.5 -443.5 134.5 -473.5 134.0 -510.0 133.5 -546.0 133.5 -575.0 133.0 -603.5 133.0 -609.5 153.0 -609.5 185.0 -609.0 217.0 -608.0 252.0 -606.0 287.5 -604.0 317.5 -599.5 412.0 -584.5 465.0 -542.5 518.0 -500.5 519.0 -431.5 518.5 -368.5 481.0 -317.5 443.5 -266.5 377.0 -231.5 311.0 -196.0 223.0 -180.5 L223.0 -131.0 Q223.0 -124.0 223.0 -106.0 223.0 -88.0 223.0 -66.0 223.0 -44.0 223.5 -26.0 223.5 -7.5 224.0 0.0" fill-rule="evenodd" stroke="none"/>
    </g>
  </defs>
</svg>
