<?xml version="1.0" encoding="UTF-8" standalone="no"?>
<svg xmlns:ffdec="https://www.free-decompiler.com/flash" xmlns:xlink="http://www.w3.org/1999/xlink" ffdec:objectType="text" height="10.45px" width="69.75px" xmlns="http://www.w3.org/2000/svg">
  <g transform="matrix(1.0, 0.0, 0.0, 1.0, -56.05, -0.55)">
    <g transform="matrix(1.0, 0.0, 0.0, 1.0, 55.0, 0.0)">
      <use fill="#cd9e3f" height="10.45" transform="matrix(0.0098, 0.0, 0.0, 0.0098, 0.0, 10.0)" width="69.75" xlink:href="#font_Lithos_Pro_Regular_B0"/>
      <use fill="#cd9e3f" height="10.45" transform="matrix(0.0098, 0.0, 0.0, 0.0098, 7.3, 10.0)" width="69.75" xlink:href="#font_Lithos_Pro_Regular_e0"/>
      <use fill="#cd9e3f" height="10.45" transform="matrix(0.0098, 0.0, 0.0, 0.0098, 13.0, 10.0)" width="69.75" xlink:href="#font_Lithos_Pro_Regular_h0"/>
      <use fill="#cd9e3f" height="10.45" transform="matrix(0.0098, 0.0, 0.0, 0.0098, 21.45, 10.0)" width="69.75" xlink:href="#font_Lithos_Pro_Regular_a0"/>
      <use fill="#cd9e3f" height="10.45" transform="matrix(0.0098, 0.0, 0.0, 0.0098, 28.4, 10.0)" width="69.75" xlink:href="#font_Lithos_Pro_Regular_v0"/>
      <use fill="#cd9e3f" height="10.45" transform="matrix(0.0098, 0.0, 0.0, 0.0098, 35.75, 10.0)" width="69.75" xlink:href="#font_Lithos_Pro_Regular_i0"/>
      <use fill="#cd9e3f" height="10.45" transform="matrix(0.0098, 0.0, 0.0, 0.0098, 39.7, 10.0)" width="69.75" xlink:href="#font_Lithos_Pro_Regular_o0"/>
      <use fill="#cd9e3f" height="10.45" transform="matrix(0.0098, 0.0, 0.0, 0.0098, 47.95, 10.0)" width="69.75" xlink:href="#font_Lithos_Pro_Regular_u0"/>
      <use fill="#cd9e3f" height="10.45" transform="matrix(0.0098, 0.0, 0.0, 0.0098, 55.65, 10.0)" width="69.75" xlink:href="#font_Lithos_Pro_Regular_r0"/>
      <use fill="#cd9e3f" height="10.45" transform="matrix(0.0098, 0.0, 0.0, 0.0098, 62.7, 10.0)" width="69.75" xlink:href="#font_Lithos_Pro_Regular_:0"/>
    </g>
  </g>
  <defs>
    <g id="font_Lithos_Pro_Regular_B0">
      <path d="M323.5 -610.5 L323.5 -610.5 323.5 -419.0 Q346.5 -419.0 373.0 -432.0 399.5 -445.5 419.0 -471.0 438.0 -497.0 439.0 -534.0 438.0 -567.5 418.5 -584.5 399.0 -601.5 372.0 -607.0 345.5 -612.5 323.5 -610.5 M323.5 -319.5 L323.5 -319.5 323.5 -120.0 Q352.5 -120.5 385.5 -134.0 418.0 -147.5 441.0 -170.5 464.0 -194.0 465.0 -223.5 464.5 -256.5 444.0 -278.5 424.0 -300.5 391.5 -311.0 359.5 -321.0 323.5 -319.5 M110.5 -379.0 L110.5 -379.0 110.5 -492.5 Q110.5 -505.0 110.0 -538.5 110.0 -572.5 109.0 -612.5 108.5 -652.5 107.5 -684.5 106.5 -716.5 105.5 -726.0 179.0 -726.0 233.5 -725.5 288.0 -724.5 332.5 -722.0 377.5 -719.0 421.5 -713.5 501.0 -703.5 549.5 -684.0 597.5 -665.0 622.5 -641.0 647.0 -617.0 655.5 -592.0 664.0 -567.0 663.5 -545.5 664.0 -526.0 654.0 -500.5 644.0 -475.0 616.0 -447.5 588.0 -419.5 534.5 -394.5 L534.5 -388.0 Q571.0 -381.5 608.0 -363.0 644.5 -344.0 669.5 -311.5 694.5 -278.5 695.5 -229.5 695.5 -170.5 643.0 -117.0 590.0 -63.5 480.5 -29.5 371.5 5.0 202.5 6.0 L105.5 6.0 Q107.0 -12.0 108.0 -54.0 109.0 -95.5 109.5 -148.5 110.0 -201.0 110.0 -251.5 110.5 -301.5 110.5 -337.0 110.5 -372.0 110.5 -379.0" fill-rule="evenodd" stroke="none"/>
    </g>
    <g id="font_Lithos_Pro_Regular_e0">
      <path d="M519.5 -147.0 L522.5 9.5 Q510.0 9.5 468.5 8.5 427.5 7.5 371.0 6.0 315.0 5.0 257.5 3.5 200.5 2.0 156.0 1.0 112.0 0.0 94.5 0.0 95.0 -18.5 95.5 -56.0 96.0 -93.5 96.5 -136.0 96.5 -178.5 96.5 -211.0 96.5 -244.0 96.5 -253.0 L96.5 -368.5 Q96.5 -373.5 96.5 -397.5 96.0 -421.5 96.0 -455.0 95.5 -489.0 95.0 -523.5 95.0 -558.0 94.5 -584.0 94.5 -610.0 94.5 -618.5 113.0 -618.5 155.5 -620.0 198.5 -621.0 252.5 -623.0 307.0 -625.0 360.0 -627.0 413.0 -629.5 452.0 -631.0 491.5 -633.0 504.0 -634.0 L508.0 -484.5 Q494.0 -484.5 465.0 -483.5 435.5 -483.0 402.5 -482.0 369.0 -481.0 343.5 -480.0 317.5 -479.5 310.5 -479.5 L310.5 -373.5 Q318.0 -373.5 338.5 -374.0 359.0 -375.0 385.5 -376.0 412.0 -377.0 436.5 -378.5 461.5 -380.0 477.5 -381.5 L479.5 -236.5 Q469.5 -236.5 445.5 -237.0 421.5 -237.5 393.5 -238.0 365.0 -238.5 342.0 -239.0 319.0 -239.5 310.5 -239.5 L310.5 -145.0 Q320.0 -145.0 347.0 -144.5 373.5 -144.5 407.0 -144.5 441.0 -144.5 471.5 -145.0 502.0 -145.5 519.5 -147.0" fill-rule="evenodd" stroke="none"/>
    </g>
    <g id="font_Lithos_Pro_Regular_h0">
      <path d="M323.5 0.0 L96.5 0.0 Q97.0 -12.0 97.0 -40.0 97.5 -67.5 97.5 -103.0 98.0 -138.0 98.0 -172.5 98.5 -206.5 98.5 -231.5 98.5 -256.5 98.5 -264.0 L98.5 -358.0 Q98.5 -363.5 98.5 -389.0 98.0 -414.5 97.5 -450.0 97.5 -486.0 97.0 -522.0 96.0 -558.0 95.5 -584.5 95.0 -611.0 94.5 -618.5 L324.5 -618.5 Q324.0 -611.0 323.0 -582.5 322.0 -554.0 321.5 -518.0 320.5 -482.5 320.0 -454.0 319.5 -425.5 319.5 -418.5 L319.5 -388.0 544.0 -404.0 544.0 -437.0 Q544.0 -443.5 543.5 -468.5 543.5 -494.0 543.0 -526.0 542.0 -557.5 541.5 -584.0 540.5 -610.0 540.0 -618.5 L769.0 -618.5 Q768.5 -611.0 768.0 -582.5 767.5 -553.5 767.0 -514.5 766.5 -475.0 766.0 -436.0 765.5 -396.5 765.5 -368.0 765.0 -339.5 765.0 -332.5 L765.0 -245.5 Q765.0 -241.5 765.0 -217.5 765.5 -193.5 766.0 -159.0 766.0 -125.0 766.5 -90.5 767.5 -56.0 768.0 -31.0 768.5 -6.0 769.0 0.0 L540.0 0.0 Q540.5 -12.0 541.0 -39.5 541.5 -67.0 542.5 -98.5 543.0 -130.5 543.5 -155.5 544.0 -180.5 544.0 -187.5 L544.0 -247.5 319.5 -231.5 319.5 -206.0 Q319.5 -190.0 320.0 -159.5 320.5 -129.5 321.0 -95.5 322.0 -62.0 322.5 -35.0 323.0 -8.5 323.5 0.0" fill-rule="evenodd" stroke="none"/>
    </g>
    <g id="font_Lithos_Pro_Regular_a0">
      <path d="M301.0 -222.5 L454.5 -229.5 Q434.5 -268.0 413.0 -306.5 391.5 -345.0 378.0 -373.0 361.0 -340.5 340.0 -300.0 319.5 -259.5 301.0 -222.5 M184.5 29.5 L0.0 -65.0 Q7.5 -76.5 30.5 -114.0 54.0 -152.0 88.0 -206.5 121.5 -261.5 161.0 -324.0 200.0 -387.0 239.5 -449.0 279.0 -511.5 313.5 -564.0 347.5 -616.5 371.5 -650.5 L391.0 -650.5 Q426.0 -602.0 472.5 -535.0 518.5 -467.5 568.5 -394.0 618.5 -321.0 664.0 -254.0 709.5 -187.0 742.0 -139.0 775.0 -91.0 787.5 -75.0 L599.0 28.5 Q584.5 6.5 567.0 -22.0 549.5 -50.5 535.5 -73.5 521.5 -96.5 517.0 -102.5 L243.5 -89.5 Q241.0 -84.5 230.5 -64.0 220.5 -43.5 207.5 -18.0 195.0 8.0 184.5 29.5" fill-rule="evenodd" stroke="none"/>
    </g>
    <g id="font_Lithos_Pro_Regular_v0">
      <path d="M564.0 -638.0 L766.0 -541.5 Q757.0 -529.0 730.5 -489.0 704.0 -449.5 666.5 -392.5 629.0 -336.0 587.0 -272.0 544.5 -208.0 504.0 -147.0 463.5 -86.0 430.5 -37.5 398.0 11.0 380.0 37.0 L360.5 37.0 Q330.5 -6.0 288.5 -71.5 246.5 -137.0 200.0 -211.0 154.0 -285.0 112.0 -353.5 70.0 -422.0 40.0 -471.0 10.5 -519.5 1.0 -534.5 L206.0 -638.0 Q212.0 -625.5 229.0 -591.5 246.0 -557.0 268.5 -511.5 291.0 -466.0 314.0 -419.0 337.0 -372.5 355.5 -334.5 374.0 -297.0 383.0 -278.5 392.0 -297.5 411.0 -336.0 430.5 -375.0 455.0 -423.0 479.0 -470.5 502.5 -516.5 526.0 -562.5 543.0 -595.5 560.0 -629.0 564.0 -638.0" fill-rule="evenodd" stroke="none"/>
    </g>
    <g id="font_Lithos_Pro_Regular_i0">
      <path d="M315.5 -357.5 L315.5 -263.0 Q315.5 -229.5 316.0 -188.0 316.5 -146.5 317.0 -106.5 318.0 -66.5 318.5 -37.5 319.0 -8.5 319.5 0.0 L92.5 0.0 Q93.0 -12.0 93.0 -40.0 93.5 -67.5 93.5 -103.0 94.0 -138.0 94.0 -172.5 94.5 -206.5 94.5 -231.5 94.5 -256.5 94.5 -264.0 L94.5 -358.5 Q94.5 -364.0 94.5 -389.5 94.0 -414.5 94.0 -450.5 93.5 -486.0 93.0 -522.0 93.0 -558.0 92.5 -584.5 92.5 -611.0 92.5 -618.5 L319.5 -618.5 Q319.0 -611.5 318.5 -585.5 318.0 -559.0 317.0 -521.0 316.5 -482.5 316.0 -440.0 315.5 -397.0 315.5 -357.5" fill-rule="evenodd" stroke="none"/>
    </g>
    <g id="font_Lithos_Pro_Regular_o0">
      <path d="M409.5 -127.0 L409.5 -127.0 Q482.0 -127.0 524.0 -175.0 565.5 -223.5 566.5 -319.5 566.0 -403.0 531.5 -446.5 496.5 -490.5 432.5 -490.5 382.0 -490.0 347.5 -463.5 313.0 -437.5 295.5 -393.5 277.5 -350.0 277.5 -297.0 278.0 -239.5 296.0 -202.0 313.5 -164.0 343.5 -145.5 373.5 -127.0 409.5 -127.0 M399.5 14.5 L399.5 14.5 Q306.0 13.5 237.5 -12.5 169.5 -39.0 125.5 -82.5 81.5 -126.0 60.0 -178.5 39.0 -230.5 39.0 -283.5 39.0 -347.5 63.5 -409.0 88.5 -470.5 138.5 -521.0 188.5 -571.0 265.0 -601.0 341.5 -631.0 444.5 -632.0 556.5 -631.5 637.0 -595.0 718.0 -558.5 761.0 -490.0 804.5 -422.0 805.0 -325.5 805.5 -275.5 785.5 -217.0 766.0 -159.0 719.5 -106.5 673.5 -54.0 595.0 -20.5 516.5 13.5 399.5 14.5" fill-rule="evenodd" stroke="none"/>
    </g>
    <g id="font_Lithos_Pro_Regular_u0">
      <path d="M289.0 -462.0 L289.0 -403.5 Q288.5 -334.5 292.0 -288.5 295.0 -242.5 304.0 -213.5 313.0 -184.5 331.0 -165.5 345.5 -150.5 363.5 -143.5 381.0 -137.0 402.5 -137.0 427.0 -137.0 446.5 -146.5 465.5 -156.5 478.5 -175.0 488.0 -187.5 493.5 -204.0 499.0 -220.0 501.5 -247.5 504.0 -275.0 504.5 -321.5 505.0 -368.0 505.0 -441.5 L505.0 -474.0 Q505.0 -520.5 503.0 -561.5 501.0 -602.0 500.0 -627.0 L725.0 -627.0 Q725.0 -617.0 725.0 -593.5 725.5 -570.5 725.5 -539.0 726.0 -507.5 726.0 -472.5 L726.0 -431.5 Q726.5 -348.5 720.5 -285.0 714.5 -221.5 697.0 -172.5 679.5 -123.5 645.0 -84.0 602.0 -35.5 535.5 -10.5 469.0 14.5 390.5 14.5 351.5 15.0 303.5 8.0 255.5 0.5 208.5 -23.0 161.5 -46.5 126.0 -95.0 109.0 -118.0 97.5 -145.0 85.5 -172.0 78.0 -209.0 70.5 -246.5 67.0 -300.5 63.5 -355.0 63.5 -433.5 L63.5 -480.5 Q63.5 -501.5 64.0 -528.0 64.0 -555.0 64.5 -578.5 64.5 -602.0 64.5 -612.5 L294.0 -612.5 Q291.5 -595.5 290.5 -558.5 289.0 -521.0 289.0 -462.0" fill-rule="evenodd" stroke="none"/>
    </g>
    <g id="font_Lithos_Pro_Regular_r0">
      <path d="M311.5 -492.5 L311.5 -266.0 Q311.5 -255.5 311.5 -227.5 312.0 -199.0 312.5 -162.0 312.5 -125.5 313.0 -90.0 314.0 -54.5 314.5 -29.5 315.0 -5.0 315.5 0.0 L95.5 0.0 Q96.5 -7.0 97.5 -31.5 98.0 -56.0 98.5 -89.5 98.5 -123.0 98.5 -156.5 98.5 -190.0 98.5 -214.0 98.5 -238.5 98.5 -244.5 L98.5 -386.0 Q98.5 -394.5 98.5 -419.0 98.0 -443.0 97.5 -474.5 97.5 -506.0 97.0 -537.0 96.0 -568.0 95.5 -590.0 95.0 -612.5 94.5 -618.5 194.0 -619.0 285.0 -617.5 376.5 -616.5 444.5 -608.0 547.5 -595.0 602.0 -557.0 656.0 -519.0 656.5 -458.5 656.0 -404.5 626.0 -361.5 596.0 -319.0 539.5 -284.5 551.0 -273.0 577.0 -247.5 603.5 -222.5 634.5 -193.0 665.5 -163.0 691.5 -138.5 717.0 -113.5 727.0 -102.5 L545.0 29.5 Q537.5 19.0 516.0 -12.0 494.5 -43.0 466.0 -84.5 437.5 -126.0 409.0 -168.0 380.0 -209.5 358.0 -241.5 336.0 -273.5 328.0 -285.5 352.5 -297.5 375.5 -316.0 399.0 -334.0 414.0 -359.5 429.5 -384.5 430.0 -417.0 431.5 -448.5 405.5 -469.5 379.5 -491.0 311.5 -492.5" fill-rule="evenodd" stroke="none"/>
    </g>
    <g id="font_Lithos_Pro_Regular_:0">
      <path d="M76.5 -353.5 L76.5 -353.5 76.5 -507.0 241.5 -507.0 241.5 -353.5 76.5 -353.5 M76.5 0.0 L76.5 0.0 76.5 -153.5 241.5 -153.5 241.5 0.0 76.5 0.0" fill-rule="evenodd" stroke="none"/>
    </g>
  </defs>
</svg>
