<?xml version="1.0" encoding="UTF-8" standalone="no"?>
<svg xmlns:ffdec="https://www.free-decompiler.com/flash" xmlns:xlink="http://www.w3.org/1999/xlink" ffdec:objectType="text" height="10.4px" width="98.85px" xmlns="http://www.w3.org/2000/svg">
  <g transform="matrix(1.0, 0.0, 0.0, 1.0, -55.7, 0.0)">
    <g transform="matrix(1.0, 0.0, 0.0, 1.0, 55.0, 0.0)">
      <use fill="#ffcc00" height="10.4" transform="matrix(0.0098, 0.0, 0.0, 0.0098, 0.0, 9.0)" width="98.85" xlink:href="#font_Lithos_Pro_Regular_20"/>
      <use fill="#ffcc00" height="10.4" transform="matrix(0.0098, 0.0, 0.0, 0.0098, 7.05, 9.0)" width="98.85" xlink:href="#font_Lithos_Pro_Regular_.0"/>
      <use fill="#ffcc00" height="10.4" transform="matrix(0.0098, 0.0, 0.0, 0.0098, 12.75, 9.0)" width="98.85" xlink:href="#font_Lithos_Pro_Regular_P0"/>
      <use fill="#ffcc00" height="10.4" transform="matrix(0.0098, 0.0, 0.0, 0.0098, 18.9, 9.0)" width="98.85" xlink:href="#font_Lithos_Pro_Regular_u0"/>
      <use fill="#ffcc00" height="10.4" transform="matrix(0.0098, 0.0, 0.0, 0.0098, 26.3, 9.0)" width="98.85" xlink:href="#font_Lithos_Pro_Regular_s0"/>
      <use fill="#ffcc00" height="10.4" transform="matrix(0.0098, 0.0, 0.0, 0.0098, 31.1, 9.0)" width="98.85" xlink:href="#font_Lithos_Pro_Regular_h0"/>
      <use fill="#ffcc00" height="10.4" transform="matrix(0.0098, 0.0, 0.0, 0.0098, 39.35, 9.0)" width="98.85" xlink:href="#font_Lithos_Pro_Regular_e0"/>
      <use fill="#ffcc00" height="10.4" transform="matrix(0.0098, 0.0, 0.0, 0.0098, 44.65, 9.0)" width="98.85" xlink:href="#font_Lithos_Pro_Regular_s0"/>
      <use fill="#ffcc00" height="10.4" transform="matrix(0.0098, 0.0, 0.0, 0.0098, 52.45, 9.0)" width="98.85" xlink:href="#font_Lithos_Pro_Regular_E0"/>
      <use fill="#ffcc00" height="10.4" transform="matrix(0.0098, 0.0, 0.0, 0.0098, 58.2, 9.0)" width="98.85" xlink:href="#font_Lithos_Pro_Regular_n0"/>
      <use fill="#ffcc00" height="10.4" transform="matrix(0.0098, 0.0, 0.0, 0.0098, 66.25, 9.0)" width="98.85" xlink:href="#font_Lithos_Pro_Regular_e0"/>
      <use fill="#ffcc00" height="10.4" transform="matrix(0.0098, 0.0, 0.0, 0.0098, 71.55, 9.0)" width="98.85" xlink:href="#font_Lithos_Pro_Regular_m0"/>
      <use fill="#ffcc00" height="10.4" transform="matrix(0.0098, 0.0, 0.0, 0.0098, 80.95, 9.0)" width="98.85" xlink:href="#font_Lithos_Pro_Regular_i0"/>
      <use fill="#ffcc00" height="10.4" transform="matrix(0.0098, 0.0, 0.0, 0.0098, 84.45, 9.0)" width="98.85" xlink:href="#font_Lithos_Pro_Regular_e0"/>
      <use fill="#ffcc00" height="10.4" transform="matrix(0.0098, 0.0, 0.0, 0.0098, 89.75, 9.0)" width="98.85" xlink:href="#font_Lithos_Pro_Regular_s0"/>
    </g>
  </g>
  <defs>
    <g id="font_Lithos_Pro_Regular_20">
      <path d="M574.5 -79.5 L574.5 8.5 Q564.0 7.5 524.5 6.0 485.0 5.0 428.0 3.5 371.0 2.5 308.5 1.5 246.0 0.5 189.5 0.0 L73.5 0.0 71.5 -10.0 Q124.5 -45.5 186.0 -93.0 248.0 -140.5 304.5 -196.5 360.5 -253.0 396.5 -314.0 433.0 -375.0 434.0 -437.0 433.5 -490.5 406.5 -530.0 380.0 -569.0 337.0 -595.0 294.0 -621.0 245.0 -634.5 195.5 -648.0 149.5 -650.0 L168.0 -734.0 Q284.5 -719.5 366.0 -677.5 447.5 -635.5 490.5 -575.0 533.0 -515.0 533.5 -446.0 532.5 -384.0 504.5 -328.0 477.0 -272.0 434.5 -224.5 392.5 -176.5 347.5 -138.0 303.0 -100.0 268.0 -72.5 L269.0 -68.5 574.5 -79.5" fill-rule="evenodd" stroke="none"/>
    </g>
    <g id="font_Lithos_Pro_Regular_.0">
      <path d="M81.0 0.0 L81.0 -113.5 195.5 -113.5 195.5 0.0 81.0 0.0" fill-rule="evenodd" stroke="none"/>
    </g>
    <g id="font_Lithos_Pro_Regular_P0">
      <path d="M243.5 -640.5 L243.5 -285.5 Q308.5 -299.0 359.0 -326.0 409.5 -353.0 438.5 -394.0 467.5 -435.0 468.0 -491.0 469.0 -503.5 462.0 -527.0 455.5 -550.5 433.5 -576.0 411.5 -602.0 366.0 -620.5 320.5 -638.5 243.5 -640.5 M245.5 0.0 L149.5 0.0 Q150.0 -14.0 150.5 -47.5 151.5 -81.5 152.0 -126.0 153.0 -170.5 153.5 -216.5 154.0 -263.0 154.0 -302.0 154.5 -340.5 154.5 -363.5 L154.5 -476.0 Q154.5 -483.5 154.0 -508.5 154.0 -533.0 153.5 -566.5 153.0 -599.5 152.5 -632.0 152.0 -664.5 152.0 -688.0 151.5 -711.0 151.5 -716.5 173.5 -716.5 206.5 -715.0 239.0 -714.0 275.5 -711.0 311.5 -708.0 344.0 -703.0 448.0 -686.0 507.0 -637.0 566.5 -588.0 567.5 -506.5 567.0 -436.0 526.5 -377.0 486.5 -318.0 414.0 -276.0 341.5 -234.0 243.5 -214.0 L243.5 -153.5 Q243.5 -145.0 243.5 -124.0 243.5 -102.5 243.5 -77.0 244.0 -51.5 244.5 -30.0 245.0 -9.0 245.5 0.0" fill-rule="evenodd" stroke="none"/>
    </g>
    <g id="font_Lithos_Pro_Regular_u0">
      <path d="M184.5 -462.0 L184.5 -403.5 Q184.5 -333.5 188.0 -285.0 191.5 -237.0 201.0 -202.5 210.0 -168.0 227.5 -140.0 254.5 -96.5 293.0 -76.0 332.0 -55.5 382.0 -56.0 441.5 -57.0 478.5 -80.0 516.0 -103.5 538.5 -139.0 559.5 -171.0 569.0 -216.0 578.5 -261.0 580.5 -318.5 583.0 -376.0 582.5 -444.5 L582.5 -474.5 Q582.5 -520.0 580.5 -557.0 578.5 -594.0 577.5 -619.0 L670.5 -619.0 Q670.5 -603.5 671.0 -564.5 671.5 -525.5 671.5 -473.5 L671.5 -432.5 Q672.0 -349.0 665.5 -284.5 659.5 -219.5 642.0 -169.0 624.0 -118.5 589.5 -78.5 549.0 -31.0 496.0 -8.5 443.5 14.5 369.5 14.5 344.0 15.0 307.0 9.0 269.5 3.0 230.0 -19.5 190.5 -42.0 157.0 -90.0 141.0 -113.5 129.0 -141.0 117.5 -169.0 110.0 -207.0 102.5 -245.5 99.0 -300.5 95.5 -355.5 95.5 -434.5 L95.5 -481.5 Q95.5 -502.0 96.0 -527.0 96.0 -551.5 96.5 -573.0 96.5 -595.0 96.5 -605.5 L188.5 -605.5 Q187.5 -589.5 186.0 -555.5 184.5 -521.5 184.5 -462.0" fill-rule="evenodd" stroke="none"/>
    </g>
    <g id="font_Lithos_Pro_Regular_s0">
      <path d="M131.0 16.5 L107.5 -55.5 Q143.5 -62.0 180.5 -73.0 218.0 -83.5 250.0 -99.0 281.5 -114.5 301.5 -135.0 321.0 -155.0 321.5 -181.5 321.5 -214.0 297.0 -235.5 272.5 -257.0 222.0 -280.5 161.0 -309.0 123.0 -341.0 85.0 -373.5 84.0 -420.0 84.5 -456.5 108.5 -490.0 132.0 -523.0 171.5 -550.5 211.0 -578.0 259.5 -597.5 308.0 -617.0 358.5 -626.0 L377.5 -554.0 Q354.0 -551.0 321.0 -542.5 288.0 -533.5 255.0 -519.5 222.5 -505.0 200.5 -484.0 179.0 -462.5 178.0 -434.5 179.0 -411.0 196.5 -394.5 214.5 -377.5 239.0 -365.0 264.0 -352.0 284.5 -341.0 320.5 -322.0 350.0 -304.0 380.0 -285.5 398.0 -261.5 416.0 -237.5 416.5 -202.0 416.0 -156.0 383.0 -113.5 349.5 -70.5 286.0 -36.5 222.5 -2.5 131.0 16.5" fill-rule="evenodd" stroke="none"/>
    </g>
    <g id="font_Lithos_Pro_Regular_h0">
      <path d="M228.0 0.0 L132.0 0.0 Q132.5 -12.0 133.0 -40.0 133.5 -67.5 134.0 -103.0 134.5 -138.0 134.5 -172.0 135.0 -206.5 135.0 -231.5 135.0 -256.5 135.0 -264.0 L135.0 -358.0 Q135.0 -363.0 134.5 -388.0 134.5 -412.5 134.0 -447.0 133.5 -481.5 132.5 -516.5 132.0 -551.5 131.0 -577.0 130.5 -602.5 130.0 -609.5 L229.0 -609.5 Q228.5 -604.0 228.0 -583.0 227.0 -562.5 226.5 -533.5 225.5 -504.5 225.0 -476.0 224.5 -447.0 224.5 -426.0 224.0 -405.0 224.0 -400.0 L224.0 -336.5 618.5 -352.5 618.5 -418.5 Q618.5 -425.0 618.0 -451.5 618.0 -478.5 617.5 -512.0 617.0 -546.0 616.5 -573.5 616.0 -601.0 615.5 -609.5 L714.5 -609.5 Q714.0 -602.5 713.0 -574.5 712.0 -547.0 711.0 -509.0 710.5 -471.0 709.5 -432.5 708.5 -394.5 708.0 -367.0 707.5 -339.0 707.5 -332.0 L707.5 -245.5 Q707.5 -241.5 707.5 -217.0 708.0 -193.0 708.5 -159.0 708.5 -124.5 709.0 -90.0 710.0 -56.0 710.5 -31.0 711.0 -6.0 711.5 0.0 L613.5 0.0 Q614.5 -12.0 615.5 -41.5 616.5 -71.0 617.0 -105.0 618.0 -139.5 618.0 -166.5 618.5 -193.5 618.5 -200.5 L618.5 -288.5 224.0 -272.0 224.0 -219.0 Q224.0 -203.5 224.5 -171.0 225.0 -139.0 225.5 -102.5 226.5 -66.0 227.0 -37.5 227.5 -8.5 228.0 0.0" fill-rule="evenodd" stroke="none"/>
    </g>
    <g id="font_Lithos_Pro_Regular_e0">
      <path d="M458.5 -68.5 L461.5 9.5 Q451.5 9.5 417.0 8.5 383.0 7.5 337.5 6.0 292.0 5.0 247.0 3.5 202.0 2.0 170.5 1.0 138.5 0.0 132.0 0.0 133.0 -18.5 133.5 -56.0 134.5 -93.5 134.5 -136.0 135.0 -178.0 135.0 -211.0 135.0 -244.0 135.0 -252.5 L135.0 -368.5 Q135.0 -373.5 135.0 -397.5 134.5 -421.5 134.0 -454.5 134.0 -488.0 133.5 -521.5 133.0 -555.0 132.5 -579.5 132.5 -603.5 132.0 -609.5 139.5 -609.5 168.5 -611.0 197.5 -612.0 238.0 -614.5 278.5 -616.5 320.0 -618.5 362.0 -621.0 395.0 -623.0 428.5 -625.0 443.0 -626.0 L447.0 -552.0 Q431.0 -552.0 397.5 -551.5 364.0 -551.0 326.5 -550.0 288.5 -549.0 259.5 -548.5 231.0 -548.0 224.0 -548.0 L224.0 -334.5 Q231.0 -334.5 253.5 -335.0 276.0 -336.0 305.5 -337.0 335.5 -338.5 365.0 -340.0 394.5 -342.0 416.5 -343.5 L419.5 -269.0 Q407.0 -269.0 378.5 -269.5 350.5 -270.0 317.0 -271.0 284.5 -271.0 258.5 -271.5 232.5 -272.0 224.0 -272.0 L224.0 -65.5 Q233.0 -65.5 258.0 -65.0 283.0 -65.0 317.0 -65.0 351.5 -65.0 388.5 -66.0 425.5 -66.5 458.5 -68.5" fill-rule="evenodd" stroke="none"/>
    </g>
    <g id="font_Lithos_Pro_Regular_E0">
      <path d="M491.0 -77.5 L495.5 10.5 Q489.5 10.5 455.0 9.5 421.0 8.5 372.5 7.0 324.5 5.5 276.0 4.0 227.5 2.0 192.5 1.0 157.5 0.0 150.5 0.0 151.5 -17.0 152.0 -49.5 152.5 -82.0 153.0 -121.5 153.0 -160.5 153.5 -198.0 153.5 -235.5 153.5 -262.5 153.5 -289.0 153.5 -297.0 L153.5 -434.0 Q153.5 -440.0 153.5 -468.0 153.0 -496.0 152.5 -535.0 152.5 -574.0 152.0 -613.5 151.5 -652.5 151.0 -681.0 151.0 -710.0 150.5 -716.5 159.0 -716.5 190.5 -718.0 222.0 -719.5 266.0 -722.0 309.5 -724.5 353.5 -727.5 397.5 -730.0 431.0 -732.5 464.0 -734.5 475.0 -736.0 L479.0 -655.0 Q465.5 -655.0 431.0 -654.0 396.5 -653.5 356.0 -652.5 315.5 -651.5 284.5 -650.5 253.0 -650.0 245.5 -650.0 L245.5 -390.0 Q253.0 -390.0 277.5 -391.0 301.5 -391.5 333.5 -393.5 365.0 -395.0 395.5 -397.0 425.5 -399.0 445.0 -401.0 L448.0 -320.5 Q438.5 -320.5 410.0 -321.0 381.0 -322.0 346.0 -322.5 311.0 -323.5 282.5 -324.0 254.0 -324.5 245.5 -324.5 L245.5 -74.5 Q255.5 -74.5 282.5 -74.0 309.5 -73.5 346.0 -73.5 382.5 -73.5 421.0 -74.5 459.0 -75.5 491.0 -77.5" fill-rule="evenodd" stroke="none"/>
    </g>
    <g id="font_Lithos_Pro_Regular_n0">
      <path d="M197.5 6.0 L103.5 0.0 Q105.0 -17.5 107.5 -64.0 110.5 -111.0 114.0 -176.0 117.5 -241.0 121.5 -313.0 125.0 -384.5 128.5 -451.5 132.0 -519.0 134.5 -569.5 137.0 -620.5 138.0 -644.0 L143.5 -644.0 Q151.0 -636.0 186.5 -600.0 221.5 -564.0 274.0 -511.5 326.0 -459.0 383.5 -400.5 441.5 -342.5 493.5 -290.0 546.0 -237.0 581.5 -201.5 617.5 -165.5 625.5 -157.5 625.5 -165.0 625.5 -198.0 626.0 -231.5 626.0 -280.5 626.5 -329.5 626.5 -384.0 627.0 -438.5 627.5 -488.0 627.5 -537.5 628.0 -571.5 628.5 -605.5 628.5 -613.5 L719.5 -609.5 Q718.5 -593.0 715.5 -545.0 713.0 -497.5 710.0 -429.0 707.0 -360.5 703.5 -282.0 700.5 -204.0 698.0 -126.0 695.5 -48.0 694.0 18.5 L690.0 18.5 Q682.5 11.5 645.5 -24.5 608.5 -61.0 554.5 -114.5 500.5 -168.5 441.0 -227.5 381.5 -286.5 329.0 -339.5 276.0 -392.0 241.5 -426.5 207.5 -461.0 203.5 -465.0 L201.5 -465.0 Q202.0 -460.0 202.0 -426.5 201.5 -393.0 201.0 -342.0 200.5 -291.0 200.0 -234.0 199.0 -177.0 198.5 -125.0 198.0 -73.5 197.5 -37.5 197.0 -2.0 197.5 6.0" fill-rule="evenodd" stroke="none"/>
    </g>
    <g id="font_Lithos_Pro_Regular_m0">
      <path d="M115.0 22.5 L31.0 -4.0 Q35.5 -14.5 51.5 -61.5 68.0 -108.0 91.0 -176.5 114.5 -245.0 140.0 -320.0 165.0 -395.0 187.5 -462.0 210.0 -529.0 224.5 -573.0 239.0 -617.5 241.0 -624.0 L245.0 -624.0 Q254.0 -606.5 276.0 -563.5 298.5 -521.0 327.5 -465.5 356.5 -410.5 385.5 -355.5 414.5 -300.5 437.0 -259.0 459.5 -217.0 468.0 -201.0 477.5 -216.5 502.5 -258.5 527.5 -300.0 560.0 -354.0 592.0 -408.0 623.5 -460.5 655.0 -513.0 677.5 -550.5 700.0 -588.0 705.5 -597.5 L708.5 -597.5 Q716.0 -579.0 732.5 -535.5 749.0 -492.5 771.5 -434.0 793.5 -375.5 818.0 -311.5 842.5 -247.5 865.5 -187.0 889.0 -127.0 907.0 -80.0 925.0 -33.0 935.0 -9.5 L850.0 22.5 Q843.0 1.5 826.0 -47.0 809.5 -95.5 787.5 -156.5 766.0 -218.0 745.0 -277.0 724.0 -336.5 708.5 -379.5 693.5 -422.0 689.5 -433.5 680.0 -418.0 657.5 -381.5 635.5 -345.5 606.5 -298.0 577.5 -250.5 548.0 -202.0 518.5 -153.5 494.5 -114.5 470.5 -75.5 458.0 -55.5 L456.0 -55.5 Q436.0 -93.0 408.0 -144.5 380.5 -196.5 351.0 -252.5 321.5 -308.0 295.5 -356.5 270.0 -405.0 254.0 -435.5 250.0 -421.0 239.0 -385.0 228.0 -349.0 213.0 -300.0 198.0 -251.5 182.0 -199.0 166.0 -146.5 151.5 -99.0 137.0 -52.0 127.5 -19.5 117.5 13.5 115.0 22.5" fill-rule="evenodd" stroke="none"/>
    </g>
    <g id="font_Lithos_Pro_Regular_i0">
      <path d="M224.0 -357.5 L224.0 -263.5 Q224.0 -230.0 224.5 -188.5 225.0 -147.0 225.5 -106.5 226.5 -66.5 227.0 -37.5 227.5 -8.5 228.0 0.0 L132.0 0.0 Q132.5 -12.0 133.0 -40.0 133.5 -67.5 134.0 -103.0 134.5 -138.0 134.5 -172.5 135.0 -207.0 135.0 -232.0 135.0 -257.0 135.0 -264.5 L135.0 -358.5 Q135.0 -364.0 134.5 -388.5 134.5 -413.0 134.0 -447.5 133.5 -482.0 132.5 -516.5 132.0 -551.5 131.0 -577.0 130.5 -602.5 130.0 -609.5 L229.0 -609.5 Q228.5 -603.0 227.5 -578.5 226.5 -553.5 226.0 -517.0 225.0 -480.5 224.5 -439.0 224.0 -397.0 224.0 -357.5" fill-rule="evenodd" stroke="none"/>
    </g>
  </defs>
</svg>
