<?xml version="1.0" encoding="UTF-8" standalone="no"?>
<svg xmlns:ffdec="https://www.free-decompiler.com/flash" xmlns:xlink="http://www.w3.org/1999/xlink" ffdec:objectType="text" height="10.45px" width="63.95px" xmlns="http://www.w3.org/2000/svg">
  <g transform="matrix(1.0, 0.0, 0.0, 1.0, -56.4, 0.0)">
    <g transform="matrix(1.0, 0.0, 0.0, 1.0, 55.0, 0.0)">
      <use fill="#ffcc00" height="10.45" transform="matrix(0.0098, 0.0, 0.0, 0.0098, 0.0, 9.0)" width="63.95" xlink:href="#font_Lithos_Pro_Regular_30"/>
      <use fill="#ffcc00" height="10.45" transform="matrix(0.0098, 0.0, 0.0, 0.0098, 7.05, 9.0)" width="63.95" xlink:href="#font_Lithos_Pro_Regular_.0"/>
      <use fill="#ffcc00" height="10.45" transform="matrix(0.0098, 0.0, 0.0, 0.0098, 12.75, 9.0)" width="63.95" xlink:href="#font_Lithos_Pro_Regular_E0"/>
      <use fill="#ffcc00" height="10.45" transform="matrix(0.0098, 0.0, 0.0, 0.0098, 18.5, 9.0)" width="63.95" xlink:href="#font_Lithos_Pro_Regular_x0"/>
      <use fill="#ffcc00" height="10.45" transform="matrix(0.0098, 0.0, 0.0, 0.0098, 25.1, 9.0)" width="63.95" xlink:href="#font_Lithos_Pro_Regular_p0"/>
      <use fill="#ffcc00" height="10.45" transform="matrix(0.0098, 0.0, 0.0, 0.0098, 30.7, 9.0)" width="63.95" xlink:href="#font_Lithos_Pro_Regular_l0"/>
      <use fill="#ffcc00" height="10.45" transform="matrix(0.0098, 0.0, 0.0, 0.0098, 35.5, 9.0)" width="63.95" xlink:href="#font_Lithos_Pro_Regular_o0"/>
      <use fill="#ffcc00" height="10.45" transform="matrix(0.0098, 0.0, 0.0, 0.0098, 43.15, 9.0)" width="63.95" xlink:href="#font_Lithos_Pro_Regular_d0"/>
      <use fill="#ffcc00" height="10.45" transform="matrix(0.0098, 0.0, 0.0, 0.0098, 50.25, 9.0)" width="63.95" xlink:href="#font_Lithos_Pro_Regular_e0"/>
      <use fill="#ffcc00" height="10.45" transform="matrix(0.0098, 0.0, 0.0, 0.0098, 55.55, 9.0)" width="63.95" xlink:href="#font_Lithos_Pro_Regular_s0"/>
    </g>
  </g>
  <defs>
    <g id="font_Lithos_Pro_Regular_30">
      <path d="M192.5 -660.5 L205.0 -739.5 Q250.5 -737.0 303.5 -723.5 356.0 -710.5 404.0 -686.0 452.0 -661.5 482.5 -626.5 513.0 -591.5 514.0 -546.0 513.0 -509.0 492.5 -475.5 472.5 -442.5 443.0 -417.5 414.0 -392.5 387.0 -381.0 L387.0 -379.0 Q427.5 -369.0 461.0 -349.5 495.0 -330.0 515.5 -300.0 536.0 -270.5 536.5 -229.5 535.5 -177.0 502.5 -131.5 469.5 -86.5 413.5 -51.5 358.0 -17.0 290.0 3.0 221.5 23.0 150.5 25.5 L144.5 -57.5 Q189.0 -54.5 238.5 -63.5 288.0 -72.5 332.0 -93.5 376.0 -114.5 403.5 -147.0 431.0 -180.0 432.0 -224.5 431.0 -259.0 409.0 -283.0 387.0 -307.5 353.0 -323.0 319.0 -338.5 282.5 -346.0 246.0 -353.5 216.5 -354.5 L216.5 -385.0 Q248.0 -388.0 283.0 -400.0 318.0 -411.5 349.0 -430.5 379.5 -449.0 399.0 -474.5 418.5 -499.5 419.0 -529.5 418.5 -561.5 398.5 -585.5 378.5 -610.0 345.5 -626.5 312.5 -643.0 272.5 -651.5 232.5 -660.0 192.5 -660.5" fill-rule="evenodd" stroke="none"/>
    </g>
    <g id="font_Lithos_Pro_Regular_.0">
      <path d="M81.0 0.0 L81.0 -113.5 195.5 -113.5 195.5 0.0 81.0 0.0" fill-rule="evenodd" stroke="none"/>
    </g>
    <g id="font_Lithos_Pro_Regular_E0">
      <path d="M491.0 -77.5 L495.5 10.5 Q489.5 10.5 455.0 9.5 421.0 8.5 372.5 7.0 324.5 5.5 276.0 4.0 227.5 2.0 192.5 1.0 157.5 0.0 150.5 0.0 151.5 -17.0 152.0 -49.5 152.5 -82.0 153.0 -121.5 153.0 -160.5 153.5 -198.0 153.5 -235.5 153.5 -262.5 153.5 -289.0 153.5 -297.0 L153.5 -434.0 Q153.5 -440.0 153.5 -468.0 153.0 -496.0 152.5 -535.0 152.5 -574.0 152.0 -613.5 151.5 -652.5 151.0 -681.0 151.0 -710.0 150.5 -716.5 159.0 -716.5 190.5 -718.0 222.0 -719.5 266.0 -722.0 309.5 -724.5 353.5 -727.5 397.5 -730.0 431.0 -732.5 464.0 -734.5 475.0 -736.0 L479.0 -655.0 Q465.5 -655.0 431.0 -654.0 396.5 -653.5 356.0 -652.5 315.5 -651.5 284.5 -650.5 253.0 -650.0 245.5 -650.0 L245.5 -390.0 Q253.0 -390.0 277.5 -391.0 301.5 -391.5 333.5 -393.5 365.0 -395.0 395.5 -397.0 425.5 -399.0 445.0 -401.0 L448.0 -320.5 Q438.5 -320.5 410.0 -321.0 381.0 -322.0 346.0 -322.5 311.0 -323.5 282.5 -324.0 254.0 -324.5 245.5 -324.5 L245.5 -74.5 Q255.5 -74.5 282.5 -74.0 309.5 -73.5 346.0 -73.5 382.5 -73.5 421.0 -74.5 459.0 -75.5 491.0 -77.5" fill-rule="evenodd" stroke="none"/>
    </g>
    <g id="font_Lithos_Pro_Regular_x0">
      <path d="M100.5 18.5 L36.0 -42.0 Q44.0 -48.5 68.5 -74.5 93.5 -100.0 126.5 -136.0 159.5 -172.0 192.5 -208.5 226.0 -245.5 251.0 -273.5 276.5 -301.5 286.0 -312.5 271.0 -329.0 241.0 -361.5 211.5 -394.0 177.0 -432.0 142.5 -469.5 113.5 -502.0 84.0 -534.0 70.0 -550.0 L137.5 -614.5 Q147.0 -602.0 170.0 -573.5 193.0 -545.0 223.0 -508.5 253.0 -471.5 284.0 -434.5 315.5 -397.5 341.0 -367.5 354.0 -381.5 385.0 -416.0 416.0 -450.5 452.5 -491.5 489.0 -533.0 519.0 -567.0 549.0 -601.0 560.0 -613.5 L622.5 -552.0 Q610.5 -540.0 576.5 -507.0 543.0 -473.5 502.5 -433.0 462.5 -393.0 430.0 -359.5 398.0 -326.5 388.0 -314.5 397.0 -304.5 421.0 -278.0 445.5 -251.5 477.5 -217.0 509.5 -182.0 542.0 -147.0 574.5 -111.5 600.0 -84.0 625.5 -56.5 637.0 -45.0 L566.5 17.5 Q558.5 8.0 534.5 -20.0 511.0 -48.0 479.5 -85.5 448.5 -122.5 417.0 -159.5 386.0 -196.5 362.5 -224.0 339.5 -251.5 332.0 -260.0 328.0 -254.5 305.5 -227.0 283.0 -199.0 250.5 -160.0 218.5 -121.0 186.0 -82.0 153.5 -43.5 130.0 -15.5 106.0 12.5 100.5 18.5" fill-rule="evenodd" stroke="none"/>
    </g>
    <g id="font_Lithos_Pro_Regular_p0">
      <path d="M223.0 -541.0 L223.0 -248.0 Q279.0 -258.5 324.5 -280.0 370.0 -301.5 397.5 -336.5 424.5 -371.0 425.0 -421.0 425.5 -433.5 419.0 -453.0 412.5 -472.5 392.0 -492.0 372.0 -512.0 331.0 -526.0 290.5 -539.5 223.0 -541.0 M224.0 0.0 L131.0 0.0 Q131.5 -15.5 132.5 -55.5 133.0 -95.5 134.0 -145.5 134.5 -195.5 134.5 -240.0 135.0 -285.0 135.0 -309.5 L135.0 -405.0 Q135.0 -413.5 134.5 -443.5 134.5 -473.5 134.0 -510.0 133.5 -546.0 133.5 -575.0 133.0 -603.5 133.0 -609.5 153.0 -609.5 185.0 -609.0 217.0 -608.0 252.0 -606.0 287.5 -604.0 317.5 -599.5 412.0 -584.5 465.0 -542.5 518.0 -500.5 519.0 -431.5 518.5 -368.5 481.0 -317.5 443.5 -266.5 377.0 -231.5 311.0 -196.0 223.0 -180.5 L223.0 -131.0 Q223.0 -124.0 223.0 -106.0 223.0 -88.0 223.0 -66.0 223.0 -44.0 223.5 -26.0 223.5 -7.5 224.0 0.0" fill-rule="evenodd" stroke="none"/>
    </g>
    <g id="font_Lithos_Pro_Regular_l0">
      <path d="M131.0 -609.5 L232.0 -609.5 Q230.5 -601.5 229.0 -570.0 227.5 -538.0 226.5 -493.0 225.5 -448.0 224.5 -399.5 224.0 -351.0 224.0 -309.0 L224.0 -68.5 Q236.0 -68.5 272.0 -68.5 308.0 -69.0 357.0 -69.5 406.0 -70.5 456.5 -72.5 L456.5 9.5 Q446.5 9.5 413.0 8.5 379.5 7.5 334.5 6.0 289.0 5.0 244.5 3.5 199.5 2.0 167.5 1.0 135.0 0.0 127.0 0.0 130.0 -18.5 131.5 -56.0 133.5 -93.5 134.0 -136.0 134.5 -178.5 135.0 -211.0 135.0 -244.0 135.0 -253.0 L135.0 -368.5 Q135.0 -373.5 135.0 -397.5 134.5 -421.5 134.0 -455.0 134.0 -488.5 133.5 -522.0 132.5 -555.0 132.0 -579.5 131.5 -604.0 131.0 -609.5" fill-rule="evenodd" stroke="none"/>
    </g>
    <g id="font_Lithos_Pro_Regular_o0">
      <path d="M380.0 -53.0 L380.0 -53.0 Q451.0 -53.0 510.0 -84.5 569.0 -116.0 604.5 -176.0 640.0 -236.5 641.0 -322.5 640.0 -400.5 608.5 -452.5 576.5 -504.5 524.5 -530.5 472.5 -556.5 410.5 -556.5 329.0 -555.5 271.0 -519.5 212.5 -483.5 181.5 -423.0 151.0 -362.0 150.5 -287.0 151.0 -221.0 178.5 -168.5 206.0 -115.5 257.0 -84.5 308.5 -53.5 380.0 -53.0 M371.5 14.5 L371.5 14.5 Q269.5 13.5 199.5 -26.0 129.0 -65.5 93.0 -130.5 56.5 -195.5 56.5 -273.5 57.0 -371.5 101.5 -450.5 146.5 -529.5 228.5 -576.0 310.5 -623.0 424.0 -624.0 515.0 -623.5 585.0 -588.5 655.0 -553.5 695.0 -487.5 735.0 -421.0 736.0 -327.0 736.5 -274.5 717.0 -216.0 697.5 -157.5 654.5 -105.0 611.5 -52.5 542.0 -19.5 472.0 13.5 371.5 14.5" fill-rule="evenodd" stroke="none"/>
    </g>
    <g id="font_Lithos_Pro_Regular_d0">
      <path d="M223.0 -541.0 L223.0 -72.0 Q316.5 -78.5 387.0 -105.5 457.0 -132.0 503.5 -172.5 550.0 -212.5 573.0 -260.0 596.0 -307.5 596.0 -355.5 595.5 -422.5 551.5 -464.0 507.5 -506.0 424.0 -524.5 340.5 -543.5 223.0 -541.0 M135.0 -275.5 L135.0 -383.5 Q135.0 -389.5 135.0 -411.5 134.5 -433.5 134.5 -464.0 134.0 -494.0 133.5 -524.5 133.0 -555.0 132.0 -578.5 131.0 -601.5 130.0 -609.5 157.0 -609.5 195.0 -609.5 233.0 -609.5 275.5 -608.5 318.5 -607.5 359.5 -604.5 472.5 -595.0 539.5 -567.5 606.0 -540.0 638.5 -504.0 671.0 -468.5 681.0 -434.0 691.0 -399.5 690.0 -376.0 689.0 -292.5 655.0 -229.5 621.0 -166.5 563.0 -122.0 505.0 -77.5 432.0 -49.5 359.5 -22.0 281.0 -9.0 203.0 4.0 129.0 4.0 130.0 -9.0 131.0 -38.5 132.0 -67.5 133.0 -105.0 133.5 -142.5 134.0 -178.5 134.5 -215.0 135.0 -241.5 135.0 -268.0 135.0 -275.5" fill-rule="evenodd" stroke="none"/>
    </g>
    <g id="font_Lithos_Pro_Regular_e0">
      <path d="M458.5 -68.5 L461.5 9.5 Q451.5 9.5 417.0 8.5 383.0 7.5 337.5 6.0 292.0 5.0 247.0 3.5 202.0 2.0 170.5 1.0 138.5 0.0 132.0 0.0 133.0 -18.5 133.5 -56.0 134.5 -93.5 134.5 -136.0 135.0 -178.0 135.0 -211.0 135.0 -244.0 135.0 -252.5 L135.0 -368.5 Q135.0 -373.5 135.0 -397.5 134.5 -421.5 134.0 -454.5 134.0 -488.0 133.5 -521.5 133.0 -555.0 132.5 -579.5 132.5 -603.5 132.0 -609.5 139.5 -609.5 168.5 -611.0 197.5 -612.0 238.0 -614.5 278.5 -616.5 320.0 -618.5 362.0 -621.0 395.0 -623.0 428.5 -625.0 443.0 -626.0 L447.0 -552.0 Q431.0 -552.0 397.5 -551.5 364.0 -551.0 326.5 -550.0 288.5 -549.0 259.5 -548.5 231.0 -548.0 224.0 -548.0 L224.0 -334.5 Q231.0 -334.5 253.5 -335.0 276.0 -336.0 305.5 -337.0 335.5 -338.5 365.0 -340.0 394.5 -342.0 416.5 -343.5 L419.5 -269.0 Q407.0 -269.0 378.5 -269.5 350.5 -270.0 317.0 -271.0 284.5 -271.0 258.5 -271.5 232.5 -272.0 224.0 -272.0 L224.0 -65.5 Q233.0 -65.5 258.0 -65.0 283.0 -65.0 317.0 -65.0 351.5 -65.0 388.5 -66.0 425.5 -66.5 458.5 -68.5" fill-rule="evenodd" stroke="none"/>
    </g>
    <g id="font_Lithos_Pro_Regular_s0">
      <path d="M131.0 16.5 L107.5 -55.5 Q143.5 -62.0 180.5 -73.0 218.0 -83.5 250.0 -99.0 281.5 -114.5 301.5 -135.0 321.0 -155.0 321.5 -181.5 321.5 -214.0 297.0 -235.5 272.5 -257.0 222.0 -280.5 161.0 -309.0 123.0 -341.0 85.0 -373.5 84.0 -420.0 84.5 -456.5 108.5 -490.0 132.0 -523.0 171.5 -550.5 211.0 -578.0 259.5 -597.5 308.0 -617.0 358.5 -626.0 L377.5 -554.0 Q354.0 -551.0 321.0 -542.5 288.0 -533.5 255.0 -519.5 222.5 -505.0 200.5 -484.0 179.0 -462.5 178.0 -434.5 179.0 -411.0 196.5 -394.5 214.5 -377.5 239.0 -365.0 264.0 -352.0 284.5 -341.0 320.5 -322.0 350.0 -304.0 380.0 -285.5 398.0 -261.5 416.0 -237.5 416.5 -202.0 416.0 -156.0 383.0 -113.5 349.5 -70.5 286.0 -36.5 222.5 -2.5 131.0 16.5" fill-rule="evenodd" stroke="none"/>
    </g>
  </defs>
</svg>
