<?xml version="1.0" encoding="UTF-8" standalone="no"?>
<svg xmlns:ffdec="https://www.free-decompiler.com/flash" xmlns:xlink="http://www.w3.org/1999/xlink" ffdec:objectType="text" height="24.15px" width="88.95px" xmlns="http://www.w3.org/2000/svg">
  <g transform="matrix(1.0, 0.0, 0.0, 1.0, -55.95, 0.0)">
    <g transform="matrix(1.0, 0.0, 0.0, 1.0, 55.0, 0.0)">
      <use fill="#ffcc00" height="24.15" transform="matrix(0.0098, 0.0, 0.0, 0.0098, 0.0, 9.0)" width="88.95" xlink:href="#font_Lithos_Pro_Regular_10"/>
      <use fill="#ffcc00" height="24.15" transform="matrix(0.0098, 0.0, 0.0, 0.0098, 7.05, 9.0)" width="88.95" xlink:href="#font_Lithos_Pro_Regular_.0"/>
      <use fill="#ffcc00" height="24.15" transform="matrix(0.0098, 0.0, 0.0, 0.0098, 12.75, 9.0)" width="88.95" xlink:href="#font_Lithos_Pro_Regular_D0"/>
      <use fill="#ffcc00" height="24.15" transform="matrix(0.0098, 0.0, 0.0, 0.0098, 20.9, 9.0)" width="88.95" xlink:href="#font_Lithos_Pro_Regular_r0"/>
      <use fill="#ffcc00" height="24.15" transform="matrix(0.0098, 0.0, 0.0, 0.0098, 26.95, 9.0)" width="88.95" xlink:href="#font_Lithos_Pro_Regular_o0"/>
      <use fill="#ffcc00" height="24.15" transform="matrix(0.0098, 0.0, 0.0, 0.0098, 34.6, 9.0)" width="88.95" xlink:href="#font_Lithos_Pro_Regular_p0"/>
      <use fill="#ffcc00" height="24.15" transform="matrix(0.0098, 0.0, 0.0, 0.0098, 40.2, 9.0)" width="88.95" xlink:href="#font_Lithos_Pro_Regular_s0"/>
      <use fill="#ffcc00" height="24.15" transform="matrix(0.0098, 0.0, 0.0, 0.0098, 48.0, 9.0)" width="88.95" xlink:href="#font_Lithos_Pro_Regular_M0"/>
      <use fill="#ffcc00" height="24.15" transform="matrix(0.0098, 0.0, 0.0, 0.0098, 58.95, 9.0)" width="88.95" xlink:href="#font_Lithos_Pro_Regular_a0"/>
      <use fill="#ffcc00" height="24.15" transform="matrix(0.0098, 0.0, 0.0, 0.0098, 66.05, 9.0)" width="88.95" xlink:href="#font_Lithos_Pro_Regular_g0"/>
      <use fill="#ffcc00" height="24.15" transform="matrix(0.0098, 0.0, 0.0, 0.0098, 72.65, 9.0)" width="88.95" xlink:href="#font_Lithos_Pro_Regular_i0"/>
      <use fill="#ffcc00" height="24.15" transform="matrix(0.0098, 0.0, 0.0, 0.0098, 76.05, 9.0)" width="88.95" xlink:href="#font_Lithos_Pro_Regular_c0"/>
    </g>
    <g transform="matrix(1.0, 0.0, 0.0, 1.0, 55.0, 0.0)">
      <use fill="#ffcc00" height="24.15" transform="matrix(0.0098, 0.0, 0.0, 0.0098, 0.0, 23.0)" width="88.95" xlink:href="#font_Lithos_Pro_Regular_S0"/>
      <use fill="#ffcc00" height="24.15" transform="matrix(0.0098, 0.0, 0.0, 0.0098, 5.25, 23.0)" width="88.95" xlink:href="#font_Lithos_Pro_Regular_t0"/>
      <use fill="#ffcc00" height="24.15" transform="matrix(0.0098, 0.0, 0.0, 0.0098, 10.45, 23.0)" width="88.95" xlink:href="#font_Lithos_Pro_Regular_a0"/>
      <use fill="#ffcc00" height="24.15" transform="matrix(0.0098, 0.0, 0.0, 0.0098, 17.55, 23.0)" width="88.95" xlink:href="#font_Lithos_Pro_Regular_f0"/>
      <use fill="#ffcc00" height="24.15" transform="matrix(0.0098, 0.0, 0.0, 0.0098, 22.5, 23.0)" width="88.95" xlink:href="#font_Lithos_Pro_Regular_f0"/>
      <use fill="#ffcc00" height="24.15" transform="matrix(0.0098, 0.0, 0.0, 0.0098, 27.45, 23.0)" width="88.95" xlink:href="#font_Lithos_Pro_Regular_s0"/>
    </g>
  </g>
  <defs>
    <g id="font_Lithos_Pro_Regular_10">
      <path d="M434.0 0.0 L338.0 0.0 Q338.0 -14.0 339.5 -57.5 341.0 -100.5 342.5 -162.0 344.0 -224.0 344.0 -294.0 L344.0 -559.0 Q328.5 -540.5 301.5 -513.5 275.0 -486.5 248.0 -460.0 221.5 -434.0 206.0 -417.5 L159.5 -473.0 Q166.5 -479.0 193.0 -504.0 220.0 -528.5 257.0 -563.5 294.5 -598.5 332.0 -634.5 370.0 -670.5 398.5 -698.0 427.5 -726.0 437.0 -737.0 L440.0 -737.0 Q440.0 -719.0 438.0 -673.0 436.0 -626.5 434.0 -562.5 432.0 -499.0 432.0 -429.0 L432.0 -271.5 Q432.0 -160.5 432.0 -92.5 432.0 -24.0 434.0 0.0" fill-rule="evenodd" stroke="none"/>
    </g>
    <g id="font_Lithos_Pro_Regular_.0">
      <path d="M81.0 0.0 L81.0 -113.5 195.5 -113.5 195.5 0.0 81.0 0.0" fill-rule="evenodd" stroke="none"/>
    </g>
    <g id="font_Lithos_Pro_Regular_D0">
      <path d="M245.5 -639.5 L245.5 -85.0 Q350.5 -95.0 432.0 -127.0 513.5 -159.5 569.5 -207.0 626.0 -254.0 655.0 -308.5 684.0 -363.0 684.0 -417.5 683.5 -495.0 629.5 -545.0 575.5 -594.5 477.0 -618.0 379.0 -641.0 245.5 -639.5 M153.5 -323.5 L153.5 -450.5 Q153.5 -457.5 153.5 -483.5 153.0 -509.5 153.0 -545.0 152.5 -580.5 152.0 -616.5 151.5 -652.5 150.5 -680.0 149.5 -707.0 148.5 -716.5 178.5 -716.5 222.0 -716.5 266.0 -716.0 315.0 -714.0 364.0 -711.5 409.5 -706.0 533.5 -689.5 609.0 -657.5 684.0 -625.5 722.0 -586.5 760.0 -547.0 773.0 -509.5 785.5 -471.5 784.5 -444.0 783.5 -349.0 740.5 -275.5 698.0 -202.0 627.5 -149.0 557.0 -96.0 472.5 -62.0 388.0 -27.5 303.0 -11.5 218.5 5.0 147.5 5.0 148.5 -10.0 149.5 -44.5 150.5 -79.0 151.5 -123.0 152.0 -167.0 152.5 -209.5 153.0 -252.0 153.5 -283.0 153.5 -314.5 153.5 -323.5" fill-rule="evenodd" stroke="none"/>
    </g>
    <g id="font_Lithos_Pro_Regular_r0">
      <path d="M224.0 -543.0 L224.0 -266.5 Q224.0 -256.0 224.5 -227.5 224.5 -199.0 225.0 -162.5 225.5 -125.5 226.5 -90.0 227.0 -54.5 228.0 -29.5 228.5 -5.0 229.0 0.0 L133.0 0.0 Q134.0 -7.0 134.5 -39.0 135.0 -70.5 135.0 -114.5 135.0 -158.5 135.0 -202.5 135.0 -246.5 135.0 -277.5 135.0 -309.0 135.0 -315.5 L135.0 -386.0 Q135.0 -397.5 134.5 -430.0 134.5 -462.5 133.5 -501.5 133.0 -541.0 132.0 -571.5 131.0 -602.0 130.0 -609.5 164.0 -610.0 218.5 -609.5 273.0 -609.0 332.5 -602.5 425.5 -591.5 476.0 -555.5 527.0 -519.5 527.5 -462.0 526.5 -408.0 490.0 -363.0 454.0 -318.0 395.0 -284.0 405.0 -270.5 435.0 -237.0 465.0 -203.0 501.5 -162.5 538.5 -122.0 569.0 -89.5 599.5 -57.0 610.5 -46.0 L539.5 16.5 Q536.0 12.0 512.5 -16.5 489.0 -45.0 455.5 -86.5 422.0 -127.5 387.5 -170.5 352.5 -213.0 326.0 -246.0 299.5 -279.0 290.5 -291.0 308.5 -300.0 332.0 -313.5 355.5 -327.0 377.5 -346.0 400.0 -365.0 415.0 -390.5 429.5 -416.0 430.0 -449.0 431.0 -470.0 415.5 -491.0 399.5 -512.5 355.0 -527.0 310.0 -542.0 224.0 -543.0" fill-rule="evenodd" stroke="none"/>
    </g>
    <g id="font_Lithos_Pro_Regular_o0">
      <path d="M380.0 -53.0 L380.0 -53.0 Q451.0 -53.0 510.0 -84.5 569.0 -116.0 604.5 -176.0 640.0 -236.5 641.0 -322.5 640.0 -400.5 608.5 -452.5 576.5 -504.5 524.5 -530.5 472.5 -556.5 410.5 -556.5 329.0 -555.5 271.0 -519.5 212.5 -483.5 181.5 -423.0 151.0 -362.0 150.5 -287.0 151.0 -221.0 178.5 -168.5 206.0 -115.5 257.0 -84.5 308.5 -53.5 380.0 -53.0 M371.5 14.5 L371.5 14.5 Q269.5 13.5 199.5 -26.0 129.0 -65.5 93.0 -130.5 56.5 -195.5 56.5 -273.5 57.0 -371.5 101.5 -450.5 146.5 -529.5 228.5 -576.0 310.5 -623.0 424.0 -624.0 515.0 -623.5 585.0 -588.5 655.0 -553.5 695.0 -487.5 735.0 -421.0 736.0 -327.0 736.5 -274.5 717.0 -216.0 697.5 -157.5 654.5 -105.0 611.5 -52.5 542.0 -19.5 472.0 13.5 371.5 14.5" fill-rule="evenodd" stroke="none"/>
    </g>
    <g id="font_Lithos_Pro_Regular_p0">
      <path d="M223.0 -541.0 L223.0 -248.0 Q279.0 -258.5 324.5 -280.0 370.0 -301.5 397.5 -336.5 424.5 -371.0 425.0 -421.0 425.5 -433.5 419.0 -453.0 412.5 -472.5 392.0 -492.0 372.0 -512.0 331.0 -526.0 290.5 -539.5 223.0 -541.0 M224.0 0.0 L131.0 0.0 Q131.5 -15.5 132.5 -55.5 133.0 -95.5 134.0 -145.5 134.5 -195.5 134.5 -240.0 135.0 -285.0 135.0 -309.5 L135.0 -405.0 Q135.0 -413.5 134.5 -443.5 134.5 -473.5 134.0 -510.0 133.5 -546.0 133.5 -575.0 133.0 -603.5 133.0 -609.5 153.0 -609.5 185.0 -609.0 217.0 -608.0 252.0 -606.0 287.5 -604.0 317.5 -599.5 412.0 -584.5 465.0 -542.5 518.0 -500.5 519.0 -431.5 518.5 -368.5 481.0 -317.5 443.5 -266.5 377.0 -231.5 311.0 -196.0 223.0 -180.5 L223.0 -131.0 Q223.0 -124.0 223.0 -106.0 223.0 -88.0 223.0 -66.0 223.0 -44.0 223.5 -26.0 223.5 -7.5 224.0 0.0" fill-rule="evenodd" stroke="none"/>
    </g>
    <g id="font_Lithos_Pro_Regular_s0">
      <path d="M131.0 16.5 L107.5 -55.5 Q143.5 -62.0 180.5 -73.0 218.0 -83.5 250.0 -99.0 281.5 -114.5 301.5 -135.0 321.0 -155.0 321.5 -181.5 321.5 -214.0 297.0 -235.5 272.5 -257.0 222.0 -280.5 161.0 -309.0 123.0 -341.0 85.0 -373.5 84.0 -420.0 84.5 -456.5 108.5 -490.0 132.0 -523.0 171.5 -550.5 211.0 -578.0 259.5 -597.5 308.0 -617.0 358.5 -626.0 L377.5 -554.0 Q354.0 -551.0 321.0 -542.5 288.0 -533.5 255.0 -519.5 222.5 -505.0 200.5 -484.0 179.0 -462.5 178.0 -434.5 179.0 -411.0 196.5 -394.5 214.5 -377.5 239.0 -365.0 264.0 -352.0 284.5 -341.0 320.5 -322.0 350.0 -304.0 380.0 -285.5 398.0 -261.5 416.0 -237.5 416.5 -202.0 416.0 -156.0 383.0 -113.5 349.5 -70.5 286.0 -36.5 222.5 -2.5 131.0 16.5" fill-rule="evenodd" stroke="none"/>
    </g>
    <g id="font_Lithos_Pro_Regular_M0">
      <path d="M127.0 26.5 L43.0 -5.5 Q47.5 -15.5 62.5 -58.0 77.5 -100.0 99.0 -164.0 120.5 -228.0 145.5 -302.0 170.5 -376.0 195.0 -450.0 219.0 -523.5 239.5 -585.5 260.0 -647.5 272.5 -687.0 285.5 -727.0 286.5 -733.0 L288.5 -733.0 Q297.0 -716.0 316.5 -677.5 336.0 -639.0 362.0 -587.5 388.0 -536.0 416.5 -481.0 445.0 -425.5 471.0 -375.0 497.0 -325.0 516.5 -288.5 535.5 -252.0 543.5 -238.5 553.0 -253.5 574.5 -290.5 596.0 -327.5 625.0 -377.0 653.5 -426.5 684.0 -479.5 714.5 -532.5 741.5 -580.0 769.0 -627.5 787.5 -660.0 806.5 -692.5 812.0 -701.0 L814.0 -701.0 Q823.0 -679.5 843.0 -628.5 862.5 -577.5 888.0 -509.0 914.0 -440.5 942.5 -365.0 970.5 -290.0 997.0 -219.5 1023.5 -149.0 1044.5 -94.0 1065.5 -39.0 1077.0 -11.5 L989.0 26.5 Q982.0 6.5 966.5 -38.0 950.5 -82.0 929.5 -140.0 908.5 -198.0 886.0 -260.0 863.5 -321.5 843.5 -376.5 823.0 -431.0 809.0 -469.0 794.5 -506.5 790.5 -517.0 778.5 -499.0 753.0 -455.0 727.5 -411.5 695.0 -355.0 662.5 -298.5 629.5 -241.5 596.5 -184.5 570.0 -139.0 543.5 -94.0 530.5 -73.0 L528.5 -73.0 Q505.5 -115.5 473.5 -177.0 441.5 -238.5 407.5 -305.5 374.0 -372.5 345.5 -431.0 317.0 -489.0 301.0 -525.0 295.5 -508.5 282.0 -465.0 268.0 -421.5 249.5 -363.0 231.0 -304.0 211.0 -240.5 191.0 -177.0 173.0 -120.0 155.0 -63.5 142.5 -24.0 130.5 15.5 127.0 26.5" fill-rule="evenodd" stroke="none"/>
    </g>
    <g id="font_Lithos_Pro_Regular_a0">
      <path d="M226.5 -255.0 L476.5 -265.0 Q473.0 -271.5 460.0 -295.0 447.5 -318.5 430.0 -350.5 412.5 -382.5 395.0 -414.0 378.0 -445.5 365.0 -468.0 352.5 -490.5 349.5 -495.5 345.0 -488.5 332.5 -464.0 319.5 -439.5 303.0 -406.0 286.0 -373.0 269.5 -340.0 253.0 -307.0 241.0 -283.5 229.5 -260.0 226.5 -255.0 M93.5 18.5 L14.5 -26.5 Q27.5 -49.5 55.0 -100.0 83.0 -150.5 119.0 -216.5 155.0 -283.0 193.5 -353.0 231.5 -423.5 265.0 -485.0 299.0 -547.0 322.0 -589.0 345.0 -630.5 350.5 -640.0 L352.5 -640.0 Q376.5 -601.5 414.5 -538.0 452.0 -474.0 496.0 -399.0 540.0 -323.5 582.5 -250.0 625.5 -176.5 660.0 -119.0 694.0 -61.0 713.0 -32.5 L630.0 17.5 Q623.0 4.0 605.5 -28.5 587.5 -61.0 566.5 -99.0 545.5 -137.0 529.0 -166.5 512.0 -196.0 508.0 -202.5 L191.5 -190.5 Q186.5 -179.0 173.0 -150.5 159.5 -121.5 143.5 -86.5 127.0 -52.0 113.0 -23.0 99.0 6.5 93.5 18.5" fill-rule="evenodd" stroke="none"/>
    </g>
    <g id="font_Lithos_Pro_Regular_g0">
      <path d="M596.0 -199.5 L596.0 -136.0 Q596.0 -118.0 596.5 -91.5 597.0 -65.0 597.5 -42.5 598.0 -20.0 598.0 -13.0 576.5 -5.5 543.5 1.0 510.0 7.0 471.0 10.5 431.5 14.5 392.5 14.5 286.5 14.0 211.5 -19.5 136.5 -53.0 96.5 -110.0 57.0 -167.5 56.5 -240.5 56.0 -280.0 79.0 -331.5 101.5 -383.0 153.5 -438.5 205.5 -493.5 292.0 -542.5 379.0 -592.0 507.0 -626.0 L525.5 -546.0 Q449.0 -531.5 382.0 -501.5 314.5 -471.5 263.0 -430.5 211.0 -389.0 181.5 -340.5 152.0 -292.0 151.5 -239.5 151.0 -193.0 178.0 -150.5 204.5 -107.5 262.5 -80.5 320.0 -53.0 411.5 -52.0 441.5 -52.0 467.5 -55.5 493.5 -59.0 508.0 -64.5 L508.0 -205.5 Q508.0 -226.0 507.0 -243.5 506.0 -261.5 505.0 -266.0 L596.0 -266.0 596.0 -199.5" fill-rule="evenodd" stroke="none"/>
    </g>
    <g id="font_Lithos_Pro_Regular_i0">
      <path d="M224.0 -357.5 L224.0 -263.5 Q224.0 -230.0 224.5 -188.5 225.0 -147.0 225.5 -106.5 226.5 -66.5 227.0 -37.5 227.5 -8.5 228.0 0.0 L132.0 0.0 Q132.5 -12.0 133.0 -40.0 133.5 -67.5 134.0 -103.0 134.5 -138.0 134.5 -172.5 135.0 -207.0 135.0 -232.0 135.0 -257.0 135.0 -264.5 L135.0 -358.5 Q135.0 -364.0 134.5 -388.5 134.5 -413.0 134.0 -447.5 133.5 -482.0 132.5 -516.5 132.0 -551.5 131.0 -577.0 130.5 -602.5 130.0 -609.5 L229.0 -609.5 Q228.5 -603.0 227.5 -578.5 226.5 -553.5 226.0 -517.0 225.0 -480.5 224.5 -439.0 224.0 -397.0 224.0 -357.5" fill-rule="evenodd" stroke="none"/>
    </g>
    <g id="font_Lithos_Pro_Regular_c0">
      <path d="M560.0 -69.0 L569.0 7.5 Q556.0 10.0 525.5 12.0 495.0 14.5 452.5 14.5 334.0 13.5 257.0 -14.0 179.5 -41.5 136.0 -83.0 92.5 -124.5 74.5 -167.5 57.0 -211.0 57.5 -243.5 57.5 -299.5 84.0 -357.5 111.0 -415.5 167.0 -468.5 222.5 -521.5 309.0 -562.5 395.5 -603.0 515.0 -625.0 L529.5 -547.0 Q452.5 -537.5 385.0 -513.0 317.0 -488.0 265.0 -450.0 212.5 -412.5 183.0 -363.5 153.0 -315.0 152.5 -258.0 152.0 -206.0 183.5 -160.5 214.5 -115.5 283.0 -88.0 351.0 -60.0 461.5 -59.0 490.5 -59.0 517.0 -62.0 543.5 -65.0 560.0 -69.0" fill-rule="evenodd" stroke="none"/>
    </g>
    <g id="font_Lithos_Pro_Regular_S0">
      <path d="M149.5 18.5 L122.5 -58.5 Q161.0 -66.0 200.5 -79.5 240.5 -93.0 274.5 -112.0 308.5 -131.5 329.5 -156.5 350.5 -182.0 351.0 -213.0 351.5 -250.0 325.5 -276.0 299.5 -302.0 244.5 -330.5 178.0 -365.0 138.0 -402.5 98.0 -440.0 97.0 -493.5 97.5 -534.5 123.0 -572.5 148.0 -610.5 190.5 -643.0 232.5 -675.5 284.0 -699.0 335.5 -723.0 389.0 -735.0 L410.5 -656.0 Q386.0 -652.5 350.5 -641.0 315.0 -630.0 280.0 -612.0 245.0 -593.5 221.0 -568.5 197.5 -543.0 196.5 -511.0 197.5 -484.5 217.0 -464.0 236.5 -443.5 263.0 -427.5 289.5 -412.0 312.0 -399.0 351.5 -377.0 383.0 -355.0 414.5 -333.5 433.5 -306.0 452.0 -278.5 452.5 -237.5 452.5 -186.5 417.5 -137.0 383.0 -87.0 315.5 -46.0 248.0 -5.0 149.5 18.5" fill-rule="evenodd" stroke="none"/>
    </g>
    <g id="font_Lithos_Pro_Regular_t0">
      <path d="M346.0 0.0 L240.0 0.0 Q241.5 -7.5 242.5 -38.5 243.5 -69.5 244.5 -116.0 245.0 -162.5 245.5 -215.5 245.5 -269.0 246.0 -320.5 246.0 -372.5 246.0 -414.5 L246.0 -536.5 Q206.0 -536.5 164.0 -536.0 122.5 -535.0 86.0 -534.0 49.5 -533.0 25.0 -531.5 0.5 -530.0 -5.0 -528.5 L-5.0 -611.5 Q4.0 -609.5 31.0 -607.5 58.5 -606.0 94.0 -604.5 130.0 -603.5 165.0 -602.5 200.0 -602.0 224.0 -601.5 248.5 -601.0 252.0 -601.0 L334.0 -601.0 Q340.0 -601.0 364.0 -601.5 387.5 -601.5 421.0 -602.5 454.0 -603.5 488.0 -604.5 522.0 -606.0 548.0 -607.5 574.0 -609.0 584.0 -611.5 L584.0 -528.5 Q582.0 -530.0 554.5 -531.5 527.0 -533.0 486.5 -534.0 446.0 -535.0 405.0 -536.0 364.0 -536.5 335.0 -536.5 L335.0 -401.5 Q335.0 -334.0 336.5 -266.5 338.0 -198.5 340.0 -141.0 342.0 -83.0 343.5 -45.0 345.5 -7.5 346.0 0.0" fill-rule="evenodd" stroke="none"/>
    </g>
    <g id="font_Lithos_Pro_Regular_f0">
      <path d="M227.0 0.0 L127.0 0.0 Q130.0 -18.5 131.5 -56.0 133.5 -93.5 134.0 -136.0 134.5 -178.5 135.0 -211.0 135.0 -244.0 135.0 -252.5 L135.0 -368.5 Q135.0 -373.5 135.0 -397.5 134.5 -421.5 134.0 -455.0 134.0 -488.0 133.5 -521.5 132.5 -555.0 132.0 -579.5 131.5 -604.0 131.0 -609.5 139.0 -609.5 167.0 -610.5 195.5 -611.5 235.0 -613.0 274.5 -614.5 315.5 -616.5 357.0 -618.0 390.5 -620.0 424.5 -621.5 441.0 -623.0 L445.0 -549.0 224.0 -545.0 224.0 -331.5 Q231.0 -331.5 255.5 -332.5 280.0 -333.0 312.0 -334.5 344.5 -335.5 375.5 -337.0 406.5 -338.5 427.5 -339.5 L431.0 -267.0 224.0 -270.0 224.0 -190.5 Q224.0 -184.0 224.0 -156.5 224.0 -129.0 224.0 -95.0 224.0 -60.5 225.0 -33.0 225.5 -6.0 227.0 0.0" fill-rule="evenodd" stroke="none"/>
    </g>
  </defs>
</svg>
