<?xml version="1.0" encoding="UTF-8" standalone="no"?>
<svg xmlns:ffdec="https://www.free-decompiler.com/flash" xmlns:xlink="http://www.w3.org/1999/xlink" ffdec:objectType="text" height="12.1px" width="113.35px" xmlns="http://www.w3.org/2000/svg">
  <g transform="matrix(1.0, 0.0, 0.0, 1.0, 0.15, -0.8)">
    <g transform="matrix(1.0, 0.0, 0.0, 1.0, -5.2, 0.0)">
      <use fill="#cc9d3c" height="12.1" transform="matrix(0.0117, 0.0, 0.0, 0.0117, 5.0, 12.0)" width="113.35" xlink:href="#font_Lithos_Pro_Regular_S0"/>
      <use fill="#cc9d3c" height="12.1" transform="matrix(0.0117, 0.0, 0.0, 0.0117, 11.55, 12.0)" width="113.35" xlink:href="#font_Lithos_Pro_Regular_t0"/>
      <use fill="#cc9d3c" height="12.1" transform="matrix(0.0117, 0.0, 0.0, 0.0117, 18.75, 12.0)" width="113.35" xlink:href="#font_Lithos_Pro_Regular_r0"/>
      <use fill="#cc9d3c" height="12.1" transform="matrix(0.0117, 0.0, 0.0, 0.0117, 27.2, 12.0)" width="113.35" xlink:href="#font_Lithos_Pro_Regular_a0"/>
      <use fill="#cc9d3c" height="12.1" transform="matrix(0.0117, 0.0, 0.0, 0.0117, 36.0, 12.0)" width="113.35" xlink:href="#font_Lithos_Pro_Regular_t0"/>
      <use fill="#cc9d3c" height="12.1" transform="matrix(0.0117, 0.0, 0.0, 0.0117, 43.2, 12.0)" width="113.35" xlink:href="#font_Lithos_Pro_Regular_e0"/>
      <use fill="#cc9d3c" height="12.1" transform="matrix(0.0117, 0.0, 0.0, 0.0117, 50.05, 12.0)" width="113.35" xlink:href="#font_Lithos_Pro_Regular_g0"/>
      <use fill="#cc9d3c" height="12.1" transform="matrix(0.0117, 0.0, 0.0, 0.0117, 58.2, 12.0)" width="113.35" xlink:href="#font_Lithos_Pro_Regular_y0"/>
      <use fill="#cc9d3c" height="12.1" transform="matrix(0.0117, 0.0, 0.0, 0.0117, 69.75, 12.0)" width="113.35" xlink:href="#font_Lithos_Pro_Regular_G0"/>
      <use fill="#cc9d3c" height="12.1" transform="matrix(0.0117, 0.0, 0.0, 0.0117, 78.65, 12.0)" width="113.35" xlink:href="#font_Lithos_Pro_Regular_a0"/>
      <use fill="#cc9d3c" height="12.1" transform="matrix(0.0117, 0.0, 0.0, 0.0117, 87.9, 12.0)" width="113.35" xlink:href="#font_Lithos_Pro_Regular_m0"/>
      <use fill="#cc9d3c" height="12.1" transform="matrix(0.0117, 0.0, 0.0, 0.0117, 99.8, 12.0)" width="113.35" xlink:href="#font_Lithos_Pro_Regular_e0"/>
      <use fill="#cc9d3c" height="12.1" transform="matrix(0.0117, 0.0, 0.0, 0.0117, 106.65, 12.0)" width="113.35" xlink:href="#font_Lithos_Pro_Regular_s0"/>
    </g>
  </g>
  <defs>
    <g id="font_Lithos_Pro_Regular_S0">
      <path d="M95.5 18.5 L95.5 18.5 67.5 -156.5 Q118.5 -155.0 165.5 -163.5 213.0 -171.5 244.0 -188.5 274.5 -205.0 275.5 -229.5 276.0 -239.0 268.0 -248.5 260.0 -258.0 238.0 -272.0 216.0 -286.0 175.0 -309.0 142.0 -327.5 110.0 -351.5 78.5 -376.0 57.5 -408.0 36.5 -440.5 35.5 -483.5 36.0 -541.5 84.5 -597.5 133.5 -653.0 225.5 -693.0 317.5 -733.0 447.5 -745.5 L475.0 -574.5 Q379.0 -574.5 330.5 -558.5 282.5 -542.5 282.5 -511.0 282.5 -493.5 307.0 -477.5 332.0 -462.0 382.0 -438.5 410.5 -425.0 443.0 -404.0 476.0 -383.0 499.5 -351.0 523.5 -319.0 524.5 -273.5 524.5 -230.5 501.0 -185.5 477.5 -140.0 426.5 -98.5 375.5 -57.5 294.0 -26.5 212.0 4.5 95.5 18.5" fill-rule="evenodd" stroke="none"/>
    </g>
    <g id="font_Lithos_Pro_Regular_t0">
      <path d="M421.5 0.0 L194.5 0.0 Q195.0 -12.5 195.5 -51.5 196.0 -90.5 196.0 -141.5 196.5 -192.5 196.5 -241.0 L196.5 -461.0 Q181.5 -461.0 153.5 -460.5 125.0 -459.5 93.0 -459.0 61.5 -458.0 35.0 -457.0 8.5 -456.5 -3.0 -456.0 L-3.0 -616.5 Q10.0 -615.0 40.5 -614.0 70.5 -613.0 108.5 -612.0 146.0 -611.5 181.5 -610.5 217.5 -610.0 242.0 -609.5 266.5 -609.5 270.0 -609.5 L351.0 -609.5 Q357.0 -609.5 381.0 -609.5 405.0 -610.0 439.0 -610.5 473.5 -611.5 509.0 -612.0 544.5 -613.0 574.0 -614.0 603.0 -615.0 617.0 -616.5 L617.0 -456.0 Q609.5 -456.5 580.0 -457.0 550.5 -458.0 514.5 -459.0 478.5 -459.5 451.0 -460.5 423.0 -461.0 418.5 -461.0 L418.5 -227.5 Q418.5 -181.0 419.0 -132.5 419.0 -83.5 420.0 -46.5 420.5 -10.0 421.5 0.0" fill-rule="evenodd" stroke="none"/>
    </g>
    <g id="font_Lithos_Pro_Regular_r0">
      <path d="M311.5 -492.5 L311.5 -266.0 Q311.5 -255.5 311.5 -227.5 312.0 -199.0 312.5 -162.0 312.5 -125.5 313.0 -90.0 314.0 -54.5 314.5 -29.5 315.0 -5.0 315.5 0.0 L95.5 0.0 Q96.5 -7.0 97.5 -31.5 98.0 -56.0 98.5 -89.5 98.5 -123.0 98.5 -156.5 98.5 -190.0 98.5 -214.0 98.5 -238.5 98.5 -244.5 L98.5 -386.0 Q98.5 -394.5 98.5 -419.0 98.0 -443.0 97.5 -474.5 97.5 -506.0 97.0 -537.0 96.0 -568.0 95.5 -590.0 95.0 -612.5 94.5 -618.5 194.0 -619.0 285.0 -617.5 376.5 -616.5 444.5 -608.0 547.5 -595.0 602.0 -557.0 656.0 -519.0 656.5 -458.5 656.0 -404.5 626.0 -361.5 596.0 -319.0 539.5 -284.5 551.0 -273.0 577.0 -247.5 603.5 -222.5 634.5 -193.0 665.5 -163.0 691.5 -138.5 717.0 -113.5 727.0 -102.5 L545.0 29.5 Q537.5 19.0 516.0 -12.0 494.5 -43.0 466.0 -84.5 437.5 -126.0 409.0 -168.0 380.0 -209.5 358.0 -241.5 336.0 -273.5 328.0 -285.5 352.5 -297.5 375.5 -316.0 399.0 -334.0 414.0 -359.5 429.5 -384.5 430.0 -417.0 431.5 -448.5 405.5 -469.5 379.5 -491.0 311.5 -492.5" fill-rule="evenodd" stroke="none"/>
    </g>
    <g id="font_Lithos_Pro_Regular_a0">
      <path d="M301.0 -222.5 L454.5 -229.5 Q434.5 -268.0 413.0 -306.5 391.5 -345.0 378.0 -373.0 361.0 -340.5 340.0 -300.0 319.5 -259.5 301.0 -222.5 M184.5 29.5 L0.0 -65.0 Q7.5 -76.5 30.5 -114.0 54.0 -152.0 88.0 -206.5 121.5 -261.5 161.0 -324.0 200.0 -387.0 239.5 -449.0 279.0 -511.5 313.5 -564.0 347.5 -616.5 371.5 -650.5 L391.0 -650.5 Q426.0 -602.0 472.5 -535.0 518.5 -467.5 568.5 -394.0 618.5 -321.0 664.0 -254.0 709.5 -187.0 742.0 -139.0 775.0 -91.0 787.5 -75.0 L599.0 28.5 Q584.5 6.5 567.0 -22.0 549.5 -50.5 535.5 -73.5 521.5 -96.5 517.0 -102.5 L243.5 -89.5 Q241.0 -84.5 230.5 -64.0 220.5 -43.5 207.5 -18.0 195.0 8.0 184.5 29.5" fill-rule="evenodd" stroke="none"/>
    </g>
    <g id="font_Lithos_Pro_Regular_e0">
      <path d="M519.5 -147.0 L522.5 9.5 Q510.0 9.5 468.5 8.5 427.5 7.5 371.0 6.0 315.0 5.0 257.5 3.5 200.5 2.0 156.0 1.0 112.0 0.0 94.5 0.0 95.0 -18.5 95.5 -56.0 96.0 -93.5 96.5 -136.0 96.5 -178.5 96.5 -211.0 96.5 -244.0 96.5 -253.0 L96.5 -368.5 Q96.5 -373.5 96.5 -397.5 96.0 -421.5 96.0 -455.0 95.5 -489.0 95.0 -523.5 95.0 -558.0 94.5 -584.0 94.5 -610.0 94.5 -618.5 113.0 -618.5 155.5 -620.0 198.5 -621.0 252.5 -623.0 307.0 -625.0 360.0 -627.0 413.0 -629.5 452.0 -631.0 491.5 -633.0 504.0 -634.0 L508.0 -484.5 Q494.0 -484.5 465.0 -483.5 435.5 -483.0 402.5 -482.0 369.0 -481.0 343.5 -480.0 317.5 -479.5 310.5 -479.5 L310.5 -373.5 Q318.0 -373.5 338.5 -374.0 359.0 -375.0 385.5 -376.0 412.0 -377.0 436.5 -378.5 461.5 -380.0 477.5 -381.5 L479.5 -236.5 Q469.5 -236.5 445.5 -237.0 421.5 -237.5 393.5 -238.0 365.0 -238.5 342.0 -239.0 319.0 -239.5 310.5 -239.5 L310.5 -145.0 Q320.0 -145.0 347.0 -144.5 373.5 -144.5 407.0 -144.5 441.0 -144.5 471.5 -145.0 502.0 -145.5 519.5 -147.0" fill-rule="evenodd" stroke="none"/>
    </g>
    <g id="font_Lithos_Pro_Regular_g0">
      <path d="M632.0 -198.5 L632.0 -135.0 Q632.0 -117.0 632.5 -90.5 633.0 -64.0 633.5 -40.0 634.0 -16.0 634.0 -6.0 619.5 -2.5 588.5 2.0 557.0 7.0 514.5 10.5 472.0 14.5 424.0 14.5 286.5 13.5 200.0 -22.0 113.5 -58.0 73.0 -116.5 32.5 -175.0 33.0 -244.5 32.5 -285.5 55.5 -340.5 78.0 -395.5 133.5 -452.5 188.5 -510.0 284.5 -558.5 380.5 -606.5 525.5 -634.0 L568.5 -453.5 Q518.0 -448.0 465.5 -432.5 413.5 -417.5 368.5 -393.0 323.5 -368.0 296.0 -333.5 268.5 -298.5 267.5 -253.5 268.5 -211.0 293.5 -185.5 318.0 -160.0 354.0 -149.5 389.5 -138.5 424.0 -140.0 L424.0 -205.5 Q424.0 -223.5 423.0 -243.0 422.0 -262.0 422.0 -285.5 L633.0 -285.5 Q632.0 -255.5 632.0 -236.0 632.0 -217.0 632.0 -198.5" fill-rule="evenodd" stroke="none"/>
    </g>
    <g id="font_Lithos_Pro_Regular_y0">
      <path d="M471.0 0.0 L241.0 0.0 Q241.5 -8.5 242.0 -26.5 243.0 -44.5 244.0 -65.5 244.5 -86.5 245.5 -102.5 246.0 -119.0 246.0 -124.0 L246.0 -160.0 Q245.0 -244.5 213.5 -304.5 181.5 -364.0 129.5 -397.5 101.5 -414.5 74.5 -422.5 47.5 -430.5 25.0 -436.5 L96.5 -635.0 Q144.0 -622.0 190.0 -599.5 236.0 -577.0 272.5 -544.0 298.0 -519.5 321.5 -482.5 344.5 -446.0 361.5 -395.5 L369.0 -395.5 Q384.5 -439.0 410.5 -476.0 437.0 -513.0 470.0 -543.0 504.0 -573.0 548.0 -597.5 592.5 -622.0 647.0 -637.0 L705.5 -437.5 Q674.0 -431.5 636.0 -417.5 598.0 -403.5 564.0 -379.0 522.0 -347.0 495.0 -292.0 468.0 -236.5 467.0 -162.0 L467.0 -107.5 Q467.0 -100.0 467.5 -78.0 468.0 -56.0 469.0 -33.0 470.0 -10.0 471.0 0.0" fill-rule="evenodd" stroke="none"/>
    </g>
    <g id="font_Lithos_Pro_Regular_G0">
      <path d="M683.0 -233.0 L683.0 -233.0 683.0 -158.5 Q683.0 -138.0 683.5 -106.5 684.0 -75.5 684.5 -47.0 685.0 -19.0 685.0 -7.0 671.5 -3.0 638.0 2.5 605.0 8.0 558.0 12.5 511.5 16.5 459.0 16.5 310.5 13.5 217.0 -28.5 123.5 -70.0 79.5 -138.0 35.5 -206.0 36.0 -287.5 35.0 -335.5 59.5 -399.0 84.0 -462.5 142.5 -529.0 201.5 -595.5 304.5 -652.5 407.5 -710.0 564.5 -745.5 L611.5 -544.5 Q558.5 -537.5 501.0 -518.0 443.5 -498.5 392.5 -467.5 342.0 -436.0 310.0 -394.0 278.5 -351.5 277.5 -299.0 278.0 -261.0 295.5 -234.0 313.0 -207.0 341.0 -190.5 369.0 -173.5 401.0 -166.0 433.5 -158.5 463.0 -159.5 L464.0 -241.5 Q464.0 -263.5 463.0 -285.0 462.0 -306.0 462.0 -327.5 L684.0 -327.5 Q683.5 -298.5 683.0 -277.0 683.0 -255.5 683.0 -233.0" fill-rule="evenodd" stroke="none"/>
    </g>
    <g id="font_Lithos_Pro_Regular_m0">
      <path d="M195.5 26.5 L9.0 -37.0 Q13.5 -46.5 30.0 -86.0 46.5 -125.0 70.5 -183.5 94.5 -242.0 122.5 -308.5 150.0 -375.5 177.5 -440.0 205.0 -504.5 227.5 -556.5 250.0 -608.5 264.0 -637.0 L278.5 -637.0 Q300.5 -603.5 333.0 -554.0 365.5 -505.0 400.0 -452.5 434.0 -400.5 461.5 -359.0 489.0 -317.0 500.5 -299.0 514.5 -319.5 542.5 -361.5 570.0 -403.0 603.0 -453.0 635.5 -503.0 666.0 -549.0 696.0 -595.0 715.5 -624.0 L730.0 -624.0 Q750.0 -584.0 781.0 -519.0 812.0 -454.5 847.0 -380.0 882.5 -305.5 915.0 -236.0 948.0 -166.5 971.5 -116.5 995.5 -66.5 1003.5 -51.0 L811.0 26.5 Q801.5 5.0 787.5 -30.0 773.0 -64.5 756.5 -105.0 740.0 -145.0 725.0 -182.5 710.0 -219.5 700.0 -246.5 689.5 -273.0 687.0 -280.5 682.0 -273.5 661.0 -244.0 640.0 -214.5 610.0 -173.0 580.0 -131.0 548.0 -87.5 516.0 -44.0 489.5 -9.5 L475.0 -9.5 Q447.5 -47.5 418.5 -90.0 389.0 -132.0 362.5 -171.0 336.0 -210.0 317.0 -238.0 298.5 -266.5 292.5 -276.5 288.5 -262.5 279.0 -231.5 270.0 -201.0 258.0 -162.0 245.5 -123.5 233.5 -85.0 221.0 -46.5 211.0 -16.5 201.0 13.5 195.5 26.5" fill-rule="evenodd" stroke="none"/>
    </g>
    <g id="font_Lithos_Pro_Regular_s0">
      <path d="M79.5 17.5 L56.0 -138.5 Q107.5 -137.0 154.0 -142.5 201.0 -148.0 231.0 -161.0 261.0 -173.5 262.0 -194.5 263.5 -208.5 243.0 -222.0 223.0 -236.0 167.0 -260.0 136.0 -273.5 105.0 -293.0 73.5 -312.5 52.0 -341.5 30.5 -370.0 29.5 -411.0 30.0 -465.5 77.5 -514.5 125.5 -563.0 214.0 -596.5 303.0 -629.5 427.0 -637.0 L451.5 -479.5 Q356.0 -480.0 308.0 -471.0 260.0 -461.5 260.0 -434.5 260.0 -418.0 284.5 -405.5 308.5 -393.0 354.0 -376.0 380.5 -366.5 413.0 -349.5 445.0 -332.5 469.5 -304.0 493.5 -276.0 494.5 -232.5 495.0 -178.0 452.0 -125.5 409.0 -72.5 317.5 -33.5 225.5 5.0 79.5 17.5" fill-rule="evenodd" stroke="none"/>
    </g>
  </defs>
</svg>
