<?xml version="1.0" encoding="UTF-8" standalone="no"?>
<svg xmlns:ffdec="https://www.free-decompiler.com/flash" xmlns:xlink="http://www.w3.org/1999/xlink" ffdec:objectType="text" height="24.6px" width="84.9px" xmlns="http://www.w3.org/2000/svg">
  <g transform="matrix(1.0, 0.0, 0.0, 1.0, 39.35, 2.0)">
    <g transform="matrix(1.0, 0.0, 0.0, 1.0, -39.35, -2.0)">
      <use fill="#f7cf73" height="24.6" transform="matrix(0.0156, 0.0, 0.0, 0.0156, 2.3, 17.45)" width="84.9" xlink:href="#font_Lithos_Pro_Regular_O0"/>
      <use fill="#f7cf73" height="24.6" transform="matrix(0.0156, 0.0, 0.0, 0.0156, 16.5, 17.45)" width="84.9" xlink:href="#font_Lithos_Pro_Regular_P0"/>
      <use fill="#f7cf73" height="24.6" transform="matrix(0.0156, 0.0, 0.0, 0.0156, 27.95, 17.45)" width="84.9" xlink:href="#font_Lithos_Pro_Regular_T0"/>
      <use fill="#f7cf73" height="24.6" transform="matrix(0.0156, 0.0, 0.0, 0.0156, 38.5, 17.45)" width="84.9" xlink:href="#font_Lithos_Pro_Regular_I0"/>
      <use fill="#f7cf73" height="24.6" transform="matrix(0.0156, 0.0, 0.0, 0.0156, 45.3, 17.45)" width="84.9" xlink:href="#font_Lithos_Pro_Regular_O0"/>
      <use fill="#f7cf73" height="24.6" transform="matrix(0.0156, 0.0, 0.0, 0.0156, 59.5, 17.45)" width="84.9" xlink:href="#font_Lithos_Pro_Regular_N0"/>
      <use fill="#f7cf73" height="24.6" transform="matrix(0.0156, 0.0, 0.0, 0.0156, 73.8, 17.45)" width="84.9" xlink:href="#font_Lithos_Pro_Regular_S0"/>
    </g>
  </g>
  <defs>
    <g id="font_Lithos_Pro_Regular_O0">
      <path d="M447.5 -142.0 L447.5 -142.0 Q531.5 -142.5 580.5 -201.5 629.5 -261.0 631.5 -376.0 631.5 -475.5 589.5 -530.0 547.5 -584.5 473.0 -585.0 414.5 -584.0 374.0 -551.5 333.5 -519.0 312.0 -466.0 291.0 -412.5 291.0 -349.0 291.5 -280.5 313.0 -234.5 334.0 -188.5 369.5 -165.0 405.0 -142.0 447.5 -142.0 M436.0 16.5 L436.0 16.5 Q334.0 15.5 259.0 -15.0 184.5 -46.0 136.0 -97.0 88.0 -148.0 64.5 -210.0 41.0 -271.5 41.0 -334.0 41.0 -409.0 68.0 -481.5 95.5 -553.5 150.5 -613.0 205.5 -672.0 289.5 -707.5 373.0 -742.5 486.5 -743.5 608.5 -743.0 697.5 -700.0 786.0 -657.0 834.0 -576.5 882.0 -496.0 882.5 -383.0 882.5 -336.0 869.0 -282.0 855.0 -228.0 824.0 -175.0 793.0 -122.5 741.5 -79.0 689.5 -35.5 614.0 -10.0 539.0 16.0 436.0 16.5" fill-rule="evenodd" stroke="none"/>
    </g>
    <g id="font_Lithos_Pro_Regular_P0">
      <path d="M333.5 -582.5 L333.5 -582.5 333.5 -325.0 Q364.0 -329.5 396.0 -348.0 428.0 -366.0 450.0 -397.0 472.0 -427.5 473.0 -470.0 473.5 -499.0 461.0 -523.0 449.0 -547.0 418.5 -562.5 388.0 -578.0 333.5 -582.5 M335.5 0.0 L335.5 0.0 107.5 0.0 Q108.0 -14.0 108.0 -47.5 108.5 -81.5 109.0 -126.0 109.5 -170.5 109.5 -216.5 110.0 -262.5 110.5 -301.5 110.5 -340.5 110.5 -363.0 L110.5 -475.5 Q110.5 -483.0 110.0 -509.0 110.0 -534.5 109.5 -569.0 109.0 -604.0 108.5 -638.0 108.0 -672.0 108.0 -696.0 107.5 -720.5 107.5 -726.0 253.0 -726.5 351.5 -721.0 450.0 -715.5 513.0 -700.5 565.0 -687.5 608.5 -662.5 652.0 -637.0 678.5 -596.5 704.5 -556.5 705.5 -499.0 705.5 -431.5 664.0 -366.5 623.0 -301.5 540.0 -252.0 457.5 -202.5 333.5 -181.0 L333.5 -153.5 Q333.5 -145.0 333.5 -124.0 333.5 -102.5 333.5 -77.0 334.0 -51.5 334.5 -30.0 335.0 -9.0 335.5 0.0" fill-rule="evenodd" stroke="none"/>
    </g>
    <g id="font_Lithos_Pro_Regular_T0">
      <path d="M456.5 0.0 L456.5 0.0 220.0 0.0 Q220.5 -10.5 221.5 -40.0 222.0 -69.5 222.5 -110.0 222.5 -151.0 223.0 -196.5 223.0 -241.5 223.0 -284.0 L223.0 -553.0 Q204.0 -553.0 171.5 -552.0 139.0 -551.5 103.5 -550.5 67.5 -549.0 38.5 -548.5 9.5 -547.5 -3.5 -547.0 L-3.5 -726.0 Q11.5 -724.5 44.5 -723.5 77.5 -722.5 119.0 -721.5 160.5 -720.5 199.5 -719.5 239.0 -718.5 265.5 -718.0 292.5 -718.0 297.0 -718.0 L386.0 -718.0 Q392.5 -718.0 419.0 -718.0 445.5 -718.5 483.0 -719.5 520.5 -720.5 559.5 -721.5 599.0 -722.5 631.0 -723.5 663.0 -724.5 678.5 -726.0 L678.5 -547.0 Q672.0 -547.0 649.5 -548.0 626.5 -548.5 595.5 -549.5 565.0 -550.5 534.0 -551.0 503.5 -552.0 481.5 -552.5 459.0 -553.0 453.5 -553.0 L453.5 -268.0 Q453.5 -227.5 453.5 -184.5 454.0 -141.0 454.0 -102.0 454.5 -63.0 455.0 -35.5 456.0 -8.5 456.5 0.0" fill-rule="evenodd" stroke="none"/>
    </g>
    <g id="font_Lithos_Pro_Regular_I0">
      <path d="M341.0 -419.0 L341.0 -419.0 341.0 -309.0 Q341.0 -269.5 341.5 -220.5 342.0 -172.0 342.5 -125.0 343.5 -78.0 344.0 -44.0 344.5 -10.0 345.0 0.0 L107.5 0.0 Q108.0 -14.5 108.5 -47.0 109.0 -80.0 109.5 -121.0 110.0 -162.5 110.0 -203.0 110.5 -243.0 110.5 -272.5 110.5 -302.0 110.5 -311.0 L110.5 -421.5 Q110.5 -427.5 110.0 -457.5 110.0 -487.0 109.5 -529.0 109.0 -571.0 108.5 -613.0 108.0 -655.5 108.0 -686.5 107.5 -717.5 107.5 -726.0 L345.0 -726.0 Q344.5 -718.5 344.0 -687.5 343.5 -656.5 342.5 -611.5 342.0 -566.5 341.5 -516.5 341.0 -466.0 341.0 -419.0" fill-rule="evenodd" stroke="none"/>
    </g>
    <g id="font_Lithos_Pro_Regular_N0">
      <path d="M284.5 7.5 L284.5 7.5 75.5 0.0 Q77.0 -19.0 80.0 -70.0 83.0 -121.0 86.5 -192.0 90.5 -263.5 94.5 -343.0 98.5 -422.5 103.0 -499.0 107.0 -575.0 110.5 -637.0 114.5 -698.5 117.0 -733.5 L127.0 -739.5 Q171.5 -707.0 232.5 -661.5 293.5 -616.0 359.0 -566.5 425.0 -517.5 484.0 -472.5 543.0 -428.0 584.0 -397.0 625.5 -366.0 637.0 -357.5 637.0 -375.0 637.0 -413.5 636.5 -452.0 636.0 -501.0 635.5 -549.5 635.5 -597.5 635.0 -645.0 635.0 -681.5 634.5 -718.0 635.0 -732.0 L844.0 -726.0 Q841.0 -685.5 837.0 -625.0 833.0 -564.5 828.5 -492.5 824.0 -420.0 819.0 -345.0 815.0 -270.0 811.0 -200.5 807.5 -131.0 805.0 -74.5 802.0 -18.5 800.5 15.5 L790.5 20.5 Q752.5 -4.5 692.0 -49.0 631.5 -93.5 563.0 -146.0 494.5 -198.5 432.5 -246.5 370.5 -295.0 329.5 -327.5 288.0 -360.0 282.5 -364.5 282.5 -351.0 282.5 -313.0 282.5 -275.0 283.0 -225.0 283.0 -175.5 283.5 -126.0 283.5 -76.5 284.0 -40.0 284.0 -3.5 284.5 7.5" fill-rule="evenodd" stroke="none"/>
    </g>
    <g id="font_Lithos_Pro_Regular_S0">
      <path d="M95.5 18.5 L95.5 18.5 67.5 -156.5 Q118.5 -155.0 165.5 -163.5 213.0 -171.5 244.0 -188.5 274.5 -205.0 275.5 -229.5 276.0 -239.0 268.0 -248.5 260.0 -258.0 238.0 -272.0 216.0 -286.0 175.0 -309.0 142.0 -327.5 110.0 -351.5 78.5 -376.0 57.5 -408.0 36.5 -440.5 35.5 -483.5 36.0 -541.5 84.5 -597.5 133.5 -653.0 225.5 -693.0 317.5 -733.0 447.5 -745.5 L475.0 -574.5 Q379.0 -574.5 330.5 -558.5 282.5 -542.5 282.5 -511.0 282.5 -493.5 307.0 -477.5 332.0 -462.0 382.0 -438.5 410.5 -425.0 443.0 -404.0 476.0 -383.0 499.5 -351.0 523.5 -319.0 524.5 -273.5 524.5 -230.5 501.0 -185.5 477.5 -140.0 426.5 -98.5 375.5 -57.5 294.0 -26.5 212.0 4.5 95.5 18.5" fill-rule="evenodd" stroke="none"/>
    </g>
  </defs>
</svg>
