<?xml version="1.0" encoding="UTF-8" standalone="no"?>
<svg xmlns:ffdec="https://www.free-decompiler.com/flash" xmlns:xlink="http://www.w3.org/1999/xlink" ffdec:objectType="text" height="24.7px" width="90.0px" xmlns="http://www.w3.org/2000/svg">
  <g transform="matrix(1.0, 0.0, 0.0, 1.0, 56.55, 2.0)">
    <g transform="matrix(1.0, 0.0, 0.0, 1.0, -56.55, -2.0)">
      <use fill="#dab561" height="24.7" transform="matrix(0.0156, 0.0, 0.0, 0.0156, 0.0, 17.45)" width="90.0" xlink:href="#font_Lithos_Pro_Regular_S0"/>
      <use fill="#dab561" height="24.7" transform="matrix(0.0156, 0.0, 0.0, 0.0156, 8.75, 17.45)" width="90.0" xlink:href="#font_Lithos_Pro_Regular_t0"/>
      <use fill="#dab561" height="24.7" transform="matrix(0.0156, 0.0, 0.0, 0.0156, 16.1, 17.45)" width="90.0" xlink:href="#font_Lithos_Pro_Regular_a0"/>
      <use fill="#dab561" height="24.7" transform="matrix(0.0156, 0.0, 0.0, 0.0156, 28.4, 17.45)" width="90.0" xlink:href="#font_Lithos_Pro_Regular_g0"/>
      <use fill="#dab561" height="24.7" transform="matrix(0.0156, 0.0, 0.0, 0.0156, 39.3, 17.45)" width="90.0" xlink:href="#font_Lithos_Pro_Regular_e0"/>
    </g>
    <g transform="matrix(1.0, 0.0, 0.0, 1.0, -56.55, -2.0)">
      <use fill="#dab561" height="24.7" transform="matrix(0.0156, 0.0, 0.0, 0.0156, 52.4, 17.45)" width="90.0" xlink:href="#font_Lithos_Pro_Regular_80"/>
    </g>
  </g>
  <defs>
    <g id="font_Lithos_Pro_Regular_S0">
      <path d="M95.5 18.5 L95.5 18.5 67.5 -156.5 Q118.5 -155.0 165.5 -163.5 213.0 -171.5 244.0 -188.5 274.5 -205.0 275.5 -229.5 276.0 -239.0 268.0 -248.5 260.0 -258.0 238.0 -272.0 216.0 -286.0 175.0 -309.0 142.0 -327.5 110.0 -351.5 78.5 -376.0 57.5 -408.0 36.5 -440.5 35.5 -483.5 36.0 -541.5 84.5 -597.5 133.5 -653.0 225.5 -693.0 317.5 -733.0 447.5 -745.5 L475.0 -574.5 Q379.0 -574.5 330.5 -558.5 282.5 -542.5 282.5 -511.0 282.5 -493.5 307.0 -477.5 332.0 -462.0 382.0 -438.5 410.5 -425.0 443.0 -404.0 476.0 -383.0 499.5 -351.0 523.5 -319.0 524.5 -273.5 524.5 -230.5 501.0 -185.5 477.5 -140.0 426.5 -98.5 375.5 -57.5 294.0 -26.5 212.0 4.5 95.5 18.5" fill-rule="evenodd" stroke="none"/>
    </g>
    <g id="font_Lithos_Pro_Regular_t0">
      <path d="M421.5 0.0 L194.5 0.0 Q195.0 -12.5 195.5 -51.5 196.0 -90.5 196.0 -141.5 196.5 -192.5 196.5 -241.0 L196.5 -461.0 Q181.5 -461.0 153.5 -460.5 125.0 -459.5 93.0 -459.0 61.5 -458.0 35.0 -457.0 8.5 -456.5 -3.0 -456.0 L-3.0 -616.5 Q10.0 -615.0 40.5 -614.0 70.5 -613.0 108.5 -612.0 146.0 -611.5 181.5 -610.5 217.5 -610.0 242.0 -609.5 266.5 -609.5 270.0 -609.5 L351.0 -609.5 Q357.0 -609.5 381.0 -609.5 405.0 -610.0 439.0 -610.5 473.5 -611.5 509.0 -612.0 544.5 -613.0 574.0 -614.0 603.0 -615.0 617.0 -616.5 L617.0 -456.0 Q609.5 -456.5 580.0 -457.0 550.5 -458.0 514.5 -459.0 478.5 -459.5 451.0 -460.5 423.0 -461.0 418.5 -461.0 L418.5 -227.5 Q418.5 -181.0 419.0 -132.5 419.0 -83.5 420.0 -46.5 420.5 -10.0 421.5 0.0" fill-rule="evenodd" stroke="none"/>
    </g>
    <g id="font_Lithos_Pro_Regular_a0">
      <path d="M301.0 -222.5 L454.5 -229.5 Q434.5 -268.0 413.0 -306.5 391.5 -345.0 378.0 -373.0 361.0 -340.5 340.0 -300.0 319.5 -259.5 301.0 -222.5 M184.5 29.5 L0.0 -65.0 Q7.5 -76.5 30.5 -114.0 54.0 -152.0 88.0 -206.5 121.5 -261.5 161.0 -324.0 200.0 -387.0 239.5 -449.0 279.0 -511.5 313.5 -564.0 347.5 -616.5 371.5 -650.5 L391.0 -650.5 Q426.0 -602.0 472.5 -535.0 518.5 -467.5 568.5 -394.0 618.5 -321.0 664.0 -254.0 709.5 -187.0 742.0 -139.0 775.0 -91.0 787.5 -75.0 L599.0 28.5 Q584.5 6.5 567.0 -22.0 549.5 -50.5 535.5 -73.5 521.5 -96.5 517.0 -102.5 L243.5 -89.5 Q241.0 -84.5 230.5 -64.0 220.5 -43.5 207.5 -18.0 195.0 8.0 184.5 29.5" fill-rule="evenodd" stroke="none"/>
    </g>
    <g id="font_Lithos_Pro_Regular_g0">
      <path d="M632.0 -198.5 L632.0 -135.0 Q632.0 -117.0 632.5 -90.5 633.0 -64.0 633.5 -40.0 634.0 -16.0 634.0 -6.0 619.5 -2.5 588.5 2.0 557.0 7.0 514.5 10.5 472.0 14.5 424.0 14.5 286.5 13.5 200.0 -22.0 113.5 -58.0 73.0 -116.5 32.5 -175.0 33.0 -244.5 32.5 -285.5 55.5 -340.5 78.0 -395.5 133.5 -452.5 188.5 -510.0 284.5 -558.5 380.5 -606.5 525.5 -634.0 L568.5 -453.5 Q518.0 -448.0 465.5 -432.5 413.5 -417.5 368.5 -393.0 323.5 -368.0 296.0 -333.5 268.5 -298.5 267.5 -253.5 268.5 -211.0 293.5 -185.5 318.0 -160.0 354.0 -149.5 389.5 -138.5 424.0 -140.0 L424.0 -205.5 Q424.0 -223.5 423.0 -243.0 422.0 -262.0 422.0 -285.5 L633.0 -285.5 Q632.0 -255.5 632.0 -236.0 632.0 -217.0 632.0 -198.5" fill-rule="evenodd" stroke="none"/>
    </g>
    <g id="font_Lithos_Pro_Regular_e0">
      <path d="M519.5 -147.0 L522.5 9.5 Q510.0 9.5 468.5 8.5 427.5 7.5 371.0 6.0 315.0 5.0 257.5 3.5 200.5 2.0 156.0 1.0 112.0 0.0 94.5 0.0 95.0 -18.5 95.5 -56.0 96.0 -93.5 96.5 -136.0 96.5 -178.5 96.5 -211.0 96.5 -244.0 96.5 -253.0 L96.5 -368.5 Q96.5 -373.5 96.5 -397.5 96.0 -421.5 96.0 -455.0 95.5 -489.0 95.0 -523.5 95.0 -558.0 94.5 -584.0 94.5 -610.0 94.5 -618.5 113.0 -618.5 155.5 -620.0 198.5 -621.0 252.5 -623.0 307.0 -625.0 360.0 -627.0 413.0 -629.5 452.0 -631.0 491.5 -633.0 504.0 -634.0 L508.0 -484.5 Q494.0 -484.5 465.0 -483.5 435.5 -483.0 402.5 -482.0 369.0 -481.0 343.5 -480.0 317.5 -479.5 310.5 -479.5 L310.5 -373.5 Q318.0 -373.5 338.5 -374.0 359.0 -375.0 385.5 -376.0 412.0 -377.0 436.5 -378.5 461.5 -380.0 477.5 -381.5 L479.5 -236.5 Q469.5 -236.5 445.5 -237.0 421.5 -237.5 393.5 -238.0 365.0 -238.5 342.0 -239.0 319.0 -239.5 310.5 -239.5 L310.5 -145.0 Q320.0 -145.0 347.0 -144.5 373.5 -144.5 407.0 -144.5 441.0 -144.5 471.5 -145.0 502.0 -145.5 519.5 -147.0" fill-rule="evenodd" stroke="none"/>
    </g>
    <g id="font_Lithos_Pro_Regular_80">
      <path d="M415.5 -99.0 L415.5 -99.0 Q437.5 -98.5 459.0 -108.5 481.0 -118.5 495.5 -142.5 510.5 -166.5 511.0 -208.0 510.5 -245.0 497.0 -269.0 483.0 -292.5 462.5 -303.5 442.5 -314.5 422.0 -314.5 374.5 -313.5 349.0 -283.0 324.0 -252.0 323.5 -202.5 324.0 -167.0 338.0 -144.0 352.0 -121.0 373.0 -110.0 394.0 -99.0 415.5 -99.0 M410.5 16.5 L410.5 16.5 Q296.5 16.0 229.5 -11.0 162.5 -37.5 133.5 -82.0 105.0 -126.5 105.5 -181.0 106.5 -242.0 141.0 -293.5 175.5 -344.5 233.5 -374.0 177.0 -399.5 145.5 -444.0 114.0 -488.0 113.5 -540.0 113.0 -589.0 145.0 -635.5 177.0 -682.0 246.5 -712.5 316.5 -743.0 429.0 -743.5 577.0 -742.5 649.0 -693.5 721.5 -644.5 721.0 -561.5 721.0 -531.0 708.5 -498.0 695.5 -465.0 668.0 -435.0 640.5 -404.5 596.0 -383.0 662.0 -357.5 696.5 -310.5 731.0 -263.0 731.0 -199.5 731.5 -164.5 715.5 -127.0 699.5 -89.5 662.5 -57.0 626.0 -24.5 564.0 -4.5 502.0 16.0 410.5 16.5 M423.0 -628.0 L423.0 -628.0 Q381.5 -628.0 356.5 -603.0 331.0 -578.0 330.5 -529.5 331.0 -501.0 343.0 -479.5 355.0 -458.5 374.0 -447.0 393.0 -435.5 414.5 -435.5 435.0 -435.5 455.5 -445.5 475.5 -455.5 489.0 -477.5 502.5 -499.5 503.0 -536.0 502.5 -574.0 490.0 -594.0 477.0 -614.0 459.0 -621.0 440.5 -628.5 423.0 -628.0" fill-rule="evenodd" stroke="none"/>
    </g>
  </defs>
</svg>
