<?xml version="1.0" encoding="UTF-8" standalone="no"?>
<svg xmlns:ffdec="https://www.free-decompiler.com/flash" xmlns:xlink="http://www.w3.org/1999/xlink" ffdec:objectType="text" height="10.7px" width="43.0px" xmlns="http://www.w3.org/2000/svg">
  <g transform="matrix(1.0, 0.0, 0.0, 1.0, 54.55, -0.3)">
    <g transform="matrix(1.0, 0.0, 0.0, 1.0, -54.55, 0.0)">
      <use fill="#f7cf73" height="10.7" transform="matrix(0.0098, 0.0, 0.0, 0.0098, 0.0, 10.0)" width="43.0" xlink:href="#font_Lithos_Pro_Regular_v0"/>
      <use fill="#f7cf73" height="10.7" transform="matrix(0.0098, 0.0, 0.0, 0.0098, 7.35, 10.0)" width="43.0" xlink:href="#font_Lithos_Pro_Regular_10"/>
      <use fill="#f7cf73" height="10.7" transform="matrix(0.0098, 0.0, 0.0, 0.0098, 15.5, 10.0)" width="43.0" xlink:href="#font_Lithos_Pro_Regular_.0"/>
      <use fill="#f7cf73" height="10.7" transform="matrix(0.0098, 0.0, 0.0, 0.0098, 18.6, 10.0)" width="43.0" xlink:href="#font_Lithos_Pro_Regular_40"/>
      <use fill="#f7cf73" height="10.7" transform="matrix(0.0098, 0.0, 0.0, 0.0098, 26.75, 10.0)" width="43.0" xlink:href="#font_Lithos_Pro_Regular_.0"/>
      <use fill="#f7cf73" height="10.7" transform="matrix(0.0098, 0.0, 0.0, 0.0098, 29.85, 10.0)" width="43.0" xlink:href="#font_Lithos_Pro_Regular_40"/>
    </g>
  </g>
  <defs>
    <g id="font_Lithos_Pro_Regular_v0">
      <path d="M564.0 -638.0 L766.0 -541.5 Q757.0 -529.0 730.5 -489.0 704.0 -449.5 666.5 -392.5 629.0 -336.0 587.0 -272.0 544.5 -208.0 504.0 -147.0 463.5 -86.0 430.5 -37.5 398.0 11.0 380.0 37.0 L360.5 37.0 Q330.5 -6.0 288.5 -71.5 246.5 -137.0 200.0 -211.0 154.0 -285.0 112.0 -353.5 70.0 -422.0 40.0 -471.0 10.5 -519.5 1.0 -534.5 L206.0 -638.0 Q212.0 -625.5 229.0 -591.5 246.0 -557.0 268.5 -511.5 291.0 -466.0 314.0 -419.0 337.0 -372.5 355.5 -334.5 374.0 -297.0 383.0 -278.5 392.0 -297.5 411.0 -336.0 430.5 -375.0 455.0 -423.0 479.0 -470.5 502.5 -516.5 526.0 -562.5 543.0 -595.5 560.0 -629.0 564.0 -638.0" fill-rule="evenodd" stroke="none"/>
    </g>
    <g id="font_Lithos_Pro_Regular_10">
      <path d="M573.5 0.0 L573.5 0.0 340.0 0.0 Q340.5 -14.0 341.5 -57.5 342.5 -100.5 343.0 -162.0 344.0 -223.5 344.0 -293.0 L344.0 -502.0 Q321.0 -493.0 289.0 -478.0 257.5 -463.5 230.5 -450.5 L178.0 -582.5 Q190.0 -588.5 228.5 -605.5 266.5 -623.0 321.0 -647.5 375.5 -672.5 437.0 -700.0 498.0 -728.0 556.0 -755.0 L576.5 -742.5 Q576.0 -717.0 575.0 -669.5 573.5 -622.0 572.5 -560.0 571.5 -498.0 571.5 -428.0 L571.5 -271.5 Q571.5 -160.5 571.5 -92.5 572.0 -24.0 573.5 0.0" fill-rule="evenodd" stroke="none"/>
    </g>
    <g id="font_Lithos_Pro_Regular_.0">
      <path d="M73.5 0.0 L73.5 0.0 73.5 -158.5 243.5 -158.5 243.5 0.0 73.5 0.0" fill-rule="evenodd" stroke="none"/>
    </g>
    <g id="font_Lithos_Pro_Regular_40">
      <path d="M422.0 -258.0 L422.0 -258.0 422.0 -447.5 420.0 -447.5 Q413.0 -435.0 394.0 -409.0 375.0 -383.5 352.0 -353.5 329.0 -323.5 309.0 -297.5 289.0 -271.5 279.5 -258.0 L422.0 -258.0 M736.0 -264.0 L736.0 -264.0 729.0 -112.5 620.5 -116.5 620.5 -87.0 Q620.5 -71.5 621.0 -47.5 621.5 -23.0 622.5 0.0 L410.5 0.0 Q411.5 -21.5 413.5 -46.5 415.5 -71.0 415.5 -97.0 L415.5 -115.5 93.0 -115.5 59.0 -206.5 498.5 -754.5 621.5 -728.0 621.5 -260.0 736.0 -264.0" fill-rule="evenodd" stroke="none"/>
    </g>
  </defs>
</svg>
