<?xml version="1.0" encoding="UTF-8" standalone="no"?>
<svg xmlns:ffdec="https://www.free-decompiler.com/flash" xmlns:xlink="http://www.w3.org/1999/xlink" ffdec:objectType="text" height="16.1px" width="24.5px" xmlns="http://www.w3.org/2000/svg">
  <g transform="matrix(1.0, 0.0, 0.0, 1.0, -0.85, -6.05)">
    <g transform="matrix(1.0, 0.0, 0.0, 1.0, 0.0, 0.0)">
      <use fill="#000000" height="16.1" transform="matrix(0.0186, 0.0, 0.0, 0.0186, 0.0, 21.0)" width="24.5" xlink:href="#font_Arial_Black_O0"/>
    </g>
  </g>
  <defs>
    <g id="font_Arial_Black_O0">
      <path d="M273.0 -365.0 L273.0 -365.0 Q273.0 -477.0 314.5 -525.5 356.0 -574.0 424.5 -574.0 496.0 -574.0 538.0 -526.0 579.5 -478.5 579.5 -375.0 579.5 -252.0 539.5 -204.5 499.5 -157.0 426.5 -157.0 355.5 -157.0 314.5 -205.5 273.0 -254.0 273.0 -365.0 M46.5 -366.0 L46.5 -366.0 Q46.5 -237.5 97.0 -152.0 147.5 -66.5 229.0 -27.0 310.0 12.5 434.0 12.5 556.0 12.5 638.0 -33.0 719.5 -79.0 763.0 -161.0 806.0 -243.5 806.0 -372.0 806.0 -549.0 707.0 -647.0 608.0 -745.5 425.0 -745.5 246.5 -745.5 146.5 -645.5 46.5 -545.5 46.5 -366.0" fill-rule="evenodd" stroke="none"/>
    </g>
  </defs>
</svg>
