<?xml version="1.0" encoding="UTF-8" standalone="no"?>
<svg xmlns:ffdec="https://www.free-decompiler.com/flash" xmlns:xlink="http://www.w3.org/1999/xlink" ffdec:objectType="text" height="10.75px" width="55.7px" xmlns="http://www.w3.org/2000/svg">
  <g transform="matrix(1.0, 0.0, 0.0, 1.0, 39.25, -0.2)">
    <g transform="matrix(1.0, 0.0, 0.0, 1.0, -39.35, 0.0)">
      <use fill="#dbb663" height="10.75" transform="matrix(0.0098, 0.0, 0.0, 0.0098, 0.0, 10.0)" width="55.7" xlink:href="#font_Lithos_Pro_Regular_A0"/>
      <use fill="#dbb663" height="10.75" transform="matrix(0.0098, 0.0, 0.0, 0.0098, 8.45, 10.0)" width="55.7" xlink:href="#font_Lithos_Pro_Regular_r0"/>
      <use fill="#dbb663" height="10.75" transform="matrix(0.0098, 0.0, 0.0, 0.0098, 15.5, 10.0)" width="55.7" xlink:href="#font_Lithos_Pro_Regular_t0"/>
      <use fill="#dbb663" height="10.75" transform="matrix(0.0098, 0.0, 0.0, 0.0098, 21.5, 10.0)" width="55.7" xlink:href="#font_Lithos_Pro_Regular_i0"/>
      <use fill="#dbb663" height="10.75" transform="matrix(0.0098, 0.0, 0.0, 0.0098, 25.5, 10.0)" width="55.7" xlink:href="#font_Lithos_Pro_Regular_s0"/>
      <use fill="#dbb663" height="10.75" transform="matrix(0.0098, 0.0, 0.0, 0.0098, 30.6, 10.0)" width="55.7" xlink:href="#font_Lithos_Pro_Regular_t0"/>
      <use fill="#dbb663" height="10.75" transform="matrix(0.0098, 0.0, 0.0, 0.0098, 36.6, 10.0)" width="55.7" xlink:href="#font_Lithos_Pro_Regular_r0"/>
      <use fill="#dbb663" height="10.75" transform="matrix(0.0098, 0.0, 0.0, 0.0098, 43.55, 10.0)" width="55.7" xlink:href="#font_Lithos_Pro_Regular_y0"/>
    </g>
  </g>
  <defs>
    <g id="font_Lithos_Pro_Regular_A0">
      <path d="M328.0 -261.5 L328.0 -261.5 501.0 -270.5 Q486.0 -300.0 470.0 -332.0 453.5 -364.0 439.0 -393.0 424.5 -422.0 415.0 -443.5 402.5 -418.5 387.5 -387.5 372.0 -356.0 356.5 -323.0 341.5 -290.5 328.0 -261.5 M194.5 32.5 L194.5 32.5 0.0 -76.0 Q8.5 -90.0 34.5 -134.5 60.5 -178.5 99.0 -243.0 137.0 -307.5 181.0 -381.5 225.5 -455.5 269.0 -528.5 313.0 -601.5 351.0 -663.5 388.5 -725.0 414.0 -765.0 L424.0 -765.0 Q461.5 -708.5 513.0 -629.0 564.5 -550.0 620.0 -463.5 676.0 -377.0 727.0 -298.5 778.0 -219.5 815.0 -163.5 852.0 -107.0 865.5 -88.5 L662.5 31.5 Q647.0 5.5 628.0 -28.0 608.5 -61.5 592.5 -89.5 576.0 -117.5 570.5 -127.0 L262.0 -110.0 Q257.5 -102.0 246.0 -77.0 234.5 -52.5 220.5 -22.5 206.5 7.5 194.5 32.5" fill-rule="evenodd" stroke="none"/>
    </g>
    <g id="font_Lithos_Pro_Regular_r0">
      <path d="M311.5 -492.5 L311.5 -266.0 Q311.5 -255.5 311.5 -227.5 312.0 -199.0 312.5 -162.0 312.5 -125.5 313.0 -90.0 314.0 -54.5 314.5 -29.5 315.0 -5.0 315.5 0.0 L95.5 0.0 Q96.5 -7.0 97.5 -31.5 98.0 -56.0 98.5 -89.5 98.5 -123.0 98.5 -156.5 98.5 -190.0 98.5 -214.0 98.5 -238.5 98.5 -244.5 L98.5 -386.0 Q98.5 -394.5 98.5 -419.0 98.0 -443.0 97.5 -474.5 97.5 -506.0 97.0 -537.0 96.0 -568.0 95.5 -590.0 95.0 -612.5 94.5 -618.5 194.0 -619.0 285.0 -617.5 376.5 -616.5 444.5 -608.0 547.5 -595.0 602.0 -557.0 656.0 -519.0 656.5 -458.5 656.0 -404.5 626.0 -361.5 596.0 -319.0 539.5 -284.5 551.0 -273.0 577.0 -247.5 603.5 -222.5 634.5 -193.0 665.5 -163.0 691.5 -138.5 717.0 -113.5 727.0 -102.5 L545.0 29.5 Q537.5 19.0 516.0 -12.0 494.5 -43.0 466.0 -84.5 437.5 -126.0 409.0 -168.0 380.0 -209.5 358.0 -241.5 336.0 -273.5 328.0 -285.5 352.5 -297.5 375.5 -316.0 399.0 -334.0 414.0 -359.5 429.5 -384.5 430.0 -417.0 431.5 -448.5 405.5 -469.5 379.5 -491.0 311.5 -492.5" fill-rule="evenodd" stroke="none"/>
    </g>
    <g id="font_Lithos_Pro_Regular_t0">
      <path d="M421.5 0.0 L194.5 0.0 Q195.0 -12.5 195.5 -51.5 196.0 -90.5 196.0 -141.5 196.5 -192.5 196.5 -241.0 L196.5 -461.0 Q181.5 -461.0 153.5 -460.5 125.0 -459.5 93.0 -459.0 61.5 -458.0 35.0 -457.0 8.5 -456.5 -3.0 -456.0 L-3.0 -616.5 Q10.0 -615.0 40.5 -614.0 70.5 -613.0 108.5 -612.0 146.0 -611.5 181.5 -610.5 217.5 -610.0 242.0 -609.5 266.5 -609.5 270.0 -609.5 L351.0 -609.5 Q357.0 -609.5 381.0 -609.5 405.0 -610.0 439.0 -610.5 473.5 -611.5 509.0 -612.0 544.5 -613.0 574.0 -614.0 603.0 -615.0 617.0 -616.5 L617.0 -456.0 Q609.5 -456.5 580.0 -457.0 550.5 -458.0 514.5 -459.0 478.5 -459.5 451.0 -460.5 423.0 -461.0 418.5 -461.0 L418.5 -227.5 Q418.5 -181.0 419.0 -132.5 419.0 -83.5 420.0 -46.5 420.5 -10.0 421.5 0.0" fill-rule="evenodd" stroke="none"/>
    </g>
    <g id="font_Lithos_Pro_Regular_i0">
      <path d="M315.5 -357.5 L315.5 -263.0 Q315.5 -229.5 316.0 -188.0 316.5 -146.5 317.0 -106.5 318.0 -66.5 318.5 -37.5 319.0 -8.5 319.5 0.0 L92.5 0.0 Q93.0 -12.0 93.0 -40.0 93.5 -67.5 93.5 -103.0 94.0 -138.0 94.0 -172.5 94.5 -206.5 94.5 -231.5 94.5 -256.5 94.5 -264.0 L94.5 -358.5 Q94.5 -364.0 94.5 -389.5 94.0 -414.5 94.0 -450.5 93.5 -486.0 93.0 -522.0 93.0 -558.0 92.5 -584.5 92.5 -611.0 92.5 -618.5 L319.5 -618.5 Q319.0 -611.5 318.5 -585.5 318.0 -559.0 317.0 -521.0 316.5 -482.5 316.0 -440.0 315.5 -397.0 315.5 -357.5" fill-rule="evenodd" stroke="none"/>
    </g>
    <g id="font_Lithos_Pro_Regular_s0">
      <path d="M79.5 17.5 L56.0 -138.5 Q107.5 -137.0 154.0 -142.5 201.0 -148.0 231.0 -161.0 261.0 -173.5 262.0 -194.5 263.5 -208.5 243.0 -222.0 223.0 -236.0 167.0 -260.0 136.0 -273.5 105.0 -293.0 73.5 -312.5 52.0 -341.5 30.5 -370.0 29.5 -411.0 30.0 -465.5 77.5 -514.5 125.5 -563.0 214.0 -596.5 303.0 -629.5 427.0 -637.0 L451.5 -479.5 Q356.0 -480.0 308.0 -471.0 260.0 -461.5 260.0 -434.5 260.0 -418.0 284.5 -405.5 308.5 -393.0 354.0 -376.0 380.5 -366.5 413.0 -349.5 445.0 -332.5 469.5 -304.0 493.5 -276.0 494.5 -232.5 495.0 -178.0 452.0 -125.5 409.0 -72.5 317.5 -33.5 225.5 5.0 79.5 17.5" fill-rule="evenodd" stroke="none"/>
    </g>
    <g id="font_Lithos_Pro_Regular_y0">
      <path d="M471.0 0.0 L241.0 0.0 Q241.5 -8.5 242.0 -26.5 243.0 -44.5 244.0 -65.5 244.5 -86.5 245.5 -102.5 246.0 -119.0 246.0 -124.0 L246.0 -160.0 Q245.0 -244.5 213.5 -304.5 181.5 -364.0 129.5 -397.5 101.5 -414.5 74.5 -422.5 47.5 -430.5 25.0 -436.5 L96.5 -635.0 Q144.0 -622.0 190.0 -599.5 236.0 -577.0 272.5 -544.0 298.0 -519.5 321.5 -482.5 344.5 -446.0 361.5 -395.5 L369.0 -395.5 Q384.5 -439.0 410.5 -476.0 437.0 -513.0 470.0 -543.0 504.0 -573.0 548.0 -597.5 592.5 -622.0 647.0 -637.0 L705.5 -437.5 Q674.0 -431.5 636.0 -417.5 598.0 -403.5 564.0 -379.0 522.0 -347.0 495.0 -292.0 468.0 -236.5 467.0 -162.0 L467.0 -107.5 Q467.0 -100.0 467.5 -78.0 468.0 -56.0 469.0 -33.0 470.0 -10.0 471.0 0.0" fill-rule="evenodd" stroke="none"/>
    </g>
  </defs>
</svg>
