<?xml version="1.0" encoding="UTF-8" standalone="no"?>
<svg xmlns:ffdec="https://www.free-decompiler.com/flash" xmlns:xlink="http://www.w3.org/1999/xlink" ffdec:objectType="text" height="15.3px" width="21.4px" xmlns="http://www.w3.org/2000/svg">
  <g transform="matrix(1.0, 0.0, 0.0, 1.0, -0.6, -5.7)">
    <g transform="matrix(1.0, 0.0, 0.0, 1.0, 0.0, 0.0)">
      <use fill="#000000" height="15.3" transform="matrix(0.0176, 0.0, 0.0, 0.0176, 0.0, 20.0)" width="21.4" xlink:href="#font_Arial_Black_S0"/>
    </g>
  </g>
  <defs>
    <g id="font_Arial_Black_S0">
      <path d="M35.5 -242.5 L35.5 -242.5 Q45.0 -131.5 117.0 -59.5 189.0 12.5 376.0 12.5 482.5 12.5 552.5 -18.0 622.5 -49.0 661.5 -108.5 700.5 -168.0 700.5 -238.5 700.5 -298.5 671.5 -347.0 642.0 -395.5 578.0 -428.0 513.5 -461.0 365.0 -493.0 305.0 -505.5 289.0 -520.0 272.5 -534.0 272.5 -551.5 272.5 -575.5 292.5 -592.0 312.5 -609.0 352.0 -609.0 400.0 -609.0 427.5 -586.5 454.5 -564.0 463.0 -514.5 L676.5 -527.0 Q662.5 -641.0 589.0 -693.0 515.0 -745.5 374.5 -745.5 260.0 -745.5 194.5 -716.5 128.5 -688.0 96.0 -637.5 63.0 -587.5 63.0 -531.0 63.0 -445.0 127.0 -389.5 190.5 -334.0 339.5 -300.5 430.5 -280.5 455.5 -258.0 480.5 -235.5 480.5 -207.0 480.5 -177.0 454.5 -154.0 428.0 -131.5 379.5 -131.5 314.5 -131.5 279.5 -176.0 258.0 -203.5 251.0 -256.0 L35.5 -242.5" fill-rule="evenodd" stroke="none"/>
    </g>
  </defs>
</svg>
