<?xml version="1.0" encoding="UTF-8" standalone="no"?>
<svg xmlns:ffdec="https://www.free-decompiler.com/flash" xmlns:xlink="http://www.w3.org/1999/xlink" ffdec:objectType="text" height="10.6px" width="93.2px" xmlns="http://www.w3.org/2000/svg">
  <g transform="matrix(1.0, 0.0, 0.0, 1.0, 14.8, -0.35)">
    <g transform="matrix(1.0, 0.0, 0.0, 1.0, -57.95, 0.0)">
      <use fill="#dbb663" height="10.6" transform="matrix(0.0098, 0.0, 0.0, 0.0098, 43.0, 10.0)" width="93.2" xlink:href="#font_Lithos_Pro_Regular_M0"/>
      <use fill="#dbb663" height="10.6" transform="matrix(0.0098, 0.0, 0.0, 0.0098, 53.9, 10.0)" width="93.2" xlink:href="#font_Lithos_Pro_Regular_a0"/>
      <use fill="#dbb663" height="10.6" transform="matrix(0.0098, 0.0, 0.0, 0.0098, 61.6, 10.0)" width="93.2" xlink:href="#font_Lithos_Pro_Regular_p0"/>
      <use fill="#dbb663" height="10.6" transform="matrix(0.0098, 0.0, 0.0, 0.0098, 68.3, 10.0)" width="93.2" xlink:href="#font_Lithos_Pro_Regular_l0"/>
      <use fill="#dbb663" height="10.6" transform="matrix(0.0098, 0.0, 0.0, 0.0098, 73.6, 10.0)" width="93.2" xlink:href="#font_Lithos_Pro_Regular_e0"/>
      <use fill="#dbb663" height="10.6" transform="matrix(0.0098, 0.0, 0.0, 0.0098, 81.8, 10.0)" width="93.2" xlink:href="#font_Lithos_Pro_Regular_L0"/>
      <use fill="#dbb663" height="10.6" transform="matrix(0.0098, 0.0, 0.0, 0.0098, 87.65, 10.0)" width="93.2" xlink:href="#font_Lithos_Pro_Regular_e0"/>
      <use fill="#dbb663" height="10.6" transform="matrix(0.0098, 0.0, 0.0, 0.0098, 93.35, 10.0)" width="93.2" xlink:href="#font_Lithos_Pro_Regular_a0"/>
      <use fill="#dbb663" height="10.6" transform="matrix(0.0098, 0.0, 0.0, 0.0098, 101.05, 10.0)" width="93.2" xlink:href="#font_Lithos_Pro_Regular_f0"/>
      <use fill="#dbb663" height="10.6" transform="matrix(0.0098, 0.0, 0.0, 0.0098, 109.05, 10.0)" width="93.2" xlink:href="#font_Lithos_Pro_Regular_R0"/>
      <use fill="#dbb663" height="10.6" transform="matrix(0.0098, 0.0, 0.0, 0.0098, 116.8, 10.0)" width="93.2" xlink:href="#font_Lithos_Pro_Regular_a0"/>
      <use fill="#dbb663" height="10.6" transform="matrix(0.0098, 0.0, 0.0, 0.0098, 124.5, 10.0)" width="93.2" xlink:href="#font_Lithos_Pro_Regular_g0"/>
    </g>
  </g>
  <defs>
    <g id="font_Lithos_Pro_Regular_M0">
      <path d="M212.0 32.0 L212.0 32.0 10.5 -43.0 Q15.5 -54.0 33.5 -100.5 51.5 -146.5 78.5 -215.5 105.5 -284.0 136.5 -363.0 167.5 -441.5 198.0 -517.5 228.5 -593.5 253.5 -655.0 279.0 -716.0 294.0 -749.5 L304.5 -749.5 Q323.5 -718.5 351.0 -673.5 378.0 -628.5 408.5 -578.5 439.0 -528.0 468.0 -481.0 496.5 -433.5 518.5 -397.5 540.0 -361.5 550.0 -345.5 562.5 -364.0 585.0 -400.5 607.5 -437.0 635.5 -482.5 664.0 -528.5 692.5 -576.0 721.5 -624.0 747.0 -665.0 772.0 -706.5 788.5 -733.5 L799.0 -733.5 Q817.0 -694.5 844.0 -635.0 871.0 -575.0 903.0 -504.0 935.0 -433.5 967.0 -361.5 999.5 -289.5 1027.5 -226.5 1056.0 -163.5 1076.0 -119.5 1095.5 -75.5 1103.0 -60.5 L896.0 32.0 Q886.0 6.5 870.0 -35.5 854.0 -77.5 835.5 -125.5 817.0 -174.0 800.0 -219.5 783.0 -264.5 770.5 -296.5 758.5 -328.5 755.0 -338.0 749.5 -330.0 726.0 -294.0 702.5 -258.0 669.0 -207.5 635.5 -156.5 600.0 -104.0 564.0 -51.5 534.5 -10.0 L524.5 -10.0 Q494.5 -55.5 462.0 -106.5 429.5 -157.5 399.5 -205.0 370.0 -252.5 349.5 -287.0 328.5 -321.5 322.0 -333.5 316.5 -317.0 305.5 -280.0 294.5 -243.0 281.0 -196.0 267.5 -149.0 253.5 -102.5 240.0 -55.5 229.0 -19.5 218.0 16.5 212.0 32.0" fill-rule="evenodd" stroke="none"/>
    </g>
    <g id="font_Lithos_Pro_Regular_a0">
      <path d="M301.0 -222.5 L454.5 -229.5 Q434.5 -268.0 413.0 -306.5 391.5 -345.0 378.0 -373.0 361.0 -340.5 340.0 -300.0 319.5 -259.5 301.0 -222.5 M184.5 29.5 L0.0 -65.0 Q7.5 -76.5 30.5 -114.0 54.0 -152.0 88.0 -206.5 121.5 -261.5 161.0 -324.0 200.0 -387.0 239.5 -449.0 279.0 -511.5 313.5 -564.0 347.5 -616.5 371.5 -650.5 L391.0 -650.5 Q426.0 -602.0 472.5 -535.0 518.5 -467.5 568.5 -394.0 618.5 -321.0 664.0 -254.0 709.5 -187.0 742.0 -139.0 775.0 -91.0 787.5 -75.0 L599.0 28.5 Q584.5 6.5 567.0 -22.0 549.5 -50.5 535.5 -73.5 521.5 -96.5 517.0 -102.5 L243.5 -89.5 Q241.0 -84.5 230.5 -64.0 220.5 -43.5 207.5 -18.0 195.0 8.0 184.5 29.5" fill-rule="evenodd" stroke="none"/>
    </g>
    <g id="font_Lithos_Pro_Regular_p0">
      <path d="M311.5 -491.5 L311.5 -278.5 Q337.5 -279.5 364.5 -293.5 392.0 -307.0 411.0 -334.0 430.0 -360.5 431.0 -400.5 432.5 -437.5 406.0 -461.5 380.0 -485.5 311.5 -491.5 M312.5 0.0 L93.5 0.0 Q93.5 -15.5 94.0 -55.5 94.0 -95.5 94.5 -145.5 95.0 -195.0 95.0 -240.0 95.5 -284.5 95.5 -309.5 L95.5 -404.5 Q95.5 -411.5 95.5 -433.5 95.0 -455.5 95.0 -485.0 94.5 -514.5 94.0 -543.5 94.0 -572.5 93.5 -593.0 93.5 -614.0 93.5 -618.5 192.0 -618.5 264.0 -616.5 336.0 -615.0 388.0 -610.0 440.0 -605.0 478.0 -596.0 525.5 -585.5 565.0 -564.0 604.5 -542.5 628.5 -508.0 652.5 -474.0 653.0 -425.0 653.0 -363.5 613.5 -307.0 574.5 -250.5 498.5 -208.5 422.5 -166.5 311.5 -149.5 L311.5 -127.0 Q311.5 -120.0 311.5 -102.5 311.5 -85.0 311.5 -64.0 311.5 -43.0 312.0 -25.0 312.0 -7.5 312.5 0.0" fill-rule="evenodd" stroke="none"/>
    </g>
    <g id="font_Lithos_Pro_Regular_l0">
      <path d="M93.5 -618.5 L322.5 -618.5 Q322.0 -610.0 321.5 -577.0 320.5 -544.0 319.5 -497.0 319.0 -450.5 318.0 -401.0 317.5 -351.0 317.5 -309.0 L317.5 -156.5 Q330.0 -156.5 364.5 -156.5 399.0 -157.0 442.5 -157.5 486.0 -158.5 524.5 -160.5 L525.5 9.5 Q516.0 9.5 477.5 8.5 439.0 7.5 384.5 6.0 330.0 5.0 272.5 3.5 215.0 2.0 167.5 1.0 119.5 0.0 94.5 0.0 95.0 -18.5 95.5 -56.0 96.0 -93.5 96.5 -136.0 96.5 -178.5 96.5 -211.0 96.5 -244.0 96.5 -252.5 L96.5 -368.5 Q96.5 -373.5 96.5 -398.5 96.0 -423.0 95.5 -457.5 95.5 -492.5 95.0 -527.0 94.5 -562.0 94.0 -587.0 94.0 -612.5 93.5 -618.5" fill-rule="evenodd" stroke="none"/>
    </g>
    <g id="font_Lithos_Pro_Regular_e0">
      <path d="M519.5 -147.0 L522.5 9.5 Q510.0 9.5 468.5 8.5 427.5 7.5 371.0 6.0 315.0 5.0 257.5 3.5 200.5 2.0 156.0 1.0 112.0 0.0 94.5 0.0 95.0 -18.5 95.5 -56.0 96.0 -93.5 96.5 -136.0 96.5 -178.5 96.5 -211.0 96.5 -244.0 96.5 -253.0 L96.5 -368.5 Q96.5 -373.5 96.5 -397.5 96.0 -421.5 96.0 -455.0 95.5 -489.0 95.0 -523.5 95.0 -558.0 94.5 -584.0 94.5 -610.0 94.5 -618.5 113.0 -618.5 155.5 -620.0 198.5 -621.0 252.5 -623.0 307.0 -625.0 360.0 -627.0 413.0 -629.5 452.0 -631.0 491.5 -633.0 504.0 -634.0 L508.0 -484.5 Q494.0 -484.5 465.0 -483.5 435.5 -483.0 402.5 -482.0 369.0 -481.0 343.5 -480.0 317.5 -479.5 310.5 -479.5 L310.5 -373.5 Q318.0 -373.5 338.5 -374.0 359.0 -375.0 385.5 -376.0 412.0 -377.0 436.5 -378.5 461.5 -380.0 477.5 -381.5 L479.5 -236.5 Q469.5 -236.5 445.5 -237.0 421.5 -237.5 393.5 -238.0 365.0 -238.5 342.0 -239.0 319.0 -239.5 310.5 -239.5 L310.5 -145.0 Q320.0 -145.0 347.0 -144.5 373.5 -144.5 407.0 -144.5 441.0 -144.5 471.5 -145.0 502.0 -145.5 519.5 -147.0" fill-rule="evenodd" stroke="none"/>
    </g>
    <g id="font_Lithos_Pro_Regular_L0">
      <path d="M106.5 -726.0 L106.5 -726.0 346.0 -726.0 Q345.5 -716.0 345.0 -677.5 344.0 -639.0 343.0 -584.0 342.0 -529.0 341.5 -471.0 341.0 -412.5 341.0 -363.0 L341.0 -176.0 Q350.5 -176.0 375.5 -176.0 400.0 -176.0 433.0 -176.5 466.5 -177.0 501.5 -177.5 537.0 -178.5 568.5 -180.0 L569.5 10.5 Q560.5 10.5 519.5 9.5 478.5 8.5 419.5 7.0 361.0 5.5 298.5 3.5 236.0 2.0 184.5 1.0 133.5 0.0 107.5 0.0 108.5 -17.0 109.0 -49.5 109.5 -82.0 110.0 -121.0 110.0 -160.5 110.5 -198.0 110.5 -235.5 110.5 -262.5 110.5 -289.5 110.5 -297.5 L110.5 -433.5 Q110.5 -439.5 110.5 -468.5 110.0 -497.5 109.5 -538.0 109.5 -578.5 109.0 -619.5 108.5 -660.0 107.5 -689.5 107.0 -719.0 106.5 -726.0" fill-rule="evenodd" stroke="none"/>
    </g>
    <g id="font_Lithos_Pro_Regular_f0">
      <path d="M314.5 0.0 L93.5 0.0 Q94.5 -18.5 95.0 -56.0 96.0 -93.5 96.0 -136.0 96.5 -178.5 96.5 -211.0 96.5 -244.0 96.5 -253.0 L96.5 -368.5 Q96.5 -373.5 96.5 -397.5 96.0 -421.5 95.5 -455.0 95.5 -489.0 95.0 -523.5 94.5 -558.0 94.0 -584.0 94.0 -610.0 93.5 -618.5 125.5 -618.5 179.0 -620.0 233.0 -621.5 295.5 -623.5 358.0 -625.5 416.0 -627.5 474.0 -629.5 514.0 -631.0 L518.5 -481.0 313.5 -477.0 313.5 -351.0 Q329.0 -351.0 375.5 -353.5 422.5 -356.0 501.0 -359.0 L503.0 -215.0 313.5 -217.0 313.5 -147.5 Q313.5 -141.0 313.5 -120.0 314.0 -99.0 314.0 -73.0 314.0 -47.0 314.5 -26.0 314.5 -5.5 314.5 0.0" fill-rule="evenodd" stroke="none"/>
    </g>
    <g id="font_Lithos_Pro_Regular_R0">
      <path d="M333.5 -584.5 L333.5 -584.5 333.5 -312.5 Q333.5 -300.0 334.0 -267.0 334.0 -233.5 334.5 -190.5 335.0 -147.0 336.0 -105.5 336.5 -64.0 337.5 -34.5 338.0 -5.5 338.5 0.0 L110.5 0.0 Q111.5 -8.5 112.5 -46.0 113.0 -83.0 113.0 -134.5 113.0 -186.0 113.0 -237.5 113.0 -289.0 112.5 -325.5 112.5 -362.5 112.5 -370.0 L112.5 -454.0 Q112.5 -464.0 112.5 -492.0 112.0 -520.0 111.5 -557.0 111.0 -594.0 110.5 -630.5 110.0 -667.0 109.0 -693.0 108.5 -719.5 107.5 -726.0 178.0 -726.0 246.5 -725.0 314.5 -724.0 375.0 -721.0 435.5 -717.5 482.0 -711.5 596.0 -697.0 655.5 -653.0 715.0 -609.5 715.5 -538.5 714.5 -476.0 679.5 -426.0 644.0 -376.0 583.5 -334.0 596.0 -320.0 626.0 -289.0 656.0 -257.5 692.0 -220.5 727.5 -183.5 757.0 -152.5 786.5 -121.5 797.5 -108.5 L610.0 32.5 Q602.5 20.0 577.5 -16.5 553.0 -53.0 520.0 -101.5 486.5 -150.5 453.5 -199.5 420.0 -248.5 394.5 -286.0 369.0 -324.0 360.0 -338.5 383.5 -351.5 410.5 -374.0 438.0 -396.5 457.5 -426.0 477.0 -455.0 478.0 -489.5 478.5 -514.0 465.0 -535.5 452.0 -556.5 420.0 -570.0 388.5 -583.5 333.5 -584.5" fill-rule="evenodd" stroke="none"/>
    </g>
    <g id="font_Lithos_Pro_Regular_g0">
      <path d="M632.0 -198.5 L632.0 -135.0 Q632.0 -117.0 632.5 -90.5 633.0 -64.0 633.5 -40.0 634.0 -16.0 634.0 -6.0 619.5 -2.5 588.5 2.0 557.0 7.0 514.5 10.5 472.0 14.5 424.0 14.5 286.5 13.5 200.0 -22.0 113.5 -58.0 73.0 -116.5 32.5 -175.0 33.0 -244.5 32.5 -285.5 55.5 -340.5 78.0 -395.5 133.5 -452.5 188.5 -510.0 284.5 -558.5 380.5 -606.5 525.5 -634.0 L568.5 -453.5 Q518.0 -448.0 465.5 -432.5 413.5 -417.5 368.5 -393.0 323.5 -368.0 296.0 -333.5 268.5 -298.5 267.5 -253.5 268.5 -211.0 293.5 -185.5 318.0 -160.0 354.0 -149.5 389.5 -138.5 424.0 -140.0 L424.0 -205.5 Q424.0 -223.5 423.0 -243.0 422.0 -262.0 422.0 -285.5 L633.0 -285.5 Q632.0 -255.5 632.0 -236.0 632.0 -217.0 632.0 -198.5" fill-rule="evenodd" stroke="none"/>
    </g>
  </defs>
</svg>
