<?xml version="1.0" encoding="UTF-8" standalone="no"?>
<svg xmlns:ffdec="https://www.free-decompiler.com/flash" xmlns:xlink="http://www.w3.org/1999/xlink" ffdec:objectType="text" height="14.85px" width="50.1px" xmlns="http://www.w3.org/2000/svg">
  <g transform="matrix(1.0, 0.0, 0.0, 1.0, 40.3, -1.85)">
    <g transform="matrix(1.0, 0.0, 0.0, 1.0, -44.95, 0.0)">
      <use fill="#f7ce72" height="14.85" transform="matrix(0.0156, 0.0, 0.0, 0.0156, 4.0, 15.0)" width="50.1" xlink:href="#font_Lithos_Pro_Regular_Y0"/>
      <use fill="#f7ce72" height="14.85" transform="matrix(0.0156, 0.0, 0.0, 0.0156, 15.65, 15.0)" width="50.1" xlink:href="#font_Lithos_Pro_Regular_o0"/>
      <use fill="#f7ce72" height="14.85" transform="matrix(0.0156, 0.0, 0.0, 0.0156, 28.85, 15.0)" width="50.1" xlink:href="#font_Lithos_Pro_Regular_u0"/>
      <use fill="#f7ce72" height="14.85" transform="matrix(0.0156, 0.0, 0.0, 0.0156, 41.2, 15.0)" width="50.1" xlink:href="#font_Lithos_Pro_Regular__0"/>
    </g>
  </g>
  <defs>
    <g id="font_Lithos_Pro_Regular_Y0">
      <path d="M511.0 0.0 L511.0 0.0 270.5 0.0 Q271.0 -9.5 271.5 -31.0 272.5 -52.0 273.5 -76.5 274.5 -101.0 275.0 -120.5 275.5 -139.5 275.5 -145.5 L275.5 -190.5 Q274.5 -290.5 237.5 -365.5 200.5 -440.5 142.5 -479.5 111.5 -500.0 81.5 -513.0 51.5 -525.5 26.5 -532.5 L105.5 -743.5 Q157.5 -727.0 208.0 -701.0 258.0 -675.0 298.0 -636.0 327.0 -608.0 352.5 -566.0 378.5 -524.5 397.5 -465.0 L405.5 -465.0 Q423.0 -516.0 452.0 -558.0 481.0 -600.0 518.0 -635.0 555.0 -670.5 603.5 -698.5 651.5 -726.5 711.0 -743.5 L775.5 -532.5 Q740.5 -525.5 698.5 -505.5 657.0 -486.0 620.5 -455.5 589.5 -430.5 563.5 -391.0 537.5 -352.0 522.0 -301.5 506.5 -251.0 506.0 -192.5 L506.0 -126.0 Q506.0 -120.0 506.5 -103.0 507.0 -86.0 507.5 -65.5 508.5 -44.5 509.5 -26.5 510.5 -8.5 511.0 0.0" fill-rule="evenodd" stroke="none"/>
    </g>
    <g id="font_Lithos_Pro_Regular_o0">
      <path d="M409.5 -127.0 L409.5 -127.0 Q482.0 -127.0 524.0 -175.0 565.5 -223.5 566.5 -319.5 566.0 -403.0 531.5 -446.5 496.5 -490.5 432.5 -490.5 382.0 -490.0 347.5 -463.5 313.0 -437.5 295.5 -393.5 277.5 -350.0 277.5 -297.0 278.0 -239.5 296.0 -202.0 313.5 -164.0 343.5 -145.5 373.5 -127.0 409.5 -127.0 M399.5 14.5 L399.5 14.5 Q306.0 13.5 237.5 -12.5 169.5 -39.0 125.5 -82.5 81.5 -126.0 60.0 -178.5 39.0 -230.5 39.0 -283.5 39.0 -347.5 63.5 -409.0 88.5 -470.5 138.5 -521.0 188.5 -571.0 265.0 -601.0 341.5 -631.0 444.5 -632.0 556.5 -631.5 637.0 -595.0 718.0 -558.5 761.0 -490.0 804.5 -422.0 805.0 -325.5 805.5 -275.5 785.5 -217.0 766.0 -159.0 719.5 -106.5 673.5 -54.0 595.0 -20.5 516.5 13.5 399.5 14.5" fill-rule="evenodd" stroke="none"/>
    </g>
    <g id="font_Lithos_Pro_Regular_u0">
      <path d="M289.0 -462.0 L289.0 -403.5 Q288.5 -334.5 292.0 -288.5 295.0 -242.5 304.0 -213.5 313.0 -184.5 331.0 -165.5 345.5 -150.5 363.5 -143.5 381.0 -137.0 402.5 -137.0 427.0 -137.0 446.5 -146.5 465.5 -156.5 478.5 -175.0 488.0 -187.5 493.5 -204.0 499.0 -220.0 501.5 -247.5 504.0 -275.0 504.5 -321.5 505.0 -368.0 505.0 -441.5 L505.0 -474.0 Q505.0 -520.5 503.0 -561.5 501.0 -602.0 500.0 -627.0 L725.0 -627.0 Q725.0 -617.0 725.0 -593.5 725.5 -570.5 725.5 -539.0 726.0 -507.5 726.0 -472.5 L726.0 -431.5 Q726.5 -348.5 720.5 -285.0 714.5 -221.5 697.0 -172.5 679.5 -123.5 645.0 -84.0 602.0 -35.5 535.5 -10.5 469.0 14.5 390.5 14.5 351.5 15.0 303.5 8.0 255.5 0.5 208.5 -23.0 161.5 -46.5 126.0 -95.0 109.0 -118.0 97.5 -145.0 85.5 -172.0 78.0 -209.0 70.5 -246.5 67.0 -300.5 63.5 -355.0 63.5 -433.5 L63.5 -480.5 Q63.5 -501.5 64.0 -528.0 64.0 -555.0 64.5 -578.5 64.5 -602.0 64.5 -612.5 L294.0 -612.5 Q291.5 -595.5 290.5 -558.5 289.0 -521.0 289.0 -462.0" fill-rule="evenodd" stroke="none"/>
    </g>
    <g id="font_Lithos_Pro_Regular__0">
      <path d="M69.5 0.0 L69.5 0.0 69.5 -154.5 240.5 -154.5 240.5 0.0 69.5 0.0 M225.0 -251.0 L225.0 -251.0 88.0 -241.5 Q84.0 -289.0 78.0 -353.5 71.5 -418.0 65.0 -488.0 58.5 -558.5 53.0 -623.0 47.5 -687.5 45.0 -735.5 L293.5 -726.0 Q289.5 -689.0 280.5 -628.0 271.0 -567.0 260.0 -497.0 249.0 -426.5 239.5 -361.5 230.0 -296.0 225.0 -251.0" fill-rule="evenodd" stroke="none"/>
    </g>
  </defs>
</svg>
