<?xml version="1.0" encoding="UTF-8" standalone="no"?>
<svg xmlns:ffdec="https://www.free-decompiler.com/flash" xmlns:xlink="http://www.w3.org/1999/xlink" ffdec:objectType="text" height="10.0px" width="12.85px" xmlns="http://www.w3.org/2000/svg">
  <g transform="matrix(1.0, 0.0, 0.0, 1.0, -0.3, -0.65)">
    <g transform="matrix(1.0, 0.0, 0.0, 1.0, 0.0, 0.0)">
      <use fill="#ffffff" height="10.0" transform="matrix(0.0098, 0.0, 0.0, 0.0098, 0.0, 10.0)" width="12.85" xlink:href="#font_Lithos_Pro_Regular_00"/>
    </g>
  </g>
  <defs>
    <g id="font_Lithos_Pro_Regular_00">
      <path d="M421.0 -184.5 L421.0 -184.5 Q455.0 -184.0 489.0 -202.0 523.0 -220.0 546.0 -261.5 568.5 -302.5 569.5 -371.5 568.5 -439.5 545.5 -477.0 522.0 -514.5 489.0 -529.5 455.5 -544.0 425.0 -543.5 390.5 -544.0 354.0 -528.5 317.0 -512.5 292.0 -472.0 266.5 -431.5 266.0 -357.5 267.5 -290.0 292.0 -252.0 316.0 -214.0 351.5 -199.0 386.5 -184.0 421.0 -184.5 M414.5 -17.5 L414.5 -17.5 Q300.5 -18.0 214.5 -56.0 128.0 -94.5 80.0 -168.5 31.5 -242.5 30.5 -349.0 31.0 -453.0 80.5 -534.0 130.0 -615.5 221.0 -662.5 312.0 -709.5 437.0 -710.5 553.5 -709.5 636.0 -665.5 718.0 -621.5 762.0 -546.5 805.5 -471.5 806.0 -377.0 806.0 -306.0 781.5 -241.5 757.0 -177.5 708.5 -127.0 659.5 -76.5 586.0 -47.5 512.5 -18.0 414.5 -17.5" fill-rule="evenodd" stroke="none"/>
    </g>
  </defs>
</svg>
