<?xml version="1.0" encoding="UTF-8" standalone="no"?>
<svg xmlns:ffdec="https://www.free-decompiler.com/flash" xmlns:xlink="http://www.w3.org/1999/xlink" ffdec:objectType="text" height="10.35px" width="12.55px" xmlns="http://www.w3.org/2000/svg">
  <g transform="matrix(1.0, 0.0, 0.0, 1.0, -0.6, -0.3)">
    <g transform="matrix(1.0, 0.0, 0.0, 1.0, 0.0, 0.0)">
      <use fill="#ffffff" height="10.35" transform="matrix(0.0098, 0.0, 0.0, 0.0098, 0.0, 10.0)" width="12.55" xlink:href="#font_Lithos_Pro_Regular_40"/>
    </g>
  </g>
  <defs>
    <g id="font_Lithos_Pro_Regular_40">
      <path d="M422.0 -258.0 L422.0 -258.0 422.0 -447.5 420.0 -447.5 Q413.0 -435.0 394.0 -409.0 375.0 -383.5 352.0 -353.5 329.0 -323.5 309.0 -297.5 289.0 -271.5 279.5 -258.0 L422.0 -258.0 M736.0 -264.0 L736.0 -264.0 729.0 -112.5 620.5 -116.5 620.5 -87.0 Q620.5 -71.5 621.0 -47.5 621.5 -23.0 622.5 0.0 L410.5 0.0 Q411.5 -21.5 413.5 -46.5 415.5 -71.0 415.5 -97.0 L415.5 -115.5 93.0 -115.5 59.0 -206.5 498.5 -754.5 621.5 -728.0 621.5 -260.0 736.0 -264.0" fill-rule="evenodd" stroke="none"/>
    </g>
  </defs>
</svg>
