<?xml version="1.0" encoding="UTF-8" standalone="no"?>
<svg xmlns:ffdec="https://www.free-decompiler.com/flash" xmlns:xlink="http://www.w3.org/1999/xlink" ffdec:objectType="text" height="10.4px" width="12.1px" xmlns="http://www.w3.org/2000/svg">
  <g transform="matrix(1.0, 0.0, 0.0, 1.0, -1.05, -0.4)">
    <g transform="matrix(1.0, 0.0, 0.0, 1.0, 0.0, 0.0)">
      <use fill="#ffffff" height="10.4" transform="matrix(0.0098, 0.0, 0.0, 0.0098, 0.0, 10.0)" width="12.1" xlink:href="#font_Lithos_Pro_Regular_80"/>
    </g>
  </g>
  <defs>
    <g id="font_Lithos_Pro_Regular_80">
      <path d="M415.5 -99.0 L415.5 -99.0 Q437.5 -98.5 459.0 -108.5 481.0 -118.5 495.5 -142.5 510.5 -166.5 511.0 -208.0 510.5 -245.0 497.0 -269.0 483.0 -292.5 462.5 -303.5 442.5 -314.5 422.0 -314.5 374.5 -313.5 349.0 -283.0 324.0 -252.0 323.5 -202.5 324.0 -167.0 338.0 -144.0 352.0 -121.0 373.0 -110.0 394.0 -99.0 415.5 -99.0 M410.5 16.5 L410.5 16.5 Q296.5 16.0 229.5 -11.0 162.5 -37.5 133.5 -82.0 105.0 -126.5 105.5 -181.0 106.5 -242.0 141.0 -293.5 175.5 -344.5 233.5 -374.0 177.0 -399.5 145.5 -444.0 114.0 -488.0 113.5 -540.0 113.0 -589.0 145.0 -635.5 177.0 -682.0 246.5 -712.5 316.5 -743.0 429.0 -743.5 577.0 -742.5 649.0 -693.5 721.5 -644.5 721.0 -561.5 721.0 -531.0 708.5 -498.0 695.5 -465.0 668.0 -435.0 640.5 -404.5 596.0 -383.0 662.0 -357.5 696.5 -310.5 731.0 -263.0 731.0 -199.5 731.5 -164.5 715.5 -127.0 699.5 -89.5 662.5 -57.0 626.0 -24.5 564.0 -4.5 502.0 16.0 410.5 16.5 M423.0 -628.0 L423.0 -628.0 Q381.5 -628.0 356.5 -603.0 331.0 -578.0 330.5 -529.5 331.0 -501.0 343.0 -479.5 355.0 -458.5 374.0 -447.0 393.0 -435.5 414.5 -435.5 435.0 -435.5 455.5 -445.5 475.5 -455.5 489.0 -477.5 502.5 -499.5 503.0 -536.0 502.5 -574.0 490.0 -594.0 477.0 -614.0 459.0 -621.0 440.5 -628.5 423.0 -628.0" fill-rule="evenodd" stroke="none"/>
    </g>
  </defs>
</svg>
