<?xml version="1.0" encoding="UTF-8" standalone="no"?>
<svg xmlns:ffdec="https://www.free-decompiler.com/flash" xmlns:xlink="http://www.w3.org/1999/xlink" ffdec:objectType="text" height="10.65px" width="12.0px" xmlns="http://www.w3.org/2000/svg">
  <g transform="matrix(1.0, 0.0, 0.0, 1.0, -1.15, -0.4)">
    <g transform="matrix(1.0, 0.0, 0.0, 1.0, 0.0, 0.0)">
      <use fill="#ffffff" height="10.65" transform="matrix(0.0098, 0.0, 0.0, 0.0098, 0.0, 10.0)" width="12.0" xlink:href="#font_Lithos_Pro_Regular_90"/>
    </g>
  </g>
  <defs>
    <g id="font_Lithos_Pro_Regular_90">
      <path d="M424.0 -602.0 L424.0 -602.0 Q387.0 -601.5 364.0 -575.0 340.5 -548.0 340.0 -501.0 340.0 -446.0 374.0 -412.0 408.5 -377.5 478.5 -376.0 489.5 -397.0 496.0 -426.5 503.0 -456.0 503.0 -501.0 502.5 -546.0 481.5 -573.5 460.5 -601.5 424.0 -602.0 M359.5 40.0 L359.5 40.0 257.0 -121.0 Q282.0 -134.0 312.5 -154.0 343.0 -174.5 372.0 -200.0 401.0 -225.5 422.0 -255.0 326.0 -256.0 257.0 -286.5 188.0 -317.5 151.5 -369.0 114.5 -420.0 115.5 -482.5 118.0 -554.5 158.5 -613.5 199.0 -673.0 268.5 -708.5 338.0 -743.5 427.0 -743.5 490.0 -743.5 544.0 -729.5 597.5 -716.0 641.0 -679.0 681.0 -645.0 701.5 -599.0 722.0 -553.0 722.0 -488.5 721.5 -414.0 691.0 -337.5 660.5 -261.0 608.5 -190.0 557.0 -118.5 492.5 -59.5 428.0 -0.5 359.5 40.0" fill-rule="evenodd" stroke="none"/>
    </g>
  </defs>
</svg>
