<?xml version="1.0" encoding="UTF-8" standalone="no"?>
<svg xmlns:ffdec="https://www.free-decompiler.com/flash" xmlns:xlink="http://www.w3.org/1999/xlink" ffdec:objectType="text" height="9.15px" width="62.75px" xmlns="http://www.w3.org/2000/svg">
  <g transform="matrix(1.0, 0.0, 0.0, 1.0, -116.5, 0.15)">
    <g transform="matrix(1.0, 0.0, 0.0, 1.0, 116.35, 0.0)">
      <use fill="#cd9e3f" height="9.15" transform="matrix(0.0078, 0.0, 0.0, 0.0078, 0.0, 8.0)" width="62.75" xlink:href="#font_Lithos_Pro_Regular_M0"/>
      <use fill="#cd9e3f" height="9.15" transform="matrix(0.0078, 0.0, 0.0, 0.0078, 9.7, 8.0)" width="62.75" xlink:href="#font_Lithos_Pro_Regular_i0"/>
      <use fill="#cd9e3f" height="9.15" transform="matrix(0.0078, 0.0, 0.0, 0.0078, 13.9, 8.0)" width="62.75" xlink:href="#font_Lithos_Pro_Regular_k0"/>
      <use fill="#cd9e3f" height="9.15" transform="matrix(0.0078, 0.0, 0.0, 0.0078, 20.7, 8.0)" width="62.75" xlink:href="#font_Lithos_Pro_Regular_e0"/>
      <use fill="#cd9e3f" height="9.15" transform="matrix(0.0078, 0.0, 0.0, 0.0078, 29.25, 8.0)" width="62.75" xlink:href="#font_Lithos_Pro_Regular_S0"/>
      <use fill="#cd9e3f" height="9.15" transform="matrix(0.0078, 0.0, 0.0, 0.0078, 34.65, 8.0)" width="62.75" xlink:href="#font_Lithos_Pro_Regular_l0"/>
      <use fill="#cd9e3f" height="9.15" transform="matrix(0.0078, 0.0, 0.0, 0.0078, 39.9, 8.0)" width="62.75" xlink:href="#font_Lithos_Pro_Regular_e0"/>
      <use fill="#cd9e3f" height="9.15" transform="matrix(0.0078, 0.0, 0.0, 0.0078, 45.45, 8.0)" width="62.75" xlink:href="#font_Lithos_Pro_Regular_v0"/>
      <use fill="#cd9e3f" height="9.15" transform="matrix(0.0078, 0.0, 0.0, 0.0078, 51.7, 8.0)" width="62.75" xlink:href="#font_Lithos_Pro_Regular_a0"/>
    </g>
  </g>
  <defs>
    <g id="font_Lithos_Pro_Regular_M0">
      <path d="M212.0 32.0 L212.0 32.0 10.5 -43.0 Q15.5 -54.0 33.5 -100.5 51.5 -146.5 78.5 -215.5 105.5 -284.0 136.5 -363.0 167.5 -441.5 198.0 -517.5 228.5 -593.5 253.5 -655.0 279.0 -716.0 294.0 -749.5 L304.5 -749.5 Q323.5 -718.5 351.0 -673.5 378.0 -628.5 408.5 -578.5 439.0 -528.0 468.0 -481.0 496.5 -433.5 518.5 -397.5 540.0 -361.5 550.0 -345.5 562.5 -364.0 585.0 -400.5 607.5 -437.0 635.5 -482.5 664.0 -528.5 692.5 -576.0 721.5 -624.0 747.0 -665.0 772.0 -706.5 788.5 -733.5 L799.0 -733.5 Q817.0 -694.5 844.0 -635.0 871.0 -575.0 903.0 -504.0 935.0 -433.5 967.0 -361.5 999.5 -289.5 1027.5 -226.5 1056.0 -163.5 1076.0 -119.5 1095.5 -75.5 1103.0 -60.5 L896.0 32.0 Q886.0 6.5 870.0 -35.5 854.0 -77.5 835.5 -125.5 817.0 -174.0 800.0 -219.5 783.0 -264.5 770.5 -296.5 758.5 -328.5 755.0 -338.0 749.5 -330.0 726.0 -294.0 702.5 -258.0 669.0 -207.5 635.5 -156.5 600.0 -104.0 564.0 -51.5 534.5 -10.0 L524.5 -10.0 Q494.5 -55.5 462.0 -106.5 429.5 -157.5 399.5 -205.0 370.0 -252.5 349.5 -287.0 328.5 -321.5 322.0 -333.5 316.5 -317.0 305.5 -280.0 294.5 -243.0 281.0 -196.0 267.5 -149.0 253.5 -102.5 240.0 -55.5 229.0 -19.5 218.0 16.5 212.0 32.0" fill-rule="evenodd" stroke="none"/>
    </g>
    <g id="font_Lithos_Pro_Regular_i0">
      <path d="M315.5 -357.5 L315.5 -263.0 Q315.5 -229.5 316.0 -188.0 316.5 -146.5 317.0 -106.5 318.0 -66.5 318.5 -37.5 319.0 -8.5 319.5 0.0 L92.5 0.0 Q93.0 -12.0 93.0 -40.0 93.5 -67.5 93.5 -103.0 94.0 -138.0 94.0 -172.5 94.5 -206.5 94.5 -231.5 94.5 -256.5 94.5 -264.0 L94.5 -358.5 Q94.5 -364.0 94.5 -389.5 94.0 -414.5 94.0 -450.5 93.5 -486.0 93.0 -522.0 93.0 -558.0 92.5 -584.5 92.5 -611.0 92.5 -618.5 L319.5 -618.5 Q319.0 -611.5 318.5 -585.5 318.0 -559.0 317.0 -521.0 316.5 -482.5 316.0 -440.0 315.5 -397.0 315.5 -357.5" fill-rule="evenodd" stroke="none"/>
    </g>
    <g id="font_Lithos_Pro_Regular_k0">
      <path d="M322.5 9.5 L93.5 9.5 Q94.0 -1.0 94.5 -30.0 95.0 -59.0 95.5 -99.0 96.0 -139.0 96.0 -182.0 96.5 -225.0 96.5 -263.0 L96.5 -355.0 Q96.5 -384.5 96.0 -427.0 95.5 -469.0 95.0 -512.0 94.5 -554.5 94.0 -586.5 93.5 -618.5 93.5 -627.0 L322.5 -627.0 Q322.0 -620.5 321.5 -593.0 320.5 -565.0 319.5 -526.0 319.0 -487.0 318.0 -447.5 317.5 -408.0 317.5 -378.5 L317.5 -353.0 319.5 -353.0 Q334.0 -370.5 359.5 -402.0 385.5 -433.0 416.0 -470.0 447.0 -507.0 476.0 -542.0 505.5 -577.0 526.5 -602.5 548.0 -628.0 555.0 -636.0 L711.5 -497.5 Q692.0 -479.0 658.0 -446.0 624.0 -413.0 588.0 -377.5 551.5 -342.0 525.5 -316.0 538.5 -302.5 565.5 -276.0 592.0 -250.0 623.0 -219.5 654.5 -189.5 681.5 -163.0 709.0 -136.0 724.0 -122.0 L547.0 25.5 Q541.5 19.5 522.0 -5.5 502.5 -30.5 474.5 -66.5 447.0 -103.0 417.0 -142.0 387.0 -181.5 361.0 -215.5 335.0 -250.0 319.5 -271.0 L317.5 -271.0 317.5 -255.5 Q317.5 -229.5 318.0 -188.0 318.5 -147.0 319.5 -104.5 320.0 -61.5 321.0 -30.0 322.0 2.0 322.5 9.5" fill-rule="evenodd" stroke="none"/>
    </g>
    <g id="font_Lithos_Pro_Regular_e0">
      <path d="M519.5 -147.0 L522.5 9.5 Q510.0 9.5 468.5 8.5 427.5 7.5 371.0 6.0 315.0 5.0 257.5 3.5 200.5 2.0 156.0 1.0 112.0 0.0 94.5 0.0 95.0 -18.5 95.5 -56.0 96.0 -93.5 96.5 -136.0 96.5 -178.5 96.5 -211.0 96.5 -244.0 96.5 -253.0 L96.5 -368.5 Q96.5 -373.5 96.5 -397.5 96.0 -421.5 96.0 -455.0 95.5 -489.0 95.0 -523.5 95.0 -558.0 94.5 -584.0 94.5 -610.0 94.5 -618.5 113.0 -618.5 155.5 -620.0 198.5 -621.0 252.5 -623.0 307.0 -625.0 360.0 -627.0 413.0 -629.5 452.0 -631.0 491.5 -633.0 504.0 -634.0 L508.0 -484.5 Q494.0 -484.5 465.0 -483.5 435.5 -483.0 402.5 -482.0 369.0 -481.0 343.5 -480.0 317.5 -479.5 310.5 -479.5 L310.5 -373.5 Q318.0 -373.5 338.5 -374.0 359.0 -375.0 385.5 -376.0 412.0 -377.0 436.5 -378.5 461.5 -380.0 477.5 -381.5 L479.5 -236.5 Q469.5 -236.5 445.5 -237.0 421.5 -237.5 393.5 -238.0 365.0 -238.5 342.0 -239.0 319.0 -239.5 310.5 -239.5 L310.5 -145.0 Q320.0 -145.0 347.0 -144.5 373.5 -144.5 407.0 -144.5 441.0 -144.5 471.5 -145.0 502.0 -145.5 519.5 -147.0" fill-rule="evenodd" stroke="none"/>
    </g>
    <g id="font_Lithos_Pro_Regular_S0">
      <path d="M95.5 18.5 L95.5 18.5 67.5 -156.5 Q118.5 -155.0 165.5 -163.5 213.0 -171.5 244.0 -188.5 274.5 -205.0 275.5 -229.5 276.0 -239.0 268.0 -248.5 260.0 -258.0 238.0 -272.0 216.0 -286.0 175.0 -309.0 142.0 -327.5 110.0 -351.5 78.5 -376.0 57.5 -408.0 36.5 -440.5 35.5 -483.5 36.0 -541.5 84.5 -597.5 133.5 -653.0 225.5 -693.0 317.5 -733.0 447.5 -745.5 L475.0 -574.5 Q379.0 -574.5 330.5 -558.5 282.5 -542.5 282.5 -511.0 282.5 -493.5 307.0 -477.5 332.0 -462.0 382.0 -438.5 410.5 -425.0 443.0 -404.0 476.0 -383.0 499.5 -351.0 523.5 -319.0 524.5 -273.5 524.5 -230.5 501.0 -185.5 477.5 -140.0 426.5 -98.5 375.5 -57.5 294.0 -26.5 212.0 4.5 95.5 18.5" fill-rule="evenodd" stroke="none"/>
    </g>
    <g id="font_Lithos_Pro_Regular_l0">
      <path d="M93.5 -618.5 L322.5 -618.5 Q322.0 -610.0 321.5 -577.0 320.5 -544.0 319.5 -497.0 319.0 -450.5 318.0 -401.0 317.5 -351.0 317.5 -309.0 L317.5 -156.5 Q330.0 -156.5 364.5 -156.5 399.0 -157.0 442.5 -157.5 486.0 -158.5 524.5 -160.5 L525.5 9.5 Q516.0 9.5 477.5 8.5 439.0 7.5 384.5 6.0 330.0 5.0 272.5 3.5 215.0 2.0 167.5 1.0 119.5 0.0 94.5 0.0 95.0 -18.5 95.5 -56.0 96.0 -93.5 96.5 -136.0 96.5 -178.5 96.5 -211.0 96.5 -244.0 96.5 -252.5 L96.5 -368.5 Q96.5 -373.5 96.5 -398.5 96.0 -423.0 95.5 -457.5 95.5 -492.5 95.0 -527.0 94.5 -562.0 94.0 -587.0 94.0 -612.5 93.5 -618.5" fill-rule="evenodd" stroke="none"/>
    </g>
    <g id="font_Lithos_Pro_Regular_v0">
      <path d="M564.0 -638.0 L766.0 -541.5 Q757.0 -529.0 730.5 -489.0 704.0 -449.5 666.5 -392.5 629.0 -336.0 587.0 -272.0 544.5 -208.0 504.0 -147.0 463.5 -86.0 430.5 -37.5 398.0 11.0 380.0 37.0 L360.5 37.0 Q330.5 -6.0 288.5 -71.5 246.5 -137.0 200.0 -211.0 154.0 -285.0 112.0 -353.5 70.0 -422.0 40.0 -471.0 10.5 -519.5 1.0 -534.5 L206.0 -638.0 Q212.0 -625.5 229.0 -591.5 246.0 -557.0 268.5 -511.5 291.0 -466.0 314.0 -419.0 337.0 -372.5 355.5 -334.5 374.0 -297.0 383.0 -278.5 392.0 -297.5 411.0 -336.0 430.5 -375.0 455.0 -423.0 479.0 -470.5 502.5 -516.5 526.0 -562.5 543.0 -595.5 560.0 -629.0 564.0 -638.0" fill-rule="evenodd" stroke="none"/>
    </g>
    <g id="font_Lithos_Pro_Regular_a0">
      <path d="M301.0 -222.5 L454.5 -229.5 Q434.5 -268.0 413.0 -306.5 391.5 -345.0 378.0 -373.0 361.0 -340.5 340.0 -300.0 319.5 -259.5 301.0 -222.5 M184.5 29.5 L0.0 -65.0 Q7.5 -76.5 30.5 -114.0 54.0 -152.0 88.0 -206.5 121.5 -261.5 161.0 -324.0 200.0 -387.0 239.5 -449.0 279.0 -511.5 313.5 -564.0 347.5 -616.5 371.5 -650.5 L391.0 -650.5 Q426.0 -602.0 472.5 -535.0 518.5 -467.5 568.5 -394.0 618.5 -321.0 664.0 -254.0 709.5 -187.0 742.0 -139.0 775.0 -91.0 787.5 -75.0 L599.0 28.5 Q584.5 6.5 567.0 -22.0 549.5 -50.5 535.5 -73.5 521.5 -96.5 517.0 -102.5 L243.5 -89.5 Q241.0 -84.5 230.5 -64.0 220.5 -43.5 207.5 -18.0 195.0 8.0 184.5 29.5" fill-rule="evenodd" stroke="none"/>
    </g>
  </defs>
</svg>
