<?xml version="1.0" encoding="UTF-8" standalone="no"?>
<svg xmlns:ffdec="https://www.free-decompiler.com/flash" xmlns:xlink="http://www.w3.org/1999/xlink" ffdec:objectType="text" height="15.65px" width="20.5px" xmlns="http://www.w3.org/2000/svg">
  <g transform="matrix(1.0, 0.0, 0.0, 1.0, -0.6, -2.0)">
    <g transform="matrix(1.0, 0.0, 0.0, 1.0, 0.0, 0.0)">
      <use fill="#cc9900" height="15.65" transform="matrix(0.0166, 0.0, 0.0, 0.0166, 0.0, 16.0)" width="20.5" xlink:href="#font_Lithos_Pro_Regular_G0"/>
    </g>
  </g>
  <defs>
    <g id="font_Lithos_Pro_Regular_G0">
      <path d="M683.0 -233.0 L683.0 -233.0 683.0 -158.5 Q683.0 -138.0 683.5 -106.5 684.0 -75.5 684.5 -47.0 685.0 -19.0 685.0 -7.0 671.5 -3.0 638.0 2.5 605.0 8.0 558.0 12.5 511.5 16.5 459.0 16.5 310.5 13.5 217.0 -28.5 123.5 -70.0 79.5 -138.0 35.5 -206.0 36.0 -287.5 35.0 -335.5 59.5 -399.0 84.0 -462.5 142.5 -529.0 201.5 -595.5 304.5 -652.5 407.5 -710.0 564.5 -745.5 L611.5 -544.5 Q558.5 -537.5 501.0 -518.0 443.5 -498.5 392.5 -467.5 342.0 -436.0 310.0 -394.0 278.5 -351.5 277.5 -299.0 278.0 -261.0 295.5 -234.0 313.0 -207.0 341.0 -190.5 369.0 -173.5 401.0 -166.0 433.5 -158.5 463.0 -159.5 L464.0 -241.5 Q464.0 -263.5 463.0 -285.0 462.0 -306.0 462.0 -327.5 L684.0 -327.5 Q683.5 -298.5 683.0 -277.0 683.0 -255.5 683.0 -233.0" fill-rule="evenodd" stroke="none"/>
    </g>
  </defs>
</svg>
