<?xml version="1.0" encoding="UTF-8" standalone="no"?>
<svg xmlns:ffdec="https://www.free-decompiler.com/flash" xmlns:xlink="http://www.w3.org/1999/xlink" ffdec:objectType="text" height="35.1px" width="55.0px" xmlns="http://www.w3.org/2000/svg">
  <g transform="matrix(1.0, 0.0, 0.0, 1.0, 2.0, 2.0)">
    <g transform="matrix(1.0, 0.0, 0.0, 1.0, -2.0, -2.0)">
      <use fill="#ffff00" height="35.1" transform="matrix(0.0234, 0.0, 0.0, 0.0234, 10.55, 24.1)" width="55.0" xlink:href="#font_Lithos_Pro_Regular_10"/>
      <use fill="#ffff00" height="35.1" transform="matrix(0.0234, 0.0, 0.0, 0.0234, 27.5, 24.1)" width="55.0" xlink:href="#font_Lithos_Pro_Regular_00"/>
    </g>
  </g>
  <defs>
    <g id="font_Lithos_Pro_Regular_10">
      <path d="M434.0 0.0 L338.0 0.0 Q338.0 -14.0 339.5 -57.5 341.0 -100.5 342.5 -162.0 344.0 -224.0 344.0 -294.0 L344.0 -559.0 Q328.5 -540.5 301.5 -513.5 275.0 -486.5 248.0 -460.0 221.5 -434.0 206.0 -417.5 L159.5 -473.0 Q166.5 -479.0 193.0 -504.0 220.0 -528.5 257.0 -563.5 294.5 -598.5 332.0 -634.5 370.0 -670.5 398.5 -698.0 427.5 -726.0 437.0 -737.0 L440.0 -737.0 Q440.0 -719.0 438.0 -673.0 436.0 -626.5 434.0 -562.5 432.0 -499.0 432.0 -429.0 L432.0 -271.5 Q432.0 -160.5 432.0 -92.5 432.0 -24.0 434.0 0.0" fill-rule="evenodd" stroke="none"/>
    </g>
    <g id="font_Lithos_Pro_Regular_00">
      <path d="M364.5 -97.5 L364.5 -97.5 Q404.0 -97.5 444.5 -114.0 485.0 -130.5 519.5 -164.0 554.0 -198.0 575.5 -249.0 596.5 -300.5 597.0 -370.0 596.5 -437.5 565.5 -494.5 534.0 -551.0 481.0 -585.5 427.5 -619.5 360.5 -620.5 293.0 -620.0 240.5 -585.5 188.0 -551.5 157.5 -491.0 127.5 -431.0 127.0 -352.5 127.0 -307.0 142.0 -262.0 157.0 -217.0 186.5 -180.0 216.5 -143.0 261.0 -120.5 305.5 -98.0 364.5 -97.5 M350.0 -17.5 L350.0 -17.5 Q291.5 -17.5 236.0 -38.5 180.5 -60.0 135.5 -102.5 91.0 -144.5 64.0 -208.5 37.5 -272.0 37.0 -357.5 37.5 -435.5 64.5 -498.5 91.5 -561.5 138.5 -606.5 185.0 -651.5 244.5 -676.0 304.0 -700.0 369.5 -700.5 461.5 -700.0 533.0 -658.0 604.5 -616.0 645.0 -540.5 686.0 -465.5 687.0 -365.5 687.0 -298.0 663.5 -236.0 640.0 -174.0 596.0 -125.0 551.5 -75.5 489.5 -47.0 427.5 -18.0 350.0 -17.5" fill-rule="evenodd" stroke="none"/>
    </g>
  </defs>
</svg>
