<?xml version="1.0" encoding="UTF-8" standalone="no"?>
<svg xmlns:ffdec="https://www.free-decompiler.com/flash" xmlns:xlink="http://www.w3.org/1999/xlink" ffdec:objectType="text" height="61.95px" width="256.5px" xmlns="http://www.w3.org/2000/svg">
  <g transform="matrix(1.0, 0.0, 0.0, 1.0, 2.0, 2.0)">
    <g transform="matrix(1.0, 0.0, 0.0, 1.0, -2.0, -2.0)">
      <use fill="#ffffff" height="61.95" transform="matrix(0.0127, 0.0, 0.0, 0.0127, 0.0, 10.45)" width="256.5" xlink:href="#font_Lucida_Handwriting_C0"/>
      <use fill="#ffffff" height="61.95" transform="matrix(0.0127, 0.0, 0.0, 0.0127, 9.2, 10.45)" width="256.5" xlink:href="#font_Lucida_Handwriting_e0"/>
      <use fill="#ffffff" height="61.95" transform="matrix(0.0127, 0.0, 0.0, 0.0127, 16.8, 10.45)" width="256.5" xlink:href="#font_Lucida_Handwriting_a0"/>
      <use fill="#ffffff" height="61.95" transform="matrix(0.0127, 0.0, 0.0, 0.0127, 27.1, 10.45)" width="256.5" xlink:href="#font_Lucida_Handwriting_s0"/>
      <use fill="#ffffff" height="61.95" transform="matrix(0.0127, 0.0, 0.0, 0.0127, 32.7, 10.45)" width="256.5" xlink:href="#font_Lucida_Handwriting_a0"/>
      <use fill="#ffffff" height="61.95" transform="matrix(0.0127, 0.0, 0.0, 0.0127, 43.0, 10.45)" width="256.5" xlink:href="#font_Lucida_Handwriting_r0"/>
      <use fill="#ffffff" height="61.95" transform="matrix(0.0127, 0.0, 0.0, 0.0127, 50.05, 10.45)" width="256.5" xlink:href="#font_Lucida_Handwriting__0"/>
    </g>
    <g transform="matrix(1.0, 0.0, 0.0, 1.0, -2.0, -2.0)">
      <use fill="#ffffff" height="61.95" transform="matrix(0.0127, 0.0, 0.0, 0.0127, 59.0, 10.45)" width="256.5" xlink:href="#font_Lucida_Handwriting_t0"/>
      <use fill="#ffffff" height="61.95" transform="matrix(0.0127, 0.0, 0.0, 0.0127, 64.7, 10.45)" width="256.5" xlink:href="#font_Lucida_Handwriting_h0"/>
      <use fill="#ffffff" height="61.95" transform="matrix(0.0127, 0.0, 0.0, 0.0127, 74.45, 10.45)" width="256.5" xlink:href="#font_Lucida_Handwriting_a0"/>
      <use fill="#ffffff" height="61.95" transform="matrix(0.0127, 0.0, 0.0, 0.0127, 84.75, 10.45)" width="256.5" xlink:href="#font_Lucida_Handwriting_n0"/>
      <use fill="#ffffff" height="61.95" transform="matrix(0.0127, 0.0, 0.0, 0.0127, 95.25, 10.45)" width="256.5" xlink:href="#font_Lucida_Handwriting_k0"/>
    </g>
    <g transform="matrix(1.0, 0.0, 0.0, 1.0, -2.0, -2.0)">
      <use fill="#ffffff" height="61.95" transform="matrix(0.0127, 0.0, 0.0, 0.0127, 108.1, 10.45)" width="256.5" xlink:href="#font_Lucida_Handwriting_g0"/>
      <use fill="#ffffff" height="61.95" transform="matrix(0.0127, 0.0, 0.0, 0.0127, 117.4, 10.45)" width="256.5" xlink:href="#font_Lucida_Handwriting_o0"/>
      <use fill="#ffffff" height="61.95" transform="matrix(0.0127, 0.0, 0.0, 0.0127, 126.1, 10.45)" width="256.5" xlink:href="#font_Lucida_Handwriting_d0"/>
    </g>
    <g transform="matrix(1.0, 0.0, 0.0, 1.0, -2.0, -2.0)">
      <use fill="#ffffff" height="61.95" transform="matrix(0.0127, 0.0, 0.0, 0.0127, 140.75, 10.45)" width="256.5" xlink:href="#font_Lucida_Handwriting_y0"/>
      <use fill="#ffffff" height="61.95" transform="matrix(0.0127, 0.0, 0.0, 0.0127, 148.25, 10.45)" width="256.5" xlink:href="#font_Lucida_Handwriting_o0"/>
      <use fill="#ffffff" height="61.95" transform="matrix(0.0127, 0.0, 0.0, 0.0127, 156.95, 10.45)" width="256.5" xlink:href="#font_Lucida_Handwriting_u0"/>
    </g>
    <g transform="matrix(1.0, 0.0, 0.0, 1.0, -2.0, -2.0)">
      <use fill="#ffffff" height="61.95" transform="matrix(0.0127, 0.0, 0.0, 0.0127, 171.5, 10.45)" width="256.5" xlink:href="#font_Lucida_Handwriting_a0"/>
      <use fill="#ffffff" height="61.95" transform="matrix(0.0127, 0.0, 0.0, 0.0127, 181.8, 10.45)" width="256.5" xlink:href="#font_Lucida_Handwriting_r0"/>
      <use fill="#ffffff" height="61.95" transform="matrix(0.0127, 0.0, 0.0, 0.0127, 188.85, 10.45)" width="256.5" xlink:href="#font_Lucida_Handwriting_r0"/>
      <use fill="#ffffff" height="61.95" transform="matrix(0.0127, 0.0, 0.0, 0.0127, 195.9, 10.45)" width="256.5" xlink:href="#font_Lucida_Handwriting_i0"/>
      <use fill="#ffffff" height="61.95" transform="matrix(0.0127, 0.0, 0.0, 0.0127, 201.65, 10.45)" width="256.5" xlink:href="#font_Lucida_Handwriting_v0"/>
      <use fill="#ffffff" height="61.95" transform="matrix(0.0127, 0.0, 0.0, 0.0127, 209.0, 10.45)" width="256.5" xlink:href="#font_Lucida_Handwriting_e0"/>
      <use fill="#ffffff" height="61.95" transform="matrix(0.0127, 0.0, 0.0, 0.0127, 216.6, 10.45)" width="256.5" xlink:href="#font_Lucida_Handwriting_d0"/>
    </g>
    <g transform="matrix(1.0, 0.0, 0.0, 1.0, -2.0, -2.0)">
      <use fill="#ffffff" height="61.95" transform="matrix(0.0127, 0.0, 0.0, 0.0127, 0.0, 25.15)" width="256.5" xlink:href="#font_Lucida_Handwriting_T0"/>
      <use fill="#ffffff" height="61.95" transform="matrix(0.0127, 0.0, 0.0, 0.0127, 8.65, 25.15)" width="256.5" xlink:href="#font_Lucida_Handwriting_h0"/>
      <use fill="#ffffff" height="61.95" transform="matrix(0.0127, 0.0, 0.0, 0.0127, 18.4, 25.15)" width="256.5" xlink:href="#font_Lucida_Handwriting_e0"/>
      <use fill="#ffffff" height="61.95" transform="matrix(0.0127, 0.0, 0.0, 0.0127, 26.0, 25.15)" width="256.5" xlink:href="#font_Lucida_Handwriting_y0"/>
    </g>
    <g transform="matrix(1.0, 0.0, 0.0, 1.0, -2.0, -2.0)">
      <use fill="#ffffff" height="61.95" transform="matrix(0.0127, 0.0, 0.0, 0.0127, 37.9, 25.15)" width="256.5" xlink:href="#font_Lucida_Handwriting_h0"/>
      <use fill="#ffffff" height="61.95" transform="matrix(0.0127, 0.0, 0.0, 0.0127, 47.65, 25.15)" width="256.5" xlink:href="#font_Lucida_Handwriting_a0"/>
      <use fill="#ffffff" height="61.95" transform="matrix(0.0127, 0.0, 0.0, 0.0127, 57.95, 25.15)" width="256.5" xlink:href="#font_Lucida_Handwriting_v0"/>
      <use fill="#ffffff" height="61.95" transform="matrix(0.0127, 0.0, 0.0, 0.0127, 65.3, 25.15)" width="256.5" xlink:href="#font_Lucida_Handwriting_e0"/>
    </g>
    <g transform="matrix(1.0, 0.0, 0.0, 1.0, -2.0, -2.0)">
      <use fill="#ffffff" height="61.95" transform="matrix(0.0127, 0.0, 0.0, 0.0127, 77.3, 25.15)" width="256.5" xlink:href="#font_Lucida_Handwriting_u0"/>
      <use fill="#ffffff" height="61.95" transform="matrix(0.0127, 0.0, 0.0, 0.0127, 87.45, 25.15)" width="256.5" xlink:href="#font_Lucida_Handwriting_s0"/>
    </g>
    <g transform="matrix(1.0, 0.0, 0.0, 1.0, -2.0, -2.0)">
      <use fill="#ffffff" height="61.95" transform="matrix(0.0127, 0.0, 0.0, 0.0127, 97.45, 25.15)" width="256.5" xlink:href="#font_Lucida_Handwriting_p0"/>
      <use fill="#ffffff" height="61.95" transform="matrix(0.0127, 0.0, 0.0, 0.0127, 105.4, 25.15)" width="256.5" xlink:href="#font_Lucida_Handwriting_i0"/>
      <use fill="#ffffff" height="61.95" transform="matrix(0.0127, 0.0, 0.0, 0.0127, 111.15, 25.15)" width="256.5" xlink:href="#font_Lucida_Handwriting_n0"/>
      <use fill="#ffffff" height="61.95" transform="matrix(0.0127, 0.0, 0.0, 0.0127, 121.65, 25.15)" width="256.5" xlink:href="#font_Lucida_Handwriting_n0"/>
      <use fill="#ffffff" height="61.95" transform="matrix(0.0127, 0.0, 0.0, 0.0127, 132.15, 25.15)" width="256.5" xlink:href="#font_Lucida_Handwriting_e0"/>
      <use fill="#ffffff" height="61.95" transform="matrix(0.0127, 0.0, 0.0, 0.0127, 139.75, 25.15)" width="256.5" xlink:href="#font_Lucida_Handwriting_d0"/>
    </g>
    <g transform="matrix(1.0, 0.0, 0.0, 1.0, -2.0, -2.0)">
      <use fill="#ffffff" height="61.95" transform="matrix(0.0127, 0.0, 0.0, 0.0127, 154.4, 25.15)" width="256.5" xlink:href="#font_Lucida_Handwriting_d0"/>
      <use fill="#ffffff" height="61.95" transform="matrix(0.0127, 0.0, 0.0, 0.0127, 164.65, 25.15)" width="256.5" xlink:href="#font_Lucida_Handwriting_o0"/>
      <use fill="#ffffff" height="61.95" transform="matrix(0.0127, 0.0, 0.0, 0.0127, 173.35, 25.15)" width="256.5" xlink:href="#font_Lucida_Handwriting_w0"/>
      <use fill="#ffffff" height="61.95" transform="matrix(0.0127, 0.0, 0.0, 0.0127, 184.25, 25.15)" width="256.5" xlink:href="#font_Lucida_Handwriting_n0"/>
      <use fill="#ffffff" height="61.95" transform="matrix(0.0127, 0.0, 0.0, 0.0127, 194.75, 25.15)" width="256.5" xlink:href="#font_Lucida_Handwriting_.0"/>
    </g>
    <g transform="matrix(1.0, 0.0, 0.0, 1.0, -2.0, -2.0)">
      <use fill="#ffffff" height="61.95" transform="matrix(0.0127, 0.0, 0.0, 0.0127, 0.0, 39.85)" width="256.5" xlink:href="#font_Lucida_Handwriting_k0"/>
      <use fill="#ffffff" height="61.95" transform="matrix(0.0127, 0.0, 0.0, 0.0127, 8.45, 39.85)" width="256.5" xlink:href="#font_Lucida_Handwriting_k0"/>
      <use fill="#ffffff" height="61.95" transform="matrix(0.0127, 0.0, 0.0, 0.0127, 16.9, 39.85)" width="256.5" xlink:href="#font_Lucida_Handwriting_k0"/>
      <use fill="#ffffff" height="61.95" transform="matrix(0.0127, 0.0, 0.0, 0.0127, 25.35, 39.85)" width="256.5" xlink:href="#font_Lucida_Handwriting_k0"/>
    </g>
  </g>
  <defs>
    <g id="font_Lucida_Handwriting_C0">
      <path d="M721.0 -206.5 L721.0 -206.5 Q589.0 -56.0 431.0 -56.0 338.5 -56.0 284.5 -118.5 230.0 -181.5 230.0 -288.5 230.0 -457.0 320.5 -583.0 411.0 -709.0 532.5 -709.0 643.5 -709.0 704.0 -588.0 749.0 -630.5 749.0 -665.5 749.0 -704.5 697.0 -731.5 645.0 -758.5 569.0 -758.5 382.5 -758.5 248.5 -611.5 114.5 -464.5 114.5 -260.0 114.5 -130.5 189.0 -56.0 263.0 18.5 391.0 18.5 508.0 18.5 619.5 -43.5 730.5 -105.5 730.5 -170.5 730.5 -183.5 721.0 -206.5" fill-rule="evenodd" stroke="none"/>
    </g>
    <g id="font_Lucida_Handwriting_e0">
      <path d="M237.5 -256.0 L237.5 -256.0 Q251.5 -360.0 309.0 -432.5 366.5 -505.5 434.5 -505.5 491.5 -505.5 491.5 -441.5 491.5 -370.5 417.0 -316.0 342.0 -261.5 237.5 -256.0 M233.5 -208.0 L233.5 -208.0 Q373.5 -208.0 481.5 -277.0 589.0 -346.0 589.0 -435.5 589.0 -490.0 550.5 -522.5 511.5 -555.0 447.0 -555.0 313.5 -555.0 219.0 -452.0 124.0 -349.0 124.0 -204.0 124.0 -103.5 176.5 -45.5 228.5 12.5 318.5 12.5 459.0 12.5 616.0 -107.5 772.5 -227.5 870.5 -410.0 L828.0 -433.5 Q724.0 -266.5 594.5 -164.5 465.0 -62.0 357.5 -62.0 233.5 -62.0 233.5 -208.0" fill-rule="evenodd" stroke="none"/>
    </g>
    <g id="font_Lucida_Handwriting_a0">
      <path d="M585.0 -425.0 L585.0 -425.0 Q567.0 -401.0 564.5 -397.0 362.0 -83.0 290.5 -83.0 224.5 -83.0 224.5 -184.0 224.5 -310.0 279.5 -401.5 334.5 -493.5 410.5 -493.5 480.0 -493.5 585.0 -425.0 M561.5 -305.5 L561.5 -305.5 Q558.5 -242.0 558.5 -204.5 558.5 -24.5 666.5 -24.5 752.0 -24.5 871.0 -134.5 990.0 -245.0 1082.5 -410.0 L1043.5 -437.0 Q953.0 -297.5 859.5 -207.0 765.5 -117.0 711.5 -117.0 660.5 -117.0 660.5 -226.5 660.5 -321.5 675.0 -392.5 L683.5 -435.0 Q698.5 -510.5 727.0 -554.0 713.5 -554.5 707.5 -554.5 614.5 -554.5 601.5 -508.0 513.5 -555.0 438.0 -555.0 313.0 -555.0 218.5 -436.0 123.5 -317.0 123.5 -160.5 123.5 -82.0 155.5 -34.5 187.0 12.5 240.0 12.5 309.5 12.5 403.5 -80.0 497.5 -173.0 561.5 -305.5" fill-rule="evenodd" stroke="none"/>
    </g>
    <g id="font_Lucida_Handwriting_s0">
      <path d="M345.0 -131.0 L345.0 -131.0 Q356.5 -102.0 356.5 -74.0 356.5 -27.0 329.0 3.0 301.5 32.5 257.5 32.5 198.0 32.5 198.0 -8.5 198.0 -52.0 345.0 -131.0 M430.0 -176.0 L430.0 -176.0 Q603.0 -273.0 710.5 -417.0 L670.5 -441.5 Q596.5 -356.5 548.0 -315.5 499.5 -275.0 404.0 -218.0 L359.5 -299.0 302.5 -404.0 Q389.0 -455.5 389.0 -511.5 389.0 -551.0 321.0 -577.0 210.5 -519.0 210.5 -424.0 210.5 -358.0 283.5 -240.5 L323.5 -176.0 Q209.0 -121.0 160.5 -81.0 111.5 -41.0 111.5 -2.0 111.5 34.5 147.0 60.5 182.5 86.5 233.0 86.5 319.0 86.5 383.0 30.0 447.0 -27.0 447.0 -103.5 447.0 -138.0 430.0 -176.0" fill-rule="evenodd" stroke="none"/>
    </g>
    <g id="font_Lucida_Handwriting_r0">
      <path d="M254.5 -3.5 L254.0 -12.0 Q254.0 -50.0 299.0 -139.0 344.0 -228.5 405.0 -312.5 503.0 -447.5 566.5 -447.5 601.5 -447.5 620.5 -408.0 696.5 -466.0 696.5 -501.0 696.5 -523.5 676.5 -539.0 656.5 -555.0 629.0 -555.0 551.0 -555.0 455.5 -453.0 360.0 -351.5 265.5 -168.0 L293.5 -313.5 Q318.5 -430.5 318.5 -458.0 318.5 -502.5 283.5 -502.5 250.5 -502.5 198.0 -484.5 214.5 -465.0 214.5 -436.0 214.5 -382.5 191.5 -271.5 L166.5 -147.0 Q148.5 -55.5 148.5 -32.5 148.5 12.5 199.5 12.5 220.5 12.5 254.5 -3.5" fill-rule="evenodd" stroke="none"/>
    </g>
    <g id="font_Lucida_Handwriting__0">
      <path d="M96.5 104.5 L96.5 104.5 Q103.5 157.5 138.5 157.5 201.0 157.5 256.5 89.5 311.5 21.5 311.5 -55.5 311.5 -136.0 242.0 -136.0 200.0 -136.0 147.5 -100.0 209.5 -57.5 209.5 5.0 209.5 47.5 184.5 78.0 159.5 108.0 124.0 108.0 113.0 108.0 96.5 104.5" fill-rule="evenodd" stroke="none"/>
    </g>
    <g id="font_Lucida_Handwriting_t0">
      <path d="M511.5 -198.0 L511.5 -198.0 Q490.0 -152.0 439.5 -115.5 388.5 -79.0 345.5 -79.0 262.0 -79.0 262.0 -195.0 262.0 -300.0 322.5 -506.0 325.0 -514.0 330.0 -530.5 L611.0 -530.5 Q667.5 -530.5 688.5 -546.0 709.0 -562.0 721.5 -613.0 685.0 -595.0 615.5 -595.0 L351.5 -595.0 Q393.5 -713.5 432.5 -763.5 416.0 -764.5 408.5 -764.5 344.5 -764.5 312.5 -735.5 280.5 -707.0 257.5 -629.5 L247.5 -595.0 172.0 -595.0 Q126.5 -595.0 107.5 -581.5 88.5 -568.0 59.5 -515.5 91.0 -530.5 144.0 -530.5 L228.5 -530.5 205.5 -446.5 Q156.0 -273.0 156.0 -179.0 156.0 -94.5 194.0 -41.0 231.5 12.5 291.5 12.5 359.5 12.5 442.5 -46.5 525.0 -106.0 525.0 -155.0 525.0 -173.5 511.5 -198.0" fill-rule="evenodd" stroke="none"/>
    </g>
    <g id="font_Lucida_Handwriting_h0">
      <path d="M251.0 -219.5 L251.0 -219.5 Q259.5 -261.5 263.0 -276.5 307.5 -455.5 309.0 -462.5 L391.0 -876.0 Q308.5 -840.0 219.0 -840.0 155.5 -840.0 107.5 -876.0 107.5 -761.5 204.5 -761.5 238.5 -761.5 272.0 -774.0 L169.5 -258.0 Q157.5 -198.0 156.5 -193.5 125.0 -54.5 125.0 -27.0 125.0 12.5 169.5 12.5 205.5 12.5 228.0 0.0 218.5 -12.0 218.5 -24.5 218.5 -62.5 333.5 -266.5 447.5 -469.0 521.0 -469.0 573.0 -469.0 573.0 -318.0 L573.0 -273.5 Q573.0 -143.0 600.0 -85.5 627.0 -28.0 688.5 -28.0 754.5 -28.0 856.5 -139.0 958.0 -250.0 1039.0 -410.5 L997.5 -433.5 Q915.0 -296.5 835.5 -206.0 755.5 -115.5 718.5 -117.0 672.5 -119.5 672.5 -275.5 L672.0 -335.5 Q672.0 -451.5 644.5 -503.0 617.0 -555.0 555.0 -555.0 400.0 -555.0 251.0 -219.5" fill-rule="evenodd" stroke="none"/>
    </g>
    <g id="font_Lucida_Handwriting_n0">
      <path d="M298.5 -179.5 L311.5 -319.0 Q313.0 -333.5 314.5 -349.5 322.0 -422.5 322.0 -452.5 322.0 -509.5 283.0 -509.5 264.5 -509.5 233.5 -498.5 209.0 -490.0 198.5 -486.5 222.5 -456.0 222.5 -403.0 222.5 -365.0 215.0 -296.0 L204.0 -187.5 Q191.0 -59.5 191.0 -43.5 191.0 12.5 241.5 12.5 261.5 12.5 290.5 0.5 284.0 -10.5 284.0 -22.5 284.0 -52.5 322.5 -119.5 333.0 -138.0 369.0 -202.5 515.5 -466.0 581.5 -466.0 607.5 -466.0 618.0 -432.5 628.5 -399.5 628.5 -317.5 L629.0 -274.5 Q629.0 -123.0 655.0 -61.5 680.5 0.0 744.0 0.0 813.0 0.0 900.0 -100.5 987.0 -201.0 1097.0 -408.5 L1055.0 -433.0 Q931.5 -226.0 877.0 -157.5 822.0 -89.0 779.0 -89.0 750.5 -89.0 740.0 -129.0 729.0 -169.5 729.0 -274.5 L728.0 -335.0 Q728.0 -555.0 617.5 -555.0 476.0 -555.0 298.5 -179.5" fill-rule="evenodd" stroke="none"/>
    </g>
    <g id="font_Lucida_Handwriting_k0">
      <path d="M279.0 -285.5 L279.0 -285.5 Q331.0 -188.5 419.0 -112.5 507.5 -37.0 568.5 -37.0 642.0 -37.0 743.5 -140.0 845.0 -243.5 936.0 -411.0 L894.5 -435.0 Q852.0 -363.5 785.5 -281.5 715.5 -195.5 673.5 -163.5 631.0 -132.0 587.5 -132.0 493.5 -132.0 367.5 -331.0 421.5 -384.5 506.0 -433.5 590.5 -482.5 639.5 -488.0 610.0 -555.0 587.0 -555.0 548.0 -555.0 455.5 -481.0 363.0 -407.0 284.0 -312.0 L394.0 -876.0 Q303.5 -832.5 237.0 -832.5 185.5 -832.5 149.0 -869.0 139.0 -824.5 139.0 -807.0 139.0 -754.5 197.5 -754.5 230.0 -754.5 276.0 -771.0 L153.5 -154.0 Q137.0 -71.0 137.0 -34.5 137.0 12.5 178.0 12.5 204.5 12.5 255.5 -4.5 242.5 -28.5 242.5 -57.5 242.5 -104.0 255.0 -166.5 L279.0 -285.5" fill-rule="evenodd" stroke="none"/>
    </g>
    <g id="font_Lucida_Handwriting_g0">
      <path d="M519.0 -37.5 L519.0 -37.5 Q519.0 277.5 328.0 277.5 284.5 277.5 256.5 256.0 228.5 234.5 228.5 201.5 228.5 127.0 401.5 29.5 490.0 -20.0 519.0 -37.5 M567.0 -430.5 L567.0 -430.5 Q502.0 -312.0 414.5 -223.5 326.5 -135.5 273.5 -135.5 219.0 -135.5 219.0 -209.5 219.0 -314.0 284.5 -406.5 350.0 -499.5 424.0 -499.5 502.0 -499.5 567.0 -430.5 M541.5 -300.5 L524.0 -104.0 Q390.0 -27.5 316.5 11.0 205.5 70.0 165.5 111.0 125.0 152.0 125.0 206.5 125.0 262.5 171.5 298.0 218.0 333.0 292.5 333.0 431.5 333.0 528.5 228.5 578.0 175.0 597.0 115.5 616.0 56.0 623.5 -69.5 624.0 -79.0 625.5 -98.5 892.0 -268.0 1002.0 -411.5 L960.0 -438.0 Q843.5 -303.5 629.0 -174.5 L635.5 -225.5 Q671.0 -521.0 710.0 -599.5 632.5 -591.5 613.5 -579.0 594.5 -566.5 584.5 -518.5 510.5 -555.0 446.5 -555.0 322.5 -555.0 217.5 -437.5 112.5 -320.5 112.5 -182.5 112.5 -123.5 147.0 -86.5 181.5 -49.5 236.0 -49.5 309.0 -49.5 401.0 -125.0 493.0 -200.5 541.5 -300.5" fill-rule="evenodd" stroke="none"/>
    </g>
    <g id="font_Lucida_Handwriting_o0">
      <path d="M555.0 -411.0 L555.0 -411.0 Q568.0 -372.5 568.0 -331.5 568.0 -213.5 507.0 -128.5 446.0 -43.0 361.5 -43.0 299.0 -43.0 259.5 -89.0 219.5 -134.5 219.5 -205.5 219.5 -303.5 285.5 -380.0 351.0 -456.5 436.0 -456.5 453.0 -456.5 478.5 -451.0 513.5 -423.5 555.0 -411.0 M668.5 -368.5 L668.5 -368.5 Q739.0 -345.5 794.5 -345.5 878.0 -345.5 957.5 -401.0 L932.5 -443.5 Q864.5 -404.0 806.0 -404.0 716.0 -404.0 633.0 -460.5 552.0 -575.5 430.0 -585.5 413.5 -563.5 413.5 -539.5 413.5 -524.0 426.0 -501.5 407.0 -506.0 390.0 -506.0 279.0 -506.0 197.5 -420.5 115.5 -335.0 115.5 -218.5 115.5 -116.0 179.0 -51.5 242.0 12.5 342.5 12.5 474.0 12.5 572.0 -95.0 670.0 -202.5 670.0 -347.0 670.0 -356.5 668.5 -368.5" fill-rule="evenodd" stroke="none"/>
    </g>
    <g id="font_Lucida_Handwriting_d0">
      <path d="M582.0 -425.0 L582.0 -425.0 Q567.0 -402.5 563.5 -397.0 361.5 -83.0 290.5 -83.0 224.5 -83.0 224.5 -184.0 224.5 -309.5 279.5 -401.5 334.0 -493.5 409.0 -493.5 478.0 -493.5 582.0 -425.0 M555.5 -292.5 L555.5 -292.5 Q543.0 -216.5 543.0 -149.5 543.0 12.5 644.0 12.5 723.5 12.5 857.0 -116.0 990.0 -244.5 1079.0 -407.5 L1038.0 -433.5 Q963.5 -310.5 852.0 -198.0 740.0 -85.5 692.0 -85.5 643.0 -85.5 643.0 -171.5 643.0 -236.0 661.5 -328.0 L770.5 -876.0 Q684.5 -842.0 592.0 -842.0 517.5 -842.0 481.5 -866.5 494.0 -809.0 514.5 -788.5 535.0 -767.5 579.0 -767.5 608.0 -767.5 652.0 -776.5 L598.5 -507.5 Q510.5 -555.0 436.0 -555.0 311.5 -555.0 217.5 -436.0 123.5 -317.5 123.5 -159.5 123.5 -81.0 155.0 -34.0 186.5 12.5 240.0 12.5 307.0 12.5 392.5 -69.5 477.5 -152.0 555.5 -292.5" fill-rule="evenodd" stroke="none"/>
    </g>
    <g id="font_Lucida_Handwriting_y0">
      <path d="M342.5 -3.0 L342.5 -3.0 Q209.0 190.5 62.5 190.5 22.0 190.5 -5.5 173.5 -17.5 204.5 -17.5 227.5 -17.5 284.0 49.5 284.0 124.0 284.0 227.5 201.5 331.0 118.5 436.0 -25.0 527.0 -149.5 606.0 -299.0 684.5 -448.5 684.5 -496.5 684.5 -542.0 597.0 -555.0 583.0 -355.0 414.0 -87.5 388.0 -204.0 335.5 -347.5 302.0 -439.0 280.0 -469.0 257.5 -499.5 224.0 -499.5 185.0 -499.5 148.0 -468.5 211.5 -399.5 266.5 -268.0 321.0 -137.0 342.5 -3.0" fill-rule="evenodd" stroke="none"/>
    </g>
    <g id="font_Lucida_Handwriting_u0">
      <path d="M585.5 -308.0 L585.5 -308.0 Q581.5 -251.5 581.5 -214.0 581.5 -15.5 696.0 -15.5 866.0 -15.5 1071.0 -410.0 L1029.0 -435.0 Q849.0 -105.5 732.0 -105.5 679.0 -105.5 679.0 -215.5 679.0 -287.0 695.5 -369.5 L700.5 -393.5 Q703.5 -408.0 710.0 -432.5 719.0 -467.0 720.0 -472.5 727.5 -501.5 729.5 -509.0 733.5 -521.5 733.5 -528.0 733.5 -555.0 689.5 -555.0 661.0 -555.0 620.0 -543.5 626.0 -533.5 626.0 -523.5 626.0 -452.0 521.0 -284.0 392.5 -77.5 309.0 -77.5 258.0 -77.5 258.0 -151.5 258.0 -199.0 280.0 -290.5 L287.5 -321.0 Q290.0 -332.5 299.0 -363.0 328.0 -464.5 328.0 -486.0 328.0 -520.5 283.5 -520.5 L214.5 -520.0 Q224.0 -502.5 224.0 -487.5 224.0 -472.5 209.5 -415.5 156.5 -205.0 156.5 -126.0 156.5 -64.5 190.5 -26.0 224.5 12.5 279.0 12.5 346.5 12.5 431.5 -76.5 516.5 -165.5 585.5 -308.0" fill-rule="evenodd" stroke="none"/>
    </g>
    <g id="font_Lucida_Handwriting_i0">
      <path d="M280.5 -661.0 L280.5 -661.0 Q269.0 -633.0 269.0 -598.0 269.0 -573.5 289.0 -573.5 319.0 -573.5 404.0 -644.5 460.0 -691.0 482.0 -760.0 446.5 -726.5 384.0 -694.0 321.0 -662.0 287.5 -660.5 L280.5 -661.0 M725.5 -409.0 L684.0 -433.5 Q586.5 -272.5 482.5 -167.0 378.5 -62.0 316.0 -62.0 263.5 -62.0 263.5 -124.0 263.5 -145.0 278.0 -215.5 L297.5 -312.5 Q312.0 -384.5 312.0 -423.0 312.0 -475.0 275.0 -475.0 258.5 -475.0 193.5 -460.0 210.5 -442.0 210.5 -413.5 210.5 -365.5 186.0 -246.5 L175.0 -191.5 Q165.0 -142.5 165.0 -120.0 165.0 -60.5 199.5 -24.0 233.5 12.5 289.5 12.5 381.5 12.5 497.0 -99.5 612.5 -211.0 725.5 -409.0" fill-rule="evenodd" stroke="none"/>
    </g>
    <g id="font_Lucida_Handwriting_v0">
      <path d="M276.0 13.5 L276.0 13.5 Q341.0 8.5 369.0 -6.5 397.0 -21.5 438.0 -73.5 522.0 -180.5 594.0 -300.5 665.5 -420.5 665.5 -454.5 665.5 -492.5 590.5 -522.5 583.0 -437.0 526.0 -319.0 469.0 -201.0 381.5 -90.0 357.0 -294.5 301.0 -438.5 244.5 -583.0 189.5 -583.0 155.0 -583.0 111.5 -561.0 182.0 -485.0 234.5 -335.5 287.0 -186.0 287.0 -62.5 287.0 -30.5 276.0 13.5" fill-rule="evenodd" stroke="none"/>
    </g>
    <g id="font_Lucida_Handwriting_T0">
      <path d="M510.0 -663.0 L570.0 -663.0 Q705.0 -663.0 753.5 -686.5 834.0 -726.0 834.0 -791.0 834.0 -809.0 816.5 -838.5 772.5 -740.0 636.0 -740.0 L297.5 -740.0 Q203.0 -740.0 175.0 -723.5 147.0 -707.0 130.5 -640.5 216.5 -663.0 335.0 -663.0 L404.5 -663.0 285.5 -64.5 Q275.5 -13.0 275.5 -2.5 275.5 18.5 301.5 18.5 342.5 18.5 394.0 -7.0 387.5 -23.0 387.5 -37.0 387.5 -51.5 397.0 -98.5 L510.0 -663.0" fill-rule="evenodd" stroke="none"/>
    </g>
    <g id="font_Lucida_Handwriting_p0">
      <path d="M243.5 -108.5 L301.0 -396.0 Q383.0 -475.0 453.0 -475.0 509.0 -475.0 544.0 -427.5 579.0 -380.0 579.0 -303.5 579.0 -197.5 517.5 -123.5 455.5 -49.5 367.5 -49.5 294.0 -49.5 243.5 -108.5 M228.0 -31.0 L228.0 -31.0 Q276.0 0.0 348.5 0.0 482.5 0.0 580.0 -102.0 677.5 -204.0 677.5 -344.5 677.5 -434.5 624.5 -494.5 571.5 -555.0 492.0 -555.0 401.0 -555.0 316.0 -473.0 L354.5 -666.0 Q269.0 -632.0 176.5 -632.0 102.0 -632.0 65.5 -656.5 78.0 -600.0 99.0 -579.0 119.5 -558.5 163.0 -558.5 192.5 -558.5 236.0 -567.5 L90.0 166.5 Q73.5 249.5 73.5 286.0 73.5 333.0 115.0 333.0 141.5 333.0 192.0 316.5 179.0 292.5 179.0 263.0 179.0 216.5 191.5 154.0 L228.0 -31.0" fill-rule="evenodd" stroke="none"/>
    </g>
    <g id="font_Lucida_Handwriting_w0">
      <path d="M231.0 11.0 L231.0 11.0 Q331.5 11.0 395.0 -74.5 459.5 -162.0 516.0 -290.0 L512.5 -173.5 Q512.5 18.5 626.0 18.5 726.5 18.5 810.5 -137.5 906.5 -316.5 906.5 -453.0 906.5 -546.0 846.5 -546.0 808.0 -546.0 762.5 -511.0 810.0 -492.0 810.0 -397.5 810.0 -264.5 765.5 -163.0 720.5 -61.5 662.0 -61.5 598.0 -61.5 598.0 -201.0 598.0 -250.5 601.5 -290.0 L604.5 -324.0 Q606.5 -342.5 610.5 -366.5 628.0 -465.5 628.0 -476.0 628.0 -509.0 584.5 -509.0 561.5 -509.0 518.0 -493.0 518.5 -481.0 518.5 -476.5 518.5 -415.5 467.5 -307.5 416.5 -200.0 343.0 -105.0 329.0 -331.5 291.5 -457.0 254.5 -583.0 200.5 -583.0 171.0 -583.0 124.5 -562.5 174.5 -507.0 209.0 -370.0 243.5 -233.0 243.5 -91.5 243.5 -33.0 231.0 11.0" fill-rule="evenodd" stroke="none"/>
    </g>
    <g id="font_Lucida_Handwriting_.0">
      <path d="M159.5 -120.0 L159.5 -120.0 Q169.5 -106.0 169.5 -85.5 169.5 -76.0 167.5 -67.5 L165.0 -54.5 Q163.0 -45.0 163.0 -35.0 163.0 2.0 198.5 2.0 208.0 2.0 257.0 -7.0 L280.0 -11.0 286.5 -45.0 Q291.5 -70.5 291.5 -88.5 291.5 -134.0 248.0 -134.0 231.5 -134.0 195.5 -127.0 L159.5 -120.0" fill-rule="evenodd" stroke="none"/>
    </g>
  </defs>
</svg>
