<?xml version="1.0" encoding="UTF-8" standalone="no"?>
<svg xmlns:ffdec="https://www.free-decompiler.com/flash" xmlns:xlink="http://www.w3.org/1999/xlink" ffdec:objectType="text" height="15.2px" width="42.35px" xmlns="http://www.w3.org/2000/svg">
  <g transform="matrix(1.0, 0.0, 0.0, 1.0, -3.85, -1.75)">
    <g transform="matrix(1.0, 0.0, 0.0, 1.0, 0.0, 0.0)">
      <use fill="#ffcc66" height="15.2" transform="matrix(0.0156, 0.0, 0.0, 0.0156, 2.0, 15.0)" width="42.35" xlink:href="#font_Lithos_Pro_Regular_70"/>
      <use fill="#ffcc66" height="15.2" transform="matrix(0.0156, 0.0, 0.0, 0.0156, 13.05, 15.0)" width="42.35" xlink:href="#font_Lithos_Pro_Regular_50"/>
      <use fill="#ffcc66" height="15.2" transform="matrix(0.0156, 0.0, 0.0, 0.0156, 24.1, 15.0)" width="42.35" xlink:href="#font_Lithos_Pro_Regular__0"/>
    </g>
  </g>
  <defs>
    <g id="font_Lithos_Pro_Regular_70">
      <path d="M154.5 -552.0 L154.5 -552.0 150.5 -737.5 Q180.5 -737.0 231.5 -735.5 282.0 -734.0 345.0 -732.5 408.0 -730.5 475.0 -729.0 542.0 -727.5 604.5 -726.5 667.0 -726.0 716.5 -726.0 L728.0 -709.5 Q715.5 -677.0 691.5 -616.5 667.5 -556.0 636.5 -479.5 606.0 -403.0 573.5 -322.5 541.0 -241.5 512.0 -168.5 483.0 -95.5 462.0 -42.5 441.5 11.0 434.0 32.5 L223.0 -57.5 Q229.5 -70.0 248.0 -107.5 267.0 -145.0 293.5 -197.5 320.0 -250.0 349.0 -307.5 377.5 -365.0 403.5 -417.0 429.5 -469.0 447.5 -505.0 465.5 -541.5 470.0 -552.0 L154.5 -552.0" fill-rule="evenodd" stroke="none"/>
    </g>
    <g id="font_Lithos_Pro_Regular_50">
      <path d="M370.0 -568.5 L370.0 -568.5 357.5 -496.0 Q448.0 -488.0 506.0 -468.5 563.5 -449.0 595.0 -421.0 626.5 -393.0 639.0 -359.0 651.0 -325.5 650.5 -289.0 650.0 -221.0 592.5 -155.5 535.5 -90.5 429.0 -41.5 322.5 7.0 174.5 25.5 L145.5 -144.5 Q183.0 -147.0 226.0 -154.5 268.5 -162.0 307.0 -175.5 345.5 -189.5 370.0 -210.5 394.5 -231.0 395.5 -260.5 395.5 -303.0 339.0 -323.5 282.5 -343.5 170.5 -346.5 L217.5 -727.0 Q247.0 -727.5 291.5 -728.5 336.0 -730.0 387.0 -731.5 438.0 -733.0 487.5 -735.0 537.5 -737.0 578.0 -738.5 618.5 -740.0 642.5 -741.5 L641.5 -556.5 370.0 -568.5" fill-rule="evenodd" stroke="none"/>
    </g>
    <g id="font_Lithos_Pro_Regular__0">
      <path d="M375.0 21.5 L375.0 21.5 275.5 -42.0 Q294.0 -73.0 326.0 -126.0 358.5 -179.5 400.5 -249.5 442.5 -319.5 491.5 -401.0 538.0 -478.0 580.5 -547.0 622.5 -616.0 654.5 -668.0 686.0 -720.5 701.5 -748.5 L804.0 -686.0 Q776.0 -649.0 721.5 -564.0 666.5 -479.0 594.0 -357.0 545.5 -275.5 501.0 -199.0 457.0 -123.0 424.0 -65.0 390.5 -6.5 375.0 21.5 M793.5 -99.5 L793.5 -99.5 Q812.5 -99.5 831.0 -109.0 849.0 -119.0 861.0 -139.5 873.0 -160.5 873.5 -193.5 872.5 -244.0 850.5 -267.5 829.0 -291.5 801.0 -291.0 762.0 -290.0 741.0 -262.0 720.0 -234.0 720.0 -190.5 720.5 -145.0 741.0 -122.5 761.5 -99.5 793.5 -99.5 M791.5 0.0 L791.5 0.0 Q713.5 -1.0 665.0 -26.5 616.5 -52.5 594.0 -94.5 571.5 -136.5 571.5 -186.5 571.5 -237.5 597.0 -285.5 622.5 -334.0 675.0 -365.5 728.0 -397.5 809.0 -398.5 913.0 -399.0 968.0 -349.0 1022.5 -299.5 1023.0 -194.5 1023.5 -170.0 1012.0 -137.5 1001.0 -105.0 975.0 -73.5 948.5 -42.0 904.0 -21.5 859.0 -1.0 791.5 0.0 M263.0 -432.0 L263.0 -432.0 Q298.5 -432.0 320.5 -455.0 342.5 -477.5 343.0 -525.5 342.0 -578.5 321.0 -601.0 299.5 -623.0 269.5 -622.5 229.5 -621.5 209.5 -593.0 189.5 -565.0 189.5 -522.5 190.5 -477.5 212.0 -455.0 233.5 -432.0 263.0 -432.0 M261.0 -328.5 L261.0 -328.5 Q183.0 -329.5 134.5 -355.0 86.0 -380.5 63.5 -423.0 41.0 -465.0 41.0 -514.5 41.0 -565.0 66.0 -613.5 91.5 -661.5 144.0 -693.0 197.0 -725.0 278.5 -726.0 382.0 -726.5 437.0 -676.5 492.0 -627.0 492.5 -522.5 493.0 -498.0 481.5 -465.5 470.5 -433.0 444.5 -402.0 418.0 -370.5 373.5 -350.0 328.5 -329.5 261.0 -328.5" fill-rule="evenodd" stroke="none"/>
    </g>
  </defs>
</svg>
