<?xml version="1.0" encoding="UTF-8" standalone="no"?>
<svg xmlns:ffdec="https://www.free-decompiler.com/flash" xmlns:xlink="http://www.w3.org/1999/xlink" ffdec:objectType="text" height="15.25px" width="28.35px" xmlns="http://www.w3.org/2000/svg">
  <g transform="matrix(1.0, 0.0, 0.0, 1.0, -17.85, -1.8)">
    <g transform="matrix(1.0, 0.0, 0.0, 1.0, 0.0, 0.0)">
      <use fill="#ffcc66" height="15.25" transform="matrix(0.0156, 0.0, 0.0, 0.0156, 18.0, 15.0)" width="28.35" xlink:href="#font_Lithos_Pro_Regular_x0"/>
      <use fill="#ffcc66" height="15.25" transform="matrix(0.0156, 0.0, 0.0, 0.0156, 27.65, 15.0)" width="28.35" xlink:href="#font_Lithos_Pro_Regular_20"/>
    </g>
  </g>
  <defs>
    <g id="font_Lithos_Pro_Regular_x0">
      <path d="M172.0 39.0 L22.5 -102.5 Q30.0 -110.5 59.0 -139.5 88.0 -168.0 124.5 -204.5 161.0 -240.5 192.0 -271.0 222.5 -301.5 233.5 -313.0 215.0 -332.0 186.0 -362.0 156.5 -391.5 126.0 -423.0 95.5 -454.5 72.0 -478.5 49.0 -502.0 43.0 -508.5 L208.0 -651.0 Q224.0 -632.0 248.5 -602.5 273.0 -572.5 299.0 -540.5 325.5 -508.0 347.0 -482.0 369.0 -455.5 379.0 -444.0 389.0 -455.5 412.5 -482.0 435.5 -508.5 464.0 -541.0 492.0 -573.5 518.0 -603.5 544.0 -633.0 560.0 -651.0 L715.0 -513.0 Q705.0 -503.0 676.0 -476.5 647.0 -450.0 611.5 -418.0 575.5 -386.0 546.5 -359.0 517.0 -332.5 507.0 -322.5 520.5 -308.5 551.5 -278.0 583.0 -247.0 619.0 -211.0 655.0 -175.5 683.0 -147.0 711.5 -119.0 720.0 -110.5 L555.0 38.0 Q542.5 23.5 516.0 -7.5 489.5 -38.5 458.5 -75.0 427.5 -111.5 401.0 -142.5 374.5 -173.5 361.5 -188.5 353.0 -179.0 326.5 -147.0 300.0 -115.0 267.0 -75.5 234.5 -36.0 208.0 -3.5 181.0 29.0 172.0 39.0" fill-rule="evenodd" stroke="none"/>
    </g>
    <g id="font_Lithos_Pro_Regular_20">
      <path d="M662.0 -182.0 L662.0 -182.0 662.0 8.5 Q652.0 7.0 603.5 5.5 555.0 4.0 481.0 3.0 407.0 1.5 320.0 0.5 233.0 0.0 145.5 0.0 L107.5 0.0 92.0 -36.0 Q114.5 -55.5 150.5 -86.5 187.0 -118.0 228.0 -157.0 269.0 -196.0 306.0 -239.5 342.5 -283.0 366.0 -327.5 389.5 -372.0 390.0 -413.5 389.0 -463.5 364.0 -495.0 338.5 -526.0 299.0 -543.0 259.5 -560.0 217.0 -567.0 174.0 -573.5 138.0 -574.5 L171.0 -744.5 Q334.5 -730.0 436.0 -688.0 537.5 -646.0 584.5 -587.0 631.0 -528.0 630.5 -461.5 629.5 -402.5 606.5 -355.5 583.5 -308.5 550.5 -273.0 517.0 -237.5 486.0 -214.0 454.5 -190.0 437.0 -178.0 L437.0 -170.0 662.0 -182.0" fill-rule="evenodd" stroke="none"/>
    </g>
  </defs>
</svg>
