<?xml version="1.0" encoding="UTF-8" standalone="no"?>
<svg xmlns:ffdec="https://www.free-decompiler.com/flash" xmlns:xlink="http://www.w3.org/1999/xlink" ffdec:objectType="shape" height="93.1px" width="82.3px" xmlns="http://www.w3.org/2000/svg">
  <g transform="matrix(1.0, 0.0, 0.0, 1.0, 47.6, 55.15)">
    <path d="M5.45 -37.35 Q5.85 -36.65 6.55 -36.15 6.75 -34.4 9.1 -32.2 11.9 -29.55 15.85 -27.8 18.9 -26.45 21.3 -24.6 L26.45 -20.25 Q31.15 -16.35 31.9 -10.4 L32.7 -0.25 32.6 0.35 32.95 0.65 32.85 0.8 32.55 1.1 32.45 1.45 32.2 1.75 30.7 1.75 30.7 2.7 30.65 3.75 30.7 4.3 30.6 7.45 31.2 8.0 32.7 9.6 Q33.5 10.55 33.7 11.45 L34.45 15.3 34.7 18.5 Q34.7 22.7 33.5 26.85 31.85 32.6 31.2 37.25 30.85 37.7 30.2 37.95 28.95 37.2 28.8 35.35 L28.45 32.0 27.1 29.0 26.45 27.35 Q22.2 33.8 20.7 37.25 20.35 37.7 19.7 37.95 18.2 36.8 18.05 34.0 L17.7 29.75 Q17.0 27.6 16.8 24.55 L10.75 25.0 5.6 24.6 5.35 24.65 Q-0.8 24.3 -1.85 22.5 L-2.15 21.75 -2.35 21.75 -2.75 21.75 -3.05 22.5 Q-3.8 23.75 -5.45 24.45 L-21.75 25.5 Q-27.95 25.35 -30.5 23.8 -32.0 22.9 -32.0 21.55 -32.0 20.25 -30.4 19.15 -32.55 18.7 -35.0 17.5 -39.5 15.35 -39.5 13.0 -39.5 11.25 -38.25 10.05 L-37.15 9.3 -38.55 8.5 -39.3 8.55 -40.35 7.5 -41.8 5.6 Q-44.0 3.35 -44.0 2.5 -44.0 1.75 -43.6 0.65 L-43.5 0.4 -43.45 -0.45 -43.0 -1.35 -40.25 -1.6 -41.4 -2.65 -44.35 -6.0 Q-47.0 -8.7 -47.3 -9.35 -47.5 -9.8 -47.5 -12.35 -47.8 -14.25 -47.05 -15.85 -46.15 -17.8 -43.85 -17.95 L-45.85 -20.05 Q-47.5 -22.1 -47.5 -24.35 L-47.3 -26.2 -46.75 -28.65 Q-45.5 -31.2 -42.15 -30.15 L-42.25 -30.45 -42.5 -35.1 Q-42.5 -40.85 -41.25 -43.1 -39.45 -46.3 -35.5 -42.25 L-35.5 -42.5 Q-35.5 -47.6 -32.7 -52.25 -29.25 -57.9 -25.0 -52.5 L-25.5 -52.2 -22.0 -41.9 Q-19.65 -34.55 -17.85 -30.75 L-16.7 -27.7 Q-15.95 -25.55 -15.35 -24.75 L-15.1 -24.4 Q-14.15 -25.0 -12.35 -24.75 L-11.9 -25.0 -8.8 -27.0 -6.9 -29.15 -5.05 -31.25 Q-3.95 -32.25 -2.45 -36.05 -0.4 -38.85 4.5 -37.4 L5.45 -37.35 M29.35 -11.75 Q28.8 -13.75 27.9 -15.3 26.45 -17.75 24.2 -19.25 L18.4 -23.3 Q14.1 -26.2 11.6 -27.3 7.75 -29.0 5.8 -31.8 5.2 -32.7 3.85 -35.8 L1.85 -35.35 1.7 -35.35 Q0.45 -35.15 -0.3 -34.65 -1.1 -34.15 -1.3 -33.3 -1.5 -32.45 -2.45 -31.0 -3.5 -29.4 -4.9 -28.05 -7.25 -25.8 -10.0 -23.85 -10.7 -23.35 -12.65 -22.0 L-12.85 -22.25 -13.25 -22.0 -13.45 -21.9 -11.75 -19.1 -7.95 -13.75 -5.65 -10.25 Q-4.5 -8.35 -4.5 -7.85 L-4.55 -6.9 Q-4.0 -5.35 -4.0 -4.0 L-4.35 -1.25 -4.35 -1.05 -4.15 -1.05 -3.95 -0.9 -3.85 -0.65 -3.4 -0.7 5.4 -0.7 6.35 -1.05 9.8 -0.65 28.0 -0.3 28.05 -0.3 30.1 -0.25 30.25 -0.25 30.25 -0.55 30.3 -3.65 Q30.25 -7.5 29.8 -9.85 L29.5 -11.3 29.35 -11.75 M21.7 3.95 L21.55 2.95 21.35 2.7 Q18.2 1.85 18.2 4.05 18.2 4.8 18.35 4.95 L18.45 5.2 19.95 5.45 Q21.7 5.45 21.7 3.95 M28.7 14.95 Q29.5 15.55 29.65 16.45 L29.7 17.95 Q29.7 21.85 27.6 25.55 28.25 25.8 29.05 27.05 L30.1 28.95 31.7 23.7 Q32.7 20.6 32.7 18.45 32.45 15.2 31.5 12.7 30.2 9.2 28.15 9.25 24.1 11.4 21.5 14.9 18.7 18.7 18.7 22.25 L18.7 22.45 19.0 22.8 18.8 23.3 19.45 27.3 20.2 31.95 26.6 23.2 Q27.25 22.25 27.6 19.1 27.95 16.0 28.7 14.95 M15.65 3.4 L15.65 3.5 16.1 3.45 15.65 3.4 M12.5 1.5 L5.3 1.5 5.3 1.45 -0.45 1.35 -0.6 1.8 -0.65 1.85 -0.35 5.9 -0.35 11.1 -0.2 17.2 Q0.15 19.7 1.1 21.25 L1.25 21.15 1.5 21.1 1.5 21.25 1.65 21.3 1.8 21.5 2.75 21.5 Q3.45 22.0 4.75 22.0 L5.05 22.15 10.65 22.75 15.5 22.25 15.5 22.2 13.6 18.75 13.5 15.8 Q13.5 14.85 14.25 12.3 L15.0 9.8 Q12.5 3.35 12.5 1.9 L12.5 1.5 M16.5 12.35 Q15.55 14.45 15.5 15.5 L15.5 15.65 15.5 15.9 Q15.55 17.8 16.15 18.85 L16.7 19.7 16.75 18.35 Q16.95 17.6 19.2 13.7 20.7 11.1 23.0 9.5 L17.35 10.45 16.5 12.35 M-7.3 -8.65 Q-12.5 -16.3 -15.7 -21.7 L-16.0 -21.75 -16.05 -22.35 -19.35 -28.5 Q-20.8 -31.7 -23.9 -41.0 -27.0 -50.25 -27.0 -51.35 L-26.95 -51.7 -27.35 -51.8 -28.0 -52.35 Q-31.3 -52.35 -32.75 -47.55 L-33.5 -42.65 Q-33.5 -41.0 -32.9 -39.15 L-32.5 -38.8 Q-31.55 -37.8 -31.5 -36.0 L-31.6 -35.75 Q-31.75 -35.5 -32.5 -35.5 -33.25 -35.5 -34.25 -37.3 L-34.75 -37.75 -36.4 -39.25 -38.85 -42.25 Q-40.15 -39.55 -40.4 -38.25 L-40.5 -35.3 Q-40.5 -32.65 -39.75 -30.6 L-38.6 -28.8 -38.25 -28.15 -37.3 -27.45 -35.5 -24.85 -35.75 -24.3 Q-35.95 -24.0 -36.75 -24.0 -37.5 -24.0 -38.95 -25.25 L-40.05 -26.5 Q-41.05 -26.65 -42.05 -27.65 -43.05 -28.7 -44.5 -28.25 L-45.15 -24.75 Q-45.05 -23.05 -44.25 -22.0 L-42.05 -19.2 -41.05 -17.65 -40.35 -17.5 -40.15 -17.35 Q-40.0 -17.25 -40.0 -16.5 L-40.1 -15.75 -40.35 -15.5 Q-44.15 -15.4 -45.15 -14.3 -45.5 -13.95 -45.5 -12.8 -45.5 -10.35 -42.35 -6.65 -39.15 -2.9 -35.85 -1.75 L-35.5 -1.0 Q-35.75 -0.05 -36.85 0.0 L-37.0 0.05 -41.3 0.75 -41.6 1.6 Q-41.55 3.05 -39.6 4.85 L-37.7 6.05 -33.35 8.75 -33.15 8.65 -33.0 9.0 -33.0 9.1 -33.0 9.5 Q-33.0 9.85 -35.25 11.1 -37.5 12.35 -37.5 13.0 -37.5 14.35 -32.6 15.8 -27.1 17.4 -26.5 18.0 L-26.55 18.85 Q-26.65 19.3 -27.05 19.45 -27.2 19.95 -27.7 20.15 -28.85 20.6 -29.6 21.5 -28.15 22.45 -25.1 22.9 L-20.75 23.25 -13.85 22.3 -6.65 21.1 -6.5 21.0 -6.3 21.05 -6.0 21.0 -5.7 21.05 Q-4.85 20.25 -4.6 19.1 L-4.75 18.35 -5.05 17.6 -5.0 16.1 -5.55 13.3 -5.6 12.45 -5.75 12.0 -5.85 11.7 Q-6.8 8.75 -6.95 5.9 L-7.0 4.8 -6.85 2.3 -7.0 2.25 -7.0 1.05 -7.1 1.05 -7.0 0.5 -6.6 -1.35 Q-6.0 -2.45 -6.0 -4.1 -6.0 -6.0 -7.4 -8.6 L-7.3 -8.65" fill="#000000" fill-rule="evenodd" stroke="none"/>
    <path d="M30.1 -0.25 L30.25 -0.55 30.25 -0.25 30.1 -0.25" fill="#5b6171" fill-rule="evenodd" stroke="none"/>
    <path d="M21.7 3.95 Q21.7 5.45 19.95 5.45 L18.45 5.2 18.35 4.95 Q18.2 4.8 18.2 4.05 18.2 1.85 21.35 2.7 L21.55 2.95 21.7 3.95" fill="#ffffff" fill-rule="evenodd" stroke="none"/>
    <path d="M16.5 12.35 L17.35 10.45 23.0 9.5 Q20.7 11.1 19.2 13.7 16.95 17.6 16.75 18.35 L16.7 19.7 16.15 18.85 Q15.55 17.8 15.5 15.9 L15.5 15.65 15.5 15.5 Q15.55 14.45 16.5 12.35" fill="#cdac98" fill-rule="evenodd" stroke="none"/>
    <path d="M-7.4 -8.6 Q-6.0 -6.0 -6.0 -4.1 -6.0 -2.45 -6.6 -1.35 L-7.0 0.5 -7.1 1.05 -7.0 1.05 -7.0 2.25 -6.85 2.3 -7.0 4.8 -6.95 5.9 Q-6.8 8.75 -5.85 11.7 L-5.75 12.0 -5.6 12.45 -5.55 13.3 -5.0 16.1 -5.05 17.6 -4.75 18.35 -4.6 19.1 Q-4.85 20.25 -5.7 21.05 L-6.0 21.0 -6.3 21.05 -6.5 21.0 -6.65 21.1 -13.85 22.3 -20.75 23.25 -25.1 22.9 Q-28.15 22.45 -29.6 21.5 -28.85 20.6 -27.7 20.15 -27.2 19.95 -27.05 19.45 -26.65 19.3 -26.55 18.85 L-26.5 18.0 Q-27.1 17.4 -32.6 15.8 -37.5 14.35 -37.5 13.0 -37.5 12.35 -35.25 11.1 -33.0 9.85 -33.0 9.5 L-33.0 9.1 -33.0 9.0 -33.15 8.65 -33.35 8.75 -37.7 6.05 -39.6 4.85 Q-41.55 3.05 -41.6 1.6 L-41.3 0.75 -37.0 0.05 -36.85 0.0 Q-35.75 -0.05 -35.5 -1.0 L-35.85 -1.75 Q-39.15 -2.9 -42.35 -6.65 -45.5 -10.35 -45.5 -12.8 -45.5 -13.95 -45.15 -14.3 -44.15 -15.4 -40.35 -15.5 L-40.1 -15.75 -40.0 -16.5 Q-40.0 -17.25 -40.15 -17.35 L-40.35 -17.5 -41.05 -17.65 -42.05 -19.2 -44.25 -22.0 Q-45.05 -23.05 -45.15 -24.75 L-44.5 -28.25 Q-43.05 -28.7 -42.05 -27.65 -41.05 -26.65 -40.05 -26.5 L-38.95 -25.25 Q-37.5 -24.0 -36.75 -24.0 -35.95 -24.0 -35.75 -24.3 L-35.5 -24.85 -37.3 -27.45 -38.25 -28.15 -38.6 -28.8 -39.75 -30.6 Q-40.5 -32.65 -40.5 -35.3 L-40.4 -38.25 Q-40.15 -39.55 -38.85 -42.25 L-36.4 -39.25 -34.75 -37.75 -34.25 -37.3 Q-33.25 -35.5 -32.5 -35.5 -31.75 -35.5 -31.6 -35.75 L-31.5 -36.0 Q-31.55 -37.8 -32.5 -38.8 L-32.9 -39.15 Q-33.5 -41.0 -33.5 -42.65 L-32.75 -47.55 Q-31.3 -52.35 -28.0 -52.35 L-27.35 -51.8 -26.95 -51.7 -27.0 -51.35 Q-27.0 -50.25 -23.9 -41.0 -20.8 -31.7 -19.35 -28.5 L-16.05 -22.35 -16.0 -21.75 -15.7 -21.7 Q-12.5 -16.3 -7.3 -8.65 L-7.4 -8.6" fill="#c0cfc7" fill-rule="evenodd" stroke="none"/>
    <path d="M-3.4 -0.7 L-3.85 -0.65 -3.95 -0.9 -3.4 -0.7" fill="#333333" fill-rule="evenodd" stroke="none"/>
    <path d="M28.7 14.95 Q27.95 16.0 27.6 19.1 27.25 22.25 26.6 23.2 L20.2 31.95 19.45 27.3 18.8 23.3 19.0 22.8 18.7 22.45 18.7 22.25 Q18.7 18.7 21.5 14.9 24.1 11.4 28.15 9.25 30.2 9.2 31.5 12.7 32.45 15.2 32.7 18.45 32.7 20.6 31.7 23.7 L30.1 28.95 29.05 27.05 Q28.25 25.8 27.6 25.55 29.7 21.85 29.7 17.95 L29.65 16.45 Q29.5 15.55 28.7 14.95" fill="#8b8249" fill-rule="evenodd" stroke="none"/>
    <path d="M-3.95 -0.9 L-4.15 -1.05 -3.4 -0.7 -3.95 -0.9" fill="#52535f" fill-rule="evenodd" stroke="none"/>
    <path d="M-12.65 -22.0 L-12.3 -21.5 -10.4 -19.0 -9.05 -20.25 -7.0 -21.45 -6.4 -22.15 -2.55 -25.5 Q-2.1 -25.9 -0.5 -28.55 L0.75 -29.7 0.8 -29.75 0.8 -29.7 3.35 -29.8 3.55 -29.55 3.7 -29.1 4.45 -28.55 6.95 -25.95 8.1 -25.25 Q9.85 -24.05 15.3 -21.2 19.65 -18.9 21.7 -17.0 27.1 -12.0 27.75 -4.0 L28.0 -0.3 9.8 -0.65 6.35 -1.05 5.4 -0.7 -3.4 -0.7 -4.15 -1.05 -4.35 -1.05 -4.35 -1.25 -4.0 -4.0 Q-4.0 -5.35 -4.55 -6.9 L-4.5 -7.85 Q-4.5 -8.35 -5.65 -10.25 L-7.95 -13.75 -11.75 -19.1 -13.45 -21.9 -13.25 -22.0 -12.85 -22.25 -12.65 -22.0 M12.5 1.5 L12.5 1.9 Q12.5 3.35 15.0 9.8 L14.25 12.3 Q13.5 14.85 13.5 15.8 L13.6 18.75 15.5 22.2 15.5 22.25 10.65 22.75 5.05 22.15 4.75 22.0 Q3.45 22.0 2.75 21.5 L1.8 21.5 1.65 21.3 1.5 21.25 1.5 21.1 1.25 21.15 1.1 21.25 Q0.15 19.7 -0.2 17.2 L-0.35 11.1 -0.35 5.9 -0.65 1.85 -0.6 1.8 -0.45 1.35 5.3 1.45 5.3 1.5 12.5 1.5" fill="#4e5963" fill-rule="evenodd" stroke="none"/>
    <path d="M-12.65 -22.0 Q-10.7 -23.35 -10.0 -23.85 -7.25 -25.8 -4.9 -28.05 -3.5 -29.4 -2.45 -31.0 -1.5 -32.45 -1.3 -33.3 -1.1 -34.15 -0.3 -34.65 0.45 -35.15 1.7 -35.35 L1.85 -35.35 3.85 -35.8 Q5.2 -32.7 5.8 -31.8 7.75 -29.0 11.6 -27.3 14.1 -26.2 18.4 -23.3 L24.2 -19.25 Q26.45 -17.75 27.9 -15.3 28.8 -13.75 29.35 -11.75 L29.35 -11.3 29.5 -11.3 29.8 -9.85 Q30.25 -7.5 30.3 -3.65 L30.25 -0.55 30.1 -0.25 28.05 -0.3 28.0 -0.3 27.75 -4.0 Q27.1 -12.0 21.7 -17.0 19.65 -18.9 15.3 -21.2 9.85 -24.05 8.1 -25.25 L6.95 -25.95 4.45 -28.55 3.7 -29.1 3.55 -29.55 3.35 -29.8 0.8 -29.7 0.8 -29.75 0.75 -29.7 -0.5 -28.55 Q-2.1 -25.9 -2.55 -25.5 L-6.4 -22.15 -7.0 -21.45 -9.05 -20.25 -10.4 -19.0 -12.3 -21.5 -12.65 -22.0" fill="#6c7b88" fill-rule="evenodd" stroke="none"/>
  </g>
</svg>
