<?xml version="1.0" encoding="UTF-8" standalone="no"?>
<svg xmlns:ffdec="https://www.free-decompiler.com/flash" xmlns:xlink="http://www.w3.org/1999/xlink" ffdec:objectType="shape" height="72.8px" width="711.75px" xmlns="http://www.w3.org/2000/svg">
  <g transform="matrix(1.0, 0.0, 0.0, 1.0, 355.85, 36.4)">
    <path d="M-326.65 -5.1 L-326.65 -5.0 -327.15 -4.85 -327.15 -5.1 -326.9 -15.2 -326.8 -18.0 -339.25 -18.1 -343.65 -18.15 Q-343.35 -17.15 -343.35 -15.85 L-343.55 -11.1 Q-343.45 -9.35 -343.5 -6.55 L-343.5 -6.2 -343.5 -5.8 Q-344.0 -5.1 -344.0 -3.85 -344.0 -3.05 -343.7 -2.8 L-343.55 -2.7 -343.55 -1.8 -343.4 5.85 -343.05 16.45 -343.35 23.9 -343.4 25.35 Q-344.35 25.75 -344.75 26.05 L-343.45 25.75 -343.9 33.9 Q-329.65 33.7 -298.15 33.65 -174.4 33.3 277.7 33.4 L278.65 34.5 278.0 33.4 307.9 33.4 314.35 33.4 336.55 33.55 348.35 33.7 348.35 7.65 348.8 6.75 348.7 6.0 348.55 5.8 348.35 6.1 348.35 -4.8 348.2 -5.0 Q347.9 -5.4 347.9 -6.25 L348.0 -7.0 348.2 -7.5 348.4 -7.7 348.4 -7.75 348.45 -9.0 348.5 -9.25 348.35 -9.3 348.35 -18.6 346.65 -18.6 345.05 -18.6 344.0 -16.4 Q341.35 -10.85 340.55 -7.85 L340.45 -7.85 340.15 -7.85 340.2 -7.95 Q340.95 -11.55 343.7 -17.2 L344.4 -18.6 332.05 -18.35 331.7 -18.35 330.4 -18.35 330.95 -17.5 334.9 -11.0 335.15 -10.3 335.15 -9.5 335.05 -9.35 334.65 -9.35 Q333.9 -12.0 330.25 -17.55 L329.75 -18.35 313.35 -18.35 Q309.2 -11.9 307.9 -8.85 L307.7 -8.95 307.65 -9.85 Q307.65 -11.2 311.9 -17.4 L312.85 -18.7 313.05 -19.6 312.45 -18.35 295.4 -18.35 Q296.15 -15.85 298.5 -12.5 L300.15 -10.15 300.25 -10.05 301.65 -8.15 301.15 -7.85 297.3 -13.1 Q294.55 -16.65 294.55 -18.35 L278.95 -18.35 270.15 -9.35 278.05 -18.35 15.9 -18.2 -237.0 -18.0 Q-239.65 -14.9 -243.55 -11.4 -242.45 -12.5 -239.3 -16.6 L-238.15 -18.0 -246.8 -18.0 -246.35 -16.2 -244.65 -9.25 -244.65 -7.0 -245.15 -6.85 -246.95 -14.9 -247.55 -18.0 -265.25 -18.0 -270.55 -18.0 -270.9 -17.5 Q-270.9 -16.7 -268.2 -11.7 L-265.55 -6.8 -265.65 -6.25 -265.8 -5.85 -268.85 -11.15 Q-271.8 -16.45 -271.8 -17.65 L-271.55 -18.0 -296.9 -17.9 Q-299.05 -15.4 -299.05 -14.25 L-298.8 -12.55 -298.75 -12.5 -298.8 -12.5 -298.05 -9.35 Q-297.25 -6.25 -296.65 -4.85 L-296.7 -4.65 -297.15 -4.35 -298.8 -9.05 -299.7 -12.8 -302.9 -13.75 Q-305.4 -14.5 -306.35 -15.6 -306.95 -16.25 -307.6 -17.9 L-322.35 -17.95 -326.25 -18.0 -326.65 -5.1 M354.35 -35.3 L355.2 -32.5 355.85 -28.95 355.9 -27.65 Q355.7 -27.0 354.25 -27.0 353.25 -27.0 353.15 -25.75 L353.2 -24.75 353.35 -24.65 353.7 -24.45 353.95 -24.25 354.85 -23.1 354.85 -22.15 354.6 -20.05 354.35 -19.9 354.55 -17.8 354.35 -13.4 354.65 -9.1 354.85 -4.75 354.85 24.5 Q354.85 25.85 355.4 31.25 355.3 35.95 351.85 35.95 349.3 35.95 348.85 35.35 L348.75 34.8 341.0 34.85 Q323.25 34.85 314.35 35.1 L-342.55 35.0 -344.0 35.0 -344.05 35.35 -344.4 35.6 -344.95 35.9 -345.0 36.0 -346.0 36.2 -347.3 36.4 Q-348.2 36.4 -348.8 34.85 L-355.85 34.2 -349.05 33.95 -349.05 30.3 -349.05 19.1 -349.0 14.9 Q-348.95 11.0 -349.05 9.05 L-348.95 6.85 -348.55 5.1 -348.55 -1.3 -348.85 -7.2 -349.2 -12.5 -349.1 -13.6 -349.05 -18.45 Q-351.4 -18.65 -351.4 -18.95 -351.4 -19.6 -349.05 -19.65 L-349.05 -23.15 -349.05 -23.4 -349.05 -23.55 Q-351.4 -23.75 -351.4 -24.05 -351.4 -24.7 -349.05 -24.75 L-349.05 -25.25 Q-348.6 -29.85 -349.0 -34.15 -351.4 -34.35 -351.4 -34.65 -351.4 -35.25 -349.15 -35.35 L-349.15 -35.5 -348.55 -36.15 -347.55 -35.4 -339.25 -35.7 344.25 -35.6 350.55 -35.45 Q351.4 -36.3 352.45 -36.4 353.65 -36.5 354.35 -35.3 M351.8 -19.65 L352.25 -19.6 351.85 -19.8 351.8 -19.65 M-346.05 -33.5 L-346.0 -34.0 -346.25 -34.0 -346.05 -33.5 M-346.4 -24.8 L-346.55 -24.8 -346.4 -24.75 -346.4 -24.8 M-346.75 -22.95 L-346.55 -23.4 -346.65 -23.2 -346.7 -23.15 -346.75 -22.95 M-307.15 -18.4 Q-306.4 -16.8 -305.35 -15.6 -304.85 -15.0 -302.1 -14.0 L-299.75 -13.05 -299.8 -14.1 Q-299.8 -15.75 -298.0 -17.9 L-302.75 -17.9 -306.5 -17.9 -306.25 -18.3 -307.0 -18.35 -307.15 -18.4" fill="#473a29" fill-rule="evenodd" stroke="none"/>
    <path d="M270.0 18.5 L262.9 27.55 262.65 27.3 267.55 21.0 Q272.05 14.95 272.05 13.6 272.05 12.9 269.1 5.95 266.15 -1.0 266.15 -2.25 266.15 -4.75 267.15 -5.95 L269.95 -8.9 Q257.35 -9.25 230.0 -9.25 L200.8 -9.6 181.9 -8.5 175.75 -7.65 172.9 -7.5 164.9 -7.5 164.8 -7.25 164.55 -7.0 149.3 -7.0 149.1 -7.1 148.95 -7.5 146.3 -7.5 146.25 -7.5 145.9 -7.5 Q145.3 -7.8 143.9 -8.1 L133.5 -8.75 123.9 -8.4 118.95 -7.6 Q109.3 -6.5 68.0 -6.5 L40.6 -7.6 30.65 -8.75 Q24.6 -8.75 21.15 -7.85 L15.75 -6.75 Q3.0 -5.85 -17.5 -6.0 L-36.45 -6.55 -47.1 -7.5 Q-91.45 -7.45 -106.0 -6.45 L-129.25 -5.5 Q-137.1 -6.05 -176.5 -6.5 L-178.65 -6.85 -181.25 -7.25 -184.15 -6.8 -188.0 -6.0 -190.1 -6.0 -190.15 -6.15 -190.4 -6.55 -202.5 -6.75 -209.05 -6.15 -216.5 -5.5 -240.25 -4.5 -244.25 -4.65 -242.75 0.25 Q-242.75 1.9 -249.55 7.9 L-249.1 9.3 Q-248.25 11.95 -245.55 16.85 -243.25 21.1 -243.25 21.75 L-247.4 26.4 Q-251.75 31.0 -252.35 32.55 L-252.75 32.55 Q-252.3 31.35 -248.2 26.6 -244.25 22.05 -244.25 21.35 L-248.75 11.05 Q-253.25 0.3 -253.25 -2.55 L-253.0 -2.6 -253.0 -2.65 -253.0 -2.75 -252.95 -2.65 -249.6 7.7 Q-249.1 6.7 -246.5 4.1 -243.25 0.9 -243.25 0.25 -243.25 -0.55 -244.55 -3.15 L-245.4 -4.85 Q-246.2 -5.05 -246.55 -5.35 -247.65 -6.25 -257.5 -6.25 L-265.8 -5.85 -265.65 -6.25 -265.55 -6.8 -268.2 -11.7 Q-270.9 -16.7 -270.9 -17.5 L-270.55 -18.0 -265.25 -18.0 -247.55 -18.0 -246.95 -14.9 -245.15 -6.85 -244.65 -7.0 -244.65 -9.25 -246.35 -16.2 -246.8 -18.0 -238.15 -18.0 -239.3 -16.6 Q-242.45 -12.5 -243.55 -11.4 -239.65 -14.9 -237.0 -18.0 L15.9 -18.2 278.05 -18.35 270.15 -9.35 278.95 -18.35 294.55 -18.35 Q294.55 -16.65 297.3 -13.1 L301.15 -7.85 301.65 -8.15 300.25 -10.05 300.15 -10.55 300.15 -10.15 298.5 -12.5 Q296.15 -15.85 295.4 -18.35 L312.45 -18.35 313.05 -19.6 312.85 -18.7 311.9 -17.4 Q307.65 -11.2 307.65 -9.85 L307.7 -8.95 307.9 -8.85 Q309.2 -11.9 313.35 -18.35 L329.75 -18.35 330.25 -17.55 Q333.9 -12.0 334.65 -9.35 L335.05 -9.35 335.15 -9.5 335.15 -10.3 334.9 -11.0 330.95 -17.5 330.4 -18.35 331.7 -18.35 331.65 -18.1 332.05 -18.1 332.05 -18.35 344.4 -18.6 343.7 -17.2 Q340.95 -11.55 340.2 -7.95 L339.3 -8.1 337.5 -8.4 Q338.5 -6.45 338.65 -5.1 L338.4 -4.85 336.65 -8.55 334.9 -8.75 307.8 -8.05 305.4 -2.85 305.2 -2.95 305.15 -3.85 Q305.15 -4.55 307.2 -8.0 L301.55 -7.85 302.65 -5.45 303.8 -2.6 Q303.95 -2.05 306.4 2.55 L307.3 5.25 307.65 7.8 307.4 12.5 307.15 19.05 Q307.15 20.5 306.3 24.35 L305.85 26.8 306.15 29.1 Q306.5 31.0 308.15 32.3 L307.9 32.55 Q306.35 31.3 305.65 29.35 L305.65 29.3 305.65 30.0 305.15 30.05 305.3 28.25 304.5 26.25 Q302.65 22.6 293.9 20.8 L287.1 18.95 Q283.65 17.55 283.65 15.5 283.65 13.2 282.65 8.8 L283.05 8.8 Q283.65 11.05 284.15 15.55 284.45 17.85 288.5 19.25 L294.4 20.55 Q304.45 22.4 305.65 26.0 L305.7 26.05 305.7 26.0 306.0 24.45 Q306.85 20.8 306.65 18.8 306.45 16.55 306.8 12.35 L307.15 7.75 Q307.15 4.85 306.35 3.65 304.6 1.15 303.15 -2.85 L300.95 -7.85 287.9 -7.5 281.6 -7.75 Q281.15 -8.15 279.55 -8.35 L270.4 -8.85 Q266.65 -4.7 266.65 -2.05 266.65 -0.8 269.75 5.75 272.8 12.35 272.8 13.85 272.8 14.55 270.7 17.55 L270.55 17.75 271.05 17.8 Q271.45 21.2 273.95 26.15 L278.0 33.4 278.65 34.5 277.7 33.4 Q275.95 31.1 273.35 25.9 270.15 19.65 270.15 18.65 L270.2 18.25 270.0 18.5 M-266.25 -5.25 Q-266.25 -3.7 -265.8 -2.8 -265.1 -1.55 -264.75 0.3 L-263.4 3.4 -262.25 5.75 -266.05 10.5 -266.2 10.7 -263.35 17.6 Q-261.4 21.8 -258.25 25.0 -261.8 22.3 -263.9 18.05 -264.9 16.0 -266.5 11.05 -270.2 15.5 -271.25 19.5 L-271.75 19.55 Q-271.85 16.9 -268.55 12.6 L-266.7 10.45 -266.75 10.3 -266.55 10.3 -262.75 5.75 Q-263.5 4.85 -265.15 0.0 -266.75 -4.6 -266.75 -5.3 L-266.75 -5.6 -266.85 -5.55 Q-268.65 -4.9 -271.35 -4.75 L-286.4 -3.9 -292.25 -3.5 -296.35 -3.75 -296.0 -2.25 Q-295.4 -0.35 -294.7 3.0 -292.55 2.1 -287.1 1.4 L-277.25 1.05 Q-278.8 2.25 -287.2 3.0 L-294.5 3.5 -294.6 3.5 -294.5 4.05 -293.25 10.5 -293.75 10.55 -295.3 3.55 -295.75 3.55 -295.35 3.3 -296.5 -2.1 -296.8 -3.85 Q-298.75 -4.2 -300.05 -4.85 -302.6 -6.25 -308.75 -6.25 L-319.15 -5.45 -325.5 -5.1 -325.75 -4.1 Q-326.45 -1.35 -326.8 -0.95 -327.75 0.1 -332.25 2.05 L-337.05 3.5 Q-341.3 4.85 -342.5 6.05 L-342.75 5.8 Q-341.75 4.8 -337.45 3.15 L-331.6 1.05 Q-328.5 -0.2 -327.35 -2.05 -326.95 -2.65 -326.3 -5.1 L-326.65 -5.1 -326.25 -18.0 -322.35 -17.95 -307.6 -17.9 Q-306.95 -16.25 -306.35 -15.6 -305.4 -14.5 -302.9 -13.75 L-299.7 -12.8 -298.8 -9.05 -297.15 -4.35 -296.7 -4.65 -296.65 -4.85 Q-297.25 -6.25 -298.05 -9.35 L-298.8 -12.5 -298.75 -12.5 -298.8 -12.55 -299.05 -14.25 Q-299.05 -15.4 -296.9 -17.9 L-271.55 -18.0 -271.8 -17.65 Q-271.8 -16.45 -268.85 -11.15 L-265.8 -5.85 -266.2 -5.75 -266.25 -5.25 M-327.15 -5.1 L-330.1 -5.25 Q-339.05 -5.95 -341.2 -4.55 L-342.15 -3.35 Q-342.45 -2.65 -343.0 -2.5 L-343.2 -2.55 -343.55 -2.7 -343.7 -2.8 Q-344.0 -3.05 -344.0 -3.85 -344.0 -5.1 -343.5 -5.8 L-343.5 -6.2 -343.5 -6.55 Q-343.45 -9.35 -343.55 -11.1 L-343.35 -15.85 Q-343.35 -17.15 -343.65 -18.15 L-339.25 -18.1 -326.8 -18.0 -326.9 -15.2 -327.15 -5.1 M-343.4 25.35 Q-340.8 24.15 -334.0 21.75 -329.6 20.05 -327.75 16.75 -327.05 15.5 -324.75 13.15 L-324.75 13.1 -324.7 12.5 -324.5 12.8 -324.4 12.8 -323.05 11.45 Q-319.6 8.05 -318.35 7.3 L-318.25 7.55 Q-321.0 9.8 -323.4 12.25 L-323.9 12.8 -323.35 12.8 Q-316.65 12.75 -313.95 13.7 -311.6 15.05 -309.25 15.55 L-314.2 14.55 -323.25 14.25 Q-323.7 14.5 -324.2 14.25 L-324.65 13.65 Q-326.5 15.75 -327.25 17.3 -328.6 20.1 -330.5 21.1 -331.65 21.65 -334.0 22.25 L-338.5 24.05 -343.45 25.75 -344.75 26.05 Q-344.35 25.75 -343.4 25.35 M348.35 7.65 L347.35 8.9 Q345.85 10.7 345.65 13.75 345.6 14.95 342.5 16.15 L334.9 18.5 332.2 18.9 Q329.95 19.4 328.9 21.05 L327.55 22.8 326.15 24.5 Q323.8 27.85 321.3 30.4 L321.3 30.45 320.9 30.8 320.8 31.0 321.45 30.55 Q321.8 30.3 322.05 30.3 L320.4 32.25 319.65 32.05 322.0 28.55 Q323.6 26.25 325.4 24.55 L328.4 20.8 329.05 19.4 Q329.9 18.75 334.9 18.0 339.75 17.25 342.15 16.05 344.05 15.1 344.75 13.75 342.7 12.7 339.6 8.9 336.05 4.55 336.05 3.35 L338.6 -2.7 339.45 -4.8 340.45 -7.85 340.55 -7.85 Q341.35 -10.85 344.0 -16.4 L345.05 -18.6 346.65 -18.6 348.35 -18.6 348.35 -9.3 348.5 -9.25 348.45 -9.0 348.4 -7.75 348.4 -7.7 348.2 -7.5 348.0 -7.0 345.6 -7.45 344.6 -7.75 343.65 -7.5 341.1 -7.8 339.25 -2.85 Q336.8 2.85 336.8 3.55 336.8 5.4 344.55 12.7 L344.95 13.1 345.05 12.25 Q345.05 11.4 346.65 8.8 L348.35 6.1 348.55 5.8 348.7 6.0 348.8 6.75 348.35 7.65 M335.25 -11.0 L335.15 -11.15 334.9 -11.0 335.25 -11.0 M-307.15 -18.4 L-307.0 -18.35 -306.25 -18.3 -306.5 -17.9 -302.75 -17.9 -298.0 -17.9 Q-299.8 -15.75 -299.8 -14.1 L-299.75 -13.05 -302.1 -14.0 Q-304.85 -15.0 -305.35 -15.6 -306.4 -16.8 -307.15 -18.4 M-265.7 -8.0 L-265.95 -8.0 -265.95 -7.85 -265.7 -8.0" fill="#6c5b3e" fill-rule="evenodd" stroke="none"/>
    <path d="M-253.25 -2.55 L-253.0 -2.65 -253.0 -2.6 -253.25 -2.55 M-265.8 -5.85 L-266.25 -5.25 -266.2 -5.75 -265.8 -5.85 M-266.75 -5.3 L-266.85 -5.55 -266.75 -5.6 -266.75 -5.3 M-294.5 3.5 L-294.5 4.05 -294.6 3.5 -294.5 3.5 M-343.2 -2.55 L-343.55 -1.8 -343.55 -2.7 -343.2 -2.55 M-323.4 12.25 L-323.35 12.8 -323.9 12.8 -323.4 12.25 M270.15 18.65 L270.0 18.5 270.2 18.25 270.15 18.65 M270.7 17.55 L271.05 17.8 270.55 17.75 270.7 17.55 M321.3 30.4 L321.45 30.55 320.8 31.0 320.9 30.8 321.3 30.45 321.3 30.4 M339.45 -4.8 L338.65 -5.1 Q338.5 -6.45 337.5 -8.4 L339.3 -8.1 340.2 -7.95 340.15 -7.85 340.45 -7.85 339.45 -4.8 M305.65 26.0 L305.7 26.0 305.7 26.05 305.65 26.0 M300.25 -10.05 L300.15 -10.15 300.15 -10.55 300.25 -10.05 M331.7 -18.35 L332.05 -18.35 332.05 -18.1 331.65 -18.1 331.7 -18.35 M344.55 12.7 L345.05 12.25 344.95 13.1 344.55 12.7 M335.25 -11.0 L334.9 -11.0 335.15 -11.15 335.25 -11.0 M-265.7 -8.0 L-265.95 -7.85 -265.95 -8.0 -265.7 -8.0" fill="#bfaf91" fill-rule="evenodd" stroke="none"/>
    <path d="M-253.25 -2.55 Q-253.25 0.3 -248.75 11.05 L-244.25 21.35 Q-244.25 22.05 -248.2 26.6 -252.3 31.35 -252.75 32.55 L-252.35 32.55 Q-251.75 31.0 -247.4 26.4 L-243.25 21.75 Q-243.25 21.1 -245.55 16.85 -248.25 11.95 -249.1 9.3 L-249.55 7.9 Q-242.75 1.9 -242.75 0.25 L-244.25 -4.65 -240.25 -4.5 -216.5 -5.5 -209.05 -6.15 -202.5 -6.75 -190.4 -6.55 -190.15 -6.15 -190.1 -6.0 -188.0 -6.0 -184.15 -6.8 -181.25 -7.25 -178.65 -6.85 -176.5 -6.5 Q-137.1 -6.05 -129.25 -5.5 L-106.0 -6.45 Q-91.45 -7.45 -47.1 -7.5 L-36.45 -6.55 -17.5 -6.0 Q3.0 -5.85 15.75 -6.75 L21.15 -7.85 Q24.6 -8.75 30.65 -8.75 L40.6 -7.6 68.0 -6.5 Q109.3 -6.5 118.95 -7.6 L123.9 -8.4 133.5 -8.75 143.9 -8.1 Q145.3 -7.8 145.9 -7.5 L146.25 -7.5 146.3 -7.5 148.95 -7.5 149.1 -7.1 149.3 -7.0 164.55 -7.0 164.8 -7.25 164.9 -7.5 172.9 -7.5 175.75 -7.65 181.9 -8.5 200.8 -9.6 230.0 -9.25 Q257.35 -9.25 269.95 -8.9 L267.15 -5.95 Q266.15 -4.75 266.15 -2.25 266.15 -1.0 269.1 5.95 272.05 12.9 272.05 13.6 272.05 14.95 267.55 21.0 L262.65 27.3 262.9 27.55 270.0 18.5 270.15 18.65 Q270.15 19.65 273.35 25.9 275.95 31.1 277.7 33.4 -174.4 33.3 -298.15 33.65 -329.65 33.7 -343.9 33.9 L-343.45 25.75 -338.5 24.05 -334.0 22.25 Q-331.65 21.65 -330.5 21.1 -328.6 20.1 -327.25 17.3 -326.5 15.75 -324.65 13.65 L-324.2 14.25 Q-323.7 14.5 -323.25 14.25 L-314.2 14.55 -309.25 15.55 Q-311.6 15.05 -313.95 13.7 -316.65 12.75 -323.35 12.8 L-323.4 12.25 Q-321.0 9.8 -318.25 7.55 L-318.35 7.3 Q-319.6 8.05 -323.05 11.45 L-324.4 12.8 -324.5 12.8 -324.7 12.5 -324.75 13.1 -324.75 13.15 Q-327.05 15.5 -327.75 16.75 -329.6 20.05 -334.0 21.75 -340.8 24.15 -343.4 25.35 L-343.35 23.9 -343.05 16.45 -343.4 5.85 -343.55 -1.8 -343.2 -2.55 -343.0 -2.5 Q-342.45 -2.65 -342.15 -3.35 L-341.2 -4.55 Q-339.05 -5.95 -330.1 -5.25 L-327.15 -5.1 -327.15 -4.85 -326.65 -5.0 -326.65 -5.1 -326.3 -5.1 Q-326.95 -2.65 -327.35 -2.05 -328.5 -0.2 -331.6 1.05 L-337.45 3.15 Q-341.75 4.8 -342.75 5.8 L-342.5 6.05 Q-341.3 4.85 -337.05 3.5 L-332.25 2.05 Q-327.75 0.1 -326.8 -0.95 -326.45 -1.35 -325.75 -4.1 L-325.5 -5.1 -319.15 -5.45 -308.75 -6.25 Q-302.6 -6.25 -300.05 -4.85 -298.75 -4.2 -296.8 -3.85 L-296.5 -2.1 -295.35 3.3 -295.75 3.55 -295.3 3.55 -293.75 10.55 -293.25 10.5 -294.5 4.05 -294.5 3.5 -287.2 3.0 Q-278.8 2.25 -277.25 1.05 L-287.1 1.4 Q-292.55 2.1 -294.7 3.0 -295.4 -0.35 -296.0 -2.25 L-296.35 -3.75 -292.25 -3.5 -286.4 -3.9 -271.35 -4.75 Q-268.65 -4.9 -266.85 -5.55 L-266.75 -5.3 Q-266.75 -4.6 -265.15 0.0 -263.5 4.85 -262.75 5.75 L-266.55 10.3 -266.75 10.3 -266.7 10.45 -268.55 12.6 Q-271.85 16.9 -271.75 19.55 L-271.25 19.5 Q-270.2 15.5 -266.5 11.05 -264.9 16.0 -263.9 18.05 -261.8 22.3 -258.25 25.0 -261.4 21.8 -263.35 17.6 L-266.2 10.7 -266.05 10.5 -262.25 5.75 -263.4 3.4 -264.75 0.3 Q-265.1 -1.55 -265.8 -2.8 -266.25 -3.7 -266.25 -5.25 L-265.8 -5.85 -257.5 -6.25 Q-247.65 -6.25 -246.55 -5.35 -246.2 -5.05 -245.4 -4.85 L-244.55 -3.15 Q-243.25 -0.55 -243.25 0.25 -243.25 0.9 -246.5 4.1 -249.1 6.7 -249.6 7.7 L-252.95 -2.65 -253.0 -2.75 -253.0 -2.65 -253.25 -2.55 M270.7 17.55 Q272.8 14.55 272.8 13.85 272.8 12.35 269.75 5.75 266.65 -0.8 266.65 -2.05 266.65 -4.7 270.4 -8.85 L279.55 -8.35 Q281.15 -8.15 281.6 -7.75 L287.9 -7.5 300.95 -7.85 303.15 -2.85 Q304.6 1.15 306.35 3.65 307.15 4.85 307.15 7.75 L306.8 12.35 Q306.45 16.55 306.65 18.8 306.85 20.8 306.0 24.45 L305.7 26.0 305.65 26.0 Q304.45 22.4 294.4 20.55 L288.5 19.25 Q284.45 17.85 284.15 15.55 283.65 11.05 283.05 8.8 L282.65 8.8 Q283.65 13.2 283.65 15.5 283.65 17.55 287.1 18.95 L293.9 20.8 Q302.65 22.6 304.5 26.25 L305.3 28.25 305.15 30.05 305.65 30.0 305.65 29.3 305.65 29.35 Q306.35 31.3 307.9 32.55 L308.15 32.3 Q306.5 31.0 306.15 29.1 L305.85 26.8 306.3 24.35 Q307.15 20.5 307.15 19.05 L307.4 12.5 307.65 7.8 307.3 5.25 306.4 2.55 Q303.95 -2.05 303.8 -2.6 L302.65 -5.45 301.55 -7.85 307.2 -8.0 Q305.15 -4.55 305.15 -3.85 L305.2 -2.95 305.4 -2.85 307.8 -8.05 334.9 -8.75 336.65 -8.55 338.4 -4.85 338.65 -5.1 339.45 -4.8 338.6 -2.7 336.05 3.35 Q336.05 4.55 339.6 8.9 342.7 12.7 344.75 13.75 344.05 15.1 342.15 16.05 339.75 17.25 334.9 18.0 329.9 18.75 329.05 19.4 L328.4 20.8 325.4 24.55 Q323.6 26.25 322.0 28.55 L319.65 32.05 320.4 32.25 322.05 30.3 Q321.8 30.3 321.45 30.55 L321.3 30.4 Q323.8 27.85 326.15 24.5 L327.55 22.8 328.9 21.05 Q329.95 19.4 332.2 18.9 L334.9 18.5 342.5 16.15 Q345.6 14.95 345.65 13.75 345.85 10.7 347.35 8.9 L348.35 7.65 348.35 33.7 336.55 33.55 314.35 33.4 307.9 33.4 278.0 33.4 273.95 26.15 Q271.45 21.2 271.05 17.8 L270.7 17.55 M348.0 -7.0 L347.9 -6.25 Q347.9 -5.4 348.2 -5.0 L348.35 -4.8 348.35 6.1 346.65 8.8 Q345.05 11.4 345.05 12.25 L344.55 12.7 Q336.8 5.4 336.8 3.55 336.8 2.85 339.25 -2.85 L341.1 -7.8 343.65 -7.5 344.6 -7.75 345.6 -7.45 348.0 -7.0" fill="#ab9670" fill-rule="evenodd" stroke="none"/>
  </g>
</svg>
