<?xml version="1.0" encoding="UTF-8" standalone="no"?>
<svg xmlns:ffdec="https://www.free-decompiler.com/flash" xmlns:xlink="http://www.w3.org/1999/xlink" ffdec:objectType="shape" height="21.0px" width="58.0px" xmlns="http://www.w3.org/2000/svg">
  <g transform="matrix(1.0, 0.0, 0.0, 1.0, 28.5, 10.5)">
    <path d="M26.75 -9.05 L27.85 -9.15 27.65 -8.8 27.65 4.75 27.25 4.65 25.8 4.5 Q-13.65 4.3 -24.55 4.8 L-26.65 4.95 -26.65 0.25 Q-26.65 -7.45 -27.3 -9.05 L-27.15 -9.1 Q-26.45 -8.95 -15.05 -8.85 L-0.45 -8.75 Q21.0 -8.75 26.75 -9.05" fill="#bfaf91" fill-rule="evenodd" stroke="none"/>
    <path d="M26.75 -9.05 Q21.0 -8.75 -0.45 -8.75 L-15.05 -8.85 Q-26.45 -8.95 -27.15 -9.1 L-27.3 -9.05 Q-26.65 -7.45 -26.65 0.25 L-26.65 4.95 -24.55 4.8 Q-13.65 4.3 25.8 4.5 L27.25 4.65 27.65 4.75 27.65 -8.8 27.85 -9.15 26.75 -9.05 M29.2 -9.75 L28.95 -9.4 Q29.5 -7.7 29.5 -0.25 L29.4 9.1 29.2 9.6 Q29.0 10.0 28.6 10.0 L28.45 10.0 26.75 10.2 Q21.0 10.5 -0.45 10.5 L-15.05 10.4 -26.95 10.2 Q-27.2 10.5 -27.6 10.5 L-28.2 10.25 -28.5 9.6 -28.5 -8.3 -27.9 -9.35 -27.9 -9.45 Q-27.9 -10.2 -19.7 -10.35 -9.0 -10.6 27.4 -10.4 L28.45 -10.25 Q29.2 -10.1 29.2 -9.75 M27.4 8.85 L27.65 8.9 27.65 8.85 27.65 6.2 27.6 6.2 25.8 6.5 -25.3 6.5 -26.7 6.35 -26.8 9.35 -19.7 8.9 Q-9.0 8.65 27.4 8.85" fill="#453a27" fill-rule="evenodd" stroke="none"/>
    <path d="M27.4 8.85 Q-9.0 8.65 -19.7 8.9 L-26.8 9.35 -26.7 6.35 -25.3 6.5 25.8 6.5 27.6 6.2 27.65 6.2 27.65 8.85 27.4 8.85" fill="#6c5b3e" fill-rule="evenodd" stroke="none"/>
  </g>
</svg>
