<?xml version="1.0" encoding="UTF-8" standalone="no"?>
<svg xmlns:ffdec="https://www.free-decompiler.com/flash" xmlns:xlink="http://www.w3.org/1999/xlink" ffdec:objectType="shape" height="21.0px" width="69.6px" xmlns="http://www.w3.org/2000/svg">
  <g transform="matrix(1.0, 0.0, 0.0, 1.0, 37.8, 9.4)">
    <path d="M29.8 -8.05 L28.5 -7.95 Q21.55 -7.65 -4.05 -7.65 L-21.65 -7.75 Q-35.4 -7.85 -36.2 -8.0 L-36.3 -7.95 Q-35.6 -6.35 -35.6 1.35 L-35.6 6.05 -33.1 5.9 Q-19.95 5.4 27.3 5.6 L29.05 5.75 29.55 5.85 29.55 -7.7 29.8 -8.05 M30.5 -9.15 Q31.45 -9.0 31.45 -8.65 L31.1 -8.3 Q31.8 -6.6 31.8 0.85 L31.6 10.2 31.45 10.7 Q31.2 11.1 30.65 11.1 L30.5 11.1 28.5 11.3 Q21.55 11.6 -4.05 11.6 L-21.65 11.5 -35.95 11.3 Q-36.25 11.6 -36.7 11.6 -37.3 11.6 -37.4 11.35 L-37.8 10.7 -37.8 -7.2 -37.1 -8.25 -37.1 -8.35 Q-37.1 -9.1 -27.2 -9.25 -14.4 -9.5 29.25 -9.3 L30.5 -9.15 M29.25 9.95 L29.55 10.0 29.55 9.95 29.55 7.3 29.5 7.3 27.3 7.6 -35.6 7.45 Q-35.6 9.15 -35.75 10.45 L-27.2 10.0 Q-14.4 9.75 29.25 9.95" fill="#453a27" fill-rule="evenodd" stroke="none"/>
    <path d="M29.8 -8.05 L29.55 -7.7 29.55 5.85 29.05 5.75 27.3 5.6 Q-19.95 5.4 -33.1 5.9 L-35.6 6.05 -35.6 1.35 Q-35.6 -6.35 -36.3 -7.95 L-36.2 -8.0 Q-35.4 -7.85 -21.65 -7.75 L-4.05 -7.65 Q21.55 -7.65 28.5 -7.95 L29.8 -8.05" fill="#bfaf91" fill-rule="evenodd" stroke="none"/>
    <path d="M29.55 9.95 L29.25 9.95 Q-14.4 9.75 -27.2 10.0 L-35.75 10.45 Q-35.6 9.15 -35.6 7.45 L27.3 7.6 29.5 7.3 29.55 7.3 29.55 9.95" fill="#6c5b3e" fill-rule="evenodd" stroke="none"/>
  </g>
</svg>
