<?xml version="1.0" encoding="UTF-8" standalone="no"?>
<svg xmlns:ffdec="https://www.free-decompiler.com/flash" xmlns:xlink="http://www.w3.org/1999/xlink" ffdec:objectType="shape" height="53.0px" width="30.0px" xmlns="http://www.w3.org/2000/svg">
  <g transform="matrix(1.0, 0.0, 0.0, 1.0, 15.0, 26.5)">
    <path d="M13.35 -25.75 L13.5 -24.75 13.45 -24.0 Q13.9 -22.95 14.0 -21.6 L14.0 -17.0 14.2 -12.8 14.5 -8.75 Q15.0 -1.25 15.0 7.65 L15.0 22.35 Q14.75 25.45 13.5 26.5 L13.0 25.5 11.25 25.75 Q6.3 26.05 -13.2 26.0 L-13.5 26.5 -13.95 26.0 -14.05 26.0 -14.3 25.85 Q-14.5 25.75 -14.5 25.0 L-14.5 24.95 -15.0 22.35 -15.0 7.65 Q-15.0 -1.25 -14.5 -8.75 L-14.2 -12.8 -14.0 -17.0 -14.0 -21.6 Q-13.85 -23.6 -13.0 -24.9 L-12.85 -25.2 -12.75 -25.25 -12.6 -25.4 -12.55 -25.5 -12.5 -25.5 -1.7 -26.1 4.5 -26.5 13.2 -26.0 13.35 -25.75 M12.9 0.35 L12.8 -2.35 14.25 -2.45 Q13.95 -2.8 12.75 -3.0 L12.25 -9.4 Q11.5 -16.95 11.5 -21.85 L11.5 -23.5 8.5 -23.5 -4.15 -23.5 -4.95 -25.2 -5.25 -25.2 Q-5.25 -24.3 -4.9 -23.5 L-8.0 -23.5 -11.55 -23.5 -11.5 -21.85 Q-11.5 -16.95 -12.25 -9.4 L-12.85 0.15 -12.9 0.95 -12.9 2.1 -13.0 7.6 -13.0 16.95 -12.65 22.0 Q-12.6 23.05 -12.7 23.9 L-12.05 23.85 -10.0 23.5 -7.85 23.5 8.6 23.5 12.65 23.5 12.65 22.0 12.7 21.35 13.0 17.35 13.0 17.05 13.0 16.95 13.0 7.6 12.95 2.9 12.9 1.15 12.9 1.05 12.9 0.5 12.9 0.35" fill="#473a29" fill-rule="evenodd" stroke="none"/>
    <path d="M8.5 -23.5 L11.5 -23.5 11.5 -21.85 Q11.5 -16.95 12.25 -9.4 L12.75 -3.0 Q13.95 -2.8 14.25 -2.45 L12.8 -2.35 12.9 0.35 12.8 0.5 12.4 0.5 9.0 0.5 8.8 0.5 8.5 -1.7 8.5 -2.9 7.65 -3.05 2.75 -3.45 Q2.75 -8.25 2.25 -10.5 L2.35 -10.55 2.0 -10.7 Q0.55 -11.3 -1.55 -12.85 L-1.75 -12.2 Q-1.95 -11.9 -3.1 -11.05 L-4.75 -9.5 Q-5.15 -9.0 -8.5 -6.75 L-8.5 -3.0 Q-8.5 -1.45 -9.05 0.15 L-9.05 0.25 -12.85 0.15 -12.25 -9.4 Q-11.5 -16.95 -11.5 -21.85 L-11.55 -23.5 -8.0 -23.5 -8.25 -18.05 -8.5 -9.75 -8.5 -7.85 -7.45 -8.5 -5.25 -10.0 -3.55 -11.6 -2.25 -12.95 Q-1.95 -13.5 -1.7 -16.55 -1.5 -18.95 -0.5 -19.25 L0.05 -19.2 0.75 -18.95 Q-1.5 -18.2 -1.45 -15.75 -1.4 -14.1 -1.5 -13.15 -0.9 -13.1 -0.05 -12.5 L1.9 -11.15 2.9 -10.7 3.05 -10.7 3.05 -10.65 Q5.5 -9.9 8.5 -11.25 L8.5 -23.5 M-4.9 -23.5 Q-5.25 -24.3 -5.25 -25.2 L-4.95 -25.2 -4.15 -23.5 -3.2 -22.1 Q-1.75 -20.2 -1.75 -19.9 L-1.75 -19.05 -1.95 -18.95 -2.25 -18.95 Q-2.25 -20.3 -3.75 -21.85 L-4.9 -23.5 M6.0 -9.75 Q4.55 -9.75 3.1 -10.25 L3.25 -3.95 8.5 -3.45 8.5 -10.25 6.0 -9.75" fill="#6c5b3e" fill-rule="evenodd" stroke="none"/>
    <path d="M12.9 0.35 L12.9 0.5 12.8 0.5 12.9 0.35 M-8.0 -23.5 L-4.9 -23.5 -3.75 -21.85 Q-2.25 -20.3 -2.25 -18.95 L-1.95 -18.95 -1.75 -19.05 -1.75 -19.9 Q-1.75 -20.2 -3.2 -22.1 L-4.15 -23.5 8.5 -23.5 8.5 -11.25 Q5.5 -9.9 3.05 -10.65 L3.05 -10.7 2.9 -10.7 1.9 -11.15 -0.05 -12.5 Q-0.9 -13.1 -1.5 -13.15 -1.4 -14.1 -1.45 -15.75 -1.5 -18.2 0.75 -18.95 L0.05 -19.2 -0.5 -19.25 Q-1.5 -18.95 -1.7 -16.55 -1.95 -13.5 -2.25 -12.95 L-3.55 -11.6 -5.25 -10.0 -7.45 -8.5 -8.5 -7.85 -8.5 -9.75 -8.25 -18.05 -8.0 -23.5 M6.0 -9.75 L8.5 -10.25 8.5 -3.45 3.25 -3.95 3.1 -10.25 Q4.55 -9.75 6.0 -9.75 M-9.05 0.25 L-9.05 0.15 Q-8.5 -1.45 -8.5 -3.0 L-8.5 -6.75 Q-5.15 -9.0 -4.75 -9.5 L-3.1 -11.05 Q-1.95 -11.9 -1.75 -12.2 L-1.55 -12.85 Q0.55 -11.3 2.0 -10.7 L2.35 -10.55 2.25 -10.5 Q2.75 -8.25 2.75 -3.45 L7.65 -3.05 8.5 -2.9 8.5 -1.7 8.8 0.5 -8.65 0.25 -9.05 0.25" fill="#bfaf91" fill-rule="evenodd" stroke="none"/>
    <path d="M12.9 1.15 L12.95 2.9 13.0 7.6 13.0 16.95 13.0 17.05 13.0 17.35 12.7 21.35 12.65 22.0 12.65 23.5 8.6 23.5 9.0 0.5 12.4 0.5 12.9 1.15 M-7.85 23.5 L-10.0 23.5 -12.05 23.85 -12.7 23.9 Q-12.6 23.05 -12.65 22.0 L-13.0 16.95 -13.0 7.6 -12.9 2.1 -12.9 0.95 -12.85 0.15 -9.05 0.25 -8.65 0.25 Q-8.5 5.0 -8.5 13.8 L-8.0 22.15 -7.85 23.5" fill="#350000" fill-rule="evenodd" stroke="none"/>
    <path d="M12.9 0.5 L12.9 1.05 12.9 1.15 12.4 0.5 12.8 0.5 12.9 0.5 M8.6 23.5 L-7.85 23.5 -8.0 22.15 -8.5 13.8 Q-8.5 5.0 -8.65 0.25 L8.8 0.5 9.0 0.5 8.6 23.5" fill="#550000" fill-rule="evenodd" stroke="none"/>
  </g>
</svg>
