<?xml version="1.0" encoding="UTF-8" standalone="no"?>
<svg xmlns:ffdec="https://www.free-decompiler.com/flash" xmlns:xlink="http://www.w3.org/1999/xlink" ffdec:objectType="shape" height="21.0px" width="79.5px" xmlns="http://www.w3.org/2000/svg">
  <g transform="matrix(1.0, 0.0, 0.0, 1.0, 45.0, 9.2)">
    <path d="M31.95 -7.5 L31.95 -7.8 32.2 -7.85 31.95 -7.5" fill="#bfaf91" fill-rule="evenodd" stroke="none"/>
    <path d="M34.1 -8.45 L33.7 -8.1 Q34.5 -6.4 34.5 1.05 L34.3 10.4 34.1 10.9 Q33.85 11.3 33.3 11.3 L33.05 11.3 30.7 11.5 Q22.85 11.8 -6.45 11.8 L-26.55 11.7 -42.95 11.5 Q-43.2 11.8 -43.75 11.8 -44.45 11.8 -44.55 11.55 -44.7 11.15 -45.0 10.9 L-45.0 -7.0 -44.15 -8.05 -44.15 -8.15 Q-44.15 -8.9 -32.9 -9.05 -18.3 -9.3 31.65 -9.1 L33.05 -8.95 Q34.1 -8.8 34.1 -8.45 M31.95 -7.8 L30.7 -7.75 Q22.85 -7.45 -6.45 -7.45 L-26.55 -7.55 Q-42.2 -7.65 -43.1 -7.8 L-43.3 -7.75 Q-42.45 -6.15 -42.45 1.55 L-42.45 6.25 -39.6 6.1 Q-24.6 5.6 29.4 5.8 L31.4 5.95 31.95 6.05 31.95 -7.5 32.2 -7.85 31.95 -7.8 M31.95 10.15 L31.95 7.5 31.9 7.5 29.4 7.8 -42.5 7.65 Q-42.5 9.35 -42.65 10.65 L-32.9 10.2 Q-18.3 9.95 31.65 10.15 L31.95 10.2 31.95 10.15" fill="#221c1f" fill-rule="evenodd" stroke="none"/>
    <path d="M31.65 10.15 Q-18.3 9.95 -32.9 10.2 L-42.65 10.65 Q-42.5 9.35 -42.5 7.65 L29.4 7.8 31.9 7.5 31.95 7.5 31.95 10.15 31.65 10.15" fill="#31282d" fill-rule="evenodd" stroke="none"/>
    <path d="M31.95 -7.5 L31.95 6.05 31.4 5.95 29.4 5.8 Q-24.6 5.6 -39.6 6.1 L-42.45 6.25 -42.45 1.55 Q-42.45 -6.15 -43.3 -7.75 L-43.1 -7.8 Q-42.2 -7.65 -26.55 -7.55 L-6.45 -7.45 Q22.85 -7.45 30.7 -7.75 L31.95 -7.8 31.95 -7.5" fill="#66535f" fill-rule="evenodd" stroke="none"/>
  </g>
</svg>
