<?xml version="1.0" encoding="UTF-8" standalone="no"?>
<svg xmlns:ffdec="https://www.free-decompiler.com/flash" xmlns:xlink="http://www.w3.org/1999/xlink" ffdec:objectType="shape" height="56.05px" width="30.3px" xmlns="http://www.w3.org/2000/svg">
  <g transform="matrix(1.0, 0.0, 0.0, 1.0, 14.9, 29.95)">
    <path d="M4.4 -29.6 L3.45 -29.7 13.85 -29.35 13.9 -29.35 14.35 -29.6 Q14.9 -29.75 15.15 -29.15 L15.35 -28.75 15.3 -28.55 15.35 -27.75 15.35 -23.6 15.35 -20.45 Q15.2 -18.2 14.45 -17.9 15.0 -16.2 15.0 -15.15 L15.0 -9.4 15.0 -5.1 14.8 -3.4 Q15.3 -3.2 15.4 -2.3 L15.35 -1.0 Q15.0 2.9 15.0 4.65 L15.2 8.3 Q15.2 9.65 14.8 10.2 L14.8 11.8 14.7 13.8 14.4 24.0 14.0 24.25 13.65 24.35 13.65 24.65 13.65 25.4 Q13.35 26.1 11.65 26.1 L-8.4 25.85 -12.15 25.6 Q-12.6 26.1 -13.5 26.1 -14.85 26.1 -14.6 24.5 -14.1 22.6 -14.1 21.95 L-14.25 19.4 -14.45 17.4 Q-14.1 14.25 -14.1 12.65 L-14.5 10.6 -14.9 10.05 -14.7 8.55 Q-14.2 4.0 -14.4 -0.6 L-14.5 -5.7 -14.1 -6.35 -14.0 -5.65 -14.1 -6.75 -13.4 -14.1 -13.2 -17.85 -13.15 -17.85 -13.4 -19.5 -13.4 -22.75 -13.4 -25.95 Q-13.3 -27.3 -12.9 -27.9 L-13.05 -28.2 Q-13.05 -28.75 -10.85 -29.25 L-0.6 -29.9 4.4 -29.6 M1.45 -27.3 L-1.2 -27.3 -1.75 -27.3 -1.8 -27.3 -7.35 -27.6 -8.4 -27.5 -8.7 -27.5 -11.15 -27.35 -11.6 -27.3 -11.45 -26.15 -11.4 -22.7 -11.4 -19.85 -11.45 -19.25 -9.4 -19.3 0.6 -19.35 4.75 -19.1 9.05 -18.95 9.2 -18.95 9.5 -18.95 13.05 -19.3 13.35 -27.3 13.4 -27.9 13.3 -27.9 9.4 -27.5 9.3 -27.5 1.45 -27.3 M8.9 -1.8 L11.2 -1.8 12.0 -1.8 12.55 -3.35 Q13.05 -4.4 13.05 -5.45 L13.05 -13.65 Q13.05 -14.9 12.55 -16.25 L12.2 -17.25 9.7 -17.0 8.65 -17.0 5.4 -17.0 -0.6 -17.0 -11.05 -17.3 -11.1 -17.3 -11.45 -17.35 -11.45 -17.2 -11.4 -16.95 -11.4 -16.75 -11.4 -16.65 -11.4 -15.35 -12.05 -6.9 -11.4 -2.55 -11.35 -2.5 -9.35 -2.45 -9.05 -2.4 -8.65 -2.4 -7.25 -2.3 -6.95 -2.3 -7.05 -2.95 -6.85 -5.1 -6.5 -7.5 -6.0 -11.7 -6.15 -12.7 -6.15 -13.6 -6.15 -13.65 Q-4.55 -14.05 -4.2 -13.35 -4.05 -13.15 -4.05 -11.9 -4.05 -10.15 -4.65 -6.95 -4.35 -4.8 -4.4 -3.7 -4.4 -2.7 -4.8 -2.2 L1.3 -1.95 2.0 -1.9 3.65 -1.9 3.95 -5.95 3.95 -6.35 Q4.1 -7.65 4.65 -7.65 L6.0 -7.05 6.0 -4.75 5.7 -1.85 5.0 -1.85 8.9 -1.8 M9.45 8.6 L10.35 8.65 Q11.5 8.0 12.45 7.95 L12.7 7.9 13.05 7.9 13.05 5.2 13.25 0.2 13.15 0.0 13.05 -0.3 12.4 -0.2 9.85 -0.1 9.05 -0.05 6.15 0.0 -8.25 -0.45 -8.4 -0.45 -11.5 -0.75 -12.25 -0.9 -12.15 -0.35 -12.05 0.6 -11.7 5.4 -11.7 7.4 -11.7 7.5 -9.65 7.55 -8.35 7.6 -8.35 7.55 7.65 8.45 9.45 8.6 M12.65 10.55 L11.3 10.55 11.15 10.55 9.0 10.55 8.05 10.55 7.0 10.55 0.95 10.45 -3.85 10.3 -4.25 10.3 -4.0 10.3 -4.0 10.35 Q-3.65 11.05 -3.65 12.15 L-3.7 13.1 -3.5 13.1 -3.45 15.7 -3.6 20.15 -3.8 23.8 -3.65 23.8 -2.25 23.85 -0.2 23.9 0.0 21.8 0.05 21.35 0.25 19.35 0.3 18.9 0.3 18.75 0.5 15.6 0.75 15.45 Q1.85 14.8 2.15 16.0 L2.25 17.6 1.95 21.8 2.0 23.95 3.3 23.95 5.55 24.0 5.65 24.0 6.25 24.0 7.65 24.05 9.05 24.05 11.1 24.05 Q11.4 22.1 12.4 22.7 L12.35 21.15 12.65 11.7 12.65 10.6 12.65 10.55 M-6.35 10.25 L-9.35 10.15 -10.05 10.1 -12.25 10.0 -12.5 10.0 -12.3 13.4 -12.3 13.5 -12.25 14.2 -12.2 14.9 -12.05 17.9 -12.05 21.5 -12.05 21.8 -12.05 22.05 -11.85 23.95 -8.35 23.85 -7.25 23.8 -6.85 23.8 -5.9 23.8 -5.6 18.2 -5.4 14.7 -5.4 14.5 Q-5.5 13.75 -5.25 13.15 L-4.8 13.15 -5.5 13.15 -5.9 13.2 -6.0 11.1 -5.9 10.25 -6.35 10.25 M-4.45 10.3 L-4.5 10.3 -4.5 10.45 -4.35 10.3 -4.45 10.3" fill="#201e22" fill-rule="evenodd" stroke="none"/>
    <path d="M8.9 -1.8 L5.0 -1.85 5.7 -1.85 6.0 -4.75 6.0 -7.05 4.65 -7.65 Q4.1 -7.65 3.95 -6.35 L3.95 -7.95 Q1.95 -10.05 1.95 -3.95 L2.0 -1.9 1.3 -1.95 -4.8 -2.2 Q-4.4 -2.7 -4.4 -3.7 -4.35 -4.8 -4.65 -6.95 -4.05 -10.15 -4.05 -11.9 -4.05 -13.15 -4.2 -13.35 -4.55 -14.05 -6.15 -13.65 L-6.15 -13.6 -6.35 -13.85 Q-7.05 -14.55 -7.85 -13.4 L-8.0 -14.4 -7.95 -14.3 -6.95 -14.4 -4.75 -14.85 -3.8 -14.5 -3.0 -14.1 -0.1 -14.05 1.55 -14.15 9.05 -14.55 9.0 -14.1 9.0 -8.85 8.95 -6.7 Q8.9 -4.85 9.0 -3.95 L8.9 -1.8 M-6.85 -5.1 L-7.05 -2.95 -6.95 -2.3 -7.25 -2.3 -8.65 -2.4 -8.35 -2.95 -8.0 -2.9 Q-7.4 -2.9 -6.85 -5.1 M-11.45 -17.2 L-11.45 -17.35 -11.1 -17.3 -11.45 -17.2 M-3.5 13.1 L-3.05 13.05 2.2 13.35 9.0 13.5 8.95 23.0 9.05 24.05 7.65 24.05 7.65 16.4 Q6.9 15.65 6.45 15.95 L6.9 15.9 6.45 15.35 Q5.85 15.1 4.8 15.6 4.35 16.75 4.35 17.85 L3.6 20.25 Q3.3 21.55 3.3 22.45 L3.3 23.95 2.0 23.95 1.95 21.8 2.25 17.6 2.15 16.0 Q1.85 14.8 0.75 15.45 L0.9 15.35 0.55 14.65 Q0.0 14.1 -0.9 15.3 L-1.65 18.15 Q-2.3 20.3 -2.3 23.5 L-2.25 23.85 -3.65 23.8 -3.8 23.8 -3.6 20.15 -3.45 15.7 -3.5 13.1 M12.65 10.6 L12.65 10.55 12.65 10.6 M5.65 23.85 L5.65 24.0 5.55 24.0 5.65 23.85 M0.25 19.35 L0.05 21.35 0.0 20.25 0.25 19.35 M-9.35 10.15 L-6.35 10.25 -8.4 10.4 -9.35 10.15 M-5.9 13.2 L-5.5 13.15 -4.8 13.15 -5.25 13.15 Q-5.5 13.75 -5.4 14.5 L-6.15 14.45 Q-7.35 14.7 -7.35 16.25 L-7.35 20.05 Q-7.55 22.6 -7.25 23.8 L-8.35 23.85 Q-8.0 23.2 -8.0 21.45 -8.0 18.6 -9.0 18.1 L-8.55 16.0 Q-8.2 14.45 -8.45 13.35 L-5.9 13.2" fill="#37343a" fill-rule="evenodd" stroke="none"/>
    <path d="M-12.05 21.8 L-12.05 21.5 -11.9 21.5 -12.05 21.8 M-12.2 14.9 L-12.25 14.2 -12.2 14.8 -12.2 14.9 M-4.45 10.3 L-4.5 10.45 -4.5 10.3 -4.45 10.3" fill="#51444a" fill-rule="evenodd" stroke="none"/>
    <path d="M9.3 -27.25 L9.4 -27.5 13.3 -27.9 13.4 -27.9 13.35 -27.3 13.05 -19.3 9.5 -18.95 9.2 -18.95 9.05 -18.95 9.0 -19.15 Q8.8 -20.45 9.0 -22.6 9.0 -26.05 9.3 -27.25 M9.05 -0.05 L9.85 -0.1 12.4 -0.2 13.05 -0.3 13.15 0.0 13.25 0.2 13.05 5.2 13.05 7.9 12.7 7.9 12.45 7.95 Q11.5 8.0 10.35 8.65 L9.45 8.6 9.25 8.15 9.3 5.9 9.0 1.5 9.05 -0.05 M-8.35 7.55 L-8.35 7.6 -9.65 7.55 -11.7 7.5 -11.7 7.4 -11.7 5.4 -12.05 0.6 -12.15 -0.35 -12.25 -0.85 -12.2 -0.85 -11.5 -0.75 -8.4 -0.45 -8.25 -0.2 Q-8.0 0.2 -8.0 1.95 L-8.35 7.55 M-9.4 -19.3 L-11.45 -19.25 -11.4 -19.85 -11.4 -22.7 -11.45 -26.15 -11.6 -27.3 -11.15 -27.35 -8.7 -27.5 -8.4 -27.5 -8.4 -26.85 -8.7 -21.65 -8.55 -20.35 Q-8.6 -19.8 -9.4 -19.3" fill="#272321" fill-rule="evenodd" stroke="none"/>
    <path d="M-3.85 10.3 L-4.0 10.35 -4.0 10.3 -4.25 10.3 -3.85 10.3 M-9.35 10.15 L-8.4 10.4 -6.35 10.25 -5.9 10.25 -6.0 11.1 -5.9 13.2 -8.45 13.35 Q-8.2 14.45 -8.55 16.0 L-9.0 18.1 Q-8.0 18.6 -8.0 21.45 -8.0 23.2 -8.35 23.85 L-11.85 23.95 -12.05 22.05 -12.05 21.8 -11.9 21.5 -12.05 21.5 -12.05 17.9 -12.2 14.9 -12.2 14.8 -12.25 14.2 -12.3 13.5 -12.3 13.4 -12.5 10.0 -12.25 10.0 -10.05 10.1 -9.35 10.15" fill="#343136" fill-rule="evenodd" stroke="none"/>
    <path d="M4.55 -23.45 L4.65 -23.95 Q4.65 -25.25 3.35 -26.3 2.45 -27.0 1.45 -27.3 L9.3 -27.5 9.3 -27.25 Q9.0 -26.05 9.0 -22.6 8.8 -20.45 9.0 -19.15 L9.05 -18.95 4.75 -19.1 0.6 -19.35 -9.4 -19.3 Q-8.6 -19.8 -8.55 -20.35 L-8.7 -21.65 -8.4 -26.85 -8.4 -27.5 -7.35 -27.6 -1.8 -27.3 Q-3.3 -26.7 -3.55 -24.6 L-3.65 -23.55 Q-3.65 -20.25 -0.15 -20.25 2.55 -20.25 3.9 -22.15 L4.55 -23.45 M9.45 8.6 L7.65 8.45 -8.35 7.55 -8.0 1.95 Q-8.0 0.2 -8.25 -0.2 L-8.25 -0.45 6.15 0.0 9.05 -0.05 9.0 1.5 9.3 5.9 9.25 8.15 9.45 8.6 M3.85 5.0 L3.95 3.85 Q3.95 1.0 1.5 0.45 L-0.2 0.3 -0.3 0.3 -0.8 0.35 -1.85 0.55 -1.9 0.55 Q-3.95 1.15 -4.3 3.15 L-4.35 3.9 Q-4.35 4.8 -2.9 6.0 -1.3 7.35 0.15 7.35 2.7 7.35 3.6 5.6 L3.85 5.0" fill="#332d2b" fill-rule="evenodd" stroke="none"/>
    <path d="M0.5 -27.15 Q-1.65 -27.65 -1.65 -25.3 -1.65 -24.95 -1.05 -24.1 -0.4 -23.25 0.0 -23.25 0.7 -23.25 1.65 -23.85 2.6 -24.5 2.6 -25.05 2.6 -26.7 0.5 -27.15 M1.45 -27.3 Q2.45 -27.0 3.35 -26.3 4.65 -25.25 4.65 -23.95 L4.55 -23.45 4.65 -23.8 4.1 -23.85 Q3.2 -23.85 1.65 -23.05 0.1 -22.25 -0.85 -22.25 L-2.8 -24.15 -3.55 -24.6 Q-3.3 -26.7 -1.8 -27.3 L-1.75 -27.3 -1.2 -27.3 1.45 -27.3 M3.85 5.0 L2.55 4.85 -0.6 5.15 Q-1.9 5.15 -3.15 3.9 -3.7 3.35 -4.3 3.15 -3.95 1.15 -1.9 0.55 L-2.1 1.5 Q-2.1 2.6 -1.8 3.0 -1.35 3.45 0.0 3.45 1.45 3.45 1.85 2.6 L1.95 1.65 Q1.95 0.85 1.5 0.45 3.95 1.0 3.95 3.85 L3.85 5.0" fill="#3c3431" fill-rule="evenodd" stroke="none"/>
    <path d="M-3.55 -24.6 L-2.8 -24.15 -0.85 -22.25 Q0.1 -22.25 1.65 -23.05 3.2 -23.85 4.1 -23.85 L4.65 -23.8 4.55 -23.45 3.9 -22.15 Q2.55 -20.25 -0.15 -20.25 -3.65 -20.25 -3.65 -23.55 L-3.55 -24.6 M-4.3 3.15 Q-3.7 3.35 -3.15 3.9 -1.9 5.15 -0.6 5.15 L2.55 4.85 3.85 5.0 3.6 5.6 Q2.7 7.35 0.15 7.35 -1.3 7.35 -2.9 6.0 -4.35 4.8 -4.35 3.9 L-4.3 3.15" fill="#1e1b1a" fill-rule="evenodd" stroke="none"/>
    <path d="M0.5 -27.15 Q2.6 -26.7 2.6 -25.05 2.6 -24.5 1.65 -23.85 0.7 -23.25 0.0 -23.25 -0.4 -23.25 -1.05 -24.1 -1.65 -24.95 -1.65 -25.3 -1.65 -27.65 0.5 -27.15 M1.5 0.45 Q1.95 0.85 1.95 1.65 L1.85 2.6 Q1.45 3.45 0.0 3.45 -1.35 3.45 -1.8 3.0 -2.1 2.6 -2.1 1.5 L-1.9 0.55 -1.85 0.55 -0.8 0.35 -0.3 0.3 -0.2 0.3 1.5 0.45" fill="#453c38" fill-rule="evenodd" stroke="none"/>
    <path d="M3.95 -6.35 L3.95 -5.95 3.65 -1.9 2.0 -1.9 1.95 -3.95 Q1.95 -10.05 3.95 -7.95 L3.95 -6.35 M-6.15 -13.6 L-6.15 -12.7 -6.0 -11.7 -6.5 -7.5 -6.85 -5.1 Q-7.4 -2.9 -8.0 -2.9 L-8.35 -2.95 Q-8.0 -3.6 -8.0 -4.2 L-8.0 -8.85 -7.85 -11.25 -7.85 -11.45 -7.85 -13.1 -7.85 -13.4 Q-7.05 -14.55 -6.35 -13.85 L-6.15 -13.6 M6.45 15.95 Q6.9 15.65 7.65 16.4 L7.65 24.05 6.25 24.0 5.65 24.0 5.65 23.85 5.6 23.45 5.6 20.85 5.8 17.35 6.0 16.65 6.05 16.45 6.1 16.4 6.1 16.35 6.45 15.95 M0.75 15.45 L0.5 15.6 0.3 18.75 0.3 18.9 0.25 19.35 0.0 20.25 0.05 21.35 0.0 21.8 -0.2 23.9 -2.25 23.85 -2.3 23.5 Q-2.3 20.3 -1.65 18.15 L-0.9 15.3 Q0.0 14.1 0.55 14.65 L0.9 15.35 0.75 15.45 M-5.4 14.5 L-5.4 14.7 -5.6 18.2 -5.9 23.8 -6.85 23.8 -7.25 23.8 Q-7.55 22.6 -7.35 20.05 L-7.35 16.25 Q-7.35 14.7 -6.15 14.45 L-5.4 14.5" fill="#4f4a53" fill-rule="evenodd" stroke="none"/>
    <path d="M-11.1 -17.3 L-11.05 -17.3 -0.6 -17.0 5.4 -17.0 8.65 -17.0 9.7 -17.0 12.2 -17.25 12.55 -16.25 Q13.05 -14.9 13.05 -13.65 L13.05 -5.45 Q13.05 -4.4 12.55 -3.35 L12.0 -1.8 11.2 -1.8 8.9 -1.8 9.0 -3.95 Q8.9 -4.85 8.95 -6.7 L9.0 -8.85 9.0 -14.1 9.05 -14.55 1.55 -14.15 -0.1 -14.05 -3.0 -14.1 -3.8 -14.5 -4.75 -14.85 -6.95 -14.4 -7.95 -14.3 -8.0 -14.4 -7.85 -13.4 -7.85 -13.1 -7.85 -11.45 -7.85 -11.25 -8.0 -8.85 -8.0 -4.2 Q-8.0 -3.6 -8.35 -2.95 L-8.65 -2.4 -9.05 -2.4 -9.35 -2.45 -11.35 -2.5 -11.4 -2.55 -12.05 -6.9 -11.4 -15.35 -11.4 -16.65 -11.4 -16.75 -11.4 -16.95 -11.45 -17.2 -11.1 -17.3 M-3.85 10.3 L0.95 10.45 7.0 10.55 8.05 10.55 9.0 10.55 11.15 10.55 11.3 10.55 12.65 10.55 12.65 10.6 12.65 11.7 12.35 21.15 12.4 22.7 Q11.4 22.1 11.1 24.05 L9.05 24.05 8.95 23.0 9.0 13.5 2.2 13.35 -3.05 13.05 -3.5 13.1 -3.7 13.1 -3.65 12.15 Q-3.65 11.05 -4.0 10.35 L-3.85 10.3 M3.3 23.95 L3.3 22.45 Q3.3 21.55 3.6 20.25 L4.35 17.85 Q4.35 16.75 4.8 15.6 5.85 15.1 6.45 15.35 L6.9 15.9 6.45 15.95 6.1 16.35 6.1 16.4 6.05 16.45 6.0 16.65 5.8 17.35 5.6 20.85 5.6 23.45 5.65 23.85 5.55 24.0 3.3 23.95" fill="#312f33" fill-rule="evenodd" stroke="none"/>
  </g>
</svg>
