<?xml version="1.0" encoding="UTF-8" standalone="no"?>
<svg xmlns:ffdec="https://www.free-decompiler.com/flash" xmlns:xlink="http://www.w3.org/1999/xlink" ffdec:objectType="shape" height="15.4px" width="324.9px" xmlns="http://www.w3.org/2000/svg">
  <g transform="matrix(1.0, 0.0, 0.0, 1.0, 358.25, 22.55)">
    <path d="M-355.95 -16.65 L-352.85 -16.3 -351.8 -16.4 -351.6 -16.75 -351.6 -16.85 -351.65 -16.9 -351.95 -17.1 -351.0 -17.15 -346.75 -16.95 -343.2 -17.0 Q-342.85 -17.05 -342.85 -17.5 L-342.95 -17.55 -334.55 -17.05 -334.55 -16.5 -334.5 -15.95 -341.65 -15.85 -349.4 -15.5 -355.25 -15.2 -356.35 -15.35 -356.2 -16.65 -355.95 -16.65 M-353.75 -12.1 L-352.95 -12.6 -353.0 -12.9 -353.0 -12.95 -348.6 -12.9 -343.55 -12.9 Q-342.4 -13.0 -342.4 -13.4 L-342.4 -13.45 -334.45 -13.8 -334.35 -12.25 -339.4 -12.0 -345.15 -12.2 -344.0 -11.95 -353.2 -12.1 -353.75 -12.1" fill="#343136" fill-rule="evenodd" stroke="none"/>
    <path d="M-351.95 -17.1 L-351.65 -16.9 -351.6 -16.85 -351.6 -16.75 -351.8 -16.4 -352.85 -16.3 -355.95 -16.65 -356.2 -16.7 -356.2 -16.65 -356.35 -15.35 -356.45 -14.3 -356.45 -14.1 -356.6 -13.35 -356.65 -12.8 -355.15 -13.05 -355.1 -13.05 -353.1 -13.0 -353.05 -12.95 -353.0 -12.95 -353.0 -12.9 -352.95 -12.6 -353.75 -12.1 -354.0 -12.05 -356.8 -11.6 -356.8 -11.35 -356.6 -10.6 -356.4 -9.75 -353.1 -9.4 -352.35 -9.35 -351.25 -9.3 -346.2 -9.3 -335.5 -9.7 -334.35 -9.6 -333.95 -9.55 -333.95 -9.7 -334.1 -10.4 Q-334.4 -12.15 -334.5 -15.95 L-334.55 -16.5 -334.55 -17.05 -334.45 -19.9 -333.8 -21.7 -342.55 -21.4 -355.15 -21.2 -355.6 -21.2 -355.8 -21.2 -356.3 -21.2 Q-356.1 -20.75 -356.2 -20.1 L-356.45 -19.15 -356.55 -18.85 -356.6 -18.6 -356.7 -18.15 -356.7 -18.0 -356.4 -17.55 -356.3 -17.4 -354.1 -17.5 -351.95 -17.1 M-347.45 -22.5 L-334.0 -22.2 -333.65 -21.95 -333.45 -22.2 Q-332.75 -23.05 -332.75 -21.5 L-333.2 -16.5 -332.75 -9.5 Q-332.75 -9.1 -332.85 -9.05 L-332.95 -8.95 -332.95 -8.85 Q-333.25 -8.5 -333.9 -8.4 L-334.9 -8.3 -343.7 -8.4 Q-353.65 -8.4 -355.75 -8.55 L-357.2 -8.5 Q-357.9 -8.45 -358.05 -9.05 L-357.95 -9.65 -357.8 -10.25 -358.05 -10.8 -358.25 -11.3 -357.8 -14.85 -358.25 -18.0 -358.2 -20.15 Q-358.05 -21.2 -357.35 -21.75 L-356.7 -22.25 -352.5 -22.35 -347.45 -22.5" fill="#201e22" fill-rule="evenodd" stroke="none"/>
    <path d="M-356.35 -15.35 L-355.25 -15.2 -349.4 -15.5 -341.65 -15.85 -334.5 -15.95 Q-334.4 -12.15 -334.1 -10.4 L-345.0 -10.9 -356.5 -10.4 -356.4 -9.9 -353.1 -9.4 -356.4 -9.75 -356.6 -10.6 -356.8 -11.35 -356.8 -11.6 -354.0 -12.05 -353.75 -12.1 -353.2 -12.1 -344.0 -11.95 -345.15 -12.2 -339.4 -12.0 -334.35 -12.25 -334.45 -13.8 -342.4 -13.45 Q-342.8 -14.2 -349.6 -14.5 L-356.45 -14.1 -356.45 -14.3 -356.35 -15.35 M-334.55 -17.05 L-342.95 -17.55 -350.05 -19.0 -356.4 -19.3 -356.45 -19.15 -356.2 -20.1 Q-356.1 -20.75 -356.3 -21.2 L-355.8 -21.2 -355.6 -21.2 -355.15 -21.2 -342.55 -21.4 -333.8 -21.7 -334.45 -19.9 -334.55 -17.05 M-351.0 -17.15 L-351.95 -17.1 -354.1 -17.5 -356.3 -17.4 -356.4 -17.55 -356.7 -18.0 -356.7 -18.15 -354.1 -17.6 -351.0 -17.15 M-355.15 -13.05 L-356.65 -12.8 -356.6 -13.35 -355.15 -13.05 M-334.35 -9.6 L-333.95 -9.7 -333.95 -9.55 -334.35 -9.6" fill="#37343a" fill-rule="evenodd" stroke="none"/>
    <path d="M-342.95 -17.55 L-342.85 -17.5 Q-342.85 -17.05 -343.2 -17.0 L-346.75 -16.95 -351.0 -17.15 -354.1 -17.6 -356.7 -18.15 -356.6 -18.6 -356.55 -18.85 -356.45 -19.15 -356.4 -19.3 -350.05 -19.0 -342.95 -17.55 M-353.0 -12.95 L-353.05 -12.95 -353.1 -13.0 -355.1 -13.05 -355.15 -13.05 -356.6 -13.35 -356.45 -14.1 -349.6 -14.5 Q-342.8 -14.2 -342.4 -13.45 L-342.4 -13.4 Q-342.4 -13.0 -343.55 -12.9 L-348.6 -12.9 -353.0 -12.95 M-353.1 -9.4 L-356.4 -9.9 -356.5 -10.4 -345.0 -10.9 -334.1 -10.4 -333.95 -9.7 -334.35 -9.6 -335.5 -9.7 -346.2 -9.3 -351.25 -9.3 -352.35 -9.35 -353.1 -9.4" fill="#4f4a53" fill-rule="evenodd" stroke="none"/>
    <path d="M-331.85 -20.3 L-331.0 -19.75 -329.65 -19.95 -326.65 -20.2 -325.2 -20.1 -322.15 -19.9 -311.95 -19.75 -311.15 -19.8 -311.35 -18.55 -311.3 -17.15 -311.25 -16.2 -315.25 -15.85 -317.55 -16.15 -317.8 -17.5 Q-318.7 -19.35 -322.15 -19.1 -323.65 -19.0 -324.85 -18.45 L-326.05 -18.3 -327.0 -17.4 -327.3 -16.85 -327.45 -16.25 -327.45 -16.0 -327.4 -15.85 -332.2 -15.95 -332.2 -16.75 -332.2 -17.05 -332.2 -17.1 -332.25 -18.3 -331.85 -20.3" fill="#332d2b" fill-rule="evenodd" stroke="none"/>
    <path d="M-311.15 -19.8 L-311.95 -19.75 -322.15 -19.9 -325.2 -20.1 -326.65 -20.2 -329.65 -19.95 -331.0 -19.75 -331.85 -20.3 -331.8 -20.55 Q-331.75 -21.0 -331.95 -21.3 L-322.05 -21.35 -311.5 -21.4 -311.35 -21.4 -311.35 -20.7 -311.25 -20.65 -311.15 -20.55 -310.95 -20.35 -311.15 -19.8" fill="#3e3632" fill-rule="evenodd" stroke="none"/>
    <path d="M-331.85 -20.3 L-332.25 -18.3 -332.2 -17.1 -332.2 -16.75 -332.2 -15.95 -331.8 -9.6 -331.8 -9.35 -322.05 -9.35 -311.1 -9.35 -311.25 -16.2 -311.3 -17.15 -311.35 -18.55 -311.15 -19.8 -310.95 -20.35 -311.15 -20.55 -311.25 -20.65 -311.35 -20.7 -311.35 -21.4 -311.5 -21.4 -322.05 -21.35 -331.95 -21.3 Q-331.75 -21.0 -331.8 -20.55 L-331.85 -20.3 M-327.4 -15.85 L-327.45 -16.0 -327.45 -16.25 -327.3 -16.85 -327.0 -17.4 -326.05 -18.3 -324.85 -18.45 -324.65 -17.7 -324.9 -17.2 -325.15 -16.65 Q-325.15 -15.55 -323.05 -14.75 -321.0 -14.0 -321.0 -13.4 L-321.15 -13.15 -320.05 -13.3 -319.75 -13.3 -319.45 -13.5 -318.75 -14.05 -318.45 -14.15 Q-317.75 -14.35 -317.75 -13.35 -317.75 -12.65 -318.95 -11.55 -320.35 -10.35 -321.9 -10.35 -323.2 -10.35 -324.7 -11.8 L-326.05 -13.3 -326.05 -13.35 -326.9 -14.25 Q-327.35 -15.05 -327.4 -15.85 M-333.75 -21.5 L-333.65 -21.9 Q-333.65 -22.5 -332.15 -22.55 L-321.15 -22.5 -317.0 -22.5 -310.8 -22.35 Q-310.5 -22.35 -310.4 -22.15 L-310.15 -22.05 Q-309.65 -22.65 -309.7 -20.75 L-309.7 -20.7 Q-309.95 -19.0 -309.7 -15.5 L-309.8 -9.1 -309.95 -8.95 -310.4 -8.85 -320.3 -8.15 -319.5 -8.05 Q-330.0 -8.15 -332.3 -8.35 L-332.45 -8.35 Q-332.65 -8.2 -332.95 -8.2 L-333.15 -8.45 Q-333.65 -8.6 -333.65 -8.85 L-333.75 -9.2 -333.3 -9.3 -333.65 -13.05 -333.85 -17.9 -333.55 -21.4 Q-333.75 -21.4 -333.75 -21.5" fill="#1e1b1a" fill-rule="evenodd" stroke="none"/>
    <path d="M-332.2 -17.1 L-332.2 -17.05 -332.2 -16.75 -332.2 -17.1 M-332.2 -15.95 L-327.4 -15.85 Q-327.35 -15.05 -326.9 -14.25 L-326.05 -13.35 -326.05 -13.3 -324.7 -11.8 Q-323.2 -10.35 -321.9 -10.35 -320.35 -10.35 -318.95 -11.55 -317.75 -12.65 -317.75 -13.35 -317.75 -14.35 -318.45 -14.15 -317.55 -15.0 -317.55 -16.1 L-317.55 -16.15 -315.25 -15.85 -311.25 -16.2 -311.1 -9.35 -322.05 -9.35 -331.8 -9.35 -331.8 -9.6 -332.2 -15.95 M-319.45 -13.5 L-319.75 -13.3 -320.05 -13.3 -319.45 -13.5" fill="#272321" fill-rule="evenodd" stroke="none"/>
    <path d="M-324.85 -18.45 Q-323.65 -19.0 -322.15 -19.1 -318.7 -19.35 -317.8 -17.5 L-317.55 -16.15 -317.55 -16.1 Q-317.55 -15.0 -318.45 -14.15 L-318.75 -14.05 -319.45 -13.5 -320.05 -13.3 -321.15 -13.15 -321.0 -13.4 Q-321.0 -14.0 -323.05 -14.75 -325.15 -15.55 -325.15 -16.65 L-324.9 -17.2 -324.65 -17.7 -324.85 -18.45 M-320.45 -16.0 Q-319.45 -16.0 -319.15 -16.3 -318.9 -16.5 -318.9 -17.05 -318.9 -18.15 -320.55 -17.95 -322.15 -17.75 -322.15 -17.1 L-321.9 -16.55 Q-321.45 -16.0 -320.45 -16.0" fill="#3c3431" fill-rule="evenodd" stroke="none"/>
    <path d="M-320.45 -16.0 Q-321.45 -16.0 -321.9 -16.55 L-322.15 -17.1 Q-322.15 -17.75 -320.55 -17.95 -318.9 -18.15 -318.9 -17.05 -318.9 -16.5 -319.15 -16.3 -319.45 -16.0 -320.45 -16.0" fill="#453c38" fill-rule="evenodd" stroke="none"/>
    <path d="M-309.55 -19.15 L-309.3 -20.1 Q-309.2 -20.75 -309.4 -21.2 L-308.9 -21.2 -308.7 -21.2 -308.25 -21.2 -295.65 -21.4 -286.9 -21.7 -287.55 -19.9 -287.65 -17.05 -296.05 -17.55 -303.15 -19.0 -309.5 -19.3 -309.55 -19.15 M-287.6 -15.95 Q-287.5 -12.15 -287.2 -10.4 L-298.1 -10.9 -309.6 -10.4 -309.5 -9.9 -306.2 -9.4 -309.5 -9.75 -309.7 -10.6 -309.9 -11.35 -309.9 -11.6 -307.1 -12.05 -306.85 -12.1 -306.3 -12.1 -297.1 -11.95 -298.25 -12.2 -292.5 -12.0 -287.45 -12.25 -287.55 -13.8 -295.5 -13.45 Q-295.9 -14.2 -302.7 -14.5 L-309.55 -14.1 -309.55 -14.3 -309.45 -15.35 -308.35 -15.2 -302.5 -15.5 -294.75 -15.85 -287.6 -15.95 M-287.05 -9.7 L-287.05 -9.55 -287.45 -9.6 -287.05 -9.7 M-308.25 -13.05 L-309.75 -12.8 -309.7 -13.35 -308.25 -13.05 M-305.05 -17.1 L-307.2 -17.5 -309.4 -17.4 -309.5 -17.55 -309.8 -18.0 -309.8 -18.15 -307.2 -17.6 -304.1 -17.15 -305.05 -17.1" fill="#37343a" fill-rule="evenodd" stroke="none"/>
    <path d="M-287.65 -17.05 L-287.55 -19.9 -286.9 -21.7 -295.65 -21.4 -308.25 -21.2 -308.7 -21.2 -308.9 -21.2 -309.4 -21.2 Q-309.2 -20.75 -309.3 -20.1 L-309.55 -19.15 -309.65 -18.85 -309.7 -18.6 -309.8 -18.15 -309.8 -18.0 -309.5 -17.55 -309.4 -17.4 -307.2 -17.5 -305.05 -17.1 -304.75 -16.9 -304.7 -16.85 -304.7 -16.75 Q-304.7 -16.45 -304.9 -16.4 L-305.95 -16.3 -309.05 -16.65 -309.3 -16.7 -309.3 -16.65 -309.45 -15.35 -309.55 -14.3 -309.55 -14.1 -309.7 -13.35 -309.75 -12.8 -308.25 -13.05 -308.2 -13.05 -306.2 -13.0 -306.15 -12.95 -306.1 -12.95 -306.1 -12.9 -306.05 -12.6 Q-306.05 -12.4 -306.85 -12.1 L-307.1 -12.05 -309.9 -11.6 -309.9 -11.35 -309.7 -10.6 -309.5 -9.75 -306.2 -9.4 -305.45 -9.35 -304.35 -9.3 -299.3 -9.3 -288.6 -9.7 -287.45 -9.6 -287.05 -9.55 -287.05 -9.7 -287.2 -10.4 Q-287.5 -12.15 -287.6 -15.95 L-287.65 -16.5 -287.65 -17.05 M-310.45 -21.75 Q-310.45 -22.15 -309.8 -22.25 L-305.6 -22.35 -300.55 -22.5 -287.1 -22.2 -286.75 -21.95 -286.55 -22.2 Q-285.85 -23.05 -285.85 -21.5 L-286.3 -16.5 -285.85 -9.5 -285.95 -9.05 -286.05 -8.95 -286.05 -8.85 Q-286.35 -8.5 -287.0 -8.4 L-288.0 -8.3 -296.8 -8.4 Q-306.75 -8.4 -308.85 -8.55 L-310.3 -8.5 Q-311.0 -8.45 -311.15 -9.05 L-311.05 -9.65 -310.9 -10.25 -311.15 -10.8 -311.35 -11.3 -310.9 -14.85 -311.35 -18.0 -311.3 -20.15 Q-311.15 -21.2 -310.45 -21.75" fill="#201e22" fill-rule="evenodd" stroke="none"/>
    <path d="M-309.55 -19.15 L-309.5 -19.3 -303.15 -19.0 -296.05 -17.55 -295.95 -17.5 Q-295.95 -17.05 -296.3 -17.0 L-299.85 -16.95 -304.1 -17.15 -307.2 -17.6 -309.8 -18.15 -309.7 -18.6 -309.65 -18.85 -309.55 -19.15 M-287.2 -10.4 L-287.05 -9.7 -287.45 -9.6 -288.6 -9.7 -299.3 -9.3 -304.35 -9.3 -305.45 -9.35 -306.2 -9.4 -309.5 -9.9 -309.6 -10.4 -298.1 -10.9 -287.2 -10.4 M-306.1 -12.95 L-306.15 -12.95 -306.2 -13.0 -308.2 -13.05 -308.25 -13.05 -309.7 -13.35 -309.55 -14.1 -302.7 -14.5 Q-295.9 -14.2 -295.5 -13.45 L-295.5 -13.4 Q-295.5 -13.0 -296.65 -12.9 L-301.7 -12.9 -306.1 -12.95" fill="#4f4a53" fill-rule="evenodd" stroke="none"/>
    <path d="M-296.05 -17.55 L-287.65 -17.05 -287.65 -16.5 -287.6 -15.95 -294.75 -15.85 -302.5 -15.5 -308.35 -15.2 -309.45 -15.35 -309.3 -16.65 -309.05 -16.65 -305.95 -16.3 -304.9 -16.4 Q-304.7 -16.45 -304.7 -16.75 L-304.7 -16.85 -304.75 -16.9 -305.05 -17.1 -304.1 -17.15 -299.85 -16.95 -296.3 -17.0 Q-295.95 -17.05 -295.95 -17.5 L-296.05 -17.55 M-306.85 -12.1 Q-306.05 -12.4 -306.05 -12.6 L-306.1 -12.9 -306.1 -12.95 -301.7 -12.9 -296.65 -12.9 Q-295.5 -13.0 -295.5 -13.4 L-295.5 -13.45 -287.55 -13.8 -287.45 -12.25 -292.5 -12.0 -298.25 -12.2 -297.1 -11.95 -306.3 -12.1 -306.85 -12.1" fill="#343136" fill-rule="evenodd" stroke="none"/>
    <path d="M-103.95 -18.25 L-103.7 -19.2 Q-103.6 -19.85 -103.8 -20.3 L-103.3 -20.3 -103.1 -20.3 -102.65 -20.3 -90.05 -20.5 -81.3 -20.8 -81.95 -19.0 -82.05 -16.15 -90.45 -16.65 -97.55 -18.1 -103.9 -18.4 -103.95 -18.25 M-82.0 -15.05 Q-81.9 -11.25 -81.6 -9.5 L-92.5 -10.0 -104.0 -9.5 -103.9 -9.0 -100.6 -8.5 -103.9 -8.85 -104.1 -9.7 -104.3 -10.45 -104.3 -10.7 -101.5 -11.15 -101.25 -11.2 -100.7 -11.2 -91.5 -11.05 -92.65 -11.3 -86.9 -11.1 -81.85 -11.35 -81.95 -12.9 -89.9 -12.55 Q-90.3 -13.3 -97.1 -13.6 L-103.95 -13.2 -103.95 -13.4 -103.85 -14.45 -102.75 -14.3 -96.9 -14.6 -89.15 -14.95 -82.0 -15.05 M-81.45 -8.8 L-81.45 -8.65 -81.85 -8.7 -81.45 -8.8 M-102.65 -12.15 L-104.15 -11.9 -104.1 -12.45 -102.65 -12.15 M-99.45 -16.2 L-101.6 -16.6 -103.8 -16.5 -103.9 -16.65 -104.2 -17.1 -104.2 -17.25 -101.6 -16.7 -98.5 -16.25 -99.45 -16.2" fill="#37343a" fill-rule="evenodd" stroke="none"/>
    <path d="M-104.2 -21.35 L-100.0 -21.45 -94.95 -21.6 -81.5 -21.3 -81.15 -21.05 -80.95 -21.3 Q-80.25 -22.15 -80.25 -20.6 L-80.7 -15.6 -80.25 -8.6 Q-80.25 -8.2 -80.35 -8.15 L-80.45 -8.05 -80.45 -7.95 Q-80.75 -7.6 -81.4 -7.5 L-82.4 -7.4 -91.2 -7.5 Q-101.15 -7.5 -103.25 -7.65 L-104.7 -7.6 Q-105.4 -7.55 -105.55 -8.15 L-105.45 -8.75 -105.3 -9.35 -105.55 -9.9 -105.75 -10.4 -105.3 -13.95 -105.75 -17.1 -105.7 -19.25 Q-105.55 -20.3 -104.85 -20.85 L-104.2 -21.35 M-82.05 -16.15 L-81.95 -19.0 -81.3 -20.8 -90.05 -20.5 -102.65 -20.3 -103.1 -20.3 -103.3 -20.3 -103.8 -20.3 Q-103.6 -19.85 -103.7 -19.2 L-103.95 -18.25 -104.05 -17.95 -104.1 -17.7 -104.2 -17.25 -104.2 -17.1 -103.9 -16.65 -103.8 -16.5 -101.6 -16.6 -99.45 -16.2 -99.15 -16.0 -99.1 -15.95 -99.1 -15.85 Q-99.1 -15.55 -99.3 -15.5 L-100.35 -15.4 -103.45 -15.75 -103.7 -15.8 -103.7 -15.75 -103.85 -14.45 -103.95 -13.4 -103.95 -13.2 -104.1 -12.45 -104.15 -11.9 -102.65 -12.15 -102.6 -12.15 -100.6 -12.1 -100.55 -12.05 -100.5 -12.05 -100.5 -12.0 -100.45 -11.7 -101.25 -11.2 -101.5 -11.15 -104.3 -10.7 -104.3 -10.45 -104.1 -9.7 -103.9 -8.85 -100.6 -8.5 -99.85 -8.45 -98.75 -8.4 -93.7 -8.4 -83.0 -8.8 -81.85 -8.7 -81.45 -8.65 -81.45 -8.8 -81.6 -9.5 Q-81.9 -11.25 -82.0 -15.05 L-82.05 -15.6 -82.05 -16.15" fill="#201e22" fill-rule="evenodd" stroke="none"/>
    <path d="M-90.45 -16.65 L-82.05 -16.15 -82.05 -15.6 -82.0 -15.05 -89.15 -14.95 -96.9 -14.6 -102.75 -14.3 -103.85 -14.45 -103.7 -15.75 -103.45 -15.75 -100.35 -15.4 -99.3 -15.5 Q-99.1 -15.55 -99.1 -15.85 L-99.1 -15.95 -99.15 -16.0 -99.45 -16.2 -98.5 -16.25 -94.25 -16.05 -90.7 -16.1 Q-90.35 -16.15 -90.35 -16.6 L-90.45 -16.65 M-101.25 -11.2 L-100.45 -11.7 -100.5 -12.0 -100.5 -12.05 -96.1 -12.0 -91.05 -12.0 Q-89.9 -12.1 -89.9 -12.5 L-89.9 -12.55 -81.95 -12.9 -81.85 -11.35 -86.9 -11.1 -92.65 -11.3 -91.5 -11.05 -100.7 -11.2 -101.25 -11.2" fill="#343136" fill-rule="evenodd" stroke="none"/>
    <path d="M-103.95 -18.25 L-103.9 -18.4 -97.55 -18.1 -90.45 -16.65 -90.35 -16.6 Q-90.35 -16.15 -90.7 -16.1 L-94.25 -16.05 -98.5 -16.25 -101.6 -16.7 -104.2 -17.25 -104.1 -17.7 -104.05 -17.95 -103.95 -18.25 M-81.6 -9.5 L-81.45 -8.8 -81.85 -8.7 -83.0 -8.8 -93.7 -8.4 -98.75 -8.4 -99.85 -8.45 -100.6 -8.5 -103.9 -9.0 -104.0 -9.5 -92.5 -10.0 -81.6 -9.5 M-100.5 -12.05 L-100.55 -12.05 -100.6 -12.1 -102.6 -12.15 -102.65 -12.15 -104.1 -12.45 -103.95 -13.2 -97.1 -13.6 Q-90.3 -13.3 -89.9 -12.55 L-89.9 -12.5 Q-89.9 -12.1 -91.05 -12.0 L-96.1 -12.0 -100.5 -12.05" fill="#4f4a53" fill-rule="evenodd" stroke="none"/>
    <path d="M-81.35 -17.0 L-81.05 -20.5 Q-81.25 -20.5 -81.25 -20.6 L-81.15 -21.0 Q-81.15 -21.6 -79.65 -21.65 L-68.65 -21.6 -64.5 -21.6 -58.3 -21.45 Q-58.0 -21.45 -57.9 -21.25 L-57.65 -21.15 Q-57.15 -21.75 -57.2 -19.85 L-57.2 -19.8 Q-57.45 -18.1 -57.2 -14.6 L-57.3 -8.2 -57.45 -8.05 -57.9 -7.95 -67.8 -7.25 -67.0 -7.15 Q-77.5 -7.25 -79.8 -7.45 L-79.95 -7.45 -80.45 -7.3 -80.65 -7.55 -81.15 -7.95 -81.25 -8.3 -80.8 -8.4 -81.15 -12.15 -81.35 -17.0 M-72.35 -17.55 L-72.15 -16.8 -72.4 -16.3 -72.65 -15.75 Q-72.65 -14.65 -70.55 -13.85 -68.5 -13.1 -68.5 -12.5 L-68.65 -12.25 -67.55 -12.4 -67.25 -12.4 -66.95 -12.6 -66.25 -13.15 -65.95 -13.25 Q-65.25 -13.45 -65.25 -12.45 -65.25 -11.75 -66.45 -10.65 -67.85 -9.45 -69.4 -9.45 -70.7 -9.45 -72.2 -10.9 -73.55 -12.1 -73.55 -12.4 L-73.55 -12.45 -74.4 -13.35 Q-74.85 -14.15 -74.9 -14.95 L-74.95 -15.1 -74.95 -15.35 -74.8 -15.95 -74.5 -16.5 -73.55 -17.4 -72.35 -17.55 M-79.35 -19.4 L-79.75 -17.4 -79.7 -16.2 -79.7 -15.85 -79.7 -15.05 -79.3 -8.7 -79.3 -8.45 -69.55 -8.45 -58.6 -8.45 -58.75 -15.3 -58.8 -16.25 -58.85 -17.65 -58.65 -18.9 -58.45 -19.45 -58.65 -19.65 -58.75 -19.75 -58.85 -19.8 -58.85 -20.5 -59.0 -20.5 -69.55 -20.45 -79.45 -20.4 Q-79.25 -20.1 -79.3 -19.65 L-79.35 -19.4" fill="#1e1b1a" fill-rule="evenodd" stroke="none"/>
    <path d="M-66.4 -16.15 Q-66.4 -17.25 -68.05 -17.05 -69.65 -16.85 -69.65 -16.2 L-69.4 -15.65 Q-68.95 -15.1 -67.95 -15.1 -66.95 -15.1 -66.65 -15.4 -66.4 -15.6 -66.4 -16.15 M-67.55 -12.4 L-68.65 -12.25 -68.5 -12.5 Q-68.5 -13.1 -70.55 -13.85 -72.65 -14.65 -72.65 -15.75 L-72.4 -16.3 -72.15 -16.8 -72.35 -17.55 -69.65 -18.2 Q-66.2 -18.45 -65.3 -16.6 L-65.05 -15.25 -65.05 -15.2 Q-65.05 -14.1 -65.95 -13.25 L-66.25 -13.15 -66.95 -12.6 -67.55 -12.4" fill="#3c3431" fill-rule="evenodd" stroke="none"/>
    <path d="M-66.4 -16.15 Q-66.4 -15.6 -66.65 -15.4 -66.95 -15.1 -67.95 -15.1 -68.95 -15.1 -69.4 -15.65 L-69.65 -16.2 Q-69.65 -16.85 -68.05 -17.05 -66.4 -17.25 -66.4 -16.15" fill="#453c38" fill-rule="evenodd" stroke="none"/>
    <path d="M-74.9 -14.95 Q-74.85 -14.15 -74.4 -13.35 L-73.55 -12.45 -73.55 -12.4 Q-73.55 -12.1 -72.2 -10.9 -70.7 -9.45 -69.4 -9.45 -67.85 -9.45 -66.45 -10.65 -65.25 -11.75 -65.25 -12.45 -65.25 -13.45 -65.95 -13.25 -65.05 -14.1 -65.05 -15.2 L-65.05 -15.25 -62.75 -14.95 -58.75 -15.3 -58.6 -8.45 -69.55 -8.45 -79.3 -8.45 -79.3 -8.7 -79.7 -15.05 -74.9 -14.95 M-66.95 -12.6 L-67.25 -12.4 -67.55 -12.4 -66.95 -12.6 M-79.7 -16.2 L-79.7 -16.15 -79.7 -15.85 -79.7 -16.2" fill="#272321" fill-rule="evenodd" stroke="none"/>
    <path d="M-72.35 -17.55 L-73.55 -17.4 -74.5 -16.5 -74.8 -15.95 -74.95 -15.35 -74.95 -15.1 -74.9 -14.95 -79.7 -15.05 -79.7 -15.85 -79.7 -16.15 -79.7 -16.2 -79.75 -17.4 -79.35 -19.4 -78.5 -18.85 -77.15 -19.05 -74.15 -19.3 -72.7 -19.2 -69.65 -19.0 -59.45 -18.85 -58.65 -18.9 -58.85 -17.65 -58.8 -16.25 -58.75 -15.3 -62.75 -14.95 -65.05 -15.25 -65.3 -16.6 Q-66.2 -18.45 -69.65 -18.2 L-72.35 -17.55" fill="#332d2b" fill-rule="evenodd" stroke="none"/>
    <path d="M-58.65 -18.9 L-59.45 -18.85 -69.65 -19.0 -72.7 -19.2 -74.15 -19.3 -77.15 -19.05 -78.5 -18.85 -79.35 -19.4 -79.3 -19.65 Q-79.25 -20.1 -79.45 -20.4 L-69.55 -20.45 -59.0 -20.5 -58.85 -20.5 -58.85 -19.8 -58.75 -19.75 -58.65 -19.65 -58.45 -19.45 -58.65 -18.9" fill="#3e3632" fill-rule="evenodd" stroke="none"/>
    <path d="M-51.6 -16.25 L-47.35 -16.05 -43.8 -16.1 Q-43.45 -16.15 -43.45 -16.6 L-43.55 -16.65 -35.15 -16.15 -35.15 -15.6 -35.1 -15.05 -42.25 -14.95 -50.0 -14.6 -55.85 -14.3 -56.95 -14.45 -56.8 -15.75 -56.55 -15.75 -53.45 -15.4 -52.4 -15.5 -52.2 -15.85 -52.2 -15.95 -52.25 -16.0 -52.55 -16.2 -51.6 -16.25 M-43.0 -12.55 L-35.05 -12.9 -34.95 -11.35 -40.0 -11.1 -45.75 -11.3 -44.6 -11.05 -53.8 -11.2 -54.35 -11.2 Q-53.55 -11.5 -53.55 -11.7 L-53.6 -12.0 -53.6 -12.05 -49.2 -12.0 -44.15 -12.0 Q-43.0 -12.1 -43.0 -12.5 L-43.0 -12.55" fill="#343136" fill-rule="evenodd" stroke="none"/>
    <path d="M-43.55 -16.65 L-43.45 -16.6 Q-43.45 -16.15 -43.8 -16.1 L-47.35 -16.05 -51.6 -16.25 -54.7 -16.7 -57.3 -17.25 -57.2 -17.7 -57.15 -17.95 -57.05 -18.25 -57.0 -18.4 -50.65 -18.1 -43.55 -16.65 M-57.05 -13.2 L-50.2 -13.6 Q-43.4 -13.3 -43.0 -12.55 L-43.0 -12.5 Q-43.0 -12.1 -44.15 -12.0 L-49.2 -12.0 -53.6 -12.05 -53.65 -12.05 -53.7 -12.1 -55.7 -12.15 -55.75 -12.15 -57.2 -12.45 -57.05 -13.2 M-53.7 -8.5 L-57.0 -9.0 -57.1 -9.5 -45.6 -10.0 -34.7 -9.5 -34.55 -8.8 -34.95 -8.7 -36.1 -8.8 -46.8 -8.4 -51.85 -8.4 -52.95 -8.45 -53.7 -8.5" fill="#4f4a53" fill-rule="evenodd" stroke="none"/>
    <path d="M-51.6 -16.25 L-52.55 -16.2 -54.7 -16.6 -56.9 -16.5 -57.0 -16.65 -57.3 -17.1 -57.3 -17.25 -54.7 -16.7 -51.6 -16.25 M-56.95 -14.45 L-55.85 -14.3 -50.0 -14.6 -42.25 -14.95 -35.1 -15.05 Q-35.0 -11.25 -34.7 -9.5 L-45.6 -10.0 -57.1 -9.5 -57.0 -9.0 -53.7 -8.5 -57.0 -8.85 -57.2 -9.7 -57.4 -10.45 -57.4 -10.7 -54.6 -11.15 -54.35 -11.2 -53.8 -11.2 -44.6 -11.05 -45.75 -11.3 -40.0 -11.1 -34.95 -11.35 -35.05 -12.9 -43.0 -12.55 Q-43.4 -13.3 -50.2 -13.6 L-57.05 -13.2 -57.05 -13.4 -56.95 -14.45 M-35.15 -16.15 L-43.55 -16.65 -50.65 -18.1 -57.0 -18.4 -57.05 -18.25 -56.8 -19.2 Q-56.7 -19.85 -56.9 -20.3 L-56.4 -20.3 -56.2 -20.3 -55.75 -20.3 -43.15 -20.5 -34.4 -20.8 -35.05 -19.0 -35.15 -16.15 M-55.75 -12.15 L-57.25 -11.9 -57.2 -12.45 -55.75 -12.15 M-34.55 -8.8 L-34.55 -8.65 -34.95 -8.7 -34.55 -8.8" fill="#37343a" fill-rule="evenodd" stroke="none"/>
    <path d="M-52.55 -16.2 L-52.25 -16.0 -52.2 -15.95 -52.2 -15.85 -52.4 -15.5 -53.45 -15.4 -56.55 -15.75 -56.8 -15.8 -56.8 -15.75 -56.95 -14.45 -57.05 -13.4 -57.05 -13.2 -57.2 -12.45 -57.25 -11.9 -55.75 -12.15 -55.7 -12.15 -53.7 -12.1 -53.65 -12.05 -53.6 -12.05 -53.6 -12.0 -53.55 -11.7 Q-53.55 -11.5 -54.35 -11.2 L-54.6 -11.15 -57.4 -10.7 -57.4 -10.45 -57.2 -9.7 -57.0 -8.85 -53.7 -8.5 -52.95 -8.45 -51.85 -8.4 -46.8 -8.4 -36.1 -8.8 -34.95 -8.7 -34.55 -8.65 -34.55 -8.8 -34.7 -9.5 Q-35.0 -11.25 -35.1 -15.05 L-35.15 -15.6 -35.15 -16.15 -35.05 -19.0 -34.4 -20.8 -43.15 -20.5 -55.75 -20.3 -56.2 -20.3 -56.4 -20.3 -56.9 -20.3 Q-56.7 -19.85 -56.8 -19.2 L-57.05 -18.25 -57.15 -17.95 -57.2 -17.7 -57.3 -17.25 -57.3 -17.1 -57.0 -16.65 -56.9 -16.5 -54.7 -16.6 -52.55 -16.2 M-57.3 -21.35 L-53.1 -21.45 -48.05 -21.6 -34.6 -21.3 -34.25 -21.05 -34.05 -21.3 Q-33.35 -22.15 -33.35 -20.6 L-33.8 -15.6 -33.35 -8.6 Q-33.35 -8.2 -33.45 -8.15 L-33.55 -8.05 -33.55 -7.95 Q-33.85 -7.6 -34.5 -7.5 L-35.5 -7.4 -44.3 -7.5 Q-54.25 -7.5 -56.35 -7.65 L-57.8 -7.6 Q-58.5 -7.55 -58.65 -8.15 L-58.55 -8.75 -58.4 -9.35 -58.65 -9.9 -58.85 -10.4 -58.4 -13.95 -58.85 -17.1 -58.8 -19.25 Q-58.65 -20.3 -57.95 -20.85 -57.95 -21.25 -57.3 -21.35" fill="#201e22" fill-rule="evenodd" stroke="none"/>
  </g>
</svg>
