<?xml version="1.0" encoding="UTF-8" standalone="no"?>
<svg xmlns:ffdec="https://www.free-decompiler.com/flash" xmlns:xlink="http://www.w3.org/1999/xlink" ffdec:objectType="shape" height="21.0px" width="97.5px" xmlns="http://www.w3.org/2000/svg">
  <g transform="matrix(1.0, 0.0, 0.0, 1.0, 45.0, 9.4)">
    <path d="M50.7 -9.15 Q52.0 -9.0 52.0 -8.65 L51.5 -8.3 Q52.5 -6.6 52.5 0.85 L52.3 10.2 52.0 10.7 Q51.7 11.1 51.0 11.1 L50.7 11.1 47.85 11.3 Q38.2 11.6 2.25 11.6 L-22.4 11.5 -42.45 11.3 -43.45 11.6 -44.45 11.35 Q-44.65 10.95 -45.0 10.7 L-45.0 -7.2 -43.95 -8.25 -43.95 -8.35 Q-43.95 -9.1 -30.15 -9.25 -12.25 -9.5 49.0 -9.3 L50.7 -9.15 M49.7 -8.05 L47.85 -7.95 Q38.2 -7.65 2.25 -7.65 L-22.4 -7.75 Q-41.6 -7.85 -42.7 -8.0 L-42.95 -7.95 Q-41.9 -6.35 -41.9 1.35 L-41.9 6.05 -38.4 5.9 Q-19.95 5.4 46.25 5.6 L48.65 5.75 49.35 5.85 49.35 -7.7 49.7 -8.05 M49.0 9.95 L49.35 10.0 49.35 9.95 49.35 7.3 49.3 7.3 46.25 7.6 -41.95 7.45 -42.15 10.45 -30.15 10.0 Q-12.25 9.75 49.0 9.95" fill="#453a27" fill-rule="evenodd" stroke="none"/>
    <path d="M49.7 -8.05 L49.35 -7.7 49.35 5.85 48.65 5.75 46.25 5.6 Q-19.95 5.4 -38.4 5.9 L-41.9 6.05 -41.9 1.35 Q-41.9 -6.35 -42.95 -7.95 L-42.7 -8.0 Q-41.6 -7.85 -22.4 -7.75 L2.25 -7.65 Q38.2 -7.65 47.85 -7.95 L49.7 -8.05" fill="#bfaf91" fill-rule="evenodd" stroke="none"/>
    <path d="M49.35 9.95 L49.0 9.95 Q-12.25 9.75 -30.15 10.0 L-42.15 10.45 -41.95 7.45 46.25 7.6 49.3 7.3 49.35 7.3 49.35 9.95" fill="#6c5b3e" fill-rule="evenodd" stroke="none"/>
  </g>
</svg>
