<?xml version="1.0" encoding="UTF-8" standalone="no"?>
<svg xmlns:ffdec="https://www.free-decompiler.com/flash" xmlns:xlink="http://www.w3.org/1999/xlink" ffdec:objectType="shape" height="87.6px" width="34.4px" xmlns="http://www.w3.org/2000/svg">
  <g transform="matrix(1.0, 0.0, 0.0, 1.0, 15.4, 43.8)">
    <path d="M-14.8 1.3 L-14.6 -4.6 -14.6 -29.65 -14.55 -29.8 Q-12.6 -35.25 -11.6 -38.75 L-10.65 -39.7 -9.6 -40.85 -9.05 -41.15 Q-5.05 -43.15 0.9 -43.65 4.65 -43.95 7.7 -43.6 9.4 -43.95 13.75 -43.5 L13.9 -42.85 14.0 -41.6 Q15.4 -40.55 15.4 -39.1 L15.35 -37.6 15.15 -36.85 13.0 -36.7 10.45 -36.8 8.65 -37.1 6.8 -37.1 6.65 -37.1 -3.35 -36.65 -3.6 -36.65 -5.55 -36.3 -5.8 -36.25 -5.85 -36.25 -7.5 -35.7 -8.1 -35.05 -8.0 -34.15 Q-8.45 -33.35 -8.55 -32.25 L-8.65 -32.2 -8.6 -31.0 -8.6 -30.85 -8.6 -15.85 -8.6 -15.75 -8.6 -15.65 -8.6 -13.25 -8.6 -13.1 -8.6 -12.85 -8.6 -12.3 -8.8 -0.75 -8.8 1.3 -14.8 1.3 -8.8 1.3 -8.6 14.9 Q-8.55 16.85 -8.8 21.8 -8.65 25.9 -6.7 29.0 L-5.85 31.4 -3.8 34.25 Q-2.85 35.6 -1.0 36.15 L-0.1 36.9 3.05 37.7 12.4 39.4 Q13.35 39.6 14.15 40.3 L14.7 40.9 Q15.4 41.85 15.4 42.5 L15.25 43.8 13.9 43.6 7.8 43.75 4.4 42.85 -1.95 42.4 Q-5.25 40.3 -7.9 39.75 -12.95 34.8 -14.55 25.4 -15.7 18.8 -15.3 8.85 L-14.8 1.3 M15.4 -24.95 L18.25 -24.5 18.65 -24.7 Q19.0 -24.55 19.0 -23.0 19.0 -21.95 16.15 -20.4 L14.0 -19.15 14.15 -18.25 14.5 -13.25 Q14.7 -7.8 14.4 0.0 L14.4 1.3 14.4 13.9 14.25 16.5 Q14.65 17.3 14.4 18.15 14.0 19.45 14.0 20.5 14.0 22.0 15.4 22.4 L17.0 23.0 Q16.8 24.15 16.1 24.55 L13.5 25.0 12.8 24.9 10.0 24.5 10.0 17.75 10.45 17.2 10.4 16.15 10.4 4.9 10.35 1.3 9.9 -8.2 9.45 -16.25 9.4 -17.6 Q9.4 -18.85 10.2 -19.8 L10.0 -21.5 Q10.0 -23.5 10.5 -24.05 11.7 -25.3 15.4 -24.95 M10.35 1.3 L14.4 1.3 10.35 1.3" fill="#34270e" fill-rule="evenodd" stroke="none"/>
    <path d="M13.0 -36.7 L13.6 -35.35 13.8 -34.9 6.95 -34.4 -1.6 -33.6 -4.6 -31.95 -4.4 -28.6 -4.6 -18.35 -4.5 -8.95 -4.6 0.4 -4.6 1.3 -8.8 1.3 -4.6 1.3 -4.65 9.85 -4.6 19.9 -4.1 24.8 Q-3.6 28.15 -3.6 29.65 -1.15 30.2 0.75 33.0 4.1 35.55 14.4 36.35 L14.15 40.1 14.15 40.2 14.15 40.3 Q13.35 39.6 12.4 39.4 L3.05 37.7 -0.1 36.9 -1.0 36.15 Q-2.85 35.6 -3.8 34.25 L-5.85 31.4 -6.7 29.0 Q-8.65 25.9 -8.8 21.8 -8.55 16.85 -8.6 14.9 L-8.8 1.3 -8.8 -0.75 -8.6 -12.3 -8.6 -12.85 -8.6 -13.1 -8.6 -13.25 -8.6 -15.65 -8.6 -15.75 -8.6 -15.85 -8.6 -30.85 -8.6 -31.0 -8.0 -34.15 -7.5 -35.7 -5.85 -36.25 -5.8 -36.25 -5.55 -36.3 -3.6 -36.65 -3.35 -36.65 6.65 -37.1 6.65 -36.85 6.8 -37.1 8.65 -37.1 10.45 -36.8 13.0 -36.7" fill="#473612" fill-rule="evenodd" stroke="none"/>
    <path d="M13.8 -34.9 L14.0 -34.25 Q14.4 -32.85 14.4 -31.0 L14.15 -28.0 Q13.45 -28.6 12.4 -28.8 12.2 -27.4 11.3 -26.65 L8.9 -25.3 Q5.4 -23.15 5.4 -14.85 L5.4 1.3 -4.6 1.3 5.4 1.3 5.4 13.65 Q5.4 18.3 6.4 21.15 7.4 23.8 10.15 25.1 12.75 26.4 13.4 28.15 L13.4 27.4 13.25 26.25 Q13.75 27.3 14.05 28.65 14.4 30.15 14.4 34.9 L14.4 36.35 Q4.1 35.55 0.75 33.0 -1.15 30.2 -3.6 29.65 -3.6 28.15 -4.1 24.8 L-4.6 19.9 -4.65 9.85 -4.6 1.3 -4.6 0.4 -4.5 -8.95 -4.6 -18.35 -4.4 -28.6 -4.6 -31.95 -1.6 -33.6 6.95 -34.4 13.8 -34.9 M-8.6 -31.0 L-8.65 -32.2 -8.55 -32.25 Q-8.45 -33.35 -8.0 -34.15 L-8.1 -35.05 -7.5 -35.7 -8.0 -34.15 -8.6 -31.0 M12.9 29.65 Q13.0 29.05 13.25 28.9 L13.4 28.2 12.25 29.95 12.9 29.65" fill="#8e6c24" fill-rule="evenodd" stroke="none"/>
    <path d="M14.15 -28.0 Q15.35 -27.05 15.4 -24.95 11.7 -25.3 10.5 -24.05 10.0 -23.5 10.0 -21.5 L10.2 -19.8 Q9.4 -18.85 9.4 -17.6 L9.45 -16.25 9.9 -8.2 10.35 1.3 5.4 1.3 10.35 1.3 10.4 4.9 10.4 16.15 10.45 17.2 10.0 17.75 10.0 24.5 12.8 24.9 13.25 26.25 13.4 27.4 13.4 28.15 Q12.75 26.4 10.15 25.1 7.4 23.8 6.4 21.15 5.4 18.3 5.4 13.65 L5.4 1.3 5.4 -14.85 Q5.4 -23.15 8.9 -25.3 L11.3 -26.65 Q12.2 -27.4 12.4 -28.8 13.45 -28.6 14.15 -28.0 M12.9 29.65 L12.25 29.95 13.4 28.2 13.25 28.9 Q13.0 29.05 12.9 29.65" fill="#cd9e3f" fill-rule="evenodd" stroke="none"/>
  </g>
</svg>
