<?xml version="1.0" encoding="UTF-8" standalone="no"?>
<svg xmlns:ffdec="https://www.free-decompiler.com/flash" xmlns:xlink="http://www.w3.org/1999/xlink" ffdec:objectType="shape" height="62.7px" width="63.55px" xmlns="http://www.w3.org/2000/svg">
  <g transform="matrix(1.0, 0.0, 0.0, 1.0, 15.2, 12.45)">
    <path d="M18.6 -12.1 Q32.65 -10.5 42.0 0.55 46.25 5.5 48.35 11.05 L47.1 12.1 Q48.35 17.65 47.45 23.95 L47.15 25.75 46.4 27.35 Q44.7 30.8 42.8 33.0 34.35 42.95 30.75 45.0 29.1 45.95 20.7 49.55 L20.1 48.85 12.3 48.0 10.3 47.55 7.4 50.25 Q5.25 48.75 2.25 48.35 L-2.4 48.7 -6.35 45.3 Q-14.9 36.55 -15.0 24.4 L-15.0 23.7 -15.0 23.15 -15.2 22.4 -14.9 22.2 -14.9 21.95 Q-14.45 14.65 -11.2 8.45 L-14.3 4.8 Q-11.5 -1.0 -6.0 -5.45 3.6 -13.1 16.1 -12.4 L16.8 -12.35 18.6 -12.1" fill="#00ff00" fill-rule="evenodd" stroke="none"/>
  </g>
</svg>
