<?xml version="1.0" encoding="UTF-8" standalone="no"?>
<svg xmlns:ffdec="https://www.free-decompiler.com/flash" xmlns:xlink="http://www.w3.org/1999/xlink" ffdec:objectType="shape" height="79.4px" width="31.05px" xmlns="http://www.w3.org/2000/svg">
  <g transform="matrix(1.0, 0.0, 0.0, 1.0, 15.95, 41.9)">
    <path d="M-2.45 -40.95 L0.85 -41.2 3.85 -40.7 4.05 -40.6 4.0 -40.3 3.9 -39.65 2.75 -40.7 2.5 -40.7 3.55 -39.55 Q3.05 -39.25 2.25 -38.9 L2.35 -38.8 3.75 -39.3 3.6 -38.95 3.15 -38.45 Q2.6 -38.0 1.75 -37.9 L1.25 -38.6 1.05 -38.6 1.05 -38.45 1.4 -37.85 0.9 -37.9 Q-0.65 -38.0 -1.4 -38.5 L-0.9 -38.75 0.85 -39.7 1.05 -39.7 2.2 -39.9 2.35 -40.1 Q2.4 -40.7 1.2 -40.9 0.05 -41.1 0.0 -40.4 0.0 -40.15 0.3 -39.95 L0.8 -39.7 -1.5 -38.8 -1.65 -38.7 -1.75 -38.8 Q-2.15 -39.15 -2.2 -39.65 L-2.3 -40.2 -1.7 -40.3 0.05 -40.7 -0.25 -40.8 -0.55 -40.8 -1.9 -40.55 -2.35 -40.5 -2.4 -40.65 -2.45 -40.95 M2.6 -36.3 L2.5 -36.2 2.3 -35.65 Q2.25 -35.15 3.05 -34.7 L3.6 -34.35 2.9 -34.4 2.5 -34.4 3.75 -34.25 4.25 -33.75 3.75 -33.7 4.2 -33.55 4.45 -33.55 4.55 -33.4 4.8 -32.8 5.05 -32.25 4.15 -32.3 3.45 -32.8 Q2.7 -33.45 2.0 -33.6 L2.0 -33.5 3.35 -32.6 3.6 -32.4 3.4 -32.4 0.0 -32.55 -1.1 -33.45 1.55 -35.0 0.25 -34.75 -0.9 -33.95 -1.25 -33.65 Q-2.05 -34.3 -2.8 -34.65 L-1.7 -35.35 -1.05 -35.15 -0.85 -35.15 -0.85 -35.25 -1.45 -35.5 Q-1.15 -35.8 -1.1 -36.45 L-1.1 -36.55 2.6 -36.3 M1.8 -35.75 L2.05 -35.8 0.25 -36.1 -1.15 -36.05 -0.85 -35.8 0.1 -35.55 -0.15 -35.45 -0.2 -35.4 0.6 -35.3 1.5 -35.4 1.9 -35.6 1.8 -35.75 M-2.3 -32.65 L-1.35 -33.35 -0.45 -32.55 -2.15 -32.65 -2.3 -32.65 M-4.95 -32.75 L-3.9 -33.75 -3.7 -33.65 -2.6 -33.45 -2.25 -33.45 Q-2.65 -33.45 -3.7 -33.95 L-3.65 -34.0 -2.95 -34.55 -1.55 -33.5 -1.9 -33.3 -2.65 -32.7 -4.95 -32.75 M-3.5 31.9 L-3.5 31.8 Q-3.45 31.15 -3.7 30.8 L-3.05 30.65 -3.0 30.7 -3.0 30.55 -3.25 30.5 -3.9 30.6 -4.9 29.75 -3.25 29.05 -2.85 29.35 -1.85 30.3 Q-1.1 30.85 -0.65 30.75 L-3.05 28.9 -1.8 28.15 1.55 28.45 1.75 28.5 1.45 28.65 0.05 29.35 0.05 29.4 1.55 28.85 2.35 28.55 3.2 28.55 3.2 28.6 2.95 29.1 2.55 29.55 2.45 29.7 2.2 29.65 1.75 29.75 2.25 29.9 1.65 30.3 0.45 30.25 0.8 30.3 1.5 30.35 0.85 30.65 Q0.1 31.0 0.05 31.5 0.0 31.9 0.1 32.05 L0.2 32.15 -3.5 31.9 M-3.45 28.8 L-5.05 29.65 -5.6 29.0 -5.7 28.95 -4.15 28.65 -4.5 28.6 -5.65 28.65 -5.9 28.7 -6.7 27.7 -4.45 27.95 -3.75 28.6 -3.45 28.8 M-3.95 28.0 L-2.25 28.1 -3.3 28.7 -4.15 27.95 -3.95 28.0 M-2.45 30.9 L-2.35 30.95 -2.15 31.05 -3.15 31.2 -3.45 31.4 -2.05 31.7 -0.25 31.6 -0.6 31.5 -0.5 31.5 -0.4 31.35 -0.7 31.15 -1.6 30.9 -2.45 30.9 M1.05 36.6 L0.85 36.7 -2.15 36.75 Q-4.35 36.6 -5.4 36.05 L-5.3 35.8 -5.25 35.65 -4.85 35.8 -3.5 36.2 -3.25 36.2 -2.95 36.15 -4.6 35.55 -5.15 35.35 -5.0 34.8 Q-4.85 34.25 -4.35 34.0 L-2.05 35.3 -2.6 35.45 -2.95 35.85 Q-3.0 36.55 -1.75 36.55 -0.6 36.5 -0.55 35.95 L-0.7 35.65 Q-1.0 35.4 -1.75 35.3 L-2.0 35.3 Q-2.4 34.7 -4.1 33.8 L-1.7 33.5 -1.2 33.55 -1.6 34.1 -1.6 34.25 -1.4 34.25 -0.85 33.65 Q0.35 33.95 0.85 34.95 L1.0 35.3 -0.35 34.65 -0.5 34.7 0.7 35.5 -0.45 36.5 -0.25 36.55 1.0 35.7 1.0 36.3 1.05 36.6" fill="#3c3528" fill-rule="evenodd" stroke="none"/>
    <path d="M-2.45 -40.95 L-2.4 -40.65 -2.35 -40.5 -1.9 -40.55 -0.55 -40.8 -0.25 -40.8 0.05 -40.7 -1.7 -40.3 -2.3 -40.2 -2.2 -39.65 Q-2.15 -39.15 -1.75 -38.8 L-1.65 -38.7 -1.5 -38.8 0.8 -39.7 0.85 -39.7 -0.9 -38.75 -1.4 -38.5 Q-0.65 -38.0 0.9 -37.9 L1.4 -37.85 1.05 -38.45 1.05 -38.6 1.25 -38.6 1.75 -37.9 Q2.6 -38.0 3.15 -38.45 L3.6 -38.95 3.75 -39.3 2.35 -38.8 2.25 -38.9 Q3.05 -39.25 3.55 -39.55 L2.5 -40.7 2.75 -40.7 3.9 -39.65 4.0 -40.3 4.05 -40.6 4.6 -39.9 5.5 -40.0 4.7 -39.65 4.75 -38.9 4.75 -38.8 5.15 -38.3 5.35 -38.05 Q5.3 -37.95 5.1 -37.95 L4.8 -38.35 4.7 -38.4 4.7 -38.35 4.45 -37.7 3.75 -37.25 3.65 -37.2 3.35 -37.05 3.3 -36.9 3.3 -36.85 2.8 -36.85 2.4 -36.9 2.5 -36.65 2.45 -36.6 2.15 -36.9 2.05 -36.9 -2.0 -37.3 -2.25 -37.4 Q-2.25 -37.55 -2.6 -37.6 L-3.1 -37.75 -3.3 -37.8 -3.45 -38.05 -3.65 -38.35 -3.7 -38.95 -3.75 -39.35 Q-3.65 -40.2 -3.35 -40.4 L-2.45 -40.95 M-6.55 -31.1 L-6.55 -31.35 -6.35 -31.35 -6.35 -31.05 -6.3 -30.55 -6.35 -30.2 -6.6 -30.2 -6.6 -30.55 -6.55 -31.1 M-4.0 -31.5 L-4.0 -31.55 -3.8 -31.55 -3.75 -31.5 -3.75 -30.65 -3.8 -29.9 -4.0 -29.95 -4.05 -30.65 -4.0 -31.5 M3.35 -30.25 L3.4 -30.75 3.6 -30.75 3.7 -30.35 3.75 -29.45 3.4 -29.45 3.35 -30.05 3.35 -30.25 M5.9 -30.85 L5.95 -30.9 6.15 -30.9 6.1 -30.85 6.2 -30.35 6.05 -29.75 6.0 -29.7 5.9 -30.3 5.9 -30.85 M8.95 -30.45 L8.95 -30.55 9.15 -30.55 9.15 -30.45 9.2 -29.8 9.05 -29.1 9.0 -29.05 8.9 -29.75 8.95 -30.45 M2.6 -36.3 L2.65 -36.3 3.0 -36.25 3.1 -36.25 3.15 -36.2 3.05 -36.05 3.1 -35.8 3.4 -35.75 4.35 -34.9 5.9 -33.75 6.15 -33.7 5.95 -33.7 Q6.3 -33.35 6.45 -32.1 L6.5 -32.05 6.6 -31.6 6.65 -31.35 5.15 -31.55 4.45 -31.5 4.35 -31.5 2.45 -31.5 0.9 -31.65 0.85 -31.65 -0.55 -31.8 -4.5 -32.15 -5.2 -32.2 -6.35 -32.3 -6.45 -32.3 Q-6.35 -33.35 -5.0 -34.3 L-2.95 -35.4 -2.65 -35.6 -2.65 -35.7 -2.6 -35.7 Q-2.2 -35.95 -2.2 -36.25 L-1.8 -36.35 -1.55 -36.55 -1.1 -36.55 -1.1 -36.45 Q-1.15 -35.8 -1.45 -35.5 L-0.85 -35.25 -0.85 -35.15 -1.05 -35.15 -1.7 -35.35 -2.8 -34.65 Q-2.05 -34.3 -1.25 -33.65 L-0.9 -33.95 0.25 -34.75 1.55 -35.0 -1.1 -33.45 0.0 -32.55 3.4 -32.4 3.6 -32.4 3.35 -32.6 2.0 -33.5 2.0 -33.6 Q2.7 -33.45 3.45 -32.8 L4.15 -32.3 5.05 -32.25 4.8 -32.8 4.55 -33.4 4.45 -33.55 4.2 -33.55 3.75 -33.7 4.25 -33.75 3.75 -34.25 2.5 -34.4 2.9 -34.4 3.6 -34.35 3.05 -34.7 Q2.25 -35.15 2.3 -35.65 L2.5 -36.2 2.6 -36.3 M7.5 -28.75 L8.05 -28.95 8.1 -28.95 8.1 -28.85 7.65 -28.45 7.55 -28.45 7.5 -28.55 7.5 -28.75 M-4.95 -32.75 L-2.65 -32.7 -1.9 -33.3 -1.55 -33.5 -2.95 -34.55 -3.65 -34.0 -3.7 -33.95 Q-2.65 -33.45 -2.25 -33.45 L-2.6 -33.45 -3.7 -33.65 -3.9 -33.75 -4.95 -32.75 M-2.3 -32.65 L-2.15 -32.65 -0.45 -32.55 -1.35 -33.35 -2.3 -32.65 M-6.8 -30.25 L-6.9 -30.25 -6.75 -30.3 -6.8 -30.25 M-9.4 24.5 L-9.15 24.35 Q-8.35 24.75 -8.2 24.95 L-9.4 24.5 M-8.1 24.95 L-7.85 25.15 -7.85 25.25 -7.9 25.75 -8.0 26.05 -8.2 26.0 -8.2 25.75 -8.15 25.2 -8.1 24.95 M-5.5 25.55 L-5.25 25.6 -5.25 25.75 -5.4 26.55 -5.4 26.6 -5.6 26.6 -5.6 26.55 -5.5 25.7 -5.5 25.55 M1.9 26.3 L2.25 26.15 2.15 26.5 2.05 26.85 1.85 26.85 1.85 26.35 1.9 26.3 M-3.5 31.9 L-3.95 31.85 -4.1 31.6 -4.5 31.5 Q-4.5 31.15 -4.8 30.85 L-4.9 30.85 -4.9 30.75 -5.15 30.5 -7.05 29.1 Q-8.3 28.05 -8.2 27.0 L-8.15 27.0 -6.95 27.05 -6.25 27.1 -2.2 27.35 -0.8 27.4 0.75 27.5 2.65 27.7 2.75 27.75 3.4 27.85 4.9 27.95 4.8 28.1 4.7 28.55 4.6 28.6 Q4.3 29.8 3.9 30.05 L4.05 30.1 3.85 30.15 2.15 31.05 1.15 31.75 0.8 31.8 0.7 32.0 0.75 32.15 0.75 32.2 0.2 32.15 0.1 32.05 Q0.0 31.9 0.05 31.5 0.1 31.0 0.85 30.65 L1.5 30.35 0.8 30.3 0.45 30.25 1.65 30.3 2.25 29.9 1.75 29.75 2.2 29.65 2.45 29.7 2.55 29.55 2.95 29.1 3.2 28.6 3.25 28.55 3.2 28.55 2.35 28.55 1.55 28.85 0.05 29.4 0.05 29.35 1.45 28.65 1.75 28.5 1.55 28.45 -1.8 28.15 -3.05 28.9 -0.65 30.75 Q-1.1 30.85 -1.85 30.3 L-2.85 29.35 -3.25 29.05 -4.9 29.75 -3.9 30.6 -3.25 30.5 -3.0 30.55 -3.0 30.7 -3.05 30.65 -3.7 30.8 Q-3.45 31.15 -3.5 31.8 L-3.5 31.9 M-3.95 28.0 L-4.15 27.95 -3.3 28.7 -2.25 28.1 -3.95 28.0 M-3.45 28.8 L-3.75 28.6 -4.45 27.95 -6.7 27.7 -5.9 28.7 -5.65 28.65 -4.5 28.6 -4.15 28.65 -5.7 28.95 -5.6 29.0 -5.05 29.65 -3.45 28.8 M-5.4 36.05 L-6.25 35.45 -6.45 34.3 -6.2 33.3 -6.05 33.05 -5.85 32.8 -5.05 32.75 Q-4.7 32.7 -4.7 32.55 L-4.5 32.55 -0.45 32.75 -0.35 32.75 0.0 32.5 0.1 32.55 -0.1 32.8 0.3 32.8 0.8 32.85 0.85 33.0 1.2 33.2 1.85 33.8 2.0 34.55 2.45 34.15 2.7 34.3 1.95 34.95 1.95 35.1 1.8 35.75 2.55 36.25 1.7 36.0 1.05 36.6 1.0 36.3 1.0 35.7 -0.25 36.55 -0.45 36.5 0.7 35.5 -0.5 34.7 -0.35 34.65 1.0 35.3 0.85 34.95 Q0.35 33.95 -0.85 33.65 L-1.4 34.25 -1.6 34.25 -1.6 34.1 -1.2 33.55 -1.7 33.5 -4.1 33.8 Q-2.4 34.7 -2.0 35.3 L-2.05 35.3 -4.35 34.0 Q-4.85 34.25 -5.0 34.8 L-5.15 35.35 -4.6 35.55 -2.95 36.15 -3.25 36.2 -3.5 36.2 -4.85 35.8 -5.25 35.65 -5.3 35.8 -5.4 36.05 M7.7 26.2 L7.65 26.7 7.6 27.35 7.5 27.45 7.3 27.4 7.35 27.3 7.4 26.6 7.45 26.2 7.7 26.2 M4.5 27.3 L4.45 27.4 4.25 27.4 4.25 27.3 4.3 26.75 4.5 26.2 4.6 26.25 4.6 26.85 4.5 27.3" fill="#302b21" fill-rule="evenodd" stroke="none"/>
    <path d="M4.05 -40.6 L3.85 -40.7 0.85 -41.2 -2.45 -40.95 -3.35 -40.4 Q-3.65 -40.2 -3.75 -39.35 L-3.7 -38.95 -3.65 -38.35 -3.45 -38.05 -3.3 -37.8 -3.1 -37.75 -2.6 -37.6 Q-2.25 -37.55 -2.25 -37.4 L-2.0 -37.3 2.05 -36.9 2.15 -36.9 2.45 -36.6 2.5 -36.65 2.4 -36.9 2.8 -36.85 3.3 -36.85 3.3 -36.9 3.35 -37.05 3.65 -37.2 3.75 -37.25 4.45 -37.7 4.7 -38.35 4.7 -38.4 4.8 -38.35 5.1 -37.95 Q5.3 -37.95 5.35 -38.05 L5.15 -38.3 4.75 -38.8 4.75 -38.9 4.7 -39.65 5.5 -40.0 4.6 -39.9 4.05 -40.6 M-10.0 -30.45 L-9.95 -30.9 -9.55 -31.75 -9.6 -31.85 Q-9.55 -32.3 -7.25 -32.3 L-7.2 -33.1 Q-6.55 -34.15 -5.5 -34.85 L-4.0 -35.65 Q-3.05 -36.15 -3.05 -36.45 L-3.0 -36.55 -3.3 -36.85 -3.3 -36.9 -3.3 -37.0 -3.25 -37.15 Q-4.15 -37.25 -4.45 -37.85 L-4.65 -38.3 -4.6 -39.4 -4.15 -40.95 Q-3.45 -41.7 -0.9 -41.9 3.95 -41.95 5.25 -40.45 L5.5 -40.0 5.55 -38.7 5.55 -38.3 5.15 -37.15 4.7 -36.75 5.0 -36.4 5.0 -36.25 4.55 -35.8 5.3 -35.1 6.4 -34.4 7.2 -33.65 7.35 -32.9 7.55 -31.35 7.55 -31.25 8.6 -31.0 9.05 -31.1 10.05 -31.1 Q10.6 -30.85 10.7 -30.15 L10.75 -29.2 10.75 -28.8 10.5 -28.85 9.85 -28.7 9.65 -29.5 9.5 -30.4 9.15 -30.45 9.15 -30.55 8.95 -30.55 8.95 -30.45 8.85 -30.45 8.5 -30.5 7.65 -30.6 7.65 -30.1 7.3 -29.95 Q7.05 -30.25 7.05 -30.5 L7.1 -30.7 6.1 -30.85 6.15 -30.9 5.95 -30.9 5.9 -30.85 5.45 -30.95 4.65 -30.85 4.0 -30.8 3.7 -30.8 3.7 -30.35 3.6 -30.75 3.4 -30.75 3.35 -30.25 3.15 -30.75 3.15 -30.8 -2.15 -31.3 -3.75 -31.5 -3.8 -31.55 -4.0 -31.55 -4.0 -31.5 -5.85 -31.6 -5.95 -31.4 -6.1 -31.1 -6.15 -31.05 -6.35 -31.05 -6.35 -31.35 -6.55 -31.35 -6.55 -31.1 -6.95 -31.35 -7.4 -31.65 -8.3 -31.7 Q-8.45 -31.65 -8.55 -31.55 L-8.6 -31.45 -8.85 -30.55 -8.9 -30.4 -10.0 -30.45 M-1.1 -36.55 L-1.55 -36.55 -1.8 -36.35 -2.2 -36.25 Q-2.2 -35.95 -2.6 -35.7 L-2.65 -35.7 -2.65 -35.6 -2.95 -35.4 -5.0 -34.3 Q-6.35 -33.35 -6.45 -32.3 L-6.35 -32.3 -5.2 -32.2 -4.5 -32.15 -0.55 -31.8 0.85 -31.65 0.9 -31.65 2.45 -31.5 4.35 -31.5 4.45 -31.5 5.15 -31.55 6.65 -31.35 6.6 -31.6 6.5 -32.05 6.45 -32.1 Q6.3 -33.35 5.95 -33.7 L6.15 -33.7 5.9 -33.75 4.35 -34.9 3.4 -35.75 3.1 -35.8 3.05 -36.05 3.15 -36.2 3.1 -36.25 3.0 -36.25 2.65 -36.3 2.6 -36.3 -1.1 -36.55 M9.25 26.25 L9.2 26.35 9.05 27.25 Q8.85 28.0 8.35 28.1 L7.35 27.95 6.9 27.8 5.85 27.9 5.8 28.0 5.4 29.45 5.1 30.2 Q4.85 30.6 4.2 30.85 L3.1 31.35 2.2 32.0 Q2.6 32.1 2.6 32.45 L2.25 32.9 Q2.95 33.4 2.85 34.95 L2.55 36.25 2.25 36.7 Q0.8 38.0 -4.05 37.2 -6.55 36.65 -7.15 35.8 -7.4 35.4 -7.35 34.2 L-7.25 33.15 Q-6.9 32.2 -5.65 32.25 L-5.7 31.95 -5.7 31.9 -5.4 31.6 -5.4 31.5 Q-5.35 31.2 -6.2 30.6 L-7.55 29.65 Q-8.6 28.75 -9.05 27.7 L-8.95 26.85 Q-11.25 26.55 -11.25 26.1 L-11.15 26.0 -11.4 25.15 -11.4 25.05 -11.2 25.05 -10.3 24.9 -10.15 25.85 -10.15 25.95 -9.9 26.1 -9.1 26.2 -8.6 26.0 -8.2 25.75 -8.2 26.0 -8.0 26.05 -7.9 25.75 -7.8 25.8 -7.75 25.85 -7.6 26.15 -7.5 26.35 -5.6 26.55 -5.6 26.6 -5.4 26.6 -5.4 26.55 -3.8 26.6 1.6 26.9 1.55 26.8 1.85 26.35 1.85 26.85 2.05 26.85 2.15 26.5 2.15 26.95 2.4 26.95 3.05 27.1 3.75 27.3 4.25 27.3 4.25 27.4 4.45 27.4 4.5 27.3 5.5 27.3 5.45 27.1 Q5.45 26.85 5.75 26.6 L6.05 26.8 6.0 27.3 6.9 27.3 7.25 27.3 7.35 27.3 7.3 27.4 7.5 27.45 7.6 27.35 7.9 27.4 8.2 26.5 8.3 26.2 9.25 26.25 M-11.3 23.45 L-11.35 23.35 -11.0 23.3 -11.25 23.45 -11.3 23.45 M0.2 32.15 L0.75 32.2 0.75 32.15 0.7 32.0 0.8 31.8 1.15 31.75 2.15 31.05 3.85 30.15 4.05 30.1 3.9 30.05 Q4.3 29.8 4.6 28.6 L4.7 28.55 4.8 28.1 4.9 27.95 3.4 27.85 2.75 27.75 2.65 27.7 0.75 27.5 -0.8 27.4 -2.2 27.35 -6.25 27.1 -6.95 27.05 -8.15 27.0 -8.2 27.0 Q-8.3 28.05 -7.05 29.1 L-5.15 30.5 -4.9 30.75 -4.9 30.85 -4.8 30.85 Q-4.5 31.15 -4.5 31.5 L-4.1 31.6 -3.95 31.85 -3.5 31.9 0.2 32.15 M1.05 36.6 L1.7 36.0 2.55 36.25 1.8 35.75 1.95 35.1 1.95 34.95 2.7 34.3 2.45 34.15 2.0 34.55 1.85 33.8 1.2 33.2 0.85 33.0 0.8 32.85 0.3 32.8 -0.1 32.8 0.1 32.55 0.0 32.5 -0.35 32.75 -0.45 32.75 -4.5 32.55 -4.7 32.55 Q-4.7 32.7 -5.05 32.75 L-5.85 32.8 -6.05 33.05 -6.2 33.3 -6.45 34.3 -6.25 35.45 -5.4 36.05 Q-4.35 36.6 -2.15 36.75 L0.85 36.7 1.05 36.6" fill="#2d271e" fill-rule="evenodd" stroke="none"/>
    <path d="M0.8 -39.7 L0.3 -39.95 Q0.0 -40.15 0.0 -40.4 0.05 -41.1 1.2 -40.9 2.4 -40.7 2.35 -40.1 L2.2 -39.9 1.05 -39.7 0.85 -39.7 0.8 -39.7 M1.8 -35.75 L1.9 -35.6 1.5 -35.4 0.6 -35.3 -0.2 -35.4 -0.15 -35.45 0.1 -35.55 -0.85 -35.8 -1.15 -36.05 0.25 -36.1 2.05 -35.8 1.8 -35.75 M3.2 28.55 L3.25 28.55 3.2 28.6 3.2 28.55 M-2.45 30.9 L-1.6 30.9 -0.7 31.15 -0.4 31.35 -0.5 31.5 -0.6 31.5 -0.25 31.6 -2.05 31.7 -3.45 31.4 -3.15 31.2 -2.15 31.05 -2.35 30.95 -2.45 30.9 M-2.05 35.3 L-2.0 35.3 -1.75 35.3 Q-1.0 35.4 -0.7 35.65 L-0.55 35.95 Q-0.6 36.5 -1.75 36.55 -3.0 36.55 -2.95 35.85 L-2.6 35.45 -2.05 35.3" fill="#473f30" fill-rule="evenodd" stroke="none"/>
    <path d="M-8.9 -30.4 L-8.85 -30.55 -8.6 -31.45 -8.55 -31.55 Q-8.45 -31.65 -8.3 -31.7 L-7.4 -31.65 -6.95 -31.35 -6.55 -31.1 -6.6 -30.55 -6.6 -30.2 -6.8 -30.25 -6.75 -30.3 -6.9 -30.25 -8.9 -30.4 M-6.35 -31.05 L-6.15 -31.05 -6.1 -31.1 -5.95 -31.4 -5.85 -31.6 -4.0 -31.5 -4.05 -30.65 -4.0 -29.95 -4.85 -30.0 -5.05 -30.05 -5.85 -30.15 -6.35 -30.2 -6.3 -30.55 -6.35 -31.05 M-3.75 -31.5 L-2.15 -31.3 3.15 -30.8 3.15 -30.75 3.35 -30.25 3.35 -30.05 3.4 -29.45 3.75 -29.45 3.7 -30.35 3.7 -30.8 4.0 -30.8 4.65 -30.85 5.45 -30.95 5.9 -30.85 5.9 -30.3 6.0 -29.7 6.05 -29.75 6.2 -30.35 6.1 -30.85 7.1 -30.7 7.05 -30.5 Q7.05 -30.25 7.3 -29.95 L7.65 -30.1 7.65 -30.6 8.5 -30.5 8.85 -30.45 8.95 -30.45 8.9 -29.75 9.0 -29.05 9.05 -29.1 9.2 -29.8 9.15 -30.45 9.5 -30.4 9.65 -29.5 9.85 -28.7 7.65 -28.45 8.1 -28.85 8.1 -28.95 8.05 -28.95 7.5 -28.75 7.35 -28.95 6.9 -29.2 6.85 -29.3 6.3 -29.35 5.8 -29.35 5.65 -29.4 Q4.5 -29.4 4.4 -29.05 4.25 -28.55 2.55 -28.55 L2.6 -29.1 2.15 -29.4 1.95 -29.5 1.9 -29.5 1.3 -29.8 1.1 -29.8 0.85 -29.7 -0.1 -29.8 -2.45 -29.65 -3.15 -29.45 -3.45 -29.45 -3.5 -29.75 -3.8 -29.9 -3.75 -30.65 -3.75 -31.5" fill="url(#gradient0)" fill-rule="evenodd" stroke="none"/>
    <path d="M2.65 25.95 L2.65 25.9 2.75 25.9 3.85 25.3 3.8 25.7 4.5 25.9 7.15 26.15 7.45 26.2 7.4 26.6 7.35 27.3 7.25 27.3 6.9 27.3 6.0 27.3 6.05 26.8 5.75 26.6 Q5.45 26.85 5.45 27.1 L5.5 27.3 4.5 27.3 4.6 26.85 4.6 26.25 4.5 26.2 4.3 26.75 4.25 27.3 3.75 27.3 3.05 27.1 2.4 26.95 2.15 26.95 2.15 26.5 2.25 26.15 2.65 25.95 M-9.4 24.5 L-8.2 24.95 Q-8.35 24.75 -9.15 24.35 L-8.8 24.15 -8.35 24.7 -8.1 24.95 -8.15 25.2 -8.2 25.75 -8.6 26.0 -9.1 26.2 -9.9 26.1 -10.15 25.95 -10.15 25.85 -10.3 24.9 -10.2 24.85 -9.4 24.5 M-7.85 25.15 L-7.7 25.2 -6.35 25.4 -5.5 25.55 -5.5 25.7 -5.6 26.55 -7.5 26.35 -7.6 26.15 -7.75 25.85 -7.8 25.8 -7.9 25.75 -7.85 25.25 -7.85 25.15 M-5.25 25.6 L-2.8 25.85 -1.4 25.6 -0.9 25.1 0.1 25.8 Q0.85 26.25 1.35 26.3 L1.9 26.3 1.85 26.35 1.55 26.8 1.6 26.9 -3.8 26.6 -5.4 26.55 -5.25 25.75 -5.25 25.6 M7.7 26.2 L8.3 26.2 8.2 26.5 7.9 27.4 7.6 27.35 7.65 26.7 7.7 26.2" fill="url(#gradient1)" fill-rule="evenodd" stroke="none"/>
    <path d="M0.85 -29.7 L1.1 -29.8 1.3 -29.8 1.9 -29.5 1.95 -29.5 2.15 -29.4 2.6 -29.1 2.55 -28.55 2.5 -28.25 2.4 -28.1 2.95 -27.9 3.5 -27.65 3.8 -27.35 3.95 -27.6 3.95 -27.65 4.35 -27.85 5.0 -28.05 5.3 -28.05 5.95 -27.95 6.2 -27.95 6.3 -29.35 6.85 -29.3 6.9 -29.2 7.4 -28.65 7.5 -28.55 7.55 -28.45 7.6 -28.4 7.65 -28.2 7.45 -28.05 7.45 -28.0 7.2 -27.9 6.95 -27.85 7.35 -27.8 7.7 -27.8 7.9 -27.85 7.45 -28.0 9.65 -27.8 9.8 -27.75 10.1 -27.25 10.55 -27.3 10.6 -27.3 10.95 -27.4 Q11.05 -28.25 11.35 -28.6 12.2 -28.0 12.5 -27.2 L12.6 -26.95 12.4 -26.95 10.9 -26.75 10.9 -26.8 10.7 -26.75 10.1 -26.65 9.95 -26.65 9.05 -26.95 8.45 -27.05 8.05 -27.2 7.55 -27.35 7.35 -27.4 6.75 -27.55 6.7 -27.55 6.55 -27.55 6.3 -27.55 5.85 -27.5 5.05 -27.3 4.75 -27.25 Q4.3 -26.95 4.05 -26.9 L4.0 -26.9 3.7 -26.8 3.6 -26.8 3.45 -26.85 3.4 -26.9 3.2 -26.95 3.1 -27.0 2.85 -27.3 2.8 -27.35 2.7 -27.4 2.6 -27.5 2.45 -27.55 1.05 -27.85 0.7 -27.9 0.3 -27.9 -0.85 -28.1 -1.45 -28.1 -2.1 -28.1 -2.65 -27.95 -2.95 -27.9 -3.15 -27.8 -3.2 -27.8 -3.45 -27.7 -4.25 -27.65 -4.65 -27.75 -4.85 -27.85 -4.9 -27.9 -4.95 -27.95 -4.95 -28.1 -4.95 -28.15 -4.95 -28.25 -5.15 -28.3 -5.95 -28.4 -7.35 -28.55 -8.25 -28.65 -9.1 -28.7 -10.2 -28.75 -10.5 -28.8 -10.6 -28.8 -11.0 -28.85 -11.35 -28.9 -11.4 -28.9 -12.4 -28.95 -12.4 -29.8 Q-12.2 -30.75 -10.95 -30.65 L-10.95 -30.35 -11.0 -29.2 -10.15 -29.2 -9.15 -29.15 -8.1 -29.1 -7.35 -29.05 -7.0 -29.05 -5.65 -29.0 -4.85 -28.95 -4.6 -28.9 -5.0 -29.2 -5.2 -29.4 -5.15 -30.05 -5.05 -30.05 -4.85 -30.0 -4.0 -29.95 -3.8 -29.9 -3.5 -29.75 -3.45 -29.45 -3.5 -29.1 Q-3.5 -28.75 -3.6 -28.7 L-3.3 -28.7 -2.65 -28.7 -2.1 -28.65 2.2 -28.1 1.2 -28.85 Q0.75 -29.3 0.75 -29.5 L0.85 -29.7 M11.25 24.25 L11.2 25.7 11.2 26.05 11.0 26.25 10.45 26.4 10.3 26.2 Q9.8 25.45 9.7 24.45 L9.3 24.5 8.1 24.5 7.95 24.5 7.05 24.4 6.8 24.4 6.45 24.35 5.3 24.3 4.85 24.3 4.6 24.3 4.0 24.4 Q3.7 24.45 3.6 24.6 L3.85 25.15 3.85 25.3 2.75 25.9 2.65 25.9 2.65 25.95 2.4 26.0 2.3 25.9 2.0 25.6 1.8 25.2 Q1.8 24.9 2.1 24.65 0.9 24.55 0.45 24.25 L0.1 23.9 -0.55 24.05 -1.0 24.2 -1.3 24.35 Q-1.2 24.45 -1.25 24.65 L-1.35 25.35 Q-1.7 25.8 -3.15 25.7 L-3.3 24.85 -3.05 24.3 -3.65 24.25 -3.95 24.2 -5.2 23.95 -5.65 23.95 -6.15 23.9 -7.6 23.7 -7.8 23.55 -8.65 23.3 -9.0 23.15 -9.05 23.15 -8.65 23.6 -9.15 24.0 -9.45 24.2 -9.7 24.35 -10.35 24.7 -11.0 24.85 -11.15 24.5 -10.9 23.75 -10.85 23.55 -10.7 23.35 -10.45 23.1 -11.0 23.1 -12.0 23.05 -11.95 23.5 -12.05 24.8 -12.25 24.85 -12.75 24.95 Q-13.55 24.0 -13.75 22.55 L-13.25 22.65 -13.25 22.55 -13.15 22.55 -12.65 22.55 -12.55 22.55 -11.35 22.6 -11.15 22.6 -10.4 22.35 -10.1 22.15 -10.0 22.1 -9.85 22.1 -9.6 22.15 -9.55 22.15 -8.6 22.85 -8.5 22.9 -7.9 23.0 -7.2 23.1 -6.9 23.15 -6.35 23.2 -5.45 23.3 -4.75 23.4 -4.25 23.45 -3.5 23.55 -3.2 23.55 -2.6 23.6 -2.4 23.6 -1.65 23.65 -1.4 23.6 -0.95 23.35 -0.9 23.35 Q-0.9 23.25 -0.8 23.3 L-0.1 23.1 -0.05 23.05 1.4 23.55 1.55 23.65 2.35 24.1 2.45 24.15 2.5 24.15 2.6 24.1 2.95 24.1 3.45 23.95 3.55 23.95 3.65 23.9 4.15 23.85 4.65 23.8 4.9 23.8 5.05 23.8 6.0 23.75 7.05 23.85 8.7 23.95 9.2 24.0 9.55 24.05 10.1 24.15 11.25 24.25 M-12.85 21.2 L-12.95 21.1 -12.55 21.1 -12.85 21.2" fill="#3e3326" fill-rule="evenodd" stroke="none"/>
    <path d="M-10.0 -30.45 L-8.9 -30.4 -6.9 -30.25 -6.8 -30.25 -6.6 -30.2 -6.35 -30.2 -5.85 -30.15 -5.05 -30.05 -5.15 -30.05 -5.2 -29.4 -5.0 -29.2 -4.6 -28.9 -4.85 -28.95 -5.65 -29.0 -7.0 -29.05 -7.35 -29.05 -8.1 -29.1 -9.15 -29.15 -10.15 -29.2 -11.0 -29.2 -10.95 -30.35 -10.2 -30.5 -10.0 -30.45 M9.85 -28.7 L10.5 -28.85 10.75 -28.8 11.4 -28.65 11.55 -28.55 11.65 -28.5 Q12.4 -28.15 12.5 -27.2 12.2 -28.0 11.35 -28.6 11.05 -28.25 10.95 -27.4 L10.6 -27.3 10.55 -27.3 10.1 -27.25 9.8 -27.75 9.65 -27.8 7.45 -28.0 7.9 -27.85 7.7 -27.8 7.35 -27.8 6.95 -27.85 7.2 -27.9 7.45 -28.0 7.45 -28.05 7.65 -28.2 7.6 -28.4 7.55 -28.45 7.65 -28.45 9.85 -28.7 M2.55 -28.55 Q4.25 -28.55 4.4 -29.05 4.5 -29.4 5.65 -29.4 L5.8 -29.35 6.3 -29.35 6.2 -27.95 5.95 -27.95 5.3 -28.05 5.0 -28.05 4.35 -27.85 3.95 -27.65 3.95 -27.6 3.8 -27.35 3.5 -27.65 2.95 -27.9 2.4 -28.1 2.5 -28.25 2.55 -28.55 M0.85 -29.7 L0.75 -29.5 Q0.75 -29.3 1.2 -28.85 L2.2 -28.1 -2.1 -28.65 -2.65 -28.7 -3.3 -28.7 -3.6 -28.7 Q-3.5 -28.75 -3.5 -29.1 L-3.45 -29.45 -3.15 -29.45 -2.45 -29.65 -0.1 -29.8 0.85 -29.7 M-10.5 -28.8 L-10.2 -28.75 -9.1 -28.7 -8.25 -28.65 -7.35 -28.55 -5.95 -28.4 -5.15 -28.3 -4.95 -28.25 -4.95 -28.15 -5.15 -28.25 -5.2 -28.25 -5.4 -28.3 -5.65 -28.3 -6.0 -28.35 -6.25 -28.35 -6.45 -28.4 -7.25 -28.5 -7.35 -28.5 -8.3 -28.55 -8.5 -28.6 -8.6 -28.6 -8.65 -28.6 -9.1 -28.6 -9.15 -28.6 -9.3 -28.65 -9.55 -28.65 -10.2 -28.75 -10.5 -28.8 M2.85 -27.3 L3.1 -27.0 3.2 -26.95 2.85 -26.95 2.85 -27.3 M3.4 -26.9 L3.45 -26.85 3.6 -26.8 3.45 -26.8 3.4 -26.85 3.4 -26.9 M4.05 -26.9 Q4.3 -26.95 4.75 -27.25 L5.05 -27.3 5.05 -27.25 Q4.95 -26.95 4.05 -26.9 M9.05 -26.95 L9.95 -26.65 9.05 -26.65 9.05 -26.7 9.05 -26.95 M10.7 -26.75 L10.9 -26.8 10.9 -26.75 10.7 -26.75 M10.3 26.2 L10.0 26.25 9.25 26.25 8.3 26.2 7.7 26.2 7.45 26.2 7.15 26.15 4.5 25.9 3.8 25.7 3.85 25.3 3.85 25.15 3.6 24.6 Q3.7 24.45 4.0 24.4 L4.6 24.3 4.85 24.3 5.3 24.3 6.45 24.35 6.8 24.4 7.05 24.4 7.95 24.5 8.1 24.5 9.3 24.5 9.7 24.45 Q9.8 25.45 10.3 26.2 M-11.4 25.05 L-12.25 24.9 -12.25 24.85 -12.05 24.8 -11.95 23.5 -12.0 23.05 -11.0 23.1 -10.45 23.1 -10.7 23.35 -10.85 23.55 -10.9 23.75 -11.15 24.5 -11.0 24.85 -10.35 24.7 -9.7 24.35 -9.45 24.2 -9.15 24.0 -8.65 23.6 -9.05 23.15 -9.0 23.15 -8.65 23.3 -7.8 23.55 -7.6 23.7 -6.15 23.9 -5.65 23.95 -5.2 23.95 -3.95 24.2 -3.65 24.25 -3.05 24.3 -3.3 24.85 -3.15 25.7 Q-1.7 25.8 -1.35 25.35 L-1.25 24.65 Q-1.2 24.45 -1.3 24.35 L-1.0 24.2 -0.55 24.05 0.1 23.9 0.45 24.25 Q0.9 24.55 2.1 24.65 1.8 24.9 1.8 25.2 L2.0 25.6 2.3 25.9 2.4 26.0 2.65 25.95 2.25 26.15 1.9 26.3 1.35 26.3 Q0.85 26.25 0.1 25.8 L-0.9 25.1 -1.4 25.6 -2.8 25.85 -5.25 25.6 -5.5 25.55 -6.35 25.4 -7.7 25.2 -7.85 25.15 -8.1 24.95 -8.35 24.7 -8.8 24.15 -9.15 24.35 -9.4 24.5 -10.2 24.85 -10.3 24.9 -11.2 25.05 -11.4 25.05 M-9.85 21.95 L-9.65 22.1 -9.6 22.15 -9.85 22.1 -10.0 22.1 -10.1 22.15 -10.4 22.35 -11.15 22.6 -11.35 22.6 -11.0 22.5 -10.15 22.15 -10.05 22.1 -9.85 21.95 M-2.4 23.6 L-1.4 23.6 -1.65 23.65 -2.4 23.6 M-0.8 23.3 L-0.65 23.2 -0.3 22.95 -0.1 23.1 -0.8 23.3 M2.35 24.1 L2.5 24.1 2.6 24.1 2.5 24.15 2.45 24.15 2.35 24.1 M4.15 23.85 L4.15 23.75 Q5.15 23.45 5.35 23.2 5.7 23.4 5.35 23.6 L6.0 23.75 5.05 23.8 4.9 23.8 4.65 23.8 4.15 23.85 M-11.3 23.45 L-11.25 23.45 -11.0 23.3 -11.35 23.35 -11.3 23.45 M-3.65 24.35 L-4.15 24.35 -3.3 24.45 -3.1 24.3 -3.6 24.35 -3.65 24.35" fill="url(#gradient2)" fill-rule="evenodd" stroke="none"/>
    <path d="M-4.95 -28.15 L-4.95 -28.1 -5.15 -28.25 -4.95 -28.15 M0.7 -27.9 L1.05 -27.85 2.45 -27.55 2.6 -27.5 2.7 -27.4 2.8 -27.35 2.85 -27.3 2.85 -26.95 2.8 -26.95 2.15 -26.9 2.15 -26.8 2.2 -26.5 1.65 -26.8 1.2 -27.15 0.65 -27.75 0.7 -27.9 M7.35 -27.4 L7.55 -27.35 8.05 -27.2 8.0 -26.75 8.1 -26.45 8.1 -26.4 7.6 -26.25 7.7 -25.95 7.5 -25.95 7.25 -26.05 7.35 -27.35 7.35 -27.4 M13.3 24.2 Q12.2 23.05 12.4 21.25 12.85 19.1 12.7 18.1 12.25 14.0 12.35 11.75 L12.35 7.95 12.75 -0.65 13.0 -6.85 13.25 -13.1 13.1 -19.15 Q12.75 -23.75 12.9 -25.5 12.95 -26.35 13.35 -26.65 L13.65 -26.55 Q14.55 -26.05 14.9 -25.35 15.2 -24.75 15.1 -23.9 14.6 -21.4 15.05 -20.65 14.9 -18.5 15.0 -14.25 L14.5 -1.6 14.25 4.7 14.1 8.05 14.0 11.1 14.15 17.65 14.35 23.75 14.35 24.1 14.15 24.25 13.45 24.4 13.3 24.2 M-14.0 22.5 L-14.6 22.55 Q-15.75 21.55 -15.85 20.0 -16.05 19.35 -15.9 17.6 L-15.9 14.65 -15.95 12.65 -15.5 10.65 -14.7 6.2 -14.7 6.0 Q-14.5 3.65 -14.8 -3.35 L-14.8 -3.4 -15.1 -10.4 Q-14.95 -13.2 -15.15 -18.65 -15.35 -24.15 -15.15 -26.9 L-15.2 -28.3 Q-15.1 -29.15 -13.55 -29.05 L-13.5 -28.8 -13.55 -28.65 -13.4 -12.15 -13.15 -7.95 Q-13.0 -5.35 -13.15 -3.7 L-13.2 -1.6 Q-13.25 -0.3 -13.45 0.55 -13.6 1.2 -13.05 2.65 -12.5 4.2 -12.55 4.7 L-12.75 6.15 -13.4 8.7 Q-14.2 11.25 -14.3 12.6 L-14.2 16.45 Q-14.1 19.55 -13.8 20.9 L-13.7 21.2 -13.8 22.45 -14.0 22.5 M-6.3 -27.5 L-6.5 -27.75 -6.5 -28.1 -6.45 -28.05 -6.45 -28.0 -6.3 -27.55 -6.3 -27.5 M-6.45 -28.3 L-6.45 -28.4 -6.25 -28.35 -6.45 -28.3 M-4.8 -27.2 L-4.75 -27.25 -4.75 -27.15 -4.8 -27.2 M4.15 23.75 L4.25 23.2 Q4.35 22.45 4.55 22.1 L4.65 22.05 5.15 22.55 5.45 23.1 5.45 23.15 5.35 23.2 Q5.15 23.45 4.15 23.75 M-12.65 22.55 L-12.65 22.25 Q-12.65 21.7 -12.2 21.2 L-12.15 21.1 -11.7 20.8 -11.4 20.85 Q-11.1 20.9 -11.1 21.05 L-10.8 21.3 -10.75 21.3 -11.6 21.75 -12.6 22.45 -12.55 22.55 -12.65 22.55 M3.2 22.7 L3.15 23.4 2.95 23.15 3.2 22.7" fill="#564734" fill-rule="evenodd" stroke="none"/>
    <path d="M-12.4 -28.95 L-11.4 -28.9 -11.35 -28.9 -11.0 -28.85 -10.6 -28.8 -10.5 -28.8 -10.2 -28.75 -9.55 -28.65 -9.3 -28.65 -9.15 -28.6 -9.1 -28.6 -8.65 -28.45 -8.6 -28.45 -8.55 -28.2 -8.65 -28.2 Q-8.65 -28.0 -9.05 -27.75 L-9.15 -27.7 -9.75 -26.95 -9.7 -26.25 -8.9 -26.05 Q-8.65 -26.0 -8.5 -25.5 -8.7 -25.35 -8.85 -25.4 -9.35 -25.5 -9.65 -25.7 -9.75 -25.2 -10.4 -24.6 L-10.75 -24.05 -10.7 -23.5 Q-10.7 -23.0 -10.9 -22.85 L-11.2 -22.85 Q-11.65 -22.85 -11.6 -23.35 L-11.5 -24.15 -11.55 -24.2 -11.9 -23.9 -12.25 -23.85 -12.65 -23.95 -12.6 -24.5 -11.4 -25.45 Q-11.0 -25.8 -11.0 -26.3 -10.95 -26.95 -11.3 -27.35 -11.85 -27.85 -13.55 -28.65 L-13.5 -28.8 Q-13.5 -29.0 -13.15 -29.0 L-12.4 -28.95 M-4.95 -28.1 L-4.95 -27.95 -4.9 -27.9 -4.85 -27.85 -4.65 -27.75 -4.25 -27.65 -3.45 -27.7 -3.2 -27.8 -3.15 -27.8 -2.95 -27.9 -2.65 -27.95 -2.1 -27.75 -2.05 -27.7 -1.95 -27.3 -1.8 -27.15 -1.9 -27.05 -1.95 -27.05 -1.85 -26.1 -1.85 -26.05 -1.75 -25.75 -1.6 -25.3 -1.3 -25.15 1.5 -25.1 Q2.4 -25.05 2.9 -24.5 L3.35 -23.95 Q4.4 -23.85 4.4 -23.55 L3.85 -23.1 Q3.2 -23.45 3.0 -23.65 L2.95 -23.65 Q2.55 -23.65 2.4 -23.95 L2.25 -24.35 1.2 -24.65 -0.7 -24.7 -0.5 -24.35 -0.5 -23.75 Q-0.55 -23.25 -0.75 -23.1 L-1.0 -23.05 Q-1.35 -23.1 -1.4 -23.5 -1.4 -24.15 -1.9 -24.75 L-2.0 -24.8 -2.3 -24.8 Q-2.9 -24.85 -2.85 -25.4 -2.8 -26.05 -2.9 -26.15 -4.35 -26.55 -4.65 -27.0 L-4.65 -26.95 -4.6 -26.6 -4.65 -25.0 Q-4.55 -23.75 -4.15 -23.1 -3.8 -22.55 -3.9 -21.65 L-3.9 -21.5 -3.95 -21.0 -4.05 -20.7 -4.3 -20.65 -4.65 -21.0 -4.95 -21.5 -5.05 -21.7 -5.4 -22.85 -5.6 -23.4 -5.75 -23.95 -7.0 -24.95 -8.45 -23.6 -8.65 -22.85 Q-8.7 -22.4 -9.2 -22.2 -9.55 -22.3 -9.5 -22.95 L-8.9 -24.2 -7.85 -25.2 -6.8 -25.65 Q-6.25 -26.0 -6.25 -26.25 L-6.35 -27.25 -6.35 -27.35 -6.3 -27.5 -6.3 -27.55 -6.45 -28.0 -6.45 -28.05 -6.5 -28.1 -6.6 -28.15 -6.45 -28.3 -6.25 -28.35 -6.0 -28.35 -5.65 -28.3 -5.4 -28.3 -5.2 -28.25 -5.15 -28.25 -4.95 -28.1 M3.2 -26.95 L3.4 -26.9 3.4 -26.85 3.45 -26.8 Q3.5 -25.95 3.7 -25.7 L3.6 -25.55 3.25 -25.6 Q2.6 -25.65 2.35 -26.2 L2.2 -26.5 2.15 -26.8 2.15 -26.9 2.8 -26.95 2.85 -26.95 3.2 -26.95 M8.05 -27.2 L8.45 -27.05 9.05 -26.95 9.05 -26.7 9.05 -26.65 9.0 -26.45 9.1 -26.4 9.15 -26.15 8.95 -25.65 8.75 -25.2 9.05 -22.95 9.3 -22.75 10.0 -21.6 10.0 -21.5 9.9 -21.15 Q10.05 -21.05 9.65 -21.05 L9.6 -21.05 9.25 -21.2 9.0 -21.5 8.85 -21.75 8.85 -21.8 8.6 -22.4 8.35 -22.35 6.85 -22.15 Q6.65 -22.15 6.55 -22.25 L6.55 -22.4 7.1 -22.9 Q7.7 -23.2 7.65 -23.85 L7.7 -25.95 7.6 -26.25 8.1 -26.4 8.1 -26.45 8.0 -26.75 8.05 -27.2 M-4.8 -27.2 L-4.75 -27.15 -4.75 -27.25 -4.8 -27.2 M-11.7 20.8 L-12.05 20.0 -12.0 19.15 -11.8 17.75 Q-11.65 16.95 -10.95 16.6 -10.6 16.75 -10.6 17.15 L-10.7 17.75 -10.95 18.85 -10.95 19.7 -10.4 19.45 -8.8 19.05 -8.4 19.0 -7.85 18.5 Q-7.05 17.95 -6.2 18.0 L-6.1 18.05 -6.05 18.2 -6.6 18.55 -7.1 18.95 -7.3 19.2 -7.1 19.25 -5.45 19.75 -5.1 19.6 -4.95 19.55 -4.6 19.45 -4.1 19.45 -4.0 19.45 -3.95 19.6 -4.4 19.85 -4.8 20.1 -5.85 20.2 -7.8 19.55 -8.0 19.6 -8.1 19.55 Q-8.45 19.6 -9.25 20.0 L-10.05 20.55 -9.85 20.8 Q-9.6 20.9 -9.6 21.0 L-9.65 21.4 -9.85 21.95 -10.05 22.1 -10.15 22.15 -11.0 22.5 -11.35 22.6 -12.55 22.55 -12.6 22.45 -11.6 21.75 -10.75 21.3 -10.8 21.3 -11.1 21.05 Q-11.1 20.9 -11.4 20.85 L-11.7 20.8 M8.7 23.95 L8.65 23.85 8.2 23.65 8.2 23.3 8.6 21.6 8.5 21.4 8.35 21.15 8.4 21.0 7.6 20.0 7.65 19.2 Q8.25 19.05 8.45 19.45 L8.75 20.15 8.8 20.25 9.3 19.45 9.35 18.55 Q9.55 18.1 10.15 18.15 L10.1 19.25 9.65 20.4 Q9.4 20.85 9.3 21.75 L9.2 22.7 9.45 23.35 9.8 23.85 9.55 24.05 9.2 24.0 8.7 23.95 M11.7 6.85 L11.45 6.8 11.7 6.75 11.7 6.85" fill="#63513d" fill-rule="evenodd" stroke="none"/>
    <path d="M-2.65 -27.95 L-2.1 -28.1 -1.45 -28.1 -0.85 -28.1 0.3 -27.9 0.7 -27.9 0.65 -27.75 1.2 -27.15 1.65 -26.8 2.2 -26.5 2.35 -26.2 Q2.6 -25.65 3.25 -25.6 L3.6 -25.55 3.7 -25.7 Q3.5 -25.95 3.45 -26.8 L3.6 -26.8 3.7 -26.8 4.0 -26.9 4.05 -26.9 Q4.95 -26.95 5.05 -27.25 L5.05 -27.3 5.85 -27.5 6.3 -27.55 6.55 -27.55 6.7 -27.55 6.75 -27.55 7.35 -27.4 7.35 -27.35 7.25 -26.05 7.5 -25.95 7.7 -25.95 7.65 -23.85 Q7.7 -23.2 7.1 -22.9 L6.55 -22.4 6.55 -22.25 Q6.65 -22.15 6.85 -22.15 L8.35 -22.35 8.6 -22.4 8.85 -21.8 8.85 -21.75 9.25 -21.2 9.6 -21.05 9.65 -21.05 Q10.05 -21.05 9.9 -21.15 L10.0 -21.5 10.0 -21.6 9.3 -22.75 9.05 -22.95 8.75 -25.2 8.95 -25.65 9.15 -26.15 9.1 -26.4 9.0 -26.45 9.05 -26.65 9.95 -26.65 10.1 -26.65 10.7 -26.75 10.9 -26.75 12.4 -26.95 12.6 -26.95 13.6 -26.7 13.7 -26.6 Q14.75 -26.2 14.9 -25.35 14.55 -26.05 13.65 -26.55 L13.35 -26.65 Q12.95 -26.35 12.9 -25.5 12.75 -23.75 13.1 -19.15 L13.25 -13.1 13.0 -6.85 12.75 -0.65 12.35 7.95 12.35 11.75 Q12.25 14.0 12.7 18.1 12.85 19.1 12.4 21.25 12.2 23.05 13.3 24.2 L12.9 24.25 11.25 24.25 10.1 24.15 9.55 24.05 9.8 23.85 9.45 23.35 9.2 22.7 9.3 21.75 Q9.4 20.85 9.65 20.4 L10.1 19.25 10.15 18.15 Q9.55 18.1 9.35 18.55 L9.3 19.45 8.8 20.25 8.75 20.15 8.45 19.45 Q8.25 19.05 7.65 19.2 L7.6 20.0 8.4 21.0 8.35 21.15 8.5 21.4 8.6 21.6 8.2 23.3 8.2 23.65 8.65 23.85 8.7 23.95 7.05 23.85 6.0 23.75 5.35 23.6 Q5.7 23.4 5.35 23.2 L5.45 23.15 5.45 23.1 5.15 22.55 4.65 22.05 4.55 22.1 Q4.35 22.45 4.25 23.2 L4.15 23.75 4.15 23.85 3.65 23.9 3.55 23.95 3.45 23.95 2.95 24.1 2.6 24.1 2.5 24.1 2.35 24.1 1.55 23.65 1.4 23.55 -0.05 23.05 -0.1 23.1 -0.3 22.95 -0.65 23.2 -0.8 23.3 Q-0.9 23.25 -0.9 23.35 L-0.95 23.35 -1.4 23.6 -2.4 23.6 -2.6 23.6 -3.2 23.55 -3.5 23.55 -4.25 23.45 -4.75 23.4 -5.45 23.3 -6.35 23.2 -6.9 23.15 -7.2 23.1 -7.9 23.0 -8.5 22.9 -8.6 22.85 -9.55 22.15 -9.6 22.15 -9.65 22.1 -9.85 21.95 -9.65 21.4 -9.6 21.0 Q-9.6 20.9 -9.85 20.8 L-10.05 20.55 -9.25 20.0 Q-8.45 19.6 -8.1 19.55 L-8.0 19.6 -7.8 19.55 -5.85 20.2 -4.8 20.1 -4.4 19.85 -3.95 19.6 -4.0 19.45 -4.1 19.45 -4.6 19.45 -4.95 19.55 -5.1 19.6 -5.45 19.75 -7.1 19.25 -7.3 19.2 -7.1 18.95 -6.6 18.55 -6.05 18.2 -6.1 18.05 -6.2 18.0 Q-7.05 17.95 -7.85 18.5 L-8.4 19.0 -8.8 19.05 -10.4 19.45 -10.95 19.7 -10.95 18.85 -10.7 17.75 -10.6 17.15 Q-10.6 16.75 -10.95 16.6 -11.65 16.95 -11.8 17.75 L-12.0 19.15 -12.05 20.0 -11.7 20.8 -12.15 21.1 -12.2 21.2 Q-12.65 21.7 -12.65 22.25 L-12.65 22.55 -13.15 22.55 -13.25 22.55 -13.25 22.65 -13.75 22.55 -14.0 22.5 -13.8 22.45 -13.7 21.2 -13.8 20.9 Q-14.1 19.55 -14.2 16.45 L-14.3 12.6 Q-14.2 11.25 -13.4 8.7 L-12.75 6.15 -12.55 4.7 Q-12.5 4.2 -13.05 2.65 -13.6 1.2 -13.45 0.55 -13.25 -0.3 -13.2 -1.6 L-13.15 -3.7 Q-13.0 -5.35 -13.15 -7.95 L-13.4 -12.15 -13.55 -28.65 Q-11.85 -27.85 -11.3 -27.35 -10.95 -26.95 -11.0 -26.3 -11.0 -25.8 -11.4 -25.45 L-12.6 -24.5 -12.65 -23.95 -12.25 -23.85 -11.9 -23.9 -11.55 -24.2 -11.5 -24.15 -11.6 -23.35 Q-11.65 -22.85 -11.2 -22.85 L-10.9 -22.85 Q-10.7 -23.0 -10.7 -23.5 L-10.75 -24.05 -10.4 -24.6 Q-9.75 -25.2 -9.65 -25.7 -9.35 -25.5 -8.85 -25.4 -8.7 -25.35 -8.5 -25.5 -8.65 -26.0 -8.9 -26.05 L-9.7 -26.25 -9.75 -26.95 -9.15 -27.7 -9.05 -27.75 Q-8.65 -28.0 -8.65 -28.2 L-8.55 -28.2 -8.6 -28.45 -8.65 -28.45 -9.1 -28.6 -9.15 -28.6 -9.1 -28.6 -8.65 -28.6 -8.6 -28.6 -8.5 -28.6 -8.3 -28.55 -7.35 -28.5 -7.25 -28.5 -6.45 -28.4 -6.45 -28.3 -6.6 -28.15 -6.5 -28.1 -6.5 -27.75 -6.3 -27.5 -6.35 -27.35 -6.35 -27.25 -6.25 -26.25 Q-6.25 -26.0 -6.8 -25.65 L-7.85 -25.2 -8.9 -24.2 -9.5 -22.95 Q-9.55 -22.3 -9.2 -22.2 -8.7 -22.4 -8.65 -22.85 L-8.45 -23.6 -7.0 -24.95 -5.75 -23.95 -5.6 -23.4 -5.4 -22.85 -5.05 -21.7 -4.95 -21.5 -4.65 -21.0 -4.3 -20.65 -4.05 -20.7 -3.95 -21.0 -3.9 -21.5 -3.9 -21.65 Q-3.8 -22.55 -4.15 -23.1 -4.55 -23.75 -4.65 -25.0 L-4.6 -26.6 -4.65 -26.95 -4.65 -27.0 Q-4.35 -26.55 -2.9 -26.15 -2.8 -26.05 -2.85 -25.4 -2.9 -24.85 -2.3 -24.8 L-2.0 -24.8 -1.9 -24.75 Q-1.4 -24.15 -1.4 -23.5 -1.35 -23.1 -1.0 -23.05 L-0.75 -23.1 Q-0.55 -23.25 -0.5 -23.75 L-0.5 -24.35 -0.7 -24.7 1.2 -24.65 2.25 -24.35 2.4 -23.95 Q2.55 -23.65 2.95 -23.65 L3.0 -23.65 Q3.2 -23.45 3.85 -23.1 L4.4 -23.55 Q4.4 -23.85 3.35 -23.95 L2.9 -24.5 Q2.4 -25.05 1.5 -25.1 L-1.3 -25.15 -1.6 -25.3 -1.75 -25.75 -1.85 -26.05 -1.85 -26.1 -1.95 -27.05 -1.9 -27.05 -1.8 -27.15 -1.95 -27.3 -2.05 -27.7 -2.1 -27.75 -2.65 -27.95 M-15.5 10.65 Q-15.55 8.75 -15.2 7.55 -14.95 6.85 -14.85 6.0 -14.6 4.5 -14.75 2.55 L-14.9 -2.5 -14.8 -3.35 Q-14.5 3.65 -14.7 6.0 L-14.7 6.2 -15.5 10.65 M-12.85 21.2 L-12.55 21.1 -12.95 21.1 -12.85 21.2 M-3.75 22.15 L-4.05 22.2 -3.75 22.2 -3.75 22.15 M11.7 6.85 L11.7 6.75 11.45 6.8 11.7 6.85 M3.2 22.7 L2.95 23.15 3.15 23.4 3.2 22.7" fill="url(#gradient3)" fill-rule="evenodd" stroke="none"/>
    <path d="M6.9 -29.2 L7.35 -28.95 7.5 -28.75 7.5 -28.55 7.4 -28.65 6.9 -29.2" fill="url(#gradient4)" fill-rule="evenodd" stroke="none"/>
    <path d="M-3.75 22.15 L-3.75 22.2 -4.05 22.2 -3.75 22.15 M-3.65 24.35 L-3.6 24.35 -3.1 24.3 -3.3 24.45 -4.15 24.35 -3.65 24.35" fill="#ad957a" fill-rule="evenodd" stroke="none"/>
    <path d="M10.65 -14.35 L10.55 -14.25 Q10.5 -14.1 10.3 -14.15 9.9 -14.35 9.8 -14.8 L9.85 -15.4 Q9.9 -15.95 10.15 -16.05 L10.45 -15.65 10.4 -15.25 10.5 -14.75 10.65 -14.35 M10.9 -16.65 L10.55 -16.6 Q10.0 -16.6 9.95 -17.1 L10.0 -17.7 Q10.1 -19.0 10.6 -18.65 11.05 -18.25 11.0 -17.2 L10.9 -16.65 M4.25 -17.45 L3.85 -17.05 Q3.0 -17.95 3.05 -18.35 3.05 -18.9 3.5 -18.85 4.0 -18.75 3.95 -18.2 L4.15 -17.85 4.25 -17.45 M2.55 -17.75 L1.95 -17.05 1.7 -17.35 1.65 -17.7 1.75 -18.3 2.35 -18.8 2.75 -18.45 2.55 -17.75 M3.75 -15.75 L3.4 -15.3 3.05 -14.9 3.1 -14.85 2.6 -14.65 2.3 -14.6 Q1.5 -15.35 1.55 -15.75 L1.55 -16.05 Q2.1 -16.0 2.5 -15.65 L2.6 -15.45 2.75 -15.55 3.3 -16.15 3.6 -15.95 3.75 -15.75 M4.3 -15.95 Q4.8 -16.1 5.15 -15.5 L5.4 -14.95 5.55 -15.2 5.2 -15.65 5.25 -15.9 5.95 -15.8 6.1 -16.0 Q6.5 -16.3 6.7 -15.85 L6.85 -15.4 6.65 -15.2 6.8 -15.0 7.0 -14.8 6.95 -14.8 7.15 -14.55 7.05 -14.4 6.75 -14.4 Q6.55 -14.4 6.15 -14.75 L5.65 -14.45 Q5.5 -14.45 5.45 -14.55 L5.25 -14.5 Q4.9 -14.5 4.55 -15.05 L4.3 -15.65 4.3 -15.95 M4.75 -17.6 L4.95 -18.8 5.55 -18.7 5.95 -18.4 5.65 -17.75 5.0 -16.95 Q4.7 -17.25 4.75 -17.6 M1.15 -17.35 L-0.3 -17.1 -0.5 -17.15 -0.55 -17.3 -0.35 -17.6 0.45 -17.75 0.25 -18.2 0.3 -18.8 Q1.3 -18.9 1.25 -17.8 L1.15 -17.35 M1.1 -15.75 L0.7 -14.8 0.45 -14.75 Q0.1 -14.8 0.05 -14.95 L0.05 -15.15 0.3 -15.7 0.8 -16.2 1.1 -15.75 M1.15 -12.55 L1.2 -13.0 1.45 -13.45 Q1.65 -13.85 2.0 -13.9 L2.25 -13.5 2.05 -12.5 1.95 -12.4 1.9 -12.3 1.6 -12.35 1.15 -12.4 1.15 -12.55 Q1.05 -12.4 0.85 -12.4 L0.25 -13.15 -0.2 -14.0 -0.15 -14.2 0.1 -14.25 0.75 -13.45 1.15 -12.55 M2.85 -13.75 L3.35 -13.65 3.85 -13.4 3.65 -13.25 3.55 -13.1 3.75 -12.7 3.9 -12.3 3.9 -12.15 3.85 -12.2 3.6 -12.1 Q3.3 -12.2 3.0 -12.85 L2.7 -13.45 Q2.7 -13.7 2.85 -13.75 M4.2 -13.4 L4.6 -13.85 4.85 -13.15 4.8 -12.7 4.35 -12.25 4.0 -12.55 3.95 -12.7 4.2 -13.4 M9.1 -17.35 L8.6 -16.7 8.35 -17.25 8.6 -18.0 9.05 -18.65 9.45 -18.05 9.1 -17.35 M7.95 -17.45 L7.85 -17.1 7.25 -16.9 6.75 -17.05 6.85 -18.45 7.25 -18.55 Q7.65 -18.55 7.85 -18.0 L7.95 -17.45 M8.85 -15.85 Q9.55 -15.45 9.8 -14.4 L9.45 -14.3 8.75 -14.9 Q8.5 -15.15 8.5 -15.5 8.5 -15.8 8.85 -15.85 M8.3 -15.6 L8.35 -15.4 8.0 -14.9 7.4 -14.45 Q7.1 -14.5 7.15 -14.8 L7.4 -15.3 8.25 -15.6 8.3 -15.6 M6.1 -13.2 L6.4 -12.65 6.75 -13.35 Q7.0 -13.75 7.4 -13.65 L7.8 -13.2 6.55 -12.0 6.3 -12.05 6.25 -12.1 6.0 -12.1 Q5.7 -12.15 5.4 -12.75 L5.2 -13.6 Q5.65 -13.75 6.1 -13.2 M8.45 -12.7 L8.5 -13.0 Q8.35 -13.3 8.7 -13.35 L9.45 -13.4 9.55 -13.1 9.35 -12.8 9.2 -12.5 Q9.2 -12.35 9.3 -12.35 L9.5 -12.25 Q9.25 -12.05 8.55 -11.95 L8.4 -12.0 8.35 -11.85 8.1 -11.75 Q7.8 -11.95 7.7 -12.25 L7.75 -12.7 8.1 -13.15 8.45 -12.7 M8.5 -10.25 L8.95 -10.85 9.35 -10.3 9.0 -9.55 8.5 -8.95 8.2 -9.45 8.5 -10.25 M7.85 -9.7 L7.75 -9.35 Q7.6 -9.1 7.1 -9.15 L6.6 -9.25 6.7 -10.65 7.15 -10.8 7.75 -10.25 7.85 -9.7 M9.85 -9.95 Q9.95 -11.25 10.5 -10.85 10.9 -10.45 10.85 -9.4 L10.75 -8.85 10.45 -8.8 Q9.9 -8.85 9.8 -9.35 L9.85 -9.95 M5.85 -10.65 L5.55 -9.95 4.9 -9.2 Q4.6 -9.45 4.65 -9.8 L4.85 -11.0 5.45 -10.9 5.85 -10.65 M6.05 -8.2 Q6.4 -8.55 6.6 -8.05 L6.75 -7.6 6.55 -7.4 6.65 -7.2 6.9 -7.05 6.8 -7.05 7.05 -6.75 6.95 -6.65 6.6 -6.6 6.05 -6.95 Q5.8 -6.7 5.55 -6.7 5.4 -6.7 5.35 -6.8 L5.1 -6.7 4.45 -7.25 4.2 -7.9 4.2 -8.2 Q4.75 -8.3 5.05 -7.7 L5.3 -7.15 5.4 -7.45 5.05 -7.85 5.1 -8.1 5.8 -8.0 6.05 -8.2 M7.3 -7.5 L8.1 -7.85 8.2 -7.8 8.25 -7.65 7.85 -7.1 7.3 -6.65 7.05 -7.0 7.3 -7.5 M8.75 -8.05 Q9.4 -7.65 9.65 -6.65 L9.3 -6.5 8.6 -7.1 8.4 -7.75 Q8.45 -8.05 8.75 -8.05 M9.7 -7.65 Q9.75 -8.2 10.05 -8.25 L10.3 -7.85 10.3 -7.45 10.4 -7.0 10.55 -6.6 10.5 -6.5 Q10.35 -6.35 10.2 -6.35 9.8 -6.6 9.7 -7.05 L9.7 -7.65 M4.15 -9.7 L3.7 -9.25 Q2.9 -10.2 2.95 -10.6 2.95 -11.15 3.4 -11.05 3.85 -10.95 3.8 -10.4 L4.0 -10.05 4.15 -9.7 M1.6 -10.5 L2.2 -11.05 2.65 -10.65 2.45 -9.95 1.85 -9.25 1.55 -9.55 1.55 -9.9 1.6 -10.5 M0.15 -10.45 L0.2 -11.05 Q1.2 -11.1 1.15 -10.0 L1.0 -9.55 -0.4 -9.3 Q-0.6 -9.3 -0.65 -9.4 L-0.65 -9.55 -0.45 -9.8 0.3 -9.95 0.15 -10.45 M2.35 -7.85 L2.5 -7.65 2.65 -7.8 3.2 -8.35 3.45 -8.2 3.6 -7.95 3.3 -7.55 2.95 -7.1 3.0 -7.05 2.5 -6.9 2.2 -6.8 Q1.4 -7.55 1.45 -7.95 L1.45 -8.25 Q2.0 -8.25 2.35 -7.85 M1.0 -7.95 L0.6 -7.05 0.3 -6.95 Q-0.05 -7.0 -0.1 -7.2 L-0.05 -7.4 0.25 -7.9 0.7 -8.45 1.0 -7.95 M4.5 -6.1 L4.7 -5.45 4.7 -5.0 4.25 -4.5 3.9 -4.85 3.85 -5.0 4.1 -5.7 4.5 -6.1 M3.55 -5.5 L3.4 -5.35 3.65 -4.95 3.8 -4.6 3.8 -4.45 3.7 -4.45 3.5 -4.35 Q3.2 -4.5 2.85 -5.1 2.55 -5.65 2.6 -5.75 L2.75 -6.0 3.25 -5.95 Q3.75 -5.8 3.75 -5.65 L3.55 -5.5 M1.9 -4.75 Q1.9 -4.55 1.8 -4.7 L1.75 -4.6 1.5 -4.6 1.05 -4.7 1.05 -4.85 0.75 -4.65 0.15 -5.4 -0.3 -6.3 -0.25 -6.5 0.0 -6.5 0.65 -5.7 1.05 -4.85 1.1 -5.3 1.3 -5.7 1.85 -6.2 2.15 -5.75 1.9 -4.75 M1.85 -0.25 L1.25 0.45 1.0 0.15 1.0 -0.2 1.05 -0.85 1.65 -1.35 2.05 -0.95 1.85 -0.25 M4.9 -1.2 L5.3 -0.95 5.0 -0.25 4.3 0.45 4.05 -0.1 4.3 -1.3 4.9 -1.2 M3.45 -0.35 L3.6 -0.05 3.1 0.4 Q2.35 -0.5 2.35 -0.9 2.4 -1.45 2.85 -1.35 3.3 -1.25 3.25 -0.7 L3.45 -0.35 M9.4 -5.35 L9.2 -5.05 9.1 -4.75 9.2 -4.6 9.35 -4.5 Q9.1 -4.3 8.45 -4.2 L8.25 -4.3 8.25 -4.15 8.0 -4.05 7.6 -4.5 7.6 -4.95 7.95 -5.4 8.3 -5.0 8.4 -5.25 Q8.25 -5.6 8.6 -5.6 L9.35 -5.65 9.4 -5.35 M6.65 -5.6 Q6.85 -6.05 7.25 -5.9 7.65 -5.8 7.65 -5.45 L6.4 -4.25 6.2 -4.3 6.15 -4.35 5.9 -4.4 Q5.6 -4.4 5.3 -5.05 L5.05 -5.85 Q5.55 -6.0 6.0 -5.5 L6.3 -4.9 6.65 -5.6 M6.6 -1.1 L7.15 -0.6 7.25 0.0 7.2 0.35 6.55 0.5 6.05 0.45 6.15 -1.0 6.6 -1.1 M9.9 -1.15 Q10.35 -0.75 10.25 0.3 L10.2 0.85 9.85 0.85 Q9.3 0.8 9.25 0.3 L9.3 -0.25 Q9.4 -1.6 9.9 -1.15 M8.35 -1.15 L8.75 -0.6 8.4 0.1 7.9 0.7 7.65 0.2 7.9 -0.6 8.35 -1.15 M10.15 11.05 L9.85 11.05 Q9.35 11.0 9.3 10.5 L9.35 9.95 Q9.45 8.6 9.85 9.05 10.3 9.45 10.25 10.45 L10.15 11.05 M7.7 2.05 L7.3 2.55 6.75 3.05 Q6.45 3.0 6.5 2.7 L6.7 2.2 Q7.05 1.85 7.55 1.85 L7.65 1.9 7.7 2.05 M7.85 1.9 Q7.85 1.65 8.15 1.6 8.85 2.0 9.05 3.0 L8.75 3.2 8.05 2.55 Q7.8 2.25 7.85 1.9 M9.15 2.05 Q9.15 1.5 9.5 1.45 L9.75 1.8 9.7 2.25 9.85 2.7 9.95 3.1 9.9 3.2 9.65 3.35 9.15 2.65 9.15 2.05 M6.0 2.3 L6.1 2.5 6.35 2.6 6.25 2.65 6.45 2.95 6.4 3.0 6.05 3.1 Q5.85 3.1 5.45 2.75 L5.0 3.0 4.8 2.9 4.55 3.0 3.9 2.45 3.65 1.75 3.65 1.5 Q4.15 1.4 4.45 2.0 L4.75 2.55 4.85 2.2 4.5 1.8 4.55 1.55 5.25 1.7 5.45 1.5 Q5.85 1.15 6.05 1.65 L6.15 2.1 6.0 2.3 M7.05 4.25 L5.85 5.5 5.65 5.4 5.6 5.4 5.35 5.35 Q5.05 5.35 4.75 4.65 4.45 4.1 4.5 3.85 5.0 3.75 5.4 4.2 L5.7 4.85 6.05 4.15 Q6.3 3.7 6.7 3.8 7.1 3.95 7.05 4.25 M7.05 5.25 L7.05 4.75 Q7.05 4.45 7.35 4.35 L7.75 4.7 7.8 4.5 Q7.7 4.15 8.05 4.15 L8.8 4.1 8.8 4.4 8.65 4.7 8.55 5.0 Q8.5 5.15 8.6 5.15 L8.75 5.2 7.9 5.55 7.7 5.45 7.7 5.6 7.4 5.7 7.05 5.25 M2.9 1.5 L3.05 1.75 2.75 2.15 2.35 2.55 2.4 2.6 1.95 2.8 1.65 2.9 Q0.85 2.15 0.85 1.75 L0.9 1.45 Q1.45 1.45 1.75 1.85 L1.95 2.0 2.05 1.9 2.65 1.3 2.9 1.5 M0.05 2.6 L-0.25 2.75 Q-0.6 2.7 -0.65 2.5 L-0.65 2.3 -0.35 1.8 0.15 1.2 Q0.45 1.4 0.4 1.75 L0.05 2.6 M2.2 3.7 L2.7 3.75 3.15 4.1 3.0 4.25 Q2.85 4.25 2.85 4.35 L3.05 4.8 3.25 5.1 3.25 5.25 3.15 5.3 2.9 5.4 2.25 4.65 2.0 3.95 2.2 3.7 M1.55 4.0 L1.35 4.95 1.25 5.05 1.2 5.1 0.95 5.15 0.5 5.05 0.5 4.9 0.2 5.1 -0.4 4.3 -0.85 3.4 -0.8 3.2 -0.55 3.2 0.1 4.0 0.5 4.9 0.5 4.45 0.75 4.0 1.3 3.5 Q1.6 3.7 1.55 4.0 M4.15 4.25 L4.1 4.75 3.7 5.25 3.35 4.85 3.25 4.75 3.5 4.05 3.95 3.6 4.15 4.25 M4.9 9.0 L5.25 9.25 4.95 9.95 4.3 10.65 Q4.0 10.45 4.05 10.1 L4.3 8.85 4.9 9.0 M2.1 9.25 L1.9 9.95 1.25 10.65 1.0 10.35 1.0 10.0 1.1 9.35 Q1.2 9.0 1.65 8.85 L2.1 9.25 M0.45 10.35 L-0.95 10.6 -1.15 10.55 -1.2 10.3 -1.05 10.05 -0.2 9.95 -0.45 9.45 -0.4 8.8 Q0.65 8.8 0.6 9.85 L0.45 10.35 M0.85 11.65 Q1.4 11.6 1.8 12.05 L1.95 12.2 2.05 12.05 2.65 11.5 2.9 11.7 3.05 11.95 2.8 12.35 2.4 12.75 2.4 12.8 1.95 13.0 1.65 13.1 Q0.8 12.35 0.85 11.95 L0.85 11.65 M0.45 11.95 L0.1 12.85 -0.25 12.95 -0.6 12.75 -0.65 12.45 -0.35 12.0 0.2 11.45 0.45 11.95 M3.45 9.8 L3.65 10.15 3.15 10.6 Q2.3 9.7 2.35 9.3 2.4 8.75 2.9 8.85 3.3 8.95 3.3 9.5 L3.45 9.8 M3.65 11.7 Q4.15 11.6 4.45 12.2 L4.75 12.75 Q4.75 12.6 4.9 12.4 L4.5 12.0 4.6 11.75 5.25 11.9 5.45 11.65 Q5.8 11.35 6.1 11.8 L6.2 12.3 6.0 12.45 6.1 12.7 6.35 12.8 6.25 12.85 6.45 13.15 6.4 13.2 6.1 13.3 5.45 12.95 5.0 13.2 4.8 13.1 4.6 13.2 3.85 12.65 3.6 11.95 3.65 11.7 M6.65 9.1 L7.15 9.6 7.25 10.2 7.25 10.55 6.55 10.7 6.05 10.65 6.15 9.2 6.65 9.1 M7.9 9.6 Q8.15 9.05 8.35 9.05 L8.75 9.6 8.4 10.3 7.95 10.9 Q7.65 10.65 7.7 10.4 L7.9 9.6 M7.7 12.25 L7.3 12.75 6.75 13.25 6.45 12.9 6.75 12.4 Q7.0 12.05 7.55 12.05 L7.65 12.05 7.7 12.25 M8.15 11.8 Q8.85 12.2 9.1 13.2 L8.8 13.4 8.1 12.75 7.85 12.1 Q7.9 11.8 8.15 11.8 M9.45 11.65 L9.75 12.0 9.65 12.45 9.75 12.9 9.9 13.25 9.85 13.4 9.6 13.55 9.1 12.85 9.15 12.25 Q9.2 11.7 9.45 11.65 M8.0 14.25 L8.8 14.25 8.85 14.55 8.7 14.85 8.5 15.15 8.6 15.3 8.8 15.35 7.85 15.7 7.7 15.65 7.65 15.75 7.45 15.85 Q7.1 15.7 7.1 15.35 L7.05 14.9 Q7.1 14.55 7.4 14.5 L7.75 14.9 7.85 14.65 Q7.65 14.3 8.0 14.25 M6.1 14.3 Q6.35 13.85 6.75 13.95 L7.1 14.4 5.85 15.65 5.6 15.55 5.6 15.5 5.3 15.5 Q5.05 15.5 4.75 14.8 L4.5 14.0 Q5.0 13.9 5.4 14.35 L5.7 15.0 6.1 14.3 M2.9 14.5 L3.05 14.9 3.25 15.25 3.25 15.4 3.15 15.45 2.95 15.55 2.3 14.8 2.0 14.1 Q2.0 13.9 2.15 13.85 L2.7 13.9 3.2 14.25 3.05 14.4 Q2.9 14.4 2.9 14.5 M3.35 15.0 L3.3 14.9 3.55 14.2 3.95 13.75 4.2 14.4 4.1 14.85 3.65 15.4 3.35 15.0 M1.2 15.25 L0.9 15.3 0.45 15.2 0.45 15.05 0.2 15.25 -0.45 14.45 -0.9 13.55 -0.8 13.35 -0.55 13.35 0.1 14.15 0.5 15.0 0.5 14.6 0.8 14.15 Q0.95 13.75 1.35 13.65 L1.6 14.15 1.4 15.1 1.25 15.2 1.2 15.25 M0.45 0.15 L-0.95 0.4 -1.2 0.3 -1.25 0.1 -1.0 -0.1 -0.25 -0.25 -0.4 -0.75 -0.35 -1.4 Q0.65 -1.4 0.55 -0.3 L0.45 0.15 M-3.1 -18.65 L-3.7 -18.1 -4.0 -17.55 -4.3 -17.5 -4.55 -17.65 -4.6 -17.85 -4.15 -18.75 Q-3.65 -19.3 -3.1 -18.65 M-3.05 -19.05 Q-2.45 -19.2 -2.05 -18.7 -1.8 -18.35 -1.85 -17.85 L-1.85 -17.55 -2.4 -17.35 -2.8 -18.0 -3.05 -18.8 -3.05 -19.05 M-8.5 -19.25 L-8.45 -19.4 -7.55 -18.85 -7.2 -18.45 -6.4 -19.05 -6.2 -19.0 -6.15 -18.8 -6.55 -18.3 Q-6.9 -17.8 -7.15 -17.8 L-7.4 -17.85 -7.4 -17.9 -7.9 -17.75 -8.15 -18.15 -8.15 -18.5 -8.4 -18.9 -8.5 -19.25 M-8.8 -19.2 L-8.7 -19.2 -8.7 -19.1 -8.4 -18.9 -8.45 -18.0 -8.75 -17.95 -9.2 -18.5 Q-9.35 -18.35 -9.65 -18.15 L-9.85 -18.1 -10.15 -18.2 -10.2 -18.4 -10.0 -18.85 -9.8 -19.35 -9.4 -19.3 -8.8 -19.2 M-5.2 -19.25 L-4.7 -18.55 -4.75 -18.1 -4.75 -17.7 Q-4.9 -17.45 -5.25 -17.45 L-5.45 -17.8 -5.5 -18.05 -5.85 -18.75 -5.55 -19.0 -5.2 -19.25 M-6.9 -15.7 L-7.0 -15.6 -7.7 -16.15 -7.7 -16.55 -7.4 -16.9 -7.1 -16.35 -6.9 -16.1 -6.85 -16.4 -6.3 -16.8 Q-6.0 -16.7 -6.0 -16.3 L-6.1 -15.85 -6.7 -15.35 -6.9 -15.65 -6.9 -15.7 M-5.15 -16.35 Q-4.8 -16.75 -4.35 -16.8 L-4.15 -16.75 -4.1 -16.55 -4.15 -16.4 -3.75 -16.4 -3.5 -16.6 -3.1 -16.35 -2.9 -15.85 -3.0 -15.55 -2.85 -15.45 -2.7 -15.3 -2.35 -16.05 Q-1.95 -16.55 -1.4 -16.5 L-1.35 -16.25 -1.5 -15.9 -1.7 -15.55 -1.95 -15.2 Q-2.25 -14.95 -2.45 -14.95 L-2.7 -15.0 -2.75 -15.15 -2.85 -15.15 Q-2.95 -15.05 -3.05 -15.05 L-4.25 -16.15 -4.25 -16.2 -4.45 -16.0 -4.95 -15.2 -5.15 -15.2 Q-5.5 -15.25 -5.5 -15.4 L-5.45 -15.6 -5.15 -16.35 M-9.75 -16.7 L-9.5 -17.05 Q-9.3 -17.1 -9.0 -16.8 L-8.2 -16.2 -8.4 -16.0 -8.1 -15.75 -7.8 -15.4 -7.85 -15.25 -8.15 -15.25 Q-8.5 -15.25 -9.0 -15.75 L-9.1 -15.5 -9.4 -15.45 Q-9.8 -15.75 -9.8 -16.1 L-9.6 -16.55 -9.75 -16.7 M-8.15 -14.65 Q-7.8 -14.4 -7.9 -13.85 L-7.8 -13.0 -7.9 -12.9 -8.25 -12.85 -8.6 -12.9 -8.6 -13.5 -8.6 -14.15 -8.15 -14.65 M-9.6 -14.75 Q-9.35 -14.5 -9.35 -14.0 L-9.6 -12.95 -9.9 -12.85 -10.1 -13.35 -9.95 -14.15 -9.6 -14.75 M-6.2 -13.95 Q-6.1 -14.85 -5.35 -13.95 L-4.65 -13.15 -4.4 -14.15 -3.75 -13.95 Q-3.4 -13.85 -3.45 -13.75 L-3.65 -13.5 -3.95 -13.15 -4.05 -12.45 Q-3.9 -12.3 -4.25 -12.35 -4.6 -12.35 -4.65 -12.7 L-4.8 -12.7 Q-5.3 -12.7 -5.8 -13.25 L-6.2 -13.95 M-6.75 -14.65 L-6.85 -12.8 -7.1 -12.75 -7.65 -13.25 Q-7.55 -14.65 -6.95 -14.85 L-6.75 -14.65 M-0.6 -17.9 L-1.25 -17.6 -1.55 -17.8 -1.1 -18.35 -0.7 -18.95 -0.2 -18.5 -0.05 -18.15 -0.2 -17.8 -0.6 -17.9 M-0.55 -16.1 L-0.55 -15.55 -0.75 -15.0 -0.95 -15.05 Q-1.25 -15.05 -1.25 -15.3 L-1.25 -15.6 -1.2 -16.05 -0.55 -16.1 M-1.55 -13.0 L-1.6 -13.65 Q-1.45 -14.2 -0.85 -14.2 L-0.85 -13.55 -1.0 -12.6 -1.3 -12.55 -1.55 -13.0 M-2.2 -12.4 Q-2.5 -12.4 -2.85 -13.65 L-2.5 -14.1 Q-1.9 -14.05 -1.95 -13.8 L-2.15 -13.5 -2.0 -13.15 -1.9 -12.8 -1.95 -12.5 Q-1.85 -12.4 -2.2 -12.4 M-10.8 -0.7 L-10.85 -0.9 -10.7 -1.35 -10.55 -1.9 -10.1 -1.8 -10.1 -1.85 -9.5 -1.7 -9.45 -1.7 -9.35 -1.65 -9.1 -1.45 -9.15 -0.6 -9.45 -0.5 -9.85 -1.05 -10.3 -0.7 -10.8 -0.7 M-10.3 -10.6 L-10.15 -11.05 -9.95 -11.55 -9.5 -11.5 -8.9 -11.4 -8.85 -11.4 -8.8 -11.3 -8.55 -11.15 -8.6 -10.25 -8.85 -10.15 -9.3 -10.7 -9.75 -10.4 Q-9.6 -10.3 -9.95 -10.35 L-10.25 -10.4 -10.3 -10.6 M-2.0 -9.75 Q-2.1 -9.6 -2.55 -9.55 L-2.95 -10.25 -3.15 -11.0 -3.15 -11.25 Q-2.6 -11.4 -2.15 -10.95 -1.9 -10.55 -1.95 -10.05 L-2.0 -9.75 M-1.65 -10.0 L-1.2 -10.55 -0.85 -11.15 -0.35 -10.7 -0.15 -10.35 -0.3 -10.0 -0.75 -10.15 Q-1.0 -9.95 -1.35 -9.85 L-1.65 -10.0 M-4.7 -10.05 L-4.3 -11.0 Q-3.75 -11.5 -3.2 -10.85 L-3.8 -10.3 -4.15 -9.8 Q-4.25 -9.7 -4.4 -9.7 L-4.7 -9.85 -4.7 -10.05 M-4.9 -9.95 L-5.35 -9.65 -5.55 -10.05 -5.65 -10.3 -5.95 -10.95 -5.7 -11.25 -5.35 -11.45 -4.85 -10.8 -4.85 -10.35 -4.9 -9.95 M-3.0 -8.1 L-3.1 -7.8 -2.95 -7.7 -2.85 -7.5 -2.45 -8.25 Q-2.0 -8.75 -1.5 -8.75 L-1.45 -8.55 -1.6 -8.15 -1.8 -7.75 -2.05 -7.4 Q-2.35 -7.2 -2.6 -7.15 L-2.8 -7.2 -2.9 -7.35 -2.95 -7.4 Q-3.1 -7.3 -3.15 -7.3 L-4.35 -8.4 -4.35 -8.45 -4.55 -8.2 -5.05 -7.45 -5.3 -7.45 Q-5.6 -7.45 -5.6 -7.6 L-5.6 -7.8 -5.25 -8.55 -4.45 -9.0 -4.25 -9.0 -4.25 -8.8 -4.25 -8.65 -3.85 -8.6 -3.6 -8.85 -3.2 -8.55 -3.0 -8.1 M-3.9 -6.25 L-3.55 -6.0 -3.75 -5.8 -4.05 -5.4 -4.15 -4.7 Q-4.05 -4.6 -4.4 -4.6 L-4.75 -4.95 -4.9 -4.95 Q-5.45 -5.0 -5.95 -5.55 L-6.3 -6.2 Q-6.2 -7.1 -5.45 -6.2 L-4.75 -5.4 -4.5 -6.45 -3.9 -6.25 M-0.65 -7.75 Q-0.65 -7.35 -0.85 -7.25 L-1.1 -7.25 -1.35 -7.5 -1.35 -7.8 -1.3 -8.25 -0.65 -8.3 -0.65 -7.75 M-6.25 -11.05 L-6.7 -10.5 -7.3 -10.0 -7.5 -10.05 -7.55 -10.1 -8.0 -9.95 -8.25 -10.35 -8.25 -10.7 -8.5 -11.15 -8.65 -11.45 -8.55 -11.6 Q-8.1 -11.55 -7.7 -11.1 L-7.3 -10.65 -6.5 -11.25 -6.3 -11.25 -6.25 -11.05 M-7.8 -8.8 L-7.5 -9.1 -7.3 -8.6 -7.05 -8.3 -6.95 -8.6 -6.4 -9.05 Q-6.1 -8.9 -6.1 -8.5 L-6.2 -8.05 -6.8 -7.55 -7.0 -7.85 -7.0 -7.9 -7.2 -7.85 -7.8 -8.4 -7.8 -8.8 M-8.55 -8.25 L-8.2 -7.95 -7.9 -7.65 -7.95 -7.5 -8.3 -7.45 -9.1 -7.95 -9.2 -7.7 -9.5 -7.65 Q-9.9 -8.0 -9.9 -8.35 L-9.7 -8.75 -9.85 -8.95 Q-9.85 -9.3 -9.6 -9.25 L-9.1 -9.05 -8.3 -8.4 Q-8.3 -8.35 -8.55 -8.25 M-9.7 -7.0 Q-9.45 -6.8 -9.45 -6.3 L-9.7 -5.2 -10.0 -5.1 -10.25 -5.65 -10.05 -6.45 -9.7 -7.0 M-8.25 -6.9 Q-7.95 -6.7 -8.0 -6.15 L-7.9 -5.25 -8.05 -5.2 Q-8.1 -5.1 -8.35 -5.1 L-8.7 -5.2 -8.75 -5.8 -8.7 -6.45 -8.25 -6.9 M-6.85 -6.9 L-6.95 -5.15 -7.0 -5.05 -7.25 -5.0 -7.75 -5.5 Q-7.65 -6.9 -7.1 -7.1 -6.9 -7.05 -6.85 -6.9 M-9.15 -1.9 Q-8.7 -1.85 -8.25 -1.4 L-7.9 -1.0 -7.1 -1.6 -6.9 -1.55 -6.8 -1.35 -7.25 -0.85 -7.9 -0.3 -8.1 -0.35 -8.1 -0.45 Q-8.4 -0.3 -8.6 -0.25 L-8.8 -0.65 -8.85 -1.0 -9.05 -1.45 -9.25 -1.75 -9.15 -1.9 M-5.9 -1.75 L-5.4 -1.15 -5.4 -0.65 -5.45 -0.3 -5.9 0.05 -6.1 -0.35 -6.2 -0.65 -6.5 -1.3 -6.3 -1.6 -5.9 -1.75 M-5.25 -0.4 Q-5.25 -0.9 -4.85 -1.3 -4.3 -1.8 -3.75 -1.15 L-4.35 -0.6 -4.75 -0.1 -5.0 0.0 -5.3 -0.15 -5.25 -0.4 M-1.15 -4.9 L-1.45 -4.8 -1.65 -5.3 -1.7 -5.95 Q-1.55 -6.5 -0.95 -6.5 L-0.95 -5.85 -1.15 -4.9 M-2.25 -5.75 L-2.1 -5.4 -2.0 -5.05 -2.05 -4.75 Q-1.95 -4.65 -2.3 -4.65 -2.6 -4.7 -3.0 -5.9 L-2.65 -6.35 Q-2.05 -6.3 -2.05 -6.05 L-2.25 -5.75 M-2.75 -1.25 Q-2.45 -0.85 -2.5 -0.35 L-2.55 -0.05 -3.15 0.15 -3.5 -0.55 -3.75 -1.3 -3.7 -1.6 Q-3.15 -1.7 -2.75 -1.25 M-2.2 -0.3 L-1.75 -0.85 -1.4 -1.45 -0.9 -1.05 -0.7 -0.65 -0.85 -0.35 -1.35 -0.45 Q-1.55 -0.25 -1.9 -0.2 L-2.2 -0.3 M-2.0 1.15 L-2.2 1.55 -2.35 1.95 -2.65 2.25 -3.15 2.55 -3.35 2.45 -3.45 2.35 -3.5 2.3 -3.7 2.4 -4.95 1.25 -5.1 1.5 -5.6 2.2 -5.85 2.25 -6.2 2.1 -6.2 1.85 -5.85 1.15 -5.05 0.65 -4.85 0.7 -4.8 0.85 -4.8 1.0 -4.4 1.1 -4.15 0.85 Q-4.0 0.75 -3.75 1.15 -3.5 1.45 -3.55 1.6 L-3.65 1.85 -3.55 2.0 -3.45 2.2 -3.05 1.45 Q-2.6 0.95 -2.1 0.9 L-2.0 1.15 M-1.9 1.9 L-1.85 1.4 Q-1.7 1.15 -1.2 1.4 L-1.2 1.95 -1.4 2.4 -1.65 2.45 -1.95 2.2 -1.9 1.9 M-2.65 3.65 L-2.8 4.0 -2.7 4.35 Q-2.55 4.55 -2.55 4.7 L-2.65 5.0 -2.9 5.1 Q-3.2 5.05 -3.55 3.85 -3.55 3.5 -3.2 3.4 -2.6 3.45 -2.65 3.65 M-4.1 3.75 L-4.3 3.95 -4.6 4.3 -4.7 5.05 -4.95 5.15 -5.35 4.75 -5.5 4.8 Q-6.05 4.75 -6.5 4.2 L-6.85 3.5 Q-6.8 2.65 -6.0 3.5 L-5.3 4.35 -5.05 3.3 -4.5 3.5 -4.1 3.75 M-1.5 3.9 L-1.7 4.85 -2.0 4.95 -2.25 4.45 -2.25 3.75 Q-2.1 3.25 -1.5 3.25 L-1.5 3.9 M-6.7 1.15 L-6.75 1.65 -7.35 2.15 -7.6 1.85 -7.6 1.8 -7.8 1.8 -8.35 1.3 -8.35 0.9 -8.05 0.55 -7.9 1.1 -7.6 1.35 -7.55 1.1 -6.95 0.6 Q-6.65 0.8 -6.7 1.15 M-10.05 2.05 L-10.45 1.35 -10.3 0.95 -10.4 0.7 -10.15 0.4 -9.65 0.65 -8.85 1.3 -9.1 1.45 -8.8 1.75 -8.45 2.05 -8.5 2.15 -8.85 2.25 -9.7 1.7 -9.75 1.95 -10.05 2.05 M-7.85 4.75 L-8.3 4.2 Q-8.2 2.85 -7.7 2.65 L-7.4 2.8 -7.55 4.6 -7.6 4.7 -7.85 4.75 M-8.95 4.65 L-9.3 4.55 -9.35 3.9 -9.25 3.3 -8.8 2.8 Q-8.5 3.05 -8.55 3.55 L-8.45 4.5 -8.65 4.55 -8.95 4.65 M-5.9 8.4 L-5.4 9.05 -5.4 9.55 -5.45 9.9 -5.85 10.25 -6.15 9.85 -6.15 9.55 -6.5 8.9 -6.25 8.6 -5.9 8.4 M-6.8 8.8 L-7.2 9.35 -7.9 9.9 -8.15 9.8 -8.15 9.75 -8.6 9.95 -8.85 9.55 -8.8 9.2 -9.05 8.75 -9.2 8.4 -9.15 8.25 -8.3 8.8 -7.95 9.2 -7.05 8.6 -6.85 8.65 -6.8 8.8 M-9.1 8.75 L-9.15 9.6 -9.45 9.7 -9.85 9.15 -10.3 9.5 -10.55 9.5 -10.85 9.5 -10.85 9.3 -10.7 8.8 -10.5 8.3 -10.05 8.35 -9.5 8.5 -9.4 8.5 -9.35 8.55 -9.1 8.75 M-10.1 12.25 L-10.45 11.55 -10.25 11.15 -10.4 10.95 -10.15 10.6 Q-9.95 10.55 -9.7 10.85 -8.8 11.4 -8.85 11.5 L-9.1 11.65 -8.8 11.95 -8.5 12.25 -8.6 12.35 -8.85 12.45 -9.7 11.9 -9.75 12.15 -10.1 12.25 M-7.75 12.0 L-8.35 11.55 -8.45 11.1 -8.1 10.75 -7.85 11.3 -7.55 11.55 -7.55 11.3 -6.95 10.8 Q-6.65 11.0 -6.7 11.35 L-6.75 11.85 -7.3 12.35 -7.6 12.05 -7.6 12.0 -7.75 12.0 M-5.3 9.8 Q-5.25 9.3 -4.8 8.9 -4.35 8.4 -3.75 9.05 L-4.35 9.6 -4.7 10.15 -5.0 10.2 -5.25 10.05 -5.3 9.8 M-5.8 11.35 Q-5.4 10.95 -5.05 10.85 L-4.85 10.9 -4.75 11.1 -4.85 11.2 -4.4 11.3 -4.15 11.05 Q-3.95 10.95 -3.8 11.35 L-3.5 11.8 -3.7 12.05 -3.55 12.2 -3.4 12.35 -3.05 11.65 Q-2.55 11.1 -2.05 11.1 L-2.05 11.35 -2.2 11.75 -2.4 12.1 -2.6 12.45 -3.15 12.75 -3.35 12.65 -3.4 12.55 -3.5 12.5 -3.7 12.6 -4.95 11.45 -4.95 11.4 -5.05 11.65 -5.6 12.4 -5.8 12.45 Q-6.15 12.45 -6.15 12.25 L-6.15 12.05 -5.8 11.35 M-0.85 9.15 L-0.75 9.5 -0.85 9.85 -1.3 9.75 -1.95 10.0 -2.2 9.9 -1.8 9.3 -1.4 8.7 Q-1.05 8.85 -0.85 9.15 M-3.75 8.6 Q-3.15 8.5 -2.75 8.95 -2.45 9.35 -2.45 9.8 L-2.55 10.15 Q-2.65 10.3 -3.1 10.35 L-3.45 9.65 -3.75 8.9 -3.75 8.6 M-1.85 11.6 Q-1.65 11.35 -1.25 11.6 L-1.15 12.1 Q-1.2 12.5 -1.35 12.6 L-1.6 12.65 -1.95 12.4 -1.95 12.1 -1.85 11.6 M-10.55 4.65 L-10.8 4.1 -10.6 3.3 -10.25 2.7 Q-10.0 2.95 -10.0 3.4 L-10.3 4.55 -10.55 4.65 M-10.5 14.75 L-10.75 14.2 -10.55 13.45 -10.25 12.85 Q-10.05 13.05 -10.0 13.55 L-10.3 14.65 -10.5 14.75 M-1.45 13.4 L-1.45 14.05 -1.7 15.0 -2.0 15.1 -2.25 14.55 -2.2 13.9 Q-2.1 13.35 -1.45 13.4 M-2.65 13.8 L-2.8 14.15 -2.7 14.5 -2.55 14.8 -2.65 15.15 -2.85 15.2 Q-3.15 15.15 -3.5 13.95 L-3.2 13.55 Q-2.6 13.6 -2.65 13.8 M-4.1 13.9 L-4.35 14.1 -4.55 14.45 -4.65 15.15 -4.9 15.25 -5.3 14.9 -5.5 14.95 -6.45 14.35 -6.85 13.65 Q-6.8 12.8 -5.95 13.65 L-5.25 14.45 -5.1 13.45 -4.45 13.6 -4.1 13.9 M-7.55 14.8 L-7.8 14.85 -8.35 14.35 Q-8.25 13.0 -7.65 12.75 L-7.35 12.95 -7.5 14.75 -7.55 14.8 M-8.65 13.7 L-8.55 14.65 -8.65 14.7 -8.95 14.75 -9.25 14.7 -9.3 14.05 -9.25 13.45 -8.8 12.95 Q-8.55 13.15 -8.65 13.7" fill="#564c39" fill-rule="evenodd" stroke="none"/>
  </g>
  <defs>
    <linearGradient gradientTransform="matrix(0.0126, 9.0E-4, -2.0E-4, 0.0028, 0.4, -29.3)" gradientUnits="userSpaceOnUse" id="gradient0" spreadMethod="pad" x1="-819.2" x2="819.2">
      <stop offset="0.0" stop-color="#302b21"/>
      <stop offset="0.49019607843137253" stop-color="#473f30"/>
      <stop offset="0.9803921568627451" stop-color="#302b21"/>
    </linearGradient>
    <linearGradient gradientTransform="matrix(0.0126, 9.0E-4, 2.0E-4, -0.0028, -0.95, 25.0)" gradientUnits="userSpaceOnUse" id="gradient1" spreadMethod="pad" x1="-819.2" x2="819.2">
      <stop offset="0.0" stop-color="#302b21"/>
      <stop offset="0.49019607843137253" stop-color="#473f30"/>
      <stop offset="0.9803921568627451" stop-color="#302b21"/>
    </linearGradient>
    <linearGradient gradientTransform="matrix(0.016, 0.0011, -0.0024, 0.034, -0.35, -1.8)" gradientUnits="userSpaceOnUse" id="gradient2" spreadMethod="pad" x1="-819.2" x2="819.2">
      <stop offset="0.0" stop-color="#3e3326"/>
      <stop offset="0.49019607843137253" stop-color="#63513d"/>
      <stop offset="0.9803921568627451" stop-color="#3e3326"/>
    </linearGradient>
    <linearGradient gradientTransform="matrix(0.0194, 0.0014, -0.0022, 0.0316, -0.2, -2.05)" gradientUnits="userSpaceOnUse" id="gradient3" spreadMethod="pad" x1="-819.2" x2="819.2">
      <stop offset="0.0" stop-color="#63513d"/>
      <stop offset="0.49019607843137253" stop-color="#8b7256"/>
      <stop offset="0.9803921568627451" stop-color="#63513d"/>
    </linearGradient>
    <linearGradient gradientTransform="matrix(0.016, 0.0011, -0.0024, 0.034, -0.35, -1.8)" gradientUnits="userSpaceOnUse" id="gradient4" spreadMethod="pad" x1="-819.2" x2="819.2">
      <stop offset="0.0" stop-color="#63513d"/>
      <stop offset="0.49019607843137253" stop-color="#8b7256"/>
      <stop offset="0.9803921568627451" stop-color="#63513d"/>
    </linearGradient>
  </defs>
</svg>
