<?xml version="1.0" encoding="UTF-8" standalone="no"?>
<svg xmlns:ffdec="https://www.free-decompiler.com/flash" xmlns:xlink="http://www.w3.org/1999/xlink" ffdec:objectType="shape" height="534.35px" width="726.85px" xmlns="http://www.w3.org/2000/svg">
  <g transform="matrix(1.0, 0.0, 0.0, 1.0, 11.1, 13.25)">
    <path d="M682.4 15.4 L682.3 16.15 681.5 16.0 682.4 15.4" fill="#8e6c24" fill-opacity="0.2784314" fill-rule="evenodd" stroke="none"/>
    <path d="M652.75 379.8 L678.0 379.95 678.0 380.55 652.75 379.8" fill="#99dbf7" fill-rule="evenodd" stroke="none"/>
    <path d="M-5.2 401.3 Q-6.7 398.9 -7.0 394.85 -7.25 391.7 -6.7 387.25 L-6.1 382.3 Q-6.1 378.55 -6.6 370.7 L-7.1 359.05 -6.35 336.15 Q-5.9 322.25 -7.1 313.3 L-9.85 290.4 Q-11.1 277.6 -11.1 267.7 L-11.1 222.3 Q-10.7 179.2 -10.1 157.45 L-9.5 141.35 -9.1 125.2 -7.85 108.7 Q-7.75 107.95 -5.9 105.2 -4.1 102.65 -4.1 100.45 L-4.1 92.95 -4.3 83.2 Q-4.6 74.55 -5.1 69.7 -5.4 66.75 -5.8 64.6 -6.25 62.1 -7.35 58.45 -8.05 56.25 -8.15 52.45 L-8.1 47.2 -7.45 35.3 -6.1 17.95 Q-5.2 15.3 -5.05 11.45 L-5.3 11.25 Q-10.1 7.65 -10.1 4.05 -10.1 -2.2 -2.65 -7.05 -1.4 -8.2 0.55 -8.65 5.6 -10.5 15.3 -10.6 21.8 -10.65 30.9 -10.3 L71.9 -11.8 Q143.15 -11.35 173.85 -10.6 L216.3 -8.65 217.0 -10.3 Q219.6 -14.5 226.45 -12.7 229.85 -11.8 232.75 -10.05 235.9 -10.05 238.0 -8.7 L249.6 -10.2 Q269.75 -12.35 295.75 -12.8 336.5 -13.6 356.15 -13.05 L383.3 -11.3 Q419.85 -8.05 510.25 -8.05 511.8 -8.05 514.05 -8.75 L517.25 -9.8 550.0 -10.3 601.25 -11.05 Q672.35 -11.05 690.3 -9.6 699.4 -8.85 702.95 -7.35 705.2 -6.4 707.25 -3.8 708.65 -2.0 713.3 2.2 715.75 4.45 715.75 7.2 715.75 10.1 713.55 12.45 710.1 16.0 702.75 15.35 L702.15 31.1 Q701.75 41.15 701.75 47.2 L701.75 111.3 Q701.75 169.7 703.75 255.0 705.7 338.4 705.75 388.35 L705.8 388.45 Q706.75 390.3 706.75 391.8 706.75 394.1 705.85 395.7 L-5.2 395.7 -5.2 401.3 M682.4 15.4 L681.5 16.0 682.3 16.15 682.4 15.4 M652.75 379.8 L678.0 380.55 678.0 379.95 652.75 379.8" fill="url(#gradient0)" fill-rule="evenodd" stroke="none"/>
    <path d="M705.85 395.7 L707.85 395.7 707.85 521.1 -5.2 521.1 -5.2 401.3 -5.2 395.7 705.85 395.7" fill="url(#gradient1)" fill-rule="evenodd" stroke="none"/>
  </g>
  <defs>
    <linearGradient gradientTransform="matrix(0.0, 0.1612, -0.4436, 0.0, 352.35, 254.95)" gradientUnits="userSpaceOnUse" id="gradient0" spreadMethod="pad" x1="-819.2" x2="819.2">
      <stop offset="0.0" stop-color="#3086be"/>
      <stop offset="1.0" stop-color="#99dbf7"/>
    </linearGradient>
    <linearGradient gradientTransform="matrix(0.0, -0.0709, 0.4352, 0.0, 351.3, 460.35)" gradientUnits="userSpaceOnUse" id="gradient1" spreadMethod="pad" x1="-819.2" x2="819.2">
      <stop offset="0.0" stop-color="#99dbf7" stop-opacity="0.0"/>
      <stop offset="1.0" stop-color="#99dbf7"/>
    </linearGradient>
  </defs>
</svg>
