<?xml version="1.0" encoding="UTF-8" standalone="no"?>
<svg xmlns:ffdec="https://www.free-decompiler.com/flash" xmlns:xlink="http://www.w3.org/1999/xlink" ffdec:objectType="shape" height="350.0px" width="371.9px" xmlns="http://www.w3.org/2000/svg">
  <g transform="matrix(1.0, 0.0, 0.0, 1.0, 150.6, 8.05)">
    <path d="M46.95 39.25 L46.05 31.7 Q45.35 27.2 44.2 23.95 L40.0 16.8 Q36.15 10.2 36.15 8.65 36.15 7.0 37.1 6.55 37.65 6.25 39.6 6.1 38.75 2.2 38.75 -0.05 38.75 -1.9 39.05 -2.9 39.45 -4.1 40.5 -5.0 44.45 0.55 48.8 10.65 54.55 24.05 56.35 27.4 L63.9 41.9 Q62.25 43.95 60.15 47.15 56.75 52.2 51.8 60.2 L51.8 45.45 Q52.75 42.15 52.8 40.5 52.8 37.75 50.9 35.9 L50.2 36.5 Q49.9 35.8 49.6 35.8 49.2 35.8 46.95 39.25 M42.65 335.8 Q41.4 331.7 41.0 325.3 40.3 315.05 38.55 310.7 L33.25 296.75 27.65 282.0 27.7 281.9 30.4 283.25 34.9 285.15 38.0 286.25 39.4 287.4 39.55 288.0 40.2 288.9 Q41.8 290.15 47.25 290.15 L54.55 290.25 55.1 291.05 Q55.65 291.95 57.05 293.0 58.3 293.9 60.35 294.9 L63.1 296.3 66.95 301.15 Q69.8 304.95 71.35 304.95 72.25 304.95 72.75 304.35 L73.1 303.35 Q73.1 302.7 72.75 302.3 L72.85 302.0 Q73.95 302.7 75.95 304.3 L76.75 304.9 74.2 306.35 Q69.75 309.3 68.3 309.75 65.5 310.6 62.2 313.4 L57.25 317.55 Q55.95 318.4 49.6 326.05 43.3 333.5 42.75 335.8 L42.65 335.8 M19.0 265.85 L18.8 265.7 18.45 266.1 Q18.25 267.35 14.4 263.3 L12.0 259.95 Q10.0 257.0 9.0 256.15 6.65 254.2 3.45 249.45 0.15 244.45 -2.75 241.8 -8.6 236.45 -9.65 234.7 -10.8 232.9 -10.8 228.45 L-10.75 225.9 -10.35 223.75 Q-5.45 223.3 5.2 232.75 9.75 236.8 12.25 239.55 L12.4 245.95 Q12.95 251.85 14.9 255.85 L15.85 258.05 16.6 260.45 Q17.65 263.3 19.55 265.45 L19.0 265.85 M13.35 220.65 L13.5 220.6 13.35 220.65 M17.95 171.55 L14.55 165.2 Q9.95 156.5 6.6 152.4 3.95 149.1 -8.4 137.75 -19.5 127.55 -19.5 126.8 -19.5 125.75 -18.65 125.1 -17.75 124.45 -17.75 123.35 -17.75 122.35 -18.5 121.05 L-17.8 120.65 -15.75 122.95 -14.4 124.2 -13.05 126.3 -8.2 133.7 Q-6.0 136.25 -0.9 139.2 1.5 141.2 3.05 141.65 L4.35 142.0 Q12.95 146.25 16.95 146.3 L17.5 146.7 Q14.4 153.65 14.4 156.35 L15.25 159.4 15.45 160.15 16.15 162.75 Q18.0 167.5 20.45 168.65 L20.4 168.65 19.8 169.7 19.2 170.05 19.1 170.15 18.3 171.35 17.95 171.55 M-17.1 115.45 L-20.05 110.2 Q-21.8 106.7 -22.1 105.0 L-17.95 105.2 -17.75 103.25 -17.55 100.65 -16.1 100.8 -13.5 101.1 Q-9.6 101.1 -8.2 98.3 -7.3 96.55 -7.3 93.05 -7.3 92.0 -8.3 90.4 -9.55 88.5 -9.95 86.5 L-9.85 83.55 Q-9.65 81.65 -9.95 80.65 L-12.15 75.25 Q-14.3 70.1 -14.3 69.2 -14.3 67.85 -13.4 67.5 L-12.55 67.2 Q0.0 74.95 7.35 92.5 L12.9 107.6 Q15.0 113.6 16.8 117.9 L8.85 117.8 -5.35 117.15 -8.0 115.4 Q-10.05 113.8 -10.6 113.7 -14.3 113.55 -16.2 115.25 L-16.7 115.8 -17.1 115.45 M92.65 48.25 L93.0 48.25 93.4 49.75 93.8 49.8 93.8 49.95 Q100.4 48.45 102.75 44.65 L104.3 41.6 104.65 41.0 104.8 39.45 Q104.8 26.35 99.6 12.65 L96.05 4.0 Q94.4 0.15 94.4 -1.3 94.4 -3.45 95.15 -3.95 L95.9 -4.1 Q97.25 -4.15 100.05 -2.35 101.0 -0.9 103.35 1.05 L105.9 3.3 Q107.45 5.3 108.95 10.1 L110.9 17.65 Q112.2 24.05 114.5 32.55 116.1 39.4 116.1 45.95 L116.1 54.15 Q115.6 58.5 113.6 59.75 L111.4 62.6 Q107.4 67.55 106.95 68.45 105.85 70.55 104.85 74.0 L103.65 78.4 103.65 78.45 102.85 78.6 102.85 78.45 95.4 78.75 93.45 78.45 98.8 72.15 Q102.65 67.6 104.0 65.15 L102.3 64.55 99.9 63.9 97.95 63.7 95.6 63.05 92.2 62.55 92.2 62.45 92.15 62.45 90.3 62.4 92.15 62.55 91.95 63.25 88.85 63.45 86.55 63.9 Q86.1 62.55 88.0 57.45 90.0 52.0 90.05 50.3 92.65 49.55 92.65 48.25 M146.55 76.3 Q149.0 74.75 151.9 77.55 L156.55 82.6 Q158.45 86.1 162.55 88.35 165.7 90.15 165.7 92.25 165.7 93.25 164.5 93.75 163.8 94.0 163.15 94.5 L162.95 94.45 Q160.55 93.35 158.05 92.95 153.25 91.6 147.5 90.45 L147.3 87.85 Q147.05 85.3 146.55 84.15 L146.55 76.3 M217.8 272.35 L217.3 272.7 217.25 272.65 217.65 272.35 217.8 272.35 M102.3 47.4 L102.8 47.7 102.6 47.4 102.3 47.4 M18.45 266.1 L18.75 265.65 18.7 265.6 Q18.6 265.5 18.45 266.1 M-128.9 168.4 Q-126.5 161.3 -121.15 156.6 -115.25 151.4 -115.25 161.35 -115.25 166.55 -117.9 176.3 -120.55 186.1 -120.55 196.95 L-119.95 207.0 Q-119.35 214.45 -119.4 218.45 -119.6 231.85 -126.55 231.85 -130.3 231.85 -131.5 228.9 L-131.95 225.6 Q-131.2 199.85 -131.3 187.4 -131.3 175.5 -128.9 168.4" fill="#135320" fill-rule="evenodd" stroke="none"/>
    <path d="M20.45 168.65 L20.4 168.65 20.45 168.65 M72.75 302.3 L72.2 301.75 72.45 301.75 72.85 302.0 72.75 302.3" fill="#10451b" fill-rule="evenodd" stroke="none"/>
    <path d="M27.6 281.85 L26.6 281.25 Q20.5 277.15 20.5 269.95 L20.6 268.0 20.65 267.85 20.85 267.4 19.95 266.05 19.75 265.65 19.55 265.45 Q17.65 263.3 16.6 260.45 L15.85 258.05 14.9 255.85 Q12.95 251.85 12.4 245.95 L12.25 239.55 12.25 238.05 12.2 235.25 12.3 230.55 12.3 227.6 Q12.55 221.7 13.35 220.65 L13.6 220.8 13.5 220.65 13.5 220.6 12.85 218.9 Q10.95 215.5 10.95 214.75 10.95 214.2 12.6 211.35 L13.1 210.45 14.45 208.15 15.35 204.9 16.65 200.25 Q18.2 193.5 18.2 188.0 L17.45 175.55 Q17.45 173.3 18.05 171.8 L18.3 171.35 19.1 170.15 19.2 170.05 19.8 169.7 20.4 168.65 20.45 168.65 Q18.0 167.5 16.15 162.75 L15.45 160.15 15.25 159.4 14.4 156.35 Q14.4 153.65 17.5 146.7 L16.95 146.3 Q12.95 146.25 4.35 142.0 L3.05 141.65 Q1.5 141.2 -0.9 139.2 -6.0 136.25 -8.2 133.7 L-13.05 126.3 -14.4 124.2 -15.75 122.95 -17.8 120.65 -18.3 119.3 Q-18.3 118.65 -17.6 117.55 -17.35 116.55 -16.7 115.8 L-16.2 115.25 Q-14.3 113.55 -10.6 113.7 -10.05 113.8 -8.0 115.4 L-5.35 117.15 8.85 117.8 16.8 117.9 22.45 117.95 Q20.65 115.35 18.95 112.1 15.95 106.6 13.65 100.3 L12.9 98.1 11.35 92.95 10.0 88.6 7.3 82.2 7.25 82.15 6.0 79.55 Q4.15 75.85 3.65 74.15 L0.65 63.2 -2.1 51.9 -1.95 51.7 -1.2 51.55 Q-0.9 51.55 0.45 54.55 L1.35 54.15 Q3.1 55.75 8.05 62.95 12.3 69.25 16.8 72.2 16.7 68.05 16.85 64.35 L16.65 61.5 Q16.65 56.85 17.25 53.2 17.8 49.65 19.3 43.95 L20.05 39.45 20.15 38.9 20.15 38.4 20.15 38.35 20.1 37.8 20.1 37.75 20.1 37.3 20.05 37.1 Q20.05 35.65 20.85 35.25 21.95 34.55 22.65 35.85 L23.1 35.0 25.55 43.45 33.1 70.65 Q33.85 69.65 34.7 67.45 L34.8 66.95 Q36.2 60.65 37.75 56.2 39.0 52.55 44.05 44.1 L46.95 39.25 Q49.2 35.8 49.6 35.8 49.9 35.8 50.2 36.5 L50.9 35.9 Q52.8 37.75 52.8 40.5 52.75 42.15 51.8 45.45 L51.8 60.2 Q56.75 52.2 60.15 47.15 62.25 43.95 63.9 41.9 67.2 37.6 68.75 37.6 L70.7 38.05 70.8 39.2 71.2 38.8 71.75 38.95 Q71.95 39.1 71.95 39.7 L70.85 43.6 70.45 45.2 Q70.2 45.85 70.1 46.4 L70.05 46.55 70.05 60.9 Q72.0 59.9 78.45 54.05 82.2 50.6 85.2 48.8 86.85 47.7 88.3 47.2 L89.55 48.05 Q90.05 48.7 90.05 50.25 L90.05 50.3 Q90.0 52.0 88.0 57.45 86.1 62.55 86.55 63.9 L88.85 63.45 91.95 63.25 92.15 62.55 92.2 62.55 95.6 63.05 97.95 63.7 99.9 63.9 102.3 64.55 104.0 65.15 Q102.65 67.6 98.8 72.15 L93.45 78.45 95.4 78.75 102.85 78.45 102.85 78.6 103.65 78.45 103.65 78.4 Q108.35 77.95 111.95 76.9 115.25 75.95 117.15 74.85 L117.15 75.05 Q116.4 76.05 116.3 77.65 L116.3 80.4 Q116.3 81.15 115.05 83.5 L113.75 85.85 Q113.75 86.6 113.9 86.3 L118.05 86.4 Q121.05 86.4 124.2 85.4 127.5 84.4 128.7 82.95 L128.6 82.85 129.75 82.55 Q131.15 82.1 132.2 81.35 133.05 80.75 134.7 79.95 136.25 79.2 137.4 78.3 L137.9 77.95 142.6 74.5 Q146.1 72.5 146.1 75.55 L146.05 76.2 145.75 76.95 Q145.75 78.8 142.35 82.95 L138.55 88.7 147.5 90.45 Q153.25 91.6 158.05 92.95 160.55 93.35 162.95 94.45 L163.15 94.5 Q169.2 96.5 174.15 99.15 L184.9 104.7 Q193.5 109.3 193.5 110.1 L193.6 110.9 Q193.5 111.3 192.2 111.5 L191.35 111.6 190.6 112.25 181.1 111.95 178.1 111.95 Q185.95 118.8 190.65 123.55 197.3 130.3 200.35 135.3 206.0 144.25 207.25 146.95 L209.95 153.3 211.85 158.3 211.75 159.35 210.3 159.5 Q209.1 159.5 208.3 158.7 L207.4 157.65 207.25 157.65 207.75 158.9 207.8 158.95 210.2 164.6 Q211.9 168.6 212.6 171.2 213.05 173.0 215.95 178.65 L218.6 184.25 218.55 185.3 Q218.6 185.5 217.65 185.5 216.45 185.5 211.05 181.3 L205.05 176.45 204.65 176.5 204.85 176.65 Q207.5 178.9 210.3 192.45 212.95 205.35 212.95 212.85 L212.9 213.7 212.85 213.95 212.2 214.05 Q211.35 214.05 210.6 211.9 L209.9 209.35 208.75 206.8 Q208.1 205.4 206.6 205.05 207.4 208.4 207.6 212.95 L207.7 220.65 207.55 232.85 Q207.15 239.75 205.55 244.7 L205.05 244.9 204.4 244.7 204.3 243.95 204.35 243.55 203.95 243.8 Q203.3 243.5 202.95 242.45 L202.55 240.8 202.4 240.8 202.2 242.9 202.1 243.75 206.65 251.15 209.85 256.1 213.05 261.25 215.25 263.9 Q216.6 265.35 216.7 266.35 216.95 267.45 217.75 269.15 218.6 270.7 218.6 271.35 L218.6 271.5 218.5 272.05 218.4 272.15 218.3 272.15 Q218.8 272.35 217.85 272.35 L217.8 272.35 217.65 272.35 217.0 272.3 217.2 272.6 217.25 272.65 217.3 272.7 221.3 279.45 221.3 335.8 132.65 335.8 133.5 334.05 131.65 335.8 46.05 335.8 44.2 338.0 Q42.9 338.0 42.65 337.1 L42.65 336.25 42.75 335.8 Q43.3 333.5 49.6 326.05 55.95 318.4 57.25 317.55 L62.2 313.4 Q65.5 310.6 68.3 309.75 69.75 309.3 74.2 306.35 L76.75 304.9 75.95 304.3 Q73.95 302.7 72.85 302.0 L72.45 301.75 72.2 301.75 72.75 302.3 Q73.1 302.7 73.1 303.35 L72.75 304.35 Q72.25 304.95 71.35 304.95 69.8 304.95 66.95 301.15 L63.1 296.3 60.35 294.9 Q58.3 293.9 57.05 293.0 55.65 291.95 55.1 291.05 L54.55 290.25 47.25 290.15 Q41.8 290.15 40.2 288.9 L39.55 288.0 39.4 287.4 38.0 286.25 34.9 285.15 30.4 283.25 27.7 281.9 27.6 281.85 M176.0 122.65 L177.0 123.25 176.35 122.75 176.0 122.65 M184.15 170.0 L184.0 170.1 Q184.65 171.35 185.05 171.6 L184.15 170.0 M179.2 156.1 L178.85 155.4 178.85 155.6 179.4 157.1 179.5 157.05 179.2 156.1 M197.95 184.35 L197.95 184.3 197.7 184.35 197.95 184.35 M209.95 157.45 L209.7 157.7 209.9 157.85 209.95 157.45 M86.15 78.0 L86.15 77.95 86.25 77.8 86.05 77.15 86.0 77.1 86.15 78.0 M83.8 83.15 L84.0 82.75 83.7 83.15 83.8 83.15 M129.0 86.1 L129.05 86.2 129.05 86.1 129.0 86.1 M137.45 98.8 L139.0 99.75 Q138.1 98.5 137.4 98.65 L137.45 98.8 M40.1 63.0 L40.4 61.65 40.0 62.9 40.1 63.0 M5.45 66.1 L5.3 65.95 5.15 65.75 5.25 65.95 5.3 66.15 6.35 69.3 6.95 69.1 7.35 68.85 5.45 66.1 M35.9 79.9 L35.8 80.0 36.0 80.7 35.9 79.9 M34.75 84.15 L34.95 84.5 Q35.2 83.3 34.75 82.65 L34.75 84.15 M20.45 82.2 L20.45 82.45 20.35 82.6 Q20.3 82.8 19.8 82.8 L21.55 85.5 21.2 84.7 20.45 82.2 M36.75 86.4 L37.15 86.35 36.65 83.8 36.6 83.65 36.6 83.8 36.75 86.4 M67.6 70.6 L67.55 70.55 67.45 70.5 67.65 70.7 67.85 70.75 67.6 70.6 M75.75 62.3 L73.3 64.8 Q74.55 64.0 75.85 62.2 L75.75 62.3 M51.35 69.2 L51.65 69.25 51.65 68.75 51.6 68.75 51.35 69.2 M59.0 91.85 L60.25 90.8 60.2 90.7 Q59.45 91.05 59.0 91.85 M58.25 95.85 L58.25 95.9 57.9 97.0 58.45 96.0 58.3 95.8 58.25 95.85 M74.65 79.95 L70.85 85.6 Q72.15 84.55 73.1 84.55 L73.15 84.6 76.05 81.95 74.75 80.35 74.65 79.95 M43.15 103.75 L42.7 104.0 43.9 105.65 44.15 106.05 44.2 105.9 44.9 105.75 45.05 105.9 Q44.5 104.2 44.15 104.2 43.35 104.2 43.15 103.75 M46.0 106.7 L45.65 106.85 46.0 107.45 46.2 107.35 46.0 106.7 M50.6 112.75 L50.6 112.8 50.85 112.1 50.6 112.75 M58.9 117.4 L58.9 117.45 58.9 117.65 59.05 117.8 59.3 117.8 59.1 117.6 58.9 117.4 M60.25 115.85 L59.75 115.95 60.3 115.9 60.25 115.85 M90.15 138.35 L90.15 138.4 91.5 138.15 93.8 137.9 95.5 137.75 95.9 137.75 98.7 137.5 Q97.4 132.95 91.5 129.1 86.5 125.85 83.55 125.85 78.95 125.85 74.7 134.1 L74.4 134.7 73.95 135.55 73.85 135.85 73.85 136.4 73.45 136.7 73.4 136.7 73.2 137.15 71.85 140.7 71.7 141.05 71.6 142.05 71.6 142.4 71.25 142.4 71.25 142.55 71.4 143.2 72.9 143.95 73.5 143.9 74.05 143.85 74.35 143.8 Q75.35 142.7 78.25 141.45 L80.6 140.6 Q84.85 139.1 90.15 138.35 M33.25 105.05 L33.05 105.05 33.25 105.05 M25.9 114.05 L25.65 113.7 24.75 112.2 25.55 113.8 25.7 114.1 25.9 114.05 M24.35 120.6 Q24.3 120.6 24.2 120.7 L24.45 120.7 24.35 120.6 M3.1 131.1 L3.25 131.3 3.45 131.1 3.1 131.1 M19.05 143.4 L19.1 143.35 18.95 143.25 19.05 143.4 M27.25 155.1 L26.95 156.2 26.8 157.5 Q29.0 155.65 31.95 155.4 L32.8 155.2 34.35 154.85 32.9 153.8 Q29.2 151.1 28.1 150.75 L28.05 150.75 27.95 150.7 27.85 150.7 27.8 150.7 27.7 150.7 27.5 150.7 27.3 150.7 27.15 150.7 27.05 150.7 25.85 151.15 Q25.75 151.15 25.7 151.25 L25.65 151.3 24.95 152.05 Q24.3 152.95 24.25 154.5 24.05 156.45 24.6 158.85 L24.6 159.65 24.7 159.8 25.55 158.7 26.0 157.55 26.1 154.3 Q26.2 153.6 26.75 152.65 26.6 153.0 26.6 153.55 L26.8 154.55 27.25 155.1 M19.5 152.7 L19.7 152.8 19.7 152.25 19.5 152.7 M21.45 192.6 L21.65 192.6 21.65 192.55 21.65 191.55 21.5 192.5 21.45 192.6 M145.85 149.1 L145.75 149.2 145.95 149.2 145.85 149.1 M145.5 167.3 Q145.8 168.05 146.5 168.6 L145.5 167.25 145.5 167.3 M89.9 292.2 L91.85 297.95 92.85 301.0 93.05 300.8 91.75 295.65 89.9 292.05 89.9 292.2 M94.7 285.45 L95.3 288.4 95.35 288.3 96.05 287.5 96.0 286.05 95.95 285.95 95.4 285.0 94.7 285.45 M96.15 292.65 L96.15 292.0 96.05 291.9 96.0 291.85 96.15 292.65 96.0 292.65 96.15 292.65 M151.75 275.45 L151.95 275.55 152.0 275.5 151.75 275.45 M145.15 296.8 L145.0 297.05 145.2 296.95 145.15 296.8 M57.6 198.5 L57.2 198.8 57.25 199.25 57.6 198.5 M43.75 226.75 L43.65 226.85 43.8 226.8 43.75 226.75 M69.15 287.65 L69.5 287.35 68.95 287.45 69.15 287.65 M76.9 309.8 L76.95 309.65 76.85 309.75 76.9 309.8 M72.75 310.05 L74.25 309.2 73.2 309.75 72.75 310.05 M130.5 333.3 L130.65 333.25 130.65 333.1 130.5 333.3 M147.4 298.85 L147.25 299.0 147.35 299.1 147.4 298.85 M119.75 306.4 L119.8 306.45 119.95 306.2 119.75 306.4 M102.8 308.45 L102.75 307.0 102.05 309.15 102.4 310.6 102.85 312.6 103.1 312.6 103.1 312.4 102.8 308.45 M105.8 309.0 L105.85 308.8 105.8 308.6 105.8 309.0 M102.25 318.8 Q101.35 315.85 100.9 315.4 L101.5 319.9 101.7 321.75 102.8 320.0 102.25 318.8 M97.0 306.35 L94.3 300.7 94.3 300.65 94.55 301.5 96.35 308.15 97.0 306.75 97.0 306.35 M97.8 314.25 L98.3 314.75 98.15 314.1 97.8 314.25 M100.5 325.4 L100.55 325.5 100.65 325.4 100.5 325.4 M179.5 202.45 L179.15 201.7 178.0 199.75 178.95 201.7 179.85 204.0 179.95 204.25 179.9 204.0 179.85 203.95 179.5 202.45 M196.65 231.25 L196.75 231.55 196.8 231.55 196.65 231.25 M197.55 227.45 L197.55 227.6 197.7 227.65 197.55 227.45 M200.7 240.7 L200.55 240.7 200.7 240.95 200.7 240.7 M-11.2 121.55 L-11.0 121.1 -11.75 120.85 -11.2 121.55 M-3.55 130.2 L-3.45 130.2 -3.75 130.15 -3.55 130.2 M-6.25 128.3 L-6.25 128.25 -6.25 128.3" fill="#000000" fill-rule="evenodd" stroke="none"/>
    <path d="M176.0 122.65 L176.35 122.75 177.0 123.25 176.0 122.65 M197.95 184.35 L197.7 184.35 197.95 184.3 197.95 184.35 M6.95 69.1 L6.35 69.3 5.3 66.15 5.25 65.95 5.15 65.75 5.3 65.95 5.45 66.1 6.95 69.1 M35.9 79.9 L36.0 80.7 35.8 80.0 35.9 79.9 M34.75 84.15 L34.75 82.65 Q35.2 83.3 34.95 84.5 L34.75 84.15 M36.75 86.4 L36.6 83.8 36.6 83.65 36.65 83.8 37.15 86.35 36.75 86.4 M20.45 82.2 L21.2 84.7 21.55 85.5 19.8 82.8 Q20.3 82.8 20.35 82.6 L20.45 82.45 20.45 82.2 M67.65 70.7 L67.6 70.6 67.85 70.75 67.65 70.7 M75.75 62.3 L75.85 62.2 Q74.55 64.0 73.3 64.8 L75.75 62.3 M51.65 68.75 L51.35 69.2 51.6 68.75 51.65 68.75 M59.0 91.85 Q59.45 91.05 60.2 90.7 L60.25 90.8 59.0 91.85 M46.0 106.7 L46.2 107.35 46.0 107.45 45.65 106.85 46.0 106.7 M33.25 105.05 L33.05 105.05 33.25 105.05 M197.55 227.45 L197.7 227.65 197.55 227.6 197.55 227.45 M196.65 231.25 L196.8 231.55 196.75 231.55 196.65 231.25" fill="#11131a" fill-rule="evenodd" stroke="none"/>
    <path d="M179.2 156.1 L179.5 157.05 179.4 157.1 178.85 155.6 178.85 155.4 179.2 156.1 M184.15 170.0 L185.05 171.6 Q184.65 171.35 184.0 170.1 L184.15 170.0 M129.0 86.1 L129.05 86.1 129.05 86.2 129.0 86.1 M137.45 98.8 L137.4 98.65 Q138.1 98.5 139.0 99.75 L137.45 98.8 M5.45 66.1 L7.35 68.85 6.95 69.1 5.45 66.1 M67.65 70.7 L67.45 70.5 67.55 70.55 67.6 70.6 67.65 70.7 M51.65 68.75 L51.65 69.25 51.35 69.2 51.65 68.75 M43.15 103.75 Q43.35 104.2 44.15 104.2 44.5 104.2 45.05 105.9 L44.9 105.75 44.2 105.9 44.15 106.05 43.9 105.65 42.7 104.0 43.15 103.75 M50.6 112.75 L50.85 112.1 50.6 112.8 50.6 112.75 M96.15 292.65 L96.0 292.65 96.15 292.65 M69.15 287.65 L68.95 287.45 69.5 287.35 69.15 287.65 M102.4 310.6 L102.4 310.55 102.45 310.35 Q102.45 309.5 102.8 308.45 L103.1 312.4 103.1 312.6 102.85 312.6 102.4 310.6" fill="#0c0e12" fill-rule="evenodd" stroke="none"/>
    <path d="M86.15 78.0 L86.0 77.1 86.05 77.15 86.25 77.8 86.15 77.95 86.15 78.0 M83.8 83.15 L83.7 83.15 84.0 82.75 83.8 83.15 M74.65 79.95 L74.75 80.35 76.05 81.95 73.15 84.6 73.1 84.55 Q72.15 84.55 70.85 85.6 L74.65 79.95 M96.15 292.65 L96.0 291.85 96.05 291.9 96.15 292.0 96.15 292.65 M94.7 285.45 L95.4 285.0 95.95 285.95 96.0 286.05 96.05 287.5 95.35 288.3 95.3 288.4 94.7 285.45 M89.9 292.2 L89.9 292.05 91.75 295.65 93.05 300.8 92.85 301.0 91.85 297.95 89.9 292.2 M102.4 310.6 L102.05 309.15 102.75 307.0 102.8 308.45 Q102.45 309.5 102.45 310.35 L102.4 310.55 102.4 310.6 M97.8 314.25 L98.15 314.1 98.3 314.75 97.8 314.25 M97.0 306.35 L97.0 306.75 96.35 308.15 94.55 301.5 94.3 300.65 94.3 300.7 97.0 306.35" fill="#07090c" fill-rule="evenodd" stroke="none"/>
    <path d="M179.5 202.45 L179.85 203.95 179.9 204.0 179.95 204.25 179.85 204.0 178.95 201.7 178.0 199.75 179.15 201.7 179.5 202.45" fill="#161a23" fill-rule="evenodd" stroke="none"/>
    <path d="M132.65 335.8 L131.65 335.8 133.5 334.05 132.65 335.8 M58.25 95.85 L58.45 96.0 57.9 97.0 58.25 95.9 58.25 95.85 M145.15 296.8 L145.2 296.95 145.0 297.05 145.15 296.8 M151.75 275.45 L152.0 275.5 151.95 275.55 151.75 275.45 M147.4 298.85 L147.35 299.1 147.25 299.0 147.4 298.85 M130.5 333.3 L130.65 333.1 130.65 333.25 130.5 333.3 M105.8 309.0 L105.8 308.6 105.85 308.8 105.8 309.0 M102.25 318.8 L102.8 320.0 101.7 321.75 101.5 319.9 100.9 315.4 Q101.35 315.85 102.25 318.8" fill="#1c202b" fill-rule="evenodd" stroke="none"/>
    <path d="M146.05 76.2 L146.55 76.3 146.55 84.15 Q147.05 85.3 147.3 87.85 L147.5 90.45 138.55 88.7 142.35 82.95 Q145.75 78.8 145.75 76.95 L146.05 76.2 M208.3 158.7 L207.8 158.95 207.75 158.9 208.3 158.7 M119.3 75.0 L120.8 77.5 120.35 76.85 119.3 75.0 M24.35 120.6 L24.45 120.7 24.2 120.7 Q24.3 120.6 24.35 120.6 M13.5 220.6 L13.5 220.65 13.6 220.8 13.35 220.65 13.5 220.6 M18.45 266.1 Q18.6 265.5 18.7 265.6 L18.75 265.65 18.45 266.1" fill="#003300" fill-rule="evenodd" stroke="none"/>
    <path d="M40.5 -5.0 Q39.45 -4.1 39.05 -2.9 38.75 -1.9 38.75 -0.05 38.75 2.2 39.6 6.1 37.65 6.25 37.1 6.55 36.15 7.0 36.15 8.65 36.15 10.2 40.0 16.8 L44.2 23.95 Q45.35 27.2 46.05 31.7 L46.95 39.25 44.05 44.1 Q39.0 52.55 37.75 56.2 36.2 60.65 34.8 66.95 L34.7 67.45 Q33.85 69.65 33.1 70.65 L25.55 43.45 Q29.2 46.3 30.5 46.3 31.75 46.3 33.1 43.7 34.4 41.15 34.4 38.8 34.4 36.95 32.7 29.6 L30.95 22.2 Q29.6 15.5 28.55 13.0 26.45 8.1 22.25 6.3 20.75 7.2 20.05 9.45 19.65 10.65 19.4 13.05 18.35 11.4 17.05 8.65 15.75 6.75 12.9 6.75 L12.7 7.7 12.65 9.5 Q12.65 10.9 12.95 11.95 L13.55 13.7 Q12.65 13.5 11.85 14.1 10.95 14.8 9.85 14.8 L6.1 11.9 Q2.55 8.95 2.25 8.95 0.9 8.95 0.65 9.35 L0.5 9.8 Q-0.1 12.25 1.35 15.15 3.0 18.65 3.1 19.6 3.3 22.1 4.65 24.6 6.1 27.5 8.3 28.7 9.7 29.45 19.55 38.35 L20.15 38.9 20.05 39.45 19.3 43.95 Q17.8 49.65 17.25 53.2 16.65 56.85 16.65 61.5 L16.85 64.35 Q16.7 68.05 16.8 72.2 12.3 69.25 8.05 62.95 3.1 55.75 1.35 54.15 L0.45 54.55 Q-0.9 51.55 -1.2 51.55 L-1.95 51.7 -2.1 51.9 0.65 63.2 3.65 74.15 Q4.15 75.85 6.0 79.55 L7.25 82.15 7.3 82.2 10.0 88.6 11.35 92.95 12.9 98.1 13.65 100.3 Q15.95 106.6 18.95 112.1 20.65 115.35 22.45 117.95 L16.8 117.9 Q15.0 113.6 12.9 107.6 L7.35 92.5 Q0.0 74.95 -12.55 67.2 L-13.4 67.5 Q-14.3 67.85 -14.3 69.2 -14.3 70.1 -12.15 75.25 L-9.95 80.65 Q-9.65 81.65 -9.85 83.55 L-9.95 86.5 Q-9.55 88.5 -8.3 90.4 -7.3 92.0 -7.3 93.05 -7.3 96.55 -8.2 98.3 -9.6 101.1 -13.5 101.1 L-16.1 100.8 -17.55 100.65 -17.75 103.25 -17.95 105.2 -22.1 105.0 Q-21.8 106.7 -20.05 110.2 L-17.1 115.45 -19.3 115.8 Q-20.35 116.1 -20.35 117.45 -20.35 118.1 -19.05 120.1 L-18.5 121.05 Q-17.75 122.35 -17.75 123.35 -17.75 124.45 -18.65 125.1 -19.5 125.75 -19.5 126.8 -19.5 127.55 -8.4 137.75 3.95 149.1 6.6 152.4 9.95 156.5 14.55 165.2 L17.95 171.55 18.05 171.8 Q17.45 173.3 17.45 175.55 L18.2 188.0 Q18.2 193.5 16.65 200.25 L14.55 195.15 Q11.1 187.45 6.3 180.0 -6.2 160.65 -14.3 163.25 L-14.3 165.2 -11.35 168.05 Q-10.8 168.7 -10.8 169.85 -10.8 172.7 -11.3 175.35 L-11.75 178.6 Q-11.65 181.45 -6.0 190.95 -2.3 197.25 2.95 203.5 9.45 211.25 12.6 211.35 10.95 214.2 10.95 214.75 10.95 215.5 12.85 218.9 L13.5 220.6 13.35 220.65 Q12.55 221.7 12.3 227.6 L12.3 230.55 12.2 235.25 12.25 238.05 12.25 239.55 Q9.75 236.8 5.2 232.75 -5.45 223.3 -10.35 223.75 L-10.75 225.9 -10.8 228.45 Q-10.8 232.9 -9.65 234.7 -8.6 236.45 -2.75 241.8 0.15 244.45 3.45 249.45 6.65 254.2 9.0 256.15 10.0 257.0 12.0 259.95 L14.4 263.3 Q18.25 267.35 18.45 266.1 L18.8 265.7 19.0 265.85 20.5 267.65 20.65 267.85 20.6 268.0 20.5 269.95 Q20.5 277.15 26.6 281.25 L27.6 281.85 27.65 282.0 33.25 296.75 38.55 310.7 Q40.3 315.05 41.0 325.3 41.4 331.7 42.65 335.8 L1.5 335.8 Q-1.8 333.75 -3.0 333.05 L-7.3 331.1 Q-10.45 329.7 -11.45 328.7 L-12.45 326.45 Q-13.35 324.25 -14.05 323.5 -15.05 322.5 -20.3 319.75 L-22.95 318.05 -22.95 16.15 -21.0 13.95 Q-11.0 2.95 0.85 -5.0 L40.5 -5.0 221.3 -5.0 221.3 279.45 217.3 272.7 217.8 272.35 217.85 272.35 Q218.8 272.35 218.3 272.15 L218.4 272.15 218.5 272.05 218.6 271.5 218.6 271.35 Q218.6 270.7 217.75 269.15 216.95 267.45 216.7 266.35 216.6 265.35 215.25 263.9 L213.05 261.25 209.85 256.1 206.65 251.15 202.1 243.75 202.2 242.9 202.4 240.8 202.55 240.8 202.95 242.45 Q203.3 243.5 203.95 243.8 L204.35 243.55 204.3 243.95 204.4 244.7 205.05 244.9 205.55 244.7 Q207.15 239.75 207.55 232.85 L207.7 220.65 207.6 212.95 Q207.4 208.4 206.6 205.05 208.1 205.4 208.75 206.8 L209.9 209.35 210.6 211.9 Q211.35 214.05 212.2 214.05 L212.85 213.95 212.9 213.7 212.95 212.85 Q212.95 205.35 210.3 192.45 207.5 178.9 204.85 176.65 L205.05 176.45 211.05 181.3 Q216.45 185.5 217.65 185.5 218.6 185.5 218.55 185.3 L218.6 184.25 215.95 178.65 Q213.05 173.0 212.6 171.2 211.9 168.6 210.2 164.6 L207.8 158.95 208.3 158.7 Q209.1 159.5 210.3 159.5 L211.75 159.35 211.85 158.3 209.95 153.3 207.25 146.95 Q206.0 144.25 200.35 135.3 197.3 130.3 190.65 123.55 185.95 118.8 178.1 111.95 L181.1 111.95 190.6 112.25 191.35 111.6 192.2 111.5 Q193.5 111.3 193.6 110.9 L193.5 110.1 Q193.5 109.3 184.9 104.7 L174.15 99.15 Q169.2 96.5 163.15 94.5 163.8 94.0 164.5 93.75 165.7 93.25 165.7 92.25 165.7 90.15 162.55 88.35 158.45 86.1 156.55 82.6 L151.9 77.55 Q149.0 74.75 146.55 76.3 L146.05 76.2 146.1 75.55 Q146.1 72.5 142.6 74.5 L137.9 77.95 137.0 74.85 133.95 66.75 127.5 58.0 Q123.75 53.35 119.6 53.7 L119.6 58.25 121.75 66.05 Q123.05 70.7 124.15 73.25 125.75 77.05 129.75 82.55 L128.6 82.85 128.7 82.95 Q127.5 84.4 124.2 85.4 121.05 86.4 118.05 86.4 L113.9 86.3 Q113.75 86.6 113.75 85.85 L115.05 83.5 Q116.3 81.15 116.3 80.4 L116.3 77.65 Q116.4 76.05 117.15 75.05 L117.15 74.85 Q115.25 75.95 111.95 76.9 108.35 77.95 103.65 78.4 L104.85 74.0 Q105.85 70.55 106.95 68.45 107.4 67.55 111.4 62.6 L113.6 59.75 Q115.6 58.5 116.1 54.15 L116.1 45.95 Q116.1 39.4 114.5 32.55 112.2 24.05 110.9 17.65 L108.95 10.1 Q107.45 5.3 105.9 3.3 L103.35 1.05 Q101.0 -0.9 100.05 -2.35 97.25 -4.15 95.9 -4.1 L95.15 -3.95 Q94.4 -3.45 94.4 -1.3 94.4 0.15 96.05 4.0 L99.6 12.65 Q104.8 26.35 104.8 39.45 L104.65 41.0 104.3 41.6 102.75 44.65 Q100.4 48.45 93.8 49.95 L93.8 49.8 93.4 49.75 93.0 48.25 92.65 48.25 Q92.65 47.75 91.75 46.7 L91.8 45.0 Q91.8 36.6 80.9 20.9 78.25 14.85 71.35 9.6 63.9 3.95 62.0 8.7 61.15 8.15 60.0 8.0 L58.1 8.05 Q58.0 8.3 57.9 8.15 L57.9 9.35 Q57.9 13.95 61.4 20.2 61.9 21.9 62.8 23.85 64.4 27.65 67.65 33.25 68.5 34.75 77.35 42.45 L85.2 48.8 Q82.2 50.6 78.45 54.05 72.0 59.9 70.05 60.9 L70.05 46.55 70.1 46.4 Q70.2 45.85 70.45 45.2 L70.85 43.6 71.95 39.7 Q71.95 39.1 71.75 38.95 L71.2 38.8 70.8 39.2 70.7 38.05 68.75 37.6 Q67.2 37.6 63.9 41.9 L56.35 27.4 Q54.55 24.05 48.8 10.65 44.45 0.55 40.5 -5.0 M92.15 62.55 L90.3 62.4 92.15 62.45 92.2 62.45 92.2 62.55 92.15 62.55 M122.2 18.2 Q122.2 25.9 124.3 34.65 126.4 43.4 129.8 50.45 L131.55 54.4 Q132.75 57.1 134.1 58.9 137.85 64.35 144.6 65.85 149.15 66.85 152.65 72.2 L157.0 79.35 Q158.95 78.65 159.4 76.9 159.6 76.3 159.6 73.9 159.6 69.85 154.5 56.5 150.15 45.15 148.7 42.6 L138.5 26.3 Q136.4 23.2 132.65 18.65 127.45 12.4 125.7 12.4 122.7 12.4 122.25 13.95 L122.2 18.2 M119.3 75.0 L120.35 76.85 120.8 77.5 119.3 75.0 M20.15 38.35 L20.15 38.4 19.55 38.35 20.15 38.35 M25.3 290.45 Q23.8 287.95 20.3 283.45 L13.95 276.15 Q9.3 272.15 5.0 271.0 -0.35 269.55 -0.35 274.5 -0.35 276.4 3.35 286.9 6.65 296.2 7.9 298.95 9.5 302.75 15.05 311.35 15.6 312.15 23.3 317.05 30.85 321.75 31.35 321.75 L33.05 321.45 33.3 321.1 33.5 320.45 33.55 319.15 Q33.55 317.55 32.0 312.0 30.6 306.9 30.95 304.8 31.3 302.4 29.05 297.6 L25.3 290.45 M-138.2 194.45 Q-139.25 218.65 -139.25 228.55 -139.25 230.9 -140.05 232.55 -141.4 235.3 -144.6 235.3 -149.65 235.3 -150.6 226.3 L-150.6 217.25 -150.2 203.15 -149.4 181.25 -149.45 172.25 Q-149.4 166.9 -147.85 163.2 -144.7 153.1 -140.75 154.55 -139.25 155.1 -138.2 157.35 -137.2 159.5 -137.2 162.0 -137.2 170.25 -138.2 194.45" fill="#186727" fill-rule="evenodd" stroke="none"/>
    <path d="M145.5 167.3 L145.5 167.25 146.5 168.6 Q145.8 168.05 145.5 167.3 M76.9 309.8 L76.85 309.75 76.95 309.65 76.9 309.8 M119.75 306.4 L119.95 306.2 119.8 306.45 119.75 306.4 M100.5 325.4 L100.65 325.4 100.55 325.5 100.5 325.4 M-11.2 121.55 L-11.75 120.85 -11.0 121.1 -11.2 121.55" fill="#242939" fill-rule="evenodd" stroke="none"/>
    <path d="M102.3 47.4 L102.6 47.4 102.8 47.7 102.3 47.4 M19.05 143.4 L18.95 143.25 19.1 143.35 19.05 143.4 M21.45 192.6 L21.5 192.5 21.65 191.55 21.65 192.55 21.65 192.6 21.45 192.6 M-6.25 128.3 L-6.25 128.25 -6.25 128.3 M-3.55 130.2 L-3.75 130.15 -3.45 130.2 -3.55 130.2" fill="#625067" fill-rule="evenodd" stroke="none"/>
    <path d="M3.1 131.1 L3.45 131.1 3.25 131.3 3.1 131.1 M43.75 226.75 L43.8 226.8 43.65 226.85 43.75 226.75" fill="#514255" fill-rule="evenodd" stroke="none"/>
    <path d="M20.15 38.9 L19.55 38.35 20.15 38.4 20.15 38.9 M217.65 272.35 L217.25 272.65 217.2 272.6 217.65 272.35" fill="#006600" fill-rule="evenodd" stroke="none"/>
    <path d="M40.1 63.0 L40.0 62.9 40.4 61.65 40.1 63.0 M25.9 114.05 L25.7 114.1 25.55 113.8 24.75 112.2 25.65 113.7 25.9 114.05" fill="#1c1f2b" fill-rule="evenodd" stroke="none"/>
    <path d="M60.25 115.85 L60.3 115.9 59.75 115.95 60.25 115.85 M58.9 117.4 L59.1 117.6 59.3 117.8 59.05 117.8 58.9 117.65 58.9 117.45 58.9 117.4 M19.5 152.7 L19.7 152.25 19.7 152.8 19.5 152.7" fill="#3e4762" fill-rule="evenodd" stroke="none"/>
    <path d="M27.65 282.0 L27.6 281.85 27.7 281.9 27.65 282.0 M20.65 267.85 L20.5 267.65 19.0 265.85 19.55 265.45 19.75 265.65 19.95 266.05 20.85 267.4 20.65 267.85 M18.05 171.8 L17.95 171.55 18.3 171.35 18.05 171.8 M-18.5 121.05 L-19.05 120.1 Q-20.35 118.1 -20.35 117.45 -20.35 116.1 -19.3 115.8 L-17.1 115.45 -16.7 115.8 Q-17.35 116.55 -17.6 117.55 -18.3 118.65 -18.3 119.3 L-17.8 120.65 -18.5 121.05 M72.75 310.05 L73.2 309.75 74.25 309.2 72.75 310.05" fill="#001e00" fill-rule="evenodd" stroke="none"/>
    <path d="M57.6 198.5 L57.25 199.25 57.2 198.8 57.6 198.5" fill="#2c232e" fill-rule="evenodd" stroke="none"/>
    <path d="M12.6 211.35 Q9.45 211.25 2.95 203.5 -2.3 197.25 -6.0 190.95 -11.65 181.45 -11.75 178.6 L-11.3 175.35 Q-10.8 172.7 -10.8 169.85 -10.8 168.7 -11.35 168.05 L-14.3 165.2 -14.3 163.25 Q-6.2 160.65 6.3 180.0 11.1 187.45 14.55 195.15 L16.65 200.25 15.35 204.9 14.45 208.15 13.1 210.45 12.6 211.35 M19.55 38.35 Q9.7 29.45 8.3 28.7 6.1 27.5 4.65 24.6 3.3 22.1 3.1 19.6 3.0 18.65 1.35 15.15 -0.1 12.25 0.5 9.8 L0.65 9.35 Q0.9 8.95 2.25 8.95 2.55 8.95 6.1 11.9 L9.85 14.8 Q10.95 14.8 11.85 14.1 12.65 13.5 13.55 13.7 L12.95 11.95 Q12.65 10.9 12.65 9.5 L12.7 7.7 12.9 6.75 Q15.75 6.75 17.05 8.65 18.35 11.4 19.4 13.05 19.65 10.65 20.05 9.45 20.75 7.2 22.25 6.3 26.45 8.1 28.55 13.0 29.6 15.5 30.95 22.2 L32.7 29.6 Q34.4 36.95 34.4 38.8 34.4 41.15 33.1 43.7 31.75 46.3 30.5 46.3 29.2 46.3 25.55 43.45 L23.1 35.0 22.65 35.85 Q21.95 34.55 20.85 35.25 20.05 35.65 20.05 37.1 L20.1 37.3 20.1 37.75 20.1 37.8 20.15 38.35 19.55 38.35 M92.65 48.25 Q92.65 49.55 90.05 50.3 L90.05 50.25 Q90.05 48.7 89.55 48.05 L88.3 47.2 Q86.85 47.7 85.2 48.8 L77.35 42.45 Q68.5 34.75 67.65 33.25 64.4 27.65 62.8 23.85 61.9 21.9 61.4 20.2 57.9 13.95 57.9 9.35 L57.9 8.15 Q58.0 8.3 58.1 8.05 L60.0 8.0 Q61.15 8.15 62.0 8.7 63.9 3.95 71.35 9.6 78.25 14.85 80.9 20.9 91.8 36.6 91.8 45.0 L91.75 46.7 Q92.65 47.75 92.65 48.25 M129.75 82.55 Q125.75 77.05 124.15 73.25 123.05 70.7 121.75 66.05 L119.6 58.25 119.6 53.7 Q123.75 53.35 127.5 58.0 L133.95 66.75 137.0 74.85 137.9 77.95 137.4 78.3 Q136.25 79.2 134.7 79.95 133.05 80.75 132.2 81.35 131.15 82.1 129.75 82.55 M122.2 18.2 L122.25 13.95 Q122.7 12.4 125.7 12.4 127.45 12.4 132.65 18.65 136.4 23.2 138.5 26.3 L148.7 42.6 Q150.15 45.15 154.5 56.5 159.6 69.85 159.6 73.9 159.6 76.3 159.4 76.9 158.95 78.65 157.0 79.35 L152.65 72.2 Q149.15 66.85 144.6 65.85 137.85 64.35 134.1 58.9 132.75 57.1 131.55 54.4 L129.8 50.45 Q126.4 43.4 124.3 34.65 122.2 25.9 122.2 18.2 M25.3 290.45 L29.05 297.6 Q31.3 302.4 30.95 304.8 30.6 306.9 32.0 312.0 33.55 317.55 33.55 319.15 L33.5 320.45 33.3 321.1 33.05 321.45 31.35 321.75 Q30.85 321.75 23.3 317.05 15.6 312.15 15.05 311.35 9.5 302.75 7.9 298.95 6.65 296.2 3.35 286.9 -0.35 276.4 -0.35 274.5 -0.35 269.55 5.0 271.0 9.3 272.15 13.95 276.15 L20.3 283.45 Q23.8 287.95 25.3 290.45" fill="#24973a" fill-rule="evenodd" stroke="none"/>
    <path d="M95.5 137.75 L93.85 135.75 91.2 132.85 87.9 130.85 Q84.85 129.25 83.2 129.25 78.2 129.25 75.7 137.1 L74.15 142.4 73.5 143.9 72.9 143.95 71.4 143.2 71.25 142.55 71.25 142.4 71.6 142.4 71.6 142.05 71.7 141.05 71.85 140.7 73.2 137.15 73.4 136.7 73.45 136.7 73.85 136.4 73.85 135.85 73.95 135.55 74.4 134.7 74.7 134.1 Q78.95 125.85 83.55 125.85 86.5 125.85 91.5 129.1 97.4 132.95 98.7 137.5 L95.9 137.75 95.5 137.75 M28.1 150.75 L26.95 152.25 26.75 152.65 Q26.2 153.6 26.1 154.3 L26.0 157.55 25.55 158.7 24.7 159.8 24.6 159.65 24.6 158.85 Q24.05 156.45 24.25 154.5 24.3 152.95 24.95 152.05 L25.65 151.3 25.7 151.25 Q25.75 151.15 25.85 151.15 L27.05 150.7 27.15 150.7 27.3 150.7 27.5 150.7 27.7 150.7 27.8 150.7 27.85 150.7 27.95 150.7 28.05 150.75 28.1 150.75" fill="#666666" fill-rule="evenodd" stroke="none"/>
    <path d="M80.1 134.1 L80.05 134.0 Q80.05 132.1 81.85 131.75 82.5 131.0 83.95 131.15 86.25 131.4 86.5 133.2 L86.55 133.7 Q86.55 134.7 85.75 135.45 84.95 136.3 84.0 136.3 L82.65 136.75 Q80.85 136.75 80.25 135.2 L80.1 134.1 M30.05 153.3 L30.05 153.35 30.05 153.55 Q30.05 154.25 29.6 154.75 29.15 155.4 28.3 155.4 L27.25 155.1 26.8 154.55 26.6 153.55 Q26.6 153.0 26.75 152.65 L26.95 152.25 Q27.4 151.75 28.3 151.85 L28.7 151.95 29.65 152.15 29.9 152.4 30.05 153.25 30.05 153.3" fill="#ffffff" fill-rule="evenodd" stroke="none"/>
    <path d="M86.5 133.2 Q88.5 133.85 89.4 136.5 L90.15 138.35 Q84.85 139.1 80.6 140.6 L78.25 141.45 78.0 140.6 77.6 138.9 Q77.4 137.4 78.2 135.9 78.85 134.75 80.1 134.1 L80.25 135.2 Q80.85 136.75 82.65 136.75 L84.0 136.3 Q84.95 136.3 85.75 135.45 86.55 134.7 86.55 133.7 L86.5 133.2 M30.05 153.3 L31.9 154.55 32.8 155.2 31.95 155.4 Q29.0 155.65 26.8 157.5 L26.95 156.2 27.25 155.1 28.3 155.4 Q29.15 155.4 29.6 154.75 30.05 154.25 30.05 153.55 L30.05 153.35 30.05 153.3" fill="#cccccc" fill-rule="evenodd" stroke="none"/>
    <path d="M86.5 133.2 Q86.25 131.4 83.95 131.15 82.5 131.0 81.85 131.75 80.05 132.1 80.05 134.0 L80.1 134.1 Q78.85 134.75 78.2 135.9 77.4 137.4 77.6 138.9 L78.0 140.6 78.25 141.45 Q75.35 142.7 74.35 143.8 L74.05 143.85 73.5 143.9 74.15 142.4 75.7 137.1 Q78.2 129.25 83.2 129.25 84.85 129.25 87.9 130.85 L91.2 132.85 93.85 135.75 95.5 137.75 93.8 137.9 91.5 138.15 90.15 138.4 90.15 138.35 89.4 136.5 Q88.5 133.85 86.5 133.2 M32.8 155.2 L31.9 154.55 30.05 153.3 30.05 153.25 29.9 152.4 29.65 152.15 28.7 151.95 28.3 151.85 Q27.4 151.75 26.95 152.25 L28.1 150.75 Q29.2 151.1 32.9 153.8 L34.35 154.85 32.8 155.2" fill="#999999" fill-rule="evenodd" stroke="none"/>
    <path d="M192.85 -8.05 L192.85 341.95 -7.1 341.95 -7.1 -8.05 192.85 -8.05" fill="#000000" fill-opacity="0.49803922" fill-rule="evenodd" stroke="none"/>
  </g>
</svg>
