<?xml version="1.0" encoding="UTF-8" standalone="no"?>
<svg xmlns:ffdec="https://www.free-decompiler.com/flash" xmlns:xlink="http://www.w3.org/1999/xlink" ffdec:objectType="shape" height="73.25px" width="37.0px" xmlns="http://www.w3.org/2000/svg">
  <g transform="matrix(1.0, 0.0, 0.0, 1.0, 14.5, 37.6)">
    <path d="M-8.1 26.1 L-8.35 26.3 -8.55 26.3 -8.55 25.45 -8.1 26.1" fill="#666666" fill-rule="evenodd" stroke="none"/>
    <path d="M-8.9 17.65 L-8.85 16.45 -8.35 17.25 -8.55 17.4 -8.9 17.65" fill="#999999" fill-rule="evenodd" stroke="none"/>
    <path d="M15.8 2.7 Q15.85 2.65 15.9 2.75 L15.85 2.9 15.75 3.05 15.7 2.95 15.8 2.7" fill="#ffffff" fill-rule="evenodd" stroke="none"/>
    <path d="M12.85 -0.65 L12.45 -1.1 9.25 -5.2 2.6 -14.35 -5.3 -23.6 -9.0 -28.2 -9.15 -20.65 -8.85 -0.95 -8.7 6.6 Q-8.6 12.85 -8.85 16.45 L-8.9 17.65 -8.55 25.45 -8.55 26.3 -8.55 26.45 -8.35 26.3 -8.1 26.1 0.2 19.6 Q9.5 12.6 13.45 7.2 15.05 4.95 15.75 3.05 L15.85 2.9 15.9 2.75 Q15.85 2.65 15.8 2.7 L12.85 -0.65 M6.85 -18.15 Q9.0 -15.15 16.75 -5.75 22.5 1.2 22.5 2.25 22.5 4.85 17.35 10.9 L9.65 19.45 0.05 28.0 Q-8.75 35.5 -9.65 35.65 -10.85 35.75 -11.4 35.2 L-11.85 34.5 -12.05 33.7 -12.05 33.45 Q-13.95 29.75 -13.9 23.3 -13.4 14.9 -13.7 11.75 -14.3 5.7 -14.45 -4.85 L-14.5 -29.25 -14.3 -32.1 Q-14.1 -34.7 -13.3 -36.4 L-12.45 -37.1 -12.25 -37.6 Q-7.5 -36.95 -1.5 -29.6 1.8 -25.6 6.85 -18.15" fill="#34270e" fill-rule="evenodd" stroke="none"/>
    <path d="M-8.85 16.45 Q-8.6 12.85 -8.7 6.6 L-8.85 -0.95 -9.15 -20.65 -2.15 -11.3 Q3.65 -3.75 8.25 1.55 L9.2 2.65 8.95 2.85 Q7.3 4.5 5.45 7.15 2.6 10.0 -7.35 16.55 L-8.35 17.25 -8.85 16.45" fill="#8e6c24" fill-rule="evenodd" stroke="none"/>
    <path d="M-9.15 -20.65 L-9.0 -28.2 -5.3 -23.6 2.6 -14.35 9.25 -5.2 12.45 -1.1 12.85 -0.65 12.85 -0.5 12.4 0.95 10.45 3.55 Q9.8 3.35 9.05 2.85 L8.95 2.85 9.2 2.65 8.25 1.55 Q3.65 -3.75 -2.15 -11.3 L-9.15 -20.65" fill="#cd9e3f" fill-rule="evenodd" stroke="none"/>
    <path d="M12.85 -0.65 L15.8 2.7 15.7 2.95 15.75 3.05 Q15.05 4.95 13.45 7.2 9.5 12.6 0.2 19.6 L-8.1 26.1 -8.55 25.45 -8.9 17.65 -8.55 17.4 -8.35 17.25 -7.35 16.55 Q2.6 10.0 5.45 7.15 7.3 4.5 8.95 2.85 L9.05 2.85 Q9.8 3.35 10.45 3.55 L12.4 0.95 12.85 -0.5 12.85 -0.65" fill="#6a511b" fill-rule="evenodd" stroke="none"/>
  </g>
</svg>
