<?xml version="1.0" encoding="UTF-8" standalone="no"?>
<svg xmlns:ffdec="https://www.free-decompiler.com/flash" xmlns:xlink="http://www.w3.org/1999/xlink" ffdec:objectType="shape" height="96.9px" width="202.75px" xmlns="http://www.w3.org/2000/svg">
  <g transform="matrix(1.0, 0.0, 0.0, 1.0, -423.1, -118.05)">
    <path d="M625.85 138.45 L423.1 138.45 423.1 137.0 625.85 137.0 625.85 138.45 M625.85 135.0 L423.1 135.0 423.1 118.05 625.85 118.05 625.85 135.0 M625.85 177.15 L423.1 177.15 423.1 175.0 625.85 175.0 625.85 177.15 M625.85 171.0 L423.1 171.0 423.1 154.75 625.85 154.75 625.85 171.0 M423.1 214.0 L625.85 214.0 625.85 214.95 423.1 214.95 423.1 214.0 M423.1 190.55 L625.85 190.55 625.85 208.0 423.1 208.0 423.1 190.55" fill="#000810" fill-rule="evenodd" stroke="none"/>
  </g>
</svg>
