<?xml version="1.0" encoding="UTF-8" standalone="no"?>
<svg xmlns:ffdec="https://www.free-decompiler.com/flash" xmlns:xlink="http://www.w3.org/1999/xlink" ffdec:objectType="shape" height="21.0px" width="205.0px" xmlns="http://www.w3.org/2000/svg">
  <g transform="matrix(1.0, 0.0, 0.0, 1.0, 0.0, 0.0)">
    <path d="M203.0 3.4 L186.1 3.4 186.1 19.0 185.1 19.0 184.7 19.1 184.7 2.0 203.0 2.0 203.0 3.4 M182.7 3.4 L165.8 3.4 165.8 19.0 164.4 19.0 164.4 2.0 182.7 2.0 182.7 3.4 M162.4 3.4 L145.5 3.4 145.5 19.0 144.1 19.0 144.1 2.0 162.4 2.0 162.4 3.4 M142.1 3.4 L125.2 3.4 125.2 19.0 123.8 19.0 123.8 2.0 142.1 2.0 142.1 3.4 M121.8 2.0 L121.8 3.4 104.9 3.4 104.9 19.0 103.5 19.0 103.5 2.0 121.8 2.0 M101.5 3.4 L84.6 3.4 84.6 19.0 83.2 19.0 83.2 2.0 101.5 2.0 101.5 3.4 M81.2 2.0 L81.2 3.4 64.3 3.4 64.3 19.0 62.9 19.0 62.9 2.0 81.2 2.0 M60.9 3.4 L44.0 3.4 44.0 19.0 42.6 19.0 42.6 2.0 60.9 2.0 60.9 3.4 M40.6 2.0 L40.6 3.4 23.7 3.4 23.7 19.0 22.3 19.0 22.3 2.0 40.6 2.0 M20.3 3.4 L3.4 3.4 3.4 19.0 2.0 19.0 2.0 2.0 20.3 2.0 20.3 3.4" fill="#663300" fill-rule="evenodd" stroke="none"/>
    <path d="M142.1 19.0 L142.1 2.0 123.8 2.0 123.8 19.0 142.1 19.0 M162.4 19.0 L162.4 2.0 144.1 2.0 144.1 19.0 162.4 19.0 M182.7 19.0 L182.7 2.0 164.4 2.0 164.4 19.0 182.7 19.0 M204.7 0.3 L205.0 1.0 205.0 20.0 204.7 20.7 204.0 21.0 185.1 21.0 Q184.7 21.0 184.4 20.7 L183.7 21.0 1.0 21.0 Q0.6 21.0 0.3 20.7 0.0 20.4 0.0 20.0 L0.0 1.0 Q0.0 0.6 0.3 0.3 0.6 0.0 1.0 0.0 L204.0 0.0 Q204.4 0.0 204.7 0.3 M203.0 19.0 L203.0 2.0 184.7 2.0 184.7 19.1 185.1 19.0 203.0 19.0 M121.8 2.0 L103.5 2.0 103.5 19.0 121.8 19.0 121.8 2.0 M101.5 19.0 L101.5 2.0 83.2 2.0 83.2 19.0 101.5 19.0 M81.2 2.0 L62.9 2.0 62.9 19.0 81.2 19.0 81.2 2.0 M60.9 19.0 L60.9 2.0 42.6 2.0 42.6 19.0 60.9 19.0 M40.6 2.0 L22.3 2.0 22.3 19.0 40.6 19.0 40.6 2.0 M20.3 19.0 L20.3 2.0 2.0 2.0 2.0 19.0 20.3 19.0" fill="#996600" fill-rule="evenodd" stroke="none"/>
  </g>
</svg>
