<?xml version="1.0" encoding="UTF-8" standalone="no"?>
<svg xmlns:ffdec="https://www.free-decompiler.com/flash" xmlns:xlink="http://www.w3.org/1999/xlink" ffdec:objectType="shape" height="46.8px" width="25.3px" xmlns="http://www.w3.org/2000/svg">
  <g transform="matrix(1.0, 0.0, 0.0, 1.0, 12.65, 23.4)">
    <path d="M12.65 -15.15 Q12.65 -10.85 10.5 -5.55 L6.75 2.55 Q5.65 2.7 5.25 3.7 L4.6 3.5 7.55 7.8 Q11.8 14.2 11.8 15.7 11.8 16.45 9.65 18.2 6.3 20.9 -0.3 23.0 L-1.05 23.3 -2.35 23.4 Q-5.0 23.4 -8.8 14.15 -12.25 5.8 -12.25 3.1 L-12.2 2.75 -12.65 2.5 -12.05 -0.4 Q-10.9 -5.45 -9.75 -7.35 L-10.15 -7.7 -10.3 -7.55 -10.85 -7.3 Q-11.85 -8.5 -11.85 -8.95 -11.85 -11.25 -8.05 -15.25 -4.7 -18.8 -1.55 -20.55 7.25 -25.55 10.75 -21.75 12.65 -19.65 12.65 -15.15 M8.9 -20.75 Q3.95 -20.75 1.45 -19.5 -0.15 -18.7 -4.6 -14.75 L-7.8 -11.15 -9.15 -9.15 -8.15 -8.55 -8.05 -8.55 -8.05 -8.5 -7.65 -8.15 Q-4.25 -4.8 -2.8 -4.05 L5.2 1.65 7.65 -4.9 Q10.65 -12.55 10.65 -15.05 9.9 -20.75 8.9 -20.75 M1.25 2.65 L1.65 2.05 -1.8 -0.6 -3.4 -0.45 Q-6.5 -0.05 -9.75 2.85 L-9.65 4.25 -9.65 5.3 Q-9.65 6.15 -8.75 8.55 L-8.3 7.9 -8.25 8.1 -8.25 8.2 -8.05 8.45 -7.95 8.45 -7.7 9.45 -6.6 8.35 -5.6 8.1 -5.6 7.9 -5.2 7.8 -5.1 7.55 -1.75 5.6 2.45 3.3 Q2.0 2.95 1.35 2.8 L1.25 2.65 M3.4 6.2 L3.4 5.75 3.3 4.7 Q-3.35 9.65 -6.4 10.75 L-7.55 11.0 -7.65 11.1 -6.4 13.95 Q-3.05 21.2 -1.8 21.2 0.55 21.0 9.4 14.8 L3.6 6.15 3.4 6.2 M-9.7 -0.05 L-9.4 -0.3 Q-7.3 -2.05 -4.2 -2.6 L-8.15 -5.95 -9.85 -0.25 -10.0 0.25 -9.7 -0.05" fill="#000000" fill-rule="evenodd" stroke="none"/>
    <path d="M1.25 2.65 L1.35 2.8 Q2.0 2.95 2.45 3.3 L-1.75 5.6 -5.1 7.55 -5.2 7.8 -5.6 7.9 -5.6 8.1 -6.6 8.35 -7.7 9.45 -7.95 8.45 -8.05 8.45 -8.25 8.2 -8.25 8.1 -8.3 7.9 -8.75 8.55 Q-9.65 6.15 -9.65 5.3 L-9.65 4.25 -9.75 2.85 Q-6.5 -0.05 -3.4 -0.45 L-1.8 -0.6 1.65 2.05 1.25 2.65" fill="#332d26" fill-rule="evenodd" stroke="none"/>
    <path d="M-9.85 -0.25 L-8.15 -5.95 -4.2 -2.6 Q-7.3 -2.05 -9.4 -0.3 L-9.7 -0.05 -9.85 -0.25 M3.4 6.2 L3.6 6.15 9.4 14.8 Q0.55 21.0 -1.8 21.2 -3.05 21.2 -6.4 13.95 L-7.65 11.1 -7.55 11.0 -6.4 10.75 Q-3.35 9.65 3.3 4.7 L3.4 5.75 3.4 6.2" fill="#cdac98" fill-rule="evenodd" stroke="none"/>
    <path d="M-9.85 -0.25 L-9.7 -0.05 -10.0 0.25 -9.85 -0.25" fill="#c6b19f" fill-rule="evenodd" stroke="none"/>
    <path d="M8.9 -20.75 Q9.9 -20.75 10.65 -15.05 10.65 -12.55 7.65 -4.9 L5.2 1.65 -2.8 -4.05 Q-4.25 -4.8 -7.65 -8.15 L-8.05 -8.5 -8.05 -8.55 -8.15 -8.55 -9.15 -9.15 -7.8 -11.15 -4.6 -14.75 Q-0.15 -18.7 1.45 -19.5 3.95 -20.75 8.9 -20.75" fill="#046193" fill-rule="evenodd" stroke="none"/>
  </g>
</svg>
