<?xml version="1.0" encoding="UTF-8" standalone="no"?>
<svg xmlns:ffdec="https://www.free-decompiler.com/flash" xmlns:xlink="http://www.w3.org/1999/xlink" ffdec:objectType="shape" height="279.0px" width="1254.1px" xmlns="http://www.w3.org/2000/svg">
  <g transform="matrix(1.0, 0.0, 0.0, 1.0, 628.2, 200.5)">
    <path d="M-616.6 -66.45 L-616.25 -73.95 Q-615.75 -83.6 -612.55 -107.2 -611.2 -117.15 -610.45 -124.9 L-610.45 -125.4 -610.2 -127.45 -609.9 -130.75 -609.7 -139.95 Q-609.7 -143.7 -610.75 -149.9 L-610.75 -149.95 -611.35 -152.95 -611.35 -153.0 -612.35 -157.3 -616.25 -173.55 Q-616.55 -175.85 -618.25 -181.7 -619.75 -186.9 -620.1 -190.0 -620.75 -194.05 -627.75 -200.1 L-628.2 -200.5 586.3 -200.5 585.95 -199.85 Q582.65 -192.6 582.65 -188.85 L582.65 -167.65 582.55 -158.8 582.3 -152.35 581.2 -125.05 Q581.2 -114.8 581.8 -100.25 L581.8 -98.95 582.2 -88.25 Q582.7 -76.05 583.35 -66.45 L-616.6 -66.45 M-454.8 -163.25 L-454.8 -163.2 -453.85 -163.8 -454.8 -163.25 M-56.05 -145.1 L-56.05 -144.7 -55.75 -144.75 -56.05 -145.1" fill="url(#gradient0)" fill-rule="evenodd" stroke="none"/>
    <path d="M595.65 -141.75 L595.5 -141.8 595.65 -141.8 595.65 -141.75" fill="url(#gradient1)" fill-rule="evenodd" stroke="none"/>
    <path d="M583.35 -66.45 Q584.65 -47.65 586.5 -39.05 587.55 -34.3 590.05 -17.8 591.15 -10.95 592.2 -5.6 L593.2 -1.5 Q593.7 1.35 594.4 3.6 594.85 5.25 603.5 25.15 L607.8 35.35 609.5 35.45 Q613.0 36.35 615.25 41.25 616.7 43.95 617.35 47.25 622.65 48.85 623.8 53.5 624.75 57.1 623.2 60.85 623.2 63.2 622.65 65.05 624.15 65.45 624.9 66.2 626.0 67.15 625.9 68.2 625.9 69.9 616.0 70.5 609.0 71.0 587.4 71.25 L480.45 74.55 464.6 75.9 437.1 77.15 Q394.55 78.2 264.3 78.45 L248.3 78.5 196.9 78.5 Q90.85 78.5 28.7 77.6 -9.85 77.05 -53.65 75.7 -98.9 74.25 -131.75 73.75 -178.85 73.05 -253.55 72.9 L-276.4 72.85 -286.35 72.85 Q-308.1 72.85 -334.25 73.25 L-387.05 74.15 Q-442.45 74.95 -515.15 75.25 L-516.4 75.25 -532.5 75.3 -534.85 75.3 -534.9 75.3 -591.95 75.35 Q-613.9 75.35 -614.45 67.95 -614.75 65.7 -612.9 61.4 -610.95 57.0 -610.95 55.5 -610.95 54.85 -614.2 46.3 L-616.9 38.55 -617.2 37.0 -617.45 35.95 -617.45 35.75 -617.4 34.55 Q-618.55 32.45 -619.3 29.45 -620.75 24.2 -621.4 16.45 -622.0 9.0 -621.75 0.0 L-621.4 -7.55 -621.2 -17.95 -620.85 -21.65 -620.75 -23.45 Q-620.4 -30.2 -619.3 -37.45 -618.1 -48.6 -617.2 -58.8 L-617.1 -59.3 -616.8 -64.9 -616.6 -65.25 -616.8 -65.25 -616.6 -66.45 583.35 -66.45" fill="url(#gradient2)" fill-rule="evenodd" stroke="none"/>
  </g>
  <defs>
    <linearGradient gradientTransform="matrix(0.0, 0.0784, -0.7412, 0.0, -20.9, -131.5)" gradientUnits="userSpaceOnUse" id="gradient0" spreadMethod="pad" x1="-819.2" x2="819.2">
      <stop offset="0.0" stop-color="#9fabb0" stop-opacity="0.0"/>
      <stop offset="1.0" stop-color="#9eabaf"/>
    </linearGradient>
    <linearGradient gradientTransform="matrix(0.0, 0.0, 0.0, 0.0, 595.5, -141.8)" gradientUnits="userSpaceOnUse" id="gradient1" spreadMethod="pad" x1="-819.2" x2="819.2">
      <stop offset="0.0" stop-color="#9fabb0" stop-opacity="0.0"/>
      <stop offset="1.0" stop-color="#9eabaf"/>
    </linearGradient>
    <linearGradient gradientTransform="matrix(0.0, 0.1752, -0.7717, 0.0, -6.3, -68.9)" gradientUnits="userSpaceOnUse" id="gradient2" spreadMethod="pad" x1="-819.2" x2="819.2">
      <stop offset="0.0" stop-color="#bcc2cb"/>
      <stop offset="1.0" stop-color="#839696"/>
    </linearGradient>
  </defs>
</svg>
