<?xml version="1.0" encoding="UTF-8" standalone="no"?>
<svg xmlns:ffdec="https://www.free-decompiler.com/flash" xmlns:xlink="http://www.w3.org/1999/xlink" ffdec:objectType="shape" height="7.9px" width="16.45px" xmlns="http://www.w3.org/2000/svg">
  <g transform="matrix(1.0, 0.0, 0.0, 1.0, -86.5, -3.85)">
    <path d="M93.7 8.55 L91.2 8.55 91.2 11.25 89.55 11.25 89.55 8.55 87.0 8.55 87.0 7.0 89.55 7.0 89.55 4.35 91.2 4.35 91.2 7.0 93.7 7.0 93.7 8.55" fill="#cd9e3f" fill-rule="evenodd" stroke="none"/>
    <path d="M93.7 8.55 L93.7 7.0 91.2 7.0 91.2 4.35 89.55 4.35 89.55 7.0 87.0 7.0 87.0 8.55 89.55 8.55 89.55 11.25 91.2 11.25 91.2 8.55 93.7 8.55 Z" fill="none" stroke="#8e6c24" stroke-linecap="round" stroke-linejoin="round" stroke-width="1.0"/>
    <path d="M102.45 7.0 L102.45 8.55 99.95 8.55 99.95 11.25 98.3 11.25 98.3 8.55 95.75 8.55 95.75 7.0 98.3 7.0 98.3 4.35 99.95 4.35 99.95 7.0 102.45 7.0" fill="#cd9e3f" fill-rule="evenodd" stroke="none"/>
    <path d="M102.45 7.0 L99.95 7.0 99.95 4.35 98.3 4.35 98.3 7.0 95.75 7.0 95.75 8.55 98.3 8.55 98.3 11.25 99.95 11.25 99.95 8.55 102.45 8.55 102.45 7.0 Z" fill="none" stroke="#8e6c24" stroke-linecap="round" stroke-linejoin="round" stroke-width="1.0"/>
  </g>
</svg>
