<?xml version="1.0" encoding="UTF-8" standalone="no"?>
<svg xmlns:ffdec="https://www.free-decompiler.com/flash" xmlns:xlink="http://www.w3.org/1999/xlink" ffdec:objectType="shape" height="15.5px" width="27.2px" xmlns="http://www.w3.org/2000/svg">
  <g transform="matrix(1.0, 0.0, 0.0, 1.0, 13.6, 7.75)">
    <path d="M8.55 -4.45 Q12.1 -2.6 12.1 0.0 12.1 2.6 8.55 4.4 6.7 5.35 4.45 5.85 L0.0 6.25 Q-5.0 6.25 -8.55 4.4 -12.1 2.6 -12.1 0.0 -12.1 -2.6 -8.55 -4.45 -5.0 -6.25 0.0 -6.25 5.0 -6.25 8.55 -4.45" fill="#a68032" fill-opacity="0.69411767" fill-rule="evenodd" stroke="none"/>
    <path d="M8.55 -4.45 Q12.1 -2.6 12.1 0.0 12.1 2.6 8.55 4.4 6.7 5.35 4.45 5.85 L0.0 6.25 Q-5.0 6.25 -8.55 4.4 -12.1 2.6 -12.1 0.0 -12.1 -2.6 -8.55 -4.45 -5.0 -6.25 0.0 -6.25 5.0 -6.25 8.55 -4.45 Z" fill="none" stroke="#7f551b" stroke-linecap="round" stroke-linejoin="round" stroke-width="3.0"/>
  </g>
</svg>
