<?xml version="1.0" encoding="UTF-8" standalone="no"?>
<svg xmlns:ffdec="https://www.free-decompiler.com/flash" xmlns:xlink="http://www.w3.org/1999/xlink" ffdec:objectType="shape" height="287.95px" width="354.3px" xmlns="http://www.w3.org/2000/svg">
  <g transform="matrix(1.0, 0.0, 0.0, 1.0, 176.9, 143.65)">
    <path d="M146.9 126.8 L158.85 126.8 158.85 -122.15 146.9 -122.15 -144.8 -122.15 -156.8 -122.15 -156.8 126.8 -144.8 126.8 146.9 126.8 M176.9 143.8 L-176.4 143.8 -176.4 -143.15 176.9 -143.15 176.9 143.8" fill="#000810" fill-rule="evenodd" stroke="none"/>
    <path d="M146.9 -122.15 L158.85 -122.15 158.85 126.8 146.9 126.8 -144.8 126.8 -156.8 126.8 -156.8 -122.15 -144.8 -122.15 146.9 -122.15" fill="#081628" fill-rule="evenodd" stroke="none"/>
    <path d="M146.9 126.8 L-144.8 126.8 M-144.8 -122.15 L146.9 -122.15 M176.9 143.8 L-176.4 143.8 -176.4 -143.15 176.9 -143.15 176.9 143.8 Z" fill="none" stroke="#081628" stroke-linecap="round" stroke-linejoin="round" stroke-width="1.0"/>
  </g>
</svg>
