<?xml version="1.0" encoding="UTF-8" standalone="no"?>
<svg xmlns:ffdec="https://www.free-decompiler.com/flash" xmlns:xlink="http://www.w3.org/1999/xlink" ffdec:objectType="shape" height="32.4px" width="356.95px" xmlns="http://www.w3.org/2000/svg">
  <g transform="matrix(1.0, 0.0, 0.0, 1.0, 176.2, 73.55)">
    <path d="M7.4 -71.05 L8.7 -71.65 9.25 -71.55 9.4 -71.45 Q17.25 -72.9 94.65 -72.75 155.3 -72.65 173.25 -71.85 L174.8 -71.8 175.3 -71.75 180.75 -71.1 Q180.75 -70.6 177.6 -70.4 L175.3 -70.3 175.25 -70.3 174.8 -70.25 172.85 -70.2 Q158.35 -69.85 119.55 -69.75 L116.05 -69.75 93.85 -69.75 29.55 -69.85 29.05 -69.75 28.7 -69.85 18.75 -70.0 10.1 -70.4 9.6 -70.5 9.5 -70.4 8.5 -69.2 Q7.2 -67.6 7.2 -65.85 L7.25 -62.95 7.3 -62.0 7.2 -60.05 7.3 -57.6 7.35 -57.6 Q7.2 -55.95 6.65 -54.7 L6.15 -53.8 6.0 -53.65 5.55 -53.1 5.45 -53.0 0.2 -52.75 -1.4 -52.7 -1.75 -52.7 -3.2 -52.65 Q-17.25 -52.25 -50.45 -52.15 L-54.3 -52.15 -83.6 -52.1 Q-147.0 -52.1 -163.55 -52.35 L-168.25 -52.45 -170.35 -52.55 -172.25 -52.7 -172.3 -52.7 Q-176.2 -53.0 -176.2 -53.55 L-168.25 -54.4 Q-149.35 -55.2 -85.55 -55.15 -12.7 -55.05 2.15 -54.0 L2.5 -53.95 4.6 -53.8 4.7 -54.7 4.85 -57.6 4.9 -57.6 Q4.9 -59.55 5.05 -60.65 L5.15 -62.0 4.7 -66.65 Q4.8 -68.7 6.15 -70.1 L6.5 -70.4 7.25 -70.95 7.4 -71.05" fill="#000810" fill-rule="evenodd" stroke="none"/>
    <path d="M173.25 -71.85 Q155.3 -72.65 94.65 -72.75 17.25 -72.9 9.4 -71.45 L9.25 -71.55 8.7 -71.65 7.4 -71.05 7.25 -71.1 7.15 -70.95 7.25 -70.95 6.5 -70.4 6.15 -70.1 Q4.8 -68.7 4.7 -66.65 L5.15 -62.0 5.05 -60.65 Q4.9 -59.55 4.9 -57.6 L4.85 -57.6 4.7 -54.7 4.6 -53.8 2.5 -53.95 2.55 -54.7 2.6 -58.45 2.65 -62.0 2.9 -62.0 2.45 -66.8 Q2.55 -69.1 3.9 -70.6 L4.2 -70.95 Q5.1 -71.8 6.35 -72.35 L6.9 -72.2 7.05 -72.1 7.1 -72.1 Q14.75 -73.7 89.8 -73.55 169.2 -73.4 173.25 -71.85 M5.55 -53.1 L6.0 -53.65 6.15 -53.8 6.15 -53.1 5.55 -53.1 M9.5 -70.4 L9.6 -70.5 10.1 -70.4 9.5 -70.4" fill="#081628" fill-rule="evenodd" stroke="none"/>
    <path d="M-170.35 -52.55 L-168.25 -52.45 -163.55 -52.35 Q-147.0 -52.1 -83.6 -52.1 L-54.3 -52.15 -50.45 -52.15 Q-17.25 -52.25 -3.2 -52.65 L-1.75 -52.55 -1.7 -52.55 -1.4 -52.55 -1.25 -52.35 2.5 -52.55 9.95 -53.25 6.15 -53.1 6.15 -53.8 6.65 -54.7 Q7.2 -55.95 7.35 -57.6 L7.3 -57.6 7.2 -60.05 7.3 -62.0 7.25 -62.95 7.2 -65.85 Q7.2 -67.6 8.5 -69.2 L9.5 -70.4 10.1 -70.4 18.75 -70.0 28.7 -69.85 29.05 -69.75 29.55 -69.85 93.85 -69.75 116.05 -69.75 119.55 -69.75 Q158.35 -69.85 172.85 -70.2 L172.85 -55.15 172.9 -54.7 172.9 -54.35 172.85 -54.15 172.85 -53.3 172.4 -53.3 171.9 -52.55 171.9 -51.85 171.9 -51.35 172.85 -51.35 172.85 -41.15 -173.5 -41.15 -173.5 -51.0 -169.4 -51.0 Q-173.2 -51.35 -173.2 -51.95 L-172.25 -52.3 -172.2 -52.3 -170.35 -52.55 M-52.75 -50.35 L-51.1 -50.4 -54.8 -50.4 -52.75 -50.35" fill="#0c203a" fill-rule="evenodd" stroke="none"/>
  </g>
</svg>
