<?xml version="1.0" encoding="UTF-8" standalone="no"?>
<svg xmlns:ffdec="https://www.free-decompiler.com/flash" xmlns:xlink="http://www.w3.org/1999/xlink" ffdec:objectType="shape" height="301.3px" width="248.65px" xmlns="http://www.w3.org/2000/svg">
  <g transform="matrix(1.0, 0.0, 0.0, 1.0, -31.5, -19.65)">
    <path d="M261.65 304.0 L261.65 39.0 50.95 39.0 50.95 304.0 261.65 304.0 M279.65 31.0 L279.65 320.45 32.0 320.45 32.0 31.0 279.65 31.0" fill="#000810" fill-rule="evenodd" stroke="none"/>
    <path d="M261.65 304.0 L50.95 304.0 50.95 39.0 261.65 39.0 261.65 304.0" fill="#081628" fill-rule="evenodd" stroke="none"/>
    <path d="M261.65 304.0 L50.95 304.0 50.95 39.0 261.65 39.0 261.65 304.0 M32.0 31.0 L32.0 320.45 279.65 320.45 279.65 31.0" fill="none" stroke="#081628" stroke-linecap="round" stroke-linejoin="round" stroke-width="1.0"/>
    <path d="M32.0 67.55 L32.0 20.15 279.65 20.15 279.65 67.55 32.0 67.55" fill="#000810" fill-rule="evenodd" stroke="none"/>
    <path d="M32.0 67.55 L32.0 20.15 279.65 20.15 279.65 67.55" fill="none" stroke="#081628" stroke-linecap="round" stroke-linejoin="round" stroke-width="1.0"/>
  </g>
</svg>
