<?xml version="1.0" encoding="UTF-8" standalone="no"?>
<svg xmlns:ffdec="https://www.free-decompiler.com/flash" xmlns:xlink="http://www.w3.org/1999/xlink" ffdec:objectType="shape" height="101.25px" width="70.05px" xmlns="http://www.w3.org/2000/svg">
  <g transform="matrix(1.0, 0.0, 0.0, 1.0, 36.0, 81.25)">
    <path d="M7.3 -79.8 L6.65 -80.25 7.1 -81.25 Q10.75 -80.85 19.6 -77.35 21.85 -76.5 25.1 -73.8 28.4 -71.05 29.3 -69.2 32.0 -63.45 33.0 -59.65 34.05 -55.7 34.05 -51.0 34.05 -40.6 30.35 -32.9 25.8 -23.4 15.55 -17.6 L15.05 -17.7 14.05 -17.1 Q13.45 -17.2 13.3 -17.35 13.05 -17.55 13.05 -18.3 L13.05 -18.35 13.05 -18.5 13.05 -18.85 13.15 -19.1 13.25 -19.2 13.5 -19.25 Q15.0 -20.0 15.5 -21.7 16.2 -22.65 16.25 -24.1 L16.55 -25.75 Q16.55 -28.85 16.05 -29.85 L15.8 -30.15 15.65 -30.45 14.4 -31.6 13.25 -33.0 12.2 -33.55 10.4 -34.2 Q9.5 -34.75 8.4 -34.75 5.4 -34.75 4.9 -31.0 4.65 -29.1 5.55 -28.15 L5.55 -21.6 Q6.1 -20.9 6.35 -19.4 L6.55 -17.85 6.55 -15.35 Q5.75 -13.6 1.3 -13.6 -3.2 -13.6 -4.05 -14.35 -4.95 -15.15 -4.95 -19.1 -4.95 -20.65 -4.3 -21.05 L-3.2 -21.4 Q-4.25 -22.7 -4.45 -24.35 L-4.45 -27.8 -4.4 -30.8 -4.35 -31.6 -5.05 -31.65 Q-5.55 -32.7 -6.65 -33.25 -7.65 -33.75 -9.05 -33.75 -12.8 -33.75 -14.2 -31.85 -15.9 -31.05 -16.05 -28.5 -16.45 -27.45 -16.2 -24.35 L-16.15 -24.2 Q-16.4 -22.95 -15.9 -21.0 -15.4 -19.0 -14.25 -17.4 L-14.5 -16.35 Q-25.25 -21.2 -30.55 -30.25 -34.95 -37.6 -35.85 -47.95 -36.25 -52.65 -35.55 -56.65 -34.9 -60.55 -32.7 -66.5 -31.95 -68.4 -28.95 -71.45 -25.95 -74.45 -23.75 -75.5 -15.75 -79.5 -12.05 -80.35 L-11.8 -79.25 -12.8 -78.55 Q-14.6 -77.0 -15.2 -74.75 L-15.35 -72.85 Q-15.8 -71.05 -15.6 -68.5 -14.95 -65.65 -13.6 -62.95 -12.2 -60.15 -10.6 -58.85 L-7.0 -58.65 -7.25 -59.1 -6.0 -58.75 -6.2 -60.35 -6.45 -62.7 Q-6.45 -64.45 -3.9 -69.95 -1.55 -75.05 -0.95 -75.6 0.85 -73.5 2.2 -70.9 L4.55 -65.6 4.55 -58.35 4.8 -58.35 Q6.25 -58.35 7.5 -59.3 9.25 -60.65 10.55 -63.95 11.65 -66.75 12.05 -69.7 12.05 -75.05 9.4 -77.05 L8.65 -78.15 8.1 -78.9 7.3 -79.8 M31.5 -57.05 Q30.5 -61.85 27.9 -66.45 22.9 -75.3 14.35 -77.35 L12.1 -77.35 Q13.6 -76.1 13.95 -73.8 L13.95 -73.75 14.05 -69.85 14.0 -68.05 Q16.4 -67.25 18.2 -64.2 20.05 -61.1 20.55 -57.35 20.55 -53.2 21.05 -44.4 L21.05 -43.95 Q21.0 -39.95 20.0 -35.7 L19.3 -33.2 Q18.7 -31.4 17.95 -30.5 L18.45 -28.8 18.55 -25.5 18.4 -22.05 20.2 -23.6 24.0 -27.2 Q27.35 -30.85 29.1 -34.6 L29.2 -34.8 29.7 -36.1 Q30.6 -38.75 31.25 -42.7 32.05 -47.4 32.05 -51.25 32.05 -54.2 31.5 -57.05 M12.75 -63.1 Q11.9 -61.6 7.6 -57.15 L6.55 -56.1 4.45 -56.1 Q4.0 -55.8 3.55 -55.6 L4.05 -44.45 Q4.35 -39.45 4.8 -35.3 5.85 -35.85 7.65 -36.05 L8.55 -36.1 Q12.9 -36.2 16.4 -32.55 L17.05 -33.5 Q18.55 -35.8 18.55 -37.8 L18.8 -41.45 19.05 -44.45 18.55 -56.45 Q18.4 -59.05 16.65 -62.3 15.35 -64.75 13.8 -66.05 13.45 -64.25 12.75 -63.1 M1.2 -67.25 L-0.55 -71.2 Q-1.3 -70.65 -2.85 -67.4 -4.45 -64.15 -4.45 -63.15 -4.45 -61.8 -3.65 -60.65 -3.1 -59.75 -2.45 -59.4 L-0.95 -59.85 1.2 -59.95 2.5 -60.0 2.55 -63.35 Q2.35 -64.85 1.2 -67.25 M-1.95 -21.65 Q0.2 -21.9 3.9 -21.7 3.25 -23.1 3.05 -25.15 L3.05 -29.85 2.85 -34.55 2.55 -39.2 Q2.2 -42.45 2.0 -48.45 L1.55 -57.85 1.55 -57.95 1.4 -57.95 -2.1 -57.2 -2.45 -56.55 -2.95 -55.1 -2.95 -46.5 -2.65 -38.6 -1.95 -26.6 -1.95 -21.8 -2.15 -21.6 -1.95 -21.65 M4.55 -19.55 L-2.7 -19.55 -2.45 -15.85 4.35 -15.85 4.55 -16.3 4.55 -19.55 M13.5 10.25 Q13.5 11.95 11.0 15.5 7.85 20.0 4.0 20.0 0.2 20.0 -2.5 18.5 -5.5 16.85 -5.5 14.0 -5.5 13.0 -4.75 10.1 -4.0 7.2 -4.0 5.35 L-3.85 5.3 -4.05 5.15 Q-4.95 4.35 -4.95 0.4 -4.95 -1.15 -4.3 -1.55 L5.55 -2.1 Q6.1 -1.4 6.35 0.1 L6.55 1.65 6.55 3.5 6.6 3.5 6.8 3.65 Q7.0 3.75 7.0 4.5 L7.0 4.95 7.75 5.05 Q9.9 5.55 11.7 7.15 13.5 8.8 13.5 10.25 M2.0 6.0 L-2.05 6.0 -2.0 6.75 Q-2.0 7.65 -2.75 10.3 -3.5 12.95 -3.5 13.85 -3.5 15.05 -1.75 16.25 0.4 17.75 4.0 17.75 7.0 17.75 9.5 14.15 10.7 12.35 11.35 10.4 11.35 8.9 7.0 7.0 5.7 7.0 4.75 9.2 L3.6 12.25 3.0 12.5 2.15 12.3 Q2.0 12.15 2.0 11.3 2.0 7.2 3.7 5.75 L2.0 6.0 M4.55 3.2 L4.55 -0.05 -2.7 -0.05 -2.45 3.65 -0.15 3.65 4.45 3.5 4.55 3.2 M-22.05 -60.35 L-21.2 -62.5 Q-19.7 -65.7 -17.4 -66.75 L-17.6 -68.5 -17.85 -72.45 Q-17.7 -74.75 -16.3 -76.15 L-18.55 -75.95 Q-25.4 -73.65 -29.4 -67.0 L-29.45 -66.9 -30.8 -64.4 -30.85 -64.25 -31.05 -63.9 Q-32.7 -60.25 -33.4 -56.6 -34.25 -52.55 -33.9 -48.4 L-33.05 -42.9 -32.35 -39.95 Q-31.05 -34.85 -29.45 -32.05 -26.45 -26.75 -19.65 -21.9 L-17.7 -20.5 -18.15 -23.95 -18.35 -27.25 -18.0 -29.0 -18.05 -29.05 -18.9 -30.15 Q-19.75 -31.55 -20.5 -33.95 -21.95 -38.35 -22.35 -42.5 L-22.45 -45.95 Q-22.65 -52.2 -22.95 -55.45 -22.85 -58.05 -22.05 -60.35 M-10.05 -56.4 Q-14.75 -60.45 -15.7 -61.9 -16.5 -63.0 -17.05 -64.75 -18.4 -63.3 -19.5 -60.75 -20.95 -57.35 -20.9 -54.75 L-20.35 -42.75 -19.8 -39.8 Q-19.35 -37.4 -19.25 -36.2 -19.1 -34.2 -17.35 -32.0 L-16.65 -31.1 Q-13.5 -35.1 -9.15 -35.35 L-9.1 -35.15 -7.0 -35.55 Q-5.3 -35.55 -4.5 -34.7 L-4.95 -46.9 -5.05 -49.65 -4.95 -53.2 Q-4.75 -54.2 -5.15 -56.6 L-6.3 -56.7 -7.2 -56.6 -9.4 -57.0 -10.1 -57.25 -10.05 -56.4" fill="#000000" fill-rule="evenodd" stroke="none"/>
    <path d="M13.95 -73.75 L13.95 -73.8 Q13.6 -76.1 12.1 -77.35 L14.35 -77.35 Q22.9 -75.3 27.9 -66.45 30.5 -61.85 31.5 -57.05 27.4 -60.4 19.35 -68.35 L13.95 -73.75 M29.7 -36.1 L29.2 -34.8 29.1 -34.6 Q27.35 -30.85 24.0 -27.2 L23.7 -27.5 20.05 -32.1 19.3 -33.2 20.0 -35.7 Q21.0 -39.95 21.05 -43.95 L21.3 -43.7 23.15 -41.35 25.1 -39.2 Q27.7 -36.85 27.9 -36.95 L28.8 -37.6 29.85 -36.6 29.7 -36.1 M-22.05 -60.35 Q-22.85 -58.05 -22.95 -55.45 -22.65 -52.2 -22.45 -45.95 L-28.65 -51.9 -33.4 -56.6 Q-32.7 -60.25 -31.05 -63.9 L-30.85 -64.25 -30.8 -64.4 -29.45 -66.9 -29.4 -67.0 -25.95 -63.85 -22.05 -60.35 M-18.9 -30.15 L-18.05 -29.05 -18.0 -29.0 -18.35 -27.25 -18.15 -23.95 -17.7 -20.5 -19.65 -21.9 Q-26.45 -26.75 -29.45 -32.05 -31.05 -34.85 -32.35 -39.95 L-33.05 -42.9 -31.0 -41.15 -24.7 -34.8 -18.9 -30.15" fill="#cdd7da" fill-rule="evenodd" stroke="none"/>
    <path d="M13.95 -73.75 L19.35 -68.35 Q27.4 -60.4 31.5 -57.05 32.05 -54.2 32.05 -51.25 32.05 -47.4 31.25 -42.7 30.6 -38.75 29.7 -36.1 L29.85 -36.6 28.8 -37.6 27.9 -36.95 Q27.7 -36.85 25.1 -39.2 L23.15 -41.35 21.3 -43.7 21.05 -43.95 21.05 -44.4 Q20.55 -53.2 20.55 -57.35 20.05 -61.1 18.2 -64.2 16.4 -67.25 14.0 -68.05 L14.05 -69.85 13.95 -73.75 M24.0 -27.2 L20.2 -23.6 18.4 -22.05 18.55 -25.5 18.45 -28.8 17.95 -30.5 Q18.7 -31.4 19.3 -33.2 L20.05 -32.1 23.7 -27.5 24.0 -27.2 M-29.4 -67.0 Q-25.4 -73.65 -18.55 -75.95 L-16.3 -76.15 Q-17.7 -74.75 -17.85 -72.45 L-17.6 -68.5 -17.4 -66.75 Q-19.7 -65.7 -21.2 -62.5 L-22.05 -60.35 -25.95 -63.85 -29.4 -67.0 M-22.45 -45.95 L-22.35 -42.5 Q-21.95 -38.35 -20.5 -33.95 -19.75 -31.55 -18.9 -30.15 L-24.7 -34.8 -31.0 -41.15 -33.05 -42.9 -33.9 -48.4 Q-34.25 -52.55 -33.4 -56.6 L-28.65 -51.9 -22.45 -45.95" fill="#a7b9be" fill-rule="evenodd" stroke="none"/>
    <path d="M-10.05 -56.4 L-10.1 -57.25 -9.4 -57.0 -10.05 -56.4" fill="#535f60" fill-rule="evenodd" stroke="none"/>
    <path d="M-1.95 -21.8 L-1.95 -26.6 -2.65 -38.6 -2.95 -46.5 -2.95 -55.1 -2.45 -56.55 -2.1 -57.2 1.4 -57.95 1.55 -57.95 1.55 -57.85 2.0 -48.45 Q2.2 -42.45 2.55 -39.2 L2.85 -34.55 3.05 -29.85 3.05 -25.15 Q3.25 -23.1 3.9 -21.7 0.2 -21.9 -1.95 -21.65 L-1.95 -21.8 M2.0 6.0 L3.7 5.75 Q2.0 7.2 2.0 11.3 2.0 12.15 2.15 12.3 L3.0 12.5 3.6 12.25 4.75 9.2 Q5.7 7.0 7.0 7.0 11.35 8.9 11.35 10.4 10.7 12.35 9.5 14.15 7.0 17.75 4.0 17.75 0.4 17.75 -1.75 16.25 -3.5 15.05 -3.5 13.85 -3.5 12.95 -2.75 10.3 -2.0 7.65 -2.0 6.75 L-2.05 6.0 2.0 6.0" fill="#362c32" fill-rule="evenodd" stroke="none"/>
    <path d="M1.2 -67.25 Q2.35 -64.85 2.55 -63.35 L2.5 -60.0 1.2 -59.95 -0.95 -59.85 -2.45 -59.4 Q-3.1 -59.75 -3.65 -60.65 -4.45 -61.8 -4.45 -63.15 -4.45 -64.15 -2.85 -67.4 -1.3 -70.65 -0.55 -71.2 L1.2 -67.25 M12.75 -63.1 Q13.45 -64.25 13.8 -66.05 15.35 -64.75 16.65 -62.3 18.4 -59.05 18.55 -56.45 L19.05 -44.45 18.8 -41.45 18.55 -37.8 Q18.55 -35.8 17.05 -33.5 L16.4 -32.55 Q12.9 -36.2 8.55 -36.1 L7.65 -36.05 Q5.85 -35.85 4.8 -35.3 4.35 -39.45 4.05 -44.45 L3.55 -55.6 Q4.0 -55.8 4.45 -56.1 L6.55 -56.1 7.6 -57.15 Q11.9 -61.6 12.75 -63.1 M4.55 -19.55 L4.55 -16.3 4.35 -15.85 -2.45 -15.85 -2.7 -19.55 4.55 -19.55 M4.55 3.2 L4.45 3.5 -0.15 3.65 -2.45 3.65 -2.7 -0.05 4.55 -0.05 4.55 3.2 M-9.4 -57.0 L-7.2 -56.6 -6.3 -56.7 -5.15 -56.6 Q-4.75 -54.2 -4.95 -53.2 L-5.05 -49.65 -4.95 -46.9 -4.5 -34.7 Q-5.3 -35.55 -7.0 -35.55 L-9.1 -35.15 -9.15 -35.35 Q-13.5 -35.1 -16.65 -31.1 L-17.35 -32.0 Q-19.1 -34.2 -19.25 -36.2 -19.35 -37.4 -19.8 -39.8 L-20.35 -42.75 -20.9 -54.75 Q-20.95 -57.35 -19.5 -60.75 -18.4 -63.3 -17.05 -64.75 -16.5 -63.0 -15.7 -61.9 -14.75 -60.45 -10.05 -56.4 L-9.4 -57.0" fill="#4e5963" fill-rule="evenodd" stroke="none"/>
  </g>
</svg>
