<?xml version="1.0" encoding="UTF-8" standalone="no"?>
<svg xmlns:ffdec="https://www.free-decompiler.com/flash" xmlns:xlink="http://www.w3.org/1999/xlink" ffdec:objectType="shape" height="51.0px" width="246.45px" xmlns="http://www.w3.org/2000/svg">
  <g transform="matrix(1.0, 0.0, 0.0, 1.0, -30.7, -18.0)">
    <path d="M237.1 23.25 L238.95 23.45 240.3 23.15 244.4 23.45 248.3 23.4 251.05 23.85 Q251.9 24.45 251.9 24.8 L251.75 26.1 251.7 26.35 Q248.1 27.75 247.4 28.7 L250.35 28.95 Q250.2 29.45 250.2 30.1 250.2 30.95 254.7 44.3 L256.85 52.25 257.15 52.95 Q256.15 52.7 254.45 53.3 L251.55 54.95 Q250.2 55.95 250.2 56.45 250.2 57.3 251.75 58.5 253.7 60.0 256.2 60.0 256.75 60.0 256.85 59.65 L256.95 59.15 263.1 59.45 Q263.35 59.45 264.45 60.15 L267.85 60.75 268.0 61.15 268.0 61.85 267.75 63.0 267.65 63.0 267.6 63.2 267.15 63.8 Q266.05 64.8 263.85 64.85 L263.5 64.9 258.95 65.0 258.5 65.05 252.0 65.05 248.1 65.1 248.1 65.15 244.1 65.5 243.5 65.45 243.4 65.45 243.4 65.3 241.85 65.45 241.7 65.45 Q237.25 65.45 233.8 65.6 L224.8 66.35 223.75 66.6 223.0 66.5 209.1 64.8 199.85 63.45 196.8 63.0 196.75 62.95 194.8 62.65 194.6 62.6 194.45 62.6 192.1 62.2 190.6 62.4 190.25 62.45 189.55 62.45 187.3 62.75 180.1 63.2 Q179.95 63.2 179.35 63.5 L178.9 63.7 175.0 64.05 174.1 64.1 171.6 64.35 171.55 64.0 171.4 64.35 150.45 65.45 147.2 65.55 140.3 65.6 140.3 65.4 159.6 63.8 159.65 63.8 160.3 63.7 163.9 63.2 173.35 62.0 187.6 60.55 195.2 60.35 200.75 61.3 201.75 61.55 202.15 61.7 202.25 61.7 Q210.6 63.95 219.45 63.95 L224.3 63.8 224.35 63.8 230.35 63.5 230.55 63.5 230.6 63.5 231.15 63.45 232.05 63.4 232.15 63.4 233.65 63.35 233.7 63.35 235.4 63.2 237.4 63.05 237.45 62.25 237.5 62.05 238.2 61.85 Q238.8 61.85 238.95 62.6 L239.05 62.9 239.75 62.9 240.25 62.8 242.15 62.6 244.25 62.35 244.8 62.3 245.65 62.2 246.1 62.15 246.8 62.05 246.65 61.35 245.25 55.0 243.65 48.4 240.1 36.7 Q237.35 27.25 237.1 23.25 M261.2 29.4 L265.2 29.85 270.8 30.6 274.35 32.15 275.25 33.05 271.1 35.1 Q268.95 36.55 268.95 38.5 L269.05 39.45 269.7 40.15 270.6 40.9 Q270.85 40.95 271.35 41.3 L271.25 41.35 270.7 41.65 270.55 41.75 270.35 41.85 267.35 43.35 266.05 44.35 265.8 43.75 Q265.1 42.1 264.5 39.05 L263.55 34.75 Q263.05 33.1 261.55 30.05 L261.2 29.4 M275.05 35.1 Q274.75 35.65 274.75 36.1 L274.8 36.7 273.5 37.0 273.25 37.1 271.95 37.65 271.75 37.9 271.05 37.9 270.9 37.7 270.8 36.95 Q270.8 36.2 272.45 35.6 273.6 35.2 275.05 35.1 M132.15 65.6 L121.0 65.45 113.45 65.2 112.4 65.15 112.3 65.15 111.4 65.05 111.05 65.15 111.0 65.15 106.2 64.9 104.7 65.05 98.65 65.65 97.7 65.75 Q97.85 65.1 101.8 64.1 106.5 63.0 111.55 63.0 L118.05 63.45 121.85 64.25 Q124.95 65.15 132.15 65.35 L132.15 65.6 M88.55 66.65 L87.75 66.75 87.9 66.7 87.95 66.65 87.65 65.45 87.95 65.3 88.55 66.65 M76.3 67.85 L75.25 67.95 72.25 68.25 71.75 68.3 71.15 68.3 67.5 68.5 58.6 69.0 57.6 68.85 56.85 68.6 55.8 68.4 55.6 68.25 55.5 67.85 54.75 67.85 54.3 67.75 50.1 67.4 47.4 67.25 47.35 67.25 47.1 67.05 46.9 66.9 46.1 66.6 Q45.6 66.2 44.75 65.9 L45.5 65.6 54.2 66.35 Q56.4 67.35 63.5 67.5 L66.65 67.55 65.5 65.0 Q64.35 62.45 63.95 61.15 62.55 56.45 58.95 46.9 55.4 37.55 53.75 32.55 L51.25 24.35 51.25 24.3 Q55.4 22.65 60.55 21.45 63.2 27.8 67.95 41.85 76.3 66.6 76.3 67.75 L76.3 67.85 M42.75 55.05 L38.3 55.3 37.05 54.95 36.2 54.8 36.2 54.85 35.0 53.65 34.4 53.15 34.35 53.1 Q32.35 52.25 31.5 51.3 L31.4 51.2 Q30.85 50.65 30.7 49.9 L30.8 49.8 30.7 49.85 30.8 48.0 Q30.8 47.55 31.15 46.65 L31.4 45.95 32.1 45.55 32.8 45.25 36.0 44.1 36.95 43.35 38.9 48.55 40.35 53.85 42.75 55.05 M44.5 35.95 L44.65 35.9 Q45.35 35.6 46.05 35.25 46.8 34.7 46.9 33.95 L46.9 33.9 46.9 33.8 46.9 33.7 46.9 33.6 47.8 33.35 46.8 33.1 Q46.25 31.8 43.55 30.4 L41.6 29.4 43.6 28.0 44.0 28.1 Q46.45 28.95 47.45 29.85 49.55 30.55 50.1 31.55 L50.85 32.85 51.2 33.95 Q51.2 34.75 50.35 35.45 49.3 36.25 47.45 36.4 L44.7 36.4 44.6 36.25 44.5 35.95 M233.7 63.3 L233.65 63.3 232.15 63.35 232.95 62.6 233.7 63.3 M80.05 21.45 L80.05 21.75 79.35 21.95 79.3 22.15 79.3 24.95 80.05 27.95 79.9 28.0 77.5 21.45 80.05 21.45" fill="#caeae9" fill-rule="evenodd" stroke="none"/>
    <path d="M250.35 28.95 L254.35 28.9 257.8 28.6 259.5 29.0 261.2 29.4 261.55 30.05 Q263.05 33.1 263.55 34.75 L264.5 39.05 Q265.1 42.1 265.8 43.75 L266.05 44.35 266.8 46.35 267.2 47.4 268.85 52.25 268.95 52.75 268.95 53.0 269.3 52.85 275.3 52.1 276.75 52.15 276.75 52.25 276.55 52.45 276.25 52.75 276.05 52.85 Q274.0 54.2 268.2 54.35 L266.85 54.35 263.55 54.1 263.35 54.2 263.45 54.25 264.3 54.85 264.05 54.95 Q263.8 55.2 263.8 55.8 L263.85 56.35 262.55 56.45 259.2 56.6 253.7 56.9 Q252.65 57.0 252.65 57.65 252.65 58.25 253.35 58.45 L254.6 58.65 254.6 58.7 254.9 58.85 254.95 58.9 256.55 59.15 256.85 59.15 256.95 59.15 256.85 59.65 Q256.75 60.0 256.2 60.0 253.7 60.0 251.75 58.5 250.2 57.3 250.2 56.45 250.2 55.95 251.55 54.95 L254.45 53.3 Q256.15 52.7 257.15 52.95 L256.85 52.25 254.7 44.3 Q250.2 30.95 250.2 30.1 250.2 29.45 250.35 28.95 M264.45 46.3 L264.4 46.1 263.4 46.45 264.45 46.3 M258.5 55.7 L258.45 55.65 258.45 55.7 258.5 55.7" fill="url(#gradient0)" fill-rule="evenodd" stroke="none"/>
    <path d="M275.25 33.05 L275.5 33.8 275.5 33.9 275.5 34.0 275.1 35.05 275.05 35.1 Q273.6 35.2 272.45 35.6 270.8 36.2 270.8 36.95 L270.9 37.7 271.05 37.9 271.75 37.9 271.65 38.2 Q271.65 38.8 272.7 39.45 273.55 40.0 274.2 40.0 L274.35 40.4 274.15 41.25 274.0 41.25 271.35 41.5 271.25 41.35 271.35 41.3 Q270.85 40.95 270.6 40.9 L269.7 40.15 269.05 39.45 268.95 38.5 Q268.95 36.55 271.1 35.1 L275.25 33.05" fill="url(#gradient1)" fill-rule="evenodd" stroke="none"/>
    <path d="M269.9 44.8 L270.5 45.55 270.65 45.6 270.75 45.65 270.9 45.75 273.0 46.45 273.15 46.45 274.3 46.75 Q276.05 47.35 276.4 48.55 L276.55 48.65 Q277.15 49.25 277.15 50.65 277.15 51.6 276.75 52.25 L276.75 52.15 275.3 52.1 269.3 52.85 268.95 53.0 268.95 52.75 268.85 52.25 273.05 50.1 273.65 49.35 Q270.6 49.05 268.9 48.1 L267.2 47.4 266.8 46.35 266.05 44.35 267.35 43.35 270.35 41.85 269.7 42.4 Q268.55 43.9 268.55 44.2 268.55 44.8 268.75 44.9 L269.3 45.0 269.9 44.8 M270.55 41.75 L270.7 41.65 270.75 41.65 270.55 41.75" fill="url(#gradient2)" fill-rule="evenodd" stroke="none"/>
    <path d="M258.5 65.05 L251.9 65.35 252.0 65.05 258.5 65.05 M243.4 65.45 L241.85 65.45 243.4 65.3 243.4 65.45 M139.25 65.6 L138.3 65.6 137.3 65.6 132.15 65.6 132.15 65.35 137.3 65.45 138.25 65.45 139.25 65.45 139.25 65.6 M47.35 56.45 L47.25 56.45 47.1 56.05 47.35 56.45 M30.7 49.9 L30.7 49.85 30.8 49.8 30.7 49.9 M43.6 28.0 L43.85 27.85 44.0 28.1 43.6 28.0 M51.05 24.4 L51.25 24.3 51.25 24.35 51.05 24.4 M270.7 41.65 L271.25 41.35 271.35 41.5 270.75 41.65 270.7 41.65 M258.5 55.7 L258.45 55.7 258.45 55.65 258.5 55.7" fill="#829edb" fill-rule="evenodd" stroke="none"/>
    <path d="M274.05 41.65 L272.1 42.9 Q271.05 42.55 270.55 43.15 L270.1 43.45 Q269.8 43.75 269.8 44.35 L269.9 44.8 269.3 45.0 268.75 44.9 Q268.55 44.8 268.55 44.2 268.55 43.9 269.7 42.4 L270.35 41.85 270.55 41.75 270.75 41.65 271.35 41.5 274.0 41.25 274.05 41.65" fill="url(#gradient3)" fill-rule="evenodd" stroke="none"/>
    <path d="M267.2 47.4 L268.9 48.1 Q270.6 49.05 273.65 49.35 L273.05 50.1 268.85 52.25 267.2 47.4" fill="url(#gradient4)" fill-rule="evenodd" stroke="none"/>
    <path d="M274.15 41.25 L274.05 41.65 274.0 41.25 274.15 41.25 M267.75 63.0 L267.6 63.2 267.65 63.0 267.75 63.0" fill="#6e89cf" fill-rule="evenodd" stroke="none"/>
    <path d="M232.3 22.6 L235.25 23.0 237.1 23.25 Q237.35 27.25 240.1 36.7 L243.65 48.4 245.25 55.0 246.65 61.35 246.8 62.05 246.1 62.15 245.75 61.5 245.65 62.2 244.8 62.3 244.25 62.35 242.15 62.6 240.25 62.8 239.75 62.9 239.95 62.6 Q240.35 62.15 240.45 61.1 L240.3 59.4 Q240.35 58.85 240.65 58.55 238.65 52.55 236.35 43.85 232.75 30.15 232.3 22.6" fill="url(#gradient5)" fill-rule="evenodd" stroke="none"/>
    <path d="M248.7 65.6 L247.4 65.7 244.1 65.5 248.1 65.15 248.7 65.6 M196.8 63.0 L194.8 62.65 196.75 62.95 196.8 63.0 M190.25 62.45 L178.9 63.7 179.35 63.5 Q179.95 63.2 180.1 63.2 L187.3 62.75 189.55 62.45 190.25 62.45 M112.3 65.15 L111.05 65.15 111.4 65.05 112.3 65.15 M55.6 68.25 Q55.3 68.0 54.75 67.85 L55.5 67.85 55.6 68.25 M44.75 65.9 L43.55 65.45 43.05 65.3 42.8 65.15 44.65 65.8 44.75 65.9 M39.65 63.2 L39.55 62.95 40.2 62.45 39.65 62.9 39.65 63.2 M113.4 21.95 L117.85 22.6 113.65 22.35 113.75 22.05 113.4 21.95 M165.5 20.8 L166.65 20.85 166.25 20.85 165.9 21.25 165.5 20.8 M226.95 23.05 L227.1 23.0 227.2 23.0 227.2 23.1 227.0 23.1 226.95 23.05 M246.1 62.15 L245.65 62.2 245.75 61.5 246.1 62.15 M231.15 63.45 L230.6 63.5 231.25 63.4 231.15 63.45 M224.35 63.8 L224.3 63.8 224.3 63.7 224.35 63.8 M161.45 23.0 L161.4 23.15 161.2 23.0 161.45 23.0 M157.3 23.25 L157.05 23.3 156.95 22.8 157.3 22.8 157.3 23.25 M87.95 65.3 L87.65 65.45 87.2 64.35 87.95 65.3 M71.95 21.1 L71.8 22.05 71.5 20.95 71.95 21.1 M80.05 27.95 L80.05 28.0 79.9 28.0 80.05 27.95 M38.45 36.85 L38.45 36.8 38.7 37.3 38.9 38.25 38.7 38.25 Q38.45 37.7 38.45 36.85" fill="#aacbdd" fill-rule="evenodd" stroke="none"/>
    <path d="M251.9 65.35 L248.7 65.6 248.1 65.15 248.1 65.1 252.0 65.05 251.9 65.35" fill="url(#gradient6)" fill-rule="evenodd" stroke="none"/>
    <path d="M71.1 19.65 L76.15 19.1 Q85.15 18.4 106.0 18.4 108.1 18.4 109.0 19.05 L110.4 20.55 110.7 20.85 111.75 21.45 112.35 21.65 113.4 21.95 113.75 22.05 113.65 22.35 117.85 22.6 118.1 22.6 118.55 22.65 119.8 22.65 120.45 22.7 120.55 22.7 121.2 22.7 121.45 22.7 121.9 22.7 122.05 22.7 Q125.35 22.7 128.1 21.75 129.8 21.2 130.3 20.7 135.35 20.45 136.75 19.45 L136.9 19.35 137.4 19.35 139.95 19.0 140.5 18.45 143.55 18.15 Q146.3 18.0 150.05 18.0 L160.1 18.05 160.5 18.05 160.5 19.2 161.6 19.95 162.3 20.5 162.5 20.55 164.55 20.75 165.5 20.8 165.9 21.25 166.25 20.85 166.65 20.85 168.15 20.85 168.3 20.85 168.45 20.85 168.6 20.85 168.75 20.85 168.9 20.85 177.25 20.1 Q178.45 19.7 178.8 19.15 179.55 18.75 181.4 18.25 L183.85 18.25 187.55 18.3 189.25 18.3 193.45 18.4 193.7 18.4 194.0 18.4 199.75 18.9 202.15 19.7 203.35 20.45 204.5 21.4 204.7 22.2 209.25 22.7 216.0 23.1 216.25 23.15 216.25 23.1 218.15 23.1 220.05 23.3 222.65 23.45 226.95 23.05 227.0 23.1 227.2 23.1 227.2 23.0 229.0 22.8 229.75 26.9 230.35 33.45 231.1 39.95 231.85 42.85 Q232.6 45.3 232.6 46.4 232.6 47.5 231.1 49.15 229.3 46.4 228.25 42.45 L226.6 35.65 224.0 29.2 222.5 24.9 216.75 25.5 207.1 26.25 205.25 25.95 204.1 25.55 199.25 25.15 198.8 24.7 198.7 23.85 Q196.85 23.9 196.2 23.45 L195.85 22.9 193.7 20.3 Q193.35 20.1 192.95 20.85 191.75 23.2 188.2 21.95 L185.65 20.65 184.75 20.85 183.1 21.2 181.25 21.15 179.55 22.15 176.75 22.95 Q176.4 23.05 176.2 23.25 L176.0 23.5 169.25 23.65 161.45 23.0 161.2 23.0 161.4 23.15 Q162.35 23.85 162.5 24.4 L164.4 30.25 166.05 35.8 167.6 41.8 170.8 52.15 Q172.7 58.55 173.35 62.0 L163.9 63.2 160.3 63.7 159.65 63.8 159.15 63.05 158.25 60.2 156.15 54.35 Q153.45 46.3 152.6 42.8 L149.2 29.8 147.05 20.9 145.85 21.15 143.0 21.75 139.3 22.35 137.0 22.95 Q137.0 23.4 136.65 23.5 136.25 23.55 136.25 24.0 136.25 24.6 135.85 24.75 L135.2 24.95 Q135.6 25.45 135.35 25.75 L133.65 26.5 127.75 27.0 128.15 28.75 129.0 34.7 Q129.55 38.0 130.25 40.9 130.65 42.85 130.65 46.0 L130.5 49.55 130.45 49.75 129.7 49.9 Q128.8 49.9 128.65 49.15 128.5 48.4 128.05 48.4 127.0 48.4 125.35 43.7 124.15 40.35 123.4 36.95 L121.5 31.3 Q120.55 28.5 120.25 26.75 L118.15 26.35 Q117.2 25.65 116.05 25.5 L110.05 25.15 109.8 24.8 Q109.8 24.45 109.3 24.45 L102.05 24.8 101.8 25.0 102.6 27.9 104.6 36.05 Q107.45 46.75 108.55 52.35 L108.55 54.35 107.8 54.75 Q105.6 51.45 99.95 38.6 95.9 29.2 94.75 25.5 L87.8 25.5 87.65 25.4 87.55 24.7 Q87.55 24.35 87.8 24.2 L90.8 23.85 Q90.5 23.4 90.6 22.95 L84.35 22.35 Q83.25 22.05 83.1 21.45 L80.05 21.45 77.5 21.45 72.4 21.2 71.95 21.1 71.5 20.95 71.1 19.65 M157.3 23.25 L157.3 22.8 156.95 22.8 157.05 23.3 157.3 23.25" fill="url(#gradient7)" fill-rule="evenodd" stroke="none"/>
    <path d="M229.0 22.8 L231.55 22.5 232.3 22.6 Q232.75 30.15 236.35 43.85 238.65 52.55 240.65 58.55 240.35 58.85 240.3 59.4 L240.45 61.1 Q240.35 62.15 239.95 62.6 L239.75 62.9 239.05 62.9 238.95 62.6 Q238.8 61.85 238.2 61.85 L237.5 62.05 237.45 62.25 237.4 63.05 235.4 63.2 233.7 63.35 233.65 63.35 232.15 63.4 232.05 63.4 231.15 63.45 231.25 63.4 230.5 62.05 229.6 60.2 Q228.75 56.95 227.7 55.85 L226.95 56.3 226.95 57.4 226.8 57.4 224.55 47.5 Q223.1 41.6 221.35 37.9 220.8 38.1 220.45 39.05 L220.4 38.85 219.8 37.6 Q219.45 36.9 218.75 36.95 L218.7 38.35 Q218.7 40.05 220.35 46.05 L222.1 52.55 222.9 56.35 223.6 59.85 Q224.0 62.75 224.3 63.7 L224.3 63.8 219.45 63.95 Q210.6 63.95 202.25 61.7 L202.25 61.35 199.7 54.05 197.15 46.75 Q194.1 38.4 191.35 32.65 191.05 32.7 190.85 33.05 190.6 33.45 190.6 34.15 191.65 42.1 193.1 50.05 194.25 56.5 195.2 60.35 L187.6 60.55 173.35 62.0 Q172.7 58.55 170.8 52.15 L167.6 41.8 166.05 35.8 164.4 30.25 162.5 24.4 Q162.35 23.85 161.4 23.15 L161.45 23.0 169.25 23.65 176.0 23.5 176.2 23.25 Q176.4 23.05 176.75 22.95 L179.55 22.15 181.25 21.15 183.1 21.2 184.75 20.85 185.65 20.65 188.2 21.95 Q191.75 23.2 192.95 20.85 193.35 20.1 193.7 20.3 L195.85 22.9 196.2 23.45 Q196.85 23.9 198.7 23.85 L198.8 24.7 199.25 25.15 204.1 25.55 205.25 25.95 207.1 26.25 216.75 25.5 222.5 24.9 224.0 29.2 226.6 35.65 228.25 42.45 Q229.3 46.4 231.1 49.15 232.6 47.5 232.6 46.4 232.6 45.3 231.85 42.85 L231.1 39.95 230.35 33.45 229.75 26.9 229.0 22.8 M233.7 63.3 L232.95 62.6 232.15 63.35 233.65 63.3 233.7 63.3" fill="url(#gradient8)" fill-rule="evenodd" stroke="none"/>
    <path d="M39.55 62.95 L39.5 62.75 40.1 62.3 40.15 62.25 39.75 61.65 40.2 61.05 40.9 59.9 40.85 59.3 40.7 59.45 40.25 59.4 41.0 58.95 42.85 59.4 42.8 59.5 41.75 60.8 41.55 61.1 41.5 61.1 40.75 61.95 40.2 62.45 39.55 62.95 M216.0 23.1 L216.25 23.1 216.25 23.15 216.0 23.1" fill="#e8fffe" fill-rule="evenodd" stroke="none"/>
    <path d="M230.6 63.5 L230.55 63.5 230.35 63.5 224.35 63.8 224.3 63.7 Q224.0 62.75 223.6 59.85 L222.9 56.35 222.1 52.55 220.35 46.05 Q218.7 40.05 218.7 38.35 L218.75 36.95 Q219.45 36.9 219.8 37.6 L220.4 38.85 220.45 39.05 Q220.8 38.1 221.35 37.9 223.1 41.6 224.55 47.5 L226.8 57.4 226.95 57.4 226.95 56.3 227.7 55.85 Q228.75 56.95 229.6 60.2 L230.5 62.05 231.25 63.4 230.6 63.5 M225.2 56.65 L225.2 56.6 225.1 56.65 225.2 56.65" fill="url(#gradient9)" fill-rule="evenodd" stroke="none"/>
    <path d="M171.6 64.35 L171.4 64.35 171.55 64.0 171.6 64.35 M181.4 18.25 L181.45 18.2 183.85 18.25 181.4 18.25" fill="#bcfefd" fill-opacity="0.8117647" fill-rule="evenodd" stroke="none"/>
    <path d="M202.15 61.7 L201.75 61.55 200.75 61.3 195.2 60.35 Q194.25 56.5 193.1 50.05 191.65 42.1 190.6 34.15 190.6 33.45 190.85 33.05 191.05 32.7 191.35 32.65 194.1 38.4 197.15 46.75 L199.7 54.05 202.25 61.35 202.15 61.7" fill="url(#gradient10)" fill-rule="evenodd" stroke="none"/>
    <path d="M202.25 61.7 L202.15 61.7 202.25 61.35 202.25 61.7" fill="#aec1e8" fill-rule="evenodd" stroke="none"/>
    <path d="M97.7 65.75 L96.9 65.85 93.55 66.2 93.55 65.75 Q93.55 63.35 92.3 60.35 L89.65 54.8 Q88.15 51.5 86.05 43.9 L82.5 30.45 80.05 21.75 80.05 21.45 83.1 21.45 Q83.25 22.05 84.35 22.35 L90.6 22.95 Q90.5 23.4 90.8 23.85 L87.8 24.2 Q87.55 24.35 87.55 24.7 L87.65 25.4 87.8 25.5 94.75 25.5 Q95.9 29.2 99.95 38.6 105.6 51.45 107.8 54.75 L108.55 54.35 108.55 52.35 Q107.45 46.75 104.6 36.05 L102.6 27.9 101.8 25.0 102.05 24.8 109.3 24.45 Q109.8 24.45 109.8 24.8 L110.05 25.15 116.05 25.5 Q117.2 25.65 118.15 26.35 L120.25 26.75 Q120.55 28.5 121.5 31.3 L123.4 36.95 Q124.15 40.35 125.35 43.7 127.0 48.4 128.05 48.4 128.5 48.4 128.65 49.15 128.8 49.9 129.7 49.9 L130.45 49.75 130.5 49.55 130.65 46.0 Q130.65 42.85 130.25 40.9 129.55 38.0 129.0 34.7 L128.15 28.75 127.75 27.0 133.65 26.5 135.35 25.75 Q135.6 25.45 135.2 24.95 L135.85 24.75 Q136.25 24.6 136.25 24.0 136.25 23.55 136.65 23.5 137.0 23.4 137.0 22.95 L139.3 22.35 143.0 21.75 145.85 21.15 147.05 20.9 149.2 29.8 152.6 42.8 Q153.45 46.3 156.15 54.35 L158.25 60.2 159.15 63.05 159.65 63.8 159.6 63.8 140.3 65.4 140.25 65.4 139.25 65.45 138.25 65.45 137.3 65.45 132.15 65.35 132.0 64.1 Q131.65 62.6 130.85 62.6 130.25 62.6 130.05 62.95 L129.9 63.4 129.2 63.5 128.05 63.75 Q127.7 63.5 127.7 62.6 127.65 61.85 126.9 61.5 L126.15 61.9 126.0 63.2 125.95 63.2 125.4 61.4 Q124.95 60.35 123.35 60.6 L122.45 57.2 121.45 54.0 Q120.6 51.85 120.35 50.5 L118.5 43.75 Q117.8 41.5 116.8 40.5 116.25 39.95 115.95 38.95 115.7 38.2 114.9 37.9 114.15 38.45 114.15 40.0 114.15 42.8 114.9 46.75 L116.25 53.45 117.4 60.9 118.05 63.45 111.55 63.0 Q106.5 63.0 101.8 64.1 97.85 65.1 97.7 65.75" fill="url(#gradient11)" fill-rule="evenodd" stroke="none"/>
    <path d="M93.55 66.2 L89.75 66.55 88.55 66.65 87.95 65.3 87.2 64.35 87.65 65.45 87.95 66.65 87.9 66.7 87.75 66.75 87.6 66.75 77.1 36.2 73.9 27.75 73.75 27.3 72.0 22.65 71.8 22.05 71.95 21.1 72.4 21.2 77.5 21.45 79.9 28.0 80.05 28.0 80.05 27.95 79.3 24.95 79.3 22.15 79.35 21.95 80.05 21.75 82.5 30.45 86.05 43.9 Q88.15 51.5 89.65 54.8 L92.3 60.35 Q93.55 63.35 93.55 65.75 L93.55 66.2" fill="url(#gradient12)" fill-rule="evenodd" stroke="none"/>
    <path d="M118.05 63.45 L117.4 60.9 116.25 53.45 114.9 46.75 Q114.15 42.8 114.15 40.0 114.15 38.45 114.9 37.9 115.7 38.2 115.95 38.95 116.25 39.95 116.8 40.5 117.8 41.5 118.5 43.75 L120.35 50.5 Q120.6 51.85 121.45 54.0 L122.45 57.2 123.35 60.6 Q124.95 60.35 125.4 61.4 L125.95 63.2 126.0 63.2 126.15 61.9 126.9 61.5 Q127.65 61.85 127.7 62.6 127.7 63.5 128.05 63.75 L129.2 63.5 129.9 63.4 130.05 62.95 Q130.25 62.6 130.85 62.6 131.65 62.6 132.0 64.1 L132.15 65.35 Q124.95 65.15 121.85 64.25 L118.05 63.45" fill="url(#gradient13)" fill-rule="evenodd" stroke="none"/>
    <path d="M140.3 65.6 L139.25 65.6 139.25 65.45 140.25 65.4 140.3 65.6" fill="url(#gradient14)" fill-rule="evenodd" stroke="none"/>
    <path d="M140.3 65.4 L140.3 65.6 140.25 65.4 140.3 65.4" fill="url(#gradient15)" fill-rule="evenodd" stroke="none"/>
    <path d="M87.6 66.75 L76.3 67.85 76.3 67.75 Q76.3 66.6 67.95 41.85 63.2 27.8 60.55 21.45 65.4 20.3 71.1 19.65 L71.5 20.95 71.8 22.05 72.0 22.65 73.75 27.3 73.9 27.75 77.1 36.2 87.6 66.75" fill="url(#gradient16)" fill-rule="evenodd" stroke="none"/>
    <path d="M42.8 65.15 L42.75 65.1 42.3 64.85 Q41.25 64.3 40.3 64.15 L39.65 63.2 39.65 62.9 40.2 62.45 40.75 61.95 41.55 62.1 Q42.5 62.4 43.7 63.2 L45.6 63.85 47.45 64.35 54.1 64.1 53.45 62.45 51.55 57.5 51.75 57.2 51.4 57.15 50.7 55.5 47.85 48.4 43.55 36.2 44.5 35.95 44.6 36.25 44.7 36.4 47.45 36.4 Q49.3 36.25 50.35 35.45 51.2 34.75 51.2 33.95 L50.85 32.85 50.1 31.55 Q49.55 30.55 47.45 29.85 46.45 28.95 44.0 28.1 L43.85 27.85 44.15 27.6 Q46.55 26.25 51.05 24.4 L51.25 24.35 53.75 32.55 Q55.4 37.55 58.95 46.9 62.55 56.45 63.95 61.15 64.35 62.45 65.5 65.0 L66.65 67.55 63.5 67.5 Q56.4 67.35 54.2 66.35 L45.5 65.6 44.75 65.9 44.65 65.8 42.8 65.15" fill="url(#gradient17)" fill-rule="evenodd" stroke="none"/>
    <path d="M51.4 57.15 L50.2 56.9 47.35 56.45 47.1 56.05 Q46.8 55.45 46.0 55.3 L43.25 46.2 39.95 36.6 39.85 36.6 41.3 36.45 43.55 36.2 47.85 48.4 50.7 55.5 51.4 57.15" fill="url(#gradient18)" fill-rule="evenodd" stroke="none"/>
    <path d="M46.0 55.3 L43.95 55.4 43.15 55.2 42.75 55.05 40.35 53.85 38.9 48.55 36.95 43.35 37.1 42.9 37.15 42.6 37.15 42.55 Q37.15 41.95 36.4 40.6 L36.35 40.55 36.2 40.25 35.75 39.4 35.65 39.1 35.75 38.45 Q36.6 37.65 38.15 36.85 L38.3 36.85 38.45 36.85 Q38.45 37.7 38.7 38.25 L38.9 38.25 38.7 37.3 38.45 36.8 39.35 36.65 39.85 36.6 39.95 36.6 43.25 46.2 46.0 55.3" fill="url(#gradient19)" fill-rule="evenodd" stroke="none"/>
    <path d="M42.85 59.4 L43.9 59.45 48.45 58.9 48.6 59.6 Q48.6 60.65 47.65 61.5 46.85 62.25 46.35 62.25 44.65 62.25 42.8 61.65 L41.55 61.1 41.75 60.8 42.8 59.5 42.85 59.4 M38.3 36.85 L38.35 36.8 38.45 36.8 38.45 36.85 38.3 36.85" fill="#c0e7e6" fill-rule="evenodd" stroke="none"/>
    <path d="M48.45 58.9 L49.75 58.5 51.55 57.5 53.45 62.45 54.1 64.1 47.45 64.35 45.6 63.85 43.7 63.2 Q42.5 62.4 41.55 62.1 L40.75 61.95 41.5 61.1 41.55 61.1 42.8 61.65 Q44.65 62.25 46.35 62.25 46.85 62.25 47.65 61.5 48.6 60.65 48.6 59.6 L48.45 58.9" fill="url(#gradient20)" fill-rule="evenodd" stroke="none"/>
  </g>
  <defs>
    <radialGradient cx="0" cy="0" gradientTransform="matrix(0.0269, 0.0, 0.0, 0.0269, 259.55, 48.75)" gradientUnits="userSpaceOnUse" id="gradient0" r="819.2" spreadMethod="pad">
      <stop offset="0.0" stop-color="#ffffff"/>
      <stop offset="1.0" stop-color="#c0e7e6" stop-opacity="0.8509804"/>
    </radialGradient>
    <radialGradient cx="0" cy="0" gradientTransform="matrix(0.0093, 0.0, 0.0, 0.0093, 270.8, 39.0)" gradientUnits="userSpaceOnUse" id="gradient1" r="819.2" spreadMethod="pad">
      <stop offset="0.0" stop-color="#ffffff"/>
      <stop offset="1.0" stop-color="#c0e7e6" stop-opacity="0.8509804"/>
    </radialGradient>
    <radialGradient cx="0" cy="0" gradientTransform="matrix(0.0098, 0.0, 0.0, 0.0098, 270.05, 49.15)" gradientUnits="userSpaceOnUse" id="gradient2" r="819.2" spreadMethod="pad">
      <stop offset="0.0" stop-color="#ffffff"/>
      <stop offset="1.0" stop-color="#c0e7e6" stop-opacity="0.8509804"/>
    </radialGradient>
    <radialGradient cx="0" cy="0" gradientTransform="matrix(0.0062, 0.0, 0.0, 0.0062, 272.3, 41.65)" gradientUnits="userSpaceOnUse" id="gradient3" r="819.2" spreadMethod="pad">
      <stop offset="0.0" stop-color="#ffffff"/>
      <stop offset="1.0" stop-color="#c0e7e6" stop-opacity="0.8509804"/>
    </radialGradient>
    <radialGradient cx="0" cy="0" gradientTransform="matrix(0.0054, 0.0, 0.0, 0.0054, 269.3, 50.25)" gradientUnits="userSpaceOnUse" id="gradient4" r="819.2" spreadMethod="pad">
      <stop offset="0.0" stop-color="#ffffff"/>
      <stop offset="1.0" stop-color="#c0e7e6" stop-opacity="0.8509804"/>
    </radialGradient>
    <radialGradient cx="0" cy="0" gradientTransform="matrix(0.0339, 0.0, 0.0, 0.0339, 235.95, 36.75)" gradientUnits="userSpaceOnUse" id="gradient5" r="819.2" spreadMethod="pad">
      <stop offset="0.0" stop-color="#ffffff"/>
      <stop offset="1.0" stop-color="#c0e7e6" stop-opacity="0.8509804"/>
    </radialGradient>
    <radialGradient cx="0" cy="0" gradientTransform="matrix(0.0033, 0.0, 0.0, 0.0033, 250.55, 65.25)" gradientUnits="userSpaceOnUse" id="gradient6" r="819.2" spreadMethod="pad">
      <stop offset="0.0" stop-color="#ffffff"/>
      <stop offset="1.0" stop-color="#c0e7e6" stop-opacity="0.8509804"/>
    </radialGradient>
    <radialGradient cx="0" cy="0" gradientTransform="matrix(0.1136, 0.0, 0.0, 0.1136, 159.5, 48.0)" gradientUnits="userSpaceOnUse" id="gradient7" r="819.2" spreadMethod="pad">
      <stop offset="0.0" stop-color="#ffffff"/>
      <stop offset="1.0" stop-color="#c0e7e6" stop-opacity="0.8509804"/>
    </radialGradient>
    <radialGradient cx="0" cy="0" gradientTransform="matrix(0.0788, 0.0, 0.0, 0.0788, 179.35, 41.65)" gradientUnits="userSpaceOnUse" id="gradient8" r="819.2" spreadMethod="pad">
      <stop offset="0.0" stop-color="#ffffff"/>
      <stop offset="1.0" stop-color="#c0e7e6" stop-opacity="0.8509804"/>
    </radialGradient>
    <linearGradient gradientTransform="matrix(0.0029, 0.0096, -0.0039, 0.0012, 224.55, 53.05)" gradientUnits="userSpaceOnUse" id="gradient9" spreadMethod="pad" x1="-819.2" x2="819.2">
      <stop offset="0.0" stop-color="#ffffff"/>
      <stop offset="1.0" stop-color="#c0e7e6" stop-opacity="0.8509804"/>
    </linearGradient>
    <linearGradient gradientTransform="matrix(0.0023, 0.0119, -0.0041, 8.0E-4, 197.35, 54.15)" gradientUnits="userSpaceOnUse" id="gradient10" spreadMethod="pad" x1="-819.2" x2="819.2">
      <stop offset="0.0" stop-color="#ffffff"/>
      <stop offset="1.0" stop-color="#c0e7e6" stop-opacity="0.8509804"/>
    </linearGradient>
    <radialGradient cx="0" cy="0" gradientTransform="matrix(0.0807, 0.0, 0.0, 0.0807, 142.65, 42.0)" gradientUnits="userSpaceOnUse" id="gradient11" r="819.2" spreadMethod="pad">
      <stop offset="0.0" stop-color="#ffffff"/>
      <stop offset="1.0" stop-color="#c0e7e6" stop-opacity="0.8509804"/>
    </radialGradient>
    <radialGradient cx="0" cy="0" gradientTransform="matrix(0.0322, 0.0, 0.0, 0.0322, 81.55, 45.4)" gradientUnits="userSpaceOnUse" id="gradient12" r="819.2" spreadMethod="pad">
      <stop offset="0.0" stop-color="#ffffff"/>
      <stop offset="1.0" stop-color="#c0e7e6" stop-opacity="0.8509804"/>
    </radialGradient>
    <radialGradient cx="0" cy="0" gradientTransform="matrix(0.0245, 0.0, 0.0, 0.0245, 117.55, 57.75)" gradientUnits="userSpaceOnUse" id="gradient13" r="819.2" spreadMethod="pad">
      <stop offset="0.0" stop-color="#ffffff"/>
      <stop offset="1.0" stop-color="#c0e7e6" stop-opacity="0.8509804"/>
    </radialGradient>
    <linearGradient gradientTransform="matrix(0.0023, 0.0087, -0.0742, 0.0193, 201.5, 55.1)" gradientUnits="userSpaceOnUse" id="gradient14" spreadMethod="pad" x1="-819.2" x2="819.2">
      <stop offset="0.0" stop-color="#99b8dc"/>
      <stop offset="1.0" stop-color="#829edb"/>
    </linearGradient>
    <linearGradient gradientTransform="matrix(0.0023, 0.0073, -0.0718, 0.0224, 202.6, 58.45)" gradientUnits="userSpaceOnUse" id="gradient15" spreadMethod="pad" x1="-819.2" x2="819.2">
      <stop offset="0.0" stop-color="#99b8dc"/>
      <stop offset="1.0" stop-color="#829edb"/>
    </linearGradient>
    <radialGradient cx="0" cy="0" gradientTransform="matrix(0.0433, 0.0, 0.0, 0.0433, 75.55, 53.25)" gradientUnits="userSpaceOnUse" id="gradient16" r="819.2" spreadMethod="pad">
      <stop offset="0.0" stop-color="#ffffff"/>
      <stop offset="1.0" stop-color="#c0e7e6" stop-opacity="0.8509804"/>
    </radialGradient>
    <radialGradient cx="0" cy="0" gradientTransform="matrix(0.0451, 0.0, 0.0, 0.0451, 58.35, 60.0)" gradientUnits="userSpaceOnUse" id="gradient17" r="819.2" spreadMethod="pad">
      <stop offset="0.0" stop-color="#ffffff"/>
      <stop offset="1.0" stop-color="#c0e7e6" stop-opacity="0.8509804"/>
    </radialGradient>
    <radialGradient cx="0" cy="0" gradientTransform="matrix(0.0243, 0.0, 0.0, 0.0243, 47.1, 55.1)" gradientUnits="userSpaceOnUse" id="gradient18" r="819.2" spreadMethod="pad">
      <stop offset="0.0" stop-color="#ffffff"/>
      <stop offset="1.0" stop-color="#c0e7e6" stop-opacity="0.8509804"/>
    </radialGradient>
    <radialGradient cx="0" cy="0" gradientTransform="matrix(0.0192, 0.0, 0.0, 0.0192, 41.1, 51.75)" gradientUnits="userSpaceOnUse" id="gradient19" r="819.2" spreadMethod="pad">
      <stop offset="0.0" stop-color="#ffffff"/>
      <stop offset="1.0" stop-color="#c0e7e6" stop-opacity="0.8509804"/>
    </radialGradient>
    <radialGradient cx="0" cy="0" gradientTransform="matrix(0.012, 0.0, 0.0, 0.012, 50.45, 63.0)" gradientUnits="userSpaceOnUse" id="gradient20" r="819.2" spreadMethod="pad">
      <stop offset="0.0" stop-color="#ffffff"/>
      <stop offset="1.0" stop-color="#c0e7e6" stop-opacity="0.8509804"/>
    </radialGradient>
  </defs>
</svg>
