<?xml version="1.0" encoding="UTF-8" standalone="no"?>
<svg xmlns:ffdec="https://www.free-decompiler.com/flash" xmlns:xlink="http://www.w3.org/1999/xlink" ffdec:objectType="shape" height="319.1px" width="25.0px" xmlns="http://www.w3.org/2000/svg">
  <g transform="matrix(1.0, 0.0, 0.0, 1.0, 12.5, 158.8)">
    <path d="M6.5 127.4 L6.5 -124.4 6.75 -128.7 6.65 -130.1 Q6.5 -132.75 6.5 -140.3 6.5 -148.85 6.75 -151.35 7.0 -154.2 7.6 -156.5 L7.7 -157.9 7.85 -158.8 12.0 -158.8 12.4 -156.0 12.5 -149.9 12.5 -147.1 12.5 -126.75 12.1 -126.45 12.15 -123.45 12.2 -121.7 Q12.5 -96.85 12.5 0.85 L12.25 141.85 11.65 155.4 11.35 160.3 6.55 160.3 6.5 158.05 Q6.5 151.95 6.75 150.25 L7.0 148.85 6.5 141.85 6.5 130.4 6.5 127.4 M-7.65 160.3 L-12.45 160.3 -12.5 158.05 -12.25 150.25 -12.0 148.85 -12.5 141.85 -12.5 -124.4 -12.25 -128.7 -12.35 -130.1 -12.5 -140.3 -12.25 -151.35 Q-12.0 -154.2 -11.4 -156.5 L-11.3 -157.9 -11.1 -158.8 -6.95 -158.8 -6.6 -156.0 -6.5 -149.9 -6.5 -147.1 -6.5 -126.75 -6.9 -126.45 -6.85 -123.45 Q-6.5 -101.65 -6.5 -9.6 L-6.5 0.85 -6.5 12.9 Q-6.5 84.0 -6.75 141.85 L-7.35 155.4 -7.65 160.3" fill="#34270e" fill-rule="evenodd" stroke="none"/>
    <path d="M7.85 -158.8 L7.7 -157.9 7.6 -156.5 Q7.0 -154.2 6.75 -151.35 6.5 -148.85 6.5 -140.3 6.5 -132.75 6.65 -130.1 L6.75 -128.7 6.5 -124.4 6.5 127.4 6.45 129.7 6.5 130.4 6.5 141.85 7.0 148.85 6.75 150.25 Q6.5 151.95 6.5 158.05 L6.55 160.3 3.2 160.3 3.2 160.2 3.05 157.45 3.0 154.0 3.05 148.3 2.95 142.55 3.2 128.45 3.45 119.2 3.45 113.45 3.4 111.75 3.45 108.45 3.45 108.05 3.7 106.15 3.95 104.15 3.45 98.5 3.2 95.15 3.45 90.0 3.65 87.45 3.45 86.2 Q3.45 79.2 2.95 75.05 L3.2 61.0 3.45 50.55 2.95 22.05 2.65 12.45 2.85 8.4 2.95 -4.55 2.75 -18.75 2.75 -19.2 2.85 -19.35 2.9 -25.25 2.95 -26.6 3.2 -28.15 3.5 -30.3 3.5 -30.35 2.95 -40.95 2.95 -59.1 Q2.95 -65.65 3.45 -79.0 L3.3 -85.0 3.65 -85.6 Q3.4 -99.6 3.45 -120.7 L3.45 -153.8 3.05 -158.8 7.85 -158.8" fill="#cd9e3f" fill-rule="evenodd" stroke="none"/>
    <path d="M3.05 -158.8 L3.45 -153.8 3.45 -120.7 Q3.4 -99.6 3.65 -85.6 L3.3 -85.0 3.45 -79.0 Q2.95 -65.65 2.95 -59.1 L2.95 -40.95 3.5 -30.35 3.5 -30.3 3.2 -28.15 2.95 -26.6 2.9 -25.25 2.85 -19.35 2.75 -19.2 2.75 -18.75 2.95 -4.55 2.85 8.4 2.65 12.45 2.95 22.05 3.45 50.55 3.2 61.0 2.95 75.05 Q3.45 79.2 3.45 86.2 L3.65 87.45 3.45 90.0 3.2 95.15 3.45 98.5 3.95 104.15 3.7 106.15 3.45 108.05 3.45 108.45 3.4 111.75 3.45 113.45 3.45 119.2 3.2 128.45 2.95 142.55 3.05 148.3 3.0 154.0 3.05 157.45 3.2 160.2 3.2 160.3 -4.55 160.3 -4.55 157.85 Q-3.55 139.4 -3.55 130.05 L-3.65 116.25 -3.55 102.55 -3.4 88.8 -3.3 83.3 -3.3 83.2 Q-4.05 72.55 -4.05 67.5 L-3.05 31.5 -2.8 23.35 -3.05 12.3 -3.05 0.05 Q-3.55 -1.75 -3.45 -6.3 L-3.6 -7.2 -3.55 -9.6 -3.55 -30.4 -3.05 -72.8 -4.05 -97.4 -3.8 -112.25 -3.65 -121.7 -3.55 -135.7 -3.95 -152.3 -4.05 -154.95 -4.1 -158.8 3.05 -158.8 M6.5 130.4 L6.45 129.7 6.5 127.4 6.5 130.4" fill="#8e6c24" fill-rule="evenodd" stroke="none"/>
    <path d="M-6.95 -158.8 L-4.1 -158.8 -4.05 -154.95 -3.95 -152.3 -3.55 -135.7 -3.65 -121.7 -3.8 -112.25 -4.05 -97.4 -3.05 -72.8 -3.55 -30.4 -3.55 -9.6 -3.6 -7.2 -3.45 -6.3 Q-3.55 -1.75 -3.05 0.05 L-3.05 12.3 -2.8 23.35 -3.05 31.5 -4.05 67.5 Q-4.05 72.55 -3.3 83.2 L-3.3 83.3 -3.4 88.8 -3.55 102.55 -3.65 116.25 -3.55 130.05 Q-3.55 139.4 -4.55 157.85 L-4.55 160.3 -7.65 160.3 -7.35 155.4 -6.75 141.85 Q-6.5 84.0 -6.5 12.9 L-6.5 0.85 -6.5 -9.6 Q-6.5 -101.65 -6.85 -123.45 L-6.9 -126.45 -6.5 -126.75 -6.5 -147.1 -6.5 -149.9 -6.6 -156.0 -6.95 -158.8" fill="#473612" fill-rule="evenodd" stroke="none"/>
  </g>
</svg>
