<?xml version="1.0" encoding="UTF-8" standalone="no"?>
<svg xmlns:ffdec="https://www.free-decompiler.com/flash" xmlns:xlink="http://www.w3.org/1999/xlink" ffdec:objectType="shape" height="46.8px" width="25.3px" xmlns="http://www.w3.org/2000/svg">
  <g transform="matrix(1.0, 0.0, 0.0, 1.0, 12.05, 21.8)">
    <path d="M13.25 -13.55 Q13.25 -9.25 11.1 -3.95 L7.35 4.15 Q6.25 4.3 5.85 5.3 L5.2 5.1 8.15 9.4 Q12.4 15.8 12.4 17.3 12.4 18.05 10.25 19.8 6.9 22.5 0.3 24.6 L-0.45 24.9 -1.75 25.0 Q-4.4 25.0 -8.2 15.75 -11.65 7.4 -11.65 4.7 L-11.6 4.35 -12.05 4.1 -11.45 1.2 Q-10.3 -3.85 -9.15 -5.75 L-9.55 -6.1 -9.7 -5.95 -10.25 -5.7 Q-11.25 -6.9 -11.25 -7.35 -11.25 -9.65 -7.45 -13.65 -4.1 -17.2 -0.95 -18.95 7.85 -23.95 11.35 -20.15 13.25 -18.05 13.25 -13.55 M9.5 -19.15 Q4.55 -19.15 2.05 -17.9 0.45 -17.1 -4.0 -13.15 L-7.2 -9.55 -8.55 -7.55 -7.55 -6.95 -7.45 -6.95 -7.45 -6.9 -7.05 -6.55 Q-3.65 -3.2 -2.2 -2.45 2.85 0.95 5.8 3.25 L8.25 -3.3 Q11.25 -10.95 11.25 -13.45 10.5 -19.15 9.5 -19.15 M1.85 4.25 L2.25 3.65 -1.3 0.95 -7.55 -4.35 -9.25 1.35 -9.55 2.4 Q-9.15 3.7 -9.05 5.85 L-9.05 6.9 Q-9.05 8.55 -5.8 15.55 -2.45 22.8 -1.2 22.8 1.15 22.6 10.0 16.4 L2.45 5.15 1.85 4.25" fill="#000000" fill-rule="evenodd" stroke="none"/>
    <path d="M1.85 4.25 L2.45 5.15 10.0 16.4 Q1.15 22.6 -1.2 22.8 -2.45 22.8 -5.8 15.55 -9.05 8.55 -9.05 6.9 L-9.05 5.85 Q-9.15 3.7 -9.55 2.4 L-9.25 1.35 -7.55 -4.35 -1.3 0.95 2.25 3.65 1.85 4.25" fill="#aa8a71" fill-rule="evenodd" stroke="none"/>
    <path d="M9.5 -19.15 Q10.5 -19.15 11.25 -13.45 11.25 -10.95 8.25 -3.3 L5.8 3.25 Q2.85 0.95 -2.2 -2.45 -3.65 -3.2 -7.05 -6.55 L-7.45 -6.9 -7.45 -6.95 -7.55 -6.95 -8.55 -7.55 -7.2 -9.55 -4.0 -13.15 Q0.45 -17.1 2.05 -17.9 4.55 -19.15 9.5 -19.15" fill="#942403" fill-rule="evenodd" stroke="none"/>
  </g>
</svg>
