<?xml version="1.0" encoding="UTF-8" standalone="no"?>
<svg xmlns:ffdec="https://www.free-decompiler.com/flash" xmlns:xlink="http://www.w3.org/1999/xlink" ffdec:objectType="shape" height="100.35px" width="26.0px" xmlns="http://www.w3.org/2000/svg">
  <g transform="matrix(1.0, 0.0, 0.0, 1.0, 14.5, 74.85)">
    <path d="M-1.55 -53.25 L-1.85 -46.5 -1.85 -46.15 -2.0 -42.25 -2.05 -34.65 -1.85 -29.2 -1.8 -28.4 -1.5 -25.1 -1.5 -24.6 -1.5 -24.35 Q-1.5 -22.85 0.0 -20.6 2.1 -17.5 5.5 -17.5 L6.1 -17.55 8.0 -17.2 8.0 -18.15 8.0 -18.4 8.0 -18.5 8.0 -18.55 7.9 -20.5 7.6 -24.9 7.4 -32.7 7.4 -35.2 7.15 -40.5 7.1 -41.05 6.5 -48.2 5.55 -56.05 5.05 -58.3 Q3.15 -65.4 -1.0 -70.85 L-1.0 -68.05 Q-1.0 -65.7 -1.55 -53.25 M1.8 -70.8 L2.6 -69.45 Q3.4 -67.35 3.9 -66.6 L5.7 -63.05 Q6.85 -60.65 7.0 -59.1 8.3 -48.65 8.45 -43.85 10.2 -19.15 10.2 -13.3 L10.15 -10.7 10.25 -10.7 10.6 -11.15 Q11.25 -10.35 11.45 -8.15 L11.5 -5.2 Q11.5 -2.35 11.0 -0.45 L10.9 1.1 10.35 1.35 9.0 2.95 Q7.3 4.0 0.45 4.0 L-9.2 3.35 Q-13.4 2.35 -14.5 -0.6 L-14.5 -10.35 -14.3 -10.55 -13.65 -10.7 -13.65 -53.7 Q-12.4 -63.95 -5.85 -70.9 L-2.2 -74.6 -2.2 -74.65 -2.15 -74.65 -1.95 -74.85 -1.3 -74.65 -1.15 -74.4 Q-0.7 -74.3 -0.2 -74.0 L1.8 -70.8 M4.5 -10.75 L8.5 -10.7 Q8.0 -11.75 7.95 -13.1 L7.95 -15.2 7.0 -15.0 Q2.1 -15.0 -0.85 -18.5 L-1.15 -18.85 -1.75 -19.95 Q-2.35 -18.9 -4.2 -17.45 -6.35 -15.75 -8.0 -15.0 L-11.45 -15.0 -11.5 -15.75 -11.65 -15.7 -11.65 -14.95 -11.65 -13.5 -11.75 -10.5 -11.75 -10.4 -8.15 -10.6 -8.15 -10.45 -8.15 -10.4 Q-5.05 -10.7 4.5 -10.65 L4.55 -10.65 4.5 -10.75 M9.5 -9.0 L-12.7 -9.0 -12.8 -6.7 -1.5 -6.8 4.8 -6.75 9.4 -6.7 9.55 -7.25 9.5 -7.35 9.5 -9.0 M9.3 -3.35 L9.3 -4.95 4.4 -4.75 -1.3 -4.65 -7.0 -4.8 -12.85 -5.05 -13.0 -3.2 Q-13.1 -1.7 -12.3 -0.75 -10.05 2.05 0.45 2.05 7.3 2.05 9.45 -0.2 L9.35 -0.7 9.3 -3.35 M-3.45 -70.35 L-3.4 -70.45 -3.45 -70.4 -3.45 -70.35 -4.2 -69.45 -6.7 -66.6 -6.95 -66.65 -8.9 -63.0 -10.5 -59.45 Q-11.4 -57.15 -11.5 -55.55 L-11.55 -54.2 -11.9 -41.1 -11.9 -40.6 -11.9 -40.35 -11.9 -40.25 -11.9 -40.15 -11.8 -32.8 -11.75 -25.55 -11.75 -25.5 -11.65 -21.3 -11.65 -16.6 -11.65 -16.5 -11.5 -16.5 -9.65 -17.25 Q-7.45 -17.95 -6.3 -18.7 L-6.25 -18.95 -6.2 -18.95 -6.15 -19.25 -4.85 -20.15 Q-4.0 -20.95 -4.0 -22.25 L-4.1 -23.15 -4.0 -23.3 -4.0 -26.9 -4.0 -31.4 -4.0 -35.4 -3.95 -38.3 -3.75 -47.95 -3.5 -55.1 Q-3.4 -57.5 -3.65 -62.35 L-3.8 -64.85 -3.85 -65.15 Q-3.85 -68.1 -3.45 -70.35 M-1.7 -72.7 L-1.75 -72.65 -1.5 -72.45 -1.45 -72.45 -1.7 -72.7 M-0.8 12.65 L0.8 12.75 Q3.1 13.05 4.9 14.35 7.45 16.2 7.45 19.3 7.45 22.0 6.7 23.15 5.1 25.5 -0.15 25.5 -7.2 25.5 -8.8 22.65 -9.3 21.75 -9.25 20.6 L-9.0 19.65 Q-9.0 16.3 -6.45 14.4 -4.7 13.05 -2.35 12.75 L-0.8 12.65 M-6.4 22.15 Q-4.85 23.55 -0.35 23.55 4.35 23.55 5.5 21.5 6.05 20.45 5.7 19.65 5.7 16.95 3.0 15.6 1.15 14.75 -0.8 14.75 -5.15 14.75 -6.6 16.7 -7.3 17.65 -7.3 19.65 -7.3 21.3 -6.4 22.15" fill="#000000" fill-rule="evenodd" stroke="none"/>
    <path d="M9.3 -3.35 L9.35 -0.7 9.45 -0.2 Q7.3 2.05 0.45 2.05 -10.05 2.05 -12.3 -0.75 -13.1 -1.7 -13.0 -3.2 L-12.85 -5.05 -7.0 -4.8 -1.3 -4.65 4.4 -4.75 9.3 -4.95 9.3 -3.35 M-6.4 22.15 Q-7.3 21.3 -7.3 19.65 -7.3 17.65 -6.6 16.7 -5.15 14.75 -0.8 14.75 1.15 14.75 3.0 15.6 5.7 16.95 5.7 19.65 6.05 20.45 5.5 21.5 4.35 23.55 -0.35 23.55 -4.85 23.55 -6.4 22.15" fill="#8e6c24" fill-rule="evenodd" stroke="none"/>
    <path d="M9.5 -9.0 L9.5 -7.35 9.55 -7.25 9.4 -6.7 4.8 -6.75 -1.5 -6.8 -12.8 -6.7 -12.7 -9.0 9.5 -9.0" fill="#cc9d3c" fill-rule="evenodd" stroke="none"/>
    <path d="M-11.45 -15.0 L-11.45 -14.95 -11.2 -13.5 -11.5 -13.5 -11.65 -13.5 -11.65 -14.95 -11.45 -15.0 M4.5 -10.65 L4.5 -10.75 4.55 -10.65 4.5 -10.65 M-3.45 -70.35 L-3.45 -70.4 -3.4 -70.45 -3.45 -70.35 M-11.5 -16.5 L-11.65 -16.5 -11.65 -16.6 -11.45 -16.7 -11.5 -16.5" fill="#60606c" fill-rule="evenodd" stroke="none"/>
    <path d="M-11.65 -14.95 L-11.65 -15.7 -11.5 -15.75 -11.45 -15.0 -11.65 -14.95" fill="#a9a9b1" fill-rule="evenodd" stroke="none"/>
    <path d="M-1.55 -53.25 L3.0 -57.0 5.05 -58.3 5.55 -56.05 6.5 -48.2 5.5 -47.35 0.7 -43.8 -2.0 -41.95 -2.0 -42.25 -1.85 -46.15 -1.85 -46.5 -1.55 -53.25 M7.1 -41.05 L7.15 -40.5 7.4 -35.2 4.3 -32.75 -1.8 -28.4 -1.85 -29.2 -2.05 -34.65 0.5 -36.6 Q4.75 -39.8 7.1 -41.05 M-3.65 -62.35 Q-3.4 -57.5 -3.5 -55.1 L-3.75 -47.95 -8.0 -44.8 -11.9 -41.1 -11.55 -54.2 -8.85 -56.35 Q-5.1 -59.5 -3.65 -61.55 L-3.65 -62.35 M-3.95 -38.3 L-4.0 -35.4 -4.0 -31.4 -4.05 -31.4 -7.1 -29.5 -11.75 -25.55 -11.8 -32.8 -3.95 -38.3 M-4.0 -26.9 L-4.0 -23.3 -4.1 -23.15 -4.0 -22.25 Q-4.0 -20.95 -4.85 -20.15 L-6.15 -19.25 -6.2 -18.95 -6.25 -18.95 -6.3 -18.7 Q-7.45 -17.95 -9.65 -17.25 L-11.5 -16.5 -11.45 -16.7 -11.65 -16.6 -11.65 -21.3 -6.4 -25.1 -4.0 -26.9" fill="#a7b9be" fill-rule="evenodd" stroke="none"/>
    <path d="M-11.45 -15.0 L-8.0 -15.0 Q-6.35 -15.75 -4.2 -17.45 -2.35 -18.9 -1.75 -19.95 L-1.15 -18.85 -0.85 -18.5 Q2.1 -15.0 7.0 -15.0 L7.95 -15.2 7.95 -13.1 Q8.0 -11.75 8.5 -10.7 L4.5 -10.75 4.5 -10.65 Q-5.05 -10.7 -8.15 -10.4 L-8.15 -10.45 -8.15 -10.6 -11.75 -10.4 -11.75 -10.5 -11.65 -13.5 -11.5 -13.5 -11.2 -13.5 -11.45 -14.95 -11.45 -15.0 M-3.45 -70.35 Q-3.85 -68.1 -3.85 -65.15 L-3.8 -64.85 -3.65 -62.35 -3.65 -61.55 Q-5.1 -59.5 -8.85 -56.35 L-11.55 -54.2 -11.5 -55.55 Q-11.4 -57.15 -10.5 -59.45 L-8.9 -63.0 -6.95 -66.65 -6.7 -66.6 -4.2 -69.45 -3.45 -70.35 M-3.75 -47.95 L-3.95 -38.3 -11.8 -32.8 -11.9 -40.15 -11.9 -40.25 -11.9 -40.35 -11.9 -40.6 -11.9 -41.1 -8.0 -44.8 -3.75 -47.95 M-4.0 -31.4 L-4.0 -26.9 -6.4 -25.1 -11.65 -21.3 -11.75 -25.5 -11.75 -25.55 -7.1 -29.5 -4.05 -31.4 -4.0 -31.4" fill="#cdd7da" fill-rule="evenodd" stroke="none"/>
    <path d="M5.05 -58.3 L3.0 -57.0 -1.55 -53.25 Q-1.0 -65.7 -1.0 -68.05 L-1.0 -70.85 Q3.15 -65.4 5.05 -58.3 M-2.0 -42.25 L-2.0 -41.95 0.7 -43.8 5.5 -47.35 6.5 -48.2 7.1 -41.05 Q4.75 -39.8 0.5 -36.6 L-2.05 -34.65 -2.0 -42.25 M7.4 -35.2 L7.4 -32.7 7.6 -24.9 7.9 -20.5 8.0 -18.55 8.0 -18.5 8.0 -18.4 8.0 -18.15 8.0 -17.2 6.1 -17.55 5.5 -17.5 Q2.1 -17.5 0.0 -20.6 -1.5 -22.85 -1.5 -24.35 L-1.5 -24.6 -1.5 -25.1 -1.8 -28.4 4.3 -32.75 7.4 -35.2" fill="#8ca4aa" fill-rule="evenodd" stroke="none"/>
  </g>
</svg>
