<?xml version="1.0" encoding="UTF-8" standalone="no"?>
<svg xmlns:ffdec="https://www.free-decompiler.com/flash" xmlns:xlink="http://www.w3.org/1999/xlink" ffdec:objectType="shape" height="91.55px" width="99.4px" xmlns="http://www.w3.org/2000/svg">
  <g transform="matrix(1.0, 0.0, 0.0, 1.0, 44.4, 39.55)">
    <path d="M18.05 -8.1 L25.6 -7.0 Q25.35 -7.75 25.35 -8.7 L25.5 -12.1 Q25.4 -13.25 25.45 -15.55 L25.5 -18.5 25.5 -30.55 21.55 -29.8 19.05 -29.35 17.6 -29.4 17.6 -29.5 17.55 -29.55 17.55 -29.5 12.2 -29.5 Q14.0 -27.75 15.25 -25.0 L16.15 -20.35 16.5 -16.75 Q16.5 -13.75 16.05 -11.85 L15.45 -9.3 15.4 -9.0 15.55 -8.95 15.55 -9.25 16.15 -9.25 15.75 -8.85 16.65 -8.5 17.95 -7.85 18.0 -7.8 18.05 -8.1 M28.0 -29.0 Q27.5 -27.15 27.5 -24.85 L27.5 -17.0 28.0 -17.0 28.7 -16.45 29.45 -16.55 39.7 -17.05 Q39.1 -18.8 38.95 -21.5 L39.0 -28.1 38.9 -29.85 39.0 -30.35 31.15 -30.75 28.5 -30.7 28.0 -29.0 M12.9 -24.65 L12.8 -24.9 11.85 -27.0 Q10.45 -29.35 8.75 -29.35 L7.2 -29.35 7.0 -29.35 6.6 -29.35 -1.45 -29.15 Q0.2 -27.8 2.0 -25.45 L2.65 -24.5 3.25 -23.6 4.2 -22.15 5.05 -20.65 6.25 -18.45 6.3 -18.35 6.45 -18.05 7.3 -16.45 8.05 -14.95 8.45 -14.2 8.5 -14.1 8.55 -14.0 8.95 -13.3 9.45 -12.4 10.1 -11.2 10.25 -10.9 11.8 -8.05 12.0 -7.65 12.65 -6.3 12.95 -7.7 13.05 -8.15 13.55 -10.75 13.65 -11.25 14.1 -13.6 14.25 -14.4 14.5 -16.15 14.5 -16.75 14.45 -18.0 14.35 -19.0 13.95 -21.15 13.65 -22.45 13.05 -24.25 12.9 -24.65 M8.9 -31.6 L10.8 -31.8 17.15 -32.2 17.25 -32.35 19.1 -32.3 25.0 -32.75 Q25.0 -33.0 40.5 -32.5 L51.55 -31.95 51.55 -31.55 Q53.9 -31.65 54.7 -28.75 55.0 -27.55 55.0 -23.75 L54.85 -19.85 Q54.4 -17.7 52.55 -15.5 L52.6 -15.1 52.0 -15.0 28.3 -15.0 28.2 -15.05 27.5 -15.0 27.5 -6.1 27.45 -6.05 27.5 -6.0 Q27.0 -5.0 25.75 -5.0 L17.75 -5.45 17.85 -6.1 17.0 -6.0 14.95 -6.3 14.8 -5.1 Q14.0 -1.0 14.0 0.8 14.0 2.05 13.45 3.65 12.7 5.7 11.4 6.0 L11.25 6.3 10.35 6.3 10.5 7.6 10.35 9.75 10.6 11.3 11.15 12.7 11.1 13.45 11.6 13.45 12.15 14.05 Q12.9 14.25 13.45 14.85 L13.8 14.95 Q15.15 18.15 15.95 19.1 L19.35 23.15 19.8 23.8 19.95 24.0 21.85 27.0 23.4 30.4 24.6 32.9 24.6 33.65 24.45 34.05 24.45 34.3 Q24.4 34.45 24.0 34.5 23.6 35.25 21.65 36.15 L21.65 36.25 22.6 38.8 23.85 42.25 Q24.6 44.35 24.6 45.15 L24.45 46.1 24.2 46.25 Q24.75 46.45 24.0 46.5 23.3 47.8 19.1 49.3 L18.65 49.5 18.1 49.5 Q16.65 49.7 15.5 50.7 L15.2 50.45 Q8.35 52.0 -2.4 52.0 L-19.4 51.2 Q-24.85 50.4 -28.75 48.5 L-29.9 48.5 Q-32.05 48.5 -33.4 47.0 -34.4 45.85 -34.4 44.8 -33.25 40.3 -32.1 38.1 -33.3 37.2 -33.9 36.15 L-34.25 35.7 -34.4 34.95 Q-37.6 34.4 -39.6 32.25 -41.0 30.85 -41.65 28.9 L-42.05 27.25 Q-43.2 22.9 -43.3 8.95 L-43.35 8.75 Q-43.6 7.7 -43.45 2.7 L-43.35 -2.8 -43.85 -8.6 Q-44.15 -11.9 -43.85 -14.3 -43.5 -16.5 -43.85 -20.5 L-44.4 -27.2 Q-44.65 -35.0 -40.55 -36.9 L-40.6 -37.0 -31.65 -38.85 Q-19.9 -40.9 -18.75 -36.75 L-18.5 -34.1 -18.4 -32.8 Q-18.0 -32.15 -18.0 -31.35 L-18.0 -30.95 Q-11.95 -31.85 -3.0 -31.25 3.75 -32.85 7.5 -32.0 L8.9 -31.6 M17.55 -29.9 L17.55 -30.0 17.55 -29.9 M1.25 -4.6 L1.15 -4.85 0.05 -7.05 0.0 -7.1 -2.05 -10.45 -2.85 -11.5 -2.9 -11.6 -3.25 -12.0 -3.6 -12.5 -4.35 -13.55 -5.8 -15.75 -5.95 -16.0 -7.05 -17.7 -7.15 -17.9 -8.2 -19.6 -8.3 -19.7 -8.5 -20.05 -9.85 -21.8 -9.9 -21.85 -10.0 -21.9 -10.05 -22.0 -11.95 -23.95 -12.15 -24.15 Q-14.3 -26.15 -16.85 -27.7 L-17.55 -28.1 -19.75 -27.85 -23.35 -27.25 Q-24.9 -26.8 -26.85 -24.75 L-27.85 -23.45 -28.25 -22.8 -28.6 -21.95 -28.8 -21.45 -28.95 -20.5 -29.0 -18.9 -29.0 -17.95 -29.0 -17.35 -28.9 -15.5 -28.9 -15.05 -28.8 -13.9 -28.55 -11.2 -28.5 -10.55 -28.3 -9.0 -27.9 -6.5 -27.85 -6.35 -27.85 -6.15 -27.75 -5.7 -27.7 -5.3 -27.5 -4.35 -27.45 -4.0 -27.05 -2.25 -26.35 0.7 -26.3 0.75 -25.8 2.5 -25.65 2.85 -24.5 6.0 -24.1 5.9 -16.0 5.0 -15.15 4.95 -13.85 4.8 -12.65 4.65 -12.5 4.6 -8.5 4.0 4.45 4.1 Q3.9 2.85 3.3 0.9 L3.0 -0.1 2.8 -0.85 2.75 -0.9 2.5 -1.55 2.45 -1.7 2.25 -2.25 1.25 -4.6 M12.25 -2.85 Q7.55 -9.2 4.5 -17.0 1.8 -23.95 -1.95 -26.95 L-4.15 -28.45 -4.75 -29.0 -11.65 -28.6 -14.15 -28.4 Q-7.45 -25.0 -1.1 -13.25 1.3 -9.8 3.75 -4.05 L7.15 4.15 8.45 4.15 9.75 4.25 10.75 3.0 Q12.0 1.8 12.0 -0.6 L12.25 -2.85 M41.0 -30.25 L41.2 -28.8 Q41.25 -26.15 41.5 -25.35 L41.5 -17.1 51.3 -17.25 51.6 -17.3 52.25 -20.05 53.0 -23.4 53.0 -24.35 Q52.85 -26.45 52.1 -27.9 51.45 -29.15 50.35 -29.9 L41.0 -30.25 M-24.2 15.0 L-24.35 15.85 -18.4 15.2 -9.05 14.55 7.55 13.9 7.55 13.7 8.7 13.8 9.15 13.8 9.1 13.75 8.95 13.0 9.1 13.0 9.05 10.55 9.0 9.75 Q8.5 8.85 8.5 7.75 L8.5 7.65 8.7 6.3 2.45 6.25 3.3 6.8 3.5 6.9 -3.05 7.0 0.2 6.3 -3.1 6.55 -3.2 6.55 -16.5 7.5 -22.1 8.1 -22.55 8.15 -24.55 8.5 -24.5 8.8 -24.8 9.05 -24.9 9.15 -24.6 10.0 -24.5 12.35 -24.55 15.0 -24.5 15.0 -24.2 15.0 M7.65 17.1 L7.2 17.1 7.1 17.1 6.4 17.15 4.8 17.2 3.85 17.2 0.9 17.35 Q-1.4 16.25 -5.1 16.75 -6.5 16.9 -7.45 17.8 L-7.4 17.65 -7.5 17.65 -15.8 18.1 -18.8 18.3 -19.3 18.3 -19.4 18.3 -20.35 18.4 -20.45 18.4 -20.65 18.4 -23.2 18.55 -24.95 18.4 -25.8 20.05 -26.45 21.25 -26.75 21.75 -26.95 22.05 -27.75 23.45 -28.4 24.5 -28.6 24.8 -28.8 25.2 -30.95 29.9 -31.2 30.6 -31.25 30.65 -31.4 31.15 -31.5 31.35 -32.0 33.0 -32.05 33.25 -32.1 33.5 -32.35 35.1 -32.3 35.1 -31.45 35.7 -31.4 35.75 -30.75 35.6 Q-30.4 35.1 -29.55 34.85 L-29.1 34.75 -27.8 34.3 -25.95 33.7 -24.85 33.3 -23.25 32.55 -19.6 30.75 -18.05 29.75 -16.3 28.5 -15.1 27.6 -14.7 27.3 -14.05 26.8 Q-11.6 25.05 -10.4 25.1 L-10.3 24.85 -10.15 24.7 -9.4 24.6 -8.3 24.7 -8.1 24.75 -7.95 25.45 -7.55 26.4 -7.4 26.6 -7.2 26.95 -6.0 28.45 -3.95 30.45 -2.3 31.85 4.25 37.55 5.2 35.65 7.3 31.75 Q7.65 31.0 8.45 29.95 L8.9 29.45 9.75 28.3 10.3 27.0 10.3 26.95 10.4 26.8 Q10.65 26.55 11.1 26.45 L11.0 26.05 Q12.0 25.9 13.1 26.55 L13.05 26.55 13.9 27.15 14.0 27.25 14.15 27.35 15.6 28.85 15.8 29.05 16.4 29.55 21.0 33.0 20.95 33.35 Q21.4 33.55 21.65 33.75 L22.35 33.5 20.3 29.95 19.8 28.75 19.75 28.75 19.7 28.6 19.65 28.5 18.9 26.85 18.7 26.45 18.55 26.1 18.05 25.05 17.35 25.0 17.05 25.0 16.6 24.15 16.55 24.15 16.45 23.9 15.7 22.7 15.25 22.05 14.95 21.8 14.1 20.45 12.95 18.65 12.4 17.95 12.4 17.9 10.9 17.0 9.55 17.05 9.25 16.95 8.55 17.05 8.25 17.05 7.65 17.1 M19.05 34.65 L17.75 34.25 17.9 33.8 Q16.4 32.9 14.45 30.85 L13.5 29.85 12.25 28.35 10.65 31.0 8.5 34.05 7.55 37.1 Q6.85 39.05 5.35 39.45 L5.25 39.7 4.25 40.0 Q3.5 40.0 0.35 37.15 L-3.5 33.5 -8.45 29.85 Q-10.05 28.55 -10.4 27.1 -12.2 28.65 -17.75 32.05 L-22.6 34.85 -23.5 35.4 Q-26.3 36.9 -29.9 37.45 L-29.85 37.5 -30.0 37.5 -30.0 37.55 -30.0 37.95 -29.65 39.35 -30.05 39.2 -30.05 39.25 -30.9 41.05 -32.4 44.6 Q-32.4 45.6 -30.85 46.15 L-29.7 46.6 -29.3 46.45 -29.2 46.5 -28.6 46.8 -26.9 47.45 -26.1 47.7 -22.3 48.5 -22.0 48.55 -2.65 49.75 10.7 49.15 13.1 48.5 15.35 48.35 16.15 48.2 16.75 47.95 18.1 47.05 Q18.3 46.95 18.65 46.8 L18.7 46.8 20.7 45.9 Q21.65 45.45 22.25 45.25 21.5 44.0 20.6 41.45 L19.6 38.05 18.85 38.1 19.25 37.65 19.4 37.6 19.4 37.55 19.35 37.45 19.5 36.9 Q19.5 35.85 18.25 35.05 L18.2 35.05 18.75 34.85 18.8 34.8 19.0 34.75 19.1 34.7 19.05 34.65 M-24.7 40.7 L-24.1 40.75 -22.9 40.95 -23.35 40.9 -23.95 40.85 -24.7 40.7 -25.1 40.65 -25.05 40.65 -24.7 40.7 M-39.35 -34.65 L-39.35 -34.6 -39.55 -34.3 -39.65 -34.15 -39.8 -34.0 -40.45 -33.35 Q-42.05 -31.9 -42.05 -29.75 L-42.1 -26.75 -42.25 -23.75 -42.15 -18.55 -41.85 -12.7 -41.5 -1.5 -41.5 3.65 Q-42.2 5.15 -41.55 7.7 L-41.05 9.3 -41.0 11.65 -40.85 18.35 Q-40.55 24.65 -40.15 26.45 L-40.15 26.55 -40.1 26.7 -40.05 26.8 Q-39.2 29.6 -36.6 31.55 L-34.55 32.65 -34.2 32.75 -34.1 32.45 -33.4 30.4 -33.2 29.7 Q-32.35 27.5 -30.9 24.65 L-29.7 22.5 -29.4 21.55 -28.0 17.7 -27.05 15.95 -27.05 14.7 -27.0 13.75 -27.0 8.25 -26.5 7.8 -26.3 6.85 Q-28.6 5.55 -30.0 -5.9 -30.75 -12.35 -31.0 -18.9 -31.0 -24.25 -28.4 -26.75 -25.7 -29.3 -20.5 -30.5 L-20.5 -31.1 -20.45 -31.9 -20.5 -31.9 -20.65 -33.9 Q-20.55 -35.6 -20.7 -36.2 -21.1 -37.65 -23.75 -37.55 L-35.85 -35.9 -39.25 -34.95 -39.35 -34.65 M-6.35 -27.15 L-6.35 -27.2 -6.1 -27.15 -6.35 -27.15" fill="#000000" fill-rule="evenodd" stroke="none"/>
    <path d="M7.2 -29.35 L7.0 -29.25 7.0 -29.35 7.2 -29.35 M7.3 -16.45 L6.45 -18.05 6.45 -18.35 6.45 -18.7 6.45 -18.8 6.5 -18.75 6.55 -18.45 6.6 -18.45 6.7 -18.0 7.05 -16.95 7.3 -16.45" fill="#372c22" fill-rule="evenodd" stroke="none"/>
    <path d="M6.45 -18.05 L6.3 -18.35 6.45 -18.35 6.45 -18.05 M-12.5 4.6 L-12.65 4.65 -12.6 4.15 -12.5 4.6 M-34.55 32.65 L-36.6 31.55 Q-39.2 29.6 -40.05 26.8 L-40.1 26.7 -40.15 26.55 -40.15 26.45 Q-40.55 24.65 -40.85 18.35 L-41.0 11.65 -41.05 9.3 -41.55 7.7 Q-42.2 5.15 -41.5 3.65 L-41.5 -1.5 -41.85 -12.7 -42.15 -18.55 -42.25 -23.75 -42.1 -26.75 -42.05 -29.75 Q-42.05 -31.9 -40.45 -33.35 L-39.8 -34.0 -39.65 -34.15 -39.55 -34.3 -39.35 -34.6 -39.35 -34.65 Q-38.3 -34.25 -38.1 -33.45 L-38.45 -27.4 -38.9 -19.2 -39.15 -12.15 -39.25 -5.1 -38.5 10.25 Q-37.8 21.65 -37.5 22.8 L-34.4 30.5 -33.4 30.4 -34.1 32.45 -34.55 32.65" fill="#221c15" fill-rule="evenodd" stroke="none"/>
    <path d="M12.25 -2.85 L12.0 -0.6 Q12.0 1.8 10.75 3.0 L9.75 4.25 8.45 4.15 7.15 4.15 3.75 -4.05 Q1.3 -9.8 -1.1 -13.25 -7.45 -25.0 -14.15 -28.4 L-11.65 -28.6 -4.75 -29.0 -4.15 -28.45 -1.95 -26.95 Q1.8 -23.95 4.5 -17.0 7.55 -9.2 12.25 -2.85 M-24.55 15.0 L-24.5 12.35 -24.6 10.0 -24.9 9.15 -24.8 9.05 -24.5 8.8 -24.55 8.5 -22.55 8.15 -22.1 8.1 -16.5 7.5 -3.2 6.55 -3.1 6.55 0.2 6.3 -3.05 7.0 3.5 6.9 3.3 6.8 2.45 6.25 8.7 6.3 8.5 7.65 8.5 7.75 Q8.5 8.85 9.0 9.75 L9.05 10.55 9.1 13.0 8.95 13.0 9.1 13.75 9.15 13.8 8.7 13.8 7.55 13.7 7.55 13.9 -9.05 14.55 -18.4 15.2 -24.35 15.85 -24.2 15.0 -24.55 15.0 M-39.35 -34.65 L-39.25 -34.95 -35.85 -35.9 -23.75 -37.55 Q-21.1 -37.65 -20.7 -36.2 -20.55 -35.6 -20.65 -33.9 L-20.5 -31.9 -20.45 -31.9 -20.5 -31.1 -20.5 -30.5 Q-25.7 -29.3 -28.4 -26.75 -31.0 -24.25 -31.0 -18.9 -30.75 -12.35 -30.0 -5.9 -28.6 5.55 -26.3 6.85 L-26.5 7.8 -27.0 8.25 -27.0 13.75 -27.05 14.7 -27.05 15.95 -28.0 17.7 -29.4 21.55 -29.7 22.5 -30.9 24.65 Q-32.35 27.5 -33.2 29.7 L-33.4 30.4 -34.4 30.5 -37.5 22.8 Q-37.8 21.65 -38.5 10.25 L-39.25 -5.1 -39.15 -12.15 -38.9 -19.2 -38.45 -27.4 -38.1 -33.45 Q-38.3 -34.25 -39.35 -34.65 M-6.35 -27.15 L-6.1 -27.15 -6.35 -27.2 -6.35 -27.15" fill="#14100c" fill-rule="evenodd" stroke="none"/>
    <path d="M-34.1 32.45 L-34.2 32.75 -34.55 32.65 -34.1 32.45" fill="#221f1c" fill-rule="evenodd" stroke="none"/>
    <path d="M7.1 17.1 L7.1 17.15 6.4 17.15 7.1 17.1" fill="#332e28" fill-rule="evenodd" stroke="none"/>
    <path d="M8.25 17.05 L8.55 17.05 8.35 17.15 8.25 17.05" fill="#0033ff" fill-rule="evenodd" stroke="none"/>
    <path d="M7.1 17.1 L7.2 17.1 7.65 17.1 7.2 17.4 7.1 17.15 7.1 17.1 M19.0 34.75 L19.05 34.65 19.1 34.7 19.0 34.75" fill="#2c262d" fill-rule="evenodd" stroke="none"/>
    <path d="M7.0 -29.25 L6.6 -29.35 7.0 -29.35 7.0 -29.25 M-31.25 30.65 L-31.2 30.6 -30.95 29.9 -28.8 25.2 -29.0 25.6 -29.2 26.25 -29.25 26.4 -29.5 27.0 -30.2 28.5 -30.3 28.75 -30.45 29.0 -30.9 29.95 -31.2 30.6 -31.25 30.65 M-19.4 18.3 L-19.3 18.3 -19.4 18.35 -19.4 18.3 M-7.5 17.65 L-7.4 17.65 -7.45 17.8 -7.5 17.65" fill="#1c181d" fill-rule="evenodd" stroke="none"/>
    <path d="M15.45 -9.3 L15.55 -9.25 15.55 -8.95 15.4 -9.0 15.45 -9.3" fill="#331a4d" fill-rule="evenodd" stroke="none"/>
    <path d="M19.25 37.65 L19.35 37.45 19.4 37.55 19.4 37.6 19.25 37.65 M-29.65 39.35 L-29.65 39.4 -30.05 39.25 -30.05 39.2 -29.65 39.35" fill="#663399" fill-rule="evenodd" stroke="none"/>
    <path d="M28.0 -29.0 L28.5 -30.7 31.15 -30.75 39.0 -30.35 38.9 -29.85 39.0 -28.1 38.95 -21.5 Q39.1 -18.8 39.7 -17.05 L29.45 -16.55 28.7 -16.45 28.0 -17.0 27.5 -17.0 27.5 -24.85 Q27.5 -27.15 28.0 -29.0 M7.2 -29.35 L8.75 -29.35 Q10.45 -29.35 11.85 -27.0 L12.8 -24.9 12.9 -24.65 2.65 -24.5 2.0 -25.45 Q0.2 -27.8 -1.45 -29.15 L6.6 -29.35 7.0 -29.25 7.2 -29.35 M13.65 -22.45 L13.95 -21.15 14.35 -19.0 14.45 -18.0 6.7 -18.0 6.6 -18.45 6.5 -18.75 6.45 -18.8 6.45 -18.7 6.45 -18.35 6.3 -18.35 6.25 -18.45 5.05 -20.65 4.2 -22.15 13.65 -22.45 M14.5 -16.15 L14.25 -14.4 14.1 -13.6 8.95 -13.3 8.55 -14.0 8.55 -14.1 8.5 -14.1 8.45 -14.2 8.05 -14.95 7.3 -16.45 7.05 -16.95 7.55 -15.95 14.5 -16.15 M13.65 -11.25 L13.55 -10.75 13.05 -8.15 11.8 -8.05 10.25 -10.9 13.65 -11.25 M0.0 -7.1 L-15.25 -6.0 Q-23.95 -5.25 -27.5 -4.35 L-27.7 -5.3 -27.75 -5.7 -27.85 -6.15 -27.85 -6.35 -27.85 -6.5 -27.9 -6.5 -28.3 -9.0 -21.0 -9.0 -14.15 -9.65 -2.05 -10.45 0.0 -7.1 M-27.05 -2.25 L1.25 -4.6 2.25 -2.25 -13.5 -0.95 -26.35 0.7 -27.05 -2.25 M3.0 -0.1 L3.3 0.9 Q3.9 2.85 4.45 4.1 L-8.5 4.0 -12.5 4.6 -12.6 4.15 -12.65 4.65 -13.85 4.8 -15.15 4.95 -16.0 5.0 -24.1 5.9 -24.5 6.0 -25.65 2.85 -25.8 2.5 -24.0 2.5 Q-20.15 1.2 -15.75 1.0 L-5.0 0.5 3.0 -0.1 M7.1 17.15 L7.2 17.4 7.65 17.1 8.25 17.05 8.35 17.15 8.55 17.05 9.25 16.95 9.55 17.05 10.9 17.0 12.4 17.9 5.85 18.65 -3.1 20.25 -23.1 21.75 -26.95 22.05 -26.75 21.75 -26.45 21.25 -25.8 20.05 -24.95 18.4 -23.2 18.55 -20.65 18.4 -20.45 18.4 -20.35 18.4 -19.4 18.3 -19.4 18.35 -19.3 18.3 -18.8 18.3 -15.8 18.1 -7.5 17.65 -7.45 17.8 Q-6.5 16.9 -5.1 16.75 -1.4 16.25 0.9 17.35 L3.85 17.2 4.8 17.2 6.4 17.15 7.1 17.15 M14.1 20.45 L14.95 21.8 15.25 22.05 5.0 23.15 -5.5 24.5 -8.3 24.7 -9.4 24.6 -10.15 24.7 -10.3 24.85 -27.7 26.15 -29.25 26.4 -29.2 26.25 -29.0 25.6 -28.8 25.2 -28.6 24.8 -28.4 24.5 Q-21.15 24.5 -3.35 22.4 L14.1 20.45 M16.6 24.15 L17.05 25.0 17.35 25.0 18.05 25.05 18.55 26.1 16.0 26.25 13.1 26.55 Q12.0 25.9 11.0 26.05 L11.1 26.45 Q10.65 26.55 10.4 26.8 L-6.0 28.45 -7.2 26.95 1.55 25.85 16.6 24.15 M19.65 28.5 L19.7 28.6 19.75 28.75 19.8 28.75 20.3 29.95 22.35 33.5 21.65 33.75 Q21.4 33.55 20.95 33.35 L21.0 33.0 16.4 29.55 15.8 29.05 15.6 28.85 19.65 28.5 M8.9 29.45 L8.45 29.95 Q7.65 31.0 7.3 31.75 L5.2 35.65 4.25 37.55 -2.3 31.85 -3.95 30.45 -3.6 30.75 -0.05 30.35 8.9 29.45 M-15.1 27.6 L-16.3 28.5 -18.05 29.75 -31.5 31.35 -31.4 31.15 -31.25 30.65 -31.2 30.6 -30.9 29.95 -30.45 29.0 -30.3 28.75 -30.2 28.5 -21.5 28.5 -15.55 27.9 -15.1 27.6 M-23.25 32.55 L-24.85 33.3 -25.95 33.7 -27.8 34.3 -29.1 34.75 -29.55 34.85 Q-30.4 35.1 -30.75 35.6 L-31.4 35.75 -31.45 35.7 -32.3 35.1 -32.35 35.1 -32.1 33.5 -32.05 33.25 -32.0 33.0 -29.5 33.0 -23.25 32.55 M-27.85 -23.45 L-26.85 -24.75 Q-24.9 -26.8 -23.35 -27.25 L-19.75 -27.85 -17.55 -28.1 -16.85 -27.7 Q-14.3 -26.15 -12.15 -24.15 L-25.9 -23.6 -27.85 -23.45 M-9.85 -21.8 L-8.5 -20.05 -8.3 -19.7 -8.2 -19.6 -7.15 -17.9 -13.0 -17.75 -28.6 -17.4 -29.0 -17.35 -29.0 -17.95 -29.0 -18.9 -28.95 -20.5 -28.8 -21.45 -28.6 -21.95 -28.75 -21.5 -24.0 -21.5 -9.85 -21.8 M-5.8 -15.75 L-4.35 -13.55 -3.6 -12.5 -10.05 -12.15 -28.5 -10.55 -28.55 -11.2 -28.8 -13.9 -28.9 -15.05 -12.85 -15.75 -5.8 -15.75" fill="#333333" fill-rule="evenodd" stroke="none"/>
    <path d="M2.65 -24.5 L12.9 -24.65 13.05 -24.25 13.65 -22.45 4.2 -22.15 3.25 -23.6 2.65 -24.5 M14.45 -18.0 L14.5 -16.75 14.5 -16.15 7.55 -15.95 7.05 -16.95 6.7 -18.0 14.45 -18.0 M14.1 -13.6 L13.65 -11.25 10.25 -10.9 10.1 -11.2 9.45 -12.4 8.95 -13.3 14.1 -13.6 M13.05 -8.15 L12.95 -7.7 12.65 -6.3 12.0 -7.65 11.8 -8.05 13.05 -8.15 M8.55 -14.0 L8.5 -14.1 8.55 -14.1 8.55 -14.0 M6.5 -18.75 L6.6 -18.45 6.55 -18.45 6.5 -18.75 M0.0 -7.1 L0.05 -7.05 1.15 -4.85 1.25 -4.6 -27.05 -2.25 -27.45 -4.0 -27.5 -4.35 Q-23.95 -5.25 -15.25 -6.0 L0.0 -7.1 M2.25 -2.25 L2.45 -1.7 2.5 -1.55 2.75 -0.9 2.8 -0.85 3.0 -0.1 -5.0 0.5 -15.75 1.0 Q-20.15 1.2 -24.0 2.5 L-25.8 2.5 -26.3 0.75 -26.35 0.7 -13.5 -0.95 2.25 -2.25 M12.95 -7.7 L12.0 -7.65 12.95 -7.7 M12.4 17.9 L12.4 17.95 12.95 18.65 14.1 20.45 -3.35 22.4 Q-21.15 24.5 -28.4 24.5 L-27.75 23.45 -26.95 22.05 -23.1 21.75 -3.1 20.25 5.85 18.65 12.4 17.9 M15.25 22.05 L15.7 22.7 16.45 23.9 16.55 24.15 16.6 24.15 1.55 25.85 -7.2 26.95 -7.4 26.6 -7.55 26.4 -7.95 25.45 -8.1 24.75 -8.3 24.7 -5.5 24.5 5.0 23.15 15.25 22.05 M18.55 26.1 L18.7 26.45 18.9 26.85 19.65 28.5 15.6 28.85 14.15 27.35 14.0 27.25 13.9 27.15 13.05 26.55 13.1 26.55 16.0 26.25 18.55 26.1 M19.7 28.6 L19.75 28.75 19.8 28.75 19.75 28.75 19.7 28.6 M10.4 26.8 L10.3 26.95 10.3 27.0 9.75 28.3 8.9 29.45 -0.05 30.35 -3.6 30.75 -3.95 30.45 -6.0 28.45 10.4 26.8 M-10.3 24.85 L-10.4 25.1 Q-11.6 25.05 -14.05 26.8 L-14.7 27.3 -15.1 27.6 -15.55 27.9 -21.5 28.5 -30.2 28.5 -29.5 27.0 -29.25 26.4 -27.7 26.15 -10.3 24.85 M-18.05 29.75 L-19.6 30.75 -23.25 32.55 -29.5 33.0 -32.0 33.0 -31.5 31.35 -18.05 29.75 M16.55 24.15 L16.45 24.15 16.45 23.9 16.45 24.15 16.55 24.15 M-27.85 -23.45 L-25.9 -23.6 -12.15 -24.15 -11.95 -23.95 -10.05 -22.0 -10.0 -21.9 -9.9 -21.85 -9.85 -21.8 -24.0 -21.5 -28.75 -21.5 -28.6 -21.95 -28.25 -22.8 -27.85 -23.45 M-7.15 -17.9 L-7.05 -17.7 -5.95 -16.0 -5.8 -15.75 -12.85 -15.75 -28.9 -15.05 -28.9 -15.5 -29.0 -17.35 -28.6 -17.4 -13.0 -17.75 -7.15 -17.9 M-3.6 -12.5 L-3.25 -12.0 -2.9 -11.6 -2.85 -11.5 -2.05 -10.45 -14.15 -9.65 -21.0 -9.0 -28.3 -9.0 -28.5 -10.55 -10.05 -12.15 -3.6 -12.5 M-27.9 -6.5 L-27.85 -6.5 -27.85 -6.35 -27.9 -6.5 M-10.05 -22.0 L-10.3 -21.8 -9.9 -21.85 -10.3 -21.8 -10.05 -22.0 M-20.75 30.5 L-20.85 30.55 -20.85 30.5 -20.75 30.5 -20.85 30.5 -20.85 30.55 -20.75 30.5" fill="#1a1a1a" fill-rule="evenodd" stroke="none"/>
    <path d="M41.0 -30.25 L50.35 -29.9 Q51.45 -29.15 52.1 -27.9 52.85 -26.45 53.0 -24.35 L53.0 -23.4 52.25 -20.05 51.6 -17.3 51.3 -17.25 41.5 -17.1 41.5 -25.35 Q41.25 -26.15 41.2 -28.8 L41.0 -30.25" fill="#aa8a71" fill-rule="evenodd" stroke="none"/>
    <path d="M13.5 29.85 L14.45 30.85 Q16.4 32.9 17.9 33.8 L17.75 34.25 19.05 34.65 19.0 34.75 18.8 34.8 18.75 34.85 18.2 35.05 18.25 35.05 Q19.5 35.85 19.5 36.9 L19.35 37.45 19.25 37.65 18.85 38.1 19.6 38.05 20.6 41.45 Q21.5 44.0 22.25 45.25 21.65 45.45 20.7 45.9 L18.7 46.8 Q17.15 44.7 15.55 39.05 L13.5 30.1 13.5 29.85 M-23.5 35.4 L-23.5 35.5 Q-23.5 36.5 -24.7 40.7 L-25.4 42.85 -26.9 47.45 -28.6 46.8 -29.2 46.5 -29.3 46.45 -29.7 46.6 -30.85 46.15 Q-32.4 45.6 -32.4 44.6 L-30.9 41.05 -30.05 39.25 -29.65 39.4 -29.65 39.35 -30.0 37.95 -30.0 37.55 -30.0 37.5 -29.85 37.5 -29.9 37.45 Q-26.3 36.9 -23.5 35.4 M-24.7 40.7 L-25.05 40.65 -25.1 40.65 -24.7 40.7" fill="#942403" fill-rule="evenodd" stroke="none"/>
    <path d="M17.6 -29.4 L19.05 -29.35 21.55 -29.8 25.5 -30.55 25.5 -18.5 25.45 -15.55 Q25.4 -13.25 25.5 -12.1 L25.35 -8.7 Q25.35 -7.75 25.6 -7.0 L18.05 -8.1 17.95 -7.85 16.65 -8.5 15.75 -8.85 16.15 -9.25 15.55 -9.25 15.45 -9.3 16.05 -11.85 Q16.5 -13.75 16.5 -16.75 L16.15 -20.35 15.25 -25.0 Q14.0 -27.75 12.2 -29.5 L17.55 -29.5 17.6 -29.4 M13.5 29.85 L13.5 30.1 15.55 39.05 Q17.15 44.7 18.7 46.8 L18.65 46.8 Q18.3 46.95 18.1 47.05 L16.75 47.95 16.15 48.2 15.35 48.35 13.1 48.5 10.7 49.15 -2.65 49.75 -22.0 48.55 -22.3 48.5 -26.1 47.7 -26.9 47.45 -25.4 42.85 -24.7 40.7 Q-23.5 36.5 -23.5 35.5 L-23.5 35.4 -22.6 34.85 -17.75 32.05 Q-12.2 28.65 -10.4 27.1 -10.05 28.55 -8.45 29.85 L-3.5 33.5 0.35 37.15 Q3.5 40.0 4.25 40.0 L5.25 39.7 5.35 39.45 Q6.85 39.05 7.55 37.1 L8.5 34.05 10.65 31.0 12.25 28.35 13.5 29.85 M-24.7 40.7 L-23.95 40.85 -23.35 40.9 -22.9 40.95 -24.1 40.75 -24.7 40.7" fill="#731c02" fill-rule="evenodd" stroke="none"/>
  </g>
</svg>
