<?xml version="1.0" encoding="UTF-8" standalone="no"?>
<svg xmlns:ffdec="https://www.free-decompiler.com/flash" xmlns:xlink="http://www.w3.org/1999/xlink" ffdec:objectType="shape" height="112.15px" width="64.1px" xmlns="http://www.w3.org/2000/svg">
  <g transform="matrix(1.0, 0.0, 0.0, 1.0, 47.95, 60.75)">
    <path d="M-18.0 43.25 L-15.65 40.75 Q-11.35 36.15 -10.55 35.7 L-5.5 30.1 0.0 24.25 Q2.25 22.0 3.8 18.5 5.15 14.5 6.3 12.4 7.25 10.1 7.2 5.5 6.85 1.05 7.0 0.45 L6.4 -7.05 5.6 -13.7 5.3 -14.7 Q4.95 -18.4 4.15 -20.85 L2.65 -25.0 1.0 -27.45 0.0 -30.15 Q-1.9 -34.5 -6.75 -40.7 -8.15 -42.55 -11.45 -45.6 L-17.2 -50.85 -18.1 -51.45 -17.5 -52.75 -15.1 -50.35 Q-12.5 -49.05 -10.75 -47.2 L-7.65 -43.65 -2.3 -36.65 Q0.55 -32.5 2.25 -29.35 5.7 -22.75 7.45 -18.0 8.5 -15.15 8.95 -12.95 9.5 -9.95 9.55 0.6 L9.4 4.7 9.25 6.25 9.15 7.25 Q7.85 18.85 2.1 25.95 L-6.95 35.25 -7.25 35.55 Q-16.05 43.4 -16.25 44.65 L-16.75 45.2 -17.5 44.75 -18.0 43.25 M-15.45 -56.1 L-13.3 -54.1 Q-2.55 -44.15 -0.95 -42.1 L4.3 -35.35 7.3 -30.45 9.25 -26.9 11.35 -22.05 13.2 -16.6 14.0 -14.5 14.05 -12.35 Q14.15 -9.85 15.65 -1.85 16.25 1.1 15.85 5.75 L16.15 7.25 Q14.65 19.05 8.0 26.5 L-2.75 36.55 Q-11.15 44.0 -16.95 50.1 L-17.45 50.6 -17.7 50.85 -17.9 50.85 -18.2 50.95 -20.2 51.4 -22.45 51.15 -22.45 48.45 Q-22.05 48.25 -21.6 47.15 L-20.45 45.9 -19.95 45.35 -19.8 45.4 -19.2 44.6 -19.15 44.7 Q-19.45 45.05 -19.45 45.9 L-19.2 46.95 -18.85 47.6 -19.35 48.15 -19.4 48.15 -19.95 48.95 -19.15 49.05 -19.0 49.05 -18.3 48.05 -16.95 48.4 -15.85 48.15 -15.5 47.65 -15.45 47.0 Q-15.55 46.3 -16.15 45.7 L-15.75 45.3 -15.3 45.35 2.75 28.55 Q6.25 25.4 10.25 19.6 L10.75 18.45 Q11.65 17.2 12.65 14.05 L12.8 13.8 Q12.85 13.2 13.25 11.85 L13.7 9.55 13.65 9.5 13.75 8.65 13.8 8.55 13.9 7.05 13.9 5.2 13.85 4.65 13.85 4.25 13.85 4.2 13.5 0.05 13.0 -7.75 11.95 -14.65 11.15 -16.95 Q9.4 -21.2 5.15 -29.3 1.6 -35.85 -5.5 -44.05 -7.35 -46.15 -14.9 -52.3 L-16.9 -53.95 -16.95 -54.0 -16.95 -54.05 Q-15.95 -55.2 -15.95 -55.9 L-15.95 -56.6 -15.45 -56.1 M-20.45 -53.15 L-24.45 -56.05 -24.9 -56.3 -24.95 -57.65 Q-24.95 -60.85 -22.05 -60.75 -20.15 -60.7 -19.6 -59.3 -18.85 -59.1 -18.05 -58.55 L-16.35 -56.95 -16.25 -56.85 Q-18.0 -57.2 -19.2 -55.9 L-20.55 -57.1 Q-21.2 -57.15 -21.45 -57.65 L-21.7 -58.45 -22.75 -58.35 Q-22.95 -58.85 -22.95 -57.6 -22.95 -57.05 -21.95 -56.1 L-21.25 -55.4 -20.0 -54.9 -20.45 -53.25 -20.45 -53.15" fill="#000000" fill-rule="evenodd" stroke="none"/>
    <path d="M-16.35 -56.95 L-15.75 -56.85 -15.5 -56.7 -15.45 -56.1 -15.95 -56.6 -16.25 -56.85 -16.35 -56.95" fill="#cccc99" fill-rule="evenodd" stroke="none"/>
    <path d="M9.15 7.25 L9.25 6.25 9.4 4.7 9.55 0.6 Q9.5 -9.95 8.95 -12.95 8.5 -15.15 7.45 -18.0 L10.1 -17.95 10.75 -17.85 11.15 -16.95 11.95 -14.65 13.0 -7.75 13.5 0.05 13.85 4.2 13.85 4.25 13.85 4.65 13.9 5.2 13.9 7.05 9.15 7.25" fill="#221c15" fill-rule="evenodd" stroke="none"/>
    <path d="M-18.1 -51.45 L-22.35 -43.3 -30.75 -27.85 -37.7 -14.85 Q-41.65 -7.55 -45.55 -2.55 L-45.6 -2.35 -45.3 -1.8 Q-44.7 0.2 -44.2 0.7 -40.6 5.0 -39.5 7.15 L-32.45 19.9 Q-29.9 24.05 -24.15 32.0 -19.95 38.2 -18.0 43.25 L-17.5 44.75 -16.75 45.2 -16.15 45.7 Q-15.55 46.3 -15.45 47.0 L-15.5 47.65 -15.85 48.15 -16.95 48.4 -18.3 48.05 -18.85 47.6 -19.2 46.95 -19.45 45.9 Q-19.45 45.05 -19.15 44.7 L-19.2 44.6 -25.05 35.5 -34.0 21.15 -37.4 15.35 -40.95 9.15 -45.25 3.45 Q-47.3 0.55 -47.8 -1.7 L-47.95 -2.5 -47.95 -2.8 -47.95 -3.3 -47.9 -3.3 -47.8 -4.4 Q-47.45 -5.25 -46.15 -4.95 L-44.35 -8.1 Q-41.35 -13.3 -39.95 -16.35 L-36.35 -22.8 -32.45 -29.2 Q-30.2 -33.3 -25.9 -42.45 -22.95 -48.2 -20.15 -52.2 -20.45 -52.3 -20.45 -53.1 L-20.45 -53.15 -20.45 -53.25 -20.0 -54.9 -19.35 -55.8 -19.2 -55.9 Q-18.0 -57.2 -16.25 -56.85 L-15.95 -56.6 -15.95 -55.9 Q-15.95 -55.2 -16.95 -54.05 L-16.95 -54.0 -17.5 -52.75 -18.1 -51.45" fill="#999999" fill-rule="evenodd" stroke="none"/>
    <path d="M-16.75 45.2 L-16.25 44.65 Q-16.05 43.4 -7.25 35.55 L-6.95 35.25 2.1 25.95 Q7.85 18.85 9.15 7.25 L13.9 7.05 13.8 8.55 13.75 8.65 13.65 9.5 13.7 9.55 13.25 11.85 Q12.85 13.2 12.8 13.8 L12.65 14.05 Q11.65 17.2 10.75 18.45 L10.25 19.6 Q6.25 25.4 2.75 28.55 L-15.3 45.35 -15.75 45.3 -16.15 45.7 -16.75 45.2 M7.45 -18.0 Q5.7 -22.75 2.25 -29.35 0.55 -32.5 -2.3 -36.65 L-7.65 -43.65 -10.75 -47.2 Q-12.5 -49.05 -15.1 -50.35 L-17.5 -52.75 -16.95 -54.0 -16.9 -53.95 -14.9 -52.3 Q-7.35 -46.15 -5.5 -44.05 1.6 -35.85 5.15 -29.3 9.4 -21.2 11.15 -16.95 L10.75 -17.85 10.1 -17.95 7.45 -18.0 M-18.3 48.05 L-19.0 49.05 -19.15 49.05 -19.95 48.95 -19.4 48.15 -19.35 48.15 -18.85 47.6 -18.3 48.05 M-20.0 -54.9 L-21.25 -55.4 -21.95 -56.1 Q-22.95 -57.05 -22.95 -57.6 -22.95 -58.85 -22.75 -58.35 L-21.7 -58.45 -21.45 -57.65 Q-21.2 -57.15 -20.55 -57.1 L-19.2 -55.9 -19.35 -55.8 -20.0 -54.9" fill="#942403" fill-rule="evenodd" stroke="none"/>
  </g>
</svg>
