<?xml version="1.0" encoding="UTF-8" standalone="no"?>
<svg xmlns:ffdec="https://www.free-decompiler.com/flash" xmlns:xlink="http://www.w3.org/1999/xlink" ffdec:objectType="shape" height="92.0px" width="74.05px" xmlns="http://www.w3.org/2000/svg">
  <g transform="matrix(1.0, 0.0, 0.0, 1.0, 34.55, 64.1)">
    <path d="M25.05 -12.05 L25.15 -12.1 25.9 -12.35 28.0 -12.75 29.6 -12.65 Q23.85 -25.35 7.85 -25.35 L3.8 -25.15 -1.55 -24.3 Q-8.45 -22.6 -12.65 -18.05 L-13.4 -17.2 -13.8 -16.65 -13.85 -16.6 Q-14.95 -15.2 -15.85 -13.45 L-15.9 -13.4 Q-17.8 -9.75 -18.85 -4.8 L-19.6 -0.2 -19.45 0.4 -19.45 0.45 -19.4 0.85 -19.35 1.25 -19.3 4.65 -19.3 4.7 -19.3 4.8 -19.3 4.85 -19.3 4.95 -19.3 5.1 -19.3 5.15 -19.3 5.35 -19.4 7.0 -19.75 12.15 -19.8 12.85 -19.95 14.9 -19.95 15.25 -20.0 15.45 -19.95 15.55 -17.0 15.45 -16.25 15.5 -12.15 15.75 -12.1 15.75 -12.15 15.35 Q-12.15 14.75 -11.6 13.95 -11.1 13.15 -11.1 12.5 -11.1 10.05 -9.35 4.2 L-7.9 -0.15 -8.15 -0.6 -7.7 -2.95 Q-7.25 -4.65 -7.25 -5.3 L-6.75 -6.85 -6.15 -8.1 -6.3 -9.0 -6.45 -9.6 -6.45 -9.55 -6.5 -10.15 -6.5 -10.35 -6.5 -10.4 -6.55 -10.75 -6.3 -11.0 -6.15 -11.15 -5.45 -11.4 -1.95 -11.6 2.75 -11.0 25.05 -12.05 M-4.65 -3.3 L1.15 -3.9 3.45 -3.5 5.15 -3.25 15.6 -3.75 19.65 -4.4 25.9 -5.3 27.6 -5.5 31.8 -5.75 30.5 -10.45 28.35 -10.25 26.0 -10.35 26.25 -9.7 21.4 -9.55 Q16.2 -9.45 10.85 -9.65 L7.85 -9.2 4.8 -8.75 0.15 -9.15 -3.8 -9.5 -4.0 -8.3 -4.1 -8.05 -4.05 -7.75 -4.95 -3.45 -4.95 -3.35 -5.0 -3.2 -4.65 -3.3 M26.0 -2.75 L20.9 -2.1 19.25 -2.15 12.75 -1.75 -5.1 -1.05 -5.5 -1.05 -5.9 1.1 -6.1 1.25 -6.9 3.7 Q-8.25 7.45 -8.25 8.35 -8.25 9.95 -9.1 12.5 L-10.2 16.45 -10.0 17.05 -11.75 17.7 -12.95 17.85 -14.8 18.05 -15.1 18.1 -16.25 18.1 -18.55 18.0 -19.45 17.9 -22.5 17.4 -22.5 17.3 -22.55 17.3 -26.25 18.75 Q-32.05 21.1 -32.05 22.15 L-32.05 22.25 -32.0 22.8 -31.95 22.9 -31.9 22.95 -31.8 23.15 -21.85 23.15 -17.05 23.15 -16.85 23.15 -14.0 23.15 Q-8.0 23.1 -6.8 14.8 L-6.05 8.2 Q-5.65 5.35 -4.75 4.0 L-4.8 3.3 -4.9 2.8 -3.55 2.55 -2.25 2.5 -2.2 2.5 -1.85 2.45 2.1 2.4 19.5 2.65 28.1 2.85 29.6 2.85 30.0 2.85 30.95 2.9 31.0 2.85 31.35 2.75 32.05 2.6 32.05 3.05 33.1 3.05 35.3 3.0 35.4 3.0 37.3 3.0 37.4 2.95 37.5 2.1 Q37.5 1.3 36.2 0.35 L34.65 -1.45 32.3 -2.85 32.25 -3.05 32.2 -3.7 32.15 -3.7 29.15 -3.25 28.4 -3.1 28.25 -3.1 26.0 -2.75 M31.7 -11.6 Q32.8 -8.45 33.6 -3.95 L35.25 -3.45 37.25 -1.6 38.8 0.45 Q39.5 1.75 39.5 2.4 39.5 3.8 38.95 4.15 37.3 5.3 30.7 5.5 L31.15 8.35 31.2 13.75 31.5 16.6 Q31.65 19.0 31.2 20.7 29.8 25.9 22.2 25.9 L19.15 25.7 Q17.15 27.9 10.45 27.9 1.05 27.9 -0.3 25.65 L-0.6 24.9 -0.8 24.9 Q-3.15 24.9 -4.9 23.7 -4.9 24.05 -5.35 24.3 -7.45 25.4 -23.3 25.4 -32.0 25.4 -34.0 23.8 -34.65 23.3 -34.55 22.65 L-34.3 22.05 Q-34.3 20.75 -30.0 18.15 -25.45 15.4 -22.55 15.4 L-22.1 15.4 -22.2 15.25 -22.25 15.1 -22.3 13.9 Q-22.55 8.05 -22.4 5.05 -22.25 2.05 -21.6 0.35 L-21.8 -0.85 Q-21.8 -3.7 -20.2 -8.2 -18.1 -14.05 -14.45 -18.45 -3.85 -31.1 15.25 -26.85 27.25 -22.45 31.2 -12.85 L31.5 -12.1 31.65 -11.75 31.7 -11.6 M28.7 5.3 L28.8 4.9 28.7 4.9 28.7 5.3 M20.7 23.7 Q28.2 23.7 29.2 14.7 L29.35 12.4 Q22.15 12.45 17.05 14.1 L15.65 14.7 19.5 15.15 19.7 21.15 20.0 22.65 20.05 23.25 20.4 23.35 20.7 23.7 M17.8 9.75 L18.7 9.9 Q19.95 9.9 19.75 9.65 L20.05 9.2 20.2 8.15 20.1 7.05 20.0 6.65 18.05 6.55 17.65 6.6 17.2 6.55 17.2 6.65 17.2 9.65 17.25 9.9 17.8 9.75 M9.85 4.7 L1.1 4.5 0.95 4.95 0.9 5.0 1.2 9.05 1.2 14.25 Q1.2 19.0 1.35 20.35 1.85 24.1 3.75 25.65 L17.7 25.65 17.7 17.4 17.5 16.95 Q11.7 18.55 10.15 14.05 9.7 12.7 9.7 8.0 L9.75 5.4 9.85 4.7" fill="#000000" fill-rule="evenodd" stroke="none"/>
    <path d="M12.75 -1.75 Q14.5 -1.6 16.6 -1.75 L19.15 -1.9 20.8 -2.05 25.4 -2.45 25.45 -2.45 25.65 -2.45 25.9 -2.5 26.0 -2.75 28.25 -3.1 29.65 -1.6 33.1 3.05 32.05 3.05 32.05 2.6 31.35 2.75 31.0 2.85 30.95 2.9 30.0 2.85 29.85 2.7 29.6 2.85 28.1 2.85 19.5 2.65 2.1 2.4 -1.85 2.45 -2.2 2.5 -2.25 2.5 -3.55 2.25 -3.55 2.55 -4.9 2.8 -4.8 3.3 -4.75 4.0 Q-5.65 5.35 -6.05 8.2 L-6.8 14.8 Q-8.0 23.1 -14.0 23.15 L-16.85 23.15 -16.85 22.8 -17.05 23.15 -21.85 23.15 -21.85 23.05 Q-21.85 21.75 -19.05 18.55 L-18.55 18.0 -16.25 18.1 -15.1 18.1 -14.8 18.05 -12.95 17.85 -11.75 17.7 -10.0 17.05 -10.2 16.45 -9.1 12.5 Q-8.25 9.95 -8.25 8.35 -8.25 7.45 -6.9 3.7 L-6.1 1.25 -5.9 1.1 -5.5 -1.05 -5.1 -1.05 12.75 -1.75" fill="#8e6c24" fill-rule="evenodd" stroke="none"/>
    <path d="M20.7 23.7 L20.4 23.35 20.05 23.25 20.0 22.65 19.7 21.15 19.5 15.15 15.65 14.7 17.05 14.1 Q22.15 12.45 29.35 12.4 L29.2 14.7 Q28.2 23.7 20.7 23.7" fill="#aa8a71" fill-rule="evenodd" stroke="none"/>
    <path d="M17.65 6.6 L18.05 6.55 20.0 6.65 20.1 7.05 20.2 8.15 20.05 9.2 19.75 9.65 Q19.95 9.9 18.7 9.9 L17.8 9.75 17.2 9.65 17.2 6.65 17.65 6.6" fill="#ffffff" fill-rule="evenodd" stroke="none"/>
    <path d="M3.8 -25.15 L0.7 -24.7 -1.55 -24.3 3.8 -25.15 M-13.85 -16.6 L-14.95 -14.45 -15.85 -13.45 Q-14.95 -15.2 -13.85 -16.6 M-18.85 -4.8 L-18.05 -5.75 -19.4 -0.35 -19.45 0.4 -19.6 -0.2 -18.85 -4.8" fill="#5b6171" fill-rule="evenodd" stroke="none"/>
    <path d="M-16.25 15.5 L-16.25 14.7 -16.3 8.55 -16.25 2.45 Q-15.7 -7.8 -9.9 -14.5 -3.45 -21.95 7.35 -21.95 19.85 -21.95 25.15 -12.1 L25.05 -12.05 2.75 -11.0 -1.95 -11.6 -5.45 -11.4 -6.15 -11.15 -6.3 -11.0 -6.55 -10.75 -6.5 -10.4 -6.5 -10.35 -6.5 -10.15 -6.45 -9.55 -6.45 -9.6 -6.3 -9.0 -6.15 -8.1 -6.75 -6.85 -7.25 -5.3 Q-7.25 -4.65 -7.7 -2.95 L-8.15 -0.6 -7.9 -0.15 -9.35 4.2 Q-11.1 10.05 -11.1 12.5 -11.1 13.15 -11.6 13.95 -12.15 14.75 -12.15 15.35 L-12.15 15.75 -16.25 15.5 M27.6 -5.5 L25.9 -5.3 19.65 -4.4 15.6 -3.75 5.15 -3.25 3.45 -3.5 1.15 -3.9 -4.65 -3.3 -4.95 -3.35 -4.95 -3.45 -4.05 -7.75 -4.1 -8.05 -4.0 -8.3 -3.8 -9.5 0.15 -9.15 4.8 -8.75 7.85 -9.2 10.85 -9.65 Q16.2 -9.45 21.4 -9.55 L26.25 -9.7 26.55 -8.95 27.6 -5.5 M9.85 4.7 L9.75 5.4 9.7 8.0 Q9.7 12.7 10.15 14.05 11.7 18.55 17.5 16.95 L17.7 17.4 17.7 25.65 3.75 25.65 Q1.85 24.1 1.35 20.35 1.2 19.0 1.2 14.25 L1.2 9.05 0.9 5.0 0.95 4.95 1.1 4.5 9.85 4.7" fill="#333333" fill-rule="evenodd" stroke="none"/>
    <path d="M3.8 -25.15 L7.85 -25.35 Q23.85 -25.35 29.6 -12.65 L28.0 -12.75 25.9 -12.35 25.15 -12.1 25.05 -12.05 25.15 -12.1 Q19.85 -21.95 7.35 -21.95 -3.45 -21.95 -9.9 -14.5 -15.7 -7.8 -16.25 2.45 L-16.3 8.55 -16.25 14.7 -16.25 15.5 -17.0 15.45 -19.95 15.55 -20.0 15.45 -19.95 15.25 -19.95 14.9 -19.8 12.85 -19.75 12.15 -19.4 7.0 -19.3 5.35 -19.3 5.15 -19.3 5.1 -19.3 4.95 -19.3 4.85 -19.3 4.8 -19.3 4.7 -19.3 4.65 -19.35 1.25 -19.4 0.85 -19.45 0.45 -19.45 0.4 -19.4 -0.35 -18.05 -5.75 -18.85 -4.8 Q-17.8 -9.75 -15.9 -13.4 L-15.85 -13.45 -14.95 -14.45 -13.85 -16.6 -13.8 -16.65 -13.4 -17.2 -12.65 -18.05 Q-8.45 -22.6 -1.55 -24.3 L0.7 -24.7 3.8 -25.15 M-12.15 15.35 L-12.1 15.75 -12.15 15.75 -12.15 15.35 M27.6 -5.5 L26.55 -8.95 26.25 -9.7 26.0 -10.35 28.35 -10.25 30.5 -10.45 31.8 -5.75 27.6 -5.5 M-4.95 -3.35 L-4.65 -3.3 -5.0 -3.2 -4.95 -3.35 M12.75 -1.75 L19.25 -2.15 20.9 -2.1 26.0 -2.75 25.9 -2.5 25.65 -2.45 25.45 -2.45 25.4 -2.45 20.8 -2.05 19.15 -1.9 16.6 -1.75 Q14.5 -1.6 12.75 -1.75 M-2.25 2.5 L-3.55 2.55 -3.55 2.25 -2.25 2.5 M29.0 -2.75 L29.35 -2.5 29.05 -2.7 29.0 -2.7 29.0 -2.75" fill="#666666" fill-rule="evenodd" stroke="none"/>
    <path d="M28.4 -3.1 L29.15 -3.25 29.0 -2.75 28.4 -3.1 M32.15 -3.7 L32.2 -3.7 32.25 -3.05 32.15 -3.7 M35.4 3.0 L35.3 3.0 35.05 2.75 35.4 3.0 M-31.9 22.95 L-31.95 22.9 -31.9 22.85 -31.9 22.95" fill="#999999" fill-rule="evenodd" stroke="none"/>
    <path d="M-22.55 17.3 L-22.5 17.3 -22.5 17.4 -22.55 17.3" fill="#8b6b28" fill-rule="evenodd" stroke="none"/>
    <path d="M28.25 -3.1 L28.4 -3.1 29.0 -2.75 29.15 -3.25 32.15 -3.7 32.25 -3.05 32.3 -2.85 34.65 -1.45 36.2 0.35 Q37.5 1.3 37.5 2.1 L37.4 2.95 37.3 3.0 35.4 3.0 35.05 2.75 35.3 3.0 33.1 3.05 29.65 -1.6 28.25 -3.1 M30.0 2.85 L29.6 2.85 29.85 2.7 30.0 2.85 M-16.85 23.15 L-17.05 23.15 -16.85 22.8 -16.85 23.15 M-21.85 23.15 L-31.8 23.15 -31.9 22.95 -31.9 22.85 -31.95 22.9 -32.0 22.8 -32.05 22.25 -32.05 22.15 Q-32.05 21.1 -26.25 18.75 L-22.55 17.3 -22.5 17.4 -19.45 17.9 -18.55 18.0 -19.05 18.55 Q-21.85 21.75 -21.85 23.05 L-21.85 23.15 M29.0 -2.75 L29.0 -2.7 29.05 -2.7 29.35 -2.5 29.0 -2.75" fill="#cc9d3c" fill-rule="evenodd" stroke="none"/>
    <path d="M10.9 -60.35 Q0.8 -60.35 -4.9 -52.6 -8.1 -48.25 -11.75 -37.2 -13.45 -32.2 -13.35 -24.85 L-13.25 -13.35 -11.6 -15.0 -8.0 -17.95 -8.2 -18.9 -8.25 -21.35 Q-8.25 -27.9 -4.3 -35.05 0.4 -43.65 7.25 -43.95 16.55 -48.55 21.05 -35.3 22.5 -31.1 23.25 -25.55 L23.45 -24.15 24.5 -23.35 28.35 -19.45 28.8 -18.95 29.25 -18.7 28.55 -29.45 Q28.15 -35.95 26.75 -40.1 L25.25 -45.35 23.5 -50.95 23.0 -52.85 Q22.45 -54.65 21.4 -56.05 18.2 -60.35 10.9 -60.35 M3.65 -61.7 L-2.25 -61.1 -9.7 -59.35 Q-10.95 -59.0 -13.3 -57.3 L-16.0 -54.95 -19.1 -50.45 Q-21.1 -47.55 -21.85 -45.35 -24.95 -36.75 -25.25 -34.4 L-25.25 -25.45 Q-24.75 -16.85 -24.75 -12.35 L-14.7 -12.1 Q-15.35 -13.0 -15.35 -14.25 L-15.25 -17.1 -15.3 -20.0 -15.25 -22.5 Q-15.25 -30.45 -14.95 -32.55 -14.45 -35.85 -11.75 -44.1 -8.45 -54.05 0.3 -59.8 L3.65 -61.7 M8.05 -63.95 L8.25 -63.3 Q12.7 -64.25 16.75 -62.6 21.95 -60.25 25.1 -52.25 L28.3 -41.85 Q29.9 -37.5 30.4 -31.1 L31.25 -20.45 31.25 -15.2 31.15 -14.9 30.5 -14.6 29.75 -14.5 Q28.25 -14.5 26.3 -17.3 L23.25 -21.35 18.9 -23.8 Q15.8 -25.45 15.0 -26.85 L15.85 -27.4 15.35 -27.4 15.25 -27.95 Q15.0 -29.15 13.3 -32.55 11.9 -35.4 11.1 -36.15 L11.2 -35.25 11.25 -31.85 Q11.25 -26.65 11.05 -26.2 10.45 -25.1 6.25 -25.1 L3.65 -25.5 Q2.0 -25.95 1.75 -26.2 L1.75 -32.0 Q0.7 -30.4 0.0 -28.25 -1.55 -23.35 -0.95 -17.95 -0.8 -17.7 -1.3 -17.65 -1.6 -16.7 -3.05 -16.05 -4.1 -15.6 -6.25 -15.1 L-7.0 -15.3 -7.25 -16.15 -9.8 -13.45 Q-12.55 -10.7 -13.55 -10.2 L-13.6 -10.1 -13.75 -10.1 -25.75 -9.6 Q-27.05 -11.05 -27.2 -13.25 L-27.25 -17.35 -27.25 -25.0 -27.15 -34.5 Q-26.7 -37.6 -23.75 -46.2 -23.0 -48.3 -21.2 -51.2 L-18.0 -56.2 Q-17.45 -57.2 -15.45 -58.85 -13.25 -60.65 -11.75 -61.1 L-6.15 -62.9 7.8 -64.1 8.05 -63.95 M21.05 -25.8 L20.25 -31.85 Q19.9 -33.95 17.9 -37.65 15.6 -41.95 14.0 -41.95 5.2 -41.95 2.35 -40.2 -0.8 -38.25 -3.75 -30.45 -6.05 -24.35 -6.2 -18.55 L-5.55 -18.05 -5.2 -18.3 -3.25 -19.1 -3.25 -22.7 Q-2.3 -25.3 -0.85 -31.45 1.2 -36.6 7.05 -38.35 12.45 -39.95 15.75 -33.25 17.25 -30.25 17.85 -27.35 18.9 -27.1 20.25 -26.3 L21.05 -25.8 M9.55 -36.4 Q5.75 -36.15 3.3 -33.85 3.8 -32.85 3.8 -31.15 L3.75 -27.35 9.25 -27.35 Q9.4 -29.1 9.15 -32.95 9.1 -35.0 9.55 -36.4" fill="#000000" fill-rule="evenodd" stroke="none"/>
    <path d="M3.65 -61.7 L0.3 -59.8 Q-8.45 -54.05 -11.75 -44.1 -14.45 -35.85 -14.95 -32.55 -15.25 -30.45 -15.25 -22.5 L-15.3 -20.0 -15.25 -17.1 -15.35 -14.25 Q-15.35 -13.0 -14.7 -12.1 L-24.75 -12.35 Q-24.75 -16.85 -25.25 -25.45 L-25.25 -34.4 Q-24.95 -36.75 -21.85 -45.35 -21.1 -47.55 -19.1 -50.45 L-16.0 -54.95 -13.3 -57.3 Q-10.95 -59.0 -9.7 -59.35 L-2.25 -61.1 3.65 -61.7" fill="#942403" fill-rule="evenodd" stroke="none"/>
    <path d="M10.9 -60.35 Q18.2 -60.35 21.4 -56.05 22.45 -54.65 23.0 -52.85 L23.5 -50.95 25.25 -45.35 26.75 -40.1 Q28.15 -35.95 28.55 -29.45 L29.25 -18.7 28.8 -18.95 28.35 -19.45 24.5 -23.35 23.45 -24.15 23.25 -25.55 Q22.5 -31.1 21.05 -35.3 16.55 -48.55 7.25 -43.95 0.4 -43.65 -4.3 -35.05 -8.25 -27.9 -8.25 -21.35 L-8.2 -18.9 -8.0 -17.95 -11.6 -15.0 -13.25 -13.35 -13.35 -24.85 Q-13.45 -32.2 -11.75 -37.2 -8.1 -48.25 -4.9 -52.6 0.8 -60.35 10.9 -60.35" fill="#7b1102" fill-rule="evenodd" stroke="none"/>
    <path d="M21.05 -25.8 L20.25 -26.3 Q18.9 -27.1 17.85 -27.35 17.25 -30.25 15.75 -33.25 12.45 -39.95 7.05 -38.35 1.2 -36.6 -0.85 -31.45 -2.3 -25.3 -3.25 -22.7 L-3.25 -19.1 -5.2 -18.3 -5.55 -18.05 -6.2 -18.55 Q-6.05 -24.35 -3.75 -30.45 -0.8 -38.25 2.35 -40.2 5.2 -41.95 14.0 -41.95 15.6 -41.95 17.9 -37.65 19.9 -33.95 20.25 -31.85 L21.05 -25.8" fill="#cc9d3c" fill-rule="evenodd" stroke="none"/>
    <path d="M9.55 -36.4 Q9.1 -35.0 9.15 -32.95 9.4 -29.1 9.25 -27.35 L3.75 -27.35 3.8 -31.15 Q3.8 -32.85 3.3 -33.85 5.75 -36.15 9.55 -36.4" fill="#8e6c24" fill-rule="evenodd" stroke="none"/>
  </g>
</svg>
