<?xml version="1.0" encoding="UTF-8" standalone="no"?>
<svg xmlns:ffdec="https://www.free-decompiler.com/flash" xmlns:xlink="http://www.w3.org/1999/xlink" ffdec:objectType="shape" height="96.0px" width="208.55px" xmlns="http://www.w3.org/2000/svg">
  <g transform="matrix(1.0, 0.0, 0.0, 1.0, 140.5, 44.35)">
    <path d="M10.05 -26.95 L15.5 -27.0 17.55 -27.0 17.6 -27.0 18.05 -27.0 Q18.2 -26.9 18.3 -26.85 L18.5 -26.0 18.5 -25.95 18.85 -25.9 19.0 -26.0 19.2 -25.9 20.55 -25.7 23.2 -25.25 25.55 -25.0 25.6 -25.0 34.55 -24.25 34.75 -23.6 44.75 -24.7 57.85 -25.4 Q64.7 -25.4 66.75 -21.8 68.05 -19.55 68.05 -12.85 68.05 -9.4 57.1 -6.5 L42.7 -3.5 31.3 -1.2 28.5 6.0 27.95 6.0 25.5 10.5 Q21.75 10.5 17.85 9.0 15.55 8.1 14.3 7.25 L10.7 5.25 10.1 4.9 9.2 6.95 9.5 7.3 9.25 8.05 Q9.1 8.45 8.45 8.5 L8.45 8.55 8.4 8.5 8.25 8.5 Q7.3 8.5 5.55 7.15 4.2 6.1 3.0 7.0 L2.75 6.9 2.05 8.05 Q-0.05 11.4 -0.35 12.25 L-1.0 12.5 -1.25 12.45 -2.5 13.9 -4.9 16.7 -4.8 17.05 Q-2.9 17.9 -0.9 19.75 1.75 22.2 3.65 25.25 L2.75 26.0 2.8 26.05 3.0 27.25 5.15 37.55 4.9 37.85 Q6.3 38.45 7.85 40.15 10.05 42.6 10.05 43.75 10.05 45.0 7.45 45.7 L3.75 46.3 2.7 46.1 2.45 45.95 -13.1 47.35 Q-13.75 47.1 -14.1 46.45 L-14.85 46.5 -16.15 46.3 -16.25 45.4 Q-16.25 44.15 -15.9 43.3 L-16.05 42.8 Q-16.05 41.0 -15.4 39.05 L-15.05 38.2 -15.05 37.5 -14.6 34.4 -14.25 33.25 -15.5 33.55 -27.0 34.5 Q-38.5 34.5 -46.15 32.9 L-50.25 31.75 Q-50.25 32.05 -54.95 38.45 L-59.7 44.5 -58.5 46.0 Q-56.75 48.25 -56.75 48.75 L-56.8 49.65 -56.8 49.7 -56.8 49.75 Q-58.1 51.1 -61.0 51.5 L-65.5 51.65 Q-67.7 51.65 -71.75 49.1 -75.7 46.6 -76.5 44.9 L-78.8 39.8 Q-79.55 37.75 -79.6 35.2 L-79.65 33.9 Q-79.65 33.15 -79.0 32.9 L-78.7 32.65 Q-77.9 31.4 -75.65 30.3 L-74.75 29.85 -72.65 28.5 Q-71.8 28.0 -70.1 25.7 -69.05 24.25 -68.1 23.9 -66.6 22.0 -65.75 21.55 L-65.1 21.65 Q-67.0 19.7 -67.0 18.1 -67.0 16.15 -59.0 8.55 L-54.95 3.4 Q-53.85 2.1 -52.8 1.6 -52.15 -1.0 -49.1 -3.35 L-44.4 -7.05 -44.5 -7.1 -44.5 -7.45 -44.0 -8.0 -43.9 -8.1 -43.45 -8.0 Q-41.6 -10.55 -39.7 -14.05 L-38.0 -17.1 -38.0 -17.25 -39.4 -16.35 -46.45 -11.95 -48.1 -11.1 Q-50.3 -9.95 -52.15 -9.25 -60.35 -6.0 -71.0 -6.0 L-73.0 -6.0 Q-73.0 -4.95 -82.0 -2.0 -92.6 1.5 -102.0 1.5 -108.15 1.5 -119.0 -1.0 -131.1 -3.8 -131.5 -6.65 -135.6 -7.4 -138.05 -11.4 L-137.9 -11.85 Q-138.75 -13.85 -139.5 -18.7 L-140.5 -27.05 Q-140.5 -29.6 -140.3 -30.2 -139.8 -31.9 -137.6 -31.25 L-137.6 -31.1 -137.0 -31.0 Q-134.35 -30.25 -126.85 -29.75 L-123.5 -29.75 Q-124.0 -33.5 -122.45 -37.1 -121.15 -40.1 -119.1 -40.4 -118.0 -41.25 -116.6 -41.55 L-114.6 -41.75 Q-107.9 -44.3 -106.7 -44.35 -105.0 -44.35 -98.35 -41.75 -96.95 -41.5 -93.6 -39.95 -90.2 -38.3 -89.5 -38.0 -84.95 -35.75 -82.1 -34.0 -80.4 -32.95 -74.95 -32.0 L-56.5 -30.75 Q-48.3 -30.75 -38.2 -33.6 -28.1 -36.5 -12.5 -36.5 -5.3 -36.5 0.4 -33.25 4.9 -30.65 7.0 -26.85 L6.8 -26.85 6.9 -26.75 10.05 -26.95 M3.9 -26.85 Q2.25 -29.6 1.5 -30.0 -3.25 -32.6 -5.8 -34.1 L-12.5 -34.25 Q-27.95 -34.25 -38.1 -31.35 -48.2 -28.5 -56.5 -28.5 L-76.1 -29.55 -82.0 -31.5 -84.85 -32.7 -87.5 -34.5 Q-89.25 -35.6 -100.6 -40.25 L-102.0 -40.25 -103.25 -40.8 Q-105.8 -41.8 -107.55 -41.4 -108.8 -41.15 -109.25 -40.25 L-112.5 -40.25 -112.65 -40.1 -113.85 -39.75 Q-111.45 -38.9 -109.15 -36.0 L-109.0 -35.8 Q-107.85 -34.3 -106.75 -32.25 L-105.7 -30.65 -105.4 -29.95 -105.35 -29.7 -104.5 -26.4 Q-103.5 -23.25 -103.5 -19.75 L-102.1 -19.5 -102.0 -19.25 -101.8 -18.8 -101.0 -18.45 Q-97.95 -17.05 -96.85 -15.9 L-96.1 -15.5 Q-90.5 -12.45 -84.85 -11.45 L-84.1 -11.0 Q-81.95 -9.65 -79.5 -9.2 L-78.75 -8.6 -75.25 -8.4 -71.0 -8.25 Q-59.5 -8.25 -50.35 -12.55 -47.2 -14.05 -42.65 -16.85 L-34.85 -21.6 -30.25 -24.45 Q-26.85 -26.25 -22.1 -27.25 L-11.75 -29.6 Q-5.75 -30.45 -1.35 -28.25 L2.4 -26.65 3.9 -26.85 M15.55 -24.15 L16.5 -24.8 16.45 -24.8 14.6 -24.6 11.7 -24.35 11.65 -24.3 Q4.7 -20.9 1.05 -14.65 -1.4 -10.45 -1.95 -5.85 L2.0 -6.05 5.55 -6.15 7.6 -6.2 8.5 -7.0 8.5 -10.35 10.0 -15.6 Q11.05 -19.05 12.65 -21.25 13.9 -22.95 15.55 -24.15 M18.25 -23.5 Q18.15 -23.55 18.15 -23.55 L17.95 -23.4 14.95 -20.0 14.6 -19.45 14.6 -19.4 Q13.15 -17.15 12.25 -14.4 L11.1 -9.3 14.9 -9.5 16.7 -9.5 17.15 -9.5 17.5 -10.75 17.5 -11.1 17.5 -14.85 Q17.7 -15.8 18.45 -17.1 L18.5 -17.1 18.95 -17.85 19.5 -18.7 20.65 -20.4 21.95 -22.6 20.6 -22.95 18.25 -23.5 M4.5 -23.65 L4.45 -23.65 4.35 -23.7 4.25 -23.75 4.1 -23.85 2.75 -24.1 2.35 -24.15 Q1.05 -24.15 -0.55 -23.5 -4.1 -22.15 -9.1 -17.75 -10.55 -16.05 -12.1 -13.0 L-14.5 -8.1 -11.5 -6.8 -10.75 -6.55 -5.7 -5.8 -4.35 -5.75 -4.15 -5.75 -4.0 -5.75 -3.95 -6.1 -3.45 -8.9 -3.4 -9.1 -2.45 -12.1 -2.05 -13.2 -1.45 -14.5 -1.35 -14.75 3.95 -22.3 5.0 -23.35 4.5 -23.65 M3.15 -2.95 L4.6 -1.9 5.85 -4.0 1.7 -4.0 3.15 -2.95 M8.0 -3.05 Q6.1 -0.6 5.55 0.75 L4.45 4.15 4.35 4.5 6.25 5.2 7.4 5.75 7.75 5.0 10.3 -0.1 Q11.0 -1.15 12.0 -4.8 L12.5 -6.5 10.35 -6.5 9.5 -4.0 8.65 -4.0 8.0 -3.05 M15.5 -6.5 L14.5 -6.5 14.5 -6.15 14.2 -4.9 14.25 -4.7 14.55 -1.35 14.5 3.75 14.5 3.8 18.9 3.5 20.2 3.05 21.85 2.15 20.1 -5.75 19.6 -8.2 Q19.0 -7.2 17.55 -6.75 L17.95 -5.7 Q17.35 -6.4 16.5 -6.55 L15.5 -6.35 15.5 -6.5 M12.5 -0.65 L11.0 2.85 12.35 3.65 12.5 3.75 12.5 -0.3 12.5 -0.65 M36.5 -21.75 L35.1 -21.75 35.0 -21.75 35.0 -20.65 Q35.0 -15.25 32.9 -6.9 L32.0 -3.55 36.0 -4.5 39.6 -5.15 39.45 -5.65 39.5 -6.6 Q39.5 -11.2 38.0 -15.95 36.5 -20.65 36.5 -21.4 L36.5 -21.45 36.55 -21.75 36.5 -21.75 M33.0 -22.35 L26.65 -22.6 29.05 -19.5 Q31.6 -16.15 32.25 -14.6 L33.0 -18.6 33.0 -22.35 M65.8 -16.45 L65.8 -16.5 65.6 -17.95 Q65.2 -20.6 64.2 -21.65 62.65 -23.3 57.05 -23.3 L47.65 -22.5 38.05 -21.75 Q39.1 -19.95 40.2 -15.15 L40.65 -13.15 41.0 -11.3 Q41.55 -8.25 41.55 -6.05 L41.45 -5.5 48.9 -7.0 61.75 -9.95 Q65.9 -11.15 65.9 -13.4 L65.8 -16.45 M23.3 -20.35 L21.75 -18.25 22.6 -16.85 23.5 -14.85 25.5 -13.2 27.05 -11.85 30.05 -13.6 26.75 -18.0 Q25.0 -20.4 24.4 -21.75 L23.3 -20.35 M20.5 -15.6 L20.4 -16.0 20.0 -15.25 22.05 -8.05 Q24.0 -0.6 24.0 2.5 24.0 4.05 23.3 4.3 L22.15 4.75 20.2 5.6 18.35 6.55 Q20.95 7.4 24.5 7.75 24.75 6.45 25.45 5.15 26.35 3.5 27.25 3.5 L27.4 3.55 28.75 -0.2 Q30.5 -5.0 30.5 -7.0 31.15 -8.95 31.85 -12.6 30.6 -11.25 27.0 -9.0 26.1 -9.0 21.8 -13.75 20.8 -14.9 20.5 -15.6 M-11.2 7.6 Q-6.55 10.55 -4.4 12.95 L-3.45 11.7 -2.85 10.95 -1.6 9.05 -1.3 8.65 -0.35 6.8 Q0.7 5.05 1.75 4.35 L1.85 4.1 3.45 0.35 Q1.4 -0.35 -0.5 -3.8 L-0.5 -4.0 -2.05 -4.0 -2.1 -3.35 -2.25 -3.15 -2.5 -3.05 -3.25 -3.0 Q-6.9 -3.0 -11.5 -4.5 -16.5 -6.1 -16.5 -7.75 L-16.15 -10.5 -18.5 -10.5 -29.15 -12.8 Q-34.1 -14.1 -36.25 -15.3 -36.95 -12.9 -39.2 -9.9 -38.25 -10.15 -37.1 -9.15 L-32.85 -5.75 -25.5 -0.7 -23.5 0.55 -12.45 6.85 -11.55 7.4 -11.2 7.6 M0.5 27.3 L0.95 27.1 0.5 27.3 -8.05 31.25 Q-7.9 31.55 -7.9 32.1 -7.9 33.05 -8.55 35.65 L-8.55 35.75 -8.55 35.8 Q-8.4 36.95 -8.4 38.9 -8.4 39.45 -8.75 40.9 L-9.0 41.85 -8.9 42.75 Q-8.9 43.5 -9.2 44.25 L-9.35 44.65 -6.9 44.3 1.3 43.9 2.05 42.0 2.8 39.75 2.7 39.1 Q2.7 35.6 2.5 35.0 L1.35 31.0 Q0.55 27.95 0.5 27.3 M0.5 25.0 L0.7 25.0 0.65 24.95 -0.95 23.3 -4.5 19.75 -4.5 20.85 -4.5 24.5 Q-5.15 26.5 -8.75 26.5 L-10.05 26.35 Q-10.3 27.25 -11.0 27.55 L-19.1 29.0 -19.3 28.85 -19.4 28.6 -24.0 29.0 -26.6 28.85 -26.7 29.1 Q-26.95 29.5 -27.75 29.5 -30.45 29.5 -34.0 28.5 L-36.45 27.65 Q-36.9 28.0 -37.75 28.0 L-39.45 27.7 -40.6 27.25 -42.85 26.75 -43.75 27.0 Q-45.3 27.0 -49.5 25.0 -53.5 23.1 -53.5 22.75 -53.5 22.0 -52.15 18.7 L-50.5 14.75 -50.25 13.95 -50.75 14.5 -51.0 14.75 Q-56.05 20.5 -57.5 20.5 -60.4 20.5 -61.55 18.65 L-63.1 16.25 -64.85 18.25 Q-64.85 20.3 -61.2 22.8 L-56.0 26.0 -54.35 27.5 Q-52.9 28.75 -50.65 29.6 -43.6 32.25 -27.25 32.25 -17.05 32.25 -7.9 28.85 -3.2 27.1 0.5 25.0 M5.5 41.15 L4.6 42.95 4.05 43.95 6.5 43.8 6.6 43.65 7.25 43.25 5.5 41.15 M-137.55 -28.45 L-137.45 -21.5 Q-137.3 -16.75 -136.2 -13.2 -133.65 -8.75 -129.25 -8.75 -126.3 -8.75 -122.9 -12.0 -120.0 -14.75 -120.0 -15.5 -120.0 -17.6 -121.3 -21.3 L-123.5 -27.35 -137.45 -28.45 -137.55 -28.45 M-77.35 -6.1 L-78.25 -6.0 Q-80.55 -6.0 -83.5 -7.6 L-85.25 -8.6 -85.35 -8.5 -105.5 -8.5 -106.35 -8.65 -110.6 -9.0 -110.8 -9.1 Q-111.0 -9.25 -111.0 -10.0 L-110.95 -10.6 -108.75 -10.95 Q-104.95 -11.1 -90.15 -10.65 L-94.6 -12.25 -99.85 -14.65 Q-102.15 -15.9 -103.3 -16.9 -104.75 -17.7 -105.2 -18.2 L-105.5 -18.25 -105.55 -19.55 -106.45 -22.7 Q-107.2 -26.15 -107.25 -28.4 L-108.0 -29.6 -111.1 -35.25 Q-113.15 -37.85 -117.75 -39.1 L-118.85 -38.55 Q-120.8 -37.2 -121.0 -34.85 L-121.5 -30.35 Q-121.5 -27.3 -119.75 -22.85 -118.0 -18.45 -118.0 -15.15 -118.0 -13.3 -121.5 -10.1 -124.6 -7.3 -127.65 -6.65 L-124.35 -4.75 Q-116.15 -2.3 -110.75 -1.45 L-101.8 -0.75 Q-94.45 -0.75 -83.75 -3.85 L-77.25 -6.0 -77.05 -6.1 -77.35 -6.1 M-28.4 3.55 L-35.25 -1.15 Q-39.5 -4.2 -42.6 -6.0 L-43.5 -5.15 -48.65 -0.25 -50.5 2.05 -50.5 2.1 -50.8 2.6 -51.0 3.35 Q-51.0 4.3 -49.8 4.7 -47.4 5.55 -39.0 6.0 -37.65 6.0 -35.25 7.3 L-34.0 8.05 Q-32.35 9.05 -31.15 10.45 L-29.0 13.0 Q-27.95 14.1 -26.95 16.55 L-25.25 20.45 Q-24.5 21.85 -23.35 22.6 -22.65 23.05 -21.75 23.3 L-21.55 23.3 -21.15 22.95 -21.05 22.9 -20.95 22.9 -20.35 22.75 -20.15 23.2 -15.7 22.85 -14.6 22.7 Q-11.7 22.15 -10.1 20.25 L-8.35 18.0 -7.9 17.6 -8.7 16.9 -10.1 16.7 -12.7 14.7 -14.75 12.7 -16.1 11.25 -17.8 10.15 -20.25 8.65 -25.25 5.55 -28.4 3.55 M-7.15 -26.7 L-8.75 -26.75 Q-18.9 -26.75 -26.9 -23.5 -30.55 -22.0 -36.2 -18.4 L-36.1 -18.15 -36.05 -18.15 -33.5 -16.5 Q-29.85 -14.05 -19.5 -12.95 L-15.45 -12.6 Q-14.05 -16.1 -10.55 -19.7 -6.5 -23.95 -1.4 -25.7 L-2.15 -25.9 -7.1 -26.7 -7.15 -26.7 M-40.2 -8.6 L-41.45 -7.25 Q-38.8 -6.0 -35.3 -3.5 L-25.5 3.3 Q-22.75 4.7 -16.0 9.6 -10.4 13.65 -6.55 15.45 L-5.7 14.5 -10.5 11.55 -23.5 3.3 -33.4 -3.55 Q-38.45 -7.2 -40.2 -8.6 M-8.2 21.45 L-9.0 22.3 -10.45 23.6 -12.25 24.55 Q-14.05 25.3 -17.1 25.3 L-18.7 25.3 -18.55 25.35 -18.65 25.35 -17.25 25.5 -19.1 25.45 -19.0 26.75 -19.0 27.1 Q-18.4 26.7 -17.15 26.5 -13.65 25.85 -12.5 25.3 L-12.65 24.9 Q-11.35 24.4 -10.2 23.55 L-10.0 25.3 -8.1 24.35 Q-6.5 23.6 -6.5 21.05 L-6.6 19.7 -8.2 21.45 M-40.1 8.35 L-40.0 9.1 Q-40.0 9.95 -40.85 12.9 L-42.0 17.25 Q-43.05 22.8 -43.1 24.3 -41.7 24.4 -37.95 25.7 L-37.2 21.85 -36.0 17.55 -35.25 13.5 -34.5 10.5 Q-36.35 9.3 -39.0 8.5 L-40.1 8.35 M-32.75 11.8 L-33.0 11.6 -33.0 12.0 Q-33.0 14.2 -34.2 18.9 -35.45 23.9 -35.6 25.8 L-31.6 26.5 -29.05 27.1 -29.0 27.1 -29.0 26.8 Q-29.0 25.15 -28.45 23.55 -28.0 22.25 -27.25 21.55 L-28.0 19.5 Q-28.45 18.25 -31.35 13.5 L-32.75 11.8 M-21.0 25.5 Q-24.3 25.5 -25.6 24.3 L-26.1 23.7 -26.25 23.95 Q-27.0 25.85 -27.0 26.8 L-21.0 26.75 -20.85 25.55 -20.85 25.5 -21.0 25.5 M-13.0 32.95 L-12.95 33.15 -13.0 32.95 M-12.8 35.0 L-12.85 34.6 -12.85 34.85 -12.85 35.05 -12.8 35.0 M-46.0 9.0 Q-46.0 9.95 -51.0 21.75 -50.5 22.3 -46.65 23.55 L-45.4 24.0 Q-43.4 11.4 -41.25 8.35 L-45.8 8.55 -46.0 8.6 -46.0 9.0 M-52.55 4.7 L-57.65 10.3 -61.4 14.45 Q-60.65 14.95 -60.05 16.15 -59.0 18.25 -57.5 18.25 -55.65 18.25 -52.25 13.2 L-48.7 8.3 Q-50.6 7.7 -51.75 6.05 L-52.55 4.7 M-64.6 22.15 L-64.7 22.05 -64.7 22.15 -64.6 22.15 M-69.45 32.9 Q-74.4 37.55 -76.7 37.65 L-76.85 37.85 -76.5 38.9 -75.5 41.85 -74.65 44.0 Q-74.25 44.95 -72.95 45.75 L-69.65 47.8 Q-67.9 49.0 -65.7 49.1 L-65.8 48.3 Q-65.8 46.9 -64.3 45.45 L-62.8 44.3 -61.8 43.85 -61.45 43.5 -60.35 42.15 Q-60.35 41.65 -59.25 40.35 -58.15 39.1 -58.15 38.55 L-54.4 34.1 -52.9 31.45 -52.5 31.0 Q-54.2 30.35 -58.5 26.8 L-61.15 24.75 -69.45 32.9 M-63.35 49.0 L-59.45 48.85 -59.95 48.2 -61.4 46.05 -62.8 47.95 -63.35 49.0" fill="#000000" fill-rule="evenodd" stroke="none"/>
    <path d="M36.5 -21.45 L36.5 -21.4 Q36.5 -20.65 38.0 -15.95 39.5 -11.2 39.5 -6.6 L39.45 -5.65 39.6 -5.15 36.0 -4.5 32.0 -3.55 32.9 -6.9 Q35.0 -15.25 35.0 -20.65 L35.0 -21.75 35.1 -21.75 36.5 -21.75 36.5 -21.45" fill="#aa8a71" fill-rule="evenodd" stroke="none"/>
    <path d="M14.6 -24.6 L16.45 -24.8 16.5 -24.8 15.55 -24.15 15.5 -24.5 15.55 -24.7 14.6 -24.6 M5.55 -6.15 L2.0 -6.05 2.0 -7.5 Q2.0 -10.45 3.25 -14.0 4.75 -18.4 7.3 -20.25 L11.05 -23.8 10.95 -23.65 8.5 -17.75 Q6.1 -12.8 5.55 -6.15 M18.25 -23.5 L17.25 -22.35 Q16.0 -20.6 16.0 -19.75 16.0 -19.2 16.8 -18.25 17.55 -17.35 18.45 -17.1 17.7 -15.8 17.5 -14.85 L17.5 -11.1 17.5 -10.75 16.7 -9.5 14.9 -9.5 14.55 -11.2 14.5 -14.6 14.6 -19.4 14.6 -19.45 14.95 -20.0 17.95 -23.4 18.15 -23.55 Q18.15 -23.55 18.25 -23.5 M20.65 -20.4 L21.25 -21.5 21.95 -22.6 20.65 -20.4 M-3.45 -8.9 L-3.95 -6.1 -4.15 -5.75 -4.35 -5.75 -3.45 -8.9 M-5.7 -5.8 L-10.75 -6.55 -11.0 -8.5 Q-11.0 -10.5 -5.85 -17.5 -2.8 -21.65 -0.55 -23.5 1.05 -24.15 2.35 -24.15 -0.7 -22.15 -2.65 -18.65 -4.25 -15.8 -6.5 -8.35 L-6.5 -5.9 -5.7 -5.8 M41.0 -11.3 L40.65 -13.15 40.2 -15.15 Q39.1 -19.95 38.05 -21.75 L47.65 -22.5 57.05 -23.3 Q62.65 -23.3 64.2 -21.65 65.2 -20.6 65.6 -17.95 L65.8 -16.5 65.8 -16.45 62.55 -15.8 53.15 -13.9 Q50.25 -13.9 47.45 -12.6 44.65 -11.3 41.05 -11.3 L41.0 -11.3 M-11.2 7.6 L-11.55 7.4 -12.45 6.85 -23.5 0.55 -25.5 -0.7 -25.85 -0.95 -25.05 -2.0 -21.75 -5.75 -19.2 -9.6 -18.5 -10.5 -16.15 -10.5 -16.5 -7.75 Q-16.5 -6.1 -11.5 -4.5 -6.9 -3.0 -3.25 -3.0 L-2.5 -3.05 Q-2.85 -0.2 -8.4 5.1 L-11.2 7.6 M0.5 27.3 Q0.55 27.95 1.35 31.0 L2.5 35.0 Q2.7 35.6 2.7 39.1 L2.8 39.75 2.05 42.0 1.3 43.9 -6.9 44.3 -9.35 44.65 -9.2 44.25 Q-8.9 43.5 -8.9 42.75 L-9.0 41.85 -8.75 40.9 Q-8.4 39.45 -8.4 38.9 -8.4 36.95 -8.55 35.8 L-8.55 35.75 -8.55 35.65 Q-7.9 33.05 -7.9 32.1 -7.9 31.55 -8.05 31.25 L0.5 27.3 M5.5 41.15 L7.25 43.25 6.6 43.65 6.5 43.8 4.05 43.95 4.6 42.95 5.5 41.15 M-35.25 7.3 L-33.25 5.35 Q-30.9 3.25 -29.7 2.7 L-28.4 3.55 -25.25 5.55 -20.25 8.65 -17.8 10.15 -16.1 11.25 -14.75 12.7 -14.9 13.45 -15.0 18.0 -14.95 20.95 -14.6 22.7 -15.7 22.85 -20.15 23.2 -20.35 22.75 -20.95 22.9 -21.0 22.55 -21.15 22.95 -21.55 23.3 -21.75 23.3 Q-22.65 23.05 -23.35 22.6 -24.5 21.85 -25.25 20.45 L-26.95 16.55 Q-27.95 14.1 -29.0 13.0 L-31.15 10.45 Q-32.35 9.05 -34.0 8.05 L-35.25 7.3 M-19.5 -12.95 L-19.5 -13.85 Q-19.5 -19.85 -9.75 -25.35 L-7.15 -26.7 -7.1 -26.7 -2.15 -25.9 -1.4 -25.7 Q-6.5 -23.95 -10.55 -19.7 -14.05 -16.1 -15.45 -12.6 L-19.5 -12.95 M-63.35 49.0 L-62.8 47.95 -61.4 46.05 -59.95 48.2 -59.45 48.85 -63.35 49.0 M-69.45 32.9 L-61.15 24.75 -58.5 26.8 Q-54.2 30.35 -52.5 31.0 L-52.9 31.45 -54.4 34.1 -58.15 38.55 Q-58.15 39.1 -59.25 40.35 -60.35 41.65 -60.35 42.15 L-61.45 43.5 -61.8 43.85 -62.8 44.3 -64.3 45.45 Q-65.8 46.9 -65.8 48.3 L-65.7 49.1 Q-67.9 49.0 -69.65 47.8 L-72.95 45.75 Q-74.25 44.95 -74.65 44.0 L-75.5 41.85 -76.5 38.9 -76.85 37.85 -76.7 37.65 Q-74.4 37.55 -69.45 32.9" fill="#915e3c" fill-rule="evenodd" stroke="none"/>
    <path d="M8.0 -3.05 L8.65 -4.0 9.5 -4.0 10.35 -6.5 12.5 -6.5 12.0 -4.8 Q11.0 -1.15 10.3 -0.1 L7.75 5.0 7.4 5.75 6.25 5.2 4.35 4.5 4.45 4.15 5.55 0.75 Q6.1 -0.6 8.0 -3.05 M15.5 -6.5 L15.5 -6.35 16.5 -6.55 Q17.35 -6.4 17.95 -5.7 L17.55 -6.75 Q19.0 -7.2 19.6 -8.2 L20.1 -5.75 21.85 2.15 20.2 3.05 18.9 3.5 14.5 3.8 14.5 3.75 14.55 -1.35 14.25 -4.7 14.2 -4.9 14.5 -6.15 14.5 -6.5 15.5 -6.5 M23.3 -20.35 L24.4 -21.75 Q25.0 -20.4 26.75 -18.0 L30.05 -13.6 27.05 -11.85 25.5 -13.2 23.5 -14.85 22.6 -16.85 21.75 -18.25 23.3 -20.35 M-40.2 -8.6 Q-38.45 -7.2 -33.4 -3.55 L-23.5 3.3 -10.5 11.55 -5.7 14.5 -6.55 15.45 Q-10.4 13.65 -16.0 9.6 -22.75 4.7 -25.5 3.3 L-35.3 -3.5 Q-38.8 -6.0 -41.45 -7.25 L-40.2 -8.6 M-18.55 25.35 L-16.5 25.5 -12.65 24.9 -12.5 25.3 Q-13.65 25.85 -17.15 26.5 -18.4 26.7 -19.0 27.1 L-19.0 26.75 -19.1 25.45 -17.25 25.5 -18.65 25.35 -18.55 25.35 M-10.2 23.55 L-9.6 23.05 -8.2 21.45 -6.6 19.7 -6.5 21.05 Q-6.5 23.6 -8.1 24.35 L-10.0 25.3 -10.2 23.55 M-40.1 8.35 L-39.0 8.5 Q-36.35 9.3 -34.5 10.5 L-35.25 13.5 -36.0 17.55 -37.2 21.85 -37.95 25.7 Q-41.7 24.4 -43.1 24.3 -43.05 22.8 -42.0 17.25 L-40.85 12.9 Q-40.0 9.95 -40.0 9.1 L-40.1 8.35 M-33.0 12.0 L-32.75 11.8 -31.35 13.5 Q-28.45 18.25 -28.0 19.5 L-27.25 21.55 Q-28.0 22.25 -28.45 23.55 -29.0 25.15 -29.0 26.8 L-29.05 27.1 -31.6 26.5 -35.6 25.8 Q-35.45 23.9 -34.2 18.9 -33.0 14.2 -33.0 12.0 M-20.85 25.55 L-21.0 26.75 -27.0 26.8 Q-27.0 25.85 -26.25 23.95 L-26.1 23.7 -25.6 24.3 Q-24.3 25.5 -21.0 25.5 L-20.85 25.55 M-52.55 4.7 L-51.75 6.05 Q-50.6 7.7 -48.7 8.3 L-52.25 13.2 Q-55.65 18.25 -57.5 18.25 -59.0 18.25 -60.05 16.15 -60.65 14.95 -61.4 14.45 L-57.65 10.3 -52.55 4.7 M-46.0 9.0 L-46.0 8.6 -45.8 8.55 -41.25 8.35 Q-43.4 11.4 -45.4 24.0 L-46.65 23.55 Q-50.5 22.3 -51.0 21.75 -46.0 9.95 -46.0 9.0" fill="#221c15" fill-rule="evenodd" stroke="none"/>
    <path d="M2.0 -6.05 L-1.95 -5.85 Q-1.4 -10.45 1.05 -14.65 4.7 -20.9 11.65 -24.3 L11.45 -24.2 11.05 -23.8 7.3 -20.25 Q4.75 -18.4 3.25 -14.0 2.0 -10.45 2.0 -7.5 L2.0 -6.05 M14.6 -19.4 L14.5 -14.6 14.55 -11.2 14.9 -9.5 11.1 -9.3 12.25 -14.4 Q13.15 -17.15 14.6 -19.4 M16.7 -9.5 L17.5 -10.75 17.15 -9.5 16.7 -9.5 M4.5 -23.65 L5.0 -23.35 3.95 -22.3 4.4 -22.75 4.5 -23.25 4.5 -23.65 M-3.95 -6.1 L-4.0 -5.75 -4.15 -5.75 -3.95 -6.1 M-10.75 -6.55 L-11.5 -6.8 -14.5 -8.1 -12.1 -13.0 Q-10.55 -16.05 -9.1 -17.75 -4.1 -22.15 -0.55 -23.5 -2.8 -21.65 -5.85 -17.5 -11.0 -10.5 -11.0 -8.5 L-10.75 -6.55 M41.0 -11.3 L41.05 -11.3 Q44.65 -11.3 47.45 -12.6 50.25 -13.9 53.15 -13.9 L62.55 -15.8 65.8 -16.45 65.9 -13.4 Q65.9 -11.15 61.75 -9.95 L48.9 -7.0 41.45 -5.5 41.55 -6.05 Q41.55 -8.25 41.0 -11.3 M-25.5 -0.7 L-32.85 -5.75 -37.1 -9.15 Q-38.25 -10.15 -39.2 -9.9 -36.95 -12.9 -36.25 -15.3 -34.1 -14.1 -29.15 -12.8 L-18.5 -10.5 -19.2 -9.6 -21.75 -5.75 -25.05 -2.0 -25.85 -0.95 -25.5 -0.7 M-35.25 7.3 Q-37.65 6.0 -39.0 6.0 -47.4 5.55 -49.8 4.7 -51.0 4.3 -51.0 3.35 L-50.8 2.6 -50.5 2.1 -50.5 2.05 -48.65 -0.25 -43.5 -5.15 -42.6 -6.0 Q-39.5 -4.2 -35.25 -1.15 L-28.4 3.55 -29.7 2.7 Q-30.9 3.25 -33.25 5.35 L-35.25 7.3 M-7.15 -26.7 L-9.75 -25.35 Q-19.5 -19.85 -19.5 -13.85 L-19.5 -12.95 Q-29.85 -14.05 -33.5 -16.5 L-36.05 -18.15 -36.2 -18.4 Q-30.55 -22.0 -26.9 -23.5 -18.9 -26.75 -8.75 -26.75 L-7.15 -26.7" fill="#593924" fill-rule="evenodd" stroke="none"/>
    <path d="M14.6 -24.6 L15.55 -24.7 15.5 -24.5 15.55 -24.15 Q13.9 -22.95 12.65 -21.25 11.05 -19.05 10.0 -15.6 L8.5 -10.35 8.5 -7.0 7.6 -6.2 5.55 -6.15 Q6.1 -12.8 8.5 -17.75 L10.95 -23.65 11.05 -23.8 11.45 -24.2 11.65 -24.3 11.7 -24.35 14.6 -24.6 M18.45 -17.1 Q17.55 -17.35 16.8 -18.25 16.0 -19.2 16.0 -19.75 16.0 -20.6 17.25 -22.35 L18.25 -23.5 20.6 -22.95 21.95 -22.6 21.25 -21.5 20.65 -20.4 19.5 -18.7 18.95 -17.85 18.5 -17.1 18.45 -17.1 M2.35 -24.15 L2.75 -24.1 4.1 -23.85 4.25 -23.75 4.35 -23.7 4.45 -23.65 4.5 -23.65 4.5 -23.25 4.4 -22.75 3.95 -22.3 -1.35 -14.75 -1.45 -14.5 -2.05 -13.2 -2.45 -12.1 -3.4 -9.1 -3.45 -8.9 -4.35 -5.75 -5.7 -5.8 -6.5 -5.9 -6.5 -8.35 Q-4.25 -15.8 -2.65 -18.65 -0.7 -22.15 2.35 -24.15 M-2.5 -3.05 L-2.25 -3.15 -2.1 -3.35 -2.05 -4.0 -0.5 -4.0 -0.5 -3.8 Q1.4 -0.35 3.45 0.35 L1.85 4.1 1.75 4.35 Q0.7 5.05 -0.35 6.8 L-1.3 8.65 -1.6 9.05 -2.85 10.95 -3.45 11.7 -4.4 12.95 Q-6.55 10.55 -11.2 7.6 L-8.4 5.1 Q-2.85 -0.2 -2.5 -3.05 M-14.75 12.7 L-12.7 14.7 -10.1 16.7 -8.7 16.9 -7.9 17.6 -8.35 18.0 -10.1 20.25 Q-11.7 22.15 -14.6 22.7 L-14.95 20.95 -15.0 18.0 -14.9 13.45 -14.75 12.7 M-21.05 22.9 L-21.15 22.95 -21.0 22.55 -21.05 22.9" fill="#af8661" fill-rule="evenodd" stroke="none"/>
    <path d="M7.0 -26.85 L10.05 -26.95 6.9 -26.75 6.8 -26.85 7.0 -26.85" fill="#333333" fill-rule="evenodd" stroke="none"/>
    <path d="M3.9 -26.85 L2.4 -26.65 -1.35 -28.25 Q-5.75 -30.45 -11.75 -29.6 L-22.1 -27.25 Q-26.85 -26.25 -30.25 -24.45 L-34.85 -21.6 -42.65 -16.85 Q-47.2 -14.05 -50.35 -12.55 -59.5 -8.25 -71.0 -8.25 L-75.25 -8.4 -78.75 -8.6 -79.5 -9.2 Q-81.95 -9.65 -84.1 -11.0 L-84.85 -11.45 Q-90.5 -12.45 -96.1 -15.5 L-96.85 -15.9 Q-97.95 -17.05 -101.0 -18.45 L-101.8 -18.8 -102.0 -19.25 -102.1 -19.5 -103.5 -19.75 Q-103.5 -23.25 -104.5 -26.4 L-105.35 -29.7 -105.4 -29.95 -105.7 -30.65 -106.75 -32.25 Q-107.85 -34.3 -109.0 -35.8 L-109.15 -36.0 Q-111.45 -38.9 -113.85 -39.75 L-112.65 -40.1 -112.5 -40.25 -109.25 -40.25 Q-108.8 -41.15 -107.55 -41.4 -105.8 -41.8 -103.25 -40.8 L-102.0 -40.25 -100.6 -40.25 Q-89.25 -35.6 -87.5 -34.5 L-84.85 -32.7 -82.0 -31.5 -76.1 -29.55 -56.5 -28.5 Q-48.2 -28.5 -38.1 -31.35 -27.95 -34.25 -12.5 -34.25 L-5.8 -34.1 Q-3.25 -32.6 1.5 -30.0 2.25 -29.6 3.9 -26.85 M3.15 -2.95 L1.7 -4.0 5.85 -4.0 4.6 -1.9 3.15 -2.95 M12.5 -0.65 L12.5 -0.3 12.5 3.75 12.35 3.65 11.0 2.85 12.5 -0.65 M33.0 -22.35 L33.0 -18.6 32.25 -14.6 Q31.6 -16.15 29.05 -19.5 L26.65 -22.6 33.0 -22.35 M20.5 -15.6 Q20.8 -14.9 21.8 -13.75 26.1 -9.0 27.0 -9.0 30.6 -11.25 31.85 -12.6 31.15 -8.95 30.5 -7.0 30.5 -5.0 28.75 -0.2 L27.4 3.55 27.25 3.5 Q26.35 3.5 25.45 5.15 24.75 6.45 24.5 7.75 20.95 7.4 18.35 6.55 L20.2 5.6 22.15 4.75 23.3 4.3 Q24.0 4.05 24.0 2.5 24.0 -0.6 22.05 -8.05 L20.0 -15.25 20.4 -16.0 20.5 -15.6 M-137.55 -28.45 L-137.45 -28.45 -123.5 -27.35 -121.3 -21.3 Q-120.0 -17.6 -120.0 -15.5 -120.0 -14.75 -122.9 -12.0 -126.3 -8.75 -129.25 -8.75 -133.65 -8.75 -136.2 -13.2 -137.3 -16.75 -137.45 -21.5 L-137.55 -28.45" fill="#942403" fill-rule="evenodd" stroke="none"/>
    <path d="M0.5 25.0 Q-3.2 27.1 -7.9 28.85 -17.05 32.25 -27.25 32.25 -43.6 32.25 -50.65 29.6 -52.9 28.75 -54.35 27.5 L-56.0 26.0 -61.2 22.8 Q-64.85 20.3 -64.85 18.25 L-63.1 16.25 -61.55 18.65 Q-60.4 20.5 -57.5 20.5 -56.05 20.5 -51.0 14.75 L-50.75 14.5 -50.5 14.75 -52.15 18.7 Q-53.5 22.0 -53.5 22.75 -53.5 23.1 -49.5 25.0 -45.3 27.0 -43.75 27.0 L-42.85 26.75 -40.6 27.25 -39.45 27.7 -37.75 28.0 Q-36.9 28.0 -36.45 27.65 L-34.0 28.5 Q-30.45 29.5 -27.75 29.5 -26.95 29.5 -26.7 29.1 L-26.6 28.85 -24.0 29.0 -19.4 28.6 -19.3 28.85 -19.1 29.0 -11.0 27.55 Q-10.3 27.25 -10.05 26.35 L-8.75 26.5 Q-5.15 26.5 -4.5 24.5 L-4.5 20.85 -4.5 19.75 -0.95 23.3 0.65 24.95 0.5 25.0 M-77.25 -6.0 L-83.75 -3.85 Q-94.45 -0.75 -101.8 -0.75 L-110.75 -1.45 Q-116.15 -2.3 -124.35 -4.75 L-127.65 -6.65 Q-124.6 -7.3 -121.5 -10.1 -118.0 -13.3 -118.0 -15.15 -118.0 -18.45 -119.75 -22.85 -121.5 -27.3 -121.5 -30.35 L-121.0 -34.85 Q-120.8 -37.2 -118.85 -38.55 L-117.75 -39.1 Q-113.15 -37.85 -111.1 -35.25 L-108.0 -29.6 -107.25 -28.4 Q-107.2 -26.15 -106.45 -22.7 L-105.55 -19.55 -105.5 -18.25 -105.2 -18.2 Q-104.75 -17.7 -103.3 -16.9 -102.15 -15.9 -99.85 -14.65 L-94.6 -12.25 -90.15 -10.65 Q-104.95 -11.1 -108.75 -10.95 L-110.95 -10.6 -111.0 -10.0 Q-111.0 -9.25 -110.8 -9.1 L-110.6 -9.0 -106.35 -8.65 -105.5 -8.5 -85.35 -8.5 -85.25 -8.6 -83.5 -7.6 Q-80.55 -6.0 -78.25 -6.0 L-77.35 -6.1 -77.25 -6.0" fill="#731c02" fill-rule="evenodd" stroke="none"/>
  </g>
</svg>
