<?xml version="1.0" encoding="UTF-8" standalone="no"?>
<svg xmlns:ffdec="https://www.free-decompiler.com/flash" xmlns:xlink="http://www.w3.org/1999/xlink" ffdec:objectType="shape" height="116.85px" width="97.5px" xmlns="http://www.w3.org/2000/svg">
  <g transform="matrix(1.0, 0.0, 0.0, 1.0, 7.75, 116.35)">
    <path d="M62.85 -110.8 Q54.75 -111.45 35.85 -111.0 L37.5 -110.75 35.8 -110.75 Q11.9 -111.15 5.9 -110.65 3.4 -110.45 7.95 -107.35 L8.0 -107.3 24.4 -106.9 46.15 -106.5 Q56.85 -106.5 62.35 -106.75 L61.7 -103.0 Q61.05 -98.95 60.75 -96.2 L52.45 -96.0 Q31.4 -94.95 25.9 -95.5 L4.25 -96.15 Q2.15 -96.0 1.65 -94.4 1.3 -93.35 1.3 -88.25 1.3 -81.7 2.15 -81.1 3.6 -80.0 15.2 -80.0 L27.1 -80.45 45.0 -81.0 60.0 -81.25 60.15 -78.05 60.85 -69.5 Q59.5 -50.85 59.3 -39.9 L57.5 -39.8 53.4 -39.35 51.1 -39.4 15.4 -39.7 13.45 -40.0 11.15 -40.5 Q8.35 -40.3 6.25 -39.55 3.75 -38.7 3.75 -37.6 3.75 -36.8 5.4 -35.75 L4.65 -34.45 Q3.75 -33.85 3.75 -33.1 3.75 -32.75 4.05 -32.3 3.75 -30.85 3.75 -28.9 L3.75 -25.65 3.75 -25.2 3.75 -24.45 3.75 -24.4 4.05 -24.45 Q5.4 -21.5 10.6 -21.5 L53.3 -22.1 53.25 -21.75 53.95 -22.1 55.35 -22.4 60.0 -22.25 60.1 -22.2 63.8 -19.65 Q65.7 -18.4 65.7 -17.65 65.7 -16.9 62.45 -15.45 60.9 -14.75 59.8 -14.35 L59.5 -9.75 Q18.65 -10.05 8.1 -9.2 4.25 -8.9 3.6 -8.35 3.3 -8.05 3.75 -7.4 L3.85 -6.1 Q4.45 -5.0 6.85 -5.0 L10.55 -5.35 13.7 -5.75 56.1 -5.65 58.65 -5.6 58.25 -4.7 59.4 -4.3 Q60.0 -3.95 60.0 -3.15 60.0 -2.2 58.25 -1.8 L42.3 -0.75 21.95 -0.1 7.3 0.5 Q-2.8 0.5 -5.3 -0.7 -6.15 -1.1 -6.05 -1.6 L-5.9 -1.65 Q-7.95 -3.35 -7.7 -9.5 -6.6 -19.85 -6.6 -23.45 L-7.0 -36.65 -7.35 -45.5 Q-7.95 -71.45 -7.6 -83.7 -7.3 -95.95 -6.8 -104.05 -6.4 -112.15 -5.8 -104.0 L-5.8 -113.75 Q-2.65 -117.95 -0.35 -115.35 7.7 -116.15 37.0 -116.25 37.0 -116.45 45.25 -116.3 L61.3 -115.75 61.5 -115.6 Q66.4 -115.4 66.4 -113.55 66.4 -112.5 63.75 -111.5 L62.95 -111.2 62.85 -110.8" fill="#800000" fill-opacity="0.49019608" fill-rule="evenodd" stroke="none"/>
    <path d="M62.35 -106.75 Q56.85 -106.5 46.15 -106.5 L24.4 -106.9 8.0 -107.3 7.95 -107.35 Q3.4 -110.45 5.9 -110.65 11.9 -111.15 35.8 -110.75 L37.5 -110.75 35.85 -111.0 Q54.75 -111.45 62.85 -110.8 L65.6 -110.55 Q68.75 -110.1 68.75 -109.05 68.75 -107.45 66.8 -107.1 L62.35 -106.75 M58.65 -5.6 L56.1 -5.65 13.7 -5.75 10.55 -5.35 6.85 -5.0 Q4.45 -5.0 3.85 -6.1 L3.75 -7.4 Q3.3 -8.05 3.6 -8.35 4.25 -8.9 8.1 -9.2 18.65 -10.05 59.5 -9.75 L59.7 -9.75 66.5 -10.25 Q70.3 -10.4 70.3 -8.65 70.3 -8.15 69.3 -7.25 L66.85 -5.75 Q66.45 -5.6 58.65 -5.6 M60.1 -22.2 L60.0 -22.25 55.35 -22.4 53.95 -22.1 53.3 -22.1 10.6 -21.5 Q5.4 -21.5 4.05 -24.45 L3.75 -25.2 3.75 -25.65 3.75 -28.9 Q3.75 -30.85 4.05 -32.3 L4.65 -34.45 5.4 -35.75 Q3.75 -36.8 3.75 -37.6 3.75 -38.7 6.25 -39.55 8.35 -40.3 11.15 -40.5 L13.45 -40.0 15.4 -39.7 51.1 -39.4 53.4 -39.35 57.5 -39.8 59.3 -39.9 Q69.7 -40.65 77.15 -38.5 80.75 -37.55 83.6 -36.0 L84.65 -35.35 87.25 -34.25 88.8 -33.8 Q89.75 -33.4 89.75 -32.65 89.75 -31.6 87.65 -31.15 L81.95 -30.25 80.55 -29.15 Q79.95 -28.5 79.95 -27.7 79.95 -27.3 83.8 -26.1 87.65 -24.85 87.65 -24.65 87.65 -23.85 86.55 -23.2 85.4 -22.5 83.5 -22.5 L77.75 -22.4 60.1 -22.2 M60.0 -81.25 L45.0 -81.0 27.1 -80.45 15.2 -80.0 Q3.6 -80.0 2.15 -81.1 1.3 -81.7 1.3 -88.25 1.3 -93.35 1.65 -94.4 2.15 -96.0 4.25 -96.15 L25.9 -95.5 Q31.4 -94.95 52.45 -96.0 L60.75 -96.2 Q71.6 -96.15 77.9 -94.0 L78.7 -93.1 Q79.0 -92.4 81.4 -91.5 84.6 -90.35 84.6 -89.35 84.6 -88.65 83.6 -88.1 81.75 -87.1 76.35 -85.85 L76.25 -85.6 76.35 -85.6 Q79.3 -85.9 80.65 -84.85 81.4 -84.2 81.4 -83.55 81.4 -82.7 81.2 -82.55 80.65 -82.1 77.9 -81.9 L60.0 -81.25" fill="#cc9d3c" fill-opacity="0.49019608" fill-rule="evenodd" stroke="none"/>
  </g>
</svg>
