<?xml version="1.0" encoding="UTF-8" standalone="no"?>
<svg xmlns:ffdec="https://www.free-decompiler.com/flash" xmlns:xlink="http://www.w3.org/1999/xlink" ffdec:objectType="shape" height="98.95px" width="101.6px" xmlns="http://www.w3.org/2000/svg">
  <g transform="matrix(1.0, 0.0, 0.0, 1.0, 49.75, 47.45)">
    <path d="M37.15 -46.2 L36.65 -42.35 Q36.1 -39.1 36.1 -38.45 L36.15 -37.75 36.0 -37.75 35.45 -35.45 35.45 -35.3 38.5 -33.55 38.45 -33.65 Q39.95 -35.6 45.45 -38.55 51.85 -41.9 51.85 -38.75 51.85 -37.2 50.65 -32.05 49.25 -26.05 47.85 -24.65 L48.05 -22.95 47.75 -22.45 47.75 -22.15 47.75 -22.1 Q49.85 -19.05 51.65 -11.15 51.65 -8.55 49.9 -4.3 48.5 -0.85 47.05 0.4 L47.05 0.65 46.55 3.75 46.05 6.8 Q46.05 9.35 46.9 18.15 L47.75 29.9 47.55 32.75 47.65 33.05 47.15 33.5 47.15 33.6 Q46.75 35.0 44.75 37.15 L41.35 40.65 41.5 41.45 Q40.95 41.7 39.55 42.5 L36.7 42.9 Q31.9 42.9 25.4 37.55 19.35 32.5 19.35 29.75 L20.05 25.0 20.7 20.2 Q20.7 17.85 20.0 15.75 19.2 13.3 17.3 10.55 15.9 10.4 14.2 9.15 12.7 10.1 11.15 11.55 9.95 12.65 9.0 13.9 8.55 15.15 8.25 16.55 7.8 18.65 7.25 23.4 L6.25 30.75 Q4.0 42.0 1.6 45.3 -2.9 51.5 -14.9 51.5 -17.25 51.5 -26.0 48.05 -33.2 45.25 -35.65 44.0 -38.05 42.8 -39.45 41.75 -41.5 40.15 -42.55 38.25 -45.45 32.95 -47.7 29.5 -48.5 27.95 -48.5 23.4 L-49.1 18.85 -49.75 14.3 -49.25 10.4 -49.35 10.25 -49.5 9.4 Q-49.5 8.2 -46.1 1.9 -42.75 -4.4 -41.1 -6.25 L-34.55 -13.5 Q-30.75 -17.4 -26.65 -20.5 L-18.25 -27.15 Q-13.1 -31.2 -8.95 -33.6 0.0 -38.75 10.15 -39.6 L10.1 -39.5 13.0 -39.65 15.85 -39.9 19.45 -39.7 19.4 -39.6 22.55 -39.05 22.9 -38.95 23.15 -38.9 23.15 -38.95 Q23.8 -38.95 24.2 -39.35 24.6 -39.7 24.6 -40.15 L24.6 -40.5 Q25.25 -41.7 26.35 -42.8 29.55 -46.05 35.3 -47.45 L35.5 -47.25 35.55 -46.9 36.95 -47.15 Q37.15 -47.6 37.15 -46.2 M34.0 -44.85 Q33.25 -44.35 32.15 -43.75 28.45 -41.6 27.95 -41.0 L26.25 -37.85 24.8 -34.9 24.35 -34.9 Q23.5 -32.55 23.5 -31.4 23.5 -30.25 24.85 -27.9 L25.85 -26.15 26.1 -26.15 Q26.2 -25.75 26.45 -25.3 27.35 -25.2 28.2 -24.75 29.95 -23.8 30.3 -22.3 L32.4 -22.4 Q33.05 -21.95 33.8 -21.75 L33.8 -22.0 34.0 -22.4 33.9 -22.45 34.1 -23.55 34.15 -23.55 34.35 -24.85 34.1 -25.6 Q32.1 -25.6 29.15 -27.7 26.55 -29.5 26.55 -29.95 26.55 -33.15 29.6 -38.7 32.15 -43.25 34.1 -44.65 L34.2 -45.0 34.0 -44.85 M33.65 -38.3 L33.7 -40.25 32.35 -38.0 Q29.05 -32.6 29.05 -31.3 29.05 -30.55 31.9 -29.45 32.5 -29.2 33.05 -29.0 L32.45 -31.3 Q32.45 -33.0 33.05 -35.6 33.3 -36.8 33.7 -37.7 L33.65 -38.3 M22.4 -36.6 L20.8 -36.8 19.05 -37.05 19.05 -36.75 18.8 -35.5 20.05 -30.85 Q20.95 -27.35 21.2 -24.45 22.0 -24.85 23.05 -25.05 L22.0 -27.15 Q21.0 -29.75 21.0 -31.1 21.0 -32.45 22.4 -36.6 M41.9 -23.25 L41.85 -23.5 42.7 -23.45 45.25 -23.8 45.0 -24.7 Q44.6 -26.75 42.95 -28.15 L40.55 -29.85 39.95 -30.2 39.6 -30.35 39.6 -30.45 37.4 -31.9 35.05 -33.7 34.8 -32.1 34.9 -30.8 Q35.2 -29.5 35.9 -27.95 36.95 -25.75 36.95 -23.4 L36.8 -22.6 36.55 -22.55 Q36.9 -22.4 36.1 -22.35 L36.0 -21.7 36.8 -21.85 37.35 -21.65 Q39.6 -23.75 41.9 -23.2 L41.9 -23.25 M10.05 -36.6 L9.7 -36.55 6.8 -36.2 6.85 -36.35 6.9 -36.85 5.1 -36.6 2.5 -36.1 Q-0.95 -35.35 -4.95 -32.95 L-5.1 -32.9 -5.95 -32.35 -6.85 -31.8 -7.5 -31.35 -12.05 -28.65 -14.85 -27.05 -16.85 -25.8 -16.9 -25.75 -17.25 -25.55 -17.3 -25.5 -21.0 -22.65 -22.05 -21.75 -24.9 -19.25 -27.9 -16.45 -30.1 -14.35 -31.05 -13.4 -32.0 -12.45 -32.0 -12.4 Q-35.75 -8.55 -38.9 -4.6 L-39.15 -4.25 -40.75 -2.15 -41.85 -0.65 -43.0 1.05 Q-45.85 5.25 -47.55 9.15 L-47.3 10.1 -47.2 10.15 -46.65 10.5 Q-46.45 11.25 -46.6 12.45 L-46.6 12.55 -46.85 14.35 Q-46.85 16.35 -42.75 18.7 L-41.4 19.45 -37.7 21.65 Q-35.35 23.3 -35.0 24.75 -34.15 23.7 -34.15 22.05 -34.15 21.25 -36.1 18.75 L-38.1 16.0 Q-38.1 15.05 -37.3 12.35 -36.4 9.45 -35.6 8.75 L-35.5 8.65 -34.35 8.6 -34.35 10.3 -34.4 10.9 Q-34.4 12.15 -32.2 13.5 L-30.1 14.55 -30.4 13.85 -31.05 12.1 -31.1 11.95 -31.1 12.0 -31.65 10.0 -31.3 9.15 -31.1 8.9 -30.1 8.05 -29.4 9.1 -29.25 10.15 -29.25 10.5 -28.75 11.9 Q-28.25 12.7 -28.25 13.3 L-28.0 13.9 -28.0 13.35 Q-27.9 9.95 -27.0 6.2 L-26.2 3.7 Q-25.3 1.25 -24.15 0.75 L-23.05 0.75 -23.05 0.8 -23.1 2.65 -23.3 4.65 -22.85 6.75 -22.0 8.25 Q-20.55 6.6 -20.1 4.0 L-19.45 -0.4 -20.5 -4.6 -20.45 -5.15 -20.0 -6.2 -19.0 -6.9 -18.55 -5.35 -18.2 -3.7 -18.0 -2.8 -17.6 -1.1 -17.05 -1.0 -16.65 2.3 Q-13.15 -6.1 -13.15 -8.15 -13.15 -8.75 -13.7 -10.35 L-14.2 -12.25 -14.25 -12.6 -13.95 -14.55 -13.5 -17.0 -12.7 -17.2 -12.25 -17.3 Q-11.05 -16.2 -11.15 -15.25 -11.6 -14.3 -11.6 -13.05 L-11.3 -11.45 -10.35 -9.85 Q-9.9 -12.35 -7.85 -16.15 -6.45 -18.75 -4.85 -20.95 L-3.75 -22.4 -2.65 -22.5 -2.5 -22.55 -2.35 -22.35 -2.25 -21.55 -2.7 -19.25 -3.15 -17.0 -2.9 -14.35 Q-1.2 -16.15 -0.2 -20.0 L1.3 -26.65 Q1.15 -27.05 2.4 -27.05 L2.45 -27.05 Q2.95 -27.05 3.35 -26.5 L4.1 -24.6 4.3 -22.75 4.35 -22.85 4.4 -22.5 4.55 -22.45 4.4 -22.05 4.4 -21.8 4.65 -21.75 5.15 -22.4 5.25 -22.5 5.3 -22.6 5.4 -22.9 5.8 -24.15 6.2 -25.8 6.2 -25.85 7.1 -29.1 7.15 -29.15 8.1 -29.5 8.65 -29.7 8.8 -29.6 8.95 -29.4 9.05 -29.15 9.25 -27.75 9.1 -26.8 9.1 -26.6 9.35 -26.4 9.55 -26.55 Q12.95 -29.35 14.5 -30.05 L14.85 -30.15 Q16.4 -30.7 16.9 -29.5 L17.05 -29.2 17.2 -27.85 16.5 -25.35 16.45 -25.1 18.8 -24.8 Q18.45 -27.0 17.65 -29.0 L17.45 -29.4 17.2 -30.1 Q16.55 -31.95 16.4 -33.65 L16.3 -34.7 16.4 -35.6 16.5 -36.1 16.55 -36.2 16.7 -36.7 16.8 -36.9 14.15 -37.05 13.15 -37.15 12.05 -36.85 11.75 -36.8 10.85 -36.65 10.65 -36.65 10.05 -36.6 M9.45 -21.4 Q10.9 -23.1 12.5 -24.0 13.35 -24.55 14.3 -24.8 L14.3 -24.95 14.45 -25.75 14.7 -27.0 14.55 -27.25 13.85 -26.95 12.6 -26.15 10.1 -23.75 9.05 -22.55 8.6 -22.05 6.65 -20.1 6.2 -20.05 Q6.0 -20.05 5.9 -20.2 4.65 -17.55 3.35 -16.0 L2.15 -15.9 Q1.95 -16.6 2.1 -17.85 L2.4 -20.0 2.1 -20.5 2.0 -20.1 1.3 -18.05 -0.05 -14.95 Q-1.9 -11.55 -4.55 -10.1 -5.65 -11.3 -5.5 -12.9 L-4.9 -15.8 -5.25 -16.5 -6.7 -13.7 -8.0 -10.9 -8.45 -8.0 Q-8.85 -5.95 -9.5 -5.25 L-9.35 -5.15 -10.15 -5.1 Q-10.9 -5.1 -11.2 -5.75 L-11.4 -6.4 -11.5 -5.8 Q-12.2 -2.8 -13.5 0.9 -15.55 6.65 -17.15 6.65 L-18.2 6.35 -18.55 5.75 Q-18.8 7.2 -20.25 9.5 -21.8 12.0 -22.85 12.0 L-24.4 11.9 -24.45 10.3 -24.3 8.65 Q-24.3 7.9 -24.5 7.85 L-24.9 7.6 -25.0 7.6 -25.15 7.85 -25.25 8.75 -25.3 10.25 -25.65 14.4 Q-26.2 19.0 -26.85 19.0 -33.75 15.95 -35.45 13.85 L-35.5 13.75 -35.75 14.15 -35.8 15.25 -33.95 18.2 Q-32.1 21.15 -32.1 21.75 -32.1 23.05 -33.75 29.65 L-33.8 29.9 -34.75 30.1 Q-36.45 30.1 -36.8 27.8 -36.9 25.4 -37.05 25.15 -37.6 24.25 -39.4 23.0 -41.55 21.5 -44.6 20.15 -46.15 19.45 -47.1 18.35 L-46.75 21.3 Q-46.75 25.35 -45.65 28.3 -44.6 31.0 -41.25 36.05 -37.9 41.1 -27.9 45.45 -19.35 49.15 -15.3 49.15 L-9.35 48.6 -7.15 48.0 Q-1.0 46.0 1.85 40.45 4.35 35.6 4.35 26.35 4.35 25.75 4.85 23.45 L5.3 20.5 Q5.3 18.25 6.15 15.65 L6.0 14.7 7.3 12.75 8.6 10.1 9.05 9.35 9.2 10.25 9.25 10.3 Q10.9 8.55 12.7 7.7 L12.2 7.25 11.2 6.25 9.85 5.25 7.75 3.9 Q6.5 2.75 5.45 -0.1 4.45 -2.75 4.45 -4.8 L4.45 -5.1 4.7 -6.6 6.3 -10.75 6.3 -10.8 Q5.7 -11.35 5.7 -12.75 5.7 -17.05 9.45 -21.4 M18.9 -22.9 L18.9 -23.1 18.85 -23.1 Q12.65 -22.15 10.2 -19.15 9.3 -18.15 8.85 -16.8 8.45 -15.6 8.4 -14.15 L8.4 -13.8 8.6 -14.15 9.0 -14.6 Q12.65 -18.9 16.55 -18.3 17.15 -21.15 18.9 -22.9 M20.3 -21.3 L20.25 -21.3 Q19.7 -20.5 19.35 -19.3 L18.85 -16.85 18.85 -16.65 18.8 -16.65 18.5 -15.25 19.05 -14.3 Q19.4 -14.1 19.95 -13.85 L19.95 -13.95 20.6 -13.85 20.7 -13.7 20.9 -13.65 Q21.75 -14.05 22.25 -13.5 L22.55 -13.5 24.15 -13.45 Q26.2 -13.45 27.25 -16.8 27.75 -18.55 27.85 -20.4 27.85 -21.35 27.2 -22.0 26.0 -23.15 23.05 -23.15 22.05 -23.15 21.25 -22.5 20.35 -22.05 20.3 -21.3 M16.1 -16.45 Q12.1 -16.45 9.2 -11.45 L7.65 -8.3 Q7.05 -6.75 7.05 -5.65 7.05 -0.8 9.15 1.4 L10.9 2.7 11.65 0.1 13.2 -5.0 Q15.1 -10.95 16.45 -13.8 16.15 -14.25 16.15 -14.7 L16.25 -16.45 16.1 -16.45 M17.25 -9.7 L17.2 -10.0 17.15 -9.75 15.65 -5.1 13.6 1.4 12.65 4.05 13.05 4.35 15.3 6.1 Q18.95 -7.4 20.95 -11.6 L19.1 -11.7 Q17.7 -11.1 17.25 -9.7 M41.1 -20.9 L38.9 -19.35 38.8 -18.8 38.1 -18.75 36.05 -17.15 Q35.65 -16.8 34.95 -13.95 34.25 -11.25 34.25 -10.35 34.25 -9.2 34.4 -8.2 L34.4 -8.15 34.5 -7.7 34.6 -7.5 34.9 -6.4 35.55 -5.8 35.4 -5.3 Q36.2 -3.85 37.6 -2.8 39.65 -1.35 44.05 -0.4 L44.3 -0.45 44.85 -1.4 45.0 -1.2 45.05 -1.3 45.4 -1.8 Q42.6 -2.05 40.4 -3.7 38.15 -5.45 38.15 -7.15 L38.15 -7.45 Q38.2 -12.1 39.35 -14.7 41.4 -19.2 46.7 -19.3 46.4 -20.2 45.9 -20.55 45.2 -21.45 44.35 -21.65 L44.25 -21.65 43.8 -21.75 42.3 -21.15 42.1 -21.65 41.95 -21.5 41.1 -20.9 M30.45 -20.55 Q30.2 -18.3 29.15 -15.45 28.4 -13.45 27.45 -12.3 29.1 -12.1 30.45 -10.8 L32.0 -9.2 31.95 -10.15 Q31.95 -14.25 35.0 -18.8 32.6 -19.0 31.5 -19.55 L30.45 -20.55 M23.6 -10.1 L23.5 -10.25 23.0 -10.35 22.45 -8.75 Q23.0 -7.75 23.15 -5.95 23.3 -3.3 23.7 -2.2 L25.6 4.75 26.85 11.7 Q27.2 13.85 28.3 16.5 L29.3 18.75 29.95 18.65 29.95 18.6 29.55 15.2 29.1 13.45 Q28.6 12.35 28.6 11.65 28.6 10.5 26.1 0.95 L25.95 0.25 25.9 0.2 25.9 0.15 24.4 -5.6 24.35 -5.65 23.85 -6.05 24.1 -7.0 Q23.55 -9.2 23.55 -9.75 L23.6 -10.1 M20.6 -3.15 L20.55 -3.15 16.9 7.25 Q17.4 7.55 18.05 7.65 L17.9 8.15 18.5 8.65 Q19.2 8.35 19.95 9.3 L20.0 9.4 20.3 9.95 20.9 11.3 21.0 11.45 21.4 12.6 Q22.5 15.85 23.15 19.95 L24.25 19.8 Q24.7 20.15 25.05 20.15 L25.9 19.85 26.0 19.8 26.45 19.75 Q25.95 19.2 25.65 18.15 L24.85 13.7 24.35 11.55 23.8 8.75 23.6 7.55 21.85 1.4 Q20.95 -1.5 20.6 -3.15 M29.15 -4.7 L29.45 -3.85 Q30.0 -2.75 31.1 -2.75 31.95 -2.75 32.25 -3.3 L32.45 -4.25 Q32.15 -5.95 30.65 -6.2 29.15 -6.45 29.15 -4.7 M43.85 -16.95 Q41.55 -16.3 40.7 -12.9 L40.25 -8.25 40.25 -8.05 Q40.35 -6.35 41.95 -5.45 L46.25 -3.25 47.3 -5.0 47.3 -5.05 48.15 -5.25 48.2 -5.3 48.3 -5.4 48.4 -5.55 48.05 -5.55 Q45.75 -5.55 44.35 -6.65 43.25 -7.55 43.25 -8.5 L43.25 -9.0 43.25 -9.2 Q43.35 -11.5 43.9 -12.7 44.25 -13.45 44.75 -13.9 L47.05 -14.8 48.55 -14.65 47.5 -17.2 47.45 -17.05 47.0 -16.8 46.8 -16.8 46.5 -16.8 45.4 -17.0 45.35 -17.15 45.1 -17.15 45.0 -17.15 43.85 -16.95 M44.45 -30.0 Q45.85 -28.8 46.65 -27.5 L47.55 -30.85 49.1 -37.1 Q47.5 -37.15 44.55 -35.35 L40.5 -32.65 Q42.7 -31.55 44.45 -30.0 M49.4 -10.85 L49.25 -11.9 46.5 -12.05 Q45.7 -12.05 45.45 -10.95 L45.35 -9.95 45.3 -8.9 Q45.3 -8.5 47.05 -7.95 L48.55 -7.4 48.8 -7.9 49.4 -10.1 49.4 -10.8 49.4 -10.85 M41.8 4.4 L41.8 4.65 41.7 4.75 41.85 4.05 41.8 4.4 M42.8 2.9 L42.75 2.85 42.2 3.35 41.9 3.85 42.35 2.5 41.3 2.85 40.1 3.3 Q40.35 4.05 40.4 5.35 L40.4 5.65 40.4 7.5 40.85 10.95 41.3 14.4 Q41.3 15.0 41.95 16.6 L42.6 18.55 42.6 18.6 44.9 18.55 44.45 14.2 43.9 8.3 Q43.7 6.35 43.85 4.35 L43.9 3.75 43.65 3.8 43.55 3.6 43.0 2.8 42.8 2.9 M22.5 25.65 Q23.1 24.8 25.2 24.35 L30.05 23.7 31.45 23.5 32.45 23.65 33.7 23.2 36.9 22.7 Q39.7 22.45 41.45 22.65 L41.45 22.6 42.2 22.75 42.25 23.15 42.35 23.15 43.3 23.0 43.5 23.05 43.9 23.0 44.1 23.0 45.2 23.3 45.05 21.05 44.4 21.05 42.95 20.8 42.1 20.75 41.65 20.65 41.15 20.6 41.05 20.4 38.95 20.8 33.9 20.95 Q33.4 20.5 32.25 20.55 30.9 20.6 30.45 21.15 L29.8 21.3 28.25 21.7 26.1 22.25 24.4 22.55 23.05 22.25 22.45 25.55 22.4 25.8 22.5 25.65 M39.45 18.45 L39.45 18.75 40.75 19.05 40.6 18.7 Q40.0 17.3 39.3 14.25 38.25 9.5 38.25 8.55 38.25 7.15 38.65 5.35 L38.8 4.85 38.25 4.8 38.25 4.75 Q38.25 3.75 36.7 4.05 L36.15 4.25 35.75 4.25 34.45 4.15 Q31.65 3.9 29.05 2.5 29.2 3.8 29.9 6.65 L29.95 6.8 29.9 6.8 30.2 8.05 30.55 9.4 30.9 11.15 32.0 15.6 32.65 18.35 Q34.7 18.2 36.65 18.4 L37.9 18.55 38.2 18.35 38.25 18.35 39.45 18.45 M43.25 25.2 L41.9 24.75 41.75 25.5 41.6 24.85 38.5 25.25 32.45 25.85 27.6 26.75 24.0 27.45 22.6 27.3 Q22.25 27.8 22.25 26.4 L22.25 26.35 Q21.7 28.5 21.7 29.25 21.7 30.3 26.7 35.0 32.55 40.45 36.95 40.45 L39.6 39.85 Q39.75 38.7 42.6 35.35 L45.05 32.55 44.85 32.15 45.65 32.25 45.6 32.0 45.75 30.3 45.4 25.65 43.25 25.2 M34.3 33.05 L33.8 34.05 Q34.25 34.35 32.9 34.35 L31.9 34.2 31.9 33.0 Q31.9 31.65 33.65 29.9 35.85 27.8 38.2 30.25 39.25 31.4 40.35 36.0 L39.05 36.85 Q38.35 36.15 37.85 34.3 37.55 33.15 34.95 32.25 L34.3 33.05" fill="#000000" fill-rule="evenodd" stroke="none"/>
    <path d="M29.15 -4.7 Q29.15 -6.45 30.65 -6.2 32.15 -5.95 32.45 -4.25 L32.25 -3.3 Q31.95 -2.75 31.1 -2.75 30.0 -2.75 29.45 -3.85 L29.15 -4.7" fill="#ffffff" fill-rule="evenodd" stroke="none"/>
    <path d="M22.4 -36.6 Q21.0 -32.45 21.0 -31.1 21.0 -29.75 22.0 -27.15 L23.05 -25.05 Q22.0 -24.85 21.2 -24.45 20.95 -27.35 20.05 -30.85 L18.8 -35.5 19.05 -36.75 19.05 -37.05 20.8 -36.8 22.4 -36.6 M18.85 -23.1 L18.9 -22.9 Q17.15 -21.15 16.55 -18.3 12.65 -18.9 9.0 -14.6 L8.6 -14.15 8.4 -14.15 Q8.45 -15.6 8.85 -16.8 9.3 -18.15 10.2 -19.15 12.65 -22.15 18.85 -23.1 M17.15 -9.75 L17.25 -9.7 Q17.7 -11.1 19.1 -11.7 L20.95 -11.6 Q18.95 -7.4 15.3 6.1 L13.05 4.35 12.65 4.05 13.6 1.4 15.65 -5.1 17.15 -9.75 M30.45 -20.55 L31.5 -19.55 Q32.6 -19.0 35.0 -18.8 31.95 -14.25 31.95 -10.15 L32.0 -9.2 30.45 -10.8 Q29.1 -12.1 27.45 -12.3 28.4 -13.45 29.15 -15.45 30.2 -18.3 30.45 -20.55 M23.6 -10.1 L23.55 -9.75 Q23.55 -9.2 24.1 -7.0 L23.85 -6.05 24.35 -5.65 24.4 -5.6 25.9 0.15 25.9 0.2 25.95 0.25 26.1 0.95 Q28.6 10.5 28.6 11.65 28.6 12.35 29.1 13.45 L29.55 15.2 29.95 18.6 29.95 18.65 29.3 18.75 28.3 16.5 Q27.2 13.85 26.85 11.7 L25.6 4.75 23.7 -2.2 Q23.3 -3.3 23.15 -5.95 23.0 -7.75 22.45 -8.75 L23.0 -10.35 23.5 -10.25 23.6 -10.1 M42.8 2.9 L43.0 2.8 43.55 3.6 43.65 3.8 43.9 3.75 43.85 4.35 Q43.7 6.35 43.9 8.3 L44.45 14.2 44.9 18.55 42.6 18.6 42.6 18.55 41.95 16.6 Q41.3 15.0 41.3 14.4 L40.85 10.95 40.4 7.5 40.4 5.65 40.4 5.35 Q40.35 4.05 40.1 3.3 L41.3 2.85 42.35 2.5 41.9 3.85 42.2 3.35 42.75 2.85 42.8 2.9 M41.8 4.4 L41.85 4.05 41.7 4.75 41.8 4.65 41.8 4.4 M22.45 25.55 L23.05 22.25 24.4 22.55 26.1 22.25 28.25 21.7 29.8 21.3 30.45 21.15 Q30.9 20.6 32.25 20.55 33.4 20.5 33.9 20.95 L38.95 20.8 41.05 20.4 41.15 20.6 41.65 20.65 42.1 20.75 42.95 20.8 44.4 21.05 45.05 21.05 45.2 23.3 44.1 23.0 43.9 23.0 43.5 23.05 43.3 23.0 42.35 23.15 42.25 23.15 42.2 22.75 41.45 22.6 41.45 22.65 Q39.7 22.45 36.9 22.7 L33.7 23.2 32.45 23.65 31.45 23.5 30.05 23.7 25.2 24.35 Q23.1 24.8 22.5 25.65 L22.45 25.55 M40.6 18.7 L40.75 19.05 39.45 18.75 39.45 18.45 40.6 18.7" fill="#221c15" fill-rule="evenodd" stroke="none"/>
    <path d="M21.25 -22.5 Q22.05 -23.15 23.05 -23.15 26.0 -23.15 27.2 -22.0 27.85 -21.35 27.85 -20.4 27.75 -18.55 27.25 -16.8 26.2 -13.45 24.15 -13.45 L22.55 -13.5 22.25 -13.5 Q21.75 -14.05 20.9 -13.65 L20.7 -13.7 20.6 -13.85 19.95 -13.95 19.95 -13.85 Q19.4 -14.1 19.05 -14.3 L18.5 -15.25 18.8 -16.65 18.85 -16.65 18.85 -16.85 19.35 -19.3 Q19.7 -20.5 20.25 -21.3 L20.3 -21.3 20.3 -21.2 Q20.3 -20.3 20.7 -20.2 L22.35 -20.15 22.45 -20.15 Q21.3 -19.35 21.3 -17.75 L21.5 -16.5 Q22.0 -15.45 23.45 -15.45 24.45 -15.45 25.05 -16.75 25.5 -17.8 25.5 -19.1 25.5 -21.15 24.0 -20.8 L24.4 -21.45 24.15 -22.35 Q23.0 -23.15 21.65 -22.65 L21.25 -22.5 M35.55 -5.8 L34.9 -6.4 34.6 -7.5 34.5 -7.7 34.4 -8.15 34.4 -8.2 Q34.25 -9.2 34.25 -10.35 34.25 -11.25 34.95 -13.95 35.65 -16.8 36.05 -17.15 L38.1 -18.75 38.8 -18.8 38.9 -19.35 41.1 -20.9 41.55 -20.4 43.1 -18.6 Q44.35 -19.15 45.95 -19.25 L44.55 -21.15 44.25 -21.65 44.35 -21.65 Q45.2 -21.45 45.9 -20.55 46.4 -20.2 46.7 -19.3 41.4 -19.2 39.35 -14.7 38.2 -12.1 38.15 -7.45 L38.05 -7.4 35.4 -5.95 35.55 -5.8 M40.25 -8.05 L40.25 -8.25 40.7 -12.9 Q41.55 -16.3 43.85 -16.95 L44.25 -15.4 44.75 -13.9 Q44.25 -13.45 43.9 -12.7 43.35 -11.5 43.25 -9.2 L42.3 -8.85 40.25 -8.05 M47.0 -16.8 L47.45 -17.05 47.5 -17.2 48.55 -14.65 47.05 -14.8 47.45 -14.8 47.15 -15.95 47.0 -16.8 M49.4 -10.85 L49.15 -10.9 Q47.6 -11.25 45.35 -9.95 L45.45 -10.95 Q45.7 -12.05 46.5 -12.05 L49.25 -11.9 49.4 -10.85" fill="#cc9d3c" fill-rule="evenodd" stroke="none"/>
    <path d="M34.1 -44.65 Q32.15 -43.25 29.6 -38.7 26.55 -33.15 26.55 -29.95 26.55 -29.5 29.15 -27.7 32.1 -25.6 34.1 -25.6 L34.35 -24.85 34.15 -23.55 34.1 -23.55 33.9 -22.45 34.0 -22.4 33.8 -22.0 33.8 -21.75 Q33.05 -21.95 32.4 -22.4 L30.3 -22.3 Q29.95 -23.8 28.2 -24.75 27.35 -25.2 26.45 -25.3 26.2 -25.75 26.1 -26.15 L25.85 -26.15 24.85 -27.9 Q23.5 -30.25 23.5 -31.4 23.5 -32.55 24.35 -34.9 L24.8 -34.9 26.25 -37.85 27.95 -41.0 Q28.45 -41.6 32.15 -43.75 33.25 -44.35 34.0 -44.85 L34.1 -44.65 M4.45 -5.1 L4.45 -4.8 4.3 -4.85 4.45 -5.1 M29.95 6.8 L29.9 6.65 30.25 6.6 29.95 6.8" fill="#8f624f" fill-rule="evenodd" stroke="none"/>
    <path d="M43.25 25.2 L45.4 25.65 45.75 30.3 45.6 32.0 45.65 32.25 44.85 32.15 45.05 32.55 42.6 35.35 Q39.75 38.7 39.6 39.85 L36.95 40.45 Q32.55 40.45 26.7 35.0 21.7 30.3 21.7 29.25 21.7 28.5 22.25 26.35 L22.25 26.4 Q22.25 27.8 22.6 27.3 L24.0 27.45 27.6 26.75 32.45 25.85 38.5 25.25 41.6 24.85 41.75 25.5 41.9 24.75 43.25 25.2 M34.3 33.05 L34.95 32.25 Q37.55 33.15 37.85 34.3 38.35 36.15 39.05 36.85 L40.35 36.0 Q39.25 31.4 38.2 30.25 35.85 27.8 33.65 29.9 31.9 31.65 31.9 33.0 L31.9 34.2 32.9 34.35 Q34.25 34.35 33.8 34.05 L34.3 33.05" fill="#5c4e4d" fill-rule="evenodd" stroke="none"/>
    <path d="M17.45 -29.4 L17.65 -29.0 Q18.45 -27.0 18.8 -24.8 L16.45 -25.1 16.5 -25.35 17.2 -27.85 17.05 -29.2 17.45 -29.4 M-28.0 13.35 L-28.0 13.9 -28.25 13.3 -28.0 13.35" fill="#493d3d" fill-rule="evenodd" stroke="none"/>
    <path d="M34.9 -30.8 L35.25 -30.55 37.85 -28.9 Q39.4 -28.0 39.85 -26.4 40.0 -25.65 41.7 -23.5 L41.9 -23.25 41.9 -23.2 Q39.6 -23.75 37.35 -21.65 L36.8 -21.85 36.0 -21.7 36.1 -22.35 Q36.9 -22.4 36.55 -22.55 L36.8 -22.6 36.95 -23.4 Q36.95 -25.75 35.9 -27.95 35.2 -29.5 34.9 -30.8 M16.4 -35.6 L16.3 -34.7 16.4 -33.65 15.8 -32.7 Q15.0 -31.15 14.85 -30.15 L14.5 -30.05 Q12.95 -29.35 9.55 -26.55 L9.35 -26.4 9.1 -26.6 9.1 -26.8 9.25 -27.75 9.05 -29.15 11.35 -33.1 12.35 -35.95 12.65 -35.95 16.4 -35.6 M17.2 -30.1 L17.45 -29.4 17.05 -29.2 16.9 -29.5 17.2 -30.1 M7.15 -29.15 L7.1 -29.1 6.2 -25.85 6.2 -25.8 5.8 -24.15 5.4 -22.9 5.3 -22.6 5.25 -22.5 5.15 -22.4 4.65 -21.75 4.4 -21.8 4.4 -22.05 4.55 -22.45 4.4 -22.5 4.35 -22.85 4.3 -22.75 4.1 -24.6 3.35 -26.5 Q4.15 -27.3 4.15 -27.8 L4.15 -30.5 Q4.25 -32.1 4.75 -33.05 L6.15 -35.25 6.7 -35.45 6.65 -35.2 9.55 -35.7 9.8 -35.75 9.4 -34.65 8.6 -33.2 7.05 -30.15 7.1 -29.4 7.15 -29.15 M2.45 -27.05 L2.4 -27.05 Q1.15 -27.05 1.3 -26.65 L-0.2 -20.0 Q-1.2 -16.15 -2.9 -14.35 L-3.15 -17.0 -2.7 -19.25 -2.25 -21.55 -2.35 -22.35 -2.5 -22.55 -2.65 -22.5 -2.5 -23.2 Q-1.75 -25.85 -1.75 -26.4 -1.75 -28.05 -3.1 -30.8 L-3.2 -31.0 -1.3 -32.0 Q0.8 -33.1 2.8 -33.95 1.65 -31.95 1.65 -30.65 1.65 -29.65 2.05 -28.25 L2.45 -27.05 M-4.85 -20.95 Q-6.45 -18.75 -7.85 -16.15 -9.9 -12.35 -10.35 -9.85 L-11.3 -11.45 -11.6 -13.05 Q-11.6 -14.3 -11.15 -15.25 -11.05 -16.2 -12.25 -17.3 L-12.7 -17.2 -12.7 -17.3 Q-11.75 -21.4 -11.75 -22.15 -11.75 -23.65 -12.9 -25.15 L-10.25 -26.65 -5.65 -29.6 -6.2 -30.65 Q-3.85 -26.4 -3.85 -25.75 -3.85 -25.1 -4.35 -23.35 L-4.85 -21.0 -4.85 -20.95 M-14.2 -12.25 L-13.7 -10.35 Q-13.15 -8.75 -13.15 -8.15 -13.15 -6.1 -16.65 2.3 L-17.05 -1.0 -17.6 -1.1 -18.0 -2.8 -17.8 -2.9 -17.65 -3.1 -17.5 -3.6 -17.4 -4.55 Q-17.4 -5.55 -18.5 -6.9 -18.85 -8.25 -18.45 -10.0 L-17.65 -13.4 Q-17.65 -16.8 -18.0 -18.6 L-18.7 -20.9 -14.85 -23.85 Q-14.0 -23.0 -14.0 -21.65 L-15.75 -13.0 Q-15.75 -12.2 -15.55 -12.1 L-15.35 -12.15 -14.2 -12.25 M-20.45 -5.15 L-20.5 -4.6 -19.45 -0.4 -20.1 4.0 Q-20.55 6.6 -22.0 8.25 L-22.85 6.75 -23.3 4.65 -23.1 2.65 -23.05 0.8 -23.0 1.2 Q-22.65 -0.15 -22.65 -0.65 -22.65 -2.15 -23.8 -3.0 L-26.3 -4.45 Q-29.45 -6.3 -29.9 -11.2 L-28.95 -12.15 Q-27.6 -10.75 -24.85 -9.25 -22.35 -7.85 -21.05 -6.6 L-21.05 -6.55 -20.8 -5.4 -20.45 -5.15 M-26.2 3.7 L-27.0 6.2 Q-27.9 9.95 -28.0 13.35 L-28.25 13.3 Q-28.25 12.7 -28.75 11.9 L-29.25 10.5 -29.25 10.15 Q-28.8 7.95 -28.8 3.65 -28.8 2.65 -29.95 0.15 -31.25 -2.65 -32.3 -3.25 -33.75 -4.1 -33.6 -6.55 L-33.55 -7.15 -31.6 -9.45 -31.55 -9.5 -31.75 -8.5 -31.1 -6.85 Q-30.5 -5.8 -30.5 -5.15 -30.5 -4.3 -27.65 -2.6 L-24.85 -0.55 Q-24.85 0.15 -26.25 3.65 L-26.2 3.7 M-31.1 8.9 L-31.3 9.15 -31.65 10.0 -31.1 12.0 -31.1 12.1 -31.05 12.1 -30.4 13.85 -30.1 14.55 -32.2 13.5 Q-34.4 12.15 -34.4 10.9 L-34.35 10.3 -33.9 8.8 -33.5 6.5 Q-33.5 4.2 -36.0 -0.35 L-37.3 -2.4 -36.05 -4.05 -36.05 -3.9 Q-36.0 -3.15 -35.65 -2.75 -35.15 -2.05 -33.35 -1.15 -31.8 -0.4 -31.8 0.05 L-31.4 2.3 -31.0 4.5 -31.1 7.9 -31.1 8.9 M-35.6 8.75 Q-36.4 9.45 -37.3 12.35 -38.1 15.05 -38.1 16.0 L-36.1 18.75 Q-34.15 21.25 -34.15 22.05 -34.15 23.7 -35.0 24.75 -35.35 23.3 -37.7 21.65 L-37.55 21.4 -37.75 20.55 Q-40.15 19.55 -40.9 17.8 -41.3 16.8 -41.3 14.75 L-39.25 4.85 Q-39.25 3.05 -39.85 1.45 L-39.25 0.25 -39.0 -0.1 Q-35.75 3.95 -35.75 6.85 L-36.0 9.1 -36.0 9.2 -35.6 8.75 M-42.75 18.7 Q-46.85 16.35 -46.85 14.35 L-46.6 12.55 Q-44.8 11.1 -42.75 7.4 L-41.35 4.5 -41.3 4.9 -43.35 14.85 -42.8 18.65 -42.75 18.7 M-21.15 -18.85 L-21.05 -18.5 Q-19.8 -14.4 -19.8 -13.05 L-20.4 -9.8 -20.6 -8.9 Q-22.6 -10.5 -24.9 -11.5 -26.75 -12.25 -27.4 -13.55 L-27.15 -13.75 -21.15 -18.85" fill="#332b2b" fill-rule="evenodd" stroke="none"/>
    <path d="M33.65 -38.3 L33.7 -37.7 Q33.3 -36.8 33.05 -35.6 32.45 -33.0 32.45 -31.3 L33.05 -29.0 Q32.5 -29.2 31.9 -29.45 29.05 -30.55 29.05 -31.3 29.05 -32.6 32.35 -38.0 L33.7 -40.25 33.65 -38.3 M10.05 -36.6 L10.65 -36.65 10.85 -36.65 11.75 -36.8 12.05 -36.85 12.5 -36.95 12.45 -36.45 12.35 -35.95 11.35 -33.1 9.05 -29.15 8.95 -29.4 8.8 -29.6 8.65 -29.7 8.1 -29.5 7.15 -29.15 7.1 -29.4 7.05 -30.15 8.6 -33.2 9.4 -34.65 9.8 -35.75 10.05 -36.6 M16.4 -33.65 Q16.55 -31.95 17.2 -30.1 L16.9 -29.5 Q16.4 -30.7 14.85 -30.15 15.0 -31.15 15.8 -32.7 L16.4 -33.65 M3.35 -26.5 Q2.95 -27.05 2.45 -27.05 L2.05 -28.25 Q1.65 -29.65 1.65 -30.65 1.65 -31.95 2.8 -33.95 L3.8 -35.6 4.45 -36.45 5.1 -36.6 6.9 -36.85 6.85 -36.35 6.35 -35.6 6.15 -35.25 4.75 -33.05 Q4.25 -32.1 4.15 -30.5 L4.15 -27.8 Q4.15 -27.3 3.35 -26.5 M-2.65 -22.5 L-3.75 -22.4 -4.85 -20.95 -4.85 -21.0 -4.35 -23.35 Q-3.85 -25.1 -3.85 -25.75 -3.85 -26.4 -6.2 -30.65 L-6.85 -31.8 -5.95 -32.35 -5.1 -32.9 -4.95 -32.95 Q-4.05 -32.6 -3.2 -31.0 L-3.1 -30.8 Q-1.75 -28.05 -1.75 -26.4 -1.75 -25.85 -2.5 -23.2 L-2.65 -22.5 M-12.7 -17.2 L-13.5 -17.0 -13.95 -14.55 -14.25 -12.6 -14.2 -12.25 -15.35 -12.15 -15.55 -12.1 Q-15.75 -12.2 -15.75 -13.0 L-14.0 -21.65 Q-14.0 -23.0 -14.85 -23.85 L-15.8 -24.55 -17.3 -25.5 -17.25 -25.55 -16.9 -25.75 -16.85 -25.8 -14.85 -27.05 -14.65 -26.9 -12.9 -25.15 Q-11.75 -23.65 -11.75 -22.15 -11.75 -21.4 -12.7 -17.3 L-12.7 -17.2 M-18.0 -2.8 L-18.2 -3.7 -18.55 -5.35 -19.0 -6.9 -20.0 -6.2 -20.45 -5.15 -20.8 -5.4 -21.05 -6.55 -21.05 -6.6 Q-22.35 -7.85 -24.85 -9.25 -27.6 -10.75 -28.95 -12.15 -29.8 -13.05 -30.05 -13.9 L-30.0 -13.1 -29.9 -11.2 Q-29.45 -6.3 -26.3 -4.45 L-23.8 -3.0 Q-22.65 -2.15 -22.65 -0.65 -22.65 -0.15 -23.0 1.2 L-23.05 0.8 -23.05 0.75 -24.15 0.75 Q-25.3 1.25 -26.2 3.7 L-26.25 3.65 Q-24.85 0.15 -24.85 -0.55 L-27.65 -2.6 Q-30.5 -4.3 -30.5 -5.15 -30.5 -5.8 -31.1 -6.85 L-31.75 -8.5 -31.55 -9.5 -31.55 -9.6 Q-31.4 -10.4 -31.4 -11.1 -31.4 -11.55 -32.0 -12.4 L-32.0 -12.45 -31.05 -13.4 -30.1 -14.35 -27.9 -16.45 -27.75 -14.8 -27.4 -13.55 Q-26.75 -12.25 -24.9 -11.5 -22.6 -10.5 -20.6 -8.9 L-20.4 -9.8 -19.8 -13.05 Q-19.8 -14.4 -21.05 -18.5 L-21.15 -18.85 -22.05 -21.75 -21.0 -22.65 -20.45 -23.05 Q-19.4 -22.4 -18.7 -20.9 L-18.0 -18.6 Q-17.65 -16.8 -17.65 -13.4 L-18.45 -10.0 Q-18.85 -8.25 -18.5 -6.9 -17.4 -5.55 -17.4 -4.55 L-17.5 -3.6 -17.65 -3.1 -17.8 -2.9 -18.0 -2.8 M-29.25 10.15 L-29.4 9.1 -30.1 8.05 -31.1 8.9 -31.1 7.9 -31.0 4.5 -31.4 2.3 -31.8 0.05 Q-31.8 -0.4 -33.35 -1.15 -35.15 -2.05 -35.65 -2.75 -36.0 -3.15 -36.05 -3.9 L-36.05 -4.05 -36.05 -5.55 Q-35.05 -9.5 -34.15 -10.0 -33.55 -9.35 -33.55 -7.15 L-33.6 -6.55 Q-33.75 -4.1 -32.3 -3.25 -31.25 -2.65 -29.95 0.15 -28.8 2.65 -28.8 3.65 -28.8 7.95 -29.25 10.15 M-31.1 12.0 L-31.1 11.95 -31.05 12.1 -31.1 12.1 -31.1 12.0 M-34.35 10.3 L-34.35 8.6 -35.5 8.65 -35.6 8.75 -36.0 9.2 -36.0 9.1 -35.75 6.85 Q-35.75 3.95 -39.0 -0.1 L-40.75 -2.15 -39.15 -4.25 -39.1 -4.2 -39.0 -4.15 -37.3 -2.4 -36.0 -0.35 Q-33.5 4.2 -33.5 6.5 L-33.9 8.8 -34.35 10.3 M-37.7 21.65 L-41.4 19.45 -42.75 18.7 -42.8 18.65 -43.35 14.85 -41.3 4.9 -41.35 4.5 -41.45 4.15 -41.7 3.5 -41.75 3.45 -41.95 3.05 -42.1 2.85 -43.0 1.05 -41.85 -0.65 Q-40.85 -0.65 -40.15 0.85 L-40.0 1.15 -39.85 1.45 Q-39.25 3.05 -39.25 4.85 L-41.3 14.75 Q-41.3 16.8 -40.9 17.8 -40.15 19.55 -37.75 20.55 L-37.55 21.4 -37.7 21.65" fill="#231d1d" fill-rule="evenodd" stroke="none"/>
    <path d="M8.6 -22.05 L9.05 -22.55 10.1 -23.75 12.6 -26.15 13.85 -26.95 14.55 -27.25 14.7 -27.0 14.45 -25.75 14.3 -24.95 14.3 -24.8 Q13.35 -24.55 12.5 -24.0 10.9 -23.1 9.45 -21.4 L8.6 -22.05 M4.45 -4.8 Q4.45 -2.75 5.45 -0.1 6.5 2.75 7.75 3.9 L9.85 5.25 11.2 6.25 12.2 7.25 12.7 7.7 Q10.9 8.55 9.25 10.3 L9.2 10.25 9.05 9.35 8.6 10.1 7.3 12.75 6.0 14.7 6.15 15.65 Q5.3 18.25 5.3 20.5 L4.85 23.45 Q4.35 25.75 4.35 26.35 4.35 35.6 1.85 40.45 -1.0 46.0 -7.15 48.0 L-7.0 46.5 -7.55 41.95 -7.75 40.55 -7.55 40.5 Q-6.65 35.75 -6.65 32.65 -6.65 28.45 -4.7 20.55 -2.45 12.15 -1.85 9.15 -0.5 2.55 4.3 -4.85 L4.45 -4.8 M-25.3 10.25 L-25.25 8.75 -25.15 7.85 -25.0 7.6 -24.9 7.6 -24.5 7.85 Q-24.3 7.9 -24.3 8.65 L-24.45 10.3 -25.3 10.25 M1.3 -18.05 L2.0 -20.1 2.4 -20.0 2.1 -17.85 1.3 -18.05 M8.6 -14.15 L8.4 -13.8 8.4 -14.15 8.6 -14.15 M16.1 -16.45 L16.25 -16.45 16.15 -14.7 Q16.15 -14.25 16.45 -13.8 15.1 -10.95 13.2 -5.0 L11.65 0.1 10.9 2.7 9.15 1.4 Q7.05 -0.8 7.05 -5.65 7.05 -6.75 7.65 -8.3 L9.2 -11.45 Q12.1 -16.45 16.1 -16.45 M20.6 -3.15 Q20.95 -1.5 21.85 1.4 L23.6 7.55 23.8 8.75 24.35 11.55 24.85 13.7 25.65 18.15 Q25.95 19.2 26.45 19.75 L26.0 19.8 25.9 19.85 25.05 20.15 Q24.7 20.15 24.25 19.8 L23.15 19.95 Q22.5 15.85 21.4 12.6 L21.0 11.45 20.9 11.3 20.3 9.95 20.0 9.4 19.95 9.3 Q19.2 8.35 18.5 8.65 L17.9 8.15 18.05 7.65 Q17.4 7.55 16.9 7.25 L20.55 -3.15 20.6 -3.15 M44.45 -30.0 Q42.7 -31.55 40.5 -32.65 L44.55 -35.35 Q47.5 -37.15 49.1 -37.1 L47.55 -30.85 46.65 -27.5 Q45.85 -28.8 44.45 -30.0 M40.6 18.7 L39.45 18.45 38.25 18.35 38.2 18.35 37.9 18.55 36.65 18.4 Q34.7 18.2 32.65 18.35 L32.0 15.6 30.9 11.15 30.55 9.4 30.2 8.05 29.9 6.8 29.95 6.8 30.25 6.6 29.9 6.65 Q29.2 3.8 29.05 2.5 31.65 3.9 34.45 4.15 L35.75 4.25 36.15 4.25 36.7 4.05 Q38.25 3.75 38.25 4.75 L38.25 4.8 38.8 4.85 38.65 5.35 Q38.25 7.15 38.25 8.55 38.25 9.5 39.3 14.25 40.0 17.3 40.6 18.7" fill="#6c4a3c" fill-rule="evenodd" stroke="none"/>
    <path d="M34.9 -30.8 L34.8 -32.1 35.05 -33.7 37.4 -31.9 39.6 -30.45 39.6 -30.35 39.95 -30.2 40.55 -29.85 42.95 -28.15 Q44.6 -26.75 45.0 -24.7 L45.25 -23.8 42.7 -23.45 41.85 -23.5 41.9 -23.25 41.7 -23.5 Q40.0 -25.65 39.85 -26.4 39.4 -28.0 37.85 -28.9 L35.25 -30.55 34.9 -30.8 M6.85 -36.35 L6.8 -36.2 9.7 -36.55 10.05 -36.6 9.8 -35.75 9.55 -35.7 6.65 -35.2 6.7 -35.45 6.15 -35.25 6.35 -35.6 6.85 -36.35 M12.05 -36.85 L13.15 -37.15 14.15 -37.05 16.8 -36.9 16.7 -36.7 16.55 -36.2 16.5 -36.1 16.4 -35.6 12.65 -35.95 12.35 -35.95 12.45 -36.45 12.5 -36.95 12.05 -36.85 M-46.6 12.55 L-46.6 12.45 Q-46.45 11.25 -46.65 10.5 L-47.2 10.15 -47.3 10.1 -47.55 9.15 Q-45.85 5.25 -43.0 1.05 L-42.1 2.85 -41.95 3.05 -41.75 3.45 -41.7 3.5 -41.45 4.15 -41.35 4.5 -42.75 7.4 Q-44.8 11.1 -46.6 12.55 M-41.85 -0.65 L-40.75 -2.15 -39.0 -0.1 -39.25 0.25 -39.85 1.45 -40.0 1.15 -40.15 0.85 Q-40.85 -0.65 -41.85 -0.65 M-39.15 -4.25 L-38.9 -4.6 Q-35.75 -8.55 -32.0 -12.4 -31.4 -11.55 -31.4 -11.1 -31.4 -10.4 -31.55 -9.6 L-31.55 -9.5 -31.6 -9.45 -33.55 -7.15 Q-33.55 -9.35 -34.15 -10.0 -35.05 -9.5 -36.05 -5.55 L-36.05 -4.05 -37.3 -2.4 -39.0 -4.15 -39.1 -4.2 -39.15 -4.25 M-27.9 -16.45 L-24.9 -19.25 -22.05 -21.75 -21.15 -18.85 -27.15 -13.75 -27.4 -13.55 -27.75 -14.8 -27.9 -16.45 M-21.0 -22.65 L-17.3 -25.5 -15.8 -24.55 -14.85 -23.85 -18.7 -20.9 Q-19.4 -22.4 -20.45 -23.05 L-21.0 -22.65 M-14.85 -27.05 L-12.05 -28.65 -7.5 -31.35 -6.85 -31.8 -6.2 -30.65 -5.65 -29.6 -10.25 -26.65 -12.9 -25.15 -14.65 -26.9 -14.85 -27.05 M-4.95 -32.95 Q-0.95 -35.35 2.5 -36.1 L5.1 -36.6 4.45 -36.45 3.8 -35.6 2.8 -33.95 Q0.8 -33.1 -1.3 -32.0 L-3.2 -31.0 Q-4.05 -32.6 -4.95 -32.95 M-29.9 -11.2 L-30.0 -13.1 -30.05 -13.9 Q-29.8 -13.05 -28.95 -12.15 L-29.9 -11.2" fill="#605151" fill-rule="evenodd" stroke="none"/>
    <path d="M24.0 -20.8 Q25.5 -21.15 25.5 -19.1 25.5 -17.8 25.05 -16.75 24.45 -15.45 23.45 -15.45 22.0 -15.45 21.5 -16.5 L21.3 -17.75 Q21.3 -19.35 22.45 -20.15 23.45 -20.5 24.0 -20.8 M38.05 -7.4 L38.15 -7.45 38.15 -7.15 38.05 -7.4 M48.05 -5.55 L48.4 -5.55 48.3 -5.4 48.2 -5.3 48.05 -5.55" fill="#473612" fill-rule="evenodd" stroke="none"/>
    <path d="M47.3 -5.05 L47.3 -5.0 47.2 -5.05 47.3 -5.05" fill="#70551d" fill-rule="evenodd" stroke="none"/>
    <path d="M21.25 -22.5 L21.65 -22.65 Q23.0 -23.15 24.15 -22.35 L24.4 -21.45 24.0 -20.8 Q23.45 -20.5 22.45 -20.15 L22.35 -20.15 20.7 -20.2 Q20.3 -20.3 20.3 -21.2 L20.3 -21.3 Q20.35 -22.05 21.25 -22.5 M44.25 -21.65 L44.55 -21.15 45.95 -19.25 Q44.35 -19.15 43.1 -18.6 L41.55 -20.4 41.1 -20.9 41.95 -21.5 42.3 -21.15 43.8 -21.75 44.25 -21.65 M44.75 -13.9 L44.25 -15.4 43.85 -16.95 45.0 -17.15 45.1 -17.15 45.35 -17.15 45.4 -17.0 46.5 -16.8 46.8 -16.8 47.0 -16.8 47.15 -15.95 47.45 -14.8 47.05 -14.8 44.75 -13.9" fill="#e7d0a0" fill-rule="evenodd" stroke="none"/>
    <path d="M48.2 -5.3 L48.15 -5.25 48.05 -5.55 48.2 -5.3" fill="#987427" fill-rule="evenodd" stroke="none"/>
    <path d="M35.55 -5.8 L35.4 -5.95 38.05 -7.4 38.15 -7.15 Q38.15 -5.45 40.4 -3.7 42.6 -2.05 45.4 -1.8 L45.05 -1.3 44.85 -1.4 44.3 -0.45 44.05 -0.4 Q39.65 -1.35 37.6 -2.8 36.2 -3.85 35.4 -5.3 L35.55 -5.8 M40.25 -8.05 L42.3 -8.85 43.25 -9.2 43.25 -9.0 43.25 -8.5 Q43.25 -7.55 44.35 -6.65 45.75 -5.55 48.05 -5.55 L48.15 -5.25 47.3 -5.05 47.2 -5.05 47.3 -5.0 46.25 -3.25 41.95 -5.45 Q40.35 -6.35 40.25 -8.05 M45.35 -9.95 Q47.6 -11.25 49.15 -10.9 L49.4 -10.85 49.4 -10.8 49.4 -10.1 48.8 -7.9 48.55 -7.4 47.05 -7.95 Q45.3 -8.5 45.3 -8.9 L45.35 -9.95" fill="#8e6c24" fill-rule="evenodd" stroke="none"/>
    <path d="M8.6 -22.05 L9.45 -21.4 Q5.7 -17.05 5.7 -12.75 5.7 -11.35 6.3 -10.8 L6.3 -10.75 4.7 -6.6 4.45 -5.1 4.3 -4.85 Q-0.5 2.55 -1.85 9.15 -2.45 12.15 -4.7 20.55 -6.65 28.45 -6.65 32.65 -6.65 35.75 -7.55 40.5 L-7.75 40.55 -7.55 41.95 -7.0 46.5 -7.15 48.0 -9.35 48.6 -15.3 49.15 Q-19.35 49.15 -27.9 45.45 -37.9 41.1 -41.25 36.05 -44.6 31.0 -45.65 28.3 -46.75 25.35 -46.75 21.3 L-47.1 18.35 Q-46.15 19.45 -44.6 20.15 -41.55 21.5 -39.4 23.0 -37.6 24.25 -37.05 25.15 -36.9 25.4 -36.8 27.8 -36.45 30.1 -34.75 30.1 L-33.8 29.9 -33.75 29.65 Q-32.1 23.05 -32.1 21.75 -32.1 21.15 -33.95 18.2 L-35.8 15.25 -35.75 14.15 -35.45 13.85 Q-33.75 15.95 -26.85 19.0 -26.2 19.0 -25.65 14.4 L-25.3 10.25 -24.45 10.3 -24.4 11.9 -22.85 12.0 Q-21.8 12.0 -20.25 9.5 -18.8 7.2 -18.55 5.75 L-18.2 6.35 -17.15 6.65 Q-15.55 6.65 -13.5 0.9 -12.2 -2.8 -11.5 -5.8 L-11.2 -5.75 Q-10.9 -5.1 -10.15 -5.1 L-9.35 -5.15 -9.5 -5.25 Q-8.85 -5.95 -8.45 -8.0 L-8.0 -10.9 -6.7 -13.7 -5.25 -16.5 -4.9 -15.8 -5.5 -12.9 Q-5.65 -11.3 -4.55 -10.1 -1.9 -11.55 -0.05 -14.95 L1.3 -18.05 2.1 -17.85 Q1.95 -16.6 2.15 -15.9 L3.35 -16.0 Q4.65 -17.55 5.9 -20.2 6.0 -20.05 6.2 -20.05 L6.65 -20.1 8.6 -22.05" fill="#4e362c" fill-rule="evenodd" stroke="none"/>
  </g>
</svg>
