<?xml version="1.0" encoding="UTF-8" standalone="no"?>
<svg xmlns:ffdec="https://www.free-decompiler.com/flash" xmlns:xlink="http://www.w3.org/1999/xlink" ffdec:objectType="shape" height="72.4px" width="86.2px" xmlns="http://www.w3.org/2000/svg">
  <g transform="matrix(1.0, 0.0, 0.0, 1.0, 44.1, 39.1)">
    <path d="M39.2 -25.75 L39.15 -25.85 Q38.95 -27.1 36.2 -29.15 33.25 -31.35 31.2 -31.35 L26.15 -32.2 21.45 -33.1 19.35 -33.0 4.55 -23.9 Q2.75 -22.7 2.0 -21.9 L-3.5 -17.9 -3.35 -16.45 Q-3.15 -16.0 -2.2 -16.0 L-0.15 -16.4 -0.7 -15.55 -5.05 -10.1 -7.2 -6.7 -8.0 -5.75 Q-9.75 -4.0 -13.3 -1.85 -15.65 -0.45 -15.65 0.85 L-15.4 1.8 -14.85 1.75 -12.6 1.45 -12.7 1.5 Q-16.35 5.35 -20.55 12.4 -22.75 16.35 -25.2 24.1 -25.85 24.95 -25.85 26.05 L-25.6 26.9 -25.05 26.85 Q-29.8 29.5 -32.6 30.0 L-35.75 30.3 Q-37.6 30.4 -39.45 31.05 -33.45 27.05 -31.25 23.85 L-28.35 18.25 Q-27.55 16.95 -26.95 14.7 -26.4 12.65 -25.85 11.85 -24.7 10.15 -21.8 7.35 L-20.45 5.8 Q-19.9 5.2 -19.9 4.05 -19.9 3.2 -20.1 3.05 L-20.65 2.95 -20.7 3.0 -25.4 4.05 -25.45 4.0 Q-20.6 1.35 -14.6 -4.75 -10.15 -9.25 -9.05 -11.15 L-8.5 -11.25 -7.8 -11.45 -7.75 -12.75 Q-8.6 -13.3 -10.3 -13.5 L-12.95 -13.85 Q-9.1 -15.45 -5.15 -19.9 L-0.1 -26.15 Q4.25 -31.1 13.85 -34.4 21.0 -36.85 24.2 -36.85 29.25 -36.85 34.6 -32.45 38.95 -28.9 39.7 -25.6 L39.2 -25.75 M-2.1 -10.1 L-2.05 -10.2 -2.1 -10.1" fill="#332b2b" fill-rule="evenodd" stroke="none"/>
    <path d="M39.2 -25.75 L39.7 -25.6 Q38.95 -28.9 34.6 -32.45 29.25 -36.85 24.2 -36.85 21.0 -36.85 13.85 -34.4 4.25 -31.1 -0.1 -26.15 L-5.15 -19.9 Q-9.1 -15.45 -12.95 -13.85 L-10.3 -13.5 Q-8.6 -13.3 -7.75 -12.75 L-7.8 -11.45 -8.5 -11.25 -9.05 -11.15 Q-10.15 -9.25 -14.6 -4.75 -20.6 1.35 -25.45 4.0 L-25.6 4.05 -25.4 4.05 -20.7 3.0 -20.65 2.95 -20.1 3.05 Q-19.9 3.2 -19.9 4.05 -19.9 5.2 -20.45 5.8 L-21.8 7.35 Q-24.7 10.15 -25.85 11.85 -26.4 12.65 -26.95 14.7 -27.55 16.95 -28.35 18.25 L-31.25 23.85 Q-33.45 27.05 -39.45 31.05 -37.6 30.4 -35.75 30.3 L-32.6 30.0 Q-29.8 29.5 -25.05 26.85 L-24.95 26.85 Q-24.1 26.7 -23.8 26.45 L-23.35 25.9 -21.05 24.5 -19.25 23.3 -18.45 23.6 Q-18.2 23.8 -18.15 24.6 L-18.15 24.85 Q-18.2 25.55 -19.65 27.25 L-22.6 30.85 Q-9.9 25.8 -4.95 21.25 -3.6 20.0 0.55 13.6 2.25 11.0 3.65 7.25 L6.05 0.1 7.95 -7.0 Q9.45 -12.3 11.3 -14.2 17.25 -20.3 25.45 -23.4 31.25 -25.55 36.65 -25.8 37.55 -25.3 38.35 -25.3 L39.25 -25.5 39.2 -25.75 M39.8 -28.45 L41.85 -24.6 41.9 -24.6 41.9 -24.55 42.1 -23.85 42.1 -23.0 41.9 -22.6 41.8 -22.35 40.75 -22.1 Q39.85 -22.1 39.8 -22.65 L39.8 -23.35 37.7 -23.5 Q34.95 -23.5 25.55 -19.9 14.5 -15.65 12.9 -12.0 11.35 -8.55 9.75 -3.4 L7.15 4.4 3.7 12.95 Q1.95 16.6 -0.85 20.35 -4.55 25.1 -13.1 29.4 -20.95 33.3 -24.95 33.3 L-25.75 33.3 -26.1 33.1 -26.25 33.0 Q-26.45 33.0 -26.45 32.15 -26.45 31.5 -25.45 29.9 L-27.8 30.9 Q-29.95 31.8 -31.75 31.8 L-35.4 32.45 -39.05 33.1 Q-40.95 33.1 -42.45 32.45 -44.1 31.75 -44.1 30.8 L-44.0 29.95 Q-37.0 27.35 -34.3 24.05 -32.6 20.8 -31.65 19.9 L-29.8 16.3 Q-27.95 12.6 -27.95 12.1 -27.95 10.9 -24.55 6.95 L-24.25 6.6 -25.9 6.6 -26.4 6.7 -29.9 7.15 -31.05 6.3 -31.45 5.25 -31.0 4.45 Q-30.45 3.85 -29.25 3.3 -23.0 0.4 -21.75 -0.55 L-20.9 -1.7 Q-19.75 -3.0 -18.6 -3.6 -17.8 -4.05 -16.5 -5.9 L-13.4 -9.9 -12.0 -11.3 Q-13.2 -11.55 -14.1 -12.1 -15.8 -13.05 -15.8 -14.35 L-12.45 -17.25 Q-8.7 -20.2 -7.75 -21.35 L-4.7 -24.85 -1.55 -27.95 Q2.0 -31.3 3.45 -32.25 6.25 -34.15 13.05 -36.85 L18.15 -37.95 24.25 -39.1 Q27.75 -39.1 31.45 -37.3 34.9 -35.7 36.5 -33.6 L39.8 -28.45" fill="#000000" fill-rule="evenodd" stroke="none"/>
    <path d="M-25.05 26.85 L-25.6 26.9 -25.85 26.05 Q-25.85 24.95 -25.2 24.1 -22.75 16.35 -20.55 12.4 -16.35 5.35 -12.7 1.5 L-12.6 1.45 -14.85 1.75 -15.4 1.8 -15.65 0.85 Q-15.65 -0.45 -13.3 -1.85 -9.75 -4.0 -8.0 -5.75 L-7.2 -6.7 -5.05 -10.1 -0.7 -15.55 -0.15 -16.4 -2.2 -16.0 Q-3.15 -16.0 -3.35 -16.45 L-3.5 -17.9 2.0 -21.9 Q2.75 -22.7 4.55 -23.9 L19.35 -33.0 21.45 -33.1 26.15 -32.2 31.2 -31.35 Q33.25 -31.35 36.2 -29.15 38.95 -27.1 39.15 -25.85 L39.2 -25.75 39.25 -25.5 38.35 -25.3 Q37.55 -25.3 36.65 -25.8 31.25 -25.55 25.45 -23.4 17.25 -20.3 11.3 -14.2 9.45 -12.3 7.95 -7.0 L6.05 0.1 3.65 7.25 Q2.25 11.0 0.55 13.6 -3.6 20.0 -4.95 21.25 -9.9 25.8 -22.6 30.85 L-19.65 27.25 Q-18.2 25.55 -18.15 24.85 L-18.15 24.6 Q-18.2 23.8 -18.45 23.6 L-19.25 23.3 -21.05 24.5 -23.35 25.9 -23.8 26.45 Q-24.1 26.7 -24.95 26.85 L-25.05 26.85 M-2.1 -10.1 L-2.05 -10.2 -2.1 -10.1" fill="#231d1d" fill-rule="evenodd" stroke="none"/>
  </g>
</svg>
