<?xml version="1.0" encoding="UTF-8" standalone="no"?>
<svg xmlns:ffdec="https://www.free-decompiler.com/flash" xmlns:xlink="http://www.w3.org/1999/xlink" ffdec:objectType="shape" height="236.7px" width="27.0px" xmlns="http://www.w3.org/2000/svg">
  <g transform="matrix(1.0, 0.0, 0.0, 1.0, 15.5, 158.2)">
    <path d="M10.6 -120.1 L10.5 -111.6 Q11.0 -100.75 11.5 -95.1 L11.5 -87.6 11.15 -87.3 Q10.75 -87.0 10.0 -87.0 8.5 -87.0 7.6 -89.6 L6.5 -93.25 2.75 -98.85 Q-0.85 -98.85 -1.3 -97.6 -1.4 -94.9 -2.0 -92.0 L-2.05 -91.95 -1.5 -90.5 0.2 -87.0 Q1.3 -84.6 1.5 -83.0 L2.5 -75.5 2.4 -75.25 Q2.25 -75.05 1.7 -75.0 L2.0 -74.5 Q2.25 -73.6 0.85 -73.2 L-1.3 -72.85 Q-0.7 -70.25 -0.75 -66.7 L-1.0 -58.25 Q-0.5 -47.35 -0.5 -41.75 -0.5 -24.25 0.0 -8.75 1.45 33.05 3.5 57.55 L3.5 76.3 Q3.4 77.6 2.8 78.0 L-1.25 78.5 -5.95 78.1 -6.0 77.05 -6.0 75.9 -5.9 75.15 -6.15 72.75 -6.0 68.05 -5.9 63.95 -6.0 59.5 -7.0 42.25 Q-7.1 39.45 -7.7 33.55 L-8.5 24.55 -9.0 7.3 -10.5 -61.8 -10.55 -64.9 -10.5 -68.75 Q-10.4 -69.75 -10.6 -72.1 L-10.6 -72.5 -13.5 -72.5 -14.3 -72.65 -14.5 -73.1 -14.45 -73.65 -15.0 -73.75 -15.0 -85.35 Q-14.55 -86.05 -13.75 -88.95 -13.0 -91.75 -12.35 -92.5 L-10.85 -93.9 -10.85 -95.1 Q-10.7 -96.8 -14.5 -96.75 -14.5 -114.0 -15.5 -148.5 L-15.45 -153.05 -14.85 -156.1 -15.2 -156.6 Q-14.45 -157.1 -14.3 -158.2 -13.25 -157.85 -11.9 -156.7 L-7.75 -152.6 -3.95 -148.4 -0.75 -144.6 Q6.85 -134.5 9.5 -128.1 10.7 -125.25 10.6 -120.1 M3.95 -100.15 L6.1 -98.15 9.3 -93.0 9.4 -92.8 9.5 -92.95 9.5 -93.5 8.5 -110.0 8.5 -118.05 Q8.55 -123.25 7.5 -126.1 5.05 -132.95 -1.6 -142.25 -5.25 -147.2 -8.1 -150.25 -9.15 -151.35 -12.55 -153.85 L-13.9 -155.05 -13.85 -154.8 -13.55 -152.65 Q-13.4 -151.05 -13.4 -149.2 L-13.5 -141.35 -12.5 -125.6 -12.4 -117.7 -12.5 -102.0 Q-12.5 -99.05 -10.75 -97.75 -9.1 -96.55 -9.0 -94.95 L-6.3 -95.25 Q-5.0 -95.1 -3.95 -94.35 -3.9 -96.1 -3.5 -97.35 -2.4 -101.0 0.75 -101.0 2.5 -101.0 3.95 -100.15 M-5.25 -92.35 Q-12.25 -92.35 -13.2 -84.35 -13.7 -80.4 -12.6 -74.9 L-2.55 -75.3 0.7 -75.3 Q-0.1 -76.05 -0.45 -78.4 L-1.0 -83.85 Q-1.4 -86.15 -3.1 -89.35 -4.7 -92.35 -5.25 -92.35 M-8.7 -72.5 Q-8.2 -70.05 -8.25 -66.7 L-8.5 -58.25 -8.4 -55.8 -2.85 -56.0 -3.0 -61.8 -3.05 -64.9 -3.0 -68.75 Q-2.9 -69.75 -3.1 -72.1 L-3.05 -72.7 -8.7 -72.5 M-6.5 -54.0 L-8.3 -54.0 Q-8.0 -46.2 -8.0 -41.75 L-7.95 -33.55 -7.95 -29.8 -7.95 -29.75 -7.5 -8.75 -6.05 25.6 -6.05 25.55 -5.95 27.85 -5.8 30.1 -4.55 50.2 -4.3 53.45 -4.0 57.55 -4.0 68.25 -4.0 70.3 -4.0 76.3 -2.15 76.3 -1.4 76.3 1.3 76.25 1.6 75.3 Q1.35 74.25 1.35 72.75 L1.5 68.05 1.55 66.85 1.6 65.1 1.6 63.95 1.5 59.5 0.55 42.95 0.5 42.25 0.5 42.15 0.45 41.05 -0.2 33.55 Q-0.9 27.35 -1.0 24.55 L-1.1 20.15 -1.15 18.1 -1.5 7.3 -2.8 -54.0 -5.55 -54.0 -6.5 -54.0" fill="#000000" fill-rule="evenodd" stroke="none"/>
    <path d="M-13.55 -152.65 L-7.5 -142.85 Q0.4 -130.2 1.8 -124.25 2.35 -121.95 3.0 -105.95 L3.4 -100.45 3.95 -100.15 Q2.5 -101.0 0.75 -101.0 -2.4 -101.0 -3.5 -97.35 -3.9 -96.1 -3.95 -94.35 -5.0 -95.1 -6.3 -95.25 L-9.0 -94.95 Q-9.1 -96.55 -10.75 -97.75 -12.5 -99.05 -12.5 -102.0 L-12.4 -117.7 -12.5 -125.6 -13.5 -141.35 -13.4 -149.2 Q-13.4 -151.05 -13.55 -152.65" fill="#60606c" fill-rule="evenodd" stroke="none"/>
    <path d="M3.95 -100.15 L3.4 -100.45 3.0 -105.95 Q2.35 -121.95 1.8 -124.25 0.4 -130.2 -7.5 -142.85 L-13.55 -152.65 -13.85 -154.8 -13.9 -155.05 -12.55 -153.85 Q-9.15 -151.35 -8.1 -150.25 -5.25 -147.2 -1.6 -142.25 5.05 -132.95 7.5 -126.1 8.55 -123.25 8.5 -118.05 L8.5 -110.0 9.5 -93.5 9.5 -92.95 9.3 -93.0 6.1 -98.15 3.95 -100.15" fill="#898996" fill-rule="evenodd" stroke="none"/>
    <path d="M-7.95 -33.55 L-6.4 -38.35 Q-5.35 -41.9 -5.35 -45.35 -5.35 -46.75 -6.1 -51.5 L-6.5 -54.0 -5.55 -54.0 -4.5 -47.35 -4.3 -45.05 Q-4.3 -40.8 -7.35 -31.6 L-7.95 -29.8 -7.95 -33.55 M-6.05 25.6 L-3.3 33.3 -0.05 40.05 0.45 41.05 0.5 42.15 0.5 42.25 0.55 42.95 -1.4 39.7 -4.25 34.75 -5.8 30.1 -5.95 27.85 -6.05 25.55 -6.05 25.6 M-1.1 20.15 Q-1.75 19.7 -2.4 18.65 L-3.5 16.4 Q-4.65 10.35 -4.3 9.2 -3.65 8.75 -3.65 7.35 L-4.05 2.8 -4.5 -1.8 Q-4.5 -3.05 -4.85 -4.5 L-5.7 -6.25 Q-6.25 -7.25 -6.25 -12.8 -6.25 -13.95 -4.15 -19.55 L-2.15 -24.4 -2.15 -22.8 -3.25 -19.95 Q-5.1 -14.7 -5.1 -12.25 -5.1 -8.7 -4.3 -6.5 -3.45 -4.15 -3.35 -1.5 L-3.35 2.6 Q-2.9 5.9 -3.05 7.85 L-3.35 10.4 Q-3.35 11.6 -2.4 14.7 L-1.15 18.1 -1.1 20.15 M-4.55 50.2 L-0.55 60.25 1.6 64.5 1.6 65.1 1.55 66.85 Q-0.8 62.35 -4.3 53.45 L-4.55 50.2 M-4.0 70.3 L-4.0 68.25 Q-2.65 72.0 -1.4 76.3 L-2.15 76.3 -2.3 75.9 -4.0 70.3" fill="#31271e" fill-rule="evenodd" stroke="none"/>
    <path d="M-6.5 -54.0 L-6.1 -51.5 Q-5.35 -46.75 -5.35 -45.35 -5.35 -41.9 -6.4 -38.35 L-7.95 -33.55 -8.0 -41.75 Q-8.0 -46.2 -8.3 -54.0 L-6.5 -54.0 M-7.95 -29.8 L-7.35 -31.6 Q-4.3 -40.8 -4.3 -45.05 L-4.5 -47.35 -5.55 -54.0 -2.8 -54.0 -1.5 7.3 -1.15 18.1 -2.4 14.7 Q-3.35 11.6 -3.35 10.4 L-3.05 7.85 Q-2.9 5.9 -3.35 2.6 L-3.35 -1.5 Q-3.45 -4.15 -4.3 -6.5 -5.1 -8.7 -5.1 -12.25 -5.1 -14.7 -3.25 -19.95 L-2.15 -22.8 -2.15 -24.4 -4.15 -19.55 Q-6.25 -13.95 -6.25 -12.8 -6.25 -7.25 -5.7 -6.25 L-4.85 -4.5 Q-4.5 -3.05 -4.5 -1.8 L-4.05 2.8 -3.65 7.35 Q-3.65 8.75 -4.3 9.2 -4.65 10.35 -3.5 16.4 L-2.4 18.65 Q-1.75 19.7 -1.1 20.15 L-1.0 24.55 Q-0.9 27.35 -0.2 33.55 L0.45 41.05 -0.05 40.05 -3.3 33.3 -6.05 25.6 -7.5 -8.75 -7.95 -29.75 -7.95 -29.8 M-5.8 30.1 L-4.25 34.75 -1.4 39.7 0.55 42.95 1.5 59.5 1.6 63.95 1.6 65.1 1.6 64.5 -0.55 60.25 -4.55 50.2 -5.8 30.1 M-4.0 68.25 L-4.0 57.55 -4.3 53.45 Q-0.8 62.35 1.55 66.85 L1.5 68.05 1.35 72.75 Q1.35 74.25 1.6 75.3 L1.3 76.25 -1.4 76.3 Q-2.65 72.0 -4.0 68.25 M-2.15 76.3 L-4.0 76.3 -4.0 70.3 -2.3 75.9 -2.15 76.3" fill="#211b14" fill-rule="evenodd" stroke="none"/>
    <path d="M-8.7 -72.5 L-3.05 -72.7 -3.1 -72.1 Q-2.9 -69.75 -3.0 -68.75 L-3.05 -64.9 -3.0 -61.8 -2.85 -56.0 -8.4 -55.8 -8.5 -58.25 -8.25 -66.7 Q-8.2 -70.05 -8.7 -72.5 M-5.25 -92.35 Q-4.7 -92.35 -3.1 -89.35 -1.4 -86.15 -1.0 -83.85 L-0.45 -78.4 Q-0.1 -76.05 0.7 -75.3 L-2.55 -75.3 -12.6 -74.9 Q-13.7 -80.4 -13.2 -84.35 -12.25 -92.35 -5.25 -92.35" fill="#942403" fill-rule="evenodd" stroke="none"/>
  </g>
</svg>
