<?xml version="1.0" encoding="UTF-8" standalone="no"?>
<svg xmlns:ffdec="https://www.free-decompiler.com/flash" xmlns:xlink="http://www.w3.org/1999/xlink" ffdec:objectType="shape" height="133.05px" width="61.0px" xmlns="http://www.w3.org/2000/svg">
  <g transform="matrix(1.0, 0.0, 0.0, 1.0, 37.95, 66.55)">
    <path d="M9.95 -40.4 L9.4 -40.0 Q13.6 -30.45 15.7 -20.0 16.75 -14.65 17.4 -8.0 L17.65 -7.95 17.65 -7.7 Q17.65 -6.4 18.05 -5.3 L17.75 -5.45 17.6 -5.5 Q18.25 2.8 18.25 13.0 18.25 27.7 14.55 42.1 8.3 66.5 -5.8 66.5 -8.0 66.5 -12.5 63.1 -16.5 60.05 -17.35 58.55 L-19.95 53.2 -22.3 48.0 Q-28.05 36.0 -29.8 26.65 L-30.5 22.4 -31.0 22.35 Q-33.65 18.3 -35.5 14.0 -37.95 8.4 -37.95 4.7 -37.95 -0.3 -36.5 -4.6 -34.95 -9.2 -32.15 -11.0 L-32.15 -11.5 -32.15 -11.6 -32.15 -16.15 Q-32.15 -28.15 -31.85 -31.6 -31.45 -36.75 -29.75 -44.35 L-29.8 -44.5 -29.7 -44.6 -28.65 -49.15 -26.4 -57.55 Q-24.5 -62.45 -20.55 -65.5 -12.15 -68.05 -6.75 -64.3 -3.3 -61.9 2.35 -53.1 5.7 -47.85 8.35 -42.3 L8.7 -42.65 9.0 -42.25 Q9.2 -41.3 9.95 -40.4 M7.0 55.05 Q9.4 50.8 11.3 44.6 15.95 29.6 15.95 13.1 15.95 -4.45 13.1 -18.4 9.7 -35.15 1.6 -50.25 -0.45 -54.1 -2.85 -57.05 -4.35 -58.9 -6.0 -60.4 L-6.25 -60.65 -6.8 -61.15 Q-13.8 -67.15 -19.85 -63.2 -23.7 -60.65 -24.85 -55.7 L-26.95 -47.5 -26.95 -47.15 -26.8 -47.25 Q-21.05 -51.25 -16.05 -44.45 L-15.8 -44.1 -14.4 -41.85 -13.55 -40.25 Q-9.35 -31.85 -6.05 -15.5 -3.5 -3.5 -2.9 4.5 -2.6 8.85 -2.6 22.15 -2.65 35.35 -3.6 39.3 -4.5 42.7 -5.5 45.35 L-6.75 48.35 -7.05 49.0 -7.4 49.65 Q-11.05 56.45 -15.65 56.45 L-15.75 56.45 -15.7 56.5 Q-14.45 58.5 -12.35 60.55 -8.6 64.25 -5.8 64.25 0.45 64.25 5.15 57.9 L5.5 57.4 6.2 56.4 7.0 55.05 M23.05 0.0 L22.9 0.05 22.5 -0.15 23.05 0.0 M-16.8 -42.1 Q-19.05 -45.75 -21.7 -45.75 -24.3 -45.75 -26.1 -44.6 -26.75 -44.2 -27.25 -43.95 L-28.05 -39.6 -29.8 -31.75 -29.8 -16.0 -29.85 -11.7 Q-27.5 -10.5 -25.75 -8.5 -24.65 -7.25 -23.75 -5.6 L-23.55 -5.25 -23.5 -5.1 -23.45 -5.0 -23.4 -4.9 -23.35 -4.8 -23.25 -4.65 -23.2 -4.5 -22.45 -2.7 -22.4 -2.6 -22.35 -2.45 -22.3 -2.25 -21.65 0.3 -21.6 0.55 Q-21.15 3.0 -21.15 5.75 L-21.4 9.45 Q-21.75 12.3 -22.3 14.0 L-22.35 14.15 Q-23.05 16.25 -24.85 18.85 L-26.25 20.65 Q-27.35 21.85 -28.4 22.3 L-28.1 24.1 Q-26.7 31.1 -25.75 34.4 -24.15 39.95 -21.7 44.05 -19.45 47.9 -16.95 54.15 L-16.6 54.95 Q-11.65 52.05 -8.8 47.6 -6.8 44.4 -5.85 40.4 L-5.7 39.8 -5.25 37.1 -5.15 36.4 -4.85 30.75 -4.95 22.3 -5.0 6.65 Q-5.35 -0.15 -7.8 -11.65 -9.55 -19.75 -11.85 -28.5 L-12.05 -29.25 -12.05 -29.3 -12.25 -29.95 -14.8 -38.05 -14.95 -38.4 -15.25 -39.15 -16.35 -41.4 -16.65 -41.9 -16.75 -42.05 -16.8 -42.1 M-27.15 -6.55 Q-28.15 -8.1 -29.5 -9.3 L-30.65 -10.1 -32.0 -7.65 Q-33.85 -4.65 -34.4 -3.25 -35.2 -1.25 -35.45 1.7 L-35.6 4.75 Q-35.6 6.05 -35.0 8.0 -34.2 10.8 -32.1 14.95 L-29.4 19.95 -26.85 16.9 Q-25.5 15.05 -24.8 13.5 -24.15 12.05 -23.8 10.25 -23.4 8.2 -23.4 5.65 -23.4 3.3 -23.8 1.85 L-23.85 1.7 -25.35 -2.7 Q-26.0 -4.85 -27.15 -6.55" fill="#000000" fill-rule="evenodd" stroke="none"/>
    <path d="M-6.8 -61.15 L-6.25 -60.65 -6.0 -60.4 Q-4.35 -58.9 -2.85 -57.05 -0.45 -54.1 1.6 -50.25 9.7 -35.15 13.1 -18.4 15.95 -4.45 15.95 13.1 15.95 29.6 11.3 44.6 9.4 50.8 7.0 55.05 L7.0 55.0 6.2 56.4 5.5 57.4 5.15 57.9 Q1.2 56.85 -4.15 52.45 L-7.4 49.65 -7.05 49.0 -6.75 48.35 -5.5 45.35 Q-4.5 42.7 -3.6 39.3 -2.65 35.35 -2.6 22.15 -2.6 8.85 -2.9 4.5 -3.5 -3.5 -6.05 -15.5 -9.35 -31.85 -13.55 -40.25 L-14.4 -41.85 -15.8 -44.1 -16.05 -44.45 -11.85 -53.0 -9.6 -56.6 -7.25 -60.15 -6.8 -61.15" fill="#023f60" fill-rule="evenodd" stroke="none"/>
    <path d="M-6.8 -61.15 L-7.25 -60.15 -9.6 -56.6 -11.85 -53.0 -16.05 -44.45 Q-21.05 -51.25 -26.8 -47.25 L-26.95 -47.5 -24.85 -55.7 Q-23.7 -60.65 -19.85 -63.2 -13.8 -67.15 -6.8 -61.15 M-7.4 49.65 L-4.15 52.45 Q1.2 56.85 5.15 57.9 0.45 64.25 -5.8 64.25 -8.6 64.25 -12.35 60.55 -14.45 58.5 -15.7 56.5 L-15.65 56.45 Q-11.05 56.45 -7.4 49.65 M6.2 56.4 L7.0 55.0 7.0 55.05 6.2 56.4" fill="#046193" fill-rule="evenodd" stroke="none"/>
    <path d="M-16.75 -42.0 L-16.8 -42.1 -16.75 -42.05 -16.75 -42.0" fill="#af8661" fill-rule="evenodd" stroke="none"/>
    <path d="M-12.05 -29.25 L-11.85 -28.5 -12.25 -28.65 -12.05 -29.25 M-5.15 36.4 L-5.25 37.1 -5.5 36.35 -5.15 36.4" fill="#915e3c" fill-rule="evenodd" stroke="none"/>
    <path d="M-25.75 -8.5 L-21.95 -24.05 Q-19.35 -35.0 -16.75 -42.0 L-16.75 -42.05 -16.65 -41.9 -16.35 -41.4 -15.25 -39.15 -14.95 -38.4 -14.8 -38.05 -12.25 -29.95 -12.05 -29.3 -12.05 -29.25 -12.25 -28.65 -12.95 -26.75 -16.7 -15.7 -17.9 -10.6 -18.8 -6.0 Q-18.8 -4.05 -20.5 -1.1 L-21.6 0.55 -21.65 0.3 -22.3 -2.25 -22.35 -2.45 -22.4 -2.6 -22.45 -2.7 -23.2 -4.5 -23.25 -4.65 -23.35 -4.8 -23.4 -4.9 -23.45 -5.0 -23.5 -5.1 -23.55 -5.25 -23.75 -5.6 Q-24.65 -7.25 -25.75 -8.5 M-5.25 37.1 L-5.7 39.8 -5.85 40.4 Q-6.8 44.4 -8.8 47.6 -12.85 42.2 -19.95 30.95 L-26.25 20.65 -24.85 18.85 Q-23.05 16.25 -22.35 14.15 -18.2 18.8 -10.7 28.5 -6.7 33.55 -5.5 36.35 L-5.25 37.1 M-27.15 -6.55 Q-26.0 -4.85 -25.35 -2.7 L-23.85 1.7 -25.05 2.35 -30.4 5.55 -28.8 6.95 -23.8 10.25 Q-24.15 12.05 -24.8 13.5 -25.5 15.05 -26.85 16.9 L-31.65 11.75 -35.0 8.0 Q-35.6 6.05 -35.6 4.75 L-35.45 1.7 -31.2 -2.75 Q-29.05 -5.05 -27.15 -6.55" fill="#583429" fill-rule="evenodd" stroke="none"/>
    <path d="M-11.85 -28.5 Q-9.55 -19.75 -7.8 -11.65 -5.35 -0.15 -5.0 6.65 L-4.95 22.3 -4.85 30.75 -5.15 36.4 -5.5 36.35 Q-6.7 33.55 -10.7 28.5 -18.2 18.8 -22.35 14.15 L-22.3 14.0 Q-21.75 12.3 -21.4 9.45 L-21.15 5.75 Q-21.15 3.0 -21.6 0.55 L-20.5 -1.1 Q-18.8 -4.05 -18.8 -6.0 L-17.9 -10.6 -16.7 -15.7 -12.95 -26.75 -12.25 -28.65 -11.85 -28.5 M-23.85 1.7 L-23.8 1.85 Q-23.4 3.3 -23.4 5.65 -23.4 8.2 -23.8 10.25 L-28.8 6.95 -30.4 5.55 -25.05 2.35 -23.85 1.7" fill="#8a5242" fill-rule="evenodd" stroke="none"/>
    <path d="M-16.8 -42.1 L-16.75 -42.0 Q-19.35 -35.0 -21.95 -24.05 L-25.75 -8.5 Q-27.5 -10.5 -29.85 -11.7 L-29.8 -16.0 -29.8 -31.75 -28.05 -39.6 -27.25 -43.95 Q-26.75 -44.2 -26.1 -44.6 -24.3 -45.75 -21.7 -45.75 -19.05 -45.75 -16.8 -42.1 M-8.8 47.6 Q-11.65 52.05 -16.6 54.95 L-16.95 54.15 Q-19.45 47.9 -21.7 44.05 -24.15 39.95 -25.75 34.4 -26.7 31.1 -28.1 24.1 L-28.4 22.3 Q-27.35 21.85 -26.25 20.65 L-19.95 30.95 Q-12.85 42.2 -8.8 47.6 M-35.45 1.7 Q-35.2 -1.25 -34.4 -3.25 -33.85 -4.65 -32.0 -7.65 L-30.65 -10.1 -29.5 -9.3 Q-28.15 -8.1 -27.15 -6.55 -29.05 -5.05 -31.2 -2.75 L-35.45 1.7 M-26.85 16.9 L-29.4 19.95 -32.1 14.95 Q-34.2 10.8 -35.0 8.0 L-31.65 11.75 -26.85 16.9" fill="#b98c6f" fill-rule="evenodd" stroke="none"/>
  </g>
</svg>
