<?xml version="1.0" encoding="UTF-8" standalone="no"?>
<svg xmlns:ffdec="https://www.free-decompiler.com/flash" xmlns:xlink="http://www.w3.org/1999/xlink" ffdec:objectType="shape" height="107.45px" width="117.0px" xmlns="http://www.w3.org/2000/svg">
  <g transform="matrix(1.0, 0.0, 0.0, 1.0, 58.5, 53.2)">
    <path d="M-5.25 -51.45 Q-4.7 -50.45 -3.75 -49.85 L-3.0 -46.25 Q-2.55 -44.6 -0.55 -41.35 L2.3 -36.2 Q4.45 -30.9 12.35 -28.95 16.4 -27.9 21.3 -27.7 L21.5 -27.25 Q20.7 -25.85 17.1 -25.45 L12.5 -24.75 11.55 -24.5 Q12.1 -24.2 14.15 -23.2 L17.5 -21.75 19.05 -21.05 22.05 -20.5 33.9 -19.9 Q35.0 -19.7 35.0 -19.15 L30.35 -13.15 Q25.15 -6.4 23.0 -0.45 L21.1 4.2 19.3 9.0 Q19.15 9.5 19.15 13.65 L18.85 16.0 Q19.9 16.9 21.0 18.65 24.15 23.75 25.55 25.0 33.6 33.05 35.45 35.75 L35.5 35.75 35.5 35.55 39.05 36.0 Q40.8 36.4 52.75 35.75 56.75 35.75 58.0 38.8 58.5 40.0 58.5 42.55 58.5 46.1 56.25 49.3 52.8 54.25 45.5 54.25 38.5 54.25 33.05 50.55 L28.6 47.2 Q25.8 45.15 23.3 44.0 L23.25 43.95 Q20.85 43.0 17.3 39.25 14.15 35.9 11.25 31.8 L6.05 25.75 Q1.5 20.3 1.05 18.8 L0.45 18.4 Q-1.65 16.95 -5.0 12.55 L-8.0 8.55 Q-9.45 6.25 -9.0 4.8 -22.8 2.9 -32.3 -4.3 -35.45 -6.7 -39.1 -10.45 L-44.5 -15.95 Q-47.9 -19.05 -52.9 -26.6 -58.5 -35.1 -58.5 -38.65 L-58.35 -39.9 -58.3 -39.9 -57.5 -38.55 -57.35 -37.9 -57.2 -37.75 -56.8 -37.75 -56.4 -37.3 Q-55.45 -33.1 -46.2 -21.8 -39.2 -13.25 -34.45 -8.5 -31.35 -5.45 -30.0 -4.5 -27.45 -2.65 -22.75 -1.0 L-19.45 0.3 -14.95 1.5 Q-9.8 2.45 -8.35 3.0 -7.1 3.5 -7.0 4.5 -6.65 7.85 -3.4 12.15 -1.05 15.25 1.85 16.7 2.7 16.55 3.35 17.35 L7.4 18.0 Q10.2 18.0 12.9 16.9 L15.5 15.75 16.5 15.75 16.55 15.3 Q16.9 7.55 22.25 -3.5 27.45 -14.3 32.0 -18.2 22.9 -17.3 15.05 -20.5 8.5 -23.15 8.5 -25.1 L8.7 -26.15 Q9.35 -26.85 11.75 -27.0 3.9 -29.9 0.0 -35.1 -1.8 -37.5 -4.5 -44.25 -5.0 -45.5 -5.35 -48.8 L-5.6 -50.5 -5.35 -51.4 -5.25 -51.45 M43.5 38.75 Q39.0 38.75 37.2 38.05 L36.4 37.55 Q35.95 38.9 33.9 40.45 L29.0 43.75 27.8 43.75 31.95 47.15 Q38.35 52.0 45.4 52.0 51.8 52.0 54.75 47.55 56.5 44.95 56.5 42.65 56.5 40.4 55.8 39.0 55.0 37.25 51.5 37.75 L43.5 38.75 M25.2 42.25 Q27.5 42.2 29.55 40.75 30.75 39.8 32.0 39.3 32.95 38.85 33.7 37.5 32.25 36.3 29.5 33.15 L24.55 27.25 20.4 22.3 17.5 18.25 16.85 17.85 14.75 18.9 Q11.4 20.25 7.25 20.25 L4.65 20.05 Q5.6 21.9 6.25 22.55 8.35 24.3 9.8 26.4 L12.55 30.5 Q15.25 34.25 19.3 37.65 L24.8 42.25 24.95 42.3 25.2 42.25" fill="#000000" fill-rule="evenodd" stroke="none"/>
    <path d="M-57.5 -38.55 L-57.5 -38.85 Q-57.5 -39.45 -46.9 -42.45 L-32.2 -46.5 -25.0 -47.7 -22.2 -48.5 Q-18.05 -49.9 -16.0 -50.25 -13.55 -50.7 -9.3 -52.5 -7.45 -53.25 -5.9 -53.2 L-5.3 -51.55 -5.25 -51.45 -5.35 -51.4 -5.6 -50.5 -5.35 -48.8 Q-5.0 -45.5 -4.5 -44.25 -1.8 -37.5 0.0 -35.1 3.9 -29.9 11.75 -27.0 9.35 -26.85 8.7 -26.15 L8.5 -25.1 Q8.5 -23.15 15.05 -20.5 22.9 -17.3 32.0 -18.2 27.45 -14.3 22.25 -3.5 16.9 7.55 16.55 15.3 L16.5 15.75 15.5 15.75 12.9 16.9 Q10.2 18.0 7.4 18.0 L3.35 17.35 Q2.7 16.55 1.85 16.7 -1.05 15.25 -3.4 12.15 -6.65 7.85 -7.0 4.5 -7.1 3.5 -8.35 3.0 -9.8 2.45 -14.95 1.5 L-19.45 0.3 -22.75 -1.0 Q-27.45 -2.65 -30.0 -4.5 -31.35 -5.45 -34.45 -8.5 -39.2 -13.25 -46.2 -21.8 -55.45 -33.1 -56.4 -37.3 L-56.4 -37.75 -56.8 -37.75 -57.2 -37.75 -57.35 -37.9 -57.5 -38.55" fill="#282828" fill-rule="evenodd" stroke="none"/>
    <path d="M43.5 38.75 L51.5 37.75 Q55.0 37.25 55.8 39.0 56.5 40.4 56.5 42.65 56.5 44.95 54.75 47.55 51.8 52.0 45.4 52.0 38.35 52.0 31.95 47.15 L27.8 43.75 29.0 43.75 33.9 40.45 Q35.95 38.9 36.4 37.55 L37.2 38.05 Q39.0 38.75 43.5 38.75" fill="#666666" fill-rule="evenodd" stroke="none"/>
    <path d="M24.8 42.25 L19.3 37.65 Q15.25 34.25 12.55 30.5 L9.8 26.4 Q8.35 24.3 6.25 22.55 5.6 21.9 4.65 20.05 L7.25 20.25 Q11.4 20.25 14.75 18.9 L16.85 17.85 17.5 18.25 20.4 22.3 24.55 27.25 29.5 33.15 Q32.25 36.3 33.7 37.5 32.95 38.85 32.0 39.3 30.75 39.8 29.55 40.75 27.5 42.2 25.2 42.25 L24.8 42.25" fill="#046193" fill-rule="evenodd" stroke="none"/>
  </g>
</svg>
