<?xml version="1.0" encoding="UTF-8" standalone="no"?>
<svg xmlns:ffdec="https://www.free-decompiler.com/flash" xmlns:xlink="http://www.w3.org/1999/xlink" ffdec:objectType="shape" height="61.85px" width="151.5px" xmlns="http://www.w3.org/2000/svg">
  <g transform="matrix(1.0, 0.0, 0.0, 1.0, 75.75, 30.9)">
    <path d="M23.8 -26.8 L24.25 -26.05 Q22.8 -25.05 16.65 -22.6 L6.75 -18.5 5.75 -17.75 Q20.5 -18.3 22.8 -17.85 29.2 -16.6 43.5 -15.8 46.6 -15.7 48.7 -14.9 50.75 -14.05 50.75 -12.95 50.75 -11.55 42.6 -8.95 L31.0 -5.55 30.5 -5.25 49.55 0.3 Q60.45 3.65 64.25 5.25 62.95 7.25 56.25 8.1 L46.75 8.95 46.3 9.2 Q54.05 12.55 62.6 19.2 L75.25 28.95 75.2 29.35 75.75 29.95 75.4 30.55 Q75.05 30.95 74.25 30.95 73.65 30.95 71.55 29.85 69.25 28.65 68.25 28.45 L58.75 25.95 50.1 23.6 41.75 21.2 Q41.75 22.3 43.1 25.05 44.4 27.7 44.25 29.45 L44.15 29.7 43.25 29.95 Q33.4 25.3 31.55 24.75 22.1 21.85 17.75 20.0 19.75 22.0 19.75 26.55 19.75 27.9 19.55 28.3 19.25 28.95 18.0 28.95 17.7 28.95 10.1 25.35 0.9 21.0 -7.75 16.5 L-5.3 19.8 Q-4.25 21.0 -4.25 22.55 -4.25 24.0 -4.45 24.3 -4.85 24.95 -6.75 24.95 -9.2 24.95 -16.6 21.2 L-25.7 16.7 -31.8 14.5 Q-35.75 13.2 -40.45 12.0 L-37.9 15.95 Q-36.75 17.8 -36.75 18.95 -36.75 20.1 -36.9 20.4 -37.15 20.95 -38.0 20.95 -49.2 16.75 -51.75 14.75 -53.85 13.15 -60.8 11.2 -66.95 9.5 -75.45 7.95 L-75.75 6.2 -74.75 6.3 Q-74.55 4.7 -67.25 -2.6 L-59.0 -10.5 Q-55.9 -13.3 -47.0 -19.3 -37.1 -26.05 -35.0 -26.05 L-34.2 -25.8 -33.9 -25.75 Q-33.75 -25.7 -33.75 -24.95 -33.75 -24.65 -36.9 -20.9 L-41.25 -15.3 -41.45 -15.05 Q-30.15 -21.0 -22.65 -24.35 -11.7 -29.3 -4.7 -30.8 L-4.45 -30.9 Q-4.25 -30.85 -4.25 -30.05 -4.25 -28.45 -19.5 -18.5 L-19.75 -18.25 -5.1 -22.8 Q10.7 -27.05 21.75 -27.05 L23.8 -26.8 M59.45 19.55 L53.1 14.8 Q47.9 11.3 41.55 10.45 L41.4 10.3 Q41.25 10.1 41.25 9.35 41.25 8.1 45.8 7.1 L58.3 5.2 Q56.15 4.35 50.65 2.75 L44.75 1.2 38.5 -0.95 Q32.85 -2.7 23.05 -3.05 L22.9 -3.2 Q22.75 -3.4 22.75 -4.15 22.75 -6.1 47.25 -12.55 44.05 -13.7 35.05 -14.35 L23.25 -15.05 4.1 -15.85 2.3 -15.95 2.25 -17.0 Q2.25 -18.3 5.7 -20.25 8.35 -21.75 14.75 -24.5 3.7 -22.9 -3.35 -21.05 -9.25 -19.55 -22.25 -15.05 L-24.45 -15.05 -24.6 -15.3 -24.75 -16.3 Q-24.75 -17.5 -19.4 -21.1 L-11.2 -26.55 -10.95 -27.0 -11.35 -26.8 -29.8 -18.5 Q-40.75 -13.5 -45.75 -9.55 L-46.5 -9.7 -46.75 -10.65 Q-46.75 -11.2 -43.1 -16.15 L-39.0 -21.5 -38.75 -21.8 -39.05 -21.65 Q-50.55 -15.95 -59.9 -6.85 L-71.4 5.25 -72.25 6.1 -72.65 6.5 -72.2 6.55 -70.2 6.8 Q-63.0 7.9 -55.4 10.85 L-39.45 17.25 -41.45 14.3 Q-42.95 12.2 -44.2 10.95 L-44.25 10.3 Q-44.25 9.5 -43.6 9.4 L-42.0 9.45 Q-39.0 9.45 -23.3 15.8 L-6.25 22.7 Q-7.15 20.1 -10.1 17.0 -12.8 14.2 -16.2 11.95 L-16.25 10.75 -16.0 10.6 -15.0 10.45 Q-14.05 10.45 -1.4 16.85 9.65 22.45 17.5 26.7 17.75 27.55 17.75 26.3 17.75 24.2 16.75 21.85 15.7 19.4 14.25 18.25 L14.25 17.2 14.75 17.1 16.0 16.95 Q17.5 16.95 22.75 20.0 L26.45 21.55 29.05 22.2 Q32.4 22.95 36.35 24.65 40.3 26.4 41.55 26.7 40.45 25.65 39.95 23.1 L39.25 19.5 Q39.8 18.95 41.25 18.95 41.9 18.95 51.1 21.45 L62.25 24.45 67.6 25.8 65.15 23.95 60.25 20.2 59.85 19.9 59.45 19.55" fill="#000000" fill-rule="evenodd" stroke="none"/>
    <path d="M-39.0 -21.5 L-39.05 -21.65 -39.0 -21.5 M-55.7 0.7 L-55.7 0.85 -55.95 0.95 -55.7 0.7 M17.25 2.75 L17.3 3.25 16.05 3.2 17.25 2.75 M17.75 26.3 Q17.75 27.55 17.5 26.7 L17.75 26.3 M-72.2 6.55 L-72.65 6.5 -72.25 6.1 -72.2 6.55 M-53.45 -4.55 L-53.2 -4.75 -53.45 -4.3 -53.45 -4.55 M-30.95 -6.0 L-31.0 -6.2 -30.95 -6.25 -30.95 -6.0" fill="#202020" fill-rule="evenodd" stroke="none"/>
    <path d="M-11.2 -26.55 L-19.4 -21.1 Q-24.75 -17.5 -24.75 -16.3 L-24.6 -15.3 -24.45 -15.05 -22.25 -15.05 Q-9.25 -19.55 -3.35 -21.05 3.7 -22.9 14.75 -24.5 8.35 -21.75 5.7 -20.25 2.25 -18.3 2.25 -17.0 L2.3 -15.95 4.1 -15.85 23.25 -15.05 35.05 -14.35 Q44.05 -13.7 47.25 -12.55 22.75 -6.1 22.75 -4.15 22.75 -3.4 22.9 -3.2 L23.05 -3.05 Q32.85 -2.7 38.5 -0.95 L44.75 1.2 50.65 2.75 Q56.15 4.35 58.3 5.2 L45.8 7.1 Q41.25 8.1 41.25 9.35 41.25 10.1 41.4 10.3 L41.55 10.45 Q47.9 11.3 53.1 14.8 L59.45 19.55 Q41.15 12.5 32.0 9.2 L35.55 8.6 Q36.25 8.4 36.25 7.6 36.25 5.6 32.15 4.6 27.7 3.5 17.3 3.25 L17.25 2.75 24.95 1.9 Q27.25 1.4 27.25 0.45 27.25 -0.35 27.05 -0.4 L26.8 -0.3 Q25.6 -1.45 24.7 -1.7 L15.0 -2.05 8.15 -1.75 0.75 -1.25 8.9 -3.55 Q11.25 -4.25 11.25 -5.45 L11.05 -6.0 Q10.45 -6.55 8.25 -6.55 0.45 -6.55 -6.8 -4.95 L-13.75 -3.25 -5.45 -7.2 Q0.85 -10.15 2.25 -11.05 L1.8 -12.05 -0.75 -12.05 Q-9.75 -8.9 -18.5 -6.5 L-31.5 -3.25 -23.95 -7.0 Q-19.75 -9.2 -19.75 -10.95 L-19.85 -11.75 -19.95 -11.8 Q-22.65 -11.55 -37.0 -6.4 -50.7 -1.55 -55.7 0.85 L-55.7 0.7 Q-52.35 -3.65 -48.25 -7.55 -48.55 -8.25 -49.25 -8.55 -51.7 -7.85 -55.9 -5.45 -59.7 -3.3 -62.0 -1.5 L-68.05 2.9 -71.4 5.25 -59.9 -6.85 Q-50.55 -15.95 -39.05 -21.65 L-39.0 -21.5 -43.1 -16.15 Q-46.75 -11.2 -46.75 -10.65 L-46.5 -9.7 -45.75 -9.55 Q-40.75 -13.5 -29.8 -18.5 L-11.35 -26.8 -11.2 -26.55" fill="#333a42" fill-rule="evenodd" stroke="none"/>
    <path d="M-71.4 5.25 L-68.05 2.9 -62.0 -1.5 Q-59.7 -3.3 -55.9 -5.45 -51.7 -7.85 -49.25 -8.55 -48.55 -8.25 -48.25 -7.55 -52.35 -3.65 -55.7 0.7 L-55.95 0.95 -55.7 0.85 Q-50.7 -1.55 -37.0 -6.4 -22.65 -11.55 -19.95 -11.8 L-19.85 -11.75 -19.75 -10.95 Q-19.75 -9.2 -23.95 -7.0 L-31.5 -3.25 -18.5 -6.5 Q-9.75 -8.9 -0.75 -12.05 L1.8 -12.05 2.25 -11.05 Q0.85 -10.15 -5.45 -7.2 L-13.75 -3.25 -6.8 -4.95 Q0.45 -6.55 8.25 -6.55 10.45 -6.55 11.05 -6.0 L11.25 -5.45 Q11.25 -4.25 8.9 -3.55 L0.75 -1.25 8.15 -1.75 15.0 -2.05 24.7 -1.7 Q25.6 -1.45 26.8 -0.3 L27.05 -0.4 Q27.25 -0.35 27.25 0.45 27.25 1.4 24.95 1.9 L17.25 2.75 16.05 3.2 17.3 3.25 Q27.7 3.5 32.15 4.6 36.25 5.6 36.25 7.6 36.25 8.4 35.55 8.6 L32.0 9.2 Q41.15 12.5 59.45 19.55 L59.85 19.9 60.25 20.2 65.15 23.95 67.6 25.8 62.25 24.45 51.1 21.45 Q41.9 18.95 41.25 18.95 39.8 18.95 39.25 19.5 L39.95 23.1 Q40.45 25.65 41.55 26.7 40.3 26.4 36.35 24.65 32.4 22.95 29.05 22.2 L26.45 21.55 22.75 20.0 Q17.5 16.95 16.0 16.95 L14.75 17.1 14.25 17.2 14.25 18.25 Q15.7 19.4 16.75 21.85 17.75 24.2 17.75 26.3 L17.5 26.7 Q9.65 22.45 -1.4 16.85 -14.05 10.45 -15.0 10.45 L-16.0 10.6 -16.25 10.75 -16.2 11.95 Q-12.8 14.2 -10.1 17.0 -7.15 20.1 -6.25 22.7 L-23.3 15.8 Q-39.0 9.45 -42.0 9.45 L-43.6 9.4 Q-44.25 9.5 -44.25 10.3 L-44.2 10.95 Q-42.95 12.2 -41.45 14.3 L-39.45 17.25 -55.4 10.85 Q-63.0 7.9 -70.2 6.8 L-72.2 6.55 -72.25 6.1 -71.4 5.25 M-53.45 -4.55 L-53.45 -4.3 -53.2 -4.75 -53.45 -4.55 M-30.95 -6.0 L-30.95 -6.25 -31.0 -6.2 -30.95 -6.0" fill="#202428" fill-rule="evenodd" stroke="none"/>
  </g>
</svg>
