<?xml version="1.0" encoding="UTF-8" standalone="no"?>
<svg xmlns:ffdec="https://www.free-decompiler.com/flash" xmlns:xlink="http://www.w3.org/1999/xlink" ffdec:objectType="shape" height="147.5px" width="122.5px" xmlns="http://www.w3.org/2000/svg">
  <g transform="matrix(1.0, 0.0, 0.0, 1.0, 61.25, 73.75)">
    <path d="M42.25 -59.25 Q42.25 -57.85 26.5 -47.55 15.55 -40.4 5.8 -34.5 L5.25 -33.95 Q14.3 -36.5 20.3 -37.45 L43.25 -39.75 51.8 -39.75 52.25 -38.75 34.95 -30.75 Q22.75 -25.1 17.8 -23.0 L32.3 -22.95 41.4 -23.95 52.0 -24.75 60.8 -24.0 Q61.25 -23.85 61.25 -23.15 61.25 -21.3 45.2 -15.15 35.55 -11.45 23.55 -7.45 L22.55 -7.0 Q24.4 -6.15 39.8 -0.1 54.25 6.0 54.25 8.35 54.25 9.4 53.25 9.75 L47.25 10.25 38.15 9.35 24.05 8.7 Q29.4 10.3 36.0 13.45 L39.1 14.9 39.25 14.8 Q39.75 14.8 43.25 16.55 43.55 16.85 46.1 17.35 L52.25 18.75 Q54.65 19.4 60.55 23.3 L60.75 23.75 Q60.4 23.95 60.35 24.35 60.35 24.55 59.4 24.55 L40.3 24.0 30.3 24.0 Q31.65 24.75 38.35 27.75 L47.0 31.5 Q49.25 32.4 53.2 34.45 58.75 37.3 58.75 38.4 L58.7 39.15 58.5 39.5 58.4 39.65 57.5 39.75 55.2 39.25 Q53.95 38.45 53.25 38.25 L50.1 37.65 44.5 37.0 23.85 35.35 Q30.25 39.1 43.75 48.05 L43.4 48.8 42.25 49.25 Q41.6 49.25 40.5 48.7 L38.5 48.0 30.25 47.4 22.25 46.75 17.15 45.6 7.5 44.4 9.95 47.55 Q13.05 51.95 15.3 53.5 20.45 58.15 26.75 64.85 L26.55 65.8 26.5 66.05 25.5 66.25 Q24.35 66.25 21.95 64.45 L18.75 62.05 Q15.0 60.25 9.75 58.3 8.2 57.75 2.2 55.05 -2.7 52.85 -5.7 52.0 L4.5 64.25 11.25 72.35 11.05 73.3 11.0 73.55 10.0 73.75 Q8.65 73.75 1.55 69.25 -7.9 63.25 -10.7 61.75 -14.0 60.0 -18.45 55.55 -21.3 52.75 -24.0 51.35 L-18.75 62.85 -18.95 63.8 -19.0 64.05 -20.0 64.25 -27.3 58.25 -36.5 50.3 -44.0 43.65 Q-49.25 38.85 -50.75 36.05 -57.95 23.85 -59.45 20.45 -61.25 16.25 -61.25 7.55 L-60.8 0.6 Q-60.45 -6.2 -60.75 -9.7 -61.1 -13.15 -59.95 -18.4 L-57.7 -26.95 Q-56.3 -31.75 -50.25 -44.2 -47.45 -49.95 -41.3 -55.35 -34.95 -60.9 -31.7 -60.0 L-31.4 -59.95 Q-31.25 -59.9 -31.25 -59.15 -31.25 -58.45 -33.5 -54.55 L-35.95 -50.25 -38.5 -46.2 -39.5 -44.4 -34.75 -49.1 -25.2 -58.25 -16.95 -66.5 -13.0 -71.0 Q-10.4 -73.7 -8.45 -73.0 L-8.35 -72.6 -8.25 -71.5 -11.45 -66.0 -14.95 -60.0 -18.0 -54.1 -19.45 -50.3 -19.65 -49.55 -14.65 -53.05 -2.7 -61.25 Q9.25 -69.95 15.25 -73.75 L15.95 -73.55 Q16.25 -73.45 16.25 -72.65 16.25 -71.55 7.1 -60.45 -0.2 -51.55 -6.0 -45.0 L-6.45 -44.45 16.3 -52.75 Q28.9 -57.15 41.8 -60.25 L42.05 -60.1 42.25 -59.25 M10.55 -68.5 L10.8 -68.95 10.4 -68.65 8.35 -67.2 -1.3 -60.45 -20.25 -46.75 -21.0 -47.0 -21.05 -47.05 -21.15 -47.25 -21.25 -47.25 -22.45 -47.5 -22.7 -47.7 -22.75 -48.5 Q-22.75 -49.3 -18.95 -56.9 -15.05 -64.7 -13.2 -67.45 L-14.9 -65.8 -21.2 -59.7 -21.9 -59.05 -27.0 -54.2 Q-35.85 -45.7 -40.25 -40.75 L-40.8 -40.75 -41.45 -40.75 -41.6 -40.9 -41.65 -41.05 -42.1 -41.55 -42.25 -42.75 Q-42.25 -44.55 -38.65 -50.6 L-36.15 -54.65 -35.75 -55.25 -34.5 -57.2 -34.25 -57.5 -34.55 -57.25 -36.15 -56.15 -39.9 -53.25 Q-45.95 -48.1 -49.5 -41.65 -51.55 -37.9 -55.95 -24.95 -59.4 -14.5 -58.75 -8.45 -58.45 -5.25 -58.8 1.1 L-59.25 7.65 Q-59.25 15.55 -57.8 18.6 L-50.25 33.25 Q-49.05 35.85 -44.75 39.7 L-37.75 46.0 Q-33.3 50.55 -23.7 58.3 -23.7 57.6 -24.75 54.7 L-25.75 51.25 -25.7 50.6 -25.95 50.5 -26.25 49.3 Q-25.75 48.8 -24.85 48.75 L-24.7 48.75 -24.5 48.75 Q-23.3 48.75 -18.45 53.15 -12.7 58.4 -10.95 59.5 L-1.25 64.75 -1.2 64.8 0.15 65.7 1.45 66.7 1.5 66.75 1.45 66.7 2.05 67.15 Q4.25 68.9 6.3 69.75 L-1.5 60.1 Q-6.65 53.8 -8.75 50.3 -8.2 49.75 -6.5 49.75 L-6.0 49.8 Q-3.75 50.0 0.95 52.25 3.6 53.5 6.5 55.0 L18.3 59.25 16.7 57.75 16.55 57.6 16.35 57.45 13.95 55.1 11.55 52.7 11.1 52.25 11.05 52.2 10.8 51.9 10.75 51.9 10.2 51.35 Q5.25 46.1 5.25 44.0 L5.3 43.6 5.25 43.15 Q5.25 42.35 6.25 42.25 L6.3 42.25 8.25 42.25 15.8 42.95 20.05 44.0 27.6 45.55 35.45 45.5 35.55 45.5 35.45 45.45 31.3 42.85 30.45 42.3 26.55 39.75 Q18.25 34.35 18.25 34.0 L18.3 33.2 18.5 32.8 20.0 32.75 25.2 32.5 25.65 32.75 25.75 32.75 Q32.9 32.75 49.0 35.5 L51.55 35.5 40.5 30.9 36.25 29.1 Q25.55 24.6 22.75 22.5 L22.8 21.5 26.15 21.5 40.55 22.0 53.55 22.0 Q53.25 21.6 45.8 19.35 L44.2 18.85 Q41.4 17.95 40.05 17.25 L38.7 17.25 34.5 15.0 26.9 11.95 Q20.55 9.5 19.25 8.55 L19.25 7.9 19.25 7.5 19.75 7.6 Q19.75 7.05 20.05 7.0 L27.0 6.75 37.75 7.4 42.05 8.05 50.75 8.0 51.05 8.0 50.75 7.8 49.55 7.1 48.95 6.75 35.25 0.45 34.9 0.3 34.35 0.05 Q21.5 -5.05 18.25 -6.75 L18.25 -7.0 19.1 -7.65 Q21.0 -8.9 26.1 -10.65 34.7 -13.65 37.05 -14.75 L46.35 -18.2 Q55.0 -21.4 56.75 -22.5 L50.65 -22.65 48.25 -22.7 39.2 -21.85 31.75 -20.75 11.55 -20.75 11.4 -21.0 Q11.25 -21.25 11.25 -22.0 L11.25 -22.1 Q11.3 -23.7 12.8 -24.2 L18.75 -25.75 21.95 -26.95 27.0 -29.25 44.2 -37.35 44.5 -37.5 44.15 -37.45 36.05 -36.95 22.1 -35.55 Q12.15 -34.05 4.25 -31.25 L0.55 -31.25 0.4 -31.5 Q0.25 -31.75 0.25 -32.5 0.25 -33.15 15.25 -43.0 31.95 -54.0 35.5 -56.9 L35.55 -56.95 35.45 -56.9 34.75 -56.7 30.65 -55.35 27.25 -54.15 26.85 -54.05 8.95 -47.7 -8.7 -41.25 -8.75 -41.25 -9.95 -41.5 -10.2 -41.7 -10.25 -42.5 Q-10.25 -43.85 -4.85 -49.65 L0.3 -55.0 0.35 -55.05 1.0 -55.75 Q3.6 -59.4 10.55 -68.5" fill="#000000" fill-rule="evenodd" stroke="none"/>
    <path d="M10.4 -68.65 L10.55 -68.5 Q3.6 -59.4 1.0 -55.75 L0.35 -55.05 6.0 -63.65 8.35 -67.2 10.4 -68.65 M30.65 -55.35 L34.75 -56.7 34.15 -56.5 30.75 -54.5 30.7 -55.2 30.65 -55.35 M11.25 -22.1 L11.25 -22.0 11.25 -22.1 M34.35 0.05 L34.9 0.3 34.35 0.3 34.35 0.05 M20.0 32.75 L18.5 32.8 18.5 32.55 20.0 32.75 M10.2 51.35 L10.75 51.9 10.0 51.6 10.2 51.35 M13.95 55.1 L16.35 57.45 16.2 57.3 14.8 55.95 13.95 55.1 M-6.0 49.8 L-6.5 49.75 -6.4 49.6 -6.0 49.8 M-36.15 -56.15 L-34.55 -57.25 -34.5 -57.2 -35.75 -55.25 -36.15 -56.15 M-21.05 -47.05 L-21.0 -47.0 -21.05 -47.0 -21.05 -47.05 M22.25 5.5 L24.75 5.45 27.25 5.5 22.25 5.5" fill="#202020" fill-rule="evenodd" stroke="none"/>
    <path d="M-8.7 -41.25 L8.95 -47.7 26.85 -54.05 20.4 -50.15 7.05 -41.95 -3.25 -35.75 -5.9 -32.6 Q-8.25 -29.55 -8.25 -28.85 L-8.1 -27.9 -7.95 -27.75 -6.5 -27.5 -5.0 -27.25 0.6 -31.15 0.55 -31.25 4.25 -31.25 Q12.15 -34.05 22.1 -35.55 L36.05 -36.95 26.05 -34.25 18.25 -32.05 Q13.65 -30.5 9.25 -28.2 L0.65 -23.8 Q-4.25 -21.2 -4.25 -20.35 -4.25 -19.1 -3.95 -19.5 L-1.95 -18.75 Q-0.9 -18.25 -0.25 -18.25 0.5 -18.25 11.25 -22.1 L11.25 -22.0 Q11.25 -21.25 11.4 -21.0 L11.55 -20.75 31.75 -20.75 39.2 -21.85 48.25 -22.7 50.65 -22.65 48.55 -22.05 Q43.2 -20.45 38.5 -20.45 L36.9 -20.85 Q35.0 -21.05 31.8 -19.95 28.85 -18.95 25.75 -17.25 22.3 -15.3 20.75 -14.7 1.75 -7.4 1.75 -5.85 1.75 -4.6 2.05 -5.0 L3.0 -4.75 4.85 -5.2 Q5.45 -5.4 6.5 -5.95 L7.0 -4.8 Q7.15 -4.25 8.0 -4.25 9.6 -4.25 19.1 -7.65 L18.25 -7.0 18.25 -6.75 Q21.5 -5.05 34.35 0.05 L34.35 0.3 10.55 1.3 Q-3.25 2.35 -3.25 3.65 L-3.1 4.6 -2.95 4.75 -0.25 4.8 -0.15 6.15 0.05 7.5 19.25 7.9 19.25 8.55 Q20.55 9.5 26.9 11.95 L34.5 15.0 38.7 17.25 40.05 17.25 Q41.4 17.95 44.2 18.85 L40.75 18.8 38.05 18.35 35.5 17.8 28.0 17.0 Q5.95 16.65 1.6 16.8 L-0.75 17.1 -0.75 17.65 Q-0.75 18.9 -0.45 18.5 L1.45 18.3 Q2.8 18.05 2.8 18.8 2.8 19.7 3.0 20.0 L3.75 20.25 11.35 20.9 14.25 21.25 22.8 21.7 22.8 21.5 22.75 22.5 Q25.55 24.6 36.25 29.1 L40.5 30.9 36.8 30.3 Q31.8 28.3 29.8 27.8 L12.85 26.0 Q3.95 25.15 2.25 28.55 L3.15 28.65 Q3.8 28.6 3.8 29.3 3.8 30.55 10.8 31.55 L18.5 32.55 18.5 32.8 18.3 33.2 18.25 34.0 Q18.25 34.35 26.55 39.75 L30.45 42.3 28.25 41.55 22.65 40.2 17.75 39.25 5.0 37.0 2.05 36.05 Q-0.4 35.3 -2.25 35.25 -2.6 35.3 -2.95 35.55 L-3.25 36.05 Q-3.25 36.3 -5.15 36.75 L-7.25 37.3 Q-6.3 39.35 -4.05 39.7 0.1 40.35 1.25 40.8 L6.25 42.25 Q5.25 42.35 5.25 43.15 L5.3 43.6 5.25 44.0 Q5.25 46.1 10.2 51.35 L10.0 51.6 -0.7 48.0 Q-4.7 45.55 -10.3 43.4 -15.65 41.35 -16.7 41.75 L-16.75 42.25 Q-16.75 44.4 -6.4 49.6 L-6.5 49.75 Q-8.2 49.75 -8.75 50.3 -6.65 53.8 -1.5 60.1 L6.3 69.75 Q4.25 68.9 2.05 67.15 L1.45 66.7 1.5 66.75 1.45 66.7 -3.45 60.7 Q-6.75 56.85 -10.0 53.75 -14.1 51.55 -19.4 46.25 -23.85 41.75 -26.7 41.0 -26.8 42.1 -26.5 42.75 L-27.1 42.25 Q-27.55 41.75 -28.25 41.75 L-29.1 41.95 Q-29.1 42.3 -29.25 42.5 -27.65 45.65 -24.85 48.75 -25.75 48.8 -26.25 49.3 L-25.95 50.5 -25.7 50.6 -25.75 51.25 -24.75 54.7 Q-23.7 57.6 -23.7 58.3 -33.3 50.55 -37.75 46.0 L-44.75 39.7 Q-49.05 35.85 -50.25 33.25 L-57.8 18.6 Q-59.25 15.55 -59.25 7.65 L-58.8 1.1 Q-58.45 -5.25 -58.75 -8.45 -59.4 -14.5 -55.95 -24.95 -51.55 -37.9 -49.5 -41.65 -45.95 -48.1 -39.9 -53.25 L-40.0 -53.15 -41.45 -50.7 -43.8 -46.2 Q-45.15 -43.55 -45.45 -41.7 L-47.4 -31.15 -48.75 -23.25 -48.6 -22.35 -47.75 -22.25 Q-46.9 -22.95 -46.3 -25.1 -45.75 -27.0 -45.45 -27.0 -43.0 -27.0 -41.0 -40.0 L-40.8 -40.75 -40.25 -40.75 Q-35.85 -45.7 -27.0 -54.2 L-21.9 -59.05 -23.9 -54.7 -26.2 -49.45 -30.9 -39.6 Q-34.25 -31.95 -34.25 -28.75 L-34.1 -27.85 -33.25 -27.75 -32.7 -28.0 -32.5 -29.15 Q-32.5 -29.75 -31.75 -29.75 -29.7 -29.75 -29.35 -30.7 -29.05 -32.55 -28.25 -34.25 L-24.95 -40.7 -21.05 -47.0 -21.15 -47.25 -21.05 -47.05 -21.05 -47.0 -21.0 -47.0 -20.25 -46.75 -1.3 -60.45 -5.9 -54.9 Q-22.25 -34.85 -22.25 -29.85 -22.25 -28.6 -21.95 -29.0 L-20.75 -28.75 Q-17.65 -28.75 -10.45 -38.7 L-8.7 -41.25 M35.45 -56.9 L35.55 -56.95 35.5 -56.9 35.45 -56.9 M44.15 -37.45 L44.5 -37.5 44.2 -37.35 44.15 -37.45 M50.75 7.8 L51.05 8.0 50.75 8.0 50.75 7.8 M35.45 45.45 L35.55 45.5 35.45 45.5 35.45 45.45" fill="#333a42" fill-rule="evenodd" stroke="none"/>
    <path d="M8.35 -67.2 L6.0 -63.65 0.35 -55.05 0.3 -55.0 -4.85 -49.65 Q-10.25 -43.85 -10.25 -42.5 L-10.2 -41.7 -9.95 -41.5 -8.75 -41.25 -8.7 -41.25 -10.45 -38.7 Q-17.65 -28.75 -20.75 -28.75 L-21.95 -29.0 Q-22.25 -28.6 -22.25 -29.85 -22.25 -34.85 -5.9 -54.9 L-1.3 -60.45 8.35 -67.2 M26.85 -54.05 L27.25 -54.15 30.65 -55.35 30.7 -55.2 30.75 -54.5 34.15 -56.5 34.75 -56.7 35.45 -56.9 35.5 -56.9 Q31.95 -54.0 15.25 -43.0 0.25 -33.15 0.25 -32.5 0.25 -31.75 0.4 -31.5 L0.55 -31.25 0.6 -31.15 -5.0 -27.25 -6.5 -27.5 -7.95 -27.75 -8.1 -27.9 -8.25 -28.85 Q-8.25 -29.55 -5.9 -32.6 L-3.25 -35.75 7.05 -41.95 20.4 -50.15 26.85 -54.05 M36.05 -36.95 L44.15 -37.45 44.2 -37.35 27.0 -29.25 21.95 -26.95 18.75 -25.75 12.8 -24.2 Q11.3 -23.7 11.25 -22.1 0.5 -18.25 -0.25 -18.25 -0.9 -18.25 -1.95 -18.75 L-3.95 -19.5 Q-4.25 -19.1 -4.25 -20.35 -4.25 -21.2 0.65 -23.8 L9.25 -28.2 Q13.65 -30.5 18.25 -32.05 L26.05 -34.25 36.05 -36.95 M50.65 -22.65 L56.75 -22.5 Q55.0 -21.4 46.35 -18.2 L37.05 -14.75 Q34.7 -13.65 26.1 -10.65 21.0 -8.9 19.1 -7.65 9.6 -4.25 8.0 -4.25 7.15 -4.25 7.0 -4.8 L6.5 -5.95 Q5.45 -5.4 4.85 -5.2 L3.0 -4.75 2.05 -5.0 Q1.75 -4.6 1.75 -5.85 1.75 -7.4 20.75 -14.7 22.3 -15.3 25.75 -17.25 28.85 -18.95 31.8 -19.95 35.0 -21.05 36.9 -20.85 L38.5 -20.45 Q43.2 -20.45 48.55 -22.05 L50.65 -22.65 M34.9 0.3 L35.25 0.45 48.95 6.75 49.55 7.1 50.75 7.8 50.75 8.0 42.05 8.05 37.75 7.4 27.0 6.75 20.05 7.0 Q19.75 7.05 19.75 7.6 L19.25 7.5 19.25 7.9 0.05 7.5 -0.15 6.15 -0.25 4.8 -2.95 4.75 -3.1 4.6 -3.25 3.65 Q-3.25 2.35 10.55 1.3 L34.35 0.3 34.9 0.3 M44.2 18.85 L45.8 19.35 Q53.25 21.6 53.55 22.0 L40.55 22.0 26.15 21.5 22.8 21.5 22.8 21.7 14.25 21.25 11.35 20.9 3.75 20.25 3.0 20.0 Q2.8 19.7 2.8 18.8 2.8 18.05 1.45 18.3 L-0.45 18.5 Q-0.75 18.9 -0.75 17.65 L-0.75 17.1 1.6 16.8 Q5.95 16.65 28.0 17.0 L35.5 17.8 38.05 18.35 40.75 18.8 44.2 18.85 M40.5 30.9 L51.55 35.5 49.0 35.5 Q32.9 32.75 25.75 32.75 L25.65 32.75 25.2 32.5 20.0 32.75 18.5 32.55 10.8 31.55 Q3.8 30.55 3.8 29.3 3.8 28.6 3.15 28.65 L2.25 28.55 Q3.95 25.15 12.85 26.0 L29.8 27.8 Q31.8 28.3 36.8 30.3 L40.5 30.9 M30.45 42.3 L31.3 42.85 35.45 45.45 35.45 45.5 27.6 45.55 20.05 44.0 15.8 42.95 8.25 42.25 6.3 42.25 6.25 42.25 1.25 40.8 Q0.1 40.35 -4.05 39.7 -6.3 39.35 -7.25 37.3 L-5.15 36.75 Q-3.25 36.3 -3.25 36.05 L-2.95 35.55 Q-2.6 35.3 -2.25 35.25 -0.4 35.3 2.05 36.05 L5.0 37.0 17.75 39.25 22.65 40.2 28.25 41.55 30.45 42.3 M10.75 51.9 L10.8 51.9 11.05 52.2 11.1 52.25 11.55 52.7 13.95 55.1 14.8 55.95 16.2 57.3 16.35 57.45 16.55 57.6 16.7 57.75 18.3 59.25 6.5 55.0 Q3.6 53.5 0.95 52.25 -3.75 50.0 -6.0 49.8 L-6.4 49.6 Q-16.75 44.4 -16.75 42.25 L-16.7 41.75 Q-15.65 41.35 -10.3 43.4 -4.7 45.55 -0.7 48.0 L10.0 51.6 10.75 51.9 M1.45 66.7 L0.15 65.7 -1.2 64.8 -1.25 64.75 -10.95 59.5 Q-12.7 58.4 -18.45 53.15 -23.3 48.75 -24.5 48.75 L-24.7 48.75 -24.85 48.75 Q-27.65 45.65 -29.25 42.5 -29.1 42.3 -29.1 41.95 L-28.25 41.75 Q-27.55 41.75 -27.1 42.25 L-26.5 42.75 Q-26.8 42.1 -26.7 41.0 -23.85 41.75 -19.4 46.25 -14.1 51.55 -10.0 53.75 -6.75 56.85 -3.45 60.7 L1.45 66.7 M-39.9 -53.25 L-36.15 -56.15 -35.75 -55.25 -36.15 -54.65 -38.65 -50.6 Q-42.25 -44.55 -42.25 -42.75 L-42.1 -41.55 -41.65 -41.05 -41.6 -40.9 -41.45 -40.75 -40.8 -40.75 -41.0 -40.0 Q-43.0 -27.0 -45.45 -27.0 -45.75 -27.0 -46.3 -25.1 -46.9 -22.95 -47.75 -22.25 L-48.6 -22.35 -48.75 -23.25 -47.4 -31.15 -45.45 -41.7 Q-45.15 -43.55 -43.8 -46.2 L-41.45 -50.7 -40.0 -53.15 -39.9 -53.25 M-21.9 -59.05 L-21.2 -59.7 -14.9 -65.8 -13.2 -67.45 Q-15.05 -64.7 -18.95 -56.9 -22.75 -49.3 -22.75 -48.5 L-22.7 -47.7 -22.45 -47.5 -21.25 -47.25 -21.15 -47.25 -21.05 -47.0 -24.95 -40.7 -28.25 -34.25 Q-29.05 -32.55 -29.35 -30.7 -29.7 -29.75 -31.75 -29.75 -32.5 -29.75 -32.5 -29.15 L-32.7 -28.0 -33.25 -27.75 -34.1 -27.85 -34.25 -28.75 Q-34.25 -31.95 -30.9 -39.6 L-26.2 -49.45 -23.9 -54.7 -21.9 -59.05 M22.25 5.5 L27.25 5.5 24.75 5.45 22.25 5.5" fill="#202428" fill-rule="evenodd" stroke="none"/>
  </g>
</svg>
