<?xml version="1.0" encoding="UTF-8" standalone="no"?>
<svg xmlns:ffdec="https://www.free-decompiler.com/flash" xmlns:xlink="http://www.w3.org/1999/xlink" ffdec:objectType="shape" height="126.1px" width="165.45px" xmlns="http://www.w3.org/2000/svg">
  <g transform="matrix(1.0, 0.0, 0.0, 1.0, 78.4, 63.3)">
    <path d="M37.9 -57.65 L37.9 -57.85 37.8 -57.65 37.7 -57.45 36.25 -54.9 34.35 -51.5 30.85 -45.45 27.8 -39.1 27.25 -37.85 28.4 -37.85 33.2 -38.2 33.25 -38.25 34.0 -38.25 34.2 -38.25 34.85 -38.25 35.6 -38.1 35.95 -37.95 36.0 -37.95 36.1 -37.9 36.3 -37.8 Q38.15 -37.05 40.8 -35.0 40.5 -39.65 39.5 -45.95 L38.7 -51.3 37.9 -57.65 M34.25 -56.2 Q36.45 -60.45 38.75 -63.3 L41.25 -48.85 41.5 -45.4 41.5 -41.85 Q43.35 -34.85 43.15 -34.1 L42.85 -33.35 46.25 -30.05 49.45 -26.4 53.1 -19.0 Q55.0 -14.8 55.65 -12.1 L55.75 -11.1 Q78.85 -4.75 84.0 -2.95 86.65 -2.0 87.0 -1.55 87.15 -1.3 86.75 -0.8 85.85 2.75 64.9 5.15 L55.9 6.1 Q55.55 10.25 54.8 13.1 54.35 14.85 52.35 18.8 49.55 24.4 45.8 28.8 L46.3 30.5 49.55 42.05 53.1 53.05 Q55.45 61.1 55.25 61.95 55.05 62.75 54.7 62.8 L54.0 62.8 47.55 55.8 39.5 46.95 31.5 38.8 Q25.75 40.45 19.35 39.0 L17.9 39.85 14.35 41.4 Q13.55 41.7 12.15 43.4 L10.2 45.4 Q9.0 46.25 5.25 50.15 2.55 52.7 0.95 53.1 L0.75 53.3 0.45 53.2 0.05 53.1 -0.95 52.45 -1.0 51.85 -0.3 51.35 5.3 25.6 Q3.1 20.6 2.15 15.35 1.6 13.35 2.4 5.2 3.1 -2.5 3.95 -6.0 4.95 -9.75 6.7 -12.8 8.85 -16.75 10.7 -21.85 12.35 -26.55 19.0 -31.3 L23.05 -33.95 26.65 -41.6 30.45 -48.95 34.25 -56.2 M52.45 -15.15 Q50.6 -20.45 47.75 -24.9 40.5 -36.65 30.5 -35.75 31.5 -33.25 29.4 -32.7 29.15 -32.85 28.95 -33.4 28.8 -33.9 28.15 -34.05 26.1 -34.6 20.25 -29.45 L17.95 -27.35 Q14.2 -23.85 13.1 -21.5 L9.45 -14.3 8.8 -12.95 Q6.85 -9.1 5.85 -5.2 L5.25 -2.5 Q4.7 0.8 4.3 5.35 3.75 11.85 4.1 14.75 4.55 19.4 6.05 23.35 L6.8 23.45 Q7.8 24.75 7.65 27.0 11.55 34.45 18.9 36.55 20.15 36.05 20.25 36.9 25.15 37.9 29.75 36.95 27.05 34.05 25.85 32.35 L25.7 32.35 24.7 32.1 Q23.75 31.35 23.85 29.85 L24.2 28.0 Q24.75 25.9 26.3 24.75 27.45 23.8 31.4 21.95 34.75 20.95 38.15 20.85 43.9 20.65 43.8 23.9 L42.95 23.65 Q43.9 24.3 44.95 26.6 47.95 22.9 50.3 18.35 52.35 14.6 52.85 12.7 53.2 11.35 53.55 7.25 L53.55 6.25 Q46.85 6.7 42.95 6.5 L43.05 6.7 42.55 6.9 41.9 7.1 41.4 6.65 40.95 6.25 39.85 6.05 Q39.1 5.85 38.7 5.35 38.35 5.0 38.45 4.65 38.5 4.3 38.75 4.1 37.2 2.35 36.85 0.95 36.55 -0.3 37.5 -3.95 L38.4 -7.2 38.65 -7.6 Q39.4 -9.05 40.7 -10.45 L43.0 -13.85 Q44.05 -14.9 45.05 -14.25 49.15 -13.2 49.1 -12.95 L53.6 -11.7 52.45 -15.15 M39.1 -2.0 L39.0 -1.6 Q38.85 -0.1 39.4 0.9 39.8 1.95 41.45 3.95 L41.55 4.05 Q47.6 4.15 53.5 3.9 L56.1 3.7 56.1 3.75 61.35 3.3 72.3 1.9 81.1 -0.2 82.2 -0.6 82.8 -0.85 83.05 -0.9 83.5 -1.1 82.9 -1.25 75.45 -3.2 56.2 -8.5 56.1 -8.5 56.15 -8.15 54.45 -8.5 54.3 -8.45 54.3 -8.9 54.3 -9.05 50.4 -10.3 45.1 -12.15 42.0 -8.5 41.0 -7.0 40.55 -6.3 Q39.85 -5.1 39.55 -3.9 L39.1 -2.0 M49.25 47.65 L45.25 35.1 44.85 34.0 44.95 33.55 Q44.35 30.0 42.75 29.1 L43.05 28.75 41.65 24.2 41.9 23.5 Q38.9 23.05 35.55 23.6 L33.1 24.1 33.0 24.15 32.75 24.2 29.55 25.35 Q26.6 26.7 26.15 28.45 26.0 28.9 26.15 29.45 L26.4 29.5 Q28.2 32.15 32.0 36.35 L32.15 36.3 33.35 37.5 34.0 37.95 33.6 38.1 37.95 42.7 48.15 52.95 48.2 52.95 48.95 53.7 49.0 53.75 49.6 54.25 51.3 56.0 51.55 56.25 51.5 55.95 49.45 48.3 49.4 48.05 49.3 47.7 49.25 47.65 M13.95 36.75 Q12.05 35.55 10.4 33.8 8.7 31.9 7.25 29.45 L7.2 29.4 7.2 29.45 4.95 36.65 Q4.1 40.85 2.8 48.4 L2.75 48.8 3.1 48.5 9.5 43.35 9.8 43.1 13.4 40.15 16.3 38.0 13.95 36.75" fill="#000000" fill-rule="evenodd" stroke="none"/>
    <path d="M37.9 -57.65 L38.7 -51.3 38.55 -50.6 Q37.2 -41.2 36.85 -40.0 L36.3 -37.8 36.1 -37.9 36.0 -37.95 35.95 -37.95 35.6 -38.1 34.85 -38.25 34.2 -38.25 34.0 -38.25 33.25 -38.25 33.2 -38.2 Q33.55 -41.6 34.45 -46.35 L35.65 -53.8 35.75 -53.9 36.25 -54.9 37.7 -57.45 37.8 -57.65 37.9 -57.65 M41.4 6.65 L41.9 7.1 42.55 6.9 43.2 6.95 Q47.05 7.55 53.25 7.2 L53.55 7.25 Q53.2 11.35 52.85 12.7 52.35 14.6 50.3 18.35 47.95 22.9 44.95 26.6 43.9 24.3 42.95 23.65 L43.8 23.9 Q43.9 20.65 38.15 20.85 34.75 20.95 31.4 21.95 27.45 23.8 26.3 24.75 24.75 25.9 24.2 28.0 L23.85 29.85 Q23.75 31.35 24.7 32.1 L25.7 32.35 25.85 32.35 Q27.05 34.05 29.75 36.95 25.15 37.9 20.25 36.9 20.15 36.05 18.9 36.55 11.55 34.45 7.65 27.0 7.8 24.75 6.8 23.45 L6.05 23.35 Q4.55 19.4 4.1 14.75 3.75 11.85 4.3 5.35 4.7 0.8 5.25 -2.5 L25.9 3.0 41.4 6.65 M39.1 -2.0 L39.55 -3.9 Q39.85 -5.1 40.55 -6.3 L46.25 -5.95 58.6 -4.65 63.85 -3.15 73.9 -2.9 75.45 -3.2 82.9 -1.25 83.05 -0.9 82.8 -0.85 82.2 -0.6 81.1 -0.2 72.3 1.9 71.6 2.0 64.35 0.8 58.2 -0.1 51.95 -0.05 Q45.7 -0.2 41.7 -1.2 L39.1 -2.0 M49.25 47.65 L49.3 47.7 49.4 48.05 49.45 48.3 51.5 55.95 51.3 56.0 49.6 54.25 49.0 53.75 48.95 53.7 48.35 52.9 Q44.25 47.7 41.75 43.15 40.6 41.0 33.9 31.7 L29.55 25.35 32.75 24.2 33.0 24.15 33.1 24.1 35.55 23.6 35.75 23.85 38.1 29.15 40.95 34.55 43.75 39.5 49.25 47.65 M10.4 33.8 Q12.05 35.55 13.95 36.75 L9.8 43.1 9.5 43.35 3.1 48.5 3.7 47.3 6.5 41.95 8.8 37.1 Q9.45 34.95 9.85 34.25 L10.4 33.8" fill="#593924" fill-rule="evenodd" stroke="none"/>
    <path d="M38.65 -7.6 L38.4 -7.2 37.5 -3.95 Q36.55 -0.3 36.85 0.95 37.2 2.35 38.75 4.1 38.5 4.3 38.45 4.65 38.35 5.0 38.7 5.35 39.1 5.85 39.85 6.05 L40.95 6.25 41.4 6.65 25.9 3.0 5.25 -2.5 5.85 -5.2 Q6.85 -9.1 8.8 -12.95 L9.45 -14.3 24.1 -11.1 38.65 -7.6 M42.55 6.9 L43.05 6.7 42.95 6.5 Q46.85 6.7 53.55 6.25 L53.55 7.25 53.25 7.2 Q47.05 7.55 43.2 6.95 L42.55 6.9 M82.9 -1.25 L83.5 -1.1 83.05 -0.9 82.9 -1.25 M51.5 55.95 L51.55 56.25 51.3 56.0 51.5 55.95" fill="#352215" fill-rule="evenodd" stroke="none"/>
    <path d="M38.7 -51.3 L39.5 -45.95 Q40.5 -39.65 40.8 -35.0 38.15 -37.05 36.3 -37.8 L36.85 -40.0 Q37.2 -41.2 38.55 -50.6 L38.7 -51.3 M52.45 -15.15 L53.6 -11.7 49.1 -12.95 Q49.15 -13.2 45.05 -14.25 44.05 -14.9 43.0 -13.85 L40.7 -10.45 Q39.4 -9.05 38.65 -7.6 L24.1 -11.1 9.45 -14.3 13.1 -21.5 Q14.2 -23.85 17.95 -27.35 L28.5 -24.0 39.8 -19.5 Q45.85 -17.15 52.45 -15.15 M72.3 1.9 L61.35 3.3 56.1 3.75 56.1 3.7 53.5 3.9 Q47.6 4.15 41.55 4.05 L41.45 3.95 Q39.8 1.95 39.4 0.9 38.85 -0.1 39.0 -1.6 L39.1 -2.0 41.7 -1.2 Q45.7 -0.2 51.95 -0.05 L58.2 -0.1 64.35 0.8 71.6 2.0 72.3 1.9 M56.15 -8.15 L56.1 -8.5 56.2 -8.5 56.15 -8.15 M35.55 23.6 Q38.9 23.05 41.9 23.5 L41.65 24.2 43.05 28.75 42.75 29.1 Q44.35 30.0 44.95 33.55 L44.85 34.0 45.25 35.1 49.25 47.65 43.75 39.5 40.95 34.55 38.1 29.15 35.75 23.85 35.55 23.6 M48.95 53.7 L48.2 52.95 48.35 52.9 48.95 53.7 M13.95 36.75 L16.3 38.0 13.4 40.15 9.8 43.1 13.95 36.75 M3.1 48.5 L2.75 48.8 2.8 48.4 3.1 48.5" fill="#915e3c" fill-rule="evenodd" stroke="none"/>
    <path d="M33.2 -38.2 L28.4 -37.85 27.25 -37.85 27.8 -39.1 30.85 -45.45 34.35 -51.5 36.25 -54.9 35.75 -53.9 35.65 -53.8 34.45 -46.35 Q33.55 -41.6 33.2 -38.2 M17.95 -27.35 L20.25 -29.45 Q26.1 -34.6 28.15 -34.05 28.8 -33.9 28.95 -33.4 29.15 -32.85 29.4 -32.7 31.5 -33.25 30.5 -35.75 40.5 -36.65 47.75 -24.9 50.6 -20.45 52.45 -15.15 45.85 -17.15 39.8 -19.5 L28.5 -24.0 17.95 -27.35 M40.55 -6.3 L41.0 -7.0 42.0 -8.5 45.1 -12.15 50.4 -10.3 54.3 -9.05 54.3 -8.9 54.3 -8.45 54.45 -8.5 56.15 -8.15 56.2 -8.5 75.45 -3.2 73.9 -2.9 63.85 -3.15 58.6 -4.65 46.25 -5.95 40.55 -6.3 M48.2 52.95 L48.15 52.95 37.95 42.7 33.6 38.1 34.0 37.95 33.35 37.5 32.15 36.3 32.0 36.35 Q28.2 32.15 26.4 29.5 L26.15 29.45 Q26.0 28.9 26.15 28.45 26.6 26.7 29.55 25.35 L33.9 31.7 Q40.6 41.0 41.75 43.15 44.25 47.7 48.35 52.9 L48.2 52.95 M2.8 48.4 Q4.1 40.85 4.95 36.65 L7.2 29.45 7.25 29.45 Q8.7 31.9 10.4 33.8 L9.85 34.25 Q9.45 34.95 8.8 37.1 L6.5 41.95 3.7 47.3 3.1 48.5 2.8 48.4" fill="#b98c6f" fill-rule="evenodd" stroke="none"/>
    <path d="M33.55 -54.0 L33.8 -53.85 34.0 -53.0 31.35 -49.0 Q28.65 -45.25 27.75 -44.45 25.95 -42.9 24.85 -40.3 24.2 -38.95 23.3 -35.75 L37.3 -43.85 Q44.85 -48.0 48.75 -48.0 L50.8 -47.75 50.9 -47.5 51.0 -46.5 Q51.0 -45.7 49.0 -44.15 L45.3 -41.0 43.0 -38.15 40.75 -35.45 34.55 -30.05 Q31.45 -27.35 29.3 -24.7 L29.05 -24.25 Q36.2 -27.8 46.3 -31.3 L60.0 -36.0 64.05 -36.0 64.3 -35.85 64.5 -35.0 Q64.5 -33.45 55.05 -26.1 42.95 -16.65 39.25 -12.95 L39.0 -12.7 Q39.9 -12.7 43.3 -13.85 L63.25 -15.0 74.3 -14.5 Q74.95 -14.35 74.8 -14.15 L74.5 -13.9 Q74.5 -12.3 60.3 -5.6 48.8 -0.2 42.75 2.05 L42.75 2.3 56.25 4.75 Q57.8 5.2 59.35 5.9 L62.0 7.0 68.65 9.1 Q74.5 11.0 75.5 11.8 73.65 13.45 66.55 14.55 L59.0 15.5 49.75 17.2 41.5 19.0 40.05 19.25 Q46.6 21.75 53.6 26.35 L64.5 34.0 64.05 34.95 60.75 35.0 34.5 34.0 32.05 33.25 36.35 39.35 Q39.0 43.4 39.0 45.55 L38.8 48.55 38.85 48.8 38.0 49.0 35.15 46.55 Q32.35 43.8 31.0 43.0 27.45 40.95 25.85 40.25 22.85 39.0 18.55 38.25 19.25 39.25 19.45 40.5 L19.5 42.65 19.55 45.3 Q19.35 47.0 18.25 47.0 4.75 40.15 2.55 38.55 L2.0 44.8 1.0 45.5 0.15 45.0 0.0 45.0 -2.95 43.4 Q-5.75 41.7 -6.25 41.55 -7.85 40.45 -9.25 39.85 -11.7 38.75 -18.1 38.75 -25.35 38.75 -29.5 40.75 -30.9 41.4 -32.5 43.0 -34.75 45.0 -35.35 47.3 -35.65 48.5 -37.75 48.5 -41.35 48.5 -44.6 47.55 L-46.9 46.75 -45.5 52.05 -45.5 53.0 -45.7 53.55 Q-45.75 54.0 -47.0 54.0 -48.1 54.0 -51.65 50.55 L-55.25 46.8 -57.55 42.9 -58.95 40.4 -58.7 44.25 -57.4 47.95 Q-56.5 50.5 -56.5 51.65 L-56.55 52.4 -56.75 52.5 -56.75 52.85 -57.5 53.0 Q-58.25 53.0 -61.5 49.25 L-62.75 47.8 Q-64.95 51.5 -69.75 51.5 -74.95 51.5 -76.4 44.75 -76.9 42.55 -76.9 37.0 -76.9 34.35 -76.4 32.3 -76.05 30.85 -75.5 29.95 L-75.85 29.65 Q-76.7 29.15 -77.05 28.35 L-77.3 28.1 Q-77.85 27.4 -77.9 26.0 L-78.05 26.0 -78.3 25.7 -78.4 25.0 Q-78.4 24.25 -78.2 24.15 L-78.05 24.0 -70.85 23.35 Q-67.45 21.6 -60.85 18.95 -53.95 16.15 -46.45 13.3 L-41.1 10.45 -35.5 7.55 Q-33.75 6.75 -31.2 3.8 L-29.25 1.65 -29.95 0.0 -30.0 -2.7 Q-30.0 -6.55 -28.5 -8.2 -27.45 -9.4 -20.45 -14.2 L-19.15 -15.0 Q-20.35 -16.5 -23.1 -22.1 L-30.5 -37.25 -29.5 -37.4 -29.5 -37.75 Q-27.3 -38.15 -20.85 -36.35 -13.6 -34.3 -9.4 -33.5 -10.0 -38.15 -10.0 -41.45 L-9.95 -42.5 -10.2 -42.5 -10.35 -42.75 -10.5 -43.75 -10.45 -44.55 -10.25 -44.95 -9.15 -44.9 -9.0 -45.0 -8.9 -44.9 Q-6.0 -44.65 -2.7 -43.0 L4.0 -39.5 8.85 -37.75 8.55 -37.95 8.5 -38.0 Q12.55 -42.65 14.8 -44.25 L23.55 -50.1 Q28.8 -53.05 33.55 -54.0 M29.1 -50.35 L28.85 -50.25 28.7 -50.15 23.9 -47.8 23.45 -47.6 23.4 -47.55 21.9 -46.8 Q18.1 -44.7 15.25 -41.95 L10.6 -36.9 11.6 -36.4 15.6 -34.15 18.0 -32.7 17.75 -31.95 Q17.55 -31.5 16.75 -31.5 L16.05 -31.6 Q14.25 -32.0 9.65 -34.2 L3.0 -37.5 -2.4 -40.6 Q-4.65 -41.75 -7.1 -42.2 L-4.8 -38.55 -0.5 -31.7 Q4.15 -24.65 6.0 -18.2 L5.9 -17.85 Q5.75 -17.5 5.0 -17.5 4.6 -17.5 2.65 -19.85 0.7 -22.25 -3.1 -22.25 -4.75 -22.25 -5.05 -21.6 -5.5 -20.7 -6.0 -20.5 L-6.05 -20.5 -8.6 -18.65 -8.5 -18.45 -9.5 -17.5 -9.9 -17.8 -11.85 -16.65 -19.2 -12.5 -25.95 -7.65 Q-28.0 -5.65 -28.0 -2.65 -28.0 -1.95 -27.25 -0.45 L-26.5 1.1 Q-26.5 2.25 -26.7 2.1 -26.4 2.45 -27.1 2.5 -28.0 5.75 -35.35 10.15 -40.4 13.15 -46.25 15.55 L-60.85 21.15 -62.05 21.65 -62.35 21.75 -62.0 21.75 -60.85 21.65 Q-59.6 21.55 -56.95 21.6 L-50.0 22.0 -49.05 22.75 -48.55 23.45 -48.15 21.9 Q-46.75 17.6 -43.7 17.75 -43.95 21.15 -41.3 25.15 L-40.15 26.75 -39.5 26.65 -39.4 26.65 -39.5 26.55 -34.0 23.05 -27.05 20.05 -22.3 18.2 -22.25 18.05 -22.0 18.05 -18.45 16.8 Q-12.2 14.7 -6.85 17.85 -2.5 20.45 -2.5 22.5 -2.5 24.05 -7.15 27.8 -11.4 31.2 -12.5 31.5 -15.7 32.4 -19.55 32.35 -22.55 32.35 -25.05 33.35 L-25.5 33.5 -31.45 35.25 Q-41.9 38.5 -43.25 38.5 L-44.05 38.3 Q-44.95 38.85 -45.25 39.45 L-45.8 39.85 -47.0 40.0 -48.4 39.8 -48.2 41.2 -47.6 44.0 -47.25 44.0 Q-46.1 44.0 -42.7 45.15 -39.35 46.25 -37.5 46.25 -31.9 35.2 -17.1 36.3 -11.35 36.75 -6.05 38.95 L-5.8 39.05 -1.3 41.45 -0.55 42.0 -0.5 42.0 0.0 42.45 0.0 41.85 0.0 39.35 0.0 35.8 0.15 35.65 0.45 35.55 0.65 35.5 1.0 35.5 3.85 37.0 5.3 37.75 5.75 38.0 5.85 38.1 6.3 38.3 7.75 39.1 7.95 39.2 Q15.3 43.1 17.3 43.8 17.5 43.55 17.5 42.05 L17.5 42.0 17.5 41.8 17.5 41.7 17.5 41.65 17.25 40.2 17.15 39.9 16.9 39.4 16.0 38.35 Q14.4 36.95 14.05 34.45 L14.0 34.25 14.05 34.15 15.0 34.0 20.1 36.05 25.55 38.35 25.6 38.35 27.35 39.15 27.45 39.2 27.55 39.25 Q30.3 40.6 32.9 42.4 L36.8 45.3 37.0 45.25 Q35.35 40.8 32.2 37.05 L31.9 36.7 Q29.8 34.2 27.05 32.0 L27.0 30.8 27.25 30.75 27.65 30.65 29.0 30.5 33.7 31.55 34.55 31.75 35.5 31.85 36.2 31.9 46.7 32.25 58.8 32.75 56.45 30.6 55.65 29.9 55.6 29.9 Q49.7 25.05 42.55 22.3 L37.4 20.4 Q35.5 19.6 35.5 18.75 L35.5 18.7 Q35.75 17.5 48.15 15.35 63.4 12.7 67.3 11.3 L61.6 8.95 61.55 8.95 61.45 8.9 56.5 7.0 45.3 4.85 Q40.05 3.9 38.85 2.8 38.5 2.5 38.5 2.15 38.5 1.4 50.2 -3.6 64.1 -9.5 69.5 -12.95 L62.5 -12.9 62.45 -12.9 Q47.25 -12.65 42.85 -11.45 L40.45 -10.45 37.25 -10.0 35.1 -10.25 35.0 -10.25 Q34.9 -12.35 38.65 -15.7 L45.75 -21.7 Q47.8 -23.6 53.0 -27.55 L57.05 -30.65 57.5 -31.0 58.4 -31.7 60.75 -33.7 61.0 -33.95 60.7 -33.85 60.4 -33.75 52.65 -31.15 51.7 -30.8 51.65 -30.8 50.65 -30.45 41.55 -27.25 34.25 -23.9 33.9 -23.7 27.75 -21.0 26.8 -21.25 26.55 -21.8 26.5 -23.0 Q26.5 -25.35 29.45 -28.35 L35.75 -34.0 Q37.55 -35.65 41.05 -39.6 44.0 -42.95 46.3 -44.75 L46.5 -44.95 46.3 -44.9 Q44.7 -44.8 41.85 -43.5 39.5 -42.45 36.4 -40.7 L36.35 -40.7 35.65 -40.3 34.95 -39.85 32.85 -38.65 Q24.1 -33.35 22.4 -32.6 L22.0 -32.5 20.8 -32.75 20.55 -33.25 20.5 -34.35 Q20.5 -36.85 24.15 -42.55 L29.2 -50.25 29.3 -50.45 29.1 -50.35 M7.5 -2.9 L7.3 -1.95 7.35 -1.7 6.5 -1.5 Q6.0 -1.5 5.05 -3.45 4.1 -5.45 3.25 -5.45 0.4 -5.45 -2.8 -4.05 L-3.15 -3.9 -2.75 -3.85 Q1.0 -3.1 1.0 -0.5 1.0 1.2 -0.75 3.05 -3.05 5.5 -6.75 5.5 L-11.55 5.2 -16.5 4.75 -16.75 4.35 -16.9 4.0 -19.5 4.5 Q-22.9 4.5 -23.95 3.4 L-24.2 3.1 -24.4 1.95 -24.45 1.65 -24.5 1.35 -24.5 1.25 Q-24.1 0.55 -23.5 0.5 -22.85 0.95 -22.35 1.7 -21.7 2.25 -19.6 2.25 L-18.05 2.05 Q-15.85 1.5 -12.95 -0.55 -10.7 -2.15 -6.1 -5.65 -2.1 -8.35 0.8 -8.1 3.25 -7.9 5.45 -5.65 L6.3 -4.65 7.1 -3.55 7.5 -2.9 M-7.45 -37.95 L-7.5 -38.0 -7.5 -37.95 Q-7.5 -35.6 -6.95 -31.55 L-6.0 -24.45 -3.05 -24.3 1.0 -23.75 Q-0.05 -26.85 -2.8 -31.4 -5.4 -35.65 -7.45 -37.95 M-24.1 -34.6 L-17.45 -28.75 -12.45 -23.85 Q-11.0 -22.3 -9.9 -20.75 -9.4 -21.1 -8.85 -21.55 L-7.35 -22.45 Q-8.15 -24.75 -8.9 -29.6 L-9.15 -31.5 -9.25 -31.5 -20.0 -34.0 -24.1 -34.65 -24.15 -34.65 -24.1 -34.6 M-17.0 -16.2 L-13.0 -18.45 -11.6 -19.45 -17.15 -25.2 Q-22.45 -30.8 -25.7 -32.95 L-20.7 -22.75 -17.5 -15.9 -17.0 -16.2 M-9.1 -0.45 Q-11.4 1.2 -13.35 2.3 L-12.05 2.45 -7.45 3.25 Q-2.3 3.85 -1.0 -0.7 -0.8 -1.0 -1.25 -1.25 -2.1 -1.75 -6.2 -2.0 L-6.35 -2.15 -6.4 -2.25 -9.1 -0.45 M-14.1 18.75 L-19.2 19.45 -17.4 21.45 Q-14.95 24.65 -14.45 27.05 -12.8 25.65 -11.95 23.05 L-11.05 19.0 -14.1 18.75 M-7.0 20.55 Q-7.9 19.95 -9.0 19.55 L-9.0 20.25 Q-9.0 22.3 -10.45 25.75 L-11.7 28.15 Q-10.4 27.6 -9.45 26.8 L-5.0 22.55 Q-5.8 21.3 -7.0 20.55 M-30.5 23.8 L-30.75 23.95 -30.65 24.0 -28.95 25.1 Q-26.05 26.95 -25.0 28.55 -23.7 28.1 -22.55 25.85 -21.5 23.75 -21.5 22.1 -21.5 21.5 -22.0 20.7 L-22.2 20.3 -24.5 21.1 Q-28.25 22.55 -30.5 23.8 M-23.0 30.55 L-16.25 29.4 -15.65 29.3 Q-16.4 28.5 -17.15 26.85 -18.85 22.95 -19.5 22.3 -19.5 24.5 -21.6 28.3 L-23.0 30.55 M-27.25 29.85 Q-29.85 27.55 -31.0 27.0 L-31.1 31.1 Q-31.25 32.2 -31.65 32.85 L-25.6 31.25 -27.25 29.85 M-38.35 28.15 L-38.75 28.4 Q-36.85 30.35 -34.35 32.0 L-34.3 31.9 Q-33.55 31.15 -33.5 30.75 L-33.45 28.5 -33.0 25.2 -38.25 28.3 -38.35 28.1 -38.35 28.15 M-35.15 33.8 L-34.9 33.75 -34.95 33.5 -35.25 33.5 Q-37.75 33.5 -41.5 28.4 -44.5 24.3 -45.5 21.5 -46.6 22.1 -46.9 24.6 L-47.0 28.35 Q-47.0 31.8 -46.65 32.5 L-43.4 36.5 Q-41.45 35.5 -35.9 34.0 L-35.15 33.8 M-64.1 30.85 L-64.45 28.6 -65.6 29.35 -67.05 30.6 Q-67.85 30.8 -68.55 31.25 -67.95 32.25 -67.85 34.0 -67.7 35.7 -68.0 37.4 L-68.0 43.25 -68.45 43.35 -69.0 44.5 -69.8 44.05 -69.85 43.4 Q-70.9 42.85 -71.5 38.8 -72.0 35.65 -72.0 33.25 L-71.95 32.4 -73.0 31.05 -74.8 33.85 Q-75.0 34.25 -75.0 37.15 L-74.5 43.25 Q-73.3 49.25 -69.9 49.25 -65.7 49.25 -64.0 44.3 -63.0 41.45 -63.0 37.9 L-63.75 32.9 -64.1 30.85 M-62.6 27.6 L-62.5 27.8 -62.5 27.55 -62.6 27.6 M-61.0 36.1 L-61.0 36.3 -61.0 36.45 -60.3 36.7 -60.0 36.5 -59.7 36.9 -58.5 37.3 -58.45 36.95 -58.25 36.55 Q-53.2 35.0 -48.55 32.45 L-49.0 28.1 Q-49.0 25.8 -48.65 23.9 L-54.55 27.45 -61.3 31.1 -61.15 32.15 -61.0 36.1 M-61.5 44.75 L-61.75 45.65 -60.45 47.05 Q-60.55 44.85 -61.0 43.8 L-61.0 41.9 -61.5 44.75 M-50.45 36.55 L-50.45 36.35 -50.95 36.6 Q-54.05 38.3 -57.5 39.0 L-54.6 44.15 Q-51.65 48.85 -48.2 50.75 -48.0 51.5 -48.0 50.25 -48.0 48.95 -49.25 44.7 -50.5 40.5 -50.5 38.25 L-50.45 36.55 M-48.5 36.0 L-48.5 38.25 -46.35 37.3 Q-47.4 36.5 -48.0 34.75 L-48.45 35.05 -48.5 36.0 M-60.5 27.5 L-60.5 27.75 -60.4 27.75 -60.5 27.5" fill="#000000" fill-rule="evenodd" stroke="none"/>
    <path d="M23.4 -47.55 L20.3 -43.3 Q15.5 -36.1 15.5 -34.9 L15.6 -34.15 11.6 -36.4 10.6 -36.9 15.25 -41.95 Q18.1 -44.7 21.9 -46.8 L23.4 -47.55 M16.05 -31.6 L16.3 -29.45 Q16.35 -28.45 15.2 -26.65 14.0 -24.8 14.0 -23.65 14.0 -23.2 15.0 -22.0 L18.05 -25.55 Q19.7 -27.75 20.05 -28.95 20.15 -29.4 22.2 -32.35 L22.4 -32.6 Q24.1 -33.35 32.85 -38.65 L34.95 -39.85 33.3 -38.25 29.55 -34.2 26.0 -30.25 22.5 -25.95 Q21.6 -24.75 21.4 -23.6 L21.0 -21.75 19.6 -19.25 Q19.0 -18.35 19.0 -17.35 19.0 -16.45 19.25 -16.05 19.45 -15.7 20.0 -15.5 20.75 -15.75 22.25 -17.05 L23.75 -18.25 Q26.85 -18.25 29.75 -20.15 L34.0 -23.5 34.25 -23.9 41.55 -27.25 50.65 -30.45 50.8 -30.25 Q44.25 -26.0 44.1 -26.0 43.5 -26.0 43.55 -26.5 43.65 -27.0 43.0 -27.0 41.9 -27.0 37.55 -22.45 L32.75 -17.2 Q32.25 -16.65 31.85 -15.55 31.45 -14.3 29.5 -11.95 L29.0 -10.65 28.3 -9.25 Q26.0 -7.25 26.0 -6.5 26.0 -6.0 27.5 -4.5 L32.3 -7.7 Q34.2 -9.15 35.1 -10.15 L35.1 -10.25 37.25 -10.0 40.45 -10.45 42.85 -11.45 Q47.25 -12.65 62.45 -12.9 54.55 -10.95 48.25 -8.75 45.75 -7.9 35.25 -1.6 25.0 4.55 25.0 4.9 25.0 5.65 25.15 5.85 L25.3 6.0 27.5 6.0 30.05 4.35 Q30.9 3.75 33.0 3.75 35.85 3.75 38.85 2.8 40.05 3.9 45.3 4.85 L56.5 7.0 61.45 8.9 Q49.45 9.2 35.85 11.15 17.5 13.8 17.5 15.4 17.5 16.15 17.65 16.35 L17.8 16.5 25.25 17.0 30.0 16.55 30.0 16.8 Q28.5 17.3 28.1 17.8 L28.0 18.4 Q28.0 19.65 28.3 19.25 L30.75 19.5 35.5 18.7 35.5 18.75 Q35.5 19.6 37.4 20.4 L42.55 22.3 Q49.7 25.05 55.6 29.9 L50.0 29.0 45.9 28.05 Q42.7 27.2 41.25 27.05 L36.0 26.6 29.5 26.5 26.5 25.8 23.5 25.0 Q21.2 23.9 19.6 23.65 L13.75 24.05 13.55 24.45 13.5 25.25 Q13.5 26.0 13.65 26.25 L13.8 26.5 Q16.35 25.95 17.0 26.9 18.0 28.45 19.0 28.8 21.9 29.75 24.5 30.3 L27.25 30.75 27.0 30.8 27.05 32.0 Q29.8 34.2 31.9 36.7 L31.75 36.8 Q29.15 35.5 28.5 35.5 26.5 35.5 23.95 34.55 L18.05 32.05 Q16.6 31.9 14.85 31.1 13.4 30.45 13.0 30.55 L10.45 30.9 8.0 31.25 8.0 32.3 Q9.7 33.65 11.75 34.0 L14.05 34.45 Q14.4 36.95 16.0 38.35 L16.9 39.4 16.9 39.45 15.3 38.75 9.5 36.55 4.25 33.05 Q0.25 30.5 -3.0 30.5 L-4.85 30.8 Q-6.35 31.2 -7.0 32.25 -5.35 33.45 -1.6 34.8 L0.15 35.45 0.0 35.8 0.0 39.35 Q-0.75 38.15 -2.6 36.95 -5.5 35.05 -10.5 33.5 L-22.8 33.45 -25.0 33.55 -25.05 33.35 Q-22.55 32.35 -19.55 32.35 -15.7 32.4 -12.5 31.5 -11.4 31.2 -7.15 27.8 -2.5 24.05 -2.5 22.5 -2.5 20.45 -6.85 17.85 -12.2 14.7 -18.45 16.8 L-22.0 18.05 -22.25 18.05 -22.3 18.2 -27.05 20.05 -34.0 23.05 -39.5 26.55 -39.5 26.65 -40.15 26.75 -41.3 25.15 Q-43.95 21.15 -43.7 17.75 -46.75 17.6 -48.15 21.9 L-48.55 23.45 -49.05 22.75 -50.0 22.0 -56.95 21.6 Q-59.6 21.55 -60.85 21.65 L-60.85 21.15 -46.25 15.55 Q-40.4 13.15 -35.35 10.15 -28.0 5.75 -27.1 2.5 -26.4 2.45 -26.7 2.1 -26.5 2.25 -26.5 1.1 L-27.25 -0.45 Q-28.0 -1.95 -28.0 -2.65 -28.0 -5.65 -25.95 -7.65 L-19.2 -12.5 -11.85 -16.65 -9.9 -17.8 -9.5 -17.5 -8.5 -18.45 -8.6 -18.65 -6.05 -20.5 -6.0 -20.5 Q-5.5 -20.7 -5.05 -21.6 -4.75 -22.25 -3.1 -22.25 0.7 -22.25 2.65 -19.85 4.6 -17.5 5.0 -17.5 5.75 -17.5 5.9 -17.85 L6.0 -18.2 Q4.15 -24.65 -0.5 -31.7 L-4.8 -38.55 -7.1 -42.2 Q-4.65 -41.75 -2.4 -40.6 L3.0 -37.5 9.65 -34.2 Q14.25 -32.0 16.05 -31.6 M46.3 -44.75 L46.3 -44.9 46.3 -44.75 M-23.95 3.4 L-23.95 4.0 Q-19.6 6.75 -16.1 8.05 -7.75 11.0 4.0 11.0 L9.5 10.85 Q10.0 10.7 10.0 9.6 L9.9 8.85 9.8 9.05 Q9.35 8.55 6.3 8.25 6.15 6.95 4.9 6.45 3.9 6.0 1.0 5.85 L1.0 5.55 Q8.5 -0.7 8.5 -1.5 8.5 -2.1 7.7 -2.95 L7.5 -2.9 7.1 -3.55 6.3 -4.65 5.45 -5.65 Q3.25 -7.9 0.8 -8.1 -2.1 -8.35 -6.1 -5.65 -10.7 -2.15 -12.95 -0.55 -15.85 1.5 -18.05 2.05 L-19.6 2.25 Q-21.7 2.25 -22.35 1.7 -22.85 0.95 -23.5 0.5 -24.1 0.55 -24.5 1.25 L-24.5 1.35 -24.45 1.65 -24.4 1.95 -24.2 3.1 -23.95 3.4 M36.8 45.3 L37.0 45.25 36.8 45.3 M-45.8 39.85 L-45.25 39.45 Q-44.95 38.85 -44.05 38.3 L-43.25 38.5 Q-41.9 38.5 -31.45 35.25 L-25.5 33.5 -25.35 33.7 Q-25.8 33.85 -26.2 34.25 L-29.7 36.0 -36.7 39.5 -43.95 39.8 -45.75 40.15 -45.8 39.85 M-24.1 -34.65 L-20.0 -34.0 -9.25 -31.5 -9.15 -31.5 -8.9 -29.6 Q-8.15 -24.75 -7.35 -22.45 L-8.85 -21.55 Q-9.4 -21.1 -9.9 -20.75 -11.0 -22.3 -12.45 -23.85 L-17.45 -28.75 -24.1 -34.6 -24.1 -34.65 M-62.6 27.6 L-62.5 27.8 -62.6 27.6 M-61.0 36.1 L-61.15 32.15 -61.3 31.1 -54.55 27.45 -48.65 23.9 Q-49.0 25.8 -49.0 28.1 L-48.55 32.45 Q-53.2 35.0 -58.25 36.55 L-58.45 36.95 -58.5 37.3 -59.7 36.9 -60.0 36.5 -60.3 36.7 -61.0 36.45 -61.0 36.3 -61.0 36.1" fill="#333a42" fill-rule="evenodd" stroke="none"/>
    <path d="M29.2 -50.25 L29.1 -50.35 29.3 -50.45 29.2 -50.25 M22.2 -32.35 L22.0 -32.5 22.4 -32.6 22.2 -32.35 M0.0 35.8 L0.15 35.45 0.0 35.8 M31.75 36.8 L31.9 36.7 31.75 36.8 M30.0 16.8 L30.0 16.55 30.0 16.8 M35.1 -10.25 L35.1 -10.15 35.0 -10.25 35.1 -10.25 M50.8 -30.25 L50.65 -30.45 50.8 -30.25 M60.55 -33.6 L60.4 -33.75 60.7 -33.85 60.75 -33.75 60.55 -33.6 M-25.35 33.7 L-25.5 33.5 -25.35 33.7" fill="#202020" fill-rule="evenodd" stroke="none"/>
    <path d="M41.85 -43.5 Q38.05 -40.9 37.3 -40.75 L36.4 -40.7 Q39.5 -42.45 41.85 -43.5 M-60.85 21.15 L-60.85 21.65 -62.0 21.75 -62.05 21.65 -60.85 21.15 M-25.05 33.35 L-25.0 33.55 -25.35 33.7 -25.5 33.5 -25.05 33.35 M16.9 39.45 L16.9 39.4 17.15 39.9 16.9 39.45 M1.0 5.85 L0.8 5.8 1.0 5.55 1.0 5.85 M58.4 -31.7 L60.55 -33.6 60.75 -33.75 60.75 -33.7 58.4 -31.7 M51.65 -30.8 L50.8 -30.25 50.65 -30.45 51.65 -30.8 M32.2 37.05 L31.75 36.8 31.9 36.7 32.2 37.05 M0.45 35.55 L0.15 35.65 0.0 35.8 0.15 35.45 0.45 35.55 M0.0 41.85 L0.0 42.45 -0.5 42.0 0.0 41.85 M-48.2 41.2 L-48.4 39.8 -47.0 40.0 -45.8 39.85 -45.75 40.15 Q-47.4 40.55 -48.2 41.2 M35.5 31.85 L34.55 31.75 33.7 31.55 35.5 31.85" fill="#333333" fill-rule="evenodd" stroke="none"/>
    <path d="M-7.5 -37.95 L-7.45 -37.95 Q-5.4 -35.65 -2.8 -31.4 -0.05 -26.85 1.0 -23.75 L-3.05 -24.3 -6.0 -24.45 -6.95 -31.55 Q-7.5 -35.6 -7.5 -37.95 M-17.0 -16.2 L-17.5 -15.9 -20.7 -22.75 -25.7 -32.95 Q-22.45 -30.8 -17.15 -25.2 L-11.6 -19.45 -13.0 -18.45 -17.0 -16.2" fill="#6c6063" fill-rule="evenodd" stroke="none"/>
    <path d="M-7.0 20.55 Q-5.8 21.3 -5.0 22.55 L-9.45 26.8 Q-10.4 27.6 -11.7 28.15 L-10.45 25.75 Q-9.0 22.3 -9.0 20.25 L-9.0 19.55 Q-7.9 19.95 -7.0 20.55 M-14.1 18.75 L-11.05 19.0 -11.95 23.05 Q-12.8 25.65 -14.45 27.05 -14.95 24.65 -17.4 21.45 L-19.2 19.45 -14.1 18.75 M-30.65 24.0 L-30.5 23.8 Q-28.25 22.55 -24.5 21.1 L-22.2 20.3 -22.0 20.7 Q-21.5 21.5 -21.5 22.1 -21.5 23.75 -22.55 25.85 -23.7 28.1 -25.0 28.55 -26.05 26.95 -28.95 25.1 L-30.65 24.0 M-23.0 30.55 L-21.6 28.3 Q-19.5 24.5 -19.5 22.3 -18.85 22.95 -17.15 26.85 -16.4 28.5 -15.65 29.3 L-16.25 29.4 -23.0 30.55 M-27.25 29.85 L-25.6 31.25 -31.65 32.85 Q-31.25 32.2 -31.1 31.1 L-31.0 27.0 Q-29.85 27.55 -27.25 29.85 M-38.25 28.3 L-33.0 25.2 -33.45 28.5 -33.5 30.75 Q-33.55 31.15 -34.3 31.9 L-34.35 32.0 Q-36.85 30.35 -38.75 28.4 L-38.35 28.15 -38.25 28.3 M-35.25 33.5 L-35.15 33.8 -35.9 34.0 Q-41.45 35.5 -43.4 36.5 L-46.65 32.5 Q-47.0 31.8 -47.0 28.35 L-46.9 24.6 Q-46.6 22.1 -45.5 21.5 -44.5 24.3 -41.5 28.4 -37.75 33.5 -35.25 33.5 M-61.5 44.75 L-61.0 41.9 -61.0 43.8 Q-60.55 44.85 -60.45 47.05 L-61.75 45.65 -61.5 44.75 M-50.45 36.55 L-50.5 38.25 Q-50.5 40.5 -49.25 44.7 -48.0 48.95 -48.0 50.25 -48.0 51.5 -48.2 50.75 -51.65 48.85 -54.6 44.15 L-57.5 39.0 Q-54.05 38.3 -50.95 36.6 L-50.45 36.55 M-48.5 36.0 L-48.45 35.05 -48.0 34.75 Q-47.4 36.5 -46.35 37.3 L-48.5 38.25 -48.5 36.0" fill="#9e9189" fill-rule="evenodd" stroke="none"/>
    <path d="M29.1 -50.35 L29.2 -50.25 24.15 -42.55 Q20.5 -36.85 20.5 -34.35 L20.55 -33.25 20.8 -32.75 22.0 -32.5 22.2 -32.35 Q20.15 -29.4 20.05 -28.95 19.7 -27.75 18.05 -25.55 L15.0 -22.0 Q14.0 -23.2 14.0 -23.65 14.0 -24.8 15.2 -26.65 16.35 -28.45 16.3 -29.45 L16.05 -31.6 16.75 -31.5 Q17.55 -31.5 17.75 -31.95 L18.0 -32.7 15.6 -34.15 15.5 -34.9 Q15.5 -36.1 20.3 -43.3 L23.4 -47.55 23.45 -47.6 23.9 -47.8 28.7 -50.15 28.85 -50.25 29.1 -50.35 M34.95 -39.85 L35.65 -40.3 36.35 -40.7 36.4 -40.7 37.3 -40.75 Q38.05 -40.9 41.85 -43.5 44.7 -44.8 46.3 -44.9 L46.3 -44.75 Q44.0 -42.95 41.05 -39.6 37.55 -35.65 35.75 -34.0 L29.45 -28.35 Q26.5 -25.35 26.5 -23.0 L26.55 -21.8 26.8 -21.25 27.75 -21.0 33.9 -23.7 34.25 -23.9 34.0 -23.5 29.75 -20.15 Q26.85 -18.25 23.75 -18.25 L22.25 -17.05 Q20.75 -15.75 20.0 -15.5 19.45 -15.7 19.25 -16.05 19.0 -16.45 19.0 -17.35 19.0 -18.35 19.6 -19.25 L21.0 -21.75 21.4 -23.6 Q21.6 -24.75 22.5 -25.95 L26.0 -30.25 29.55 -34.2 33.3 -38.25 34.95 -39.85 M-25.0 33.55 L-22.8 33.45 -10.5 33.5 Q-5.5 35.05 -2.6 36.95 -0.75 38.15 0.0 39.35 L0.0 41.85 -0.5 42.0 -0.55 42.0 -1.3 41.45 -5.8 39.05 -6.05 38.95 Q-11.35 36.75 -17.1 36.3 -31.9 35.2 -37.5 46.25 -39.35 46.25 -42.7 45.15 -46.1 44.0 -47.25 44.0 L-47.6 44.0 -48.2 41.2 Q-47.4 40.55 -45.75 40.15 L-43.95 39.8 -36.7 39.5 -29.7 36.0 -26.2 34.25 Q-25.8 33.85 -25.35 33.7 L-25.0 33.55 M0.15 35.45 L-1.6 34.8 Q-5.35 33.45 -7.0 32.25 -6.35 31.2 -4.85 30.8 L-3.0 30.5 Q0.25 30.5 4.25 33.05 L9.5 36.55 15.3 38.75 16.9 39.45 17.15 39.9 17.25 40.2 17.5 41.65 17.5 41.7 17.5 41.8 17.5 42.0 17.5 42.05 Q17.5 43.55 17.3 43.8 15.3 43.1 7.95 39.2 L7.75 39.1 6.3 38.3 5.85 38.1 5.75 38.0 5.3 37.75 3.85 37.0 1.0 35.5 0.65 35.5 0.45 35.55 0.15 35.45 M14.05 34.45 L11.75 34.0 Q9.7 33.65 8.0 32.3 L8.0 31.25 10.45 30.9 13.0 30.55 Q13.4 30.45 14.85 31.1 16.6 31.9 18.05 32.05 L23.95 34.55 Q26.5 35.5 28.5 35.5 29.15 35.5 31.75 36.8 L32.2 37.05 Q35.35 40.8 37.0 45.25 L36.8 45.3 32.9 42.4 Q30.3 40.6 27.55 39.25 L27.45 39.2 27.35 39.15 25.6 38.35 25.55 38.35 20.1 36.05 15.0 34.0 14.05 34.15 14.0 34.25 14.05 34.45 M27.25 30.75 L24.5 30.3 Q21.9 29.75 19.0 28.8 18.0 28.45 17.0 26.9 16.35 25.95 13.8 26.5 L13.65 26.25 Q13.5 26.0 13.5 25.25 L13.55 24.45 13.75 24.05 19.6 23.65 Q21.2 23.9 23.5 25.0 L26.5 25.8 29.5 26.5 36.0 26.6 41.25 27.05 Q42.7 27.2 45.9 28.05 L50.0 29.0 55.6 29.9 55.65 29.9 56.45 30.6 58.8 32.75 46.7 32.25 36.2 31.9 35.5 31.85 33.7 31.55 29.0 30.5 27.65 30.65 27.25 30.75 M35.5 18.7 L30.75 19.5 28.3 19.25 Q28.0 19.65 28.0 18.4 L28.1 17.8 Q28.5 17.3 30.0 16.8 L30.0 16.55 25.25 17.0 17.8 16.5 17.65 16.35 Q17.5 16.15 17.5 15.4 17.5 13.8 35.85 11.15 49.45 9.2 61.45 8.9 L61.55 8.95 61.6 8.95 67.3 11.3 Q63.4 12.7 48.15 15.35 35.75 17.5 35.5 18.7 M38.85 2.8 Q35.85 3.75 33.0 3.75 30.9 3.75 30.05 4.35 L27.5 6.0 25.3 6.0 25.15 5.85 Q25.0 5.65 25.0 4.9 25.0 4.55 35.25 -1.6 45.75 -7.9 48.25 -8.75 54.55 -10.95 62.45 -12.9 L62.5 -12.9 69.5 -12.95 Q64.1 -9.5 50.2 -3.6 38.5 1.4 38.5 2.15 38.5 2.5 38.85 2.8 M35.1 -10.15 Q34.2 -9.15 32.3 -7.7 L27.5 -4.5 Q26.0 -6.0 26.0 -6.5 26.0 -7.25 28.3 -9.25 L29.0 -10.65 29.5 -11.95 Q31.45 -14.3 31.85 -15.55 32.25 -16.65 32.75 -17.2 L37.55 -22.45 Q41.9 -27.0 43.0 -27.0 43.65 -27.0 43.55 -26.5 43.5 -26.0 44.1 -26.0 44.25 -26.0 50.8 -30.25 L51.65 -30.8 51.7 -30.8 52.65 -31.15 60.4 -33.75 60.55 -33.6 58.4 -31.7 57.5 -31.0 57.05 -30.65 53.0 -27.55 Q47.8 -23.6 45.75 -21.7 L38.65 -15.7 Q34.9 -12.35 35.0 -10.25 L35.1 -10.15 M-2.8 -4.05 Q0.4 -5.45 3.25 -5.45 4.1 -5.45 5.05 -3.45 6.0 -1.5 6.5 -1.5 L7.35 -1.7 7.3 -1.95 7.5 -2.9 7.7 -2.95 Q8.5 -2.1 8.5 -1.5 8.5 -0.7 1.0 5.55 L0.8 5.8 1.0 5.85 Q3.9 6.0 4.9 6.45 6.15 6.95 6.3 8.25 9.35 8.55 9.8 9.05 L9.9 8.85 10.0 9.6 Q10.0 10.7 9.5 10.85 L4.0 11.0 Q-7.75 11.0 -16.1 8.05 -19.6 6.75 -23.95 4.0 L-23.95 3.4 Q-22.9 4.5 -19.5 4.5 L-16.9 4.0 -16.75 4.35 -16.5 4.75 -11.55 5.2 -6.75 5.5 Q-3.05 5.5 -0.75 3.05 1.0 1.2 1.0 -0.5 1.0 -3.1 -2.75 -3.85 L-2.8 -4.05" fill="#202428" fill-rule="evenodd" stroke="none"/>
    <path d="M-9.1 -0.45 L-6.4 -2.25 -6.35 -2.15 -6.2 -2.0 Q-2.1 -1.75 -1.25 -1.25 -0.8 -1.0 -1.0 -0.7 -2.3 3.85 -7.45 3.25 L-12.05 2.45 -13.35 2.3 Q-11.4 1.2 -9.1 -0.45" fill="#0000ff" fill-rule="evenodd" stroke="none"/>
    <path d="M-64.1 30.85 L-63.75 32.9 -63.0 37.9 Q-63.0 41.45 -64.0 44.3 -65.7 49.25 -69.9 49.25 -73.3 49.25 -74.5 43.25 L-75.0 37.15 Q-75.0 34.25 -74.8 33.85 L-73.0 31.05 -71.95 32.4 -72.0 33.25 Q-72.0 35.65 -71.5 38.8 -70.9 42.85 -69.85 43.4 L-69.8 44.05 -69.0 44.5 -68.45 43.35 -68.0 43.25 -68.0 37.4 Q-67.7 35.7 -67.85 34.0 -67.95 32.25 -68.55 31.25 -67.85 30.8 -67.05 30.6 L-65.6 29.35 -64.45 28.6 -64.1 30.85" fill="#915e3c" fill-rule="evenodd" stroke="none"/>
  </g>
</svg>
