<?xml version="1.0" encoding="UTF-8" standalone="no"?>
<svg xmlns:ffdec="https://www.free-decompiler.com/flash" xmlns:xlink="http://www.w3.org/1999/xlink" ffdec:objectType="shape" height="104.4px" width="162.35px" xmlns="http://www.w3.org/2000/svg">
  <g transform="matrix(1.0, 0.0, 0.0, 1.0, 80.65, 51.9)">
    <path d="M-52.0 34.05 Q-51.0 35.9 -51.0 36.9 -51.0 37.75 -51.65 38.0 L-58.85 38.25 Q-59.65 38.15 -64.75 40.0 L-65.6 39.75 Q-65.8 39.55 -65.95 39.55 L-66.0 38.75 Q-66.0 38.35 -65.25 37.25 -64.5 36.2 -64.5 35.75 -64.5 35.0 -65.5 34.6 -67.0 34.0 -68.0 32.8 -67.1 31.3 -65.05 30.65 -63.5 30.1 -63.5 28.5 -63.5 26.85 -64.55 25.95 L-66.5 24.8 -64.9 23.2 -62.6 21.25 -61.1 18.95 -73.7 18.75 -76.8 18.5 -77.5 18.5 Q-80.05 18.5 -80.5 17.95 -80.75 17.65 -80.5 17.25 -80.5 16.05 -77.75 13.0 -75.0 9.95 -75.0 8.85 -75.0 8.2 -75.3 8.0 L-76.5 6.8 Q-76.05 5.65 -72.25 3.8 -68.35 1.85 -67.5 0.25 L-69.0 -1.1 Q-67.9 -3.4 -62.75 -5.25 L-57.95 -6.6 -58.1 -6.75 Q-52.7 -10.8 -51.4 -12.85 L-51.2 -13.05 -62.9 -9.8 -68.6 -6.0 -71.15 -3.8 Q-73.35 -2.0 -74.25 -2.0 L-75.1 -2.25 -75.45 -2.35 -75.5 -3.15 Q-75.5 -4.05 -73.25 -7.85 -70.95 -11.8 -70.85 -12.35 -71.85 -13.0 -74.0 -13.05 -76.0 -13.1 -77.0 -14.1 L-77.75 -14.9 -78.0 -16.15 Q-78.0 -17.65 -76.35 -19.35 L-73.1 -22.25 Q-72.5 -22.75 -67.85 -23.55 -64.75 -24.1 -65.0 -27.6 L-67.3 -27.5 -70.0 -27.0 Q-70.5 -27.65 -70.8 -28.95 L-71.0 -30.4 -71.1 -32.0 Q-71.0 -32.75 -70.2 -33.15 -68.4 -34.15 -58.5 -35.5 -57.2 -35.7 -51.55 -37.45 -46.75 -38.95 -44.85 -38.75 L-44.65 -38.85 -44.55 -38.65 -37.95 -39.85 -20.45 -43.35 -0.2 -46.6 8.05 -48.35 14.6 -49.1 20.85 -49.85 Q27.0 -51.3 31.0 -51.1 L43.2 -51.6 Q55.25 -52.5 62.6 -50.65 69.2 -48.95 75.2 -44.05 78.15 -41.65 79.35 -39.0 80.1 -37.45 80.7 -33.85 L81.45 -28.15 81.7 -24.0 Q81.7 -19.55 78.5 -13.3 75.6 -7.55 71.35 -2.8 L66.1 2.65 61.1 7.7 56.7 12.65 51.7 17.95 Q47.1 22.2 39.3 27.45 33.5 31.4 23.1 37.7 21.75 38.5 13.55 41.4 5.2 44.4 1.3 45.4 L-6.9 48.8 -13.55 51.45 -13.5 51.5 -14.35 52.3 -16.0 52.5 -18.5 52.25 Q-18.3 48.15 -20.85 46.8 L-22.65 45.95 Q-23.5 45.45 -23.5 44.55 -23.5 43.45 -20.35 41.15 -18.45 39.7 -16.2 38.4 L-16.2 37.0 Q-16.75 34.65 -20.05 34.65 L-28.25 35.85 -29.0 36.5 -29.6 36.1 -32.1 36.55 -30.05 34.95 -30.05 34.85 -29.85 33.55 -36.1 33.2 Q-36.5 32.95 -36.5 32.25 -36.5 31.65 -34.5 29.55 L-38.0 29.25 Q-39.15 29.25 -41.5 32.15 -43.85 35.0 -46.0 35.0 -47.75 35.0 -47.8 33.95 L-47.5 32.55 -49.65 33.15 -51.4 33.75 -52.0 34.0 -52.0 34.05 M-57.7 -33.25 Q-60.6 -32.35 -69.0 -31.75 L-69.0 -30.25 Q-64.6 -30.8 -63.35 -28.85 L-63.0 -26.75 Q-63.0 -24.75 -63.6 -23.75 -64.45 -22.3 -66.5 -22.5 -68.85 -22.7 -70.5 -21.1 L-73.45 -18.5 -75.75 -16.1 Q-70.9 -15.0 -69.7 -14.35 -68.5 -13.7 -68.5 -12.35 -68.5 -11.45 -69.35 -10.3 -70.45 -8.75 -71.0 -7.1 L-67.65 -9.9 Q-65.1 -12.0 -63.25 -12.0 L-62.65 -11.9 -62.45 -12.3 Q-59.6 -12.9 -56.2 -14.0 L-50.2 -16.05 -43.35 -17.7 -32.7 -20.05 Q-24.65 -21.6 -14.7 -25.05 L-0.9 -30.05 Q7.4 -32.75 26.55 -40.8 42.1 -47.35 51.1 -49.35 L42.7 -49.55 36.65 -48.9 24.7 -48.55 22.45 -48.2 11.05 -46.85 Q8.3 -46.55 2.1 -44.9 L-5.2 -43.1 -30.9 -39.5 Q-42.05 -37.6 -48.15 -35.35 L-48.55 -35.2 -47.9 -36.25 -48.8 -36.0 Q-52.3 -34.9 -53.35 -34.75 -55.55 -34.25 -57.7 -33.25 M-57.2 -4.85 L-57.25 -5.05 Q-58.3 -4.5 -60.2 -3.75 -64.75 -2.0 -65.35 -1.25 -65.55 0.05 -66.5 1.65 L-66.9 2.3 Q-67.9 3.75 -69.25 4.55 L-69.95 5.0 -73.0 6.75 -72.95 8.4 Q-72.9 9.4 -73.0 10.05 -73.15 11.0 -74.9 13.15 L-77.25 16.0 -77.5 16.3 -77.2 16.3 -75.85 16.25 -75.7 16.15 -75.3 16.2 -73.85 16.0 -73.65 16.15 -73.55 16.35 -58.15 17.15 -57.75 17.25 Q-54.45 14.7 -47.75 12.0 L-34.5 7.0 Q-30.4 5.4 -21.1 1.2 L-7.75 -4.75 Q1.85 -8.95 22.3 -18.95 L42.5 -28.75 43.55 -29.25 43.75 -29.35 43.9 -28.5 43.9 -28.45 42.75 -27.6 33.85 -22.3 Q23.1 -16.1 17.75 -13.85 L5.75 -8.5 -7.25 -2.75 -18.85 2.6 Q-27.6 6.65 -32.75 8.55 -38.65 10.65 -56.75 18.5 L-56.85 18.5 -57.2 18.5 -57.2 18.7 -57.2 18.75 -57.25 18.75 Q-58.65 19.4 -59.2 20.85 L-59.4 20.8 -59.9 21.25 -60.0 21.35 -60.05 21.35 -61.75 23.0 -62.6 24.0 -62.05 26.25 Q-61.5 27.9 -61.5 28.5 -61.5 29.75 -61.65 30.1 -62.0 31.05 -63.6 32.55 -62.55 33.1 -62.45 34.45 L-62.5 36.75 -60.85 36.6 -59.75 36.45 -56.55 36.05 -53.6 35.75 -53.95 35.2 -53.95 34.95 -54.0 34.0 Q-54.0 32.5 -52.5 31.55 -50.85 30.5 -48.0 30.5 -46.65 30.5 -46.0 30.95 L-45.6 31.45 -45.5 32.5 Q-43.5 32.2 -42.7 29.45 L-42.6 29.15 Q-41.75 27.0 -38.25 27.0 L-37.5 27.0 -34.15 27.25 Q-32.8 27.45 -32.2 27.85 L-32.1 27.95 -32.0 28.65 -32.0 29.0 Q-32.0 29.8 -32.35 30.4 L-33.0 31.3 -28.55 31.8 -27.85 32.1 Q-27.5 32.35 -27.5 33.25 L-27.5 33.4 -27.45 33.4 -19.95 32.4 Q-17.7 32.4 -16.3 33.2 L-16.15 33.25 -15.15 34.05 -14.4 35.15 Q-13.75 36.5 -13.85 38.6 L-13.9 39.95 -14.5 39.95 -14.75 39.95 Q-15.75 41.75 -20.75 44.05 L-19.8 44.8 -18.75 45.65 -17.9 46.45 -17.0 47.8 -15.95 49.9 Q-15.2 49.0 -13.6 48.2 -11.25 47.0 -9.1 47.15 L-6.4 46.0 Q-1.8 44.0 4.3 42.2 8.1 41.1 14.85 38.45 21.6 35.85 23.7 34.7 30.9 30.65 38.9 24.85 L51.95 15.2 Q54.45 13.4 56.85 10.4 L61.1 5.15 62.0 4.2 62.7 3.4 65.55 0.45 65.8 0.2 70.45 -4.6 Q72.2 -6.4 73.8 -8.8 L73.95 -9.0 74.95 -10.65 76.8 -14.2 Q79.7 -20.25 79.7 -24.1 L79.45 -28.2 78.7 -33.55 Q78.1 -36.1 77.2 -37.85 76.15 -39.9 73.95 -42.55 71.25 -45.85 64.9 -47.9 59.3 -49.7 57.45 -49.05 L47.15 -45.85 37.2 -42.8 18.7 -35.2 Q9.15 -31.25 -1.2 -27.8 L-11.5 -23.95 Q-19.55 -20.9 -23.2 -19.8 L-37.75 -17.0 Q-48.2 -15.1 -48.2 -13.45 -48.2 -12.35 -54.8 -6.85 L-57.2 -4.85 M57.55 -15.4 L57.0 -14.7 Q54.0 -11.25 44.45 -3.2 32.55 6.8 27.15 10.55 21.2 14.75 8.2 22.45 L-9.2 32.8 -12.0 34.5 -12.8 34.0 -12.85 33.95 -13.0 33.8 -12.9 33.7 Q-11.7 32.45 -8.35 30.25 L-8.3 30.25 Q-6.55 29.05 -4.2 27.6 L7.0 21.05 Q21.75 12.1 25.55 9.3 34.6 2.5 57.4 -18.0 L57.85 -17.85 58.15 -17.85 58.4 -17.0 58.4 -16.95 57.55 -15.4" fill="#000000" fill-rule="evenodd" stroke="none"/>
    <path d="M-57.7 -33.25 Q-55.55 -34.25 -53.35 -34.75 -52.3 -34.9 -48.8 -36.0 L-47.9 -36.25 -48.55 -35.2 -48.15 -35.35 Q-42.05 -37.6 -30.9 -39.5 L-5.2 -43.1 2.1 -44.9 Q8.3 -46.55 11.05 -46.85 L22.45 -48.2 24.7 -48.55 36.65 -48.9 42.7 -49.55 51.1 -49.35 Q42.1 -47.35 26.55 -40.8 7.4 -32.75 -0.9 -30.05 L-14.7 -25.05 Q-24.65 -21.6 -32.7 -20.05 L-43.35 -17.7 -50.2 -16.05 -56.2 -14.0 Q-59.6 -12.9 -62.45 -12.3 L-62.65 -11.9 -63.25 -12.0 Q-65.1 -12.0 -67.65 -9.9 L-71.0 -7.1 Q-70.45 -8.75 -69.35 -10.3 -68.5 -11.45 -68.5 -12.35 -68.5 -13.7 -69.7 -14.35 -70.9 -15.0 -75.75 -16.1 L-73.45 -18.5 -70.5 -21.1 Q-68.85 -22.7 -66.5 -22.5 -64.45 -22.3 -63.6 -23.75 -63.0 -24.75 -63.0 -26.75 L-63.35 -28.85 Q-64.6 -30.8 -69.0 -30.25 L-69.0 -31.75 Q-60.6 -32.35 -57.7 -33.25 M65.8 0.2 L65.55 0.45 65.55 0.25 65.8 0.2" fill="#046193" fill-rule="evenodd" stroke="none"/>
    <path d="M-51.4 33.75 L-52.0 34.05 -52.0 34.0 -51.4 33.75 M73.8 -8.8 Q72.2 -6.4 70.45 -4.6 L65.8 0.2 65.55 0.25 65.55 0.45 62.7 3.4 62.0 4.2 61.1 5.15 56.85 10.4 Q54.45 13.4 51.95 15.2 L38.9 24.85 Q30.9 30.65 23.7 34.7 21.6 35.85 14.85 38.45 8.1 41.1 4.3 42.2 -1.8 44.0 -6.4 46.0 L-9.1 47.15 Q-11.25 47.0 -13.6 48.2 -15.2 49.0 -15.95 49.9 L-17.0 47.8 -17.9 46.45 -18.75 45.65 -19.8 44.8 -20.75 44.05 Q-15.75 41.75 -14.75 39.95 L-14.5 39.95 -13.9 39.95 -13.85 38.6 Q-13.75 36.5 -14.4 35.15 L-15.15 34.05 -16.15 33.25 -16.3 33.2 Q-17.7 32.4 -19.95 32.4 L-27.45 33.4 -27.5 33.4 -27.5 33.25 Q-27.5 32.35 -27.85 32.1 L-28.55 31.8 -33.0 31.3 -32.35 30.4 Q-32.0 29.8 -32.0 29.0 L-32.0 28.65 -32.1 27.95 -32.2 27.85 Q-32.8 27.45 -34.15 27.25 L-37.5 27.0 -38.25 27.0 Q-41.75 27.0 -42.6 29.15 L-46.0 30.95 Q-46.65 30.5 -48.0 30.5 -50.85 30.5 -52.5 31.55 -54.0 32.5 -54.0 34.0 L-53.95 34.95 -56.55 36.05 -59.75 36.45 -60.85 36.6 -62.5 36.75 -62.45 34.45 Q-62.55 33.1 -63.6 32.55 -62.0 31.05 -61.65 30.1 -61.5 29.75 -61.5 28.5 -61.5 27.9 -62.05 26.25 L-62.6 24.0 -61.75 23.0 -52.5 23.0 Q-46.6 21.05 -33.05 17.2 L-14.5 11.5 Q-10.1 9.95 -2.25 6.05 7.05 1.4 11.25 -0.35 16.65 -2.65 33.9 -12.15 46.35 -19.0 61.5 -23.35 L61.5 -23.1 60.8 -21.25 Q60.25 -19.95 59.5 -19.35 L57.85 -17.85 57.4 -18.0 Q34.6 2.5 25.55 9.3 21.75 12.1 7.0 21.05 L-4.2 27.6 Q-6.55 29.05 -8.3 30.25 L-8.35 30.25 Q-11.7 32.45 -12.9 33.7 L-13.0 33.8 -12.85 33.95 -13.0 34.4 -12.8 35.35 -12.6 35.5 -9.0 35.5 Q4.35 31.25 15.15 26.05 22.35 22.55 36.3 14.5 68.15 -4.4 73.8 -8.8 M-59.9 21.25 L-59.4 20.8 -59.2 20.85 -59.0 20.9 -59.1 21.05 -59.15 21.1 -59.9 21.25 M42.5 -28.75 L22.3 -18.95 Q1.85 -8.95 -7.75 -4.75 L-21.1 1.2 Q-30.4 5.4 -34.5 7.0 L-47.75 12.0 Q-54.45 14.7 -57.75 17.25 L-58.15 17.15 -73.55 16.35 -73.65 16.15 -73.85 16.0 -75.3 16.2 -75.7 16.15 -75.85 16.25 -77.2 16.3 -77.25 16.0 -74.9 13.15 Q-73.15 11.0 -73.0 10.05 -72.9 9.4 -72.95 8.4 L-73.0 6.75 -69.95 5.0 -69.95 5.05 -69.6 5.25 -68.75 5.5 -61.5 3.4 -53.85 1.25 Q-39.55 -0.65 -32.0 -3.5 -14.65 -9.95 -9.1 -13.0 -3.5 -16.05 10.0 -22.6 21.15 -27.95 25.7 -29.6 37.85 -34.0 46.5 -32.85 L43.5 -30.65 Q42.6 -29.95 42.5 -28.75 M-66.9 2.3 L-66.5 1.65 -66.4 2.1 -66.9 2.3 M57.55 -15.4 L56.95 -14.6 57.0 -14.7 57.55 -15.4" fill="#023f60" fill-rule="evenodd" stroke="none"/>
    <path d="M-57.2 -4.85 L-54.8 -6.85 Q-48.2 -12.35 -48.2 -13.45 -48.2 -15.1 -37.75 -17.0 L-23.2 -19.8 Q-19.55 -20.9 -11.5 -23.95 L-1.2 -27.8 Q9.15 -31.25 18.7 -35.2 L37.2 -42.8 47.15 -45.85 57.45 -49.05 Q59.3 -49.7 64.9 -47.9 71.25 -45.85 73.95 -42.55 76.15 -39.9 77.2 -37.85 78.1 -36.1 78.7 -33.55 L79.45 -28.2 79.7 -24.1 Q79.7 -20.25 76.8 -14.2 L74.95 -10.65 73.95 -9.0 73.8 -8.8 Q68.15 -4.4 36.3 14.5 22.35 22.55 15.15 26.05 4.35 31.25 -9.0 35.5 L-12.6 35.5 -12.8 35.35 -13.0 34.4 -12.85 33.95 -12.8 34.0 -12.0 34.5 -9.2 32.8 8.2 22.45 Q21.2 14.75 27.15 10.55 32.55 6.8 44.45 -3.2 54.0 -11.25 57.0 -14.7 L56.95 -14.6 57.55 -15.4 58.4 -16.95 58.4 -17.0 58.15 -17.85 57.85 -17.85 59.5 -19.35 Q60.25 -19.95 60.8 -21.25 L61.5 -23.1 61.5 -23.35 Q46.35 -19.0 33.9 -12.15 16.65 -2.65 11.25 -0.35 7.05 1.4 -2.25 6.05 -10.1 9.95 -14.5 11.5 L-33.05 17.2 Q-46.6 21.05 -52.5 23.0 L-61.75 23.0 -60.05 21.35 -60.0 21.35 -59.9 21.25 -59.15 21.1 -59.1 21.05 -59.0 20.9 -59.2 20.85 Q-58.65 19.4 -57.25 18.75 L-57.2 18.75 -57.2 18.7 -57.2 18.5 -56.85 18.5 -56.75 18.5 Q-38.65 10.65 -32.75 8.55 -27.6 6.65 -18.85 2.6 L-7.25 -2.75 5.75 -8.5 17.75 -13.85 Q23.1 -16.1 33.85 -22.3 L42.75 -27.6 43.9 -28.45 43.9 -28.5 43.75 -29.35 43.55 -29.25 42.5 -28.75 Q42.6 -29.95 43.5 -30.65 L46.5 -32.85 Q37.85 -34.0 25.7 -29.6 21.15 -27.95 10.0 -22.6 -3.5 -16.05 -9.1 -13.0 -14.65 -9.95 -32.0 -3.5 -39.55 -0.65 -53.85 1.25 L-61.5 3.4 -68.75 5.5 -69.6 5.25 -69.95 5.05 -69.95 5.0 -69.25 4.55 Q-67.9 3.75 -66.9 2.3 L-66.4 2.1 -66.5 1.65 Q-65.55 0.05 -65.35 -1.25 -64.75 -2.0 -60.2 -3.75 -58.3 -4.5 -57.25 -5.05 L-57.2 -4.85" fill="#02334d" fill-rule="evenodd" stroke="none"/>
  </g>
</svg>
