<?xml version="1.0" encoding="UTF-8" standalone="no"?>
<svg xmlns:ffdec="https://www.free-decompiler.com/flash" xmlns:xlink="http://www.w3.org/1999/xlink" ffdec:objectType="shape" height="144.5px" width="87.4px" xmlns="http://www.w3.org/2000/svg">
  <g transform="matrix(1.0, 0.0, 0.0, 1.0, 43.7, 57.5)">
    <path d="M14.85 -52.15 Q19.25 -50.1 20.85 -48.25 L22.6 -46.3 22.75 -46.15 22.7 -46.45 Q28.35 -46.85 32.25 -44.75 L37.85 -41.25 Q41.45 -38.35 42.6 -36.25 L43.6 -33.7 43.7 -31.0 Q43.7 -27.7 42.0 -23.7 L42.15 -22.75 42.2 -20.15 Q42.2 -17.85 41.8 -15.55 L40.7 -10.5 Q39.35 -4.0 37.4 -2.6 36.55 -2.0 32.7 -2.0 L32.15 -2.0 Q31.75 -0.85 29.6 2.15 L26.7 6.05 23.8 10.05 20.6 14.0 19.3 16.0 19.15 16.2 19.0 16.4 18.1 16.5 18.25 17.0 18.3 18.5 18.25 19.85 Q21.65 19.95 24.7 31.5 L24.6 32.9 Q24.25 33.55 22.6 33.5 23.7 36.25 23.7 38.1 23.7 40.4 23.3 41.45 22.5 43.45 20.2 42.0 19.65 46.05 18.85 48.15 17.45 51.75 14.3 54.0 13.4 53.6 12.95 52.25 L12.35 50.0 Q11.5 52.05 11.1 57.05 L11.05 57.3 10.05 57.5 -2.2 49.75 -2.4 54.55 -2.45 54.8 -3.45 55.0 -4.0 54.95 -4.0 55.1 Q-4.0 57.2 -8.75 61.25 L-15.75 67.05 -21.3 72.95 Q-24.0 75.7 -26.15 77.5 -26.0 77.95 -26.0 79.0 -26.0 80.7 -27.0 83.5 -28.2 87.0 -29.75 87.0 -30.85 87.0 -32.65 85.6 -34.4 84.25 -35.0 83.05 -35.4 82.2 -36.45 80.85 -37.0 80.15 -37.0 78.9 L-37.0 78.8 Q-39.45 74.45 -40.0 72.5 -40.5 70.65 -40.5 65.35 L-40.75 63.05 Q-40.8 61.85 -40.4 61.05 L-40.45 60.8 -40.5 58.5 Q-40.5 54.2 -40.1 53.45 -39.4 52.1 -34.75 48.15 L-35.45 47.4 -35.45 47.35 Q-35.45 45.4 -36.95 44.85 L-37.05 44.8 -36.6 44.6 Q-37.15 43.7 -37.45 43.5 -38.45 42.8 -40.4 43.5 L-40.55 43.35 -40.7 42.4 -40.65 41.85 -40.9 41.75 -41.25 37.75 -41.15 37.75 -41.2 36.5 Q-41.2 31.2 -39.95 27.75 -39.15 25.4 -36.45 20.7 L-36.45 19.85 -36.35 18.85 -36.0 18.85 Q-35.7 15.55 -35.7 13.75 -35.4 13.3 -35.45 10.15 L-35.35 9.4 -35.15 7.75 Q-36.0 6.4 -36.15 4.45 -36.15 1.1 -36.4 -0.7 -36.7 -2.95 -36.7 -10.45 L-36.65 -15.5 -36.3 -18.05 -36.95 -19.65 Q-36.45 -20.95 -36.45 -21.75 L-36.6 -22.75 -36.6 -22.9 -36.55 -23.0 -36.95 -23.0 Q-40.0 -23.0 -42.15 -25.85 -43.7 -27.95 -43.7 -28.9 -43.7 -29.95 -40.75 -35.95 -37.9 -41.75 -36.7 -43.45 -35.2 -45.75 -29.7 -49.95 -28.75 -50.7 -24.7 -49.85 L-23.2 -51.85 Q-21.5 -53.05 -14.9 -53.25 L-14.15 -53.25 -14.2 -53.6 Q-14.2 -54.3 -12.45 -55.3 -10.55 -56.4 -7.8 -57.0 -0.25 -58.6 7.35 -55.25 L14.85 -52.15 M29.5 -38.25 Q31.2 -35.5 31.2 -29.6 L31.05 -26.75 Q30.75 -25.5 29.55 -24.25 L30.4 -23.35 Q33.05 -20.3 33.2 -15.6 37.3 -19.45 39.25 -22.6 41.7 -26.6 41.7 -30.9 41.7 -35.55 37.4 -38.95 33.0 -42.45 23.65 -45.1 L29.5 -38.25 M28.45 -27.0 L29.2 -29.4 Q29.2 -33.6 27.8 -36.4 26.35 -39.4 21.85 -44.0 18.4 -47.45 13.55 -50.35 5.35 -55.25 -2.3 -55.25 -8.9 -55.25 -11.1 -53.85 L-11.65 -53.25 Q-4.75 -52.95 -0.95 -50.45 0.65 -49.4 2.15 -47.6 L4.55 -44.7 Q7.5 -36.1 9.0 -32.85 12.1 -26.3 16.7 -21.9 L18.1 -23.95 Q20.6 -26.7 24.25 -26.5 26.25 -26.4 27.9 -25.45 L28.45 -27.0 M15.55 -20.0 Q13.1 -20.0 9.8 -26.55 L5.1 -36.75 Q4.5 -40.45 2.05 -44.05 -2.85 -51.25 -12.3 -51.25 -19.1 -51.25 -21.65 -49.8 L-22.4 -49.3 -21.5 -49.05 Q-15.4 -47.3 -14.75 -46.1 -11.2 -44.6 -7.95 -41.2 L-4.4 -35.85 Q-2.45 -32.7 -1.7 -30.25 -0.65 -26.85 1.3 -24.95 2.0 -24.3 3.65 -22.9 5.1 -21.55 5.8 -20.2 6.8 -18.3 11.25 -15.55 L15.5 -12.85 15.3 -15.15 Q15.3 -17.8 15.95 -19.9 L15.95 -20.0 15.55 -20.0 M28.4 -18.25 L29.2 -17.45 31.1 -15.0 31.2 -15.05 31.2 -15.9 Q31.2 -18.2 29.15 -21.25 26.35 -25.45 21.85 -24.25 19.05 -21.85 18.0 -19.4 17.3 -17.65 17.3 -15.15 17.3 -12.35 18.1 -10.75 18.65 -9.65 19.55 -8.95 21.15 -7.75 23.95 -7.75 L25.8 -7.9 Q28.0 -8.3 28.85 -9.85 29.4 -10.95 29.2 -12.15 29.2 -13.8 28.85 -14.5 L27.45 -16.15 26.65 -16.85 26.4 -17.05 26.35 -17.1 26.35 -17.05 25.95 -17.45 24.2 -17.25 24.45 -16.0 24.7 -14.35 24.6 -13.45 24.55 -13.4 24.35 -13.25 Q24.95 -13.0 23.7 -13.0 22.45 -13.0 22.2 -14.75 L22.2 -16.5 Q22.2 -18.3 22.6 -18.75 23.2 -19.5 25.7 -19.5 26.95 -19.5 28.4 -18.25 M27.15 0.45 L28.45 -1.15 29.2 -1.95 29.5 -2.2 Q27.0 -2.6 25.75 -3.65 24.7 -4.5 24.7 -5.5 L23.95 -5.5 Q18.35 -5.5 16.3 -10.0 L15.8 -10.0 Q14.55 -10.0 9.9 -13.6 5.7 -16.85 4.8 -17.95 L1.6 -21.25 0.45 -19.1 -1.7 -16.2 Q-2.25 -14.75 -2.9 -13.8 -1.45 -13.75 -0.6 -12.6 L-0.3 -12.2 Q0.65 -10.4 1.05 -5.95 1.6 0.6 1.95 1.95 2.9 5.75 5.55 5.75 7.2 5.75 7.5 4.5 L7.5 3.1 7.25 2.3 6.0 1.3 Q6.2 1.1 6.05 0.5 6.35 0.0 8.75 0.0 11.4 0.0 12.15 1.75 L12.35 2.4 12.5 5.25 Q12.5 8.55 12.0 9.55 11.2 11.1 9.5 12.0 7.4 13.0 4.0 13.0 -0.5 13.0 -2.35 10.75 -3.85 9.0 -5.0 3.75 -4.4 0.6 -4.25 -1.45 -3.85 -5.25 -6.8 -5.25 -9.15 -5.25 -10.05 -3.3 -10.5 -2.3 -10.5 -1.1 L-10.55 -0.8 Q-10.7 -0.5 -11.5 -0.5 -14.5 -2.3 -14.5 -3.6 L-14.5 -6.8 -14.5 -7.05 Q-14.5 -9.75 -14.0 -10.35 -13.4 -11.1 -11.95 -11.65 -15.55 -12.05 -18.1 -13.4 L-19.85 -14.55 Q-22.7 -16.85 -22.7 -19.2 L-22.7 -19.55 -22.85 -19.4 -23.65 -18.75 -23.75 -18.65 -23.85 -18.6 -23.9 -18.55 -24.05 -18.4 Q-26.15 -17.0 -28.85 -16.6 L-30.7 -16.5 Q-33.4 -16.5 -34.9 -17.35 -34.6 -15.6 -34.6 -13.25 L-34.7 -5.95 -34.05 1.0 -33.2 8.1 -27.75 10.05 -23.7 11.2 -23.45 11.25 -18.25 12.45 Q-5.9 14.9 8.95 14.85 L13.25 14.75 17.6 14.6 19.0 13.0 19.5 12.4 Q17.35 12.0 16.3 10.1 L16.25 10.05 Q15.5 8.7 15.5 7.25 15.5 4.8 15.75 4.25 16.5 2.5 19.6 2.25 20.0 1.75 20.0 3.0 L19.65 3.6 19.75 3.9 19.75 3.95 20.0 5.75 19.95 6.05 Q20.0 6.3 20.75 6.3 22.95 6.3 23.2 5.7 23.5 5.05 24.0 5.0 L24.15 5.05 25.6 2.65 27.15 0.45 M38.5 -11.2 L38.5 -11.3 38.65 -11.85 39.7 -15.1 39.7 -15.2 Q40.25 -16.25 40.15 -20.05 36.65 -14.0 33.7 -14.0 L33.15 -14.0 32.55 -12.05 31.0 -9.45 Q29.25 -7.0 26.95 -6.05 L27.45 -5.4 Q28.8 -4.25 32.45 -4.25 36.7 -4.25 37.95 -8.2 L38.5 -11.2 M22.0 8.65 L22.1 8.5 21.75 8.5 Q18.8 8.5 18.1 7.0 L18.0 6.75 18.0 5.55 Q17.5 6.35 17.5 7.25 L17.6 7.9 Q17.85 8.65 18.85 9.25 L20.9 10.5 22.0 8.65 M-2.1 -10.4 L-6.25 -10.85 Q-9.15 -10.75 -12.5 -8.85 L-12.5 -4.35 -10.45 -6.45 Q-9.5 -7.5 -6.75 -7.5 L-6.7 -7.5 Q-2.75 -7.5 -2.5 -4.25 L-3.0 1.65 Q-1.65 10.8 1.25 10.8 L5.25 10.55 8.6 10.0 9.75 8.8 10.2 8.3 10.5 7.0 10.5 2.8 9.6 2.05 Q9.95 3.8 9.6 5.25 8.95 8.0 5.5 8.0 -0.95 8.0 -0.5 -2.85 -0.45 -4.1 -0.75 -5.65 L-1.5 -8.5 -1.5 -9.9 -2.05 -10.35 -2.1 -10.4 M16.0 16.9 L15.75 16.95 15.95 16.6 4.3 17.0 Q-20.4 17.0 -32.85 10.95 L-33.1 12.3 -33.7 15.8 Q-33.8 16.55 -33.5 18.9 L-33.5 18.95 Q-29.55 19.15 -28.45 19.8 L-9.55 20.75 Q15.1 20.75 16.65 19.1 16.9 18.8 16.15 17.4 L16.0 16.9 M-17.2 23.1 Q-17.2 23.75 -17.7 25.95 L-18.2 28.75 Q-18.2 31.65 -17.2 34.25 L-16.3 32.6 Q-15.4 31.2 -14.2 31.0 -13.45 32.65 -13.0 37.2 -12.55 41.75 -11.7 43.5 L-10.7 42.3 Q-10.15 41.5 -9.45 41.5 -8.4 41.5 -7.2 45.4 -5.8 49.95 -4.4 51.3 L-4.2 46.75 -3.95 46.65 -2.95 46.5 2.0 49.7 9.05 54.75 10.3 49.0 Q11.55 44.5 13.05 44.5 L14.1 44.75 14.35 47.7 Q14.5 49.55 14.8 50.75 L14.85 50.8 Q18.1 44.85 18.3 39.3 L19.85 39.2 21.6 39.55 21.7 38.1 Q21.7 36.95 20.5 34.7 19.3 32.45 19.3 30.9 19.3 29.6 19.45 29.35 19.85 28.75 21.7 28.8 L20.75 25.05 Q19.95 23.05 17.05 21.45 L11.5 22.15 -9.45 23.0 -17.15 22.7 -17.2 22.7 -17.2 23.1 M-6.15 -34.3 L-7.2 -36.2 Q-8.45 -38.15 -11.0 -40.8 -13.95 -43.8 -15.3 -43.95 L-15.85 -44.5 -15.95 -44.5 Q-17.1 -44.5 -19.45 -46.1 -21.8 -47.75 -27.05 -47.75 -28.55 -47.75 -30.2 -46.45 L-30.3 -46.35 Q-33.15 -44.15 -36.65 -38.3 L-41.45 -28.75 Q-41.45 -27.7 -39.4 -26.45 -37.85 -25.5 -36.0 -24.85 L-35.7 -25.9 Q-32.65 -35.95 -30.4 -40.4 L-29.95 -40.9 -28.4 -42.7 -27.35 -43.15 -30.2 -45.2 -30.2 -46.25 Q-28.5 -47.0 -25.45 -45.2 L-24.3 -44.4 -24.25 -44.4 Q-23.1 -43.5 -22.25 -41.95 L-21.95 -41.4 -21.4 -39.45 -20.75 -36.5 Q-20.2 -33.25 -20.2 -30.0 L-20.2 -28.85 -20.7 -20.25 Q-20.85 -18.35 -18.1 -16.3 -14.65 -13.75 -8.8 -13.75 -5.05 -13.75 -2.6 -18.0 L0.2 -22.7 -2.6 -26.05 -3.2 -27.25 Q-3.7 -28.9 -5.1 -31.95 L-6.15 -34.3 M-29.4 21.8 Q-31.35 21.25 -32.4 21.25 L-34.25 21.15 Q-34.5 22.7 -35.25 24.3 L-37.35 28.1 Q-40.05 33.05 -38.7 39.0 L-38.9 39.25 -38.7 40.8 -38.75 41.0 -37.65 41.4 Q-34.65 42.9 -33.95 45.5 L-32.75 44.7 -31.95 44.2 Q-29.75 43.05 -28.2 43.0 -27.75 43.0 -26.75 42.25 -25.75 41.5 -23.7 41.5 -21.1 41.5 -20.55 42.65 -20.3 43.15 -20.2 44.2 L-18.4 44.35 -17.1 43.65 Q-16.3 43.0 -14.45 43.0 L-14.1 43.0 -14.35 42.05 Q-14.95 37.45 -15.4 35.8 -15.8 36.5 -17.2 36.5 L-19.2 36.25 Q-20.2 31.25 -20.2 29.05 L-20.1 25.5 Q-19.8 23.75 -18.8 22.6 L-28.7 22.0 -29.4 21.8 M-9.2 47.55 L-9.65 46.5 -11.2 48.0 Q-12.5 47.0 -13.3 45.25 L-13.95 45.45 -14.05 45.05 -14.15 45.05 -14.2 45.0 Q-17.0 44.7 -17.7 45.85 L-17.9 46.85 -18.95 46.9 -19.1 46.9 -19.9 47.0 Q-20.95 48.25 -24.2 50.35 L-29.5 53.55 Q-32.2 55.4 -34.15 57.4 L-38.5 61.15 -38.5 61.8 -38.8 62.05 -38.9 62.15 Q-38.45 64.55 -37.95 69.45 L-37.55 72.6 Q-36.85 76.55 -35.65 76.55 L-34.15 76.2 Q-33.5 75.9 -33.05 75.75 L-32.5 75.5 -27.35 75.5 -27.2 75.65 -23.4 71.8 -16.75 65.3 -10.45 58.9 -5.3 54.25 -6.85 52.55 -7.65 51.2 -7.8 50.8 -7.85 50.65 -9.2 47.55 M-35.0 79.25 Q-35.0 80.15 -32.9 82.05 -30.9 83.8 -29.85 84.05 -28.8 83.25 -28.25 80.2 L-27.85 78.45 -28.2 78.25 -28.45 77.8 -30.5 77.75 Q-34.2 77.75 -34.8 78.8 L-35.0 79.15 -35.0 79.25" fill="#000000" fill-rule="evenodd" stroke="none"/>
    <path d="M29.5 -38.25 L23.65 -45.1 Q33.0 -42.45 37.4 -38.95 41.7 -35.55 41.7 -30.9 41.7 -26.6 39.25 -22.6 37.3 -19.45 33.2 -15.6 33.05 -20.3 30.4 -23.35 L29.55 -24.25 Q30.75 -25.5 31.05 -26.75 L31.2 -29.6 Q31.2 -35.5 29.5 -38.25 M15.95 -19.9 Q15.3 -17.8 15.3 -15.15 L15.5 -12.85 11.25 -15.55 Q6.8 -18.3 5.8 -20.2 5.1 -21.55 3.65 -22.9 2.0 -24.3 1.3 -24.95 -0.65 -26.85 -1.7 -30.25 -2.45 -32.7 -4.4 -35.85 L-7.95 -41.2 Q-11.2 -44.6 -14.75 -46.1 -15.4 -47.3 -21.5 -49.05 L-22.4 -49.3 -21.65 -49.8 Q-19.1 -51.25 -12.3 -51.25 -2.85 -51.25 2.05 -44.05 4.5 -40.45 5.1 -36.75 L9.8 -26.55 Q13.1 -20.0 15.55 -20.0 L15.95 -19.9 M-32.75 44.7 L-33.95 45.5 Q-34.65 42.9 -37.65 41.4 L-38.75 41.0 -38.7 40.8 -38.9 39.25 -38.7 39.0 Q-40.05 33.05 -37.35 28.1 L-35.25 24.3 Q-34.5 22.7 -34.25 21.15 L-32.4 21.25 Q-31.35 21.25 -29.4 21.8 L-31.25 30.95 -33.5 43.25 Q-33.5 43.95 -32.8 44.65 L-32.75 44.7" fill="#046193" fill-rule="evenodd" stroke="none"/>
    <path d="M28.45 -27.0 L27.9 -25.45 Q26.25 -26.4 24.25 -26.5 20.6 -26.7 18.1 -23.95 L16.7 -21.9 Q12.1 -26.3 9.0 -32.85 7.5 -36.1 4.55 -44.7 L2.15 -47.6 Q0.65 -49.4 -0.95 -50.45 -4.75 -52.95 -11.65 -53.25 L-11.1 -53.85 Q-8.9 -55.25 -2.3 -55.25 5.35 -55.25 13.55 -50.35 18.4 -47.45 21.85 -44.0 26.35 -39.4 27.8 -36.4 29.2 -33.6 29.2 -29.4 L28.45 -27.0 M-32.75 44.7 L-32.8 44.65 Q-33.5 43.95 -33.5 43.25 L-31.25 30.95 -29.4 21.8 -28.7 22.0 -18.8 22.6 Q-19.8 23.75 -20.1 25.5 L-20.2 29.05 Q-20.2 31.25 -19.2 36.25 L-17.2 36.5 Q-15.8 36.5 -15.4 35.8 -14.95 37.45 -14.35 42.05 L-14.1 43.0 -14.45 43.0 Q-16.3 43.0 -17.1 43.65 L-18.4 44.35 -20.2 44.2 Q-20.3 43.15 -20.55 42.65 -21.1 41.5 -23.7 41.5 -25.75 41.5 -26.75 42.25 -27.75 43.0 -28.2 43.0 -29.75 43.05 -31.95 44.2 L-32.75 44.7" fill="#023f60" fill-rule="evenodd" stroke="none"/>
    <path d="M19.55 -8.95 Q18.65 -9.65 18.1 -10.75 17.3 -12.35 17.3 -15.15 17.3 -17.65 18.0 -19.4 19.05 -21.85 21.85 -24.25 26.35 -25.45 29.15 -21.25 31.2 -18.2 31.2 -15.9 L31.2 -15.05 31.1 -15.0 29.2 -17.45 28.4 -18.25 Q25.85 -24.25 22.55 -20.95 19.3 -17.7 19.3 -12.2 19.3 -10.1 19.55 -8.95 M24.6 -13.45 L24.7 -14.35 24.45 -16.0 24.2 -17.25 25.95 -17.45 26.35 -17.05 Q26.55 -16.45 27.2 -16.0 L27.45 -16.15 28.85 -14.5 Q29.2 -13.8 29.2 -12.15 29.4 -10.95 28.85 -9.85 28.0 -8.3 25.8 -7.9 L26.25 -8.5 Q27.2 -9.95 27.2 -11.95 27.2 -13.25 26.1 -13.45 L24.7 -13.75 24.6 -13.45 M32.55 -12.05 Q33.7 -11.0 36.45 -11.0 L38.4 -11.2 38.5 -11.2 37.95 -8.2 Q36.7 -4.25 32.45 -4.25 28.8 -4.25 27.45 -5.4 L26.95 -6.05 Q29.25 -7.0 31.0 -9.45 L32.55 -12.05 M21.75 8.5 L22.0 8.65 20.9 10.5 18.85 9.25 Q17.85 8.65 17.6 7.9 L18.1 7.0 Q18.8 8.5 21.75 8.5 M-2.6 -26.05 L0.2 -22.7 -2.6 -18.0 Q-5.05 -13.75 -8.8 -13.75 -14.65 -13.75 -18.1 -16.3 -20.85 -18.35 -20.7 -20.25 L-20.2 -28.85 -14.2 -28.5 -9.55 -27.15 Q-5.75 -26.0 -3.95 -26.0 L-2.6 -26.05" fill="#af8661" fill-rule="evenodd" stroke="none"/>
    <path d="M-0.3 -12.2 L-0.6 -12.6 Q-1.45 -13.75 -2.9 -13.8 -2.25 -14.75 -1.7 -16.2 L0.45 -19.1 1.6 -21.25 4.8 -17.95 Q5.7 -16.85 9.9 -13.6 14.55 -10.0 15.8 -10.0 L16.3 -10.0 Q18.35 -5.5 23.95 -5.5 L24.7 -5.5 Q24.7 -4.5 25.75 -3.65 27.0 -2.6 29.5 -2.2 L29.2 -1.95 28.45 -1.15 27.15 0.45 Q25.55 0.05 21.7 -2.15 21.7 -0.15 19.75 3.9 L19.65 3.6 20.0 3.0 Q20.0 1.75 19.6 2.25 16.5 2.5 15.75 4.25 15.5 4.8 15.5 7.25 15.5 8.7 16.25 10.05 L16.3 10.1 13.25 14.75 8.95 14.85 9.5 12.0 Q11.2 11.1 12.0 9.55 12.5 8.55 12.5 5.25 L12.35 2.4 Q13.55 -2.55 14.0 -3.75 14.65 -5.35 15.55 -6.4 L15.05 -6.95 Q12.3 -10.8 1.35 -14.7 1.0 -13.75 -0.3 -12.2 M18.1 7.0 L17.6 7.9 17.5 7.25 Q17.5 6.35 18.0 5.55 L18.0 6.75 18.1 7.0 M-2.05 -10.35 L-2.2 -10.2 -2.1 -10.4 -2.05 -10.35 M-14.5 -7.05 L-18.1 -7.7 -18.15 -5.5 -18.2 -1.4 -18.2 6.2 -18.25 12.45 -23.45 11.25 -23.7 11.2 -27.75 10.05 Q-28.35 7.35 -28.7 2.8 L-29.2 -8.4 Q-29.2 -13.05 -28.85 -16.6 -26.15 -17.0 -24.05 -18.4 L-23.9 -18.55 -23.85 -18.6 -23.75 -18.65 -23.65 -18.75 -22.85 -19.4 -22.7 -19.2 Q-22.7 -16.85 -19.85 -14.55 L-18.1 -13.4 Q-15.55 -12.05 -11.95 -11.65 -13.4 -11.1 -14.0 -10.35 -14.5 -9.75 -14.5 -7.05 M-37.55 72.6 L-33.85 68.7 -24.8 60.0 -15.7 51.55 Q-12.6 48.75 -9.4 47.05 L-9.2 47.55 -7.85 50.65 -7.8 50.8 -7.65 51.2 -6.85 52.55 -12.5 57.2 -23.8 66.75 -32.25 74.9 -32.65 75.35 -33.05 75.75 Q-33.5 75.9 -34.15 76.2 L-35.65 76.55 Q-36.85 76.55 -37.55 72.6" fill="#583429" fill-rule="evenodd" stroke="none"/>
    <path d="M19.55 -8.95 Q19.3 -10.1 19.3 -12.2 19.3 -17.7 22.55 -20.95 25.85 -24.25 28.4 -18.25 26.95 -19.5 25.7 -19.5 23.2 -19.5 22.6 -18.75 22.2 -18.3 22.2 -16.5 L22.2 -14.75 Q22.45 -13.0 23.7 -13.0 24.95 -13.0 24.35 -13.25 L24.55 -13.4 24.6 -13.45 24.7 -13.75 26.1 -13.45 Q27.2 -13.25 27.2 -11.95 27.2 -9.95 26.25 -8.5 L25.8 -7.9 23.95 -7.75 Q21.15 -7.75 19.55 -8.95 M26.35 -17.05 L26.35 -17.1 26.4 -17.05 26.65 -16.85 27.45 -16.15 27.2 -16.0 Q26.55 -16.45 26.35 -17.05 M-2.05 -10.35 L-1.5 -9.9 -1.5 -8.5 -0.75 -5.65 Q-0.45 -4.1 -0.5 -2.85 -0.95 8.0 5.5 8.0 8.95 8.0 9.6 5.25 9.95 3.8 9.6 2.05 L10.5 2.8 10.5 7.0 10.2 8.3 9.75 8.8 8.6 10.0 5.25 10.55 1.25 10.8 Q-1.65 10.8 -3.0 1.65 L-2.5 -4.25 Q-2.75 -7.5 -6.7 -7.5 L-6.75 -7.5 Q-9.5 -7.5 -10.45 -6.45 L-12.5 -4.35 -12.5 -8.85 Q-9.15 -10.75 -6.25 -10.85 L-2.1 -10.4 -2.2 -10.2 -2.05 -10.35 M-30.2 -46.45 Q-28.55 -47.75 -27.05 -47.75 -21.8 -47.75 -19.45 -46.1 -17.1 -44.5 -15.95 -44.5 L-15.85 -44.5 -15.3 -43.95 Q-13.95 -43.8 -11.0 -40.8 -8.45 -38.15 -7.2 -36.2 L-6.15 -34.3 -7.7 -34.95 Q-15.25 -36.5 -20.75 -36.5 L-21.4 -39.45 -21.95 -41.4 -22.25 -41.95 Q-23.1 -43.5 -24.25 -44.4 L-24.3 -44.4 -25.45 -45.2 Q-28.5 -47.0 -30.2 -46.25 L-30.2 -46.45" fill="#915e3c" fill-rule="evenodd" stroke="none"/>
    <path d="M-0.3 -12.2 Q1.0 -13.75 1.35 -14.7 12.3 -10.8 15.05 -6.95 L15.55 -6.4 Q14.65 -5.35 14.0 -3.75 13.55 -2.55 12.35 2.4 L12.15 1.75 Q11.4 0.0 8.75 0.0 6.35 0.0 6.05 0.5 6.2 1.1 6.0 1.3 L7.25 2.3 7.5 3.1 7.5 4.5 Q7.2 5.75 5.55 5.75 2.9 5.75 1.95 1.95 1.6 0.6 1.05 -5.95 0.65 -10.4 -0.3 -12.2 M9.5 12.0 L8.95 14.85 Q-5.9 14.9 -18.25 12.45 L-18.2 6.2 -18.2 -1.4 -18.15 -5.5 -18.1 -7.7 -14.5 -7.05 -14.5 -6.8 -14.5 -3.6 Q-14.5 -2.3 -11.5 -0.5 -10.7 -0.5 -10.55 -0.8 L-10.5 -1.1 Q-10.5 -2.3 -10.05 -3.3 -9.15 -5.25 -6.8 -5.25 -3.85 -5.25 -4.25 -1.45 -4.4 0.6 -5.0 3.75 -3.85 9.0 -2.35 10.75 -0.5 13.0 4.0 13.0 7.4 13.0 9.5 12.0 M-37.55 72.6 L-37.95 69.45 Q-38.45 64.55 -38.9 62.15 L-38.8 62.05 -38.5 61.8 -38.5 61.15 -34.15 57.4 Q-32.2 55.4 -29.5 53.55 L-24.2 50.35 Q-20.95 48.25 -19.9 47.0 L-19.1 46.9 -18.95 46.9 -17.9 46.85 -17.7 45.85 Q-17.0 44.7 -14.2 45.0 L-14.15 45.05 -14.05 45.05 -13.95 45.45 -13.3 45.25 Q-12.5 47.0 -11.2 48.0 L-9.65 46.5 -9.2 47.55 -9.4 47.05 Q-12.6 48.75 -15.7 51.55 L-24.8 60.0 -33.85 68.7 -37.55 72.6 M-32.5 75.5 L-33.05 75.75 -32.65 75.35 -32.5 75.5 M-34.8 78.8 Q-34.2 77.75 -30.5 77.75 L-28.45 77.8 -28.2 78.25 -27.85 78.45 -28.25 80.2 Q-28.8 83.25 -29.85 84.05 -30.9 83.8 -32.9 82.05 -35.0 80.15 -35.0 79.25 L-34.8 78.8" fill="#8a5242" fill-rule="evenodd" stroke="none"/>
    <path d="M32.55 -12.05 L33.15 -14.0 33.7 -14.0 Q36.65 -14.0 40.15 -20.05 40.25 -16.25 39.7 -15.2 L39.7 -15.1 38.65 -11.85 38.5 -11.3 38.5 -11.2 38.4 -11.2 36.45 -11.0 Q33.7 -11.0 32.55 -12.05 M-20.75 -36.5 Q-15.25 -36.5 -7.7 -34.95 L-6.15 -34.3 -5.1 -31.95 Q-3.7 -28.9 -3.2 -27.25 L-2.6 -26.05 -3.95 -26.0 Q-5.75 -26.0 -9.55 -27.15 L-14.2 -28.5 -20.2 -28.85 -20.2 -30.0 Q-20.2 -33.25 -20.75 -36.5 M-30.2 -46.25 L-30.2 -45.2 -27.35 -43.15 -28.4 -42.7 -29.95 -40.9 -30.4 -40.4 Q-32.65 -35.95 -35.7 -25.9 L-36.0 -24.85 Q-37.85 -25.5 -39.4 -26.45 -41.45 -27.7 -41.45 -28.75 L-36.65 -38.3 Q-33.15 -44.15 -30.3 -46.35 L-30.2 -46.25" fill="#593924" fill-rule="evenodd" stroke="none"/>
    <path d="M13.25 14.75 L16.3 10.1 Q17.35 12.0 19.5 12.4 L19.0 13.0 17.6 14.6 13.25 14.75 M19.75 3.9 Q21.7 -0.15 21.7 -2.15 25.55 0.05 27.15 0.45 L25.6 2.65 24.15 5.05 24.0 5.0 Q23.5 5.05 23.2 5.7 22.95 6.3 20.75 6.3 20.0 6.3 19.95 6.05 L20.0 5.75 19.75 3.95 19.75 3.9 M22.0 8.65 L21.75 8.5 22.1 8.5 22.0 8.65 M-28.85 -16.6 Q-29.2 -13.05 -29.2 -8.4 L-28.7 2.8 Q-28.35 7.35 -27.75 10.05 L-33.2 8.1 -34.05 1.0 -34.7 -5.95 -34.6 -13.25 Q-34.6 -15.6 -34.9 -17.35 -33.4 -16.5 -30.7 -16.5 L-28.85 -16.6 M-6.85 52.55 L-5.3 54.25 -10.45 58.9 -16.75 65.3 -23.4 71.8 -27.2 75.65 -27.35 75.5 -32.5 75.5 -32.65 75.35 -32.25 74.9 -23.8 66.75 -12.5 57.2 -6.85 52.55" fill="#b98c6f" fill-rule="evenodd" stroke="none"/>
    <path d="M16.0 16.9 L16.15 17.4 Q16.9 18.8 16.65 19.1 15.1 20.75 -9.55 20.75 L-28.45 19.8 Q-29.55 19.15 -33.5 18.95 L-33.5 18.9 Q-33.8 16.55 -33.7 15.8 L-33.1 12.3 -32.85 10.95 Q-20.4 17.0 4.3 17.0 L15.95 16.6 15.75 16.95 16.0 16.9" fill="#342825" fill-rule="evenodd" stroke="none"/>
    <path d="M-17.15 22.7 L-9.45 23.0 11.5 22.15 17.05 21.45 Q19.95 23.05 20.75 25.05 L21.7 28.8 Q19.85 28.75 19.45 29.35 19.3 29.6 19.3 30.9 19.3 32.45 20.5 34.7 21.7 36.95 21.7 38.1 L21.6 39.55 19.85 39.2 18.3 39.3 Q18.1 44.85 14.85 50.8 L14.8 50.75 Q14.5 49.55 14.35 47.7 L14.1 44.75 13.05 44.5 Q11.55 44.5 10.3 49.0 L9.05 54.75 2.0 49.7 -2.95 46.5 -3.95 46.65 -4.2 46.75 -4.4 51.3 Q-5.8 49.95 -7.2 45.4 -8.4 41.5 -9.45 41.5 -10.15 41.5 -10.7 42.3 L-11.7 43.5 Q-12.55 41.75 -13.0 37.2 -13.45 32.65 -14.2 31.0 -15.4 31.2 -16.3 32.6 L-17.2 34.25 Q-18.2 31.65 -18.2 28.75 L-17.7 25.95 Q-17.2 23.75 -17.2 23.1 L-17.15 22.7" fill="#333a42" fill-rule="evenodd" stroke="none"/>
  </g>
</svg>
