<?xml version="1.0" encoding="UTF-8" standalone="no"?>
<svg xmlns:ffdec="https://www.free-decompiler.com/flash" xmlns:xlink="http://www.w3.org/1999/xlink" ffdec:objectType="shape" height="118.25px" width="82.5px" xmlns="http://www.w3.org/2000/svg">
  <g transform="matrix(1.0, 0.0, 0.0, 1.0, 47.5, 70.25)">
    <path d="M23.5 -25.9 L24.05 -25.35 23.8 -26.25 22.9 -29.3 22.0 -32.25 19.4 -38.4 Q17.9 -41.85 16.0 -44.6 11.95 -50.55 5.65 -56.95 -1.35 -64.05 -7.0 -67.5 L-7.0 -67.4 -6.95 -66.0 -6.7 -63.55 -6.25 -59.6 -4.6 -56.05 Q-3.0 -52.6 -3.0 -51.9 L-3.0 -51.8 -3.2 -50.85 -3.5 -50.6 Q-3.0 -50.5 -4.25 -50.5 -4.9 -50.5 -6.85 -52.15 L-8.85 -53.9 -9.0 -54.0 -9.05 -53.9 Q-9.5 -53.0 -9.5 -50.85 -9.5 -48.3 -8.45 -46.45 -6.6 -43.3 -5.5 -40.0 L-5.55 -39.35 Q-5.7 -39.0 -6.5 -39.0 L-7.75 -39.5 -7.6 -39.35 -5.45 -36.85 -4.45 -37.95 -2.0 -40.35 Q-1.55 -40.9 -0.55 -43.2 0.1 -44.65 1.5 -44.85 L5.2 -40.25 Q8.35 -36.6 11.0 -35.5 L19.95 -29.05 23.5 -25.9 M24.0 -22.5 Q23.25 -23.55 20.25 -26.05 L16.5 -29.0 11.95 -32.3 8.25 -34.85 Q6.15 -35.75 4.6 -37.5 L1.55 -41.0 -0.95 -37.75 Q-2.75 -35.4 -4.05 -35.05 L-3.9 -34.8 -2.9 -33.4 -2.8 -33.25 -2.5 -32.85 -0.55 -29.7 2.05 -24.7 2.1 -24.6 2.25 -24.85 Q9.9 -26.8 18.25 -19.65 L20.9 -17.05 23.5 -13.85 Q25.5 -10.95 25.5 -9.55 L25.3 -7.85 25.5 -7.0 Q25.5 -6.5 24.3 -6.15 L21.45 -5.8 -3.55 -5.1 -9.0 -5.0 -15.55 -5.0 -21.35 -5.0 -21.4 -4.2 -21.4 -0.7 -20.35 -1.0 -20.15 -0.85 -20.05 -0.7 -18.45 -0.75 -17.4 -0.8 -15.65 -0.8 -15.2 -0.8 -13.1 -0.95 -13.05 -0.95 -9.3 -1.0 -4.15 -1.05 -3.95 -0.9 -3.85 -0.75 -3.65 -0.75 -2.75 -0.7 5.0 -0.7 5.0 -0.75 5.8 -0.85 7.3 -0.75 7.3 -0.7 10.65 -0.65 10.65 -0.75 11.5 -1.0 Q11.8 -1.0 12.1 -0.6 L24.6 -0.35 27.45 -0.3 27.6 -0.3 28.0 -0.3 28.05 -0.3 30.1 -0.25 30.25 -0.25 30.25 -0.55 30.3 -3.65 Q30.25 -7.5 29.8 -9.85 L29.5 -11.3 29.35 -11.75 29.3 -11.9 29.5 -12.05 29.75 -12.35 29.25 -13.35 29.25 -13.4 28.75 -14.35 27.55 -16.55 27.35 -16.9 27.25 -17.05 24.25 -21.75 23.55 -22.75 23.95 -22.4 24.15 -22.25 24.0 -22.5 M11.35 -21.45 Q7.2 -23.7 2.95 -22.65 5.6 -16.6 7.9 -7.95 L24.2 -8.0 22.3 -11.5 Q20.85 -14.45 19.0 -15.85 L11.35 -21.45 M5.5 -8.05 Q4.8 -11.2 3.75 -14.1 L0.75 -21.35 -2.3 -28.25 Q-4.45 -32.55 -7.0 -35.1 L-13.6 -42.25 -17.5 -45.35 -21.0 -47.5 Q-27.35 -50.1 -42.9 -55.5 L-43.15 -55.6 -43.05 -55.1 Q-42.4 -52.45 -41.6 -51.5 L-38.95 -48.4 -37.8 -46.75 -37.65 -46.5 -37.05 -45.2 -37.0 -45.0 Q-37.25 -44.0 -38.75 -44.0 -40.35 -44.0 -42.65 -45.5 L-45.35 -47.4 -45.5 -47.5 Q-44.5 -41.35 -38.9 -35.75 L-35.1 -32.6 -33.5 -31.1 -33.55 -30.4 -33.75 -30.35 -35.3 -30.2 -40.0 -30.75 -39.85 -30.0 -39.6 -29.2 Q-39.0 -27.8 -37.5 -26.05 L-34.25 -22.75 -33.0 -21.9 -31.2 -20.6 -30.2 -19.8 -28.55 -17.7 -28.5 -17.25 -28.55 -16.75 Q-28.75 -16.2 -29.3 -15.9 -29.8 -15.6 -31.5 -14.85 L-30.45 -14.3 -24.25 -11.8 Q-19.5 -10.0 -19.5 -7.75 L-19.5 -7.25 -19.45 -7.25 -17.8 -7.4 Q-12.2 -7.8 2.25 -7.9 L5.5 -7.95 5.55 -7.95 5.5 -8.05 M27.0 -22.05 Q29.3 -19.15 30.5 -16.35 L30.25 -15.8 30.2 -15.75 Q31.55 -13.3 31.9 -10.4 L32.7 -0.25 32.6 0.35 32.95 0.65 32.85 0.8 32.55 1.1 32.45 1.45 32.2 1.75 30.7 1.75 30.7 2.7 30.65 3.75 30.7 4.3 30.6 7.45 31.2 8.0 32.7 9.6 Q33.5 10.55 33.7 11.45 L34.45 15.3 34.55 16.25 34.8 16.15 Q35.0 16.2 35.0 17.0 L34.7 18.5 34.7 18.6 34.7 18.65 34.0 21.2 Q33.0 24.8 33.0 26.0 L33.2 30.25 32.85 31.7 33.3 31.75 33.5 34.1 Q33.5 36.25 33.0 37.0 L33.0 37.05 33.0 37.5 Q33.0 39.3 32.0 42.75 30.6 47.5 28.5 47.5 26.0 47.5 25.5 44.25 L25.5 40.8 25.6 38.4 25.7 38.05 Q24.8 37.7 24.5 37.05 L24.5 35.55 Q24.5 34.3 24.7 33.95 25.05 33.3 26.0 32.75 25.7 32.25 25.7 31.5 25.75 27.65 25.5 27.3 L25.5 22.6 Q24.4 24.5 24.0 25.5 22.9 28.15 22.25 32.0 L22.0 32.65 22.0 33.6 Q22.0 35.7 21.0 36.9 L21.0 37.1 Q21.0 39.45 20.0 43.3 18.75 48.0 17.25 48.0 15.35 48.0 13.5 45.3 L13.5 37.5 13.65 37.4 13.5 37.05 13.5 35.55 13.6 33.95 Q13.85 33.2 14.65 32.6 L14.55 32.25 14.5 29.9 14.6 26.25 14.6 26.2 14.7 25.15 15.0 24.05 15.4 22.95 14.5 22.9 14.5 23.85 Q14.4 26.05 14.0 27.25 13.05 30.0 10.25 30.0 6.85 30.0 6.35 28.15 L6.5 25.8 Q6.4 24.85 5.7 23.8 L5.6 23.65 5.5 25.8 Q5.5 29.55 5.15 31.35 4.25 35.5 1.5 35.5 -0.8 35.5 -2.5 34.0 L-4.0 32.3 Q-4.0 34.05 -5.4 37.65 -7.1 42.0 -9.0 42.0 -13.0 42.0 -13.1 37.2 -13.15 34.5 -12.0 30.75 L-12.1 30.3 -14.5 36.4 Q-16.5 41.0 -18.25 41.0 -21.15 41.0 -20.85 34.2 -20.0 26.0 -20.0 23.05 L-20.1 22.8 Q-22.05 29.0 -23.3 31.8 -26.3 38.5 -29.25 38.5 L-31.0 38.25 -31.0 30.75 Q-27.8 21.9 -26.5 17.55 L-26.6 17.3 Q-26.65 17.95 -28.6 19.65 -30.7 21.5 -32.0 21.5 L-34.0 21.25 -34.0 16.3 Q-30.75 9.6 -28.5 7.0 L-25.15 2.2 -23.2 0.25 Q-23.15 -0.15 -22.7 -0.3 L-23.15 -2.35 -23.2 -5.75 -23.15 -8.2 -23.25 -8.25 Q-25.35 -10.15 -27.0 -10.5 -33.5 -11.75 -33.5 -14.65 L-33.35 -16.2 Q-33.0 -17.2 -31.6 -17.6 L-35.7 -21.2 Q-36.9 -21.8 -38.7 -24.15 L-42.0 -28.75 -42.0 -33.25 -41.7 -33.35 -40.75 -33.5 -39.0 -33.1 -37.6 -32.6 Q-41.0 -33.95 -44.35 -39.4 -47.5 -44.55 -47.5 -47.75 L-47.35 -50.25 -47.15 -50.35 -46.25 -50.5 Q-45.4 -50.5 -43.95 -49.35 -42.35 -48.0 -41.6 -47.75 L-44.4 -51.95 Q-45.5 -54.0 -45.5 -56.05 L-45.35 -57.05 -45.65 -57.85 Q-45.25 -58.1 -44.95 -58.5 L-44.8 -58.7 -43.85 -58.35 Q-30.7 -52.9 -25.0 -51.5 -17.45 -47.7 -15.3 -46.25 -13.0 -44.75 -10.35 -42.15 L-9.95 -42.5 -9.0 -42.75 Q-9.35 -43.9 -10.15 -45.15 L-11.5 -47.25 -11.5 -56.25 -9.75 -56.5 -7.6 -56.25 Q-7.25 -55.6 -6.5 -54.85 L-6.35 -54.85 Q-7.7 -56.2 -8.25 -58.95 L-9.0 -63.1 -9.0 -70.25 Q-2.7 -68.35 4.8 -60.7 12.6 -51.9 16.05 -48.75 19.6 -42.9 22.5 -36.15 25.4 -29.5 27.0 -23.6 L27.0 -22.05 M-2.85 1.35 L-3.55 1.05 -6.15 1.25 -6.35 1.3 -6.45 1.15 -6.4 1.0 -6.55 1.0 -6.65 1.0 Q-6.5 1.3 -6.5 2.0 -6.5 4.5 -8.5 16.6 -10.5 28.7 -10.5 35.15 L-10.4 37.5 Q-10.2 38.75 -9.35 39.75 -6.15 36.35 -5.25 30.35 L-4.5 20.55 Q-4.35 18.55 -3.0 10.85 -2.0 5.0 -2.0 1.6 L-2.85 1.35 M-17.95 37.95 Q-15.55 33.9 -13.85 28.5 -12.8 25.15 -11.5 19.0 L-11.0 13.8 Q-10.75 10.9 -9.5 9.25 -9.65 2.9 -8.1 1.05 L-9.7 1.1 -11.5 1.2 -11.5 1.6 Q-11.5 2.65 -12.6 5.75 L-15.0 12.8 Q-18.5 24.05 -18.5 35.0 L-18.25 37.8 -18.0 38.0 -17.95 37.95 M-17.0 1.6 Q-17.0 2.1 -20.05 8.05 -23.35 14.5 -24.0 16.8 -25.75 22.7 -29.0 31.5 L-29.0 36.25 Q-24.65 29.15 -20.25 18.45 -15.85 7.15 -13.3 1.3 L-15.2 1.45 -17.0 1.45 -17.0 1.6 M-21.2 1.85 L-21.4 1.8 -25.25 6.45 Q-30.8 13.2 -32.0 16.8 L-32.0 19.05 -31.85 19.25 Q-28.15 16.8 -24.75 10.15 -21.75 4.25 -19.0 1.45 L-21.15 1.45 -21.2 1.55 -21.2 1.85 M-2.2 30.95 Q-1.4 32.45 2.0 33.25 3.7 28.25 3.5 23.05 3.1 16.4 5.45 14.1 5.3 11.7 5.0 10.8 L5.0 2.0 4.75 2.0 -0.05 1.85 0.0 3.0 Q0.0 5.9 -1.5 15.75 -2.5 25.9 -2.5 28.05 -2.5 30.4 -2.2 30.95 M21.55 2.95 L21.35 2.7 Q18.2 1.85 18.2 4.05 18.2 4.8 18.35 4.95 L18.45 5.2 19.95 5.45 Q21.7 5.45 21.7 3.95 L21.55 2.95 M28.05 14.7 L28.0 15.25 28.1 17.65 28.2 18.1 27.25 19.65 27.2 19.75 Q27.7 21.85 27.85 24.6 L28.25 31.8 30.5 31.75 Q31.0 29.05 31.0 23.05 L32.0 19.2 32.05 19.0 32.6 17.5 Q32.3 14.85 31.5 12.7 30.2 9.2 28.15 9.25 24.1 11.4 21.5 14.9 19.0 18.3 18.75 21.5 L18.65 21.65 18.55 22.5 18.15 22.3 18.0 22.55 17.6 24.5 16.5 28.0 16.5 32.0 16.9 32.15 18.25 32.25 19.05 32.0 19.0 31.75 19.75 31.3 21.1 28.35 Q22.25 23.9 22.75 22.8 L25.0 18.15 25.75 17.0 Q26.75 15.5 27.75 14.85 L28.05 14.7 M15.65 3.5 L16.1 3.45 15.65 3.4 15.65 3.5 M10.6 1.7 L7.35 1.9 7.0 5.75 Q7.0 7.45 7.6 12.55 L7.9 15.0 7.8 15.0 7.75 19.1 7.8 20.65 7.8 21.75 Q7.95 22.8 8.45 23.4 L8.05 23.3 8.05 23.35 Q8.95 25.75 8.5 27.0 L8.85 27.5 9.9 27.75 Q12.05 27.75 12.5 24.9 L12.5 23.95 12.1 23.3 11.8 21.65 11.4 20.35 11.15 18.75 Q11.15 17.95 11.6 17.35 L11.5 17.2 11.5 15.8 Q12.0 14.3 12.0 10.6 12.0 8.75 11.25 5.9 10.75 3.9 10.6 1.7 M15.6 11.3 L15.5 11.35 14.0 12.0 13.5 18.0 13.5 18.4 13.9 19.75 14.0 20.05 14.55 20.05 14.6 19.7 16.6 20.0 16.7 19.9 16.75 18.35 Q16.95 17.6 19.2 13.7 20.7 11.1 23.0 9.5 19.35 9.85 16.35 10.7 L15.6 11.3 M15.5 36.3 Q19.6 36.35 20.0 34.3 L18.5 34.5 16.2 34.1 16.0 34.5 Q15.5 35.4 15.5 36.0 L15.5 36.3 M18.7 38.25 L16.5 38.5 15.25 38.4 Q15.55 39.55 15.5 41.55 15.4 44.95 16.75 45.8 17.75 44.75 18.2 40.85 L18.7 38.25 M26.75 36.3 Q30.3 36.15 31.2 35.45 L31.5 34.5 31.25 33.5 29.0 34.0 27.8 33.9 27.3 34.45 Q26.5 35.35 26.5 35.75 L26.55 36.45 26.55 36.5 26.75 36.3 M27.6 38.45 L27.5 39.0 27.5 41.0 Q27.5 43.55 28.25 45.3 29.9 44.1 30.3 41.5 L30.5 38.4 28.75 38.5 27.6 38.45" fill="#000000" fill-rule="evenodd" stroke="none"/>
    <path d="M30.1 -0.25 L30.25 -0.55 30.25 -0.25 30.1 -0.25" fill="#5b6171" fill-rule="evenodd" stroke="none"/>
    <path d="M21.55 2.95 L21.7 3.95 Q21.7 5.45 19.95 5.45 L18.45 5.2 18.35 4.95 Q18.2 4.8 18.2 4.05 18.2 1.85 21.35 2.7 L21.55 2.95" fill="#ffffff" fill-rule="evenodd" stroke="none"/>
    <path d="M15.6 11.3 L16.35 10.7 Q19.35 9.85 23.0 9.5 20.7 11.1 19.2 13.7 16.95 17.6 16.75 18.35 L16.7 19.9 16.6 20.0 14.6 19.7 14.55 20.05 14.0 20.05 13.9 19.75 13.5 18.4 13.5 18.0 14.0 12.0 15.5 11.35 15.6 11.3" fill="#cdac98" fill-rule="evenodd" stroke="none"/>
    <path d="M15.5 36.3 L15.5 36.0 Q15.5 35.4 16.0 34.5 L16.2 34.1 18.5 34.5 20.0 34.3 Q19.6 36.35 15.5 36.3 M26.55 36.45 L26.5 35.75 Q26.5 35.35 27.3 34.45 L27.8 33.9 29.0 34.0 31.25 33.5 31.5 34.5 31.2 35.45 Q30.3 36.15 26.75 36.3 L26.55 36.45" fill="#046193" fill-rule="evenodd" stroke="none"/>
    <path d="M27.5 -2.6 L27.5 -1.1 27.6 -0.3 27.45 -0.3 27.5 -2.6 M29.5 -12.05 L29.5 -12.1 29.25 -13.35 29.75 -12.35 29.5 -12.05 M-0.55 -29.7 L0.45 -30.55 2.35 -33.0 Q15.65 -26.45 20.9 -17.05 L18.25 -19.65 Q9.9 -26.8 2.25 -24.85 L2.05 -24.7 -0.55 -29.7 M24.3 -6.15 Q24.65 -3.4 24.6 -0.35 L12.1 -0.6 Q11.8 -1.0 11.5 -1.0 L10.65 -0.75 10.65 -0.65 7.3 -0.7 7.3 -0.75 5.8 -0.85 5.0 -0.75 5.0 -0.7 -2.75 -0.7 -3.65 -0.75 -3.6 -0.9 -3.5 -2.9 -3.55 -5.1 21.45 -5.8 24.3 -6.15" fill="#8a5242" fill-rule="evenodd" stroke="none"/>
    <path d="M-2.8 -33.25 L-1.45 -34.3 1.85 -37.35 Q3.25 -35.1 7.3 -32.55 12.2 -29.7 14.5 -28.1 17.4 -26.05 20.1 -22.4 L23.6 -17.25 Q25.05 -15.35 25.95 -12.0 L27.1 -6.75 27.45 -3.15 27.5 -2.6 27.45 -0.3 24.6 -0.35 Q24.65 -3.4 24.3 -6.15 25.5 -6.5 25.5 -7.0 L25.3 -7.85 25.5 -9.55 Q25.5 -10.95 23.5 -13.85 L20.9 -17.05 Q15.65 -26.45 2.35 -33.0 L0.45 -30.55 -0.55 -29.7 -2.5 -32.85 -2.8 -33.25 M-3.55 -5.1 L-3.5 -2.9 -3.6 -0.9 -4.15 -1.05 -9.3 -1.0 -13.05 -0.95 -13.1 -0.95 -15.2 -0.8 -15.65 -0.8 Q-16.0 -1.4 -16.0 -3.0 -16.0 -4.25 -15.55 -5.0 L-9.0 -5.0 -3.55 -5.1" fill="#583429" fill-rule="evenodd" stroke="none"/>
    <path d="M19.95 -29.05 L11.0 -35.5 Q8.35 -36.6 5.2 -40.25 L1.5 -44.85 Q0.1 -44.65 -0.55 -43.2 -1.55 -40.9 -2.0 -40.35 L-4.45 -37.95 -5.45 -36.85 -7.6 -39.35 -7.75 -39.5 -6.5 -39.0 Q-5.7 -39.0 -5.55 -39.35 L-5.5 -40.0 Q-6.6 -43.3 -8.45 -46.45 -9.5 -48.3 -9.5 -50.85 L-9.2 -50.3 Q-7.55 -47.5 -4.9 -47.5 -2.4 -47.5 -2.4 -49.75 -2.4 -50.95 -3.0 -51.8 L-3.0 -51.9 Q-3.0 -52.6 -4.6 -56.05 L-6.25 -59.6 -6.7 -63.55 -6.95 -66.0 -6.9 -65.5 Q-6.0 -63.8 -3.4 -61.25 L2.5 -55.6 Q8.5 -49.2 12.6 -44.0 14.0 -42.2 15.95 -38.3 L18.85 -32.35 19.95 -29.05 M-9.05 -53.9 L-9.0 -54.0 -8.85 -53.9 -9.05 -53.9 M11.35 -21.45 L19.0 -15.85 Q20.85 -14.45 22.3 -11.5 L24.2 -8.0 7.9 -7.95 Q5.6 -16.6 2.95 -22.65 7.2 -23.7 11.35 -21.45 M-3.6 -0.9 L-3.65 -0.75 -3.85 -0.75 -3.95 -0.9 -4.15 -1.05 -3.6 -0.9 M-37.8 -46.75 L-36.3 -46.5 -33.35 -45.25 Q-32.9 -44.95 -28.85 -43.55 L-24.5 -42.0 Q-16.15 -37.75 -16.0 -33.85 L-16.25 -33.3 Q-16.45 -33.0 -17.25 -33.0 L-17.8 -33.35 -20.6 -35.35 Q-24.45 -37.9 -27.6 -38.75 L-33.55 -40.35 Q-35.2 -40.9 -36.85 -42.0 -37.35 -42.3 -38.7 -43.95 L-38.75 -44.0 Q-37.25 -44.0 -37.0 -45.0 L-37.05 -45.2 -37.65 -46.5 -37.8 -46.75 M-35.1 -32.6 L-31.15 -31.35 -30.55 -31.1 -30.05 -30.9 -28.75 -30.4 -28.65 -30.35 -24.35 -28.75 -18.35 -26.95 -15.95 -25.95 Q-14.15 -25.0 -12.95 -23.3 L-13.0 -23.3 -12.65 -22.8 -12.5 -22.5 -12.8 -21.9 -12.85 -21.85 -13.5 -21.5 -13.55 -21.55 Q-15.5 -23.05 -20.4 -24.35 L-25.45 -25.55 Q-32.05 -26.9 -35.3 -30.2 L-33.75 -30.35 -33.55 -30.4 -33.5 -31.1 -35.1 -32.6 M-31.2 -20.6 L-27.75 -19.95 -22.15 -19.3 Q-15.55 -18.2 -13.0 -13.0 L-13.2 -12.35 Q-13.45 -12.0 -14.25 -12.0 -15.15 -12.0 -15.7 -12.5 L-17.0 -13.65 Q-19.5 -15.55 -26.6 -16.25 L-28.55 -16.75 -28.5 -17.25 -28.55 -17.7 -30.2 -19.8 -31.2 -20.6" fill="#593924" fill-rule="evenodd" stroke="none"/>
    <path d="M23.5 -25.9 L19.95 -29.05 18.85 -32.35 15.95 -38.3 Q14.0 -42.2 12.6 -44.0 8.5 -49.2 2.5 -55.6 L-3.4 -61.25 Q-6.0 -63.8 -6.9 -65.5 L-6.95 -66.0 -7.0 -67.4 -7.0 -67.5 Q-1.35 -64.05 5.65 -56.95 11.95 -50.55 16.0 -44.6 17.9 -41.85 19.4 -38.4 L22.0 -32.25 22.9 -29.3 23.8 -26.25 23.5 -25.9 M-9.5 -50.85 Q-9.5 -53.0 -9.05 -53.9 L-8.85 -53.9 -6.85 -52.15 Q-4.9 -50.5 -4.25 -50.5 -3.0 -50.5 -3.5 -50.6 L-3.2 -50.85 -3.0 -51.8 Q-2.4 -50.95 -2.4 -49.75 -2.4 -47.5 -4.9 -47.5 -7.55 -47.5 -9.2 -50.3 L-9.5 -50.85 M-42.9 -55.5 L-41.5 -53.6 Q-39.45 -51.0 -38.4 -51.0 -31.55 -51.0 -17.9 -42.85 L-12.0 -36.6 Q-8.8 -32.85 -7.65 -30.35 L-3.95 -23.95 Q-1.2 -19.65 -0.55 -17.6 L1.5 -10.15 2.25 -7.9 Q-12.2 -7.8 -17.8 -7.4 L-19.45 -7.25 -19.5 -7.75 Q-19.5 -10.0 -24.25 -11.8 L-30.45 -14.3 Q-29.05 -13.95 -26.3 -14.25 -22.85 -14.65 -21.05 -13.65 -19.05 -12.6 -15.7 -12.5 -15.15 -12.0 -14.25 -12.0 -13.45 -12.0 -13.2 -12.35 L-13.0 -13.0 Q-15.55 -18.2 -22.15 -19.3 L-27.75 -19.95 -31.2 -20.6 -33.0 -21.9 -34.25 -22.75 -37.5 -26.05 Q-39.0 -27.8 -39.6 -29.2 -37.7 -27.85 -33.05 -25.75 -23.65 -21.5 -14.15 -21.5 L-13.55 -21.55 -13.5 -21.5 -12.85 -21.85 -12.95 -21.75 Q-12.55 -22.05 -12.4 -22.5 L-12.8 -23.25 -12.95 -23.3 Q-14.15 -25.0 -15.95 -25.95 L-18.35 -26.95 -24.35 -28.75 -28.65 -30.35 -28.75 -30.4 -30.05 -30.9 -30.55 -31.1 -31.15 -31.35 -35.1 -32.6 -38.9 -35.75 Q-44.5 -41.35 -45.5 -47.5 L-45.35 -47.4 Q-45.15 -45.4 -42.6 -43.15 -40.55 -41.35 -37.55 -39.75 -35.1 -38.4 -27.25 -36.2 -19.9 -34.15 -18.4 -33.0 -18.05 -33.15 -17.8 -33.35 L-17.25 -33.0 Q-16.45 -33.0 -16.25 -33.3 L-16.0 -33.85 Q-16.15 -37.75 -24.5 -42.0 L-28.85 -43.55 Q-32.9 -44.95 -33.35 -45.25 L-36.3 -46.5 -37.8 -46.75 -38.95 -48.4 -41.6 -51.5 Q-42.4 -52.45 -43.05 -55.1 L-42.9 -55.5 M5.5 -7.95 L5.5 -8.05 5.55 -7.95 5.5 -7.95" fill="#915e3c" fill-rule="evenodd" stroke="none"/>
    <path d="M-42.9 -55.5 Q-27.35 -50.1 -21.0 -47.5 L-17.5 -45.35 -13.6 -42.25 -7.0 -35.1 Q-4.45 -32.55 -2.3 -28.25 L0.75 -21.35 3.75 -14.1 Q4.8 -11.2 5.5 -8.05 L5.5 -7.95 2.25 -7.9 1.5 -10.15 -0.55 -17.6 Q-1.2 -19.65 -3.95 -23.95 L-7.65 -30.35 Q-8.8 -32.85 -12.0 -36.6 L-17.9 -42.85 Q-31.55 -51.0 -38.4 -51.0 -39.45 -51.0 -41.5 -53.6 L-42.9 -55.5 M-17.8 -33.35 Q-18.05 -33.15 -18.4 -33.0 -19.9 -34.15 -27.25 -36.2 -35.1 -38.4 -37.55 -39.75 -40.55 -41.35 -42.6 -43.15 -45.15 -45.4 -45.35 -47.4 L-42.65 -45.5 Q-40.35 -44.0 -38.75 -44.0 L-38.7 -43.95 Q-37.35 -42.3 -36.85 -42.0 -35.2 -40.9 -33.55 -40.35 L-27.6 -38.75 Q-24.45 -37.9 -20.6 -35.35 L-17.8 -33.35 M-12.95 -23.3 L-12.8 -23.25 -12.4 -22.5 Q-12.55 -22.05 -12.95 -21.75 L-12.85 -21.85 -12.8 -21.9 -12.5 -22.5 -12.65 -22.8 -13.0 -23.3 -12.95 -23.3 M-13.55 -21.55 L-14.15 -21.5 Q-23.65 -21.5 -33.05 -25.75 -37.7 -27.85 -39.6 -29.2 L-39.85 -30.0 -40.0 -30.75 -35.3 -30.2 Q-32.05 -26.9 -25.45 -25.55 L-20.4 -24.35 Q-15.5 -23.05 -13.55 -21.55 M-15.7 -12.5 Q-19.05 -12.6 -21.05 -13.65 -22.85 -14.65 -26.3 -14.25 -29.05 -13.95 -30.45 -14.3 L-31.5 -14.85 Q-29.8 -15.6 -29.3 -15.9 -28.75 -16.2 -28.55 -16.75 L-26.6 -16.25 Q-19.5 -15.55 -17.0 -13.65 L-15.7 -12.5" fill="#af8661" fill-rule="evenodd" stroke="none"/>
    <path d="M-2.8 -33.25 L-2.9 -33.4 -3.9 -34.8 -4.05 -35.05 Q-2.75 -35.4 -0.95 -37.75 L1.55 -41.0 4.6 -37.5 Q6.15 -35.75 8.25 -34.85 L11.95 -32.3 16.5 -29.0 20.25 -26.05 Q23.25 -23.55 24.0 -22.5 L23.95 -22.4 23.55 -22.75 24.25 -21.75 27.25 -17.05 27.35 -16.9 27.55 -16.55 28.75 -14.35 29.25 -13.4 29.25 -13.35 29.5 -12.1 29.5 -12.05 29.3 -11.9 29.35 -11.75 29.5 -11.3 29.8 -9.85 Q30.25 -7.5 30.3 -3.65 L30.25 -0.55 30.1 -0.25 28.05 -0.3 28.0 -0.3 27.6 -0.3 27.5 -1.1 27.5 -2.6 27.45 -3.15 27.1 -6.75 25.95 -12.0 Q25.05 -15.35 23.6 -17.25 L20.1 -22.4 Q17.4 -26.05 14.5 -28.1 12.2 -29.7 7.3 -32.55 3.25 -35.1 1.85 -37.35 L-1.45 -34.3 -2.8 -33.25 M-15.65 -0.8 L-17.4 -0.8 -18.45 -0.75 -20.05 -0.7 -20.15 -0.85 -20.35 -1.0 -21.4 -0.7 -21.4 -4.2 -21.35 -5.0 -15.55 -5.0 Q-16.0 -4.25 -16.0 -3.0 -16.0 -1.4 -15.65 -0.8" fill="#b98c6f" fill-rule="evenodd" stroke="none"/>
    <path d="M-18.25 37.8 L-18.5 35.0 Q-18.5 24.05 -15.0 12.8 L-12.6 5.75 Q-11.5 2.65 -11.5 1.6 L-11.5 1.2 -9.7 1.1 -8.1 1.05 Q-9.65 2.9 -9.5 9.25 -10.75 10.9 -11.0 13.8 L-11.5 19.0 Q-12.8 25.15 -13.85 28.5 -15.55 33.9 -17.95 37.95 L-18.25 37.8 M-2.85 1.35 L-2.0 1.6 Q-2.0 5.0 -3.0 10.85 -4.35 18.55 -4.5 20.55 L-5.25 30.35 Q-6.15 36.35 -9.35 39.75 -10.2 38.75 -10.4 37.5 L-10.5 35.15 Q-10.5 28.7 -8.5 16.6 -6.5 4.5 -6.5 2.0 -6.5 1.3 -6.65 1.0 L-6.55 1.0 -6.4 1.0 -6.45 1.15 -6.35 1.3 -6.15 1.25 -3.55 1.05 -2.85 1.35 M-2.2 30.95 Q-2.5 30.4 -2.5 28.05 -2.5 25.9 -1.5 15.75 0.0 5.9 0.0 3.0 L-0.05 1.85 4.75 2.0 5.0 2.0 5.0 10.8 Q5.3 11.7 5.45 14.1 3.1 16.4 3.5 23.05 3.7 28.25 2.0 33.25 -1.4 32.45 -2.2 30.95 M-21.2 1.85 L-21.2 1.55 -21.15 1.45 -19.0 1.45 Q-21.75 4.25 -24.75 10.15 -28.15 16.8 -31.85 19.25 L-32.0 19.05 -32.0 16.8 Q-30.8 13.2 -25.25 6.45 L-21.4 1.8 -21.2 1.85 M-17.0 1.6 L-17.0 1.45 -15.2 1.45 -13.3 1.3 Q-15.85 7.15 -20.25 18.45 -24.65 29.15 -29.0 36.25 L-29.0 31.5 Q-25.75 22.7 -24.0 16.8 -23.35 14.5 -20.05 8.05 -17.0 2.1 -17.0 1.6 M28.05 14.7 L27.75 14.85 Q26.75 15.5 25.75 17.0 L25.0 18.15 22.75 22.8 Q22.25 23.9 21.1 28.35 L19.75 31.3 19.0 31.75 19.05 32.0 18.25 32.25 16.9 32.15 16.5 32.0 16.5 28.0 17.6 24.5 18.0 22.55 18.15 22.3 18.55 22.5 18.65 21.65 18.75 21.5 Q19.0 18.3 21.5 14.9 24.1 11.4 28.15 9.25 30.2 9.2 31.5 12.7 32.3 14.85 32.6 17.5 L32.05 19.0 32.0 19.2 31.0 23.05 Q31.0 29.05 30.5 31.75 L28.25 31.8 27.85 24.6 Q27.7 21.85 27.2 19.75 L27.25 19.65 28.2 18.1 28.1 17.65 28.0 15.25 28.05 14.7 M10.6 1.7 Q10.75 3.9 11.25 5.9 12.0 8.75 12.0 10.6 12.0 14.3 11.5 15.8 L11.5 17.2 11.6 17.35 Q11.15 17.95 11.15 18.75 L11.4 20.35 11.8 21.65 12.1 23.3 12.5 23.95 12.5 24.9 Q12.05 27.75 9.9 27.75 L8.85 27.5 8.5 27.0 Q8.95 25.75 8.05 23.35 L8.05 23.3 8.45 23.4 Q7.95 22.8 7.8 21.75 L7.8 20.65 7.75 19.1 7.8 15.0 7.9 15.0 7.6 12.55 Q7.0 7.45 7.0 5.75 L7.35 1.9 10.6 1.7 M18.7 38.25 L18.2 40.85 Q17.75 44.75 16.75 45.8 15.4 44.95 15.5 41.55 15.55 39.55 15.25 38.4 L16.5 38.5 18.7 38.25 M27.6 38.45 L28.75 38.5 30.5 38.4 30.3 41.5 Q29.9 44.1 28.25 45.3 27.5 43.55 27.5 41.0 L27.5 39.0 27.6 38.45" fill="#282828" fill-rule="evenodd" stroke="none"/>
  </g>
</svg>
