<?xml version="1.0" encoding="UTF-8" standalone="no"?>
<svg xmlns:ffdec="https://www.free-decompiler.com/flash" xmlns:xlink="http://www.w3.org/1999/xlink" ffdec:objectType="shape" height="88.25px" width="88.5px" xmlns="http://www.w3.org/2000/svg">
  <g transform="matrix(1.0, 0.0, 0.0, 1.0, 44.25, 44.1)">
    <path d="M-29.4 35.95 Q-30.75 34.75 -31.75 33.1 -33.25 30.65 -34.1 29.85 L-37.25 26.7 -38.9 24.95 -40.6 22.8 -41.1 21.65 Q-41.65 19.85 -41.65 16.65 -41.65 13.85 -41.2 12.05 -40.75 10.3 -39.15 6.9 L-37.05 4.1 -35.65 2.5 -35.55 2.4 -34.65 1.25 -33.85 -0.1 Q-33.2 -1.45 -33.15 -2.75 L-33.15 -2.8 -33.15 -2.9 Q-33.05 -9.05 -31.85 -12.9 -30.2 -18.35 -25.6 -23.15 -21.85 -27.1 -13.2 -32.35 L-5.75 -36.65 -1.1 -39.15 1.35 -39.9 6.35 -41.15 7.6 -41.35 9.6 -41.4 9.95 -41.35 Q12.6 -40.9 20.75 -38.4 L21.65 -38.15 Q30.4 -36.0 33.25 -34.9 35.75 -34.0 38.95 -30.9 L40.0 -29.85 36.1 -29.85 Q34.35 -31.7 33.25 -32.35 30.8 -33.75 28.7 -34.3 L24.75 -34.9 21.55 -35.65 19.6 -36.15 14.75 -37.4 Q11.6 -38.4 7.45 -37.85 L6.65 -37.45 2.65 -35.95 -4.1 -33.6 -7.8 -31.35 -11.95 -28.8 -12.6 -28.4 Q-18.05 -24.95 -21.15 -21.35 L-24.0 -17.25 -25.65 -14.15 Q-27.35 -10.8 -28.45 -6.8 -29.65 -2.45 -29.65 0.85 L-29.7 1.75 -29.8 2.9 -29.85 3.2 -30.15 4.6 -30.45 5.45 -31.75 6.8 -33.6 8.1 -34.2 8.9 -36.45 12.05 Q-36.65 12.6 -36.65 15.5 -36.65 17.3 -36.25 18.75 L-35.5 20.6 -35.45 20.65 -35.6 21.45 -33.5 23.05 -33.1 23.35 -31.8 24.5 Q-30.45 25.25 -29.3 26.15 L-29.45 33.4 -29.4 35.95 M41.6 -27.75 Q42.25 -26.7 42.25 -25.9 42.25 -21.3 35.75 -18.85 33.3 -17.9 31.65 -16.5 L30.65 -15.6 Q28.9 -13.75 28.75 -11.65 28.6 -9.15 27.1 -3.2 L26.35 0.15 26.2 1.05 Q25.75 3.35 25.75 4.85 L25.75 4.95 Q25.75 6.9 26.5 9.55 27.25 12.2 27.25 13.45 27.25 17.75 26.4 20.4 L22.9 28.1 Q20.5 33.1 18.15 34.85 L16.7 35.85 16.7 35.9 16.3 36.35 14.8 37.2 14.75 37.2 Q10.7 39.95 9.9 40.2 L-1.6 40.85 -2.25 40.85 -4.8 40.85 -16.65 40.35 -16.85 40.2 Q-17.95 39.55 -20.8 39.0 L-20.85 39.0 -21.6 38.85 -25.2 37.95 -27.55 37.15 -27.15 27.95 -27.05 28.05 Q-24.7 30.4 -24.7 32.05 L-23.65 32.65 -21.55 34.2 -17.3 34.7 -12.5 34.95 -6.0 35.2 -2.05 35.25 -0.2 35.2 0.3 35.2 0.35 35.2 6.05 35.8 6.35 36.0 6.45 35.95 13.8 34.45 15.15 33.15 16.9 30.85 17.5 29.85 19.45 26.8 Q21.4 23.9 21.65 22.6 22.35 19.2 22.65 14.5 22.9 10.2 22.75 6.55 L22.75 6.4 23.8 0.1 23.9 -0.65 24.75 -9.65 25.95 -14.05 Q26.6 -16.5 28.9 -17.65 L30.45 -18.4 35.7 -21.1 Q39.25 -23.3 39.25 -25.35 39.25 -26.0 37.95 -27.7 L41.6 -27.75 M-35.4 25.5 L-35.1 25.9 -34.95 26.05 -34.15 26.4 -34.75 25.9 -35.5 25.35 -35.4 25.5" fill="#766463" fill-rule="evenodd" stroke="none"/>
    <path d="M40.0 -29.85 L38.95 -30.9 Q35.75 -34.0 33.25 -34.9 30.4 -36.0 21.65 -38.15 L20.75 -38.4 Q12.6 -40.9 9.95 -41.35 L9.6 -41.4 7.6 -41.35 6.35 -41.15 1.35 -39.9 -1.1 -39.15 -5.75 -36.65 -13.2 -32.35 Q-21.85 -27.1 -25.6 -23.15 -30.2 -18.35 -31.85 -12.9 -33.05 -9.05 -33.15 -2.9 L-33.15 -2.8 -33.15 -2.75 Q-33.2 -1.45 -33.85 -0.1 L-34.65 1.25 -35.55 2.4 -35.65 2.5 -37.05 4.1 -39.15 6.9 Q-40.75 10.3 -41.2 12.05 -41.65 13.85 -41.65 16.65 -41.65 19.85 -41.1 21.65 L-40.6 22.8 -38.9 24.95 -37.25 26.7 -34.1 29.85 Q-33.25 30.65 -31.75 33.1 -30.75 34.75 -29.4 35.95 L-29.4 36.0 -28.95 36.4 -28.65 36.6 -27.55 37.15 -25.2 37.95 -21.6 38.85 -20.85 39.0 -20.8 39.0 Q-17.95 39.55 -16.85 40.2 L-16.65 40.35 -4.8 40.85 -2.25 40.85 -1.6 40.85 9.9 40.2 Q10.7 39.95 14.75 37.2 L14.8 37.2 16.3 36.35 16.7 35.9 16.7 35.85 18.15 34.85 Q20.5 33.1 22.9 28.1 L26.4 20.4 Q27.25 17.75 27.25 13.45 27.25 12.2 26.5 9.55 25.75 6.9 25.75 4.95 L25.75 4.85 Q25.75 3.35 26.2 1.05 L26.35 0.15 27.1 -3.2 Q28.6 -9.15 28.75 -11.65 28.9 -13.75 30.65 -15.6 L31.65 -16.5 Q33.3 -17.9 35.75 -18.85 42.25 -21.3 42.25 -25.9 42.25 -26.7 41.6 -27.75 L40.0 -29.85 M17.45 -41.85 L20.05 -41.35 Q24.1 -40.5 28.4 -39.05 44.25 -33.85 44.25 -26.05 44.25 -21.9 42.5 -19.8 41.25 -18.3 38.45 -17.25 34.75 -15.9 33.9 -15.4 32.65 -14.65 31.85 -13.5 31.5 -10.4 29.55 -3.8 L29.25 -2.8 28.45 1.35 28.25 2.35 Q28.7 3.6 28.55 5.3 L28.85 7.3 29.05 8.05 29.3 10.8 29.9 16.85 29.5 18.8 Q29.05 20.1 29.05 20.7 L26.35 26.55 23.05 32.85 20.45 35.8 18.65 37.25 17.95 37.75 Q17.25 39.25 14.75 40.5 12.7 41.5 9.65 42.15 5.85 43.9 3.1 44.15 L2.7 44.1 -7.25 43.25 -8.65 43.5 -11.8 42.9 -16.15 43.15 -16.85 43.0 -22.1 42.25 -27.25 40.05 -29.2 39.4 -32.75 36.75 Q-33.9 35.4 -34.2 34.1 L-34.3 33.75 -35.75 31.65 -37.2 30.4 -40.85 27.5 -43.3 24.35 Q-44.1 23.0 -44.1 21.45 L-44.0 20.65 -44.1 20.1 -43.95 18.4 -44.2 17.4 -44.25 15.35 -44.25 15.3 Q-43.8 14.2 -43.8 13.55 L-43.35 10.45 -43.2 9.6 -42.05 7.9 -41.15 5.65 Q-40.75 4.65 -39.5 3.4 -38.4 1.45 -36.85 -0.05 L-36.75 -1.45 -35.95 -9.55 Q-35.5 -12.6 -33.15 -16.4 L-31.5 -18.95 -30.1 -21.8 Q-28.5 -24.6 -26.45 -26.8 L-22.85 -29.2 Q-18.7 -32.2 -16.2 -34.65 L-15.8 -35.0 -12.45 -36.6 -5.85 -39.5 Q-4.0 -39.95 -0.55 -41.35 L1.7 -42.3 2.8 -42.75 2.85 -42.75 3.0 -42.85 4.95 -43.75 6.3 -44.05 Q13.45 -44.35 17.45 -41.85" fill="#000000" fill-rule="evenodd" stroke="none"/>
    <path d="M-29.3 26.15 Q-30.45 25.25 -31.8 24.5 L-33.1 23.35 -33.5 23.05 -35.6 21.45 -35.45 20.65 -35.5 20.6 -36.25 18.75 Q-36.65 17.3 -36.65 15.5 -36.65 12.6 -36.45 12.05 L-34.2 8.9 -33.6 8.1 -31.75 6.8 -30.45 5.45 -30.15 4.6 -29.85 3.2 -29.8 2.9 -29.7 1.75 -29.65 0.85 Q-29.65 -2.45 -28.45 -6.8 -27.35 -10.8 -25.65 -14.15 L-24.0 -17.25 -21.15 -21.35 Q-18.05 -24.95 -12.6 -28.4 L-11.95 -28.8 -7.8 -31.35 -4.1 -33.6 2.65 -35.95 6.65 -37.45 7.45 -37.85 Q11.6 -38.4 14.75 -37.4 L19.6 -36.15 21.55 -35.65 24.75 -34.9 28.7 -34.3 Q30.8 -33.75 33.25 -32.35 34.35 -31.7 36.1 -29.85 L14.05 -29.85 10.55 -28.8 10.55 -31.35 10.35 -32.1 8.35 -32.3 8.1 -32.1 8.05 -31.35 8.1 -28.05 2.65 -26.35 0.1 -25.4 0.0 -25.6 Q-1.05 -28.25 -2.95 -26.8 -2.85 -25.7 -2.05 -24.2 L-2.9 -23.35 -5.4 -19.35 -7.5 -19.1 Q-7.95 -19.0 -7.95 -18.45 L-7.8 -17.5 -7.65 -17.35 -6.7 -17.35 -8.65 -14.1 -11.3 -9.6 Q-13.1 -6.45 -13.45 -4.8 L-13.45 0.15 -15.75 2.0 Q-16.95 3.0 -16.95 4.65 -16.95 5.85 -15.65 7.45 -19.45 8.35 -20.65 10.0 L-22.2 12.95 -24.3 14.9 Q-25.05 13.9 -26.4 13.9 L-26.45 14.8 -25.9 16.25 Q-28.15 18.2 -28.45 19.4 L-28.95 22.2 -29.35 22.15 -32.45 22.2 -32.15 23.4 -29.25 24.2 -29.15 24.25 -29.3 26.15 M37.95 -27.7 Q39.25 -26.0 39.25 -25.35 39.25 -23.3 35.7 -21.1 L30.45 -18.4 28.9 -17.65 Q26.6 -16.5 25.95 -14.05 L24.75 -9.65 23.9 -0.65 23.8 0.1 22.75 6.4 22.75 6.55 Q22.9 10.2 22.65 14.5 22.35 19.2 21.65 22.6 21.4 23.9 19.45 26.8 L17.5 29.85 16.9 30.85 15.15 33.15 13.8 34.45 6.45 35.95 6.05 35.8 0.35 35.2 0.3 35.2 -0.2 35.2 -2.05 35.25 -6.0 35.2 -12.5 34.95 -17.3 34.7 -21.55 34.2 -23.65 32.65 -24.7 32.05 Q-24.7 30.4 -27.05 28.05 L-27.15 27.95 -27.0 24.65 -26.95 24.65 Q-25.6 24.65 -24.95 23.65 L-25.4 22.9 -26.9 22.55 -26.9 21.9 Q-26.85 20.15 -24.7 18.2 -23.35 20.15 -21.95 20.15 -20.7 20.15 -21.2 19.7 L-20.95 18.65 -22.6 17.05 -22.9 16.75 -20.9 14.9 Q-20.5 14.4 -20.0 12.45 -19.6 10.95 -18.7 10.7 L-15.4 9.85 -13.95 9.45 Q-13.45 9.1 -13.45 7.55 -13.45 6.85 -13.8 6.25 L-14.95 4.45 Q-13.5 2.95 -11.85 2.3 -10.95 1.9 -10.95 1.05 L-11.3 -2.65 Q-11.35 -5.15 -9.9 -7.1 -9.05 -8.25 -7.55 -11.25 L-5.45 -15.35 -4.5 -17.35 -2.4 -17.35 -2.1 -17.65 Q-1.95 -17.65 -1.95 -18.35 L-2.15 -19.2 -2.4 -19.35 -3.4 -19.35 -3.15 -19.8 -0.95 -22.25 0.55 -20.85 1.55 -21.85 0.9 -23.45 1.05 -23.55 4.35 -24.95 8.25 -25.9 Q8.55 -23.1 9.55 -21.85 10.05 -22.05 10.55 -22.35 L10.55 -26.25 11.05 -26.35 12.65 -27.0 14.1 -27.6 37.95 -27.7" fill="#544847" fill-rule="evenodd" stroke="none"/>
    <path d="M-29.4 35.95 L-29.45 33.4 -29.3 26.15 -29.15 24.25 -29.25 24.2 -32.15 23.4 -32.45 22.2 -29.35 22.15 -28.95 22.2 -28.45 19.4 Q-28.15 18.2 -25.9 16.25 L-26.45 14.8 -26.4 13.9 Q-25.05 13.9 -24.3 14.9 L-22.2 12.95 -20.65 10.0 Q-19.45 8.35 -15.65 7.45 -16.95 5.85 -16.95 4.65 -16.95 3.0 -15.75 2.0 L-13.45 0.15 -13.45 -4.8 Q-13.1 -6.45 -11.3 -9.6 L-8.65 -14.1 -6.7 -17.35 -7.65 -17.35 -7.8 -17.5 -7.95 -18.45 Q-7.95 -19.0 -7.5 -19.1 L-5.4 -19.35 -2.9 -23.35 -2.05 -24.2 Q-2.85 -25.7 -2.95 -26.8 -1.05 -28.25 0.0 -25.6 L0.1 -25.4 2.65 -26.35 8.1 -28.05 8.05 -31.35 8.1 -32.1 8.35 -32.3 10.35 -32.1 10.55 -31.35 10.55 -28.8 14.05 -29.85 36.1 -29.85 40.0 -29.85 41.6 -27.75 37.95 -27.7 14.1 -27.6 12.65 -27.0 11.05 -26.35 10.55 -26.25 10.55 -22.35 Q10.05 -22.05 9.55 -21.85 8.55 -23.1 8.25 -25.9 L4.35 -24.95 1.05 -23.55 0.9 -23.45 1.55 -21.85 0.55 -20.85 -0.95 -22.25 -3.15 -19.8 -3.4 -19.35 -2.4 -19.35 -2.15 -19.2 -1.95 -18.35 Q-1.95 -17.65 -2.1 -17.65 L-2.4 -17.35 -4.5 -17.35 -5.45 -15.35 -7.55 -11.25 Q-9.05 -8.25 -9.9 -7.1 -11.35 -5.15 -11.3 -2.65 L-10.95 1.05 Q-10.95 1.9 -11.85 2.3 -13.5 2.95 -14.95 4.45 L-13.8 6.25 Q-13.45 6.85 -13.45 7.55 -13.45 9.1 -13.95 9.45 L-15.4 9.85 -18.7 10.7 Q-19.6 10.95 -20.0 12.45 -20.5 14.4 -20.9 14.9 L-22.9 16.75 -22.6 17.05 -20.95 18.65 -21.2 19.7 Q-20.7 20.15 -21.95 20.15 -23.35 20.15 -24.7 18.2 -26.85 20.15 -26.9 21.9 L-26.9 22.55 -25.4 22.9 -24.95 23.65 Q-25.6 24.65 -26.95 24.65 L-27.0 24.65 -27.15 27.95 -27.55 37.15 -28.65 36.6 -28.95 36.4 -29.4 36.0 -29.4 35.95" fill="#332b2b" fill-rule="evenodd" stroke="none"/>
    <path d="M6.45 35.95 L6.35 36.0 6.05 35.8 6.45 35.95 M-35.4 25.5 L-35.5 25.35 -34.75 25.9 -34.15 26.4 -34.95 26.05 -35.1 25.9 -35.4 25.5" fill="#794d31" fill-rule="evenodd" stroke="none"/>
  </g>
</svg>
