<?xml version="1.0" encoding="UTF-8" standalone="no"?>
<svg xmlns:ffdec="https://www.free-decompiler.com/flash" xmlns:xlink="http://www.w3.org/1999/xlink" ffdec:objectType="shape" height="79.75px" width="63.25px" xmlns="http://www.w3.org/2000/svg">
  <g transform="matrix(1.0, 0.0, 0.0, 1.0, 31.6, 39.85)">
    <path d="M11.25 -27.2 L16.1 -27.85 16.25 -27.65 20.15 -27.6 24.15 -26.1 27.2 -24.95 26.1 -26.4 Q22.25 -30.45 14.05 -31.6 L13.9 -31.7 8.8 -32.35 3.65 -32.9 Q3.3 -31.1 -0.3 -27.55 L-0.25 -25.9 -0.15 -25.85 1.35 -24.75 2.3 -25.15 5.15 -26.05 10.45 -27.1 11.2 -27.2 11.25 -27.2 M25.15 -29.6 L28.55 -26.4 30.95 -23.5 31.3 -23.35 31.65 -22.6 31.15 -21.9 31.15 -21.2 Q29.7 -22.25 28.55 -22.1 L24.0 -23.95 Q19.15 -25.9 15.1 -25.7 L14.05 -25.6 Q10.05 -25.15 6.9 -23.95 L3.05 -22.6 3.15 -21.95 Q3.15 -21.0 2.65 -20.35 2.1 -19.6 1.15 -19.6 0.95 -19.6 0.1 -20.05 L0.15 -18.85 Q0.25 -17.55 2.75 -7.8 5.15 1.65 5.15 3.2 5.15 5.45 3.35 14.7 2.0 21.95 3.0 25.9 7.7 26.05 8.7 28.9 9.2 30.4 8.65 32.2 8.65 35.85 7.8 37.15 6.0 39.9 -0.1 39.9 -5.45 39.9 -7.2 36.9 -8.35 34.9 -8.35 29.7 -8.35 24.2 -6.35 19.85 -4.35 15.55 -4.35 11.75 -4.35 5.4 -6.2 0.9 -9.0 -5.95 -8.85 -10.05 -8.65 -13.45 -9.3 -19.6 L-9.6 -19.45 Q-10.2 -19.1 -10.35 -19.1 L-10.6 -19.1 -12.4 -18.55 -16.85 -17.3 -19.4 -15.95 Q-21.2 -15.1 -24.6 -15.1 -30.25 -15.1 -31.35 -18.55 -31.7 -19.6 -31.55 -21.0 L-31.35 -22.3 Q-31.35 -28.2 -29.3 -30.5 -24.8 -35.6 -10.15 -35.35 -9.9 -36.95 -9.35 -37.65 L-9.35 -37.85 -9.3 -38.65 -9.1 -39.05 Q-3.45 -41.2 -1.2 -37.4 L-0.4 -35.55 Q9.1 -35.65 16.4 -33.55 L16.35 -33.5 21.15 -32.6 Q22.2 -32.45 23.5 -31.25 L25.15 -29.6 M2.0 -1.35 L0.8 -5.55 Q-1.6 -14.2 -1.85 -16.85 L-1.9 -17.85 -2.1 -20.35 -2.1 -20.55 -2.15 -21.4 -4.05 -22.6 -5.0 -23.25 -7.1 -21.45 -6.85 -20.3 Q-6.4 -18.3 -6.55 -15.05 L-6.85 -9.8 Q-6.85 -8.45 -6.25 -6.5 L-5.9 -5.45 -5.6 -4.55 -3.45 1.15 Q-2.65 3.55 -2.45 7.7 L-2.45 7.75 -2.35 10.9 -2.35 11.4 Q-2.35 15.6 -4.35 20.4 -6.35 25.25 -6.35 29.4 L-5.85 33.7 Q-5.2 37.25 -4.3 37.65 L-4.1 37.7 -3.3 37.7 3.85 37.65 4.65 37.55 4.8 37.15 Q4.7 36.8 5.15 36.45 L6.55 35.15 6.65 32.05 Q7.0 30.2 6.7 29.45 6.25 28.45 4.05 28.25 L4.0 28.25 3.75 28.2 3.6 28.2 3.25 28.2 2.55 28.15 Q0.4 28.15 0.35 30.05 0.3 31.05 0.55 32.95 L-0.35 33.4 Q-1.05 33.1 -1.25 32.2 L-1.35 30.45 Q-1.35 28.2 -0.95 27.45 -0.4 26.25 1.3 26.0 L0.8 24.5 Q0.65 23.7 0.65 21.45 L0.65 21.3 Q0.65 19.5 0.8 17.75 1.1 14.45 1.9 11.3 3.15 6.5 3.15 3.3 L2.45 0.35 2.1 -0.85 2.0 -1.35 M-13.85 -31.85 L-13.8 -32.6 -19.1 -32.25 Q-29.35 -31.0 -29.35 -22.45 L-29.3 -19.35 Q-28.6 -17.35 -24.85 -17.35 -21.75 -17.35 -17.85 -19.2 -14.85 -20.65 -12.3 -21.0 L-12.35 -21.25 Q-12.35 -22.15 -9.85 -24.65 L-10.1 -27.0 -12.25 -29.05 Q-13.85 -30.7 -13.85 -31.85 M-10.3 -32.85 L-10.3 -33.0 -10.45 -32.95 -10.3 -32.85 M-5.9 -29.35 L-5.35 -28.95 -4.45 -29.85 -2.85 -31.8 -2.55 -32.1 -2.85 -36.85 -5.3 -36.8 -5.5 -36.8 -6.15 -36.8 -8.2 -36.65 -8.15 -35.95 -8.35 -34.55 -8.35 -31.3 -6.6 -29.8 -6.35 -29.65 -6.05 -29.45 -5.9 -29.35" fill="#000000" fill-rule="evenodd" stroke="none"/>
    <path d="M8.8 -32.35 L13.9 -31.7 14.05 -31.6 Q22.25 -30.45 26.1 -26.4 L27.2 -24.95 24.15 -26.1 20.15 -27.6 16.25 -27.65 16.1 -27.85 11.25 -27.2 11.15 -27.7 Q11.15 -28.45 11.55 -28.75 L12.15 -29.05 Q11.05 -29.0 9.8 -29.75 L8.15 -30.8 Q8.3 -31.75 8.8 -32.35 M3.65 -27.7 Q3.65 -28.6 4.75 -29.25 5.8 -29.85 6.8 -29.6 L7.0 -29.4 7.15 -28.5 Q7.15 -26.6 5.15 -26.6 L4.05 -26.85 Q3.65 -26.45 3.65 -27.7" fill="#a88677" fill-rule="evenodd" stroke="none"/>
    <path d="M8.8 -32.35 Q8.3 -31.75 8.15 -30.8 L9.8 -29.75 Q11.05 -29.0 12.15 -29.05 L11.55 -28.75 Q11.15 -28.45 11.15 -27.7 L11.2 -27.2 10.45 -27.1 5.15 -26.05 2.3 -25.15 1.35 -24.75 -0.15 -25.85 -0.25 -25.9 -0.3 -27.55 Q3.3 -31.1 3.65 -32.9 L8.8 -32.35 M3.65 -27.7 Q3.65 -26.45 4.05 -26.85 L5.15 -26.6 Q7.15 -26.6 7.15 -28.5 L7.0 -29.4 6.8 -29.6 Q5.8 -29.85 4.75 -29.25 3.65 -28.6 3.65 -27.7 M-13.85 -31.85 Q-13.85 -30.7 -12.25 -29.05 L-10.1 -27.0 -9.85 -24.65 Q-12.35 -22.15 -12.35 -21.25 L-12.3 -21.0 Q-14.85 -20.65 -17.85 -19.2 -21.75 -17.35 -24.85 -17.35 -28.6 -17.35 -29.3 -19.35 L-29.35 -22.45 Q-29.35 -31.0 -19.1 -32.25 L-13.8 -32.6 -13.85 -31.85" fill="#baae96" fill-rule="evenodd" stroke="none"/>
    <path d="M11.15 -27.7 L11.25 -27.2 11.2 -27.2 11.15 -27.7" fill="#bba095" fill-rule="evenodd" stroke="none"/>
    <path d="M-1.9 -17.85 L-1.85 -16.85 Q-1.6 -14.2 0.8 -5.55 L2.0 -1.35 Q0.3 0.4 -0.9 3.75 L-2.45 7.7 Q-2.65 3.55 -3.45 1.15 L-5.6 -4.55 -5.9 -5.45 -5.65 -4.75 Q-4.9 -6.95 -4.7 -8.55 -4.45 -10.55 -2.85 -15.15 L-1.9 -17.85 M2.45 0.35 L3.15 3.3 Q3.15 6.5 1.9 11.3 1.1 14.45 0.8 17.75 -0.8 22.25 -1.6 23.45 -3.7 26.85 -4.15 29.3 -4.35 30.4 -4.35 34.9 L-4.3 37.65 Q-5.2 37.25 -5.85 33.7 L-6.35 29.4 Q-6.35 25.25 -4.35 20.4 -2.35 15.6 -2.35 11.4 L-2.35 10.9 -0.35 4.75 Q0.55 2.25 2.45 0.35 M0.65 21.45 Q0.65 23.7 0.8 24.5 L1.3 26.0 Q-0.4 26.25 -0.95 27.45 -1.35 28.2 -1.35 30.45 L-1.25 32.2 Q-1.05 33.1 -0.35 33.4 L0.55 32.95 Q0.3 31.05 0.35 30.05 0.4 28.15 2.55 28.15 L3.25 28.2 3.15 33.7 Q3.15 36.05 2.3 37.65 L3.85 37.65 4.05 36.7 4.15 32.0 4.05 28.25 Q6.25 28.45 6.7 29.45 7.0 30.2 6.65 32.05 L6.55 35.15 5.15 36.45 Q4.7 36.8 4.8 37.15 L4.65 37.55 3.85 37.65 -3.3 37.7 -3.35 34.5 Q-3.35 28.95 -1.4 25.6 -0.3 23.7 0.65 21.45 M-5.3 -36.8 L-2.85 -36.85 -2.55 -32.1 -2.85 -31.8 -4.45 -29.85 -5.35 -28.95 -5.9 -29.35 Q-5.7 -31.25 -5.65 -34.15 L-5.3 -36.8 M-6.35 -29.65 L-6.6 -29.8 -8.35 -31.3 -8.35 -34.55 -8.15 -35.95 -8.2 -36.65 -6.15 -36.8 -5.85 -35.05 Q-5.85 -32.3 -6.5 -29.75 L-6.35 -29.65 M-2.1 -20.55 L-2.2 -20.55 -3.7 -15.2 -5.35 -9.6 -6.25 -6.5 Q-6.85 -8.45 -6.85 -9.8 L-6.55 -15.05 Q-6.4 -18.3 -6.85 -20.3 L-7.1 -21.45 -5.0 -23.25 -4.05 -22.6 -2.15 -21.4 -2.1 -20.55" fill="#31282d" fill-rule="evenodd" stroke="none"/>
    <path d="M-1.9 -17.85 L-2.85 -15.15 Q-4.45 -10.55 -4.7 -8.55 -4.9 -6.95 -5.65 -4.75 L-5.9 -5.45 -6.25 -6.5 -5.35 -9.6 -3.7 -15.2 -2.2 -20.55 -2.1 -20.55 -2.1 -20.35 -1.9 -17.85 M-2.45 7.7 L-0.9 3.75 Q0.3 0.4 2.0 -1.35 L2.1 -0.85 2.45 0.35 Q0.55 2.25 -0.35 4.75 L-2.35 10.9 -2.45 7.75 -2.45 7.7 M0.8 17.75 Q0.65 19.5 0.65 21.3 L0.65 21.45 Q-0.3 23.7 -1.4 25.6 -3.35 28.95 -3.35 34.5 L-3.3 37.7 -4.1 37.7 -4.3 37.65 -4.35 34.9 Q-4.35 30.4 -4.15 29.3 -3.7 26.85 -1.6 23.45 -0.8 22.25 0.8 17.75 M3.25 28.2 L3.6 28.2 3.75 28.2 4.0 28.25 4.05 28.25 4.15 32.0 4.05 36.7 3.85 37.65 2.3 37.65 Q3.15 36.05 3.15 33.7 L3.25 28.2 M-5.3 -36.8 L-5.65 -34.15 Q-5.7 -31.25 -5.9 -29.35 L-6.05 -29.45 -6.35 -29.65 -6.5 -29.75 Q-5.85 -32.3 -5.85 -35.05 L-6.15 -36.8 -5.5 -36.8 -5.3 -36.8" fill="#463941" fill-rule="evenodd" stroke="none"/>
  </g>
</svg>
