<?xml version="1.0" encoding="UTF-8" standalone="no"?>
<svg xmlns:ffdec="https://www.free-decompiler.com/flash" xmlns:xlink="http://www.w3.org/1999/xlink" ffdec:objectType="shape" height="87.35px" width="48.4px" xmlns="http://www.w3.org/2000/svg">
  <g transform="matrix(1.0, 0.0, 0.0, 1.0, -54.0, 140.35)">
    <path d="M55.5 -140.3 Q58.45 -138.8 64.3 -136.15 65.35 -135.65 66.35 -135.25 L68.9 -133.0 75.05 -128.25 80.55 -123.25 Q84.95 -118.95 88.8 -112.6 92.1 -107.2 94.4 -101.35 97.15 -94.45 98.5 -90.15 100.2 -84.5 100.9 -79.25 102.4 -68.0 102.4 -57.2 L102.4 -54.5 102.15 -53.45 98.7 -53.15 94.4 -53.0 87.8 -53.05 Q86.0 -53.25 85.75 -54.1 85.6 -54.55 85.9 -57.35 86.25 -60.7 85.9 -64.1 L85.7 -69.4 85.4 -75.0 Q84.35 -84.35 80.9 -97.1 77.85 -108.35 71.9 -119.25 69.6 -123.4 64.05 -130.5 L59.4 -135.6 56.55 -137.05 Q54.0 -138.3 54.0 -139.15 L54.05 -140.0 54.25 -140.35 55.5 -140.3" fill="#baae96" fill-opacity="0.49803922" fill-rule="evenodd" stroke="none"/>
  </g>
</svg>
