<?xml version="1.0" encoding="UTF-8" standalone="no"?>
<svg xmlns:ffdec="https://www.free-decompiler.com/flash" xmlns:xlink="http://www.w3.org/1999/xlink" ffdec:objectType="shape" height="98.15px" width="101.0px" xmlns="http://www.w3.org/2000/svg">
  <g transform="matrix(1.0, 0.0, 0.0, 1.0, 47.0, 43.15)">
    <path d="M27.05 -31.3 L31.05 -30.75 37.75 -30.25 44.55 -29.75 Q44.6 -29.7 44.85 -29.6 L44.95 -29.5 Q50.15 -30.15 52.5 -26.15 54.0 -23.6 54.0 -20.15 54.0 -17.75 51.3 -15.05 47.95 -11.75 42.9 -11.95 L42.7 -9.6 Q42.05 -4.5 40.0 -4.5 L34.6 -4.95 Q30.8 -5.6 29.6 -6.95 L29.55 -4.35 32.45 -0.8 Q35.7 3.65 36.9 6.55 L36.1 6.3 39.2 11.25 Q39.5 11.85 39.5 15.9 L39.5 19.3 Q39.1 22.0 37.0 22.0 36.15 22.0 35.4 21.55 L34.5 20.8 33.5 23.2 Q32.8 25.0 31.0 25.0 29.65 25.0 28.45 24.05 L27.9 23.5 27.4 27.35 Q28.1 28.1 28.9 29.75 29.95 32.15 31.05 33.25 33.3 35.6 33.15 36.7 L32.5 39.35 Q32.5 39.95 33.5 41.5 L34.5 43.1 34.4 43.95 34.25 44.3 32.75 44.5 Q31.35 44.5 31.1 44.0 L30.55 43.05 Q30.4 44.4 29.1 46.05 27.55 48.0 26.0 48.0 L24.8 47.75 Q24.6 47.45 24.55 46.85 L24.5 45.55 23.0 45.75 Q22.65 48.7 19.05 49.8 15.6 50.8 15.5 54.3 15.4 54.3 15.4 54.65 15.25 55.0 14.5 55.0 13.15 55.0 12.2 53.55 L11.25 51.55 Q10.3 52.2 10.05 52.8 L9.0 53.5 7.25 51.4 Q6.45 50.45 2.8 50.5 2.6 50.05 2.7 49.2 L3.0 47.55 Q2.8 47.25 2.0 47.25 2.3 48.05 1.65 49.6 1.0 51.2 0.0 52.0 -1.3 51.85 -1.7 50.75 -2.05 49.75 -4.5 49.75 -6.8 49.75 -7.0 50.35 -7.35 51.25 -8.0 51.5 -9.25 51.0 -9.8 49.85 L-10.75 48.05 -15.2 47.95 Q-16.35 47.5 -17.25 45.55 -17.9 45.65 -19.45 47.1 -20.9 48.5 -22.0 48.5 L-23.1 48.25 Q-23.9 46.7 -25.1 45.3 L-27.55 42.75 Q-30.85 47.05 -35.5 51.5 -36.5 50.3 -36.5 49.75 -36.5 46.95 -33.5 36.25 L-33.6 36.0 Q-34.0 36.4 -34.75 36.5 L-34.85 36.75 -35.5 37.0 -36.35 36.75 -36.45 36.3 -37.0 35.8 -36.45 35.3 -36.15 32.75 -36.8 31.55 -37.0 30.6 -37.0 30.5 Q-38.25 28.85 -39.0 25.35 L-40.1 20.05 Q-41.5 15.3 -42.1 10.0 L-42.35 9.75 -42.4 9.85 Q-43.75 12.3 -45.0 13.5 -46.0 13.1 -46.0 11.65 -46.0 8.25 -45.0 2.75 -43.7 -4.3 -43.5 -6.25 L-43.6 -6.5 -43.65 -6.4 -43.7 -6.4 -45.35 -3.75 -46.0 -3.5 Q-47.0 -4.65 -47.0 -5.25 -47.0 -8.45 -45.9 -11.95 -45.05 -14.65 -43.0 -19.1 L-43.0 -19.5 -43.15 -19.4 -43.2 -19.35 -44.7 -18.1 -46.0 -17.0 -46.7 -17.2 Q-47.0 -17.35 -47.0 -18.15 -47.0 -18.85 -43.5 -23.35 L-39.0 -28.85 -34.4 -34.55 -33.55 -35.5 -35.0 -35.5 -35.7 -35.7 Q-36.0 -35.85 -36.0 -36.65 -36.0 -39.4 -30.1 -41.7 -22.8 -44.6 -12.85 -41.75 -10.25 -41.1 -7.55 -37.5 L-5.1 -33.85 -5.05 -33.85 -3.75 -33.0 Q-2.3 -35.1 2.5 -35.1 L7.55 -34.45 7.55 -34.5 7.75 -34.85 14.85 -35.4 Q18.8 -35.4 21.55 -33.75 22.15 -33.3 23.95 -32.9 25.65 -32.55 27.0 -31.35 L27.05 -31.3 M20.4 -31.7 L20.3 -31.75 Q15.45 -33.65 13.9 -33.35 L10.6 -32.75 11.6 -32.15 15.0 -29.85 Q18.0 -27.05 18.7 -24.4 19.0 -23.25 19.0 -19.0 L19.0 -17.25 18.8 -13.35 18.85 -13.2 19.0 -13.25 19.1 -13.1 20.25 -13.05 21.6 -13.35 24.75 -17.55 Q28.0 -21.75 28.0 -24.25 L27.95 -27.0 Q27.55 -28.15 25.25 -29.85 L23.3 -30.85 22.75 -31.05 22.65 -31.05 22.55 -31.1 22.4 -31.1 22.25 -31.15 21.15 -31.5 20.4 -31.7 M30.0 -8.35 L31.25 -8.5 35.15 -7.85 39.0 -7.25 Q40.0 -7.25 40.65 -14.05 41.45 -22.15 42.5 -24.5 L42.5 -27.85 29.55 -28.55 29.85 -27.85 30.0 -24.6 29.8 -22.25 30.0 -13.25 29.65 -8.35 29.65 -8.25 30.0 -8.35 M3.35 -28.2 Q12.4 -23.7 16.95 -14.85 L17.0 -19.05 16.75 -23.1 Q16.25 -25.1 14.5 -27.1 10.95 -31.05 6.35 -32.15 2.6 -33.05 -2.4 -32.1 L-1.05 -31.25 Q1.3 -29.75 3.05 -29.25 L3.5 -28.5 3.35 -28.2 M13.85 -12.5 L14.95 -12.65 15.45 -12.75 13.75 -15.5 10.8 -20.75 5.4 -24.1 Q1.85 -26.35 0.85 -27.6 -0.7 -28.05 -4.15 -30.4 L-5.8 -31.5 Q-6.25 -31.6 -6.65 -31.95 L-6.9 -32.25 -8.75 -33.35 Q-11.9 -33.35 -16.0 -32.05 L-21.0 -30.1 -22.0 -29.6 -19.35 -29.5 -19.15 -29.35 -19.05 -29.25 -18.85 -29.25 -18.65 -29.35 Q-18.5 -29.3 -18.5 -28.5 L-19.0 -28.05 -19.1 -27.75 -19.35 -27.5 -19.6 -27.5 -23.25 -23.75 Q-28.6 -17.7 -31.5 -10.6 L-31.5 -10.5 -31.45 -10.5 Q-30.9 -10.5 -29.85 -11.25 -28.9 -12.0 -28.25 -12.0 L-27.1 -11.75 -27.0 -10.25 Q-27.0 -9.6 -29.55 -1.8 -32.2 6.5 -32.6 8.8 L-31.4 7.75 -30.0 7.0 Q-29.25 7.6 -29.05 8.5 L-29.0 10.0 Q-29.0 12.55 -31.9 24.75 L-34.0 33.5 -32.5 32.5 Q-31.5 33.7 -31.5 35.35 -31.5 36.35 -32.25 40.35 -33.1 44.45 -33.5 45.3 L-33.5 45.5 -33.4 45.4 -30.95 43.1 -30.95 43.15 -30.25 42.4 -26.2 37.3 -26.1 37.15 -25.7 36.5 Q-22.4 31.2 -22.5 27.0 -22.0 24.7 -21.8 17.6 -21.65 11.6 -20.5 9.0 -19.65 9.35 -19.3 10.75 L-18.6 13.0 -18.5 13.0 -18.3 2.7 Q-17.9 -3.35 -16.5 -7.85 -17.0 -8.0 -15.75 -8.0 -14.0 -8.0 -14.0 -2.5 L-13.6 -2.5 Q-13.4 -6.4 -11.2 -10.55 -8.85 -15.1 -5.05 -17.6 L-4.5 -18.0 -3.75 -17.75 Q-3.5 -17.6 -3.5 -16.8 -3.5 -15.25 -4.85 -13.25 L-5.0 -13.0 -4.8 -13.1 -4.75 -13.1 Q-3.35 -14.0 -1.55 -14.8 2.4 -16.5 6.25 -16.5 9.8 -16.5 11.0 -15.35 L13.25 -12.4 13.85 -12.5 M-16.0 -1.4 L-16.5 9.9 -16.55 12.5 -14.3 12.6 Q-6.6 13.0 4.5 12.4 4.5 9.4 4.8 8.4 L5.05 7.75 Q5.1 6.0 5.35 5.4 L8.3 0.25 Q9.1 -1.2 9.9 -4.55 10.35 -5.7 11.1 -6.25 L11.0 -6.35 Q10.5 -7.3 10.5 -10.65 L10.7 -11.4 9.95 -12.35 Q8.75 -14.25 6.15 -14.25 1.45 -14.25 -2.45 -11.85 -6.4 -9.5 -7.0 -9.5 L-8.1 -9.75 -8.3 -9.65 Q-8.5 -9.7 -8.5 -10.5 L-8.35 -10.95 -8.6 -10.55 -10.5 -7.1 Q-11.2 -5.4 -11.75 -2.45 L-12.75 2.55 -12.65 2.8 Q-12.7 3.0 -13.5 3.0 -14.4 3.0 -14.9 1.25 L-15.75 -1.35 -16.0 -1.6 -16.0 -1.4 M13.0 -7.25 L16.8 -7.25 23.0 -7.75 Q22.5 -8.85 22.5 -11.35 16.85 -11.2 13.0 -10.25 L13.0 -7.25 M17.4 -5.1 L15.6 -5.0 14.5 -5.0 13.3 -5.05 Q12.75 -3.6 10.6 0.3 L7.95 4.95 8.0 5.75 8.0 6.15 7.25 8.75 Q6.5 10.65 6.5 12.5 L6.6 14.7 7.15 15.5 6.7 15.45 Q6.95 16.1 8.5 18.0 L8.75 17.7 9.05 17.3 10.3 15.75 10.85 14.2 Q11.4 13.0 12.0 12.5 L12.7 12.9 Q13.0 13.2 13.0 14.0 13.0 16.4 10.3 19.25 L11.0 20.25 11.95 21.4 12.3 21.65 Q13.1 22.25 13.4 22.25 13.85 22.25 14.35 21.65 L14.5 21.45 14.5 21.15 14.55 21.05 14.55 20.95 14.6 20.85 Q15.05 19.3 15.65 18.2 L16.35 17.15 16.6 16.85 17.5 16.0 18.2 16.4 Q18.5 16.7 18.5 17.5 18.5 18.65 17.6 20.0 L16.75 21.45 17.5 22.5 18.5 21.45 Q18.85 21.8 19.4 21.95 L20.05 20.7 21.5 17.75 Q22.0 16.25 22.0 12.5 L22.0 8.75 Q21.9 8.0 21.2 6.95 L20.85 6.45 Q20.55 6.5 20.35 6.7 L20.3 5.05 20.0 -5.2 17.4 -5.1 M27.25 -17.55 L23.65 -13.35 Q24.85 -12.85 24.5 -10.6 24.5 -10.05 25.0 -8.6 L25.45 -7.1 Q26.3 -7.0 27.35 -6.25 L27.5 -8.25 Q27.4 -9.15 27.45 -10.65 L27.5 -12.9 27.25 -17.55 M25.05 -5.5 L21.75 -5.3 22.05 -4.15 22.4 -1.3 22.45 -0.95 22.5 4.25 22.5 5.05 Q23.45 5.55 23.8 7.35 24.0 8.35 24.0 12.55 24.0 17.2 23.7 18.65 23.35 20.4 22.4 21.75 L23.3 21.75 Q25.95 21.85 26.0 21.0 L26.05 20.75 26.0 20.25 Q26.0 18.8 26.35 17.75 27.05 15.65 29.05 15.75 L29.3 15.65 Q29.5 15.7 29.5 16.5 L27.95 20.4 28.5 21.25 Q29.15 22.4 30.55 22.75 L31.6 21.45 32.55 18.6 32.55 18.05 32.55 17.75 32.5 17.5 32.55 17.25 32.65 17.2 33.5 17.0 Q34.05 17.0 35.1 18.05 L36.5 19.5 Q37.0 18.9 37.3 17.6 L37.5 16.0 Q37.5 13.6 35.75 9.8 L34.1 6.0 33.85 6.0 30.0 0.75 25.15 -5.55 25.15 -5.6 25.05 -5.5 M43.0 -13.6 L47.0 -15.55 Q52.0 -17.95 52.0 -20.25 52.0 -22.6 49.95 -24.75 48.05 -26.75 44.95 -27.7 44.8 -25.6 44.0 -22.4 43.05 -18.25 43.0 -16.25 L43.0 -13.6 M19.7 24.25 Q19.1 25.0 18.25 25.0 17.5 25.0 16.6 24.45 L15.5 23.8 14.95 24.15 Q14.5 24.5 13.75 24.5 10.25 24.5 9.5 23.3 L9.0 21.5 -16.95 21.5 -17.0 22.0 Q-17.25 22.0 -18.0 22.5 L-18.85 21.5 -19.4 21.5 -19.45 22.2 Q-19.6 25.2 -20.3 28.1 -19.4 28.65 -18.8 29.5 L-18.0 31.0 Q-17.75 30.85 -16.8 28.3 -15.9 26.0 -14.75 26.0 -13.4 26.0 -12.45 28.15 -11.35 30.75 -10.6 31.25 L-9.75 27.85 Q-8.7 25.0 -7.25 25.0 -5.55 25.0 -5.1 26.8 -4.5 29.1 -4.0 29.5 -3.7 29.05 -3.55 28.2 L-3.35 26.55 -2.9 26.3 Q-2.5 26.0 -1.75 26.0 -0.7 26.0 -0.3 27.85 L0.25 30.3 Q0.95 31.25 2.4 32.4 3.75 33.45 4.25 34.3 L4.5 34.3 4.5 31.0 Q4.45 30.9 4.55 30.75 4.75 30.5 5.5 30.5 L7.7 33.5 Q10.1 36.7 11.5 37.75 L11.95 34.65 Q12.35 32.5 14.0 32.0 15.3 33.2 16.55 35.15 L18.5 38.55 20.35 32.9 Q21.75 28.5 22.75 28.5 23.65 28.5 24.1 29.6 L24.5 31.0 Q24.95 29.85 25.1 26.05 L25.05 25.75 25.0 23.65 21.75 24.5 21.45 24.45 20.0 24.25 20.0 24.0 19.9 24.0 19.7 24.25 M4.75 14.75 L-1.5 15.0 -16.65 14.5 -16.85 19.3 Q-10.5 18.8 6.55 18.95 L6.5 18.8 4.95 15.25 4.75 14.75 M21.45 37.7 L21.4 37.8 Q20.4 40.55 19.0 42.5 16.7 40.5 14.05 35.5 L14.0 35.5 Q13.7 36.5 13.3 41.05 L13.25 41.3 12.25 41.5 9.65 39.0 Q7.25 36.35 6.5 36.0 5.85 37.5 4.75 37.5 4.0 37.5 1.6 34.7 -1.15 31.5 -2.0 31.0 -2.0 32.05 -2.35 32.75 L-2.4 32.9 -3.25 33.0 -5.45 31.15 -7.6 28.5 Q-8.0 28.9 -8.1 31.3 -8.55 33.5 -10.75 33.5 -12.2 33.5 -13.2 31.65 L-14.0 29.8 -14.15 29.4 -14.35 29.05 -14.6 28.8 -14.65 28.9 -15.45 31.25 -16.35 33.75 -16.35 33.9 -17.25 34.0 Q-18.65 34.0 -20.85 30.25 L-22.45 34.35 Q-24.0 37.8 -26.45 41.3 L-25.5 42.1 -24.0 43.55 -22.8 44.4 Q-21.95 45.0 -21.5 45.75 L-20.15 44.5 Q-19.05 43.5 -17.5 43.5 -15.85 43.5 -15.55 43.95 L-14.85 45.2 -14.85 45.25 Q-13.7 46.25 -13.25 45.35 -12.7 44.25 -10.0 46.0 L-9.15 46.7 -8.35 47.75 -6.8 47.7 -4.5 47.5 -2.15 47.9 Q-0.8 48.3 -0.5 48.5 L-0.9 46.4 Q-0.85 45.0 2.0 45.0 4.5 45.0 4.95 46.15 5.2 46.75 5.0 47.5 L6.5 49.05 7.8 49.55 10.4 49.65 Q12.1 49.6 13.5 51.0 14.3 49.5 15.0 48.75 16.25 47.35 20.5 47.25 L20.55 44.7 20.55 44.65 Q20.7 43.8 22.45 43.6 L23.75 43.5 Q26.55 43.5 26.8 44.25 L26.5 45.5 Q28.3 44.9 28.35 44.05 28.0 43.05 28.0 42.5 28.0 41.65 28.25 41.4 L29.0 41.0 Q30.4 40.15 30.5 39.9 L30.5 39.55 30.75 36.55 28.4 33.35 Q27.3 32.0 26.75 30.8 25.8 35.25 25.0 35.5 24.2 35.25 23.6 34.3 L22.55 32.75 Q22.4 35.0 21.45 37.7 M-44.3 -8.6 L-43.55 -9.75 Q-42.55 -10.95 -41.5 -11.0 -40.95 -10.8 -40.75 -10.5 -40.5 -10.1 -40.5 -9.25 L-41.5 -5.65 -42.5 -2.1 Q-42.5 0.05 -43.5 4.55 L-43.5 7.5 -42.8 6.75 Q-42.15 6.1 -41.5 6.0 -40.15 10.05 -38.35 18.45 L-36.3 28.1 -36.25 28.3 -36.0 28.0 Q-35.6 28.15 -35.35 28.4 L-34.75 25.7 -33.9 22.1 -31.0 10.8 -31.1 10.5 -31.2 10.6 -34.5 13.5 -35.2 13.15 Q-35.5 12.9 -35.5 12.05 -35.5 9.0 -29.85 -8.5 L-29.85 -8.75 -30.0 -8.65 Q-31.25 -8.0 -32.15 -6.9 -32.85 -6.0 -33.25 -6.0 L-34.5 -6.25 Q-33.65 -13.25 -28.2 -21.25 -25.5 -25.2 -23.2 -27.2 L-25.25 -27.0 -26.2 -27.15 -26.5 -27.6 Q-26.35 -29.9 -22.85 -31.65 L-14.5 -35.0 Q-11.7 -36.15 -8.7 -35.4 L-9.15 -36.1 -9.2 -36.15 -15.45 -39.85 -16.0 -40.0 -23.25 -40.75 Q-28.1 -40.75 -29.0 -40.0 -30.35 -38.85 -32.1 -38.5 L-32.85 -37.75 -31.0 -37.6 -29.85 -37.75 -29.65 -37.85 -29.5 -37.5 -29.35 -37.5 -29.15 -37.35 Q-29.0 -37.25 -29.0 -36.5 L-29.1 -35.75 -29.35 -35.5 -30.55 -35.5 -34.3 -31.15 -41.35 -22.75 Q-40.0 -21.5 -40.0 -20.9 L-42.0 -15.45 -44.5 -8.75 -44.35 -8.6 -44.3 -8.6" fill="#000000" fill-rule="evenodd" stroke="none"/>
    <path d="M20.4 -31.7 L21.15 -31.5 22.25 -31.15 22.4 -31.1 22.55 -31.1 22.65 -31.05 22.75 -31.05 23.3 -30.85 23.9 -30.6 23.9 -30.5 24.0 -28.05 Q24.0 -23.5 22.8 -20.4 L19.1 -13.1 19.0 -13.25 18.8 -13.35 19.0 -17.25 19.0 -19.0 Q19.0 -23.25 18.7 -24.4 18.0 -27.05 15.0 -29.85 L11.6 -32.15 10.6 -32.75 13.9 -33.35 Q15.45 -33.65 20.3 -31.75 L20.4 -31.7 M3.35 -28.2 L3.5 -28.5 3.05 -29.25 Q1.3 -29.75 -1.05 -31.25 L-2.4 -32.1 Q2.6 -33.05 6.35 -32.15 10.95 -31.05 14.5 -27.1 16.25 -25.1 16.75 -23.1 L17.0 -19.05 16.95 -14.85 Q12.4 -23.7 3.35 -28.2 M13.85 -12.5 L13.25 -12.4 11.0 -15.35 Q9.8 -16.5 6.25 -16.5 2.4 -16.5 -1.55 -14.8 -3.35 -14.0 -4.75 -13.1 L-4.85 -13.25 Q-3.5 -15.25 -3.5 -16.8 -3.5 -17.6 -3.75 -17.75 L-4.5 -18.0 -5.05 -17.6 Q-8.85 -15.1 -11.2 -10.55 -13.4 -6.4 -13.6 -2.5 L-14.0 -2.5 Q-14.0 -8.0 -15.75 -8.0 -17.0 -8.0 -16.5 -7.85 -17.9 -3.35 -18.3 2.7 L-18.5 13.0 -18.6 13.0 -19.3 10.75 Q-19.65 9.35 -20.5 9.0 -21.65 11.6 -21.8 17.6 -22.0 24.7 -22.5 27.0 -22.4 31.2 -25.7 36.5 L-26.1 37.15 -26.2 37.3 -30.25 42.4 -30.95 43.15 -30.95 43.1 -30.15 40.4 Q-29.2 38.05 -29.0 36.55 -28.8 35.0 -28.05 32.95 -27.25 30.85 -26.35 29.5 L-27.4 29.35 Q-28.0 29.05 -28.0 28.25 -28.0 27.4 -26.1 22.8 -24.25 18.2 -24.25 17.25 -24.25 16.65 -24.85 15.2 L-25.5 13.1 -24.1 7.45 -21.85 0.0 -21.85 -0.25 -22.25 0.25 -23.25 0.5 -24.1 0.25 -24.45 -0.6 -24.5 -1.8 Q-24.5 -4.25 -23.8 -5.6 L-21.6 -9.85 -19.3 -14.8 -18.25 -17.35 Q-18.25 -17.95 -18.85 -18.75 -19.5 -19.5 -19.5 -20.15 -19.5 -21.1 -18.1 -21.95 -16.1 -23.25 -15.1 -24.5 -14.65 -25.0 -14.55 -26.4 L-14.25 -28.6 Q-13.7 -30.15 -10.8 -31.0 L-7.0 -31.85 -6.65 -31.95 Q-6.25 -31.6 -5.8 -31.5 L-4.15 -30.4 Q-0.7 -28.05 0.85 -27.6 1.85 -26.35 5.4 -24.1 L10.8 -20.75 13.75 -15.5 15.45 -12.75 14.95 -12.65 14.5 -12.6 14.3 -13.1 13.85 -12.5 M7.15 15.5 L6.6 14.7 6.5 12.5 Q6.5 10.65 7.25 8.75 L8.0 6.15 8.0 5.75 7.95 4.95 10.6 0.3 Q12.75 -3.6 13.3 -5.05 L14.5 -5.0 15.6 -5.0 17.4 -5.1 17.45 -4.7 17.5 -1.85 Q17.5 5.5 17.0 14.25 L16.6 16.85 16.35 17.15 15.65 18.2 Q15.05 19.3 14.6 20.85 L14.55 20.95 14.55 21.05 14.5 21.15 14.5 21.45 14.35 21.65 Q13.85 22.25 13.4 22.25 13.1 22.25 12.3 21.65 L11.95 21.4 11.0 20.25 10.3 19.25 Q13.0 16.4 13.0 14.0 13.0 13.2 12.7 12.9 L12.0 12.5 Q11.4 13.0 10.85 14.2 L10.3 15.75 9.05 17.3 8.65 17.6 7.15 15.5 M22.05 -4.15 L22.05 -5.25 Q24.45 -4.8 26.15 -0.5 L29.0 7.05 Q30.7 9.2 31.9 13.85 L32.65 17.2 32.55 17.25 32.5 17.5 32.55 17.75 32.55 18.05 32.55 18.6 31.6 21.45 30.55 22.75 Q29.15 22.4 28.5 21.25 L27.95 20.4 29.5 16.5 Q29.5 15.7 29.3 15.65 L29.05 15.75 Q27.05 15.65 26.35 17.75 26.0 18.8 26.0 20.25 L26.05 20.75 26.0 21.0 Q25.95 21.85 23.3 21.75 L22.4 21.75 Q23.35 20.4 23.7 18.65 24.0 17.2 24.0 12.55 24.0 8.35 23.8 7.35 23.45 5.55 22.5 5.05 L22.5 4.25 22.45 -0.95 22.4 -1.3 22.05 -4.15" fill="#607178" fill-rule="evenodd" stroke="none"/>
    <path d="M21.15 -31.5 L20.4 -31.7 21.15 -31.5 M19.1 -13.1 L22.8 -20.4 Q24.0 -23.5 24.0 -28.05 L23.9 -30.5 23.9 -30.6 23.3 -30.85 25.25 -29.85 Q27.55 -28.15 27.95 -27.0 L28.0 -24.25 Q28.0 -21.75 24.75 -17.55 L21.6 -13.35 20.25 -13.05 19.1 -13.1 M14.95 -12.65 L13.85 -12.5 14.3 -13.1 14.5 -12.6 14.95 -12.65 M-30.95 43.1 L-33.4 45.4 -33.5 45.3 Q-33.1 44.45 -32.25 40.35 -31.5 36.35 -31.5 35.35 -31.5 33.7 -32.5 32.5 L-34.0 33.5 -31.9 24.75 Q-29.0 12.55 -29.0 10.0 L-29.05 8.5 Q-29.25 7.6 -30.0 7.0 L-31.4 7.75 -32.6 8.8 Q-32.2 6.5 -29.55 -1.8 -27.0 -9.6 -27.0 -10.25 L-27.1 -11.75 -28.25 -12.0 Q-28.9 -12.0 -29.85 -11.25 -30.9 -10.5 -31.45 -10.5 L-31.5 -10.6 Q-28.6 -17.7 -23.25 -23.75 L-19.6 -27.5 -19.35 -27.5 -19.1 -27.75 -19.0 -28.05 -18.5 -28.5 Q-18.5 -29.3 -18.65 -29.35 L-18.85 -29.25 -19.05 -29.25 -19.15 -29.35 -19.35 -29.5 -22.0 -29.6 -21.0 -30.1 -16.0 -32.05 Q-11.9 -33.35 -8.75 -33.35 L-6.9 -32.25 -6.65 -31.95 -7.0 -31.85 -10.8 -31.0 Q-13.7 -30.15 -14.25 -28.6 L-14.55 -26.4 Q-14.65 -25.0 -15.1 -24.5 -16.1 -23.25 -18.1 -21.95 -19.5 -21.1 -19.5 -20.15 -19.5 -19.5 -18.85 -18.75 -18.25 -17.95 -18.25 -17.35 L-19.3 -14.8 -21.6 -9.85 -23.8 -5.6 Q-24.5 -4.25 -24.5 -1.8 L-24.45 -0.6 -24.1 0.25 -23.25 0.5 -22.25 0.25 -21.85 -0.25 -21.85 0.0 -24.1 7.45 -25.5 13.1 -24.85 15.2 Q-24.25 16.65 -24.25 17.25 -24.25 18.2 -26.1 22.8 -28.0 27.4 -28.0 28.25 -28.0 29.05 -27.4 29.35 L-26.35 29.5 Q-27.25 30.85 -28.05 32.95 -28.8 35.0 -29.0 36.55 -29.2 38.05 -30.15 40.4 L-30.95 43.1 M8.65 17.6 L9.05 17.3 8.75 17.7 8.65 17.6 M16.6 16.85 L17.0 14.25 Q17.5 5.5 17.5 -1.85 L17.45 -4.7 17.4 -5.1 20.0 -5.2 20.3 5.05 20.35 6.7 Q20.55 6.5 20.85 6.45 L21.2 6.95 Q21.9 8.0 22.0 8.75 L22.0 12.5 Q22.0 16.25 21.5 17.75 L20.05 20.7 19.4 21.95 Q18.85 21.8 18.5 21.45 L17.5 22.5 16.75 21.45 17.6 20.0 Q18.5 18.65 18.5 17.5 18.5 16.7 18.2 16.4 L17.5 16.0 16.6 16.85 M22.05 -4.15 L21.75 -5.3 25.05 -5.5 25.15 -5.55 30.0 0.75 33.85 6.0 34.1 6.0 35.75 9.8 Q37.5 13.6 37.5 16.0 L37.3 17.6 Q37.0 18.9 36.5 19.5 L35.1 18.05 Q34.05 17.0 33.5 17.0 L32.65 17.2 31.9 13.85 Q30.7 9.2 29.0 7.05 L26.15 -0.5 Q24.45 -4.8 22.05 -5.25 L22.05 -4.15" fill="#83959c" fill-rule="evenodd" stroke="none"/>
    <path d="M-8.5 -10.5 Q-8.5 -9.7 -8.3 -9.65 L-8.1 -9.75 -7.0 -9.5 Q-6.4 -9.5 -2.45 -11.85 1.45 -14.25 6.15 -14.25 8.75 -14.25 9.95 -12.35 L10.7 -11.4 10.5 -10.65 Q10.5 -7.3 11.0 -6.35 L11.1 -6.25 Q10.35 -5.7 9.9 -4.55 9.1 -1.2 8.3 0.25 L5.35 5.4 Q5.1 6.0 5.05 7.75 L4.8 8.4 Q4.5 9.4 4.5 12.4 -6.6 13.0 -14.3 12.6 L-16.55 12.5 -16.5 9.9 -16.0 -1.4 -15.75 -1.35 -14.9 1.25 Q-14.4 3.0 -13.5 3.0 -12.7 3.0 -12.65 2.8 L-12.75 2.55 -11.75 -2.45 Q-11.2 -5.4 -10.5 -7.1 L-8.6 -10.55 -8.5 -10.5 M27.25 -17.55 L27.5 -12.9 27.45 -10.65 Q27.4 -9.15 27.5 -8.25 L27.35 -6.25 Q26.3 -7.0 25.45 -7.1 L25.0 -8.6 Q24.5 -10.05 24.5 -10.6 24.85 -12.85 23.65 -13.35 L27.25 -17.55 M21.45 24.45 L21.75 24.5 25.0 23.65 25.05 25.75 25.1 26.05 Q24.95 29.85 24.5 31.0 L24.1 29.6 Q23.65 28.5 22.75 28.5 21.75 28.5 20.35 32.9 L18.5 38.55 16.55 35.15 Q15.3 33.2 14.0 32.0 12.35 32.5 11.95 34.65 L11.5 37.75 Q10.1 36.7 7.7 33.5 L5.5 30.5 Q4.75 30.5 4.55 30.75 4.45 30.9 4.5 31.0 L4.5 34.3 4.25 34.3 Q3.75 33.45 2.4 32.4 0.95 31.25 0.25 30.3 L-0.3 27.85 Q-0.7 26.0 -1.75 26.0 -2.5 26.0 -2.9 26.3 L-3.35 26.55 -3.55 28.2 Q-3.7 29.05 -4.0 29.5 -4.5 29.1 -5.1 26.8 -5.55 25.0 -7.25 25.0 -8.7 25.0 -9.75 27.85 L-10.6 31.25 Q-11.35 30.75 -12.45 28.15 -13.4 26.0 -14.75 26.0 -15.9 26.0 -16.8 28.3 -17.75 30.85 -18.0 31.0 L-18.8 29.5 Q-19.4 28.65 -20.3 28.1 -19.6 25.2 -19.45 22.2 L-19.4 21.5 -18.85 21.5 -18.0 22.5 Q-17.25 22.0 -17.0 22.0 L-16.95 21.5 9.0 21.5 9.5 23.3 Q10.25 24.5 13.75 24.5 14.5 24.5 14.95 24.15 L15.5 23.8 16.6 24.45 Q17.5 25.0 18.25 25.0 19.1 25.0 19.7 24.25 L21.0 24.5 21.45 24.45" fill="#332d26" fill-rule="evenodd" stroke="none"/>
    <path d="M43.0 -13.6 L43.0 -16.25 Q43.05 -18.25 44.0 -22.4 44.8 -25.6 44.95 -27.7 48.05 -26.75 49.95 -24.75 52.0 -22.6 52.0 -20.25 52.0 -17.95 47.0 -15.55 L43.0 -13.6" fill="#cdac98" fill-rule="evenodd" stroke="none"/>
    <path d="M7.15 15.5 L8.65 17.6 8.75 17.7 8.5 18.0 Q6.95 16.1 6.7 15.45 L7.15 15.5 M4.75 14.75 L4.95 15.25 6.5 18.8 6.55 18.95 Q-10.5 18.8 -16.85 19.3 L-16.65 14.5 -1.5 15.0 4.75 14.75" fill="#221c15" fill-rule="evenodd" stroke="none"/>
    <path d="M-4.75 -13.1 L-4.8 -13.1 -4.85 -13.25 -4.75 -13.1 M-36.3 28.1 L-38.35 18.45 Q-40.15 10.05 -41.5 6.0 -42.15 6.1 -42.8 6.75 L-43.5 7.5 -43.5 4.55 Q-42.5 0.05 -42.5 -2.1 L-41.5 -5.65 -40.5 -9.25 Q-40.5 -10.1 -40.75 -10.5 -40.95 -10.8 -41.5 -11.0 -42.55 -10.95 -43.55 -9.75 L-44.3 -8.6 -44.5 -8.75 -42.0 -15.45 -40.0 -20.9 Q-40.0 -21.5 -41.35 -22.75 L-34.3 -31.15 -30.55 -35.5 -29.35 -35.5 -29.1 -35.75 -29.0 -36.5 Q-29.0 -37.25 -29.15 -37.35 L-29.35 -37.5 -29.5 -37.5 -29.65 -37.85 -29.85 -37.75 -31.0 -37.6 -32.85 -37.75 -32.1 -38.5 Q-30.35 -38.85 -29.0 -40.0 -28.1 -40.75 -23.25 -40.75 L-16.0 -40.0 -19.0 -39.5 -21.55 -38.95 Q-23.0 -38.1 -24.5 -37.5 -26.3 -36.75 -26.3 -35.5 -26.3 -33.65 -28.0 -31.85 L-28.5 -30.45 Q-28.7 -29.35 -29.1 -28.85 L-32.0 -25.85 -34.3 -22.7 Q-36.0 -20.15 -36.0 -19.65 L-35.95 -18.85 -35.6 -18.75 -34.2 -18.8 -33.35 -19.0 Q-34.8 -18.25 -35.5 -16.6 -36.0 -15.4 -36.0 -14.1 L-35.7 -12.75 Q-35.5 -11.9 -35.75 -11.5 L-36.5 -10.15 -37.0 -8.85 Q-36.9 -7.3 -38.65 -3.6 -40.5 0.2 -40.5 1.75 L-40.45 2.55 Q-40.3 2.55 -40.1 2.75 L-39.0 3.0 Q-38.2 3.0 -37.75 2.55 L-37.1 1.8 Q-37.5 4.05 -37.5 8.25 L-36.25 8.3 -35.6 8.3 Q-36.6 10.25 -36.7 13.6 L-36.5 18.8 Q-36.4 19.75 -36.45 21.5 -36.35 23.0 -35.5 24.0 -34.95 24.55 -34.75 25.7 L-35.35 28.4 Q-35.6 28.15 -36.0 28.0 L-36.3 28.1" fill="#4b4e53" fill-rule="evenodd" stroke="none"/>
    <path d="M-34.75 25.7 Q-34.95 24.55 -35.5 24.0 -36.35 23.0 -36.45 21.5 -36.4 19.75 -36.5 18.8 L-36.7 13.6 Q-36.6 10.25 -35.6 8.3 L-36.25 8.3 -37.5 8.25 Q-37.5 4.05 -37.1 1.8 L-37.75 2.55 Q-38.2 3.0 -39.0 3.0 L-40.1 2.75 Q-40.3 2.55 -40.45 2.55 L-40.5 1.75 Q-40.5 0.2 -38.65 -3.6 -36.9 -7.3 -37.0 -8.85 L-36.5 -10.15 -35.75 -11.5 Q-35.5 -11.9 -35.7 -12.75 L-36.0 -14.1 Q-36.0 -15.4 -35.5 -16.6 -34.8 -18.25 -33.35 -19.0 L-34.2 -18.8 -35.6 -18.75 -35.95 -18.85 -36.0 -19.65 Q-36.0 -20.15 -34.3 -22.7 L-32.0 -25.85 -29.1 -28.85 Q-28.7 -29.35 -28.5 -30.45 L-28.0 -31.85 Q-26.3 -33.65 -26.3 -35.5 -26.3 -36.75 -24.5 -37.5 -23.0 -38.1 -21.55 -38.95 L-19.0 -39.5 -16.0 -40.0 -15.45 -39.85 -9.2 -36.15 -9.15 -36.1 -8.7 -35.4 Q-11.7 -36.15 -14.5 -35.0 L-22.85 -31.65 Q-26.35 -29.9 -26.5 -27.6 L-26.2 -27.15 -25.25 -27.0 -23.2 -27.2 Q-25.5 -25.2 -28.2 -21.25 -33.65 -13.25 -34.5 -6.25 L-33.25 -6.0 Q-32.85 -6.0 -32.15 -6.9 -31.25 -8.0 -30.0 -8.65 L-29.85 -8.5 Q-35.5 9.0 -35.5 12.05 -35.5 12.9 -35.2 13.15 L-34.5 13.5 -31.2 10.6 -31.0 10.8 -33.9 22.1 -34.75 25.7" fill="#393c40" fill-rule="evenodd" stroke="none"/>
    <path d="M29.65 -8.35 L30.0 -13.25 29.8 -22.25 30.0 -24.6 29.85 -27.85 29.55 -28.55 42.5 -27.85 42.5 -24.5 Q41.45 -22.15 40.65 -14.05 40.0 -7.25 39.0 -7.25 L35.15 -7.85 31.25 -8.5 30.0 -8.35 29.65 -8.35 M13.0 -7.25 L13.0 -10.25 Q16.85 -11.2 22.5 -11.35 22.5 -8.85 23.0 -7.75 L16.8 -7.25 13.0 -7.25 M-14.15 29.4 Q-14.7 31.25 -14.9 33.8 L-15.0 38.85 -14.85 45.2 -15.55 43.95 Q-15.85 43.5 -17.5 43.5 -19.05 43.5 -20.15 44.5 L-21.5 45.75 Q-21.95 45.0 -22.8 44.4 L-24.0 43.55 -25.5 42.1 -26.45 41.3 Q-24.0 37.8 -22.45 34.35 L-20.85 30.25 Q-18.65 34.0 -17.25 34.0 L-16.35 33.9 -16.35 33.75 -15.45 31.25 -14.65 28.9 -14.35 29.05 -14.15 29.4 M22.45 43.6 L21.75 39.3 21.45 37.7 Q22.4 35.0 22.55 32.75 L23.6 34.3 Q24.2 35.25 25.0 35.5 25.8 35.25 26.75 30.8 27.3 32.0 28.4 33.35 L30.75 36.55 30.5 39.55 30.5 39.9 Q30.4 40.15 29.0 41.0 L28.25 41.4 Q28.0 41.65 28.0 42.5 28.0 43.05 28.35 44.05 28.3 44.9 26.5 45.5 L26.8 44.25 Q26.55 43.5 23.75 43.5 L22.45 43.6" fill="#046193" fill-rule="evenodd" stroke="none"/>
    <path d="M-14.15 29.4 L-14.0 29.8 -13.2 31.65 Q-12.2 33.5 -10.75 33.5 -8.55 33.5 -8.1 31.3 -8.0 28.9 -7.6 28.5 L-5.45 31.15 -3.25 33.0 -2.4 32.9 -2.35 32.75 Q-2.0 32.05 -2.0 31.0 -1.15 31.5 1.6 34.7 4.0 37.5 4.75 37.5 5.85 37.5 6.5 36.0 7.25 36.35 9.65 39.0 L12.25 41.5 13.25 41.3 13.3 41.05 Q13.7 36.5 14.0 35.5 L14.05 35.5 Q16.7 40.5 19.0 42.5 20.4 40.55 21.4 37.8 L21.45 37.7 21.75 39.3 22.45 43.6 Q20.7 43.8 20.55 44.65 L20.55 44.7 20.5 47.25 Q16.25 47.35 15.0 48.75 14.3 49.5 13.5 51.0 12.1 49.6 10.4 49.65 L7.8 49.55 6.5 49.05 5.0 47.5 Q5.2 46.75 4.95 46.15 4.5 45.0 2.0 45.0 -0.85 45.0 -0.9 46.4 L-0.5 48.5 Q-0.8 48.3 -2.15 47.9 L-4.5 47.5 -6.8 47.7 -8.35 47.75 -9.15 46.7 -10.0 46.0 Q-12.7 44.25 -13.25 45.35 -13.7 46.25 -14.85 45.25 L-14.85 45.2 -15.0 38.85 -14.9 33.8 Q-14.7 31.25 -14.15 29.4" fill="#023f60" fill-rule="evenodd" stroke="none"/>
  </g>
</svg>
