<?xml version="1.0" encoding="UTF-8" standalone="no"?>
<svg xmlns:ffdec="https://www.free-decompiler.com/flash" xmlns:xlink="http://www.w3.org/1999/xlink" ffdec:objectType="shape" height="69.0px" width="67.25px" xmlns="http://www.w3.org/2000/svg">
  <g transform="matrix(1.0, 0.0, 0.0, 1.0, 12.5, 43.0)">
    <path d="M42.05 -38.75 Q44.0 -40.9 46.9 -41.6 50.1 -42.35 50.8 -40.1 52.5 -34.5 52.5 -31.1 52.95 -29.65 52.5 -28.35 51.65 -25.75 47.15 -25.75 41.0 -25.75 41.0 -34.4 41.0 -37.15 42.05 -38.75 M29.0 -3.5 L30.0 -3.5 Q36.4 -3.5 43.45 -5.65 46.75 -6.7 48.55 -7.5 51.3 -5.05 51.15 -0.5 L50.95 3.95 Q51.0 5.5 51.4 6.7 L49.55 7.1 45.7 8.7 Q38.9 11.3 26.6 11.55 L28.15 4.2 Q29.0 -0.7 29.0 -3.5" fill="#cdac98" fill-rule="evenodd" stroke="none"/>
    <path d="M39.5 -39.65 Q41.25 -43.0 48.5 -43.0 52.8 -43.0 54.0 -38.6 54.5 -36.75 54.5 -31.1 L54.7 -29.15 Q54.85 -27.65 54.5 -26.6 53.35 -23.5 47.25 -23.5 39.0 -23.5 39.0 -34.75 39.0 -38.7 39.5 -39.65 M12.45 16.75 Q10.55 13.5 10.15 8.35 L9.5 0.0 Q9.5 -0.65 10.5 -1.0 L12.65 1.05 14.3 3.0 13.5 -1.25 12.2 -3.4 Q11.0 -5.2 11.0 -5.75 11.0 -6.6 11.55 -6.8 12.8 -7.25 17.5 -6.75 14.25 -9.75 9.0 -12.4 2.95 -15.4 -3.6 -16.75 -8.25 -17.65 -9.8 -11.45 -10.5 -8.55 -10.5 -2.9 -10.5 1.3 -8.75 6.8 -8.05 8.7 -7.65 11.45 -7.2 14.5 -7.5 16.25 L-7.35 16.3 -6.6 14.0 Q-5.9 12.0 -4.75 12.0 -4.3 12.0 -2.5 15.0 -0.4 18.7 0.3 19.5 L0.6 16.45 0.9 16.25 1.0 16.0 1.0 11.5 0.95 11.45 1.0 8.75 1.25 8.65 2.25 8.5 Q3.35 8.5 7.05 11.9 L12.25 16.8 12.5 16.8 12.45 16.75 M15.8 -1.2 L16.5 2.3 16.5 6.5 16.4 6.75 15.5 7.0 Q14.45 7.0 13.5 5.9 L12.0 4.05 12.0 8.55 Q12.6 9.1 12.8 10.75 13.1 12.85 13.5 13.8 L14.65 16.3 15.5 18.75 15.35 19.8 15.05 20.25 Q15.5 20.5 14.25 20.5 13.4 20.5 8.95 16.75 L3.0 11.75 2.85 13.05 8.55 17.55 15.55 23.05 Q17.75 23.05 21.3 17.05 24.1 12.25 25.5 8.3 L26.15 0.85 Q26.35 -1.75 26.9 -3.55 21.25 -3.7 19.3 -4.45 18.25 -3.15 16.3 -4.75 L14.05 -4.75 Q15.35 -3.6 15.8 -1.2 M19.95 -6.95 Q20.6 -6.85 21.1 -6.35 L27.85 -5.75 28.0 -6.0 28.3 -5.75 29.65 -5.75 37.85 -6.05 Q41.7 -6.4 45.1 -8.25 L47.55 -9.85 Q51.35 -10.55 52.5 -6.15 53.0 -4.2 53.0 1.15 L52.9 6.7 53.0 7.5 Q53.0 8.9 45.55 11.15 36.75 13.85 26.5 14.0 L25.75 13.75 25.7 13.7 22.15 19.6 Q17.85 26.0 16.0 26.0 14.5 26.0 10.75 22.7 L6.5 18.8 2.7 16.15 2.65 16.1 Q2.5 19.1 2.5 23.3 2.4 23.3 2.4 23.65 2.25 24.0 1.5 24.0 0.45 24.0 -1.75 20.55 L-4.5 15.8 -5.9 18.8 Q-7.05 21.0 -8.25 21.0 L-9.5 20.75 -9.6 14.95 Q-9.7 11.1 -10.5 8.75 L-12.1 2.5 Q-12.5 0.0 -12.5 -2.9 -12.5 -8.1 -11.3 -12.65 -9.8 -18.45 -7.0 -19.0 -2.15 -19.75 9.0 -14.4 19.05 -9.6 19.95 -6.95 M29.0 -3.5 Q29.0 -0.7 28.15 4.2 L26.6 11.55 Q38.9 11.3 45.7 8.7 L49.55 7.1 51.4 6.7 Q51.0 5.5 50.95 3.95 L51.15 -0.5 Q51.3 -5.05 48.55 -7.5 46.75 -6.7 43.45 -5.65 36.4 -3.5 30.0 -3.5 L29.0 -3.5 M42.05 -38.75 Q41.0 -37.15 41.0 -34.4 41.0 -25.75 47.15 -25.75 51.65 -25.75 52.5 -28.35 52.95 -29.65 52.5 -31.1 52.5 -34.5 50.8 -40.1 50.1 -42.35 46.9 -41.6 44.0 -40.9 42.05 -38.75" fill="#000000" fill-rule="evenodd" stroke="none"/>
    <path d="M12.25 16.8 L7.05 11.9 Q3.35 8.5 2.25 8.5 L1.25 8.65 1.0 8.75 0.95 11.45 1.0 11.5 1.0 16.0 0.9 16.25 0.6 16.45 0.3 19.5 Q-0.4 18.7 -2.5 15.0 -4.3 12.0 -4.75 12.0 -5.9 12.0 -6.6 14.0 L-7.35 16.3 -7.5 16.25 Q-7.2 14.5 -7.65 11.45 -8.05 8.7 -8.75 6.8 -10.5 1.3 -10.5 -2.9 -10.5 -8.55 -9.8 -11.45 -8.25 -17.65 -3.6 -16.75 2.95 -15.4 9.0 -12.4 14.25 -9.75 17.5 -6.75 12.8 -7.25 11.55 -6.8 11.0 -6.6 11.0 -5.75 11.0 -5.2 12.2 -3.4 L13.5 -1.25 14.3 3.0 12.65 1.05 10.5 -1.0 Q9.5 -0.65 9.5 0.0 L10.15 8.35 Q10.55 13.5 12.45 16.75 L12.25 16.8" fill="#607178" fill-rule="evenodd" stroke="none"/>
    <path d="M15.8 -1.2 Q15.35 -3.6 14.05 -4.75 L16.3 -4.75 Q18.25 -3.15 19.3 -4.45 21.25 -3.7 26.9 -3.55 26.35 -1.75 26.15 0.85 L25.5 8.3 Q24.1 12.25 21.3 17.05 17.75 23.05 15.55 23.05 L8.55 17.55 2.85 13.05 3.0 11.75 8.95 16.75 Q13.4 20.5 14.25 20.5 15.5 20.5 15.05 20.25 L15.35 19.8 15.5 18.75 14.65 16.3 13.5 13.8 Q13.1 12.85 12.8 10.75 12.6 9.1 12.0 8.55 L12.0 4.05 13.5 5.9 Q14.45 7.0 15.5 7.0 L16.4 6.75 16.5 6.5 16.5 2.3 15.8 -1.2" fill="#046193" fill-rule="evenodd" stroke="none"/>
  </g>
</svg>
