<?xml version="1.0" encoding="UTF-8" standalone="no"?>
<svg xmlns:ffdec="https://www.free-decompiler.com/flash" xmlns:xlink="http://www.w3.org/1999/xlink" ffdec:objectType="shape" height="70.95px" width="42.35px" xmlns="http://www.w3.org/2000/svg">
  <g transform="matrix(1.0, 0.0, 0.0, 1.0, 21.05, 19.45)">
    <path d="M19.3 -9.85 Q20.5 -6.75 20.85 -3.35 L21.0 2.25 Q21.6 5.5 21.0 8.05 19.9 13.0 14.0 13.0 L13.0 13.0 13.0 13.1 10.25 16.75 Q7.35 20.95 6.5 24.75 L6.4 25.3 6.5 25.5 6.25 26.1 Q5.55 29.7 5.5 35.0 L5.55 35.0 5.8 35.15 Q6.0 35.25 6.0 36.0 6.0 36.4 5.6 36.7 L6.25 40.6 7.0 45.85 Q7.0 49.0 6.05 49.75 3.95 51.5 -4.5 51.5 -9.65 51.5 -11.9 49.75 -14.1 48.0 -16.0 42.55 L-17.6 38.05 -18.75 33.55 -20.15 25.05 Q-21.0 19.65 -21.0 15.9 -21.0 11.2 -19.8 6.2 -19.1 3.3 -18.15 1.7 L-18.35 1.55 -20.5 -0.75 Q-21.0 -1.55 -21.05 -2.9 L-21.0 -5.05 Q-21.0 -11.15 -14.45 -15.25 -11.35 -17.2 -8.5 -17.9 -4.85 -20.05 0.5 -19.25 6.25 -19.85 11.2 -17.1 15.3 -14.8 19.3 -9.85 M8.0 -16.5 Q4.65 -18.0 -1.65 -17.05 L-4.15 -16.55 -4.25 -16.5 -5.0 -16.5 Q-6.7 -16.25 -8.05 -15.5 L-9.85 -15.25 Q-10.65 -15.0 -12.1 -14.0 L-14.0 -12.6 Q-18.1 -9.35 -18.65 -8.35 -19.0 -7.8 -19.0 -5.05 -19.0 -2.6 -18.6 -2.05 -17.95 -1.1 -15.65 0.05 L-15.55 0.0 Q-14.75 1.75 -12.65 2.3 L-12.8 2.45 -12.05 2.9 Q-8.15 4.6 -6.25 5.8 -5.15 7.25 -2.35 8.45 3.1 10.75 13.9 10.75 17.6 10.75 18.55 8.0 19.0 6.8 19.0 2.35 19.0 -4.1 17.45 -7.7 15.0 -13.35 8.0 -16.5 M-18.6 11.7 Q-19.0 13.85 -19.0 15.85 -19.0 18.75 -17.95 24.15 L-18.0 23.65 -17.15 23.7 4.9 24.75 5.55 22.3 Q7.6 15.5 10.7 12.9 4.1 12.55 -0.65 10.65 -3.9 9.3 -8.75 6.55 -14.25 4.1 -15.75 3.0 L-17.0 6.15 -17.55 7.75 Q-18.25 9.75 -18.6 11.7 M3.95 29.75 L4.45 26.7 -3.5 27.0 Q-14.1 27.0 -16.35 26.05 L-17.2 25.45 -17.75 25.3 -17.45 26.7 -17.5 27.5 -17.5 29.6 -17.5 29.85 -17.5 30.0 -17.15 31.2 -16.45 33.75 -16.05 35.5 -13.25 36.0 -3.5 36.75 -2.45 36.0 Q0.7 36.0 2.5 35.0 L2.85 34.8 4.0 34.85 3.85 33.75 4.0 33.0 Q4.0 32.2 3.7 31.9 L3.55 31.8 3.5 31.55 3.85 30.0 3.9 30.0 3.9 29.95 3.95 29.75 M-15.0 38.8 L-15.0 38.85 -14.95 38.95 -14.9 38.95 -14.25 40.55 -14.45 40.55 -14.0 42.0 Q-13.6 43.35 -11.35 46.25 -9.05 49.3 -8.25 49.3 L-3.2 49.15 2.3 48.75 Q3.45 48.5 4.55 47.8 5.0 47.5 5.0 46.0 5.0 44.1 4.3 41.3 L4.5 38.85 4.35 37.15 0.55 37.75 -1.85 38.45 Q-3.15 39.0 -3.75 39.0 L-13.0 38.2 -15.45 37.55 -15.0 38.8" fill="#000000" fill-rule="evenodd" stroke="none"/>
    <path d="M8.0 -16.5 Q15.0 -13.35 17.45 -7.7 19.0 -4.1 19.0 2.35 19.0 6.8 18.55 8.0 17.6 10.75 13.9 10.75 3.1 10.75 -2.35 8.45 -5.15 7.25 -6.25 5.8 -8.15 4.6 -12.05 2.9 L-12.8 2.45 -12.65 2.3 Q-14.75 1.75 -15.55 0.0 L-15.65 0.05 Q-17.95 -1.1 -18.6 -2.05 -19.0 -2.6 -19.0 -5.05 -19.0 -7.8 -18.65 -8.35 -18.1 -9.35 -14.0 -12.6 L-12.1 -14.0 Q-10.65 -15.0 -9.85 -15.25 L-8.05 -15.5 Q-6.7 -16.25 -5.0 -16.5 L-4.25 -16.5 -4.15 -16.55 -1.65 -17.05 Q4.65 -18.0 8.0 -16.5" fill="#342825" fill-rule="evenodd" stroke="none"/>
    <path d="M-17.55 7.75 L-17.0 6.15 -15.75 3.0 Q-14.25 4.1 -8.75 6.55 -3.9 9.3 -0.65 10.65 4.1 12.55 10.7 12.9 7.6 15.5 5.55 22.3 L4.9 24.75 -17.15 23.7 -18.0 23.65 -17.95 24.15 Q-19.0 18.75 -19.0 15.85 -19.0 13.85 -18.6 11.7 -17.0 13.45 -13.6 15.5 -5.45 20.5 6.0 20.5 L6.15 20.5 Q6.75 18.75 7.45 17.35 L-3.75 15.75 Q-6.25 15.35 -11.1 13.0 L-14.2 10.7 Q-16.0 9.15 -16.6 8.75 L-17.55 7.75 M3.95 29.75 L3.9 29.95 3.9 30.0 3.85 30.0 3.95 29.75 M-14.9 38.95 L-14.95 38.8 -15.0 38.8 -15.45 37.55 -13.0 38.2 -3.75 39.0 Q-3.15 39.0 -1.85 38.45 L0.55 37.75 4.35 37.15 4.5 38.85 4.3 41.3 Q5.0 44.1 5.0 46.0 5.0 47.5 4.55 47.8 3.45 48.5 2.3 48.75 L-3.2 49.15 -8.25 49.3 Q-9.05 49.3 -11.35 46.25 -13.6 43.35 -14.0 42.0 L-14.45 40.55 -14.25 40.55 -14.9 38.95" fill="#cdac98" fill-rule="evenodd" stroke="none"/>
    <path d="M-17.55 7.75 L-16.6 8.75 Q-16.0 9.15 -14.2 10.7 L-11.1 13.0 Q-6.25 15.35 -3.75 15.75 L7.45 17.35 Q6.75 18.75 6.15 20.5 L6.0 20.5 Q-5.45 20.5 -13.6 15.5 -17.0 13.45 -18.6 11.7 -18.25 9.75 -17.55 7.75" fill="#7f98ff" fill-rule="evenodd" stroke="none"/>
    <path d="M3.85 30.0 L3.5 31.55 3.55 31.8 3.7 31.9 Q4.0 32.2 4.0 33.0 L3.85 33.75 4.0 34.85 2.85 34.8 2.5 35.0 Q0.7 36.0 -2.45 36.0 L-3.5 36.75 -13.25 36.0 -16.05 35.5 -16.45 33.75 -17.15 31.2 -17.5 30.0 -17.5 29.85 -17.5 29.6 -17.5 27.5 -17.45 26.7 -17.75 25.3 -17.2 25.45 -16.35 26.05 Q-14.1 27.0 -3.5 27.0 L4.45 26.7 3.95 29.75 3.85 30.0" fill="#8a5242" fill-rule="evenodd" stroke="none"/>
  </g>
</svg>
