<?xml version="1.0" encoding="UTF-8" standalone="no"?>
<svg xmlns:ffdec="https://www.free-decompiler.com/flash" xmlns:xlink="http://www.w3.org/1999/xlink" ffdec:objectType="shape" height="148.35px" width="69.5px" xmlns="http://www.w3.org/2000/svg">
  <g transform="matrix(1.0, 0.0, 0.0, 1.0, 29.5, 51.35)">
    <path d="M24.55 -25.05 Q29.0 -18.7 30.8 -15.25 L33.5 -19.4 Q35.95 -23.65 36.7 -27.6 L36.4 -29.95 36.35 -31.15 Q36.4 -35.3 35.9 -36.75 34.1 -41.9 31.6 -44.65 30.4 -46.05 29.0 -46.85 29.0 -43.25 27.9 -39.3 27.1 -36.45 25.95 -34.5 L25.95 -34.45 26.1 -34.4 24.45 -31.65 Q22.95 -29.35 21.95 -28.75 L24.55 -25.05 M26.5 -42.85 L26.95 -47.0 27.5 -51.35 Q31.3 -48.85 34.7 -43.75 38.0 -38.75 38.4 -35.1 L38.4 -29.6 38.45 -29.6 38.4 -29.0 Q38.4 -28.2 38.7 -27.4 38.2 -24.35 37.0 -21.15 34.85 -15.35 31.6 -12.9 L32.0 -11.6 32.0 -11.25 31.85 -10.9 31.85 -10.8 31.9 -10.7 31.9 -10.4 32.7 -0.25 32.6 0.35 32.95 0.65 32.85 0.8 32.55 1.1 32.45 1.45 32.2 1.75 30.7 1.75 30.7 2.7 30.65 3.75 30.7 4.3 30.6 7.45 31.2 8.0 32.7 9.6 Q33.5 10.55 33.7 11.45 L34.45 15.3 34.7 18.5 Q34.7 22.7 33.5 26.85 L33.05 28.6 Q35.6 29.85 37.85 35.8 40.0 41.6 40.0 44.65 L39.95 45.4 39.75 45.75 Q38.1 46.1 37.0 45.3 L37.5 47.05 37.5 62.5 36.5 63.0 Q35.65 62.7 35.2 61.25 L34.5 59.3 34.0 65.7 33.5 70.25 34.25 72.7 35.0 75.3 34.9 76.65 Q35.5 77.0 35.8 78.25 36.0 79.05 36.0 82.1 L35.55 89.3 Q34.85 95.65 33.5 97.0 32.05 96.05 31.55 94.4 L30.55 91.5 Q30.3 92.05 30.15 93.45 29.8 94.75 28.5 95.5 27.1 94.55 26.45 92.65 L25.5 90.0 Q25.0 89.2 24.35 89.3 23.85 89.4 23.5 88.5 L23.5 86.0 24.0 79.05 24.3 78.9 24.0 78.15 24.0 75.65 24.05 71.75 24.1 71.75 23.8 71.1 22.55 67.0 22.1 65.3 21.75 63.55 Q20.9 61.25 20.35 61.4 L19.5 62.0 Q18.25 62.0 16.55 57.95 L14.05 52.0 Q13.75 52.15 13.5 52.95 L13.05 54.25 Q13.5 54.5 12.25 54.5 11.1 54.5 9.85 51.15 8.7 48.15 8.5 45.55 L7.9 41.05 Q7.5 38.25 7.5 36.55 L7.3 36.3 7.3 36.4 7.25 36.4 6.9 37.05 Q6.55 37.5 5.75 37.5 L4.8 37.25 Q4.5 36.5 4.5 34.9 4.5 32.85 5.5 28.3 L6.4 24.7 5.6 24.6 5.35 24.65 Q-0.8 24.3 -1.85 22.5 L-2.0 22.75 -2.2 21.55 -2.6 20.45 Q-3.7 20.3 -4.6 19.65 -5.8 18.7 -7.5 18.5 L-11.55 17.55 -15.5 16.3 -14.85 15.35 Q-14.1 14.65 -12.5 14.0 -13.3 13.65 -17.95 13.05 -22.1 12.2 -21.75 10.05 L-22.85 10.35 -24.75 10.5 -27.2 10.05 -28.6 9.55 -29.5 10.0 -29.0 8.7 -29.0 8.25 -28.65 8.25 -27.5 6.8 Q-26.5 5.65 -24.9 4.25 -21.85 1.55 -20.0 0.7 L-20.0 0.4 Q-20.0 -0.4 -19.7 -0.5 L-19.65 -0.5 -19.95 -1.8 -20.0 -4.25 Q-20.0 -7.75 -19.2 -11.3 -21.65 -12.9 -23.25 -15.35 L-24.6 -17.9 Q-25.65 -18.95 -27.0 -22.4 -27.0 -23.25 -26.0 -24.4 L-25.85 -24.55 -26.0 -24.6 -26.3 -24.9 -26.6 -27.1 Q-25.45 -28.15 -24.65 -27.35 L-23.0 -29.05 Q-22.05 -30.0 -23.0 -31.75 L-21.5 -32.0 Q-20.85 -32.0 -20.5 -31.5 -20.1 -31.0 -19.5 -31.0 -18.75 -31.0 -18.2 -32.45 -17.7 -33.7 -15.0 -33.0 -12.8 -32.4 -12.2 -31.2 L-12.1 -31.35 Q-11.75 -29.9 -11.05 -28.75 -6.65 -35.0 -2.25 -38.0 -1.25 -39.05 1.05 -40.3 4.25 -42.1 6.0 -42.4 7.25 -41.5 8.75 -41.0 L13.25 -37.6 Q14.85 -36.65 17.4 -33.85 L20.45 -30.45 21.35 -31.45 23.5 -33.9 Q23.6 -34.75 24.95 -38.4 L26.5 -42.85 M28.4 -14.85 L27.0 -17.2 Q22.8 -24.5 21.05 -26.5 L13.85 -34.35 Q10.95 -36.95 7.8 -38.55 6.55 -39.2 5.25 -39.65 L3.35 -38.5 Q1.0 -37.25 -0.4 -36.4 -5.85 -32.35 -9.65 -27.1 -8.5 -26.05 -6.45 -25.2 L-5.0 -24.65 Q-1.05 -23.25 0.15 -22.25 2.5 -20.35 2.5 -16.4 2.5 -11.1 -1.25 -9.4 -2.75 -8.7 -5.8 -8.55 L-5.85 -8.55 -8.0 -8.5 -12.9 -8.9 Q-15.15 -9.3 -17.05 -10.1 L-17.55 -7.15 -16.25 -7.5 -13.05 -7.75 -5.85 -8.05 -5.8 -8.05 -5.75 -8.05 0.0 -8.25 10.45 -8.1 Q18.0 -7.9 27.1 -7.95 L30.1 -8.0 29.8 -9.85 29.5 -11.3 29.35 -11.75 28.2 -14.75 28.45 -14.7 28.4 -14.85 M-13.15 -0.6 L-2.5 -0.85 2.05 -1.0 2.3 -0.85 2.4 -0.75 5.4 -0.7 6.35 -1.05 9.8 -0.65 26.75 -0.3 28.0 -0.3 28.05 -0.3 30.1 -0.25 30.25 -0.25 30.25 -0.55 30.3 -3.65 30.2 -6.25 27.5 -5.95 26.3 -5.85 17.0 -5.5 -12.75 -5.5 -17.6 -5.5 -17.7 -5.55 -17.7 -5.5 -18.0 -0.5 -14.15 -0.6 -13.15 -0.6 M21.55 2.95 L21.35 2.7 Q18.2 1.85 18.2 4.05 18.2 4.8 18.35 4.95 L18.45 5.2 19.95 5.45 Q21.7 5.45 21.7 3.95 L21.55 2.95 M27.6 19.1 Q27.95 16.0 28.7 14.95 29.5 15.55 29.65 16.45 L29.7 17.95 Q29.7 21.85 27.6 25.55 28.25 25.8 29.05 27.05 L30.1 28.95 31.7 23.7 Q32.7 20.6 32.7 18.45 32.45 15.2 31.5 12.7 30.2 9.2 28.15 9.25 24.1 11.4 21.5 14.9 18.7 18.7 18.7 22.25 L18.7 22.45 19.0 22.8 18.8 23.3 19.45 27.3 20.2 31.95 26.6 23.2 Q27.25 22.25 27.6 19.1 M15.65 3.5 L16.1 3.45 15.65 3.4 15.65 3.5 M12.5 1.5 L5.3 1.5 5.3 1.45 1.2 1.4 0.5 1.5 -0.5 1.5 -0.6 1.8 -0.65 1.85 -0.35 5.9 -0.35 11.1 -0.2 17.2 Q0.15 19.7 1.1 21.25 L1.25 21.15 1.5 21.1 1.5 21.25 1.65 21.3 1.8 21.5 2.75 21.5 Q3.45 22.0 4.75 22.0 L5.05 22.15 10.65 22.75 15.5 22.25 15.5 22.2 13.6 18.75 13.5 15.8 Q13.5 14.85 14.25 12.3 L15.0 9.8 Q12.5 3.35 12.5 1.9 L12.5 1.5 M16.5 12.35 Q15.55 14.45 15.5 15.5 L15.5 15.65 15.5 15.9 Q15.55 17.8 16.15 18.85 L16.7 19.7 16.75 18.35 Q16.95 17.6 19.2 13.7 20.7 11.1 23.0 9.5 L17.35 10.45 16.5 12.35 M37.4 41.55 L36.75 38.85 35.75 35.55 33.7 32.4 32.55 30.55 Q31.65 34.15 31.2 37.25 30.85 37.7 30.2 37.95 28.95 37.2 28.8 35.35 L28.45 32.0 27.1 29.0 26.45 27.35 Q22.2 33.8 20.7 37.25 20.35 37.7 19.7 37.95 18.2 36.8 18.05 34.0 L17.7 29.75 Q17.0 27.6 16.8 24.55 L10.75 25.0 8.05 24.9 8.0 24.9 8.0 25.35 Q8.0 27.2 7.0 30.8 L7.0 33.0 Q7.7 32.45 9.3 32.75 L10.0 41.25 Q10.55 46.65 11.75 50.0 L12.0 50.0 12.05 48.25 12.4 48.15 13.5 48.0 Q14.6 48.0 16.55 52.05 L19.0 57.5 Q20.05 56.65 20.5 56.5 L22.45 60.5 Q23.85 63.35 24.25 65.0 24.5 66.15 26.05 69.4 L27.2 71.85 27.65 71.85 Q30.85 71.45 31.55 69.0 L32.5 64.05 32.5 54.0 Q32.45 53.9 32.55 53.75 32.75 53.5 33.5 53.5 L34.45 54.05 35.3 55.0 35.5 51.1 35.2 47.85 34.5 43.8 34.5 41.25 34.75 41.15 35.75 41.0 Q36.5 41.0 37.0 41.5 L37.5 42.0 37.4 41.55 M27.15 73.9 L26.25 74.0 26.0 74.0 26.0 78.25 29.8 78.25 Q32.6 77.85 32.95 76.0 33.1 75.25 32.55 73.3 L27.15 73.9 M33.35 91.8 L34.0 82.1 33.7 79.1 Q32.0 80.5 27.75 80.5 L26.35 80.35 26.3 81.7 25.5 84.85 Q25.5 85.9 26.5 87.9 L28.0 91.5 Q28.3 91.25 28.5 89.55 28.65 88.1 30.5 87.5 31.85 88.15 32.25 89.5 32.8 91.3 33.25 91.8 L33.3 92.0 33.35 91.8 M-19.75 -22.25 L-18.6 -23.35 Q-17.35 -23.7 -15.0 -22.75 L-15.25 -23.75 -15.5 -25.15 Q-15.5 -26.5 -15.15 -26.75 L-13.5 -28.0 -13.4 -29.05 -13.45 -29.2 -13.5 -29.2 -14.4 -30.15 Q-15.15 -31.2 -16.85 -30.75 L-17.85 -28.9 -21.0 -29.0 Q-21.0 -28.3 -21.9 -27.1 L-23.0 -25.5 -23.1 -24.1 Q-23.4 -22.95 -24.85 -22.25 -24.25 -21.65 -22.95 -20.85 L-22.1 -20.25 -21.6 -19.65 -21.4 -19.45 Q-20.95 -18.85 -20.5 -18.75 -19.8 -19.4 -19.75 -22.25 M-10.35 -25.15 Q-10.75 -26.1 -11.55 -26.8 L-11.75 -26.95 -12.05 -26.5 -13.1 -24.85 Q-12.95 -23.1 -13.1 -20.75 L-15.05 -20.7 -17.6 -21.0 Q-17.8 -19.6 -18.1 -18.55 -18.6 -16.5 -20.25 -16.5 L-21.85 -16.75 -20.5 -14.9 -18.7 -13.35 -18.65 -13.65 -18.5 -13.55 -18.5 -13.25 -17.95 -13.15 -18.0 -13.1 -17.0 -12.5 Q-16.65 -12.6 -16.4 -12.8 L-16.55 -12.2 Q-14.8 -11.45 -12.6 -11.1 L-11.85 -10.95 -9.65 -13.35 Q-7.2 -15.45 -7.0 -17.85 L-7.0 -21.85 -6.9 -23.15 -7.0 -23.2 -7.65 -23.45 Q-9.1 -24.1 -10.2 -24.95 L-10.35 -25.15 M-8.0 -10.75 Q-2.0 -10.75 -0.15 -13.55 0.8 -15.0 0.5 -16.55 0.5 -19.55 -1.85 -21.05 L-5.0 -22.45 -5.0 -20.05 Q-5.0 -16.3 -6.5 -13.1 -7.2 -11.65 -8.0 -10.75 L-8.05 -10.75 -8.0 -10.75 M-11.3 11.95 Q-7.05 13.3 -6.5 14.5 -6.75 15.2 -7.5 15.5 L-9.85 15.75 -5.5 16.55 -4.25 16.9 -2.5 17.85 -2.5 1.5 -18.2 1.5 Q-19.25 2.85 -24.65 6.75 L-25.5 7.3 -25.5 7.5 -21.85 7.5 -21.65 7.7 -21.5 8.0 -16.85 8.0 Q-16.65 8.5 -16.7 9.2 L-17.1 10.3 -11.3 11.95" fill="#000000" fill-rule="evenodd" stroke="none"/>
    <path d="M30.25 -0.55 L30.25 -0.25 30.1 -0.25 30.25 -0.55" fill="#5b6171" fill-rule="evenodd" stroke="none"/>
    <path d="M21.55 2.95 L21.7 3.95 Q21.7 5.45 19.95 5.45 L18.45 5.2 18.35 4.95 Q18.2 4.8 18.2 4.05 18.2 1.85 21.35 2.7 L21.55 2.95" fill="#ffffff" fill-rule="evenodd" stroke="none"/>
    <path d="M16.5 12.35 L17.35 10.45 23.0 9.5 Q20.7 11.1 19.2 13.7 16.95 17.6 16.75 18.35 L16.7 19.7 16.15 18.85 Q15.55 17.8 15.5 15.9 L15.5 15.65 15.5 15.5 Q15.55 14.45 16.5 12.35" fill="#cdac98" fill-rule="evenodd" stroke="none"/>
    <path d="M-17.7 -5.5 L-17.7 -5.55 -17.7 -5.5" fill="#666666" fill-rule="evenodd" stroke="none"/>
    <path d="M24.15 -15.8 L24.8 -15.45 24.15 -15.8 M-8.0 -10.75 L-8.05 -10.75 -8.0 -10.75" fill="#333333" fill-rule="evenodd" stroke="none"/>
    <path d="M27.15 73.9 L32.55 73.3 Q33.1 75.25 32.95 76.0 32.6 77.85 29.8 78.25 L26.0 78.25 26.0 74.0 26.25 74.0 27.15 73.9" fill="#046193" fill-rule="evenodd" stroke="none"/>
    <path d="M24.15 -15.8 L23.9 -15.75 23.65 -16.25 24.15 -15.8" fill="#795c55" fill-rule="evenodd" stroke="none"/>
    <path d="M27.6 19.1 Q27.25 22.25 26.6 23.2 L20.2 31.95 19.45 27.3 18.8 23.3 19.0 22.8 18.7 22.45 18.7 22.25 Q18.7 18.7 21.5 14.9 24.1 11.4 28.15 9.25 30.2 9.2 31.5 12.7 32.45 15.2 32.7 18.45 32.7 20.6 31.7 23.7 L30.1 28.95 29.05 27.05 Q28.25 25.8 27.6 25.55 29.7 21.85 29.7 17.95 L29.65 16.45 Q29.5 15.55 28.7 14.95 27.95 16.0 27.6 19.1 M8.05 24.9 L10.75 25.0 16.8 24.55 Q17.0 27.6 17.7 29.75 L18.05 34.0 Q18.2 36.8 19.7 37.95 20.35 37.7 20.7 37.25 22.2 33.8 26.45 27.35 L27.1 29.0 28.45 32.0 28.8 35.35 Q28.95 37.2 30.2 37.95 30.85 37.7 31.2 37.25 31.65 34.15 32.55 30.55 L33.7 32.4 35.75 35.55 36.75 38.85 37.4 41.55 37.0 41.5 Q36.5 41.0 35.75 41.0 L34.75 41.15 34.5 41.25 34.5 43.8 35.2 47.85 35.5 51.1 35.3 55.0 34.45 54.05 33.5 53.5 Q32.75 53.5 32.55 53.75 32.45 53.9 32.5 54.0 L32.5 64.05 31.55 69.0 Q30.85 71.45 27.65 71.85 L27.2 71.85 26.05 69.4 Q24.5 66.15 24.25 65.0 23.85 63.35 22.45 60.5 L20.5 56.5 Q20.05 56.65 19.0 57.5 L16.55 52.05 Q14.6 48.0 13.5 48.0 L12.4 48.15 12.05 48.25 12.0 50.0 11.75 50.0 Q10.55 46.65 10.0 41.25 L9.3 32.75 Q7.7 32.45 7.0 33.0 L7.0 30.8 Q8.0 27.2 8.0 25.35 L8.05 24.9 M33.25 91.8 Q32.8 91.3 32.25 89.5 31.85 88.15 30.5 87.5 28.65 88.1 28.5 89.55 28.3 91.25 28.0 91.5 L26.5 87.9 Q25.5 85.9 25.5 84.85 L26.3 81.7 26.35 80.35 27.75 80.5 Q32.0 80.5 33.7 79.1 L34.0 82.1 33.35 91.8 33.25 91.8 M-11.3 11.95 L-17.1 10.3 -16.7 9.2 Q-16.65 8.5 -16.85 8.0 L-21.5 8.0 -21.65 7.7 -21.85 7.5 -25.5 7.5 -25.5 7.3 -24.65 6.75 Q-19.25 2.85 -18.2 1.5 L-2.5 1.5 -2.5 17.85 -4.25 16.9 -5.5 16.55 -9.85 15.75 -7.5 15.5 Q-6.75 15.2 -6.5 14.5 -7.05 13.3 -11.3 11.95" fill="#4e2f29" fill-rule="evenodd" stroke="none"/>
    <path d="M-5.8 -8.55 L-5.75 -8.05 -5.8 -8.05 -5.8 -8.55" fill="#332d26" fill-rule="evenodd" stroke="none"/>
    <path d="M24.55 -25.05 Q27.05 -26.3 28.5 -29.5 29.3 -31.2 30.5 -37.75 L31.6 -44.65 Q34.1 -41.9 35.9 -36.75 36.4 -35.3 36.35 -31.15 L36.4 -29.95 36.7 -27.6 Q35.95 -23.65 33.5 -19.4 L30.8 -15.25 Q29.0 -18.7 24.55 -25.05 M26.75 -0.3 L9.8 -0.65 6.35 -1.05 5.4 -0.7 2.4 -0.75 2.3 -0.85 2.05 -1.0 -2.5 -0.85 -13.15 -0.6 -12.5 -4.3 -12.75 -5.5 17.0 -5.5 26.3 -5.85 26.25 -5.75 26.55 -3.1 26.75 -0.3 M-10.35 -25.15 L-10.2 -24.95 Q-9.1 -24.1 -7.65 -23.45 L-7.0 -23.2 -6.9 -23.15 -7.0 -21.85 -7.0 -17.85 Q-7.2 -15.45 -9.65 -13.35 L-11.85 -10.95 -12.6 -11.1 Q-14.8 -11.45 -16.55 -12.2 L-16.4 -12.8 Q-16.65 -12.6 -17.0 -12.5 L-18.0 -13.1 -17.95 -13.15 -18.5 -13.25 -18.5 -13.55 -18.65 -13.65 -18.7 -13.35 -20.5 -14.9 -21.85 -16.75 -20.25 -16.5 Q-18.6 -16.5 -18.1 -18.55 -17.8 -19.6 -17.6 -21.0 L-15.05 -20.7 -13.1 -20.75 Q-12.95 -23.1 -13.1 -24.85 L-12.05 -26.5 -11.75 -26.95 -11.55 -26.8 Q-10.75 -26.1 -10.35 -25.15" fill="#8a5242" fill-rule="evenodd" stroke="none"/>
    <path d="M-19.75 -22.25 Q-19.8 -19.4 -20.5 -18.75 -20.95 -18.85 -21.4 -19.45 L-21.6 -19.65 -22.1 -20.25 -22.95 -20.85 Q-24.25 -21.65 -24.85 -22.25 -23.4 -22.95 -23.1 -24.1 L-23.0 -25.5 -21.9 -27.1 Q-21.0 -28.3 -21.0 -29.0 L-17.85 -28.9 -16.85 -30.75 Q-15.15 -31.2 -14.4 -30.15 L-13.5 -29.2 -13.45 -29.2 -13.4 -29.05 -13.5 -28.0 -15.15 -26.75 Q-15.5 -26.5 -15.5 -25.15 L-15.25 -23.75 -15.0 -22.75 Q-17.35 -23.7 -18.6 -23.35 L-19.75 -22.25 M-8.0 -10.75 Q-7.2 -11.65 -6.5 -13.1 -5.0 -16.3 -5.0 -20.05 L-5.0 -22.45 -1.85 -21.05 Q0.5 -19.55 0.5 -16.55 0.8 -15.0 -0.15 -13.55 -2.0 -10.75 -8.0 -10.75" fill="#583429" fill-rule="evenodd" stroke="none"/>
    <path d="M-6.45 -25.2 Q-2.85 -30.05 2.05 -34.2 L5.35 -36.75 Q9.55 -33.95 12.9 -30.95 16.3 -27.9 19.55 -23.85 22.05 -20.7 24.15 -15.8 L23.65 -16.25 23.9 -15.75 25.4 -12.3 Q26.5 -10.3 27.1 -7.95 18.0 -7.9 10.45 -8.1 L0.0 -8.25 -5.75 -8.05 -5.8 -8.55 Q-2.75 -8.7 -1.25 -9.4 2.5 -11.1 2.5 -16.4 2.5 -20.35 0.15 -22.25 -1.05 -23.25 -5.0 -24.65 L-6.45 -25.2 M-5.8 -8.05 L-5.85 -8.05 -13.05 -7.75 -12.9 -8.9 -8.0 -8.5 -5.85 -8.55 -5.8 -8.55 -5.8 -8.05 M12.5 1.5 L12.5 1.9 Q12.5 3.35 15.0 9.8 L14.25 12.3 Q13.5 14.85 13.5 15.8 L13.6 18.75 15.5 22.2 15.5 22.25 10.65 22.75 5.05 22.15 4.75 22.0 Q3.45 22.0 2.75 21.5 L1.8 21.5 1.65 21.3 1.5 21.25 1.5 21.1 1.25 21.15 1.1 21.25 Q0.15 19.7 -0.2 17.2 L-0.35 11.1 -0.35 5.9 -0.65 1.85 -0.6 1.8 -0.5 1.5 0.5 1.5 1.2 1.4 5.3 1.45 5.3 1.5 12.5 1.5" fill="#342825" fill-rule="evenodd" stroke="none"/>
    <path d="M-6.45 -25.2 Q-8.5 -26.05 -9.65 -27.1 -5.85 -32.35 -0.4 -36.4 1.0 -37.25 3.35 -38.5 L5.25 -39.65 Q6.55 -39.2 7.8 -38.55 10.95 -36.95 13.85 -34.35 L21.05 -26.5 Q22.8 -24.5 27.0 -17.2 L28.4 -14.85 28.2 -14.75 29.35 -11.75 29.35 -11.3 29.5 -11.3 29.8 -9.85 30.1 -8.0 27.1 -7.95 Q26.5 -10.3 25.4 -12.3 L23.9 -15.75 24.15 -15.8 Q22.05 -20.7 19.55 -23.85 16.3 -27.9 12.9 -30.95 9.55 -33.95 5.35 -36.75 L2.05 -34.2 Q-2.85 -30.05 -6.45 -25.2 M24.15 -15.8 L24.8 -15.45 24.15 -15.8 M-13.05 -7.75 L-16.25 -7.5 -17.55 -7.15 -17.05 -10.1 Q-15.15 -9.3 -12.9 -8.9 L-13.05 -7.75" fill="#664f48" fill-rule="evenodd" stroke="none"/>
    <path d="M31.6 -44.65 L30.5 -37.75 Q29.3 -31.2 28.5 -29.5 27.05 -26.3 24.55 -25.05 L21.95 -28.75 Q22.95 -29.35 24.45 -31.65 L26.1 -34.4 25.95 -34.5 Q27.1 -36.45 27.9 -39.3 29.0 -43.25 29.0 -46.85 30.4 -46.05 31.6 -44.65 M26.75 -0.3 L26.55 -3.1 26.25 -5.75 26.3 -5.85 27.5 -5.95 30.2 -6.25 30.3 -3.65 30.25 -0.55 30.1 -0.25 28.05 -0.3 28.0 -0.3 26.75 -0.3 M-12.75 -5.5 L-12.5 -4.3 -13.15 -0.6 -14.15 -0.6 -18.0 -0.5 -17.7 -5.5 -17.7 -5.55 -17.6 -5.5 -12.75 -5.5" fill="#b98c6f" fill-rule="evenodd" stroke="none"/>
  </g>
</svg>
