<?xml version="1.0" encoding="UTF-8" standalone="no"?>
<svg xmlns:ffdec="https://www.free-decompiler.com/flash" xmlns:xlink="http://www.w3.org/1999/xlink" ffdec:objectType="shape" height="72.35px" width="72.35px" xmlns="http://www.w3.org/2000/svg">
  <g transform="matrix(1.0, 0.0, 0.0, 1.0, 13.5, 46.35)">
    <path d="M44.95 -25.85 Q45.45 -25.5 45.6 -24.8 L45.75 -22.85 Q45.95 -21.0 47.15 -18.0 48.05 -15.55 50.65 -13.3 52.65 -11.6 56.4 -9.45 L57.0 -9.55 57.45 -9.0 Q54.35 -6.85 52.65 -6.65 L54.85 -6.45 57.15 -6.5 58.15 -6.35 58.5 -6.0 58.55 -5.9 58.7 -5.6 58.85 -5.25 58.4 -5.0 58.2 -4.9 Q57.35 -4.45 55.7 -3.75 L52.45 -2.4 52.35 -2.4 Q49.95 -1.15 47.25 -0.95 L42.05 -0.65 40.65 -0.15 45.9 0.3 46.25 1.05 46.05 1.35 46.25 1.45 45.85 1.65 45.55 1.9 44.85 2.1 35.1 6.2 Q31.95 7.45 30.0 9.1 27.55 11.25 25.8 12.2 22.2 14.2 18.45 18.1 15.0 21.75 13.35 24.95 13.1 25.2 12.65 25.25 L12.25 24.95 Q9.6 25.9 1.4 26.0 L0.4 25.9 0.15 26.0 -0.6 25.9 Q-0.9 25.75 -0.9 25.05 -0.9 21.55 6.3 13.35 10.8 8.15 13.2 6.4 2.05 2.3 0.2 1.2 -2.4 -0.3 -4.85 -2.3 -7.7 -4.65 -8.75 -6.45 -11.5 -11.1 -12.55 -15.15 -13.5 -18.75 -13.5 -23.75 -13.5 -27.4 -12.1 -31.25 -10.75 -35.1 -8.8 -35.6 L-8.7 -35.45 -7.9 -35.3 -7.4 -35.55 -7.4 -35.1 -9.4 -30.8 Q-11.45 -26.25 -11.45 -23.55 -11.45 -10.5 -3.25 -3.3 3.25 2.45 16.35 5.4 L16.55 5.75 15.7 6.35 15.25 6.55 11.55 10.15 Q7.25 14.2 6.3 15.95 L3.05 20.3 Q1.65 22.35 1.4 24.1 L3.2 24.0 11.25 23.7 11.5 23.7 11.45 23.3 Q11.45 19.2 26.9 9.15 34.85 3.95 39.75 2.05 L38.8 1.9 35.1 1.25 34.65 0.75 35.65 0.1 Q36.15 -0.9 42.05 -2.4 47.45 -3.85 51.7 -4.1 L52.6 -4.6 Q50.45 -4.75 49.5 -5.3 48.9 -5.65 48.6 -6.5 49.85 -7.8 52.55 -8.6 51.1 -9.4 49.35 -11.25 46.5 -14.2 45.75 -16.5 L44.25 -21.1 Q43.5 -23.55 43.5 -25.35 L44.1 -25.2 44.85 -25.5 44.95 -25.85" fill="#000000" fill-rule="evenodd" stroke="none"/>
    <path d="M-8.8 -35.6 L-9.0 -35.8 -9.05 -36.7 Q-9.05 -37.2 -5.8 -39.7 L-1.95 -42.3 Q-1.6 -42.4 0.6 -43.55 L2.75 -44.7 6.25 -45.55 16.2 -46.35 Q18.45 -46.35 25.1 -43.3 L30.45 -41.4 Q35.15 -39.7 36.1 -38.95 37.65 -37.8 41.25 -32.8 45.05 -27.6 45.05 -26.3 L44.95 -25.85 44.85 -25.5 44.1 -25.2 43.5 -25.35 Q43.5 -23.55 44.25 -21.1 L45.75 -16.5 Q46.5 -14.2 49.35 -11.25 51.1 -9.4 52.55 -8.6 49.85 -7.8 48.6 -6.5 48.9 -5.65 49.5 -5.3 50.45 -4.75 52.6 -4.6 L51.7 -4.1 Q47.45 -3.85 42.05 -2.4 36.15 -0.9 35.65 0.1 L34.65 0.75 35.1 1.25 38.8 1.9 39.75 2.05 Q34.85 3.95 26.9 9.15 11.45 19.2 11.45 23.3 L11.5 23.7 11.25 23.7 3.2 24.0 1.4 24.1 Q1.65 22.35 3.05 20.3 L6.3 15.95 Q7.25 14.2 11.55 10.15 L15.25 6.55 15.7 6.35 16.55 5.75 16.35 5.4 Q3.25 2.45 -3.25 -3.3 -11.45 -10.5 -11.45 -23.55 -11.45 -26.25 -9.4 -30.8 L-7.4 -35.1 -7.4 -35.55 -7.9 -35.3 -8.7 -35.45 -8.8 -35.6" fill="#242939" fill-rule="evenodd" stroke="none"/>
  </g>
</svg>
