<?xml version="1.0" encoding="UTF-8" standalone="no"?>
<svg xmlns:ffdec="https://www.free-decompiler.com/flash" xmlns:xlink="http://www.w3.org/1999/xlink" ffdec:objectType="shape" height="65.0px" width="39.0px" xmlns="http://www.w3.org/2000/svg">
  <g transform="matrix(1.0, 0.0, 0.0, 1.0, 19.5, 32.5)">
    <path d="M0.35 -30.5 L1.95 -28.55 1.05 -28.25 2.45 -26.25 5.5 -21.0 Q8.35 -17.5 10.55 -16.25 15.0 -13.8 15.0 -12.4 L14.9 -11.55 14.75 -11.2 11.05 -10.75 Q11.9 -9.9 16.1 -8.15 19.5 -6.8 19.5 -5.35 19.5 -4.4 18.3 -4.2 15.95 -3.75 7.05 -4.25 L9.2 -3.1 Q11.0 -2.05 11.0 -1.4 11.0 -0.6 10.7 -0.3 L10.0 0.0 8.5 0.0 7.25 -0.3 Q4.0 -0.65 4.0 2.4 4.0 3.35 5.0 4.5 L5.0 4.8 9.2 12.05 Q9.5 12.65 9.5 17.0 9.5 19.9 8.75 25.05 8.15 29.0 7.45 30.75 L7.55 30.75 7.7 31.0 Q7.55 31.45 7.55 32.05 L6.0 32.5 Q-0.4 32.5 -1.45 30.5 -1.9 29.55 -2.0 20.75 -2.0 18.15 -3.3 15.05 -4.6 11.8 -7.0 8.75 -11.3 3.25 -14.4 -2.6 -18.5 -10.35 -18.5 -15.25 L-18.45 -15.95 -18.95 -17.1 -19.0 -18.85 -19.0 -19.25 -19.25 -19.55 -19.5 -20.85 Q-19.5 -22.2 -17.45 -25.65 -15.35 -29.15 -14.0 -29.95 L-13.25 -30.5 Q-12.55 -31.1 -12.3 -31.8 L-3.0 -32.5 Q-0.9 -32.15 0.2 -30.7 L0.35 -30.5 M-0.5 -27.4 L-0.5 -27.6 -0.6 -27.65 Q-1.65 -27.95 -1.8 -28.85 -2.1 -30.25 -6.35 -30.25 -10.85 -30.25 -14.35 -26.95 -16.95 -24.5 -17.55 -21.55 -16.9 -20.75 -16.95 -19.4 -17.05 -17.4 -16.5 -16.5 L-16.9 -16.05 -15.45 -11.45 Q-14.2 -7.15 -12.7 -4.95 L-9.35 1.1 Q-7.0 5.45 -5.45 7.25 -2.8 10.2 -1.45 13.5 -0.4 16.2 0.0 19.55 L0.05 22.65 0.0 26.0 Q0.0 27.7 -0.3 29.15 -0.4 29.85 -0.1 29.9 L5.05 30.35 Q5.15 29.1 5.85 27.35 L7.0 23.8 7.25 20.1 7.5 17.1 Q7.5 14.55 5.0 10.2 2.5 5.85 2.5 -0.4 2.5 -1.1 2.85 -1.25 L3.1 -1.3 3.8 -1.8 3.85 -1.65 4.25 -1.5 5.25 -2.05 5.25 -2.0 5.75 -2.25 Q6.1 -3.05 5.25 -4.15 L5.1 -4.35 5.0 -6.5 6.15 -6.65 8.55 -6.25 14.3 -6.25 Q13.35 -6.55 10.45 -8.75 7.5 -11.0 7.5 -11.45 7.5 -12.35 7.75 -12.6 8.35 -13.25 10.8 -13.25 8.95 -14.3 4.45 -19.65 -0.1 -25.0 -0.45 -27.2 L-0.5 -27.4" fill="#000000" fill-rule="evenodd" stroke="none"/>
    <path d="M-0.45 -27.2 Q-0.1 -25.0 4.45 -19.65 8.95 -14.3 10.8 -13.25 8.35 -13.25 7.75 -12.6 7.5 -12.35 7.5 -11.45 7.5 -11.0 10.45 -8.75 13.35 -6.55 14.3 -6.25 L8.55 -6.25 6.15 -6.65 5.0 -6.5 5.1 -4.35 5.25 -4.15 Q6.1 -3.05 5.75 -2.25 L5.25 -2.0 5.25 -2.05 4.25 -1.5 3.85 -1.65 3.8 -1.8 3.1 -1.3 2.85 -1.25 Q2.5 -1.1 2.5 -0.4 2.5 5.85 5.0 10.2 7.5 14.55 7.5 17.1 L7.25 20.1 7.0 23.8 5.85 27.35 Q5.15 29.1 5.05 30.35 L-0.1 29.9 Q-0.4 29.85 -0.3 29.15 0.0 27.7 0.0 26.0 L0.05 22.65 0.0 19.55 Q-0.4 16.2 -1.45 13.5 -2.8 10.2 -5.45 7.25 -7.0 5.45 -9.35 1.1 L-12.7 -4.95 Q-14.2 -7.15 -15.45 -11.45 L-16.9 -16.05 -16.5 -16.5 Q-17.05 -17.4 -16.95 -19.4 -16.9 -20.75 -17.55 -21.55 -16.95 -24.5 -14.35 -26.95 -10.85 -30.25 -6.35 -30.25 -2.1 -30.25 -1.8 -28.85 -1.65 -27.95 -0.6 -27.65 L-0.5 -27.6 -0.5 -27.4 -0.55 -27.35 -0.5 -27.2 -0.45 -27.2" fill="#242939" fill-rule="evenodd" stroke="none"/>
  </g>
</svg>
