<?xml version="1.0" encoding="UTF-8" standalone="no"?>
<svg xmlns:ffdec="https://www.free-decompiler.com/flash" xmlns:xlink="http://www.w3.org/1999/xlink" ffdec:objectType="shape" height="92.4px" width="41.5px" xmlns="http://www.w3.org/2000/svg">
  <g transform="matrix(1.0, 0.0, 0.0, 1.0, 26.55, 49.9)">
    <path d="M-2.3 0.9 Q-2.3 -10.75 -4.2 -19.55 L-4.7 -21.7 -4.8 -22.0 -5.75 -25.35 Q-6.6 -27.95 -7.6 -30.35 L-9.7 -34.75 Q-12.3 -39.5 -15.75 -43.65 L-17.55 -45.45 Q-19.5 -47.45 -21.9 -47.45 -24.5 -47.45 -24.95 -45.05 -25.25 -43.85 -24.95 -42.5 -24.95 -38.45 -22.5 -35.9 L-16.15 -30.1 Q-10.55 -24.45 -7.5 -16.65 -5.25 -10.8 -4.35 -3.15 L-3.2 8.65 -3.2 8.8 -3.05 8.6 Q-2.55 8.05 -2.4 7.2 L-2.4 7.3 -2.3 6.7 -2.3 6.4 -2.3 6.3 -2.3 6.2 -2.3 5.75 -2.3 1.1 -2.3 0.9 M-14.7 -45.6 L-13.25 -44.0 -13.0 -43.8 -12.2 -42.85 -12.0 -42.3 -11.6 -41.7 Q-10.25 -39.55 -8.35 -35.2 L-5.7 -29.1 -3.45 -23.1 Q-1.85 -17.8 -1.2 -10.85 -0.85 -7.65 -0.75 -3.5 L6.25 0.4 Q11.15 3.45 13.0 6.25 L12.8 6.95 Q12.6 7.35 12.0 7.35 L9.75 6.95 7.5 6.4 7.3 6.1 Q7.1 5.9 7.1 6.65 L14.95 22.05 14.95 22.75 Q14.8 22.9 14.8 23.1 L14.8 23.35 14.15 23.5 Q12.8 23.5 10.65 21.7 L8.3 19.6 Q8.3 22.6 9.65 28.4 L11.0 33.75 11.0 34.6 10.85 35.15 10.9 35.35 Q10.85 35.55 10.25 35.55 9.45 35.55 7.4 31.75 L4.4 26.3 4.2 26.3 3.4 34.15 2.45 42.25 Q2.8 42.5 1.85 42.5 0.75 42.5 -0.25 39.25 -1.15 35.4 -1.65 34.2 L-3.6 30.05 Q-4.8 27.55 -5.0 25.9 L-5.2 25.9 Q-6.35 29.95 -6.6 33.25 L-6.65 33.45 -7.35 33.7 Q-9.15 33.7 -9.15 27.55 -8.9 20.25 -9.1 18.0 L-10.5 19.0 -11.65 19.85 -14.55 19.85 -14.7 19.7 -14.8 18.8 -12.15 15.5 Q-9.15 11.9 -8.1 10.15 L-13.8 9.7 Q-13.4 9.0 -13.6 8.5 -13.35 7.65 -11.45 6.3 -9.3 4.75 -8.9 4.1 L-7.4 1.55 -5.8 -1.0 -5.7 -0.95 -5.9 -2.5 Q-6.9 -9.85 -9.1 -16.2 -12.3 -25.35 -20.15 -31.6 -23.6 -34.35 -24.7 -35.9 -26.55 -38.5 -26.55 -42.55 -26.55 -49.2 -22.4 -49.85 -19.95 -50.25 -17.75 -48.35 L-14.7 -45.6 M9.3 4.8 L9.2 4.75 9.1 4.8 9.3 4.8" fill="#000000" fill-rule="evenodd" stroke="none"/>
    <path d="M-24.95 -45.05 Q-21.55 -43.4 -18.35 -40.5 L-14.25 -36.2 -12.15 -33.85 -12.05 -33.75 -11.2 -32.8 -12.0 -33.65 -12.0 -33.25 Q-12.0 -32.45 -7.6 -24.9 L-7.45 -23.9 -7.4 -23.6 -6.55 -20.25 -6.5 -20.15 Q-4.1 -13.1 -3.0 -6.0 -2.45 -2.4 -2.3 0.9 L-2.3 1.1 -2.3 5.75 -2.4 7.2 Q-2.55 8.05 -3.05 8.6 L-3.2 8.65 -4.35 -3.15 Q-5.25 -10.8 -7.5 -16.65 -10.55 -24.45 -16.15 -30.1 L-22.5 -35.9 Q-24.95 -38.45 -24.95 -42.5 -25.25 -43.85 -24.95 -45.05" fill="#242939" fill-rule="evenodd" stroke="none"/>
    <path d="M-24.95 -45.05 Q-24.5 -47.45 -21.9 -47.45 -19.5 -47.45 -17.55 -45.45 L-15.75 -43.65 Q-12.3 -39.5 -9.7 -34.75 L-7.6 -30.35 Q-6.6 -27.95 -5.75 -25.35 L-4.8 -22.0 -4.7 -21.7 -4.2 -19.55 Q-2.3 -10.75 -2.3 0.9 -2.45 -2.4 -3.0 -6.0 -4.1 -13.1 -6.5 -20.15 L-6.55 -20.25 -7.4 -23.6 -7.45 -23.9 -7.6 -24.9 Q-12.0 -32.45 -12.0 -33.25 L-12.0 -33.65 -11.2 -32.8 -12.05 -33.75 -12.15 -33.85 -14.25 -36.2 -18.35 -40.5 Q-21.55 -43.4 -24.95 -45.05 M-2.3 5.75 L-2.3 6.2 -2.3 6.3 -2.3 6.4 -2.3 6.7 -2.4 7.3 -2.4 7.2 -2.3 5.75" fill="#3e4762" fill-rule="evenodd" stroke="none"/>
  </g>
</svg>
