<?xml version="1.0" encoding="UTF-8" standalone="no"?>
<svg xmlns:ffdec="https://www.free-decompiler.com/flash" xmlns:xlink="http://www.w3.org/1999/xlink" ffdec:objectType="shape" height="117.95px" width="69.4px" xmlns="http://www.w3.org/2000/svg">
  <g transform="matrix(1.0, 0.0, 0.0, 1.0, 46.5, 58.45)">
    <path d="M8.0 -50.15 L12.2 -45.15 Q15.1 -41.75 15.5 -40.25 L16.9 -35.7 Q18.0 -32.2 18.0 -30.75 18.0 -29.15 17.05 -26.35 16.2 -23.85 15.05 -22.75 15.5 -21.45 15.5 -18.7 15.5 -16.4 14.75 -10.4 14.0 -4.4 14.0 -2.45 L14.5 0.95 15.0 4.3 18.7 10.25 Q21.35 14.8 22.9 18.2 L22.75 18.85 Q22.55 19.3 21.75 19.3 21.1 19.3 20.05 18.05 L19.0 16.7 18.55 16.9 Q19.2 17.35 20.75 19.35 22.4 21.45 22.4 22.05 L22.3 22.7 22.3 22.8 22.4 23.0 22.25 23.6 Q22.05 24.05 21.25 24.05 L19.0 23.35 19.0 24.55 Q19.0 27.75 15.05 38.65 L10.9 49.45 11.5 50.0 Q13.2 51.45 13.75 53.45 L14.5 56.95 14.3 57.95 14.35 58.2 14.0 58.45 13.95 58.8 Q13.8 59.5 13.0 59.5 9.1 59.5 0.0 55.25 L-5.1 52.95 -7.0 51.45 -8.0 51.55 Q-8.5 51.55 -10.8 50.15 -13.15 48.7 -13.5 48.15 -14.0 47.25 -14.0 44.8 -14.0 41.6 -13.6 40.95 -12.95 39.9 -10.85 39.7 L-11.0 38.5 -10.95 37.3 -16.75 37.8 -21.7 37.3 -26.0 36.55 -26.0 29.85 -26.25 29.85 -27.5 29.6 -27.5 11.85 Q-36.45 6.75 -41.9 -3.55 -46.5 -12.2 -46.5 -19.15 -46.5 -23.3 -43.6 -36.0 -42.1 -41.15 -38.3 -46.6 -35.0 -51.2 -32.85 -51.7 L-31.1 -53.1 Q-29.2 -54.4 -27.0 -54.8 L-26.0 -53.7 Q-24.9 -54.5 -23.0 -55.25 L-19.5 -56.4 -14.25 -57.95 Q-9.55 -58.9 -4.5 -58.0 L-3.3 -57.5 Q-2.05 -57.9 -1.2 -56.7 L-1.1 -56.55 2.8 -54.55 Q6.6 -52.25 8.0 -50.15 M6.6 -48.85 L4.4 -50.9 0.6 -53.45 2.05 -51.15 3.3 -48.2 Q4.5 -45.15 4.85 -42.45 L4.9 -42.0 5.0 -37.75 5.0 -36.45 Q5.0 -29.2 2.25 -23.4 L4.2 -23.4 8.05 -23.45 10.8 -23.6 11.55 -23.7 Q11.9 -23.7 13.0 -24.55 L14.35 -25.55 14.55 -26.0 Q16.0 -29.4 16.0 -30.55 16.0 -33.3 13.95 -38.25 12.55 -41.7 11.2 -43.5 L10.0 -44.85 9.4 -45.55 8.2 -47.1 7.1 -48.35 6.8 -48.65 6.6 -48.9 6.6 -48.85 M1.7 -46.4 L-2.7 -54.85 Q-6.35 -56.15 -10.5 -56.15 -13.65 -56.15 -18.3 -54.1 -22.9 -52.15 -24.5 -52.15 L-25.3 -52.15 -25.1 -51.35 -25.0 -48.0 Q-25.0 -44.85 -25.75 -25.7 L-26.1 -16.05 -25.25 -16.2 -24.15 -15.9 -23.7 -15.25 Q-22.6 -14.35 -16.75 -14.35 -4.25 -14.35 0.55 -24.65 3.0 -29.95 3.0 -36.7 3.0 -42.95 1.7 -46.4 M13.25 -21.9 Q11.55 -21.15 9.3 -21.0 L8.2 -20.95 8.0 -20.95 5.7 -21.15 4.15 -21.35 1.5 -21.9 Q-4.1 -11.95 -17.0 -11.95 L-19.3 -11.95 -23.65 -12.05 Q-24.15 -12.2 -24.6 -13.25 L-25.25 -13.65 Q-25.65 -13.85 -26.15 -14.4 L-26.25 -12.3 -26.45 -6.5 -18.9 -6.5 -18.0 -6.5 -7.05 -6.5 -3.05 -6.5 12.3 -6.15 13.0 -13.25 13.05 -14.25 12.65 -14.0 10.5 -13.0 5.3 -13.0 5.15 -13.1 Q5.0 -13.25 5.0 -14.05 5.0 -14.9 5.25 -14.95 L6.0 -15.1 8.0 -15.3 10.5 -15.65 13.0 -16.7 13.1 -16.65 13.1 -16.7 13.05 -18.95 Q13.15 -20.7 13.5 -21.85 L13.55 -22.0 13.25 -21.9 M12.0 -4.05 L-7.0 -4.0 Q-23.8 -4.2 -26.5 -4.55 L-26.45 3.8 Q-26.3 7.55 -25.95 9.7 -23.95 10.05 -21.65 8.65 -18.45 6.7 -18.0 6.65 L0.45 4.3 12.2 3.4 12.0 1.9 Q11.85 -0.15 12.0 -2.3 L12.1 -4.05 12.0 -4.05 M-25.4 25.85 L-21.0 20.7 -17.0 15.55 Q-15.85 16.25 -15.9 17.7 L-16.0 20.1 -11.95 14.45 -8.25 9.75 Q-7.05 9.75 -4.9 13.0 L-1.5 17.5 -1.5 14.3 -1.35 14.15 -0.5 14.0 Q-0.15 14.0 2.95 16.75 L6.8 20.05 Q6.5 19.0 6.5 15.85 L6.9 15.75 8.0 15.55 10.9 17.5 Q13.95 19.4 15.25 19.6 L18.25 20.25 17.85 19.55 16.0 15.55 Q16.0 14.55 16.15 14.3 L18.5 14.25 15.05 9.55 Q13.5 7.35 13.15 5.7 L13.0 5.5 -16.0 8.7 Q-16.9 8.8 -20.25 10.4 -23.5 11.85 -24.25 11.85 L-25.55 11.7 -25.75 11.9 Q-25.35 14.25 -25.4 17.3 L-25.5 25.7 -25.5 25.95 -25.4 25.85 M-10.2 34.65 L-6.9 33.85 Q-2.05 32.3 3.4 29.5 L15.5 22.2 Q11.2 20.7 9.5 19.8 9.25 20.35 9.2 21.8 8.9 23.0 7.5 23.0 6.15 23.0 3.65 20.75 L1.0 18.2 Q0.65 18.25 0.55 18.8 L0.5 20.35 0.4 20.6 -0.5 20.85 Q-1.95 20.85 -5.1 16.75 L-8.1 12.4 -12.0 18.25 -12.2 18.6 -14.75 21.8 -14.9 21.95 -17.0 24.05 Q-18.05 23.5 -18.0 22.35 L-18.0 20.6 -18.1 20.35 -18.15 20.5 Q-19.55 23.05 -21.5 25.7 -23.05 27.75 -24.2 28.8 -23.8 29.7 -23.8 31.3 -23.75 32.75 -24.0 34.95 L-20.3 35.25 -16.75 35.4 -10.2 34.65 M11.25 41.0 L14.0 34.35 16.25 27.3 16.9 24.6 Q14.1 27.1 6.75 30.95 L6.5 31.15 6.5 31.55 Q6.5 32.1 1.55 39.4 -3.85 47.25 -5.0 50.0 -3.9 51.5 1.85 53.65 L4.2 54.5 4.0 53.55 Q4.0 52.45 7.0 50.4 8.25 49.55 9.2 49.3 L9.0 48.75 Q9.0 46.45 11.25 41.0 M5.0 54.8 L12.35 57.4 11.5 55.15 Q10.55 51.8 9.15 51.8 7.9 51.8 7.1 53.3 6.35 54.75 5.0 54.75 L4.6 54.7 4.95 54.8 5.0 54.8 M-30.3 -50.7 L-32.5 -49.6 -34.6 -47.25 -34.5 -45.8 -35.5 -19.6 -35.4 -9.45 Q-35.05 -3.75 -33.5 0.65 L-33.5 4.15 -33.4 4.2 -27.7 9.2 -28.35 4.5 -28.5 -4.4 Q-28.5 -10.15 -27.75 -27.5 -27.0 -44.9 -27.0 -47.75 -27.0 -50.6 -27.85 -52.15 -29.2 -51.3 -30.3 -50.7 M-41.75 -10.4 L-39.0 -2.8 Q-38.55 -0.9 -35.8 1.95 -36.95 -2.0 -37.3 -6.8 -37.5 -9.3 -37.5 -19.35 L-37.35 -35.9 Q-37.15 -41.55 -36.65 -44.7 -40.0 -40.15 -41.85 -34.95 -44.5 -22.65 -44.5 -19.1 -44.5 -18.0 -41.75 -10.4 M-2.6 36.75 L-0.9 37.75 -0.3 38.1 3.8 32.45 Q0.05 34.2 -3.45 35.4 L-2.6 36.75 M-8.8 37.1 L-9.0 38.65 Q-9.0 39.7 -6.0 41.4 L-3.45 43.0 -2.45 41.35 -1.65 40.1 Q-2.75 39.6 -3.85 38.35 -5.1 36.95 -5.4 36.05 L-8.75 36.9 -8.8 37.1 M-12.0 44.85 Q-12.0 46.4 -9.75 47.85 L-7.3 49.6 Q-6.8 48.25 -4.55 44.7 L-6.15 43.9 -9.1 42.3 -9.75 41.75 -10.25 42.15 Q-12.0 43.45 -12.0 44.85" fill="#000000" fill-rule="evenodd" stroke="none"/>
    <path d="M5.0 54.75 L5.0 54.8 4.95 54.8 5.0 54.75" fill="#2f2f2f" fill-rule="evenodd" stroke="none"/>
    <path d="M4.85 -42.45 Q4.5 -45.15 3.3 -48.2 L2.05 -51.15 0.6 -53.45 4.4 -50.9 6.6 -48.85 6.55 -48.7 4.8 -42.85 4.85 -42.45 M9.4 -45.55 L10.0 -44.85 11.2 -43.5 11.0 -37.35 Q10.9 -34.45 9.45 -29.0 L8.0 -23.85 8.05 -23.45 4.2 -23.4 2.25 -23.4 Q5.0 -29.2 5.0 -36.45 L5.0 -37.75 5.5 -37.35 Q8.15 -40.9 9.4 -45.55 M13.95 -38.25 Q16.0 -33.3 16.0 -30.55 16.0 -29.4 14.55 -26.0 L14.35 -25.55 13.0 -24.55 Q11.9 -23.7 11.55 -23.7 L10.8 -23.6 11.9 -25.4 Q13.5 -28.15 13.5 -28.75 L13.95 -38.25 M13.25 -21.9 L13.5 -21.85 Q13.15 -20.7 13.05 -18.95 L13.1 -16.7 13.0 -16.7 10.5 -15.65 8.0 -15.3 6.0 -15.1 5.25 -14.95 Q5.0 -14.9 5.0 -14.05 5.0 -13.25 5.15 -13.1 L5.3 -13.0 10.5 -13.0 12.65 -14.0 13.05 -14.25 13.0 -13.25 12.3 -6.15 -3.05 -6.5 -3.05 -6.6 -2.25 -9.65 Q-1.5 -11.0 0.75 -12.3 L4.75 -14.7 Q5.6 -15.3 8.6 -19.9 L9.3 -21.0 Q11.55 -21.15 13.25 -21.9 M5.7 -21.15 Q4.35 -19.05 3.25 -18.15 L-4.35 -12.9 Q-7.0 -10.85 -7.0 -7.2 L-7.05 -6.5 -18.0 -6.5 Q-17.0 -7.45 -17.0 -8.5 -17.0 -10.25 -18.2 -11.2 L-19.3 -11.95 -17.0 -11.95 Q-4.1 -11.95 1.5 -21.9 L4.15 -21.35 5.7 -21.15 M-26.25 -12.3 L-23.5 -10.35 Q-21.75 -9.25 -18.9 -6.5 L-26.45 -6.5 -26.25 -12.3" fill="#cdac98" fill-rule="evenodd" stroke="none"/>
    <path d="M4.85 -42.45 L4.8 -42.85 6.55 -48.7 6.6 -48.85 6.6 -48.9 6.8 -48.65 7.1 -48.35 8.2 -47.1 9.4 -45.55 Q8.15 -40.9 5.5 -37.35 L5.0 -37.75 4.9 -42.0 4.85 -42.45 M11.2 -43.5 Q12.55 -41.7 13.95 -38.25 L13.5 -28.75 Q13.5 -28.15 11.9 -25.4 L10.8 -23.6 8.05 -23.45 8.0 -23.85 9.45 -29.0 Q10.9 -34.45 11.0 -37.35 L11.2 -43.5 M9.3 -21.0 L8.6 -19.9 Q5.6 -15.3 4.75 -14.7 L0.75 -12.3 Q-1.5 -11.0 -2.25 -9.65 L-3.05 -6.6 -3.05 -6.5 -7.05 -6.5 -7.0 -7.2 Q-7.0 -10.85 -4.35 -12.9 L3.25 -18.15 Q4.35 -19.05 5.7 -21.15 L8.0 -20.95 8.2 -20.95 9.3 -21.0 M-19.3 -11.95 L-18.2 -11.2 Q-17.0 -10.25 -17.0 -8.5 -17.0 -7.45 -18.0 -6.5 L-18.9 -6.5 Q-21.75 -9.25 -23.5 -10.35 L-26.25 -12.3 -26.15 -14.4 Q-25.65 -13.85 -25.25 -13.65 L-24.6 -13.25 Q-24.15 -12.2 -23.65 -12.05 L-19.3 -11.95" fill="#7f98ff" fill-rule="evenodd" stroke="none"/>
    <path d="M-25.5 25.7 L-25.4 17.3 Q-25.35 14.25 -25.75 11.9 L-25.55 11.7 -24.25 11.85 Q-23.5 11.85 -20.25 10.4 -16.9 8.8 -16.0 8.7 L13.0 5.5 13.15 5.7 Q13.5 7.35 15.05 9.55 L18.5 14.25 16.15 14.3 Q16.0 14.55 16.0 15.55 L17.85 19.55 18.25 20.25 15.25 19.6 Q13.95 19.4 10.9 17.5 L8.0 15.55 6.9 15.75 6.5 15.85 Q6.5 19.0 6.8 20.05 L2.95 16.75 Q-0.15 14.0 -0.5 14.0 L-1.35 14.15 -1.5 14.3 -1.5 17.5 -4.9 13.0 Q-7.05 9.75 -8.25 9.75 L-11.95 14.45 -16.0 20.1 -15.9 17.7 Q-15.85 16.25 -17.0 15.55 L-21.0 20.7 -25.4 25.85 -25.5 25.7 M-12.0 44.85 Q-12.0 43.45 -10.25 42.15 L-9.75 41.75 -9.1 42.3 -6.15 43.9 -4.55 44.7 Q-6.8 48.25 -7.3 49.6 L-9.75 47.85 Q-12.0 46.4 -12.0 44.85 M-8.8 37.1 L-8.75 36.9 -5.4 36.05 Q-5.1 36.95 -3.85 38.35 -2.75 39.6 -1.65 40.1 L-2.45 41.35 -3.45 43.0 -6.0 41.4 Q-9.0 39.7 -9.0 38.65 L-8.8 37.1 M-2.6 36.75 L-3.45 35.4 Q0.05 34.2 3.8 32.45 L-0.3 38.1 -0.9 37.75 -2.6 36.75" fill="#332d26" fill-rule="evenodd" stroke="none"/>
    <path d="M1.7 -46.4 Q3.0 -42.95 3.0 -36.7 3.0 -29.95 0.55 -24.65 -4.25 -14.35 -16.75 -14.35 -22.6 -14.35 -23.7 -15.25 L-24.15 -15.9 -25.25 -16.2 -26.1 -16.05 -25.75 -25.7 Q-25.0 -44.85 -25.0 -48.0 L-25.1 -51.35 -25.3 -52.15 -24.5 -52.15 Q-22.9 -52.15 -18.3 -54.1 -13.65 -56.15 -10.5 -56.15 -6.35 -56.15 -2.7 -54.85 L1.7 -46.4 M12.0 -4.05 L12.1 -4.05 12.0 -2.3 Q11.85 -0.15 12.0 1.9 L12.2 3.4 0.45 4.3 -18.0 6.65 Q-18.45 6.7 -21.65 8.65 -23.95 10.05 -25.95 9.7 -26.3 7.55 -26.45 3.8 L-26.5 -4.55 Q-23.8 -4.2 -7.0 -4.0 L12.0 -4.05" fill="#11100f" fill-rule="evenodd" stroke="none"/>
    <path d="M-14.9 21.95 L-13.15 27.5 Q-11.55 32.25 -10.2 34.65 L-16.75 35.4 -20.3 35.25 -24.0 34.95 Q-23.75 32.75 -23.8 31.3 -23.8 29.7 -24.2 28.8 -23.05 27.75 -21.5 25.7 -19.55 23.05 -18.15 20.5 L-18.0 20.6 -18.0 22.35 Q-18.05 23.5 -17.0 24.05 L-14.9 21.95 M-41.75 -10.4 Q-44.5 -18.0 -44.5 -19.1 -44.5 -22.65 -41.85 -34.95 -40.0 -40.15 -36.65 -44.7 -37.15 -41.55 -37.35 -35.9 L-37.5 -19.35 Q-37.5 -9.3 -37.3 -6.8 -36.95 -2.0 -35.8 1.95 -38.55 -0.9 -39.0 -2.8 L-41.75 -10.4" fill="#046193" fill-rule="evenodd" stroke="none"/>
    <path d="M-14.9 21.95 L-14.75 21.8 -12.2 18.6 -12.0 18.25 -8.1 12.4 -5.1 16.75 Q-1.95 20.85 -0.5 20.85 L0.4 20.6 0.5 20.35 0.55 18.8 Q0.65 18.25 1.0 18.2 L3.65 20.75 Q6.15 23.0 7.5 23.0 8.9 23.0 9.2 21.8 9.25 20.35 9.5 19.8 11.2 20.7 15.5 22.2 L3.4 29.5 Q-2.05 32.3 -6.9 33.85 L-10.2 34.65 Q-11.55 32.25 -13.15 27.5 L-14.9 21.95" fill="#023f60" fill-rule="evenodd" stroke="none"/>
    <path d="M5.0 54.75 Q6.35 54.75 7.1 53.3 7.9 51.8 9.15 51.8 10.55 51.8 11.5 55.15 L12.35 57.4 5.0 54.8 5.0 54.75 M11.25 41.0 Q9.0 46.45 9.0 48.75 L9.2 49.3 Q8.25 49.55 7.0 50.4 4.0 52.45 4.0 53.55 L4.2 54.5 1.85 53.65 Q-3.9 51.5 -5.0 50.0 -3.85 47.25 1.55 39.4 6.5 32.1 6.5 31.55 L6.5 31.15 6.75 30.95 Q14.1 27.1 16.9 24.6 L16.25 27.3 14.0 34.35 11.25 41.0 M-30.3 -50.7 Q-29.2 -51.3 -27.85 -52.15 -27.0 -50.6 -27.0 -47.75 -27.0 -44.9 -27.75 -27.5 -28.5 -10.15 -28.5 -4.4 L-28.35 4.5 -27.7 9.2 -33.4 4.2 -33.5 4.15 -33.5 0.65 Q-35.05 -3.75 -35.4 -9.45 L-35.5 -19.6 -34.5 -45.8 -34.6 -47.25 -32.5 -49.6 -30.3 -50.7" fill="#4e5963" fill-rule="evenodd" stroke="none"/>
  </g>
</svg>
