<?xml version="1.0" encoding="UTF-8" standalone="no"?>
<svg xmlns:ffdec="https://www.free-decompiler.com/flash" xmlns:xlink="http://www.w3.org/1999/xlink" ffdec:objectType="shape" height="154.75px" width="106.9px" xmlns="http://www.w3.org/2000/svg">
  <g transform="matrix(1.0, 0.0, 0.0, 1.0, 55.2, 62.85)">
    <path d="M-49.9 13.05 Q-52.5 6.9 -53.0 3.95 -53.2 2.85 -53.2 -9.05 -53.2 -18.6 -52.6 -21.8 -51.9 -25.4 -47.7 -36.8 L-46.9 -38.45 Q-41.5 -37.05 -34.8 -33.9 -36.15 -31.65 -37.3 -29.0 -38.8 -25.45 -39.0 -23.1 L-39.75 -9.05 -40.0 0.05 -40.05 4.35 -39.85 10.25 -38.7 15.4 -38.4 16.7 Q-44.1 16.4 -48.15 14.15 L-49.9 13.05 M-32.7 31.8 L-36.15 32.2 -40.0 32.85 Q-41.6 31.0 -42.85 28.65 L-44.4 25.3 -39.75 25.5 -35.55 25.35 -36.8 25.45 -33.4 31.75 -33.3 31.85 -32.7 31.8" fill="#cdac98" fill-rule="evenodd" stroke="none"/>
    <path d="M36.4 -16.8 Q37.9 -16.2 39.3 -15.4 L39.65 -16.9 40.2 -19.8 40.2 -25.05 40.1 -30.95 38.3 -38.5 38.2 -38.6 34.3 -41.7 Q31.55 -43.95 29.95 -45.55 28.9 -46.7 22.3 -51.3 L18.6 -54.0 Q16.15 -55.65 13.3 -56.6 L5.55 -59.05 Q1.05 -60.5 -0.7 -61.3 L-0.85 -60.9 -1.15 -60.6 Q-11.35 -63.2 -24.95 -56.45 L-21.15 -54.95 -12.2 -50.6 Q-9.25 -48.65 -3.35 -45.15 1.6 -42.1 3.8 -40.05 L12.4 -31.4 13.8 -29.9 14.15 -29.55 14.45 -29.2 19.65 -23.15 Q22.7 -19.35 22.8 -17.8 26.25 -18.9 30.25 -18.4 L34.05 -17.6 36.4 -16.8 M23.85 -52.85 Q27.6 -50.35 32.05 -46.35 L38.7 -40.6 Q45.6 -35.45 49.05 -24.95 51.7 -16.85 51.7 -8.2 L51.55 -3.5 Q51.15 -1.85 48.75 2.4 L48.7 3.0 Q48.7 10.75 46.2 21.65 45.25 26.25 42.15 30.15 L40.55 31.95 40.7 32.9 40.5 34.05 Q40.7 34.1 40.7 34.9 L40.0 36.85 Q40.2 37.1 40.2 37.9 L40.15 38.75 40.2 39.75 Q40.2 41.65 38.4 43.7 36.45 45.95 36.2 48.2 36.1 49.25 36.55 52.45 36.85 54.5 36.65 55.75 L36.75 55.85 Q37.95 56.95 38.7 58.9 39.05 61.25 39.75 62.8 40.2 63.9 40.2 65.55 40.2 68.75 39.9 69.9 L39.85 70.2 Q40.35 70.6 40.7 71.75 L41.85 76.15 Q43.05 77.55 44.7 84.3 44.7 85.9 42.85 86.65 40.05 87.75 31.7 87.9 L25.6 87.9 25.4 87.75 25.3 87.55 23.7 88.9 Q22.1 88.9 22.15 88.2 L22.1 86.9 Q21.25 89.9 21.1 90.95 L21.15 91.2 20.3 91.4 Q19.4 91.4 16.35 90.3 L11.8 88.45 Q12.0 89.55 11.65 89.95 11.3 90.4 10.3 90.4 8.8 90.4 6.2 89.1 4.1 90.0 -1.95 91.9 L-5.45 91.4 -6.7 90.2 -15.9 89.15 -21.25 88.2 -23.9 87.65 -35.7 88.2 Q-35.2 88.4 -36.45 88.4 L-38.6 86.15 Q-40.55 83.65 -41.4 83.15 L-42.75 81.75 -43.95 80.45 Q-45.5 79.7 -47.15 79.25 -47.7 79.1 -47.7 78.45 -47.7 77.1 -45.75 72.25 -43.75 67.2 -43.7 66.45 -43.9 63.5 -43.5 60.25 L-42.95 57.0 Q-43.7 56.0 -43.7 54.05 L-43.2 49.95 Q-42.7 46.1 -42.65 43.95 L-42.45 43.95 -42.9 41.25 Q-43.7 36.4 -43.7 34.65 L-43.7 32.85 -43.55 32.15 Q-44.25 30.9 -44.5 30.6 L-44.6 30.5 -44.55 30.2 -44.45 29.95 -44.65 29.6 -48.4 21.65 Q-53.95 9.05 -54.85 4.1 -55.2 2.15 -55.2 -9.1 -55.2 -27.7 -49.15 -38.85 -42.85 -50.35 -29.7 -56.9 L-29.7 -57.05 -29.25 -57.1 Q-22.6 -60.35 -14.2 -62.35 -14.2 -62.6 -1.7 -62.6 L-1.7 -62.85 Q7.05 -62.25 14.25 -58.85 18.2 -57.0 23.85 -52.85 M-36.55 -37.0 L-31.0 -34.4 Q-22.3 -30.1 -13.95 -24.6 -9.35 -21.7 -0.05 -12.6 7.55 -5.2 9.0 -2.75 10.5 -6.05 12.8 -9.6 16.35 -15.05 21.1 -17.15 L18.7 -20.8 Q15.35 -25.9 13.8 -27.3 L8.8 -32.55 Q5.65 -35.9 2.85 -38.1 -3.0 -42.65 -12.0 -47.55 -17.1 -50.35 -22.3 -52.75 L-24.1 -53.55 -26.8 -54.75 Q-27.2 -54.95 -27.6 -55.1 L-29.55 -54.0 Q-36.3 -50.05 -41.35 -45.25 L-45.6 -40.5 Q-41.45 -39.15 -36.55 -37.0 M4.75 -3.45 L3.6 -4.75 3.5 -4.85 Q0.5 -8.35 -1.9 -11.8 L-2.25 -12.35 Q-5.85 -17.3 -14.65 -22.6 -25.6 -29.25 -31.75 -32.4 L-34.8 -33.9 Q-41.5 -37.05 -46.9 -38.45 L-47.7 -36.8 Q-51.9 -25.4 -52.6 -21.8 -53.2 -18.6 -53.2 -9.05 -53.2 2.85 -53.0 3.95 -52.5 6.9 -49.9 13.05 L-46.4 20.95 -44.4 25.3 -42.85 28.65 Q-41.6 31.0 -40.0 32.85 L-36.15 32.2 -32.7 31.8 -28.7 31.1 -21.65 29.2 Q-13.35 26.35 -9.45 23.7 L-7.9 22.7 Q-11.15 21.9 -15.3 19.1 L-17.4 17.55 Q-21.9 14.15 -23.9 11.8 L-24.8 10.55 -28.4 3.75 -31.5 -2.85 Q-29.25 -4.05 -28.35 -1.9 L-27.55 1.55 Q-26.05 4.95 -23.75 8.75 L-22.05 10.8 -20.5 12.2 -16.25 15.8 Q-15.6 16.35 -12.9 17.65 L-10.2 18.9 -5.6 21.1 -5.15 20.8 Q-1.9 18.55 -0.45 17.2 L3.45 13.7 Q4.85 12.6 5.85 12.1 5.95 6.45 7.0 2.6 7.4 1.0 8.1 -0.65 7.1 -0.95 4.75 -3.45 M28.55 -16.25 L27.25 -16.2 Q19.15 -15.55 13.9 -8.4 7.8 -0.2 7.8 14.15 7.8 22.0 10.1 25.4 14.65 32.05 18.5 33.95 20.9 35.15 25.95 35.15 L30.85 34.6 Q39.4 32.5 43.45 22.7 L43.55 22.5 43.6 22.3 43.7 22.05 Q45.0 18.7 45.75 14.65 L45.8 14.4 45.9 13.85 46.55 8.3 46.55 8.05 46.65 6.35 46.7 4.0 46.7 3.4 Q46.7 -5.85 40.6 -11.55 35.4 -16.4 28.55 -16.25 M35.0 24.8 L33.45 24.9 Q26.55 24.9 24.7 18.4 24.1 16.35 24.1 13.8 L24.2 11.4 Q24.2 4.8 24.35 4.05 25.1 0.5 29.35 -4.1 31.95 -6.9 35.35 -6.4 L35.9 -6.3 35.95 -6.3 Q39.45 -5.5 42.45 -1.8 42.6 -1.3 43.5 -0.25 44.2 0.55 44.2 1.9 L44.2 5.65 Q44.2 12.5 43.2 16.15 41.1 23.95 35.0 24.8 M39.25 -1.95 Q37.05 -4.0 34.2 -3.7 30.9 -3.3 28.7 0.25 26.2 4.35 26.2 11.3 26.2 16.0 26.7 17.7 28.2 22.65 33.45 22.65 39.1 22.65 41.2 14.45 L41.9 10.7 42.1 8.75 42.2 5.9 Q42.2 1.25 39.7 -1.5 L39.25 -1.95 M42.15 -34.5 L41.85 -34.9 41.9 -34.35 Q42.2 -31.8 42.2 -25.0 L42.1 -18.95 Q41.85 -16.2 40.95 -14.35 L42.95 -12.8 Q46.6 -9.6 46.6 -6.85 46.6 -6.3 47.6 -4.45 L48.5 -2.55 48.6 -2.3 48.7 -2.7 Q49.7 -5.7 49.7 -8.35 49.7 -16.75 47.4 -24.1 45.45 -30.2 42.15 -34.5 M-28.1 42.5 Q-23.2 44.45 -16.0 45.5 L-15.6 45.5 Q-12.55 45.6 -7.7 43.9 L-3.7 41.95 Q-2.35 41.15 2.8 38.9 L9.25 34.5 12.6 32.2 8.3 26.7 Q6.9 24.8 6.25 20.45 5.9 17.95 5.85 15.15 L1.05 18.95 -4.05 22.4 -4.3 22.8 -4.9 23.0 -8.15 25.15 Q-12.0 27.65 -17.55 29.95 -24.05 32.7 -30.9 34.3 L-33.35 34.85 -33.7 34.9 -37.95 34.9 -36.95 35.7 -35.6 37.65 Q-33.8 39.75 -30.55 41.4 L-28.1 42.5 M14.15 33.95 Q12.1 36.5 4.0 40.7 -2.15 43.8 -8.2 46.3 L2.7 46.65 Q14.65 46.65 23.85 43.65 28.05 42.3 31.15 40.4 L30.65 39.3 Q30.2 38.05 30.2 37.15 L30.2 37.1 25.95 37.4 Q18.7 37.4 15.55 35.2 L14.15 33.95 M32.3 36.65 L32.2 36.65 32.4 37.0 Q32.7 37.65 32.7 39.05 L32.7 39.35 32.85 39.25 Q35.75 37.15 37.45 34.4 35.1 35.85 32.3 36.65 M36.55 40.1 L35.05 41.0 35.85 39.95 35.95 39.65 32.35 42.15 Q21.2 48.9 2.8 48.9 L-11.9 47.85 -22.9 46.15 -26.1 45.0 -27.45 44.5 -29.95 43.45 -33.15 42.0 -35.9 40.2 Q-37.6 37.9 -38.7 36.95 L-40.65 35.05 -40.8 34.9 -41.35 34.9 -41.35 35.3 -41.2 38.2 Q-40.65 40.55 -40.35 43.3 -39.15 43.55 -37.15 44.95 L-28.2 51.2 -28.05 51.3 -27.0 51.7 Q-21.75 53.85 -17.65 55.65 -15.85 56.4 -9.7 57.95 -5.9 58.9 -4.6 59.8 L-1.5 58.75 18.6 52.15 Q22.75 50.65 25.35 49.25 L31.35 45.4 Q34.55 43.25 36.65 40.35 L37.05 39.85 36.55 40.1 M28.05 56.85 L34.7 55.15 Q34.2 51.05 34.2 49.8 34.2 47.15 34.95 45.3 L31.55 47.7 31.35 47.85 28.15 49.9 Q24.45 52.1 21.3 53.4 18.5 54.6 10.55 56.8 3.0 58.9 0.35 60.15 -1.4 61.0 -8.6 63.65 L-10.25 64.25 -11.35 64.65 -10.1 64.65 Q-4.75 64.65 14.2 60.2 L28.05 56.85 M32.15 78.8 Q35.55 71.85 34.7 65.65 L35.0 65.55 35.95 65.4 Q37.7 65.4 37.7 68.9 38.2 67.95 38.2 65.75 38.2 62.6 37.75 61.65 L34.9 57.6 29.35 59.25 18.3 61.9 Q12.7 63.45 6.15 64.8 -4.05 66.9 -10.2 66.9 L-12.2 66.9 Q-11.65 68.5 -11.7 71.5 -11.75 74.55 -11.35 76.25 L-10.95 77.4 -10.7 77.4 -10.5 76.05 Q-10.1 74.8 -8.7 74.9 L-6.55 79.8 Q-5.25 82.8 -2.9 84.65 -2.7 83.95 -2.7 81.7 L-2.55 81.55 -1.7 81.4 3.2 84.4 9.15 87.85 9.3 87.9 Q9.6 87.6 9.5 87.0 L9.35 85.9 9.6 85.55 10.55 85.4 14.35 86.85 Q18.25 88.35 19.05 88.45 21.55 83.05 23.2 81.9 24.15 83.1 24.35 85.2 26.65 83.9 27.95 80.25 29.05 76.45 29.7 75.45 L29.6 75.45 30.45 75.4 Q31.9 75.4 31.95 76.65 L31.85 78.65 32.1 78.9 32.15 78.8 M33.35 85.4 L40.7 84.8 42.6 84.15 Q41.45 81.65 40.05 77.3 L38.15 71.8 Q37.5 71.75 36.7 71.2 36.05 73.0 35.15 77.3 34.4 79.65 33.05 81.25 L31.2 82.9 Q30.55 82.45 30.3 81.8 L30.1 80.7 Q29.45 82.35 26.8 85.7 L26.8 85.75 32.2 85.4 33.35 85.4 M-34.35 85.25 L-29.2 85.4 Q-24.95 85.4 -18.7 86.55 L-12.15 87.65 Q-6.35 87.45 -5.1 88.55 L-4.55 89.35 Q-4.25 89.7 -3.45 89.7 -1.9 89.7 1.25 88.3 2.35 87.8 3.45 87.6 0.2 85.6 -0.7 84.7 -0.15 86.2 -0.4 87.65 L-0.55 87.8 -1.45 87.9 Q-3.4 87.9 -6.25 84.15 -8.5 81.2 -9.4 78.9 -9.75 80.4 -10.95 80.4 -13.25 80.4 -13.7 76.1 L-13.7 71.65 -13.65 68.5 -13.3 66.85 Q-25.1 66.6 -31.0 64.3 L-31.3 64.15 -31.4 64.1 Q-33.5 63.2 -34.9 62.0 -36.0 60.85 -36.4 60.65 L-40.95 58.35 -41.2 58.2 -41.2 58.9 Q-41.2 63.95 -42.3 69.15 -43.5 74.85 -45.4 77.65 -43.2 78.8 -41.9 79.95 L-39.2 81.95 Q-37.25 83.05 -37.25 84.5 -36.8 85.0 -34.35 85.25 M-31.3 51.6 L-31.95 51.15 -34.95 48.95 Q-37.05 47.2 -38.2 46.5 -39.2 45.85 -40.1 45.75 L-40.2 45.85 -40.7 46.95 -40.9 49.2 -41.7 53.9 Q-41.7 55.25 -37.85 57.45 L-33.2 59.95 -32.35 61.0 -29.8 62.6 -29.4 62.75 Q-25.55 64.1 -17.4 64.5 -14.9 63.35 -7.45 60.8 -15.95 58.2 -18.4 57.65 -21.6 56.9 -23.5 55.9 -25.75 54.6 -28.05 53.45 L-28.2 53.4 -30.8 51.9 -31.3 51.6" fill="#000000" fill-rule="evenodd" stroke="none"/>
    <path d="M28.55 -16.25 Q27.9 -15.85 27.9 -15.0 27.9 -13.75 32.55 -9.1 L35.35 -6.4 Q31.95 -6.9 29.35 -4.1 25.1 0.5 24.35 4.05 24.2 4.8 24.2 11.4 L24.1 13.8 Q24.1 16.35 24.7 18.4 26.55 24.9 33.45 24.9 L35.0 24.8 33.65 26.55 Q32.7 28.0 31.7 30.0 30.4 32.65 30.4 33.75 30.4 34.15 30.7 34.45 L30.85 34.6 25.95 35.15 Q20.9 35.15 18.5 33.95 14.65 32.05 10.1 25.4 7.8 22.0 7.8 14.15 7.8 -0.2 13.9 -8.4 19.15 -15.55 27.25 -16.2 L28.55 -16.25 M39.25 -1.95 L38.4 -2.1 Q36.6 -2.25 35.3 -0.4 33.9 1.6 33.9 4.9 L34.4 8.3 Q35.6 12.0 38.9 12.0 40.85 12.0 41.8 11.35 L41.9 10.7 41.2 14.45 Q39.1 22.65 33.45 22.65 28.2 22.65 26.7 17.7 26.2 16.0 26.2 11.3 26.2 4.35 28.7 0.25 30.9 -3.3 34.2 -3.7 37.05 -4.0 39.25 -1.95 M46.65 6.35 L46.55 8.05 46.4 7.55 46.6 7.15 46.65 6.35" fill="#333333" fill-rule="evenodd" stroke="none"/>
    <path d="M35.35 -6.4 L32.55 -9.1 Q27.9 -13.75 27.9 -15.0 27.9 -15.85 28.55 -16.25 35.4 -16.4 40.6 -11.55 46.7 -5.85 46.7 3.4 L46.7 4.0 46.65 6.35 46.6 7.15 46.4 7.55 46.55 8.05 46.55 8.3 45.9 13.85 45.8 14.4 45.75 14.65 Q45.0 18.7 43.7 22.05 L43.6 22.3 43.55 22.5 43.45 22.7 Q39.4 32.5 30.85 34.6 L30.7 34.45 Q30.4 34.15 30.4 33.75 30.4 32.65 31.7 30.0 32.7 28.0 33.65 26.55 L35.0 24.8 Q41.1 23.95 43.2 16.15 44.2 12.5 44.2 5.65 L44.2 1.9 Q44.2 0.55 43.5 -0.25 42.6 -1.3 42.45 -1.8 39.45 -5.5 35.95 -6.3 L35.9 -6.3 35.35 -6.4 M41.9 10.7 L41.8 11.35 Q40.85 12.0 38.9 12.0 35.6 12.0 34.4 8.3 L33.9 4.9 Q33.9 1.6 35.3 -0.4 36.6 -2.25 38.4 -2.1 L39.25 -1.95 39.7 -1.5 Q42.2 1.25 42.2 5.9 L42.1 8.75 41.9 10.7" fill="#666666" fill-rule="evenodd" stroke="none"/>
    <path d="M12.4 -31.4 L12.15 -31.7 Q12.6 -33.25 14.0 -34.45 18.05 -37.9 26.75 -35.75 32.05 -34.5 34.7 -27.7 36.5 -22.95 36.5 -17.9 L36.4 -16.8 34.05 -17.6 30.25 -18.4 29.75 -21.3 Q29.0 -24.85 28.0 -24.85 22.7 -24.85 19.65 -23.15 L14.45 -29.2 14.15 -29.55 13.8 -29.9 12.4 -31.4 M4.75 -3.45 L3.1 -1.5 1.05 3.2 Q-0.45 6.25 -2.25 8.25 L-6.95 13.1 -12.9 17.65 Q-15.6 16.35 -16.25 15.8 L-20.5 12.2 -22.05 10.8 Q-18.5 8.85 -17.3 7.75 L-11.75 2.35 Q-8.9 -0.8 -8.05 -3.1 -7.4 -4.75 -4.95 -8.3 L-2.25 -12.35 -1.9 -11.8 Q0.5 -8.35 3.5 -4.85 L3.6 -4.75 4.75 -3.45 M-38.4 16.7 L-36.65 16.75 Q-33.75 16.75 -26.0 12.85 L-23.9 11.8 Q-21.9 14.15 -17.4 17.55 L-15.3 19.1 Q-18.95 21.1 -23.05 22.6 -27.4 24.15 -31.9 24.9 L-35.55 25.35 -39.75 25.5 -44.4 25.3 -46.4 20.95 -49.9 13.05 -48.15 14.15 Q-44.1 16.4 -38.4 16.7" fill="#7f98ff" fill-rule="evenodd" stroke="none"/>
    <path d="M9.15 87.85 L3.2 84.4 -1.7 81.4 -2.55 81.55 -2.7 81.7 Q-2.7 83.95 -2.9 84.65 -5.25 82.8 -6.55 79.8 L-8.7 74.9 Q-10.1 74.8 -10.5 76.05 L-10.7 77.4 -10.95 77.4 -11.35 76.25 Q-11.75 74.55 -11.7 71.5 -11.65 68.5 -12.2 66.9 L-10.2 66.9 Q-4.05 66.9 6.15 64.8 12.7 63.45 18.3 61.9 L29.35 59.25 34.9 57.6 37.75 61.65 Q38.2 62.6 38.2 65.75 38.2 67.95 37.7 68.9 37.7 65.4 35.95 65.4 L35.0 65.55 34.7 65.65 Q35.55 71.85 32.15 78.8 L31.85 78.65 31.95 76.65 Q31.9 75.4 30.45 75.4 L29.6 75.45 29.7 75.45 Q29.05 76.45 27.95 80.25 26.65 83.9 24.35 85.2 24.15 83.1 23.2 81.9 21.55 83.05 19.05 88.45 18.25 88.35 14.35 86.85 L10.55 85.4 9.6 85.55 9.35 85.9 9.5 87.0 9.15 87.85" fill="#26221c" fill-rule="evenodd" stroke="none"/>
    <path d="M36.55 40.1 L36.65 40.35 Q34.55 43.25 31.35 45.4 L25.35 49.25 Q22.75 50.65 18.6 52.15 L-1.5 58.75 -4.6 59.8 Q-5.9 58.9 -9.7 57.95 -15.85 56.4 -17.65 55.65 -21.75 53.85 -27.0 51.7 L-25.95 52.1 -26.0 50.35 -26.1 45.0 -22.9 46.15 -11.9 47.85 2.8 48.9 Q21.2 48.9 32.35 42.15 L35.95 39.65 35.85 39.95 35.05 41.0 36.55 40.1 M28.15 49.9 Q27.85 50.8 27.7 51.8 27.4 53.75 27.4 57.0 L28.05 56.85 14.2 60.2 Q-4.75 64.65 -10.1 64.65 L-10.25 64.25 -8.6 63.65 Q-1.4 61.0 0.35 60.15 3.0 58.9 10.55 56.8 18.5 54.6 21.3 53.4 24.45 52.1 28.15 49.9 M-40.65 35.05 Q-41.1 35.1 -41.35 35.3 L-41.35 34.9 -40.8 34.9 -40.65 35.05 M-29.4 62.75 L-29.0 62.9 -28.5 60.8 Q-28.0 58.05 -28.0 55.15 L-28.05 53.45 Q-25.75 54.6 -23.5 55.9 -21.6 56.9 -18.4 57.65 -15.95 58.2 -7.45 60.8 -14.9 63.35 -17.4 64.5 -25.55 64.1 -29.4 62.75 M-30.8 51.9 L-31.5 52.0 -31.3 51.6 -30.8 51.9" fill="#6b6150" fill-rule="evenodd" stroke="none"/>
    <path d="M-26.1 45.0 L-26.0 50.35 -25.95 52.1 -27.0 51.7 -28.05 51.3 -28.2 51.2 -37.15 44.95 Q-39.15 43.55 -40.35 43.3 -40.65 40.55 -41.2 38.2 L-41.35 35.3 Q-41.1 35.1 -40.65 35.05 L-38.7 36.95 Q-37.6 37.9 -35.9 40.2 L-33.15 42.0 -29.95 43.45 -27.45 44.5 -26.1 45.0 M28.15 49.9 L31.35 47.85 31.55 47.7 34.95 45.3 Q34.2 47.15 34.2 49.8 34.2 51.05 34.7 55.15 L28.05 56.85 27.4 57.0 Q27.4 53.75 27.7 51.8 27.85 50.8 28.15 49.9 M-29.4 62.75 L-29.8 62.6 -32.35 61.0 -33.2 59.95 -37.85 57.45 Q-41.7 55.25 -41.7 53.9 L-40.9 49.2 -40.7 46.95 -40.2 45.85 -40.1 45.75 Q-39.2 45.85 -38.2 46.5 -37.05 47.2 -34.95 48.95 L-31.95 51.15 -31.3 51.6 -31.5 52.0 -30.8 51.9 -28.2 53.4 -28.05 53.45 -28.0 55.15 Q-28.0 58.05 -28.5 60.8 L-29.0 62.9 -29.4 62.75" fill="#988b76" fill-rule="evenodd" stroke="none"/>
    <path d="M12.4 -31.4 L3.8 -40.05 Q1.6 -42.1 -3.35 -45.15 -9.25 -48.65 -12.2 -50.6 L-21.15 -54.95 -24.95 -56.45 Q-11.35 -63.2 -1.15 -60.6 L-0.85 -60.9 -0.7 -61.3 Q1.05 -60.5 5.55 -59.05 L13.3 -56.6 Q16.15 -55.65 18.6 -54.0 L22.3 -51.3 Q28.9 -46.7 29.95 -45.55 31.55 -43.95 34.3 -41.7 L38.2 -38.6 38.3 -38.5 40.1 -30.95 40.2 -25.05 40.2 -19.8 39.65 -16.9 39.3 -15.4 Q37.9 -16.2 36.4 -16.8 L36.5 -17.9 Q36.5 -22.95 34.7 -27.7 32.05 -34.5 26.75 -35.75 18.05 -37.9 14.0 -34.45 12.6 -33.25 12.15 -31.7 L12.4 -31.4 M30.25 -18.4 Q26.25 -18.9 22.8 -17.8 22.7 -19.35 19.65 -23.15 22.7 -24.85 28.0 -24.85 29.0 -24.85 29.75 -21.3 L30.25 -18.4 M-12.9 17.65 L-6.95 13.1 -2.25 8.25 Q-0.45 6.25 1.05 3.2 L3.1 -1.5 4.75 -3.45 Q7.1 -0.95 8.1 -0.65 7.4 1.0 7.0 2.6 5.95 6.45 5.85 12.1 4.85 12.6 3.45 13.7 L-0.45 17.2 Q-1.9 18.55 -5.15 20.8 L-5.6 21.1 -10.2 18.9 -12.9 17.65 M-2.25 -12.35 L-4.95 -8.3 Q-7.4 -4.75 -8.05 -3.1 -8.9 -0.8 -11.75 2.35 L-17.3 7.75 Q-18.5 8.85 -22.05 10.8 L-23.75 8.75 Q-26.05 4.95 -27.55 1.55 L-28.35 -1.9 Q-29.25 -4.05 -31.5 -2.85 L-28.4 3.75 -24.8 10.55 -23.9 11.8 -26.0 12.85 Q-33.75 16.75 -36.65 16.75 L-38.4 16.7 -38.7 15.4 -39.85 10.25 -40.05 4.35 -40.0 0.05 -39.75 -9.05 -39.0 -23.1 Q-38.8 -25.45 -37.3 -29.0 -36.15 -31.65 -34.8 -33.9 L-31.75 -32.4 Q-25.6 -29.25 -14.65 -22.6 -5.85 -17.3 -2.25 -12.35 M14.15 33.95 L15.55 35.2 Q18.7 37.4 25.95 37.4 L30.2 37.1 30.2 37.15 Q30.2 38.05 30.65 39.3 L31.15 40.4 Q28.05 42.3 23.85 43.65 14.65 46.65 2.7 46.65 L-8.2 46.3 Q-2.15 43.8 4.0 40.7 12.1 36.5 14.15 33.95 M-15.3 19.1 Q-11.15 21.9 -7.9 22.7 L-9.45 23.7 Q-13.35 26.35 -21.65 29.2 L-28.7 31.1 -32.7 31.8 -33.3 31.85 -33.4 31.75 -36.8 25.45 -35.55 25.35 -31.9 24.9 Q-27.4 24.15 -23.05 22.6 -18.95 21.1 -15.3 19.1" fill="#be9378" fill-rule="evenodd" stroke="none"/>
    <path d="M33.05 81.25 Q34.4 79.65 35.15 77.3 36.05 73.0 36.7 71.2 37.5 71.75 38.15 71.8 L40.05 77.3 Q41.45 81.65 42.6 84.15 L40.7 84.8 33.35 85.4 33.15 83.95 33.05 81.25 M-31.0 64.3 Q-31.05 66.15 -32.2 71.2 L-33.55 77.05 -34.2 84.15 -34.35 85.25 Q-36.8 85.0 -37.25 84.5 -37.25 83.05 -39.2 81.95 L-41.9 79.95 Q-43.2 78.8 -45.4 77.65 -43.5 74.85 -42.3 69.15 -41.2 63.95 -41.2 58.9 L-40.95 58.35 -36.4 60.65 Q-36.0 60.85 -34.9 62.0 -33.5 63.2 -31.4 64.1 L-31.3 64.15 -31.0 64.3" fill="#046193" fill-rule="evenodd" stroke="none"/>
    <path d="M33.05 81.25 L33.15 83.95 33.35 85.4 32.2 85.4 26.8 85.75 26.8 85.7 Q29.45 82.35 30.1 80.7 L30.3 81.8 Q30.55 82.45 31.2 82.9 L33.05 81.25 M-31.0 64.3 Q-25.1 66.6 -13.3 66.85 L-13.65 68.5 -13.7 71.65 -13.7 76.1 Q-13.25 80.4 -10.95 80.4 -9.75 80.4 -9.4 78.9 -8.5 81.2 -6.25 84.15 -3.4 87.9 -1.45 87.9 L-0.55 87.8 -0.4 87.65 Q-0.15 86.2 -0.7 84.7 0.2 85.6 3.45 87.6 2.35 87.8 1.25 88.3 -1.9 89.7 -3.45 89.7 -4.25 89.7 -4.55 89.35 L-5.1 88.55 Q-6.35 87.45 -12.15 87.65 L-18.7 86.55 Q-24.95 85.4 -29.2 85.4 L-34.35 85.25 -34.2 84.15 -33.55 77.05 -32.2 71.2 Q-31.05 66.15 -31.0 64.3" fill="#023f60" fill-rule="evenodd" stroke="none"/>
    <path d="M48.7 -2.7 L48.6 -2.3 48.5 -2.55 48.7 -2.7 M32.4 37.0 L32.2 36.65 32.3 36.65 32.4 37.0 M32.85 39.25 L32.7 39.35 32.7 39.05 32.85 39.25" fill="#4b3c36" fill-rule="evenodd" stroke="none"/>
    <path d="M-22.3 -52.75 Q-17.1 -50.35 -12.0 -47.55 -3.0 -42.65 2.85 -38.1 5.65 -35.9 8.8 -32.55 L13.8 -27.3 Q15.35 -25.9 18.7 -20.8 L21.1 -17.15 Q16.35 -15.05 12.8 -9.6 10.5 -6.05 9.0 -2.75 7.55 -5.2 -0.05 -12.6 -9.35 -21.7 -13.95 -24.6 -22.3 -30.1 -31.0 -34.4 L-36.55 -37.0 Q-33.3 -39.9 -28.5 -44.9 L-21.45 -52.35 -22.3 -52.75 M41.9 -34.35 L42.15 -34.5 Q45.45 -30.2 47.4 -24.1 49.7 -16.75 49.7 -8.35 49.7 -5.7 48.7 -2.7 L48.5 -2.55 47.6 -4.45 Q46.6 -6.3 46.6 -6.85 46.6 -9.6 42.95 -12.8 L40.95 -14.35 Q41.85 -16.2 42.1 -18.95 L42.2 -25.0 Q42.2 -31.8 41.9 -34.35 M-30.9 34.3 Q-24.05 32.7 -17.55 29.95 -12.0 27.65 -8.15 25.15 L-4.9 23.0 -4.3 22.8 -4.05 22.4 1.05 18.95 5.85 15.15 Q5.9 17.95 6.25 20.45 6.9 24.8 8.3 26.7 L12.6 32.2 9.25 34.5 2.8 38.9 Q-2.35 41.15 -3.7 41.95 L-7.7 43.9 Q-12.55 45.6 -15.6 45.5 L-16.0 45.5 Q-23.2 44.45 -28.1 42.5 L-28.0 41.6 Q-28.0 40.7 -29.2 37.1 L-30.25 34.15 -30.9 34.3 M32.4 37.0 L32.3 36.65 Q35.1 35.85 37.45 34.4 35.75 37.15 32.85 39.25 L32.7 39.05 Q32.7 37.65 32.4 37.0" fill="#332d26" fill-rule="evenodd" stroke="none"/>
    <path d="M-22.3 -52.75 L-21.45 -52.35 -28.5 -44.9 Q-33.3 -39.9 -36.55 -37.0 -41.45 -39.15 -45.6 -40.5 L-41.35 -45.25 Q-36.3 -50.05 -29.55 -54.0 L-27.6 -55.1 Q-27.2 -54.95 -26.8 -54.75 L-24.1 -53.55 -22.3 -52.75 M-30.9 34.3 L-30.25 34.15 -29.2 37.1 Q-28.0 40.7 -28.0 41.6 L-28.1 42.5 -30.55 41.4 Q-33.8 39.75 -35.6 37.65 L-36.95 35.7 -37.95 34.9 -33.7 34.9 -33.35 34.85 -30.9 34.3" fill="#4b4238" fill-rule="evenodd" stroke="none"/>
  </g>
</svg>
