<?xml version="1.0" encoding="UTF-8" standalone="no"?>
<svg xmlns:ffdec="https://www.free-decompiler.com/flash" xmlns:xlink="http://www.w3.org/1999/xlink" ffdec:objectType="shape" height="101.05px" width="102.9px" xmlns="http://www.w3.org/2000/svg">
  <g transform="matrix(1.0, 0.0, 0.0, 1.0, 50.5, 46.05)">
    <path d="M32.75 -28.55 L35.9 -28.15 Q36.75 -27.65 37.8 -27.5 37.4 -28.15 37.45 -29.3 37.55 -31.35 36.9 -32.1 L35.15 -34.45 33.05 -37.0 30.45 -38.95 26.8 -41.25 Q26.15 -41.65 26.0 -42.4 25.5 -43.05 22.75 -43.3 15.5 -43.9 -17.55 -42.55 L-21.35 -41.75 Q-22.9 -41.6 -24.1 -40.25 -25.05 -39.2 -25.5 -37.85 L-27.05 -33.8 Q-27.8 -31.3 -27.25 -29.6 L-25.5 -30.0 -21.6 -30.15 Q-0.05 -30.9 9.6 -30.6 L30.4 -29.0 32.45 -28.6 32.75 -28.55 M32.55 -11.1 L33.55 -11.05 Q37.15 -10.75 38.05 -10.2 38.45 -9.95 38.95 -9.85 L38.9 -10.15 Q38.9 -10.95 39.05 -11.1 L39.4 -11.35 39.9 -11.35 39.9 -15.35 Q39.1 -17.7 38.3 -21.45 L37.3 -26.0 34.7 -26.0 34.5 -25.95 34.4 -25.9 32.95 -25.5 32.1 -25.3 31.15 -25.05 24.5 -23.5 2.5 -18.5 Q-1.4 -17.6 -22.55 -11.35 20.0 -12.0 32.55 -11.1 M39.25 -27.3 Q40.25 -25.4 41.05 -20.35 L41.9 -12.1 41.9 -9.1 41.7 -8.4 41.75 -7.95 41.9 -3.0 41.9 -2.9 41.85 -0.1 Q41.7 4.6 41.05 9.05 42.75 9.2 45.75 10.25 50.4 11.95 50.4 13.15 50.4 14.05 48.4 16.05 L51.55 18.25 Q52.4 18.9 52.4 20.35 52.4 21.9 51.05 23.7 49.45 25.8 47.3 25.75 48.2 27.1 50.05 29.1 51.4 30.8 51.4 32.3 51.7 33.05 51.1 33.65 49.9 34.85 45.55 34.75 L47.2 36.5 Q47.9 37.25 47.9 37.9 47.9 39.5 45.9 40.4 44.2 41.2 38.9 42.25 L40.1 44.9 40.4 46.65 40.4 48.55 Q39.9 50.0 37.15 50.0 34.5 50.0 31.5 48.6 28.9 47.15 28.4 47.0 L27.9 47.05 Q28.9 50.05 28.9 51.35 28.9 52.8 28.7 53.05 L26.65 53.5 Q24.15 53.5 21.2 51.85 L17.5 49.55 Q17.5 50.3 18.0 51.05 L18.0 54.5 17.9 54.75 Q17.75 55.0 17.0 55.0 L12.3 52.05 Q7.85 49.1 6.55 48.05 L5.75 51.4 Q5.15 54.0 3.75 54.0 2.7 54.0 0.15 49.7 -2.4 45.05 -3.0 44.3 L-4.35 47.6 Q-5.45 50.0 -7.25 50.0 -10.0 50.0 -11.9 46.2 L-13.6 41.5 Q-14.2 41.95 -15.4 44.35 -16.45 46.6 -17.5 47.0 -19.7 45.25 -19.65 41.85 L-19.0 36.55 -19.0 34.0 -19.1 33.55 -21.2 35.8 Q-22.8 37.5 -24.0 37.5 L-25.1 37.25 Q-25.5 36.5 -25.5 34.15 L-25.4 31.6 -24.1 27.8 -23.85 27.5 -26.95 28.7 Q-29.95 30.0 -31.5 30.0 L-33.0 29.75 Q-33.8 27.9 -31.05 24.4 L-29.3 22.45 -30.25 22.5 Q-43.15 22.5 -48.0 18.8 -50.5 16.9 -50.5 14.25 -50.5 10.2 -47.9 8.1 L-38.35 1.5 Q-37.1 0.55 -35.25 -1.8 -33.6 -3.85 -32.5 -5.6 -31.9 -6.55 -31.75 -9.35 L-31.95 -9.35 -32.0 -10.15 Q-32.0 -11.85 -31.25 -15.65 -30.5 -19.45 -30.5 -20.5 L-29.4 -25.85 Q-29.1 -27.55 -28.5 -28.4 L-28.75 -28.6 -29.5 -28.75 -29.5 -33.25 -28.0 -37.25 Q-27.15 -39.65 -26.0 -41.1 L-24.5 -42.8 Q-23.15 -43.8 -19.9 -44.2 L-19.85 -44.2 -17.1 -44.6 Q-10.6 -45.1 15.5 -45.25 19.45 -47.35 25.9 -44.0 L34.05 -39.25 Q35.75 -38.1 37.5 -35.25 39.4 -32.2 39.4 -30.0 L39.3 -27.35 39.25 -27.3 M32.15 -8.55 L23.3 -9.25 18.15 -9.2 16.85 -9.2 5.0 -9.15 4.5 -4.9 4.0 -0.55 Q4.0 2.35 5.0 10.0 5.05 10.85 7.05 15.0 9.0 19.1 9.0 20.25 L8.95 21.2 Q11.8 27.85 14.35 30.2 17.05 32.75 22.15 32.75 L25.4 32.35 Q29.55 31.3 32.6 27.4 L32.7 27.25 33.1 26.7 34.2 24.95 34.45 24.55 34.75 23.95 34.55 24.05 30.9 24.5 28.2 24.45 Q22.3 24.15 19.0 22.5 L18.7 22.35 17.5 22.25 17.25 22.25 Q15.65 22.05 14.95 21.15 L14.8 20.95 14.5 19.85 Q14.5 18.55 16.1 18.25 L17.35 18.1 18.05 18.0 18.15 18.0 18.95 18.0 30.05 18.45 31.15 18.55 36.35 19.0 36.8 19.05 37.4 16.95 38.35 13.1 30.65 13.5 30.55 13.5 30.6 13.05 30.55 13.05 24.4 13.5 Q16.75 13.5 13.65 11.8 L13.4 11.65 12.85 11.75 12.9 10.1 12.75 8.8 Q15.25 7.65 15.9 7.5 L17.55 7.0 31.0 7.05 39.35 7.1 39.8 2.0 37.4 2.0 31.35 1.7 31.4 1.4 31.4 1.0 31.35 1.5 22.9 1.75 19.25 2.15 15.4 2.5 Q13.6 2.5 12.8 0.8 12.4 -0.15 12.4 -1.1 L12.6 -2.6 Q14.05 -2.9 16.3 -4.15 L17.25 -4.7 20.9 -4.75 31.9 -4.85 37.6 -4.85 39.7 -4.85 39.3 -7.55 37.65 -7.75 36.9 -7.5 Q36.4 -7.7 36.05 -7.95 L33.85 -8.3 32.15 -8.55 M-6.75 24.65 L-2.55 24.75 Q1.25 24.75 3.75 23.8 7.0 22.6 7.0 20.1 7.0 19.15 5.05 15.2 3.1 11.2 3.0 9.5 L2.4 3.6 2.0 -0.65 2.1 -5.9 Q2.35 -7.95 2.95 -9.15 L-6.4 -9.15 -7.2 -9.15 -12.5 -9.15 -12.5 -9.05 -12.5 -8.8 -12.5 -8.3 -12.1 -8.15 -8.75 -7.0 -7.9 -6.75 -7.85 -6.75 -7.5 -6.0 Q-7.7 -5.3 -8.45 -5.05 L-8.9 -5.0 -9.25 -5.0 -12.7 -5.25 -12.95 -2.7 -9.45 -0.8 -9.0 -0.1 -9.0 -0.15 -9.0 -0.1 -9.0 0.05 -9.05 0.6 Q-9.2 1.0 -10.0 1.0 L-13.35 0.45 -13.5 1.65 Q-14.5 9.5 -14.5 12.3 -14.5 15.85 -14.0 19.05 L-13.3 20.75 Q-12.65 21.8 -12.5 22.5 L-12.55 23.0 Q-12.55 23.45 -11.95 23.75 -10.65 24.45 -6.75 24.65 M18.9 -1.6 Q18.9 -0.35 19.15 -0.1 L19.85 0.35 20.9 0.5 Q21.85 0.5 22.45 -0.25 L22.9 -1.55 Q22.9 -3.5 20.9 -3.35 18.9 -3.2 18.9 -1.6 M-5.4 -18.75 L-0.25 -20.0 Q4.05 -20.9 14.3 -24.05 22.0 -26.15 29.8 -26.85 L-0.55 -27.75 -23.0 -27.15 -5.5 -19.1 -5.5 -18.75 -5.4 -18.75 M40.75 39.2 L45.55 38.0 43.5 35.75 Q42.4 34.4 42.4 33.6 42.4 32.95 42.85 32.75 L49.3 32.25 Q49.05 31.25 46.9 28.9 44.9 26.7 44.9 25.5 44.9 24.0 47.65 23.0 50.4 22.05 50.4 20.75 50.4 19.65 44.4 15.8 45.55 14.45 46.3 14.4 47.1 14.35 47.9 13.55 47.4 13.3 43.5 12.0 L40.7 11.0 39.4 16.8 37.95 21.4 37.65 22.15 37.15 23.4 36.55 24.7 36.5 24.85 Q31.4 35.0 22.15 35.0 14.45 35.0 10.0 28.3 8.45 25.95 7.7 23.95 L7.7 23.85 7.5 24.05 Q4.7 27.0 -2.5 27.0 -11.0 27.0 -13.5 25.5 -14.8 24.75 -14.5 23.8 L-16.0 20.05 Q-16.5 17.3 -16.5 12.55 -16.5 7.65 -16.1 3.95 L-17.35 7.25 -19.85 12.8 Q-22.85 18.6 -26.0 20.95 L-26.0 21.0 Q-26.0 21.95 -30.35 26.8 L-30.5 27.5 Q-27.95 26.8 -25.4 25.7 -23.75 25.0 -22.75 25.0 L-21.1 25.25 -21.0 26.5 Q-21.0 27.6 -21.85 28.95 L-23.5 32.3 -23.5 34.8 -21.15 32.55 Q-19.25 31.0 -18.25 31.0 L-17.1 31.25 Q-16.9 35.65 -17.5 38.3 L-17.5 43.25 -17.35 43.3 -15.6 40.65 Q-14.35 39.0 -13.0 39.0 L-11.6 39.25 -10.65 43.75 Q-9.95 45.7 -8.4 47.0 L-7.4 47.7 -7.35 47.75 -5.75 44.45 Q-4.3 41.5 -3.0 41.5 -2.15 41.5 0.1 45.25 L3.3 50.5 Q3.6 50.2 4.15 47.7 4.55 46.0 6.5 46.0 L15.5 51.5 15.8 51.3 15.3 50.35 Q15.0 49.8 15.0 49.05 L15.05 47.75 15.65 47.65 17.0 47.5 Q18.65 47.5 21.3 49.45 23.85 51.35 26.9 51.25 26.4 49.0 25.9 47.8 L25.9 44.8 26.3 44.65 27.4 44.5 Q28.15 44.5 31.5 46.0 L35.55 47.75 38.4 47.75 38.4 45.5 Q36.9 42.7 36.9 41.65 36.9 40.25 38.1 39.85 L40.75 39.2 M31.0 11.0 L31.7 11.0 31.4 11.0 31.0 11.0 M-22.55 -24.6 L-25.85 -26.7 -26.25 -26.95 -26.75 -26.85 -26.85 -26.8 -28.0 -21.45 Q-29.5 -14.45 -29.5 -11.25 L-26.8 -11.3 Q-26.1 -12.1 -23.8 -13.05 -20.6 -14.45 -14.45 -16.3 L-7.95 -18.1 Q-13.15 -18.9 -22.55 -24.6 M-23.95 -9.15 L-29.5 -9.15 -29.5 -8.75 Q-29.5 -5.4 -32.0 -1.9 -34.15 1.15 -37.85 3.75 L-45.3 8.6 Q-48.5 11.0 -48.5 14.25 -48.5 16.05 -45.25 17.75 L-45.15 17.8 Q-40.25 20.25 -30.25 20.25 -26.85 20.25 -22.9 13.15 -21.55 10.8 -18.85 4.5 -17.9 2.35 -16.9 -0.75 -20.1 -2.1 -21.0 -3.35 -19.8 -4.7 -16.0 -3.75 L-15.35 -6.05 -18.1 -7.25 Q-18.5 -7.6 -18.5 -8.35 -17.7 -9.05 -16.55 -9.15 L-23.95 -9.15 M-14.55 -9.15 L-15.55 -9.15 -14.6 -9.0 -14.55 -9.15" fill="#000000" fill-rule="evenodd" stroke="none"/>
    <path d="M32.55 -11.1 Q20.0 -12.0 -22.55 -11.35 -1.4 -17.6 2.5 -18.5 L24.5 -23.5 31.15 -25.05 30.9 -23.65 31.1 -19.5 Q31.3 -16.05 31.65 -14.1 L32.55 -11.1 M-5.5 -19.1 L-23.0 -27.15 -0.55 -27.75 29.8 -26.85 Q22.0 -26.15 14.3 -24.05 4.05 -20.9 -0.25 -20.0 L-5.4 -18.75 -5.5 -19.1 M-23.8 -13.05 L-23.35 -14.85 Q-23.05 -15.9 -22.25 -21.15 L-21.8 -24.15 -22.55 -24.6 Q-13.15 -18.9 -7.95 -18.1 L-14.45 -16.3 Q-20.6 -14.45 -23.8 -13.05" fill="#6b6150" fill-rule="evenodd" stroke="none"/>
    <path d="M37.15 23.4 L37.65 22.15 37.95 21.4 39.4 16.8 40.7 11.0 43.5 12.0 Q47.4 13.3 47.9 13.55 47.1 14.35 46.3 14.4 45.55 14.45 44.4 15.8 50.4 19.65 50.4 20.75 50.4 22.05 47.65 23.0 44.9 24.0 44.9 25.5 44.9 26.7 46.9 28.9 49.05 31.25 49.3 32.25 L42.85 32.75 Q42.4 32.95 42.4 33.6 42.4 34.4 43.5 35.75 L45.55 38.0 40.75 39.2 40.8 38.95 40.9 36.5 41.9 31.6 Q41.9 30.9 41.35 30.3 L40.65 29.3 40.8 28.0 40.9 26.75 Q40.6 25.75 38.25 24.1 L37.15 23.4 M-8.4 47.0 Q-9.95 45.7 -10.65 43.75 L-11.6 39.25 -13.0 39.0 Q-14.35 39.0 -15.6 40.65 L-17.35 43.3 -17.5 43.25 -17.5 38.3 Q-16.9 35.65 -17.1 31.25 L-18.25 31.0 Q-19.25 31.0 -21.15 32.55 L-23.5 34.8 -23.5 32.3 -21.85 28.95 Q-21.0 27.6 -21.0 26.5 L-21.1 25.25 -22.75 25.0 Q-23.75 25.0 -25.4 25.7 -27.95 26.8 -30.5 27.5 L-30.35 26.8 Q-26.0 21.95 -26.0 21.0 L-26.0 20.95 Q-22.85 18.6 -19.85 12.8 L-19.1 14.25 -19.85 18.45 Q-20.35 21.15 -19.35 23.55 L-18.25 24.7 -17.0 25.5 -16.85 27.75 Q-16.6 28.45 -16.8 30.65 -16.6 32.5 -14.25 32.5 L-13.15 32.4 Q-12.15 32.5 -11.5 33.3 L-11.0 34.65 Q-10.15 35.9 -8.5 35.5 L-8.25 41.4 -8.5 45.8 -8.4 47.0" fill="#4e2f29" fill-rule="evenodd" stroke="none"/>
    <path d="M25.4 32.35 L22.15 32.75 Q17.05 32.75 14.35 30.2 11.8 27.85 8.95 21.2 L9.0 20.25 Q9.0 19.1 7.05 15.0 5.05 10.85 5.0 10.0 4.0 2.35 4.0 -0.55 L4.5 -4.9 5.0 -9.15 16.85 -9.2 18.15 -9.2 23.3 -9.25 32.15 -8.55 32.05 -6.85 31.9 -4.85 20.9 -4.75 17.25 -4.7 16.3 -4.15 Q14.05 -2.9 12.6 -2.6 L12.4 -1.1 Q12.4 -0.15 12.8 0.8 13.6 2.5 15.4 2.5 L19.25 2.15 22.9 1.75 31.35 1.5 31.4 1.0 31.4 1.4 31.35 1.7 31.05 6.25 31.0 7.05 17.55 7.0 15.9 7.5 Q15.25 7.65 12.75 8.8 L12.9 10.1 12.85 11.75 13.4 11.65 13.65 11.8 Q16.75 13.5 24.4 13.5 L30.55 13.05 30.6 13.05 30.55 13.5 30.05 18.45 18.95 18.0 18.15 18.0 18.05 18.0 17.35 18.1 16.1 18.25 Q14.5 18.55 14.5 19.85 L14.8 20.95 14.95 21.15 Q15.65 22.05 17.25 22.25 L17.5 22.25 18.7 22.35 19.0 22.5 Q22.3 24.15 28.2 24.45 L27.45 26.05 Q25.45 30.25 25.4 32.35 M31.0 11.0 L31.4 11.0 31.7 11.0 31.0 11.0" fill="#333333" fill-rule="evenodd" stroke="none"/>
    <path d="M-9.05 -0.85 L-9.0 -0.15 -9.0 -0.1 -9.45 -0.8 -9.05 -0.85 M-9.0 0.05 L-8.95 0.6 -9.05 0.6 -9.0 0.05" fill="#40312d" fill-rule="evenodd" stroke="none"/>
    <path d="M31.15 -25.05 L32.1 -25.3 32.95 -25.5 34.4 -25.9 34.5 -25.95 34.7 -26.0 37.3 -26.0 38.3 -21.45 Q39.1 -17.7 39.9 -15.35 L39.9 -11.35 39.4 -11.35 39.05 -11.1 Q38.9 -10.95 38.9 -10.15 L38.95 -9.85 Q38.45 -9.95 38.05 -10.2 37.15 -10.75 33.55 -11.05 L32.55 -11.1 31.65 -14.1 Q31.3 -16.05 31.1 -19.5 L30.9 -23.65 31.15 -25.05 M-23.8 -13.05 Q-26.1 -12.1 -26.8 -11.3 L-29.5 -11.25 Q-29.5 -14.45 -28.0 -21.45 L-26.85 -26.8 -26.75 -26.85 -26.25 -26.95 -25.85 -26.7 -22.55 -24.6 -21.8 -24.15 -22.25 -21.15 Q-23.05 -15.9 -23.35 -14.85 L-23.8 -13.05" fill="#988b76" fill-rule="evenodd" stroke="none"/>
    <path d="M25.4 32.35 Q25.45 30.25 27.45 26.05 L28.2 24.45 30.9 24.5 34.55 24.05 34.75 23.95 34.45 24.55 34.2 24.95 33.1 26.7 32.7 27.25 32.6 27.4 Q29.55 31.3 25.4 32.35 M30.05 18.45 L30.55 13.5 30.65 13.5 38.35 13.1 37.4 16.95 36.8 19.05 36.35 19.0 31.15 18.55 30.05 18.45 M31.0 7.05 L31.05 6.25 31.35 1.7 37.4 2.0 39.8 2.0 39.35 7.1 31.0 7.05 M31.9 -4.85 L32.05 -6.85 32.15 -8.55 33.85 -8.3 36.05 -7.95 Q36.4 -7.7 36.9 -7.5 L37.65 -7.75 39.3 -7.55 39.7 -4.85 37.6 -4.85 31.9 -4.85" fill="#666666" fill-rule="evenodd" stroke="none"/>
    <path d="M37.15 23.4 L38.25 24.1 Q40.6 25.75 40.9 26.75 L40.8 28.0 40.65 29.3 41.35 30.3 Q41.9 30.9 41.9 31.6 L40.9 36.5 40.8 38.95 40.75 39.2 38.1 39.85 Q36.9 40.25 36.9 41.65 36.9 42.7 38.4 45.5 L38.4 47.75 35.55 47.75 31.5 46.0 Q28.15 44.5 27.4 44.5 L26.3 44.65 25.9 44.8 25.9 47.8 Q26.4 49.0 26.9 51.25 23.85 51.35 21.3 49.45 18.65 47.5 17.0 47.5 L15.65 47.65 15.05 47.75 15.0 49.05 Q15.0 49.8 15.3 50.35 L15.8 51.3 15.5 51.5 6.5 46.0 Q4.55 46.0 4.15 47.7 3.6 50.2 3.3 50.5 L0.1 45.25 Q-2.15 41.5 -3.0 41.5 -4.3 41.5 -5.75 44.45 L-7.35 47.75 -7.4 47.7 -8.4 47.0 -8.5 45.8 -8.25 41.4 -8.5 35.5 Q-10.15 35.9 -11.0 34.65 L-11.5 33.3 Q-12.15 32.5 -13.15 32.4 L-14.25 32.5 Q-16.6 32.5 -16.8 30.65 -16.6 28.45 -16.85 27.75 L-17.0 25.5 -18.25 24.7 -19.35 23.55 Q-20.35 21.15 -19.85 18.45 L-19.1 14.25 -19.85 12.8 -17.35 7.25 -16.1 3.95 Q-16.5 7.65 -16.5 12.55 -16.5 17.3 -16.0 20.05 L-14.5 23.8 Q-14.8 24.75 -13.5 25.5 -11.0 27.0 -2.5 27.0 4.7 27.0 7.5 24.05 L7.7 23.95 Q8.45 25.95 10.0 28.3 14.45 35.0 22.15 35.0 31.4 35.0 36.5 24.85 L36.55 24.7 37.15 23.4" fill="#311d1a" fill-rule="evenodd" stroke="none"/>
    <path d="M18.9 -1.6 Q18.9 -3.2 20.9 -3.35 22.9 -3.5 22.9 -1.55 L22.45 -0.25 Q21.85 0.5 20.9 0.5 L19.85 0.35 19.15 -0.1 Q18.9 -0.35 18.9 -1.6" fill="#ffffff" fill-rule="evenodd" stroke="none"/>
    <path d="M32.7 -28.7 L32.75 -28.55 32.45 -28.6 32.7 -28.7 M-8.75 -7.0 L-7.9 -6.75 -8.75 -7.0" fill="#4b3c36" fill-rule="evenodd" stroke="none"/>
    <path d="M-21.6 -30.15 Q-20.65 -33.2 -19.1 -34.6 -18.35 -35.2 -17.15 -36.85 -15.35 -38.3 -10.5 -39.0 L10.25 -39.85 16.65 -39.6 22.55 -39.1 26.8 -36.5 29.35 -34.15 31.55 -31.6 32.7 -28.7 32.45 -28.6 30.4 -29.0 9.6 -30.6 Q-0.05 -30.9 -21.6 -30.15 M-7.2 -9.15 L-6.4 -9.15 2.95 -9.15 Q2.35 -7.95 2.1 -5.9 L2.0 -0.65 2.4 3.6 3.0 9.5 Q3.1 11.2 5.05 15.2 7.0 19.15 7.0 20.1 7.0 22.6 3.75 23.8 1.25 24.75 -2.55 24.75 L-6.75 24.65 Q-7.5 22.35 -7.5 21.3 L-7.5 13.5 Q-7.55 10.95 -8.35 5.65 L-8.95 0.6 -9.0 0.05 -9.0 -0.1 -9.0 -0.15 -9.05 -0.85 -9.1 -2.25 -8.45 -5.05 Q-7.7 -5.3 -7.5 -6.0 L-7.85 -6.75 -7.9 -6.75 -7.2 -9.15 M-45.15 17.8 L-44.5 16.95 Q-42.25 14.0 -41.1 12.05 -40.6 11.2 -38.9 9.95 L-36.25 7.55 -32.35 3.05 Q-27.55 -3.3 -26.3 -5.2 L-23.95 -9.15 -16.55 -9.15 Q-17.7 -9.05 -18.5 -8.35 -18.5 -7.6 -18.1 -7.25 L-15.35 -6.05 -16.0 -3.75 Q-19.8 -4.7 -21.0 -3.35 -20.1 -2.1 -16.9 -0.75 -17.9 2.35 -18.85 4.5 -21.55 10.8 -22.9 13.15 -26.85 20.25 -30.25 20.25 -40.25 20.25 -45.15 17.8" fill="#332d26" fill-rule="evenodd" stroke="none"/>
    <path d="M-21.6 -30.15 L-25.5 -30.0 -27.25 -29.6 Q-27.8 -31.3 -27.05 -33.8 L-25.5 -37.85 Q-25.05 -39.2 -24.1 -40.25 -22.9 -41.6 -21.35 -41.75 L-17.55 -42.55 Q15.5 -43.9 22.75 -43.3 25.5 -43.05 26.0 -42.4 26.15 -41.65 26.8 -41.25 L30.45 -38.95 33.05 -37.0 35.15 -34.45 36.9 -32.1 Q37.55 -31.35 37.45 -29.3 37.4 -28.15 37.8 -27.5 36.75 -27.65 35.9 -28.15 L32.75 -28.55 32.7 -28.7 31.55 -31.6 29.35 -34.15 26.8 -36.5 22.55 -39.1 16.65 -39.6 10.25 -39.85 -10.5 -39.0 Q-15.35 -38.3 -17.15 -36.85 -18.35 -35.2 -19.1 -34.6 -20.65 -33.2 -21.6 -30.15 M-7.2 -9.15 L-7.9 -6.75 -8.75 -7.0 -12.1 -8.15 -12.5 -8.3 -12.5 -8.8 -12.5 -9.05 -12.5 -9.15 -7.2 -9.15 M-8.45 -5.05 L-9.1 -2.25 -9.05 -0.85 -9.45 -0.8 -12.95 -2.7 -12.7 -5.25 -9.25 -5.0 -8.9 -5.0 -8.45 -5.05 M-8.95 0.6 L-8.35 5.65 Q-7.55 10.95 -7.5 13.5 L-7.5 21.3 Q-7.5 22.35 -6.75 24.65 -10.65 24.45 -11.95 23.75 -12.55 23.45 -12.55 23.0 L-12.5 22.5 Q-12.65 21.8 -13.3 20.75 L-14.0 19.05 Q-14.5 15.85 -14.5 12.3 -14.5 9.5 -13.5 1.65 L-13.35 0.45 -10.0 1.0 Q-9.2 1.0 -9.05 0.6 L-8.95 0.6 M-23.95 -9.15 L-26.3 -5.2 Q-27.55 -3.3 -32.35 3.05 L-36.25 7.55 -38.9 9.95 Q-40.6 11.2 -41.1 12.05 -42.25 14.0 -44.5 16.95 L-45.15 17.8 -45.25 17.75 Q-48.5 16.05 -48.5 14.25 -48.5 11.0 -45.3 8.6 L-37.85 3.75 Q-34.15 1.15 -32.0 -1.9 -29.5 -5.4 -29.5 -8.75 L-29.5 -9.15 -23.95 -9.15" fill="#4b4238" fill-rule="evenodd" stroke="none"/>
  </g>
</svg>
