<?xml version="1.0" encoding="UTF-8" standalone="no"?>
<svg xmlns:ffdec="https://www.free-decompiler.com/flash" xmlns:xlink="http://www.w3.org/1999/xlink" ffdec:objectType="shape" height="53.5px" width="82.0px" xmlns="http://www.w3.org/2000/svg">
  <g transform="matrix(1.0, 0.0, 0.0, 1.0, 41.0, 26.75)">
    <path d="M13.0 -25.75 L14.55 -25.1 14.55 -25.5 Q15.95 -25.1 18.45 -22.75 L23.05 -18.0 Q24.9 -16.1 26.1 -13.0 L27.75 -8.65 Q35.15 -7.95 38.5 -1.7 41.0 2.95 41.0 9.75 41.0 16.6 37.75 20.25 34.9 23.45 29.55 25.1 L29.35 25.65 29.0 25.65 26.75 26.0 26.85 25.8 16.0 26.75 8.6 26.35 0.3 25.5 -7.1 25.1 -14.7 24.5 Q-15.4 24.05 -18.05 23.3 -20.55 22.55 -21.2 22.5 L-28.7 21.35 -28.95 21.1 -30.0 20.35 Q-31.1 19.7 -32.4 19.7 L-34.75 17.8 -35.5 17.2 -36.6 16.25 Q-40.1 13.2 -40.7 11.65 -41.0 11.0 -41.0 6.0 L-41.0 5.25 Q-40.85 -0.85 -38.8 -4.15 -37.7 -5.85 -29.0 -15.2 -26.45 -17.95 -23.0 -19.6 L-14.2 -23.0 Q-9.2 -24.95 -4.25 -26.5 -3.45 -26.75 5.5 -26.75 L9.25 -26.25 13.0 -25.75 M16.95 -21.15 L16.05 -21.85 15.5 -22.35 15.0 -22.6 13.85 -23.35 Q11.1 -24.5 1.0 -24.5 -5.05 -24.5 -12.05 -21.9 L-20.0 -18.45 Q-22.4 -17.4 -25.3 -15.2 -27.85 -13.3 -29.5 -11.45 -34.9 -5.5 -36.75 -2.35 -38.9 1.3 -39.0 5.25 L-39.0 5.6 Q-39.0 11.05 -35.55 14.55 L-35.5 14.6 -35.1 15.0 -34.4 15.6 -34.2 15.75 -34.05 15.85 -33.5 16.25 Q-31.95 17.3 -30.0 18.1 L-28.85 18.5 -20.35 20.55 Q-15.3 21.6 -13.45 22.5 L-2.5 22.5 Q-3.25 18.4 -1.85 13.75 L-1.15 11.7 -4.2 11.75 -4.35 11.6 -4.5 10.65 Q-4.5 9.5 -1.95 9.9 L-0.45 10.15 Q0.85 7.5 2.8 5.25 L4.85 2.35 5.9 1.05 Q1.8 -0.05 -0.7 0.25 L-1.0 -1.2 Q0.35 -2.35 6.95 -0.4 6.5 -2.85 6.5 -3.85 L6.7 -4.8 Q6.95 -5.85 7.5 -6.25 L8.75 -2.3 8.8 -2.15 9.05 -2.4 Q12.2 -5.25 15.9 -6.8 L14.9 -7.8 Q13.15 -9.5 13.0 -10.7 14.45 -10.9 15.9 -9.6 L18.0 -7.6 Q21.4 -8.7 25.3 -8.75 24.15 -15.2 19.55 -19.2 L17.7 -20.55 17.7 -20.6 16.95 -21.15 M36.9 -0.6 L35.25 -2.2 Q33.65 -4.25 32.4 -5.1 30.3 -6.55 23.75 -6.7 23.0 -6.7 20.25 -5.7 L23.0 -2.75 22.75 -1.7 Q23.25 -1.25 22.0 -1.25 21.15 -1.25 19.1 -3.4 L17.9 -4.8 Q14.0 -3.35 12.75 -2.7 L9.55 0.4 Q14.95 2.15 16.0 3.05 L15.9 3.8 Q15.75 4.25 15.0 4.25 L9.7 2.2 10.5 8.55 10.15 8.8 9.5 9.25 Q8.7 8.1 7.55 2.7 L7.55 2.55 7.5 2.65 Q3.95 6.65 1.95 10.5 L9.05 11.5 9.5 12.25 9.0 12.85 Q8.55 13.25 7.75 13.25 4.3 13.25 2.75 12.3 L1.3 11.9 Q-0.5 15.95 -0.5 19.9 -0.5 20.25 -0.85 21.25 -0.95 22.15 0.0 22.75 1.75 23.85 7.75 24.3 L15.9 24.5 Q23.65 24.5 28.8 22.95 L29.0 22.75 29.2 22.85 Q34.5 21.15 37.0 17.8 39.0 15.15 39.0 9.75 L38.85 3.65 Q38.45 1.35 37.1 -0.35 L36.95 -0.6 36.9 -0.6" fill="#000000" fill-rule="evenodd" stroke="none"/>
    <path d="M36.6 -0.3 L36.9 -0.6 36.95 -0.6 36.6 -0.3" fill="#503d38" fill-rule="evenodd" stroke="none"/>
    <path d="M-35.55 14.55 L-35.5 14.3 -35.1 15.0 -35.5 14.6 -35.55 14.55 M17.7 -20.55 L17.65 -20.55 16.95 -21.15 17.7 -20.6 17.7 -20.55 M-34.05 15.85 L-34.2 15.75 -34.0 15.75 -34.05 15.85 M8.75 -2.3 L9.05 -2.4 8.75 -2.3" fill="#4b3c36" fill-rule="evenodd" stroke="none"/>
    <path d="M-34.4 15.6 L-34.0 15.75 -34.2 15.75 -34.4 15.6 M36.95 -0.6 L37.1 -0.35 36.6 -0.3 36.95 -0.6" fill="#795c55" fill-rule="evenodd" stroke="none"/>
    <path d="M-34.0 15.75 Q-32.85 15.75 -31.9 11.45 L-30.95 6.25 Q-30.0 1.65 -25.45 -3.85 -23.05 -6.8 -20.45 -8.95 -17.2 -11.65 -12.7 -14.0 L-7.2 -16.6 -4.45 -17.75 Q-2.05 -18.5 2.55 -18.85 L8.7 -19.9 15.3 -20.6 17.7 -20.55 19.55 -19.2 Q24.15 -15.2 25.3 -8.75 21.4 -8.7 18.0 -7.6 L15.9 -9.6 Q14.45 -10.9 13.0 -10.7 13.15 -9.5 14.9 -7.8 L15.9 -6.8 Q12.2 -5.25 9.05 -2.4 L8.75 -2.3 7.5 -6.25 Q6.95 -5.85 6.7 -4.8 L6.5 -3.85 Q6.5 -2.85 6.95 -0.4 0.35 -2.35 -1.0 -1.2 L-0.7 0.25 Q1.8 -0.05 5.9 1.05 L4.85 2.35 2.8 5.25 Q0.85 7.5 -0.45 10.15 L-1.95 9.9 Q-4.5 9.5 -4.5 10.65 L-4.35 11.6 -4.2 11.75 -1.15 11.7 -1.85 13.75 Q-3.25 18.4 -2.5 22.5 L-13.45 22.5 Q-15.3 21.6 -20.35 20.55 L-28.85 18.5 -30.0 18.1 Q-31.95 17.3 -33.5 16.25 L-34.05 15.85 -34.0 15.75 M7.75 24.3 L8.25 21.5 Q9.45 16.6 12.75 12.05 14.9 9.0 16.75 7.25 19.8 4.3 23.5 2.75 28.25 0.7 36.6 -0.3 L37.1 -0.35 Q38.45 1.35 38.85 3.65 L39.0 9.75 Q39.0 15.15 37.0 17.8 34.5 21.15 29.2 22.85 L29.0 22.75 28.8 22.95 Q23.65 24.5 15.9 24.5 L7.75 24.3" fill="#332d26" fill-rule="evenodd" stroke="none"/>
    <path d="M-35.55 14.55 Q-39.0 11.05 -39.0 5.6 L-39.0 5.25 Q-38.9 1.3 -36.75 -2.35 -34.9 -5.5 -29.5 -11.45 -27.85 -13.3 -25.3 -15.2 -22.4 -17.4 -20.0 -18.45 L-12.05 -21.9 Q-5.05 -24.5 1.0 -24.5 11.1 -24.5 13.85 -23.35 L15.0 -22.6 15.5 -22.35 16.05 -21.85 16.95 -21.15 17.65 -20.55 17.7 -20.55 15.3 -20.6 8.7 -19.9 2.55 -18.85 Q-2.05 -18.5 -4.45 -17.75 L-7.2 -16.6 -12.7 -14.0 Q-17.2 -11.65 -20.45 -8.95 -23.05 -6.8 -25.45 -3.85 -30.0 1.65 -30.95 6.25 L-31.9 11.45 Q-32.85 15.75 -34.0 15.75 L-34.4 15.6 -35.1 15.0 -35.5 14.3 -35.55 14.55 M7.55 2.7 Q8.7 8.1 9.5 9.25 L10.15 8.8 10.5 8.55 9.7 2.2 15.0 4.25 Q15.75 4.25 15.9 3.8 L16.0 3.05 Q14.95 2.15 9.55 0.4 L12.75 -2.7 Q14.0 -3.35 17.9 -4.8 L19.1 -3.4 Q21.15 -1.25 22.0 -1.25 23.25 -1.25 22.75 -1.7 L23.0 -2.75 20.25 -5.7 Q23.0 -6.7 23.75 -6.7 30.3 -6.55 32.4 -5.1 33.65 -4.25 35.25 -2.2 L36.9 -0.6 36.6 -0.3 Q28.25 0.7 23.5 2.75 19.8 4.3 16.75 7.25 14.9 9.0 12.75 12.05 9.45 16.6 8.25 21.5 L7.75 24.3 Q1.75 23.85 0.0 22.75 -0.95 22.15 -0.85 21.25 -0.5 20.25 -0.5 19.9 -0.5 15.95 1.3 11.9 L2.75 12.3 Q4.3 13.25 7.75 13.25 8.55 13.25 9.0 12.85 L9.5 12.25 9.05 11.5 1.95 10.5 Q3.95 6.65 7.5 2.65 L7.55 2.7" fill="#4b4238" fill-rule="evenodd" stroke="none"/>
  </g>
</svg>
