<?xml version="1.0" encoding="UTF-8" standalone="no"?>
<svg xmlns:ffdec="https://www.free-decompiler.com/flash" xmlns:xlink="http://www.w3.org/1999/xlink" ffdec:objectType="shape" height="116.35px" width="187.9px" xmlns="http://www.w3.org/2000/svg">
  <g transform="matrix(1.0, 0.0, 0.0, 1.0, 1.6, -68.95)">
    <path d="M127.35 88.55 L127.3 87.8 127.2 85.05 Q127.45 81.55 128.15 79.95 130.0 75.7 131.35 73.95 134.0 70.6 138.0 70.6 L139.95 70.95 141.85 71.3 142.2 71.3 142.25 71.45 Q144.75 70.75 148.25 70.75 L158.4 71.65 165.15 72.5 168.35 72.35 171.5 72.25 171.6 72.2 171.7 72.65 171.3 76.95 171.0 80.35 169.25 82.25 Q168.15 83.7 167.4 83.85 L167.5 83.65 167.65 82.35 Q167.7 81.6 166.85 81.25 L164.55 83.2 162.75 84.9 162.7 84.75 163.2 83.0 Q163.5 81.9 162.35 81.55 161.4 81.75 160.5 83.25 159.6 84.8 158.65 85.05 L158.7 84.6 Q159.0 83.85 158.85 82.75 158.7 81.45 157.85 81.1 156.6 82.05 155.5 83.85 154.45 85.6 153.25 86.4 L153.2 86.25 153.25 84.15 Q153.3 82.9 152.4 82.5 151.25 83.3 149.8 85.2 148.5 87.1 148.0 87.4 L148.45 85.2 148.75 83.4 Q148.75 82.3 147.8 81.85 146.5 82.05 144.9 83.95 143.35 85.7 143.35 86.65 L143.2 87.35 142.95 87.5 142.85 87.4 142.8 87.25 142.75 86.55 Q142.75 85.75 143.1 85.0 143.2 84.4 142.05 83.6 140.75 84.6 139.25 86.95 L137.15 89.9 137.25 86.95 Q137.3 85.35 136.15 84.25 135.35 84.7 134.0 86.5 132.85 87.95 132.25 89.1 L132.15 89.0 132.1 88.55 132.25 83.7 Q130.0 83.9 128.25 86.75 L127.35 88.55 M166.6 86.65 L166.15 87.1 166.0 86.95 166.6 86.65 M163.65 76.85 L163.45 76.8 161.05 77.1 Q160.1 77.0 158.15 76.05 157.45 76.0 155.65 76.85 153.7 77.75 152.3 77.75 L150.65 77.55 148.8 77.45 148.55 78.6 Q148.7 79.5 149.65 79.5 L151.25 79.9 152.85 80.2 154.6 79.35 Q156.3 78.45 156.85 78.45 L159.3 78.9 161.8 79.3 162.85 78.75 Q163.85 78.05 163.85 77.5 163.85 76.95 163.65 76.85 M141.25 78.65 Q140.3 78.4 139.2 77.45 138.25 76.55 137.95 76.55 137.4 76.55 136.8 77.2 L135.85 78.25 Q135.5 76.85 134.05 76.55 L132.3 76.4 Q131.4 76.5 130.65 77.9 129.95 79.15 129.95 80.05 129.95 80.65 130.2 80.7 L130.8 80.7 Q131.3 80.65 131.7 80.25 132.0 79.95 132.5 79.95 133.3 79.95 133.65 80.5 134.0 81.1 134.65 81.1 135.55 81.1 136.25 80.2 L136.45 80.8 Q136.6 81.2 137.2 81.2 L139.45 80.5 Q141.6 79.8 141.6 79.2 L141.45 78.6 141.25 78.65 M130.45 87.85 L130.5 88.05 130.4 87.95 130.45 87.85" fill="#9e7701" fill-rule="evenodd" stroke="none"/>
    <path d="M171.0 80.35 L171.3 76.95 171.7 72.65 171.6 72.2 171.5 72.25 168.35 72.35 165.15 72.5 158.4 71.65 148.25 70.75 Q144.75 70.75 142.25 71.45 L142.2 71.3 141.85 71.3 139.95 70.95 138.0 70.6 Q134.0 70.6 131.35 73.95 130.0 75.7 128.15 79.95 127.45 81.55 127.2 85.05 L127.3 87.8 127.35 88.55 127.45 90.0 127.45 90.15 127.4 90.9 127.1 93.5 Q126.7 96.15 126.15 96.65 L126.1 96.85 126.25 96.75 128.05 95.85 128.65 96.05 128.9 96.8 Q128.9 97.45 127.0 99.8 L124.95 102.15 124.3 102.7 Q127.95 102.5 129.05 101.75 130.1 101.0 130.2 101.0 131.4 101.0 131.4 102.5 L130.8 103.6 130.1 105.4 129.95 105.7 130.2 105.65 Q132.75 105.3 133.95 104.45 L136.25 102.55 Q137.15 102.85 137.25 104.2 L137.35 106.1 Q139.65 104.45 140.95 101.25 142.15 97.6 142.85 96.0 142.4 95.8 143.2 95.8 L142.15 91.25 Q142.15 90.7 142.5 90.65 L142.85 90.7 146.15 99.2 146.35 99.35 146.4 99.35 146.5 99.05 146.5 98.25 Q146.5 97.8 146.8 97.1 L147.0 96.45 146.9 94.8 Q146.9 94.35 147.2 93.7 L147.5 92.65 147.9 91.35 147.6 90.6 Q148.45 89.85 149.0 89.9 L149.65 92.2 150.25 93.85 150.25 94.2 150.35 94.1 Q151.1 96.05 151.7 96.55 152.6 95.5 153.3 89.7 L154.9 89.55 155.1 89.55 155.05 89.9 155.1 90.3 155.1 90.35 154.4 91.5 154.45 91.9 Q154.2 92.05 154.2 92.45 154.2 93.35 154.35 93.0 154.6 93.25 155.05 93.35 L155.7 92.65 157.95 90.6 159.95 89.3 161.65 87.85 161.95 87.8 162.25 87.8 162.3 87.8 Q161.05 89.3 161.05 89.9 L161.15 91.0 162.15 91.15 Q162.8 91.15 163.1 90.6 L163.65 89.15 164.0 88.9 164.6 88.45 Q164.7 88.1 165.1 87.95 165.15 87.75 165.35 87.7 L165.5 87.7 166.15 87.1 166.6 86.65 167.45 85.8 170.95 81.95 170.9 81.2 171.0 80.35 M173.45 73.15 L173.0 77.6 172.3 82.75 172.25 82.8 Q171.85 85.1 166.8 88.95 L166.55 89.15 166.6 89.45 166.7 89.7 166.7 89.75 166.75 90.3 166.7 90.6 166.85 91.2 166.15 98.9 Q166.15 102.75 164.35 104.85 L165.5 105.2 Q168.05 106.1 168.95 107.2 169.75 104.8 171.45 102.45 174.65 98.05 178.0 98.05 182.25 98.05 184.7 107.65 186.3 114.0 186.3 117.9 L186.0 120.6 185.65 123.3 Q185.65 125.05 183.75 135.0 181.65 141.65 178.85 144.15 176.4 146.25 172.05 146.25 170.7 146.25 168.4 144.2 166.45 142.45 165.8 141.25 165.6 140.75 165.15 138.1 L164.85 135.15 Q164.85 133.95 165.35 132.85 L165.9 131.75 166.6 131.7 169.5 131.0 Q170.5 130.75 171.35 129.3 172.15 128.1 172.2 127.05 L171.45 127.6 Q169.6 128.85 167.65 128.85 164.65 128.85 163.35 125.65 162.6 123.75 162.6 121.6 L163.1 119.75 162.3 119.4 Q160.45 123.9 160.45 125.5 L160.15 127.8 159.8 130.05 159.45 133.4 159.0 136.7 158.9 137.4 Q159.55 138.15 160.0 139.3 L161.2 142.6 160.75 143.2 160.65 143.3 160.6 143.3 160.5 143.35 160.45 143.35 159.75 143.4 160.0 145.55 159.9 148.4 Q159.9 149.5 161.0 151.55 162.75 151.8 163.5 152.85 164.1 153.7 164.1 155.45 164.1 156.95 162.5 157.65 160.45 158.6 155.05 158.6 L152.7 159.05 150.3 159.5 Q145.35 159.5 145.85 156.8 L145.85 156.65 145.8 156.5 145.55 155.15 145.9 152.45 146.05 151.55 143.1 153.45 139.8 155.7 Q140.45 156.5 140.45 157.9 140.45 159.55 139.85 159.85 138.7 160.6 133.6 160.6 128.6 160.6 126.2 154.8 124.65 151.1 124.65 147.75 124.65 147.0 125.5 146.25 L126.7 145.35 127.2 144.65 125.05 144.5 124.8 142.35 Q124.8 141.6 125.2 141.0 L123.7 141.45 123.0 140.85 122.75 140.3 123.05 138.15 123.35 136.35 120.8 136.5 118.45 136.75 116.5 136.95 116.05 136.85 114.6 137.65 Q111.8 139.0 108.45 139.0 105.35 139.0 103.6 137.95 L102.3 138.2 96.85 137.8 92.6 137.15 89.75 135.85 89.3 135.95 88.65 135.8 Q88.4 135.6 88.4 135.0 88.4 133.7 92.7 132.1 96.6 130.65 101.6 129.8 102.1 129.15 102.2 128.2 L102.75 125.95 102.7 121.7 Q102.7 121.15 103.1 121.15 L103.65 121.2 Q102.75 120.2 102.75 119.35 102.75 118.4 103.6 116.95 L104.95 114.7 105.9 112.3 Q106.25 111.5 107.15 111.35 L107.7 110.75 Q112.65 105.8 120.45 104.45 L120.25 103.65 Q120.25 103.25 122.45 101.6 L125.6 99.05 125.75 98.85 125.65 98.9 124.75 99.15 123.2 99.5 122.6 99.35 Q122.3 99.2 122.3 98.6 L123.55 97.15 Q124.95 95.5 125.45 93.65 125.7 92.85 125.55 91.25 L125.4 89.15 126.0 80.95 Q126.0 79.85 127.15 77.65 128.2 75.6 129.25 74.45 L132.8 69.95 Q134.0 68.95 138.95 68.95 L140.9 69.25 141.95 69.4 149.0 69.15 155.35 69.7 160.7 70.45 Q163.0 70.9 170.4 70.4 172.4 70.4 173.1 71.5 173.45 72.05 173.45 73.15 M175.5 144.1 Q179.6 142.5 181.7 136.5 182.6 133.9 182.95 130.8 L183.2 128.15 Q183.2 127.7 183.55 125.95 L183.85 123.75 184.3 120.7 184.7 117.7 Q184.7 114.6 183.35 109.35 181.95 104.15 180.8 102.55 179.3 100.6 178.0 99.95 L177.25 99.7 176.5 99.7 176.25 99.75 Q174.85 100.15 172.9 103.45 170.35 107.7 170.2 108.3 L170.15 111.65 169.7 114.55 169.3 117.15 169.25 117.45 Q169.25 118.9 170.0 120.15 L170.05 120.25 171.2 121.7 171.5 122.0 Q172.75 123.2 173.3 124.65 173.75 125.8 173.75 127.2 173.75 128.0 172.9 129.45 L171.0 131.95 Q170.1 132.75 169.1 132.8 L169.1 132.75 168.55 132.7 168.5 132.7 Q167.55 132.45 166.85 134.0 166.45 134.8 166.45 135.95 L166.85 138.6 167.65 140.95 Q167.95 141.55 169.8 143.05 171.7 144.65 172.2 144.65 L175.5 144.1 M164.05 99.95 L164.4 97.1 161.5 97.85 155.65 99.0 150.6 100.35 Q150.4 100.4 149.55 100.95 148.9 101.4 148.05 101.4 L147.7 101.4 147.6 101.9 147.45 101.95 Q147.6 102.15 146.7 102.15 145.35 102.15 144.05 98.55 L142.95 101.15 143.9 101.5 145.2 102.25 146.65 103.15 147.6 104.0 154.55 105.7 Q161.8 105.7 163.6 102.95 164.55 101.55 164.05 99.95 M168.3 108.75 L165.9 107.6 Q163.65 106.4 162.8 106.4 L162.2 106.35 157.85 107.25 158.25 108.55 158.6 111.65 Q158.6 112.4 157.6 113.2 156.0 114.4 152.7 114.65 L152.65 115.0 Q152.65 116.15 150.8 118.35 L149.5 119.8 Q149.85 120.35 149.85 121.2 L149.2 124.0 Q148.55 126.0 148.55 126.7 L148.65 132.05 148.4 132.25 Q149.0 133.55 149.0 134.15 L148.85 134.85 148.8 134.85 148.85 136.05 148.55 137.2 148.95 137.2 Q150.15 137.2 152.05 138.95 L153.85 140.6 Q153.9 139.85 155.05 138.75 156.05 137.8 156.9 137.65 L157.15 137.1 157.4 136.6 158.1 134.1 158.45 127.15 Q158.7 123.65 160.05 120.0 160.6 118.45 161.3 117.05 L161.8 116.2 162.1 115.65 162.35 115.2 162.35 115.25 163.1 114.2 163.3 113.9 163.8 113.35 163.95 113.1 164.55 113.1 Q164.75 113.15 164.75 113.75 L163.4 116.85 163.1 117.65 163.75 117.65 163.85 117.45 164.0 116.8 164.6 115.25 Q165.15 114.65 166.8 114.55 L167.0 114.55 167.25 114.5 167.8 114.5 168.35 114.7 168.5 114.05 168.35 112.8 168.35 112.65 168.3 112.35 168.25 111.8 168.2 111.5 Q168.2 110.15 168.5 108.8 L168.5 108.75 168.3 108.75 M166.9 116.15 Q166.15 116.8 165.15 119.4 164.2 121.8 164.2 122.45 164.2 123.7 164.9 125.25 165.8 127.25 167.25 127.25 L169.8 126.1 172.05 125.0 171.5 123.75 169.95 122.7 Q167.65 121.55 167.65 117.1 L167.0 116.75 166.9 116.15 M160.05 90.65 L160.3 90.4 160.0 90.45 160.05 90.65 M156.85 95.25 L157.55 95.35 Q158.1 95.35 158.5 94.8 L158.85 93.8 158.4 93.55 156.9 92.55 Q156.25 92.95 156.25 93.95 L156.35 94.7 156.45 95.0 156.85 95.25 M153.85 109.4 L153.4 111.7 153.15 113.05 154.1 112.95 Q156.95 112.35 156.8 109.6 L156.5 107.75 156.5 107.3 154.35 107.35 154.25 107.35 153.85 109.4 M152.6 106.95 Q147.9 105.95 146.9 105.4 L146.9 105.35 144.45 104.05 142.35 102.3 141.55 103.65 Q142.65 104.2 143.95 105.8 145.7 108.05 145.95 109.85 145.95 111.2 146.5 112.85 L146.8 113.4 146.8 113.6 146.95 114.0 148.85 117.75 Q150.5 116.05 151.25 113.7 L151.3 113.55 151.55 112.55 152.45 107.6 Q152.45 107.25 152.6 106.95 M144.85 112.1 Q144.35 110.2 142.15 107.05 L140.7 104.9 138.4 107.85 138.4 108.55 Q138.6 112.0 139.95 111.8 L143.35 112.5 145.0 112.65 144.85 112.1 M132.4 128.9 L134.3 128.65 134.95 128.15 Q136.15 127.3 137.7 126.9 142.1 125.65 145.75 128.3 146.3 128.6 146.95 129.65 L146.9 128.8 Q146.9 126.4 147.5 124.5 148.1 122.6 148.1 120.95 148.1 120.4 147.75 120.2 L147.45 119.9 147.7 119.7 Q147.05 118.8 146.35 116.9 L145.4 114.25 142.9 113.95 138.2 113.6 Q136.8 113.25 137.05 112.55 L137.55 111.25 137.25 109.55 137.05 108.95 135.9 109.4 Q135.25 108.55 135.35 107.55 L135.6 106.65 135.55 105.95 135.45 105.85 135.5 105.65 Q134.75 105.8 133.65 106.7 131.65 107.7 126.25 108.15 L126.1 107.95 125.9 107.15 126.7 106.15 129.05 103.65 129.0 103.45 128.9 103.5 124.45 104.55 124.45 104.6 Q124.45 105.55 124.25 105.5 113.55 106.95 108.9 112.1 L111.1 113.75 111.2 113.85 112.4 114.8 113.95 116.15 114.6 116.75 117.65 119.4 118.1 119.8 Q119.25 118.5 120.95 117.3 L126.25 114.15 126.55 113.95 129.0 112.25 Q129.5 112.4 129.65 112.6 L129.95 113.4 129.95 113.5 Q129.95 114.15 127.95 115.35 L125.65 116.75 125.35 118.0 Q124.95 119.55 124.9 120.3 124.85 121.45 125.1 124.2 L124.95 126.65 124.85 128.25 125.1 128.25 129.05 128.6 129.35 129.15 129.65 129.1 129.9 129.1 130.05 129.05 130.25 129.05 132.4 128.9 M123.5 118.0 Q120.85 119.65 119.3 121.35 L119.65 122.3 Q119.65 123.6 118.9 124.1 118.05 124.7 115.9 124.8 117.1 125.8 116.8 126.4 116.1 127.6 116.1 127.95 L116.25 128.55 117.4 128.45 117.8 129.25 117.8 129.3 118.6 128.3 121.9 128.15 123.1 128.15 123.25 126.25 Q123.5 123.55 123.35 122.15 123.2 119.7 123.5 118.0 M133.65 130.35 L126.95 130.95 126.85 131.65 Q126.7 132.9 127.1 133.7 L127.45 133.65 133.6 133.25 133.65 133.15 133.45 132.35 Q133.4 131.65 133.65 130.35 M132.8 134.85 L135.0 136.35 137.5 138.1 143.35 142.3 Q144.55 142.3 145.1 141.0 L145.5 140.3 144.6 138.95 Q143.4 137.35 140.0 137.6 136.8 137.85 135.05 136.3 134.2 135.6 133.85 134.75 L132.8 134.85 M146.8 133.5 L146.8 133.45 146.15 131.35 Q145.65 130.4 144.4 129.3 143.1 128.15 142.4 128.15 137.65 128.15 136.05 129.6 L135.5 130.05 135.5 133.5 135.2 133.95 135.2 134.0 135.35 134.45 Q135.55 135.3 136.25 135.5 L140.3 135.9 142.9 135.95 Q143.75 135.95 145.1 137.2 L146.4 138.5 146.7 136.5 146.75 134.0 146.75 133.55 146.8 133.5 M125.25 133.05 L125.2 131.8 Q125.2 130.7 125.55 129.95 L124.65 129.9 123.9 130.2 123.25 130.05 123.15 129.9 117.25 130.5 117.05 132.7 117.0 133.05 116.9 133.9 116.85 134.5 116.8 135.1 117.85 134.7 118.15 134.7 121.3 134.95 122.45 134.85 123.65 134.65 124.25 133.85 125.0 134.45 125.55 134.35 125.25 133.05 M129.6 135.0 L127.75 135.2 127.05 135.45 126.65 135.7 125.1 136.1 124.65 137.15 Q124.65 138.1 124.8 138.8 L124.85 139.2 128.3 136.2 129.65 135.0 129.6 135.0 M127.15 139.75 L127.3 140.6 127.05 141.75 126.65 142.55 126.5 142.8 128.4 142.95 129.35 143.1 132.35 142.75 135.35 142.4 138.0 142.9 140.7 143.35 142.0 143.35 139.1 141.3 Q134.2 137.85 131.05 136.05 130.65 137.0 128.15 138.95 L127.15 139.75 M138.2 144.8 L135.5 144.25 129.25 144.5 129.3 144.95 129.75 145.85 129.95 148.0 129.95 148.2 130.5 150.2 130.9 150.8 130.95 150.8 Q131.45 151.55 132.3 152.1 134.0 153.3 137.85 154.65 L138.55 154.8 141.2 152.7 145.25 149.8 148.2 146.65 Q149.8 144.95 150.95 144.45 L139.75 144.95 138.2 144.8 M127.75 146.55 Q126.2 147.8 126.2 148.4 126.2 151.05 127.85 154.45 130.05 159.0 133.75 159.0 L135.15 158.9 138.6 158.55 138.85 157.25 137.8 156.8 136.4 156.35 136.15 156.35 Q135.6 156.35 134.45 155.55 L132.25 154.15 130.55 152.95 Q129.85 152.15 129.65 151.55 L128.6 148.35 128.05 146.5 128.05 146.4 127.75 146.55 M153.3 142.65 L153.25 142.6 152.95 142.4 151.75 141.45 151.65 141.35 148.15 138.65 148.1 138.65 148.05 138.8 147.35 140.7 Q147.05 141.6 146.15 142.6 L145.45 143.3 153.3 142.75 153.45 142.75 153.3 142.65 M158.0 139.25 L157.85 138.95 Q157.65 138.95 157.45 139.1 L157.3 139.35 157.2 139.5 156.9 139.8 156.85 139.85 156.8 139.85 155.85 140.7 Q155.55 141.3 155.5 142.15 L155.15 142.5 155.45 142.45 155.6 142.4 156.35 142.2 159.4 141.7 158.7 140.5 158.35 139.85 158.0 139.25 M154.0 144.15 L152.0 144.35 152.0 144.8 Q152.0 145.5 148.05 149.55 L148.05 149.65 147.7 152.25 Q147.3 154.6 147.25 155.6 L147.35 155.95 Q149.65 155.9 152.3 154.9 L155.0 153.65 158.7 151.6 158.4 150.35 Q158.25 149.3 158.35 147.95 158.55 146.7 158.4 145.0 L158.25 143.7 157.55 143.85 155.0 144.4 154.35 144.3 154.3 144.15 154.2 144.15 154.0 144.15 M111.55 124.35 L110.1 124.2 Q107.4 124.2 104.95 122.3 L104.6 122.0 104.15 125.85 103.7 129.15 103.9 129.35 103.6 129.55 103.6 129.7 103.6 129.75 107.7 128.95 110.7 129.3 111.1 129.3 114.6 129.9 Q115.4 130.05 115.15 129.6 L114.75 128.75 Q114.6 128.6 114.6 127.65 L114.75 125.1 115.25 124.85 114.75 124.85 114.65 124.85 112.4 124.5 111.55 124.35 M107.7 122.0 Q111.0 123.2 115.95 123.2 L117.2 122.95 117.95 122.5 113.25 118.05 107.7 113.4 105.7 116.45 Q104.4 118.6 104.4 119.1 104.4 120.85 107.7 122.0 M101.3 133.75 Q101.15 132.8 101.15 131.65 L101.3 130.9 101.05 130.95 100.7 130.65 96.7 132.55 94.5 133.25 90.45 134.6 Q91.2 135.3 92.45 135.5 L95.25 135.6 101.85 136.35 102.05 136.4 101.85 136.05 101.4 134.45 101.3 134.0 101.3 133.75 M115.6 131.55 L114.3 131.6 110.8 131.15 107.35 130.65 Q105.8 130.65 104.5 131.2 L102.9 131.7 102.75 132.3 Q102.75 137.35 107.15 137.35 114.7 137.35 115.7 134.0 116.0 132.95 115.6 131.6 L115.6 131.55 M149.75 157.8 L152.95 157.5 156.1 157.15 159.1 157.0 Q160.9 156.7 161.5 155.75 161.75 155.35 162.5 154.85 L160.9 153.4 160.05 152.7 Q159.1 153.55 156.55 155.0 153.1 156.95 149.7 157.5 L148.45 157.65 149.75 157.8" fill="#000000" fill-rule="evenodd" stroke="none"/>
    <path d="M163.65 76.85 Q163.85 76.95 163.85 77.5 163.85 78.05 162.85 78.75 L161.8 79.3 159.3 78.9 156.85 78.45 Q156.3 78.45 154.6 79.35 L152.85 80.2 151.25 79.9 149.65 79.5 Q148.7 79.5 148.55 78.6 L148.8 77.45 150.65 77.55 152.3 77.75 Q153.7 77.75 155.65 76.85 157.45 76.0 158.15 76.05 160.1 77.0 161.05 77.1 L163.45 76.8 163.65 76.85 M141.25 78.65 L141.45 78.6 141.6 79.2 Q141.6 79.8 139.45 80.5 L137.2 81.2 Q136.6 81.2 136.45 80.8 L136.25 80.2 Q135.55 81.1 134.65 81.1 134.0 81.1 133.65 80.5 133.3 79.95 132.5 79.95 132.0 79.95 131.7 80.25 131.3 80.65 130.8 80.7 L130.2 80.7 Q129.95 80.65 129.95 80.05 129.95 79.15 130.65 77.9 131.4 76.5 132.3 76.4 L134.05 76.55 Q135.5 76.85 135.85 78.25 L136.8 77.2 Q137.4 76.55 137.95 76.55 138.25 76.55 139.2 77.45 140.3 78.4 141.25 78.65" fill="#dfa802" fill-rule="evenodd" stroke="none"/>
    <path d="M127.35 88.55 L128.25 86.75 Q130.0 83.9 132.25 83.7 L132.1 88.55 132.15 89.0 132.25 89.1 Q132.85 87.95 134.0 86.5 135.35 84.7 136.15 84.25 137.3 85.35 137.25 86.95 L137.15 89.9 139.25 86.95 Q140.75 84.6 142.05 83.6 143.2 84.4 143.1 85.0 142.75 85.75 142.75 86.55 L142.8 87.25 142.85 87.4 142.95 87.5 143.2 87.35 143.35 86.65 Q143.35 85.7 144.9 83.95 146.5 82.05 147.8 81.85 148.75 82.3 148.75 83.4 L148.45 85.2 148.0 87.4 Q148.5 87.1 149.8 85.2 151.25 83.3 152.4 82.5 153.3 82.9 153.25 84.15 L153.2 86.25 153.25 86.4 Q154.45 85.6 155.5 83.85 156.6 82.05 157.85 81.1 158.7 81.45 158.85 82.75 159.0 83.85 158.7 84.6 L158.65 85.05 Q159.6 84.8 160.5 83.25 161.4 81.75 162.35 81.55 163.5 81.9 163.2 83.0 L162.7 84.75 162.75 84.9 164.55 83.2 166.85 81.25 Q167.7 81.6 167.65 82.35 L167.5 83.65 167.4 83.85 Q168.15 83.7 169.25 82.25 L171.0 80.35 170.9 81.2 170.95 81.95 167.45 85.8 166.6 86.65 166.0 86.95 166.15 87.1 165.5 87.7 165.35 87.7 Q165.15 87.75 165.1 87.95 164.7 88.1 164.6 88.45 L164.0 88.9 163.65 89.15 163.1 90.6 Q162.8 91.15 162.15 91.15 L161.15 91.0 161.05 89.9 Q161.05 89.3 162.3 87.8 L162.25 87.8 161.95 87.8 161.65 87.85 159.95 89.3 157.95 90.6 155.7 92.65 155.05 93.35 Q154.6 93.25 154.35 93.0 154.2 93.35 154.2 92.45 154.2 92.05 154.45 91.9 L154.4 91.5 155.1 90.35 155.1 90.3 155.05 89.9 155.1 89.55 154.9 89.55 153.3 89.7 Q152.6 95.5 151.7 96.55 151.1 96.05 150.35 94.1 L150.25 93.85 149.65 92.2 149.0 89.9 Q148.45 89.85 147.6 90.6 L147.9 91.35 147.5 92.65 147.2 93.7 Q146.9 94.35 146.9 94.8 L147.0 96.45 146.8 97.1 Q146.5 97.8 146.5 98.25 L146.5 99.05 146.4 99.35 146.15 99.2 142.85 90.7 142.5 90.65 Q142.15 90.7 142.15 91.25 L143.2 95.8 Q142.4 95.8 142.85 96.0 142.15 97.6 140.95 101.25 139.65 104.45 137.35 106.1 L137.25 104.2 Q137.15 102.85 136.25 102.55 L133.95 104.45 Q132.75 105.3 130.2 105.65 L130.1 105.4 130.8 103.6 131.4 102.5 Q131.4 101.0 130.2 101.0 130.1 101.0 129.05 101.75 127.95 102.5 124.3 102.7 L124.95 102.15 127.0 99.8 Q128.9 97.45 128.9 96.8 L128.65 96.05 128.05 95.85 126.25 96.75 126.15 96.65 Q126.7 96.15 127.1 93.5 L127.4 90.9 127.45 90.15 127.45 90.0 127.35 88.55 M130.45 87.85 L130.4 87.95 130.5 88.05 130.45 87.85" fill="#745701" fill-rule="evenodd" stroke="none"/>
    <path d="M178.0 99.95 Q179.3 100.6 180.8 102.55 181.95 104.15 183.35 109.35 184.7 114.6 184.7 117.7 L184.3 120.7 183.85 123.75 183.55 125.95 Q183.2 127.7 183.2 128.15 L182.95 130.8 Q182.6 133.9 181.7 136.5 179.6 142.5 175.5 144.1 168.3 139.9 168.3 135.7 L168.7 134.25 169.1 132.8 Q170.1 132.75 171.0 131.95 L172.9 129.45 Q173.75 128.0 173.75 127.2 173.75 125.8 173.3 124.65 L173.4 124.3 173.15 120.95 Q172.95 119.8 171.85 119.1 170.8 118.5 170.8 117.8 L171.15 115.5 171.5 113.2 Q171.5 109.05 174.85 104.2 L178.0 99.95 M169.3 117.15 L169.5 118.35 169.9 119.95 170.0 120.15 Q169.25 118.9 169.25 117.45 L169.3 117.15 M177.05 104.05 L175.85 104.35 175.9 105.35 176.1 107.75 175.05 108.15 174.9 108.15 Q174.35 108.3 174.3 108.75 L174.3 108.85 174.35 109.3 174.5 109.6 175.15 111.15 175.75 112.25 175.9 112.55 Q177.55 115.55 178.45 115.55 L179.15 114.85 180.0 113.95 181.45 112.3 Q181.45 109.55 180.1 106.75 178.85 104.05 177.05 104.05 M172.15 113.4 L171.85 113.75 Q171.85 114.4 172.1 114.55 L172.75 114.7 172.85 114.7 172.75 115.0 173.25 115.75 173.4 115.9 Q173.05 116.5 173.05 117.8 173.05 118.75 173.2 118.95 L174.15 119.1 174.3 119.1 174.35 119.1 175.55 118.55 Q176.4 118.0 176.4 117.4 176.4 116.15 175.0 115.55 L175.0 115.0 174.95 114.35 174.85 114.25 173.75 114.15 173.9 113.7 Q173.6 112.95 173.0 112.8 172.85 112.6 172.35 113.1 L172.15 113.4 M177.4 119.5 L177.0 119.95 Q175.1 122.95 175.1 123.2 175.1 124.1 176.1 125.05 177.15 126.05 178.45 126.05 L178.55 126.05 179.6 126.0 179.7 126.0 179.75 126.0 181.05 125.65 181.35 125.05 181.25 124.1 181.15 123.75 181.5 122.95 Q181.9 122.45 181.9 121.9 181.05 118.8 180.3 118.8 L178.05 119.1 177.4 119.5 M176.95 130.55 L175.35 132.3 174.9 132.9 Q173.75 134.4 173.75 134.65 L173.75 134.7 174.1 135.75 174.35 136.35 174.35 136.4 174.8 137.35 175.35 138.0 175.45 138.0 175.5 138.0 175.65 138.0 175.7 138.0 175.8 138.0 175.95 138.0 176.8 137.95 177.25 137.95 177.25 137.9 Q179.35 137.65 179.35 136.6 179.35 136.1 180.1 135.0 L180.8 133.6 Q180.8 127.25 177.3 130.2 L176.95 130.55 M117.0 133.05 L117.05 132.7 117.25 130.5 123.15 129.9 123.25 130.05 123.9 130.2 124.65 129.9 125.55 129.95 Q125.2 130.7 125.2 131.8 L125.25 133.05 123.7 132.65 122.05 132.3 117.8 132.85 117.0 133.05 M117.85 134.7 L116.8 135.1 116.85 134.5 117.85 134.7 M127.75 146.55 L128.05 146.5 128.6 148.35 129.65 151.55 Q129.85 152.15 130.55 152.95 L132.25 154.15 134.45 155.55 Q135.6 156.35 136.15 156.35 L136.4 156.35 137.8 156.8 138.85 157.25 138.6 158.55 135.15 158.9 133.75 159.0 Q130.05 159.0 127.85 154.45 126.2 151.05 126.2 148.4 126.2 147.8 127.75 146.55 M94.5 133.25 L96.7 132.55 100.7 130.65 101.05 130.95 101.3 130.9 101.15 131.65 Q101.15 132.8 101.3 133.75 L99.55 133.6 94.5 133.25 M149.7 157.5 Q153.1 156.95 156.55 155.0 159.1 153.55 160.05 152.7 L160.9 153.4 162.5 154.85 Q161.75 155.35 161.5 155.75 160.9 156.7 159.1 157.0 L156.1 157.15 152.95 157.5 149.75 157.8 149.7 157.5" fill="#663300" fill-rule="evenodd" stroke="none"/>
    <path d="M178.0 99.95 L174.85 104.2 Q171.5 109.05 171.5 113.2 L171.15 115.5 170.8 117.8 Q170.8 118.5 171.85 119.1 172.95 119.8 173.15 120.95 L173.4 124.3 173.3 124.65 Q172.75 123.2 171.5 122.0 L171.2 121.7 170.05 120.25 170.0 120.15 169.9 119.95 169.5 118.35 169.3 117.15 169.7 114.55 170.15 111.65 170.2 108.3 Q170.35 107.7 172.9 103.45 174.85 100.15 176.25 99.75 L176.5 99.7 177.25 99.7 178.0 99.95 M169.1 132.8 L168.7 134.25 168.3 135.7 Q168.3 139.9 175.5 144.1 L172.2 144.65 Q171.7 144.65 169.8 143.05 167.95 141.55 167.65 140.95 L166.85 138.6 166.45 135.95 Q166.45 134.8 166.85 134.0 167.55 132.45 168.5 132.7 L168.55 132.7 169.1 132.75 169.1 132.8 M117.0 133.05 L117.8 132.85 122.05 132.3 123.7 132.65 125.25 133.05 125.55 134.35 125.0 134.45 124.25 133.85 123.65 134.65 122.45 134.85 121.3 134.95 118.15 134.7 117.85 134.7 116.85 134.5 116.9 133.9 117.0 133.05 M101.3 133.75 L101.3 134.0 101.4 134.45 101.85 136.05 101.85 136.35 95.25 135.6 92.45 135.5 Q91.2 135.3 90.45 134.6 L94.5 133.25 99.55 133.6 101.3 133.75" fill="#330000" fill-rule="evenodd" stroke="none"/>
    <path d="M175.9 105.35 L175.85 104.35 177.05 104.05 177.8 104.7 178.15 105.75 176.8 107.55 176.1 106.1 175.9 105.35 M179.15 114.85 L178.45 115.55 Q177.55 115.55 175.9 112.55 L175.75 112.25 175.15 111.15 174.5 109.6 174.35 109.3 174.3 108.85 174.3 108.75 Q174.35 108.3 174.9 108.15 L175.05 108.15 177.8 111.45 Q179.25 113.4 179.15 114.85" fill="#990000" fill-rule="evenodd" stroke="none"/>
    <path d="M175.9 105.35 L176.1 106.1 176.8 107.55 178.15 105.75 177.8 104.7 177.05 104.05 Q178.85 104.05 180.1 106.75 181.45 109.55 181.45 112.3 L180.0 113.95 179.15 114.85 Q179.25 113.4 177.8 111.45 L175.05 108.15 176.1 107.75 175.9 105.35 M146.8 133.5 L146.75 133.55 146.75 134.0 146.7 136.5 146.4 138.5 145.1 137.2 Q143.75 135.95 142.9 135.95 L140.3 135.9 140.25 135.75 140.75 134.85 141.2 133.5 140.85 131.95 140.35 130.25 Q141.5 129.0 142.5 130.15 L143.9 132.1 144.4 131.5 Q144.7 131.2 145.25 131.2 146.25 131.2 146.8 133.5" fill="#ff0000" fill-rule="evenodd" stroke="none"/>
    <path d="M164.05 99.95 Q164.55 101.55 163.6 102.95 161.8 105.7 154.55 105.7 L147.6 104.0 146.65 103.15 145.2 102.25 143.9 101.5 142.95 101.15 144.05 98.55 Q145.35 102.15 146.7 102.15 147.6 102.15 147.45 101.95 L147.6 101.9 147.7 101.4 148.05 101.4 Q148.9 101.4 149.55 100.95 150.4 100.4 150.6 100.35 L155.65 99.0 161.5 97.85 164.4 97.1 164.05 99.95 M166.9 116.15 L167.0 116.75 167.65 117.1 Q167.65 121.55 169.95 122.7 L171.5 123.75 172.05 125.0 169.8 126.1 167.25 127.25 Q165.8 127.25 164.9 125.25 164.2 123.7 164.2 122.45 164.2 121.8 165.15 119.4 166.15 116.8 166.9 116.15 M115.6 131.55 L115.6 131.6 Q116.0 132.95 115.7 134.0 114.7 137.35 107.15 137.35 102.75 137.35 102.75 132.3 L102.9 131.7 104.5 131.2 Q105.8 130.65 107.35 130.65 L110.8 131.15 114.3 131.6 115.6 131.55" fill="#ffcc99" fill-rule="evenodd" stroke="none"/>
    <path d="M161.3 117.05 Q160.6 118.45 160.05 120.0 158.7 123.65 158.45 127.15 L158.1 134.1 157.4 136.6 157.15 137.1 156.9 137.65 Q156.05 137.8 155.05 138.75 153.9 139.85 153.85 140.6 L152.05 138.95 Q150.15 137.2 148.95 137.2 L148.55 137.2 148.85 136.05 148.8 134.85 148.85 134.85 149.0 134.15 Q149.0 133.55 148.4 132.25 L148.65 132.05 148.55 126.7 Q148.55 126.0 149.2 124.0 L149.85 121.2 Q149.85 120.35 149.5 119.8 L150.8 118.35 Q152.65 116.15 152.65 115.0 L152.7 114.65 Q156.0 114.4 157.6 113.2 158.6 112.4 158.6 111.65 L158.25 108.55 157.85 107.25 162.2 106.35 162.8 106.4 Q163.65 106.4 165.9 107.6 L168.3 108.75 168.5 108.8 Q168.2 110.15 168.2 111.5 L168.25 111.8 166.65 111.45 Q164.75 111.15 164.0 111.8 162.8 112.85 162.55 114.5 L162.4 115.15 162.35 115.2 162.1 115.65 162.05 115.7 161.8 115.85 Q161.3 116.2 161.3 116.75 L161.3 117.05 M167.0 114.55 L166.8 114.55 166.9 114.4 167.0 114.55 M164.0 116.8 L163.85 117.45 163.75 117.65 163.1 117.65 163.4 116.85 163.5 116.85 164.0 116.8 M128.9 103.5 L129.0 103.45 129.05 103.65 126.7 106.15 125.9 107.15 126.1 107.95 126.25 108.15 Q131.65 107.7 133.65 106.7 134.75 105.8 135.5 105.65 L135.45 105.85 135.55 105.95 135.6 106.65 135.35 107.55 Q135.25 108.55 135.9 109.4 L137.05 108.95 137.25 109.55 137.55 111.25 137.05 112.55 Q136.8 113.25 138.2 113.6 L142.9 113.95 145.4 114.25 146.35 116.9 Q147.05 118.8 147.7 119.7 L147.45 119.9 147.75 120.2 Q148.1 120.4 148.1 120.95 148.1 122.6 147.5 124.5 146.9 126.4 146.9 128.8 L146.95 129.65 Q146.3 128.6 145.75 128.3 142.1 125.65 137.7 126.9 136.15 127.3 134.95 128.15 L134.3 128.65 132.4 128.9 132.7 128.85 133.0 128.1 Q133.6 126.65 133.6 125.6 133.6 124.2 132.95 121.8 132.3 119.4 132.3 118.15 L131.65 115.7 Q130.85 113.35 130.25 113.35 L129.95 113.4 129.65 112.6 Q129.5 112.4 129.0 112.25 L126.55 113.95 126.25 113.95 126.25 114.15 120.95 117.3 Q119.25 118.5 118.1 119.8 L117.65 119.4 114.6 116.75 113.95 116.15 Q115.7 115.2 121.75 110.2 127.85 105.05 128.9 103.5 M132.8 134.85 L133.85 134.75 Q134.2 135.6 135.05 136.3 136.8 137.85 140.0 137.6 143.4 137.35 144.6 138.95 L145.5 140.3 145.1 141.0 Q144.55 142.3 143.35 142.3 L137.5 138.1 135.0 136.35 132.8 134.85" fill="#336600" fill-rule="evenodd" stroke="none"/>
    <path d="M168.25 111.8 L168.3 112.35 168.35 112.65 168.35 112.8 168.5 114.05 168.35 114.7 167.8 114.5 167.25 114.5 167.0 114.55 166.9 114.4 166.8 114.55 Q165.15 114.65 164.6 115.25 L164.0 116.8 163.5 116.85 163.4 116.85 164.75 113.75 Q164.75 113.15 164.55 113.1 L163.95 113.1 163.8 113.35 163.3 113.9 163.1 114.2 162.35 115.25 162.35 115.2 162.4 115.15 162.55 114.5 Q162.8 112.85 164.0 111.8 164.75 111.15 166.65 111.45 L168.25 111.8 M162.1 115.65 L161.8 116.2 161.3 117.05 161.3 116.75 Q161.3 116.2 161.8 115.85 L162.05 115.7 162.1 115.65 M128.9 103.5 Q127.85 105.05 121.75 110.2 115.7 115.2 113.95 116.15 L112.4 114.8 111.2 113.85 111.1 113.75 108.9 112.1 Q113.55 106.95 124.25 105.5 124.45 105.55 124.45 104.6 L124.45 104.55 128.9 103.5 M126.25 114.15 L126.25 113.95 126.55 113.95 126.25 114.15 M129.95 113.4 L130.25 113.35 Q130.85 113.35 131.65 115.7 L132.3 118.15 Q132.3 119.4 132.95 121.8 133.6 124.2 133.6 125.6 133.6 126.65 133.0 128.1 L132.7 128.85 132.4 128.9 130.25 129.05 130.05 129.05 129.9 129.1 129.65 129.1 129.35 129.15 129.05 128.6 125.1 128.25 124.85 128.25 124.95 126.65 125.1 124.2 Q124.85 121.45 124.9 120.3 124.95 119.55 125.35 118.0 L125.65 116.75 127.95 115.35 Q129.95 114.15 129.95 113.5 L129.95 113.4 M129.6 135.0 L129.65 135.0 128.3 136.2 124.85 139.2 124.8 138.8 Q124.65 138.1 124.65 137.15 L125.1 136.1 126.65 135.7 127.05 135.45 127.75 135.2 129.6 135.0" fill="#244800" fill-rule="evenodd" stroke="none"/>
    <path d="M174.35 119.1 L174.3 119.1 174.15 119.1 173.2 118.95 Q173.05 118.75 173.05 117.8 173.05 116.5 173.4 115.9 L173.25 115.75 172.75 115.0 172.85 114.7 172.75 114.7 172.1 114.55 Q171.85 114.4 171.85 113.75 L172.15 113.4 Q172.75 113.55 173.25 114.7 174.45 117.5 175.75 118.15 L174.35 119.1 M152.6 106.95 Q152.45 107.25 152.45 107.6 L151.55 112.55 151.3 113.55 151.25 113.7 Q150.5 116.05 148.85 117.75 L146.95 114.0 146.8 113.6 146.8 113.4 146.5 112.85 Q145.95 111.2 145.95 109.85 145.7 108.05 143.95 105.8 142.65 104.2 141.55 103.65 L142.35 102.3 144.45 104.05 146.9 105.35 146.9 105.4 Q147.9 105.95 152.6 106.95 M127.15 139.75 L128.15 138.95 Q130.65 137.0 131.05 136.05 134.2 137.85 139.1 141.3 L142.0 143.35 140.7 143.35 138.0 142.9 135.35 142.4 132.35 142.75 129.35 143.1 128.4 142.95 126.5 142.8 126.65 142.55 127.05 141.75 127.3 140.6 127.15 139.75 M153.3 142.75 L153.3 142.65 153.45 142.75 153.3 142.75 M157.3 139.35 L157.45 139.1 Q157.65 138.95 157.85 138.95 L158.0 139.25 157.8 139.2 157.35 139.3 157.3 139.35 M110.7 129.3 L107.7 128.95 103.6 129.75 103.6 129.7 103.6 129.55 103.9 129.35 103.7 129.15 104.15 125.85 104.6 122.0 104.95 122.3 Q107.4 124.2 110.1 124.2 L111.55 124.35 111.25 124.5 110.75 124.9 110.55 125.45 110.3 126.1 Q110.0 126.55 110.0 127.0 110.0 128.3 110.7 129.3" fill="#cccccc" fill-rule="evenodd" stroke="none"/>
    <path d="M174.35 119.1 L175.75 118.15 Q174.45 117.5 173.25 114.7 172.75 113.55 172.15 113.4 L172.35 113.1 Q172.85 112.6 173.0 112.8 173.6 112.95 173.9 113.7 L173.75 114.15 174.85 114.25 174.95 114.35 175.0 115.0 175.0 115.55 Q176.4 116.15 176.4 117.4 176.4 118.0 175.55 118.55 L174.35 119.1 M156.85 95.25 L156.45 95.0 156.35 94.7 156.25 93.95 Q156.25 92.95 156.9 92.55 L158.4 93.55 158.85 93.8 158.5 94.8 Q158.1 95.35 157.55 95.35 L156.85 95.25 M148.15 138.65 L151.65 141.35 151.75 141.45 152.95 142.4 153.25 142.6 153.3 142.65 153.3 142.75 145.45 143.3 146.15 142.6 Q147.05 141.6 147.35 140.7 L148.05 138.8 148.15 138.65 M157.3 139.35 L157.35 139.3 157.8 139.2 158.0 139.25 158.35 139.85 158.7 140.5 159.4 141.7 156.35 142.2 155.6 142.4 155.5 142.15 Q155.55 141.3 155.85 140.7 L156.8 139.85 156.85 139.85 156.9 139.8 157.2 139.5 157.3 139.35 M110.7 129.3 Q110.0 128.3 110.0 127.0 110.0 126.55 110.3 126.1 L110.55 125.45 110.75 124.9 111.25 124.5 111.55 124.35 112.4 124.5 114.65 124.85 114.75 124.85 114.75 125.1 114.6 127.65 Q114.6 128.6 114.75 128.75 L115.15 129.6 Q115.4 130.05 114.6 129.9 L111.1 129.3 110.7 129.3" fill="#ffffff" fill-rule="evenodd" stroke="none"/>
    <path d="M179.75 126.0 L179.7 126.0 179.6 126.0 178.55 126.05 178.45 126.05 Q177.15 126.05 176.1 125.05 175.1 124.1 175.1 123.2 175.1 122.95 177.0 119.95 L177.4 119.5 178.05 119.55 178.25 120.2 178.35 121.15 Q178.35 121.65 178.0 121.8 177.6 122.0 177.6 122.45 L178.8 123.75 Q179.95 125.1 179.95 125.8 L179.95 125.95 179.75 126.0" fill="#ff9900" fill-rule="evenodd" stroke="none"/>
    <path d="M177.4 119.5 L178.05 119.1 180.3 118.8 Q181.05 118.8 181.9 121.9 181.9 122.45 181.5 122.95 L181.15 123.75 181.25 124.1 181.35 125.05 181.05 125.65 179.75 126.0 179.95 125.95 179.95 125.8 Q179.95 125.1 178.8 123.75 L177.6 122.45 Q177.6 122.0 178.0 121.8 178.35 121.65 178.35 121.15 L178.25 120.2 178.05 119.55 177.4 119.5" fill="#ffcc00" fill-rule="evenodd" stroke="none"/>
    <path d="M174.35 136.35 L174.1 135.75 173.75 134.7 173.75 134.65 Q173.75 134.4 174.9 132.9 L175.35 132.3 176.95 130.55 177.25 130.25 177.8 130.05 178.15 130.5 178.35 131.35 177.25 133.45 Q176.15 135.3 176.15 135.6 176.15 136.0 176.7 136.75 L177.25 137.9 177.25 137.95 176.8 137.95 175.95 138.0 175.8 138.0 175.7 138.0 175.65 138.0 175.5 138.0 175.45 138.0 175.35 138.0 174.8 137.35 174.65 136.75 174.35 136.35" fill="#000066" fill-rule="evenodd" stroke="none"/>
    <path d="M174.35 136.35 L174.65 136.75 174.8 137.35 174.35 136.4 174.35 136.35 M177.25 137.9 L176.7 136.75 Q176.15 136.0 176.15 135.6 176.15 135.3 177.25 133.45 L178.35 131.35 178.15 130.5 177.8 130.05 177.25 130.25 176.95 130.55 177.3 130.2 Q180.8 127.25 180.8 133.6 L180.1 135.0 Q179.35 136.1 179.35 136.6 179.35 137.65 177.25 137.9" fill="#003399" fill-rule="evenodd" stroke="none"/>
    <path d="M153.85 109.4 L154.25 107.35 154.35 107.35 156.5 107.3 156.5 107.75 156.8 109.6 Q156.95 112.35 154.1 112.95 L153.15 113.05 153.4 111.7 153.85 109.4 M144.85 112.1 L145.0 112.65 143.35 112.5 139.95 111.8 Q138.6 112.0 138.4 108.55 L138.4 107.85 140.7 104.9 142.15 107.05 Q144.35 110.2 144.85 112.1 M107.7 122.0 Q104.4 120.85 104.4 119.1 104.4 118.6 105.7 116.45 L107.7 113.4 113.25 118.05 117.95 122.5 117.2 122.95 115.95 123.2 Q111.0 123.2 107.7 122.0" fill="#339900" fill-rule="evenodd" stroke="none"/>
    <path d="M133.65 130.35 Q133.4 131.65 133.45 132.35 L133.65 133.15 133.6 133.25 127.45 133.65 127.1 133.7 Q126.7 132.9 126.85 131.65 L126.95 130.95 133.65 130.35 M130.95 150.8 L131.1 150.8 Q132.15 150.8 136.05 147.0 L138.2 144.8 139.75 144.95 150.95 144.45 Q149.8 144.95 148.2 146.65 L145.25 149.8 141.2 152.7 138.55 154.8 137.85 154.65 Q134.0 153.3 132.3 152.1 131.45 151.55 130.95 150.8 M154.0 144.15 L154.2 144.15 154.3 144.15 154.35 144.3 155.0 144.4 157.55 143.85 158.25 143.7 158.4 145.0 Q158.55 146.7 158.35 147.95 158.25 149.3 158.4 150.35 L158.7 151.6 155.0 153.65 152.3 154.9 152.55 153.0 Q152.55 151.25 153.3 147.75 L154.0 144.4 154.0 144.15" fill="#666666" fill-rule="evenodd" stroke="none"/>
    <path d="M140.3 135.9 L136.25 135.5 Q135.55 135.3 135.35 134.45 L135.2 134.0 135.2 133.95 135.5 133.5 135.5 130.05 136.05 129.6 Q137.65 128.15 142.4 128.15 143.1 128.15 144.4 129.3 145.65 130.4 146.15 131.35 L146.8 133.45 146.8 133.5 Q146.25 131.2 145.25 131.2 144.7 131.2 144.4 131.5 L143.9 132.1 142.5 130.15 Q141.5 129.0 140.35 130.25 L140.85 131.95 141.2 133.5 140.75 134.85 140.25 135.75 140.3 135.9" fill="#b75b00" fill-rule="evenodd" stroke="none"/>
    <path d="M130.95 150.8 L130.9 150.8 130.5 150.2 129.95 148.2 129.95 148.0 129.75 145.85 129.3 144.95 129.25 144.5 135.5 144.25 138.2 144.8 136.05 147.0 Q132.15 150.8 131.1 150.8 L130.95 150.8 M152.3 154.9 Q149.65 155.9 147.35 155.95 L147.25 155.6 Q147.3 154.6 147.7 152.25 L148.05 149.65 148.05 149.55 Q152.0 145.5 152.0 144.8 L152.0 144.35 154.0 144.15 154.0 144.4 153.3 147.75 Q152.55 151.25 152.55 153.0 L152.3 154.9" fill="#333333" fill-rule="evenodd" stroke="none"/>
    <path d="M83.25 84.8 L82.65 85.9 82.05 87.25 Q83.75 87.0 87.6 89.4 93.0 92.75 93.0 94.6 93.0 95.2 92.6 95.6 L90.75 95.7 92.8 98.45 Q93.3 99.35 93.3 101.0 L93.25 101.95 92.95 102.15 Q92.95 103.5 89.8 103.4 L89.1 103.35 89.25 104.0 88.65 111.45 87.85 115.0 Q87.0 118.45 87.0 119.05 87.0 121.1 86.15 122.85 L87.3 123.25 89.5 124.4 88.9 121.85 Q88.9 120.9 89.7 120.9 L90.15 120.95 Q90.3 119.75 91.5 119.7 L98.45 119.95 102.4 119.65 106.55 119.25 Q107.4 118.9 107.85 119.8 L108.3 122.35 108.85 126.95 Q109.1 130.05 109.6 132.2 109.9 133.45 109.9 136.1 L109.9 136.2 Q111.3 136.1 112.35 138.0 115.15 143.35 115.15 147.7 115.15 148.55 113.7 150.2 112.15 151.85 110.55 152.15 111.25 154.4 111.55 157.2 L112.1 163.95 112.3 163.95 112.05 165.5 106.15 167.2 Q100.25 168.6 95.75 168.6 95.2 168.6 94.95 168.25 L94.75 168.25 Q92.85 168.25 92.15 158.5 L91.85 148.35 90.4 142.85 90.2 142.9 89.45 142.55 88.95 142.4 89.5 149.45 89.05 153.15 88.4 157.25 88.3 159.2 Q88.2 160.25 87.8 160.7 L87.0 161.55 84.75 161.7 84.7 161.7 82.5 162.35 Q83.6 165.05 83.6 170.2 83.55 173.8 85.85 174.85 L87.45 175.8 Q88.1 176.45 88.2 177.75 L88.35 177.75 88.6 178.45 Q88.6 179.4 86.7 180.35 84.25 181.55 80.3 181.8 L74.3 182.35 70.9 182.8 Q68.9 182.8 67.95 181.6 67.15 180.7 67.15 179.35 67.15 178.25 67.8 177.0 68.4 175.85 68.3 174.15 L68.05 171.7 68.0 171.15 66.0 173.55 Q60.55 179.8 57.2 180.65 L56.7 180.5 56.55 180.65 57.1 181.45 57.4 182.55 Q57.4 184.25 56.4 184.8 L51.9 185.3 Q48.55 185.3 45.65 181.5 43.2 178.25 43.2 176.25 L42.8 173.5 42.35 170.75 Q42.35 168.6 43.6 168.0 L47.75 166.95 48.85 164.25 46.85 163.0 Q43.4 161.65 42.85 161.1 42.35 160.6 42.35 158.65 L43.6 153.35 45.2 146.6 45.6 143.55 Q45.8 141.7 46.2 140.65 L46.5 137.5 44.6 137.55 43.05 137.25 41.25 136.75 35.65 135.4 Q33.5 135.05 31.75 133.5 L31.4 134.2 Q28.05 143.05 28.05 148.35 L29.25 151.35 30.55 154.65 Q30.55 155.65 29.8 156.0 L27.05 157.3 Q26.45 156.5 26.15 155.1 25.75 153.75 25.75 152.65 25.75 152.1 26.2 151.3 L26.6 150.05 26.5 149.05 26.3 147.8 Q26.3 141.2 30.1 131.9 L28.25 129.6 26.25 126.35 24.2 122.95 22.7 121.35 Q21.8 120.3 21.65 119.6 L21.3 118.0 20.9 116.35 21.0 116.1 Q19.7 115.5 18.85 113.35 18.15 111.4 18.15 109.85 L18.3 108.85 17.35 108.95 17.05 108.95 15.9 108.7 16.05 108.55 Q15.55 108.05 15.35 107.1 L15.15 105.3 22.75 92.35 Q30.3 79.6 30.3 74.6 30.3 73.25 30.1 72.8 29.7 71.75 28.2 71.75 24.2 71.75 21.0 74.05 L15.9 78.15 Q13.1 79.8 10.95 82.0 9.0 83.95 8.6 85.55 12.65 92.6 12.65 97.35 12.65 99.05 10.3 102.1 8.05 104.95 5.3 105.65 L5.35 105.85 4.05 105.95 3.3 106.1 3.25 105.95 Q0.25 105.9 -1.0 101.0 -1.6 98.45 -1.6 95.65 -1.6 92.15 0.8 88.2 3.3 83.95 6.75 84.55 7.15 83.15 10.65 79.8 14.8 76.0 19.4 73.2 24.8 69.9 28.05 69.85 32.0 69.85 32.0 74.8 32.0 81.15 24.4 93.3 L19.2 101.3 Q16.85 105.0 16.85 105.95 L17.25 106.8 17.4 106.55 17.6 106.6 18.2 106.8 19.05 106.95 19.75 106.95 20.3 106.5 Q22.45 104.85 25.15 104.25 28.1 103.65 30.1 104.85 31.7 105.8 32.25 107.85 L33.2 108.3 Q35.2 109.55 36.45 111.6 37.35 113.15 37.7 114.45 L38.0 117.45 38.0 117.9 Q42.85 120.8 44.0 120.8 L48.4 119.95 50.8 119.3 49.55 107.7 48.5 98.15 Q48.5 94.9 48.75 94.35 49.1 93.5 52.6 89.65 53.0 89.15 55.75 87.8 L58.9 86.2 Q62.8 83.4 64.3 83.8 64.85 84.55 64.45 85.65 L64.35 86.05 69.2 85.1 74.6 84.2 Q75.0 85.0 74.55 85.9 74.45 86.0 74.3 86.05 75.45 86.05 78.0 85.1 80.6 84.15 82.9 84.1 L83.1 84.1 83.25 84.8 M90.1 97.8 L90.05 97.75 89.75 97.4 89.0 96.6 88.9 96.5 88.6 96.15 87.05 94.4 87.95 93.55 89.95 93.4 87.9 92.25 85.1 90.3 82.95 89.5 82.25 89.2 82.05 89.2 81.0 89.05 79.35 88.9 79.2 88.85 79.0 88.05 Q79.0 87.7 80.5 86.2 L80.4 86.0 80.35 86.05 Q79.4 87.15 78.3 87.45 76.25 88.25 71.3 88.25 70.4 88.25 70.4 87.55 L70.75 86.65 66.05 87.45 62.75 88.3 Q61.8 87.85 61.75 87.55 61.75 87.35 62.1 86.65 L62.2 86.45 62.1 86.55 62.05 86.6 Q54.85 90.3 52.65 92.5 50.25 94.85 50.25 98.3 L50.65 102.05 50.65 102.1 50.75 103.1 50.9 104.2 50.95 104.45 51.0 105.1 Q51.75 110.9 51.75 112.95 L52.4 118.05 52.45 118.35 52.55 118.35 55.7 117.45 Q55.3 116.3 55.3 114.95 55.3 113.05 56.2 111.3 57.6 108.65 60.45 108.65 L61.25 109.1 61.6 109.3 Q62.35 109.45 63.05 110.0 L63.7 110.85 Q64.45 111.1 64.85 114.1 L65.05 117.8 65.05 117.95 67.6 118.2 Q67.85 118.85 67.85 117.9 67.85 115.45 67.25 113.75 66.7 112.1 66.7 109.35 66.7 107.6 67.4 105.8 67.85 104.4 68.65 103.75 L70.4 105.45 Q71.55 106.45 73.15 106.45 L73.2 106.45 74.0 106.35 74.15 106.1 74.25 105.95 74.3 105.4 Q74.3 104.5 73.3 103.25 L73.0 102.85 72.65 101.8 73.0 101.3 73.05 101.3 73.1 101.3 73.15 101.2 75.35 102.75 76.95 103.55 77.0 103.6 77.7 103.85 78.25 104.0 78.4 104.0 Q79.05 104.0 79.1 103.7 L79.15 103.5 79.1 103.1 78.2 100.65 78.1 100.45 79.1 100.4 79.75 100.6 81.3 102.4 Q83.1 104.0 84.1 104.0 L84.3 104.0 84.85 103.6 Q85.2 103.15 85.2 102.5 85.1 100.7 84.6 99.95 L84.75 100.0 Q85.1 100.15 85.8 100.65 86.85 101.5 87.25 101.5 L88.05 101.55 88.3 101.25 88.45 101.55 90.0 101.55 90.0 101.6 90.7 101.55 91.45 101.55 91.65 101.55 91.25 100.65 90.8 99.1 90.5 98.3 90.1 97.8 M7.25 86.8 L7.0 86.3 Q4.15 84.9 1.95 89.7 0.1 93.55 0.1 96.1 L1.1 94.9 Q3.3 92.6 5.9 92.6 8.1 92.6 8.9 96.7 L9.25 100.05 9.85 99.05 Q10.9 97.45 10.9 96.6 10.9 94.25 9.7 92.1 8.1 89.05 7.25 86.8 M4.75 95.7 L4.35 97.3 4.6 101.0 4.95 103.85 Q6.4 103.5 7.55 102.55 L8.3 101.8 Q7.45 100.7 7.25 97.55 7.05 94.3 5.8 94.3 L4.55 94.45 Q4.85 95.05 4.75 95.7 M2.55 95.7 Q2.2 96.1 2.0 96.65 1.4 97.85 1.1 99.9 1.0 99.9 0.95 100.0 1.8 103.3 3.0 103.9 L2.9 103.05 Q2.7 102.1 2.7 98.85 L2.8 95.95 2.9 95.25 2.55 95.7 M74.7 111.2 Q75.15 111.9 75.9 111.9 L78.05 111.45 78.25 110.75 76.9 109.55 76.3 108.95 Q75.65 109.1 75.15 109.35 74.45 109.75 74.45 110.45 L74.7 111.2 M69.65 118.0 L69.7 118.65 Q69.7 119.4 69.3 119.65 L66.55 119.9 63.65 119.7 63.25 115.95 62.6 112.5 Q62.05 112.2 61.4 111.2 L61.2 110.95 60.8 111.0 Q60.45 110.9 59.85 110.45 58.25 110.45 57.5 113.1 57.15 114.45 57.1 115.8 57.1 117.4 58.1 118.0 59.25 118.7 62.0 118.45 L62.45 119.15 62.25 119.45 65.75 122.65 65.8 122.7 66.55 123.45 69.6 124.8 Q73.25 126.6 75.75 126.6 L76.65 126.55 76.55 126.35 Q76.1 125.65 76.2 125.35 76.45 124.65 77.3 124.8 77.6 124.85 77.9 125.05 L78.15 125.85 Q78.5 126.7 79.2 126.95 L79.25 127.0 79.65 127.1 80.3 127.5 81.4 127.8 82.0 127.45 82.65 127.6 Q84.1 127.6 84.1 125.6 L84.1 125.4 84.1 125.3 83.95 124.6 83.9 124.6 83.8 124.6 83.05 123.95 82.05 124.85 81.05 125.2 81.35 124.95 82.25 123.95 Q82.25 123.3 82.05 123.25 L81.85 123.25 81.75 123.25 Q82.0 122.65 82.8 122.75 L83.5 123.0 83.95 122.45 Q85.4 120.3 85.15 117.8 85.15 116.55 85.85 114.15 L85.9 113.9 85.95 113.75 85.65 113.8 76.35 115.55 Q72.25 116.55 69.8 117.95 L69.65 117.9 69.65 118.0 M50.45 121.6 L52.7 122.2 Q58.65 123.8 58.65 125.25 L58.6 126.0 58.4 126.35 58.45 126.5 57.8 126.7 55.35 125.45 Q52.75 124.2 52.0 124.1 L47.45 123.15 46.5 122.6 45.85 122.65 Q41.6 122.65 37.55 119.95 L36.35 122.65 34.8 125.8 34.7 126.0 32.55 131.55 34.6 132.9 Q39.55 135.35 49.7 135.35 50.35 135.35 50.7 136.1 L51.15 136.95 50.95 137.5 Q50.65 137.85 50.0 137.85 L49.05 137.55 48.55 137.5 48.25 139.7 47.8 142.7 47.4 145.2 46.95 147.7 45.55 153.55 44.1 159.15 Q44.1 159.85 48.6 161.95 L49.4 162.3 Q53.8 164.25 56.65 164.25 L57.0 164.3 Q59.05 158.65 61.15 157.1 L61.1 156.5 Q61.1 154.4 61.8 151.45 L62.8 146.05 Q63.2 143.05 62.9 140.6 62.55 137.2 62.55 135.9 62.2 134.3 62.25 132.95 62.25 132.1 62.5 131.55 L62.45 131.45 Q62.45 129.65 63.7 128.7 L64.95 127.8 63.55 125.4 61.8 122.95 Q60.7 121.55 59.25 121.4 L53.8 120.85 53.4 120.45 Q53.35 120.75 53.35 120.35 L52.15 120.7 50.5 121.4 50.15 121.55 50.4 121.6 50.45 121.6 M90.05 130.65 L90.1 129.05 Q90.25 127.6 89.85 126.0 L89.0 126.15 Q87.25 126.15 85.4 124.85 L84.9 124.4 84.75 124.6 85.0 126.5 84.45 127.8 Q83.7 128.7 82.65 128.9 L81.8 128.6 81.0 128.55 80.5 128.95 79.5 129.2 Q78.7 129.2 77.85 128.1 L76.25 128.4 Q78.6 132.25 79.1 139.25 L79.1 152.4 79.35 156.0 79.6 160.9 79.65 161.2 80.75 161.1 Q81.4 160.6 82.95 160.1 85.1 159.45 86.15 159.45 L86.85 158.75 87.1 157.1 87.1 155.35 87.6 151.9 87.8 149.1 87.2 139.9 Q87.1 138.1 86.35 135.3 85.55 132.35 85.35 130.45 L85.85 130.3 86.5 130.05 Q87.0 130.45 87.3 131.0 L87.5 131.45 87.8 132.2 87.8 132.25 88.3 134.7 Q88.7 136.3 88.85 139.6 L88.9 140.85 88.9 141.7 89.0 141.6 89.15 141.35 Q89.4 141.15 89.6 141.05 L90.3 141.9 90.35 139.15 90.5 136.6 90.2 133.35 90.05 130.65 M76.9 136.35 L76.8 135.6 75.55 131.7 Q74.45 128.9 74.45 128.55 L74.55 128.25 73.05 127.95 72.2 128.5 69.4 129.05 66.75 128.75 Q66.15 129.75 64.35 131.15 L64.55 137.4 64.65 139.25 64.75 141.25 64.8 141.3 64.8 141.35 64.75 141.35 64.85 142.2 64.85 142.75 64.85 143.0 64.0 150.15 63.1 155.55 62.85 156.7 62.75 156.95 62.8 157.25 63.4 157.55 Q69.05 157.55 73.65 156.3 L78.0 154.95 78.0 154.55 77.9 152.8 77.85 152.2 77.3 144.55 77.15 143.3 77.15 142.9 77.1 141.8 77.0 139.45 76.9 136.35 M65.3 123.95 Q66.55 125.75 66.9 126.95 L69.15 127.4 70.8 127.2 69.1 126.4 Q66.0 124.9 65.45 123.8 L65.4 123.8 65.3 123.95 M21.8 107.75 Q19.9 109.3 19.9 110.8 19.9 112.45 21.1 113.65 L22.6 114.8 25.45 112.95 Q29.25 110.65 30.85 110.1 30.4 109.45 30.05 108.0 29.5 105.8 28.05 105.8 24.2 105.8 21.8 107.75 M33.1 125.25 L34.7 121.8 35.95 118.75 35.65 118.5 Q31.8 115.2 31.1 111.95 L28.0 114.15 25.95 115.35 Q23.85 116.5 22.9 116.6 23.7 118.75 26.05 122.85 L29.25 127.85 30.9 130.05 31.3 129.1 31.8 128.1 33.1 125.25 M36.25 116.8 Q36.15 114.6 35.15 112.8 34.3 111.35 32.95 110.3 33.15 112.2 33.5 113.25 34.2 115.35 35.95 116.6 36.1 116.65 36.25 116.8 M76.2 157.5 L76.0 157.55 74.85 157.9 Q69.9 159.45 63.2 159.45 L63.1 159.45 62.45 159.35 61.95 159.2 60.15 162.0 59.85 163.1 59.8 163.15 59.75 163.65 59.6 164.2 59.55 164.3 59.15 165.3 59.15 165.5 58.3 166.0 58.3 166.05 58.1 166.15 58.05 166.15 57.8 166.15 56.85 166.3 Q53.55 166.3 50.5 165.0 50.45 166.05 49.25 167.6 L48.8 168.25 48.35 168.95 48.25 168.9 48.3 168.95 Q49.15 170.9 49.6 174.45 L50.05 176.55 Q50.4 177.5 50.95 178.15 L51.1 178.3 Q51.35 178.6 51.75 178.75 L56.55 178.55 57.2 178.6 59.55 176.85 62.6 174.4 62.75 174.3 64.5 172.4 66.5 169.5 67.7 167.6 Q69.75 164.5 70.55 163.55 L71.25 163.55 71.45 163.95 71.45 164.25 Q71.45 165.3 70.8 166.75 L68.95 169.8 Q69.3 170.5 69.65 171.95 70.25 174.45 70.25 175.45 L69.9 176.85 70.2 177.05 73.45 176.9 74.7 176.75 Q77.1 176.3 79.0 175.35 L82.25 173.55 82.05 172.05 81.5 166.55 81.05 162.9 78.65 163.05 Q77.75 163.05 77.9 160.8 L78.15 158.25 78.1 157.0 78.1 156.6 77.15 157.1 76.2 157.5 M47.6 173.9 Q46.85 171.4 46.8 169.15 L46.7 169.15 Q44.15 169.8 44.15 170.95 44.15 173.2 44.65 175.3 L45.4 177.5 45.55 178.1 46.5 180.05 47.6 181.4 Q49.55 183.5 52.6 183.5 55.55 183.5 55.9 182.35 L55.6 180.9 53.5 181.0 Q51.75 181.0 50.4 179.75 49.65 179.05 49.05 177.95 48.55 177.05 48.2 175.95 L47.95 175.2 47.9 175.0 47.8 174.75 47.6 173.9 M76.85 180.35 L79.35 180.15 79.7 180.1 Q85.7 179.75 86.35 178.75 L86.45 178.45 Q85.1 176.75 83.2 175.4 L82.7 174.9 Q81.9 175.55 80.15 176.45 79.75 176.65 79.3 176.9 L77.9 177.5 74.95 178.3 72.5 178.65 72.5 178.7 70.05 178.75 69.3 178.6 68.95 179.7 Q68.95 180.4 69.6 180.7 L71.25 180.95 72.6 180.85 72.95 180.8 74.15 180.65 74.2 180.65 76.8 180.35 76.85 180.35 M108.85 152.8 Q108.85 153.9 108.15 154.35 106.45 155.35 100.65 155.35 L99.0 155.1 96.6 154.65 94.45 138.8 92.75 126.4 Q92.75 125.75 93.35 125.35 L93.95 125.1 Q93.65 124.75 93.65 124.15 93.65 123.55 97.3 123.15 L103.8 122.85 Q104.85 122.85 105.2 123.15 L105.6 123.85 104.95 124.5 Q105.65 125.7 106.0 127.4 L106.6 131.65 107.25 137.7 107.05 137.95 107.7 137.3 107.7 137.35 108.15 135.65 107.8 132.75 107.45 129.85 106.65 124.9 105.8 120.85 Q103.5 121.75 100.4 121.75 L92.9 121.35 Q92.15 121.35 91.8 121.85 L91.15 122.55 91.4 123.5 91.85 124.95 92.0 127.95 91.95 131.15 91.6 137.2 Q91.35 140.85 92.05 143.1 93.65 148.55 93.85 155.3 L93.85 158.3 Q93.9 160.1 94.1 161.4 L94.9 164.4 95.55 167.15 95.55 167.3 95.6 167.3 105.2 165.3 110.55 164.3 110.1 162.3 109.8 158.2 109.1 152.75 109.05 152.15 108.75 152.1 108.85 152.8 M94.95 131.35 L95.1 132.55 96.35 140.9 96.4 141.15 97.1 144.45 97.55 148.05 Q97.65 151.05 98.3 152.2 98.75 153.0 99.6 153.4 L99.75 153.45 100.0 153.5 100.6 153.55 101.0 153.55 102.95 153.45 103.5 153.4 104.8 153.2 Q107.0 152.75 107.0 152.4 L107.25 151.8 107.45 151.55 Q105.0 149.8 104.95 144.15 L106.5 143.4 104.95 143.6 Q105.0 141.7 105.65 140.2 L105.4 139.35 105.35 136.95 105.05 134.1 105.8 133.7 105.15 133.5 105.0 133.5 104.95 133.0 104.3 129.35 104.25 129.15 104.15 128.7 103.55 125.15 103.55 124.75 103.5 124.75 101.15 124.85 100.3 124.9 99.05 125.05 94.8 125.45 94.7 125.85 94.45 127.15 94.95 131.35 M107.2 140.6 Q106.6 142.15 106.6 143.95 106.6 145.75 107.35 147.8 108.3 150.35 109.85 150.35 110.85 150.35 112.15 149.05 113.45 147.85 113.45 147.35 113.45 144.9 112.65 143.2 L110.5 138.6 Q108.2 137.95 107.2 140.6 M104.6 161.75 L105.05 161.95 105.15 161.6 107.65 160.9 Q107.25 160.25 107.1 159.4 L108.65 158.5 108.95 159.4 Q109.45 160.7 109.45 162.15 L109.0 162.7 Q108.4 163.1 107.2 163.15 105.95 163.2 104.3 163.8 L99.55 165.25 99.05 164.85 99.0 164.9 98.2 165.0 Q97.15 165.0 96.6 162.0 L96.25 158.85 Q96.25 158.25 96.6 158.2 L96.6 158.05 Q96.6 157.0 100.7 156.7 L107.35 156.15 108.3 156.85 107.85 157.25 108.55 158.45 107.9 158.25 107.4 158.2 106.9 158.5 106.85 157.8 102.8 158.5 97.8 159.25 Q98.2 160.1 98.2 161.0 98.2 161.55 99.1 163.45 L101.25 162.7 104.6 161.75" fill="#000000" fill-rule="evenodd" stroke="none"/>
    <path d="M80.5 86.2 Q79.0 87.7 79.0 88.05 L79.2 88.85 79.35 88.9 81.0 89.05 82.05 89.2 82.25 89.2 82.95 89.5 85.1 90.3 87.9 92.25 89.95 93.4 87.95 93.55 87.05 94.4 88.6 96.15 88.9 96.5 89.0 96.6 89.75 97.4 90.05 97.75 90.1 97.8 89.85 97.85 89.95 97.85 90.2 98.15 90.8 99.1 91.25 100.65 91.65 101.55 91.45 101.55 90.7 101.55 90.0 101.6 90.0 101.55 88.6 100.05 87.35 98.4 87.25 98.4 Q86.9 98.4 86.0 97.8 L84.8 97.1 Q83.75 97.3 83.5 97.75 L84.2 98.85 84.7 99.9 84.6 99.95 Q85.1 100.7 85.2 102.5 85.2 103.15 84.85 103.6 L84.3 104.0 84.2 103.95 Q83.2 103.3 82.4 101.5 L81.6 99.25 Q80.65 98.95 80.15 97.95 79.35 96.6 78.15 96.6 L77.6 97.25 76.85 97.85 77.45 98.8 78.1 100.4 78.1 100.45 78.2 100.65 79.15 103.5 79.1 103.7 Q79.05 104.0 78.4 104.0 L78.25 104.0 77.7 103.85 76.95 103.5 Q76.1 102.6 75.1 100.65 L73.55 97.8 73.5 97.75 73.3 97.9 Q72.65 98.55 71.7 98.85 L71.8 98.9 73.05 101.25 73.0 101.3 72.65 101.8 73.0 102.85 73.3 103.25 Q74.3 104.5 74.3 105.4 L74.25 105.95 74.15 106.1 74.0 106.35 73.2 106.45 Q71.3 105.05 68.65 98.9 67.15 100.85 63.7 101.8 L63.05 101.0 62.8 100.15 62.75 99.85 60.25 102.25 Q58.3 103.8 56.2 103.85 55.3 103.35 55.1 102.25 L54.95 100.5 54.95 100.4 54.9 100.45 Q53.75 101.05 52.7 102.75 51.9 104.25 51.05 104.45 L50.95 104.45 50.9 104.2 50.75 103.1 50.65 102.1 50.65 102.05 50.25 98.3 Q50.25 94.85 52.65 92.5 54.85 90.3 62.05 86.6 L62.1 86.65 Q61.75 87.35 61.75 87.55 61.8 87.85 62.75 88.3 L66.05 87.45 70.75 86.65 70.4 87.55 Q70.4 88.25 71.3 88.25 76.25 88.25 78.3 87.45 79.4 87.15 80.35 86.05 L80.5 86.2 M68.65 98.9 L68.7 98.8 68.65 98.9 M82.05 124.85 L83.05 123.95 83.8 124.6 83.9 124.6 84.1 125.4 84.1 125.6 Q84.1 127.6 82.65 127.6 L82.0 127.45 81.6 127.0 81.5 126.35 Q81.5 125.5 82.05 124.85" fill="#392b24" fill-rule="evenodd" stroke="none"/>
    <path d="M50.95 104.45 L51.05 104.45 Q51.9 104.25 52.7 102.75 53.75 101.05 54.9 100.45 L54.95 100.5 55.1 102.25 Q55.3 103.35 56.2 103.85 58.3 103.8 60.25 102.25 L62.75 99.85 62.8 100.15 63.05 101.0 63.7 101.8 Q67.15 100.85 68.65 98.9 71.3 105.05 73.2 106.45 L73.15 106.45 Q71.55 106.45 70.4 105.45 L68.65 103.75 Q67.85 104.4 67.4 105.8 66.7 107.6 66.7 109.35 66.7 112.1 67.25 113.75 67.85 115.45 67.85 117.9 67.85 118.85 67.6 118.2 L65.05 117.95 65.05 117.8 64.85 114.1 Q64.45 111.1 63.7 110.85 L63.05 110.0 Q62.35 109.45 61.6 109.3 L61.25 109.1 60.45 108.65 Q57.6 108.65 56.2 111.3 55.3 113.05 55.3 114.95 55.3 116.3 55.7 117.45 L52.55 118.35 52.4 118.05 51.75 112.95 Q51.75 110.9 51.0 105.1 L50.95 104.45 M73.05 101.25 L71.8 98.9 71.7 98.85 Q72.65 98.55 73.3 97.9 L73.55 97.8 75.1 100.65 Q76.1 102.6 76.95 103.5 L76.95 103.55 75.35 102.75 73.15 101.2 73.05 101.25 M78.1 100.45 L78.1 100.4 77.45 98.8 76.85 97.85 77.6 97.25 78.15 96.6 Q79.35 96.6 80.15 97.95 80.65 98.95 81.6 99.25 L82.4 101.5 Q83.2 103.3 84.2 103.95 L84.1 104.0 Q83.1 104.0 81.3 102.4 L79.75 100.6 79.1 100.4 78.1 100.45 M84.7 99.9 L84.2 98.85 83.5 97.75 Q83.75 97.3 84.8 97.1 L86.0 97.8 Q86.9 98.4 87.25 98.4 L87.35 98.4 88.6 100.05 90.0 101.55 88.45 101.55 88.3 101.25 88.05 101.55 87.25 101.5 Q86.85 101.5 85.8 100.65 85.1 100.15 84.75 100.0 L84.7 99.9 M81.75 123.25 L81.85 123.25 82.05 123.25 Q82.25 123.3 82.25 123.95 L81.35 124.95 81.05 125.2 82.05 124.85 Q81.5 125.5 81.5 126.35 L81.6 127.0 82.0 127.45 81.4 127.8 80.3 127.5 79.65 127.1 79.25 127.0 79.2 126.95 Q78.5 126.7 78.15 125.85 L77.9 125.05 77.6 124.1 77.85 123.6 79.85 123.15 81.75 123.25" fill="#291f1b" fill-rule="evenodd" stroke="none"/>
    <path d="M54.9 100.45 L54.95 100.4 54.95 100.5 54.9 100.45 M68.65 98.9 L68.7 98.8 68.65 98.9 M73.3 97.9 L73.5 97.75 73.55 97.8 73.3 97.9 M76.95 103.5 L77.7 103.85 77.0 103.6 76.95 103.5 M79.15 103.5 L78.2 100.65 79.1 103.1 79.15 103.5 M84.2 103.95 L84.3 104.0 84.1 104.0 84.2 103.95 M90.8 99.1 L90.2 98.15 89.95 97.85 89.85 97.85 90.1 97.8 90.5 98.3 90.8 99.1 M73.15 101.2 L73.1 101.3 73.05 101.3 73.15 101.2 M73.15 106.45 L73.2 106.45 73.15 106.45 M83.9 124.6 L83.95 124.6 84.1 125.3 84.1 125.4 83.9 124.6" fill="#1e1e1e" fill-rule="evenodd" stroke="none"/>
    <path d="M62.1 86.65 L62.05 86.6 62.1 86.55 62.1 86.65 M84.6 99.95 L84.7 99.9 84.75 100.0 84.6 99.95 M7.25 86.8 Q8.1 89.05 9.7 92.1 10.9 94.25 10.9 96.6 10.9 97.45 9.85 99.05 L9.25 100.05 8.9 96.7 Q8.1 92.6 5.9 92.6 3.3 92.6 1.1 94.9 L0.1 96.1 Q0.1 93.55 1.95 89.7 4.15 84.9 7.0 86.3 L7.25 86.8 M73.05 101.3 L73.0 101.3 73.05 101.3 M44.65 175.3 Q44.15 173.2 44.15 170.95 44.15 169.8 46.7 169.15 L46.8 169.15 Q46.85 171.4 47.6 173.9 46.65 174.3 45.45 174.9 L44.65 175.3 M48.2 175.95 Q48.55 177.05 49.05 177.95 L46.5 180.05 45.55 178.1 45.4 177.5 47.5 176.4 48.2 175.95 M50.4 179.75 Q51.75 181.0 53.5 181.0 L55.6 180.9 55.9 182.35 Q55.55 183.5 52.6 183.5 49.55 183.5 47.6 181.4 L49.7 180.2 50.4 179.75 M77.9 177.5 L77.45 178.3 Q76.8 179.55 76.8 180.2 L76.8 180.35 74.2 180.65 74.95 178.65 74.95 178.3 77.9 177.5 M79.35 180.15 Q79.9 179.05 79.9 178.25 L79.65 177.15 79.3 176.9 Q79.75 176.65 80.15 176.45 81.9 175.55 82.7 174.9 L83.2 175.4 Q85.1 176.75 86.45 178.45 L86.35 178.75 Q85.7 179.75 79.7 180.1 L79.35 180.15 M72.5 178.7 Q72.2 179.05 72.2 179.5 72.2 180.2 72.6 180.85 L71.25 180.95 69.6 180.7 Q68.95 180.4 68.95 179.7 L69.3 178.6 70.05 178.75 72.5 178.7 M95.55 167.15 L94.9 164.4 94.1 161.4 Q93.9 160.1 93.85 158.3 L93.85 155.3 Q93.65 148.55 92.05 143.1 91.35 140.85 91.6 137.2 L91.95 131.15 92.0 127.95 91.85 124.95 91.4 123.5 91.15 122.55 91.8 121.85 Q92.15 121.35 92.9 121.35 L100.4 121.75 Q103.5 121.75 105.8 120.85 L106.65 124.9 107.45 129.85 107.8 132.75 108.15 135.65 107.7 137.35 107.7 137.3 107.05 137.95 107.25 137.7 106.6 131.65 106.0 127.4 Q105.65 125.7 104.95 124.5 L105.6 123.85 105.2 123.15 Q104.85 122.85 103.8 122.85 L97.3 123.15 Q93.65 123.55 93.65 124.15 93.65 124.75 93.95 125.1 L93.35 125.35 Q92.75 125.75 92.75 126.4 L94.45 138.8 96.6 154.65 99.0 155.1 100.65 155.35 Q106.45 155.35 108.15 154.35 108.85 153.9 108.85 152.8 L109.1 152.75 109.8 158.2 110.1 162.3 110.55 164.3 105.2 165.3 95.6 167.3 95.55 167.15 M94.95 131.35 L95.2 131.3 97.85 130.7 97.55 128.9 97.2 125.8 97.2 125.2 97.5 125.3 97.5 125.2 98.4 125.3 98.8 130.45 100.85 129.8 100.3 124.9 101.15 124.85 Q101.3 126.35 101.8 128.45 L101.9 128.9 104.25 129.15 104.3 129.35 102.2 130.3 102.05 129.65 Q102.6 132.35 102.6 133.9 L102.6 134.0 104.6 133.65 104.6 133.5 105.0 133.5 105.15 133.5 105.8 133.7 105.05 134.1 102.6 134.95 102.5 139.0 Q103.9 138.8 104.6 139.0 L104.85 139.25 Q104.6 139.25 102.5 140.0 L102.4 144.35 104.95 143.6 106.5 143.4 104.95 144.15 102.65 145.0 102.45 145.0 103.05 149.95 105.15 149.85 103.25 150.9 103.5 153.35 103.5 153.4 102.95 153.45 102.45 151.05 100.3 151.15 100.6 153.55 100.0 153.5 99.75 153.45 99.6 153.4 99.05 151.05 98.75 150.95 99.0 150.8 98.6 147.6 98.55 145.85 98.2 145.65 98.5 145.5 98.3 141.15 96.35 140.9 98.25 140.2 98.0 136.5 97.2 137.0 Q96.8 136.9 96.35 136.35 L97.95 135.35 97.9 132.9 97.9 131.5 Q96.1 132.0 95.1 132.55 L94.95 131.35 M100.3 130.95 L98.8 131.3 98.8 131.65 98.75 135.05 Q99.3 134.75 100.0 134.6 L101.4 134.2 101.1 131.55 101.05 130.8 100.3 130.95 M98.65 136.35 L99.05 139.95 101.95 139.1 101.55 135.25 101.4 135.25 98.65 136.25 98.65 136.35 M99.15 141.05 L99.6 145.15 102.05 144.4 102.1 144.4 102.1 140.25 102.1 140.15 100.6 140.65 99.15 141.05 M99.7 145.95 L100.2 150.45 101.7 150.15 102.3 150.1 102.05 146.75 102.1 145.15 Q100.2 145.65 99.85 145.95 L99.7 145.95 M104.6 161.75 L104.5 161.7 Q104.05 161.25 103.9 160.55 L101.2 161.45 101.5 162.3 100.6 161.7 Q100.2 161.8 100.05 161.95 L99.1 161.6 100.2 160.9 100.15 160.3 Q100.15 159.7 100.4 159.7 L101.1 159.85 101.15 160.45 Q102.1 160.05 103.35 159.7 L103.75 159.6 103.75 159.35 Q103.75 158.7 104.0 158.65 L104.7 158.65 104.8 159.3 106.9 158.5 107.4 158.2 107.9 158.25 108.55 158.45 107.85 157.25 108.3 156.85 107.35 156.15 100.7 156.7 Q96.6 157.0 96.6 158.05 L96.6 158.2 Q96.25 158.25 96.25 158.85 L96.6 162.0 Q97.15 165.0 98.2 165.0 L99.0 164.9 99.05 164.85 99.55 165.25 104.3 163.8 Q105.95 163.2 107.2 163.15 108.4 163.1 109.0 162.7 L109.45 162.15 Q109.45 160.7 108.95 159.4 L108.65 158.5 107.1 159.4 105.0 160.15 105.15 161.4 105.15 161.6 105.05 161.95 104.6 161.75" fill="#333333" fill-rule="evenodd" stroke="none"/>
    <path d="M4.75 95.7 Q4.85 95.05 4.55 94.45 L5.8 94.3 Q7.05 94.3 7.25 97.55 7.45 100.7 8.3 101.8 L7.55 102.55 Q6.4 103.5 4.95 103.85 L4.6 101.0 4.35 97.3 4.75 95.7 M2.8 95.95 L2.7 98.85 Q2.7 102.1 2.9 103.05 L3.0 103.9 Q1.8 103.3 0.95 100.0 1.0 99.9 1.1 99.9 1.4 97.85 2.0 96.65 2.2 96.1 2.55 95.7 L2.8 95.95 M100.3 124.9 L100.85 129.8 98.8 130.45 98.4 125.3 97.5 125.2 97.5 125.3 97.2 125.2 97.2 125.8 97.55 128.9 97.85 130.7 95.2 131.3 94.95 131.35 94.45 127.15 94.7 125.85 94.8 125.45 99.05 125.05 100.3 124.9 M95.1 132.55 Q96.1 132.0 97.9 131.5 L97.9 132.9 97.95 135.35 96.35 136.35 Q96.8 136.9 97.2 137.0 L98.0 136.5 98.25 140.2 96.35 140.9 98.3 141.15 98.5 145.5 98.2 145.65 98.55 145.85 98.6 147.6 99.0 150.8 98.75 150.95 99.05 151.05 99.6 153.4 Q98.75 153.0 98.3 152.2 97.65 151.05 97.55 148.05 L97.1 144.45 96.4 141.15 96.35 140.9 95.1 132.55 M100.6 153.55 L100.3 151.15 102.45 151.05 102.95 153.45 101.0 153.55 100.6 153.55 M103.5 153.4 L103.5 153.35 103.25 150.9 105.15 149.85 103.05 149.95 102.45 145.0 102.65 145.0 104.95 144.15 Q105.0 149.8 107.45 151.55 L107.25 151.8 107.0 152.4 Q107.0 152.75 104.8 153.2 L103.5 153.4 M104.95 143.6 L102.4 144.35 102.5 140.0 Q104.6 139.25 104.85 139.25 L104.6 139.0 Q103.9 138.8 102.5 139.0 L102.6 134.95 105.05 134.1 105.35 136.95 105.4 139.35 105.65 140.2 Q105.0 141.7 104.95 143.6 M105.0 133.5 L104.6 133.5 104.6 133.65 102.6 134.0 102.6 133.9 Q102.6 132.35 102.05 129.65 L102.2 130.3 104.3 129.35 104.95 133.0 105.0 133.5 M104.25 129.15 L101.9 128.9 101.8 128.45 Q101.3 126.35 101.15 124.85 L103.5 124.75 103.55 124.75 103.55 125.15 104.15 128.7 104.25 129.15 M100.3 130.95 L101.05 130.8 101.1 131.55 101.4 134.2 100.0 134.6 Q99.3 134.75 98.75 135.05 L98.8 131.65 98.8 131.3 100.3 130.95 M98.65 136.35 L98.65 136.25 101.4 135.25 101.55 135.25 101.95 139.1 99.05 139.95 98.65 136.35 M99.7 145.95 L99.85 145.95 Q100.2 145.65 102.1 145.15 L102.05 146.75 102.3 150.1 101.7 150.15 100.2 150.45 99.7 145.95 M99.15 141.05 L100.6 140.65 102.1 140.15 102.1 140.25 102.1 144.4 102.05 144.4 99.6 145.15 99.15 141.05 M106.9 158.5 L104.8 159.3 104.7 158.65 104.0 158.65 Q103.75 158.7 103.75 159.35 L103.75 159.6 103.35 159.7 Q102.1 160.05 101.15 160.45 L101.1 159.85 100.4 159.7 Q100.15 159.7 100.15 160.3 L100.2 160.9 99.1 161.6 100.05 161.95 Q100.2 161.8 100.6 161.7 L101.5 162.3 101.2 161.45 103.9 160.55 Q104.05 161.25 104.5 161.7 L104.6 161.75 101.25 162.7 99.1 163.45 Q98.2 161.55 98.2 161.0 98.2 160.1 97.8 159.25 L102.8 158.5 106.85 157.8 106.9 158.5 M105.15 161.6 L105.15 161.4 105.0 160.15 107.1 159.4 Q107.25 160.25 107.65 160.9 L105.15 161.6" fill="#666666" fill-rule="evenodd" stroke="none"/>
    <path d="M77.0 103.6 L76.95 103.55 76.95 103.5 77.0 103.6 M73.05 101.3 L73.05 101.25 73.15 101.2 73.05 101.3" fill="#330000" fill-rule="evenodd" stroke="none"/>
    <path d="M73.0 101.3 L73.05 101.25 73.05 101.3 73.0 101.3 M50.45 121.6 L50.4 121.6 50.5 121.4 50.45 121.6" fill="#663300" fill-rule="evenodd" stroke="none"/>
    <path d="M74.7 111.2 L74.45 110.45 Q74.45 109.75 75.15 109.35 75.65 109.1 76.3 108.95 L76.9 109.55 78.25 110.75 78.05 111.45 75.9 111.9 Q75.15 111.9 74.7 111.2 M76.8 180.2 L76.85 180.35 76.8 180.35 76.8 180.2" fill="#ffffff" fill-rule="evenodd" stroke="none"/>
    <path d="M77.9 125.05 Q77.6 124.85 77.3 124.8 76.45 124.65 76.2 125.35 76.1 125.65 76.55 126.35 L76.65 126.55 75.75 126.6 Q73.25 126.6 69.6 124.8 L66.55 123.45 65.8 122.7 65.75 122.65 62.25 119.45 62.45 119.15 62.0 118.45 Q59.25 118.7 58.1 118.0 57.1 117.4 57.1 115.8 57.15 114.45 57.5 113.1 58.25 110.45 59.85 110.45 60.45 110.9 60.8 111.0 L61.2 110.95 61.4 111.2 Q62.05 112.2 62.6 112.5 L63.25 115.95 63.65 119.7 66.55 119.9 69.3 119.65 Q69.7 119.4 69.7 118.65 L69.65 118.0 69.8 117.95 Q72.25 116.55 76.35 115.55 L85.65 113.8 85.9 113.9 85.85 114.15 Q85.15 116.55 85.15 117.8 85.4 120.3 83.95 122.45 L83.5 123.0 82.8 122.75 Q82.0 122.65 81.75 123.25 L79.85 123.15 77.85 123.6 77.6 124.1 77.9 125.05 M65.45 123.8 Q66.0 124.9 69.1 126.4 L70.8 127.2 69.15 127.4 66.9 126.95 Q66.55 125.75 65.3 123.95 L65.45 123.8 M21.8 107.75 Q24.2 105.8 28.05 105.8 29.5 105.8 30.05 108.0 30.4 109.45 30.85 110.1 29.25 110.65 25.45 112.95 L22.6 114.8 21.1 113.65 Q19.9 112.45 19.9 110.8 19.9 109.3 21.8 107.75 M107.2 140.6 Q108.2 137.95 110.5 138.6 L112.65 143.2 Q113.45 144.9 113.45 147.35 113.45 147.85 112.15 149.05 110.85 150.35 109.85 150.35 108.3 150.35 107.35 147.8 106.6 145.75 106.6 143.95 106.6 142.15 107.2 140.6" fill="#c2865f" fill-rule="evenodd" stroke="none"/>
    <path d="M34.8 125.8 L36.35 122.65 37.55 119.95 Q41.6 122.65 45.85 122.65 L46.5 122.6 47.45 123.15 52.0 124.1 Q52.75 124.2 55.35 125.45 L57.8 126.7 58.45 126.5 58.4 126.35 58.6 126.0 58.65 125.25 Q58.65 123.8 52.7 122.2 L50.45 121.6 50.5 121.4 52.15 120.7 53.35 120.35 Q53.35 120.75 53.4 120.45 L53.8 120.85 59.25 121.4 Q60.7 121.55 61.8 122.95 L63.55 125.4 64.95 127.8 63.7 128.7 Q62.45 129.65 62.45 131.45 L62.5 131.55 Q62.25 132.1 62.25 132.95 62.2 134.3 62.55 135.9 62.55 137.2 62.9 140.6 63.2 143.05 62.8 146.05 L61.8 151.45 Q61.1 154.4 61.1 156.5 L61.15 157.1 Q59.05 158.65 57.0 164.3 L56.65 164.25 Q53.8 164.25 49.4 162.3 L51.3 157.05 Q53.7 150.25 53.7 148.7 L54.35 137.7 54.3 135.95 54.6 135.4 Q54.95 135.1 54.95 134.5 54.95 130.65 45.05 127.8 38.9 125.95 34.8 125.8 M87.3 131.0 Q87.0 130.45 86.5 130.05 L85.85 130.3 85.35 130.45 Q85.55 132.35 86.35 135.3 87.1 138.1 87.2 139.9 L87.8 149.1 87.6 151.9 87.1 155.35 87.1 157.1 86.85 158.75 86.15 159.45 Q85.1 159.45 82.95 160.1 81.4 160.6 80.75 161.1 L79.65 161.2 79.6 160.9 79.35 156.0 79.1 152.4 79.1 139.25 Q78.6 132.25 76.25 128.4 L77.85 128.1 Q78.7 129.2 79.5 129.2 L80.5 128.95 81.0 128.55 81.8 128.6 82.65 128.9 Q83.7 128.7 84.45 127.8 L85.0 126.5 84.75 124.6 84.9 124.4 85.4 124.85 Q87.25 126.15 89.0 126.15 L89.85 126.0 Q90.25 127.6 90.1 129.05 L90.05 130.65 89.45 130.2 Q88.45 129.7 87.65 130.45 L87.3 131.0 M25.95 115.35 L28.0 114.15 31.1 111.95 Q31.8 115.2 35.65 118.5 L35.95 118.75 34.7 121.8 33.1 125.25 30.4 120.8 Q27.7 116.65 25.95 115.35" fill="#624f5a" fill-rule="evenodd" stroke="none"/>
    <path d="M49.4 162.3 L48.6 161.95 Q44.1 159.85 44.1 159.15 L45.55 153.55 46.95 147.7 47.4 145.2 47.8 142.7 48.25 139.7 48.55 137.5 49.05 137.55 50.0 137.85 Q50.65 137.85 50.95 137.5 L51.15 136.95 50.7 136.1 Q50.35 135.35 49.7 135.35 39.55 135.35 34.6 132.9 L32.55 131.55 34.7 126.0 34.8 125.8 Q38.9 125.95 45.05 127.8 54.95 130.65 54.95 134.5 54.95 135.1 54.6 135.4 L54.3 135.95 54.35 137.7 53.7 148.7 Q53.7 150.25 51.3 157.05 L49.4 162.3 M87.3 131.0 L87.65 130.45 Q88.45 129.7 89.45 130.2 L90.05 130.65 90.2 133.35 90.5 136.6 90.35 139.15 90.3 141.9 89.6 141.05 Q89.4 141.15 89.15 141.35 L88.9 140.85 88.85 139.6 Q88.7 136.3 88.3 134.7 L87.8 132.25 87.8 132.2 87.5 131.45 87.3 131.0 M25.95 115.35 Q27.7 116.65 30.4 120.8 L33.1 125.25 31.8 128.1 31.3 129.1 30.9 130.05 29.25 127.85 26.05 122.85 Q23.7 118.75 22.9 116.6 23.85 116.5 25.95 115.35" fill="#42353e" fill-rule="evenodd" stroke="none"/>
    <path d="M64.55 137.4 L64.35 131.15 Q66.15 129.75 66.75 128.75 L69.4 129.05 72.2 128.5 73.05 127.95 74.55 128.25 74.45 128.55 Q74.45 128.9 75.55 131.7 L76.8 135.6 76.9 136.35 Q76.5 136.15 75.85 136.9 L75.85 138.9 76.3 139.1 75.5 138.85 Q74.8 138.85 74.75 139.45 L74.85 140.3 73.3 140.55 73.0 140.45 73.1 140.35 73.1 139.05 Q73.55 138.7 74.5 138.4 75.1 138.2 75.1 137.65 L75.0 137.2 74.9 137.0 Q72.5 137.05 71.85 138.0 71.65 138.35 71.65 139.75 L71.65 140.95 Q72.0 142.1 73.8 142.1 75.5 142.1 76.2 141.5 L76.0 141.65 76.1 141.8 76.6 141.85 77.1 141.8 77.15 142.9 69.55 144.0 64.7 145.0 64.55 146.25 66.45 146.3 Q70.3 146.3 75.35 145.05 L77.3 144.55 77.85 152.2 77.9 152.8 73.8 153.8 63.15 155.55 63.1 155.55 64.0 150.15 64.85 143.0 65.7 142.4 67.1 141.0 Q67.1 140.65 66.2 140.2 65.25 139.8 65.25 139.4 L65.95 138.75 Q66.65 138.3 66.65 137.9 L66.6 137.45 66.5 137.25 64.55 137.4 M69.85 139.1 L70.65 138.15 70.6 137.7 70.5 137.5 Q68.15 137.75 67.55 138.5 67.15 138.9 67.15 140.4 L67.3 141.8 Q67.95 143.1 70.4 143.1 71.4 143.1 71.4 142.4 71.4 141.75 70.05 141.45 L69.15 141.1 Q69.9 141.05 70.7 140.6 L71.4 139.9 71.35 139.45 71.25 139.25 69.85 139.1 M64.8 141.35 L64.8 141.3 64.8 141.35 M78.0 154.55 L78.0 154.95 73.65 156.3 Q69.05 157.55 63.4 157.55 L62.8 157.25 62.75 156.95 64.45 157.0 Q70.6 157.0 78.0 154.55" fill="#da4505" fill-rule="evenodd" stroke="none"/>
    <path d="M64.55 137.4 L66.5 137.25 66.6 137.45 66.65 137.9 Q66.65 138.3 65.95 138.75 L65.25 139.4 Q65.25 139.8 66.2 140.2 67.1 140.65 67.1 141.0 L65.7 142.4 64.85 143.0 64.85 142.75 64.85 142.2 64.75 141.35 64.8 141.35 64.8 141.3 64.75 141.25 64.65 139.25 64.55 137.4 M63.1 155.55 L63.15 155.55 73.8 153.8 77.9 152.8 78.0 154.55 Q70.6 157.0 64.45 157.0 L62.75 156.95 62.85 156.7 63.1 155.55 M77.3 144.55 L75.35 145.05 Q70.3 146.3 66.45 146.3 L64.55 146.25 64.7 145.0 69.55 144.0 77.15 142.9 77.15 143.3 77.3 144.55 M77.1 141.8 L76.6 141.85 76.1 141.8 76.0 141.65 76.2 141.5 Q75.5 142.1 73.8 142.1 72.0 142.1 71.65 140.95 L71.65 139.75 Q71.65 138.35 71.85 138.0 72.5 137.05 74.9 137.0 L75.0 137.2 75.1 137.65 Q75.1 138.2 74.5 138.4 73.55 138.7 73.1 139.05 L73.1 140.35 73.0 140.45 73.3 140.55 74.85 140.3 74.75 139.45 Q74.8 138.85 75.5 138.85 L76.3 139.1 75.85 138.9 75.85 136.9 Q76.5 136.15 76.9 136.35 L77.0 139.45 77.1 141.8 M69.85 139.1 L71.25 139.25 71.35 139.45 71.4 139.9 70.7 140.6 Q69.9 141.05 69.15 141.1 L70.05 141.45 Q71.4 141.75 71.4 142.4 71.4 143.1 70.4 143.1 67.95 143.1 67.3 141.8 L67.15 140.4 Q67.15 138.9 67.55 138.5 68.15 137.75 70.5 137.5 L70.6 137.7 70.65 138.15 69.85 139.1 M44.65 175.3 L45.45 174.9 Q46.65 174.3 47.6 173.9 L47.8 174.75 47.9 175.0 47.95 175.2 48.2 175.95 47.5 176.4 45.4 177.5 44.65 175.3 M49.05 177.95 Q49.65 179.05 50.4 179.75 L49.7 180.2 47.6 181.4 46.5 180.05 49.05 177.95 M76.8 180.2 Q76.8 179.55 77.45 178.3 L77.9 177.5 79.3 176.9 79.65 177.15 79.9 178.25 Q79.9 179.05 79.35 180.15 L76.85 180.35 76.8 180.2 M74.95 178.3 L74.95 178.65 74.2 180.65 74.15 180.65 72.95 180.8 72.6 180.85 Q72.2 180.2 72.2 179.5 72.2 179.05 72.5 178.7 L72.5 178.65 74.95 178.3" fill="#cccccc" fill-rule="evenodd" stroke="none"/>
    <path d="M76.2 157.5 L77.15 157.1 77.2 157.1 78.05 157.0 78.1 157.0 78.15 158.25 77.9 160.8 Q77.75 163.05 78.65 163.05 L81.05 162.9 81.5 166.55 82.05 172.05 82.25 173.55 79.0 175.35 Q77.1 176.3 74.7 176.75 L74.95 176.1 75.35 174.8 74.85 174.2 Q74.3 173.5 74.25 171.8 L74.1 169.9 73.85 168.1 71.95 164.55 71.6 164.15 71.45 163.95 71.25 163.55 70.55 163.55 Q69.75 164.5 67.7 167.6 L66.5 169.5 62.75 174.3 62.6 174.4 59.55 176.85 57.2 178.6 56.55 178.55 51.75 178.75 Q51.35 178.6 51.1 178.3 L51.15 178.15 50.95 178.15 Q50.4 177.5 50.05 176.55 L52.8 173.45 Q55.9 169.8 58.1 166.2 L58.1 166.15 58.3 166.05 58.3 166.0 59.15 165.5 59.15 165.3 59.55 164.3 59.6 164.2 59.75 163.65 59.8 163.15 59.85 163.1 Q61.05 160.95 62.45 159.35 L63.1 159.45 63.2 159.45 Q69.9 159.45 74.85 157.9 L76.0 157.55 76.0 157.6 76.2 157.5" fill="#4d76d5" fill-rule="evenodd" stroke="none"/>
    <path d="M76.0 157.55 L76.2 157.5 76.0 157.6 76.0 157.55 M77.15 157.1 L78.1 156.6 78.1 157.0 78.05 157.0 77.2 157.1 77.15 157.1 M71.45 164.25 L71.45 163.95 71.6 164.15 71.45 164.25 M66.5 169.5 L64.5 172.4 62.75 174.3 66.5 169.5 M51.1 178.3 L50.95 178.15 51.15 178.15 51.1 178.3 M58.05 166.15 L58.1 166.15 58.1 166.2 58.05 166.15 M59.85 163.1 L60.15 162.0 61.95 159.2 62.45 159.35 Q61.05 160.95 59.85 163.1" fill="#000033" fill-rule="evenodd" stroke="none"/>
    <path d="M74.7 176.75 L73.45 176.9 70.2 177.05 69.9 176.85 70.25 175.45 Q70.25 174.45 69.65 171.95 69.3 170.5 68.95 169.8 L70.8 166.75 Q71.45 165.3 71.45 164.25 L71.6 164.15 71.95 164.55 73.85 168.1 74.1 169.9 74.25 171.8 Q74.3 173.5 74.85 174.2 L75.35 174.8 74.95 176.1 74.7 176.75 M50.05 176.55 L49.6 174.45 Q49.15 170.9 48.3 168.95 L48.35 168.95 48.8 168.25 49.25 167.6 Q50.45 166.05 50.5 165.0 53.55 166.3 56.85 166.3 L57.8 166.15 58.05 166.15 58.1 166.2 Q55.9 169.8 52.8 173.45 L50.05 176.55" fill="#254a9e" fill-rule="evenodd" stroke="none"/>
    <path d="M89.15 141.35 L89.0 141.6 88.9 141.7 88.9 140.85 89.15 141.35" fill="#503832" fill-rule="evenodd" stroke="none"/>
  </g>
</svg>
