<?xml version="1.0" encoding="UTF-8" standalone="no"?>
<svg xmlns:ffdec="https://www.free-decompiler.com/flash" xmlns:xlink="http://www.w3.org/1999/xlink" ffdec:objectType="shape" height="90.0px" width="344.95px" xmlns="http://www.w3.org/2000/svg">
  <g transform="matrix(1.0, 0.0, 0.0, 1.0, 23.55, 25.5)">
    <path d="M284.25 49.45 L284.1 48.75 284.25 49.3 284.25 49.45 M271.65 44.45 L271.45 44.55 271.35 44.45 271.65 44.45 M272.15 46.15 Q273.35 46.75 276.05 46.75 L279.55 47.0 Q280.55 47.6 281.55 51.0 L282.7 53.4 283.95 55.9 284.2 56.15 284.35 56.25 284.35 58.3 273.75 58.35 273.95 54.5 Q273.95 52.75 273.65 51.9 L272.7 48.4 272.15 46.15 M29.8 42.2 L32.55 42.2 32.55 42.25 29.8 42.3 29.8 42.2 M271.85 58.35 L271.85 57.0 271.8 55.5 272.0 58.35 271.85 58.35 M8.45 55.6 L8.95 55.75 Q9.35 55.75 11.45 50.5 L13.05 47.75 Q13.65 46.7 13.5 46.5 L17.2 46.4 20.7 45.95 20.65 46.4 20.45 49.0 Q20.2 50.0 20.2 53.85 L20.45 57.7 20.5 57.9 16.7 57.75 8.8 58.55 8.85 58.7 Q8.5 57.2 8.45 55.6 M21.25 44.45 L18.85 44.5 17.65 44.35 21.3 44.35 21.25 44.45" fill="#cc9d3c" fill-rule="evenodd" stroke="none"/>
    <path d="M284.25 49.45 L284.25 49.3 284.1 48.75 283.25 46.9 Q282.35 45.2 282.35 44.3 L271.65 44.45 271.35 44.45 270.2 44.45 270.35 44.95 269.95 44.5 270.1 44.9 Q270.85 47.0 271.4 51.25 L271.8 55.5 271.85 57.0 271.85 58.35 271.75 60.8 271.4 62.2 278.5 62.25 283.0 62.35 283.6 60.8 284.35 58.75 284.35 58.3 284.35 56.25 284.35 54.6 284.4 52.2 284.3 49.9 284.3 49.65 284.3 49.6 284.25 49.45 M32.55 42.2 L33.3 42.2 33.2 42.25 33.4 42.25 36.05 42.2 48.0 42.2 48.0 41.55 Q49.2 39.5 51.7 39.5 53.1 39.5 53.6 40.35 54.1 41.2 57.0 41.25 L64.9 40.9 Q71.5 40.55 81.5 40.75 L86.0 40.85 89.0 40.9 89.0 41.15 106.35 41.75 111.45 41.75 111.5 40.95 111.7 40.55 115.55 39.95 120.5 39.75 123.05 41.6 130.3 40.9 149.2 40.0 157.4 39.9 Q158.95 41.25 162.2 41.25 L166.65 41.2 168.7 41.5 172.0 42.25 175.45 42.75 Q176.15 42.75 177.35 42.0 178.55 41.25 178.95 41.25 L190.45 41.8 191.45 42.75 191.7 42.65 191.95 42.75 192.2 42.65 195.2 42.75 201.95 41.1 205.55 40.05 206.7 40.0 210.55 40.65 211.25 40.8 212.0 42.1 Q212.4 42.55 214.05 42.7 L215.7 42.75 218.6 42.05 221.45 41.25 225.45 40.6 228.15 40.2 228.5 40.25 228.4 40.55 228.4 40.6 229.2 40.8 232.85 40.6 233.0 40.55 233.55 40.2 233.95 40.25 239.25 39.8 Q239.5 40.35 240.2 40.6 L241.0 40.75 244.95 41.0 247.6 41.0 Q249.95 41.0 251.1 42.15 L253.15 42.15 253.15 42.5 283.3 42.5 283.15 43.0 Q285.5 44.0 286.15 48.1 286.35 49.45 286.35 54.5 L286.2 59.4 Q285.85 61.55 284.75 63.05 L284.65 64.0 282.5 64.3 267.45 64.5 23.8 64.35 23.55 64.5 23.4 64.35 9.8 64.35 9.2 64.3 9.2 64.05 9.2 64.0 8.95 64.0 Q6.85 64.0 6.45 59.8 L6.45 59.25 6.45 55.4 Q6.45 49.95 6.65 48.45 7.2 44.65 9.15 43.05 L9.15 43.0 9.15 42.85 9.45 42.85 9.95 42.5 10.65 42.65 10.8 42.75 Q16.25 42.5 28.2 42.35 L28.2 42.2 29.8 42.2 29.8 42.3 32.55 42.25 32.55 42.2 M250.35 50.5 L249.85 48.55 249.8 47.85 249.8 47.45 249.8 46.1 249.65 44.5 241.7 44.5 241.1 44.5 240.1 43.0 239.45 42.5 238.75 42.1 239.55 42.1 239.25 41.75 Q238.85 41.25 237.45 41.25 L237.25 41.25 236.7 41.3 235.6 41.5 Q234.5 41.7 233.5 42.5 L233.15 42.75 232.85 43.0 231.05 44.5 228.7 44.5 228.4 44.5 227.5 43.9 226.95 43.55 226.8 43.45 226.3 43.15 226.0 43.0 224.2 42.5 223.7 42.55 Q222.8 42.6 221.95 43.0 220.9 43.5 220.05 44.5 L213.5 44.5 212.6 44.5 212.1 44.15 210.2 43.0 Q209.25 42.45 208.75 42.25 L208.25 42.1 209.85 42.1 209.7 42.05 208.25 42.05 208.2 42.05 208.1 42.05 208.0 42.0 Q204.1 40.9 202.4 43.0 201.9 43.6 201.55 44.5 L188.9 44.5 188.3 44.5 Q187.05 43.1 184.3 43.0 L184.1 43.0 182.95 43.0 Q180.45 43.3 179.25 44.45 L174.3 44.45 173.45 44.5 172.15 44.45 169.45 44.45 168.0 44.45 Q167.4 43.5 166.45 43.0 165.45 42.5 164.15 42.5 L163.95 42.5 Q163.0 42.5 161.95 43.0 L161.15 43.4 160.2 43.95 159.5 44.3 159.45 44.3 158.15 43.45 157.45 43.0 Q156.7 42.6 156.2 42.55 L154.45 42.4 149.9 42.1 144.45 42.0 139.1 41.8 Q136.95 41.8 135.05 43.0 L134.75 43.2 134.3 43.55 133.3 43.3 132.0 43.0 130.45 42.75 130.35 42.75 130.2 42.8 129.7 42.85 129.1 43.0 127.75 43.4 123.2 44.05 122.2 44.05 120.85 43.15 120.6 43.0 Q119.45 42.4 118.05 42.3 L117.45 42.25 Q116.15 42.25 113.7 43.0 112.35 43.35 100.55 43.3 L89.0 43.15 89.0 42.5 86.0 42.7 82.65 42.95 82.2 43.0 81.7 43.05 78.95 43.25 76.2 43.45 75.45 43.5 75.3 43.5 72.45 43.15 Q70.75 43.0 69.85 43.15 L69.45 43.25 Q69.35 43.3 69.0 43.5 L67.9 44.25 67.75 44.35 66.15 44.35 65.3 44.35 65.3 44.15 Q65.15 43.4 62.4 43.3 L61.2 43.25 58.3 43.45 Q57.2 43.6 56.55 43.9 L56.05 44.35 54.65 44.35 52.85 44.35 52.7 43.0 52.7 42.75 52.55 42.2 Q52.3 41.6 51.9 41.65 L51.7 41.55 51.25 41.6 Q50.75 41.7 50.35 42.1 L51.15 42.1 51.05 42.2 50.7 42.6 50.4 43.0 49.6 44.35 49.25 44.35 48.95 46.15 Q48.7 48.45 48.95 50.85 48.95 55.3 49.1 56.35 49.3 57.9 49.9 59.25 L50.6 60.75 51.45 62.0 51.45 62.1 55.1 62.05 56.9 62.05 65.45 62.05 69.0 62.05 70.4 62.05 71.3 62.05 75.3 62.05 83.1 62.05 86.0 62.05 86.05 62.05 88.75 62.05 89.0 62.05 131.05 62.05 131.1 62.05 131.5 62.05 161.95 62.05 197.15 62.1 198.0 62.1 226.8 62.15 244.95 62.15 250.4 62.15 Q250.45 61.6 250.85 61.3 L251.35 60.55 251.35 58.85 251.35 58.75 251.35 58.6 251.35 58.45 251.35 58.1 251.2 55.35 251.15 55.0 250.35 50.5 M268.35 45.1 L268.35 45.05 268.4 44.6 268.4 44.5 267.45 44.5 252.05 44.5 252.35 50.05 Q252.9 51.8 253.15 54.5 L253.35 58.3 253.35 59.25 253.3 62.15 268.45 62.2 268.85 60.7 269.1 59.8 269.7 57.6 269.85 56.6 Q269.85 55.1 269.1 50.5 L268.5 46.7 268.35 45.1 M224.4 42.1 L228.1 42.1 227.7 42.05 224.4 42.1 M46.95 44.75 L47.05 44.35 46.95 44.35 29.2 44.35 28.95 44.5 28.8 44.35 25.4 44.35 25.45 45.25 24.95 47.2 24.7 47.9 24.65 48.1 24.45 49.3 24.45 53.4 Q24.45 54.85 24.8 58.15 L24.85 58.65 24.95 59.25 25.0 60.1 25.15 61.0 25.4 62.4 48.0 62.1 48.45 62.1 48.0 61.4 47.3 59.25 47.0 57.45 46.95 56.9 46.95 50.65 Q46.55 47.45 46.95 44.75 M17.65 44.35 L10.9 44.35 10.25 46.0 Q9.3 47.65 8.95 49.5 8.45 51.75 8.45 55.25 L8.45 55.6 Q8.5 57.2 8.85 58.7 L8.85 58.8 8.85 58.85 8.95 59.25 9.05 59.75 9.45 60.9 9.85 61.8 9.9 61.95 10.35 62.8 22.6 62.4 22.55 61.9 22.95 62.25 23.1 62.3 22.95 61.85 Q22.7 60.85 22.55 59.25 L22.5 58.55 22.5 57.95 22.45 53.4 22.45 47.8 Q22.25 45.9 22.5 44.9 L22.65 44.45 23.0 43.95 Q22.65 44.1 22.4 44.35 L21.3 44.35 17.65 44.35" fill="#000000" fill-rule="evenodd" stroke="none"/>
    <path d="M284.1 48.75 L284.25 49.45 284.3 49.6 284.3 49.65 284.3 49.9 284.4 52.2 284.35 54.6 284.35 56.25 284.2 56.15 283.95 55.9 282.7 53.4 281.55 51.0 Q280.55 47.6 279.55 47.0 L276.05 46.75 Q273.35 46.75 272.15 46.15 L271.8 45.2 271.45 44.55 271.65 44.45 282.35 44.3 Q282.35 45.2 283.25 46.9 L284.1 48.75 M20.7 45.95 L17.2 46.4 13.5 46.5 Q13.65 46.7 13.05 47.75 L11.45 50.5 Q9.35 55.75 8.95 55.75 L8.45 55.6 8.45 55.25 Q8.45 51.75 8.95 49.5 9.3 47.65 10.25 46.0 L10.9 44.35 17.65 44.35 18.85 44.5 21.25 44.45 21.0 44.9 20.95 45.0 20.9 45.15 20.8 45.4 20.7 45.95" fill="#d2aa57" fill-rule="evenodd" stroke="none"/>
    <path d="M241.7 44.5 L249.65 44.5 249.8 46.1 249.8 47.45 249.8 47.85 249.85 48.55 250.35 50.5 250.35 50.75 250.1 54.1 250.05 54.55 250.3 55.0 250.35 55.25 251.2 55.35 251.35 58.1 251.35 58.45 251.35 58.6 251.35 58.75 251.35 58.85 251.35 60.55 250.85 61.3 Q250.45 61.6 250.4 62.15 L244.95 62.15 226.8 62.15 198.0 62.1 197.7 62.05 197.15 62.1 161.95 62.05 131.5 62.05 131.45 62.0 131.1 62.05 131.05 62.05 89.0 62.05 89.0 43.15 100.55 43.3 Q112.35 43.35 113.7 43.0 116.15 42.25 117.45 42.25 L118.05 42.3 117.95 43.0 117.95 43.25 118.9 45.3 Q119.95 47.5 120.45 47.5 121.15 47.5 122.2 46.0 L123.2 44.05 127.75 43.4 129.1 43.0 129.7 42.85 129.7 43.0 129.7 43.25 130.7 45.25 Q131.85 47.25 132.8 47.25 133.35 47.25 134.3 45.8 L135.2 44.0 134.75 43.2 135.05 43.0 Q136.95 41.8 139.1 41.8 L144.45 42.0 149.9 42.1 154.45 42.4 154.45 42.55 154.65 43.0 155.9 45.2 Q157.4 47.75 157.95 47.75 L160.4 43.85 160.2 43.95 161.15 43.4 161.95 43.0 Q163.0 42.5 163.95 42.5 L164.15 42.5 164.35 43.0 165.3 45.15 165.7 46.9 Q165.95 47.9 166.7 48.5 L168.45 46.6 Q169.45 45.6 169.45 44.65 L169.45 44.45 172.15 44.45 173.45 44.5 174.3 44.45 179.25 44.45 Q180.45 43.3 182.95 43.0 L184.1 43.0 184.05 43.05 183.95 44.55 184.2 46.2 Q184.6 48.0 185.45 48.0 186.05 48.0 187.5 46.75 188.95 45.45 188.95 44.75 L188.9 44.5 201.55 44.5 Q201.9 43.6 202.4 43.0 204.1 40.9 208.0 42.0 L207.95 42.4 208.0 43.0 Q208.05 44.35 208.4 45.6 209.15 48.5 211.05 48.5 211.95 48.5 212.7 47.25 213.45 46.0 213.45 44.65 L213.5 44.5 220.05 44.5 Q220.9 43.5 221.95 43.0 222.8 42.6 223.7 42.55 L223.7 42.75 223.75 43.0 224.15 44.2 224.7 45.5 225.4 47.15 Q226.1 48.5 226.7 48.5 L226.8 48.5 Q227.6 48.4 228.2 46.7 L228.7 44.5 231.05 44.5 232.85 43.0 233.15 42.75 233.5 42.5 Q234.5 41.7 235.6 41.5 L236.7 41.3 236.7 41.5 236.9 42.5 237.05 43.0 237.2 43.35 238.1 45.35 238.45 47.4 Q238.6 48.5 239.45 49.25 L241.55 46.95 241.7 45.05 241.7 44.5 M226.95 43.55 L226.8 43.7 226.7 43.75 226.3 43.15 226.8 43.45 226.95 43.55" fill="url(#gradient0)" fill-rule="evenodd" stroke="none"/>
    <path d="M271.45 44.55 L271.8 45.2 272.15 46.15 272.7 48.4 273.65 51.9 Q273.95 52.75 273.95 54.5 L273.75 58.35 284.35 58.3 284.35 58.75 283.6 60.8 283.0 62.35 278.5 62.25 271.4 62.2 271.75 60.8 271.85 58.35 272.0 58.35 271.8 55.5 271.4 51.25 Q270.85 47.0 270.1 44.9 L270.35 44.95 270.2 44.45 271.35 44.45 271.45 44.55 M20.7 45.95 L20.8 45.4 20.9 45.15 20.95 45.0 21.0 44.9 21.25 44.45 21.3 44.35 22.4 44.35 22.65 44.45 22.5 44.9 Q22.25 45.9 22.45 47.8 L22.45 53.4 22.5 57.95 22.5 58.55 22.55 59.25 Q22.7 60.85 22.95 61.85 L22.55 61.9 22.6 62.4 10.35 62.8 9.9 61.95 9.85 61.8 9.45 60.9 9.05 59.75 8.95 59.25 8.85 58.85 8.85 58.8 8.85 58.7 8.8 58.55 16.7 57.75 20.5 57.9 20.45 57.7 20.2 53.85 Q20.2 50.0 20.45 49.0 L20.65 46.4 20.7 45.95" fill="#b0862f" fill-rule="evenodd" stroke="none"/>
    <path d="M268.35 45.1 L268.5 46.7 269.1 50.5 Q269.85 55.1 269.85 56.6 L269.7 57.6 Q267.25 57.35 262.75 57.55 L263.1 57.5 Q256.65 57.15 253.35 58.3 L253.15 54.5 Q252.9 51.8 252.35 50.05 L252.05 44.5 267.45 44.5 268.4 44.5 268.4 44.6 268.25 45.05 268.35 45.1" fill="url(#gradient1)" fill-rule="evenodd" stroke="none"/>
    <path d="M269.7 57.6 L269.1 59.8 268.85 60.7 268.45 62.2 253.3 62.15 253.35 59.25 253.35 58.3 Q256.65 57.15 263.1 57.5 L262.75 57.55 Q267.25 57.35 269.7 57.6 M24.85 58.65 L25.05 58.3 Q25.25 57.65 26.45 57.5 L31.35 57.15 47.0 57.45 47.3 59.25 48.0 61.4 48.45 62.1 48.0 62.1 25.4 62.4 25.15 61.0 25.0 60.1 24.95 59.25 24.85 58.65" fill="#860d0d" fill-rule="evenodd" stroke="none"/>
    <path d="M131.1 62.05 L131.45 62.0 131.5 62.05 131.1 62.05 M197.15 62.1 L197.7 62.05 198.0 62.1 197.15 62.1 M251.2 55.35 L250.35 55.25 250.3 55.0 250.05 54.55 250.1 54.1 250.35 50.75 250.35 50.5 251.15 55.0 251.2 55.35 M83.1 62.05 L83.5 61.75 84.15 61.75 84.45 61.8 86.0 62.05 83.1 62.05" fill="#590000" fill-rule="evenodd" stroke="none"/>
    <path d="M241.7 44.5 L241.7 45.05 241.55 46.95 239.45 49.25 Q238.6 48.5 238.45 47.4 L238.1 45.35 237.2 43.35 237.05 43.0 236.9 42.5 236.7 41.5 236.7 41.3 237.25 41.25 237.45 41.25 Q238.85 41.25 239.25 41.75 L239.55 42.1 238.75 42.1 239.45 42.5 240.1 43.0 241.1 44.5 241.7 44.5 M228.7 44.5 L228.2 46.7 Q227.6 48.4 226.8 48.5 L226.7 48.5 Q226.1 48.5 225.4 47.15 L224.7 45.5 224.15 44.2 223.75 43.0 223.7 42.75 223.7 42.55 224.2 42.5 226.0 43.0 226.3 43.15 226.7 43.75 226.8 43.7 226.95 43.55 227.5 43.9 228.4 44.5 228.7 44.5 M213.5 44.5 L213.45 44.65 Q213.45 46.0 212.7 47.25 211.95 48.5 211.05 48.5 209.15 48.5 208.4 45.6 208.05 44.35 208.0 43.0 L207.95 42.4 208.0 42.0 208.1 42.05 208.2 42.05 208.25 42.1 208.75 42.25 Q209.25 42.45 210.2 43.0 L212.1 44.15 212.6 44.5 213.5 44.5 M188.9 44.5 L188.95 44.75 Q188.95 45.45 187.5 46.75 186.05 48.0 185.45 48.0 184.6 48.0 184.2 46.2 L183.95 44.55 184.05 43.05 184.1 43.0 184.3 43.0 Q187.05 43.1 188.3 44.5 L188.9 44.5 M169.45 44.45 L169.45 44.65 Q169.45 45.6 168.45 46.6 L166.7 48.5 Q165.95 47.9 165.7 46.9 L165.3 45.15 164.35 43.0 164.15 42.5 Q165.45 42.5 166.45 43.0 167.4 43.5 168.0 44.45 L169.45 44.45 M160.2 43.95 L160.4 43.85 157.95 47.75 Q157.4 47.75 155.9 45.2 L154.65 43.0 154.45 42.55 154.45 42.4 156.2 42.55 Q156.7 42.6 157.45 43.0 L158.15 43.45 159.45 44.3 159.5 44.3 160.2 43.95 M134.75 43.2 L135.2 44.0 134.3 45.8 Q133.35 47.25 132.8 47.25 131.85 47.25 130.7 45.25 L129.7 43.25 129.7 43.0 129.7 42.85 130.2 42.8 130.35 42.75 130.45 42.75 132.0 43.0 133.3 43.3 134.3 43.55 134.75 43.2 M123.2 44.05 L122.2 46.0 Q121.15 47.5 120.45 47.5 119.95 47.5 118.9 45.3 L117.95 43.25 117.95 43.0 118.05 42.3 Q119.45 42.4 120.6 43.0 L120.85 43.15 122.2 44.05 123.2 44.05 M78.95 43.25 Q78.8 43.9 77.9 44.65 76.85 45.5 76.05 45.5 75.3 45.5 74.2 44.9 L73.8 44.7 Q72.45 43.85 72.45 43.3 L72.45 43.15 75.3 43.5 75.45 43.5 76.2 43.45 78.95 43.25 M66.15 44.35 L65.5 46.0 Q64.65 47.5 63.7 47.5 62.45 47.5 62.2 46.25 L62.2 44.8 62.3 43.45 62.4 43.3 Q65.15 43.4 65.3 44.15 L65.3 44.35 66.15 44.35 M54.65 44.35 L54.2 46.75 Q53.65 49.0 53.2 49.0 51.95 49.0 51.45 45.5 L51.2 42.2 51.2 42.1 51.25 41.6 51.7 41.55 51.9 41.65 Q52.3 41.6 52.55 42.2 L52.7 42.75 52.7 43.0 52.85 44.35 54.65 44.35" fill="#5c0b01" fill-rule="evenodd" stroke="none"/>
    <path d="M89.0 43.15 L89.0 62.05 88.75 62.05 86.05 62.05 86.0 62.05 84.45 61.8 84.15 61.75 83.5 61.75 83.1 62.05 75.3 62.05 71.3 62.05 70.4 62.05 69.0 62.05 65.45 62.05 56.9 62.05 55.1 62.05 51.45 62.1 51.45 62.0 50.6 60.75 49.9 59.25 Q49.3 57.9 49.1 56.35 48.95 55.3 48.95 50.85 48.7 48.45 48.95 46.15 L49.25 44.35 49.6 44.35 50.4 43.0 50.7 42.6 51.05 42.2 51.15 42.1 50.35 42.1 Q50.75 41.7 51.25 41.6 L51.2 42.1 51.2 42.2 51.45 45.5 Q51.95 49.0 53.2 49.0 53.65 49.0 54.2 46.75 L54.65 44.35 56.05 44.35 56.55 43.9 Q57.2 43.6 58.3 43.45 L61.2 43.25 62.4 43.3 62.3 43.45 62.2 44.8 62.2 46.25 Q62.45 47.5 63.7 47.5 64.65 47.5 65.5 46.0 L66.15 44.35 67.75 44.35 67.9 44.25 69.0 43.5 Q69.35 43.3 69.45 43.25 L69.85 43.15 Q70.75 43.0 72.45 43.15 L72.45 43.3 Q72.45 43.85 73.8 44.7 L74.2 44.9 Q75.3 45.5 76.05 45.5 76.85 45.5 77.9 44.65 78.8 43.9 78.95 43.25 L81.7 43.05 82.2 43.0 82.65 42.95 86.0 42.7 89.0 42.5 89.0 43.15" fill="url(#gradient2)" fill-rule="evenodd" stroke="none"/>
    <path d="M46.95 44.35 L46.95 44.75 Q46.55 47.45 46.95 50.65 L46.95 56.9 47.0 57.45 31.35 57.15 26.45 57.5 Q25.25 57.65 25.05 58.3 L24.85 58.65 24.8 58.15 Q24.45 54.85 24.45 53.4 L24.45 49.3 24.65 48.1 24.7 48.05 24.7 47.9 24.95 47.2 25.45 45.25 25.4 44.35 28.8 44.35 28.95 44.5 29.2 44.35 46.95 44.35" fill="url(#gradient3)" fill-rule="evenodd" stroke="none"/>
    <path d="M5.2 -22.85 L5.2 -22.75 7.0 -22.75 51.3 -22.8 51.3 -22.85 77.65 -22.85 76.05 -22.8 80.4 -22.8 171.8 -22.85 284.0 -22.85 284.0 -22.55 317.6 -22.55 317.45 -22.05 Q320.35 -21.05 321.15 -16.95 L321.4 -10.55 Q321.4 -6.55 321.2 -5.65 320.75 -3.5 319.4 -2.0 L319.3 -1.05 316.65 -0.75 298.1 -0.55 284.0 -0.55 284.0 -0.7 -2.15 -0.7 -2.5 -0.55 -2.65 -0.7 -19.4 -0.7 -20.15 -0.75 -20.15 -1.0 -20.15 -1.05 -20.45 -1.05 Q-23.05 -1.05 -23.55 -5.25 L-23.55 -5.8 -23.55 -9.65 -23.3 -16.6 Q-22.65 -20.4 -20.2 -22.0 L-20.2 -22.05 -20.2 -22.2 -19.85 -22.2 -19.25 -22.55 -18.4 -22.4 -18.2 -22.3 3.25 -22.7 3.25 -22.85 5.2 -22.85 M9.35 -20.7 L6.65 -20.7 6.5 -20.8 5.85 -21.0 -2.0 -20.9 -2.85 -20.9 -3.35 -20.9 -3.15 -21.1 -3.6 -20.9 -5.35 -20.9 -6.95 -20.7 -9.75 -20.7 -18.05 -20.7 Q-18.3 -19.9 -18.85 -19.05 -20.05 -17.4 -20.45 -15.55 -21.1 -13.3 -21.1 -9.8 L-21.1 -9.45 -21.1 -9.25 -20.65 -6.5 -20.6 -6.35 -20.6 -6.25 -20.6 -6.2 -20.45 -5.8 -20.35 -5.3 -19.85 -4.15 -19.35 -3.25 -19.3 -3.1 -18.75 -2.25 -5.4 -2.6 -4.1 -2.5 -2.35 -2.5 -2.0 -2.5 -1.4 -2.55 -0.2 -2.65 7.0 -2.75 284.0 -2.85 284.0 -2.9 299.3 -2.85 299.35 -2.95 300.1 -2.85 301.1 -2.75 301.45 -2.75 302.2 -2.75 302.35 -2.75 304.75 -2.85 311.7 -2.8 317.25 -2.7 318.0 -4.25 318.9 -6.3 318.9 -6.75 318.9 -8.8 318.9 -10.45 318.95 -12.85 318.85 -15.15 318.85 -15.4 318.85 -15.45 318.8 -15.6 318.8 -15.75 318.6 -16.3 317.55 -18.15 Q316.45 -19.85 316.45 -20.75 L303.75 -20.6 301.75 -21.05 Q299.2 -21.35 298.65 -20.55 L298.1 -20.55 284.0 -20.55 284.0 -20.7 275.3 -20.7 273.05 -20.7 238.25 -20.7 237.45 -20.7 23.35 -20.7 9.35 -20.7" fill="#000000" fill-rule="evenodd" stroke="none"/>
    <path d="M51.3 -22.85 L51.3 -22.8 7.0 -22.75 5.2 -22.75 5.2 -22.85 51.3 -22.85 M9.35 -20.7 L23.35 -20.7 Q19.5 -20.55 11.05 -20.55 L9.35 -20.7 M237.45 -20.7 L238.25 -20.7 238.0 -20.3 237.45 -20.7 M273.05 -20.7 L275.3 -20.7 273.55 -20.65 273.05 -20.7 M318.6 -16.3 L318.8 -15.75 318.8 -15.6 318.6 -16.3 M301.45 -2.75 L301.1 -2.75 300.1 -2.85 301.45 -2.75 M-1.4 -2.55 L-2.0 -2.5 -2.35 -2.5 -1.4 -2.55 M-21.1 -9.25 L-21.1 -9.45 -20.45 -9.3 -21.1 -9.25 M-9.75 -20.7 L-6.95 -20.7 -7.05 -20.65 -8.25 -20.55 -9.75 -20.7 M284.0 -7.75 L284.05 -7.35 284.0 -7.35 284.0 -7.75 M37.05 -18.45 L36.85 -18.85 36.9 -18.9 37.05 -18.45 M86.35 -18.05 L86.4 -18.35 Q86.4 -18.55 86.75 -18.55 L86.35 -18.05 M61.0 -18.9 Q61.6 -18.9 61.25 -18.55 L61.0 -18.9" fill="#cc9d3c" fill-rule="evenodd" stroke="none"/>
    <path d="M-3.35 -20.9 L-2.85 -20.9 -2.0 -20.9 5.85 -21.0 6.5 -20.8 6.65 -20.7 9.35 -20.7 11.05 -20.55 Q19.5 -20.55 23.35 -20.7 L237.45 -20.7 238.0 -20.3 238.25 -20.7 273.05 -20.7 273.55 -20.65 275.3 -20.7 284.0 -20.7 284.0 -20.55 298.1 -20.55 298.65 -20.55 Q299.2 -21.35 301.75 -21.05 L303.75 -20.6 316.45 -20.75 Q316.45 -19.85 317.55 -18.15 L318.6 -16.3 318.8 -15.6 318.85 -15.45 318.85 -15.4 318.85 -15.15 318.95 -12.85 318.9 -10.45 318.9 -8.8 318.75 -8.9 318.4 -9.15 316.9 -11.65 315.45 -14.05 Q314.4 -17.0 313.35 -17.85 L307.85 -17.75 304.25 -17.85 304.3 -17.55 304.05 -17.7 303.5 -17.85 291.75 -18.25 282.55 -18.2 278.25 -18.0 268.3 -18.55 263.7 -18.4 259.35 -18.25 Q245.25 -17.75 238.5 -17.75 L228.5 -17.5 218.25 -18.2 Q207.1 -18.9 192.25 -18.9 L191.8 -18.55 189.6 -18.25 174.75 -18.5 159.55 -18.95 155.6 -18.5 149.35 -19.0 141.1 -18.65 129.05 -18.3 Q113.2 -18.3 105.6 -17.9 L97.5 -17.5 91.6 -18.0 86.75 -18.55 Q86.4 -18.55 86.4 -18.35 L86.35 -18.05 82.35 -18.0 74.15 -18.15 66.0 -18.5 61.25 -18.55 Q61.6 -18.9 61.0 -18.9 60.25 -18.9 59.95 -18.55 L59.0 -18.25 48.35 -18.8 39.0 -18.25 37.05 -18.45 36.9 -18.9 36.85 -18.85 Q34.85 -17.35 31.6 -17.85 L25.9 -18.55 23.6 -18.35 21.0 -18.0 15.55 -17.9 10.0 -17.65 Q10.1 -17.5 9.5 -17.5 8.0 -17.5 4.55 -18.7 L3.65 -19.0 3.5 -19.0 -4.1 -18.5 Q-5.75 -18.5 -6.7 -19.0 L-10.3 -18.65 -14.85 -18.55 Q-14.7 -18.35 -15.4 -17.3 L-17.4 -14.55 Q-20.0 -9.3 -20.45 -9.3 L-21.1 -9.45 -21.1 -9.8 Q-21.1 -13.3 -20.45 -15.55 -20.05 -17.4 -18.85 -19.05 -18.3 -19.9 -18.05 -20.7 L-9.75 -20.7 -8.25 -20.55 -7.05 -20.65 -6.95 -20.7 -5.35 -20.9 -3.6 -20.9 -3.35 -20.9" fill="#b6915a" fill-rule="evenodd" stroke="none"/>
    <path d="M318.9 -8.8 L318.9 -6.75 313.25 -6.7 305.9 -7.4 305.95 -8.0 305.8 -7.9 304.7 -7.65 304.75 -7.4 304.5 -7.4 304.4 -7.4 303.75 -7.55 302.35 -7.5 298.2 -7.9 297.1 -7.6 292.8 -7.5 292.75 -7.55 Q287.55 -7.8 284.05 -7.35 L284.0 -7.75 11.15 -7.9 7.0 -7.9 1.1 -7.55 1.0 -7.5 -2.35 -7.65 -5.0 -6.95 -5.05 -7.5 -5.25 -7.5 -6.05 -7.7 -6.35 -7.85 -6.3 -7.35 -6.25 -7.15 -10.9 -7.3 -20.65 -6.5 -21.1 -9.25 -20.45 -9.3 Q-20.0 -9.3 -17.4 -14.55 L-15.4 -17.3 Q-14.7 -18.35 -14.85 -18.55 L-10.3 -18.65 -6.7 -19.0 Q-5.75 -18.5 -4.1 -18.5 L3.5 -19.0 3.65 -19.0 4.55 -18.7 Q8.0 -17.5 9.5 -17.5 10.1 -17.5 10.0 -17.65 L15.55 -17.9 21.0 -18.0 23.6 -18.35 25.9 -18.55 31.6 -17.85 Q34.85 -17.35 36.85 -18.85 L37.05 -18.45 39.0 -18.25 48.35 -18.8 59.0 -18.25 59.95 -18.55 Q60.25 -18.9 61.0 -18.9 L61.25 -18.55 66.0 -18.5 74.15 -18.15 82.35 -18.0 86.35 -18.05 86.75 -18.55 91.6 -18.0 97.5 -17.5 105.6 -17.9 Q113.2 -18.3 129.05 -18.3 L141.1 -18.65 149.35 -19.0 155.6 -18.5 159.55 -18.95 174.75 -18.5 189.6 -18.25 191.8 -18.55 192.25 -18.9 Q207.1 -18.9 218.25 -18.2 L228.5 -17.5 238.5 -17.75 Q245.25 -17.75 259.35 -18.25 L263.7 -18.4 268.3 -18.55 278.25 -18.0 282.55 -18.2 291.75 -18.25 303.5 -17.85 304.05 -17.7 304.3 -17.55 304.25 -17.85 307.85 -17.75 313.35 -17.85 Q314.4 -17.0 315.45 -14.05 L316.9 -11.65 318.4 -9.15 318.75 -8.9 318.9 -8.8" fill="#997644" fill-rule="evenodd" stroke="none"/>
    <path d="M318.9 -6.75 L318.9 -6.3 318.0 -4.25 317.25 -2.7 311.7 -2.8 304.75 -2.85 302.35 -2.75 302.2 -2.75 301.45 -2.75 300.1 -2.85 299.35 -2.95 299.3 -2.85 284.0 -2.9 284.0 -2.85 7.0 -2.75 -0.2 -2.65 -1.4 -2.55 -2.35 -2.5 -4.1 -2.5 -5.4 -2.6 -18.75 -2.25 -19.3 -3.1 -19.35 -3.25 -19.85 -4.15 -20.35 -5.3 -20.45 -5.8 -20.6 -6.2 -20.6 -6.25 -20.6 -6.35 -20.65 -6.5 -10.9 -7.3 -6.25 -7.15 -6.05 -7.7 -5.25 -7.5 -5.05 -7.5 -5.0 -6.95 -2.35 -7.65 1.0 -7.5 1.1 -7.55 7.0 -7.9 11.15 -7.9 284.0 -7.75 284.0 -7.35 284.05 -7.35 Q287.55 -7.8 292.75 -7.55 L292.3 -7.5 292.8 -7.5 297.1 -7.6 298.2 -7.9 302.35 -7.5 303.75 -7.55 304.4 -7.4 304.5 -7.4 304.75 -7.4 304.7 -7.65 305.8 -7.9 305.9 -7.4 313.25 -6.7 318.9 -6.75" fill="#6a522f" fill-rule="evenodd" stroke="none"/>
    <path d="M292.75 -7.55 L292.8 -7.5 292.3 -7.5 292.75 -7.55" fill="url(#gradient4)" fill-rule="evenodd" stroke="none"/>
    <path d="M305.8 -7.9 L305.95 -8.0 305.9 -7.4 305.8 -7.9 M-6.05 -7.7 L-6.25 -7.15 -6.3 -7.35 -6.35 -7.85 -6.05 -7.7" fill="#b0862f" fill-rule="evenodd" stroke="none"/>
    <path d="M34.0 -18.75 L34.4 -12.85 34.6 -7.6 34.85 -2.35 34.55 8.2 Q34.5 12.75 35.35 16.15 L30.85 15.8 Q28.25 16.0 26.05 16.9 L26.05 13.65 Q25.65 8.05 25.2 -4.75 25.1 -7.5 25.35 -13.9 25.35 -18.85 24.3 -22.0 L28.55 -22.0 33.6 -22.4 34.0 -18.75 M28.6 21.75 L26.7 20.0 26.1 19.6 Q28.5 18.75 31.8 18.75 L34.45 18.85 Q33.65 19.95 33.35 20.85 L29.4 21.5 28.6 21.75" fill="url(#gradient5)" fill-rule="evenodd" stroke="none"/>
    <path d="M29.8 42.2 L28.2 42.2 28.15 40.85 27.3 41.0 Q25.45 41.0 22.45 38.0 L19.6 34.8 Q18.55 33.5 18.2 31.25 L18.1 27.75 Q18.1 22.75 22.05 19.35 L24.55 17.65 Q24.15 16.2 24.1 14.35 L23.95 9.15 Q23.6 7.0 23.55 3.9 L23.55 -1.35 23.1 -21.8 23.1 -22.0 22.5 -22.0 22.4 -22.1 Q22.25 -22.25 22.25 -23.0 L22.7 -23.7 28.95 -24.25 33.85 -24.5 Q34.05 -25.1 34.4 -25.5 L34.9 -24.5 35.7 -24.5 35.95 -24.35 36.1 -23.5 Q36.1 -23.15 35.5 -22.9 36.35 -19.95 36.4 -15.9 L36.5 -5.75 Q36.85 -2.35 36.8 4.05 36.75 11.15 36.95 14.15 L36.95 16.7 39.65 18.4 Q43.65 21.85 43.65 28.55 43.65 31.8 40.9 36.05 37.75 41.0 34.0 41.0 L33.55 40.9 33.4 42.05 33.35 42.15 33.3 42.2 32.55 42.2 Q32.0 41.45 31.65 40.1 31.3 38.65 31.5 37.75 L29.8 37.85 29.8 42.2 M34.0 -18.75 L33.6 -22.4 28.55 -22.0 24.3 -22.0 Q25.35 -18.85 25.35 -13.9 25.1 -7.5 25.2 -4.75 25.65 8.05 26.05 13.65 L26.05 16.9 Q28.25 16.0 30.85 15.8 L35.35 16.15 Q34.5 12.75 34.55 8.2 L34.85 -2.35 34.6 -7.6 34.4 -12.85 34.0 -18.75 M263.0 43.2 L262.25 43.2 262.2 43.15 262.15 43.05 262.0 41.9 261.55 42.0 Q257.8 42.0 254.65 37.05 251.9 32.8 251.9 29.55 251.9 22.85 255.9 19.4 257.15 18.35 258.6 17.7 L258.6 15.15 258.75 5.05 Q258.7 -1.35 259.05 -4.75 L259.15 -14.9 Q259.2 -18.95 260.05 -21.9 259.45 -22.15 259.45 -22.5 259.45 -23.25 259.6 -23.35 L259.85 -23.5 260.65 -23.5 261.15 -24.5 261.7 -23.5 266.6 -23.25 272.85 -22.7 273.3 -22.0 273.15 -21.1 273.05 -21.0 272.45 -21.0 272.45 -20.8 Q272.0 -7.1 272.0 -0.35 L272.0 4.9 271.6 10.15 271.45 15.35 Q271.4 17.2 271.0 18.65 L273.5 20.35 Q277.45 23.75 277.45 28.75 L277.35 32.25 Q277.0 34.5 275.95 35.8 L273.1 39.0 Q270.1 42.0 268.25 42.0 L267.4 41.85 267.35 43.2 265.75 43.2 265.75 38.85 264.05 38.75 Q264.25 39.65 263.9 41.1 263.55 42.45 263.0 43.2 M266.15 22.5 L266.95 22.75 268.85 21.0 269.45 20.6 Q267.05 19.75 263.75 19.75 L261.1 19.85 262.2 21.85 266.15 22.5 M261.95 -21.4 L261.55 -17.75 261.15 -11.85 260.95 -6.6 260.7 -1.35 261.0 9.2 Q261.05 13.75 260.2 17.15 L264.7 16.8 Q267.3 17.0 269.5 17.9 L269.5 14.65 270.35 -3.75 270.2 -12.9 Q270.2 -17.85 271.25 -21.0 L267.0 -21.0 261.95 -21.4 M267.05 38.05 L267.35 39.25 267.4 40.05 Q272.8 37.5 274.55 34.7 275.8 32.7 275.8 28.5 275.8 25.8 273.85 23.5 272.8 22.2 271.25 21.35 L269.95 22.75 269.2 23.45 Q272.05 24.45 272.85 25.55 273.3 26.15 273.3 29.4 273.3 30.8 272.0 34.0 L270.45 36.2 Q268.8 38.0 267.4 38.0 L267.0 37.95 267.05 38.05 M261.95 39.85 L262.05 38.0 261.15 38.0 Q258.15 36.85 256.75 33.5 255.7 31.0 255.7 28.0 255.7 23.5 258.5 22.25 L259.8 21.9 259.6 21.65 258.65 20.3 256.9 21.0 Q253.6 23.05 253.6 29.35 253.6 33.6 258.2 37.35 L261.9 39.95 261.95 40.0 261.95 39.85 M257.5 25.75 Q257.35 26.35 257.35 27.9 L257.6 30.35 Q257.95 31.9 258.4 32.8 L261.1 35.15 262.9 36.5 266.35 36.55 270.15 33.2 Q271.6 31.45 271.6 29.25 271.6 27.8 269.95 26.5 266.85 24.15 259.25 24.15 257.9 24.15 257.5 25.75 M247.55 42.55 L247.85 43.1 253.4 43.2 247.55 43.2 247.55 42.55 M48.0 41.55 L48.0 42.2 42.15 42.2 47.7 42.1 48.0 41.55 M28.15 37.0 Q26.75 37.0 25.1 35.2 23.9 33.85 23.55 33.0 22.25 29.8 22.25 28.4 22.25 25.15 22.7 24.55 23.5 23.45 26.35 22.45 L25.6 21.75 24.3 20.35 Q22.75 21.2 21.7 22.5 19.75 24.8 19.75 27.5 19.75 31.7 21.0 33.7 22.75 36.5 28.15 39.05 L28.2 38.25 28.5 37.05 28.55 36.95 28.15 37.0 M28.6 21.75 L29.4 21.5 33.35 20.85 Q33.65 19.95 34.45 18.85 L31.8 18.75 Q28.5 18.75 26.1 19.6 L26.7 20.0 28.6 21.75 M33.65 38.95 L37.35 36.35 Q41.95 32.6 41.95 28.35 41.95 22.05 38.65 20.0 L36.9 19.3 35.95 20.65 35.75 20.9 Q36.45 21.0 37.05 21.25 39.85 22.5 39.85 27.0 39.85 30.0 38.8 32.5 37.4 35.85 34.4 37.0 L33.5 37.0 33.6 38.85 33.6 39.0 33.65 38.95 M38.05 24.75 Q37.65 23.15 36.3 23.15 28.7 23.15 25.6 25.5 23.95 26.8 23.95 28.25 23.95 30.45 25.4 32.2 L29.2 35.55 32.65 35.5 Q33.15 35.05 34.45 34.15 L37.15 31.8 37.95 29.35 38.2 26.9 38.05 24.75" fill="#000000" fill-rule="evenodd" stroke="none"/>
    <path d="M261.95 -21.4 L267.0 -21.0 271.25 -21.0 Q270.2 -17.85 270.2 -12.9 L270.35 -3.75 269.5 14.65 269.5 17.9 Q267.3 17.0 264.7 16.8 L260.2 17.15 Q261.05 13.75 261.0 9.2 L260.7 -1.35 260.95 -6.6 261.15 -11.85 261.55 -17.75 261.95 -21.4 M266.15 22.5 L262.2 21.85 261.1 19.85 263.75 19.75 Q267.05 19.75 269.45 20.6 L268.85 21.0 266.95 22.75 266.15 22.5" fill="url(#gradient6)" fill-rule="evenodd" stroke="none"/>
    <path d="M32.55 42.2 L29.8 42.2 29.8 37.85 31.5 37.75 Q31.3 38.65 31.65 40.1 32.0 41.45 32.55 42.2 M263.0 43.2 Q263.55 42.45 263.9 41.1 264.25 39.65 264.05 38.75 L265.75 38.85 265.75 43.2 263.0 43.2 M267.4 38.0 Q268.8 38.0 270.45 36.2 L272.0 34.0 Q273.3 30.8 273.3 29.4 273.3 26.15 272.85 25.55 272.05 24.45 269.2 23.45 L269.95 22.75 271.25 21.35 Q272.8 22.2 273.85 23.5 275.8 25.8 275.8 28.5 275.8 32.7 274.55 34.7 272.8 37.5 267.4 40.05 L267.35 39.25 267.05 38.05 267.4 38.0 M261.9 39.95 L258.2 37.35 Q253.6 33.6 253.6 29.35 253.6 23.05 256.9 21.0 L258.65 20.3 259.6 21.65 259.8 21.9 258.5 22.25 Q255.7 23.5 255.7 28.0 255.7 31.0 256.75 33.5 258.15 36.85 261.15 38.0 L262.05 38.0 261.95 39.85 261.9 39.95 M28.5 37.05 L28.2 38.25 28.15 39.05 Q22.75 36.5 21.0 33.7 19.75 31.7 19.75 27.5 19.75 24.8 21.7 22.5 22.75 21.2 24.3 20.35 L25.6 21.75 26.35 22.45 Q23.5 23.45 22.7 24.55 22.25 25.15 22.25 28.4 22.25 29.8 23.55 33.0 23.9 33.85 25.1 35.2 26.75 37.0 28.15 37.0 L28.5 37.05 M33.6 38.85 L33.5 37.0 34.4 37.0 Q37.4 35.85 38.8 32.5 39.85 30.0 39.85 27.0 39.85 22.5 37.05 21.25 36.45 21.0 35.75 20.9 L35.95 20.65 36.9 19.3 38.65 20.0 Q41.95 22.05 41.95 28.35 41.95 32.6 37.35 36.35 L33.65 38.95 33.6 38.85" fill="#cc9d3c" fill-rule="evenodd" stroke="none"/>
  </g>
  <defs>
    <linearGradient gradientTransform="matrix(0.0, -0.0159, 0.1358, 0.0, 140.05, 44.45)" gradientUnits="userSpaceOnUse" id="gradient0" spreadMethod="pad" x1="-819.2" x2="819.2">
      <stop offset="0.0" stop-color="#5c0a01"/>
      <stop offset="1.0" stop-color="#8d0c0c"/>
    </linearGradient>
    <linearGradient gradientTransform="matrix(0.0, -0.0067, 0.162, 0.0, 137.15, 46.5)" gradientUnits="userSpaceOnUse" id="gradient1" spreadMethod="pad" x1="-819.2" x2="819.2">
      <stop offset="0.0" stop-color="#9e1203"/>
      <stop offset="1.0" stop-color="#da1414"/>
    </linearGradient>
    <linearGradient gradientTransform="matrix(0.0, -0.0159, 0.1358, 0.0, 160.05, 44.45)" gradientUnits="userSpaceOnUse" id="gradient2" spreadMethod="pad" x1="-819.2" x2="819.2">
      <stop offset="0.0" stop-color="#5c0a01"/>
      <stop offset="1.0" stop-color="#8d0c0c"/>
    </linearGradient>
    <linearGradient gradientTransform="matrix(0.0, -0.0067, 0.162, 0.0, 157.15, 46.5)" gradientUnits="userSpaceOnUse" id="gradient3" spreadMethod="pad" x1="-819.2" x2="819.2">
      <stop offset="0.0" stop-color="#9e1203"/>
      <stop offset="1.0" stop-color="#da1414"/>
    </linearGradient>
    <linearGradient gradientTransform="matrix(0.0, -0.0067, 0.1996, 0.0, 137.5, -18.55)" gradientUnits="userSpaceOnUse" id="gradient4" spreadMethod="pad" x1="-819.2" x2="819.2">
      <stop offset="0.0" stop-color="#9e1203"/>
      <stop offset="1.0" stop-color="#da1414"/>
    </linearGradient>
    <linearGradient gradientTransform="matrix(0.0, -0.0159, 0.1358, 0.0, 160.05, 44.45)" gradientUnits="userSpaceOnUse" id="gradient5" spreadMethod="pad" x1="-819.2" x2="819.2">
      <stop offset="0.0" stop-color="#5c0a01"/>
      <stop offset="1.0" stop-color="#8d0c0c"/>
    </linearGradient>
    <linearGradient gradientTransform="matrix(0.0, -0.0159, -0.1358, 0.0, 135.5, 45.45)" gradientUnits="userSpaceOnUse" id="gradient6" spreadMethod="pad" x1="-819.2" x2="819.2">
      <stop offset="0.0" stop-color="#5c0a01"/>
      <stop offset="1.0" stop-color="#8d0c0c"/>
    </linearGradient>
  </defs>
</svg>
