<?xml version="1.0" encoding="UTF-8" standalone="no"?>
<svg xmlns:ffdec="https://www.free-decompiler.com/flash" xmlns:xlink="http://www.w3.org/1999/xlink" ffdec:objectType="shape" height="31.1px" width="41.95px" xmlns="http://www.w3.org/2000/svg">
  <g transform="matrix(1.0, 0.0, 0.0, 1.0, 0.0, 0.0)">
    <path d="M41.95 31.1 L0.0 31.1 0.0 0.0 41.95 0.0 41.95 31.1" fill="#00ff00" fill-opacity="0.0" fill-rule="evenodd" stroke="none"/>
    <path d="M31.0 23.25 Q28.45 26.0 23.0 26.0 L21.45 25.95 20.0 26.0 Q14.55 26.0 12.25 22.3 11.0 20.25 11.0 18.1 11.0 15.35 14.3 12.1 17.45 9.0 21.5 7.5 25.9 5.9 28.7 7.45 31.4 8.9 31.9 13.0 33.0 14.9 33.0 17.6 33.0 21.1 31.0 23.25" fill="#ff0000" fill-rule="evenodd" stroke="none"/>
  </g>
</svg>
