<?xml version="1.0" encoding="UTF-8" standalone="no"?>
<svg xmlns:ffdec="https://www.free-decompiler.com/flash" xmlns:xlink="http://www.w3.org/1999/xlink" ffdec:objectType="shape" height="59.0px" width="21.9px" xmlns="http://www.w3.org/2000/svg">
  <g transform="matrix(1.0, 0.0, 0.0, 1.0, 12.75, 30.25)">
    <path d="M1.95 -22.1 L4.15 -22.05 6.9 -21.75 Q6.95 -25.9 7.45 -28.15 L6.25 -28.1 3.4 -27.75 1.95 -27.75 -10.95 -27.75 -10.75 -26.3 -10.6 -23.9 -10.6 26.45 Q-10.05 26.2 -9.35 26.1 L-1.05 25.85 2.55 25.95 7.05 26.2 Q6.75 24.5 6.75 22.0 L6.75 20.25 2.45 20.25 -3.2 20.25 -3.2 20.35 -4.9 20.2 Q-5.25 19.5 -5.25 18.6 L-5.1 15.75 -5.1 -11.25 Q-5.0 -13.0 -5.25 -16.9 -5.25 -20.25 -4.1 -21.75 L-3.95 -21.55 -1.5 -21.95 1.4 -22.0 1.95 -22.1 M7.65 -30.25 L7.7 -30.1 Q8.25 -29.1 9.1 -28.55 L9.15 -28.35 9.05 -28.25 8.45 -28.2 8.75 -26.3 8.9 -23.9 8.9 26.95 7.9 28.75 7.6 28.25 -4.1 28.5 -11.1 28.75 -11.55 28.75 -11.6 28.75 -11.9 28.6 -12.1 28.15 -12.05 27.95 Q-12.75 26.1 -12.75 22.0 L-12.6 14.5 -12.6 1.0 -12.5 -13.1 -12.4 -16.1 -12.5 -16.7 -12.6 -20.75 Q-12.6 -25.25 -12.15 -27.75 L-12.2 -27.75 -12.4 -27.85 Q-12.6 -28.0 -12.6 -28.75 L-12.7 -29.0 -11.7 -29.4 -11.6 -29.75 -11.45 -29.45 3.9 -30.0 7.65 -30.25 M2.0 18.25 L6.8 18.25 6.9 14.5 6.9 1.0 7.0 -13.1 7.1 -16.1 7.0 -16.7 6.9 -19.75 1.1 -19.75 -3.05 -19.75 -3.25 -19.75 -3.2 -19.45 Q-2.95 -18.2 -2.95 -16.6 L-3.1 -11.0 Q-3.0 -8.9 -3.05 -4.85 L-3.1 -0.3 -3.15 18.5 2.0 18.25" fill="#000000" fill-rule="evenodd" stroke="none"/>
    <path d="M2.0 17.8 L2.0 18.25 2.0 17.8 M-3.2 -19.45 L-3.25 -19.75 -3.05 -19.75 -3.2 -19.45" fill="#b98d4d" fill-rule="evenodd" stroke="none"/>
    <path d="M-3.05 -19.75 L-3.2 -19.45 -3.05 -19.75" fill="#99743c" fill-rule="evenodd" stroke="none"/>
    <path d="M1.1 -19.75 L1.7 -2.3 2.0 10.3 2.0 17.8 2.0 18.25 -3.15 18.5 -3.1 -0.3 -3.05 -4.85 Q-3.0 -8.9 -3.1 -11.0 L-2.95 -16.6 Q-2.95 -18.2 -3.2 -19.45 L-3.05 -19.75 1.1 -19.75" fill="#8e6c24" fill-rule="evenodd" stroke="none"/>
    <path d="M1.1 -19.75 L6.9 -19.75 7.0 -16.7 7.1 -16.1 7.0 -13.1 6.9 1.0 6.9 14.5 6.8 18.25 2.0 18.25 2.0 17.8 2.0 10.3 1.7 -2.3 1.1 -19.75" fill="#cc9d3c" fill-rule="evenodd" stroke="none"/>
    <path d="M1.95 -27.75 L3.4 -27.75 6.25 -28.1 7.45 -28.15 Q6.95 -25.9 6.9 -21.75 L4.15 -22.05 1.95 -22.1 2.0 -25.05 1.95 -27.7 1.95 -27.75 M2.45 20.25 L6.75 20.25 6.75 22.0 Q6.75 24.5 7.05 26.2 L2.55 25.95 2.5 23.1 2.45 20.25" fill="#942403" fill-rule="evenodd" stroke="none"/>
    <path d="M1.95 -27.75 L1.95 -27.7 2.0 -25.05 1.95 -22.1 1.4 -22.0 -1.5 -21.95 -3.95 -21.55 -4.1 -21.75 Q-5.25 -20.25 -5.25 -16.9 -5.0 -13.0 -5.1 -11.25 L-5.1 15.75 -5.25 18.6 Q-5.25 19.5 -4.9 20.2 L-3.2 20.35 -3.2 20.25 2.45 20.25 2.5 23.1 2.55 25.95 -1.05 25.85 -9.35 26.1 Q-10.05 26.2 -10.6 26.45 L-10.6 -23.9 -10.75 -26.3 -10.95 -27.75 1.95 -27.75" fill="#731c02" fill-rule="evenodd" stroke="none"/>
  </g>
</svg>
