<?xml version="1.0" encoding="UTF-8" standalone="no"?>
<svg xmlns:ffdec="https://www.free-decompiler.com/flash" xmlns:xlink="http://www.w3.org/1999/xlink" ffdec:objectType="shape" height="65.85px" width="68.5px" xmlns="http://www.w3.org/2000/svg">
  <g transform="matrix(1.0, 0.0, 0.0, 1.0, 24.5, 28.35)">
    <path d="M21.3 -25.85 L21.5 -25.0 21.1 -24.55 23.95 -22.25 Q25.7 -20.65 26.5 -18.85 L26.3 -18.3 29.9 -15.75 Q33.5 -12.55 33.5 -11.8 L33.5 -11.65 33.85 -11.45 34.55 -11.25 34.95 -10.6 36.75 -8.9 Q42.5 -3.0 42.5 -0.85 L42.5 -0.45 43.05 0.6 Q44.0 2.8 44.0 9.15 L43.85 12.2 43.45 12.45 43.5 13.25 Q43.5 14.95 39.75 18.75 L34.5 23.5 33.75 23.25 33.55 22.9 32.05 21.6 30.25 20.05 Q27.95 19.5 27.3 19.1 L27.1 18.95 27.05 19.2 26.1 19.65 22.05 21.6 Q23.2 23.15 25.4 27.6 28.0 32.85 28.0 33.75 L27.95 35.3 Q27.65 36.3 26.5 36.5 L26.35 36.2 Q26.15 36.2 26.05 36.5 L10.45 36.1 -8.5 37.0 -21.4 37.0 -22.0 37.5 -22.7 37.15 -22.8 37.0 -23.1 37.0 -23.3 36.85 Q-23.5 36.65 -23.5 35.9 -23.5 35.6 -22.9 35.5 L-22.0 31.6 -20.85 27.5 -19.8 25.2 -18.5 23.0 -18.3 20.6 Q-18.05 19.85 -17.45 19.85 L-17.5 19.05 Q-17.5 14.65 -16.45 10.45 -15.65 7.05 -14.3 4.35 L-16.0 4.5 Q-21.7 4.5 -23.6 0.75 -24.5 -0.95 -24.5 -3.9 L-23.75 -10.1 Q-23.0 -15.8 -23.0 -16.85 -22.6 -20.1 -19.75 -23.35 -16.15 -27.35 -11.0 -27.5 L-11.0 -28.25 Q-7.0 -28.7 1.4 -27.35 8.95 -26.2 11.05 -25.25 L11.15 -25.05 Q16.5 -26.95 21.05 -26.0 21.2 -25.9 21.3 -25.85 M19.45 -24.05 L14.0 -23.5 11.65 -23.0 10.0 -22.5 Q8.7 -22.1 7.55 -21.4 L5.25 -19.85 Q4.0 -18.95 2.65 -17.5 L0.55 -15.4 1.5 -13.05 2.4 -10.7 Q4.4 -12.65 9.4 -14.95 16.55 -18.25 22.5 -18.55 L22.5 -19.25 23.0 -19.25 21.55 -20.75 Q19.5 -23.25 19.5 -23.65 L19.5 -24.05 19.45 -24.05 M5.6 -24.2 L0.8 -25.25 -4.25 -25.1 Q-7.55 -25.15 -9.5 -26.05 L-10.0 -21.8 -10.5 -17.4 -10.35 -12.65 Q-9.6 -11.0 -8.4 -7.3 L-6.85 -7.3 -6.75 -7.45 -5.2 -9.3 Q-3.0 -11.6 -0.5 -12.55 L-1.0 -14.4 -0.9 -15.4 -1.0 -16.15 Q-1.0 -18.95 6.4 -22.95 L8.0 -23.75 5.6 -24.2 M-2.2 -2.7 Q0.9 -0.3 3.05 0.75 L7.0 3.15 Q7.05 2.2 8.05 1.5 L7.7 0.85 Q6.25 -0.2 4.8 -3.05 3.7 -5.2 3.1 -7.45 2.6 -7.05 2.0 -7.0 L1.25 -7.3 1.15 -7.45 Q1.0 -7.7 1.0 -8.15 L0.5 -8.25 Q0.7 -8.95 0.15 -10.75 L-5.5 -4.95 -4.35 -4.35 -2.85 -3.25 -2.2 -2.7 M10.0 -1.0 L10.65 -0.5 Q13.4 -3.55 17.25 -6.25 24.6 -11.45 30.4 -11.75 L27.8 -13.9 24.2 -16.95 15.0 -14.3 Q5.7 -11.65 4.25 -9.75 5.1 -8.9 5.45 -7.6 6.0 -5.65 6.75 -4.5 L8.55 -2.25 9.75 -0.95 10.0 -1.0 M17.3 -3.5 L12.4 0.3 10.95 1.8 10.75 2.05 Q11.15 2.4 10.5 2.5 10.0 3.35 10.2 4.15 12.4 5.35 14.95 8.25 17.5 11.1 18.45 12.7 19.65 10.3 24.15 6.2 29.3 1.45 32.5 -0.35 36.85 -2.9 39.55 -2.45 L39.15 -3.15 Q36.5 -7.75 31.55 -9.6 L31.5 -9.6 29.6 -9.2 Q24.75 -8.25 22.55 -6.75 L19.75 -5.05 17.3 -3.5 M30.5 17.85 Q33.05 19.25 34.25 20.85 L35.55 19.8 Q38.3 18.1 39.5 16.5 39.95 15.9 40.8 13.3 41.3 12.15 42.0 11.8 L42.0 6.45 Q41.2 8.45 39.05 11.25 35.8 15.5 31.75 16.6 L30.3 17.45 Q30.15 17.5 30.05 17.6 L30.0 17.6 30.5 17.85 M24.9 17.25 L26.05 16.8 Q24.8 16.5 24.0 16.0 L22.5 14.55 22.5 10.85 Q20.7 13.05 19.0 15.5 L18.7 15.45 18.45 15.5 Q22.7 16.9 24.0 17.65 L24.9 17.25 M-8.9 5.95 Q-8.3 6.2 -7.6 6.55 -0.95 10.0 2.25 10.75 6.25 11.65 14.6 14.25 L17.45 15.15 13.15 10.7 10.9 8.2 Q8.05 6.7 2.0 2.5 L-3.1 -0.65 -3.7 -1.05 Q-5.45 -2.4 -6.35 -3.9 -10.05 0.65 -12.25 5.45 -11.1 5.0 -8.9 5.95 M-11.75 21.95 Q-6.25 22.2 -0.7 22.05 L15.5 20.75 18.4 20.5 16.5 20.5 -2.1 19.25 -8.0 18.0 -11.0 17.45 -12.05 17.3 -12.15 17.25 -15.3 16.2 Q-15.65 18.85 -15.6 21.55 L-15.9 21.7 -15.6 21.7 -11.75 21.95 M-13.5 34.8 L-4.5 34.25 Q-4.5 34.05 8.5 34.1 L20.75 34.25 26.0 34.5 26.0 33.9 Q26.0 32.85 23.25 28.3 20.85 24.35 20.55 22.55 L17.0 22.9 10.7 23.5 -3.75 24.5 -10.65 24.2 -12.2 24.15 -16.35 23.85 -17.1 25.45 -19.5 30.0 -20.1 34.0 -20.35 35.25 -13.5 34.8 M-11.4 14.9 L-7.85 15.75 -4.3 16.65 -1.35 17.25 19.65 18.3 13.3 16.25 2.5 13.0 Q-1.7 11.9 -6.05 9.75 L-9.6 7.95 -12.6 6.3 Q-14.3 10.2 -15.05 14.35 L-11.5 14.85 -11.4 14.9 M-22.5 -4.05 Q-22.5 -0.45 -21.7 0.35 -20.0 2.05 -13.0 1.5 L-12.6 1.6 -10.25 -2.25 -10.5 -3.85 -10.3 -5.6 Q-11.4 -6.95 -12.0 -11.3 -12.45 -14.5 -12.5 -17.8 L-12.35 -23.25 -12.0 -25.25 Q-16.75 -24.25 -19.0 -21.0 -20.4 -18.95 -21.0 -15.1 L-22.5 -4.05 M-8.5 -4.95 L-8.3 -5.25 -8.5 -5.1 -8.5 -4.95 M-8.15 -5.4 L-8.05 -5.55 -8.1 -5.55 -8.15 -5.4" fill="#000000" fill-rule="evenodd" stroke="none"/>
    <path d="M19.45 -24.05 L19.5 -23.65 Q19.5 -23.25 21.55 -20.75 L23.0 -19.25 22.5 -19.25 22.5 -18.55 Q16.55 -18.25 9.4 -14.95 4.4 -12.65 2.4 -10.7 L1.5 -13.05 0.55 -15.4 2.65 -17.5 Q4.0 -18.95 5.25 -19.85 L7.55 -21.4 Q8.7 -22.1 10.0 -22.5 L11.65 -23.0 14.0 -23.5 19.45 -24.05 M1.15 -7.45 L1.25 -7.3 2.0 -7.0 Q2.6 -7.05 3.1 -7.45 3.7 -5.2 4.8 -3.05 6.25 -0.2 7.7 0.85 L8.05 1.5 Q7.05 2.2 7.0 3.15 L3.05 0.75 Q0.9 -0.3 -2.2 -2.7 L-1.55 -2.25 -1.5 -2.3 Q0.15 -3.85 0.75 -4.85 L0.95 -5.95 Q0.9 -6.8 1.0 -7.1 L1.15 -7.45 M30.3 17.45 L31.75 16.6 Q35.8 15.5 39.05 11.25 41.2 8.45 42.0 6.45 L42.0 11.8 Q41.3 12.15 40.8 13.3 39.95 15.9 39.5 16.5 38.3 18.1 35.55 19.8 L34.25 20.85 Q33.05 19.25 30.5 17.85 L30.3 17.45 M17.3 -3.5 L19.75 -5.05 22.55 -6.75 Q24.75 -8.25 29.6 -9.2 L31.5 -9.6 31.55 -9.6 Q36.5 -7.75 39.15 -3.15 L39.55 -2.45 Q36.85 -2.9 32.5 -0.35 29.3 1.45 24.15 6.2 19.65 10.3 18.45 12.7 17.5 11.1 14.95 8.25 12.4 5.35 10.2 4.15 10.0 3.35 10.5 2.5 11.15 2.4 10.75 2.05 L10.95 1.8 12.4 0.3 17.3 -3.5 M10.0 -1.0 L9.75 -0.95 8.55 -2.25 6.75 -4.5 Q6.0 -5.65 5.45 -7.6 5.1 -8.9 4.25 -9.75 5.7 -11.65 15.0 -14.3 L24.2 -16.95 27.8 -13.9 30.4 -11.75 Q24.6 -11.45 17.25 -6.25 13.4 -3.55 10.65 -0.5 L10.0 -1.0 M-3.7 -1.05 L-3.1 -0.65 2.0 2.5 Q8.05 6.7 10.9 8.2 L13.15 10.7 17.45 15.15 14.6 14.25 Q6.25 11.65 2.25 10.75 -0.95 10.0 -7.6 6.55 -8.3 6.2 -8.9 5.95 L-8.75 5.8 -6.5 3.0 Q-4.3 0.5 -3.7 -1.05 M24.9 17.25 L24.0 17.65 Q22.7 16.9 18.45 15.5 L18.7 15.45 19.0 15.5 Q20.7 13.05 22.5 10.85 L22.5 14.55 24.0 16.0 Q24.8 16.5 26.05 16.8 L24.9 17.25 M-11.0 17.45 L-8.0 18.0 -2.1 19.25 16.5 20.5 18.4 20.5 15.5 20.75 -0.7 22.05 Q-6.25 22.2 -11.75 21.95 L-11.5 21.3 Q-11.05 19.95 -11.0 17.45 M-9.6 7.95 L-6.05 9.75 Q-1.7 11.9 2.5 13.0 L13.3 16.25 19.65 18.3 -1.35 17.25 -4.3 16.65 -7.85 15.75 -11.4 14.9 -10.75 13.25 Q-9.5 9.85 -9.5 8.75 L-9.6 7.95" fill="#5b6171" fill-rule="evenodd" stroke="none"/>
    <path d="M1.15 -7.45 L1.0 -7.1 Q0.9 -6.8 0.95 -5.95 L0.75 -4.85 Q0.15 -3.85 -1.5 -2.3 L-1.55 -2.25 -2.2 -2.7 -2.85 -3.25 -4.35 -4.35 -5.5 -4.95 0.15 -10.75 Q0.7 -8.95 0.5 -8.25 L1.0 -8.15 Q1.0 -7.7 1.15 -7.45 M-3.7 -1.05 Q-4.3 0.5 -6.5 3.0 L-8.75 5.8 -8.9 5.95 Q-11.1 5.0 -12.25 5.45 -10.05 0.65 -6.35 -3.9 -5.45 -2.4 -3.7 -1.05 M-11.0 17.45 Q-11.05 19.95 -11.5 21.3 L-11.75 21.95 -15.6 21.7 -15.6 21.55 Q-15.65 18.85 -15.3 16.2 L-12.15 17.25 -12.05 17.3 -11.0 17.45 M-9.6 7.95 L-9.5 8.75 Q-9.5 9.85 -10.75 13.25 L-11.4 14.9 -11.5 14.85 -15.05 14.35 Q-14.3 10.2 -12.6 6.3 L-9.6 7.95" fill="#969cab" fill-rule="evenodd" stroke="none"/>
    <path d="M-22.5 -4.05 L-21.0 -15.1 Q-20.4 -18.95 -19.0 -21.0 -16.75 -24.25 -12.0 -25.25 L-12.35 -23.25 -12.5 -17.8 Q-12.45 -14.5 -12.0 -11.3 -11.4 -6.95 -10.3 -5.6 L-10.5 -3.85 -10.25 -2.25 -12.6 1.6 -13.0 1.5 Q-20.0 2.05 -21.7 0.35 -22.5 -0.45 -22.5 -4.05" fill="#aa8a71" fill-rule="evenodd" stroke="none"/>
    <path d="M-12.2 24.15 L-12.95 28.9 Q-13.5 32.2 -13.5 34.4 L-13.5 34.8 -20.35 35.25 -20.1 34.0 -19.5 30.0 -17.1 25.45 -16.35 23.85 -12.2 24.15" fill="#942403" fill-rule="evenodd" stroke="none"/>
    <path d="M5.6 -24.2 L8.0 -23.75 6.4 -22.95 Q-1.0 -18.95 -1.0 -16.15 L-0.9 -15.4 -1.0 -14.4 -0.5 -12.55 Q-3.0 -11.6 -5.2 -9.3 L-6.75 -7.45 -6.85 -7.3 -8.4 -7.3 Q-9.6 -11.0 -10.35 -12.65 L-10.5 -17.4 -10.0 -21.8 -9.5 -26.05 Q-7.55 -25.15 -4.25 -25.1 L0.8 -25.25 5.6 -24.2 M-12.2 24.15 L-10.65 24.2 -3.75 24.5 10.7 23.5 17.0 22.9 20.55 22.55 Q20.85 24.35 23.25 28.3 26.0 32.85 26.0 33.9 L26.0 34.5 20.75 34.25 8.5 34.1 Q-4.5 34.05 -4.5 34.25 L-13.5 34.8 -13.5 34.4 Q-13.5 32.2 -12.95 28.9 L-12.2 24.15" fill="#731c02" fill-rule="evenodd" stroke="none"/>
  </g>
</svg>
