<?xml version="1.0" encoding="UTF-8" standalone="no"?>
<svg xmlns:ffdec="https://www.free-decompiler.com/flash" xmlns:xlink="http://www.w3.org/1999/xlink" ffdec:objectType="shape" height="88.65px" width="126.0px" xmlns="http://www.w3.org/2000/svg">
  <g transform="matrix(1.0, 0.0, 0.0, 1.0, 79.5, 39.65)">
    <path d="M28.15 -32.2 L28.5 -32.5 29.2 -32.35 29.5 -31.85 32.4 -31.2 34.0 -31.05 39.05 -29.25 Q40.25 -28.8 40.95 -27.75 L42.15 -26.35 44.0 -22.85 43.75 -22.3 43.75 -22.25 Q45.0 -19.8 45.0 -16.25 L44.85 -13.4 44.4 -12.4 44.75 -11.0 46.1 -6.45 Q46.5 -4.65 46.5 -2.55 46.5 3.3 41.8 7.0 37.95 10.05 33.3 10.05 L27.7 14.8 Q24.05 17.5 22.05 18.25 L21.0 19.0 Q19.3 19.0 17.9 17.65 L15.5 15.3 15.5 15.25 Q14.0 16.0 12.75 16.0 L11.0 15.75 Q10.6 11.65 10.05 9.5 L10.0 9.2 10.0 9.55 10.0 12.0 Q10.0 16.0 9.8 16.3 9.4 17.0 6.0 17.0 L5.9 17.0 6.75 20.85 7.4 25.3 7.5 26.0 7.5 26.2 7.5 26.3 Q7.2 27.6 4.45 28.75 L-2.25 31.05 -14.85 35.45 -28.75 35.5 -41.4 35.35 Q-41.95 34.55 -43.15 34.45 -43.4 34.2 -44.0 34.0 L-44.5 33.85 -44.5 34.05 -46.2 33.3 -47.55 32.65 -47.8 33.35 Q-48.7 36.5 -48.7 39.3 L-48.5 40.8 -48.5 46.15 -48.0 46.1 -48.0 46.35 Q-48.0 47.45 -47.55 47.95 L-46.85 48.45 -47.0 48.5 -55.25 49.0 -58.3 48.95 -59.0 49.0 Q-69.1 49.0 -71.0 46.8 -71.6 46.1 -71.35 45.1 L-71.0 43.9 Q-71.25 42.85 -71.0 41.6 L-70.9 37.2 -70.85 36.95 -71.5 37.0 Q-76.35 37.0 -78.25 33.1 -79.5 30.5 -79.5 25.75 L-79.5 19.4 -79.3 17.5 -79.35 17.5 -79.3 16.8 -79.0 14.5 -78.8 10.9 Q-77.4 -2.8 -65.5 -17.85 -61.55 -22.8 -58.15 -25.6 -53.85 -29.05 -48.1 -31.25 L-40.55 -34.3 Q-37.55 -35.45 -32.1 -36.75 L-25.25 -38.05 -22.4 -38.65 -20.1 -39.25 -19.5 -39.25 -13.4 -39.35 -9.85 -39.65 -9.8 -39.6 Q-0.7 -38.65 3.7 -36.05 L4.1 -35.8 4.25 -36.35 Q7.5 -37.0 12.45 -36.2 16.85 -35.5 19.55 -34.25 L26.55 -32.6 28.15 -32.2 M28.15 -14.65 L28.0 -16.6 Q27.65 -17.25 27.55 -18.1 L27.5 -20.35 27.2 -22.75 Q27.25 -23.8 27.85 -24.3 L28.15 -25.2 Q29.25 -28.3 30.0 -29.0 L28.65 -29.85 26.5 -26.6 Q26.85 -26.55 26.35 -26.5 L26.5 -26.35 26.25 -25.8 Q26.05 -25.5 25.25 -25.5 24.8 -25.5 20.6 -27.5 L19.1 -28.2 Q20.9 -26.1 21.95 -23.2 23.5 -17.9 24.85 -15.3 L28.25 -13.1 28.0 -14.0 27.9 -14.55 27.9 -14.5 28.65 -13.35 28.15 -14.65 M21.5 -29.85 L21.5 -29.9 Q21.5 -31.0 21.65 -31.45 20.1 -31.65 19.5 -32.0 16.55 -33.7 11.95 -33.8 L6.15 -34.05 Q7.85 -32.3 9.5 -29.5 10.4 -29.15 11.4 -28.05 13.5 -25.7 13.5 -24.35 L13.35 -23.95 14.4 -23.5 Q18.5 -21.65 18.5 -19.25 L18.5 -19.0 21.1 -17.95 19.5 -22.1 17.0 -26.1 Q15.3 -28.55 15.05 -29.5 L13.85 -30.3 Q12.15 -31.4 12.0 -32.85 13.25 -33.7 15.0 -32.35 L16.1 -31.35 Q18.2 -31.55 21.5 -29.85 M23.2 -28.9 L24.5 -28.05 Q24.6 -29.05 25.6 -30.0 L26.55 -30.85 24.85 -31.1 24.4 -30.65 23.5 -29.6 23.2 -28.9 M38.7 -26.65 L38.3 -27.25 Q37.0 -28.3 35.05 -28.75 L33.45 -29.2 32.55 -28.05 30.4 -24.7 30.3 -24.6 30.3 -24.5 30.0 -24.4 30.0 -24.0 30.0 -23.9 30.5 -24.4 30.65 -24.6 Q33.1 -26.9 36.5 -26.9 L38.7 -26.6 39.6 -26.25 39.5 -26.7 39.0 -26.75 38.7 -26.65 M3.8 -25.85 L3.9 -25.8 6.5 -25.6 10.55 -24.85 9.75 -26.35 7.85 -27.85 7.7 -27.95 7.5 -27.7 7.5 -28.05 7.0 -28.4 7.05 -29.0 7.15 -29.05 4.55 -32.5 Q3.4 -33.95 -4.75 -36.2 L-7.65 -37.05 -13.4 -37.05 -17.9 -36.8 -21.0 -37.0 -22.4 -36.7 Q-23.55 -36.35 -24.5 -35.7 L-25.0 -35.6 -25.2 -35.65 -27.85 -35.25 Q-33.1 -34.5 -37.65 -32.65 L-44.25 -29.85 Q-51.05 -27.5 -55.7 -24.15 -58.85 -21.9 -63.25 -17.35 -68.9 -11.45 -72.95 -2.25 -76.15 4.95 -76.8 10.9 L-77.0 14.05 -76.95 16.4 -76.65 17.9 -76.7 19.9 -77.4 24.9 -77.5 25.55 Q-77.5 28.55 -76.15 31.55 -74.25 35.8 -70.6 34.95 L-70.45 34.3 -70.3 31.5 Q-69.95 27.65 -69.2 24.9 L-68.55 22.8 -68.65 22.6 -68.55 22.25 -66.5 14.8 Q-66.05 13.1 -64.95 10.9 -62.75 6.35 -57.85 -0.5 L-53.15 -6.45 -53.35 -6.7 -53.5 -7.9 Q-53.5 -11.65 -50.1 -15.0 -43.95 -21.0 -42.5 -23.0 L-41.75 -22.85 Q-41.5 -22.8 -41.5 -22.0 -41.5 -20.75 -46.25 -15.65 -49.75 -11.85 -50.9 -8.8 -47.45 -12.15 -42.5 -15.35 -38.15 -18.15 -32.95 -20.2 -34.15 -20.55 -34.5 -21.7 -34.75 -22.6 -34.5 -23.6 -34.5 -27.35 -29.2 -30.2 -27.75 -31.0 -22.4 -33.1 L-17.5 -35.0 -16.75 -34.75 Q-16.5 -34.6 -16.5 -33.8 -16.5 -32.55 -20.6 -31.15 L-22.4 -30.45 Q-27.75 -28.4 -32.5 -25.1 L-32.5 -22.25 -29.35 -22.0 -29.15 -21.55 -23.9 -23.1 -22.4 -23.45 -13.4 -25.05 -8.0 -25.75 Q-8.0 -26.0 3.55 -26.0 L3.8 -25.85 M15.5 -19.45 L15.75 -19.45 15.5 -19.8 Q14.5 -21.45 13.8 -21.75 11.0 -23.05 9.1 -23.35 L7.7 -23.6 7.5 -24.0 5.7 -23.65 5.65 -23.75 5.5 -24.0 Q4.45 -24.25 3.9 -24.0 L3.35 -24.3 2.1 -24.05 -13.4 -23.3 -14.35 -23.25 -20.0 -22.0 -22.4 -21.45 -24.05 -20.95 -29.85 -19.25 Q-31.85 -18.7 -36.0 -16.45 -39.3 -14.7 -41.0 -13.6 -49.5 -7.75 -56.0 0.3 -60.05 5.4 -62.65 10.9 -64.0 13.7 -64.95 16.6 L-66.05 20.5 -66.0 21.1 -66.95 24.9 -67.0 25.1 -67.05 25.25 -67.9 32.2 -68.0 32.15 -68.0 32.2 -68.5 40.05 -68.6 42.25 -68.5 44.55 -67.85 45.55 -63.65 46.05 -56.85 46.5 -54.45 46.45 -50.0 46.3 Q-50.45 45.45 -50.7 44.0 L-51.0 40.85 -50.95 38.6 -51.0 38.6 -51.0 38.4 Q-51.0 32.25 -48.7 24.9 L-47.2 20.45 Q-45.15 15.05 -42.8 10.9 L-40.0 6.55 Q-33.7 -1.9 -22.85 -8.5 L-22.4 -8.75 -18.2 -11.9 Q-15.9 -13.75 -13.85 -14.6 L-13.4 -14.85 Q-10.45 -16.5 -7.5 -17.4 -1.75 -19.2 9.55 -19.5 L9.75 -19.35 9.75 -19.4 Q10.65 -18.75 12.0 -18.75 13.3 -18.75 14.2 -19.4 L15.5 -19.45 M14.35 -12.1 L17.5 -12.75 17.5 -15.0 16.35 -16.15 Q15.65 -16.85 15.55 -17.5 L14.6 -17.2 14.25 -17.15 11.9 -16.4 11.5 -16.65 10.5 -16.15 7.75 -15.15 Q1.05 -13.1 -1.75 -10.8 L-1.85 -10.75 -6.15 -6.2 -8.65 -3.4 Q-7.5 -3.1 -5.95 -1.7 -4.0 0.05 -3.25 0.05 -2.25 0.05 -0.25 -1.95 L0.0 -2.2 1.1 -3.45 1.35 -3.75 2.55 -5.1 4.5 -7.35 8.65 -10.25 Q10.3 -11.15 14.35 -12.1 M19.5 11.3 L19.25 12.2 19.05 12.4 17.75 13.75 Q18.5 14.1 19.1 15.0 20.1 16.5 20.5 16.5 L23.5 14.35 Q24.85 13.3 25.95 12.75 L26.8 12.35 31.3 8.75 Q32.85 7.05 34.0 3.85 35.0 0.95 35.0 -1.05 35.0 -3.05 34.0 -4.4 L34.0 -4.45 33.65 -6.2 33.6 -6.35 33.3 -7.0 32.4 -7.55 32.35 -7.6 27.5 -11.0 23.05 -13.05 19.5 -14.6 19.35 -16.15 19.85 -16.05 19.8 -16.1 19.25 -16.4 19.5 -14.0 Q19.5 -12.6 19.05 -11.8 20.85 -11.1 24.05 -7.8 29.0 -2.75 29.0 -0.05 29.0 0.85 26.05 3.75 23.25 6.5 22.75 6.5 21.15 6.5 20.05 3.8 18.8 0.65 15.35 -0.95 L15.35 -0.9 17.5 4.65 Q19.5 10.15 19.5 11.05 L19.5 11.1 19.5 11.3 M7.75 -22.5 L7.8 -22.4 7.75 -22.4 7.75 -22.5 M6.5 -17.85 L3.35 -17.45 -0.85 -16.75 Q-3.0 -15.8 -4.5 -15.5 L-6.1 -15.15 -6.6 -15.0 Q-7.75 -15.1 -8.35 -14.45 -9.15 -14.35 -9.75 -13.85 L-9.5 -14.05 -9.8 -13.95 -12.5 -12.6 -13.4 -12.0 -14.05 -11.6 -14.0 -11.5 Q-15.5 -10.8 -15.5 -8.85 L-15.5 -8.3 -16.0 -7.4 Q-16.0 -6.5 -13.4 -5.2 L-12.4 -4.75 -11.05 -4.15 Q-9.65 -6.7 -3.85 -12.05 L-3.25 -12.6 Q-0.75 -14.75 4.25 -16.4 L8.0 -17.7 8.05 -17.7 8.85 -17.55 9.7 -18.05 9.55 -18.15 8.55 -18.05 7.9 -18.0 6.5 -17.85 M4.5 -4.35 L1.1 -0.4 0.55 0.3 0.8 0.65 1.25 1.3 1.45 1.3 1.65 1.3 1.85 1.3 2.05 1.3 10.55 0.0 10.75 -0.05 Q11.65 -0.4 12.4 -0.85 14.6 -2.15 15.75 -4.6 L16.15 -5.4 17.05 -8.55 17.0 -8.85 16.75 -10.45 16.75 -10.5 17.25 -10.65 16.35 -10.4 15.3 -10.1 15.05 -10.0 11.3 -8.65 Q8.45 -7.4 6.05 -5.75 L4.5 -4.35 M16.75 -2.5 Q19.05 -2.5 20.5 0.1 L22.55 3.55 Q23.25 3.45 24.9 1.85 26.5 0.3 26.5 -0.1 26.5 -2.2 22.15 -6.7 L19.0 -10.0 19.0 -9.0 Q19.0 -5.75 16.7 -2.55 L16.65 -2.5 16.75 -2.5 M30.55 -21.25 L30.0 -18.05 Q30.0 -16.9 30.75 -15.05 31.5 -13.15 31.5 -12.25 L31.5 -11.95 32.75 -11.9 33.55 -11.6 36.5 -12.85 Q37.8 -13.25 41.15 -14.6 L42.45 -14.5 43.0 -16.3 Q43.0 -18.95 42.0 -21.0 40.45 -24.25 36.9 -24.25 32.05 -24.25 30.55 -21.25 M33.0 -7.75 L32.9 -7.75 33.0 -7.65 33.0 -7.75 M34.7 -9.0 L34.1 -8.4 34.3 -8.25 Q39.0 -9.3 41.15 -3.8 42.3 -0.85 42.5 3.0 L43.0 2.45 44.25 0.25 44.5 -2.55 44.5 -2.85 Q43.3 -11.35 42.25 -11.35 37.45 -11.35 35.4 -9.85 L34.7 -9.0 M35.6 -6.0 Q35.6 -5.65 36.05 -5.45 L36.4 -4.5 36.75 -3.2 37.0 -1.0 Q37.0 3.25 35.5 6.6 L36.0 6.35 35.2 7.4 Q37.4 6.9 38.25 6.3 L40.2 4.95 40.75 4.6 Q40.25 3.7 40.05 2.35 L39.5 -1.5 Q39.0 -3.4 37.85 -4.9 36.6 -6.65 35.05 -6.85 L35.6 -6.35 35.6 -6.0 M13.05 13.5 L14.8 12.65 Q15.75 12.2 17.0 11.9 16.9 9.7 15.5 5.6 L14.0 1.1 14.1 0.5 14.0 0.3 14.0 0.35 Q12.2 1.75 10.0 2.55 10.65 3.15 11.15 4.5 L12.0 7.8 Q12.65 10.2 13.0 13.3 L13.0 13.5 13.05 13.5 M6.05 3.4 L4.0 3.5 0.7 3.2 Q2.05 4.65 2.6 7.25 3.15 9.9 3.5 14.8 L3.8 14.8 4.65 14.5 8.05 14.1 8.0 13.25 8.0 11.85 Q8.0 9.15 7.0 7.25 L7.0 3.3 6.05 3.4 M0.7 8.9 L0.45 8.1 -0.45 6.15 Q-1.55 7.1 -3.4 8.0 L-4.95 8.65 Q-8.45 9.95 -13.4 10.35 L-17.75 10.5 -17.8 10.5 -22.4 10.25 Q-27.5 9.6 -31.45 7.55 -34.1 6.2 -35.65 4.65 L-38.25 7.85 -38.1 7.95 Q-38.65 8.35 -38.85 9.1 L-38.9 9.1 Q-40.0 9.75 -40.0 10.75 L-39.95 10.95 -42.35 17.25 -42.9 18.65 -39.55 16.3 Q-38.4 15.55 -37.15 14.9 L-36.5 15.0 -35.4 14.9 -35.1 14.75 -35.0 13.5 -34.75 13.75 -33.0 13.0 Q-31.25 12.3 -28.75 11.95 L-25.5 11.6 -18.5 11.85 -15.5 12.5 Q-13.9 12.8 -13.3 13.25 L-12.8 13.6 -12.15 14.0 -4.1 15.1 -3.05 15.15 -3.0 15.25 -1.75 15.5 Q-0.5 15.5 -1.0 15.3 L1.85 15.45 1.3 11.25 0.8 12.2 1.0 11.0 Q1.0 9.8 0.6 9.1 L0.8 9.2 0.7 8.9 M4.15 16.95 L3.5 17.0 3.35 17.2 Q3.15 17.2 3.05 17.5 L-0.8 17.5 -0.6 19.3 -0.5 24.5 1.5 23.25 Q3.2 22.35 4.55 22.2 L4.5 19.35 Q4.5 17.9 4.85 17.0 L4.15 16.95 M0.0 26.5 L-0.7 26.25 -0.8 26.15 -2.25 27.05 Q-4.2 28.0 -6.5 28.0 L-8.6 27.85 Q-8.85 28.85 -9.9 29.25 -11.75 30.0 -17.75 30.0 L-18.5 29.95 -18.6 30.2 -18.85 30.5 -22.9 30.65 -27.0 31.0 -31.6 31.0 -31.8 30.85 -31.95 30.45 -32.75 30.5 Q-33.5 30.5 -40.5 28.3 L-42.0 28.5 Q-44.6 28.5 -45.9 27.15 L-46.85 30.35 -46.35 30.45 -45.05 31.05 -43.65 31.35 -42.7 32.15 Q-40.6 33.25 -28.5 33.25 -13.2 33.25 -3.15 29.6 1.45 27.95 5.45 25.65 L5.0 24.7 4.1 25.15 0.0 26.5 M-11.45 -1.4 Q-12.5 -1.65 -13.4 -2.0 -15.0 -2.7 -16.15 -3.75 -18.0 -5.55 -18.0 -7.25 L-17.95 -9.05 -22.35 -6.25 -22.4 -6.2 Q-26.95 -3.5 -31.35 0.4 L-30.65 0.6 -28.55 1.9 -28.55 2.0 Q-26.3 3.25 -22.4 3.85 L-15.75 4.25 -15.25 4.25 -13.4 4.25 Q-5.75 4.15 -4.3 3.15 L-4.0 2.45 -5.3 1.6 -10.15 -1.85 -10.5 -1.5 -10.4 -1.2 -11.45 -1.4 M-33.8 3.2 L-30.95 5.0 Q-27.3 7.25 -22.4 7.95 L-17.75 8.25 -13.4 8.1 Q-7.85 7.7 -4.5 6.15 -2.75 5.35 -1.35 4.55 L-1.85 3.75 Q-2.5 4.4 -4.25 5.05 -7.6 6.3 -13.4 6.5 L-15.25 6.5 -22.4 6.3 -26.1 5.75 Q-27.6 5.3 -30.4 3.2 L-30.55 3.25 -31.25 2.55 -32.5 1.55 -32.2 1.3 -32.25 1.2 -34.05 2.95 -34.15 3.05 -33.8 3.2 M-1.0 1.95 L-0.75 2.1 -0.85 1.8 -1.0 1.95 M-11.0 16.75 L-10.95 16.75 -11.0 16.75 -13.8 15.7 Q-15.65 14.9 -17.45 14.45 L-17.5 14.45 -17.5 14.5 -17.5 19.0 -17.0 19.0 -17.0 19.15 -16.8 19.95 -17.5 20.0 -17.5 20.5 -17.7 21.1 -17.95 21.35 -17.9 23.0 -18.0 27.75 -17.0 27.75 -16.95 27.45 -16.75 27.05 -13.0 27.0 -10.7 27.05 -10.0 26.1 -10.0 22.8 -10.15 21.45 -11.0 21.25 -11.0 19.2 -11.05 19.2 -11.15 18.9 -11.0 18.9 -11.0 16.75 M-20.0 15.85 Q-19.85 14.7 -19.25 14.05 L-22.75 13.75 -26.0 13.95 -26.65 15.65 -27.5 18.0 -27.5 18.95 -27.3 18.95 -27.45 19.25 -27.5 19.35 -27.5 19.8 Q-27.65 20.65 -28.15 21.15 L-28.85 24.25 -28.9 24.9 -29.15 27.15 Q-29.35 28.1 -29.7 28.85 L-26.5 28.75 -25.55 28.55 -20.0 28.5 -20.0 20.0 -20.5 19.95 -20.55 19.0 -19.95 19.0 -20.0 17.4 -20.0 15.85 M-4.4 17.5 L-5.0 17.0 -5.8 17.5 -9.0 17.2 -8.95 18.0 -8.95 18.85 -8.25 18.85 Q-7.85 19.9 -7.9 21.45 L-8.0 25.8 -3.0 24.7 -2.55 24.6 -2.9 22.9 -3.0 19.3 -3.2 17.5 -4.4 17.5 M-33.0 15.55 L-34.2 16.0 -36.6 20.75 Q-37.1 21.65 -37.7 24.9 L-37.8 25.35 -38.2 26.4 -36.2 26.75 -31.95 28.85 Q-31.9 27.5 -31.35 25.65 L-31.1 24.9 -30.5 22.3 -30.5 18.75 -30.0 17.45 -29.85 17.55 -29.65 16.1 -29.05 14.4 Q-31.05 14.8 -33.0 15.55 M-37.75 17.8 L-40.6 19.45 Q-42.35 20.5 -43.0 20.5 L-43.6 20.45 -45.2 24.6 -44.7 24.9 -44.25 25.4 Q-43.6 26.25 -42.0 26.25 -41.15 26.25 -40.4 24.9 L-39.55 22.9 Q-38.4 19.05 -37.85 18.0 L-37.75 17.8" fill="#000000" fill-rule="evenodd" stroke="none"/>
    <path d="M23.2 -28.9 L23.5 -29.6 24.4 -30.65 24.85 -31.1 26.55 -30.85 25.6 -30.0 Q24.6 -29.05 24.5 -28.05 L23.2 -28.9 M10.5 -16.15 L10.5 -16.1 Q11.15 -15.7 12.4 -13.55 13.1 -12.4 14.35 -12.1 10.3 -11.15 8.65 -10.25 L4.5 -7.35 2.55 -5.1 1.05 -7.25 -1.25 -10.3 -1.75 -10.8 Q1.05 -13.1 7.75 -15.15 L10.5 -16.15 M6.5 -17.85 L8.05 -17.7 8.0 -17.7 4.25 -16.4 Q-0.75 -14.75 -3.25 -12.6 L-3.85 -12.05 -4.2 -12.6 -6.1 -15.15 -4.5 -15.5 Q-3.0 -15.8 -0.85 -16.75 L3.35 -17.45 6.5 -17.85 M0.0 -2.2 L-0.25 -1.95 -0.6 -2.5 0.0 -2.2 M10.75 -0.05 L11.0 -0.5 8.7 -2.5 6.5 -4.35 Q5.4 -5.05 4.95 -4.7 L4.5 -4.35 6.05 -5.75 Q8.45 -7.4 11.3 -8.65 L11.15 -8.55 Q11.45 -7.55 12.3 -6.1 13.6 -4.0 14.5 -3.5 L15.85 -4.8 16.15 -5.4 15.75 -4.6 Q14.6 -2.15 12.4 -0.85 11.65 -0.4 10.75 -0.05 M33.0 -7.75 L33.0 -7.65 32.9 -7.75 33.0 -7.75 M-4.95 8.65 L-5.3 9.5 -5.2 9.3 -4.4 8.8 -4.5 10.5 Q-4.55 12.85 -4.1 15.1 L-12.15 14.0 -12.8 13.6 -13.3 13.25 Q-13.9 12.8 -15.5 12.5 L-18.5 11.85 -18.0 10.9 -17.8 10.5 -17.75 10.5 -13.4 10.35 Q-8.45 9.95 -4.95 8.65 M-15.75 4.25 L-13.4 1.15 -13.3 1.0 -11.45 -1.4 -10.4 -1.2 -10.5 -1.5 -10.15 -1.85 -5.3 1.6 -4.0 2.45 -4.3 3.15 Q-5.75 4.15 -13.4 4.25 L-15.25 4.25 -15.75 4.25 M-6.0 11.15 L-5.8 10.6 -6.1 11.35 -6.0 11.15" fill="#915e3c" fill-rule="evenodd" stroke="none"/>
    <path d="M21.5 -29.9 L21.5 -29.85 Q18.2 -31.55 16.1 -31.35 L15.0 -32.35 Q13.25 -33.7 12.0 -32.85 12.15 -31.4 13.85 -30.3 L15.05 -29.5 Q15.3 -28.55 17.0 -26.1 L19.5 -22.1 21.1 -17.95 18.5 -19.0 18.5 -19.25 Q18.5 -21.65 14.4 -23.5 L13.35 -23.95 13.5 -24.35 Q13.5 -25.7 11.4 -28.05 10.4 -29.15 9.5 -29.5 7.85 -32.3 6.15 -34.05 L11.95 -33.8 Q16.55 -33.7 19.5 -32.0 20.1 -31.65 21.65 -31.45 21.5 -31.0 21.5 -29.9 M16.7 -2.55 Q19.0 -5.75 19.0 -9.0 L19.0 -10.0 22.15 -6.7 Q26.5 -2.2 26.5 -0.1 26.5 0.3 24.9 1.85 23.25 3.45 22.55 3.55 L20.5 0.1 Q19.05 -2.5 16.75 -2.5 L16.7 -2.55 M14.1 0.5 L14.0 1.1 15.5 5.6 Q16.9 9.7 17.0 11.9 15.75 12.2 14.8 12.65 L13.05 13.5 13.0 13.3 Q12.65 10.2 12.0 7.8 L11.15 4.5 Q10.65 3.15 10.0 2.55 12.2 1.75 14.0 0.35 L14.1 0.5 M6.05 3.4 L7.0 3.3 7.0 7.25 Q8.0 9.15 8.0 11.85 L8.0 13.25 8.05 14.1 4.65 14.5 3.8 14.8 3.5 14.8 Q3.15 9.9 2.6 7.25 2.05 4.65 0.7 3.2 L4.0 3.5 6.05 3.4 M4.15 16.95 L4.85 17.0 Q4.5 17.9 4.5 19.35 L4.55 22.2 Q3.2 22.35 1.5 23.25 L-0.5 24.5 -0.6 19.3 -0.8 17.5 3.05 17.5 Q3.15 17.2 3.35 17.2 L3.5 17.0 4.15 16.95 M-34.05 2.95 L-32.25 1.2 -32.2 1.3 -32.5 1.55 -31.25 2.55 -30.55 3.25 -30.4 3.2 Q-27.6 5.3 -26.1 5.75 L-22.4 6.3 -15.25 6.5 -13.4 6.5 Q-7.6 6.3 -4.25 5.05 -2.5 4.4 -1.85 3.75 L-1.35 4.55 Q-2.75 5.35 -4.5 6.15 -7.85 7.7 -13.4 8.1 L-17.75 8.25 -22.4 7.95 Q-27.3 7.25 -30.95 5.0 L-33.8 3.2 -34.05 2.95 M-17.45 14.45 Q-15.65 14.9 -13.8 15.7 L-11.0 16.75 -11.0 18.9 -11.15 18.9 -11.05 19.2 -11.0 19.2 -11.0 21.25 -10.15 21.45 -10.0 22.8 -10.0 26.1 -10.7 27.05 -13.0 27.0 -16.75 27.05 -16.95 27.45 -17.0 27.75 -18.0 27.75 -17.9 23.0 -17.95 21.35 -17.7 21.1 -17.5 20.5 -17.5 20.0 -16.8 19.95 -17.0 19.15 -17.0 19.0 -17.5 19.0 -17.5 14.5 -17.45 14.45 M-20.0 15.85 L-20.0 17.4 -19.95 19.0 -20.55 19.0 -20.5 19.95 -20.0 20.0 -20.0 28.5 -25.55 28.55 -26.5 28.75 -29.7 28.85 Q-29.35 28.1 -29.15 27.15 L-28.9 24.9 -28.85 24.25 -28.15 21.15 Q-27.65 20.65 -27.5 19.8 L-27.5 19.35 -27.45 19.25 -27.3 18.95 -27.5 18.95 -27.5 18.0 -26.65 15.65 -26.0 13.95 -22.75 13.75 -19.25 14.05 Q-19.85 14.7 -20.0 15.85 M-4.4 17.5 L-3.2 17.5 -3.0 19.3 -2.9 22.9 -2.55 24.6 -3.0 24.7 -8.0 25.8 -7.9 21.45 Q-7.85 19.9 -8.25 18.85 L-8.95 18.85 -8.95 18.0 -9.0 17.2 -5.8 17.5 -5.0 17.0 -4.4 17.5 M-33.0 15.55 Q-31.05 14.8 -29.05 14.4 L-29.65 16.1 -29.85 17.55 -30.0 17.45 -30.5 18.75 -30.5 22.3 -31.1 24.9 -31.35 25.65 Q-31.9 27.5 -31.95 28.85 L-36.2 26.75 -38.2 26.4 -37.8 25.35 -37.7 24.9 Q-37.1 21.65 -36.6 20.75 L-34.2 16.0 -33.0 15.55 M-37.75 17.8 L-37.85 18.0 Q-38.4 19.05 -39.55 22.9 L-40.4 24.9 Q-41.15 26.25 -42.0 26.25 -43.6 26.25 -44.25 25.4 L-44.7 24.9 -45.2 24.6 -43.6 20.45 -43.0 20.5 Q-42.35 20.5 -40.6 19.45 L-37.75 17.8" fill="#221c15" fill-rule="evenodd" stroke="none"/>
    <path d="M30.4 -24.7 L30.65 -24.6 30.5 -24.4 30.3 -24.6 30.4 -24.7 M30.55 -21.25 Q32.05 -24.25 36.9 -24.25 40.45 -24.25 42.0 -21.0 43.0 -18.95 43.0 -16.3 L42.45 -14.5 41.15 -14.6 Q37.8 -13.25 36.5 -12.85 L33.55 -11.6 32.75 -11.9 31.5 -11.95 31.5 -12.25 Q31.5 -13.15 30.75 -15.05 30.0 -16.9 30.0 -18.05 L30.55 -21.25 M35.6 -6.0 L35.6 -6.35 35.05 -6.85 Q36.6 -6.65 37.85 -4.9 39.0 -3.4 39.5 -1.5 L40.05 2.35 Q40.25 3.7 40.75 4.6 L40.2 4.95 38.25 6.3 Q37.4 6.9 35.2 7.4 L36.0 6.35 35.5 6.6 Q37.0 3.25 37.0 -1.0 L36.75 -3.2 36.4 -4.5 36.05 -5.45 Q35.6 -5.65 35.6 -6.0" fill="#aa8a71" fill-rule="evenodd" stroke="none"/>
    <path d="M14.35 -12.1 Q13.1 -12.4 12.4 -13.55 11.15 -15.7 10.5 -16.1 L10.5 -16.15 11.5 -16.65 11.9 -16.4 14.25 -17.15 14.6 -17.2 15.55 -17.5 Q15.65 -16.85 16.35 -16.15 L17.5 -15.0 17.5 -12.75 14.35 -12.1 M11.3 -8.65 L15.05 -10.0 15.3 -10.1 16.35 -10.4 16.75 -10.45 17.0 -8.85 17.05 -8.55 16.15 -5.4 15.85 -4.8 14.5 -3.5 Q13.6 -4.0 12.3 -6.1 11.45 -7.55 11.15 -8.55 L11.3 -8.65 M0.7 8.9 L0.5 8.95 0.6 9.1 Q1.0 9.8 1.0 11.0 L0.8 12.2 1.3 11.25 1.85 15.45 -1.0 15.3 Q-0.5 15.5 -1.75 15.5 L-3.0 15.25 -3.05 15.15 -4.1 15.1 Q-4.55 12.85 -4.5 10.5 L-4.4 8.8 -5.2 9.3 -5.3 9.5 -4.95 8.65 -3.4 8.0 Q-1.55 7.1 -0.45 6.15 L0.45 8.1 0.7 8.9 M-6.0 11.15 L-6.1 11.35 -5.8 10.6 -6.0 11.15" fill="#af8661" fill-rule="evenodd" stroke="none"/>
    <path d="M8.05 -17.7 L6.5 -17.85 7.9 -18.0 8.55 -18.05 9.55 -18.15 9.7 -18.05 8.85 -17.55 8.05 -17.7" fill="#524432" fill-rule="evenodd" stroke="none"/>
    <path d="M30.4 -24.7 L32.55 -28.05 33.45 -29.2 35.05 -28.75 Q37.0 -28.3 38.3 -27.25 L38.7 -26.65 38.7 -26.6 36.5 -26.9 Q33.1 -26.9 30.65 -24.6 L30.4 -24.7 M-1.75 -10.8 L-1.25 -10.3 1.05 -7.25 2.55 -5.1 1.35 -3.75 1.1 -3.45 0.0 -2.2 -0.6 -2.5 -0.25 -1.95 Q-2.25 0.05 -3.25 0.05 -4.0 0.05 -5.95 -1.7 -7.5 -3.1 -8.65 -3.4 L-6.15 -6.2 -1.85 -10.75 -1.75 -10.8 M-6.1 -15.15 L-4.2 -12.6 -3.85 -12.05 Q-9.65 -6.7 -11.05 -4.15 L-12.4 -4.75 -13.4 -5.2 Q-16.0 -6.5 -16.0 -7.4 L-15.5 -8.3 -15.5 -8.85 Q-15.5 -10.8 -14.0 -11.5 L-14.05 -11.6 -13.4 -12.0 -12.5 -12.6 -9.8 -13.95 -9.75 -13.85 Q-9.15 -14.35 -8.35 -14.45 -7.75 -15.1 -6.6 -15.0 L-6.1 -15.15 M10.75 -0.05 L10.55 0.0 2.05 1.3 1.85 1.3 1.65 1.3 1.45 1.3 1.25 1.3 0.8 0.65 0.55 0.3 1.1 -0.4 4.5 -4.35 4.95 -4.7 Q5.4 -5.05 6.5 -4.35 L8.7 -2.5 11.0 -0.5 10.75 -0.05 M34.7 -9.0 L35.4 -9.85 Q37.45 -11.35 42.25 -11.35 43.3 -11.35 44.5 -2.85 L44.5 -2.55 44.25 0.25 43.0 2.45 42.5 3.0 Q42.3 -0.85 41.15 -3.8 39.0 -9.3 34.3 -8.25 L34.1 -8.4 34.7 -9.0 M-15.75 4.25 L-22.4 3.85 Q-26.3 3.25 -28.55 2.0 L-28.55 1.9 -30.65 0.6 -31.35 0.4 Q-26.95 -3.5 -22.4 -6.2 L-22.35 -6.25 -17.95 -9.05 -18.0 -7.25 Q-18.0 -5.55 -16.15 -3.75 -15.0 -2.7 -13.4 -2.0 -12.5 -1.65 -11.45 -1.4 L-13.3 1.0 -13.4 1.15 -15.75 4.25 M-17.8 10.5 L-18.0 10.9 -18.5 11.85 -25.5 11.6 -28.75 11.95 Q-31.25 12.3 -33.0 13.0 L-34.75 13.75 -35.0 13.5 -35.1 14.75 -35.4 14.9 -36.5 15.0 -37.15 14.9 Q-38.4 15.55 -39.55 16.3 L-42.9 18.65 -42.35 17.25 -39.95 10.95 -40.0 10.75 Q-40.0 9.75 -38.9 9.1 L-38.85 9.1 Q-38.65 8.35 -38.1 7.95 L-38.25 7.85 -35.65 4.65 Q-34.1 6.2 -31.45 7.55 -27.5 9.6 -22.4 10.25 L-17.8 10.5" fill="#593924" fill-rule="evenodd" stroke="none"/>
    <path d="M13.0 13.3 L13.05 13.5 13.0 13.3" fill="#110e0a" fill-rule="evenodd" stroke="none"/>
    <path d="M15.5 -19.8 L15.5 -19.45 14.2 -19.4 Q13.3 -18.75 12.0 -18.75 10.65 -18.75 9.75 -19.4 L9.55 -19.5 Q-1.75 -19.2 -7.5 -17.4 -10.45 -16.5 -13.4 -14.85 L-13.85 -14.6 Q-15.9 -13.75 -18.2 -11.9 L-22.4 -8.75 -22.85 -8.5 Q-33.7 -1.9 -40.0 6.55 L-42.8 10.9 Q-45.15 15.05 -47.2 20.45 L-48.7 24.9 Q-51.0 32.25 -51.0 38.4 L-51.0 38.6 -50.95 38.6 -51.0 40.85 -50.7 44.0 Q-50.45 45.45 -50.0 46.3 L-54.45 46.45 -56.85 46.5 -63.65 46.05 -67.85 45.55 -68.5 44.55 -68.6 42.25 -68.5 40.05 -68.0 32.2 -67.9 32.2 -67.05 25.25 -67.0 25.1 -66.95 24.9 -66.0 21.1 -66.05 20.5 -64.95 16.6 Q-64.0 13.7 -62.65 10.9 -60.05 5.4 -56.0 0.3 -49.5 -7.75 -41.0 -13.6 -39.3 -14.7 -36.0 -16.45 -31.85 -18.7 -29.85 -19.25 L-24.05 -20.95 -22.4 -21.45 -20.0 -22.0 -14.35 -23.25 -13.4 -23.3 2.1 -24.05 3.35 -24.3 3.9 -24.0 Q4.45 -24.25 5.5 -24.0 L5.65 -23.75 5.7 -23.65 7.5 -24.0 7.7 -23.6 9.1 -23.35 Q11.0 -23.05 13.8 -21.75 14.5 -21.45 15.5 -19.8 M19.5 11.1 L19.5 11.05 Q19.5 10.15 17.5 4.65 L15.35 -0.9 15.35 -0.95 Q18.8 0.65 20.05 3.8 21.15 6.5 22.75 6.5 23.25 6.5 26.05 3.75 29.0 0.85 29.0 -0.05 29.0 -2.75 24.05 -7.8 20.85 -11.1 19.05 -11.8 19.5 -12.6 19.5 -14.0 L19.25 -16.4 19.8 -16.1 19.85 -16.05 19.35 -16.15 19.5 -14.6 23.05 -13.05 27.5 -11.0 32.35 -7.6 32.4 -7.55 33.3 -7.0 33.6 -6.35 33.65 -6.2 34.0 -4.45 34.0 -4.4 Q35.0 -3.05 35.0 -1.05 35.0 0.95 34.0 3.85 32.85 7.05 31.3 8.75 L26.8 12.35 25.95 12.75 Q24.85 13.3 23.5 14.35 L20.5 16.5 Q20.1 16.5 19.1 15.0 18.5 14.1 17.75 13.75 L19.05 12.4 19.25 12.2 19.5 11.3 19.5 11.1 M7.75 -22.5 L7.75 -22.4 7.8 -22.4 7.75 -22.5" fill="#942403" fill-rule="evenodd" stroke="none"/>
    <path d="M27.9 -14.5 L27.9 -14.55 28.0 -14.0 28.25 -13.1 24.85 -15.3 Q23.5 -17.9 21.95 -23.2 20.9 -26.1 19.1 -28.2 L20.6 -27.5 Q24.8 -25.5 25.25 -25.5 26.05 -25.5 26.25 -25.8 L26.5 -26.35 26.35 -26.5 Q26.85 -26.55 26.5 -26.6 L28.65 -29.85 30.0 -29.0 Q29.25 -28.3 28.15 -25.2 L27.85 -24.3 Q27.25 -23.8 27.2 -22.75 L27.5 -20.35 27.55 -18.1 Q27.65 -17.25 28.0 -16.6 L28.15 -14.65 27.9 -14.5 M3.8 -25.85 L3.55 -26.0 Q-8.0 -26.0 -8.0 -25.75 L-13.4 -25.05 -22.4 -23.45 -23.9 -23.1 -29.15 -21.55 -29.35 -22.0 -32.5 -22.25 -32.5 -25.1 Q-27.75 -28.4 -22.4 -30.45 L-20.6 -31.15 Q-16.5 -32.55 -16.5 -33.8 -16.5 -34.6 -16.75 -34.75 L-17.5 -35.0 -22.4 -33.1 Q-27.75 -31.0 -29.2 -30.2 -34.5 -27.35 -34.5 -23.6 -34.75 -22.6 -34.5 -21.7 -34.15 -20.55 -32.95 -20.2 -38.15 -18.15 -42.5 -15.35 -47.45 -12.15 -50.9 -8.8 -49.75 -11.85 -46.25 -15.65 -41.5 -20.75 -41.5 -22.0 -41.5 -22.8 -41.75 -22.85 L-42.5 -23.0 Q-43.95 -21.0 -50.1 -15.0 -53.5 -11.65 -53.5 -7.9 L-53.35 -6.7 -53.15 -6.45 -57.85 -0.5 Q-62.75 6.35 -64.95 10.9 -66.05 13.1 -66.5 14.8 L-68.55 22.25 -68.65 22.6 -68.55 22.8 -69.2 24.9 Q-69.95 27.65 -70.3 31.5 L-70.45 34.3 -70.6 34.95 Q-74.25 35.8 -76.15 31.55 -77.5 28.55 -77.5 25.55 L-77.4 24.9 -76.7 19.9 -76.65 17.9 -76.95 16.4 -77.0 14.05 -76.8 10.9 Q-76.15 4.95 -72.95 -2.25 -68.9 -11.45 -63.25 -17.35 -58.85 -21.9 -55.7 -24.15 -51.05 -27.5 -44.25 -29.85 L-37.65 -32.65 Q-33.1 -34.5 -27.85 -35.25 L-25.2 -35.65 -25.0 -35.6 -24.5 -35.7 Q-23.55 -36.35 -22.4 -36.7 L-21.0 -37.0 -17.9 -36.8 -13.4 -37.05 -7.65 -37.05 -4.75 -36.2 Q3.4 -33.95 4.55 -32.5 L7.15 -29.05 7.05 -29.0 7.0 -28.4 7.5 -28.05 7.5 -27.7 7.7 -27.95 7.85 -27.85 9.75 -26.35 10.55 -24.85 6.5 -25.6 3.9 -25.8 3.8 -25.85 M0.0 26.5 L4.1 25.15 5.0 24.7 5.45 25.65 Q1.45 27.95 -3.15 29.6 -13.2 33.25 -28.5 33.25 -40.6 33.25 -42.7 32.15 L-43.65 31.35 -45.05 31.05 -46.35 30.45 -46.85 30.35 -45.9 27.15 Q-44.6 28.5 -42.0 28.5 L-40.5 28.3 Q-33.5 30.5 -32.75 30.5 L-31.95 30.45 -31.8 30.85 -31.6 31.0 -27.0 31.0 -22.9 30.65 -18.85 30.5 -18.6 30.2 -18.5 29.95 -17.75 30.0 Q-11.75 30.0 -9.9 29.25 -8.85 28.85 -8.6 27.85 L-6.5 28.0 Q-4.2 28.0 -2.25 27.05 L-0.8 26.15 -0.7 26.25 0.0 26.5" fill="#731c02" fill-rule="evenodd" stroke="none"/>
  </g>
</svg>
