<?xml version="1.0" encoding="UTF-8" standalone="no"?>
<svg xmlns:ffdec="https://www.free-decompiler.com/flash" xmlns:xlink="http://www.w3.org/1999/xlink" ffdec:objectType="shape" height="94.3px" width="103.6px" xmlns="http://www.w3.org/2000/svg">
  <g transform="matrix(1.0, 0.0, 0.0, 1.0, 64.6, 45.8)">
    <path d="M22.0 -40.85 Q19.5 -38.5 19.5 -36.55 19.5 -35.8 19.85 -35.35 L20.5 -34.5 20.35 -34.0 20.55 -33.95 Q21.7 -35.5 25.2 -36.65 29.95 -38.15 34.25 -36.25 L33.35 -39.3 Q31.85 -43.25 26.65 -43.25 24.55 -43.25 22.0 -40.85 M29.05 -45.25 Q33.55 -43.8 35.25 -40.5 36.25 -38.6 36.5 -34.85 38.35 -33.0 38.8 -30.0 39.0 -28.85 39.0 -24.75 39.0 -10.5 26.5 -10.5 24.45 -10.5 23.1 -11.5 20.55 -7.5 15.0 -1.0 L14.25 -1.2 14.05 -1.5 13.75 -1.5 Q11.7 -1.5 9.45 -3.3 6.8 -5.35 5.3 -5.75 5.15 -5.9 5.1 -6.2 L2.5 -4.3 2.0 7.0 2.8 7.25 2.75 9.25 Q2.75 10.8 6.5 26.3 L6.15 26.55 5.5 27.0 5.35 26.8 Q4.85 27.85 3.0 28.4 L-7.5 31.0 -7.8 30.85 -13.5 32.5 Q-21.55 34.5 -28.0 34.5 L-33.25 33.95 Q-34.1 33.25 -35.85 32.9 L-35.5 45.15 -35.6 47.05 -36.0 47.25 Q-36.4 48.5 -41.25 48.5 L-48.7 48.05 -55.5 47.3 -56.4 46.9 -57.35 46.4 -57.5 46.5 Q-58.6 44.9 -58.6 41.85 L-58.5 39.85 -59.5 40.0 Q-63.05 40.0 -64.0 38.3 -64.7 37.0 -64.5 32.8 -64.4 31.4 -64.45 28.8 L-64.5 25.5 -64.6 9.55 Q-64.35 3.95 -61.5 -10.25 -60.8 -13.65 -59.65 -16.6 -57.1 -23.15 -52.5 -27.35 L-48.05 -30.75 Q-45.05 -32.9 -43.0 -34.85 -40.25 -37.45 -37.0 -38.4 L-33.9 -39.15 -19.5 -41.25 -14.85 -41.5 -14.65 -41.35 -14.5 -40.85 -14.15 -40.95 Q-9.65 -41.8 -6.85 -41.05 -5.65 -40.7 -4.95 -40.1 -3.85 -41.0 -0.55 -41.45 L20.7 -42.95 Q24.35 -47.05 29.05 -45.25 M23.8 -31.25 L26.25 -28.6 26.3 -28.45 Q27.35 -29.0 28.9 -29.25 L30.9 -29.4 Q34.15 -29.4 36.45 -24.7 L37.0 -23.5 37.0 -24.75 Q37.0 -28.95 36.5 -30.75 35.2 -35.25 30.9 -35.25 27.2 -35.25 24.5 -33.65 L22.95 -32.35 23.8 -31.25 M21.65 -30.1 L19.8 -31.45 19.8 -30.05 Q19.8 -27.3 21.5 -26.0 L21.15 -25.35 20.5 -25.05 20.5 -25.0 Q20.5 -24.4 20.1 -24.25 L17.0 -24.0 10.7 -24.6 9.55 -24.8 11.85 -22.7 Q17.5 -17.15 17.5 -15.0 17.5 -14.1 16.8 -13.5 16.25 -13.0 15.75 -13.0 L15.6 -13.05 13.5 -10.6 Q10.9 -8.0 9.75 -8.0 L8.0 -8.4 7.7 -8.55 6.35 -7.2 Q9.1 -6.95 10.75 -5.6 11.25 -5.0 12.95 -4.15 L14.5 -3.2 17.4 -7.25 Q21.1 -12.05 22.0 -14.75 L23.4 -17.7 Q24.35 -19.85 24.0 -20.75 L24.25 -23.85 24.5 -26.55 Q24.5 -27.8 21.65 -30.1 M26.5 -26.15 Q26.5 -18.35 24.65 -14.25 L24.05 -13.05 24.3 -13.0 26.65 -12.75 Q33.75 -12.75 36.0 -18.0 L36.55 -19.75 36.35 -18.9 35.65 -20.3 34.0 -24.1 Q31.35 -29.05 26.5 -27.2 L26.5 -26.15 M13.5 -39.5 L13.25 -37.3 13.05 -35.2 16.65 -34.65 17.3 -34.3 17.85 -34.3 17.55 -35.25 17.5 -36.75 Q17.5 -38.5 19.15 -40.9 L13.4 -40.2 13.5 -39.5 M11.0 -38.55 Q11.2 -39.45 11.9 -40.05 L11.05 -40.0 -3.2 -38.3 0.8 -37.65 2.05 -37.25 Q4.1 -37.1 6.05 -36.3 7.9 -35.5 9.0 -35.5 L11.1 -35.35 11.05 -35.55 11.0 -37.25 11.0 -38.55 M3.2 -34.85 L3.1 -34.9 2.95 -34.9 2.9 -34.95 3.0 -32.55 2.55 -29.4 3.35 -29.1 6.45 -27.25 8.45 -27.15 11.8 -26.75 13.0 -26.5 14.4 -26.9 14.4 -26.5 18.4 -26.1 18.2 -26.75 18.0 -29.2 18.0 -29.35 17.8 -32.15 17.75 -32.5 17.55 -32.55 17.4 -32.55 16.5 -32.5 14.3 -32.55 14.4 -32.3 Q13.5 -32.85 12.65 -32.7 8.35 -33.25 3.35 -34.8 L3.2 -34.85 M1.0 -32.05 L1.0 -35.25 0.55 -35.25 -0.6 -35.25 Q-2.0 -35.4 -2.85 -35.8 L-3.5 -36.1 -4.5 -36.6 Q-4.6 -35.95 -5.25 -35.05 -6.0 -34.05 -6.0 -33.25 -6.0 -32.15 -6.85 -30.25 -7.65 -28.45 -7.85 -27.05 L-8.0 -23.85 -7.5 -19.9 -7.1 -17.35 Q-6.5 -17.85 -5.65 -18.5 L-3.95 -20.1 Q-3.15 -21.05 -2.8 -21.95 L-2.75 -22.1 -0.9 -26.05 0.4 -28.5 0.85 -29.3 1.0 -29.6 1.0 -30.9 1.0 -31.3 1.0 -32.05 M12.0 -12.35 Q13.3 -14.4 15.0 -15.0 L15.0 -15.1 Q15.0 -15.75 11.75 -18.85 L11.45 -18.5 10.8 -19.5 10.15 -20.1 10.3 -20.25 9.0 -21.45 4.1 -25.95 2.8 -26.5 1.8 -26.95 0.0 -22.65 -1.5 -19.7 4.2 -14.35 4.6 -14.8 5.0 -14.15 Q5.5 -13.6 6.2 -13.5 L5.65 -13.0 8.45 -10.35 9.9 -10.8 Q11.25 -11.35 11.95 -12.2 L12.0 -12.3 12.0 -12.35 M0.5 -15.05 L-2.5 -18.25 Q-4.75 -15.25 -7.05 -15.0 L-7.1 -14.85 -7.15 -14.65 -7.8 -14.5 -7.55 -14.2 Q-5.55 -11.9 -2.9 -9.6 L-2.8 -9.95 Q-1.8 -8.85 -0.8 -8.55 L-1.3 -8.25 1.4 -6.15 3.0 -7.5 3.0 -7.55 6.0 -9.85 2.65 -12.9 2.45 -12.6 0.7 -13.95 1.25 -14.3 0.5 -15.05 M-6.85 -1.95 L0.05 -2.0 0.05 -2.15 0.55 -4.25 0.5 -5.0 0.25 -5.0 -0.5 -5.35 Q-1.25 -6.3 -2.65 -6.35 L-3.0 -6.5 -3.25 -6.35 -3.4 -6.3 -3.0 -6.55 -2.85 -6.65 -3.0 -6.7 Q-4.85 -7.85 -5.8 -8.9 L-6.1 -9.25 -6.2 -9.4 -6.25 -9.45 -9.9 -13.75 -10.0 -13.85 -10.1 -14.0 -11.1 -13.75 -14.5 -13.0 -15.8 -12.3 -16.5 -11.5 -16.7 -11.7 -17.1 -12.05 Q-17.5 -11.5 -18.0 -11.5 L-19.4 -11.65 -22.1 -12.0 -22.45 -12.0 -22.5 -12.0 Q-23.25 -12.0 -24.05 -12.55 L-25.1 -13.25 -27.15 -13.65 -27.85 -13.8 Q-30.55 -8.3 -32.1 -3.6 L-32.55 -2.2 -33.05 -0.4 -33.2 0.1 -33.0 0.1 -33.05 0.0 -33.0 -0.35 -32.45 -0.6 -24.0 -1.25 -21.65 -1.35 -21.6 -1.35 -17.0 -1.55 -11.0 -1.75 -6.85 -1.95 M-6.45 14.15 L-2.15 14.5 Q-1.35 13.55 -0.85 12.3 -0.3 8.2 0.5 6.7 L0.1 4.65 0.1 4.5 Q-5.8 4.5 -11.2 4.65 L-18.6 5.0 -21.55 5.2 Q-31.3 5.9 -34.0 7.0 L-34.6 6.8 -35.4 12.7 -35.55 14.55 -34.75 13.8 Q-32.4 12.45 -31.6 12.25 L-26.5 11.75 Q-23.25 11.25 -18.5 11.9 L-14.25 12.7 -14.0 12.5 -13.85 12.75 -7.25 14.0 -6.45 14.15 M0.0 1.5 L0.0 -0.5 Q-1.9 0.3 -11.0 0.5 L-25.1 1.1 -31.25 1.5 -32.85 1.25 -33.5 1.45 -34.2 4.55 -31.6 4.35 -31.7 3.85 Q-31.2 3.05 -16.5 2.75 L-14.35 2.55 0.0 2.5 0.0 1.5 M1.0 13.05 L-0.5 15.25 Q-0.05 16.4 0.1 19.05 0.25 21.55 2.65 21.6 1.85 19.35 2.0 17.75 2.15 16.15 1.35 13.25 L1.2 12.7 1.0 13.05 M-31.2 26.15 L-31.4 26.3 -32.75 26.5 Q-35.25 26.5 -36.05 25.8 L-36.05 27.05 -35.9 27.5 -35.95 27.5 -35.9 31.7 -32.2 31.9 -27.75 32.25 Q-20.05 32.25 -13.15 30.15 -8.6 28.75 -6.95 28.7 L-6.65 28.45 -6.55 28.4 -5.0 27.5 -0.15 26.4 Q2.75 25.9 4.3 25.15 L3.45 23.5 3.3 23.55 Q2.5 24.0 1.25 24.0 L1.0 24.0 Q0.85 24.9 0.05 25.25 L-2.75 25.5 -5.55 25.15 -5.6 25.2 -5.85 25.5 -7.5 25.6 -13.45 26.0 -14.0 26.0 -14.2 25.9 -14.25 26.0 -15.0 26.5 -17.6 26.9 -21.05 27.0 -21.25 27.3 -23.75 27.5 -27.45 27.15 Q-30.35 26.75 -31.0 26.3 L-30.95 25.95 -31.2 26.15 M-44.45 -21.0 L-44.75 -21.0 -46.0 -21.25 -46.0 -23.85 -42.65 -31.2 -41.1 -33.4 -40.5 -34.1 -41.25 -33.5 Q-42.55 -32.0 -46.0 -29.55 L-50.5 -26.1 Q-54.0 -22.7 -56.4 -17.75 L-56.9 -16.6 Q-58.15 -13.75 -59.5 -9.35 -61.05 -4.25 -61.85 7.05 -62.5 15.95 -62.5 25.05 L-62.5 31.8 Q-62.55 35.95 -62.2 36.8 -61.45 38.65 -58.45 38.25 L-58.5 37.25 -58.55 32.05 -58.5 28.15 -58.75 17.85 Q-58.85 12.6 -58.5 9.3 -57.55 0.6 -51.0 -11.1 L-47.6 -16.6 -44.45 -20.9 -44.35 -21.0 -44.45 -21.0 M-7.55 -38.5 L-9.25 -38.95 -11.5 -39.25 Q-20.9 -39.25 -32.4 -29.95 L-33.9 -28.7 Q-38.75 -24.65 -42.25 -20.35 L-44.65 -16.6 Q-51.35 -6.05 -53.85 1.75 -56.7 10.4 -56.6 23.6 L-56.5 45.25 -49.4 45.55 -37.2 46.0 Q-37.7 44.25 -37.9 40.7 L-38.0 32.25 -38.0 32.05 -37.95 26.75 -38.0 23.8 Q-38.0 15.0 -36.9 7.0 L-35.95 1.65 -34.5 -4.85 Q-33.6 -8.25 -31.15 -13.9 L-27.0 -23.25 Q-26.25 -25.0 -23.75 -28.0 -21.35 -30.95 -19.5 -32.35 L-14.1 -36.4 Q-12.1 -37.55 -9.6 -38.0 L-7.65 -38.2 -7.5 -38.5 -7.55 -38.5 M-11.0 -35.1 L-11.0 -34.9 Q-11.0 -34.7 -13.1 -29.95 L-13.15 -29.85 Q-15.3 -25.05 -15.6 -22.75 L-16.0 -16.3 -16.15 -15.0 -13.35 -15.55 -11.2 -15.7 -9.4 -15.75 Q-9.9 -16.85 -10.05 -18.95 L-10.0 -23.55 -10.0 -24.0 -9.95 -24.6 -9.35 -29.7 -9.15 -30.55 -8.9 -31.7 Q-8.05 -34.75 -6.75 -36.55 L-6.55 -36.85 -6.95 -36.75 -7.2 -36.65 -7.4 -36.6 -7.3 -36.65 -7.8 -36.7 -8.1 -36.55 -8.2 -36.5 -9.4 -35.9 -10.5 -35.4 -11.0 -35.2 -11.0 -35.1 M-15.05 -31.9 L-15.75 -31.2 -20.4 -26.25 -21.0 -25.5 Q-23.1 -22.8 -24.6 -20.1 L-26.75 -16.0 -26.85 -15.85 -26.7 -15.85 -25.35 -15.6 Q-22.95 -14.4 -21.6 -13.95 L-21.5 -14.0 -20.0 -14.15 Q-18.5 -14.4 -18.5 -14.6 L-18.5 -16.1 Q-18.5 -17.55 -18.0 -19.1 L-17.7 -23.5 -17.5 -25.1 Q-17.15 -27.4 -15.55 -30.5 L-14.9 -31.75 -14.65 -32.25 -15.05 -31.9 M-35.0 -36.3 L-39.25 -32.5 Q-43.5 -28.05 -43.5 -22.0 -39.65 -26.5 -34.6 -30.75 L-33.9 -31.3 Q-27.95 -36.2 -21.6 -38.75 L-33.9 -36.6 -34.05 -36.55 -35.0 -36.3 M-8.5 -3.55 Q-9.05 -3.25 -9.7 -3.1 L-9.5 -3.25 -8.5 -3.55 M-13.05 15.0 Q-12.9 16.15 -12.9 17.55 L-13.0 23.25 -9.4 23.4 -9.25 23.3 -9.15 23.4 -7.0 23.45 -7.0 23.25 -6.9 21.9 -7.0 20.55 -7.75 18.3 -8.35 16.35 -11.7 15.4 -13.05 15.0 M-15.25 14.5 L-21.5 13.8 Q-20.85 15.75 -20.9 18.5 L-21.0 24.3 -15.1 24.05 -15.0 22.75 -15.0 19.5 -15.15 18.65 -15.5 18.55 -15.15 18.55 -15.4 16.15 -15.25 14.5 M-5.0 17.0 L-5.3 17.0 -5.25 17.55 -5.0 22.8 -2.35 22.95 -0.6 22.6 -1.45 20.3 -1.95 16.9 -2.25 16.95 -3.05 17.5 -3.2 17.0 -5.0 17.0 M-35.95 23.35 L-34.35 23.25 -33.75 24.3 -32.45 24.45 Q-32.35 23.7 -31.6 23.3 -30.75 22.8 -31.0 21.8 L-31.0 18.8 -31.15 15.85 -31.0 14.45 Q-32.8 14.9 -33.5 15.65 L-33.8 16.3 -33.65 16.95 -34.35 17.65 Q-34.7 18.25 -35.5 18.5 L-35.8 18.4 -35.8 18.5 -36.0 23.35 -36.0 23.4 -35.95 23.35 M-29.05 16.2 L-29.0 19.35 -29.05 24.7 -23.0 25.0 -23.0 13.75 -29.45 14.15 -29.05 16.2" fill="#000000" fill-rule="evenodd" stroke="none"/>
    <path d="M11.0 -38.55 L11.0 -37.25 11.05 -35.55 11.1 -35.35 9.0 -35.5 Q7.9 -35.5 6.05 -36.3 4.1 -37.1 2.05 -37.25 L0.8 -37.65 -3.2 -38.3 11.05 -40.0 11.9 -40.05 Q11.2 -39.45 11.0 -38.55 M2.95 -34.9 L3.2 -34.85 3.35 -34.8 Q8.35 -33.25 12.65 -32.7 13.5 -32.85 14.4 -32.3 L14.3 -32.55 16.5 -32.5 17.4 -32.55 17.55 -32.55 17.8 -32.15 18.0 -29.35 18.0 -29.2 18.2 -26.75 18.4 -26.1 14.4 -26.5 14.4 -26.9 13.0 -26.5 11.8 -26.75 8.45 -27.15 6.45 -27.25 3.35 -29.1 2.55 -29.4 3.0 -32.55 2.9 -34.95 2.95 -34.9 M11.95 -12.2 Q11.25 -11.35 9.9 -10.8 L8.45 -10.35 5.65 -13.0 6.2 -13.5 Q5.5 -13.6 5.0 -14.15 L4.6 -14.8 4.2 -14.35 -1.5 -19.7 0.0 -22.65 1.8 -26.95 2.8 -26.5 4.1 -25.95 9.0 -21.45 10.3 -20.25 10.15 -20.1 10.8 -19.5 11.45 -18.5 11.75 -18.85 Q15.0 -15.75 15.0 -15.1 L15.0 -15.0 Q13.3 -14.4 12.0 -12.35 L11.9 -12.2 11.95 -12.2 M0.5 -15.05 L1.25 -14.3 0.7 -13.95 2.45 -12.6 2.65 -12.9 6.0 -9.85 3.0 -7.55 3.0 -7.5 1.4 -6.15 -1.3 -8.25 -0.8 -8.55 Q-1.8 -8.85 -2.8 -9.95 L-2.9 -9.6 Q-5.55 -11.9 -7.55 -14.2 L-7.8 -14.5 -7.15 -14.65 -7.1 -14.85 -7.05 -15.0 Q-4.75 -15.25 -2.5 -18.25 L0.5 -15.05 M-3.0 -6.55 L-3.0 -6.7 -2.85 -6.65 -3.0 -6.55 M-22.45 -12.0 L-22.1 -12.0 -22.45 -12.0 M-10.0 -13.85 L-9.9 -13.75 -10.25 -13.6 -10.0 -13.85 M1.35 13.25 Q2.15 16.15 2.0 17.75 1.85 19.35 2.65 21.6 0.25 21.55 0.1 19.05 -0.05 16.4 -0.5 15.25 L1.0 13.05 1.35 13.25 M0.0 1.5 L0.0 2.5 -14.35 2.55 -16.5 2.75 Q-31.2 3.05 -31.7 3.85 L-31.6 4.35 -34.2 4.55 -33.5 1.45 -32.85 1.25 -31.25 1.5 -25.1 1.1 -11.0 0.5 Q-1.9 0.3 0.0 -0.5 L0.0 1.5 M-26.7 -15.85 L-26.85 -15.85 -26.75 -16.0 -26.7 -15.85 M-35.5 18.5 Q-34.7 18.25 -34.35 17.65 L-33.65 16.95 -33.8 16.3 -33.5 15.65 Q-32.8 14.9 -31.0 14.45 L-31.15 15.85 -31.0 18.8 -31.0 21.8 Q-30.75 22.8 -31.6 23.3 -32.35 23.7 -32.45 24.45 L-33.75 24.3 -34.35 23.25 -35.95 23.35 -36.0 23.35 -35.8 18.5 -35.5 18.5 M-5.0 17.0 L-3.2 17.0 -3.05 17.5 -2.25 16.95 -1.95 16.9 -1.45 20.3 -0.6 22.6 -2.35 22.95 -5.0 22.8 -5.25 17.55 -5.3 17.0 -5.0 17.0 M-15.25 14.5 L-15.4 16.15 -15.15 18.55 -15.5 18.55 -15.15 18.65 -15.0 19.5 -15.0 22.75 -15.1 24.05 -21.0 24.3 -20.9 18.5 Q-20.85 15.75 -21.5 13.8 L-15.25 14.5 M-13.05 15.0 L-11.7 15.4 -8.35 16.35 -7.75 18.3 -7.0 20.55 -6.9 21.9 -7.0 23.25 -7.0 23.45 -9.15 23.4 -9.25 23.3 -9.4 23.4 -13.0 23.25 -12.9 17.55 Q-12.9 16.15 -13.05 15.0 M-29.05 16.2 L-29.45 14.15 -23.0 13.75 -23.0 25.0 -29.05 24.7 -29.0 19.35 -29.05 16.2" fill="#221c15" fill-rule="evenodd" stroke="none"/>
    <path d="M17.55 -32.55 L17.75 -32.5 17.8 -32.15 17.55 -32.55 M1.0 -31.3 L1.0 -30.9 0.85 -29.3 0.4 -28.5 0.7 -29.05 1.0 -31.3 M-0.9 -26.05 L-2.75 -22.1 -2.8 -21.95 Q-3.15 -21.05 -3.95 -20.1 L-4.5 -20.25 -4.5 -24.75 Q-3.55 -31.75 -3.5 -36.1 L-2.85 -35.8 Q-2.0 -35.4 -0.6 -35.25 L-0.95 -35.3 -1.25 -34.5 -1.5 -30.6 -1.45 -27.8 -0.9 -26.05 M11.95 -12.2 L11.9 -12.2 12.0 -12.3 11.95 -12.2 M-5.8 -8.9 L-6.75 -4.6 -6.85 -1.95 -11.0 -1.75 -17.0 -1.55 -17.0 -9.35 -16.7 -11.7 -16.5 -11.5 -15.8 -12.3 -14.5 -13.0 -11.1 -13.75 -10.1 -14.0 -10.0 -13.85 -10.25 -13.6 -9.9 -13.75 -6.25 -9.45 -6.2 -9.4 -6.1 -9.25 -5.8 -8.9 M-11.2 4.7 L-6.3 4.55 -6.2 4.55 -6.0 8.0 -6.45 14.15 -7.25 14.0 -13.85 12.75 -14.0 12.5 -14.25 12.7 -18.5 11.9 -18.5 5.0 -11.2 4.7 M-13.15 -29.85 L-13.1 -29.95 Q-11.0 -34.7 -11.0 -34.9 L-11.0 -35.1 -10.85 -35.25 -10.6 -35.35 Q-11.0 -34.4 -11.0 -31.85 -11.5 -29.25 -11.5 -23.8 L-11.2 -15.7 -13.35 -15.55 -13.4 -15.7 -13.5 -21.35 -13.65 -25.05 Q-13.65 -28.05 -13.15 -29.85 M-6.95 -36.75 L-6.55 -36.85 -6.75 -36.55 -6.95 -36.75 M-15.75 -31.2 L-15.55 -30.5 Q-17.15 -27.4 -17.5 -25.1 L-17.7 -23.5 -17.75 -22.9 -18.0 -23.1 -18.6 -21.95 -19.5 -21.0 -20.55 -23.0 -21.0 -25.15 -21.0 -25.5 -20.4 -26.25 -15.75 -31.2 M-10.85 -3.0 L-11.25 -3.0 -10.85 -3.0 M-8.5 -3.55 L-9.5 -3.25 -9.7 -3.1 Q-9.05 -3.25 -8.5 -3.55" fill="#915e3c" fill-rule="evenodd" stroke="none"/>
    <path d="M22.0 -40.85 Q24.55 -43.25 26.65 -43.25 31.85 -43.25 33.35 -39.3 L34.25 -36.25 Q29.95 -38.15 25.2 -36.65 21.7 -35.5 20.55 -33.95 L20.35 -34.0 20.5 -34.5 19.85 -35.35 Q19.5 -35.8 19.5 -36.55 19.5 -38.5 22.0 -40.85 M26.5 -26.15 L26.5 -27.2 Q31.35 -29.05 34.0 -24.1 L35.65 -20.3 36.35 -18.9 36.55 -19.75 36.0 -18.0 Q33.75 -12.75 26.65 -12.75 L24.3 -13.0 24.05 -13.05 24.65 -14.25 Q26.5 -18.35 26.5 -26.15" fill="#aa8a71" fill-rule="evenodd" stroke="none"/>
    <path d="M2.95 -34.9 L3.1 -34.9 3.2 -34.85 2.95 -34.9 M-9.4 -35.9 L-8.2 -36.5 -8.1 -36.55 -7.8 -36.7 -7.6 -36.55 -9.4 -35.9 M-10.85 -3.0 L-11.25 -3.0 -10.85 -3.0" fill="#524432" fill-rule="evenodd" stroke="none"/>
    <path d="M0.55 -35.25 L0.7 -34.9 Q0.95 -34.35 1.0 -32.05 L1.0 -31.3 0.7 -29.05 0.4 -28.5 -0.9 -26.05 -1.45 -27.8 -1.5 -30.6 -1.25 -34.5 -0.95 -35.3 -0.6 -35.25 0.55 -35.25 M11.9 -12.2 L12.0 -12.35 12.0 -12.3 11.9 -12.2 M-3.0 -6.55 L-3.4 -6.3 -3.25 -6.35 -3.0 -6.5 -2.65 -6.35 Q-1.25 -6.3 -0.5 -5.35 L0.25 -5.0 0.5 -5.0 0.55 -4.25 0.05 -2.15 0.05 -2.0 -6.85 -1.95 -6.75 -4.6 -5.8 -8.9 Q-4.85 -7.85 -3.0 -6.7 L-3.0 -6.55 M-11.2 4.65 Q-5.8 4.5 0.1 4.5 L0.1 4.65 0.5 6.7 Q-0.3 8.2 -0.85 12.3 -1.35 13.55 -2.15 14.5 L-6.45 14.15 -6.0 8.0 -6.2 4.55 -6.3 4.55 -11.2 4.7 -11.2 4.65 M-11.2 -15.7 L-11.5 -23.8 Q-11.5 -29.25 -11.0 -31.85 -11.0 -34.4 -10.6 -35.35 L-10.5 -35.4 -9.4 -35.9 -7.6 -36.55 -7.8 -36.7 -7.3 -36.65 -7.4 -36.6 -7.2 -36.65 -6.95 -36.75 -6.75 -36.55 Q-8.05 -34.75 -8.9 -31.7 L-9.15 -30.55 -9.2 -30.4 -9.35 -29.7 -9.95 -24.6 -10.0 -24.0 -10.0 -23.55 -10.05 -18.95 Q-9.9 -16.85 -9.4 -15.75 L-11.2 -15.7" fill="#af8661" fill-rule="evenodd" stroke="none"/>
    <path d="M23.8 -31.25 L22.95 -32.35 24.5 -33.65 Q27.2 -35.25 30.9 -35.25 35.2 -35.25 36.5 -30.75 37.0 -28.95 37.0 -24.75 L37.0 -23.5 36.45 -24.7 Q34.15 -29.4 30.9 -29.4 L28.9 -29.25 Q27.35 -29.0 26.3 -28.45 L26.25 -28.6 23.8 -31.25 M0.55 -35.25 L1.0 -35.25 1.0 -32.05 Q0.95 -34.35 0.7 -34.9 L0.55 -35.25 M1.0 -30.9 L1.0 -29.6 0.85 -29.3 1.0 -30.9 M-3.95 -20.1 L-5.65 -18.5 Q-6.5 -17.85 -7.1 -17.35 L-7.5 -19.9 -8.0 -23.85 -7.85 -27.05 Q-7.65 -28.45 -6.85 -30.25 -6.0 -32.15 -6.0 -33.25 -6.0 -34.05 -5.25 -35.05 -4.6 -35.95 -4.5 -36.6 L-3.5 -36.1 Q-3.55 -31.75 -4.5 -24.75 L-4.5 -20.25 -3.95 -20.1 M-17.0 -1.55 L-21.6 -1.35 -21.6 -1.5 -21.65 -1.5 -21.65 -1.35 -24.0 -1.25 -32.45 -0.6 -33.0 -0.35 -33.05 -0.4 -32.55 -2.2 -32.1 -3.6 Q-30.55 -8.3 -27.85 -13.8 L-27.15 -13.65 -25.1 -13.25 -24.05 -12.55 Q-23.25 -12.0 -22.5 -12.0 L-22.45 -12.0 -22.1 -12.0 -19.4 -11.65 -18.0 -11.5 Q-17.5 -11.5 -17.1 -12.05 L-16.7 -11.7 -17.0 -9.35 -17.0 -1.55 M-11.2 4.65 L-11.2 4.7 -18.5 5.0 -18.5 11.9 Q-23.25 11.25 -26.5 11.75 L-31.6 12.25 Q-32.4 12.45 -34.75 13.8 L-35.55 14.55 -35.4 12.7 -34.6 6.8 -34.0 7.0 Q-31.3 5.9 -21.55 5.2 L-18.6 5.0 -11.2 4.65 M-13.15 -29.85 Q-13.65 -28.05 -13.65 -25.05 L-13.5 -21.35 -13.4 -15.7 -13.35 -15.55 -16.15 -15.0 -16.0 -16.3 -15.6 -22.75 Q-15.3 -25.05 -13.15 -29.85 M-10.6 -35.35 L-10.85 -35.25 -11.0 -35.1 -11.0 -35.2 -10.5 -35.4 -10.6 -35.35 M-9.15 -30.55 L-9.35 -29.7 -9.2 -30.4 -9.15 -30.55 M-15.05 -31.9 L-14.9 -31.75 -15.55 -30.5 -15.75 -31.2 -15.05 -31.9 M-21.0 -25.5 L-21.0 -25.15 -20.55 -23.0 -19.5 -21.0 -18.6 -21.95 -18.0 -23.1 -17.75 -22.9 -17.7 -23.5 -18.0 -19.1 Q-18.5 -17.55 -18.5 -16.1 L-18.5 -14.6 Q-18.5 -14.4 -20.0 -14.15 L-21.5 -14.0 -21.6 -13.95 Q-22.95 -14.4 -25.35 -15.6 L-26.7 -15.85 -26.75 -16.0 -24.6 -20.1 Q-23.1 -22.8 -21.0 -25.5" fill="#593924" fill-rule="evenodd" stroke="none"/>
    <path d="M21.65 -30.1 Q24.5 -27.8 24.5 -26.55 L24.25 -23.85 24.0 -20.75 Q24.35 -19.85 23.4 -17.7 L22.0 -14.75 Q21.1 -12.05 17.4 -7.25 L14.5 -3.2 12.95 -4.15 Q11.25 -5.0 10.75 -5.6 9.1 -6.95 6.35 -7.2 L7.7 -8.55 8.0 -8.4 9.75 -8.0 Q10.9 -8.0 13.5 -10.6 L15.6 -13.05 15.75 -13.0 Q16.25 -13.0 16.8 -13.5 17.5 -14.1 17.5 -15.0 17.5 -17.15 11.85 -22.7 L9.55 -24.8 10.7 -24.6 17.0 -24.0 20.1 -24.25 Q20.5 -24.4 20.5 -25.0 L20.5 -25.05 21.15 -25.35 21.5 -26.0 Q19.8 -27.3 19.8 -30.05 L19.8 -31.45 21.65 -30.1 M-7.65 -38.2 L-9.6 -38.0 Q-12.1 -37.55 -14.1 -36.4 L-19.5 -32.35 Q-21.35 -30.95 -23.75 -28.0 -26.25 -25.0 -27.0 -23.25 L-31.15 -13.9 Q-33.6 -8.25 -34.5 -4.85 L-35.95 1.65 -36.9 7.0 Q-38.0 15.0 -38.0 23.8 L-37.95 26.75 -38.0 32.05 -38.0 32.25 -37.9 40.7 Q-37.7 44.25 -37.2 46.0 L-49.4 45.55 -56.5 45.25 -56.6 23.6 Q-56.7 10.4 -53.85 1.75 -51.35 -6.05 -44.65 -16.6 L-42.25 -20.35 Q-38.75 -24.65 -33.9 -28.7 L-32.4 -29.95 Q-20.9 -39.25 -11.5 -39.25 L-9.25 -38.95 -7.55 -38.5 -7.65 -38.2" fill="#942403" fill-rule="evenodd" stroke="none"/>
    <path d="M13.5 -39.5 L13.4 -40.2 19.15 -40.9 Q17.5 -38.5 17.5 -36.75 L17.55 -35.25 17.85 -34.3 17.3 -34.3 16.65 -34.65 13.05 -35.2 13.25 -37.3 13.5 -39.5 M-14.0 26.0 L-13.45 26.0 -7.5 25.6 -5.85 25.5 -5.6 25.2 -5.55 25.15 -2.75 25.5 0.05 25.25 Q0.85 24.9 1.0 24.0 L1.25 24.0 Q2.5 24.0 3.3 23.55 L3.45 23.5 4.3 25.15 Q2.75 25.9 -0.15 26.4 L-5.0 27.5 -6.55 28.4 -6.65 28.45 -6.95 28.7 Q-8.6 28.75 -13.15 30.15 -20.05 32.25 -27.75 32.25 L-32.2 31.9 -35.9 31.7 -35.95 27.5 -35.9 27.5 -36.05 27.05 -36.05 25.8 Q-35.25 26.5 -32.75 26.5 L-31.4 26.3 -31.2 26.15 -31.0 26.3 Q-30.35 26.75 -27.45 27.15 L-23.75 27.5 -21.25 27.3 -21.05 27.0 -17.6 26.9 -15.0 26.5 -14.25 26.0 -14.0 26.0 M-41.1 -33.4 L-42.65 -31.2 -46.0 -23.85 -46.0 -21.25 -44.75 -21.0 -44.45 -21.0 -44.45 -20.9 -47.6 -16.6 -51.0 -11.1 Q-57.55 0.6 -58.5 9.3 -58.85 12.6 -58.75 17.85 L-58.5 28.15 -58.55 32.05 -58.5 37.25 -58.45 38.25 Q-61.45 38.65 -62.2 36.8 -62.55 35.95 -62.5 31.8 L-62.5 25.05 Q-62.5 15.95 -61.85 7.05 -61.05 -4.25 -59.5 -9.35 -58.15 -13.75 -56.9 -16.6 L-56.4 -17.75 Q-54.0 -22.7 -50.5 -26.1 L-46.0 -29.55 Q-42.55 -32.0 -41.25 -33.5 L-41.1 -33.4 M-35.0 -36.3 L-34.05 -36.55 -33.9 -36.6 -21.6 -38.75 Q-27.95 -36.2 -33.9 -31.3 L-34.6 -30.75 Q-39.65 -26.5 -43.5 -22.0 -43.5 -28.05 -39.25 -32.5 L-35.0 -36.3" fill="#731c02" fill-rule="evenodd" stroke="none"/>
  </g>
</svg>
