<?xml version="1.0" encoding="UTF-8" standalone="no"?>
<svg xmlns:ffdec="https://www.free-decompiler.com/flash" xmlns:xlink="http://www.w3.org/1999/xlink" ffdec:objectType="shape" height="59.85px" width="161.0px" xmlns="http://www.w3.org/2000/svg">
  <g transform="matrix(1.0, 0.0, 0.0, 1.0, 76.0, 31.35)">
    <path d="M32.95 -26.45 Q33.8 -24.65 34.6 -23.3 36.05 -20.55 36.75 -20.55 L39.0 -21.2 45.95 -21.85 Q52.95 -21.85 60.15 -20.0 69.45 -17.55 71.15 -13.25 L73.75 -13.3 80.35 -13.05 80.2 -13.2 Q83.4 -13.7 83.85 -10.35 L83.95 -4.9 Q83.95 -3.15 84.5 0.85 L85.0 5.2 84.85 9.15 84.1 9.55 84.05 9.6 83.95 9.6 75.9 9.8 75.95 10.65 Q75.95 12.7 73.65 16.75 L71.3 20.4 Q68.45 22.3 65.4 23.9 59.5 26.95 55.25 26.95 L54.7 26.95 54.7 27.1 53.15 26.9 Q51.6 26.9 50.35 27.55 L43.2 28.05 35.05 28.5 25.7 28.35 Q26.25 27.8 25.05 26.95 L23.1 25.4 Q19.05 25.4 18.0 26.3 17.0 27.2 7.95 27.2 L1.5 27.9 -5.05 28.5 Q-11.75 28.5 -12.3 26.85 -12.85 25.1 -19.05 25.1 -21.75 25.1 -27.4 26.85 -33.1 28.5 -40.4 28.5 L-42.8 28.1 -44.45 27.45 -46.8 27.15 -61.65 26.95 -62.3 26.4 -62.45 26.45 -65.9 26.95 Q-73.45 26.95 -75.45 23.3 -76.0 22.35 -76.0 19.15 -76.0 13.25 -67.15 5.6 -63.55 2.5 -60.7 1.35 -58.95 0.65 -57.9 0.85 -57.6 -0.4 -56.95 -1.25 -54.8 -4.15 -47.3 -6.65 -44.75 -7.5 -38.6 -7.7 -33.25 -7.85 -31.35 -9.1 L-28.15 -11.75 -24.4 -13.7 -19.2 -15.85 Q-14.95 -17.2 -11.3 -20.4 L-5.6 -26.15 Q-3.05 -28.75 1.7 -29.8 L1.9 -29.95 4.6 -31.05 Q8.6 -31.75 13.7 -30.9 17.05 -30.35 18.65 -29.55 22.7 -28.5 25.05 -26.25 25.4 -28.05 27.4 -29.15 30.25 -30.75 32.95 -26.45 M62.2 -12.5 L68.05 -13.1 65.55 -15.65 Q60.4 -19.5 46.2 -19.5 L41.45 -18.8 36.65 -18.2 Q34.75 -18.2 32.95 -22.25 31.2 -26.35 29.0 -26.35 L27.1 -25.9 27.1 -23.95 27.0 -23.9 26.95 -23.85 27.1 -23.55 27.15 -23.5 27.75 -21.4 27.8 -21.15 27.9 -20.7 27.95 -20.6 28.1 -19.9 28.2 -19.55 29.9 -12.95 30.65 -10.0 31.1 -8.45 Q33.0 -9.3 49.45 -11.15 L62.2 -12.5 M26.7 -18.25 L26.05 -20.55 24.7 -23.7 Q23.7 -25.5 22.3 -26.05 L18.65 -27.65 18.6 -27.65 13.0 -28.25 7.45 -28.95 Q5.1 -28.95 3.4 -28.0 1.75 -27.1 0.8 -27.1 L0.45 -27.1 -3.25 -25.0 -9.1 -19.25 Q-10.75 -17.7 -12.1 -16.8 -13.45 -15.9 -16.2 -14.35 -17.4 -13.75 -21.4 -12.2 L-26.3 -10.15 Q-27.95 -9.2 -29.25 -7.35 -31.5 -5.75 -40.2 -5.35 -49.3 -4.85 -53.5 -0.7 L-55.05 1.1 -55.05 1.15 -55.25 1.5 -55.8 2.55 Q-56.35 3.85 -56.35 5.25 -56.35 6.7 -54.75 8.75 -53.2 10.7 -53.15 14.4 L-53.15 14.65 Q-53.15 17.75 -56.75 19.65 -60.3 21.55 -60.35 24.6 L-43.05 25.4 Q-42.95 25.5 -43.0 25.95 L-42.25 26.2 Q-32.95 26.2 -27.75 24.45 -22.55 22.75 -18.85 22.75 -13.3 22.75 -11.4 24.45 -9.5 26.15 -4.95 26.15 L3.55 25.1 8.65 25.2 Q13.75 25.35 15.75 25.1 16.8 24.95 17.9 24.05 18.75 23.25 21.25 23.25 24.2 23.25 25.75 24.75 27.3 26.15 35.05 26.15 L51.55 25.1 49.45 18.85 Q48.05 14.75 47.0 12.8 45.65 10.1 39.8 8.2 34.15 6.3 32.95 3.4 31.25 -0.7 29.25 -8.6 L26.7 -18.25 M-33.35 8.05 L-33.5 6.0 -33.5 5.9 -33.5 5.75 Q-32.95 4.85 -32.9 2.9 L-32.8 -0.4 -32.75 -0.75 -32.7 -0.9 -32.65 -1.2 -32.6 -1.3 -32.6 -1.4 -32.5 -1.45 -32.5 -1.55 -32.45 -1.6 -32.45 -1.7 -32.4 -1.75 -32.3 -2.05 -32.3 -2.1 -32.25 -2.15 -32.25 -2.25 -32.2 -2.3 -32.2 -2.35 -32.15 -2.4 -32.15 -2.45 -30.8 -3.75 -29.55 -4.4 -29.0 -4.55 -27.4 -4.8 -27.25 -4.9 Q-27.1 -4.85 -27.1 -4.0 -27.1 -3.75 -28.25 -3.15 -29.7 -2.4 -30.3 -1.15 -30.8 0.0 -30.8 2.0 L-31.1 4.95 -31.35 7.85 Q-31.35 10.9 -33.05 13.7 -35.65 18.0 -41.2 18.0 L-42.05 17.75 Q-42.5 18.15 -42.5 16.85 -42.5 15.8 -39.1 15.0 -35.25 14.1 -34.0 11.7 -33.45 10.55 -33.35 8.85 L-33.35 8.05 M19.25 -7.45 Q20.85 -8.2 22.45 -3.65 23.9 0.35 23.9 3.1 23.9 6.2 22.95 7.8 22.3 8.85 20.35 10.1 14.7 13.75 11.15 19.6 L10.35 19.45 Q10.1 19.3 10.1 18.45 10.1 15.15 15.95 10.75 21.8 6.4 21.8 3.15 21.8 0.8 20.45 -2.75 L19.1 -6.4 19.25 -7.45 M39.65 -7.2 L39.3 -7.15 31.45 -7.15 Q33.25 -0.9 35.6 3.1 36.55 4.8 38.95 5.85 L40.35 6.35 43.4 7.3 Q46.0 8.15 47.6 9.55 48.5 8.5 51.8 8.15 L54.65 7.9 55.2 7.9 55.3 7.9 55.4 7.9 69.9 7.45 83.05 7.5 Q82.55 6.0 82.35 4.05 82.15 0.15 81.8 -1.65 L81.85 -7.05 Q81.95 -9.15 81.4 -10.85 L73.05 -11.1 68.15 -10.95 54.5 -9.65 51.55 -9.2 39.65 -7.2 M69.95 18.3 Q71.5 16.5 73.05 12.6 L74.2 9.8 Q54.25 10.2 49.15 11.5 49.75 12.55 49.95 13.85 50.0 14.4 52.4 19.95 L54.45 25.4 55.3 25.15 Q57.85 24.7 59.35 24.05 L63.2 22.2 Q66.0 21.25 67.25 20.55 68.8 19.7 69.95 18.3 M-58.45 5.2 L-58.25 2.2 Q-62.85 3.95 -67.95 9.35 -73.85 15.55 -73.85 19.65 -73.85 22.25 -72.55 23.05 -70.4 24.3 -62.7 24.3 L-62.65 24.3 Q-62.45 20.9 -59.0 18.3 -55.25 15.5 -55.25 14.7 -55.25 12.05 -56.85 10.2 -58.45 8.3 -58.45 5.2" fill="#000000" fill-rule="evenodd" stroke="none"/>
    <path d="M29.9 -12.95 L30.8 -12.95 35.15 -14.0 35.2 -14.0 35.45 -14.0 35.6 -14.0 Q36.4 -14.0 36.55 -14.3 L37.6 -14.5 48.6 -15.55 Q59.1 -15.55 61.2 -13.75 L62.2 -12.5 49.45 -11.15 Q33.0 -9.3 31.1 -8.45 L30.65 -10.0 29.9 -12.95 M69.95 18.3 Q68.8 19.7 67.25 20.55 66.0 21.25 63.2 22.2 L59.35 24.05 Q57.85 24.7 55.3 25.15 L54.45 25.4 52.4 19.95 Q50.0 14.4 49.95 13.85 49.75 12.55 49.15 11.5 54.25 10.2 74.2 9.8 L73.05 12.6 Q71.5 16.5 69.95 18.3" fill="#915e3c" fill-rule="evenodd" stroke="none"/>
    <path d="M39.65 -7.2 L39.65 -6.7 39.7 -2.3 40.35 5.7 40.35 6.35 38.95 5.85 Q36.55 4.8 35.6 3.1 33.25 -0.9 31.45 -7.15 L39.3 -7.15 39.65 -7.2 M54.65 7.9 Q53.5 5.8 52.6 0.1 51.85 -4.4 51.55 -9.05 L51.55 -9.2 54.5 -9.65 68.15 -10.95 69.05 -4.75 Q70.15 1.35 70.15 4.35 L69.9 7.45 55.4 7.9 55.3 7.9 55.2 7.9 54.65 7.9" fill="#11111e" fill-rule="evenodd" stroke="none"/>
    <path d="M35.45 -14.0 L36.1 -14.95 36.35 -15.25 36.65 -15.05 36.55 -14.35 36.55 -14.3 Q36.4 -14.0 35.6 -14.0 L35.45 -14.0" fill="#946340" fill-rule="evenodd" stroke="none"/>
    <path d="M27.0 -23.9 L27.1 -23.95 27.1 -25.9 29.0 -26.35 Q31.2 -26.35 32.95 -22.25 34.75 -18.2 36.65 -18.2 L41.45 -18.8 46.2 -19.5 Q60.4 -19.5 65.55 -15.65 L68.05 -13.1 62.2 -12.5 61.2 -13.75 Q59.1 -15.55 48.6 -15.55 L37.6 -14.5 36.55 -14.3 36.55 -14.35 36.65 -15.05 36.35 -15.25 36.1 -14.95 35.45 -14.0 35.2 -14.0 35.15 -14.0 30.8 -12.95 29.9 -12.95 28.2 -19.55 28.1 -19.9 27.95 -20.6 27.9 -20.7 27.8 -21.15 27.75 -21.4 27.15 -23.5 27.1 -23.55 27.0 -23.9" fill="#a97e5a" fill-rule="evenodd" stroke="none"/>
    <path d="M-58.45 5.2 Q-58.45 8.3 -56.85 10.2 -55.25 12.05 -55.25 14.7 -55.25 15.5 -59.0 18.3 -62.45 20.9 -62.65 24.3 L-62.7 24.3 Q-70.4 24.3 -72.55 23.05 -73.85 22.25 -73.85 19.65 -73.85 15.55 -67.95 9.35 -62.85 3.95 -58.25 2.2 L-58.45 5.2" fill="#593924" fill-rule="evenodd" stroke="none"/>
    <path d="M-53.15 14.4 Q-53.2 10.7 -54.75 8.75 -56.35 6.7 -56.35 5.25 -56.35 3.85 -55.8 2.55 L-55.25 1.5 -55.05 1.15 -55.05 1.1 -53.5 -0.7 Q-49.3 -4.85 -40.2 -5.35 -31.5 -5.75 -29.25 -7.35 -27.95 -9.2 -26.3 -10.15 L-21.4 -12.2 Q-17.4 -13.75 -16.2 -14.35 -13.45 -15.9 -12.1 -16.8 -10.75 -17.7 -9.1 -19.25 L-3.25 -25.0 0.45 -27.1 0.8 -27.1 Q1.75 -27.1 3.4 -28.0 5.1 -28.95 7.45 -28.95 L13.0 -28.25 18.6 -27.65 18.65 -27.65 22.3 -26.05 Q23.7 -25.5 24.7 -23.7 L26.05 -20.55 26.7 -18.25 26.05 -17.65 Q25.0 -18.25 20.2 -21.95 16.5 -24.75 15.5 -24.75 7.55 -24.75 1.25 -21.1 -3.15 -18.5 -5.85 -14.8 L-11.65 -8.5 Q-14.9 -4.8 -13.85 -1.75 L-14.9 -1.4 Q-15.65 -2.3 -16.1 -3.9 -16.5 -5.25 -16.5 -6.2 -16.5 -7.4 -15.15 -11.9 L-15.15 -12.25 Q-24.75 -8.6 -29.0 -4.55 L-29.55 -4.4 -30.8 -3.75 -32.15 -2.45 -32.15 -2.4 -32.2 -2.35 -32.2 -2.3 -32.25 -2.25 -32.25 -2.15 -32.3 -2.1 -32.3 -2.05 -32.4 -1.75 -32.45 -1.7 -32.45 -1.6 -32.5 -1.55 -32.5 -1.45 -32.6 -1.4 -32.6 -1.3 -32.65 -1.2 -32.7 -0.9 -32.75 -0.75 -32.8 -0.4 -32.9 2.9 Q-32.95 4.85 -33.5 5.75 L-33.5 5.9 -33.5 6.0 -33.35 8.05 -33.5 8.05 Q-36.55 8.05 -36.6 3.25 -36.65 0.75 -36.15 -3.25 -43.7 -2.2 -47.55 0.3 -51.1 2.6 -51.0 5.7 L-50.55 10.85 Q-50.75 13.1 -53.15 14.4 M40.35 6.35 L40.35 5.7 39.7 -2.3 39.65 -6.7 39.65 -7.2 51.55 -9.2 51.55 -9.05 Q51.85 -4.4 52.6 0.1 53.5 5.8 54.65 7.9 L51.8 8.15 Q48.5 8.5 47.6 9.55 46.0 8.15 43.4 7.3 L40.35 6.35 M69.9 7.45 L70.15 4.35 Q70.15 1.35 69.05 -4.75 L68.15 -10.95 73.05 -11.1 81.4 -10.85 Q81.95 -9.15 81.85 -7.05 L81.8 -1.65 Q82.15 0.15 82.35 4.05 82.55 6.0 83.05 7.5 L69.9 7.45" fill="#942403" fill-rule="evenodd" stroke="none"/>
    <path d="M-53.15 14.4 Q-50.75 13.1 -50.55 10.85 L-51.0 5.7 Q-51.1 2.6 -47.55 0.3 -43.7 -2.2 -36.15 -3.25 -36.65 0.75 -36.6 3.25 -36.55 8.05 -33.5 8.05 L-33.35 8.05 -33.35 8.85 Q-33.45 10.55 -34.0 11.7 -35.25 14.1 -39.1 15.0 -42.5 15.8 -42.5 16.85 -42.5 18.15 -42.05 17.75 L-41.2 18.0 Q-35.65 18.0 -33.05 13.7 -31.35 10.9 -31.35 7.85 L-31.1 4.95 -30.8 2.0 Q-30.8 0.0 -30.3 -1.15 -29.7 -2.4 -28.25 -3.15 -27.1 -3.75 -27.1 -4.0 -27.1 -4.85 -27.25 -4.9 L-27.4 -4.8 -29.0 -4.55 Q-24.75 -8.6 -15.15 -12.25 L-15.15 -11.9 Q-16.5 -7.4 -16.5 -6.2 -16.5 -5.25 -16.1 -3.9 -15.65 -2.3 -14.9 -1.4 L-13.85 -1.75 Q-14.9 -4.8 -11.65 -8.5 L-5.85 -14.8 Q-3.15 -18.5 1.25 -21.1 7.55 -24.75 15.5 -24.75 16.5 -24.75 20.2 -21.95 25.0 -18.25 26.05 -17.65 L26.7 -18.25 29.25 -8.6 Q31.25 -0.7 32.95 3.4 34.15 6.3 39.8 8.2 45.65 10.1 47.0 12.8 48.05 14.75 49.45 18.85 L51.55 25.1 35.05 26.15 Q27.3 26.15 25.75 24.75 24.2 23.25 21.25 23.25 18.75 23.25 17.9 24.05 16.8 24.95 15.75 25.1 13.75 25.35 8.65 25.2 L3.55 25.1 -4.95 26.15 Q-9.5 26.15 -11.4 24.45 -13.3 22.75 -18.85 22.75 -22.55 22.75 -27.75 24.45 -32.95 26.2 -42.25 26.2 L-43.0 25.95 Q-42.95 25.5 -43.05 25.4 L-60.35 24.6 Q-60.3 21.55 -56.75 19.65 -53.15 17.75 -53.15 14.65 L-53.15 14.4 M19.25 -7.45 L19.1 -6.4 20.45 -2.75 Q21.8 0.8 21.8 3.15 21.8 6.4 15.95 10.75 10.1 15.15 10.1 18.45 10.1 19.3 10.35 19.45 L11.15 19.6 Q14.7 13.75 20.35 10.1 22.3 8.85 22.95 7.8 23.9 6.2 23.9 3.1 23.9 0.35 22.45 -3.65 20.85 -8.2 19.25 -7.45" fill="#731c02" fill-rule="evenodd" stroke="none"/>
  </g>
</svg>
