<?xml version="1.0" encoding="UTF-8" standalone="no"?>
<svg xmlns:ffdec="https://www.free-decompiler.com/flash" xmlns:xlink="http://www.w3.org/1999/xlink" ffdec:objectType="shape" height="37.2px" width="57.7px" xmlns="http://www.w3.org/2000/svg">
  <g transform="matrix(1.0, 0.0, 0.0, 1.0, 29.0, 32.6)">
    <path d="M11.05 -28.0 Q14.5 -26.0 17.35 -22.35 19.4 -19.65 21.85 -15.15 L21.75 -14.95 23.4 -14.9 25.0 -15.05 28.5 -11.8 28.35 -11.45 28.7 -9.95 Q28.7 -7.75 27.75 -6.1 26.85 -4.5 24.95 -2.85 L24.1 -1.9 24.5 -2.1 Q22.7 -0.5 18.8 1.7 12.55 5.35 10.9 4.4 L10.15 3.7 9.8 3.55 Q9.45 3.35 6.8 -1.65 L2.95 -8.8 Q0.75 -11.75 -0.6 -14.15 -2.0 -16.55 -2.2 -18.35 L-2.35 -18.35 Q-2.3 -22.3 -1.9 -23.25 L-1.9 -23.3 Q-1.1 -24.55 2.55 -26.5 6.4 -28.75 8.95 -27.9 L9.5 -28.05 11.05 -28.0 M16.75 -18.85 L13.7 -22.3 Q12.95 -22.15 11.9 -21.6 L9.9 -20.1 9.7 -19.7 8.9 -19.15 8.45 -19.2 Q7.5 -19.0 7.1 -18.3 6.65 -17.6 6.75 -17.45 L6.7 -17.25 6.8 -16.95 Q6.8 -16.85 6.95 -16.7 7.4 -15.35 8.95 -12.05 11.0 -7.65 11.95 -6.75 L11.95 -6.15 12.3 -5.55 13.35 -6.1 13.75 -6.1 14.15 -6.5 17.2 -8.7 17.6 -9.5 19.1 -10.05 18.85 -11.45 18.85 -12.35 Q19.3 -13.7 19.35 -15.3 L16.75 -18.85 M14.15 -2.35 L12.05 1.75 Q12.4 1.9 12.45 2.55 13.55 2.7 18.6 -0.6 L19.85 -1.5 19.95 -1.65 Q20.25 -2.15 21.05 -2.45 L22.05 -3.35 23.7 -5.1 25.4 -6.7 Q26.5 -8.6 26.15 -10.0 L23.1 -8.9 Q20.9 -8.1 20.7 -7.8 L17.05 -5.1 14.4 -2.85 14.15 -2.35 M22.0 -13.05 L20.95 -12.2 Q20.6 -11.6 20.65 -10.7 L25.25 -12.15 24.4 -12.75 Q23.15 -13.5 22.0 -13.05 M-3.8 -29.15 Q-3.25 -27.8 -3.1 -25.65 -2.9 -22.15 -3.55 -19.7 -4.0 -18.15 -7.9 -10.6 L-9.4 -6.6 Q-10.3 -4.6 -12.05 -3.2 -10.9 -1.85 -10.5 1.8 -10.85 2.55 -12.05 2.45 L-12.2 2.25 Q-14.5 2.75 -18.85 2.3 -22.85 1.2 -25.75 -3.25 -27.7 -6.3 -27.85 -8.25 L-28.1 -8.8 -28.25 -9.3 -28.65 -9.35 -28.4 -9.55 -29.0 -11.45 Q-28.8 -12.15 -28.25 -12.6 L-27.75 -12.9 -26.65 -14.2 -25.15 -15.7 Q-22.45 -18.0 -21.65 -21.0 L-20.9 -21.85 Q-19.4 -25.95 -17.4 -28.5 -13.05 -33.85 -6.95 -32.2 -4.85 -31.65 -2.95 -29.5 L-3.7 -29.2 -3.8 -29.15 M-14.3 -17.45 Q-14.65 -16.4 -18.1 -12.2 -21.85 -7.6 -24.55 -6.45 L-23.85 -4.75 Q-22.45 -1.0 -17.9 0.35 L-17.6 0.45 -13.05 0.75 -12.85 0.75 -13.05 0.25 -14.1 -1.85 Q-14.9 -1.05 -15.35 -0.75 L-17.6 0.25 -17.85 0.3 Q-18.05 0.25 -17.85 -0.6 -17.5 -1.9 -16.6 -2.95 -15.3 -4.35 -13.65 -4.15 L-13.5 -4.9 -12.45 -6.9 Q-11.6 -8.25 -11.45 -8.9 L-10.25 -11.5 -9.15 -14.05 -8.15 -16.2 -11.55 -16.55 -14.15 -17.4 -14.25 -17.4 -14.3 -17.5 -14.3 -17.45" fill="#000000" fill-rule="evenodd" stroke="none"/>
    <path d="M14.15 -2.35 L14.4 -2.85 17.05 -5.1 20.7 -7.8 Q20.9 -8.1 23.1 -8.9 L26.15 -10.0 Q26.5 -8.6 25.4 -6.7 L23.7 -5.1 22.05 -3.35 21.05 -2.45 Q20.25 -2.15 19.95 -1.65 L19.85 -1.5 18.6 -0.6 Q13.55 2.7 12.45 2.55 12.4 1.9 12.05 1.75 L14.15 -2.35" fill="#211b14" fill-rule="evenodd" stroke="none"/>
    <path d="M16.75 -18.85 L19.35 -15.3 Q19.3 -13.7 18.85 -12.35 L18.85 -11.45 19.1 -10.05 17.6 -9.5 17.2 -8.7 14.15 -6.5 13.75 -6.1 13.35 -6.1 12.3 -5.55 11.95 -6.15 11.95 -6.75 Q11.0 -7.65 8.95 -12.05 7.4 -15.35 6.95 -16.7 6.8 -16.85 6.8 -16.95 L6.7 -17.25 6.75 -17.45 Q6.65 -17.6 7.1 -18.3 7.5 -19.0 8.45 -19.2 L8.9 -19.15 9.7 -19.7 9.9 -20.1 11.9 -21.6 Q12.95 -22.15 13.7 -22.3 L16.75 -18.85 M22.0 -13.05 Q23.15 -13.5 24.4 -12.75 L25.25 -12.15 20.65 -10.7 Q20.6 -11.6 20.95 -12.2 L22.0 -13.05 M-17.9 0.35 Q-22.45 -1.0 -23.85 -4.75 L-24.55 -6.45 Q-21.85 -7.6 -18.1 -12.2 -14.65 -16.4 -14.3 -17.45 L-14.25 -17.4 -14.15 -17.4 -11.55 -16.55 -8.15 -16.2 -9.15 -14.05 -10.25 -11.5 -11.45 -8.9 Q-11.6 -8.25 -12.45 -6.9 L-13.5 -4.9 -13.65 -4.15 Q-15.3 -4.35 -16.6 -2.95 -17.5 -1.9 -17.85 -0.6 -18.05 0.25 -17.85 0.3 L-17.9 0.35 M-17.6 0.25 L-15.35 -0.75 Q-14.9 -1.05 -14.1 -1.85 L-13.05 0.25 -13.05 0.75 -17.6 0.45 -17.6 0.25" fill="#915e3c" fill-rule="evenodd" stroke="none"/>
  </g>
</svg>
