<?xml version="1.0" encoding="UTF-8" standalone="no"?>
<svg xmlns:ffdec="https://www.free-decompiler.com/flash" xmlns:xlink="http://www.w3.org/1999/xlink" ffdec:objectType="shape" height="64.7px" width="28.4px" xmlns="http://www.w3.org/2000/svg">
  <g transform="matrix(1.0, 0.0, 0.0, 1.0, -7.1, 36.65)">
    <path d="M17.95 -5.3 L20.05 -5.25 27.0 -5.15 30.85 -5.0 31.45 7.85 Q32.0 16.55 33.25 19.35 L33.15 19.35 Q33.95 21.25 30.7 23.65 27.7 25.85 25.8 25.85 23.95 25.85 21.4 23.25 L19.5 21.15 19.5 17.15 18.75 4.6 17.95 -5.3" fill="#aa8a71" fill-rule="evenodd" stroke="none"/>
    <path d="M21.65 -34.6 Q15.85 -34.6 13.7 -30.0 11.6 -25.5 9.4 -9.6 L9.4 -9.45 10.1 -9.5 15.1 -8.45 Q18.85 -7.4 20.25 -7.4 L25.6 -7.6 29.6 -7.85 31.3 -7.4 31.0 -13.9 Q30.65 -14.5 30.7 -14.8 L30.9 -15.3 30.9 -15.85 30.85 -17.0 30.9 -17.0 Q30.65 -26.95 27.95 -31.25 25.75 -34.6 21.65 -34.6 M30.95 -31.1 Q32.95 -26.3 33.0 -16.0 L33.1 -15.1 33.4 -6.45 33.85 -6.05 33.75 -5.3 33.3 -5.0 Q34.3 12.65 35.05 19.25 L35.05 19.3 Q36.8 23.75 31.5 26.35 27.95 28.05 25.15 28.05 23.45 28.05 20.35 25.1 17.55 22.45 17.55 22.0 L17.7 21.45 17.5 21.35 16.3 -5.55 13.75 -6.1 9.1 -7.2 9.0 -6.75 8.25 -6.35 7.4 -7.1 Q7.15 -7.45 7.15 -8.25 L7.1 -8.3 7.15 -8.3 7.1 -8.8 Q7.1 -10.35 8.8 -19.1 10.55 -28.3 11.55 -31.1 12.8 -34.7 16.6 -35.95 L22.5 -36.65 25.0 -35.75 Q26.95 -34.85 27.05 -34.85 29.4 -34.85 30.95 -31.1 M17.95 -5.3 L18.75 4.6 19.5 17.15 19.5 21.15 21.4 23.25 Q23.95 25.85 25.8 25.85 27.7 25.85 30.7 23.65 33.95 21.25 33.15 19.35 L33.25 19.35 Q32.0 16.55 31.45 7.85 L30.85 -5.0 27.0 -5.15 20.05 -5.25 17.95 -5.3" fill="#000000" fill-rule="evenodd" stroke="none"/>
    <path d="M21.65 -34.6 Q25.75 -34.6 27.95 -31.25 30.65 -26.95 30.9 -17.0 L30.85 -17.0 30.9 -15.85 30.9 -15.3 30.7 -14.8 Q30.65 -14.5 31.0 -13.9 L31.3 -7.4 29.6 -7.85 25.6 -7.6 20.25 -7.4 Q18.85 -7.4 15.1 -8.45 L10.1 -9.5 9.4 -9.45 9.4 -9.6 Q11.6 -25.5 13.7 -30.0 15.85 -34.6 21.65 -34.6" fill="#942403" fill-rule="evenodd" stroke="none"/>
  </g>
</svg>
