<?xml version="1.0" encoding="UTF-8" standalone="no"?>
<svg xmlns:ffdec="https://www.free-decompiler.com/flash" xmlns:xlink="http://www.w3.org/1999/xlink" ffdec:objectType="shape" height="37.85px" width="144.9px" xmlns="http://www.w3.org/2000/svg">
  <g transform="matrix(1.0, 0.0, 0.0, 1.0, 72.45, 18.9)">
    <path d="M-53.85 11.25 L-54.05 11.5 -54.0 11.1 -53.85 11.25 M24.95 4.2 L24.85 3.95 25.8 3.6 28.05 2.5 30.4 1.1 30.55 3.7 25.85 3.95 24.95 4.2 M-3.6 -5.95 Q-6.95 -3.7 -6.95 1.35 -6.95 2.3 -6.4 3.3 L-7.35 3.45 -9.0 3.65 -9.35 3.6 -9.25 3.5 -8.95 3.25 Q-8.95 0.85 -8.2 -2.85 -7.45 -6.5 -7.45 -8.1 -7.45 -9.85 -9.55 -10.75 -11.8 -11.7 -13.8 -10.05 -14.7 -9.3 -15.35 -7.45 L-16.45 -4.5 -16.45 1.15 -16.55 1.15 -19.8 1.25 -19.65 1.05 -19.45 0.45 Q-20.45 -2.7 -19.05 -7.5 L-17.45 -12.3 -17.5 -12.7 -17.4 -12.7 -14.55 -12.8 -10.7 -13.2 Q-9.15 -13.1 -7.55 -10.9 L-3.95 -6.4 -3.6 -5.95 M8.9 -3.45 L9.45 -3.15 8.95 -3.0 8.9 -3.45 M-2.4 -9.15 L-2.45 -9.15 -2.45 -9.25 -2.4 -9.15 M-25.5 -13.85 Q-25.35 -13.4 -27.45 -11.65 L-27.2 -11.9 Q-26.7 -12.95 -25.5 -13.85 M-40.45 -6.1 L-42.25 -4.9 -43.15 -4.4 -42.95 -4.75 Q-42.35 -5.55 -40.45 -6.1 M-45.4 -0.9 L-45.45 -0.8 -45.55 -0.75 -45.4 -0.9 M-51.85 1.15 L-52.1 1.2 -53.05 2.25 -52.7 1.5 Q-52.5 1.25 -51.85 1.15 M-54.9 4.8 L-55.2 5.15 -55.85 6.5 -56.05 6.45 -56.35 6.0 -54.9 4.8 M-53.8 6.95 Q-53.3 6.0 -52.45 5.35 L-52.45 5.75 -52.3 7.05 -52.3 7.2 -53.8 6.95 M-56.25 8.8 L-56.05 8.85 -55.45 9.6 -56.05 9.6 -56.25 8.8 M-69.9 14.15 Q-69.8 15.15 -69.15 16.15 L-70.05 16.0 -70.6 15.6 -69.9 14.15" fill="#2d0000" fill-rule="evenodd" stroke="none"/>
    <path d="M1.85 -5.5 L2.05 -4.2 Q2.05 -1.55 0.75 1.7 0.0 3.5 -1.5 6.15 L-1.25 6.6 Q-0.95 7.15 -0.95 7.45 L-1.15 8.05 Q-1.4 8.45 -2.2 8.45 -2.85 8.45 -3.5 7.15 -4.15 5.7 -4.7 5.5 L-9.75 6.5 Q-13.35 6.7 -13.55 2.5 -15.05 3.45 -16.45 3.45 L-23.6 3.05 -24.95 1.95 Q-25.8 1.55 -26.05 0.8 -26.25 0.2 -26.6 0.2 -28.75 0.2 -31.15 2.0 L-33.45 3.95 -34.15 3.7 Q-34.45 3.5 -34.45 2.7 L-34.4 2.5 Q-34.25 1.2 -31.7 -0.25 L-27.85 -1.9 -28.4 -3.15 -28.45 -4.9 -28.25 -7.2 Q-27.5 -12.4 -22.95 -13.75 L-19.15 -13.85 Q-17.8 -13.45 -17.5 -12.7 L-17.45 -12.3 -19.05 -7.5 Q-20.45 -2.7 -19.45 0.45 L-19.65 1.05 -19.8 1.25 -16.55 1.15 -16.45 1.15 -16.45 -4.5 -15.35 -7.45 Q-14.7 -9.3 -13.8 -10.05 -11.8 -11.7 -9.55 -10.75 -7.45 -9.85 -7.45 -8.1 -7.45 -6.5 -8.2 -2.85 -8.95 0.85 -8.95 3.25 L-9.25 3.5 -9.35 3.6 -9.0 3.65 -7.35 3.45 -6.4 3.3 Q-6.95 2.3 -6.95 1.35 -6.95 -3.7 -3.6 -5.95 L-2.45 -6.6 0.65 -6.8 Q1.5 -6.4 1.85 -5.5 M0.45 7.7 Q1.85 6.6 5.55 4.85 11.9 1.85 14.35 3.2 L14.45 3.6 14.55 4.7 Q14.55 10.25 13.0 10.95 L7.05 10.95 2.35 10.75 1.25 10.55 0.25 10.25 -0.3 9.95 -0.45 8.75 Q-0.4 8.3 0.45 7.7 M-45.7 3.2 Q-45.5 4.65 -44.95 5.0 L-44.95 7.25 -45.25 7.5 -45.4 7.65 -44.2 7.45 Q-41.4 7.45 -41.0 8.6 L-40.85 9.45 -40.85 9.7 -40.9 10.15 -40.95 10.25 -41.25 10.5 -41.95 10.95 -42.35 10.15 Q-42.5 9.5 -43.2 9.5 -45.55 9.5 -47.55 10.25 L-49.7 10.95 -51.45 10.7 -51.45 9.2 -56.05 8.85 -56.25 8.8 -57.55 8.1 Q-57.95 7.75 -57.95 6.55 L-57.95 6.45 -59.85 5.8 Q-63.0 4.25 -66.3 7.7 -67.8 9.25 -69.15 12.4 L-69.9 14.15 -70.6 15.6 -70.05 16.0 -69.15 16.15 -68.55 16.15 -48.05 16.2 Q-25.05 16.05 -17.55 15.75 L-10.95 15.2 Q-7.3 14.35 -3.0 15.15 -0.95 15.5 0.35 16.1 2.35 15.15 18.75 15.6 L24.6 15.75 24.1 14.15 24.05 11.25 Q24.05 8.3 24.25 7.4 24.5 6.25 25.0 5.95 L24.85 5.95 24.7 5.8 Q24.55 5.6 24.55 4.85 24.55 4.35 24.95 4.2 L25.85 3.95 30.55 3.7 30.4 1.1 30.35 0.75 30.25 -1.65 27.8 -0.5 Q24.5 0.95 23.05 0.95 20.65 0.95 20.1 -0.05 L20.05 -1.25 20.05 -1.65 19.85 -1.8 14.15 -2.3 Q11.15 -2.25 9.45 -3.15 L8.9 -3.45 8.9 -3.5 8.65 -3.65 8.55 -3.75 6.05 -6.3 Q5.15 -7.05 3.25 -7.3 L-0.05 -7.8 Q-1.6 -8.2 -2.35 -9.1 L-2.4 -9.15 -2.45 -9.25 -2.6 -9.45 -2.95 -10.15 -5.55 -12.8 -7.35 -14.8 Q-9.65 -16.3 -15.2 -16.3 -21.8 -16.3 -25.0 -14.25 L-25.5 -13.85 Q-26.7 -12.95 -27.2 -11.9 L-27.45 -11.65 -29.85 -9.75 -32.2 -8.05 -32.2 -8.0 Q-32.4 -7.85 -33.4 -7.6 L-35.2 -7.2 -37.35 -6.85 -40.4 -6.15 -40.45 -6.15 -40.45 -6.1 Q-42.35 -5.55 -42.95 -4.75 L-43.15 -4.4 -44.4 -2.3 -45.4 -0.9 -45.55 -0.75 -46.55 -0.05 Q-48.1 0.7 -50.45 0.9 L-50.8 0.95 -51.5 1.05 -51.7 1.1 -51.85 1.15 Q-52.5 1.25 -52.7 1.5 L-53.05 2.25 -53.1 2.25 -53.2 2.5 -53.25 2.6 -53.95 3.75 -54.9 4.8 -56.35 6.0 -56.05 6.45 -55.85 6.65 -55.8 6.7 -55.3 6.75 -53.8 6.95 -52.3 7.2 -52.2 7.2 -52.3 7.05 -52.45 5.75 -52.45 5.35 -52.25 4.3 Q-51.9 3.55 -50.55 3.2 L-46.3 2.85 Q-45.9 2.95 -45.7 3.2 M10.05 -5.5 Q12.15 -4.25 14.1 -5.2 16.2 -6.2 21.1 -3.8 L22.2 -2.65 22.5 -2.35 22.2 -1.25 22.3 -1.25 Q25.55 -1.25 27.7 -3.05 28.85 -4.1 30.2 -3.6 30.3 -6.75 32.05 -8.3 37.7 -13.3 44.85 -11.25 47.35 -10.5 51.0 -8.65 L57.05 -5.55 64.5 -1.45 Q69.0 1.0 70.7 3.95 71.9 5.95 71.9 9.75 71.9 14.15 72.45 15.95 L71.95 16.7 71.85 17.15 71.6 17.45 61.05 17.95 56.05 17.95 55.9 18.15 Q55.7 18.15 55.6 18.45 L43.55 18.95 22.55 18.3 2.0 17.5 1.85 18.0 Q1.6 18.45 0.8 18.45 L-3.45 17.85 -7.7 17.2 -11.15 17.6 -14.3 18.2 -28.35 18.4 -42.95 18.45 -70.95 18.45 -71.95 17.75 -72.45 16.25 -72.4 16.25 -72.45 15.7 Q-72.45 13.15 -69.6 8.45 -66.9 4.05 -65.95 3.95 -65.05 3.8 -58.7 3.8 -56.75 3.75 -54.95 0.95 -54.7 0.5 -53.65 -0.2 -52.3 -1.1 -51.05 -1.3 -48.3 -1.75 -46.5 -3.8 L-43.8 -7.05 Q-42.1 -8.6 -40.4 -8.95 L-36.45 -9.55 -33.65 -10.3 Q-33.0 -10.9 -31.45 -11.55 -30.25 -12.05 -28.0 -14.6 -25.9 -17.05 -24.45 -17.4 -16.3 -19.55 -11.35 -18.65 -4.2 -17.4 -0.95 -10.15 6.65 -9.8 7.85 -8.4 8.15 -6.6 10.05 -5.5 M32.35 -2.75 L32.45 -2.2 33.15 2.15 32.9 3.65 Q32.5 4.75 31.4 5.5 L30.55 5.95 26.45 5.95 26.35 5.95 25.9 5.95 26.35 6.2 26.45 6.25 26.55 7.0 26.55 7.05 26.3 10.85 26.05 15.8 34.7 16.05 35.05 16.15 35.45 16.1 35.45 16.05 Q36.05 16.45 36.8 16.45 L38.1 16.2 38.1 16.15 38.1 15.9 37.9 15.7 Q37.25 15.35 37.05 14.45 L37.05 12.8 Q37.05 11.2 37.25 10.8 L37.55 10.45 37.55 9.7 38.6 9.65 Q39.05 9.0 39.95 8.9 L39.8 8.6 40.8 8.45 Q43.35 8.35 45.1 9.65 47.05 11.1 47.05 13.75 L46.85 16.0 46.9 16.25 46.9 16.3 55.15 16.45 55.45 16.2 61.05 15.7 68.85 15.45 70.45 15.45 70.7 15.45 70.6 15.05 Q70.0 13.05 69.9 9.5 69.75 4.4 66.05 1.95 61.3 -1.2 55.9 -4.0 46.65 -8.8 41.95 -8.8 35.65 -8.8 33.55 -7.0 31.95 -5.65 32.35 -2.75 M38.0 -3.9 L38.0 -3.4 Q38.75 -1.9 39.6 -0.8 38.45 0.9 38.55 1.7 38.65 2.95 38.85 2.35 L40.65 0.5 Q41.85 1.75 43.35 2.4 L43.6 2.05 Q42.9 1.55 41.35 -0.45 42.6 -2.35 42.5 -3.3 L42.35 -4.05 42.2 -3.8 Q41.3 -3.25 40.35 -1.9 38.85 -3.8 38.0 -3.9 M45.55 -1.3 Q45.55 1.15 45.05 2.25 43.9 4.95 40.05 4.95 36.75 4.95 36.1 2.9 L36.05 0.7 Q36.05 -2.25 37.3 -4.75 38.25 -6.7 40.85 -6.35 43.35 -6.05 44.85 -4.05 45.55 -3.0 45.55 -1.3 M43.7 10.15 Q42.8 10.7 41.8 12.05 40.35 10.15 39.5 10.05 L39.5 10.55 41.05 13.1 Q39.95 14.8 40.0 15.6 40.15 16.85 40.35 16.25 L42.1 14.4 Q43.3 15.65 44.85 16.3 L45.05 15.95 42.85 13.45 Q44.1 11.6 44.0 10.65 L43.8 9.9 43.7 10.15 M41.2 16.2 L41.2 16.05 41.1 16.2 41.2 16.2 M31.3 9.95 Q32.95 10.25 33.6 10.9 L33.55 11.7 33.85 12.85 33.45 13.2 31.05 13.95 28.85 13.95 28.7 13.8 Q28.55 13.6 28.55 12.85 28.55 9.4 31.3 9.95 M12.25 5.05 Q10.1 5.35 7.0 6.8 L2.7 8.7 12.05 8.7 Q12.05 6.45 12.3 5.25 L12.55 5.0 12.3 5.05 12.25 5.05 M-20.7 -11.9 L-21.4 -11.8 -23.0 -11.15 Q-24.4 -10.25 -25.5 -8.4 -27.55 -4.85 -26.45 -2.05 L-26.35 -2.05 -26.05 -2.0 -25.7 -1.95 Q-24.75 -1.8 -24.45 -1.25 -23.7 0.1 -22.95 0.45 L-21.8 0.85 -21.9 0.55 -21.95 -0.75 Q-21.95 -2.4 -21.15 -6.55 -20.4 -10.7 -19.95 -11.55 L-19.8 -11.9 -19.95 -11.9 -20.7 -11.9 M-13.7 0.55 L-13.2 0.45 Q-11.4 0.45 -11.15 1.1 L-11.05 2.3 -11.05 2.5 -10.7 3.0 -10.9 2.35 -10.95 1.15 -10.95 0.8 -10.85 -3.5 Q-10.6 -6.15 -9.55 -7.9 L-10.2 -8.5 Q-10.65 -8.8 -11.3 -8.8 L-11.45 -8.8 Q-13.4 -8.8 -14.2 -5.15 -14.85 -2.1 -14.15 0.0 L-13.95 0.5 -14.0 0.6 -13.85 0.6 -13.7 0.55 M-1.0 -5.0 L-1.2 -5.0 Q-3.65 -5.0 -4.6 -0.75 -5.0 1.2 -5.05 3.15 L-5.0 3.15 -4.15 3.25 -3.9 3.3 -3.85 3.35 Q-3.5 3.45 -3.3 3.7 L-2.75 4.35 Q-2.2 1.85 0.05 -3.8 0.05 -4.9 -1.0 -5.0 M-46.95 5.2 L-46.6 5.1 -47.2 5.0 -50.45 5.2 -50.45 7.45 -50.7 7.55 Q-49.85 7.75 -49.7 8.0 -50.2 8.5 -49.5 8.5 L-46.85 8.0 -46.05 7.8 -46.7 6.35 -46.95 5.2" fill="#000000" fill-rule="evenodd" stroke="none"/>
    <path d="M2.35 10.75 L2.3 10.75 1.3 10.95 1.25 10.55 2.35 10.75 M-40.4 -6.15 L-40.45 -6.1 -40.45 -6.15 -40.4 -6.15" fill="#480000" fill-rule="evenodd" stroke="none"/>
    <path d="M32.45 -2.2 L32.35 -2.75 32.7 -2.45 32.6 -2.3 32.45 -2.2 M26.45 6.25 L26.35 6.2 26.35 5.95 26.45 5.95 26.45 6.25 M-21.4 -11.8 L-20.7 -11.9 -21.35 -11.6 -21.4 -11.8 M-13.6 -0.15 L-13.7 0.55 -13.85 0.6 -13.95 0.5 -14.15 0.0 -13.6 -0.15 M-1.2 -5.0 L-1.0 -5.0 -1.0 -4.9 -1.2 -5.0" fill="#9c988e" fill-rule="evenodd" stroke="none"/>
    <path d="M70.6 15.05 L70.7 15.45 70.45 15.45 70.6 15.05 M12.3 5.25 L12.25 5.05 12.3 5.05 12.3 5.25 M-11.15 1.1 L-10.95 0.8 -10.95 1.15 -10.9 2.35 -11.05 2.3 -11.15 1.1" fill="#847b6a" fill-rule="evenodd" stroke="none"/>
    <path d="M38.0 -3.9 Q38.85 -3.8 40.35 -1.9 41.3 -3.25 42.2 -3.8 L42.35 -4.05 42.5 -3.3 Q42.6 -2.35 41.35 -0.45 42.9 1.55 43.6 2.05 L43.35 2.4 Q41.85 1.75 40.65 0.5 L38.85 2.35 Q38.65 2.95 38.55 1.7 38.45 0.9 39.6 -0.8 38.75 -1.9 38.0 -3.4 L38.0 -3.9 M43.7 10.15 L43.8 9.9 44.0 10.65 Q44.1 11.6 42.85 13.45 L45.05 15.95 44.85 16.3 Q43.3 15.65 42.1 14.4 L40.35 16.25 Q40.15 16.85 40.0 15.6 39.95 14.8 41.05 13.1 L39.5 10.55 39.5 10.05 Q40.35 10.15 41.8 12.05 42.8 10.7 43.7 10.15" fill="#60606c" fill-opacity="0.49803922" fill-rule="evenodd" stroke="none"/>
    <path d="M32.7 -2.45 L32.35 -2.75 Q31.95 -5.65 33.55 -7.0 35.65 -8.8 41.95 -8.8 46.65 -8.8 55.9 -4.0 61.3 -1.2 66.05 1.95 69.75 4.4 69.9 9.5 70.0 13.05 70.6 15.05 L70.45 15.45 68.85 15.45 Q68.25 13.5 67.4 9.35 66.45 4.7 62.35 2.75 L50.35 -4.05 Q44.9 -7.3 41.7 -7.3 37.9 -7.3 35.0 -5.0 33.6 -3.8 32.7 -2.45 M26.55 7.0 L26.45 6.25 26.45 5.95 30.55 5.95 31.4 5.5 Q32.5 4.75 32.9 3.65 L33.35 3.7 33.45 4.1 33.55 5.2 33.1 6.7 Q32.65 7.45 32.05 7.45 L30.5 7.3 26.55 7.0 M-21.4 -11.8 L-21.35 -11.6 Q-22.65 -10.8 -23.75 -9.5 L-24.1 -8.9 Q-25.35 -6.85 -25.45 -5.25 L-25.7 -1.95 -26.05 -2.0 -26.35 -2.05 -26.45 -2.05 Q-27.55 -4.85 -25.5 -8.4 -24.4 -10.25 -23.0 -11.15 L-21.4 -11.8 M-11.3 -8.8 L-11.1 -8.75 -11.85 -6.85 Q-12.85 -4.4 -13.05 -3.25 L-13.6 -0.15 -14.15 0.0 Q-14.85 -2.1 -14.2 -5.15 -13.4 -8.8 -11.45 -8.8 L-11.3 -8.8 M-1.2 -5.0 L-1.0 -4.9 -1.6 -3.85 -3.45 -0.3 Q-3.7 0.4 -3.65 2.6 L-3.75 3.35 -3.85 3.35 -3.9 3.3 -4.15 3.25 -5.0 3.15 -5.05 3.15 Q-5.0 1.2 -4.6 -0.75 -3.65 -5.0 -1.2 -5.0" fill="#dcd6c9" fill-rule="evenodd" stroke="none"/>
    <path d="M32.45 -2.2 L32.6 -2.3 32.7 -2.45 Q33.6 -3.8 35.0 -5.0 37.9 -7.3 41.7 -7.3 44.9 -7.3 50.35 -4.05 L62.35 2.75 Q66.45 4.7 67.4 9.35 68.25 13.5 68.85 15.45 L61.05 15.7 55.45 16.2 55.15 16.45 46.9 16.3 46.9 16.25 46.85 16.0 47.05 13.75 Q47.05 11.1 45.1 9.65 43.35 8.35 40.8 8.45 L39.8 8.6 39.95 8.9 Q39.05 9.0 38.6 9.65 L37.55 9.7 37.55 10.45 37.25 10.8 Q37.05 11.2 37.05 12.8 L37.05 14.45 Q37.25 15.35 37.9 15.7 L38.1 15.9 38.1 16.15 38.1 16.2 36.8 16.45 Q36.05 16.45 35.45 16.05 L35.45 16.1 35.05 16.15 34.7 16.05 26.05 15.8 26.3 10.85 26.55 7.05 26.55 7.0 30.5 7.3 32.05 7.45 Q32.65 7.45 33.1 6.7 L33.55 5.2 33.45 4.1 33.35 3.7 32.9 3.65 33.15 2.15 32.45 -2.2 M45.55 -1.3 Q45.55 -3.0 44.85 -4.05 43.35 -6.05 40.85 -6.35 38.25 -6.7 37.3 -4.75 36.05 -2.25 36.05 0.7 L36.1 2.9 Q36.75 4.95 40.05 4.95 43.9 4.95 45.05 2.25 45.55 1.15 45.55 -1.3 M31.3 9.95 Q28.55 9.4 28.55 12.85 28.55 13.6 28.7 13.8 L28.85 13.95 31.05 13.95 33.45 13.2 33.85 12.85 33.55 11.7 33.6 10.9 Q32.95 10.25 31.3 9.95 M12.25 5.05 L12.3 5.25 Q12.05 6.45 12.05 8.7 L2.7 8.7 7.0 6.8 Q10.1 5.35 12.25 5.05 M-21.35 -11.6 L-20.7 -11.9 -19.95 -11.9 -19.95 -11.55 Q-20.4 -10.7 -21.15 -6.55 -21.95 -2.4 -21.95 -0.75 L-21.9 0.55 -21.8 0.85 -22.95 0.45 Q-23.7 0.1 -24.45 -1.25 -24.75 -1.8 -25.7 -1.95 L-25.45 -5.25 Q-25.35 -6.85 -24.1 -8.9 L-23.75 -9.5 Q-22.65 -10.8 -21.35 -11.6 M-13.6 -0.15 L-13.05 -3.25 Q-12.85 -4.4 -11.85 -6.85 L-11.1 -8.75 -11.3 -8.8 Q-10.65 -8.8 -10.2 -8.5 L-9.55 -7.9 Q-10.6 -6.15 -10.85 -3.5 L-10.95 0.8 -11.15 1.1 Q-11.4 0.45 -13.2 0.45 L-13.7 0.55 -13.6 -0.15 M-1.0 -4.9 L-1.0 -5.0 Q0.05 -4.9 0.05 -3.8 -2.2 1.85 -2.75 4.35 L-3.3 3.7 Q-3.5 3.45 -3.85 3.35 L-3.75 3.35 -3.65 2.6 Q-3.7 0.4 -3.45 -0.3 L-1.6 -3.85 -1.0 -4.9 M-47.2 5.0 L-46.95 5.2 -46.7 6.35 -46.05 7.8 -46.85 8.0 -49.5 8.5 Q-50.2 8.5 -49.7 8.0 -49.85 7.75 -50.7 7.55 L-50.45 7.45 -50.45 5.2 -47.2 5.0" fill="#baae96" fill-rule="evenodd" stroke="none"/>
    <path d="M-1.25 6.6 L-1.5 6.15 Q0.0 3.5 0.75 1.7 2.05 -1.55 2.05 -4.2 L1.85 -5.5 Q3.25 -6.4 3.95 -6.25 5.1 -6.05 6.05 -3.5 L7.0 0.15 Q7.45 0.95 10.55 0.95 L13.45 0.5 16.3 0.0 Q17.5 0.0 17.65 0.8 L18.05 2.45 Q19.3 4.45 21.55 4.45 L24.85 3.95 24.95 4.2 Q24.55 4.35 24.55 4.85 24.55 5.6 24.7 5.8 L24.85 5.95 25.0 5.95 Q24.5 6.25 24.25 7.4 24.05 8.3 24.05 11.25 L24.1 14.15 24.6 15.75 18.75 15.6 Q2.35 15.15 0.35 16.1 -0.95 15.5 -3.0 15.15 -7.3 14.35 -10.95 15.2 L-17.55 15.75 Q-25.05 16.05 -48.05 16.2 L-68.55 16.15 -67.55 14.6 -66.7 12.35 Q-65.5 9.7 -61.2 9.7 -58.5 9.7 -58.1 10.6 -57.7 11.45 -56.95 11.45 L-56.4 11.4 -56.25 11.5 Q-55.75 11.95 -54.95 11.95 -54.2 11.95 -54.1 11.75 L-54.05 11.5 -53.85 11.25 Q-51.8 12.95 -49.45 12.95 -48.75 12.95 -47.7 12.35 -46.6 11.7 -46.3 11.7 -43.7 11.45 -42.2 11.7 L-40.95 11.95 Q-40.2 11.8 -39.95 10.75 L-40.65 9.6 -40.85 9.45 -41.0 8.6 Q-41.4 7.45 -44.2 7.45 L-45.4 7.65 -45.25 7.5 -44.95 7.25 -44.95 5.0 Q-45.5 4.65 -45.7 3.2 -44.05 2.7 -43.55 2.2 -43.0 0.3 -41.5 -1.45 -38.55 -5.0 -33.2 -5.0 -32.55 -5.0 -32.45 -4.5 -32.3 -4.05 -31.7 -4.05 -31.4 -4.05 -29.5 -5.95 L-28.25 -7.2 -28.45 -4.9 -28.4 -3.15 -27.85 -1.9 -31.7 -0.25 Q-34.25 1.2 -34.4 2.5 -35.95 3.85 -35.95 4.85 -35.95 6.1 -35.55 5.7 L-35.25 5.9 -34.45 5.95 Q-33.55 5.95 -31.2 4.45 -28.8 2.95 -26.95 2.95 -22.0 4.95 -20.45 4.95 -15.45 4.95 -14.65 5.8 L-14.25 6.55 Q-13.95 7.0 -13.05 7.2 L-8.25 7.3 Q-5.3 7.35 -3.45 9.25 L-1.3 10.45 1.3 10.95 2.3 10.75 2.35 10.75 7.05 10.95 13.0 10.95 Q14.55 10.25 14.55 4.7 L14.45 3.6 14.35 3.2 Q11.9 1.85 5.55 4.85 1.85 6.6 0.45 7.7 L-1.25 6.6" fill="#400000" fill-rule="evenodd" stroke="none"/>
    <path d="M-1.25 6.6 L0.45 7.7 Q-0.4 8.3 -0.45 8.75 L-0.3 9.95 0.25 10.25 1.25 10.55 1.3 10.95 -1.3 10.45 -3.45 9.25 Q-5.3 7.35 -8.25 7.3 L-13.05 7.2 Q-13.95 7.0 -14.25 6.55 L-14.65 5.8 Q-15.45 4.95 -20.45 4.95 -22.0 4.95 -26.95 2.95 -28.8 2.95 -31.2 4.45 -33.55 5.95 -34.45 5.95 L-35.25 5.9 -35.55 5.7 Q-35.95 6.1 -35.95 4.85 -35.95 3.85 -34.4 2.5 L-34.45 2.7 Q-34.45 3.5 -34.15 3.7 L-33.45 3.95 -31.15 2.0 Q-28.75 0.2 -26.6 0.2 -26.25 0.2 -26.05 0.8 -25.8 1.55 -24.95 1.95 L-23.6 3.05 -16.45 3.45 Q-15.05 3.45 -13.55 2.5 -13.35 6.7 -9.75 6.5 L-4.7 5.5 Q-4.15 5.7 -3.5 7.15 -2.85 8.45 -2.2 8.45 -1.4 8.45 -1.15 8.05 L-0.95 7.45 Q-0.95 7.15 -1.25 6.6 M-28.25 -7.2 L-29.5 -5.95 Q-31.4 -4.05 -31.7 -4.05 -32.3 -4.05 -32.45 -4.5 -32.55 -5.0 -33.2 -5.0 -38.55 -5.0 -41.5 -1.45 -43.0 0.3 -43.55 2.2 -44.05 2.7 -45.7 3.2 -45.9 2.95 -46.3 2.85 L-50.55 3.2 Q-51.9 3.55 -52.25 4.3 L-52.45 5.35 Q-53.3 6.0 -53.8 6.95 L-55.3 6.75 -55.8 6.7 -55.85 6.65 -56.05 6.45 -55.85 6.5 -55.2 5.15 -54.9 4.8 -53.95 3.75 -53.25 2.6 -53.2 2.5 -53.1 2.25 -53.05 2.25 -52.1 1.2 -51.85 1.15 -51.7 1.1 -51.5 1.05 -50.8 0.95 -50.45 0.9 Q-48.1 0.7 -46.55 -0.05 L-45.55 -0.75 -45.45 -0.8 -45.4 -0.9 -44.4 -2.3 -43.15 -4.4 -42.25 -4.9 -40.45 -6.1 -40.4 -6.15 -37.35 -6.85 -35.2 -7.2 -33.4 -7.6 Q-32.4 -7.85 -32.2 -8.0 L-32.2 -8.05 -29.85 -9.75 -27.45 -11.65 Q-25.35 -13.4 -25.5 -13.85 L-25.0 -14.25 Q-21.8 -16.3 -15.2 -16.3 -9.65 -16.3 -7.35 -14.8 L-5.55 -12.8 -2.95 -10.15 -2.6 -9.45 -2.45 -9.25 -2.45 -9.15 -2.4 -9.15 -2.35 -9.1 Q-1.6 -8.2 -0.05 -7.8 L3.25 -7.3 Q5.15 -7.05 6.05 -6.3 L8.55 -3.75 8.65 -3.65 8.9 -3.5 8.9 -3.45 8.95 -3.0 9.45 -3.15 Q11.15 -2.25 14.15 -2.3 L19.85 -1.8 20.05 -1.65 20.05 -1.25 20.1 -0.05 Q20.65 0.95 23.05 0.95 24.5 0.95 27.8 -0.5 L30.25 -1.65 30.35 0.75 30.4 1.1 28.05 2.5 25.8 3.6 24.85 3.95 21.55 4.45 Q19.3 4.45 18.05 2.45 L17.65 0.8 Q17.5 0.0 16.3 0.0 L13.45 0.5 10.55 0.95 Q7.45 0.95 7.0 0.15 L6.05 -3.5 Q5.1 -6.05 3.95 -6.25 3.25 -6.4 1.85 -5.5 1.5 -6.4 0.65 -6.8 L-2.45 -6.6 -3.6 -5.95 -3.95 -6.4 -7.55 -10.9 Q-9.15 -13.1 -10.7 -13.2 L-14.55 -12.8 -17.4 -12.7 -17.5 -12.7 Q-17.8 -13.45 -19.15 -13.85 L-22.95 -13.75 Q-27.5 -12.4 -28.25 -7.2 M-40.85 9.45 L-40.65 9.6 -39.95 10.75 Q-40.2 11.8 -40.95 11.95 L-42.2 11.7 Q-43.7 11.45 -46.3 11.7 -46.6 11.7 -47.7 12.35 -48.75 12.95 -49.45 12.95 -51.8 12.95 -53.85 11.25 L-54.0 11.1 -54.05 11.5 -54.1 11.75 Q-54.2 11.95 -54.95 11.95 -55.75 11.95 -56.25 11.5 L-56.4 11.4 -56.95 11.45 Q-57.7 11.45 -58.1 10.6 -58.5 9.7 -61.2 9.7 -65.5 9.7 -66.7 12.35 L-67.55 14.6 -68.55 16.15 -69.15 16.15 Q-69.8 15.15 -69.9 14.15 L-69.15 12.4 Q-67.8 9.25 -66.3 7.7 -63.0 4.25 -59.85 5.8 L-57.95 6.45 -57.95 6.55 Q-57.95 7.75 -57.55 8.1 L-56.25 8.8 -56.05 9.6 -55.45 9.6 -56.05 8.85 -51.45 9.2 -51.45 10.7 -49.7 10.95 -47.55 10.25 Q-45.55 9.5 -43.2 9.5 -42.5 9.5 -42.35 10.15 L-41.95 10.95 -41.25 10.5 -40.95 10.25 -40.9 10.15 -40.85 9.7 -40.85 9.45" fill="#660000" fill-rule="evenodd" stroke="none"/>
  </g>
</svg>
