<?xml version="1.0" encoding="UTF-8" standalone="no"?>
<svg xmlns:ffdec="https://www.free-decompiler.com/flash" xmlns:xlink="http://www.w3.org/1999/xlink" ffdec:objectType="shape" height="89.55px" width="92.05px" xmlns="http://www.w3.org/2000/svg">
  <g transform="matrix(1.0, 0.0, 0.0, 1.0, 46.0, 38.05)">
    <path d="M6.45 -25.95 L7.35 -25.75 9.85 -24.45 15.25 -21.35 Q16.2 -21.75 17.85 -20.4 L21.05 -16.95 Q21.6 -15.1 25.55 -9.9 L29.8 -3.15 32.75 2.6 33.4 3.2 33.75 3.25 Q34.0 3.35 34.05 3.95 L35.7 6.3 39.05 12.05 42.7 16.9 Q46.05 21.4 46.05 22.65 46.05 23.8 45.85 23.65 46.25 24.05 45.05 24.05 L43.45 25.85 42.35 27.3 Q39.35 31.05 36.55 31.05 L36.35 31.05 34.8 31.55 34.65 31.5 34.05 31.55 33.7 31.4 Q32.75 30.7 30.3 27.5 27.4 23.6 26.55 21.85 L24.05 17.45 Q22.7 14.95 22.3 13.65 19.25 15.55 18.05 15.55 L16.35 15.3 Q16.15 15.6 16.1 15.0 14.5 14.5 12.55 10.8 L11.45 8.6 11.3 10.15 11.1 13.45 Q12.75 13.35 13.75 14.85 15.15 18.15 15.95 19.1 L19.0 22.7 19.85 23.5 21.75 26.5 23.3 29.9 24.5 32.4 24.5 33.15 24.35 33.55 24.35 33.8 23.9 34.0 Q23.5 34.75 21.55 35.65 L21.55 35.75 22.5 38.3 23.75 41.75 Q24.5 43.85 24.5 44.65 L24.35 45.6 24.1 45.75 Q24.65 45.95 23.9 46.0 23.2 47.3 19.0 48.8 L18.55 49.0 18.0 49.0 Q16.55 49.2 15.4 50.2 L15.1 49.95 Q8.25 51.5 -2.5 51.5 L-19.5 50.7 Q-24.95 49.9 -28.85 48.0 L-30.0 48.0 Q-32.15 48.0 -33.5 46.5 -34.5 45.35 -34.5 44.3 -33.35 39.8 -32.2 37.6 -33.4 36.7 -34.0 35.65 L-34.35 35.2 -34.5 34.0 -36.3 34.0 -36.35 34.25 Q-42.7 33.3 -44.95 29.1 -45.9 27.4 -46.0 25.35 L-45.95 23.65 Q-45.95 19.15 -42.45 5.65 L-42.45 5.45 Q-42.45 4.35 -41.0 -0.4 L-39.45 -5.7 -38.45 -11.45 Q-37.9 -14.7 -36.95 -16.95 -36.1 -19.0 -35.35 -22.95 L-34.15 -29.55 Q-32.4 -37.15 -27.95 -37.95 L-27.95 -38.05 -18.85 -37.55 Q-6.95 -36.45 -6.95 -32.15 L-7.35 -29.5 -7.85 -26.9 -6.45 -26.95 -6.35 -27.2 -4.35 -27.0 -3.95 -26.95 -4.0 -26.9 2.45 -26.0 6.45 -25.95 M14.05 -18.25 L13.35 -20.0 13.15 -20.2 13.0 -20.35 12.9 -20.4 12.0 -21.0 11.65 -21.2 11.3 -21.4 10.55 -21.75 10.3 -21.9 9.7 -22.15 9.0 -22.4 8.35 -22.65 7.7 -22.85 7.6 -22.85 7.5 -22.9 7.1 -23.0 6.65 -23.1 6.15 -23.25 Q5.85 -22.95 5.2 -22.95 L5.15 -22.95 5.35 -22.3 4.05 -22.45 3.1 -22.35 3.0 -23.1 1.75 -23.25 2.9 -22.25 2.95 -22.2 6.25 -18.4 6.35 -18.25 6.45 -18.1 6.75 -17.7 7.25 -16.95 7.75 -16.15 8.65 -14.65 9.05 -13.9 9.9 -12.4 10.6 -11.0 11.5 -9.15 12.1 -7.85 12.4 -7.2 13.2 -5.3 13.3 -5.05 13.45 -5.4 14.15 -7.1 14.3 -7.55 14.75 -8.95 15.3 -11.5 15.45 -13.6 15.5 -13.75 15.55 -14.05 15.6 -14.7 15.0 -16.0 14.85 -16.3 14.35 -17.5 14.1 -18.05 14.05 -18.25 M17.9 -16.05 L18.5 -13.8 18.1 -12.1 17.55 -9.35 17.1 -7.7 16.6 -7.5 15.45 -4.15 15.25 -3.55 15.3 -3.5 Q14.3 -1.7 14.1 0.35 L13.95 1.25 14.05 2.05 13.75 3.55 13.3 5.05 12.45 6.0 13.25 6.9 14.55 9.05 16.05 11.25 17.5 13.65 19.4 12.6 Q23.35 10.4 25.6 8.55 L29.65 5.65 31.85 4.1 Q29.3 0.6 23.7 -8.7 20.1 -14.65 17.2 -18.05 L17.9 -16.05 M8.65 4.3 L11.1 4.05 11.55 3.3 11.55 3.15 Q11.4 2.5 11.55 2.1 L11.85 1.5 12.0 -0.2 12.25 -1.6 Q11.2 -2.8 9.85 -6.15 L9.35 -7.4 7.05 -12.9 1.65 -20.05 Q-1.9 -24.35 -3.65 -23.45 L-3.8 -23.7 -3.85 -23.85 -6.8 -24.15 -7.15 -24.2 -7.3 -24.2 -8.45 -24.2 -10.05 -24.1 -11.75 -23.95 -12.35 -23.9 -11.95 -23.7 -11.9 -23.7 Q-9.6 -22.55 -6.85 -19.0 L-1.2 -11.15 3.35 -3.5 Q5.1 -0.45 6.8 1.75 L8.55 3.85 8.45 4.3 8.65 4.3 M1.5 -2.55 L0.3 -4.75 -1.45 -8.0 -2.2 -9.4 -2.55 -9.85 -5.35 -13.65 -6.3 -14.85 -7.75 -16.7 -9.8 -19.15 -11.1 -20.65 -13.45 -23.15 -13.45 -23.25 -13.45 -23.65 -13.75 -23.55 -14.6 -23.05 -14.85 -22.8 Q-15.75 -22.1 -16.9 -21.95 L-16.95 -21.95 -19.65 -20.05 -21.7 -17.8 -22.65 -16.15 -22.75 -15.9 -23.5 -14.3 -24.85 -11.25 -24.9 -11.15 -25.25 -10.35 -25.55 -9.6 -26.5 -6.5 -26.55 -6.4 -26.8 -5.05 -27.25 -1.45 -27.4 0.45 -27.5 2.1 Q-26.65 2.15 -26.65 2.5 L-26.5 3.25 -26.3 3.45 Q-25.15 4.15 -19.75 4.5 L-6.05 4.8 5.4 4.45 6.0 4.45 5.8 4.25 5.75 4.2 Q4.3 2.8 2.4 -0.8 L1.5 -2.55 M-26.5 13.65 L-26.5 9.25 Q-26.4 7.3 -25.95 6.05 L-27.45 5.55 Q-28.5 5.1 -28.75 4.65 L-29.35 3.5 -29.95 3.6 Q-29.5 -5.15 -27.35 -11.65 -23.8 -22.5 -15.95 -25.15 L-15.7 -25.3 -15.3 -25.45 Q-13.1 -26.45 -9.9 -26.75 L-9.95 -27.65 -9.45 -29.85 Q-8.95 -31.45 -8.95 -32.1 -8.95 -33.6 -11.55 -34.2 L-23.65 -35.7 -27.2 -35.7 -27.55 -35.25 -27.65 -35.15 -27.8 -35.05 -27.95 -34.95 -28.75 -34.5 Q-30.7 -33.5 -31.2 -31.4 -31.45 -30.2 -32.05 -28.5 L-32.95 -25.7 -34.2 -20.6 -35.45 -14.9 -38.0 -4.0 -39.35 1.0 Q-40.45 2.3 -40.45 4.9 L-40.4 6.55 -40.95 8.85 -42.5 15.35 Q-43.9 21.55 -43.95 23.35 L-43.95 23.45 -43.95 23.6 -43.95 23.7 Q-43.85 26.65 -41.8 29.25 -39.85 31.7 -36.6 32.4 L-35.9 32.2 -35.65 32.15 -35.2 32.05 -34.3 32.25 -34.2 31.95 -33.3 29.2 -33.1 28.7 -31.0 24.15 -29.4 21.25 -29.2 20.85 -28.0 17.7 -27.05 15.95 -27.05 14.7 -27.0 13.65 -26.9 13.65 -26.5 13.7 -26.5 13.65 M-19.4 17.8 L-19.5 17.8 -20.45 17.9 -20.75 17.9 -23.3 18.05 -25.05 17.9 -25.9 19.55 -27.2 21.85 -28.5 24.0 -28.7 24.3 -28.9 24.7 -31.35 30.15 -31.65 31.1 -32.2 33.0 -32.45 34.6 -30.85 35.65 Q-29.85 35.15 -27.9 34.4 L-24.85 33.25 -24.3 33.0 -19.2 30.95 -18.85 30.8 Q-17.8 30.35 -15.15 28.3 L-14.95 28.15 -14.65 27.9 Q-13.2 26.75 -11.95 26.25 L-11.85 26.1 -11.5 25.8 -10.2 25.7 -10.15 25.65 -10.05 25.75 -9.25 26.25 -8.2 27.15 -8.05 27.3 -8.0 27.35 -7.6 27.8 -6.7 28.7 -4.45 31.1 -3.9 31.7 -3.85 31.75 -2.5 33.0 0.95 35.8 5.05 38.85 Q5.2 37.9 6.0 36.55 L6.6 35.55 8.8 32.4 9.0 32.0 9.6 30.75 9.9 30.1 10.75 28.35 11.5 27.1 11.5 26.25 11.65 26.15 11.7 26.15 12.05 25.95 12.15 25.95 12.3 25.9 12.35 25.85 12.5 25.8 12.55 25.8 12.75 25.65 13.0 25.5 13.7 25.7 13.9 25.85 14.05 25.95 14.85 26.55 17.0 29.05 19.05 30.2 19.8 30.6 19.95 30.65 21.3 31.55 21.25 31.45 21.1 31.15 21.0 30.95 20.95 30.9 20.9 30.8 20.55 30.1 20.2 29.45 18.4 25.55 17.95 24.55 17.25 24.5 16.95 24.5 16.75 24.1 16.45 23.55 16.4 23.55 14.95 21.4 14.85 21.3 13.65 19.35 12.85 18.15 Q11.95 16.75 10.8 16.5 L9.45 16.55 9.15 16.45 8.45 16.55 8.15 16.55 7.55 16.6 7.0 16.6 6.3 16.65 4.7 16.7 3.75 16.7 1.2 16.8 -0.75 16.6 Q-1.45 16.2 -2.5 16.1 -3.75 16.0 -4.45 16.5 L-4.55 16.45 Q-6.1 16.05 -7.6 17.45 L-7.5 17.15 -7.65 17.15 -15.9 17.6 -18.9 17.8 -19.4 17.8 M-9.05 14.55 L7.55 13.9 7.55 13.7 8.7 13.8 9.15 13.8 9.1 13.75 8.95 13.0 9.1 13.0 9.05 10.55 Q8.85 8.45 9.0 7.35 L9.15 6.75 -5.95 7.05 -24.15 6.35 -24.0 7.2 -23.95 9.8 -24.05 13.75 -24.35 15.85 -18.4 15.2 -9.05 14.55 M-23.0 35.5 L-23.8 35.9 -27.5 37.5 -29.5 37.5 -29.4 38.05 -30.0 38.55 -29.6 38.95 -30.15 38.7 -31.0 40.55 Q-32.5 43.6 -32.5 44.1 -32.5 45.1 -30.95 45.65 L-29.8 46.1 -29.4 45.95 -29.3 46.0 -28.7 46.3 -26.2 47.2 -25.6 47.3 -22.4 48.0 -22.1 48.05 -2.75 49.25 10.6 48.65 13.0 48.0 15.3 47.85 16.05 47.7 16.65 47.45 18.0 46.55 18.1 46.5 18.55 46.3 Q19.3 45.9 20.6 45.4 L22.15 44.75 Q21.4 43.5 20.5 40.95 L19.5 37.55 19.5 37.3 19.45 36.1 19.5 35.6 19.25 34.55 19.1 34.15 19.9 33.85 16.0 31.0 15.25 30.4 13.5 28.9 13.25 28.7 11.0 32.6 10.45 33.5 7.65 38.25 7.95 38.5 7.85 38.5 7.75 38.5 7.55 38.45 Q6.6 40.0 6.55 40.25 L6.0 40.5 5.65 40.4 5.0 40.5 Q4.05 40.5 0.25 37.7 L-4.5 34.0 -7.45 31.4 -10.65 28.0 -12.65 29.8 -12.95 30.0 -18.45 33.25 -23.0 35.5 M42.8 22.4 Q41.0 20.4 38.3 15.85 L36.55 17.05 34.1 19.3 32.0 21.0 29.7 22.9 34.65 29.45 35.8 28.55 36.05 28.55 37.2 28.25 37.25 28.25 37.35 28.3 37.95 27.95 39.8 25.9 42.2 23.6 42.4 23.1 42.8 22.4 M28.65 21.4 Q29.05 19.95 32.45 17.3 35.3 15.05 37.4 14.4 L37.05 13.75 32.85 5.75 27.1 10.3 23.9 12.6 25.3 15.55 Q26.85 18.95 28.05 20.6 L28.65 21.4 M20.75 36.0 L20.75 36.05 20.8 36.15 21.3 35.8 20.75 36.0" fill="#000000" fill-rule="evenodd" stroke="none"/>
    <path d="M3.1 -22.35 L2.9 -22.25 1.75 -23.25 3.0 -23.1 3.1 -22.35 M-11.95 -23.7 L-12.35 -23.9 -11.75 -23.95 -11.95 -23.7 M5.8 4.25 L6.0 4.45 5.4 4.45 5.8 4.25 M-13.75 -23.55 L-13.45 -23.65 -13.45 -23.25 -13.75 -23.55" fill="#221f1c" fill-rule="evenodd" stroke="none"/>
    <path d="M13.45 -5.4 L13.3 -5.05 13.2 -5.3 13.45 -5.4 M8.65 4.3 L8.45 4.3 8.55 3.85 8.65 4.3 M7.0 16.65 L6.3 16.65 7.0 16.6 7.0 16.65" fill="#332e28" fill-rule="evenodd" stroke="none"/>
    <path d="M-7.15 -24.2 L-6.8 -24.15 -6.95 -24.15 -7.15 -24.2 M-7.0 3.2 L-8.2 3.3 -6.95 3.05 -7.0 3.2" fill="#001671" fill-rule="evenodd" stroke="none"/>
    <path d="M-11.9 -23.7 L-11.95 -23.7 -11.75 -23.95 -11.9 -23.7 M-26.5 13.65 L-26.5 13.7 -26.9 13.65 -26.5 13.65 M-27.55 -35.25 L-27.2 -35.7 -27.35 -35.45 -27.55 -35.25" fill="#11100f" fill-rule="evenodd" stroke="none"/>
    <path d="M8.45 16.55 L8.25 16.65 8.15 16.55 8.45 16.55" fill="#0033ff" fill-rule="evenodd" stroke="none"/>
    <path d="M16.05 47.7 L15.3 47.85 15.25 47.85 16.05 47.7" fill="#331a4d" fill-rule="evenodd" stroke="none"/>
    <path d="M3.1 -22.35 L2.95 -22.2 2.9 -22.25 3.1 -22.35 M5.75 4.2 L5.8 4.25 5.4 4.45 5.75 4.2 M-19.4 17.8 L-19.5 17.85 -19.5 17.8 -19.4 17.8 M-7.6 17.45 L-7.65 17.15 -7.5 17.15 -7.6 17.45 M-28.9 24.7 L-29.1 25.1 -29.3 25.75 -29.65 26.65 -29.75 26.8 -30.45 28.3 -31.35 30.15 -28.9 24.7 M-12.95 30.0 L-12.65 29.8 -12.85 30.25 -12.95 30.0" fill="#1c181d" fill-rule="evenodd" stroke="none"/>
    <path d="M7.55 16.6 L7.1 16.9 7.0 16.65 7.0 16.6 7.55 16.6 M15.25 30.4 L16.0 31.0 15.65 31.2 15.25 30.4" fill="#2c262d" fill-rule="evenodd" stroke="none"/>
    <path d="M-33.1 28.7 L-33.3 29.2 -33.1 28.65 -33.1 28.7 M-35.65 32.15 L-35.9 32.2 -35.8 31.9 -35.65 32.15" fill="#372c22" fill-rule="evenodd" stroke="none"/>
    <path d="M42.8 22.4 L42.4 23.1 42.2 23.6 39.8 25.9 37.95 27.95 37.35 28.3 37.25 28.25 37.2 28.25 36.05 28.55 35.8 28.55 34.65 29.45 29.7 22.9 32.0 21.0 34.1 19.3 36.55 17.05 38.3 15.85 Q41.0 20.4 42.8 22.4" fill="#aa8a71" fill-rule="evenodd" stroke="none"/>
    <path d="M3.1 -22.35 L4.05 -22.45 5.35 -22.3 5.15 -22.95 5.2 -22.95 Q5.85 -22.95 6.15 -23.25 L6.65 -23.1 7.1 -23.0 7.5 -22.9 7.6 -22.85 7.7 -22.85 8.35 -22.65 9.0 -22.4 9.7 -22.15 10.3 -21.9 10.55 -21.75 11.3 -21.4 11.65 -21.2 12.0 -21.0 12.9 -20.4 13.0 -20.35 13.15 -20.2 13.35 -20.0 14.05 -18.25 6.25 -18.4 2.95 -22.2 3.1 -22.35 M15.0 -16.0 L15.6 -14.7 15.55 -14.05 15.5 -13.75 15.45 -13.6 9.05 -13.9 8.65 -14.65 7.75 -16.15 15.0 -16.0 M15.3 -11.5 L14.75 -8.95 11.5 -9.15 10.6 -11.0 9.9 -12.4 10.15 -11.9 15.3 -11.5 M14.15 -7.1 L13.45 -5.4 13.2 -5.3 12.4 -7.2 14.15 -7.1 M1.5 -2.55 L2.4 -0.8 Q4.3 2.8 5.75 4.2 L5.4 4.45 -6.05 4.8 -19.75 4.5 Q-25.15 4.15 -26.3 3.45 L-26.3 3.25 -26.5 3.25 -26.65 2.5 Q-26.65 2.15 -27.5 2.1 L-27.4 0.45 Q-12.45 0.25 1.3 1.25 L3.65 1.45 2.45 -0.7 -3.45 -1.05 -9.1 -1.35 -27.25 -1.45 -26.8 -5.05 1.5 -2.55 M-26.5 -6.5 L-25.55 -9.6 -25.65 -9.25 -1.45 -8.0 0.3 -4.75 -9.5 -5.35 -26.5 -6.6 -26.5 -6.5 M-24.85 -11.25 L-23.5 -14.3 -5.9 -12.95 -4.75 -12.85 -5.35 -13.65 -2.55 -9.85 -10.6 -10.25 -24.85 -11.25 M-22.75 -15.9 L-22.65 -16.15 -21.7 -17.8 -21.0 -17.7 -7.75 -16.7 -6.3 -14.85 -9.6 -15.1 -22.75 -15.9 M-19.65 -20.05 L-16.95 -21.95 -16.9 -21.95 Q-15.75 -22.1 -14.85 -22.8 L-14.6 -23.05 -13.75 -23.55 -13.45 -23.25 -13.45 -23.15 -11.1 -20.65 -9.8 -19.15 -19.0 -20.0 -19.65 -20.05 M-7.0 3.2 L-6.95 3.05 -8.2 3.3 -7.0 3.2 M-19.5 17.8 L-19.5 17.85 -19.4 17.8 -18.9 17.8 -15.9 17.6 -7.65 17.15 -7.6 17.45 Q-6.1 16.05 -4.55 16.45 L-4.45 16.5 Q-3.75 16.0 -2.5 16.1 -1.45 16.2 -0.75 16.6 L1.2 16.8 3.75 16.7 4.7 16.7 6.3 16.65 7.0 16.65 7.1 16.9 7.55 16.6 8.15 16.55 8.25 16.65 8.45 16.55 9.15 16.45 9.45 16.55 10.8 16.5 Q11.95 16.75 12.85 18.15 L13.65 19.35 -10.35 20.65 -27.2 21.85 -25.9 19.55 -25.05 17.9 -23.3 18.05 -20.75 17.9 -20.45 17.9 -19.5 17.8 M-28.5 24.0 L-19.5 24.0 -8.5 23.05 3.5 22.0 14.95 21.4 16.4 23.55 11.75 24.0 -9.65 25.95 -9.25 26.25 -10.05 25.75 -10.15 25.65 -10.2 25.7 -11.5 25.8 -11.85 26.1 -26.25 26.8 -29.65 26.65 -29.3 25.75 -29.1 25.1 -28.9 24.7 -28.7 24.3 -28.5 24.0 M-24.3 33.0 L-24.85 33.25 -27.9 34.4 Q-29.85 35.15 -30.85 35.65 L-32.45 34.6 -32.2 33.0 -24.3 33.0 M-31.65 31.1 L-31.35 30.15 -30.45 28.3 -30.75 29.0 -15.15 28.3 Q-17.8 30.35 -18.85 30.8 L-19.2 30.95 -31.65 31.1 M-7.6 27.8 L11.65 26.15 11.5 26.25 11.5 27.1 10.75 28.35 9.9 30.1 9.6 30.75 8.5 30.8 -4.65 30.85 -4.45 31.1 -6.7 28.7 -7.6 27.8 M14.05 25.95 L18.4 25.55 20.2 29.45 20.55 30.1 19.05 30.2 17.0 29.05 14.85 26.55 14.05 25.95 M-2.5 33.0 L7.5 33.0 8.45 32.9 8.8 32.4 6.6 35.55 6.0 36.55 Q5.2 37.9 5.05 38.85 L0.95 35.8 -2.5 33.0 M28.65 21.4 L28.05 20.6 Q26.85 18.95 25.3 15.55 L23.9 12.6 27.1 10.3 32.85 5.75 37.05 13.75 37.4 14.4 Q35.3 15.05 32.45 17.3 29.05 19.95 28.65 21.4" fill="#333333" fill-rule="evenodd" stroke="none"/>
    <path d="M-6.8 -24.15 L-3.85 -23.85 -3.8 -23.7 -3.65 -23.45 Q-1.9 -24.35 1.65 -20.05 L7.05 -12.9 9.35 -7.4 9.85 -6.15 Q11.2 -2.8 12.25 -1.6 L12.0 -0.2 11.85 1.5 11.55 2.1 Q11.4 2.5 11.55 3.15 L11.55 3.3 11.1 4.05 8.65 4.3 8.55 3.85 6.8 1.75 Q5.1 -0.45 3.35 -3.5 L-1.2 -11.15 -6.85 -19.0 Q-9.6 -22.55 -11.9 -23.7 L-11.75 -23.95 -10.05 -24.1 -8.45 -24.2 -7.3 -24.2 -7.15 -24.2 -6.95 -24.15 -6.8 -24.15 M-27.2 -35.7 L-23.65 -35.7 -11.55 -34.2 Q-8.95 -33.6 -8.95 -32.1 -8.95 -31.45 -9.45 -29.85 L-9.95 -27.65 -9.9 -26.75 Q-13.1 -26.45 -15.3 -25.45 L-15.7 -25.3 -15.95 -25.15 Q-23.8 -22.5 -27.35 -11.65 -29.5 -5.15 -29.95 3.6 L-29.35 3.5 -28.75 4.65 Q-28.5 5.1 -27.45 5.55 L-25.95 6.05 Q-26.4 7.3 -26.5 9.25 L-26.5 13.65 -26.9 13.65 -27.0 13.65 -27.05 14.7 -27.05 15.95 -28.0 17.7 -29.2 20.85 -29.4 21.25 -31.0 24.15 -33.1 28.7 -33.1 28.65 -33.15 28.65 Q-36.55 27.7 -38.25 26.8 L-39.9 24.5 -40.05 24.3 -40.45 20.55 Q-40.45 19.35 -38.15 8.2 L-34.9 -6.9 -32.95 -13.65 -30.9 -20.4 -28.35 -28.2 -26.45 -33.95 Q-26.45 -34.8 -27.35 -35.45 L-27.2 -35.7 M-9.05 14.55 L-18.4 15.2 -24.35 15.85 -24.05 13.75 -23.95 9.8 -24.0 7.2 -24.15 6.35 -5.95 7.05 9.15 6.75 9.0 7.35 Q8.85 8.45 9.05 10.55 L9.1 13.0 8.95 13.0 9.1 13.75 9.15 13.8 8.7 13.8 7.55 13.7 7.55 13.9 -9.05 14.55" fill="#14100c" fill-rule="evenodd" stroke="none"/>
    <path d="M-33.3 29.2 L-34.2 31.95 -34.3 32.25 -35.2 32.05 -35.65 32.15 -35.8 31.9 -35.9 32.2 -36.6 32.4 Q-39.85 31.7 -41.8 29.25 -43.85 26.65 -43.95 23.7 L-43.95 23.6 -43.95 23.45 -43.95 23.35 Q-43.9 21.55 -42.5 15.35 L-40.95 8.85 -40.4 6.55 -40.45 4.9 Q-40.45 2.3 -39.35 1.0 L-38.0 -4.0 -35.45 -14.9 -34.2 -20.6 -32.95 -25.7 -32.05 -28.5 Q-31.45 -30.2 -31.2 -31.4 -30.7 -33.5 -28.75 -34.5 L-27.95 -34.95 -27.8 -35.05 -27.65 -35.15 -27.55 -35.25 -27.35 -35.45 Q-26.45 -34.8 -26.45 -33.95 L-28.35 -28.2 -30.9 -20.4 -32.95 -13.65 -34.9 -6.9 -38.15 8.2 Q-40.45 19.35 -40.45 20.55 L-40.05 24.3 -39.9 24.5 -38.25 26.8 Q-36.55 27.7 -33.15 28.65 L-33.1 28.65 -33.3 29.2" fill="#221c15" fill-rule="evenodd" stroke="none"/>
    <path d="M6.25 -18.4 L14.05 -18.25 14.1 -18.05 14.35 -17.5 14.85 -16.3 15.0 -16.0 7.75 -16.15 7.25 -16.95 6.75 -17.7 6.45 -18.1 6.35 -18.25 6.25 -18.4 M15.45 -13.6 L15.3 -11.5 10.15 -11.9 9.9 -12.4 9.05 -13.9 15.45 -13.6 M14.75 -8.95 L14.3 -7.55 14.15 -7.1 12.4 -7.2 12.1 -7.85 11.5 -9.15 14.75 -8.95 M0.3 -4.75 L1.5 -2.55 -26.8 -5.05 -26.55 -6.4 -26.5 -6.5 -26.5 -6.6 -9.5 -5.35 0.3 -4.75 M-27.4 0.45 L-27.25 -1.45 -9.1 -1.35 -3.45 -1.05 2.45 -0.7 3.65 1.45 1.3 1.25 Q-12.45 0.25 -27.4 0.45 M-25.55 -9.6 L-25.25 -10.35 -24.9 -11.15 -24.85 -11.25 -10.6 -10.25 -2.55 -9.85 -2.2 -9.4 -1.45 -8.0 -25.65 -9.25 -25.55 -9.6 M-23.5 -14.3 L-22.75 -15.9 -9.6 -15.1 -6.3 -14.85 -5.35 -13.65 -4.75 -12.85 -5.9 -12.95 -23.5 -14.3 M-21.7 -17.8 L-19.65 -20.05 -19.0 -20.0 -9.8 -19.15 -7.75 -16.7 -21.0 -17.7 -21.7 -17.8 M-27.2 21.85 L-10.35 20.65 13.65 19.35 14.85 21.3 14.95 21.4 3.5 22.0 -8.5 23.05 -19.5 24.0 -28.5 24.0 -27.2 21.85 M-29.65 26.65 L-26.25 26.8 -11.85 26.1 -11.95 26.25 Q-13.2 26.75 -14.65 27.9 L-14.95 28.15 -15.15 28.3 -30.75 29.0 -30.45 28.3 -29.75 26.8 -29.65 26.65 M-9.25 26.25 L-9.65 25.95 11.75 24.0 16.4 23.55 16.45 23.55 16.75 24.1 16.95 24.5 17.25 24.5 17.95 24.55 18.4 25.55 14.05 25.95 13.9 25.85 13.7 25.7 13.0 25.5 12.75 25.65 12.55 25.8 12.5 25.8 12.35 25.85 12.3 25.9 12.15 25.95 12.05 25.95 11.7 26.15 11.65 26.15 -7.6 27.8 -8.0 27.35 -8.05 27.3 -8.2 27.15 -9.25 26.25 M-24.3 33.0 L-32.2 33.0 -31.65 31.1 -19.2 30.95 -24.3 33.0 M-4.45 31.1 L-4.65 30.85 8.5 30.8 9.6 30.75 9.0 32.0 8.8 32.4 8.45 32.9 7.5 33.0 -2.5 33.0 -3.85 31.75 -3.9 31.7 -4.45 31.1 M20.55 30.1 L20.9 30.8 20.95 30.9 21.0 30.95 21.1 31.15 21.25 31.45 21.3 31.55 19.95 30.65 19.8 30.6 19.05 30.2 20.55 30.1" fill="#1a1a1a" fill-rule="evenodd" stroke="none"/>
    <path d="M-25.6 47.3 L-26.2 47.2 -28.7 46.3 -29.3 46.0 -29.4 45.95 -29.8 46.1 -30.95 45.65 Q-32.5 45.1 -32.5 44.1 -32.5 43.6 -31.0 40.55 L-30.15 38.7 -29.6 38.95 -30.0 38.55 -29.4 38.05 -29.5 37.5 -27.5 37.5 -23.8 35.9 -23.0 35.5 Q-23.15 41.1 -25.6 47.3 M13.5 28.9 L15.25 30.4 15.65 31.2 16.0 31.0 19.9 33.85 19.1 34.15 19.25 34.55 19.5 35.6 19.45 36.1 19.5 37.3 19.5 37.55 20.5 40.95 Q21.4 43.5 22.15 44.75 L20.6 45.4 Q19.3 45.9 18.55 46.3 L18.1 46.5 Q16.85 43.7 15.75 40.2 13.6 33.45 13.5 28.9" fill="#942403" fill-rule="evenodd" stroke="none"/>
    <path d="M17.9 -16.05 L17.2 -18.05 Q20.1 -14.65 23.7 -8.7 29.3 0.6 31.85 4.1 L29.65 5.65 25.6 8.55 Q23.35 10.4 19.4 12.6 L17.5 13.65 16.05 11.25 14.55 9.05 13.25 6.9 12.45 6.0 13.3 5.05 13.75 3.55 14.05 2.05 13.95 1.25 14.1 0.35 Q14.3 -1.7 15.3 -3.5 L15.25 -3.55 15.45 -4.15 16.6 -7.5 17.1 -7.7 17.55 -9.35 18.1 -12.1 18.5 -13.8 17.9 -16.05 M-25.6 47.3 Q-23.15 41.1 -23.0 35.5 L-18.45 33.25 -12.95 30.0 -12.85 30.25 -12.65 29.8 -10.65 28.0 -7.45 31.4 -4.5 34.0 0.25 37.7 Q4.05 40.5 5.0 40.5 L5.65 40.4 6.0 40.5 6.55 40.25 Q6.6 40.0 7.55 38.45 L7.75 38.5 7.85 38.5 7.95 38.5 7.65 38.25 10.45 33.5 11.0 32.6 13.25 28.7 13.5 28.9 Q13.6 33.45 15.75 40.2 16.85 43.7 18.1 46.5 L18.0 46.55 16.65 47.45 16.05 47.7 15.25 47.85 15.3 47.85 13.0 48.0 10.6 48.65 -2.75 49.25 -22.1 48.05 -22.4 48.0 -25.6 47.3" fill="#731c02" fill-rule="evenodd" stroke="none"/>
  </g>
</svg>
