<?xml version="1.0" encoding="UTF-8" standalone="no"?>
<svg xmlns:ffdec="https://www.free-decompiler.com/flash" xmlns:xlink="http://www.w3.org/1999/xlink" ffdec:objectType="shape" height="54.85px" width="58.9px" xmlns="http://www.w3.org/2000/svg">
  <g transform="matrix(1.0, 0.0, 0.0, 1.0, -48.5, 43.45)">
    <path d="M71.5 -14.5 Q71.5 -15.95 72.55 -18.1 73.8 -20.55 75.25 -20.85 78.1 -21.4 80.05 -20.95 80.15 -20.25 81.25 -18.6 82.5 -16.7 82.5 -14.6 L82.4 -11.2 82.4 -10.65 81.95 -9.7 Q79.9 -5.6 78.3 -4.5 75.65 -6.05 73.55 -9.05 71.5 -12.1 71.5 -14.5" fill="#ffcc00" fill-rule="evenodd" stroke="none"/>
    <path d="M71.5 -14.5 Q71.5 -12.1 73.55 -9.05 75.65 -6.05 78.3 -4.5 79.9 -5.6 81.95 -9.7 L82.4 -10.65 82.4 -11.2 82.5 -14.6 Q82.5 -16.7 81.25 -18.6 80.15 -20.25 80.05 -20.95 78.1 -21.4 75.25 -20.85 73.8 -20.55 72.55 -18.1 71.5 -15.95 71.5 -14.5 M69.85 -21.05 L70.4 -21.75 71.65 -23.15 Q74.6 -25.85 78.8 -25.75 82.25 -25.65 83.55 -24.25 L84.8 -21.75 85.4 -20.6 Q87.5 -17.95 87.5 -15.0 87.5 -13.2 86.4 -10.9 85.3 -8.65 84.0 -8.1 L83.5 -7.0 81.85 -2.75 81.1 -1.45 75.25 -1.1 74.45 -1.45 73.0 -2.85 Q72.1 -3.95 70.5 -7.0 70.0 -7.9 68.75 -11.3 L67.5 -15.0 Q67.5 -17.6 69.85 -21.05" fill="#ff6633" fill-rule="evenodd" stroke="none"/>
    <path d="M78.05 -28.65 L77.95 -28.75 Q77.15 -29.6 74.0 -28.45 65.9 -25.5 63.4 -21.9 61.5 -19.25 61.5 -13.6 61.5 -10.0 61.8 -8.6 62.4 -5.8 64.5 -3.45 66.55 -1.25 70.3 0.95 75.35 3.9 79.5 3.9 87.25 3.9 91.75 -4.0 95.0 -9.6 95.0 -13.9 L94.9 -18.1 Q94.5 -20.5 92.5 -22.6 90.65 -24.35 86.5 -26.1 L85.8 -26.25 Q84.0 -27.6 80.9 -28.3 L78.05 -28.65 M79.25 -42.85 L78.5 -42.6 Q89.3 -40.55 93.0 -38.25 95.4 -36.75 100.0 -32.45 106.1 -27.8 107.1 -25.55 107.4 -24.8 107.4 -19.2 107.4 -9.95 102.5 -2.0 94.2 11.4 75.0 11.4 66.95 11.4 64.05 8.9 62.95 7.9 61.2 7.55 59.25 7.2 58.5 6.7 53.45 3.3 52.05 0.4 49.9 -3.95 49.15 -6.7 48.5 -9.1 48.5 -12.15 48.5 -17.9 50.9 -22.4 53.25 -26.9 59.05 -32.1 66.8 -39.05 75.65 -43.45 L79.75 -43.1 80.4 -43.1 79.25 -42.85" fill="#ff6633" fill-opacity="0.49803922" fill-rule="evenodd" stroke="none"/>
    <path d="M78.05 -28.65 L80.9 -28.3 Q84.0 -27.6 85.8 -26.25 L86.5 -26.1 Q90.65 -24.35 92.5 -22.6 94.5 -20.5 94.9 -18.1 L95.0 -13.9 Q95.0 -9.6 91.75 -4.0 87.25 3.9 79.5 3.9 75.35 3.9 70.3 0.95 66.55 -1.25 64.5 -3.45 62.4 -5.8 61.8 -8.6 61.5 -10.0 61.5 -13.6 61.5 -19.25 63.4 -21.9 65.9 -25.5 74.0 -28.45 77.15 -29.6 77.95 -28.75 L78.05 -28.65 M69.85 -21.05 Q67.5 -17.6 67.5 -15.0 L68.75 -11.3 Q70.0 -7.9 70.5 -7.0 72.1 -3.95 73.0 -2.85 L74.45 -1.45 75.25 -1.1 81.1 -1.45 81.85 -2.75 83.5 -7.0 84.0 -8.1 Q85.3 -8.65 86.4 -10.9 87.5 -13.2 87.5 -15.0 87.5 -17.95 85.4 -20.6 L84.8 -21.75 83.55 -24.25 Q82.25 -25.65 78.8 -25.75 74.6 -25.85 71.65 -23.15 L70.4 -21.75 69.85 -21.05" fill="#ffcc00" fill-opacity="0.49803922" fill-rule="evenodd" stroke="none"/>
  </g>
</svg>
