<?xml version="1.0" encoding="UTF-8" standalone="no"?>
<svg xmlns:ffdec="https://www.free-decompiler.com/flash" xmlns:xlink="http://www.w3.org/1999/xlink" ffdec:objectType="shape" height="87.5px" width="54.4px" xmlns="http://www.w3.org/2000/svg">
  <g transform="matrix(1.0, 0.0, 0.0, 1.0, -67.1, 117.5)">
    <path d="M83.05 -92.65 Q83.9 -93.65 85.25 -94.5 L83.8 -93.15 82.7 -91.95 82.15 -91.4 83.05 -92.65 M86.45 -58.8 Q87.1 -60.75 87.35 -62.65 L87.5 -62.35 88.45 -60.25 89.0 -58.75 Q88.45 -58.7 87.8 -58.25 L86.55 -57.3 85.5 -56.15 86.0 -57.55 86.45 -58.8 M87.5 -68.8 L87.5 -71.95 87.4 -72.25 Q86.7 -74.15 86.55 -76.75 L87.65 -72.1 88.0 -69.8 87.5 -68.8 M90.25 -41.35 Q89.05 -39.0 88.5 -37.25 L88.25 -34.5 Q88.15 -32.65 87.5 -32.25 L84.8 -30.6 Q83.6 -30.0 82.0 -30.0 L80.25 -30.5 Q79.7 -30.7 79.6 -30.8 L79.5 -32.4 Q79.5 -34.3 80.55 -36.3 L82.5 -39.5 Q83.6 -41.4 83.65 -42.65 L83.5 -44.65 Q83.5 -46.25 85.1 -47.25 L84.75 -46.7 Q84.5 -46.15 84.5 -43.85 84.35 -42.7 84.5 -41.65 84.9 -39.5 86.75 -39.5 88.6 -39.5 90.25 -41.35 M87.85 -48.85 L85.0 -50.5 Q84.5 -50.8 84.5 -51.75 84.5 -52.9 85.05 -54.65 85.15 -53.3 86.65 -51.75 L88.75 -49.1 87.85 -48.85 M94.6 -90.0 L97.5 -87.85 Q98.25 -87.15 98.45 -85.5 L98.5 -82.75 98.3 -80.0 Q96.5 -79.1 96.5 -76.85 L96.5 -76.7 Q95.45 -75.5 94.0 -74.85 93.35 -74.55 92.5 -73.65 L92.1 -74.0 Q90.6 -75.35 90.0 -76.6 90.3 -77.25 90.15 -78.15 L89.75 -79.5 89.65 -79.75 89.75 -79.9 90.0 -80.6 87.45 -83.65 Q85.8 -85.55 85.8 -85.85 L86.1 -87.6 Q86.3 -88.6 86.05 -89.25 88.0 -89.4 88.35 -90.1 L88.5 -91.25 90.2 -91.4 92.05 -91.75 94.6 -90.0 M80.0 -33.0 Q80.0 -32.15 80.25 -31.65 80.85 -30.5 82.75 -30.5 85.65 -30.5 87.05 -32.75 88.0 -34.25 88.0 -35.75 L88.0 -37.6 Q87.55 -39.0 85.0 -39.0 83.4 -39.0 82.0 -37.85 80.0 -36.25 80.0 -33.0 M83.2 -85.05 Q81.5 -86.9 81.5 -88.75 L81.6 -89.7 Q81.85 -88.05 83.2 -85.05 M95.35 -69.6 L96.05 -70.2 96.0 -69.5 96.0 -68.6 Q95.35 -67.5 94.8 -65.55 93.3 -60.35 92.5 -59.6 92.4 -61.5 91.45 -62.15 90.5 -62.75 90.5 -63.75 90.5 -64.45 91.5 -65.3 92.5 -66.15 92.5 -66.65 L92.45 -67.5 92.75 -67.5 95.35 -69.6 M94.0 -50.9 L93.75 -52.45 95.3 -54.45 94.0 -50.9" fill="#ffcc00" fill-rule="evenodd" stroke="none"/>
    <path d="M99.75 -69.5 Q101.3 -69.85 102.9 -70.65 105.55 -72.05 108.65 -75.1 112.8 -79.2 113.85 -83.2 115.85 -90.7 109.4 -97.05 104.85 -101.65 100.7 -102.8 L96.6 -103.75 Q94.2 -104.05 91.65 -102.65 89.45 -101.3 86.75 -97.75 L86.4 -97.15 Q84.65 -95.75 83.15 -92.9 L83.05 -92.65 82.15 -91.4 81.5 -90.5 81.6 -89.85 Q80.95 -88.95 81.2 -86.3 81.95 -77.7 84.8 -74.35 85.75 -73.2 87.4 -72.25 L87.5 -71.95 87.5 -68.8 87.25 -68.35 Q86.5 -66.95 86.5 -66.3 86.5 -64.3 87.35 -62.65 87.1 -60.75 86.45 -58.8 83.4 -60.2 81.05 -62.4 77.3 -65.85 73.85 -72.8 69.1 -82.05 67.1 -91.75 L68.55 -95.65 68.7 -96.25 68.65 -95.05 68.7 -94.3 Q73.45 -104.2 76.65 -107.2 78.75 -109.1 84.05 -112.45 90.15 -117.15 92.55 -117.5 L98.8 -116.15 Q107.75 -113.75 114.1 -106.95 124.9 -95.5 119.95 -76.95 117.85 -69.15 114.7 -67.0 113.45 -66.2 112.7 -64.6 111.85 -62.8 111.15 -62.2 106.55 -58.25 103.35 -57.65 L96.45 -56.65 96.5 -56.9 97.25 -59.25 98.15 -63.35 98.95 -67.55 99.75 -69.5" fill="#ff6633" fill-opacity="0.49803922" fill-rule="evenodd" stroke="none"/>
    <path d="M83.05 -92.65 L83.15 -92.9 Q84.65 -95.75 86.4 -97.15 L86.75 -97.75 Q89.45 -101.3 91.65 -102.65 94.2 -104.05 96.6 -103.75 L100.7 -102.8 Q104.85 -101.65 109.4 -97.05 115.85 -90.7 113.85 -83.2 112.8 -79.2 108.65 -75.1 105.55 -72.05 102.9 -70.65 101.3 -69.85 99.75 -69.5 L101.0 -73.75 Q103.0 -80.95 103.0 -82.25 L101.25 -87.15 Q99.4 -92.35 99.05 -93.75 L95.65 -94.95 93.25 -95.75 Q89.6 -97.0 87.0 -95.85 L85.75 -94.95 85.25 -94.5 Q83.9 -93.65 83.05 -92.65 M87.4 -72.25 Q85.75 -73.2 84.8 -74.35 81.95 -77.7 81.2 -86.3 80.95 -88.95 81.6 -89.85 L81.6 -89.7 81.5 -88.75 Q81.5 -86.9 83.2 -85.05 L83.25 -84.85 Q84.3 -82.45 85.5 -81.15 L85.5 -80.65 86.55 -76.75 Q86.7 -74.15 87.4 -72.25" fill="#ffcc00" fill-opacity="0.49803922" fill-rule="evenodd" stroke="none"/>
    <path d="M85.25 -94.5 L85.75 -94.95 87.0 -95.85 Q89.6 -97.0 93.25 -95.75 L95.65 -94.95 99.05 -93.75 Q99.4 -92.35 101.25 -87.15 L103.0 -82.25 Q103.0 -80.95 101.0 -73.75 L99.75 -69.5 98.95 -67.55 98.15 -63.35 97.25 -59.25 96.5 -56.9 96.45 -56.65 Q96.05 -55.3 95.55 -54.75 L95.3 -54.45 93.75 -52.45 94.0 -50.9 94.0 -50.6 Q94.0 -47.2 91.8 -43.5 L90.25 -41.35 Q88.6 -39.5 86.75 -39.5 84.9 -39.5 84.5 -41.65 84.35 -42.7 84.5 -43.85 84.5 -46.15 84.75 -46.7 L85.1 -47.25 Q85.9 -48.3 87.85 -48.85 L88.75 -49.1 86.65 -51.75 Q85.15 -53.3 85.05 -54.65 L85.0 -55.0 Q85.0 -55.5 85.5 -56.15 L86.55 -57.3 87.8 -58.25 Q88.45 -58.7 89.0 -58.75 L88.45 -60.25 87.5 -62.35 87.35 -62.65 Q86.5 -64.3 86.5 -66.3 86.5 -66.95 87.25 -68.35 L87.5 -68.8 88.0 -69.8 87.65 -72.1 86.55 -76.75 85.5 -80.65 85.5 -81.15 Q84.3 -82.45 83.25 -84.85 L83.2 -85.05 Q81.85 -88.05 81.6 -89.7 L81.6 -89.85 81.5 -90.5 82.15 -91.4 82.7 -91.95 83.8 -93.15 85.25 -94.5 M80.0 -33.0 Q80.0 -36.25 82.0 -37.85 83.4 -39.0 85.0 -39.0 87.55 -39.0 88.0 -37.6 L88.0 -35.75 Q88.0 -34.25 87.05 -32.75 85.65 -30.5 82.75 -30.5 80.85 -30.5 80.25 -31.65 80.0 -32.15 80.0 -33.0 M94.6 -90.0 L92.05 -91.75 90.2 -91.4 88.5 -91.25 88.35 -90.1 Q88.0 -89.4 86.05 -89.25 86.3 -88.6 86.1 -87.6 L85.8 -85.85 Q85.8 -85.55 87.45 -83.65 L90.0 -80.6 89.75 -79.9 89.65 -79.75 89.75 -79.5 90.15 -78.15 Q90.3 -77.25 90.0 -76.6 90.6 -75.35 92.1 -74.0 L92.5 -73.65 Q93.35 -74.55 94.0 -74.85 95.45 -75.5 96.5 -76.7 L96.5 -76.85 Q96.5 -79.1 98.3 -80.0 L98.5 -82.75 98.45 -85.5 Q98.25 -87.15 97.5 -87.85 L94.6 -90.0 M95.35 -69.6 L92.75 -67.5 92.45 -67.5 92.5 -66.65 Q92.5 -66.15 91.5 -65.3 90.5 -64.45 90.5 -63.75 90.5 -62.75 91.45 -62.15 92.4 -61.5 92.5 -59.6 93.3 -60.35 94.8 -65.55 95.35 -67.5 96.0 -68.6 L96.0 -69.5 96.05 -70.2 95.35 -69.6" fill="#ff6633" fill-rule="evenodd" stroke="none"/>
  </g>
</svg>
