<?xml version="1.0" encoding="UTF-8" standalone="no"?>
<svg xmlns:ffdec="https://www.free-decompiler.com/flash" xmlns:xlink="http://www.w3.org/1999/xlink" ffdec:objectType="shape" height="52.25px" width="59.9px" xmlns="http://www.w3.org/2000/svg">
  <g transform="matrix(1.0, 0.0, 0.0, 1.0, -43.0, 35.7)">
    <path d="M60.5 -20.8 L60.5 -21.4 60.6 -22.25 60.8 -22.75 61.5 -23.6 61.65 -24.05 61.65 -24.35 61.75 -24.9 59.9 -24.5 59.75 -24.5 Q58.25 -24.5 58.0 -25.65 57.85 -26.25 58.0 -27.0 L58.0 -27.25 Q58.1 -29.1 59.3 -30.65 61.3 -33.1 65.3 -31.75 L65.5 -29.65 Q65.5 -28.35 64.0 -26.6 L63.25 -25.85 62.65 -25.4 63.0 -25.45 64.45 -25.85 66.5 -26.35 Q67.4 -26.35 68.6 -25.05 L69.65 -23.85 70.0 -23.35 Q71.65 -21.1 72.5 -19.1 L73.05 -18.2 77.3 -11.85 Q80.5 -6.75 80.5 -3.5 80.5 -1.7 79.25 0.65 78.45 2.1 76.9 2.4 L74.25 2.5 71.5 2.0 Q68.85 0.95 66.35 -2.05 L64.65 -4.35 Q63.0 -6.9 63.0 -8.85 L63.0 -9.0 Q62.95 -9.9 62.1 -11.9 61.15 -14.2 61.0 -15.25 L60.65 -18.6 60.5 -20.8 M71.5 -14.75 L69.75 -16.35 69.1 -16.9 Q69.05 -16.5 68.5 -16.5 67.4 -16.5 67.4 -17.0 67.4 -17.8 66.8 -18.25 L64.8 -16.35 65.7 -14.25 66.0 -12.7 Q67.5 -10.4 67.5 -9.25 L67.45 -7.95 67.75 -8.0 Q68.4 -8.0 68.8 -6.85 69.3 -5.2 69.7 -4.3 71.3 -0.6 75.55 -0.6 L76.6 -0.85 77.5 -1.25 77.6 -2.6 Q77.7 -3.4 78.5 -4.1 77.45 -5.3 75.9 -8.15 74.65 -10.35 73.0 -11.6 72.2 -12.15 72.0 -13.1 L71.5 -14.75 M66.25 -7.35 L66.05 -7.7 66.05 -7.35 66.25 -7.35" fill="#ff6633" fill-rule="evenodd" stroke="none"/>
    <path d="M71.5 -14.75 L72.0 -13.1 Q72.2 -12.15 73.0 -11.6 74.65 -10.35 75.9 -8.15 77.45 -5.3 78.5 -4.1 77.7 -3.4 77.6 -2.6 L77.5 -1.25 76.6 -0.85 75.55 -0.6 Q71.3 -0.6 69.7 -4.3 69.3 -5.2 68.8 -6.85 68.4 -8.0 67.75 -8.0 L67.45 -7.95 67.5 -9.25 Q67.5 -10.4 66.0 -12.7 L65.7 -14.25 64.8 -16.35 66.8 -18.25 Q67.4 -17.8 67.4 -17.0 67.4 -16.5 68.5 -16.5 69.05 -16.5 69.1 -16.9 L69.75 -16.35 71.5 -14.75" fill="#ffcc00" fill-rule="evenodd" stroke="none"/>
    <path d="M68.6 -25.05 Q67.4 -26.35 66.5 -26.35 L64.45 -25.85 63.0 -25.45 62.65 -25.4 63.25 -25.85 64.0 -26.6 Q65.5 -28.35 65.5 -29.65 L65.3 -31.75 Q61.3 -33.1 59.3 -30.65 58.1 -29.1 58.0 -27.25 L58.0 -27.0 Q57.85 -26.25 58.0 -25.65 58.25 -24.5 59.75 -24.5 L59.9 -24.5 61.75 -24.9 61.65 -24.35 61.65 -24.05 61.5 -23.6 60.8 -22.75 60.6 -22.25 60.5 -21.4 60.5 -20.8 59.0 -18.95 Q56.9 -16.05 56.35 -14.75 55.15 -12.15 55.45 -9.0 55.8 -6.05 57.55 -2.05 59.85 3.35 63.2 5.75 69.45 10.35 77.75 6.6 83.65 4.0 86.2 0.5 L88.55 -2.9 Q89.7 -5.1 89.3 -8.0 88.85 -10.45 86.55 -14.3 L86.05 -14.85 Q85.4 -17.05 83.3 -19.4 L81.25 -21.35 81.2 -21.5 Q81.05 -22.65 77.8 -23.55 72.3 -25.2 68.6 -25.05 M55.65 -32.3 Q60.2 -34.55 67.9 -35.3 L88.0 -34.7 Q89.2 -33.4 91.1 -32.05 L91.65 -31.65 90.55 -32.15 89.8 -32.3 Q97.3 -24.3 98.95 -20.3 100.0 -17.65 101.15 -11.5 103.35 -4.15 102.8 -1.75 102.6 -0.95 99.3 3.55 93.85 11.0 85.25 14.5 70.65 20.45 55.15 9.15 48.7 4.45 47.85 0.7 47.5 -0.75 46.3 -2.1 44.95 -3.5 44.6 -4.35 42.55 -10.05 43.15 -13.25 44.0 -18.0 45.0 -20.65 45.85 -23.0 47.65 -25.45 51.05 -30.1 55.65 -32.3" fill="#ff6633" fill-opacity="0.49803922" fill-rule="evenodd" stroke="none"/>
    <path d="M68.6 -25.05 Q72.3 -25.2 77.8 -23.55 81.05 -22.65 81.2 -21.5 L81.25 -21.35 83.3 -19.4 Q85.4 -17.05 86.05 -14.85 L86.55 -14.3 Q88.85 -10.45 89.3 -8.0 89.7 -5.1 88.55 -2.9 L86.2 0.5 Q83.65 4.0 77.75 6.6 69.45 10.35 63.2 5.75 59.85 3.35 57.55 -2.05 55.8 -6.05 55.45 -9.0 55.15 -12.15 56.35 -14.75 56.9 -16.05 59.0 -18.95 L60.5 -20.8 60.65 -18.6 61.0 -15.25 Q61.15 -14.2 62.1 -11.9 62.95 -9.9 63.0 -9.0 L63.0 -8.85 Q63.0 -6.9 64.65 -4.35 L66.35 -2.05 Q68.85 0.95 71.5 2.0 L74.25 2.5 76.9 2.4 Q78.45 2.1 79.25 0.65 80.5 -1.7 80.5 -3.5 80.5 -6.75 77.3 -11.85 L73.05 -18.2 72.5 -19.1 Q71.65 -21.1 70.0 -23.35 L69.65 -23.85 68.6 -25.05 M66.25 -7.35 L66.05 -7.35 66.05 -7.7 66.25 -7.35" fill="#ffcc00" fill-opacity="0.49803922" fill-rule="evenodd" stroke="none"/>
  </g>
</svg>
