<?xml version="1.0" encoding="UTF-8" standalone="no"?>
<svg xmlns:ffdec="https://www.free-decompiler.com/flash" xmlns:xlink="http://www.w3.org/1999/xlink" ffdec:objectType="shape" height="60.65px" width="52.75px" xmlns="http://www.w3.org/2000/svg">
  <g transform="matrix(1.0, 0.0, 0.0, 1.0, -46.75, 51.75)">
    <path d="M65.75 -33.0 Q65.0 -35.0 65.0 -35.15 65.0 -36.5 65.55 -37.9 L65.5 -37.35 Q65.5 -34.95 65.85 -33.1 L66.15 -31.9 65.75 -33.0 M66.2 -40.05 L66.25 -40.5 66.6 -40.65 66.2 -40.05 M68.75 -33.3 Q68.75 -34.05 69.05 -34.7 L69.5 -35.6 71.8 -35.6 Q73.35 -34.6 74.3 -28.45 L74.2 -28.2 73.65 -27.8 73.3 -27.25 72.5 -27.5 71.4 -27.3 71.0 -27.35 Q71.65 -28.85 70.15 -30.1 L69.9 -30.3 70.0 -30.65 Q70.0 -31.25 69.4 -31.95 68.75 -32.65 68.75 -33.3 M67.4 -28.55 L66.75 -30.3 67.5 -29.1 67.4 -28.55 M67.45 -14.55 Q67.0 -15.4 67.0 -16.0 L67.05 -16.5 67.45 -14.55 M74.75 -23.25 L75.75 -23.35 Q76.6 -21.25 78.05 -19.2 79.0 -17.85 79.0 -16.4 79.0 -15.5 78.0 -13.85 76.8 -11.85 75.5 -11.85 74.9 -11.85 74.65 -12.4 74.4 -13.0 73.75 -13.0 L72.25 -12.35 Q71.6 -12.15 70.8 -13.85 L70.45 -14.75 70.45 -15.1 Q70.5 -17.05 70.1 -18.3 L70.75 -19.25 Q71.5 -20.65 71.5 -21.85 73.4 -22.05 73.75 -22.5 73.9 -23.0 74.75 -23.25" fill="#ffcc00" fill-rule="evenodd" stroke="none"/>
    <path d="M66.6 -40.65 Q67.25 -41.45 68.3 -42.05 71.45 -43.8 74.5 -39.35 L74.95 -37.85 76.45 -33.4 Q76.95 -31.75 77.0 -29.2 L78.35 -27.4 80.5 -23.6 81.6 -20.2 82.5 -16.5 Q82.5 -13.7 81.5 -10.1 81.3 -9.4 79.1 -8.5 76.8 -7.5 75.0 -7.5 73.0 -7.5 72.1 -8.15 71.55 -8.5 71.0 -9.5 68.95 -9.55 68.55 -12.3 67.55 -13.45 67.5 -14.1 L67.45 -14.55 67.05 -16.5 66.7 -18.1 Q66.0 -21.45 66.0 -22.15 66.0 -23.7 66.95 -26.9 L67.4 -28.55 67.5 -29.1 66.75 -30.3 66.15 -31.9 65.85 -33.1 Q65.5 -34.95 65.5 -37.35 L65.55 -37.9 Q65.65 -39.1 66.2 -40.05 L66.6 -40.65 M68.75 -33.3 Q68.75 -32.65 69.4 -31.95 70.0 -31.25 70.0 -30.65 L69.9 -30.3 70.15 -30.1 Q71.65 -28.85 71.0 -27.35 L71.4 -27.3 72.5 -27.5 73.3 -27.25 73.65 -27.8 74.2 -28.2 74.3 -28.45 Q73.35 -34.6 71.8 -35.6 L69.5 -35.6 69.05 -34.7 Q68.75 -34.05 68.75 -33.3 M74.75 -23.25 Q73.9 -23.0 73.75 -22.5 73.4 -22.05 71.5 -21.85 71.5 -20.65 70.75 -19.25 L70.1 -18.3 Q70.5 -17.05 70.45 -15.1 L70.45 -14.75 70.8 -13.85 Q71.6 -12.15 72.25 -12.35 L73.75 -13.0 Q74.4 -13.0 74.65 -12.4 74.9 -11.85 75.5 -11.85 76.8 -11.85 78.0 -13.85 79.0 -15.5 79.0 -16.4 79.0 -17.85 78.05 -19.2 76.6 -21.25 75.75 -23.35 L74.75 -23.25" fill="#ff6633" fill-rule="evenodd" stroke="none"/>
    <path d="M74.95 -37.85 L74.5 -39.35 Q71.45 -43.8 68.3 -42.05 67.25 -41.45 66.6 -40.65 L66.25 -40.5 66.2 -40.05 Q65.65 -39.1 65.55 -37.9 65.0 -36.5 65.0 -35.15 65.0 -35.0 65.75 -33.0 64.2 -32.1 62.65 -30.4 61.45 -29.2 60.9 -28.1 L60.75 -28.05 Q59.6 -27.8 59.05 -24.5 57.55 -16.05 59.45 -12.05 60.8 -9.05 65.65 -6.25 68.8 -4.45 70.15 -4.05 L75.95 -3.75 Q78.85 -4.45 82.7 -6.6 87.75 -9.5 89.85 -13.1 93.7 -19.8 89.1 -27.65 85.9 -33.3 82.15 -35.45 L78.5 -37.45 74.95 -37.85 M60.1 -45.85 Q62.6 -47.2 68.6 -49.0 75.7 -52.0 78.15 -51.7 78.95 -51.6 83.75 -48.8 91.8 -44.15 96.2 -35.95 103.7 -22.1 94.1 -5.45 90.05 1.5 86.4 2.75 85.0 3.25 83.85 4.6 L81.75 6.5 Q76.25 9.15 73.05 8.9 L65.45 7.9 Q63.05 7.25 60.45 5.75 55.45 2.85 52.75 -1.5 50.0 -5.75 48.4 -13.4 46.3 -23.55 46.85 -33.4 48.1 -34.8 49.25 -36.8 L49.6 -37.4 49.2 -36.25 49.05 -35.5 Q56.25 -43.8 60.1 -45.85" fill="#ff6633" fill-opacity="0.49803922" fill-rule="evenodd" stroke="none"/>
    <path d="M74.95 -37.85 L78.5 -37.45 82.15 -35.45 Q85.9 -33.3 89.1 -27.65 93.7 -19.8 89.85 -13.1 87.75 -9.5 82.7 -6.6 78.85 -4.45 75.95 -3.75 L70.15 -4.05 Q68.8 -4.45 65.65 -6.25 60.8 -9.05 59.45 -12.05 57.55 -16.05 59.05 -24.5 59.6 -27.8 60.75 -28.05 L60.9 -28.1 Q61.45 -29.2 62.65 -30.4 64.2 -32.1 65.75 -33.0 L66.15 -31.9 66.75 -30.3 67.4 -28.55 66.95 -26.9 Q66.0 -23.7 66.0 -22.15 66.0 -21.45 66.7 -18.1 L67.05 -16.5 67.0 -16.0 Q67.0 -15.4 67.45 -14.55 L67.5 -14.1 Q67.55 -13.45 68.55 -12.3 68.95 -9.55 71.0 -9.5 71.55 -8.5 72.1 -8.15 73.0 -7.5 75.0 -7.5 76.8 -7.5 79.1 -8.5 81.3 -9.4 81.5 -10.1 82.5 -13.7 82.5 -16.5 L81.6 -20.2 80.5 -23.6 78.35 -27.4 77.0 -29.2 Q76.95 -31.75 76.45 -33.4 L74.95 -37.85" fill="#ffcc00" fill-opacity="0.49803922" fill-rule="evenodd" stroke="none"/>
  </g>
</svg>
