<?xml version="1.0" encoding="UTF-8" standalone="no"?>
<svg xmlns:ffdec="https://www.free-decompiler.com/flash" xmlns:xlink="http://www.w3.org/1999/xlink" ffdec:objectType="shape" height="54.85px" width="56.15px" xmlns="http://www.w3.org/2000/svg">
  <g transform="matrix(1.0, 0.0, 0.0, 1.0, -42.8, 40.35)">
    <path d="M57.75 -27.6 L57.55 -27.85 57.7 -27.8 57.75 -27.6 M56.5 -29.0 L56.0 -29.55 Q56.85 -33.75 57.55 -35.35 58.1 -36.6 59.2 -36.8 L58.65 -36.25 Q57.0 -34.35 57.0 -32.65 L57.05 -31.5 57.0 -31.55 57.0 -31.4 56.5 -31.05 56.5 -29.0 M67.7 -26.4 L69.65 -25.35 Q68.95 -25.2 67.7 -26.4 M59.9 -25.35 L60.0 -24.9 59.55 -21.2 Q59.45 -20.0 59.75 -18.85 L59.65 -18.95 Q59.0 -19.55 59.0 -20.7 59.0 -23.7 59.9 -25.35 M75.45 -15.15 L75.55 -15.15 76.0 -14.8 76.2 -14.9 77.5 -13.9 78.0 -13.55 78.75 -10.5 79.5 -7.1 Q78.5 -3.1 78.0 -2.9 L76.4 -2.6 75.0 -2.15 Q74.65 -1.9 74.5 -1.05 L74.3 0.2 Q73.8 -1.3 73.0 -1.3 72.2 -1.3 72.05 -0.95 L72.0 -0.65 Q72.0 0.1 71.75 0.1 L68.0 -2.8 67.05 -2.55 67.0 -2.3 67.0 -6.9 66.35 -9.55 65.5 -11.8 64.15 -16.75 63.4 -19.35 Q64.05 -19.9 64.35 -20.6 L65.0 -21.75 Q66.0 -20.4 66.95 -19.9 L70.0 -18.8 70.65 -18.2 Q74.5 -14.8 75.0 -14.8 L75.45 -15.15 M67.0 -8.3 L67.1 -7.0 67.25 -8.2 67.0 -8.55 67.0 -8.3" fill="#ffcc00" fill-rule="evenodd" stroke="none"/>
    <path d="M59.2 -36.8 Q60.9 -38.2 62.8 -36.15 L62.9 -35.9 Q63.5 -35.15 63.5 -33.65 L64.05 -33.55 Q64.5 -34.05 64.5 -32.8 L63.8 -31.45 63.5 -30.85 63.5 -29.85 64.0 -29.8 Q65.2 -29.8 65.85 -28.85 L65.95 -28.7 67.55 -26.55 67.7 -26.4 Q68.95 -25.2 69.65 -25.35 70.05 -25.45 70.5 -25.8 71.2 -25.8 77.5 -19.05 L78.65 -18.05 80.0 -16.8 Q82.0 -13.8 82.0 -12.8 L82.0 -12.35 82.05 -12.25 83.0 -9.05 82.5 -4.15 81.95 -3.25 Q81.5 -2.8 81.5 -2.4 L81.5 -0.15 Q81.4 0.45 80.6 1.1 79.65 1.9 77.6 2.8 74.3 4.2 72.5 4.2 L71.45 4.1 Q69.3 3.75 66.8 1.95 L64.95 1.0 Q64.0 0.3 64.0 -1.4 64.0 -3.15 63.15 -5.1 62.35 -6.9 62.5 -8.8 62.6 -10.45 62.0 -12.9 61.4 -15.45 60.5 -17.05 L59.75 -18.85 Q59.45 -20.0 59.55 -21.2 L60.0 -24.9 59.9 -25.35 59.8 -25.55 Q59.55 -26.0 58.9 -26.35 58.1 -26.8 57.75 -27.6 L57.7 -27.8 57.55 -27.85 56.5 -28.05 56.5 -29.0 56.5 -31.05 57.0 -31.4 57.0 -31.55 57.05 -31.5 57.0 -32.65 Q57.0 -34.35 58.65 -36.25 L59.2 -36.8 M75.45 -15.15 L75.0 -14.8 Q74.5 -14.8 70.65 -18.2 L70.0 -18.8 66.95 -19.9 Q66.0 -20.4 65.0 -21.75 L64.35 -20.6 Q64.05 -19.9 63.4 -19.35 L64.15 -16.75 65.5 -11.8 66.35 -9.55 67.0 -6.9 67.0 -2.3 67.05 -2.55 68.0 -2.8 71.75 0.1 Q72.0 0.1 72.0 -0.65 L72.05 -0.95 Q72.2 -1.3 73.0 -1.3 73.8 -1.3 74.3 0.2 L74.5 -1.05 Q74.65 -1.9 75.0 -2.15 L76.4 -2.6 78.0 -2.9 Q78.5 -3.1 79.5 -7.1 L78.75 -10.5 78.0 -13.55 77.5 -13.9 76.2 -14.9 76.0 -14.8 75.55 -15.15 75.45 -15.15" fill="#ff6633" fill-rule="evenodd" stroke="none"/>
    <path d="M65.95 -28.7 L65.85 -28.85 Q65.2 -29.8 64.0 -29.8 L63.5 -29.85 63.5 -30.85 63.8 -31.45 64.5 -32.8 Q64.5 -34.05 64.05 -33.55 L63.5 -33.65 Q63.5 -35.15 62.9 -35.9 L62.8 -36.15 Q60.9 -38.2 59.2 -36.8 58.1 -36.6 57.55 -35.35 56.85 -33.75 56.0 -29.55 L56.5 -29.0 56.5 -28.05 57.55 -27.85 57.75 -27.6 Q58.1 -26.8 58.9 -26.35 59.55 -26.0 59.8 -25.55 L57.7 -24.0 Q55.55 -22.1 54.6 -19.1 53.7 -16.2 53.65 -11.85 53.6 -6.05 55.7 -2.45 59.55 4.25 68.65 4.2 L71.45 4.1 72.5 4.2 Q74.3 4.2 77.6 2.8 79.65 1.9 80.6 1.1 L82.45 -0.1 Q84.35 -1.65 85.15 -4.45 85.75 -6.9 85.2 -11.4 L85.0 -12.05 Q85.25 -14.3 84.3 -17.35 L83.15 -19.95 83.2 -20.1 Q83.55 -21.25 81.0 -23.35 74.4 -28.9 70.0 -29.3 68.2 -29.45 65.95 -28.7 M76.65 -38.15 Q86.55 -34.9 94.8 -29.45 95.35 -27.75 96.5 -25.75 L96.85 -25.15 96.05 -26.0 95.5 -26.55 Q99.1 -16.15 98.95 -11.8 98.85 -8.95 97.45 -2.85 96.45 4.75 95.0 6.75 94.5 7.35 89.7 10.15 81.65 14.8 72.35 14.5 56.55 14.05 46.95 -2.6 42.9 -9.55 43.65 -13.3 43.95 -14.8 43.4 -16.45 42.7 -18.35 42.8 -19.25 43.2 -25.3 45.0 -27.95 47.7 -32.0 49.7 -34.05 51.5 -35.8 54.1 -37.3 59.1 -40.2 64.2 -40.35 69.25 -40.6 76.65 -38.15" fill="#ff6633" fill-opacity="0.49803922" fill-rule="evenodd" stroke="none"/>
    <path d="M65.95 -28.7 Q68.2 -29.45 70.0 -29.3 74.4 -28.9 81.0 -23.35 83.55 -21.25 83.2 -20.1 L83.15 -19.95 84.3 -17.35 Q85.25 -14.3 85.0 -12.05 L85.2 -11.4 Q85.75 -6.9 85.15 -4.45 84.35 -1.65 82.45 -0.1 L80.6 1.1 Q81.4 0.45 81.5 -0.15 L81.5 -2.4 Q81.5 -2.8 81.95 -3.25 L82.5 -4.15 83.0 -9.05 82.05 -12.25 82.0 -12.35 82.0 -12.8 Q82.0 -13.8 80.0 -16.8 L78.65 -18.05 77.5 -19.05 Q71.2 -25.8 70.5 -25.8 70.05 -25.45 69.65 -25.35 L67.7 -26.4 67.55 -26.55 65.95 -28.7 M71.45 4.1 L68.65 4.2 Q59.55 4.25 55.7 -2.45 53.6 -6.05 53.65 -11.85 53.7 -16.2 54.6 -19.1 55.55 -22.1 57.7 -24.0 L59.8 -25.55 59.9 -25.35 Q59.0 -23.7 59.0 -20.7 59.0 -19.55 59.65 -18.95 L59.75 -18.85 60.5 -17.05 Q61.4 -15.45 62.0 -12.9 62.6 -10.45 62.5 -8.8 62.35 -6.9 63.15 -5.1 64.0 -3.15 64.0 -1.4 64.0 0.3 64.95 1.0 L66.8 1.95 Q69.3 3.75 71.45 4.1 M67.0 -8.3 L67.0 -8.55 67.25 -8.2 67.1 -7.0 67.0 -8.3" fill="#ffcc00" fill-opacity="0.49803922" fill-rule="evenodd" stroke="none"/>
  </g>
</svg>
