<?xml version="1.0" encoding="UTF-8" standalone="no"?>
<svg xmlns:ffdec="https://www.free-decompiler.com/flash" xmlns:xlink="http://www.w3.org/1999/xlink" ffdec:objectType="shape" height="54.4px" width="60.85px" xmlns="http://www.w3.org/2000/svg">
  <g transform="matrix(1.0, 0.0, 0.0, 1.0, -40.6, 41.1)">
    <path d="M65.45 -37.75 L65.5 -38.2 65.5 -37.2 65.45 -37.75 M80.65 -19.35 L80.7 -16.85 80.5 -11.6 80.5 -13.75 80.65 -17.95 80.65 -19.35 M80.5 -11.3 L80.7 -7.85 Q80.75 -5.15 80.3 -3.3 L80.2 -2.95 80.35 -3.85 80.5 -11.3 M59.6 -39.15 L59.5 -38.35 59.5 -39.1 59.5 -39.35 59.7 -39.55 59.6 -39.15 M59.5 -36.7 L59.5 -37.55 59.6 -36.9 59.5 -36.7 M71.5 -18.75 L71.05 -21.2 70.85 -22.0 71.0 -22.7 70.75 -23.8 70.5 -24.2 Q72.9 -25.95 74.55 -23.85 76.95 -20.75 78.0 -20.45 L78.0 -12.75 Q78.0 -7.55 77.7 -5.35 77.3 -2.7 76.55 -1.45 75.7 -0.2 74.5 -0.35 L74.3 -1.05 73.7 -2.0 Q73.0 -2.85 72.5 -2.85 L71.65 -2.65 71.5 -2.45 71.45 -0.75 71.3 -0.45 71.15 -0.75 68.85 -4.6 67.0 -7.35 66.2 -7.2 66.3 -7.1 66.0 -6.5 65.5 -5.95 65.5 -6.1 64.75 -9.5 Q64.0 -12.15 64.0 -13.1 64.0 -14.7 66.15 -15.55 67.7 -16.15 68.45 -16.6 L68.5 -16.6 Q68.5 -15.2 69.5 -14.85 71.1 -15.75 71.4 -16.5 L71.5 -18.75" fill="#ffcc00" fill-rule="evenodd" stroke="none"/>
    <path d="M64.75 -3.0 L62.55 -7.1 Q60.5 -11.1 60.5 -11.6 60.5 -15.55 61.8 -16.5 65.05 -18.95 66.5 -20.95 67.85 -22.8 68.0 -27.05 68.1 -29.85 71.0 -29.85 L73.85 -29.0 76.5 -27.85 Q77.4 -27.55 77.85 -26.85 L78.5 -25.7 79.5 -24.85 Q80.2 -24.4 80.3 -23.7 L80.65 -19.35 80.65 -17.95 80.5 -13.75 80.5 -11.6 80.5 -11.3 80.35 -3.85 80.2 -2.95 80.1 -2.4 Q78.85 3.15 74.75 3.15 71.75 3.15 69.0 1.5 66.15 -0.2 64.75 -2.95 L64.75 -3.0 M71.5 -18.75 L71.4 -16.5 Q71.1 -15.75 69.5 -14.85 68.5 -15.2 68.5 -16.6 L68.45 -16.6 Q67.7 -16.15 66.15 -15.55 64.0 -14.7 64.0 -13.1 64.0 -12.15 64.75 -9.5 L65.5 -6.1 65.5 -5.95 66.0 -6.5 66.3 -7.1 66.2 -7.2 67.0 -7.35 68.85 -4.6 71.15 -0.75 71.3 -0.45 71.45 -0.75 71.5 -2.45 71.65 -2.65 72.5 -2.85 Q73.0 -2.85 73.7 -2.0 L74.3 -1.05 74.5 -0.35 Q75.7 -0.2 76.55 -1.45 77.3 -2.7 77.7 -5.35 78.0 -7.55 78.0 -12.75 L78.0 -20.45 Q76.95 -20.75 74.55 -23.85 72.9 -25.95 70.5 -24.2 L70.75 -23.8 71.0 -22.7 70.85 -22.0 71.05 -21.2 71.5 -18.75" fill="#ff6633" fill-rule="evenodd" stroke="none"/>
    <path d="M65.45 -37.75 L65.5 -37.2 65.5 -38.2 65.45 -37.75 M80.1 -2.4 Q82.35 -3.2 83.75 -4.4 86.3 -6.45 87.75 -11.9 88.7 -15.4 88.75 -16.85 88.9 -19.7 87.45 -22.5 86.05 -25.15 83.0 -28.25 78.9 -32.4 74.9 -33.45 67.4 -35.45 61.05 -29.0 56.45 -24.45 55.3 -20.3 54.35 -16.75 54.35 -16.2 54.05 -13.8 55.45 -11.25 56.8 -9.05 60.35 -6.35 L60.95 -6.0 Q62.25 -4.4 64.75 -3.0 L64.75 -2.95 Q66.15 -0.2 69.0 1.5 71.75 3.15 74.75 3.15 78.85 3.15 80.1 -2.4 M59.5 -39.1 L59.5 -38.35 59.6 -39.15 Q68.8 -42.85 81.15 -39.55 88.95 -37.45 91.1 -34.3 91.9 -33.05 93.5 -32.3 95.3 -31.45 95.9 -30.75 99.85 -26.15 100.45 -22.95 101.45 -18.2 101.45 -15.35 101.45 -12.9 100.65 -9.95 99.2 -4.4 95.7 -0.65 92.25 3.1 85.3 6.55 76.05 11.3 66.35 13.3 64.75 12.5 62.45 11.85 L61.85 11.7 63.05 11.75 63.8 11.7 Q53.9 6.95 50.9 3.75 49.0 1.65 45.65 -3.65 40.95 -9.75 40.6 -12.15 40.5 -13.0 41.95 -18.4 44.35 -27.35 51.15 -33.7 54.95 -37.25 59.5 -39.1 M59.5 -36.7 L59.6 -36.9 59.5 -37.55 59.5 -36.7" fill="#ff6633" fill-opacity="0.49803922" fill-rule="evenodd" stroke="none"/>
    <path d="M80.65 -19.35 L80.3 -23.7 Q80.2 -24.4 79.5 -24.85 L78.5 -25.7 77.85 -26.85 Q77.4 -27.55 76.5 -27.85 L73.85 -29.0 71.0 -29.85 Q68.1 -29.85 68.0 -27.05 67.85 -22.8 66.5 -20.95 65.05 -18.95 61.8 -16.5 60.5 -15.55 60.5 -11.6 60.5 -11.1 62.55 -7.1 L64.75 -3.0 Q62.25 -4.4 60.95 -6.0 L60.35 -6.35 Q56.8 -9.05 55.45 -11.25 54.05 -13.8 54.35 -16.2 54.35 -16.75 55.3 -20.3 56.45 -24.45 61.05 -29.0 67.4 -35.45 74.9 -33.45 78.9 -32.4 83.0 -28.25 86.05 -25.15 87.45 -22.5 88.9 -19.7 88.75 -16.85 88.7 -15.4 87.75 -11.9 86.3 -6.45 83.75 -4.4 82.35 -3.2 80.1 -2.4 L80.2 -2.95 80.3 -3.3 Q80.75 -5.15 80.7 -7.85 L80.5 -11.3 80.5 -11.6 80.7 -16.85 80.65 -19.35" fill="#ffcc00" fill-opacity="0.49803922" fill-rule="evenodd" stroke="none"/>
  </g>
</svg>
