<?xml version="1.0" encoding="UTF-8" standalone="no"?>
<svg xmlns:ffdec="https://www.free-decompiler.com/flash" xmlns:xlink="http://www.w3.org/1999/xlink" ffdec:objectType="shape" height="54.85px" width="58.9px" xmlns="http://www.w3.org/2000/svg">
  <g transform="matrix(1.0, 0.0, 0.0, 1.0, -46.1, 47.75)">
    <path d="M64.1 -29.1 L63.8 -29.75 63.8 -29.8 63.75 -29.9 63.5 -30.45 64.1 -29.8 62.0 -33.85 61.5 -34.85 Q61.5 -35.45 62.15 -35.95 L62.55 -37.05 Q63.05 -37.55 65.0 -37.55 L65.6 -37.5 65.75 -37.55 Q67.7 -37.55 71.75 -34.1 L72.8 -33.15 72.9 -33.05 73.9 -32.1 Q77.3 -28.95 78.0 -27.55 L78.35 -26.75 79.75 -24.15 Q80.5 -22.9 80.5 -19.45 L80.45 -16.75 80.5 -15.9 Q80.5 -12.05 79.8 -10.3 79.45 -9.35 78.9 -8.7 78.45 -7.75 77.4 -7.55 76.3 -7.05 74.75 -7.05 L73.2 -7.1 Q69.65 -7.35 67.55 -8.65 66.1 -9.6 65.35 -11.05 64.5 -12.6 64.5 -16.1 64.5 -18.65 65.5 -20.8 66.5 -22.95 66.5 -24.7 L66.2 -25.4 65.0 -27.35 64.1 -29.1 M69.0 -24.9 L69.0 -24.4 Q69.0 -21.45 68.0 -14.65 L68.6 -14.0 Q69.1 -13.7 69.5 -13.55 L70.2 -13.45 70.9 -13.5 71.5 -13.55 71.55 -13.55 Q73.25 -13.55 74.7 -11.95 L75.0 -11.55 75.15 -11.75 Q76.25 -12.85 77.3 -12.55 78.05 -14.4 78.05 -17.55 L77.05 -19.25 Q76.05 -20.7 76.0 -22.05 75.85 -23.7 74.75 -26.15 73.4 -28.85 70.75 -29.05 L70.45 -29.05 70.5 -28.2 70.35 -26.4 69.0 -24.9" fill="#ff6633" fill-rule="evenodd" stroke="none"/>
    <path d="M69.0 -24.9 L70.35 -26.4 70.5 -28.2 70.45 -29.05 70.75 -29.05 Q73.4 -28.85 74.75 -26.15 75.85 -23.7 76.0 -22.05 76.05 -20.7 77.05 -19.25 L78.05 -17.55 Q78.05 -14.4 77.3 -12.55 76.25 -12.85 75.15 -11.75 L75.0 -11.55 74.7 -11.95 Q73.25 -13.55 71.55 -13.55 L71.5 -13.55 70.9 -13.5 70.2 -13.45 69.5 -13.55 Q69.1 -13.7 68.6 -14.0 L68.0 -14.65 Q69.0 -21.45 69.0 -24.4 L69.0 -24.9" fill="#ffcc00" fill-rule="evenodd" stroke="none"/>
    <path d="M76.1 -46.9 Q86.9 -44.85 90.6 -42.55 93.0 -41.05 97.6 -36.75 103.7 -32.1 104.7 -29.85 105.0 -29.1 105.0 -23.5 105.0 -14.25 100.1 -6.3 91.8 7.1 72.6 7.1 64.55 7.1 61.65 4.6 60.55 3.6 58.8 3.25 56.85 2.9 56.1 2.4 51.05 -1.0 49.65 -3.9 47.5 -8.25 46.75 -11.0 46.1 -13.4 46.1 -16.45 46.1 -22.2 48.5 -26.7 50.85 -31.2 56.65 -36.4 64.4 -43.35 73.25 -47.75 L77.35 -47.4 78.0 -47.4 76.85 -47.15 76.1 -46.9 M72.8 -33.15 L71.75 -34.1 Q67.7 -37.55 65.75 -37.55 L65.6 -37.5 65.0 -37.55 Q63.05 -37.55 62.55 -37.05 L62.15 -35.95 Q61.5 -35.45 61.5 -34.85 L62.0 -33.85 64.1 -29.8 63.5 -30.45 63.75 -29.9 63.8 -29.8 63.8 -29.75 64.1 -29.1 Q62.05 -27.7 61.0 -26.2 59.1 -23.55 59.1 -17.9 59.1 -14.3 59.4 -12.9 60.0 -10.1 62.1 -7.75 64.15 -5.55 67.9 -3.35 72.95 -0.4 77.1 -0.4 84.85 -0.4 89.35 -8.3 92.6 -13.9 92.6 -18.2 L92.5 -22.4 Q92.1 -24.8 90.1 -26.9 88.25 -28.65 84.1 -30.4 L83.4 -30.55 Q81.6 -31.9 78.5 -32.6 L75.65 -32.95 75.55 -33.05 72.8 -33.15" fill="#ff6633" fill-opacity="0.49803922" fill-rule="evenodd" stroke="none"/>
    <path d="M64.1 -29.1 L65.0 -27.35 66.2 -25.4 66.5 -24.7 Q66.5 -22.95 65.5 -20.8 64.5 -18.65 64.5 -16.1 64.5 -12.6 65.35 -11.05 66.1 -9.6 67.55 -8.65 69.65 -7.35 73.2 -7.1 L74.75 -7.05 Q76.3 -7.05 77.4 -7.55 78.45 -7.75 78.9 -8.7 79.45 -9.35 79.8 -10.3 80.5 -12.05 80.5 -15.9 L80.45 -16.75 80.5 -19.45 Q80.5 -22.9 79.75 -24.15 L78.35 -26.75 78.0 -27.55 Q77.3 -28.95 73.9 -32.1 L72.9 -33.05 72.8 -33.15 75.55 -33.05 75.65 -32.95 78.5 -32.6 Q81.6 -31.9 83.4 -30.55 L84.1 -30.4 Q88.25 -28.65 90.1 -26.9 92.1 -24.8 92.5 -22.4 L92.6 -18.2 Q92.6 -13.9 89.35 -8.3 84.85 -0.4 77.1 -0.4 72.95 -0.4 67.9 -3.35 64.15 -5.55 62.1 -7.75 60.0 -10.1 59.4 -12.9 59.1 -14.3 59.1 -17.9 59.1 -23.55 61.0 -26.2 62.05 -27.7 64.1 -29.1" fill="#ffcc00" fill-opacity="0.49803922" fill-rule="evenodd" stroke="none"/>
  </g>
</svg>
