<?xml version="1.0" encoding="UTF-8" standalone="no"?>
<svg xmlns:ffdec="https://www.free-decompiler.com/flash" xmlns:xlink="http://www.w3.org/1999/xlink" ffdec:objectType="shape" height="54.85px" width="56.15px" xmlns="http://www.w3.org/2000/svg">
  <g transform="matrix(1.0, 0.0, 0.0, 1.0, -45.8, 50.35)">
    <path d="M60.75 -37.6 L60.55 -37.85 60.7 -37.8 60.75 -37.6 M59.5 -39.0 L59.0 -39.55 Q59.85 -43.75 60.55 -45.35 61.1 -46.6 62.2 -46.8 L61.65 -46.25 Q60.0 -44.35 60.0 -42.65 L60.05 -41.5 60.0 -41.55 60.0 -41.4 59.5 -41.05 59.5 -39.0 M70.7 -36.4 L72.65 -35.35 Q71.95 -35.2 70.7 -36.4 M62.9 -35.35 L63.0 -34.9 62.55 -31.2 Q62.45 -30.0 62.75 -28.85 L62.65 -28.95 Q62.0 -29.55 62.0 -30.7 62.0 -33.7 62.9 -35.35 M67.15 -26.75 L66.4 -29.35 Q67.05 -29.9 67.35 -30.6 L68.0 -31.75 Q69.0 -30.4 69.95 -29.9 70.75 -29.5 73.0 -28.8 L73.65 -28.2 Q77.5 -24.8 78.0 -24.8 78.15 -24.8 78.45 -25.15 L78.55 -25.15 79.0 -24.8 79.2 -24.9 80.5 -23.9 81.0 -23.55 81.75 -20.5 82.5 -17.1 Q81.5 -13.1 81.0 -12.9 L79.4 -12.6 78.0 -12.15 Q77.65 -11.9 77.5 -11.05 L77.3 -9.8 Q76.8 -11.3 76.0 -11.3 75.2 -11.3 75.05 -10.95 L75.0 -10.65 Q75.0 -9.9 74.75 -9.9 L71.0 -12.8 Q70.2 -12.8 70.05 -12.55 L70.0 -12.3 70.0 -16.9 69.35 -19.55 68.5 -21.8 67.15 -26.75 M70.0 -18.3 L70.1 -17.0 70.25 -18.2 70.0 -18.55 70.0 -18.3" fill="#ffcc00" fill-rule="evenodd" stroke="none"/>
    <path d="M62.2 -46.8 Q63.9 -48.2 65.8 -46.15 L65.9 -45.9 Q66.5 -45.15 66.5 -43.65 L67.05 -43.55 Q67.5 -44.05 67.5 -42.8 L66.8 -41.45 66.5 -40.85 66.5 -39.85 67.0 -39.8 Q68.2 -39.8 68.85 -38.85 L68.95 -38.7 70.55 -36.55 70.7 -36.4 Q71.95 -35.2 72.65 -35.35 L73.5 -35.8 Q74.2 -35.8 80.5 -29.05 L81.65 -28.05 83.0 -26.8 Q85.0 -23.8 85.0 -22.8 L85.0 -22.35 85.05 -22.25 86.0 -19.05 85.5 -14.15 84.95 -13.25 Q84.5 -12.8 84.5 -12.4 L84.5 -10.15 Q84.4 -9.55 83.6 -8.9 82.65 -8.1 80.6 -7.2 77.3 -5.8 75.5 -5.8 L74.45 -5.9 Q72.3 -6.25 69.8 -8.05 68.55 -8.6 67.95 -9.0 67.0 -9.7 67.0 -11.4 67.0 -13.15 66.15 -15.1 65.35 -16.9 65.5 -18.8 65.6 -20.45 65.0 -22.9 64.4 -25.45 63.5 -27.05 L62.75 -28.85 Q62.45 -30.0 62.55 -31.2 L63.0 -34.9 62.9 -35.35 62.8 -35.55 61.9 -36.35 Q61.1 -36.8 60.75 -37.6 L60.7 -37.8 60.55 -37.85 59.5 -38.05 59.5 -39.0 59.5 -41.05 60.0 -41.4 60.0 -41.55 60.05 -41.5 60.0 -42.65 Q60.0 -44.35 61.65 -46.25 L62.2 -46.8 M67.15 -26.75 L68.5 -21.8 69.35 -19.55 70.0 -16.9 70.0 -12.3 70.05 -12.55 Q70.2 -12.8 71.0 -12.8 L74.75 -9.9 Q75.0 -9.9 75.0 -10.65 L75.05 -10.95 Q75.2 -11.3 76.0 -11.3 76.8 -11.3 77.3 -9.8 L77.5 -11.05 Q77.65 -11.9 78.0 -12.15 L79.4 -12.6 81.0 -12.9 Q81.5 -13.1 82.5 -17.1 L81.75 -20.5 81.0 -23.55 80.5 -23.9 79.2 -24.9 79.0 -24.8 78.55 -25.15 78.45 -25.15 Q78.15 -24.8 78.0 -24.8 77.5 -24.8 73.65 -28.2 L73.0 -28.8 Q70.75 -29.5 69.95 -29.9 69.0 -30.4 68.0 -31.75 L67.35 -30.6 Q67.05 -29.9 66.4 -29.35 L67.15 -26.75" fill="#ff6633" fill-rule="evenodd" stroke="none"/>
    <path d="M68.95 -38.7 L68.85 -38.85 Q68.2 -39.8 67.0 -39.8 L66.5 -39.85 66.5 -40.85 66.8 -41.45 67.5 -42.8 Q67.5 -44.05 67.05 -43.55 L66.5 -43.65 Q66.5 -45.15 65.9 -45.9 L65.8 -46.15 Q63.9 -48.2 62.2 -46.8 61.1 -46.6 60.55 -45.35 59.85 -43.75 59.0 -39.55 L59.5 -39.0 59.5 -38.05 60.55 -37.85 60.75 -37.6 Q61.1 -36.8 61.9 -36.35 L62.8 -35.55 60.7 -34.0 Q58.55 -32.1 57.6 -29.1 56.7 -26.2 56.65 -21.85 56.6 -16.05 58.7 -12.45 62.55 -5.75 71.65 -5.8 L74.45 -5.9 75.5 -5.8 Q77.3 -5.8 80.6 -7.2 82.65 -8.1 83.6 -8.9 L85.45 -10.1 Q87.35 -11.65 88.15 -14.45 88.75 -16.9 88.2 -21.4 L88.0 -22.05 Q88.25 -24.3 87.3 -27.35 86.8 -28.95 86.15 -29.95 L86.2 -30.1 Q86.55 -31.25 84.0 -33.35 77.4 -38.9 73.0 -39.3 71.2 -39.45 68.95 -38.7 M57.1 -47.3 Q62.1 -50.2 67.2 -50.35 72.25 -50.6 79.65 -48.15 89.55 -44.9 97.8 -39.45 98.35 -37.75 99.5 -35.75 L99.85 -35.15 99.05 -36.0 98.5 -36.55 Q102.1 -26.15 101.95 -21.8 101.85 -18.95 100.45 -12.85 99.45 -5.25 98.0 -3.25 L92.7 0.15 Q84.65 4.8 75.35 4.5 59.55 4.05 49.95 -12.6 45.9 -19.55 46.65 -23.3 46.95 -24.8 46.4 -26.45 45.7 -28.35 45.8 -29.25 46.2 -35.3 48.0 -37.95 50.7 -42.0 52.7 -44.05 54.5 -45.8 57.1 -47.3" fill="#ff6633" fill-opacity="0.49803922" fill-rule="evenodd" stroke="none"/>
    <path d="M68.95 -38.7 Q71.2 -39.45 73.0 -39.3 77.4 -38.9 84.0 -33.35 86.55 -31.25 86.2 -30.1 L86.15 -29.95 Q86.8 -28.95 87.3 -27.35 88.25 -24.3 88.0 -22.05 L88.2 -21.4 Q88.75 -16.9 88.15 -14.45 87.35 -11.65 85.45 -10.1 L83.6 -8.9 Q84.4 -9.55 84.5 -10.15 L84.5 -12.4 Q84.5 -12.8 84.95 -13.25 L85.5 -14.15 86.0 -19.05 85.05 -22.25 85.0 -22.35 85.0 -22.8 Q85.0 -23.8 83.0 -26.8 L81.65 -28.05 80.5 -29.05 Q74.2 -35.8 73.5 -35.8 L72.65 -35.35 70.7 -36.4 70.55 -36.55 68.95 -38.7 M74.45 -5.9 L71.65 -5.8 Q62.55 -5.75 58.7 -12.45 56.6 -16.05 56.65 -21.85 56.7 -26.2 57.6 -29.1 58.55 -32.1 60.7 -34.0 L62.8 -35.55 62.9 -35.35 Q62.0 -33.7 62.0 -30.7 62.0 -29.55 62.65 -28.95 L62.75 -28.85 63.5 -27.05 Q64.4 -25.45 65.0 -22.9 65.6 -20.45 65.5 -18.8 65.35 -16.9 66.15 -15.1 67.0 -13.15 67.0 -11.4 67.0 -9.7 67.95 -9.0 68.55 -8.6 69.8 -8.05 72.3 -6.25 74.45 -5.9 M70.0 -18.3 L70.0 -18.55 70.25 -18.2 70.1 -17.0 70.0 -18.3" fill="#ffcc00" fill-opacity="0.49803922" fill-rule="evenodd" stroke="none"/>
  </g>
</svg>
