<?xml version="1.0" encoding="UTF-8" standalone="no"?>
<svg xmlns:ffdec="https://www.free-decompiler.com/flash" xmlns:xlink="http://www.w3.org/1999/xlink" ffdec:objectType="shape" height="54.4px" width="60.85px" xmlns="http://www.w3.org/2000/svg">
  <g transform="matrix(1.0, 0.0, 0.0, 1.0, -44.6, 52.1)">
    <path d="M63.5 -50.1 L63.5 -50.35 63.7 -50.55 63.6 -50.15 63.5 -49.45 63.5 -50.1 M84.65 -30.35 L84.7 -27.85 84.5 -22.6 84.5 -24.75 84.65 -28.95 84.65 -30.35 M84.5 -22.3 L84.7 -18.85 Q84.75 -16.15 84.3 -14.3 L84.2 -13.95 84.35 -14.85 84.5 -22.3 M69.5 -48.25 L69.45 -48.75 69.5 -49.2 69.5 -48.25 M63.5 -48.5 L63.6 -47.9 63.5 -47.7 63.5 -48.5 M74.75 -34.8 L74.5 -35.2 Q76.9 -36.95 78.55 -34.85 80.95 -31.75 82.0 -31.45 L82.0 -23.75 Q82.0 -18.55 81.7 -16.35 81.3 -13.7 80.55 -12.45 79.7 -11.2 78.5 -11.35 L78.3 -12.05 77.7 -13.0 Q77.0 -13.85 76.5 -13.85 L75.65 -13.65 75.5 -13.45 75.45 -11.75 75.3 -11.45 75.15 -11.75 72.85 -15.6 71.0 -18.35 70.2 -18.2 70.3 -18.1 70.0 -17.5 69.5 -16.95 69.5 -17.1 68.75 -20.5 Q68.0 -23.15 68.0 -24.1 68.0 -25.7 70.15 -26.55 L72.45 -27.6 72.5 -27.6 Q72.5 -26.2 73.5 -25.85 75.1 -26.75 75.4 -27.5 L75.5 -29.75 75.05 -32.2 74.85 -33.0 75.0 -33.7 74.75 -34.8" fill="#ffcc00" fill-rule="evenodd" stroke="none"/>
    <path d="M68.75 -14.0 L66.55 -18.1 Q64.5 -22.1 64.5 -22.6 64.5 -26.55 65.8 -27.5 69.05 -29.95 70.5 -31.95 71.85 -33.8 72.0 -38.05 72.1 -40.85 75.0 -40.85 L77.85 -40.0 80.5 -38.85 Q81.4 -38.55 81.85 -37.85 L82.5 -36.7 83.5 -35.85 Q84.2 -35.4 84.3 -34.7 L84.65 -30.35 84.65 -28.95 84.5 -24.75 84.5 -22.6 84.5 -22.3 84.35 -14.85 84.2 -13.95 84.1 -13.4 Q82.85 -7.85 78.75 -7.85 75.75 -7.85 73.0 -9.5 70.15 -11.2 68.75 -13.95 L68.75 -14.0 M74.75 -34.8 L75.0 -33.7 74.85 -33.0 75.05 -32.2 75.5 -29.75 75.4 -27.5 Q75.1 -26.75 73.5 -25.85 72.5 -26.2 72.5 -27.6 L72.45 -27.6 70.15 -26.55 Q68.0 -25.7 68.0 -24.1 68.0 -23.15 68.75 -20.5 L69.5 -17.1 69.5 -16.95 70.0 -17.5 70.3 -18.1 70.2 -18.2 71.0 -18.35 72.85 -15.6 75.15 -11.75 75.3 -11.45 75.45 -11.75 75.5 -13.45 75.65 -13.65 76.5 -13.85 Q77.0 -13.85 77.7 -13.0 L78.3 -12.05 78.5 -11.35 Q79.7 -11.2 80.55 -12.45 81.3 -13.7 81.7 -16.35 82.0 -18.55 82.0 -23.75 L82.0 -31.45 Q80.95 -31.75 78.55 -34.85 76.9 -36.95 74.5 -35.2 L74.75 -34.8" fill="#ff6633" fill-rule="evenodd" stroke="none"/>
    <path d="M63.6 -50.15 Q72.8 -53.85 85.15 -50.55 92.95 -48.45 95.1 -45.3 95.9 -44.05 97.5 -43.3 99.3 -42.45 99.9 -41.75 103.85 -37.15 104.45 -33.95 105.45 -29.2 105.45 -26.35 105.45 -23.9 104.65 -20.95 103.2 -15.4 99.7 -11.65 96.25 -7.9 89.3 -4.45 80.05 0.3 70.35 2.3 68.75 1.5 66.45 0.85 L65.85 0.7 67.05 0.75 67.8 0.7 Q57.9 -4.05 54.9 -7.25 53.0 -9.35 49.65 -14.65 44.95 -20.75 44.6 -23.15 44.5 -24.0 45.95 -29.4 48.35 -38.35 55.15 -44.7 58.95 -48.25 63.5 -50.1 L63.5 -49.45 63.6 -50.15 M84.1 -13.4 Q86.35 -14.2 87.75 -15.4 90.3 -17.45 91.75 -22.9 92.7 -26.4 92.75 -27.85 92.9 -30.7 91.45 -33.5 90.05 -36.15 87.0 -39.25 82.9 -43.4 78.9 -44.45 71.4 -46.45 65.05 -40.0 60.45 -35.45 59.3 -31.3 58.35 -27.75 58.35 -27.2 58.05 -24.8 59.45 -22.25 60.8 -20.05 64.35 -17.35 L64.95 -17.0 Q66.25 -15.4 68.75 -14.0 L68.75 -13.95 Q70.15 -11.2 73.0 -9.5 75.75 -7.85 78.75 -7.85 82.85 -7.85 84.1 -13.4 M69.5 -48.25 L69.5 -49.2 69.45 -48.75 69.5 -48.25 M63.5 -48.5 L63.5 -47.7 63.6 -47.9 63.5 -48.5" fill="#ff6633" fill-opacity="0.49803922" fill-rule="evenodd" stroke="none"/>
    <path d="M84.65 -30.35 L84.3 -34.7 Q84.2 -35.4 83.5 -35.85 L82.5 -36.7 81.85 -37.85 Q81.4 -38.55 80.5 -38.85 L77.85 -40.0 75.0 -40.85 Q72.1 -40.85 72.0 -38.05 71.85 -33.8 70.5 -31.95 69.05 -29.95 65.8 -27.5 64.5 -26.55 64.5 -22.6 64.5 -22.1 66.55 -18.1 L68.75 -14.0 Q66.25 -15.4 64.95 -17.0 L64.35 -17.35 Q60.8 -20.05 59.45 -22.25 58.05 -24.8 58.35 -27.2 58.35 -27.75 59.3 -31.3 60.45 -35.45 65.05 -40.0 71.4 -46.45 78.9 -44.45 82.9 -43.4 87.0 -39.25 90.05 -36.15 91.45 -33.5 92.9 -30.7 92.75 -27.85 92.7 -26.4 91.75 -22.9 90.3 -17.45 87.75 -15.4 86.35 -14.2 84.1 -13.4 L84.2 -13.95 84.3 -14.3 Q84.75 -16.15 84.7 -18.85 L84.5 -22.3 84.5 -22.6 84.7 -27.85 84.65 -30.35" fill="#ffcc00" fill-opacity="0.49803922" fill-rule="evenodd" stroke="none"/>
  </g>
</svg>
