<?xml version="1.0" encoding="UTF-8" standalone="no"?>
<svg xmlns:ffdec="https://www.free-decompiler.com/flash" xmlns:xlink="http://www.w3.org/1999/xlink" ffdec:objectType="shape" height="88.25px" width="88.5px" xmlns="http://www.w3.org/2000/svg">
  <g transform="matrix(1.0, 0.0, 0.0, 1.0, 44.55, 44.3)">
    <path d="M5.75 35.6 L6.15 35.75 6.05 35.8 5.75 35.6 M-35.25 25.85 L-35.4 25.7 -35.7 25.3 -35.8 25.15 -35.05 25.7 -34.45 26.2 -35.25 25.85" fill="#794d31" fill-rule="evenodd" stroke="none"/>
    <path d="M20.45 -38.6 L21.35 -38.35 32.95 -35.1 Q35.45 -34.2 38.65 -31.1 41.95 -27.9 41.95 -26.1 41.95 -21.5 35.45 -19.05 33.0 -18.1 31.35 -16.7 L30.35 -15.8 Q28.6 -13.95 28.45 -11.85 28.3 -9.35 26.8 -3.4 L26.05 -0.05 25.9 0.85 Q25.45 3.15 25.45 4.65 L25.45 4.75 Q25.45 6.7 26.2 9.35 26.95 12.0 26.95 13.25 26.95 17.55 26.1 20.2 L22.6 27.9 Q20.2 32.9 17.85 34.65 L16.4 35.65 16.4 35.7 16.0 36.15 14.5 37.0 14.45 37.0 9.6 40.0 -1.9 40.65 -2.55 40.65 -5.1 40.65 -16.95 40.15 -17.15 40.0 Q-18.25 39.35 -21.1 38.8 L-21.15 38.8 -21.9 38.65 -25.5 37.75 Q-28.1 37.0 -28.95 36.4 -30.75 35.05 -32.05 32.9 -33.55 30.45 -34.4 29.65 L-37.55 26.5 -39.2 24.75 -40.9 22.6 -41.4 21.45 Q-41.95 19.65 -41.95 16.45 -41.95 13.65 -41.5 11.85 -41.05 10.1 -39.45 6.7 L-37.35 3.9 -35.95 2.3 -35.85 2.2 -34.95 1.05 -34.15 -0.3 Q-33.5 -1.65 -33.45 -2.95 L-33.45 -3.0 -33.45 -3.1 Q-33.35 -9.25 -32.15 -13.1 -30.5 -18.55 -25.9 -23.35 -22.15 -27.3 -13.5 -32.55 L-6.05 -36.85 -1.4 -39.35 1.05 -40.1 6.05 -41.35 9.3 -41.6 Q11.7 -41.3 20.45 -38.6 M6.15 35.75 L13.5 34.25 14.85 32.95 16.6 30.65 17.2 29.65 19.15 26.6 Q21.1 23.7 21.35 22.4 22.05 19.0 22.35 14.3 22.6 10.0 22.45 6.35 L22.45 6.2 23.5 -0.1 23.6 -0.85 24.45 -9.85 25.65 -14.25 Q26.3 -16.7 28.6 -17.85 L30.15 -18.6 35.4 -21.3 Q38.95 -23.5 38.95 -25.55 38.95 -26.45 36.6 -29.15 34.3 -31.75 32.95 -32.55 30.5 -33.95 28.4 -34.5 L24.45 -35.1 21.25 -35.85 19.3 -36.35 14.45 -37.6 7.15 -38.05 6.35 -37.65 2.35 -36.15 -4.4 -33.8 -8.1 -31.55 -12.25 -29.0 -12.9 -28.6 Q-18.35 -25.15 -21.45 -21.55 L-24.3 -17.45 -25.95 -14.35 Q-27.65 -11.0 -28.75 -7.0 -29.95 -2.65 -29.95 0.65 L-30.0 1.55 -30.1 2.7 -30.15 3.0 -30.45 4.4 -30.75 5.25 Q-31.2 6.0 -32.05 6.6 L-33.9 7.9 -34.5 8.7 Q-36.45 11.05 -36.75 11.85 -36.95 12.4 -36.95 15.3 -36.95 17.1 -36.55 18.55 L-35.8 20.4 -35.75 20.45 -35.9 21.25 -33.8 22.85 -33.4 23.15 Q-32.8 23.65 -32.1 24.3 -30.05 25.45 -28.35 26.95 L-27.35 27.85 Q-25.0 30.2 -25.0 31.85 -24.5 32.1 -23.95 32.45 L-21.85 34.0 -17.6 34.5 -12.8 34.75 -6.3 35.0 -2.35 35.05 -0.5 35.0 0.0 35.0 0.05 35.0 Q4.2 34.95 5.75 35.6 L6.05 35.8 6.15 35.75 M-35.25 25.85 L-34.45 26.2 -35.05 25.7 -35.8 25.15 -35.7 25.3 -35.4 25.7 -35.25 25.85" fill="#925e3a" fill-rule="evenodd" stroke="none"/>
    <path d="M20.45 -38.6 Q11.7 -41.3 9.3 -41.6 L6.05 -41.35 1.05 -40.1 -1.4 -39.35 -6.05 -36.85 -13.5 -32.55 Q-22.15 -27.3 -25.9 -23.35 -30.5 -18.55 -32.15 -13.1 -33.35 -9.25 -33.45 -3.1 L-33.45 -3.0 -33.45 -2.95 Q-33.5 -1.65 -34.15 -0.3 L-34.95 1.05 -35.85 2.2 -35.95 2.3 -37.35 3.9 -39.45 6.7 Q-41.05 10.1 -41.5 11.85 -41.95 13.65 -41.95 16.45 -41.95 19.65 -41.4 21.45 L-40.9 22.6 -39.2 24.75 -37.55 26.5 -34.4 29.65 Q-33.55 30.45 -32.05 32.9 -30.75 35.05 -28.95 36.4 -28.1 37.0 -25.5 37.75 L-21.9 38.65 -21.15 38.8 -21.1 38.8 Q-18.25 39.35 -17.15 40.0 L-16.95 40.15 -5.1 40.65 -2.55 40.65 -1.9 40.65 9.6 40.0 14.45 37.0 14.5 37.0 16.0 36.15 16.4 35.7 16.4 35.65 17.85 34.65 Q20.2 32.9 22.6 27.9 L26.1 20.2 Q26.95 17.55 26.95 13.25 26.95 12.0 26.2 9.35 25.45 6.7 25.45 4.75 L25.45 4.65 Q25.45 3.15 25.9 0.85 L26.05 -0.05 26.8 -3.4 Q28.3 -9.35 28.45 -11.85 28.6 -13.95 30.35 -15.8 L31.35 -16.7 Q33.0 -18.1 35.45 -19.05 41.95 -21.5 41.95 -26.1 41.95 -27.9 38.65 -31.1 35.45 -34.2 32.95 -35.1 L21.35 -38.35 20.45 -38.6 M1.4 -42.5 L2.5 -42.95 2.55 -42.95 2.7 -43.05 4.65 -43.95 6.0 -44.25 Q13.15 -44.55 17.15 -42.05 22.4 -41.15 28.1 -39.25 43.95 -34.05 43.95 -26.25 43.95 -22.1 42.2 -20.0 40.95 -18.5 38.15 -17.45 L33.6 -15.6 Q32.35 -14.85 31.55 -13.7 31.2 -10.6 29.25 -4.0 L28.95 -3.0 28.15 1.15 27.95 2.15 Q28.4 3.4 28.25 5.1 L28.55 7.1 28.75 7.85 29.0 10.6 29.6 16.65 29.2 18.6 Q28.75 19.9 28.75 20.5 L26.05 26.35 Q23.4 31.8 22.75 32.65 L20.15 35.6 18.35 37.05 17.65 37.55 Q16.95 39.05 14.45 40.3 12.4 41.3 9.35 41.95 5.55 43.7 2.8 43.95 L2.4 43.9 -7.55 43.05 -8.95 43.3 -12.1 42.7 -16.45 42.95 -17.15 42.8 -22.4 42.05 -27.55 39.85 -29.5 39.2 -33.05 36.55 Q-34.2 35.2 -34.5 33.9 L-34.6 33.55 -36.05 31.45 Q-36.65 30.85 -37.5 30.2 L-41.15 27.3 -43.6 24.15 Q-44.4 22.8 -44.4 21.25 L-44.3 20.45 -44.4 19.9 -44.25 18.2 -44.5 17.2 -44.55 15.15 -44.55 15.1 Q-44.1 14.0 -44.1 13.35 L-43.65 10.25 -43.5 9.4 -42.35 7.7 -41.45 5.45 Q-41.05 4.45 -39.8 3.2 -38.7 1.25 -37.15 -0.25 L-37.05 -1.65 -36.25 -9.75 Q-35.8 -12.8 -33.45 -16.6 L-31.8 -19.15 -30.4 -22.0 Q-28.8 -24.8 -26.75 -27.0 L-23.15 -29.4 Q-19.0 -32.4 -16.5 -34.85 L-16.1 -35.2 -12.75 -36.8 Q-10.35 -37.8 -6.15 -39.7 -3.75 -40.3 1.4 -42.5" fill="#000000" fill-rule="evenodd" stroke="none"/>
    <path d="M5.75 35.6 Q4.2 34.95 0.05 35.0 L0.0 35.0 -0.5 35.0 -2.35 35.05 -6.3 35.0 -12.8 34.75 -17.6 34.5 -21.85 34.0 -23.95 32.45 Q-24.5 32.1 -25.0 31.85 -25.0 30.2 -27.35 27.85 L-28.35 26.95 Q-30.05 25.45 -32.1 24.3 -32.8 23.65 -33.4 23.15 L-33.8 22.85 -35.9 21.25 -35.75 20.45 -35.8 20.4 -36.55 18.55 Q-36.95 17.1 -36.95 15.3 -36.95 12.4 -36.75 11.85 -36.45 11.05 -34.5 8.7 L-33.9 7.9 -32.05 6.6 Q-31.2 6.0 -30.75 5.25 L-30.45 4.4 -30.15 3.0 -30.1 2.7 -30.0 1.55 -29.95 0.65 Q-29.95 -2.65 -28.75 -7.0 -27.65 -11.0 -25.95 -14.35 L-24.3 -17.45 -21.45 -21.55 Q-18.35 -25.15 -12.9 -28.6 L-12.25 -29.0 -8.1 -31.55 -4.4 -33.8 2.35 -36.15 6.35 -37.65 7.15 -38.05 14.45 -37.6 19.3 -36.35 21.25 -35.85 24.45 -35.1 28.4 -34.5 Q30.5 -33.95 32.95 -32.55 34.3 -31.75 36.6 -29.15 38.95 -26.45 38.95 -25.55 38.95 -23.5 35.4 -21.3 L30.15 -18.6 28.6 -17.85 Q26.3 -16.7 25.65 -14.25 L24.45 -9.85 23.6 -0.85 23.5 -0.1 22.45 6.2 22.45 6.35 Q22.6 10.0 22.35 14.3 22.05 19.0 21.35 22.4 21.1 23.7 19.15 26.6 L17.2 29.65 16.6 30.65 14.85 32.95 13.5 34.25 6.15 35.75 5.75 35.6" fill="#6a442b" fill-rule="evenodd" stroke="none"/>
  </g>
</svg>
