<?xml version="1.0" encoding="UTF-8" standalone="no"?>
<svg xmlns:ffdec="https://www.free-decompiler.com/flash" xmlns:xlink="http://www.w3.org/1999/xlink" ffdec:objectType="shape" height="70.45px" width="78.2px" xmlns="http://www.w3.org/2000/svg">
  <g transform="matrix(1.0, 0.0, 0.0, 1.0, 23.8, 32.6)">
    <path d="M8.6 -28.65 Q11.2 -30.7 12.7 -31.15 22.9 -34.35 28.75 -30.4 33.85 -27.0 33.7 -20.15 L33.5 -19.55 33.25 -19.3 33.8 -19.15 35.8 -18.9 37.45 -16.8 39.05 -15.35 39.3 -14.45 Q40.55 -12.7 40.9 -9.55 L41.55 -4.4 41.45 -4.0 42.65 -3.15 Q45.75 -0.7 46.4 1.1 L46.8 1.3 47.8 2.45 Q48.8 3.95 48.8 6.2 48.8 10.05 47.5 12.05 46.25 13.95 41.3 17.9 L36.3 17.9 36.35 18.05 Q33.6 17.8 31.8 14.85 30.15 14.25 27.65 11.85 26.65 11.65 25.5 10.45 L24.55 9.55 23.9 9.05 23.1 8.6 Q22.6 8.4 21.95 7.7 21.2 11.0 21.2 14.6 L21.2 16.25 21.2 16.35 21.2 16.5 21.5 17.65 Q21.35 18.45 18.95 18.95 L18.55 19.05 18.7 20.2 18.7 21.25 Q20.45 21.1 21.5 22.65 22.9 25.95 23.7 26.9 L27.1 30.95 Q28.2 32.35 28.2 34.0 L28.05 34.95 27.85 35.1 28.0 35.25 27.7 35.35 27.7 35.45 27.65 36.3 27.45 36.65 21.2 36.6 14.5 37.05 -1.8 37.85 -22.9 37.85 -22.95 37.8 -23.5 37.6 Q-23.8 37.4 -23.8 36.6 -23.8 35.3 -23.0 33.15 L-21.65 29.35 -20.25 25.5 -19.3 23.75 -19.3 22.5 -19.15 20.25 -19.1 20.2 Q-21.4 19.9 -22.05 19.15 -22.65 18.55 -22.3 17.35 L-22.3 17.0 -22.3 15.7 Q-22.3 4.25 -19.6 -3.85 -16.05 -14.7 -8.2 -17.35 L-7.95 -17.5 -7.55 -17.65 Q-4.2 -19.15 1.3 -19.15 1.55 -20.15 2.95 -22.35 L5.1 -25.4 Q6.15 -26.7 8.6 -28.65 M31.6 -19.75 Q30.85 -26.7 27.05 -28.8 25.05 -29.9 20.2 -29.9 11.55 -29.9 6.6 -23.95 4.6 -21.55 3.75 -19.1 L10.2 -18.2 14.2 -18.15 16.25 -17.7 18.85 -16.9 20.7 -15.55 21.55 -14.7 21.75 -14.75 Q22.85 -14.85 23.7 -13.35 L23.8 -13.2 24.7 -12.55 25.1 -12.15 25.05 -13.5 25.25 -15.25 25.3 -15.4 Q25.95 -17.25 27.45 -18.5 L28.2 -18.95 28.15 -19.05 28.8 -19.45 30.3 -19.9 30.35 -19.75 31.1 -19.65 31.1 -19.4 31.6 -19.45 31.6 -19.75 M18.05 -14.1 L17.45 -14.35 16.75 -14.6 15.45 -15.05 14.4 -15.3 13.9 -15.45 Q13.6 -15.15 12.95 -15.15 L12.9 -15.15 13.4 -13.3 13.6 -12.5 Q14.2 -9.9 14.2 -8.3 L14.15 -7.25 14.8 -7.7 15.1 -7.9 Q16.0 -8.45 17.0 -8.2 L17.85 -7.9 18.05 -8.0 18.2 -7.15 Q18.2 -6.65 17.0 -5.9 L15.15 -4.9 13.85 -4.35 15.05 -2.9 16.7 -1.1 16.6 -0.45 Q16.45 -0.15 15.7 -0.15 15.2 -0.15 14.6 -0.45 L13.25 -1.45 12.75 -1.95 Q11.45 1.3 9.7 3.35 L9.0 3.2 Q8.7 3.05 8.7 2.25 L10.45 -2.55 10.65 -3.05 10.3 -2.95 7.45 -2.15 6.25 -2.35 5.7 -2.85 Q6.8 -4.2 9.45 -5.1 L9.9 -5.15 10.0 -5.2 9.85 -5.4 Q7.7 -8.2 7.7 -8.65 L7.9 -9.5 8.2 -9.6 Q9.85 -8.85 11.9 -6.65 L12.2 -8.25 Q12.2 -9.55 11.45 -12.1 10.85 -14.15 10.75 -15.3 L6.7 -15.75 0.95 -16.35 0.55 -16.4 0.45 -16.4 -0.7 -16.4 -4.0 -16.15 -5.3 -15.95 Q-6.4 -15.7 -6.85 -15.25 L-7.1 -15.0 Q-8.0 -14.3 -9.15 -14.15 L-9.2 -14.15 Q-13.2 -11.95 -14.9 -8.35 -18.2 -1.5 -18.8 1.4 -19.65 5.3 -19.8 11.1 L-19.8 17.55 -15.9 18.1 -15.3 18.1 -11.65 18.0 10.7 17.35 11.75 17.3 12.5 17.25 14.55 17.1 15.75 17.0 17.2 16.85 18.85 16.35 19.25 16.05 19.2 14.2 19.25 12.45 19.75 7.6 20.05 5.95 20.25 5.2 20.2 4.85 Q20.2 4.25 20.6 4.05 L21.2 2.4 Q23.2 -2.3 23.2 -5.8 L23.25 -5.95 23.3 -6.25 23.35 -6.9 22.6 -8.5 22.1 -9.7 21.1 -12.2 20.9 -12.4 20.75 -12.55 20.65 -12.6 18.05 -14.1 M39.0 -5.5 Q38.75 -9.55 37.75 -12.45 36.6 -15.95 34.7 -16.55 33.65 -17.35 31.8 -17.5 29.85 -17.65 28.8 -16.9 L28.7 -16.9 Q27.05 -16.45 27.05 -13.1 27.05 -10.75 30.05 -6.9 32.9 -3.15 34.3 -3.15 37.55 -3.15 37.55 -5.55 L38.55 -5.45 39.0 -5.45 39.0 -5.5 M27.05 -6.65 L26.5 -7.3 25.85 -4.3 25.3 -1.55 24.85 0.1 24.35 0.3 23.2 3.65 23.0 4.25 Q24.3 4.8 24.95 5.85 L25.5 6.55 Q26.65 6.95 27.3 7.9 L28.9 9.2 29.95 10.1 29.55 8.55 28.55 -1.3 28.6 -3.7 28.75 -4.65 27.05 -6.65 M46.1 3.7 L44.05 5.45 Q41.9 6.9 40.8 6.9 L40.3 6.85 37.8 7.05 Q35.6 7.05 35.1 5.0 L35.05 2.3 Q35.05 1.1 34.45 -0.95 32.55 -1.15 30.8 -2.55 L31.0 -0.65 31.05 5.1 Q31.05 6.75 32.55 10.95 L33.55 13.4 34.05 13.85 34.0 14.15 35.25 14.5 36.2 15.15 38.0 14.85 41.7 14.85 42.6 14.15 45.1 11.45 46.35 9.05 46.8 6.4 Q46.8 5.0 46.35 3.95 L46.15 3.55 46.1 3.7 M37.15 -1.2 L37.25 0.0 Q37.3 4.2 37.55 4.8 38.65 4.85 41.2 3.7 L44.55 2.05 41.4 -0.8 39.1 -2.85 38.8 -2.35 Q38.25 -1.55 37.15 -1.2 M48.4 0.15 L48.5 0.0 48.8 0.15 48.4 0.15 M54.2 0.15 L54.4 0.05 54.4 0.15 54.2 0.15 M14.9 19.2 Q14.4 19.3 14.15 19.6 5.15 20.35 -15.55 20.35 L-17.05 20.35 Q-17.0 21.65 -17.3 23.65 L-10.65 23.0 -1.3 22.35 15.3 21.7 15.3 21.5 16.45 21.6 16.9 21.6 16.85 21.55 Q16.7 21.3 16.7 20.35 L16.9 19.15 14.9 19.2 M21.8 34.4 L24.7 34.35 24.8 34.35 25.55 34.35 26.0 34.35 24.85 32.55 Q23.1 29.4 22.6 29.1 L20.6 25.95 Q19.7 24.55 18.55 24.3 L17.2 24.35 16.9 24.25 16.2 24.35 15.9 24.35 15.3 24.4 11.5 24.5 -8.15 25.4 -13.0 25.7 -15.55 25.85 -17.55 25.65 -18.4 27.9 -19.8 31.65 -20.35 35.05 Q-20.55 35.75 -20.9 36.3 L-19.0 36.25 -15.9 36.2 -15.75 36.2 -12.4 36.1 15.35 34.65 16.2 34.6 19.55 34.4 21.8 34.4" fill="#000000" fill-rule="evenodd" stroke="none"/>
    <path d="M46.35 3.95 L46.1 3.7 46.15 3.55 46.35 3.95" fill="#c6b19f" fill-rule="evenodd" stroke="none"/>
    <path d="M31.1 -19.65 L30.35 -19.75 30.3 -19.9 28.8 -19.45 28.15 -19.05 28.2 -18.95 27.45 -18.5 Q25.95 -17.25 25.3 -15.4 L25.25 -15.25 25.05 -13.5 25.1 -12.15 24.7 -12.55 23.8 -13.2 23.7 -13.35 Q22.85 -14.85 21.75 -14.75 L21.55 -14.7 20.7 -15.55 18.85 -16.9 16.25 -17.7 14.2 -18.15 10.2 -18.2 3.75 -19.1 Q4.6 -21.55 6.6 -23.95 11.55 -29.9 20.2 -29.9 25.05 -29.9 27.05 -28.8 30.85 -26.7 31.6 -19.75 L31.1 -19.65 M37.15 -1.2 Q38.25 -1.55 38.8 -2.35 L39.1 -2.85 41.4 -0.8 44.55 2.05 41.2 3.7 Q38.65 4.85 37.55 4.8 37.3 4.2 37.25 0.0 L37.15 -1.2" fill="#794d31" fill-rule="evenodd" stroke="none"/>
    <path d="M14.9 19.2 L16.9 19.15 16.7 20.35 Q16.7 21.3 16.85 21.55 L16.9 21.6 16.45 21.6 15.3 21.5 15.3 21.7 -1.3 22.35 -10.65 23.0 -17.3 23.65 Q-17.0 21.65 -17.05 20.35 L-15.55 20.35 Q5.15 20.35 14.15 19.6 14.4 19.3 14.9 19.2" fill="#332d26" fill-rule="evenodd" stroke="none"/>
    <path d="M38.55 -5.45 L37.55 -5.55 Q37.55 -3.15 34.3 -3.15 32.9 -3.15 30.05 -6.9 27.05 -10.75 27.05 -13.1 27.05 -16.45 28.7 -16.9 L28.8 -16.9 Q29.85 -17.65 31.8 -17.5 33.65 -17.35 34.7 -16.55 36.6 -15.95 37.75 -12.45 38.75 -9.55 39.0 -5.5 L38.55 -5.45 M46.35 3.95 Q46.8 5.0 46.8 6.4 L46.35 9.05 45.1 11.45 42.6 14.15 41.7 14.85 38.0 14.85 36.2 15.15 35.25 14.5 34.0 14.15 34.05 13.85 33.55 13.4 32.55 10.95 Q31.05 6.75 31.05 5.1 L31.0 -0.65 30.8 -2.55 Q32.55 -1.15 34.45 -0.95 35.05 1.1 35.05 2.3 L35.1 5.0 Q35.6 7.05 37.8 7.05 L40.3 6.85 40.8 6.9 Q41.9 6.9 44.05 5.45 L46.1 3.7 46.35 3.95" fill="#aa8a71" fill-rule="evenodd" stroke="none"/>
    <path d="M0.55 -16.4 L0.8 -16.35 0.0 -15.5 0.0 -14.25 Q0.0 -7.85 -5.1 5.55 -8.85 15.3 -11.15 18.0 L-11.65 18.0 -15.3 18.1 -15.9 18.1 -19.8 17.55 -19.8 11.1 Q-19.65 5.3 -18.8 1.4 -18.2 -1.5 -14.9 -8.35 -13.2 -11.95 -9.2 -14.15 L-9.15 -14.15 Q-8.0 -14.3 -7.1 -15.0 L-6.85 -15.25 Q-6.4 -15.7 -5.3 -15.95 L-4.0 -16.15 -0.7 -16.4 0.45 -16.4 0.55 -16.4 M15.75 17.0 L15.9 15.15 Q16.25 11.3 17.0 8.5 L19.3 1.8 Q21.0 -3.2 21.0 -5.35 21.0 -7.75 20.65 -8.5 19.45 -10.9 18.8 -12.85 L18.05 -14.1 20.65 -12.6 20.75 -12.55 20.9 -12.4 21.1 -12.2 22.1 -9.7 22.6 -8.5 23.35 -6.9 23.3 -6.25 23.25 -5.95 23.2 -5.8 Q23.2 -2.3 21.2 2.4 L20.6 4.05 Q20.2 4.25 20.2 4.85 L20.25 5.2 20.05 5.95 19.75 7.6 19.25 12.45 19.2 14.2 19.25 16.05 18.85 16.35 17.2 16.85 15.75 17.0 M15.9 24.35 L16.2 24.35 16.9 24.25 17.2 24.35 18.55 24.3 Q19.7 24.55 20.6 25.95 L22.6 29.1 Q23.1 29.4 24.85 32.55 L26.0 34.35 25.55 34.35 24.8 34.35 24.7 34.35 21.8 34.4 19.75 31.0 15.9 24.35 M-15.75 36.2 L-15.9 36.2 -19.0 36.25 -20.9 36.3 Q-20.55 35.75 -20.35 35.05 L-19.8 31.65 -18.4 27.9 -17.55 25.65 -15.55 25.85 -13.0 25.7 -13.25 27.1 Q-13.0 27.45 -13.0 28.15 L-13.1 29.3 -13.6 29.55 -13.85 29.7 -14.5 32.2 -15.75 36.2" fill="#942403" fill-rule="evenodd" stroke="none"/>
    <path d="M10.45 -2.55 L8.7 2.25 Q8.7 3.05 9.0 3.2 L9.7 3.35 Q11.45 1.3 12.75 -1.95 L13.25 -1.45 14.6 -0.45 Q15.2 -0.15 15.7 -0.15 16.45 -0.15 16.6 -0.45 L16.7 -1.1 15.05 -2.9 13.85 -4.35 15.15 -4.9 17.0 -5.9 Q18.2 -6.65 18.2 -7.15 L18.05 -8.0 17.85 -7.9 17.0 -8.2 Q16.0 -8.45 15.1 -7.9 L14.8 -7.7 14.15 -7.25 14.2 -8.3 Q14.2 -9.9 13.6 -12.5 L13.4 -13.3 12.9 -15.15 12.95 -15.15 Q13.6 -15.15 13.9 -15.45 L14.4 -15.3 15.45 -15.05 16.75 -14.6 17.45 -14.35 18.05 -14.1 18.8 -12.85 Q19.45 -10.9 20.65 -8.5 21.0 -7.75 21.0 -5.35 21.0 -3.2 19.3 1.8 L17.0 8.5 Q16.25 11.3 15.9 15.15 L15.75 17.0 14.55 17.1 12.5 17.25 11.75 17.3 10.7 17.35 -11.65 18.0 -11.15 18.0 Q-8.85 15.3 -5.1 5.55 0.0 -7.85 0.0 -14.25 L0.0 -15.5 0.8 -16.35 0.55 -16.4 0.95 -16.35 6.7 -15.75 10.75 -15.3 Q10.85 -14.15 11.45 -12.1 12.2 -9.55 12.2 -8.25 L11.9 -6.65 Q9.85 -8.85 8.2 -9.6 L7.9 -9.5 7.7 -8.65 Q7.7 -8.2 9.85 -5.4 L10.0 -5.2 9.9 -5.15 9.45 -5.1 Q6.8 -4.2 5.7 -2.85 L6.25 -2.35 7.45 -2.15 10.3 -2.95 10.45 -2.55 M27.05 -6.65 L28.75 -4.65 28.6 -3.7 28.55 -1.3 29.55 8.55 29.95 10.1 28.9 9.2 27.3 7.9 Q26.65 6.95 25.5 6.55 L24.95 5.85 Q24.3 4.8 23.0 4.25 L23.2 3.65 24.35 0.3 24.85 0.1 25.3 -1.55 25.85 -4.3 26.5 -7.3 27.05 -6.65 M15.9 24.35 L19.75 31.0 21.8 34.4 19.55 34.4 16.2 34.6 15.35 34.65 -12.4 36.1 -15.75 36.2 -14.5 32.2 -13.85 29.7 -13.6 29.55 -13.1 29.3 -13.0 28.15 Q-13.0 27.45 -13.25 27.1 L-13.0 25.7 -8.15 25.4 11.5 24.5 15.3 24.4 15.9 24.35" fill="#731c02" fill-rule="evenodd" stroke="none"/>
  </g>
</svg>
