<?xml version="1.0" encoding="UTF-8" standalone="no"?>
<svg xmlns:ffdec="https://www.free-decompiler.com/flash" xmlns:xlink="http://www.w3.org/1999/xlink" ffdec:objectType="shape" height="77.3px" width="80.0px" xmlns="http://www.w3.org/2000/svg">
  <g transform="matrix(1.0, 0.0, 0.0, 1.0, 23.0, 39.8)">
    <path d="M27.95 -27.1 L31.05 -26.65 Q33.6 -25.9 38.55 -23.75 L38.75 -23.65 39.6 -24.1 39.6 -23.75 Q41.4 -24.5 46.3 -24.5 L46.75 -24.6 Q48.2 -24.85 49.6 -23.4 L49.55 -23.85 Q51.2 -23.55 53.3 -21.5 L54.5 -20.25 55.8 -18.5 Q56.35 -17.35 56.7 -15.25 L57.0 -12.3 Q57.0 -8.4 55.5 -6.1 53.7 -3.45 49.95 -2.5 49.7 -1.35 48.3 0.0 46.25 2.0 43.5 2.0 41.85 2.0 40.5 1.25 L40.45 1.4 40.25 1.5 40.25 1.85 39.5 2.0 Q29.8 -1.8 23.85 -4.6 L24.0 2.55 Q24.0 8.85 23.5 12.1 22.35 19.55 18.9 20.4 L18.75 21.0 18.5 22.5 17.9 22.85 18.0 22.95 19.0 24.05 21.0 25.95 23.0 27.8 24.7 31.1 Q25.9 33.65 27.0 35.3 L26.75 36.05 Q27.15 36.4 26.5 36.5 L26.35 37.2 Q26.15 37.2 26.05 37.5 L14.0 37.5 Q8.75 35.55 -4.25 35.4 -10.85 35.3 -20.9 35.5 L-21.0 35.8 -21.4 35.9 -22.6 36.0 -22.8 35.85 -23.0 34.9 Q-23.0 31.5 -20.1 27.05 L-17.75 22.8 Q-16.5 20.95 -14.95 20.35 L-15.0 19.75 -14.7 17.9 Q-17.4 16.75 -17.75 14.55 -18.1 12.65 -18.1 10.05 L-18.0 5.55 Q-17.85 2.9 -19.65 -3.0 -21.5 -9.1 -21.5 -11.8 L-21.5 -16.75 Q-21.05 -18.4 -17.35 -21.6 -15.2 -23.5 -8.25 -22.15 L-7.75 -22.05 -6.1 -25.6 -4.0 -29.5 Q-1.75 -34.15 3.05 -37.1 11.95 -42.75 20.75 -36.6 23.75 -34.5 26.05 -31.45 28.0 -28.95 28.0 -28.0 L28.0 -27.25 27.95 -27.1 M23.25 -31.6 Q18.85 -36.75 10.65 -36.75 3.75 -36.75 -1.5 -29.95 -4.15 -26.5 -6.15 -21.7 -2.3 -20.85 0.05 -19.75 L6.8 -19.45 13.5 -19.0 Q17.2 -17.95 18.05 -17.25 L19.9 -15.3 20.0 -16.55 Q20.0 -22.65 23.8 -25.75 24.95 -26.65 26.4 -26.95 L25.65 -28.1 Q24.35 -30.4 23.25 -31.6 M12.45 -17.0 L10.5 -17.5 7.65 -17.8 7.3 -17.8 7.2 -17.8 5.05 -17.9 4.85 -17.9 5.05 -17.75 6.1 -16.6 Q7.35 -15.05 8.2 -13.5 L9.25 -14.2 9.45 -14.3 9.6 -14.4 Q11.3 -15.45 12.55 -15.5 L12.8 -15.35 13.0 -14.85 13.0 -14.5 13.0 -14.45 13.0 -14.35 12.95 -14.3 12.95 -14.25 10.9 -12.15 10.3 -11.7 10.25 -11.65 10.2 -11.65 10.2 -11.6 9.7 -11.2 9.1 -10.8 9.2 -10.25 10.1 -9.75 10.4 -9.55 10.5 -9.5 10.85 -9.3 10.85 -9.25 10.9 -9.25 10.9 -9.2 11.5 -8.8 12.05 -8.4 Q14.55 -6.5 15.0 -5.1 L14.9 -4.8 Q14.75 -4.5 14.0 -4.5 L13.75 -4.65 11.75 -5.85 11.5 -6.0 10.35 -6.65 9.85 -6.95 10.0 -6.2 10.5 -4.3 10.3 -3.35 10.35 -3.15 10.0 -3.0 9.5 -3.0 9.3 -3.0 Q8.95 -3.05 8.7 -3.35 L8.05 -4.4 8.0 -4.65 7.7 -6.05 7.4 -8.35 6.4 -8.9 2.75 -6.5 1.8 -6.75 1.65 -6.65 Q1.5 -6.7 1.5 -7.5 L4.2 -10.1 Q0.85 -11.85 -0.7 -12.25 L-1.0 -13.35 1.35 -13.8 Q2.6 -13.75 3.8 -13.0 L5.9 -11.7 6.35 -12.05 4.9 -14.25 Q3.35 -16.65 2.7 -17.9 L2.65 -17.9 -1.5 -18.0 -4.05 -18.45 -10.5 -19.5 -14.1 -19.8 Q-17.55 -19.55 -18.8 -17.0 -19.5 -15.6 -19.5 -11.85 -19.5 -9.3 -17.5 -3.45 -15.65 2.0 -16.0 5.0 -16.3 8.2 -15.6 13.55 -15.4 16.45 -11.75 16.8 L-9.35 16.9 1.75 16.2 1.95 16.2 2.2 16.15 2.9 16.1 9.8 16.1 11.6 16.35 12.5 16.55 12.55 16.55 13.2 16.7 14.65 17.1 15.05 17.25 15.1 17.25 15.85 17.6 16.2 17.8 17.9 18.25 Q21.05 18.25 21.85 10.75 22.25 6.95 22.0 2.6 22.0 -3.05 21.1 -5.8 L21.05 -5.85 21.05 -5.8 21.0 -5.95 21.0 -6.0 19.85 -10.4 Q19.05 -13.35 17.8 -14.6 17.35 -15.05 14.95 -16.05 L12.45 -17.0 M38.8 -20.25 L38.55 -20.65 38.5 -21.05 38.25 -21.2 38.05 -21.55 36.0 -22.5 Q32.95 -24.25 31.35 -24.8 28.55 -25.75 25.3 -23.0 L23.05 -19.6 Q22.0 -17.7 22.0 -16.4 22.0 -14.65 23.0 -14.0 24.9 -12.75 31.15 -12.75 35.55 -12.75 37.5 -14.6 L37.5 -15.25 37.9 -15.35 38.2 -15.4 38.5 -16.0 38.55 -16.05 38.5 -16.9 Q38.5 -17.85 38.8 -18.95 L39.0 -19.6 38.95 -20.2 38.8 -20.25 M41.0 -18.3 L40.9 -16.4 Q40.7 -15.7 39.95 -15.2 L39.95 -15.05 41.1 -13.5 Q42.35 -11.5 43.5 -11.5 44.8 -11.5 45.95 -14.15 L47.0 -16.05 Q45.55 -16.3 43.6 -17.1 42.05 -17.75 41.1 -18.45 L41.0 -18.5 41.0 -18.3 M24.85 -6.8 L29.75 -4.25 Q33.75 -3.25 36.55 -2.15 L37.4 -1.8 36.75 -2.9 Q35.0 -6.15 35.0 -8.05 33.6 -9.5 33.0 -10.55 L31.25 -10.5 Q24.6 -10.5 21.8 -12.4 23.05 -10.05 23.6 -7.3 L24.85 -6.8 M39.55 -11.9 L38.85 -12.65 Q37.6 -11.6 35.75 -11.05 L38.85 -8.3 Q43.5 -4.1 43.75 -4.1 50.7 -4.1 53.5 -7.85 55.0 -9.85 55.0 -12.05 55.0 -15.05 54.05 -17.0 53.25 -18.6 52.0 -19.45 L52.0 -19.5 49.1 -21.05 47.45 -21.35 47.25 -21.5 46.0 -21.5 45.25 -21.7 45.2 -21.75 Q43.2 -21.6 41.95 -20.9 L40.65 -20.2 40.8 -19.85 43.9 -19.55 49.05 -17.75 49.5 -17.0 49.45 -16.85 49.5 -16.3 Q49.5 -14.8 47.3 -11.65 45.15 -8.5 44.25 -8.5 42.75 -8.5 40.4 -11.0 L39.55 -11.9 M47.1 -2.05 L45.25 -2.0 Q42.15 -2.0 37.85 -5.5 L38.25 -4.1 Q39.85 -0.25 43.4 -0.25 46.25 -0.25 47.1 -1.75 L47.3 -2.05 47.1 -2.05 M16.5 20.4 Q15.5 20.25 15.3 19.8 15.0 19.05 13.0 19.0 4.3 18.55 -5.25 18.55 L-13.0 18.5 -13.05 18.5 -13.0 19.6 -13.0 20.55 -2.5 20.5 12.95 21.05 Q15.3 21.35 16.6 21.95 L16.5 20.8 16.5 20.4 M21.1 35.45 L23.9 35.5 Q23.3 34.85 22.85 33.85 L21.3 29.8 Q20.8 28.7 18.45 26.75 16.5 25.15 16.5 23.55 L16.5 23.45 16.0 23.5 13.95 23.5 8.05 23.25 Q4.6 23.05 -10.9 23.0 L-14.0 23.0 -14.3 22.85 -16.0 25.05 Q-18.7 29.1 -20.25 33.5 L-19.85 33.5 -18.95 33.5 -18.85 33.5 -18.8 33.5 -16.8 33.55 -11.85 33.75 12.9 34.6 21.1 35.45" fill="#000000" fill-rule="evenodd" stroke="none"/>
    <path d="M23.25 -31.6 Q24.35 -30.4 25.65 -28.1 L26.4 -26.95 Q24.95 -26.65 23.8 -25.75 20.0 -22.65 20.0 -16.55 L19.9 -15.3 18.05 -17.25 Q17.2 -17.95 13.5 -19.0 L6.8 -19.45 0.05 -19.75 Q-2.3 -20.85 -6.15 -21.7 -4.15 -26.5 -1.5 -29.95 3.75 -36.75 10.65 -36.75 18.85 -36.75 23.25 -31.6 M41.1 -18.45 Q42.05 -17.75 43.6 -17.1 45.55 -16.3 47.0 -16.05 L45.95 -14.15 Q44.8 -11.5 43.5 -11.5 42.35 -11.5 41.1 -13.5 L39.95 -15.05 39.95 -15.2 Q40.7 -15.7 40.9 -16.4 L41.0 -18.3 41.1 -18.45" fill="#794d31" fill-rule="evenodd" stroke="none"/>
    <path d="M38.8 -20.25 L38.95 -20.2 39.0 -19.6 38.8 -18.95 Q38.5 -17.85 38.5 -16.9 L38.55 -16.05 38.5 -16.0 38.2 -15.4 37.9 -15.35 37.5 -15.25 37.5 -14.6 Q35.55 -12.75 31.15 -12.75 24.9 -12.75 23.0 -14.0 22.0 -14.65 22.0 -16.4 22.0 -17.7 23.05 -19.6 L25.3 -23.0 Q28.55 -25.75 31.35 -24.8 32.95 -24.25 36.0 -22.5 L38.05 -21.55 38.25 -21.2 38.5 -21.05 38.55 -20.65 38.8 -20.25 M39.55 -11.9 L40.4 -11.0 Q42.75 -8.5 44.25 -8.5 45.15 -8.5 47.3 -11.65 49.5 -14.8 49.5 -16.3 L49.45 -16.85 49.5 -17.0 49.05 -17.75 43.9 -19.55 40.8 -19.85 40.65 -20.2 41.95 -20.9 Q43.2 -21.6 45.2 -21.75 L45.25 -21.7 46.0 -21.5 47.25 -21.5 47.45 -21.35 49.1 -21.05 52.0 -19.5 52.0 -19.45 Q53.25 -18.6 54.05 -17.0 55.0 -15.05 55.0 -12.05 55.0 -9.85 53.5 -7.85 50.7 -4.1 43.75 -4.1 43.5 -4.1 38.85 -8.3 L35.75 -11.05 Q37.6 -11.6 38.85 -12.65 L39.55 -11.9" fill="#c6b19f" fill-rule="evenodd" stroke="none"/>
    <path d="M16.5 20.4 L16.5 20.8 16.6 21.95 Q15.3 21.35 12.95 21.05 L-2.5 20.5 -13.0 20.55 -13.0 19.6 -13.05 18.5 -13.0 18.5 -5.25 18.55 Q4.3 18.55 13.0 19.0 15.0 19.05 15.3 19.8 15.5 20.25 16.5 20.4" fill="#332d26" fill-rule="evenodd" stroke="none"/>
    <path d="M-14.1 -19.8 L-14.65 -18.35 Q-15.0 -16.95 -15.0 -12.1 -15.0 -7.5 -14.35 -5.35 -14.05 -4.45 -12.35 -1.7 -10.75 0.8 -10.75 1.3 L-11.1 5.35 -11.5 10.75 Q-11.5 13.7 -10.55 16.3 L-10.3 16.9 -9.35 16.9 -11.75 16.8 Q-15.4 16.45 -15.6 13.55 -16.3 8.2 -16.0 5.0 -15.65 2.0 -17.5 -3.45 -19.5 -9.3 -19.5 -11.85 -19.5 -15.6 -18.8 -17.0 -17.55 -19.55 -14.1 -19.8 M15.85 17.6 L16.25 16.5 16.45 14.95 Q16.85 13.55 17.3 12.75 17.85 11.7 17.95 9.85 L18.0 7.25 Q18.0 -2.0 15.95 -8.55 L16.0 -9.15 Q16.0 -11.7 12.6 -16.8 L12.45 -17.0 14.95 -16.05 Q17.35 -15.05 17.8 -14.6 19.05 -13.35 19.85 -10.4 L21.0 -6.0 21.0 -5.95 21.05 -5.8 21.1 -5.8 Q22.0 -3.05 22.0 2.6 22.25 6.95 21.85 10.75 21.05 18.25 17.9 18.25 L16.2 17.8 15.85 17.6 M13.95 23.5 L16.0 23.5 16.5 23.45 16.5 23.55 Q16.5 25.15 18.45 26.75 20.8 28.7 21.3 29.8 L22.85 33.85 Q23.3 34.85 23.9 35.5 L21.1 35.45 20.9 35.1 20.0 32.75 16.6 27.75 13.95 23.5 M-16.8 33.55 L-18.8 33.5 -18.85 33.5 -18.95 33.5 -19.85 33.5 -20.25 33.5 Q-18.7 29.1 -16.0 25.05 L-14.3 22.85 -14.0 23.0 -10.9 23.0 -12.2 25.55 -15.6 30.75 -16.8 33.55" fill="#942403" fill-rule="evenodd" stroke="none"/>
    <path d="M-14.1 -19.8 L-10.5 -19.5 -4.05 -18.45 -1.5 -18.0 2.65 -17.9 2.7 -17.9 Q3.35 -16.65 4.9 -14.25 L6.35 -12.05 5.9 -11.7 3.8 -13.0 Q2.6 -13.75 1.35 -13.8 L-1.0 -13.35 -0.7 -12.25 Q0.85 -11.85 4.2 -10.1 L1.5 -7.5 Q1.5 -6.7 1.65 -6.65 L1.8 -6.75 2.75 -6.5 6.4 -8.9 7.4 -8.35 7.7 -6.05 8.0 -4.65 8.05 -4.4 8.7 -3.35 Q8.95 -3.05 9.3 -3.0 L9.5 -3.0 10.0 -3.0 10.35 -3.15 10.3 -3.35 10.5 -4.3 10.0 -6.2 9.85 -6.95 10.35 -6.65 11.5 -6.0 11.75 -5.85 13.75 -4.65 14.0 -4.5 Q14.75 -4.5 14.9 -4.8 L15.0 -5.1 Q14.55 -6.5 12.05 -8.4 L11.5 -8.8 10.9 -9.2 10.9 -9.25 10.85 -9.25 10.85 -9.3 10.5 -9.5 10.4 -9.55 10.1 -9.75 9.2 -10.25 9.1 -10.8 9.7 -11.2 10.2 -11.6 10.2 -11.65 10.25 -11.65 10.3 -11.7 10.9 -12.15 12.95 -14.25 12.95 -14.3 13.0 -14.35 13.0 -14.45 13.0 -14.5 13.0 -14.85 12.8 -15.35 12.55 -15.5 Q11.3 -15.45 9.6 -14.4 L9.45 -14.3 9.25 -14.2 8.2 -13.5 Q7.35 -15.05 6.1 -16.6 L5.05 -17.75 4.85 -17.9 5.05 -17.9 7.2 -17.8 7.3 -17.8 7.65 -17.8 10.5 -17.5 12.45 -17.0 12.6 -16.8 Q16.0 -11.7 16.0 -9.15 L15.95 -8.55 Q18.0 -2.0 18.0 7.25 L17.95 9.85 Q17.85 11.7 17.3 12.75 16.85 13.55 16.45 14.95 L16.25 16.5 15.85 17.6 15.1 17.25 15.05 17.25 14.65 17.1 13.2 16.7 12.55 16.55 12.5 16.55 11.6 16.35 9.8 16.1 2.9 16.1 2.2 16.15 1.95 16.2 1.75 16.2 -9.35 16.9 -10.3 16.9 -10.55 16.3 Q-11.5 13.7 -11.5 10.75 L-11.1 5.35 -10.75 1.3 Q-10.75 0.8 -12.35 -1.7 -14.05 -4.45 -14.35 -5.35 -15.0 -7.5 -15.0 -12.1 -15.0 -16.95 -14.65 -18.35 L-14.1 -19.8 M24.85 -6.8 L23.6 -7.3 Q23.05 -10.05 21.8 -12.4 24.6 -10.5 31.25 -10.5 L33.0 -10.55 Q33.6 -9.5 35.0 -8.05 35.0 -6.15 36.75 -2.9 L37.4 -1.8 36.55 -2.15 Q33.75 -3.25 29.75 -4.25 L24.85 -6.8 M47.1 -1.75 Q46.25 -0.25 43.4 -0.25 39.85 -0.25 38.25 -4.1 L37.85 -5.5 Q42.15 -2.0 45.25 -2.0 L47.1 -2.05 47.1 -1.75 M13.95 23.5 L16.6 27.75 20.0 32.75 20.9 35.1 21.1 35.45 12.9 34.6 -11.85 33.75 -16.8 33.55 -15.6 30.75 -12.2 25.55 -10.9 23.0 Q4.6 23.05 8.05 23.25 L13.95 23.5" fill="#731c02" fill-rule="evenodd" stroke="none"/>
  </g>
</svg>
