<?xml version="1.0" encoding="UTF-8" standalone="no"?>
<svg xmlns:ffdec="https://www.free-decompiler.com/flash" xmlns:xlink="http://www.w3.org/1999/xlink" ffdec:objectType="shape" height="56.25px" width="61.5px" xmlns="http://www.w3.org/2000/svg">
  <g transform="matrix(1.0, 0.0, 0.0, 1.0, 21.0, 20.5)">
    <path d="M25.4 -15.4 L22.9 -18.05 21.7 -18.8 18.65 -18.2 Q10.95 -16.6 5.55 -13.25 L-1.6 -8.7 -2.05 -8.25 Q-5.05 -5.15 -9.45 0.3 L-11.55 2.9 -11.8 3.2 -13.25 5.95 Q-15.5 10.4 -15.5 11.0 -15.5 12.0 -13.5 15.3 L-10.0 15.25 -9.55 15.25 -8.65 15.3 -7.85 15.3 1.7 16.35 10.15 17.75 17.6 17.2 Q17.75 17.05 18.0 17.0 L18.1 17.1 Q21.3 16.45 22.35 15.45 L22.4 15.4 22.25 15.35 Q22.0 15.2 22.0 14.4 22.0 14.1 22.75 13.5 L5.3 13.0 5.15 12.85 Q5.0 12.65 5.0 11.9 5.0 10.7 7.55 10.55 L22.75 11.3 25.45 11.5 26.55 10.75 28.6 9.35 28.7 9.25 29.5 8.85 33.05 7.3 Q35.65 5.9 37.95 5.65 38.5 5.6 38.5 3.6 38.5 1.1 36.25 -2.8 L34.45 -5.5 31.55 -9.0 30.35 -10.25 28.75 -11.9 28.0 -12.7 25.85 -14.95 25.4 -15.4 M12.75 -19.55 L19.5 -20.25 23.95 -20.5 25.0 -19.7 25.0 -19.55 26.55 -18.25 Q30.8 -12.55 36.7 -6.55 40.5 -2.0 40.5 3.8 40.5 6.05 40.1 6.75 39.15 8.25 35.55 8.75 35.05 8.8 31.4 10.4 L29.7 11.15 29.65 11.2 29.85 11.45 27.5 12.85 Q25.65 13.9 24.45 14.65 L25.0 14.95 Q24.8 16.65 23.75 18.05 22.95 19.05 19.0 19.6 L19.15 21.05 Q20.4 21.45 21.25 22.9 22.1 24.4 22.75 27.3 L25.2 33.15 25.0 35.1 25.0 35.2 24.4 35.75 24.3 35.5 -20.0 35.5 -20.7 35.25 Q-21.0 35.05 -21.0 34.25 L-20.95 33.5 -21.0 33.25 Q-21.0 29.9 -19.85 26.1 -18.55 21.8 -16.45 19.9 L-15.95 17.8 -15.25 16.65 -15.75 16.05 -16.9 13.8 Q-17.5 12.15 -17.5 11.0 -17.5 8.85 -15.0 4.05 -14.95 1.7 -11.15 -2.2 -6.25 -7.2 -5.6 -8.25 L-5.5 -8.4 -5.5 -8.6 -3.85 -10.0 -3.1 -10.65 0.8 -13.25 11.65 -19.2 12.75 -19.55 M-14.0 19.8 L-0.35 20.75 6.15 21.25 16.8 21.0 16.7 19.8 16.6 19.8 10.5 20.0 3.8 19.45 -0.6 18.25 Q-2.6 17.75 -4.5 18.25 -6.6 17.3 -9.25 17.2 -11.75 17.1 -13.6 17.85 -13.4 18.9 -14.0 19.8 M-11.0 22.3 L-12.6 22.25 -15.45 21.95 -17.0 25.3 Q-18.7 29.45 -18.95 33.05 L-13.6 33.05 -0.25 33.0 23.3 33.4 22.25 30.95 Q19.8 25.1 17.25 22.85 L6.5 23.5 0.8 22.95 -11.0 22.3" fill="#000000" fill-rule="evenodd" stroke="none"/>
    <path d="M-14.0 19.8 Q-13.4 18.9 -13.6 17.85 -11.75 17.1 -9.25 17.2 -6.6 17.3 -4.5 18.25 -2.6 17.75 -0.6 18.25 L3.8 19.45 10.5 20.0 16.6 19.8 16.7 19.8 16.8 21.0 6.15 21.25 -0.35 20.75 -14.0 19.8" fill="#332d26" fill-rule="evenodd" stroke="none"/>
    <path d="M25.4 -15.4 L24.85 -15.4 22.0 -15.25 Q15.95 -15.1 9.1 -10.75 6.75 -9.95 4.25 -7.75 L0.25 -3.85 Q-3.85 0.1 -6.75 4.95 -10.0 10.25 -10.0 13.75 L-10.0 15.25 -13.5 15.3 Q-15.5 12.0 -15.5 11.0 -15.5 10.4 -13.25 5.95 L-11.8 3.2 -11.55 2.9 -9.45 0.3 Q-5.05 -5.15 -2.05 -8.25 L-1.6 -8.7 5.55 -13.25 Q10.95 -16.6 18.65 -18.2 L21.7 -18.8 22.9 -18.05 25.4 -15.4 M22.35 15.45 L22.25 15.35 22.4 15.4 22.35 15.45 M-13.6 33.05 L-18.95 33.05 Q-18.7 29.45 -17.0 25.3 L-15.45 21.95 -12.6 22.25 -11.0 22.3 -11.7 25.2 -13.5 29.3 -13.6 32.95 -13.6 33.05" fill="#942403" fill-rule="evenodd" stroke="none"/>
    <path d="M-10.0 15.25 L-10.0 13.75 Q-10.0 10.25 -6.75 4.95 -3.85 0.1 0.25 -3.85 L4.25 -7.75 Q6.75 -9.95 9.1 -10.75 15.95 -15.1 22.0 -15.25 L24.85 -15.4 25.4 -15.4 25.85 -14.95 28.0 -12.7 28.75 -11.9 30.35 -10.25 31.55 -9.0 34.45 -5.5 36.25 -2.8 Q38.5 1.1 38.5 3.6 38.5 5.6 37.95 5.65 35.65 5.9 33.05 7.3 L29.5 8.85 28.7 9.25 28.6 9.35 26.55 10.75 25.45 11.5 22.75 11.3 7.55 10.55 Q5.0 10.7 5.0 11.9 5.0 12.65 5.15 12.85 L5.3 13.0 22.75 13.5 Q22.0 14.1 22.0 14.4 22.0 15.2 22.25 15.35 L22.35 15.45 Q21.3 16.45 18.1 17.1 L18.0 17.0 Q17.75 17.05 17.6 17.2 L10.15 17.75 1.7 16.35 -7.85 15.3 -8.65 15.3 -9.55 15.25 -10.0 15.25 M-11.0 22.3 L0.8 22.95 6.5 23.5 17.25 22.85 Q19.8 25.1 22.25 30.95 L23.3 33.4 -0.25 33.0 -13.6 33.05 -13.6 32.95 -13.5 29.3 -11.7 25.2 -11.0 22.3" fill="#731c02" fill-rule="evenodd" stroke="none"/>
  </g>
</svg>
