<?xml version="1.0" encoding="UTF-8" standalone="no"?>
<svg xmlns:ffdec="https://www.free-decompiler.com/flash" xmlns:xlink="http://www.w3.org/1999/xlink" ffdec:objectType="shape" height="143.85px" width="77.5px" xmlns="http://www.w3.org/2000/svg">
  <g transform="matrix(1.0, 0.0, 0.0, 1.0, -24.5, 141.35)">
    <path d="M58.45 -133.5 L65.3 -130.5 Q66.75 -129.0 68.3 -127.85 76.45 -121.85 83.0 -109.85 L87.65 -101.6 90.0 -95.5 91.5 -92.45 91.75 -91.35 Q92.65 -87.15 96.2 -77.35 L96.5 -75.5 99.1 -61.0 Q100.6 -52.4 101.0 -46.7 101.15 -44.65 101.95 -40.3 L102.0 -32.75 Q102.0 -28.5 101.0 -14.5 L100.5 -5.0 Q99.7 2.5 97.25 2.5 L95.75 2.25 95.65 1.8 Q95.5 1.5 95.5 0.75 L95.65 -0.05 Q93.6 -2.4 91.65 -9.9 L87.0 -27.0 Q86.45 -28.3 84.8 -34.05 83.45 -38.7 82.0 -41.25 L76.9 -49.1 73.25 -54.65 72.75 -54.75 72.65 -55.2 Q72.5 -55.5 72.5 -56.25 L73.25 -58.65 Q74.0 -61.0 74.0 -62.6 L74.0 -68.8 73.85 -75.8 74.0 -78.75 Q74.0 -82.3 73.3 -87.0 L71.75 -96.0 70.9 -98.25 Q69.75 -103.65 66.35 -109.65 64.75 -113.95 60.95 -119.1 L58.35 -122.4 58.1 -122.8 Q53.45 -128.55 45.05 -133.0 43.1 -134.0 37.65 -135.95 31.65 -138.15 28.0 -139.0 L24.55 -139.65 24.5 -139.85 24.7 -140.95 25.05 -141.25 Q25.45 -141.45 36.35 -141.3 L44.8 -138.5 Q51.7 -136.25 58.45 -133.5" fill="#60606c" fill-opacity="0.49803922" fill-rule="evenodd" stroke="none"/>
  </g>
</svg>
