<?xml version="1.0" encoding="UTF-8" standalone="no"?>
<svg xmlns:ffdec="https://www.free-decompiler.com/flash" xmlns:xlink="http://www.w3.org/1999/xlink" ffdec:objectType="shape" height="55.85px" width="150.0px" xmlns="http://www.w3.org/2000/svg">
  <g transform="matrix(1.0, 0.0, 0.0, 1.0, 75.0, 27.9)">
    <path d="M14.8 -26.55 Q18.0 -24.45 18.0 -20.8 L17.95 -20.05 18.0 -20.05 Q19.5 -19.4 20.6 -18.55 L21.45 -17.9 21.4 -18.15 21.35 -18.35 21.7 -18.1 Q22.0 -20.05 22.5 -20.75 24.95 -24.25 27.45 -22.85 L28.15 -22.35 28.1 -22.25 31.6 -20.75 32.25 -20.15 Q33.05 -19.95 33.55 -19.25 L34.65 -17.85 41.55 -17.3 41.7 -17.35 42.2 -17.75 42.3 -17.55 42.7 -17.7 58.35 -17.0 60.3 -15.7 61.7 -14.2 Q62.5 -13.0 63.15 -10.85 L64.2 -7.45 65.75 -3.85 Q67.05 -1.35 68.6 -0.25 L70.7 0.5 Q72.9 1.3 73.6 1.8 L73.7 5.0 Q73.7 8.15 73.35 8.6 L70.5 11.2 70.5 11.95 72.85 11.65 Q74.75 13.4 75.0 15.2 L75.0 19.6 74.9 23.65 Q74.65 26.05 73.5 26.95 L63.8 26.95 63.65 26.7 63.6 26.5 Q52.6 26.6 39.9 27.05 L22.0 27.45 13.85 27.5 12.75 27.95 11.3 27.7 Q11.1 27.95 11.05 27.5 -1.35 27.6 -8.5 27.95 L-28.7 26.7 Q-32.5 26.6 -41.6 27.0 L-50.75 27.45 -55.9 27.1 Q-60.7 26.8 -63.1 26.95 L-63.15 26.9 -63.75 26.95 -65.2 26.6 Q-65.35 26.5 -66.2 25.95 -70.95 25.85 -73.0 23.95 -75.0 22.1 -75.0 17.95 -75.0 12.2 -70.1 9.7 L-67.85 8.25 -65.6 6.7 Q-61.35 3.9 -57.4 3.9 L-47.2 4.45 -46.25 2.25 Q-45.7 1.0 -43.35 -1.2 L-40.6 -4.0 -39.5 -6.95 -38.2 -10.3 Q-36.3 -13.5 -33.15 -16.7 -29.6 -20.25 -26.45 -21.75 -15.7 -26.8 -4.7 -24.05 -4.3 -24.6 -3.4 -24.85 L7.0 -27.3 Q11.4 -28.75 14.8 -26.55 M11.75 25.45 L12.5 25.4 12.75 25.15 Q14.65 23.55 16.55 22.65 L17.0 21.15 17.0 21.0 Q17.0 20.0 17.9 18.35 L19.0 16.2 Q19.5 14.3 19.8 10.9 L20.0 6.8 Q20.0 0.4 16.75 -2.65 L16.5 -2.85 16.5 -2.75 16.35 -2.65 15.7 -3.9 15.2 -4.4 14.2 -5.05 14.0 -6.0 13.05 -10.55 Q12.6 -12.3 12.25 -15.15 L12.0 -18.7 12.2 -20.15 13.15 -20.95 13.15 -21.0 13.3 -21.0 15.5 -21.3 Q15.0 -23.35 14.35 -24.1 13.3 -25.3 9.65 -25.3 5.15 -25.3 1.35 -24.0 L-1.85 -22.65 -2.45 -22.2 -2.65 -22.0 -4.75 -21.55 -4.8 -21.5 -12.35 -21.8 -23.6 -20.95 Q-27.45 -19.7 -32.7 -13.8 -34.6 -11.7 -35.95 -8.9 L-36.0 -8.8 -36.05 -8.7 -36.8 -7.0 -37.1 -6.3 -38.0 -4.05 -39.3 -2.2 -39.5 -1.95 -41.4 0.15 -41.8 0.55 Q-44.95 3.85 -45.35 5.7 L-46.7 10.95 Q-47.0 12.3 -47.0 15.35 -47.0 19.05 -46.65 20.0 L-46.6 20.1 -46.6 20.15 -46.55 20.25 -44.75 22.3 -44.45 22.5 -43.9 22.8 -41.35 23.7 -41.25 23.9 -41.2 23.9 Q-40.55 23.2 -39.25 23.25 -37.6 23.35 -35.45 24.55 -28.3 24.45 -22.1 24.8 L-8.35 25.7 11.75 25.45 M14.0 -18.8 L14.95 -12.6 Q15.5 -8.9 16.5 -6.5 L16.5 -6.35 19.8 -2.4 20.45 -5.85 20.85 -8.15 20.45 -8.65 Q21.5 -10.75 21.5 -15.05 L21.5 -15.6 Q20.4 -15.85 18.7 -17.0 L15.8 -18.8 14.0 -18.8 M40.6 -10.95 L40.55 -11.45 40.55 -11.6 Q40.45 -13.45 40.65 -14.75 L36.2 -15.35 35.45 -15.25 Q34.1 -15.25 33.1 -16.2 L32.2 -17.2 30.95 -18.15 29.8 -18.95 29.8 -19.15 27.85 -19.9 27.35 -20.05 26.5 -20.45 24.5 -20.3 24.5 -20.25 24.1 -17.85 24.1 -17.8 23.65 -15.0 23.6 -14.7 23.55 -14.55 23.3 -12.75 23.2 -11.9 23.0 -8.95 23.0 -8.9 23.0 -8.75 Q23.05 -7.65 22.6 -5.9 L22.0 -3.05 22.0 -0.3 21.75 0.8 22.0 6.7 21.75 11.15 21.15 16.35 21.15 16.55 21.35 16.35 Q27.85 11.6 38.5 12.2 38.5 11.95 41.1 12.2 L42.15 12.35 Q41.4 9.75 41.2 4.4 L41.2 -3.1 41.0 -5.5 40.6 -10.95 M26.3 -10.2 L34.1 -9.65 Q35.65 -9.25 37.7 -8.25 37.65 -7.95 36.4 -7.95 L34.3 -8.3 31.85 -8.95 25.8 -9.75 Q25.9 -10.2 26.3 -10.2 M36.7 -3.2 L31.55 -2.05 Q26.3 -0.65 25.3 0.75 24.55 0.55 24.3 0.25 24.5 -0.95 28.9 -2.5 33.7 -4.15 37.7 -3.75 L37.7 -3.1 36.7 -3.2 M67.2 12.15 L67.2 12.0 Q67.2 11.3 68.15 9.9 L69.85 7.75 71.45 6.3 71.7 4.9 Q71.7 3.8 69.75 3.35 67.1 2.8 65.2 -0.25 64.55 -1.25 63.85 -3.05 L62.6 -5.95 60.2 -11.95 59.2 -13.25 57.7 -14.75 52.0 -15.35 50.2 -15.45 43.6 -15.5 43.55 -15.4 43.5 -15.1 43.1 -14.75 43.35 -11.25 43.35 -11.0 43.3 -6.25 43.2 -3.7 43.35 3.3 Q43.4 7.75 43.7 10.55 L43.7 12.75 44.0 12.95 44.0 13.5 52.5 13.2 53.55 13.0 59.5 12.95 62.6 12.75 64.25 12.6 66.0 12.45 66.3 12.4 66.75 12.4 67.2 12.35 67.25 12.35 67.2 12.15 M65.05 24.7 L72.5 24.7 Q73.0 23.2 73.0 19.55 73.0 16.0 72.5 14.2 L69.05 14.2 61.7 15.45 61.2 19.95 Q60.8 22.6 60.7 24.45 L64.55 24.45 64.8 24.6 64.85 24.65 65.05 24.7 M49.35 15.65 Q49.8 17.05 49.75 19.35 49.65 23.2 50.15 24.45 L58.95 24.45 Q58.7 23.35 58.7 21.6 58.7 18.55 58.85 17.9 L59.65 15.45 51.7 15.45 50.35 15.55 49.35 15.65 M44.0 15.8 L44.0 24.45 47.7 24.45 47.7 15.75 44.75 15.95 44.0 15.8 M19.05 25.3 L42.45 24.45 Q41.85 22.55 41.9 19.8 42.15 15.65 42.0 14.0 30.8 14.8 26.3 16.35 19.05 18.85 19.0 24.95 L18.75 25.3 19.05 25.3 M36.2 3.75 Q33.8 4.7 29.7 7.5 L25.05 10.55 Q24.8 11.1 24.8 9.85 24.8 8.65 28.9 6.25 31.7 4.6 34.7 3.25 L35.35 3.35 Q36.05 3.45 36.2 3.75 M-48.0 6.5 L-55.85 6.7 -54.75 8.0 -54.0 7.95 -53.25 8.15 Q-53.1 8.2 -53.05 8.5 -51.6 8.3 -48.7 8.45 L-48.0 6.5 M-55.0 16.2 Q-55.0 9.55 -57.8 7.65 -60.15 6.1 -64.0 8.0 -67.3 9.6 -70.2 12.85 -73.0 15.95 -73.0 17.8 -73.0 18.95 -72.65 19.75 L-71.6 21.45 -70.6 22.9 Q-69.45 23.7 -65.75 23.7 -58.85 23.7 -56.25 20.25 -55.0 18.55 -55.0 16.2 M-55.0 22.45 L-55.1 22.45 Q-56.55 24.15 -59.05 25.0 L-45.6 24.5 -47.0 23.35 -48.65 21.55 -52.6 22.05 -55.0 22.45 M-44.95 24.85 L-45.5 24.55 -47.0 24.95 -44.95 24.85" fill="#000000" fill-rule="evenodd" stroke="none"/>
    <path d="M11.75 25.45 L14.0 21.5 Q17.0 16.2 17.0 13.0 17.0 9.5 15.8 5.55 14.4 1.05 12.0 -1.55 10.65 -3.0 10.55 -5.4 10.7 -7.9 10.5 -8.75 L9.8 -12.65 9.5 -15.9 9.75 -18.7 Q10.15 -21.45 11.0 -22.25 L11.0 -22.5 Q6.15 -22.3 2.55 -20.85 -0.8 -19.25 -2.7 -18.8 L-5.7 -18.5 -12.9 -18.8 Q-20.8 -18.8 -25.65 -15.65 -28.15 -14.05 -29.5 -11.8 -30.15 -10.85 -32.35 -8.3 -34.1 -6.0 -34.0 -4.75 -33.6 -1.2 -35.35 0.25 -36.35 1.05 -38.7 2.2 -39.4 2.75 -41.35 5.95 -41.9 6.7 -41.75 7.7 L-41.5 9.3 Q-41.5 10.05 -42.15 12.3 -42.85 14.75 -43.0 16.75 L-42.8 20.35 Q-42.95 21.8 -43.85 22.8 L-44.45 22.5 -44.75 22.3 -46.55 20.25 -46.6 20.15 -46.6 20.1 -46.65 20.0 Q-47.0 19.05 -47.0 15.35 -47.0 12.3 -46.7 10.95 L-45.35 5.7 Q-44.95 3.85 -41.8 0.55 L-41.4 0.15 -39.5 -1.95 -39.3 -2.2 -39.15 -2.35 -37.0 -3.75 -37.1 -6.3 -36.8 -7.0 -36.05 -8.7 -36.0 -8.8 -35.95 -8.9 Q-34.6 -11.7 -32.7 -13.8 -27.45 -19.7 -23.6 -20.95 L-12.35 -21.8 -4.8 -21.5 -4.75 -21.55 -2.65 -22.0 -2.45 -22.2 -1.85 -22.65 1.35 -24.0 Q5.15 -25.3 9.65 -25.3 13.3 -25.3 14.35 -24.1 15.0 -23.35 15.5 -21.3 L13.3 -21.0 13.15 -21.0 13.15 -20.95 12.2 -20.15 12.0 -18.7 12.25 -15.15 Q12.6 -12.3 13.05 -10.55 L14.0 -6.0 14.05 -5.55 Q14.1 -4.85 14.25 -4.8 L15.2 -4.4 15.7 -3.9 16.35 -2.65 16.5 -2.75 16.75 -2.65 Q20.0 0.4 20.0 6.8 L19.8 10.9 Q19.5 14.3 19.0 16.2 L17.9 18.35 Q17.0 20.0 17.0 21.0 L17.0 21.15 16.55 22.65 Q14.65 23.55 12.75 25.15 L12.5 25.4 11.75 25.45" fill="#766463" fill-rule="evenodd" stroke="none"/>
    <path d="M-43.85 22.8 Q-42.95 21.8 -42.8 20.35 L-43.0 16.75 Q-42.85 14.75 -42.15 12.3 -41.5 10.05 -41.5 9.3 L-41.75 7.7 Q-41.9 6.7 -41.35 5.95 -39.4 2.75 -38.7 2.2 -36.35 1.05 -35.35 0.25 -33.6 -1.2 -34.0 -4.75 -34.1 -6.0 -32.35 -8.3 -30.15 -10.85 -29.5 -11.8 -28.15 -14.05 -25.65 -15.65 -20.8 -18.8 -12.9 -18.8 L-5.7 -18.5 -2.7 -18.8 Q-0.8 -19.25 2.55 -20.85 6.15 -22.3 11.0 -22.5 L11.0 -22.25 Q10.15 -21.45 9.75 -18.7 L9.5 -15.9 9.8 -12.65 10.5 -8.75 Q10.7 -7.9 10.55 -5.4 10.65 -3.0 12.0 -1.55 14.4 1.05 15.8 5.55 17.0 9.5 17.0 13.0 17.0 16.2 14.0 21.5 L11.75 25.45 -8.35 25.7 -22.1 24.8 Q-28.3 24.45 -35.45 24.55 -37.6 23.35 -39.25 23.25 -40.55 23.2 -41.2 23.9 L-41.35 23.7 -43.9 22.8 -43.85 22.8" fill="#544847" fill-rule="evenodd" stroke="none"/>
    <path d="M15.2 -4.4 L14.25 -4.8 Q14.1 -4.85 14.05 -5.55 L14.0 -6.0 14.2 -5.05 15.2 -4.4 M-37.1 -6.3 L-37.0 -3.75 -39.15 -2.35 -39.3 -2.2 -38.0 -4.05 -37.1 -6.3 M-44.45 22.5 L-43.85 22.8 -43.9 22.8 -44.45 22.5 M-41.35 23.7 L-41.2 23.9 -41.25 23.9 -41.35 23.7" fill="#6a442b" fill-rule="evenodd" stroke="none"/>
    <path d="M24.1 -17.8 L24.1 -17.85 24.5 -20.25 24.5 -20.3 26.5 -20.45 27.35 -20.05 27.85 -19.9 29.8 -19.15 29.8 -18.95 30.95 -18.15 32.2 -17.2 33.1 -16.2 Q34.1 -15.25 35.45 -15.25 L36.2 -15.35 40.65 -14.75 Q40.45 -13.45 40.55 -11.6 L40.55 -11.45 40.6 -10.95 38.2 -10.75 32.75 -12.1 Q27.05 -13.8 25.1 -15.75 24.75 -16.1 24.1 -17.8 M50.2 -15.45 L52.0 -15.35 57.7 -14.75 59.2 -13.25 60.2 -11.95 62.6 -5.95 63.85 -3.05 Q64.55 -1.25 65.2 -0.25 67.1 2.8 69.75 3.35 71.7 3.8 71.7 4.9 L71.45 6.3 69.85 7.75 68.15 9.9 Q67.2 11.3 67.2 12.0 L67.2 12.15 65.7 12.25 64.2 12.1 64.25 12.6 62.6 12.75 62.2 12.35 Q62.2 10.2 64.6 8.2 66.95 6.25 66.95 5.8 66.95 4.65 65.45 3.6 L62.2 1.3 Q61.4 0.55 61.3 -1.15 61.15 -3.1 60.85 -3.5 59.9 -6.45 58.5 -8.4 55.9 -12.0 49.7 -12.0 L43.95 -11.35 43.35 -11.25 43.1 -14.75 43.5 -15.1 43.55 -15.4 50.2 -15.45" fill="#4b4238" fill-rule="evenodd" stroke="none"/>
    <path d="M24.1 -17.8 Q24.75 -16.1 25.1 -15.75 27.05 -13.8 32.75 -12.1 L38.2 -10.75 40.6 -10.95 41.0 -5.5 41.2 -3.1 41.2 4.4 Q41.4 9.75 42.15 12.35 L41.1 12.2 Q38.5 11.95 38.5 12.2 27.85 11.6 21.35 16.35 L21.15 16.35 21.75 11.15 22.0 6.7 21.75 0.8 22.0 -0.3 22.0 -3.05 22.6 -5.9 Q23.05 -7.65 23.0 -8.75 L23.0 -8.9 23.0 -8.95 23.2 -11.9 23.3 -12.75 23.55 -14.55 23.6 -14.7 23.65 -15.0 24.1 -17.8 M36.7 -3.2 L37.7 -3.1 37.7 -3.75 Q33.7 -4.15 28.9 -2.5 24.5 -0.95 24.3 0.25 24.55 0.55 25.3 0.75 26.3 -0.65 31.55 -2.05 L36.7 -3.2 M26.3 -10.2 Q25.9 -10.2 25.8 -9.75 L31.85 -8.95 34.3 -8.3 36.4 -7.95 Q37.65 -7.95 37.7 -8.25 35.65 -9.25 34.1 -9.65 L26.3 -10.2 M50.2 -15.45 L43.55 -15.4 43.6 -15.5 50.2 -15.45 M43.35 -11.25 L43.95 -11.35 49.7 -12.0 Q55.9 -12.0 58.5 -8.4 59.9 -6.45 60.85 -3.5 61.15 -3.1 61.3 -1.15 61.4 0.55 62.2 1.3 L65.45 3.6 Q66.95 4.65 66.95 5.8 66.95 6.25 64.6 8.2 62.2 10.2 62.2 12.35 L62.6 12.75 59.5 12.95 53.55 13.0 52.5 13.2 44.0 13.5 44.0 12.95 43.7 12.75 43.7 10.55 Q43.4 7.75 43.35 3.3 L43.2 -3.7 43.3 -6.25 43.35 -11.0 43.35 -11.25 M49.35 15.65 L50.35 15.55 51.7 15.45 59.65 15.45 58.85 17.9 Q58.7 18.55 58.7 21.6 58.7 23.35 58.95 24.45 L50.15 24.45 Q49.65 23.2 49.75 19.35 49.8 17.05 49.35 15.65 M36.2 3.75 Q36.05 3.45 35.35 3.35 L34.7 3.25 Q31.7 4.6 28.9 6.25 24.8 8.65 24.8 9.85 24.8 11.1 25.05 10.55 L29.7 7.5 Q33.8 4.7 36.2 3.75" fill="#332d26" fill-rule="evenodd" stroke="none"/>
    <path d="M-48.0 6.5 L-48.7 8.45 Q-51.6 8.3 -53.05 8.5 -53.1 8.2 -53.25 8.15 L-54.0 7.95 -54.75 8.0 -55.85 6.7 -48.0 6.5 M-55.0 22.45 L-52.6 22.05 -48.65 21.55 -47.0 23.35 -45.6 24.5 -59.05 25.0 Q-56.55 24.15 -55.1 22.45 L-55.0 22.45" fill="#372c22" fill-rule="evenodd" stroke="none"/>
    <path d="M-55.0 16.2 Q-55.0 18.55 -56.25 20.25 -58.85 23.7 -65.75 23.7 -69.45 23.7 -70.6 22.9 L-71.6 21.45 -72.65 19.75 Q-73.0 18.95 -73.0 17.8 -73.0 15.95 -70.2 12.85 -67.3 9.6 -64.0 8.0 -60.15 6.1 -57.8 7.65 -55.0 9.55 -55.0 16.2" fill="#211b14" fill-rule="evenodd" stroke="none"/>
    <path d="M64.25 12.6 L64.2 12.1 65.7 12.25 67.2 12.15 67.25 12.35 67.2 12.35 66.75 12.4 66.3 12.4 66.0 12.45 64.25 12.6" fill="#695441" fill-rule="evenodd" stroke="none"/>
    <path d="M65.05 24.7 L64.85 24.65 64.8 24.6 64.55 24.45 60.7 24.45 Q60.8 22.6 61.2 19.95 L61.7 15.45 69.05 14.2 72.5 14.2 Q73.0 16.0 73.0 19.55 73.0 23.2 72.5 24.7 L65.05 24.7 M44.0 15.8 L44.75 15.95 47.7 15.75 47.7 24.45 44.0 24.45 44.0 15.8" fill="#cdac98" fill-rule="evenodd" stroke="none"/>
    <path d="M14.0 -18.8 L15.8 -18.8 18.7 -17.0 Q20.4 -15.85 21.5 -15.6 L21.5 -15.05 Q21.5 -10.75 20.45 -8.65 L20.85 -8.15 20.45 -5.85 19.8 -2.4 16.5 -6.35 16.5 -6.5 Q15.5 -8.9 14.95 -12.6 L14.0 -18.8 M19.0 24.95 Q19.05 18.85 26.3 16.35 30.8 14.8 42.0 14.0 42.15 15.65 41.9 19.8 41.85 22.55 42.45 24.45 L19.05 25.3 19.0 24.95" fill="#023f60" fill-rule="evenodd" stroke="none"/>
  </g>
</svg>
