<?xml version="1.0" encoding="UTF-8" standalone="no"?>
<svg xmlns:ffdec="https://www.free-decompiler.com/flash" xmlns:xlink="http://www.w3.org/1999/xlink" ffdec:objectType="shape" height="76.1px" width="92.05px" xmlns="http://www.w3.org/2000/svg">
  <g transform="matrix(1.0, 0.0, 0.0, 1.0, 46.0, 38.05)">
    <path d="M2.45 -26.0 L6.45 -25.95 7.35 -25.75 9.85 -24.45 15.25 -21.35 Q16.2 -21.75 17.85 -20.4 L21.05 -16.95 Q21.6 -15.1 25.55 -9.9 L29.8 -3.15 32.75 2.6 33.4 3.2 33.75 3.25 Q34.0 3.35 34.05 3.95 L35.7 6.3 39.05 12.05 42.7 16.9 Q46.05 21.4 46.05 22.65 46.05 23.8 45.85 23.65 46.25 24.05 45.05 24.05 L43.45 25.85 42.35 27.3 Q39.35 31.05 36.55 31.05 L36.35 31.05 34.8 31.55 34.65 31.5 34.05 31.55 33.7 31.4 Q32.75 30.7 30.3 27.5 27.4 23.6 26.55 21.85 L24.05 17.45 Q22.7 14.95 22.3 13.65 19.25 15.55 18.05 15.55 L16.35 15.3 Q16.15 15.6 16.1 15.0 14.5 14.5 12.55 10.8 L11.45 8.6 11.3 10.15 11.1 13.45 Q12.75 13.35 13.75 14.85 15.15 18.15 15.95 19.1 L19.35 23.15 Q20.45 24.55 20.45 26.2 L20.3 27.15 20.1 27.3 20.25 27.45 19.95 27.55 19.95 27.65 19.9 28.5 19.7 28.85 Q20.55 30.95 21.55 35.45 L21.55 36.2 21.35 36.6 21.4 36.85 20.55 37.05 20.4 37.25 Q20.2 37.25 20.1 37.55 L-7.2 38.05 -19.7 37.85 -31.45 37.35 -31.45 35.45 -31.45 34.55 -32.2 34.55 Q-42.0 34.55 -44.95 29.1 -45.9 27.4 -46.0 25.35 L-45.95 23.65 Q-45.95 19.15 -42.45 5.65 L-42.45 5.45 Q-42.45 4.35 -41.0 -0.4 L-39.45 -5.7 -38.45 -11.45 Q-37.9 -14.7 -36.95 -16.95 -36.1 -19.0 -35.35 -22.95 L-34.15 -29.55 Q-32.4 -37.15 -27.95 -37.95 L-27.95 -38.05 -18.85 -37.55 Q-6.95 -36.45 -6.95 -32.15 L-7.35 -29.5 -7.85 -26.9 -6.45 -26.95 -6.35 -27.2 -4.35 -27.0 -3.95 -26.95 -4.0 -26.9 2.45 -26.0 M13.45 -5.4 Q15.45 -10.1 15.45 -13.6 L15.5 -13.75 15.55 -14.05 15.6 -14.7 Q15.25 -15.35 14.85 -16.3 L14.35 -17.5 13.35 -20.0 13.15 -20.2 13.0 -20.35 12.9 -20.4 12.0 -21.0 11.65 -21.2 11.3 -21.4 10.55 -21.75 10.3 -21.9 9.7 -22.15 9.0 -22.4 8.35 -22.65 7.7 -22.85 7.6 -22.85 7.5 -22.9 7.1 -23.0 6.65 -23.1 6.15 -23.25 Q5.85 -22.95 5.2 -22.95 L5.15 -22.95 5.35 -22.3 4.05 -22.45 3.1 -22.35 3.0 -23.1 1.75 -23.25 2.9 -22.25 Q5.85 -19.5 8.65 -14.65 L10.6 -11.0 13.2 -5.3 13.3 -5.05 13.45 -5.4 M17.9 -16.05 L18.5 -13.8 18.1 -12.1 17.55 -9.35 17.1 -7.7 16.6 -7.5 15.45 -4.15 15.25 -3.55 15.3 -3.5 Q14.3 -1.7 14.1 0.35 L13.95 1.25 14.05 2.05 13.75 3.55 13.3 5.05 12.45 6.0 13.25 6.9 14.55 9.05 16.05 11.25 17.5 13.65 19.4 12.6 Q23.35 10.4 25.6 8.55 L29.65 5.65 31.85 4.1 Q29.3 0.6 23.7 -8.7 20.1 -14.65 17.2 -18.05 L17.9 -16.05 M8.65 4.3 L11.1 4.05 11.55 3.3 11.55 3.15 Q11.4 2.5 11.55 2.1 L11.85 1.5 12.0 -0.2 12.25 -1.6 Q11.2 -2.8 9.85 -6.15 L9.35 -7.4 7.05 -12.9 1.65 -20.05 Q-1.9 -24.35 -3.65 -23.45 L-3.8 -23.7 -3.85 -23.85 -6.8 -24.15 -7.15 -24.2 -7.3 -24.2 -8.45 -24.2 -10.05 -24.1 -11.75 -23.95 -12.35 -23.9 -11.95 -23.7 Q-9.6 -22.55 -6.85 -19.0 L-1.2 -11.15 3.35 -3.5 Q5.1 -0.45 6.8 1.75 L8.55 3.85 8.45 4.3 8.65 4.3 M42.8 22.4 Q41.0 20.4 38.3 15.85 L36.55 17.05 34.1 19.3 32.0 21.0 29.7 22.9 34.65 29.45 35.8 28.55 36.05 28.55 37.2 28.25 37.25 28.25 37.35 28.3 37.95 27.95 39.8 25.9 42.2 23.6 42.4 23.1 42.8 22.4 M37.05 13.75 L32.85 5.75 27.1 10.3 23.9 12.6 25.3 15.55 Q26.85 18.95 28.05 20.6 L28.65 21.4 28.8 21.0 Q29.5 19.6 32.45 17.3 35.25 15.05 37.35 14.45 L37.4 14.4 37.05 13.75 M5.4 4.45 L6.0 4.45 5.8 4.25 Q4.35 2.85 2.4 -0.8 L-2.2 -9.4 Q-7.3 -16.45 -11.1 -20.65 L-13.45 -23.15 -13.45 -23.25 -13.45 -23.65 -13.75 -23.55 -14.6 -23.05 -14.85 -22.8 Q-15.75 -22.1 -16.9 -21.95 L-16.95 -21.95 Q-20.95 -19.75 -22.65 -16.15 -25.95 -9.3 -26.55 -6.4 -27.3 -2.9 -27.5 2.1 -26.65 2.15 -26.65 2.5 L-26.5 3.25 -26.3 3.45 Q-25.15 4.15 -19.75 4.5 L-6.05 4.8 5.4 4.45 M9.0 7.35 L9.15 6.75 9.05 6.75 -5.95 7.05 -23.95 6.35 -24.15 6.35 -24.0 7.2 -23.95 9.8 -24.05 13.75 -24.35 15.85 -18.4 15.2 -9.05 14.55 7.55 13.9 7.55 13.7 8.7 13.8 9.15 13.8 9.1 13.75 8.95 13.0 9.1 13.0 9.05 10.55 Q8.85 8.45 9.0 7.35 M6.3 16.65 L4.7 16.7 3.75 16.7 -15.9 17.6 -18.9 17.8 -19.4 17.8 -20.45 17.9 -20.75 17.9 -23.3 18.05 -25.3 17.85 -26.15 20.1 -27.55 23.85 -28.1 27.25 -28.65 28.5 -26.75 28.45 -23.65 28.4 -23.5 28.4 -23.45 28.4 -22.45 28.4 -21.45 28.35 -20.15 28.3 7.6 26.85 8.45 26.8 9.55 26.65 10.05 26.65 11.8 26.6 12.7 26.6 14.05 26.6 16.95 26.55 17.05 26.55 17.8 26.55 18.25 26.55 17.1 24.75 Q15.35 21.6 14.85 21.3 L12.85 18.15 Q11.95 16.75 10.8 16.5 L9.45 16.55 9.15 16.45 8.45 16.55 8.15 16.55 7.55 16.6 6.3 16.65 M13.95 35.65 L16.55 35.55 19.35 35.55 18.55 33.3 Q17.55 30.05 17.55 29.4 L17.6 28.85 13.45 28.8 12.5 28.85 9.1 29.1 7.9 29.2 6.75 29.25 -9.55 30.05 -23.4 30.05 -28.45 30.05 -28.45 30.55 -28.45 30.85 -28.45 31.05 -28.45 31.1 Q-28.6 32.8 -29.45 35.85 L-23.5 35.85 13.95 35.65 M-30.95 31.0 L-30.95 30.95 -30.9 30.5 -30.7 30.1 -30.4 30.1 -30.35 30.05 -30.65 30.05 -30.7 30.0 -31.25 29.8 Q-31.55 29.6 -31.55 28.8 -31.55 27.5 -30.75 25.35 L-29.4 21.55 -28.0 17.7 -27.05 15.95 -27.05 14.7 -27.0 13.65 -26.5 13.7 -26.5 9.25 Q-26.4 7.3 -25.95 6.05 L-27.45 5.55 Q-28.5 5.1 -28.75 4.65 L-29.35 3.5 -29.95 3.6 Q-29.5 -5.15 -27.35 -11.65 -23.8 -22.5 -15.95 -25.15 L-15.7 -25.3 -15.3 -25.45 Q-13.1 -26.45 -9.9 -26.75 L-9.95 -27.65 -9.45 -29.85 Q-8.95 -31.45 -8.95 -32.1 -8.95 -33.6 -11.55 -34.2 L-23.65 -35.7 -27.2 -35.7 -27.55 -35.25 -27.65 -35.15 -27.8 -35.05 -27.95 -34.95 -28.75 -34.5 Q-30.7 -33.5 -31.2 -31.4 -31.45 -30.2 -32.05 -28.5 L-32.95 -25.7 -34.2 -20.6 -35.45 -14.9 -38.0 -4.0 -39.35 1.0 Q-40.45 2.3 -40.45 4.9 L-40.4 6.55 -40.95 8.85 -42.5 15.35 Q-43.9 21.55 -43.95 23.35 L-43.95 23.45 -43.95 23.6 -43.95 23.7 Q-43.85 26.65 -41.8 29.25 -38.45 33.45 -31.35 32.5 L-31.3 32.15 -30.95 31.0" fill="#000000" fill-rule="evenodd" stroke="none"/>
    <path d="M2.9 -22.25 L1.75 -23.25 3.0 -23.1 3.1 -22.35 2.9 -22.25 M-11.95 -23.7 L-12.35 -23.9 -11.75 -23.95 -11.95 -23.7 M5.4 4.45 L5.8 4.25 6.0 4.45 5.4 4.45 M-13.75 -23.55 L-13.45 -23.65 -13.45 -23.25 -13.75 -23.55" fill="#221f1c" fill-rule="evenodd" stroke="none"/>
    <path d="M13.2 -5.3 L13.45 -5.4 13.3 -5.05 13.2 -5.3 M8.65 4.3 L8.45 4.3 8.55 3.85 8.65 4.3" fill="#332e28" fill-rule="evenodd" stroke="none"/>
    <path d="M28.05 20.6 L28.8 21.0 28.65 21.4 28.05 20.6 M37.35 14.45 L37.05 13.75 37.4 14.4 37.35 14.45 M9.0 7.35 L9.05 6.75 9.15 6.75 9.0 7.35 M-23.95 6.35 L-24.0 7.2 -24.15 6.35 -23.95 6.35" fill="#11100f" fill-rule="evenodd" stroke="none"/>
    <path d="M42.8 22.4 L42.4 23.1 42.2 23.6 39.8 25.9 37.95 27.95 37.35 28.3 37.25 28.25 37.2 28.25 36.05 28.55 35.8 28.55 34.65 29.45 29.7 22.9 32.0 21.0 34.1 19.3 36.55 17.05 38.3 15.85 Q41.0 20.4 42.8 22.4" fill="#cdac98" fill-rule="evenodd" stroke="none"/>
    <path d="M12.0 -21.0 L12.05 -18.4 Q12.05 -15.8 10.6 -11.0 L8.65 -14.65 Q5.85 -19.5 2.9 -22.25 L3.1 -22.35 4.05 -22.45 5.35 -22.3 5.15 -22.95 5.2 -22.95 Q5.85 -22.95 6.15 -23.25 L6.65 -23.1 7.1 -23.0 7.5 -22.9 7.6 -22.85 7.7 -22.85 8.35 -22.65 9.0 -22.4 9.7 -22.15 10.3 -21.9 10.55 -21.75 11.3 -21.4 11.65 -21.2 12.0 -21.0 M5.8 4.25 L5.4 4.45 -6.05 4.8 -19.75 4.5 -14.9 -6.5 Q-10.95 -15.5 -10.95 -18.1 -10.95 -20.1 -11.1 -20.65 -7.3 -16.45 -2.2 -9.4 L2.4 -0.8 Q4.35 2.85 5.8 4.25 M6.3 16.65 L7.0 16.65 Q7.65 18.2 8.85 19.55 9.65 20.45 11.55 24.2 L12.7 26.6 11.8 26.6 10.05 26.65 9.55 26.65 8.45 26.8 7.6 26.85 -20.15 28.3 -21.45 28.35 -22.45 28.4 -23.45 28.4 -22.15 24.25 Q-20.4 19.25 -20.45 18.55 L-20.45 17.9 -19.4 17.8 -18.9 17.8 -15.9 17.6 3.75 16.7 4.7 16.7 6.3 16.65 M-7.0 3.2 L-6.95 3.05 -8.2 3.3 -7.0 3.2" fill="#383121" fill-rule="evenodd" stroke="none"/>
    <path d="M12.0 -21.0 L12.9 -20.4 13.0 -20.35 13.15 -20.2 13.35 -20.0 14.35 -17.5 14.85 -16.3 Q15.25 -15.35 15.6 -14.7 L15.55 -14.05 15.5 -13.75 15.45 -13.6 Q15.45 -10.1 13.45 -5.4 L13.2 -5.3 10.6 -11.0 Q12.05 -15.8 12.05 -18.4 L12.0 -21.0 M-11.1 -20.65 Q-10.95 -20.1 -10.95 -18.1 -10.95 -15.5 -14.9 -6.5 L-19.75 4.5 Q-25.15 4.15 -26.3 3.45 L-26.3 3.25 -26.5 3.25 -26.65 2.5 Q-26.65 2.15 -27.5 2.1 -27.3 -2.9 -26.55 -6.4 -25.95 -9.3 -22.65 -16.15 -20.95 -19.75 -16.95 -21.95 L-16.9 -21.95 Q-15.75 -22.1 -14.85 -22.8 L-14.6 -23.05 -13.75 -23.55 -13.45 -23.25 -13.45 -23.15 -11.1 -20.65 M12.7 26.6 L11.55 24.2 Q9.65 20.45 8.85 19.55 7.65 18.2 7.0 16.65 L6.3 16.65 7.55 16.6 8.15 16.55 8.25 16.65 8.45 16.55 9.15 16.45 9.45 16.55 10.8 16.5 Q11.95 16.75 12.85 18.15 L14.85 21.3 Q15.35 21.6 17.1 24.75 L18.25 26.55 17.8 26.55 17.05 26.55 16.95 26.55 14.05 26.6 12.7 26.6 M-20.45 17.9 L-20.45 18.55 Q-20.4 19.25 -22.15 24.25 L-23.45 28.4 -23.5 28.4 -23.65 28.4 -26.75 28.45 -28.65 28.5 -28.1 27.25 -27.55 23.85 -26.15 20.1 -25.3 17.85 -23.3 18.05 -20.75 17.9 -20.45 17.9" fill="#746645" fill-rule="evenodd" stroke="none"/>
    <path d="M-30.95 31.0 L-31.3 32.15 -31.35 32.5 Q-38.45 33.45 -41.8 29.25 -43.85 26.65 -43.95 23.7 L-43.95 23.6 -43.95 23.45 -43.95 23.35 Q-43.9 21.55 -42.5 15.35 L-40.95 8.85 -40.4 6.55 -40.45 4.9 Q-40.45 2.3 -39.35 1.0 L-38.0 -4.0 -35.45 -14.9 -34.2 -20.6 -32.95 -25.7 -32.05 -28.5 Q-31.45 -30.2 -31.2 -31.4 -30.7 -33.5 -28.75 -34.5 L-27.95 -34.95 -27.8 -35.05 -27.65 -35.15 -27.55 -35.25 -27.35 -35.45 Q-26.45 -34.8 -26.45 -33.95 L-28.35 -28.2 -30.9 -20.4 -32.95 -13.65 -34.9 -6.9 -38.15 8.2 Q-40.45 19.35 -40.45 20.55 L-39.45 28.8 Q-37.05 29.05 -35.95 29.95 -35.05 30.65 -30.95 31.0" fill="#372c22" fill-rule="evenodd" stroke="none"/>
    <path d="M-6.8 -24.15 L-3.85 -23.85 -3.8 -23.7 -3.65 -23.45 Q-1.9 -24.35 1.65 -20.05 L7.05 -12.9 9.35 -7.4 9.85 -6.15 Q11.2 -2.8 12.25 -1.6 L12.0 -0.2 11.85 1.5 11.55 2.1 Q11.4 2.5 11.55 3.15 L11.55 3.3 11.1 4.05 8.65 4.3 8.55 3.85 6.8 1.75 Q5.1 -0.45 3.35 -3.5 L-1.2 -11.15 -6.85 -19.0 Q-9.6 -22.55 -11.95 -23.7 L-11.75 -23.95 -10.05 -24.1 -8.45 -24.2 -7.3 -24.2 -7.15 -24.2 -6.95 -24.15 -6.8 -24.15 M28.05 20.6 Q26.85 18.95 25.3 15.55 L23.9 12.6 27.1 10.3 32.85 5.75 37.05 13.75 37.35 14.45 Q35.25 15.05 32.45 17.3 29.5 19.6 28.8 21.0 L28.05 20.6 M9.05 6.75 L9.0 7.35 Q8.85 8.45 9.05 10.55 L9.1 13.0 8.95 13.0 9.1 13.75 9.15 13.8 8.7 13.8 7.55 13.7 7.55 13.9 -9.05 14.55 -18.4 15.2 -24.35 15.85 -24.05 13.75 -23.95 9.8 -24.0 7.2 -23.95 6.35 -5.95 7.05 9.05 6.75 M-27.55 -35.25 L-27.2 -35.7 -23.65 -35.7 -11.55 -34.2 Q-8.95 -33.6 -8.95 -32.1 -8.95 -31.45 -9.45 -29.85 L-9.95 -27.65 -9.9 -26.75 Q-13.1 -26.45 -15.3 -25.45 L-15.7 -25.3 -15.95 -25.15 Q-23.8 -22.5 -27.35 -11.65 -29.5 -5.15 -29.95 3.6 L-29.35 3.5 -28.75 4.65 Q-28.5 5.1 -27.45 5.55 L-25.95 6.05 Q-26.4 7.3 -26.5 9.25 L-26.5 13.7 -27.0 13.65 -27.05 14.7 -27.05 15.95 -28.0 17.7 -29.4 21.55 -30.75 25.35 Q-31.55 27.5 -31.55 28.8 -31.55 29.6 -31.25 29.8 L-30.7 30.0 -30.65 30.05 -30.35 30.05 -30.4 30.1 -30.7 30.1 -30.9 30.5 -30.95 30.95 -30.95 31.0 Q-35.05 30.65 -35.95 29.95 -37.05 29.05 -39.45 28.8 L-40.45 20.55 Q-40.45 19.35 -38.15 8.2 L-34.9 -6.9 -32.95 -13.65 -30.9 -20.4 -28.35 -28.2 -26.45 -33.95 Q-26.45 -34.8 -27.35 -35.45 L-27.55 -35.25" fill="#221c15" fill-rule="evenodd" stroke="none"/>
    <path d="M8.45 16.55 L8.25 16.65 8.15 16.55 8.45 16.55 M12.5 28.85 L13.45 28.8 17.6 28.85 17.55 29.4 Q17.55 30.05 18.55 33.3 L19.35 35.55 16.55 35.55 13.95 35.65 14.05 34.4 Q13.8 31.7 13.15 29.1 L13.1 28.85 12.5 28.85 M-23.5 35.85 L-29.45 35.85 Q-28.6 32.8 -28.45 31.1 L-28.45 31.05 -28.45 30.85 -28.45 30.55 -28.45 30.05 -23.4 30.05 -23.45 32.3 -23.55 35.4 -23.5 35.85" fill="#046193" fill-rule="evenodd" stroke="none"/>
    <path d="M17.9 -16.05 L17.2 -18.05 Q20.1 -14.65 23.7 -8.7 29.3 0.6 31.85 4.1 L29.65 5.65 25.6 8.55 Q23.35 10.4 19.4 12.6 L17.5 13.65 16.05 11.25 14.55 9.05 13.25 6.9 12.45 6.0 13.3 5.05 13.75 3.55 14.05 2.05 13.95 1.25 14.1 0.35 Q14.3 -1.7 15.3 -3.5 L15.25 -3.55 15.45 -4.15 16.6 -7.5 17.1 -7.7 17.55 -9.35 18.1 -12.1 18.5 -13.8 17.9 -16.05 M-7.15 -24.2 L-6.8 -24.15 -6.95 -24.15 -7.15 -24.2 M12.5 28.85 L13.1 28.85 13.15 29.1 Q13.8 31.7 14.05 34.4 L13.95 35.65 -23.5 35.85 -23.55 35.4 -23.45 32.3 -23.4 30.05 -9.55 30.05 6.75 29.25 7.9 29.2 9.1 29.1 12.5 28.85 M-7.0 3.2 L-8.2 3.3 -6.95 3.05 -7.0 3.2" fill="#023f60" fill-rule="evenodd" stroke="none"/>
  </g>
</svg>
