<?xml version="1.0" encoding="UTF-8" standalone="no"?>
<svg xmlns:ffdec="https://www.free-decompiler.com/flash" xmlns:xlink="http://www.w3.org/1999/xlink" ffdec:objectType="shape" height="44.45px" width="30.15px" xmlns="http://www.w3.org/2000/svg">
  <g transform="matrix(1.0, 0.0, 0.0, 1.0, 10.0, 25.15)">
    <path d="M16.3 -11.8 L15.8 -13.45 Q14.2 -19.35 12.35 -21.3 11.05 -22.65 8.8 -23.0 L4.8 -23.15 1.8 -23.05 -2.0 -21.35 -3.45 -19.95 -5.1 -18.1 Q-6.6 -16.7 -6.35 -14.6 L-5.0 -15.1 Q-2.45 -15.7 0.5 -15.1 L8.8 -14.8 Q11.0 -14.3 13.3 -12.7 14.95 -12.4 15.8 -11.7 L16.5 -11.05 16.3 -11.8 M0.55 -13.1 L-3.95 -13.1 Q-7.75 -12.25 -7.75 -7.85 -7.75 -4.5 -3.85 -2.35 -0.85 -0.75 1.15 -1.15 1.35 -5.3 1.85 -7.2 3.05 -11.75 6.6 -12.75 L0.55 -13.1 M5.5 -10.55 Q4.65 -9.55 4.15 -7.05 L5.7 -7.7 9.0 -8.4 Q11.1 -8.4 14.25 -6.7 L16.45 -5.3 16.35 -6.75 Q16.05 -7.85 14.6 -9.0 L14.2 -9.15 13.15 -9.95 Q10.8 -11.55 9.65 -11.55 L7.95 -11.25 7.4 -11.35 Q6.25 -11.45 5.5 -10.55 M6.8 -5.55 Q5.05 -4.85 3.75 -4.6 L3.35 1.05 4.8 0.45 Q8.35 -1.0 9.15 -1.0 14.15 -1.0 16.6 0.35 L16.5 -2.8 16.35 -2.8 Q12.9 -4.8 11.75 -5.25 L11.05 -5.75 Q10.5 -6.15 9.75 -6.15 8.35 -6.15 6.8 -5.55 M18.7 -6.7 Q19.8 -2.65 19.5 4.0 21.45 12.7 17.75 16.75 15.55 19.15 13.15 19.15 L10.0 19.3 Q7.65 19.2 6.0 18.25 1.05 15.3 1.05 4.0 L1.05 3.25 1.0 2.6 1.05 2.45 1.1 0.45 1.0 0.45 -0.75 0.5 Q-3.6 0.5 -6.0 -0.75 -10.0 -2.9 -10.0 -7.8 -10.0 -10.5 -9.0 -12.25 L-9.0 -12.3 Q-9.0 -20.6 -2.05 -23.7 1.4 -25.25 4.85 -25.15 11.2 -25.15 13.75 -23.2 18.85 -19.35 18.9 -6.85 L18.7 -6.7 M10.25 1.15 Q7.35 1.15 6.1 2.0 L3.3 3.5 3.3 4.2 Q3.3 11.95 4.7 14.2 6.5 17.15 13.0 17.15 15.1 17.15 16.4 14.3 18.25 10.3 16.75 2.65 L13.65 1.9 Q11.2 1.15 10.25 1.15" fill="#000000" fill-rule="evenodd" stroke="none"/>
    <path d="M6.8 -5.55 Q8.35 -6.15 9.75 -6.15 10.5 -6.15 11.05 -5.75 L11.75 -5.25 Q12.9 -4.8 16.35 -2.8 L16.5 -2.8 16.6 0.35 Q14.15 -1.0 9.15 -1.0 8.35 -1.0 4.8 0.45 L3.35 1.05 3.75 -4.6 Q5.05 -4.85 6.8 -5.55" fill="#332d26" fill-rule="evenodd" stroke="none"/>
    <path d="M5.5 -10.55 Q6.25 -11.45 7.4 -11.35 L7.95 -11.25 9.65 -11.55 Q10.8 -11.55 13.15 -9.95 L14.2 -9.15 14.6 -9.0 Q16.05 -7.85 16.35 -6.75 L16.45 -5.3 14.25 -6.7 Q11.1 -8.4 9.0 -8.4 L5.7 -7.7 4.15 -7.05 Q4.65 -9.55 5.5 -10.55 M10.25 1.15 Q11.2 1.15 13.65 1.9 L16.75 2.65 Q18.25 10.3 16.4 14.3 15.1 17.15 13.0 17.15 6.5 17.15 4.7 14.2 3.3 11.95 3.3 4.2 L3.3 3.5 6.1 2.0 Q7.35 1.15 10.25 1.15" fill="#cdac98" fill-rule="evenodd" stroke="none"/>
    <path d="M15.8 -11.7 Q14.95 -12.4 13.3 -12.7 11.0 -14.3 8.8 -14.8 L0.5 -15.1 Q-2.45 -15.7 -5.0 -15.1 L-6.35 -14.6 Q-6.6 -16.7 -5.1 -18.1 L-3.45 -19.95 -2.0 -21.35 1.8 -23.05 4.8 -23.15 8.8 -23.0 Q11.05 -22.65 12.35 -21.3 14.2 -19.35 15.8 -13.45 L16.3 -11.8 15.8 -11.7" fill="#046193" fill-rule="evenodd" stroke="none"/>
    <path d="M0.55 -13.1 L6.6 -12.75 Q3.05 -11.75 1.85 -7.2 1.35 -5.3 1.15 -1.15 -0.85 -0.75 -3.85 -2.35 -7.75 -4.5 -7.75 -7.85 -7.75 -12.25 -3.95 -13.1 L0.55 -13.1" fill="#035078" fill-rule="evenodd" stroke="none"/>
  </g>
</svg>
