<?xml version="1.0" encoding="UTF-8" standalone="no"?>
<svg xmlns:ffdec="https://www.free-decompiler.com/flash" xmlns:xlink="http://www.w3.org/1999/xlink" ffdec:objectType="shape" height="51.05px" width="169.0px" xmlns="http://www.w3.org/2000/svg">
  <g transform="matrix(1.0, 0.0, 0.0, 1.0, 84.5, 25.55)">
    <path d="M19.0 -14.05 L19.15 -13.95 19.45 -14.05 24.5 -14.8 25.6 -15.0 Q31.5 -15.95 40.15 -13.2 L48.15 -10.55 50.6 -9.45 Q51.6 -8.55 53.05 -8.05 54.1 -7.2 55.4 -6.8 57.1 -5.7 59.35 -4.45 64.35 -1.7 66.25 -0.25 69.5 2.25 77.8 7.9 84.5 13.25 84.5 17.7 84.5 19.6 80.55 20.65 75.9 21.9 63.15 22.85 62.55 23.35 61.1 23.55 L42.65 24.45 32.8 24.3 25.6 24.45 18.15 24.95 Q7.75 25.9 1.55 25.15 L-3.35 24.2 -10.25 24.55 -12.25 24.3 Q-15.25 24.2 -16.45 25.15 L-21.25 24.95 -26.95 25.25 -34.95 24.7 Q-38.95 24.45 -46.2 24.45 L-63.25 24.45 -73.9 24.25 -74.25 24.45 -74.75 24.25 -75.45 24.2 -75.55 23.95 -76.75 24.45 -83.95 24.45 -84.1 24.2 -84.25 23.2 -84.2 22.4 -84.05 22.1 -84.5 20.35 Q-84.5 18.35 -82.6 15.25 -80.95 12.6 -80.5 12.5 L-79.75 12.3 -79.95 11.75 -80.0 10.2 Q-80.0 7.2 -79.7 6.45 L-76.85 1.45 -75.45 -0.9 Q-74.75 -1.8 -72.85 -2.75 L-71.0 -3.65 -69.75 -3.55 -69.4 -3.55 -69.2 -3.4 Q-67.05 -1.55 -58.1 -1.1 -57.75 -3.05 -57.0 -3.55 L-56.95 -3.5 -57.0 -4.15 Q-57.0 -4.8 -55.45 -5.3 L-55.5 -5.3 -55.5 -17.0 -54.95 -17.6 -55.5 -18.7 Q-55.5 -19.8 -54.95 -20.25 -54.75 -21.65 -53.65 -22.15 -52.65 -22.65 -50.35 -22.75 L-46.5 -23.3 -17.5 -24.8 -17.25 -24.65 -3.45 -25.55 -3.2 -25.4 -3.0 -24.85 Q4.05 -25.95 7.75 -23.25 8.6 -22.6 9.05 -21.35 L9.5 -19.8 10.2 -15.9 10.5 -12.2 10.5 -7.5 Q10.4 -6.75 9.0 -5.25 L9.0 -5.2 14.0 -3.4 Q15.95 -2.5 17.05 -1.1 17.15 -10.6 18.55 -13.35 L18.7 -13.65 19.0 -14.05 M6.4 -6.75 Q7.7 -6.95 8.0 -7.25 8.5 -7.9 8.5 -8.75 L8.5 -12.05 Q8.5 -20.9 4.8 -22.3 L-0.8 -22.95 -9.85 -22.8 -19.9 -22.65 -24.35 -22.3 -35.05 -21.8 -35.85 -21.75 -36.7 -21.7 -38.95 -21.5 -40.75 -21.3 -45.5 -20.55 -47.0 -20.55 -52.45 -19.2 -52.5 -19.05 -52.85 -18.55 -53.0 -17.3 Q-53.5 -15.7 -53.5 -11.4 -53.5 -7.55 -52.0 -6.05 L-52.0 -5.9 -50.35 -5.95 -48.6 -5.6 -43.6 -6.3 Q-38.05 -7.0 -34.6 -6.5 L-31.5 -5.8 Q2.8 -6.3 3.5 -6.55 L6.4 -6.75 M10.45 2.55 Q12.45 1.3 15.75 0.9 L14.7 0.2 12.25 -1.5 10.4 -2.2 Q8.8 -2.55 6.5 -3.55 L6.2 -3.65 6.75 -4.55 6.8 -4.65 4.05 -4.3 3.05 -4.25 -2.7 -4.15 -13.2 -4.0 -20.1 -3.85 -20.25 -1.05 -20.5 7.95 -20.85 8.1 -20.5 8.1 -15.5 8.4 -15.45 7.9 -15.25 7.5 -14.8 7.5 Q-14.6 7.3 -14.2 7.2 L-2.0 6.7 Q3.3 5.55 6.55 5.65 6.95 4.7 8.35 3.8 9.0 3.35 9.6 3.15 L10.05 2.8 10.45 2.55 M20.5 -12.05 L20.05 -12.1 20.05 -12.05 Q20.05 -11.2 19.5 -9.75 L19.5 -8.65 19.5 -0.9 19.5 -0.8 19.55 -0.8 19.8 -0.9 Q20.0 -0.85 20.0 -0.05 L19.9 0.2 20.0 0.2 23.8 0.2 24.55 0.05 25.6 -0.1 27.5 -0.3 27.55 -3.4 Q27.8 -5.45 29.0 -6.55 L32.5 -6.55 32.5 -6.8 34.8 -6.8 35.4 -6.7 35.3 -8.25 35.2 -10.15 Q35.2 -11.35 35.6 -12.0 L32.5 -12.55 25.6 -12.55 24.0 -12.45 20.5 -12.05 M80.8 17.85 L81.15 17.75 82.0 17.45 Q81.4 13.0 74.5 7.95 65.8 2.35 62.0 -0.75 L56.35 -4.2 Q52.3 -6.35 49.0 -7.55 L47.25 -8.15 47.2 -8.2 39.8 -10.8 37.35 -11.55 37.45 -7.65 37.45 -5.65 37.5 -5.55 37.45 -5.35 37.5 4.2 37.45 13.6 Q37.25 18.55 36.65 22.1 L40.25 22.2 48.05 22.2 63.3 20.95 63.45 21.05 71.8 19.7 78.8 18.35 80.8 17.85 M32.55 5.25 Q34.0 3.5 34.0 2.55 L33.9 1.8 33.75 2.0 31.65 3.7 Q30.4 1.65 29.55 1.5 L29.5 1.95 Q30.1 3.55 30.8 4.7 29.5 6.25 29.5 7.05 29.5 8.3 29.75 7.75 L31.7 6.1 Q32.8 7.45 34.25 8.25 L34.5 7.95 Q33.85 7.4 32.55 5.25 M29.2 1.15 L29.15 1.15 29.3 1.2 29.2 1.15 M21.75 2.45 L18.7 2.25 Q17.9 3.55 17.5 4.9 L17.65 5.15 17.85 6.55 17.85 6.8 18.9 6.95 Q22.9 7.7 25.8 10.85 L25.6 9.25 25.0 3.6 25.05 2.35 21.75 2.45 M29.5 21.05 Q29.5 22.3 29.75 21.75 L31.7 20.1 Q32.8 21.45 34.25 22.25 L34.5 21.95 Q33.85 21.4 32.55 19.25 34.0 17.5 34.0 16.55 L33.9 15.8 33.75 16.0 31.65 17.7 Q30.4 15.65 29.55 15.5 L29.5 15.95 Q30.1 17.55 30.8 18.7 29.5 20.25 29.5 21.05 M9.85 6.25 Q11.75 6.85 13.4 8.05 13.55 8.85 14.15 9.35 L15.85 11.35 16.45 13.85 16.95 15.0 17.1 15.65 Q18.0 15.45 19.85 17.2 L19.15 18.4 Q18.9 18.65 18.3 18.7 L20.0 21.95 25.6 22.0 26.9 22.0 Q26.65 21.1 26.55 20.0 L26.5 17.1 26.1 13.7 Q25.55 13.7 22.8 11.35 20.1 8.95 18.0 8.95 L17.15 9.0 17.0 8.7 16.6 8.7 15.35 8.45 15.35 6.55 15.05 6.3 15.15 5.8 15.35 4.75 16.0 2.65 12.55 4.15 12.35 4.2 10.5 5.55 9.9 6.05 9.75 6.2 9.85 6.25 M15.3 22.7 Q15.15 21.9 15.15 20.2 L15.0 17.45 Q14.85 16.3 14.1 14.7 13.5 13.35 13.5 12.3 13.5 11.4 13.75 11.0 L13.8 10.9 Q13.1 10.8 12.35 10.3 L11.0 9.25 4.6 8.75 -13.5 9.0 Q-13.55 9.7 -13.7 9.55 -12.7 10.7 -12.7 13.5 L-12.5 21.0 -12.75 21.65 Q-12.95 21.95 -13.5 21.95 L-12.75 21.95 -9.2 21.95 -8.95 22.1 -8.85 22.2 -6.95 22.2 1.9 22.55 15.3 22.75 15.4 22.75 15.3 22.7 M17.5 22.7 L17.55 22.7 17.9 22.65 17.7 22.5 17.65 22.55 17.5 22.7 M-56.0 -2.55 L-56.0 20.65 -55.85 20.7 -55.65 20.95 Q-55.5 21.2 -55.5 21.9 L-51.1 21.95 -51.45 20.75 -51.5 18.7 -51.0 13.35 Q-50.5 8.2 -50.5 5.75 -50.2 4.85 -49.75 -1.05 L-49.45 -3.55 -49.6 -3.55 -49.8 -3.7 -49.85 -3.8 -50.25 -3.7 -53.0 -3.05 -56.25 -3.05 -56.0 -2.55 M-31.5 -3.55 L-31.5 7.45 -27.0 7.45 -21.7 8.05 Q-22.3 6.75 -22.45 4.5 L-22.5 0.25 -22.8 -3.8 -30.5 -3.55 -31.5 -3.55 M-47.0 -3.55 Q-47.1 -0.4 -48.85 10.65 -50.2 19.5 -49.75 21.95 L-45.35 21.95 Q-45.85 21.2 -46.0 19.45 L-46.0 16.3 Q-46.0 13.85 -45.5 10.5 L-45.25 9.25 Q-44.9 8.25 -44.1 7.7 -43.9 7.5 -32.75 7.45 -33.7 5.3 -33.9 0.55 L-34.0 -3.55 -47.0 -3.55 M-15.0 21.95 L-13.75 21.95 -15.0 21.7 -15.25 14.9 -15.45 10.45 -24.15 10.2 Q-23.8 11.15 -23.7 12.65 L-23.65 16.4 -23.7 21.95 -15.0 21.95 M-35.15 11.1 L-34.95 9.75 -35.25 9.7 -42.15 9.8 Q-44.0 10.0 -44.15 11.0 L-43.75 14.65 Q-43.3 18.2 -43.6 21.95 L-36.65 22.15 -36.25 21.95 -35.05 21.95 -35.25 21.2 -35.15 19.45 -35.15 16.45 -35.1 12.9 -35.05 12.4 -35.1 12.25 -35.15 11.1 M-33.2 12.95 L-33.15 16.15 -33.2 21.95 -25.4 21.95 -25.6 20.7 -25.65 16.7 -25.6 12.5 -25.2 10.15 -33.15 9.8 -33.15 12.7 -33.2 12.75 -33.2 12.95 M-78.1 12.45 Q-76.65 13.0 -75.45 15.4 -74.0 18.4 -74.0 20.5 L-74.1 21.95 -67.25 21.95 Q-64.75 21.85 -58.5 21.9 -58.45 20.65 -57.55 20.45 -58.2 18.15 -58.4 14.4 L-58.5 6.45 -58.5 5.4 -59.5 5.45 Q-65.0 5.45 -67.25 4.5 -69.5 3.5 -75.8 3.45 L-76.35 4.6 Q-78.0 8.6 -78.0 12.25 L-78.15 12.4 -78.1 12.45 M-75.65 21.7 Q-76.6 20.5 -77.1 18.85 -77.95 15.8 -78.6 14.7 -80.65 16.6 -81.55 18.15 -82.65 20.0 -82.6 22.0 L-79.0 21.95 -75.75 22.0 -75.75 21.95 -75.7 21.7 -75.65 21.7" fill="#000000" fill-rule="evenodd" stroke="none"/>
    <path d="M6.4 -6.75 Q6.0 -8.8 5.85 -12.75 5.5 -21.0 2.5 -21.0 L-38.7 -19.7 Q-45.25 -19.0 -48.0 -18.05 -50.4 -17.7 -50.65 -16.5 L-50.5 -14.3 -50.2 -9.25 Q-50.25 -6.05 -52.0 -6.05 -53.5 -7.55 -53.5 -11.4 -53.5 -15.7 -53.0 -17.3 L-52.85 -18.55 -52.5 -19.05 -52.45 -19.2 -47.0 -20.55 -45.5 -20.55 -40.75 -21.3 -38.95 -21.5 -36.7 -21.7 -35.85 -21.75 -35.05 -21.8 -24.35 -22.3 -19.9 -22.65 -9.85 -22.8 -0.8 -22.95 4.8 -22.3 Q8.5 -20.9 8.5 -12.05 L8.5 -8.75 Q8.5 -7.9 8.0 -7.25 7.7 -6.95 6.4 -6.75 M19.8 -0.9 L19.55 -0.8 19.5 -0.8 19.5 -0.9 19.8 -0.9" fill="#221c15" fill-rule="evenodd" stroke="none"/>
    <path d="M-52.0 -6.05 Q-50.25 -6.05 -50.2 -9.25 L-50.5 -14.3 -50.65 -16.5 Q-50.4 -17.7 -48.0 -18.05 -45.25 -19.0 -38.7 -19.7 L2.5 -21.0 Q5.5 -21.0 5.85 -12.75 6.0 -8.8 6.4 -6.75 L3.5 -6.55 Q2.8 -6.3 -31.5 -5.8 L-34.6 -6.5 Q-38.05 -7.0 -43.6 -6.3 L-48.6 -5.6 -50.35 -5.95 -52.0 -5.9 -52.0 -6.05 M-31.5 -3.55 L-30.5 -3.55 -22.8 -3.8 -22.5 0.25 -22.45 4.5 Q-22.3 6.75 -21.7 8.05 L-27.0 7.45 -31.5 7.45 -31.5 -3.55 M-33.15 12.7 L-33.15 9.8 -25.2 10.15 -25.6 12.5 -25.65 16.7 -25.6 20.7 -25.4 21.95 -33.2 21.95 -33.15 16.15 -33.2 12.95 -33.15 12.7" fill="#11100f" fill-rule="evenodd" stroke="none"/>
    <path d="M-2.7 -4.15 L3.05 -4.25 4.05 -4.3 6.8 -4.65 6.75 -4.55 6.2 -3.65 6.5 -3.55 Q8.8 -2.55 10.4 -2.2 L12.25 -1.5 14.7 0.2 15.75 0.9 Q12.45 1.3 10.45 2.55 L7.8 0.45 Q4.15 -2.5 -0.1 -3.25 -2.05 -3.6 -2.7 -4.15 M20.05 -12.05 L20.5 -12.05 24.0 -12.45 25.6 -12.55 32.5 -12.55 35.6 -12.0 Q35.2 -11.35 35.2 -10.15 L35.3 -8.25 25.6 -8.5 20.75 -8.55 19.5 -8.65 19.5 -9.75 Q20.05 -11.2 20.05 -12.05 M80.8 17.85 L73.6 11.75 Q65.3 4.4 61.8 2.45 59.7 1.3 55.35 -0.55 L50.65 -2.55 50.5 -2.55 Q49.65 -2.55 45.05 -5.45 L42.95 -5.75 Q41.3 -6.0 39.55 -6.8 L37.45 -7.65 37.35 -11.55 39.8 -10.8 47.2 -8.2 47.25 -8.15 49.0 -7.55 Q52.3 -6.35 56.35 -4.2 L62.0 -0.75 Q65.8 2.35 74.5 7.95 81.4 13.0 82.0 17.45 L81.15 17.75 80.8 17.85" fill="#372c22" fill-rule="evenodd" stroke="none"/>
    <path d="M-2.7 -4.15 Q-2.05 -3.6 -0.1 -3.25 4.15 -2.5 7.8 0.45 L10.45 2.55 10.05 2.8 9.6 3.15 Q9.0 3.35 8.35 3.8 6.95 4.7 6.55 5.65 3.3 5.55 -2.0 6.7 L-14.2 7.2 Q-14.6 7.3 -14.8 7.5 L-15.25 7.5 -15.45 7.9 -15.5 8.4 -20.5 8.1 -20.5 7.95 -20.25 -1.05 -20.1 -3.85 -13.2 -4.0 -2.7 -4.15 M35.3 -8.25 L35.4 -6.7 34.8 -6.8 32.5 -6.8 32.5 -6.55 29.0 -6.55 Q27.8 -5.45 27.55 -3.4 L27.5 -0.3 25.6 -0.1 24.55 0.05 23.8 0.2 20.0 0.2 20.0 -0.05 Q20.0 -0.85 19.8 -0.9 L19.5 -0.9 19.5 -8.65 20.75 -8.55 25.6 -8.5 35.3 -8.25 M37.45 -7.65 L39.55 -6.8 Q41.3 -6.0 42.95 -5.75 L45.05 -5.45 Q49.65 -2.55 50.5 -2.55 L50.65 -2.55 55.35 -0.55 Q59.7 1.3 61.8 2.45 65.3 4.4 73.6 11.75 L80.8 17.85 78.8 18.35 71.8 19.7 63.45 21.05 63.3 20.95 48.05 22.2 40.25 22.2 36.65 22.1 Q37.25 18.55 37.45 13.6 L37.5 4.2 37.45 -5.35 37.5 -5.55 37.45 -5.65 37.45 -7.65 M9.9 6.05 L9.85 6.25 9.75 6.2 9.9 6.05 M-47.0 -3.55 L-34.0 -3.55 -33.9 0.55 Q-33.7 5.3 -32.75 7.45 -43.9 7.5 -44.1 7.7 -44.9 8.25 -45.25 9.25 L-45.5 10.5 Q-46.0 13.85 -46.0 16.3 L-46.0 19.45 Q-45.85 21.2 -45.35 21.95 L-49.75 21.95 Q-50.2 19.5 -48.85 10.65 -47.1 -0.4 -47.0 -3.55 M-78.0 12.25 Q-78.0 8.6 -76.35 4.6 L-75.8 3.45 Q-69.5 3.5 -67.25 4.5 -65.0 5.45 -59.5 5.45 L-58.5 5.4 -58.5 6.45 -58.4 14.4 Q-58.2 18.15 -57.55 20.45 -58.45 20.65 -58.5 21.9 -64.75 21.85 -67.25 21.95 L-74.1 21.95 -74.0 20.5 Q-74.0 18.4 -75.45 15.4 -76.65 13.0 -78.1 12.45 L-78.0 12.25 M-75.65 21.7 L-75.7 21.7 -75.75 21.95 -75.75 22.0 -79.0 21.95 -82.6 22.0 Q-82.65 20.0 -81.55 18.15 -80.65 16.6 -78.6 14.7 -77.95 15.8 -77.1 18.85 -76.6 20.5 -75.65 21.7" fill="#221f1c" fill-rule="evenodd" stroke="none"/>
    <path d="M32.55 5.25 Q33.85 7.4 34.5 7.95 L34.25 8.25 Q32.8 7.45 31.7 6.1 L29.75 7.75 Q29.5 8.3 29.5 7.05 29.5 6.25 30.8 4.7 30.1 3.55 29.5 1.95 L29.55 1.5 Q30.4 1.65 31.65 3.7 L33.75 2.0 33.9 1.8 34.0 2.55 Q34.0 3.5 32.55 5.25 M29.5 21.05 Q29.5 20.25 30.8 18.7 30.1 17.55 29.5 15.95 L29.55 15.5 Q30.4 15.65 31.65 17.7 L33.75 16.0 33.9 15.8 34.0 16.55 Q34.0 17.5 32.55 19.25 33.85 21.4 34.5 21.95 L34.25 22.25 Q32.8 21.45 31.7 20.1 L29.75 21.75 Q29.5 22.3 29.5 21.05" fill="#ffffff" fill-rule="evenodd" stroke="none"/>
    <path d="M21.75 2.45 L25.05 2.35 25.0 3.6 25.6 9.25 25.8 10.85 Q22.9 7.7 18.9 6.95 L17.85 6.8 17.85 6.55 17.65 5.15 17.5 4.9 Q17.9 3.55 18.7 2.25 L21.75 2.45 M-15.0 21.7 L-15.0 21.95 -23.7 21.95 -23.65 16.4 -23.7 12.65 Q-23.8 11.15 -24.15 10.2 L-15.45 10.45 -15.25 14.9 -15.0 21.7 M-35.15 11.1 L-35.1 12.25 -35.05 12.4 -35.1 12.9 -35.15 16.45 -35.15 19.45 -35.25 21.2 -35.05 21.95 -36.25 21.95 -36.65 22.15 -43.6 21.95 Q-43.3 18.2 -43.75 14.65 L-44.15 11.0 Q-44.0 10.0 -42.15 9.8 L-35.25 9.7 -34.95 9.75 -35.15 11.1" fill="#cdac98" fill-rule="evenodd" stroke="none"/>
    <path d="M9.9 6.05 L10.5 5.55 12.35 4.2 12.55 4.15 16.0 2.65 15.35 4.75 15.15 5.8 15.05 6.3 15.35 6.55 15.35 8.45 16.6 8.7 17.0 8.7 17.15 9.0 18.0 8.95 Q20.1 8.95 22.8 11.35 25.55 13.7 26.1 13.7 L26.5 17.1 26.55 20.0 Q26.65 21.1 26.9 22.0 L25.6 22.0 20.0 21.95 18.3 18.7 Q18.9 18.65 19.15 18.4 L19.85 17.2 Q18.0 15.45 17.1 15.65 L16.95 15.0 16.45 13.85 15.85 11.35 14.15 9.35 Q13.55 8.85 13.4 8.05 11.75 6.85 9.85 6.25 L9.9 6.05" fill="#48463c" fill-rule="evenodd" stroke="none"/>
    <path d="M-33.15 12.7 L-33.2 12.95 -33.2 12.75 -33.15 12.7" fill="#aa8a71" fill-rule="evenodd" stroke="none"/>
    <path d="M-12.75 21.65 L-12.5 21.0 -12.7 13.5 Q-12.7 10.7 -13.7 9.55 -13.55 9.7 -13.5 9.0 L4.6 8.75 11.0 9.25 12.35 10.3 Q13.1 10.8 13.8 10.9 L13.75 11.0 Q13.5 11.4 13.5 12.3 13.5 13.35 14.1 14.7 14.85 16.3 15.0 17.45 L15.15 20.2 Q15.15 21.9 15.3 22.7 L15.3 22.75 1.9 22.55 -6.95 22.2 -8.85 22.2 -8.95 22.1 -9.2 21.95 -12.75 21.95 -12.75 21.65 M-56.0 -2.55 L-56.25 -3.05 -53.0 -3.05 -50.25 -3.7 -49.85 -3.8 -49.8 -3.7 -49.6 -3.55 -49.45 -3.55 -49.75 -1.05 Q-50.2 4.85 -50.5 5.75 -50.5 8.2 -51.0 13.35 L-51.5 18.7 -51.45 20.75 -51.1 21.95 -55.5 21.9 Q-55.5 21.2 -55.65 20.95 L-55.85 20.7 -56.0 20.65 -56.0 -2.55" fill="#023f60" fill-rule="evenodd" stroke="none"/>
  </g>
</svg>
