<?xml version="1.0" encoding="UTF-8" standalone="no"?>
<svg xmlns:ffdec="https://www.free-decompiler.com/flash" xmlns:xlink="http://www.w3.org/1999/xlink" ffdec:objectType="shape" height="48.15px" width="64.95px" xmlns="http://www.w3.org/2000/svg">
  <g transform="matrix(1.0, 0.0, 0.0, 1.0, 31.15, 30.5)">
    <path d="M10.95 -22.45 Q5.0 -28.35 -3.4 -28.35 -15.75 -28.35 -23.1 -21.5 -29.05 -15.95 -29.05 -9.8 -29.05 -8.75 -28.05 -7.3 L-27.6 -6.65 Q-26.75 -9.3 -25.1 -11.3 -18.9 -18.9 -2.05 -18.9 1.9 -18.9 6.85 -17.6 10.45 -16.65 15.75 -16.5 13.45 -19.95 10.95 -22.45 M19.3 -16.5 L19.55 -16.4 19.7 -16.2 22.05 -16.7 Q26.9 -17.3 30.1 -14.55 33.8 -11.4 33.8 -4.8 33.8 -1.6 30.0 1.4 26.2 4.45 20.75 4.95 20.7 5.5 19.7 6.05 18.7 9.1 6.3 13.3 -6.5 17.65 -13.1 17.65 -21.1 17.65 -25.5 10.0 -28.55 4.65 -28.55 -0.1 L-28.35 -3.1 Q-30.35 -3.55 -30.9 -7.0 -31.25 -9.0 -31.1 -11.0 -31.1 -19.8 -23.5 -25.15 -16.75 -29.9 -6.7 -30.45 3.05 -31.0 10.05 -27.35 17.6 -23.45 17.65 -16.45 L19.3 -16.5 M16.0 4.7 Q12.75 3.9 11.3 1.0 10.25 -1.15 10.25 -4.85 10.25 -9.45 13.95 -12.9 14.75 -13.65 15.65 -14.25 L11.75 -14.1 9.75 -14.5 Q9.75 -13.9 8.2 -13.05 L4.75 -11.2 Q-0.25 -8.25 -0.25 -4.3 -0.25 -0.2 0.6 1.95 2.15 6.0 6.65 6.0 11.55 6.0 15.9 5.0 L16.65 4.85 16.0 4.7 M13.25 -0.25 Q14.85 2.75 18.4 2.75 25.25 2.75 29.0 -0.85 31.75 -3.45 31.75 -6.1 31.75 -10.7 28.7 -12.9 26.0 -14.85 22.0 -14.3 18.1 -13.75 15.3 -11.2 12.25 -8.35 12.25 -4.35 12.25 -2.15 13.25 -0.25 M-4.3 14.4 Q1.05 13.05 7.65 10.1 L12.95 7.65 6.4 8.1 Q0.65 8.1 -1.3 2.95 -2.25 0.45 -2.25 -4.1 -2.25 -7.85 -0.25 -10.3 2.1 -13.2 7.5 -14.95 L-3.9 -16.75 -4.0 -16.75 -6.55 -16.7 Q-15.8 -16.35 -20.5 -13.5 -24.4 -11.1 -24.4 -7.75 -24.4 -6.35 -25.45 -3.8 -26.5 -1.2 -26.5 1.35 -26.5 4.85 -22.75 9.75 -18.3 15.55 -12.8 15.55 L-7.75 15.1 -4.3 14.4" fill="#000000" fill-rule="evenodd" stroke="none"/>
    <path d="M10.95 -22.45 Q13.45 -19.95 15.75 -16.5 10.45 -16.65 6.85 -17.6 1.9 -18.9 -2.05 -18.9 -18.9 -18.9 -25.1 -11.3 -26.75 -9.3 -27.6 -6.65 L-28.05 -7.3 Q-29.05 -8.75 -29.05 -9.8 -29.05 -15.95 -23.1 -21.5 -15.75 -28.35 -3.4 -28.35 5.0 -28.35 10.95 -22.45" fill="#342825" fill-rule="evenodd" stroke="none"/>
    <path d="M-3.9 -16.75 L7.5 -14.95 Q2.1 -13.2 -0.25 -10.3 -2.25 -7.85 -2.25 -4.1 -2.25 0.45 -1.3 2.95 0.65 8.1 6.4 8.1 L12.95 7.65 7.65 10.1 Q1.05 13.05 -4.3 14.4 L-3.65 14.2 -2.75 13.5 Q-9.95 10.5 -11.95 6.4 -13.1 4.05 -13.1 -2.15 -13.1 -5.5 -8.45 -11.35 L-3.9 -16.75 M13.25 -0.25 Q12.25 -2.15 12.25 -4.35 12.25 -8.35 15.3 -11.2 18.1 -13.75 22.0 -14.3 26.0 -14.85 28.7 -12.9 31.75 -10.7 31.75 -6.1 31.75 -3.45 29.0 -0.85 25.25 2.75 18.4 2.75 14.85 2.75 13.25 -0.25 M-7.75 15.1 L-12.8 15.55 Q-18.3 15.55 -22.75 9.75 -26.5 4.85 -26.5 1.35 -26.5 -1.2 -25.45 -3.8 -24.4 -6.35 -24.4 -7.75 -24.4 -11.1 -20.5 -13.5 -15.8 -16.35 -6.55 -16.7 -9.05 -15.2 -12.55 -10.9 -17.65 -4.8 -17.65 -2.75 -17.65 2.95 -16.25 7.05 -13.8 14.15 -7.75 15.1" fill="#cdac98" fill-rule="evenodd" stroke="none"/>
    <path d="M-3.9 -16.75 L-8.45 -11.35 Q-13.1 -5.5 -13.1 -2.15 -13.1 4.05 -11.95 6.4 -9.95 10.5 -2.75 13.5 L-3.65 14.2 -4.3 14.4 -7.75 15.1 Q-13.8 14.15 -16.25 7.05 -17.65 2.95 -17.65 -2.75 -17.65 -4.8 -12.55 -10.9 -9.05 -15.2 -6.55 -16.7 L-4.0 -16.75 -3.9 -16.75" fill="#7f98ff" fill-rule="evenodd" stroke="none"/>
    <path d="M15.9 5.0 Q11.55 6.0 6.65 6.0 2.15 6.0 0.6 1.95 -0.25 -0.2 -0.25 -4.3 -0.25 -8.25 4.75 -11.2 L8.2 -13.05 Q9.75 -13.9 9.75 -14.5 L11.75 -14.1 15.65 -14.25 Q14.75 -13.65 13.95 -12.9 10.25 -9.45 10.25 -4.85 10.25 -1.15 11.3 1.0 12.75 3.9 16.0 4.7 L15.9 5.0" fill="#8a5242" fill-rule="evenodd" stroke="none"/>
  </g>
</svg>
