<?xml version="1.0" encoding="UTF-8" standalone="no"?>
<svg xmlns:ffdec="https://www.free-decompiler.com/flash" xmlns:xlink="http://www.w3.org/1999/xlink" ffdec:objectType="shape" height="72.75px" width="58.5px" xmlns="http://www.w3.org/2000/svg">
  <g transform="matrix(1.0, 0.0, 0.0, 1.0, -68.45, 103.75)">
    <path d="M68.7 -103.75 Q72.95 -103.65 79.3 -98.65 83.1 -95.65 88.5 -90.0 L97.1 -81.55 Q102.2 -76.5 105.5 -72.5 107.85 -69.7 111.65 -63.5 115.25 -57.65 118.0 -54.5 122.3 -49.6 123.75 -45.5 L125.6 -41.25 Q126.95 -37.9 126.95 -36.6 126.95 -35.2 126.75 -34.85 126.25 -33.8 124.0 -33.2 L112.45 -32.0 105.7 -31.0 Q98.05 -31.0 97.15 -32.35 96.8 -32.95 96.5 -35.0 96.15 -37.65 95.45 -39.7 L92.45 -48.7 Q90.85 -52.4 89.5 -57.6 L87.2 -66.7 Q84.65 -75.95 80.45 -84.6 79.1 -87.45 73.5 -95.05 68.45 -101.9 68.45 -102.6 L68.5 -103.35 68.7 -103.75 M76.95 -96.25 L76.95 -96.1 77.05 -96.15 76.95 -96.25" fill="#555555" fill-opacity="0.49803922" fill-rule="evenodd" stroke="none"/>
  </g>
</svg>
