<?xml version="1.0" encoding="UTF-8" standalone="no"?>
<svg xmlns:ffdec="https://www.free-decompiler.com/flash" xmlns:xlink="http://www.w3.org/1999/xlink" ffdec:objectType="shape" height="65.95px" width="170.5px" xmlns="http://www.w3.org/2000/svg">
  <g transform="matrix(1.0, 0.0, 0.0, 1.0, 82.6, 37.95)">
    <path d="M46.75 -23.5 L45.3 -21.85 43.0 -20.0 Q42.25 -21.05 40.95 -25.65 39.8 -29.6 37.55 -31.5 L37.5 -28.75 Q37.3 -27.0 35.75 -27.0 34.0 -27.0 33.35 -28.8 32.45 -31.0 30.0 -32.0 24.25 -34.15 23.0 -35.35 L23.6 -32.85 Q24.0 -31.25 24.0 -30.1 L23.9 -29.8 Q23.75 -29.5 23.0 -29.5 22.05 -29.5 21.85 -30.3 21.6 -31.3 21.0 -31.5 L15.95 -32.35 11.55 -32.75 13.35 -31.2 Q14.5 -30.1 14.5 -29.35 14.5 -28.7 13.1 -28.4 L6.0 -27.0 Q4.35 -26.6 2.85 -25.5 L0.25 -23.75 0.0 -23.6 0.3 -23.6 4.55 -23.25 5.0 -22.5 Q4.45 -22.05 2.1 -20.7 L-0.5 -19.1 -2.45 -17.2 -4.0 -15.6 -0.25 -16.0 2.55 -15.75 3.0 -15.0 0.8 -13.1 -1.6 -11.1 Q-3.05 -8.9 -3.5 -7.35 L-3.5 -7.1 -3.45 -7.1 0.5 -7.5 3.55 -7.05 Q5.15 -6.6 6.0 -6.0 5.25 -4.7 4.0 -3.9 L2.0 -2.85 Q2.85 -1.5 5.05 -0.1 L10.0 2.5 Q9.25 3.85 9.0 3.6 8.25 2.8 5.5 4.0 L4.55 4.25 8.15 5.6 Q10.0 6.25 10.85 6.85 L11.55 5.3 Q14.75 -1.35 19.3 -5.25 L23.65 -9.2 Q26.6 -11.6 30.5 -12.85 34.25 -14.1 38.05 -13.55 L44.55 -12.1 44.5 -12.9 Q44.5 -13.95 46.05 -17.4 L46.0 -18.0 Q46.0 -18.75 46.85 -19.15 L47.0 -19.5 47.0 -23.25 46.8 -23.6 46.75 -23.5 M35.55 -34.75 L35.8 -34.85 36.75 -35.0 Q39.1 -35.0 41.4 -30.5 43.25 -26.8 43.75 -23.5 44.55 -23.65 45.5 -25.5 46.45 -27.5 48.0 -28.0 48.75 -27.4 48.95 -25.7 L49.0 -23.05 48.8 -19.6 55.85 -19.15 57.05 -18.95 Q57.35 -20.0 59.55 -22.45 61.8 -25.05 62.55 -25.5 68.35 -29.35 84.05 -30.0 L84.25 -29.85 84.4 -29.0 Q84.4 -28.35 80.7 -26.75 76.4 -24.95 74.65 -22.0 73.65 -20.2 72.9 -17.95 L71.9 -14.8 73.35 -13.65 Q75.15 -12.05 77.55 -10.75 78.7 -10.1 83.2 -4.95 87.9 0.5 87.9 1.6 87.9 2.55 84.6 4.75 L81.35 6.85 Q84.45 9.6 85.2 10.85 85.9 12.1 85.9 16.5 L85.4 23.5 Q86.15 24.8 83.5 25.85 78.25 28.0 61.15 28.0 L44.75 27.4 38.3 26.6 Q35.2 27.5 29.0 27.5 21.25 27.5 16.4 25.75 L16.25 25.9 15.75 26.05 0.0 26.5 -14.0 26.1 -14.5 26.85 -17.5 27.0 -22.55 26.3 -23.0 26.85 -31.25 27.0 Q-39.05 27.0 -43.1 24.7 L-43.35 25.0 -66.5 26.0 Q-78.3 26.0 -81.5 23.8 -82.55 23.1 -82.6 22.1 L-82.5 21.0 Q-82.5 18.4 -79.55 14.75 -76.9 11.4 -73.6 9.25 L-67.15 3.5 Q-63.15 0.3 -58.85 1.75 L-58.65 1.65 -58.55 1.75 -57.25 1.1 -57.5 -0.4 Q-57.5 -4.75 -53.5 -8.8 -49.15 -13.2 -42.9 -13.25 -42.5 -14.5 -42.5 -15.75 L-38.45 -15.6 -34.25 -15.25 -20.35 -16.5 -20.2 -16.3 Q-18.65 -17.0 -16.7 -16.8 -15.55 -16.65 -14.75 -16.2 -13.55 -17.85 -10.25 -20.2 -5.95 -23.2 -3.45 -23.5 -1.2 -25.85 10.3 -30.75 L9.0 -31.5 Q7.8 -32.15 7.0 -33.1 7.8 -34.3 8.35 -34.65 L10.75 -35.0 20.5 -34.0 Q20.95 -34.9 21.3 -37.4 22.1 -38.9 25.5 -36.35 26.85 -35.55 30.7 -33.6 34.15 -31.75 35.3 -30.5 L35.55 -34.75 M1.05 -5.0 L1.5 -5.35 1.05 -5.3 -2.95 -5.15 -6.0 -5.25 Q-5.85 -6.9 -4.9 -9.05 L-3.0 -13.1 -3.0 -13.5 -3.05 -13.45 -4.35 -12.9 -6.0 -12.5 -7.5 -12.75 Q-8.3 -14.55 -5.75 -17.15 L-1.35 -21.1 -1.0 -21.35 -1.3 -21.35 -3.3 -21.45 -6.35 -19.5 Q-9.95 -17.2 -12.4 -15.2 -12.15 -14.35 -12.05 -13.05 L-12.0 -11.0 -12.0 -9.5 -12.0 -9.1 -12.0 -8.75 Q-12.0 -5.35 -12.15 -1.9 L-12.35 1.8 -13.05 9.75 Q-13.45 13.4 -14.0 17.05 L-14.0 24.25 13.05 24.15 11.55 23.0 Q8.5 20.25 8.5 16.5 8.5 13.7 9.55 10.4 L10.0 9.0 9.95 9.0 9.85 9.0 7.4 8.4 5.5 7.45 4.0 6.3 Q2.4 4.95 1.5 3.6 1.5 2.95 2.2 2.4 2.9 1.8 3.8 1.75 3.25 0.8 1.15 -0.6 -0.5 -1.7 -0.5 -3.1 L-0.35 -3.85 Q0.0 -4.6 1.05 -5.0 M22.9 -5.5 Q19.85 -3.1 18.3 -1.5 14.9 1.9 12.65 7.05 10.5 12.1 10.5 16.3 10.5 19.45 13.55 21.75 18.25 25.25 28.9 25.25 37.45 25.25 40.2 22.55 42.35 20.45 46.0 10.05 L46.95 6.05 Q47.4 3.65 48.0 2.25 L49.6 -1.65 Q50.5 -4.15 50.5 -5.6 50.5 -6.75 49.05 -7.95 47.55 -9.15 45.5 -9.5 L36.8 -11.05 Q31.75 -11.55 28.25 -9.35 26.15 -8.1 22.9 -5.5 M76.05 -26.5 L76.4 -26.85 76.15 -26.9 Q71.65 -28.1 65.25 -24.55 58.75 -20.95 60.5 -18.35 65.45 -17.45 69.6 -16.1 70.05 -18.0 71.35 -20.7 73.55 -25.35 76.05 -26.5 M53.9 -16.85 L52.75 -16.4 52.85 -16.6 48.15 -16.9 47.05 -14.85 Q46.25 -13.1 47.0 -12.0 L46.75 -11.35 47.1 -11.25 50.0 -10.0 50.35 -9.8 50.75 -8.85 Q51.6 -7.3 53.15 -6.75 L52.75 -5.35 52.5 -5.15 52.5 -4.65 54.2 -4.45 Q53.75 -5.85 53.6 -7.25 L53.5 -11.75 53.55 -15.15 Q53.65 -16.15 53.9 -16.85 M55.0 -17.0 Q55.6 -15.3 55.55 -12.3 55.45 -7.9 56.0 -6.5 L56.0 -3.95 56.45 -3.8 63.0 -1.5 68.45 -0.9 Q71.95 -0.55 73.65 0.8 L75.2 1.9 77.4 3.55 79.35 5.15 Q79.95 4.25 81.4 3.45 82.75 2.7 85.4 1.5 L81.45 -3.85 Q79.3 -6.4 76.3 -8.75 L73.25 -11.45 Q71.2 -13.25 69.9 -13.5 L69.8 -13.5 69.6 -13.6 69.55 -13.65 65.5 -15.2 57.85 -16.25 Q56.6 -17.1 55.0 -17.0 M62.05 0.45 L52.4 -2.8 52.3 -2.5 50.8 0.0 Q50.6 0.4 50.5 1.8 50.4 3.3 50.0 4.05 49.2 5.4 48.65 8.25 L47.8 12.3 Q44.75 21.15 41.6 24.5 46.4 24.55 47.65 25.15 L56.25 25.75 59.75 25.75 61.15 25.75 Q77.15 25.75 81.8 23.85 84.2 22.9 83.4 21.75 83.9 19.6 83.9 16.4 83.9 12.9 81.3 9.6 L79.35 7.5 79.3 7.5 79.1 7.35 79.0 7.2 76.4 5.5 74.15 4.1 72.3 2.75 Q70.1 1.35 68.2 1.65 L65.45 1.6 62.8 0.75 62.25 0.55 62.05 0.45 M-42.5 -6.6 L-42.0 -3.2 Q-42.25 -1.2 -45.0 -0.35 L-43.0 1.55 Q-42.5 2.15 -42.5 3.15 -42.5 5.0 -43.2 5.55 L-47.0 8.05 -46.0 9.85 Q-45.2 11.15 -44.5 11.5 -42.5 12.45 -41.9 13.15 -41.5 13.6 -41.5 14.25 -41.5 15.85 -42.75 16.95 -44.5 18.5 -45.0 19.5 L-43.65 21.1 -40.6 23.05 -40.35 23.2 -37.85 24.25 -24.55 24.6 Q-25.0 23.3 -25.0 17.15 L-24.5 -1.1 Q-24.45 -2.85 -23.7 -5.6 L-22.5 -10.1 -22.5 -14.2 -29.85 -13.25 -40.0 -13.5 Q-40.8 -13.5 -41.75 -11.25 -42.85 -8.8 -42.5 -6.6 M-43.8 -11.5 L-51.55 -8.0 Q-55.75 -5.05 -55.7 0.55 L-53.5 -0.05 -48.0 -0.4 Q-47.9 -1.25 -46.25 -2.35 -44.5 -3.6 -44.5 -4.55 -44.5 -5.5 -45.2 -6.35 L-47.0 -8.0 -47.0 -8.15 -45.25 -9.9 Q-44.25 -10.8 -43.8 -11.5 M-21.65 -5.75 Q-22.7 -0.65 -22.5 2.05 -22.25 5.1 -22.6 10.95 L-23.0 17.05 -22.5 24.25 -18.05 24.55 -16.0 24.6 -16.0 20.75 Q-16.0 17.55 -14.5 1.8 L-14.5 -7.75 -14.1 -12.1 -15.0 -12.95 -15.0 -13.35 -20.5 -13.25 Q-20.5 -11.2 -21.65 -5.75 M-48.1 10.5 Q-49.3 11.0 -52.85 11.75 -58.65 13.0 -63.0 13.0 -68.1 13.0 -70.6 12.05 L-72.25 11.15 -73.25 12.05 -74.55 13.45 Q-73.85 14.35 -73.85 15.6 L-74.0 18.5 -73.2 20.9 Q-72.5 22.65 -72.5 23.65 L-72.5 23.75 -53.5 23.0 -45.4 23.0 Q-47.0 21.4 -47.0 19.5 -47.0 17.95 -46.35 17.3 L-43.5 14.8 -43.5 14.05 Q-45.75 14.0 -47.5 11.45 L-48.1 10.5 M-77.1 16.3 Q-80.5 20.25 -80.5 20.9 -80.5 22.65 -77.35 23.25 L-75.25 23.55 Q-75.7 22.65 -75.85 21.15 L-76.0 17.15 -76.0 15.3 -75.95 15.0 -77.1 16.3" fill="#000000" fill-rule="evenodd" stroke="none"/>
    <path d="M22.9 -5.5 Q26.15 -8.1 28.25 -9.35 31.75 -11.55 36.8 -11.05 L45.5 -9.5 Q47.55 -9.15 49.05 -7.95 50.5 -6.75 50.5 -5.6 50.5 -4.15 49.6 -1.65 L48.0 2.25 Q47.4 3.65 46.95 6.05 L46.0 10.05 Q42.35 20.45 40.2 22.55 37.45 25.25 28.9 25.25 18.25 25.25 13.55 21.75 10.5 19.45 10.5 16.3 10.5 12.1 12.65 7.05 14.9 1.9 18.3 -1.5 19.85 -3.1 22.9 -5.5 M55.0 -17.0 Q56.6 -17.1 57.85 -16.25 L65.5 -15.2 69.55 -13.65 69.6 -13.6 69.8 -13.5 69.9 -13.5 Q71.2 -13.25 73.25 -11.45 L76.3 -8.75 Q79.3 -6.4 81.45 -3.85 L85.4 1.5 Q82.75 2.7 81.4 3.45 79.95 4.25 79.35 5.15 L77.4 3.55 75.2 1.9 73.65 0.8 Q71.95 -0.55 68.45 -0.9 L63.0 -1.5 56.45 -3.8 56.0 -3.95 56.0 -6.5 Q55.45 -7.9 55.55 -12.3 55.6 -15.3 55.0 -17.0" fill="#333333" fill-rule="evenodd" stroke="none"/>
    <path d="M53.9 -16.85 Q53.65 -16.15 53.55 -15.15 L53.5 -11.75 53.6 -7.25 Q53.75 -5.85 54.2 -4.45 L52.5 -4.65 52.5 -5.15 52.75 -5.35 53.15 -6.75 Q51.6 -7.3 50.75 -8.85 L50.35 -9.8 50.0 -10.0 47.1 -11.25 46.75 -11.35 47.0 -12.0 Q46.25 -13.1 47.05 -14.85 L48.15 -16.9 52.85 -16.6 52.75 -16.4 53.9 -16.85" fill="#666666" fill-rule="evenodd" stroke="none"/>
    <path d="M-43.8 -11.5 Q-44.25 -10.8 -45.25 -9.9 L-47.0 -8.15 -47.0 -8.0 -45.2 -6.35 Q-44.5 -5.5 -44.5 -4.55 -44.5 -3.6 -46.25 -2.35 -47.9 -1.25 -48.0 -0.4 L-53.5 -0.05 -55.7 0.55 Q-55.75 -5.05 -51.55 -8.0 L-43.8 -11.5 M-77.1 16.3 L-75.95 15.0 -76.0 15.3 -76.0 17.15 -75.85 21.15 Q-75.7 22.65 -75.25 23.55 L-77.35 23.25 Q-80.5 22.65 -80.5 20.9 -80.5 20.25 -77.1 16.3 M-48.1 10.5 L-47.5 11.45 Q-45.75 14.0 -43.5 14.05 L-43.5 14.8 -46.35 17.3 Q-47.0 17.95 -47.0 19.5 -47.0 21.4 -45.4 23.0 L-53.5 23.0 -72.5 23.75 -72.5 23.65 Q-72.5 22.65 -73.2 20.9 L-74.0 18.5 -73.85 15.6 Q-73.85 14.35 -74.55 13.45 L-73.25 12.05 -72.25 11.15 -70.6 12.05 Q-68.1 13.0 -63.0 13.0 -58.65 13.0 -52.85 11.75 -49.3 11.0 -48.1 10.5" fill="#332d26" fill-rule="evenodd" stroke="none"/>
    <path d="M56.25 25.75 L47.65 25.15 Q46.4 24.55 41.6 24.5 44.75 21.15 47.8 12.3 L48.65 8.25 Q49.2 5.4 50.0 4.05 50.4 3.3 50.5 1.8 50.6 0.4 50.8 0.0 L52.3 -2.5 52.4 -2.8 62.05 0.45 62.0 0.5 Q61.4 1.95 61.15 4.95 L60.55 9.8 57.7 20.5 56.25 25.75 M65.45 1.6 L68.2 1.65 Q70.1 1.35 72.3 2.75 L74.15 4.1 76.4 5.5 79.0 7.2 79.1 7.35 79.3 7.5 79.35 7.5 81.3 9.6 Q83.9 12.9 83.9 16.4 83.9 19.6 83.4 21.75 84.2 22.9 81.8 23.85 77.15 25.75 61.15 25.75 L59.75 25.75 60.2 24.7 63.05 17.8 Q64.7 13.15 65.15 10.6 65.5 8.5 65.5 4.3 L65.45 1.6" fill="#cdac98" fill-rule="evenodd" stroke="none"/>
    <path d="M-21.65 -5.75 Q-20.5 -11.2 -20.5 -13.25 L-15.0 -13.35 -15.0 -12.95 -14.1 -12.1 -14.5 -7.75 -14.5 1.8 Q-16.0 17.55 -16.0 20.75 L-16.0 24.6 -18.05 24.55 -22.5 24.25 -23.0 17.05 -22.6 10.95 Q-22.25 5.1 -22.5 2.05 -22.7 -0.65 -21.65 -5.75" fill="#1a1613" fill-rule="evenodd" stroke="none"/>
    <path d="M0.25 -23.75 L2.85 -25.5 Q4.35 -26.6 6.0 -27.0 L13.1 -28.4 Q14.5 -28.7 14.5 -29.35 14.5 -30.1 13.35 -31.2 L11.55 -32.75 15.95 -32.35 21.0 -31.5 Q21.6 -31.3 21.85 -30.3 22.05 -29.5 23.0 -29.5 23.75 -29.5 23.9 -29.8 L24.0 -30.1 Q24.0 -31.25 23.6 -32.85 L23.0 -35.35 Q24.25 -34.15 30.0 -32.0 32.45 -31.0 33.35 -28.8 34.0 -27.0 35.75 -27.0 37.3 -27.0 37.5 -28.75 L37.55 -31.5 Q39.8 -29.6 40.95 -25.65 42.25 -21.05 43.0 -20.0 L45.3 -21.85 46.75 -23.5 47.0 -23.25 47.0 -19.5 46.85 -19.15 Q46.0 -18.75 46.0 -18.0 L46.05 -17.4 Q44.5 -13.95 44.5 -12.9 L44.55 -12.1 38.05 -13.55 Q34.25 -14.1 30.5 -12.85 26.6 -11.6 23.65 -9.2 L19.3 -5.25 Q14.75 -1.35 11.55 5.3 L10.85 6.85 Q10.0 6.25 8.15 5.6 L4.55 4.25 5.5 4.0 Q8.25 2.8 9.0 3.6 9.25 3.85 10.0 2.5 L5.05 -0.1 Q2.85 -1.5 2.0 -2.85 L4.0 -3.9 Q5.25 -4.7 6.0 -6.0 5.15 -6.6 3.55 -7.05 L0.5 -7.5 -3.45 -7.1 -3.5 -7.35 Q-3.05 -8.9 -1.6 -11.1 L0.8 -13.1 3.0 -15.0 2.55 -15.75 -0.25 -16.0 -4.0 -15.6 -2.45 -17.2 -0.5 -19.1 2.1 -20.7 Q4.45 -22.05 5.0 -22.5 L4.55 -23.25 0.3 -23.6 0.25 -23.75" fill="#26221c" fill-rule="evenodd" stroke="none"/>
    <path d="M76.15 -26.9 L76.05 -26.5 Q73.55 -25.35 71.35 -20.7 70.05 -18.0 69.6 -16.1 65.45 -17.45 60.5 -18.35 58.75 -20.95 65.25 -24.55 71.65 -28.1 76.15 -26.9" fill="#5e646f" fill-rule="evenodd" stroke="none"/>
    <path d="M56.25 25.75 L57.7 20.5 60.55 9.8 61.15 4.95 Q61.4 1.95 62.0 0.5 L62.05 0.45 62.25 0.55 62.8 0.75 65.45 1.6 65.5 4.3 Q65.5 8.5 65.15 10.6 64.7 13.15 63.05 17.8 L60.2 24.7 59.75 25.75 56.25 25.75" fill="#7f98ff" fill-rule="evenodd" stroke="none"/>
    <path d="M1.05 -5.3 L1.05 -5.0 Q0.0 -4.6 -0.35 -3.85 L-0.5 -3.1 Q-0.5 -1.7 1.15 -0.6 3.25 0.8 3.8 1.75 2.9 1.8 2.2 2.4 1.5 2.95 1.5 3.6 2.4 4.95 4.0 6.3 L5.5 7.45 5.25 7.25 1.25 7.25 Q-2.35 4.95 -4.8 1.65 L-8.35 -4.0 Q-10.25 -10.35 -11.65 -10.95 L-12.0 -11.0 -12.05 -13.05 Q-12.15 -14.35 -12.4 -15.2 -9.95 -17.2 -6.35 -19.5 L-3.3 -21.45 -1.3 -21.35 -1.35 -21.1 -5.75 -17.15 Q-8.3 -14.55 -7.5 -12.75 L-6.0 -12.5 -4.35 -12.9 -3.05 -13.45 -3.0 -13.1 -4.9 -9.05 Q-5.85 -6.9 -6.0 -5.25 L-2.95 -5.15 1.05 -5.3 M9.55 10.4 Q8.5 13.7 8.5 16.5 8.5 20.25 11.55 23.0 L13.05 24.15 -14.0 24.25 -14.0 17.05 Q-13.45 13.4 -13.05 9.75 L-9.85 15.5 Q-6.5 21.25 -3.5 24.25 L4.25 24.2 2.2 22.2 -1.1 19.25 -3.9 15.7 Q-5.9 13.2 -7.25 12.05 -8.65 10.85 -9.65 8.85 L-11.25 5.55 -12.35 1.85 -12.35 1.8 -12.15 -1.9 Q-11.35 -0.25 -9.35 2.25 -4.85 8.0 -2.5 9.25 -0.05 10.5 6.5 10.5 L9.55 10.4" fill="#c0a392" fill-rule="evenodd" stroke="none"/>
    <path d="M5.5 7.45 L7.4 8.4 9.85 9.0 9.95 9.0 10.0 9.0 9.55 10.4 6.5 10.5 Q-0.05 10.5 -2.5 9.25 -4.85 8.0 -9.35 2.25 -11.35 -0.25 -12.15 -1.9 -12.0 -5.35 -12.0 -8.75 L-12.0 -9.1 -12.0 -9.5 -12.0 -11.0 -11.65 -10.95 Q-10.25 -10.35 -8.35 -4.0 L-4.8 1.65 Q-2.35 4.95 1.25 7.25 L5.25 7.25 5.5 7.45 M-13.05 9.75 L-12.35 1.8 -12.35 1.85 -11.25 5.55 -9.65 8.85 Q-8.65 10.85 -7.25 12.05 -5.9 13.2 -3.9 15.7 L-1.1 19.25 2.2 22.2 4.25 24.2 -3.5 24.25 Q-6.5 21.25 -9.85 15.5 L-13.05 9.75" fill="#7c92ec" fill-rule="evenodd" stroke="none"/>
    <path d="M-42.5 -6.6 Q-42.85 -8.8 -41.75 -11.25 -40.8 -13.5 -40.0 -13.5 L-29.85 -13.25 -22.5 -14.2 -22.5 -10.1 -23.7 -5.6 Q-24.45 -2.85 -24.5 -1.1 L-25.0 17.15 Q-25.0 23.3 -24.55 24.6 L-37.85 24.25 -40.35 23.2 -40.6 23.05 -43.65 21.1 -45.0 19.5 Q-44.5 18.5 -42.75 16.95 -41.5 15.85 -41.5 14.25 -41.5 13.6 -41.9 13.15 -42.5 12.45 -44.5 11.5 -45.2 11.15 -46.0 9.85 L-47.0 8.05 -43.2 5.55 Q-42.5 5.0 -42.5 3.15 -42.5 2.15 -43.0 1.55 L-45.0 -0.35 Q-42.25 -1.2 -42.0 -3.2 L-42.5 -6.6" fill="#023f60" fill-rule="evenodd" stroke="none"/>
  </g>
</svg>
