<?xml version="1.0" encoding="UTF-8" standalone="no"?>
<svg xmlns:ffdec="https://www.free-decompiler.com/flash" xmlns:xlink="http://www.w3.org/1999/xlink" ffdec:objectType="shape" height="72.75px" width="58.5px" xmlns="http://www.w3.org/2000/svg">
  <g transform="matrix(1.0, 0.0, 0.0, 1.0, -65.5, 104.75)">
    <path d="M65.75 -104.75 Q70.0 -104.65 76.35 -99.65 80.15 -96.65 85.55 -91.0 L94.15 -82.55 Q99.25 -77.5 102.55 -73.5 104.9 -70.7 108.7 -64.5 112.3 -58.65 115.05 -55.5 119.35 -50.6 120.8 -46.5 L122.65 -42.25 Q124.0 -38.9 124.0 -37.6 124.0 -36.2 123.8 -35.85 123.3 -34.8 121.05 -34.2 L109.5 -33.0 102.75 -32.0 Q95.1 -32.0 94.2 -33.35 93.85 -33.95 93.55 -36.0 93.2 -38.65 92.5 -40.7 L89.5 -49.7 Q87.9 -53.4 86.55 -58.6 L84.25 -67.7 Q81.7 -76.95 77.5 -85.6 76.15 -88.45 70.55 -96.05 65.5 -102.9 65.5 -103.6 L65.55 -104.35 65.75 -104.75 M74.0 -97.1 L74.1 -97.15 74.0 -97.25 74.0 -97.1" fill="#555555" fill-opacity="0.49803922" fill-rule="evenodd" stroke="none"/>
  </g>
</svg>
