<?xml version="1.0" encoding="UTF-8" standalone="no"?>
<svg xmlns:ffdec="https://www.free-decompiler.com/flash" xmlns:xlink="http://www.w3.org/1999/xlink" ffdec:objectType="shape" height="74.4px" width="79.5px" xmlns="http://www.w3.org/2000/svg">
  <g transform="matrix(1.0, 0.0, 0.0, 1.0, 30.0, 27.9)">
    <path d="M-19.65 2.4 L-19.75 1.9 -19.35 1.7 -19.5 2.0 -19.65 2.4 M-16.8 -25.65 L-17.05 -25.55 -17.05 -25.6 -16.8 -25.65 M-13.5 13.75 L-13.5 13.6 -13.45 13.7 -13.5 13.75" fill="#5b6171" fill-rule="evenodd" stroke="none"/>
    <path d="M15.15 -18.8 L15.95 -18.95 29.05 -18.5 29.3 -18.35 29.5 -17.5 29.5 -17.3 Q31.2 -15.65 31.75 -12.5 L32.0 -5.3 32.0 -5.1 32.0 -4.4 31.95 -3.6 31.75 -3.25 30.25 -3.0 28.9 -3.1 28.85 -2.75 30.0 -1.2 31.2 0.85 31.3 0.75 Q33.5 3.9 33.5 5.35 L33.5 5.5 36.5 5.5 Q43.2 5.5 44.75 5.7 47.95 6.1 48.8 7.75 49.5 9.1 49.5 10.85 49.5 13.3 48.0 16.3 46.55 19.2 44.6 19.85 43.95 20.45 42.25 21.05 38.25 22.5 30.25 22.5 25.8 22.5 24.05 21.5 L23.5 22.65 Q24.55 23.95 25.05 26.25 L27.55 30.0 Q29.1 32.6 29.0 34.5 L28.9 34.75 28.9 34.8 Q30.2 35.65 31.55 37.75 33.5 40.85 33.5 42.6 L33.4 43.45 Q33.25 43.65 33.25 43.8 L31.0 44.0 30.25 43.95 29.55 44.35 22.55 45.25 14.7 45.95 9.25 46.5 -3.2 46.05 -21.1 45.25 -23.2 44.75 -23.95 44.5 -24.0 44.5 -24.05 44.45 -25.0 43.8 -25.0 42.75 Q-25.0 41.95 -24.05 39.5 L-23.15 37.5 -23.7 37.3 -23.75 37.25 -23.8 37.15 -24.0 36.25 -23.95 35.45 -23.75 35.1 -23.75 35.05 Q-24.05 35.0 -23.75 35.0 L-24.0 33.55 Q-24.0 31.05 -22.7 27.2 -21.4 23.25 -20.05 22.1 L-20.35 20.95 Q-20.45 19.9 -20.0 19.3 L-20.0 16.1 Q-20.0 13.2 -20.4 9.9 L-20.5 9.8 -20.45 9.75 -21.1 5.9 -21.9 2.3 -23.0 3.0 Q-25.45 4.5 -26.0 4.5 -28.55 4.5 -29.5 -4.25 -30.0 -8.65 -30.0 -13.15 -30.0 -19.75 -29.05 -22.3 -26.85 -28.05 -19.85 -27.65 L-19.75 -27.85 -18.75 -27.55 -18.45 -27.5 -18.25 -27.85 Q-13.65 -28.15 -7.95 -25.85 L1.5 -21.6 1.5 -21.55 1.85 -21.4 2.05 -21.45 Q3.65 -21.7 8.55 -20.75 L13.05 -19.55 15.15 -18.8 M18.2 -15.25 L18.4 -14.5 18.6 -13.0 19.0 -10.05 19.05 -9.95 19.35 -8.5 19.5 -7.85 19.5 -5.05 19.5 -3.0 19.5 0.7 25.05 0.5 25.5 -0.9 25.9 -1.85 26.55 -3.2 26.8 -3.65 27.5 -4.55 27.5 -4.65 27.55 -5.5 27.75 -5.85 28.65 -5.9 30.0 -5.85 29.8 -8.5 29.45 -10.5 28.75 -13.3 28.75 -13.4 28.25 -15.05 27.8 -16.5 26.5 -16.5 17.4 -16.9 18.2 -15.25 M16.25 -11.5 L15.9 -13.0 15.45 -14.5 14.35 -17.0 8.75 -18.15 4.2 -19.1 4.55 -18.5 Q5.8 -16.35 6.35 -13.75 L6.55 -12.85 6.55 -12.75 6.9 -9.05 7.0 -7.4 7.05 -6.95 7.2 -4.5 7.4 -2.45 7.45 -2.2 4.8 -2.3 1.5 -2.35 0.6 -2.35 -0.4 -2.65 -3.0 -3.5 -4.35 -3.85 -4.55 -4.4 -4.65 -4.7 Q-5.8 -5.55 -6.45 -9.15 L-7.5 -9.0 Q-9.45 -9.0 -12.15 -10.45 L-13.7 -11.35 -13.65 -10.7 Q-14.9 -10.05 -16.0 -8.35 L-16.0 -8.5 -16.6 -7.85 Q-18.45 -5.75 -20.0 -5.0 L-22.15 -5.0 -21.5 -2.8 -21.5 -2.05 Q-20.85 -1.3 -20.25 0.3 L-20.0 0.05 -19.95 0.25 -19.85 0.65 -19.25 1.65 -18.7 1.35 -19.35 1.7 -19.75 1.9 -19.65 2.4 -19.2 4.45 -18.65 7.75 -18.6 7.95 -18.5 7.85 -18.5 8.0 -18.3 9.55 -18.25 9.65 -18.2 9.95 -18.05 10.35 -18.3 10.4 -18.1 12.95 Q-16.65 12.1 -13.6 10.9 -7.1 8.45 -2.5 8.75 L11.2 9.15 Q17.7 9.8 23.0 11.7 L22.85 8.6 22.5 8.9 22.5 8.15 22.5 7.05 22.8 7.3 22.75 7.05 22.7 6.05 22.5 3.3 22.55 2.5 19.65 2.5 19.5 2.6 19.4 2.7 18.45 1.85 18.0 1.6 18.0 1.0 18.0 0.9 Q18.0 -0.8 17.55 -1.7 L17.35 -2.05 17.3 -2.85 17.25 -5.1 17.05 -7.7 17.0 -8.0 16.25 -11.5 M3.4 -15.05 L2.85 -16.0 2.2 -17.15 0.05 -20.5 Q-1.35 -20.6 -4.3 -21.75 L-4.5 -21.85 -6.35 -22.6 -6.9 -22.9 -8.0 -23.5 -12.5 -25.0 -15.15 -25.5 -16.2 -25.6 -16.5 -25.5 -16.8 -25.65 -17.1 -25.7 -17.05 -25.6 -17.05 -25.55 -16.05 -23.35 -15.45 -21.45 -14.9 -19.05 -13.85 -13.15 -11.1 -12.85 Q-8.1 -11.35 -6.25 -10.85 L-6.1 -11.05 -5.75 -10.75 -5.6 -10.75 -5.25 -10.5 -4.9 -10.65 -4.7 -10.35 -4.0 -9.15 -3.45 -8.05 Q-3.0 -6.9 -3.0 -6.0 L-3.0 -5.75 Q2.35 -4.75 5.0 -3.65 L4.95 -4.9 5.0 -6.5 5.0 -8.7 5.0 -11.0 4.65 -12.2 3.4 -15.05 M47.2 9.45 L46.75 8.05 38.3 7.85 32.55 7.65 Q30.65 11.0 24.9 18.5 25.85 18.5 25.85 18.75 L25.55 19.4 Q25.35 20.25 30.4 20.25 39.45 20.25 42.05 18.75 42.2 18.3 43.15 17.65 L43.55 17.4 Q45.35 16.25 46.0 15.05 47.5 12.35 47.5 11.0 L47.2 9.45 M25.4 14.85 L30.55 6.85 30.5 6.4 Q30.5 5.75 31.3 5.6 L31.3 5.5 Q31.3 4.65 30.3 3.5 29.65 3.35 28.95 2.5 L28.3 2.5 28.85 2.4 28.05 1.0 27.7 0.3 Q27.1 1.7 26.5 2.0 L26.0 1.7 26.45 2.1 28.15 2.5 24.3 2.5 24.85 5.65 25.0 10.6 25.0 11.85 25.0 13.0 25.0 14.65 24.95 15.35 24.95 15.55 25.05 15.4 25.4 14.85 M21.9 20.75 L22.45 19.05 22.5 19.0 22.5 17.9 22.65 16.0 22.55 16.0 22.5 16.0 22.5 14.0 19.9 13.35 16.3 12.25 Q14.1 11.45 12.75 11.2 L3.9 10.75 Q-6.5 10.75 -12.9 13.15 L-13.55 13.4 -13.6 13.4 -13.6 13.45 Q-16.3 14.45 -18.0 15.5 L-18.0 18.25 -16.75 18.5 -18.0 18.5 -18.1 19.95 -18.4 21.45 -18.45 21.65 -18.05 21.5 -17.8 21.45 -17.75 21.45 -17.6 21.4 -17.45 21.4 -14.2 20.75 -8.0 19.75 Q-8.0 19.55 0.45 19.6 L11.5 20.0 17.5 20.25 21.75 20.7 21.9 20.8 21.9 20.75 M22.6 26.05 L21.5 23.9 21.25 23.75 Q21.05 23.6 21.0 23.05 L21.0 23.0 17.55 22.8 13.2 22.55 10.7 22.4 -0.05 21.75 Q-8.05 21.75 -11.2 21.9 L-13.05 22.05 -13.1 22.05 -13.25 22.1 Q-13.5 22.2 -13.4 22.55 -13.6 22.85 -15.0 23.2 L-15.15 23.25 -15.35 23.25 Q-16.65 23.45 -17.75 24.05 L-19.25 24.5 -19.6 25.5 -19.85 26.25 -19.9 26.3 -19.95 26.45 -20.8 28.8 -21.1 29.75 -21.2 30.35 -21.65 32.75 -21.7 33.0 -22.0 35.05 -17.4 35.3 -17.35 35.3 -16.25 35.35 -15.1 35.4 -13.15 35.5 -12.85 35.55 2.4 36.25 16.4 35.75 19.55 35.5 21.0 35.4 21.05 35.4 27.05 34.85 27.0 34.25 27.15 34.25 26.4 33.1 25.85 32.15 24.0 28.75 23.95 28.7 24.0 28.7 22.65 26.05 22.6 26.05 M-16.85 43.5 Q-7.95 44.25 9.6 44.25 L14.85 43.8 22.5 43.0 23.45 42.9 28.15 42.35 28.65 42.3 29.2 41.95 31.0 41.75 28.6 38.3 27.45 36.15 24.75 37.1 21.65 37.65 2.5 38.5 -16.4 37.85 -20.5 37.65 -20.65 37.65 -21.05 37.65 -21.45 37.6 -21.5 37.6 -21.5 38.0 Q-21.5 38.5 -22.25 40.7 L-22.8 42.65 -17.6 43.4 -16.85 43.5 M-28.0 -13.5 Q-28.0 -10.55 -27.4 -6.45 -26.65 -1.7 -26.5 1.5 L-26.55 1.65 -25.85 1.8 -23.95 0.9 -22.55 0.35 Q-23.25 -1.45 -24.0 -2.35 L-23.9 -2.4 Q-25.25 -4.2 -26.0 -9.6 -26.5 -12.8 -26.5 -17.85 -26.5 -20.95 -26.3 -21.6 -25.8 -23.15 -23.6 -25.0 -26.8 -24.1 -27.75 -19.5 -28.35 -16.6 -28.0 -13.5 M-17.5 -1.5 L-17.5 -1.4 -17.6 -1.45 -17.65 -1.45 -17.85 -1.45 -17.45 -1.65 -17.5 -1.5 M-17.0 0.55 L-17.0 0.25 -17.0 0.15 -16.9 0.5 -17.0 0.55" fill="#000000" fill-rule="evenodd" stroke="none"/>
    <path d="M18.65 7.95 L18.65 7.9 19.0 8.0 18.65 7.95" fill="#969cab" fill-rule="evenodd" stroke="none"/>
    <path d="M47.2 9.45 L47.5 11.0 Q47.5 12.35 46.0 15.05 45.35 16.25 43.55 17.4 L43.15 17.65 Q42.2 18.3 42.05 18.75 39.45 20.25 30.4 20.25 25.35 20.25 25.55 19.4 L25.85 18.75 Q25.85 18.5 24.9 18.5 30.65 11.0 32.55 7.65 L38.3 7.85 46.75 8.05 47.2 9.45" fill="#cdac98" fill-rule="evenodd" stroke="none"/>
    <path d="M23.45 42.9 L22.8 41.55 22.0 38.9 21.65 37.65 24.75 37.1 27.45 36.15 28.6 38.3 31.0 41.75 29.2 41.95 28.65 42.3 28.15 42.35 23.45 42.9 M-16.4 37.85 L-15.5 37.9 -15.65 41.6 -16.05 43.55 -16.85 43.5 -17.6 43.4 -22.8 42.65 -22.25 40.7 Q-21.5 38.5 -21.5 38.0 L-21.45 37.6 -21.05 37.65 -20.65 37.65 -20.5 37.65 -16.4 37.85" fill="#046193" fill-rule="evenodd" stroke="none"/>
    <path d="M26.5 2.0 Q27.1 1.7 27.7 0.3 L28.05 1.0 28.85 2.4 28.3 2.5 28.95 2.5 Q29.65 3.35 30.3 3.5 31.3 4.65 31.3 5.5 L31.3 5.6 Q30.5 5.75 30.5 6.4 L30.55 6.85 25.4 14.85 25.0 14.65 25.0 13.0 25.0 11.85 25.0 10.6 24.85 5.65 24.3 2.5 28.15 2.5 26.45 2.1 26.5 2.0 M23.45 42.9 L22.5 43.0 14.85 43.8 9.6 44.25 Q-7.95 44.25 -16.85 43.5 L-16.05 43.55 -15.65 41.6 -15.5 37.9 -16.4 37.85 2.5 38.5 21.65 37.65 22.0 38.9 22.8 41.55 23.45 42.9" fill="#023f60" fill-rule="evenodd" stroke="none"/>
    <path d="M-15.0 23.2 L-15.1 23.55 -15.15 23.25 -15.0 23.2 M19.55 35.5 L16.4 35.75 16.6 35.75 19.6 35.5 19.55 35.5 M-16.25 35.35 L-17.35 35.3 -17.4 35.3 -17.45 35.3 -16.25 35.35" fill="#942403" fill-rule="evenodd" stroke="none"/>
    <path d="M25.0 14.65 L25.4 14.85 25.05 15.4 24.95 15.35 25.0 14.65" fill="#731c02" fill-rule="evenodd" stroke="none"/>
    <path d="M18.6 -13.0 L18.4 -14.5 18.2 -15.25 18.25 -15.35 19.0 -15.5 28.1 -15.5 28.25 -15.05 28.75 -13.4 24.5 -13.0 18.6 -13.0 M15.45 -14.5 L15.9 -13.0 16.25 -11.5 Q9.05 -11.65 6.55 -12.85 L6.35 -13.75 6.15 -14.75 12.7 -14.85 15.45 -14.5 M17.05 -7.7 L17.25 -5.1 Q15.85 -5.3 14.95 -5.95 13.75 -6.85 7.05 -6.95 L7.0 -7.4 6.9 -9.05 14.5 -8.5 17.05 -7.7 M17.55 -1.7 Q18.0 -0.8 18.0 0.9 L4.8 -2.3 7.45 -2.2 7.4 -2.45 7.2 -4.5 Q12.1 -3.75 17.55 -1.7 M22.7 6.05 L22.75 7.05 22.8 7.3 22.5 7.05 22.5 8.15 17.7 6.65 Q11.85 4.75 10.15 4.75 -2.5 4.75 -7.7 6.0 -10.3 6.65 -18.1 10.15 L-18.2 9.95 -18.25 9.65 -18.3 9.55 -18.5 8.0 -18.5 7.85 -18.6 7.95 -18.65 7.75 -17.2 6.65 Q-14.35 4.9 -5.6 3.75 9.15 1.75 16.2 3.65 17.75 4.05 20.95 5.4 L22.7 6.05 M-19.35 1.7 L-18.7 1.35 -19.25 1.65 -19.85 0.65 Q-19.4 -0.55 -17.6 -1.45 L-17.5 -1.4 -17.5 -1.5 -15.05 -2.4 -4.55 -4.4 -4.35 -3.85 -3.0 -3.5 -0.4 -2.65 Q-6.75 -2.3 -11.6 -0.1 -17.45 2.5 -18.5 2.5 L-19.6 2.25 -19.5 2.0 -19.35 1.7 M4.65 -12.2 L-2.95 -14.0 -14.4 -16.75 -14.85 -18.95 -12.35 -18.75 -4.5 -16.5 Q-2.9 -15.75 2.55 -15.15 L3.4 -15.05 4.65 -12.2 M2.2 -17.15 L-4.2 -19.0 Q-10.85 -20.95 -15.45 -21.45 L-16.05 -23.35 -15.75 -23.6 Q-15.05 -24.0 -14.0 -24.0 -11.45 -24.0 -6.9 -22.9 L-6.35 -22.6 -4.5 -21.85 -4.3 -21.75 Q-1.35 -20.6 0.05 -20.5 L2.2 -17.15 M-4.7 -10.35 L-3.0 -10.25 5.0 -8.7 5.0 -6.5 -1.0 -7.4 -3.45 -8.05 -4.0 -9.15 -4.7 -10.35 M19.0 -10.05 L19.3 -10.15 29.45 -10.5 29.8 -8.5 19.35 -8.5 19.05 -9.95 19.0 -10.05 M19.5 -5.05 L24.0 -5.25 27.55 -5.5 27.5 -4.65 27.5 -4.55 26.8 -3.65 26.55 -3.2 24.0 -3.0 19.5 -3.0 19.5 -5.05 M-19.6 25.5 L-19.45 25.1 -16.0 24.55 18.05 25.75 22.6 26.05 22.65 26.05 24.0 28.7 23.95 28.7 21.0 28.15 -2.8 27.25 -10.95 27.4 -18.85 27.75 -20.0 28.3 -20.75 28.75 -20.8 28.8 -19.95 26.45 -19.9 26.3 -19.85 26.25 -19.6 25.5 M25.85 32.15 L26.4 33.1 13.75 33.5 -6.6 32.25 Q-14.6 31.95 -16.4 32.35 L-18.5 33.0 -21.7 33.0 -21.65 32.75 -21.2 30.35 -8.85 29.95 25.2 31.0 25.85 32.15 M-17.0 0.55 L-16.9 0.5 -17.0 0.15 -17.0 0.25 -17.0 0.55" fill="#333a42" fill-rule="evenodd" stroke="none"/>
    <path d="M18.6 -13.0 L24.5 -13.0 28.75 -13.4 28.75 -13.3 29.45 -10.5 19.3 -10.15 19.0 -10.05 18.6 -13.0 M28.25 -15.05 L28.1 -15.5 19.0 -15.5 18.25 -15.35 18.2 -15.25 17.4 -16.9 26.5 -16.5 27.8 -16.5 28.25 -15.05 M15.45 -14.5 L12.7 -14.85 6.15 -14.75 6.35 -13.75 Q5.8 -16.35 4.55 -18.5 L4.2 -19.1 8.75 -18.15 14.35 -17.0 15.45 -14.5 M6.55 -12.85 Q9.05 -11.65 16.25 -11.5 L17.0 -8.0 17.05 -7.7 14.5 -8.5 6.9 -9.05 6.55 -12.75 6.55 -12.85 M17.25 -5.1 L17.3 -2.85 17.35 -2.05 17.55 -1.7 Q12.1 -3.75 7.2 -4.5 L7.05 -6.95 Q13.75 -6.85 14.95 -5.95 15.85 -5.3 17.25 -5.1 M18.0 0.9 L18.0 1.0 18.0 1.6 18.45 1.85 19.4 2.7 19.5 2.6 19.65 2.5 22.55 2.5 22.5 3.3 22.7 6.05 20.95 5.4 Q17.75 4.05 16.2 3.65 9.15 1.75 -5.6 3.75 -14.35 4.9 -17.2 6.65 L-18.65 7.75 -19.2 4.45 -19.65 2.4 -19.5 2.0 -19.6 2.25 -18.5 2.5 Q-17.45 2.5 -11.6 -0.1 -6.75 -2.3 -0.4 -2.65 L0.6 -2.35 1.5 -2.35 4.8 -2.3 18.0 0.9 M22.5 8.15 L22.5 8.9 22.85 8.6 23.0 11.7 Q17.7 9.8 11.2 9.15 L-2.5 8.75 Q-7.1 8.45 -13.6 10.9 -16.65 12.1 -18.1 12.95 L-18.3 10.4 -18.05 10.35 -18.2 9.95 -18.1 10.15 Q-10.3 6.65 -7.7 6.0 -2.5 4.75 10.15 4.75 11.85 4.75 17.7 6.65 L22.5 8.15 M-19.85 0.65 L-19.95 0.25 -20.0 0.05 -20.25 0.3 Q-20.85 -1.3 -21.5 -2.05 L-21.5 -2.8 -22.15 -5.0 -20.0 -5.0 Q-18.45 -5.75 -16.6 -7.85 L-16.0 -8.5 -16.0 -8.35 Q-14.9 -10.05 -13.65 -10.7 L-13.7 -11.35 -12.15 -10.45 Q-9.45 -9.0 -7.5 -9.0 L-6.45 -9.15 Q-5.8 -5.55 -4.65 -4.7 L-4.55 -4.4 -15.05 -2.4 -17.5 -1.5 -17.45 -1.65 -17.85 -1.45 -17.65 -1.45 -17.6 -1.45 Q-19.4 -0.55 -19.85 0.65 M3.4 -15.05 L2.55 -15.15 Q-2.9 -15.75 -4.5 -16.5 L-12.35 -18.75 -14.85 -18.95 -14.4 -16.75 -2.95 -14.0 4.65 -12.2 5.0 -11.0 5.0 -8.7 -3.0 -10.25 -4.7 -10.35 -4.9 -10.65 -5.25 -10.5 -5.6 -10.75 -5.75 -10.75 -6.1 -11.05 -6.25 -10.85 Q-8.1 -11.35 -11.1 -12.85 L-13.85 -13.15 -14.9 -19.05 -15.45 -21.45 Q-10.85 -20.95 -4.2 -19.0 L2.2 -17.15 2.85 -16.0 3.4 -15.05 M-6.9 -22.9 Q-11.45 -24.0 -14.0 -24.0 -15.05 -24.0 -15.75 -23.6 L-16.05 -23.35 -17.05 -25.55 -16.8 -25.65 -16.5 -25.5 -16.2 -25.6 -15.15 -25.5 -12.5 -25.0 -8.0 -23.5 -6.9 -22.9 M5.0 -6.5 L4.95 -4.9 5.0 -3.65 Q2.35 -4.75 -3.0 -5.75 L-3.0 -6.0 Q-3.0 -6.9 -3.45 -8.05 L-1.0 -7.4 5.0 -6.5 M19.35 -8.5 L29.8 -8.5 30.0 -5.85 28.65 -5.9 27.75 -5.85 27.55 -5.5 24.0 -5.25 19.5 -5.05 19.5 -7.85 19.35 -8.5 M19.5 -3.0 L24.0 -3.0 26.55 -3.2 25.9 -1.85 25.5 -0.9 25.05 0.5 19.5 0.7 19.5 -3.0 M-15.0 23.2 Q-13.6 22.85 -13.4 22.55 -13.5 22.2 -13.25 22.1 L-13.1 22.05 -13.05 22.05 -11.2 21.9 Q-8.05 21.75 -0.05 21.75 L10.7 22.4 13.2 22.55 17.55 22.8 21.0 23.0 21.0 23.05 Q21.05 23.6 21.25 23.75 L21.5 23.9 22.6 26.05 18.05 25.75 -16.0 24.55 -19.45 25.1 -19.6 25.5 -19.25 24.5 -17.75 24.05 Q-16.65 23.45 -15.35 23.25 L-15.15 23.25 -15.1 23.55 -15.0 23.2 M23.95 28.7 L24.0 28.75 25.85 32.15 25.2 31.0 -8.85 29.95 -21.2 30.35 -21.1 29.75 -20.8 28.8 -20.75 28.75 -20.0 28.3 -18.85 27.75 -10.95 27.4 -2.8 27.25 21.0 28.15 23.95 28.7 M26.4 33.1 L27.15 34.25 27.0 34.25 27.05 34.85 21.05 35.4 21.0 35.4 19.55 35.5 19.6 35.5 16.6 35.75 16.4 35.75 2.4 36.25 -12.85 35.55 -13.15 35.5 -15.1 35.4 -16.25 35.35 -17.45 35.3 -17.4 35.3 -22.0 35.05 -21.7 33.0 -18.5 33.0 -16.4 32.35 Q-14.6 31.95 -6.6 32.25 L13.75 33.5 26.4 33.1 M18.65 7.95 L19.0 8.0 18.65 7.9 18.65 7.95 M-28.0 -13.5 Q-28.35 -16.6 -27.75 -19.5 -26.8 -24.1 -23.6 -25.0 -25.8 -23.15 -26.3 -21.6 -26.5 -20.95 -26.5 -17.85 -26.5 -12.8 -26.0 -9.6 -25.25 -4.2 -23.9 -2.4 L-24.0 -2.35 Q-23.25 -1.45 -22.55 0.35 L-23.95 0.9 -25.85 1.8 -26.55 1.65 -26.5 1.5 Q-26.65 -1.7 -27.4 -6.45 -28.0 -10.55 -28.0 -13.5" fill="#4e5963" fill-rule="evenodd" stroke="none"/>
    <path d="M-18.4 21.45 L-18.1 19.95 -18.0 18.5 -16.75 18.5 -18.0 18.25 -18.0 15.5 Q-16.3 14.45 -13.6 13.45 L-13.6 13.4 -13.55 13.4 -12.9 13.15 Q-6.5 10.75 3.9 10.75 L12.75 11.2 Q14.1 11.45 16.3 12.25 L19.9 13.35 22.5 14.0 22.5 16.0 22.55 16.0 22.65 16.0 22.5 17.9 22.5 19.0 22.45 19.05 21.9 20.75 21.75 20.7 17.5 20.25 11.5 20.0 0.45 19.6 Q-8.0 19.55 -8.0 19.75 L-14.2 20.75 -17.45 21.4 -17.6 21.4 -17.75 21.45 -17.8 21.45 -18.05 21.5 -18.4 21.45 M-13.5 13.75 L-13.45 13.7 -13.5 13.6 -13.5 13.75" fill="#221c15" fill-rule="evenodd" stroke="none"/>
  </g>
</svg>
