<?xml version="1.0" encoding="UTF-8" standalone="no"?>
<svg xmlns:ffdec="https://www.free-decompiler.com/flash" xmlns:xlink="http://www.w3.org/1999/xlink" ffdec:objectType="shape" height="140.65px" width="207.65px" xmlns="http://www.w3.org/2000/svg">
  <g transform="matrix(1.0, 0.0, 0.0, 1.0, 75.3, 188.6)">
    <path d="M-53.4 -154.95 Q-56.0 -156.6 -57.6 -157.25 L-63.5 -159.55 -70.05 -161.85 -75.2 -163.35 -75.3 -163.45 -74.75 -163.95 Q-65.2 -172.55 -57.5 -176.85 -41.05 -186.1 -21.75 -188.0 -8.2 -189.4 12.8 -187.55 L13.6 -187.2 Q16.1 -186.2 23.0 -184.9 L28.0 -182.85 Q32.4 -180.85 33.2 -180.6 37.35 -179.4 46.1 -175.45 L55.65 -169.6 68.7 -161.85 Q73.65 -158.6 76.9 -155.5 L88.6 -143.6 88.8 -143.45 Q90.45 -139.55 92.55 -138.05 L97.15 -134.3 102.65 -126.8 110.4 -114.65 Q114.85 -107.55 116.95 -102.65 L122.2 -90.5 Q124.8 -84.25 126.55 -79.0 L127.65 -75.05 128.1 -72.95 Q128.85 -70.05 129.45 -64.95 L130.45 -57.25 Q131.15 -53.2 132.35 -47.95 131.55 -48.55 130.85 -53.55 L130.85 -53.8 130.15 -53.85 117.55 -54.5 114.0 -64.6 108.5 -79.55 105.3 -87.45 Q103.4 -91.8 101.3 -94.65 98.9 -97.7 95.95 -102.25 L90.4 -110.5 Q84.1 -119.5 78.0 -126.0 70.0 -134.65 60.95 -140.65 59.1 -141.85 51.4 -147.55 46.15 -151.45 41.45 -153.75 L40.9 -154.5 Q37.55 -156.05 32.65 -158.5 L23.3 -162.4 22.3 -162.6 22.3 -162.75 Q15.3 -165.55 11.8 -166.25 L11.45 -166.35 8.55 -166.75 7.85 -166.9 7.15 -166.95 -15.35 -168.1 -32.2 -166.4 -33.2 -166.05 -39.45 -163.85 Q-45.35 -161.9 -49.4 -159.0 -52.45 -156.85 -53.4 -154.95 M88.05 -54.8 L84.35 -54.0 76.2 -51.6 70.1 -49.95 Q69.3 -50.05 67.35 -53.85 65.3 -57.85 65.45 -60.1 L65.4 -60.9 Q64.55 -62.4 63.6 -64.45 62.15 -67.35 61.8 -68.8 L59.5 -77.15 59.35 -77.95 57.8 -80.2 Q54.8 -84.4 52.35 -90.15 L51.55 -91.4 50.15 -93.25 47.95 -95.8 47.25 -97.6 Q46.15 -100.25 42.7 -103.85 L43.0 -103.65 42.15 -104.6 37.75 -109.45 Q33.5 -114.5 27.6 -118.6 17.35 -125.65 5.6 -126.9 -12.6 -128.85 -18.75 -127.35 L-19.9 -126.95 Q-21.35 -129.55 -24.4 -133.75 -25.45 -135.3 -29.35 -138.05 L-30.35 -138.75 -28.25 -139.75 Q-25.8 -141.1 -24.25 -142.2 -22.75 -143.2 -19.55 -143.5 L-16.05 -143.8 -8.95 -144.4 6.95 -143.85 15.5 -142.65 16.45 -142.05 18.55 -141.9 Q23.35 -141.4 29.25 -137.6 L32.9 -135.0 34.15 -134.45 39.0 -131.6 Q41.35 -130.1 42.05 -128.8 L41.95 -128.65 43.15 -127.7 Q48.05 -124.7 49.25 -123.4 L60.6 -110.8 Q66.6 -103.9 68.85 -99.25 71.15 -94.4 76.1 -86.95 81.15 -79.3 83.1 -75.3 84.1 -73.25 85.2 -69.25 86.35 -64.85 86.85 -63.3 L87.75 -60.4 88.25 -57.45 88.05 -54.8 M70.5 -157.45 L71.2 -157.2 70.1 -157.85 70.5 -157.45 M72.0 -156.4 L72.3 -156.2 71.85 -156.6 72.0 -156.4" fill="#cdd7da" fill-opacity="0.49803922" fill-rule="evenodd" stroke="none"/>
    <path d="M-53.4 -154.95 Q-52.45 -156.85 -49.4 -159.0 -45.35 -161.9 -39.45 -163.85 L-33.2 -166.05 -32.2 -166.4 -15.35 -168.1 7.15 -166.95 7.85 -166.9 8.55 -166.75 11.45 -166.35 11.8 -166.25 Q15.3 -165.55 22.3 -162.75 L22.3 -162.6 23.3 -162.4 32.65 -158.5 Q37.55 -156.05 40.9 -154.5 L41.45 -153.75 Q46.15 -151.45 51.4 -147.55 59.1 -141.85 60.95 -140.65 70.0 -134.65 78.0 -126.0 84.1 -119.5 90.4 -110.5 L95.95 -102.25 Q98.9 -97.7 101.3 -94.65 103.4 -91.8 105.3 -87.45 L108.5 -79.55 114.0 -64.6 117.55 -54.5 114.55 -54.65 98.6 -55.45 90.95 -55.2 90.8 -55.2 90.6 -55.15 90.4 -55.2 89.9 -55.15 89.1 -55.0 88.6 -54.9 88.05 -54.8 88.25 -57.45 87.75 -60.4 86.85 -63.3 Q86.35 -64.85 85.2 -69.25 84.1 -73.25 83.1 -75.3 81.15 -79.3 76.1 -86.95 71.15 -94.4 68.85 -99.25 66.6 -103.9 60.6 -110.8 L49.25 -123.4 Q48.05 -124.7 43.15 -127.7 L41.95 -128.65 42.05 -128.8 Q41.35 -130.1 39.0 -131.6 L34.15 -134.45 32.9 -135.0 29.25 -137.6 Q23.35 -141.4 18.55 -141.9 L16.45 -142.05 15.5 -142.65 6.95 -143.85 -8.95 -144.4 -16.05 -143.8 -19.55 -143.5 Q-22.75 -143.2 -24.25 -142.2 -25.8 -141.1 -28.25 -139.75 L-30.35 -138.75 -30.45 -138.8 -31.15 -139.3 -32.55 -140.3 -32.85 -140.6 -33.2 -140.95 -34.3 -142.15 Q-37.15 -144.95 -40.5 -147.0 L-48.85 -151.7 -51.0 -153.3 -51.75 -153.85 -53.4 -154.95" fill="#535f60" fill-opacity="0.47058824" fill-rule="evenodd" stroke="none"/>
  </g>
</svg>
