<?xml version="1.0" encoding="UTF-8" standalone="no"?>
<svg xmlns:ffdec="https://www.free-decompiler.com/flash" xmlns:xlink="http://www.w3.org/1999/xlink" ffdec:objectType="shape" height="100.95px" width="132.4px" xmlns="http://www.w3.org/2000/svg">
  <g transform="matrix(1.0, 0.0, 0.0, 1.0, 78.0, 46.95)">
    <path d="M5.85 -26.95 L3.4 -26.1 3.0 -25.95 1.6 -25.45 3.0 -25.5 9.6 -25.05 19.3 -23.4 28.55 -21.25 33.0 -21.25 33.0 -25.35 24.8 -26.0 24.65 -26.1 Q24.5 -26.25 24.5 -27.0 24.5 -27.75 25.0 -27.9 L25.5 -28.0 27.85 -27.95 Q27.1 -28.7 26.4 -30.6 L26.3 -30.95 Q25.2 -33.75 23.9 -33.75 L23.0 -33.45 22.95 -33.05 22.75 -33.0 22.0 -32.5 21.5 -32.8 18.7 -31.65 Q13.65 -29.45 12.55 -29.25 L5.85 -26.95 M16.65 -33.0 L18.8 -33.75 20.4 -34.8 20.35 -34.95 20.1 -35.6 20.05 -35.7 20.0 -35.85 19.5 -36.8 Q18.5 -38.25 16.65 -38.25 15.7 -38.25 10.25 -36.6 L4.05 -34.75 1.55 -32.95 -0.7 -31.15 Q-0.25 -30.1 -0.05 -28.7 L0.0 -27.35 0.0 -26.85 0.15 -26.95 Q2.35 -28.1 8.7 -30.3 L9.45 -30.55 14.75 -32.35 16.55 -32.95 16.65 -33.0 M29.75 -27.9 Q34.35 -27.65 34.8 -26.85 35.15 -26.25 35.1 -25.35 L35.0 -23.65 35.0 -20.9 Q34.6 -19.85 33.35 -19.4 34.85 -18.3 36.3 -15.75 L36.85 -14.55 37.05 -14.5 37.45 -13.6 38.2 -13.3 40.25 -11.9 Q42.1 -10.4 45.3 -9.75 49.25 -8.9 50.6 -8.25 52.1 -7.5 52.75 -6.05 L53.4 -3.75 Q54.4 -0.85 54.4 0.5 54.4 3.0 53.25 5.7 51.5 9.75 48.1 9.75 42.55 9.75 31.75 7.6 20.85 5.45 19.15 3.15 L19.15 3.8 18.05 4.3 Q17.1 4.8 17.1 3.55 L17.1 3.05 15.0 1.45 14.2 0.7 13.3 -0.25 12.6 1.05 10.2 5.25 10.3 5.25 10.4 5.3 10.5 6.1 10.5 6.75 10.5 8.6 10.4 11.5 11.05 11.5 11.3 11.65 11.5 12.2 Q13.55 12.85 14.0 16.05 14.3 18.05 14.0 20.2 L16.55 24.95 Q19.0 29.75 19.0 31.9 L19.0 32.65 18.8 33.05 18.85 33.3 18.35 33.5 18.3 33.6 18.8 34.75 19.35 37.55 19.55 37.5 20.0 38.5 19.5 38.8 19.4 38.85 19.15 39.05 18.5 39.5 18.25 39.25 Q14.8 40.25 5.4 41.45 L-10.5 43.0 Q-30.85 43.0 -36.85 41.1 L-39.7 39.8 -43.0 39.3 -42.6 37.1 Q-47.9 37.45 -50.55 38.7 -52.2 39.5 -53.9 40.95 L-52.0 46.2 -49.5 52.75 -49.6 53.75 -49.6 53.9 -50.5 54.0 Q-60.45 54.0 -65.35 52.85 -67.95 52.25 -70.1 51.25 -73.4 50.4 -74.75 49.0 L-75.0 49.0 Q-77.5 49.0 -78.0 43.05 L-78.0 37.05 Q-78.0 15.1 -73.0 -2.25 -71.85 -6.1 -68.75 -12.0 L-63.35 -22.1 Q-62.15 -24.5 -60.3 -26.7 -57.85 -29.7 -54.85 -31.6 L-49.9 -33.9 -50.4 -34.7 -50.5 -35.8 Q-50.5 -39.95 -45.05 -42.1 -39.15 -44.45 -30.4 -41.15 -29.75 -42.65 -25.75 -44.15 -20.55 -46.1 -12.5 -46.75 -6.7 -47.55 1.55 -44.95 8.75 -42.65 11.35 -39.8 21.55 -42.5 22.85 -35.85 24.95 -36.4 26.45 -35.25 28.1 -33.95 30.0 -28.6 L29.75 -27.9 M4.75 -41.1 Q-2.7 -44.75 -9.5 -44.75 -16.25 -44.75 -22.5 -42.65 -25.5 -41.65 -28.1 -40.25 L-27.5 -40.0 Q-25.35 -38.55 -16.5 -34.35 -12.35 -32.4 -11.05 -30.95 L-10.1 -32.3 Q-8.4 -34.15 -6.0 -34.35 -3.55 -34.5 -1.85 -32.8 -1.3 -33.95 1.9 -35.85 5.15 -37.8 8.7 -39.0 L4.75 -41.1 M19.45 -20.4 L14.85 -19.55 12.55 -19.25 -1.5 -18.0 -39.0 -18.9 -43.1 -18.95 -42.45 -15.7 Q-42.0 -16.45 -37.95 -16.55 L-31.7 -16.5 -20.75 -15.75 Q7.6 -15.75 14.3 -17.4 L15.0 -17.6 Q16.25 -18.0 16.55 -18.55 L19.05 -18.4 19.1 -18.85 Q19.2 -19.8 19.45 -20.4 M15.25 -21.7 L15.55 -21.75 7.0 -22.55 -1.6 -23.0 -1.8 -23.1 -1.85 -23.15 Q-3.3 -22.0 -5.75 -22.0 -10.55 -22.0 -11.75 -24.35 -12.1 -25.0 -12.1 -25.7 L-13.5 -25.5 -29.0 -26.75 Q-36.6 -26.75 -39.55 -24.95 L-40.6 -24.1 -43.6 -20.85 -43.5 -20.6 -39.75 -21.0 -31.0 -21.0 Q-4.6 -20.25 -1.55 -20.25 L6.65 -20.65 10.2 -21.1 15.25 -21.7 M13.65 -15.05 L5.0 -14.0 Q-2.45 -13.5 -20.75 -13.5 L-27.95 -13.9 -36.9 -14.3 -42.1 -14.5 -42.2 -14.55 -42.15 -14.45 -41.95 -13.45 -41.75 -12.7 Q-41.3 -11.1 -40.65 -9.8 L-40.3 -9.05 -34.6 -9.55 -30.5 -9.5 Q-7.7 -8.75 0.4 -8.75 L11.45 -8.95 14.65 -9.35 Q14.95 -9.5 14.75 -9.8 14.65 -10.0 15.5 -10.0 L15.75 -9.85 18.5 -15.1 18.8 -16.55 Q16.8 -15.65 13.65 -15.05 M8.1 -2.8 L7.4 -2.8 Q-13.6 -2.7 -30.75 -2.2 L-35.3 -2.1 Q-33.8 0.1 -33.1 1.7 L-32.9 2.15 -33.0 1.55 -30.5 0.5 -29.35 0.55 -26.25 0.65 -19.5 1.0 -12.25 0.5 Q0.35 0.5 6.4 0.75 L9.7 0.95 11.2 -2.0 11.75 -2.9 8.1 -2.8 M17.25 -7.25 L16.25 -5.5 14.1 -1.6 15.3 -1.2 14.8 -1.4 Q15.3 -2.65 16.7 -4.9 L17.85 -6.6 18.25 -6.25 17.4 -7.1 17.25 -7.25 M19.65 -11.75 L19.7 -11.8 Q20.85 -12.95 22.65 -14.0 L23.35 -14.4 21.5 -18.1 Q21.4 -15.6 19.65 -11.75 M10.2 -6.65 Q6.55 -6.5 0.25 -6.5 L-39.1 -7.45 -36.7 -4.1 -32.0 -4.55 -31.4 -4.6 -25.5 -5.0 9.5 -5.4 13.3 -5.45 14.25 -7.05 10.2 -6.65 M17.5 0.05 L17.5 0.0 17.65 -0.45 17.75 -0.75 20.15 -4.45 18.7 -5.8 18.6 -5.9 18.55 -5.9 Q17.7 -5.0 16.75 -3.0 L15.9 -0.95 16.65 -0.5 17.05 0.55 17.3 1.05 17.5 0.05 M30.5 -19.0 Q27.0 -19.0 23.0 -20.0 L23.55 -18.8 Q24.5 -16.45 25.3 -15.25 L25.55 -14.9 Q25.65 -15.7 26.5 -16.0 L26.95 -15.7 28.75 -16.7 31.6 -17.9 Q31.15 -18.6 31.05 -19.0 L30.5 -19.0 M34.35 -14.25 L32.9 -16.1 31.75 -15.35 Q29.8 -14.2 28.25 -14.0 L28.15 -13.85 Q27.8 -13.5 27.0 -13.5 L26.6 -13.6 26.55 -13.5 27.45 -12.35 28.1 -11.45 29.0 -11.75 31.65 -13.15 34.35 -14.2 34.4 -14.2 34.35 -14.25 M24.55 -12.15 Q22.35 -12.05 20.8 -10.5 L19.3 -8.4 21.5 -6.15 Q23.05 -8.05 25.0 -9.55 L25.55 -9.95 25.05 -10.6 24.85 -11.2 24.75 -11.8 24.75 -11.85 24.7 -11.95 24.55 -12.15 M20.5 -0.5 L20.15 0.05 Q20.55 0.15 21.8 1.75 23.7 3.6 26.75 4.3 L33.0 6.05 Q39.25 7.4 47.8 7.4 49.95 7.4 51.25 4.95 52.25 3.1 52.25 1.35 L51.8 -0.95 Q51.3 -2.6 51.3 -3.25 51.3 -6.2 46.0 -7.65 39.05 -9.5 36.0 -12.4 L34.7 -12.2 Q32.7 -11.75 31.0 -10.9 L28.0 -8.6 Q24.55 -6.0 23.35 -4.25 L20.5 -0.5 M8.15 5.25 L8.5 5.25 8.55 4.7 8.9 3.0 5.6 3.05 -15.0 3.5 -23.4 3.15 -28.05 3.0 -32.6 3.0 -32.65 2.9 -32.6 3.05 -32.5 3.75 -32.35 3.75 -32.15 4.2 -30.85 4.75 -30.75 4.75 -27.2 4.9 5.15 5.25 8.15 5.25 M2.4 7.4 L0.4 7.45 -0.05 7.45 0.25 8.0 0.5 9.6 0.4 11.45 0.4 11.5 0.45 11.5 4.75 11.5 8.7 11.5 8.55 10.8 8.5 8.75 8.45 7.35 2.4 7.4 M9.9 21.25 L9.4 22.15 Q9.05 22.5 8.75 22.5 1.5 20.55 -0.1 19.25 L-1.55 18.25 -4.75 16.65 -7.15 15.65 -7.35 15.55 Q-7.75 15.55 -11.2 18.8 -13.45 20.95 -15.3 21.65 L-17.0 22.0 Q-20.75 22.0 -22.15 19.5 -22.75 18.45 -23.1 15.8 L-23.15 15.65 -23.15 15.55 Q-23.1 15.25 -23.85 15.25 -24.15 15.25 -24.9 15.75 L-27.0 17.15 Q-28.05 17.9 -29.3 18.35 -31.0 18.95 -33.0 19.0 L-33.6 19.0 -34.3 18.8 -34.5 18.3 Q-34.15 16.8 -31.65 16.15 L-28.35 15.3 -27.15 14.6 -26.15 14.0 -27.0 13.95 -29.55 13.85 -31.65 13.75 -32.65 15.1 -34.5 17.75 -34.75 19.0 -34.95 20.1 -35.05 20.7 -35.25 21.55 -35.35 22.15 -35.5 22.55 -35.1 22.5 -33.05 22.25 -32.2 22.1 Q-29.95 21.6 -28.25 20.5 L-26.8 19.4 -26.75 19.4 -26.2 19.0 -24.75 18.15 -24.65 18.1 -24.5 18.0 -24.45 18.05 -24.1 18.3 -24.0 18.4 -23.7 18.85 -23.45 19.45 -23.4 19.75 -23.2 21.35 -23.15 21.8 Q-22.95 22.6 -22.3 23.1 L-22.0 23.0 -21.7 23.5 -20.45 23.95 -19.35 24.15 -18.45 24.2 -18.1 24.25 -17.25 24.25 Q-14.1 24.25 -11.0 21.65 -8.4 19.0 -8.0 19.0 L-7.95 19.0 -7.75 18.55 -7.5 18.55 -7.05 18.6 -6.0 18.75 -5.5 19.8 -5.5 19.95 -5.55 20.1 -5.1 20.3 -4.9 20.35 -1.65 21.9 -1.0 22.2 0.35 22.8 Q5.05 24.75 7.65 24.75 L11.0 24.4 11.5 24.1 11.55 24.0 11.6 23.95 11.65 23.85 11.85 23.1 11.85 23.05 11.95 22.25 12.0 20.3 12.0 20.15 12.0 20.0 12.0 19.85 12.1 17.85 12.05 17.15 12.05 16.95 11.75 16.05 11.55 15.8 10.95 15.2 10.5 18.75 9.9 21.25 M8.3 15.7 Q8.3 14.3 8.7 13.55 L-5.1 13.75 -4.0 15.0 Q-3.1 15.5 -1.2 15.85 0.55 16.2 1.0 16.55 1.85 17.2 4.8 18.5 L8.3 19.8 8.3 18.35 8.3 15.7 M13.55 27.75 L15.05 27.5 14.8 27.25 13.7 24.85 Q12.7 26.5 9.7 26.9 L10.05 29.0 13.25 28.4 13.55 27.75 M15.1 32.45 L16.65 32.05 16.45 31.3 16.05 29.55 14.05 30.25 10.0 31.0 10.0 31.25 10.0 32.7 10.0 32.75 10.0 33.0 10.05 33.0 10.1 33.25 12.8 33.25 15.1 32.45 M11.55 35.5 L11.0 35.5 8.95 35.15 7.15 35.75 Q4.55 36.5 2.75 36.5 L1.55 36.35 Q0.7 37.0 -1.75 37.0 -4.85 37.0 -6.45 36.4 -7.3 37.0 -9.75 37.0 L-14.65 36.5 -23.0 36.5 -23.7 36.15 -23.8 36.0 -31.25 36.0 -31.5 36.0 -32.2 35.65 Q-32.5 35.4 -32.5 34.55 L-32.5 34.5 -38.0 34.5 -39.05 34.35 -39.4 35.85 Q-39.85 37.15 -40.5 37.8 L-32.95 39.3 -32.35 39.4 -10.5 40.75 7.4 39.5 12.1 38.75 17.35 37.9 Q16.75 36.7 16.3 34.8 14.45 35.45 11.55 35.5 M7.75 27.0 Q4.6 27.0 1.5 25.8 2.0 27.05 2.05 29.25 L7.85 29.1 7.85 28.25 8.05 27.05 8.05 27.0 7.75 27.0 M0.1 27.6 Q0.25 26.15 0.65 25.45 L-1.45 24.4 Q-4.25 22.75 -6.0 22.15 L-6.0 29.25 -0.55 29.25 0.05 29.25 0.1 27.6 M-6.0 31.55 L-6.0 34.25 -2.2 34.55 0.05 34.6 0.0 31.5 -0.5 31.5 -4.95 31.5 -6.0 31.5 -6.0 31.55 M2.0 34.25 L4.3 34.25 8.0 33.0 8.0 31.2 2.0 31.5 2.0 34.25 M-13.0 -29.25 L-22.3 -34.6 Q-33.45 -40.75 -37.5 -40.75 -42.65 -40.75 -45.55 -38.8 L-46.5 -38.05 Q-48.05 -36.6 -48.45 -34.85 L-48.5 -34.55 -48.1 -34.75 Q-42.95 -37.1 -39.55 -37.15 -36.0 -37.2 -36.0 -34.75 L-36.0 -34.6 -36.05 -34.05 -36.25 -34.0 Q-38.5 -33.7 -42.05 -34.05 -44.05 -34.25 -47.5 -32.6 L-51.25 -30.75 -54.35 -29.25 Q-58.8 -27.3 -62.1 -20.1 L-67.05 -10.6 Q-70.05 -4.8 -71.0 -1.0 -73.3 8.3 -74.65 18.75 -76.0 29.05 -76.0 37.0 L-75.5 42.8 -74.45 45.35 Q-73.85 46.55 -73.85 47.6 L-68.2 49.3 -64.0 50.55 -61.45 51.25 -61.35 51.25 -52.5 51.25 Q-55.4 44.4 -57.35 36.05 -59.5 27.0 -59.5 20.25 -59.5 13.3 -58.6 6.65 -57.5 -1.45 -55.35 -6.5 -52.05 -14.05 -47.75 -19.6 -44.0 -24.5 -41.5 -26.35 -40.85 -26.8 -40.15 -27.2 -37.3 -28.85 -33.15 -29.4 L-30.75 -29.6 Q-27.85 -29.8 -24.35 -29.5 L-19.2 -28.95 -19.05 -28.9 -13.2 -27.9 -11.95 -27.65 -11.85 -28.65 Q-12.25 -28.85 -12.85 -29.2 L-13.0 -29.25 M-45.0 -19.1 L-47.0 -16.35 Q-51.3 -10.15 -54.0 -4.0 -55.5 -0.5 -56.55 7.4 -57.5 14.6 -57.5 20.1 -57.5 23.25 -56.55 28.45 L-55.0 36.8 -54.4 39.35 -53.9 38.6 Q-53.2 37.55 -52.2 36.95 -49.5 35.3 -41.95 35.05 -41.5 33.85 -40.95 33.2 L-41.0 32.55 -40.15 29.65 -39.0 26.55 -38.35 23.5 Q-38.0 22.55 -37.5 22.15 L-37.1 19.65 -36.25 16.3 Q-35.4 14.05 -34.45 12.85 L-34.5 12.8 -34.5 8.5 Q-34.95 7.2 -34.9 6.0 -34.9 5.0 -34.35 4.45 -36.5 0.75 -41.85 -7.05 -45.0 -11.6 -45.0 -18.05 L-45.0 -19.1 M-9.65 -25.25 Q-8.85 -24.25 -5.75 -24.25 -3.1 -24.25 -2.25 -26.15 -1.85 -27.05 -2.0 -27.4 -2.0 -31.4 -6.0 -31.55 -10.0 -31.65 -10.0 -27.3 -10.0 -25.7 -9.65 -25.25 M-7.5 7.5 L-9.5 7.5 -10.75 7.5 -11.15 7.5 -12.75 7.5 -13.0 7.5 -13.0 8.1 -13.0 11.6 -7.3 11.55 -1.1 11.5 Q-1.5 10.65 -1.5 9.75 -1.5 8.2 -0.9 7.45 L-7.5 7.5 M-19.15 11.65 L-14.55 11.6 -15.0 9.55 -14.7 7.5 -19.8 7.4 -21.6 7.35 -24.5 7.25 -24.6 7.25 -24.5 7.5 -24.5 8.5 -24.5 11.7 -19.15 11.65 M-11.6 16.4 L-8.75 13.8 -21.9 13.95 Q-21.3 14.8 -20.9 16.4 -20.15 19.8 -18.5 19.8 -14.8 19.8 -11.6 16.4 M-8.0 21.9 L-10.9 24.15 Q-12.45 25.45 -14.25 26.05 -13.9 27.35 -13.7 29.05 L-8.0 29.2 -8.0 28.3 -8.25 24.1 -8.0 21.9 M-29.7 11.75 L-26.0 11.7 Q-26.5 10.7 -26.5 9.55 -26.5 7.95 -26.1 7.2 L-29.2 6.95 -32.4 6.55 -32.5 6.5 -32.5 6.65 -32.5 11.6 -31.35 11.75 -31.15 11.65 -31.05 11.8 -29.7 11.75 M-29.55 24.3 Q-29.1 25.8 -29.3 28.1 L-22.95 28.6 -23.0 25.3 -23.0 24.9 -23.75 24.15 Q-24.4 23.35 -25.25 21.05 -26.65 22.65 -28.0 23.5 L-29.55 24.3 M-20.95 28.75 L-15.95 29.0 -16.0 27.55 -15.95 26.4 -17.5 26.5 -20.9 26.0 -20.85 27.25 -20.95 28.75 M-23.8 33.45 L-23.65 32.3 -23.45 31.3 -29.65 31.05 -30.1 33.8 -24.0 33.95 -23.9 33.95 -23.8 33.45 M-21.5 31.8 L-21.5 34.3 -15.45 34.5 -15.45 33.65 Q-15.4 32.95 -15.5 32.5 L-15.65 31.45 -21.4 31.35 -21.5 31.8 M-32.85 30.15 L-37.1 29.5 -37.3 29.35 -37.4 29.25 -37.6 29.75 -38.5 31.8 -32.35 32.5 -32.25 32.5 -32.15 31.8 -32.1 31.45 -31.95 30.7 Q-32.25 30.5 -32.85 30.15 M-31.65 24.85 L-33.75 25.0 -36.15 24.75 Q-36.8 25.8 -37.0 27.4 L-36.75 27.35 -32.35 27.75 -31.6 27.85 -31.65 24.85 M-13.45 31.7 L-13.45 34.1 -13.5 34.3 -10.2 34.55 -8.0 34.6 -8.0 31.5 -12.95 31.45 -13.45 31.45 -13.45 31.7" fill="#000000" fill-rule="evenodd" stroke="none"/>
    <path d="M6.65 -20.65 L-1.55 -20.25 Q-4.6 -20.25 -31.0 -21.0 L-39.75 -21.0 -40.0 -21.85 Q-40.25 -23.25 -40.6 -24.1 L-39.55 -24.95 Q-36.6 -26.75 -29.0 -26.75 L-13.5 -25.5 -12.1 -25.7 Q-12.1 -25.0 -11.75 -24.35 -10.55 -22.0 -5.75 -22.0 -3.3 -22.0 -1.85 -23.15 L-1.8 -23.1 -1.6 -23.0 7.0 -22.55 7.0 -22.25 Q7.0 -21.4 6.65 -20.65 M13.65 -15.05 L13.3 -13.75 Q12.55 -11.1 11.8 -9.6 L11.45 -8.95 0.4 -8.75 Q-7.7 -8.75 -30.5 -9.5 L-34.6 -9.55 -36.25 -12.85 -36.9 -14.3 -27.95 -13.9 -20.75 -13.5 Q-2.45 -13.5 5.0 -14.0 L13.65 -15.05 M10.4 22.3 L10.05 22.25 9.4 22.15 9.9 21.25 10.45 22.25 10.45 22.3 10.5 22.35 10.4 22.3 M-7.15 15.65 L-11.55 19.8 Q-13.0 21.3 -15.3 21.65 -13.45 20.95 -11.2 18.8 -7.75 15.55 -7.35 15.55 L-7.15 15.65 M-23.15 15.65 L-24.0 15.55 -24.9 15.75 Q-24.15 15.25 -23.85 15.25 -23.1 15.25 -23.15 15.55 L-23.15 15.65 M8.3 15.7 L8.3 18.35 8.3 19.8 4.8 18.5 Q1.85 17.2 1.0 16.55 0.55 16.2 -1.2 15.85 -3.1 15.5 -4.0 15.0 L-5.1 13.75 8.7 13.55 Q8.3 14.3 8.3 15.7 M-11.6 16.4 Q-14.8 19.8 -18.5 19.8 -20.15 19.8 -20.9 16.4 -21.3 14.8 -21.9 13.95 L-8.75 13.8 -11.6 16.4 M-27.0 13.95 L-26.15 14.0 -27.15 14.6 -27.0 13.95" fill="#333333" fill-rule="evenodd" stroke="none"/>
    <path d="M18.7 -5.8 L20.15 -4.45 17.75 -0.75 17.65 -0.45 17.5 0.0 17.5 0.05 17.05 0.55 16.65 -0.5 15.9 -0.95 16.75 -3.0 Q17.7 -5.0 18.55 -5.9 L18.7 -5.8 M34.35 -14.2 L31.65 -13.15 29.0 -11.75 28.1 -11.45 27.45 -12.35 26.55 -13.5 26.6 -13.6 27.0 -13.5 Q27.8 -13.5 28.15 -13.85 L28.25 -14.0 Q29.8 -14.2 31.75 -15.35 L32.9 -16.1 34.35 -14.25 34.35 -14.2 M24.75 -11.8 L24.85 -11.2 25.05 -10.6 25.55 -9.95 25.0 -9.55 Q23.05 -8.05 21.5 -6.15 L19.3 -8.4 20.8 -10.5 Q22.35 -12.05 24.55 -12.15 L24.75 -11.8 M0.4 7.45 L2.4 7.4 2.45 7.45 4.15 7.55 4.05 9.75 Q4.05 10.05 4.4 10.75 L4.75 11.5 0.45 11.5 0.4 11.45 0.5 9.6 0.25 8.0 0.4 7.45 M10.4 22.3 L10.5 22.35 10.45 22.3 10.45 22.25 10.6 21.95 11.6 19.55 11.85 17.75 12.05 16.95 12.05 17.15 12.1 17.85 12.0 19.85 12.0 20.0 12.0 20.15 12.0 20.3 11.95 22.25 11.85 23.05 11.85 23.1 11.55 23.75 11.6 23.8 11.0 24.4 7.65 24.75 Q5.05 24.75 0.35 22.8 -0.55 22.35 -0.8 22.25 L-1.0 22.2 -1.65 21.9 -4.9 20.35 -5.1 20.3 -5.5 19.95 -5.5 19.8 -6.0 18.75 -7.05 18.6 -7.15 18.4 -7.3 18.55 -7.5 18.55 -7.75 18.55 -7.95 19.0 -8.0 19.0 Q-8.4 19.0 -11.0 21.65 -14.1 24.25 -17.25 24.25 L-18.1 24.25 -18.45 24.2 -19.35 24.15 -20.45 23.95 -21.05 23.75 Q-22.2 23.0 -23.0 21.7 L-23.2 21.35 -23.4 19.75 -23.45 19.45 -23.7 18.85 -24.0 18.4 -24.0 18.25 -24.1 18.3 -24.45 18.05 -24.5 18.0 -24.65 18.1 -24.75 18.15 -26.2 19.0 -26.75 19.4 -26.8 19.4 Q-27.6 19.75 -28.55 20.25 L-31.1 21.55 -31.1 21.6 -33.05 22.25 -35.1 22.5 -35.45 22.5 -35.35 22.15 -35.25 21.55 Q-34.5 21.0 -33.05 20.7 L-30.8 20.4 Q-30.15 20.4 -27.45 18.55 L-24.75 16.65 Q-23.8 16.65 -23.3 17.55 -23.0 18.15 -23.0 18.75 -20.1 23.0 -19.65 23.0 L-17.15 22.5 -14.8 22.65 Q-13.9 22.65 -12.15 21.4 L-10.15 19.75 Q-7.75 17.5 -6.25 17.5 L-1.3 20.4 Q3.95 23.3 9.8 23.3 L10.4 22.3 M15.1 32.45 L12.8 33.25 10.1 33.25 10.05 33.0 10.0 33.0 10.0 32.75 10.0 32.7 10.0 31.25 10.0 31.0 14.05 30.25 16.05 29.55 16.45 31.3 16.65 32.05 15.1 32.45 M-4.95 31.5 L-0.5 31.5 0.0 31.5 0.05 34.6 -2.2 34.55 -6.0 34.25 -6.0 31.55 -4.95 31.5 M2.0 34.25 L2.0 31.5 8.0 31.2 8.0 33.0 4.3 34.25 2.0 34.25 M-10.75 7.5 L-9.5 7.5 -7.5 7.5 -7.35 7.5 -7.25 8.9 -7.3 11.55 -13.0 11.6 -13.0 8.1 -12.75 7.5 -11.15 7.5 -11.0 7.75 -10.75 7.5 M-19.8 7.4 L-19.6 7.55 -19.1 8.05 -19.2 9.7 -19.15 11.65 -24.5 11.7 -24.5 8.5 -24.1 7.35 -24.05 7.3 -22.0 7.35 -21.85 7.6 -21.6 7.35 -19.8 7.4 M-29.2 6.95 Q-28.9 7.25 -28.9 7.6 L-29.3 10.85 Q-29.35 11.35 -29.7 11.75 L-31.05 11.8 -31.15 11.65 -31.35 11.75 -32.5 11.6 -32.5 6.65 -32.4 6.55 -29.2 6.95 M-24.0 33.95 L-30.1 33.8 -29.65 31.05 -23.45 31.3 -23.65 32.3 -23.8 33.45 -24.0 33.75 -24.0 33.95 M-32.85 30.15 Q-32.25 30.5 -31.95 30.7 L-32.1 31.45 -32.15 31.8 -32.25 32.5 -32.35 32.5 -38.5 31.8 -37.6 29.75 -37.4 29.25 -37.3 29.35 -37.1 29.5 -32.85 30.15 M-21.5 31.8 L-21.4 31.35 -15.65 31.45 -15.5 32.5 Q-15.4 32.95 -15.45 33.65 L-15.45 34.5 -21.5 34.3 -21.5 31.8 M-12.95 31.45 L-8.0 31.5 -8.0 34.6 -10.2 34.55 -13.5 34.3 -13.45 34.1 -13.45 31.7 -12.95 31.45" fill="#8e6c24" fill-rule="evenodd" stroke="none"/>
    <path d="M19.45 -20.4 Q19.2 -19.8 19.1 -18.85 L19.05 -18.4 16.55 -18.55 Q16.25 -18.0 15.0 -17.6 L14.3 -17.4 Q7.6 -15.75 -20.75 -15.75 L-31.7 -16.5 -37.95 -16.55 Q-42.0 -16.45 -42.45 -15.7 L-43.1 -18.95 -39.0 -18.9 -1.5 -18.0 12.55 -19.25 14.85 -19.55 19.45 -20.4 M10.2 -6.65 L14.25 -7.05 13.3 -5.45 9.5 -5.4 -25.5 -5.0 -31.4 -4.6 -32.0 -4.55 -36.7 -4.1 -39.1 -7.45 0.25 -6.5 Q6.55 -6.5 10.2 -6.65 M8.55 4.7 L8.15 5.25 5.15 5.25 -27.2 4.9 -30.75 4.75 -30.85 4.75 -32.15 4.2 -32.35 3.75 -32.5 3.75 -32.6 3.05 -32.6 3.0 -28.05 3.0 -23.4 3.15 -15.0 3.5 5.6 3.05 8.9 3.0 8.55 4.7" fill="#221c15" fill-rule="evenodd" stroke="none"/>
    <path d="M20.5 -0.5 L23.35 -4.25 Q24.55 -6.0 28.0 -8.6 L31.0 -10.9 Q32.7 -11.75 34.7 -12.2 L36.0 -12.4 Q39.05 -9.5 46.0 -7.65 51.3 -6.2 51.3 -3.25 51.3 -2.6 51.8 -0.95 L52.25 1.35 Q52.25 3.1 51.25 4.95 49.95 7.4 47.8 7.4 39.25 7.4 33.0 6.05 L26.75 4.3 Q23.7 3.6 21.8 1.75 20.55 0.15 20.15 0.05 L20.5 -0.5" fill="#aa8a71" fill-rule="evenodd" stroke="none"/>
    <path d="M18.7 -5.8 L18.55 -5.9 18.6 -5.9 18.7 -5.8 M24.55 -12.15 L24.7 -11.95 24.75 -11.85 24.75 -11.8 24.55 -12.15 M2.4 7.4 L8.45 7.35 8.5 8.75 8.55 10.8 8.7 11.5 4.75 11.5 4.4 10.75 Q4.05 10.05 4.05 9.75 L4.15 7.55 2.45 7.45 2.4 7.4 M0.45 11.5 L0.4 11.5 0.4 11.45 0.45 11.5 M0.25 8.0 L-0.05 7.45 0.4 7.45 0.25 8.0 M9.4 22.15 L10.05 22.25 10.4 22.3 9.8 23.3 Q3.95 23.3 -1.3 20.4 L-6.25 17.5 Q-7.75 17.5 -10.15 19.75 L-12.15 21.4 Q-13.9 22.65 -14.8 22.65 L-17.15 22.5 -19.65 23.0 Q-20.1 23.0 -23.0 18.75 -23.0 18.15 -23.3 17.55 -23.8 16.65 -24.75 16.65 L-27.45 18.55 Q-30.15 20.4 -30.8 20.4 L-33.05 20.7 Q-34.5 21.0 -35.25 21.55 L-35.05 20.7 -34.95 20.1 -34.75 19.0 -33.6 19.0 -33.0 19.0 -29.75 19.0 -29.3 18.35 Q-28.05 17.9 -27.0 17.15 L-24.9 15.75 -24.0 15.55 -23.15 15.65 -23.1 15.8 Q-22.75 18.45 -22.15 19.5 -20.75 22.0 -17.0 22.0 L-15.3 21.65 Q-13.0 21.3 -11.55 19.8 L-7.15 15.65 -4.75 16.65 -1.55 18.25 -0.1 19.25 Q1.5 20.55 8.75 22.5 9.05 22.5 9.4 22.15 M10.45 22.25 L9.9 21.25 10.5 18.75 10.95 15.2 11.55 15.8 11.75 16.05 12.05 16.95 11.85 17.75 11.6 19.55 10.6 21.95 10.45 22.25 M11.65 23.85 L11.6 23.95 11.45 24.0 11.5 24.1 11.0 24.4 11.6 23.8 11.55 23.75 11.65 23.85 M0.35 22.8 L-1.0 22.2 -0.8 22.25 Q-0.55 22.35 0.35 22.8 M-5.1 20.3 L-5.55 20.1 -5.5 19.95 -5.1 20.3 M-20.45 23.95 L-21.7 23.5 -22.0 23.0 -22.3 23.1 Q-22.95 22.6 -23.15 21.8 L-23.2 21.35 -23.0 21.7 Q-22.2 23.0 -21.05 23.75 L-20.45 23.95 M-9.65 -25.25 Q-10.0 -25.7 -10.0 -27.3 -10.0 -31.65 -6.0 -31.55 -2.0 -31.4 -2.0 -27.4 -1.85 -27.05 -2.25 -26.15 -3.1 -24.25 -5.75 -24.25 -8.85 -24.25 -9.65 -25.25 M-10.75 7.5 L-11.0 7.75 -11.15 7.5 -10.75 7.5 M-12.75 7.5 L-13.0 8.1 -13.0 7.5 -12.75 7.5 M-7.3 11.55 L-7.25 8.9 -7.35 7.5 -7.5 7.5 -0.9 7.45 Q-1.5 8.2 -1.5 9.75 -1.5 10.65 -1.1 11.5 L-7.3 11.55 M-19.15 11.65 L-19.2 9.7 -19.1 8.05 -19.6 7.55 -19.8 7.4 -14.7 7.5 -15.0 9.55 -14.55 11.6 -19.15 11.65 M-21.6 7.35 L-21.85 7.6 -22.0 7.35 -24.05 7.3 -24.1 7.35 -24.5 8.5 -24.5 7.5 -24.5 7.25 -21.6 7.35 M-29.7 11.75 Q-29.35 11.35 -29.3 10.85 L-28.9 7.6 Q-28.9 7.25 -29.2 6.95 L-26.1 7.2 Q-26.5 7.95 -26.5 9.55 -26.5 10.7 -26.0 11.7 L-29.7 11.75 M-32.4 6.55 L-32.5 6.65 -32.5 6.5 -32.4 6.55" fill="#cc9d3c" fill-rule="evenodd" stroke="none"/>
    <path d="M15.55 -21.75 L15.25 -21.75 15.25 -21.7 10.2 -21.1 6.65 -20.65 Q7.0 -21.4 7.0 -22.25 L7.0 -22.55 15.55 -21.75 M-39.75 -21.0 L-43.5 -20.6 -43.6 -20.85 -40.6 -24.1 Q-40.25 -23.25 -40.0 -21.85 L-39.75 -21.0 M11.45 -8.95 L11.8 -9.6 Q12.55 -11.1 13.3 -13.75 L13.65 -15.05 Q16.8 -15.65 18.8 -16.55 L18.5 -15.1 15.75 -9.85 15.5 -10.0 Q14.65 -10.0 14.75 -9.8 14.95 -9.5 14.65 -9.35 L11.45 -8.95 M-36.9 -14.3 L-36.25 -12.85 -34.6 -9.55 -40.3 -9.05 -40.65 -9.8 Q-41.3 -11.1 -41.75 -12.7 L-41.95 -13.45 -42.15 -14.45 -42.1 -14.5 -36.9 -14.3 M8.1 -2.8 L7.45 -1.55 6.4 0.75 Q0.35 0.5 -12.25 0.5 L-19.5 1.0 -26.25 0.65 -29.35 0.55 -30.5 0.5 -33.0 1.55 -33.1 1.7 Q-33.8 0.1 -35.3 -2.1 L-30.75 -2.2 Q-13.6 -2.7 7.4 -2.8 L8.1 -2.8 M8.55 4.7 L8.5 5.25 8.15 5.25 8.55 4.7 M-29.3 18.35 L-29.75 19.0 -33.0 19.0 Q-31.0 18.95 -29.3 18.35 M-33.6 19.0 L-34.75 19.0 -34.5 17.75 -32.65 15.1 -31.65 13.75 -29.55 13.85 -27.0 13.95 -27.15 14.6 -28.35 15.3 -31.65 16.15 Q-34.15 16.8 -34.5 18.3 L-34.3 18.8 -33.6 19.0 M-7.05 18.6 L-7.5 18.55 -7.3 18.55 -7.15 18.4 -7.05 18.6 M-24.0 18.4 L-24.1 18.3 -24.0 18.25 -24.0 18.4 M-26.8 19.4 L-28.25 20.5 Q-29.95 21.6 -32.2 22.1 L-31.2 21.85 -31.1 21.6 -31.1 21.55 -28.55 20.25 Q-27.6 19.75 -26.8 19.4" fill="#666666" fill-rule="evenodd" stroke="none"/>
    <path d="M15.55 -21.75 L15.25 -21.7 15.25 -21.75 15.55 -21.75 M6.4 0.75 L7.45 -1.55 8.1 -2.8 11.75 -2.9 11.2 -2.0 9.7 0.95 6.4 0.75 M-33.1 1.7 L-33.0 1.55 -32.9 2.15 -33.1 1.7 M-32.6 3.05 L-32.65 2.9 -32.6 3.0 -32.6 3.05 M11.6 23.95 L11.55 24.0 11.5 24.1 11.45 24.0 11.6 23.95 M-32.2 22.1 L-33.05 22.25 -31.1 21.6 -31.2 21.85 -32.2 22.1 M-35.1 22.5 L-35.5 22.55 -35.35 22.15 -35.45 22.5 -35.1 22.5 M11.65 23.85 L11.55 23.75 11.85 23.1 11.65 23.85 M-42.1 -14.5 L-42.15 -14.45 -42.2 -14.55 -42.1 -14.5" fill="#999999" fill-rule="evenodd" stroke="none"/>
    <path d="M17.25 -7.25 L17.4 -7.1 18.25 -6.25 17.85 -6.6 16.7 -4.9 Q15.3 -2.65 14.8 -1.4 L15.3 -1.2 14.1 -1.6 16.25 -5.5 17.25 -7.25 M19.65 -11.75 Q21.4 -15.6 21.5 -18.1 L23.35 -14.4 22.65 -14.0 Q20.85 -12.95 19.7 -11.8 L19.65 -11.75 M17.05 0.55 L17.5 0.05 17.3 1.05 17.05 0.55 M30.5 -19.0 L31.05 -19.0 Q31.15 -18.6 31.6 -17.9 L28.75 -16.7 26.95 -15.7 26.5 -16.0 Q25.65 -15.7 25.55 -14.9 L25.3 -15.25 Q24.5 -16.45 23.55 -18.8 L23.0 -20.0 Q27.0 -19.0 30.5 -19.0 M34.35 -14.2 L34.35 -14.25 34.4 -14.2 34.35 -14.2 M13.55 27.75 L13.25 28.4 10.05 29.0 9.7 26.9 Q12.7 26.5 13.7 24.85 L14.8 27.25 15.05 27.5 13.55 27.75 M8.05 27.05 L7.85 28.25 7.85 29.1 2.05 29.25 Q2.0 27.05 1.5 25.8 4.6 27.0 7.75 27.0 L8.05 27.05 M0.1 27.6 L0.05 29.25 -0.55 29.25 -6.0 29.25 -6.0 22.15 Q-4.25 22.75 -1.45 24.4 L0.65 25.45 Q0.25 26.15 0.1 27.6 M-4.95 31.5 L-6.0 31.55 -6.0 31.5 -4.95 31.5 M-8.0 21.9 L-8.25 24.1 -8.0 28.3 -8.0 29.2 -13.7 29.05 Q-13.9 27.35 -14.25 26.05 -12.45 25.45 -10.9 24.15 L-8.0 21.9 M-29.55 24.3 L-28.0 23.5 Q-26.65 22.65 -25.25 21.05 -24.4 23.35 -23.75 24.15 L-23.0 24.9 -23.0 25.3 -22.95 28.6 -29.3 28.1 Q-29.1 25.8 -29.55 24.3 M-20.95 28.75 L-20.85 27.25 -20.9 26.0 -17.5 26.5 -15.95 26.4 -16.0 27.55 -15.95 29.0 -20.95 28.75 M-24.0 33.95 L-24.0 33.75 -23.8 33.45 -23.9 33.95 -24.0 33.95 M-31.65 24.85 L-31.6 27.85 -32.35 27.75 -36.75 27.35 -37.0 27.4 Q-36.8 25.8 -36.15 24.75 L-33.75 25.0 -31.65 24.85 M-12.95 31.45 L-13.45 31.7 -13.45 31.45 -12.95 31.45" fill="#e5e5e5" fill-rule="evenodd" stroke="none"/>
    <path d="M26.3 -30.95 L26.15 -31.3 22.35 -30.65 16.65 -29.5 9.35 -27.75 6.6 -27.2 5.85 -26.95 12.55 -29.25 Q13.65 -29.45 18.7 -31.65 L21.5 -32.8 22.0 -32.5 22.75 -33.0 22.95 -33.05 23.0 -33.45 23.9 -33.75 Q25.2 -33.75 26.3 -30.95 M9.6 -25.05 L10.75 -25.25 17.5 -26.0 24.8 -26.0 33.0 -25.35 33.0 -21.25 28.55 -21.25 19.3 -23.4 9.6 -25.05 M20.35 -34.95 L20.4 -34.8 18.8 -33.75 16.65 -33.0 18.75 -34.1 20.35 -34.95 M-0.05 -28.7 Q-0.25 -30.1 -0.7 -31.15 L1.55 -32.95 4.05 -34.75 10.25 -36.6 Q15.7 -38.25 16.65 -38.25 18.5 -38.25 19.5 -36.8 L19.15 -37.25 Q15.7 -36.3 10.65 -34.3 3.15 -31.3 -0.05 -28.7 M-31.25 36.0 L-31.3 36.1 Q-32.15 38.1 -32.35 39.4 L-32.95 39.3 -40.5 37.8 Q-39.85 37.15 -39.4 35.85 L-39.05 34.35 -38.0 34.5 -32.5 34.5 -32.5 34.55 Q-32.5 35.4 -32.2 35.65 L-31.5 36.0 -31.25 36.0 M12.1 38.75 L11.55 35.5 Q14.45 35.45 16.3 34.8 16.75 36.7 17.35 37.9 L12.1 38.75 M-13.0 -29.25 L-17.5 -30.75 -19.75 -31.75 -21.9 -32.85 -25.0 -34.3 -25.75 -34.6 Q-38.75 -39.55 -45.45 -38.8 L-45.55 -38.8 Q-42.65 -40.75 -37.5 -40.75 -33.45 -40.75 -22.3 -34.6 L-13.0 -29.25 M-36.0 -34.6 L-34.25 -34.1 -32.3 -33.6 -32.35 -33.6 -31.1 -33.3 -30.15 -33.0 Q-35.65 -32.05 -39.75 -30.15 -43.3 -28.5 -50.2 -24.65 L-51.6 -23.15 Q-54.95 -19.4 -57.3 -15.35 L-57.55 -14.8 Q-58.0 -13.7 -59.2 -11.7 L-60.65 -8.25 -62.9 -2.9 -62.95 -2.7 Q-65.85 12.45 -66.35 16.45 -67.15 22.85 -67.15 34.55 -67.15 36.35 -66.3 39.1 L-65.5 42.35 Q-65.5 45.15 -64.6 48.25 L-64.0 50.55 -68.2 49.3 -73.85 47.6 Q-73.85 46.55 -74.45 45.35 L-75.5 42.8 -76.0 37.0 Q-76.0 29.05 -74.65 18.75 -73.3 8.3 -71.0 -1.0 -70.05 -4.8 -67.05 -10.6 L-62.1 -20.1 Q-58.8 -27.3 -54.35 -29.25 L-51.25 -30.75 -47.5 -32.6 Q-44.05 -34.25 -42.05 -34.05 -38.5 -33.7 -36.25 -34.0 L-36.05 -34.05 -36.0 -34.6 M-41.5 -26.35 L-41.65 -26.65 -40.15 -27.2 Q-40.85 -26.8 -41.5 -26.35 M-33.15 -29.4 L-30.75 -30.05 -30.75 -29.6 -33.15 -29.4" fill="#942403" fill-rule="evenodd" stroke="none"/>
    <path d="M5.85 -26.95 L6.6 -27.2 9.35 -27.75 16.65 -29.5 22.35 -30.65 26.15 -31.3 26.3 -30.95 26.4 -30.6 Q27.1 -28.7 27.85 -27.95 L25.5 -28.0 25.0 -27.9 Q24.5 -27.75 24.5 -27.0 24.5 -26.25 24.65 -26.1 L24.8 -26.0 17.5 -26.0 10.75 -25.25 9.6 -25.05 3.0 -25.5 1.6 -25.45 3.0 -25.95 3.4 -26.1 5.85 -26.95 M20.35 -34.95 L18.75 -34.1 16.65 -33.0 16.55 -32.95 14.75 -32.35 9.45 -30.55 8.7 -30.3 Q2.35 -28.1 0.15 -26.95 L0.0 -27.35 -0.05 -28.7 Q3.15 -31.3 10.65 -34.3 15.7 -36.3 19.15 -37.25 L19.5 -36.8 20.0 -35.85 20.05 -35.7 20.1 -35.6 20.35 -34.95 M4.75 -41.1 L8.7 -39.0 Q5.15 -37.8 1.9 -35.85 -1.3 -33.95 -1.85 -32.8 -3.55 -34.5 -6.0 -34.35 -8.4 -34.15 -10.1 -32.3 L-11.05 -30.95 Q-12.35 -32.4 -16.5 -34.35 -25.35 -38.55 -27.5 -40.0 L-28.1 -40.25 Q-25.5 -41.65 -22.5 -42.65 -16.25 -44.75 -9.5 -44.75 -2.7 -44.75 4.75 -41.1 M-31.25 36.0 L-23.8 36.0 -23.7 36.15 -23.0 36.5 -14.65 36.5 -9.75 37.0 Q-7.3 37.0 -6.45 36.4 -4.85 37.0 -1.75 37.0 0.7 37.0 1.55 36.35 L2.75 36.5 Q4.55 36.5 7.15 35.75 L8.95 35.15 11.0 35.5 11.55 35.5 12.1 38.75 7.4 39.5 -10.5 40.75 -32.35 39.4 Q-32.15 38.1 -31.3 36.1 L-31.25 36.0 M-45.55 -38.8 L-45.45 -38.8 Q-38.75 -39.55 -25.75 -34.6 L-25.0 -34.3 -21.9 -32.85 -19.75 -31.75 -17.5 -30.75 -13.0 -29.25 -12.85 -29.2 Q-12.25 -28.85 -11.85 -28.65 L-11.95 -27.65 -13.2 -27.9 -19.05 -28.9 -19.2 -28.95 -24.35 -29.5 Q-27.85 -29.8 -30.75 -29.6 L-30.75 -30.05 -33.15 -29.4 Q-37.3 -28.85 -40.15 -27.2 L-41.65 -26.65 -41.5 -26.35 Q-44.0 -24.5 -47.75 -19.6 -52.05 -14.05 -55.35 -6.5 -57.5 -1.45 -58.6 6.65 -59.5 13.3 -59.5 20.25 -59.5 27.0 -57.35 36.05 -55.4 44.4 -52.5 51.25 L-61.35 51.25 -61.45 51.25 -64.0 50.55 -64.6 48.25 Q-65.5 45.15 -65.5 42.35 L-66.3 39.1 Q-67.15 36.35 -67.15 34.55 -67.15 22.85 -66.35 16.45 -65.85 12.45 -62.95 -2.7 L-62.9 -2.9 -60.65 -8.25 -59.2 -11.7 Q-58.0 -13.7 -57.55 -14.8 L-57.3 -15.35 Q-54.95 -19.4 -51.6 -23.15 L-50.2 -24.65 Q-43.3 -28.5 -39.75 -30.15 -35.65 -32.05 -30.15 -33.0 L-31.1 -33.3 -32.35 -33.6 -32.3 -33.6 -34.25 -34.1 -36.0 -34.6 -36.0 -34.75 Q-36.0 -37.2 -39.55 -37.15 -42.95 -37.1 -48.1 -34.75 L-48.45 -34.85 Q-48.05 -36.6 -46.5 -38.05 L-45.55 -38.8" fill="#731c02" fill-rule="evenodd" stroke="none"/>
    <path d="M-45.0 -19.1 L-45.0 -18.05 Q-45.0 -11.6 -41.85 -7.05 -36.5 0.75 -34.35 4.45 -34.9 5.0 -34.9 6.0 -34.95 7.2 -34.5 8.5 L-34.5 12.8 -34.45 12.85 Q-35.4 14.05 -36.25 16.3 L-37.1 19.65 -37.5 22.15 Q-38.0 22.55 -38.35 23.5 L-39.0 26.55 -40.15 29.65 -41.0 32.55 -40.95 33.2 Q-41.5 33.85 -41.95 35.05 -49.5 35.3 -52.2 36.95 -53.2 37.55 -53.9 38.6 L-54.4 39.35 -55.0 36.8 -56.55 28.45 Q-57.5 23.25 -57.5 20.1 -57.5 14.6 -56.55 7.4 -55.5 -0.5 -54.0 -4.0 -51.3 -10.15 -47.0 -16.35 L-45.0 -19.1" fill="#5a1501" fill-rule="evenodd" stroke="none"/>
    <path d="M-24.1 -0.65 L-21.25 -0.8 -21.45 1.55 -23.7 1.6 -24.45 1.45 -24.35 0.45 -24.2 -0.4 -24.1 -0.65 M-22.35 -2.65 L-24.8 -2.6 -25.25 -2.2 -25.65 -1.7 Q-26.1 -0.95 -26.1 0.7 L-26.1 2.2 Q-25.55 3.55 -22.6 3.55 -20.0 3.55 -19.5 2.2 L-19.5 0.25 Q-19.25 -0.85 -19.5 -1.5 -19.95 -2.65 -22.35 -2.65 M-27.8 -1.9 Q-26.7 -3.9 -25.0 -4.7 -21.1 -5.65 -18.7 -3.1 -16.85 -1.15 -16.85 1.05 -16.85 2.6 -17.9 3.75 -19.9 6.0 -25.0 6.0 -26.35 6.0 -27.65 4.25 -28.75 2.75 -28.75 1.8 -28.75 0.0 -27.8 -1.9" fill="#8e6c24" fill-rule="evenodd" stroke="none"/>
    <path d="M-24.1 -0.65 L-24.2 -0.4 -24.35 0.45 -24.45 1.45 -23.7 1.6 -21.45 1.55 -21.25 -0.8 -24.1 -0.65 M-20.35 -6.7 L-16.6 -3.95 -15.15 -1.15 -15.1 0.75 Q-15.1 3.35 -16.6 5.3 -18.7 7.95 -22.8 7.95 -27.1 7.95 -29.2 5.3 -30.5 3.6 -30.5 1.8 -30.5 -3.95 -24.8 -6.9 -22.65 -8.0 -20.35 -6.7 M-27.8 -1.9 Q-28.75 0.0 -28.75 1.8 -28.75 2.75 -27.65 4.25 -26.35 6.0 -25.0 6.0 -19.9 6.0 -17.9 3.75 -16.85 2.6 -16.85 1.05 -16.85 -1.15 -18.7 -3.1 -21.1 -5.65 -25.0 -4.7 -26.7 -3.9 -27.8 -1.9 M-22.35 -2.65 Q-19.95 -2.65 -19.5 -1.5 -19.25 -0.85 -19.5 0.25 L-19.5 2.2 Q-20.0 3.55 -22.6 3.55 -25.55 3.55 -26.1 2.2 L-26.1 0.7 Q-26.1 -0.95 -25.65 -1.7 L-25.25 -2.2 -24.8 -2.6 -22.35 -2.65" fill="#000000" fill-rule="evenodd" stroke="none"/>
    <path d="M-20.9 -15.55 L-17.15 -12.8 -15.7 -10.0 -15.65 -8.1 Q-15.65 -5.5 -17.15 -3.55 -19.25 -0.9 -23.35 -0.9 -27.65 -0.9 -29.75 -3.55 -31.05 -5.25 -31.05 -7.05 -31.05 -12.8 -25.35 -15.75 -23.2 -16.85 -20.9 -15.55 M-24.65 -9.5 L-24.75 -9.25 -24.9 -8.4 -25.0 -7.4 -24.25 -7.25 -22.0 -7.3 -21.8 -9.65 -24.65 -9.5 M-29.3 -7.05 Q-29.3 -6.1 -28.2 -4.6 -26.9 -2.85 -25.55 -2.85 -20.45 -2.85 -18.45 -5.1 -17.4 -6.25 -17.4 -7.8 -17.4 -10.0 -19.25 -11.95 -21.65 -14.5 -25.55 -13.55 -27.25 -12.75 -28.35 -10.75 -29.3 -8.85 -29.3 -7.05 M-25.35 -11.45 L-22.9 -11.5 Q-20.5 -11.5 -20.05 -10.35 -19.8 -9.7 -20.05 -8.6 L-20.05 -6.65 Q-20.55 -5.3 -23.15 -5.3 -26.1 -5.3 -26.65 -6.65 L-26.65 -8.15 Q-26.65 -9.8 -26.2 -10.55 L-25.8 -11.05 -25.35 -11.45" fill="#000000" fill-rule="evenodd" stroke="none"/>
    <path d="M-25.35 -11.45 L-25.8 -11.05 -26.2 -10.55 Q-26.65 -9.8 -26.65 -8.15 L-26.65 -6.65 Q-26.1 -5.3 -23.15 -5.3 -20.55 -5.3 -20.05 -6.65 L-20.05 -8.6 Q-19.8 -9.7 -20.05 -10.35 -20.5 -11.5 -22.9 -11.5 L-25.35 -11.45 M-29.3 -7.05 Q-29.3 -8.85 -28.35 -10.75 -27.25 -12.75 -25.55 -13.55 -21.65 -14.5 -19.25 -11.95 -17.4 -10.0 -17.4 -7.8 -17.4 -6.25 -18.45 -5.1 -20.45 -2.85 -25.55 -2.85 -26.9 -2.85 -28.2 -4.6 -29.3 -6.1 -29.3 -7.05 M-24.65 -9.5 L-21.8 -9.65 -22.0 -7.3 -24.25 -7.25 -25.0 -7.4 -24.9 -8.4 -24.75 -9.25 -24.65 -9.5" fill="#8e6c24" fill-rule="evenodd" stroke="none"/>
    <path d="M-21.2 -25.45 Q-19.8 -24.7 -17.45 -22.7 L-16.0 -19.9 -15.95 -18.0 Q-15.95 -15.4 -17.45 -13.45 -19.55 -10.8 -23.65 -10.8 -27.95 -10.8 -30.05 -13.45 -31.35 -15.15 -31.35 -16.95 -31.35 -22.7 -25.65 -25.65 -23.5 -26.75 -21.2 -25.45 M-20.35 -20.25 Q-20.1 -19.6 -20.35 -18.5 L-20.35 -16.55 Q-20.85 -15.2 -23.45 -15.2 -26.4 -15.2 -26.95 -16.55 L-26.95 -18.05 Q-26.95 -19.7 -26.5 -20.45 L-26.1 -20.95 -25.65 -21.35 -23.2 -21.4 Q-20.8 -21.4 -20.35 -20.25 M-25.05 -19.15 L-25.2 -18.3 -25.3 -17.3 -24.55 -17.15 -22.3 -17.2 Q-22.1 -17.85 -22.1 -19.55 L-24.95 -19.4 -25.05 -19.15 M-28.65 -20.65 Q-29.6 -18.75 -29.6 -16.95 -29.6 -16.0 -28.5 -14.5 -27.2 -12.75 -25.85 -12.75 -20.75 -12.75 -18.75 -15.0 -17.7 -16.15 -17.7 -17.7 -17.7 -19.9 -19.55 -21.85 -21.95 -24.4 -25.85 -23.45 -27.55 -22.65 -28.65 -20.65" fill="#000000" fill-rule="evenodd" stroke="none"/>
    <path d="M-28.65 -20.65 Q-27.55 -22.65 -25.85 -23.45 -21.95 -24.4 -19.55 -21.85 -17.7 -19.9 -17.7 -17.7 -17.7 -16.15 -18.75 -15.0 -20.75 -12.75 -25.85 -12.75 -27.2 -12.75 -28.5 -14.5 -29.6 -16.0 -29.6 -16.95 -29.6 -18.75 -28.65 -20.65 M-25.05 -19.15 L-24.95 -19.4 -22.1 -19.55 Q-22.1 -17.85 -22.3 -17.2 L-24.55 -17.15 -25.3 -17.3 -25.2 -18.3 -25.05 -19.15 M-20.35 -20.25 Q-20.8 -21.4 -23.2 -21.4 L-25.65 -21.35 -26.1 -20.95 -26.5 -20.45 Q-26.95 -19.7 -26.95 -18.05 L-26.95 -16.55 Q-26.4 -15.2 -23.45 -15.2 -20.85 -15.2 -20.35 -16.55 L-20.35 -18.5 Q-20.1 -19.6 -20.35 -20.25" fill="#8e6c24" fill-rule="evenodd" stroke="none"/>
    <path d="M-10.25 -0.35 L-10.15 -0.6 -7.3 -0.75 -7.5 1.6 -9.75 1.65 -10.5 1.5 -10.4 0.5 -10.25 -0.35 M-11.3 -2.15 L-11.7 -1.65 Q-12.15 -0.9 -12.15 0.75 L-12.15 2.25 Q-11.6 3.6 -8.65 3.6 -6.05 3.6 -5.55 2.25 L-5.55 0.3 Q-5.3 -0.8 -5.55 -1.45 -6.0 -2.6 -8.4 -2.6 L-10.85 -2.55 -11.3 -2.15 M-13.85 -1.85 Q-12.75 -3.85 -11.05 -4.65 -7.15 -5.6 -4.75 -3.05 -2.9 -1.1 -2.9 1.1 -2.9 2.65 -3.95 3.8 -5.95 6.05 -11.05 6.05 -12.4 6.05 -13.7 4.3 -14.8 2.8 -14.8 1.85 -14.8 0.05 -13.85 -1.85" fill="#8e6c24" fill-rule="evenodd" stroke="none"/>
    <path d="M-13.85 -1.85 Q-14.8 0.05 -14.8 1.85 -14.8 2.8 -13.7 4.3 -12.4 6.05 -11.05 6.05 -5.95 6.05 -3.95 3.8 -2.9 2.65 -2.9 1.1 -2.9 -1.1 -4.75 -3.05 -7.15 -5.6 -11.05 -4.65 -12.75 -3.85 -13.85 -1.85 M-11.3 -2.15 L-10.85 -2.55 -8.4 -2.6 Q-6.0 -2.6 -5.55 -1.45 -5.3 -0.8 -5.55 0.3 L-5.55 2.25 Q-6.05 3.6 -8.65 3.6 -11.6 3.6 -12.15 2.25 L-12.15 0.75 Q-12.15 -0.9 -11.7 -1.65 L-11.3 -2.15 M-10.25 -0.35 L-10.4 0.5 -10.5 1.5 -9.75 1.65 -7.5 1.6 -7.3 -0.75 -10.15 -0.6 -10.25 -0.35 M-1.2 -1.1 L-1.15 0.8 Q-1.15 3.4 -2.65 5.35 -4.75 8.0 -8.85 8.0 -13.15 8.0 -15.25 5.35 -16.55 3.65 -16.55 1.85 -16.55 -3.9 -10.85 -6.85 -8.7 -7.95 -6.4 -6.65 L-2.65 -3.9 -1.2 -1.1" fill="#000000" fill-rule="evenodd" stroke="none"/>
    <path d="M-5.5 -15.45 L-1.75 -12.7 -0.3 -9.9 -0.25 -8.0 Q-0.25 -5.4 -1.75 -3.45 -3.85 -0.8 -7.95 -0.8 -12.25 -0.8 -14.35 -3.45 -15.65 -5.15 -15.65 -6.95 -15.65 -12.7 -9.95 -15.65 -7.8 -16.75 -5.5 -15.45 M-12.8 -4.5 Q-11.5 -2.75 -10.15 -2.75 -5.05 -2.75 -3.05 -5.0 -2.0 -6.15 -2.0 -7.7 -2.0 -9.9 -3.85 -11.85 -6.25 -14.4 -10.15 -13.45 -11.85 -12.65 -12.95 -10.65 -13.9 -8.75 -13.9 -6.95 -13.9 -6.0 -12.8 -4.5 M-11.25 -8.05 Q-11.25 -9.7 -10.8 -10.45 L-10.4 -10.95 -9.95 -11.35 -7.5 -11.4 Q-5.1 -11.4 -4.65 -10.25 -4.4 -9.6 -4.65 -8.5 L-4.65 -6.55 Q-5.15 -5.2 -7.75 -5.2 -10.7 -5.2 -11.25 -6.55 L-11.25 -8.05 M-9.5 -8.3 L-9.6 -7.3 -8.85 -7.15 -6.6 -7.2 -6.4 -9.55 -9.25 -9.4 -9.35 -9.15 -9.5 -8.3" fill="#000000" fill-rule="evenodd" stroke="none"/>
    <path d="M-9.5 -8.3 L-9.35 -9.15 -9.25 -9.4 -6.4 -9.55 -6.6 -7.2 -8.85 -7.15 -9.6 -7.3 -9.5 -8.3 M-11.25 -8.05 L-11.25 -6.55 Q-10.7 -5.2 -7.75 -5.2 -5.15 -5.2 -4.65 -6.55 L-4.65 -8.5 Q-4.4 -9.6 -4.65 -10.25 -5.1 -11.4 -7.5 -11.4 L-9.95 -11.35 -10.4 -10.95 -10.8 -10.45 Q-11.25 -9.7 -11.25 -8.05 M-12.8 -4.5 Q-13.9 -6.0 -13.9 -6.95 -13.9 -8.75 -12.95 -10.65 -11.85 -12.65 -10.15 -13.45 -6.25 -14.4 -3.85 -11.85 -2.0 -9.9 -2.0 -7.7 -2.0 -6.15 -3.05 -5.0 -5.05 -2.75 -10.15 -2.75 -11.5 -2.75 -12.8 -4.5" fill="#8e6c24" fill-rule="evenodd" stroke="none"/>
    <path d="M0.6 -17.9 Q0.6 -15.3 -0.9 -13.35 -3.0 -10.7 -7.1 -10.7 -11.4 -10.7 -13.5 -13.35 -14.8 -15.05 -14.8 -16.85 -14.8 -22.6 -9.1 -25.55 -6.95 -26.65 -4.65 -25.35 L-0.9 -22.6 0.55 -19.8 0.6 -17.9 M-9.55 -20.85 L-9.1 -21.25 -6.65 -21.3 Q-4.25 -21.3 -3.8 -20.15 -3.55 -19.5 -3.8 -18.4 L-3.8 -16.45 Q-4.3 -15.1 -6.9 -15.1 -9.85 -15.1 -10.4 -16.45 L-10.4 -17.95 Q-10.4 -19.6 -9.95 -20.35 L-9.55 -20.85 M-8.5 -19.05 L-8.65 -18.2 -8.75 -17.2 -8.0 -17.05 -5.75 -17.1 -5.55 -19.45 -8.4 -19.3 -8.5 -19.05 M-1.15 -17.6 Q-1.15 -19.8 -3.0 -21.75 -5.4 -24.3 -9.3 -23.35 -11.0 -22.55 -12.1 -20.55 -13.05 -18.65 -13.05 -16.85 -13.05 -15.9 -11.95 -14.4 -10.65 -12.65 -9.3 -12.65 -4.2 -12.65 -2.2 -14.9 -1.15 -16.05 -1.15 -17.6" fill="#000000" fill-rule="evenodd" stroke="none"/>
    <path d="M-1.15 -17.6 Q-1.15 -16.05 -2.2 -14.9 -4.2 -12.65 -9.3 -12.65 -10.65 -12.65 -11.95 -14.4 -13.05 -15.9 -13.05 -16.85 -13.05 -18.65 -12.1 -20.55 -11.0 -22.55 -9.3 -23.35 -5.4 -24.3 -3.0 -21.75 -1.15 -19.8 -1.15 -17.6 M-8.5 -19.05 L-8.4 -19.3 -5.55 -19.45 -5.75 -17.1 -8.0 -17.05 -8.75 -17.2 -8.65 -18.2 -8.5 -19.05 M-9.55 -20.85 L-9.95 -20.35 Q-10.4 -19.6 -10.4 -17.95 L-10.4 -16.45 Q-9.85 -15.1 -6.9 -15.1 -4.3 -15.1 -3.8 -16.45 L-3.8 -18.4 Q-3.55 -19.5 -3.8 -20.15 -4.25 -21.3 -6.65 -21.3 L-9.1 -21.25 -9.55 -20.85" fill="#8e6c24" fill-rule="evenodd" stroke="none"/>
    <path d="M3.65 -0.2 L3.75 -0.45 6.6 -0.6 6.4 1.75 4.15 1.8 3.4 1.65 3.5 0.65 Q3.5 0.0 3.65 -0.2 M2.6 -2.0 L2.2 -1.5 Q1.75 -0.75 1.75 0.9 L1.75 2.4 Q2.3 3.75 5.25 3.75 7.85 3.75 8.35 2.4 L8.35 0.45 Q8.6 -0.65 8.35 -1.3 7.9 -2.45 5.5 -2.45 L3.05 -2.4 2.6 -2.0 M0.05 -1.7 Q1.15 -3.7 2.85 -4.5 6.75 -5.45 9.15 -2.9 11.0 -0.95 11.0 1.25 11.0 2.8 9.95 3.95 7.95 6.2 2.85 6.2 1.5 6.2 0.2 4.45 -0.9 2.95 -0.9 2.0 -0.9 0.2 0.05 -1.7" fill="#8e6c24" fill-rule="evenodd" stroke="none"/>
    <path d="M0.05 -1.7 Q-0.9 0.2 -0.9 2.0 -0.9 2.95 0.2 4.45 1.5 6.2 2.85 6.2 7.95 6.2 9.95 3.95 11.0 2.8 11.0 1.25 11.0 -0.95 9.15 -2.9 6.75 -5.45 2.85 -4.5 1.15 -3.7 0.05 -1.7 M2.6 -2.0 L3.05 -2.4 5.5 -2.45 Q7.9 -2.45 8.35 -1.3 8.6 -0.65 8.35 0.45 L8.35 2.4 Q7.85 3.75 5.25 3.75 2.3 3.75 1.75 2.4 L1.75 0.9 Q1.75 -0.75 2.2 -1.5 L2.6 -2.0 M3.65 -0.2 Q3.5 0.0 3.5 0.65 L3.4 1.65 4.15 1.8 6.4 1.75 6.6 -0.6 3.75 -0.45 3.65 -0.2 M7.5 -6.5 L11.25 -3.75 12.7 -0.95 12.75 0.95 Q12.75 3.55 11.25 5.5 9.15 8.15 5.05 8.15 0.75 8.15 -1.35 5.5 -2.65 3.8 -2.65 2.0 -2.65 -3.75 3.05 -6.7 5.2 -7.8 7.5 -6.5" fill="#000000" fill-rule="evenodd" stroke="none"/>
    <path d="M9.4 -15.3 L13.15 -12.55 14.6 -9.75 14.65 -7.85 Q14.65 -5.25 13.15 -3.3 11.05 -0.65 6.95 -0.65 2.65 -0.65 0.55 -3.3 -0.75 -5.0 -0.75 -6.8 -0.75 -12.55 4.95 -15.5 7.1 -16.6 9.4 -15.3 M5.65 -9.25 L5.55 -9.0 Q5.4 -8.8 5.4 -8.15 L5.3 -7.15 6.05 -7.0 8.3 -7.05 Q8.5 -7.7 8.5 -9.4 L5.65 -9.25 M1.0 -6.8 Q1.0 -5.85 2.1 -4.35 3.4 -2.6 4.75 -2.6 9.85 -2.6 11.85 -4.85 12.9 -6.0 12.9 -7.55 12.9 -9.75 11.05 -11.7 8.65 -14.25 4.75 -13.3 3.05 -12.5 1.95 -10.5 1.0 -8.6 1.0 -6.8 M4.95 -11.2 L7.4 -11.25 Q9.8 -11.25 10.25 -10.1 10.5 -9.45 10.25 -8.35 L10.25 -6.4 Q9.75 -5.05 7.15 -5.05 4.2 -5.05 3.65 -6.4 L3.65 -7.9 Q3.65 -9.55 4.1 -10.3 L4.5 -10.8 4.95 -11.2" fill="#000000" fill-rule="evenodd" stroke="none"/>
    <path d="M4.95 -11.2 L4.5 -10.8 4.1 -10.3 Q3.65 -9.55 3.65 -7.9 L3.65 -6.4 Q4.2 -5.05 7.15 -5.05 9.75 -5.05 10.25 -6.4 L10.25 -8.35 Q10.5 -9.45 10.25 -10.1 9.8 -11.25 7.4 -11.25 L4.95 -11.2 M1.0 -6.8 Q1.0 -8.6 1.95 -10.5 3.05 -12.5 4.75 -13.3 8.65 -14.25 11.05 -11.7 12.9 -9.75 12.9 -7.55 12.9 -6.0 11.85 -4.85 9.85 -2.6 4.75 -2.6 3.4 -2.6 2.1 -4.35 1.0 -5.85 1.0 -6.8 M5.65 -9.25 L8.5 -9.4 Q8.5 -7.7 8.3 -7.05 L6.05 -7.0 5.3 -7.15 5.4 -8.15 Q5.4 -8.8 5.55 -9.0 L5.65 -9.25" fill="#8e6c24" fill-rule="evenodd" stroke="none"/>
    <path d="M11.45 -25.25 L15.2 -22.5 16.65 -19.7 16.7 -17.8 Q16.7 -15.2 15.2 -13.25 13.1 -10.6 9.0 -10.6 4.7 -10.6 2.6 -13.25 1.3 -14.95 1.3 -16.75 1.3 -22.5 7.0 -25.45 9.15 -26.55 11.45 -25.25 M10.55 -19.35 L7.7 -19.2 7.6 -18.95 Q7.45 -18.75 7.45 -18.1 L7.35 -17.1 8.1 -16.95 10.35 -17.0 10.55 -19.35 M14.95 -17.5 Q14.95 -19.7 13.1 -21.65 10.7 -24.2 6.8 -23.25 5.1 -22.45 4.0 -20.45 3.05 -18.55 3.05 -16.75 3.05 -15.8 4.15 -14.3 5.45 -12.55 6.8 -12.55 11.9 -12.55 13.9 -14.8 14.95 -15.95 14.95 -17.5 M12.3 -18.3 L12.3 -16.35 Q11.8 -15.0 9.2 -15.0 6.25 -15.0 5.7 -16.35 L5.7 -17.85 Q5.7 -19.5 6.15 -20.25 L6.55 -20.75 7.0 -21.15 9.45 -21.2 Q11.85 -21.2 12.3 -20.05 12.55 -19.4 12.3 -18.3" fill="#000000" fill-rule="evenodd" stroke="none"/>
    <path d="M12.3 -18.3 Q12.55 -19.4 12.3 -20.05 11.85 -21.2 9.45 -21.2 L7.0 -21.15 6.55 -20.75 6.15 -20.25 Q5.7 -19.5 5.7 -17.85 L5.7 -16.35 Q6.25 -15.0 9.2 -15.0 11.8 -15.0 12.3 -16.35 L12.3 -18.3 M14.95 -17.5 Q14.95 -15.95 13.9 -14.8 11.9 -12.55 6.8 -12.55 5.45 -12.55 4.15 -14.3 3.05 -15.8 3.05 -16.75 3.05 -18.55 4.0 -20.45 5.1 -22.45 6.8 -23.25 10.7 -24.2 13.1 -21.65 14.95 -19.7 14.95 -17.5 M10.55 -19.35 L10.35 -17.0 8.1 -16.95 7.35 -17.1 7.45 -18.1 Q7.45 -18.75 7.6 -18.95 L7.7 -19.2 10.55 -19.35" fill="#8e6c24" fill-rule="evenodd" stroke="none"/>
  </g>
</svg>
