<?xml version="1.0" encoding="UTF-8" standalone="no"?>
<svg xmlns:ffdec="https://www.free-decompiler.com/flash" xmlns:xlink="http://www.w3.org/1999/xlink" ffdec:objectType="shape" height="57.45px" width="41.5px" xmlns="http://www.w3.org/2000/svg">
  <g transform="matrix(1.0, 0.0, 0.0, 1.0, 28.0, 30.95)">
    <path d="M2.6 -30.35 L3.15 -29.85 6.45 -27.05 6.75 -26.6 7.0 -26.4 8.35 -24.5 10.3 -21.9 Q10.4 -21.35 10.85 -20.4 11.1 -18.95 11.95 -16.95 L12.65 -15.5 13.5 -12.25 Q13.5 -9.75 13.3 -9.25 12.4 -7.0 8.5 -7.0 L8.5 -6.75 Q8.5 -5.6 7.3 -1.8 L6.05 2.25 5.85 4.55 6.0 5.15 5.95 5.9 5.8 5.95 Q5.75 8.0 5.95 9.65 5.8 10.5 1.65 10.5 L-0.25 10.3 -2.75 10.4 -2.8 10.35 -6.15 9.95 Q-5.2 11.55 -4.0 14.95 -2.0 20.55 -2.0 21.5 -2.0 23.45 -3.85 24.75 -6.25 26.5 -11.25 26.5 -17.4 26.5 -19.25 22.45 -20.7 16.7 -22.6 13.3 -27.5 2.9 -27.5 0.35 L-27.25 -1.0 Q-28.0 -2.05 -28.0 -2.5 -28.0 -5.25 -22.85 -12.1 L-17.1 -19.2 Q-17.5 -20.1 -17.5 -21.25 -17.5 -24.05 -16.35 -25.05 -15.3 -26.0 -9.85 -28.1 L-1.95 -30.95 2.6 -30.35 M11.4 -12.9 L11.35 -12.95 11.35 -13.05 9.1 -12.7 5.65 -12.4 5.5 -12.4 4.1 -12.85 2.3 -13.75 2.2 -13.8 0.85 -14.55 Q-2.9 -16.65 -4.5 -17.9 L-9.8 -20.75 Q-12.05 -21.9 -12.6 -23.35 L-12.85 -24.3 -13.4 -23.95 Q-15.5 -22.7 -15.5 -21.35 L-15.3 -20.35 -15.25 -20.35 Q-15.05 -20.3 -15.0 -19.75 -14.25 -18.6 -12.25 -17.65 -7.9 -15.9 -5.75 -14.6 3.1 -9.25 8.4 -9.25 11.0 -9.25 11.5 -10.65 11.75 -11.4 11.5 -12.25 L11.4 -12.9 M8.05 -21.45 Q5.15 -26.3 0.7 -28.75 L-7.9 -26.25 -9.95 -25.55 -9.9 -25.4 Q-8.85 -23.2 -8.15 -22.85 L-2.75 -19.35 Q-0.15 -17.1 1.6 -16.25 4.4 -14.9 10.65 -15.1 L8.95 -19.25 8.05 -21.45 M4.65 -1.25 Q5.25 -4.1 6.3 -7.3 3.7 -7.9 -0.3 -9.7 L-1.0 -10.0 -1.0 -9.9 Q-1.0 -9.1 -1.2 -8.85 L-1.35 -8.7 Q-0.7 -6.35 -0.85 -3.05 L1.55 -3.0 Q3.55 -2.25 4.65 -1.25 M-22.15 -7.55 L-21.5 -6.85 -19.45 -5.4 -18.25 -4.45 -18.05 -4.95 -18.0 -5.0 -18.0 -5.05 -17.85 -5.3 -16.8 -7.4 Q-17.9 -7.6 -19.75 -9.1 L-21.2 -10.45 -22.7 -8.45 -22.9 -8.2 -22.55 -7.95 -22.15 -7.55 M-18.15 -2.65 L-19.0 -2.5 Q-20.45 -2.5 -22.6 -5.25 L-23.8 -6.9 Q-25.6 -4.1 -25.6 -2.75 -25.6 -1.05 -23.15 0.95 L-18.85 3.75 Q-17.0 4.85 -12.1 6.05 L-1.35 8.25 4.0 8.25 3.85 6.1 Q0.7 4.95 -0.1 4.75 -2.5 4.15 -3.2 3.25 L-3.5 2.3 -3.45 -5.0 -3.35 -6.2 -3.85 -5.2 -4.4 -4.05 Q-6.9 1.05 -8.0 2.0 L-8.05 2.0 Q-8.3 2.5 -9.0 2.5 -11.35 2.5 -15.0 0.0 -17.35 -1.6 -18.1 -2.7 L-18.25 -2.85 -18.15 -2.65 M-15.85 -17.5 Q-17.05 -15.6 -19.85 -12.1 L-18.05 -11.2 -15.8 -9.25 -15.45 -9.95 -12.1 -15.3 Q-14.55 -16.5 -15.4 -17.15 L-15.85 -17.5 M-10.4 -14.55 L-10.5 -14.6 -10.5 -14.4 Q-10.5 -14.0 -13.25 -9.4 L-14.15 -7.8 Q-12.45 -7.1 -10.2 -5.65 L-7.2 -3.45 -6.0 -5.75 Q-5.5 -6.55 -5.2 -8.05 -4.25 -9.6 -4.25 -10.5 L-4.25 -10.6 -3.3 -10.85 -3.15 -11.05 -4.35 -11.6 -4.5 -12.0 -5.2 -12.05 -8.0 -13.5 -10.4 -14.55 M-8.85 0.25 L-8.2 -1.45 Q-9.7 -1.75 -12.35 -3.85 L-15.0 -6.25 Q-16.0 -4.3 -16.0 -3.5 -16.0 -3.05 -12.75 -1.4 L-8.95 0.5 -8.85 0.25 M4.35 0.0 L3.5 0.1 Q2.7 0.1 1.3 -0.45 L-0.95 -1.35 -1.0 -1.2 -1.4 1.65 -1.5 2.05 -1.5 2.3 -0.5 2.5 3.9 3.45 4.3 0.4 4.4 0.0 4.35 0.0 M-11.25 24.25 Q-6.65 24.25 -4.85 22.8 L-4.0 21.25 Q-4.0 20.6 -6.35 15.05 L-8.7 9.5 Q-15.5 8.0 -21.0 4.5 -23.3 3.0 -25.0 1.4 L-24.0 4.55 -22.4 7.95 -21.0 11.3 Q-18.55 16.7 -17.05 21.85 -15.9 24.25 -11.25 24.25" fill="#000000" fill-rule="evenodd" stroke="none"/>
    <path d="M11.35 -12.95 L11.1 -12.9 Q8.35 -11.85 5.65 -12.4 L9.1 -12.7 11.35 -13.05 11.35 -12.95 M8.05 -21.45 L8.95 -19.25 10.65 -15.1 Q4.4 -14.9 1.6 -16.25 -0.15 -17.1 -2.75 -19.35 L-8.15 -22.85 Q-8.85 -23.2 -9.9 -25.4 L-9.95 -25.55 -7.9 -26.25 0.7 -28.75 Q5.15 -26.3 8.05 -21.45 M-12.6 -23.35 L-13.4 -23.95 -12.85 -24.3 -12.6 -23.35" fill="#333333" fill-rule="evenodd" stroke="none"/>
    <path d="M-11.25 24.25 Q-15.9 24.25 -17.05 21.85 -18.55 16.7 -21.0 11.3 L-22.4 7.95 -24.0 4.55 -25.0 1.4 Q-23.3 3.0 -21.0 4.5 -15.5 8.0 -8.7 9.5 L-6.35 15.05 Q-4.0 20.6 -4.0 21.25 L-4.85 22.8 Q-6.65 24.25 -11.25 24.25" fill="#aa8a71" fill-rule="evenodd" stroke="none"/>
    <path d="M-3.45 -5.0 L-3.5 2.3 -3.2 3.25 Q-2.5 4.15 -0.1 4.75 0.7 4.95 3.85 6.1 L4.0 8.25 -1.35 8.25 -12.1 6.05 Q-17.0 4.85 -18.85 3.75 L-23.15 0.95 Q-25.6 -1.05 -25.6 -2.75 -25.6 -4.1 -23.8 -6.9 L-22.6 -5.25 Q-20.45 -2.5 -19.0 -2.5 L-18.15 -2.65 -18.1 -2.7 Q-17.35 -1.6 -15.0 0.0 -11.35 2.5 -9.0 2.5 -8.3 2.5 -8.05 2.0 L-8.0 2.0 Q-6.9 1.05 -4.4 -4.05 L-3.85 -5.2 -3.45 -5.0" fill="#780000" fill-rule="evenodd" stroke="none"/>
    <path d="M4.65 -1.25 Q3.55 -2.25 1.55 -3.0 L-0.85 -3.05 Q-0.7 -6.35 -1.35 -8.7 L-1.2 -8.85 Q-1.0 -9.1 -1.0 -9.9 L-1.0 -10.0 -0.3 -9.7 Q3.7 -7.9 6.3 -7.3 5.25 -4.1 4.65 -1.25 M-22.7 -8.45 L-22.15 -7.55 -22.55 -7.95 -22.9 -8.2 -22.7 -8.45 M-15.85 -17.5 L-15.4 -17.15 Q-14.55 -16.5 -12.1 -15.3 L-15.45 -9.95 -15.8 -9.25 -18.05 -11.2 -19.85 -12.1 Q-17.05 -15.6 -15.85 -17.5 M-10.5 -14.4 L-10.4 -14.55 -8.0 -13.5 -5.2 -12.05 -4.5 -12.0 -4.35 -11.6 -3.15 -11.05 -3.3 -10.85 -4.25 -10.6 -4.25 -10.5 Q-4.25 -9.6 -5.2 -8.05 -5.5 -6.55 -6.0 -5.75 L-7.2 -3.45 -10.2 -5.65 Q-12.45 -7.1 -14.15 -7.8 L-13.25 -9.4 Q-10.5 -14.0 -10.5 -14.4 M-1.4 1.65 L-1.2 1.85 -0.5 2.5 -1.5 2.3 -1.5 2.05 -1.4 1.65 M4.3 0.4 L4.35 0.0 4.4 0.0 4.3 0.4" fill="#e5e5e5" fill-rule="evenodd" stroke="none"/>
    <path d="M11.1 -12.9 L11.35 -12.95 11.4 -12.9 11.1 -12.9" fill="#666666" fill-rule="evenodd" stroke="none"/>
    <path d="M-8.95 0.5 L-8.85 0.25 -8.95 0.5" fill="#8b6b28" fill-rule="evenodd" stroke="none"/>
    <path d="M11.1 -12.9 L11.4 -12.9 11.5 -12.25 Q11.75 -11.4 11.5 -10.65 11.0 -9.25 8.4 -9.25 3.1 -9.25 -5.75 -14.6 -7.9 -15.9 -12.25 -17.65 -14.25 -18.6 -15.0 -19.75 -15.05 -20.3 -15.25 -20.35 L-15.3 -20.35 -15.5 -21.35 Q-15.5 -22.7 -13.4 -23.95 L-12.6 -23.35 Q-12.05 -21.9 -9.8 -20.75 L-4.5 -17.9 Q-2.9 -16.65 0.85 -14.55 L2.2 -13.8 2.3 -13.75 4.1 -12.85 5.5 -12.4 5.65 -12.4 Q8.35 -11.85 11.1 -12.9 M-22.7 -8.45 L-21.2 -10.45 -19.75 -9.1 Q-17.9 -7.6 -16.8 -7.4 L-17.85 -5.3 -18.0 -5.05 -18.0 -5.0 -18.05 -4.95 -18.25 -4.45 -19.45 -5.4 -21.5 -6.85 -22.15 -7.55 -22.7 -8.45 M-8.95 0.5 L-12.75 -1.4 Q-16.0 -3.05 -16.0 -3.5 -16.0 -4.3 -15.0 -6.25 L-12.35 -3.85 Q-9.7 -1.75 -8.2 -1.45 L-8.85 0.25 -8.95 0.5 M-1.4 1.65 L-1.0 -1.2 -0.95 -1.35 1.3 -0.45 Q2.7 0.1 3.5 0.1 L4.35 0.0 4.3 0.4 3.9 3.45 -0.5 2.5 -1.2 1.85 -1.4 1.65" fill="#cc9d3c" fill-rule="evenodd" stroke="none"/>
  </g>
</svg>
