<?xml version="1.0" encoding="UTF-8" standalone="no"?>
<svg xmlns:ffdec="https://www.free-decompiler.com/flash" xmlns:xlink="http://www.w3.org/1999/xlink" ffdec:objectType="shape" height="45.6px" width="36.05px" xmlns="http://www.w3.org/2000/svg">
  <g transform="matrix(1.0, 0.0, 0.0, 1.0, 25.5, 45.1)">
    <path d="M10.5 -25.25 Q10.7 -21.85 10.0 -18.9 9.35 -16.1 7.95 -14.6 8.65 -13.3 8.9 -11.6 L9.0 -7.3 9.0 -4.5 Q8.5 -3.0 5.5 -3.0 2.65 -3.0 2.6 -3.7 2.35 -5.5 1.55 -6.9 -3.85 -1.9 -6.0 -1.0 L-6.3 -1.1 Q-8.0 0.5 -10.25 0.5 -14.65 0.5 -16.3 -2.05 -17.2 -3.4 -17.5 -5.35 L-17.5 -7.3 -18.25 -8.5 -21.0 -8.5 Q-24.4 -9.15 -25.2 -10.0 -25.5 -10.3 -25.5 -11.4 -25.5 -13.0 -23.0 -21.75 L-21.35 -26.9 Q-20.35 -29.4 -18.95 -30.6 L-18.7 -34.85 Q-18.4 -39.1 -18.0 -40.0 -16.6 -43.1 -11.0 -44.65 -5.05 -46.25 -4.0 -42.1 L-2.85 -37.5 -1.3 -37.95 Q1.85 -38.5 5.5 -36.0 6.45 -35.7 7.4 -34.4 L9.0 -32.35 Q10.15 -31.25 10.45 -28.85 L10.5 -25.25 M8.3 -27.1 Q7.85 -29.4 6.9 -31.1 4.1 -36.1 -2.45 -35.2 L-2.1 -31.75 -2.05 -29.8 Q0.1 -26.65 1.0 -24.6 2.6 -20.8 3.7 -20.95 5.55 -22.0 7.75 -22.0 L8.4 -21.8 8.5 -25.0 8.3 -27.1 M5.25 -19.0 Q1.75 -19.0 -1.2 -23.7 L-2.0 -25.05 -2.0 -23.35 -0.8 -20.15 Q1.1 -15.1 2.75 -15.1 6.6 -15.1 7.9 -19.55 6.8 -19.0 5.25 -19.0 M2.45 -13.15 L2.35 -13.15 2.4 -12.95 Q3.0 -11.1 3.0 -9.15 L3.05 -9.5 3.25 -9.85 6.7 -9.95 6.85 -8.9 6.5 -11.15 6.15 -13.4 4.0 -13.0 2.45 -13.15 M4.9 -5.1 L6.8 -5.25 7.0 -7.5 6.95 -8.05 5.75 -8.35 3.6 -8.1 Q4.45 -6.4 4.5 -5.25 L4.5 -5.1 4.9 -5.1 M1.0 -8.9 L1.0 -9.0 0.95 -9.05 0.25 -11.6 -0.5 -14.35 -0.5 -14.7 -1.7 -16.15 Q-1.85 -14.35 -2.25 -12.9 L-2.5 -12.15 -2.5 -11.75 -2.6 -9.8 Q-3.25 -9.05 -3.25 -7.0 L-3.25 -6.9 -3.65 -5.65 1.0 -8.9 M-18.9 -25.65 L-18.9 -26.15 -19.15 -25.65 -21.0 -20.6 Q-21.2 -18.75 -22.0 -16.15 L-19.6 -15.45 -18.75 -15.15 -18.5 -17.85 -18.9 -25.65 M-4.15 -30.7 L-6.0 -42.5 Q-14.05 -44.35 -16.3 -37.85 -17.0 -35.85 -17.0 -29.8 L-16.7 -21.4 -16.0 -8.6 -14.0 -8.25 Q-5.7 -8.25 -4.05 -14.75 -3.2 -18.0 -4.0 -21.65 L-4.0 -22.85 -4.0 -25.5 -4.15 -30.7 M-22.15 -14.65 L-22.45 -14.8 -22.8 -13.75 -23.35 -12.0 -23.5 -11.6 Q-22.35 -10.95 -18.9 -10.65 L-18.8 -10.65 -18.85 -10.95 -18.85 -14.15 -21.7 -14.6 -21.75 -14.6 -21.95 -14.6 -22.15 -14.65 M-12.25 -1.6 Q-6.7 -1.6 -5.5 -6.45 L-5.15 -8.45 Q-8.25 -6.0 -14.0 -6.0 L-15.2 -6.1 -14.6 -4.65 Q-13.45 -1.6 -12.25 -1.6" fill="#000000" fill-rule="evenodd" stroke="none"/>
    <path d="M8.3 -27.1 L8.5 -25.0 8.4 -21.8 7.75 -22.0 Q5.55 -22.0 3.7 -20.95 2.6 -20.8 1.0 -24.6 0.1 -26.65 -2.05 -29.8 L-2.1 -31.75 -2.45 -35.2 Q4.1 -36.1 6.9 -31.1 7.85 -29.4 8.3 -27.1" fill="#333333" fill-rule="evenodd" stroke="none"/>
    <path d="M5.25 -19.0 Q6.8 -19.0 7.9 -19.55 6.6 -15.1 2.75 -15.1 1.1 -15.1 -0.8 -20.15 L-2.0 -23.35 -2.0 -25.05 -1.2 -23.7 Q1.75 -19.0 5.25 -19.0 M4.5 -5.25 Q4.45 -6.4 3.6 -8.1 L5.75 -8.35 6.95 -8.05 7.0 -7.5 6.8 -5.25 4.9 -5.1 4.5 -5.25 M-22.15 -14.65 L-21.95 -14.6 -21.75 -14.6 -21.7 -14.6 -18.85 -14.15 -18.85 -10.95 -18.9 -10.65 Q-22.35 -10.95 -23.5 -11.6 L-23.35 -12.0 -22.8 -13.75 -22.5 -14.7 -22.15 -14.65" fill="#cc9d3c" fill-rule="evenodd" stroke="none"/>
    <path d="M2.4 -12.95 L2.45 -13.15 4.0 -13.0 6.15 -13.4 6.5 -11.15 6.85 -8.9 6.7 -9.95 3.25 -9.85 3.05 -9.5 3.0 -9.15 Q3.0 -11.1 2.4 -12.95 M4.9 -5.1 L4.5 -5.1 4.5 -5.25 4.9 -5.1 M-19.15 -25.65 L-18.9 -25.65 -18.5 -17.85 -18.75 -15.15 -19.6 -15.45 -22.0 -16.15 Q-21.2 -18.75 -21.0 -20.6 L-19.15 -25.65 M-22.8 -13.75 L-22.45 -14.8 -22.15 -14.65 -22.5 -14.7 -22.8 -13.75" fill="#e5e5e5" fill-rule="evenodd" stroke="none"/>
    <path d="M0.95 -9.05 L1.0 -8.9 -3.65 -5.65 -3.25 -6.9 -3.25 -7.0 Q-3.25 -9.05 -2.6 -9.8 L-2.5 -11.75 -2.5 -12.15 -2.25 -12.9 Q-1.85 -14.35 -1.7 -16.15 L-0.5 -14.7 -0.5 -14.35 0.25 -11.6 0.95 -9.05" fill="#780000" fill-rule="evenodd" stroke="none"/>
    <path d="M-4.15 -30.7 L-4.0 -25.5 -4.0 -22.85 -4.0 -21.65 Q-3.2 -18.0 -4.05 -14.75 -5.7 -8.25 -14.0 -8.25 L-16.0 -8.6 -16.7 -21.4 -17.0 -29.8 Q-17.0 -35.85 -16.3 -37.85 -14.05 -44.35 -6.0 -42.5 L-4.15 -30.7" fill="#aa8a71" fill-rule="evenodd" stroke="none"/>
    <path d="M-12.25 -1.6 Q-13.45 -1.6 -14.6 -4.65 L-15.2 -6.1 -14.0 -6.0 Q-8.25 -6.0 -5.15 -8.45 L-5.5 -6.45 Q-6.7 -1.6 -12.25 -1.6" fill="#570204" fill-rule="evenodd" stroke="none"/>
  </g>
</svg>
