<?xml version="1.0" encoding="UTF-8" standalone="no"?>
<svg xmlns:ffdec="https://www.free-decompiler.com/flash" xmlns:xlink="http://www.w3.org/1999/xlink" ffdec:objectType="shape" height="82.45px" width="178.9px" xmlns="http://www.w3.org/2000/svg">
  <g transform="matrix(1.0, 0.0, 0.0, 1.0, 76.5, 48.95)">
    <path d="M33.0 -39.25 L33.15 -39.25 Q34.15 -41.15 40.95 -44.6 49.75 -49.0 57.0 -48.75 L69.8 -48.05 Q77.15 -46.95 79.55 -45.75 L85.15 -43.7 Q87.9 -42.6 89.05 -41.25 L93.7 -35.3 98.05 -29.25 Q99.9 -26.7 100.5 -23.1 100.9 -19.05 101.4 -16.85 102.4 -12.85 102.4 -5.05 102.4 5.05 96.75 13.85 91.3 22.35 79.0 32.0 L78.25 31.75 Q78.05 31.6 78.0 31.0 76.95 29.95 75.15 25.1 73.5 20.65 73.5 19.8 L73.6 19.1 73.5 18.4 Q73.5 17.4 76.1 15.9 L79.0 14.3 80.7 11.65 82.3 8.75 Q86.5 1.85 86.5 -1.9 86.5 -5.25 84.8 -10.4 L84.15 -12.3 83.7 -12.0 Q82.75 -11.5 82.25 -11.5 L82.2 -11.5 Q83.5 -7.9 83.5 -4.3 83.5 3.75 79.7 9.2 75.9 14.55 68.0 18.0 L68.5 18.55 69.7 19.65 70.75 20.8 Q71.3 21.65 71.45 22.95 L71.5 25.1 Q71.5 28.65 70.5 29.8 68.2 32.5 60.0 32.5 55.35 32.5 53.8 31.25 53.25 30.8 53.1 30.1 L43.0 29.75 Q42.05 31.3 41.0 31.8 L40.0 32.4 39.5 32.8 22.25 33.5 Q14.45 33.5 12.8 31.65 L11.35 30.35 Q10.1 29.75 6.9 29.75 3.9 29.75 3.0 30.35 L0.85 31.65 Q-4.55 33.5 -31.75 33.5 -42.25 33.5 -43.5 32.5 -44.2 31.9 -43.0 30.3 -43.35 27.7 -46.65 27.85 L-54.75 28.5 Q-59.7 28.5 -61.95 27.0 L-69.5 27.0 Q-75.4 23.95 -76.05 23.15 -76.5 22.6 -76.5 19.35 -76.5 14.35 -72.95 11.15 -69.55 8.1 -61.0 5.25 L-60.9 4.35 Q-60.75 3.15 -60.2 2.3 -59.4 1.0 -57.7 0.3 -51.8 -2.15 -48.1 -5.75 -47.1 -6.75 -41.25 -8.3 -34.9 -10.0 -33.6 -10.75 -32.3 -11.45 -25.85 -16.5 -23.4 -18.5 -22.25 -19.45 L-18.5 -21.85 -16.5 -22.9 -13.5 -24.0 -9.15 -24.35 Q-6.95 -24.4 -5.0 -26.35 -4.2 -27.15 -2.65 -29.65 -1.45 -31.6 0.3 -32.75 2.6 -34.2 6.4 -35.2 L13.0 -37.0 Q19.4 -39.15 26.65 -33.65 28.3 -32.4 35.0 -25.35 L38.65 -21.35 Q39.15 -23.4 41.7 -24.1 L54.3 -27.25 Q59.75 -28.9 65.15 -26.9 67.15 -26.15 74.5 -21.85 L75.55 -21.1 Q75.75 -21.8 76.55 -22.3 L77.2 -22.65 75.5 -24.5 Q71.55 -28.4 68.3 -29.35 L61.9 -29.75 Q53.25 -29.75 47.8 -28.1 L42.25 -26.5 41.5 -26.6 Q41.45 -28.0 40.6 -28.6 L39.95 -29.2 40.0 -29.8 Q40.0 -30.15 38.45 -31.5 36.7 -33.05 36.0 -34.5 L34.05 -36.55 33.25 -37.65 33.15 -37.7 33.0 -38.25 33.0 -39.25 M39.25 -34.55 Q42.0 -30.6 42.0 -29.55 L41.95 -28.65 46.2 -30.05 Q52.25 -31.7 57.5 -31.75 72.9 -34.35 81.95 -20.95 85.15 -16.15 87.0 -10.1 88.5 -5.2 88.5 -2.05 88.5 2.65 84.25 10.2 79.8 18.1 75.2 19.35 76.1 20.7 77.0 22.9 L79.0 28.05 79.0 29.75 84.95 24.15 Q92.4 17.0 94.65 13.8 95.85 12.2 97.15 9.4 L99.4 4.5 Q99.85 3.5 100.15 -0.05 L100.4 -4.65 Q100.4 -13.25 99.4 -16.5 L98.4 -22.2 Q97.9 -25.55 96.4 -27.75 L92.15 -33.45 88.0 -38.85 Q86.3 -41.15 79.6 -43.6 70.95 -46.75 60.65 -46.75 52.05 -46.75 47.4 -44.9 45.3 -44.05 35.6 -38.4 37.35 -37.25 39.25 -34.55 M37.65 -19.65 L33.25 -24.35 Q28.45 -29.25 26.55 -30.75 22.55 -33.95 18.3 -34.75 14.8 -35.4 10.05 -33.9 4.8 -31.9 2.05 -31.25 0.45 -30.3 -0.9 -28.4 -2.4 -26.1 -3.5 -24.85 L-3.5 -24.8 -3.7 -24.6 -4.2 -24.15 -4.25 -24.15 -5.65 -23.3 -9.2 -22.1 -10.1 -21.9 -16.0 -20.6 Q-21.2 -18.05 -24.5 -15.1 -26.2 -13.45 -31.5 -9.1 L-31.5 -9.05 -31.65 -8.95 -32.65 -8.35 Q-34.7 -7.25 -38.55 -6.85 L-38.75 -6.8 -40.4 -6.6 -42.9 -6.05 -43.1 -6.0 -45.25 -5.15 -45.75 -4.85 -48.45 -1.95 Q-50.1 0.0 -52.0 0.9 -55.4 2.5 -58.05 3.25 -59.0 3.65 -59.0 5.6 L-59.0 5.7 -58.8 6.95 -58.65 7.5 -57.25 11.3 Q-55.5 15.4 -55.5 16.5 -55.5 17.95 -58.35 20.65 -61.2 23.25 -61.1 25.0 -58.8 27.25 -53.45 26.85 L-47.0 26.0 Q-42.8 26.0 -41.6 27.0 -41.2 27.35 -41.0 28.75 L-41.0 30.55 -36.75 31.0 -31.75 31.25 Q-3.5 31.25 0.85 29.4 L2.45 28.1 Q3.35 27.5 7.25 27.5 11.25 27.5 13.45 29.4 15.6 31.25 21.9 31.25 40.25 31.25 40.45 28.9 40.6 27.8 42.3 27.45 45.15 27.0 54.6 27.25 L54.7 28.5 55.45 29.15 56.75 30.3 Q66.65 30.3 69.0 28.0 69.75 27.2 69.7 26.15 L69.5 24.9 Q69.5 22.7 67.6 20.95 65.25 18.75 64.8 17.75 L63.1 14.15 62.2 11.6 62.0 11.6 Q61.75 8.9 58.85 5.75 L52.25 -0.35 48.85 -2.55 Q47.05 -3.85 47.0 -6.1 47.0 -8.05 43.8 -12.1 L40.1 -16.75 Q39.15 -17.2 38.75 -18.35 L37.65 -19.65 M-34.55 5.35 L-35.0 3.65 Q-35.0 1.35 -34.05 0.25 L-29.5 -4.0 -28.75 -3.85 Q-28.5 -3.8 -28.5 -3.0 -28.5 -2.7 -30.75 -0.45 -33.0 1.8 -33.0 3.55 L-33.0 3.6 -32.9 4.0 -32.25 5.55 Q-31.5 7.05 -31.5 7.6 -31.5 14.65 -49.5 19.0 L-49.85 18.8 -50.5 18.3 Q-49.6 17.35 -40.95 13.5 -33.5 10.15 -33.5 7.85 -33.5 7.55 -34.25 6.0 L-34.55 5.35 M1.2 -8.3 Q0.6 -9.7 0.55 -12.3 L0.5 -13.25 0.6 -16.9 Q1.0 -19.35 2.5 -19.5 L3.2 -19.25 3.5 -18.45 3.5 -18.3 3.5 -18.2 3.0 -15.75 2.5 -13.25 2.5 -13.15 2.5 -13.05 2.5 -12.95 2.5 -12.9 2.5 -12.8 2.5 -12.7 3.1 -10.0 3.15 -9.85 Q3.75 -8.5 4.9 -7.4 5.8 -6.55 10.25 -3.8 18.0 0.95 18.0 10.3 18.0 12.9 17.4 14.1 16.65 15.65 14.25 16.8 10.4 18.7 -8.1 23.0 L-8.3 22.85 -8.5 21.9 Q-8.5 20.9 -0.4 18.8 L8.25 16.75 Q14.25 14.8 15.5 13.3 16.0 12.7 16.0 10.1 16.0 6.75 14.7 3.9 13.0 0.3 9.5 -1.6 3.1 -5.05 1.5 -7.65 L1.2 -8.3 M29.5 -19.5 Q30.35 -18.55 30.85 -16.15 31.5 -13.2 32.0 -12.1 32.65 -10.6 34.0 -8.35 L36.3 -5.0 41.4 1.75 Q44.5 6.45 44.5 9.0 44.5 10.85 42.85 11.55 38.9 13.15 38.25 13.55 32.75 18.0 32.25 18.0 L31.3 17.75 Q31.0 18.15 31.0 16.9 L42.5 8.75 Q42.5 5.8 35.5 -3.25 28.5 -12.3 28.5 -17.25 28.5 -18.95 29.5 -19.5 M79.55 3.75 L79.65 3.5 79.95 2.65 Q81.5 -1.9 81.5 -4.35 81.5 -10.05 77.0 -16.35 70.6 -25.25 59.15 -25.25 53.95 -25.25 48.9 -23.7 L40.5 -20.5 Q40.75 -19.95 41.35 -19.3 L42.5 -18.0 42.45 -17.1 42.45 -17.05 42.6 -16.9 43.05 -16.4 46.0 -13.0 48.75 -9.6 Q49.05 -9.05 49.0 -7.95 L49.0 -6.25 Q49.3 -4.8 51.15 -3.5 L54.75 -1.1 Q59.7 2.9 61.65 5.45 63.05 7.3 63.6 9.2 64.75 9.55 65.1 11.25 65.9 15.0 66.9 16.1 69.75 15.2 71.55 13.5 L74.35 11.15 77.0 8.75 Q78.2 7.3 79.55 3.75 M77.45 -19.4 Q79.85 -16.9 81.45 -13.4 L81.5 -13.25 82.2 -13.8 83.3 -14.4 Q82.4 -16.4 81.5 -17.5 L79.0 -20.55 78.4 -19.95 77.45 -19.4 M-63.5 24.85 L-63.5 24.8 -63.4 24.0 Q-63.15 23.05 -62.3 22.0 L-60.5 20.05 Q-57.5 17.3 -57.5 16.4 L-59.25 12.15 -60.8 7.1 Q-61.35 7.5 -62.25 7.9 L-67.25 10.1 Q-74.5 13.8 -74.5 19.5 -74.5 21.55 -73.2 22.7 -70.6 25.05 -63.5 25.1 L-63.45 25.1 -63.5 24.85" fill="#000000" fill-rule="evenodd" stroke="none"/>
    <path d="M43.05 -16.4 L48.75 -19.1 Q55.3 -22.25 59.9 -22.25 67.9 -22.25 73.45 -16.4 76.85 -12.8 77.8 -9.5 L79.1 -6.05 Q80.0 -3.6 80.0 -2.35 L79.25 1.7 Q79.05 2.9 79.55 3.75 78.2 7.3 77.0 8.75 L74.35 11.15 71.55 13.5 Q69.75 15.2 66.9 16.1 65.9 15.0 65.1 11.25 64.75 9.55 63.6 9.2 63.05 7.3 61.65 5.45 59.7 2.9 54.75 -1.1 L51.15 -3.5 Q49.3 -4.8 49.0 -6.25 L49.0 -7.95 Q49.05 -9.05 48.75 -9.6 L46.0 -13.0 43.05 -16.4 M-63.5 25.1 Q-70.6 25.05 -73.2 22.7 -74.5 21.55 -74.5 19.5 -74.5 13.8 -67.25 10.1 L-62.25 7.9 Q-61.35 7.5 -60.8 7.1 L-59.25 12.15 -57.5 16.4 Q-57.5 17.3 -60.5 20.05 L-62.3 22.0 Q-63.15 23.05 -63.4 24.0 L-63.5 24.8 -63.5 24.85 -63.5 25.1" fill="#333333" fill-rule="evenodd" stroke="none"/>
    <path d="M43.05 -16.4 L42.6 -16.9 42.45 -17.05 42.45 -17.1 42.5 -18.0 41.35 -19.3 Q40.75 -19.95 40.5 -20.5 L48.9 -23.7 Q53.95 -25.25 59.15 -25.25 70.6 -25.25 77.0 -16.35 81.5 -10.05 81.5 -4.35 81.5 -1.9 79.95 2.65 L79.65 3.5 79.55 3.75 Q79.05 2.9 79.25 1.7 L80.0 -2.35 Q80.0 -3.6 79.1 -6.05 L77.8 -9.5 Q76.85 -12.8 73.45 -16.4 67.9 -22.25 59.9 -22.25 55.3 -22.25 48.75 -19.1 L43.05 -16.4" fill="#666666" fill-rule="evenodd" stroke="none"/>
    <path d="M77.45 -19.4 L78.4 -19.95 79.0 -20.55 81.5 -17.5 Q82.4 -16.4 83.3 -14.4 L82.2 -13.8 81.5 -13.25 81.45 -13.4 Q79.85 -16.9 77.45 -19.4" fill="#1a1a1a" fill-rule="evenodd" stroke="none"/>
    <path d="M-3.7 -24.6 L-3.5 -24.8 -3.5 -24.85 Q-2.4 -26.1 -0.9 -28.4 0.45 -30.3 2.05 -31.25 4.8 -31.9 10.05 -33.9 14.8 -35.4 18.3 -34.75 22.55 -33.95 26.55 -30.75 28.45 -29.25 33.25 -24.35 L37.65 -19.65 36.75 -19.5 Q33.55 -19.5 27.85 -25.15 22.1 -30.85 20.05 -30.85 12.25 -30.85 10.45 -29.95 9.6 -28.7 8.05 -28.1 L5.95 -27.45 Q4.65 -26.95 4.0 -25.85 3.4 -24.8 3.4 -23.1 L3.5 -20.25 3.5 -18.45 3.2 -19.25 2.5 -19.5 Q1.0 -19.35 0.6 -16.9 L0.5 -13.25 0.55 -12.3 Q0.6 -9.7 1.2 -8.3 0.1 -9.35 -1.25 -14.1 -3.0 -20.25 -3.85 -20.25 -6.65 -20.25 -15.15 -15.35 -23.85 -10.3 -26.35 -7.0 -27.0 -6.15 -27.5 -3.6 -28.05 -1.1 -28.75 -0.25 -28.9 -0.05 -29.6 0.3 L-30.85 1.0 -31.85 2.5 -32.9 4.0 -33.0 3.6 -33.0 3.55 Q-33.0 1.8 -30.75 -0.45 -28.5 -2.7 -28.5 -3.0 -28.5 -3.8 -28.75 -3.85 L-29.5 -4.0 -34.05 0.25 Q-35.0 1.35 -35.0 3.65 L-34.55 5.35 -35.0 5.5 -36.25 4.4 -36.5 3.75 Q-34.5 -1.85 -34.5 -3.0 L-34.55 -3.65 -35.0 -3.5 Q-39.3 -4.25 -42.35 -2.5 -44.55 -1.25 -47.5 2.4 -48.85 4.1 -52.1 5.65 -55.5 7.3 -58.65 7.5 L-58.8 6.95 -59.0 5.7 -59.0 5.6 Q-59.0 3.65 -58.05 3.25 -55.4 2.5 -52.0 0.9 -50.1 0.0 -48.45 -1.95 L-45.75 -4.85 -45.25 -5.15 -43.1 -6.0 -42.9 -6.05 -42.4 -6.15 -41.85 -5.85 -41.25 -6.4 -40.4 -6.6 -38.75 -6.8 -38.55 -6.85 Q-34.7 -7.25 -32.65 -8.35 L-32.0 -8.25 -31.65 -8.95 -31.5 -9.05 -31.5 -9.1 Q-26.2 -13.45 -24.5 -15.1 -21.2 -18.05 -16.0 -20.6 L-10.1 -21.9 -9.2 -22.1 -5.65 -23.3 -4.25 -24.15 -4.2 -24.15 -3.0 -24.25 -3.7 -24.6 M3.15 -9.85 L3.1 -10.0 2.5 -12.7 2.5 -12.8 2.5 -12.9 2.5 -12.95 2.5 -13.05 2.5 -13.15 2.5 -13.25 3.0 -15.75 3.5 -18.2 3.35 -9.5 3.15 -9.85" fill="#942403" fill-rule="evenodd" stroke="none"/>
    <path d="M39.25 -34.55 Q37.35 -37.25 35.6 -38.4 45.3 -44.05 47.4 -44.9 52.05 -46.75 60.65 -46.75 70.95 -46.75 79.6 -43.6 86.3 -41.15 88.0 -38.85 L92.15 -33.45 96.4 -27.75 Q97.9 -25.55 98.4 -22.2 L99.4 -16.5 Q100.4 -13.25 100.4 -4.65 L100.15 -0.05 Q99.85 3.5 99.4 4.5 L97.15 9.4 Q95.85 12.2 94.65 13.8 92.4 17.0 84.95 24.15 L79.0 29.75 79.0 28.05 77.0 22.9 Q76.1 20.7 75.2 19.35 79.8 18.1 84.25 10.2 88.5 2.65 88.5 -2.05 88.5 -5.2 87.0 -10.1 85.15 -16.15 81.95 -20.95 72.9 -34.35 57.5 -31.75 52.25 -31.7 46.2 -30.05 L41.95 -28.65 42.0 -29.55 Q42.0 -30.6 39.25 -34.55 M-3.7 -24.6 L-3.0 -24.25 -4.2 -24.15 -3.7 -24.6 M-31.65 -8.95 L-32.0 -8.25 -32.65 -8.35 -31.65 -8.95 M-40.4 -6.6 L-41.25 -6.4 -41.85 -5.85 -42.4 -6.15 -42.9 -6.05 -40.4 -6.6 M-58.65 7.5 Q-55.5 7.3 -52.1 5.65 -48.85 4.1 -47.5 2.4 -44.55 -1.25 -42.35 -2.5 -39.3 -4.25 -35.0 -3.5 L-34.55 -3.65 -34.5 -3.0 Q-34.5 -1.85 -36.5 3.75 L-36.25 4.4 -35.0 5.5 -34.55 5.35 -34.25 6.0 Q-33.5 7.55 -33.5 7.85 -33.5 10.15 -40.95 13.5 -49.6 17.35 -50.5 18.3 L-49.85 18.8 -49.5 19.0 Q-31.5 14.65 -31.5 7.6 -31.5 7.05 -32.25 5.55 L-32.9 4.0 -31.85 2.5 -30.85 1.0 -29.6 0.3 Q-28.9 -0.05 -28.75 -0.25 -28.05 -1.1 -27.5 -3.6 -27.0 -6.15 -26.35 -7.0 -23.85 -10.3 -15.15 -15.35 -6.65 -20.25 -3.85 -20.25 -3.0 -20.25 -1.25 -14.1 0.1 -9.35 1.2 -8.3 L1.5 -7.65 Q3.1 -5.05 9.5 -1.6 13.0 0.3 14.7 3.9 16.0 6.75 16.0 10.1 16.0 12.7 15.5 13.3 14.25 14.8 8.25 16.75 L-0.4 18.8 Q-8.5 20.9 -8.5 21.9 L-8.3 22.85 -8.1 23.0 Q10.4 18.7 14.25 16.8 16.65 15.65 17.4 14.1 18.0 12.9 18.0 10.3 18.0 0.95 10.25 -3.8 5.8 -6.55 4.9 -7.4 3.75 -8.5 3.15 -9.85 L3.35 -9.5 3.5 -18.2 3.5 -18.3 3.5 -18.45 3.5 -20.25 3.4 -23.1 Q3.4 -24.8 4.0 -25.85 4.65 -26.95 5.95 -27.45 L8.05 -28.1 Q9.6 -28.7 10.45 -29.95 12.25 -30.85 20.05 -30.85 22.1 -30.85 27.85 -25.15 33.55 -19.5 36.75 -19.5 L37.65 -19.65 38.75 -18.35 Q39.15 -17.2 40.1 -16.75 L43.8 -12.1 Q47.0 -8.05 47.0 -6.1 47.05 -3.85 48.85 -2.55 L52.25 -0.35 58.85 5.75 Q61.75 8.9 62.0 11.6 L62.2 11.6 63.1 14.15 64.8 17.75 Q65.25 18.75 67.6 20.95 69.5 22.7 69.5 24.9 L69.7 26.15 Q69.75 27.2 69.0 28.0 66.65 30.3 56.75 30.3 L55.45 29.15 54.7 28.5 54.6 27.25 Q45.15 27.0 42.3 27.45 40.6 27.8 40.45 28.9 40.25 31.25 21.9 31.25 15.6 31.25 13.45 29.4 11.25 27.5 7.25 27.5 3.35 27.5 2.45 28.1 L0.85 29.4 Q-3.5 31.25 -31.75 31.25 L-36.75 31.0 -41.0 30.55 -41.0 28.75 Q-41.2 27.35 -41.6 27.0 -42.8 26.0 -47.0 26.0 L-53.45 26.85 Q-58.8 27.25 -61.1 25.0 -61.2 23.25 -58.35 20.65 -55.5 17.95 -55.5 16.5 -55.5 15.4 -57.25 11.3 L-58.65 7.5 M29.5 -19.5 Q28.5 -18.95 28.5 -17.25 28.5 -12.3 35.5 -3.25 42.5 5.8 42.5 8.75 L31.0 16.9 Q31.0 18.15 31.3 17.75 L32.25 18.0 Q32.75 18.0 38.25 13.55 38.9 13.15 42.85 11.55 44.5 10.85 44.5 9.0 44.5 6.45 41.4 1.75 L36.3 -5.0 34.0 -8.35 Q32.65 -10.6 32.0 -12.1 31.5 -13.2 30.85 -16.15 30.35 -18.55 29.5 -19.5" fill="#731c02" fill-rule="evenodd" stroke="none"/>
  </g>
</svg>
