<?xml version="1.0" encoding="UTF-8" standalone="no"?>
<svg xmlns:ffdec="https://www.free-decompiler.com/flash" xmlns:xlink="http://www.w3.org/1999/xlink" ffdec:objectType="shape" height="103.5px" width="136.25px" xmlns="http://www.w3.org/2000/svg">
  <g transform="matrix(1.0, 0.0, 0.0, 1.0, -40.9, -52.0)">
    <path d="M176.85 86.0 L177.0 90.05 177.15 92.35 Q177.2 94.1 176.5 95.3 174.45 99.0 165.75 99.0 L156.7 98.3 Q152.35 97.55 150.2 96.4 L142.5 105.5 135.2 95.65 Q133.6 101.6 131.45 103.6 L130.95 106.15 130.3 109.6 Q131.45 110.45 132.8 112.65 136.0 117.75 136.0 120.9 136.0 122.45 135.4 123.65 L136.55 125.4 Q138.1 128.2 138.55 130.25 L140.65 135.3 142.5 139.9 Q142.5 140.85 141.15 142.3 L141.0 142.5 141.0 142.6 Q141.0 143.9 139.0 144.85 136.4 146.0 131.25 146.0 L128.3 145.9 128.15 146.05 127.5 146.5 126.7 145.8 Q122.4 145.35 119.5 144.0 L117.25 142.75 116.15 143.75 Q112.65 147.0 111.75 147.0 108.3 147.0 104.85 143.5 L100.75 145.05 Q94.8 147.0 89.25 147.0 81.25 147.0 78.5 145.0 77.0 143.95 77.0 142.05 77.0 140.2 77.9 137.5 L78.15 136.9 75.8 137.7 71.5 139.0 Q70.45 139.35 68.1 140.4 L66.3 141.2 67.1 143.55 72.0 154.5 71.75 155.1 Q71.55 155.5 70.75 155.5 L70.3 155.45 69.75 155.5 67.3 155.0 62.5 155.0 57.15 154.25 Q52.75 153.8 50.3 152.75 47.55 151.6 45.5 150.3 44.7 149.8 43.0 147.6 41.5 145.7 41.15 144.6 L40.9 144.75 Q41.45 138.3 42.0 124.8 42.6 110.1 45.0 101.3 47.3 92.35 48.3 89.75 L50.55 83.75 Q52.05 80.15 53.5 78.05 58.7 70.1 61.6 66.15 66.6 59.3 72.0 55.0 L72.7 55.2 Q73.0 55.3 73.0 56.1 L73.5 56.05 73.5 56.0 73.3 56.0 73.15 55.85 Q73.0 55.65 73.0 54.9 73.0 54.45 73.75 54.3 L85.0 53.5 88.15 53.05 91.75 52.45 92.5 52.0 92.75 52.35 93.5 52.25 Q93.5 52.05 101.45 52.1 L110.5 52.5 122.5 54.0 126.2 55.25 Q130.0 56.45 132.55 56.75 135.55 57.15 140.45 59.35 145.5 61.55 145.5 62.65 L145.45 63.4 145.3 63.45 147.35 65.35 150.8 69.0 Q152.3 70.15 156.35 71.85 158.35 72.75 158.5 74.5 L159.75 74.95 Q162.35 76.0 163.0 76.8 L162.3 78.35 Q164.55 78.4 167.8 79.5 170.05 80.25 174.55 82.25 176.4 83.2 176.85 86.0 M175.2 91.45 L175.0 89.9 Q175.0 85.65 173.25 84.35 171.15 82.75 161.4 80.05 157.9 86.55 151.6 94.65 L152.5 95.0 155.55 95.75 165.9 96.75 Q173.25 96.75 174.8 93.75 175.35 92.8 175.2 91.45 M119.3 55.8 Q110.45 54.25 100.9 54.25 L94.4 54.45 96.55 56.75 Q97.45 57.45 98.65 59.3 100.95 60.75 108.65 60.75 112.8 60.75 115.85 59.3 L118.05 57.8 119.25 55.95 119.35 55.85 119.3 55.8 M122.4 70.85 Q126.45 69.3 130.3 66.05 L130.85 65.6 129.05 64.75 Q121.2 61.05 118.8 61.0 L118.65 60.85 118.55 60.35 116.9 61.25 114.75 62.1 115.75 63.8 117.5 68.75 118.4 71.3 118.65 71.9 119.7 71.65 121.8 71.05 122.4 70.85 M106.0 63.0 L103.5 62.9 102.95 62.9 103.5 63.65 102.85 67.15 101.75 70.5 101.6 71.05 101.5 71.35 101.5 71.4 101.45 71.6 102.4 71.7 105.1 71.95 114.65 72.25 116.15 72.2 112.7 62.65 108.5 63.0 106.0 63.0 M92.85 56.15 L91.85 54.75 91.85 54.7 91.05 54.8 84.5 56.0 82.1 56.0 Q83.05 56.95 84.2 58.95 L84.7 59.85 86.3 62.4 87.95 61.7 Q92.35 59.9 95.25 59.45 L95.9 59.35 95.05 58.5 92.85 56.15 M98.0 61.75 L97.95 61.7 97.55 61.05 96.15 61.55 Q91.8 63.0 90.0 63.8 L88.6 64.5 88.4 64.55 88.75 64.8 91.05 67.05 91.15 67.15 93.55 69.25 Q96.2 70.6 98.25 71.05 L99.3 71.25 100.0 68.15 101.35 62.8 98.8 62.35 Q98.2 62.1 98.0 61.75 M78.0 60.75 L78.5 61.55 81.35 65.55 Q82.05 64.5 84.6 63.2 L83.6 61.85 83.55 61.75 83.5 61.7 82.45 60.15 81.9 59.35 Q80.5 57.2 80.5 56.6 80.5 56.25 80.65 56.0 L75.2 56.0 76.45 58.1 78.0 60.75 M88.3 67.6 L87.25 66.55 86.35 65.5 Q83.95 66.6 82.6 67.25 L83.5 68.3 85.6 70.6 86.8 71.95 Q88.45 73.65 90.05 74.25 93.85 75.65 99.0 76.65 L99.15 76.7 99.05 76.25 99.0 74.3 99.05 73.5 97.55 73.15 Q92.65 71.75 88.3 67.6 M82.45 71.95 L82.3 71.8 82.2 71.75 78.75 74.05 Q74.7 76.35 72.5 76.5 L72.55 76.6 72.35 76.5 72.25 76.5 71.45 76.45 71.2 76.9 71.15 77.0 71.5 78.25 74.0 83.05 74.05 82.45 74.25 82.05 Q85.75 81.45 88.8 79.1 L90.5 77.55 91.5 77.1 89.0 75.8 85.15 73.0 82.9 70.9 82.5 71.45 82.45 71.95 M105.0 74.25 L101.1 73.85 101.1 73.9 100.85 77.0 105.0 77.65 112.4 78.25 114.15 78.25 114.4 78.25 116.35 78.25 116.7 78.2 118.7 78.05 117.05 74.4 114.5 74.5 113.95 74.5 112.85 74.5 111.75 74.5 105.3 74.25 105.0 74.25 M74.8 84.6 L75.55 86.15 76.0 86.9 79.1 86.6 Q84.8 86.25 89.5 84.55 91.85 83.7 94.05 82.3 L97.45 79.55 98.15 79.05 96.2 78.6 93.95 77.95 Q93.35 79.5 87.9 81.8 81.1 84.7 75.0 84.5 L74.7 84.45 74.8 84.6 M82.0 95.3 L81.95 95.55 85.7 96.15 89.9 96.75 Q95.25 96.75 99.95 94.9 L103.95 93.35 104.25 93.25 103.55 92.5 102.3 90.75 Q100.25 92.15 94.5 93.6 85.5 95.9 85.5 94.5 L88.5 94.5 85.5 94.45 81.15 94.05 80.75 94.0 82.0 95.3 M83.1 98.2 L84.3 99.5 Q87.7 103.3 88.25 103.3 98.05 103.3 105.55 100.1 108.85 98.75 111.6 97.1 107.95 96.35 105.45 94.35 104.9 95.35 101.5 96.8 96.5 99.0 90.0 99.0 L85.4 98.55 83.1 98.2 M89.4 92.25 Q94.45 92.25 98.15 90.25 L101.35 88.6 101.65 89.4 Q101.0 87.85 101.0 86.4 101.0 83.25 101.35 82.1 101.75 80.85 102.75 79.85 L101.35 79.65 Q100.5 81.6 94.6 84.75 86.65 89.0 78.5 89.0 L77.35 88.85 77.1 88.8 78.55 91.1 79.5 91.0 84.45 91.65 89.4 92.25 M121.4 80.1 L121.15 80.1 121.4 80.3 Q123.5 81.95 123.5 85.1 123.5 87.5 122.8 88.75 L121.8 90.0 Q120.5 91.0 118.25 91.0 112.65 91.0 110.8 88.85 L110.55 88.5 Q110.0 87.7 110.0 85.6 110.0 82.85 112.1 80.95 L112.7 80.5 112.1 80.5 105.0 80.1 104.55 80.6 Q103.55 81.9 103.5 83.25 L103.25 84.95 103.0 86.75 Q103.0 88.75 105.25 91.0 L106.05 91.75 107.3 92.75 Q110.95 95.25 116.4 95.25 120.95 95.25 124.15 93.25 L124.3 93.2 124.4 93.1 125.7 92.1 127.55 90.0 Q128.1 89.25 128.95 86.7 L129.8 83.35 Q129.8 82.5 128.65 80.35 L127.9 78.65 121.4 80.1 M118.8 81.55 L116.75 81.45 Q112.0 81.75 112.0 85.8 112.0 86.9 113.55 87.75 114.75 88.4 116.4 88.65 L118.4 88.75 Q120.15 88.75 121.0 86.8 121.45 85.85 121.5 85.1 121.5 82.1 118.8 81.55 M113.5 97.5 Q110.4 100.1 105.75 102.2 L102.75 103.4 124.25 103.05 121.9 101.6 Q118.75 99.3 117.8 97.45 L116.25 97.5 113.5 97.35 113.45 97.35 113.5 97.5 M122.85 73.2 L119.6 74.05 Q120.5 76.25 120.55 77.85 L124.7 76.95 Q128.4 75.85 131.4 73.85 133.45 72.45 137.2 68.75 L137.45 68.5 137.0 68.5 132.7 66.55 130.0 68.8 Q127.95 70.65 125.55 71.95 L122.85 73.2 M142.1 67.35 L142.45 66.35 141.65 67.2 Q137.65 71.6 136.5 73.3 L135.1 74.85 Q135.8 75.1 136.7 75.8 L139.4 78.4 141.05 71.6 142.1 67.35 M153.8 73.45 L149.8 70.75 Q146.1 68.15 144.8 66.35 L143.6 71.45 Q145.75 72.1 148.3 75.1 L149.7 76.75 152.9 80.4 153.65 79.45 156.5 74.85 156.35 74.8 156.25 74.75 153.8 73.45 M134.2 62.35 L136.05 60.15 Q133.7 59.2 132.5 59.0 L122.6 56.45 122.35 56.4 122.2 56.75 120.85 58.55 Q122.35 58.8 124.8 59.95 127.35 61.15 132.6 64.0 L134.2 62.35 M140.45 65.35 L142.55 63.1 139.65 61.7 137.5 60.75 Q137.4 61.5 136.05 63.1 L136.0 63.1 135.35 63.9 134.5 64.75 134.35 64.9 138.3 67.05 138.45 67.45 138.55 67.3 140.45 65.35 M131.6 77.25 Q132.75 77.55 134.25 78.5 L138.45 81.15 138.8 80.25 136.0 78.05 133.75 75.9 131.65 77.1 131.5 77.2 131.6 77.25 M137.85 82.65 L137.9 82.5 137.5 82.5 Q136.55 82.5 133.2 80.7 L131.5 79.8 Q132.0 81.4 132.0 83.8 132.0 86.3 130.85 88.75 L133.3 88.65 Q134.05 88.75 134.75 89.15 L137.85 82.65 M140.8 84.9 L139.7 83.3 139.25 84.55 138.1 87.65 136.35 92.1 138.25 91.2 Q140.75 90.05 143.35 88.4 L140.8 84.9 M130.15 90.15 L128.75 92.05 128.3 92.6 128.55 92.7 130.15 93.2 132.05 94.05 132.5 93.5 132.65 93.6 133.7 91.35 132.8 91.05 130.3 90.25 130.2 90.05 130.15 90.15 M126.75 94.1 Q123.8 96.5 119.75 97.25 L122.35 99.3 Q125.95 101.75 128.45 102.05 L128.5 102.0 128.6 102.05 129.05 102.05 129.95 101.8 130.0 101.75 Q131.15 100.95 132.0 98.25 L132.65 96.5 132.5 96.5 Q131.35 96.5 129.1 95.45 L126.75 94.1 M139.35 97.15 L142.75 102.3 152.2 90.35 Q157.85 82.8 160.05 77.55 L157.95 77.0 Q156.45 80.35 151.05 85.8 142.95 93.95 136.6 94.0 137.7 94.85 139.35 97.15 M142.75 83.35 L143.35 84.05 Q144.8 85.85 145.25 87.05 L148.5 84.55 151.7 81.7 Q150.45 81.0 148.15 78.75 L146.8 77.35 143.05 73.35 142.45 75.25 140.4 81.4 Q141.5 81.9 142.75 83.35 M72.05 58.5 L72.0 58.5 Q69.35 59.7 67.1 62.75 66.35 63.8 65.9 64.75 L63.3 68.0 59.2 73.6 Q56.8 76.85 55.55 79.25 52.1 85.75 50.2 90.45 47.7 96.65 47.0 101.75 L45.15 113.0 Q44.05 119.7 43.8 124.25 L43.4 135.45 43.15 143.85 Q44.25 144.8 44.85 146.05 45.85 148.0 46.65 148.65 48.35 149.95 53.7 151.0 L57.15 151.6 64.25 152.5 65.25 152.75 Q65.75 152.75 66.1 152.3 L66.15 152.2 67.9 152.75 67.1 151.1 64.8 144.3 63.0 138.35 63.0 133.6 Q63.0 127.3 64.05 118.85 L66.0 104.25 67.05 89.2 Q67.4 84.15 68.35 80.45 L68.65 79.25 68.7 79.1 68.6 78.9 68.5 77.15 Q68.5 76.35 68.75 75.85 69.0 75.35 69.55 74.9 L72.8 69.35 Q75.55 64.95 76.85 63.3 L76.8 63.2 76.65 63.0 76.6 62.95 75.8 61.75 74.65 59.7 73.75 57.5 72.05 58.5 M80.55 68.05 L78.2 65.05 75.0 70.6 73.5 72.95 73.15 73.45 72.95 73.8 73.65 73.5 77.05 72.3 79.45 70.75 Q80.0 70.4 80.6 70.2 L80.5 68.05 80.55 68.05 M73.05 86.0 L72.0 85.9 70.6 81.15 70.15 83.75 Q69.15 89.1 69.0 91.05 L68.55 98.1 68.0 105.3 66.25 118.75 Q65.0 128.65 65.0 133.5 65.0 136.3 65.8 139.45 L67.25 138.65 Q69.85 137.3 70.25 137.25 L74.35 135.85 Q77.35 134.95 78.8 135.1 L79.5 133.05 80.4 128.4 Q80.8 126.35 81.6 125.35 L81.0 124.25 Q80.5 122.9 80.7 121.3 L81.0 119.85 Q81.0 115.2 81.25 114.0 81.8 111.5 83.7 110.65 L83.65 110.55 84.0 109.0 83.5 102.55 83.75 102.45 83.0 101.05 Q79.5 97.25 79.5 96.75 L79.55 96.1 Q77.05 94.55 73.5 87.05 L73.05 86.0 M79.45 139.9 Q79.0 141.25 79.0 142.1 79.0 143.1 80.55 143.75 L84.15 144.55 Q84.0 144.2 84.0 143.3 L84.1 140.85 Q84.3 138.65 84.8 135.95 L85.05 134.5 Q85.85 130.45 86.75 128.15 84.55 127.75 83.15 126.85 L82.75 127.9 Q82.0 129.7 82.0 130.0 82.0 131.9 81.5 134.05 L80.8 136.15 79.95 138.4 79.45 139.9 M124.7 109.65 Q128.4 108.5 128.5 107.05 L128.7 104.5 128.1 104.4 125.5 105.5 125.0 105.5 122.0 105.5 121.7 105.5 122.0 106.0 122.0 110.3 124.7 109.65 M127.35 116.65 Q128.5 116.15 128.5 113.55 L127.3 113.3 127.0 113.25 125.55 113.25 125.5 113.55 125.5 116.25 125.85 116.6 126.75 116.75 127.35 116.65 M130.0 116.8 Q129.05 119.0 126.75 119.0 124.0 119.0 123.5 116.9 L123.5 114.6 Q123.5 113.4 123.85 112.55 L122.75 112.8 Q123.1 114.15 123.1 115.85 L123.05 119.0 123.25 119.0 Q124.1 119.0 125.1 119.65 L126.25 120.3 Q128.95 120.3 131.15 118.0 L132.35 117.0 130.8 114.55 130.5 114.15 Q130.5 115.6 130.0 116.8 M128.8 122.2 L127.25 122.5 Q125.3 122.5 124.35 122.0 L123.0 121.3 123.15 124.45 123.2 124.9 123.7 124.9 123.85 124.9 126.9 125.1 127.85 125.2 127.95 125.2 128.7 125.3 Q131.1 125.4 132.5 123.8 L133.35 122.6 134.0 121.25 Q134.0 120.45 133.5 119.2 L131.75 120.6 Q130.1 121.75 128.8 122.2 M137.35 133.6 L136.75 131.55 135.0 127.15 134.2 125.25 Q132.15 127.0 128.0 127.0 L125.7 126.8 Q126.45 128.2 126.65 131.0 L126.95 134.8 127.0 136.05 127.45 138.9 128.2 143.65 131.15 143.75 134.7 143.65 Q133.85 142.0 132.95 138.9 L132.75 138.2 131.7 134.5 129.5 127.25 Q132.05 126.2 133.4 129.7 L134.45 134.25 134.5 134.55 Q134.55 136.2 135.35 138.65 L136.05 140.6 137.15 143.3 138.0 143.05 138.0 142.75 Q138.0 142.2 139.0 141.4 140.0 140.6 140.0 139.85 L138.8 137.2 138.6 136.75 137.35 133.6 M125.1 134.3 L124.95 133.4 124.5 129.85 Q124.5 127.7 125.3 126.75 L124.95 126.7 123.25 126.5 123.5 130.5 123.35 134.05 123.25 134.7 123.2 134.8 121.75 137.25 120.05 139.75 118.85 141.15 118.8 141.2 119.0 141.3 Q121.95 142.7 125.6 143.35 L125.5 142.6 125.55 138.6 125.5 138.0 125.1 134.3 M121.55 132.6 L121.55 132.3 121.6 129.95 Q120.95 131.15 119.3 133.0 L119.05 133.3 118.7 133.7 Q116.65 136.0 116.0 136.0 113.65 136.0 113.5 134.0 113.75 131.6 113.5 130.8 112.5 127.45 112.5 125.9 L112.55 125.0 112.5 125.0 110.0 124.7 109.55 127.05 Q109.1 129.4 109.0 130.55 L109.1 134.15 Q108.85 136.5 106.75 136.5 103.8 136.5 102.15 133.65 L102.0 133.4 102.1 135.55 102.15 135.9 Q102.5 137.8 104.05 139.25 109.75 144.75 111.4 144.75 113.1 144.75 116.3 141.05 L116.7 140.6 116.8 140.45 120.0 136.5 Q121.25 135.05 121.55 132.6 M115.8 105.5 L112.25 105.5 112.5 107.35 112.0 111.6 115.45 111.3 120.3 110.6 120.05 109.9 120.0 108.15 120.05 106.95 Q120.2 106.1 120.6 105.5 L115.8 105.5 M103.5 111.75 L106.65 111.75 110.05 111.7 110.0 111.0 Q110.0 109.45 110.55 107.15 L111.0 105.5 106.0 105.5 98.85 105.5 99.05 108.65 99.35 111.6 103.5 111.75 M121.45 127.45 L121.15 123.7 Q120.9 121.05 121.0 119.25 L120.85 114.7 Q120.85 113.8 121.0 113.1 L106.75 114.0 102.35 113.95 Q102.8 114.8 102.95 116.35 L103.0 119.5 102.25 129.6 103.95 131.6 Q105.55 133.8 106.0 134.0 L106.4 131.05 Q106.6 128.9 107.0 127.8 L107.5 124.3 107.9 123.35 107.5 122.75 107.0 120.4 Q107.0 113.65 111.75 115.05 113.6 115.6 115.0 117.3 116.5 119.05 116.5 121.0 L116.25 123.5 Q115.8 124.45 114.4 124.8 L114.5 126.3 115.25 129.6 116.0 133.05 116.05 133.3 116.25 133.55 116.45 133.2 118.0 130.4 Q119.2 128.55 121.0 127.5 L121.5 127.65 121.45 127.45 M112.4 117.9 L110.25 117.05 109.45 118.5 Q109.0 119.35 109.0 120.15 109.0 120.75 109.6 121.75 L109.7 121.9 110.2 122.5 Q110.5 122.8 110.75 122.8 113.9 122.8 114.5 122.0 L114.5 120.85 Q114.5 119.3 113.9 118.75 113.55 118.4 112.4 117.9 M91.35 110.75 L97.0 111.45 97.0 105.5 95.3 105.5 95.15 105.35 95.1 105.25 91.3 105.5 90.75 105.5 86.15 104.9 85.85 104.8 85.95 105.75 86.0 109.3 Q87.3 109.4 90.65 110.6 L91.35 110.75 M90.7 115.15 Q89.25 115.55 89.25 117.25 L89.3 118.5 Q89.4 118.8 90.25 118.8 L92.15 118.7 92.45 118.6 Q93.35 118.35 94.0 117.5 94.3 115.0 91.8 115.0 L91.35 115.05 90.7 115.15 M101.0 113.95 L95.45 113.65 Q96.0 114.8 96.0 116.85 96.0 118.55 94.55 119.75 93.05 121.0 90.75 121.0 88.45 121.0 87.5 119.05 L87.0 117.0 Q87.0 115.45 88.4 114.05 89.3 113.1 90.4 112.6 88.9 111.85 87.8 111.75 L85.4 111.4 84.25 114.1 Q83.6 115.7 83.3 117.25 L85.1 119.3 Q87.4 121.8 88.25 121.8 93.9 121.8 97.15 120.4 98.85 119.65 100.5 118.5 L100.9 118.65 101.0 114.05 101.25 113.95 101.0 113.95 M83.3 121.25 L83.0 120.9 83.05 121.35 Q83.1 123.4 83.5 124.0 84.8 126.0 89.55 126.25 L90.9 126.25 Q95.25 126.25 97.95 125.4 L100.0 124.5 100.55 124.7 100.8 120.55 Q99.85 121.3 97.55 122.25 L97.35 122.35 97.2 122.4 96.55 122.65 96.4 122.7 96.3 122.75 96.2 122.8 96.1 122.85 92.2 123.85 90.0 124.0 Q85.8 124.0 83.3 121.25 M100.05 133.55 L100.0 132.05 100.45 126.55 98.5 127.5 Q96.65 128.15 94.15 128.4 94.75 129.95 94.95 132.3 L95.0 135.3 95.0 136.6 95.0 140.5 94.85 144.3 99.85 143.15 103.45 141.95 102.0 140.0 101.1 138.4 Q100.25 136.4 100.05 133.55 M93.0 135.5 L93.05 131.85 Q93.2 129.4 93.75 128.4 L91.0 128.5 88.5 128.4 87.3 135.85 87.25 136.05 86.4 141.0 Q85.95 143.55 85.85 144.7 L88.9 144.75 93.5 144.45 Q93.15 143.35 93.05 141.3 L93.05 140.75 93.0 136.75 93.0 135.5" fill="#000000" fill-rule="evenodd" stroke="none"/>
    <path d="M65.9 64.75 Q65.0 66.4 65.0 67.75 65.0 68.65 65.15 68.75 L66.0 69.0 66.55 68.75 Q67.4 66.75 68.8 65.45 L70.0 64.55 Q70.0 63.3 71.5 61.75 73.0 60.2 73.0 59.6 73.0 58.8 72.7 58.7 L72.05 58.5 73.75 57.5 74.65 59.7 Q73.65 60.5 72.5 62.05 71.25 63.8 69.3 67.5 68.25 69.4 67.05 72.4 L65.0 77.55 60.35 87.95 Q57.55 94.4 56.55 98.25 55.0 104.0 53.3 117.1 51.5 131.05 51.5 139.25 L51.4 142.6 51.5 147.0 Q51.6 148.3 53.45 150.7 L53.7 151.0 Q48.35 149.95 46.65 148.65 45.85 148.0 44.85 146.05 44.25 144.8 43.15 143.85 L43.4 135.45 43.8 124.25 Q44.05 119.7 45.15 113.0 L47.0 101.75 Q47.7 96.65 50.2 90.45 52.1 85.75 55.55 79.25 56.8 76.85 59.2 73.6 L63.3 68.0 65.9 64.75" fill="#7006a8" fill-rule="evenodd" stroke="none"/>
    <path d="M119.25 55.95 L118.05 57.8 115.85 59.3 Q112.8 60.75 108.65 60.75 100.95 60.75 98.65 59.3 97.45 57.45 96.55 56.75 L94.4 54.45 100.9 54.25 Q110.45 54.25 119.3 55.8 L119.25 55.95 M113.5 97.35 L116.25 97.5 117.8 97.45 Q118.75 99.3 121.9 101.6 L124.25 103.05 102.75 103.4 105.75 102.2 Q110.4 100.1 113.5 97.5 L113.5 97.35 M139.35 97.15 Q137.7 94.85 136.6 94.0 142.95 93.95 151.05 85.8 156.45 80.35 157.95 77.0 L160.05 77.55 Q157.85 82.8 152.2 90.35 L142.75 102.3 139.35 97.15 M74.65 59.7 L75.8 61.75 76.6 62.95 76.65 63.0 76.8 63.2 76.85 63.3 Q75.55 64.95 72.8 69.35 L69.55 74.9 Q69.0 75.35 68.75 75.85 68.5 76.35 68.5 77.15 L68.6 78.9 68.7 79.1 68.65 79.25 68.35 80.45 Q67.4 84.15 67.05 89.2 L66.0 104.25 64.05 118.85 Q63.0 127.3 63.0 133.6 L63.0 138.35 64.8 144.3 67.1 151.1 67.9 152.75 66.15 152.2 66.1 152.3 Q65.75 152.75 65.25 152.75 L64.25 152.5 57.15 151.6 53.7 151.0 53.45 150.7 Q51.6 148.3 51.5 147.0 L51.4 142.6 51.5 139.25 Q51.5 131.05 53.3 117.1 55.0 104.0 56.55 98.25 57.55 94.4 60.35 87.95 L65.0 77.55 67.05 72.4 Q68.25 69.4 69.3 67.5 71.25 63.8 72.5 62.05 73.65 60.5 74.65 59.7 M84.1 140.85 L84.0 143.3 Q84.0 144.2 84.15 144.55 L80.55 143.75 Q79.0 143.1 79.0 142.1 79.0 141.25 79.45 139.9 L81.2 140.4 84.1 140.85 M138.8 137.2 L140.0 139.85 Q140.0 140.6 139.0 141.4 138.0 142.2 138.0 142.75 L138.0 143.05 137.15 143.3 136.05 140.6 135.35 138.65 138.0 138.0 138.95 137.55 138.8 137.2 M125.55 138.6 L125.5 142.6 125.6 143.35 Q121.95 142.7 119.0 141.3 L118.85 141.15 120.05 139.75 121.75 137.25 Q123.4 138.15 125.55 138.6 M127.45 138.9 L130.0 139.0 132.95 138.9 Q133.85 142.0 134.7 143.65 L131.15 143.75 128.2 143.65 127.45 138.9 M116.0 133.05 L115.25 129.6 114.5 126.3 114.4 124.8 Q115.8 124.45 116.25 123.5 L116.5 121.0 Q116.5 119.05 115.0 117.3 113.6 115.6 111.75 115.05 107.0 113.65 107.0 120.4 L107.5 122.75 107.9 123.35 107.5 124.3 107.0 127.8 Q106.6 128.9 106.4 131.05 L106.0 134.0 Q105.55 133.8 103.95 131.6 L102.25 129.6 103.0 119.5 102.95 116.35 Q102.8 114.8 102.35 113.95 L106.75 114.0 121.0 113.1 Q120.85 113.8 120.85 114.7 L121.0 119.25 Q120.9 121.05 121.15 123.7 L121.45 127.45 121.0 127.5 Q119.2 128.55 118.0 130.4 L116.45 133.2 116.0 133.05 M101.1 138.4 L102.0 140.0 103.45 141.95 99.85 143.15 94.85 144.3 95.0 140.5 98.1 139.75 Q100.05 139.15 101.1 138.4 M93.05 140.75 L93.05 141.3 Q93.15 143.35 93.5 144.45 L88.9 144.75 85.85 144.7 Q85.95 143.55 86.4 141.0 L88.25 141.0 93.05 140.75" fill="#52047b" fill-rule="evenodd" stroke="none"/>
    <path d="M82.45 71.95 L82.5 71.45 82.9 70.9 85.15 73.0 89.0 75.8 91.5 77.1 90.5 77.55 88.8 79.1 Q85.75 81.45 74.25 82.05 L74.05 82.45 74.0 83.05 71.5 78.25 71.15 77.0 71.2 76.9 71.45 76.45 72.25 76.5 72.35 76.5 72.55 76.6 72.5 76.5 Q74.7 76.35 78.75 74.05 L82.2 71.75 82.3 71.8 82.45 71.95 M75.0 84.5 L74.8 84.6 74.7 84.45 75.0 84.5 M85.5 94.45 L88.5 94.5 85.5 94.5 85.5 94.45 M89.4 92.25 L84.45 91.65 79.5 91.0 78.55 91.1 77.1 88.8 77.35 88.85 78.5 89.0 Q86.65 89.0 94.6 84.75 100.5 81.6 101.35 79.65 L102.75 79.85 Q101.75 80.85 101.35 82.1 101.0 83.25 101.0 86.4 101.0 87.85 101.65 89.4 L101.35 88.6 98.15 90.25 Q94.45 92.25 89.4 92.25 M83.1 98.2 L85.4 98.55 90.0 99.0 Q96.5 99.0 101.5 96.8 104.9 95.35 105.45 94.35 107.95 96.35 111.6 97.1 108.85 98.75 105.55 100.1 98.05 103.3 88.25 103.3 87.7 103.3 84.3 99.5 L83.1 98.2 M141.65 67.2 L142.1 67.35 141.05 71.6 139.4 78.4 136.7 75.8 Q135.8 75.1 135.1 74.85 L136.5 73.3 Q137.65 71.6 141.65 67.2 M131.65 77.1 L131.6 77.25 131.5 77.2 131.65 77.1 M137.5 82.5 L137.85 82.65 134.75 89.15 Q134.05 88.75 133.3 88.65 L130.85 88.75 Q132.0 86.3 132.0 83.8 132.0 81.4 131.5 79.8 L133.2 80.7 Q136.55 82.5 137.5 82.5 M130.3 90.25 L130.15 90.15 130.2 90.05 130.3 90.25 M126.75 94.1 L129.1 95.45 Q131.35 96.5 132.5 96.5 L132.65 96.5 132.0 98.25 Q131.15 100.95 130.0 101.75 L129.95 101.8 129.05 102.05 128.6 102.05 128.5 102.0 128.45 102.05 Q125.95 101.75 122.35 99.3 L119.75 97.25 Q123.8 96.5 126.75 94.1 M80.55 68.05 L80.5 68.05 80.6 70.2 Q80.0 70.4 79.45 70.75 L77.05 72.3 73.65 73.5 72.95 73.8 73.15 73.45 73.5 72.95 75.0 70.6 78.2 65.05 80.55 68.05 M130.0 116.8 Q130.5 115.6 130.5 114.15 L130.8 114.55 132.35 117.0 131.15 118.0 Q128.95 120.3 126.25 120.3 L125.1 119.65 Q124.1 119.0 123.25 119.0 L123.05 119.0 123.1 115.85 Q123.1 114.15 122.75 112.8 L123.85 112.55 Q123.5 113.4 123.5 114.6 L123.5 116.9 Q124.0 119.0 126.75 119.0 129.05 119.0 130.0 116.8 M101.0 114.05 L100.9 118.65 100.5 118.5 Q98.85 119.65 97.15 120.4 93.9 121.8 88.25 121.8 87.4 121.8 85.1 119.3 L83.3 117.25 Q83.6 115.7 84.25 114.1 L85.4 111.4 87.8 111.75 Q88.9 111.85 90.4 112.6 89.3 113.1 88.4 114.05 87.0 115.45 87.0 117.0 L87.5 119.05 Q88.45 121.0 90.75 121.0 93.05 121.0 94.55 119.75 96.0 118.55 96.0 116.85 96.0 114.8 95.45 113.65 L101.0 113.95 101.0 114.05" fill="#393b45" fill-rule="evenodd" stroke="none"/>
    <path d="M116.9 61.25 L119.15 64.55 Q121.85 68.9 122.4 70.85 L121.8 71.05 119.7 71.65 119.0 71.8 118.4 71.3 117.5 68.75 115.75 63.8 114.75 62.1 116.9 61.25 M103.5 62.9 L106.0 63.0 106.0 63.5 Q105.7 69.2 105.1 71.95 L102.4 71.7 101.55 71.6 101.5 71.4 101.5 71.35 101.6 71.05 101.75 70.5 102.85 67.15 103.5 63.65 103.5 62.9 M84.2 58.95 Q83.05 56.95 82.1 56.0 L84.5 56.0 91.05 54.8 91.85 54.7 91.85 54.75 92.85 56.15 Q87.7 58.65 84.2 58.95 M88.6 64.5 L90.0 63.8 Q91.8 63.0 96.15 61.55 L97.55 61.05 97.95 61.7 98.0 61.75 Q97.6 63.1 93.75 65.5 L91.05 67.05 88.75 64.8 88.6 64.5 M110.8 88.85 L110.6 88.85 110.55 88.5 110.8 88.85 M107.3 92.75 L108.5 92.25 111.05 91.25 Q120.1 91.25 122.4 92.2 L124.15 93.25 Q120.95 95.25 116.4 95.25 110.95 95.25 107.3 92.75 M122.2 56.75 L122.35 56.4 122.6 56.45 132.5 59.0 Q133.7 59.2 136.05 60.15 L134.2 62.35 Q131.65 61.7 126.5 59.1 123.8 57.7 122.2 56.75 M125.0 105.5 L125.5 105.5 128.1 104.4 128.7 104.5 128.5 107.05 Q128.4 108.5 124.7 109.65 L125.0 106.75 125.0 105.5 M122.0 106.0 L121.7 105.5 122.0 105.5 122.0 106.0 M127.35 116.65 L127.3 116.55 127.5 114.85 127.4 113.7 127.3 113.3 128.5 113.55 Q128.5 116.15 127.35 116.65 M127.0 113.25 L125.5 113.55 125.55 113.25 127.0 113.25 M123.15 124.45 L123.7 124.9 123.2 124.9 123.15 124.45 M128.7 125.3 L128.9 125.3 129.0 125.0 129.0 124.05 128.8 122.2 Q130.1 121.75 131.75 120.6 L133.5 119.2 Q134.0 120.45 134.0 121.25 L133.35 122.6 132.5 123.8 Q131.1 125.4 128.7 125.3 M119.05 133.3 L119.3 133.0 Q120.95 131.15 121.6 129.95 L121.55 132.3 121.55 132.6 120.5 132.55 Q119.6 132.8 119.05 133.3 M102.1 135.55 L102.0 133.4 102.15 133.65 Q103.8 136.5 106.75 136.5 108.85 136.5 109.1 134.15 L109.0 130.55 Q109.1 129.4 109.55 127.05 L110.0 124.7 112.5 125.0 112.55 125.0 112.5 125.9 Q112.5 127.45 113.5 130.8 113.75 131.6 113.5 134.0 113.65 136.0 116.0 136.0 116.65 136.0 118.7 133.7 L118.6 133.85 117.75 135.3 114.45 138.55 Q111.65 141.0 110.0 141.0 L106.4 138.25 Q103.3 135.9 102.1 135.55 M115.45 111.3 L115.8 110.8 116.0 108.25 Q116.0 106.0 115.8 105.5 L120.6 105.5 Q120.2 106.1 120.05 106.95 L120.0 108.15 120.05 109.9 120.3 110.6 115.45 111.3 M103.5 111.75 L105.0 110.5 Q106.0 109.05 106.0 106.5 L106.0 105.5 111.0 105.5 110.55 107.15 Q110.0 109.45 110.0 111.0 L110.05 111.7 106.65 111.75 103.5 111.75 M112.4 117.9 Q113.55 118.4 113.9 118.75 114.5 119.3 114.5 120.85 L114.5 122.0 Q113.9 122.8 110.75 122.8 110.5 122.8 110.2 122.5 111.1 122.4 111.75 121.55 112.5 120.6 112.5 119.1 L112.4 117.9 M91.3 105.5 L95.1 105.25 95.15 105.35 95.3 105.5 97.0 105.5 97.0 111.45 91.35 110.75 91.95 110.85 92.0 108.6 91.85 107.0 91.3 105.5 M90.7 115.15 L90.5 116.4 Q90.5 116.8 91.25 117.8 L92.15 118.7 90.25 118.8 Q89.4 118.8 89.3 118.5 L89.25 117.25 Q89.25 115.55 90.7 115.15 M83.05 121.35 L83.3 121.25 Q85.8 124.0 90.0 124.0 L92.2 123.85 91.0 124.0 Q89.5 125.15 89.5 125.65 L89.55 126.25 Q84.8 126.0 83.5 124.0 83.1 123.4 83.05 121.35" fill="#cc9d3c" fill-rule="evenodd" stroke="none"/>
    <path d="M88.75 64.8 L88.4 64.55 88.6 64.5 88.75 64.8 M81.9 59.35 L81.7 59.35 Q79.7 59.4 78.0 60.75 L76.45 58.1 75.2 56.0 80.65 56.0 Q80.5 56.25 80.5 56.6 80.5 57.2 81.9 59.35 M88.3 67.6 L88.2 67.65 87.0 69.05 85.6 70.6 83.5 68.3 82.6 67.25 Q83.95 66.6 86.35 65.5 L87.25 66.55 88.3 67.6 M105.0 77.65 L100.85 77.0 101.1 73.9 101.1 73.85 105.0 74.25 105.0 77.65 M116.7 78.2 L116.35 78.25 116.5 78.0 116.7 78.2 M114.15 78.25 L112.4 78.25 113.5 78.0 Q113.95 78.0 114.15 78.25 M116.4 88.65 L116.5 88.1 115.0 86.5 Q115.0 85.1 117.0 83.35 L118.8 81.55 Q121.5 82.1 121.5 85.1 121.45 85.85 121.0 86.8 120.15 88.75 118.4 88.75 L116.4 88.65 M124.7 76.95 L120.55 77.85 Q120.5 76.25 119.6 74.05 L122.85 73.2 123.5 74.9 Q124.05 76.2 124.7 76.95 M136.05 63.1 Q137.4 61.5 137.5 60.75 L139.65 61.7 142.55 63.1 140.45 65.35 Q139.6 64.7 138.15 63.95 137.0 63.35 136.05 63.1" fill="#00a6a6" fill-rule="evenodd" stroke="none"/>
    <path d="M126.95 134.8 L126.65 131.0 Q126.45 128.2 125.7 126.8 L128.0 127.0 Q132.15 127.0 134.2 125.25 L135.0 127.15 136.75 131.55 137.35 133.6 137.05 133.8 134.45 134.25 133.4 129.7 Q132.05 126.2 129.5 127.25 L131.7 134.5 127.0 134.8 126.95 134.8 M123.35 134.05 L123.5 130.5 123.25 126.5 124.95 126.7 125.3 126.75 Q124.5 127.7 124.5 129.85 L124.95 133.4 125.1 134.3 124.7 133.95 Q124.15 133.25 123.45 133.1 L123.35 134.05 M95.0 135.3 L94.95 132.3 Q94.75 129.95 94.15 128.4 96.65 128.15 98.5 127.5 L100.45 126.55 100.0 132.05 100.05 133.55 98.65 134.0 95.25 135.25 95.0 135.3" fill="#cccccc" fill-rule="evenodd" stroke="none"/>
    <path d="M81.9 59.35 L82.45 60.15 83.5 61.7 83.55 61.75 83.6 61.85 84.6 63.2 Q82.05 64.5 81.35 65.55 L78.5 61.55 78.0 60.75 Q79.7 59.4 81.7 59.35 L81.9 59.35 M85.6 70.6 L87.0 69.05 88.2 67.65 88.3 67.6 Q92.65 71.75 97.55 73.15 L99.05 73.5 99.0 74.3 99.05 76.25 99.0 76.65 Q93.85 75.65 90.05 74.25 88.45 73.65 86.8 71.95 L85.6 70.6 M105.0 77.65 L105.0 74.25 105.3 74.25 111.75 74.5 112.85 74.5 113.95 74.5 114.5 74.5 117.05 74.4 118.7 78.05 116.7 78.2 116.5 78.0 116.35 78.25 114.4 78.25 114.15 78.25 Q113.95 78.0 113.5 78.0 L112.4 78.25 105.0 77.65 M124.7 76.95 Q124.05 76.2 123.5 74.9 L122.85 73.2 125.55 71.95 Q127.95 70.65 130.0 68.8 L132.7 66.55 137.0 68.5 137.2 68.75 Q133.45 72.45 131.4 73.85 128.4 75.85 124.7 76.95 M136.05 63.1 Q137.0 63.35 138.15 63.95 139.6 64.7 140.45 65.35 L138.55 67.3 138.3 67.05 134.35 64.9 134.5 64.75 135.35 63.9 136.0 63.1 136.05 63.1 M84.1 140.85 L81.2 140.4 79.45 139.9 79.95 138.4 80.8 136.15 84.8 135.95 Q84.3 138.65 84.1 140.85 M126.95 134.8 L127.0 134.8 131.7 134.5 132.75 138.2 132.95 138.9 130.0 139.0 127.45 138.9 127.0 136.05 126.95 134.8 M134.45 134.25 L137.05 133.8 137.35 133.6 138.6 136.75 138.8 137.2 138.95 137.55 138.0 138.0 135.35 138.65 Q134.55 136.2 134.5 134.55 L134.45 134.25 M123.35 134.05 L123.45 133.1 Q124.15 133.25 124.7 133.95 L125.1 134.3 125.5 138.0 125.55 138.6 Q123.4 138.15 121.75 137.25 L123.2 134.8 123.25 134.7 123.35 134.05 M95.0 135.3 L95.25 135.25 98.65 134.0 100.05 133.55 Q100.25 136.4 101.1 138.4 100.05 139.15 98.1 139.75 L95.0 140.5 95.0 136.6 95.0 135.3 M87.3 135.85 L93.0 135.5 93.0 136.75 93.05 140.75 88.25 141.0 86.4 141.0 87.25 136.05 87.3 135.85" fill="#006262" fill-rule="evenodd" stroke="none"/>
    <path d="M116.9 61.25 L118.55 60.35 118.65 60.85 118.8 61.0 Q121.2 61.05 129.05 64.75 L130.85 65.6 130.3 66.05 Q126.45 69.3 122.4 70.85 121.85 68.9 119.15 64.55 L116.9 61.25 M119.7 71.65 L118.65 71.9 118.4 71.3 119.0 71.8 119.7 71.65 M101.5 71.4 L101.55 71.6 102.4 71.7 101.45 71.6 101.5 71.4 M105.1 71.95 Q105.7 69.2 106.0 63.5 L106.0 63.0 108.5 63.0 112.7 62.65 116.15 72.2 114.65 72.25 105.1 71.95 M84.2 58.95 Q87.7 58.65 92.85 56.15 L95.05 58.5 95.25 59.45 Q92.35 59.9 87.95 61.7 L86.3 62.4 84.7 59.85 84.2 58.95 M98.0 61.75 Q98.2 62.1 98.8 62.35 L101.35 62.8 100.0 68.15 99.3 71.25 98.25 71.05 Q96.2 70.6 93.55 69.25 L91.15 67.15 91.05 67.05 93.75 65.5 Q97.6 63.1 98.0 61.75 M121.4 80.3 L121.4 80.1 127.9 78.65 128.65 80.35 Q129.8 82.5 129.8 83.35 L128.95 86.7 Q128.1 89.25 127.55 90.0 L125.7 92.1 124.4 93.1 124.3 93.2 124.15 93.25 122.4 92.2 Q120.1 91.25 111.05 91.25 L108.5 92.25 107.3 92.75 106.05 91.75 105.25 91.0 Q103.0 88.75 103.0 86.75 L103.25 84.95 103.5 83.25 Q103.55 81.9 104.55 80.6 L105.0 80.1 112.1 80.5 112.1 80.95 Q110.0 82.85 110.0 85.6 110.0 87.7 110.55 88.5 L110.6 88.85 110.8 88.85 Q112.65 91.0 118.25 91.0 120.5 91.0 121.8 90.0 L122.8 88.75 Q123.5 87.5 123.5 85.1 123.5 81.95 121.4 80.3 M122.2 56.75 Q123.8 57.7 126.5 59.1 131.65 61.7 134.2 62.35 L132.6 64.0 Q127.35 61.15 124.8 59.95 122.35 58.8 120.85 58.55 L122.2 56.75" fill="#8e6c24" fill-rule="evenodd" stroke="none"/>
    <path d="M75.0 84.5 Q81.1 84.7 87.9 81.8 93.35 79.5 93.95 77.95 L96.2 78.6 98.15 79.05 97.45 79.55 94.05 82.3 Q91.85 83.7 89.5 84.55 84.8 86.25 79.1 86.6 L76.0 86.9 75.55 86.15 74.8 84.6 75.0 84.5 M81.95 95.55 L82.0 95.3 80.75 94.0 81.15 94.05 85.5 94.45 85.5 94.5 Q85.5 95.9 94.5 93.6 100.25 92.15 102.3 90.75 L103.55 92.5 103.95 93.35 99.95 94.9 Q95.25 96.75 89.9 96.75 L85.7 96.15 81.95 95.55 M131.65 77.1 L133.75 75.9 136.0 78.05 138.8 80.25 138.45 81.15 134.25 78.5 Q132.75 77.55 131.6 77.25 L131.65 77.1 M128.75 92.05 L130.15 90.15 130.3 90.25 132.8 91.05 133.7 91.35 132.65 93.6 132.5 93.5 132.05 94.05 130.15 93.2 128.55 92.7 128.75 92.05 M125.0 105.5 L125.0 106.75 124.7 109.65 122.0 110.3 122.0 106.0 122.0 105.5 125.0 105.5 M127.3 113.3 L127.4 113.7 127.5 114.85 127.3 116.55 127.35 116.65 126.75 116.75 125.85 116.6 125.5 116.25 125.5 113.55 127.0 113.25 127.3 113.3 M123.15 124.45 L123.0 121.3 124.35 122.0 Q125.3 122.5 127.25 122.5 L128.8 122.2 129.0 124.05 129.0 125.0 128.9 125.3 128.7 125.3 127.95 125.2 127.85 125.2 126.9 125.1 123.85 124.9 123.7 124.9 123.15 124.45 M119.05 133.3 Q119.6 132.8 120.5 132.55 L121.55 132.6 Q121.25 135.05 120.0 136.5 L116.8 140.45 116.7 140.6 116.3 141.05 Q113.1 144.75 111.4 144.75 109.75 144.75 104.05 139.25 102.5 137.8 102.15 135.9 L102.1 135.55 Q103.3 135.9 106.4 138.25 L110.0 141.0 Q111.65 141.0 114.45 138.55 L117.75 135.3 118.6 133.85 118.7 133.7 119.05 133.3 M115.8 105.5 Q116.0 106.0 116.0 108.25 L115.8 110.8 115.45 111.3 112.0 111.6 112.5 107.35 112.25 105.5 115.8 105.5 M106.0 105.5 L106.0 106.5 Q106.0 109.05 105.0 110.5 L103.5 111.75 99.35 111.6 99.05 108.65 98.85 105.5 106.0 105.5 M110.2 122.5 L109.7 121.9 109.6 121.75 Q109.0 120.75 109.0 120.15 109.0 119.35 109.45 118.5 L110.25 117.05 112.4 117.9 112.5 119.1 Q112.5 120.6 111.75 121.55 111.1 122.4 110.2 122.5 M91.3 105.5 L91.85 107.0 92.0 108.6 91.95 110.85 91.35 110.75 90.65 110.6 Q87.3 109.4 86.0 109.3 L85.95 105.75 86.15 104.9 90.75 105.5 91.3 105.5 M92.15 118.7 L91.25 117.8 Q90.5 116.8 90.5 116.4 L90.7 115.15 91.35 115.05 91.8 115.0 Q94.3 115.0 94.0 117.5 93.35 118.35 92.45 118.6 L92.15 118.7 M89.55 126.25 L89.5 125.65 Q89.5 125.15 91.0 124.0 L92.2 123.85 96.1 122.85 96.2 122.8 96.3 122.75 96.4 122.7 96.55 122.65 97.2 122.4 97.35 122.35 97.55 122.25 Q99.85 121.3 100.8 120.55 L100.55 124.7 100.0 124.5 97.95 125.4 Q95.25 126.25 90.9 126.25 L89.55 126.25" fill="#906e27" fill-rule="evenodd" stroke="none"/>
    <path d="M149.7 76.75 L148.3 75.1 Q145.75 72.1 143.6 71.45 L144.8 66.35 Q146.1 68.15 149.8 70.75 L153.8 73.45 152.8 72.8 152.35 73.3 149.7 76.75 M140.8 84.9 L139.65 85.8 Q138.95 86.4 138.35 86.95 L138.1 87.65 139.25 84.55 139.7 83.3 140.8 84.9 M148.15 78.75 L147.25 79.8 142.75 83.35 Q141.5 81.9 140.4 81.4 L142.45 75.25 143.05 73.35 146.8 77.35 148.15 78.75 M80.8 136.15 L81.5 134.05 Q82.0 131.9 82.0 130.0 82.0 129.7 82.75 127.9 L83.15 126.85 Q84.55 127.75 86.75 128.15 85.85 130.45 85.05 134.5 L84.8 135.95 80.8 136.15 M87.3 135.85 L88.5 128.4 91.0 128.5 93.75 128.4 Q93.2 129.4 93.05 131.85 L93.0 135.5 87.3 135.85" fill="#d8d8d8" fill-rule="evenodd" stroke="none"/>
    <path d="M118.8 81.55 L117.0 83.35 Q115.0 85.1 115.0 86.5 L116.5 88.1 116.4 88.65 Q114.75 88.4 113.55 87.75 112.0 86.9 112.0 85.8 112.0 81.75 116.75 81.45 L118.8 81.55 M149.7 76.75 L152.35 73.3 152.8 72.8 153.8 73.45 156.25 74.75 156.35 74.8 156.5 74.85 153.65 79.45 152.9 80.4 149.7 76.75 M138.1 87.65 L138.35 86.95 Q138.95 86.4 139.65 85.8 L140.8 84.9 143.35 88.4 Q140.75 90.05 138.25 91.2 L136.35 92.1 138.1 87.65 M142.75 83.35 L147.25 79.8 148.15 78.75 Q150.45 81.0 151.7 81.7 L148.5 84.55 145.25 87.05 Q144.8 85.85 143.35 84.05 L142.75 83.35" fill="#046464" fill-rule="evenodd" stroke="none"/>
    <path d="M73.05 86.0 L73.5 87.05 Q77.05 94.55 79.55 96.1 L79.5 96.75 Q79.5 97.25 83.0 101.05 L83.75 102.45 83.5 102.55 84.0 109.0 83.65 110.55 83.7 110.65 Q81.8 111.5 81.25 114.0 81.0 115.2 81.0 119.85 L80.7 121.3 Q80.5 122.9 81.0 124.25 L81.6 125.35 Q80.8 126.35 80.4 128.4 L79.5 133.05 78.8 135.1 Q77.35 134.95 74.35 135.85 L70.25 137.25 Q69.85 137.3 67.25 138.65 L65.8 139.45 Q65.0 136.3 65.0 133.5 65.0 128.65 66.25 118.75 L68.0 105.3 68.55 98.1 69.0 91.05 Q69.15 89.1 70.15 83.75 L70.6 81.15 72.0 85.9 73.05 86.0" fill="#440367" fill-rule="evenodd" stroke="none"/>
    <path d="M65.9 64.75 Q66.35 63.8 67.1 62.75 69.35 59.7 72.0 58.5 L72.05 58.5 72.7 58.7 Q73.0 58.8 73.0 59.6 73.0 60.2 71.5 61.75 70.0 63.3 70.0 64.55 L68.8 65.45 Q67.4 66.75 66.55 68.75 L66.0 69.0 65.15 68.75 Q65.0 68.65 65.0 67.75 65.0 66.4 65.9 64.75" fill="#720aa9" fill-rule="evenodd" stroke="none"/>
    <path d="M175.2 91.45 Q175.35 92.8 174.8 93.75 173.25 96.75 165.9 96.75 L155.55 95.75 152.5 95.0 151.6 94.65 Q157.9 86.55 161.4 80.05 171.15 82.75 173.25 84.35 175.0 85.65 175.0 89.9 L175.2 91.45" fill="#4e3729" fill-rule="evenodd" stroke="none"/>
  </g>
</svg>
