<?xml version="1.0" encoding="UTF-8" standalone="no"?>
<svg xmlns:ffdec="https://www.free-decompiler.com/flash" xmlns:xlink="http://www.w3.org/1999/xlink" ffdec:objectType="shape" height="75.2px" width="43.0px" xmlns="http://www.w3.org/2000/svg">
  <g transform="matrix(1.0, 0.0, 0.0, 1.0, 19.5, 27.2)">
    <path d="M11.35 -23.85 L3.0 -23.0 -3.1 -21.4 Q-7.0 -20.3 -8.5 -19.0 -6.45 -18.2 -4.65 -16.85 L-1.45 -14.65 Q3.4 -12.05 17.55 -10.75 L21.0 -10.75 Q20.05 -15.5 17.0 -20.0 14.65 -23.4 11.35 -23.85 M4.0 1.7 L4.05 -0.3 4.1 -1.7 Q4.35 -3.55 5.0 -4.7 -0.6 -5.85 -5.1 -8.15 L-6.45 -3.4 -6.75 -2.45 -7.6 0.55 -7.75 1.1 -8.5 4.9 Q-4.05 6.75 -0.05 6.75 L4.35 6.3 4.05 5.25 4.0 3.0 4.0 2.9 4.0 1.7 M17.75 -3.5 L7.0 -4.3 7.0 -4.25 6.6 -0.35 6.5 0.2 6.35 1.45 6.15 2.95 5.85 6.15 10.5 5.5 Q15.3 4.9 16.0 4.5 L17.5 3.4 17.5 3.05 17.5 1.55 17.6 0.35 17.6 0.25 17.65 -0.45 17.75 -1.45 17.9 -3.0 17.95 -3.45 17.95 -3.5 17.75 -3.5 M19.8 -0.9 Q19.5 2.35 19.5 4.05 19.5 6.0 18.0 6.6 L17.5 6.75 16.75 11.15 Q16.0 14.4 16.0 16.55 L16.2 19.05 16.25 21.5 Q15.9 21.95 10.55 22.75 L6.5 23.25 6.5 23.5 8.0 26.0 9.8 30.05 9.85 30.15 10.2 30.2 Q10.5 30.3 10.5 31.05 L13.2 34.0 Q15.5 36.4 15.5 37.9 15.5 40.5 11.75 44.05 7.6 48.0 3.25 48.0 -0.8 48.0 -10.0 35.05 -18.5 23.05 -18.5 21.15 L-18.45 20.65 Q-19.5 19.9 -19.5 19.15 -19.5 17.3 -18.25 9.8 L-17.6 7.55 -17.0 5.3 -16.9 3.4 -16.6 2.2 Q-17.65 1.1 -17.9 0.3 L-17.9 -1.3 Q-17.5 -3.65 -15.55 -8.3 L-12.95 -13.8 Q-14.5 -15.6 -14.5 -17.25 -14.5 -19.4 -7.55 -22.2 -1.1 -24.85 3.5 -25.25 11.4 -30.55 18.05 -21.5 20.45 -18.2 22.1 -13.75 23.5 -9.85 23.5 -7.55 L23.35 -4.75 Q22.7 -3.8 19.95 -3.55 L20.0 -3.15 20.0 -3.0 19.8 -0.9 M21.5 -8.35 Q1.9 -9.5 -3.9 -13.25 L-7.1 -15.7 Q-8.85 -16.8 -12.5 -16.85 L-10.75 -14.6 Q-8.9 -12.5 -6.25 -10.85 2.1 -5.75 17.65 -5.75 L21.5 -6.25 21.5 -8.35 M15.2 7.05 L8.35 8.2 0.25 9.0 Q-7.65 9.0 -13.5 4.8 L-15.0 3.65 -15.0 4.75 -16.0 11.25 -17.5 18.8 Q-15.9 19.65 -13.4 20.35 -8.6 21.75 -1.55 21.75 L8.4 21.45 14.3 19.75 Q14.0 18.55 14.0 15.75 14.0 11.4 14.15 10.35 14.4 8.35 15.2 7.05 M2.35 24.0 L3.15 23.6 2.3 23.7 -1.75 24.0 Q-6.15 24.0 -12.1 22.75 L-16.15 21.7 -11.0 29.95 -11.0 29.9 Q-11.0 29.4 -9.3 29.1 -6.65 28.65 -4.5 27.55 -3.05 27.1 -0.85 25.8 L2.35 24.0 M4.85 25.3 Q1.9 27.35 -6.5 31.0 L-10.3 31.0 -7.9 34.7 -4.4 39.4 2.55 34.6 8.0 31.1 Q6.0 28.2 4.85 25.3 M9.35 32.95 Q6.45 35.65 -3.5 40.5 0.9 45.75 3.3 45.75 6.8 45.75 10.3 42.25 13.3 39.25 13.3 37.85 L9.55 33.25 9.35 32.95 M-9.7 -0.9 L-8.9 -3.6 -8.6 -4.4 Q-7.5 -7.75 -6.55 -8.95 L-7.1 -9.25 Q-9.8 -10.85 -11.5 -12.35 -11.7 -10.7 -13.1 -7.4 L-13.6 -6.3 -14.5 -4.35 -14.9 -3.35 Q-15.75 -1.25 -15.75 -0.35 -15.75 1.4 -10.5 4.0 L-10.25 4.1 -10.3 3.95 -10.5 2.9 -10.0 0.1 -9.7 -0.9" fill="#000000" fill-rule="evenodd" stroke="none"/>
    <path d="M15.2 7.05 Q14.4 8.35 14.15 10.35 14.0 11.4 14.0 15.75 14.0 18.55 14.3 19.75 L8.4 21.45 -1.55 21.75 Q-8.6 21.75 -13.4 20.35 -15.9 19.65 -17.5 18.8 L-16.0 11.25 -15.0 4.75 -15.0 3.65 -13.5 4.8 Q-7.65 9.0 0.25 9.0 L8.35 8.2 15.2 7.05" fill="#530176" fill-rule="evenodd" stroke="none"/>
    <path d="M2.3 23.7 L2.35 24.0 -0.85 25.8 Q-3.05 27.1 -4.5 27.55 -6.65 28.65 -9.3 29.1 -11.0 29.4 -11.0 29.9 L-11.0 29.95 -16.15 21.7 -12.1 22.75 Q-6.15 24.0 -1.75 24.0 L2.3 23.7 M9.35 32.95 L9.55 33.25 13.3 37.85 Q13.3 39.25 10.3 42.25 6.8 45.75 3.3 45.75 0.9 45.75 -3.5 40.5 6.45 35.65 9.35 32.95" fill="#4e3729" fill-rule="evenodd" stroke="none"/>
    <path d="M21.5 -8.35 L21.5 -6.25 17.65 -5.75 Q2.1 -5.75 -6.25 -10.85 -8.9 -12.5 -10.75 -14.6 L-12.5 -16.85 Q-8.85 -16.8 -7.1 -15.7 L-3.9 -13.25 Q1.9 -9.5 21.5 -8.35 M4.85 25.3 Q6.0 28.2 8.0 31.1 L2.55 34.6 -4.4 39.4 -7.9 34.7 -10.3 31.0 -6.5 31.0 Q1.9 27.35 4.85 25.3" fill="#cc9d3c" fill-rule="evenodd" stroke="none"/>
    <path d="M11.35 -23.85 Q14.65 -23.4 17.0 -20.0 20.05 -15.5 21.0 -10.75 L17.55 -10.75 Q3.4 -12.05 -1.45 -14.65 L-4.65 -16.85 Q-6.45 -18.2 -8.5 -19.0 -7.0 -20.3 -3.1 -21.4 L3.0 -23.0 11.35 -23.85" fill="#393b45" fill-rule="evenodd" stroke="none"/>
    <path d="M-7.6 0.55 L-6.75 -2.45 -6.45 -3.4 -5.1 -8.15 Q-0.6 -5.85 5.0 -4.7 4.35 -3.55 4.1 -1.7 L4.05 -0.3 4.0 1.7 -2.85 1.25 -7.15 0.65 -7.6 0.55 M6.35 1.45 L6.5 0.2 6.6 -0.35 7.0 -4.25 7.0 -4.3 17.75 -3.5 17.95 -3.45 17.9 -3.0 17.75 -1.45 17.65 -0.45 13.75 0.25 Q8.6 0.8 6.35 1.45 M-9.7 -0.9 L-12.85 -3.4 Q-13.7 -4.1 -14.5 -4.35 L-13.6 -6.3 -13.1 -7.4 Q-11.7 -10.7 -11.5 -12.35 -9.8 -10.85 -7.1 -9.25 L-6.55 -8.95 Q-7.5 -7.75 -8.6 -4.4 L-8.9 -3.6 -9.7 -0.9" fill="#d8d8d8" fill-rule="evenodd" stroke="none"/>
    <path d="M-7.6 0.55 L-7.15 0.65 -2.85 1.25 4.0 1.7 4.0 2.9 4.0 3.0 4.05 5.25 4.35 6.3 -0.05 6.75 Q-4.05 6.75 -8.5 4.9 L-7.75 1.1 -7.6 0.55 M6.35 1.45 Q8.6 0.8 13.75 0.25 L17.65 -0.45 17.6 0.25 17.6 0.35 17.5 1.55 17.5 3.05 17.5 3.4 16.0 4.5 Q15.3 4.9 10.5 5.5 L5.85 6.15 6.15 2.95 6.35 1.45 M20.0 -3.0 L20.05 -3.0 20.3 -2.85 20.5 -2.0 Q20.5 -1.45 19.8 -0.9 L20.0 -3.0 M-14.5 -4.35 Q-13.7 -4.1 -12.85 -3.4 L-9.7 -0.9 -10.0 0.1 -10.5 2.9 -10.3 3.95 -10.5 4.0 Q-15.75 1.4 -15.75 -0.35 -15.75 -1.25 -14.9 -3.35 L-14.5 -4.35" fill="#006262" fill-rule="evenodd" stroke="none"/>
  </g>
</svg>
