<?xml version="1.0" encoding="UTF-8" standalone="no"?>
<svg xmlns:ffdec="https://www.free-decompiler.com/flash" xmlns:xlink="http://www.w3.org/1999/xlink" ffdec:objectType="shape" height="46.4px" width="93.85px" xmlns="http://www.w3.org/2000/svg">
  <g transform="matrix(1.0, 0.0, 0.0, 1.0, 76.2, 27.05)">
    <path d="M12.8 -21.75 L13.75 -19.0 Q15.4 -10.1 15.4 -8.15 15.6 -6.15 15.1 -4.3 14.1 -0.65 10.55 -0.65 8.15 -0.65 0.9 -7.95 -7.0 -15.95 -7.0 -21.1 L-5.9 -22.05 Q-4.45 -22.95 -2.2 -23.3 L6.0 -24.2 11.0 -24.4 Q11.9 -23.7 12.8 -21.75" fill="#393b45" fill-rule="evenodd" stroke="none"/>
    <path d="M12.8 -21.75 Q11.9 -23.7 11.0 -24.4 L6.0 -24.2 -2.2 -23.3 Q-4.45 -22.95 -5.9 -22.05 L-7.0 -21.1 Q-7.0 -15.95 0.9 -7.95 8.15 -0.65 10.55 -0.65 14.1 -0.65 15.1 -4.3 15.6 -6.15 15.4 -8.15 15.4 -10.1 13.75 -19.0 L12.8 -21.75 M17.05 -2.7 Q16.35 -0.8 15.05 0.3 14.75 1.55 13.7 2.7 11.2 5.35 5.4 5.35 4.4 5.35 2.5 3.8 -3.7 13.6 -6.05 13.6 -6.75 13.6 -9.25 12.15 -9.8 12.85 -11.25 13.35 L-17.35 15.15 -21.6 17.4 Q-25.15 19.35 -25.6 19.35 -29.9 19.35 -36.2 8.85 L-36.95 9.1 -46.95 9.9 -46.75 9.6 Q-67.15 8.45 -72.3 5.75 -74.85 4.4 -75.65 2.05 -76.2 0.4 -76.2 -3.5 L-75.45 -6.3 -74.55 -8.9 Q-72.1 -11.35 -68.3 -11.15 L-61.7 -10.75 -53.3 -11.65 -44.65 -12.75 -44.65 -12.85 Q-44.65 -14.0 -40.2 -14.85 L-29.85 -16.65 -29.9 -17.3 Q-18.05 -22.2 -14.75 -20.8 L-12.9 -22.6 Q-10.95 -23.8 -7.7 -23.9 L-3.3 -25.35 Q3.45 -27.05 11.1 -27.05 14.85 -27.05 16.6 -17.65 17.5 -12.9 17.65 -7.95 17.65 -4.4 17.05 -2.7 M-12.75 -18.65 Q-8.75 -11.7 -5.45 -7.05 -1.2 -1.1 2.3 1.4 L3.1 1.4 Q3.35 1.45 3.4 2.05 5.2 3.05 6.8 3.05 10.05 3.05 11.55 1.6 L10.45 1.65 Q8.35 1.65 3.55 -2.3 0.05 -5.2 -2.2 -7.7 -5.5 -11.3 -6.85 -13.45 -9.0 -17.0 -9.05 -20.45 L-9.1 -21.1 Q-10.2 -20.85 -11.05 -20.1 -12.45 -18.85 -12.7 -18.7 L-12.85 -18.8 -12.75 -18.65 M-74.0 -3.2 Q-74.0 5.25 -65.0 5.25 L-64.1 5.25 Q-65.0 4.05 -65.65 1.85 -66.55 -1.25 -66.55 -3.6 -66.55 -7.25 -65.75 -8.6 -71.7 -8.4 -73.45 -6.0 -74.45 -4.65 -74.0 -3.2 M-65.1 -8.65 Q-63.8 -6.75 -63.9 -1.9 -64.05 2.95 -60.7 5.45 L-57.3 6.05 -54.7 6.4 Q-55.3 4.5 -55.75 0.85 L-56.55 -7.15 Q-56.55 -7.75 -55.75 -8.8 L-56.75 -8.7 -62.0 -8.5 -64.35 -8.65 -65.1 -8.65 M-53.6 -7.55 L-54.3 -6.3 Q-54.3 -3.15 -53.3 1.25 L-52.3 6.05 -52.3 6.55 -37.4 6.8 -39.05 3.75 Q-39.5 2.4 -41.15 -0.6 -42.7 -3.35 -43.0 -4.7 L-44.25 -9.25 -44.5 -10.45 -44.65 -10.55 -48.4 -9.9 -53.85 -9.0 Q-53.4 -8.2 -53.6 -7.55 M-17.0 -10.5 L-23.15 -10.4 Q-25.3 -10.4 -28.05 -9.05 -29.7 -10.75 -29.7 -13.2 L-29.75 -14.7 Q-31.2 -13.9 -34.8 -13.15 L-41.8 -11.85 -41.7 -10.75 -42.15 -10.4 Q-41.15 -4.65 -36.2 4.95 L-35.1 7.0 Q-34.6 7.25 -34.4 7.8 L-34.55 7.95 Q-29.55 16.7 -26.05 16.7 -25.4 16.7 -22.3 14.85 L-18.8 12.75 -14.9 11.35 -11.95 10.5 -19.9 5.2 -23.55 0.65 Q-25.4 -2.3 -25.4 -4.7 -25.4 -5.55 -21.55 -7.8 -17.5 -10.0 -17.1 -10.3 L-16.75 -10.55 -17.0 -10.5 M-24.1 -16.7 L-27.6 -15.85 -27.2 -11.85 -24.05 -12.1 -19.35 -12.6 -12.8 -13.3 -12.7 -13.3 -12.8 -13.45 Q-14.75 -16.6 -14.9 -19.15 L-15.0 -19.2 Q-15.15 -19.25 -15.3 -19.45 -17.15 -18.6 -19.9 -17.8 L-24.1 -16.7 M-21.0 -4.6 L-22.45 -3.75 -23.1 -3.4 Q-21.45 -0.15 -16.55 4.3 L-16.3 4.5 -16.35 4.05 -15.15 2.8 Q-13.95 1.7 -13.95 0.95 L-13.95 0.8 -13.85 0.55 Q-13.4 -0.55 -11.15 -2.6 -8.65 -4.85 -6.65 -5.4 L-7.7 -6.7 -10.95 -10.9 Q-12.4 -9.65 -15.6 -7.75 -17.85 -6.4 -21.0 -4.6 M-3.1 8.55 L-1.45 6.4 1.25 2.75 -1.8 -0.15 -5.65 -4.2 -7.7 -2.0 -10.35 0.45 -12.3 3.3 -12.35 3.4 Q-13.6 5.3 -14.9 5.75 -8.95 10.9 -6.35 10.9 -5.15 10.9 -3.1 8.55" fill="#000000" fill-rule="evenodd" stroke="none"/>
    <path d="M-24.05 -12.1 L-23.1 -12.2 -22.95 -12.85 -23.8 -15.75 -24.1 -16.7 -19.9 -17.8 Q-17.15 -18.6 -15.3 -19.45 -15.15 -19.25 -15.0 -19.2 L-14.9 -19.15 Q-14.75 -16.6 -12.8 -13.45 L-12.8 -13.3 -19.35 -12.6 -24.05 -12.1 M-21.0 -4.6 Q-17.85 -6.4 -15.6 -7.75 -12.4 -9.65 -10.95 -10.9 L-7.7 -6.7 -6.65 -5.4 Q-8.65 -4.85 -11.15 -2.6 -13.4 -0.55 -13.85 0.55 L-13.4 -0.2 Q-15.25 -2.15 -19.6 -5.35 L-21.0 -4.6 M-12.3 3.3 L-10.35 0.45 -7.7 -2.0 -5.65 -4.2 -1.8 -0.15 1.25 2.75 -1.45 6.4 -3.1 8.55 Q-3.85 7.45 -8.55 4.45 -10.35 3.3 -11.85 2.65 L-12.3 3.3" fill="#d8d8d8" fill-rule="evenodd" stroke="none"/>
    <path d="M-24.1 -16.7 L-23.8 -15.75 -22.95 -12.85 -23.1 -12.2 -24.05 -12.1 -27.2 -11.85 -27.6 -15.85 -24.1 -16.7 M-16.55 4.3 Q-21.45 -0.15 -23.1 -3.4 L-22.45 -3.75 -21.0 -4.6 -19.6 -5.35 Q-15.25 -2.15 -13.4 -0.2 L-13.85 0.55 -13.95 0.8 -13.95 0.95 Q-13.95 1.7 -15.15 2.8 L-16.35 4.05 -16.55 4.3 M-12.3 3.3 L-11.85 2.65 Q-10.35 3.3 -8.55 4.45 -3.85 7.45 -3.1 8.55 -5.15 10.9 -6.35 10.9 -8.95 10.9 -14.9 5.75 -13.6 5.3 -12.35 3.4 L-12.3 3.3" fill="#006262" fill-rule="evenodd" stroke="none"/>
    <path d="M-12.7 -18.7 Q-12.45 -18.85 -11.05 -20.1 -10.2 -20.85 -9.1 -21.1 L-9.05 -20.45 Q-9.0 -17.0 -6.85 -13.45 -5.5 -11.3 -2.2 -7.7 0.05 -5.2 3.55 -2.3 8.35 1.65 10.45 1.65 L11.55 1.6 Q10.05 3.05 6.8 3.05 5.2 3.05 3.4 2.05 3.35 1.45 3.1 1.4 L2.3 1.4 Q-1.2 -1.1 -5.45 -7.05 -8.75 -11.7 -12.75 -18.65 L-12.7 -18.7 M-65.1 -8.65 L-64.35 -8.65 -62.0 -8.5 -56.75 -8.7 -55.75 -8.8 Q-56.55 -7.75 -56.55 -7.15 L-55.75 0.85 Q-55.3 4.5 -54.7 6.4 L-57.3 6.05 -60.7 5.45 Q-64.05 2.95 -63.9 -1.9 -63.8 -6.75 -65.1 -8.65" fill="#cc9d3c" fill-rule="evenodd" stroke="none"/>
    <path d="M-74.0 -3.2 Q-74.45 -4.65 -73.45 -6.0 -71.7 -8.4 -65.75 -8.6 -66.55 -7.25 -66.55 -3.6 -66.55 -1.25 -65.65 1.85 -65.0 4.05 -64.1 5.25 L-65.0 5.25 Q-74.0 5.25 -74.0 -3.2 M-53.6 -7.55 Q-53.4 -8.2 -53.85 -9.0 L-48.4 -9.9 -44.65 -10.55 -44.5 -10.45 -44.25 -9.25 -43.0 -4.7 Q-42.7 -3.35 -41.15 -0.6 -39.5 2.4 -39.05 3.75 L-37.4 6.8 -52.3 6.55 -52.3 6.05 -53.3 1.25 Q-54.3 -3.15 -54.3 -6.3 L-53.6 -7.55" fill="#4e3729" fill-rule="evenodd" stroke="none"/>
    <path d="M-17.1 -10.3 Q-17.5 -10.0 -21.55 -7.8 -25.4 -5.55 -25.4 -4.7 -25.4 -2.3 -23.55 0.65 L-19.9 5.2 -11.95 10.5 -14.9 11.35 -18.8 12.75 -22.3 14.85 Q-25.4 16.7 -26.05 16.7 -29.55 16.7 -34.55 7.95 L-34.4 7.8 Q-34.6 7.25 -35.1 7.0 L-36.2 4.95 Q-41.15 -4.65 -42.15 -10.4 L-41.7 -10.75 -41.8 -11.85 -34.8 -13.15 Q-31.2 -13.9 -29.75 -14.7 L-29.7 -13.2 Q-29.7 -10.75 -28.05 -9.05 -25.3 -10.4 -23.15 -10.4 L-17.0 -10.5 -17.1 -10.3" fill="#7006a8" fill-rule="evenodd" stroke="none"/>
  </g>
</svg>
