<?xml version="1.0" encoding="UTF-8" standalone="no"?>
<svg xmlns:ffdec="https://www.free-decompiler.com/flash" xmlns:xlink="http://www.w3.org/1999/xlink" ffdec:objectType="shape" height="56.8px" width="94.8px" xmlns="http://www.w3.org/2000/svg">
  <g transform="matrix(1.0, 0.0, 0.0, 1.0, 194.95, 189.3)">
    <path d="M-165.0 -188.95 L-164.95 -188.45 Q-154.15 -186.4 -150.45 -184.1 -148.05 -182.6 -143.45 -178.3 -137.35 -173.65 -136.35 -171.4 L-136.1 -169.5 -136.0 -170.5 Q-133.9 -171.5 -130.65 -169.15 L-125.7 -164.25 -118.0 -157.0 -116.15 -155.35 -102.55 -142.2 Q-101.45 -137.05 -100.15 -132.5 L-103.15 -133.15 Q-112.2 -134.95 -118.95 -135.4 -126.1 -135.9 -126.0 -134.5 L-132.5 -134.6 -134.3 -135.0 -140.1 -136.0 Q-141.35 -136.0 -143.3 -135.0 -145.25 -134.0 -146.5 -134.0 -148.1 -134.0 -149.4 -134.85 L-151.0 -136.25 Q-150.6 -137.45 -147.35 -140.65 -155.4 -134.45 -168.45 -134.45 -176.5 -134.45 -179.4 -136.95 -180.5 -137.95 -182.25 -138.3 -184.2 -138.65 -184.95 -139.15 -190.0 -142.55 -191.4 -145.45 -193.55 -149.8 -194.3 -152.55 -194.95 -154.95 -194.95 -158.0 -194.95 -163.75 -192.55 -168.25 -190.2 -172.75 -184.4 -177.95 -176.65 -184.9 -167.8 -189.3 L-165.0 -188.95 M-171.25 -173.6 Q-177.85 -170.95 -180.05 -167.75 -181.95 -165.1 -181.95 -159.45 -181.95 -155.85 -181.65 -154.45 -181.05 -151.65 -178.95 -149.3 -176.9 -147.1 -173.15 -144.9 -168.1 -141.95 -163.95 -141.95 -156.2 -141.95 -151.7 -149.85 -148.45 -155.45 -148.45 -159.75 L-148.55 -163.95 Q-148.95 -166.35 -150.95 -168.45 -152.8 -170.2 -156.95 -171.95 L-157.65 -172.1 -159.2 -173.0 -159.95 -174.4 -170.95 -174.4 -171.25 -173.6 M-136.65 -158.6 Q-137.8 -152.95 -140.95 -147.85 -142.3 -145.7 -143.9 -143.85 -137.85 -149.35 -137.25 -152.5 -136.85 -154.55 -136.65 -158.6" fill="#00a6a6" fill-opacity="0.49803922" fill-rule="evenodd" stroke="none"/>
    <path d="M-164.95 -188.45 L-165.0 -188.95 -163.7 -188.95 -163.05 -188.95 -164.2 -188.7 -164.95 -188.45" fill="#ff6633" fill-opacity="0.49803922" fill-rule="evenodd" stroke="none"/>
    <path d="M-171.25 -173.6 L-170.95 -174.4 -159.95 -174.4 -159.2 -173.0 -157.65 -172.1 -156.95 -171.95 Q-152.8 -170.2 -150.95 -168.45 -148.95 -166.35 -148.55 -163.95 L-148.45 -159.75 Q-148.45 -155.45 -151.7 -149.85 -156.2 -141.95 -163.95 -141.95 -168.1 -141.95 -173.15 -144.9 -176.9 -147.1 -178.95 -149.3 -181.05 -151.65 -181.65 -154.45 -181.95 -155.85 -181.95 -159.45 -181.95 -165.1 -180.05 -167.75 -177.85 -170.95 -171.25 -173.6" fill="#00f9f9" fill-opacity="0.49803922" fill-rule="evenodd" stroke="none"/>
  </g>
</svg>
