<?xml version="1.0" encoding="UTF-8" standalone="no"?>
<svg xmlns:ffdec="https://www.free-decompiler.com/flash" xmlns:xlink="http://www.w3.org/1999/xlink" ffdec:objectType="shape" height="74.8px" width="39.6px" xmlns="http://www.w3.org/2000/svg">
  <g transform="matrix(1.0, 0.0, 0.0, 1.0, 28.0, 40.8)">
    <path d="M6.05 -31.5 L4.95 -33.1 Q4.05 -34.45 2.95 -35.35 -0.65 -38.25 -8.0 -38.25 -15.2 -38.25 -19.65 -32.35 -23.3 -27.5 -23.5 -21.6 -23.55 -18.75 -24.25 -12.4 L-25.0 -3.25 -25.9 31.5 -14.0 30.75 Q-14.0 30.55 -5.95 30.6 1.95 30.65 8.6 30.95 L8.5 30.15 Q9.5 11.5 9.5 2.05 L9.45 -4.8 Q9.4 -9.05 9.5 -11.75 L9.35 -18.65 Q9.35 -21.5 9.85 -23.55 9.2 -24.45 8.25 -26.8 6.6 -31.0 6.05 -31.5 M0.3 -29.25 Q-0.9 -30.65 -7.75 -33.35 -12.35 -33.35 -15.85 -26.8 -17.85 -23.05 -18.75 -19.1 L-14.0 -19.75 Q-14.0 -20.0 3.7 -20.0 L3.5 -23.1 Q3.5 -24.15 2.45 -26.1 L0.3 -29.25 M8.9 -31.5 L10.25 -28.85 Q10.8 -26.15 11.25 -24.8 L11.45 -24.25 11.3 -23.35 11.35 -23.15 11.3 -23.1 11.6 -19.95 Q11.4 -16.2 11.5 -14.35 L11.5 -3.5 11.2 9.85 10.5 31.3 10.45 31.35 10.5 32.0 10.35 32.7 Q10.15 32.7 10.05 33.0 L-4.9 32.75 -20.0 33.5 -26.0 33.5 Q-26.25 33.5 -27.0 34.0 -27.75 32.95 -27.95 31.25 L-28.0 28.4 Q-27.15 13.5 -27.0 6.0 L-26.9 -4.8 Q-26.8 -11.45 -26.0 -16.1 L-24.45 -27.15 Q-22.8 -33.7 -17.5 -37.5 -8.5 -43.95 1.95 -37.75 6.1 -35.3 8.85 -31.6 L8.9 -31.5 M6.7 -15.6 Q7.5 -12.95 7.5 -10.5 7.5 -2.25 6.8 9.25 6.25 19.15 5.5 25.0 L5.45 25.65 5.3 26.55 4.5 27.0 3.9 26.05 -18.25 27.0 -21.85 26.65 -22.5 27.0 Q-23.5 26.6 -23.5 25.15 -23.5 16.9 -22.5 3.1 -21.2 -14.45 -21.0 -19.35 -20.25 -21.0 -19.05 -24.6 -17.8 -27.9 -16.1 -30.25 -12.8 -34.75 -8.85 -35.05 -5.6 -35.3 -0.75 -32.6 2.15 -30.3 3.6 -28.0 5.2 -25.35 5.5 -21.75 5.75 -18.7 6.7 -15.6 M-19.5 -9.0 L-13.0 -9.0 -13.0 -11.25 -12.45 -11.25 -12.5 -11.35 Q-12.1 -11.75 -11.15 -11.8 L-11.15 -11.85 Q-10.1 -12.95 -8.1 -12.25 L-8.0 -11.5 -8.0 -9.0 -3.45 -9.0 -3.35 -10.75 Q-1.0 -10.9 -0.1 -9.0 L5.4 -9.0 5.5 -10.75 Q5.5 -13.65 4.55 -16.1 4.15 -17.1 3.9 -18.4 L-14.5 -17.5 -17.65 -17.0 -19.0 -16.5 -19.2 -16.55 -19.2 -16.5 -19.7 -11.3 -19.75 -9.0 -19.75 -8.9 -19.5 -9.0 M0.5 -3.25 L0.35 0.55 0.1 1.85 5.0 2.15 5.3 -6.9 0.45 -6.55 0.5 -3.25 M-9.25 3.6 L-8.5 4.6 Q-8.5 5.45 -9.5 6.0 -10.4 6.5 -11.5 6.5 L-12.6 6.25 Q-13.0 6.65 -13.0 5.4 L-12.85 4.9 -13.0 4.8 -13.0 3.6 -14.9 3.7 -20.55 4.5 -21.0 11.55 -21.0 12.15 -17.0 11.75 Q-17.0 11.55 -6.15 11.85 L4.85 12.45 5.0 6.8 4.95 3.7 2.3 3.75 -0.8 3.6 -1.0 3.8 Q-0.5 4.0 -1.75 4.0 L-3.0 3.75 -3.05 3.55 -9.25 3.5 -9.3 3.5 -9.3 3.55 -9.25 3.6 M4.5 14.0 L-20.95 14.0 -20.85 19.1 Q-20.9 22.25 -21.25 24.55 L-20.6 24.6 Q-16.5 25.0 -4.5 24.25 L3.5 24.0 Q3.55 21.25 4.35 16.25 L4.7 14.05 4.7 13.95 4.5 14.0 M-19.85 -7.0 L-20.0 -3.75 -20.4 2.55 Q-19.1 1.75 -15.0 1.75 L-13.0 1.65 -13.0 -6.75 -19.85 -7.0 M-8.6 -6.6 Q-8.6 -5.15 -9.0 -3.55 L-9.1 1.65 -5.65 1.7 -3.25 1.75 -3.5 -4.55 -3.5 -6.5 -6.5 -6.5 -8.6 -6.6" fill="#000000" fill-rule="evenodd" stroke="none"/>
    <path d="M0.3 -29.25 L2.45 -26.1 Q3.5 -24.15 3.5 -23.1 L3.7 -20.0 Q-14.0 -20.0 -14.0 -19.75 L-18.75 -19.1 Q-17.85 -23.05 -15.85 -26.8 -12.35 -33.35 -7.75 -33.35 -0.9 -30.65 0.3 -29.25 M0.5 -3.25 L0.45 -6.55 5.3 -6.9 5.0 2.15 0.1 1.85 0.35 0.55 0.5 -3.25 M4.5 14.0 L4.7 14.05 4.35 16.25 Q3.55 21.25 3.5 24.0 L-4.5 24.25 Q-16.5 25.0 -20.6 24.6 L-21.25 24.55 Q-20.9 22.25 -20.85 19.1 L-20.95 14.0 4.5 14.0 M-8.6 -6.6 L-6.5 -6.5 -3.5 -6.5 -3.5 -4.55 -3.25 1.75 -5.65 1.7 -9.1 1.65 -9.0 -3.55 Q-8.6 -5.15 -8.6 -6.6 M-19.85 -7.0 L-13.0 -6.75 -13.0 1.65 -15.0 1.75 Q-19.1 1.75 -20.4 2.55 L-20.0 -3.75 -19.85 -7.0" fill="#3b3b3b" fill-rule="evenodd" stroke="none"/>
    <path d="M-19.0 -16.5 L-17.65 -17.0 -14.5 -17.5 3.9 -18.4 Q4.15 -17.1 4.55 -16.1 5.5 -13.65 5.5 -10.75 L5.4 -9.0 -0.1 -9.0 Q-1.0 -10.9 -3.35 -10.75 L-3.45 -9.0 -8.0 -9.0 -8.0 -11.5 -8.1 -12.25 Q-10.1 -12.95 -11.15 -11.85 L-11.15 -11.8 Q-12.1 -11.75 -12.5 -11.35 L-12.45 -11.25 -13.0 -11.25 -13.0 -9.0 -19.5 -9.0 -19.75 -9.0 -19.7 -11.3 -19.2 -16.5 -19.0 -16.5 M-9.25 3.5 L-3.05 3.55 -3.0 3.75 -1.75 4.0 Q-0.5 4.0 -1.0 3.8 L-0.8 3.6 2.3 3.75 4.95 3.7 5.0 6.8 4.85 12.45 -6.15 11.85 Q-17.0 11.55 -17.0 11.75 L-21.0 12.15 -21.0 11.55 -20.55 4.5 -14.9 3.7 -13.0 3.6 -13.0 4.8 -12.85 4.9 -13.0 5.4 Q-13.0 6.65 -12.6 6.25 L-11.5 6.5 Q-10.4 6.5 -9.5 6.0 -8.5 5.45 -8.5 4.6 L-9.25 3.6 -9.25 3.5" fill="#413d34" fill-rule="evenodd" stroke="none"/>
    <path d="M6.05 -31.5 Q6.6 -31.0 8.25 -26.8 9.2 -24.45 9.85 -23.55 9.35 -21.5 9.35 -18.65 L9.5 -11.75 Q9.4 -9.05 9.45 -4.8 L9.5 2.05 Q9.5 11.5 8.5 30.15 L8.6 30.95 Q1.95 30.65 -5.95 30.6 -14.0 30.55 -14.0 30.75 L-25.9 31.5 -25.0 -3.25 -24.25 -12.4 Q-23.55 -18.75 -23.5 -21.6 -23.3 -27.5 -19.65 -32.35 -15.2 -38.25 -8.0 -38.25 -0.65 -38.25 2.95 -35.35 4.05 -34.45 4.95 -33.1 L6.05 -31.5 M6.7 -15.6 Q5.75 -18.7 5.5 -21.75 5.2 -25.35 3.6 -28.0 2.15 -30.3 -0.75 -32.6 -5.6 -35.3 -8.85 -35.05 -12.8 -34.75 -16.1 -30.25 -17.8 -27.9 -19.05 -24.6 -20.25 -21.0 -21.0 -19.35 -21.2 -14.45 -22.5 3.1 -23.5 16.9 -23.5 25.15 -23.5 26.6 -22.5 27.0 L-21.85 26.65 -18.25 27.0 3.9 26.05 4.5 27.0 5.3 26.55 5.45 25.65 5.5 25.0 Q6.25 19.15 6.8 9.25 7.5 -2.25 7.5 -10.5 7.5 -12.95 6.7 -15.6" fill="#52047b" fill-rule="evenodd" stroke="none"/>
  </g>
</svg>
