<?xml version="1.0" encoding="UTF-8" standalone="no"?>
<svg xmlns:ffdec="https://www.free-decompiler.com/flash" xmlns:xlink="http://www.w3.org/1999/xlink" ffdec:objectType="shape" height="58.95px" width="66.8px" xmlns="http://www.w3.org/2000/svg">
  <g transform="matrix(1.0, 0.0, 0.0, 1.0, -45.5, 167.1)">
    <path d="M91.6 -152.8 Q94.75 -152.05 96.3 -150.1 L98.1 -146.3 Q100.05 -142.5 98.9 -135.7 97.45 -126.25 88.85 -122.05 84.25 -119.8 77.35 -119.7 L69.0 -120.45 Q65.65 -121.45 63.8 -123.65 62.8 -124.7 61.25 -127.9 58.75 -132.95 59.7 -136.35 60.75 -140.5 66.85 -146.35 L66.8 -147.2 79.05 -153.2 80.5 -152.4 82.6 -152.45 83.4 -152.65 Q88.85 -153.35 91.6 -152.8" fill="#00f9f9" fill-opacity="0.49803922" fill-rule="evenodd" stroke="none"/>
    <path d="M67.35 -163.1 Q80.2 -167.15 85.35 -167.1 L95.65 -165.7 Q104.4 -164.8 106.5 -163.35 107.1 -162.8 109.55 -157.8 113.6 -149.55 111.7 -139.75 108.4 -123.35 87.05 -112.9 78.2 -108.55 73.85 -109.15 L70.2 -108.85 Q67.8 -108.1 66.8 -108.15 59.75 -108.5 56.9 -110.3 52.6 -113.0 50.55 -115.05 48.8 -116.85 47.5 -119.6 44.9 -124.7 45.65 -130.05 46.3 -135.4 50.45 -143.15 55.95 -153.6 63.8 -162.35 L67.1 -163.55 67.35 -163.1 M91.6 -152.8 Q88.85 -153.35 83.4 -152.65 L82.6 -152.45 80.5 -152.4 79.05 -153.2 66.8 -147.2 66.85 -146.35 Q60.75 -140.5 59.7 -136.35 58.75 -132.95 61.25 -127.9 62.8 -124.7 63.8 -123.65 65.65 -121.45 69.0 -120.45 L77.35 -119.7 Q84.25 -119.8 88.85 -122.05 97.45 -126.25 98.9 -135.7 100.05 -142.5 98.1 -146.3 L96.3 -150.1 Q94.75 -152.05 91.6 -152.8" fill="#00a6a6" fill-opacity="0.49803922" fill-rule="evenodd" stroke="none"/>
    <path d="M67.1 -163.55 L68.55 -164.25 69.3 -164.55 68.1 -163.75 67.35 -163.1 67.1 -163.55" fill="#ff6633" fill-opacity="0.49803922" fill-rule="evenodd" stroke="none"/>
  </g>
</svg>
