<?xml version="1.0" encoding="UTF-8" standalone="no"?>
<svg xmlns:ffdec="https://www.free-decompiler.com/flash" xmlns:xlink="http://www.w3.org/1999/xlink" ffdec:objectType="shape" height="75.75px" width="58.8px" xmlns="http://www.w3.org/2000/svg">
  <g transform="matrix(1.0, 0.0, 0.0, 1.0, -16.4, 129.3)">
    <path d="M74.55 -92.2 L74.35 -90.45 74.25 -89.65 74.2 -91.2 73.8 -92.15 74.55 -92.2" fill="#ff6633" fill-opacity="0.49803922" fill-rule="evenodd" stroke="none"/>
    <path d="M73.8 -92.15 Q70.75 -78.1 68.0 -73.25 66.15 -70.0 61.15 -63.75 55.55 -55.65 53.05 -54.3 L46.3 -53.6 Q36.4 -52.95 28.35 -58.85 14.85 -68.85 16.6 -93.8 17.3 -104.15 20.2 -108.05 21.4 -109.5 21.9 -111.75 22.4 -114.3 22.95 -115.4 27.05 -122.05 30.4 -124.05 35.3 -127.1 38.3 -128.3 40.95 -129.25 44.1 -129.25 50.3 -129.7 54.8 -126.75 59.5 -124.05 64.55 -116.7 71.3 -107.15 75.2 -95.95 74.75 -94.35 74.55 -92.2 L73.8 -92.15 M28.2 -100.45 Q24.6 -93.65 24.05 -88.3 23.3 -78.15 31.45 -72.95 37.1 -68.95 41.6 -69.4 L46.35 -69.6 Q48.8 -70.25 51.3 -72.95 53.3 -75.45 55.6 -80.95 L55.85 -81.9 56.7 -83.8 58.5 -85.0 59.4 -99.2 58.65 -99.5 Q56.6 -107.95 53.25 -110.6 50.6 -112.9 44.4 -112.6 L39.15 -111.9 Q36.1 -111.05 33.35 -108.15 30.75 -105.35 28.2 -100.45" fill="#00a6a6" fill-opacity="0.49803922" fill-rule="evenodd" stroke="none"/>
    <path d="M28.2 -100.45 Q30.75 -105.35 33.35 -108.15 36.1 -111.05 39.15 -111.9 L44.4 -112.6 Q50.6 -112.9 53.25 -110.6 56.6 -107.95 58.65 -99.5 L59.4 -99.2 58.5 -85.0 56.7 -83.8 55.85 -81.9 55.6 -80.95 Q53.3 -75.45 51.3 -72.95 48.8 -70.25 46.35 -69.6 L41.6 -69.4 Q37.1 -68.95 31.45 -72.95 23.3 -78.15 24.05 -88.3 24.6 -93.65 28.2 -100.45" fill="#00f9f9" fill-opacity="0.49803922" fill-rule="evenodd" stroke="none"/>
  </g>
</svg>
