<?xml version="1.0" encoding="UTF-8" standalone="no"?>
<svg xmlns:ffdec="https://www.free-decompiler.com/flash" xmlns:xlink="http://www.w3.org/1999/xlink" ffdec:objectType="shape" height="64.6px" width="67.2px" xmlns="http://www.w3.org/2000/svg">
  <g transform="matrix(1.0, 0.0, 0.0, 1.0, -16.25, 127.3)">
    <path d="M76.6 -115.15 L77.5 -113.85 77.95 -113.2 76.9 -114.25 75.95 -114.65 76.6 -115.15" fill="#ff6633" fill-opacity="0.49803922" fill-rule="evenodd" stroke="none"/>
    <path d="M30.25 -100.35 Q29.8 -96.8 30.7 -91.75 32.0 -84.8 35.0 -80.7 40.95 -73.15 51.4 -74.6 58.95 -75.35 62.6 -78.55 L66.6 -81.65 Q68.3 -83.65 68.75 -87.05 68.85 -90.15 67.3 -95.4 L66.9 -96.15 66.45 -98.1 67.2 -100.0 58.8 -110.55 57.9 -110.25 Q50.65 -114.85 46.05 -114.6 42.2 -114.6 37.0 -110.4 L32.9 -106.7 Q30.8 -104.15 30.25 -100.35 M75.95 -114.65 Q82.35 -102.9 83.15 -97.8 83.6 -94.35 83.35 -86.85 83.65 -77.65 82.35 -75.2 82.0 -74.4 76.9 -70.4 68.75 -63.75 57.85 -62.8 39.55 -61.3 24.95 -79.85 18.8 -87.5 18.85 -92.05 18.95 -93.8 17.9 -95.75 16.7 -97.8 16.45 -98.95 15.75 -106.15 17.4 -109.65 19.7 -114.85 21.45 -117.6 23.25 -119.9 26.0 -121.95 31.0 -126.15 36.95 -126.9 42.8 -128.0 51.9 -126.05 64.05 -123.55 74.65 -118.2 L76.6 -115.15 75.95 -114.65" fill="#00a6a6" fill-opacity="0.49803922" fill-rule="evenodd" stroke="none"/>
    <path d="M30.25 -100.35 Q30.8 -104.15 32.9 -106.7 L37.0 -110.4 Q42.2 -114.6 46.05 -114.6 50.65 -114.85 57.9 -110.25 L58.8 -110.55 67.2 -100.0 66.45 -98.1 66.9 -96.15 67.3 -95.4 Q68.85 -90.15 68.75 -87.05 68.3 -83.65 66.6 -81.65 L62.6 -78.55 Q58.95 -75.35 51.4 -74.6 40.95 -73.15 35.0 -80.7 32.0 -84.8 30.7 -91.75 29.8 -96.8 30.25 -100.35" fill="#00f9f9" fill-opacity="0.49803922" fill-rule="evenodd" stroke="none"/>
  </g>
</svg>
