<?xml version="1.0" encoding="UTF-8" standalone="no"?>
<svg xmlns:ffdec="https://www.free-decompiler.com/flash" xmlns:xlink="http://www.w3.org/1999/xlink" ffdec:objectType="shape" height="282.05px" width="104.5px" xmlns="http://www.w3.org/2000/svg">
  <g transform="matrix(1.0, 0.0, 0.0, 1.0, 51.05, 143.8)">
    <path d="M4.45 -133.2 L7.95 -121.65 7.95 -120.0 13.45 -120.0 13.5 -120.0 40.15 -119.95 44.5 -119.8 46.95 -119.55 Q46.7 -119.95 46.7 -120.4 51.65 -121.85 52.95 -119.3 53.45 -118.5 53.45 -115.95 53.45 -113.3 52.95 -112.45 51.7 -109.75 47.1 -110.45 L46.95 -110.7 Q46.7 -110.95 46.7 -111.7 L46.8 -112.5 46.95 -112.7 46.8 -112.8 45.3 -112.75 40.15 -112.45 13.45 -112.45 13.45 -112.5 3.75 -112.5 Q4.2 -108.75 4.45 -102.1 L4.45 131.4 4.1 134.5 3.9 136.55 3.95 137.5 3.9 138.25 -2.3 138.15 -3.5 138.25 -3.55 137.7 -3.5 136.65 -3.4 136.45 Q-4.2 126.25 -4.2 104.1 L-4.05 66.3 -4.1 28.45 -4.05 -3.7 -4.1 -37.8 -4.1 -58.25 -4.1 -60.75 -4.15 -70.25 -4.2 -85.35 Q-4.2 -106.65 -3.45 -112.5 L-16.5 -112.5 -16.5 -112.55 -42.4 -112.6 -43.25 -112.7 -43.15 -111.95 Q-43.15 -111.25 -43.35 -111.25 L-43.75 -110.95 -49.85 -110.95 Q-50.75 -111.65 -51.0 -113.3 L-51.05 -115.95 -51.05 -119.9 -50.7 -120.5 Q-50.3 -120.9 -49.85 -120.95 -42.55 -121.4 -42.55 -119.85 L-42.55 -119.45 -34.7 -119.7 -16.5 -119.85 -16.5 -119.9 -6.0 -119.95 -6.05 -121.4 Q-6.05 -127.2 -4.85 -133.25 -3.35 -141.0 -0.55 -143.8 0.9 -142.9 2.35 -138.95 L4.45 -133.2 M13.5 -114.45 L27.9 -114.45 28.0 -114.45 27.95 -115.7 Q27.95 -117.2 28.5 -117.95 L-30.1 -118.05 -30.05 -116.6 -30.1 -114.3 -30.1 -114.25 -29.55 -114.25 -16.5 -114.35 -16.5 -114.45 -3.05 -114.45 3.45 -114.45 13.45 -114.45 13.5 -114.45 M3.4 -120.0 L6.3 -120.0 Q5.05 -123.2 3.5 -129.2 1.45 -136.65 -0.3 -140.45 L-2.9 -130.0 Q-4.05 -124.6 -4.2 -119.95 L-1.85 -119.95 3.4 -120.0 M40.15 -114.45 L44.5 -114.3 46.25 -114.15 Q46.1 -114.9 46.1 -115.95 L46.1 -117.45 46.35 -118.25 45.3 -118.25 40.15 -117.95 29.45 -117.95 Q29.95 -117.2 29.95 -115.85 L29.9 -114.45 40.15 -114.45 M51.0 -118.4 L47.9 -118.95 47.85 -118.7 48.3 -117.4 48.55 -116.1 48.3 -112.9 51.0 -112.95 51.0 -118.4 M-2.0 -94.15 L-2.0 -60.75 -2.05 64.25 -2.05 73.05 -2.05 91.95 -2.05 94.75 -2.05 131.4 -2.4 134.5 -2.55 136.1 0.2 136.05 0.35 136.05 1.3 136.1 3.1 136.25 Q2.3 125.95 2.3 104.1 L2.35 99.2 2.35 98.4 2.45 66.3 2.4 49.4 2.4 49.15 2.4 44.1 2.4 43.75 2.4 28.45 2.45 13.6 2.45 13.4 2.45 8.0 2.45 -3.7 2.4 -37.8 2.4 -58.25 2.4 -60.75 2.35 -70.25 2.3 -85.35 Q2.3 -106.65 3.05 -112.5 L-0.2 -112.5 -1.65 -112.5 -2.75 -112.5 Q-2.3 -108.75 -2.05 -102.1 L-2.0 -94.15 M-43.15 -118.15 L-43.15 -113.9 -34.7 -114.2 -32.05 -114.25 -32.0 -114.25 -32.05 -115.55 -32.05 -116.45 -32.05 -116.55 -32.05 -116.7 -32.0 -117.6 -31.95 -118.0 -31.95 -118.05 -42.4 -118.1 -43.15 -118.15 M-45.55 -114.2 L-45.6 -116.55 -45.55 -118.7 -48.6 -118.7 -48.6 -113.15 -45.05 -113.0 Q-45.4 -113.45 -45.55 -114.2" fill="#000000" fill-rule="evenodd" stroke="none"/>
    <path d="M51.0 -118.4 L51.0 -112.95 48.3 -112.9 48.55 -116.1 48.3 -117.4 47.85 -118.7 47.9 -118.95 51.0 -118.4 M40.15 -114.45 L29.9 -114.45 29.95 -115.85 Q29.95 -117.2 29.45 -117.95 L40.15 -117.95 45.3 -118.25 46.35 -118.25 46.1 -117.45 46.1 -115.95 Q46.1 -114.9 46.25 -114.15 L44.5 -114.3 40.15 -114.45 M-45.55 -114.2 Q-45.4 -113.45 -45.05 -113.0 L-48.6 -113.15 -48.6 -118.7 -45.55 -118.7 -45.6 -116.55 -45.55 -114.2 M-43.15 -118.15 L-42.4 -118.1 -31.95 -118.05 -31.95 -118.0 -32.0 -117.6 -32.05 -116.7 -32.05 -116.55 -32.05 -116.45 -32.05 -115.55 -32.0 -114.25 -32.05 -114.25 -34.7 -114.2 -43.15 -113.9 -43.15 -118.15" fill="#cc9d3c" fill-rule="evenodd" stroke="none"/>
    <path d="M3.4 -120.0 L3.45 -121.7 Q3.45 -122.85 2.1 -127.8 0.7 -133.0 -0.05 -133.95 -1.55 -132.4 -1.95 -128.7 L-2.05 -122.9 -2.0 -120.65 -1.85 -119.95 -4.2 -119.95 Q-4.05 -124.6 -2.9 -130.0 L-0.3 -140.45 Q1.45 -136.65 3.5 -129.2 5.05 -123.2 6.3 -120.0 L3.4 -120.0" fill="#898996" fill-rule="evenodd" stroke="none"/>
    <path d="M-1.85 -119.95 L-2.0 -120.65 -2.05 -122.9 -1.95 -128.7 Q-1.55 -132.4 -0.05 -133.95 0.7 -133.0 2.1 -127.8 3.45 -122.85 3.45 -121.7 L3.4 -120.0 -1.85 -119.95" fill="#60606c" fill-rule="evenodd" stroke="none"/>
    <path d="M-0.2 -112.5 L-0.7 -107.45 -1.05 -100.95 Q-1.05 -94.45 -0.05 -87.05 0.95 -79.65 0.95 -75.95 L0.75 -73.4 0.45 -73.15 Q-0.75 -74.05 -0.75 -76.6 L-0.55 -80.15 -0.95 -83.7 -1.55 -87.2 -2.0 -94.15 -2.05 -102.1 Q-2.0 -108.7 -1.65 -112.5 L-0.2 -112.5 M-2.05 64.25 L-0.8 59.2 Q1.45 51.0 1.45 46.45 1.45 44.45 0.45 37.25 L-0.55 29.3 -0.5 26.6 0.2 26.6 1.6 36.55 2.4 43.75 2.4 44.1 2.4 49.15 2.4 49.4 Q2.05 54.7 0.5 59.45 -1.4 65.1 -2.05 73.05 L-2.05 64.25 M2.45 13.6 Q1.1 8.95 0.7 2.85 0.45 -0.35 0.45 -13.1 L0.5 -28.9 1.2 -28.9 Q1.55 -21.4 1.5 -5.05 1.7 2.2 2.45 8.0 L2.45 13.4 2.45 13.6 M1.1 -58.25 L0.95 -53.95 Q0.85 -52.7 0.05 -50.4 L-1.3 -46.45 -1.95 -42.95 -2.0 -42.3 -2.0 -47.6 Q-1.1 -50.05 -0.5 -52.9 -0.05 -54.95 0.0 -58.05 L0.0 -58.25 0.0 -60.75 1.1 -60.75 1.1 -58.25 M2.35 98.4 L2.35 99.2 Q0.6 99.7 0.35 101.8 0.1 103.5 0.45 106.6 L0.35 110.25 0.45 114.1 0.25 129.1 -0.05 129.35 Q-0.55 124.6 -0.55 114.65 L-0.45 110.9 -0.55 105.85 Q-0.9 102.05 0.05 100.0 0.85 98.3 2.35 98.4 M1.3 136.1 L0.35 136.05 -1.55 131.55 -1.55 129.1 -0.8 129.1 Q0.05 132.6 1.3 136.1 M-2.05 94.75 L-2.05 91.95 -1.8 91.05 -0.25 83.9 Q0.85 79.35 1.7 78.6 L1.9 79.1 1.95 80.15 Q1.95 83.3 -1.75 93.85 L-2.05 94.75" fill="#31271e" fill-rule="evenodd" stroke="none"/>
    <path d="M-2.0 -94.15 L-1.55 -87.2 -0.95 -83.7 -0.55 -80.15 -0.75 -76.6 Q-0.75 -74.05 0.45 -73.15 L0.75 -73.4 0.95 -75.95 Q0.95 -79.65 -0.05 -87.05 -1.05 -94.45 -1.05 -100.95 L-0.7 -107.45 -0.2 -112.5 3.05 -112.5 Q2.3 -106.65 2.3 -85.35 L2.35 -70.25 2.4 -60.75 2.4 -58.25 2.4 -37.8 2.45 -3.7 2.45 8.0 Q1.7 2.2 1.5 -5.05 1.55 -21.4 1.2 -28.9 L0.5 -28.9 0.45 -13.1 Q0.45 -0.35 0.7 2.85 1.1 8.95 2.45 13.6 L2.4 28.45 2.4 43.75 1.6 36.55 0.2 26.6 -0.5 26.6 -0.55 29.3 0.45 37.25 Q1.45 44.45 1.45 46.45 1.45 51.0 -0.8 59.2 L-2.05 64.25 -2.0 -60.75 -2.0 -94.15 M-1.65 -112.5 Q-2.0 -108.7 -2.05 -102.1 -2.3 -108.75 -2.75 -112.5 L-1.65 -112.5 M1.1 -58.25 L1.1 -60.75 0.0 -60.75 0.0 -58.25 0.0 -58.05 Q-0.05 -54.95 -0.5 -52.9 -1.1 -50.05 -2.0 -47.6 L-2.0 -42.3 -1.95 -42.95 -1.3 -46.45 0.05 -50.4 Q0.85 -52.7 0.95 -53.95 L1.1 -58.25 M2.4 49.4 L2.45 66.3 2.35 98.4 Q0.85 98.3 0.05 100.0 -0.9 102.05 -0.55 105.85 L-0.45 110.9 -0.55 114.65 Q-0.55 124.6 -0.05 129.35 L0.25 129.1 0.45 114.1 0.35 110.25 0.45 106.6 Q0.1 103.5 0.35 101.8 0.6 99.7 2.35 99.2 L2.3 104.1 Q2.3 125.95 3.1 136.25 L1.3 136.1 Q0.05 132.6 -0.8 129.1 L-1.55 129.1 -1.55 131.55 0.35 136.05 0.2 136.05 -2.55 136.1 -2.4 134.5 -2.05 131.4 -2.05 94.75 -1.75 93.85 Q1.95 83.3 1.95 80.15 L1.9 79.1 1.7 78.6 Q0.85 79.35 -0.25 83.9 L-1.8 91.05 -2.05 91.95 -2.05 73.05 Q-1.4 65.1 0.5 59.45 2.05 54.7 2.4 49.4" fill="#211b14" fill-rule="evenodd" stroke="none"/>
    <path d="M13.5 -114.45 L13.45 -114.45 3.45 -114.45 -3.05 -114.45 -16.5 -114.45 -16.5 -114.35 -29.55 -114.25 -30.1 -114.25 -30.1 -114.3 -30.05 -116.6 -30.1 -118.05 28.5 -117.95 Q27.95 -117.2 27.95 -115.7 L28.0 -114.45 27.9 -114.45 13.5 -114.45" fill="#731c02" fill-rule="evenodd" stroke="none"/>
    <path d="M14.7 -38.55 L14.95 -37.75 15.3 -37.1 15.45 -35.7 15.4 -35.7 15.45 -35.35 Q15.45 -31.05 12.45 -26.6 8.5 -20.7 1.95 -20.7 -9.55 -20.7 -14.55 -26.7 -17.55 -30.25 -17.55 -34.35 -17.55 -36.4 -16.95 -37.25 L-17.05 -37.45 -16.8 -37.95 -15.8 -38.2 Q-14.1 -36.15 -11.5 -34.05 -6.25 -29.95 0.7 -29.95 4.25 -29.95 9.15 -34.1 L13.95 -38.7 14.7 -38.55 M12.35 -33.5 L10.45 -31.85 Q5.4 -27.7 0.7 -27.7 -7.05 -27.7 -12.65 -32.25 L-15.05 -34.45 -15.4 -34.8 -15.25 -34.15 -15.2 -33.75 Q-14.75 -30.85 -13.65 -29.2 -12.5 -27.05 -10.7 -25.85 -6.5 -22.95 1.7 -22.95 8.6 -22.95 11.7 -29.85 12.65 -32.0 13.1 -34.3 L12.35 -33.5 M7.95 7.45 L8.55 7.2 8.65 7.1 8.85 6.95 12.35 2.55 Q13.1 1.55 13.1 -0.55 L12.95 -3.35 Q12.95 -8.65 11.4 -11.2 L11.3 -11.35 10.95 -11.9 10.4 -12.55 7.45 -15.0 Q5.2 -16.45 1.95 -17.55 L1.85 -17.6 1.1 -17.8 Q-0.85 -18.3 -2.45 -17.75 -3.6 -17.35 -4.6 -16.4 L-6.15 -14.7 -8.55 -11.4 -10.45 -6.6 -10.55 -3.15 Q-10.55 -0.1 -8.7 2.85 -7.4 4.95 -5.35 6.2 L-3.9 6.95 Q-1.3 8.05 2.2 8.05 L3.1 8.05 3.15 8.05 7.95 7.45 M4.45 -6.0 L3.7 -6.9 Q2.55 -7.95 0.95 -8.05 L0.9 -8.05 0.7 -8.05 0.45 -8.05 Q-3.05 -8.0 -3.05 -3.45 L-2.4 -1.95 Q-1.75 -0.9 -1.3 -0.9 2.9 -0.9 4.35 -2.45 4.95 -3.15 4.95 -4.2 4.95 -5.2 4.45 -6.0 M6.95 -4.45 Q6.95 1.3 0.7 1.3 -3.25 1.3 -4.55 -1.2 -5.2 -2.4 -5.05 -3.7 -5.05 -7.05 -3.15 -8.95 -1.5 -10.65 0.95 -10.65 3.35 -10.65 5.1 -9.1 6.95 -7.35 6.95 -4.45 M14.95 -3.4 Q14.95 1.05 13.4 4.15 12.6 5.75 11.45 6.95 L9.55 8.45 Q6.55 10.3 1.95 10.3 -2.95 10.3 -6.2 8.45 L-8.3 6.95 Q-9.6 5.75 -10.55 4.15 -12.55 0.75 -12.55 -3.4 -12.55 -7.85 -10.45 -12.0 -7.8 -17.35 -2.55 -19.7 2.5 -20.0 6.8 -18.0 11.1 -16.0 13.85 -11.95 14.7 -10.6 14.9 -8.0 L14.95 -3.4 M3.8 10.95 L8.55 11.75 10.05 14.45 11.5 17.8 12.3 20.85 12.65 22.25 12.65 22.35 12.7 22.45 12.85 23.15 12.95 23.45 13.0 23.6 12.9 24.2 13.0 24.55 13.0 25.05 12.85 25.7 Q12.65 25.7 12.55 26.0 L12.2 26.0 12.0 26.6 Q12.0 28.75 13.0 35.35 L14.0 42.55 13.75 44.5 Q13.4 45.0 12.0 45.0 10.45 45.0 9.3 43.9 L8.05 42.5 Q7.5 44.4 5.35 44.65 L3.25 44.5 Q-1.0 43.9 -2.45 43.25 L-3.0 44.15 Q-3.4 44.5 -4.25 44.5 -6.0 44.5 -6.8 43.65 -7.4 43.05 -8.5 43.5 L-13.1 43.5 -13.3 43.35 -13.5 42.4 -13.0 39.65 Q-12.5 37.4 -12.5 35.3 L-12.75 31.35 -13.0 28.15 -12.8 25.2 -12.8 24.75 -12.65 24.6 -12.5 24.1 -12.4 22.6 -12.15 23.0 -12.45 22.4 -12.5 21.5 -12.5 21.45 Q-12.45 20.45 -11.45 18.6 -10.15 16.2 -8.0 14.4 -4.35 11.35 0.65 10.95 L3.8 10.95 M9.15 18.5 L-8.6 18.5 -8.8 18.35 -10.0 19.9 -5.5 19.75 Q-5.5 19.55 1.7 19.6 L9.7 19.85 9.45 19.3 9.15 18.5 M1.25 13.7 L-4.25 14.05 -5.25 14.55 -6.35 15.75 -7.4 16.75 -7.35 16.75 Q-3.8 16.4 8.3 16.5 L7.0 13.55 1.25 13.7 M11.3 23.6 L10.8 22.45 10.75 22.35 10.75 22.3 10.6 22.0 -10.6 22.0 -10.6 22.35 -10.5 22.8 -10.8 23.05 -10.55 22.9 -10.5 23.0 -9.85 23.35 -8.85 23.75 -2.3 24.05 4.5 24.0 11.3 24.0 11.5 24.0 11.3 23.6 M12.0 42.35 Q10.0 28.4 10.0 26.4 L10.0 26.1 6.6 26.2 Q7.45 27.4 7.55 30.1 L8.0 37.55 7.75 38.2 6.75 38.5 5.5 38.25 5.25 31.65 5.0 26.9 5.05 26.25 2.9 26.3 3.0 27.0 2.75 30.9 2.5 36.3 2.15 36.55 1.5 37.0 Q0.75 35.95 0.55 34.25 L0.5 31.4 0.6 28.4 Q0.8 26.95 1.4 26.35 L-2.45 26.5 Q-1.95 26.75 -1.95 27.35 L-2.25 30.0 -1.5 35.9 -1.5 36.65 -1.7 37.05 -2.5 37.5 Q-4.1 36.4 -4.0 34.0 -3.95 31.05 -4.5 30.05 L-4.5 26.5 -6.45 26.45 -6.5 30.5 -6.1 34.1 -5.5 38.0 Q-5.75 38.0 -6.5 38.5 -7.35 37.6 -8.25 33.1 -9.0 29.2 -9.0 27.65 L-8.95 26.3 -10.9 26.05 -10.7 27.75 -10.5 32.3 Q-10.15 34.05 -10.25 36.8 L-10.5 41.25 -10.5 41.3 Q-8.95 41.15 -8.3 40.5 L-7.0 39.5 -6.0 40.9 -5.5 41.8 -4.35 42.05 Q-3.0 40.0 -2.25 40.0 -1.4 40.0 -1.0 41.15 -0.65 42.25 1.8 42.25 L2.0 40.3 2.25 40.15 3.25 40.0 Q4.2 40.0 4.65 40.95 L5.25 42.3 6.0 42.25 Q5.55 40.85 6.35 40.1 6.95 39.5 7.75 39.5 L9.5 40.85 11.7 42.7 11.75 42.75 Q12.0 43.6 12.0 42.35" fill="#000000" fill-rule="evenodd" stroke="none"/>
    <path d="M-15.2 -34.25 L-14.35 -33.0 -12.3 -29.8 Q-9.9 -28.0 -9.15 -27.05 -7.8 -25.45 0.95 -25.45 7.7 -25.45 10.85 -30.65 L12.35 -33.5 13.1 -34.3 Q12.65 -32.0 11.7 -29.85 8.6 -22.95 1.7 -22.95 -6.5 -22.95 -10.7 -25.85 -12.5 -27.05 -13.65 -29.2 -14.75 -30.85 -15.2 -33.75 L-15.25 -34.15 -15.2 -34.25 M1.1 -17.8 L0.2 -17.95 -0.05 -17.55 0.05 -17.45 -2.45 -17.75 Q-0.85 -18.3 1.1 -17.8 M-6.15 -14.7 Q0.7 -14.65 4.35 -13.55 L5.0 -13.35 Q10.45 -7.85 10.45 -1.7 10.45 2.15 9.35 3.05 L5.45 4.8 -0.35 4.9 Q-4.0 5.0 -5.35 6.2 -7.4 4.95 -8.7 2.85 -10.55 -0.1 -10.55 -3.15 L-10.45 -6.6 -8.55 -11.4 -6.15 -14.7 M3.15 8.05 L4.1 7.85 6.95 7.35 7.55 7.55 7.95 7.45 3.15 8.05 M0.45 -8.05 L0.45 -5.45 1.1 -4.25 Q1.35 -3.7 2.7 -3.7 L3.9 -3.8 4.35 -3.95 4.45 -5.7 4.45 -6.0 Q4.95 -5.2 4.95 -4.2 4.95 -3.15 4.35 -2.45 2.9 -0.9 -1.3 -0.9 -1.75 -0.9 -2.4 -1.95 L-3.05 -3.45 Q-3.05 -8.0 0.45 -8.05 M6.95 -4.45 Q6.95 -7.35 5.1 -9.1 3.35 -10.65 0.95 -10.65 -1.5 -10.65 -3.15 -8.95 -5.05 -7.05 -5.05 -3.7 -5.2 -2.4 -4.55 -1.2 -3.25 1.3 0.7 1.3 6.95 1.3 6.95 -4.45 M11.3 24.0 L4.5 24.0 -2.3 24.05 -8.85 23.75 -9.85 23.35 -10.5 23.0 -10.55 22.9 -10.8 23.05 -10.5 22.8 -10.6 22.35 -10.6 22.0 10.6 22.0 10.75 22.3 10.75 22.35 10.8 22.45 11.3 23.6 11.3 24.0 M1.25 13.7 L7.0 13.55 8.3 16.5 Q-3.8 16.4 -7.35 16.75 L-7.4 16.75 -6.35 15.75 -5.25 14.55 -4.25 14.05 1.25 13.7 M9.15 18.5 L9.45 19.3 9.7 19.85 1.7 19.6 Q-5.5 19.55 -5.5 19.75 L-10.0 19.9 -8.8 18.35 -8.6 18.5 9.15 18.5" fill="#4d3c1a" fill-rule="evenodd" stroke="none"/>
    <path d="M12.35 -33.5 L10.85 -30.65 Q7.7 -25.45 0.95 -25.45 -7.8 -25.45 -9.15 -27.05 -9.9 -28.0 -12.3 -29.8 L-14.35 -33.0 -15.2 -34.25 -15.05 -34.45 -12.65 -32.25 Q-7.05 -27.7 0.7 -27.7 5.4 -27.7 10.45 -31.85 L12.35 -33.5 M1.1 -17.8 L1.85 -17.6 1.95 -17.55 Q5.2 -16.45 7.45 -15.0 L10.4 -12.55 10.95 -11.9 11.3 -11.35 11.4 -11.2 Q12.95 -8.65 12.95 -3.35 L13.1 -0.55 Q13.1 1.55 12.35 2.55 L8.85 6.95 8.65 7.1 8.55 7.2 7.95 7.45 7.55 7.55 6.95 7.35 4.1 7.85 3.15 8.05 3.1 8.05 2.2 8.05 Q-1.3 8.05 -3.9 6.95 L-5.35 6.2 Q-4.0 5.0 -0.35 4.9 L5.45 4.8 9.35 3.05 Q10.45 2.15 10.45 -1.7 10.45 -7.85 5.0 -13.35 L4.35 -13.55 Q0.7 -14.65 -6.15 -14.7 L-4.6 -16.4 Q-3.6 -17.35 -2.45 -17.75 L0.05 -17.45 -0.05 -17.55 0.2 -17.95 1.1 -17.8 M0.45 -8.05 L0.7 -8.05 0.9 -8.05 0.95 -8.05 Q2.55 -7.95 3.7 -6.9 L4.45 -6.0 4.45 -5.7 4.35 -3.95 3.9 -3.8 2.7 -3.7 Q1.35 -3.7 1.1 -4.25 L0.45 -5.45 0.45 -8.05 M11.7 42.7 L9.5 40.85 7.75 39.5 Q6.95 39.5 6.35 40.1 5.55 40.85 6.0 42.25 L5.25 42.3 4.65 40.95 Q4.2 40.0 3.25 40.0 L2.25 40.15 2.0 40.3 1.8 42.25 Q-0.65 42.25 -1.0 41.15 -1.4 40.0 -2.25 40.0 -3.0 40.0 -4.35 42.05 L-5.5 41.8 -6.0 40.9 -7.0 39.5 -8.3 40.5 Q-8.95 41.15 -10.5 41.3 L-10.5 41.25 -10.25 36.8 Q-10.15 34.05 -10.5 32.3 L-10.7 27.75 -10.9 26.05 -8.95 26.3 -9.0 27.65 Q-9.0 29.2 -8.25 33.1 -7.35 37.6 -6.5 38.5 -5.75 38.0 -5.5 38.0 L-6.1 34.1 -6.5 30.5 -6.45 26.45 -4.5 26.5 -4.5 30.05 Q-3.95 31.05 -4.0 34.0 -4.1 36.4 -2.5 37.5 L-1.7 37.05 -1.5 36.65 -1.5 35.9 -2.25 30.0 -1.95 27.35 Q-1.95 26.75 -2.45 26.5 L1.4 26.35 Q0.8 26.95 0.6 28.4 L0.5 31.4 0.55 34.25 Q0.75 35.95 1.5 37.0 L2.15 36.55 2.5 36.3 2.75 30.9 3.0 27.0 2.9 26.3 5.05 26.25 5.0 26.9 5.25 31.65 5.5 38.25 6.75 38.5 7.75 38.2 8.0 37.55 7.55 30.1 Q7.45 27.4 6.6 26.2 L10.0 26.1 10.0 26.4 Q10.0 28.4 12.0 42.35 L11.7 42.7" fill="#8e6c24" fill-rule="evenodd" stroke="none"/>
    <path d="M20.2 -119.8 L19.5 -119.8 18.55 -119.85 20.2 -119.8 M-31.15 -115.3 L-31.15 -115.25 -31.2 -115.15 -31.15 -115.3 M-31.4 -113.6 L-31.3 -112.95 -30.4 -112.75 -28.25 -112.95 -28.4 -112.55 -28.65 -111.25 -28.7 -109.9 -28.7 -107.7 -28.7 -105.1 Q-28.5 -102.8 -27.2 -102.8 -25.8 -102.8 -25.75 -105.75 L-25.95 -111.05 Q-21.25 -111.25 -19.85 -111.95 -19.55 -112.1 -19.4 -112.4 -19.25 -112.65 -19.25 -113.05 L-19.35 -113.7 -7.9 -112.85 Q-5.55 -112.0 -1.05 -112.0 5.5 -112.0 5.85 -112.8 6.25 -113.7 14.85 -114.05 L19.3 -113.6 19.25 -113.45 19.25 -113.0 Q19.3 -112.5 19.7 -112.1 L19.75 -112.05 19.85 -112.0 Q21.25 -111.0 25.35 -111.95 L25.3 -107.9 Q25.3 -105.2 26.3 -103.95 27.4 -105.3 27.75 -107.35 L27.8 -110.45 27.65 -113.7 27.05 -114.5 25.55 -114.6 25.35 -114.6 25.85 -114.85 Q28.85 -116.5 29.7 -114.25 30.05 -113.4 30.3 -113.5 L30.7 -113.7 30.75 -111.85 Q30.9 -107.1 30.55 -104.65 29.95 -100.1 29.75 -96.0 L25.85 -101.4 22.95 -108.2 Q21.4 -111.05 21.4 -107.9 21.4 -106.7 24.65 -97.6 25.7 -94.55 27.1 -87.0 L27.75 -81.9 Q28.05 -78.75 28.75 -76.65 L29.7 -74.1 30.6 -71.45 Q30.75 -70.3 31.35 -69.0 L31.75 -68.15 31.8 -64.95 31.75 -58.05 Q31.8 -54.0 32.4 -51.1 L25.7 -52.4 15.6 -53.65 10.1 -53.1 10.0 -53.65 9.35 -57.45 9.0 -61.35 Q8.8 -63.75 7.95 -64.8 5.35 -62.65 3.25 -58.85 1.1 -54.9 0.95 -51.55 L0.7 -51.55 -2.2 -51.6 Q-1.85 -51.85 -1.85 -52.25 -1.85 -54.9 -9.45 -64.35 L-15.85 -71.9 -12.7 -77.55 -11.75 -75.95 -7.85 -69.4 -3.15 -72.25 -9.45 -83.6 -3.25 -94.85 -7.7 -97.8 -7.7 -97.7 -8.3 -96.7 -10.8 -92.4 -12.5 -89.4 -12.6 -89.4 -12.6 -89.45 -17.3 -97.8 -22.05 -95.1 -19.45 -90.2 -19.3 -90.15 -18.95 -89.4 -16.3 -84.25 -15.9 -83.6 -16.3 -82.95 -18.55 -78.95 -19.45 -77.2 -19.6 -76.95 -21.25 -79.95 -24.75 -86.45 -28.8 -92.85 Q-30.1 -94.6 -30.85 -95.05 -31.4 -97.8 -31.45 -100.05 L-31.45 -107.3 -31.45 -112.55 -31.4 -113.6 M-11.0 -52.65 L-12.6 -52.95 Q-17.55 -54.0 -18.65 -53.45 L-25.4 -52.7 -27.2 -51.3 -28.95 -49.95 -29.35 -49.6 Q-29.35 -57.05 -29.0 -63.4 L-28.2 -70.7 Q-27.5 -75.5 -27.5 -78.2 L-27.5 -79.7 -27.0 -77.45 Q-26.7 -76.35 -24.6 -74.45 L-22.0 -72.1 -22.05 -72.1 -21.9 -72.05 -21.5 -71.7 Q-18.9 -69.25 -16.95 -66.1 -15.2 -63.25 -14.3 -60.5 L-12.05 -54.75 -11.0 -52.65 M39.1 -102.75 L40.05 -98.35 40.35 -95.3 Q40.7 -93.7 41.6 -92.25 L42.9 -88.75 43.7 -87.0 43.7 -83.75 43.6 -68.85 40.65 -75.0 39.1 -77.7 39.2 -87.1 39.1 -93.4 39.1 -102.75 M43.55 -62.35 L43.45 -53.65 38.7 -53.55 38.55 -55.4 38.5 -62.2 38.75 -67.45 39.55 -65.6 Q41.25 -62.1 43.1 -62.1 L43.55 -62.35 M18.25 -98.95 L17.9 -77.05 18.2 -69.4 23.55 -69.4 23.65 -98.85 18.25 -98.95 M9.3 -98.95 L9.3 -98.9 8.95 -77.05 9.2 -69.4 14.6 -69.4 14.7 -98.85 9.3 -98.95 M28.3 -64.8 Q27.05 -66.25 26.7 -64.7 L26.65 -63.1 Q26.45 -62.5 26.4 -61.75 L26.0 -58.25 21.45 -58.15 20.9 -57.2 20.8 -56.65 Q20.8 -55.75 21.7 -55.55 L27.5 -54.8 Q28.9 -54.8 29.25 -55.7 L29.35 -57.4 28.9 -60.95 28.8 -61.55 28.75 -61.95 Q28.35 -63.9 28.3 -64.8 M4.75 -69.4 L4.8 -98.85 -0.6 -98.95 -0.65 -95.7 -0.7 -92.2 -0.95 -77.05 -0.65 -69.4 4.75 -69.4 M-40.3 -106.95 L-39.1 -104.3 -37.45 -98.0 Q-36.55 -94.45 -35.45 -94.0 L-35.45 -85.85 -35.4 -70.4 -35.4 -69.2 -37.7 -75.55 -39.7 -82.2 Q-39.95 -83.45 -40.3 -84.2 L-40.35 -85.65 -40.1 -100.05 Q-40.05 -103.8 -40.3 -106.95 M-35.5 -54.15 L-38.7 -54.6 -39.45 -54.65 -39.4 -56.9 -39.85 -69.5 -39.8 -69.35 -37.75 -62.85 -36.7 -58.8 -35.75 -55.35 -35.5 -54.15 M-25.35 -67.1 Q-26.7 -68.35 -27.05 -64.5 L-27.2 -59.8 -27.05 -55.0 -26.1 -54.8 -25.35 -55.25 -24.55 -55.75 -20.45 -56.3 -19.5 -56.5 -19.35 -56.65 -19.25 -57.35 Q-19.25 -57.95 -19.75 -58.2 L-24.75 -58.85 -24.3 -63.25 Q-24.1 -65.8 -25.35 -67.1" fill="#942403" fill-rule="evenodd" stroke="none"/>
    <path d="M18.55 -119.85 L16.9 -119.85 Q-11.9 -119.65 -29.0 -118.9 -29.65 -118.85 -30.25 -118.1 L-30.25 -117.75 -30.85 -116.35 -31.15 -115.3 -31.2 -115.15 -31.2 -115.05 -31.4 -113.65 -31.4 -113.6 -31.45 -112.55 -31.45 -107.3 -31.45 -100.05 Q-31.4 -97.8 -30.85 -95.05 L-30.65 -94.15 -30.3 -92.55 -30.25 -92.4 -28.0 -84.2 -28.0 -84.15 -27.95 -84.0 -27.55 -81.0 -27.55 -79.75 -27.5 -79.7 -27.5 -78.2 Q-27.5 -75.5 -28.2 -70.7 L-29.0 -63.4 Q-29.35 -57.05 -29.35 -49.6 L-28.95 -49.95 -27.2 -51.3 -25.4 -52.7 -18.65 -53.45 Q-17.55 -54.0 -12.6 -52.95 L-11.0 -52.65 -5.15 -51.8 -4.7 -51.9 -4.65 -51.75 -2.2 -51.6 0.7 -51.55 0.95 -51.55 Q7.0 -51.55 8.8 -52.6 L8.85 -52.6 10.1 -53.1 15.6 -53.65 25.7 -52.4 32.4 -51.1 Q31.8 -54.0 31.75 -58.05 L31.8 -64.95 31.75 -68.15 31.75 -71.85 31.5 -78.75 Q31.2 -82.55 30.3 -86.3 29.65 -89.25 29.65 -92.55 L29.65 -92.75 29.7 -95.7 29.75 -96.0 Q29.95 -100.1 30.55 -104.65 30.9 -107.1 30.75 -111.85 L30.7 -113.7 30.55 -116.75 30.55 -117.5 30.3 -117.9 29.95 -118.85 Q26.7 -119.0 25.9 -119.5 L25.85 -119.5 20.2 -119.8 18.55 -119.85 M17.0 -121.5 L25.4 -121.4 26.6 -121.1 30.55 -120.45 Q30.9 -120.4 31.45 -119.2 L32.1 -117.7 31.95 -117.2 31.8 -117.05 32.1 -110.75 Q32.1 -107.65 31.5 -101.3 30.85 -94.95 30.85 -92.35 30.85 -89.75 31.75 -85.45 32.7 -81.0 32.7 -78.35 L32.85 -71.65 33.0 -64.8 33.05 -57.85 Q33.15 -53.9 33.6 -50.95 34.1 -47.55 35.3 -44.05 L35.9 -41.0 36.35 -37.5 36.2 -37.0 Q36.1 -36.75 35.6 -36.75 L35.5 -36.75 Q33.65 -36.9 32.55 -36.3 31.2 -35.6 24.15 -35.6 L18.75 -35.75 18.75 -36.05 Q18.9 -36.3 18.65 -36.55 L17.75 -37.15 16.8 -37.9 15.3 -38.3 -2.6 -38.5 Q-22.6 -38.5 -25.35 -37.05 L-26.05 -36.05 Q-26.25 -35.6 -28.25 -35.6 -30.2 -35.6 -30.3 -38.15 -30.05 -41.3 -30.25 -42.5 -30.55 -44.1 -30.55 -49.05 -30.25 -58.85 -30.25 -63.8 L-29.4 -70.9 Q-28.7 -77.25 -28.7 -78.35 -28.7 -81.9 -29.6 -85.6 L-31.75 -93.15 Q-32.7 -96.7 -32.8 -100.65 L-32.7 -107.4 -32.85 -113.5 -32.3 -116.8 -32.4 -117.1 Q-32.4 -118.35 -31.95 -119.2 -31.3 -120.4 -29.95 -120.45 L-10.3 -121.15 8.85 -121.4 17.0 -121.5 M37.6 -114.1 L38.2 -114.65 39.3 -114.55 45.55 -114.3 45.75 -114.2 45.85 -113.55 45.85 -113.45 Q45.85 -112.5 45.35 -111.1 44.85 -109.75 44.95 -108.9 L44.95 -106.75 44.95 -104.65 44.95 -46.3 45.2 -46.35 44.95 -45.0 44.95 -44.8 44.0 -44.45 39.45 -44.45 38.8 -44.05 Q38.0 -46.0 37.8 -48.6 L37.65 -52.1 37.45 -52.1 37.4 -52.25 37.3 -52.95 Q37.3 -53.25 37.6 -53.35 L37.3 -62.15 Q37.9 -79.7 37.9 -88.6 L37.9 -101.8 37.85 -105.1 Q37.8 -107.1 37.9 -108.5 L37.7 -112.05 Q37.7 -112.95 37.95 -113.45 L37.6 -114.1 M43.7 -87.0 L43.6 -91.5 43.7 -99.3 43.5 -107.25 Q43.5 -110.7 44.35 -112.75 L39.05 -112.75 39.1 -102.75 39.1 -93.4 39.2 -87.1 39.1 -77.7 39.1 -77.6 38.75 -67.45 38.5 -62.2 38.55 -55.4 38.7 -53.55 43.45 -53.65 43.55 -62.35 43.6 -68.85 43.7 -83.75 43.7 -87.0 M3.15 -48.7 L3.35 -49.85 3.0 -49.85 1.15 -49.8 0.75 -49.8 0.55 -49.8 0.55 -49.75 0.65 -47.25 0.95 -43.85 0.95 -41.75 0.3 -41.35 Q-0.4 -42.35 -0.55 -44.0 L-0.6 -46.95 -0.8 -48.1 -0.85 -48.8 -0.8 -49.35 -0.75 -49.5 -0.75 -49.6 -0.7 -49.6 -0.6 -49.8 -0.75 -49.8 -1.9 -49.85 -1.8 -46.45 -1.5 -41.7 -1.95 -41.1 Q-2.05 -41.0 -2.15 -41.0 -3.1 -42.2 -3.3 -45.5 L-3.35 -49.95 -4.6 -50.0 -4.6 -46.3 -4.6 -42.15 -5.2 -41.75 Q-5.7 -42.85 -5.75 -44.3 L-5.8 -46.9 -5.9 -50.0 -5.9 -50.15 -6.95 -50.25 -8.4 -50.5 Q-8.25 -49.45 -8.25 -47.8 -8.3 -44.5 -7.65 -43.05 L-7.8 -42.35 Q-7.9 -42.15 -8.4 -42.15 L-9.0 -42.35 -9.45 -48.6 -9.45 -50.6 -9.4 -50.7 -9.5 -50.7 -10.2 -50.85 -11.35 -51.1 -11.5 -51.1 -11.45 -51.05 -11.4 -50.65 -11.35 -49.6 -11.35 -48.2 Q-11.4 -45.0 -10.4 -43.45 L-10.55 -42.85 Q-10.25 -42.5 -11.0 -42.5 L-11.1 -42.5 -11.25 -42.5 -11.5 -42.65 -11.55 -42.65 -12.35 -44.6 -12.4 -44.65 -12.4 -44.75 -12.45 -44.8 -12.45 -44.9 -12.45 -45.15 -12.5 -45.65 -12.5 -48.95 -12.5 -51.0 -12.45 -51.3 -13.75 -51.55 -15.6 -51.8 -17.3 -51.9 -17.85 -51.9 -18.1 -51.9 Q-17.85 -51.4 -17.9 -51.1 L-18.0 -50.0 -18.0 -47.45 -17.85 -45.15 -17.4 -42.5 -18.0 -41.75 Q-19.4 -42.35 -19.25 -44.8 L-19.25 -47.8 -19.2 -50.5 -18.9 -51.9 -20.15 -51.75 -21.15 -51.6 -20.75 -47.55 -20.45 -43.85 -20.55 -43.25 -20.6 -43.25 Q-20.3 -42.9 -21.1 -42.9 -22.1 -42.9 -22.15 -45.1 L-22.0 -47.7 -22.4 -50.2 -22.55 -51.35 -23.5 -51.1 -23.6 -51.05 -23.5 -46.25 -23.2 -40.95 -23.35 -40.45 Q-23.5 -40.2 -24.0 -40.2 L-24.45 -40.35 -24.75 -40.4 -24.85 -45.3 -24.9 -46.65 -25.0 -50.5 -25.2 -50.45 -25.75 -50.15 -26.55 -49.7 -27.45 -48.95 Q-26.8 -47.7 -26.85 -44.75 -26.9 -41.25 -26.6 -40.2 L-27.2 -39.45 -27.5 -40.0 -28.05 -42.0 -28.1 -44.6 -28.1 -46.8 -27.7 -48.7 Q-28.85 -47.7 -29.35 -47.55 L-29.25 -44.05 -28.4 -37.3 -27.5 -37.45 Q-26.45 -37.7 -26.05 -38.05 L-25.95 -38.1 -25.65 -38.4 -24.45 -39.05 -22.1 -39.65 -21.95 -39.7 -20.3 -40.05 -19.05 -40.05 -16.55 -40.05 -14.2 -40.05 -10.8 -40.1 -9.6 -40.15 -7.65 -40.15 -7.55 -40.15 -5.5 -40.2 -4.25 -40.2 -2.45 -40.2 -1.8 -40.2 -1.05 -40.2 -0.05 -40.2 1.15 -40.2 2.65 -40.15 3.75 -40.15 4.15 -40.15 5.25 -40.1 6.75 -40.1 6.9 -40.1 9.0 -40.05 9.8 -40.05 13.5 -39.95 13.65 -39.95 14.0 -39.95 15.75 -39.85 16.5 -39.85 16.65 -39.75 17.1 -39.45 18.05 -38.7 Q18.9 -38.2 18.75 -37.65 L18.8 -37.65 19.1 -37.55 19.15 -37.55 20.9 -37.4 21.25 -37.4 21.7 -37.4 21.7 -37.35 22.4 -37.35 23.85 -37.35 23.95 -37.35 24.1 -37.35 26.5 -37.5 26.95 -37.55 28.3 -37.7 33.0 -38.3 34.3 -38.3 34.7 -38.3 Q34.35 -41.95 33.6 -44.2 33.2 -45.55 32.9 -47.7 L32.7 -49.55 32.35 -49.45 31.8 -49.45 31.35 -49.45 32.15 -46.65 33.3 -41.9 33.3 -39.6 33.1 -39.4 32.7 -39.05 Q32.1 -40.05 31.75 -41.55 L31.2 -44.2 30.55 -46.8 Q30.25 -48.3 30.25 -49.1 L30.3 -49.3 30.3 -49.45 29.5 -49.5 28.5 -49.6 28.9 -46.65 29.35 -41.9 29.2 -41.2 28.6 -41.0 28.0 -41.2 27.5 -48.3 27.5 -49.45 27.55 -49.75 27.35 -49.75 25.6 -50.1 25.35 -50.15 25.45 -49.15 25.35 -46.35 25.75 -43.35 26.0 -40.95 26.0 -40.2 25.85 -39.8 25.35 -39.45 Q24.45 -41.05 24.2 -43.85 L24.15 -48.3 24.2 -50.2 24.2 -50.45 23.65 -50.65 23.55 -50.65 22.95 -50.85 22.95 -47.0 23.25 -43.15 23.55 -39.45 23.55 -39.35 23.4 -38.65 23.45 -38.45 Q23.4 -38.3 22.95 -38.3 22.25 -38.3 21.9 -42.75 L21.7 -47.3 Q21.4 -48.6 21.4 -49.65 L21.4 -49.85 21.4 -49.95 21.5 -50.45 21.6 -50.7 21.7 -50.9 21.85 -51.15 21.65 -51.2 19.3 -51.65 19.15 -51.65 17.2 -51.9 15.95 -51.9 Q16.35 -50.45 16.4 -48.15 L16.5 -42.65 16.3 -42.5 16.3 -42.45 15.9 -42.15 15.7 -42.35 15.7 -42.4 15.45 -42.85 15.1 -44.55 15.05 -45.1 15.0 -48.45 15.0 -50.7 15.2 -51.9 14.05 -51.9 12.8 -51.8 12.85 -49.45 13.15 -45.15 13.15 -43.25 13.15 -42.5 12.55 -42.15 Q11.9 -43.75 11.7 -46.0 L11.6 -49.45 11.45 -51.6 10.0 -51.3 8.85 -50.85 Q8.75 -50.75 8.65 -50.75 L8.85 -48.0 Q8.8 -45.45 9.5 -44.05 L9.1 -43.6 8.65 -43.3 8.55 -43.3 Q7.85 -44.65 7.7 -46.1 L7.65 -48.6 7.7 -50.4 6.35 -50.1 6.65 -48.1 6.75 -44.0 6.75 -43.3 6.6 -42.85 Q6.45 -42.65 6.1 -42.5 5.45 -43.35 5.25 -45.15 L5.2 -47.8 5.25 -49.85 5.25 -50.0 5.2 -50.0 4.6 -49.95 4.6 -49.8 4.45 -46.4 4.3 -41.5 4.0 -41.2 3.7 -41.0 Q3.2 -41.7 3.1 -43.15 L3.05 -45.85 3.15 -48.6 3.15 -48.7 M19.25 -49.55 L19.3 -49.15 19.45 -47.0 19.55 -46.05 19.65 -44.9 19.75 -43.95 19.85 -42.65 19.25 -42.15 19.2 -42.2 Q18.15 -43.95 18.05 -46.7 L17.75 -51.3 19.15 -51.55 19.25 -49.55 M39.45 -45.8 L43.7 -46.15 43.4 -48.75 43.4 -52.1 38.85 -52.1 39.45 -48.8 39.45 -45.8 M-42.15 -113.15 Q-42.15 -114.05 -41.7 -114.25 L-41.55 -114.3 -41.55 -114.25 -39.7 -114.5 -39.1 -114.65 -34.8 -114.7 -34.65 -114.55 -34.55 -114.4 -34.35 -114.5 Q-34.25 -109.2 -34.3 -80.45 -34.3 -59.55 -33.6 -46.3 L-33.75 -45.8 Q-33.85 -45.65 -34.2 -45.6 L-38.2 -45.6 -41.35 -46.55 -41.55 -47.45 -41.15 -47.6 -41.25 -48.35 -41.1 -49.1 -40.95 -49.6 -40.95 -51.9 Q-40.65 -53.25 -40.65 -56.65 -41.55 -78.7 -41.55 -84.95 L-41.55 -106.25 -41.85 -110.2 -42.15 -113.15 M-35.45 -94.0 L-35.45 -100.8 -35.55 -104.45 -35.45 -108.3 -35.6 -111.95 -35.5 -113.15 -37.6 -113.55 -40.35 -112.4 -41.1 -112.4 Q-40.55 -109.9 -40.3 -106.95 -40.05 -103.8 -40.1 -100.05 L-40.35 -85.65 -40.3 -84.2 -40.05 -76.55 -39.85 -69.7 -39.85 -69.6 -39.85 -69.5 -39.4 -56.9 -39.45 -54.65 -38.7 -54.6 -35.5 -54.15 -35.25 -54.1 -35.4 -69.2 -35.4 -70.4 -35.45 -85.85 -35.45 -94.0 M-39.55 -53.4 L-39.8 -47.75 -35.15 -47.3 -35.25 -52.5 -38.2 -52.5 -39.55 -53.4 M-15.6 -51.75 Q-15.05 -50.7 -14.9 -48.45 -14.8 -46.05 -14.35 -45.0 L-14.5 -44.3 Q-14.65 -44.05 -15.1 -44.05 L-15.7 -44.25 -16.2 -49.05 -16.2 -50.15 Q-16.15 -51.3 -15.6 -51.75" fill="#000000" fill-rule="evenodd" stroke="none"/>
    <path d="M18.55 -119.85 L19.5 -119.8 20.2 -119.8 25.85 -119.5 25.9 -119.5 Q26.7 -119.0 29.95 -118.85 L30.3 -117.9 30.55 -117.5 30.55 -116.75 30.7 -113.7 30.3 -113.5 Q30.05 -113.4 29.7 -114.25 28.85 -116.5 25.85 -114.85 L25.35 -114.6 24.9 -114.6 20.2 -114.65 Q19.4 -114.1 19.3 -113.6 L14.85 -114.05 Q6.25 -113.7 5.85 -112.8 5.5 -112.0 -1.05 -112.0 -5.55 -112.0 -7.9 -112.85 L-19.35 -113.7 -19.6 -114.05 -19.75 -114.15 -19.9 -114.25 -20.05 -114.35 -25.05 -114.65 Q-27.6 -114.4 -28.25 -112.95 L-30.4 -112.75 -31.3 -112.95 -31.4 -113.6 -31.4 -113.65 -31.2 -115.05 -31.2 -115.15 -31.15 -115.25 -31.15 -115.3 -30.85 -116.35 -30.25 -117.75 -30.25 -118.1 Q-29.65 -118.85 -29.0 -118.9 -11.9 -119.65 16.9 -119.85 L18.55 -119.85 M31.75 -68.15 L31.35 -69.0 Q30.75 -70.3 30.6 -71.45 L29.7 -74.1 28.75 -76.65 Q28.05 -78.75 27.75 -81.9 L27.1 -87.0 Q25.7 -94.55 24.65 -97.6 21.4 -106.7 21.4 -107.9 21.4 -111.05 22.95 -108.2 L25.85 -101.4 29.75 -96.0 29.7 -95.7 29.65 -92.75 29.65 -92.55 Q29.65 -89.25 30.3 -86.3 31.2 -82.55 31.5 -78.75 L31.75 -71.85 31.75 -68.15 M10.1 -53.1 L8.85 -52.6 8.8 -52.6 Q7.0 -51.55 0.95 -51.55 1.1 -54.9 3.25 -58.85 5.35 -62.65 7.95 -64.8 8.8 -63.75 9.0 -61.35 L9.35 -57.45 10.0 -53.65 10.1 -53.1 M-2.2 -51.6 L-4.65 -51.75 -4.7 -51.9 -5.15 -51.8 -11.0 -52.65 -12.05 -54.75 -14.3 -60.5 Q-15.2 -63.25 -16.95 -66.1 -18.9 -69.25 -21.5 -71.7 L-21.9 -72.05 -17.3 -69.3 -15.95 -71.75 -15.85 -71.9 -9.45 -64.35 Q-1.85 -54.9 -1.85 -52.25 -1.85 -51.85 -2.2 -51.6 M-27.5 -79.7 L-27.55 -79.75 -27.55 -81.0 -27.95 -84.0 -28.0 -84.15 -28.0 -84.2 -30.25 -92.4 -30.3 -92.55 -30.65 -94.15 -30.85 -95.05 Q-30.1 -94.6 -28.8 -92.85 L-24.75 -86.45 -21.25 -79.95 -19.6 -76.95 -22.0 -72.1 -24.6 -74.45 Q-26.7 -76.35 -27.0 -77.45 L-27.5 -79.7 M39.1 -102.75 L39.05 -112.75 44.35 -112.75 Q43.5 -110.7 43.5 -107.25 L43.7 -99.3 43.6 -91.5 43.7 -87.0 42.9 -88.75 41.6 -92.25 Q40.7 -93.7 40.35 -95.3 L40.05 -98.35 39.1 -102.75 M43.6 -68.85 L43.55 -62.35 43.1 -62.1 Q41.25 -62.1 39.55 -65.6 L38.75 -67.45 39.1 -77.6 39.1 -77.7 40.65 -75.0 43.6 -68.85 M-40.3 -106.95 Q-40.55 -109.9 -41.1 -112.4 L-40.35 -112.4 -37.6 -113.55 -35.5 -113.15 -35.6 -111.95 -35.45 -108.3 -35.55 -104.45 -35.45 -100.8 -35.45 -94.0 Q-36.55 -94.45 -37.45 -98.0 L-39.1 -104.3 -40.3 -106.95 M-35.4 -69.2 L-35.25 -54.1 -35.5 -54.15 -35.75 -55.35 -36.7 -58.8 -37.75 -62.85 -39.8 -69.35 -39.85 -69.5 -39.85 -69.6 -39.85 -69.7 -40.05 -76.55 -40.3 -84.2 Q-39.95 -83.45 -39.7 -82.2 L-37.7 -75.55 -35.4 -69.2" fill="#731c02" fill-rule="evenodd" stroke="none"/>
    <path d="M-28.25 -112.95 Q-27.6 -114.4 -25.05 -114.65 L-20.05 -114.35 -19.9 -114.25 -19.75 -114.15 -19.6 -114.05 -19.35 -113.7 -19.25 -113.05 Q-19.25 -112.65 -19.4 -112.4 -23.15 -111.25 -27.8 -111.25 L-28.65 -111.25 -28.4 -112.55 -28.25 -112.95 M19.3 -113.6 Q19.4 -114.1 20.2 -114.65 L24.9 -114.6 25.35 -114.6 25.55 -114.6 Q25.2 -113.95 23.9 -113.15 21.95 -112.05 19.85 -112.0 L19.75 -112.05 19.7 -112.1 Q19.3 -112.5 19.25 -113.0 L19.25 -113.45 19.3 -113.6 M3.15 -48.7 L3.15 -48.6 3.05 -45.85 3.1 -43.15 Q3.2 -41.7 3.7 -41.0 L4.0 -41.2 4.15 -40.15 3.75 -40.15 2.65 -40.15 2.0 -40.2 1.25 -46.75 1.15 -40.2 -0.05 -40.2 -1.05 -40.2 -0.8 -48.1 -0.6 -46.95 -0.55 -44.0 Q-0.4 -42.35 0.3 -41.35 L0.95 -41.75 0.95 -43.85 0.65 -47.25 0.55 -49.75 0.75 -49.8 1.15 -49.8 3.0 -49.85 3.15 -48.8 3.15 -48.7 M5.2 -50.0 L5.25 -50.0 5.25 -49.85 5.2 -47.8 5.25 -45.15 Q5.45 -43.35 6.1 -42.5 6.45 -42.65 6.6 -42.85 L6.75 -43.3 6.75 -44.0 6.65 -48.1 6.35 -50.1 7.7 -50.4 7.65 -48.6 7.7 -46.1 Q7.85 -44.65 8.55 -43.3 L8.65 -43.3 9.0 -40.05 6.9 -40.1 6.75 -41.0 6.75 -40.1 5.25 -40.1 4.8 -40.15 5.15 -49.95 5.2 -50.0 M10.0 -51.3 L11.45 -51.6 11.6 -49.45 11.7 -46.0 Q11.9 -43.75 12.55 -42.15 L13.15 -42.5 13.15 -43.25 13.5 -39.95 9.8 -40.05 10.0 -51.3 M14.05 -51.9 L15.2 -51.9 15.0 -50.7 15.0 -48.45 15.05 -45.1 15.1 -44.55 15.45 -42.85 15.7 -42.4 15.7 -42.35 15.75 -39.85 14.0 -39.95 13.65 -39.95 13.8 -47.3 14.05 -51.9 M16.3 -42.45 L16.3 -42.5 16.5 -42.65 16.4 -48.15 Q16.35 -50.45 15.95 -51.9 L17.2 -51.9 17.6 -47.3 19.1 -37.55 18.8 -37.65 18.75 -37.65 Q18.9 -38.2 18.05 -38.7 L17.1 -39.45 16.65 -39.75 16.3 -42.45 M19.3 -51.65 L21.65 -51.2 21.7 -50.9 21.6 -50.7 21.5 -50.45 21.4 -49.95 21.4 -49.85 21.4 -49.65 Q21.4 -48.6 21.7 -47.3 L21.9 -42.75 Q22.25 -38.3 22.95 -38.3 23.4 -38.3 23.45 -38.45 L23.4 -38.65 23.55 -39.35 23.55 -39.45 23.55 -39.8 23.55 -50.65 23.65 -50.65 24.2 -50.45 24.2 -50.2 24.15 -48.3 24.2 -43.85 Q24.45 -41.05 25.35 -39.45 L25.85 -39.8 26.0 -40.2 26.0 -40.95 25.75 -43.35 25.35 -46.35 25.45 -49.15 25.35 -50.15 25.6 -50.1 25.55 -46.55 26.5 -37.5 24.1 -37.35 23.95 -37.35 23.85 -37.35 22.4 -37.35 21.7 -37.35 21.7 -37.4 21.15 -42.3 21.1 -42.5 21.25 -37.4 20.9 -37.4 19.15 -37.55 19.2 -42.2 19.25 -42.15 19.85 -42.65 19.75 -43.95 19.65 -44.9 19.55 -46.05 19.45 -47.0 19.3 -49.15 19.25 -49.55 19.3 -51.65 M27.35 -49.75 L27.55 -49.75 27.5 -49.45 27.5 -48.3 28.0 -41.2 28.6 -41.0 29.2 -41.2 29.35 -41.9 28.9 -46.65 28.5 -49.6 29.5 -49.5 30.45 -38.3 30.55 -46.8 31.2 -44.2 31.75 -41.55 Q32.1 -40.05 32.7 -39.05 L33.1 -39.4 33.3 -39.6 33.3 -41.9 32.15 -46.65 31.35 -49.45 31.8 -49.45 32.35 -49.45 Q32.5 -47.2 32.95 -44.65 L34.3 -38.3 33.0 -38.3 28.3 -37.7 26.95 -37.55 27.35 -49.75 M-1.8 -40.2 L-2.45 -40.2 -4.25 -40.2 -4.4 -43.35 -4.6 -46.3 -4.6 -50.0 -3.35 -49.95 -3.3 -45.5 Q-3.1 -42.2 -2.15 -41.0 -2.05 -41.0 -1.95 -41.1 L-1.8 -40.2 M-5.5 -40.2 L-7.55 -40.15 -7.6 -40.4 -7.65 -40.4 -7.65 -40.15 -9.6 -40.15 -9.6 -46.7 -9.5 -50.7 -9.4 -50.7 -9.45 -50.6 -9.45 -48.6 -9.0 -42.35 -8.4 -42.15 Q-7.9 -42.15 -7.8 -42.35 L-7.65 -43.05 Q-8.3 -44.5 -8.25 -47.8 -8.25 -49.45 -8.4 -50.5 L-6.95 -50.25 -6.45 -46.75 -5.5 -40.2 M-10.8 -40.1 L-14.2 -40.05 -13.9 -42.7 Q-13.75 -44.45 -13.75 -51.55 L-12.45 -51.3 -12.5 -51.0 -12.5 -48.95 -12.5 -45.65 -12.45 -45.15 -12.45 -44.9 -12.45 -44.8 -12.4 -44.75 -12.4 -44.65 -12.35 -44.6 -11.55 -42.65 -11.5 -42.65 -11.25 -42.5 -11.1 -42.5 -10.8 -40.1 M-16.55 -40.05 L-19.05 -40.05 -19.55 -44.9 -20.15 -50.85 -20.15 -51.75 -18.9 -51.9 -19.2 -50.5 -19.25 -47.8 -19.25 -44.8 Q-19.4 -42.35 -18.0 -41.75 L-17.4 -42.5 -17.85 -45.15 -18.0 -47.45 -18.0 -50.0 -17.9 -51.1 Q-17.85 -51.4 -18.1 -51.9 L-17.85 -51.9 -17.4 -48.05 -16.55 -40.05 M-21.95 -39.7 L-22.1 -39.65 -24.45 -39.05 -24.45 -40.35 -24.0 -40.2 Q-23.5 -40.2 -23.35 -40.45 L-23.2 -40.95 -23.5 -46.25 -23.6 -51.05 -23.5 -51.1 -22.95 -46.6 -21.95 -39.7 M-25.65 -38.4 L-25.95 -38.1 -26.05 -38.05 Q-26.45 -37.7 -27.5 -37.45 L-27.5 -40.0 -27.2 -39.45 -26.6 -40.2 Q-26.9 -41.25 -26.85 -44.75 -26.8 -47.7 -27.45 -48.95 L-26.55 -49.7 -25.75 -50.15 -25.8 -42.2 -25.65 -38.4 M-25.2 -50.45 L-25.0 -50.5 -24.9 -46.65 -24.85 -45.3 -24.9 -45.55 Q-25.35 -47.9 -25.35 -50.35 L-25.2 -50.45 M-11.35 -49.6 L-11.4 -50.65 -11.45 -51.05 -11.5 -51.1 -11.35 -51.1 -11.35 -49.6 M-19.45 -77.2 L-18.35 -75.6 -15.95 -71.75 -17.3 -69.3 -21.9 -72.05 -22.05 -72.1 -22.0 -72.1 -19.6 -76.95 -19.45 -77.2" fill="#8e6c24" fill-rule="evenodd" stroke="none"/>
    <path d="M19.85 -112.0 Q21.95 -112.05 23.9 -113.15 25.2 -113.95 25.55 -114.6 L27.05 -114.5 27.65 -113.7 27.8 -110.45 27.75 -107.35 Q27.4 -105.3 26.3 -103.95 25.3 -105.2 25.3 -107.9 L25.35 -111.95 Q21.25 -111.0 19.85 -112.0 M9.3 -98.95 L14.7 -98.85 14.6 -69.4 9.2 -69.4 8.95 -77.05 9.3 -98.9 9.3 -98.95 M18.25 -98.95 L23.65 -98.85 23.55 -69.4 18.2 -69.4 17.9 -77.05 18.25 -98.95 M3.0 -49.85 L3.35 -49.85 3.15 -48.7 3.15 -48.8 3.0 -49.85 M4.0 -41.2 L4.3 -41.5 4.45 -46.4 4.6 -49.8 4.6 -49.95 5.2 -50.0 5.15 -49.95 4.8 -40.15 5.25 -40.1 4.15 -40.15 4.0 -41.2 M8.65 -43.3 L9.1 -43.6 9.5 -44.05 Q8.8 -45.45 8.85 -48.0 L8.65 -50.75 Q8.75 -50.75 8.85 -50.85 L10.0 -51.3 9.8 -40.05 9.0 -40.05 8.65 -43.3 M13.15 -43.25 L13.15 -45.15 12.85 -49.45 12.8 -51.8 14.05 -51.9 13.8 -47.3 13.65 -39.95 13.5 -39.95 13.15 -43.25 M15.7 -42.35 L15.9 -42.15 16.3 -42.45 16.65 -39.75 16.5 -39.85 15.75 -39.85 15.7 -42.35 M17.2 -51.9 L19.15 -51.65 19.3 -51.65 19.25 -49.55 19.15 -51.55 17.75 -51.3 18.05 -46.7 Q18.15 -43.95 19.2 -42.2 L19.15 -37.55 19.1 -37.55 17.6 -47.3 17.2 -51.9 M21.65 -51.2 L21.85 -51.15 21.7 -50.9 21.65 -51.2 M23.55 -39.45 L23.25 -43.15 22.95 -47.0 22.95 -50.85 23.55 -50.65 23.55 -39.8 23.55 -39.45 M25.6 -50.1 L27.35 -49.75 26.95 -37.55 26.5 -37.5 25.55 -46.55 25.6 -50.1 M29.5 -49.5 L30.3 -49.45 30.3 -49.3 30.25 -49.1 Q30.25 -48.3 30.55 -46.8 L30.45 -38.3 29.5 -49.5 M32.35 -49.45 L32.7 -49.55 32.9 -47.7 Q33.2 -45.55 33.6 -44.2 34.35 -41.95 34.7 -38.3 L34.3 -38.3 32.95 -44.65 Q32.5 -47.2 32.35 -49.45 M21.7 -37.4 L21.25 -37.4 21.1 -42.5 21.15 -42.3 21.7 -37.4 M6.9 -40.1 L6.75 -40.1 6.75 -41.0 6.9 -40.1 M2.65 -40.15 L1.15 -40.2 1.25 -46.75 2.0 -40.2 2.65 -40.15 M-1.05 -40.2 L-1.8 -40.2 -1.95 -41.1 -1.5 -41.7 -1.8 -46.45 -1.9 -49.85 -0.75 -49.8 -0.8 -49.35 -0.85 -48.8 -0.8 -48.1 -1.05 -40.2 M-4.25 -40.2 L-5.5 -40.2 -6.45 -46.75 -6.95 -50.25 -5.9 -50.15 -5.9 -50.0 -5.8 -46.9 -5.75 -44.3 Q-5.7 -42.85 -5.2 -41.75 L-4.6 -42.15 -4.6 -46.3 -4.4 -43.35 -4.25 -40.2 M-7.55 -40.15 L-7.65 -40.15 -7.65 -40.4 -7.6 -40.4 -7.55 -40.15 M-9.6 -40.15 L-10.8 -40.1 -11.1 -42.5 -11.0 -42.5 Q-10.25 -42.5 -10.55 -42.85 L-10.4 -43.45 Q-11.4 -45.0 -11.35 -48.2 L-11.35 -49.6 -11.35 -51.1 -10.2 -50.85 -9.5 -50.7 -9.6 -46.7 -9.6 -40.15 M-14.2 -40.05 L-16.55 -40.05 -17.4 -48.05 -17.85 -51.9 -17.3 -51.9 -15.6 -51.8 -13.75 -51.55 Q-13.75 -44.45 -13.9 -42.7 L-14.2 -40.05 M-19.05 -40.05 L-20.3 -40.05 -21.95 -39.7 -22.95 -46.6 -23.5 -51.1 -22.55 -51.35 -22.4 -50.2 -22.0 -47.7 -22.15 -45.1 Q-22.1 -42.9 -21.1 -42.9 -20.3 -42.9 -20.6 -43.25 L-20.55 -43.25 -20.45 -43.85 -20.75 -47.55 -21.15 -51.6 -20.15 -51.75 -20.15 -50.85 -19.55 -44.9 -19.05 -40.05 M-24.45 -39.05 L-25.65 -38.4 -25.8 -42.2 -25.75 -50.15 -25.2 -50.45 -25.35 -50.35 Q-25.35 -47.9 -24.9 -45.55 L-24.85 -45.3 -24.75 -40.4 -24.45 -40.35 -24.45 -39.05 M-27.5 -37.45 L-28.4 -37.3 -29.25 -44.05 -29.35 -47.55 Q-28.85 -47.7 -27.7 -48.7 L-28.1 -46.8 -28.1 -44.6 -28.05 -42.0 -27.5 -40.0 -27.5 -37.45 M28.3 -64.8 Q28.35 -63.9 28.75 -61.95 L28.8 -61.55 28.9 -60.95 29.35 -57.4 29.25 -55.7 Q28.9 -54.8 27.5 -54.8 L21.7 -55.55 Q20.8 -55.75 20.8 -56.65 L20.9 -57.2 21.45 -58.15 26.0 -58.25 26.4 -61.75 Q26.45 -62.5 26.65 -63.1 L26.7 -64.7 Q27.05 -66.25 28.3 -64.8 M4.75 -69.4 L-0.65 -69.4 -0.95 -77.05 -0.7 -92.2 -0.65 -95.7 -0.6 -98.95 4.8 -98.85 4.75 -69.4 M39.45 -45.8 L39.45 -48.8 38.85 -52.1 43.4 -52.1 43.4 -48.75 43.7 -46.15 39.45 -45.8 M-28.65 -111.25 L-27.8 -111.25 Q-23.15 -111.25 -19.4 -112.4 -19.55 -112.1 -19.85 -111.95 -21.25 -111.25 -25.95 -111.05 L-25.75 -105.75 Q-25.8 -102.8 -27.2 -102.8 -28.5 -102.8 -28.7 -105.1 L-28.7 -107.7 -28.7 -109.9 -28.65 -111.25 M-19.45 -77.2 L-18.55 -78.95 -16.3 -82.95 -15.9 -83.6 -16.3 -84.25 -18.95 -89.4 -19.3 -90.15 -19.45 -90.2 -22.05 -95.1 -17.3 -97.8 -12.6 -89.45 -12.6 -89.4 -12.5 -89.4 -10.8 -92.4 -8.3 -96.7 -7.7 -97.7 -7.7 -97.8 -3.25 -94.85 -9.45 -83.6 -3.15 -72.25 -7.85 -69.4 -11.75 -75.95 -12.7 -77.55 -15.85 -71.9 -15.95 -71.75 -18.35 -75.6 -19.45 -77.2 M-25.35 -67.1 Q-24.1 -65.8 -24.3 -63.25 L-24.75 -58.85 -19.75 -58.2 Q-19.25 -57.95 -19.25 -57.35 L-19.35 -56.65 -19.5 -56.5 -20.45 -56.3 -24.55 -55.75 -25.35 -55.25 -26.1 -54.8 -27.05 -55.0 -27.2 -59.8 -27.05 -64.5 Q-26.7 -68.35 -25.35 -67.1 M-39.55 -53.4 L-38.2 -52.5 -35.25 -52.5 -35.15 -47.3 -39.8 -47.75 -39.55 -53.4 M-15.6 -51.75 Q-16.15 -51.3 -16.2 -50.15 L-16.2 -49.05 -15.7 -44.25 -15.1 -44.05 Q-14.65 -44.05 -14.5 -44.3 L-14.35 -45.0 Q-14.8 -46.05 -14.9 -48.45 -15.05 -50.7 -15.6 -51.75" fill="#cc9d3c" fill-rule="evenodd" stroke="none"/>
  </g>
</svg>
