<?xml version="1.0" encoding="UTF-8" standalone="no"?>
<svg xmlns:ffdec="https://www.free-decompiler.com/flash" xmlns:xlink="http://www.w3.org/1999/xlink" ffdec:objectType="shape" height="75.7px" width="177.4px" xmlns="http://www.w3.org/2000/svg">
  <g transform="matrix(1.0, 0.0, 0.0, 1.0, 77.8, 48.35)">
    <path d="M40.15 -43.95 Q42.1 -43.6 42.45 -42.55 L42.65 -42.55 42.6 -42.6 41.5 -44.7 40.2 -47.6 40.5 -48.2 41.4 -48.35 43.15 -46.9 Q45.0 -45.15 49.65 -43.6 L55.75 -43.15 55.35 -45.65 55.5 -46.5 55.85 -46.9 Q55.4 -47.0 56.5 -46.95 L57.6 -45.85 61.5 -42.95 65.15 -39.75 Q67.8 -38.95 69.3 -38.05 L70.65 -36.9 70.45 -39.9 Q69.95 -40.8 69.95 -41.1 L70.15 -41.65 71.0 -41.85 Q72.55 -41.8 75.7 -38.4 L80.0 -33.3 Q81.0 -32.2 82.75 -32.05 84.25 -31.85 84.8 -30.7 L86.2 -28.15 88.0 -24.75 88.2 -23.25 88.3 -24.85 Q88.45 -26.95 88.9 -27.65 L89.65 -27.85 Q91.1 -27.8 92.2 -23.85 93.35 -19.7 92.35 -14.0 L93.55 -14.75 96.65 -17.5 96.5 -17.5 97.15 -17.55 Q98.5 -17.5 99.15 -14.4 99.8 -11.5 99.5 -7.35 98.85 2.9 95.0 4.7 94.3 5.25 92.5 7.8 90.85 10.15 89.65 10.95 87.5 12.4 86.65 12.6 L84.2 12.5 81.9 12.2 78.9 11.9 78.65 11.55 Q77.15 12.25 76.75 12.65 L74.9 14.6 74.0 15.45 73.55 17.85 73.65 19.45 73.4 21.8 Q72.95 22.65 70.95 23.7 68.1 25.2 63.7 24.75 58.6 24.2 56.9 24.6 54.6 25.15 50.3 24.6 46.6 24.2 42.9 25.45 L40.25 25.35 40.05 25.15 38.55 25.5 26.8 26.25 Q22.2 26.05 19.6 24.5 L19.4 24.55 16.3 25.05 15.6 25.3 14.4 25.7 13.35 26.15 8.45 26.3 5.7 26.25 3.6 26.25 2.45 26.2 1.35 26.15 0.35 26.1 -3.4 25.9 -7.0 25.5 -10.65 25.1 -11.3 24.65 Q-14.5 25.95 -16.45 25.85 L-18.65 25.5 Q-18.55 24.0 -18.1 23.3 -23.5 22.4 -31.65 24.75 -35.7 26.0 -38.75 27.35 L-39.8 27.1 -40.2 26.6 Q-40.2 25.6 -39.75 25.55 -54.85 25.6 -56.55 25.2 -57.15 25.1 -57.35 24.7 -57.6 24.15 -58.65 23.75 L-60.85 22.7 -61.3 22.45 Q-63.2 23.3 -68.05 23.05 -72.45 22.85 -75.45 20.25 -77.85 18.05 -77.8 16.4 -77.6 11.55 -73.35 7.75 -68.75 3.6 -61.25 2.8 L-63.45 -2.2 Q-63.4 -3.05 -62.8 -3.1 -60.75 -3.35 -57.85 -4.5 L-58.5 -4.8 Q-58.8 -5.1 -58.75 -5.9 -58.7 -8.0 -49.95 -9.6 L-35.6 -11.15 -33.25 -13.4 Q-32.5 -14.0 -31.1 -16.15 L-28.7 -19.55 Q-30.75 -19.45 -32.3 -18.75 -34.4 -17.85 -35.75 -17.55 L-36.75 -18.2 Q-34.2 -21.7 -29.55 -23.9 -24.7 -26.2 -15.8 -28.15 L-14.85 -28.35 Q-15.9 -29.0 -18.05 -29.85 -19.65 -30.6 -19.6 -32.05 L-19.6 -32.65 -17.95 -33.0 1.3 -33.15 -1.9 -34.55 Q-3.95 -35.3 -4.95 -36.25 -4.9 -37.0 -4.45 -37.4 L1.15 -37.4 6.05 -36.75 11.2 -35.7 12.45 -35.65 11.1 -36.55 Q13.4 -38.8 17.7 -37.25 19.35 -36.7 22.6 -34.7 L25.05 -32.35 Q26.8 -30.6 27.25 -29.1 L27.15 -28.9 Q28.55 -27.95 30.1 -27.3 30.75 -27.25 30.8 -27.65 31.0 -30.9 29.65 -32.05 L26.8 -33.7 26.65 -34.25 Q27.8 -35.0 31.15 -34.85 L36.0 -34.25 Q35.5 -36.2 33.05 -37.15 L29.3 -38.4 29.15 -38.4 29.05 -39.1 Q29.15 -40.75 31.9 -40.7 L36.1 -40.2 36.35 -40.3 36.25 -40.4 Q35.4 -41.1 34.3 -41.4 L31.4 -41.7 31.2 -41.85 31.0 -42.65 Q31.1 -44.15 34.3 -44.3 L37.6 -44.15 40.15 -43.95 M38.4 -37.9 L37.55 -38.55 34.2 -38.7 34.15 -38.6 36.55 -36.8 Q37.9 -35.55 38.25 -34.15 L38.2 -33.0 38.15 -31.65 38.05 -31.45 37.25 -31.4 35.95 -32.15 34.15 -33.05 33.95 -33.15 31.7 -33.25 Q31.65 -32.25 32.2 -30.3 L33.2 -27.45 33.4 -27.15 34.5 -25.85 35.15 -25.1 35.1 -25.15 35.2 -24.9 34.9 -24.2 34.85 -24.0 34.15 -23.95 Q33.25 -24.0 32.45 -24.65 L30.95 -25.55 30.75 -25.6 30.45 -25.7 29.5 -25.95 28.0 -26.4 27.8 -26.4 Q28.05 -24.5 29.15 -22.6 L29.15 -22.55 29.65 -21.55 30.05 -20.35 30.05 -20.25 30.05 -20.15 29.8 -19.25 29.85 -19.1 29.1 -19.0 Q29.0 -19.0 28.55 -19.25 L24.55 -22.6 Q25.0 -20.7 27.15 -16.0 L28.95 -12.15 29.2 -11.65 29.1 -11.2 28.95 -10.95 28.9 -10.75 28.15 -10.7 25.6 -12.4 25.6 -12.45 Q22.75 -14.35 19.9 -15.1 L19.7 -15.1 19.75 -15.0 22.35 -9.9 Q23.85 -6.75 24.9 -4.95 L25.75 -3.65 25.35 -3.2 25.2 -3.1 24.95 -3.0 24.9 -3.0 23.65 -2.95 23.2 -2.95 22.0 -3.25 20.55 -3.9 20.15 -3.9 20.2 -3.7 Q21.25 -1.1 23.8 0.0 L26.35 1.5 29.1 1.05 30.35 1.0 32.3 1.05 32.8 1.05 32.95 1.1 33.55 1.1 33.7 1.1 33.8 1.1 33.95 1.1 38.8 1.5 Q37.95 0.8 37.0 -0.65 35.85 -2.2 35.15 -3.65 L35.4 -4.15 36.3 -4.4 37.55 -4.1 37.85 -3.85 Q38.05 -3.7 38.45 -3.5 L38.7 -3.45 42.05 -3.35 42.3 -3.35 42.25 -3.4 40.0 -6.45 38.05 -9.45 Q38.45 -10.25 39.75 -10.2 40.6 -10.15 41.65 -9.45 43.3 -8.45 44.3 -8.0 L44.7 -8.05 44.65 -8.1 42.0 -11.85 Q40.35 -14.3 39.05 -15.3 L38.8 -15.75 39.95 -16.45 41.1 -16.45 43.45 -16.25 46.65 -14.8 46.8 -14.75 46.55 -15.3 46.05 -16.65 46.2 -19.55 46.3 -19.65 47.15 -19.8 Q47.7 -19.75 50.0 -18.1 L52.9 -15.9 53.45 -15.65 Q53.65 -15.5 54.05 -15.3 52.3 -17.75 52.4 -19.15 L52.4 -19.3 52.4 -19.5 52.4 -19.65 52.65 -22.1 52.7 -22.35 52.8 -22.7 52.85 -22.7 52.9 -23.0 53.15 -23.75 54.5 -25.85 54.6 -26.0 Q55.05 -26.4 55.6 -26.55 L58.45 -26.6 58.95 -26.4 62.15 -26.25 Q64.3 -25.95 65.65 -24.95 66.55 -24.3 67.8 -24.1 68.95 -23.85 69.2 -23.6 L69.65 -22.65 69.65 -22.6 69.75 -22.35 69.8 -22.15 70.0 -18.95 70.0 -16.7 70.0 -16.0 69.95 -15.7 69.95 -15.35 Q69.9 -14.05 70.5 -13.25 L70.95 -12.65 71.7 -12.8 Q72.65 -12.75 73.6 -11.8 L74.25 -11.1 74.95 -10.55 75.35 -10.25 76.4 -9.45 Q76.8 -10.45 77.7 -11.3 L78.5 -10.75 78.5 -10.7 78.75 -10.45 Q79.25 -9.8 79.55 -8.75 L80.2 -4.8 80.25 -4.6 80.25 -4.0 80.7 0.65 80.75 0.8 81.0 0.6 82.0 0.45 Q82.3 0.45 82.5 0.7 83.05 1.45 82.45 4.2 L81.9 6.85 81.65 7.55 81.3 8.9 82.05 9.2 Q81.35 9.7 81.2 10.55 L81.1 10.6 81.5 10.6 84.45 10.95 Q86.2 11.0 90.45 8.2 L90.4 7.45 89.5 7.6 89.25 7.6 89.05 7.55 87.55 7.35 87.4 7.3 Q87.15 7.1 87.05 6.7 87.6 6.2 89.6 5.6 91.7 4.95 92.8 4.0 L94.1 3.3 Q94.9 2.9 95.6 1.75 L96.6 -0.15 96.7 -1.6 96.85 -2.55 97.25 -5.35 97.5 -5.15 Q97.8 -4.95 97.8 -5.6 L97.8 -5.7 97.85 -5.8 97.85 -6.25 97.85 -6.35 97.85 -6.55 97.85 -6.65 97.85 -8.8 97.75 -10.1 97.4 -11.85 96.4 -14.4 95.0 -13.5 94.1 -13.05 91.6 -11.9 90.95 -12.1 90.6 -12.65 90.25 -12.45 90.4 -13.8 90.6 -17.2 90.6 -22.25 90.45 -23.35 Q89.4 -20.8 88.95 -20.35 88.6 -19.95 87.75 -20.0 86.45 -20.05 86.0 -21.7 L85.7 -22.9 84.65 -26.9 83.85 -28.55 83.0 -29.75 81.8 -30.0 80.8 -30.2 80.7 -30.25 79.55 -30.85 Q77.9 -32.05 76.4 -34.05 L73.1 -38.65 72.7 -32.5 72.55 -32.35 72.2 -32.25 71.8 -32.25 71.15 -32.35 70.9 -32.55 70.9 -32.7 Q70.7 -32.7 69.55 -34.5 68.35 -36.5 67.1 -37.05 L65.7 -37.45 64.95 -37.75 Q64.2 -38.05 63.55 -38.45 L61.55 -40.65 59.85 -42.05 59.15 -42.4 58.8 -42.35 59.0 -42.95 58.9 -43.2 58.3 -43.45 58.25 -43.45 Q57.15 -43.5 57.6 -43.3 L57.05 -42.5 57.85 -41.85 57.95 -42.0 57.65 -41.45 58.0 -40.65 Q56.1 -41.75 53.05 -41.85 L48.95 -42.1 Q46.2 -42.4 44.5 -43.65 L44.25 -43.85 44.3 -43.6 45.35 -41.7 45.75 -41.3 47.45 -38.9 47.0 -38.35 45.85 -38.2 Q45.05 -38.2 42.45 -40.15 L39.5 -42.45 36.45 -42.6 39.05 -40.1 40.7 -38.0 41.1 -37.2 41.0 -36.75 40.95 -36.6 40.15 -36.4 39.2 -37.25 38.4 -37.9 M26.65 -23.6 L24.65 -26.85 Q22.85 -29.85 22.85 -30.25 L23.1 -31.3 23.05 -31.45 22.55 -31.95 Q20.3 -33.65 15.65 -35.0 16.6 -33.8 16.3 -31.95 L16.1 -31.85 15.15 -31.75 Q8.6 -33.7 5.9 -34.95 L2.15 -35.1 Q3.45 -33.3 3.4 -32.4 L3.4 -31.65 1.7 -31.3 Q-0.6 -31.15 -15.85 -31.4 L-13.2 -29.85 -10.3 -28.0 Q-10.7 -26.95 -17.35 -25.15 L-26.5 -22.7 Q-25.05 -21.6 -25.1 -20.95 -25.15 -20.2 -29.95 -14.55 -33.2 -10.6 -35.5 -8.4 L-34.1 -8.5 -30.95 -8.3 -30.45 -8.25 -30.35 -8.25 -30.1 -8.25 -30.05 -8.25 -27.4 -8.4 -23.45 -9.25 -19.9 -9.55 -19.65 -9.4 -19.65 -8.6 Q-19.65 -8.2 -22.2 -6.15 -24.8 -4.15 -25.85 -3.7 L-26.1 -3.45 -25.9 -3.45 -25.85 -3.45 Q-21.65 -3.35 -7.55 -5.75 L-6.1 -5.45 -5.95 -5.55 Q-5.8 -5.5 -5.8 -4.7 -5.85 -3.9 -7.15 -3.45 L-10.95 -2.5 3.35 -2.2 6.45 -2.4 6.45 -2.5 7.35 -2.6 8.2 -2.3 Q8.6 -2.8 8.55 -1.55 3.1 3.45 1.8 3.95 6.4 3.25 20.25 -0.15 17.15 -3.0 17.3 -6.15 L17.55 -6.85 Q17.25 -7.2 18.35 -7.15 L19.85 -6.25 Q21.35 -5.45 21.9 -5.4 L22.2 -5.4 22.2 -5.45 22.2 -5.5 18.7 -13.15 Q18.1 -14.3 16.25 -14.9 14.15 -15.55 13.35 -16.55 13.8 -17.05 14.75 -17.2 L16.25 -17.15 20.35 -16.7 25.55 -14.9 24.3 -18.2 22.25 -22.5 Q21.45 -23.75 19.7 -24.5 18.1 -25.25 17.75 -26.3 L18.5 -26.9 19.55 -26.95 23.15 -25.15 27.0 -22.95 26.65 -23.6 M42.2 -6.85 Q42.7 -5.75 43.8 -4.65 L44.35 -4.25 44.45 -4.15 Q45.85 -2.95 45.85 -2.55 L45.6 -1.6 44.7 -1.65 38.85 -1.7 39.0 -1.4 39.15 -1.3 39.9 -0.5 Q40.95 0.6 41.2 1.45 L41.05 1.8 41.1 1.8 Q44.4 2.35 46.5 3.25 L47.3 3.6 48.35 4.05 48.35 4.15 51.3 6.4 Q53.85 8.6 56.3 11.95 L61.2 11.75 63.8 11.85 69.1 12.75 Q71.2 13.45 72.05 14.6 L72.1 14.05 72.25 13.35 Q72.25 13.75 72.55 14.05 73.8 12.4 77.3 10.55 L79.3 9.6 79.3 7.9 79.3 7.7 79.55 7.9 80.0 5.95 80.75 2.85 80.75 2.8 80.75 2.65 80.55 2.8 79.75 2.75 78.6 2.55 78.6 2.3 78.55 1.5 Q78.75 -0.2 78.55 -2.25 L78.05 -6.3 78.0 -6.65 78.0 -6.7 77.85 -7.3 77.65 -6.7 76.75 -6.55 74.3 -8.45 74.1 -8.55 73.05 -9.45 72.45 -10.0 72.35 -10.05 72.05 -10.35 71.95 -10.45 71.95 -10.4 Q69.8 -11.25 69.2 -11.7 67.4 -12.85 66.85 -14.0 66.55 -14.45 66.5 -14.95 66.5 -15.9 67.7 -17.6 68.75 -19.3 68.5 -20.2 68.1 -21.65 65.0 -23.2 61.7 -24.75 58.7 -24.9 56.6 -25.0 55.95 -24.45 54.55 -23.35 54.35 -18.85 54.3 -17.2 56.8 -14.95 L58.05 -14.0 59.7 -12.5 59.25 -11.85 58.2 -11.8 Q57.65 -11.8 57.0 -12.3 L56.5 -12.25 Q56.15 -12.25 55.2 -12.7 L54.9 -12.85 53.0 -13.85 51.55 -14.7 51.0 -15.0 50.85 -15.05 50.3 -15.45 50.1 -15.55 49.9 -15.65 48.2 -16.75 48.05 -16.85 48.15 -16.7 50.7 -11.7 50.45 -11.1 49.7 -10.95 48.3 -11.55 47.0 -12.25 Q44.2 -13.6 42.5 -14.75 L44.8 -10.95 48.25 -6.0 48.0 -5.3 47.95 -5.1 47.25 -5.05 Q46.7 -5.1 44.9 -6.15 43.25 -7.05 42.4 -6.85 L42.15 -7.0 42.2 -6.85 M58.3 -22.1 Q58.6 -22.7 59.2 -22.8 L60.05 -22.8 Q65.1 -22.6 66.05 -20.65 67.1 -18.75 64.0 -14.85 L63.7 -14.35 62.35 -14.4 62.2 -14.65 62.1 -15.5 Q62.1 -16.15 63.15 -17.2 L63.8 -17.95 64.2 -18.75 64.2 -18.8 64.2 -18.95 64.25 -19.25 64.25 -19.45 Q64.2 -19.95 63.75 -20.25 L63.05 -20.7 61.8 -21.05 58.65 -21.35 58.3 -22.1 M69.2 -1.55 L69.3 -1.85 70.15 -2.1 72.75 -0.45 Q75.0 1.1 75.3 1.8 76.6 4.25 74.75 6.5 73.3 8.25 71.95 8.35 L71.7 8.35 71.55 8.35 Q70.6 8.3 69.9 7.25 69.2 6.1 69.3 4.1 69.3 3.6 69.85 2.3 L69.9 2.2 70.05 1.85 70.1 1.85 70.3 1.15 70.45 0.65 70.45 0.55 Q70.45 0.05 69.9 -0.3 69.35 -0.55 69.15 -1.05 L69.05 -1.35 69.1 -1.4 69.2 -1.55 M88.2 -2.4 L87.8 -2.5 Q87.55 -2.5 87.4 -2.7 87.7 -2.55 88.05 -2.5 L88.2 -2.4 M71.95 2.0 L71.2 1.85 71.25 2.6 71.2 6.2 Q71.6 6.2 72.0 6.6 73.4 5.0 73.35 3.5 73.3 2.05 71.95 2.0 M69.6 14.75 Q56.15 14.15 54.4 14.9 52.75 15.6 43.9 15.05 L43.55 16.5 Q42.7 19.45 42.5 22.9 L44.25 22.65 57.5 22.1 70.1 21.1 Q71.6 20.65 71.65 19.4 70.95 14.8 69.6 14.75 M54.05 11.9 Q50.9 8.55 48.2 6.6 L47.9 12.3 54.2 12.05 54.05 11.9 M45.45 8.2 L46.1 8.3 46.35 5.4 45.3 4.85 Q41.55 3.05 34.0 2.75 L29.85 2.95 27.55 3.1 27.45 4.8 27.5 4.85 29.1 7.45 33.6 7.65 38.85 8.05 Q40.3 7.9 43.15 8.05 L45.45 8.2 M41.95 13.2 L42.0 11.9 37.4 10.2 37.2 10.15 33.45 9.95 Q35.05 10.8 35.6 12.45 35.9 13.45 35.7 17.8 L35.5 22.45 34.85 24.05 37.45 23.5 Q38.35 22.95 40.0 22.9 L40.1 21.15 41.5 16.5 41.95 13.2 M13.1 14.4 Q15.2 11.8 19.1 9.85 L20.4 9.2 22.95 8.0 Q24.1 7.4 25.55 6.75 L25.4 6.7 25.45 5.65 25.05 5.1 Q24.3 3.85 24.35 3.3 L24.35 2.75 21.8 1.2 Q19.65 2.0 13.35 3.65 3.4 6.25 0.45 6.1 -1.8 6.0 -2.2 5.45 L-2.25 4.75 Q-2.2 3.85 0.6 2.3 L3.6 0.3 -13.5 -0.6 Q-16.3 -0.9 -16.5 -1.25 -16.7 -1.75 -16.0 -2.4 L-21.55 -2.0 -26.45 -1.1 -31.0 -1.3 -31.05 -1.45 -31.45 -1.9 Q-30.8 -2.8 -28.8 -4.1 L-25.25 -6.4 -24.45 -6.75 -25.1 -6.7 -25.2 -6.7 -28.4 -6.05 -38.8 -5.65 -39.6 -5.85 -39.75 -6.3 Q-39.5 -7.3 -38.35 -7.8 L-37.75 -8.55 -39.4 -8.35 -54.75 -6.35 -56.05 -6.15 -54.1 -5.6 -53.9 -5.65 -53.8 -4.8 Q-53.85 -3.8 -56.0 -2.9 L-56.1 -2.85 -56.45 -2.75 -56.55 -2.7 -60.3 -1.35 -60.05 -0.85 -59.7 0.0 -57.95 4.5 -57.85 4.75 -57.75 5.1 Q-57.15 7.15 -56.4 8.15 -55.6 9.1 -54.3 9.5 -53.45 9.75 -53.5 10.35 -53.55 11.85 -55.3 13.3 L-58.75 16.25 -59.25 16.5 -58.7 16.5 Q-57.0 16.6 -56.5 17.45 -56.3 17.75 -56.35 18.55 -56.4 19.3 -57.0 20.1 -57.7 21.0 -58.75 21.2 L-56.4 22.15 -54.45 22.9 Q-34.95 23.4 -31.8 22.9 L-26.45 21.6 -19.95 21.2 -14.4 21.45 Q-14.2 21.5 -15.05 22.4 L-15.1 23.4 Q-13.15 22.75 -7.2 19.95 L-1.25 17.0 0.85 17.1 1.0 17.3 Q1.2 17.45 1.2 18.2 L0.8 19.45 0.2 20.3 -0.1 20.55 0.2 20.45 3.3 18.5 7.4 15.95 Q8.15 14.75 9.05 13.7 10.8 11.55 12.25 11.65 L13.1 11.9 Q13.55 12.9 12.9 14.15 L12.85 14.65 13.1 14.4 M27.65 9.8 Q21.0 10.7 19.2 12.75 18.35 13.7 18.25 16.75 18.1 19.55 18.8 20.75 19.4 21.75 20.6 22.5 22.3 23.5 25.2 23.9 24.5 22.45 24.65 18.95 L24.95 13.95 25.15 13.85 26.15 13.75 Q27.8 13.85 29.95 17.35 32.1 20.75 32.0 22.8 33.65 21.35 33.75 17.45 33.85 14.4 33.25 13.3 L31.45 11.85 Q30.25 10.75 30.1 9.85 L27.65 9.8 M26.15 24.0 L27.15 24.0 29.75 24.15 28.85 21.3 27.45 17.8 27.2 17.8 Q27.05 21.55 26.2 23.8 L25.95 23.95 26.15 24.0 M16.5 14.7 L14.75 16.55 Q11.75 19.6 10.9 19.55 L9.65 19.25 Q9.75 16.6 10.15 15.55 9.35 16.5 3.1 20.65 L-1.45 23.65 4.05 24.2 13.4 23.7 13.7 23.45 Q15.2 22.45 17.3 22.4 L16.65 21.3 Q16.0 19.85 16.05 18.15 L16.25 16.7 Q16.25 15.6 16.5 14.7 M-2.55 20.1 L-7.25 22.75 -7.05 23.55 -4.95 23.5 Q-4.8 22.7 -4.15 22.1 L-2.45 20.45 -2.4 20.0 -2.55 20.1 M-60.4 4.65 Q-61.7 5.35 -64.3 6.15 -70.2 7.95 -71.7 9.4 -73.35 11.0 -74.45 12.85 -75.75 14.9 -75.8 16.5 -75.8 17.05 -73.7 18.65 -70.9 20.7 -67.6 20.85 L-64.4 20.35 -61.55 19.9 -61.0 19.6 -59.35 19.0 -61.15 17.55 Q-61.8 16.85 -61.75 16.45 -61.75 15.75 -59.4 13.7 L-56.55 11.15 Q-57.9 9.85 -60.4 4.65" fill="#000000" fill-rule="evenodd" stroke="none"/>
    <path d="M38.2 -33.0 L38.25 -34.15 Q37.9 -35.55 36.55 -36.8 L34.15 -38.6 34.2 -38.7 37.55 -38.55 38.4 -37.9 38.35 -37.9 38.25 -37.85 37.95 -37.7 37.9 -37.75 37.75 -37.6 37.65 -37.55 37.65 -37.5 37.5 -37.35 Q37.85 -36.6 39.2 -35.9 L39.2 -35.85 39.5 -35.7 39.85 -35.6 42.35 -34.55 45.35 -32.8 Q47.55 -31.4 47.55 -30.95 L47.45 -30.05 Q47.3 -29.55 47.0 -29.35 45.0 -30.55 41.2 -31.95 L38.2 -33.0 M40.7 -38.0 L39.05 -40.1 36.45 -42.6 39.5 -42.45 42.45 -40.15 Q45.05 -38.2 45.85 -38.2 L47.0 -38.35 50.05 -37.2 Q51.8 -36.5 52.85 -35.0 L53.1 -34.5 53.4 -33.9 53.55 -33.75 55.85 -29.45 55.15 -29.8 49.1 -34.7 Q44.75 -37.75 40.7 -38.0 M45.35 -41.7 L44.3 -43.6 44.5 -43.65 Q46.2 -42.4 48.95 -42.1 L53.05 -41.85 Q56.1 -41.75 58.0 -40.65 L57.65 -41.45 57.95 -42.0 57.85 -41.85 57.05 -42.5 57.6 -43.3 Q57.15 -43.5 58.25 -43.45 L58.3 -43.45 58.9 -43.2 59.0 -42.95 58.8 -42.35 59.15 -42.4 59.85 -42.05 61.55 -40.65 63.55 -38.45 Q64.2 -38.05 64.95 -37.75 L65.7 -37.45 67.9 -33.65 Q68.9 -32.2 69.3 -29.45 L69.45 -27.9 Q68.65 -29.2 67.65 -29.25 L66.75 -29.15 66.5 -29.1 Q66.25 -30.55 65.7 -30.95 L65.0 -30.85 Q64.5 -30.85 64.35 -31.05 L63.0 -31.85 60.35 -33.8 Q58.85 -35.1 58.05 -36.25 55.9 -39.6 52.7 -40.8 L48.4 -41.65 47.65 -41.7 45.55 -41.75 45.35 -41.7 M72.55 -32.35 L72.7 -32.5 73.1 -38.65 76.4 -34.05 Q77.9 -32.05 79.55 -30.85 L79.7 -30.65 Q80.45 -29.25 80.4 -28.1 L79.85 -23.25 79.35 -19.45 79.3 -19.15 79.2 -19.1 79.2 -19.3 79.15 -19.7 Q78.85 -21.55 78.5 -21.85 L77.65 -23.1 Q76.8 -24.15 76.6 -25.9 76.55 -27.25 76.1 -27.25 L75.25 -27.15 75.15 -27.0 74.8 -24.0 74.65 -25.35 74.25 -25.75 74.1 -27.0 74.05 -27.35 72.55 -32.35 M85.7 -22.9 L86.0 -21.7 Q86.45 -20.05 87.75 -20.0 88.6 -19.95 88.95 -20.35 89.4 -20.8 90.45 -23.35 L90.6 -22.25 90.6 -17.2 90.4 -13.8 Q88.45 -12.8 86.5 -10.65 L86.45 -10.6 86.1 -11.2 Q85.75 -11.65 85.9 -11.95 L87.0 -12.65 Q87.45 -12.9 87.5 -13.3 L87.35 -13.9 87.15 -14.0 Q85.8 -13.9 84.75 -15.4 83.8 -16.7 82.9 -16.95 L82.55 -17.0 81.7 -17.0 81.8 -17.1 83.95 -18.85 Q85.25 -20.7 85.7 -22.9 M95.0 -13.5 L96.4 -14.4 97.4 -11.85 97.75 -10.1 Q97.2 -5.35 96.65 -4.1 96.3 -3.4 95.6 -3.15 94.7 -2.9 94.2 -2.45 L92.15 -0.4 91.1 0.6 92.15 -1.9 91.35 -2.0 Q90.85 -2.15 90.35 -2.45 L90.05 -2.6 89.95 -2.65 89.55 -3.1 89.3 -3.7 Q89.4 -5.05 89.95 -5.3 L91.2 -5.9 89.75 -7.3 89.3 -7.65 88.45 -8.05 88.35 -8.05 88.4 -8.1 89.7 -9.05 92.55 -11.15 Q94.25 -12.45 95.0 -13.5 M89.5 7.6 L90.4 7.45 90.45 8.2 Q86.2 11.0 84.45 10.95 L81.5 10.6 81.2 10.55 Q81.35 9.7 82.05 9.2 L81.3 8.9 81.65 7.55 Q82.2 8.0 83.5 8.1 L85.85 8.0 88.6 7.9 89.5 7.6 M46.55 -15.3 L46.8 -14.75 46.65 -14.8 46.55 -15.3 M38.7 -3.45 L38.45 -3.5 Q38.05 -3.7 37.85 -3.85 L37.85 -3.9 Q38.2 -3.7 38.7 -3.45 M30.35 1.0 L29.1 1.05 26.35 1.5 23.8 0.0 Q21.25 -1.1 20.2 -3.7 L20.55 -3.9 22.0 -3.25 23.2 -2.95 Q23.45 -1.95 25.8 -0.85 L29.5 0.75 30.35 1.0 M24.9 -4.95 Q23.85 -6.75 22.35 -9.9 L19.75 -15.0 19.9 -15.1 Q22.75 -14.35 25.6 -12.45 L25.6 -12.4 25.2 -12.05 Q25.45 -11.35 26.5 -10.25 L27.5 -9.15 27.15 -8.3 26.95 -7.7 Q26.9 -7.05 28.85 -4.7 L28.15 -4.4 Q27.7 -4.15 27.05 -4.2 26.4 -4.2 24.9 -4.95 M28.95 -12.15 L27.15 -16.0 Q25.0 -20.7 24.55 -22.6 L28.55 -19.25 29.75 -17.55 32.65 -14.4 32.7 -14.35 33.8 -13.25 Q33.05 -13.15 32.85 -12.15 L32.75 -10.8 Q31.1 -11.1 29.45 -11.95 L28.95 -12.15 M29.15 -22.55 L29.15 -22.6 Q28.05 -24.5 27.8 -26.4 L28.0 -26.4 29.5 -25.95 30.45 -25.7 31.2 -25.0 31.2 -24.95 33.6 -23.5 37.7 -20.95 37.6 -21.0 37.55 -21.0 37.45 -21.05 37.4 -21.1 37.35 -21.1 37.25 -21.1 37.25 -21.15 37.2 -21.25 36.85 -21.35 36.1 -21.45 35.65 -21.35 35.45 -20.7 Q35.45 -20.0 35.1 -19.85 L34.0 -19.85 Q33.8 -19.85 31.85 -21.15 30.1 -22.4 29.15 -22.55 M33.4 -27.15 L33.2 -27.45 32.2 -30.3 Q31.65 -32.25 31.7 -33.25 L33.95 -33.15 34.15 -33.05 Q33.75 -32.8 33.75 -32.35 33.7 -31.75 33.9 -31.65 L34.15 -31.55 37.95 -30.6 Q41.0 -29.65 41.0 -29.3 41.0 -28.65 41.3 -28.05 L41.5 -27.7 42.2 -26.85 Q43.85 -25.6 44.35 -24.95 L44.15 -25.15 42.6 -25.95 41.35 -26.4 Q40.75 -26.45 40.7 -26.05 L40.7 -25.95 40.65 -25.85 40.55 -25.75 40.3 -25.7 40.15 -25.7 37.25 -26.4 33.6 -27.15 33.4 -27.15 M80.75 2.8 L80.75 2.85 80.55 2.8 80.75 2.8 M39.15 -1.3 L39.0 -1.4 39.45 -1.45 39.15 -1.3" fill="#7d361a" fill-rule="evenodd" stroke="none"/>
    <path d="M47.45 -30.05 L47.55 -30.95 Q47.55 -31.4 45.35 -32.8 L42.35 -34.55 39.85 -35.6 39.5 -35.7 39.2 -35.85 39.2 -35.9 37.65 -37.5 37.65 -37.55 37.75 -37.6 37.9 -37.75 37.95 -37.7 38.25 -37.85 38.35 -37.9 38.4 -37.9 39.2 -37.25 40.15 -36.4 40.95 -36.6 41.0 -36.75 41.1 -37.1 43.65 -35.3 Q48.5 -31.75 49.6 -31.05 51.05 -29.9 52.05 -29.3 53.8 -28.0 55.05 -27.8 L57.4 -27.55 Q56.85 -28.2 56.45 -28.95 55.25 -31.8 53.55 -33.75 L53.4 -33.9 53.1 -34.5 52.85 -35.0 Q51.8 -36.5 50.05 -37.2 L47.0 -38.35 47.45 -38.9 45.75 -41.3 45.35 -41.7 45.55 -41.75 47.65 -41.7 48.4 -41.65 51.45 -39.7 Q54.85 -37.2 58.45 -33.05 L60.3 -30.65 Q61.35 -29.2 62.3 -28.1 62.95 -27.2 64.05 -26.7 L64.75 -26.75 65.75 -26.95 Q67.65 -26.9 69.45 -25.5 L70.05 -24.9 69.95 -24.3 Q70.35 -25.9 70.95 -26.9 72.3 -28.95 72.4 -31.05 L72.2 -32.25 72.55 -32.35 74.05 -27.35 74.1 -27.0 73.9 -26.35 Q73.0 -24.55 72.85 -20.5 72.65 -16.2 73.3 -15.35 74.15 -15.05 74.35 -14.25 L74.4 -14.0 74.6 -13.85 74.15 -13.3 Q74.55 -13.45 74.55 -12.65 L74.25 -11.1 73.6 -11.8 Q72.65 -12.75 71.7 -12.8 L70.95 -12.65 70.5 -13.25 Q69.9 -14.05 69.95 -15.35 L69.95 -15.7 70.0 -16.0 70.0 -16.7 70.0 -18.95 69.8 -22.15 69.75 -22.35 69.65 -22.6 69.65 -22.65 69.2 -23.6 Q68.95 -23.85 67.8 -24.1 66.55 -24.3 65.65 -24.95 64.3 -25.95 62.15 -26.25 L58.95 -26.4 58.45 -26.6 55.6 -26.55 Q55.05 -26.4 54.6 -26.0 L54.5 -25.85 53.15 -23.75 52.9 -23.0 52.85 -22.7 52.8 -22.7 52.65 -22.5 52.7 -22.35 52.65 -22.1 52.4 -19.65 52.4 -19.5 52.4 -19.3 52.4 -19.15 Q52.3 -17.75 54.05 -15.3 53.65 -15.5 53.45 -15.65 L52.9 -15.9 50.0 -18.1 Q47.7 -19.75 47.15 -19.8 L46.3 -19.65 46.2 -19.55 46.05 -16.65 46.55 -15.3 46.65 -14.8 43.45 -16.25 41.1 -16.45 39.95 -16.45 38.8 -15.75 39.05 -15.3 Q40.35 -14.3 42.0 -11.85 L44.65 -8.1 44.3 -8.0 Q43.3 -8.45 41.65 -9.45 40.6 -10.15 39.75 -10.2 38.45 -10.25 38.05 -9.45 L40.0 -6.45 42.25 -3.4 42.05 -3.35 38.7 -3.45 Q38.2 -3.7 37.85 -3.9 L37.85 -3.85 37.55 -4.1 36.3 -4.4 35.4 -4.15 35.15 -3.65 Q35.85 -2.2 37.0 -0.65 37.95 0.8 38.8 1.5 L33.95 1.1 33.8 1.1 33.7 1.1 33.55 1.1 32.95 1.1 32.8 1.05 32.3 1.05 30.35 1.0 29.5 0.75 25.8 -0.85 Q23.45 -1.95 23.2 -2.95 L23.65 -2.95 24.9 -3.0 24.95 -3.0 25.2 -3.1 25.35 -3.2 25.5 -3.3 Q30.05 -1.05 30.9 -1.0 L31.45 -1.2 Q32.05 -1.75 33.0 -2.5 32.6 -3.25 28.4 -7.15 L27.15 -8.3 27.5 -9.15 26.5 -10.25 Q25.45 -11.35 25.2 -12.05 L25.6 -12.4 28.15 -10.7 28.9 -10.75 28.95 -10.95 29.1 -11.2 30.7 -10.2 Q34.75 -7.6 35.3 -7.6 36.55 -7.55 36.9 -8.0 L37.15 -9.3 Q37.2 -9.95 37.6 -10.2 L38.1 -10.35 Q35.0 -12.45 32.7 -14.35 L32.65 -14.4 29.75 -17.55 28.55 -19.25 Q29.0 -19.0 29.1 -19.0 L29.85 -19.1 29.8 -19.25 30.05 -20.15 32.25 -18.8 Q35.4 -16.75 35.95 -16.45 37.7 -17.3 37.8 -19.2 37.85 -20.3 36.55 -21.4 L36.85 -21.35 37.2 -21.25 37.25 -21.15 37.25 -21.1 37.35 -21.1 37.4 -21.1 37.45 -21.05 37.55 -21.0 37.6 -21.0 37.7 -20.95 33.6 -23.5 31.2 -24.95 31.2 -25.0 30.75 -25.6 30.95 -25.55 32.45 -24.65 Q33.25 -24.0 34.15 -23.95 L34.85 -24.0 34.9 -24.2 35.2 -24.9 35.1 -25.15 35.15 -25.1 Q37.35 -23.8 38.85 -23.75 39.5 -23.75 42.6 -21.65 42.75 -22.3 43.3 -22.75 L40.8 -25.25 40.3 -25.7 40.55 -25.75 40.65 -25.85 40.7 -25.95 40.7 -26.05 Q40.75 -26.45 41.35 -26.4 L42.6 -25.95 44.15 -25.15 44.35 -24.95 Q43.85 -25.6 42.2 -26.85 L41.5 -27.7 41.3 -28.05 42.1 -27.75 44.7 -27.05 Q45.95 -27.05 47.3 -26.5 L49.2 -25.5 49.25 -25.65 49.8 -26.05 Q49.8 -26.65 49.05 -27.05 L48.9 -27.2 47.85 -27.9 47.5 -29.85 47.45 -30.05 M80.8 -30.2 L81.8 -30.0 83.0 -29.75 83.85 -28.55 84.65 -26.9 85.7 -22.9 Q85.25 -20.7 83.95 -18.85 L81.8 -17.1 81.7 -17.0 82.55 -17.0 82.9 -16.95 Q81.2 -15.4 79.85 -16.15 79.3 -15.3 79.05 -12.65 L79.9 -12.8 80.95 -12.65 Q81.6 -12.3 81.0 -11.15 82.7 -10.2 83.0 -9.3 83.25 -8.65 82.95 -7.8 L83.3 -8.15 Q85.7 -10.15 87.0 -10.1 L88.7 -9.9 89.7 -9.05 88.4 -8.1 88.35 -8.05 88.45 -8.05 89.3 -7.65 87.05 -6.15 Q84.6 -4.35 84.05 -1.05 L86.4 -0.95 Q87.4 -1.25 88.25 -1.95 L89.55 -3.1 89.95 -2.65 90.05 -2.6 90.35 -2.45 Q90.85 -2.15 91.35 -2.0 L91.5 -1.75 Q91.45 -0.65 88.3 0.7 88.2 0.65 84.0 2.15 L84.0 3.9 Q84.15 4.75 85.15 4.8 88.95 4.95 91.85 3.95 96.2 2.5 96.65 -1.35 L96.55 -1.5 96.7 -1.6 96.6 -0.15 95.6 1.75 Q94.9 2.9 94.1 3.3 L92.8 4.0 Q91.7 4.95 89.6 5.6 87.6 6.2 87.05 6.7 87.15 7.1 87.4 7.3 L87.55 7.35 85.05 7.4 81.9 6.85 82.45 4.2 Q83.05 1.45 82.5 0.7 82.3 0.45 82.0 0.45 L81.0 0.6 80.7 0.65 80.25 -4.0 80.65 -4.9 80.25 -4.8 80.2 -4.8 79.55 -8.75 Q79.25 -9.8 78.75 -10.45 L78.5 -10.7 78.5 -10.75 77.7 -11.3 Q76.8 -10.45 76.4 -9.45 L75.35 -10.25 Q75.45 -12.0 76.8 -15.15 78.15 -18.3 79.1 -19.25 L79.2 -19.3 79.2 -19.1 79.3 -19.15 79.35 -19.45 81.45 -20.75 Q83.3 -21.9 83.35 -22.4 83.5 -26.7 83.0 -27.25 82.7 -27.55 82.35 -27.0 81.7 -27.0 81.55 -27.7 L81.35 -29.65 80.95 -30.05 80.8 -30.2 M-30.05 -8.25 L-27.05 -11.25 Q-21.95 -15.75 -16.4 -18.9 -14.15 -20.2 -11.95 -22.2 -10.25 -23.8 -8.25 -24.55 L-4.9 -26.1 Q-2.1 -27.35 -1.05 -27.6 L3.75 -28.0 10.1 -27.9 16.25 -27.8 Q17.75 -28.65 19.15 -28.6 20.75 -28.5 23.6 -25.9 25.35 -24.3 26.65 -23.6 L27.0 -22.95 23.15 -25.15 19.55 -26.95 18.5 -26.9 17.75 -26.3 Q18.1 -25.25 19.7 -24.5 21.45 -23.75 22.25 -22.5 L24.3 -18.2 25.55 -14.9 20.35 -16.7 16.25 -17.15 14.75 -17.2 Q13.8 -17.05 13.35 -16.55 14.15 -15.55 16.25 -14.9 18.1 -14.3 18.7 -13.15 L22.2 -5.5 21.9 -5.4 Q21.35 -5.45 19.85 -6.25 L18.35 -7.15 Q17.25 -7.2 17.55 -6.85 L17.3 -6.15 Q17.15 -3.0 20.25 -0.15 6.4 3.25 1.8 3.95 3.1 3.45 8.55 -1.55 8.6 -2.8 8.2 -2.3 L7.35 -2.6 6.45 -2.5 6.45 -2.4 3.35 -2.2 -10.95 -2.5 -7.15 -3.45 Q-5.85 -3.9 -5.8 -4.7 -5.8 -5.5 -5.95 -5.55 L-6.1 -5.45 -7.55 -5.75 Q-21.65 -3.35 -25.85 -3.45 L-25.85 -3.7 Q-24.8 -4.15 -22.2 -6.15 -19.65 -8.2 -19.65 -8.6 L-19.65 -9.4 -19.9 -9.55 -23.45 -9.25 -27.4 -8.4 -30.05 -8.25" fill="#291204" fill-rule="evenodd" stroke="none"/>
    <path d="M38.2 -33.0 L41.2 -31.95 Q45.0 -30.55 47.0 -29.35 47.3 -29.55 47.45 -30.05 L47.5 -29.85 47.85 -27.9 48.9 -27.2 49.05 -27.05 Q49.8 -26.65 49.8 -26.05 L49.25 -25.65 49.2 -25.5 47.3 -26.5 Q45.95 -27.05 44.7 -27.05 L42.1 -27.75 41.3 -28.05 Q41.0 -28.65 41.0 -29.3 41.0 -29.65 37.95 -30.6 L34.15 -31.55 33.9 -31.65 Q33.7 -31.75 33.75 -32.35 33.75 -32.8 34.15 -33.05 L35.95 -32.15 37.25 -31.4 38.05 -31.45 38.15 -31.65 38.2 -33.0 M39.2 -35.9 Q37.85 -36.6 37.5 -37.35 L37.65 -37.5 39.2 -35.9 M41.0 -36.75 L41.1 -37.2 40.7 -38.0 Q44.75 -37.75 49.1 -34.7 L55.15 -29.8 55.85 -29.45 53.55 -33.75 Q55.25 -31.8 56.45 -28.95 56.85 -28.2 57.4 -27.55 L55.05 -27.8 Q53.8 -28.0 52.05 -29.3 51.05 -29.9 49.6 -31.05 48.5 -31.75 43.65 -35.3 L41.1 -37.1 41.0 -36.75 M65.7 -37.45 L67.1 -37.05 Q68.35 -36.5 69.55 -34.5 70.7 -32.7 70.9 -32.7 L70.9 -32.55 71.15 -32.35 71.8 -32.25 72.2 -32.25 72.4 -31.05 Q72.3 -28.95 70.95 -26.9 70.35 -25.9 69.95 -24.3 L70.05 -24.9 69.45 -25.5 Q67.65 -26.9 65.75 -26.95 L64.75 -26.75 64.05 -26.7 Q62.95 -27.2 62.3 -28.1 61.35 -29.2 60.3 -30.65 L58.45 -33.05 Q54.85 -37.2 51.45 -39.7 L48.4 -41.65 52.7 -40.8 Q55.9 -39.6 58.05 -36.25 58.85 -35.1 60.35 -33.8 L63.0 -31.85 64.35 -31.05 Q64.5 -30.85 65.0 -30.85 L65.7 -30.95 Q66.25 -30.55 66.5 -29.1 L66.75 -29.15 67.65 -29.25 Q68.65 -29.2 69.45 -27.9 L69.3 -29.45 Q68.9 -32.2 67.9 -33.65 L65.7 -37.45 M79.55 -30.85 L80.7 -30.25 80.8 -30.2 80.95 -30.05 81.35 -29.65 81.55 -27.7 Q81.7 -27.0 82.35 -27.0 82.7 -27.55 83.0 -27.25 83.5 -26.7 83.35 -22.4 83.3 -21.9 81.45 -20.75 L79.35 -19.45 79.85 -23.25 80.4 -28.1 Q80.45 -29.25 79.7 -30.65 L79.55 -30.85 M90.4 -13.8 L90.25 -12.45 90.6 -12.65 90.95 -12.1 91.6 -11.9 94.1 -13.05 95.0 -13.5 Q94.25 -12.45 92.55 -11.15 L89.7 -9.05 88.7 -9.9 87.0 -10.1 Q85.7 -10.15 83.3 -8.15 L82.95 -7.8 Q83.25 -8.65 83.0 -9.3 82.7 -10.2 81.0 -11.15 81.6 -12.3 80.95 -12.65 L79.9 -12.8 79.05 -12.65 Q79.3 -15.3 79.85 -16.15 81.2 -15.4 82.9 -16.95 83.8 -16.7 84.75 -15.4 85.8 -13.9 87.15 -14.0 L87.35 -13.9 87.5 -13.3 Q87.45 -12.9 87.0 -12.65 L85.9 -11.95 Q85.75 -11.65 86.1 -11.2 L86.45 -10.6 86.5 -10.65 Q88.45 -12.8 90.4 -13.8 M97.75 -10.1 L97.85 -8.8 97.85 -6.65 97.85 -6.55 97.85 -6.35 97.85 -6.25 97.85 -5.8 97.8 -5.7 97.8 -5.6 Q97.8 -4.95 97.5 -5.15 L97.25 -5.35 96.85 -2.55 96.7 -1.6 96.55 -1.5 96.65 -1.35 Q96.2 2.5 91.85 3.95 88.95 4.95 85.15 4.8 84.15 4.75 84.0 3.9 L84.0 2.15 Q88.2 0.65 88.3 0.7 91.45 -0.65 91.5 -1.75 L91.35 -2.0 92.15 -1.9 91.1 0.6 92.15 -0.4 94.2 -2.45 Q94.7 -2.9 95.6 -3.15 96.3 -3.4 96.65 -4.1 97.2 -5.35 97.75 -10.1 M87.55 7.35 L89.05 7.55 89.25 7.6 89.5 7.6 88.6 7.9 85.85 8.0 83.5 8.1 Q82.2 8.0 81.65 7.55 L81.9 6.85 85.05 7.4 87.55 7.35 M80.25 -4.0 L80.25 -4.6 80.2 -4.8 80.25 -4.8 80.65 -4.9 80.25 -4.0 M75.35 -10.25 L74.95 -10.55 74.25 -11.1 74.55 -12.65 Q74.55 -13.45 74.15 -13.3 L74.6 -13.85 74.4 -14.0 74.35 -14.25 Q74.15 -15.05 73.3 -15.35 72.65 -16.2 72.85 -20.5 73.0 -24.55 73.9 -26.35 L74.1 -27.0 74.25 -25.75 74.65 -25.35 74.8 -24.0 75.15 -27.0 75.25 -27.15 76.1 -27.25 Q76.55 -27.25 76.6 -25.9 76.8 -24.15 77.65 -23.1 L78.5 -21.85 Q78.85 -21.55 79.15 -19.7 L79.2 -19.3 79.1 -19.25 Q78.15 -18.3 76.8 -15.15 75.45 -12.0 75.35 -10.25 M52.8 -22.7 L52.7 -22.35 52.65 -22.5 52.8 -22.7 M25.35 -3.2 L25.75 -3.65 24.9 -4.95 Q26.4 -4.2 27.05 -4.2 27.7 -4.15 28.15 -4.4 L28.85 -4.7 Q26.9 -7.05 26.95 -7.7 L27.15 -8.3 28.4 -7.15 Q32.6 -3.25 33.0 -2.5 32.05 -1.75 31.45 -1.2 L30.9 -1.0 Q30.05 -1.05 25.5 -3.3 L25.35 -3.2 M29.1 -11.2 L29.2 -11.65 28.95 -12.15 29.45 -11.95 Q31.1 -11.1 32.75 -10.8 L32.85 -12.15 Q33.05 -13.15 33.8 -13.25 L32.7 -14.35 Q35.0 -12.45 38.1 -10.35 L37.6 -10.2 Q37.2 -9.95 37.15 -9.3 L36.9 -8.0 Q36.55 -7.55 35.3 -7.6 34.75 -7.6 30.7 -10.2 L29.1 -11.2 M30.05 -20.15 L30.05 -20.25 30.05 -20.35 29.65 -21.55 29.15 -22.55 Q30.1 -22.4 31.85 -21.15 33.8 -19.85 34.0 -19.85 L35.1 -19.85 Q35.45 -20.0 35.45 -20.7 L35.65 -21.35 36.1 -21.45 36.85 -21.35 36.55 -21.4 Q37.85 -20.3 37.8 -19.2 37.7 -17.3 35.95 -16.45 35.4 -16.75 32.25 -18.8 L30.05 -20.15 M30.45 -25.7 L30.75 -25.6 31.2 -25.0 30.45 -25.7 M35.15 -25.1 L34.5 -25.85 33.4 -27.15 33.6 -27.15 37.25 -26.4 40.15 -25.7 40.3 -25.7 40.8 -25.25 43.3 -22.75 Q42.75 -22.3 42.6 -21.65 39.5 -23.75 38.85 -23.75 37.35 -23.8 35.15 -25.1 M-30.05 -8.25 L-30.1 -8.25 -30.35 -8.25 -30.45 -8.25 -30.95 -8.3 -34.1 -8.5 -35.5 -8.4 Q-33.2 -10.6 -29.95 -14.55 -25.15 -20.2 -25.1 -20.95 -25.05 -21.6 -26.5 -22.7 L-17.35 -25.15 Q-10.7 -26.95 -10.3 -28.0 L-13.2 -29.85 -15.85 -31.4 Q-0.6 -31.15 1.7 -31.3 L3.4 -31.65 3.4 -32.4 Q3.45 -33.3 2.15 -35.1 L5.9 -34.95 Q8.6 -33.7 15.15 -31.75 L16.1 -31.85 16.3 -31.95 Q16.6 -33.8 15.65 -35.0 20.3 -33.65 22.55 -31.95 L23.05 -31.45 23.1 -31.3 22.85 -30.25 Q22.85 -29.85 24.65 -26.85 L26.65 -23.6 Q25.35 -24.3 23.6 -25.9 20.75 -28.5 19.15 -28.6 17.75 -28.65 16.25 -27.8 L10.1 -27.9 3.75 -28.0 -1.05 -27.6 Q-2.1 -27.35 -4.9 -26.1 L-8.25 -24.55 Q-10.25 -23.8 -11.95 -22.2 -14.15 -20.2 -16.4 -18.9 -21.95 -15.75 -27.05 -11.25 L-30.05 -8.25 M89.3 -7.65 L89.75 -7.3 91.2 -5.9 89.95 -5.3 Q89.4 -5.05 89.3 -3.7 L89.55 -3.1 88.25 -1.95 Q87.4 -1.25 86.4 -0.95 L84.05 -1.05 Q84.6 -4.35 87.05 -6.15 L89.3 -7.65 M88.2 -2.4 L88.05 -2.5 Q87.7 -2.55 87.4 -2.7 87.55 -2.5 87.8 -2.5 L88.2 -2.4" fill="#481e0e" fill-rule="evenodd" stroke="none"/>
    <path d="M39.0 -1.4 L38.85 -1.7 44.7 -1.65 45.6 -1.6 45.85 -2.55 Q45.85 -2.95 44.45 -4.15 L44.35 -4.25 43.8 -4.65 Q42.7 -5.75 42.2 -6.85 L42.4 -6.85 Q43.25 -7.05 44.9 -6.15 46.7 -5.1 47.25 -5.05 L47.95 -5.1 48.0 -5.3 48.25 -6.0 44.8 -10.95 42.5 -14.75 Q44.2 -13.6 47.0 -12.25 L48.3 -11.55 49.7 -10.95 50.45 -11.1 50.7 -11.7 48.15 -16.7 48.2 -16.75 49.9 -15.65 50.1 -15.55 50.3 -15.45 50.85 -15.05 51.0 -15.0 51.55 -14.7 53.0 -13.85 54.9 -12.85 55.2 -12.7 55.4 -12.55 57.35 -10.6 Q56.7 -9.75 55.25 -9.8 L52.45 -10.15 52.0 -10.05 52.8 -8.8 52.45 -8.25 51.45 -8.05 49.5 -8.75 47.7 -9.45 47.3 -9.45 50.5 -6.6 Q53.5 -4.05 53.5 -3.6 53.4 -1.9 52.05 -2.1 51.4 -2.15 50.5 -2.55 49.8 -2.6 49.6 -2.2 L49.4 -1.8 49.8 -1.25 Q50.2 -0.7 50.2 -0.15 50.15 0.55 49.55 0.5 48.85 0.6 48.8 1.25 48.75 3.15 49.35 3.25 51.1 3.6 52.5 4.75 52.7 4.35 52.65 5.35 52.6 6.05 52.3 6.2 L51.2 6.25 51.0 6.05 Q50.0 4.85 48.35 4.05 L47.3 3.6 46.5 3.25 Q44.4 2.35 41.1 1.8 L41.2 1.45 Q40.95 0.6 39.9 -0.5 L39.15 -1.3 39.45 -1.45 39.0 -1.4 M69.1 12.75 L63.8 11.85 Q64.25 11.4 65.85 10.7 L66.2 10.6 67.4 11.35 68.35 9.7 68.85 9.5 68.35 4.25 68.05 1.85 Q68.15 -0.4 69.15 -1.05 69.35 -0.55 69.9 -0.3 70.45 0.05 70.45 0.55 L70.45 0.65 70.3 1.15 70.1 1.85 70.05 1.85 69.9 2.2 69.85 2.3 Q69.3 3.6 69.3 4.1 69.2 6.1 69.9 7.25 70.6 8.3 71.55 8.35 L71.7 8.35 71.95 8.35 72.0 8.55 72.6 8.45 Q73.2 9.15 71.85 10.75 L71.1 10.7 71.0 10.7 70.55 10.45 69.9 11.25 69.7 11.5 69.1 12.75 M-25.25 -6.4 L-28.8 -4.1 Q-30.8 -2.8 -31.45 -1.9 L-31.05 -1.45 -31.0 -1.3 -26.45 -1.1 -21.55 -2.0 -16.0 -2.4 Q-16.7 -1.75 -16.5 -1.25 -16.3 -0.9 -13.5 -0.6 L3.6 0.3 0.6 2.3 Q-2.2 3.85 -2.25 4.75 L-2.2 5.45 Q-1.8 6.0 0.45 6.1 3.4 6.25 13.35 3.65 19.65 2.0 21.8 1.2 L24.35 2.75 24.35 3.3 Q24.3 3.85 25.05 5.1 L25.45 5.65 25.4 6.7 25.55 6.75 Q24.1 7.4 22.95 8.0 L20.4 9.2 19.1 9.85 Q15.2 11.8 13.1 14.4 L12.9 14.15 Q13.55 12.9 13.1 11.9 L12.25 11.65 Q10.8 11.55 9.05 13.7 8.15 14.75 7.4 15.95 L3.3 18.5 0.2 20.45 0.2 20.3 0.8 19.45 1.2 18.2 Q1.2 17.45 1.0 17.3 L0.85 17.1 -1.25 17.0 -7.2 19.95 Q-13.15 22.75 -15.1 23.4 L-15.05 22.4 Q-14.2 21.5 -14.4 21.45 L-19.95 21.2 -26.45 21.6 -31.8 22.9 Q-34.95 23.4 -54.45 22.9 L-56.4 22.15 -58.75 21.2 Q-57.7 21.0 -57.0 20.1 -56.4 19.3 -56.35 18.55 -56.3 17.75 -56.5 17.45 -57.0 16.6 -58.7 16.5 L-58.75 16.25 -55.3 13.3 Q-53.55 11.85 -53.5 10.35 -53.45 9.75 -54.3 9.5 -55.6 9.1 -56.4 8.15 -57.15 7.15 -57.75 5.1 L-57.85 4.75 -53.05 2.25 Q-47.8 -0.45 -42.95 -2.3 L-37.65 -3.1 -31.35 -3.8 Q-30.6 -3.9 -27.55 -5.35 -26.05 -6.05 -25.25 -6.5 L-25.25 -6.4 M-56.55 -2.7 L-59.75 -1.0 -60.05 -0.85 -60.3 -1.35 -56.55 -2.7" fill="#633725" fill-rule="evenodd" stroke="none"/>
    <path d="M55.2 -12.7 Q56.15 -12.25 56.5 -12.25 L57.0 -12.3 Q57.65 -11.8 58.2 -11.8 L59.25 -11.85 59.7 -12.5 58.05 -14.0 56.8 -14.95 Q54.3 -17.2 54.35 -18.85 54.55 -23.35 55.95 -24.45 56.6 -25.0 58.7 -24.9 61.7 -24.75 65.0 -23.2 68.1 -21.65 68.5 -20.2 68.75 -19.3 67.7 -17.6 66.5 -15.9 66.5 -14.95 66.55 -14.45 66.85 -14.0 67.4 -12.85 69.2 -11.7 69.8 -11.25 71.95 -10.4 L71.95 -10.45 72.05 -10.35 72.35 -10.05 72.45 -10.0 73.05 -9.45 74.1 -8.55 74.3 -8.45 76.75 -6.55 77.65 -6.7 78.0 -6.7 78.0 -6.65 78.05 -6.3 78.55 -2.25 Q78.75 -0.2 78.55 1.5 L78.6 2.3 78.6 2.55 79.75 2.75 80.55 2.8 80.75 2.85 80.0 5.95 79.55 7.9 79.3 7.7 79.3 7.9 79.3 9.6 77.3 10.55 72.7 10.8 71.85 10.75 Q73.2 9.15 72.6 8.45 L74.55 8.5 76.7 9.1 Q78.75 8.9 78.9 5.1 78.95 3.8 78.5 2.25 L77.8 0.25 76.5 -2.35 Q75.3 -2.95 73.5 -5.2 L71.8 -7.55 71.4 -7.6 70.9 -7.7 70.25 -7.65 Q69.65 -7.65 69.05 -8.1 68.45 -8.5 67.95 -8.55 67.55 -8.55 66.75 -9.2 66.4 -8.15 65.6 -8.25 65.0 -8.25 64.1 -8.9 L64.35 -8.6 64.9 -7.9 Q64.5 -7.4 64.05 -7.25 L62.75 -7.15 61.15 -7.65 59.6 -8.1 Q59.1 -8.15 58.6 -8.55 L58.05 -8.7 58.5 -8.55 Q60.65 -6.8 60.75 -6.05 L60.6 -5.45 59.85 -5.3 59.3 -5.35 59.8 -4.6 60.65 -3.7 Q60.3 -3.0 59.0 -2.75 L57.1 -2.65 57.95 -0.95 58.7 0.4 Q58.65 1.0 57.75 1.8 56.9 2.55 56.85 2.95 L57.2 3.8 Q57.6 4.4 57.55 5.2 57.55 5.3 58.7 6.2 59.1 6.8 58.9 7.55 L62.15 8.75 Q64.85 9.8 66.2 10.6 L65.85 10.7 Q64.25 11.4 63.8 11.85 L61.2 11.75 56.3 11.95 Q53.85 8.6 51.3 6.4 L51.2 6.25 52.3 6.2 Q52.6 6.05 52.65 5.35 52.7 4.35 52.5 4.75 51.1 3.6 49.35 3.25 48.75 3.15 48.8 1.25 48.85 0.6 49.55 0.5 50.15 0.55 50.2 -0.15 50.2 -0.7 49.8 -1.25 L49.4 -1.8 49.6 -2.2 Q49.8 -2.6 50.5 -2.55 51.4 -2.15 52.05 -2.1 53.4 -1.9 53.5 -3.6 53.5 -4.05 50.5 -6.6 L47.3 -9.45 47.7 -9.45 49.5 -8.75 51.45 -8.05 52.45 -8.25 52.8 -8.8 52.0 -10.05 52.45 -10.15 55.25 -9.8 Q56.7 -9.75 57.35 -10.6 L55.4 -12.55 55.2 -12.7 M58.3 -22.1 L58.65 -21.35 61.8 -21.05 63.05 -20.7 63.75 -20.25 Q64.2 -19.95 64.25 -19.45 L64.25 -19.25 64.2 -18.95 64.2 -18.8 64.2 -18.75 63.8 -17.95 63.15 -17.2 Q62.1 -16.15 62.1 -15.5 L62.2 -14.65 62.35 -14.4 63.7 -14.35 64.0 -14.85 Q67.1 -18.75 66.05 -20.65 65.1 -22.6 60.05 -22.8 L59.2 -22.8 Q58.6 -22.7 58.3 -22.1 M68.35 9.7 L68.65 8.6 Q67.5 2.7 66.7 0.95 L66.85 -1.9 66.95 -2.0 67.75 -2.2 69.15 -1.75 69.2 -1.65 69.2 -1.55 69.1 -1.4 69.05 -1.35 69.15 -1.05 Q68.15 -0.4 68.05 1.85 L68.35 4.25 68.85 9.5 68.35 9.7 M-25.25 -6.5 Q-26.05 -6.05 -27.55 -5.35 -30.6 -3.9 -31.35 -3.8 L-37.65 -3.1 -42.95 -2.3 Q-47.8 -0.45 -53.05 2.25 L-57.85 4.75 -57.95 4.5 -59.7 0.0 -60.05 -0.85 -59.75 -1.0 -56.55 -2.7 -56.45 -2.75 -56.1 -2.85 -56.0 -2.9 Q-53.85 -3.8 -53.8 -4.8 L-53.9 -5.65 -54.1 -5.6 -56.05 -6.15 -54.75 -6.35 -39.4 -8.35 -37.75 -8.55 -38.35 -7.8 Q-39.5 -7.3 -39.75 -6.3 L-39.6 -5.85 -38.8 -5.65 -28.4 -6.05 -25.2 -6.7 -25.25 -6.5" fill="#8f613d" fill-rule="evenodd" stroke="none"/>
    <path d="M77.3 10.55 Q73.8 12.4 72.55 14.05 72.25 13.75 72.25 13.35 L72.1 14.05 72.05 14.6 Q71.2 13.45 69.1 12.75 L69.7 11.5 69.9 11.25 70.55 10.45 71.0 10.7 71.1 10.7 71.85 10.75 72.7 10.8 77.3 10.55 M66.2 10.6 Q64.85 9.8 62.15 8.75 L58.9 7.55 Q59.1 6.8 58.7 6.2 57.55 5.3 57.55 5.2 57.6 4.4 57.2 3.8 L56.85 2.95 Q56.9 2.55 57.75 1.8 58.65 1.0 58.7 0.4 L57.95 -0.95 57.1 -2.65 59.0 -2.75 Q60.3 -3.0 60.65 -3.7 L59.8 -4.6 59.3 -5.35 59.85 -5.3 60.6 -5.45 60.75 -6.05 Q60.65 -6.8 58.5 -8.55 L58.05 -8.7 58.6 -8.55 Q59.1 -8.15 59.6 -8.1 L61.15 -7.65 62.75 -7.15 64.05 -7.25 Q64.5 -7.4 64.9 -7.9 L64.35 -8.6 64.1 -8.9 Q65.0 -8.25 65.6 -8.25 66.4 -8.15 66.75 -9.2 67.55 -8.55 67.95 -8.55 68.45 -8.5 69.05 -8.1 69.65 -7.65 70.25 -7.65 L70.9 -7.7 71.4 -7.6 71.8 -7.55 73.5 -5.2 Q75.3 -2.95 76.5 -2.35 L77.8 0.25 78.5 2.25 Q78.95 3.8 78.9 5.1 78.75 8.9 76.7 9.1 L74.55 8.5 72.6 8.45 72.0 8.55 71.95 8.35 Q73.3 8.25 74.75 6.5 76.6 4.25 75.3 1.8 75.0 1.1 72.75 -0.45 L70.15 -2.1 69.3 -1.85 69.2 -1.55 69.2 -1.65 69.15 -1.75 67.75 -2.2 66.95 -2.0 66.85 -1.9 66.7 0.95 Q67.5 2.7 68.65 8.6 L68.35 9.7 67.4 11.35 66.2 10.6" fill="#c9a686" fill-rule="evenodd" stroke="none"/>
    <path d="M71.95 2.0 Q73.3 2.05 73.35 3.5 73.4 5.0 72.0 6.6 71.6 6.2 71.2 6.2 L71.25 2.6 71.2 1.85 71.95 2.0" fill="#ff3333" fill-rule="evenodd" stroke="none"/>
    <path d="M51.3 6.4 L48.35 4.15 48.35 4.05 Q50.0 4.85 51.0 6.05 L51.2 6.25 51.3 6.4" fill="#8e6c24" fill-rule="evenodd" stroke="none"/>
    <path d="M54.05 11.9 L54.2 12.05 47.9 12.3 48.2 6.6 Q50.9 8.55 54.05 11.9 M45.45 8.2 L43.15 8.05 Q40.3 7.9 38.85 8.05 L33.6 7.65 29.1 7.45 27.5 4.85 27.45 4.8 27.55 3.1 29.85 2.95 34.0 2.75 Q41.55 3.05 45.3 4.85 L46.35 5.4 46.1 8.3 45.45 8.2" fill="#4d3c1a" fill-rule="evenodd" stroke="none"/>
    <path d="M69.6 14.75 Q70.95 14.8 71.65 19.4 71.6 20.65 70.1 21.1 L57.5 22.1 44.25 22.65 42.5 22.9 Q42.7 19.45 43.55 16.5 L43.9 15.05 Q52.75 15.6 54.4 14.9 56.15 14.15 69.6 14.75" fill="#aa8a71" fill-rule="evenodd" stroke="none"/>
    <path d="M16.5 14.7 Q16.25 15.6 16.25 16.7 L16.05 18.15 Q16.0 19.85 16.65 21.3 L17.3 22.4 Q15.2 22.45 13.7 23.45 L13.4 23.7 4.05 24.2 -1.45 23.65 3.1 20.65 Q9.35 16.5 10.15 15.55 9.75 16.6 9.65 19.25 L10.9 19.55 Q11.75 19.6 14.75 16.55 L16.5 14.7 M-2.45 20.45 L-4.15 22.1 Q-4.8 22.7 -4.95 23.5 L-7.05 23.55 -7.25 22.75 -2.55 20.1 -2.45 20.45" fill="#433416" fill-rule="evenodd" stroke="none"/>
    <path d="M22.2 -5.5 L22.2 -5.45 21.9 -5.4 22.2 -5.5 M-25.85 -3.45 L-25.9 -3.45 -25.85 -3.7 -25.85 -3.45" fill="#230f03" fill-rule="evenodd" stroke="none"/>
    <path d="M-25.25 -6.4 L-25.25 -6.5 -25.2 -6.7 -25.1 -6.7 -25.25 -6.4" fill="#371e14" fill-rule="evenodd" stroke="none"/>
    <path d="M27.65 9.8 L30.1 9.85 Q30.25 10.75 31.45 11.85 L33.25 13.3 Q33.85 14.4 33.75 17.45 33.65 21.35 32.0 22.8 32.1 20.75 29.95 17.35 27.8 13.85 26.15 13.75 L25.15 13.85 24.95 13.95 24.65 18.95 Q24.5 22.45 25.2 23.9 22.3 23.5 20.6 22.5 19.4 21.75 18.8 20.75 18.1 19.55 18.25 16.75 18.35 13.7 19.2 12.75 21.0 10.7 27.65 9.8" fill="#1f1a13" fill-rule="evenodd" stroke="none"/>
    <path d="M-60.4 4.65 Q-57.9 9.85 -56.55 11.15 L-59.4 13.7 Q-61.75 15.75 -61.75 16.45 -61.8 16.85 -61.15 17.55 L-59.35 19.0 -61.0 19.6 -61.55 19.9 -64.4 20.35 -67.6 20.85 Q-70.9 20.7 -73.7 18.65 -75.8 17.05 -75.8 16.5 -75.75 14.9 -74.45 12.85 -73.35 11.0 -71.7 9.4 -70.2 7.95 -64.3 6.15 -61.7 5.35 -60.4 4.65" fill="#372c22" fill-rule="evenodd" stroke="none"/>
    <path d="M41.95 13.2 L41.5 16.5 40.1 21.15 40.0 22.9 Q38.35 22.95 37.45 23.5 L34.85 24.05 35.5 22.45 35.7 17.8 Q35.9 13.45 35.6 12.45 35.05 10.8 33.45 9.95 L37.2 10.15 37.4 10.2 42.0 11.9 41.95 13.2 M26.2 23.8 Q27.05 21.55 27.2 17.8 L27.45 17.8 28.85 21.3 29.75 24.15 27.15 24.0 26.15 24.0 26.2 23.8" fill="#942403" fill-rule="evenodd" stroke="none"/>
  </g>
</svg>
