<?xml version="1.0" encoding="UTF-8" standalone="no"?>
<svg xmlns:ffdec="https://www.free-decompiler.com/flash" xmlns:xlink="http://www.w3.org/1999/xlink" ffdec:objectType="shape" height="68.0px" width="49.8px" xmlns="http://www.w3.org/2000/svg">
  <g transform="matrix(1.0, 0.0, 0.0, 1.0, 13.05, 35.3)">
    <path d="M21.75 -27.45 L21.3 -27.75 20.55 -28.4 20.05 -28.8 19.9 -28.9 19.55 -29.15 19.15 -29.45 18.15 -30.25 17.35 -30.85 16.1 -31.75 Q14.25 -33.05 13.8 -33.05 L11.65 -31.35 Q9.7 -29.65 9.25 -29.65 L7.9 -28.35 Q6.7 -27.1 6.35 -27.1 5.85 -27.1 5.85 -26.65 5.9 -26.25 5.3 -26.25 L4.2 -25.25 Q3.25 -24.15 3.0 -23.4 2.7 -22.3 3.25 -21.55 L3.6 -21.15 3.95 -20.7 4.2 -20.4 4.25 -20.3 4.3 -20.25 4.8 -19.55 5.8 -18.55 6.7 -17.85 6.8 -17.8 7.6 -17.25 9.6 -16.55 10.15 -16.45 10.25 -16.7 10.35 -16.65 10.9 -16.4 12.3 -16.15 12.95 -16.05 14.6 -15.8 17.8 -15.35 19.7 -15.15 20.65 -15.1 24.4 -15.45 Q27.85 -16.4 27.85 -19.15 27.85 -21.75 26.7 -23.55 L25.35 -25.0 25.3 -25.05 23.4 -26.4 22.55 -26.95 21.95 -27.35 21.75 -27.45 M26.75 -26.5 Q29.9 -23.65 29.9 -19.3 29.9 -17.6 29.4 -16.35 L33.1 -12.25 36.75 -7.5 Q36.75 -6.2 34.85 -3.85 33.15 -1.65 32.6 -1.65 32.0 -1.65 30.05 -3.35 L27.3 -5.8 26.25 -6.5 27.05 -4.6 28.5 -1.25 Q28.5 -0.05 27.15 0.5 L26.8 0.65 27.6 5.4 Q27.6 7.85 25.65 8.95 24.4 9.65 23.15 9.65 L17.4 9.0 16.75 9.05 Q15.65 9.05 14.3 8.1 L14.3 7.95 13.95 8.05 13.9 8.1 9.8 6.7 9.9 7.2 8.4 12.8 Q6.85 17.95 5.75 20.25 4.0 24.05 2.8 29.3 1.7 32.7 -1.8 32.7 -10.45 32.7 -12.5 29.3 -13.15 28.2 -13.05 26.75 L-12.85 25.2 Q-12.85 20.6 -10.05 8.95 -7.75 -0.5 -6.2 -3.1 L-6.5 -3.1 -6.2 -4.9 -6.4 -5.55 -6.15 -6.25 -5.8 -6.45 -5.05 -10.1 Q-4.45 -12.6 -3.75 -13.4 -4.25 -14.25 -4.1 -14.9 L-1.25 -21.0 Q0.55 -24.3 1.5 -24.3 L1.6 -24.3 Q2.3 -25.7 3.75 -27.35 L9.0 -32.45 Q11.95 -35.3 12.95 -35.3 14.35 -35.3 22.4 -29.3 L26.75 -26.5 M17.6 -12.55 Q18.65 -11.35 20.35 -6.7 22.7 -0.4 23.3 -0.4 L24.7 -0.8 25.7 -1.1 Q26.15 -0.3 26.15 -1.55 L24.1 -6.55 21.4 -12.85 21.35 -12.85 17.6 -13.15 17.6 -12.55 M11.75 -14.0 L10.95 -9.75 9.3 -2.85 Q12.1 -2.65 13.65 -1.75 L14.3 -1.75 14.75 -8.6 Q14.95 -11.15 15.65 -13.4 L11.75 -14.0 M1.95 -11.05 L4.5 -16.9 2.6 -18.55 1.3 -19.95 1.2 -20.15 0.45 -18.85 -1.8 -15.0 0.1 -12.95 1.85 -10.85 1.9 -10.8 1.95 -11.05 M6.05 -15.7 Q5.75 -13.65 4.6 -11.35 L2.7 -7.85 Q3.55 -7.9 5.25 -6.3 L7.1 -4.45 7.8 -4.6 7.85 -4.6 8.0 -5.1 9.05 -11.3 9.7 -14.45 Q7.4 -15.0 6.05 -15.7 M1.25 -9.55 Q0.4 -9.55 -1.9 -11.45 L-2.05 -11.55 -2.3 -11.4 Q-3.15 -10.85 -3.3 -9.25 -3.45 -7.25 -3.7 -6.65 L-4.35 -5.3 -3.05 -3.7 Q-0.45 -0.6 1.35 0.4 L8.3 4.0 Q9.8 4.6 14.85 6.0 20.55 7.5 22.3 7.5 L23.8 7.2 25.35 6.5 25.15 5.7 24.9 4.3 Q24.9 3.05 25.35 0.9 L24.25 1.45 Q23.3 2.0 22.7 2.0 21.25 2.0 18.6 -4.55 L17.3 -7.8 Q16.8 -2.35 15.3 0.4 13.3 0.4 11.9 -0.25 10.35 -1.0 7.0 -1.1 L7.3 -2.8 6.95 -3.25 6.6 -3.25 Q5.75 -3.25 3.1 -5.05 0.6 -6.75 0.25 -7.25 L1.3 -9.5 1.3 -9.55 1.25 -9.55 M25.85 -13.2 L24.0 -13.05 24.4 -12.2 24.85 -11.15 26.7 -9.15 Q29.8 -5.9 32.3 -4.25 L34.4 -6.5 Q34.4 -7.65 31.0 -11.6 L28.35 -14.65 Q27.4 -13.7 25.85 -13.2 M6.6 5.4 Q-1.0 2.2 -4.15 -1.5 L-4.55 -2.3 -7.65 9.0 Q-10.85 21.25 -10.85 25.25 -10.85 28.25 -10.3 28.85 -8.7 30.65 -1.95 30.65 0.2 30.65 1.1 28.0 L1.9 24.2 3.1 21.1 4.15 18.05 Q4.5 16.65 6.2 11.95 7.45 8.55 7.8 5.9 L6.6 5.4" fill="#000000" fill-rule="evenodd" stroke="none"/>
    <path d="M20.55 -28.4 L21.3 -27.75 21.75 -27.45 18.85 -25.3 15.65 -22.05 12.3 -18.6 Q11.2 -17.4 10.9 -16.4 L10.35 -16.65 10.25 -16.7 10.15 -16.45 9.6 -16.55 7.6 -17.25 8.05 -17.9 Q10.65 -21.1 13.35 -22.85 L17.25 -25.05 Q20.3 -26.95 20.55 -28.4 M23.4 -26.4 L25.3 -25.05 25.35 -25.0 25.1 -25.0 Q24.2 -25.0 22.4 -22.45 L20.75 -19.8 18.25 -16.8 Q17.65 -16.0 17.8 -15.35 L14.6 -15.8 12.95 -16.05 Q22.35 -24.65 23.4 -26.4 M26.7 -23.55 Q27.85 -21.75 27.85 -19.15 27.85 -16.4 24.4 -15.45 L20.65 -15.1 19.7 -15.15 22.2 -18.45 24.35 -21.6 26.7 -23.55 M5.8 -18.55 L4.8 -19.55 6.2 -21.1 7.7 -22.9 Q8.0 -22.9 10.55 -24.95 L13.65 -27.6 17.1 -29.5 18.15 -30.25 19.15 -29.45 17.35 -27.85 15.3 -25.75 14.1 -25.25 12.8 -24.8 Q12.3 -24.55 11.3 -23.7 L10.2 -22.8 Q8.15 -21.35 5.9 -18.7 L5.8 -18.55 M3.6 -21.15 L3.25 -21.55 Q2.7 -22.3 3.0 -23.4 3.25 -24.15 4.2 -25.25 L5.3 -26.25 Q5.9 -26.25 5.85 -26.65 5.85 -27.1 6.35 -27.1 6.7 -27.1 7.9 -28.35 L9.25 -29.65 Q9.7 -29.65 11.65 -31.35 L13.8 -33.05 Q14.25 -33.05 16.1 -31.75 L13.8 -30.35 9.45 -27.4 5.45 -23.6 Q4.15 -22.3 3.6 -21.15" fill="#333333" fill-rule="evenodd" stroke="none"/>
    <path d="M21.75 -27.45 L21.95 -27.35 22.55 -26.95 23.4 -26.4 Q22.35 -24.65 12.95 -16.05 L12.3 -16.15 10.9 -16.4 Q11.2 -17.4 12.3 -18.6 L15.65 -22.05 18.85 -25.3 21.75 -27.45 M25.35 -25.0 L26.7 -23.55 24.35 -21.6 22.2 -18.45 19.7 -15.15 17.8 -15.35 Q17.65 -16.0 18.25 -16.8 L20.75 -19.8 22.4 -22.45 Q24.2 -25.0 25.1 -25.0 L25.35 -25.0 M7.6 -17.25 L6.8 -17.8 6.7 -17.85 5.8 -18.55 5.9 -18.7 Q8.15 -21.35 10.2 -22.8 L11.3 -23.7 Q12.3 -24.55 12.8 -24.8 L14.1 -25.25 15.3 -25.75 17.35 -27.85 19.15 -29.45 19.55 -29.15 19.9 -28.9 20.05 -28.8 20.55 -28.4 Q20.3 -26.95 17.25 -25.05 L13.35 -22.85 Q10.65 -21.1 8.05 -17.9 L7.6 -17.25 M4.8 -19.55 L4.3 -20.25 4.25 -20.3 4.2 -20.4 3.95 -20.7 3.6 -21.15 Q4.15 -22.3 5.45 -23.6 L9.45 -27.4 13.8 -30.35 16.1 -31.75 17.35 -30.85 18.15 -30.25 17.1 -29.5 13.65 -27.6 10.55 -24.95 Q8.0 -22.9 7.7 -22.9 L6.2 -21.1 4.8 -19.55" fill="#1a1a1a" fill-rule="evenodd" stroke="none"/>
    <path d="M17.6 -12.55 L17.6 -13.15 21.35 -12.85 21.4 -12.85 24.1 -6.55 26.15 -1.55 Q26.15 -0.3 25.7 -1.1 L24.7 -0.8 23.3 -0.4 Q22.7 -0.4 20.35 -6.7 18.65 -11.35 17.6 -12.55 M1.85 -10.85 L0.1 -12.95 -1.8 -15.0 0.45 -18.85 1.2 -20.15 1.3 -19.95 2.6 -18.55 4.5 -16.9 1.95 -11.05 1.85 -10.85 M11.75 -14.0 L15.65 -13.4 Q14.95 -11.15 14.75 -8.6 L14.3 -1.75 13.65 -1.75 Q12.1 -2.65 9.3 -2.85 L10.95 -9.75 11.75 -14.0 M6.05 -15.7 Q7.4 -15.0 9.7 -14.45 L9.05 -11.3 8.0 -5.1 7.85 -4.6 7.8 -4.6 7.1 -4.45 5.25 -6.3 Q3.55 -7.9 2.7 -7.85 L4.6 -11.35 Q5.75 -13.65 6.05 -15.7 M25.85 -13.2 Q27.4 -13.7 28.35 -14.65 L31.0 -11.6 Q34.4 -7.65 34.4 -6.5 L32.3 -4.25 Q29.8 -5.9 26.7 -9.15 L24.85 -11.15 24.4 -12.2 24.0 -13.05 25.85 -13.2" fill="#221c15" fill-rule="evenodd" stroke="none"/>
    <path d="M6.6 5.4 L7.8 5.9 Q7.45 8.55 6.2 11.95 4.5 16.65 4.15 18.05 L3.1 21.1 1.9 24.2 1.1 28.0 Q0.2 30.65 -1.95 30.65 -8.7 30.65 -10.3 28.85 -10.85 28.25 -10.85 25.25 -10.85 21.25 -7.65 9.0 L-4.55 -2.3 -4.15 -1.5 Q-1.0 2.2 6.6 5.4" fill="#aa8a71" fill-rule="evenodd" stroke="none"/>
    <path d="M1.25 -9.55 L1.3 -9.5 0.25 -7.25 Q0.6 -6.75 3.1 -5.05 5.75 -3.25 6.6 -3.25 L6.95 -3.25 7.3 -2.8 7.0 -1.1 Q10.35 -1.0 11.9 -0.25 13.3 0.4 15.3 0.4 16.8 -2.35 17.3 -7.8 L18.6 -4.55 Q21.25 2.0 22.7 2.0 23.3 2.0 24.25 1.45 L25.35 0.9 Q24.9 3.05 24.9 4.3 L25.15 5.7 25.35 6.5 23.8 7.2 22.3 7.5 Q20.55 7.5 14.85 6.0 9.8 4.6 8.3 4.0 L1.35 0.4 Q-0.45 -0.6 -3.05 -3.7 L-4.35 -5.3 -3.7 -6.65 Q-3.45 -7.25 -3.3 -9.25 -3.15 -10.85 -2.3 -11.4 L-1.9 -11.45 Q0.4 -9.55 1.25 -9.55" fill="#942403" fill-rule="evenodd" stroke="none"/>
  </g>
</svg>
