<?xml version="1.0" encoding="UTF-8" standalone="no"?>
<svg xmlns:ffdec="https://www.free-decompiler.com/flash" xmlns:xlink="http://www.w3.org/1999/xlink" ffdec:objectType="shape" height="177.5px" width="509.2px" xmlns="http://www.w3.org/2000/svg">
  <g transform="matrix(1.0, 0.0, 0.0, 1.0, 240.25, 68.1)">
    <path d="M-227.7 1.7 L-219.95 1.35 Q-217.5 0.95 -198.0 1.25 L-189.95 0.9 -182.8 0.35 Q-183.0 -0.35 -182.8 -0.55 L-181.7 -1.6 Q-181.0 -2.05 -180.5 -2.1 -179.4 -2.45 -177.75 -1.6 L-176.3 -0.65 -176.3 -0.15 Q-176.1 0.7 -175.3 1.55 L-175.2 2.0 -166.7 9.45 Q-163.55 12.15 -157.75 16.15 -157.5 16.25 -157.2 16.45 -148.9 20.05 -145.9 21.95 -142.0 24.25 -126.4 28.35 L-125.1 28.65 Q-120.05 30.85 -111.35 33.75 -97.25 38.3 -87.0 40.65 -75.55 43.5 -68.9 44.55 L-43.75 48.8 -34.15 50.9 -25.25 52.9 -14.05 54.15 11.35 55.5 Q15.6 55.6 21.35 56.8 L31.15 56.85 34.65 57.3 35.15 56.9 40.8 57.3 47.45 57.65 49.05 57.5 75.9 56.6 80.85 56.9 81.1 56.7 81.25 56.3 103.2 55.3 Q150.55 52.8 166.6 47.2 173.8 44.75 180.3 41.5 183.95 39.7 192.7 34.65 199.4 30.75 204.6 17.7 209.25 5.75 208.35 -1.2 207.55 -6.9 203.75 -14.45 L203.3 -15.3 197.3 -23.5 190.7 -31.05 189.7 -32.05 187.95 -33.7 187.15 -34.8 179.65 -39.5 175.5 -42.65 170.95 -45.8 167.85 -48.7 Q166.95 -49.4 166.2 -49.35 L160.25 -53.35 Q152.1 -58.45 151.15 -59.2 L140.9 -65.05 Q136.65 -67.5 134.35 -67.5 L133.0 -67.3 Q133.4 -67.85 134.4 -67.75 L135.75 -68.1 137.45 -67.8 Q139.45 -67.3 144.05 -65.45 L147.6 -64.8 153.75 -61.9 162.6 -58.1 Q163.1 -57.2 170.0 -53.65 L179.0 -48.8 Q186.3 -44.05 193.75 -37.95 202.2 -31.2 205.9 -27.3 208.1 -25.0 213.35 -20.35 218.45 -15.9 218.9 -15.85 L219.5 -15.9 220.5 -14.65 225.1 -8.45 Q228.15 -4.1 229.5 -2.45 231.6 0.0 232.8 3.65 L234.4 9.7 Q235.7 14.55 236.75 21.8 L236.9 27.05 236.95 32.55 237.15 35.35 Q237.35 37.05 236.95 38.05 L235.9 39.7 Q235.85 41.9 235.2 43.7 L231.3 51.25 Q230.3 53.35 227.65 56.15 225.8 58.25 223.3 60.1 220.15 62.3 217.8 63.15 214.35 65.9 209.95 68.7 204.5 72.0 194.6 76.4 L176.9 83.75 Q170.65 86.25 167.15 87.05 160.8 88.6 147.8 90.1 141.65 91.75 131.45 93.05 111.45 95.7 84.95 95.05 L45.5 92.7 41.9 92.4 21.7 90.5 5.0 88.15 4.7 88.05 Q-7.3 87.9 -13.25 86.1 -19.45 84.15 -34.9 80.3 L-44.45 77.2 Q-49.65 75.3 -57.2 74.5 -62.45 73.95 -67.55 71.95 L-74.6 68.85 Q-76.45 68.05 -87.95 64.35 -98.25 60.95 -104.05 57.95 L-107.35 56.4 Q-115.65 55.0 -126.55 50.4 L-131.65 48.1 -135.4 47.0 Q-139.85 45.55 -147.35 41.8 -155.25 37.8 -159.15 36.45 -166.3 33.85 -172.45 30.85 L-182.2 25.9 -193.5 20.75 Q-199.7 17.7 -205.85 13.9 -207.7 12.75 -213.75 9.95 -219.9 7.05 -221.05 6.35 L-226.85 2.2 -227.7 1.7 M163.75 -47.25 L163.55 -47.3 159.95 -50.05 154.95 -53.65 158.7 -51.25 Q161.8 -49.15 163.75 -47.25 M134.6 -65.0 L132.85 -66.0 132.85 -66.1 134.6 -65.0 M-174.9 36.95 Q-175.1 36.8 -175.2 36.8 L-174.75 36.5 -174.9 36.95 M-192.3 28.9 L-192.7 28.8 Q-196.15 27.35 -204.85 22.6 L-215.65 16.8 Q-204.5 21.7 -199.1 25.15 L-192.3 28.9 M-238.15 4.1 L-240.25 3.1 -239.7 1.95 -239.7 2.15 Q-239.7 2.8 -238.15 4.1 M-239.1 1.35 L-238.55 0.8 -237.8 0.6 Q-238.65 0.85 -239.0 1.2 L-239.1 1.35 M182.2 -34.4 L181.9 -34.7 182.25 -34.5 182.2 -34.4 M227.45 24.2 L227.0 26.15 227.05 26.2 227.55 24.7 227.45 24.2 M108.3 91.7 L106.25 91.9 108.8 91.9 108.55 91.8 108.3 91.7 M-185.15 28.15 L-185.85 27.7 -185.05 27.85 -185.15 28.15" fill="#60606c" fill-opacity="0.49803922" fill-rule="evenodd" stroke="none"/>
    <path d="M-176.3 -0.65 L-176.3 -0.8 -176.2 -1.1 -175.75 -1.25 -174.55 -1.45 Q-173.5 -1.45 -172.6 -0.65 L-170.8 1.0 Q-167.6 3.3 -160.75 3.35 -158.4 3.35 -158.0 1.7 L-158.0 -0.85 Q-157.8 -1.8 -156.4 -2.4 L-147.35 -2.4 -137.9 -2.1 Q-137.85 -0.7 -137.5 -0.35 L-137.25 -0.05 -137.35 0.1 -136.8 0.25 Q-136.1 0.55 -135.5 1.35 L-135.4 1.5 Q-134.85 2.25 -134.7 3.15 -134.45 3.95 -133.25 4.9 L-131.45 6.4 -127.95 9.3 Q-125.4 11.3 -123.0 12.35 L-121.4 13.05 Q-118.9 15.0 -116.9 15.9 -112.15 19.1 -108.6 20.45 L-104.35 22.4 Q-95.3 25.55 -84.6 27.75 L-76.9 30.35 -60.5 35.05 Q-51.65 37.9 -44.05 38.45 -32.75 40.75 -16.85 42.6 9.4 45.45 42.3 46.1 83.4 46.9 102.5 44.7 112.5 43.6 116.25 41.95 L127.15 39.35 137.55 36.7 Q148.9 34.1 156.55 31.1 163.75 28.2 171.65 23.25 178.8 18.8 184.15 7.25 189.2 -3.75 188.3 -10.95 L187.9 -13.5 Q188.25 -15.85 187.9 -18.15 187.4 -21.9 186.25 -24.4 L180.25 -34.0 Q178.75 -36.15 170.85 -41.7 L168.4 -43.85 166.65 -45.45 165.8 -45.65 Q165.3 -47.1 163.75 -47.25 161.8 -49.15 158.7 -51.25 L154.95 -53.65 150.5 -56.2 140.5 -61.65 135.55 -64.5 134.6 -65.0 132.85 -66.1 132.15 -66.55 133.0 -67.3 134.35 -67.5 Q136.65 -67.5 140.9 -65.05 L151.15 -59.2 Q152.1 -58.45 160.25 -53.35 L166.2 -49.35 Q166.95 -49.4 167.85 -48.7 L170.95 -45.8 175.5 -42.65 179.65 -39.5 187.15 -34.8 187.95 -33.7 189.7 -32.05 190.7 -31.05 197.3 -23.5 203.3 -15.3 203.75 -14.45 Q207.55 -6.9 208.35 -1.2 209.25 5.75 204.6 17.7 199.4 30.75 192.7 34.65 183.95 39.7 180.3 41.5 173.8 44.75 166.6 47.2 150.55 52.8 103.2 55.3 L81.25 56.3 81.1 56.7 80.85 56.9 75.9 56.6 49.05 57.5 47.45 57.65 40.8 57.3 35.15 56.9 34.65 57.3 31.15 56.85 21.35 56.8 Q15.6 55.6 11.35 55.5 L-14.05 54.15 -25.25 52.9 -34.15 50.9 -43.75 48.8 -68.9 44.55 Q-75.55 43.5 -87.0 40.65 -97.25 38.3 -111.35 33.75 -120.05 30.85 -125.1 28.65 L-126.4 28.35 Q-142.0 24.25 -145.9 21.95 -148.9 20.05 -157.2 16.45 -157.5 16.25 -157.75 16.15 -163.55 12.15 -166.7 9.45 L-175.2 2.0 -175.3 1.55 Q-176.1 0.7 -176.3 -0.15 L-176.3 -0.65 M182.2 -34.4 L182.25 -34.5 181.9 -34.7 182.2 -34.4 M-140.0 0.3 L-140.05 0.4 -139.8 0.3 -140.0 0.3" fill="#800000" fill-opacity="0.49803922" fill-rule="evenodd" stroke="none"/>
    <path d="M162.6 -58.1 L182.4 -49.55 Q184.95 -48.35 192.55 -42.95 200.45 -37.35 204.25 -35.45 L204.75 -35.2 204.8 -35.15 214.7 -27.85 215.75 -26.95 218.75 -24.85 220.15 -23.5 Q221.4 -22.5 223.05 -21.85 245.5 -5.85 255.35 6.1 266.1 19.05 268.55 35.2 270.45 47.95 263.2 60.45 257.4 70.3 248.15 77.05 L234.45 87.35 Q225.5 93.8 218.85 96.4 L207.15 99.95 Q197.7 102.6 190.4 104.1 186.05 105.0 181.25 106.25 L175.15 107.75 154.3 109.0 Q131.65 109.75 108.65 109.15 78.6 108.25 58.15 105.8 L41.0 103.0 32.45 101.85 31.9 101.75 19.45 99.95 -3.9 95.1 Q-11.75 93.5 -16.35 91.75 L-23.55 88.8 -28.05 87.85 -36.8 85.5 -40.5 84.55 Q-49.3 82.95 -55.0 81.35 L-61.0 80.0 -64.95 78.6 -66.8 78.1 Q-74.25 76.1 -75.35 75.45 -76.0 75.1 -80.15 74.1 L-84.95 72.65 -86.6 71.8 Q-101.2 67.9 -111.55 64.45 -126.9 59.25 -142.05 52.25 L-170.65 38.95 -174.9 36.95 -174.75 36.5 -175.2 36.8 Q-187.75 30.95 -192.2 29.0 L-192.3 28.9 -199.1 25.15 Q-204.5 21.7 -215.65 16.8 -216.85 16.1 -218.0 15.45 -221.05 13.85 -227.1 9.7 L-229.1 8.65 -238.1 4.15 -238.15 4.1 Q-239.7 2.8 -239.7 2.15 L-239.7 1.95 -239.35 1.55 -239.1 1.4 -239.1 1.35 -239.0 1.2 Q-238.65 0.85 -237.8 0.6 L-234.7 0.5 -231.25 1.1 -227.9 1.7 -227.7 1.7 -226.85 2.2 -221.05 6.35 Q-219.9 7.05 -213.75 9.95 -207.7 12.75 -205.85 13.9 -199.7 17.7 -193.5 20.75 L-182.2 25.9 -172.45 30.85 Q-166.3 33.85 -159.15 36.45 -155.25 37.8 -147.35 41.8 -139.85 45.55 -135.4 47.0 L-131.65 48.1 -126.55 50.4 Q-115.65 55.0 -107.35 56.4 L-104.05 57.95 Q-98.25 60.95 -87.95 64.35 -76.45 68.05 -74.6 68.85 L-67.55 71.95 Q-62.45 73.95 -57.2 74.5 -49.65 75.3 -44.45 77.2 L-34.9 80.3 Q-19.45 84.15 -13.25 86.1 -7.3 87.9 4.7 88.05 L5.0 88.15 21.7 90.5 41.9 92.4 45.5 92.7 84.95 95.05 Q111.45 95.7 131.45 93.05 141.65 91.75 147.8 90.1 160.8 88.6 167.15 87.05 170.65 86.25 176.9 83.75 L194.6 76.4 Q204.5 72.0 209.95 68.7 214.35 65.9 217.8 63.15 220.15 62.3 223.3 60.1 225.8 58.25 227.65 56.15 230.3 53.35 231.3 51.25 L235.2 43.7 Q235.85 41.9 235.9 39.7 L236.95 38.05 Q237.35 37.05 237.15 35.35 L236.95 32.55 236.9 27.05 236.75 21.8 Q235.7 14.55 234.4 9.7 L232.8 3.65 Q231.6 0.0 229.5 -2.45 228.15 -4.1 225.1 -8.45 L220.5 -14.65 219.5 -15.9 218.9 -15.85 Q218.45 -15.9 213.35 -20.35 208.1 -25.0 205.9 -27.3 202.2 -31.2 193.75 -37.95 186.3 -44.05 179.0 -48.8 L170.0 -53.65 Q163.1 -57.2 162.6 -58.1 M108.3 91.7 L108.55 91.8 108.8 91.9 106.25 91.9 108.3 91.7 M227.45 24.2 L227.55 24.7 227.05 26.2 227.0 26.15 227.45 24.2 M-185.15 28.15 L-185.05 27.85 -185.85 27.7 -185.15 28.15 M-211.6 15.6 L-211.45 15.3 -211.95 15.45 Q-211.8 15.4 -211.6 15.6" fill="#898996" fill-opacity="0.49803922" fill-rule="evenodd" stroke="none"/>
  </g>
</svg>
