<?xml version="1.0" encoding="UTF-8" standalone="no"?>
<svg xmlns:ffdec="https://www.free-decompiler.com/flash" xmlns:xlink="http://www.w3.org/1999/xlink" ffdec:objectType="shape" height="42.65px" width="206.0px" xmlns="http://www.w3.org/2000/svg">
  <g transform="matrix(1.0, 0.0, 0.0, 1.0, 103.0, 21.3)">
    <path d="M11.25 -19.55 L13.05 -19.3 16.25 -18.65 Q17.45 -17.8 18.8 -17.3 L21.65 -16.6 Q25.3 -15.85 28.2 -14.45 L32.2 -12.35 36.7 -10.45 41.75 -8.55 42.55 -8.1 52.2 -7.8 73.8 -5.5 73.95 -2.2 75.05 -2.25 87.7 -2.25 94.85 -1.25 Q95.1 -1.65 95.55 -1.65 L96.65 -3.2 Q97.9 -4.9 99.95 -4.55 L100.2 -4.55 100.3 -4.2 102.3 -4.15 103.0 9.7 102.75 12.9 Q102.45 15.55 102.45 17.0 L102.55 17.25 102.35 18.0 Q102.05 18.45 101.2 18.45 L101.05 18.45 86.45 18.45 86.05 18.45 78.55 19.0 66.15 19.45 Q44.7 19.75 29.1 19.4 L8.05 19.1 -1.0 19.6 -6.6 20.1 -24.5 19.3 Q-25.3 19.8 -26.45 20.1 L-42.15 20.1 Q-42.75 20.5 -43.6 20.5 L-44.55 20.4 -44.8 20.2 -47.8 20.5 -48.05 20.5 Q-48.4 21.35 -49.95 21.35 -59.6 21.35 -66.3 17.9 -70.4 15.75 -72.35 13.1 -74.8 9.75 -75.1 7.8 L-75.0 4.5 -78.6 4.25 -78.2 5.95 Q-78.2 6.45 -79.3 6.6 L-88.85 6.85 -98.4 7.35 -99.85 7.85 Q-102.5 7.85 -103.0 2.6 L-103.0 -2.8 -103.0 -9.75 Q-102.15 -11.95 -97.45 -11.85 -93.55 -11.75 -89.7 -10.4 L-84.9 -9.55 Q-80.55 -8.7 -78.2 -7.75 L-78.2 -4.3 -74.2 -3.95 -74.15 -4.15 Q-73.6 -5.75 -70.7 -10.65 -68.7 -14.15 -62.45 -17.65 -55.9 -21.4 -52.3 -20.35 L-52.45 -20.3 -51.95 -20.3 -41.45 -20.35 Q-39.9 -21.7 -35.45 -21.15 -28.15 -19.7 -25.35 -19.55 -23.0 -19.15 -21.7 -17.75 L-20.8 -16.4 Q-19.9 -17.15 -16.4 -17.9 -12.55 -18.75 -6.55 -19.2 L-5.8 -19.55 -5.05 -19.4 -4.95 -19.35 2.65 -19.75 8.9 -19.6 10.95 -19.45 11.25 -19.55 M13.1 -16.7 Q13.25 -15.0 14.0 -15.0 L17.95 -15.4 17.95 -16.0 13.1 -17.3 13.1 -16.7 M10.55 -17.8 L9.35 -17.95 9.25 -17.35 9.0 -15.6 9.0 -15.45 9.25 -14.15 9.25 -13.9 Q9.6 -12.75 10.55 -11.9 13.0 -9.6 19.05 -9.6 21.65 -9.6 23.1 -11.85 L24.4 -13.75 20.5 -15.15 Q20.0 -13.15 15.8 -13.15 12.25 -13.15 11.05 -15.9 10.65 -16.85 10.55 -17.8 M0.95 -17.0 L6.85 -17.0 6.9 -18.05 1.05 -17.95 0.95 -17.0 M6.85 -15.3 L0.55 -15.3 0.55 -6.05 2.9 -6.05 3.55 -6.65 8.15 -6.8 Q7.45 -7.65 7.1 -9.45 L6.8 -13.05 6.9 -14.65 6.85 -15.3 M24.9 -4.65 L27.65 -3.85 27.65 -3.9 27.5 -5.0 27.5 -5.6 Q27.5 -6.5 27.8 -6.7 L28.15 -6.85 Q28.15 -9.7 27.45 -10.8 L27.45 -12.55 26.25 -13.05 Q25.8 -11.85 24.15 -10.2 21.65 -7.75 19.25 -7.75 12.4 -7.75 9.3 -10.2 L9.7 -9.25 10.55 -6.9 10.55 -6.8 19.0 -6.55 19.1 -6.55 19.15 -6.65 20.2 -6.45 21.25 -6.4 21.45 -6.4 Q21.65 -6.35 21.65 -5.6 L21.65 -5.35 21.8 -5.35 21.9 -5.5 23.2 -5.3 23.5 -5.15 25.55 -4.85 24.9 -4.8 24.65 -4.75 24.9 -4.65 M4.55 -4.5 L3.95 -4.35 2.3 -3.6 Q-1.35 -2.05 -2.95 -0.4 L-4.5 1.3 -2.35 1.65 5.75 3.15 Q11.45 4.45 13.75 3.85 13.75 0.5 14.75 -4.95 L4.55 -4.65 4.5 -4.65 4.55 -4.5 M11.45 6.05 Q16.4 7.65 16.4 8.75 16.4 9.6 14.85 12.7 13.3 15.9 12.7 15.9 L7.95 14.95 Q4.05 14.0 2.8 14.0 L7.95 17.15 Q11.7 17.05 16.45 17.1 16.55 16.1 17.55 14.3 L19.0 11.25 Q19.55 8.95 19.55 5.6 L19.3 -1.1 19.05 -4.95 16.9 -4.95 16.9 -4.1 16.35 -0.1 Q15.75 3.6 15.7 5.6 L13.2 5.75 11.5 5.75 10.05 5.65 11.45 6.05 M30.25 -11.3 L29.9 -11.45 30.05 -10.9 30.65 -7.3 30.65 -4.9 30.35 -4.95 30.35 -4.85 30.35 -3.5 38.4 -1.35 42.3 -0.35 42.1 -2.45 42.1 -3.85 42.05 -4.15 Q41.7 -6.0 38.75 -7.55 36.25 -8.9 30.65 -11.1 L30.25 -11.3 M40.8 1.35 L33.3 -0.45 24.4 -2.3 Q23.0 -2.6 22.3 -3.0 L21.8 -3.3 21.85 -2.85 Q22.0 -0.75 21.65 2.85 21.65 9.1 21.35 10.75 20.75 14.15 18.5 17.15 L32.85 17.4 47.25 17.85 49.25 17.8 51.95 14.05 Q52.65 13.15 52.65 11.1 52.65 3.4 47.3 2.75 L43.4 1.95 43.3 1.95 40.8 1.35 M44.3 -6.25 L44.45 -5.5 44.45 0.05 45.95 0.3 48.55 0.9 Q48.75 -0.6 49.6 -2.55 L49.9 -3.2 Q50.75 -5.0 51.45 -5.5 L52.05 -5.3 52.35 -5.65 43.6 -6.65 43.75 -6.2 44.3 -6.25 M53.9 -4.35 L53.1 -2.95 58.1 -1.9 62.55 -1.0 64.45 -0.95 64.45 -4.6 54.9 -5.4 53.9 -4.35 M52.0 -1.25 L57.6 -1.15 55.2 -2.15 52.5 -2.8 52.0 -1.25 M71.45 13.25 L71.4 11.0 71.5 7.45 Q71.65 6.15 71.95 5.3 L71.75 5.2 71.7 4.5 71.8 1.6 Q71.7 0.45 71.75 -1.3 L71.8 -4.15 67.05 -4.4 Q67.0 -2.0 66.45 -0.65 L66.6 -0.65 66.75 2.2 67.1 2.4 67.05 2.85 66.75 2.7 66.75 4.25 66.45 9.25 66.1 17.35 72.05 17.2 72.1 17.2 72.05 17.1 Q71.65 16.1 71.5 14.6 L71.45 14.0 71.45 13.35 71.45 13.25 M97.5 -0.8 L97.45 -0.75 97.6 -0.65 100.95 2.05 Q100.75 -0.7 99.9 -2.9 L97.5 -0.8 M73.75 6.6 L73.75 10.15 73.85 10.15 76.65 10.15 76.1 9.15 77.15 10.2 77.85 10.2 77.9 10.45 78.3 10.4 Q82.3 10.25 100.75 10.85 L100.9 9.6 101.05 4.1 100.8 4.1 Q98.8 4.1 96.6 2.0 L95.05 0.3 94.85 0.2 93.75 0.35 88.15 0.0 73.95 -0.5 73.95 0.65 73.85 6.6 73.75 6.55 73.75 6.6 M64.15 1.15 L63.65 1.15 64.2 1.3 64.35 1.35 64.45 1.15 64.15 1.15 M64.25 1.7 L61.9 0.8 58.5 0.95 53.75 0.55 51.35 0.25 50.65 1.7 Q51.95 2.3 52.85 3.1 53.75 3.9 54.25 4.85 54.65 5.65 54.85 7.35 L62.45 7.0 63.7 7.0 63.75 4.65 Q63.85 2.85 64.25 1.7 M63.8 13.2 L63.7 9.0 55.0 9.0 55.0 10.85 54.85 13.15 55.3 13.05 63.8 13.4 63.8 13.2 M63.85 15.55 L62.05 15.5 59.4 15.35 54.45 15.05 54.3 15.4 Q53.75 16.9 52.9 17.7 L64.15 17.4 63.9 16.3 63.85 15.55 M73.75 17.6 L73.75 17.35 73.5 17.55 73.75 17.6 M13.8 9.25 L-3.65 3.15 -6.2 3.2 -7.7 5.1 -9.1 7.9 -0.9 10.75 Q8.15 13.6 11.95 13.6 12.5 13.6 13.15 11.7 L13.8 9.25 M-94.7 -9.15 L-100.95 -9.15 -100.95 3.75 -100.35 4.85 -99.7 5.85 -98.1 5.25 -92.95 5.05 -87.55 5.15 -80.8 5.15 -80.8 2.35 -80.65 2.15 -80.3 2.0 -80.3 -0.05 Q-80.3 -2.7 -79.8 -3.35 L-79.55 -3.6 Q-80.45 -4.05 -80.4 -5.0 -80.1 -6.3 -80.3 -6.8 -86.85 -7.4 -88.35 -7.9 L-90.35 -8.5 -94.7 -9.15 M-61.1 -13.55 L-61.05 -13.55 -60.45 -14.6 -58.25 -17.1 -58.2 -17.15 -58.1 -17.2 -58.05 -17.25 -58.0 -17.3 -57.95 -17.35 -56.95 -18.0 Q-55.8 -18.75 -54.4 -19.05 L-54.35 -19.1 -54.45 -19.15 -54.4 -19.55 -57.2 -18.4 Q-64.3 -15.1 -68.2 -10.3 L-68.9 -9.45 Q-72.95 -4.05 -72.95 2.9 L-72.95 3.4 Q-72.8 9.65 -69.6 12.75 -65.3 16.9 -53.9 19.2 L-56.2 17.65 Q-60.3 14.6 -61.25 12.5 L-63.9 6.65 Q-64.45 5.1 -64.45 2.2 -64.45 -4.7 -62.6 -10.1 L-61.1 -13.55 M-78.2 -2.4 L-78.2 2.35 -75.0 2.35 -74.6 -2.3 -78.2 -2.4 M-57.6 -14.8 Q-60.15 -12.15 -61.2 -8.35 -61.8 -6.25 -62.1 -2.35 L-62.3 2.1 Q-62.3 7.05 -59.5 11.5 -55.95 17.2 -49.05 19.15 L-47.8 18.6 -45.65 18.35 -43.95 18.35 -43.6 17.7 Q-42.8 16.35 -42.8 15.25 L-42.8 10.5 Q-42.8 8.45 -42.25 5.5 -41.7 2.55 -41.7 1.45 L-42.05 -7.1 -42.6 -17.55 -42.7 -18.65 -52.8 -18.65 Q-52.8 -18.2 -56.15 -16.15 L-57.6 -14.8 M-22.0 -13.45 L-21.95 -14.45 Q-22.9 -18.55 -40.25 -19.1 L-40.2 -17.75 -40.1 -12.8 Q-34.95 -16.45 -31.8 -11.0 -31.25 -9.8 -31.2 -7.55 L-30.5 -7.5 -30.2 -7.45 -30.15 -7.35 -26.55 -7.8 -23.25 -8.15 -22.7 -8.15 -22.35 -8.75 Q-22.65 -9.6 -22.45 -10.7 L-22.0 -13.45 M-34.45 -10.6 L-34.6 -10.4 Q-35.55 -9.95 -36.7 -8.7 -37.95 -10.75 -38.8 -10.9 L-38.85 -10.45 -37.55 -7.7 Q-38.85 -6.15 -38.85 -5.35 -38.85 -4.1 -38.6 -4.65 L-36.65 -6.3 Q-35.55 -4.95 -34.1 -4.15 L-33.85 -4.45 -35.8 -7.15 Q-34.35 -8.9 -34.35 -9.85 L-34.45 -10.6 M-23.25 5.35 L-23.1 5.5 Q-22.55 4.0 -22.7 3.15 L-23.25 -1.05 Q-23.25 -3.85 -22.7 -5.4 L-22.7 -6.4 Q-24.65 -5.8 -27.35 -5.45 L-30.55 -5.15 -31.85 -1.7 Q-33.1 1.6 -31.85 5.1 L-23.7 5.35 -23.45 5.4 -23.35 5.45 -23.25 5.35 M-20.05 -14.9 L-20.05 -7.75 -20.5 -7.55 -20.65 -7.45 -20.6 -7.3 -20.65 -7.25 -20.6 -3.45 Q-19.7 -4.25 -18.5 -4.65 L-10.55 -5.85 -1.35 -6.05 -1.55 -7.25 -1.6 -10.55 -1.55 -12.55 -1.55 -12.65 -1.7 -12.55 Q-5.3 -8.55 -11.1 -8.55 -15.55 -8.55 -17.95 -10.55 -19.2 -11.5 -19.55 -12.55 L-19.55 -15.0 -19.8 -14.9 -20.05 -14.95 -20.05 -14.9 M-1.35 -17.85 L-4.8 -17.7 Q-5.05 -16.55 -5.95 -15.55 -7.6 -13.65 -10.85 -13.65 L-13.0 -14.05 -14.25 -14.8 -14.25 -16.45 -14.35 -16.45 -17.2 -15.75 -17.25 -15.45 -17.45 -14.0 Q-17.45 -12.6 -16.1 -11.65 -14.4 -10.4 -10.85 -10.4 -5.4 -10.4 -2.7 -15.25 L-1.35 -17.85 M-12.25 -16.85 L-12.3 -16.85 -12.2 -16.6 -11.95 -15.4 Q-7.95 -16.05 -7.5 -17.45 L-12.25 -16.85 M-3.75 -2.25 L-2.2 -3.35 -0.75 -4.25 -11.1 -3.9 -15.65 -3.5 -17.95 -3.0 Q-19.0 -1.15 -20.6 -1.0 L-20.6 0.15 -20.75 3.8 Q-21.0 6.5 -21.75 7.75 L-21.7 9.5 Q-21.7 10.75 -22.7 15.1 L-22.95 17.55 -23.1 17.9 -22.95 17.9 -16.3 17.95 -12.5 18.05 Q-13.1 17.35 -13.2 16.45 -13.2 15.15 -12.2 11.0 -11.0 6.05 -9.75 3.95 -7.75 0.7 -3.75 -2.25 M-9.65 9.6 L-10.0 11.35 -11.2 18.1 -6.6 18.2 -1.05 17.7 4.55 17.3 -2.7 13.75 -6.7 11.7 -9.65 9.6 M-24.45 8.35 L-24.4 7.0 -28.0 7.1 -32.8 6.8 -32.75 7.65 Q-32.75 8.9 -33.25 10.6 -33.35 11.2 -34.05 12.2 L-37.5 12.65 -40.7 12.95 -40.7 17.0 -40.95 18.35 -25.75 17.6 -25.15 16.65 Q-24.8 16.05 -24.8 15.65 -24.8 13.75 -24.3 12.2 -23.95 11.1 -24.45 8.35 M-34.45 3.4 L-34.6 3.6 Q-35.55 4.05 -36.7 5.3 -37.95 3.25 -38.8 3.1 L-38.85 3.55 -37.55 6.3 Q-38.85 7.85 -38.85 8.65 -38.85 9.9 -38.6 9.35 L-36.65 7.7 Q-35.55 9.05 -34.1 9.85 L-33.85 9.55 -35.8 6.85 Q-34.35 5.1 -34.35 4.15 -34.35 3.35 -34.45 3.4" fill="#000000" fill-rule="evenodd" stroke="none"/>
    <path d="M-56.95 -18.0 L-57.95 -17.35 -58.0 -17.3 -58.05 -17.25 -58.1 -17.2 -58.2 -17.15 -58.25 -17.1 -60.45 -14.6 -61.05 -13.55 -61.1 -13.55 -65.35 -11.6 -68.2 -10.3 Q-64.3 -15.1 -57.2 -18.4 L-56.95 -18.0 M-42.6 -17.55 L-48.75 -16.6 -57.6 -14.8 -56.15 -16.15 Q-52.8 -18.2 -52.8 -18.65 L-42.7 -18.65 -42.6 -17.55 M-40.2 -17.75 L-40.25 -19.1 Q-22.9 -18.55 -21.95 -14.45 L-22.0 -13.45 -22.15 -13.55 Q-25.95 -15.2 -26.95 -15.3 -30.4 -15.55 -34.65 -16.7 L-40.2 -17.75 M-20.6 0.15 L-20.6 -1.0 Q-19.0 -1.15 -17.95 -3.0 L-15.65 -3.5 -11.1 -3.9 -0.75 -4.25 -2.2 -3.35 -3.75 -2.25 -4.2 -2.25 -14.95 -1.65 -17.2 -0.75 -20.6 0.15" fill="#4b4b4b" fill-rule="evenodd" stroke="none"/>
    <path d="M24.9 -4.8 L25.55 -4.85 23.5 -5.15 23.2 -5.3 21.9 -5.5 21.8 -5.35 21.65 -5.35 21.65 -5.6 Q21.65 -6.35 21.45 -6.4 L21.25 -6.4 20.2 -6.45 19.15 -6.65 19.1 -6.55 19.0 -6.55 10.55 -6.8 10.55 -6.9 9.7 -9.25 9.3 -10.2 Q12.4 -7.75 19.25 -7.75 21.65 -7.75 24.15 -10.2 25.8 -11.85 26.25 -13.05 L27.45 -12.55 27.45 -10.8 Q28.15 -9.7 28.15 -6.85 L27.8 -6.7 Q27.5 -6.5 27.5 -5.6 L27.5 -5.0 27.65 -3.9 27.65 -3.85 24.9 -4.65 24.9 -4.8 M44.3 -6.25 L43.75 -6.2 43.6 -6.65 52.35 -5.65 52.05 -5.3 51.45 -5.5 Q50.75 -5.0 49.9 -3.2 L49.6 -2.55 Q48.75 -0.6 48.55 0.9 L45.95 0.3 44.45 0.05 44.45 -5.5 44.3 -6.25 M-61.1 -13.55 L-62.6 -10.1 Q-64.45 -4.7 -64.45 2.2 -64.45 5.1 -63.9 6.65 L-61.25 12.5 Q-60.3 14.6 -56.2 17.65 L-53.9 19.2 Q-65.3 16.9 -69.6 12.75 -72.8 9.65 -72.95 3.4 L-72.95 2.9 Q-72.95 -4.05 -68.9 -9.45 L-68.2 -10.3 -65.35 -11.6 -61.1 -13.55 M-42.6 -17.55 L-42.05 -7.1 -41.7 1.45 Q-41.7 2.55 -42.25 5.5 -42.8 8.45 -42.8 10.5 L-42.8 15.25 Q-42.8 16.35 -43.6 17.7 L-43.95 18.35 -45.65 18.35 -47.8 18.6 -49.05 19.15 Q-55.95 17.2 -59.5 11.5 -62.3 7.05 -62.3 2.1 L-62.1 -2.35 Q-61.8 -6.25 -61.2 -8.35 -60.15 -12.15 -57.6 -14.8 L-48.75 -16.6 -42.6 -17.55 M-78.2 -2.4 L-74.6 -2.3 -75.0 2.35 -78.2 2.35 -78.2 -2.4 M-22.0 -13.45 L-22.45 -10.7 Q-22.65 -9.6 -22.35 -8.75 L-22.7 -8.15 -23.25 -8.15 -26.55 -7.8 -30.15 -7.35 -30.2 -7.45 -30.5 -7.5 -31.2 -7.55 Q-31.25 -9.8 -31.8 -11.0 -34.95 -16.45 -40.1 -12.8 L-40.2 -17.75 -34.65 -16.7 Q-30.4 -15.55 -26.95 -15.3 -25.95 -15.2 -22.15 -13.55 L-22.0 -13.45 M-1.55 -12.55 L-1.6 -10.55 -1.55 -7.25 -1.35 -6.05 -10.55 -5.85 -18.5 -4.65 Q-19.7 -4.25 -20.6 -3.45 L-20.65 -7.25 -20.6 -7.3 -20.65 -7.45 -20.5 -7.55 -20.05 -7.75 -20.05 -14.9 -19.8 -14.9 -19.55 -15.0 -19.55 -12.55 Q-19.2 -11.5 -17.95 -10.55 -15.55 -8.55 -11.1 -8.55 -5.3 -8.55 -1.7 -12.55 L-1.55 -12.55 M-20.6 0.15 L-17.2 -0.75 -14.95 -1.65 -4.2 -2.25 -3.75 -2.25 Q-7.75 0.7 -9.75 3.95 -11.0 6.05 -12.2 11.0 -13.2 15.15 -13.2 16.45 -13.1 17.35 -12.5 18.05 L-16.3 17.95 -22.95 17.9 -22.95 17.55 -22.7 15.1 Q-21.7 10.75 -21.7 9.5 L-21.75 7.75 Q-21.0 6.5 -20.75 3.8 L-20.6 0.15 M-24.45 8.35 Q-23.95 11.1 -24.3 12.2 -24.8 13.75 -24.8 15.65 -24.8 16.05 -25.15 16.65 L-25.75 17.6 -40.95 18.35 -40.7 17.0 -40.7 12.95 -37.5 12.65 -34.05 12.2 Q-33.35 11.2 -33.25 10.6 -32.75 8.9 -32.75 7.65 L-32.8 6.8 -28.0 7.1 -24.4 7.0 -24.45 8.35" fill="#333333" fill-rule="evenodd" stroke="none"/>
    <path d="M43.4 1.95 L47.3 2.75 Q52.65 3.4 52.65 11.1 52.65 13.15 51.95 14.05 L49.25 17.8 47.25 17.85 32.85 17.4 18.5 17.15 Q20.75 14.15 21.35 10.75 21.65 9.1 21.65 2.85 22.0 -0.75 21.85 -2.85 L21.8 -3.3 22.3 -3.0 Q23.0 -2.6 24.4 -2.3 L33.3 -0.45 40.8 1.35 40.9 1.65 43.3 1.95 43.4 1.95 M72.05 17.2 L72.05 17.1 72.1 17.2 72.05 17.2 M-23.7 5.35 L-31.85 5.1 Q-33.1 1.6 -31.85 -1.7 L-30.55 -5.15 -27.35 -5.45 Q-24.65 -5.8 -22.7 -6.4 L-22.7 -5.4 Q-23.25 -3.85 -23.25 -1.05 L-22.7 3.15 Q-22.55 4.0 -23.1 5.5 L-23.25 5.35 -23.7 5.35" fill="#aa8a71" fill-rule="evenodd" stroke="none"/>
    <path d="M0.95 -17.0 L1.05 -17.95 6.9 -18.05 6.85 -17.0 0.95 -17.0 M10.55 -17.8 Q10.65 -16.85 11.05 -15.9 12.25 -13.15 15.8 -13.15 20.0 -13.15 20.5 -15.15 L24.4 -13.75 23.1 -11.85 Q21.65 -9.6 19.05 -9.6 13.0 -9.6 10.55 -11.9 9.6 -12.75 9.25 -13.9 L9.25 -14.15 9.0 -15.45 9.0 -15.6 9.25 -17.35 9.35 -17.95 10.55 -17.8 M13.1 -16.7 L13.1 -17.3 17.95 -16.0 17.95 -15.4 14.0 -15.0 Q13.25 -15.0 13.1 -16.7 M30.05 -10.9 L30.25 -11.3 30.65 -11.1 Q36.25 -8.9 38.75 -7.55 41.7 -6.0 42.05 -4.15 L42.1 -3.85 42.1 -2.45 42.3 -0.35 38.4 -1.35 30.35 -3.5 30.35 -4.85 30.35 -4.95 30.65 -4.9 30.65 -7.3 30.05 -10.9 M97.6 -0.65 L97.5 -0.8 99.9 -2.9 Q100.75 -0.7 100.95 2.05 L97.6 -0.65 M73.85 6.6 L73.95 0.65 73.95 -0.5 88.15 0.0 93.75 0.35 94.85 0.2 95.05 0.3 96.6 2.0 Q98.8 4.1 100.8 4.1 L101.05 4.1 100.9 9.6 100.75 10.85 Q82.3 10.25 78.3 10.4 L77.9 10.45 77.85 10.2 77.15 10.2 76.1 9.15 76.65 10.15 73.85 10.15 73.75 10.15 73.75 6.6 73.85 6.6 M-1.35 -17.85 L-2.7 -15.25 Q-5.4 -10.4 -10.85 -10.4 -14.4 -10.4 -16.1 -11.65 -17.45 -12.6 -17.45 -14.0 L-17.25 -15.45 -17.2 -15.75 -14.35 -16.45 -14.25 -16.45 -14.25 -14.8 -13.0 -14.05 -10.85 -13.65 Q-7.6 -13.65 -5.95 -15.55 -5.05 -16.55 -4.8 -17.7 L-1.35 -17.85 M-12.25 -16.85 L-7.5 -17.45 Q-7.95 -16.05 -11.95 -15.4 L-12.2 -16.6 -12.25 -16.85" fill="#473612" fill-rule="evenodd" stroke="none"/>
    <path d="M6.85 -15.3 L6.9 -14.65 6.8 -13.05 7.1 -9.45 Q7.45 -7.65 8.15 -6.8 L3.55 -6.65 2.9 -6.05 0.55 -6.05 0.55 -15.3 6.85 -15.3" fill="#70551d" fill-rule="evenodd" stroke="none"/>
    <path d="M4.55 -4.65 L14.75 -4.95 Q13.75 0.5 13.75 3.85 11.45 4.45 5.75 3.15 L-2.35 1.65 -4.5 1.3 -2.95 -0.4 Q-1.35 -2.05 2.3 -3.6 L3.95 -4.35 4.55 -4.5 4.55 -4.65 M52.0 -1.25 L52.5 -2.8 55.2 -2.15 57.6 -1.15 52.0 -1.25 M53.9 -4.35 L54.9 -5.4 64.45 -4.6 64.45 -0.95 62.55 -1.0 58.1 -1.9 53.1 -2.95 53.9 -4.35 M63.85 15.55 L63.9 16.3 64.15 17.4 52.9 17.7 Q53.75 16.9 54.3 15.4 L54.45 15.05 59.4 15.35 62.05 15.5 63.85 15.55 M63.8 13.2 L63.8 13.4 55.3 13.05 54.85 13.15 55.0 10.85 55.0 9.0 63.7 9.0 63.8 13.2 M64.25 1.7 Q63.85 2.85 63.75 4.65 L63.7 7.0 62.45 7.0 54.85 7.35 Q54.65 5.65 54.25 4.85 53.75 3.9 52.85 3.1 51.95 2.3 50.65 1.7 L51.35 0.25 53.75 0.55 58.5 0.95 61.9 0.8 64.25 1.7 M13.8 9.25 L13.15 11.7 Q12.5 13.6 11.95 13.6 8.15 13.6 -0.9 10.75 L-9.1 7.9 -7.7 5.1 -6.2 3.2 -3.65 3.15 13.8 9.25 M-9.65 9.6 L-6.7 11.7 -2.7 13.75 4.55 17.3 -1.05 17.7 -6.6 18.2 -11.2 18.1 -10.0 11.35 -9.65 9.6" fill="#221c15" fill-rule="evenodd" stroke="none"/>
    <path d="M-34.45 -10.6 L-34.35 -9.85 Q-34.35 -8.9 -35.8 -7.15 L-33.85 -4.45 -34.1 -4.15 Q-35.55 -4.95 -36.65 -6.3 L-38.6 -4.65 Q-38.85 -4.1 -38.85 -5.35 -38.85 -6.15 -37.55 -7.7 L-38.85 -10.45 -38.8 -10.9 Q-37.95 -10.75 -36.7 -8.7 -35.55 -9.95 -34.6 -10.4 L-34.45 -10.6 M-34.45 3.4 Q-34.35 3.35 -34.35 4.15 -34.35 5.1 -35.8 6.85 L-33.85 9.55 -34.1 9.85 Q-35.55 9.05 -36.65 7.7 L-38.6 9.35 Q-38.85 9.9 -38.85 8.65 -38.85 7.85 -37.55 6.3 L-38.85 3.55 -38.8 3.1 Q-37.95 3.25 -36.7 5.3 -35.55 4.05 -34.6 3.6 L-34.45 3.4" fill="#ffffff" fill-rule="evenodd" stroke="none"/>
    <path d="M11.5 5.75 L13.2 5.75 15.7 5.6 Q15.75 3.6 16.35 -0.1 L16.9 -4.1 16.9 -4.95 19.05 -4.95 19.3 -1.1 19.55 5.6 Q19.55 8.95 19.0 11.25 L17.55 14.3 Q16.55 16.1 16.45 17.1 11.7 17.05 7.95 17.15 L2.8 14.0 Q4.05 14.0 7.95 14.95 L12.7 15.9 Q13.3 15.9 14.85 12.7 16.4 9.6 16.4 8.75 16.4 7.65 11.45 6.05 L11.5 5.75 M72.05 17.2 L66.1 17.35 66.45 9.25 66.75 4.25 66.75 2.7 67.05 2.85 67.1 2.4 66.75 2.2 66.6 -0.65 66.45 -0.65 Q67.0 -2.0 67.05 -4.4 L71.8 -4.15 71.75 -1.3 Q71.7 0.45 71.8 1.6 L71.7 4.5 71.75 5.2 71.95 5.3 Q71.65 6.15 71.5 7.45 L71.4 11.0 71.45 13.25 71.4 13.2 71.45 13.35 71.45 14.0 71.45 14.5 71.5 14.6 Q71.65 16.1 72.05 17.1 L72.05 17.2 M64.15 1.15 L64.45 1.15 64.35 1.35 64.2 1.3 64.15 1.15 M-94.7 -9.15 L-90.35 -8.5 -88.35 -7.9 Q-86.85 -7.4 -80.3 -6.8 -80.1 -6.3 -80.4 -5.0 -80.45 -4.05 -79.55 -3.6 L-79.8 -3.35 Q-80.3 -2.7 -80.3 -0.05 L-80.3 2.0 -80.65 2.15 -80.8 2.35 -80.8 5.15 -87.55 5.15 -92.95 5.05 -98.1 5.25 -99.7 5.85 -100.35 4.85 -100.95 3.75 -100.95 -9.15 -94.7 -9.15" fill="#942403" fill-rule="evenodd" stroke="none"/>
  </g>
</svg>
