<?xml version="1.0" encoding="UTF-8" standalone="no"?>
<svg xmlns:ffdec="https://www.free-decompiler.com/flash" xmlns:xlink="http://www.w3.org/1999/xlink" ffdec:objectType="shape" height="88.6px" width="170.55px" xmlns="http://www.w3.org/2000/svg">
  <g transform="matrix(1.0, 0.0, 0.0, 1.0, 0.5, 2.5)">
    <path d="M32.9 -0.75 Q32.4 -0.75 29.5 4.05 30.25 5.6 33.2 4.75 L35.1 4.5 Q35.45 1.9 37.7 0.4 L35.7 -0.1 32.9 -0.75 M30.15 -1.0 L30.55 -1.5 Q31.8 -2.95 34.55 -2.25 38.55 -1.2 39.05 -1.25 L39.5 -0.5 Q43.3 -1.8 47.35 2.3 L48.5 1.55 Q51.6 -0.7 53.85 1.15 55.5 2.5 55.5 3.85 L55.3 4.95 57.5 5.3 Q60.9 6.0 62.0 7.2 64.65 7.1 66.15 9.65 L66.8 10.95 Q68.45 10.15 73.55 10.5 L73.8 10.65 Q74.5 8.1 76.95 6.95 78.7 6.1 80.1 6.75 80.45 4.65 82.2 2.85 84.3 0.6 86.75 2.35 L86.8 2.2 Q88.8 -0.85 92.55 0.5 L92.7 0.6 Q94.05 -0.45 97.0 0.55 98.85 1.2 100.8 2.45 L102.5 3.8 106.25 4.2 Q108.6 4.8 110.55 6.0 112.15 7.0 112.45 7.7 L116.5 7.5 Q121.55 8.15 122.35 10.65 125.35 10.75 131.5 16.75 L131.45 16.95 134.25 17.9 Q138.0 19.4 138.0 20.65 L137.6 21.7 137.85 21.85 Q152.35 16.7 155.85 17.25 157.7 17.55 158.2 19.3 L158.4 20.55 Q159.9 20.25 162.0 21.15 167.5 23.45 167.5 27.75 L167.25 31.45 166.65 33.55 166.85 33.75 Q167.5 34.6 167.5 36.15 167.5 40.6 163.25 41.05 L159.55 41.45 Q157.45 41.9 156.3 43.3 L153.55 47.6 Q151.9 50.2 150.65 50.95 L151.15 51.95 Q153.15 55.25 156.25 57.3 L164.45 61.55 Q168.3 63.7 169.0 65.5 169.85 67.95 170.0 71.2 L170.0 76.5 Q170.0 78.1 167.5 79.8 164.3 82.0 159.25 82.0 L153.25 81.5 141.3 81.0 141.15 80.85 141.05 80.55 Q139.25 81.45 135.8 82.35 129.15 84.1 124.25 84.1 119.95 84.1 119.05 83.4 118.9 82.65 118.25 82.65 L105.65 82.85 102.6 83.3 96.0 84.1 91.05 84.7 87.75 85.1 Q85.85 85.1 84.45 84.25 83.0 83.35 75.9 83.35 72.95 83.35 65.95 84.75 L57.5 86.1 Q48.15 86.1 44.15 84.9 43.2 84.65 41.7 83.7 L41.0 84.2 39.5 84.9 27.9 85.8 17.5 86.1 Q6.2 86.1 2.05 81.1 0.0 78.65 0.0 75.2 0.0 68.6 2.75 64.55 3.7 63.1 5.0 62.0 L4.8 61.85 Q5.5 61.5 6.0 61.0 L6.0 61.15 Q6.8 60.55 7.75 60.05 6.25 58.8 5.85 57.9 5.5 57.15 5.5 54.65 5.5 51.85 6.9 50.15 7.85 49.05 10.5 47.55 L12.75 46.25 10.65 42.75 Q8.35 38.75 6.5 38.0 1.7 36.0 0.35 34.2 -0.5 33.05 -0.5 30.5 L-0.25 28.25 Q0.35 27.0 3.0 26.0 L3.15 26.05 Q3.4 24.65 4.25 23.0 5.55 20.5 7.5 19.0 L7.6 19.05 Q7.85 17.8 8.55 17.0 10.35 15.0 15.25 15.0 18.3 15.0 19.6 15.75 L19.5 13.6 Q19.5 12.3 20.0 11.6 L19.5 9.65 Q19.5 8.0 20.7 6.75 L22.65 4.55 22.5 3.8 Q22.5 1.65 23.8 0.9 24.8 0.3 29.5 -1.5 L30.15 -1.0 M162.35 33.2 L164.15 32.75 164.75 30.65 165.4 28.4 165.5 27.35 Q165.5 26.35 164.05 24.7 162.6 23.0 161.1 22.8 L160.9 22.75 160.8 22.75 158.55 22.75 158.5 23.1 158.5 23.75 158.5 24.45 158.75 24.55 Q160.6 25.3 161.65 27.55 162.8 30.05 162.25 33.05 L162.0 33.3 162.35 33.2 M149.2 48.35 L149.5 48.9 149.55 49.0 Q150.2 44.55 158.1 40.25 L163.7 37.4 Q166.0 36.15 165.5 35.55 L164.95 35.0 164.3 35.0 164.15 34.75 164.1 34.6 Q163.0 34.35 161.65 35.35 160.75 36.05 160.5 35.95 160.05 35.8 160.0 34.05 L160.25 32.85 160.5 31.25 Q160.5 30.65 159.6 29.25 L159.5 29.1 159.45 28.95 159.35 28.85 159.1 28.45 159.0 28.3 158.3 27.1 158.25 27.05 157.7 27.55 156.0 29.7 Q155.55 30.6 155.35 31.65 154.6 35.55 153.75 37.0 149.95 43.3 147.55 45.95 L148.05 46.6 149.2 48.35 M165.35 78.3 Q167.6 77.2 167.95 76.5 L168.0 76.25 Q168.0 67.55 165.4 64.85 164.1 63.5 161.05 61.85 L153.75 58.05 Q151.7 56.95 150.1 53.95 L147.15 48.5 Q144.6 44.6 139.85 42.95 137.35 42.05 134.3 41.85 L134.25 41.85 131.9 41.75 Q120.8 41.75 115.5 48.55 114.05 50.45 113.2 52.5 L113.35 52.5 Q118.0 52.6 119.55 55.7 L121.1 58.3 Q122.3 59.5 124.75 59.5 127.5 59.5 127.8 61.8 128.15 65.0 129.05 65.75 130.05 66.65 135.15 67.8 139.0 68.7 139.0 71.3 L138.95 72.4 138.75 72.75 139.75 73.65 Q142.0 75.8 142.0 76.4 L142.0 76.55 Q142.8 77.55 143.0 78.3 L143.65 78.45 143.45 78.6 143.1 78.95 143.65 78.9 146.8 78.75 148.95 78.4 151.5 78.0 Q155.1 78.0 156.2 78.9 157.25 79.75 159.15 79.75 162.2 79.75 165.3 78.3 L165.35 78.3 M149.9 20.15 L146.95 21.15 Q142.3 22.9 139.6 23.0 L141.0 24.2 Q142.8 25.85 143.55 27.1 L144.0 28.5 Q144.0 29.35 143.45 29.9 L143.15 30.15 143.25 30.25 Q146.4 32.2 146.5 34.5 147.5 35.55 147.5 36.8 L147.3 39.05 Q147.25 39.5 146.0 39.5 145.4 39.5 144.6 39.1 L145.5 43.5 145.1 43.75 145.25 43.85 146.3 44.7 149.65 38.95 Q153.25 32.9 153.95 30.75 L154.0 30.5 Q154.0 26.75 155.5 25.15 L155.95 24.8 156.0 24.7 Q156.5 24.15 156.5 23.5 L156.25 21.5 156.0 19.55 Q156.4 19.25 155.15 19.25 153.2 19.25 150.65 19.95 L149.9 20.15 M126.65 14.75 L124.5 13.0 Q123.15 13.0 122.45 13.9 L122.4 13.95 121.7 15.35 120.95 16.65 120.9 16.85 121.55 17.1 121.75 18.05 Q122.35 19.5 124.0 19.5 125.1 19.5 125.75 18.8 L127.0 19.4 127.0 19.25 Q127.0 18.4 127.55 18.05 L129.0 17.05 126.65 14.75 M130.05 18.8 L128.5 20.2 Q131.7 22.0 133.65 24.1 134.05 23.05 135.5 21.0 134.05 20.3 133.2 19.95 131.65 19.25 131.0 19.5 L130.15 19.25 130.05 18.8 M136.8 23.15 L136.7 23.25 134.95 25.7 Q136.35 27.8 136.5 30.2 138.1 28.35 140.65 29.05 140.4 28.5 140.6 28.45 L141.3 28.3 Q141.3 27.9 138.8 25.25 L136.8 23.15 M135.5 36.55 L135.45 36.8 Q134.75 38.95 133.95 40.15 140.25 40.95 144.1 43.15 L143.1 40.9 Q142.2 38.7 142.05 37.8 140.95 38.3 140.85 39.15 140.7 40.0 139.5 40.0 L137.25 39.55 Q135.95 39.0 135.5 38.3 L135.5 36.8 135.55 36.8 Q135.85 36.65 136.85 36.8 L138.75 37.0 Q139.25 37.0 139.65 36.25 140.1 35.5 141.75 35.5 143.35 35.5 145.1 36.6 L145.3 36.75 145.25 36.3 145.15 36.0 Q144.2 35.9 143.45 34.4 L142.5 32.3 Q140.95 30.5 139.05 30.6 L136.5 30.9 Q136.45 33.15 135.5 36.55 M126.7 28.95 Q127.75 26.05 129.3 24.95 128.95 24.6 128.45 24.5 126.95 24.15 125.0 25.65 120.0 29.4 120.0 37.75 L120.25 39.2 Q120.85 40.5 122.5 40.5 L123.4 39.0 Q124.1 39.5 125.25 39.5 L126.55 39.2 Q125.5 38.25 125.5 35.4 125.5 32.25 126.7 28.95 M112.6 11.75 L112.5 12.55 112.75 14.05 Q113.35 15.5 115.0 15.5 116.45 15.5 117.55 14.3 L117.65 14.25 119.0 15.05 119.5 14.95 119.6 14.35 Q119.75 12.4 120.5 11.5 L120.5 10.55 117.9 10.15 115.15 9.75 Q113.4 9.75 112.8 10.4 L112.35 10.9 112.4 11.15 112.5 11.65 112.6 11.75 M110.5 9.55 Q110.25 7.4 107.75 7.15 L107.6 7.15 Q105.75 5.75 104.9 5.75 103.6 5.75 102.25 6.6 L101.25 7.35 102.95 7.65 102.4 8.0 103.3 8.25 103.4 8.65 103.5 9.55 104.7 9.6 110.5 10.0 110.55 10.0 110.6 9.65 110.5 9.55 M107.6 13.35 L106.1 13.25 Q103.9 13.85 100.75 17.3 93.0 25.8 93.0 33.4 L93.0 36.3 Q93.4 39.0 95.5 39.0 96.35 39.0 97.0 38.4 97.05 35.45 99.15 29.75 99.35 28.4 99.5 28.0 100.15 26.45 101.1 24.9 104.6 16.6 107.9 13.6 L107.6 13.35 M117.8 18.55 L118.0 18.75 117.8 18.5 117.8 18.55 M103.15 46.85 L104.0 47.0 Q105.25 47.0 106.1 45.6 L106.0 43.35 Q106.0 36.9 109.25 27.2 111.45 20.6 113.85 18.9 L114.05 18.55 114.8 17.9 Q114.3 16.55 112.9 17.25 110.95 18.2 108.25 22.2 101.5 32.25 101.5 41.6 L101.55 44.4 Q101.75 45.85 102.55 46.5 L103.15 46.85 M100.0 6.8 L100.1 5.8 Q99.8 5.2 99.85 4.75 L100.05 4.05 99.3 3.95 Q98.75 2.35 96.75 2.55 L96.4 2.6 95.25 2.05 Q93.85 2.05 93.55 3.9 93.45 4.6 93.5 5.55 L94.05 5.55 94.25 7.0 Q94.9 8.5 97.0 8.5 98.4 8.5 99.05 7.25 L99.45 6.0 99.55 6.0 99.8 6.15 100.0 6.8 100.0 7.0 100.0 7.15 100.4 7.2 100.0 6.8 M121.2 20.2 L120.2 20.0 Q118.5 20.3 116.25 23.4 110.5 31.4 110.5 41.6 L110.8 43.65 Q111.5 45.5 113.5 45.5 114.8 45.5 115.5 44.35 116.0 43.5 116.0 42.85 L116.0 42.6 Q115.55 41.5 115.3 39.6 115.0 37.55 115.0 35.5 115.0 32.9 117.0 27.05 119.05 21.1 121.2 20.2 M88.0 3.5 L87.1 4.0 87.55 6.45 91.95 5.65 Q91.5 4.8 91.5 3.9 L91.6 2.6 Q89.05 2.8 87.9 3.25 L87.8 3.3 88.0 3.5 M97.45 10.7 L97.3 10.7 96.5 10.85 96.25 10.9 Q93.7 11.75 90.25 15.3 81.5 24.25 81.5 32.8 L81.5 35.5 Q81.75 37.2 82.8 37.75 L84.0 38.0 Q85.8 38.0 87.05 33.65 L87.0 32.15 Q87.0 27.55 91.75 19.5 95.25 13.45 98.6 11.25 98.2 10.7 97.5 10.7 L97.45 10.7 M85.75 4.4 L85.4 4.35 85.0 3.8 Q84.35 3.8 83.15 5.75 L81.85 8.35 82.1 8.8 Q83.85 7.75 85.7 7.05 L85.5 6.05 Q85.5 5.25 85.75 4.4 M84.2 10.9 L80.3 13.0 Q80.2 13.0 80.15 13.1 78.9 13.9 77.85 14.8 L76.7 15.9 76.1 16.45 75.75 16.85 Q74.2 18.55 73.1 20.6 71.45 23.5 70.25 27.9 L68.5 34.8 70.95 35.55 75.0 36.4 75.0 35.4 Q75.0 28.5 78.0 22.3 81.6 14.75 89.05 9.5 L89.5 9.05 88.95 9.2 Q86.4 9.9 84.2 10.9 M107.25 52.0 Q100.25 51.8 95.9 45.65 L92.75 41.25 Q90.9 39.25 88.65 39.25 87.7 39.25 86.25 40.9 L85.65 41.5 Q84.3 40.35 82.5 40.0 80.45 39.6 79.05 40.5 L78.8 40.7 Q76.7 39.25 74.8 38.75 L73.45 38.4 73.3 38.35 73.1 38.3 72.85 38.25 Q66.35 36.4 65.5 34.8 65.1 31.9 63.6 30.1 60.7 26.75 51.9 26.75 39.5 26.75 30.85 32.15 26.05 35.1 22.8 39.5 21.85 40.8 21.25 43.6 19.85 46.05 13.75 47.55 11.15 48.15 9.25 50.65 7.5 52.95 7.5 55.0 7.5 56.1 8.45 57.35 L9.65 59.2 9.85 59.1 10.2 59.0 10.25 58.95 10.85 58.6 11.5 58.05 11.5 58.1 11.1 58.65 11.6 58.5 14.7 57.9 20.0 57.55 20.0 57.35 20.9 57.25 22.5 57.1 25.7 57.75 28.9 58.35 Q30.9 58.35 34.9 54.35 37.1 52.9 39.25 53.95 L39.4 54.0 Q41.1 54.9 42.8 57.35 L42.9 57.5 42.95 57.45 Q44.25 54.75 49.45 55.1 L50.2 54.9 50.15 54.85 51.75 55.0 53.15 54.85 Q54.4 56.5 57.0 56.5 L57.45 56.5 59.75 57.1 Q62.3 57.1 63.05 57.85 63.15 53.5 64.2 51.6 L64.35 51.35 Q65.4 49.7 66.9 51.0 L67.05 51.15 67.15 51.25 67.3 51.4 67.4 51.45 67.45 51.5 67.55 51.65 67.65 51.75 67.75 51.9 69.65 55.55 70.0 56.75 70.35 56.3 Q71.5 54.75 72.75 54.15 L74.05 54.0 74.0 52.35 Q74.0 51.3 75.25 50.55 76.5 49.85 78.0 49.95 82.0 50.25 82.0 55.1 L82.0 55.3 82.0 56.45 Q82.5 56.2 83.3 56.0 L83.55 55.9 Q86.2 55.2 87.8 56.15 88.75 57.4 89.2 58.8 90.85 57.25 92.8 57.35 L92.9 58.9 93.3 58.85 93.45 61.45 94.05 61.3 98.0 61.6 Q99.0 62.3 99.65 63.6 L99.7 63.65 100.05 64.6 100.5 65.9 102.2 65.4 102.7 65.3 104.5 65.1 Q107.4 65.1 109.35 66.6 L109.5 66.7 109.9 67.0 109.6 67.85 Q110.3 67.45 112.1 66.95 110.4 66.6 110.05 63.25 110.6 65.5 111.0 66.0 L111.4 65.85 112.0 66.0 112.05 66.05 Q112.65 66.5 113.0 66.5 L113.35 66.5 113.3 66.55 113.35 66.65 113.6 66.55 Q118.4 65.35 120.5 66.05 122.7 66.9 123.8 67.95 L125.15 69.55 Q126.35 70.7 131.25 70.95 L134.25 71.0 134.45 71.0 Q135.55 71.05 136.7 71.55 L136.25 70.55 Q135.35 69.35 132.0 68.85 128.5 68.35 128.0 67.8 126.85 66.6 126.05 65.15 125.05 63.25 125.3 62.0 125.0 62.0 125.0 61.55 121.6 61.95 120.15 60.95 119.3 60.35 118.6 58.45 117.85 56.45 116.9 55.6 115.95 54.75 114.35 54.4 L114.05 53.85 Q113.05 52.2 112.5 52.0 111.55 52.35 110.9 52.8 L111.05 52.45 111.25 51.85 107.75 52.0 107.4 52.0 107.25 52.0 M36.35 38.15 L36.55 37.7 Q37.7 34.95 39.5 34.55 40.75 34.25 42.55 35.4 L42.85 35.6 44.9 37.25 Q48.0 40.15 48.0 41.0 48.0 42.9 46.6 43.75 44.5 45.0 38.75 45.0 36.1 45.0 35.55 43.8 L35.5 42.4 35.5 42.25 35.5 42.15 35.5 42.0 36.05 39.15 36.4 38.15 36.35 38.15 M105.95 48.9 L105.75 49.0 105.8 49.3 106.05 49.25 105.95 48.9 M109.7 48.85 L109.65 48.8 109.55 48.85 109.7 48.85 M138.75 75.75 Q135.65 73.5 129.75 73.5 125.8 73.5 122.95 70.5 120.15 67.5 117.5 67.5 115.55 67.5 113.0 68.35 L110.0 69.5 109.8 69.45 109.95 70.1 Q109.15 70.05 108.05 68.75 106.85 67.35 104.4 67.35 103.8 67.35 102.2 68.0 L100.0 68.6 98.5 68.35 98.15 64.8 97.8 64.25 Q97.1 63.95 96.7 63.55 L95.8 63.35 94.7 63.35 94.05 63.45 94.0 63.45 93.55 63.5 93.55 63.55 93.85 67.45 94.0 68.6 93.9 68.85 93.0 69.1 92.55 69.0 Q91.5 70.6 88.75 70.6 L86.3 70.45 Q87.55 71.15 87.85 72.15 L88.0 72.7 88.5 75.9 88.15 76.15 87.5 76.6 Q86.65 76.25 86.5 75.55 L86.4 74.25 Q85.9 72.5 80.8 71.6 80.65 71.2 80.8 70.45 L81.0 68.85 80.85 67.05 Q80.6 66.15 79.75 66.15 75.05 66.15 72.15 68.4 71.0 69.3 70.0 70.5 L70.0 70.65 69.0 71.6 68.95 71.55 68.2 70.65 67.8 70.15 67.75 70.1 66.75 69.15 Q64.95 69.15 62.95 70.65 L60.75 72.1 Q60.15 72.1 58.9 70.75 57.65 69.35 56.35 69.35 L53.6 70.0 51.0 71.1 50.6 70.9 50.5 70.85 50.5 71.1 Q50.5 72.0 47.25 73.95 44.65 75.5 44.15 77.75 L44.0 78.85 Q44.0 80.35 43.1 81.9 L47.85 82.75 57.4 83.85 65.5 82.5 Q71.85 81.1 75.75 81.1 83.95 81.1 85.15 82.0 L85.75 82.6 87.65 82.85 93.5 82.9 98.3 82.25 98.35 82.25 102.0 81.25 102.5 81.1 107.55 80.55 111.75 80.6 114.15 80.55 119.05 80.85 119.6 81.4 Q120.05 81.9 120.75 81.9 L132.55 80.9 135.4 80.5 139.9 79.6 140.3 79.5 140.4 79.45 140.5 79.4 140.5 78.35 140.55 78.25 140.65 78.2 Q140.3 77.6 139.05 76.95 L138.05 76.5 138.45 76.3 138.9 76.0 139.0 75.95 138.75 75.75 M100.55 72.1 L100.6 72.1 101.7 72.1 101.8 72.1 101.9 72.1 Q103.15 72.2 103.95 72.75 L104.3 73.0 104.7 73.45 Q105.5 74.55 105.5 76.4 L105.25 78.65 Q104.5 79.55 101.1 79.6 L100.5 79.6 Q98.2 79.6 95.0 78.45 L90.8 76.85 Q90.5 77.25 90.5 76.0 90.5 75.75 92.85 74.55 L92.9 74.55 Q95.55 73.2 98.0 72.55 L100.55 72.1 M86.45 62.9 L86.45 62.8 Q87.0 61.6 87.65 60.7 L87.4 60.2 86.95 58.55 Q86.2 56.55 82.05 58.6 L82.1 59.1 82.15 59.4 82.15 59.5 Q82.25 61.55 82.5 62.9 L82.5 65.6 82.45 65.65 Q83.35 67.0 83.0 69.4 L84.5 69.75 84.5 68.75 Q85.1 65.7 86.45 62.9 M90.85 61.1 L90.75 60.9 90.75 61.1 86.5 68.4 Q90.45 67.65 91.5 65.85 L91.5 63.35 91.25 62.3 90.85 61.1 M100.4 77.35 Q103.0 77.35 103.5 76.85 103.75 76.6 103.5 76.2 103.5 74.4 102.15 74.55 L95.25 75.9 Q96.05 76.2 97.2 76.85 L100.4 77.35 M150.0 69.75 L150.05 68.95 150.25 68.55 Q152.1 68.6 155.15 70.8 158.0 72.8 158.0 73.5 L157.75 74.6 157.5 74.8 Q158.0 75.0 156.75 75.0 153.6 75.0 151.5 72.5 150.0 70.7 150.0 69.75 M139.4 53.7 Q142.0 55.4 142.0 57.4 142.0 58.85 140.75 60.05 138.75 62.0 134.25 62.0 128.35 62.0 126.3 58.75 125.7 57.75 125.55 56.55 L125.5 55.65 Q125.5 53.0 128.1 51.95 L133.75 51.6 Q137.05 52.15 139.4 53.7 M132.0 59.0 L133.35 57.6 136.05 59.8 Q136.8 59.75 136.8 59.3 136.4 58.4 134.35 56.7 135.9 55.25 135.75 54.05 134.65 54.65 133.35 55.9 L131.0 54.0 130.75 54.2 130.5 54.55 Q130.95 55.5 132.4 56.8 L130.0 58.55 Q130.2 58.9 131.0 59.05 L132.0 59.0 M73.4 12.1 L73.5 12.0 73.55 12.05 73.55 11.95 73.4 12.1 M80.2 10.05 L80.3 9.95 Q80.2 9.8 80.0 9.8 74.85 9.8 74.65 12.4 74.6 13.35 75.0 14.9 77.45 12.0 80.2 10.05 M64.5 10.05 L61.7 9.75 59.55 10.25 60.1 10.8 Q60.5 11.25 60.5 12.05 60.5 13.2 59.5 14.25 L58.5 15.0 58.45 15.9 Q58.65 17.15 61.7 17.25 L62.05 17.25 62.15 17.25 Q64.15 17.25 65.0 16.0 65.5 15.25 65.5 14.4 L65.0 12.3 64.5 10.05 M72.5 13.0 L68.75 13.0 68.0 15.15 Q67.0 17.9 67.0 18.65 67.0 19.2 67.75 19.7 L69.25 20.8 Q69.7 20.7 70.2 19.9 70.6 19.2 71.9 19.0 L72.85 17.6 72.7 17.05 72.5 15.5 72.45 14.05 Q72.5 13.45 72.7 13.05 72.85 12.65 73.1 12.4 L72.5 13.0 M61.4 19.5 L54.35 24.95 Q61.25 25.35 63.5 26.75 64.7 27.5 65.45 29.0 L66.6 31.65 Q66.95 29.45 68.3 26.05 L69.65 23.0 Q66.65 22.95 65.55 21.0 65.05 20.15 65.0 18.95 63.85 19.5 62.25 19.5 L61.4 19.5 M49.2 24.65 L47.0 22.3 44.5 18.6 Q44.5 17.2 46.25 15.0 48.0 12.8 48.0 10.55 48.0 8.35 50.5 6.65 53.0 5.0 53.0 4.1 L53.0 3.35 52.8 3.0 52.9 2.8 Q53.0 2.55 52.25 2.55 50.75 2.55 49.95 3.3 L48.6 4.9 Q46.6 6.9 40.15 6.35 42.5 6.85 42.5 7.1 L42.4 7.95 Q42.25 8.15 42.25 8.3 42.7 8.45 41.8 8.5 L41.6 8.5 41.85 8.7 42.5 9.35 Q42.5 10.55 41.75 11.8 40.65 13.55 38.0 15.4 35.45 17.25 34.35 18.95 L34.3 18.9 32.55 20.25 32.2 20.5 31.8 20.7 Q30.15 21.45 28.45 21.5 L28.25 21.5 Q23.0 21.5 22.6 20.6 L22.65 20.55 22.65 20.45 22.6 19.35 22.0 18.55 20.9 20.2 17.4 24.8 17.5 25.1 18.25 26.25 18.55 27.5 21.75 28.85 Q25.7 30.4 27.25 31.7 L28.85 30.7 30.45 30.0 Q32.0 29.35 34.3 28.65 L34.35 28.6 34.25 28.45 Q35.15 28.35 35.75 27.9 L35.85 28.15 Q41.0 26.6 49.0 24.75 L49.35 24.75 49.2 24.65 M51.6 10.45 Q52.75 12.55 54.05 13.25 L57.5 13.25 57.25 11.45 57.0 9.6 Q57.0 8.8 57.4 8.45 L58.0 8.05 55.3 7.25 54.05 6.8 53.0 7.65 Q51.85 8.5 51.2 9.75 L51.6 10.45 M45.05 2.45 Q43.4 1.25 39.9 1.25 38.55 1.25 37.8 3.2 37.4 4.25 37.35 4.95 37.7 4.3 38.5 4.0 39.6 3.5 43.3 3.3 L45.7 2.9 45.05 2.45 M48.7 16.0 L46.55 18.75 Q48.2 20.9 49.35 21.85 51.45 23.7 53.0 23.0 L53.1 23.05 Q54.05 21.7 56.6 19.9 L58.3 18.8 Q57.4 18.3 57.05 17.5 L57.0 15.45 56.25 15.5 Q53.0 15.5 51.05 14.05 L50.45 13.4 Q50.15 14.2 48.7 16.0 M45.3 41.75 Q44.7 40.7 42.25 39.25 40.15 37.95 40.0 37.05 38.7 39.25 38.3 40.15 37.85 41.2 37.5 42.75 L40.8 42.75 45.3 41.75 M39.05 6.1 L39.05 6.0 39.0 6.1 39.05 6.1 M30.6 8.25 Q30.15 8.65 29.0 8.85 L29.0 9.0 25.6 12.65 25.8 13.55 26.0 14.85 25.8 18.05 25.75 18.3 25.65 18.4 Q26.9 19.25 28.15 19.25 30.8 19.25 31.85 17.95 L32.1 17.65 32.9 16.5 Q36.2 14.25 40.0 10.3 L40.05 9.55 Q37.75 9.4 37.2 8.55 L37.05 7.95 35.55 7.0 31.0 6.65 31.0 6.75 Q31.0 7.9 30.6 8.25 M26.7 2.55 Q24.5 3.05 24.5 3.65 24.5 4.45 24.8 5.2 L25.5 6.75 28.3 6.75 28.85 6.0 28.0 5.55 27.0 4.05 Q27.0 3.4 27.7 2.25 L26.7 2.55 M23.9 11.25 L25.65 9.5 26.2 9.0 Q24.15 8.75 23.25 7.0 L22.9 7.4 Q21.75 8.55 21.75 9.6 L21.8 10.45 22.0 10.8 22.5 11.05 23.9 11.25 M23.95 13.95 L24.05 13.5 24.0 13.5 21.9 13.2 21.8 13.15 21.8 13.45 22.0 16.5 Q22.8 16.3 23.55 16.75 23.6 15.45 23.95 13.95 M7.0 22.7 Q5.5 25.1 5.5 26.75 L9.5 26.75 Q10.15 24.9 10.55 24.45 L10.0 24.0 Q8.35 22.6 7.8 21.45 L7.0 22.7 M19.3 18.7 L18.6 18.15 Q17.65 17.25 14.9 17.25 11.5 17.25 10.35 18.7 9.8 19.35 9.8 20.3 9.8 22.05 13.65 23.0 L15.3 23.5 16.2 22.35 19.0 19.05 19.3 18.7 M18.4 30.0 L17.8 31.9 Q17.05 33.7 17.05 34.75 L18.8 37.6 20.05 39.8 20.8 38.75 Q23.1 35.3 25.5 33.15 L24.05 32.15 Q22.15 30.6 18.5 30.0 L18.4 30.0 M16.9 43.15 L18.8 41.3 17.0 38.7 Q15.0 35.6 15.0 34.55 L16.5 29.05 15.5 28.3 13.55 26.45 Q12.8 26.8 12.1 27.55 10.65 29.0 7.75 29.0 L4.35 28.7 Q3.65 28.55 3.3 28.25 L3.25 28.15 3.2 28.2 1.95 29.6 Q1.5 30.0 1.5 30.65 L1.5 31.1 1.85 33.0 2.3 33.9 2.35 33.9 Q3.1 35.05 4.65 35.4 8.75 36.3 9.85 37.15 L10.0 37.3 10.2 37.55 11.45 39.25 12.45 40.9 12.65 41.25 Q14.5 44.3 14.5 45.0 L14.5 45.05 14.55 45.05 14.8 44.85 15.55 44.3 16.9 43.15 M40.05 57.75 Q38.35 55.85 37.75 55.85 37.1 55.85 33.55 58.25 29.95 60.6 29.0 60.6 L25.6 60.0 21.95 59.25 21.85 59.3 Q21.65 59.3 21.55 59.6 8.45 59.85 4.05 66.35 2.0 69.45 2.0 75.35 2.0 78.1 4.75 80.4 L5.35 80.85 Q9.4 83.85 17.4 83.85 37.2 83.85 41.25 80.4 42.55 79.3 42.15 77.85 L41.5 76.25 Q41.5 74.9 45.1 72.4 48.4 70.1 49.25 70.1 L49.45 70.15 49.35 70.05 44.35 63.25 40.05 57.75 M22.9 61.1 L25.5 60.9 25.75 60.9 26.05 60.9 Q29.3 61.05 30.55 63.05 L30.75 63.4 Q31.4 64.65 31.25 66.15 31.25 67.7 29.55 69.4 27.6 71.4 25.0 71.4 21.8 71.4 19.75 69.2 18.25 67.6 18.25 66.55 18.25 64.15 19.25 62.9 20.4 61.55 22.9 61.1 M28.25 63.5 L28.15 62.75 28.0 62.95 Q26.7 63.3 25.3 64.55 24.4 63.75 23.8 63.45 L23.75 63.9 24.7 65.1 Q23.5 66.2 22.25 67.95 L22.75 68.2 Q23.45 67.8 25.6 66.0 L27.0 67.2 27.25 66.9 26.2 65.5 28.25 63.5 M28.95 72.3 L31.25 72.3 Q33.95 72.55 36.25 73.75 38.5 74.95 38.5 76.1 38.5 78.25 36.75 79.65 34.35 81.6 29.0 81.6 25.5 81.6 24.35 80.55 L24.0 80.1 24.0 78.35 Q24.0 73.0 28.7 72.35 L28.95 72.3 M35.0 66.7 L35.0 65.95 Q35.0 64.7 36.0 63.0 37.2 60.9 38.75 60.9 40.4 60.9 42.0 65.2 42.0 66.3 41.5 66.7 40.65 67.4 37.75 67.4 35.45 67.4 35.0 66.7 M29.0 75.1 L30.55 76.65 Q29.25 78.25 29.0 79.1 29.25 79.4 29.75 79.4 L31.55 77.6 33.5 79.4 33.8 79.15 Q33.8 78.4 32.2 76.95 L32.45 76.65 Q33.5 75.5 33.5 74.7 L33.4 73.95 33.25 74.15 Q32.5 74.35 31.1 76.0 29.85 75.0 29.2 74.7 L29.05 74.65 29.0 75.1 M11.3 57.2 L11.45 57.85 11.1 57.4 11.3 57.2 M76.5 53.35 Q76.5 60.15 76.95 64.15 L80.55 64.3 Q79.85 62.45 79.9 59.85 80.25 55.25 80.0 53.15 L76.5 53.35 M74.65 60.6 L74.45 58.9 74.45 58.8 74.4 58.55 74.35 57.65 74.15 57.6 72.75 57.4 Q72.0 57.4 71.4 58.05 L70.5 58.85 71.15 62.9 71.45 66.25 Q73.25 65.05 75.45 64.45 75.0 63.1 74.65 60.6 M60.95 59.55 L60.75 59.15 58.25 59.4 57.9 59.5 57.0 59.9 55.75 60.6 Q55.2 60.6 54.0 58.75 L54.0 58.7 Q53.45 57.9 52.7 57.45 51.95 57.0 51.05 56.9 L50.15 56.85 49.95 56.85 Q48.0 57.0 46.1 58.05 L44.25 59.25 44.3 59.35 46.55 62.0 47.75 63.35 Q50.75 67.1 51.0 69.4 51.65 68.85 52.55 68.35 54.2 67.35 55.5 67.15 57.45 66.85 59.3 67.95 60.25 68.5 61.0 69.1 62.1 69.1 62.95 68.1 63.3 67.7 63.95 67.45 63.35 66.3 63.1 64.3 L63.05 63.3 63.0 60.45 62.25 60.6 Q61.4 60.6 61.1 59.9 L60.95 59.55 M65.0 59.1 L65.2 62.8 Q65.45 65.45 65.9 67.1 L66.25 67.1 Q68.2 67.1 69.15 68.3 L69.8 67.55 Q68.55 65.15 68.25 60.6 67.85 55.05 65.8 52.9 65.0 54.85 65.0 59.1" fill="#000000" fill-rule="evenodd" stroke="none"/>
    <path d="M165.4 28.4 L164.75 30.65 164.15 32.75 162.35 33.2 162.25 33.05 Q162.8 30.05 161.65 27.55 160.6 25.3 158.75 24.55 L158.5 24.45 158.5 23.75 158.5 23.1 158.55 22.75 160.8 22.75 160.9 22.75 161.1 22.8 161.55 22.9 Q164.8 25.05 165.4 28.4 M158.3 27.1 L159.0 28.3 159.1 28.45 159.35 28.85 159.45 28.95 159.5 29.1 159.6 29.25 Q160.5 30.65 160.5 31.25 L160.25 32.85 160.0 34.05 Q160.05 35.8 160.5 35.95 160.75 36.05 161.65 35.35 163.0 34.35 164.1 34.6 L164.15 34.75 164.3 35.0 164.95 35.0 165.5 35.55 Q166.0 36.15 163.7 37.4 L158.1 40.25 Q150.2 44.55 149.55 49.0 L149.5 48.9 149.2 48.35 Q149.75 46.05 152.2 43.25 155.55 39.3 159.75 37.8 L158.85 36.85 156.75 36.75 Q156.6 36.35 156.8 35.45 L157.0 33.75 156.5 31.75 Q156.0 30.4 156.0 29.75 L156.0 29.7 157.7 27.55 158.2 27.1 158.3 27.1 M165.35 78.3 Q164.45 77.35 163.85 75.25 163.2 73.0 163.0 70.5 162.85 68.5 161.0 66.3 159.0 63.85 155.5 61.8 L146.0 52.5 Q138.75 45.25 134.1 45.25 119.7 45.25 114.2 51.4 L113.35 52.5 113.2 52.5 Q114.05 50.45 115.5 48.55 120.8 41.75 131.9 41.75 L134.25 41.85 134.3 41.85 135.1 42.15 Q137.45 43.05 139.3 43.05 L139.85 42.95 Q144.6 44.6 147.15 48.5 L150.1 53.95 Q151.7 56.95 153.75 58.05 L161.05 61.85 Q164.1 63.5 165.4 64.85 168.0 67.55 168.0 76.25 L167.95 76.5 Q167.6 77.2 165.35 78.3 M143.55 27.1 Q142.8 25.85 141.0 24.2 L139.6 23.0 Q142.3 22.9 146.95 21.15 L149.9 20.15 150.55 20.45 150.65 19.95 Q153.2 19.25 155.15 19.25 156.4 19.25 156.0 19.55 L156.25 21.5 156.5 23.5 Q156.5 24.15 156.0 24.7 L155.95 24.8 155.5 25.15 Q154.0 26.75 154.0 30.5 L153.95 30.75 Q153.5 29.3 153.5 26.55 153.55 24.65 152.05 23.2 L152.0 23.15 Q152.0 23.5 147.5 25.5 L143.55 27.1 M107.6 13.35 Q107.1 13.6 106.55 13.95 102.4 16.6 98.75 21.0 96.75 23.35 95.9 26.2 95.05 29.05 95.5 31.8 L95.5 39.0 Q93.4 39.0 93.0 36.3 L93.0 33.4 Q93.0 25.8 100.75 17.3 103.9 13.85 106.1 13.25 L107.6 13.35 M114.8 17.9 L113.75 18.55 Q111.7 19.8 110.8 21.0 L107.05 26.25 Q106.85 26.4 104.95 31.05 103.0 35.85 103.0 36.5 103.0 37.15 103.5 39.6 L104.0 42.65 104.0 45.3 Q103.8 46.5 103.15 46.85 L102.55 46.5 Q101.75 45.85 101.55 44.4 L101.5 41.6 Q101.5 32.25 108.25 22.2 110.95 18.2 112.9 17.25 114.3 16.55 114.8 17.9 M82.8 37.75 Q81.75 37.2 81.5 35.5 L81.5 32.8 Q81.5 24.25 90.25 15.3 93.7 11.75 96.25 10.9 L96.5 10.85 97.3 10.7 97.45 10.7 Q96.25 11.7 94.8 13.05 89.85 17.8 86.5 23.8 84.8 26.85 84.1 31.95 83.65 35.45 82.8 37.75 M84.2 10.9 L84.8 10.65 Q78.7 14.45 74.0 22.0 72.5 24.35 71.85 29.6 L70.95 35.55 68.5 34.8 70.25 27.9 Q71.45 23.5 73.1 20.6 74.2 18.55 75.75 16.85 L76.1 16.45 76.7 15.9 77.85 14.8 Q78.9 13.9 80.15 13.1 80.2 13.0 80.3 13.0 L84.2 10.9 M41.8 8.5 L41.85 8.7 41.6 8.5 41.8 8.5 M41.75 11.8 Q41.1 13.8 39.05 17.25 37.2 20.35 35.8 21.65 L36.0 22.0 Q34.95 22.75 33.55 23.1 L28.75 23.5 26.4 23.0 24.0 22.5 Q23.25 22.5 22.55 23.4 L21.75 24.55 27.25 28.0 30.45 30.0 28.85 30.7 27.25 31.7 Q25.7 30.4 21.75 28.85 L18.55 27.5 18.25 26.25 17.5 25.1 17.4 24.8 20.9 20.2 22.45 19.05 22.6 19.35 22.65 20.45 22.65 20.55 22.6 20.6 Q23.0 21.5 28.25 21.5 L28.45 21.5 30.6 21.75 31.6 21.5 31.8 20.7 32.2 20.5 32.55 20.25 34.3 18.9 34.35 18.95 Q35.45 17.25 38.0 15.4 40.65 13.55 41.75 11.8 M41.05 6.55 L41.0 6.55 41.0 6.5 41.05 6.55 M4.35 28.7 L6.75 30.95 Q9.05 33.05 11.05 34.0 13.05 35.5 16.9 43.15 L15.55 44.3 14.8 44.85 14.55 45.05 14.5 45.0 Q14.5 44.3 12.65 41.25 L12.45 40.9 11.45 39.25 11.15 38.8 10.2 37.55 10.0 37.3 9.85 37.15 Q8.0 35.4 5.0 34.75 L2.35 33.9 2.3 33.9 1.85 33.0 1.5 31.1 1.5 30.65 Q1.5 30.0 1.95 29.6 L3.2 28.2 3.3 28.25 Q3.65 28.55 4.35 28.7 M5.35 80.85 L4.75 80.4 Q2.0 78.1 2.0 75.35 2.0 69.45 4.05 66.35 8.45 59.85 21.55 59.6 21.65 59.3 21.85 59.3 L21.95 59.25 25.6 60.0 29.0 60.6 Q29.95 60.6 33.55 58.25 37.1 55.85 37.75 55.85 38.35 55.85 40.05 57.75 38.65 58.9 35.95 60.35 31.65 62.7 30.55 63.05 29.3 61.05 26.05 60.9 L25.75 60.9 25.5 60.9 22.9 61.1 20.0 60.6 Q11.1 60.6 7.45 69.8 5.55 74.55 5.35 80.85" fill="#9c988e" fill-rule="evenodd" stroke="none"/>
    <path d="M32.9 -0.75 L35.7 -0.1 37.7 0.4 Q35.45 1.9 35.1 4.5 L33.2 4.75 Q30.25 5.6 29.5 4.05 32.4 -0.75 32.9 -0.75 M161.1 22.8 Q162.6 23.0 164.05 24.7 165.5 26.35 165.5 27.35 L165.4 28.4 Q164.8 25.05 161.55 22.9 L161.1 22.8 M158.3 27.1 L158.2 27.1 157.7 27.55 158.25 27.05 158.3 27.1 M156.0 29.7 L156.0 29.75 Q156.0 30.4 156.5 31.75 L157.0 33.75 156.8 35.45 Q156.6 36.35 156.75 36.75 L158.85 36.85 159.75 37.8 Q155.55 39.3 152.2 43.25 149.75 46.05 149.2 48.35 L148.05 46.6 147.55 45.95 Q149.95 43.3 153.75 37.0 154.6 35.55 155.35 31.65 155.55 30.6 156.0 29.7 M113.35 52.5 L114.2 51.4 Q119.7 45.25 134.1 45.25 138.75 45.25 146.0 52.5 L155.5 61.8 Q159.0 63.85 161.0 66.3 162.85 68.5 163.0 70.5 163.2 73.0 163.85 75.25 164.45 77.35 165.35 78.3 L165.3 78.3 Q162.2 79.75 159.15 79.75 157.25 79.75 156.2 78.9 155.1 78.0 151.5 78.0 L148.95 78.4 146.8 78.75 143.65 78.9 143.65 78.45 143.0 78.3 Q142.8 77.55 142.0 76.55 L142.0 76.4 Q142.0 75.8 139.75 73.65 L138.75 72.75 138.95 72.4 139.0 71.3 Q139.0 68.7 135.15 67.8 130.05 66.65 129.05 65.75 128.15 65.0 127.8 61.8 127.5 59.5 124.75 59.5 122.3 59.5 121.1 58.3 L119.55 55.7 Q118.0 52.6 113.35 52.5 M139.85 42.95 L139.3 43.05 Q137.45 43.05 135.1 42.15 L134.3 41.85 Q137.35 42.05 139.85 42.95 M143.55 27.1 L147.5 25.5 Q152.0 23.5 152.0 23.15 L152.05 23.2 Q153.55 24.65 153.5 26.55 153.5 29.3 153.95 30.75 153.25 32.9 149.65 38.95 L146.3 44.7 145.25 43.85 145.5 43.5 144.6 39.1 Q145.4 39.5 146.0 39.5 147.25 39.5 147.3 39.05 L147.5 36.8 Q147.5 35.55 146.5 34.5 146.4 32.2 143.25 30.25 L143.45 29.9 Q144.0 29.35 144.0 28.5 L143.55 27.1 M150.65 19.95 L150.55 20.45 149.9 20.15 150.65 19.95 M130.05 18.8 L130.15 19.25 131.0 19.5 Q131.65 19.25 133.2 19.95 134.05 20.3 135.5 21.0 134.05 23.05 133.65 24.1 131.7 22.0 128.5 20.2 L130.05 18.8 M126.65 14.75 L129.0 17.05 127.55 18.05 Q127.0 18.4 127.0 19.25 L127.0 19.4 125.75 18.8 Q125.1 19.5 124.0 19.5 122.35 19.5 121.75 18.05 L121.55 17.1 120.9 16.85 120.95 16.65 121.7 15.35 122.4 13.95 122.45 13.9 Q123.15 13.0 124.5 13.0 L126.65 14.75 M136.7 23.25 L136.8 23.15 138.8 25.25 Q141.3 27.9 141.3 28.3 L140.6 28.45 Q140.4 28.5 140.65 29.05 138.1 28.35 136.5 30.2 136.35 27.8 134.95 25.7 L136.7 23.25 M135.45 36.8 L135.5 36.8 135.5 38.3 Q135.95 39.0 137.25 39.55 L139.5 40.0 Q140.7 40.0 140.85 39.15 140.95 38.3 142.05 37.8 142.2 38.7 143.1 40.9 L144.1 43.15 Q140.25 40.95 133.95 40.15 134.75 38.95 135.45 36.8 M135.55 36.8 L135.5 36.55 Q136.45 33.15 136.5 30.9 L139.05 30.6 Q140.95 30.5 142.5 32.3 L143.45 34.4 Q144.2 35.9 145.15 36.0 L145.25 36.3 145.1 36.6 Q143.35 35.5 141.75 35.5 140.1 35.5 139.65 36.25 139.25 37.0 138.75 37.0 L136.85 36.8 Q135.85 36.65 135.55 36.8 M126.7 28.95 Q125.5 32.25 125.5 35.4 125.5 38.25 126.55 39.2 L125.25 39.5 Q124.1 39.5 123.4 39.0 L122.5 40.5 Q120.85 40.5 120.25 39.2 L120.0 37.75 Q120.0 29.4 125.0 25.65 126.95 24.15 128.45 24.5 128.95 24.6 129.3 24.95 127.75 26.05 126.7 28.95 M110.5 10.0 L104.7 9.6 103.5 9.55 103.4 8.65 103.3 8.25 102.4 8.0 102.95 7.65 101.25 7.35 102.25 6.6 Q103.6 5.75 104.9 5.75 105.75 5.75 107.6 7.15 L107.75 7.15 Q110.25 7.4 110.5 9.55 L110.5 10.0 M112.6 11.75 L112.5 11.65 112.4 11.15 112.35 10.9 112.8 10.4 Q113.4 9.75 115.15 9.75 L117.9 10.15 120.5 10.55 120.5 11.5 Q119.75 12.4 119.6 14.35 L119.5 14.95 119.0 15.05 117.65 14.25 117.55 14.3 Q116.45 15.5 115.0 15.5 113.35 15.5 112.75 14.05 L112.5 12.55 112.6 11.75 M95.5 39.0 L95.5 31.8 Q95.05 29.05 95.9 26.2 96.75 23.35 98.75 21.0 102.4 16.6 106.55 13.95 107.1 13.6 107.6 13.35 L107.9 13.6 Q104.6 16.6 101.1 24.9 100.15 26.45 99.5 28.0 99.35 28.4 99.15 29.75 97.05 35.45 97.0 38.4 96.35 39.0 95.5 39.0 M103.15 46.85 Q103.8 46.5 104.0 45.3 L104.0 42.65 103.5 39.6 Q103.0 37.15 103.0 36.5 103.0 35.85 104.95 31.05 106.85 26.4 107.05 26.25 L110.8 21.0 Q111.7 19.8 113.75 18.55 L114.8 17.9 114.05 18.55 113.85 18.9 Q111.45 20.6 109.25 27.2 106.0 36.9 106.0 43.35 L106.1 45.6 Q105.25 47.0 104.0 47.0 L103.15 46.85 M121.2 20.2 Q119.05 21.1 117.0 27.05 115.0 32.9 115.0 35.5 115.0 37.55 115.3 39.6 115.55 41.5 116.0 42.6 L116.0 42.85 Q116.0 43.5 115.5 44.35 114.8 45.5 113.5 45.5 111.5 45.5 110.8 43.65 L110.5 41.6 Q110.5 31.4 116.25 23.4 118.5 20.3 120.2 20.0 L121.2 20.2 M100.0 6.8 L99.8 6.15 99.55 6.0 99.45 6.0 99.05 7.25 Q98.4 8.5 97.0 8.5 94.9 8.5 94.25 7.0 L94.05 5.55 93.5 5.55 Q93.45 4.6 93.55 3.9 93.85 2.05 95.25 2.05 L96.4 2.6 96.75 2.55 Q98.75 2.35 99.3 3.95 L100.05 4.05 99.85 4.75 Q99.8 5.2 100.1 5.8 L100.0 6.8 M87.9 3.25 Q89.05 2.8 91.6 2.6 L91.5 3.9 Q91.5 4.8 91.95 5.65 L87.55 6.45 87.1 4.0 88.0 3.5 87.9 3.25 M97.45 10.7 L97.5 10.7 Q98.2 10.7 98.6 11.25 95.25 13.45 91.75 19.5 87.0 27.55 87.0 32.15 L87.05 33.65 Q85.8 38.0 84.0 38.0 L82.8 37.75 Q83.65 35.45 84.1 31.95 84.8 26.85 86.5 23.8 89.85 17.8 94.8 13.05 96.25 11.7 97.45 10.7 M85.75 4.4 Q85.5 5.25 85.5 6.05 L85.7 7.05 Q83.85 7.75 82.1 8.8 L81.85 8.35 83.15 5.75 Q84.35 3.8 85.0 3.8 L85.4 4.35 85.75 4.4 M70.95 35.55 L71.85 29.6 Q72.5 24.35 74.0 22.0 78.7 14.45 84.8 10.65 L84.2 10.9 Q86.4 9.9 88.95 9.2 L89.05 9.5 Q81.6 14.75 78.0 22.3 75.0 28.5 75.0 35.4 L75.0 36.4 70.95 35.55 M90.75 61.1 L90.85 61.1 91.25 62.3 91.5 63.35 91.5 65.85 Q90.45 67.65 86.5 68.4 L90.75 61.1 M100.4 77.35 L97.2 76.85 Q96.05 76.2 95.25 75.9 L102.15 74.55 Q103.5 74.4 103.5 76.2 103.75 76.6 103.5 76.85 103.0 77.35 100.4 77.35 M139.4 53.7 Q137.05 52.15 133.75 51.6 L128.1 51.95 Q125.5 53.0 125.5 55.65 L125.55 56.55 Q125.7 57.75 126.3 58.75 128.35 62.0 134.25 62.0 138.75 62.0 140.75 60.05 142.0 58.85 142.0 57.4 142.0 55.4 139.4 53.7 M150.0 69.75 Q150.0 70.7 151.5 72.5 153.6 75.0 156.75 75.0 158.0 75.0 157.5 74.8 L157.75 74.6 158.0 73.5 Q158.0 72.8 155.15 70.8 152.1 68.6 150.25 68.55 L150.05 68.95 150.0 69.75 M80.0 9.8 L80.2 10.05 Q77.45 12.0 75.0 14.9 74.6 13.35 74.65 12.4 74.85 9.8 80.0 9.8 M72.7 13.05 Q72.5 13.45 72.45 14.05 L72.5 15.5 72.7 17.05 72.85 17.6 71.9 19.0 Q70.6 19.2 70.2 19.9 69.7 20.7 69.25 20.8 L67.75 19.7 Q67.0 19.2 67.0 18.65 67.0 17.9 68.0 15.15 L68.75 13.0 72.5 13.0 72.7 13.05 M64.5 10.05 L65.0 12.3 65.5 14.4 Q65.5 15.25 65.0 16.0 64.15 17.25 62.15 17.25 L62.05 17.25 61.7 17.25 Q58.65 17.15 58.45 15.9 L58.5 15.0 59.5 14.25 Q60.5 13.2 60.5 12.05 60.5 11.25 60.1 10.8 L59.55 10.25 61.7 9.75 64.5 10.05 M41.8 8.5 Q42.7 8.45 42.25 8.3 42.25 8.15 42.4 7.95 L42.5 7.1 Q42.5 6.85 40.15 6.35 46.6 6.9 48.6 4.9 L49.95 3.3 Q50.75 2.55 52.25 2.55 53.0 2.55 52.9 2.8 L52.8 3.0 53.0 3.35 53.0 4.1 Q53.0 5.0 50.5 6.65 48.0 8.35 48.0 10.55 48.0 12.8 46.25 15.0 44.5 17.2 44.5 18.6 L47.0 22.3 49.2 24.65 49.0 24.75 Q41.0 26.6 35.85 28.15 L35.75 27.9 Q35.15 28.35 34.25 28.45 L34.3 28.65 Q32.0 29.35 30.45 30.0 L27.25 28.0 21.75 24.55 22.55 23.4 Q23.25 22.5 24.0 22.5 L26.4 23.0 28.75 23.5 33.55 23.1 Q34.95 22.75 36.0 22.0 L35.8 21.65 Q37.2 20.35 39.05 17.25 41.1 13.8 41.75 11.8 42.5 10.55 42.5 9.35 L41.85 8.7 41.8 8.5 M51.6 10.45 L51.2 9.75 Q51.85 8.5 53.0 7.65 L54.05 6.8 55.3 7.25 58.0 8.05 57.4 8.45 Q57.0 8.8 57.0 9.6 L57.25 11.45 57.5 13.25 54.05 13.25 Q52.75 12.55 51.6 10.45 M41.05 6.55 L41.0 6.5 41.0 6.55 41.05 6.55 M45.05 2.45 L45.7 2.9 43.3 3.3 Q39.6 3.5 38.5 4.0 37.7 4.3 37.35 4.95 37.4 4.25 37.8 3.2 38.55 1.25 39.9 1.25 43.4 1.25 45.05 2.45 M45.3 41.75 L40.8 42.75 37.5 42.75 Q37.85 41.2 38.3 40.15 38.7 39.25 40.0 37.05 40.15 37.95 42.25 39.25 44.7 40.7 45.3 41.75 M23.9 11.25 L22.5 11.05 22.0 10.8 21.8 10.45 21.75 9.6 Q21.75 8.55 22.9 7.4 L23.25 7.0 Q24.15 8.75 26.2 9.0 L25.65 9.5 23.9 11.25 M26.7 2.55 L27.7 2.25 Q27.0 3.4 27.0 4.05 L28.0 5.55 28.85 6.0 28.3 6.75 25.5 6.75 24.8 5.2 Q24.5 4.45 24.5 3.65 24.5 3.05 26.7 2.55 M24.0 13.5 L23.95 13.95 Q23.6 15.45 23.55 16.75 22.8 16.3 22.0 16.5 L21.8 13.45 21.9 13.2 24.0 13.5 M22.6 19.35 L22.45 19.05 20.9 20.2 22.0 18.55 22.6 19.35 M31.8 20.7 L31.6 21.5 30.6 21.75 28.45 21.5 Q30.15 21.45 31.8 20.7 M19.3 18.7 L19.0 19.05 16.2 22.35 15.3 23.5 13.65 23.0 Q9.8 22.05 9.8 20.3 9.8 19.35 10.35 18.7 11.5 17.25 14.9 17.25 17.65 17.25 18.6 18.15 L19.3 18.7 M7.0 22.7 L7.8 21.45 Q8.35 22.6 10.0 24.0 L10.55 24.45 Q10.15 24.9 9.5 26.75 L5.5 26.75 Q5.5 25.1 7.0 22.7 M4.35 28.7 L7.75 29.0 Q10.65 29.0 12.1 27.55 12.8 26.8 13.55 26.45 L15.5 28.3 16.5 29.05 15.0 34.55 Q15.0 35.6 17.0 38.7 L18.8 41.3 16.9 43.15 Q13.05 35.5 11.05 34.0 9.05 33.05 6.75 30.95 L4.35 28.7 M11.45 39.25 L10.2 37.55 11.15 38.8 11.45 39.25 M9.85 37.15 Q8.75 36.3 4.65 35.4 3.1 35.05 2.35 33.9 L5.0 34.75 Q8.0 35.4 9.85 37.15 M5.35 80.85 Q5.55 74.55 7.45 69.8 11.1 60.6 20.0 60.6 L22.9 61.1 Q20.4 61.55 19.25 62.9 18.25 64.15 18.25 66.55 18.25 67.6 19.75 69.2 21.8 71.4 25.0 71.4 27.6 71.4 29.55 69.4 31.25 67.7 31.25 66.15 31.4 64.65 30.75 63.4 L30.55 63.05 Q31.65 62.7 35.95 60.35 38.65 58.9 40.05 57.75 L44.35 63.25 49.35 70.05 49.25 70.1 Q48.4 70.1 45.1 72.4 41.5 74.9 41.5 76.25 L42.15 77.85 Q42.55 79.3 41.25 80.4 37.2 83.85 17.4 83.85 9.4 83.85 5.35 80.85 M28.95 72.3 L28.7 72.35 Q24.0 73.0 24.0 78.35 L24.0 80.1 24.35 80.55 Q25.5 81.6 29.0 81.6 34.35 81.6 36.75 79.65 38.5 78.25 38.5 76.1 38.5 74.95 36.25 73.75 33.95 72.55 31.25 72.3 L28.95 72.3 M35.0 66.7 Q35.45 67.4 37.75 67.4 40.65 67.4 41.5 66.7 42.0 66.3 42.0 65.2 40.4 60.9 38.75 60.9 37.2 60.9 36.0 63.0 35.0 64.7 35.0 65.95 L35.0 66.7 M76.5 53.35 L80.0 53.15 Q80.25 55.25 79.9 59.85 79.85 62.45 80.55 64.3 L76.95 64.15 Q76.5 60.15 76.5 53.35 M65.0 59.1 Q65.0 54.85 65.8 52.9 67.85 55.05 68.25 60.6 68.55 65.15 69.8 67.55 L69.15 68.3 Q68.2 67.1 66.25 67.1 L65.9 67.1 Q65.45 65.45 65.2 62.8 L65.0 59.1" fill="#6a665d" fill-rule="evenodd" stroke="none"/>
    <path d="M93.85 67.45 L93.55 63.55 93.55 63.5 94.0 63.45 94.05 63.45 94.7 63.35 95.8 63.35 96.7 63.55 Q97.1 63.95 97.8 64.25 L98.15 64.8 98.5 68.35 100.0 68.6 102.2 68.0 Q103.8 67.35 104.4 67.35 106.85 67.35 108.05 68.75 109.15 70.05 109.95 70.1 L109.8 69.45 110.0 69.5 113.0 68.35 Q115.55 67.5 117.5 67.5 120.15 67.5 122.95 70.5 125.8 73.5 129.75 73.5 135.65 73.5 138.75 75.75 L138.9 76.0 138.45 76.3 138.05 76.5 137.9 76.55 140.4 79.45 140.3 79.5 139.9 79.6 135.4 80.5 134.1 79.0 132.4 76.55 129.55 76.05 125.05 76.55 120.5 77.0 Q114.95 77.0 113.0 74.5 L112.3 73.05 111.4 72.5 106.75 73.6 104.7 73.45 104.3 73.0 103.95 72.75 Q103.15 72.2 101.9 72.1 L101.8 72.1 101.7 72.1 100.6 72.1 100.55 72.1 Q98.55 71.15 96.5 69.65 L93.85 67.45 M82.15 59.5 L82.15 59.4 82.1 59.1 82.05 58.6 Q86.2 56.55 86.95 58.55 L87.4 60.2 87.65 60.7 Q87.0 61.6 86.45 62.8 L86.45 62.9 84.2 61.25 82.15 59.65 82.15 59.5 M88.0 72.7 Q91.35 73.4 92.9 74.55 L92.85 74.55 Q90.5 75.75 90.5 76.0 90.5 77.25 90.8 76.85 L95.0 78.45 Q98.2 79.6 100.5 79.6 L101.1 79.6 Q102.0 80.35 102.0 81.25 L98.35 82.25 98.3 82.25 Q96.95 81.35 94.25 80.4 L92.15 79.55 Q91.1 78.9 91.0 77.9 L87.75 78.1 Q84.6 78.1 82.25 74.6 79.9 71.1 76.5 71.1 L74.15 71.05 Q73.25 70.75 73.0 69.1 L72.5 69.15 72.75 69.85 73.0 71.1 Q73.0 72.15 72.6 72.6 72.15 73.1 71.0 73.1 69.2 73.1 68.9 71.95 L68.95 71.55 69.0 71.6 70.0 70.65 70.0 70.5 Q71.0 69.3 72.15 68.4 75.05 66.15 79.75 66.15 80.6 66.15 80.85 67.05 L81.0 68.85 80.8 70.45 Q80.65 71.2 80.8 71.6 85.9 72.5 86.4 74.25 L86.5 75.55 Q86.65 76.25 87.5 76.6 L88.15 76.15 88.5 75.9 88.0 72.7 M44.15 77.75 Q44.65 75.5 47.25 73.95 50.5 72.0 50.5 71.1 L50.6 70.9 51.0 71.1 53.6 70.0 56.35 69.35 Q57.65 69.35 58.9 70.75 60.15 72.1 60.75 72.1 L62.95 70.65 Q64.95 69.15 66.75 69.15 L67.75 70.1 67.8 70.15 68.2 70.65 66.4 72.3 Q64.6 74.1 63.75 74.1 L62.9 73.65 Q62.65 73.15 62.0 73.15 L61.5 73.9 Q61.0 74.6 60.5 74.6 59.35 74.6 59.15 74.3 58.7 73.65 57.55 73.1 55.0 76.25 52.4 74.8 51.2 74.1 50.6 74.2 49.6 74.35 48.5 76.35 48.2 76.85 48.1 78.05 47.85 79.1 46.5 79.6 44.65 79.3 44.15 77.85 L44.15 77.75 M71.15 62.9 L70.5 58.85 71.4 58.05 Q72.0 57.4 72.75 57.4 L74.15 57.6 74.35 57.65 74.4 58.55 74.45 58.8 74.45 58.9 74.65 60.6 74.55 60.65 71.15 62.9 M60.95 59.55 L61.1 59.9 Q61.4 60.6 62.25 60.6 L63.0 60.45 63.05 63.3 62.5 63.5 Q59.25 64.6 56.0 64.6 55.35 64.6 54.2 63.6 53.05 62.6 51.5 62.6 L48.55 62.35 46.7 62.15 46.55 62.0 44.3 59.35 44.25 59.25 46.1 58.05 Q48.0 57.0 49.95 56.85 L50.15 56.85 51.05 56.9 Q51.95 57.0 52.7 57.45 L52.7 57.85 54.0 58.7 54.0 58.75 Q55.2 60.6 55.75 60.6 L57.0 59.9 57.9 59.5 58.25 59.4 60.95 59.55" fill="#480000" fill-rule="evenodd" stroke="none"/>
    <path d="M14.7 57.9 L11.6 58.5 11.1 58.65 11.5 58.1 11.5 58.05 10.85 58.6 10.25 58.95 10.2 59.0 9.85 59.1 9.65 59.2 8.45 57.35 Q7.5 56.1 7.5 55.0 7.5 52.95 9.25 50.65 11.15 48.15 13.75 47.55 19.85 46.05 21.25 43.6 21.85 40.8 22.8 39.5 26.05 35.1 30.85 32.15 39.5 26.75 51.9 26.75 60.7 26.75 63.6 30.1 65.1 31.9 65.5 34.8 66.35 36.4 72.85 38.25 L73.1 38.3 73.3 38.35 73.45 38.4 74.8 38.75 Q76.7 39.25 78.8 40.7 L79.05 40.5 Q80.45 39.6 82.5 40.0 84.3 40.35 85.65 41.5 L86.25 40.9 Q87.7 39.25 88.65 39.25 90.9 39.25 92.75 41.25 L95.9 45.65 Q100.25 51.8 107.25 52.0 105.85 52.0 103.65 54.15 101.45 56.25 99.65 56.25 96.15 56.25 88.35 50.15 80.55 44.0 78.0 44.0 74.95 44.0 73.2 45.95 L71.8 48.05 Q67.15 46.2 62.35 42.75 L55.25 37.45 Q49.4 33.6 42.8 35.35 L42.55 35.4 Q40.75 34.25 39.5 34.55 37.7 34.95 36.55 37.7 L36.35 38.15 Q32.55 40.25 30.75 42.3 29.45 43.7 28.3 46.75 27.0 50.05 20.5 52.2 14.5 54.2 14.5 56.25 L14.7 57.9 M107.75 52.0 L111.25 51.85 111.05 52.45 107.75 52.0 M102.7 65.3 L102.2 65.4 100.5 65.9 100.05 64.6 102.7 65.3 M83.3 56.0 Q82.5 56.2 82.0 56.45 L82.0 55.3 83.0 56.05 83.3 56.0 M70.35 56.3 L70.0 56.75 69.65 55.55 69.85 56.2 70.35 56.3 M64.35 51.35 L64.2 51.6 64.35 51.35 M39.4 54.0 L39.25 53.95 39.65 53.65 39.4 54.0 M93.85 67.45 L96.5 69.65 Q98.55 71.15 100.55 72.1 L98.0 72.55 Q95.55 73.2 92.9 74.55 91.35 73.4 88.0 72.7 L87.85 72.15 Q87.55 71.15 86.3 70.45 L88.75 70.6 Q91.5 70.6 92.55 69.0 L93.0 69.1 93.9 68.85 94.0 68.6 93.85 67.45 M104.7 73.45 L106.75 73.6 111.4 72.5 112.3 73.05 113.0 74.5 Q114.95 77.0 120.5 77.0 L125.05 76.55 129.55 76.05 132.4 76.55 134.1 79.0 135.4 80.5 132.55 80.9 120.75 81.9 Q120.05 81.9 119.6 81.4 L119.05 80.85 114.15 80.55 111.75 80.6 107.55 80.55 102.5 81.1 102.0 81.25 Q102.0 80.35 101.1 79.6 104.5 79.55 105.25 78.65 L105.5 76.4 Q105.5 74.55 104.7 73.45 M140.4 79.45 L137.9 76.55 138.05 76.5 139.05 76.95 Q140.3 77.6 140.65 78.2 L140.55 78.25 140.5 78.35 140.5 79.4 140.4 79.45 M82.15 59.5 L82.15 59.65 84.2 61.25 86.45 62.9 Q85.1 65.7 84.5 68.75 L84.5 69.75 83.0 69.4 Q83.35 67.0 82.45 65.65 L82.5 65.6 82.5 62.9 Q82.25 61.55 82.15 59.5 M68.95 71.55 L68.9 71.95 Q69.2 73.1 71.0 73.1 72.15 73.1 72.6 72.6 73.0 72.15 73.0 71.1 L72.75 69.85 72.5 69.15 73.0 69.1 Q73.25 70.75 74.15 71.05 L76.5 71.1 Q79.9 71.1 82.25 74.6 84.6 78.1 87.75 78.1 L91.0 77.9 Q91.1 78.9 92.15 79.55 L94.25 80.4 Q96.95 81.35 98.3 82.25 L93.5 82.9 87.65 82.85 85.75 82.6 85.15 82.0 Q83.95 81.1 75.75 81.1 71.85 81.1 65.5 82.5 L57.4 83.85 47.85 82.75 43.1 81.9 Q44.0 80.35 44.0 78.85 L44.15 77.75 44.15 77.85 Q44.65 79.3 46.5 79.6 47.85 79.1 48.1 78.05 48.2 76.85 48.5 76.35 49.6 74.35 50.6 74.2 51.2 74.1 52.4 74.8 55.0 76.25 57.55 73.1 58.7 73.65 59.15 74.3 59.35 74.6 60.5 74.6 61.0 74.6 61.5 73.9 L62.0 73.15 Q62.65 73.15 62.9 73.65 L63.75 74.1 Q64.6 74.1 66.4 72.3 L68.2 70.65 68.95 71.55 M37.35 46.45 Q38.7 45.55 40.65 45.55 45.6 45.55 48.5 50.85 L48.3 51.5 48.05 52.1 Q47.8 52.5 47.0 52.5 L39.3 49.8 37.5 50.3 37.55 49.15 36.0 48.6 Q36.0 47.35 37.35 46.45 M11.3 57.2 L11.1 57.4 11.45 57.85 11.3 57.2 M71.15 62.9 L74.55 60.65 74.65 60.6 Q75.0 63.1 75.45 64.45 73.25 65.05 71.45 66.25 L71.15 62.9 M58.25 59.4 L60.75 59.15 60.95 59.55 58.25 59.4 M63.05 63.3 L63.1 64.3 Q63.35 66.3 63.95 67.45 63.3 67.7 62.95 68.1 62.1 69.1 61.0 69.1 60.25 68.5 59.3 67.95 57.45 66.85 55.5 67.15 54.2 67.35 52.55 68.35 51.65 68.85 51.0 69.4 50.75 67.1 47.75 63.35 L46.55 62.0 46.7 62.15 48.55 62.35 51.5 62.6 Q53.05 62.6 54.2 63.6 55.35 64.6 56.0 64.6 59.25 64.6 62.5 63.5 L63.05 63.3 M52.7 57.45 Q53.45 57.9 54.0 58.7 L52.7 57.85 52.7 57.45" fill="#2d0000" fill-rule="evenodd" stroke="none"/>
    <path d="M132.0 59.0 L131.0 59.05 Q130.2 58.9 130.0 58.55 L132.4 56.8 Q130.95 55.5 130.5 54.55 L130.75 54.2 131.0 54.0 133.35 55.9 Q134.65 54.65 135.75 54.05 135.9 55.25 134.35 56.7 136.4 58.4 136.8 59.3 136.8 59.75 136.05 59.8 L133.35 57.6 132.0 59.0 M28.25 63.5 L26.2 65.5 27.25 66.9 27.0 67.2 25.6 66.0 Q23.45 67.8 22.75 68.2 L22.25 67.95 Q23.5 66.2 24.7 65.1 L23.75 63.9 23.8 63.45 Q24.4 63.75 25.3 64.55 26.7 63.3 28.0 62.95 L28.15 62.75 28.25 63.5 M29.2 74.7 Q29.85 75.0 31.1 76.0 32.5 74.35 33.25 74.15 L33.4 73.95 33.5 74.7 Q33.5 75.5 32.45 76.65 L32.2 76.95 Q33.8 78.4 33.8 79.15 L33.5 79.4 31.55 77.6 29.75 79.4 Q29.25 79.4 29.0 79.1 29.25 78.25 30.55 76.65 L29.0 75.1 29.2 74.7" fill="#68686d" fill-rule="evenodd" stroke="none"/>
    <path d="M29.0 75.1 L29.05 74.65 29.2 74.7 29.0 75.1" fill="#ffffff" fill-rule="evenodd" stroke="none"/>
    <path d="M14.7 57.9 L14.5 56.25 Q14.5 54.2 20.5 52.2 27.0 50.05 28.3 46.75 29.45 43.7 30.75 42.3 32.55 40.25 36.35 38.15 L36.4 38.15 36.05 39.15 35.5 42.0 35.5 42.15 35.5 42.25 35.5 42.4 35.55 43.8 Q36.1 45.0 38.75 45.0 44.5 45.0 46.6 43.75 48.0 42.9 48.0 41.0 48.0 40.15 44.9 37.25 L42.85 35.6 42.55 35.4 42.8 35.35 Q49.4 33.6 55.25 37.45 L62.35 42.75 Q67.15 46.2 71.8 48.05 L73.2 45.95 Q74.95 44.0 78.0 44.0 80.55 44.0 88.35 50.15 96.15 56.25 99.65 56.25 101.45 56.25 103.65 54.15 105.85 52.0 107.25 52.0 L107.4 52.0 107.75 52.0 111.05 52.45 110.9 52.8 Q111.55 52.35 112.5 52.0 113.05 52.2 114.05 53.85 L114.35 54.4 Q115.95 54.75 116.9 55.6 117.85 56.45 118.6 58.45 119.3 60.35 120.15 60.95 121.6 61.95 125.0 61.55 125.0 62.0 125.3 62.0 125.05 63.25 126.05 65.15 126.85 66.6 128.0 67.8 128.5 68.35 132.0 68.85 135.35 69.35 136.25 70.55 L136.7 71.55 Q135.55 71.05 134.45 71.0 L134.25 71.0 131.25 70.95 Q126.35 70.7 125.15 69.55 L123.8 67.95 Q122.7 66.9 120.5 66.05 118.4 65.35 113.6 66.55 L113.5 66.5 113.35 66.5 113.0 66.5 Q112.65 66.5 112.05 66.05 L112.0 66.0 111.4 65.85 111.0 66.0 Q110.6 65.5 110.05 63.25 110.4 66.6 112.1 66.95 110.3 67.45 109.6 67.85 L109.9 67.0 109.5 66.7 109.35 66.6 Q107.4 65.1 104.5 65.1 L102.7 65.3 100.05 64.6 99.7 63.65 99.65 63.6 Q99.0 62.3 98.0 61.6 L94.05 61.3 93.45 61.45 93.3 58.85 92.9 58.9 92.8 57.35 Q90.85 57.25 89.2 58.8 88.75 57.4 87.8 56.15 86.2 55.2 83.55 55.9 L83.3 56.0 83.0 56.05 82.0 55.3 82.0 55.1 Q82.0 50.25 78.0 49.95 76.5 49.85 75.25 50.55 74.0 51.3 74.0 52.35 L74.05 54.0 72.75 54.15 Q71.5 54.75 70.35 56.3 L69.85 56.2 69.65 55.55 67.75 51.9 67.65 51.75 67.55 51.65 67.45 51.5 67.4 51.45 67.3 51.4 67.15 51.25 67.05 51.15 66.9 51.0 Q65.4 49.7 64.35 51.35 L64.2 51.6 Q63.15 53.5 63.05 57.85 62.3 57.1 59.75 57.1 L57.45 56.5 57.0 56.5 Q54.4 56.5 53.15 54.85 L51.75 55.0 50.15 54.85 50.2 54.9 49.45 55.1 Q44.25 54.75 42.95 57.45 L42.8 57.35 Q41.1 54.9 39.4 54.0 L39.65 53.65 39.25 53.95 Q37.1 52.9 34.9 54.35 30.9 58.35 28.9 58.35 L25.7 57.75 22.5 57.1 20.9 57.25 20.0 57.35 20.0 57.55 14.7 57.9 M61.4 19.5 L62.25 19.5 Q63.85 19.5 65.0 18.95 65.05 20.15 65.55 21.0 66.65 22.95 69.65 23.0 L68.3 26.05 Q66.95 29.45 66.6 31.65 L65.45 29.0 Q64.7 27.5 63.5 26.75 61.25 25.35 54.35 24.95 L61.4 19.5 M37.35 46.45 Q36.0 47.35 36.0 48.6 L37.55 49.15 37.5 50.3 39.3 49.8 47.0 52.5 Q47.8 52.5 48.05 52.1 L48.3 51.5 48.5 50.85 Q45.6 45.55 40.65 45.55 38.7 45.55 37.35 46.45" fill="#200000" fill-rule="evenodd" stroke="none"/>
  </g>
</svg>
