<?xml version="1.0" encoding="UTF-8" standalone="no"?>
<svg xmlns:ffdec="https://www.free-decompiler.com/flash" xmlns:xlink="http://www.w3.org/1999/xlink" ffdec:objectType="shape" height="136.8px" width="193.9px" xmlns="http://www.w3.org/2000/svg">
  <g transform="matrix(1.0, 0.0, 0.0, 1.0, 88.0, 61.5)">
    <path d="M43.7 -49.65 L44.2 -50.9 46.7 -46.05 46.85 -46.6 47.9 -44.6 51.5 -37.7 Q53.85 -34.3 56.85 -31.6 58.45 -30.1 63.25 -26.35 70.5 -20.75 84.45 -15.1 94.4 -11.05 98.0 -8.45 L98.0 -8.75 98.95 -8.85 101.35 -8.6 102.05 4.55 102.0 15.75 Q101.85 21.6 101.5 24.2 L101.4 25.15 101.35 25.2 Q101.1 26.25 100.8 26.3 101.2 28.15 101.25 30.7 L101.5 38.15 Q101.85 40.65 103.35 45.0 L105.9 52.4 Q105.6 53.3 104.9 53.65 L104.8 53.55 Q104.0 54.1 102.85 54.5 L101.15 55.0 100.9 55.0 98.2 56.15 Q94.9 57.4 91.4 58.05 L88.4 59.15 Q87.0 59.45 72.9 59.4 51.35 59.4 38.6 59.65 L38.45 59.65 38.4 59.8 30.75 59.8 21.8 59.25 19.5 61.35 12.45 68.0 Q7.8 72.2 3.25 75.3 L3.0 75.2 2.25 75.3 Q-0.45 75.3 -8.2 66.65 -12.15 62.25 -16.3 57.05 L-17.35 56.15 -17.55 56.4 -25.65 56.4 -33.75 55.1 -33.8 55.6 -36.05 55.6 Q-77.6 51.6 -79.6 50.6 -88.0 46.0 -88.0 44.7 L-87.95 43.7 -87.8 43.4 -87.05 43.5 -87.05 43.2 Q-87.05 41.95 -86.2 39.1 -85.25 36.05 -85.15 34.65 -84.65 29.35 -84.6 26.45 L-84.5 9.85 -84.2 5.05 -84.5 4.95 Q-84.4 3.5 -84.05 3.1 L-83.25 -2.9 -83.55 -3.85 -83.4 -4.95 Q-83.15 -4.95 -83.05 -5.15 L-82.85 -5.0 Q-81.75 -10.75 -79.9 -15.55 -79.75 -19.45 -76.15 -26.1 -73.4 -31.15 -70.9 -32.75 L-69.7 -34.7 -69.25 -35.35 -67.1 -37.9 -65.95 -39.05 -66.25 -38.15 Q-63.9 -40.25 -60.1 -42.8 L-56.8 -44.8 -55.95 -45.8 -51.55 -50.1 -50.5 -52.65 -50.6 -53.6 Q-50.6 -55.9 -46.55 -58.25 -42.5 -60.65 -37.6 -61.3 -32.1 -62.05 -28.65 -60.1 -26.2 -58.8 -25.2 -56.1 L-24.6 -56.4 -24.6 -52.55 -24.6 -52.15 -24.6 -52.1 -24.7 -49.8 -23.25 -46.2 -22.95 -46.0 Q-21.45 -44.95 -19.85 -44.35 -13.3 -42.05 4.6 -42.05 16.35 -42.05 21.3 -45.65 22.3 -46.35 22.95 -47.15 L22.8 -47.25 24.4 -51.2 Q25.65 -54.05 27.15 -54.35 29.95 -54.75 30.8 -50.95 31.15 -49.5 31.15 -46.35 L31.15 -45.2 31.45 -45.25 31.15 -44.95 31.1 -43.55 32.15 -43.45 32.1 -43.25 32.1 -42.8 32.45 -42.55 Q35.45 -43.75 38.15 -46.5 40.75 -49.15 43.7 -49.65 M29.1 -48.4 L29.05 -50.75 28.8 -51.55 Q27.0 -51.25 25.9 -48.6 L25.35 -47.5 25.95 -47.25 24.4 -45.15 Q20.25 -39.2 9.1 -39.2 L-15.3 -40.15 -17.3 -40.65 -18.7 -40.7 Q-20.2 -41.05 -22.5 -42.3 L-24.45 -43.65 -25.2 -44.45 -25.3 -43.8 -25.4 -42.8 -25.65 -39.85 -25.3 -37.6 -25.15 -36.15 Q-24.8 -33.3 -24.8 -31.85 L-24.85 -30.85 -24.85 -30.8 -24.95 -29.65 -25.25 -26.9 -25.3 -26.65 -25.75 -22.75 -25.75 -22.45 -25.85 -21.7 -25.85 -21.4 Q-25.85 -17.05 -19.05 -14.8 L-13.9 -13.05 -12.8 -12.75 -12.75 -12.65 -12.65 -12.6 -12.4 -12.55 -11.65 -12.25 -10.85 -13.4 -10.75 -13.35 -10.55 -13.25 -10.35 -13.05 -10.1 -12.8 Q-9.85 -12.25 -9.85 -11.1 L-10.35 -6.1 -10.9 0.6 -10.9 6.4 -10.95 9.5 -11.0 10.15 -10.5 10.15 Q-10.5 10.0 -10.45 10.15 -10.4 10.0 -10.35 10.15 -10.05 10.0 -9.7 10.15 -9.65 10.0 -9.55 10.15 -9.3 10.0 -9.05 10.15 L-8.75 10.15 -8.55 10.15 -8.5 10.15 -8.4 10.15 -8.15 10.15 9.65 10.55 10.25 10.65 15.8 10.8 15.7 9.55 15.7 9.1 15.8 6.5 15.85 5.5 15.85 5.4 15.9 3.95 Q15.4 -1.8 15.4 -6.1 L15.45 -6.65 Q15.45 -6.15 15.55 -6.15 L16.4 -6.1 Q16.9 -6.2 17.4 -6.95 L17.4 -6.7 17.45 -7.05 17.85 -7.75 18.2 -7.95 18.8 -8.25 19.0 -8.8 19.05 -8.95 19.05 -9.0 19.85 -9.45 22.75 -11.25 Q28.05 -14.75 28.05 -19.9 28.05 -21.5 27.5 -23.15 26.8 -25.0 26.6 -27.3 L26.6 -33.85 Q26.6 -41.05 27.05 -42.65 27.55 -44.5 28.85 -46.35 L29.15 -46.05 29.15 -46.3 29.15 -46.35 29.1 -48.4 M27.75 50.05 L28.2 49.65 28.55 49.4 32.5 45.95 33.0 45.5 33.3 45.2 34.35 44.35 34.35 43.75 34.35 43.45 34.35 43.1 34.35 42.55 34.35 41.8 34.35 40.4 34.35 40.3 34.35 38.25 34.35 38.15 34.3 36.15 34.3 35.35 34.3 34.5 34.3 29.7 34.6 27.05 34.4 26.9 34.5 25.05 34.5 18.65 34.35 13.45 34.05 13.55 34.0 11.35 34.25 11.15 33.95 5.05 33.9 5.05 33.7 4.95 Q33.5 4.75 33.5 3.8 33.5 2.95 33.85 2.65 L33.55 -2.15 33.3 -6.65 33.15 -6.7 Q32.95 -6.8 32.9 -7.35 L32.9 -7.5 32.9 -7.55 32.9 -7.75 33.2 -9.1 32.75 -17.75 32.55 -25.2 32.45 -28.9 32.1 -34.7 Q32.05 -37.15 32.35 -38.75 L31.9 -39.55 31.6 -40.15 31.15 -40.3 29.0 -40.75 Q28.75 -39.75 28.65 -38.5 L28.6 -33.3 28.75 -31.1 29.05 -28.65 29.15 -27.8 29.25 -27.1 29.25 -27.0 29.35 -26.45 Q30.05 -21.5 30.05 -19.35 30.05 -14.9 28.1 -12.25 L26.55 -10.6 26.45 -10.5 26.35 -10.45 26.3 -10.4 26.25 -10.4 Q21.15 -7.75 18.4 -4.85 17.75 -5.15 17.65 -5.2 L17.45 -6.05 17.4 -6.4 17.4 -6.1 17.4 -6.05 17.75 1.55 18.5 12.8 18.05 13.65 17.0 14.05 16.4 13.2 16.35 13.05 16.1 13.4 -11.1 12.7 -11.1 12.8 -12.0 13.3 -12.35 12.7 -13.1 12.65 -13.3 12.5 Q-13.5 12.3 -13.5 11.35 L-13.5 10.55 Q-13.4 10.4 -13.1 10.35 -13.55 8.1 -13.5 4.95 L-13.05 -4.6 -12.65 -8.4 -12.3 -10.15 Q-17.0 -10.4 -21.95 -13.6 -24.4 -15.2 -25.8 -16.8 L-26.0 -17.05 -26.15 -17.2 Q-27.85 -19.4 -27.85 -21.75 L-27.75 -23.05 -29.1 -22.0 -31.45 -20.5 -31.9 -6.5 -31.4 0.45 Q-30.95 7.1 -31.0 10.65 -31.1 20.5 -30.5 27.0 L-31.0 27.1 -30.8 29.4 -30.8 30.8 -31.0 34.15 -30.95 34.95 -30.95 35.0 -30.9 40.65 -30.6 40.75 -30.4 41.05 -30.35 41.1 -30.2 41.2 -30.15 41.2 -28.5 42.7 -25.25 45.25 -25.0 45.4 -23.85 46.35 -23.7 46.45 -23.1 46.9 -21.85 47.95 -21.7 48.15 -21.45 48.35 -20.35 49.35 -14.65 54.9 -14.5 55.05 -14.25 55.4 -14.2 55.4 -14.15 55.45 -5.75 64.9 -2.25 68.75 -2.1 68.85 -1.65 69.3 1.55 72.25 2.45 73.0 2.5 73.0 2.8 73.3 3.05 73.45 3.65 72.85 5.15 71.2 5.15 71.15 6.7 69.5 6.9 69.3 8.2 67.95 Q12.2 63.85 17.8 58.85 L18.9 57.85 18.9 57.8 Q18.9 56.8 20.2 56.65 L22.8 54.4 26.2 51.4 26.45 51.2 27.75 50.05 M44.4 -34.9 L41.2 -38.75 40.85 -39.15 Q40.15 -39.9 39.35 -41.3 L39.0 -41.95 39.25 -42.25 38.85 -42.65 Q36.25 -40.75 34.9 -40.15 36.05 -38.85 36.85 -36.5 38.6 -31.25 39.0 -30.65 L39.35 -29.95 42.55 -25.3 Q44.85 -22.2 46.0 -19.45 48.2 -14.1 52.55 -8.35 55.0 -5.0 60.2 1.6 L61.65 2.45 Q64.05 3.8 65.15 6.0 L67.75 6.1 72.1 7.7 72.35 7.75 72.75 7.9 76.9 8.9 86.7 9.9 92.5 9.85 93.05 10.15 93.05 9.85 93.05 4.6 92.65 -1.25 87.2 -4.8 85.65 -5.65 79.25 -7.85 Q73.1 -9.8 72.5 -10.1 70.5 -11.3 66.9 -14.45 63.6 -17.35 61.0 -18.55 53.5 -22.05 48.3 -29.6 L44.6 -34.65 44.4 -34.9 M34.8 -34.55 L34.65 -34.8 34.65 -34.4 34.6 -26.85 34.65 -26.15 37.0 -20.65 39.9 -16.7 43.0 -12.5 Q45.25 -8.45 53.8 3.35 L54.75 2.0 54.55 1.85 56.0 1.9 57.75 1.85 Q55.85 -0.25 52.15 -5.4 45.9 -14.0 44.0 -17.9 40.85 -23.2 38.25 -27.85 36.05 -31.85 34.8 -34.55 M35.15 -14.55 L35.6 -14.45 35.55 -14.45 35.15 -12.4 35.1 -12.45 35.05 -11.75 35.05 -11.45 34.95 -9.9 34.9 -6.15 Q34.9 -4.1 35.2 -3.4 L35.25 -3.35 35.6 2.6 36.45 2.65 47.95 3.9 Q48.95 4.6 50.5 4.6 L51.25 4.55 Q49.75 3.0 47.6 -0.4 L42.0 -9.55 Q37.25 -15.95 35.05 -19.9 L35.15 -14.55 M43.55 -41.25 L47.75 -33.45 Q49.75 -30.0 53.1 -26.85 56.3 -23.8 59.75 -21.8 L66.6 -16.95 Q70.65 -13.95 75.1 -12.3 L87.4 -7.75 Q90.65 -6.05 92.35 -4.6 L92.1 -8.3 92.15 -8.4 Q74.1 -16.55 63.05 -23.45 59.05 -25.85 52.1 -33.8 47.7 -38.85 45.75 -42.5 44.95 -43.2 43.2 -46.5 L40.9 -44.35 41.55 -43.6 43.25 -40.9 43.55 -41.25 M98.75 -5.85 L98.15 -5.8 Q96.05 -6.7 94.05 -7.55 94.65 -6.2 94.9 -3.9 L95.05 4.3 Q95.05 15.25 94.65 22.75 L95.15 22.9 Q96.9 22.7 100.0 22.8 L100.0 21.25 100.05 5.2 99.9 -1.55 Q99.6 -4.1 98.75 -5.85 M87.55 21.95 L87.5 21.95 84.35 21.3 Q76.15 19.45 61.35 18.75 L61.2 18.65 61.05 18.25 61.0 18.25 Q52.1 18.25 51.55 12.8 L51.5 12.2 51.4 12.8 51.1 13.05 36.35 13.35 36.5 18.5 36.4 25.55 36.5 26.55 36.35 45.95 Q35.0 46.4 33.35 48.05 L33.25 48.15 32.0 49.55 31.15 50.3 27.15 53.35 24.25 56.6 37.9 57.15 37.9 57.0 38.1 57.0 Q49.75 57.8 85.9 56.15 87.35 56.1 93.6 54.2 96.4 53.35 98.4 53.1 L98.4 52.95 Q99.8 51.85 103.95 52.0 102.0 48.4 100.85 44.35 99.1 38.25 99.0 31.15 L99.0 30.35 99.0 30.25 99.0 29.4 99.05 28.4 99.0 28.4 99.05 27.15 99.15 26.3 Q95.65 26.2 94.35 25.45 L93.35 25.45 93.2 25.25 93.1 24.95 Q92.55 24.1 92.4 22.85 L92.0 22.85 87.55 21.95 M93.0 12.95 L89.75 13.05 Q78.85 13.05 71.6 10.55 67.7 8.7 65.8 8.0 L66.0 10.15 Q66.0 12.05 64.4 14.95 L63.65 16.3 77.45 16.7 78.05 17.2 Q78.25 17.5 79.5 17.65 89.1 18.75 92.4 20.0 L93.0 14.9 93.0 12.95 M62.0 6.5 Q59.85 4.85 56.9 4.85 54.9 4.85 54.0 8.3 53.5 10.25 53.5 12.05 53.5 13.3 54.75 14.15 56.5 15.3 60.35 15.3 62.25 15.3 64.0 9.95 64.0 8.1 62.0 6.5 M51.5 6.55 L44.35 6.05 35.85 5.35 36.2 10.65 Q40.25 10.15 51.1 10.5 L51.3 10.7 Q51.5 10.8 51.5 11.8 L51.75 9.4 52.0 6.6 52.0 6.55 51.5 6.55 M-69.35 -30.4 L-73.0 -24.6 Q-75.15 -21.15 -76.35 -18.35 L-76.3 -18.25 -77.7 -14.5 -77.9 -13.05 -78.3 -12.85 -78.35 -12.8 Q-80.75 -6.5 -81.05 -4.5 L-81.05 -4.3 -74.85 -1.7 -74.55 -1.6 -74.2 -1.5 -73.7 -1.4 -72.6 -1.0 -72.45 -0.9 -72.35 -0.9 -71.75 -0.7 Q-66.65 0.75 -61.15 1.3 L-53.65 1.65 Q-47.4 1.65 -40.75 -1.0 -35.15 -3.7 -34.3 -3.7 L-33.7 -3.5 -33.7 -3.8 -33.9 -5.95 -33.85 -12.25 -33.85 -12.3 -34.1 -12.25 -34.1 -12.4 Q-33.95 -13.05 -33.9 -14.75 L-33.85 -14.75 -33.85 -15.7 -33.85 -17.5 -33.85 -18.5 -33.85 -18.9 -33.85 -19.05 -34.2 -18.9 Q-38.4 -16.8 -41.85 -16.8 -46.4 -16.8 -48.75 -16.95 L-51.0 -17.25 Q-55.7 -18.55 -56.6 -23.25 L-56.85 -25.75 -56.85 -25.9 -56.45 -28.5 -56.15 -29.5 -56.35 -30.65 -56.25 -34.25 Q-55.95 -36.15 -54.7 -37.35 L-54.35 -41.05 -54.05 -42.55 -54.25 -42.5 -55.1 -42.05 -56.3 -40.6 -56.35 -40.65 Q-57.8 -40.9 -58.8 -40.0 -64.65 -36.6 -67.5 -32.95 L-67.55 -32.65 -68.1 -31.9 -69.0 -30.75 -69.15 -30.8 -69.25 -30.7 -69.35 -30.4 M-31.3 -50.5 L-31.25 -50.45 -29.85 -49.7 Q-28.0 -48.7 -27.1 -47.7 L-27.05 -47.8 -26.9 -49.55 -26.6 -52.3 -26.65 -52.7 Q-26.85 -53.6 -27.6 -55.5 -28.75 -58.25 -29.45 -58.25 -41.45 -58.25 -45.7 -55.7 -47.15 -54.85 -48.1 -53.6 -48.25 -52.5 -49.2 -50.1 L-49.65 -48.95 Q-47.15 -50.95 -43.75 -51.75 L-33.85 -51.45 -31.3 -50.5 M-41.85 -46.0 Q-45.8 -45.0 -48.9 -42.25 L-50.45 -40.75 -52.7 -38.05 -52.7 -37.5 -53.0 -37.0 -53.85 -34.95 -53.7 -33.85 -53.6 -33.9 -53.1 -33.9 -52.75 -34.3 -52.75 -33.8 Q-50.45 -35.6 -46.85 -36.5 L-39.25 -37.5 -34.25 -38.25 -33.85 -38.25 -30.9 -37.6 Q-29.4 -37.0 -28.2 -35.8 L-27.85 -40.15 -27.8 -40.75 -27.7 -42.15 -27.75 -42.15 -29.8 -43.45 -30.7 -44.1 -30.75 -44.15 Q-31.3 -44.7 -33.55 -45.1 L-33.65 -45.1 -33.95 -45.15 -36.15 -45.5 -36.4 -46.05 -36.5 -46.35 -41.35 -45.95 -41.85 -46.0 M-52.35 -29.35 L-52.55 -28.9 -53.55 -28.0 Q-54.25 -27.1 -54.3 -26.35 L-54.35 -26.45 -54.6 -25.45 Q-54.6 -21.35 -50.35 -20.2 L-46.1 -19.85 Q-40.65 -19.85 -34.95 -21.8 L-33.8 -22.2 -31.35 -23.4 Q-27.25 -25.7 -27.25 -29.0 -27.25 -33.05 -31.0 -34.3 -32.25 -34.8 -33.85 -34.9 -36.35 -35.2 -39.8 -34.8 -44.6 -34.25 -48.45 -32.65 -50.9 -31.6 -51.8 -30.55 -52.35 -29.95 -52.35 -29.35 M-38.65 -15.35 L-38.65 -15.5 -38.15 -15.9 -38.65 -15.35 M-33.35 27.15 Q-33.25 27.0 -33.15 27.0 L-33.0 27.0 -32.8 6.8 -32.9 5.2 Q-33.7 6.55 -40.0 9.2 -47.65 12.45 -52.75 12.45 -65.6 12.45 -69.95 10.75 L-75.05 8.4 -75.15 8.35 -75.85 8.05 Q-78.65 6.8 -82.0 5.75 L-82.5 12.15 Q-82.85 17.15 -82.4 28.35 L-82.4 28.8 -82.4 29.35 -82.45 30.35 -82.55 31.7 Q-82.85 35.05 -83.5 37.85 -83.8 39.2 -84.25 40.55 L-85.7 44.05 -84.65 44.55 -83.9 44.95 -79.1 48.0 Q-65.75 50.5 -34.7 52.85 L-33.7 52.8 -32.9 52.8 -20.15 53.65 -26.55 48.15 -29.0 45.9 Q-31.7 43.2 -32.3 41.65 L-33.05 42.8 -33.0 39.95 -33.0 37.5 -33.0 37.1 -33.1 30.9 -33.1 30.4 -33.0 28.65 -32.85 27.5 -33.05 27.55 -33.4 27.7 -33.45 27.75 -33.45 27.65 -33.3 27.15 -33.35 27.15 M-33.15 3.8 L-33.0 3.75 -33.35 0.45 -33.5 -1.25 Q-35.05 -0.1 -39.65 1.65 -47.3 4.6 -54.05 4.6 -75.7 2.05 -81.45 -1.25 L-81.85 3.5 -77.3 4.85 -70.8 7.5 Q-69.3 8.1 -61.8 8.9 L-51.5 9.6 Q-43.25 8.45 -40.65 6.45 -39.5 5.45 -36.85 4.35 -34.65 3.45 -34.3 3.45 L-33.15 3.8" fill="#000000" fill-rule="evenodd" stroke="none"/>
    <path d="M26.55 -10.6 L28.1 -12.25 Q30.05 -14.9 30.05 -19.35 30.05 -21.5 29.35 -26.45 L29.25 -27.0 29.25 -27.1 29.15 -27.8 29.05 -28.65 28.75 -31.1 28.6 -33.3 28.65 -38.5 Q28.75 -39.75 29.0 -40.75 L31.15 -40.3 31.6 -40.15 31.9 -39.55 32.35 -38.75 Q32.05 -37.15 32.1 -34.7 L32.45 -28.9 32.55 -25.2 32.75 -17.75 33.2 -9.1 32.9 -7.75 32.9 -7.55 32.9 -7.5 32.9 -7.35 Q32.95 -6.8 33.15 -6.7 L33.3 -6.65 33.55 -2.15 33.85 2.65 Q33.5 2.95 33.5 3.8 33.5 4.75 33.7 4.95 L33.9 5.05 33.95 5.05 34.25 11.15 34.0 11.35 34.05 13.55 34.35 13.45 34.5 18.65 34.5 25.05 34.4 26.9 34.6 27.05 34.3 29.7 34.3 34.5 34.3 35.35 34.3 36.15 34.35 38.15 34.35 38.25 34.35 40.3 34.35 40.4 34.35 41.8 34.35 42.55 34.35 43.1 34.35 43.45 34.35 43.75 34.35 44.35 33.3 45.2 33.0 45.5 32.5 45.95 28.55 49.4 28.2 49.65 27.75 50.05 27.0 50.5 26.35 51.0 26.45 51.2 26.2 51.4 22.8 54.4 20.2 56.65 Q18.9 56.8 18.9 57.8 L18.9 57.85 17.8 58.85 Q12.2 63.85 8.2 67.95 L6.9 69.3 6.7 69.5 5.15 71.15 5.15 71.2 3.65 72.85 3.05 73.45 2.8 73.3 2.5 73.0 2.45 73.0 1.55 72.25 -1.65 69.3 -2.1 68.85 -2.25 68.75 -5.75 64.9 -14.15 55.45 -14.2 55.4 -14.25 55.4 -14.5 55.05 -14.65 54.9 -20.35 49.35 -21.45 48.35 -21.7 48.15 -21.85 47.95 -23.1 46.9 -23.7 46.45 -23.85 46.35 -25.0 45.4 -24.8 45.25 -25.0 44.7 -25.0 44.75 -25.25 45.25 -28.5 42.7 -30.15 41.2 -30.2 41.2 -30.35 41.1 -30.4 41.05 -30.6 40.75 -30.9 40.65 -30.95 35.0 -30.95 34.95 -31.0 34.15 -30.8 30.8 -30.8 29.4 -31.0 27.1 -30.5 27.0 Q-31.1 20.5 -31.0 10.65 -30.95 7.1 -31.4 0.45 L-31.9 -6.5 -31.45 -20.5 -29.1 -22.0 -27.75 -23.05 -27.85 -21.75 Q-27.85 -19.4 -26.15 -17.2 L-26.0 -17.05 -25.8 -16.8 -25.85 -11.1 -25.85 -3.55 -25.85 -3.4 -25.85 -1.65 -25.9 7.5 Q-26.0 17.1 -25.35 34.35 L-23.75 36.1 Q-15.35 44.1 -12.6 47.25 -7.05 52.55 -2.4 57.45 L2.45 62.85 4.6 60.95 6.3 59.05 17.3 48.15 27.8 37.25 27.85 29.8 Q27.5 25.05 27.65 17.75 L27.7 16.15 27.2 4.95 26.55 -10.4 26.55 -10.6 M99.0 28.4 L99.05 28.4 99.0 29.4 99.0 30.25 99.0 30.35 99.0 31.15 98.0 31.4 91.0 31.4 91.25 32.8 91.5 35.05 Q91.5 38.25 91.15 39.8 L90.6 40.3 90.9 41.15 Q90.35 41.75 88.35 42.45 L86.5 42.95 85.9 43.05 80.7 43.05 80.65 43.25 79.9 43.7 Q78.75 43.1 78.35 41.1 L77.8 37.55 76.9 33.0 Q75.8 33.5 75.0 33.95 L69.0 33.95 69.0 34.15 68.65 38.0 68.3 42.1 68.4 43.05 Q68.4 43.6 67.55 44.0 65.5 44.75 59.4 44.9 L55.25 44.9 55.1 44.75 Q54.9 44.55 54.9 43.6 L54.95 43.4 54.4 43.25 54.0 33.3 54.0 32.55 47.35 31.6 44.3 31.05 43.6 41.1 43.5 41.4 43.35 41.5 43.35 41.55 43.35 41.8 43.2 43.1 42.85 43.4 39.55 43.7 39.1 43.7 36.4 44.1 36.4 41.0 41.25 40.65 41.25 40.25 Q41.25 37.0 41.7 33.7 41.95 31.65 42.35 30.4 L42.3 30.35 42.45 30.1 Q42.8 28.9 43.3 28.55 L44.0 28.85 46.5 28.6 55.5 29.6 55.55 29.75 56.55 29.9 56.8 30.1 Q57.0 30.25 57.0 31.2 57.0 32.05 56.5 32.2 56.0 32.35 56.0 33.15 56.0 38.15 56.85 42.1 L59.4 41.95 66.55 41.75 Q66.25 40.65 66.25 39.95 66.25 37.85 66.9 34.8 L67.15 33.8 Q67.0 33.55 67.0 32.65 67.0 32.05 67.5 31.8 L67.7 31.7 68.0 30.7 68.55 31.5 74.8 31.05 76.6 30.65 79.05 30.05 79.3 30.25 Q79.5 30.35 79.5 31.3 L79.4 31.65 79.5 34.95 Q79.5 35.3 80.25 36.8 L81.0 38.55 80.95 40.45 86.75 40.05 88.35 39.95 89.3 39.9 89.25 39.4 Q89.25 33.8 89.95 31.45 L89.95 31.4 89.8 31.4 89.65 31.25 Q89.5 31.15 89.5 30.15 L89.55 29.2 89.8 28.8 94.85 28.6 99.0 28.4 M100.85 44.35 Q102.0 48.4 103.95 52.0 99.8 51.85 98.4 52.95 L98.4 53.1 Q96.4 53.35 93.6 54.2 87.35 56.1 85.9 56.15 49.75 57.8 38.1 57.0 L37.9 57.0 37.9 57.15 24.25 56.6 27.15 53.35 31.15 50.3 31.3 50.55 32.0 49.55 33.25 48.15 33.35 48.05 37.95 48.2 40.05 48.35 40.25 48.35 42.3 48.55 42.55 48.6 42.6 48.6 44.35 48.95 44.4 48.95 45.0 49.05 45.05 49.05 47.7 49.45 49.1 49.55 49.6 49.55 49.6 49.65 51.4 49.7 71.5 50.1 71.95 50.1 72.7 50.1 74.35 50.1 75.2 50.1 75.45 50.1 77.3 50.1 79.0 50.1 79.65 50.1 79.75 50.1 79.9 50.1 82.0 49.8 83.0 49.5 83.8 49.35 84.05 49.25 85.25 48.95 88.4 48.0 97.5 45.1 100.85 44.35 M62.0 6.5 Q64.0 8.1 64.0 9.95 62.25 15.3 60.35 15.3 56.5 15.3 54.75 14.15 53.5 13.3 53.5 12.05 53.5 10.25 54.0 8.3 54.9 4.85 56.9 4.85 59.85 4.85 62.0 6.5 M55.5 10.8 L55.5 12.25 Q56.0 13.55 58.5 13.55 59.85 13.55 60.3 12.25 L60.5 10.25 Q60.5 6.8 58.0 6.85 55.5 6.85 55.5 10.8 M1.95 16.65 L3.45 16.7 4.45 16.7 4.4 37.2 -0.3 37.2 -0.55 31.85 -0.35 21.3 -0.3 18.9 -0.25 16.6 1.95 16.65 M13.1 16.7 L13.05 37.2 8.3 37.2 8.1 31.85 8.4 16.65 8.4 16.6 12.45 16.7 13.1 16.7 M15.95 31.85 L16.25 16.6 20.95 16.7 20.9 37.2 16.2 37.2 15.95 31.85 M-10.7 23.25 L-9.2 21.2 -7.0 18.2 -6.5 17.45 -6.5 17.4 -2.6 19.45 -8.0 27.3 -2.5 35.25 -6.6 37.2 -10.05 32.65 -10.85 31.5 -14.9 37.25 -19.0 35.3 -16.0 30.55 -14.0 27.75 -13.65 27.3 -14.0 26.85 -16.35 23.25 -16.65 22.75 -16.75 22.7 -19.0 19.3 -14.85 17.4 -10.75 23.2 -10.75 23.25 -10.7 23.25 M-77.1 30.3 L-74.05 31.4 -73.75 31.55 -74.0 29.75 -73.9 25.15 Q-73.45 21.75 -71.4 21.9 -71.1 21.35 -71.0 22.2 L-64.5 22.85 Q-62.05 23.1 -60.7 24.1 -60.45 23.25 -60.0 22.85 -59.25 23.55 -59.05 24.95 L-59.0 26.85 -59.25 30.9 -59.5 35.75 -58.15 36.05 -51.85 37.25 -48.45 37.1 -48.5 36.2 -48.2 29.15 -47.85 26.45 -48.5 25.8 -48.5 24.35 -47.45 24.6 -47.0 23.6 Q-46.65 23.95 -46.4 24.75 L-43.95 25.25 Q-39.4 26.35 -34.0 26.85 L-33.9 26.85 -33.85 26.9 -33.35 27.15 -33.3 27.15 -33.45 27.65 -33.45 27.75 -33.4 27.7 -33.05 27.55 -33.0 28.5 -33.0 28.65 -33.1 30.4 -33.25 32.75 -33.45 37.35 -33.4 37.35 -33.0 37.5 -33.0 39.95 -35.3 39.9 -35.5 39.4 -35.75 38.55 -35.55 38.45 Q-35.6 32.35 -34.95 29.35 L-36.75 29.4 Q-40.1 29.4 -44.2 28.05 L-46.0 27.35 -46.0 29.55 -46.65 38.55 Q-46.8 38.55 -47.55 39.05 L-47.75 38.8 -47.8 39.4 -48.75 39.65 -51.55 39.65 -51.75 39.75 -53.75 39.8 -57.25 39.05 Q-60.2 38.3 -61.65 38.5 L-61.8 38.25 -62.0 36.95 -61.95 35.85 -61.75 35.35 -61.4 35.45 -61.45 35.2 -61.5 33.0 -61.4 27.55 -61.3 26.75 -65.9 25.9 -71.2 24.95 -71.5 27.1 -72.0 32.65 -72.1 33.5 Q-72.2 33.95 -73.0 33.95 L-73.15 33.95 -73.25 33.95 -73.4 33.95 -73.5 33.95 -75.75 33.55 -77.05 33.1 -77.1 33.1 -77.1 33.15 -78.35 32.6 Q-80.3 31.6 -82.55 31.7 L-82.45 30.35 -82.4 29.35 -82.4 28.8 -80.75 29.0 -77.1 30.3 M-29.0 45.9 L-26.55 48.15 -20.15 53.65 -32.9 52.8 -33.7 52.8 -34.7 52.85 Q-65.75 50.5 -79.1 48.0 L-83.9 44.95 -84.65 44.55 -85.7 44.05 -84.25 40.55 Q-83.8 39.2 -83.5 37.85 L-77.15 39.55 -77.05 39.6 -76.4 39.75 -76.05 39.9 -75.8 39.95 -66.5 41.95 -64.6 42.3 -62.25 42.7 -45.5 45.15 -31.3 46.0 -29.0 45.9" fill="#cc9d3c" fill-rule="evenodd" stroke="none"/>
    <path d="M-25.3 -43.8 L-25.2 -44.45 -24.45 -43.65 -22.5 -42.3 Q-20.2 -41.05 -18.7 -40.7 L-17.3 -40.65 -15.3 -40.15 9.1 -39.2 Q20.25 -39.2 24.4 -45.15 L25.95 -47.25 25.35 -47.5 25.9 -48.6 Q27.0 -51.25 28.8 -51.55 L29.05 -50.75 29.1 -48.4 Q25.9 -47.75 25.0 -41.4 24.5 -38.05 24.6 -29.7 L24.55 -19.9 Q24.55 -16.6 20.85 -14.1 18.65 -12.65 17.6 -11.5 L17.55 -11.5 17.4 -11.3 17.3 -11.25 17.05 -11.35 16.1 -10.1 Q15.5 -9.05 15.5 -8.3 L15.4 -7.2 15.45 -6.65 15.4 -6.1 Q15.4 -1.8 15.9 3.95 L15.85 5.4 -10.9 6.4 -10.9 0.6 -10.35 -6.1 -9.85 -11.1 Q-9.85 -12.25 -10.1 -12.8 L-10.35 -13.05 -10.35 -13.75 Q-10.35 -16.2 -14.5 -17.45 L-20.25 -19.45 -23.25 -21.55 -23.7 -21.8 Q-22.9 -23.0 -22.55 -24.95 -22.3 -26.5 -22.3 -31.05 -22.3 -36.55 -24.75 -41.8 L-25.3 -43.8 M19.85 -9.45 L19.05 -9.0 19.05 -9.15 19.85 -9.45 M34.65 -34.4 L34.8 -34.55 Q36.05 -31.85 38.25 -27.85 40.85 -23.2 44.0 -17.9 45.9 -14.0 52.15 -5.4 55.85 -0.25 57.75 1.85 L56.0 1.9 54.55 1.85 54.75 2.0 53.8 3.35 Q45.25 -8.45 43.0 -12.5 L39.9 -16.7 37.0 -20.65 34.65 -26.15 34.6 -26.85 34.65 -34.4 M43.55 -41.25 L43.25 -40.9 41.55 -43.6 40.9 -44.35 43.2 -46.5 Q44.95 -43.2 45.75 -42.5 47.7 -38.85 52.1 -33.8 59.05 -25.85 63.05 -23.45 74.1 -16.55 92.15 -8.4 L92.1 -8.3 92.35 -4.6 Q90.65 -6.05 87.4 -7.75 L75.1 -12.3 Q70.65 -13.95 66.6 -16.95 L59.75 -21.8 Q56.3 -23.8 53.1 -26.85 49.75 -30.0 47.75 -33.45 L43.55 -41.25 M98.75 -5.85 Q99.6 -4.1 99.9 -1.55 L100.05 5.2 100.0 21.25 100.0 22.8 Q96.9 22.7 95.15 22.9 L94.65 22.75 Q95.05 15.25 95.05 4.3 L94.9 -3.9 Q94.65 -6.2 94.05 -7.55 96.05 -6.7 98.15 -5.8 L98.75 -5.85 M93.0 12.95 L93.0 14.9 92.4 20.0 Q89.1 18.75 79.5 17.65 78.25 17.5 78.05 17.2 L77.45 16.7 63.65 16.3 64.4 14.95 Q66.0 12.05 66.0 10.15 L65.8 8.0 Q67.7 8.7 71.6 10.55 78.85 13.05 89.75 13.05 L93.0 12.95 M51.5 6.55 L52.0 6.6 51.75 9.4 51.5 11.8 Q51.5 10.8 51.3 10.7 L51.1 10.5 Q40.25 10.15 36.2 10.65 L35.85 5.35 44.35 6.05 51.5 6.55 M-25.3 -37.6 L-24.75 -36.2 -25.15 -36.15 -25.3 -37.6 M-24.8 -31.85 L-24.6 -31.85 -24.85 -30.85 -24.8 -31.85 M-33.15 3.8 L-34.3 3.45 Q-34.65 3.45 -36.85 4.35 -39.5 5.45 -40.65 6.45 -43.25 8.45 -51.5 9.6 L-61.8 8.9 Q-69.3 8.1 -70.8 7.5 L-77.3 4.85 -81.85 3.5 -81.45 -1.25 Q-75.7 2.05 -54.05 4.6 -47.3 4.6 -39.65 1.65 -35.05 -0.1 -33.5 -1.25 L-33.35 0.45 -33.0 3.75 -33.15 3.8" fill="#221c15" fill-rule="evenodd" stroke="none"/>
    <path d="M-10.35 -13.75 L-10.35 -13.05 -10.55 -13.25 -10.35 -13.75" fill="#1a150f" fill-rule="evenodd" stroke="none"/>
    <path d="M-25.3 -43.8 L-24.75 -41.8 Q-22.3 -36.55 -22.3 -31.05 -22.3 -26.5 -22.55 -24.95 -22.9 -23.0 -23.7 -21.8 L-23.25 -21.55 -20.25 -19.45 -14.5 -17.45 Q-10.35 -16.2 -10.35 -13.75 L-10.55 -13.25 -10.75 -13.35 -10.85 -13.4 -11.65 -12.25 -12.4 -12.55 -12.65 -12.6 -12.75 -12.65 -12.8 -12.75 -13.9 -13.05 -19.05 -14.8 Q-25.85 -17.05 -25.85 -21.4 L-25.85 -21.7 -25.75 -22.45 -25.75 -22.75 -25.3 -26.65 -25.25 -26.9 -24.95 -29.65 -24.85 -30.8 -24.85 -30.85 -24.6 -31.85 -24.8 -31.85 Q-24.8 -33.3 -25.15 -36.15 L-24.75 -36.2 -25.3 -37.6 -25.65 -39.85 -25.4 -42.8 -25.3 -43.8 M-10.9 6.4 L15.85 5.4 15.85 5.5 15.8 6.5 15.7 9.1 15.7 9.55 15.8 10.8 10.25 10.65 9.65 10.55 -8.15 10.15 -8.4 10.15 -8.5 10.15 -8.55 10.15 -8.75 10.15 -9.05 10.15 Q-9.3 10.0 -9.55 10.15 -9.65 10.0 -9.7 10.15 -10.05 10.0 -10.35 10.15 -10.4 10.0 -10.45 10.15 -10.5 10.0 -10.5 10.15 L-11.0 10.15 -10.95 9.5 -10.9 6.4 M15.45 -6.65 L15.4 -7.2 15.5 -8.3 Q15.5 -9.05 16.1 -10.1 L17.05 -11.35 17.3 -11.25 17.4 -11.3 17.55 -11.5 17.6 -11.5 Q18.65 -12.65 20.85 -14.1 24.55 -16.6 24.55 -19.9 L24.6 -29.7 Q24.5 -38.05 25.0 -41.4 25.9 -47.75 29.1 -48.4 L29.15 -46.35 28.85 -46.35 Q27.55 -44.5 27.05 -42.65 26.6 -41.05 26.6 -33.85 L26.6 -27.3 Q26.8 -25.0 27.5 -23.15 28.05 -21.5 28.05 -19.9 28.05 -14.75 22.75 -11.25 L19.85 -9.45 19.05 -9.15 19.05 -9.0 19.05 -8.95 19.0 -8.8 18.8 -8.25 18.2 -7.95 17.85 -7.75 17.45 -7.05 17.4 -6.95 Q16.9 -6.2 16.4 -6.1 L15.55 -6.15 Q15.45 -6.15 15.45 -6.65" fill="#0f0c09" fill-rule="evenodd" stroke="none"/>
    <path d="M-25.25 45.25 L-25.0 44.75 -25.0 45.4 -25.25 45.25 M31.15 50.3 L32.0 49.55 31.3 50.55 31.15 50.3" fill="#872b0c" fill-rule="evenodd" stroke="none"/>
    <path d="M-25.0 44.75 L-25.0 44.7 -24.8 45.25 -25.0 45.4 -25.0 44.75" fill="#67210a" fill-rule="evenodd" stroke="none"/>
    <path d="M-41.85 -46.0 L-41.35 -45.95 -36.5 -46.35 -36.4 -46.05 -36.15 -45.5 -33.95 -45.15 -33.65 -45.1 -33.55 -45.1 Q-31.3 -44.7 -30.75 -44.15 L-30.7 -44.1 -29.8 -43.45 -27.75 -42.15 -27.7 -42.15 -27.8 -40.75 -27.85 -40.15 -28.2 -35.8 Q-29.4 -37.0 -30.9 -37.6 L-33.85 -38.25 -34.25 -38.25 -39.25 -37.5 -46.85 -36.5 Q-50.45 -35.6 -52.75 -33.8 L-52.75 -34.3 -53.1 -33.9 -53.6 -33.9 -53.7 -33.85 -53.85 -34.95 -53.0 -37.0 -52.7 -37.5 -52.7 -38.05 -50.45 -40.75 -48.9 -42.25 Q-45.8 -45.0 -41.85 -46.0 M-31.3 -50.5 L-33.85 -51.45 -43.75 -51.75 Q-47.15 -50.95 -49.65 -48.95 L-49.2 -50.1 Q-48.25 -52.5 -48.1 -53.6 -47.15 -54.85 -45.7 -55.7 -41.45 -58.25 -29.45 -58.25 -28.75 -58.25 -27.6 -55.5 -26.85 -53.6 -26.65 -52.7 L-26.6 -52.3 -26.9 -49.55 -27.05 -47.8 -27.1 -47.7 Q-28.0 -48.7 -29.85 -49.7 L-31.25 -50.45 -31.3 -50.5" fill="#3c0000" fill-rule="evenodd" stroke="none"/>
    <path d="M-52.35 -29.35 Q-52.35 -29.95 -51.8 -30.55 -50.9 -31.6 -48.45 -32.65 -44.6 -34.25 -39.8 -34.8 -36.35 -35.2 -33.85 -34.9 -32.25 -34.8 -31.0 -34.3 -27.25 -33.05 -27.25 -29.0 -27.25 -25.7 -31.35 -23.4 L-33.8 -22.2 -34.95 -21.8 Q-40.65 -19.85 -46.1 -19.85 L-50.35 -20.2 Q-54.6 -21.35 -54.6 -25.45 L-54.35 -26.45 -54.3 -26.35 Q-54.25 -27.1 -53.55 -28.0 L-52.55 -28.9 -52.35 -29.35" fill="#1a0000" fill-rule="evenodd" stroke="none"/>
    <path d="M55.5 10.8 Q55.5 6.85 58.0 6.85 60.5 6.8 60.5 10.25 L60.3 12.25 Q59.85 13.55 58.5 13.55 56.0 13.55 55.5 12.25 L55.5 10.8" fill="#473612" fill-rule="evenodd" stroke="none"/>
    <path d="M93.05 9.85 L93.05 10.15 92.5 9.85 93.05 9.85 M87.5 21.95 L87.55 21.95 87.5 22.2 87.5 21.95 M89.8 31.4 L89.95 31.4 89.95 31.45 89.8 31.4 M83.0 49.5 L83.25 48.5 83.4 48.75 83.4 49.4 83.8 49.35 83.0 49.5 M50.65 45.2 L50.65 45.55 50.55 45.55 50.65 45.2 M-74.85 -1.7 L-74.85 -1.8 -74.55 -1.6 -74.85 -1.7 M-69.15 -30.8 L-69.35 -30.4 -69.25 -30.7 -69.15 -30.8 M-75.15 8.35 L-75.8 8.1 -75.9 8.05 -75.85 8.05 -75.15 8.35 M-33.05 27.55 L-32.85 27.5 -33.0 28.65 -33.0 28.5 -33.05 27.55 M-33.1 30.4 L-33.1 30.9 -33.0 37.1 -33.0 37.5 -33.4 37.35 -33.45 37.35 -33.25 32.75 -33.1 30.4" fill="#942403" fill-rule="evenodd" stroke="none"/>
    <path d="M26.55 -10.6 L26.55 -10.4 26.45 -10.5 26.55 -10.6 M44.35 -34.85 L44.4 -34.9 44.6 -34.65 44.35 -34.85 M17.4 -6.1 L17.45 -6.05 17.4 -6.05 17.4 -6.1 M-34.2 -18.9 L-33.85 -19.05 -33.85 -18.9 -34.2 -18.9 M-34.1 -12.25 L-33.85 -12.3 -33.85 -12.25 -34.1 -12.25 M-33.7 -3.8 L-33.7 -3.5 -34.3 -3.7 -33.7 -3.8 M-10.75 23.2 L-10.7 23.25 -10.75 23.25 -10.75 23.2 M-75.8 8.1 L-76.0 8.5 -75.9 8.05 -75.8 8.1 M-77.05 33.1 L-77.1 33.15 -77.1 33.1 -77.05 33.1" fill="#731c02" fill-rule="evenodd" stroke="none"/>
    <path d="M39.35 -29.95 L39.0 -30.65 Q38.6 -31.25 36.85 -36.5 36.05 -38.85 34.9 -40.15 36.25 -40.75 38.85 -42.65 L39.25 -42.25 39.0 -41.95 39.35 -41.3 Q40.15 -39.9 40.85 -39.15 L41.2 -38.75 44.4 -34.9 44.35 -34.85 Q43.25 -33.45 42.6 -33.15 L39.1 -30.45 39.35 -29.95 M87.2 -4.8 L92.65 -1.25 93.05 4.6 93.05 9.85 92.5 9.85 86.7 9.9 87.4 9.9 87.5 8.5 87.2 -4.8 M17.45 -6.05 L17.4 -6.05 17.45 -6.05 M87.55 21.95 L92.0 22.85 92.4 22.85 Q92.55 24.1 93.1 24.95 L93.2 25.25 93.35 25.45 94.35 25.45 Q95.65 26.2 99.15 26.3 L99.05 27.15 99.0 28.4 94.85 28.6 89.8 28.8 89.55 29.2 89.5 30.15 Q89.5 31.15 89.65 31.25 L89.8 31.4 89.95 31.45 Q89.25 33.8 89.25 39.4 L89.3 39.9 88.35 39.95 88.0 27.65 87.5 22.2 87.55 21.95 M99.0 31.15 Q99.1 38.25 100.85 44.35 L97.5 45.1 88.4 48.0 88.35 42.45 Q90.35 41.75 90.9 41.15 L90.6 40.3 91.15 39.8 Q91.5 38.25 91.5 35.05 L91.25 32.8 91.0 31.4 98.0 31.4 99.0 31.15 M-74.85 -1.7 L-81.05 -4.3 -81.05 -4.5 Q-80.75 -6.5 -78.35 -12.8 L-78.3 -12.85 -77.9 -13.05 -77.7 -14.5 -76.3 -18.25 -76.35 -18.35 Q-75.15 -21.15 -73.0 -24.6 L-69.35 -30.4 -69.15 -30.8 -69.0 -30.75 -68.1 -31.9 -67.55 -32.65 -67.5 -32.95 Q-64.65 -36.6 -58.8 -40.0 -57.8 -40.9 -56.35 -40.65 L-56.3 -40.6 -55.1 -42.05 -54.25 -42.5 -54.05 -42.55 -54.35 -41.05 -54.7 -37.35 Q-55.95 -36.15 -56.25 -34.25 L-56.35 -30.65 -56.15 -29.5 -56.45 -28.5 -57.6 -27.95 -61.1 -25.8 Q-63.8 -24.05 -65.0 -23.5 -66.65 -22.7 -69.65 -18.45 -73.0 -13.75 -73.0 -11.1 L-72.95 -10.75 -73.4 -9.8 Q-74.2 -7.65 -74.85 -1.8 L-74.85 -1.7 M-76.0 8.5 Q-76.5 11.9 -77.0 18.7 L-77.1 30.3 -80.75 29.0 -82.4 28.8 -82.4 28.35 Q-82.85 17.15 -82.5 12.15 L-82.0 5.75 Q-78.65 6.8 -75.85 8.05 L-75.9 8.05 -76.0 8.5 M-83.5 37.85 Q-82.85 35.05 -82.55 31.7 -80.3 31.6 -78.35 32.6 L-77.1 33.15 -77.25 38.7 -77.15 39.55 -83.5 37.85" fill="#046193" fill-rule="evenodd" stroke="none"/>
    <path d="M26.55 -10.4 L27.2 4.95 27.7 16.15 27.65 17.75 Q27.5 25.05 27.85 29.8 L27.8 37.25 17.3 48.15 6.3 59.05 4.6 60.95 2.45 62.85 -2.4 57.45 Q-7.05 52.55 -12.6 47.25 -15.35 44.1 -23.75 36.1 L-25.35 34.35 Q-26.0 17.1 -25.9 7.5 L-25.85 -1.65 -25.85 -3.4 -25.85 -3.55 -25.85 -11.1 -25.8 -16.8 Q-24.4 -15.2 -21.95 -13.6 -17.0 -10.4 -12.3 -10.15 L-12.65 -8.4 -13.05 -4.6 -13.5 4.95 Q-13.55 8.1 -13.1 10.35 -13.4 10.4 -13.5 10.55 L-13.5 11.35 Q-13.5 12.3 -13.3 12.5 L-13.1 12.65 -12.35 12.7 -12.0 13.3 -11.1 12.8 -11.1 12.7 16.1 13.4 16.4 13.2 17.0 14.05 18.05 13.65 18.5 12.8 17.75 1.55 17.4 -6.05 17.45 -6.05 17.65 -5.2 Q17.75 -5.15 18.4 -4.85 21.15 -7.75 26.25 -10.4 L26.3 -10.4 26.35 -10.45 26.45 -10.5 26.55 -10.4 M39.35 -29.95 L39.1 -30.45 42.6 -33.15 Q43.25 -33.45 44.35 -34.85 L44.6 -34.65 48.3 -29.6 Q53.5 -22.05 61.0 -18.55 63.6 -17.35 66.9 -14.45 70.5 -11.3 72.5 -10.1 73.1 -9.8 79.25 -7.85 L85.65 -5.65 87.2 -4.8 87.5 8.5 87.4 9.9 86.7 9.9 76.9 8.9 72.75 7.9 72.35 7.75 72.1 7.7 67.75 6.1 65.15 6.0 Q64.05 3.8 61.65 2.45 L60.2 1.6 Q55.0 -5.0 52.55 -8.35 48.2 -14.1 46.0 -19.45 44.85 -22.2 42.55 -25.3 L39.35 -29.95 M35.15 -14.55 L35.05 -19.9 Q37.25 -15.95 42.0 -9.55 L47.6 -0.4 Q49.75 3.0 51.25 4.55 L50.5 4.6 Q48.95 4.6 47.95 3.9 L36.45 2.65 35.6 2.6 35.25 -3.35 35.2 -3.4 Q34.9 -4.1 34.9 -6.15 L34.95 -9.9 35.05 -11.45 35.05 -11.75 35.1 -12.45 35.15 -12.4 35.55 -14.45 35.6 -14.45 35.15 -14.55 M33.35 48.05 Q35.0 46.4 36.35 45.95 L36.5 26.55 36.4 25.55 36.5 18.5 36.35 13.35 51.1 13.05 51.4 12.8 51.55 12.8 Q52.1 18.25 61.0 18.25 L61.05 18.25 61.2 18.65 61.35 18.75 Q76.15 19.45 84.35 21.3 L87.5 21.95 87.5 22.2 88.0 27.65 88.35 39.95 86.75 40.05 80.95 40.45 81.0 38.55 80.25 36.8 Q79.5 35.3 79.5 34.95 L79.4 31.65 79.5 31.3 Q79.5 30.35 79.3 30.25 L79.05 30.05 76.6 30.65 74.8 31.05 68.55 31.5 68.0 30.7 67.7 31.7 67.5 31.8 Q67.0 32.05 67.0 32.65 67.0 33.55 67.15 33.8 L66.9 34.8 Q66.25 37.85 66.25 39.95 66.25 40.65 66.55 41.75 L59.4 41.95 56.85 42.1 Q56.0 38.15 56.0 33.15 56.0 32.35 56.5 32.2 57.0 32.05 57.0 31.2 57.0 30.25 56.8 30.1 L56.55 29.9 55.55 29.75 55.5 29.6 46.5 28.6 44.0 28.85 43.3 28.55 Q42.8 28.9 42.45 30.1 L42.3 30.35 42.35 30.4 Q41.95 31.65 41.7 33.7 41.25 37.0 41.25 40.25 L41.25 40.65 36.4 41.0 36.4 44.1 39.1 43.7 39.55 43.7 42.85 43.4 43.2 43.1 43.35 41.8 43.35 41.55 43.35 41.5 43.5 41.4 43.6 41.1 44.3 31.05 47.35 31.6 54.0 32.55 54.0 33.3 54.4 43.25 54.95 43.4 54.9 43.6 Q54.9 44.55 55.1 44.75 L55.25 44.9 59.4 44.9 Q65.5 44.75 67.55 44.0 68.4 43.6 68.4 43.05 L68.3 42.1 68.65 38.0 69.0 34.15 69.0 33.95 75.0 33.95 Q75.8 33.5 76.9 33.0 L77.8 37.55 78.35 41.1 Q78.75 43.1 79.9 43.7 L80.65 43.25 80.7 43.05 85.9 43.05 86.5 42.95 88.35 42.45 88.4 48.0 85.25 48.95 84.05 49.25 83.8 49.35 83.4 49.4 83.4 48.75 83.25 48.5 83.0 49.5 82.0 49.8 79.9 50.1 79.75 50.1 79.65 50.1 79.0 50.1 77.3 50.1 75.45 50.1 75.2 50.1 74.35 50.1 72.7 50.1 71.95 50.1 71.5 50.1 51.4 49.7 49.6 49.65 49.6 49.55 49.1 49.55 47.7 49.45 45.05 49.05 45.0 49.05 44.4 48.95 44.35 48.95 42.6 48.6 42.55 48.6 42.3 48.55 40.25 48.35 40.05 48.35 37.95 48.2 33.35 48.05 M50.65 45.2 L50.55 45.55 50.65 45.55 50.65 45.2 M1.95 16.65 L-0.25 16.6 -0.3 18.9 -0.35 21.3 -0.55 31.85 -0.3 37.2 4.4 37.2 4.45 16.7 3.45 16.7 3.45 16.65 1.95 16.6 1.95 16.65 M12.45 16.7 L8.4 16.6 8.4 16.65 8.1 31.85 8.3 37.2 13.05 37.2 13.1 16.7 13.1 16.65 12.45 16.6 12.45 16.7 M15.95 31.85 L16.2 37.2 20.9 37.2 20.95 16.7 16.25 16.6 15.95 31.85 M-74.85 -1.8 Q-74.2 -7.65 -73.4 -9.8 L-72.95 -10.75 -73.0 -11.1 Q-73.0 -13.75 -69.65 -18.45 -66.65 -22.7 -65.0 -23.5 -63.8 -24.05 -61.1 -25.8 L-57.6 -27.95 -56.45 -28.5 -56.85 -25.9 -56.85 -25.75 -56.6 -23.25 Q-55.7 -18.55 -51.0 -17.25 L-48.75 -16.95 Q-46.4 -16.8 -41.85 -16.8 -38.4 -16.8 -34.2 -18.9 L-33.85 -18.9 -33.85 -18.5 -33.85 -17.5 -33.85 -15.7 -33.85 -14.75 -33.9 -14.75 Q-33.95 -13.05 -34.1 -12.4 L-34.1 -12.25 -33.85 -12.25 -33.9 -5.95 -33.7 -3.8 -34.3 -3.7 Q-35.15 -3.7 -40.75 -1.0 -47.4 1.65 -53.65 1.65 L-61.15 1.3 Q-66.65 0.75 -71.75 -0.7 L-72.35 -0.9 -72.45 -0.9 -72.6 -1.0 -73.7 -1.4 -74.2 -1.5 -74.55 -1.6 -74.85 -1.8 M-38.65 -15.35 L-38.15 -15.9 -38.65 -15.5 -38.65 -15.35 M-10.75 23.2 L-14.85 17.4 -19.0 19.3 -16.75 22.7 -16.65 22.75 -16.35 23.25 -14.0 26.85 -13.65 27.3 -14.0 27.75 -16.0 30.55 -19.0 35.3 -14.9 37.25 -10.85 31.5 -10.05 32.65 -6.6 37.2 -2.5 35.25 -8.0 27.3 -2.6 19.45 -6.5 17.4 -6.5 17.45 -7.0 18.2 -9.2 21.2 -10.7 23.25 -10.75 23.2 M-75.15 8.35 L-75.05 8.4 -69.95 10.75 Q-65.6 12.45 -52.75 12.45 -47.65 12.45 -40.0 9.2 -33.7 6.55 -32.9 5.2 L-32.8 6.8 -33.0 27.0 -33.15 27.0 Q-33.25 27.0 -33.35 27.15 L-33.85 26.9 -33.9 26.85 -34.0 26.85 Q-39.4 26.35 -43.95 25.25 L-46.4 24.75 Q-46.65 23.95 -47.0 23.6 L-47.45 24.6 -48.5 24.35 -48.5 25.8 -47.85 26.45 -48.2 29.15 -48.5 36.2 -48.45 37.1 -51.85 37.25 -58.15 36.05 -59.5 35.75 -59.25 30.9 -59.0 26.85 -59.05 24.95 Q-59.25 23.55 -60.0 22.85 -60.45 23.25 -60.7 24.1 -62.05 23.1 -64.5 22.85 L-71.0 22.2 Q-71.1 21.35 -71.4 21.9 -73.45 21.75 -73.9 25.15 L-74.0 29.75 -73.75 31.55 -74.05 31.4 -77.1 30.3 -77.0 18.7 Q-76.5 11.9 -76.0 8.5 L-75.8 8.1 -75.15 8.35 M-33.0 39.95 L-33.05 42.8 -32.3 41.65 Q-31.7 43.2 -29.0 45.9 L-31.3 46.0 -45.5 45.15 -62.25 42.7 -64.6 42.3 -66.5 41.95 -75.8 39.95 -76.05 39.9 -76.4 39.75 -77.05 39.6 -77.15 39.55 -77.25 38.7 -77.1 33.15 -77.05 33.1 -75.75 33.55 -73.5 33.95 -73.4 33.95 -73.25 33.95 -73.15 33.95 -73.0 33.95 Q-72.2 33.95 -72.1 33.5 L-72.0 32.65 -71.5 27.1 -71.2 24.95 -65.9 25.9 -61.3 26.75 -61.4 27.55 -61.5 33.0 -61.45 35.2 -61.4 35.45 -61.75 35.35 -61.95 35.85 -62.0 36.95 -61.8 38.25 -61.65 38.5 Q-60.2 38.3 -57.25 39.05 L-53.75 39.8 -51.75 39.75 -51.55 39.65 -48.75 39.65 -47.8 39.4 -47.75 38.8 -47.55 39.05 Q-46.8 38.55 -46.65 38.55 L-46.0 29.55 -46.0 27.35 -44.2 28.05 Q-40.1 29.4 -36.75 29.4 L-34.95 29.35 Q-35.6 32.35 -35.55 38.45 L-35.75 38.55 -35.5 39.4 -35.3 39.9 -33.0 39.95" fill="#034970" fill-rule="evenodd" stroke="none"/>
  </g>
</svg>
