<?xml version="1.0" encoding="UTF-8" standalone="no"?>
<svg xmlns:ffdec="https://www.free-decompiler.com/flash" xmlns:xlink="http://www.w3.org/1999/xlink" ffdec:objectType="shape" height="128.7px" width="96.65px" xmlns="http://www.w3.org/2000/svg">
  <g transform="matrix(1.0, 0.0, 0.0, 1.0, 55.3, 60.2)">
    <path d="M5.5 -59.65 L10.75 -60.2 Q17.95 -60.2 29.05 -56.4 41.35 -52.2 41.35 -48.1 41.35 -47.35 31.8 -39.05 22.65 -31.15 21.3 -30.35 L20.35 -30.45 Q19.9 -30.6 19.9 -31.35 19.4 -31.6 18.6 -32.2 L15.65 -34.25 13.65 -35.25 12.85 -33.05 11.85 -29.95 14.25 -28.7 18.85 -25.85 Q21.65 -27.15 23.85 -27.85 L23.9 -28.05 24.35 -28.0 24.65 -28.1 25.05 -28.1 25.2 -27.7 Q26.6 -26.95 27.7 -24.75 L29.8 -19.35 31.65 -13.15 32.9 -8.15 32.6 -4.5 32.55 -3.5 32.7 -0.25 32.6 0.35 32.95 0.65 32.85 0.8 32.55 1.1 32.45 1.45 32.2 1.75 30.7 1.75 30.7 2.7 30.65 3.75 30.7 4.3 30.6 7.45 31.2 8.0 32.7 9.6 Q33.5 10.55 33.7 11.45 L34.45 15.3 34.7 18.5 Q34.7 22.7 33.5 26.85 32.2 31.45 31.5 35.4 31.95 37.6 32.25 41.75 32.25 43.0 31.25 47.35 L30.7 49.95 Q30.35 51.6 30.35 52.35 L29.55 54.7 28.25 57.5 Q27.75 58.5 26.5 59.1 L23.6 59.75 Q22.85 59.75 22.2 57.9 L21.4 55.6 Q19.75 53.35 19.0 53.4 18.15 53.45 17.3 52.5 L14.0 48.3 13.8 48.0 13.75 48.2 Q13.45 49.25 12.65 50.0 L12.5 51.05 12.75 52.65 13.0 54.25 Q13.0 58.65 12.8 59.75 12.15 63.15 9.5 64.0 8.45 63.1 8.6 61.8 L9.0 59.55 8.8 59.3 8.8 59.4 6.65 64.05 4.5 68.3 Q5.0 68.5 3.75 68.5 L2.5 68.25 Q3.15 65.6 1.35 61.65 -0.55 57.7 0.0 55.5 L-0.85 57.95 Q-1.4 59.8 -1.85 60.75 -1.5 61.0 -2.75 61.0 -5.3 61.0 -5.4 57.15 L-5.0 51.05 -5.7 51.35 -6.75 51.5 -8.0 51.25 -8.0 48.55 -6.35 43.95 Q-5.4 41.9 -3.35 41.4 L-3.45 41.25 -3.5 39.1 Q-3.5 36.1 -3.0 35.4 L-2.1 34.75 Q-2.5 33.85 -2.55 32.2 L-2.5 29.8 -2.45 27.8 -5.65 31.75 Q-10.6 37.5 -12.2 37.5 -18.6 32.45 -19.85 28.65 L-21.75 24.2 Q-23.5 19.95 -23.5 18.4 -23.5 15.55 -21.7 11.4 -25.7 15.95 -28.3 15.95 -30.95 15.95 -37.5 10.6 -44.05 5.35 -44.05 3.4 -44.05 2.3 -43.2 1.15 -42.15 -0.4 -40.45 -0.4 L-33.85 0.95 -29.55 -9.55 -28.0 -13.25 -30.45 -14.6 -32.15 -11.7 Q-35.55 -5.75 -36.05 -5.2 L-37.15 -6.15 Q-38.05 -6.15 -46.5 -11.05 L-51.3 -12.9 Q-54.5 -14.25 -55.1 -16.0 L-54.95 -16.15 -55.15 -16.25 -55.3 -17.35 Q-55.3 -22.0 -40.25 -40.2 -31.5 -48.6 -18.0 -54.3 -6.5 -59.15 0.2 -59.15 L5.5 -59.65 M10.7 -57.85 L10.65 -57.85 -1.75 -57.3 Q-3.85 -57.3 -11.35 -54.55 -17.95 -52.15 -21.75 -50.3 L-25.8 -48.1 -29.8 -45.75 -35.45 -41.35 -40.7 -36.35 Q-46.45 -30.05 -48.95 -26.0 -51.4 -22.0 -52.75 -16.7 -52.0 -16.6 -51.0 -16.05 -45.8 -13.2 -45.4 -13.05 -44.5 -12.2 -40.4 -10.05 L-36.85 -8.05 -31.95 -16.4 -32.0 -16.95 -31.9 -17.6 -31.3 -17.5 -30.45 -19.0 Q-30.45 -20.2 -27.75 -23.45 -24.75 -27.05 -20.5 -30.4 -8.8 -39.6 2.8 -39.6 8.95 -39.6 13.75 -37.85 18.6 -36.1 21.0 -32.9 22.8 -34.7 27.55 -38.45 36.25 -45.4 38.6 -48.4 34.15 -52.4 27.2 -54.95 19.3 -57.85 10.7 -57.85 M25.15 -24.3 L24.35 -26.0 23.5 -25.35 21.7 -24.25 21.55 -24.15 18.2 -22.45 Q8.55 -17.8 6.35 -16.35 4.5 -15.15 -0.5 -11.25 -3.6 -8.85 -5.8 -7.75 -5.45 -7.4 -6.6 -7.4 L-7.5 -7.4 -7.85 -7.85 -8.85 -8.5 Q-10.45 -9.65 -11.1 -9.65 -13.6 -9.65 -14.55 -6.95 -15.05 -5.6 -15.05 -4.1 -15.05 -1.9 -14.0 0.2 -12.45 3.4 -9.1 3.4 -7.75 3.4 -6.95 2.0 L-5.75 0.05 -5.45 0.05 -5.7 -1.05 -4.15 -1.05 -3.95 -0.9 -3.85 -0.65 -3.4 -0.7 Q2.8 -0.9 27.85 -0.3 L28.0 -0.3 28.05 -0.3 30.1 -0.25 30.25 -0.25 30.25 -0.55 30.25 -0.95 30.3 -1.0 30.3 -2.25 30.3 -3.5 30.3 -3.65 30.3 -4.95 30.5 -5.0 30.7 -8.85 Q30.7 -11.6 27.2 -19.7 L25.15 -24.3 M9.55 -31.8 Q9.55 -32.35 10.8 -34.15 11.55 -35.25 12.25 -35.8 8.05 -37.3 2.5 -37.3 -13.15 -37.3 -24.95 -22.55 -27.1 -19.9 -29.25 -16.45 L-27.35 -14.8 -25.0 -19.9 Q-24.15 -21.55 -20.2 -24.85 L-14.55 -29.2 Q-7.8 -33.9 -1.6 -33.4 1.65 -33.1 5.35 -31.9 7.2 -31.9 9.95 -30.8 L9.55 -31.8 M11.4 -21.95 Q14.25 -23.6 16.75 -24.85 L14.15 -26.3 Q10.15 -28.6 9.35 -28.7 4.8 -29.4 1.85 -30.6 -0.15 -31.4 -2.95 -31.4 -6.25 -31.4 -12.9 -27.2 L-19.5 -22.55 Q-21.6 -20.55 -22.9 -18.3 L-25.0 -14.2 Q-30.45 -3.5 -30.45 2.2 -30.45 3.55 -30.55 2.85 L-30.7 3.15 -31.65 3.4 -36.0 2.8 -40.6 1.85 -41.4 2.25 -41.65 3.5 -41.65 3.55 -41.4 4.15 -41.2 4.4 Q-40.1 5.95 -35.8 9.15 -29.95 13.45 -28.1 13.45 -25.8 13.45 -21.75 7.8 L-16.75 0.95 -15.85 0.85 -16.7 -1.9 -17.45 -4.95 Q-17.45 -5.95 -16.15 -8.1 -14.85 -10.25 -13.8 -11.0 -11.25 -12.7 -8.4 -11.2 -7.35 -10.65 -6.7 -10.1 -4.05 -12.6 4.75 -18.05 8.3 -20.25 11.4 -21.95 M21.55 2.95 L21.35 2.7 Q18.2 1.85 18.2 4.05 18.2 4.8 18.35 4.95 L18.45 5.2 19.95 5.45 Q21.7 5.45 21.7 3.95 L21.55 2.95 M29.65 16.45 L29.7 17.95 Q29.7 21.85 27.6 25.55 28.25 25.8 29.05 27.05 L30.1 28.95 31.7 23.7 Q32.7 20.6 32.7 18.45 32.45 15.2 31.5 12.7 30.2 9.2 28.15 9.25 24.1 11.4 21.5 14.9 18.7 18.7 18.7 22.25 18.7 23.05 19.45 27.3 L20.2 31.95 26.6 23.2 Q27.25 22.25 27.6 19.1 27.95 16.0 28.7 14.95 29.5 15.55 29.65 16.45 M16.1 3.45 L15.65 3.4 15.65 3.5 16.1 3.45 M11.8 2.5 L11.15 1.85 9.0 4.7 Q6.5 7.7 6.5 9.25 L6.9 11.15 7.2 12.0 7.5 13.0 7.5 13.05 7.65 13.35 8.85 12.0 12.1 8.1 12.0 6.35 11.8 2.5 M15.25 11.4 L15.25 12.75 Q15.15 15.75 14.75 17.3 L14.15 19.6 16.7 20.0 16.75 18.35 Q16.95 17.6 19.2 13.7 20.7 11.1 23.0 9.5 18.8 9.9 15.5 10.95 L15.25 11.1 15.25 11.4 M4.5 9.35 Q4.5 7.15 6.25 4.75 L6.85 4.05 5.8 3.0 4.8 1.45 -0.45 1.35 -0.6 1.8 -0.65 1.85 -0.35 5.9 -0.35 6.95 0.0 6.6 0.5 6.5 3.5 8.9 4.2 9.65 4.25 9.65 4.5 10.0 4.5 9.35 M7.15 1.6 L8.25 2.4 9.0 1.65 8.3 1.6 8.3 1.55 7.0 1.5 7.15 1.6 M5.4 13.25 L5.0 13.5 Q4.1 12.45 1.25 10.5 0.0 9.65 -0.35 8.55 L-0.35 11.1 -0.3 14.6 Q1.2 14.85 2.65 16.3 L3.5 17.25 4.65 18.8 Q5.0 16.65 6.1 15.15 L6.0 14.15 6.05 13.75 5.4 13.25 M-0.05 18.15 Q-0.45 18.8 -0.5 19.65 -0.15 20.3 -0.2 21.2 L-0.1 21.35 -0.2 21.45 -0.25 21.7 Q-0.5 23.7 0.0 24.5 L0.05 24.5 0.3 24.65 0.45 24.95 3.05 26.5 4.55 27.45 4.6 26.15 4.9 25.4 Q4.2 25.05 4.0 24.0 L4.0 22.35 4.05 21.65 1.5 19.4 0.15 17.95 -0.15 17.6 -0.05 18.15 M10.95 13.5 L10.0 14.65 Q6.5 18.75 6.5 22.3 L6.2 22.55 6.45 23.5 7.0 23.05 9.2 21.65 10.75 20.3 Q11.25 19.45 12.05 19.1 L12.0 16.85 11.8 15.6 12.05 12.55 12.1 12.0 10.95 13.5 M11.35 23.15 L11.35 22.9 11.35 22.65 11.1 22.9 7.75 26.0 Q6.35 27.4 6.35 29.3 L6.35 31.6 8.95 30.5 Q11.9 29.05 11.5 27.3 L11.35 23.15 M16.65 23.25 L16.75 23.15 16.75 23.0 16.5 23.0 13.45 22.85 13.5 25.35 Q13.5 29.9 13.05 30.65 L12.85 31.0 12.95 31.55 13.0 33.6 Q13.0 35.8 12.25 37.9 L12.2 37.95 12.25 38.05 12.3 38.3 12.3 38.35 12.3 38.45 12.45 39.05 12.5 40.0 12.5 40.45 12.5 40.75 12.5 40.85 12.5 40.9 Q13.35 41.2 13.75 42.3 L14.05 44.2 14.55 44.85 18.0 49.8 18.05 49.9 18.3 49.55 Q18.55 49.15 19.3 49.15 21.75 49.15 23.35 54.55 L23.65 55.75 23.8 54.45 Q24.0 53.6 25.4 53.0 26.5 53.65 26.6 54.85 L26.9 54.85 27.0 54.0 Q27.0 53.4 27.45 53.2 27.85 53.0 27.85 52.35 27.85 51.75 28.35 50.05 L28.8 47.75 29.45 44.45 Q30.05 41.65 30.05 40.4 L29.85 37.7 Q28.95 36.9 28.8 35.35 L28.45 32.0 27.1 29.0 26.45 27.35 Q22.2 33.8 20.7 37.25 20.35 37.7 19.7 37.95 18.2 36.8 18.05 34.0 L17.7 29.75 Q16.85 27.15 16.75 23.3 L15.95 23.7 16.65 23.25 M10.8 35.15 L11.2 32.45 Q9.55 33.65 6.55 35.25 L6.5 35.4 10.65 36.15 10.8 35.15 M-0.5 27.75 L-0.5 29.75 Q-0.5 32.2 1.05 34.3 L1.35 34.45 2.0 34.5 4.5 35.05 4.5 34.8 4.75 34.35 4.6 33.95 4.5 32.25 4.65 32.2 4.55 31.75 4.5 30.0 4.25 30.0 Q3.9 30.0 1.45 28.45 L-0.25 27.35 -0.3 27.3 -0.5 27.75 M9.5 38.45 L9.8 38.05 9.55 38.0 0.1 36.95 Q-1.5 37.15 -1.5 39.15 L-1.35 40.75 Q-0.9 41.25 1.9 41.25 L6.25 40.85 10.0 40.25 10.0 38.85 9.7 38.6 9.5 38.45 M-5.2 48.4 L-4.0 48.0 -1.85 48.0 -1.65 48.2 Q-1.5 48.35 -1.5 49.1 -1.5 49.5 -2.1 50.55 L-3.0 52.0 -3.0 56.5 -1.85 53.95 Q-0.6 51.5 0.75 51.5 L1.8 51.75 Q2.1 53.7 1.75 57.4 1.8 60.7 4.25 63.0 4.9 62.15 6.4 58.65 7.65 55.9 9.0 55.0 9.6 55.2 10.0 55.9 L10.8 57.0 10.75 54.2 10.5 51.75 10.6 49.25 Q10.75 48.5 11.25 48.05 L11.5 47.1 12.0 44.9 11.9 43.45 Q11.7 43.1 10.95 42.75 L2.0 43.5 Q-0.45 43.5 -1.85 42.85 L-2.75 43.7 Q-4.35 45.1 -5.35 48.25 L-5.5 48.5 -5.2 48.4 M-4.7 4.7 L-4.7 4.45 -4.75 4.65 -4.7 4.7 M-9.1 5.8 Q-10.05 5.8 -12.75 4.05 L-14.5 2.8 -17.8 9.0 Q-21.2 15.9 -21.2 18.95 -21.2 22.05 -17.2 28.15 L-12.15 35.2 -7.05 29.6 Q-3.6 25.85 -3.6 25.3 L-7.05 20.5 Q-10.5 15.4 -10.5 13.3 -10.5 12.4 -8.7 7.85 L-7.75 5.6 -9.1 5.8 M-3.25 21.85 L-3.3 21.9 -1.95 23.7 -2.0 22.4 -2.0 22.25 -2.15 21.75 -2.35 21.75 -3.0 21.75 -3.1 21.8 -3.25 21.85 M-4.4 20.4 L-4.4 20.35 -4.45 20.35 -4.4 20.4" fill="#000000" fill-rule="evenodd" stroke="none"/>
    <path d="M23.5 -25.35 L24.35 -26.0 25.15 -24.3 23.9 -25.6 23.5 -25.35 M30.25 -0.95 L30.25 -0.55 30.15 -0.3 30.25 -0.95 M27.85 -0.3 Q2.8 -0.9 -3.4 -0.7 L-3.85 -0.65 -3.95 -0.9 -4.15 -1.05 -5.7 -1.05 -5.45 0.05 -5.75 0.05 -6.95 2.0 Q-7.75 3.4 -9.1 3.4 -12.45 3.4 -14.0 0.2 -15.05 -1.9 -15.05 -4.1 -15.05 -5.6 -14.55 -6.95 -13.6 -9.65 -11.1 -9.65 -10.45 -9.65 -8.85 -8.5 L-7.85 -7.85 -7.5 -7.4 -6.6 -7.4 Q-5.45 -7.4 -5.8 -7.75 -3.6 -8.85 -0.5 -11.25 4.5 -15.15 6.35 -16.35 8.55 -17.8 18.2 -22.45 L21.55 -24.15 21.8 -23.55 22.8 -20.9 24.6 -16.2 Q26.45 -11.7 26.6 -10.2 26.4 -6.8 26.6 -4.3 26.85 -1.45 27.85 -0.3 M9.55 -31.8 L9.95 -30.8 Q7.2 -31.9 5.35 -31.9 1.65 -33.1 -1.6 -33.4 -7.8 -33.9 -14.55 -29.2 L-20.2 -24.85 Q-24.15 -21.55 -25.0 -19.9 L-27.35 -14.8 -29.25 -16.45 Q-27.1 -19.9 -24.95 -22.55 -13.15 -37.3 2.5 -37.3 8.05 -37.3 12.25 -35.8 11.55 -35.25 10.8 -34.15 9.55 -32.35 9.55 -31.8 M-41.2 4.4 L-37.55 5.65 -30.25 6.6 Q-29.75 6.6 -28.95 5.65 L-28.25 4.5 Q-28.25 2.2 -22.85 -11.2 -21.4 -13.8 -19.95 -15.5 -18.2 -17.65 -15.6 -19.55 L-11.0 -23.8 Q-6.85 -27.5 -5.05 -27.5 0.25 -27.5 7.5 -23.9 L11.4 -21.95 Q8.3 -20.25 4.75 -18.05 -4.05 -12.6 -6.7 -10.1 -7.35 -10.65 -8.4 -11.2 -11.25 -12.7 -13.8 -11.0 -14.85 -10.25 -16.15 -8.1 -17.45 -5.95 -17.45 -4.95 L-16.7 -1.9 -15.85 0.85 -16.75 0.95 -21.75 7.8 Q-25.8 13.45 -28.1 13.45 -29.95 13.45 -35.8 9.15 -40.1 5.95 -41.2 4.4 M-9.1 5.8 L-7.75 5.6 -8.7 7.85 Q-10.5 12.4 -10.5 13.3 -10.5 15.4 -7.05 20.5 L-3.6 25.3 Q-3.6 25.85 -7.05 29.6 L-12.15 35.2 -17.2 28.15 Q-21.2 22.05 -21.2 18.95 -21.2 15.9 -17.8 9.0 L-14.5 2.8 -12.75 4.05 Q-10.05 5.8 -9.1 5.8" fill="#4e5963" fill-rule="evenodd" stroke="none"/>
    <path d="M4.5 9.35 L4.5 10.0 4.25 9.65 4.5 9.35 M7.15 1.6 L7.0 1.5 8.3 1.55 8.3 1.6 9.0 1.65 8.25 2.4 7.15 1.6 M5.4 13.25 L5.15 13.6 5.0 13.5 5.4 13.25 M-0.05 18.15 L-0.15 17.6 0.15 17.95 -0.05 18.15 M11.8 15.6 L10.95 13.5 12.1 12.0 12.05 12.55 11.8 15.6" fill="#221f1c" fill-rule="evenodd" stroke="none"/>
    <path d="M30.25 -0.55 L30.25 -0.25 30.1 -0.25 30.15 -0.3 30.25 -0.55" fill="#5b6171" fill-rule="evenodd" stroke="none"/>
    <path d="M21.55 2.95 L21.7 3.95 Q21.7 5.45 19.95 5.45 L18.45 5.2 18.35 4.95 Q18.2 4.8 18.2 4.05 18.2 1.85 21.35 2.7 L21.55 2.95" fill="#ffffff" fill-rule="evenodd" stroke="none"/>
    <path d="M29.65 16.45 Q29.5 15.55 28.7 14.95 27.95 16.0 27.6 19.1 27.25 22.25 26.6 23.2 L20.2 31.95 19.45 27.3 Q18.7 23.05 18.7 22.25 18.7 18.7 21.5 14.9 24.1 11.4 28.15 9.25 30.2 9.2 31.5 12.7 32.45 15.2 32.7 18.45 32.7 20.6 31.7 23.7 L30.1 28.95 29.05 27.05 Q28.25 25.8 27.6 25.55 29.7 21.85 29.7 17.95 L29.65 16.45 M11.8 2.5 L12.0 6.35 12.1 8.1 8.85 12.0 7.65 13.35 7.5 13.05 7.5 13.0 7.2 12.0 6.9 11.15 6.5 9.25 Q6.5 7.7 9.0 4.7 L11.15 1.85 11.8 2.5 M4.2 9.65 L3.5 8.9 0.5 6.5 0.0 6.6 -0.35 6.95 -0.35 5.9 -0.65 1.85 -0.6 1.8 -0.45 1.35 4.8 1.45 5.8 3.0 6.85 4.05 6.25 4.75 Q4.5 7.15 4.5 9.35 L4.2 9.65 M5.0 13.5 L5.15 13.6 5.4 13.25 6.05 13.75 6.0 14.15 6.1 15.15 Q5.0 16.65 4.65 18.8 L3.5 17.25 2.65 16.3 Q1.2 14.85 -0.3 14.6 L-0.35 11.1 -0.35 8.55 Q0.0 9.65 1.25 10.5 4.1 12.45 5.0 13.5 M0.15 17.95 L1.5 19.4 4.05 21.65 4.0 22.35 4.0 24.0 Q4.2 25.05 4.9 25.4 L4.6 26.15 4.55 27.45 3.05 26.5 0.45 24.95 0.3 24.65 0.05 24.5 0.0 24.5 Q-0.5 23.7 -0.25 21.7 L-0.2 21.45 -0.1 21.35 -0.2 21.2 Q-0.15 20.3 -0.5 19.65 -0.45 18.8 -0.05 18.15 L0.15 17.95 M11.8 15.6 L12.0 16.85 12.05 19.1 Q11.25 19.45 10.75 20.3 L9.2 21.65 7.0 23.05 6.45 23.5 6.2 22.55 6.5 22.3 Q6.5 18.75 10.0 14.65 L10.95 13.5 11.8 15.6 M11.1 22.9 L11.35 23.15 11.5 27.3 Q11.9 29.05 8.95 30.5 L6.35 31.6 6.35 29.3 Q6.35 27.4 7.75 26.0 L11.1 22.9 M16.65 23.25 L15.95 23.7 16.75 23.3 Q16.85 27.15 17.7 29.75 L18.05 34.0 Q18.2 36.8 19.7 37.95 20.35 37.7 20.7 37.25 22.2 33.8 26.45 27.35 L27.1 29.0 28.45 32.0 28.8 35.35 Q28.95 36.9 29.85 37.7 L30.05 40.4 Q30.05 41.65 29.45 44.45 L28.8 47.75 28.35 50.05 Q27.85 51.75 27.85 52.35 27.85 53.0 27.45 53.2 27.0 53.4 27.0 54.0 L26.9 54.85 26.6 54.85 Q26.5 53.65 25.4 53.0 24.0 53.6 23.8 54.45 L23.35 54.55 Q21.75 49.15 19.3 49.15 18.55 49.15 18.3 49.55 L18.0 49.8 14.55 44.85 14.05 44.2 13.75 42.3 Q13.35 41.2 12.5 40.9 L12.5 40.85 12.5 40.75 12.5 40.45 12.5 40.0 12.45 39.05 12.3 38.45 12.25 37.9 Q13.0 35.8 13.0 33.6 L12.95 31.55 12.85 31.0 13.05 30.65 Q13.5 29.9 13.5 25.35 L13.45 22.85 16.5 23.0 16.65 23.25 M10.8 35.15 L10.65 36.15 6.5 35.4 6.55 35.25 Q9.55 33.65 11.2 32.45 L10.8 35.15 M-0.25 27.35 L1.45 28.45 Q3.9 30.0 4.25 30.0 L4.5 30.0 4.55 31.75 4.65 32.2 4.5 32.25 4.6 33.95 4.75 34.35 4.5 34.8 4.5 35.05 2.0 34.5 1.35 34.45 1.05 34.3 Q-0.5 32.2 -0.5 29.75 L-0.5 27.75 -0.25 27.35 M-5.35 48.25 Q-4.35 45.1 -2.75 43.7 L-1.85 42.85 Q-0.45 43.5 2.0 43.5 L10.95 42.75 Q11.7 43.1 11.9 43.45 L12.0 44.9 11.5 47.1 11.25 48.05 Q10.75 48.5 10.6 49.25 L10.5 51.75 10.75 54.2 10.8 57.0 10.0 55.9 Q9.6 55.2 9.0 55.0 7.65 55.9 6.4 58.65 4.9 62.15 4.25 63.0 1.8 60.7 1.75 57.4 2.1 53.7 1.8 51.75 L0.75 51.5 Q-0.6 51.5 -1.85 53.95 L-3.0 56.5 -3.0 52.0 -2.1 50.55 Q-1.5 49.5 -1.5 49.1 -1.5 48.35 -1.65 48.2 L-1.85 48.0 -4.0 48.0 -5.2 48.4 -5.35 48.25" fill="#58543a" fill-rule="evenodd" stroke="none"/>
    <path d="M15.25 11.4 L15.25 11.1 15.5 10.95 Q18.8 9.9 23.0 9.5 20.7 11.1 19.2 13.7 16.95 17.6 16.75 18.35 L16.7 20.0 14.15 19.6 14.75 17.3 Q15.15 15.75 15.25 12.75 L15.25 11.4" fill="#cdac98" fill-rule="evenodd" stroke="none"/>
    <path d="M4.2 9.65 L4.5 9.35 4.25 9.65 4.2 9.65 M11.35 23.15 L11.1 22.9 11.35 22.9 11.35 23.15 M12.3 38.3 L12.25 38.05 12.25 37.9 12.3 38.3 M18.0 49.8 L18.3 49.55 18.0 49.8" fill="#48463c" fill-rule="evenodd" stroke="none"/>
    <path d="M10.7 -57.85 Q19.3 -57.85 27.2 -54.95 34.15 -52.4 38.6 -48.4 36.25 -45.4 27.55 -38.45 22.8 -34.7 21.0 -32.9 18.6 -36.1 13.75 -37.85 8.95 -39.6 2.8 -39.6 -8.8 -39.6 -20.5 -30.4 -24.75 -27.05 -27.75 -23.45 -30.45 -20.2 -30.45 -19.0 L-31.3 -17.5 -31.9 -17.6 -32.0 -16.95 -31.95 -16.4 -36.85 -8.05 -40.4 -10.05 Q-44.5 -12.2 -45.4 -13.05 -45.8 -13.2 -51.0 -16.05 -52.0 -16.6 -52.75 -16.7 -51.4 -22.0 -48.95 -26.0 -46.45 -30.05 -40.7 -36.35 L-35.45 -41.35 -29.8 -45.75 -25.8 -48.1 -21.75 -50.3 Q-17.95 -52.15 -11.35 -54.55 -3.85 -57.3 -1.75 -57.3 L10.65 -57.85 10.7 -57.85 M9.55 38.0 L9.5 38.45 9.7 38.6 10.0 38.85 10.0 40.25 6.25 40.85 1.9 41.25 Q-0.9 41.25 -1.35 40.75 L-1.5 39.15 Q-1.5 37.15 0.1 36.95 L9.55 38.0" fill="#046193" fill-rule="evenodd" stroke="none"/>
    <path d="M12.3 38.45 L12.3 38.35 12.3 38.3 12.25 37.9 12.3 38.45" fill="#576164" fill-rule="evenodd" stroke="none"/>
    <path d="M23.5 -25.35 L23.9 -25.6 25.15 -24.3 27.2 -19.7 Q30.7 -11.6 30.7 -8.85 L30.5 -5.0 30.25 -4.95 30.3 -4.95 30.3 -3.65 30.3 -3.5 30.3 -2.25 30.3 -1.0 30.25 -0.95 30.15 -0.3 30.1 -0.25 28.05 -0.3 28.0 -0.3 27.85 -0.3 Q26.85 -1.45 26.6 -4.3 26.4 -6.8 26.6 -10.2 26.45 -11.7 24.6 -16.2 L22.8 -20.9 21.8 -23.55 21.55 -24.15 21.7 -24.25 23.5 -25.35 M-41.2 4.4 L-41.4 4.15 -41.65 3.55 -41.65 3.5 -41.4 2.25 -40.6 1.85 -36.0 2.8 -31.65 3.4 -30.7 3.15 -30.55 2.85 Q-30.45 3.55 -30.45 2.2 -30.45 -3.5 -25.0 -14.2 L-22.9 -18.3 Q-21.6 -20.55 -19.5 -22.55 L-12.9 -27.2 Q-6.25 -31.4 -2.95 -31.4 -0.15 -31.4 1.85 -30.6 4.8 -29.4 9.35 -28.7 10.15 -28.6 14.15 -26.3 L16.75 -24.85 Q14.25 -23.6 11.4 -21.95 L7.5 -23.9 Q0.25 -27.5 -5.05 -27.5 -6.85 -27.5 -11.0 -23.8 L-15.6 -19.55 Q-18.2 -17.65 -19.95 -15.5 -21.4 -13.8 -22.85 -11.2 -28.25 2.2 -28.25 4.5 L-28.95 5.65 Q-29.75 6.6 -30.25 6.6 L-37.55 5.65 -41.2 4.4" fill="#758593" fill-rule="evenodd" stroke="none"/>
  </g>
</svg>
