<?xml version="1.0" encoding="UTF-8" standalone="no"?>
<svg xmlns:ffdec="https://www.free-decompiler.com/flash" xmlns:xlink="http://www.w3.org/1999/xlink" ffdec:objectType="shape" height="126.0px" width="84.9px" xmlns="http://www.w3.org/2000/svg">
  <g transform="matrix(1.0, 0.0, 0.0, 1.0, 37.5, 73.5)">
    <path d="M5.15 -64.0 Q4.15 -61.35 1.55 -58.75 -3.25 -53.95 -8.2 -51.7 L-4.55 -57.55 Q-0.5 -64.4 -0.5 -66.55 L-0.5 -67.2 5.15 -64.0 M-10.9 -48.05 L-9.5 -48.0 Q-6.1 -48.0 1.0 -53.9 6.35 -58.3 8.15 -62.35 L9.0 -61.85 9.9 -61.3 Q8.95 -60.85 8.2 -59.85 L6.0 -56.35 1.3 -50.0 Q-1.85 -45.75 -3.6 -43.85 L-7.15 -40.85 -7.75 -40.35 -8.4 -40.05 -11.35 -38.0 Q-13.25 -36.7 -16.7 -35.4 -18.5 -34.75 -18.5 -33.35 L-18.5 -33.0 -19.3 -33.7 Q-20.3 -34.65 -21.6 -37.3 -19.45 -38.35 -15.35 -42.85 -12.8 -45.6 -10.9 -48.05 M12.35 -59.6 L15.25 -57.35 Q15.8 -56.9 17.2 -56.15 L19.0 -55.1 Q22.5 -51.65 22.9 -51.5 29.85 -48.35 36.65 -40.6 34.25 -39.85 32.0 -37.85 27.9 -34.2 27.9 -31.9 L27.9 -30.9 Q28.15 -30.0 29.4 -30.0 30.75 -30.0 32.05 -31.9 L33.55 -34.5 Q34.35 -35.65 38.9 -36.75 L39.65 -36.95 42.45 -32.8 Q36.75 -32.5 33.75 -27.4 31.4 -23.35 31.4 -18.75 31.45 -15.95 31.95 -13.3 32.9 -8.0 35.15 -8.0 36.15 -8.0 36.55 -8.5 36.9 -8.95 36.9 -10.15 36.9 -11.1 36.15 -12.6 35.4 -14.1 35.4 -15.25 35.35 -17.4 34.9 -18.8 34.4 -20.15 34.4 -20.85 34.4 -21.7 35.65 -23.9 L37.3 -26.5 Q38.75 -28.6 42.4 -29.55 L43.85 -30.0 Q44.9 -27.4 44.9 -25.25 44.9 -22.15 44.1 -19.75 43.35 -17.4 41.3 -14.35 L39.55 -11.4 37.9 -9.1 Q35.85 -7.6 30.6 -6.85 L28.6 -6.45 28.55 -6.5 Q23.1 -5.95 19.5 -4.65 19.5 -7.65 18.4 -11.15 17.3 -14.65 15.55 -17.5 14.1 -19.25 11.7 -24.4 10.25 -26.7 8.25 -27.65 L10.9 -28.55 Q17.9 -30.85 23.55 -30.5 L23.8 -30.75 23.9 -31.5 23.75 -32.35 23.55 -32.5 22.45 -32.4 Q23.1 -33.25 23.55 -34.5 24.4 -36.85 24.4 -39.15 24.4 -43.95 21.3 -45.4 18.55 -46.65 14.45 -44.9 10.45 -43.2 7.6 -39.75 4.5 -35.95 4.5 -31.85 4.5 -31.0 4.75 -30.5 4.95 -29.95 5.55 -29.35 4.05 -27.85 1.8 -26.65 0.8 -27.45 -1.85 -28.75 -2.75 -29.6 -2.8 -30.65 L-3.05 -31.35 -1.8 -32.5 Q0.3 -34.65 2.5 -38.1 L6.65 -43.85 Q10.5 -49.35 10.5 -50.3 10.5 -51.1 10.2 -51.25 L9.5 -51.5 Q8.9 -51.25 7.75 -49.35 6.5 -47.2 5.75 -46.6 4.25 -45.35 3.45 -43.65 L2.0 -41.0 Q-0.6 -36.85 -2.35 -34.65 -5.55 -30.75 -10.0 -30.75 -14.15 -30.75 -16.9 -32.05 L-16.25 -32.0 Q-15.25 -32.0 -10.4 -35.0 L-8.05 -36.5 Q-5.3 -36.85 3.55 -47.5 11.25 -56.75 12.35 -59.6 M17.45 -3.8 Q12.95 -1.9 9.8 -1.25 6.3 -0.05 2.85 1.0 L2.25 -3.75 1.0 -11.35 Q0.2 -14.3 -2.5 -18.1 L-4.2 -20.0 Q-1.6 -21.7 1.5 -24.1 2.9 -25.2 4.85 -26.15 L6.75 -24.3 9.8 -21.5 13.25 -15.1 Q15.35 -10.95 15.95 -5.7 16.1 -4.25 16.55 -3.45 L17.45 -3.8 M-0.25 1.9 Q-8.95 4.25 -16.25 4.25 -26.35 4.25 -32.0 1.15 L-35.25 -0.95 -35.25 -1.0 Q-34.45 -1.0 -34.2 -1.35 L-34.0 -2.0 Q-35.8 -6.25 -26.9 -10.7 -22.1 -13.1 -11.0 -16.6 -9.2 -17.15 -7.0 -18.35 L-7.0 -18.25 -4.35 -14.4 Q-1.55 -10.05 -1.0 -7.5 L-0.6 -0.6 -0.25 1.9 M19.05 -32.15 L14.4 -31.7 14.5 -32.0 Q15.0 -33.2 15.0 -34.8 15.0 -36.45 14.8 -36.75 14.25 -37.85 12.05 -37.1 11.95 -35.85 11.2 -34.4 10.5 -32.95 10.5 -32.6 10.5 -32.0 10.8 -31.45 L10.95 -31.25 7.15 -30.35 8.25 -32.75 9.7 -36.8 Q12.0 -41.65 20.0 -42.85 20.0 -41.75 20.75 -40.85 21.5 -40.0 21.5 -39.3 21.5 -37.8 19.75 -35.1 L18.0 -32.35 18.0 -32.1 19.05 -32.15 M-27.1 -17.1 L-28.95 -24.5 Q-30.0 -29.35 -30.0 -34.05 -30.0 -37.1 -29.0 -42.8 L-28.85 -43.6 -26.25 -40.05 -23.95 -37.6 -24.0 -37.35 -24.0 -36.6 Q-24.0 -34.95 -20.0 -32.0 L-19.75 -31.8 -21.35 -30.75 Q-25.2 -27.7 -25.5 -24.35 -25.5 -23.2 -25.85 -21.55 L-26.5 -18.75 Q-26.65 -17.9 -27.1 -17.1 M-17.5 -30.4 Q-13.95 -28.5 -10.25 -28.5 -7.5 -28.5 -5.0 -29.95 L-5.0 -29.9 Q-5.0 -28.85 -3.45 -27.15 -2.3 -25.85 -0.95 -25.35 L-5.85 -22.05 Q-9.65 -19.25 -11.6 -18.75 -19.45 -16.65 -25.05 -14.0 L-24.2 -15.65 Q-23.25 -17.75 -22.75 -20.35 L-22.4 -23.2 Q-22.25 -24.9 -21.75 -25.6 -20.75 -26.95 -18.8 -28.0 -17.5 -28.7 -17.5 -30.05 L-17.5 -30.4 M-17.85 -25.75 L-18.55 -26.25 -20.5 -26.35 Q-20.05 -24.75 -19.25 -23.8 -17.35 -21.5 -13.5 -21.5 -12.25 -21.5 -12.0 -22.5 L-12.35 -23.25 Q-16.55 -24.4 -17.85 -25.75" fill="#cdac98" fill-rule="evenodd" stroke="none"/>
    <path d="M5.15 -64.0 L8.15 -62.35 Q6.35 -58.3 1.0 -53.9 -6.1 -48.0 -9.5 -48.0 L-10.9 -48.05 -9.0 -50.6 -8.2 -51.7 Q-3.25 -53.95 1.55 -58.75 4.15 -61.35 5.15 -64.0 M9.9 -61.3 L12.3 -59.65 12.35 -59.6 Q11.25 -56.75 3.55 -47.5 -5.3 -36.85 -8.05 -36.5 L-10.4 -35.0 Q-15.25 -32.0 -16.25 -32.0 L-16.9 -32.05 -16.95 -32.05 -17.65 -32.45 -18.35 -32.9 -18.5 -33.0 -18.5 -33.35 Q-18.5 -34.75 -16.7 -35.4 -13.25 -36.7 -11.35 -38.0 L-8.4 -40.05 -7.75 -40.35 -7.15 -40.85 -3.6 -43.85 Q-1.85 -45.75 1.3 -50.0 L6.0 -56.35 8.2 -59.85 Q8.95 -60.85 9.9 -61.3 M36.65 -40.6 L37.6 -39.5 39.65 -36.95 38.9 -36.75 Q34.35 -35.65 33.55 -34.5 L32.05 -31.9 Q30.75 -30.0 29.4 -30.0 28.15 -30.0 27.9 -30.9 L27.9 -31.9 Q27.9 -34.2 32.0 -37.85 34.25 -39.85 36.65 -40.6 M42.45 -32.8 L43.25 -31.3 43.8 -30.05 43.85 -30.0 42.4 -29.55 Q38.75 -28.6 37.3 -26.5 L35.65 -23.9 Q34.4 -21.7 34.4 -20.85 34.4 -20.15 34.9 -18.8 35.35 -17.4 35.4 -15.25 35.4 -14.1 36.15 -12.6 36.9 -11.1 36.9 -10.15 36.9 -8.95 36.55 -8.5 36.15 -8.0 35.15 -8.0 32.9 -8.0 31.95 -13.3 31.45 -15.95 31.4 -18.75 31.4 -23.35 33.75 -27.4 36.75 -32.5 42.45 -32.8 M19.5 -4.65 L18.8 -4.4 18.7 -4.35 18.25 -4.15 18.1 -4.1 17.45 -3.8 16.55 -3.45 Q16.1 -4.25 15.95 -5.7 15.35 -10.95 13.25 -15.1 L9.8 -21.5 6.75 -24.3 4.85 -26.15 8.25 -27.65 Q10.25 -26.7 11.7 -24.4 14.1 -19.25 15.55 -17.5 17.3 -14.65 18.4 -11.15 19.5 -7.65 19.5 -4.65 M2.85 1.0 L0.75 1.6 0.4 1.7 -0.25 1.9 -0.6 -0.6 -1.0 -7.5 Q-1.55 -10.05 -4.35 -14.4 L-7.0 -18.25 -7.0 -18.35 -4.2 -20.0 -2.5 -18.1 Q0.2 -14.3 1.0 -11.35 L2.25 -3.75 2.85 1.0 M22.45 -32.4 L19.05 -32.15 18.0 -32.1 18.0 -32.35 19.75 -35.1 Q21.5 -37.8 21.5 -39.3 21.5 -40.0 20.75 -40.85 20.0 -41.75 20.0 -42.85 12.0 -41.65 9.7 -36.8 L8.25 -32.75 7.15 -30.35 6.05 -29.9 5.55 -29.35 Q4.95 -29.95 4.75 -30.5 4.5 -31.0 4.5 -31.85 4.5 -35.95 7.6 -39.75 10.45 -43.2 14.45 -44.9 18.55 -46.65 21.3 -45.4 24.4 -43.95 24.4 -39.15 24.4 -36.85 23.55 -34.5 23.1 -33.25 22.45 -32.4 M14.4 -31.7 L10.95 -31.25 10.8 -31.45 Q10.5 -32.0 10.5 -32.6 10.5 -32.95 11.2 -34.4 11.95 -35.85 12.05 -37.1 14.25 -37.85 14.8 -36.75 15.0 -36.45 15.0 -34.8 15.0 -33.2 14.5 -32.0 L14.4 -31.7 M-27.1 -17.1 Q-26.65 -17.9 -26.5 -18.75 L-25.85 -21.55 Q-25.5 -23.2 -25.5 -24.35 -25.2 -27.7 -21.35 -30.75 L-19.75 -31.8 Q-18.7 -31.05 -17.65 -30.45 L-17.5 -30.4 -17.5 -30.05 Q-17.5 -28.7 -18.8 -28.0 -20.75 -26.95 -21.75 -25.6 -22.25 -24.9 -22.4 -23.2 L-22.75 -20.35 Q-23.25 -17.75 -24.2 -15.65 L-25.05 -14.0 -26.5 -13.3 -26.5 -14.35 -27.1 -17.05 -27.1 -17.1" fill="#7f98ff" fill-rule="evenodd" stroke="none"/>
    <path d="M8.15 -62.35 L5.15 -64.0 -0.5 -67.2 -0.5 -66.55 Q-0.5 -64.4 -4.55 -57.55 L-8.2 -51.7 -9.0 -50.6 -10.9 -48.05 Q-12.8 -45.6 -15.35 -42.85 -19.45 -38.35 -21.6 -37.3 -20.3 -34.65 -19.3 -33.7 L-18.5 -33.0 -18.35 -32.9 -17.65 -32.45 -16.95 -32.05 -16.9 -32.05 Q-14.15 -30.75 -10.0 -30.75 -5.55 -30.75 -2.35 -34.65 -0.6 -36.85 2.0 -41.0 L3.45 -43.65 Q4.25 -45.35 5.75 -46.6 6.5 -47.2 7.75 -49.35 8.9 -51.25 9.5 -51.5 L10.2 -51.25 Q10.5 -51.1 10.5 -50.3 10.5 -49.35 6.65 -43.85 L2.5 -38.1 Q0.3 -34.65 -1.8 -32.5 L-3.05 -31.35 -2.8 -30.65 Q-2.75 -29.6 -1.85 -28.75 0.8 -27.45 1.8 -26.65 4.05 -27.85 5.55 -29.35 L6.05 -29.9 7.15 -30.35 10.95 -31.25 14.4 -31.7 19.05 -32.15 22.45 -32.4 23.55 -32.5 23.75 -32.35 23.9 -31.5 23.8 -30.75 23.55 -30.5 Q17.9 -30.85 10.9 -28.55 L8.25 -27.65 4.85 -26.15 Q2.9 -25.2 1.5 -24.1 -1.6 -21.7 -4.2 -20.0 L-7.0 -18.35 Q-9.2 -17.15 -11.0 -16.6 -22.1 -13.1 -26.9 -10.7 -35.8 -6.25 -34.0 -2.0 L-34.2 -1.35 Q-34.45 -1.0 -35.25 -1.0 L-35.3 -1.0 -35.25 -0.95 -32.0 1.15 Q-26.35 4.25 -16.25 4.25 -8.95 4.25 -0.25 1.9 L0.4 1.7 0.75 1.6 2.85 1.0 Q6.3 -0.05 9.8 -1.25 12.95 -1.9 17.45 -3.8 L18.1 -4.1 18.25 -4.15 18.7 -4.35 18.8 -4.4 19.5 -4.65 Q23.1 -5.95 28.55 -6.5 L28.6 -6.45 30.6 -6.85 Q35.85 -7.6 37.9 -9.1 L39.55 -11.4 41.3 -14.35 Q43.35 -17.4 44.1 -19.75 44.9 -22.15 44.9 -25.25 44.9 -27.4 43.85 -30.0 L43.8 -30.05 43.25 -31.3 42.45 -32.8 39.65 -36.95 37.6 -39.5 36.65 -40.6 Q29.85 -48.35 22.9 -51.5 22.5 -51.65 19.0 -55.1 L17.2 -56.15 Q15.8 -56.9 15.25 -57.35 L12.35 -59.6 12.3 -59.65 9.9 -61.3 9.0 -61.85 8.15 -62.35 M16.4 -58.95 L24.55 -53.25 Q34.7 -46.95 40.6 -39.85 46.9 -32.3 46.9 -25.55 46.9 -21.15 46.3 -19.15 45.75 -17.3 43.4 -13.35 40.8 -8.85 39.15 -7.35 37.85 -6.1 36.05 -5.5 33.25 -4.6 26.8 -4.0 L26.6 -4.1 26.5 -4.3 Q24.75 -3.65 21.8 -2.7 24.0 -0.3 26.7 3.35 L31.9 10.5 31.7 11.1 Q31.45 11.5 30.65 11.5 30.05 11.5 28.8 10.55 27.6 9.65 26.9 9.75 27.45 11.95 29.1 16.55 L29.85 18.65 30.15 18.7 30.4 19.2 30.55 19.25 30.9 20.0 30.45 20.65 30.9 22.1 29.95 20.95 Q29.2 22.05 27.35 23.35 L29.9 27.5 Q31.1 29.6 34.4 32.5 36.25 34.0 39.0 37.75 L39.05 37.8 42.05 38.25 Q45.75 38.05 46.9 39.95 47.4 40.85 47.4 43.0 47.4 45.5 45.5 46.15 41.8 47.1 37.8 48.65 L34.7 50.3 28.4 52.5 22.3 52.5 22.25 52.45 Q20.7 52.0 16.75 48.65 L10.5 43.5 Q9.05 42.6 6.15 38.1 L3.9 34.45 Q-1.5 36.0 -6.75 36.0 L-21.6 34.75 Q-23.5 33.5 -23.5 32.8 L-23.5 25.85 -23.65 25.75 -24.0 26.45 -24.0 24.85 -24.0 24.75 -24.0 20.1 -23.7 14.25 -23.0 5.8 -27.45 4.75 Q-35.35 2.55 -37.5 -1.0 L-37.45 -1.65 Q-37.3 -2.0 -36.5 -2.0 L-36.45 -1.95 -36.5 -2.9 Q-36.5 -7.7 -28.7 -12.15 L-27.95 -12.55 Q-29.8 -17.05 -30.85 -22.8 -32.0 -28.75 -32.0 -34.05 -32.0 -39.85 -31.5 -42.85 -31.3 -43.25 -30.75 -47.0 L-30.65 -47.45 -31.1 -49.05 -31.0 -52.4 Q-31.0 -55.45 -29.3 -59.2 L-26.6 -64.25 Q-24.25 -68.25 -17.55 -70.8 L-9.5 -73.5 -8.85 -73.4 Q-7.4 -73.25 -4.75 -71.95 4.05 -66.8 7.0 -65.5 L16.4 -58.95 M-12.45 6.55 L-12.0 7.0 -12.0 7.1 -11.7 7.4 Q-9.3 9.25 -0.55 9.25 7.45 9.25 9.75 8.35 10.75 7.9 17.0 3.05 18.75 1.65 19.2 -0.95 L19.4 -1.95 10.55 0.75 Q-4.85 5.3 -12.5 6.3 L-12.6 6.3 -12.45 6.55 M45.4 42.75 Q45.4 41.75 45.05 41.45 44.15 40.55 40.8 40.25 L38.85 40.3 38.65 40.65 38.45 40.4 Q37.9 40.55 37.6 40.95 37.25 41.45 37.4 42.05 L37.65 44.05 37.9 46.25 Q39.3 46.65 42.45 44.95 45.4 43.3 45.4 42.75 M-21.8 22.0 L-18.6 19.25 -17.15 16.6 Q-16.2 14.85 -14.5 14.5 -13.8 15.4 -13.6 17.0 L-13.35 19.3 -9.45 15.95 -6.5 13.05 Q-4.9 12.8 -1.85 15.05 L2.5 18.25 2.5 13.3 2.65 13.15 3.5 13.0 8.25 15.7 14.5 19.0 Q15.0 19.65 15.0 18.4 L14.5 16.55 Q14.0 15.3 14.0 14.65 14.0 13.75 14.15 13.55 L15.0 13.0 Q16.85 14.25 23.1 16.55 L27.1 18.0 Q25.4 12.05 24.4 9.55 L24.4 7.3 25.7 7.1 27.3 7.25 23.5 2.85 21.4 0.25 Q21.1 1.65 20.4 2.7 L16.55 6.75 14.65 8.25 13.0 9.3 Q12.35 10.35 11.0 10.75 L-0.25 11.5 -4.6 11.4 -4.9 11.3 -6.05 11.25 Q-11.4 10.7 -13.5 9.05 L-14.5 7.85 -15.35 7.15 -15.5 6.5 -16.0 6.5 -19.95 6.25 -20.0 6.25 -20.0 6.5 -20.75 7.4 Q-21.5 8.1 -21.5 9.8 -21.5 11.0 -22.0 13.25 L-22.1 16.95 -22.0 19.9 -21.95 22.0 -21.95 22.15 -21.8 22.0 M-4.45 33.7 Q0.9 33.3 5.55 31.3 12.0 28.0 16.55 26.3 L19.95 25.1 24.15 22.8 27.1 20.45 24.0 19.3 Q18.8 17.35 16.55 16.75 L16.95 17.7 17.0 19.0 17.0 20.5 Q16.7 21.5 15.25 21.5 13.9 21.5 9.95 19.3 L4.5 16.05 Q4.5 16.65 5.0 17.65 5.5 18.6 5.5 19.25 L5.3 20.25 3.0 20.5 Q1.35 20.5 -1.85 18.05 L-5.35 15.25 Q-5.5 15.9 -8.2 18.25 L-9.15 19.0 -9.45 19.3 -11.3 20.7 -14.5 23.0 Q-15.15 22.1 -15.35 20.95 L-15.6 19.3 -21.6 24.8 Q-21.35 25.35 -21.35 26.25 L-21.5 29.05 -21.35 31.75 -19.85 33.25 -8.75 33.7 -7.0 33.75 -4.5 33.7 -4.45 33.7 M16.5 34.45 Q19.25 38.45 20.0 40.5 20.35 41.55 21.6 43.25 L21.8 43.15 22.0 43.8 23.6 45.75 27.2 49.95 31.9 48.5 35.1 47.25 35.85 47.05 35.55 45.55 Q35.4 44.55 35.4 42.1 35.15 40.45 35.85 39.3 36.2 38.7 36.8 38.35 L32.55 33.5 28.4 28.6 Q26.0 25.5 25.55 24.45 L24.9 24.75 16.5 28.8 13.8 30.35 16.5 34.45 M14.9 37.0 L14.95 37.0 14.75 36.7 Q12.2 32.8 12.0 31.25 L8.5 32.8 6.05 33.75 7.25 36.5 8.25 37.75 9.55 37.95 11.65 38.25 Q12.7 38.25 13.9 37.45 14.35 37.15 14.9 37.0 M15.0 44.55 L18.95 43.5 18.0 41.75 16.1 38.75 14.8 39.5 Q12.8 40.5 11.75 40.5 L10.3 40.35 11.8 42.0 14.95 44.6 15.0 44.65 15.0 44.55 M17.8 46.5 L17.55 46.45 17.75 46.6 23.3 50.75 24.2 50.55 25.0 50.4 20.6 45.75 20.55 45.75 Q19.25 46.5 18.25 46.5 L17.8 46.5 M-2.4 -68.3 Q-6.45 -70.65 -7.3 -70.8 L-9.25 -70.5 -9.75 -70.6 Q-11.35 -69.45 -14.9 -68.35 -22.25 -66.05 -24.0 -63.6 -26.5 -60.1 -27.6 -57.85 -29.0 -54.95 -29.0 -52.55 L-28.8 -50.95 -28.25 -50.75 Q-28.0 -50.6 -28.0 -49.8 L-28.1 -48.45 -26.9 -45.75 Q-24.8 -41.6 -22.5 -39.6 -15.6 -44.2 -10.0 -52.8 -5.5 -59.7 -2.5 -68.1 L-2.25 -68.2 -2.4 -68.3 M-19.75 -31.8 L-20.0 -32.0 Q-24.0 -34.95 -24.0 -36.6 L-24.0 -37.35 -23.95 -37.6 -26.25 -40.05 -28.85 -43.6 -29.0 -42.8 Q-30.0 -37.1 -30.0 -34.05 -30.0 -29.35 -28.95 -24.5 L-27.1 -17.1 -27.1 -17.05 -26.5 -14.35 -26.5 -13.3 -25.05 -14.0 Q-19.45 -16.65 -11.6 -18.75 -9.65 -19.25 -5.85 -22.05 L-0.95 -25.35 Q-2.3 -25.85 -3.45 -27.15 -5.0 -28.85 -5.0 -29.9 L-5.0 -29.95 Q-7.5 -28.5 -10.25 -28.5 -13.95 -28.5 -17.5 -30.4 L-17.65 -30.45 Q-18.7 -31.05 -19.75 -31.8 M-17.85 -25.75 Q-16.55 -24.4 -12.35 -23.25 L-12.0 -22.5 Q-12.25 -21.5 -13.5 -21.5 -17.35 -21.5 -19.25 -23.8 -20.05 -24.75 -20.5 -26.35 L-18.55 -26.25 -17.85 -25.75" fill="#000000" fill-rule="evenodd" stroke="none"/>
    <path d="M-12.5 6.3 Q-4.85 5.3 10.55 0.75 L19.4 -1.95 19.2 -0.95 Q18.75 1.65 17.0 3.05 10.75 7.9 9.75 8.35 7.45 9.25 -0.55 9.25 -9.3 9.25 -11.7 7.4 L-12.0 7.1 -12.0 7.0 -12.45 6.55 -12.5 6.3 M-2.5 -68.1 Q-5.5 -59.7 -10.0 -52.8 -15.6 -44.2 -22.5 -39.6 -24.8 -41.6 -26.9 -45.75 L-28.1 -48.45 -28.0 -49.8 Q-28.0 -50.6 -28.25 -50.75 L-28.8 -50.95 -29.0 -52.55 Q-29.0 -54.95 -27.6 -57.85 -26.5 -60.1 -24.0 -63.6 -22.25 -66.05 -14.9 -68.35 -11.35 -69.45 -9.75 -70.6 L-9.25 -70.5 -7.3 -70.8 Q-6.45 -70.65 -2.4 -68.3 L-2.5 -68.1" fill="#11100f" fill-rule="evenodd" stroke="none"/>
    <path d="M-19.95 6.25 L-16.0 6.5 -15.5 6.5 -15.35 7.15 -14.5 7.85 -13.5 9.05 Q-11.4 10.7 -6.05 11.25 L-4.9 11.3 -4.6 11.4 -0.25 11.5 11.0 10.75 Q12.35 10.35 13.0 9.3 L14.65 8.25 16.55 6.75 20.4 2.7 Q21.1 1.65 21.4 0.25 L23.5 2.85 27.3 7.25 25.7 7.1 24.4 7.3 24.4 9.55 Q25.4 12.05 27.1 18.0 L23.1 16.55 Q16.85 14.25 15.0 13.0 L14.15 13.55 Q14.0 13.75 14.0 14.65 14.0 15.3 14.5 16.55 L15.0 18.4 Q15.0 19.65 14.5 19.0 L8.25 15.7 3.5 13.0 2.65 13.15 2.5 13.3 2.5 18.25 -1.85 15.05 Q-4.9 12.8 -6.5 13.05 L-9.45 15.95 -13.35 19.3 -13.6 17.0 Q-13.8 15.4 -14.5 14.5 -16.2 14.85 -17.15 16.6 L-18.6 19.25 -21.8 22.0 -21.95 22.0 -22.0 19.9 -22.1 16.95 -22.0 13.25 Q-21.5 11.0 -21.5 9.8 -21.5 8.1 -20.75 7.4 L-20.0 6.5 -19.95 6.25 M14.75 36.7 L14.9 37.0 Q14.35 37.15 13.9 37.45 12.7 38.25 11.65 38.25 L9.55 37.95 8.25 37.75 7.25 36.5 6.05 33.75 8.5 32.8 12.0 31.25 Q12.2 32.8 14.75 36.7 M14.95 44.6 L11.8 42.0 10.3 40.35 11.75 40.5 Q12.8 40.5 14.8 39.5 L16.1 38.75 18.0 41.75 18.95 43.5 15.0 44.55 14.95 44.6 M17.8 46.5 L18.25 46.5 Q19.25 46.5 20.55 45.75 L20.6 45.75 25.0 50.4 24.2 50.55 23.3 50.75 17.75 46.6 17.8 46.5" fill="#332d26" fill-rule="evenodd" stroke="none"/>
    <path d="M-11.3 20.7 L-11.0 25.3 Q-10.4 30.35 -9.15 33.65 L-8.75 33.7 -19.85 33.25 -21.35 31.75 -21.5 29.05 -21.35 26.25 Q-21.35 25.35 -21.6 24.8 L-15.6 19.3 -15.35 20.95 Q-15.15 22.1 -14.5 23.0 L-11.3 20.7 M-4.5 33.7 L-4.5 33.4 -4.45 33.7 -4.5 33.7" fill="#046193" fill-rule="evenodd" stroke="none"/>
    <path d="M-11.3 20.7 L-9.45 19.3 -9.15 19.0 -8.2 18.25 Q-5.5 15.9 -5.35 15.25 L-1.85 18.05 Q1.35 20.5 3.0 20.5 L5.3 20.25 5.5 19.25 Q5.5 18.6 5.0 17.65 4.5 16.65 4.5 16.05 L9.95 19.3 Q13.9 21.5 15.25 21.5 16.7 21.5 17.0 20.5 L17.0 19.0 16.95 17.7 16.55 16.75 Q18.8 17.35 24.0 19.3 L27.1 20.45 24.15 22.8 19.95 25.1 16.55 26.3 Q12.0 28.0 5.55 31.3 0.9 33.3 -4.45 33.7 L-4.5 33.4 -4.5 33.7 -7.0 33.75 -8.75 33.7 -9.15 33.65 Q-10.4 30.35 -11.0 25.3 L-11.3 20.7" fill="#023f60" fill-rule="evenodd" stroke="none"/>
    <path d="M45.4 42.75 Q45.4 43.3 42.45 44.95 39.3 46.65 37.9 46.25 L37.65 44.05 37.4 42.05 Q37.25 41.45 37.6 40.95 37.9 40.55 38.45 40.4 L38.65 40.65 38.85 40.3 40.8 40.25 Q44.15 40.55 45.05 41.45 45.4 41.75 45.4 42.75 M16.5 34.45 L13.8 30.35 16.5 28.8 24.9 24.75 25.55 24.45 Q26.0 25.5 28.4 28.6 L32.55 33.5 36.8 38.35 Q36.2 38.7 35.85 39.3 35.15 40.45 35.4 42.1 35.4 44.55 35.55 45.55 L35.85 47.05 35.1 47.25 31.9 48.5 27.2 49.95 23.6 45.75 22.0 43.8 21.8 43.15 21.6 43.25 Q20.35 41.55 20.0 40.5 19.25 38.45 16.5 34.45" fill="#4e5963" fill-rule="evenodd" stroke="none"/>
  </g>
</svg>
