<?xml version="1.0" encoding="UTF-8" standalone="no"?>
<svg xmlns:ffdec="https://www.free-decompiler.com/flash" xmlns:xlink="http://www.w3.org/1999/xlink" ffdec:objectType="shape" height="73.0px" width="46.4px" xmlns="http://www.w3.org/2000/svg">
  <g transform="matrix(1.0, 0.0, 0.0, 1.0, 24.75, 73.5)">
    <path d="M8.05 -73.5 Q12.5 -73.5 15.5 -65.75 17.65 -60.05 17.65 -56.75 L17.5 -55.65 17.05 -55.5 Q18.2 -53.95 19.35 -51.25 21.65 -45.95 21.65 -44.4 21.65 -42.25 20.3 -40.2 18.3 -37.25 14.4 -37.15 L13.75 -36.5 Q7.45 -29.6 2.25 -20.75 L-1.05 -15.55 -4.3 -10.25 -5.7 -7.7 -5.25 -7.7 -6.4 -5.7 -6.55 -5.25 -7.25 -5.05 -7.7 -4.45 Q-9.1 -2.6 -10.65 -1.6 L-10.9 -1.15 -11.3 -1.15 Q-12.7 -1.05 -13.75 -0.55 L-14.5 -0.5 Q-19.35 -0.5 -21.3 -3.75 -22.35 -5.45 -23.25 -10.6 -24.75 -20.5 -24.75 -23.8 L-24.4 -26.75 Q-24.05 -29.1 -24.05 -29.75 -24.05 -37.85 -20.2 -49.45 -17.45 -57.65 -14.95 -60.25 -15.55 -60.9 -15.55 -61.25 -15.55 -62.75 -13.05 -64.7 -11.65 -65.8 -8.3 -67.8 -6.95 -68.6 0.0 -71.05 7.0 -73.5 8.05 -73.5 M-13.15 -60.1 L-12.7 -57.9 -11.9 -55.8 Q-11.0 -54.3 -8.6 -52.25 -8.05 -51.8 -3.15 -49.45 -1.3 -48.6 -0.2 -47.55 0.35 -49.0 3.0 -51.15 L1.35 -53.35 Q1.35 -54.1 1.8 -54.25 L2.15 -54.3 4.55 -52.35 5.0 -52.7 7.25 -54.25 Q6.6 -55.85 6.05 -58.05 6.05 -58.8 6.5 -58.9 L6.9 -58.85 Q7.6 -57.45 9.0 -55.35 L11.0 -56.6 Q11.05 -57.3 11.95 -57.6 L13.8 -57.75 Q14.55 -57.75 15.35 -57.25 L15.35 -57.3 Q15.35 -60.75 13.25 -65.5 10.7 -71.15 7.5 -71.15 5.8 -71.15 -0.5 -68.8 -6.65 -66.5 -8.0 -65.5 L-13.5 -60.45 -13.75 -60.15 -13.15 -60.1 M7.15 -51.5 L6.1 -50.75 7.5 -49.3 Q7.35 -49.0 7.35 -48.25 L7.1 -48.05 6.05 -47.9 Q5.7 -47.9 4.45 -49.35 2.1 -47.0 1.9 -44.55 L5.7 -42.05 Q10.45 -39.25 13.8 -39.25 16.95 -39.25 18.5 -42.0 19.4 -43.65 19.4 -45.05 19.4 -47.25 17.25 -51.0 14.75 -55.3 12.25 -55.3 L12.15 -55.3 10.15 -53.55 12.15 -50.35 12.25 -50.1 Q12.25 -49.85 11.5 -49.85 9.65 -49.85 8.25 -52.2 L7.15 -51.5 M6.85 -32.25 L8.0 -33.75 11.55 -37.6 9.15 -38.4 5.5 -39.8 Q4.15 -40.25 2.65 -41.55 L0.15 -43.9 0.45 -44.55 0.5 -44.6 0.2 -45.1 Q-0.8 -45.15 -2.1 -46.15 -3.85 -47.45 -4.6 -47.75 -6.55 -48.4 -10.35 -50.85 -12.45 -52.3 -13.75 -54.45 L-14.7 -56.55 -17.05 -52.35 -17.65 -51.0 Q-18.9 -48.05 -19.3 -45.5 L-19.4 -44.9 -19.55 -43.05 -20.2 -39.3 -21.4 -32.85 -21.5 -32.3 -22.0 -27.55 -22.55 -22.8 Q-22.55 -16.15 -21.3 -11.2 -19.2 -2.75 -14.15 -2.75 L-12.8 -2.95 -12.45 -3.6 -12.4 -3.65 Q-10.05 -4.0 -8.6 -7.0 L-8.4 -7.05 -5.8 -12.5 -2.5 -17.9 1.1 -23.5 3.5 -27.4 4.8 -29.35 6.85 -32.25" fill="#000000" fill-rule="evenodd" stroke="none"/>
    <path d="M-17.65 -51.0 L-17.05 -52.35 -14.7 -56.55 -13.75 -54.45 Q-12.45 -52.3 -10.35 -50.85 -6.55 -48.4 -4.6 -47.75 -3.85 -47.45 -2.1 -46.15 -0.8 -45.15 0.2 -45.1 L0.5 -44.6 0.45 -44.55 0.15 -43.9 2.65 -41.55 Q4.15 -40.25 5.5 -39.8 L9.15 -38.4 11.55 -37.6 8.0 -33.75 6.85 -32.25 7.15 -32.65 2.0 -33.05 -4.05 -34.1 Q-7.65 -34.95 -9.25 -36.3 L-12.65 -39.15 Q-14.2 -40.65 -14.75 -42.1 L-16.0 -45.4 Q-16.6 -47.2 -16.6 -48.65 -16.6 -50.35 -17.65 -51.0 M4.8 -29.35 L3.5 -27.4 0.1 -26.85 -9.7 -27.75 Q-15.35 -28.95 -16.35 -31.5 L-17.85 -34.15 -19.3 -36.75 -19.6 -38.0 -20.1 -39.25 -20.2 -39.3 -19.55 -43.05 -19.4 -44.9 Q-18.2 -39.8 -14.3 -36.2 -7.95 -30.2 4.8 -29.35 M1.1 -23.5 L-2.5 -17.9 -5.8 -12.5 -8.4 -7.05 -8.6 -7.0 Q-10.05 -4.0 -12.4 -3.65 L-12.45 -3.6 -12.8 -2.95 -14.15 -2.75 Q-19.2 -2.75 -21.3 -11.2 -22.55 -16.15 -22.55 -22.8 L-22.0 -27.55 -21.5 -32.3 -21.4 -32.85 -21.2 -32.55 -17.5 -27.6 Q-15.95 -25.75 -9.85 -24.55 L1.1 -23.5" fill="#cdac98" fill-rule="evenodd" stroke="none"/>
    <path d="M-17.65 -51.0 Q-16.6 -50.35 -16.6 -48.65 -16.6 -47.2 -16.0 -45.4 L-14.75 -42.1 Q-14.2 -40.65 -12.65 -39.15 L-9.25 -36.3 Q-7.65 -34.95 -4.05 -34.1 L2.0 -33.05 7.15 -32.65 6.85 -32.25 4.8 -29.35 Q-7.95 -30.2 -14.3 -36.2 -18.2 -39.8 -19.4 -44.9 L-19.3 -45.5 Q-18.9 -48.05 -17.65 -51.0 M3.5 -27.4 L1.1 -23.5 -9.85 -24.55 Q-15.95 -25.75 -17.5 -27.6 L-21.2 -32.55 -21.4 -32.85 -20.2 -39.3 -20.1 -39.25 -19.6 -38.0 -19.3 -36.75 -17.85 -34.15 -16.35 -31.5 Q-15.35 -28.95 -9.7 -27.75 L0.1 -26.85 3.5 -27.4" fill="#7f98ff" fill-rule="evenodd" stroke="none"/>
    <path d="M-13.5 -60.45 L-8.0 -65.5 Q-6.65 -66.5 -0.5 -68.8 5.8 -71.15 7.5 -71.15 10.7 -71.15 13.25 -65.5 15.35 -60.75 15.35 -57.3 L15.35 -57.25 Q14.55 -57.75 13.8 -57.75 L11.95 -57.6 Q11.05 -57.3 11.0 -56.6 L9.0 -55.35 Q7.6 -57.45 6.9 -58.85 L6.5 -58.9 Q6.05 -58.8 6.05 -58.05 6.6 -55.85 7.25 -54.25 L5.0 -52.7 4.55 -52.35 2.15 -54.3 1.8 -54.25 Q1.35 -54.1 1.35 -53.35 L3.0 -51.15 Q0.35 -49.0 -0.2 -47.55 -1.3 -48.6 -3.15 -49.45 -8.05 -51.8 -8.6 -52.25 -11.0 -54.3 -11.9 -55.8 L-12.7 -57.9 -13.15 -60.1 -13.5 -60.45 M7.15 -51.5 L8.25 -52.2 Q9.65 -49.85 11.5 -49.85 12.25 -49.85 12.25 -50.1 L12.15 -50.35 10.15 -53.55 12.15 -55.3 12.25 -55.3 Q14.75 -55.3 17.25 -51.0 19.4 -47.25 19.4 -45.05 19.4 -43.65 18.5 -42.0 16.95 -39.25 13.8 -39.25 10.45 -39.25 5.7 -42.05 L1.9 -44.55 Q2.1 -47.0 4.45 -49.35 5.7 -47.9 6.05 -47.9 L7.1 -48.05 7.35 -48.25 Q7.35 -49.0 7.5 -49.3 L6.1 -50.75 7.15 -51.5" fill="#4e5963" fill-rule="evenodd" stroke="none"/>
  </g>
</svg>
