<?xml version="1.0" encoding="UTF-8" standalone="no"?>
<svg xmlns:ffdec="https://www.free-decompiler.com/flash" xmlns:xlink="http://www.w3.org/1999/xlink" ffdec:objectType="shape" height="115.65px" width="264.1px" xmlns="http://www.w3.org/2000/svg">
  <g transform="matrix(1.0, 0.0, 0.0, 1.0, 0.0, 0.0)">
    <path d="M252.55 11.2 L250.8 14.7 Q249.2 17.6 248.95 18.2 L248.8 18.85 248.65 18.8 247.4 20.7 247.35 20.9 Q248.15 21.65 249.6 23.55 L249.6 23.45 Q251.65 22.05 257.85 21.15 265.0 20.15 263.95 23.1 263.4 24.55 260.55 29.0 257.2 34.2 255.45 35.05 L255.1 36.7 254.6 37.1 254.5 37.35 254.5 37.4 Q255.45 41.05 254.5 49.1 253.65 51.55 250.6 54.9 248.1 57.7 246.35 58.35 L246.25 58.6 244.8 61.35 243.25 64.1 Q242.45 66.45 240.3 75.1 L237.15 86.4 236.05 89.05 235.95 89.35 235.4 89.6 235.35 89.7 Q234.55 90.85 231.9 92.25 228.55 93.75 227.55 94.4 L227.45 95.25 225.25 95.55 Q224.45 95.75 222.4 95.0 217.85 93.4 213.5 86.2 209.6 79.4 210.45 76.8 L212.65 72.5 214.9 68.25 Q215.7 66.0 215.75 63.8 215.75 61.25 214.9 58.05 213.65 57.45 212.5 55.7 210.75 56.05 208.8 56.95 207.3 57.55 206.0 58.4 L204.75 60.15 207.0 61.8 207.0 61.55 207.85 61.6 210.05 62.15 209.1 72.9 207.75 81.9 206.25 88.6 206.05 89.4 206.0 89.4 Q205.65 90.25 205.35 90.15 L205.2 93.8 204.55 99.75 Q204.55 101.85 205.45 105.55 L206.95 111.85 Q206.5 112.55 205.85 112.75 L205.75 112.65 203.85 113.15 202.2 113.3 202.0 113.3 199.3 113.8 192.75 114.3 189.85 114.8 175.45 112.8 143.65 108.1 143.5 108.1 143.4 108.2 136.35 107.05 128.15 105.4 125.7 106.75 118.4 111.1 114.9 112.9 109.0 115.65 108.75 115.5 108.05 115.5 Q105.55 115.1 99.4 107.05 L93.85 99.4 Q93.75 101.65 93.45 102.3 91.95 105.5 86.1 105.5 L70.1 105.3 Q70.05 108.0 69.7 108.75 68.2 111.95 62.35 111.95 L38.35 111.2 38.35 111.15 37.8 111.1 Q37.35 108.3 37.35 106.75 L37.6 102.1 37.85 99.5 37.5 97.6 Q37.0 95.4 35.1 93.5 L34.7 93.1 34.05 92.35 33.85 92.35 Q31.8 92.35 31.05 89.15 30.3 86.05 31.75 82.8 L29.25 85.35 Q22.95 91.4 19.15 92.65 L18.45 92.85 18.05 92.8 17.9 92.8 Q17.7 92.85 17.4 92.0 17.2 91.4 17.65 89.6 L15.75 91.25 Q13.95 92.75 12.3 93.25 11.65 93.5 8.95 95.05 L5.7 96.75 2.25 97.2 Q0.45 97.0 0.15 96.1 L0.0 95.3 Q5.9 90.65 7.4 86.75 8.1 83.1 8.75 81.9 L9.35 77.9 9.9 73.4 Q9.45 72.25 11.55 67.45 L11.7 67.1 10.15 67.55 Q9.9 67.6 9.7 67.8 L6.45 69.3 Q5.95 69.4 5.15 68.85 4.5 68.35 4.4 67.95 4.3 67.65 4.6 67.0 4.95 66.3 5.95 65.4 L11.9 59.45 12.35 58.1 Q13.0 56.5 14.0 55.55 14.6 54.9 15.25 52.75 L17.0 48.0 17.95 46.25 15.65 46.1 Q13.75 45.75 13.4 44.5 13.3 44.2 15.65 40.7 18.35 36.75 18.85 35.35 L20.7 31.05 22.75 27.2 Q25.15 22.95 26.2 21.6 28.3 18.9 33.95 14.25 L38.5 11.65 Q42.8 9.1 43.95 8.7 47.3 7.65 51.4 8.2 55.1 8.65 57.3 10.2 L60.95 13.2 64.55 11.7 67.85 10.55 68.7 9.9 Q71.5 8.1 73.35 7.05 L74.65 5.15 74.6 5.0 74.65 4.35 Q74.9 2.55 78.95 1.2 83.05 -0.15 87.65 0.0 92.85 0.2 95.75 2.3 97.3 3.25 98.05 4.8 L98.5 6.0 99.1 5.85 98.65 8.9 98.55 9.25 98.2 11.15 99.1 14.2 99.35 14.45 102.05 16.2 Q105.65 17.95 113.6 19.6 L124.45 21.55 Q135.3 23.25 140.35 21.05 L142.0 20.05 141.9 19.95 143.85 17.0 Q145.35 14.85 146.75 14.85 149.5 14.95 149.8 18.1 149.95 19.35 149.55 21.9 L149.4 22.8 149.65 22.85 149.35 23.0 149.15 24.1 150.15 24.3 150.05 24.45 150.0 24.8 150.35 25.05 Q153.25 24.55 156.05 22.8 158.8 21.0 161.55 21.0 L162.2 20.1 163.8 23.9 165.55 22.65 Q172.25 19.0 174.1 18.05 179.0 15.65 183.85 14.1 L194.05 10.65 Q200.3 8.55 204.95 7.65 215.1 5.8 224.95 8.4 L224.85 8.5 Q226.05 8.75 227.65 9.35 L230.4 10.0 233.75 11.4 233.65 11.45 Q234.9 11.9 236.45 13.1 L236.75 13.25 236.95 13.35 236.95 13.3 Q237.55 13.55 238.1 13.3 L238.75 12.65 238.85 12.35 241.25 10.8 Q245.4 8.8 251.25 9.4 L251.35 9.65 251.35 9.95 252.7 10.25 Q253.05 9.9 252.55 11.2 M249.15 11.4 L247.05 11.85 Q242.85 12.65 242.2 13.05 241.3 13.6 239.55 15.45 L237.2 17.7 236.75 17.6 Q235.2 19.5 234.8 20.6 234.4 21.6 234.9 24.3 L235.25 26.25 235.5 26.35 235.55 27.3 Q236.35 27.65 237.05 28.4 238.3 29.9 238.2 31.4 L240.15 32.05 241.25 33.1 241.35 32.85 241.7 32.6 241.6 32.5 242.2 31.45 242.25 31.5 242.8 30.3 242.85 29.5 Q240.95 28.85 238.85 25.95 237.05 23.35 237.15 22.9 238.25 19.95 243.0 15.75 246.9 12.35 249.15 11.6 L249.4 11.35 249.15 11.4 M247.3 15.6 L245.3 17.3 Q240.4 21.25 239.95 22.5 239.75 23.2 242.05 25.2 L243.0 26.05 243.15 23.65 Q243.75 22.05 245.2 19.85 L246.5 18.05 246.65 17.45 247.3 15.6 M249.35 34.4 L249.4 34.1 250.2 34.45 252.7 35.0 252.75 34.05 Q253.1 32.0 252.0 30.1 L250.3 27.7 249.85 27.15 249.6 26.95 249.65 26.85 248.05 24.75 246.4 22.3 245.7 23.65 245.35 24.95 Q245.2 26.25 245.35 27.95 245.6 30.4 244.8 32.6 L244.4 33.3 244.15 33.25 243.65 33.35 243.3 33.9 244.15 34.0 244.6 34.4 Q247.45 33.15 249.35 34.45 L249.35 34.4 M255.9 23.85 L251.2 25.05 Q252.9 26.8 254.0 28.9 254.95 30.5 255.25 31.95 L257.25 29.05 260.75 23.75 Q259.35 23.15 255.9 23.85 M247.8 36.35 L245.3 37.05 245.05 37.55 244.35 37.35 Q242.45 37.9 241.85 38.2 241.35 38.35 239.8 40.85 238.2 43.15 237.9 44.05 L237.3 46.05 237.3 46.1 237.2 46.65 237.25 46.75 237.25 48.0 237.5 48.5 237.6 48.7 237.3 49.15 Q237.55 50.75 238.55 52.25 239.95 54.3 243.8 56.7 L244.0 56.7 244.95 56.0 245.0 56.05 244.95 56.25 245.05 56.15 245.55 55.8 Q243.0 54.6 241.45 52.35 239.95 49.9 240.5 48.3 L240.6 48.0 Q242.25 43.7 244.15 41.6 246.8 38.9 250.35 39.25 L251.85 39.5 252.55 39.7 Q252.55 38.75 252.25 38.3 251.9 37.2 251.1 36.75 L251.05 36.75 251.05 36.7 250.65 36.45 249.05 36.55 249.05 36.0 248.85 36.05 247.8 36.35 M249.05 40.95 Q246.8 40.8 244.85 43.75 L242.9 47.95 242.8 48.15 Q242.3 49.85 243.5 51.2 L246.9 54.75 248.4 53.45 248.4 53.4 249.25 53.45 249.3 53.4 249.4 53.35 249.55 53.25 249.25 53.1 Q247.1 52.35 246.15 50.85 245.45 49.65 245.75 48.75 L245.9 48.3 246.0 48.1 Q246.85 45.95 247.75 45.0 L248.9 44.15 251.4 44.1 251.8 44.2 252.75 44.7 252.65 41.95 252.55 42.15 252.0 42.15 251.85 42.1 251.5 41.95 250.6 41.45 250.6 41.3 250.35 41.25 250.25 41.2 249.05 40.95 M252.3 48.55 L252.5 47.55 249.95 46.45 Q249.15 46.2 248.6 47.2 L248.15 48.1 247.8 49.0 Q247.65 49.45 249.1 50.55 L250.35 51.55 250.75 51.2 252.1 49.25 252.3 48.6 252.3 48.55 M225.8 11.6 L225.5 11.55 224.65 11.4 224.45 11.35 223.85 11.2 223.45 11.15 220.65 10.5 220.8 10.4 220.95 9.85 219.15 9.55 218.8 9.55 218.6 9.5 216.55 9.15 208.5 9.55 208.35 9.6 207.4 9.9 206.35 10.1 205.6 10.25 200.4 11.3 197.2 11.85 194.9 12.4 194.8 12.45 194.45 12.45 194.35 12.5 190.25 13.9 190.0 13.95 188.65 14.5 185.1 15.85 Q183.2 16.65 181.4 17.55 179.95 18.1 178.6 18.8 L177.4 19.35 Q176.7 19.55 176.15 19.9 L176.15 19.95 167.05 24.95 166.7 25.15 165.15 26.25 Q166.9 30.9 167.4 31.7 L168.8 33.95 Q169.9 35.55 171.25 36.95 L171.6 37.35 172.85 38.65 174.15 39.95 174.65 39.1 176.2 37.0 Q177.9 35.0 179.1 34.95 L180.2 35.3 180.2 35.35 179.5 37.1 178.65 38.9 Q178.3 39.85 178.35 41.05 L178.65 42.75 Q180.6 41.65 181.9 39.35 L183.95 35.45 184.4 31.15 184.6 30.6 185.4 29.75 186.55 29.4 186.5 31.05 186.25 32.75 186.1 33.65 185.9 35.4 186.45 35.7 Q185.85 37.85 185.75 38.95 191.8 32.15 192.5 30.2 L192.7 28.0 192.85 25.95 192.95 25.65 Q193.15 25.0 193.85 23.9 L195.1 21.85 195.95 21.9 196.4 21.95 Q197.2 23.3 196.8 24.15 195.95 24.9 195.6 26.15 195.25 26.95 195.35 27.7 L195.75 29.6 Q197.0 27.35 200.15 24.4 L204.6 20.95 206.15 20.0 207.2 20.25 207.35 20.25 207.45 20.5 207.2 21.25 206.05 23.25 Q205.1 24.6 204.9 25.25 204.4 26.65 204.25 27.8 206.45 26.65 208.7 23.35 L212.25 17.65 Q212.25 17.25 213.4 17.65 L213.45 17.7 Q213.95 17.85 214.15 18.45 214.4 19.2 214.2 20.5 L213.8 22.3 213.85 22.25 213.8 22.55 213.9 22.65 213.6 22.95 213.55 23.2 213.8 23.35 214.45 22.9 214.6 22.85 214.65 22.75 214.9 22.5 215.65 21.5 216.65 20.1 216.65 20.05 218.55 17.3 218.6 17.25 219.65 17.2 220.2 17.3 220.3 17.35 220.45 17.6 220.4 17.9 Q220.45 18.45 220.1 19.3 L219.65 20.1 219.6 20.3 219.75 20.6 220.0 20.5 Q224.15 19.0 225.85 18.85 L226.25 18.9 Q227.85 18.85 227.95 20.15 L227.95 20.5 227.65 21.8 226.15 23.9 226.0 24.15 Q227.1 24.5 228.15 25.2 L228.5 20.95 228.45 20.45 228.4 19.7 Q228.4 17.75 228.8 16.1 L229.15 15.1 229.5 14.2 229.75 13.8 229.8 13.7 230.15 13.35 230.35 13.15 227.9 12.15 226.95 11.75 225.8 11.6 M231.75 15.15 L231.35 19.95 Q231.05 23.5 230.25 26.35 L232.25 26.4 231.95 24.1 Q231.9 21.25 232.3 20.05 232.75 18.8 235.45 15.35 L234.05 14.6 232.45 13.8 232.4 14.05 Q231.9 14.65 231.75 15.15 M208.1 39.0 L208.8 37.65 211.7 34.2 Q211.25 33.5 211.75 32.15 213.15 28.15 218.2 25.3 220.15 24.2 221.95 23.85 L223.95 23.65 223.95 23.5 224.35 22.9 225.05 21.75 225.0 21.45 224.2 21.5 222.75 21.85 Q221.35 22.35 219.6 23.3 L218.2 24.1 215.1 25.55 214.7 25.45 214.45 25.2 Q212.4 27.3 210.6 28.3 L209.5 28.0 Q209.5 27.3 210.05 26.2 L211.1 24.25 210.95 23.7 210.7 24.0 Q208.75 26.7 207.1 28.2 204.3 30.8 201.3 31.25 200.6 29.75 201.3 28.25 201.7 27.45 202.85 25.8 L202.75 25.0 200.45 27.15 Q198.75 28.65 198.3 29.3 L196.9 31.95 Q195.8 33.75 194.95 34.2 L195.05 34.35 194.3 34.1 Q193.6 33.85 193.55 33.15 193.5 32.8 193.6 32.5 L193.25 33.0 189.1 38.65 Q185.3 43.35 183.8 42.85 L182.85 42.2 182.75 41.5 Q182.0 42.75 179.9 44.5 L179.55 44.8 Q185.25 49.25 194.8 54.35 L195.15 54.55 Q199.75 57.05 202.8 58.9 L202.95 58.15 Q203.85 57.4 204.8 56.75 L206.9 54.7 207.55 54.15 207.4 55.1 207.45 55.15 Q209.6 54.0 211.55 53.8 L211.2 53.2 210.6 51.95 209.7 50.55 208.15 48.6 Q207.35 47.05 207.35 44.0 207.3 41.2 207.95 39.25 L208.1 39.0 M214.95 31.8 L215.5 31.55 Q220.35 28.7 223.85 30.55 225.35 28.1 227.65 27.0 L227.7 26.85 227.65 26.85 Q221.45 25.65 218.15 27.65 217.0 28.25 216.1 29.4 215.3 30.4 214.75 31.75 L214.65 32.15 214.95 31.8 M222.25 33.8 Q222.55 32.95 223.0 32.25 L222.85 32.2 Q219.05 30.85 214.65 34.6 L212.15 37.0 Q211.0 38.25 210.65 39.3 209.05 43.9 210.3 46.65 L211.55 48.5 213.1 46.3 216.25 42.0 Q220.0 37.0 222.25 34.8 L222.25 33.8 M221.65 38.95 L221.7 38.6 221.55 38.85 218.65 42.75 214.5 48.15 212.7 50.35 212.95 50.75 214.55 53.2 Q222.5 41.65 225.8 38.35 225.45 37.5 224.05 37.7 222.5 37.75 221.65 38.95 M221.2 61.35 L221.65 58.5 Q221.7 57.8 221.9 57.35 L222.25 50.95 222.6 46.25 222.55 46.25 215.65 54.8 216.6 55.6 216.25 56.0 216.65 56.65 Q217.45 56.6 217.85 57.75 L217.85 57.9 218.0 58.5 218.05 59.9 218.05 60.1 218.1 61.3 Q218.05 64.75 217.3 68.8 L218.4 69.05 219.0 69.65 219.95 69.6 220.05 69.6 220.45 69.75 Q220.15 69.05 220.2 67.95 L221.0 63.45 221.2 61.35 M228.4 29.0 L228.35 29.0 Q227.5 29.55 226.8 30.6 L225.55 32.7 225.5 32.9 225.45 32.9 224.7 34.1 224.85 35.15 225.55 35.9 225.6 35.8 Q225.85 36.15 226.2 36.15 L226.25 36.35 226.4 36.35 Q227.35 36.35 227.65 37.0 L227.9 37.1 229.4 37.7 Q231.35 38.4 233.4 35.6 234.5 34.1 235.2 32.4 235.55 31.45 235.15 30.65 234.35 29.15 231.55 28.2 L230.05 28.15 229.9 28.2 229.8 28.2 229.7 28.2 Q228.65 28.3 228.4 29.0 M238.4 34.4 L237.7 33.1 Q236.75 35.1 234.75 37.45 L232.15 39.85 Q233.6 40.65 234.45 42.3 L235.4 44.35 235.65 43.4 Q237.0 39.5 241.45 36.25 239.2 35.3 238.4 34.4 M226.2 41.55 Q226.4 42.7 225.95 44.4 225.2 47.0 225.2 48.15 L224.7 55.35 223.55 62.25 Q223.15 64.4 223.35 67.3 L223.5 69.75 224.15 69.85 224.15 69.8 224.95 66.45 225.05 64.7 Q224.95 63.45 225.2 62.85 L226.45 51.95 226.5 51.25 226.45 51.15 226.5 51.1 226.95 45.15 226.95 45.1 226.65 44.6 227.2 43.8 227.6 41.0 227.8 40.65 227.75 40.45 227.25 40.25 226.2 41.55 M230.0 45.75 Q230.45 47.5 231.7 49.45 L229.5 51.5 Q229.75 51.8 230.5 52.0 L232.55 50.7 Q233.75 52.25 235.0 53.0 L235.3 52.75 Q235.1 51.85 233.75 49.85 L236.5 47.5 Q236.35 47.2 235.65 47.1 L235.0 47.0 Q234.25 47.35 232.8 48.5 L230.75 45.55 230.0 45.75 M162.65 26.95 L161.7 25.55 160.7 23.5 158.4 24.8 158.85 25.55 159.8 27.2 160.1 27.95 160.45 27.7 161.1 29.1 161.4 29.7 163.25 34.25 163.4 34.6 Q164.25 36.4 165.55 38.2 L165.9 38.65 166.75 39.7 166.9 39.9 167.55 40.65 168.95 42.15 171.2 44.25 171.75 44.65 173.05 45.65 173.75 46.2 178.8 50.55 Q182.25 53.6 186.15 55.5 L197.05 60.85 200.4 63.3 201.3 64.15 201.45 61.15 201.55 61.05 201.5 61.0 193.5 56.25 Q184.25 50.6 177.8 45.9 L176.35 44.8 175.6 44.2 174.9 43.6 173.1 41.8 172.0 40.65 170.5 38.8 168.65 36.45 167.5 34.9 166.55 33.6 Q165.25 31.8 164.3 30.2 L164.1 29.85 163.0 27.7 162.65 26.95 M196.45 63.2 L195.1 62.35 190.75 60.25 189.5 59.7 183.5 56.9 Q181.75 55.65 178.8 52.6 176.05 49.8 173.8 48.45 L172.9 47.9 Q170.75 46.5 168.95 44.8 L166.1 41.7 164.5 39.55 163.4 37.75 160.65 33.2 160.45 32.95 159.0 30.75 157.95 29.35 157.75 29.05 157.7 29.0 156.55 27.05 156.3 26.5 156.6 26.25 156.25 25.9 156.05 26.0 152.3 27.35 Q153.2 28.6 153.6 30.55 L154.1 32.55 154.65 34.7 154.95 35.55 155.0 35.75 155.05 35.8 155.15 36.2 157.6 40.4 158.55 42.05 160.1 45.6 Q160.95 48.55 162.65 51.75 L163.75 53.8 164.8 55.5 170.7 64.5 171.9 65.4 Q173.95 66.85 174.75 68.8 175.9 68.75 177.1 69.2 L180.9 71.15 181.15 71.25 181.55 71.35 184.35 72.5 185.3 72.8 194.25 75.0 194.55 75.05 194.65 75.1 194.85 75.1 196.6 75.35 199.65 75.75 200.15 76.1 200.2 75.85 200.8 71.6 201.1 67.0 201.1 66.85 199.25 65.4 196.45 63.2 M176.1 41.15 L176.05 41.1 175.8 41.25 175.75 41.4 176.45 42.05 176.45 41.5 176.1 41.15 M151.35 32.0 L150.4 38.05 150.35 38.6 150.55 39.25 151.85 43.4 154.05 46.95 154.25 47.2 Q155.95 49.7 156.45 50.8 L158.6 54.9 160.75 58.6 164.55 64.95 165.6 64.05 165.45 63.85 166.75 64.15 168.4 64.35 164.1 57.75 162.75 55.5 161.55 53.45 159.6 49.95 158.5 47.7 158.05 46.6 157.75 45.95 156.2 42.7 154.25 38.5 154.2 38.4 153.9 37.7 152.5 34.45 151.5 31.8 151.4 31.6 151.35 32.0 M162.15 67.3 L162.05 67.25 155.45 65.8 152.25 65.15 149.4 64.5 147.65 64.05 147.3 68.4 151.3 68.8 154.75 69.3 161.15 70.35 161.35 70.6 Q161.55 70.7 161.4 71.5 L161.9 69.6 162.5 67.35 162.5 67.3 162.15 67.3 M164.1 73.85 Q165.6 75.05 169.15 75.55 170.9 75.85 173.25 71.8 173.45 70.3 171.8 68.75 170.0 67.05 167.25 66.65 165.4 66.4 164.15 69.0 163.4 70.5 163.2 71.95 163.05 72.95 164.1 73.85 M175.05 70.45 L175.0 72.25 Q174.8 73.75 172.95 75.85 L172.1 76.85 181.25 78.25 184.85 79.1 185.35 79.6 Q185.45 79.9 186.6 80.2 L190.2 81.15 192.2 81.75 Q196.45 83.0 198.3 83.95 198.65 82.4 199.5 79.9 L199.75 78.3 196.7 77.95 195.1 77.7 193.3 77.4 Q187.65 76.3 183.3 74.7 L180.1 73.35 175.05 70.45 M193.55 84.8 L190.7 83.85 190.5 83.8 187.95 82.9 180.7 80.9 169.7 78.5 169.55 78.35 169.45 78.05 169.4 78.0 Q161.2 76.75 161.3 72.3 L161.35 72.05 161.15 72.25 160.85 72.4 156.8 71.85 153.45 71.4 147.1 70.55 146.65 74.75 145.7 80.35 145.65 81.2 143.15 96.8 Q141.85 97.0 140.15 98.05 L140.0 98.1 138.7 99.1 Q138.25 99.3 137.9 99.6 L133.8 101.45 130.7 103.6 143.3 106.0 143.3 105.9 143.45 105.95 Q154.25 108.2 187.9 112.05 L195.3 111.55 199.9 111.35 199.9 111.2 Q201.35 110.6 205.15 111.25 203.8 108.15 203.2 104.7 202.35 99.55 203.1 93.9 L203.2 93.2 203.15 93.1 203.3 92.45 203.45 91.65 203.4 91.65 203.6 90.65 203.8 89.95 Q200.55 89.4 199.45 88.6 L198.55 88.45 198.4 88.3 198.3 88.05 Q197.95 87.2 198.0 86.2 L197.55 86.15 193.6 84.8 193.55 84.8 M200.5 86.65 L205.0 87.25 205.2 86.0 207.15 73.15 207.85 67.65 Q207.9 65.6 207.35 64.05 L206.8 64.0 203.55 62.2 203.2 62.0 203.35 62.55 Q203.6 63.55 203.5 65.05 L202.65 71.7 200.05 86.45 200.5 86.65 M236.65 59.6 L236.65 59.55 Q237.0 58.55 235.4 58.35 L234.85 58.35 234.4 58.3 233.25 57.75 Q230.65 56.55 228.65 54.35 228.4 55.6 228.1 58.6 L228.1 58.7 228.05 58.7 227.95 59.95 227.8 61.35 227.55 63.1 227.1 67.7 226.8 70.5 230.55 71.85 231.65 72.4 232.05 72.35 232.1 72.35 233.15 72.85 233.1 73.15 234.2 73.85 234.15 73.5 234.45 68.85 Q235.05 64.0 235.35 63.1 L236.75 60.25 237.1 59.8 236.65 59.6 M240.0 60.6 L239.85 60.7 240.2 60.05 240.1 60.35 240.0 60.6 M238.4 60.8 L238.3 61.1 237.7 62.85 237.0 66.3 236.25 69.6 Q236.05 70.2 236.15 71.95 L236.1 74.0 236.1 74.05 238.25 74.75 239.25 70.55 240.75 64.8 Q241.2 62.8 242.0 61.0 L242.3 60.45 242.0 60.45 242.05 60.25 241.75 59.3 241.55 59.3 241.5 59.25 Q241.05 59.2 240.85 59.55 L240.35 59.9 241.2 58.75 240.1 58.75 238.85 58.8 238.4 60.8 M214.8 73.95 L217.7 73.65 222.55 74.65 223.95 74.95 224.8 75.4 Q225.55 75.65 226.1 75.4 L229.35 76.0 Q232.05 76.7 233.65 77.45 L233.7 77.4 234.35 77.85 234.3 78.2 234.35 78.25 235.3 78.4 235.45 78.55 235.85 78.6 236.05 78.65 236.95 79.35 237.55 77.2 236.9 76.95 235.7 76.25 234.9 75.9 234.45 75.7 Q234.25 75.5 234.05 75.45 L234.0 75.2 231.9 74.9 227.1 73.4 Q226.8 72.75 225.7 72.4 224.4 72.0 223.75 72.4 L223.1 72.3 221.55 72.15 219.3 72.0 217.6 71.7 Q216.9 71.45 216.4 71.0 L214.7 73.85 214.6 74.1 214.8 73.95 M214.3 74.6 L214.3 74.55 Q213.05 76.35 212.75 77.05 212.4 78.1 215.6 84.15 219.25 91.3 223.45 92.75 L226.15 93.05 Q226.7 92.05 230.5 89.85 L233.7 88.05 233.7 87.6 234.4 87.95 234.45 87.7 235.1 86.15 236.4 81.6 Q235.6 81.35 234.5 80.5 L233.35 79.65 232.95 80.25 Q232.95 79.85 233.1 79.6 L230.0 78.95 224.05 77.5 219.2 76.7 215.6 76.2 214.3 75.55 Q213.8 75.9 214.3 74.6 M220.8 85.2 L221.2 84.05 Q221.6 82.75 223.8 81.7 226.6 80.45 228.05 83.6 228.65 85.05 228.1 89.7 227.25 90.2 226.65 90.1 226.2 89.2 226.35 87.3 226.5 86.1 224.35 84.4 223.9 84.4 223.4 84.9 L222.6 85.65 221.7 85.6 Q220.8 85.3 220.8 85.2 M147.85 19.9 L148.15 18.05 147.95 17.35 Q146.3 17.35 144.95 19.3 L144.3 20.15 144.85 20.4 143.15 21.85 Q138.55 26.05 128.25 24.45 L113.65 21.8 105.75 20.25 103.95 19.55 102.65 19.3 Q101.3 18.8 99.3 17.5 L97.65 16.05 97.1 15.35 96.9 15.85 96.7 16.65 96.05 19.0 96.15 20.85 96.1 22.05 95.95 25.55 95.75 26.35 95.75 26.4 95.55 27.3 94.95 29.4 94.85 29.6 94.0 32.7 93.95 32.95 93.75 33.5 93.7 33.75 Q93.2 37.25 99.2 40.05 L103.75 42.2 104.75 42.6 104.75 42.65 104.8 42.75 105.1 42.85 105.75 43.15 106.65 42.3 106.7 42.4 106.85 42.55 107.05 42.7 107.25 42.95 107.25 44.35 106.2 48.3 Q105.15 51.8 104.9 53.6 L104.2 58.25 103.8 60.75 103.65 61.3 104.1 61.35 Q104.1 61.2 104.15 61.35 104.2 61.2 104.25 61.35 104.5 61.25 104.85 61.5 104.9 61.35 104.95 61.5 L105.5 61.55 105.75 61.6 105.95 61.65 106.0 61.65 106.1 61.65 106.3 61.65 122.7 64.5 123.25 64.65 128.4 65.55 128.55 64.55 128.55 64.2 128.9 62.2 129.05 61.35 129.1 61.25 129.3 60.15 Q129.6 55.45 130.05 52.0 L130.2 51.55 Q130.15 51.95 130.25 51.95 L131.0 52.1 Q131.55 52.1 132.05 51.55 L132.0 51.75 132.1 51.5 132.6 51.0 132.95 50.85 133.5 50.7 133.75 50.3 133.85 50.15 134.65 49.85 Q135.6 49.5 137.5 48.9 142.85 46.8 143.45 42.7 143.7 41.35 143.4 40.0 142.95 38.35 143.0 36.55 L143.8 31.25 Q144.7 25.5 145.25 24.25 145.95 22.85 147.4 21.55 L147.65 21.85 147.7 21.65 147.7 21.6 147.85 19.9 M134.75 98.9 L135.25 98.65 Q135.35 98.5 135.55 98.5 L139.6 96.3 140.15 95.95 140.45 95.8 Q140.95 95.45 141.5 95.25 L141.55 94.8 141.6 94.55 141.65 94.25 141.7 93.8 141.85 93.2 142.0 92.05 142.0 92.0 142.25 90.35 142.25 90.25 142.5 88.6 142.6 88.0 142.7 87.25 143.25 83.45 Q143.5 82.15 143.85 81.35 L143.65 81.2 144.0 79.7 144.75 74.55 145.25 70.35 145.0 70.35 145.2 68.6 145.45 68.5 145.9 63.55 145.85 63.55 145.7 63.4 Q145.55 63.25 145.65 62.5 145.8 61.8 146.15 61.65 L146.45 57.75 146.7 54.1 146.55 54.0 146.45 53.45 146.5 53.3 146.5 53.1 146.9 52.1 147.6 45.1 148.25 39.05 148.65 36.0 149.0 31.35 Q149.3 29.35 149.75 28.1 L149.4 27.35 149.2 26.85 148.85 26.7 146.85 26.05 146.3 27.75 145.6 31.95 145.5 33.75 145.45 35.75 145.45 36.45 145.45 37.05 145.45 37.15 145.45 37.55 145.25 43.45 Q144.7 47.0 142.6 48.85 L140.95 49.9 140.85 49.95 140.7 50.05 140.65 50.05 Q135.6 51.45 132.7 53.45 L132.1 53.0 Q131.9 52.75 132.0 52.3 L132.0 52.0 131.95 52.25 131.95 52.3 131.35 58.45 130.7 67.55 130.15 68.25 129.15 68.4 128.65 67.55 128.65 67.45 128.4 67.7 103.25 63.25 103.2 63.25 103.2 63.35 102.3 63.65 102.05 63.1 101.4 63.0 101.25 62.8 Q101.05 62.6 101.2 61.85 L101.25 61.2 101.65 61.15 Q101.5 59.25 101.95 56.7 L103.5 49.1 104.35 46.1 104.85 44.75 Q100.5 43.85 96.35 40.6 94.25 39.0 93.25 37.45 L93.05 37.25 92.9 37.1 Q91.6 35.1 91.9 33.2 L92.2 32.2 90.75 32.8 Q89.5 33.25 88.4 33.65 L86.35 44.9 85.95 50.5 85.05 58.85 Q83.8 66.7 83.55 72.0 L83.1 72.0 82.95 73.9 82.8 75.05 82.3 77.4 82.2 77.65 82.15 78.3 82.15 78.35 81.6 82.3 81.5 82.9 81.75 83.05 81.9 83.3 81.95 83.35 82.15 83.5 82.2 83.5 83.5 84.9 86.25 87.4 86.4 87.6 87.4 88.55 87.5 88.65 87.95 89.1 89.0 90.05 89.1 90.3 89.4 90.5 90.3 91.45 94.9 96.7 94.95 96.9 95.15 97.2 95.2 97.2 95.25 97.25 101.85 106.0 104.7 109.6 104.75 109.7 105.15 110.15 107.7 112.95 108.5 113.7 108.55 113.7 108.75 113.95 109.0 114.1 109.65 113.7 111.25 112.6 111.25 112.55 112.85 111.45 113.1 111.35 114.45 110.45 114.9 110.15 Q119.0 107.55 124.45 104.5 L125.55 103.85 125.6 103.85 Q125.7 103.05 126.95 103.05 L129.6 101.6 133.2 99.7 133.4 99.6 134.75 98.9 M161.75 65.35 L159.25 61.15 155.15 53.0 Q152.7 49.05 151.2 46.15 L149.9 43.65 149.4 48.0 149.8 48.15 Q149.4 48.75 149.15 49.7 L149.1 49.7 148.95 50.25 148.95 50.45 148.65 51.7 148.2 54.75 Q147.95 56.4 148.1 57.0 L148.15 57.05 148.1 57.55 147.75 61.8 148.55 62.0 148.95 62.15 151.4 62.8 159.05 64.65 Q159.9 65.3 161.3 65.55 L162.0 65.65 161.75 65.35 M94.85 3.65 Q83.7 1.9 79.45 3.35 78.0 3.85 76.95 4.7 L76.9 5.0 75.55 7.35 74.95 8.25 Q77.55 6.95 80.8 6.8 85.7 6.6 89.95 8.5 L92.2 9.6 92.25 9.65 93.45 10.45 95.7 12.5 95.8 12.4 96.1 11.0 96.7 8.8 96.7 8.5 96.2 6.1 95.7 4.8 Q95.2 3.65 94.85 3.65 M81.85 11.75 Q78.1 12.0 74.85 13.7 L73.25 14.7 70.8 16.55 70.75 17.0 70.4 17.4 Q69.4 18.5 69.4 18.9 69.25 19.75 69.4 19.8 L69.5 19.8 69.95 19.85 70.25 19.6 70.25 20.0 Q72.65 18.85 76.05 18.65 L83.2 18.95 87.95 19.05 88.35 19.1 Q89.8 19.4 91.0 20.05 92.35 20.75 93.3 21.85 L94.1 18.45 94.25 17.95 94.5 16.85 94.45 16.85 92.75 15.45 92.0 14.85 91.95 14.8 Q91.5 14.25 89.45 13.6 L89.35 13.6 89.1 13.55 87.05 13.0 86.9 12.5 86.85 12.2 82.35 11.8 81.85 11.75 M87.9 21.8 L82.35 21.0 74.1 21.5 Q71.7 22.0 70.75 22.75 70.2 23.15 70.1 23.6 L69.85 23.95 Q69.3 24.1 68.8 24.6 68.05 25.15 67.9 25.8 L67.85 25.7 Q67.6 26.1 67.5 26.45 67.0 29.75 70.8 31.2 L74.75 32.1 Q79.8 32.9 85.35 32.1 L86.45 31.95 88.9 31.4 Q92.95 30.1 93.35 27.45 93.8 24.25 90.45 22.7 89.4 22.1 87.9 21.8 M81.15 36.75 L81.1 36.65 81.65 36.45 81.15 36.75 M84.25 46.8 L84.4 45.05 85.2 39.95 84.95 39.95 85.0 39.8 85.45 37.95 85.5 37.95 85.6 37.2 85.85 35.75 85.95 34.95 86.0 34.7 86.05 34.5 85.65 34.6 Q81.5 35.65 78.35 35.15 L71.95 34.05 69.85 33.5 Q65.65 31.75 65.4 27.9 L65.45 25.85 65.5 25.75 Q65.7 24.65 66.15 23.75 L66.6 23.0 66.55 22.0 67.05 19.1 Q67.55 17.7 68.85 16.85 69.2 15.25 69.65 13.95 L70.1 12.8 69.95 12.75 69.05 13.05 67.8 14.0 67.75 13.95 65.4 14.1 62.95 15.0 61.7 15.5 61.1 15.8 Q58.3 17.05 56.5 18.55 L56.4 18.75 55.85 19.3 55.6 19.5 54.85 20.15 54.7 20.05 54.6 20.15 54.45 20.3 50.35 24.5 Q48.0 27.0 46.5 29.0 L46.55 29.1 44.8 31.9 44.65 32.5 44.45 33.05 44.05 33.15 44.05 33.2 44.0 33.2 41.5 37.4 40.45 39.5 40.45 39.65 41.2 40.1 45.95 42.6 46.2 42.7 46.5 42.85 46.9 43.05 47.85 43.5 48.05 43.65 48.15 43.6 48.65 43.85 Q53.25 45.75 58.25 47.0 L62.3 47.85 65.15 48.3 65.9 48.45 Q70.85 49.1 76.25 48.2 L77.4 48.0 78.35 47.8 Q83.0 46.65 83.7 46.8 L84.25 47.05 84.25 46.8 M83.9 53.0 L84.0 52.95 84.15 50.25 84.15 48.9 Q82.75 49.55 78.95 50.2 L78.1 50.35 77.45 50.45 Q70.8 51.5 65.1 50.75 L64.35 50.65 61.5 49.9 Q46.35 45.85 41.05 42.85 L39.75 42.0 38.75 45.85 41.0 46.75 42.85 47.55 43.8 48.1 48.5 50.6 53.8 52.3 56.75 53.05 61.1 54.05 64.05 54.7 66.1 55.05 Q73.95 55.3 76.6 54.1 L78.15 53.45 79.5 53.1 80.4 52.9 82.85 52.55 83.9 53.0 M80.85 71.7 L80.95 71.65 81.1 71.6 81.2 71.6 83.85 55.45 83.9 54.2 Q83.3 54.8 80.15 55.65 L78.6 56.0 76.9 56.35 Q69.35 57.9 64.6 57.15 L63.7 57.0 61.4 56.65 54.95 55.3 52.5 54.65 48.95 53.3 45.35 51.25 44.45 50.7 44.4 50.65 42.2 49.45 41.05 48.85 38.45 47.6 38.4 47.6 38.4 47.75 37.1 52.7 Q36.2 56.65 35.25 65.75 L35.2 66.1 35.1 66.55 34.95 67.3 34.7 68.35 33.05 73.1 32.05 75.2 30.3 77.8 31.2 78.35 31.9 78.85 35.25 81.4 35.95 81.95 Q43.45 84.4 57.25 87.75 L63.55 89.25 64.0 89.35 76.5 92.2 77.45 92.35 78.2 92.45 80.25 92.9 81.2 93.1 83.85 93.7 89.95 94.95 86.25 91.2 84.65 89.6 82.65 87.4 82.35 87.05 82.3 87.0 Q80.4 84.75 80.1 83.55 L79.2 84.3 79.65 82.05 79.9 80.1 80.0 79.7 80.05 79.3 80.65 74.8 80.75 74.4 81.0 72.95 81.05 72.9 81.3 72.05 81.1 72.05 81.0 72.15 80.8 72.15 80.7 72.15 80.75 72.1 Q80.75 71.8 80.9 71.7 L80.85 71.7 M84.6 96.4 Q84.35 97.3 84.35 98.7 L84.4 100.3 Q84.8 101.7 86.85 101.7 87.85 101.7 88.65 100.4 89.35 99.25 89.35 97.9 L89.3 97.1 84.6 96.4 M57.85 14.4 L58.65 13.85 58.25 14.55 58.3 14.55 Q58.9 14.2 59.65 13.85 58.05 12.8 55.8 11.9 49.4 9.35 44.6 10.85 41.55 11.8 35.5 16.3 27.3 22.45 24.7 28.5 L21.8 35.95 Q19.4 41.4 16.25 44.05 L18.85 43.6 21.5 43.55 21.85 44.8 21.3 45.2 20.75 45.5 Q20.3 47.6 17.4 53.3 13.6 60.95 9.75 64.9 L9.6 65.05 9.8 64.9 Q12.9 63.3 14.0 62.5 L14.0 62.45 14.6 62.4 Q14.85 62.45 15.1 63.25 15.45 64.35 15.1 65.1 L14.3 67.0 Q12.4 70.5 11.8 72.5 11.5 73.4 11.6 75.55 11.75 77.85 11.3 79.4 10.8 81.7 10.25 85.6 9.2 89.3 4.7 94.95 6.25 93.75 7.95 93.05 L10.85 91.9 Q13.4 90.5 17.15 86.55 L17.2 86.5 18.2 85.75 18.45 85.1 20.2 83.05 21.6 81.4 22.45 81.45 23.0 82.3 23.1 82.5 Q23.25 83.2 22.4 85.25 L20.7 89.6 Q26.75 84.6 30.4 80.6 27.95 78.65 28.05 78.05 L28.25 77.25 28.45 77.0 29.1 77.2 29.15 76.95 Q29.3 75.95 30.4 73.75 31.7 71.5 31.95 70.3 L33.45 63.9 35.6 50.55 36.4 46.75 36.15 46.6 Q36.4 45.45 36.8 45.1 37.4 42.7 38.25 40.45 L38.05 39.65 Q38.2 38.85 38.4 38.8 L38.45 38.8 Q38.7 37.35 39.15 36.4 40.8 33.15 43.0 30.3 43.8 27.3 47.65 22.85 50.8 19.15 53.3 18.25 L54.7 16.85 55.2 16.35 57.5 14.65 57.85 14.4 M61.05 91.1 L60.55 90.75 Q36.5 84.85 35.2 84.0 L34.45 83.5 34.3 84.0 33.85 85.85 33.7 87.15 Q33.7 87.45 35.65 89.6 L35.95 89.9 Q38.45 92.5 39.95 96.05 L40.2 96.6 40.5 97.7 40.5 97.75 40.55 99.8 40.6 100.2 40.7 102.4 39.6 103.55 39.8 104.75 39.95 104.95 40.65 104.95 40.6 105.55 40.7 105.55 40.8 105.5 41.25 104.95 42.1 104.95 Q46.3 102.4 46.5 102.4 L46.7 102.45 45.6 104.15 Q45.6 105.2 45.85 105.4 L46.6 105.55 48.6 103.35 Q49.95 102.55 51.95 99.8 L52.75 98.65 Q52.6 99.8 52.6 101.15 52.6 102.25 52.85 102.55 L53.6 103.0 Q54.3 102.65 56.95 98.65 L57.9 97.25 58.2 97.85 58.0 98.3 57.1 100.35 Q57.1 101.35 57.35 101.55 L58.1 101.75 Q59.65 100.9 61.15 98.75 L61.55 98.15 61.95 97.6 62.1 97.9 63.1 97.0 63.1 94.1 Q63.05 92.5 62.15 91.95 L61.65 91.7 61.3 91.35 61.05 91.1 M79.0 94.65 L77.15 94.15 77.05 94.5 76.35 94.4 76.35 94.7 Q76.35 95.8 76.6 96.1 L77.35 96.55 79.0 94.65 M64.25 91.65 L64.25 91.75 66.35 94.45 67.4 97.6 70.25 95.95 70.45 96.0 Q69.35 97.5 69.35 97.7 69.35 98.75 69.6 98.95 L70.35 99.1 72.35 96.9 Q73.45 96.25 75.05 94.25 L74.95 94.2 64.25 91.65 M63.1 101.15 Q61.8 100.9 61.2 102.0 60.6 103.0 60.6 105.15 L60.65 106.75 Q61.05 108.15 63.1 108.15 64.1 108.15 64.9 106.85 L65.55 105.1 65.6 104.35 Q65.6 101.55 63.1 101.15" fill="#000000" fill-rule="evenodd" stroke="none"/>
    <path d="M39.95 96.05 Q38.45 92.5 35.95 89.9 L35.65 89.6 Q33.7 87.45 33.7 87.15 L33.85 85.85 34.3 84.0 34.45 83.5 35.2 84.0 Q36.5 84.85 60.55 90.75 L61.05 91.1 60.5 91.65 58.25 93.75 Q56.95 93.75 55.65 92.8 54.35 91.75 53.85 91.75 53.1 91.75 52.95 92.0 L52.65 92.7 Q52.4 91.05 51.5 90.55 L49.3 94.3 Q48.4 95.85 47.5 95.85 46.95 95.85 45.9 94.95 L44.7 94.05 Q42.05 94.05 39.95 96.05" fill="#4e362c" fill-rule="evenodd" stroke="none"/>
    <path d="M61.05 91.1 L61.3 91.35 61.65 91.7 62.15 91.95 Q63.05 92.5 63.1 94.1 L63.1 97.0 62.1 97.9 61.95 97.6 61.55 98.15 61.15 98.75 Q59.65 100.9 58.1 101.75 L57.35 101.55 Q57.1 101.35 57.1 100.35 L58.0 98.3 58.2 97.85 57.9 97.25 56.95 98.65 Q54.3 102.65 53.6 103.0 L52.85 102.55 Q52.6 102.25 52.6 101.15 52.6 99.8 52.75 98.65 L51.95 99.8 Q49.95 102.55 48.6 103.35 L46.6 105.55 45.85 105.4 Q45.6 105.2 45.6 104.15 L46.7 102.45 46.5 102.4 Q46.3 102.4 42.1 104.95 L41.25 104.95 40.8 105.5 40.7 105.55 40.6 105.55 40.65 104.95 39.95 104.95 39.8 104.75 39.6 103.55 40.7 102.4 40.6 100.2 40.55 99.8 40.5 97.75 40.5 97.7 40.2 96.6 39.95 96.05 Q42.05 94.05 44.7 94.05 L45.9 94.95 Q46.95 95.85 47.5 95.85 48.4 95.85 49.3 94.3 L51.5 90.55 Q52.4 91.05 52.65 92.7 L52.95 92.0 Q53.1 91.75 53.85 91.75 54.35 91.75 55.65 92.8 56.95 93.75 58.25 93.75 L60.5 91.65 61.05 91.1 M64.25 91.65 L74.95 94.2 75.05 94.25 Q73.45 96.25 72.35 96.9 L70.35 99.1 69.6 98.95 Q69.35 98.75 69.35 97.7 69.35 97.5 70.45 96.0 L70.25 95.95 67.4 97.6 66.35 94.45 64.25 91.75 64.25 91.65 M79.0 94.65 L77.35 96.55 76.6 96.1 Q76.35 95.8 76.35 94.7 L76.35 94.4 77.05 94.5 77.15 94.15 79.0 94.65" fill="#272121" fill-rule="evenodd" stroke="none"/>
    <path d="M84.6 96.4 L89.3 97.1 89.35 97.9 Q89.35 99.25 88.65 100.4 87.85 101.7 86.85 101.7 84.8 101.7 84.4 100.3 L84.35 98.7 Q84.35 97.3 84.6 96.4 M63.1 101.15 Q65.6 101.55 65.6 104.35 L65.55 105.1 64.9 106.85 Q64.1 108.15 63.1 108.15 61.05 108.15 60.65 106.75 L60.6 105.15 Q60.6 103.0 61.2 102.0 61.8 100.9 63.1 101.15" fill="#333333" fill-rule="evenodd" stroke="none"/>
    <path d="M249.15 11.4 L249.15 11.6 Q246.9 12.35 243.0 15.75 238.25 19.95 237.15 22.9 237.05 23.35 238.85 25.95 240.95 28.85 242.85 29.5 L242.8 30.3 242.25 31.5 242.2 31.45 241.6 32.5 241.7 32.6 241.35 32.85 241.25 33.1 240.15 32.05 238.2 31.4 Q238.3 29.9 237.05 28.4 236.35 27.65 235.55 27.3 L235.5 26.35 235.25 26.25 234.9 24.3 Q234.4 21.6 234.8 20.6 235.2 19.5 236.75 17.6 L237.2 17.7 239.55 15.45 Q241.3 13.6 242.2 13.05 242.85 12.65 247.05 11.85 L249.15 11.4 M194.8 54.35 L197.4 50.3 Q200.95 44.4 208.1 39.0 L207.95 39.25 Q207.3 41.2 207.35 44.0 207.35 47.05 208.15 48.6 L209.7 50.55 210.6 51.95 211.2 53.2 211.55 53.8 Q209.6 54.0 207.45 55.15 L207.4 55.1 207.55 54.15 206.9 54.7 204.8 56.75 Q203.85 57.4 202.95 58.15 L202.8 58.9 Q199.75 57.05 195.15 54.55 L194.8 54.35 M222.25 33.8 L222.25 34.8 Q220.0 37.0 216.25 42.0 L213.1 46.3 211.55 48.5 210.3 46.65 Q209.05 43.9 210.65 39.3 211.0 38.25 212.15 37.0 L214.65 34.6 Q219.05 30.85 222.85 32.2 L223.0 32.25 Q222.55 32.95 222.25 33.8 M221.2 61.35 L221.0 63.45 220.2 67.95 Q220.15 69.05 220.45 69.75 L220.05 69.6 219.95 69.6 219.0 69.65 218.4 69.05 217.3 68.8 Q218.05 64.75 218.1 61.3 L218.05 60.1 219.95 61.0 221.2 61.35 M228.1 58.6 L228.45 58.6 228.1 58.7 228.1 58.6 M227.8 61.35 L231.2 60.9 233.95 60.3 234.1 60.25 Q236.35 60.0 236.65 59.6 L237.1 59.8 236.75 60.25 235.35 63.1 Q235.05 64.0 234.45 68.85 L234.15 73.5 233.15 72.85 232.1 72.35 232.05 72.35 231.65 72.4 230.55 71.85 226.8 70.5 227.1 67.7 227.55 63.1 227.8 61.35" fill="#8f624f" fill-rule="evenodd" stroke="none"/>
    <path d="M247.3 15.6 L246.65 17.45 246.5 18.05 245.2 19.85 Q243.75 22.05 243.15 23.65 L243.0 26.05 242.05 25.2 Q239.75 23.2 239.95 22.5 240.4 21.25 245.3 17.3 L247.3 15.6 M223.85 11.2 L224.45 11.35 224.65 11.4 225.5 11.55 225.8 11.6 226.25 11.65 226.05 12.15 225.8 12.6 223.9 14.95 Q222.25 16.55 220.4 17.9 L220.45 17.6 220.3 17.35 220.2 17.3 219.65 17.2 218.6 17.25 218.65 17.0 218.85 16.25 221.35 13.9 222.6 12.8 223.3 11.9 223.85 11.2 M228.8 16.1 Q228.4 17.75 228.4 19.7 L227.95 20.15 Q227.85 18.85 226.25 18.9 226.65 18.0 227.95 16.8 L228.8 16.1 M216.1 11.25 L217.6 10.05 Q218.05 9.7 218.5 9.5 L218.6 9.5 218.8 9.55 219.15 9.55 220.95 9.85 220.8 10.4 220.0 10.85 219.7 11.2 217.7 12.8 Q216.85 13.5 216.25 14.95 L215.35 17.5 214.15 18.45 Q213.95 17.85 213.45 17.7 L213.5 16.4 Q213.65 15.0 213.95 14.0 214.4 12.8 216.1 11.25 M208.5 9.55 Q209.2 10.25 209.5 12.1 L209.5 12.3 Q209.9 15.3 209.3 16.9 L207.6 19.65 207.2 20.25 206.15 20.0 204.6 20.95 Q204.8 20.35 205.9 18.85 L207.15 16.8 Q207.4 16.25 206.7 12.05 L206.55 11.35 206.35 10.1 207.4 9.9 208.35 9.6 208.5 9.55 M197.2 11.85 L197.35 12.05 198.4 14.3 Q199.0 16.15 198.5 17.5 L195.95 21.8 195.95 21.9 195.1 21.85 193.85 23.9 Q193.15 25.0 192.95 25.65 L192.85 25.95 191.55 25.7 Q191.4 25.55 191.7 24.8 L196.2 17.3 Q196.65 16.0 196.15 14.9 L195.5 13.9 194.35 12.5 194.45 12.45 194.8 12.45 194.9 12.4 197.2 11.85 M190.25 13.9 L190.6 13.8 Q191.35 14.75 191.5 16.35 L191.4 18.8 Q191.1 20.6 190.0 23.75 L188.15 26.7 Q187.15 28.2 187.05 29.6 187.6 31.25 187.25 32.2 L186.85 33.0 186.5 33.5 186.35 33.6 186.1 33.65 186.25 32.75 186.5 31.05 186.55 29.4 185.4 29.75 184.6 30.6 184.35 30.25 Q184.25 29.9 184.55 29.05 L184.55 29.0 Q183.75 27.45 181.8 25.3 179.7 23.0 178.9 21.2 178.45 20.1 178.45 19.2 L178.25 20.0 177.75 21.8 Q176.5 26.5 178.85 29.35 L180.75 31.55 Q181.5 32.65 181.05 34.1 L180.1 35.75 180.2 35.35 180.2 35.3 179.1 34.95 Q177.9 35.0 176.2 37.0 L176.15 37.0 Q178.7 34.15 178.9 33.5 179.05 33.15 177.0 30.6 174.9 28.05 175.15 27.25 175.35 26.65 175.15 25.4 174.9 24.2 175.05 23.65 L175.55 22.85 175.6 22.75 176.25 21.4 Q176.45 20.95 176.15 19.95 L176.15 19.9 Q176.7 19.55 177.4 19.35 L178.6 18.8 Q179.95 18.1 181.4 17.55 L180.95 19.1 180.85 20.4 Q181.05 21.8 182.5 23.15 184.4 24.85 185.7 27.0 L186.2 26.25 187.9 23.4 Q188.3 22.15 188.5 17.85 L188.55 17.5 188.65 14.5 190.0 13.95 190.25 13.9 M169.6 26.45 L170.05 25.0 Q172.3 21.65 173.3 21.5 173.65 22.35 172.9 24.35 L172.65 24.9 Q171.7 27.15 172.8 28.45 173.6 29.35 173.9 32.45 174.1 35.2 173.75 36.15 L172.85 38.65 171.6 37.35 171.25 36.95 171.5 36.15 171.85 34.0 172.2 31.7 Q172.35 31.3 171.15 30.05 169.8 28.65 169.55 27.8 169.35 27.3 169.55 26.6 L169.6 26.45 M167.85 27.55 L168.4 29.95 168.8 33.95 167.4 31.7 Q166.9 30.9 165.15 26.25 L166.7 25.15 166.75 25.25 166.85 25.3 167.85 27.55 M17.15 86.55 Q16.9 86.6 16.6 86.8 16.4 86.85 16.15 86.0 15.8 85.0 16.15 83.95 16.15 75.85 17.0 71.4 18.85 63.45 21.2 58.65 L19.2 59.55 Q19.0 59.55 18.65 59.8 L18.15 58.9 Q17.8 57.65 19.55 55.65 22.25 52.5 23.35 50.3 L23.85 49.15 24.85 45.25 27.35 38.75 27.6 37.75 Q26.75 38.45 25.75 38.75 L24.55 38.65 Q24.35 38.45 23.9 37.3 L28.0 31.85 Q28.4 30.85 29.8 29.15 L41.15 16.0 43.1 15.3 47.85 14.7 52.95 13.9 Q54.75 13.4 57.85 14.4 L57.5 14.65 55.2 16.35 54.7 16.85 53.3 18.25 Q50.8 19.15 47.65 22.85 43.8 27.3 43.0 30.3 40.8 33.15 39.15 36.4 38.7 37.35 38.45 38.8 L38.4 38.8 Q38.2 38.85 38.05 39.65 L38.25 40.45 Q37.4 42.7 36.8 45.1 36.4 45.45 36.15 46.6 L36.4 46.75 35.6 50.55 33.45 63.9 31.95 70.3 Q31.7 71.5 30.4 73.75 29.3 75.95 29.15 76.95 L29.1 77.2 28.45 77.0 28.25 77.25 28.05 78.05 Q27.95 78.65 30.4 80.6 26.75 84.6 20.7 89.6 L22.4 85.25 Q23.25 83.2 23.1 82.5 L23.0 82.3 22.45 81.45 21.6 81.4 20.2 83.05 18.45 85.1 18.2 85.75 17.2 86.5 17.15 86.55 M58.25 14.55 L58.3 14.55 58.25 14.55" fill="#231d1d" fill-rule="evenodd" stroke="none"/>
    <path d="M245.35 24.95 L245.7 23.65 246.4 22.3 248.05 24.75 249.65 26.85 249.6 26.95 249.85 27.15 250.3 27.7 252.0 30.1 Q253.1 32.0 252.75 34.05 L252.7 35.0 250.2 34.45 249.4 34.1 249.35 34.4 249.25 34.05 Q248.35 31.5 248.5 30.75 248.6 29.1 247.45 27.7 L245.6 25.25 245.35 24.95 M223.85 11.2 L223.3 11.9 223.1 11.85 220.2 11.35 220.3 11.15 219.7 11.2 220.0 10.85 220.8 10.4 220.65 10.5 223.45 11.15 223.85 11.2 M225.8 12.6 L226.05 12.15 226.25 11.65 225.8 11.6 226.95 11.75 227.9 12.15 230.35 13.15 230.15 13.35 229.8 13.7 229.75 13.8 229.5 14.2 226.1 12.7 225.8 12.6 M218.6 9.5 L218.5 9.5 Q218.05 9.7 217.6 10.05 L216.1 11.25 211.6 11.75 209.5 12.1 Q209.2 10.25 208.5 9.55 L216.55 9.15 218.6 9.5 M206.35 10.1 L206.55 11.35 206.7 12.05 206.7 12.5 201.4 13.75 198.4 14.3 197.35 12.05 197.2 11.85 200.4 11.3 205.6 10.25 206.35 10.1 M191.5 16.35 Q191.35 14.75 190.6 13.8 L190.25 13.9 194.35 12.5 195.5 13.9 196.15 14.9 191.5 16.35 M188.65 14.5 L188.55 17.5 181.15 20.3 180.85 20.4 180.95 19.1 181.4 17.55 Q183.2 16.65 185.1 15.85 L188.65 14.5 M176.15 19.95 Q176.45 20.95 176.25 21.4 L175.6 22.75 175.55 22.85 175.5 22.85 172.9 24.35 Q173.65 22.35 173.3 21.5 172.3 21.65 170.05 25.0 L169.6 26.45 167.85 27.55 166.85 25.3 166.75 25.25 166.7 25.15 167.05 24.95 176.15 19.95 M177.75 21.8 L178.25 20.0 178.45 19.2 Q178.45 20.1 178.9 21.2 178.35 21.45 177.75 21.8" fill="#605151" fill-rule="evenodd" stroke="none"/>
    <path d="M255.9 23.85 Q259.35 23.15 260.75 23.75 L257.25 29.05 255.25 31.95 Q254.95 30.5 254.0 28.9 252.9 26.8 251.2 25.05 L255.9 23.85 M211.1 24.25 L210.05 26.2 Q209.5 27.3 209.5 28.0 L210.6 28.3 Q212.4 27.3 214.45 25.2 L214.7 25.45 215.1 25.55 218.2 24.1 219.6 23.3 Q221.35 22.35 222.75 21.85 L224.2 21.5 225.0 21.45 225.05 21.75 224.35 22.9 223.95 23.5 223.95 23.65 221.95 23.85 Q220.15 24.2 218.2 25.3 213.15 28.15 211.75 32.15 211.25 33.5 211.7 34.2 L208.8 37.65 208.1 39.0 Q200.95 44.4 197.4 50.3 L194.8 54.35 Q185.25 49.25 179.55 44.8 L179.9 44.5 Q182.0 42.75 182.75 41.5 L182.85 42.2 183.8 42.85 Q185.3 43.35 189.1 38.65 L193.25 33.0 193.55 33.15 Q193.6 33.85 194.3 34.1 L195.05 34.35 194.95 34.2 Q195.8 33.75 196.9 31.95 L198.3 29.3 Q198.75 28.65 200.45 27.15 L202.75 25.0 202.85 25.8 Q201.7 27.45 201.3 28.25 200.6 29.75 201.3 31.25 204.3 30.8 207.1 28.2 208.75 26.7 210.7 24.0 L211.1 24.25 M214.75 31.75 L214.95 31.8 214.65 32.15 214.75 31.75 M218.05 60.1 L218.05 59.9 218.0 58.5 217.85 57.9 217.85 57.75 Q217.45 56.6 216.65 56.65 L216.25 56.0 216.6 55.6 215.65 54.8 222.55 46.25 222.6 46.25 222.25 50.95 221.9 57.35 Q221.7 57.8 221.65 58.5 L221.2 61.35 219.95 61.0 218.05 60.1 M176.1 41.15 L176.45 41.5 176.45 42.05 175.75 41.4 175.8 41.25 176.05 41.1 176.1 41.15 M162.5 67.35 L162.15 67.3 162.5 67.3 162.5 67.35 M161.15 72.25 L161.35 72.05 161.3 72.3 161.15 72.25 M228.1 58.6 Q228.4 55.6 228.65 54.35 230.65 56.55 233.25 57.75 L234.4 58.3 234.85 58.35 235.4 58.35 Q237.0 58.55 236.65 59.55 L236.65 59.6 Q236.35 60.0 234.1 60.25 L233.95 60.3 231.2 60.9 227.8 61.35 227.95 59.95 228.05 58.7 228.1 58.7 228.45 58.6 228.1 58.6" fill="#6c4a3c" fill-rule="evenodd" stroke="none"/>
    <path d="M245.35 24.95 L245.6 25.25 247.45 27.7 Q248.6 29.1 248.5 30.75 248.35 31.5 249.25 34.05 L249.35 34.4 249.35 34.45 Q247.45 33.15 244.6 34.4 L244.15 34.0 243.3 33.9 243.65 33.35 244.15 33.25 244.4 33.3 244.8 32.6 Q245.6 30.4 245.35 27.95 245.2 26.25 245.35 24.95 M223.3 11.9 L222.6 12.8 221.35 13.9 218.85 16.25 218.65 17.0 218.6 17.25 218.55 17.3 216.65 20.05 216.65 20.1 215.65 21.5 214.9 22.5 214.65 22.75 214.6 22.85 214.45 22.9 213.8 23.35 213.55 23.2 213.6 22.95 213.9 22.65 213.8 22.55 213.85 22.25 213.8 22.3 214.2 20.5 Q214.4 19.2 214.15 18.45 L215.35 17.5 216.25 14.95 Q216.85 13.5 217.7 12.8 L219.7 11.2 220.3 11.15 220.2 11.35 223.1 11.85 223.3 11.9 M220.4 17.9 Q222.25 16.55 223.9 14.95 L225.8 12.6 226.1 12.7 229.5 14.2 229.15 15.1 228.8 16.1 227.95 16.8 Q226.65 18.0 226.25 18.9 L225.85 18.85 Q224.15 19.0 220.0 20.5 L219.75 20.6 219.6 20.3 219.65 20.1 220.1 19.3 Q220.45 18.45 220.4 17.9 M228.4 19.7 L228.45 20.45 227.95 20.5 227.95 20.15 228.4 19.7 M209.5 12.1 L211.6 11.75 216.1 11.25 Q214.4 12.8 213.95 14.0 213.65 15.0 213.5 16.4 L213.45 17.7 213.4 17.65 Q212.25 17.25 212.25 17.65 L208.7 23.35 Q206.45 26.65 204.25 27.8 204.4 26.65 204.9 25.25 205.1 24.6 206.05 23.25 L207.2 21.25 207.45 20.5 207.35 20.25 207.2 20.25 207.6 19.65 209.3 16.9 Q209.9 15.3 209.5 12.3 L209.5 12.1 M206.7 12.05 Q207.4 16.25 207.15 16.8 L205.9 18.85 Q204.8 20.35 204.6 20.95 L200.15 24.4 Q197.0 27.35 195.75 29.6 L195.35 27.7 Q195.25 26.95 195.6 26.15 195.95 24.9 196.8 24.15 197.2 23.3 196.4 21.95 L195.95 21.9 195.95 21.8 198.5 17.5 Q199.0 16.15 198.4 14.3 L201.4 13.75 206.7 12.5 206.7 12.05 M188.55 17.5 L188.5 17.85 Q188.3 22.15 187.9 23.4 L186.2 26.25 185.7 27.0 Q184.4 24.85 182.5 23.15 181.05 21.8 180.85 20.4 L181.15 20.3 188.55 17.5 M175.55 22.85 L175.05 23.65 Q174.9 24.2 175.15 25.4 175.35 26.65 175.15 27.25 174.9 28.05 177.0 30.6 179.05 33.15 178.9 33.5 178.7 34.15 176.15 37.0 L176.2 37.0 174.65 39.1 174.15 39.95 172.85 38.65 173.75 36.15 Q174.1 35.2 173.9 32.45 173.6 29.35 172.8 28.45 171.7 27.15 172.65 24.9 L172.9 24.35 175.5 22.85 175.55 22.85 M180.2 35.35 L180.1 35.75 181.05 34.1 Q181.5 32.65 180.75 31.55 L178.85 29.35 Q176.5 26.5 177.75 21.8 178.35 21.45 178.9 21.2 179.7 23.0 181.8 25.3 183.75 27.45 184.55 29.0 L184.55 29.05 Q184.25 29.9 184.35 30.25 L184.6 30.6 184.4 31.15 183.95 35.45 181.9 39.35 Q180.6 41.65 178.65 42.75 L178.35 41.05 Q178.3 39.85 178.65 38.9 L179.5 37.1 180.2 35.35 M186.1 33.65 L186.35 33.6 186.5 33.5 186.85 33.0 187.25 32.2 Q187.6 31.25 187.05 29.6 187.15 28.2 188.15 26.7 L190.0 23.75 Q191.1 20.6 191.4 18.8 L191.5 16.35 196.15 14.9 Q196.65 16.0 196.2 17.3 L191.7 24.8 Q191.4 25.55 191.55 25.7 L192.85 25.95 192.7 28.0 192.5 30.2 Q191.8 32.15 185.75 38.95 185.85 37.85 186.45 35.7 L185.9 35.4 186.1 33.65 M169.6 26.45 L169.55 26.6 Q169.35 27.3 169.55 27.8 169.8 28.65 171.15 30.05 172.35 31.3 172.2 31.7 L171.85 34.0 171.5 36.15 171.25 36.95 Q169.9 35.55 168.8 33.95 L168.4 29.95 167.85 27.55 169.6 26.45 M57.85 14.4 Q54.75 13.4 52.95 13.9 L47.85 14.7 43.1 15.3 41.15 16.0 29.8 29.15 Q28.4 30.85 28.0 31.85 L23.9 37.3 Q24.35 38.45 24.55 38.65 L25.75 38.75 Q26.75 38.45 27.6 37.75 L27.35 38.75 24.85 45.25 23.85 49.15 23.35 50.3 Q22.25 52.5 19.55 55.65 17.8 57.65 18.15 58.9 L18.65 59.8 Q19.0 59.55 19.2 59.55 L21.2 58.65 Q18.85 63.45 17.0 71.4 16.15 75.85 16.15 83.95 15.8 85.0 16.15 86.0 16.4 86.85 16.6 86.8 16.9 86.6 17.15 86.55 13.4 90.5 10.85 91.9 L7.95 93.05 Q6.25 93.75 4.7 94.95 9.2 89.3 10.25 85.6 10.8 81.7 11.3 79.4 11.75 77.85 11.6 75.55 11.5 73.4 11.8 72.5 12.4 70.5 14.3 67.0 L15.1 65.1 Q15.45 64.35 15.1 63.25 14.85 62.45 14.6 62.4 L14.0 62.45 14.0 62.5 Q12.9 63.3 9.8 64.9 L9.75 64.9 Q13.6 60.95 17.4 53.3 20.3 47.6 20.75 45.5 L21.3 45.2 21.85 44.8 21.5 43.55 18.85 43.6 16.25 44.05 Q19.4 41.4 21.8 35.95 L24.7 28.5 Q27.3 22.45 35.5 16.3 41.55 11.8 44.6 10.85 49.4 9.35 55.8 11.9 58.05 12.8 59.65 13.85 58.9 14.2 58.3 14.55 L58.25 14.55 58.65 13.85 57.85 14.4" fill="#332b2b" fill-rule="evenodd" stroke="none"/>
    <path d="M237.5 48.5 L237.25 48.0 237.25 46.75 237.2 46.65 237.3 46.1 237.3 46.05 237.9 44.05 Q238.2 43.15 239.8 40.85 241.35 38.35 241.85 38.2 242.45 37.9 244.35 37.35 L245.05 37.55 245.3 37.05 247.8 36.35 248.15 37.0 248.95 39.2 250.35 39.25 Q246.8 38.9 244.15 41.6 242.25 43.7 240.6 48.0 L240.5 48.0 Q239.0 47.95 237.5 48.5 M251.05 36.75 L251.1 36.75 Q251.9 37.2 252.25 38.3 252.55 38.75 252.55 39.7 L251.85 39.5 251.15 37.3 251.05 36.75 M249.05 40.95 L249.0 42.55 248.9 44.15 247.75 45.0 Q246.85 45.95 246.0 48.1 L245.0 48.1 242.8 48.15 242.9 47.95 244.85 43.75 Q246.8 40.8 249.05 40.95 M251.8 44.2 Q251.75 43.45 251.85 43.0 L252.0 42.15 252.55 42.15 252.65 41.95 252.75 44.7 251.8 44.2 M248.15 48.1 L248.6 47.2 Q249.15 46.2 249.95 46.45 L252.5 47.55 252.3 48.55 252.1 48.45 Q250.75 47.65 248.15 48.1 M230.05 28.15 L231.55 28.2 Q234.35 29.15 235.15 30.65 235.55 31.45 235.2 32.4 234.5 34.1 233.4 35.6 231.35 38.4 229.4 37.7 L227.9 37.1 227.65 37.0 Q227.35 36.35 226.4 36.35 L226.25 36.35 226.2 36.15 Q225.85 36.15 225.6 35.8 L225.55 35.9 224.85 35.15 224.7 34.1 225.45 32.9 225.5 32.9 225.55 32.7 226.8 30.6 Q227.5 29.55 228.35 29.0 L228.4 29.0 228.4 29.1 Q228.1 29.95 228.4 30.15 L229.95 30.75 230.05 30.8 Q228.7 31.15 228.15 32.7 227.9 33.4 227.95 33.95 228.05 35.1 229.4 35.6 230.35 35.9 231.35 34.9 232.15 34.05 232.6 32.8 233.25 30.9 231.75 30.7 L232.3 30.2 232.35 29.3 Q231.5 28.15 230.1 28.15 L230.05 28.15 M164.1 73.85 Q163.05 72.95 163.2 71.95 163.4 70.5 164.15 69.0 165.4 66.4 167.25 66.65 170.0 67.05 171.8 68.75 173.45 70.3 173.25 71.8 170.9 75.85 169.15 75.55 165.6 75.05 164.1 73.85 M165.25 71.25 L165.05 72.4 Q165.35 73.55 167.65 73.9 168.95 74.1 169.5 73.1 L169.9 71.55 Q170.35 68.75 168.0 68.4 165.7 68.05 165.25 71.25 M203.4 91.65 L203.45 91.65 203.3 92.45 203.15 93.1 203.2 93.2 203.1 93.9 202.15 93.9 195.65 92.95 195.65 94.1 195.65 95.95 194.75 99.65 194.15 99.95 194.35 100.65 Q193.8 101.1 191.85 101.4 L190.05 101.5 189.5 101.5 184.65 100.75 184.6 100.95 183.85 101.15 Q182.85 100.5 182.7 98.8 L182.6 95.95 182.4 92.15 180.5 92.65 174.9 91.8 174.85 91.95 174.15 95.05 173.35 98.25 173.3 99.05 Q173.2 99.45 172.4 99.6 L164.75 99.25 160.9 98.65 160.75 98.5 Q160.6 98.35 160.7 97.6 L160.75 97.5 160.8 97.4 160.25 97.25 161.15 89.15 161.2 88.55 155.1 86.8 152.35 85.95 150.5 93.9 150.4 94.15 150.25 94.2 150.2 94.25 150.2 94.45 149.85 95.5 149.55 95.65 146.45 95.45 146.05 95.4 143.45 95.3 143.8 92.85 148.35 93.2 148.45 92.9 Q148.8 90.3 149.65 87.7 150.1 86.1 150.65 85.2 L150.6 85.1 150.75 84.95 Q151.25 84.0 151.75 83.8 L152.35 84.15 154.75 84.3 162.95 86.4 162.95 86.5 163.95 86.8 164.1 87.0 164.15 87.85 Q164.05 88.55 163.55 88.6 163.05 88.7 162.95 89.35 162.35 93.35 162.7 96.65 L165.05 96.85 171.7 97.75 171.7 96.25 Q171.9 94.55 172.9 92.2 L173.2 91.4 173.3 90.5 Q173.35 90.0 173.85 89.9 L174.05 89.75 174.4 89.05 174.75 89.8 180.65 90.3 182.35 90.25 184.7 90.1 184.9 90.3 184.95 91.2 184.85 91.45 184.5 94.1 185.0 95.7 185.5 97.25 185.2 98.7 190.65 99.25 192.15 99.35 193.05 99.4 193.05 99.0 Q193.7 94.55 194.7 92.8 L194.55 92.75 194.4 92.6 Q194.25 92.5 194.4 91.7 L194.55 90.95 194.85 90.6 199.55 91.2 203.4 91.65 M203.2 104.7 Q203.8 108.15 205.15 111.25 201.35 110.6 199.9 111.2 L199.9 111.35 195.3 111.55 187.9 112.05 Q154.25 108.2 143.45 105.95 L143.3 105.9 143.3 106.0 130.7 103.6 133.8 101.45 137.9 99.6 137.95 99.8 138.7 99.1 140.0 98.1 140.15 98.05 144.4 98.8 Q145.45 98.95 146.35 99.25 L146.55 99.3 148.4 99.7 148.6 99.8 148.65 99.8 Q149.65 100.0 150.25 100.3 L150.3 100.3 150.85 100.45 150.9 100.5 153.3 101.2 154.6 101.5 155.05 101.55 155.1 101.65 156.7 101.9 175.3 105.15 175.7 105.15 176.35 105.3 177.9 105.5 178.65 105.7 178.9 105.65 180.65 105.95 182.2 106.2 182.8 106.3 182.9 106.35 183.05 106.3 185.0 106.4 186.0 106.3 186.75 106.3 187.0 106.25 188.15 106.15 191.2 105.85 200.0 104.8 203.2 104.7 M140.95 49.9 L142.6 48.85 Q144.7 47.0 145.25 43.45 L145.45 37.55 145.45 37.15 145.45 37.05 145.45 36.45 145.45 35.75 145.5 33.75 145.6 31.95 146.3 27.75 146.85 26.05 148.85 26.7 149.2 26.85 149.4 27.35 149.75 28.1 Q149.3 29.35 149.0 31.35 L148.65 36.0 148.25 39.05 147.6 45.1 146.9 52.1 146.5 53.1 146.5 53.3 146.45 53.45 146.55 54.0 146.7 54.1 146.45 57.75 146.15 61.65 Q145.8 61.8 145.65 62.5 145.55 63.25 145.7 63.4 L145.85 63.55 145.9 63.55 145.45 68.5 145.2 68.6 145.0 70.35 145.25 70.35 144.75 74.55 144.0 79.7 143.65 81.2 143.85 81.35 Q143.5 82.15 143.25 83.45 L142.7 87.25 142.6 88.0 142.5 88.6 142.25 90.25 142.25 90.35 142.0 92.0 142.0 92.05 141.85 93.2 141.7 93.8 141.65 94.25 141.6 94.55 141.55 94.8 141.5 95.25 Q140.95 95.45 140.45 95.8 L140.15 95.95 139.6 96.3 135.55 98.5 Q135.35 98.5 135.25 98.65 L134.75 98.9 134.0 99.1 133.3 99.45 133.4 99.6 133.2 99.7 129.6 101.6 126.95 103.05 Q125.7 103.05 125.6 103.85 L125.55 103.85 124.45 104.5 Q119.0 107.55 114.9 110.15 L114.45 110.45 113.1 111.35 112.85 111.45 111.25 112.55 111.25 112.6 109.65 113.7 109.0 114.1 108.75 113.95 108.55 113.7 108.5 113.7 107.7 112.95 105.15 110.15 104.75 109.7 104.7 109.6 101.85 106.0 95.25 97.25 95.2 97.2 95.15 97.2 94.95 96.9 94.9 96.7 90.3 91.45 89.4 90.5 89.1 90.3 89.0 90.05 87.95 89.1 87.5 88.65 87.4 88.55 86.4 87.6 86.65 87.45 86.45 87.05 86.25 87.4 83.5 84.9 82.2 83.5 82.15 83.5 81.95 83.35 81.9 83.3 81.75 83.05 81.5 82.9 81.6 82.3 82.15 78.35 82.15 78.3 82.2 77.65 82.3 77.4 82.8 75.05 82.95 73.9 83.1 72.0 83.55 72.0 Q83.8 66.7 85.05 58.85 L85.95 50.5 86.35 44.9 88.4 33.65 Q89.5 33.25 90.75 32.8 L92.2 32.2 91.9 33.2 Q91.6 35.1 92.9 37.1 L93.05 37.25 93.25 37.45 92.45 42.05 91.55 48.1 91.55 48.25 91.3 49.65 90.15 57.05 Q88.9 64.75 87.4 78.65 L88.7 80.3 Q95.5 87.95 97.65 90.85 L105.9 100.5 109.7 105.5 112.0 104.3 113.8 103.0 114.8 102.3 125.3 95.9 136.35 88.6 137.25 82.55 Q137.55 78.7 138.5 72.9 L138.75 71.55 139.65 62.55 140.9 50.05 140.95 49.9 M102.3 71.85 L103.95 70.4 106.35 68.3 106.95 67.75 106.95 67.7 110.3 69.9 104.35 75.45 108.5 82.65 104.45 83.6 101.8 79.45 101.2 78.4 96.75 82.45 93.2 80.35 96.6 76.9 98.7 74.95 99.1 74.65 98.8 74.25 97.1 71.05 96.9 70.6 96.85 70.5 95.15 67.45 99.15 66.45 102.25 71.8 102.25 71.85 102.3 71.85 M116.25 68.55 L117.2 68.7 114.65 85.15 110.25 84.55 110.7 80.2 112.2 71.75 112.5 69.8 112.8 67.95 114.85 68.25 116.25 68.55 M39.95 68.0 L42.65 69.35 42.85 69.5 Q42.8 68.75 42.9 68.0 L43.55 64.35 Q44.4 61.7 46.2 62.1 46.6 61.7 46.6 62.4 L52.5 63.85 Q54.2 64.25 55.3 64.95 L55.9 65.4 56.7 64.45 56.95 64.8 Q57.35 65.4 57.3 66.35 L57.3 66.6 57.1 67.8 56.4 71.05 56.2 72.0 55.6 74.9 55.75 74.95 56.85 75.35 58.6 75.95 62.5 77.2 65.65 77.55 65.65 76.8 Q66.2 73.75 66.85 71.25 L67.5 69.1 66.95 68.4 67.1 67.25 68.15 67.6 68.65 66.9 69.05 67.9 71.25 68.65 Q74.8 69.95 79.05 71.1 L80.3 71.4 80.4 71.4 80.45 71.45 80.85 71.7 80.9 71.7 Q80.75 71.8 80.75 72.1 L80.7 72.15 80.8 72.15 81.0 72.15 81.1 72.05 81.05 72.75 81.0 72.8 81.0 72.95 80.75 74.4 80.65 74.8 80.35 76.25 79.8 78.6 79.55 79.9 79.6 79.9 79.9 80.1 79.65 82.05 77.55 81.7 77.35 81.25 77.3 80.55 77.4 80.5 Q78.1 76.3 78.9 73.95 L79.15 73.25 78.85 73.25 77.4 73.05 Q74.35 72.6 70.7 70.9 L69.1 70.05 68.85 71.85 67.15 79.0 66.25 79.3 66.1 79.05 65.95 79.5 65.05 79.55 62.45 79.15 62.3 79.2 60.45 79.0 57.9 78.15 57.3 77.9 55.35 77.25 53.3 76.8 53.2 76.6 Q53.0 76.3 53.15 75.5 L53.35 74.65 53.55 74.3 53.9 74.35 53.85 74.15 54.1 72.4 54.8 68.0 55.05 67.35 50.85 66.1 Q48.1 65.15 46.05 64.55 L45.55 66.25 Q44.6 69.0 44.35 70.6 L44.2 71.3 Q44.05 71.65 43.3 71.5 L43.15 71.5 43.05 71.5 42.95 71.45 42.85 71.45 40.75 70.8 39.6 70.25 39.6 70.3 39.15 70.05 38.5 69.7 Q37.65 69.15 36.7 68.85 L34.7 68.35 34.95 67.3 35.1 66.55 35.2 66.1 36.7 66.5 37.3 66.75 39.65 67.85 39.95 68.0 M82.65 87.4 L84.65 89.6 86.25 91.2 89.95 94.95 83.85 93.7 81.2 93.1 80.25 92.9 78.2 92.45 77.45 92.35 76.5 92.2 64.0 89.35 63.55 89.25 57.25 87.75 Q43.45 84.4 35.95 81.95 L35.25 81.4 31.9 78.85 31.2 78.35 30.3 77.8 32.05 75.2 33.05 73.1 35.05 73.95 38.0 75.15 38.8 75.45 38.9 75.5 39.45 75.7 39.75 75.85 40.0 75.95 48.4 78.9 50.05 79.4 52.25 80.1 55.2 81.1 58.45 82.05 67.45 84.5 74.05 86.1 80.5 87.15 81.3 87.25 81.9 87.3 82.65 87.4 M125.25 69.9 L122.65 86.45 118.25 85.75 118.7 81.4 120.85 69.2 124.6 69.85 125.25 69.9 M132.5 71.05 L129.95 87.55 125.6 86.9 126.0 82.55 128.15 70.35 132.5 71.05" fill="#cc9d3c" fill-rule="evenodd" stroke="none"/>
    <path d="M250.35 39.25 L248.95 39.2 248.15 37.0 247.8 36.35 248.85 36.05 249.05 36.55 250.65 36.45 251.05 36.7 251.05 36.75 251.15 37.3 251.85 39.5 250.35 39.25 M248.9 44.15 L249.0 42.55 249.05 40.95 250.25 41.2 250.35 41.25 250.6 41.3 250.6 41.45 251.5 41.95 251.85 42.1 252.0 42.15 251.85 43.0 Q251.75 43.45 251.8 44.2 L251.4 44.1 248.9 44.15 M228.4 29.0 Q228.65 28.3 229.7 28.2 L229.8 28.2 229.9 28.2 230.05 28.15 230.1 28.15 Q231.5 28.15 232.35 29.3 L232.3 30.2 231.75 30.7 230.05 30.8 229.95 30.75 228.4 30.15 Q228.1 29.95 228.4 29.1 L228.4 29.0" fill="#e7d0a0" fill-rule="evenodd" stroke="none"/>
    <path d="M237.5 48.5 Q239.0 47.95 240.5 48.0 L240.5 48.3 Q239.95 49.9 241.45 52.35 243.0 54.6 245.55 55.8 L245.05 56.15 245.0 56.05 244.95 56.0 244.0 56.7 243.8 56.7 Q239.95 54.3 238.55 52.25 237.55 50.75 237.3 49.15 L237.6 48.7 237.5 48.5 M242.8 48.15 L245.0 48.1 246.0 48.1 245.9 48.3 245.75 48.75 Q245.45 49.65 246.15 50.85 247.1 52.35 249.25 53.1 L249.25 53.45 248.4 53.4 248.3 53.35 248.4 53.45 246.9 54.75 243.5 51.2 Q242.3 49.85 242.8 48.15 M248.15 48.1 Q250.75 47.65 252.1 48.45 L252.3 48.55 252.3 48.6 252.1 49.25 250.75 51.2 250.35 51.55 249.1 50.55 Q247.65 49.45 247.8 49.0 L248.15 48.1" fill="#8e6c24" fill-rule="evenodd" stroke="none"/>
    <path d="M240.5 48.0 L240.6 48.0 240.5 48.3 240.5 48.0 M249.25 53.1 L249.55 53.25 249.4 53.35 249.3 53.4 249.25 53.1 M231.75 30.7 Q233.25 30.9 232.6 32.8 232.15 34.05 231.35 34.9 230.35 35.9 229.4 35.6 228.05 35.1 227.95 33.95 227.9 33.4 228.15 32.7 228.7 31.15 230.05 30.8 L231.75 30.7 M165.25 71.25 Q165.7 68.05 168.0 68.4 170.35 68.75 169.9 71.55 L169.5 73.1 Q168.95 74.1 167.65 73.9 165.35 73.55 165.05 72.4 L165.25 71.25" fill="#473612" fill-rule="evenodd" stroke="none"/>
    <path d="M248.4 53.4 L248.4 53.45 248.3 53.35 248.4 53.4" fill="#70551d" fill-rule="evenodd" stroke="none"/>
    <path d="M249.25 53.1 L249.3 53.4 249.25 53.45 249.25 53.1" fill="#987427" fill-rule="evenodd" stroke="none"/>
    <path d="M231.75 15.15 Q231.9 14.65 232.4 14.05 L232.45 13.8 234.05 14.6 235.45 15.35 Q232.75 18.8 232.3 20.05 231.9 21.25 231.95 24.1 L232.25 26.4 230.25 26.35 Q231.05 23.5 231.35 19.95 L231.75 15.15 M227.65 27.0 Q225.35 28.1 223.85 30.55 220.35 28.7 215.5 31.55 L214.95 31.8 214.75 31.75 Q215.3 30.4 216.1 29.4 217.0 28.25 218.15 27.65 221.45 25.65 227.65 26.85 L227.65 27.0 M221.55 38.85 L221.65 38.95 Q222.5 37.75 224.05 37.7 225.45 37.5 225.8 38.35 222.5 41.65 214.55 53.2 L212.95 50.75 212.7 50.35 214.5 48.15 218.65 42.75 221.55 38.85 M238.4 34.4 Q239.2 35.3 241.45 36.25 237.0 39.5 235.65 43.4 L235.4 44.35 234.45 42.3 Q233.6 40.65 232.15 39.85 L234.75 37.45 Q236.75 35.1 237.7 33.1 L238.4 34.4 M226.2 41.55 L227.25 40.25 227.75 40.45 227.8 40.65 227.6 41.0 227.2 43.8 226.65 44.6 226.95 45.1 226.95 45.15 226.5 51.1 226.45 51.15 226.5 51.25 226.45 51.95 225.2 62.85 Q224.95 63.45 225.05 64.7 L224.95 66.45 224.15 69.8 224.15 69.85 223.5 69.75 223.35 67.3 Q223.15 64.4 223.55 62.25 L224.7 55.35 225.2 48.15 Q225.2 47.0 225.95 44.4 226.4 42.7 226.2 41.55 M162.65 26.95 L163.0 27.7 164.1 29.85 164.3 30.2 Q165.25 31.8 166.55 33.6 L167.5 34.9 168.65 36.45 170.5 38.8 172.0 40.65 173.1 41.8 174.9 43.6 175.6 44.2 176.35 44.8 177.8 45.9 Q184.25 50.6 193.5 56.25 L201.5 61.0 201.55 61.05 201.45 61.15 201.3 64.15 200.4 63.3 197.05 60.85 186.15 55.5 Q182.25 53.6 178.8 50.55 L173.75 46.2 173.05 45.65 171.75 44.65 171.2 44.25 168.95 42.15 167.55 40.65 166.9 39.9 166.75 39.7 165.9 38.65 165.55 38.2 Q164.25 36.4 163.4 34.6 L163.25 34.25 161.4 29.7 161.1 29.1 160.45 27.7 160.1 27.95 159.8 27.2 158.85 25.55 158.4 24.8 160.7 23.5 161.7 25.55 162.65 26.95 M151.5 31.8 L152.5 34.45 153.9 37.7 154.2 38.4 154.25 38.5 156.2 42.7 157.75 45.95 158.05 46.6 158.5 47.7 159.6 49.95 161.55 53.45 162.75 55.5 164.1 57.75 168.4 64.35 166.75 64.15 165.45 63.85 165.6 64.05 164.55 64.95 160.75 58.6 158.6 54.9 156.45 50.8 Q155.95 49.7 154.25 47.2 L154.05 46.95 151.85 43.4 150.55 39.25 150.35 38.6 150.4 38.05 151.35 32.0 151.5 31.8 M162.15 67.3 L162.5 67.35 161.9 69.6 161.4 71.5 Q161.55 70.7 161.35 70.6 L161.15 70.35 154.75 69.3 151.3 68.8 147.3 68.4 147.65 64.05 149.4 64.5 152.25 65.15 155.45 65.8 162.05 67.25 162.15 67.3 M175.05 70.45 L180.1 73.35 183.3 74.7 Q187.65 76.3 193.3 77.4 L195.1 77.7 196.7 77.95 199.75 78.3 199.5 79.9 Q198.65 82.4 198.3 83.95 196.45 83.0 192.2 81.75 L190.2 81.15 186.6 80.2 Q185.45 79.9 185.35 79.6 L184.85 79.1 181.25 78.25 172.1 76.85 172.95 75.85 Q174.8 73.75 175.0 72.25 L175.05 70.45 M200.5 86.65 L200.05 86.45 202.65 71.7 203.5 65.05 Q203.6 63.55 203.35 62.55 L203.2 62.0 203.55 62.2 206.8 64.0 207.35 64.05 Q207.9 65.6 207.85 67.65 L207.15 73.15 205.2 86.0 205.0 87.25 200.5 86.65 M234.15 73.5 L234.2 73.85 233.1 73.15 233.15 72.85 234.15 73.5 M238.4 60.8 L238.85 58.8 240.1 58.75 241.2 58.75 240.35 59.9 240.85 59.55 Q241.05 59.2 241.5 59.25 L241.55 59.3 241.75 59.3 242.05 60.25 242.0 60.45 242.3 60.45 242.0 61.0 Q241.2 62.8 240.75 64.8 L239.25 70.55 238.25 74.75 236.1 74.05 236.1 74.0 236.15 71.95 Q236.05 70.2 236.25 69.6 L237.0 66.3 237.7 62.85 238.3 61.1 238.4 60.8 M240.0 60.6 L240.1 60.35 240.2 60.05 239.85 60.7 240.0 60.6 M214.7 73.85 L216.4 71.0 Q216.9 71.45 217.6 71.7 L219.3 72.0 221.55 72.15 223.1 72.3 223.75 72.4 Q224.4 72.0 225.7 72.4 226.8 72.75 227.1 73.4 L231.9 74.9 234.0 75.2 234.05 75.45 Q234.25 75.5 234.45 75.7 L234.9 75.9 235.7 76.25 236.9 76.95 237.55 77.2 236.95 79.35 236.05 78.65 235.85 78.6 235.45 78.55 235.3 78.4 234.35 78.25 234.3 78.2 234.35 77.85 233.7 77.4 233.65 77.45 Q232.05 76.7 229.35 76.0 L226.1 75.4 Q225.55 75.65 224.8 75.4 L223.95 74.95 222.55 74.65 217.7 73.65 214.8 73.95 214.7 73.85 M96.9 15.85 L97.1 15.35 97.65 16.05 99.3 17.5 Q101.3 18.8 102.65 19.3 L103.95 19.55 105.75 20.25 113.65 21.8 128.25 24.45 Q138.55 26.05 143.15 21.85 L144.85 20.4 144.3 20.15 144.95 19.3 Q146.3 17.35 147.95 17.35 L148.15 18.05 147.85 19.9 Q144.8 20.0 143.25 25.0 142.35 27.55 141.45 34.25 L140.2 42.2 Q139.8 44.8 136.05 46.3 133.9 47.15 132.85 47.95 L132.8 47.95 Q132.65 47.95 132.6 48.05 L132.5 48.1 132.25 48.0 131.2 48.85 Q130.55 49.6 130.45 50.25 L130.25 51.1 130.2 51.55 130.05 52.0 Q129.6 55.45 129.3 60.15 L129.1 61.25 114.15 59.25 104.2 58.25 104.9 53.6 Q105.15 51.8 106.2 48.3 L107.25 44.35 107.25 42.95 107.05 42.7 107.15 42.15 Q107.45 40.15 103.7 38.6 L98.65 36.1 96.2 34.0 95.75 33.7 Q96.65 32.85 97.15 31.4 97.6 30.2 98.1 26.6 98.8 22.15 97.15 17.55 L96.9 15.85 M134.65 49.85 L133.85 50.15 133.85 50.0 134.65 49.85 M96.15 20.85 L96.5 22.05 96.1 22.05 96.15 20.85 M95.95 25.55 L96.15 25.55 95.75 26.35 95.95 25.55 M83.9 53.0 L82.85 52.55 80.4 52.9 79.5 53.1 78.15 53.45 76.6 54.1 Q73.95 55.3 66.1 55.05 L64.05 54.7 61.1 54.05 56.75 53.05 53.8 52.3 48.5 50.6 43.8 48.1 42.85 47.55 41.0 46.75 38.75 45.85 39.75 42.0 41.05 42.85 Q46.35 45.85 61.5 49.9 L64.35 50.65 65.1 50.75 Q70.8 51.5 77.45 50.45 L78.1 50.35 78.95 50.2 Q82.75 49.55 84.15 48.9 L84.15 50.25 84.0 52.95 83.9 53.0" fill="#221c15" fill-rule="evenodd" stroke="none"/>
    <path d="M228.45 20.45 L228.5 20.95 228.15 25.2 Q227.1 24.5 226.0 24.15 L226.15 23.9 227.65 21.8 227.95 20.5 228.45 20.45" fill="#493d3d" fill-rule="evenodd" stroke="none"/>
    <path d="M230.0 45.75 L230.75 45.55 232.8 48.5 Q234.25 47.35 235.0 47.0 L235.65 47.1 Q236.35 47.2 236.5 47.5 L233.75 49.85 Q235.1 51.85 235.3 52.75 L235.0 53.0 Q233.75 52.25 232.55 50.7 L230.5 52.0 Q229.75 51.8 229.5 51.5 L231.7 49.45 Q230.45 47.5 230.0 45.75" fill="#ffffff" fill-rule="evenodd" stroke="none"/>
    <path d="M220.8 85.2 Q220.8 85.3 221.7 85.6 L222.6 85.65 223.4 84.9 Q223.9 84.4 224.35 84.4 226.5 86.1 226.35 87.3 226.2 89.2 226.65 90.1 227.25 90.2 228.1 89.7 228.65 85.05 228.05 83.6 226.6 80.45 223.8 81.7 221.6 82.75 221.2 84.05 L220.8 85.2 M214.3 74.6 Q213.8 75.9 214.3 75.55 L215.6 76.2 219.2 76.7 224.05 77.5 230.0 78.95 233.1 79.6 Q232.95 79.85 232.95 80.25 L233.35 79.65 234.5 80.5 Q235.6 81.35 236.4 81.6 L235.1 86.15 234.45 87.7 234.4 87.95 233.7 87.6 233.7 88.05 230.5 89.85 Q226.7 92.05 226.15 93.05 L223.45 92.75 Q219.25 91.3 215.6 84.15 212.4 78.1 212.75 77.05 213.05 76.35 214.3 74.55 L214.3 74.6" fill="#5c4e4d" fill-rule="evenodd" stroke="none"/>
    <path d="M96.9 15.85 L97.15 17.55 Q98.8 22.15 98.1 26.6 97.6 30.2 97.15 31.4 96.65 32.85 95.75 33.7 L96.2 34.0 98.65 36.1 103.7 38.6 Q107.45 40.15 107.15 42.15 L106.85 42.55 106.7 42.4 106.65 42.3 105.75 43.15 105.1 42.85 104.8 42.75 104.75 42.65 104.75 42.6 103.75 42.2 99.2 40.05 Q93.2 37.25 93.7 33.75 L93.75 33.5 93.95 32.95 94.0 32.7 94.85 29.6 94.95 29.4 95.55 27.3 95.75 26.4 95.75 26.35 96.15 25.55 95.95 25.55 96.1 22.05 96.5 22.05 96.15 20.85 96.05 19.0 96.7 16.65 96.9 15.85 M104.2 58.25 L114.15 59.25 129.1 61.25 129.05 61.35 128.9 62.2 128.55 64.2 128.55 64.55 128.4 65.55 123.25 64.65 122.7 64.5 106.3 61.65 106.1 61.65 106.0 61.65 105.95 61.65 105.75 61.6 105.5 61.55 104.95 61.5 Q104.9 61.35 104.85 61.5 104.5 61.25 104.25 61.35 104.2 61.2 104.15 61.35 104.1 61.2 104.1 61.35 L103.65 61.3 103.8 60.75 104.2 58.25 M130.2 51.55 L130.25 51.1 130.45 50.25 Q130.55 49.6 131.2 48.85 L132.25 48.0 132.5 48.1 132.6 48.05 Q132.65 47.95 132.8 47.95 L132.85 47.95 Q133.9 47.15 136.05 46.3 139.8 44.8 140.2 42.2 L141.45 34.25 Q142.35 27.55 143.25 25.0 144.8 20.0 147.85 19.9 L147.7 21.6 147.4 21.55 Q145.95 22.85 145.25 24.25 144.7 25.5 143.8 31.25 L143.0 36.55 Q142.95 38.35 143.4 40.0 143.7 41.35 143.45 42.7 142.85 46.8 137.5 48.9 135.6 49.5 134.65 49.85 L133.85 50.0 133.85 50.15 133.75 50.3 133.5 50.7 132.95 50.85 132.6 51.0 132.1 51.5 132.05 51.55 Q131.55 52.1 131.0 52.1 L130.25 51.95 Q130.15 51.95 130.2 51.55" fill="#0f0c09" fill-rule="evenodd" stroke="none"/>
    <path d="M81.85 11.75 L82.35 11.8 86.85 12.2 86.9 12.5 87.05 13.0 89.1 13.55 89.35 13.6 89.45 13.6 Q91.5 14.25 91.95 14.8 L92.0 14.85 92.75 15.45 94.45 16.85 94.5 16.85 94.25 17.95 94.1 18.45 93.3 21.85 Q92.35 20.75 91.0 20.05 89.8 19.4 88.35 19.1 L87.95 19.05 83.2 18.95 76.05 18.65 Q72.65 18.85 70.25 20.0 L70.25 19.6 69.95 19.85 69.5 19.8 69.4 19.8 Q69.25 19.75 69.4 18.9 69.4 18.5 70.4 17.4 L70.75 17.0 70.8 16.55 73.25 14.7 74.85 13.7 Q78.1 12.0 81.85 11.75 M94.85 3.65 Q95.2 3.65 95.7 4.8 L96.2 6.1 96.7 8.5 96.7 8.8 96.1 11.0 95.8 12.4 95.7 12.5 93.45 10.45 92.25 9.65 92.2 9.6 89.95 8.5 Q85.7 6.6 80.8 6.8 77.55 6.95 74.95 8.25 L75.55 7.35 76.9 5.0 76.95 4.7 Q78.0 3.85 79.45 3.35 83.7 1.9 94.85 3.65" fill="#3c0000" fill-rule="evenodd" stroke="none"/>
    <path d="M87.9 21.8 Q89.4 22.1 90.45 22.7 93.8 24.25 93.35 27.45 92.95 30.1 88.9 31.4 L86.45 31.95 85.35 32.1 Q79.8 32.9 74.75 32.1 L70.8 31.2 Q67.0 29.75 67.5 26.45 67.6 26.1 67.85 25.7 L67.9 25.8 Q68.05 25.15 68.8 24.6 69.3 24.1 69.85 23.95 L70.1 23.6 Q70.2 23.15 70.75 22.75 71.7 22.0 74.1 21.5 L82.35 21.0 87.9 21.8" fill="#1a0000" fill-rule="evenodd" stroke="none"/>
    <path d="M107.15 42.15 L107.05 42.7 106.85 42.55 107.15 42.15" fill="#1a150f" fill-rule="evenodd" stroke="none"/>
    <path d="M137.9 99.6 Q138.25 99.3 138.7 99.1 L137.95 99.8 137.9 99.6 M86.25 87.4 L86.45 87.05 86.4 87.6 86.25 87.4" fill="#872b0c" fill-rule="evenodd" stroke="none"/>
    <path d="M86.45 87.05 L86.65 87.45 86.4 87.6 86.45 87.05" fill="#67210a" fill-rule="evenodd" stroke="none"/>
    <path d="M186.0 106.3 L186.35 105.5 186.45 105.7 186.35 106.25 186.75 106.3 186.0 106.3 M81.1 72.05 L81.3 72.05 81.05 72.9 81.0 72.95 81.0 72.8 81.05 72.75 81.1 72.05 M80.65 74.8 L80.05 79.3 80.0 79.7 79.9 80.1 79.6 79.9 79.55 79.9 79.8 78.6 80.35 76.25 80.65 74.8 M156.4 98.5 L156.55 98.3 156.55 98.55 156.4 98.5" fill="#942403" fill-rule="evenodd" stroke="none"/>
    <path d="M200.2 75.85 L200.15 76.1 199.65 75.75 200.2 75.85 M193.55 84.8 L193.6 84.8 193.5 85.0 193.55 84.8 M156.3 26.5 L156.05 26.0 156.25 25.9 156.6 26.25 156.3 26.5 M45.9 42.55 L46.2 42.7 45.95 42.6 45.9 42.55 M40.0 67.9 L39.95 68.0 39.65 67.85 40.0 67.9 M38.4 47.75 L38.4 47.6 38.45 47.6 38.4 47.75 M44.45 33.05 L44.0 33.2 44.05 33.2 44.05 33.15 44.45 33.05" fill="#942467" fill-rule="evenodd" stroke="none"/>
    <path d="M160.85 72.4 L161.15 72.25 161.3 72.3 160.85 72.4 M160.25 97.25 L160.8 97.4 160.75 97.5 160.25 97.25 M140.95 49.9 L140.9 50.05 140.85 49.95 140.95 49.9 M161.3 65.55 L161.75 65.35 162.0 65.65 161.3 65.55 M86.0 34.7 L85.65 34.6 86.05 34.5 86.0 34.7 M83.7 46.8 L84.25 46.8 84.25 47.05 83.7 46.8 M103.2 63.35 L103.2 63.25 103.25 63.25 103.2 63.35 M131.95 52.3 L131.95 52.25 132.0 52.3 131.95 52.3 M102.25 71.8 L102.3 71.85 102.25 71.85 102.25 71.8 M82.3 87.0 L82.35 87.05 82.65 87.4 81.9 87.3 82.3 87.0" fill="#731c66" fill-rule="evenodd" stroke="none"/>
    <path d="M160.45 32.95 Q159.2 33.95 158.6 34.05 156.3 34.95 155.0 35.75 L154.95 35.55 154.65 34.7 154.1 32.55 153.6 30.55 Q153.2 28.6 152.3 27.35 L156.05 26.0 156.3 26.5 156.55 27.05 157.7 29.0 157.75 29.05 157.95 29.35 159.0 30.75 160.45 32.95 M194.85 75.1 L194.9 75.1 195.2 74.0 196.45 63.2 199.25 65.4 201.1 66.85 201.1 67.0 200.8 71.6 200.2 75.85 199.65 75.75 196.6 75.35 194.85 75.1 M193.6 84.8 L197.55 86.15 198.0 86.2 Q197.95 87.2 198.3 88.05 L198.4 88.3 198.55 88.45 199.45 88.6 Q200.55 89.4 203.8 89.95 L203.6 90.65 203.4 91.65 199.55 91.2 194.85 90.6 194.55 90.95 194.4 91.7 Q194.25 92.5 194.4 92.6 L194.55 92.75 194.7 92.8 Q193.7 94.55 193.05 99.0 L193.05 99.4 192.15 99.35 193.3 89.45 193.5 85.0 193.6 84.8 M203.1 93.9 Q202.35 99.55 203.2 104.7 L200.0 104.8 191.2 105.85 191.85 101.4 Q193.8 101.1 194.35 100.65 L194.15 99.95 194.75 99.65 195.65 95.95 195.65 94.1 195.65 92.95 202.15 93.9 203.1 93.9 M66.15 23.75 L65.0 23.95 61.55 25.25 57.7 26.55 Q56.05 26.9 52.8 29.85 49.1 33.2 48.75 35.35 L48.75 35.65 48.25 36.3 Q47.2 37.9 45.9 42.55 L45.95 42.6 41.2 40.1 40.45 39.65 40.45 39.5 41.5 37.4 44.0 33.2 44.45 33.05 44.65 32.5 44.8 31.9 46.55 29.1 46.5 29.0 Q48.0 27.0 50.35 24.5 L54.45 20.3 54.6 20.15 54.7 20.05 54.85 20.15 55.6 19.5 55.85 19.3 56.4 18.75 56.5 18.55 Q58.3 17.05 61.1 15.8 L61.7 15.5 62.95 15.0 65.4 14.1 67.75 13.95 67.8 14.0 69.05 13.05 69.95 12.75 70.1 12.8 69.65 13.95 Q69.2 15.25 68.85 16.85 67.55 17.7 67.05 19.1 L66.55 22.0 66.6 23.0 66.15 23.75 M44.4 50.65 L43.75 50.3 43.6 50.65 42.85 53.35 41.45 58.75 40.0 67.9 39.65 67.85 37.3 66.75 36.7 66.5 35.2 66.1 35.25 65.75 Q36.2 56.65 37.1 52.7 L38.4 47.75 38.45 47.6 41.05 48.85 42.2 49.45 44.4 50.65 M33.05 73.1 L34.7 68.35 36.7 68.85 Q37.65 69.15 38.5 69.7 L39.15 70.05 39.6 70.3 Q39.15 72.25 38.8 74.75 L38.8 75.45 38.0 75.15 35.05 73.95 33.05 73.1" fill="#046193" fill-rule="evenodd" stroke="none"/>
    <path d="M160.45 32.95 L160.65 33.2 163.4 37.75 164.5 39.55 166.1 41.7 168.95 44.8 Q170.75 46.5 172.9 47.9 L173.8 48.45 Q176.05 49.8 178.8 52.6 181.75 55.65 183.5 56.9 L189.5 59.7 190.75 60.25 195.1 62.35 196.45 63.2 195.2 74.0 194.9 75.1 194.85 75.1 194.65 75.1 194.55 75.05 194.25 75.0 185.3 72.8 184.35 72.5 181.55 71.35 181.15 71.25 180.9 71.15 177.1 69.2 Q175.9 68.75 174.75 68.8 173.95 66.85 171.9 65.4 L170.7 64.5 164.8 55.5 163.75 53.8 162.65 51.75 Q160.95 48.55 160.1 45.6 L158.55 42.05 157.6 40.4 155.15 36.2 155.05 35.8 155.0 35.75 Q156.3 34.95 158.6 34.05 159.2 33.95 160.45 32.95 M161.3 72.3 Q161.2 76.75 169.4 78.0 L169.45 78.05 169.55 78.35 169.7 78.5 180.7 80.9 187.95 82.9 190.5 83.8 190.7 83.85 193.55 84.8 193.5 85.0 193.3 89.45 192.15 99.35 190.65 99.25 185.2 98.7 185.5 97.25 185.0 95.7 184.5 94.1 184.85 91.45 184.95 91.2 184.9 90.3 184.7 90.1 182.35 90.25 180.65 90.3 174.75 89.8 174.4 89.05 174.05 89.75 173.85 89.9 Q173.35 90.0 173.3 90.5 L173.2 91.4 172.9 92.2 Q171.9 94.55 171.7 96.25 L171.7 97.75 165.05 96.85 162.7 96.65 Q162.35 93.35 162.95 89.35 163.05 88.7 163.55 88.6 164.05 88.55 164.15 87.85 L164.1 87.0 163.95 86.8 162.95 86.5 162.95 86.4 154.75 84.3 152.35 84.15 151.75 83.8 Q151.25 84.0 150.75 84.95 L150.6 85.1 150.65 85.2 Q150.1 86.1 149.65 87.7 148.8 90.3 148.45 92.9 L148.35 93.2 143.8 92.85 143.45 95.3 146.05 95.4 146.45 95.45 149.55 95.65 149.85 95.5 150.2 94.45 150.2 94.25 150.25 94.2 150.4 94.15 150.5 93.9 152.35 85.95 155.1 86.8 161.2 88.55 161.15 89.15 160.25 97.25 160.75 97.5 160.7 97.6 Q160.6 98.35 160.75 98.5 L160.9 98.65 164.75 99.25 172.4 99.6 Q173.2 99.45 173.3 99.05 L173.35 98.25 174.15 95.05 174.85 91.95 174.9 91.8 180.5 92.65 182.4 92.15 182.6 95.95 182.7 98.8 Q182.85 100.5 183.85 101.15 L184.6 100.95 184.65 100.75 189.5 101.5 190.05 101.5 191.85 101.4 191.2 105.85 188.15 106.15 187.0 106.25 186.75 106.3 186.35 106.25 186.45 105.7 186.35 105.5 186.0 106.3 185.0 106.4 183.05 106.3 182.9 106.35 182.8 106.3 182.2 106.2 180.65 105.95 178.9 105.65 178.65 105.7 177.9 105.5 176.35 105.3 175.7 105.15 175.3 105.15 156.7 101.9 155.1 101.65 155.05 101.55 154.6 101.5 153.3 101.2 150.9 100.5 150.85 100.45 150.3 100.3 150.25 100.3 Q149.65 100.0 148.65 99.8 L148.6 99.8 148.4 99.7 146.55 99.3 146.35 99.25 Q145.45 98.95 144.4 98.8 L140.15 98.05 Q141.85 97.0 143.15 96.8 L145.65 81.2 145.7 80.35 146.65 74.75 147.1 70.55 153.45 71.4 156.8 71.85 160.85 72.4 161.3 72.3 M140.9 50.05 L139.65 62.55 138.75 71.55 138.5 72.9 Q137.55 78.7 137.25 82.55 L136.35 88.6 125.3 95.9 114.8 102.3 113.8 103.0 112.0 104.3 109.7 105.5 105.9 100.5 97.65 90.85 Q95.5 87.95 88.7 80.3 L87.4 78.65 Q88.9 64.75 90.15 57.05 L91.3 49.65 91.55 48.25 91.55 48.1 92.45 42.05 93.25 37.45 Q94.25 39.0 96.35 40.6 100.5 43.85 104.85 44.75 L104.35 46.1 103.5 49.1 101.95 56.7 Q101.5 59.25 101.65 61.15 L101.25 61.2 101.2 61.85 Q101.05 62.6 101.25 62.8 L101.4 63.0 102.05 63.1 102.3 63.65 103.2 63.35 103.25 63.25 128.4 67.7 128.65 67.55 129.15 68.4 130.15 68.25 130.7 67.55 131.35 58.45 131.95 52.3 132.0 52.3 Q131.9 52.75 132.1 53.0 L132.7 53.45 Q135.6 51.45 140.65 50.05 L140.7 50.05 140.85 49.95 140.9 50.05 M161.3 65.55 Q159.9 65.3 159.05 64.65 L151.4 62.8 148.95 62.15 148.55 62.0 147.75 61.8 148.1 57.55 148.15 57.05 148.1 57.0 Q147.95 56.4 148.2 54.75 L148.65 51.7 148.95 50.45 148.95 50.25 149.1 49.7 149.15 49.7 Q149.4 48.75 149.8 48.15 L149.4 48.0 149.9 43.65 151.2 46.15 Q152.7 49.05 155.15 53.0 L159.25 61.15 161.75 65.35 161.3 65.55 M81.15 36.75 L81.65 36.45 81.1 36.65 81.15 36.75 M86.0 34.7 L85.95 34.95 85.85 35.75 85.6 37.2 85.5 37.95 85.45 37.95 85.0 39.8 84.95 39.95 85.2 39.95 84.4 45.05 84.25 46.8 83.7 46.8 Q83.0 46.65 78.35 47.8 L77.4 48.0 76.25 48.2 Q70.85 49.1 65.9 48.45 L65.15 48.3 62.3 47.85 58.25 47.0 Q53.25 45.75 48.65 43.85 L48.15 43.6 48.05 43.65 47.85 43.5 46.9 43.05 46.5 42.85 46.2 42.7 45.9 42.55 Q47.2 37.9 48.25 36.3 L48.75 35.65 48.75 35.35 Q49.1 33.2 52.8 29.85 56.05 26.9 57.7 26.55 L61.55 25.25 65.0 23.95 66.15 23.75 Q65.7 24.65 65.5 25.75 L65.45 25.85 65.4 27.9 Q65.65 31.75 69.85 33.5 L71.95 34.05 78.35 35.15 Q81.5 35.65 85.65 34.6 L86.0 34.7 M102.25 71.8 L99.15 66.45 95.15 67.45 96.85 70.5 96.9 70.6 97.1 71.05 98.8 74.25 99.1 74.65 98.7 74.95 96.6 76.9 93.2 80.35 96.75 82.45 101.2 78.4 101.8 79.45 104.45 83.6 108.5 82.65 104.35 75.45 110.3 69.9 106.95 67.7 106.95 67.75 106.35 68.3 103.95 70.4 102.3 71.85 102.25 71.8 M114.85 68.25 L112.8 67.95 112.5 69.8 112.2 71.75 110.7 80.2 110.25 84.55 114.65 85.15 117.2 68.7 116.25 68.55 116.25 68.5 114.85 68.25 M44.4 50.65 L44.45 50.7 45.35 51.25 48.95 53.3 52.5 54.65 54.95 55.3 61.4 56.65 63.7 57.0 64.6 57.15 Q69.35 57.9 76.9 56.35 L78.6 56.0 80.15 55.65 Q83.3 54.8 83.9 54.2 L83.85 55.45 81.2 71.6 81.1 71.6 80.95 71.65 80.85 71.7 80.45 71.45 80.4 71.4 80.3 71.4 79.05 71.1 Q74.8 69.95 71.25 68.65 L69.05 67.9 68.65 66.9 68.15 67.6 67.1 67.25 66.95 68.4 67.5 69.1 66.85 71.25 Q66.2 73.75 65.65 76.8 L65.65 77.55 62.5 77.2 58.6 75.95 56.85 75.35 55.75 74.95 55.6 74.9 56.2 72.0 56.4 71.05 57.1 67.8 57.3 66.6 57.3 66.35 Q57.35 65.4 56.95 64.8 L56.7 64.45 55.9 65.4 55.3 64.95 Q54.2 64.25 52.5 63.85 L46.6 62.4 Q46.6 61.7 46.2 62.1 44.4 61.7 43.55 64.35 L42.9 68.0 Q42.8 68.75 42.85 69.5 L42.65 69.35 39.95 68.0 40.0 67.9 41.45 58.75 42.85 53.35 43.6 50.65 43.75 50.3 44.4 50.65 M79.65 82.05 L79.2 84.3 80.1 83.55 Q80.4 84.75 82.3 87.0 L81.9 87.3 81.3 87.25 80.5 87.15 74.05 86.1 67.45 84.5 58.45 82.05 55.2 81.1 52.25 80.1 50.05 79.4 48.4 78.9 40.0 75.95 39.75 75.85 39.45 75.7 38.9 75.5 38.8 75.45 38.8 74.75 Q39.15 72.25 39.6 70.3 L39.6 70.25 40.75 70.8 42.85 71.45 42.95 71.45 43.05 71.5 43.15 71.5 43.3 71.5 Q44.05 71.65 44.2 71.3 L44.35 70.6 Q44.6 69.0 45.55 66.25 L46.05 64.55 Q48.1 65.15 50.85 66.1 L55.05 67.35 54.8 68.0 54.1 72.4 53.85 74.15 53.9 74.35 53.55 74.3 53.35 74.65 53.15 75.5 Q53.0 76.3 53.2 76.6 L53.3 76.8 55.35 77.25 57.3 77.9 57.9 78.15 60.45 79.0 62.3 79.2 62.45 79.15 65.05 79.55 65.95 79.5 66.1 79.05 66.25 79.3 67.15 79.0 68.85 71.85 69.1 70.05 70.7 70.9 Q74.35 72.6 77.4 73.05 L78.85 73.25 79.15 73.25 78.9 73.95 Q78.1 76.3 77.4 80.5 L77.3 80.55 77.35 81.25 77.55 81.7 79.65 82.05 M124.6 69.85 L120.85 69.2 118.7 81.4 118.25 85.75 122.65 86.45 125.25 69.9 125.2 69.85 124.6 69.8 124.6 69.85 M132.5 71.05 L128.15 70.35 126.0 82.55 125.6 86.9 129.95 87.55 132.5 71.05 M156.4 98.5 L156.55 98.55 156.55 98.3 156.4 98.5" fill="#023f60" fill-rule="evenodd" stroke="none"/>
  </g>
</svg>
