<?xml version="1.0" encoding="UTF-8" standalone="no"?>
<svg xmlns:ffdec="https://www.free-decompiler.com/flash" xmlns:xlink="http://www.w3.org/1999/xlink" ffdec:objectType="shape" height="69.1px" width="195.15px" xmlns="http://www.w3.org/2000/svg">
  <g transform="matrix(1.0, 0.0, 0.0, 1.0, 97.55, 34.55)">
    <path d="M32.75 -26.4 Q31.05 -26.35 28.7 -25.5 L24.6 -24.15 26.1 -23.4 27.3 -22.25 Q30.15 -24.0 33.2 -24.05 L34.35 -24.05 Q35.05 -23.95 35.6 -23.35 34.75 -22.75 32.35 -22.4 29.9 -22.1 29.2 -21.55 L22.45 -16.3 26.1 -15.85 30.1 -15.4 Q32.85 -15.45 35.8 -17.75 38.45 -19.8 40.05 -23.05 40.05 -24.65 37.3 -25.6 35.3 -26.3 32.75 -26.4 M50.95 16.9 L50.25 16.9 48.65 16.55 Q48.5 16.95 48.15 16.95 L48.1 16.95 47.5 17.1 45.1 17.45 43.1 18.55 41.05 19.5 Q39.5 20.4 36.35 23.5 L33.55 26.35 32.4 26.15 31.55 25.65 31.05 23.0 Q30.1 23.5 28.65 23.5 25.9 23.5 24.85 22.8 L24.8 22.8 17.95 23.15 17.8 23.25 Q16.1 24.0 9.15 24.0 L-4.3 23.05 -14.45 22.5 -23.65 22.65 Q-39.25 23.0 -60.7 22.7 L-73.1 22.25 -80.6 21.7 -81.0 21.7 -95.6 21.7 -95.75 21.7 Q-96.6 21.7 -96.9 21.25 L-97.1 20.5 -97.0 20.25 Q-97.0 18.8 -97.3 16.15 L-97.55 12.95 -96.85 -0.9 -94.85 -0.95 -94.75 -1.3 -94.5 -1.3 Q-92.45 -1.65 -91.2 0.05 L-90.1 1.6 Q-89.65 1.6 -89.4 2.0 L-82.25 1.0 -69.6 1.0 -68.5 1.05 -68.35 -2.25 -58.2 -3.2 -58.05 -3.35 -57.8 -3.4 -57.65 -3.85 -57.45 -4.0 Q-53.6 -4.2 -51.2 -4.0 L-46.75 -4.55 -37.1 -4.85 -36.3 -5.3 -31.25 -7.2 -26.75 -9.1 -22.75 -11.2 -22.45 -11.35 -22.4 -11.0 -15.85 -12.55 -7.45 -14.25 Q-6.6 -14.4 -2.85 -16.0 L-1.8 -17.1 1.5 -17.55 Q0.6 -18.0 0.6 -18.45 0.55 -19.7 1.05 -20.7 1.5 -21.7 2.3 -22.1 L4.4 -23.2 6.25 -23.85 8.15 -24.2 10.15 -24.65 14.5 -25.55 19.55 -25.1 Q22.55 -25.75 26.2 -26.9 29.4 -27.85 32.65 -27.95 L35.15 -27.9 38.25 -27.35 Q38.95 -27.25 39.7 -26.6 L41.0 -25.5 41.4 -25.0 43.9 -25.15 44.3 -25.1 45.15 -25.2 45.9 -25.2 45.85 -26.35 46.05 -26.55 46.35 -26.7 46.55 -26.9 46.7 -27.0 46.95 -26.75 47.4 -26.8 55.35 -26.4 56.9 -26.15 Q60.15 -31.25 66.45 -33.2 70.35 -34.35 77.75 -34.55 L83.0 -34.45 88.25 -34.0 93.8 -32.4 Q97.15 -31.05 97.6 -28.6 L89.95 -28.65 82.7 -28.0 Q76.15 -26.65 71.65 -22.7 L68.85 -19.55 68.2 -19.0 67.55 -19.1 67.6 -19.2 67.35 -20.15 67.45 -20.8 Q68.0 -23.05 73.1 -25.85 75.8 -27.4 79.7 -28.95 L80.4 -29.2 80.45 -29.2 81.7 -29.55 86.4 -30.05 86.65 -30.05 86.75 -30.05 93.45 -30.25 92.35 -30.65 84.55 -32.95 Q83.45 -33.15 77.45 -33.0 L74.9 -32.85 72.65 -32.65 72.5 -32.65 72.05 -32.65 72.05 -32.6 67.55 -31.5 Q64.3 -30.45 60.75 -27.55 L58.35 -25.65 58.35 -25.6 60.75 -24.55 60.95 -24.45 61.65 -24.1 64.75 -22.3 64.95 -22.25 65.05 -22.2 65.2 -22.05 64.8 -21.8 64.6 -21.05 Q64.65 -20.8 66.4 -19.1 L66.7 -18.8 62.05 -21.75 58.65 -23.9 58.55 -23.95 58.55 -23.75 56.5 -24.45 56.1 -24.55 54.95 -24.75 53.95 -24.9 54.15 -22.45 54.25 -19.35 59.25 -18.35 Q62.0 -17.75 64.0 -16.7 L65.1 -16.05 66.05 -15.15 66.15 -15.05 66.95 -14.4 67.0 -14.4 67.3 -14.2 Q68.7 -13.15 70.85 -11.85 L71.3 -11.5 71.7 -11.1 Q74.45 -8.45 73.9 -5.05 L73.05 -5.25 73.0 -5.35 73.0 -5.4 73.0 -5.5 Q72.2 -8.6 69.2 -11.05 65.35 -13.6 63.6 -15.0 61.65 -16.5 58.7 -17.3 L54.35 -17.65 54.8 -0.1 54.85 1.4 Q54.75 3.0 54.25 3.3 L53.6 3.35 53.3 1.1 53.05 -3.65 52.75 -11.15 52.35 -22.85 52.3 -24.85 52.3 -25.0 50.1 -25.05 47.7 -24.9 47.45 -24.9 47.45 -24.75 47.55 -23.15 47.55 -23.1 Q48.55 -3.4 48.5 1.45 L48.5 1.8 48.7 1.9 48.8 2.05 48.9 6.1 48.95 9.0 48.95 9.05 48.85 10.7 48.9 12.4 48.85 14.85 48.35 14.85 47.95 15.65 Q49.05 16.55 50.95 16.9 M29.35 -13.75 L29.0 -13.2 29.3 -13.8 26.05 -14.0 24.2 -14.4 20.9 -14.65 Q18.75 -14.65 17.85 -15.75 L17.8 -15.85 18.3 -16.6 Q21.0 -17.9 25.95 -21.3 L24.6 -21.8 22.25 -22.8 19.6 -23.0 Q18.4 -23.05 17.75 -23.75 L15.6 -23.9 12.45 -23.3 9.9 -22.75 8.1 -22.35 6.3 -21.9 Q5.8 -21.85 5.65 -21.55 5.55 -21.2 5.05 -21.2 L4.4 -21.1 4.4 -20.9 Q5.35 -20.8 5.85 -19.95 5.45 -18.85 4.75 -18.7 L3.75 -18.5 4.7 -18.35 Q6.55 -17.85 7.6 -17.2 8.95 -16.35 9.0 -15.25 L8.95 -14.8 8.7 -14.5 8.45 -14.3 8.5 -14.25 12.5 -11.65 13.0 -11.25 14.3 -11.1 14.5 -11.05 Q15.35 -10.75 15.6 -10.15 L15.75 -10.15 16.0 -10.15 16.35 -10.15 16.6 -10.15 17.05 -10.1 17.55 -10.05 17.85 -10.0 17.95 -9.95 17.95 -10.0 Q19.55 -10.65 21.3 -10.7 L22.9 -10.7 23.4 -10.6 23.6 -10.75 26.2 -11.1 27.75 -11.2 29.1 -11.25 29.7 -11.25 29.55 -13.6 29.55 -13.8 29.4 -13.8 29.35 -13.75 M9.35 -11.4 Q7.85 -12.45 6.45 -13.65 5.65 -14.25 5.7 -14.95 L5.7 -15.1 3.15 -15.25 -1.15 -14.05 Q-2.85 -12.3 -2.85 -10.65 -2.85 -10.05 -2.25 -8.65 L-2.05 -8.1 Q-1.2 -9.5 0.85 -9.95 L5.1 -10.25 6.4 -10.1 7.7 -9.9 8.5 -10.05 Q9.1 -10.7 10.0 -11.0 L9.8 -11.1 9.35 -11.4 M7.2 -8.3 L5.2 -8.45 3.0 -8.45 3.6 -8.05 3.95 -7.85 4.65 -7.1 Q4.0 -6.0 1.85 -4.95 L-0.35 -3.9 -1.55 -3.2 -1.35 -3.0 0.05 -2.0 Q1.35 -1.3 2.9 -1.35 L4.15 -1.45 7.35 -1.5 7.55 -0.7 Q7.55 0.3 5.9 1.3 L5.7 1.4 3.7 2.35 7.25 2.25 8.35 1.5 Q9.2 1.0 9.5 1.0 L10.2 1.1 10.35 1.25 10.4 2.95 10.1 3.9 10.2 4.0 11.25 3.6 Q12.95 2.85 13.75 1.9 L14.4 1.15 14.25 0.85 Q13.85 -0.2 13.8 -1.85 L13.8 -3.3 13.8 -4.15 13.8 -4.25 13.8 -5.55 13.95 -7.45 14.2 -8.85 13.65 -9.6 12.5 -9.65 10.75 -9.2 10.05 -9.0 Q9.65 -8.55 9.1 -8.45 L7.2 -8.3 M-0.9 -5.75 L1.25 -6.85 1.05 -7.0 -0.4 -6.7 -0.7 -6.65 -1.35 -6.6 -0.95 -5.75 -0.9 -5.75 M17.6 -7.85 L17.5 -8.0 17.3 -8.2 16.2 -8.2 15.95 -6.95 15.8 -5.5 15.75 -5.25 15.55 -1.8 15.6 -0.85 15.65 -0.4 Q15.75 0.5 16.05 0.7 L17.3 0.8 Q18.85 0.75 18.95 -0.5 L18.95 -1.05 18.4 -5.5 18.25 -6.15 17.95 -7.9 17.9 -8.05 17.6 -7.85 M20.15 -8.9 L19.35 -8.8 20.05 -5.55 20.15 -5.6 22.0 -8.85 22.25 -9.25 20.65 -8.95 20.15 -8.9 M33.2 -13.9 L31.9 -13.9 32.25 -11.9 34.05 -12.4 37.6 -12.9 38.65 -12.9 38.9 -12.9 39.0 -13.1 Q39.75 -15.7 39.95 -19.0 38.75 -17.15 36.75 -15.95 33.75 -14.1 33.2 -13.9 M26.5 -0.4 L25.55 -1.75 24.65 -3.15 24.3 -3.9 24.3 -4.05 22.95 -4.1 22.9 -4.1 22.6 -4.15 22.55 -4.0 21.7 -4.0 21.2 -4.1 20.9 -4.15 20.55 -3.95 20.35 -3.95 20.85 -2.0 20.85 -1.5 21.05 -1.25 Q22.7 -0.1 24.6 -0.15 L26.15 -0.2 Q26.35 -0.2 26.5 -0.35 L26.5 -0.4 M29.7 -9.6 L29.5 -9.6 27.45 -9.6 26.25 -9.6 Q25.35 -9.8 24.55 -8.75 L23.8 -7.55 23.0 -5.5 24.8 -5.55 Q26.3 -5.55 27.4 -6.7 L27.9 -7.3 28.5 -7.95 29.7 -9.4 29.7 -9.6 M33.85 -0.9 L32.65 -1.95 31.9 -2.7 30.85 -3.9 30.3 -3.9 29.6 -3.85 29.4 -3.85 29.0 -3.85 Q28.2 -3.95 27.9 -4.5 L27.3 -4.25 26.3 -4.15 27.1 -3.05 Q27.85 -1.6 28.35 -1.0 L28.6 -0.95 28.7 -0.75 28.7 -0.7 Q29.2 -0.4 30.25 -0.45 L30.9 -0.55 31.1 -0.6 31.2 -0.65 31.3 -0.6 32.3 -0.45 32.5 -0.4 33.7 -0.75 34.1 -0.75 33.85 -0.9 M35.45 -10.1 L34.45 -10.25 32.7 -10.25 31.75 -9.15 30.8 -7.95 30.75 -7.95 29.7 -6.2 29.35 -5.75 30.1 -5.55 30.3 -5.85 31.25 -5.95 Q33.6 -6.4 36.25 -8.75 L37.1 -9.45 38.25 -10.4 37.8 -10.4 35.45 -10.1 M37.55 -6.75 L38.35 -6.6 39.0 -6.35 40.5 -6.1 Q41.7 -6.15 44.0 -8.15 L46.2 -9.9 45.7 -10.4 42.7 -10.45 41.3 -10.5 38.3 -7.9 37.3 -6.9 37.55 -6.75 M37.4 -5.15 L37.0 -5.65 36.65 -5.6 35.9 -5.7 Q34.75 -4.75 33.1 -4.45 L34.35 -3.6 35.1 -2.95 Q36.2 -1.85 36.45 -0.65 L39.2 -0.7 41.2 -0.75 Q40.35 -1.0 39.65 -2.0 L37.25 -4.8 37.4 -5.15 M40.5 -4.5 L39.95 -4.5 40.25 -4.35 40.9 -3.75 42.8 -1.45 42.75 -1.05 42.45 -0.8 43.3 -0.8 46.45 -0.65 46.5 -0.7 46.85 -0.8 46.65 -4.9 45.45 -5.7 44.6 -6.45 44.05 -6.0 Q42.2 -4.55 40.5 -4.5 M44.9 -18.95 L44.05 -17.6 43.85 -17.85 Q42.15 -19.7 41.4 -19.95 41.65 -18.65 43.3 -16.45 L43.25 -16.3 Q42.7 -15.4 42.65 -14.75 L43.15 -14.2 44.0 -15.4 44.05 -15.5 45.15 -14.2 45.6 -14.2 45.65 -15.0 Q45.65 -15.55 44.85 -16.65 45.7 -18.05 45.55 -18.95 L44.9 -18.95 M44.85 -13.75 L44.8 -13.4 44.9 -13.4 44.85 -13.75 M46.6 -6.65 L46.5 -7.65 46.45 -7.65 46.4 -8.2 45.8 -7.6 46.5 -6.75 46.6 -6.65 M47.25 3.95 L47.25 3.8 47.15 3.85 Q46.3 3.35 45.2 3.2 L44.25 3.15 44.1 3.15 43.75 3.15 43.4 3.15 41.0 3.55 40.9 3.6 39.95 3.5 39.55 3.5 39.0 3.45 39.0 3.5 34.3 3.3 33.5 3.3 32.95 3.25 32.65 3.25 32.2 3.3 31.9 4.45 31.5 6.75 31.65 7.5 32.0 9.05 Q32.4 10.95 32.25 12.35 L32.15 12.8 31.7 14.0 Q31.3 15.05 31.35 17.6 31.35 18.2 31.6 18.3 L32.0 18.6 32.15 19.3 32.2 19.35 32.2 19.75 32.35 20.45 32.45 21.4 32.45 21.55 32.75 23.65 32.75 24.0 32.95 24.4 33.25 23.85 33.65 23.3 34.7 22.35 36.7 20.4 37.65 19.55 37.75 19.45 38.15 19.2 38.25 19.1 39.15 18.5 39.4 18.3 41.2 17.25 Q43.1 16.2 44.65 15.75 L45.2 15.6 46.35 15.45 47.2 15.45 47.15 13.1 47.15 13.05 47.05 10.75 47.25 6.4 47.25 3.95 M29.8 4.75 L30.0 3.65 30.65 2.3 30.45 0.85 30.4 0.85 28.45 0.75 28.25 0.9 27.65 1.1 26.3 1.3 27.15 2.55 Q29.15 5.5 29.15 6.25 L29.15 6.3 29.3 6.5 29.4 6.6 29.5 6.35 29.8 5.65 29.8 4.75 M20.75 1.2 L20.25 1.9 17.35 2.4 15.65 2.4 15.55 2.3 Q15.2 3.95 13.65 4.7 L13.05 5.0 13.15 5.0 13.6 5.0 15.2 7.2 Q16.45 9.3 17.65 14.25 18.65 18.4 18.65 19.7 L18.45 20.55 18.35 20.75 18.0 21.25 18.05 21.3 21.75 21.2 24.2 21.2 Q24.2 20.8 24.35 20.7 L24.55 20.5 25.65 20.55 26.2 20.85 Q29.45 22.45 30.4 20.3 L30.55 19.9 30.5 19.4 30.05 18.25 Q29.65 17.05 29.6 16.5 L30.0 13.8 30.2 13.05 29.0 10.9 28.5 10.55 28.15 9.8 28.25 9.5 27.55 8.25 Q26.25 5.65 24.2 3.1 L22.8 1.5 22.75 1.5 20.75 1.2 M13.65 11.5 L14.55 11.15 Q14.0 9.55 13.15 8.35 L11.65 6.45 10.4 6.4 10.15 6.1 10.05 6.1 7.9 6.15 7.7 5.2 7.8 4.45 7.65 4.5 6.8 4.25 6.65 4.0 6.1 3.95 3.25 4.25 Q0.25 4.25 0.2 2.25 0.2 1.25 0.4 1.55 L2.5 0.7 2.65 0.65 2.4 0.05 2.15 0.0 -1.15 -0.05 -1.65 -0.05 -4.35 -0.05 -6.35 -0.05 -6.5 0.35 -6.7 0.5 -10.05 0.5 -13.35 0.5 -15.95 0.5 -16.25 0.55 -17.05 0.95 Q-17.5 0.0 -19.1 0.95 L-19.6 1.3 -19.7 1.1 -27.85 2.8 -35.35 4.6 -37.85 5.2 -37.95 5.2 -41.85 6.0 Q-47.2 6.65 -47.2 14.35 -47.2 16.4 -46.5 17.3 L-43.8 21.05 -41.8 21.1 -27.4 20.65 -13.2 20.4 -13.05 20.4 -13.2 20.15 -12.8 20.5 -12.65 20.5 -12.45 20.5 -9.6 20.55 -7.35 20.55 -6.35 20.75 -1.1 21.25 -0.8 21.3 2.35 21.55 2.45 21.55 Q8.0 21.9 12.05 21.75 L15.65 21.5 15.65 21.4 16.55 21.35 16.65 21.35 16.65 21.2 16.6 21.1 15.45 14.6 15.1 12.85 14.55 13.35 13.65 11.5 M-55.6 9.05 L-58.0 6.05 Q-60.35 2.95 -60.35 2.5 -60.35 1.85 -60.0 1.6 -58.85 0.85 -54.85 0.8 L-55.95 0.25 Q-56.4 -0.45 -57.55 -1.35 L-57.9 -1.65 -58.85 -1.45 Q-60.75 -0.95 -61.55 0.05 L-61.6 -1.15 -66.35 -0.9 -66.3 1.95 Q-66.25 3.7 -66.35 4.85 L-66.25 7.75 -66.3 8.45 -66.5 8.55 Q-66.2 9.4 -66.05 10.7 L-65.95 14.25 -66.0 16.5 -65.95 16.55 -66.0 16.6 -66.0 17.25 -66.0 17.45 -66.05 17.85 Q-66.2 19.35 -66.6 20.35 L-66.65 20.45 -66.6 20.45 -60.65 20.6 -60.65 19.65 -59.35 20.0 -58.45 19.75 -58.7 20.65 -56.15 20.75 -56.9 19.9 -57.6 19.05 -58.35 18.0 Q-57.1 17.0 -55.9 16.55 L-53.85 15.8 -57.05 13.1 Q-59.35 11.2 -59.35 10.6 L-59.15 9.7 -58.95 9.5 -55.55 9.35 -55.35 9.3 -55.6 9.05 M-45.7 -2.0 L-46.6 -2.0 -46.75 -2.0 -47.35 -2.25 -47.5 -1.65 -47.7 -1.5 -54.85 -1.85 -54.05 -1.1 Q-51.85 1.15 -51.85 1.75 -51.85 2.45 -52.15 2.65 -53.25 3.35 -57.35 3.25 -57.0 4.25 -54.1 7.2 -51.35 10.0 -51.35 10.25 L-51.55 11.2 Q-52.35 11.9 -55.35 11.55 L-54.7 12.25 Q-53.25 13.15 -52.1 14.3 -50.85 15.55 -50.85 16.25 -50.85 17.05 -52.75 18.05 L-54.85 19.05 -54.7 19.65 Q-54.65 20.2 -54.9 20.75 L-52.35 20.85 -47.45 20.95 Q-48.3 20.15 -48.85 18.65 L-49.0 18.3 -49.95 18.35 -49.8 17.4 -49.8 16.3 -49.4 16.4 -49.55 14.1 -49.55 12.25 -49.85 12.25 -49.9 10.55 -49.4 10.6 Q-49.2 8.9 -48.8 8.1 -48.3 7.15 -47.4 6.35 L-45.2 4.95 -45.25 4.85 Q-44.4 4.7 -43.9 4.4 L-43.15 3.75 -43.1 4.15 -40.5 3.55 -39.0 3.3 -39.0 -2.25 -38.85 -3.0 -38.3 -2.95 -38.15 -3.4 -38.9 -3.3 -45.75 -2.5 -46.05 -2.5 -46.9 -2.4 -46.6 -2.05 -46.0 -2.25 -45.7 -2.0 M-24.8 -8.05 L-25.2 -7.85 Q-30.8 -5.65 -33.3 -4.3 -36.25 -2.75 -36.6 -0.9 L-36.65 -0.6 -36.65 0.8 -36.85 2.9 -32.95 1.9 -24.9 -0.25 -24.9 -1.6 -24.9 -1.7 -25.2 -1.65 -25.2 -4.05 -24.6 -7.65 -24.45 -8.2 -24.8 -8.05 M-18.7 -5.0 L-19.35 -5.95 Q-20.8 -8.2 -20.85 -8.85 L-22.3 -8.6 -22.2 -7.35 -22.15 -7.2 Q-22.7 -6.05 -22.7 -3.6 L-22.35 -3.45 Q-22.15 -3.35 -22.1 -2.9 L-22.05 -2.35 -22.05 -1.75 -22.05 -1.7 -22.05 -1.55 -22.1 -1.1 -22.2 -0.65 -22.2 -0.6 -21.65 -0.7 -19.45 -1.4 -19.2 -1.5 -19.45 -1.55 -20.1 -1.6 -18.05 -1.9 -17.75 -2.05 -17.7 -2.05 -17.8 -1.4 -17.3 -1.45 -14.7 -1.7 -10.3 -2.15 -7.75 -1.85 -6.9 -1.9 -5.65 -1.9 -5.85 -2.7 Q-5.85 -3.65 -5.7 -3.25 L-2.7 -4.9 -3.65 -6.9 -3.85 -7.25 Q-4.85 -9.2 -4.85 -10.5 L-4.4 -13.15 -8.85 -11.85 -11.4 -11.1 -11.4 -11.0 -10.6 -8.15 -10.55 -8.05 -9.35 -4.7 -9.5 -4.2 Q-9.6 -4.0 -10.35 -4.0 L-11.1 -4.1 -10.95 -4.25 -12.2 -6.15 -12.3 -6.35 -12.65 -6.9 -12.75 -7.05 Q-13.65 -8.45 -13.8 -9.4 L-13.85 -9.85 -13.65 -10.5 -17.9 -9.45 -18.2 -8.5 -18.45 -8.5 -17.55 -7.4 -16.15 -5.35 -15.85 -4.6 -15.85 -4.55 -15.85 -4.45 Q-15.85 -3.6 -16.1 -3.35 L-16.85 -3.0 -17.05 -3.1 -17.1 -3.15 -18.7 -5.0 M-51.2 3.9 L-51.2 4.05 -51.15 4.1 -51.65 4.15 -51.2 3.9 M-68.4 9.85 L-68.5 3.9 -68.5 2.75 -82.7 3.25 -88.3 3.6 -89.4 3.45 -89.6 3.55 -91.15 5.25 Q-93.35 7.35 -95.35 7.35 L-95.6 7.35 -95.45 12.85 -95.3 14.1 Q-76.85 13.5 -72.85 13.65 L-72.45 13.7 -72.4 13.45 -71.7 13.45 -70.65 12.4 -71.2 13.4 -68.4 13.4 -68.3 13.4 -68.3 9.85 -68.3 9.8 -68.4 9.85 M-68.3 20.6 L-68.3 20.85 -68.05 20.8 -68.3 20.6 M-92.05 2.45 L-94.45 0.35 Q-95.3 2.55 -95.5 5.3 L-92.15 2.6 -92.0 2.5 -92.05 2.45" fill="#000000" fill-rule="evenodd" stroke="none"/>
    <path d="M32.75 -26.4 Q35.3 -26.3 37.3 -25.6 40.05 -24.65 40.05 -23.05 38.45 -19.8 35.8 -17.75 32.85 -15.45 30.1 -15.4 L26.1 -15.85 22.45 -16.3 29.2 -21.55 Q29.9 -22.1 32.35 -22.4 34.75 -22.75 35.6 -23.35 35.05 -23.95 34.35 -24.05 L33.2 -24.05 Q30.15 -24.0 27.3 -22.25 L26.1 -23.4 24.6 -24.15 28.7 -25.5 Q31.05 -26.35 32.75 -26.4 M4.75 -18.7 Q5.45 -18.85 5.85 -19.95 5.35 -20.8 4.4 -20.9 L4.4 -21.1 5.05 -21.2 Q5.55 -21.2 5.65 -21.55 5.8 -21.85 6.3 -21.9 L8.1 -22.35 9.9 -22.75 12.45 -23.3 15.6 -23.9 17.75 -23.75 Q18.4 -23.05 19.6 -23.0 L22.25 -22.8 24.6 -21.8 25.95 -21.3 Q21.0 -17.9 18.3 -16.6 L17.8 -15.85 17.85 -15.75 Q18.75 -14.65 20.9 -14.65 L24.2 -14.4 26.05 -14.0 29.3 -13.8 29.0 -13.2 29.35 -13.75 29.55 -13.6 29.7 -11.25 29.1 -11.25 27.75 -11.2 26.2 -11.1 23.6 -10.75 23.4 -10.6 22.9 -10.7 21.3 -10.7 Q19.55 -10.65 17.95 -10.0 L17.85 -10.0 17.55 -10.05 17.05 -10.1 16.6 -10.15 16.35 -10.15 16.0 -10.15 15.75 -10.15 15.6 -10.15 Q15.35 -10.75 14.5 -11.05 L14.3 -11.1 13.0 -11.25 12.5 -11.65 8.5 -14.25 8.7 -14.5 8.95 -14.8 9.0 -15.25 Q8.95 -16.35 7.6 -17.2 6.55 -17.85 4.7 -18.35 L4.75 -18.7 M7.2 -8.3 L9.1 -8.45 Q9.65 -8.55 10.05 -9.0 L10.75 -9.2 12.5 -9.65 13.65 -9.6 14.2 -8.85 13.95 -7.45 13.8 -5.55 13.8 -4.25 13.8 -4.15 13.8 -3.3 13.8 -1.85 Q13.85 -0.2 14.25 0.85 L14.4 1.15 13.75 1.9 Q12.95 2.85 11.25 3.6 L10.2 4.0 10.1 3.9 10.4 2.95 10.35 1.25 10.2 1.1 9.5 1.0 Q9.2 1.0 8.35 1.5 L7.25 2.25 3.7 2.35 5.7 1.4 5.9 1.3 Q7.55 0.3 7.55 -0.7 L7.35 -1.5 4.15 -1.45 2.9 -1.35 Q1.35 -1.3 0.05 -2.0 L-1.35 -3.0 -1.55 -3.2 -0.35 -3.9 1.85 -4.95 Q4.0 -6.0 4.65 -7.1 L3.95 -7.85 3.6 -8.05 3.0 -8.45 5.2 -8.45 7.2 -8.3 M20.15 -8.9 L20.65 -8.95 22.25 -9.25 22.0 -8.85 20.15 -5.6 20.05 -5.55 19.35 -8.8 20.15 -8.9 M29.7 -9.6 L29.7 -9.4 28.5 -7.95 27.9 -7.3 27.4 -6.7 Q26.3 -5.55 24.8 -5.55 L23.0 -5.5 23.8 -7.55 24.55 -8.75 Q25.35 -9.8 26.25 -9.6 L27.45 -9.6 29.5 -9.6 29.7 -9.6 M26.15 -0.2 L24.6 -0.15 Q22.7 -0.1 21.05 -1.25 L20.85 -1.5 20.85 -2.0 20.35 -3.95 20.55 -3.95 20.9 -4.15 21.2 -4.1 21.7 -4.0 22.55 -4.0 22.6 -4.15 22.9 -4.1 22.95 -4.1 24.3 -4.05 24.3 -3.9 24.65 -3.15 25.55 -1.75 26.5 -0.4 26.15 -0.2 M33.7 -0.75 L32.5 -0.4 32.3 -0.45 31.3 -0.6 31.2 -0.65 31.1 -0.6 30.9 -0.55 30.25 -0.45 Q29.2 -0.4 28.7 -0.7 L28.7 -0.75 28.6 -0.95 28.35 -1.0 Q27.85 -1.6 27.1 -3.05 L26.3 -4.15 27.3 -4.25 27.9 -4.5 Q28.2 -3.95 29.0 -3.85 L29.4 -3.85 29.6 -3.85 30.3 -3.9 30.85 -3.9 31.9 -2.7 32.65 -1.95 33.85 -0.9 33.7 -0.75 M37.1 -9.45 L36.25 -8.75 Q33.6 -6.4 31.25 -5.95 L30.3 -5.85 30.1 -5.55 29.35 -5.75 29.7 -6.2 30.75 -7.95 30.8 -7.95 31.75 -9.15 32.7 -10.25 34.45 -10.25 35.45 -10.1 37.1 -9.45 M37.55 -6.75 L37.3 -6.9 38.3 -7.9 41.3 -10.5 42.7 -10.45 45.7 -10.4 46.2 -9.9 44.0 -8.15 Q41.7 -6.15 40.5 -6.1 L39.0 -6.35 38.35 -6.6 37.55 -6.75 M37.25 -4.8 L39.65 -2.0 Q40.35 -1.0 41.2 -0.75 L39.2 -0.7 36.45 -0.65 Q36.2 -1.85 35.1 -2.95 L34.35 -3.6 33.1 -4.45 Q34.75 -4.75 35.9 -5.7 L36.65 -5.6 37.0 -5.65 37.4 -5.15 37.15 -4.95 37.25 -4.8 M40.5 -4.5 Q42.2 -4.55 44.05 -6.0 L44.6 -6.45 45.45 -5.7 46.65 -4.9 46.85 -0.8 46.5 -0.7 46.45 -0.65 43.3 -0.8 42.45 -0.8 42.75 -1.05 42.8 -1.45 40.9 -3.75 40.25 -4.35 40.5 -4.5" fill="#48463c" fill-rule="evenodd" stroke="none"/>
    <path d="M17.95 -10.0 L17.95 -9.95 17.85 -10.0 17.95 -10.0 M8.5 -14.25 L8.45 -14.3 8.7 -14.5 8.5 -14.25 M-2.25 -8.65 Q-2.85 -10.05 -2.85 -10.65 -2.85 -12.3 -1.15 -14.05 L3.15 -15.25 5.7 -15.1 5.7 -14.95 Q5.65 -14.25 6.45 -13.65 7.85 -12.45 9.35 -11.4 L3.15 -11.5 0.3 -10.25 Q-1.6 -9.35 -2.25 -8.65 M-0.4 -6.7 L1.05 -7.0 1.25 -6.85 -0.9 -5.75 -0.55 -6.6 -0.4 -6.7 M33.2 -13.9 Q33.75 -14.1 36.75 -15.95 38.75 -17.15 39.95 -19.0 39.75 -15.7 39.0 -13.1 L38.9 -12.9 38.65 -12.9 37.6 -12.9 34.05 -12.4 32.25 -11.9 31.9 -13.9 33.2 -13.9 M26.5 -0.4 L26.5 -0.35 Q26.35 -0.2 26.15 -0.2 L26.5 -0.4 M29.8 4.75 L29.8 5.65 29.5 6.35 29.3 6.5 29.15 6.3 29.15 6.25 Q29.15 5.5 27.15 2.55 L26.3 1.3 27.65 1.1 28.25 0.9 28.65 2.2 Q29.15 3.8 29.8 4.75 M10.4 6.4 Q12.45 9.25 13.65 11.5 L14.55 13.35 14.8 14.1 Q15.6 16.55 15.65 21.4 L15.65 21.5 12.05 21.75 Q8.0 21.9 2.45 21.55 L2.35 21.55 0.8 12.35 -1.15 -0.05 2.15 0.0 2.4 0.05 2.65 0.65 2.5 0.7 0.4 1.55 Q0.2 1.25 0.2 2.25 0.25 4.25 3.25 4.25 L6.1 3.95 6.65 4.0 6.8 4.25 7.65 4.5 7.8 4.45 7.7 5.2 7.9 6.15 10.05 6.1 10.15 6.1 10.4 6.4 M-22.1 -2.9 Q-22.15 -3.35 -22.35 -3.45 L-22.7 -3.6 Q-22.7 -6.05 -22.15 -7.2 L-22.2 -7.35 -22.3 -8.6 -20.85 -8.85 Q-20.8 -8.2 -19.35 -5.95 L-18.7 -5.0 -18.95 -4.95 -21.6 -3.5 -22.1 -2.9 M-16.15 -5.35 L-17.55 -7.4 -18.45 -8.5 -18.2 -8.5 -17.9 -9.45 -13.65 -10.5 -13.85 -9.85 -13.8 -9.4 -14.85 -8.2 -16.75 -6.35 -16.15 -5.35 M-12.2 -6.15 L-10.95 -4.25 -11.1 -4.1 -10.35 -4.0 Q-9.6 -4.0 -9.5 -4.2 L-9.35 -4.7 -10.55 -8.05 -10.6 -8.15 Q-8.85 -10.5 -8.85 -11.65 L-8.85 -11.85 -4.4 -13.15 -4.85 -10.5 Q-4.85 -9.2 -3.85 -7.25 L-3.65 -6.9 Q-6.1 -3.8 -6.9 -1.9 L-7.75 -1.85 -10.3 -2.15 -14.7 -1.7 -17.3 -1.45 Q-15.25 -2.7 -12.85 -5.45 L-12.2 -6.15 M-21.65 -0.7 L-22.2 -0.6 -22.2 -0.65 -22.1 -1.1 -21.7 -0.75 -21.65 -0.7 M-10.05 0.5 L-6.7 0.5 -6.5 0.35 -6.35 -0.05 -4.35 -0.05 -4.35 0.9 Q-4.35 5.5 -2.6 12.9 -1.55 17.4 -1.1 21.25 L-6.35 20.75 -7.35 20.55 -9.6 20.55 -9.5 18.0 -9.35 15.25 Q-9.35 7.05 -9.85 2.05 L-10.05 0.5 M-13.35 0.5 L-13.35 7.3 -13.0 15.0 -12.65 20.5 -12.8 20.5 -13.2 20.15 -13.2 20.4 -27.4 20.65 -41.8 21.1 -43.8 21.05 -46.5 17.3 Q-47.2 16.4 -47.2 14.35 -47.2 6.65 -41.85 6.0 L-37.95 5.2 -37.85 5.2 -35.45 4.9 -35.35 4.6 -27.85 2.8 -19.7 1.1 -19.6 1.3 -19.1 0.95 Q-17.5 0.0 -17.05 0.95 L-16.25 0.55 -15.95 0.5 -13.35 0.5" fill="#cdac98" fill-rule="evenodd" stroke="none"/>
    <path d="M9.35 -11.4 L9.8 -11.1 10.0 -11.0 Q9.1 -10.7 8.5 -10.05 L7.7 -9.9 6.4 -10.1 5.1 -10.25 0.85 -9.95 Q-1.2 -9.5 -2.05 -8.1 L-2.25 -8.65 Q-1.6 -9.35 0.3 -10.25 L3.15 -11.5 9.35 -11.4 M-0.9 -5.75 L-0.95 -5.75 -1.35 -6.6 -0.7 -6.65 -0.4 -6.7 -0.55 -6.6 -0.9 -5.75 M17.6 -7.85 L17.9 -8.05 17.95 -7.9 17.6 -7.85 M28.25 0.9 L28.45 0.75 30.4 0.85 30.45 0.85 30.65 2.3 30.0 3.65 29.8 4.75 Q29.15 3.8 28.65 2.2 L28.25 0.9 M-1.15 -0.05 L0.8 12.35 2.35 21.55 -0.8 21.3 -1.1 21.25 Q-1.55 17.4 -2.6 12.9 -4.35 5.5 -4.35 0.9 L-4.35 -0.05 -1.65 -0.05 -1.15 -0.05 M-18.7 -5.0 L-17.1 -3.15 -17.15 -3.1 -16.85 -3.0 -16.1 -3.35 Q-15.85 -3.6 -15.85 -4.45 L-15.85 -4.55 -15.85 -4.6 -16.15 -5.35 -16.75 -6.35 -14.85 -8.2 -13.8 -9.4 Q-13.65 -8.45 -12.75 -7.05 L-12.65 -6.9 -12.3 -6.35 -12.2 -6.15 -12.85 -5.45 Q-15.25 -2.7 -17.3 -1.45 L-17.8 -1.4 -17.7 -2.05 -17.75 -2.05 -18.05 -1.9 -20.1 -1.6 -19.45 -1.55 -19.45 -1.4 -21.65 -0.7 -21.7 -0.75 -22.1 -1.1 -22.05 -1.55 -22.05 -1.7 -22.05 -1.75 -22.05 -2.35 -22.1 -2.9 -21.6 -3.5 -18.95 -4.95 -18.7 -5.0 M-10.6 -8.15 L-11.4 -11.0 -11.4 -11.1 -8.85 -11.85 -8.85 -11.65 Q-8.85 -10.5 -10.6 -8.15 M-3.65 -6.9 L-2.7 -4.9 -5.7 -3.25 Q-5.85 -3.65 -5.85 -2.7 L-5.65 -1.9 -6.9 -1.9 Q-6.1 -3.8 -3.65 -6.9 M-10.05 0.5 L-9.85 2.05 Q-9.35 7.05 -9.35 15.25 L-9.5 18.0 -9.6 20.55 -12.45 20.5 -12.65 20.5 -13.0 15.0 -13.35 7.3 -13.35 0.5 -10.05 0.5" fill="#7f98ff" fill-rule="evenodd" stroke="none"/>
    <path d="M54.8 -0.1 L54.35 -17.65 58.7 -17.3 Q61.65 -16.5 63.6 -15.0 65.35 -13.6 69.2 -11.05 72.2 -8.6 73.0 -5.5 L73.0 -5.4 73.0 -5.35 73.1 -4.15 Q73.25 1.45 70.05 6.85 L68.35 9.4 68.05 4.95 68.55 4.55 68.45 3.85 68.0 4.25 68.0 4.0 67.9 3.85 67.65 3.75 Q67.55 2.0 66.45 0.9 65.45 -0.15 63.5 -0.7 L59.35 -1.1 56.2 -0.7 54.8 -0.1 M71.7 -11.1 L71.3 -11.5 71.5 -11.7 71.7 -11.1 M67.3 -14.2 L67.0 -14.4 66.95 -14.4 66.15 -15.05 67.15 -14.4 67.4 -14.2 67.3 -14.2 M17.95 -7.9 L18.25 -6.15 18.4 -5.5 18.95 -1.05 18.95 -0.5 Q18.85 0.75 17.3 0.8 L16.05 0.7 Q15.75 0.5 15.65 -0.4 L15.6 -0.85 15.55 -1.8 15.75 -5.25 15.8 -5.5 15.95 -6.95 16.2 -8.2 17.3 -8.2 17.5 -8.0 17.6 -7.85 17.95 -7.9 M33.85 -0.9 L34.1 -0.75 33.7 -0.75 33.85 -0.9 M35.45 -10.1 L37.8 -10.4 38.25 -10.4 37.1 -9.45 35.45 -10.1 M37.4 -5.15 L37.25 -4.8 37.15 -4.95 37.4 -5.15 M40.25 -4.35 L39.95 -4.5 40.5 -4.5 40.25 -4.35 M46.6 -6.65 L46.5 -6.75 45.8 -7.6 46.4 -8.2 46.45 -7.65 46.5 -7.65 46.6 -6.65" fill="#221f1c" fill-rule="evenodd" stroke="none"/>
    <path d="M64.75 -22.3 L61.65 -24.1 65.35 -26.85 Q70.05 -30.55 72.8 -31.7 L74.9 -32.85 77.45 -33.0 Q83.45 -33.15 84.55 -32.95 L92.35 -30.65 91.0 -30.6 83.7 -30.45 Q79.2 -30.25 77.2 -29.4 L70.2 -27.3 Q66.4 -25.95 64.3 -22.65 L64.75 -22.3 M60.75 -24.55 L58.35 -25.6 58.35 -25.65 60.75 -27.55 Q64.3 -30.45 67.55 -31.5 L72.05 -32.6 Q65.5 -28.7 60.75 -24.55 M80.4 -29.2 L79.7 -28.95 Q75.8 -27.4 73.1 -25.85 68.0 -23.05 67.45 -20.8 L65.25 -22.05 65.05 -22.2 Q68.1 -25.65 73.05 -27.3 75.65 -28.2 80.4 -29.2 M88.5 29.4 L88.9 29.4 90.9 29.3 90.9 29.35 90.5 29.5 88.5 29.4 M88.75 30.5 Q86.5 31.65 85.3 31.85 L80.15 32.6 77.1 32.85 76.05 32.1 75.25 31.65 75.3 31.2 Q71.0 30.4 67.55 26.9 65.25 24.6 62.25 19.7 59.05 14.45 57.7 12.95 56.2 11.3 54.6 10.55 L55.5 9.55 Q56.7 8.2 57.25 7.95 58.85 7.1 60.6 7.05 L62.55 7.35 64.05 11.45 Q66.05 16.6 66.95 18.15 68.35 20.6 70.3 22.65 L73.8 26.15 Q77.15 29.75 81.0 30.45 L87.75 30.65 88.75 30.5 M75.65 32.9 Q71.15 33.05 70.25 32.85 67.35 32.45 63.25 29.8 L61.95 27.85 60.65 25.45 58.1 21.55 57.45 20.4 59.1 21.7 62.4 24.95 65.6 28.4 Q67.35 30.05 68.7 30.35 L71.1 31.0 71.15 31.0 73.05 31.65 74.95 32.5 75.65 32.9 M56.75 19.3 Q54.75 15.95 54.35 14.5 54.1 13.8 54.0 11.65 L56.9 13.6 Q60.4 16.6 63.25 22.3 65.5 26.9 68.75 29.45 66.35 28.1 62.75 23.95 58.7 19.25 57.55 19.3 L56.75 19.3 M63.6 7.7 L64.25 7.95 66.3 8.85 Q66.9 12.95 70.0 18.6 73.6 25.05 76.15 26.3 L81.5 28.85 Q78.05 28.15 75.25 26.3 70.05 22.7 65.9 13.45 L63.6 7.7" fill="#baae96" fill-rule="evenodd" stroke="none"/>
    <path d="M65.05 -22.2 L64.95 -22.25 64.75 -22.3 64.3 -22.65 Q66.4 -25.95 70.2 -27.3 L77.2 -29.4 Q79.2 -30.25 83.7 -30.45 L91.0 -30.6 92.35 -30.65 93.45 -30.25 86.75 -30.05 86.65 -30.05 86.4 -30.05 81.7 -29.55 80.45 -29.2 80.4 -29.2 Q75.65 -28.2 73.05 -27.3 68.1 -25.65 65.05 -22.2 M61.65 -24.1 L60.95 -24.45 60.75 -24.55 Q65.5 -28.7 72.05 -32.6 L72.05 -32.65 72.5 -32.65 72.65 -32.65 74.9 -32.85 72.8 -31.7 Q70.05 -30.55 65.35 -26.85 L61.65 -24.1 M90.5 29.5 L88.75 30.5 87.75 30.65 81.0 30.45 Q77.15 29.75 73.8 26.15 L70.3 22.65 Q68.35 20.6 66.95 18.15 66.05 16.6 64.05 11.45 L62.55 7.35 63.6 7.7 65.9 13.45 Q70.05 22.7 75.25 26.3 78.05 28.15 81.5 28.85 L83.45 29.55 88.4 29.4 88.5 29.4 90.5 29.5 M77.1 32.85 L76.35 32.9 75.65 32.9 74.95 32.5 73.05 31.65 71.15 31.0 71.1 31.0 68.7 30.35 Q67.35 30.05 65.6 28.4 L62.4 24.95 59.1 21.7 57.45 20.4 56.75 19.3 57.55 19.3 Q58.7 19.25 62.75 23.95 66.35 28.1 68.75 29.45 65.5 26.9 63.25 22.3 60.4 16.6 56.9 13.6 L54.0 11.65 53.95 11.65 53.95 11.2 53.95 11.1 54.6 10.55 Q56.2 11.3 57.7 12.95 59.05 14.45 62.25 19.7 65.25 24.6 67.55 26.9 71.0 30.4 75.3 31.2 L75.25 31.65 76.05 32.1 77.1 32.85" fill="#8b7b5a" fill-rule="evenodd" stroke="none"/>
    <path d="M47.45 -24.75 L47.45 -24.9 47.7 -24.9 47.45 -24.75" fill="#5b6171" fill-rule="evenodd" stroke="none"/>
    <path d="M48.85 14.85 L48.9 12.4 48.85 10.7 48.95 9.05 49.2 8.95 48.95 9.0 48.9 6.1 48.8 2.05 48.7 1.9 48.5 1.8 48.5 1.45 Q48.55 -3.4 47.55 -23.1 L47.55 -23.15 47.45 -24.75 47.7 -24.9 50.1 -25.05 52.3 -25.0 52.3 -24.85 52.35 -22.85 52.75 -11.15 53.05 -3.65 53.3 1.1 52.7 2.15 Q51.95 3.85 52.1 9.1 L52.25 12.2 Q52.4 13.95 52.7 15.3 L50.4 14.8 48.85 14.85 M71.3 -11.5 L70.85 -11.85 Q68.7 -13.15 67.3 -14.2 L67.4 -14.2 67.4 -14.4 67.15 -14.4 66.15 -15.05 66.05 -15.15 65.1 -16.05 64.0 -16.7 Q62.0 -17.75 59.25 -18.35 L54.25 -19.35 54.15 -22.45 53.95 -24.9 54.95 -24.75 56.1 -24.55 56.15 -24.45 56.5 -24.45 58.55 -23.75 58.65 -23.9 62.05 -21.75 66.7 -18.8 66.8 -18.75 66.85 -18.7 66.9 -18.65 66.95 -18.6 67.3 -18.25 69.25 -16.15 Q70.35 -14.5 71.5 -11.7 L71.3 -11.5 M66.2 4.7 Q66.1 5.5 66.15 7.05 L64.45 6.2 Q63.15 5.45 60.45 5.5 58.55 5.55 56.25 6.65 54.6 7.35 53.85 8.3 53.85 2.7 56.45 1.0 57.85 0.1 59.4 0.45 L63.05 0.85 Q65.2 1.8 66.2 4.7 M47.15 3.85 L47.25 3.95 47.25 6.4 47.05 10.75 47.15 13.05 47.1 13.1 47.15 13.1 47.2 15.45 46.35 15.45 45.2 15.6 Q45.35 12.05 45.1 4.4 L45.25 3.7 45.2 3.2 Q46.3 3.35 47.15 3.85 M41.0 3.55 L43.4 3.15 43.1 10.3 43.55 16.1 44.65 15.75 Q43.1 16.2 41.2 17.25 41.4 13.05 41.0 3.55 M39.4 18.3 L39.15 18.5 38.25 19.1 37.5 3.45 35.85 3.4 35.95 6.2 36.7 20.4 34.7 22.35 Q34.85 17.05 34.3 3.3 L39.0 3.5 39.4 18.3 M32.75 24.0 L32.75 23.65 32.45 21.55 32.45 21.4 32.35 20.45 32.7 20.1 32.95 19.8 33.05 20.6 33.3 23.65 33.25 23.85 32.75 24.0 M32.2 19.75 L32.2 19.35 32.15 19.3 32.0 18.6 31.6 18.3 Q31.35 18.2 31.35 17.6 31.3 15.05 31.7 14.0 L32.15 12.8 32.25 12.35 Q32.4 10.95 32.0 9.05 L31.65 7.5 31.5 6.75 31.9 4.45 32.2 3.3 32.65 3.25 32.7 16.05 32.95 19.7 32.85 19.7 32.7 19.75 32.2 19.75 M20.75 1.2 L22.75 1.5 22.8 1.5 24.2 3.1 Q26.25 5.65 27.55 8.25 L28.25 9.5 28.15 9.8 28.5 10.55 29.0 10.9 30.2 13.05 30.0 13.8 29.6 16.5 Q29.65 17.05 30.05 18.25 L30.5 19.4 30.55 19.9 30.4 20.3 Q29.45 22.45 26.2 20.85 L25.65 20.55 24.55 20.5 24.35 20.7 Q24.2 20.8 24.2 21.2 L21.75 21.2 18.05 21.3 18.0 21.25 18.35 20.75 18.45 20.55 18.65 19.7 Q18.65 18.4 17.65 14.25 16.45 9.3 15.2 7.2 L13.6 5.0 13.15 5.0 13.05 5.0 13.65 4.7 Q15.2 3.95 15.55 2.3 L15.65 2.4 17.35 2.4 20.25 1.9 20.75 1.2 M-72.85 13.65 Q-76.85 13.5 -95.3 14.1 L-95.45 12.85 -95.6 7.35 -95.35 7.35 Q-93.35 7.35 -91.15 5.25 L-89.6 3.55 -89.4 3.45 -88.3 3.6 -82.7 3.25 -68.5 2.75 -68.5 3.9 -68.4 9.85 -68.3 9.85 -68.3 13.4 -68.4 13.4 -71.2 13.4 -70.65 12.4 -71.7 13.45 -72.4 13.45 -72.85 13.65 M-92.15 2.6 L-95.5 5.3 Q-95.3 2.55 -94.45 0.35 L-92.05 2.45 -92.15 2.6" fill="#2f2f2f" fill-rule="evenodd" stroke="none"/>
    <path d="M44.9 -18.95 L45.55 -18.95 Q45.7 -18.05 44.85 -16.65 45.65 -15.55 45.65 -15.0 L45.6 -14.2 45.15 -14.2 44.05 -15.5 44.0 -15.4 43.15 -14.2 42.65 -14.75 Q42.7 -15.4 43.25 -16.3 L43.3 -16.45 Q41.65 -18.65 41.4 -19.95 42.15 -19.7 43.85 -17.85 L44.05 -17.6 44.9 -18.95" fill="#ffffff" fill-rule="evenodd" stroke="none"/>
    <path d="M50.95 16.9 Q49.05 16.55 47.95 15.65 L48.35 14.85 48.85 14.85 50.4 14.8 52.7 15.3 Q52.4 13.95 52.25 12.2 L52.1 9.1 Q51.95 3.85 52.7 2.15 L53.3 1.1 53.6 3.35 54.25 3.3 Q54.75 3.0 54.85 1.4 L54.8 -0.1 56.2 -0.7 59.35 -1.1 63.5 -0.7 Q65.45 -0.15 66.45 0.9 67.55 2.0 67.65 3.75 L67.9 3.85 68.0 4.0 68.0 4.25 68.05 4.95 68.35 9.4 70.05 6.85 Q73.25 1.45 73.1 -4.15 L73.0 -5.35 73.05 -5.25 73.9 -5.05 Q74.45 -8.45 71.7 -11.1 L71.5 -11.7 Q70.35 -14.5 69.25 -16.15 L67.3 -18.25 66.95 -18.6 66.9 -18.65 66.85 -18.7 66.8 -18.75 66.7 -18.8 66.4 -19.1 Q64.65 -20.8 64.6 -21.05 L64.8 -21.8 65.2 -22.05 65.25 -22.05 67.45 -20.8 67.35 -20.15 67.6 -19.2 67.55 -19.1 68.2 -19.0 68.85 -19.55 Q71.75 -16.7 73.6 -11.5 76.95 -1.9 71.7 7.05 L68.75 11.5 Q68.95 12.45 69.25 13.0 L70.3 14.35 71.5 16.55 Q73.7 22.7 76.2 24.15 80.15 26.45 82.65 27.2 L88.75 27.85 91.95 27.4 95.2 26.9 96.1 27.05 96.45 27.65 95.75 28.05 95.75 28.1 Q92.65 31.55 86.45 33.2 82.1 34.3 76.5 34.45 L70.35 34.5 Q67.95 34.15 62.9 31.55 61.2 30.7 59.85 28.3 L57.6 24.0 53.3 17.15 53.25 17.0 52.0 17.0 50.95 16.9 M90.5 29.5 L90.9 29.35 90.9 29.3 88.9 29.4 88.5 29.4 88.4 29.4 83.45 29.55 81.5 28.85 76.15 26.3 Q73.6 25.05 70.0 18.6 66.9 12.95 66.3 8.85 L64.25 7.95 63.6 7.7 62.55 7.35 60.6 7.05 Q58.85 7.1 57.25 7.95 56.7 8.2 55.5 9.55 L54.6 10.55 53.95 11.1 53.95 11.2 53.95 11.65 54.0 11.65 Q54.1 13.8 54.35 14.5 54.75 15.95 56.75 19.3 L57.45 20.4 58.1 21.55 60.65 25.45 61.95 27.85 63.25 29.8 Q67.35 32.45 70.25 32.85 71.15 33.05 75.65 32.9 L76.35 32.9 77.1 32.85 80.15 32.6 85.3 31.85 Q86.5 31.65 88.75 30.5 L90.5 29.5 M66.2 4.7 Q65.2 1.8 63.05 0.85 L59.4 0.45 Q57.85 0.1 56.45 1.0 53.85 2.7 53.85 8.3 54.6 7.35 56.25 6.65 58.55 5.55 60.45 5.5 63.15 5.45 64.45 6.2 L66.15 7.05 Q66.1 5.5 66.2 4.7 M-24.6 -7.65 L-25.2 -4.05 -25.2 -1.65 -24.9 -1.7 -24.9 -1.6 -24.9 -0.25 -32.95 1.9 -36.85 2.9 -36.65 0.8 -36.65 -0.6 -36.6 -0.9 Q-36.25 -2.75 -33.3 -4.3 -30.8 -5.65 -25.2 -7.85 L-24.8 -8.05 -24.6 -7.65" fill="#11100f" fill-rule="evenodd" stroke="none"/>
    <path d="M67.4 -14.2 L67.15 -14.4 67.4 -14.4 67.4 -14.2 M68.05 4.95 L68.0 4.25 68.45 3.85 68.55 4.55 68.05 4.95" fill="#332e28" fill-rule="evenodd" stroke="none"/>
    <path d="M47.25 3.95 L47.15 3.85 47.25 3.8 47.25 3.95 M33.65 23.3 L33.25 23.85 32.95 24.4 32.75 24.0 33.25 23.85 33.3 23.65 33.65 23.3 M32.35 20.45 L32.2 19.75 32.7 19.75 32.85 19.7 32.95 19.7 33.1 19.7 32.95 19.8 32.7 20.1 32.35 20.45 M-54.7 19.65 L-54.85 19.05 -52.75 18.05 Q-50.85 17.05 -50.85 16.25 -50.85 15.55 -52.1 14.3 -53.25 13.15 -54.7 12.25 L-55.35 11.55 Q-52.35 11.9 -51.55 11.2 L-51.35 10.25 Q-51.35 10.0 -54.1 7.2 -57.0 4.25 -57.35 3.25 -53.25 3.35 -52.15 2.65 -51.85 2.45 -51.85 1.75 -51.85 1.15 -54.05 -1.1 L-54.85 -1.85 -47.7 -1.5 -47.5 -1.65 -47.35 -2.25 -46.75 -2.0 -46.6 -2.0 -45.7 -2.0 -45.75 -2.5 -38.9 -3.3 -38.85 -3.0 -39.0 -2.25 -39.0 3.3 -40.5 3.55 -43.1 4.15 -43.15 3.75 -43.9 4.4 Q-44.4 4.7 -45.25 4.85 L-45.2 4.95 -47.4 6.35 Q-48.3 7.15 -48.8 8.1 -49.2 8.9 -49.4 10.6 L-49.9 10.55 -49.85 12.25 -49.85 14.15 -49.8 16.3 -49.8 17.4 -49.95 18.35 -49.0 18.3 -48.85 18.65 Q-48.3 20.15 -47.45 20.95 L-52.35 20.85 -52.35 20.5 Q-53.35 20.5 -54.7 19.65 M-51.2 3.9 L-51.65 4.15 -51.15 4.1 -51.2 4.05 -51.2 3.9" fill="#332d26" fill-rule="evenodd" stroke="none"/>
    <path d="M-38.85 -3.0 L-38.9 -3.3 -38.15 -3.4 -38.3 -2.95 -38.85 -3.0 M-45.75 -2.5 L-45.7 -2.0 -46.0 -2.25 -46.6 -2.05 -46.9 -2.4 -46.05 -2.5 -45.75 -2.5" fill="#333333" fill-rule="evenodd" stroke="none"/>
    <path d="M-66.6 20.45 L-66.65 20.45 -66.6 20.35 -66.6 20.45 M-13.2 20.4 L-13.2 20.15 -13.05 20.4 -13.2 20.4" fill="#aa8a71" fill-rule="evenodd" stroke="none"/>
    <path d="M13.65 11.5 Q12.45 9.25 10.4 6.4 L11.65 6.45 13.15 8.35 Q14.0 9.55 14.55 11.15 L13.65 11.5 M15.65 21.4 Q15.6 16.55 14.8 14.1 L14.55 13.35 15.1 12.85 15.45 14.6 16.6 21.1 16.65 21.2 16.65 21.35 16.55 21.35 15.65 21.4 M-57.6 19.05 L-56.9 19.9 -56.15 20.75 -58.7 20.65 -58.45 19.75 -57.85 19.3 -57.6 19.05 M-54.7 19.65 Q-53.35 20.5 -52.35 20.5 L-52.35 20.85 -54.9 20.75 Q-54.65 20.2 -54.7 19.65 M-49.8 16.3 L-49.85 14.15 -49.85 12.25 -49.55 12.25 -49.55 14.1 -49.4 16.4 -49.8 16.3" fill="#221c15" fill-rule="evenodd" stroke="none"/>
    <path d="M-72.4 13.45 L-72.45 13.7 -72.85 13.65 -72.4 13.45" fill="#473612" fill-rule="evenodd" stroke="none"/>
    <path d="M45.2 3.2 L45.25 3.7 45.1 4.4 Q45.35 12.05 45.2 15.6 L44.65 15.75 43.55 16.1 43.1 10.3 43.4 3.15 43.75 3.15 44.1 3.15 44.25 3.15 45.2 3.2 M39.0 3.5 L39.0 3.45 39.55 3.5 39.95 3.5 40.9 3.6 41.0 3.55 Q41.4 13.05 41.2 17.25 L39.4 18.3 39.0 3.5 M38.25 19.1 L38.15 19.2 37.75 19.45 37.65 19.55 36.7 20.4 35.95 6.2 35.85 3.4 37.5 3.45 38.25 19.1 M34.7 22.35 L33.65 23.3 33.3 23.65 33.05 20.6 32.95 19.8 33.1 19.7 32.95 19.7 32.7 16.05 32.65 3.25 32.95 3.25 33.5 3.3 34.3 3.3 Q34.85 17.05 34.7 22.35" fill="#151515" fill-rule="evenodd" stroke="none"/>
    <path d="M47.15 13.1 L47.1 13.1 47.15 13.05 47.15 13.1" fill="#4b4238" fill-rule="evenodd" stroke="none"/>
    <path d="M-66.0 16.5 L-65.95 14.25 -66.05 10.7 Q-66.2 9.4 -66.5 8.55 L-66.3 8.45 -66.25 7.75 -66.35 4.85 Q-66.25 3.7 -66.3 1.95 L-66.35 -0.9 -61.6 -1.15 -61.55 0.05 Q-60.75 -0.95 -58.85 -1.45 L-57.9 -1.65 -57.55 -1.35 Q-56.4 -0.45 -55.95 0.25 L-54.85 0.8 Q-58.85 0.85 -60.0 1.6 -60.35 1.85 -60.35 2.5 -60.35 2.95 -58.0 6.05 L-55.6 9.05 -55.55 9.35 -58.95 9.5 -59.15 9.7 -59.35 10.6 Q-59.35 11.2 -57.05 13.1 L-53.85 15.8 -55.9 16.55 Q-57.1 17.0 -58.35 18.0 L-57.6 19.05 -57.85 19.3 -58.45 19.75 -59.35 20.0 -60.65 19.65 -60.65 20.6 -66.6 20.45 -66.6 20.35 Q-66.2 19.35 -66.05 17.85 L-66.0 17.75 -66.0 17.45 -66.0 17.25 -66.0 16.6 -65.95 16.55 -65.95 16.45 -66.0 16.5" fill="#023f60" fill-rule="evenodd" stroke="none"/>
  </g>
</svg>
