<?xml version="1.0" encoding="UTF-8" standalone="no"?>
<svg xmlns:ffdec="https://www.free-decompiler.com/flash" xmlns:xlink="http://www.w3.org/1999/xlink" ffdec:objectType="shape" height="67.45px" width="105.85px" xmlns="http://www.w3.org/2000/svg">
  <g transform="matrix(1.0, 0.0, 0.0, 1.0, 207.45, 220.75)">
    <path d="M-153.25 -200.5 L-152.8 -200.15 -152.75 -200.1 -152.55 -199.95 Q-149.2 -197.55 -143.35 -197.55 -137.05 -197.55 -132.05 -202.3 -130.2 -204.0 -128.9 -205.95 L-127.25 -206.85 Q-123.95 -208.3 -118.85 -208.3 -114.05 -208.3 -110.85 -206.25 L-104.2 -200.75 Q-102.05 -198.95 -101.65 -196.5 L-101.6 -192.7 Q-101.6 -189.65 -103.1 -186.65 L-104.6 -183.7 Q-104.6 -183.05 -104.1 -182.2 -103.6 -181.3 -103.6 -180.7 L-104.05 -178.2 -104.85 -175.55 -105.1 -170.95 Q-105.1 -169.15 -106.3 -165.3 L-107.95 -160.55 Q-109.25 -156.75 -116.55 -154.7 -121.6 -153.3 -125.85 -153.3 -131.75 -153.3 -134.6 -155.75 L-136.35 -157.5 Q-137.2 -158.25 -138.2 -158.25 -144.65 -158.25 -148.55 -156.75 -152.45 -155.3 -156.0 -155.3 -165.35 -155.3 -168.15 -160.65 L-170.2 -164.35 Q-171.6 -166.05 -174.45 -166.05 -179.4 -166.05 -180.85 -164.4 -182.3 -162.8 -186.75 -162.8 -195.75 -162.8 -200.35 -167.35 -204.05 -172.4 -207.45 -176.15 L-206.25 -176.05 -200.4 -177.05 Q-196.0 -178.05 -195.5 -178.55 -194.05 -180.0 -193.8 -181.2 L-193.75 -183.7 Q-193.75 -185.7 -194.5 -186.85 L-197.75 -191.3 Q-199.25 -193.45 -202.3 -194.65 -204.25 -195.4 -204.25 -198.7 -204.25 -206.05 -194.95 -213.3 -185.75 -220.5 -175.75 -220.75 L-173.2 -218.75 Q-172.85 -218.5 -169.15 -216.7 L-168.2 -215.9 -161.0 -209.05 -153.25 -200.5 M-168.75 -178.95 L-167.25 -175.8 Q-165.6 -172.55 -161.25 -169.05 -155.95 -164.8 -151.1 -164.8 -148.5 -164.8 -147.5 -165.35 -146.9 -165.65 -146.1 -166.5 -143.95 -168.25 -134.35 -168.25 -133.7 -168.25 -133.15 -167.3 L-131.9 -165.25 Q-129.5 -162.3 -123.6 -162.3 -115.15 -162.3 -111.8 -169.3 -110.1 -172.9 -110.1 -177.05 -110.1 -183.1 -114.8 -187.3 -119.9 -191.8 -128.1 -191.8 -134.1 -191.8 -138.9 -187.15 -141.35 -184.8 -142.7 -184.0 -145.1 -182.55 -148.4 -182.55 -150.6 -182.55 -154.2 -185.15 -157.4 -187.4 -157.75 -188.25 -158.3 -189.45 -160.0 -191.2 -162.0 -193.2 -163.95 -194.25 -172.85 -198.05 -179.95 -193.7 -182.4 -192.2 -184.1 -190.0 -185.5 -188.25 -185.5 -187.45 L-185.25 -186.3 Q-184.75 -185.3 -183.25 -185.3 L-175.8 -184.7 -171.45 -181.8 Q-170.0 -181.1 -168.75 -178.95" fill="#ff6633" fill-opacity="0.7176471" fill-rule="evenodd" stroke="none"/>
    <path d="M-168.75 -178.95 Q-170.0 -181.1 -171.45 -181.8 L-175.8 -184.7 -183.25 -185.3 Q-184.75 -185.3 -185.25 -186.3 L-185.5 -187.45 Q-185.5 -188.25 -184.1 -190.0 -182.4 -192.2 -179.95 -193.7 -172.85 -198.05 -163.95 -194.25 -162.0 -193.2 -160.0 -191.2 -158.3 -189.45 -157.75 -188.25 -157.4 -187.4 -154.2 -185.15 -150.6 -182.55 -148.4 -182.55 -145.1 -182.55 -142.7 -184.0 -141.35 -184.8 -138.9 -187.15 -134.1 -191.8 -128.1 -191.8 -119.9 -191.8 -114.8 -187.3 -110.1 -183.1 -110.1 -177.05 -110.1 -172.9 -111.8 -169.3 -115.15 -162.3 -123.6 -162.3 -129.5 -162.3 -131.9 -165.25 L-133.15 -167.3 Q-133.7 -168.25 -134.35 -168.25 -143.95 -168.25 -146.1 -166.5 -146.9 -165.65 -147.5 -165.35 -148.5 -164.8 -151.1 -164.8 -155.95 -164.8 -161.25 -169.05 -165.6 -172.55 -167.25 -175.8 L-168.75 -178.95" fill="#f1ca47" fill-opacity="0.7176471" fill-rule="evenodd" stroke="none"/>
  </g>
</svg>
