<?xml version="1.0" encoding="UTF-8" standalone="no"?>
<svg xmlns:ffdec="https://www.free-decompiler.com/flash" xmlns:xlink="http://www.w3.org/1999/xlink" ffdec:objectType="shape" height="293.5px" width="312.0px" xmlns="http://www.w3.org/2000/svg">
  <g transform="matrix(1.0, 0.0, 0.0, 1.0, 160.5, 316.8)">
    <path d="M8.0 -252.3 Q8.0 -251.1 2.45 -247.75 L-3.75 -244.15 Q-5.4 -242.75 -7.3 -239.55 -9.45 -236.0 -11.0 -234.4 -17.8 -227.45 -19.95 -224.7 -24.6 -218.75 -24.0 -214.9 -23.4 -210.8 -26.8 -205.05 -29.2 -200.95 -34.3 -195.05 -43.1 -184.85 -48.25 -181.85 -52.6 -179.3 -59.65 -179.3 -66.55 -179.3 -67.8 -180.95 L-68.4 -182.55 Q-68.6 -183.6 -69.15 -184.15 -71.3 -186.3 -72.4 -188.55 -73.2 -190.15 -76.5 -193.05 -79.85 -195.95 -80.8 -197.8 -83.7 -203.35 -85.0 -207.9 -86.4 -212.55 -86.4 -217.1 -86.4 -223.3 -83.4 -229.4 -80.25 -235.8 -74.65 -240.4 -69.4 -244.75 -66.4 -251.8 L-64.7 -257.75 Q-63.65 -261.5 -62.4 -262.8 -61.75 -262.3 -61.6 -261.85 L-61.4 -260.45 Q-61.4 -259.15 -62.4 -256.15 L-62.4 -250.8 Q-59.95 -254.4 -58.85 -257.0 -57.25 -260.85 -57.9 -263.8 -58.85 -267.8 -54.65 -276.55 -51.55 -282.85 -47.3 -289.05 -42.3 -296.3 -37.0 -301.3 L-36.25 -301.15 Q-36.0 -301.1 -36.0 -300.3 -36.0 -299.45 -37.5 -297.1 -39.25 -294.35 -40.0 -289.8 -38.75 -292.05 -36.25 -293.95 L-31.5 -297.15 -20.15 -304.65 Q-18.25 -305.8 -12.65 -307.85 -5.85 -310.3 -4.0 -311.15 -1.4 -312.35 4.3 -313.9 12.8 -316.2 20.6 -316.8 L20.8 -316.65 21.0 -315.8 20.9 -315.05 20.6 -314.8 Q16.0 -314.1 14.6 -313.0 L12.0 -310.4 11.85 -309.8 16.9 -310.8 Q20.5 -311.8 25.75 -311.8 30.1 -311.8 37.9 -309.85 L47.35 -307.05 Q50.15 -306.0 53.7 -303.8 L56.5 -301.85 Q59.25 -300.6 62.7 -297.75 L68.0 -292.65 Q76.25 -286.7 78.5 -282.65 L78.4 -282.1 Q78.25 -281.8 77.5 -281.8 76.4 -281.8 75.05 -282.95 L75.0 -282.9 Q75.5 -282.8 74.25 -282.8 73.8 -282.8 73.15 -283.3 70.55 -283.45 59.75 -288.65 L58.6 -289.55 57.6 -289.55 66.25 -279.0 Q71.45 -272.8 76.6 -269.05 86.85 -261.65 89.25 -258.55 L94.5 -248.05 94.35 -247.15 94.1 -247.05 Q94.75 -246.8 93.5 -246.8 L90.4 -248.55 86.5 -250.8 Q83.05 -252.1 81.1 -254.8 L77.1 -260.15 Q74.65 -263.1 72.0 -264.8 L65.3 -269.05 Q61.3 -271.6 58.25 -273.15 54.0 -275.3 47.85 -277.2 40.05 -279.55 34.55 -279.55 29.35 -279.55 24.3 -277.2 L19.0 -274.3 18.25 -274.05 Q19.75 -273.85 24.5 -274.05 L31.6 -274.3 31.8 -274.15 Q32.0 -274.05 32.0 -273.3 32.0 -272.05 25.0 -269.9 L16.5 -267.4 7.8 -264.45 Q1.4 -262.3 0.1 -261.05 L-8.3 -253.05 Q-13.4 -248.0 -14.9 -244.55 L6.75 -253.3 7.6 -253.05 8.0 -252.3 M-61.9 -222.2 Q-61.9 -227.6 -62.2 -230.5 -62.85 -237.4 -64.9 -235.65 -65.45 -235.2 -67.2 -229.25 -68.65 -224.2 -68.85 -222.3 L-70.1 -220.05 Q-71.4 -217.2 -71.4 -211.45 -71.4 -193.3 -54.65 -193.3 -48.1 -193.3 -44.55 -200.0 -42.8 -203.25 -42.0 -207.8 L-41.15 -211.7 Q-40.65 -214.05 -40.5 -215.65 -40.4 -216.7 -39.15 -219.95 -38.0 -223.05 -38.0 -223.7 L-38.05 -224.7 -38.3 -225.05 -39.5 -225.3 -40.8 -225.0 -41.8 -223.9 Q-42.0 -224.05 -42.0 -225.35 -42.0 -229.25 -31.75 -241.1 L-21.5 -252.3 Q-21.5 -253.1 -21.75 -253.15 L-22.5 -253.3 Q-23.4 -253.15 -26.6 -251.4 -29.95 -249.55 -31.0 -249.3 -28.35 -252.8 -23.05 -260.5 -17.95 -267.35 -12.65 -271.8 -5.85 -277.45 2.65 -282.7 16.6 -291.2 25.6 -291.8 L25.9 -292.05 26.0 -292.8 Q26.0 -293.55 25.8 -293.65 L25.6 -293.8 17.25 -294.15 12.0 -294.05 Q-6.8 -291.9 -16.05 -284.45 -18.9 -282.2 -22.4 -278.0 -26.2 -273.5 -28.0 -271.9 L-26.05 -275.9 Q-24.5 -278.9 -24.5 -279.6 -24.5 -280.4 -24.75 -280.55 L-25.5 -280.8 Q-34.15 -275.6 -38.45 -267.6 -39.9 -264.9 -41.3 -260.95 L-43.3 -255.2 -43.5 -255.4 -43.5 -259.15 Q-44.0 -261.85 -45.7 -264.95 L-48.4 -269.8 Q-49.6 -268.35 -49.45 -264.85 -49.3 -260.6 -49.9 -258.9 -49.95 -256.45 -50.7 -253.0 -51.45 -249.6 -52.4 -247.3 L-57.4 -236.55 Q-60.4 -229.65 -60.8 -225.45 L-61.85 -222.15 -61.9 -222.2 M122.5 -260.3 Q122.5 -265.75 125.9 -261.15 L131.1 -252.55 Q134.35 -248.75 135.15 -244.95 135.5 -243.2 135.5 -237.65 L135.6 -234.75 Q135.4 -231.65 134.0 -230.8 133.1 -231.7 132.65 -234.2 132.15 -237.1 131.5 -238.15 L129.0 -241.5 Q127.1 -243.9 126.1 -245.65 123.65 -249.75 123.5 -253.15 L122.95 -257.1 122.5 -260.3 M125.05 -258.3 L125.0 -258.4 125.0 -258.3 125.05 -258.3 M105.15 -285.65 L107.55 -283.95 Q109.5 -282.45 109.9 -281.65 L112.25 -276.85 Q112.65 -275.9 112.65 -273.55 L111.9 -267.1 111.15 -261.75 111.05 -261.45 Q110.9 -261.15 110.15 -261.15 109.3 -261.15 107.85 -266.3 L105.65 -273.75 Q104.6 -275.95 100.35 -280.9 96.65 -285.15 96.65 -286.3 L96.7 -287.15 96.9 -287.5 97.5 -287.5 98.65 -287.15 Q99.95 -286.6 102.05 -286.6 103.8 -286.6 105.15 -285.65 M112.05 -248.0 Q115.0 -245.65 115.0 -244.95 115.0 -243.6 114.0 -243.0 112.9 -242.4 110.25 -242.4 104.6 -242.4 102.75 -246.75 101.8 -248.95 102.0 -251.45 102.0 -254.95 103.35 -256.65 105.2 -258.9 108.1 -253.15 108.85 -250.55 112.05 -248.0 M-41.65 -293.25 L-41.5 -293.15 -41.55 -293.4 -41.65 -293.25 M-4.25 -246.4 L-4.0 -246.65 -4.3 -246.55 -4.25 -246.4" fill="#ff6633" fill-opacity="0.8509804" fill-rule="evenodd" stroke="none"/>
    <path d="M-43.3 -255.2 L-41.3 -260.95 Q-39.9 -264.9 -38.45 -267.6 -34.15 -275.6 -25.5 -280.8 L-24.75 -280.55 Q-24.5 -280.4 -24.5 -279.6 -24.5 -278.9 -26.05 -275.9 L-28.0 -271.9 Q-26.2 -273.5 -22.4 -278.0 -18.9 -282.2 -16.05 -284.45 -6.8 -291.9 12.0 -294.05 L17.25 -294.15 25.6 -293.8 25.8 -293.65 Q26.0 -293.55 26.0 -292.8 L25.9 -292.05 25.6 -291.8 Q16.6 -291.2 2.65 -282.7 -5.85 -277.45 -12.65 -271.8 -17.95 -267.35 -23.05 -260.5 -28.35 -252.8 -31.0 -249.3 -29.95 -249.55 -26.6 -251.4 -23.4 -253.15 -22.5 -253.3 L-21.75 -253.15 Q-21.5 -253.1 -21.5 -252.3 L-31.75 -241.1 Q-42.0 -229.25 -42.0 -225.35 -42.0 -224.05 -41.8 -223.9 L-40.8 -225.0 -39.5 -225.3 -38.3 -225.05 -38.05 -224.7 -38.0 -223.7 Q-38.0 -223.05 -39.15 -219.95 -40.4 -216.7 -40.5 -215.65 -40.65 -214.05 -41.15 -211.7 L-42.0 -207.8 Q-42.8 -203.25 -44.55 -200.0 -48.1 -193.3 -54.65 -193.3 -71.4 -193.3 -71.4 -211.45 -71.4 -217.2 -70.1 -220.05 L-68.85 -222.3 Q-68.65 -224.2 -67.2 -229.25 -65.45 -235.2 -64.9 -235.65 -62.85 -237.4 -62.2 -230.5 -61.9 -227.6 -61.9 -222.2 L-61.9 -222.05 -61.85 -222.15 -60.8 -225.45 Q-60.4 -229.65 -57.4 -236.55 L-52.4 -247.3 Q-51.45 -249.6 -50.7 -253.0 -49.95 -256.45 -49.9 -258.9 -49.3 -260.6 -49.45 -264.85 -49.6 -268.35 -48.4 -269.8 L-45.7 -264.95 Q-44.0 -261.85 -43.5 -259.15 L-43.5 -255.4 -43.6 -255.3 -43.5 -254.8 -43.3 -255.2 M16.5 -292.15 L15.4 -292.0 15.5 -291.65 16.5 -292.15 M-45.55 -254.8 L-45.8 -255.15 -45.85 -255.05 -45.55 -254.8 M-53.25 -242.4 L-54.3 -240.5 -56.25 -236.4 -53.55 -241.8 -53.25 -242.4 M-41.5 -220.55 L-41.55 -220.8 -41.65 -220.65 -41.5 -220.55 M-29.75 -247.15 L-29.75 -246.9 -29.3 -247.3 -29.75 -247.15" fill="#f1ca47" fill-opacity="0.81960785" fill-rule="evenodd" stroke="none"/>
    <path d="M7.6 -253.05 Q8.0 -253.55 8.0 -252.3 L7.6 -253.05 M-61.9 -222.2 L-61.85 -222.15 -61.9 -222.05 -61.9 -222.2 M-43.5 -255.4 L-43.3 -255.2 -43.5 -254.8 -43.6 -255.3 -43.5 -255.4 M120.25 -235.45 Q122.5 -235.4 122.5 -232.9 122.5 -231.95 122.0 -231.4 121.45 -230.8 120.5 -230.8 118.0 -230.8 118.0 -232.65 118.0 -235.5 120.25 -235.45 M146.35 -224.4 L146.5 -221.2 Q146.5 -218.25 146.0 -217.2 145.15 -215.5 142.0 -214.15 L141.25 -214.35 Q141.0 -214.5 141.0 -215.3 L142.5 -218.05 142.5 -218.15 Q142.5 -220.05 142.8 -221.9 143.2 -224.4 144.0 -225.15 L144.4 -224.5 146.35 -224.4 M129.15 -229.6 Q130.55 -230.95 132.35 -230.05 L132.5 -227.6 132.35 -225.15 Q132.25 -224.8 131.0 -224.8 129.75 -224.8 128.75 -226.05 128.0 -227.05 128.0 -227.45 128.0 -228.5 129.15 -229.6 M144.0 -202.25 Q144.0 -204.05 144.2 -204.35 144.75 -205.15 147.35 -204.9 L147.5 -203.4 Q147.5 -202.3 147.15 -201.7 146.55 -200.7 145.0 -200.15 144.25 -200.45 144.05 -201.1 L144.0 -201.75 144.0 -201.8 144.0 -202.25 M148.5 -187.8 Q147.85 -188.05 147.5 -188.4 148.3 -189.8 149.0 -189.8 149.7 -189.5 150.0 -188.8 L149.4 -188.15 Q148.85 -187.8 148.5 -187.8 M151.25 -179.05 L151.5 -178.1 151.4 -177.3 151.25 -177.15 Q151.75 -176.8 150.5 -176.8 L149.65 -176.95 149.5 -177.4 149.55 -177.8 149.5 -177.8 Q148.85 -178.05 148.5 -178.4 149.3 -179.8 150.0 -179.8 L150.8 -179.15 151.25 -179.05 M34.0 -47.95 Q34.0 -46.5 27.95 -42.8 L19.5 -37.95 11.9 -37.95 11.7 -38.1 Q11.5 -38.3 11.5 -39.05 L13.65 -39.4 Q17.25 -39.6 22.25 -41.7 L26.5 -43.9 Q28.3 -44.7 30.3 -46.7 32.15 -48.6 33.0 -48.95 L33.7 -48.8 Q34.0 -48.7 34.0 -47.95 M25.5 -37.95 L25.65 -37.1 Q25.65 -36.05 24.5 -35.35 23.85 -34.95 21.65 -34.1 L20.65 -34.8 Q21.05 -35.6 22.4 -36.6 23.95 -37.85 25.3 -37.85 L25.5 -37.95 M29.0 -33.6 Q29.0 -34.4 29.15 -34.55 29.4 -34.65 29.5 -34.8 L31.2 -34.2 Q32.6 -33.55 33.0 -32.85 L32.75 -32.25 Q32.55 -31.85 31.75 -31.85 L30.6 -32.0 29.3 -32.35 29.15 -32.6 Q29.0 -32.85 29.0 -33.6 M26.75 -26.8 L23.5 -28.65 Q20.0 -30.3 16.3 -29.3 L16.15 -29.45 Q16.0 -29.65 16.0 -30.4 16.0 -31.25 18.15 -31.7 20.7 -32.2 23.5 -30.75 L25.75 -29.6 Q27.75 -28.5 28.0 -27.8 L27.75 -27.2 Q27.55 -26.8 26.75 -26.8 M35.05 -26.8 Q37.45 -27.25 40.0 -24.5 L39.9 -23.75 Q39.75 -23.3 39.0 -23.3 L37.55 -23.45 33.3 -23.8 33.15 -23.95 Q33.0 -24.15 33.0 -24.9 33.0 -26.4 35.05 -26.8 M-135.5 -231.8 L-134.75 -231.65 Q-134.5 -231.6 -134.5 -230.8 -134.5 -230.5 -136.95 -227.8 -139.45 -225.05 -140.0 -224.8 L-140.7 -225.0 Q-141.0 -225.15 -141.0 -225.95 -141.0 -226.6 -138.85 -229.0 -136.65 -231.5 -135.5 -231.8 M-125.75 -230.65 Q-125.5 -230.6 -125.5 -229.8 -125.5 -229.05 -127.05 -228.05 -128.55 -227.1 -130.0 -226.8 L-131.0 -227.4 Q-130.5 -228.25 -128.75 -229.5 L-126.5 -230.8 -125.75 -230.65 M-151.5 -219.3 L-152.2 -219.4 Q-152.5 -219.5 -152.5 -220.3 -152.5 -222.1 -150.5 -223.3 -148.5 -224.5 -148.5 -222.6 -148.5 -221.75 -149.55 -220.9 L-151.5 -219.3 M-126.35 -208.55 L-126.0 -207.8 Q-126.15 -207.1 -127.0 -206.8 L-130.1 -206.8 -130.5 -208.15 -126.35 -208.55 M-115.5 -218.8 Q-115.75 -217.8 -117.0 -217.8 L-118.1 -218.05 -118.45 -218.15 -118.5 -218.95 -118.45 -219.8 -118.25 -220.15 Q-117.05 -220.15 -115.85 -219.55 L-115.5 -218.8 M-121.25 -160.3 Q-122.6 -160.3 -123.0 -162.8 -123.0 -163.55 -122.5 -163.7 L-122.0 -163.8 -120.75 -162.45 -120.0 -161.3 -120.2 -160.65 Q-120.45 -160.3 -121.25 -160.3 M-155.85 -153.3 L-155.5 -152.3 Q-155.65 -151.6 -156.5 -151.3 L-160.1 -151.3 -160.3 -151.4 Q-160.5 -151.55 -160.5 -152.3 L-160.2 -152.95 -155.85 -153.3 M-150.0 -154.3 Q-149.35 -153.85 -149.15 -153.2 -149.0 -152.75 -149.0 -151.8 L-149.4 -151.6 -150.0 -151.3 -150.7 -151.6 Q-151.0 -151.85 -151.0 -152.65 -151.0 -154.0 -150.0 -154.3 M-141.1 -132.65 L-142.0 -132.3 Q-143.2 -133.5 -143.25 -135.45 L-143.5 -138.9 -144.4 -142.35 Q-145.3 -144.25 -148.0 -145.4 L-148.0 -146.55 Q-144.2 -147.1 -142.3 -142.35 -141.0 -139.15 -141.0 -135.65 L-141.1 -132.65 M-136.9 -128.05 Q-134.6 -128.35 -132.5 -125.9 L-132.7 -125.2 Q-132.95 -124.8 -133.75 -124.8 L-135.15 -124.95 -138.6 -125.3 -138.8 -125.4 -139.0 -126.3 Q-139.0 -127.75 -136.9 -128.05 M-142.65 -130.15 Q-142.5 -130.05 -142.5 -129.3 L-142.6 -128.55 -142.85 -128.3 -149.85 -127.9 -150.3 -127.3 Q-150.45 -126.9 -151.0 -126.8 L-152.0 -127.4 Q-151.9 -128.55 -151.0 -129.3 -149.15 -130.85 -142.85 -130.3 L-142.65 -130.15 M-122.5 -115.15 Q-121.0 -114.65 -120.35 -114.15 -119.35 -113.5 -119.0 -112.3 L-119.2 -111.65 Q-119.45 -111.3 -120.25 -111.3 -121.9 -111.3 -123.0 -113.95 L-122.85 -114.9 -122.5 -115.15 M-129.1 -116.7 L-129.0 -113.9 Q-129.0 -110.85 -129.25 -110.2 -129.85 -108.7 -133.0 -105.8 L-138.6 -105.8 -138.8 -105.9 -139.0 -106.8 -136.0 -107.45 Q-132.7 -107.9 -131.5 -110.3 -131.0 -111.3 -131.0 -113.45 L-131.05 -115.8 Q-131.25 -116.45 -132.75 -118.15 -133.75 -119.3 -136.25 -119.75 -138.45 -120.2 -139.5 -122.05 -138.05 -122.95 -135.0 -121.75 -133.05 -120.95 -130.85 -119.55 -129.4 -118.3 -129.1 -116.7 M-111.8 -87.55 Q-111.0 -85.7 -111.0 -84.95 -111.0 -84.2 -111.15 -84.1 L-111.35 -84.05 -111.2 -83.9 -112.0 -83.8 Q-113.35 -83.8 -114.0 -88.05 -114.0 -89.7 -113.0 -89.8 L-111.8 -87.55 M-106.5 -76.7 L-107.0 -73.05 -107.5 -69.4 -107.35 -65.05 Q-106.95 -63.35 -105.0 -60.0 L-105.2 -59.25 Q-105.45 -58.8 -106.25 -58.8 -108.15 -58.8 -109.0 -63.95 L-109.5 -69.45 -109.4 -73.95 Q-109.05 -76.1 -107.5 -77.8 L-106.75 -77.6 Q-106.5 -77.5 -106.5 -76.7 M-122.6 -36.35 Q-123.0 -35.25 -124.0 -34.8 L-124.7 -34.95 Q-125.0 -35.1 -125.0 -35.9 -125.0 -37.3 -123.3 -39.65 -121.15 -42.7 -118.35 -41.55 L-118.15 -41.65 Q-118.0 -41.6 -118.0 -40.8 -118.0 -40.25 -119.8 -39.25 L-122.1 -37.75 -122.6 -36.35" fill="#ff8c66" fill-opacity="0.7176471" fill-rule="evenodd" stroke="none"/>
  </g>
</svg>
