<?xml version="1.0" encoding="UTF-8" standalone="no"?>
<svg xmlns:ffdec="https://www.free-decompiler.com/flash" xmlns:xlink="http://www.w3.org/1999/xlink" ffdec:objectType="shape" height="127.35px" width="140.0px" xmlns="http://www.w3.org/2000/svg">
  <g transform="matrix(1.0, 0.0, 0.0, 1.0, 235.25, 250.35)">
    <path d="M-157.35 -222.65 L-157.65 -222.65 -157.45 -222.5 -157.35 -222.65 M-122.1 -206.5 Q-112.8 -192.4 -114.45 -181.55 -113.7 -174.7 -115.3 -167.7 -116.75 -161.3 -119.9 -155.85 -126.3 -144.75 -134.95 -141.05 -153.15 -133.1 -183.15 -150.45 -192.5 -155.85 -197.6 -160.65 -200.65 -163.55 -208.4 -173.0 -210.6 -175.7 -215.55 -188.2 -218.45 -195.7 -217.2 -200.45 -216.8 -201.8 -212.65 -208.95 -208.0 -217.0 -205.4 -220.5 -200.3 -227.4 -195.95 -228.3 L-182.15 -227.8 -171.0 -226.05 -160.45 -226.85 Q-152.75 -227.05 -147.75 -225.8 -132.4 -222.0 -122.1 -206.5" fill="#eecb5e" fill-opacity="0.49803922" fill-rule="evenodd" stroke="none"/>
    <path d="M-138.95 -241.0 Q-132.0 -237.95 -126.95 -236.45 -123.9 -235.05 -116.05 -227.8 -109.6 -222.25 -107.3 -219.4 L-98.85 -210.95 -97.15 -209.15 -96.9 -208.1 -95.95 -203.65 Q-96.2 -202.25 -95.8 -199.75 -95.2 -195.6 -95.25 -194.65 -96.15 -188.5 -96.3 -185.45 -96.9 -169.5 -97.35 -166.15 -98.45 -157.05 -102.3 -150.35 -105.95 -144.0 -111.1 -138.5 -115.5 -133.75 -122.35 -128.1 -133.25 -119.25 -158.95 -125.75 -177.4 -130.45 -190.6 -138.05 -211.6 -150.2 -219.5 -159.35 -228.9 -170.35 -233.85 -191.35 -236.3 -201.75 -234.45 -207.6 -233.95 -209.15 -228.4 -218.85 -217.4 -237.85 -201.4 -245.3 -176.1 -257.2 -138.95 -241.0 M-122.1 -206.5 Q-132.4 -222.0 -147.75 -225.8 -152.75 -227.05 -160.45 -226.85 L-171.0 -226.05 -182.15 -227.8 -195.95 -228.3 Q-200.3 -227.4 -205.4 -220.5 -208.0 -217.0 -212.65 -208.95 -216.8 -201.8 -217.2 -200.45 -218.45 -195.7 -215.55 -188.2 -210.6 -175.7 -208.4 -173.0 -200.65 -163.55 -197.6 -160.65 -192.5 -155.85 -183.15 -150.45 -153.15 -133.1 -134.95 -141.05 -126.3 -144.75 -119.9 -155.85 -116.75 -161.3 -115.3 -167.7 -113.7 -174.7 -114.45 -181.55 -112.8 -192.4 -122.1 -206.5" fill="#fe885b" fill-opacity="0.49803922" fill-rule="evenodd" stroke="none"/>
  </g>
</svg>
