<?xml version="1.0" encoding="UTF-8" standalone="no"?>
<svg xmlns:ffdec="https://www.free-decompiler.com/flash" xmlns:xlink="http://www.w3.org/1999/xlink" ffdec:objectType="shape" height="60.35px" width="83.65px" xmlns="http://www.w3.org/2000/svg">
  <g transform="matrix(1.0, 0.0, 0.0, 1.0, 0.5, 0.5)">
    <path d="M58.0 0.45 L64.9 0.05 Q68.45 0.2 70.9 1.1 79.4 4.2 82.0 7.5 L72.2 16.85 Q71.55 15.75 70.25 14.9 L67.65 13.55 Q66.35 12.9 64.2 12.75 L60.35 13.0 Q57.55 13.55 55.6 15.5 54.9 16.2 55.05 18.05 55.2 19.8 55.85 20.4 L56.85 21.45 Q57.35 21.9 58.1 22.15 L60.95 22.75 68.75 23.8 Q71.3 24.2 74.45 25.5 76.8 26.45 79.25 29.2 L80.45 30.8 Q81.25 32.1 81.9 34.1 82.65 36.15 82.65 38.9 82.75 40.3 82.3 43.05 81.9 46.05 80.05 49.5 79.2 51.1 77.75 52.55 L74.25 55.6 Q72.75 56.75 70.25 57.45 64.85 59.1 61.1 59.3 L52.65 58.85 Q48.35 58.4 43.7 55.95 L40.5 54.0 40.5 59.15 0.0 59.15 0.0 0.45 38.7 0.45 38.7 12.65 14.3 12.65 14.3 23.65 35.6 23.65 35.6 35.85 14.45 35.85 14.45 46.65 40.5 46.65 40.5 48.9 47.45 42.1 Q48.15 43.6 50.35 44.75 L53.95 46.25 Q55.95 47.05 59.8 46.95 L64.35 46.35 66.85 45.05 Q68.45 43.9 68.6 42.15 68.85 39.65 67.65 38.3 66.85 37.4 65.2 36.9 L62.1 36.3 58.0 35.65 Q51.7 34.45 49.35 33.55 46.25 32.4 43.35 28.5 41.05 25.45 40.95 19.65 41.0 16.05 41.15 14.95 41.4 12.45 42.4 10.6 45.05 6.0 48.65 3.6 50.75 2.2 52.85 1.55 L58.0 0.45" fill="#fb0a08" fill-rule="evenodd" stroke="none"/>
    <path d="M58.0 0.45 L52.85 1.55 Q50.75 2.2 48.65 3.6 45.05 6.0 42.4 10.6 41.4 12.45 41.15 14.95 41.0 16.05 40.95 19.65 41.05 25.45 43.35 28.5 46.25 32.4 49.35 33.55 51.7 34.45 58.0 35.65 L62.1 36.3 65.2 36.9 Q66.85 37.4 67.65 38.3 68.85 39.65 68.6 42.15 68.45 43.9 66.85 45.05 L64.35 46.35 59.8 46.95 Q55.95 47.05 53.95 46.25 L50.35 44.75 Q48.15 43.6 47.45 42.1 L40.5 48.9 40.5 46.65 14.45 46.65 14.45 35.85 35.6 35.85 35.6 23.65 14.3 23.65 14.3 12.65 38.7 12.65 38.7 0.45 0.0 0.45 0.0 59.15 40.5 59.15 40.5 54.0 43.7 55.95 Q48.35 58.4 52.65 58.85 L61.1 59.3 Q64.85 59.1 70.25 57.45 72.75 56.75 74.25 55.6 L77.75 52.55 Q79.2 51.1 80.05 49.5 81.9 46.05 82.3 43.05 82.75 40.3 82.65 38.9 82.65 36.15 81.9 34.1 81.25 32.1 80.45 30.8 L79.25 29.2 Q76.8 26.45 74.45 25.5 71.3 24.2 68.75 23.8 L60.95 22.75 58.1 22.15 Q57.35 21.9 56.85 21.45 L55.85 20.4 Q55.2 19.8 55.05 18.05 54.9 16.2 55.6 15.5 57.55 13.55 60.35 13.0 L64.2 12.75 Q66.35 12.9 67.65 13.55 L70.25 14.9 Q71.55 15.75 72.2 16.85 L82.0 7.5 Q79.4 4.2 70.9 1.1 68.45 0.2 64.9 0.05 L58.0 0.45 Z" fill="none" stroke="#000000" stroke-linecap="round" stroke-linejoin="round" stroke-width="1.0"/>
  </g>
</svg>
