<?xml version="1.0" encoding="UTF-8" standalone="no"?>
<svg xmlns:ffdec="https://www.free-decompiler.com/flash" xmlns:xlink="http://www.w3.org/1999/xlink" ffdec:objectType="shape" height="122.1px" width="126.9px" xmlns="http://www.w3.org/2000/svg">
  <g transform="matrix(1.0, 0.0, 0.0, 1.0, 219.4, 245.3)">
    <path d="M-136.55 -220.4 Q-140.9 -221.85 -147.95 -222.1 L-157.55 -221.95 Q-158.75 -221.95 -167.45 -224.2 -175.35 -226.25 -179.95 -225.5 -184.0 -224.9 -189.55 -218.7 -192.4 -215.6 -197.65 -208.3 -202.35 -201.8 -202.85 -200.55 -204.6 -196.15 -203.0 -188.95 -200.15 -176.95 -198.5 -174.25 -192.75 -164.85 -190.35 -162.0 -186.35 -157.2 -178.6 -151.6 -153.65 -133.55 -136.05 -139.95 -127.8 -143.0 -120.5 -153.05 -116.95 -158.0 -114.8 -163.85 -112.4 -170.4 -112.2 -176.85 -109.25 -186.95 -115.8 -200.7 -123.1 -215.9 -136.55 -220.4 M-94.15 -203.6 L-92.9 -201.8 -92.8 -200.75 -92.5 -196.55 Q-92.9 -195.25 -92.85 -192.85 -92.9 -188.9 -93.1 -188.0 L-95.25 -179.45 Q-97.9 -164.5 -98.7 -161.35 -100.9 -152.9 -105.3 -146.8 -109.45 -141.1 -114.8 -136.15 -119.45 -132.0 -126.35 -127.1 -137.45 -119.4 -159.9 -127.0 -176.0 -132.45 -187.0 -140.4 -204.4 -153.0 -210.4 -162.05 -217.45 -172.95 -219.2 -192.95 -220.0 -202.85 -217.6 -208.35 -216.95 -209.7 -210.6 -218.45 -198.15 -235.7 -182.65 -241.8 -158.15 -251.5 -126.6 -234.15 -120.7 -230.85 -116.3 -229.15 -113.7 -227.65 -107.6 -220.4 -102.45 -214.8 -100.7 -212.0 L-94.15 -203.6" fill="#fe885b" fill-opacity="0.49803922" fill-rule="evenodd" stroke="none"/>
    <path d="M-145.65 -217.95 L-145.95 -217.9 -145.8 -217.8 -145.65 -217.95 M-136.55 -220.4 Q-123.1 -215.9 -115.8 -200.7 -109.25 -186.95 -112.2 -176.85 -112.4 -170.4 -114.8 -163.85 -116.95 -158.0 -120.5 -153.05 -127.8 -143.0 -136.05 -139.95 -153.65 -133.55 -178.6 -151.6 -186.35 -157.2 -190.35 -162.0 -192.75 -164.85 -198.5 -174.25 -200.15 -176.95 -203.0 -188.95 -204.6 -196.15 -202.85 -200.55 -202.35 -201.8 -197.65 -208.3 -192.4 -215.6 -189.55 -218.7 -184.0 -224.9 -179.95 -225.5 -175.35 -226.25 -167.45 -224.2 -158.75 -221.95 -157.55 -221.95 L-147.95 -222.1 Q-140.9 -221.85 -136.55 -220.4" fill="#eecb5e" fill-opacity="0.49803922" fill-rule="evenodd" stroke="none"/>
  </g>
</svg>
