<?xml version="1.0" encoding="UTF-8" standalone="no"?>
<svg xmlns:ffdec="https://www.free-decompiler.com/flash" xmlns:xlink="http://www.w3.org/1999/xlink" ffdec:objectType="shape" height="71.7px" width="99.5px" xmlns="http://www.w3.org/2000/svg">
  <g transform="matrix(1.0, 0.0, 0.0, 1.0, 42.55, 43.75)">
    <path d="M-1.25 -37.75 L-1.45 -36.7 -1.2 -36.6 Q-1.85 -35.9 -4.15 -34.2 L-9.7 -30.0 -12.4 -27.35 -12.55 -27.2 -12.2 -27.15 -13.65 -25.55 -13.9 -25.3 Q-22.0 -16.15 -25.4 -7.3 -26.7 -3.85 -29.65 1.8 L-34.15 10.7 -37.5 19.3 -40.1 26.25 Q-38.35 26.15 -36.4 26.2 L-33.05 26.25 -30.15 25.8 Q-28.7 25.35 -28.45 23.7 L-28.45 19.5 -25.95 15.35 Q-24.2 12.45 -22.95 11.25 -19.0 7.5 -9.6 3.7 -2.4 0.75 0.85 0.2 L15.0 -2.5 25.05 -4.6 27.45 -5.25 28.2 -5.4 29.25 -5.85 29.35 -5.65 42.45 -8.6 40.7 -9.25 36.95 -10.35 Q37.4 -12.1 41.55 -13.15 L49.95 -14.85 51.8 -15.0 45.6 -16.4 Q42.45 -17.15 42.45 -18.3 42.45 -19.05 43.35 -19.3 L47.3 -20.35 44.85 -23.65 44.9 -23.75 43.45 -25.8 Q40.95 -29.9 40.95 -31.05 L41.0 -31.6 40.95 -31.75 40.95 -31.95 Q40.95 -33.7 39.2 -36.55 L39.15 -36.65 38.95 -37.2 38.3 -38.1 Q39.1 -38.3 39.75 -38.1 40.75 -37.8 41.3 -36.45 42.1 -33.35 42.95 -32.15 L43.1 -31.4 43.8 -30.3 44.45 -28.55 45.2 -27.2 Q47.35 -23.55 49.95 -21.9 L49.9 -21.6 Q51.3 -21.45 53.8 -20.45 L54.0 -20.15 Q53.9 -19.15 53.35 -18.85 L47.45 -18.05 52.55 -17.2 Q55.5 -16.7 56.95 -15.2 56.95 -14.25 56.4 -13.9 55.55 -13.4 49.7 -12.95 L45.9 -12.05 42.45 -11.1 41.55 -10.85 Q43.85 -10.45 44.85 -9.55 45.45 -9.0 45.45 -8.35 45.45 -7.25 42.15 -6.55 L32.95 -4.5 20.95 -1.2 20.15 -1.35 13.55 0.2 -1.9 3.2 Q-5.35 4.1 -9.05 5.85 L-14.7 8.5 Q-18.35 9.95 -20.0 11.35 -21.35 12.45 -23.15 15.2 -25.05 18.1 -27.15 26.1 L-26.95 26.45 -26.95 26.9 -26.95 26.95 Q-26.95 27.65 -27.1 27.65 L-27.4 27.95 -38.95 27.95 -41.55 27.2 -42.45 26.6 -42.55 26.5 -42.45 25.35 -42.45 25.15 -42.2 25.15 -42.1 25.15 -41.9 24.5 Q-40.5 19.95 -35.0 8.45 -27.15 -7.5 -26.4 -9.3 -23.65 -15.65 -22.1 -18.35 -20.05 -22.0 -17.45 -24.95 -17.25 -25.75 -14.2 -28.65 L-10.35 -32.1 Q-6.2 -35.6 -1.35 -37.65 L-1.25 -37.75 M41.15 -22.1 L41.55 -22.2 41.95 -22.1 41.15 -22.1" fill="#000000" fill-rule="evenodd" stroke="none"/>
    <path d="M39.75 -38.1 Q39.1 -38.3 38.3 -38.1 L38.95 -37.2 39.15 -36.65 39.2 -36.55 Q40.95 -33.7 40.95 -31.95 L40.95 -31.75 41.0 -31.6 40.95 -31.05 Q40.95 -29.9 43.45 -25.8 L44.9 -23.75 44.85 -23.65 47.3 -20.35 43.35 -19.3 Q42.45 -19.05 42.45 -18.3 42.45 -17.15 45.6 -16.4 L51.8 -15.0 49.95 -14.85 41.55 -13.15 Q37.4 -12.1 36.95 -10.35 L40.7 -9.25 42.45 -8.6 29.35 -5.65 29.25 -5.85 28.2 -5.4 27.45 -5.25 25.05 -4.6 15.0 -2.5 0.85 0.2 Q-2.4 0.75 -9.6 3.7 -19.0 7.5 -22.95 11.25 -24.2 12.45 -25.95 15.35 L-28.45 19.5 -28.45 23.7 Q-28.7 25.35 -30.15 25.8 L-33.05 26.25 -36.4 26.2 Q-38.35 26.15 -40.1 26.25 L-37.5 19.3 -34.15 10.7 -29.65 1.8 Q-26.7 -3.85 -25.4 -7.3 -22.0 -16.15 -13.9 -25.3 L-13.65 -25.55 -12.2 -27.15 -12.55 -27.2 -12.4 -27.35 -9.7 -30.0 -4.15 -34.2 Q-1.85 -35.9 -1.2 -36.6 L-1.45 -36.7 -1.25 -37.75 -1.1 -38.1 Q0.45 -38.8 2.1 -39.95 L2.65 -40.35 2.75 -40.3 2.85 -40.45 Q5.85 -42.05 15.95 -43.2 L28.45 -43.75 Q34.15 -43.55 38.25 -39.45 L39.4 -38.55 39.75 -38.1 M41.15 -22.1 L41.95 -22.1 41.55 -22.2 41.15 -22.1" fill="#242939" fill-rule="evenodd" stroke="none"/>
  </g>
</svg>
