<?xml version="1.0" encoding="UTF-8" standalone="no"?>
<svg xmlns:ffdec="https://www.free-decompiler.com/flash" xmlns:xlink="http://www.w3.org/1999/xlink" ffdec:objectType="shape" height="146.0px" width="133.6px" xmlns="http://www.w3.org/2000/svg">
  <g transform="matrix(1.0, 0.0, 0.0, 1.0, 66.8, 70.4)">
    <path d="M51.05 -67.0 Q47.35 -65.95 42.75 -62.6 37.65 -58.7 35.0 -57.0 33.95 -56.3 30.3 -51.05 L27.75 -47.7 Q28.8 -46.75 29.5 -46.75 30.85 -46.75 41.65 -56.75 L50.1 -64.7 50.15 -64.75 50.6 -65.8 51.0 -66.5 51.0 -66.55 51.15 -66.75 51.05 -67.0 M52.25 -63.65 Q49.7 -58.1 49.5 -56.75 48.55 -51.05 46.7 -43.85 50.6 -45.4 55.6 -48.7 61.35 -52.55 63.55 -53.0 L64.1 -53.1 64.15 -52.9 64.05 -50.7 63.8 -48.5 Q63.8 -47.25 65.3 -43.5 66.8 -39.75 66.8 -37.05 L66.7 -33.45 Q66.3 -30.95 64.8 -29.85 64.55 -29.95 64.4 -30.4 64.25 -30.8 63.55 -30.8 58.75 -30.8 57.8 -29.55 L57.8 -28.05 57.75 -26.5 Q57.75 -25.9 58.3 -25.8 L63.15 -24.85 Q63.8 -24.65 63.8 -24.25 63.8 -22.7 59.8 -13.55 58.65 -11.05 56.45 -8.8 52.6 -4.85 47.8 -4.85 L47.3 -4.85 47.9 -3.8 48.6 -2.4 Q52.0 4.65 53.3 13.65 L55.0 26.65 Q56.65 34.55 61.8 40.2 L61.45 40.85 60.3 41.15 55.7 38.6 49.35 34.65 49.35 34.35 49.3 35.0 Q49.3 37.3 54.55 45.55 L59.8 53.4 59.6 54.4 58.05 54.65 Q54.4 54.65 47.0 49.35 L39.85 43.65 39.8 44.4 Q39.8 46.95 43.05 51.5 46.3 56.1 46.3 57.25 L46.05 58.45 45.05 58.65 43.8 58.4 43.35 57.1 42.8 57.15 Q41.85 57.15 35.45 54.95 L24.8 51.65 13.3 49.3 13.55 48.9 13.15 48.75 11.35 48.25 9.05 48.75 6.75 49.25 Q5.8 49.25 2.95 50.2 L-0.15 51.15 Q-4.15 53.1 -5.75 53.4 L-8.7 53.95 Q-11.25 54.5 -12.35 55.05 -14.5 56.1 -16.6 57.8 L-18.75 59.6 -18.8 59.75 -19.2 60.0 -19.35 60.15 -19.3 61.0 Q-19.3 61.95 -22.0 67.15 L-25.25 73.75 -25.3 73.95 -26.25 74.15 Q-27.05 74.15 -27.45 72.85 L-27.75 71.4 Q-28.4 71.9 -28.85 75.25 L-29.1 75.45 -30.0 75.6 Q-32.0 75.6 -37.5 62.65 -37.5 62.1 -38.75 58.0 L-40.05 53.85 -39.8 51.65 Q-39.4 49.55 -38.25 48.85 L-39.75 40.0 -39.65 39.05 Q-43.95 39.95 -45.15 40.6 L-45.15 40.65 -45.4 40.65 -45.55 40.5 -45.65 40.15 -46.2 40.15 -48.2 40.1 -48.2 40.15 Q-48.2 40.8 -51.45 42.7 -54.85 44.65 -56.45 44.65 -59.75 44.65 -61.4 42.9 L-62.7 40.7 -64.65 38.6 -66.2 36.45 Q-66.8 34.95 -66.8 31.75 L-66.7 27.9 -66.4 22.75 -65.7 15.45 Q-65.25 11.8 -62.8 8.4 -60.2 4.8 -57.9 5.4 -57.35 8.0 -57.7 15.85 -57.4 22.1 -53.6 22.4 L-53.2 18.9 Q-53.2 13.3 -52.75 10.8 -52.35 8.4 -51.55 6.85 L-51.15 7.1 Q-51.1 6.5 -50.7 6.35 L-43.4 6.7 -43.3 6.95 -41.8 6.9 -40.9 6.6 -38.25 6.0 Q-34.5 5.25 -33.05 4.6 L-31.8 4.1 -30.75 3.3 Q-27.65 2.5 -24.45 0.55 -22.35 -0.25 -21.25 -0.75 -19.75 -1.4 -16.15 -4.25 -19.2 -4.5 -24.9 -9.25 -26.7 -10.8 -27.4 -12.9 L-28.25 -16.5 Q-28.95 -18.75 -29.55 -22.95 -30.25 -27.35 -30.25 -30.0 L-30.05 -32.35 Q-29.95 -32.35 -30.0 -32.55 L-29.15 -32.75 Q-28.35 -32.75 -25.6 -28.85 -22.4 -24.45 -17.55 -22.75 L-17.15 -22.75 Q-17.65 -24.2 -18.6 -29.35 L-19.5 -35.3 Q-19.5 -36.75 -18.35 -42.75 -17.0 -49.85 -15.8 -51.3 -14.95 -50.2 -13.6 -47.1 -12.2 -43.9 -11.3 -42.55 -11.6 -45.25 -9.05 -48.95 L-4.6 -54.5 Q-3.5 -53.1 -3.65 -50.65 L-3.8 -46.15 Q-3.6 -44.45 -1.8 -42.4 L0.4 -39.55 0.0 -43.5 0.0 -48.9 Q0.0 -51.2 0.75 -56.3 L1.6 -63.0 Q1.55 -63.4 2.8 -63.4 3.35 -63.4 6.15 -57.05 9.55 -49.45 10.75 -47.5 11.6 -48.8 13.45 -52.6 15.45 -56.2 17.5 -58.25 L22.65 -63.9 Q26.7 -68.25 28.05 -68.25 L28.85 -68.2 29.15 -67.85 Q29.35 -68.25 29.35 -67.0 29.35 -65.05 27.85 -59.5 26.3 -53.95 26.3 -52.0 26.3 -51.3 26.45 -50.85 L26.55 -50.35 Q28.1 -51.85 31.3 -56.15 34.65 -60.15 38.55 -62.1 39.35 -62.45 47.2 -67.6 54.65 -72.0 54.65 -69.5 54.65 -69.0 52.25 -63.65 M2.95 -57.45 L2.4 -47.75 2.1 -40.75 Q2.1 -40.1 3.2 -38.05 L3.25 -37.95 3.45 -37.55 3.65 -37.15 3.65 -37.1 Q4.15 -36.75 4.75 -36.75 5.55 -36.75 6.0 -39.3 L6.3 -43.0 5.45 -52.7 3.1 -57.85 3.0 -58.05 2.95 -57.45 M27.0 -64.65 L21.8 -59.6 Q18.5 -56.35 17.05 -54.1 L14.35 -48.2 Q13.0 -45.35 12.0 -44.15 L12.35 -44.0 16.0 -43.8 22.5 -53.25 25.5 -57.85 25.5 -57.9 25.9 -59.6 26.75 -63.5 27.0 -64.65 M55.2 -45.65 L53.8 -44.8 Q47.7 -41.2 42.55 -40.3 L40.25 -39.8 40.05 -39.75 39.9 -39.7 39.7 -39.65 39.55 -39.6 39.2 -39.5 39.05 -39.45 37.65 -39.0 37.45 -38.9 37.25 -38.85 33.3 -36.7 32.25 -35.8 31.35 -34.85 29.7 -32.05 29.55 -31.85 28.5 -30.45 28.4 -30.35 28.0 -29.9 27.9 -29.8 27.6 -29.5 18.45 -29.75 Q14.9 -28.75 13.6 -27.75 L12.85 -27.6 10.45 -26.65 8.3 -25.85 8.15 -25.85 2.5 -21.55 1.65 -20.9 Q-6.3 -14.2 -10.2 -7.05 L-10.65 -6.3 Q-10.65 -5.35 -12.95 -3.45 L-13.4 -3.0 -13.55 -3.0 -14.8 -2.05 Q-18.15 0.3 -20.15 1.25 L-21.85 2.0 -26.75 5.0 -26.7 5.1 -26.95 5.0 -31.1 6.7 Q-31.9 7.4 -33.45 7.95 -32.7 8.9 -31.85 11.15 L-31.6 11.9 Q-27.75 18.95 -20.75 23.3 L-18.85 24.4 -18.85 24.3 -18.8 23.6 -18.6 23.35 -18.1 23.35 -18.15 23.25 -15.7 21.7 Q-12.95 20.1 -10.25 19.15 L-7.45 18.75 -4.0 19.5 4.2 21.8 Q5.55 22.3 5.55 23.5 5.55 27.7 2.9 31.45 0.6 34.75 -5.1 39.4 L-5.4 40.0 -6.75 42.05 -8.5 43.0 Q-10.1 43.75 -10.75 43.75 L-12.0 43.65 -13.35 44.1 Q-15.95 44.7 -16.35 45.0 L-18.05 47.0 -19.75 49.0 Q-21.3 50.25 -23.3 53.45 -24.05 54.55 -28.35 54.55 -34.8 54.55 -37.25 53.15 L-36.4 57.3 -27.6 57.0 -20.3 58.05 -18.65 56.2 Q-16.25 53.7 -15.1 53.3 -9.05 51.15 -2.9 49.5 7.1 46.55 12.65 46.35 L13.65 46.5 16.35 46.9 17.75 47.15 17.75 47.65 17.7 48.0 24.85 49.4 Q31.7 50.65 36.5 52.5 38.7 53.35 42.55 55.25 L40.95 52.15 Q38.5 47.65 37.8 45.95 L37.8 40.7 Q37.75 40.55 37.85 40.45 38.0 40.15 38.8 40.15 L46.1 45.4 Q53.65 50.8 55.35 51.4 L55.6 51.4 55.55 51.3 51.0 43.85 Q48.25 39.1 47.3 35.95 L47.3 31.45 47.45 31.3 48.3 31.15 Q49.2 31.15 52.05 33.35 54.95 35.6 56.3 35.7 54.15 31.15 52.95 25.05 L51.2 14.15 Q50.2 7.85 48.5 2.85 L48.35 2.4 48.1 2.95 48.05 3.05 Q47.8 0.95 46.8 -1.4 L46.8 -1.5 45.6 -4.0 45.5 -4.05 45.4 -4.25 42.65 -9.1 Q42.65 -9.7 43.15 -10.2 L43.65 -11.05 Q45.3 -12.8 45.3 -14.3 L45.3 -14.6 45.2 -14.55 Q44.35 -14.25 42.9 -13.15 L42.35 -12.7 42.15 -12.75 39.1 -13.15 38.1 -16.95 39.25 -21.95 Q40.6 -26.85 41.3 -28.05 43.4 -32.85 44.75 -35.25 46.1 -37.75 47.8 -39.0 L47.8 -39.1 Q47.8 -39.75 49.2 -40.6 L51.25 -41.9 51.45 -42.0 51.5 -42.05 51.6 -42.1 53.3 -43.85 Q54.25 -44.85 55.3 -45.55 L55.85 -46.0 55.2 -45.65 M-7.2 -1.65 L-7.2 -4.0 -7.15 -6.05 Q-6.95 -7.45 -6.2 -7.85 L-6.15 -7.8 -5.75 -7.45 -5.65 -7.3 Q-5.15 -6.5 -5.15 -5.05 L-5.2 -1.6 -1.9 -1.6 2.7 -5.35 8.05 -9.55 Q11.9 -12.3 16.2 -10.05 18.1 -9.05 21.3 -5.85 L20.95 -5.25 20.8 -5.1 20.8 -4.6 Q20.8 -1.25 17.35 2.9 13.05 8.15 6.8 8.15 0.2 8.15 -3.2 5.2 L-5.35 2.45 -5.9 1.75 -6.2 1.4 -6.2 1.05 -6.45 0.25 -7.15 -0.35 -7.2 -1.65 M27.65 -25.55 L27.7 -25.55 27.4 -25.95 27.3 -26.1 27.65 -26.0 27.85 -25.5 28.15 -24.9 27.65 -25.55 M0.95 -37.55 L1.0 -37.55 1.0 -37.6 0.95 -37.55 M3.3 -1.1 L3.5 -0.2 Q3.95 0.65 5.3 0.65 6.45 0.65 7.25 0.15 8.05 -0.35 8.05 -1.15 8.05 -3.9 5.7 -3.9 3.3 -3.85 3.3 -1.1 M40.05 -13.75 Q40.8 -14.9 43.55 -16.3 47.3 -18.2 47.3 -14.05 47.3 -11.95 46.6 -10.8 46.0 -9.8 44.65 -8.85 L45.55 -7.7 Q47.1 -7.1 47.7 -7.1 54.3 -7.1 57.4 -13.6 L59.35 -18.9 Q60.35 -22.05 61.1 -23.1 57.1 -23.5 56.15 -25.25 55.8 -25.85 55.8 -28.2 55.8 -30.5 56.5 -31.3 58.25 -33.3 64.3 -32.85 L64.55 -34.95 64.8 -37.1 Q64.8 -38.65 64.35 -39.55 63.45 -41.4 62.8 -43.55 62.0 -45.85 61.85 -48.45 L55.85 -43.45 50.8 -39.4 50.8 -39.35 45.3 -30.6 Q39.8 -21.15 39.8 -14.85 39.8 -14.15 40.05 -13.75 M45.45 -49.15 L45.3 -48.6 45.15 -47.55 45.45 -49.0 45.45 -49.1 45.45 -49.15 M-0.5 32.5 Q1.65 30.9 2.5 28.55 L3.4 24.1 -0.65 22.85 -1.0 24.1 -1.5 26.5 -1.0 28.65 Q-0.55 30.2 -0.55 30.8 L-0.65 31.7 -0.75 32.25 -0.8 32.45 -1.6 32.6 -4.05 31.2 Q-6.45 29.75 -7.55 29.65 L-7.6 29.65 -7.6 29.7 -6.15 33.95 -5.15 36.5 Q-2.25 33.7 -0.65 32.6 L-0.6 32.55 -0.5 32.5 M-7.0 -47.8 L-8.2 -45.3 -8.8 -43.75 -9.0 -43.6 Q-9.85 -42.85 -9.85 -41.55 -9.85 -40.75 -7.6 -36.3 L-7.6 -36.15 Q-6.6 -34.9 -5.85 -34.9 -4.6 -34.9 -4.0 -36.5 -3.65 -37.5 -3.65 -38.75 -3.65 -39.1 -4.6 -40.9 L-5.55 -42.85 -5.3 -43.7 -5.4 -43.85 -6.0 -45.45 -6.05 -45.75 Q-6.05 -47.0 -6.3 -47.3 L-6.5 -47.55 -7.0 -47.8 M-6.6 -44.2 L-7.2 -44.2 -6.8 -44.25 -6.6 -44.2 M-15.8 -44.7 L-15.9 -43.6 Q-15.9 -42.75 -16.6 -40.15 -17.3 -37.5 -17.3 -36.25 L-16.9 -32.5 -16.5 -28.75 Q-16.5 -27.75 -15.2 -24.55 -13.85 -21.2 -13.75 -20.4 L-14.0 -19.7 -14.05 -19.6 -13.15 -19.5 Q-11.85 -19.5 -11.0 -22.1 -10.4 -24.1 -10.4 -25.65 L-11.5 -29.3 -12.6 -33.4 -13.05 -35.55 -13.5 -37.75 Q-13.5 -40.45 -13.65 -41.95 L-15.65 -45.1 -15.8 -44.7 M-11.2 -9.55 L-13.0 -11.25 -17.6 -14.45 Q-21.0 -16.85 -21.8 -17.85 -23.0 -19.25 -24.9 -23.65 L-25.85 -25.8 -25.85 -25.85 -26.4 -26.5 -27.5 -27.55 -27.8 -27.85 -28.0 -25.6 Q-28.0 -20.7 -25.05 -14.35 -21.0 -5.6 -14.5 -6.3 -14.25 -7.0 -14.25 -5.8 L-14.1 -5.95 -11.55 -9.1 -11.2 -9.6 -11.2 -9.55 M-16.35 24.65 L-16.75 25.55 -16.5 25.7 Q-14.75 26.7 -14.75 27.25 L-13.65 23.2 -15.85 24.35 -16.35 24.65 M-8.8 22.0 L-8.05 27.45 -7.15 27.15 Q-5.0 27.15 -4.1 27.8 L-3.5 28.55 -3.15 23.85 -2.75 22.2 -3.9 21.8 -8.9 21.4 -8.8 22.0 M-37.1 15.15 Q-36.8 12.05 -36.05 9.5 L-35.7 8.55 -39.05 9.0 -41.2 9.15 -46.1 8.75 -46.5 8.95 -45.4 11.2 Q-44.1 13.65 -43.55 15.1 L-43.45 15.45 -42.4 18.95 Q-41.65 21.0 -40.7 22.2 -39.4 23.8 -38.65 25.7 L-37.45 28.95 -36.75 30.8 Q-36.15 32.55 -35.9 33.85 L-35.5 33.75 -36.65 30.8 -36.7 30.7 Q-38.4 25.65 -38.9 19.85 -38.25 24.1 -37.05 28.35 L-34.9 34.15 -33.55 32.85 Q-35.85 28.55 -35.85 25.85 -35.85 23.8 -36.55 21.5 L-37.25 18.8 -37.1 15.15 M-34.9 17.55 L-34.45 20.85 -34.05 24.15 Q-34.05 26.5 -31.75 31.75 -29.0 37.9 -25.45 38.65 L-23.2 38.6 Q-20.3 37.95 -18.5 34.0 -17.0 30.7 -17.0 28.0 -17.0 27.8 -20.55 25.6 L-24.1 23.25 -28.4 19.3 Q-33.0 14.8 -34.5 11.55 -34.4 12.7 -34.6 14.8 L-34.9 17.55 M-39.05 31.7 L-40.2 28.4 Q-40.55 27.2 -41.9 24.95 L-43.65 21.65 -46.65 13.95 -48.3 9.65 -48.7 9.65 -50.0 9.5 Q-51.25 11.6 -51.55 14.25 -51.9 17.1 -51.9 22.9 -52.4 27.05 -52.8 36.75 -51.9 36.85 -51.35 37.3 -50.55 37.9 -46.05 37.9 L-44.25 37.85 -42.25 37.6 Q-39.2 37.05 -37.9 35.45 -37.9 34.95 -39.05 31.7 M-34.8 36.35 L-34.9 36.2 -35.9 36.55 -36.35 37.35 -38.05 38.45 Q-36.5 42.55 -36.5 49.05 L-36.5 49.45 -36.3 49.25 -34.8 47.2 Q-32.55 43.85 -32.7 40.75 L-32.7 40.7 -33.0 39.05 -34.0 37.6 -34.8 36.35 M-20.1 45.65 L-20.65 45.2 -22.05 43.8 -24.1 41.15 -25.5 46.25 -25.7 46.5 -26.65 46.75 Q-27.7 46.75 -29.5 43.2 L-30.1 41.9 -30.25 42.0 Q-30.4 44.15 -31.75 47.25 -33.35 50.8 -35.15 51.2 L-28.75 52.25 Q-24.65 51.45 -20.25 45.9 L-20.05 45.65 -20.1 45.65 M-9.8 30.9 Q-9.95 29.45 -10.6 27.25 L-11.5 24.5 Q-12.4 26.95 -12.4 29.0 L-14.15 38.5 Q-14.15 39.2 -13.4 40.2 -12.45 41.4 -11.25 41.4 -9.55 41.4 -8.3 39.9 -7.3 38.7 -7.3 37.75 L-8.55 34.35 -9.8 30.9 M-15.45 41.4 L-16.15 38.9 -15.9 35.7 -16.85 37.0 Q-19.0 40.75 -18.45 44.0 -16.9 42.5 -15.2 41.9 L-15.15 41.9 -15.45 41.4 M-54.95 24.65 Q-59.4 24.65 -60.0 17.05 L-59.7 8.65 Q-63.5 12.05 -64.4 18.0 -64.7 20.0 -64.7 27.7 L-64.75 31.15 Q-64.65 34.0 -64.2 35.65 -63.95 36.5 -61.5 39.35 -58.9 42.45 -57.95 42.45 -55.6 42.45 -52.65 40.75 L-51.05 39.8 -52.85 39.3 -52.9 39.7 -53.7 40.15 Q-54.35 39.45 -54.6 38.2 L-54.65 38.15 -54.7 36.95 -54.65 36.95 -54.7 34.95 -54.05 26.55 -53.85 24.6 -54.95 24.65 M-44.95 29.85 L-45.2 28.4 -45.15 26.9 Q-44.0 26.85 -43.3 27.9 -41.7 28.3 -41.7 31.4 -41.7 32.85 -42.2 33.45 -41.7 33.65 -42.95 33.65 -44.45 33.65 -44.7 32.05 L-44.7 30.45 -44.95 29.85 M-49.2 28.85 L-48.9 28.9 -48.7 31.15 -48.75 32.45 -49.15 33.4 Q-48.7 33.65 -49.95 33.65 L-51.2 33.4 -51.2 29.15 Q-51.2 28.25 -50.9 27.7 -50.6 27.2 -50.2 27.15 L-49.4 27.8 -49.2 28.85 M-21.3 60.0 L-34.35 59.15 -36.15 58.8 -35.9 60.1 Q-35.6 62.0 -33.6 65.8 L-30.5 71.5 Q-30.35 71.1 -30.35 68.55 -30.35 67.45 -29.25 63.4 -29.9 63.15 -28.65 63.15 L-27.35 63.25 Q-27.15 66.6 -26.15 69.5 L-25.9 69.55 -23.6 64.55 Q-22.45 61.85 -21.3 60.25 L-21.3 60.15 -21.3 60.0" fill="#000000" fill-rule="evenodd" stroke="none"/>
    <path d="M51.05 -67.0 L51.15 -66.75 51.0 -66.55 51.0 -66.5 50.6 -65.8 50.15 -64.75 50.1 -64.7 41.65 -56.75 Q30.85 -46.75 29.5 -46.75 28.8 -46.75 27.75 -47.7 L30.3 -51.05 Q33.95 -56.3 35.0 -57.0 37.65 -58.7 42.75 -62.6 47.35 -65.95 51.05 -67.0 M3.1 -57.85 L5.45 -52.7 6.3 -43.0 6.0 -39.3 Q5.55 -36.75 4.75 -36.75 4.15 -36.75 3.65 -37.1 L3.65 -37.15 3.45 -37.55 3.25 -37.95 3.2 -38.05 Q2.1 -40.1 2.1 -40.75 L2.4 -47.75 2.95 -57.45 3.1 -57.85 M27.0 -64.65 L26.75 -63.5 25.9 -59.6 25.5 -57.9 25.5 -57.85 22.5 -53.25 16.0 -43.8 12.35 -44.0 12.0 -44.15 Q13.0 -45.35 14.35 -48.2 L17.05 -54.1 Q18.5 -56.35 21.8 -59.6 L27.0 -64.65 M-7.0 -47.8 L-6.5 -47.55 -6.3 -47.3 Q-6.05 -47.0 -6.05 -45.75 L-6.0 -45.45 -5.4 -43.85 -5.3 -43.7 -5.55 -42.85 -4.6 -40.9 Q-3.65 -39.1 -3.65 -38.75 -3.65 -37.5 -4.0 -36.5 -4.6 -34.9 -5.85 -34.9 -6.6 -34.9 -7.6 -36.15 L-7.6 -36.3 Q-9.85 -40.75 -9.85 -41.55 -9.85 -42.85 -9.0 -43.6 L-8.8 -43.75 -8.2 -45.3 -7.0 -47.8 M-6.6 -44.2 L-6.8 -44.25 -7.2 -44.2 -6.6 -44.2 M-15.8 -44.7 L-15.65 -45.1 -13.65 -41.95 Q-13.5 -40.45 -13.5 -37.75 L-13.05 -35.55 -12.6 -33.4 -11.5 -29.3 -10.4 -25.65 Q-10.4 -24.1 -11.0 -22.1 -11.85 -19.5 -13.15 -19.5 L-14.05 -19.6 -14.0 -19.7 -13.75 -20.4 Q-13.85 -21.2 -15.2 -24.55 -16.5 -27.75 -16.5 -28.75 L-16.9 -32.5 -17.3 -36.25 Q-17.3 -37.5 -16.6 -40.15 -15.9 -42.75 -15.9 -43.6 L-15.8 -44.7 M-11.55 -9.1 L-14.1 -5.95 -14.25 -5.8 Q-14.25 -7.0 -14.5 -6.3 -21.0 -5.6 -25.05 -14.35 -28.0 -20.7 -28.0 -25.6 L-27.8 -27.85 -27.5 -27.55 -26.4 -26.5 -25.85 -25.85 -25.85 -25.8 -24.9 -23.65 Q-23.0 -19.25 -21.8 -17.85 -21.0 -16.85 -17.6 -14.45 L-13.0 -11.25 -11.2 -9.55 -11.55 -9.1" fill="#11131a" fill-rule="evenodd" stroke="none"/>
    <path d="M32.25 -35.8 L33.3 -36.7 37.25 -38.85 37.45 -38.9 37.65 -39.0 39.05 -39.45 39.2 -39.5 39.55 -39.6 39.7 -39.65 39.9 -39.7 40.05 -39.75 40.25 -39.8 42.55 -40.3 Q47.7 -41.2 53.8 -44.8 L55.2 -45.65 55.3 -45.55 Q54.25 -44.85 53.3 -43.85 L51.6 -42.1 51.5 -42.05 51.45 -42.0 51.25 -41.9 44.45 -37.85 39.2 -34.05 Q36.3 -31.9 35.6 -30.85 L34.15 -27.75 Q32.8 -25.55 31.45 -25.0 L31.25 -25.25 30.15 -25.0 27.85 -25.5 27.65 -26.0 27.3 -26.1 27.4 -25.95 27.7 -25.55 27.65 -25.55 27.55 -25.6 24.9 -26.25 20.6 -25.8 15.35 -24.8 13.3 -23.55 Q8.3 -20.15 6.3 -19.05 3.15 -17.2 0.35 -14.65 -6.05 -10.85 -6.2 -7.85 -6.95 -7.45 -7.15 -6.05 L-7.2 -4.0 -7.2 -1.65 -7.45 -1.3 -9.8 1.8 -12.15 4.45 -12.3 4.1 -14.95 6.45 Q-18.7 9.5 -21.95 9.95 L-21.7 10.35 -22.4 10.85 -25.45 11.25 Q-28.65 11.7 -30.25 12.55 L-31.3 11.55 -31.5 11.4 -31.85 11.15 Q-32.7 8.9 -33.45 7.95 -31.9 7.4 -31.1 6.7 L-26.95 5.0 -26.7 5.1 -26.75 5.0 -21.85 2.0 -20.15 1.25 Q-18.15 0.3 -14.8 -2.05 L-13.55 -3.0 -13.4 -3.0 -12.95 -3.45 Q-10.65 -5.35 -10.65 -6.3 L-10.2 -7.05 Q-6.3 -14.2 1.65 -20.9 L2.5 -21.55 8.15 -25.85 8.3 -25.85 10.45 -26.65 12.85 -27.6 13.6 -27.75 Q14.9 -28.75 18.45 -29.75 L27.6 -29.5 27.9 -29.8 28.0 -29.9 28.4 -30.35 28.5 -30.45 29.55 -31.85 29.7 -32.05 Q30.75 -32.75 31.6 -34.55 L32.25 -35.8 M48.1 2.95 L48.35 2.4 48.5 2.85 48.1 2.95 M-43.55 15.1 Q-44.1 13.65 -45.4 11.2 L-46.5 8.95 -46.1 8.75 -41.2 9.15 -39.05 9.0 -35.7 8.55 -36.05 9.5 Q-36.8 12.05 -37.1 15.15 L-38.15 15.35 -39.1 14.15 -39.3 13.35 -39.6 12.75 -39.4 15.65 -39.45 15.65 -43.55 15.1" fill="#3e4762" fill-rule="evenodd" stroke="none"/>
    <path d="M32.25 -35.8 L31.6 -34.55 Q30.75 -32.75 29.7 -32.05 L31.35 -34.85 32.25 -35.8 M-31.3 11.55 L-30.25 12.55 Q-28.65 11.7 -25.45 11.25 L-22.4 10.85 -21.7 10.35 -21.95 9.95 Q-18.7 9.5 -14.95 6.45 L-12.3 4.1 -12.15 4.45 -9.8 1.8 -7.45 -1.3 -7.2 -1.65 -7.15 -0.35 -6.45 0.25 -6.2 1.05 -6.2 1.4 -5.9 1.75 -5.35 2.45 -3.2 5.2 Q0.2 8.15 6.8 8.15 13.05 8.15 17.35 2.9 20.8 -1.25 20.8 -4.6 L20.8 -5.1 20.95 -5.25 21.3 -5.85 Q18.1 -9.05 16.2 -10.05 11.9 -12.3 8.05 -9.55 L2.7 -5.35 -1.9 -1.6 -5.2 -1.6 -5.15 -5.05 Q-5.15 -6.5 -5.65 -7.3 L-5.75 -7.45 -6.15 -7.8 -6.2 -7.85 Q-6.05 -10.85 0.35 -14.65 3.15 -17.2 6.3 -19.05 8.3 -20.15 13.3 -23.55 L15.35 -24.8 20.6 -25.8 24.9 -26.25 27.55 -25.6 27.65 -25.55 28.15 -24.9 27.85 -25.5 30.15 -25.0 31.25 -25.25 31.45 -25.0 Q32.8 -25.55 34.15 -27.75 L35.6 -30.85 Q36.3 -31.9 39.2 -34.05 L44.45 -37.85 51.25 -41.9 49.2 -40.6 Q47.8 -39.75 47.8 -39.1 L47.8 -39.0 Q46.1 -37.75 44.75 -35.25 43.4 -32.85 41.3 -28.05 40.6 -26.85 39.25 -21.95 L38.1 -16.95 39.1 -13.15 42.15 -12.75 42.35 -12.7 42.9 -13.15 Q44.35 -14.25 45.2 -14.55 L45.3 -14.3 Q45.3 -12.8 43.65 -11.05 L43.15 -10.2 Q42.65 -9.7 42.65 -9.1 L45.4 -4.25 45.5 -4.05 46.8 -1.4 Q47.8 0.95 48.05 3.05 L48.1 2.95 48.5 2.85 Q50.2 7.85 51.2 14.15 L52.95 25.05 Q54.15 31.15 56.3 35.7 54.95 35.6 52.05 33.35 49.2 31.15 48.3 31.15 L47.45 31.3 47.3 31.45 47.3 35.95 Q48.25 39.1 51.0 43.85 L55.55 51.3 55.35 51.4 Q53.65 50.8 46.1 45.4 L38.8 40.15 Q38.0 40.15 37.85 40.45 37.75 40.55 37.8 40.7 L37.8 45.95 Q38.5 47.65 40.95 52.15 L42.55 55.25 Q38.7 53.35 36.5 52.5 31.7 50.65 24.85 49.4 L17.7 48.0 17.75 47.65 17.75 47.15 16.35 46.9 13.65 46.5 12.65 46.35 Q7.1 46.55 -2.9 49.5 -9.05 51.15 -15.1 53.3 -16.25 53.7 -18.65 56.2 L-20.3 58.05 -27.6 57.0 -36.4 57.3 -37.25 53.15 Q-34.8 54.55 -28.35 54.55 -24.05 54.55 -23.3 53.45 -21.3 50.25 -19.75 49.0 L-18.05 47.0 -16.35 45.0 Q-15.95 44.7 -13.35 44.1 L-12.0 43.65 -10.75 43.75 Q-10.1 43.75 -8.5 43.0 L-6.75 42.05 -5.4 40.0 -5.1 39.4 Q0.6 34.75 2.9 31.45 5.55 27.7 5.55 23.5 5.55 22.3 4.2 21.8 L-4.0 19.5 -7.45 18.75 -10.25 19.15 Q-12.95 20.1 -15.7 21.7 L-18.15 23.25 -18.1 23.35 -18.6 23.35 -18.8 23.6 -18.85 24.3 -18.85 24.4 -20.75 23.3 Q-27.75 18.95 -31.6 11.9 L-31.3 11.55 M-43.55 15.1 L-39.45 15.65 -39.4 15.65 -39.6 12.75 -39.3 13.35 -39.1 14.15 -38.15 15.35 -37.1 15.15 -37.25 18.8 -36.55 21.5 Q-35.85 23.8 -35.85 25.85 -35.85 28.55 -33.55 32.85 L-34.9 34.15 -37.05 28.35 Q-38.25 24.1 -38.9 19.85 -38.4 25.65 -36.7 30.7 L-36.75 30.8 -37.45 28.95 -38.65 25.7 Q-39.4 23.8 -40.7 22.2 -41.65 21.0 -42.4 18.95 L-43.45 15.45 -43.55 15.1 M-36.65 30.8 L-35.5 33.75 -35.9 33.85 Q-36.15 32.55 -36.75 30.8 L-36.65 30.8 M-36.35 37.35 L-35.9 36.55 -34.9 36.2 -34.8 36.35 -35.85 37.0 -36.35 37.35" fill="#242939" fill-rule="evenodd" stroke="none"/>
    <path d="M3.3 -1.1 Q3.3 -3.85 5.7 -3.9 8.05 -3.9 8.05 -1.15 8.05 -0.35 7.25 0.15 6.45 0.65 5.3 0.65 3.95 0.65 3.5 -0.2 L3.3 -1.1" fill="#ffffff" fill-rule="evenodd" stroke="none"/>
    <path d="M40.05 -13.75 Q39.8 -14.15 39.8 -14.85 39.8 -21.15 45.3 -30.6 L50.8 -39.35 50.8 -39.4 55.85 -43.45 61.85 -48.45 Q62.0 -45.85 62.8 -43.55 63.45 -41.4 64.35 -39.55 64.8 -38.65 64.8 -37.1 L64.55 -34.95 64.3 -32.85 Q58.25 -33.3 56.5 -31.3 55.8 -30.5 55.8 -28.2 55.8 -25.85 56.15 -25.25 57.1 -23.5 61.1 -23.1 60.35 -22.05 59.35 -18.9 L57.4 -13.6 Q54.3 -7.1 47.7 -7.1 47.1 -7.1 45.55 -7.7 L44.65 -8.85 Q46.0 -9.8 46.6 -10.8 47.3 -11.95 47.3 -14.05 47.3 -18.2 43.55 -16.3 40.8 -14.9 40.05 -13.75 M-39.05 31.7 Q-37.9 34.95 -37.9 35.45 -39.2 37.05 -42.25 37.6 L-44.25 37.85 -46.05 37.9 Q-50.55 37.9 -51.35 37.3 -51.9 36.85 -52.8 36.75 -52.4 27.05 -51.9 22.9 -51.9 17.1 -51.55 14.25 -51.25 11.6 -50.0 9.5 L-48.7 9.65 -48.3 9.65 -46.65 13.95 -43.65 21.65 -41.9 24.95 Q-40.55 27.2 -40.2 28.4 L-39.05 31.7 M-44.95 29.85 L-44.7 30.45 -44.7 32.05 Q-44.45 33.65 -42.95 33.65 -41.7 33.65 -42.2 33.45 -41.7 32.85 -41.7 31.4 -41.7 28.3 -43.3 27.9 -44.0 26.85 -45.15 26.9 L-45.2 28.4 -44.95 29.85 M-49.2 28.85 L-49.4 27.8 -50.2 27.15 Q-50.6 27.2 -50.9 27.7 -51.2 28.25 -51.2 29.15 L-51.2 33.4 -49.95 33.65 Q-48.7 33.65 -49.15 33.4 L-48.75 32.45 -48.7 31.15 -48.9 28.9 -49.2 28.85" fill="#625067" fill-rule="evenodd" stroke="none"/>
    <path d="M45.5 -4.05 L45.6 -4.0 46.8 -1.5 46.8 -1.4 45.5 -4.05" fill="#60606c" fill-rule="evenodd" stroke="none"/>
    <path d="M-0.75 32.25 L-0.65 31.7 -0.55 30.8 Q-0.55 30.2 -1.0 28.65 L-1.5 26.5 -1.0 24.1 -0.65 22.85 3.4 24.1 2.5 28.55 Q1.65 30.9 -0.5 32.5 L-0.75 32.25 M-0.65 32.6 Q-2.25 33.7 -5.15 36.5 L-6.15 33.95 -7.6 29.7 -7.55 29.65 Q-6.45 29.75 -4.05 31.2 L-1.6 32.6 -0.8 32.45 -0.65 32.6 M-8.8 22.0 L-8.9 21.4 -3.9 21.8 -2.75 22.2 -3.15 23.85 -3.5 28.55 -4.1 27.8 Q-5.0 27.15 -7.15 27.15 L-8.05 27.45 -8.8 22.0 M-16.35 24.65 L-15.85 24.35 -13.65 23.2 -14.75 27.25 Q-14.75 26.7 -16.5 25.7 L-16.75 25.55 -16.35 24.65 M-34.9 17.55 L-34.6 14.8 Q-34.4 12.7 -34.5 11.55 -33.0 14.8 -28.4 19.3 L-24.1 23.25 -20.55 25.6 Q-17.0 27.8 -17.0 28.0 -17.0 30.7 -18.5 34.0 -20.3 37.95 -23.2 38.6 L-25.45 38.65 Q-29.0 37.9 -31.75 31.75 -34.05 26.5 -34.05 24.15 L-34.45 20.85 -34.9 17.55 M-36.35 37.35 L-35.85 37.0 -34.8 36.35 -34.0 37.6 -33.0 39.05 -32.7 40.7 -32.7 40.75 Q-32.55 43.85 -34.8 47.2 L-36.3 49.25 -36.5 49.05 Q-36.5 42.55 -38.05 38.45 L-36.35 37.35 M-20.25 45.9 Q-24.65 51.45 -28.75 52.25 L-35.15 51.2 Q-33.35 50.8 -31.75 47.25 -30.4 44.15 -30.25 42.0 L-30.1 41.9 -29.5 43.2 Q-27.7 46.75 -26.65 46.75 L-25.7 46.5 -25.5 46.25 -24.1 41.15 -22.05 43.8 -20.65 45.2 -20.1 45.65 -20.25 45.9 M-15.2 41.9 Q-16.9 42.5 -18.45 44.0 -19.0 40.75 -16.85 37.0 L-15.9 35.7 -16.15 38.9 -15.45 41.4 -15.2 41.9 M-9.8 30.9 L-8.55 34.35 -7.3 37.75 Q-7.3 38.7 -8.3 39.9 -9.55 41.4 -11.25 41.4 -12.45 41.4 -13.4 40.2 -14.15 39.2 -14.15 38.5 L-12.4 29.0 Q-12.4 26.95 -11.5 24.5 L-10.6 27.25 Q-9.95 29.45 -9.8 30.9 M-54.95 24.65 L-53.85 24.6 -54.05 26.55 -54.7 34.95 -54.65 36.95 -54.7 36.95 -54.65 38.15 -54.6 38.2 Q-54.35 39.45 -53.7 40.15 L-52.9 39.7 -52.85 39.3 -51.05 39.8 -52.65 40.75 Q-55.6 42.45 -57.95 42.45 -58.9 42.45 -61.5 39.35 -63.95 36.5 -64.2 35.65 -64.65 34.0 -64.75 31.15 L-64.7 27.7 Q-64.7 20.0 -64.4 18.0 -63.5 12.05 -59.7 8.65 L-60.0 17.05 Q-59.4 24.65 -54.95 24.65" fill="#baae96" fill-rule="evenodd" stroke="none"/>
    <path d="M-21.3 60.0 L-21.3 60.15 -21.3 60.25 Q-22.45 61.85 -23.6 64.55 L-25.9 69.55 -26.15 69.5 Q-27.15 66.6 -27.35 63.25 L-28.65 63.15 Q-29.9 63.15 -29.25 63.4 -30.35 67.45 -30.35 68.55 -30.35 71.1 -30.5 71.5 L-33.6 65.8 Q-35.6 62.0 -35.9 60.1 L-36.15 58.8 -34.35 59.15 -21.3 60.0" fill="#0e1016" fill-rule="evenodd" stroke="none"/>
  </g>
</svg>
