<?xml version="1.0" encoding="UTF-8" standalone="no"?>
<svg xmlns:ffdec="https://www.free-decompiler.com/flash" xmlns:xlink="http://www.w3.org/1999/xlink" ffdec:objectType="shape" height="84.5px" width="172.7px" xmlns="http://www.w3.org/2000/svg">
  <g transform="matrix(1.0, 0.0, 0.0, 1.0, 0.0, 0.0)">
    <path d="M139.5 1.0 L139.9 1.5 140.55 1.0 Q145.25 2.8 146.25 3.4 147.55 4.15 147.55 6.3 L147.4 7.05 149.35 9.25 Q150.55 10.5 150.55 12.15 L150.05 14.1 Q150.55 14.8 150.55 16.1 L150.45 18.25 Q151.75 17.5 154.8 17.5 159.7 17.5 161.5 19.5 162.2 20.3 162.45 21.55 L162.55 21.5 Q164.5 23.0 165.8 25.5 166.65 27.15 166.9 28.55 L167.05 28.5 Q169.7 29.5 170.3 30.75 L170.55 33.0 Q170.55 35.55 169.7 36.7 168.35 38.5 163.55 40.5 161.7 41.25 159.4 45.25 L157.3 48.75 159.55 50.05 Q162.2 51.55 163.15 52.65 164.55 54.35 164.55 57.15 L164.3 60.15 164.75 60.4 166.85 62.1 168.2 64.45 Q169.2 66.55 169.2 67.35 L169.1 69.0 166.95 71.5 166.7 71.75 Q170.6 72.25 171.95 73.6 172.7 74.35 172.7 75.85 L172.6 77.55 Q172.2 78.45 170.35 79.6 L168.05 80.15 159.2 80.85 153.7 81.85 Q150.3 81.85 150.2 81.2 150.15 80.8 150.7 79.75 150.2 79.25 148.1 79.25 L147.3 80.05 Q146.7 80.85 143.2 80.85 139.35 80.85 138.05 80.0 136.8 79.1 130.45 79.1 L116.95 80.35 Q112.35 80.35 112.6 78.75 L112.65 77.6 Q112.35 77.1 110.6 77.1 L103.6 79.5 96.55 81.85 Q94.9 81.85 93.8 80.75 92.65 79.6 89.8 79.6 88.45 79.6 87.85 80.1 L86.85 81.25 Q85.1 82.85 78.05 82.85 72.3 82.85 72.6 81.25 L72.75 80.1 Q72.5 79.6 70.7 79.6 69.0 79.6 68.55 80.1 L67.95 81.25 Q66.9 82.85 59.3 82.85 56.8 82.85 56.35 81.75 55.9 80.6 53.2 80.6 52.5 80.6 51.55 81.2 L50.3 81.85 45.55 82.2 41.8 82.25 37.8 83.3 32.8 84.35 25.8 83.6 25.8 83.55 16.8 84.0 10.8 84.5 Q5.75 84.5 2.55 82.3 0.05 80.6 0.05 79.0 L0.05 73.7 Q0.2 70.45 1.05 68.0 1.75 66.2 5.6 64.05 L13.8 59.8 Q16.9 57.75 18.9 54.45 L19.4 53.45 Q18.15 52.7 16.5 50.1 L13.75 45.8 Q12.6 44.4 10.5 43.95 L6.8 43.55 Q2.55 43.1 2.55 38.65 2.55 37.1 3.2 36.25 L3.4 36.05 2.8 33.95 Q2.55 32.55 2.55 30.25 2.55 25.95 8.05 23.65 10.15 22.75 11.65 23.05 L11.85 21.8 Q12.35 20.05 14.2 19.75 17.7 19.2 32.2 24.35 L32.45 24.2 32.05 23.15 Q32.05 21.9 35.8 20.4 37.55 19.7 38.6 19.45 L38.55 19.25 Q44.7 13.25 47.7 13.15 48.5 10.65 53.55 10.0 L57.6 10.2 Q57.9 9.5 59.5 8.5 61.45 7.3 63.8 6.7 L67.55 6.3 Q67.65 6.0 69.25 4.95 71.2 3.7 73.05 3.05 76.0 2.05 77.35 3.1 L77.5 3.0 Q81.25 1.65 83.25 4.7 L83.3 4.85 Q85.75 3.1 87.85 5.35 89.6 7.15 89.95 9.25 91.35 8.6 93.1 9.45 95.55 10.6 96.25 13.15 L96.5 13.0 103.25 13.45 Q103.5 12.75 103.9 12.15 105.4 9.6 108.05 9.7 109.15 8.5 112.55 7.8 L114.75 7.45 114.55 6.35 Q114.55 5.0 116.2 3.65 118.45 1.8 121.55 4.05 L122.7 4.8 Q126.75 0.7 130.55 2.0 L131.0 1.25 135.5 0.25 Q138.25 -0.45 139.5 1.0 M132.7 7.45 L132.25 5.7 Q131.5 3.75 130.15 3.75 126.65 3.75 125.0 4.95 L124.35 5.4 126.75 5.8 Q130.45 6.0 131.55 6.5 132.35 6.8 132.7 7.45 M134.35 2.4 L132.35 2.9 Q134.6 4.4 134.95 7.0 L136.85 7.25 Q139.8 8.1 140.55 6.55 137.65 1.75 137.15 1.75 136.5 1.75 134.35 2.4 M133.0 10.45 L132.85 11.05 Q132.3 11.9 130.0 12.05 L130.05 12.8 Q133.85 16.75 137.15 19.0 137.65 19.45 137.95 20.15 L138.2 20.45 Q139.25 21.75 141.9 21.75 143.15 21.75 144.4 20.9 L144.3 20.8 144.25 20.55 144.05 17.35 144.25 16.05 144.45 15.15 141.05 11.5 141.05 11.35 Q139.9 11.15 139.45 10.75 139.05 10.4 139.05 9.25 L139.05 9.15 134.5 9.5 Q134.0 10.05 133.0 10.45 M147.15 9.9 L146.8 9.5 Q145.9 11.25 143.85 11.5 L144.4 12.0 146.15 13.75 147.55 13.55 148.05 13.3 148.25 12.95 148.3 12.1 Q148.3 11.05 147.15 9.9 M143.35 5.05 L142.35 4.75 Q143.05 5.9 143.05 6.55 L142.05 8.05 141.2 8.5 141.75 9.25 144.55 9.25 145.25 7.7 145.55 6.15 Q145.55 5.55 143.35 5.05 M148.25 15.95 L148.25 15.65 148.15 15.7 146.05 16.0 146.0 16.0 146.1 16.45 146.5 19.25 Q147.25 18.8 148.05 19.0 L148.25 15.95 M147.6 21.55 L147.6 21.6 147.45 21.85 147.4 22.95 147.4 23.05 147.45 23.1 Q147.05 24.0 141.8 24.0 L141.6 24.0 Q139.9 23.95 138.25 23.2 L137.85 23.0 137.5 22.75 Q136.25 22.0 135.75 21.4 L135.7 21.45 Q134.6 19.75 132.05 17.9 129.4 16.05 128.3 14.3 127.55 13.05 127.55 11.85 127.55 11.65 128.2 11.2 L128.45 11.0 128.25 11.0 Q127.35 10.95 127.8 10.8 L127.65 10.45 127.55 9.6 Q127.55 9.4 129.0 9.05 L129.05 9.05 129.9 8.85 Q123.45 9.4 121.45 7.4 L120.1 5.8 Q119.3 5.05 117.8 5.05 117.05 5.05 117.15 5.3 L117.25 5.5 117.05 5.85 117.05 6.6 Q117.05 7.5 119.55 9.15 122.05 10.85 122.05 13.05 122.05 15.3 123.8 17.5 125.55 19.7 125.55 21.1 L123.05 24.8 120.85 27.15 120.7 27.25 121.05 27.25 Q129.05 29.1 134.2 30.65 L134.3 30.4 Q134.9 30.85 135.8 30.95 L135.8 31.05 135.7 31.1 135.75 31.15 139.6 32.5 141.2 33.2 142.8 34.2 Q144.35 32.9 148.3 31.35 L151.5 30.0 151.8 28.75 Q152.05 28.05 152.55 27.6 L152.65 27.3 149.15 22.7 148.05 21.05 147.6 21.55 M150.75 21.2 L151.05 21.55 153.85 24.85 154.75 26.0 156.4 25.5 Q160.25 24.55 160.25 22.8 160.25 21.85 159.7 21.2 158.55 19.75 155.15 19.75 152.4 19.75 151.45 20.65 L150.75 21.2 M146.0 34.65 L144.55 35.65 Q146.95 37.8 149.25 41.25 L150.0 42.3 151.25 40.1 153.0 37.25 Q153.0 36.2 152.25 34.4 L151.65 32.5 151.55 32.5 Q147.9 33.1 146.0 34.65 M165.7 31.2 L162.3 31.5 Q159.4 31.5 157.95 30.05 L156.5 28.95 154.55 30.8 153.55 31.55 155.05 37.05 Q155.05 38.1 153.05 41.2 L151.25 43.8 153.15 45.65 154.5 46.8 155.25 47.35 155.5 47.55 155.55 47.55 155.55 47.5 Q155.55 46.8 157.4 43.75 L157.6 43.4 158.6 41.75 158.9 41.4 159.85 40.05 160.05 39.8 160.2 39.65 Q161.3 38.8 165.4 37.9 166.95 37.55 167.7 36.4 L167.75 36.4 168.2 35.5 168.55 33.6 168.55 33.15 Q168.55 32.5 168.1 32.1 L166.85 30.7 166.8 30.65 166.75 30.75 165.7 31.2 M159.5 26.95 L160.55 29.25 164.55 29.25 Q164.55 27.6 163.05 25.2 L162.25 23.95 Q161.7 25.1 160.05 26.5 L159.5 26.95 M114.75 9.75 L112.05 10.55 112.65 10.95 Q113.05 11.3 113.05 12.1 L112.8 13.95 112.55 15.75 116.0 15.75 Q117.3 15.05 118.45 12.95 L118.85 12.25 Q118.2 11.0 117.05 10.15 L116.0 9.3 114.75 9.75 M131.0 8.6 L131.05 8.6 131.0 8.5 131.0 8.6 M97.35 15.55 L97.6 16.55 97.55 18.0 97.35 19.55 97.2 20.1 98.15 21.5 Q99.45 21.7 99.85 22.4 100.35 23.2 100.8 23.3 L102.3 22.2 Q103.05 21.7 103.05 21.15 103.05 20.4 102.05 17.65 L101.3 15.5 97.55 15.5 96.95 14.9 97.35 15.55 M109.95 13.3 L110.5 12.75 108.35 12.25 105.55 12.55 105.05 14.8 Q104.55 16.3 104.55 16.9 104.55 17.75 105.05 18.5 105.9 19.75 107.9 19.75 L108.0 19.75 108.35 19.75 Q111.4 19.65 111.6 18.4 L111.55 17.5 110.55 16.75 Q109.55 15.7 109.55 14.55 109.55 13.75 109.95 13.3 M105.05 21.45 Q105.0 22.65 104.5 23.5 103.4 25.45 100.4 25.5 L101.75 28.55 Q103.1 31.95 103.45 34.15 L104.6 31.5 Q105.35 30.0 106.55 29.25 108.8 27.85 115.7 27.45 L108.65 22.0 107.8 22.0 Q106.2 22.0 105.05 21.45 M96.55 14.5 L96.65 14.6 96.5 14.45 96.5 14.55 96.55 14.5 M89.85 12.55 Q92.6 14.5 95.05 17.4 L95.4 14.9 Q95.2 12.3 90.05 12.3 89.85 12.3 89.75 12.45 L89.85 12.55 M99.1 38.05 L101.55 37.3 99.8 30.4 Q98.6 26.0 96.95 23.1 95.85 21.05 94.3 19.35 L93.95 18.95 93.35 18.4 92.2 17.3 89.9 15.6 89.75 15.5 85.85 13.4 85.45 13.25 81.1 11.7 80.55 11.55 81.0 12.0 Q88.45 17.25 92.05 24.8 95.05 31.0 95.05 37.9 L95.05 38.9 99.1 38.05 M123.5 21.25 L121.35 18.5 Q119.9 16.7 119.6 15.9 L119.0 16.55 Q117.05 18.0 113.8 18.0 L113.05 17.95 113.0 20.0 Q112.65 20.8 111.75 21.3 L113.45 22.4 Q116.0 24.2 116.95 25.55 L117.05 25.5 Q118.6 26.2 120.7 24.35 L123.5 21.25 M160.8 61.0 L161.6 59.85 Q162.55 58.6 162.55 57.5 162.55 55.45 160.8 53.15 158.9 50.65 156.3 50.05 150.2 48.55 148.8 46.1 148.2 43.3 147.25 42.0 144.0 37.6 139.2 34.65 130.55 29.25 118.15 29.25 109.35 29.25 106.45 32.6 104.95 34.4 104.55 37.3 103.7 38.9 97.2 40.75 L96.95 40.8 96.75 40.85 96.6 40.9 95.25 41.25 Q93.35 41.75 91.25 43.2 L91.0 43.0 Q89.6 42.1 87.55 42.5 85.75 42.85 84.4 44.0 L83.8 43.4 Q82.35 41.75 81.4 41.75 79.15 41.75 77.3 43.75 L74.15 48.15 Q69.8 54.3 62.8 54.5 L62.65 54.5 62.3 54.5 58.8 54.35 59.0 54.95 59.15 55.3 57.55 54.5 Q57.0 54.7 56.0 56.35 L55.7 56.9 Q54.1 57.25 53.15 58.1 52.2 58.95 51.45 60.95 50.75 62.85 49.9 63.45 48.45 64.45 45.05 64.05 45.05 64.5 44.75 64.5 45.0 65.75 44.0 67.65 L42.05 70.3 Q41.55 70.85 38.05 71.35 34.7 71.85 33.8 73.05 L33.45 73.7 33.3 73.75 33.3 74.35 Q33.3 74.75 31.7 76.35 29.8 78.2 28.8 80.85 29.0 81.15 30.55 81.65 L33.05 82.1 Q41.7 79.85 42.8 79.85 50.05 79.55 50.2 78.9 50.35 78.35 52.8 78.35 56.45 78.35 57.6 79.5 58.75 80.6 59.3 80.6 66.4 80.6 67.15 78.75 L67.4 77.45 Q67.6 76.85 68.8 76.85 73.7 76.85 74.4 78.75 75.1 80.6 78.75 80.6 85.05 80.6 85.7 79.0 86.35 77.35 90.05 77.35 93.9 77.35 95.3 78.55 L96.55 79.75 104.2 77.35 Q105.9 76.85 106.35 75.65 106.6 74.85 110.2 74.85 113.95 74.85 114.6 76.5 115.3 78.1 117.65 78.1 L124.05 77.5 130.45 76.85 Q137.2 76.85 138.4 77.75 139.65 78.6 140.95 78.6 145.7 78.6 146.35 77.75 147.05 76.85 147.95 76.85 151.65 76.85 152.75 78.15 L153.2 79.75 167.85 77.6 Q170.6 77.05 170.6 75.8 170.6 74.85 167.4 74.05 164.2 73.2 164.2 72.5 164.2 71.55 165.65 69.65 L167.1 67.45 Q167.1 64.55 164.65 63.7 162.25 62.8 162.2 61.1 L160.8 61.0 M127.5 37.9 Q129.3 36.75 130.55 37.05 132.35 37.45 133.5 40.2 L133.7 40.65 133.65 40.65 134.0 41.65 134.55 44.5 134.55 44.65 134.55 44.75 134.55 44.9 134.5 46.3 Q133.95 47.5 131.3 47.5 125.55 47.5 123.45 46.25 122.05 45.4 122.05 43.5 122.05 42.65 125.15 39.75 L127.2 38.1 127.5 37.9 M158.65 60.3 L158.75 59.7 158.95 59.9 158.65 60.3 M130.05 39.55 Q129.9 40.45 127.8 41.75 125.35 43.2 124.75 44.25 L129.25 45.25 132.55 45.25 131.75 42.65 130.05 39.55 M135.25 56.95 L135.0 56.85 132.05 56.05 Q133.55 55.8 135.15 56.85 L135.25 56.95 M8.5 25.4 Q7.25 25.75 6.0 27.2 4.55 28.85 4.55 29.85 L4.65 30.9 5.3 33.15 5.9 35.25 7.7 35.7 8.05 35.8 7.8 35.55 Q7.25 32.55 8.4 30.05 9.45 27.8 11.3 27.05 L11.55 26.95 11.55 26.25 11.55 25.6 11.5 25.25 9.25 25.25 9.15 25.25 8.95 25.3 8.5 25.4 M11.75 29.6 L11.05 30.8 10.95 30.95 10.7 31.35 10.6 31.45 10.55 31.6 10.45 31.75 Q9.55 33.15 9.55 33.75 L9.8 35.35 10.05 36.55 Q10.0 38.3 9.55 38.45 9.3 38.55 8.4 37.85 7.05 36.85 5.95 37.1 L5.9 37.25 5.75 37.5 5.1 37.5 4.55 38.05 Q4.05 38.65 6.35 39.9 L11.95 42.75 Q19.85 47.05 20.5 51.5 L20.55 51.4 20.85 50.85 22.0 49.1 22.5 48.45 Q20.1 45.8 16.3 39.5 15.45 38.05 14.7 34.15 L14.05 32.2 12.35 30.05 11.8 29.55 11.75 29.6 M56.7 55.0 L56.85 55.0 Q56.0 52.95 54.55 51.05 49.25 44.25 38.15 44.25 L35.8 44.35 35.75 44.35 Q32.7 44.55 30.2 45.45 25.45 47.1 22.9 51.0 21.7 52.8 19.95 56.45 18.35 59.45 16.3 60.55 L9.0 64.35 Q5.95 66.0 4.65 67.35 2.05 70.05 2.05 78.75 L2.1 79.0 Q2.45 79.7 4.7 80.8 L4.75 80.8 Q7.85 82.25 10.9 82.25 12.8 82.25 13.85 81.4 14.95 80.5 18.55 80.5 L21.1 80.9 23.25 81.25 25.8 81.35 25.8 78.75 Q26.6 77.35 28.1 75.75 29.65 74.0 30.8 73.35 L31.1 73.35 Q31.4 71.1 34.9 70.3 40.0 69.15 41.0 68.25 41.9 67.5 42.25 64.3 42.55 62.0 45.3 62.0 47.75 62.0 48.95 60.8 L50.5 58.2 Q52.05 55.1 56.7 55.0 M73.3 5.05 Q71.3 4.85 70.75 6.45 L70.0 6.55 70.2 7.25 69.95 8.3 70.05 9.3 70.25 8.65 70.5 8.5 70.6 8.5 71.0 9.75 Q71.65 11.0 73.05 11.0 75.15 11.0 75.8 9.5 L76.0 8.05 76.55 8.05 76.5 6.4 Q76.2 4.55 74.8 4.55 L73.65 5.1 73.3 5.05 M82.15 5.75 L78.45 5.1 78.55 6.4 78.1 8.15 82.5 8.95 Q82.5 7.8 82.95 6.5 L82.05 6.0 82.25 5.8 82.15 5.75 M59.55 12.5 L65.35 12.1 66.55 12.05 66.65 11.15 66.75 10.75 67.65 10.5 67.1 10.15 68.8 9.85 67.8 9.1 Q66.45 8.25 65.15 8.25 64.3 8.25 62.45 9.65 L62.3 9.65 Q59.8 9.9 59.55 12.05 L59.45 12.15 59.5 12.5 59.55 12.5 M84.65 6.85 L84.3 6.9 84.55 8.55 84.35 9.55 Q86.2 10.25 87.95 11.3 L88.2 10.85 Q87.85 9.75 86.9 8.25 85.7 6.3 85.05 6.3 L84.65 6.85 M70.05 9.65 L70.05 9.5 70.05 9.3 69.65 9.7 70.05 9.65 M74.55 41.5 Q76.65 41.5 77.05 38.8 L77.05 35.9 Q77.05 28.3 69.3 19.8 66.15 16.35 63.95 15.75 L62.45 15.85 62.15 16.1 Q65.45 19.1 68.95 27.4 L70.55 30.5 70.9 32.25 Q73.0 37.95 73.05 40.9 73.7 41.5 74.55 41.5 M57.45 14.25 L57.55 14.15 57.65 13.65 57.7 13.4 57.25 12.9 Q56.65 12.25 54.9 12.25 L52.15 12.65 49.55 13.05 49.55 14.0 Q50.3 14.9 50.45 16.85 L50.55 17.45 51.05 17.55 52.4 16.75 52.5 16.8 Q53.6 18.0 55.05 18.0 56.7 18.0 57.3 16.55 L57.55 15.05 57.45 14.25 M52.25 21.05 L52.25 21.0 52.05 21.25 52.25 21.05 M55.25 20.4 L56.0 21.05 56.2 21.4 Q58.6 23.1 60.8 29.7 64.05 39.4 64.05 45.85 L63.95 48.1 Q64.8 49.5 66.05 49.5 L66.9 49.35 67.5 49.0 Q68.3 48.35 68.5 46.9 L68.55 44.1 Q68.55 34.75 61.8 24.7 59.1 20.7 57.15 19.75 55.75 19.05 55.25 20.4 M87.25 40.25 Q88.3 39.7 88.55 38.0 L88.55 35.3 Q88.55 26.75 79.8 17.8 76.35 14.25 73.8 13.4 L73.55 13.35 72.75 13.2 72.6 13.2 72.55 13.2 Q71.85 13.2 71.45 13.75 74.8 15.95 78.3 22.0 83.05 30.05 83.05 34.65 L83.0 36.15 Q84.25 40.5 86.05 40.5 L87.25 40.25 M26.5 29.6 Q27.25 28.35 29.05 26.7 L30.45 25.5 Q27.75 25.4 23.1 23.65 L20.15 22.65 19.4 22.45 Q16.85 21.75 14.9 21.75 13.65 21.75 14.05 22.05 L13.8 24.0 13.55 26.0 Q13.55 26.65 14.05 27.2 L14.1 27.3 14.55 27.65 Q16.05 29.25 16.05 33.0 L16.1 33.25 Q16.8 35.4 20.4 41.45 L23.75 47.2 24.8 46.35 24.95 46.25 24.55 46.0 25.45 41.6 Q24.65 42.0 24.05 42.0 22.8 42.0 22.75 41.55 L22.55 39.3 Q22.55 38.05 23.55 37.0 23.65 34.7 26.8 32.75 L26.9 32.65 26.6 32.4 Q26.05 31.85 26.05 31.0 26.05 30.4 26.5 29.6 M47.6 16.4 Q46.9 15.5 45.55 15.5 L43.4 17.25 Q41.35 19.0 41.05 19.55 L42.5 20.55 Q43.05 20.9 43.05 21.75 L43.05 21.9 44.3 21.3 Q44.95 22.0 46.05 22.0 47.7 22.0 48.3 20.55 L48.5 19.6 49.15 19.35 49.1 19.15 48.35 17.85 Q47.85 17.15 47.65 16.45 L47.6 16.4 M29.45 30.95 L29.4 31.55 Q31.95 30.85 33.55 32.7 33.7 30.3 35.1 28.2 L33.35 25.75 33.25 25.65 31.25 27.75 Q28.75 30.4 28.75 30.8 L29.45 30.95 M48.85 22.7 Q51.0 23.6 53.05 29.55 55.05 35.4 55.05 38.0 L54.75 42.1 Q54.5 44.0 54.05 45.1 L54.05 45.35 Q54.05 46.0 54.55 46.85 55.25 48.0 56.55 48.0 58.55 48.0 59.25 46.15 L59.55 44.1 Q59.55 33.9 53.8 25.9 51.55 22.8 49.85 22.5 L48.85 22.7 M34.55 39.05 Q33.6 35.65 33.55 33.4 L31.0 33.1 Q29.1 33.0 27.55 34.8 27.25 35.15 26.6 36.9 25.85 38.4 24.9 38.5 L24.8 38.8 24.75 39.25 24.95 39.1 Q26.7 38.0 28.3 38.0 29.95 38.0 30.4 38.75 30.8 39.5 31.3 39.5 L33.2 39.3 Q34.2 39.15 34.5 39.3 L34.55 39.3 34.55 40.8 Q34.1 41.5 32.8 42.05 L30.55 42.5 Q29.35 42.5 29.2 41.65 29.1 40.8 28.0 40.3 L26.95 43.4 25.95 45.65 Q29.8 43.45 36.1 42.65 35.3 41.45 34.6 39.3 L34.55 39.05 M40.0 21.3 L39.9 21.75 39.05 22.0 Q38.4 21.75 36.85 22.45 L34.55 23.5 36.4 26.6 Q38.35 24.5 41.55 22.7 L40.0 21.3 M40.75 27.45 Q42.3 28.55 43.35 31.45 44.55 34.75 44.55 37.9 44.55 40.75 43.5 41.7 L44.8 42.0 Q45.95 42.0 46.65 41.5 L47.55 43.0 Q49.2 43.0 49.8 41.7 L50.05 40.25 Q50.05 31.9 45.05 28.15 43.1 26.65 41.6 27.0 41.1 27.1 40.75 27.45 M30.65 56.2 Q33.0 54.65 36.3 54.1 L41.95 54.45 Q44.55 55.5 44.55 58.15 L44.5 59.05 Q44.35 60.25 43.75 61.25 41.7 64.5 35.8 64.5 31.3 64.5 29.3 62.55 28.05 61.35 28.05 59.9 28.05 57.9 30.65 56.2 M35.7 59.2 Q33.65 60.9 33.25 61.8 33.25 62.25 34.0 62.3 L36.7 60.1 38.05 61.5 39.05 61.55 Q39.85 61.4 40.05 61.05 L37.65 59.3 Q39.1 58.0 39.55 57.05 L39.3 56.7 39.05 56.5 36.7 58.4 Q35.4 57.15 34.3 56.55 34.15 57.75 35.7 59.2 M20.0 71.45 L20.05 72.25 Q20.05 73.2 18.55 75.0 16.45 77.5 13.3 77.5 12.05 77.5 12.55 77.3 L12.3 77.1 Q12.05 76.8 12.05 76.0 12.05 75.3 14.9 73.3 17.95 71.1 19.8 71.05 L20.0 71.45 M42.15 73.1 L41.7 73.35 40.05 73.4 42.15 73.1 M59.65 67.65 L59.6 67.8 59.4 67.9 59.45 67.8 59.65 67.65 M64.25 51.8 L64.3 51.5 64.1 51.4 64.0 51.75 64.25 51.8 M60.4 51.3 L60.35 51.35 60.5 51.35 60.4 51.3" fill="#000000" fill-rule="evenodd" stroke="none"/>
    <path d="M134.35 2.4 Q136.5 1.75 137.15 1.75 137.65 1.75 140.55 6.55 139.8 8.1 136.85 7.25 L134.95 7.0 Q134.6 4.4 132.35 2.9 L134.35 2.4 M132.7 7.45 Q132.35 6.8 131.55 6.5 130.45 6.0 126.75 5.8 L124.35 5.4 125.0 4.95 Q126.65 3.75 130.15 3.75 131.5 3.75 132.25 5.7 L132.7 7.45 M143.35 5.05 Q145.55 5.55 145.55 6.15 L145.25 7.7 144.55 9.25 141.75 9.25 141.2 8.5 142.05 8.05 143.05 6.55 Q143.05 5.9 142.35 4.75 L143.35 5.05 M147.15 9.9 Q148.3 11.05 148.3 12.1 L148.25 12.95 148.05 13.3 147.55 13.55 146.15 13.75 144.4 12.0 143.85 11.5 Q145.9 11.25 146.8 9.5 L147.15 9.9 M148.15 15.7 L148.25 15.95 148.05 19.0 Q147.25 18.8 146.5 19.25 L146.1 16.45 146.05 16.0 148.15 15.7 M147.6 21.55 L148.05 21.05 149.15 22.7 147.6 21.55 M139.6 32.5 L135.75 31.15 135.8 31.05 135.8 30.95 Q134.9 30.85 134.3 30.4 L134.2 30.65 Q129.05 29.1 121.05 27.25 L120.85 27.15 123.05 24.8 125.55 21.1 Q125.55 19.7 123.8 17.5 122.05 15.3 122.05 13.05 122.05 10.85 119.55 9.15 117.05 7.5 117.05 6.6 L117.05 5.85 117.25 5.5 117.15 5.3 Q117.05 5.05 117.8 5.05 119.3 5.05 120.1 5.8 L121.45 7.4 Q123.45 9.4 129.9 8.85 L129.05 9.05 129.0 9.05 Q127.55 9.4 127.55 9.6 L127.65 10.45 127.8 10.8 Q127.35 10.95 128.25 11.0 L128.2 11.2 Q127.55 11.65 127.55 11.85 127.55 13.05 128.3 14.3 128.95 16.3 131.0 19.75 132.85 22.85 134.25 24.15 L134.05 24.5 Q135.1 25.25 136.5 25.6 L141.3 26.0 143.65 25.5 Q145.4 25.0 146.05 25.0 146.8 25.0 147.5 25.9 L148.3 27.05 Q147.65 27.75 142.8 30.5 140.8 31.65 139.6 32.5 M138.25 23.2 Q139.9 23.95 141.6 24.0 L139.45 24.25 138.45 24.0 138.25 23.2 M150.75 21.2 L151.45 20.65 Q152.4 19.75 155.15 19.75 158.55 19.75 159.7 21.2 160.25 21.85 160.25 22.8 160.25 24.55 156.4 25.5 L154.75 26.0 153.85 24.85 151.05 21.55 150.75 21.2 M159.5 26.95 L160.05 26.5 Q161.7 25.1 162.25 23.95 L163.05 25.2 Q164.55 27.6 164.55 29.25 L160.55 29.25 159.5 26.95 M153.15 45.65 L151.25 43.8 153.05 41.2 Q155.05 38.1 155.05 37.05 L153.55 31.55 154.55 30.8 156.5 28.95 157.95 30.05 Q159.4 31.5 162.3 31.5 L165.7 31.2 163.3 33.45 Q161.0 35.55 159.0 36.5 157.0 38.0 153.15 45.65 M167.7 36.4 Q166.95 37.55 165.4 37.9 161.3 38.8 160.2 39.65 162.05 37.9 165.05 37.25 L167.7 36.4 M159.85 40.05 L158.9 41.4 158.9 41.3 159.85 40.05 M114.75 9.75 L116.0 9.3 117.05 10.15 Q118.2 11.0 118.85 12.25 L118.45 12.95 Q117.3 15.05 116.0 15.75 L112.55 15.75 112.8 13.95 113.05 12.1 Q113.05 11.3 112.65 10.95 L112.05 10.55 114.75 9.75 M129.05 9.05 L129.05 9.0 129.05 9.05 M109.95 13.3 Q109.55 13.75 109.55 14.55 109.55 15.7 110.55 16.75 L111.55 17.5 111.6 18.4 Q111.4 19.65 108.35 19.75 L108.0 19.75 107.9 19.75 Q105.9 19.75 105.05 18.5 104.55 17.75 104.55 16.9 104.55 16.3 105.05 14.8 L105.55 12.55 108.35 12.25 110.5 12.75 109.95 13.3 M97.55 15.5 L101.3 15.5 102.05 17.65 Q103.05 20.4 103.05 21.15 103.05 21.7 102.3 22.2 L100.8 23.3 Q100.35 23.2 99.85 22.4 99.45 21.7 98.15 21.5 L97.2 20.1 97.35 19.55 97.55 18.0 97.6 16.55 97.35 15.55 97.55 15.5 M90.05 12.3 Q95.2 12.3 95.4 14.9 L95.05 17.4 Q92.6 14.5 89.85 12.55 L90.05 12.3 M99.1 38.05 L95.05 38.9 95.05 37.9 Q95.05 31.0 92.05 24.8 88.45 17.25 81.0 12.0 L81.1 11.7 85.45 13.25 85.25 13.15 Q91.35 16.95 96.05 24.5 97.55 26.85 98.2 32.1 L99.1 38.05 M130.05 39.55 L131.75 42.65 132.55 45.25 129.25 45.25 124.75 44.25 Q125.35 43.2 127.8 41.75 129.9 40.45 130.05 39.55 M4.65 30.9 L4.55 29.85 Q4.55 28.85 6.0 27.2 7.25 25.75 8.5 25.4 5.25 27.55 4.65 30.9 M11.75 29.6 L11.8 29.55 12.35 30.05 11.85 29.6 11.75 29.6 M14.05 32.2 L14.7 34.15 Q15.45 38.05 16.3 39.5 20.1 45.8 22.5 48.45 L22.0 49.1 20.85 50.85 Q20.3 48.55 17.85 45.75 14.5 41.8 10.3 40.3 L11.2 39.35 13.3 39.25 13.25 37.95 13.05 36.25 Q13.05 35.65 13.55 34.25 L14.05 32.25 14.05 32.2 M4.7 80.8 Q5.6 79.85 6.2 77.75 6.85 75.5 7.05 73.0 7.2 71.0 9.05 68.8 11.05 66.35 14.55 64.3 L24.05 55.0 Q31.3 47.75 35.95 47.75 50.35 47.75 55.85 53.9 L56.7 55.0 Q52.05 55.1 50.5 58.2 L48.95 60.8 Q47.75 62.0 45.3 62.0 42.55 62.0 42.25 64.3 41.9 67.5 41.0 68.25 40.0 69.15 34.9 70.3 31.4 71.1 31.1 73.35 L30.8 73.35 Q29.65 74.0 28.1 75.75 26.6 77.35 25.8 78.75 L25.8 81.35 23.25 81.25 21.1 80.9 18.55 80.5 Q14.95 80.5 13.85 81.4 12.8 82.25 10.9 82.25 7.85 82.25 4.75 80.8 L4.7 80.8 M35.75 44.35 L34.95 44.65 Q32.6 45.55 30.75 45.55 L30.2 45.45 Q32.7 44.55 35.75 44.35 M73.3 5.05 L73.65 5.1 74.8 4.55 Q76.2 4.55 76.5 6.4 L76.55 8.05 76.0 8.05 75.8 9.5 Q75.15 11.0 73.05 11.0 71.65 11.0 71.0 9.75 L70.6 8.5 70.5 8.5 70.25 8.65 70.05 9.3 69.95 8.3 70.2 7.25 70.0 6.55 70.75 6.45 Q71.3 4.85 73.3 5.05 M82.05 6.0 L82.95 6.5 Q82.5 7.8 82.5 8.95 L78.1 8.15 78.55 6.4 78.45 5.1 82.15 5.75 82.05 6.0 M84.65 6.85 L85.05 6.3 Q85.7 6.3 86.9 8.25 87.85 9.75 88.2 10.85 L87.95 11.3 Q86.2 10.25 84.35 9.55 L84.55 8.55 84.3 6.9 84.65 6.85 M59.55 12.05 Q59.8 9.9 62.3 9.65 L62.45 9.65 Q64.3 8.25 65.15 8.25 66.45 8.25 67.8 9.1 L68.8 9.85 67.1 10.15 67.65 10.5 66.75 10.75 66.65 11.15 66.55 12.05 65.35 12.1 59.55 12.5 59.55 12.05 M62.45 15.85 L63.5 16.45 Q67.65 19.1 71.3 23.5 73.3 25.85 74.15 28.7 75.0 31.55 74.55 34.3 L74.55 41.5 Q73.7 41.5 73.05 40.9 73.0 37.95 70.9 32.25 L70.55 30.5 68.95 27.4 Q65.45 19.1 62.15 16.1 L62.45 15.85 M57.45 14.25 L57.55 15.05 57.3 16.55 Q56.7 18.0 55.05 18.0 53.6 18.0 52.5 16.8 L52.4 16.75 51.05 17.55 50.55 17.45 50.45 16.85 Q50.3 14.9 49.55 14.0 L49.55 13.05 52.15 12.65 54.9 12.25 Q56.65 12.25 57.25 12.9 L57.7 13.4 57.65 13.65 57.55 14.15 57.45 14.25 M55.25 20.4 L56.3 21.05 Q58.35 22.3 59.25 23.5 L63.0 28.75 65.1 33.55 Q67.05 38.35 67.05 39.0 L66.55 42.1 Q66.05 44.55 66.05 45.15 L66.05 47.8 Q66.25 49.0 66.9 49.35 L66.05 49.5 Q64.8 49.5 63.95 48.1 L64.05 45.85 Q64.05 39.4 60.8 29.7 58.6 23.1 56.2 21.4 L56.0 21.05 55.25 20.4 M72.6 13.2 L75.25 15.55 Q80.2 20.3 83.55 26.3 85.25 29.35 85.95 34.45 86.4 37.95 87.25 40.25 L86.05 40.5 Q84.25 40.5 83.0 36.15 L83.05 34.65 Q83.05 30.05 78.3 22.0 74.8 15.95 71.45 13.75 71.85 13.2 72.55 13.2 L72.6 13.2 M26.5 29.6 Q26.05 30.4 26.05 31.0 26.05 31.85 26.6 32.4 L26.8 32.75 Q23.65 34.7 23.55 37.0 22.55 38.05 22.55 39.3 L22.75 41.55 Q22.8 42.0 24.05 42.0 24.65 42.0 25.45 41.6 L24.55 46.0 24.8 46.35 23.75 47.2 20.4 41.45 Q16.8 35.4 16.1 33.25 16.55 31.8 16.55 29.05 16.5 27.15 18.0 25.7 L18.05 25.65 Q18.05 26.0 22.55 28.0 25.05 29.1 26.5 29.6 M19.4 22.45 L20.15 22.65 19.5 22.95 19.4 22.45 M29.45 30.95 L28.75 30.8 Q28.75 30.4 31.25 27.75 L33.25 25.65 33.35 25.75 35.1 28.2 Q33.7 30.3 33.55 32.7 31.95 30.85 29.4 31.55 L29.45 30.95 M47.6 16.4 L47.65 16.45 Q47.85 17.15 48.35 17.85 L49.1 19.15 49.15 19.35 48.5 19.6 48.3 20.55 Q47.7 22.0 46.05 22.0 44.95 22.0 44.3 21.3 L43.05 21.9 43.05 21.75 Q43.05 20.9 42.5 20.55 L41.05 19.55 Q41.35 19.0 43.4 17.25 L45.55 15.5 Q46.9 15.5 47.6 16.4 M48.85 22.7 L49.85 22.5 Q51.55 22.8 53.8 25.9 59.55 33.9 59.55 44.1 L59.25 46.15 Q58.55 48.0 56.55 48.0 55.25 48.0 54.55 46.85 54.05 46.0 54.05 45.35 L54.05 45.1 Q54.5 44.0 54.75 42.1 L55.05 38.0 Q55.05 35.4 53.05 29.55 51.0 23.6 48.85 22.7 M40.0 21.3 L41.55 22.7 Q38.35 24.5 36.4 26.6 L34.55 23.5 36.85 22.45 Q38.4 21.75 39.05 22.0 L39.9 21.75 40.0 21.3 M24.8 38.8 L24.9 38.5 Q25.85 38.4 26.6 36.9 27.25 35.15 27.55 34.8 29.1 33.0 31.0 33.1 L33.55 33.4 Q33.6 35.65 34.55 39.05 L34.5 39.3 Q34.2 39.15 33.2 39.3 L31.3 39.5 Q30.8 39.5 30.4 38.75 29.95 38.0 28.3 38.0 26.7 38.0 24.95 39.1 L24.8 38.8 M34.6 39.3 Q35.3 41.45 36.1 42.65 29.8 43.45 25.95 45.65 L26.95 43.4 28.0 40.3 Q29.1 40.8 29.2 41.65 29.35 42.5 30.55 42.5 L32.8 42.05 Q34.1 41.5 34.55 40.8 L34.55 39.3 34.6 39.3 M40.75 27.45 Q41.1 27.1 41.6 27.0 43.1 26.65 45.05 28.15 50.05 31.9 50.05 40.25 L49.8 41.7 Q49.2 43.0 47.55 43.0 L46.65 41.5 Q45.95 42.0 44.8 42.0 L43.5 41.7 Q44.55 40.75 44.55 37.9 44.55 34.75 43.35 31.45 42.3 28.55 40.75 27.45 M30.65 56.2 Q28.05 57.9 28.05 59.9 28.05 61.35 29.3 62.55 31.3 64.5 35.8 64.5 41.7 64.5 43.75 61.25 44.35 60.25 44.5 59.05 L44.55 58.15 Q44.55 55.5 41.95 54.45 L36.3 54.1 Q33.0 54.65 30.65 56.2 M20.0 71.45 L19.8 71.05 Q17.95 71.1 14.9 73.3 12.05 75.3 12.05 76.0 12.05 76.8 12.3 77.1 L12.55 77.3 Q12.05 77.5 13.3 77.5 16.45 77.5 18.55 75.0 20.05 73.2 20.05 72.25 L20.0 71.45" fill="#6a665d" fill-rule="evenodd" stroke="none"/>
    <path d="M141.6 24.0 L141.8 24.0 Q147.05 24.0 147.45 23.1 L147.4 23.05 147.4 22.95 147.45 21.85 147.6 21.6 147.6 21.55 149.15 22.7 152.65 27.3 152.55 27.6 Q152.05 28.05 151.8 28.75 L151.5 30.0 148.3 31.35 Q144.35 32.9 142.8 34.2 L141.2 33.2 139.6 32.5 Q140.8 31.65 142.8 30.5 147.65 27.75 148.3 27.05 L147.5 25.9 Q146.8 25.0 146.05 25.0 145.4 25.0 143.65 25.5 L141.3 26.0 136.5 25.6 Q135.1 25.25 134.05 24.5 L134.25 24.15 Q132.85 22.85 131.0 19.75 128.95 16.3 128.3 14.3 129.4 16.05 132.05 17.9 134.6 19.75 135.7 21.45 L135.75 21.4 Q136.25 22.0 137.5 22.75 L137.85 23.0 138.25 23.2 138.45 24.0 139.45 24.25 141.6 24.0 M128.25 11.0 L128.45 11.0 128.2 11.2 128.25 11.0 M165.7 31.2 L166.75 30.75 166.85 30.7 168.1 32.1 Q168.55 32.5 168.55 33.15 L168.55 33.6 168.2 35.5 167.75 36.4 167.7 36.4 165.05 37.25 Q162.05 37.9 160.2 39.65 L160.05 39.8 159.85 40.05 158.9 41.3 158.9 41.4 158.6 41.75 157.6 43.4 157.4 43.75 Q155.55 46.8 155.55 47.5 L155.5 47.55 155.25 47.35 154.5 46.8 153.15 45.65 Q157.0 38.0 159.0 36.5 161.0 35.55 163.3 33.45 L165.7 31.2 M129.05 9.05 L129.05 9.0 129.05 9.05 M85.45 13.25 L85.85 13.4 89.75 15.5 89.9 15.6 92.2 17.3 93.35 18.4 93.95 18.95 94.3 19.35 Q95.85 21.05 96.95 23.1 98.6 26.0 99.8 30.4 L101.55 37.3 99.1 38.05 98.2 32.1 Q97.55 26.85 96.05 24.5 91.35 16.95 85.25 13.15 L85.45 13.25 M8.5 25.4 L8.95 25.3 9.15 25.25 9.25 25.25 11.5 25.25 11.55 25.6 11.55 26.25 11.55 26.95 11.3 27.05 Q9.45 27.8 8.4 30.05 7.25 32.55 7.8 35.55 L7.7 35.7 5.9 35.25 5.3 33.15 4.65 30.9 Q5.25 27.55 8.5 25.4 M20.85 50.85 L20.55 51.4 20.5 51.5 Q19.85 47.05 11.95 42.75 L6.35 39.9 Q4.05 38.65 4.55 38.05 L5.1 37.5 5.75 37.5 5.9 37.25 5.95 37.1 Q7.05 36.85 8.4 37.85 9.3 38.55 9.55 38.45 10.0 38.3 10.05 36.55 L9.8 35.35 9.55 33.75 Q9.55 33.15 10.45 31.75 L10.55 31.6 10.6 31.45 10.7 31.35 10.95 30.95 11.05 30.8 11.75 29.6 11.85 29.6 12.35 30.05 14.05 32.2 14.05 32.25 13.55 34.25 Q13.05 35.65 13.05 36.25 L13.25 37.95 13.3 39.25 11.2 39.35 10.3 40.3 Q14.5 41.8 17.85 45.75 20.3 48.55 20.85 50.85 M56.7 55.0 L55.85 53.9 Q50.35 47.75 35.95 47.75 31.3 47.75 24.05 55.0 L14.55 64.3 Q11.05 66.35 9.05 68.8 7.2 71.0 7.05 73.0 6.85 75.5 6.2 77.75 5.6 79.85 4.7 80.8 2.45 79.7 2.1 79.0 L2.05 78.75 Q2.05 70.05 4.65 67.35 5.95 66.0 9.0 64.35 L16.3 60.55 Q18.35 59.45 19.95 56.45 21.7 52.8 22.9 51.0 25.45 47.1 30.2 45.45 L30.75 45.55 Q32.6 45.55 34.95 44.65 L35.75 44.35 35.8 44.35 38.15 44.25 Q49.25 44.25 54.55 51.05 56.0 52.95 56.85 55.0 L56.7 55.0 M62.45 15.85 L63.95 15.75 Q66.15 16.35 69.3 19.8 77.05 28.3 77.05 35.9 L77.05 38.8 Q76.65 41.5 74.55 41.5 L74.55 34.3 Q75.0 31.55 74.15 28.7 73.3 25.85 71.3 23.5 67.65 19.1 63.5 16.45 L62.45 15.85 M66.9 49.35 Q66.25 49.0 66.05 47.8 L66.05 45.15 Q66.05 44.55 66.55 42.1 L67.05 39.0 Q67.05 38.35 65.1 33.55 L63.0 28.75 59.25 23.5 Q58.35 22.3 56.3 21.05 L55.25 20.4 Q55.75 19.05 57.15 19.75 59.1 20.7 61.8 24.7 68.55 34.75 68.55 44.1 L68.5 46.9 Q68.3 48.35 67.5 49.0 L66.9 49.35 M87.25 40.25 Q86.4 37.95 85.95 34.45 85.25 29.35 83.55 26.3 80.2 20.3 75.25 15.55 L72.6 13.2 72.75 13.2 73.55 13.35 73.8 13.4 Q76.35 14.25 79.8 17.8 88.55 26.75 88.55 35.3 L88.55 38.0 Q88.3 39.7 87.25 40.25 M20.15 22.65 L23.1 23.65 Q27.75 25.4 30.45 25.5 L29.05 26.7 Q27.25 28.35 26.5 29.6 25.05 29.1 22.55 28.0 18.05 26.0 18.05 25.65 L18.0 25.7 Q16.5 27.15 16.55 29.05 16.55 31.8 16.1 33.25 L16.05 33.0 Q16.05 29.25 14.55 27.65 L14.1 27.3 14.05 27.2 Q13.55 26.65 13.55 26.0 L13.8 24.0 14.05 22.05 Q13.65 21.75 14.9 21.75 16.85 21.75 19.4 22.45 L19.5 22.95 20.15 22.65" fill="#9c988e" fill-rule="evenodd" stroke="none"/>
    <path d="M105.05 21.45 Q106.2 22.0 107.8 22.0 L108.65 22.0 115.7 27.45 Q108.8 27.85 106.55 29.25 105.35 30.0 104.6 31.5 L103.45 34.15 Q103.1 31.95 101.75 28.55 L100.4 25.5 Q103.4 25.45 104.5 23.5 105.0 22.65 105.05 21.45 M160.8 61.0 L162.2 61.1 Q162.25 62.8 164.65 63.7 167.1 64.55 167.1 67.45 L165.65 69.65 Q164.2 71.55 164.2 72.5 164.2 73.2 167.4 74.05 170.6 74.85 170.6 75.8 170.6 77.05 167.85 77.6 L153.2 79.75 152.75 78.15 Q151.65 76.85 147.95 76.85 147.05 76.85 146.35 77.75 145.7 78.6 140.95 78.6 139.65 78.6 138.4 77.75 137.2 76.85 130.45 76.85 L124.05 77.5 117.65 78.1 Q115.3 78.1 114.6 76.5 113.95 74.85 110.2 74.85 106.6 74.85 106.35 75.65 105.9 76.85 104.2 77.35 L96.55 79.75 95.3 78.55 Q93.9 77.35 90.05 77.35 86.35 77.35 85.7 79.0 85.05 80.6 78.75 80.6 75.1 80.6 74.4 78.75 73.7 76.85 68.8 76.85 67.6 76.85 67.4 77.45 L67.15 78.75 Q66.4 80.6 59.3 80.6 58.75 80.6 57.6 79.5 56.45 78.35 52.8 78.35 50.35 78.35 50.2 78.9 50.05 79.55 42.8 79.85 41.7 79.85 33.05 82.1 L30.55 81.65 Q29.0 81.15 28.8 80.85 29.8 78.2 31.7 76.35 33.3 74.75 33.3 74.35 L33.3 73.75 33.45 73.7 33.8 73.05 Q34.7 71.85 38.05 71.35 41.55 70.85 42.05 70.3 L44.0 67.65 Q45.0 65.75 44.75 64.5 45.05 64.5 45.05 64.05 48.45 64.45 49.9 63.45 50.75 62.85 51.45 60.95 52.2 58.95 53.15 58.1 54.1 57.25 55.7 56.9 L56.0 56.35 Q57.0 54.7 57.55 54.5 L59.15 55.3 59.0 54.95 62.3 54.5 62.65 54.5 62.8 54.5 Q64.2 54.5 66.4 56.65 68.6 58.75 70.4 58.75 73.9 58.75 81.7 52.65 89.5 46.5 92.05 46.5 95.1 46.5 96.85 48.45 L98.25 50.55 Q102.9 48.7 107.7 45.25 L114.8 39.95 Q120.65 36.1 127.25 37.85 L127.5 37.9 127.2 38.1 125.15 39.75 Q122.05 42.65 122.05 43.5 122.05 45.4 123.45 46.25 125.55 47.5 131.3 47.5 133.95 47.5 134.5 46.3 L134.55 44.9 134.55 44.75 134.55 44.65 134.55 44.5 134.0 41.65 133.65 40.65 133.7 40.65 Q137.5 42.75 139.3 44.8 140.6 46.2 141.75 49.25 143.05 52.55 149.55 54.7 155.55 56.7 155.55 58.75 L155.55 59.4 156.2 59.6 Q157.6 60.15 158.65 60.3 L159.35 60.35 159.55 60.6 159.7 61.0 160.8 61.0 M130.75 52.3 L132.55 52.8 132.5 51.65 134.05 51.1 Q134.05 49.85 132.7 48.95 131.35 48.05 129.4 48.05 124.45 48.05 121.55 53.35 L121.75 54.0 122.0 54.6 Q122.25 55.0 123.05 55.0 L130.75 52.3 M135.25 56.95 L135.15 56.85 Q133.55 55.8 132.05 56.05 L135.0 56.85 135.25 56.95 M42.15 73.1 L40.05 73.4 41.7 73.35 42.15 73.1 M59.65 67.65 Q60.8 66.7 60.8 65.85 60.8 64.15 58.6 63.55 56.6 63.05 53.8 63.6 46.8 65.0 46.8 69.05 L46.9 69.85 47.05 70.0 47.4 70.95 51.3 71.35 54.55 70.95 Q55.8 70.55 55.8 70.0 55.8 69.85 58.3 68.45 L59.45 67.8 59.4 67.9 59.6 67.8 59.65 67.65 M68.35 68.0 L68.7 68.1 69.8 68.35 Q71.65 68.35 74.3 67.35 L77.8 66.8 82.45 66.1 Q83.75 65.85 84.75 65.2 85.75 64.6 85.8 64.0 L86.1 62.85 86.3 61.35 Q86.3 56.55 77.3 60.3 73.8 61.75 71.1 63.75 68.3 65.85 68.3 67.2 L68.35 68.0" fill="#200000" fill-rule="evenodd" stroke="none"/>
    <path d="M62.8 54.5 Q69.8 54.3 74.15 48.15 L77.3 43.75 Q79.15 41.75 81.4 41.75 82.35 41.75 83.8 43.4 L84.4 44.0 Q85.75 42.85 87.55 42.5 89.6 42.1 91.0 43.0 L91.25 43.2 Q93.35 41.75 95.25 41.25 L96.6 40.9 96.75 40.85 96.95 40.8 97.2 40.75 Q103.7 38.9 104.55 37.3 104.95 34.4 106.45 32.6 109.35 29.25 118.15 29.25 130.55 29.25 139.2 34.65 144.0 37.6 147.25 42.0 148.2 43.3 148.8 46.1 150.2 48.55 156.3 50.05 158.9 50.65 160.8 53.15 162.55 55.45 162.55 57.5 162.55 58.6 161.6 59.85 L160.8 61.0 159.7 61.0 159.55 60.6 159.35 60.35 158.65 60.3 Q157.6 60.15 156.2 59.6 L155.55 59.4 155.55 58.75 Q155.55 56.7 149.55 54.7 143.05 52.55 141.75 49.25 140.6 46.2 139.3 44.8 137.5 42.75 133.7 40.65 L133.5 40.2 Q132.35 37.45 130.55 37.05 129.3 36.75 127.5 37.9 L127.25 37.85 Q120.65 36.1 114.8 39.95 L107.7 45.25 Q102.9 48.7 98.25 50.55 L96.85 48.45 Q95.1 46.5 92.05 46.5 89.5 46.5 81.7 52.65 73.9 58.75 70.4 58.75 68.6 58.75 66.4 56.65 64.2 54.5 62.8 54.5 M59.0 54.95 L58.8 54.35 62.3 54.5 59.0 54.95 M158.65 60.3 L158.95 59.9 158.75 59.7 158.65 60.3 M130.75 52.3 L123.05 55.0 Q122.25 55.0 122.0 54.6 L121.75 54.0 121.55 53.35 Q124.45 48.05 129.4 48.05 131.35 48.05 132.7 48.95 134.05 49.85 134.05 51.1 L132.5 51.65 132.55 52.8 130.75 52.3 M59.45 67.8 L58.3 68.45 Q55.8 69.85 55.8 70.0 55.8 70.55 54.55 70.95 L51.3 71.35 47.4 70.95 47.05 70.0 46.9 69.85 46.8 69.05 Q46.8 65.0 53.8 63.6 56.6 63.05 58.6 63.55 60.8 64.15 60.8 65.85 60.8 66.7 59.65 67.65 L59.45 67.8 M68.35 68.0 L68.3 67.2 Q68.3 65.85 71.1 63.75 73.8 61.75 77.3 60.3 86.3 56.55 86.3 61.35 L86.1 62.85 85.8 64.0 Q85.75 64.6 84.75 65.2 83.75 65.85 82.45 66.1 L77.8 66.8 74.3 67.35 Q71.65 68.35 69.8 68.35 L68.7 68.1 68.35 68.0" fill="#2d0000" fill-rule="evenodd" stroke="none"/>
    <path d="M35.7 59.2 Q34.15 57.75 34.3 56.55 35.4 57.15 36.7 58.4 L39.05 56.5 39.3 56.7 39.55 57.05 Q39.1 58.0 37.65 59.3 L40.05 61.05 Q39.85 61.4 39.05 61.55 L38.05 61.5 36.7 60.1 34.0 62.3 Q33.25 62.25 33.25 61.8 33.65 60.9 35.7 59.2" fill="#68686d" fill-rule="evenodd" stroke="none"/>
  </g>
</svg>
