<?xml version="1.0" encoding="UTF-8" standalone="no"?>
<svg xmlns:ffdec="https://www.free-decompiler.com/flash" xmlns:xlink="http://www.w3.org/1999/xlink" ffdec:objectType="shape" height="150.0px" width="181.5px" xmlns="http://www.w3.org/2000/svg">
  <g transform="matrix(1.0, 0.0, 0.0, 1.0, 95.5, 78.0)">
    <path d="M1.3 -77.85 L1.5 -77.0 -5.6 -70.05 Q-13.45 -62.3 -16.75 -57.35 L-17.0 -57.1 Q-14.05 -58.35 -6.6 -62.0 1.2 -65.4 10.0 -67.0 L12.1 -67.0 12.3 -66.85 12.5 -66.0 5.9 -59.9 -3.3 -51.25 4.35 -53.3 17.0 -56.0 20.6 -56.0 20.8 -55.85 21.0 -55.0 17.6 -51.85 Q13.45 -48.05 10.6 -44.75 5.95 -39.2 4.8 -35.5 10.25 -34.3 15.0 -31.35 18.15 -29.6 24.55 -27.9 34.25 -25.25 44.25 -25.25 50.6 -25.25 57.6 -28.1 64.65 -31.0 67.5 -31.0 78.9 -31.0 83.5 -13.5 86.0 -3.95 86.0 7.8 L85.8 13.85 Q85.45 19.5 84.75 22.5 83.55 27.55 80.35 30.0 78.6 31.8 76.95 32.55 74.3 33.75 65.5 35.0 57.75 36.1 53.8 40.05 50.15 44.9 47.5 47.3 39.4 54.75 33.15 56.95 28.75 58.5 20.0 58.5 L10.5 57.9 10.5 58.0 Q10.5 60.4 16.5 67.5 L16.15 68.3 15.0 68.5 9.75 67.05 7.7 66.6 Q6.05 66.25 5.5 65.8 4.7 65.25 1.8 64.55 L-2.8 63.75 0.95 67.2 Q3.35 69.35 4.5 70.8 4.1 72.0 2.75 72.0 1.35 72.0 0.5 71.4 -0.6 70.55 -4.0 70.0 -6.4 69.6 -9.55 68.25 L-16.55 66.4 Q-21.1 65.0 -23.55 64.75 -23.4 66.25 -19.0 70.6 L-19.05 71.25 -19.25 71.75 -20.25 72.0 Q-41.05 68.1 -48.55 65.25 -53.0 63.55 -56.1 62.0 L-62.5 58.5 -74.15 51.7 Q-80.65 47.35 -84.05 42.75 -86.9 38.8 -89.15 33.05 -90.75 29.1 -92.5 22.8 -93.1 20.5 -94.3 12.5 -95.5 4.6 -95.5 2.9 L-95.0 -0.65 Q-94.5 -3.75 -94.5 -5.25 -94.5 -9.4 -94.0 -13.1 -93.3 -17.6 -91.3 -21.0 L-89.25 -25.25 Q-88.35 -26.75 -87.4 -27.2 -85.35 -31.6 -83.95 -32.7 -80.1 -40.55 -58.0 -59.0 -36.5 -77.0 -32.75 -77.0 L-31.8 -76.75 -31.65 -76.85 Q-31.5 -76.8 -31.5 -76.0 -31.5 -75.7 -33.65 -71.95 L-37.05 -66.25 -42.0 -56.6 -33.05 -62.35 Q-27.3 -66.1 -22.55 -68.25 -18.2 -70.15 -12.0 -73.7 -6.2 -76.55 1.1 -78.0 L1.3 -77.85 M6.75 -64.1 L7.0 -64.35 6.7 -64.25 Q-3.1 -61.85 -10.65 -57.9 -15.0 -55.65 -22.5 -50.5 L-22.3 -50.0 Q-21.65 -49.0 -19.25 -49.0 -16.6 -49.0 -12.7 -52.35 -7.75 -56.6 -2.5 -58.5 0.55 -59.6 4.4 -61.75 L6.75 -64.1 M15.1 -53.35 L-7.0 -47.5 -7.5 -47.6 -7.45 -47.4 Q-7.4 -46.7 -6.55 -45.75 -5.5 -44.5 -4.25 -44.5 -1.8 -44.5 8.0 -49.5 L14.8 -53.1 14.75 -53.0 15.05 -53.25 15.1 -53.35 M12.25 -19.0 L12.2 -19.1 12.0 -19.0 Q9.45 -19.0 5.75 -20.85 3.55 -21.9 -1.75 -24.6 -4.9 -26.5 -8.35 -27.6 -14.0 -29.45 -14.0 -26.15 L-13.25 -23.4 Q-12.2 -20.7 -10.5 -20.5 L-10.45 -20.95 Q-10.35 -20.85 -10.3 -21.0 -10.15 -21.1 -10.25 -21.35 L-9.5 -21.5 -9.2 -21.35 -9.0 -21.25 -6.5 -20.1 Q-2.65 -18.4 2.1 -17.25 L13.35 -17.25 12.25 -19.0 M55.65 36.3 Q58.95 33.85 62.35 33.25 L76.25 30.65 Q77.6 30.2 78.6 28.3 81.4 25.55 82.5 21.55 84.0 15.8 84.0 7.65 84.0 -5.55 80.65 -15.5 76.15 -28.75 67.25 -28.75 65.4 -28.75 58.35 -25.85 51.3 -23.0 44.25 -23.0 L41.0 -23.1 41.0 -23.0 Q41.0 -21.7 34.25 -20.75 25.75 -19.5 13.85 -20.75 14.0 -19.55 16.05 -18.15 18.0 -16.8 18.0 -16.3 18.0 -15.2 17.5 -15.1 L9.5 -15.0 Q0.65 -15.0 -1.7 -15.95 -3.75 -16.8 -5.3 -16.75 L-2.2 -13.35 0.0 -11.0 -0.05 -10.25 -0.3 -10.0 -4.5 -10.0 Q-5.8 -11.2 -14.3 -10.55 -23.25 -9.9 -26.55 -11.75 -28.2 -12.7 -29.5 -12.85 L-27.0 -9.75 Q-25.0 -7.1 -25.0 -6.5 L-25.05 -5.8 -25.3 -5.75 -25.95 -5.6 -27.5 -5.5 Q-29.9 -5.5 -30.1 -6.0 -30.4 -6.6 -35.0 -7.0 L-37.1 -7.45 -41.05 -8.25 Q-43.65 -8.6 -47.45 -9.65 L-52.05 -11.0 Q-51.05 -8.7 -48.5 -6.5 -48.55 -5.9 -48.8 -5.7 L-50.0 -5.5 Q-53.35 -5.5 -60.35 -9.75 L-69.0 -15.1 Q-71.15 -16.1 -73.1 -17.55 L-76.75 -20.35 Q-77.55 -21.0 -81.6 -22.9 L-85.95 -25.0 -86.05 -25.0 -88.75 -20.35 Q-92.15 -14.8 -92.5 -11.5 L-92.6 -7.9 -92.5 -4.0 Q-92.5 -2.75 -93.0 -0.2 L-93.5 2.85 Q-93.5 4.25 -90.5 21.5 -89.85 24.95 -87.6 30.55 L-83.5 39.8 Q-81.55 43.75 -74.0 48.5 L-61.8 56.25 Q-57.8 59.3 -47.55 62.7 -36.95 66.2 -23.55 68.75 -24.9 67.55 -25.95 65.15 -26.85 63.05 -27.0 61.55 L-26.65 61.15 -25.75 61.0 Q-18.15 64.5 -16.3 64.75 -14.3 65.05 -9.3 66.45 -5.1 67.65 -2.5 67.75 -2.65 66.5 -4.2 64.8 L-6.5 62.05 -6.15 61.25 -4.25 61.0 -1.6 61.45 1.1 62.25 4.2 62.7 Q5.25 62.65 6.5 63.55 7.75 64.45 9.3 65.1 L11.85 65.75 Q8.5 59.4 8.5 58.15 8.5 57.55 8.65 57.05 8.5 56.7 8.5 56.15 L8.5 55.45 8.6 55.25 8.8 55.15 9.75 55.0 14.9 55.65 20.0 56.25 Q30.15 56.25 34.7 54.05 37.15 52.85 46.5 45.05 L53.1 38.4 54.6 37.1 55.35 37.05 55.45 36.45 55.65 36.3 M-37.15 -71.6 L-47.6 -64.25 -49.1 -63.1 -49.15 -63.05 -61.0 -53.55 Q-74.7 -42.0 -82.55 -32.55 L-82.5 -32.0 -83.45 -30.45 -84.55 -28.25 -84.55 -28.0 -83.85 -28.2 Q-84.6 -27.6 -84.95 -26.7 -82.3 -26.5 -81.55 -25.85 L-81.45 -25.75 Q-80.35 -24.9 -78.55 -24.05 L-77.8 -23.75 -78.05 -24.2 Q-73.6 -25.45 -65.45 -35.5 -60.75 -41.3 -56.5 -47.6 -50.25 -54.05 -44.95 -59.95 L-41.95 -63.25 -42.5 -63.6 -41.7 -64.4 -40.7 -64.7 -40.6 -64.7 -40.35 -65.15 -38.45 -68.55 -37.85 -69.6 -37.35 -70.55 -36.85 -71.4 -36.55 -72.0 -37.15 -71.6 M-43.8 -51.85 L-43.05 -50.75 Q-41.9 -49.5 -40.25 -49.5 -38.15 -49.5 -34.05 -54.15 -28.95 -59.9 -23.5 -62.6 -17.25 -65.7 -10.55 -69.6 L-7.45 -71.4 -4.8 -74.1 -4.5 -74.35 -4.85 -74.2 Q-19.0 -68.05 -26.1 -64.4 -38.75 -57.95 -43.5 -52.0 L-43.75 -52.1 -43.95 -52.25 -43.8 -51.85 M-29.45 -8.75 Q-31.0 -9.25 -32.25 -9.95 L-35.5 -11.85 Q-42.8 -15.15 -44.5 -16.35 -49.5 -21.85 -52.85 -21.8 -56.0 -21.75 -56.0 -17.4 -56.2 -16.6 -56.0 -15.75 -55.8 -14.95 -55.3 -14.5 L-55.1 -14.5 -55.0 -14.5 -54.8 -14.45 -54.15 -14.2 -53.5 -14.0 -53.45 -14.0 -44.0 -11.0 -37.75 -10.2 -36.65 -10.05 Q-32.0 -9.45 -29.5 -8.5 L-28.15 -7.8 -29.2 -8.65 -29.45 -8.75 M-10.0 -12.75 L-5.65 -12.75 -7.25 -13.7 Q-10.1 -15.65 -11.0 -16.0 L-17.1 -18.0 Q-20.6 -19.15 -23.0 -20.5 -28.05 -23.6 -30.0 -24.0 -33.5 -24.75 -33.5 -20.25 L-33.4 -18.0 -33.0 -16.9 -32.25 -17.0 -32.15 -17.0 -32.0 -17.0 -30.15 -16.45 -27.6 -15.15 Q-23.85 -13.1 -22.3 -12.75 L-10.3 -12.75 -10.0 -12.75 M-5.65 -12.75 L-5.0 -12.75 -5.1 -12.95 -5.65 -12.75" fill="#000000" fill-rule="evenodd" stroke="none"/>
    <path d="M6.75 -64.1 L6.7 -64.25 7.0 -64.35 6.75 -64.1 M15.05 -53.25 L15.1 -53.35 15.05 -53.25 M-7.0 -47.5 L-7.45 -47.4 -7.5 -47.6 -7.0 -47.5 M-36.85 -71.4 L-37.15 -71.6 -36.55 -72.0 -36.85 -71.4 M-43.8 -51.85 L-43.95 -52.25 -43.75 -52.1 -43.5 -52.0 -43.8 -51.85 M-4.85 -74.2 L-4.5 -74.35 -4.8 -74.1 -4.85 -74.2 M-29.45 -8.75 L-29.2 -8.65 -28.15 -7.8 -29.5 -8.5 -29.45 -8.75" fill="#11131a" fill-rule="evenodd" stroke="none"/>
    <path d="M55.5 36.3 L55.65 36.3 55.45 36.45 55.5 36.3" fill="#242939" fill-rule="evenodd" stroke="none"/>
    <path d="M6.7 -64.25 L6.75 -64.1 4.4 -61.75 Q0.55 -59.6 -2.5 -58.5 -7.75 -56.6 -12.7 -52.35 -16.6 -49.0 -19.25 -49.0 -21.65 -49.0 -22.3 -50.0 L-22.5 -50.5 Q-15.0 -55.65 -10.65 -57.9 -3.1 -61.85 6.7 -64.25 M15.05 -53.25 L14.8 -53.1 8.0 -49.5 Q-1.8 -44.5 -4.25 -44.5 -5.5 -44.5 -6.55 -45.75 -7.4 -46.7 -7.45 -47.4 L-7.0 -47.5 15.1 -53.35 15.05 -53.25 M12.0 -19.0 L12.25 -19.0 13.35 -17.25 2.1 -17.25 Q-2.65 -18.4 -6.5 -20.1 L-9.0 -21.25 -9.2 -21.35 -9.5 -21.5 -10.25 -21.35 Q-10.15 -21.1 -10.3 -21.0 -10.35 -20.85 -10.45 -20.95 L-10.5 -20.5 Q-12.2 -20.7 -13.25 -23.4 L-14.0 -26.15 Q-14.0 -29.45 -8.35 -27.6 -4.9 -26.5 -1.75 -24.6 3.55 -21.9 5.75 -20.85 9.45 -19.0 12.0 -19.0 M-81.55 -25.85 Q-82.3 -26.5 -84.95 -26.7 -84.6 -27.6 -83.85 -28.2 L-84.55 -28.0 -84.55 -28.25 -83.45 -30.45 -82.5 -32.0 -82.55 -32.55 Q-74.7 -42.0 -61.0 -53.55 L-49.15 -63.05 -49.1 -63.1 -47.6 -64.25 -37.15 -71.6 -36.85 -71.4 -37.35 -70.55 -37.85 -69.6 -38.45 -68.55 -40.35 -65.15 -40.7 -64.7 -41.7 -64.4 -42.5 -63.6 -41.95 -63.25 -44.95 -59.95 Q-50.25 -54.05 -56.5 -47.6 -60.75 -41.3 -65.45 -35.5 -73.6 -25.45 -78.05 -24.2 L-78.55 -24.05 Q-80.35 -24.9 -81.45 -25.75 L-81.5 -25.9 -81.55 -25.85 M-4.8 -74.1 L-7.45 -71.4 -10.55 -69.6 Q-17.25 -65.7 -23.5 -62.6 -28.95 -59.9 -34.05 -54.15 -38.15 -49.5 -40.25 -49.5 -41.9 -49.5 -43.05 -50.75 L-43.8 -51.85 -43.5 -52.0 Q-38.75 -57.95 -26.1 -64.4 -19.0 -68.05 -4.85 -74.2 L-4.8 -74.1 M-29.5 -8.5 Q-32.0 -9.45 -36.65 -10.05 L-37.75 -10.2 -44.0 -11.0 -53.45 -14.0 -53.5 -14.0 -54.15 -14.2 -54.8 -14.45 -55.0 -14.5 -55.1 -14.5 -55.3 -14.5 Q-55.8 -14.95 -56.0 -15.75 -56.2 -16.6 -56.0 -17.4 -56.0 -21.75 -52.85 -21.8 -49.5 -21.85 -44.5 -16.35 -42.8 -15.15 -35.5 -11.85 L-32.25 -9.95 Q-31.0 -9.25 -29.45 -8.75 L-29.5 -8.5 M-10.3 -12.75 L-22.3 -12.75 Q-23.85 -13.1 -27.6 -15.15 L-30.15 -16.45 -32.0 -17.0 -32.15 -17.0 -32.25 -17.0 -33.0 -16.9 -33.4 -18.0 -33.5 -20.25 Q-33.5 -24.75 -30.0 -24.0 -28.05 -23.6 -23.0 -20.5 -20.6 -19.15 -17.1 -18.0 L-11.0 -16.0 Q-10.1 -15.65 -7.25 -13.7 L-5.65 -12.75 -10.0 -12.75 -10.3 -13.0 -10.3 -12.75" fill="#1d1c16" fill-rule="evenodd" stroke="none"/>
    <path d="M55.5 36.1 L55.65 36.3 55.5 36.3 55.5 36.1" fill="#221f1c" fill-rule="evenodd" stroke="none"/>
    <path d="M-87.6 30.55 L-87.5 30.5 Q-87.5 28.95 -81.0 32.1 -72.6 36.25 -71.5 36.5 L-65.1 38.05 -55.0 40.5 -45.8 42.6 -32.65 43.25 Q-6.1 43.25 9.25 38.9 17.65 36.5 21.2 35.85 29.0 34.5 40.75 34.5 L47.25 34.65 55.1 35.0 55.3 35.2 Q55.5 35.35 55.5 36.1 L55.5 36.3 55.45 36.45 55.35 37.05 54.6 37.1 53.1 38.4 46.5 45.05 Q37.15 52.85 34.7 54.05 30.15 56.25 20.0 56.25 L14.9 55.65 9.75 55.0 8.8 55.15 8.6 55.25 8.5 55.45 8.5 56.15 Q8.5 56.7 8.65 57.05 8.5 57.55 8.5 58.15 8.5 59.4 11.85 65.75 L9.3 65.1 Q7.75 64.45 6.5 63.55 5.25 62.65 4.2 62.7 L1.1 62.25 -1.6 61.45 -4.25 61.0 -6.15 61.25 -6.5 62.05 -4.2 64.8 Q-2.65 66.5 -2.5 67.75 -5.1 67.65 -9.3 66.45 -14.3 65.05 -16.3 64.75 -18.15 64.5 -25.75 61.0 L-26.65 61.15 -27.0 61.55 Q-26.85 63.05 -25.95 65.15 -24.9 67.55 -23.55 68.75 -36.95 66.2 -47.55 62.7 -57.8 59.3 -61.8 56.25 L-74.0 48.5 Q-81.55 43.75 -83.5 39.8 L-87.6 30.55" fill="#5b5042" fill-rule="evenodd" stroke="none"/>
    <path d="M-87.6 30.55 Q-89.85 24.95 -90.5 21.5 -93.5 4.25 -93.5 2.85 L-93.0 -0.2 Q-92.5 -2.75 -92.5 -4.0 L-92.6 -7.9 -92.5 -11.5 Q-92.15 -14.8 -88.75 -20.35 L-86.05 -25.0 -85.95 -25.0 -81.6 -22.9 Q-77.55 -21.0 -76.75 -20.35 L-73.1 -17.55 Q-71.15 -16.1 -69.0 -15.1 L-60.35 -9.75 Q-53.35 -5.5 -50.0 -5.5 L-48.8 -5.7 Q-48.55 -5.9 -48.5 -6.5 -51.05 -8.7 -52.05 -11.0 L-47.45 -9.65 Q-43.65 -8.6 -41.05 -8.25 L-37.1 -7.45 -35.0 -7.0 Q-30.4 -6.6 -30.1 -6.0 -29.9 -5.5 -27.5 -5.5 L-25.95 -5.6 -25.3 -5.75 -25.05 -5.8 -25.0 -6.5 Q-25.0 -7.1 -27.0 -9.75 L-29.5 -12.85 Q-28.2 -12.7 -26.55 -11.75 -23.25 -9.9 -14.3 -10.55 -5.8 -11.2 -4.5 -10.0 L-0.3 -10.0 -0.05 -10.25 0.0 -11.0 -2.2 -13.35 -5.3 -16.75 Q-3.75 -16.8 -1.7 -15.95 0.65 -15.0 9.5 -15.0 L17.5 -15.1 Q18.0 -15.2 18.0 -16.3 18.0 -16.8 16.05 -18.15 14.0 -19.55 13.85 -20.75 25.75 -19.5 34.25 -20.75 41.0 -21.7 41.0 -23.0 L41.0 -23.1 44.25 -23.0 Q51.3 -23.0 58.35 -25.85 65.4 -28.75 67.25 -28.75 76.15 -28.75 80.65 -15.5 84.0 -5.55 84.0 7.65 84.0 15.8 82.5 21.55 81.4 25.55 78.6 28.3 77.6 30.2 76.25 30.65 L62.35 33.25 Q58.95 33.85 55.65 36.3 L55.5 36.1 Q55.5 35.35 55.3 35.2 L55.1 35.0 47.25 34.65 40.75 34.5 Q29.0 34.5 21.2 35.85 17.65 36.5 9.25 38.9 -6.1 43.25 -32.65 43.25 L-45.8 42.6 -55.0 40.5 -65.1 38.05 -71.5 36.5 Q-72.6 36.25 -81.0 32.1 -87.5 28.95 -87.5 30.5 L-87.6 30.55" fill="#3f362e" fill-rule="evenodd" stroke="none"/>
  </g>
</svg>
