<?xml version="1.0" encoding="UTF-8" standalone="no"?>
<svg xmlns:ffdec="https://www.free-decompiler.com/flash" xmlns:xlink="http://www.w3.org/1999/xlink" ffdec:objectType="shape" height="289.0px" width="295.25px" xmlns="http://www.w3.org/2000/svg">
  <g transform="matrix(1.0, 0.0, 0.0, 1.0, -5.6, 118.7)">
    <path d="M36.1 146.65 Q50.05 140.8 68.75 131.1 L63.15 117.75 Q57.6 105.15 58.05 104.95 58.3 103.55 59.15 103.7 60.05 100.95 83.1 92.95 100.85 86.6 110.4 84.25 124.5 79.75 138.75 73.8 154.0 66.85 162.8 60.5 186.8 41.55 192.95 27.35 L193.1 27.15 Q194.6 26.2 195.3 24.1 L195.45 23.35 Q196.85 20.25 198.0 15.9 L198.7 14.55 Q200.5 11.3 200.8 9.8 L201.45 5.15 202.05 0.5 Q202.4 -1.75 202.4 -8.65 202.4 -18.1 201.15 -21.35 L200.4 -22.85 Q200.1 -28.4 196.5 -34.4 L195.2 -36.45 Q194.1 -42.05 188.1 -50.2 184.65 -54.9 175.4 -65.1 171.2 -69.8 156.55 -80.5 151.15 -84.35 147.2 -86.4 142.3 -89.85 136.4 -93.5 L133.0 -95.55 127.55 -99.0 118.65 -105.25 124.85 -108.8 132.3 -107.5 Q135.7 -106.75 143.05 -103.95 L155.6 -98.85 Q161.55 -96.2 167.25 -92.95 L190.35 -79.4 Q206.2 -69.4 212.8 -62.8 227.8 -46.95 239.75 -26.05 251.2 -5.25 255.2 8.4 258.2 17.6 250.55 47.35 239.05 75.2 220.55 90.45 206.25 101.8 192.95 109.15 180.75 115.4 161.7 122.4 L142.0 129.6 123.5 136.1 Q72.9 150.3 72.9 150.65 47.5 149.95 36.1 146.65 M7.45 153.65 L7.45 153.9 7.15 153.7 7.45 153.65" fill="#555555" fill-opacity="0.49019608" fill-rule="evenodd" stroke="none"/>
    <path d="M124.85 -108.8 L127.55 -110.5 133.9 -114.15 Q138.25 -116.65 140.8 -117.6 L143.6 -118.7 147.85 -118.2 150.55 -117.85 Q153.55 -116.9 155.5 -116.7 162.05 -114.75 163.8 -114.55 L175.15 -112.4 188.55 -107.75 195.6 -104.9 198.55 -103.25 211.4 -96.2 234.1 -79.35 238.15 -76.35 246.65 -67.25 Q250.15 -63.35 258.0 -55.4 264.85 -48.25 267.9 -43.6 269.05 -41.8 272.3 -37.75 L276.65 -32.0 279.4 -26.1 Q280.85 -23.6 282.45 -22.3 L285.5 -17.15 Q289.9 -9.25 294.5 0.05 297.3 5.9 298.6 9.5 L299.4 14.05 299.7 17.45 Q299.85 18.85 300.35 19.9 300.15 23.4 300.55 27.5 302.15 54.0 294.5 66.65 285.95 82.65 258.95 104.4 254.8 107.25 246.8 112.3 237.6 117.2 233.4 119.9 220.95 127.25 208.3 134.35 200.75 138.55 196.6 141.1 188.6 145.3 182.0 147.85 164.85 153.55 150.7 157.45 L146.2 159.2 135.4 162.4 114.05 166.15 101.2 167.65 89.15 168.95 84.85 169.55 83.5 169.5 Q77.5 169.5 75.55 170.3 L50.55 169.1 48.5 168.5 42.65 167.65 Q40.2 166.8 38.5 167.0 L38.35 167.05 32.3 166.25 Q29.55 165.9 24.95 164.4 L17.9 162.25 14.8 161.85 10.4 159.7 Q9.4 158.85 8.55 158.75 5.7 155.8 5.6 155.45 L5.6 155.25 17.85 153.15 Q19.55 152.2 22.8 151.0 L24.7 150.0 Q25.05 149.65 25.4 149.7 26.15 149.3 27.05 148.85 L27.1 148.85 Q28.8 148.0 31.3 147.75 L35.35 147.0 Q35.55 146.45 36.1 146.65 47.5 149.95 72.9 150.65 72.9 150.3 123.5 136.1 L142.0 129.6 161.7 122.4 Q180.75 115.4 192.95 109.15 206.25 101.8 220.55 90.45 239.05 75.2 250.55 47.35 258.2 17.6 255.2 8.4 251.2 -5.25 239.75 -26.05 227.8 -46.95 212.8 -62.8 206.2 -69.4 190.35 -79.4 L167.25 -92.95 Q161.55 -96.2 155.6 -98.85 L143.05 -103.95 Q135.7 -106.75 132.3 -107.5 L124.85 -108.8" fill="#403536" fill-opacity="0.49019608" fill-rule="evenodd" stroke="none"/>
  </g>
</svg>
