<?xml version="1.0" encoding="UTF-8" standalone="no"?>
<svg xmlns:ffdec="https://www.free-decompiler.com/flash" xmlns:xlink="http://www.w3.org/1999/xlink" ffdec:objectType="shape" height="148.35px" width="105.5px" xmlns="http://www.w3.org/2000/svg">
  <g transform="matrix(1.0, 0.0, 0.0, 1.0, 51.1, 55.85)">
    <path d="M38.65 -25.95 L39.4 -28.5 Q39.4 -30.35 39.1 -30.8 L38.9 -31.05 38.9 -31.5 38.15 -38.0 Q37.4 -43.75 37.4 -45.75 37.4 -47.7 38.4 -50.25 39.7 -53.75 41.9 -53.75 44.3 -53.75 47.6 -48.9 50.6 -44.55 50.9 -42.0 L51.85 -36.1 Q52.4 -32.8 52.4 -30.35 52.4 -22.65 51.3 -16.8 L50.8 -17.0 Q47.2 -18.2 45.4 -19.1 44.45 -19.6 42.65 -21.25 L40.25 -23.75 38.65 -25.95 M50.65 -14.05 Q50.0 -11.65 49.15 -9.65 L47.6 -6.5 48.0 -7.3 44.25 -9.45 Q38.1 -12.55 35.65 -15.45 L35.6 -15.55 35.5 -15.25 37.05 -20.7 37.5 -22.25 37.9 -21.85 Q39.5 -19.8 41.8 -17.85 46.3 -14.0 50.15 -14.0 L50.65 -14.05 M45.85 -4.1 Q42.0 0.55 35.9 1.8 L35.55 1.25 33.9 -1.25 32.7 -3.7 32.0 -4.75 32.15 -4.95 33.9 -8.5 33.85 -9.5 34.9 -9.75 34.8 -10.2 Q34.65 -10.5 34.65 -11.25 L34.7 -11.85 Q40.2 -4.95 45.85 -4.1 M-7.65 26.55 L-7.1 26.85 -7.05 27.05 -7.1 26.9 -7.65 26.55 M12.4 -17.4 L14.8 -17.75 14.8 -17.55 Q14.8 -13.0 15.5 -8.95 14.5 -10.05 13.9 -11.1 13.3 -12.2 12.85 -14.0 12.4 -15.9 12.4 -17.4 M17.25 -2.6 L17.5 -2.05 Q19.15 2.0 21.6 4.75 19.5 6.0 16.15 7.2 L13.4 8.15 13.4 7.9 8.9 1.7 Q4.4 -4.35 4.4 -9.35 4.4 -13.2 4.9 -14.6 L5.1 -15.0 10.0 -16.8 9.45 -16.6 9.4 -14.75 Q9.4 -7.55 17.25 -2.6 M11.45 8.7 L6.8 9.7 Q2.75 9.7 0.05 5.35 L-3.8 -1.0 -5.35 -1.05 -5.6 -0.9 Q-5.8 -0.8 -5.8 -0.05 -5.8 2.05 -1.85 6.7 0.6 9.55 2.8 10.9 L2.7 12.2 Q2.7 13.8 -0.9 16.5 L-0.65 16.25 -0.6 16.0 Q-0.6 10.75 -3.35 7.45 -5.7 4.55 -9.35 3.8 -12.8 3.15 -15.35 4.65 -18.1 6.25 -18.1 9.4 L-17.6 13.45 Q-16.25 17.15 -11.85 17.15 -8.0 17.15 -6.9 14.9 L-6.6 12.5 Q-6.6 11.1 -6.9 10.45 -7.5 9.15 -9.35 9.15 L-11.15 9.4 -11.4 9.65 Q-11.6 9.9 -11.6 10.65 -11.6 11.45 -10.75 11.95 -9.75 12.5 -9.6 12.95 L-9.75 13.6 Q-9.85 13.95 -10.6 13.95 -13.5 13.95 -14.6 11.8 -15.15 10.7 -15.1 9.5 -15.1 8.15 -14.4 7.65 -13.4 6.9 -10.2 6.9 -5.2 6.9 -4.4 12.15 -4.0 14.8 -4.6 17.75 L-4.5 18.65 -4.45 18.8 Q-9.25 21.4 -13.35 20.45 L-13.45 20.5 -14.9 19.9 Q-16.55 19.15 -16.8 18.7 L-17.9 16.85 -18.8 15.25 Q-19.5 13.6 -19.7 12.0 L-19.8 9.85 Q-19.6 6.3 -16.85 2.4 L-16.8 2.35 -16.65 2.15 -16.55 1.95 Q-14.1 -1.4 -8.55 -6.5 -4.25 -10.4 1.45 -13.3 L1.4 -9.35 Q1.4 -5.65 1.55 -5.0 L3.65 0.7 Q4.35 2.4 7.4 5.95 L10.3 8.95 11.45 8.7 M17.3 9.5 Q20.4 8.15 21.9 6.7 L22.8 5.9 Q26.35 9.1 31.3 9.95 L33.3 9.95 32.2 11.9 Q31.0 13.9 30.75 15.2 L29.4 16.0 29.4 15.65 Q29.4 13.65 26.8 12.0 24.35 10.45 21.4 10.15 L17.3 9.5 M27.25 17.25 Q24.35 18.9 20.8 20.05 L20.7 19.75 Q22.7 17.9 22.7 17.25 L22.45 16.25 21.7 15.95 14.9 20.5 14.7 20.95 15.05 21.55 15.05 21.65 Q10.75 22.95 2.45 24.45 0.75 24.75 -0.5 25.15 L-0.6 24.4 -0.65 22.45 Q2.75 22.4 5.2 20.95 7.2 19.75 7.2 18.95 L7.15 18.45 Q6.15 18.0 4.35 18.85 1.95 19.95 -0.8 20.4 L-1.0 19.25 0.55 17.95 Q4.7 14.25 4.7 11.8 L4.7 11.7 6.45 11.95 Q9.65 11.95 13.05 11.0 L12.6 11.15 12.9 11.35 Q14.85 12.55 17.45 12.85 L9.4 15.5 9.3 15.3 9.2 15.4 9.2 16.05 9.4 17.0 Q9.3 17.1 9.35 17.25 9.4 17.45 10.2 17.45 14.7 17.45 17.9 15.4 20.2 13.9 20.2 13.2 L20.2 13.05 Q22.6 13.35 24.15 14.75 L27.25 17.25 M-4.8 25.75 L-6.3 25.0 Q-7.2 24.55 -8.75 23.15 L-9.6 22.45 -7.3 22.45 -5.05 21.75 -5.1 24.25 -4.8 25.75 M-47.6 -9.7 L-47.35 -9.95 Q-42.95 -9.95 -39.35 -7.55 -35.8 -4.65 -34.1 -3.7 L-32.9 -2.95 Q-33.85 -2.2 -34.7 -0.75 -35.7 0.95 -37.1 4.5 L-37.9 9.75 -39.5 8.65 Q-42.6 6.6 -44.1 4.55 -45.25 3.05 -47.5 0.5 -49.1 -1.75 -49.1 -4.0 L-48.4 -6.45 Q-47.7 -8.4 -47.6 -9.7 M-30.6 -1.4 L-29.35 -0.5 -26.85 1.1 -28.25 5.05 -29.8 10.2 -30.1 14.25 Q-30.1 16.1 -29.75 17.15 L-31.25 15.85 -34.75 12.55 Q-34.6 11.3 -34.6 7.05 -34.55 4.95 -32.6 2.5 -30.85 0.35 -30.6 -1.4 M-23.35 2.5 L-19.85 2.5 Q-21.0 4.7 -21.5 7.1 -21.9 7.35 -22.2 8.15 L-22.2 8.25 -22.1 9.65 -22.35 13.3 -22.45 14.75 -22.4 14.65 Q-21.35 18.15 -17.35 21.0 L-11.35 24.5 -15.3 23.75 -21.6 23.0 -24.55 21.55 -27.35 19.3 -28.75 18.0 -28.6 18.0 Q-27.75 18.0 -26.75 14.55 L-25.5 9.05 -23.95 4.45 -23.35 2.5" fill="#cdac98" fill-rule="evenodd" stroke="none"/>
    <path d="M51.3 -16.8 Q52.4 -22.65 52.4 -30.35 52.4 -32.8 51.85 -36.1 L50.9 -42.0 Q50.6 -44.55 47.6 -48.9 44.3 -53.75 41.9 -53.75 39.7 -53.75 38.4 -50.25 37.4 -47.7 37.4 -45.75 37.4 -43.75 38.15 -38.0 L38.9 -31.5 38.9 -31.05 39.1 -30.8 Q39.4 -30.35 39.4 -28.5 L38.65 -25.95 38.15 -24.3 37.5 -22.25 37.05 -20.7 35.5 -15.25 35.35 -14.65 34.7 -11.95 34.7 -11.85 34.65 -11.25 Q34.65 -10.5 34.8 -10.2 L34.9 -9.75 33.85 -9.5 33.9 -8.5 32.15 -4.95 32.0 -4.75 32.7 -3.7 33.9 -1.25 35.55 1.25 35.9 1.8 Q42.0 0.55 45.85 -4.1 L46.1 -4.4 47.6 -6.5 49.15 -9.65 Q50.0 -11.65 50.65 -14.05 L51.3 -16.8 M-7.65 26.55 L-7.75 26.5 -7.8 26.45 -8.1 26.25 -8.1 26.3 Q-8.7 27.0 -10.1 27.0 L-18.15 26.0 Q-22.75 25.05 -23.35 24.55 L-26.1 22.6 -29.1 20.8 Q-30.95 19.6 -33.8 16.45 -36.7 13.15 -38.35 12.05 -42.55 9.2 -46.6 4.3 -51.1 -1.15 -51.1 -4.35 -51.1 -5.9 -50.6 -7.45 L-49.35 -10.7 Q-48.3 -12.6 -43.7 -11.15 -40.85 -10.25 -38.6 -8.95 -36.75 -7.9 -34.05 -6.1 L-30.1 -3.45 -26.25 -1.2 Q-22.5 0.3 -18.9 0.7 L-18.8 0.7 -18.3 0.0 -18.15 -0.2 -16.95 -1.7 -17.9 -4.0 Q-18.6 -6.35 -18.6 -7.8 -18.6 -11.15 -15.45 -16.8 -11.9 -23.1 -8.1 -24.35 0.3 -29.95 8.1 -31.45 16.7 -33.05 25.95 -30.2 L27.7 -30.4 28.95 -31.25 Q31.65 -32.65 34.9 -32.35 L36.85 -32.0 36.15 -37.9 Q35.4 -44.05 35.4 -45.65 35.4 -52.55 38.35 -54.85 41.1 -57.0 44.9 -54.5 48.8 -51.9 51.45 -45.9 54.4 -39.15 54.4 -30.65 L54.15 -21.85 Q53.65 -16.8 52.15 -12.95 L51.1 -8.4 Q50.5 -5.55 49.15 -3.95 L47.15 -1.7 47.4 4.4 47.35 9.4 45.85 15.65 Q45.4 17.2 42.0 21.15 38.6 25.15 35.9 25.95 L36.2 28.1 35.95 29.4 35.65 29.7 Q36.75 32.8 37.05 37.2 L37.2 47.7 37.2 55.15 Q36.8 62.0 35.15 62.45 L35.05 62.8 34.9 62.95 34.2 63.0 38.75 68.65 Q43.4 74.65 43.4 77.1 43.4 79.0 42.85 80.2 41.4 83.4 40.9 84.8 40.6 85.7 37.1 88.55 33.75 91.25 32.4 91.5 L32.35 92.05 32.0 92.25 30.65 92.5 Q27.9 92.5 27.9 88.1 L28.0 87.45 27.9 85.85 28.1 83.95 21.55 74.95 Q17.9 69.2 17.9 64.4 17.9 62.05 18.05 61.7 L18.1 61.65 17.45 61.5 16.1 61.05 16.1 61.15 14.75 60.6 14.1 60.35 14.15 60.3 12.7 59.75 11.4 58.75 Q9.35 57.35 6.9 56.3 L6.9 56.5 5.4 67.3 4.4 73.0 4.1 74.15 2.9 75.5 Q2.1 76.15 -1.4 76.8 L-7.85 77.5 -14.6 77.0 -14.95 76.85 -16.1 77.0 -17.2 76.8 -17.5 76.55 -17.6 74.1 Q-17.6 69.25 -14.45 68.85 -13.45 64.3 -11.15 59.1 -9.1 54.4 -6.7 50.7 L-8.85 49.4 -9.8 49.45 Q-10.6 49.45 -10.95 49.05 L-11.3 48.45 -11.1 48.0 -10.7 47.8 Q-10.05 46.55 -9.8 45.25 -9.55 43.6 -9.1 42.5 -9.65 42.75 -9.95 43.45 -10.15 43.95 -11.05 43.95 -11.85 43.95 -12.05 43.5 L-12.3 42.75 -11.65 41.15 -11.1 40.45 -10.4 39.05 -8.3 36.55 Q-5.8 34.1 -3.0 33.45 L-3.45 31.15 -3.8 28.7 -5.25 27.85 -5.25 28.7 Q-5.65 27.2 -7.05 27.05 L-7.1 26.85 -7.65 26.55 M35.05 -29.85 L32.9 -30.25 Q31.3 -30.25 30.4 -29.1 29.5 -28.0 27.5 -28.0 23.95 -26.05 21.4 -20.25 L21.4 -14.25 24.45 -14.65 24.4 -15.0 24.45 -16.4 Q24.6 -17.45 25.4 -18.0 26.55 -17.25 26.85 -14.8 L26.85 -14.75 28.4 -14.6 28.4 -16.5 Q28.6 -17.2 29.4 -17.5 30.3 -16.6 30.4 -14.05 L32.25 -12.85 32.75 -12.35 37.15 -27.5 Q36.1 -27.6 35.9 -28.5 L36.3 -29.45 35.05 -29.85 M23.95 -28.8 L23.25 -28.95 18.0 -29.6 Q1.15 -29.6 -8.9 -21.1 -16.6 -14.6 -16.6 -8.25 L-16.1 -5.3 -15.7 -3.05 -10.25 -7.9 -10.35 -8.0 -10.35 -8.35 -10.55 -8.45 -10.6 -9.2 Q-10.6 -9.85 -8.9 -12.65 -7.2 -15.6 -6.15 -16.6 L-3.4 -20.15 Q-1.3 -22.5 1.85 -23.1 2.95 -23.7 4.7 -24.15 L10.6 -24.6 20.25 -23.6 21.4 -25.5 Q22.35 -27.35 23.95 -28.8 M-5.9 -11.55 L-3.15 -13.75 Q0.4 -16.35 5.95 -17.25 12.65 -20.35 19.45 -20.1 L19.5 -21.0 19.65 -21.85 8.0 -22.6 Q4.7 -22.6 0.5 -19.85 -2.65 -17.75 -3.65 -16.35 L-6.05 -11.7 -6.4 -11.15 -5.9 -11.55 M15.5 -8.95 Q14.8 -13.0 14.8 -17.55 L14.8 -17.75 12.4 -17.4 10.0 -16.8 5.1 -15.0 5.0 -14.95 4.95 -14.95 4.75 -14.85 Q3.05 -14.15 1.45 -13.3 -4.25 -10.4 -8.55 -6.5 -14.1 -1.4 -16.55 1.95 L-16.65 2.15 -16.8 2.35 -16.85 2.4 Q-19.6 6.3 -19.8 9.85 L-19.7 12.0 Q-19.5 13.6 -18.8 15.25 L-17.9 16.85 -16.8 18.7 Q-16.55 19.15 -14.9 19.9 L-13.45 20.5 -13.35 20.45 Q-9.25 21.4 -4.45 18.8 L-2.5 17.6 -0.9 16.5 Q2.7 13.8 2.7 12.2 L2.8 10.9 Q0.6 9.55 -1.85 6.7 -5.8 2.05 -5.8 -0.05 -5.8 -0.8 -5.6 -0.9 L-5.35 -1.05 -3.8 -1.0 0.05 5.35 Q2.75 9.7 6.8 9.7 L11.45 8.7 13.4 8.15 16.15 7.2 Q19.5 6.0 21.6 4.75 19.15 2.0 17.5 -2.05 L17.25 -2.6 Q16.15 -5.6 15.5 -8.95 M33.4 3.55 Q33.4 2.95 31.4 -0.9 L30.4 -2.9 Q28.75 -1.5 26.9 -1.5 L24.4 -1.9 Q21.05 -3.2 19.9 -8.25 19.4 -10.45 19.4 -16.65 L19.4 -17.65 19.05 -17.7 17.15 -17.75 Q17.6 -17.25 17.6 -16.25 17.15 -13.2 17.3 -12.15 L18.3 -6.55 18.8 -4.3 Q19.2 -2.55 20.0 -1.1 L20.45 -0.35 22.55 2.3 22.55 2.55 Q22.55 3.5 24.3 4.15 L24.85 4.35 24.8 4.4 Q26.25 5.3 28.5 6.25 32.1 7.75 33.65 9.25 L33.95 8.45 34.55 4.5 34.15 4.4 33.5 3.95 33.4 3.55 M26.9 -12.15 L26.9 -11.75 26.8 -10.75 25.9 -10.5 25.25 -10.75 24.95 -12.1 21.9 -11.75 21.9 -9.9 Q21.8 -8.55 22.4 -6.95 23.55 -3.75 26.9 -3.75 28.0 -3.75 29.4 -5.0 29.4 -5.7 29.65 -5.8 L30.4 -5.95 30.4 -6.0 Q31.9 -7.65 31.9 -8.5 31.9 -9.35 30.3 -11.2 30.1 -9.8 29.4 -9.5 L28.4 -10.2 28.4 -12.15 26.9 -12.15 M43.8 15.25 Q45.4 11.3 45.4 4.4 L45.2 0.15 44.5 0.7 41.9 2.4 41.9 3.8 40.4 11.8 Q38.25 18.7 34.3 19.55 L34.85 21.45 35.5 24.0 Q41.5 20.95 43.8 15.25 M36.65 4.75 L36.65 4.8 Q36.5 7.7 36.15 8.95 L34.0 13.7 32.85 15.8 33.65 17.65 Q35.85 16.15 37.7 12.05 39.9 7.25 39.9 4.15 L39.9 3.5 38.9 4.0 36.9 4.0 36.65 4.75 M29.4 16.0 L30.75 15.2 Q31.0 13.9 32.2 11.9 L33.3 9.95 31.3 9.95 Q26.35 9.1 22.8 5.9 L21.9 6.7 Q20.4 8.15 17.3 9.5 L17.2 9.55 16.45 9.85 15.9 10.05 15.25 10.3 13.05 11.0 Q9.65 11.95 6.45 11.95 L4.7 11.7 4.7 11.8 Q4.7 14.25 0.55 17.95 L-1.0 19.25 -1.4 19.55 -1.95 20.0 -2.0 20.05 -5.05 21.75 -7.3 22.45 -9.6 22.45 -8.75 23.15 Q-7.2 24.55 -6.3 25.0 L-4.8 25.75 Q-3.85 26.25 -3.25 26.7 L-3.15 26.55 -2.5 26.05 -2.05 25.75 -0.5 25.15 Q0.75 24.75 2.45 24.45 10.75 22.95 15.05 21.65 L15.1 21.65 15.05 21.55 14.7 20.95 14.9 20.5 21.7 15.95 22.45 16.25 22.7 17.25 Q22.7 17.9 20.7 19.75 L20.2 20.2 20.8 20.05 Q24.35 18.9 27.25 17.25 L27.6 17.05 29.4 16.0 M32.6 22.0 L31.45 17.6 Q28.9 19.7 20.85 22.0 L-1.8 28.0 Q-1.05 30.9 -0.9 32.6 2.1 31.2 8.35 30.7 L17.2 29.95 19.7 29.7 21.5 29.5 33.1 27.85 33.95 27.75 32.6 22.0 M17.45 12.85 L19.7 12.0 20.05 12.25 20.2 13.05 20.2 13.2 Q20.2 13.9 17.9 15.4 14.7 17.45 10.2 17.45 9.4 17.45 9.35 17.25 9.3 17.1 9.4 17.0 L9.2 16.05 9.2 15.4 9.3 15.3 9.4 15.5 17.45 12.85 M-0.8 20.4 Q1.95 19.95 4.35 18.85 6.15 18.0 7.15 18.45 L7.2 18.95 Q7.2 19.75 5.2 20.95 2.75 22.4 -0.65 22.45 L-0.8 22.45 -1.65 22.25 -1.6 22.0 -1.8 21.05 -1.8 20.4 -1.7 20.3 -1.6 20.5 -1.5 20.5 -0.8 20.4 M25.7 47.4 L23.5 43.4 21.7 39.95 21.7 39.75 20.65 38.95 17.0 42.7 Q13.5 45.95 12.45 45.95 11.2 45.95 11.65 45.7 L11.25 44.65 11.15 43.95 7.45 46.75 Q3.8 48.95 1.2 48.95 L0.3 48.7 0.2 48.45 Q0.2 47.25 0.4 46.95 L-4.55 48.45 Q-2.3 49.1 -0.2 50.3 4.15 53.35 6.7 54.5 L10.35 56.55 Q12.8 58.05 14.4 58.7 18.75 60.45 21.4 60.7 L23.4 60.95 33.75 61.35 Q34.8 58.8 35.1 54.5 L35.1 53.85 28.95 45.05 28.9 44.95 28.7 45.2 Q28.7 48.45 26.95 48.45 25.7 48.45 26.2 48.25 L25.7 47.4 M-7.7 47.2 Q-5.45 46.75 -3.3 45.95 -2.65 45.7 -0.6 44.65 0.8 43.95 1.7 43.95 L2.8 44.1 3.2 44.25 Q3.2 45.75 3.7 45.95 5.3 45.4 8.35 42.8 11.05 40.45 11.95 40.45 L12.9 40.6 13.15 40.7 Q13.25 42.5 13.7 42.95 L20.45 35.95 Q21.2 35.95 21.8 36.45 L21.85 36.5 21.95 36.8 22.2 37.4 Q22.2 38.25 22.7 38.95 L23.55 39.75 24.55 41.05 26.7 43.75 27.1 42.35 Q27.35 41.45 28.45 41.45 29.5 41.45 30.95 44.0 L32.2 46.5 34.35 49.55 35.15 50.85 35.2 47.5 35.35 43.7 35.2 38.95 34.3 34.4 Q33.7 31.75 33.7 30.1 L30.7 30.95 26.45 31.45 26.3 31.5 24.2 31.95 22.4 31.7 22.35 31.75 17.9 32.2 -1.05 34.95 -1.8 35.45 -2.4 35.15 Q-3.7 35.65 -4.9 36.65 L-8.1 39.2 Q-6.75 39.3 -6.4 39.95 L-6.3 40.75 Q-6.3 41.45 -6.85 42.7 L-7.55 44.5 -7.8 46.7 -7.85 47.2 -7.7 47.2 M23.4 65.1 L23.7 65.6 23.4 65.4 23.4 65.1 M32.4 63.1 L28.0 63.35 30.25 65.35 31.8 67.45 Q32.95 66.25 33.8 65.75 L32.4 63.5 32.4 63.45 32.45 63.1 32.4 63.1 M20.55 62.05 L20.25 62.75 Q19.9 63.75 19.9 64.5 19.9 69.5 24.9 75.45 28.7 80.0 29.65 82.45 L29.9 82.45 Q31.95 82.65 36.15 86.6 L38.6 84.05 Q40.1 82.2 40.8 80.4 L37.25 76.55 33.25 72.25 28.45 67.7 Q25.0 64.3 24.5 63.3 L22.7 63.0 Q21.95 62.25 20.55 62.05 M33.35 69.4 L34.4 70.55 37.1 73.35 37.9 72.55 38.1 71.45 38.15 71.3 36.9 69.7 35.5 67.95 34.9 68.5 Q34.15 69.15 33.35 69.4 M40.0 73.95 L39.85 73.7 39.85 74.0 Q39.6 74.85 38.85 75.25 L41.3 78.55 41.4 77.3 Q41.4 76.15 40.0 73.95 M1.1 60.85 L4.1 60.6 Q4.45 57.4 5.45 55.7 L2.4 54.75 Q2.35 56.45 1.35 59.95 L1.1 60.85 M-12.35 68.95 Q-10.3 69.35 -8.75 70.85 -7.1 72.45 -7.1 74.25 L-7.1 74.8 -3.95 74.6 -1.75 63.65 Q-0.5 58.3 0.95 54.3 L0.8 54.2 Q-0.85 52.85 -2.95 52.15 L-3.6 52.5 Q-3.95 52.5 -4.5 52.1 L-5.0 51.65 -6.9 55.45 -9.6 60.5 -11.05 65.5 Q-11.6 67.45 -12.45 68.9 L-12.45 68.95 -12.35 68.95 M3.35 67.25 L3.4 66.5 3.85 63.0 0.45 63.0 -0.1 65.25 -0.4 66.95 3.35 67.25 M1.9 72.5 Q2.95 71.45 3.1 69.5 L3.15 69.0 -0.8 69.0 -1.15 70.85 Q-1.6 72.85 -2.2 74.3 0.7 73.75 1.9 72.5 M30.25 84.75 Q29.9 85.0 29.9 85.3 L30.1 87.35 30.1 88.7 30.4 90.0 31.4 90.05 35.0 87.6 32.85 86.3 30.25 84.75 M-47.35 -9.95 Q-48.6 -9.95 -47.6 -9.7 -47.7 -8.4 -48.4 -6.45 L-49.1 -4.0 Q-49.1 -1.75 -47.5 0.5 -45.25 3.05 -44.1 4.55 -42.6 6.6 -39.5 8.65 L-37.9 9.75 Q-36.0 11.15 -35.25 12.0 L-34.75 12.55 -31.25 15.85 -29.75 17.15 -28.75 18.0 -27.35 19.3 -24.55 21.55 -21.6 23.0 -15.3 23.75 -11.35 24.5 -17.35 21.0 Q-21.35 18.15 -22.4 14.65 L-22.45 14.75 -22.35 13.3 -22.1 9.65 -22.2 8.25 -22.2 8.15 Q-21.9 7.35 -21.5 7.1 -21.0 4.7 -19.85 2.5 L-23.35 2.5 -24.1 2.5 -24.2 2.45 -25.05 2.05 -25.95 1.6 -26.4 1.35 -26.7 1.2 -26.85 1.1 -29.35 -0.5 -30.6 -1.4 -30.7 -1.45 -30.8 -1.5 -31.95 -2.3 -32.8 -2.9 -32.9 -2.95 -34.1 -3.7 Q-35.8 -4.65 -39.35 -7.55 -42.95 -9.95 -47.35 -9.95 M-13.75 71.0 Q-14.2 71.0 -14.9 72.25 -15.6 73.5 -15.6 74.3 L-14.65 74.45 -14.5 74.5 -8.75 74.8 -10.1 72.8 Q-11.25 71.0 -13.75 71.0" fill="#000000" fill-rule="evenodd" stroke="none"/>
    <path d="M51.3 -16.8 L50.65 -14.05 50.15 -14.0 Q46.3 -14.0 41.8 -17.85 39.5 -19.8 37.9 -21.85 L37.5 -22.25 38.15 -24.3 38.65 -25.95 40.25 -23.75 42.65 -21.25 Q44.45 -19.6 45.4 -19.1 47.2 -18.2 50.8 -17.0 L51.3 -16.8 M47.6 -6.5 L46.1 -4.4 45.85 -4.1 Q40.2 -4.95 34.7 -11.85 L34.7 -11.95 35.35 -14.65 35.5 -15.25 35.6 -15.55 35.65 -15.45 Q38.1 -12.55 44.25 -9.45 L48.0 -7.3 47.6 -6.5 M15.5 -8.95 Q16.15 -5.6 17.25 -2.6 9.4 -7.55 9.4 -14.75 L9.45 -16.6 10.0 -16.8 12.4 -17.4 Q12.4 -15.9 12.85 -14.0 13.3 -12.2 13.9 -11.1 14.5 -10.05 15.5 -8.95 M13.4 8.15 L11.45 8.7 10.3 8.95 7.4 5.95 Q4.35 2.4 3.65 0.7 L1.55 -5.0 Q1.4 -5.65 1.4 -9.35 L1.45 -13.3 Q3.05 -14.15 4.75 -14.85 L4.9 -14.6 Q4.4 -13.2 4.4 -9.35 4.4 -4.35 8.9 1.7 L13.4 7.9 13.4 8.15 M-0.9 16.5 L-2.5 17.6 -4.45 18.8 -4.5 18.65 -4.6 17.75 Q-4.0 14.8 -4.4 12.15 -5.2 6.9 -10.2 6.9 -13.4 6.9 -14.4 7.65 -15.1 8.15 -15.1 9.5 -15.15 10.7 -14.6 11.8 -13.5 13.95 -10.6 13.95 -9.85 13.95 -9.75 13.6 L-9.6 12.95 Q-9.75 12.5 -10.75 11.95 -11.6 11.45 -11.6 10.65 -11.6 9.9 -11.4 9.65 L-11.15 9.4 -9.35 9.15 Q-7.5 9.15 -6.9 10.45 -6.6 11.1 -6.6 12.5 L-6.9 14.9 Q-8.0 17.15 -11.85 17.15 -16.25 17.15 -17.6 13.45 L-18.1 9.4 Q-18.1 6.25 -15.35 4.65 -12.8 3.15 -9.35 3.8 -5.7 4.55 -3.35 7.45 -0.6 10.75 -0.6 16.0 L-0.65 16.25 -0.9 16.5 M29.4 16.0 L27.6 17.05 27.25 17.25 24.15 14.75 Q22.6 13.35 20.2 13.05 L20.05 12.25 19.7 12.0 17.45 12.85 Q14.85 12.55 12.9 11.35 L13.05 11.0 15.25 10.3 15.9 10.05 16.45 9.85 17.2 9.55 17.3 9.5 21.4 10.15 Q24.35 10.45 26.8 12.0 29.4 13.65 29.4 15.65 L29.4 16.0 M-0.5 25.15 L-2.05 25.75 -2.5 26.05 -3.15 26.55 -3.25 26.7 Q-3.85 26.25 -4.8 25.75 L-5.1 24.25 -5.05 21.75 -2.0 20.05 -1.8 20.4 -1.8 21.05 -1.6 22.0 -1.65 22.25 -0.8 22.45 -0.65 22.45 -0.6 24.4 -0.5 25.15 M-32.9 -2.95 L-32.8 -2.9 -31.95 -2.3 -30.8 -1.5 -30.7 -1.45 -30.6 -1.4 Q-30.85 0.35 -32.6 2.5 -34.55 4.95 -34.6 7.05 -34.6 11.3 -34.75 12.55 L-35.25 12.0 Q-36.0 11.15 -37.9 9.75 L-37.1 4.5 Q-35.7 0.95 -34.7 -0.75 -33.85 -2.2 -32.9 -2.95 M-26.85 1.1 L-26.7 1.2 -26.4 1.35 -25.95 1.6 -25.05 2.05 -24.2 2.45 -24.1 2.5 -23.35 2.5 -23.95 4.45 -25.5 9.05 -26.75 14.55 Q-27.75 18.0 -28.6 18.0 L-28.75 18.0 -29.75 17.15 Q-30.1 16.1 -30.1 14.25 L-29.8 10.2 -28.25 5.05 -26.85 1.1" fill="#7f98ff" fill-rule="evenodd" stroke="none"/>
    <path d="M23.95 -28.8 Q22.35 -27.35 21.4 -25.5 L20.25 -23.6 10.6 -24.6 4.7 -24.15 Q2.95 -23.7 1.85 -23.1 -1.3 -22.5 -3.4 -20.15 L-6.15 -16.6 Q-7.2 -15.6 -8.9 -12.65 -10.6 -9.85 -10.6 -9.2 L-10.55 -8.45 -10.35 -8.35 -10.35 -8.0 -10.25 -7.9 -15.7 -3.05 -16.1 -5.3 -16.6 -8.25 Q-16.6 -14.6 -8.9 -21.1 1.15 -29.6 18.0 -29.6 L23.25 -28.95 23.95 -28.8 M35.05 -29.85 L36.3 -29.45 35.9 -28.5 Q36.1 -27.6 37.15 -27.5 L32.75 -12.35 32.25 -12.85 30.4 -14.05 Q30.3 -16.6 29.4 -17.5 28.6 -17.2 28.4 -16.5 L28.4 -14.6 26.85 -14.75 26.85 -14.8 Q26.55 -17.25 25.4 -18.0 24.6 -17.45 24.45 -16.4 L24.4 -15.0 24.45 -14.65 21.4 -14.25 21.4 -20.25 Q23.95 -26.05 27.5 -28.0 29.5 -28.0 30.4 -29.1 31.3 -30.25 32.9 -30.25 L35.05 -29.85 M26.9 -12.15 L28.4 -12.15 28.4 -10.2 29.4 -9.5 Q30.1 -9.8 30.3 -11.2 31.9 -9.35 31.9 -8.5 31.9 -7.65 30.4 -6.0 L30.4 -5.95 29.65 -5.8 Q29.4 -5.7 29.4 -5.0 28.0 -3.75 26.9 -3.75 23.55 -3.75 22.4 -6.95 21.8 -8.55 21.9 -9.9 L21.9 -11.75 24.95 -12.1 25.25 -10.75 25.9 -10.5 26.8 -10.75 26.9 -11.75 26.9 -12.15 M43.8 15.25 Q41.5 20.95 35.5 24.0 L34.85 21.45 34.3 19.55 Q38.25 18.7 40.4 11.8 L41.9 3.8 41.9 2.4 44.5 0.7 45.2 0.15 45.4 4.4 Q45.4 11.3 43.8 15.25 M23.4 65.1 L23.4 65.4 23.7 65.6 23.4 65.1 M20.55 62.05 Q21.95 62.25 22.7 63.0 L24.5 63.3 Q25.0 64.3 28.45 67.7 L33.25 72.25 37.25 76.55 40.8 80.4 Q40.1 82.2 38.6 84.05 L36.15 86.6 Q31.95 82.65 29.9 82.45 L29.65 82.45 Q28.7 80.0 24.9 75.45 19.9 69.5 19.9 64.5 19.9 63.75 20.25 62.75 L20.55 62.05 M-12.45 68.9 Q-11.6 67.45 -11.05 65.5 L-9.6 60.5 -6.9 55.45 -5.0 51.65 -4.5 52.1 Q-3.95 52.5 -3.6 52.5 L-2.95 52.15 Q-0.85 52.85 0.8 54.2 L0.95 54.3 Q-0.5 58.3 -1.75 63.65 L-3.95 74.6 -7.1 74.8 -7.1 74.25 Q-7.1 72.45 -8.75 70.85 -10.3 69.35 -12.35 68.95 L-12.45 68.9 M30.25 84.75 L32.85 86.3 35.0 87.6 31.4 90.05 30.4 90.0 30.1 88.7 30.1 87.35 29.9 85.3 Q29.9 85.0 30.25 84.75 M-13.75 71.0 Q-11.25 71.0 -10.1 72.8 L-8.75 74.8 -14.5 74.5 -14.65 74.45 -15.6 74.3 Q-15.6 73.5 -14.9 72.25 -14.2 71.0 -13.75 71.0" fill="#2f2f2f" fill-rule="evenodd" stroke="none"/>
    <path d="M-6.05 -11.7 L-3.65 -16.35 Q-2.65 -17.75 0.5 -19.85 4.7 -22.6 8.0 -22.6 L19.65 -21.85 19.5 -21.0 19.45 -20.1 Q12.65 -20.35 5.95 -17.25 0.4 -16.35 -3.15 -13.75 L-5.9 -11.55 -6.05 -11.7 M36.65 4.75 L36.9 4.0 38.9 4.0 39.9 3.5 39.9 4.15 Q39.9 7.25 37.7 12.05 35.85 16.15 33.65 17.65 L32.85 15.8 34.0 13.7 36.15 8.95 Q36.5 7.7 36.65 4.8 L36.65 4.75" fill="#19150f" fill-rule="evenodd" stroke="none"/>
    <path d="M33.5 3.95 L34.15 4.4 34.55 4.5 33.95 8.45 33.65 9.25 Q32.1 7.75 28.5 6.25 26.25 5.3 24.8 4.4 L24.85 4.35 24.3 4.15 Q22.55 3.5 22.55 2.55 L22.55 2.3 20.45 -0.35 20.0 -1.1 Q19.2 -2.55 18.8 -4.3 L18.3 -6.55 17.3 -12.15 Q17.15 -13.2 17.6 -16.25 17.6 -17.25 17.15 -17.75 L19.05 -17.7 19.4 -17.65 19.4 -16.65 Q19.4 -10.45 19.9 -8.25 21.05 -3.2 24.4 -1.9 L26.9 -1.5 Q28.75 -1.5 30.4 -2.9 L31.4 -0.9 Q33.4 2.95 33.4 3.55 L33.35 3.9 33.5 3.95 M32.6 22.0 L33.95 27.75 33.1 27.85 21.5 29.5 19.7 29.7 17.2 29.95 8.35 30.7 Q2.1 31.2 -0.9 32.6 -1.05 30.9 -1.8 28.0 L20.85 22.0 Q28.9 19.7 31.45 17.6 L32.6 22.0" fill="#11100f" fill-rule="evenodd" stroke="none"/>
    <path d="M4.75 -14.85 L4.95 -14.95 5.0 -14.95 5.1 -15.0 4.9 -14.6 4.75 -14.85 M-2.0 20.05 L-1.95 20.0 -1.4 19.55 -1.0 19.25 -0.8 20.4 -1.5 20.5 -1.6 20.5 -1.7 20.3 -1.8 20.4 -2.0 20.05 M12.9 11.35 L12.6 11.15 13.05 11.0 12.9 11.35" fill="#0033ff" fill-opacity="0.49803922" fill-rule="evenodd" stroke="none"/>
    <path d="M12.7 59.75 L14.15 60.3 14.1 60.35 13.1 60.15 12.7 59.75 M16.1 61.15 L16.1 61.05 17.45 61.5 16.1 61.15 M-7.8 46.7 L-7.55 44.5 -6.85 42.7 Q-6.3 41.45 -6.3 40.75 L-6.4 39.95 Q-6.75 39.3 -8.1 39.2 L-4.9 36.65 Q-3.7 35.65 -2.4 35.15 L-1.8 35.45 -1.05 34.95 17.9 32.2 22.35 31.75 22.4 31.7 24.2 31.95 26.3 31.5 26.45 31.45 30.7 30.95 33.7 30.1 Q33.7 31.75 34.3 34.4 L35.2 38.95 35.35 43.7 35.2 47.5 35.15 50.85 34.35 49.55 32.2 46.5 30.95 44.0 Q29.5 41.45 28.45 41.45 27.35 41.45 27.1 42.35 L26.7 43.75 24.55 41.05 23.55 39.75 22.7 38.95 Q22.2 38.25 22.2 37.4 L21.95 36.8 21.85 36.5 21.8 36.45 Q21.2 35.95 20.45 35.95 L13.7 42.95 Q13.25 42.5 13.15 40.7 L12.9 40.6 11.95 40.45 Q11.05 40.45 8.35 42.8 5.3 45.4 3.7 45.95 3.2 45.75 3.2 44.25 L2.8 44.1 1.7 43.95 Q0.8 43.95 -0.6 44.65 -2.65 45.7 -3.3 45.95 -5.45 46.75 -7.7 47.2 L-7.8 46.7 M32.4 63.45 L32.4 63.5 33.8 65.75 Q32.95 66.25 31.8 67.45 L30.25 65.35 28.0 63.35 32.4 63.1 32.4 63.45 M33.35 69.4 Q34.15 69.15 34.9 68.5 L35.5 67.95 36.9 69.7 38.15 71.3 38.1 71.45 37.9 72.55 37.1 73.35 34.4 70.55 33.35 69.4 M39.85 74.0 L40.0 73.95 Q41.4 76.15 41.4 77.3 L41.3 78.55 38.85 75.25 Q39.6 74.85 39.85 74.0 M1.1 60.85 L1.35 59.95 Q2.35 56.45 2.4 54.75 L5.45 55.7 Q4.45 57.4 4.1 60.6 L1.1 60.85 M1.9 72.5 Q0.7 73.75 -2.2 74.3 -1.6 72.85 -1.15 70.85 L-0.8 69.0 3.15 69.0 3.1 69.5 Q2.95 71.45 1.9 72.5 M3.35 67.25 L-0.4 66.95 -0.1 65.25 0.45 63.0 3.85 63.0 3.4 66.5 3.35 67.25" fill="#332d26" fill-rule="evenodd" stroke="none"/>
    <path d="M25.7 47.4 L26.2 48.25 Q25.7 48.45 26.95 48.45 28.7 48.45 28.7 45.2 L28.95 45.05 35.1 53.85 35.1 54.5 Q34.8 58.8 33.75 61.35 L23.4 60.95 25.7 47.4" fill="#046193" fill-rule="evenodd" stroke="none"/>
    <path d="M23.4 60.95 L21.4 60.7 Q18.75 60.45 14.4 58.7 12.8 58.05 10.35 56.55 L6.7 54.5 Q4.15 53.35 -0.2 50.3 -2.3 49.1 -4.55 48.45 L0.4 46.95 Q0.2 47.25 0.2 48.45 L0.3 48.7 1.2 48.95 Q3.8 48.95 7.45 46.75 L11.15 43.95 11.25 44.65 11.65 45.7 Q11.2 45.95 12.45 45.95 13.5 45.95 17.0 42.7 L20.65 38.95 21.7 39.75 21.7 39.95 23.5 43.4 25.7 47.4 23.4 60.95" fill="#023f60" fill-rule="evenodd" stroke="none"/>
  </g>
</svg>
