<?xml version="1.0" encoding="UTF-8" standalone="no"?>
<svg xmlns:ffdec="https://www.free-decompiler.com/flash" xmlns:xlink="http://www.w3.org/1999/xlink" ffdec:objectType="shape" height="155.35px" width="274.75px" xmlns="http://www.w3.org/2000/svg">
  <g transform="matrix(1.0, 0.0, 0.0, 1.0, 128.65, 80.85)">
    <path d="M23.8 -80.85 L23.95 -80.0 23.7 -79.5 23.0 -78.5 20.7 -75.5 18.8 -73.0 16.2 -69.5 12.6 -64.3 8.85 -59.0 8.6 -58.75 Q10.75 -60.45 18.4 -63.1 L28.95 -66.5 32.1 -66.5 32.3 -66.35 32.45 -65.5 Q22.85 -56.5 21.2 -55.25 L20.85 -54.7 30.7 -55.0 38.45 -55.25 38.1 -55.0 Q37.55 -54.6 37.45 -54.0 L37.45 -53.5 Q37.45 -52.65 33.65 -49.1 L31.0 -46.6 Q33.35 -45.9 35.45 -43.7 L38.1 -41.6 41.1 -39.25 Q44.85 -35.65 54.7 -31.7 L63.45 -31.7 63.45 -38.2 66.15 -41.7 68.85 -44.75 Q71.9 -47.1 75.1 -47.35 78.9 -47.65 80.45 -44.5 L82.1 -42.25 82.2 -42.45 86.95 -42.7 92.9 -42.75 97.35 -44.75 101.6 -47.2 Q105.5 -50.15 111.85 -45.5 112.7 -44.2 112.9 -41.4 L112.95 -37.5 Q112.95 -34.8 112.6 -32.35 L113.4 -31.75 116.45 -29.0 117.9 -27.4 118.15 -27.2 118.95 -26.25 119.15 -25.7 119.55 -25.1 Q120.9 -22.95 122.8 -18.6 L125.45 -12.5 127.7 -6.5 Q129.3 -1.2 129.95 5.75 L130.4 13.1 137.4 17.0 Q142.3 20.05 144.15 22.85 L143.95 23.55 Q143.75 23.95 143.15 23.95 L140.9 23.55 138.65 23.0 138.45 22.7 Q138.25 22.5 138.25 23.25 L146.1 38.65 146.1 39.35 145.95 39.7 145.95 39.95 145.3 40.1 Q143.95 40.1 141.8 38.3 L139.45 36.2 Q139.45 39.2 140.8 45.0 L142.15 50.35 142.15 51.2 142.0 51.75 142.05 51.95 Q142.0 52.15 141.4 52.15 140.6 52.15 138.55 48.35 L135.55 42.9 135.35 42.9 134.55 50.75 133.6 58.85 Q133.95 59.1 133.0 59.1 131.9 59.1 130.9 55.85 L130.9 55.8 Q128.95 58.25 127.5 58.2 126.4 58.15 118.75 53.85 116.5 52.55 113.15 52.1 109.7 51.6 105.85 52.15 L92.3 52.9 Q85.2 52.65 81.05 51.0 80.45 52.45 80.45 54.3 80.1 54.75 79.45 55.0 78.35 54.05 77.45 50.25 75.5 50.85 74.4 51.9 73.45 52.75 73.45 53.55 73.45 54.2 75.45 56.75 L77.45 59.5 Q77.45 60.35 75.8 60.6 73.4 61.0 71.35 63.5 70.85 64.1 70.5 65.0 L76.1 66.75 75.75 67.35 75.8 67.35 76.0 67.25 Q76.2 67.3 76.2 68.0 76.2 68.75 74.55 70.4 L73.05 71.8 67.95 71.65 63.3 71.15 62.1 74.25 62.05 74.4 61.2 74.5 59.95 74.25 59.7 71.75 59.55 70.75 57.6 70.6 57.2 70.6 55.1 70.25 37.4 67.5 36.3 67.2 29.45 65.6 26.2 64.85 26.7 65.5 Q27.15 66.15 28.55 66.9 L30.45 68.3 29.9 69.05 28.45 69.5 Q26.6 69.5 17.6 66.85 8.0 64.05 5.6 63.75 L7.55 65.35 8.45 66.6 8.35 67.55 8.2 67.8 7.2 68.0 -7.65 64.75 Q-15.4 62.4 -19.3 61.55 -22.2 60.8 -26.15 58.7 L-26.55 58.5 -29.25 56.95 -29.65 56.7 -29.45 56.5 -31.75 56.5 -45.7 57.4 -53.8 58.0 -59.25 58.75 -55.55 61.3 Q-51.2 64.45 -49.85 66.05 L-49.8 66.7 Q-49.85 67.0 -50.6 67.2 L-54.8 67.0 -59.35 66.2 -67.75 65.1 -65.75 67.65 -63.6 70.7 -63.7 71.4 Q-63.8 71.8 -64.6 72.0 -65.3 72.2 -71.15 70.35 -78.55 68.0 -81.25 67.4 -84.85 66.6 -90.1 64.65 L-91.75 63.65 -92.65 63.75 Q-92.8 64.15 -93.1 63.05 L-94.05 62.8 Q-97.4 61.85 -102.4 64.0 L-102.55 63.9 -102.75 63.6 -103.3 63.75 -105.2 64.25 -105.2 64.3 Q-105.05 64.9 -107.7 67.55 -110.5 70.35 -112.05 70.75 -115.2 71.6 -117.25 70.35 L-119.05 68.55 Q-119.7 68.05 -121.5 67.05 -122.95 66.2 -123.55 65.35 -124.5 64.05 -125.35 60.95 L-126.3 57.2 -127.3 52.15 -128.5 44.9 Q-129.05 41.3 -127.55 37.35 -125.95 33.25 -123.6 33.2 -122.4 35.6 -120.7 43.25 -118.8 49.2 -115.0 48.5 L-115.55 45.0 Q-117.0 39.6 -117.2 37.1 -117.45 34.65 -117.1 32.95 L-116.6 33.1 Q-116.7 32.55 -116.35 32.25 -115.05 31.3 -109.2 30.7 L-109.05 30.9 Q-97.75 27.55 -89.9 18.9 -84.45 12.85 -82.35 6.65 -81.6 4.35 -79.4 0.3 L-75.85 -5.9 -73.1 -10.15 -74.55 -12.65 -75.4 -15.7 Q-76.25 -18.8 -76.7 -21.75 L-77.15 -21.6 -76.65 -32.0 -76.85 -35.0 Q-76.25 -39.0 -74.9 -42.75 L-74.4 -42.55 -73.65 -44.3 -73.65 -42.35 -73.3 -37.6 -72.55 -30.75 -72.4 -30.5 -71.4 -30.25 Q-70.45 -30.25 -69.3 -33.95 -68.7 -35.85 -68.45 -37.35 L-67.5 -39.2 Q-66.0 -41.75 -64.3 -43.45 L-63.15 -45.95 Q-60.85 -50.45 -58.5 -50.5 L-58.3 -50.05 -58.25 -49.95 -57.55 -50.65 -57.75 -48.85 -57.75 -42.5 Q-57.75 -41.45 -58.25 -39.15 L-58.75 -36.3 -58.55 -34.6 -58.4 -34.4 -57.5 -34.25 Q-55.6 -34.25 -53.75 -37.6 -52.8 -39.3 -52.25 -41.0 L-52.25 -41.15 -49.3 -44.45 Q-43.4 -50.7 -37.35 -55.4 L-34.9 -56.05 -34.65 -56.0 -34.6 -55.95 -29.95 -61.75 -20.9 -71.5 -19.4 -73.0 -16.2 -75.8 -13.1 -78.5 -12.0 -79.5 -11.05 -80.45 -9.9 -80.5 -9.7 -80.3 Q-9.55 -80.15 -9.55 -79.5 L-9.55 -79.4 -10.0 -78.5 -12.0 -75.2 -13.3 -73.0 -15.55 -68.25 Q-17.25 -62.8 -18.05 -57.0 L-18.15 -56.7 Q-14.95 -61.55 0.7 -70.55 L5.1 -73.0 Q11.6 -76.55 16.4 -78.5 L19.05 -79.5 Q21.6 -80.4 23.6 -80.75 L23.8 -80.85 M18.45 -76.75 L18.6 -77.0 18.4 -76.9 Q14.0 -75.15 9.65 -73.0 2.4 -69.4 -4.75 -64.65 -16.2 -57.0 -19.85 -51.3 L-19.8 -51.25 -19.65 -51.0 -18.3 -50.8 Q-17.5 -50.5 -16.95 -50.5 -15.3 -50.5 -11.35 -54.45 L-7.15 -59.0 Q-5.85 -60.5 -1.65 -63.35 L5.35 -68.0 Q7.25 -69.3 13.1 -72.5 L14.05 -73.0 17.05 -74.65 18.45 -76.75 M25.25 -63.25 L17.6 -60.6 15.85 -59.85 Q8.9 -56.5 6.45 -55.5 L6.05 -55.6 5.55 -55.2 Q5.85 -54.75 7.05 -54.45 L7.25 -53.95 Q7.55 -53.5 8.3 -53.5 L25.35 -62.95 25.8 -63.15 26.75 -63.65 26.75 -63.7 25.7 -63.4 25.25 -63.25 M33.3 -52.0 L34.45 -52.95 Q22.3 -52.15 19.5 -52.75 L18.8 -53.0 Q17.55 -52.1 17.55 -51.1 17.55 -50.35 17.7 -50.15 L17.85 -50.0 25.55 -50.0 33.05 -51.95 33.15 -51.85 33.3 -52.0 M27.7 -63.9 L27.65 -63.9 27.7 -63.7 27.95 -63.95 27.7 -63.9 M39.9 -37.35 L36.1 -40.45 33.95 -43.1 Q33.05 -44.05 28.8 -44.45 27.75 -43.0 27.3 -40.15 L27.0 -38.75 27.1 -37.65 27.1 -37.3 27.2 -36.9 28.35 -33.15 Q29.55 -29.0 30.55 -26.7 31.45 -24.55 32.5 -20.15 33.55 -15.5 34.3 -13.55 L36.45 -5.6 Q37.8 0.35 38.75 3.05 41.15 10.05 45.35 11.0 L47.05 10.85 47.25 10.9 48.1 11.0 48.85 10.8 48.95 11.1 51.55 11.5 50.95 10.25 Q50.95 9.45 51.25 9.2 L51.95 9.0 54.25 11.7 Q55.9 8.95 56.95 8.0 L57.7 8.4 57.95 9.5 56.95 11.85 61.95 12.0 63.95 12.25 63.95 10.75 Q64.05 9.15 64.95 8.5 65.75 9.2 65.9 10.55 L65.95 12.5 67.6 12.65 67.6 12.45 Q67.95 9.2 68.95 8.5 69.75 9.25 69.9 10.55 L69.95 12.75 Q74.8 12.65 76.6 11.55 79.2 10.0 80.45 4.55 L80.65 3.4 Q77.7 6.2 77.45 6.8 L75.85 7.0 75.65 6.75 75.45 5.75 Q75.45 4.85 79.3 1.0 L80.8 -0.45 Q78.45 -1.95 78.45 -2.25 78.45 -3.05 78.6 -3.2 L78.95 -3.45 81.25 -2.45 81.45 -4.0 81.65 -12.0 78.45 -12.0 78.25 -12.05 77.75 -12.25 Q77.45 -12.45 77.45 -13.25 L77.5 -14.05 77.7 -14.45 78.2 -14.45 78.4 -14.45 81.7 -14.3 81.9 -19.0 78.75 -19.0 78.35 -19.0 78.15 -19.15 Q77.95 -19.35 77.95 -20.1 L77.85 -20.3 78.75 -20.7 78.9 -20.7 81.95 -21.0 81.95 -21.25 Q81.95 -26.5 81.75 -27.95 L81.55 -29.15 81.45 -29.2 81.45 -29.55 Q80.9 -31.75 79.75 -33.5 L79.7 -33.5 78.65 -33.75 77.8 -33.45 76.3 -32.7 76.05 -32.55 75.65 -32.3 75.3 -32.05 75.25 -32.0 74.2 -31.45 Q70.7 -29.5 61.45 -29.5 53.3 -29.5 52.2 -30.2 51.9 -30.4 52.0 -30.85 52.1 -31.25 51.7 -31.45 L49.55 -32.3 Q48.95 -32.4 48.35 -32.75 46.2 -34.0 43.85 -34.75 L42.6 -35.25 41.45 -36.0 39.9 -37.35 M21.95 -37.85 L21.95 -37.65 24.45 -37.4 24.5 -38.2 24.4 -38.35 Q23.35 -40.1 21.95 -41.0 L18.95 -41.9 20.5 -40.15 Q21.95 -38.4 21.95 -37.85 M25.3 -35.2 L23.9 -35.35 23.3 -35.45 22.8 -34.95 Q17.65 -36.25 13.55 -36.25 L9.75 -36.15 8.95 -36.0 8.7 -36.05 Q3.05 -35.65 -2.55 -34.3 -8.85 -32.8 -12.45 -30.85 L-12.55 -27.9 Q-12.85 -26.15 -13.65 -25.1 L-14.0 -21.1 -5.4 -24.05 Q9.4 -28.65 19.8 -29.45 L26.8 -29.7 Q25.65 -33.25 25.4 -35.2 L25.3 -35.2 M49.1 32.45 L47.6 32.1 45.55 31.55 Q42.9 30.75 40.9 29.75 L40.0 29.3 38.65 28.5 Q36.35 26.95 34.35 24.8 L29.55 19.65 Q25.65 16.4 21.1 16.45 L20.7 15.85 21.5 15.45 21.9 15.15 22.35 15.0 Q23.4 14.65 24.15 14.65 27.05 14.65 32.2 19.5 L37.2 24.75 38.5 25.9 38.45 24.6 38.45 24.45 37.95 21.85 Q37.8 20.55 37.8 15.7 37.3 13.9 37.35 11.95 37.45 9.7 38.5 8.5 L38.35 8.3 Q36.3 4.75 35.8 0.85 35.55 -1.35 34.4 -5.3 33.15 -9.7 32.8 -11.45 32.3 -14.2 28.6 -24.4 L27.25 -28.35 23.75 -28.0 Q16.6 -27.45 8.55 -25.45 L2.1 -23.55 -2.2 -22.3 Q-5.65 -21.7 -11.7 -19.1 L-14.45 -17.9 -14.8 -15.6 Q-15.25 -12.85 -16.8 -10.1 L-17.45 -9.0 -17.3 -6.95 Q-16.85 -0.75 -16.75 6.8 -15.3 9.45 -14.0 12.4 L-9.0 24.5 Q-5.4 31.7 1.05 35.85 L0.85 36.55 Q0.6 36.95 -0.15 37.15 L-5.25 35.9 -12.45 33.7 -12.5 33.45 -12.5 33.65 -12.4 34.05 Q-11.8 36.3 -4.55 42.9 L2.5 49.1 2.6 50.1 Q2.4 50.45 1.15 50.8 -0.25 51.15 -2.5 50.85 L-1.65 51.55 Q2.9 55.1 9.9 58.45 L10.15 58.4 12.35 59.7 12.5 59.75 17.3 61.35 20.5 62.3 24.65 63.25 31.25 64.3 33.7 64.8 36.8 65.4 43.3 66.7 44.45 66.9 47.45 67.45 55.15 68.55 59.75 68.8 64.15 69.1 67.15 69.6 Q69.6 70.1 70.9 70.7 L71.35 70.3 74.2 67.6 69.8 67.0 67.65 66.5 67.15 66.35 65.95 66.05 63.55 65.45 61.95 65.05 58.05 63.55 57.9 63.5 55.95 62.75 54.15 62.1 53.95 62.1 51.95 61.85 Q49.9 61.3 48.45 59.7 46.55 57.6 46.55 55.0 46.55 52.6 48.75 50.75 50.35 49.45 55.1 46.95 L55.75 46.6 55.15 46.55 54.95 46.55 Q53.4 46.55 51.3 45.75 49.15 44.9 47.8 44.9 L47.05 44.75 46.75 44.45 46.7 44.55 46.65 43.8 Q46.65 42.9 50.45 41.6 55.05 40.05 57.3 38.0 L57.45 37.85 57.3 37.85 48.9 37.65 46.5 37.55 42.6 37.35 Q41.45 36.4 41.45 36.1 41.45 35.5 43.45 34.8 L45.95 33.85 47.65 33.15 49.05 32.55 49.15 32.45 49.1 32.45 M12.95 -38.65 L18.65 -38.2 17.45 -39.8 15.65 -42.75 11.4 -42.9 7.15 -43.05 6.75 -43.1 7.3 -42.5 8.05 -41.25 9.35 -38.15 9.95 -38.25 12.95 -38.65 M3.95 -43.7 Q3.8 -44.05 4.1 -44.45 L-4.4 -41.75 -8.9 -40.35 -6.8 -39.05 Q-4.1 -37.1 -3.6 -35.8 L7.1 -37.85 6.3 -39.05 Q4.5 -42.05 4.45 -43.4 L3.95 -43.7 M68.7 -32.1 Q68.15 -32.25 69.45 -32.45 L70.05 -32.45 72.85 -32.75 73.55 -33.4 74.35 -34.25 Q76.1 -35.4 77.55 -35.8 L77.45 -36.7 Q77.45 -38.7 78.8 -40.05 L80.1 -41.0 79.7 -41.6 Q78.7 -43.25 74.8 -43.25 69.3 -43.25 66.85 -39.25 L65.45 -35.15 Q65.45 -34.25 65.95 -33.2 L66.45 -31.75 68.7 -31.8 69.55 -31.85 68.7 -32.1 M107.35 -45.25 Q106.55 -44.3 105.05 -44.1 103.25 -43.85 102.35 -43.25 96.8 -39.7 95.8 -37.6 95.45 -36.8 95.45 -32.0 95.45 -29.0 95.95 -25.75 96.2 -23.95 96.6 -22.75 97.95 -21.55 97.95 -20.6 L97.95 -20.45 Q98.3 -20.2 98.7 -20.2 102.45 -20.2 105.1 -22.15 L106.5 -23.35 Q107.85 -24.8 108.85 -26.95 L108.95 -27.2 110.2 -30.75 110.65 -33.2 110.95 -37.5 Q110.95 -41.45 110.45 -43.25 109.1 -45.75 107.35 -45.25 M128.7 10.55 Q128.25 3.1 126.95 -2.95 L126.45 -5.1 126.35 -5.4 125.4 -8.75 123.55 -13.75 121.45 -18.15 Q118.85 -22.9 115.4 -27.05 L113.6 -28.85 112.15 -30.05 111.1 -26.75 110.65 -25.65 Q109.35 -22.8 107.4 -21.0 L108.65 -19.3 Q110.2 -17.6 115.0 -13.5 120.6 -7.85 123.65 -0.05 125.9 5.8 126.8 13.45 L127.95 25.2 127.95 25.25 127.95 25.4 128.1 25.2 Q128.6 24.65 128.75 23.8 L128.75 23.9 128.85 23.3 128.85 23.0 128.85 22.9 128.85 22.8 128.85 22.35 128.85 17.7 128.85 17.5 128.7 10.55 M93.95 -25.0 L93.45 -32.0 Q93.45 -36.0 93.75 -37.3 94.4 -40.0 96.85 -41.95 92.0 -40.55 88.35 -35.9 85.75 -32.6 85.35 -29.55 L85.7 -29.35 89.95 -26.5 Q91.85 -26.0 93.85 -24.8 L94.05 -24.65 93.95 -25.0 M88.35 -40.3 L88.8 -40.55 88.35 -40.5 83.95 -40.1 83.3 -39.65 Q81.6 -38.45 81.35 -37.75 L80.8 -35.55 Q82.25 -34.8 83.1 -32.7 83.85 -37.4 88.35 -40.3 M84.2 -26.5 Q84.25 -24.05 83.95 -21.5 L83.95 -21.05 90.1 -21.0 90.3 -20.85 90.45 -20.0 90.35 -19.3 90.1 -19.0 83.95 -19.0 83.9 -14.2 88.1 -14.0 88.3 -13.85 88.45 -13.0 88.35 -12.3 88.1 -12.0 83.85 -12.0 83.5 -2.75 85.95 -4.5 86.7 -4.35 86.95 -3.5 Q86.95 -2.85 84.55 -0.4 88.0 1.65 90.1 1.75 L90.45 2.5 Q90.1 3.5 88.7 3.5 87.3 3.5 83.3 1.1 L82.45 7.3 82.15 8.3 81.3 9.85 81.15 10.15 80.85 10.6 81.4 11.8 82.2 13.2 82.25 13.3 82.85 14.0 84.75 16.2 85.7 17.3 86.55 17.3 90.5 17.1 91.0 17.05 90.45 16.8 90.45 15.75 Q92.2 15.05 94.25 16.35 L94.65 16.6 94.9 16.6 95.35 15.05 95.45 14.75 Q95.85 13.4 96.45 13.0 L97.2 13.4 97.45 14.5 97.25 16.15 102.0 14.95 102.7 14.75 102.45 14.05 102.5 13.35 Q102.6 12.85 102.85 12.7 103.3 12.4 104.65 12.7 L104.85 12.75 104.75 13.15 Q104.6 13.45 104.6 14.15 L106.05 13.65 105.95 12.25 105.95 12.05 Q106.5 11.65 107.4 11.65 L108.35 11.75 108.45 12.75 108.95 12.5 109.2 12.45 Q111.0 12.05 111.85 10.45 L112.2 9.45 112.25 9.25 112.4 7.65 111.95 7.3 111.95 6.25 112.45 6.25 112.45 5.1 Q112.45 -1.15 110.5 -6.6 L105.85 -18.2 105.35 -19.4 105.35 -19.45 Q103.65 -18.55 101.6 -18.2 L99.2 -18.0 Q97.25 -18.0 96.0 -19.65 L85.25 -26.85 84.45 -26.5 84.15 -26.9 84.2 -26.5 M108.6 -17.05 L108.95 -15.5 Q111.5 -12.55 112.45 -8.95 114.15 -3.15 114.35 -1.15 L114.45 5.1 114.45 6.85 Q117.45 8.4 121.35 13.95 L123.95 17.85 125.35 15.6 125.45 15.65 125.25 14.1 Q124.25 6.75 122.05 0.4 118.85 -8.75 111.0 -15.0 L108.6 -17.05 M120.55 26.4 L122.1 26.15 Q122.9 26.05 123.35 25.75 L124.2 24.95 124.45 23.6 Q124.45 22.15 122.9 19.6 121.7 17.6 119.5 14.9 116.6 11.35 114.35 9.25 L114.25 10.05 114.0 11.25 113.95 11.4 113.9 11.5 112.6 13.55 112.3 13.75 111.7 14.05 108.7 15.3 109.1 15.7 Q109.95 16.3 110.45 17.0 L110.15 17.8 108.95 18.0 Q107.4 18.0 106.65 16.05 L105.7 16.4 107.45 18.8 107.25 19.55 Q107.0 20.0 106.2 20.0 104.75 20.0 103.5 17.1 L97.95 18.55 98.95 19.0 98.75 19.6 Q98.5 20.0 97.7 20.0 L95.85 19.65 Q94.5 22.3 92.95 23.0 L92.25 22.85 Q91.95 22.7 91.95 21.9 91.95 21.35 93.25 19.25 L88.95 19.5 87.5 19.5 86.6 19.5 86.1 19.5 85.95 20.75 86.05 21.1 86.95 23.05 87.95 24.95 87.95 25.0 88.05 25.05 88.45 25.25 89.55 25.9 89.6 25.95 90.2 26.3 92.5 26.9 92.65 26.95 92.75 26.95 92.95 27.0 103.2 27.25 105.6 27.2 111.8 26.9 116.65 26.7 118.55 26.6 119.95 26.5 120.55 26.4 M140.45 21.4 L140.35 21.35 140.25 21.4 140.45 21.4 M125.95 42.5 L125.35 44.8 127.4 46.35 Q126.35 44.05 126.15 42.5 L125.95 42.5 M124.95 46.95 L124.55 49.85 124.5 50.05 123.8 50.3 Q122.1 50.3 122.0 44.9 L120.35 43.75 Q118.1 42.5 113.1 42.45 108.1 42.5 102.7 39.35 102.05 39.0 102.15 38.65 L102.2 38.35 102.1 37.5 102.3 37.55 102.6 37.25 102.65 36.15 102.7 36.15 102.7 35.65 Q102.2 34.9 100.85 35.1 L100.55 35.15 98.65 34.1 Q98.6 33.8 99.1 33.1 99.65 32.2 100.65 31.2 L101.65 29.5 96.95 29.25 95.6 29.5 95.0 29.05 92.6 28.65 Q86.3 31.0 85.45 31.8 L83.65 33.8 82.5 35.0 83.2 38.0 Q83.6 39.25 85.85 42.05 L87.95 45.05 Q87.95 45.6 86.8 46.15 L84.2 47.45 Q83.1 48.1 82.35 49.0 L84.15 49.4 91.15 50.25 Q92.35 50.15 98.1 50.35 L105.35 50.05 112.75 49.7 Q115.6 50.15 118.7 51.5 119.75 51.95 121.45 53.0 L124.3 54.7 Q125.75 55.55 126.85 56.55 127.4 57.0 127.6 56.75 L130.2 53.05 129.9 52.0 128.4 50.35 Q126.75 48.2 125.9 47.55 L124.95 46.95 M122.05 34.6 L120.65 35.6 Q119.5 36.4 119.5 36.45 L116.6 36.45 116.45 36.3 116.35 35.4 119.0 32.1 121.95 28.35 104.2 29.5 101.65 33.5 103.7 32.2 Q105.5 31.2 106.05 31.5 L106.85 32.3 106.75 33.05 106.0 34.35 105.15 35.3 Q103.2 37.95 105.85 39.45 L108.15 39.6 108.45 39.75 116.8 39.8 Q117.5 39.85 121.25 42.0 L122.05 42.5 Q122.25 36.6 122.05 34.6 M81.85 16.25 L80.45 14.45 80.45 16.15 Q80.45 19.1 81.1 23.45 L81.5 26.45 81.8 28.75 81.95 30.8 82.0 31.5 Q83.0 30.3 84.9 29.15 86.1 28.4 87.25 28.0 L89.0 27.65 Q87.6 27.1 86.55 26.45 L85.5 25.55 Q83.95 24.1 83.95 20.85 83.95 20.0 84.25 19.5 L84.3 19.4 83.65 19.25 Q84.15 18.6 83.35 17.75 L81.85 16.25 M84.95 45.0 Q81.85 41.55 80.75 37.6 80.1 35.15 79.95 30.3 L79.9 28.8 79.7 26.5 79.1 22.55 Q78.45 19.65 78.45 16.05 L78.25 13.45 77.35 14.05 74.35 14.75 73.95 16.0 Q73.45 17.45 73.45 19.55 L72.95 24.8 72.85 27.4 72.85 29.95 72.9 31.4 72.95 34.0 Q73.8 34.35 73.95 35.0 73.8 35.8 71.55 36.5 L71.0 36.7 68.6 37.25 60.95 37.95 57.85 40.35 Q53.9 43.05 51.15 43.8 L51.15 43.9 56.55 44.75 Q59.9 45.35 60.85 46.0 60.2 47.0 57.0 48.6 L52.55 50.75 Q48.6 52.75 48.6 55.8 48.6 57.7 51.05 59.15 L50.45 57.5 Q50.45 56.45 50.95 56.05 51.7 55.5 53.95 55.5 56.9 55.5 57.95 58.2 58.5 59.55 58.45 61.0 L58.45 61.6 59.15 61.8 65.05 63.4 Q65.85 62.55 66.95 62.0 67.75 62.25 68.1 62.9 L68.45 64.0 70.5 61.9 Q72.5 59.85 73.95 59.0 L72.35 56.3 Q71.45 54.75 71.45 53.75 71.45 51.6 73.6 50.15 L75.8 48.65 77.6 47.3 78.45 46.5 Q79.25 47.0 79.45 48.35 L79.45 49.0 79.9 48.45 81.6 47.15 84.95 45.0 M69.5 18.15 L69.45 18.5 69.4 19.4 69.35 19.55 68.45 20.0 67.6 19.2 Q67.45 18.95 67.45 18.1 L67.45 18.0 67.5 14.9 65.95 14.8 65.85 16.55 64.95 17.0 Q64.25 16.15 64.05 14.8 L64.05 14.7 62.8 14.6 56.1 14.3 57.45 16.3 57.25 17.05 Q57.0 17.5 56.2 17.5 55.6 17.5 54.55 16.15 L52.45 19.0 51.6 18.75 Q51.45 18.65 51.45 17.75 51.45 16.75 52.85 14.2 L47.9 14.05 47.95 15.35 47.45 18.3 47.45 22.5 47.45 23.75 47.5 30.25 47.5 30.3 50.65 30.8 Q52.3 31.0 52.3 32.35 52.3 32.75 49.8 34.2 L48.0 35.2 Q48.2 35.8 48.45 35.8 L56.75 35.75 60.95 35.35 61.7 35.4 61.95 35.7 68.4 35.35 69.65 35.2 70.85 34.8 70.8 34.4 70.95 32.75 70.95 29.75 Q70.95 24.4 71.45 20.75 L71.45 20.3 71.35 17.65 71.35 16.0 71.55 14.95 69.8 15.0 69.55 17.8 69.5 18.15 M47.25 13.05 L47.1 13.0 46.8 13.1 47.2 13.55 47.25 13.05 M45.35 18.45 L45.3 18.5 45.3 18.2 45.3 17.05 45.3 15.95 45.3 14.8 Q45.4 13.9 45.85 13.3 L45.8 13.3 44.4 13.2 Q43.95 12.8 43.3 12.85 L43.3 12.9 Q41.55 12.25 40.1 10.7 39.8 11.5 39.8 12.05 L39.8 15.8 Q39.8 17.35 40.1 19.75 L40.95 19.5 40.95 19.7 40.55 19.8 40.15 19.85 40.2 20.3 40.7 23.3 40.8 23.85 40.9 26.35 40.95 26.8 40.8 26.95 40.85 27.7 Q42.2 28.65 43.35 29.05 L45.35 29.75 45.35 27.15 45.45 24.0 45.55 18.45 45.55 18.4 45.35 18.45 M22.8 64.2 L22.7 64.15 Q20.65 63.8 16.1 62.2 L15.65 62.05 15.4 61.95 Q12.75 60.85 10.4 60.3 L10.05 60.0 Q9.4 59.6 8.2 59.1 L3.35 56.5 Q-2.2 53.35 -5.9 50.55 L-6.7 49.9 -10.9 48.5 -17.65 45.55 -17.45 45.75 -17.8 46.4 -18.65 46.7 Q-17.55 48.8 -14.1 51.6 -9.85 55.2 -9.55 56.3 L-9.4 57.55 Q-9.55 57.8 -10.35 58.0 L-11.65 58.05 -12.4 56.95 -12.9 57.1 -20.6 56.9 -20.85 56.9 -19.45 58.95 -19.6 59.65 Q-11.8 62.55 3.85 64.75 L2.25 62.4 Q1.25 60.7 0.95 59.8 L1.15 59.3 Q1.4 59.0 2.2 59.0 L9.45 62.8 16.25 64.3 24.45 65.8 22.8 64.2 M53.7 60.25 L56.45 61.05 56.45 61.0 Q56.45 60.2 55.95 59.25 L54.95 57.55 54.0 57.7 Q53.05 57.85 52.95 58.05 L53.7 60.25 M-39.0 -50.1 L-38.2 -51.8 Q-39.1 -50.75 -45.75 -44.5 -48.1 -42.3 -51.2 -39.45 L-53.6 -35.0 -54.05 -34.2 -55.65 -31.1 -56.65 -29.35 -56.5 -29.1 Q-55.75 -28.2 -54.75 -28.45 -53.95 -28.7 -50.6 -33.65 L-49.9 -34.75 -45.5 -41.55 -44.8 -42.4 -39.35 -48.95 -39.0 -50.1 M-15.2 -73.9 L-16.2 -73.0 Q-24.25 -65.6 -30.85 -57.6 -34.2 -53.5 -36.95 -49.45 -33.95 -51.05 -30.95 -52.3 L-28.4 -52.3 -28.15 -52.15 -28.05 -52.05 -20.0 -64.35 -17.1 -68.7 -17.0 -68.9 -15.3 -73.0 -15.05 -73.75 -15.15 -74.0 -15.2 -73.9 M-60.05 -46.65 L-60.15 -46.9 -60.25 -46.75 -63.3 -41.4 -66.65 -34.5 Q-68.4 -30.15 -68.35 -26.85 -68.3 -25.25 -67.85 -23.95 L-67.55 -23.15 -67.85 -22.85 -68.35 -22.25 -68.15 -21.55 -67.75 -21.1 -66.5 -21.15 Q-65.1 -21.55 -64.25 -24.65 L-63.7 -27.2 -62.75 -33.55 -62.2 -35.35 -60.65 -40.65 -59.9 -42.85 -59.9 -42.9 -59.95 -43.9 -60.05 -46.35 -60.05 -46.65 M-28.7 -44.15 Q-33.65 -39.15 -38.4 -36.95 L-40.45 -35.85 -40.65 -35.75 -40.8 -35.7 -40.95 -35.6 -41.1 -35.5 -41.4 -35.3 -41.55 -35.2 -42.8 -34.4 -42.95 -34.25 -43.1 -34.2 -46.4 -31.05 -46.9 -30.35 -47.15 -29.95 -47.25 -29.75 -47.7 -28.9 -47.75 -28.75 -48.65 -25.65 -48.75 -25.4 -49.4 -23.8 -49.45 -23.65 -49.75 -23.15 -49.8 -23.0 -50.2 -22.45 -49.95 -22.3 -46.95 -19.95 -45.75 -18.95 -40.25 -15.3 -39.95 -15.1 -38.75 -14.2 -36.6 -12.4 -36.85 -18.35 -36.8 -19.45 Q-36.75 -23.6 -36.4 -24.8 L-36.15 -26.45 -34.9 -32.65 -33.95 -35.4 -33.0 -37.0 -33.0 -37.1 Q-33.2 -37.75 -32.05 -38.95 L-30.4 -40.7 -30.2 -40.85 -30.2 -40.95 -30.1 -41.0 -28.9 -43.15 -28.4 -44.0 -27.45 -45.3 -27.55 -45.4 -28.7 -44.15 M-74.5 -34.6 Q-75.65 -28.55 -74.8 -22.5 L-74.75 -22.3 Q-74.15 -18.25 -72.2 -11.5 -70.75 -13.5 -69.4 -14.5 L-69.5 -14.8 -69.25 -15.45 -70.95 -22.25 -71.1 -23.2 -71.5 -25.25 -71.85 -25.85 -72.6 -27.8 -72.65 -28.0 Q-73.3 -32.5 -74.25 -34.6 L-74.5 -34.8 -74.5 -34.6 M-59.35 -16.05 L-62.2 -17.85 Q-63.15 -17.35 -63.8 -17.0 L-65.85 -15.45 -67.75 -14.1 -67.9 -14.05 Q-69.95 -11.75 -72.25 -8.45 L-72.85 -7.65 Q-78.85 0.95 -80.7 8.85 -81.6 12.5 -85.0 16.5 -82.75 17.0 -80.65 19.3 L-79.65 20.45 -75.2 25.75 Q-74.05 26.6 -72.5 28.7 L-70.4 31.9 Q-69.7 33.05 -67.25 35.4 L-62.3 29.2 Q-57.25 23.4 -51.85 17.9 -49.25 15.15 -43.4 7.45 -39.85 2.8 -37.2 -0.05 -38.6 -2.1 -41.35 -4.3 L-47.0 -8.3 -49.55 -9.8 -51.55 -10.95 -53.05 -12.4 -54.35 -13.75 -58.45 -15.6 -59.35 -16.05 M-76.45 13.25 L-77.05 11.0 -77.5 9.0 Q-77.7 7.6 -77.1 7.0 L-77.0 7.05 Q-76.8 7.15 -76.55 7.3 L-76.4 7.4 Q-75.7 8.05 -75.3 9.45 L-74.45 12.8 -71.3 11.95 -67.85 7.15 -63.7 1.7 Q-60.75 -2.0 -56.0 -0.9 -53.9 -0.45 -50.0 1.85 L-50.15 2.55 -50.25 2.65 -50.15 3.15 Q-49.25 6.4 -51.55 11.3 -54.35 17.45 -60.4 19.1 -66.75 20.8 -70.8 18.85 L-73.55 16.75 -74.3 16.25 -74.7 15.95 -74.8 15.6 -75.25 14.9 Q-75.8 14.8 -76.05 14.5 L-76.3 13.7 -76.45 13.25 M-51.0 -20.5 L-52.6 -21.8 -57.1 -20.05 -60.15 -18.75 -57.45 -17.45 -55.2 -16.1 Q-52.5 -14.4 -47.45 -10.95 -43.25 -8.55 -39.6 -5.25 L-35.9 -1.55 -35.4 -2.65 Q-34.05 -4.65 -31.3 -5.05 L-34.85 -7.6 -35.1 -7.55 -35.25 -7.9 -39.25 -10.95 -51.0 -20.5 M-16.05 -39.6 Q-16.45 -41.1 -17.15 -41.85 L-17.3 -42.05 -17.75 -42.6 -19.65 -45.3 Q-21.0 -47.35 -21.85 -49.8 L-26.35 -43.4 -30.2 -38.2 -30.2 -38.15 -30.75 -36.55 -31.8 -33.15 -33.2 -28.25 -34.0 -24.95 Q-35.8 -16.75 -34.45 -11.65 L-33.9 -10.65 Q-33.5 -11.95 -31.2 -14.0 -28.05 -16.85 -27.0 -12.8 -26.45 -10.8 -26.85 -9.5 -27.15 -8.35 -28.2 -7.1 L-27.05 -6.25 -24.85 -6.2 Q-23.45 -6.55 -22.25 -7.2 -18.15 -9.45 -17.1 -15.0 L-16.65 -20.0 -16.6 -20.6 Q-16.45 -23.9 -16.05 -25.1 L-19.2 -25.0 Q-20.65 -25.2 -21.35 -25.95 L-21.7 -26.5 -22.45 -28.7 Q-23.05 -30.9 -22.6 -31.85 -21.4 -34.25 -15.5 -35.35 L-15.45 -35.4 -15.75 -37.45 -16.05 -39.6 M-13.8 -40.0 L-14.15 -40.2 -14.15 -40.1 -14.1 -39.85 -13.25 -36.55 -13.2 -35.85 -12.6 -33.4 -10.0 -34.3 -6.35 -35.2 -7.85 -36.55 -11.35 -39.65 -12.3 -39.5 Q-12.9 -39.5 -13.8 -40.0 M-14.5 -32.8 L-14.7 -33.0 Q-14.95 -33.4 -15.6 -33.2 -20.25 -31.95 -20.85 -30.5 L-20.45 -29.05 -20.1 -27.55 -19.9 -27.15 -17.3 -27.35 -15.15 -27.3 -14.95 -27.3 -14.7 -29.4 -14.7 -29.45 -14.45 -31.55 -14.45 -32.3 -14.5 -32.8 M-34.55 -46.65 Q-33.7 -48.2 -32.65 -49.05 L-37.9 -46.1 -37.9 -45.65 -37.75 -44.4 -34.55 -46.65 M-34.0 -42.7 L-29.85 -49.2 -30.7 -48.3 Q-33.55 -45.1 -33.95 -43.05 L-34.0 -42.7 M-29.0 -12.5 L-29.1 -12.8 -29.15 -12.75 -31.0 -10.8 -32.3 -9.35 -32.2 -9.15 -32.35 -8.8 -31.1 -7.75 -30.35 -8.0 -29.85 -8.9 Q-28.6 -11.0 -29.0 -12.5 M-23.75 1.6 L-24.05 0.2 -24.25 -0.55 -24.95 -1.4 -26.05 -2.65 -26.45 -2.75 -28.05 -3.15 -28.6 -3.2 -32.35 -2.85 -33.9 -1.85 -33.8 -1.5 Q-33.7 -1.0 -34.55 0.45 L-34.15 1.05 -34.2 1.95 -34.4 2.2 -34.05 3.35 Q-33.6 5.15 -32.95 5.6 L-29.05 5.75 -28.85 5.5 -28.1 5.5 -27.95 5.55 -27.45 5.4 -27.2 5.35 Q-24.7 4.6 -24.05 3.7 L-23.8 3.05 Q-23.65 2.45 -23.75 1.6 M-22.8 -3.25 L-23.4 -2.65 -22.7 -1.9 Q-20.9 0.2 -19.25 2.65 L-19.7 -6.4 -20.85 -5.5 -22.8 -3.25 M-2.1 48.2 L-2.1 48.15 -8.45 42.15 Q-12.35 38.25 -14.05 35.5 L-15.2 31.15 -15.1 30.95 Q-15.05 30.8 -14.35 30.6 -13.5 30.35 -10.1 31.75 -6.75 33.2 -5.4 32.95 -8.7 29.1 -11.4 23.5 L-15.95 13.4 -16.7 11.75 -19.0 7.25 -21.45 3.2 -21.75 2.8 -21.85 3.4 Q-22.1 4.65 -23.1 5.65 -24.15 6.7 -26.1 7.3 L-27.0 7.55 -27.8 7.8 Q-28.75 10.35 -33.5 15.8 L-42.8 25.85 -51.15 34.8 Q-57.25 41.3 -60.15 44.9 L-60.3 44.95 Q-60.25 46.3 -60.55 47.35 -61.35 50.4 -64.95 51.4 L-67.8 51.85 Q-68.95 53.4 -72.85 55.6 L-73.5 55.65 Q-74.3 57.05 -75.4 58.1 L-76.05 58.7 -77.05 59.4 -77.45 59.65 -79.85 60.6 Q-79.8 60.75 -79.9 60.75 L-80.1 61.15 -87.8 63.2 -88.15 63.55 -87.9 63.65 Q-85.6 64.45 -84.35 64.65 -81.35 65.05 -75.7 66.65 -70.65 68.05 -67.9 68.2 L-69.5 66.35 Q-70.5 65.2 -71.95 64.7 L-72.3 63.5 -71.85 63.2 -70.65 62.8 -65.1 63.3 -55.25 64.05 -58.4 61.75 Q-60.45 60.25 -61.0 59.1 L-61.05 59.15 Q-61.8 59.05 -62.15 58.75 -61.55 56.7 -57.3 56.1 L-48.1 55.2 -32.25 54.25 -27.6 54.0 -25.45 54.0 -22.75 54.05 -20.2 54.25 -13.65 55.35 -16.0 52.75 -20.65 47.6 -22.0 42.5 -22.05 42.25 Q-21.95 41.95 -21.15 41.75 L-20.3 42.05 -12.75 44.9 -11.3 45.45 -7.0 47.0 -2.3 48.3 -2.05 48.25 -2.1 48.2 M-36.2 2.85 L-39.7 7.3 -51.0 20.2 -58.55 29.05 -65.45 37.0 -64.75 37.65 -64.7 38.15 -64.3 38.3 Q-63.35 38.7 -63.0 39.05 -61.55 40.55 -60.95 42.3 -59.45 39.75 -53.65 34.4 L-44.35 24.65 Q-39.55 19.35 -30.9 8.2 -33.55 8.25 -34.9 6.85 -35.55 6.1 -35.75 5.0 L-35.95 3.9 -36.2 2.85 M-59.6 11.55 Q-56.8 8.65 -57.05 7.55 L-57.75 7.55 Q-58.1 8.3 -60.35 10.75 L-61.25 9.8 -62.0 7.8 Q-62.6 6.8 -64.0 8.0 L-61.1 11.35 -61.0 11.45 Q-63.3 13.9 -63.8 15.05 L-63.5 15.5 -60.35 12.25 -58.25 14.3 Q-58.0 14.85 -58.0 13.6 -58.0 13.2 -59.45 11.7 L-59.6 11.55 M-85.3 26.75 L-83.2 28.65 -78.35 33.55 Q-75.45 36.5 -72.85 38.3 L-72.65 39.0 -70.15 36.75 -69.3 36.5 Q-71.45 34.6 -72.0 33.6 -74.3 29.9 -76.5 27.35 L-79.4 24.4 -81.2 22.55 -82.0 21.55 Q-83.1 19.9 -85.4 19.2 L-86.85 18.65 -91.5 23.0 Q-90.75 23.25 -89.65 23.85 -87.25 25.15 -85.3 26.75 M-100.1 33.15 Q-95.7 37.6 -92.5 38.95 -89.7 40.2 -86.8 39.4 L-85.0 38.3 Q-83.8 37.3 -83.2 37.15 -82.1 36.85 -78.9 38.75 -76.05 40.3 -75.45 41.0 L-74.05 42.45 -74.05 41.7 -73.75 40.85 -83.85 31.0 -87.0 28.25 Q-91.35 24.8 -93.8 24.85 -98.55 28.5 -101.95 30.5 L-100.6 32.35 -100.1 33.15 M-74.75 44.6 Q-75.25 43.55 -77.55 41.85 -81.05 39.45 -82.9 40.2 -86.8 41.8 -88.6 41.95 -93.75 42.2 -96.95 39.3 -99.85 35.8 -101.75 34.85 -97.2 47.8 -93.8 52.7 L-92.75 54.0 -92.6 53.95 Q-92.45 53.95 -92.25 54.65 -87.3 60.25 -80.7 58.45 -75.6 57.1 -74.35 52.1 L-74.1 47.2 Q-74.4 45.3 -74.75 44.6 M-68.4 39.1 L-68.5 39.05 Q-73.1 39.15 -71.4 45.65 -70.85 47.7 -70.1 48.45 -68.65 50.1 -65.35 49.2 -62.85 48.55 -62.55 45.85 L-62.7 43.4 Q-63.2 41.45 -65.0 40.15 -66.15 39.35 -67.4 39.15 L-68.2 39.2 -68.4 39.1 M-72.25 52.1 L-70.85 51.15 -71.95 50.25 -72.25 52.1 M-23.9 56.95 L-23.65 56.95 -23.7 56.85 -23.8 56.7 -24.55 56.65 Q-24.15 56.85 -23.9 56.95 M-33.2 64.0 L-34.2 64.2 -35.45 63.95 -35.9 62.65 -36.45 62.7 -37.0 62.65 -33.85 60.6 Q-32.95 62.2 -32.95 62.8 L-33.2 64.0 M-102.8 38.2 L-103.3 36.65 Q-104.1 33.7 -103.75 31.45 L-106.5 32.5 -111.35 33.4 -111.65 33.7 -110.0 35.55 -107.2 38.85 -107.0 39.15 -105.1 42.25 Q-103.85 44.1 -102.6 45.0 -100.95 46.2 -99.75 47.8 L-97.7 50.65 -96.6 52.2 -96.6 52.25 Q-95.55 53.8 -95.0 55.0 L-94.6 54.8 -96.5 52.25 -96.55 52.15 Q-100.55 46.1 -102.8 38.2 M-114.9 35.15 Q-115.55 37.45 -115.15 40.1 -114.75 42.95 -113.25 48.55 L-110.55 62.15 -109.0 62.35 Q-108.1 62.7 -103.75 61.5 L-102.0 61.0 -100.1 60.25 Q-97.3 58.95 -96.45 57.05 L-98.55 53.7 -100.55 50.85 Q-101.15 49.75 -103.05 47.95 L-105.6 45.2 -110.5 38.5 -113.2 34.8 -113.6 34.9 -114.9 35.15 M-124.45 36.8 Q-127.3 41.1 -126.6 47.05 -126.35 49.05 -124.4 56.5 L-123.55 59.85 Q-122.7 62.6 -121.8 64.05 -121.35 64.8 -118.25 66.9 -114.95 69.25 -114.05 69.0 -111.75 68.4 -109.35 66.0 L-108.05 64.65 -109.95 64.65 -109.85 65.05 -110.5 65.7 Q-111.35 65.15 -111.9 64.05 L-112.0 64.0 -112.35 62.85 -112.3 62.85 -112.85 60.9 -114.4 52.65 -114.7 50.7 -115.75 51.0 Q-120.05 52.15 -122.6 45.0 L-124.45 36.8 M-95.55 60.25 Q-94.0 60.55 -92.4 61.6 L-92.05 61.8 -88.0 60.7 -87.7 60.75 -87.6 60.85 -86.65 60.65 Q-90.0 59.6 -93.0 56.65 L-94.3 57.6 Q-94.35 58.7 -95.5 59.9 L-95.75 60.2 -95.55 60.25 M-101.15 56.2 Q-100.65 56.3 -101.85 56.6 -103.3 57.0 -103.95 55.5 L-104.35 53.95 -104.7 53.5 -105.35 52.15 -105.7 50.7 Q-104.6 50.35 -103.65 51.15 -102.05 51.15 -101.2 54.15 -100.85 55.55 -101.15 56.2 M-110.95 54.4 Q-111.2 53.55 -111.05 52.9 L-110.5 52.2 Q-109.7 52.45 -109.55 52.65 L-109.1 53.6 -108.8 53.55 Q-108.45 54.25 -108.05 55.7 L-107.75 56.95 -107.9 57.95 Q-107.4 58.1 -108.6 58.45 L-109.85 58.5 -110.95 54.4" fill="#000000" fill-rule="evenodd" stroke="none"/>
    <path d="M18.45 -76.75 L18.4 -76.9 18.45 -76.75 M-60.25 -46.75 L-60.15 -46.9 -60.05 -46.65 -60.25 -46.75 M-74.25 -34.6 L-74.5 -34.6 -74.5 -34.8 -74.25 -34.6 M-34.55 -46.65 L-37.75 -44.4 -37.9 -45.65 -37.9 -46.1 -32.65 -49.05 Q-33.7 -48.2 -34.55 -46.65 M-34.0 -42.7 L-33.95 -43.05 Q-33.55 -45.1 -30.7 -48.3 L-29.85 -49.2 -34.0 -42.7" fill="#11131a" fill-rule="evenodd" stroke="none"/>
    <path d="M33.05 -51.95 L33.3 -52.0 33.15 -51.85 33.05 -51.95 M27.7 -63.7 L27.65 -63.9 27.7 -63.9 27.7 -63.7" fill="#070a0e" fill-rule="evenodd" stroke="none"/>
    <path d="M47.05 10.85 L45.35 11.0 Q41.15 10.05 38.75 3.05 37.8 0.35 36.45 -5.6 L34.3 -13.55 Q33.55 -15.5 32.5 -20.15 31.45 -24.55 30.55 -26.7 29.55 -29.0 28.35 -33.15 L27.2 -36.9 27.1 -37.3 27.1 -37.65 27.0 -38.75 27.3 -40.15 Q27.75 -43.0 28.8 -44.45 33.05 -44.05 33.95 -43.1 L36.1 -40.45 39.9 -37.35 Q39.9 -36.7 40.05 -35.95 L40.0 -35.6 42.2 -26.4 44.55 -13.95 45.05 -11.75 46.45 -8.7 Q47.7 -6.05 48.05 -4.45 48.5 -1.95 50.35 -0.25 54.5 3.5 64.3 3.5 72.8 3.5 76.25 -2.2 78.05 -5.2 78.05 -8.5 L78.25 -12.05 78.45 -12.0 81.65 -12.0 81.45 -4.0 81.25 -2.45 78.95 -3.45 78.6 -3.2 Q78.45 -3.05 78.45 -2.25 78.45 -1.95 80.8 -0.45 L79.3 1.0 Q75.45 4.85 75.45 5.75 L75.65 6.75 75.85 7.0 77.45 6.8 Q77.7 6.2 80.65 3.4 L80.45 4.55 Q79.2 10.0 76.6 11.55 74.8 12.65 69.95 12.75 L69.9 10.55 Q69.75 9.25 68.95 8.5 67.95 9.2 67.6 12.45 L67.6 12.65 65.95 12.5 65.9 10.55 Q65.75 9.2 64.95 8.5 64.05 9.15 63.95 10.75 L63.95 12.25 61.95 12.0 56.95 11.85 57.95 9.5 57.7 8.4 56.95 8.0 Q55.9 8.95 54.25 11.7 L51.95 9.0 51.25 9.2 Q50.95 9.45 50.95 10.25 L51.55 11.5 48.95 11.1 48.85 10.8 48.1 11.0 47.25 10.9 47.25 10.85 47.05 10.85 M77.8 -33.45 L78.65 -33.75 79.7 -33.5 79.75 -33.5 Q80.9 -31.75 81.45 -29.55 L81.45 -29.2 81.55 -29.15 81.75 -27.95 Q81.95 -26.5 81.95 -21.25 L81.95 -21.0 78.9 -20.7 79.05 -23.0 Q79.2 -26.1 78.85 -29.05 78.55 -31.95 77.8 -33.45 M78.75 -19.0 L81.9 -19.0 81.7 -14.3 78.4 -14.45 78.6 -17.15 78.75 -19.0 M49.05 32.55 L49.1 32.45 49.15 32.45 49.05 32.55 M47.45 22.5 L50.05 22.5 54.3 21.2 60.35 20.75 71.45 20.3 71.45 20.75 Q70.95 24.4 70.95 29.75 L70.95 32.75 70.8 34.4 70.85 34.8 69.65 35.2 68.4 35.35 61.95 35.7 61.7 35.4 60.95 35.35 56.75 35.75 48.45 35.8 Q48.2 35.8 48.0 35.2 L49.8 34.2 Q52.3 32.75 52.3 32.35 52.3 31.0 50.65 30.8 L47.5 30.3 47.5 30.25 47.45 23.75 47.45 22.5 M69.55 17.8 L69.55 17.85 69.5 18.15 69.55 17.8" fill="#221c15" fill-rule="evenodd" stroke="none"/>
    <path d="M7.15 -43.05 L7.3 -42.5 6.75 -43.1 7.15 -43.05 M112.2 9.45 L111.85 10.45 112.05 9.8 112.2 9.45 M112.3 13.75 L113.35 14.95 Q116.75 18.85 117.3 20.25 117.65 21.25 118.95 23.5 L119.1 23.8 118.35 24.0 Q112.2 25.45 106.45 25.7 L104.2 25.75 100.25 25.55 98.65 25.4 97.85 25.35 92.35 24.8 92.1 24.75 90.75 23.95 89.85 23.0 88.4 20.75 87.5 19.5 88.95 19.5 93.25 19.25 Q91.95 21.35 91.95 21.9 91.95 22.7 92.25 22.85 L92.95 23.0 Q94.5 22.3 95.85 19.65 L97.7 20.0 Q98.5 20.0 98.75 19.6 L98.95 19.0 97.95 18.55 103.5 17.1 Q104.75 20.0 106.2 20.0 107.0 20.0 107.25 19.55 L107.45 18.8 105.7 16.4 106.65 16.05 Q107.4 18.0 108.95 18.0 L110.15 17.8 110.45 17.0 Q109.95 16.3 109.1 15.7 L108.7 15.3 111.7 14.05 112.3 13.75 M86.6 19.5 Q86.05 20.15 86.05 21.05 L86.05 21.1 85.95 20.75 86.1 19.5 86.6 19.5 M87.95 24.95 L88.05 25.05 87.95 25.0 87.95 24.95 M89.6 25.95 L92.5 26.9 90.2 26.3 89.6 25.95 M116.65 26.7 L117.05 26.65 117.75 26.5 118.9 26.15 120.2 25.75 120.5 26.3 120.55 26.4 119.95 26.5 118.55 26.6 116.65 26.7 M81.15 10.15 Q81.35 11.7 82.2 13.2 L81.4 11.8 80.85 10.6 81.15 10.15 M84.75 16.2 Q85.55 16.85 86.55 17.3 L85.7 17.3 84.75 16.2 M-13.8 -40.0 L-14.1 -39.85 -14.15 -40.1 -14.15 -40.2 -13.8 -40.0 M-22.8 -3.25 L-20.85 -5.5 -19.7 -6.4 -19.25 2.65 Q-20.9 0.2 -22.7 -1.9 L-23.4 -2.65 -22.8 -3.25" fill="#221f1c" fill-rule="evenodd" stroke="none"/>
    <path d="M78.25 -12.05 L78.05 -8.5 Q78.05 -5.2 76.25 -2.2 72.8 3.5 64.3 3.5 54.5 3.5 50.35 -0.25 48.5 -1.95 48.05 -4.45 47.7 -6.05 46.45 -8.7 L45.05 -11.75 44.55 -13.95 42.2 -26.4 40.0 -35.6 40.05 -35.95 Q39.9 -36.7 39.9 -37.35 L41.45 -36.0 42.6 -35.25 43.85 -34.75 Q46.2 -34.0 48.35 -32.75 48.95 -32.4 49.55 -32.3 L51.7 -31.45 Q52.1 -31.25 52.0 -30.85 51.9 -30.4 52.2 -30.2 53.3 -29.5 61.45 -29.5 70.7 -29.5 74.2 -31.45 L75.25 -32.0 75.3 -32.05 75.65 -32.3 76.05 -32.55 76.3 -32.7 77.8 -33.45 Q78.55 -31.95 78.85 -29.05 79.2 -26.1 79.05 -23.0 L78.9 -20.7 78.75 -20.7 77.85 -20.3 77.95 -20.1 Q77.95 -19.35 78.15 -19.15 L78.35 -19.0 78.75 -19.0 78.6 -17.15 78.4 -14.45 78.2 -14.45 77.7 -14.45 77.5 -14.05 77.45 -13.25 Q77.45 -12.45 77.75 -12.25 L78.25 -12.05 M47.45 22.5 L47.45 18.3 47.95 15.35 47.9 14.05 52.85 14.2 Q51.45 16.75 51.45 17.75 51.45 18.65 51.6 18.75 L52.45 19.0 54.55 16.15 Q55.6 17.5 56.2 17.5 57.0 17.5 57.25 17.05 L57.45 16.3 56.1 14.3 62.8 14.6 64.05 14.7 64.05 14.8 Q64.25 16.15 64.95 17.0 L65.85 16.55 65.95 14.8 67.5 14.9 67.45 18.0 67.45 18.1 Q67.45 18.95 67.6 19.2 L68.45 20.0 69.35 19.55 69.4 19.4 69.45 18.5 69.5 18.15 69.55 17.85 69.55 17.8 69.8 15.0 71.55 14.95 71.35 16.0 71.35 17.65 71.45 20.3 60.35 20.75 54.3 21.2 50.05 22.5 47.45 22.5" fill="#0f0c09" fill-rule="evenodd" stroke="none"/>
    <path d="M11.4 -42.9 L12.95 -38.65 9.95 -38.25 9.35 -38.15 8.05 -41.25 7.3 -42.5 7.15 -43.05 11.4 -42.9 M82.15 8.3 Q83.65 8.9 86.8 11.55 L90.9 15.0 95.45 14.75 95.35 15.05 94.9 16.6 94.65 16.6 94.25 16.35 Q92.2 15.05 90.45 15.75 L90.45 16.8 90.5 17.1 86.55 17.3 Q85.55 16.85 84.75 16.2 L82.85 14.0 82.25 13.3 82.2 13.2 Q81.35 11.7 81.15 10.15 L81.3 9.85 82.15 8.3 M97.45 14.5 L102.5 13.35 102.45 14.05 102.7 14.75 102.0 14.95 97.25 16.15 97.45 14.5 M104.65 12.7 L105.45 12.4 105.95 12.25 106.05 13.65 104.6 14.15 Q104.6 13.45 104.75 13.15 L104.85 12.75 104.65 12.7 M107.4 11.65 L108.9 11.05 108.85 10.0 Q109.0 6.95 108.8 5.8 L106.8 -2.45 105.05 -10.7 Q104.55 -12.4 102.85 -15.15 101.8 -16.95 101.6 -18.2 103.65 -18.55 105.35 -19.45 L105.35 -19.4 105.85 -18.2 110.5 -6.6 Q112.45 -1.15 112.45 5.1 L112.45 6.25 111.95 6.25 111.95 7.3 112.4 7.65 112.25 9.25 112.2 9.45 112.05 9.8 111.85 10.45 Q111.0 12.05 109.2 12.45 L108.95 12.5 108.45 12.75 108.35 11.75 107.4 11.65 M112.3 13.75 L112.6 13.55 113.9 11.5 113.95 11.4 114.0 11.25 114.25 10.05 114.35 9.25 Q116.6 11.35 119.5 14.9 121.7 17.6 122.9 19.6 124.45 22.15 124.45 23.6 L124.2 24.95 123.35 25.75 Q122.9 26.05 122.1 26.15 L120.55 26.4 120.5 26.3 120.2 25.75 118.9 26.15 117.75 26.5 117.05 26.65 116.65 26.7 111.8 26.9 105.6 27.2 103.2 27.25 92.95 27.0 92.75 26.95 92.65 26.95 92.5 26.9 89.6 25.95 89.55 25.9 88.45 25.25 88.05 25.05 87.95 24.95 86.95 23.05 86.05 21.1 86.05 21.05 Q86.05 20.15 86.6 19.5 L87.5 19.5 88.4 20.75 89.85 23.0 90.75 23.95 92.1 24.75 92.35 24.8 97.85 25.35 98.65 25.4 100.25 25.55 104.2 25.75 106.45 25.7 Q112.2 25.45 118.35 24.0 L119.1 23.8 118.95 23.5 Q117.65 21.25 117.3 20.25 116.75 18.85 113.35 14.95 L112.3 13.75 M-57.45 -17.45 L-60.15 -18.75 -57.1 -20.05 -52.6 -21.8 -51.0 -20.5 -53.1 -19.65 Q-55.5 -18.75 -57.45 -17.45 M-81.2 22.55 Q-82.75 24.4 -84.85 26.35 L-85.3 26.75 Q-87.25 25.15 -89.65 23.85 -90.75 23.25 -91.5 23.0 L-86.85 18.65 -85.4 19.2 Q-83.1 19.9 -82.0 21.55 L-81.2 22.55 M-95.5 59.9 Q-94.35 58.7 -94.3 57.6 L-93.0 56.65 Q-90.0 59.6 -86.65 60.65 L-87.6 60.85 -87.7 60.75 -88.0 60.7 -92.05 61.8 -92.4 61.6 Q-94.0 60.55 -95.55 60.25 L-95.5 59.9" fill="#332e28" fill-rule="evenodd" stroke="none"/>
    <path d="M25.35 -62.95 L25.25 -63.25 25.7 -63.4 26.75 -63.7 26.75 -63.65 25.8 -63.15 25.35 -62.95 M-12.45 33.7 L-12.5 33.65 -12.5 33.45 -12.45 33.7 M55.1 46.95 L55.15 46.55 55.75 46.6 55.1 46.95 M57.3 38.0 L57.3 37.85 57.45 37.85 57.3 38.0 M119.0 -17.25 L119.1 -17.15 119.65 -16.55 119.35 -16.85 119.15 -17.05 119.0 -17.25 M127.95 25.25 L127.95 25.2 128.1 25.2 127.95 25.25 M81.85 16.25 L83.35 17.75 Q84.15 18.6 83.65 19.25 L84.3 19.4 84.25 19.5 Q83.95 20.0 83.95 20.85 83.95 24.1 85.5 25.55 L86.55 26.45 Q87.6 27.1 89.0 27.65 L87.25 28.0 Q86.1 28.4 84.9 29.15 83.0 30.3 82.0 31.5 L81.95 30.8 81.8 28.75 81.5 26.45 81.1 23.45 Q80.45 19.1 80.45 16.15 L80.45 14.45 81.85 16.25 M47.25 13.05 L47.2 13.55 46.8 13.1 47.1 13.0 47.25 13.05 M-47.15 -29.95 L-47.5 -28.55 Q-47.85 -26.6 -48.65 -25.65 L-47.75 -28.75 -47.7 -28.9 -47.25 -29.75 -47.15 -29.95 M-32.1 -39.0 L-30.4 -40.7 -32.05 -38.95 -32.1 -39.0 M-76.6 13.7 L-76.45 13.25 -76.3 13.7 -76.6 13.7 M-29.15 -12.75 L-29.0 -12.5 Q-28.6 -11.0 -29.85 -8.9 L-30.35 -8.0 -31.1 -7.75 -32.35 -8.8 -32.2 -9.15 -32.3 -9.35 -31.0 -10.8 -29.15 -12.75 M-2.3 48.3 L-2.1 48.2 -2.05 48.25 -2.3 48.3 M-99.9 32.75 L-100.1 33.15 -100.6 32.35 -99.9 32.75 M-72.25 52.1 L-71.95 50.25 -70.85 51.15 -72.25 52.1 M-23.7 56.85 L-23.9 56.95 Q-24.15 56.85 -24.55 56.65 L-23.8 56.7 -23.7 56.85 M-107.2 38.85 L-107.0 38.85 -107.0 39.15 -107.2 38.85 M-96.5 52.25 L-94.6 54.8 -95.0 55.0 Q-95.55 53.8 -96.6 52.25 L-96.6 52.2 -96.55 52.15 -96.6 52.25 -96.5 52.25" fill="#242939" fill-rule="evenodd" stroke="none"/>
    <path d="M-23.8 3.05 L-24.05 3.7 Q-24.7 4.6 -27.2 5.35 L-27.45 5.4 -27.95 5.55 -28.1 5.5 -28.85 5.5 -29.05 5.75 -32.95 5.6 Q-33.6 5.15 -34.05 3.35 L-34.4 2.2 -34.2 1.95 -34.15 1.05 -34.55 0.45 Q-33.7 -1.0 -33.8 -1.5 L-33.9 -1.85 -32.35 -2.85 -28.6 -3.2 -28.05 -3.15 -26.45 -2.75 -26.05 -2.65 -24.95 -1.4 -24.25 -0.55 -24.05 0.2 -23.75 1.6 -24.2 1.75 -23.8 3.05 M-68.4 39.1 L-68.2 39.2 -67.4 39.15 Q-66.15 39.35 -65.0 40.15 -63.2 41.45 -62.7 43.4 L-62.55 45.85 Q-62.85 48.55 -65.35 49.2 -68.65 50.1 -70.1 48.45 -70.85 47.7 -71.4 45.65 -73.1 39.15 -68.5 39.05 L-68.4 39.1" fill="#60606c" fill-rule="evenodd" stroke="none"/>
    <path d="M-59.6 11.55 L-59.45 11.7 Q-58.0 13.2 -58.0 13.6 -58.0 14.85 -58.25 14.3 L-60.35 12.25 -63.5 15.5 -63.8 15.05 Q-63.3 13.9 -61.0 11.45 L-61.1 11.35 -64.0 8.0 Q-62.6 6.8 -62.0 7.8 L-61.25 9.8 -60.35 10.75 Q-58.1 8.3 -57.75 7.55 L-57.05 7.55 Q-56.8 8.65 -59.6 11.55" fill="#ffffff" fill-rule="evenodd" stroke="none"/>
    <path d="M-74.75 44.6 Q-74.4 45.3 -74.1 47.2 L-74.35 52.1 Q-75.6 57.1 -80.7 58.45 -87.3 60.25 -92.25 54.65 -92.45 53.95 -92.6 53.95 L-92.75 54.0 -93.8 52.7 Q-97.2 47.8 -101.75 34.85 -99.85 35.8 -96.95 39.3 -93.75 42.2 -88.6 41.95 -86.8 41.8 -82.9 40.2 -81.05 39.45 -77.55 41.85 -75.25 43.55 -74.75 44.6 M-124.45 36.8 L-122.6 45.0 Q-120.05 52.15 -115.75 51.0 L-114.7 50.7 -114.4 52.65 -112.85 60.9 -112.3 62.85 -112.35 62.85 -112.0 64.0 -111.9 64.05 Q-111.35 65.15 -110.5 65.7 L-109.85 65.05 -109.95 64.65 -108.05 64.65 -109.35 66.0 Q-111.75 68.4 -114.05 69.0 -114.95 69.25 -118.25 66.9 -121.35 64.8 -121.8 64.05 -122.7 62.6 -123.55 59.85 L-124.4 56.5 Q-126.35 49.05 -126.6 47.05 -127.3 41.1 -124.45 36.8" fill="#baae96" fill-rule="evenodd" stroke="none"/>
    <path d="M25.3 -35.2 L25.4 -35.2 Q25.65 -33.25 26.8 -29.7 L19.8 -29.45 Q9.4 -28.65 -5.4 -24.05 L-14.0 -21.1 -13.65 -25.1 Q-12.85 -26.15 -12.55 -27.9 L-12.45 -30.85 Q-8.85 -32.8 -2.55 -34.3 3.05 -35.65 8.7 -36.05 L8.95 -36.0 9.75 -36.15 13.55 -36.25 Q17.65 -36.25 22.8 -34.95 L23.3 -35.45 23.9 -35.35 25.3 -35.2 M12.95 -38.65 L11.4 -42.9 15.65 -42.75 17.45 -39.8 18.65 -38.2 12.95 -38.65 M84.2 -26.5 L84.45 -26.5 85.25 -26.85 96.0 -19.65 Q97.25 -18.0 99.2 -18.0 L101.6 -18.2 Q101.8 -16.95 102.85 -15.15 104.55 -12.4 105.05 -10.7 L106.8 -2.45 108.8 5.8 Q109.0 6.95 108.85 10.0 L108.9 11.05 107.4 11.65 Q106.5 11.65 105.95 12.05 L105.95 12.25 105.45 12.4 104.65 12.7 Q103.3 12.4 102.85 12.7 102.6 12.85 102.5 13.35 L97.45 14.5 97.2 13.4 96.45 13.0 Q95.85 13.4 95.45 14.75 L90.9 15.0 86.8 11.55 Q83.65 8.9 82.15 8.3 L82.45 7.3 83.3 1.1 Q87.3 3.5 88.7 3.5 90.1 3.5 90.45 2.5 L90.1 1.75 Q88.0 1.65 84.55 -0.4 86.95 -2.85 86.95 -3.5 L86.7 -4.35 85.95 -4.5 83.5 -2.75 83.85 -12.0 88.1 -12.0 88.35 -12.3 88.45 -13.0 88.3 -13.85 88.1 -14.0 83.9 -14.2 83.95 -19.0 90.1 -19.0 90.35 -19.3 90.45 -20.0 90.3 -20.85 90.1 -21.0 83.95 -21.05 83.95 -21.5 Q84.25 -24.05 84.2 -26.5 M-57.45 -17.45 Q-55.5 -18.75 -53.1 -19.65 L-51.0 -20.5 -39.25 -10.95 -35.25 -7.9 -35.1 -7.55 -34.85 -7.6 -31.3 -5.05 Q-34.05 -4.65 -35.4 -2.65 L-35.9 -1.55 -39.6 -5.25 Q-43.25 -8.55 -47.45 -10.95 -52.5 -14.4 -55.2 -16.1 L-57.45 -17.45 M-14.1 -39.85 L-13.8 -40.0 Q-12.9 -39.5 -12.3 -39.5 L-11.35 -39.65 -7.85 -36.55 -6.35 -35.2 -10.0 -34.3 -12.6 -33.4 -13.2 -35.85 -13.25 -36.55 -14.1 -39.85 M-36.2 2.85 L-35.95 3.9 -35.75 5.0 Q-35.55 6.1 -34.9 6.85 -33.55 8.25 -30.9 8.2 -39.55 19.35 -44.35 24.65 L-53.65 34.4 Q-59.45 39.75 -60.95 42.3 -61.55 40.55 -63.0 39.05 -63.35 38.7 -64.3 38.3 L-64.7 38.15 -64.75 37.65 -65.45 37.0 -58.55 29.05 -51.0 20.2 -39.7 7.3 -36.2 2.85 M-81.2 22.55 L-79.4 24.4 -76.5 27.35 Q-74.3 29.9 -72.0 33.6 -71.45 34.6 -69.3 36.5 L-70.15 36.75 -72.65 39.0 -72.85 38.3 Q-75.45 36.5 -78.35 33.55 L-83.2 28.65 -85.3 26.75 -84.85 26.35 Q-82.75 24.4 -81.2 22.55" fill="#161412" fill-rule="evenodd" stroke="none"/>
    <path d="M110.65 -25.65 L111.1 -26.75 112.15 -30.05 113.6 -28.85 115.4 -27.05 Q118.85 -22.9 121.45 -18.15 L123.55 -13.75 125.4 -8.75 126.35 -5.4 126.45 -5.1 126.95 -2.95 Q128.25 3.1 128.7 10.55 L128.15 10.6 Q127.05 3.5 124.65 -3.55 L124.6 -3.65 123.75 -7.0 123.7 -7.3 123.55 -8.3 Q119.15 -15.85 119.15 -16.65 L119.35 -16.85 119.65 -16.55 119.1 -17.15 119.0 -17.25 116.9 -19.6 112.8 -23.9 110.65 -25.65 M-47.15 -29.95 L-46.9 -30.35 -46.4 -31.05 -43.1 -34.2 -42.95 -34.25 -42.8 -34.4 -41.55 -35.2 -41.4 -35.3 -41.1 -35.5 -40.95 -35.6 -40.8 -35.7 -40.65 -35.75 -40.45 -35.85 -38.4 -36.95 Q-33.65 -39.15 -28.7 -44.15 L-28.4 -44.0 -28.9 -43.15 -30.1 -41.0 -30.2 -40.95 -30.2 -40.85 -30.4 -40.7 -32.1 -39.0 -35.9 -35.05 -36.05 -34.85 -40.0 -30.05 Q-42.25 -27.2 -42.65 -26.0 -42.8 -24.25 -43.25 -22.65 -44.15 -19.6 -45.75 -18.95 L-46.95 -19.95 -49.95 -22.3 -50.2 -22.45 -49.8 -23.0 -49.75 -23.15 -49.45 -23.65 -49.4 -23.8 -48.75 -25.4 -48.65 -25.65 Q-47.85 -26.6 -47.5 -28.55 L-47.15 -29.95 M-79.65 20.45 L-80.65 19.3 Q-82.75 17.0 -85.0 16.5 -81.6 12.5 -80.7 8.85 -78.85 0.95 -72.85 -7.65 L-72.25 -8.45 Q-69.95 -11.75 -67.9 -14.05 L-67.75 -14.1 -65.85 -15.45 -63.8 -17.0 Q-63.15 -17.35 -62.2 -17.85 L-59.35 -16.05 -62.3 -13.2 Q-66.25 -8.6 -67.9 -7.05 -70.45 -4.4 -72.5 -1.25 -77.7 4.05 -77.1 7.0 -77.7 7.6 -77.5 9.0 L-77.05 11.0 -76.45 13.25 -76.6 13.7 -78.05 17.3 -79.65 20.45 M-87.0 28.25 L-87.15 28.4 -87.9 29.3 -90.75 30.45 Q-93.8 31.75 -95.2 33.1 L-98.05 33.85 -98.2 33.75 -98.5 33.2 -99.65 32.9 -99.9 32.75 -100.6 32.35 -101.95 30.5 Q-98.55 28.5 -93.8 24.85 -91.35 24.8 -87.0 28.25 M-107.2 38.85 L-110.0 35.55 -111.65 33.7 -111.35 33.4 -106.5 32.5 -103.75 31.45 Q-104.1 33.7 -103.3 36.65 L-102.8 38.2 -103.1 38.3 -107.0 38.85 -107.2 38.85" fill="#3a3229" fill-rule="evenodd" stroke="none"/>
    <path d="M18.4 -76.9 L18.45 -76.75 17.05 -74.65 14.05 -73.0 13.1 -72.5 Q7.25 -69.3 5.35 -68.0 L-1.65 -63.35 Q-5.85 -60.5 -7.15 -59.0 L-11.35 -54.45 Q-15.3 -50.5 -16.95 -50.5 -17.5 -50.5 -18.3 -50.8 L-19.65 -51.0 -19.8 -51.25 -19.85 -51.3 Q-16.2 -57.0 -4.75 -64.65 2.4 -69.4 9.65 -73.0 14.0 -75.15 18.4 -76.9 M25.35 -62.95 L8.3 -53.5 Q7.55 -53.5 7.25 -53.95 L7.05 -54.45 Q5.85 -54.75 5.55 -55.2 L6.05 -55.6 6.45 -55.5 Q8.9 -56.5 15.85 -59.85 L17.6 -60.6 25.25 -63.25 25.35 -62.95 M33.05 -51.95 L25.55 -50.0 17.85 -50.0 17.7 -50.15 Q17.55 -50.35 17.55 -51.1 17.55 -52.1 18.8 -53.0 L19.5 -52.75 Q22.3 -52.15 34.45 -52.95 L33.3 -52.0 33.05 -51.95 M-39.0 -50.1 L-39.35 -48.95 -44.8 -42.4 -45.5 -41.55 -49.9 -34.75 -50.6 -33.65 Q-53.95 -28.7 -54.75 -28.45 -55.75 -28.2 -56.5 -29.1 L-56.65 -29.35 -55.65 -31.1 -54.05 -34.2 -53.6 -35.0 -51.2 -39.45 Q-48.1 -42.3 -45.75 -44.5 -39.1 -50.75 -38.2 -51.8 L-39.0 -50.1 M-15.05 -73.75 L-15.3 -73.0 -17.0 -68.9 -17.1 -68.7 -20.0 -64.35 -28.05 -52.05 -28.15 -52.15 -28.4 -52.3 -30.95 -52.3 Q-33.95 -51.05 -36.95 -49.45 -34.2 -53.5 -30.85 -57.6 -24.25 -65.6 -16.2 -73.0 L-15.2 -73.9 -15.05 -73.75 M-60.05 -46.65 L-60.05 -46.35 -59.95 -43.9 -59.9 -42.9 -59.9 -42.85 -60.65 -40.65 -62.2 -35.35 -62.75 -33.55 -63.7 -27.2 -64.25 -24.65 Q-65.1 -21.55 -66.5 -21.15 L-67.75 -21.1 -68.15 -21.55 -68.35 -22.25 -67.85 -22.85 -67.55 -23.15 -67.85 -23.95 Q-68.3 -25.25 -68.35 -26.85 -68.4 -30.15 -66.65 -34.5 L-63.3 -41.4 -60.25 -46.75 -60.05 -46.65 M-74.5 -34.6 L-74.25 -34.6 Q-73.3 -32.5 -72.65 -28.0 L-72.6 -27.8 -71.85 -25.85 -71.5 -25.25 -71.1 -23.2 -70.95 -22.25 -69.25 -15.45 -69.5 -14.8 -69.4 -14.5 Q-70.75 -13.5 -72.2 -11.5 -74.15 -18.25 -74.75 -22.3 L-74.8 -22.5 Q-75.65 -28.55 -74.5 -34.6" fill="#1d1c16" fill-rule="evenodd" stroke="none"/>
    <path d="M-16.05 -39.6 L-15.75 -37.45 -15.45 -35.4 -15.5 -35.35 Q-21.4 -34.25 -22.6 -31.85 -23.05 -30.9 -22.45 -28.7 L-21.7 -26.5 -21.35 -25.95 Q-20.65 -25.2 -19.2 -25.0 L-16.05 -25.1 Q-16.45 -23.9 -16.6 -20.6 L-16.65 -20.0 -17.1 -15.0 Q-18.15 -9.45 -22.25 -7.2 -23.45 -6.55 -24.85 -6.2 L-27.05 -6.25 -28.2 -7.1 Q-27.15 -8.35 -26.85 -9.5 -26.45 -10.8 -27.0 -12.8 -28.05 -16.85 -31.2 -14.0 -33.5 -11.95 -33.9 -10.65 L-34.45 -11.65 Q-35.8 -16.75 -34.0 -24.95 L-33.2 -28.25 -31.8 -33.15 -30.75 -36.55 -30.2 -38.15 -30.2 -38.2 -26.35 -43.4 -21.85 -49.8 Q-21.0 -47.35 -19.65 -45.3 L-17.75 -42.6 -17.3 -42.05 -17.15 -41.85 Q-16.45 -41.1 -16.05 -39.6 M-114.9 35.15 L-113.6 34.9 -113.2 34.8 -110.5 38.5 -105.6 45.2 -103.05 47.95 Q-101.15 49.75 -100.55 50.85 L-98.55 53.7 -96.45 57.05 Q-97.3 58.95 -100.1 60.25 L-102.0 61.0 -103.75 61.5 Q-108.1 62.7 -109.0 62.35 L-110.55 62.15 -113.25 48.55 Q-114.75 42.95 -115.15 40.1 -115.55 37.45 -114.9 35.15 M-101.15 56.2 Q-100.85 55.55 -101.2 54.15 -102.05 51.15 -103.65 51.15 -104.6 50.35 -105.7 50.7 L-105.35 52.15 -104.7 53.5 -104.35 53.95 -103.95 55.5 Q-103.3 57.0 -101.85 56.6 -100.65 56.3 -101.15 56.2 M-110.95 54.4 L-109.85 58.5 -108.6 58.45 Q-107.4 58.1 -107.9 57.95 L-107.75 56.95 -108.05 55.7 Q-108.45 54.25 -108.8 53.55 L-109.1 53.6 -109.55 52.65 Q-109.7 52.45 -110.5 52.2 L-111.05 52.9 Q-111.2 53.55 -110.95 54.4" fill="#82625e" fill-rule="evenodd" stroke="none"/>
    <path d="M68.7 -31.8 L66.45 -31.75 65.95 -33.2 Q65.45 -34.25 65.45 -35.15 L66.85 -39.25 Q69.3 -43.25 74.8 -43.25 78.7 -43.25 79.7 -41.6 L80.1 -41.0 78.8 -40.05 Q77.45 -38.7 77.45 -36.7 L77.55 -35.8 Q76.1 -35.4 74.35 -34.25 L73.55 -33.4 72.85 -32.75 70.05 -32.45 69.45 -32.45 Q68.15 -32.25 68.7 -32.1 L68.7 -31.8 M93.85 -24.8 Q91.85 -26.0 89.95 -26.5 L85.7 -29.35 85.35 -29.55 Q85.75 -32.6 88.35 -35.9 92.0 -40.55 96.85 -41.95 94.4 -40.0 93.75 -37.3 93.45 -36.0 93.45 -32.0 L93.95 -25.0 93.85 -24.8 M88.35 -40.5 L88.35 -40.3 Q83.85 -37.4 83.1 -32.7 82.25 -34.8 80.8 -35.55 L81.35 -37.75 Q81.6 -38.45 83.3 -39.65 L83.95 -40.1 88.35 -40.5 M84.95 45.0 L81.6 47.15 79.9 48.45 79.45 49.0 79.45 48.35 Q79.25 47.0 78.45 46.5 L77.6 47.3 75.8 48.65 73.6 50.15 Q71.45 51.6 71.45 53.75 71.45 54.75 72.35 56.3 L73.95 59.0 Q72.5 59.85 70.5 61.9 L68.45 64.0 68.1 62.9 Q67.75 62.25 66.95 62.0 65.85 62.55 65.05 63.4 L59.15 61.8 58.45 61.6 58.45 61.0 Q58.5 59.55 57.95 58.2 56.9 55.5 53.95 55.5 51.7 55.5 50.95 56.05 50.45 56.45 50.45 57.5 L51.05 59.15 Q48.6 57.7 48.6 55.8 48.6 52.75 52.55 50.75 L57.0 48.6 Q60.2 47.0 60.85 46.0 59.9 45.35 56.55 44.75 L51.15 43.9 51.15 43.8 Q53.9 43.05 57.85 40.35 L60.95 37.95 68.6 37.25 71.0 36.7 71.55 36.5 Q73.8 35.8 73.95 35.0 73.8 34.35 72.95 34.0 L72.9 31.4 72.85 29.95 72.85 27.4 72.95 24.8 73.45 19.55 Q73.45 17.45 73.95 16.0 L74.35 14.75 77.35 14.05 78.25 13.45 78.45 16.05 Q78.45 19.65 79.1 22.55 L79.7 26.5 79.9 28.8 79.95 30.3 Q80.1 35.15 80.75 37.6 81.85 41.55 84.95 45.0 M45.55 18.45 L45.45 24.0 45.35 27.15 45.35 29.75 43.35 29.05 Q42.2 28.65 40.85 27.7 L40.8 26.95 40.95 26.8 40.9 26.35 40.8 23.85 40.7 23.3 40.2 20.3 40.15 19.85 40.55 19.8 40.95 19.7 40.95 19.5 40.1 19.75 Q39.8 17.35 39.8 15.8 L39.8 12.05 Q39.8 11.5 40.1 10.7 41.55 12.25 43.3 12.9 L43.3 12.85 Q43.95 12.8 44.4 13.2 L45.8 13.3 45.85 13.3 Q45.4 13.9 45.3 14.8 L45.3 15.95 45.3 17.05 45.3 18.2 45.3 18.5 45.35 18.45 45.55 18.45" fill="#046193" fill-rule="evenodd" stroke="none"/>
    <path d="M107.35 -45.25 Q109.1 -45.75 110.45 -43.25 110.95 -41.45 110.95 -37.5 L110.65 -33.2 110.2 -30.75 108.95 -27.2 108.85 -26.95 Q107.85 -24.8 106.5 -23.35 L105.1 -22.15 Q102.45 -20.2 98.7 -20.2 98.3 -20.2 97.95 -20.45 L97.95 -20.6 Q97.95 -21.55 96.6 -22.75 96.2 -23.95 95.95 -25.75 95.45 -29.0 95.45 -32.0 95.45 -36.8 95.8 -37.6 96.8 -39.7 102.35 -43.25 103.25 -43.85 105.05 -44.1 106.55 -44.3 107.35 -45.25" fill="#023f60" fill-rule="evenodd" stroke="none"/>
    <path d="M21.95 -37.85 Q21.95 -38.4 20.5 -40.15 L18.95 -41.9 21.95 -41.0 Q23.35 -40.1 24.4 -38.35 L24.5 -38.2 24.45 -37.4 21.95 -37.65 21.95 -37.85 M-12.45 33.7 L-5.25 35.9 -0.15 37.15 Q0.6 36.95 0.85 36.55 L1.05 35.85 Q-5.4 31.7 -9.0 24.5 L-14.0 12.4 Q-15.3 9.45 -16.75 6.8 -16.85 -0.75 -17.3 -6.95 L-17.45 -9.0 -16.8 -10.1 Q-15.25 -12.85 -14.8 -15.6 L-14.45 -17.9 -11.7 -19.1 Q-5.65 -21.7 -2.2 -22.3 L2.1 -23.55 8.55 -25.45 Q16.6 -27.45 23.75 -28.0 L27.25 -28.35 28.6 -24.4 Q32.3 -14.2 32.8 -11.45 33.15 -9.7 34.4 -5.3 35.55 -1.35 35.8 0.85 36.3 4.75 38.35 8.3 L38.5 8.5 Q37.45 9.7 37.35 11.95 37.3 13.9 37.8 15.7 37.8 20.55 37.95 21.85 L38.45 24.45 38.45 24.6 38.5 25.9 37.2 24.75 32.2 19.5 Q27.05 14.65 24.15 14.65 23.4 14.65 22.35 15.0 L21.9 15.15 21.5 15.45 20.7 15.85 21.1 16.45 Q25.65 16.4 29.55 19.65 L34.35 24.8 Q36.35 26.95 38.65 28.5 L40.0 29.3 40.9 29.75 Q42.9 30.75 45.55 31.55 L47.6 32.1 49.1 32.45 49.05 32.55 47.65 33.15 45.95 33.85 43.45 34.8 Q41.45 35.5 41.45 36.1 41.45 36.4 42.6 37.35 L46.5 37.55 48.9 37.65 57.3 37.85 57.3 38.0 Q55.05 40.05 50.45 41.6 46.65 42.9 46.65 43.8 L46.7 44.55 46.75 44.45 47.05 44.75 47.8 44.9 Q49.15 44.9 51.3 45.75 53.4 46.55 54.95 46.55 L55.15 46.55 55.1 46.95 Q50.35 49.45 48.75 50.75 46.55 52.6 46.55 55.0 46.55 57.6 48.45 59.7 49.9 61.3 51.95 61.85 L53.95 62.1 54.15 62.1 55.95 62.75 57.9 63.5 58.05 63.55 61.95 65.05 63.55 65.45 65.95 66.05 67.15 66.35 67.65 66.5 69.8 67.0 74.2 67.6 71.35 70.3 70.9 70.7 Q69.6 70.1 67.15 69.6 L64.15 69.1 59.75 68.8 55.15 68.55 47.45 67.45 44.45 66.9 43.3 66.7 36.8 65.4 33.7 64.8 31.25 64.3 24.65 63.25 20.5 62.3 17.3 61.35 12.5 59.75 12.35 59.7 10.15 58.4 9.9 58.45 Q2.9 55.1 -1.65 51.55 L-2.5 50.85 Q-0.25 51.15 1.15 50.8 2.4 50.45 2.6 50.1 L2.5 49.1 -4.55 42.9 Q-11.8 36.3 -12.4 34.05 L-12.5 33.65 -12.45 33.7 M3.95 -43.7 L4.45 -43.4 Q4.5 -42.05 6.3 -39.05 L7.1 -37.85 -3.6 -35.8 Q-4.1 -37.1 -6.8 -39.05 L-8.9 -40.35 -4.4 -41.75 4.1 -44.45 Q3.8 -44.05 3.95 -43.7 M110.65 -25.65 L112.8 -23.9 116.9 -19.6 119.0 -17.25 119.15 -17.05 119.15 -16.65 Q119.15 -15.85 123.55 -8.3 L123.7 -7.3 123.75 -7.0 124.6 -3.65 124.65 -3.55 Q127.05 3.5 128.15 10.6 128.7 14.2 128.85 17.5 L128.85 17.7 128.85 22.35 128.75 23.8 Q128.6 24.65 128.1 25.2 L127.95 25.2 126.8 13.45 Q125.9 5.8 123.65 -0.05 120.6 -7.85 115.0 -13.5 110.2 -17.6 108.65 -19.3 L107.4 -21.0 Q109.35 -22.8 110.65 -25.65 M124.95 46.95 L125.9 47.55 Q126.75 48.2 128.4 50.35 L129.9 52.0 130.2 53.05 127.6 56.75 Q127.4 57.0 126.85 56.55 125.75 55.55 124.3 54.7 L121.45 53.0 Q119.75 51.95 118.7 51.5 115.6 50.15 112.75 49.7 L105.35 50.05 98.1 50.35 Q92.35 50.15 91.15 50.25 L84.15 49.4 82.35 49.0 Q83.1 48.1 84.2 47.45 L86.8 46.15 Q87.95 45.6 87.95 45.05 L85.85 42.05 Q83.6 39.25 83.2 38.0 L82.5 35.0 83.65 33.8 85.45 31.8 Q86.3 31.0 92.6 28.65 L95.0 29.05 95.6 29.5 96.95 29.25 101.65 29.5 100.65 31.2 Q99.65 32.2 99.1 33.1 98.6 33.8 98.65 34.1 L100.55 35.15 100.85 35.1 Q102.2 34.9 102.7 35.65 L102.7 36.15 102.65 36.15 102.6 37.25 102.3 37.55 102.1 37.5 102.2 38.35 102.15 38.65 Q102.05 39.0 102.7 39.35 108.1 42.5 113.1 42.45 118.1 42.5 120.35 43.75 L122.0 44.9 Q122.1 50.3 123.8 50.3 L124.5 50.05 124.55 49.85 124.95 46.95 M-45.75 -18.95 Q-44.15 -19.6 -43.25 -22.65 -42.8 -24.25 -42.65 -26.0 -42.25 -27.2 -40.0 -30.05 L-36.05 -34.85 -35.9 -35.05 -32.1 -39.0 -32.05 -38.95 Q-33.2 -37.75 -33.0 -37.1 L-33.0 -37.0 -33.95 -35.4 -34.9 -32.65 -36.15 -26.45 -36.4 -24.8 Q-36.75 -23.6 -36.8 -19.45 L-36.85 -18.35 -36.6 -12.4 -38.75 -14.2 -39.95 -15.1 -40.25 -15.3 -45.75 -18.95 M-79.65 20.45 L-78.05 17.3 -76.6 13.7 -76.3 13.7 -76.05 14.5 Q-75.8 14.8 -75.25 14.9 L-74.8 15.6 -74.7 15.95 -74.3 16.25 -73.55 16.75 -70.8 18.85 Q-66.75 20.8 -60.4 19.1 -54.35 17.45 -51.55 11.3 -49.25 6.4 -50.15 3.15 L-50.25 2.65 -50.15 2.55 -50.0 1.85 Q-53.9 -0.45 -56.0 -0.9 -60.75 -2.0 -63.7 1.7 L-67.85 7.15 -71.3 11.95 -74.45 12.8 -75.3 9.45 Q-75.7 8.05 -76.4 7.4 L-76.55 7.3 Q-76.8 7.15 -77.0 7.05 L-77.1 7.0 Q-77.7 4.05 -72.5 -1.25 -70.45 -4.4 -67.9 -7.05 -66.25 -8.6 -62.3 -13.2 L-59.35 -16.05 -58.45 -15.6 -54.35 -13.75 -53.05 -12.4 -51.55 -10.95 -49.55 -9.8 -47.0 -8.3 -41.35 -4.3 Q-38.6 -2.1 -37.2 -0.05 -39.85 2.8 -43.4 7.45 -49.25 15.15 -51.85 17.9 -57.25 23.4 -62.3 29.2 L-67.25 35.4 Q-69.7 33.05 -70.4 31.9 L-72.5 28.7 Q-74.05 26.6 -75.2 25.75 L-79.65 20.45 M-14.5 -32.8 L-14.45 -32.3 -14.45 -31.55 -14.7 -29.45 -14.7 -29.4 -14.95 -27.3 -15.15 -27.3 -17.3 -27.35 -19.9 -27.15 -20.1 -27.55 -20.45 -29.05 -20.85 -30.5 Q-20.25 -31.95 -15.6 -33.2 -14.95 -33.4 -14.7 -33.0 L-14.5 -32.8 M-21.45 3.2 L-19.0 7.25 -16.7 11.75 -15.95 13.4 -11.4 23.5 Q-8.7 29.1 -5.4 32.95 -6.75 33.2 -10.1 31.75 -13.5 30.35 -14.35 30.6 -15.05 30.8 -15.1 30.95 L-15.2 31.15 -14.05 35.5 Q-12.35 38.25 -8.45 42.15 L-2.1 48.15 -2.1 48.2 -2.3 48.3 -7.0 47.0 -11.3 45.45 -12.75 44.9 -20.3 42.05 -21.15 41.75 Q-21.95 41.95 -22.05 42.25 L-22.0 42.5 -20.65 47.6 -16.0 52.75 -13.65 55.35 -20.2 54.25 -22.75 54.05 -25.45 54.0 -27.6 54.0 -32.25 54.25 -48.1 55.2 -57.3 56.1 Q-61.55 56.7 -62.15 58.75 -61.8 59.05 -61.05 59.15 L-61.0 59.1 Q-60.45 60.25 -58.4 61.75 L-55.25 64.05 -65.1 63.3 -70.65 62.8 -71.85 63.2 -72.3 63.5 -71.95 64.7 Q-70.5 65.2 -69.5 66.35 L-67.9 68.2 Q-70.65 68.05 -75.7 66.65 -81.35 65.05 -84.35 64.65 -85.6 64.45 -87.9 63.65 L-87.8 63.2 -80.1 61.15 -79.9 60.75 Q-79.8 60.75 -79.85 60.6 L-77.45 59.65 -77.05 59.4 -76.05 58.7 -75.4 58.1 Q-74.3 57.05 -73.5 55.65 L-72.85 55.6 Q-68.95 53.4 -67.8 51.85 L-64.95 51.4 Q-61.35 50.4 -60.55 47.35 -60.25 46.3 -60.3 44.95 L-60.15 44.9 Q-57.25 41.3 -51.15 34.8 L-42.8 25.85 -33.5 15.8 Q-28.75 10.35 -27.8 7.8 L-27.0 7.55 -26.1 7.3 Q-24.15 6.7 -23.1 5.65 -22.1 4.65 -21.85 3.4 L-21.45 3.2 M-87.0 28.25 L-83.85 31.0 -73.75 40.85 -74.05 41.7 -74.05 42.45 -75.45 41.0 Q-76.05 40.3 -78.9 38.75 -82.1 36.85 -83.2 37.15 -83.8 37.3 -85.0 38.3 L-86.8 39.4 Q-89.7 40.2 -92.5 38.95 -95.7 37.6 -100.1 33.15 L-99.9 32.75 -99.65 32.9 -98.5 33.2 -98.2 33.75 -98.05 33.85 -95.2 33.1 Q-93.8 31.75 -90.75 30.45 L-87.9 29.3 -87.15 28.4 -87.0 28.25 M-107.0 38.85 L-103.1 38.3 -102.8 38.2 Q-100.55 46.1 -96.55 52.15 L-96.6 52.2 -97.7 50.65 -99.75 47.8 Q-100.95 46.2 -102.6 45.0 -103.85 44.1 -105.1 42.25 L-107.0 39.15 -107.0 38.85" fill="#3f362e" fill-rule="evenodd" stroke="none"/>
    <path d="M119.35 -16.85 L119.15 -16.65 119.15 -17.05 119.35 -16.85 M128.15 10.6 L128.7 10.55 128.85 17.5 Q128.7 14.2 128.15 10.6 M128.85 22.35 L128.85 22.8 128.85 22.9 128.85 23.0 128.85 23.3 128.75 23.9 128.75 23.8 128.85 22.35 M22.8 64.2 L24.45 65.8 16.25 64.3 9.45 62.8 2.2 59.0 Q1.4 59.0 1.15 59.3 L0.95 59.8 Q1.25 60.7 2.25 62.4 L3.85 64.75 Q-11.8 62.55 -19.6 59.65 L-19.45 58.95 -20.85 56.9 -20.6 56.9 -12.9 57.1 -12.4 56.95 -11.65 58.05 -10.35 58.0 Q-9.55 57.8 -9.4 57.55 L-9.55 56.3 Q-9.85 55.2 -14.1 51.6 -17.55 48.8 -18.65 46.7 L-17.8 46.4 -17.45 45.75 -17.65 45.55 -10.9 48.5 -6.7 49.9 -5.9 50.55 Q-2.2 53.35 3.35 56.5 L8.2 59.1 Q9.4 59.6 10.05 60.0 L10.4 60.3 Q12.75 60.85 15.4 61.95 L15.65 62.05 16.1 62.2 Q20.65 63.8 22.7 64.15 L22.8 64.2 M-28.4 -44.0 L-28.7 -44.15 -27.55 -45.4 -27.45 -45.3 -28.4 -44.0 M-23.8 3.05 L-24.2 1.75 -23.75 1.6 Q-23.65 2.45 -23.8 3.05 M-21.45 3.2 L-21.85 3.4 -21.75 2.8 -21.45 3.2 M-87.8 63.2 L-87.9 63.65 -88.15 63.55 -87.8 63.2 M-23.9 56.95 L-23.7 56.85 -23.65 56.95 -23.9 56.95" fill="#3e4762" fill-rule="evenodd" stroke="none"/>
  </g>
</svg>
