<?xml version="1.0" encoding="UTF-8" standalone="no"?>
<svg xmlns:ffdec="https://www.free-decompiler.com/flash" xmlns:xlink="http://www.w3.org/1999/xlink" ffdec:objectType="shape" height="120.6px" width="112.5px" xmlns="http://www.w3.org/2000/svg">
  <g transform="matrix(1.0, 0.0, 0.0, 1.0, 72.05, 52.1)">
    <path d="M-23.45 -6.3 L-23.5 -6.35 -23.65 -7.0 Q-24.5 -7.3 -25.35 -7.9 L-28.6 -10.75 Q-33.5 -14.95 -41.35 -14.95 L-44.6 -14.35 -47.75 -13.75 -52.25 -12.45 -53.0 -12.5 -54.7 -12.3 -57.4 -11.45 -57.95 -11.1 -61.65 -10.45 Q-63.75 -11.15 -67.4 -13.75 L-71.05 -16.5 -71.25 -17.05 -72.0 -19.95 -72.05 -22.5 Q-71.5 -22.4 -70.5 -21.5 -69.25 -20.45 -68.3 -20.45 -66.6 -20.45 -57.55 -24.0 -48.45 -27.6 -44.65 -29.8 L-37.8 -33.65 Q-34.3 -35.2 -30.55 -35.2 -23.3 -35.2 -19.3 -31.3 L-16.15 -27.9 Q-15.7 -29.05 -14.5 -30.6 L-12.05 -35.05 Q-10.85 -36.4 -9.5 -38.5 L-8.8 -39.55 Q-7.0 -41.45 -6.5 -42.25 L-5.35 -44.0 -5.1 -44.25 Q-1.1 -47.85 0.95 -50.55 L1.0 -50.65 1.5 -51.25 1.5 -51.35 1.55 -51.4 2.6 -52.1 3.3 -51.9 Q5.0 -51.4 5.8 -50.35 6.2 -49.75 8.05 -48.1 L10.3 -45.85 Q12.7 -42.2 15.1 -39.35 L15.55 -39.55 17.6 -39.7 Q28.65 -38.4 33.1 -36.95 35.7 -36.15 38.0 -33.55 40.45 -30.8 40.45 -28.25 40.45 -25.9 39.3 -22.55 38.7 -20.75 38.0 -19.7 L38.15 -19.65 Q35.75 -15.15 31.55 -12.35 L31.9 -10.4 32.7 -0.25 32.6 0.35 32.95 0.65 32.85 0.8 32.55 1.1 32.45 1.45 32.2 1.75 30.7 1.75 30.7 2.7 30.65 3.75 30.7 4.3 30.6 7.45 31.2 8.0 32.7 9.6 Q33.5 10.55 33.7 11.45 L34.45 15.3 34.7 18.5 Q34.7 22.7 33.5 26.85 32.2 31.45 31.5 35.4 31.95 37.6 32.25 41.75 32.25 43.0 31.25 47.35 L30.7 49.95 Q30.35 51.6 30.35 52.35 L29.55 54.7 28.25 57.5 Q27.75 58.5 26.5 59.1 L23.6 59.75 Q22.85 59.75 22.2 57.9 L21.4 55.6 Q19.75 53.35 19.0 53.4 18.15 53.45 17.3 52.5 L14.0 48.3 13.8 48.0 Q13.5 49.2 12.65 50.0 L12.5 51.05 12.75 52.65 13.0 54.25 Q13.0 58.65 12.8 59.75 12.15 63.15 9.5 64.0 8.45 63.1 8.6 61.8 L9.0 59.55 8.8 59.3 6.65 64.05 4.5 68.3 Q5.0 68.5 3.75 68.5 L2.5 68.25 Q3.15 65.6 1.35 61.65 -0.55 57.7 0.0 55.5 L-0.85 57.95 Q-1.4 59.8 -1.85 60.75 -1.5 61.0 -2.75 61.0 -5.3 61.0 -5.4 57.15 L-5.0 51.05 -5.7 51.35 -6.75 51.5 -8.0 51.25 -8.0 48.55 -6.35 43.95 Q-5.4 41.9 -3.35 41.4 L-3.45 41.25 -3.5 39.1 Q-3.5 36.1 -3.0 35.4 L-2.1 34.75 Q-2.5 33.85 -2.55 32.2 L-2.5 29.8 -2.25 25.95 -1.8 24.9 -2.0 22.4 -2.0 22.25 -2.15 21.75 -2.35 21.75 -3.0 21.75 -3.1 21.8 -3.25 21.85 -4.05 22.3 -4.1 22.4 -4.5 23.3 -4.55 22.9 -6.7 24.85 -9.45 27.45 Q-12.2 29.75 -13.5 30.5 L-14.25 30.0 Q-16.2 29.95 -17.3 26.15 L-17.4 25.6 Q-20.95 28.0 -24.25 28.0 L-27.0 27.75 -27.0 22.45 -28.5 23.5 Q-31.25 25.5 -32.75 25.5 -34.1 25.5 -34.8 24.95 -34.0 21.8 -33.05 20.0 L-31.85 17.2 -31.3 15.85 -31.1 15.6 Q-27.25 11.5 -26.15 9.45 L-25.0 6.85 -23.7 4.2 Q-23.5 3.9 -23.4 1.15 L-23.2 0.4 -23.2 0.35 Q-23.2 -0.15 -22.7 -0.3 L-23.15 -2.35 -23.15 -3.25 Q-22.7 -0.85 -21.5 0.5 -20.75 0.0 -20.5 0.0 L-20.5 -0.65 -17.4 -0.8 -15.2 -0.8 -13.1 -0.95 -13.05 -0.95 -9.3 -1.0 -4.15 -1.05 -3.95 -0.9 -3.85 -0.65 -3.4 -0.7 Q2.8 -0.9 28.0 -0.3 L28.05 -0.3 30.1 -0.25 30.25 -0.25 30.25 -0.55 30.3 -3.65 30.2 -6.45 30.0 -6.45 27.45 -6.45 12.5 -6.5 2.95 -6.65 -3.15 -6.85 -6.0 -7.1 Q-5.9 -7.2 -5.95 -7.9 -5.6 -8.6 -3.6 -8.75 L-1.65 -8.75 20.5 -8.8 20.75 -8.8 20.75 -9.0 22.9 -9.0 22.95 -8.75 23.4 -8.75 26.45 -8.7 26.9 -8.7 30.0 -8.55 29.8 -9.85 29.5 -11.3 29.35 -11.75 28.4 -14.35 28.7 -14.35 28.6 -14.5 25.75 -18.75 25.75 -18.8 26.0 -19.35 25.5 -20.1 23.65 -22.8 23.9 -22.6 24.75 -22.0 25.25 -22.0 Q25.6 -22.1 25.75 -22.3 L26.0 -22.8 26.15 -22.6 26.25 -22.45 26.4 -22.25 28.75 -18.35 29.25 -17.45 29.4 -17.15 30.8 -14.15 30.85 -14.15 33.2 -17.3 34.0 -18.35 34.35 -18.25 35.2 -19.25 34.85 -19.75 34.85 -19.8 34.75 -20.05 Q35.1 -19.85 35.5 -19.8 L36.35 -20.65 35.75 -21.1 35.85 -21.25 35.95 -21.15 Q37.05 -22.15 37.85 -24.5 38.35 -26.05 38.35 -28.35 38.35 -29.6 37.5 -30.8 L35.5 -32.9 Q34.0 -34.35 29.6 -35.5 L22.7 -36.6 17.45 -37.2 16.85 -37.3 16.55 -37.35 16.8 -36.8 17.3 -36.05 18.2 -34.9 18.85 -34.25 19.05 -33.85 19.25 -33.4 21.45 -30.3 22.75 -28.7 22.75 -28.65 Q22.75 -28.15 23.25 -27.5 L23.7 -27.05 24.0 -26.25 Q24.4 -25.55 24.9 -25.3 L24.75 -25.0 24.7 -24.9 24.65 -24.85 24.0 -24.55 23.5 -24.5 Q22.95 -24.5 21.75 -25.55 L16.6 -32.95 14.2 -36.3 10.95 -40.55 Q7.15 -45.3 4.95 -46.85 3.95 -47.55 3.35 -47.6 L2.35 -47.4 2.2 -47.55 2.0 -47.2 Q0.6 -46.3 -1.7 -43.45 L-3.4 -41.25 -9.35 -32.8 -9.45 -32.75 -10.5 -31.5 -13.25 -28.0 -14.2 -26.65 -14.25 -26.55 -14.4 -26.35 -13.95 -25.95 -13.55 -25.7 -11.75 -24.6 -11.65 -23.75 -11.45 -23.35 Q-11.4 -23.0 -12.3 -23.0 -13.2 -23.0 -14.3 -23.65 L-15.5 -24.55 -19.15 -28.0 Q-22.35 -30.95 -25.4 -32.15 L-26.55 -32.55 -26.85 -32.65 -29.55 -33.0 Q-33.6 -33.0 -36.5 -31.65 L-44.55 -27.25 Q-46.65 -26.15 -49.25 -25.0 L-50.15 -24.6 -57.95 -21.45 -58.45 -21.3 -61.75 -20.1 Q-66.5 -18.5 -67.9 -18.4 L-68.05 -18.4 Q-69.2 -18.4 -70.9 -19.3 L-70.15 -17.95 Q-68.65 -15.3 -66.25 -15.0 -65.6 -14.5 -64.75 -13.95 -62.4 -12.5 -61.25 -12.5 L-57.85 -12.8 Q-57.05 -13.0 -56.5 -13.3 L-52.5 -14.45 -48.15 -15.55 -47.5 -15.7 -41.85 -17.15 Q-35.8 -18.1 -29.4 -14.25 -23.85 -10.15 -21.4 -8.8 L-21.25 -8.7 -20.9 -8.55 Q-20.65 -9.4 -20.65 -8.0 L-20.65 -7.85 -19.75 -7.75 -19.45 -7.4 -18.45 -7.35 -17.95 -7.6 -17.6 -7.6 Q-14.95 -7.6 -13.65 -9.45 L-13.45 -9.75 -12.95 -9.75 -12.05 -9.65 -11.95 -9.4 -11.65 -9.05 Q-12.8 -7.9 -13.6 -7.5 L-14.65 -7.2 -14.8 -6.6 Q-15.9 -5.4 -20.05 -5.4 L-20.1 -5.4 -21.2 -5.5 -21.8 -5.65 -23.35 -6.15 -23.45 -6.3 M4.5 9.35 Q4.5 7.15 6.25 4.75 L6.85 4.05 5.8 3.0 4.8 1.45 -0.45 1.35 -0.6 1.8 -0.65 1.85 -0.35 5.9 -0.35 6.95 0.0 6.6 0.5 6.5 3.5 8.9 4.2 9.65 4.25 9.65 4.5 10.0 4.5 9.35 M-6.45 1.15 L-6.4 1.0 -6.55 1.0 -9.7 1.1 -13.25 1.3 -13.3 1.55 -13.5 3.25 Q-13.5 4.35 -11.3 7.25 L-9.3 9.95 -7.4 8.15 Q-6.75 7.65 -6.15 7.55 L-5.5 6.35 -5.45 5.85 -5.4 5.4 -5.4 4.95 -5.4 4.8 -5.5 3.55 Q-5.75 2.2 -6.45 1.15 M-5.75 10.25 L-5.75 10.2 -5.8 10.25 -6.35 10.7 -6.8 11.15 -8.5 13.0 -9.35 12.85 Q-9.65 12.6 -10.05 12.5 L-10.25 12.35 -11.5 15.25 -11.2 15.6 -10.3 17.25 -8.2 19.4 -7.0 20.75 -6.8 20.45 -6.0 19.5 -5.25 18.8 -5.25 18.5 -5.3 17.5 -5.35 16.7 -5.25 15.25 Q-5.25 14.0 -5.5 13.4 L-5.75 10.25 M5.0 13.5 Q4.1 12.45 1.25 10.5 0.0 9.65 -0.35 8.55 L-0.35 11.1 -0.3 14.6 Q1.2 14.85 2.65 16.3 L3.5 17.25 4.65 18.8 Q5.0 16.65 6.1 15.15 L6.0 14.15 6.05 13.75 5.4 13.25 5.0 13.5 M-18.15 1.45 L-18.2 1.45 -21.2 1.45 -21.2 2.55 -21.35 4.0 -21.5 4.7 -22.1 6.6 -21.35 8.25 -20.7 9.65 -19.75 8.5 -18.35 6.8 -17.85 6.45 Q-17.25 5.95 -17.25 5.3 L-17.25 5.15 -16.95 4.5 -16.4 3.1 Q-16.0 2.0 -15.5 1.45 L-18.15 1.45 M-18.6 11.3 L-17.6 14.85 Q-17.05 16.85 -15.8 18.65 L-14.6 16.35 -13.5 14.45 -13.5 14.3 -13.4 14.3 -13.05 13.55 -12.4 10.75 -12.3 10.5 -14.05 7.3 -14.8 5.15 -16.0 7.55 Q-17.35 10.2 -18.6 11.3 M-20.25 12.5 Q-22.15 12.5 -22.8 11.2 L-23.45 9.45 -24.6 11.5 -24.85 11.9 -25.55 13.0 -25.65 13.15 -26.0 13.65 -26.05 13.75 Q-25.95 14.45 -26.0 15.4 -26.1 18.1 -24.8 18.55 -24.1 17.15 -22.05 15.5 L-21.0 14.65 -21.0 14.7 -19.75 13.9 -20.0 12.6 -20.0 12.5 -20.25 12.5 M-19.1 16.75 L-19.9 17.3 -20.5 17.5 -23.1 19.55 -24.9 20.95 -24.9 21.85 -25.0 25.75 -25.0 25.8 -24.95 25.8 Q-20.4 24.9 -18.5 23.3 L-17.9 22.8 -18.0 22.15 -17.8 20.7 -17.6 20.0 -17.6 19.95 -17.7 19.8 -17.9 19.45 -19.0 16.9 -19.05 16.7 -19.1 16.75 M-15.8 21.15 L-15.55 24.05 -13.85 27.4 Q-12.8 25.9 -9.7 23.55 L-8.5 22.7 Q-9.85 21.9 -11.45 19.25 L-12.6 17.2 -14.3 20.75 -15.0 21.0 -15.1 20.85 -15.8 21.0 -15.8 21.15 M0.15 17.95 L-0.15 17.6 -0.05 18.15 Q-0.45 18.8 -0.5 19.65 -0.15 20.3 -0.2 21.2 L-0.1 21.35 -0.2 21.45 -0.25 21.7 Q-0.5 23.7 0.0 24.5 L0.05 24.5 0.3 24.65 0.45 24.95 3.05 26.5 4.55 27.45 4.6 26.15 4.9 25.4 Q4.2 25.05 4.0 24.0 L4.0 22.35 4.05 21.65 1.5 19.4 0.15 17.95 M-30.85 19.25 L-31.0 19.45 -32.25 21.25 -32.6 23.15 -30.4 21.9 Q-28.2 20.5 -27.25 20.5 L-27.0 20.6 -27.0 20.4 -27.25 20.1 Q-27.8 19.5 -28.0 18.45 L-28.0 15.95 -30.25 18.45 -30.85 19.25 M-0.5 27.75 L-0.5 29.75 Q-0.5 32.2 1.05 34.3 L1.35 34.45 2.0 34.5 4.5 35.05 4.5 34.8 4.75 34.35 4.6 33.95 4.5 32.25 4.65 32.2 4.55 31.75 4.5 30.0 4.25 30.0 Q3.9 30.0 1.45 28.45 L-0.25 27.35 -0.3 27.3 -0.5 27.75 M9.55 38.0 L0.1 36.95 Q-1.5 37.15 -1.5 39.15 L-1.35 40.75 Q-0.9 41.25 1.9 41.25 L6.25 40.85 10.0 40.25 10.0 38.85 9.7 38.6 9.5 38.45 9.8 38.05 9.55 38.0 M-5.2 48.4 L-4.0 48.0 -1.85 48.0 -1.65 48.2 Q-1.5 48.35 -1.5 49.1 -1.5 49.5 -2.1 50.55 L-3.0 52.0 -3.0 56.5 -1.85 53.95 Q-0.6 51.5 0.75 51.5 L1.8 51.75 Q2.1 53.7 1.75 57.4 1.8 60.7 4.25 63.0 4.9 62.15 6.4 58.65 7.65 55.9 9.0 55.0 9.6 55.2 10.0 55.9 L10.8 57.0 10.75 54.2 10.5 51.75 10.6 49.25 Q10.75 48.5 11.25 48.05 L11.5 47.1 12.0 44.9 11.9 43.45 Q11.7 43.1 10.95 42.75 L2.0 43.5 Q-0.45 43.5 -1.85 42.85 L-2.75 43.7 Q-4.35 45.1 -5.35 48.25 L-5.5 48.5 -5.2 48.4 M21.55 2.95 L21.35 2.7 Q18.2 1.85 18.2 4.05 18.2 4.8 18.35 4.95 L18.45 5.2 19.95 5.45 Q21.7 5.45 21.7 3.95 L21.55 2.95 M27.6 19.1 Q27.95 16.0 28.7 14.95 29.5 15.55 29.65 16.45 L29.7 17.95 Q29.7 21.85 27.6 25.55 28.25 25.8 29.05 27.05 L30.1 28.95 31.7 23.7 Q32.7 20.6 32.7 18.45 32.45 15.2 31.5 12.7 30.2 9.2 28.15 9.25 24.1 11.4 21.5 14.9 18.7 18.7 18.7 22.25 18.7 23.05 19.45 27.3 L20.2 31.95 26.6 23.2 Q27.25 22.25 27.6 19.1 M15.65 3.4 L15.65 3.5 16.1 3.45 15.65 3.4 M11.8 2.5 L11.15 1.85 9.0 4.7 Q6.5 7.7 6.5 9.25 L6.9 11.15 7.2 12.0 7.5 13.0 7.5 13.05 7.65 13.35 8.85 12.0 12.1 8.1 12.0 6.35 11.8 2.5 M15.25 11.1 L15.25 11.4 15.25 12.75 Q15.15 15.75 14.75 17.3 L14.15 19.6 16.7 20.0 16.75 18.35 Q16.95 17.6 19.2 13.7 20.7 11.1 23.0 9.5 18.8 9.9 15.5 10.95 L15.25 11.1 M7.15 1.6 L8.25 2.4 9.0 1.65 8.3 1.6 8.3 1.55 7.0 1.5 7.15 1.6 M10.95 13.5 L10.0 14.65 Q6.5 18.75 6.5 22.3 L6.2 22.55 6.45 23.5 7.0 23.05 9.2 21.65 10.75 20.3 Q11.25 19.45 12.05 19.1 L12.0 16.85 11.8 15.6 12.05 12.55 12.1 12.0 10.95 13.5 M11.1 22.9 L7.75 26.0 Q6.35 27.4 6.35 29.3 L6.35 31.6 8.95 30.5 Q11.9 29.05 11.5 27.3 L11.35 23.15 11.35 22.9 11.35 22.65 11.1 22.9 M23.8 54.45 Q24.0 53.6 25.4 53.0 26.5 53.65 26.6 54.85 L26.9 54.85 27.0 54.0 Q27.0 53.4 27.45 53.2 27.85 53.0 27.85 52.35 27.85 51.75 28.35 50.05 L28.8 47.75 29.45 44.45 Q30.05 41.65 30.05 40.4 L29.85 37.7 Q28.95 36.9 28.8 35.35 L28.45 32.0 27.1 29.0 26.45 27.35 Q22.2 33.8 20.7 37.25 20.35 37.7 19.7 37.95 18.2 36.8 18.05 34.0 L17.7 29.75 Q16.85 27.15 16.75 23.3 L15.95 23.7 16.65 23.25 16.75 23.15 16.75 23.0 16.5 23.0 13.45 22.85 13.5 25.35 Q13.5 29.9 13.05 30.65 L12.85 31.0 12.95 31.55 13.0 33.6 Q13.0 35.8 12.25 37.9 L12.2 37.95 12.25 38.05 12.3 38.45 12.45 39.05 12.5 40.0 12.5 40.45 12.5 40.75 12.5 40.85 12.5 40.9 Q13.35 41.2 13.75 42.3 L14.05 44.2 14.55 44.85 18.0 49.8 18.05 49.9 18.3 49.55 Q18.55 49.15 19.3 49.15 21.75 49.15 23.35 54.55 L23.65 55.75 23.8 54.45 M11.2 32.45 Q9.55 33.65 6.55 35.25 L6.5 35.4 10.65 36.15 10.8 35.15 11.2 32.45" fill="#000000" fill-rule="evenodd" stroke="none"/>
    <path d="M-61.75 -20.1 L-58.45 -21.3 -57.95 -21.45 -50.1 -21.3 -47.6 -21.3 -38.5 -23.6 -31.45 -24.75 -27.95 -25.15 Q-26.85 -25.15 -25.3 -24.55 L-25.3 -24.65 -25.3 -25.0 -24.25 -24.45 -22.3 -23.65 -21.3 -22.45 -17.75 -20.1 Q-12.25 -16.2 -11.1 -14.3 L-11.1 -14.25 -11.3 -13.4 -11.45 -12.9 Q-13.25 -14.75 -16.05 -16.25 L-18.1 -17.25 -18.4 -17.4 -21.15 -19.7 Q-24.65 -22.85 -27.6 -22.85 -30.6 -22.85 -31.15 -22.05 L-31.55 -22.1 -38.7 -21.4 -39.8 -20.95 -48.05 -20.1 -61.5 -20.1 -61.75 -20.1 M-50.15 -24.6 L-49.25 -25.0 -47.75 -24.85 Q-46.45 -24.85 -42.5 -25.8 L-42.65 -26.1 -33.2 -30.5 Q-29.5 -32.0 -26.85 -32.65 L-26.55 -32.55 -25.4 -32.15 -25.05 -32.0 Q-26.9 -31.75 -30.95 -30.2 -35.95 -28.25 -35.95 -27.55 -35.95 -27.4 -41.35 -25.75 L-41.7 -25.85 -41.0 -25.55 Q-42.25 -24.65 -47.3 -23.85 L-51.1 -24.15 -50.15 -24.6 M18.2 -34.9 L17.3 -36.05 16.8 -36.8 16.85 -37.3 17.45 -37.2 Q22.7 -35.05 28.9 -33.35 31.65 -32.55 32.4 -31.35 33.3 -30.0 33.3 -26.05 33.3 -24.25 32.35 -22.95 L29.25 -18.8 28.95 -18.9 Q28.8 -19.0 28.8 -19.85 L30.55 -22.2 Q32.3 -24.55 32.3 -26.05 32.3 -30.15 30.3 -31.7 29.0 -32.75 25.0 -33.4 L20.05 -34.4 22.0 -33.1 Q25.8 -30.65 26.15 -29.2 L26.9 -27.1 27.35 -25.05 Q27.35 -24.2 26.95 -23.25 L26.45 -22.15 26.4 -22.25 26.25 -22.45 26.15 -22.6 26.0 -22.85 26.0 -22.9 25.7 -26.5 Q25.3 -29.45 23.75 -30.85 20.8 -33.45 18.75 -34.65 L18.2 -34.9 M-27.1 -12.6 L-28.95 -13.9 Q-25.0 -14.1 -20.6 -12.65 -14.85 -10.8 -15.3 -8.7 L-15.85 -8.25 Q-18.15 -10.3 -22.2 -11.5 L-27.1 -12.6 M-21.5 -18.7 L-21.45 -18.6 -21.55 -18.65 -21.5 -18.7" fill="#8b7b5a" fill-rule="evenodd" stroke="none"/>
    <path d="M-13.45 -9.75 L-13.65 -9.45 Q-14.95 -7.6 -17.6 -7.6 L-17.95 -7.6 -18.45 -7.35 -19.45 -7.4 -19.75 -7.75 -20.65 -7.85 -20.65 -8.0 Q-20.65 -9.4 -20.9 -8.55 L-21.25 -8.7 -21.2 -9.25 -21.4 -8.8 Q-23.85 -10.15 -29.4 -14.25 -35.8 -18.1 -41.85 -17.15 L-47.5 -15.7 -48.15 -15.55 -52.5 -14.45 -56.5 -13.3 Q-57.05 -13.0 -57.85 -12.8 L-61.25 -12.5 Q-62.4 -12.5 -64.75 -13.95 -65.6 -14.5 -66.25 -15.0 -68.65 -15.3 -70.15 -17.95 L-70.9 -19.3 Q-69.2 -18.4 -68.05 -18.4 L-67.9 -18.4 Q-66.5 -18.5 -61.75 -20.1 L-61.5 -20.1 -48.05 -20.1 -39.8 -20.95 -38.7 -21.4 -31.55 -22.1 -31.15 -22.05 Q-30.6 -22.85 -27.6 -22.85 -24.65 -22.85 -21.15 -19.7 L-18.4 -17.4 -18.1 -17.25 -16.05 -16.25 Q-13.25 -14.75 -11.45 -12.9 L-12.0 -11.6 -13.3 -10.0 -13.45 -9.75 M-57.95 -21.45 L-50.15 -24.6 -51.1 -24.15 -47.3 -23.85 Q-42.25 -24.65 -41.0 -25.55 L-41.7 -25.85 -41.35 -25.75 Q-35.95 -27.4 -35.95 -27.55 -35.95 -28.25 -30.95 -30.2 -26.9 -31.75 -25.05 -32.0 L-25.4 -32.15 Q-22.35 -30.95 -19.15 -28.0 L-15.5 -24.55 -14.3 -23.65 -14.35 -23.25 -13.45 -23.1 -12.25 -20.55 -11.9 -19.75 -11.4 -18.4 Q-11.0 -17.05 -11.0 -15.9 L-11.1 -14.3 Q-12.25 -16.2 -17.75 -20.1 L-21.3 -22.45 -22.3 -23.65 -24.25 -24.45 -25.3 -25.0 -25.3 -24.65 -25.3 -24.55 Q-26.85 -25.15 -27.95 -25.15 L-31.45 -24.75 -38.5 -23.6 -47.6 -21.3 -50.1 -21.3 -57.95 -21.45 M-49.25 -25.0 Q-46.65 -26.15 -44.55 -27.25 L-36.5 -31.65 Q-33.6 -33.0 -29.55 -33.0 L-26.85 -32.65 Q-29.5 -32.0 -33.2 -30.5 L-42.65 -26.1 -42.5 -25.8 Q-46.45 -24.85 -47.75 -24.85 L-49.25 -25.0 M24.75 -25.0 L24.9 -25.3 Q24.4 -25.55 24.0 -26.25 L23.7 -27.05 23.25 -27.5 Q22.75 -28.15 22.75 -28.65 L22.75 -28.7 21.45 -30.3 19.25 -33.4 19.05 -33.85 18.85 -34.25 18.2 -34.9 18.75 -34.65 Q20.8 -33.45 23.75 -30.85 25.3 -29.45 25.7 -26.5 L26.0 -22.9 24.75 -25.0 M17.45 -37.2 L22.7 -36.6 29.6 -35.5 Q34.0 -34.35 35.5 -32.9 L37.5 -30.8 Q38.35 -29.6 38.35 -28.35 38.35 -26.05 37.85 -24.5 37.05 -22.15 35.95 -21.15 L35.85 -21.25 35.75 -21.1 36.35 -20.65 35.5 -19.8 Q35.1 -19.85 34.75 -20.05 L34.85 -19.8 34.85 -19.75 35.2 -19.25 34.35 -18.25 34.0 -18.35 33.2 -17.3 30.85 -14.15 30.8 -14.15 29.4 -17.15 29.5 -17.25 29.25 -17.45 28.75 -18.35 26.4 -22.25 26.45 -22.15 26.95 -23.25 Q27.35 -24.2 27.35 -25.05 L26.9 -27.1 26.15 -29.2 Q25.8 -30.65 22.0 -33.1 L20.05 -34.4 25.0 -33.4 Q29.0 -32.75 30.3 -31.7 32.3 -30.15 32.3 -26.05 32.3 -24.55 30.55 -22.2 L28.8 -19.85 Q28.8 -19.0 28.95 -18.9 L29.25 -18.8 32.35 -22.95 Q33.3 -24.25 33.3 -26.05 33.3 -30.0 32.4 -31.35 31.65 -32.55 28.9 -33.35 22.7 -35.05 17.45 -37.2 M-21.5 -18.7 L-21.55 -18.65 -21.45 -18.6 -21.5 -18.7 M-27.1 -12.6 L-22.2 -11.5 Q-18.15 -10.3 -15.85 -8.25 L-15.3 -8.7 Q-14.85 -10.8 -20.6 -12.65 -25.0 -14.1 -28.95 -13.9 L-27.1 -12.6" fill="#baae96" fill-rule="evenodd" stroke="none"/>
    <path d="M-21.2 -5.5 L-20.1 -5.4 -17.25 -5.1 -13.25 -5.0 Q-6.55 -5.0 -4.5 -6.0 -3.75 -6.35 -3.15 -6.85 L2.95 -6.65 12.5 -6.5 27.45 -6.45 30.0 -6.45 30.2 -6.45 30.3 -3.65 30.25 -0.55 30.1 -0.25 28.05 -0.3 28.0 -0.3 Q2.8 -0.9 -3.4 -0.7 L-3.85 -0.65 -3.95 -0.9 -4.15 -1.05 -9.3 -1.0 -13.05 -0.95 -13.05 -1.3 -13.1 -0.95 -15.2 -0.8 -17.4 -0.8 -20.5 -0.65 -20.5 -2.6 -21.2 -5.5 M-9.0 -15.8 Q-9.0 -19.2 -10.0 -20.85 L-11.2 -23.0 -8.2 -23.2 Q-4.4 -21.95 -3.15 -19.3 -2.5 -17.95 -2.5 -14.6 -2.0 -12.65 -3.1 -10.85 -5.2 -7.5 -12.35 -7.25 -11.15 -8.25 -10.25 -10.4 -9.0 -13.35 -9.0 -15.8 M-5.75 10.25 L-5.8 10.25 -5.75 10.2 -5.75 10.25" fill="#2f2f2f" fill-rule="evenodd" stroke="none"/>
    <path d="M-23.45 -6.3 L-23.35 -6.15 -21.8 -5.65 -21.2 -5.5 -20.5 -2.6 -20.5 -0.65 -20.5 0.0 Q-20.75 0.0 -21.5 0.5 -22.7 -0.85 -23.15 -3.25 L-23.4 -4.6 -23.45 -6.2 -23.6 -6.25 -23.65 -6.25 -23.45 -6.3 M-20.1 -5.4 L-20.05 -5.4 Q-15.9 -5.4 -14.8 -6.6 L-14.65 -7.2 -13.6 -7.5 Q-12.8 -7.9 -11.65 -9.05 L-11.95 -9.4 -12.05 -9.65 -12.95 -9.75 -13.45 -9.75 -13.3 -10.0 -12.0 -11.6 -11.45 -12.9 -11.3 -13.4 -11.1 -14.25 -11.1 -14.3 -11.0 -15.9 Q-11.0 -17.05 -11.4 -18.4 L-11.9 -19.75 -12.25 -20.55 -13.45 -23.1 -14.35 -23.25 -14.3 -23.65 Q-13.2 -23.0 -12.3 -23.0 -11.4 -23.0 -11.45 -23.35 L-11.65 -23.75 -11.75 -24.6 -13.55 -25.7 -12.2 -25.6 -11.0 -25.5 -10.6 -25.55 -8.55 -25.5 -7.65 -25.5 -7.35 -25.5 -7.15 -25.35 -7.0 -25.0 -5.55 -24.8 Q-4.3 -24.5 -3.35 -23.6 -1.9 -22.35 -1.15 -19.9 L-0.5 -14.65 Q-0.5 -12.35 -0.95 -10.6 L-1.65 -8.75 -3.6 -8.75 Q-5.6 -8.6 -5.95 -7.9 -5.9 -7.2 -6.0 -7.1 L-3.15 -6.85 Q-3.75 -6.35 -4.5 -6.0 -6.55 -5.0 -13.25 -5.0 L-17.25 -5.1 -20.1 -5.4 M-13.95 -25.95 L-14.4 -26.35 -14.25 -26.55 -13.7 -26.15 -13.95 -25.95 M21.75 -25.55 Q22.95 -24.5 23.5 -24.5 L24.0 -24.55 24.65 -24.85 24.7 -24.9 24.75 -25.0 26.0 -22.9 26.0 -22.85 26.0 -22.8 25.75 -22.3 Q25.6 -22.1 25.25 -22.0 L24.75 -22.0 23.9 -22.6 23.65 -22.8 21.75 -25.55 M-9.0 -15.8 Q-9.0 -13.35 -10.25 -10.4 -11.15 -8.25 -12.35 -7.25 -5.2 -7.5 -3.1 -10.85 -2.0 -12.65 -2.5 -14.6 -2.5 -17.95 -3.15 -19.3 -4.4 -21.95 -8.2 -23.2 L-11.2 -23.0 -10.0 -20.85 Q-9.0 -19.2 -9.0 -15.8" fill="#11100f" fill-rule="evenodd" stroke="none"/>
    <path d="M-13.55 -25.7 L-13.95 -25.95 -13.7 -26.15 Q-13.05 -25.75 -12.2 -25.6 L-13.55 -25.7 M20.75 -9.0 L20.75 -8.8 20.5 -8.8 20.5 -9.0 20.75 -9.0 M-8.75 -26.2 L-8.3 -26.4 -8.05 -26.15 -8.55 -25.5 -10.6 -25.55 -8.75 -26.2 M4.5 9.35 L4.5 10.0 4.25 9.65 4.5 9.35 M5.4 13.25 L5.15 13.6 5.0 13.5 5.4 13.25 M-0.05 18.15 L-0.15 17.6 0.15 17.95 -0.05 18.15 M7.15 1.6 L7.0 1.5 8.3 1.55 8.3 1.6 9.0 1.65 8.25 2.4 7.15 1.6 M11.8 15.6 L10.95 13.5 12.1 12.0 12.05 12.55 11.8 15.6" fill="#221f1c" fill-rule="evenodd" stroke="none"/>
    <path d="M-8.05 -26.15 L-7.15 -26.05 -7.65 -25.5 -8.55 -25.5 -8.05 -26.15" fill="#332e28" fill-rule="evenodd" stroke="none"/>
    <path d="M30.25 -0.55 L30.25 -0.25 30.1 -0.25 30.25 -0.55" fill="#5b6171" fill-rule="evenodd" stroke="none"/>
    <path d="M21.55 2.95 L21.7 3.95 Q21.7 5.45 19.95 5.45 L18.45 5.2 18.35 4.95 Q18.2 4.8 18.2 4.05 18.2 1.85 21.35 2.7 L21.55 2.95" fill="#ffffff" fill-rule="evenodd" stroke="none"/>
    <path d="M4.2 9.65 L4.5 9.35 4.25 9.65 4.2 9.65 M18.0 49.8 L18.3 49.55 18.0 49.8" fill="#48463c" fill-rule="evenodd" stroke="none"/>
    <path d="M15.25 11.1 L15.5 10.95 Q18.8 9.9 23.0 9.5 20.7 11.1 19.2 13.7 16.95 17.6 16.75 18.35 L16.7 20.0 14.15 19.6 14.75 17.3 Q15.15 15.75 15.25 12.75 L15.25 11.4 15.25 11.1" fill="#cdac98" fill-rule="evenodd" stroke="none"/>
    <path d="M-6.55 1.0 L-6.4 1.0 -6.45 1.15 -6.55 1.0" fill="#332d26" fill-rule="evenodd" stroke="none"/>
    <path d="M-31.0 19.45 L-30.85 19.25 -30.9 19.45 -31.0 19.45" fill="#151515" fill-rule="evenodd" stroke="none"/>
    <path d="M-18.2 1.45 L-18.15 1.45 -18.2 1.55 -18.2 1.45" fill="#4b4238" fill-rule="evenodd" stroke="none"/>
    <path d="M-5.75 10.25 L-5.8 10.25 -5.75 10.25" fill="#746b63" fill-rule="evenodd" stroke="none"/>
    <path d="M23.4 -8.75 L22.95 -8.75 22.9 -9.0 23.25 -9.0 23.4 -8.75" fill="#5a514e" fill-rule="evenodd" stroke="none"/>
    <path d="M-8.6 -26.5 L-8.3 -26.4 -8.75 -26.2 -8.6 -26.5" fill="#3c312f" fill-rule="evenodd" stroke="none"/>
    <path d="M4.2 9.65 L3.5 8.9 0.5 6.5 0.0 6.6 -0.35 6.95 -0.35 5.9 -0.65 1.85 -0.6 1.8 -0.45 1.35 4.8 1.45 5.8 3.0 6.85 4.05 6.25 4.75 Q4.5 7.15 4.5 9.35 L4.2 9.65 M5.4 13.25 L6.05 13.75 6.0 14.15 6.1 15.15 Q5.0 16.65 4.65 18.8 L3.5 17.25 2.65 16.3 Q1.2 14.85 -0.3 14.6 L-0.35 11.1 -0.35 8.55 Q0.0 9.65 1.25 10.5 4.1 12.45 5.0 13.5 L5.15 13.6 5.4 13.25 M0.15 17.95 L1.5 19.4 4.05 21.65 4.0 22.35 4.0 24.0 Q4.2 25.05 4.9 25.4 L4.6 26.15 4.55 27.45 3.05 26.5 0.45 24.95 0.3 24.65 0.05 24.5 0.0 24.5 Q-0.5 23.7 -0.25 21.7 L-0.2 21.45 -0.1 21.35 -0.2 21.2 Q-0.15 20.3 -0.5 19.65 -0.45 18.8 -0.05 18.15 L0.15 17.95 M-0.5 27.75 L-0.25 27.35 1.45 28.45 Q3.9 30.0 4.25 30.0 L4.5 30.0 4.55 31.75 4.65 32.2 4.5 32.25 4.6 33.95 4.75 34.35 4.5 34.8 4.5 35.05 2.0 34.5 1.35 34.45 1.05 34.3 Q-0.5 32.2 -0.5 29.75 L-0.5 27.75 M-5.2 48.4 L-5.35 48.25 Q-4.35 45.1 -2.75 43.7 L-1.85 42.85 Q-0.45 43.5 2.0 43.5 L10.95 42.75 Q11.7 43.1 11.9 43.45 L12.0 44.9 11.5 47.1 11.25 48.05 Q10.75 48.5 10.6 49.25 L10.5 51.75 10.75 54.2 10.8 57.0 10.0 55.9 Q9.6 55.2 9.0 55.0 7.65 55.9 6.4 58.65 4.9 62.15 4.25 63.0 1.8 60.7 1.75 57.4 2.1 53.7 1.8 51.75 L0.75 51.5 Q-0.6 51.5 -1.85 53.95 L-3.0 56.5 -3.0 52.0 -2.1 50.55 Q-1.5 49.5 -1.5 49.1 -1.5 48.35 -1.65 48.2 L-1.85 48.0 -4.0 48.0 -5.2 48.4 M27.6 19.1 Q27.25 22.25 26.6 23.2 L20.2 31.95 19.45 27.3 Q18.7 23.05 18.7 22.25 18.7 18.7 21.5 14.9 24.1 11.4 28.15 9.25 30.2 9.2 31.5 12.7 32.45 15.2 32.7 18.45 32.7 20.6 31.7 23.7 L30.1 28.95 29.05 27.05 Q28.25 25.8 27.6 25.55 29.7 21.85 29.7 17.95 L29.65 16.45 Q29.5 15.55 28.7 14.95 27.95 16.0 27.6 19.1 M11.8 2.5 L12.0 6.35 12.1 8.1 8.85 12.0 7.65 13.35 7.5 13.05 7.5 13.0 7.2 12.0 6.9 11.15 6.5 9.25 Q6.5 7.7 9.0 4.7 L11.15 1.85 11.8 2.5 M11.8 15.6 L12.0 16.85 12.05 19.1 Q11.25 19.45 10.75 20.3 L9.2 21.65 7.0 23.05 6.45 23.5 6.2 22.55 6.5 22.3 Q6.5 18.75 10.0 14.65 L10.95 13.5 11.8 15.6 M11.1 22.9 L11.35 22.9 11.35 23.15 11.5 27.3 Q11.9 29.05 8.95 30.5 L6.35 31.6 6.35 29.3 Q6.35 27.4 7.75 26.0 L11.1 22.9 M16.65 23.25 L15.95 23.7 16.75 23.3 Q16.85 27.15 17.7 29.75 L18.05 34.0 Q18.2 36.8 19.7 37.95 20.35 37.7 20.7 37.25 22.2 33.8 26.45 27.35 L27.1 29.0 28.45 32.0 28.8 35.35 Q28.95 36.9 29.85 37.7 L30.05 40.4 Q30.05 41.65 29.45 44.45 L28.8 47.75 28.35 50.05 Q27.85 51.75 27.85 52.35 27.85 53.0 27.45 53.2 27.0 53.4 27.0 54.0 L26.9 54.85 26.6 54.85 Q26.5 53.65 25.4 53.0 24.0 53.6 23.8 54.45 L23.35 54.55 Q21.75 49.15 19.3 49.15 18.55 49.15 18.3 49.55 L18.0 49.8 14.55 44.85 14.05 44.2 13.75 42.3 Q13.35 41.2 12.5 40.9 L12.5 40.85 12.5 40.75 12.5 40.45 12.5 40.0 12.45 39.05 12.3 38.45 12.25 38.05 12.25 37.9 Q13.0 35.8 13.0 33.6 L12.95 31.55 12.85 31.0 13.05 30.65 Q13.5 29.9 13.5 25.35 L13.45 22.85 16.5 23.0 16.65 23.25 M11.2 32.45 L10.8 35.15 10.65 36.15 6.5 35.4 6.55 35.25 Q9.55 33.65 11.2 32.45" fill="#483f3c" fill-rule="evenodd" stroke="none"/>
    <path d="M-8.6 -26.5 L-8.55 -26.55 -8.3 -26.4 -8.6 -26.5" fill="#39282c" fill-rule="evenodd" stroke="none"/>
    <path d="M-20.05 12.6 L-20.25 12.5 -20.0 12.5 -20.05 12.55 -20.05 12.6 M-27.25 20.1 L-27.0 20.4 -27.0 20.6 -27.25 20.5 -27.25 20.1" fill="#37333c" fill-rule="evenodd" stroke="none"/>
    <path d="M9.5 38.45 L9.7 38.6 10.0 38.85 10.0 40.25 6.25 40.85 1.9 41.25 Q-0.9 41.25 -1.35 40.75 L-1.5 39.15 Q-1.5 37.15 0.1 36.95 L9.55 38.0 9.5 38.45" fill="#046193" fill-rule="evenodd" stroke="none"/>
    <path d="M26.45 -8.7 L23.4 -8.75 23.25 -9.0 22.9 -9.0 20.75 -9.0 20.5 -9.0 20.5 -8.8 -1.65 -8.75 -0.95 -10.6 Q-0.5 -12.35 -0.5 -14.65 L-1.15 -19.9 Q-1.9 -22.35 -3.35 -23.6 -4.3 -24.5 -5.55 -24.8 L-7.0 -25.0 -7.15 -25.35 -7.35 -25.5 -7.65 -25.5 -7.15 -26.05 -8.05 -26.15 -8.3 -26.4 -8.55 -26.55 Q-7.75 -28.25 -5.15 -30.9 L-5.5 -31.1 Q-4.5 -32.2 -2.6 -35.05 -1.2 -36.85 0.35 -37.55 L0.5 -37.75 Q2.9 -40.0 4.0 -40.0 6.45 -40.0 13.0 -30.7 L15.75 -26.8 Q18.65 -23.75 21.15 -19.3 L26.45 -8.7 M-6.55 1.0 L-6.45 1.15 Q-5.75 2.2 -5.5 3.55 L-5.4 4.8 -5.4 4.95 -5.4 5.4 -5.45 5.85 -5.5 6.35 -6.15 7.55 Q-6.75 7.65 -7.4 8.15 L-9.3 9.95 -11.3 7.25 Q-13.5 4.35 -13.5 3.25 L-13.3 1.55 -13.25 1.3 -9.7 1.1 -6.55 1.0 M-5.8 10.25 L-5.75 10.25 -5.5 13.4 Q-5.25 14.0 -5.25 15.25 L-5.35 16.7 -5.3 17.5 -5.25 18.5 -5.25 18.8 -6.0 19.5 -6.8 20.45 -7.0 20.75 -8.2 19.4 -10.3 17.25 -11.2 15.6 -11.5 15.25 -10.25 12.35 -10.05 12.5 Q-9.65 12.6 -9.35 12.85 L-8.5 13.0 -6.8 11.15 -6.35 10.7 -5.8 10.25 M-18.2 1.45 L-18.2 1.55 -18.15 1.45 -15.5 1.45 Q-16.0 2.0 -16.4 3.1 L-16.95 4.5 -17.25 5.15 -17.25 5.3 Q-17.25 5.95 -17.85 6.45 L-18.35 6.8 -19.75 8.5 -20.7 9.65 -21.35 8.25 -22.1 6.6 -21.5 4.7 -21.35 4.0 -21.2 2.55 -21.2 1.45 -18.2 1.45 M-18.6 11.3 Q-17.35 10.2 -16.0 7.55 L-14.8 5.15 -14.05 7.3 -12.3 10.5 -12.4 10.75 -13.05 13.55 -13.4 14.3 -13.5 14.3 -13.5 14.45 -14.6 16.35 -15.8 18.65 Q-17.05 16.85 -17.6 14.85 L-18.6 11.3 M-20.25 12.5 L-20.05 12.6 -20.0 12.6 -19.75 13.9 -21.0 14.7 -21.0 14.65 -22.05 15.5 Q-24.1 17.15 -24.8 18.55 -26.1 18.1 -26.0 15.4 -25.95 14.45 -26.05 13.75 L-26.0 13.65 -25.65 13.15 -25.55 13.0 -24.85 11.9 -24.6 11.5 -23.45 9.45 -22.8 11.2 Q-22.15 12.5 -20.25 12.5 M-25.0 25.75 L-24.9 21.85 -24.9 20.95 -23.1 19.55 -20.5 17.5 -19.9 17.3 -19.1 16.75 -19.0 16.9 -17.9 19.45 -17.7 19.8 -17.6 20.0 -17.8 20.7 -18.0 22.15 -17.9 22.8 -18.5 23.3 Q-20.4 24.9 -24.95 25.8 L-25.0 25.75 M-15.8 21.15 L-15.8 21.0 -15.1 20.85 -15.0 21.0 -14.3 20.75 -12.6 17.2 -11.45 19.25 Q-9.85 21.9 -8.5 22.7 L-9.7 23.55 Q-12.8 25.9 -13.85 27.4 L-15.55 24.05 -15.8 21.15 M-31.0 19.45 L-30.9 19.45 -30.85 19.25 -30.25 18.45 -28.0 15.95 -28.0 18.45 Q-27.8 19.5 -27.25 20.1 L-27.25 20.5 Q-28.2 20.5 -30.4 21.9 L-32.6 23.15 -32.25 21.25 -31.0 19.45" fill="#4b3c36" fill-rule="evenodd" stroke="none"/>
    <path d="M-14.25 -26.55 L-14.2 -26.65 -13.25 -28.0 -10.5 -31.5 -9.45 -32.75 -9.35 -32.8 -3.4 -41.25 -1.7 -43.45 Q0.6 -46.3 2.0 -47.2 L2.2 -47.55 2.35 -47.4 3.35 -47.6 Q3.95 -47.55 4.95 -46.85 7.15 -45.3 10.95 -40.55 L14.2 -36.3 16.6 -32.95 21.75 -25.55 23.65 -22.8 25.5 -20.1 26.0 -19.35 25.75 -18.8 25.75 -18.75 28.6 -14.5 28.4 -14.35 29.35 -11.75 29.35 -11.3 29.5 -11.3 29.8 -9.85 30.0 -8.55 26.9 -8.7 26.45 -8.7 21.15 -19.3 Q18.65 -23.75 15.75 -26.8 L13.0 -30.7 Q6.45 -40.0 4.0 -40.0 2.9 -40.0 0.5 -37.75 L0.35 -37.55 Q-1.2 -36.85 -2.6 -35.05 -4.5 -32.2 -5.5 -31.1 L-5.15 -30.9 Q-7.75 -28.25 -8.55 -26.55 L-8.6 -26.5 -8.75 -26.2 -10.6 -25.55 -11.0 -25.5 -12.2 -25.6 Q-13.05 -25.75 -13.7 -26.15 L-14.25 -26.55" fill="#795c55" fill-rule="evenodd" stroke="none"/>
  </g>
</svg>
