<?xml version="1.0" encoding="UTF-8" standalone="no"?>
<svg xmlns:ffdec="https://www.free-decompiler.com/flash" xmlns:xlink="http://www.w3.org/1999/xlink" ffdec:objectType="shape" height="92.4px" width="41.5px" xmlns="http://www.w3.org/2000/svg">
  <g transform="matrix(1.0, 0.0, 0.0, 1.0, 20.75, 46.2)">
    <path d="M2.35 -19.4 Q3.95 -14.1 4.6 -7.15 L5.05 0.2 12.05 4.1 Q16.95 7.15 18.8 9.95 L18.6 10.65 Q18.4 11.05 17.8 11.05 L15.55 10.65 13.3 10.1 13.1 9.8 Q12.9 9.6 12.9 10.35 L20.75 25.75 20.75 26.45 20.6 26.8 20.6 27.05 19.95 27.2 Q18.6 27.2 16.45 25.4 L14.1 23.3 Q14.1 26.3 15.45 32.1 L16.8 37.45 16.8 38.3 16.65 38.85 16.7 39.05 Q16.65 39.25 16.05 39.25 15.25 39.25 13.2 35.45 L10.2 30.0 10.0 30.0 9.2 37.85 8.25 45.95 Q8.6 46.2 7.65 46.2 6.55 46.2 5.55 42.95 4.65 39.1 4.15 37.9 L2.2 33.75 Q1.0 31.25 0.8 29.6 L0.6 29.6 Q-0.55 33.65 -0.8 36.95 L-0.85 37.15 -1.55 37.4 Q-3.35 37.4 -3.35 31.25 -3.1 23.95 -3.3 21.7 L-4.7 22.7 -5.85 23.55 -8.75 23.55 -8.9 23.4 -9.0 22.5 -6.35 19.2 Q-3.35 15.6 -2.3 13.85 L-8.0 13.4 Q-7.6 12.7 -7.8 12.2 -7.55 11.35 -5.65 10.0 -3.5 8.45 -3.1 7.8 L-1.6 5.25 0.0 2.7 0.1 2.75 -0.1 1.2 Q-1.1 -6.15 -3.3 -12.5 -6.5 -21.65 -14.35 -27.9 L-16.7 -29.85 -18.9 -32.2 Q-20.75 -34.8 -20.75 -38.85 -20.75 -45.4 -16.7 -46.1 L-16.6 -46.15 Q-14.15 -46.55 -11.95 -44.65 L-8.9 -41.9 -7.45 -40.3 -7.2 -40.1 -6.4 -39.15 -6.2 -38.6 -5.8 -38.0 Q-4.45 -35.85 -2.55 -31.5 L0.1 -25.4 2.35 -19.4 M3.35 -2.35 Q2.9 -9.8 1.6 -15.85 L1.1 -18.0 1.0 -18.3 0.05 -21.65 Q-0.8 -24.25 -1.8 -26.65 L-3.9 -31.05 Q-6.5 -35.8 -9.95 -39.95 L-11.75 -41.75 Q-13.7 -43.75 -16.1 -43.75 L-16.7 -43.7 Q-18.75 -43.45 -19.15 -41.35 -19.45 -40.15 -19.15 -38.8 -19.15 -34.75 -16.7 -32.2 L-10.35 -26.4 Q-4.75 -20.75 -1.7 -12.95 0.55 -7.1 1.45 0.55 L2.6 12.3 2.6 12.35 2.6 12.5 2.75 12.3 Q3.25 11.75 3.4 10.9 L3.4 11.0 3.5 10.4 3.5 10.1 3.5 10.0 3.5 9.9 3.5 9.45 3.5 4.8 3.5 4.6 3.35 -2.35 M15.1 8.5 L15.0 8.45 14.9 8.5 15.1 8.5" fill="#000000" fill-rule="evenodd" stroke="none"/>
    <path d="M2.6 12.35 L2.6 12.3 2.75 12.3 2.6 12.35 M-6.35 -30.15 L-6.25 -30.05 -5.7 -29.45 -6.0 -29.75 -6.2 -29.95 -6.35 -30.15" fill="#242939" fill-rule="evenodd" stroke="none"/>
    <path d="M-19.15 -41.35 Q-18.75 -43.45 -16.7 -43.7 L-16.1 -43.75 Q-13.7 -43.75 -11.75 -41.75 L-9.95 -39.95 Q-6.5 -35.8 -3.9 -31.05 L-1.8 -26.65 Q-0.8 -24.25 0.05 -21.65 L1.0 -18.3 1.1 -18.0 1.6 -15.85 Q2.9 -9.8 3.35 -2.35 L2.8 -2.3 Q1.7 -9.4 -0.7 -16.45 L-0.75 -16.55 -1.6 -19.9 -1.65 -20.2 -1.8 -21.2 Q-6.2 -28.75 -6.2 -29.55 L-6.0 -29.75 -5.7 -29.45 -6.25 -30.05 -6.35 -30.15 -8.45 -32.5 -12.55 -36.8 Q-14.6 -38.65 -16.7 -39.95 L-19.15 -41.35" fill="#5b5042" fill-rule="evenodd" stroke="none"/>
    <path d="M3.5 4.6 L3.5 4.8 3.5 9.45 3.4 10.9 Q3.25 11.75 2.75 12.3 L2.6 12.3 1.45 0.55 Q0.55 -7.1 -1.7 -12.95 -4.75 -20.75 -10.35 -26.4 L-16.7 -32.2 Q-19.15 -34.75 -19.15 -38.8 -19.45 -40.15 -19.15 -41.35 L-16.7 -39.95 Q-14.6 -38.65 -12.55 -36.8 L-8.45 -32.5 -6.35 -30.15 -6.2 -29.95 -6.2 -29.55 Q-6.2 -28.75 -1.8 -21.2 L-1.65 -20.2 -1.6 -19.9 -0.75 -16.55 -0.7 -16.45 Q1.7 -9.4 2.8 -2.3 3.35 1.3 3.5 4.6" fill="#3f362e" fill-rule="evenodd" stroke="none"/>
    <path d="M3.35 -2.35 L3.5 4.6 Q3.35 1.3 2.8 -2.3 L3.35 -2.35 M3.5 9.45 L3.5 9.9 3.5 10.0 3.5 10.1 3.5 10.4 3.4 11.0 3.4 10.9 3.5 9.45 M-6.0 -29.75 L-6.2 -29.55 -6.2 -29.95 -6.0 -29.75" fill="#3e4762" fill-rule="evenodd" stroke="none"/>
  </g>
</svg>
