<?xml version="1.0" encoding="UTF-8" standalone="no"?>
<svg xmlns:ffdec="https://www.free-decompiler.com/flash" xmlns:xlink="http://www.w3.org/1999/xlink" ffdec:objectType="shape" height="155.35px" width="199.5px" xmlns="http://www.w3.org/2000/svg">
  <g transform="matrix(1.0, 0.0, 0.0, 1.0, 99.75, 77.65)">
    <path d="M-74.25 -38.25 Q-74.7 -38.2 -74.95 -37.95 -90.55 -37.0 -96.25 -27.1 -99.75 -21.0 -99.75 -9.55 L-99.45 2.25 Q-99.1 7.7 -97.75 15.75 -96.4 24.4 -92.0 31.05 -86.0 40.2 -76.75 40.2 L-72.25 39.95 -72.25 40.0 Q-72.25 43.2 -66.55 50.1 -61.8 55.9 -58.5 58.45 L-53.35 61.7 Q-49.15 63.95 -46.1 64.75 -42.2 65.6 -34.45 67.95 L-19.6 71.2 -18.6 71.0 -18.45 70.75 -18.35 69.8 Q-18.35 69.45 -19.25 68.55 -20.15 67.6 -21.2 66.95 -18.8 67.25 -9.2 70.05 -0.2 72.7 1.65 72.7 L3.1 72.25 3.65 71.5 Q3.15 70.9 1.75 70.1 0.35 69.35 -0.1 68.7 L-1.85 66.75 -3.7 64.95 Q-2.75 65.0 -1.75 65.5 L0.05 66.45 Q1.1 67.05 6.3 67.65 L15.15 68.2 16.35 68.0 16.65 67.2 Q14.9 65.45 12.8 62.55 13.6 62.6 14.3 62.0 15.6 60.85 16.8 62.7 17.65 63.95 17.65 65.25 L17.65 70.95 19.15 71.2 Q20.05 71.2 20.7 70.55 L22.8 68.45 Q23.35 67.95 25.65 67.7 27.15 67.5 27.15 65.35 27.15 63.65 26.15 61.25 26.25 61.05 27.2 60.9 L28.15 60.75 29.15 62.45 29.65 64.2 Q29.65 65.25 28.65 66.7 27.65 68.15 27.65 69.6 27.65 71.0 28.0 71.4 28.95 72.55 32.65 72.45 L32.9 74.95 33.15 77.45 34.4 77.7 35.25 77.6 35.3 77.45 37.25 72.45 Q38.7 69.2 39.8 68.7 40.3 69.1 40.5 70.35 40.6 71.2 41.9 71.2 43.15 71.2 42.65 71.0 L43.4 68.9 Q43.9 67.5 44.55 66.7 46.6 64.2 49.0 63.8 50.65 63.55 50.65 62.7 L48.65 59.95 Q46.65 57.4 46.65 56.75 46.65 55.95 47.6 55.1 48.7 54.05 50.65 53.45 51.55 57.25 52.65 58.2 L53.65 57.5 Q53.65 52.9 57.4 50.65 L60.0 49.35 Q61.15 48.8 61.15 48.25 61.15 47.9 59.05 45.25 56.8 42.45 56.4 41.2 L55.7 38.2 56.85 37.0 58.65 35.0 Q59.5 34.2 65.8 31.85 L76.4 32.7 Q93.75 32.7 98.05 30.7 99.6 29.95 99.75 28.8 L99.65 26.85 Q99.65 24.35 94.55 17.15 90.65 11.6 87.65 10.05 L87.65 8.3 87.55 2.05 Q87.35 0.05 85.65 -5.75 84.7 -9.35 82.15 -12.3 L81.15 -15.85 Q80.7 -16.9 79.95 -17.25 82.7 -19.4 84.3 -23.55 86.15 -28.3 86.15 -34.3 L86.1 -38.2 Q85.9 -41.0 85.05 -42.3 78.7 -46.95 74.8 -44.0 L70.55 -41.55 66.1 -39.55 60.15 -39.5 55.4 -39.25 55.3 -39.05 53.65 -41.3 Q52.1 -44.45 48.3 -44.15 45.1 -43.9 42.05 -41.55 L39.35 -38.5 36.65 -35.0 36.65 -28.5 27.9 -28.5 Q18.05 -32.45 14.3 -36.05 L11.3 -38.4 8.65 -40.5 Q6.55 -42.7 4.2 -43.4 L6.85 -45.9 Q10.65 -49.45 10.65 -50.3 L10.65 -50.8 Q10.75 -51.4 11.3 -51.8 L11.65 -52.05 3.9 -51.8 -5.95 -51.5 -5.6 -52.05 Q-3.95 -53.3 5.65 -62.3 L5.5 -63.15 5.3 -63.3 2.15 -63.3 -8.4 -59.9 Q-16.05 -57.25 -18.2 -55.55 L-17.95 -55.8 -14.2 -61.1 -10.6 -66.3 -6.1 -72.3 -3.8 -75.3 -3.1 -76.3 -2.85 -76.8 Q-2.85 -77.6 -3.0 -77.65 L-3.2 -77.55 -7.75 -76.3 -10.4 -75.3 Q-16.75 -72.7 -26.1 -67.35 -41.75 -58.35 -44.95 -53.5 L-44.85 -53.8 Q-44.05 -59.6 -42.35 -65.05 -41.5 -67.6 -38.8 -72.0 L-36.8 -75.3 -36.35 -76.2 -36.35 -76.3 Q-36.35 -76.95 -36.5 -77.1 L-36.7 -77.3 -37.85 -77.25 -38.8 -76.3 -39.9 -75.3 Q-41.2 -74.1 -43.0 -72.6 L-47.7 -68.3 -56.75 -58.55 -63.9 -49.5 Q-70.75 -40.4 -70.75 -38.55 L-70.75 -38.2 -74.25 -38.25 M-68.95 -29.95 Q-73.35 -33.2 -79.2 -35.55 L-75.6 -36.4 -75.15 -36.5 -75.1 -36.45 -74.95 -36.3 Q-64.1 -35.05 -60.45 -33.45 L-55.25 -30.3 -54.7 -29.85 -53.75 -28.6 -52.1 -26.25 -50.45 -23.7 Q-49.7 -22.55 -49.0 -22.1 L-49.0 -21.85 -48.8 -19.75 -48.85 -19.1 -48.8 -19.15 -48.75 -19.15 -48.4 -17.55 Q-47.65 -14.8 -47.5 -12.85 -46.6 -6.05 -46.5 -3.5 L-45.5 15.35 -46.0 18.2 -46.05 18.45 -46.5 21.0 -46.45 21.8 -46.55 22.3 -46.7 23.2 -46.8 23.75 -48.35 28.5 Q-49.45 30.5 -50.6 31.4 -52.2 32.6 -55.45 33.45 L-60.85 34.7 Q-59.3 33.05 -58.2 30.95 L-57.7 29.95 -57.5 29.4 -57.45 29.3 -57.4 29.15 -57.3 28.95 -56.1 24.55 -56.0 23.9 -56.0 23.85 Q-54.75 17.5 -54.75 7.7 L-54.65 2.95 Q-54.7 -1.3 -55.2 -3.55 L-56.75 -9.45 -58.25 -15.25 Q-59.45 -21.0 -64.55 -26.2 L-68.95 -29.95 M85.5 16.95 L85.8 16.75 87.1 14.7 87.15 14.6 87.2 14.45 87.45 13.25 87.55 12.45 Q89.8 14.55 92.7 18.1 97.65 24.25 97.65 26.8 L97.4 28.15 96.55 28.95 95.3 29.35 93.75 29.6 93.15 29.7 89.85 29.9 85.0 30.1 76.4 30.45 66.15 30.2 65.95 30.15 65.85 30.15 65.7 30.1 63.4 29.5 62.8 29.15 62.75 29.1 61.65 28.45 61.25 28.25 61.15 28.2 61.15 28.15 60.15 26.25 59.25 24.3 59.15 23.95 59.3 22.7 59.8 22.7 60.7 22.7 62.15 22.7 66.45 22.45 Q65.15 24.55 65.15 25.1 65.15 25.9 65.45 26.05 L66.15 26.2 Q67.7 25.5 69.05 22.85 L70.9 23.2 Q71.7 23.2 71.95 22.8 L72.15 22.2 71.15 21.75 76.7 20.3 Q77.95 23.2 79.4 23.2 80.2 23.2 80.45 22.75 L80.65 22.0 78.9 19.6 79.85 19.25 Q80.6 21.2 82.15 21.2 L83.35 21.0 83.65 20.2 82.3 18.9 81.9 18.5 84.9 17.25 85.5 16.95 M-42.0 -70.7 L-41.95 -70.8 -41.85 -70.55 -43.8 -65.7 -43.9 -65.5 -46.8 -61.15 -62.65 -36.5 -62.25 -36.3 -62.7 -36.45 -67.7 -38.05 -68.85 -38.1 Q-64.5 -46.05 -57.65 -54.4 -50.65 -62.9 -42.0 -70.7 M-8.35 -73.55 L-9.75 -71.45 -13.7 -69.3 Q-19.55 -66.1 -21.45 -64.8 L-28.45 -60.15 Q-32.65 -57.3 -33.95 -55.8 L-38.15 -51.25 Q-42.1 -47.3 -43.75 -47.3 -44.3 -47.3 -45.1 -47.6 L-46.45 -47.8 -46.6 -48.05 -46.65 -48.1 Q-43.0 -53.8 -31.55 -61.45 -20.15 -69.05 -8.45 -73.7 L-8.4 -73.7 -8.2 -73.8 -8.35 -73.55 M-33.6 -35.85 L-35.7 -37.15 -31.2 -38.55 -22.7 -41.25 -22.85 -40.5 Q-22.75 -40.3 -22.35 -40.2 -22.3 -38.85 -20.5 -35.85 L-19.7 -34.65 -30.4 -32.6 Q-30.9 -33.9 -33.6 -35.85 M-45.0 -36.3 L-42.1 -37.3 Q-41.45 -37.3 -40.6 -36.8 -39.7 -36.3 -39.1 -36.3 L-38.15 -36.45 -34.65 -33.35 -33.15 -32.0 -36.8 -31.1 Q-39.85 -30.2 -40.35 -29.75 L-40.45 -29.65 -42.25 -28.45 Q-43.9 -32.2 -44.6 -33.05 -45.9 -34.65 -48.2 -35.2 L-45.0 -36.3 M-50.6 -34.4 Q-48.05 -33.2 -46.25 -31.0 L-43.5 -27.6 -45.6 -26.15 -47.55 -24.5 -50.0 -27.8 Q-52.9 -31.4 -55.25 -32.8 L-56.95 -33.8 -52.35 -33.8 -50.6 -34.4 M0.9 -60.5 L0.85 -60.7 0.9 -60.7 1.15 -60.75 0.9 -60.5 M-1.55 -60.05 L-1.1 -60.2 -0.05 -60.5 -0.05 -60.45 Q-0.65 -60.15 -1.0 -59.95 L-1.45 -59.75 -18.5 -50.3 Q-19.25 -50.3 -19.55 -50.75 L-19.75 -51.25 Q-20.95 -51.55 -21.25 -52.0 L-20.75 -52.4 -20.35 -52.3 Q-17.9 -53.3 -10.95 -56.65 L-9.2 -57.4 -1.55 -60.05 M6.25 -48.75 L-1.25 -46.8 -8.95 -46.8 -9.1 -46.95 -9.25 -47.9 Q-9.25 -48.9 -8.0 -49.8 L-7.3 -49.55 Q-4.5 -48.95 7.65 -49.75 L6.5 -48.8 6.35 -48.65 6.25 -48.75 M20.25 14.05 L18.55 14.2 Q14.35 13.25 11.95 6.25 11.0 3.55 9.65 -2.4 L7.5 -10.35 Q6.75 -12.3 5.7 -16.95 L3.75 -23.5 Q2.75 -25.8 1.55 -29.95 L0.4 -33.7 0.3 -34.1 0.3 -34.45 0.2 -35.55 0.5 -36.95 Q0.95 -39.8 2.0 -41.25 6.25 -40.85 7.15 -39.9 L9.3 -37.25 13.1 -34.15 14.65 -32.8 Q15.05 -32.4 15.8 -32.05 L17.05 -31.55 Q19.4 -30.8 21.55 -29.55 22.15 -29.2 22.75 -29.1 L24.9 -28.25 Q25.3 -28.05 25.2 -27.65 25.1 -27.2 25.4 -27.0 L34.65 -26.3 Q43.9 -26.3 47.4 -28.25 L48.45 -28.8 48.5 -28.85 48.85 -29.1 49.25 -29.35 49.5 -29.5 51.0 -30.25 51.85 -30.55 52.9 -30.3 52.95 -30.3 Q54.1 -28.55 54.65 -26.35 L54.65 -26.0 54.75 -25.95 54.95 -24.75 Q55.15 -23.3 55.15 -18.05 L55.15 -17.8 52.1 -17.5 51.95 -17.5 Q51.15 -17.35 51.05 -17.1 L51.15 -16.9 Q51.15 -16.15 51.35 -15.95 L51.55 -15.8 51.95 -15.8 55.1 -15.8 54.9 -11.1 51.6 -11.25 51.4 -11.25 50.9 -11.25 50.7 -10.85 50.65 -10.05 Q50.65 -9.25 50.95 -9.05 L51.45 -8.85 51.65 -8.8 54.85 -8.8 54.65 -0.8 54.45 0.75 Q52.65 -0.3 52.15 -0.25 L51.8 0.0 Q51.65 0.15 51.65 0.95 51.65 1.25 54.0 2.75 L52.5 4.2 Q48.65 8.05 48.65 8.95 L48.85 9.95 49.05 10.2 50.65 10.0 Q50.9 9.4 53.85 6.6 L53.65 7.75 Q52.4 13.2 49.8 14.75 48.0 15.85 43.15 15.95 L43.1 13.75 Q42.95 12.45 42.15 11.7 41.15 12.4 40.8 15.65 L40.8 15.85 39.15 15.7 39.1 13.75 Q38.95 12.4 38.15 11.7 37.25 12.35 37.15 13.95 L37.15 15.45 35.15 15.2 30.15 15.05 Q31.15 13.15 31.15 12.7 L30.9 11.6 30.15 11.2 Q29.1 12.15 27.45 14.9 L25.15 12.2 24.45 12.4 Q24.15 12.65 24.15 13.45 L24.75 14.7 22.15 14.3 22.05 14.0 21.3 14.2 20.45 14.1 20.25 14.05 M-6.3 -36.95 L-7.85 -38.7 -4.85 -37.8 Q-3.45 -36.9 -2.4 -35.15 L-2.3 -35.0 -2.35 -34.2 -4.85 -34.45 -4.85 -34.65 Q-4.85 -35.2 -6.3 -36.95 M-1.5 -32.0 L-1.4 -32.0 Q-1.15 -30.05 0.0 -26.5 L-7.0 -26.25 Q-17.4 -25.45 -32.2 -20.85 -42.25 -17.75 -45.2 -15.85 -45.8 -18.7 -46.7 -21.0 L-45.85 -22.7 -45.35 -23.25 -44.45 -23.9 Q-41.75 -26.25 -39.45 -27.55 -35.85 -29.55 -29.35 -31.1 -23.75 -32.45 -18.1 -32.85 L-17.85 -32.8 -17.05 -32.95 -13.25 -33.05 Q-9.15 -33.05 -4.0 -31.75 L-3.5 -32.25 -2.9 -32.15 -1.5 -32.0 M-15.4 -39.7 L-11.15 -39.55 -9.35 -36.6 -8.15 -35.0 -13.85 -35.45 -16.85 -35.05 -17.45 -34.95 -18.75 -38.05 -19.5 -39.3 -20.05 -39.9 -19.65 -39.85 -15.4 -39.7 M-61.8 37.3 L-52.75 35.2 Q-51.8 34.95 -50.0 33.25 L-47.2 30.45 Q-46.0 29.3 -44.6 24.7 L-43.5 20.45 -42.85 20.7 -42.8 20.7 -43.8 19.6 Q-43.5 17.7 -43.5 15.5 -43.5 4.65 -44.1 -3.75 L-44.85 -13.5 Q-43.65 -13.65 -38.5 -15.9 -32.45 -18.5 -29.0 -19.1 -27.8 -19.3 -24.7 -20.35 L-18.25 -22.25 Q-10.2 -24.25 -3.05 -24.8 L0.45 -25.15 1.8 -21.2 Q5.5 -11.0 6.0 -8.25 6.35 -6.5 7.6 -2.1 8.75 1.85 9.0 4.05 9.5 7.95 11.55 11.5 L11.7 11.7 Q10.65 12.9 10.55 15.15 10.5 17.1 11.0 18.9 11.0 23.75 11.15 25.05 L11.65 27.65 11.65 27.8 12.65 46.2 12.35 51.9 12.15 53.2 12.15 53.3 12.0 53.9 10.95 57.05 10.85 57.45 10.45 57.6 Q9.9 57.85 9.5 58.2 L8.65 57.2 Q8.05 57.25 7.65 57.95 9.8 60.95 12.05 65.45 L11.3 65.45 Q3.35 65.85 -2.55 63.55 -7.1 61.2 -7.85 61.2 L-8.7 61.4 -8.85 61.95 Q-8.8 63.4 -5.95 65.75 L-2.35 69.0 -10.55 67.5 -17.35 66.0 Q-24.4 62.2 -24.6 62.2 L-25.65 62.5 -25.85 63.0 -24.55 65.6 -22.95 67.95 Q-39.0 65.7 -46.8 62.7 -51.25 61.0 -57.25 56.7 -59.65 54.95 -64.45 49.45 -70.25 42.8 -70.25 40.1 L-70.2 39.6 -66.55 38.5 -63.9 37.8 -63.8 37.8 -62.2 37.4 -61.8 37.3 M-49.15 17.2 L-49.2 17.15 -49.25 17.2 -49.15 17.2 M-50.85 -18.0 L-50.8 -17.9 -50.35 -18.2 -50.85 -18.0 M41.9 -28.6 L39.65 -28.55 39.15 -30.0 Q38.65 -31.05 38.65 -31.95 L40.05 -36.05 Q42.5 -40.05 48.0 -40.05 51.9 -40.05 52.9 -38.4 L53.3 -37.8 52.0 -36.85 Q50.65 -35.5 50.65 -33.5 L50.75 -32.6 Q49.3 -32.2 47.55 -31.05 L46.75 -30.2 46.05 -29.55 43.25 -29.25 42.65 -29.25 Q41.35 -29.05 41.9 -28.9 L42.75 -28.65 41.9 -28.6 M80.55 -42.05 Q82.3 -42.55 83.65 -40.05 84.15 -38.25 84.15 -34.3 84.15 -28.45 82.15 -24.0 79.0 -17.0 71.9 -17.0 L71.15 -17.25 71.15 -17.4 Q71.15 -18.35 69.8 -19.55 69.4 -20.75 69.15 -22.55 68.65 -25.8 68.65 -28.8 68.65 -33.6 69.0 -34.4 70.0 -36.5 75.55 -40.05 76.45 -40.65 78.25 -40.9 79.75 -41.1 80.55 -42.05 M67.05 -21.6 Q65.05 -22.8 63.15 -23.3 L58.9 -26.15 58.55 -26.35 Q58.95 -29.4 61.55 -32.7 65.2 -37.35 70.05 -38.75 67.6 -36.8 66.95 -34.1 66.65 -32.8 66.65 -28.8 L67.15 -21.8 67.25 -21.45 Q67.1 -21.55 67.05 -21.6 M61.55 -37.3 L62.0 -37.35 61.55 -37.1 Q57.05 -34.2 56.3 -29.5 55.45 -31.6 54.0 -32.35 L54.55 -34.55 Q54.8 -35.25 56.5 -36.45 L57.15 -36.9 61.55 -37.3 M57.65 -23.3 L58.45 -23.65 69.2 -16.45 Q70.45 -14.8 72.4 -14.8 L74.8 -15.0 Q76.85 -15.35 78.5 -16.25 L78.55 -16.25 78.55 -16.2 79.05 -15.0 83.7 -3.4 Q85.65 2.05 85.65 8.3 L85.65 9.45 85.15 9.45 85.15 10.5 85.6 10.85 85.45 12.45 85.4 12.65 85.05 13.65 Q84.2 15.25 82.4 15.65 L82.15 15.7 81.65 15.95 81.55 14.95 80.6 14.85 Q79.7 14.85 79.15 15.25 L79.15 15.45 79.25 16.85 77.8 17.35 Q77.8 16.65 77.95 16.35 L78.05 15.95 77.85 15.9 Q76.5 15.6 76.05 15.9 75.8 16.05 75.7 16.55 L75.65 17.25 75.9 17.95 75.2 18.15 70.45 19.35 70.65 17.7 70.4 16.6 69.65 16.2 Q69.05 16.6 68.65 17.95 L68.55 18.25 68.1 19.8 67.85 19.8 67.45 19.55 Q65.4 18.25 63.65 18.95 L63.65 20.0 64.2 20.25 63.7 20.3 63.65 20.3 59.75 20.5 58.9 20.5 57.95 19.4 56.05 17.2 55.45 16.5 55.4 16.4 54.6 15.0 54.05 13.8 54.35 13.35 54.5 13.05 55.35 11.5 55.65 10.5 56.5 4.3 Q60.5 6.7 61.9 6.7 63.3 6.7 63.65 5.7 L63.3 4.95 Q61.2 4.85 57.75 2.8 60.15 0.35 60.15 -0.3 60.15 -1.1 59.9 -1.15 L59.15 -1.3 56.7 0.45 57.05 -8.8 61.3 -8.8 61.55 -9.1 61.65 -9.8 61.5 -10.65 61.3 -10.8 57.1 -11.0 57.15 -15.8 63.3 -15.8 63.55 -16.1 63.65 -16.8 63.5 -17.65 63.3 -17.8 57.15 -17.85 57.15 -18.3 Q57.45 -20.85 57.4 -23.3 L57.35 -23.7 57.65 -23.3 M18.75 21.65 L18.65 27.2 18.55 30.35 Q18.45 32.8 18.65 34.2 L18.95 35.85 19.15 37.5 Q19.15 38.25 19.65 39.45 L19.65 40.2 Q19.85 41.25 19.05 41.6 L29.9 41.2 Q40.3 41.2 44.75 39.7 47.0 39.0 47.15 38.2 47.0 37.55 46.15 37.2 L46.05 33.15 Q45.95 30.05 46.15 28.0 L46.65 22.75 Q46.65 20.65 47.15 19.2 L47.55 17.95 Q49.45 17.7 50.55 17.25 L51.45 16.65 51.65 19.25 Q51.65 22.85 52.3 25.75 53.0 29.0 53.15 33.5 53.3 38.35 53.95 40.8 55.05 44.75 58.15 48.2 L54.8 50.35 Q53.1 51.45 52.65 52.2 52.65 50.3 51.65 49.7 50.6 50.8 46.8 53.35 44.65 54.8 44.65 56.95 44.65 57.95 45.55 59.5 L47.15 62.2 Q45.7 63.05 43.7 65.1 L41.65 67.2 41.3 66.1 Q40.95 65.45 40.15 65.2 38.1 66.25 36.9 68.35 L34.65 71.7 Q34.3 70.85 33.95 70.55 L29.65 70.0 29.65 69.75 31.35 66.55 Q31.65 65.95 31.65 64.2 31.7 62.75 31.15 61.4 30.1 58.7 27.15 58.7 24.9 58.7 24.15 59.25 23.65 59.65 23.65 60.7 L24.4 62.7 25.15 65.1 25.05 65.95 Q22.2 65.85 21.2 66.8 L19.75 68.15 19.7 68.2 19.65 68.2 19.65 68.0 Q20.8 65.4 18.75 61.75 16.5 57.75 12.8 59.45 14.3 55.7 14.55 52.4 L14.65 46.25 Q14.65 37.3 14.15 33.95 L14.0 30.15 14.15 30.0 14.1 29.55 14.0 27.05 13.9 26.5 13.4 23.5 13.35 23.05 13.75 23.0 14.15 22.9 14.15 22.7 13.3 22.95 Q13.0 20.55 13.0 19.0 L13.0 15.25 Q13.0 14.7 13.3 13.9 14.75 15.45 16.5 16.1 L16.5 16.05 Q17.15 16.0 17.6 16.4 L19.0 16.5 19.05 16.5 Q18.6 17.1 18.5 18.0 L18.5 19.15 18.5 20.25 18.5 21.4 18.5 21.7 18.55 21.65 18.75 21.6 18.75 21.65 M42.75 21.0 L43.0 18.2 44.75 18.15 44.55 19.2 44.55 20.85 44.65 23.5 44.65 23.95 Q44.15 27.6 44.15 32.95 L44.15 35.95 44.0 37.6 44.05 38.0 42.85 38.4 Q39.45 39.0 21.65 39.0 20.85 39.0 20.7 33.45 L20.65 26.95 20.65 25.7 20.65 21.5 21.15 18.55 21.1 17.25 26.05 17.4 Q24.65 19.95 24.65 20.95 24.65 21.85 24.8 21.95 L25.65 22.2 27.75 19.35 Q28.8 20.7 29.4 20.7 30.2 20.7 30.45 20.25 L30.65 19.5 29.3 17.5 36.0 17.8 37.25 17.9 37.25 18.0 Q37.45 19.35 38.15 20.2 L39.05 19.75 39.15 18.0 40.7 18.1 40.65 21.2 40.65 21.3 Q40.65 22.15 40.8 22.4 L41.65 23.2 42.55 22.75 42.6 22.6 42.65 21.7 42.7 21.35 42.75 21.0 M20.4 16.75 L20.0 16.3 20.3 16.2 20.45 16.25 20.4 16.75 M57.45 22.7 Q57.15 23.2 57.15 24.05 57.15 27.3 58.7 28.75 59.95 30.0 62.2 30.85 60.2 31.0 58.1 32.35 56.2 33.5 55.2 34.7 L55.15 34.0 54.3 26.65 Q53.65 22.3 53.65 19.35 L53.65 17.65 55.05 19.45 56.55 20.95 Q57.35 21.8 56.85 22.45 L57.5 22.6 57.45 22.7" fill="#000000" fill-rule="evenodd" stroke="none"/>
    <path d="M-55.25 -30.3 L-60.45 -33.45 Q-64.1 -35.05 -74.95 -36.3 L-75.1 -36.45 -75.15 -36.5 -75.6 -36.4 -79.2 -35.55 Q-73.35 -33.2 -68.95 -29.95 L-65.55 -30.0 -57.95 -29.75 -55.25 -29.8 -55.25 -30.3 M-56.1 24.55 L-57.3 28.95 -57.4 29.15 -57.45 29.3 -57.5 29.4 -57.7 29.95 -58.2 30.95 Q-59.3 33.05 -60.85 34.7 L-55.45 33.45 Q-52.2 32.6 -50.6 31.4 -49.45 30.5 -48.35 28.5 L-46.8 23.75 -46.7 23.2 -46.7 23.1 -50.7 23.0 -53.75 23.3 -55.95 23.85 -56.1 24.55 M93.75 29.6 L95.3 29.35 96.55 28.95 97.4 28.15 97.65 26.8 Q97.65 24.25 92.7 18.1 89.8 14.55 87.55 12.45 L87.45 13.25 87.2 14.45 87.15 14.6 87.1 14.7 85.8 16.75 85.5 16.95 86.55 18.15 Q89.95 22.05 90.5 23.45 L92.3 27.0 Q84.6 28.95 77.4 28.95 L71.05 28.55 65.3 27.95 63.95 27.15 63.05 26.2 61.6 23.95 60.7 22.7 59.8 22.7 Q59.25 23.35 59.25 24.25 L59.25 24.3 60.15 26.25 61.15 28.15 61.25 28.25 61.65 28.45 62.75 29.1 62.8 29.15 65.7 30.1 65.95 30.15 66.15 30.2 76.4 30.45 85.0 30.1 89.85 29.9 90.25 29.85 92.1 29.35 93.4 28.95 93.7 29.5 93.75 29.6 M-45.0 -36.3 L-48.2 -35.2 Q-45.9 -34.65 -44.6 -33.05 -43.9 -32.2 -42.25 -28.45 L-40.45 -29.65 -40.5 -29.65 -41.35 -31.05 Q-43.15 -33.55 -43.75 -35.0 L-45.0 -36.3 M-15.4 -39.7 L-19.65 -39.85 -19.5 -39.3 -18.75 -38.05 -17.45 -34.95 -16.85 -35.05 -13.85 -35.45 Q-14.2 -37.0 -15.4 -39.7 M74.8 -15.0 Q75.0 -13.75 76.05 -11.95 77.75 -9.2 78.25 -7.5 L80.0 0.75 82.0 9.0 Q82.2 10.15 82.05 13.2 L82.1 14.25 80.6 14.85 81.55 14.95 81.65 15.95 82.15 15.7 82.4 15.65 Q84.2 15.25 85.05 13.65 L85.25 13.0 85.4 12.65 85.45 12.45 85.6 10.85 85.15 10.5 85.15 9.45 85.65 9.45 85.65 8.3 Q85.65 2.05 83.7 -3.4 L79.05 -15.0 78.55 -16.2 78.5 -16.25 Q76.85 -15.35 74.8 -15.0 M68.5 18.0 L64.1 18.2 60.0 14.75 Q56.85 12.1 55.35 11.5 L54.5 13.05 54.35 13.35 Q54.55 14.9 55.4 16.4 L55.45 16.5 56.05 17.2 57.95 19.4 59.75 20.5 63.65 20.3 63.65 20.0 63.65 18.95 Q65.4 18.25 67.45 19.55 L67.85 19.8 68.1 19.8 68.55 18.25 68.5 18.0" fill="#292521" fill-rule="evenodd" stroke="none"/>
    <path d="M-56.0 23.9 L-56.1 24.55 -55.95 23.85 -56.0 23.9 M59.8 22.7 L59.3 22.7 59.15 23.95 59.25 24.3 59.25 24.25 Q59.25 23.35 59.8 22.7 M61.15 28.15 L61.15 28.2 61.25 28.25 61.15 28.15 M62.8 29.15 L63.4 29.5 65.7 30.1 62.8 29.15 M89.85 29.9 L93.15 29.7 93.75 29.6 93.7 29.5 93.4 28.95 92.1 29.35 90.25 29.85 89.85 29.9 M-40.45 -29.65 L-40.35 -29.75 -40.5 -29.65 -40.45 -29.65 M-19.65 -39.85 L-20.05 -39.9 -19.5 -39.3 -19.65 -39.85 M85.4 12.65 L85.25 13.0 85.05 13.65 85.4 12.65 M55.4 16.4 Q54.55 14.9 54.35 13.35 L54.05 13.8 54.6 15.0 55.4 16.4 M57.95 19.4 L58.9 20.5 59.75 20.5 57.95 19.4" fill="#221f1c" fill-rule="evenodd" stroke="none"/>
    <path d="M-41.85 -70.55 L-42.0 -70.7 Q-50.65 -62.9 -57.65 -54.4 -64.5 -46.05 -68.85 -38.1 L-67.7 -38.05 -62.7 -36.45 -62.65 -36.5 -46.8 -61.15 -43.9 -65.5 -43.8 -65.7 -41.85 -70.55 M-8.45 -73.7 Q-20.15 -69.05 -31.55 -61.45 -43.0 -53.8 -46.65 -48.1 L-46.6 -48.05 -46.45 -47.8 -45.1 -47.6 Q-44.3 -47.3 -43.75 -47.3 -42.1 -47.3 -38.15 -51.25 L-33.95 -55.8 Q-32.65 -57.3 -28.45 -60.15 L-21.45 -64.8 Q-19.55 -66.1 -13.7 -69.3 L-9.75 -71.45 -8.35 -73.55 -8.45 -73.7 M-1.45 -59.75 L-1.55 -60.05 -9.2 -57.4 -10.95 -56.65 Q-17.9 -53.3 -20.35 -52.3 L-20.75 -52.4 -21.25 -52.0 Q-20.95 -51.55 -19.75 -51.25 L-19.55 -50.75 Q-19.25 -50.3 -18.5 -50.3 L-1.45 -59.75 M6.5 -48.8 L7.65 -49.75 Q-4.5 -48.95 -7.3 -49.55 L-8.0 -49.8 Q-9.25 -48.9 -9.25 -47.9 L-9.1 -46.95 -8.95 -46.8 -1.25 -46.8 6.25 -48.75 6.5 -48.8" fill="#1d1c16" fill-rule="evenodd" stroke="none"/>
    <path d="M-56.0 23.85 L-56.0 23.9 -55.95 23.85 -56.0 23.85 M-40.35 -29.75 Q-39.85 -30.2 -36.8 -31.1 L-33.15 -32.0 -34.65 -33.35 -38.15 -36.45 -39.1 -36.3 Q-39.7 -36.3 -40.6 -36.8 -41.45 -37.3 -42.1 -37.3 L-45.0 -36.3 -43.75 -35.0 Q-43.15 -33.55 -41.35 -31.05 L-40.5 -29.65 -40.35 -29.75 M-13.85 -35.45 L-8.15 -35.0 -9.35 -36.6 -11.15 -39.55 -15.4 -39.7 Q-14.2 -37.0 -13.85 -35.45" fill="#181614" fill-rule="evenodd" stroke="none"/>
    <path d="M-62.7 -36.45 L-62.25 -36.3 -62.65 -36.5 -62.7 -36.45 M0.9 -60.7 L0.85 -60.7 0.9 -60.5 0.9 -60.7 M6.25 -48.75 L6.35 -48.65 6.5 -48.8 6.25 -48.75" fill="#070a0e" fill-rule="evenodd" stroke="none"/>
    <path d="M-8.4 -73.7 L-8.45 -73.7 -8.35 -73.55 -8.4 -73.7" fill="#11131a" fill-rule="evenodd" stroke="none"/>
    <path d="M13.1 -34.15 L9.3 -37.25 7.15 -39.9 Q6.25 -40.85 2.0 -41.25 0.95 -39.8 0.5 -36.95 L0.2 -35.55 0.3 -34.45 0.3 -34.1 0.4 -33.7 1.55 -29.95 Q2.75 -25.8 3.75 -23.5 L5.7 -16.95 Q6.75 -12.3 7.5 -10.35 L9.65 -2.4 Q11.0 3.55 11.95 6.25 14.35 13.25 18.55 14.2 L20.25 14.05 20.45 14.05 20.45 14.1 21.3 14.2 22.05 14.0 22.15 14.3 24.75 14.7 24.15 13.45 Q24.15 12.65 24.45 12.4 L25.15 12.2 27.45 14.9 Q29.1 12.15 30.15 11.2 L30.9 11.6 31.15 12.7 Q31.15 13.15 30.15 15.05 L35.15 15.2 37.15 15.45 37.15 13.95 Q37.25 12.35 38.15 11.7 38.95 12.4 39.1 13.75 L39.15 15.7 40.8 15.85 40.8 15.65 Q41.15 12.4 42.15 11.7 42.95 12.45 43.1 13.75 L43.15 15.95 Q48.0 15.85 49.8 14.75 52.4 13.2 53.65 7.75 L53.85 6.6 Q50.9 9.4 50.65 10.0 L49.05 10.2 48.85 9.95 48.65 8.95 Q48.65 8.05 52.5 4.2 L54.0 2.75 Q51.65 1.25 51.65 0.95 51.65 0.15 51.8 0.0 L52.15 -0.25 Q52.65 -0.3 54.45 0.75 L54.65 -0.8 54.85 -8.8 51.65 -8.8 51.45 -8.85 51.25 -5.3 Q51.25 -2.0 49.45 1.0 46.0 6.7 37.5 6.7 27.7 6.7 23.55 2.95 21.7 1.25 21.25 -1.25 20.9 -2.85 19.65 -5.5 L18.25 -8.55 17.75 -10.75 15.4 -23.2 13.2 -32.4 13.25 -32.75 13.1 -34.15 M51.6 -11.25 L54.9 -11.1 55.1 -15.8 51.95 -15.8 51.8 -13.95 51.6 -11.25 M52.1 -17.5 L55.15 -17.8 55.15 -18.05 Q55.15 -23.3 54.95 -24.75 L54.75 -25.95 54.65 -26.0 54.65 -26.35 Q54.1 -28.55 52.95 -30.3 L52.9 -30.3 51.85 -30.55 51.0 -30.25 Q51.75 -28.75 52.05 -25.85 52.4 -22.9 52.25 -19.8 L52.1 -17.5 M42.75 21.0 L42.7 21.35 42.75 21.05 42.75 21.0 M20.65 25.7 L20.65 26.95 20.7 33.45 Q20.85 39.0 21.65 39.0 39.45 39.0 42.85 38.4 L44.05 38.0 44.0 37.6 44.15 35.95 44.15 32.95 Q44.15 27.6 44.65 23.95 L44.65 23.5 33.55 23.95 27.5 24.4 23.25 25.7 20.65 25.7" fill="#221c15" fill-rule="evenodd" stroke="none"/>
    <path d="M-68.95 -29.95 L-64.55 -26.2 Q-59.45 -21.0 -58.25 -15.25 L-56.75 -9.45 -55.2 -3.55 Q-54.7 -1.3 -54.65 2.95 L-54.75 7.7 Q-54.75 17.5 -56.0 23.85 L-55.95 23.85 -53.75 23.3 -50.7 23.0 -46.7 23.1 -46.7 23.2 -46.55 22.3 -46.45 21.8 -46.5 21.0 -46.05 18.45 -46.0 18.2 -45.5 15.35 -46.5 -3.5 Q-46.6 -6.05 -47.5 -12.85 -47.65 -14.8 -48.4 -17.55 L-48.75 -19.15 -48.8 -19.15 -48.85 -19.1 -48.8 -19.75 -49.0 -21.85 -49.0 -22.1 Q-49.7 -22.55 -50.45 -23.7 L-52.1 -26.25 -53.75 -28.6 -54.7 -29.85 -55.2 -29.8 -55.25 -29.8 -57.95 -29.75 -65.55 -30.0 -68.95 -29.95 M85.5 16.95 L84.9 17.25 81.9 18.5 82.3 18.9 83.65 20.2 83.35 21.0 82.15 21.2 Q80.6 21.2 79.85 19.25 L78.9 19.6 80.65 22.0 80.45 22.75 Q80.2 23.2 79.4 23.2 77.95 23.2 76.7 20.3 L71.15 21.75 72.15 22.2 71.95 22.8 Q71.7 23.2 70.9 23.2 L69.05 22.85 Q67.7 25.5 66.15 26.2 L65.45 26.05 Q65.15 25.9 65.15 25.1 65.15 24.55 66.45 22.45 L62.15 22.7 60.7 22.7 61.6 23.95 63.05 26.2 63.95 27.15 65.3 27.95 71.05 28.55 77.4 28.95 Q84.6 28.95 92.3 27.0 L90.5 23.45 Q89.95 22.05 86.55 18.15 L85.5 16.95 M-1.5 -32.0 L-2.9 -32.15 -3.5 -32.25 -4.0 -31.75 Q-9.15 -33.05 -13.25 -33.05 L-17.05 -32.95 -17.85 -32.8 -18.1 -32.85 Q-23.75 -32.45 -29.35 -31.1 -35.85 -29.55 -39.45 -27.55 -41.75 -26.25 -44.45 -23.9 L-45.35 -23.25 -45.85 -22.7 -46.7 -21.0 Q-45.8 -18.7 -45.2 -15.85 -42.25 -17.75 -32.2 -20.85 -17.4 -25.45 -7.0 -26.25 L0.0 -26.5 Q-1.15 -30.05 -1.4 -32.0 L-1.5 -32.0 M-50.85 -18.0 L-50.35 -18.2 -50.8 -17.9 -50.85 -18.0 M-49.15 17.2 L-49.25 17.2 -49.2 17.15 -49.15 17.2 M74.8 -15.0 L72.4 -14.8 Q70.45 -14.8 69.2 -16.45 L58.45 -23.65 57.65 -23.3 57.4 -23.3 Q57.45 -20.85 57.15 -18.3 L57.15 -17.85 63.3 -17.8 63.5 -17.65 63.65 -16.8 63.55 -16.1 63.3 -15.8 57.15 -15.8 57.1 -11.0 61.3 -10.8 61.5 -10.65 61.65 -9.8 61.55 -9.1 61.3 -8.8 57.05 -8.8 56.7 0.45 59.15 -1.3 59.9 -1.15 Q60.15 -1.1 60.15 -0.3 60.15 0.35 57.75 2.8 61.2 4.85 63.3 4.95 L63.65 5.7 Q63.3 6.7 61.9 6.7 60.5 6.7 56.5 4.3 L55.65 10.5 55.35 11.5 Q56.85 12.1 60.0 14.75 L64.1 18.2 68.5 18.0 68.65 17.95 Q69.05 16.6 69.65 16.2 L70.4 16.6 70.65 17.7 75.7 16.55 Q75.8 16.05 76.05 15.9 76.5 15.6 77.85 15.9 L78.65 15.6 79.15 15.45 79.15 15.25 Q79.7 14.85 80.6 14.85 L82.1 14.25 82.05 13.2 Q82.2 10.15 82.0 9.0 L80.0 0.75 78.25 -7.5 Q77.75 -9.2 76.05 -11.95 75.0 -13.75 74.8 -15.0" fill="#161412" fill-rule="evenodd" stroke="none"/>
    <path d="M-55.25 -30.3 L-55.25 -29.8 -55.2 -29.8 -55.25 -30.3" fill="#2f2b26" fill-rule="evenodd" stroke="none"/>
    <path d="M-54.7 -29.85 L-55.25 -30.3 -55.2 -29.8 -54.7 -29.85 M65.7 30.1 L65.85 30.15 65.95 30.15 65.7 30.1 M79.15 15.45 L78.65 15.6 77.85 15.9 78.05 15.95 77.95 16.35 Q77.8 16.65 77.8 17.35 L79.25 16.85 79.15 15.45 M75.7 16.55 L70.65 17.7 70.45 19.35 75.2 18.15 75.9 17.95 75.65 17.25 75.7 16.55 M68.65 17.95 L68.5 18.0 68.55 18.25 68.65 17.95 M78.5 -16.25 L78.55 -16.2 78.55 -16.25 78.5 -16.25 M63.65 20.3 L63.7 20.3 63.65 20.0 63.65 20.3" fill="#332e28" fill-rule="evenodd" stroke="none"/>
    <path d="M51.45 -8.85 L50.95 -9.05 Q50.65 -9.25 50.65 -10.05 L50.7 -10.85 50.9 -11.25 51.4 -11.25 51.6 -11.25 51.8 -13.95 51.95 -15.8 51.55 -15.8 51.35 -15.95 Q51.15 -16.15 51.15 -16.9 L51.05 -17.1 Q51.15 -17.35 51.95 -17.5 L52.1 -17.5 52.25 -19.8 Q52.4 -22.9 52.05 -25.85 51.75 -28.75 51.0 -30.25 L49.5 -29.5 49.25 -29.35 48.85 -29.1 48.5 -28.85 48.45 -28.8 47.4 -28.25 Q43.9 -26.3 34.65 -26.3 L25.4 -27.0 Q25.1 -27.2 25.2 -27.65 25.3 -28.05 24.9 -28.25 L22.75 -29.1 Q22.15 -29.2 21.55 -29.55 19.4 -30.8 17.05 -31.55 L15.8 -32.05 Q15.05 -32.4 14.65 -32.8 L13.1 -34.15 13.25 -32.75 13.2 -32.4 15.4 -23.2 17.75 -10.75 18.25 -8.55 19.65 -5.5 Q20.9 -2.85 21.25 -1.25 21.7 1.25 23.55 2.95 27.7 6.7 37.5 6.7 46.0 6.7 49.45 1.0 51.25 -2.0 51.25 -5.3 L51.45 -8.85 M44.65 23.5 L44.55 20.85 44.55 19.2 44.75 18.15 43.0 18.2 42.75 21.0 42.75 21.05 42.7 21.35 42.65 21.7 42.6 22.6 42.55 22.75 41.65 23.2 40.8 22.4 Q40.65 22.15 40.65 21.3 L40.65 21.2 40.7 18.1 39.15 18.0 39.05 19.75 38.15 20.2 Q37.45 19.35 37.25 18.0 L37.25 17.9 36.0 17.8 29.3 17.5 30.65 19.5 30.45 20.25 Q30.2 20.7 29.4 20.7 28.8 20.7 27.75 19.35 L25.65 22.2 24.8 21.95 Q24.65 21.85 24.65 20.95 24.65 19.95 26.05 17.4 L21.1 17.25 21.15 18.55 20.65 21.5 20.65 25.7 23.25 25.7 27.5 24.4 33.55 23.95 44.65 23.5" fill="#0f0c09" fill-rule="evenodd" stroke="none"/>
    <path d="M57.45 22.7 L57.5 22.6 56.85 22.45 Q57.35 21.8 56.55 20.95 L55.05 19.45 53.65 17.65 53.65 19.35 Q53.65 22.3 54.3 26.65 L55.15 34.0 55.2 34.7 Q56.2 33.5 58.1 32.35 60.2 31.0 62.2 30.85 59.95 30.0 58.7 28.75 57.15 27.3 57.15 24.05 57.15 23.2 57.45 22.7" fill="#1f1b16" fill-rule="evenodd" stroke="none"/>
    <path d="M41.9 -28.9 Q41.35 -29.05 42.65 -29.25 L43.25 -29.25 46.05 -29.55 46.75 -30.2 47.55 -31.05 Q49.3 -32.2 50.75 -32.6 L50.65 -33.5 Q50.65 -35.5 52.0 -36.85 L53.3 -37.8 52.9 -38.4 Q51.9 -40.05 48.0 -40.05 42.5 -40.05 40.05 -36.05 L38.65 -31.95 Q38.65 -31.05 39.15 -30.0 L39.65 -28.55 41.9 -28.6 41.9 -28.9 M67.15 -21.8 L66.65 -28.8 Q66.65 -32.8 66.95 -34.1 67.6 -36.8 70.05 -38.75 65.2 -37.35 61.55 -32.7 58.95 -29.4 58.55 -26.35 L58.9 -26.15 63.15 -23.3 Q65.05 -22.8 67.05 -21.6 L67.15 -21.8 M61.55 -37.1 L61.55 -37.3 57.15 -36.9 56.5 -36.45 Q54.8 -35.25 54.55 -34.55 L54.0 -32.35 Q55.45 -31.6 56.3 -29.5 57.05 -34.2 61.55 -37.1 M19.7 68.2 L19.75 68.15 21.2 66.8 Q22.2 65.85 25.05 65.95 L25.15 65.1 24.4 62.7 23.65 60.7 Q23.65 59.65 24.15 59.25 24.9 58.7 27.15 58.7 30.1 58.7 31.15 61.4 31.7 62.75 31.65 64.2 31.65 65.95 31.35 66.55 L29.65 69.75 29.65 70.0 33.95 70.55 Q34.3 70.85 34.65 71.7 L36.9 68.35 Q38.1 66.25 40.15 65.2 40.95 65.45 41.3 66.1 L41.65 67.2 43.7 65.1 Q45.7 63.05 47.15 62.2 L45.55 59.5 Q44.65 57.95 44.65 56.95 44.65 54.8 46.8 53.35 50.6 50.8 51.65 49.7 52.65 50.3 52.65 52.2 53.1 51.45 54.8 50.35 L58.15 48.2 Q55.05 44.75 53.95 40.8 53.3 38.35 53.15 33.5 53.0 29.0 52.3 25.75 51.65 22.85 51.65 19.25 L51.45 16.65 50.55 17.25 Q49.45 17.7 47.55 17.95 L47.15 19.2 Q46.65 20.65 46.65 22.75 L46.15 28.0 Q45.95 30.05 46.05 33.15 L46.15 37.2 Q47.0 37.55 47.15 38.2 47.0 39.0 44.75 39.7 40.3 41.2 29.9 41.2 L19.05 41.6 Q19.85 41.25 19.65 40.2 L19.65 39.45 Q19.15 38.25 19.15 37.5 L18.95 35.85 18.65 34.2 Q18.45 32.8 18.55 30.35 L18.65 27.2 18.75 21.65 18.55 21.65 18.5 21.7 18.5 21.4 18.5 20.25 18.5 19.15 18.5 18.0 Q18.6 17.1 19.05 16.5 L19.0 16.5 17.6 16.4 Q17.15 16.0 16.5 16.05 L16.5 16.1 Q14.75 15.45 13.3 13.9 13.0 14.7 13.0 15.25 L13.0 19.0 Q13.0 20.55 13.3 22.95 L14.15 22.7 14.15 22.9 13.75 23.0 13.35 23.05 13.4 23.5 13.9 26.5 14.0 27.05 14.1 29.55 14.15 30.0 14.0 30.15 14.15 33.95 Q14.65 37.3 14.65 46.25 L14.55 52.4 Q14.3 55.7 12.8 59.45 16.5 57.75 18.75 61.75 20.8 65.4 19.65 68.0 L19.7 68.2" fill="#046193" fill-rule="evenodd" stroke="none"/>
    <path d="M80.55 -42.05 Q79.75 -41.1 78.25 -40.9 76.45 -40.65 75.55 -40.05 70.0 -36.5 69.0 -34.4 68.65 -33.6 68.65 -28.8 68.65 -25.8 69.15 -22.55 69.4 -20.75 69.8 -19.55 71.15 -18.35 71.15 -17.4 L71.15 -17.25 71.9 -17.0 Q79.0 -17.0 82.15 -24.0 84.15 -28.45 84.15 -34.3 84.15 -38.25 83.65 -40.05 82.3 -42.55 80.55 -42.05" fill="#023f60" fill-rule="evenodd" stroke="none"/>
    <path d="M-33.6 -35.85 Q-30.9 -33.9 -30.4 -32.6 L-19.7 -34.65 -20.5 -35.85 Q-22.3 -38.85 -22.35 -40.2 -22.75 -40.3 -22.85 -40.5 L-22.7 -41.25 -31.2 -38.55 -35.7 -37.15 -33.6 -35.85 M-50.6 -34.4 L-52.35 -33.8 -56.95 -33.8 -55.25 -32.8 Q-52.9 -31.4 -50.0 -27.8 L-47.55 -24.5 -45.6 -26.15 -43.5 -27.6 -46.25 -31.0 Q-48.05 -33.2 -50.6 -34.4 M-6.3 -36.95 Q-4.85 -35.2 -4.85 -34.65 L-4.85 -34.45 -2.35 -34.2 -2.3 -35.0 -2.4 -35.15 Q-3.45 -36.9 -4.85 -37.8 L-7.85 -38.7 -6.3 -36.95 M-61.8 37.3 L-62.2 37.4 -63.8 37.8 -63.9 37.8 -66.55 38.5 -70.2 39.6 -70.25 40.1 Q-70.25 42.8 -64.45 49.45 -59.65 54.95 -57.25 56.7 -51.25 61.0 -46.8 62.7 -39.0 65.7 -22.95 67.95 L-24.55 65.6 -25.85 63.0 -25.65 62.5 -24.6 62.2 Q-24.4 62.2 -17.35 66.0 L-10.55 67.5 -2.35 69.0 -5.95 65.75 Q-8.8 63.4 -8.85 61.95 L-8.7 61.4 -7.85 61.2 Q-7.1 61.2 -2.55 63.55 3.35 65.85 11.3 65.45 L12.05 65.45 Q9.8 60.95 7.65 57.95 8.05 57.25 8.65 57.2 L9.5 58.2 Q9.9 57.85 10.45 57.6 L10.85 57.45 10.95 57.05 12.0 53.9 12.15 53.3 12.15 53.2 12.35 51.9 0.0 52.95 Q-11.2 52.95 -27.75 51.0 -47.4 48.65 -53.0 45.5 L-56.05 43.5 -59.45 41.2 -61.1 38.05 Q-61.4 37.5 -61.8 37.3" fill="#5b5042" fill-rule="evenodd" stroke="none"/>
    <path d="M12.35 51.9 L12.65 46.2 11.65 27.8 11.65 27.65 11.15 25.05 Q11.0 23.75 11.0 18.9 10.5 17.1 10.55 15.15 10.65 12.9 11.7 11.7 L11.55 11.5 Q9.5 7.95 9.0 4.05 8.75 1.85 7.6 -2.1 6.35 -6.5 6.0 -8.25 5.5 -11.0 1.8 -21.2 L0.45 -25.15 -3.05 -24.8 Q-10.2 -24.25 -18.25 -22.25 L-24.7 -20.35 Q-27.8 -19.3 -29.0 -19.1 -32.45 -18.5 -38.5 -15.9 -43.65 -13.65 -44.85 -13.5 L-44.1 -3.75 Q-43.5 4.65 -43.5 15.5 -43.5 17.7 -43.8 19.6 L-42.8 20.7 -42.85 20.7 -43.5 20.45 -44.6 24.7 Q-46.0 29.3 -47.2 30.45 L-50.0 33.25 Q-51.8 34.95 -52.75 35.2 L-61.8 37.3 Q-61.4 37.5 -61.1 38.05 L-59.45 41.2 -56.05 43.5 -53.0 45.5 Q-47.4 48.65 -27.75 51.0 -11.2 52.95 0.0 52.95 L12.35 51.9" fill="#3f362e" fill-rule="evenodd" stroke="none"/>
    <path d="M-1.45 -59.75 L-1.0 -59.95 Q-0.65 -60.15 -0.05 -60.45 L-0.05 -60.5 -1.1 -60.2 -1.55 -60.05 -1.45 -59.75 M20.4 16.75 L20.45 16.25 20.3 16.2 20.0 16.3 20.4 16.75" fill="#242939" fill-rule="evenodd" stroke="none"/>
  </g>
</svg>
