<?xml version="1.0" encoding="UTF-8" standalone="no"?>
<svg xmlns:ffdec="https://www.free-decompiler.com/flash" xmlns:xlink="http://www.w3.org/1999/xlink" ffdec:objectType="shape" height="127.2px" width="134.3px" xmlns="http://www.w3.org/2000/svg">
  <g transform="matrix(1.0, 0.0, 0.0, 1.0, 40.55, 66.85)">
    <path d="M15.5 -64.55 L12.65 -63.85 Q10.5 -63.15 9.8 -63.15 L7.6 -62.7 5.4 -62.25 Q2.85 -62.25 -1.9 -59.3 L-6.95 -55.7 Q-5.45 -55.0 -4.3 -53.6 L-3.25 -52.2 Q-0.35 -54.15 2.0 -54.85 L5.5 -54.7 13.05 -58.6 Q19.7 -61.7 23.2 -61.7 L25.85 -61.6 Q21.95 -64.55 15.5 -64.55 M2.75 -53.0 L2.55 -53.0 Q1.45 -53.0 -1.4 -50.65 L-2.85 -49.45 Q-7.45 -45.5 -7.45 -42.55 -7.45 -41.1 -6.8 -40.45 -5.05 -38.8 0.85 -38.8 2.4 -38.8 4.1 -40.55 4.1 -41.35 4.25 -41.45 L4.4 -41.55 4.8 -41.3 5.9 -42.8 Q8.3 -46.4 8.3 -48.15 L7.6 -50.65 Q6.25 -52.95 2.75 -53.0 M7.75 -65.15 L15.85 -66.8 20.35 -66.85 Q21.65 -65.75 23.65 -65.75 L23.2 -65.2 Q26.65 -64.3 29.65 -60.45 L29.9 -60.15 30.65 -59.05 Q33.6 -54.55 33.6 -51.55 L33.3 -47.3 Q36.1 -45.95 39.85 -40.2 42.85 -35.7 43.7 -32.85 L43.85 -32.3 44.9 -33.0 49.95 -35.95 50.2 -36.1 51.0 -36.5 Q51.85 -35.75 52.9 -35.45 L52.8 -35.4 53.25 -35.05 54.1 -34.35 Q59.15 -30.2 66.95 -24.2 74.1 -18.45 78.75 -13.5 92.8 6.25 92.8 11.3 92.8 12.0 93.3 13.65 L93.75 16.0 Q93.75 21.15 91.75 24.2 88.55 29.05 80.3 29.05 76.6 29.05 70.5 25.65 68.35 24.45 59.1 18.45 48.8 11.75 46.4 9.1 42.2 4.7 37.05 -2.25 L35.9 -3.85 32.6 -2.4 Q30.35 -1.35 26.85 -1.35 L22.3 -1.65 19.15 2.75 Q15.9 7.0 15.3 7.0 L15.15 7.0 15.05 7.25 15.0 7.3 Q16.1 8.15 16.75 9.95 L17.7 13.3 19.4 17.5 20.45 20.45 Q20.45 21.65 18.35 22.55 18.95 25.7 18.7 28.45 18.4 31.6 17.05 33.3 L16.55 33.05 16.55 33.85 Q16.55 36.05 13.15 36.15 9.1 35.9 7.8 36.2 L8.15 36.35 5.35 36.35 0.8 36.2 0.55 36.45 Q-1.0 38.1 -4.15 39.7 L-9.2 42.45 Q-11.05 43.6 -13.7 45.75 -14.8 46.65 -19.45 48.7 -22.95 50.25 -23.6 52.15 L-24.5 56.7 Q-25.5 60.35 -27.35 60.35 -30.75 60.35 -34.4 47.75 L-34.35 47.45 -35.1 46.95 Q-35.5 46.55 -35.5 45.7 L-35.9 41.75 -36.3 38.45 -37.5 36.05 -38.4 33.3 Q-38.4 30.65 -37.35 28.15 -35.8 24.4 -32.55 24.4 L-31.65 24.45 -31.1 23.75 -30.0 22.75 -34.75 19.95 Q-40.55 16.25 -40.55 14.55 -40.55 13.15 -39.5 11.35 L-38.55 10.1 -38.75 9.85 -39.0 8.8 Q-39.0 6.6 -35.5 1.75 -32.2 -2.8 -27.65 -7.25 -22.9 -11.9 -19.5 -13.7 -17.2 -14.9 -16.0 -14.45 L-15.6 -14.95 -16.9 -15.7 Q-25.25 -20.75 -25.25 -29.95 -25.25 -35.95 -21.65 -42.55 -18.25 -48.75 -13.1 -53.1 L-7.4 -57.7 -1.05 -62.45 Q0.4 -63.4 7.75 -65.15 M13.75 -22.05 L15.0 -23.05 15.15 -23.2 17.8 -25.5 Q31.35 -38.05 31.35 -50.25 31.35 -54.15 29.25 -57.75 L29.1 -58.05 28.6 -58.05 Q27.9 -58.05 26.55 -58.75 25.25 -59.5 23.0 -59.5 19.6 -59.5 13.45 -56.25 9.75 -54.3 7.8 -53.5 10.55 -51.8 10.55 -50.5 10.55 -49.05 9.95 -46.25 L9.0 -42.75 6.45 -40.1 Q9.25 -37.65 11.25 -33.05 13.65 -27.5 13.65 -22.2 L13.65 -21.95 13.75 -22.05 M35.85 -40.85 L32.95 -45.25 Q31.2 -37.15 24.85 -30.25 21.25 -26.3 16.85 -22.35 L19.05 -18.65 Q20.85 -16.35 24.95 -16.35 L27.1 -17.0 Q28.55 -17.7 29.2 -17.7 L31.8 -18.3 32.6 -16.85 Q34.4 -20.5 38.4 -27.05 39.2 -28.7 41.75 -30.7 L39.95 -34.65 Q39.6 -35.55 35.85 -40.85 M5.05 -38.85 Q2.3 -36.6 0.7 -36.6 -5.8 -36.6 -8.25 -38.7 L-8.9 -37.7 -10.9 -35.75 Q-11.7 -34.0 -14.4 -30.35 L-17.1 -24.65 Q-18.45 -21.8 -19.35 -20.7 -15.25 -15.4 -9.4 -15.4 L-6.1 -14.75 -2.85 -14.15 Q0.75 -14.15 6.5 -17.3 8.95 -18.65 11.35 -20.3 L10.8 -26.6 Q10.8 -31.0 7.45 -35.5 L5.05 -38.85 M31.7 -15.8 L30.4 -15.4 30.4 -15.35 Q26.15 -14.05 25.1 -14.05 20.45 -14.05 17.2 -18.05 16.0 -19.55 15.3 -21.05 L13.6 -19.6 Q8.0 -15.0 4.7 -13.55 L6.9 -11.65 Q9.35 -9.15 10.55 -8.25 12.85 -6.6 17.9 -4.1 L18.75 -3.7 19.15 -4.2 22.9 -4.5 29.5 -3.8 Q29.85 -3.7 32.8 -5.05 33.95 -5.6 34.65 -5.6 31.0 -10.9 31.0 -12.65 31.0 -13.5 32.0 -15.6 L32.15 -15.95 31.7 -15.8 M3.15 -13.05 L2.15 -12.95 -0.65 -12.45 -3.5 -11.95 Q-9.05 -11.95 -14.1 -14.25 L-13.4 -11.35 Q-12.55 -7.75 -10.7 -6.2 L-8.6 -3.55 Q-7.25 -1.55 -6.5 -1.05 -3.9 0.7 3.0 3.55 9.7 6.3 10.9 6.3 L12.65 6.1 14.55 6.35 14.55 5.75 Q15.25 4.2 16.7 2.2 L19.35 -1.1 Q15.55 -2.45 10.5 -5.55 3.5 -9.85 3.15 -13.05 M47.8 -32.45 Q46.15 -31.65 44.45 -30.05 L43.15 -29.25 Q42.15 -28.45 41.85 -27.15 L37.9 -22.15 Q33.1 -15.55 33.1 -12.85 33.1 -11.75 35.7 -7.95 L37.45 -5.45 38.45 -4.0 38.7 -3.7 38.7 -3.65 Q40.9 -5.3 46.1 -8.6 51.3 -12.15 52.9 -14.55 L58.15 -20.35 Q60.5 -23.05 62.8 -24.45 L62.7 -24.55 60.55 -26.25 59.25 -27.55 54.85 -31.8 Q51.5 -34.25 47.8 -32.45 M61.75 -21.1 L60.05 -19.0 54.3 -12.75 Q52.4 -10.6 47.15 -6.7 41.8 -2.75 39.5 -2.25 40.55 -0.45 42.1 1.25 L47.15 6.3 47.75 6.85 49.1 8.05 49.2 8.15 Q49.85 7.1 52.75 6.0 56.7 4.6 57.65 3.85 63.05 -0.1 65.35 -2.2 67.25 -3.75 71.3 -9.05 73.9 -12.45 75.95 -13.35 L73.25 -16.3 Q68.75 -20.95 63.9 -23.85 L63.6 -24.0 61.75 -21.1 M60.0 16.25 L61.7 17.4 61.7 17.25 Q63.7 15.8 68.75 13.15 73.5 10.7 75.8 8.85 L80.35 3.3 Q82.8 0.65 85.2 0.1 L83.25 -3.2 82.85 -3.8 Q79.7 -8.8 76.4 -12.8 L76.35 -12.7 74.85 -10.0 Q72.05 -5.65 66.5 -0.1 57.5 8.9 50.7 9.45 54.45 12.55 60.0 16.25 M71.85 23.6 L74.15 24.8 74.25 24.05 Q75.35 22.9 79.75 20.25 L85.3 16.55 88.9 12.1 89.95 10.45 90.3 10.2 89.0 7.1 88.7 6.5 85.45 0.5 83.25 3.95 81.75 5.75 77.1 10.5 Q75.15 12.45 69.65 15.6 65.3 18.05 63.55 18.6 L63.65 18.65 71.85 23.6 M89.5 23.65 Q91.7 17.5 91.7 16.8 91.7 14.8 90.95 12.2 89.3 14.7 85.55 18.7 79.8 24.9 75.8 25.55 78.95 26.85 80.75 26.85 84.5 26.85 86.65 26.05 88.6 25.3 89.5 23.65 M16.35 29.75 L16.45 27.6 16.55 25.55 16.05 23.4 Q15.5 21.9 15.5 21.2 L16.4 19.9 17.3 18.8 Q17.3 17.75 15.3 13.05 L13.05 8.15 11.25 8.55 Q9.0 8.55 3.4 6.2 -1.25 4.3 -5.25 2.1 L-8.5 0.05 -10.5 -2.55 Q-13.4 -6.05 -14.7 -8.25 -16.1 -10.65 -16.35 -12.5 -22.55 -9.65 -28.15 -3.65 -33.0 1.6 -36.7 8.3 L-35.5 8.8 -31.75 7.35 Q-28.55 6.25 -27.9 6.25 -26.65 6.25 -26.05 6.95 -25.7 7.35 -25.7 7.7 L-25.9 8.7 -21.5 7.1 Q-17.4 5.6 -16.8 5.6 L-15.8 5.75 -15.65 6.6 -16.0 8.15 -16.25 9.25 -13.05 7.1 -10.2 5.25 -8.0 8.45 -5.45 12.95 -4.95 11.95 -3.8 10.65 -0.45 15.45 Q1.6 18.45 2.75 19.1 2.55 18.75 2.7 18.2 2.9 17.5 3.75 16.8 6.65 21.5 8.95 24.2 12.35 28.2 16.1 30.2 L16.2 30.25 16.35 29.75 M3.4 33.25 L8.05 34.1 11.5 34.0 14.4 33.55 Q14.05 32.65 14.15 32.15 L14.25 31.9 Q11.5 30.3 9.4 28.2 7.8 26.55 4.95 22.45 L4.75 23.15 Q4.5 23.55 3.65 23.55 3.1 23.55 2.05 22.3 L0.15 19.7 Q-2.8 15.2 -3.8 14.4 L-3.75 14.75 -3.7 15.9 Q-3.65 16.65 -3.75 17.05 L-4.9 17.05 -6.75 14.8 Q-7.9 13.5 -7.9 12.75 L-9.0 11.0 -10.85 8.35 -14.15 10.4 -17.1 12.0 Q-18.45 12.0 -18.65 11.6 -18.4 8.9 -18.55 8.5 -19.9 8.65 -23.3 10.15 L-25.4 10.95 -28.25 11.45 Q-29.6 11.45 -29.25 11.05 L-29.05 8.65 -35.85 10.85 -36.15 11.3 -38.4 14.55 -32.3 18.5 -29.6 20.2 -25.5 22.4 -25.45 22.45 -23.95 23.1 -17.85 25.6 -16.0 26.55 -15.85 26.5 -15.65 26.75 -12.75 28.35 Q-8.55 30.65 1.15 32.75 L1.35 32.7 1.45 32.85 3.4 33.25 M-6.55 -52.25 Q-8.0 -53.7 -8.35 -54.55 L-11.4 -51.8 Q-23.15 -40.35 -23.15 -30.55 -23.15 -26.4 -20.35 -22.1 -17.55 -29.55 -16.55 -31.45 -13.8 -36.65 -9.35 -40.1 -9.75 -40.95 -9.75 -42.0 -9.75 -43.85 -7.65 -47.3 L-5.0 -50.85 -6.55 -52.25 M-25.8 32.5 L-25.4 32.3 -20.5 29.1 -18.5 27.9 -19.75 27.2 Q-22.8 25.55 -25.0 24.85 L-25.1 26.0 -25.55 28.7 -25.2 30.3 Q-25.1 31.8 -26.05 32.1 L-27.2 30.25 -27.8 29.05 -26.45 24.35 -26.85 24.2 Q-31.3 25.35 -31.3 29.55 L-31.0 32.3 Q-30.95 33.8 -31.4 34.75 L-31.55 35.0 -31.15 34.8 -25.85 32.55 -25.8 32.5 M-32.7 46.0 L-30.75 45.85 Q-24.45 47.45 -17.3 44.6 -13.1 42.9 -11.1 41.15 -9.8 40.05 -7.85 38.95 -5.7 37.65 -4.35 37.3 -2.8 36.85 -1.9 35.95 -6.95 35.35 -9.7 33.75 -12.05 32.4 -12.95 30.7 L-16.1 29.15 Q-16.6 29.6 -17.45 30.1 L-23.05 33.2 Q-24.6 34.35 -29.7 36.45 -34.0 38.2 -34.0 38.75 L-33.35 42.15 -32.75 45.5 -32.95 46.05 -32.7 46.0 M-32.85 35.2 L-33.2 31.85 -33.5 29.2 -33.2 27.3 Q-34.8 27.85 -35.1 28.25 -36.25 29.65 -36.25 32.75 -36.25 33.4 -35.4 35.1 L-34.8 36.55 -32.7 35.5 -32.5 35.4 -32.85 35.2 M-31.95 48.3 L-32.1 49.15 Q-32.1 49.7 -30.2 53.25 -28.25 56.95 -27.35 57.75 L-25.25 50.6 Q-25.25 50.15 -26.7 49.3 -28.55 48.15 -30.85 48.15 L-31.95 48.3" fill="#000000" fill-rule="evenodd" stroke="none"/>
    <path d="M32.0 -15.6 Q31.0 -13.5 31.0 -12.65 31.0 -10.9 34.65 -5.6 33.95 -5.6 32.8 -5.05 29.85 -3.7 29.5 -3.8 L22.9 -4.5 19.15 -4.2 18.75 -3.7 17.9 -4.1 Q12.85 -6.6 10.55 -8.25 9.35 -9.15 6.9 -11.65 L4.7 -13.55 Q8.0 -15.0 13.6 -19.6 L15.3 -21.05 Q16.0 -19.55 17.2 -18.05 20.45 -14.05 25.1 -14.05 26.15 -14.05 30.4 -15.35 L30.4 -15.4 31.7 -15.8 32.0 -15.6" fill="#cdac98" fill-rule="evenodd" stroke="none"/>
    <path d="M35.85 -40.85 Q39.6 -35.55 39.95 -34.65 L41.75 -30.7 Q39.2 -28.7 38.4 -27.05 34.4 -20.5 32.6 -16.85 L31.8 -18.3 29.2 -17.7 Q28.55 -17.7 27.1 -17.0 L24.95 -16.35 Q20.85 -16.35 19.05 -18.65 L16.85 -22.35 Q21.25 -26.3 24.85 -30.25 31.2 -37.15 32.95 -45.25 L35.85 -40.85 M3.15 -13.05 Q3.5 -9.85 10.5 -5.55 15.55 -2.45 19.35 -1.1 L16.7 2.2 Q15.25 4.2 14.55 5.75 L14.55 6.35 12.65 6.1 10.9 6.3 Q9.7 6.3 3.0 3.55 -3.9 0.7 -6.5 -1.05 -7.25 -1.55 -8.6 -3.55 L-10.7 -6.2 Q-12.55 -7.75 -13.4 -11.35 L-14.1 -14.25 Q-9.05 -11.95 -3.5 -11.95 L-0.65 -12.45 2.15 -12.95 3.15 -13.05" fill="#11100f" fill-rule="evenodd" stroke="none"/>
    <path d="M16.1 30.2 Q12.35 28.2 8.95 24.2 6.65 21.5 3.75 16.8 2.9 17.5 2.7 18.2 2.55 18.75 2.75 19.1 1.6 18.45 -0.45 15.45 L-3.8 10.65 -4.95 11.95 -5.45 12.95 -8.0 8.45 -10.2 5.25 -13.05 7.1 -16.25 9.25 -16.0 8.15 -15.65 6.6 -15.8 5.75 -16.8 5.6 Q-17.4 5.6 -21.5 7.1 L-25.9 8.7 -25.7 7.7 Q-25.7 7.35 -26.05 6.95 -26.65 6.25 -27.9 6.25 -28.55 6.25 -31.75 7.35 L-35.5 8.8 -36.7 8.3 Q-33.0 1.6 -28.15 -3.65 -22.55 -9.65 -16.35 -12.5 -16.1 -10.65 -14.7 -8.25 -13.4 -6.05 -10.5 -2.55 L-8.5 0.05 -5.25 2.1 Q-1.25 4.3 3.4 6.2 9.0 8.55 11.25 8.55 L13.05 8.15 15.3 13.05 Q17.3 17.75 17.3 18.8 L16.4 19.9 15.5 21.2 Q15.5 21.9 16.05 23.4 L16.55 25.55 16.45 27.6 16.35 29.75 16.1 30.2 M-31.4 34.75 Q-30.95 33.8 -31.0 32.3 L-31.3 29.55 Q-31.3 25.35 -26.85 24.2 L-26.45 24.35 -27.8 29.05 -27.2 30.25 -26.05 32.1 Q-25.1 31.8 -25.2 30.3 L-25.55 28.7 -25.1 26.0 -25.0 24.85 Q-22.8 25.55 -19.75 27.2 L-18.5 27.9 -20.5 29.1 -25.4 32.3 -25.8 32.5 -26.05 32.1 -25.85 32.55 -31.15 34.8 -31.4 34.75 M-32.7 35.5 L-34.8 36.55 -35.4 35.1 Q-36.25 33.4 -36.25 32.75 -36.25 29.65 -35.1 28.25 -34.8 27.85 -33.2 27.3 L-33.5 29.2 -33.2 31.85 -32.85 35.2 -32.7 35.5" fill="#332d26" fill-rule="evenodd" stroke="none"/>
    <path d="M-1.4 -50.65 L-2.3 -48.85 -2.2 -47.5 -2.05 -46.3 -1.7 -46.0 -0.45 -45.75 Q2.35 -45.75 3.45 -47.75 4.4 -49.4 3.75 -51.0 L2.75 -53.0 Q6.25 -52.95 7.6 -50.65 L8.3 -48.15 Q8.3 -46.4 5.9 -42.8 L4.8 -41.3 4.4 -41.55 4.25 -41.45 Q4.1 -41.35 4.1 -40.55 2.4 -38.8 0.85 -38.8 -5.05 -38.8 -6.8 -40.45 -7.45 -41.1 -7.45 -42.55 -7.45 -45.5 -2.85 -49.45 L-1.4 -50.65" fill="#666666" fill-rule="evenodd" stroke="none"/>
    <path d="M13.65 -22.2 Q13.65 -27.5 11.25 -33.05 9.25 -37.65 6.45 -40.1 L9.0 -42.75 9.95 -46.25 Q10.55 -49.05 10.55 -50.5 10.55 -51.8 7.8 -53.5 9.75 -54.3 13.45 -56.25 19.6 -59.5 23.0 -59.5 25.25 -59.5 26.55 -58.75 27.9 -58.05 28.6 -58.05 L29.1 -58.05 29.25 -57.75 Q31.35 -54.15 31.35 -50.25 31.35 -38.05 17.8 -25.5 L15.15 -23.2 15.0 -23.05 13.75 -22.05 13.65 -22.2 M-6.55 -52.25 L-5.0 -50.85 -7.65 -47.3 Q-9.75 -43.85 -9.75 -42.0 -9.75 -40.95 -9.35 -40.1 -13.8 -36.65 -16.55 -31.45 -17.55 -29.55 -20.35 -22.1 -23.15 -26.4 -23.15 -30.55 -23.15 -40.35 -11.4 -51.8 L-8.35 -54.55 Q-8.0 -53.7 -6.55 -52.25" fill="#094768" fill-rule="evenodd" stroke="none"/>
    <path d="M-1.4 -50.65 Q1.45 -53.0 2.55 -53.0 L2.75 -53.0 3.75 -51.0 Q4.4 -49.4 3.45 -47.75 2.35 -45.75 -0.45 -45.75 L-1.7 -46.0 -2.05 -46.3 -2.2 -47.5 -2.3 -48.85 -1.4 -50.65" fill="#cccccc" fill-rule="evenodd" stroke="none"/>
    <path d="M15.5 -64.55 Q21.95 -64.55 25.85 -61.6 L23.2 -61.7 Q19.7 -61.7 13.05 -58.6 L5.5 -54.7 2.0 -54.85 Q-0.35 -54.15 -3.25 -52.2 L-4.3 -53.6 Q-5.45 -55.0 -6.95 -55.7 L-1.9 -59.3 Q2.85 -62.25 5.4 -62.25 L7.6 -62.7 9.8 -63.15 Q10.5 -63.15 12.65 -63.85 L15.5 -64.55 M2.05 22.3 Q3.1 23.55 3.65 23.55 4.5 23.55 4.75 23.15 L4.95 22.45 Q7.8 26.55 9.4 28.2 11.5 30.3 14.25 31.9 L14.15 32.15 Q14.05 32.65 14.4 33.55 L11.5 34.0 8.05 34.1 3.4 33.25 3.15 32.55 Q2.1 29.7 2.25 28.45 2.4 26.9 2.15 24.1 L2.05 22.3 M-29.6 20.2 L-32.3 18.5 -38.4 14.55 -36.15 11.3 -35.85 10.85 -29.05 8.65 -29.25 11.05 Q-29.6 11.45 -28.25 11.45 L-25.4 10.95 Q-26.45 13.8 -28.35 17.75 L-29.6 20.2" fill="#046193" fill-rule="evenodd" stroke="none"/>
    <path d="M5.05 -38.85 L7.45 -35.5 Q10.8 -31.0 10.8 -26.6 L11.35 -20.3 Q8.95 -18.65 6.5 -17.3 0.75 -14.15 -2.85 -14.15 L-6.1 -14.75 -9.4 -15.4 Q-15.25 -15.4 -19.35 -20.7 -18.45 -21.8 -17.1 -24.65 L-14.4 -30.35 Q-11.7 -34.0 -10.9 -35.75 L-8.9 -37.7 -8.25 -38.7 Q-5.8 -36.6 0.7 -36.6 2.3 -36.6 5.05 -38.85 M3.4 33.25 L1.45 32.85 1.35 32.7 1.15 32.75 Q-8.55 30.65 -12.75 28.35 L-15.65 26.75 -15.85 26.5 -16.0 26.55 -17.85 25.6 -23.95 23.1 -25.45 22.45 -25.5 22.4 -29.6 20.2 -28.35 17.75 Q-26.45 13.8 -25.4 10.95 L-23.3 10.15 Q-19.9 8.65 -18.55 8.5 -18.4 8.9 -18.65 11.6 -18.45 12.0 -17.1 12.0 L-14.15 10.4 -10.85 8.35 -9.0 11.0 -7.9 12.75 Q-7.9 13.5 -6.75 14.8 L-4.9 17.05 -3.75 17.05 Q-3.65 16.65 -3.7 15.9 L-3.75 14.75 -3.8 14.4 Q-2.8 15.2 0.15 19.7 L2.05 22.3 2.15 24.1 Q2.4 26.9 2.25 28.45 2.1 29.7 3.15 32.55 L3.4 33.25" fill="#023f60" fill-rule="evenodd" stroke="none"/>
    <path d="M37.45 -5.45 L35.7 -7.95 Q33.1 -11.75 33.1 -12.85 33.1 -15.55 37.9 -22.15 L41.85 -27.15 Q42.15 -28.45 43.15 -29.25 L44.45 -30.05 Q46.15 -31.65 47.8 -32.45 49.5 -29.9 54.85 -25.5 55.65 -24.8 57.45 -23.95 L57.85 -24.3 53.5 -20.5 36.65 -6.6 37.45 -5.45 M47.75 6.85 L47.15 6.3 42.1 1.25 Q40.55 -0.45 39.5 -2.25 41.8 -2.75 47.15 -6.7 52.4 -10.6 54.3 -12.75 L60.05 -19.0 61.75 -21.1 66.85 -17.0 68.5 -15.05 Q69.7 -13.7 70.35 -13.5 64.35 -7.3 62.0 -5.5 L51.0 3.05 Q49.6 4.25 47.5 6.65 L47.75 6.85 M60.0 16.25 Q54.45 12.55 50.7 9.45 57.5 8.9 66.5 -0.1 72.05 -5.65 74.85 -10.0 L74.2 -9.0 76.75 -6.0 79.0 -3.0 Q79.6 -2.3 80.3 -1.95 77.85 -0.1 71.25 5.3 L62.4 14.05 60.0 16.25 M83.25 3.95 L84.1 5.3 Q85.8 8.0 86.85 8.95 L83.25 12.3 76.7 18.85 71.85 23.6 63.65 18.65 63.55 18.6 Q65.3 18.05 69.65 15.6 75.15 12.45 77.1 10.5 L81.75 5.75 83.25 3.95 M89.5 23.65 Q88.6 25.3 86.65 26.05 84.5 26.85 80.75 26.85 78.95 26.85 75.8 25.55 79.8 24.9 85.55 18.7 89.3 14.7 90.95 12.2 91.7 14.8 91.7 16.8 91.7 17.5 89.5 23.65 M-32.75 45.5 L-33.35 42.15 -34.0 38.75 Q-34.0 38.2 -29.7 36.45 -24.6 34.35 -23.05 33.2 L-17.45 30.1 Q-16.6 29.6 -16.1 29.15 L-12.95 30.7 Q-12.05 32.4 -9.7 33.75 -6.95 35.35 -1.9 35.95 -2.8 36.85 -4.35 37.3 -5.7 37.65 -7.85 38.95 -9.8 40.05 -11.1 41.15 -13.1 42.9 -17.3 44.6 -24.45 47.45 -30.75 45.85 L-32.7 46.0 -32.75 45.5 M-31.95 48.3 L-30.85 48.15 Q-28.55 48.15 -26.7 49.3 -25.25 50.15 -25.25 50.6 L-27.35 57.75 Q-28.25 56.95 -30.2 53.25 -32.1 49.7 -32.1 49.15 L-31.95 48.3" fill="#4b3c36" fill-rule="evenodd" stroke="none"/>
    <path d="M47.8 -32.45 Q51.5 -34.25 54.85 -31.8 L59.25 -27.55 60.55 -26.25 62.7 -24.55 62.8 -24.45 Q60.5 -23.05 58.15 -20.35 L52.9 -14.55 Q51.3 -12.15 46.1 -8.6 40.9 -5.3 38.7 -3.65 L38.7 -3.7 38.45 -4.0 37.45 -5.45 36.65 -6.6 53.5 -20.5 57.85 -24.3 57.45 -23.95 Q55.65 -24.8 54.85 -25.5 49.5 -29.9 47.8 -32.45 M61.75 -21.1 L63.6 -24.0 63.9 -23.85 Q68.75 -20.95 73.25 -16.3 L75.95 -13.35 Q73.9 -12.45 71.3 -9.05 67.25 -3.75 65.35 -2.2 63.05 -0.1 57.65 3.85 56.7 4.6 52.75 6.0 49.85 7.1 49.2 8.15 L49.1 8.05 47.75 6.85 47.5 6.65 Q49.6 4.25 51.0 3.05 L62.0 -5.5 Q64.35 -7.3 70.35 -13.5 69.7 -13.7 68.5 -15.05 L66.85 -17.0 61.75 -21.1 M74.85 -10.0 L76.35 -12.7 76.4 -12.8 Q79.7 -8.8 82.85 -3.8 L83.25 -3.2 85.2 0.1 Q82.8 0.65 80.35 3.3 L75.8 8.85 Q73.5 10.7 68.75 13.15 63.7 15.8 61.7 17.25 L61.7 17.4 60.0 16.25 62.4 14.05 71.25 5.3 Q77.85 -0.1 80.3 -1.95 79.6 -2.3 79.0 -3.0 L76.75 -6.0 74.2 -9.0 74.85 -10.0 M83.25 3.95 L85.45 0.5 88.7 6.5 89.0 7.1 90.3 10.2 89.95 10.45 88.9 12.1 85.3 16.55 79.75 20.25 Q75.35 22.9 74.25 24.05 L74.15 24.8 71.85 23.6 76.7 18.85 83.25 12.3 86.85 8.95 Q85.8 8.0 84.1 5.3 L83.25 3.95" fill="#795c55" fill-rule="evenodd" stroke="none"/>
  </g>
</svg>
