<?xml version="1.0" encoding="UTF-8" standalone="no"?>
<svg xmlns:ffdec="https://www.free-decompiler.com/flash" xmlns:xlink="http://www.w3.org/1999/xlink" ffdec:objectType="shape" height="107.95px" width="418.4px" xmlns="http://www.w3.org/2000/svg">
  <g transform="matrix(1.0, 0.0, 0.0, 1.0, 93.65, 62.7)">
    <path d="M306.4 22.6 Q307.25 23.1 307.8 24.35 308.4 25.8 307.7 26.65 306.35 28.45 307.85 29.5 309.5 30.65 309.15 31.3 L305.9 31.6 Q304.1 32.05 303.45 32.8 303.05 34.15 301.95 34.45 300.05 35.2 294.2 33.2 290.5 31.95 290.8 30.7 291.0 30.05 292.15 29.3 292.8 28.45 292.5 27.7 292.05 26.6 290.95 25.95 290.15 25.5 290.3 25.3 290.8 24.65 290.9 24.95 L295.0 24.75 296.6 22.9 Q297.75 20.75 300.65 21.0 302.3 21.15 306.4 22.6 M302.15 31.9 L303.75 30.7 Q305.0 30.05 305.95 30.05 303.95 28.9 304.45 27.9 L305.65 26.7 Q306.65 25.8 306.35 25.05 305.75 23.7 301.5 22.2 L299.45 22.8 Q297.85 23.05 297.8 23.95 L296.45 25.55 Q295.35 26.55 293.85 26.5 294.9 27.85 293.45 29.75 292.95 30.4 293.35 31.0 293.8 31.6 295.25 32.1 299.55 33.5 301.2 32.95 L302.15 31.9" fill="#000000" fill-rule="evenodd" stroke="none"/>
    <path d="M293.35 31.0 Q292.95 30.4 293.45 29.75 294.9 27.85 293.85 26.5 295.35 26.55 296.45 25.55 L297.8 23.95 Q297.85 23.05 299.45 22.8 L301.5 22.2 Q305.75 23.7 306.35 25.05 306.65 25.8 305.65 26.7 L304.45 27.9 Q303.95 28.9 305.95 30.05 305.0 30.05 303.75 30.7 L302.15 31.9 Q301.9 31.15 300.6 30.1 299.65 30.05 298.7 30.75 L297.0 31.8 295.35 31.1 Q296.75 30.7 297.75 29.7 L299.1 28.1 Q299.9 27.05 299.85 26.45 299.8 25.55 297.8 25.9 295.8 27.2 295.1 28.1 L294.6 28.9 Q294.45 29.45 295.3 29.75 L294.3 30.2 293.45 30.9 293.35 31.0" fill="#333333" fill-rule="evenodd" stroke="none"/>
    <path d="M302.15 31.9 L301.2 32.95 Q299.55 33.5 295.25 32.1 293.8 31.6 293.35 31.0 L293.45 30.9 294.3 30.2 295.3 29.75 Q294.45 29.45 294.6 28.9 L295.1 28.1 Q295.8 27.2 297.8 25.9 299.8 25.55 299.85 26.45 299.9 27.05 299.1 28.1 L297.75 29.7 Q296.75 30.7 295.35 31.1 L297.0 31.8 298.7 30.75 Q299.65 30.05 300.6 30.1 301.9 31.15 302.15 31.9" fill="#3e2426" fill-rule="evenodd" stroke="none"/>
    <path d="M289.15 37.95 L291.4 37.55 293.8 37.7 Q293.1 36.0 294.25 35.35 294.9 35.0 296.3 34.75 297.85 34.3 298.15 33.55 298.7 32.25 296.2 29.45 L293.95 29.25 Q292.45 28.9 291.65 29.7 L289.35 30.6 286.3 30.5 Q286.15 31.95 283.35 33.15 282.4 33.55 282.35 34.2 282.25 34.85 283.1 35.8 285.65 38.5 287.5 38.55 L289.15 37.95 M299.95 33.45 Q299.25 34.9 298.0 35.4 295.45 36.45 295.9 37.9 296.4 39.45 295.65 39.85 294.4 39.2 292.55 39.0 L289.55 39.2 Q288.15 40.15 286.95 40.1 284.75 40.05 281.3 36.35 279.15 34.0 280.4 33.05 281.05 32.55 282.6 32.35 283.85 31.85 284.2 31.05 284.7 30.0 284.3 29.05 283.95 28.35 284.2 28.25 L284.95 28.15 Q286.65 29.8 288.7 29.4 L291.5 28.4 Q294.15 26.95 296.45 28.15 297.75 28.85 300.1 31.45 300.5 32.2 299.95 33.45" fill="#000000" fill-rule="evenodd" stroke="none"/>
    <path d="M282.35 34.2 Q282.4 33.55 283.35 33.15 286.15 31.95 286.3 30.5 L289.35 30.6 291.65 29.7 Q292.45 28.9 293.95 29.25 L296.2 29.45 Q298.7 32.25 298.15 33.55 297.85 34.3 296.3 34.75 294.9 35.0 294.25 35.35 293.1 36.0 293.8 37.7 L291.4 37.55 289.15 37.95 Q289.5 37.3 289.2 35.85 288.5 35.55 287.05 35.85 L284.8 36.15 283.95 35.0 287.05 34.6 289.55 33.65 291.5 32.55 Q292.15 31.7 290.1 31.35 L286.05 32.3 285.0 32.8 Q284.5 33.25 284.95 33.8 L283.75 33.8 282.5 34.15 282.35 34.2" fill="#333333" fill-rule="evenodd" stroke="none"/>
    <path d="M289.15 37.95 L287.5 38.55 Q285.65 38.5 283.1 35.8 282.25 34.85 282.35 34.2 L282.5 34.15 283.75 33.8 284.95 33.8 Q284.5 33.25 285.0 32.8 L286.05 32.3 290.1 31.35 Q292.15 31.7 291.5 32.55 L289.55 33.65 287.05 34.6 283.95 35.0 284.8 36.15 287.05 35.85 Q288.5 35.55 289.2 35.85 289.5 37.3 289.15 37.95" fill="#3e2426" fill-rule="evenodd" stroke="none"/>
    <path d="M276.7 39.8 L279.0 39.8 Q280.7 40.05 281.25 40.45 281.3 38.75 282.75 38.3 L284.95 38.15 Q286.65 38.05 287.3 37.4 288.45 36.2 287.25 33.1 286.7 33.2 285.25 32.45 L282.9 32.4 280.25 32.75 Q278.35 32.85 277.35 32.05 276.5 33.5 273.4 34.05 272.35 34.25 271.9 34.85 271.5 35.45 271.9 36.5 273.1 39.6 274.9 40.05 L276.7 39.8 M289.0 37.65 Q287.75 38.9 286.35 39.15 283.4 39.65 283.15 41.1 282.95 42.65 282.05 42.9 281.15 42.05 279.5 41.45 L276.5 41.05 Q274.75 41.7 273.6 41.4 271.5 40.9 269.9 36.65 268.9 34.0 270.6 33.35 L273.05 33.1 Q274.45 32.9 275.15 32.25 276.05 31.3 276.1 30.3 276.1 29.55 276.4 29.5 L277.15 29.6 Q278.05 31.5 280.2 31.5 L283.3 31.1 Q286.5 30.3 288.1 31.9 289.05 32.8 290.1 35.75 290.15 36.55 289.0 37.65" fill="#000000" fill-rule="evenodd" stroke="none"/>
    <path d="M271.9 34.85 Q272.35 34.25 273.4 34.05 276.5 33.5 277.35 32.05 278.35 32.85 280.25 32.75 L282.9 32.4 285.25 32.45 Q286.7 33.2 287.25 33.1 288.45 36.2 287.3 37.4 286.65 38.05 284.95 38.15 L282.75 38.3 Q281.3 38.75 281.25 40.45 280.7 40.05 279.0 39.8 L276.7 39.8 Q277.35 39.2 277.7 37.8 277.15 37.3 275.65 37.35 L273.45 37.15 273.05 35.9 276.25 36.2 279.1 35.8 Q280.75 35.5 281.4 35.05 282.4 34.45 280.65 33.7 L276.3 33.8 275.1 34.05 Q274.4 34.35 274.6 35.0 L273.45 34.8 272.05 34.8 271.9 34.85" fill="#333333" fill-rule="evenodd" stroke="none"/>
    <path d="M276.7 39.8 L274.9 40.05 Q273.1 39.6 271.9 36.5 271.5 35.45 271.9 34.85 L272.05 34.8 273.45 34.8 274.6 35.0 Q274.4 34.35 275.1 34.05 L276.3 33.8 280.65 33.7 Q282.4 34.45 281.4 35.05 280.75 35.5 279.1 35.8 L276.25 36.2 273.05 35.9 273.45 37.15 275.65 37.35 Q277.15 37.3 277.7 37.8 277.35 39.2 276.7 39.8" fill="#3e2426" fill-rule="evenodd" stroke="none"/>
    <path d="M262.1 34.45 L262.25 34.45 263.6 34.65 264.6 35.05 Q264.65 34.4 265.45 34.25 L266.75 34.15 270.95 34.75 Q272.45 35.75 271.25 36.25 L268.7 36.55 265.85 36.45 262.85 35.7 262.7 36.95 264.8 37.5 Q266.3 37.75 266.65 38.3 L264.95 40.05 263.05 40.0 Q261.5 39.25 261.5 36.1 261.5 35.0 262.1 34.45" fill="#3e2426" fill-rule="evenodd" stroke="none"/>
    <path d="M264.95 40.05 L266.65 38.3 Q266.3 37.75 264.8 37.5 L262.7 36.95 262.85 35.7 265.85 36.45 268.7 36.55 271.25 36.25 Q272.45 35.75 270.95 34.75 L266.75 34.15 265.45 34.25 Q264.65 34.4 264.6 35.05 L263.6 34.65 262.25 34.45 262.1 34.45 Q262.7 33.95 263.8 33.95 267.1 33.9 268.4 32.7 269.05 33.6 270.9 33.8 L273.65 33.9 Q274.9 33.5 275.9 34.3 277.05 35.25 277.65 35.25 277.6 38.45 276.1 39.4 275.2 39.95 273.55 39.75 L271.3 39.6 Q269.8 39.75 269.1 41.45 268.7 40.95 267.15 40.5 L264.95 40.05" fill="#333333" fill-rule="evenodd" stroke="none"/>
    <path d="M262.1 34.45 Q261.5 35.0 261.5 36.1 261.5 39.25 263.05 40.0 L264.95 40.05 267.15 40.5 Q268.7 40.95 269.1 41.45 269.8 39.75 271.3 39.6 L273.55 39.75 Q275.2 39.95 276.1 39.4 277.6 38.45 277.65 35.25 277.05 35.25 275.9 34.3 274.9 33.5 273.65 33.9 L270.9 33.8 Q269.05 33.6 268.4 32.7 267.1 33.9 263.8 33.95 262.7 33.95 262.1 34.45 M259.5 35.95 Q259.5 33.2 261.3 32.85 L263.8 33.0 Q265.25 33.0 266.2 32.45 267.45 31.7 267.85 30.75 268.1 30.05 268.4 30.05 269.55 30.05 269.1 30.25 269.25 32.2 271.3 32.6 L274.55 32.7 Q277.9 32.4 278.9 34.2 279.5 35.25 279.45 38.3 279.15 39.05 277.65 39.95 276.0 40.95 274.55 40.95 271.5 40.95 270.75 42.35 269.95 43.8 268.95 43.9 268.4 42.95 267.0 42.15 265.55 41.3 264.25 41.25 L261.3 41.15 Q259.5 40.3 259.5 35.95" fill="#000000" fill-rule="evenodd" stroke="none"/>
    <path d="M253.35 35.65 Q253.95 35.15 255.05 35.15 258.35 35.1 259.65 33.9 260.3 34.8 262.15 35.0 L264.9 35.1 Q266.15 34.7 267.15 35.5 268.3 36.45 268.9 36.45 268.85 39.65 267.35 40.6 266.45 41.15 264.8 40.95 L262.55 40.8 Q261.05 40.95 260.35 42.65 259.95 42.15 258.4 41.7 L256.2 41.25 257.9 39.5 Q257.55 38.95 256.05 38.7 L253.95 38.15 254.1 36.9 Q255.35 37.5 257.1 37.65 L259.95 37.75 262.5 37.45 Q263.7 36.95 262.2 35.95 L258.0 35.35 256.7 35.45 Q255.9 35.6 255.85 36.25 L254.85 35.85 253.5 35.65 253.35 35.65" fill="#333333" fill-rule="evenodd" stroke="none"/>
    <path d="M256.2 41.25 L258.4 41.7 Q259.95 42.15 260.35 42.65 261.05 40.95 262.55 40.8 L264.8 40.95 Q266.45 41.15 267.35 40.6 268.85 39.65 268.9 36.45 268.3 36.45 267.15 35.5 266.15 34.7 264.9 35.1 L262.15 35.0 Q260.3 34.8 259.65 33.9 258.35 35.1 255.05 35.15 253.95 35.15 253.35 35.65 252.75 36.2 252.75 37.3 252.75 40.45 254.3 41.2 L256.2 41.25 M255.05 34.2 Q256.5 34.2 257.45 33.65 258.7 32.9 259.1 31.95 259.35 31.25 259.65 31.25 260.8 31.25 260.35 31.45 260.5 33.4 262.55 33.8 L265.8 33.9 Q269.15 33.6 270.15 35.4 270.75 36.45 270.7 39.5 270.4 40.25 268.9 41.15 267.25 42.15 265.8 42.15 262.75 42.15 262.0 43.55 261.2 45.0 260.2 45.1 259.65 44.15 258.25 43.35 256.8 42.5 255.5 42.45 L252.55 42.35 Q250.75 41.5 250.75 37.15 250.75 34.4 252.55 34.05 L255.05 34.2" fill="#000000" fill-rule="evenodd" stroke="none"/>
    <path d="M253.35 35.65 L253.5 35.65 254.85 35.85 255.85 36.25 Q255.9 35.6 256.7 35.45 L258.0 35.35 262.2 35.95 Q263.7 36.95 262.5 37.45 L259.95 37.75 257.1 37.65 Q255.35 37.5 254.1 36.9 L253.95 38.15 256.05 38.7 Q257.55 38.95 257.9 39.5 L256.2 41.25 254.3 41.2 Q252.75 40.45 252.75 37.3 252.75 36.2 253.35 35.65" fill="#3e2426" fill-rule="evenodd" stroke="none"/>
    <path d="M255.2 33.7 Q258.55 33.4 259.55 35.2 260.15 36.25 260.1 39.3 259.8 40.05 258.3 40.95 256.65 41.95 255.2 41.95 252.15 41.95 251.4 43.35 250.6 44.8 249.6 44.9 249.05 43.95 247.65 43.15 246.2 42.3 244.9 42.25 L241.95 42.15 Q240.15 41.3 240.15 36.95 240.15 34.2 241.95 33.85 L244.45 34.0 Q245.9 34.0 246.85 33.45 248.1 32.7 248.5 31.75 248.75 31.05 249.05 31.05 250.2 31.05 249.75 31.25 249.9 33.2 251.95 33.6 L255.2 33.7 M245.6 41.05 L247.8 41.5 Q249.35 41.95 249.75 42.45 250.45 40.75 251.95 40.6 L254.2 40.75 256.75 40.4 Q258.25 39.45 258.3 36.25 257.7 36.25 256.55 35.3 255.55 34.5 254.3 34.9 L251.55 34.8 Q249.7 34.6 249.05 33.7 247.75 34.9 244.45 34.95 243.35 34.95 242.75 35.45 242.15 36.0 242.15 37.1 242.15 40.25 243.7 41.0 L245.6 41.05" fill="#000000" fill-rule="evenodd" stroke="none"/>
    <path d="M242.75 35.45 Q243.35 34.95 244.45 34.95 247.75 34.9 249.05 33.7 249.7 34.6 251.55 34.8 L254.3 34.9 Q255.55 34.5 256.55 35.3 257.7 36.25 258.3 36.25 258.25 39.45 256.75 40.4 L254.2 40.75 251.95 40.6 Q250.45 40.75 249.75 42.45 249.35 41.95 247.8 41.5 L245.6 41.05 247.3 39.3 Q246.95 38.75 245.45 38.5 243.75 38.25 243.35 37.95 L243.5 36.7 Q244.75 37.3 246.5 37.45 L249.35 37.55 251.9 37.25 Q253.1 36.75 251.6 35.75 L247.4 35.15 246.1 35.25 Q245.3 35.4 245.25 36.05 L244.25 35.65 242.9 35.45 242.75 35.45" fill="#333333" fill-rule="evenodd" stroke="none"/>
    <path d="M245.6 41.05 L243.7 41.0 Q242.15 40.25 242.15 37.1 242.15 36.0 242.75 35.45 L242.9 35.45 244.25 35.65 245.25 36.05 Q245.3 35.4 246.1 35.25 L247.4 35.15 251.6 35.75 Q253.1 36.75 251.9 37.25 L249.35 37.55 246.5 37.45 Q244.75 37.3 243.5 36.7 L243.35 37.95 Q243.75 38.25 245.45 38.5 246.95 38.75 247.3 39.3 L245.6 41.05" fill="#3e2426" fill-rule="evenodd" stroke="none"/>
    <path d="M235.05 41.4 L237.25 41.85 Q238.8 42.3 239.2 42.8 239.9 41.1 241.4 40.95 L243.65 41.1 246.2 40.75 Q247.7 39.8 247.75 36.6 247.15 36.6 246.0 35.65 245.0 34.85 243.75 35.25 L241.0 35.15 Q239.15 34.95 238.5 34.05 237.2 35.25 233.9 35.3 232.8 35.3 232.2 35.8 231.6 36.35 231.6 37.45 231.6 40.6 233.15 41.35 L235.05 41.4 M244.65 34.05 Q248.0 33.75 249.0 35.55 249.6 36.6 249.55 39.65 249.25 40.4 247.75 41.3 246.1 42.3 244.65 42.3 241.6 42.3 240.85 43.7 240.05 45.15 239.05 45.25 238.5 44.3 237.1 43.5 235.65 42.65 234.35 42.6 L231.4 42.5 Q229.6 41.65 229.6 37.3 229.6 34.55 231.4 34.2 L233.9 34.35 Q235.35 34.35 236.3 33.8 237.55 33.05 237.95 32.1 238.2 31.4 238.5 31.4 239.65 31.4 239.2 31.6 239.35 33.55 241.4 33.95 L244.65 34.05" fill="#000000" fill-rule="evenodd" stroke="none"/>
    <path d="M232.2 35.8 Q232.8 35.3 233.9 35.3 237.2 35.25 238.5 34.05 239.15 34.95 241.0 35.15 L243.75 35.25 Q245.0 34.85 246.0 35.65 247.15 36.6 247.75 36.6 247.7 39.8 246.2 40.75 L243.65 41.1 241.4 40.95 Q239.9 41.1 239.2 42.8 238.8 42.3 237.25 41.85 L235.05 41.4 Q235.85 40.95 236.75 39.65 236.4 39.1 234.9 38.85 L232.8 38.3 232.95 37.05 Q234.2 37.65 235.95 37.8 L238.8 37.9 241.35 37.6 Q242.55 37.1 241.05 36.1 L236.85 35.5 235.55 35.6 Q234.75 35.75 234.7 36.4 L233.7 36.0 232.35 35.8 232.2 35.8" fill="#333333" fill-rule="evenodd" stroke="none"/>
    <path d="M235.05 41.4 L233.15 41.35 Q231.6 40.6 231.6 37.45 231.6 36.35 232.2 35.8 L232.35 35.8 233.7 36.0 234.7 36.4 Q234.75 35.75 235.55 35.6 L236.85 35.5 241.05 36.1 Q242.55 37.1 241.35 37.6 L238.8 37.9 235.95 37.8 Q234.2 37.65 232.95 37.05 L232.8 38.3 234.9 38.85 Q236.4 39.1 236.75 39.65 235.85 40.95 235.05 41.4" fill="#3e2426" fill-rule="evenodd" stroke="none"/>
    <path d="M221.55 35.4 L221.7 35.4 223.05 35.6 224.05 36.0 Q224.1 35.35 224.9 35.2 L226.2 35.1 230.4 35.7 Q231.9 36.7 230.7 37.2 L228.15 37.5 225.3 37.4 Q223.55 37.25 222.3 36.65 L222.15 37.9 Q222.55 38.2 224.25 38.45 225.75 38.7 226.1 39.25 L224.4 41.0 222.5 40.95 Q220.95 40.2 220.95 37.05 220.95 35.95 221.55 35.4" fill="#3e2426" fill-rule="evenodd" stroke="none"/>
    <path d="M224.4 41.0 L226.1 39.25 Q225.75 38.7 224.25 38.45 222.55 38.2 222.15 37.9 L222.3 36.65 Q223.55 37.25 225.3 37.4 L228.15 37.5 230.7 37.2 Q231.9 36.7 230.4 35.7 L226.2 35.1 224.9 35.2 Q224.1 35.35 224.05 36.0 L223.05 35.6 221.7 35.4 221.55 35.4 Q222.15 34.9 223.25 34.9 226.55 34.85 227.85 33.65 228.5 34.55 230.35 34.75 L233.1 34.85 Q234.35 34.45 235.35 35.25 L237.1 36.2 Q237.05 39.4 235.55 40.35 L233.0 40.7 230.75 40.55 Q229.25 40.7 228.55 42.4 228.15 41.9 226.6 41.45 L224.4 41.0" fill="#333333" fill-rule="evenodd" stroke="none"/>
    <path d="M221.55 35.4 Q220.95 35.95 220.95 37.05 220.95 40.2 222.5 40.95 L224.4 41.0 226.6 41.45 Q228.15 41.9 228.55 42.4 229.25 40.7 230.75 40.55 L233.0 40.7 235.55 40.35 Q237.05 39.4 237.1 36.2 L235.35 35.25 Q234.35 34.45 233.1 34.85 L230.35 34.75 Q228.5 34.55 227.85 33.65 226.55 34.85 223.25 34.9 222.15 34.9 221.55 35.4 M218.95 36.9 Q218.95 34.15 220.75 33.8 L223.25 33.95 Q224.7 33.95 225.65 33.4 226.9 32.65 227.3 31.7 227.55 31.0 227.85 31.0 229.0 31.0 228.55 31.2 228.7 33.15 230.75 33.55 L234.0 33.65 Q237.35 33.35 238.35 35.15 238.95 36.2 238.9 39.25 238.6 40.0 237.1 40.9 235.45 41.9 234.0 41.9 230.95 41.9 230.2 43.3 229.4 44.75 228.4 44.85 227.85 43.9 226.45 43.1 225.0 42.25 223.7 42.2 L220.75 42.1 Q218.95 41.25 218.95 36.9" fill="#000000" fill-rule="evenodd" stroke="none"/>
    <path d="M215.55 40.75 L217.25 39.0 Q216.9 38.45 215.4 38.2 L213.3 37.65 213.45 36.4 216.45 37.15 219.3 37.25 221.85 36.95 Q223.05 36.45 221.55 35.45 L217.35 34.85 216.05 34.95 Q215.25 35.1 215.2 35.75 L214.2 35.35 212.85 35.15 212.7 35.15 Q213.3 34.65 214.4 34.65 217.7 34.6 219.0 33.4 219.65 34.3 221.5 34.5 L224.25 34.6 Q225.5 34.2 226.5 35.0 L228.25 35.95 Q228.2 39.15 226.7 40.1 225.8 40.65 224.15 40.45 L221.9 40.3 Q220.4 40.45 219.7 42.15 219.3 41.65 217.75 41.2 L215.55 40.75" fill="#333333" fill-rule="evenodd" stroke="none"/>
    <path d="M212.7 35.15 L212.85 35.15 214.2 35.35 215.2 35.75 Q215.25 35.1 216.05 34.95 L217.35 34.85 221.55 35.45 Q223.05 36.45 221.85 36.95 L219.3 37.25 216.45 37.15 213.45 36.4 213.3 37.65 215.4 38.2 Q216.9 38.45 217.25 39.0 L215.55 40.75 213.65 40.7 Q212.1 39.95 212.1 36.8 212.1 35.7 212.7 35.15" fill="#3e2426" fill-rule="evenodd" stroke="none"/>
    <path d="M215.55 40.75 L217.75 41.2 Q219.3 41.65 219.7 42.15 220.4 40.45 221.9 40.3 L224.15 40.45 Q225.8 40.65 226.7 40.1 228.2 39.15 228.25 35.95 L226.5 35.0 Q225.5 34.2 224.25 34.6 L221.5 34.5 Q219.65 34.3 219.0 33.4 217.7 34.6 214.4 34.65 213.3 34.65 212.7 35.15 212.1 35.7 212.1 36.8 212.1 39.95 213.65 40.7 L215.55 40.75 M214.4 33.7 Q215.85 33.7 216.8 33.15 218.05 32.4 218.45 31.45 218.7 30.75 219.0 30.75 220.15 30.75 219.7 30.95 219.85 32.9 221.9 33.3 L225.15 33.4 Q228.5 33.1 229.5 34.9 230.1 35.95 230.05 39.0 229.75 39.75 228.25 40.65 226.6 41.65 225.15 41.65 222.1 41.65 221.35 43.05 220.55 44.5 219.55 44.6 219.0 43.65 217.6 42.85 216.15 42.0 214.85 41.95 L211.9 41.85 Q210.1 41.0 210.1 36.65 210.1 33.9 211.9 33.55 L214.4 33.7" fill="#000000" fill-rule="evenodd" stroke="none"/>
    <path d="M213.15 32.6 Q216.5 32.3 217.5 34.1 218.1 35.15 218.05 38.2 217.75 38.95 216.25 39.85 214.6 40.85 213.15 40.85 210.1 40.85 209.35 42.25 208.55 43.7 207.55 43.8 207.0 42.85 205.6 42.05 204.15 41.2 202.85 41.15 L199.9 41.05 Q198.1 40.2 198.1 35.85 198.1 33.1 199.9 32.75 L202.4 32.9 Q203.85 32.9 204.8 32.35 206.05 31.6 206.45 30.65 206.7 29.95 207.0 29.95 208.15 29.95 207.7 30.15 207.85 32.1 209.9 32.5 L213.15 32.6 M203.55 39.95 L205.75 40.4 Q207.3 40.85 207.7 41.35 208.4 39.65 209.9 39.5 L212.15 39.65 Q213.8 39.85 214.7 39.3 216.2 38.35 216.25 35.15 215.65 35.15 214.5 34.2 213.5 33.4 212.25 33.8 L209.5 33.7 Q207.65 33.5 207.0 32.6 205.7 33.8 202.4 33.85 201.3 33.85 200.7 34.35 200.1 34.9 200.1 36.0 200.1 39.15 201.65 39.9 L203.55 39.95" fill="#000000" fill-rule="evenodd" stroke="none"/>
    <path d="M200.7 34.35 Q201.3 33.85 202.4 33.85 205.7 33.8 207.0 32.6 207.65 33.5 209.5 33.7 L212.25 33.8 Q213.5 33.4 214.5 34.2 215.65 35.15 216.25 35.15 216.2 38.35 214.7 39.3 213.8 39.85 212.15 39.65 L209.9 39.5 Q208.4 39.65 207.7 41.35 207.3 40.85 205.75 40.4 L203.55 39.95 205.25 38.2 Q204.9 37.65 203.4 37.4 L201.3 36.85 201.45 35.6 204.45 36.35 207.3 36.45 209.85 36.15 Q211.05 35.65 209.55 34.65 L205.35 34.05 204.05 34.15 Q203.25 34.3 203.2 34.95 L202.2 34.55 200.85 34.35 200.7 34.35" fill="#333333" fill-rule="evenodd" stroke="none"/>
    <path d="M203.55 39.95 L201.65 39.9 Q200.1 39.15 200.1 36.0 200.1 34.9 200.7 34.35 L200.85 34.35 202.2 34.55 203.2 34.95 Q203.25 34.3 204.05 34.15 L205.35 34.05 209.55 34.65 Q211.05 35.65 209.85 36.15 L207.3 36.45 204.45 36.35 201.45 35.6 201.3 36.85 203.4 37.4 Q204.9 37.65 205.25 38.2 L203.55 39.95" fill="#3e2426" fill-rule="evenodd" stroke="none"/>
    <path d="M192.9 38.95 L195.1 39.4 Q196.65 39.85 197.05 40.35 197.75 38.65 199.25 38.5 L201.5 38.65 Q203.15 38.85 204.05 38.3 205.55 37.35 205.6 34.15 205.0 34.15 203.85 33.2 202.85 32.4 201.6 32.8 L198.85 32.7 Q197.0 32.5 196.35 31.6 195.05 32.8 191.75 32.85 190.65 32.85 190.05 33.35 189.45 33.9 189.45 35.0 189.45 38.15 191.0 38.9 L192.9 38.95 M202.5 31.6 Q205.85 31.3 206.85 33.1 207.45 34.15 207.4 37.2 207.1 37.95 205.6 38.85 203.95 39.85 202.5 39.85 199.45 39.85 198.7 41.25 197.9 42.7 196.9 42.8 196.35 41.85 194.95 41.05 193.5 40.2 192.2 40.15 L189.25 40.05 Q187.45 39.2 187.45 34.85 187.45 32.1 189.25 31.75 L191.75 31.9 Q193.2 31.9 194.15 31.35 195.4 30.6 195.8 29.65 196.05 28.95 196.35 28.95 197.5 28.95 197.05 29.15 197.2 31.1 199.25 31.5 L202.5 31.6" fill="#000000" fill-rule="evenodd" stroke="none"/>
    <path d="M190.05 33.35 Q190.65 32.85 191.75 32.85 195.05 32.8 196.35 31.6 197.0 32.5 198.85 32.7 L201.6 32.8 Q202.85 32.4 203.85 33.2 205.0 34.15 205.6 34.15 205.55 37.35 204.05 38.3 203.15 38.85 201.5 38.65 L199.25 38.5 Q197.75 38.65 197.05 40.35 196.65 39.85 195.1 39.4 L192.9 38.95 Q193.7 38.5 194.6 37.2 194.25 36.65 192.75 36.4 L190.65 35.85 190.8 34.6 Q192.05 35.2 193.8 35.35 L196.65 35.45 199.2 35.15 Q200.4 34.65 198.9 33.65 L194.7 33.05 193.4 33.15 Q192.6 33.3 192.55 33.95 L191.55 33.55 190.2 33.35 190.05 33.35" fill="#333333" fill-rule="evenodd" stroke="none"/>
    <path d="M192.9 38.95 L191.0 38.9 Q189.45 38.15 189.45 35.0 189.45 33.9 190.05 33.35 L190.2 33.35 191.55 33.55 192.55 33.95 Q192.6 33.3 193.4 33.15 L194.7 33.05 198.9 33.65 Q200.4 34.65 199.2 35.15 L196.65 35.45 193.8 35.35 Q192.05 35.2 190.8 34.6 L190.65 35.85 192.75 36.4 Q194.25 36.65 194.6 37.2 193.7 38.5 192.9 38.95" fill="#3e2426" fill-rule="evenodd" stroke="none"/>
    <path d="M182.25 38.55 L180.35 38.5 Q178.8 37.75 178.8 34.6 178.8 33.5 179.4 32.95 L179.55 32.95 180.9 33.15 181.9 33.55 Q181.95 32.9 182.75 32.75 L184.05 32.65 188.25 33.25 Q189.75 34.25 188.55 34.75 L186.0 35.05 183.15 34.95 Q181.4 34.8 180.15 34.2 L180.0 35.45 182.1 36.0 Q183.6 36.25 183.95 36.8 183.05 38.1 182.25 38.55" fill="#3e2426" fill-rule="evenodd" stroke="none"/>
    <path d="M179.4 32.95 Q178.8 33.5 178.8 34.6 178.8 37.75 180.35 38.5 L182.25 38.55 184.45 39.0 Q186.0 39.45 186.4 39.95 187.1 38.25 188.6 38.1 L190.85 38.25 Q192.5 38.45 193.4 37.9 194.9 36.95 194.95 33.75 194.35 33.75 193.2 32.8 192.2 32.0 190.95 32.4 L188.2 32.3 Q186.35 32.1 185.7 31.2 184.4 32.4 181.1 32.45 180.0 32.45 179.4 32.95 M178.6 31.35 L181.1 31.5 Q182.55 31.5 183.5 30.95 184.75 30.2 185.15 29.25 185.4 28.55 185.7 28.55 186.85 28.55 186.4 28.75 186.55 30.7 188.6 31.1 L191.85 31.2 Q195.2 30.9 196.2 32.7 196.8 33.75 196.75 36.8 196.45 37.55 194.95 38.45 193.3 39.45 191.85 39.45 188.8 39.45 188.05 40.85 187.25 42.3 186.25 42.4 185.7 41.45 184.3 40.65 182.85 39.8 181.55 39.75 L178.6 39.65 Q176.8 38.8 176.8 34.45 176.8 31.7 178.6 31.35" fill="#000000" fill-rule="evenodd" stroke="none"/>
    <path d="M182.25 38.55 Q183.05 38.1 183.95 36.8 183.6 36.25 182.1 36.0 L180.0 35.45 180.15 34.2 Q181.4 34.8 183.15 34.95 L186.0 35.05 188.55 34.75 Q189.75 34.25 188.25 33.25 L184.05 32.65 182.75 32.75 Q181.95 32.9 181.9 33.55 L180.9 33.15 179.55 32.95 179.4 32.95 Q180.0 32.45 181.1 32.45 184.4 32.4 185.7 31.2 186.35 32.1 188.2 32.3 L190.95 32.4 Q192.2 32.0 193.2 32.8 194.35 33.75 194.95 33.75 194.9 36.95 193.4 37.9 192.5 38.45 190.85 38.25 L188.6 38.1 Q187.1 38.25 186.4 39.95 186.0 39.45 184.45 39.0 L182.25 38.55" fill="#333333" fill-rule="evenodd" stroke="none"/>
    <path d="M177.55 28.5 Q177.7 30.45 179.75 30.85 L183.0 30.95 Q186.35 30.65 187.35 32.45 187.95 33.5 187.9 36.55 187.6 37.3 186.1 38.2 184.45 39.2 183.0 39.2 179.95 39.2 179.2 40.6 178.4 42.05 177.4 42.15 176.85 41.2 175.45 40.4 174.0 39.55 172.7 39.5 L169.75 39.4 Q167.95 38.55 167.95 34.2 167.95 31.45 169.75 31.1 L172.25 31.25 Q173.7 31.25 174.65 30.7 175.9 29.95 176.3 29.0 176.55 28.3 176.85 28.3 178.0 28.3 177.55 28.5 M173.4 38.3 L175.6 38.75 Q177.15 39.2 177.55 39.7 178.25 38.0 179.75 37.85 L182.0 38.0 Q183.65 38.2 184.55 37.65 186.05 36.7 186.1 33.5 185.5 33.5 184.35 32.55 183.35 31.75 182.1 32.15 L179.35 32.05 Q177.5 31.85 176.85 30.95 175.55 32.15 172.25 32.2 171.15 32.2 170.55 32.7 169.95 33.25 169.95 34.35 169.95 37.5 171.5 38.25 L173.4 38.3" fill="#000000" fill-rule="evenodd" stroke="none"/>
    <path d="M173.4 38.3 L175.1 36.55 Q174.75 36.0 173.25 35.75 L171.15 35.2 171.3 33.95 Q172.55 34.55 174.3 34.7 L177.15 34.8 179.7 34.5 Q180.9 34.0 179.4 33.0 L175.2 32.4 173.9 32.5 Q173.1 32.65 173.05 33.3 L172.05 32.9 170.7 32.7 170.55 32.7 Q171.15 32.2 172.25 32.2 175.55 32.15 176.85 30.95 177.5 31.85 179.35 32.05 L182.1 32.15 Q183.35 31.75 184.35 32.55 185.5 33.5 186.1 33.5 186.05 36.7 184.55 37.65 183.65 38.2 182.0 38.0 L179.75 37.85 Q178.25 38.0 177.55 39.7 177.15 39.2 175.6 38.75 L173.4 38.3" fill="#333333" fill-rule="evenodd" stroke="none"/>
    <path d="M170.55 32.7 L170.7 32.7 172.05 32.9 173.05 33.3 Q173.1 32.65 173.9 32.5 L175.2 32.4 179.4 33.0 Q180.9 34.0 179.7 34.5 L177.15 34.8 174.3 34.7 Q172.55 34.55 171.3 33.95 L171.15 35.2 173.25 35.75 Q174.75 36.0 175.1 36.55 L173.4 38.3 171.5 38.25 Q169.95 37.5 169.95 34.35 169.95 33.25 170.55 32.7" fill="#3e2426" fill-rule="evenodd" stroke="none"/>
    <path d="M176.35 31.5 Q177.1 32.5 177.7 35.5 177.65 36.35 176.3 37.35 174.9 38.5 173.45 38.6 170.45 38.9 170.0 40.35 169.5 41.9 168.55 42.05 167.8 41.2 166.25 40.45 164.6 39.75 163.35 39.85 L160.35 40.05 Q158.4 39.35 157.45 35.05 156.9 32.3 158.6 31.8 L161.15 31.7 Q162.55 31.6 163.4 31.0 164.45 30.15 164.65 29.15 164.75 28.4 165.05 28.4 166.15 28.3 165.75 28.55 166.4 30.45 168.45 30.6 L171.7 30.4 Q174.95 29.85 176.35 31.5 M163.75 38.65 L166.05 38.85 Q167.65 39.1 168.15 39.65 168.5 37.9 169.95 37.55 L172.25 37.55 Q173.85 37.55 174.65 37.0 175.95 35.85 175.35 32.7 174.75 32.75 173.4 31.95 172.2 31.2 171.05 31.7 L168.3 31.9 Q166.45 31.9 165.65 31.0 164.55 32.3 161.35 32.65 160.25 32.75 159.7 33.35 159.25 33.95 159.5 35.05 160.2 38.2 161.9 38.75 L163.75 38.65" fill="#000000" fill-rule="evenodd" stroke="none"/>
    <path d="M159.7 33.35 Q160.25 32.75 161.35 32.65 164.55 32.3 165.65 31.0 166.45 31.9 168.3 31.9 L171.05 31.7 Q172.2 31.2 173.4 31.95 174.75 32.75 175.35 32.7 175.95 35.85 174.65 37.0 173.85 37.55 172.25 37.55 L169.95 37.55 Q168.5 37.9 168.15 39.65 167.65 39.1 166.05 38.85 L163.75 38.65 Q164.45 38.1 165.05 36.7 164.6 36.2 163.05 36.1 L160.9 35.75 160.75 34.5 163.9 35.0 166.7 34.75 169.2 34.3 Q170.3 33.65 168.55 32.8 L164.3 32.65 163.05 32.8 Q162.3 33.05 162.4 33.7 L161.3 33.45 159.9 33.3 159.7 33.35" fill="#333333" fill-rule="evenodd" stroke="none"/>
    <path d="M163.75 38.65 L161.9 38.75 Q160.2 38.2 159.5 35.05 159.25 33.95 159.7 33.35 L159.9 33.3 161.3 33.45 162.4 33.7 Q162.3 33.05 163.05 32.8 L164.3 32.65 168.55 32.8 Q170.3 33.65 169.2 34.3 L166.7 34.75 163.9 35.0 160.75 34.5 160.9 35.75 163.05 36.1 Q164.6 36.2 165.05 36.7 164.45 38.1 163.75 38.65" fill="#3e2426" fill-rule="evenodd" stroke="none"/>
    <path d="M153.0 38.7 L155.3 38.9 Q156.9 39.15 157.4 39.7 157.75 37.95 159.2 37.6 L161.5 37.6 Q163.1 37.6 163.9 37.05 165.2 35.9 164.6 32.75 164.0 32.8 162.65 32.0 161.45 31.25 160.3 31.75 L157.55 31.95 Q155.7 31.95 154.9 31.05 153.8 32.35 150.6 32.7 149.5 32.8 148.95 33.4 148.5 34.0 148.75 35.1 149.45 38.25 151.15 38.8 L153.0 38.7 M165.55 37.4 Q164.15 38.55 162.7 38.65 159.7 38.95 159.25 40.4 158.75 41.95 157.8 42.1 157.05 41.25 155.5 40.5 153.85 39.8 152.6 39.9 L149.6 40.1 Q147.65 39.4 146.7 35.1 146.15 32.35 147.85 31.85 L150.4 31.75 Q151.8 31.65 152.65 31.05 153.7 30.2 153.9 29.2 154.0 28.45 154.3 28.45 155.4 28.35 155.0 28.6 155.65 30.5 157.7 30.65 L160.95 30.45 Q164.2 29.9 165.6 31.55 166.35 32.55 166.95 35.55 166.9 36.4 165.55 37.4" fill="#000000" fill-rule="evenodd" stroke="none"/>
    <path d="M148.95 33.4 Q149.5 32.8 150.6 32.7 153.8 32.35 154.9 31.05 155.7 31.95 157.55 31.95 L160.3 31.75 Q161.45 31.25 162.65 32.0 164.0 32.8 164.6 32.75 165.2 35.9 163.9 37.05 163.1 37.6 161.5 37.6 L159.2 37.6 Q157.75 37.95 157.4 39.7 156.9 39.15 155.3 38.9 L153.0 38.7 154.3 36.75 Q153.85 36.25 152.3 36.15 L150.15 35.8 150.0 34.55 153.15 35.05 155.95 34.8 158.45 34.35 Q159.55 33.7 157.8 32.85 L153.55 32.7 152.3 32.85 Q151.55 33.1 151.65 33.75 L150.55 33.5 149.15 33.35 148.95 33.4" fill="#333333" fill-rule="evenodd" stroke="none"/>
    <path d="M153.0 38.7 L151.15 38.8 Q149.45 38.25 148.75 35.1 148.5 34.0 148.95 33.4 L149.15 33.35 150.55 33.5 151.65 33.75 Q151.55 33.1 152.3 32.85 L153.55 32.7 157.8 32.85 Q159.55 33.7 158.45 34.35 L155.95 34.8 153.15 35.05 150.0 34.55 150.15 35.8 152.3 36.15 Q153.85 36.25 154.3 36.75 L153.0 38.7" fill="#3e2426" fill-rule="evenodd" stroke="none"/>
    <path d="M142.65 39.25 L144.95 39.45 Q146.55 39.7 147.05 40.25 147.4 38.5 148.85 38.15 L151.15 38.15 Q152.75 38.15 153.55 37.6 154.85 36.45 154.25 33.3 153.65 33.35 152.3 32.55 151.1 31.8 149.95 32.3 L147.2 32.5 Q145.35 32.5 144.55 31.6 143.45 32.9 140.25 33.25 139.15 33.35 138.6 33.95 138.15 34.55 138.4 35.65 139.1 38.8 140.8 39.35 L142.65 39.25 M137.5 32.4 L140.05 32.3 Q141.45 32.2 142.3 31.6 143.35 30.75 143.55 29.75 143.65 29.0 143.95 29.0 145.05 28.9 144.65 29.15 145.3 31.05 147.35 31.2 L150.6 31.0 Q153.85 30.45 155.25 32.1 156.0 33.1 156.6 36.1 156.55 36.95 155.2 37.95 153.8 39.1 152.35 39.2 149.35 39.5 148.9 40.95 148.4 42.5 147.45 42.65 146.7 41.8 145.15 41.05 143.5 40.35 142.25 40.45 L139.25 40.65 Q137.3 39.95 136.35 35.65 135.8 32.9 137.5 32.4" fill="#000000" fill-rule="evenodd" stroke="none"/>
    <path d="M138.6 33.95 Q139.15 33.35 140.25 33.25 143.45 32.9 144.55 31.6 145.35 32.5 147.2 32.5 L149.95 32.3 Q151.1 31.8 152.3 32.55 153.65 33.35 154.25 33.3 154.85 36.45 153.55 37.6 152.75 38.15 151.15 38.15 L148.85 38.15 Q147.4 38.5 147.05 40.25 146.55 39.7 144.95 39.45 L142.65 39.25 Q143.35 38.7 143.95 37.3 143.5 36.8 141.95 36.7 L139.8 36.35 139.65 35.1 142.8 35.6 145.6 35.35 148.1 34.9 Q149.2 34.25 147.45 33.4 L143.2 33.25 141.95 33.4 Q141.2 33.65 141.3 34.3 L140.2 34.05 138.8 33.9 138.6 33.95" fill="#333333" fill-rule="evenodd" stroke="none"/>
    <path d="M138.6 33.95 L138.8 33.9 140.2 34.05 141.3 34.3 Q141.2 33.65 141.95 33.4 L143.2 33.25 147.45 33.4 Q149.2 34.25 148.1 34.9 L145.6 35.35 142.8 35.6 139.65 35.1 139.8 36.35 141.95 36.7 Q143.5 36.8 143.95 37.3 143.35 38.7 142.65 39.25 L140.8 39.35 Q139.1 38.8 138.4 35.65 138.15 34.55 138.6 33.95" fill="#3e2426" fill-rule="evenodd" stroke="none"/>
    <path d="M134.75 30.4 Q134.85 29.65 135.15 29.65 136.25 29.55 135.85 29.8 136.5 31.7 138.55 31.85 L141.8 31.65 Q145.05 31.1 146.45 32.75 147.2 33.75 147.8 36.75 147.75 37.6 146.4 38.6 145.0 39.75 143.55 39.85 140.55 40.15 140.1 41.6 139.6 43.15 138.65 43.3 137.9 42.45 136.35 41.7 134.7 41.0 133.45 41.1 L130.45 41.3 Q128.5 40.6 127.55 36.3 127.0 33.55 128.7 33.05 L131.25 32.95 Q132.65 32.85 133.5 32.25 134.55 31.4 134.75 30.4 M133.85 39.9 L136.15 40.1 Q137.75 40.35 138.25 40.9 138.6 39.15 140.05 38.8 L142.35 38.8 Q143.95 38.8 144.75 38.25 146.05 37.1 145.45 33.95 144.85 34.0 143.5 33.2 142.3 32.45 141.15 32.95 L138.4 33.15 Q136.55 33.15 135.75 32.25 134.65 33.55 131.45 33.9 130.35 34.0 129.8 34.6 129.35 35.2 129.6 36.3 130.3 39.45 132.0 40.0 L133.85 39.9" fill="#000000" fill-rule="evenodd" stroke="none"/>
    <path d="M133.85 39.9 Q134.55 39.35 135.15 37.95 134.7 37.45 133.15 37.35 L131.0 37.0 130.85 35.75 134.0 36.25 136.8 36.0 139.3 35.55 Q140.4 34.9 138.65 34.05 L134.4 33.9 133.15 34.05 Q132.4 34.3 132.5 34.95 L131.4 34.7 130.0 34.55 129.8 34.6 Q130.35 34.0 131.45 33.9 134.65 33.55 135.75 32.25 136.55 33.15 138.4 33.15 L141.15 32.95 Q142.3 32.45 143.5 33.2 144.85 34.0 145.45 33.95 146.05 37.1 144.75 38.25 143.95 38.8 142.35 38.8 L140.05 38.8 Q138.6 39.15 138.25 40.9 137.75 40.35 136.15 40.1 L133.85 39.9" fill="#333333" fill-rule="evenodd" stroke="none"/>
    <path d="M129.8 34.6 L130.0 34.55 131.4 34.7 132.5 34.95 Q132.4 34.3 133.15 34.05 L134.4 33.9 138.65 34.05 Q140.4 34.9 139.3 35.55 L136.8 36.0 134.0 36.25 130.85 35.75 131.0 37.0 133.15 37.35 Q134.7 37.45 135.15 37.95 134.55 39.35 133.85 39.9 L132.0 40.0 Q130.3 39.45 129.6 36.3 129.35 35.2 129.8 34.6" fill="#3e2426" fill-rule="evenodd" stroke="none"/>
    <path d="M316.5 2.05 L308.75 10.75 Q307.45 12.2 303.6 17.85 301.3 21.25 298.3 22.9 L298.15 22.95 Q290.2 27.0 258.25 27.0 L243.9 25.6 229.35 23.75 Q214.2 21.05 201.95 21.25 L180.0 22.0 162.2 21.05 143.85 19.35 135.4 18.8 130.35 18.45 108.75 16.75 77.95 14.85 52.5 13.1 9.8 6.35 Q-7.6 3.05 -24.35 -4.0 -41.05 -10.95 -66.4 -28.2 -75.6 -34.5 -82.0 -39.75 L-83.85 -42.85 Q-88.6 -50.85 -91.25 -56.5 L-93.65 -61.95 -92.3 -62.7 -92.15 -62.6 -87.3 -57.9 Q-83.9 -54.8 -81.1 -53.6 L-64.15 -46.85 Q-47.35 -40.45 -38.75 -38.0 L-16.2 -31.7 Q-8.05 -29.65 0.85 -28.0 12.8 -25.75 18.2 -25.2 L34.0 -24.65 Q69.45 -25.6 120.1 -25.6 L135.4 -25.1 204.25 -23.1 Q236.6 -23.1 247.2 -24.15 L291.5 -27.75 298.3 -28.3 302.45 -28.7 313.1 -30.1 313.65 -30.65 Q314.55 -31.25 316.1 -31.25 321.15 -31.25 323.4 -24.3 324.75 -20.05 324.75 -15.25 324.75 -8.8 320.7 -3.0 L317.2 1.3 317.35 0.6 317.35 0.35 Q318.25 -0.3 318.25 -1.1 318.25 -2.2 317.5 -2.95 316.1 -4.35 312.6 -4.35 L298.3 -3.95 293.05 -3.8 261.1 -2.35 238.7 -0.8 209.25 0.5 176.25 -2.75 161.7 -3.6 135.4 -6.2 107.5 -8.6 65.35 -11.8 26.85 -15.5 -5.25 -19.65 -6.65 -19.7 Q-6.75 -20.35 -7.05 -20.5 L-7.5 -20.6 Q-10.9 -20.6 -22.6 -23.9 -32.1 -26.6 -34.0 -24.85 -32.25 -22.15 -25.2 -18.3 -18.05 -14.35 -14.5 -14.35 L-12.3 -14.7 -12.3 -14.65 -12.0 -14.0 28.6 -9.05 68.85 -4.6 129.1 -1.0 135.4 -0.35 174.75 4.1 179.9 4.55 181.55 4.8 188.2 6.1 Q197.4 8.1 201.5 8.1 L212.55 9.2 223.6 10.25 Q258.5 10.25 285.65 7.9 L298.3 6.6 Q313.3 4.7 316.5 2.05" fill="#333333" fill-opacity="0.49019608" fill-rule="evenodd" stroke="none"/>
    <path d="M317.2 1.3 L316.5 2.05 Q313.3 4.7 298.3 6.6 L285.65 7.9 Q258.5 10.25 223.6 10.25 L212.55 9.2 201.5 8.1 Q197.4 8.1 188.2 6.1 L181.55 4.8 179.9 4.55 174.75 4.1 135.4 -0.35 129.1 -1.0 68.85 -4.6 28.6 -9.05 -12.0 -14.0 -12.3 -14.65 -12.3 -14.7 -14.5 -14.35 Q-18.05 -14.35 -25.2 -18.3 -32.25 -22.15 -34.0 -24.85 -32.1 -26.6 -22.6 -23.9 -10.9 -20.6 -7.5 -20.6 L-7.05 -20.5 Q-6.75 -20.35 -6.65 -19.7 L-5.25 -19.65 26.85 -15.5 65.35 -11.8 107.5 -8.6 135.4 -6.2 161.7 -3.6 176.25 -2.75 209.25 0.5 238.7 -0.8 261.1 -2.35 293.05 -3.8 298.3 -3.95 312.6 -4.35 Q316.1 -4.35 317.5 -2.95 318.25 -2.2 318.25 -1.1 318.25 -0.3 317.35 0.35 L317.35 0.6 317.2 1.3" fill="#666666" fill-opacity="0.4509804" fill-rule="evenodd" stroke="none"/>
  </g>
</svg>
