<?xml version="1.0" encoding="UTF-8" standalone="no"?>
<svg xmlns:ffdec="https://www.free-decompiler.com/flash" xmlns:xlink="http://www.w3.org/1999/xlink" ffdec:objectType="shape" height="19.7px" width="270.05px" xmlns="http://www.w3.org/2000/svg">
  <g transform="matrix(1.0, 0.0, 0.0, 1.0, -127.65, -31.0)">
    <path d="M379.9 40.75 L382.35 40.95 384.75 40.5 Q386.05 39.9 386.5 39.05 386.85 38.45 387.15 38.45 388.25 38.5 387.8 38.65 387.85 40.4 389.9 40.75 L393.1 40.9 Q396.5 40.75 397.4 42.4 397.85 43.3 397.6 46.0 397.3 46.7 395.75 47.45 394.05 48.25 392.55 48.2 389.55 48.15 388.65 49.4 387.75 50.65 386.8 50.7 386.3 49.85 384.95 49.1 383.6 48.3 382.3 48.25 L379.35 48.1 Q377.6 47.3 377.9 43.45 378.05 41.0 379.9 40.75 M383.05 47.25 L385.25 47.65 Q386.7 48.1 387.05 48.55 387.95 47.1 389.45 46.95 L391.7 47.2 394.2 46.9 Q395.8 46.1 396.05 43.3 395.45 43.3 394.4 42.4 393.4 41.7 392.1 41.95 L389.4 41.85 Q387.6 41.65 387.0 40.75 385.55 41.85 382.3 41.75 381.2 41.75 380.5 42.2 379.95 42.65 379.85 43.6 379.65 46.45 381.15 47.1 L383.05 47.25" fill="#000000" fill-rule="evenodd" stroke="none"/>
    <path d="M380.5 42.2 Q381.2 41.75 382.3 41.75 385.55 41.85 387.0 40.75 387.6 41.65 389.4 41.85 L392.1 41.95 Q393.4 41.7 394.4 42.4 395.45 43.3 396.05 43.3 395.8 46.1 394.2 46.9 L391.7 47.2 389.45 46.95 Q387.95 47.1 387.05 48.55 386.7 48.1 385.25 47.65 L383.05 47.25 384.8 45.65 Q384.5 45.2 383.1 44.95 L381.0 44.45 381.25 43.35 Q382.45 43.9 384.15 44.05 L387.0 44.2 389.55 44.0 Q390.8 43.6 389.4 42.7 L385.25 42.1 383.95 42.1 Q383.15 42.25 383.05 42.75 L382.05 42.4 380.7 42.2 380.5 42.2" fill="#333333" fill-rule="evenodd" stroke="none"/>
    <path d="M380.5 42.2 L380.7 42.2 382.05 42.4 383.05 42.75 Q383.15 42.25 383.95 42.1 L385.25 42.1 389.4 42.7 Q390.8 43.6 389.55 44.0 L387.0 44.2 384.15 44.05 Q382.45 43.9 381.25 43.35 L381.0 44.45 383.1 44.95 Q384.5 45.2 384.8 45.65 L383.05 47.25 381.15 47.1 Q379.65 46.45 379.85 43.6 379.95 42.65 380.5 42.2" fill="#3e2426" fill-rule="evenodd" stroke="none"/>
    <path d="M372.45 46.15 L374.2 44.55 Q373.9 44.1 372.5 43.85 L370.4 43.35 370.65 42.25 Q371.85 42.8 373.55 42.95 L376.4 43.1 378.95 42.9 Q380.2 42.5 378.8 41.6 L374.65 41.0 373.35 41.0 Q372.55 41.15 372.45 41.65 L371.45 41.3 370.1 41.1 369.9 41.1 Q370.6 40.65 371.7 40.65 374.95 40.75 376.4 39.65 377.0 40.55 378.8 40.75 L381.5 40.85 Q382.8 40.6 383.8 41.3 384.85 42.2 385.45 42.2 385.2 45.0 383.6 45.8 L381.1 46.1 378.85 45.85 Q377.35 46.0 376.45 47.45 376.1 47.0 374.65 46.55 L372.45 46.15" fill="#333333" fill-rule="evenodd" stroke="none"/>
    <path d="M369.9 41.1 L370.1 41.1 371.45 41.3 372.45 41.65 Q372.55 41.15 373.35 41.0 L374.65 41.0 378.8 41.6 Q380.2 42.5 378.95 42.9 L376.4 43.1 373.55 42.95 Q371.85 42.8 370.65 42.25 L370.4 43.35 372.5 43.85 Q373.9 44.1 374.2 44.55 L372.45 46.15 370.55 46.0 Q369.05 45.35 369.25 42.5 369.35 41.55 369.9 41.1" fill="#3e2426" fill-rule="evenodd" stroke="none"/>
    <path d="M372.45 46.15 L374.65 46.55 Q376.1 47.0 376.45 47.45 377.35 46.0 378.85 45.85 L381.1 46.1 383.6 45.8 Q385.2 45.0 385.45 42.2 384.85 42.2 383.8 41.3 382.8 40.6 381.5 40.85 L378.8 40.75 Q377.0 40.55 376.4 39.65 374.95 40.75 371.7 40.65 370.6 40.65 369.9 41.1 369.35 41.55 369.25 42.5 369.05 45.35 370.55 46.0 L372.45 46.15 M371.75 39.85 Q373.2 39.9 374.15 39.4 375.45 38.8 375.9 37.95 376.25 37.35 376.55 37.35 377.65 37.4 377.2 37.55 377.25 39.3 379.3 39.65 L382.5 39.8 Q385.9 39.65 386.8 41.3 387.25 42.2 387.0 44.9 386.7 45.6 385.15 46.35 383.45 47.15 381.95 47.1 378.95 47.05 378.05 48.3 377.15 49.55 376.2 49.6 375.7 48.75 374.35 48.0 373.0 47.2 371.7 47.15 L368.75 47.0 Q367.0 46.2 367.3 42.35 367.45 39.9 369.3 39.65 L371.75 39.85" fill="#000000" fill-rule="evenodd" stroke="none"/>
    <path d="M361.85 46.65 L364.05 47.05 Q365.5 47.5 365.85 47.95 366.75 46.5 368.25 46.35 L370.5 46.6 373.0 46.3 Q374.6 45.5 374.85 42.7 374.25 42.7 373.2 41.8 372.2 41.1 370.9 41.35 L368.2 41.25 Q366.4 41.05 365.8 40.15 364.35 41.25 361.1 41.15 360.0 41.15 359.3 41.6 358.75 42.05 358.65 43.0 358.45 45.85 359.95 46.5 L361.85 46.65 M366.6 38.05 Q366.65 39.8 368.7 40.15 L371.9 40.3 Q375.3 40.15 376.2 41.8 376.65 42.7 376.4 45.4 376.1 46.1 374.55 46.85 372.85 47.65 371.35 47.6 368.35 47.55 367.45 48.8 366.55 50.05 365.6 50.1 365.1 49.25 363.75 48.5 362.4 47.7 361.1 47.65 L358.15 47.5 Q356.4 46.7 356.7 42.85 356.85 40.4 358.7 40.15 L361.15 40.35 Q362.6 40.4 363.55 39.9 364.85 39.3 365.3 38.45 365.65 37.85 365.95 37.85 367.05 37.9 366.6 38.05" fill="#000000" fill-rule="evenodd" stroke="none"/>
    <path d="M359.3 41.6 Q360.0 41.15 361.1 41.15 364.35 41.25 365.8 40.15 366.4 41.05 368.2 41.25 L370.9 41.35 Q372.2 41.1 373.2 41.8 374.25 42.7 374.85 42.7 374.6 45.5 373.0 46.3 L370.5 46.6 368.25 46.35 Q366.75 46.5 365.85 47.95 365.5 47.5 364.05 47.05 L361.85 46.65 363.6 45.05 Q363.3 44.6 361.9 44.35 L359.8 43.85 360.05 42.75 362.95 43.45 365.8 43.6 368.35 43.4 Q369.6 43.0 368.2 42.1 L364.05 41.5 362.75 41.5 Q361.95 41.65 361.85 42.15 L360.85 41.8 359.5 41.6 359.3 41.6" fill="#333333" fill-rule="evenodd" stroke="none"/>
    <path d="M361.85 46.65 L359.95 46.5 Q358.45 45.85 358.65 43.0 358.75 42.05 359.3 41.6 L359.5 41.6 360.85 41.8 361.85 42.15 Q361.95 41.65 362.75 41.5 L364.05 41.5 368.2 42.1 Q369.6 43.0 368.35 43.4 L365.8 43.6 362.95 43.45 360.05 42.75 359.8 43.85 361.9 44.35 Q363.3 44.6 363.6 45.05 L361.85 46.65" fill="#3e2426" fill-rule="evenodd" stroke="none"/>
    <path d="M367.65 45.05 Q367.35 45.75 365.8 46.5 364.1 47.3 362.6 47.25 359.6 47.2 358.7 48.45 357.8 49.7 356.85 49.75 356.35 48.9 355.0 48.15 353.65 47.35 352.35 47.3 L349.4 47.15 Q347.65 46.35 347.95 42.5 348.1 40.05 349.95 39.8 L352.4 40.0 Q353.85 40.05 354.8 39.55 356.1 38.95 356.55 38.1 356.9 37.5 357.2 37.5 358.3 37.55 357.85 37.7 357.9 39.45 359.95 39.8 L363.15 39.95 Q366.55 39.8 367.45 41.45 367.9 42.35 367.65 45.05 M350.55 41.25 Q350.0 41.7 349.9 42.65 349.7 45.5 351.2 46.15 L353.1 46.3 355.3 46.7 Q356.75 47.15 357.1 47.6 358.0 46.15 359.5 46.0 L361.75 46.25 364.25 45.95 Q365.85 45.15 366.1 42.35 365.5 42.35 364.45 41.45 363.45 40.75 362.15 41.0 L359.45 40.9 Q357.65 40.7 357.05 39.8 355.6 40.9 352.35 40.8 351.25 40.8 350.55 41.25" fill="#000000" fill-rule="evenodd" stroke="none"/>
    <path d="M350.55 41.25 L350.75 41.25 352.1 41.45 353.1 41.8 Q353.2 41.3 354.0 41.15 L355.3 41.15 359.45 41.75 Q360.85 42.65 359.6 43.05 L357.05 43.25 354.2 43.1 Q352.5 42.95 351.3 42.4 L351.05 43.5 353.15 44.0 Q354.55 44.25 354.85 44.7 L353.1 46.3 351.2 46.15 Q349.7 45.5 349.9 42.65 350.0 41.7 350.55 41.25" fill="#3e2426" fill-rule="evenodd" stroke="none"/>
    <path d="M353.1 46.3 L354.85 44.7 Q354.55 44.25 353.15 44.0 L351.05 43.5 351.3 42.4 Q352.5 42.95 354.2 43.1 L357.05 43.25 359.6 43.05 Q360.85 42.65 359.45 41.75 L355.3 41.15 354.0 41.15 Q353.2 41.3 353.1 41.8 L352.1 41.45 350.75 41.25 350.55 41.25 Q351.25 40.8 352.35 40.8 355.6 40.9 357.05 39.8 357.65 40.7 359.45 40.9 L362.15 41.0 Q363.45 40.75 364.45 41.45 365.5 42.35 366.1 42.35 365.85 45.15 364.25 45.95 L361.75 46.25 359.5 46.0 Q358.0 46.15 357.1 47.6 356.75 47.15 355.3 46.7 L353.1 46.3" fill="#333333" fill-rule="evenodd" stroke="none"/>
    <path d="M343.0 37.0 L343.65 36.4 Q344.75 36.45 344.3 36.6 344.35 38.35 346.4 38.7 L349.6 38.85 Q353.0 38.7 353.9 40.35 354.35 41.25 354.1 43.95 353.8 44.65 352.25 45.4 350.55 46.2 349.05 46.15 346.05 46.1 345.15 47.35 344.25 48.6 343.3 48.65 342.8 47.8 341.45 47.05 340.1 46.25 338.8 46.2 L335.85 46.05 Q334.1 45.25 334.4 41.4 334.55 38.95 336.4 38.7 L338.85 38.9 341.25 38.45 Q342.55 37.85 343.0 37.0 M339.55 45.2 L341.75 45.6 Q343.2 46.05 343.55 46.5 344.45 45.05 345.95 44.9 L348.2 45.15 350.7 44.85 Q352.3 44.05 352.55 41.25 351.95 41.25 350.9 40.35 349.9 39.65 348.6 39.9 L345.9 39.8 Q344.1 39.6 343.5 38.7 342.05 39.8 338.8 39.7 337.7 39.7 337.0 40.15 336.45 40.6 336.35 41.55 336.15 44.4 337.65 45.05 L339.55 45.2" fill="#000000" fill-rule="evenodd" stroke="none"/>
    <path d="M339.55 45.2 L341.3 43.6 Q341.0 43.15 339.6 42.9 L337.5 42.4 337.75 41.3 Q338.95 41.85 340.65 42.0 L343.5 42.15 346.05 41.95 Q347.3 41.55 345.9 40.65 L341.75 40.05 340.45 40.05 Q339.65 40.2 339.55 40.7 L338.55 40.35 337.2 40.15 337.0 40.15 Q337.7 39.7 338.8 39.7 342.05 39.8 343.5 38.7 344.1 39.6 345.9 39.8 L348.6 39.9 Q349.9 39.65 350.9 40.35 351.95 41.25 352.55 41.25 352.3 44.05 350.7 44.85 L348.2 45.15 345.95 44.9 Q344.45 45.05 343.55 46.5 343.2 46.05 341.75 45.6 L339.55 45.2" fill="#333333" fill-rule="evenodd" stroke="none"/>
    <path d="M337.0 40.15 L337.2 40.15 338.55 40.35 339.55 40.7 Q339.65 40.2 340.45 40.05 L341.75 40.05 345.9 40.65 Q347.3 41.55 346.05 41.95 L343.5 42.15 340.65 42.0 Q338.95 41.85 337.75 41.3 L337.5 42.4 339.6 42.9 Q341.0 43.15 341.3 43.6 L339.55 45.2 337.65 45.05 Q336.15 44.4 336.35 41.55 336.45 40.6 337.0 40.15" fill="#3e2426" fill-rule="evenodd" stroke="none"/>
    <path d="M333.05 35.3 Q334.15 35.35 333.7 35.5 333.75 37.25 335.8 37.6 L339.0 37.75 Q342.4 37.6 343.3 39.25 343.75 40.15 343.5 42.85 343.2 43.55 341.65 44.3 339.95 45.1 338.45 45.05 335.45 45.0 334.55 46.25 333.65 47.5 332.7 47.55 332.2 46.7 330.85 45.95 329.5 45.15 328.2 45.1 L325.25 44.95 Q323.5 44.15 323.8 40.3 323.95 37.85 325.8 37.6 L328.25 37.8 Q329.7 37.85 330.65 37.35 331.95 36.75 332.4 35.9 332.75 35.3 333.05 35.3 M328.95 44.1 L331.15 44.5 Q332.6 44.95 332.95 45.4 333.85 43.95 335.35 43.8 L337.6 44.05 340.1 43.75 Q341.7 42.95 341.95 40.15 L340.3 39.25 Q339.3 38.55 338.0 38.8 L335.3 38.7 Q333.5 38.5 332.9 37.6 331.45 38.7 328.2 38.6 327.1 38.6 326.4 39.05 325.85 39.5 325.75 40.45 325.55 43.3 327.05 43.95 L328.95 44.1" fill="#000000" fill-rule="evenodd" stroke="none"/>
    <path d="M328.95 44.1 Q329.8 43.65 330.7 42.5 330.4 42.05 329.0 41.8 L326.9 41.3 327.15 40.2 330.05 40.9 332.9 41.05 335.45 40.85 Q336.7 40.45 335.3 39.55 L331.15 38.95 329.85 38.95 Q329.05 39.1 328.95 39.6 L327.95 39.25 326.6 39.05 326.4 39.05 Q327.1 38.6 328.2 38.6 331.45 38.7 332.9 37.6 333.5 38.5 335.3 38.7 L338.0 38.8 Q339.3 38.55 340.3 39.25 L341.95 40.15 Q341.7 42.95 340.1 43.75 L337.6 44.05 335.35 43.8 Q333.85 43.95 332.95 45.4 332.6 44.95 331.15 44.5 L328.95 44.1" fill="#333333" fill-rule="evenodd" stroke="none"/>
    <path d="M326.4 39.05 L326.6 39.05 327.95 39.25 328.95 39.6 Q329.05 39.1 329.85 38.95 L331.15 38.95 335.3 39.55 Q336.7 40.45 335.45 40.85 L332.9 41.05 330.05 40.9 327.15 40.2 326.9 41.3 329.0 41.8 Q330.4 42.05 330.7 42.5 329.8 43.65 328.95 44.1 L327.05 43.95 Q325.55 43.3 325.75 40.45 325.85 39.5 326.4 39.05" fill="#3e2426" fill-rule="evenodd" stroke="none"/>
    <path d="M318.35 44.6 L320.55 45.0 Q322.0 45.45 322.35 45.9 323.25 44.45 324.75 44.3 L327.0 44.55 329.5 44.25 Q331.1 43.45 331.35 40.65 330.75 40.65 329.7 39.75 328.7 39.05 327.4 39.3 L324.7 39.2 Q322.9 39.0 322.3 38.1 320.85 39.2 317.6 39.1 316.5 39.1 315.8 39.55 315.25 40.0 315.15 40.95 314.95 43.8 316.45 44.45 L318.35 44.6 M325.2 38.1 L328.4 38.25 Q331.8 38.1 332.7 39.75 333.15 40.65 332.9 43.35 332.6 44.05 331.05 44.8 329.35 45.6 327.85 45.55 324.85 45.5 323.95 46.75 323.05 48.0 322.1 48.05 321.6 47.2 320.25 46.45 318.9 45.65 317.6 45.6 L314.65 45.45 Q312.9 44.65 313.2 40.8 313.35 38.35 315.2 38.1 L317.65 38.3 Q319.1 38.35 320.05 37.85 321.35 37.25 321.8 36.4 322.15 35.8 322.45 35.8 323.55 35.85 323.1 36.0 323.15 37.75 325.2 38.1" fill="#000000" fill-rule="evenodd" stroke="none"/>
    <path d="M315.8 39.55 Q316.5 39.1 317.6 39.1 320.85 39.2 322.3 38.1 322.9 39.0 324.7 39.2 L327.4 39.3 Q328.7 39.05 329.7 39.75 330.75 40.65 331.35 40.65 331.1 43.45 329.5 44.25 L327.0 44.55 324.75 44.3 Q323.25 44.45 322.35 45.9 322.0 45.45 320.55 45.0 L318.35 44.6 Q319.2 44.15 320.1 43.0 319.8 42.55 318.4 42.3 L316.3 41.8 316.55 40.7 Q317.75 41.25 319.45 41.4 L322.3 41.55 324.85 41.35 Q326.1 40.95 324.7 40.05 L320.55 39.45 319.25 39.45 Q318.45 39.6 318.35 40.1 L317.35 39.75 316.0 39.55 315.8 39.55" fill="#333333" fill-rule="evenodd" stroke="none"/>
    <path d="M318.35 44.6 L316.45 44.45 Q314.95 43.8 315.15 40.95 315.25 40.0 315.8 39.55 L316.0 39.55 317.35 39.75 318.35 40.1 Q318.45 39.6 319.25 39.45 L320.55 39.45 324.7 40.05 Q326.1 40.95 324.85 41.35 L322.3 41.55 319.45 41.4 Q317.75 41.25 316.55 40.7 L316.3 41.8 318.4 42.3 Q319.8 42.55 320.1 43.0 319.2 44.15 318.35 44.6" fill="#3e2426" fill-rule="evenodd" stroke="none"/>
    <path d="M313.05 36.05 L313.7 35.45 Q314.8 35.5 314.35 35.65 314.4 37.4 316.45 37.75 L319.65 37.9 Q323.05 37.75 323.95 39.4 324.4 40.3 324.15 43.0 323.85 43.7 322.3 44.45 320.6 45.25 319.1 45.2 316.1 45.15 315.2 46.4 314.3 47.65 313.35 47.7 312.85 46.85 311.5 46.1 310.15 45.3 308.85 45.25 L305.9 45.1 Q304.15 44.3 304.45 40.45 304.6 38.0 306.45 37.75 L308.9 37.95 Q310.35 38.0 311.3 37.5 312.6 36.9 313.05 36.05 M309.6 44.25 L311.8 44.65 Q313.25 45.1 313.6 45.55 314.5 44.1 316.0 43.95 L318.25 44.2 320.75 43.9 Q322.35 43.1 322.6 40.3 322.0 40.3 320.95 39.4 319.95 38.7 318.65 38.95 L315.95 38.85 Q314.15 38.65 313.55 37.75 312.1 38.85 308.85 38.75 307.75 38.75 307.05 39.2 306.5 39.65 306.4 40.6 306.2 43.45 307.7 44.1 L309.6 44.25" fill="#000000" fill-rule="evenodd" stroke="none"/>
    <path d="M309.6 44.25 L311.35 42.65 Q311.05 42.2 309.65 41.95 L307.55 41.45 307.8 40.35 Q309.0 40.9 310.7 41.05 L313.55 41.2 316.1 41.0 Q317.35 40.6 315.95 39.7 L311.8 39.1 310.5 39.1 Q309.7 39.25 309.6 39.75 L308.6 39.4 307.25 39.2 307.05 39.2 Q307.75 38.75 308.85 38.75 312.1 38.85 313.55 37.75 314.15 38.65 315.95 38.85 L318.65 38.95 Q319.95 38.7 320.95 39.4 322.0 40.3 322.6 40.3 322.35 43.1 320.75 43.9 L318.25 44.2 316.0 43.95 Q314.5 44.1 313.6 45.55 313.25 45.1 311.8 44.65 L309.6 44.25" fill="#333333" fill-rule="evenodd" stroke="none"/>
    <path d="M307.05 39.2 L307.25 39.2 308.6 39.4 309.6 39.75 Q309.7 39.25 310.5 39.1 L311.8 39.1 315.95 39.7 Q317.35 40.6 316.1 41.0 L313.55 41.2 310.7 41.05 Q309.0 40.9 307.8 40.35 L307.55 41.45 309.65 41.95 Q311.05 42.2 311.35 42.65 L309.6 44.25 307.7 44.1 Q306.2 43.45 306.4 40.6 306.5 39.65 307.05 39.2" fill="#3e2426" fill-rule="evenodd" stroke="none"/>
    <path d="M298.65 35.6 Q299.75 35.65 299.3 35.8 299.35 37.55 301.4 37.9 L304.6 38.05 Q308.0 37.9 308.9 39.55 309.35 40.45 309.1 43.15 308.8 43.85 307.25 44.6 305.55 45.4 304.05 45.35 301.05 45.3 300.15 46.55 299.25 47.8 298.3 47.85 297.8 47.0 296.45 46.25 295.1 45.45 293.8 45.4 L290.85 45.25 Q289.1 44.45 289.4 40.6 289.55 38.15 291.4 37.9 L293.85 38.1 296.25 37.65 Q297.55 37.05 298.0 36.2 298.35 35.6 298.65 35.6 M292.0 39.35 Q291.45 39.8 291.35 40.75 291.15 43.6 292.65 44.25 L294.55 44.4 296.75 44.8 Q298.2 45.25 298.55 45.7 299.45 44.25 300.95 44.1 L303.2 44.35 305.7 44.05 Q307.3 43.25 307.55 40.45 306.95 40.45 305.9 39.55 304.9 38.85 303.6 39.1 L300.9 39.0 Q299.1 38.8 298.5 37.9 297.05 39.0 293.8 38.9 292.7 38.9 292.0 39.35" fill="#000000" fill-rule="evenodd" stroke="none"/>
    <path d="M292.0 39.35 L292.2 39.35 293.55 39.55 294.55 39.9 Q294.65 39.4 295.45 39.25 L296.75 39.25 300.9 39.85 Q302.3 40.75 301.05 41.15 L298.5 41.35 295.65 41.2 Q293.95 41.05 292.75 40.5 L292.5 41.6 294.6 42.1 Q296.0 42.35 296.3 42.8 L294.55 44.4 292.65 44.25 Q291.15 43.6 291.35 40.75 291.45 39.8 292.0 39.35" fill="#3e2426" fill-rule="evenodd" stroke="none"/>
    <path d="M294.55 44.4 L296.3 42.8 Q296.0 42.35 294.6 42.1 L292.5 41.6 292.75 40.5 Q293.95 41.05 295.65 41.2 L298.5 41.35 301.05 41.15 Q302.3 40.75 300.9 39.85 L296.75 39.25 295.45 39.25 Q294.65 39.4 294.55 39.9 L293.55 39.55 292.2 39.35 292.0 39.35 Q292.7 38.9 293.8 38.9 297.05 39.0 298.5 37.9 299.1 38.8 300.9 39.0 L303.6 39.1 Q304.9 38.85 305.9 39.55 306.95 40.45 307.55 40.45 307.3 43.25 305.7 44.05 L303.2 44.35 300.95 44.1 Q299.45 44.25 298.55 45.7 298.2 45.25 296.75 44.8 L294.55 44.4" fill="#333333" fill-rule="evenodd" stroke="none"/>
    <path d="M285.65 36.5 Q286.95 35.9 287.4 35.05 287.75 34.45 288.05 34.45 289.15 34.5 288.7 34.65 288.75 36.4 290.8 36.75 L294.0 36.9 Q297.4 36.75 298.3 38.4 298.75 39.3 298.5 42.0 298.2 42.7 296.65 43.45 294.95 44.25 293.45 44.2 290.45 44.15 289.55 45.4 288.65 46.65 287.7 46.7 287.2 45.85 285.85 45.1 284.5 44.3 283.2 44.25 L280.25 44.1 Q278.5 43.3 278.8 39.45 278.95 37.0 280.8 36.75 L283.25 36.95 Q284.7 37.0 285.65 36.5 M283.95 43.25 L286.15 43.65 Q287.6 44.1 287.95 44.55 288.85 43.1 290.35 42.95 L292.6 43.2 295.1 42.9 Q296.7 42.1 296.95 39.3 L295.3 38.4 Q294.3 37.7 293.0 37.95 L290.3 37.85 Q288.5 37.65 287.9 36.75 286.45 37.85 283.2 37.75 282.1 37.75 281.4 38.2 280.85 38.65 280.75 39.6 280.55 42.45 282.05 43.1 L283.95 43.25" fill="#000000" fill-rule="evenodd" stroke="none"/>
    <path d="M281.4 38.2 Q282.1 37.75 283.2 37.75 286.45 37.85 287.9 36.75 288.5 37.65 290.3 37.85 L293.0 37.95 Q294.3 37.7 295.3 38.4 L296.95 39.3 Q296.7 42.1 295.1 42.9 L292.6 43.2 290.35 42.95 Q288.85 43.1 287.95 44.55 287.6 44.1 286.15 43.65 L283.95 43.25 285.7 41.65 Q285.4 41.2 284.0 40.95 L281.9 40.45 282.15 39.35 Q283.35 39.9 285.05 40.05 L287.9 40.2 290.45 40.0 Q291.7 39.6 290.3 38.7 L286.15 38.1 284.85 38.1 Q284.05 38.25 283.95 38.75 L282.95 38.4 281.6 38.2 281.4 38.2" fill="#333333" fill-rule="evenodd" stroke="none"/>
    <path d="M281.4 38.2 L281.6 38.2 282.95 38.4 283.95 38.75 Q284.05 38.25 284.85 38.1 L286.15 38.1 290.3 38.7 Q291.7 39.6 290.45 40.0 L287.9 40.2 285.05 40.05 Q283.35 39.9 282.15 39.35 L281.9 40.45 284.0 40.95 Q285.4 41.2 285.7 41.65 L283.95 43.25 282.05 43.1 Q280.55 42.45 280.75 39.6 280.85 38.65 281.4 38.2" fill="#3e2426" fill-rule="evenodd" stroke="none"/>
    <path d="M287.9 42.55 Q287.6 43.25 286.05 44.0 284.35 44.8 282.85 44.75 279.85 44.7 278.95 45.95 278.05 47.2 277.1 47.25 276.6 46.4 275.25 45.65 273.9 44.85 272.6 44.8 L269.65 44.65 Q267.9 43.85 268.2 40.0 268.35 37.55 270.2 37.3 L272.65 37.5 Q274.1 37.55 275.05 37.05 276.35 36.45 276.8 35.6 277.15 35.0 277.45 35.0 278.55 35.05 278.1 35.2 278.15 36.95 280.2 37.3 L283.4 37.45 Q286.8 37.3 287.7 38.95 288.15 39.85 287.9 42.55 M273.35 43.8 L275.55 44.2 Q277.0 44.65 277.35 45.1 278.25 43.65 279.75 43.5 L282.0 43.75 284.5 43.45 Q286.1 42.65 286.35 39.85 285.75 39.85 284.7 38.95 283.7 38.25 282.4 38.5 L279.7 38.4 Q277.9 38.2 277.3 37.3 275.85 38.4 272.6 38.3 271.5 38.3 270.8 38.75 270.25 39.2 270.15 40.15 269.95 43.0 271.45 43.65 L273.35 43.8" fill="#000000" fill-rule="evenodd" stroke="none"/>
    <path d="M270.8 38.75 Q271.5 38.3 272.6 38.3 275.85 38.4 277.3 37.3 277.9 38.2 279.7 38.4 L282.4 38.5 Q283.7 38.25 284.7 38.95 285.75 39.85 286.35 39.85 286.1 42.65 284.5 43.45 L282.0 43.75 279.75 43.5 Q278.25 43.65 277.35 45.1 277.0 44.65 275.55 44.2 L273.35 43.8 Q274.2 43.35 275.1 42.2 274.8 41.75 273.4 41.5 L271.3 41.0 271.55 39.9 Q272.75 40.45 274.45 40.6 L277.3 40.75 279.85 40.55 Q281.1 40.15 279.7 39.25 L275.55 38.65 274.25 38.65 Q273.45 38.8 273.35 39.3 L272.35 38.95 271.0 38.75 270.8 38.75" fill="#333333" fill-rule="evenodd" stroke="none"/>
    <path d="M273.35 43.8 L271.45 43.65 Q269.95 43.0 270.15 40.15 270.25 39.2 270.8 38.75 L271.0 38.75 272.35 38.95 273.35 39.3 Q273.45 38.8 274.25 38.65 L275.55 38.65 279.7 39.25 Q281.1 40.15 279.85 40.55 L277.3 40.75 274.45 40.6 Q272.75 40.45 271.55 39.9 L271.3 41.0 273.4 41.5 Q274.8 41.75 275.1 42.2 274.2 43.35 273.35 43.8" fill="#3e2426" fill-rule="evenodd" stroke="none"/>
    <path d="M262.05 38.4 L262.25 38.4 263.6 38.6 264.6 38.95 Q264.7 38.45 265.5 38.3 L266.8 38.3 270.95 38.9 Q272.35 39.8 271.1 40.2 L268.55 40.4 265.7 40.25 Q264.0 40.1 262.8 39.55 L262.55 40.65 264.65 41.15 Q266.05 41.4 266.35 41.85 L264.6 43.45 262.7 43.3 Q261.2 42.65 261.4 39.8 261.5 38.85 262.05 38.4" fill="#3e2426" fill-rule="evenodd" stroke="none"/>
    <path d="M264.6 43.45 L266.35 41.85 Q266.05 41.4 264.65 41.15 L262.55 40.65 262.8 39.55 Q264.0 40.1 265.7 40.25 L268.55 40.4 271.1 40.2 Q272.35 39.8 270.95 38.9 L266.8 38.3 265.5 38.3 Q264.7 38.45 264.6 38.95 L263.6 38.6 262.25 38.4 262.05 38.4 Q262.75 37.95 263.85 37.95 267.1 38.05 268.55 36.95 269.15 37.85 270.95 38.05 L273.65 38.15 Q274.95 37.9 275.95 38.6 277.0 39.5 277.6 39.5 277.35 42.3 275.75 43.1 L273.25 43.4 271.0 43.15 Q269.5 43.3 268.6 44.75 268.25 44.3 266.8 43.85 L264.6 43.45" fill="#333333" fill-rule="evenodd" stroke="none"/>
    <path d="M262.05 38.4 Q261.5 38.85 261.4 39.8 261.2 42.65 262.7 43.3 L264.6 43.45 266.8 43.85 Q268.25 44.3 268.6 44.75 269.5 43.3 271.0 43.15 L273.25 43.4 275.75 43.1 Q277.35 42.3 277.6 39.5 277.0 39.5 275.95 38.6 274.95 37.9 273.65 38.15 L270.95 38.05 Q269.15 37.85 268.55 36.95 267.1 38.05 263.85 37.95 262.75 37.95 262.05 38.4 M259.45 39.65 Q259.6 37.2 261.45 36.95 L263.9 37.15 266.3 36.7 Q267.6 36.1 268.05 35.25 268.4 34.65 268.7 34.65 269.8 34.7 269.35 34.85 269.4 36.6 271.45 36.95 L274.65 37.1 Q278.05 36.95 278.95 38.6 279.4 39.5 279.15 42.2 278.85 42.9 277.3 43.65 275.6 44.45 274.1 44.4 271.1 44.35 270.2 45.6 269.3 46.85 268.35 46.9 267.85 46.05 266.5 45.3 265.15 44.5 263.85 44.45 L260.9 44.3 Q259.15 43.5 259.45 39.65" fill="#000000" fill-rule="evenodd" stroke="none"/>
    <path d="M256.15 35.1 Q257.25 35.15 256.8 35.3 256.85 37.05 258.9 37.4 L262.1 37.55 Q265.5 37.4 266.4 39.05 266.85 39.95 266.6 42.65 266.3 43.35 264.75 44.1 263.05 44.9 261.55 44.85 258.55 44.8 257.65 46.05 256.75 47.3 255.8 47.35 255.3 46.5 253.95 45.75 252.6 44.95 251.3 44.9 L248.35 44.75 Q246.6 43.95 246.9 40.1 247.05 37.65 248.9 37.4 L251.35 37.6 253.75 37.15 Q255.05 36.55 255.5 35.7 255.85 35.1 256.15 35.1 M252.05 43.9 L254.25 44.3 Q255.7 44.75 256.05 45.2 256.95 43.75 258.45 43.6 L260.7 43.85 263.2 43.55 Q264.8 42.75 265.05 39.95 264.45 39.95 263.4 39.05 262.4 38.35 261.1 38.6 L258.4 38.5 Q256.6 38.3 256.0 37.4 254.55 38.5 251.3 38.4 250.2 38.4 249.5 38.85 248.95 39.3 248.85 40.25 248.65 43.1 250.15 43.75 L252.05 43.9" fill="#000000" fill-rule="evenodd" stroke="none"/>
    <path d="M252.05 43.9 L253.8 42.3 Q253.5 41.85 252.1 41.6 L250.0 41.1 250.25 40.0 Q251.45 40.55 253.15 40.7 L256.0 40.85 258.55 40.65 Q259.8 40.25 258.4 39.35 L254.25 38.75 252.95 38.75 Q252.15 38.9 252.05 39.4 L251.05 39.05 249.7 38.85 249.5 38.85 Q250.2 38.4 251.3 38.4 254.55 38.5 256.0 37.4 256.6 38.3 258.4 38.5 L261.1 38.6 Q262.4 38.35 263.4 39.05 264.45 39.95 265.05 39.95 264.8 42.75 263.2 43.55 L260.7 43.85 258.45 43.6 Q256.95 43.75 256.05 45.2 255.7 44.75 254.25 44.3 L252.05 43.9" fill="#333333" fill-rule="evenodd" stroke="none"/>
    <path d="M249.5 38.85 L249.7 38.85 251.05 39.05 252.05 39.4 Q252.15 38.9 252.95 38.75 L254.25 38.75 258.4 39.35 Q259.8 40.25 258.55 40.65 L256.0 40.85 253.15 40.7 Q251.45 40.55 250.25 40.0 L250.0 41.1 252.1 41.6 Q253.5 41.85 253.8 42.3 L252.05 43.9 250.15 43.75 Q248.65 43.1 248.85 40.25 248.95 39.3 249.5 38.85" fill="#3e2426" fill-rule="evenodd" stroke="none"/>
    <path d="M245.65 35.15 Q246.75 35.2 246.3 35.35 246.35 37.1 248.4 37.45 L251.6 37.6 Q255.0 37.45 255.9 39.1 256.35 40.0 256.1 42.7 255.8 43.4 254.25 44.15 252.55 44.95 251.05 44.9 248.05 44.85 247.15 46.1 246.25 47.35 245.3 47.4 244.8 46.55 243.45 45.8 242.1 45.0 240.8 44.95 L237.85 44.8 Q236.1 44.0 236.4 40.15 236.55 37.7 238.4 37.45 L240.85 37.65 Q242.3 37.7 243.25 37.2 244.55 36.6 245.0 35.75 245.35 35.15 245.65 35.15 M241.55 43.95 L243.75 44.35 Q245.2 44.8 245.55 45.25 246.45 43.8 247.95 43.65 L250.2 43.9 252.7 43.6 Q254.3 42.8 254.55 40.0 253.95 40.0 252.9 39.1 251.9 38.4 250.6 38.65 L247.9 38.55 Q246.1 38.35 245.5 37.45 244.05 38.55 240.8 38.45 239.7 38.45 239.0 38.9 238.45 39.35 238.35 40.3 238.15 43.15 239.65 43.8 L241.55 43.95" fill="#000000" fill-rule="evenodd" stroke="none"/>
    <path d="M239.0 38.9 Q239.7 38.45 240.8 38.45 244.05 38.55 245.5 37.45 246.1 38.35 247.9 38.55 L250.6 38.65 Q251.9 38.4 252.9 39.1 253.95 40.0 254.55 40.0 254.3 42.8 252.7 43.6 L250.2 43.9 247.95 43.65 Q246.45 43.8 245.55 45.25 245.2 44.8 243.75 44.35 L241.55 43.95 243.3 42.35 Q243.0 41.9 241.6 41.65 L239.5 41.15 239.75 40.05 Q240.95 40.6 242.65 40.75 L245.5 40.9 248.05 40.7 Q249.3 40.3 247.9 39.4 L243.75 38.8 242.45 38.8 Q241.65 38.95 241.55 39.45 L240.55 39.1 239.2 38.9 239.0 38.9" fill="#333333" fill-rule="evenodd" stroke="none"/>
    <path d="M241.55 43.95 L239.65 43.8 Q238.15 43.15 238.35 40.3 238.45 39.35 239.0 38.9 L239.2 38.9 240.55 39.1 241.55 39.45 Q241.65 38.95 242.45 38.8 L243.75 38.8 247.9 39.4 Q249.3 40.3 248.05 40.7 L245.5 40.9 242.65 40.75 Q240.95 40.6 239.75 40.05 L239.5 41.15 241.6 41.65 Q243.0 41.9 243.3 42.35 L241.55 43.95" fill="#3e2426" fill-rule="evenodd" stroke="none"/>
    <path d="M245.4 42.05 Q245.1 42.75 243.55 43.5 241.85 44.3 240.35 44.25 237.35 44.2 236.45 45.45 235.55 46.7 234.6 46.75 234.1 45.9 232.75 45.15 231.4 44.35 230.1 44.3 L227.15 44.15 Q225.4 43.35 225.7 39.5 225.85 37.05 227.7 36.8 L230.15 37.0 Q231.6 37.05 232.55 36.55 233.85 35.95 234.3 35.1 234.65 34.5 234.95 34.5 236.05 34.55 235.6 34.7 235.65 36.45 237.7 36.8 L240.9 36.95 Q244.3 36.8 245.2 38.45 245.65 39.35 245.4 42.05 M230.85 43.3 L233.05 43.7 Q234.5 44.15 234.85 44.6 235.75 43.15 237.25 43.0 L239.5 43.25 242.0 42.95 Q243.6 42.15 243.85 39.35 L242.2 38.45 Q241.2 37.75 239.9 38.0 L237.2 37.9 Q235.4 37.7 234.8 36.8 233.35 37.9 230.1 37.8 229.0 37.8 228.3 38.25 227.75 38.7 227.65 39.65 227.45 42.5 228.95 43.15 L230.85 43.3" fill="#000000" fill-rule="evenodd" stroke="none"/>
    <path d="M230.85 43.3 Q231.7 42.85 232.6 41.7 232.3 41.25 230.9 41.0 L228.8 40.5 229.05 39.4 Q230.25 39.95 231.95 40.1 L234.8 40.25 237.35 40.05 Q238.6 39.65 237.2 38.75 L233.05 38.15 231.75 38.15 Q230.95 38.3 230.85 38.8 L229.85 38.45 228.5 38.25 228.3 38.25 Q229.0 37.8 230.1 37.8 233.35 37.9 234.8 36.8 235.4 37.7 237.2 37.9 L239.9 38.0 Q241.2 37.75 242.2 38.45 L243.85 39.35 Q243.6 42.15 242.0 42.95 L239.5 43.25 237.25 43.0 Q235.75 43.15 234.85 44.6 234.5 44.15 233.05 43.7 L230.85 43.3" fill="#333333" fill-rule="evenodd" stroke="none"/>
    <path d="M228.3 38.25 L228.5 38.25 229.85 38.45 230.85 38.8 Q230.95 38.3 231.75 38.15 L233.05 38.15 237.2 38.75 Q238.6 39.65 237.35 40.05 L234.8 40.25 231.95 40.1 Q230.25 39.95 229.05 39.4 L228.8 40.5 230.9 41.0 Q232.3 41.25 232.6 41.7 231.7 42.85 230.85 43.3 L228.95 43.15 Q227.45 42.5 227.65 39.65 227.75 38.7 228.3 38.25" fill="#3e2426" fill-rule="evenodd" stroke="none"/>
    <path d="M218.95 36.45 L221.4 36.65 Q222.85 36.7 223.8 36.2 225.1 35.6 225.55 34.75 225.9 34.15 226.2 34.15 227.3 34.2 226.85 34.35 226.9 36.1 228.95 36.45 L232.15 36.6 Q235.55 36.45 236.45 38.1 236.9 39.0 236.65 41.7 236.35 42.4 234.8 43.15 233.1 43.95 231.6 43.9 228.6 43.85 227.7 45.1 226.8 46.35 225.85 46.4 225.35 45.55 224.0 44.8 222.65 44.0 221.35 43.95 L218.4 43.8 Q216.65 43.0 216.95 39.15 217.1 36.7 218.95 36.45 M222.1 42.95 L224.3 43.35 Q225.75 43.8 226.1 44.25 227.0 42.8 228.5 42.65 L230.75 42.9 233.25 42.6 Q234.85 41.8 235.1 39.0 234.5 39.0 233.45 38.1 232.45 37.4 231.15 37.65 L228.45 37.55 Q226.65 37.35 226.05 36.45 224.6 37.55 221.35 37.45 220.25 37.45 219.55 37.9 219.0 38.35 218.9 39.3 218.7 42.15 220.2 42.8 L222.1 42.95" fill="#000000" fill-rule="evenodd" stroke="none"/>
    <path d="M222.1 42.95 L223.85 41.35 Q223.55 40.9 222.15 40.65 L220.05 40.15 220.3 39.05 Q221.5 39.6 223.2 39.75 L226.05 39.9 228.6 39.7 Q229.85 39.3 228.45 38.4 L224.3 37.8 223.0 37.8 Q222.2 37.95 222.1 38.45 L221.1 38.1 219.75 37.9 219.55 37.9 Q220.25 37.45 221.35 37.45 224.6 37.55 226.05 36.45 226.65 37.35 228.45 37.55 L231.15 37.65 Q232.45 37.4 233.45 38.1 234.5 39.0 235.1 39.0 234.85 41.8 233.25 42.6 L230.75 42.9 228.5 42.65 Q227.0 42.8 226.1 44.25 225.75 43.8 224.3 43.35 L222.1 42.95" fill="#333333" fill-rule="evenodd" stroke="none"/>
    <path d="M219.55 37.9 L219.75 37.9 221.1 38.1 222.1 38.45 Q222.2 37.95 223.0 37.8 L224.3 37.8 228.45 38.4 Q229.85 39.3 228.6 39.7 L226.05 39.9 223.2 39.75 Q221.5 39.6 220.3 39.05 L220.05 40.15 222.15 40.65 Q223.55 40.9 223.85 41.35 L222.1 42.95 220.2 42.8 Q218.7 42.15 218.9 39.3 219.0 38.35 219.55 37.9" fill="#3e2426" fill-rule="evenodd" stroke="none"/>
    <path d="M207.35 36.2 Q208.65 35.6 209.1 34.75 209.45 34.15 209.75 34.15 210.85 34.2 210.4 34.35 210.45 36.1 212.5 36.45 L215.7 36.6 Q219.1 36.45 220.0 38.1 220.45 39.0 220.2 41.7 219.9 42.4 218.35 43.15 216.65 43.95 215.15 43.9 212.15 43.85 211.25 45.1 210.35 46.35 209.4 46.4 208.9 45.55 207.55 44.8 206.2 44.0 204.9 43.95 L201.95 43.8 Q200.2 43.0 200.5 39.15 200.65 36.7 202.5 36.45 L204.95 36.65 207.35 36.2 M205.65 42.95 L207.85 43.35 Q209.3 43.8 209.65 44.25 210.55 42.8 212.05 42.65 L214.3 42.9 216.8 42.6 Q218.4 41.8 218.65 39.0 L217.0 38.1 Q216.0 37.4 214.7 37.65 L212.0 37.55 Q210.2 37.35 209.6 36.45 208.15 37.55 204.9 37.45 203.8 37.45 203.1 37.9 202.55 38.35 202.45 39.3 202.25 42.15 203.75 42.8 L205.65 42.95" fill="#000000" fill-rule="evenodd" stroke="none"/>
    <path d="M205.65 42.95 Q206.5 42.5 207.4 41.35 207.1 40.9 205.7 40.65 L203.6 40.15 203.85 39.05 Q205.05 39.6 206.75 39.75 L209.6 39.9 212.15 39.7 Q213.4 39.3 212.0 38.4 L207.85 37.8 206.55 37.8 Q205.75 37.95 205.65 38.45 L204.65 38.1 203.3 37.9 203.1 37.9 Q203.8 37.45 204.9 37.45 208.15 37.55 209.6 36.45 210.2 37.35 212.0 37.55 L214.7 37.65 Q216.0 37.4 217.0 38.1 L218.65 39.0 Q218.4 41.8 216.8 42.6 L214.3 42.9 212.05 42.65 Q210.55 42.8 209.65 44.25 209.3 43.8 207.85 43.35 L205.65 42.95" fill="#333333" fill-rule="evenodd" stroke="none"/>
    <path d="M203.1 37.9 L203.3 37.9 204.65 38.1 205.65 38.45 Q205.75 37.95 206.55 37.8 L207.85 37.8 212.0 38.4 Q213.4 39.3 212.15 39.7 L209.6 39.9 206.75 39.75 Q205.05 39.6 203.85 39.05 L203.6 40.15 205.7 40.65 Q207.1 40.9 207.4 41.35 206.5 42.5 205.65 42.95 L203.75 42.8 Q202.25 42.15 202.45 39.3 202.55 38.35 203.1 37.9" fill="#3e2426" fill-rule="evenodd" stroke="none"/>
    <path d="M195.05 41.85 L197.25 42.25 Q198.7 42.7 199.05 43.15 199.95 41.7 201.45 41.55 L203.7 41.8 206.2 41.5 Q207.8 40.7 208.05 37.9 207.45 37.9 206.4 37.0 205.4 36.3 204.1 36.55 L201.4 36.45 Q199.6 36.25 199.0 35.35 197.55 36.45 194.3 36.35 193.2 36.35 192.5 36.8 191.95 37.25 191.85 38.2 191.65 41.05 193.15 41.7 L195.05 41.85 M205.1 35.5 Q208.5 35.35 209.4 37.0 209.85 37.9 209.6 40.6 209.3 41.3 207.75 42.05 206.05 42.85 204.55 42.8 201.55 42.75 200.65 44.0 199.75 45.25 198.8 45.3 198.3 44.45 196.95 43.7 195.6 42.9 194.3 42.85 L191.35 42.7 Q189.6 41.9 189.9 38.05 190.05 35.6 191.9 35.35 L194.35 35.55 Q195.8 35.6 196.75 35.1 198.05 34.5 198.5 33.65 198.85 33.05 199.15 33.05 200.25 33.1 199.8 33.25 199.85 35.0 201.9 35.35 L205.1 35.5" fill="#000000" fill-rule="evenodd" stroke="none"/>
    <path d="M192.5 36.8 Q193.2 36.35 194.3 36.35 197.55 36.45 199.0 35.35 199.6 36.25 201.4 36.45 L204.1 36.55 Q205.4 36.3 206.4 37.0 207.45 37.9 208.05 37.9 207.8 40.7 206.2 41.5 L203.7 41.8 201.45 41.55 Q199.95 41.7 199.05 43.15 198.7 42.7 197.25 42.25 L195.05 41.85 196.8 40.25 Q196.5 39.8 195.1 39.55 L193.0 39.05 193.25 37.95 Q194.45 38.5 196.15 38.65 L199.0 38.8 201.55 38.6 Q202.8 38.2 201.4 37.3 L197.25 36.7 195.95 36.7 Q195.15 36.85 195.05 37.35 194.4 37.1 194.05 37.0 L192.7 36.8 192.5 36.8" fill="#333333" fill-rule="evenodd" stroke="none"/>
    <path d="M195.05 41.85 L193.15 41.7 Q191.65 41.05 191.85 38.2 191.95 37.25 192.5 36.8 L192.7 36.8 194.05 37.0 Q194.4 37.1 195.05 37.35 195.15 36.85 195.95 36.7 L197.25 36.7 201.4 37.3 Q202.8 38.2 201.55 38.6 L199.0 38.8 196.15 38.65 Q194.45 38.5 193.25 37.95 L193.0 39.05 195.1 39.55 Q196.5 39.8 196.8 40.25 L195.05 41.85" fill="#3e2426" fill-rule="evenodd" stroke="none"/>
    <path d="M181.8 36.15 L182.0 36.15 183.35 36.35 184.35 36.7 Q184.45 36.2 185.25 36.05 L186.55 36.05 190.7 36.65 Q192.1 37.55 190.85 37.95 L188.3 38.15 185.45 38.0 182.55 37.3 182.3 38.4 184.4 38.9 Q185.8 39.15 186.1 39.6 L184.35 41.2 182.45 41.05 Q180.95 40.4 181.15 37.55 181.25 36.6 181.8 36.15" fill="#3e2426" fill-rule="evenodd" stroke="none"/>
    <path d="M184.35 41.2 L186.1 39.6 Q185.8 39.15 184.4 38.9 L182.3 38.4 182.55 37.3 185.45 38.0 188.3 38.15 190.85 37.95 Q192.1 37.55 190.7 36.65 L186.55 36.05 185.25 36.05 Q184.45 36.2 184.35 36.7 L183.35 36.35 182.0 36.15 181.8 36.15 Q182.5 35.7 183.6 35.7 186.85 35.8 188.3 34.7 188.9 35.6 190.7 35.8 L193.4 35.9 Q194.7 35.65 195.7 36.35 196.75 37.25 197.35 37.25 197.1 40.05 195.5 40.85 L193.0 41.15 190.75 40.9 Q189.25 41.05 188.35 42.5 188.0 42.05 186.55 41.6 L184.35 41.2" fill="#333333" fill-rule="evenodd" stroke="none"/>
    <path d="M181.8 36.15 Q181.25 36.6 181.15 37.55 180.95 40.4 182.45 41.05 L184.35 41.2 186.55 41.6 Q188.0 42.05 188.35 42.5 189.25 41.05 190.75 40.9 L193.0 41.15 195.5 40.85 Q197.1 40.05 197.35 37.25 196.75 37.25 195.7 36.35 194.7 35.65 193.4 35.9 L190.7 35.8 Q188.9 35.6 188.3 34.7 186.85 35.8 183.6 35.7 182.5 35.7 181.8 36.15 M179.2 37.4 Q179.35 34.95 181.2 34.7 L183.65 34.9 186.05 34.45 Q187.35 33.85 187.8 33.0 188.15 32.4 188.45 32.4 189.55 32.45 189.1 32.6 189.15 34.35 191.2 34.7 L194.4 34.85 Q197.8 34.7 198.7 36.35 199.15 37.25 198.9 39.95 198.6 40.65 197.05 41.4 195.35 42.2 193.85 42.15 190.85 42.1 189.95 43.35 189.05 44.6 188.1 44.65 187.6 43.8 186.25 43.05 184.9 42.25 183.6 42.2 L180.65 42.05 Q178.9 41.25 179.2 37.4" fill="#000000" fill-rule="evenodd" stroke="none"/>
    <path d="M172.45 34.35 L174.9 34.55 177.3 34.1 Q178.6 33.5 179.05 32.65 179.4 32.05 179.7 32.05 180.8 32.1 180.35 32.25 180.4 34.0 182.45 34.35 L185.65 34.5 Q189.05 34.35 189.95 36.0 190.4 36.9 190.15 39.6 189.85 40.3 188.3 41.05 186.6 41.85 185.1 41.8 182.1 41.75 181.2 43.0 180.3 44.25 179.35 44.3 178.85 43.45 177.5 42.7 176.15 41.9 174.85 41.85 L171.9 41.7 Q170.15 40.9 170.45 37.05 170.6 34.6 172.45 34.35 M175.6 40.85 L177.8 41.25 Q179.25 41.7 179.6 42.15 180.5 40.7 182.0 40.55 L184.25 40.8 186.75 40.5 Q188.35 39.7 188.6 36.9 188.0 36.9 186.95 36.0 185.95 35.3 184.65 35.55 L181.95 35.45 Q180.15 35.25 179.55 34.35 178.1 35.45 174.85 35.35 173.75 35.35 173.05 35.8 172.5 36.25 172.4 37.2 172.2 40.05 173.7 40.7 L175.6 40.85" fill="#000000" fill-rule="evenodd" stroke="none"/>
    <path d="M175.6 40.85 L177.35 39.25 Q177.05 38.8 175.65 38.55 L173.55 38.05 173.8 36.95 Q175.0 37.5 176.7 37.65 L179.55 37.8 182.1 37.6 Q183.35 37.2 181.95 36.3 L177.8 35.7 176.5 35.7 Q175.7 35.85 175.6 36.35 L174.6 36.0 173.25 35.8 173.05 35.8 Q173.75 35.35 174.85 35.35 178.1 35.45 179.55 34.35 180.15 35.25 181.95 35.45 L184.65 35.55 Q185.95 35.3 186.95 36.0 188.0 36.9 188.6 36.9 188.35 39.7 186.75 40.5 L184.25 40.8 182.0 40.55 Q180.5 40.7 179.6 42.15 179.25 41.7 177.8 41.25 L175.6 40.85" fill="#333333" fill-rule="evenodd" stroke="none"/>
    <path d="M173.05 35.8 L173.25 35.8 174.6 36.0 175.6 36.35 Q175.7 35.85 176.5 35.7 L177.8 35.7 181.95 36.3 Q183.35 37.2 182.1 37.6 L179.55 37.8 176.7 37.65 Q175.0 37.5 173.8 36.95 L173.55 38.05 175.65 38.55 Q177.05 38.8 177.35 39.25 L175.6 40.85 173.7 40.7 Q172.2 40.05 172.4 37.2 172.5 36.25 173.05 35.8" fill="#3e2426" fill-rule="evenodd" stroke="none"/>
    <path d="M172.85 34.6 Q176.25 34.45 177.15 36.1 177.6 37.0 177.35 39.7 177.05 40.4 175.5 41.15 173.8 41.95 172.3 41.9 169.3 41.85 168.4 43.1 167.5 44.35 166.55 44.4 166.05 43.55 164.7 42.8 163.35 42.0 162.05 41.95 L159.1 41.8 Q157.35 41.0 157.65 37.15 157.8 34.7 159.65 34.45 L162.1 34.65 Q163.55 34.7 164.5 34.2 165.8 33.6 166.25 32.75 166.6 32.15 166.9 32.15 168.0 32.2 167.55 32.35 167.6 34.1 169.65 34.45 L172.85 34.6 M162.8 40.95 L165.0 41.35 Q166.45 41.8 166.8 42.25 167.7 40.8 169.2 40.65 L171.45 40.9 173.95 40.6 Q175.55 39.8 175.8 37.0 175.2 37.0 174.15 36.1 173.15 35.4 171.85 35.65 L169.15 35.55 Q167.35 35.35 166.75 34.45 165.3 35.55 162.05 35.45 160.95 35.45 160.25 35.9 159.7 36.35 159.6 37.3 159.4 40.15 160.9 40.8 L162.8 40.95" fill="#000000" fill-rule="evenodd" stroke="none"/>
    <path d="M160.25 35.9 Q160.95 35.45 162.05 35.45 165.3 35.55 166.75 34.45 167.35 35.35 169.15 35.55 L171.85 35.65 Q173.15 35.4 174.15 36.1 175.2 37.0 175.8 37.0 175.55 39.8 173.95 40.6 L171.45 40.9 169.2 40.65 Q167.7 40.8 166.8 42.25 166.45 41.8 165.0 41.35 L162.8 40.95 164.55 39.35 Q164.25 38.9 162.85 38.65 L160.75 38.15 161.0 37.05 Q162.2 37.6 163.9 37.75 L166.75 37.9 169.3 37.7 Q170.55 37.3 169.15 36.4 L165.0 35.8 163.7 35.8 Q162.9 35.95 162.8 36.45 L161.8 36.1 160.45 35.9 160.25 35.9" fill="#333333" fill-rule="evenodd" stroke="none"/>
    <path d="M162.8 40.95 L160.9 40.8 Q159.4 40.15 159.6 37.3 159.7 36.35 160.25 35.9 L160.45 35.9 161.8 36.1 162.8 36.45 Q162.9 35.95 163.7 35.8 L165.0 35.8 169.15 36.4 Q170.55 37.3 169.3 37.7 L166.75 37.9 163.9 37.75 Q162.2 37.6 161.0 37.05 L160.75 38.15 162.85 38.65 Q164.25 38.9 164.55 39.35 L162.8 40.95" fill="#3e2426" fill-rule="evenodd" stroke="none"/>
    <path d="M166.55 34.95 Q167.0 35.85 166.75 38.55 166.45 39.25 164.9 40.0 163.2 40.8 161.7 40.75 158.7 40.7 157.8 41.95 156.9 43.2 155.95 43.25 155.45 42.4 154.1 41.65 152.75 40.85 151.45 40.8 L148.5 40.65 Q146.75 39.85 147.05 36.0 147.2 33.55 149.05 33.3 L151.5 33.5 153.9 33.05 Q155.2 32.45 155.65 31.6 156.0 31.0 156.3 31.0 157.4 31.05 156.95 31.2 157.0 32.95 159.05 33.3 L162.25 33.45 Q165.65 33.3 166.55 34.95 M152.2 39.8 L154.4 40.2 Q155.85 40.65 156.2 41.1 157.1 39.65 158.6 39.5 L160.85 39.75 163.35 39.45 Q164.95 38.65 165.2 35.85 164.6 35.85 163.55 34.95 162.55 34.25 161.25 34.5 L158.55 34.4 Q156.75 34.2 156.15 33.3 154.7 34.4 151.45 34.3 150.35 34.3 149.65 34.75 149.1 35.2 149.0 36.15 148.8 39.0 150.3 39.65 L152.2 39.8" fill="#000000" fill-rule="evenodd" stroke="none"/>
    <path d="M149.65 34.75 Q150.35 34.3 151.45 34.3 154.7 34.4 156.15 33.3 156.75 34.2 158.55 34.4 L161.25 34.5 Q162.55 34.25 163.55 34.95 164.6 35.85 165.2 35.85 164.95 38.65 163.35 39.45 L160.85 39.75 158.6 39.5 Q157.1 39.65 156.2 41.1 155.85 40.65 154.4 40.2 L152.2 39.8 153.95 38.2 Q153.65 37.75 152.25 37.5 L150.15 37.0 150.4 35.9 Q151.6 36.45 153.3 36.6 L156.15 36.75 158.7 36.55 Q159.95 36.15 158.55 35.25 L154.4 34.65 153.1 34.65 Q152.3 34.8 152.2 35.3 L151.2 34.95 149.85 34.75 149.65 34.75" fill="#333333" fill-rule="evenodd" stroke="none"/>
    <path d="M152.2 39.8 L150.3 39.65 Q148.8 39.0 149.0 36.15 149.1 35.2 149.65 34.75 L149.85 34.75 151.2 34.95 152.2 35.3 Q152.3 34.8 153.1 34.65 L154.4 34.65 158.55 35.25 Q159.95 36.15 158.7 36.55 L156.15 36.75 153.3 36.6 Q151.6 36.45 150.4 35.9 L150.15 37.0 152.25 37.5 Q153.65 37.75 153.95 38.2 L152.2 39.8" fill="#3e2426" fill-rule="evenodd" stroke="none"/>
    <path d="M139.05 35.3 L139.25 35.3 140.6 35.5 141.6 35.85 Q141.7 35.35 142.5 35.2 L143.8 35.2 147.95 35.8 Q149.35 36.7 148.1 37.1 L145.55 37.3 142.7 37.15 Q141.0 37.0 139.8 36.45 L139.55 37.55 141.65 38.05 Q143.05 38.3 143.35 38.75 L141.6 40.35 139.7 40.2 Q138.2 39.55 138.4 36.7 138.5 35.75 139.05 35.3" fill="#3e2426" fill-rule="evenodd" stroke="none"/>
    <path d="M141.6 40.35 L143.35 38.75 Q143.05 38.3 141.65 38.05 L139.55 37.55 139.8 36.45 Q141.0 37.0 142.7 37.15 L145.55 37.3 148.1 37.1 Q149.35 36.7 147.95 35.8 L143.8 35.2 142.5 35.2 Q141.7 35.35 141.6 35.85 L140.6 35.5 139.25 35.3 139.05 35.3 Q139.75 34.85 140.85 34.85 144.1 34.95 145.55 33.85 146.15 34.75 147.95 34.95 L150.65 35.05 Q151.95 34.8 152.95 35.5 154.0 36.4 154.6 36.4 154.35 39.2 152.75 40.0 L150.25 40.3 148.0 40.05 Q146.5 40.2 145.6 41.65 145.25 41.2 143.8 40.75 L141.6 40.35" fill="#333333" fill-rule="evenodd" stroke="none"/>
    <path d="M141.6 40.35 L143.8 40.75 Q145.25 41.2 145.6 41.65 146.5 40.2 148.0 40.05 L150.25 40.3 152.75 40.0 Q154.35 39.2 154.6 36.4 154.0 36.4 152.95 35.5 151.95 34.8 150.65 35.05 L147.95 34.95 Q146.15 34.75 145.55 33.85 144.1 34.95 140.85 34.85 139.75 34.85 139.05 35.3 138.5 35.75 138.4 36.7 138.2 39.55 139.7 40.2 L141.6 40.35 M138.45 33.85 L140.9 34.05 Q142.35 34.1 143.3 33.6 144.6 33.0 145.05 32.15 145.4 31.55 145.7 31.55 146.8 31.6 146.35 31.75 146.4 33.5 148.45 33.85 L151.65 34.0 Q155.05 33.85 155.95 35.5 156.4 36.4 156.15 39.1 155.85 39.8 154.3 40.55 152.6 41.35 151.1 41.3 148.1 41.25 147.2 42.5 146.3 43.75 145.35 43.8 144.85 42.95 143.5 42.2 142.15 41.4 140.85 41.35 L137.9 41.2 Q136.15 40.4 136.45 36.55 136.6 34.1 138.45 33.85" fill="#000000" fill-rule="evenodd" stroke="none"/>
    <path d="M134.55 33.25 Q135.85 32.65 136.3 31.8 136.65 31.2 136.95 31.2 138.05 31.25 137.6 31.4 137.65 33.15 139.7 33.5 L142.9 33.65 Q146.3 33.5 147.2 35.15 147.65 36.05 147.4 38.75 147.1 39.45 145.55 40.2 143.85 41.0 142.35 40.95 139.35 40.9 138.45 42.15 137.55 43.4 136.6 43.45 136.1 42.6 134.75 41.85 133.4 41.05 132.1 41.0 L129.15 40.85 Q127.4 40.05 127.7 36.2 127.85 33.75 129.7 33.5 L132.15 33.7 134.55 33.25 M132.85 40.0 L135.05 40.4 Q136.5 40.85 136.85 41.3 137.75 39.85 139.25 39.7 L141.5 39.95 144.0 39.65 Q145.6 38.85 145.85 36.05 145.25 36.05 144.2 35.15 143.2 34.45 141.9 34.7 L139.2 34.6 Q137.4 34.4 136.8 33.5 135.35 34.6 132.1 34.5 131.0 34.5 130.3 34.95 129.75 35.4 129.65 36.35 129.45 39.2 130.95 39.85 L132.85 40.0" fill="#000000" fill-rule="evenodd" stroke="none"/>
    <path d="M132.85 40.0 L134.6 38.4 Q134.3 37.95 132.9 37.7 L130.8 37.2 131.05 36.1 Q132.25 36.65 133.95 36.8 L136.8 36.95 139.35 36.75 Q140.6 36.35 139.2 35.45 L135.05 34.85 133.75 34.85 Q132.95 35.0 132.85 35.5 L131.85 35.15 130.5 34.95 130.3 34.95 Q131.0 34.5 132.1 34.5 135.35 34.6 136.8 33.5 137.4 34.4 139.2 34.6 L141.9 34.7 Q143.2 34.45 144.2 35.15 145.25 36.05 145.85 36.05 145.6 38.85 144.0 39.65 L141.5 39.95 139.25 39.7 Q137.75 39.85 136.85 41.3 136.5 40.85 135.05 40.4 L132.85 40.0" fill="#333333" fill-rule="evenodd" stroke="none"/>
    <path d="M130.3 34.95 L130.5 34.95 131.85 35.15 132.85 35.5 Q132.95 35.0 133.75 34.85 L135.05 34.85 139.2 35.45 Q140.6 36.35 139.35 36.75 L136.8 36.95 133.95 36.8 Q132.25 36.65 131.05 36.1 L130.8 37.2 132.9 37.7 Q134.3 37.95 134.6 38.4 L132.85 40.0 130.95 39.85 Q129.45 39.2 129.65 36.35 129.75 35.4 130.3 34.95" fill="#3e2426" fill-rule="evenodd" stroke="none"/>
  </g>
</svg>
