<?xml version="1.0" encoding="UTF-8" standalone="no"?>
<svg xmlns:ffdec="https://www.free-decompiler.com/flash" xmlns:xlink="http://www.w3.org/1999/xlink" ffdec:objectType="shape" height="81.15px" width="169.4px" xmlns="http://www.w3.org/2000/svg">
  <g transform="matrix(1.0, 0.0, 0.0, 1.0, 32.7, 139.3)">
    <path d="M128.7 -78.15 Q129.75 -77.85 129.2 -77.65 128.5 -74.75 130.3 -73.65 131.3 -73.0 133.25 -72.55 136.65 -71.9 136.7 -69.05 136.8 -67.4 135.35 -63.05 134.75 -62.05 132.9 -61.2 130.9 -60.3 129.5 -60.75 126.65 -61.65 125.3 -59.85 123.85 -58.0 122.9 -58.15 122.85 -59.65 121.85 -61.3 120.9 -62.95 119.65 -63.35 117.65 -63.45 116.95 -64.45 115.6 -66.15 117.55 -72.4 118.8 -76.35 120.75 -76.3 121.75 -76.3 123.0 -75.35 L125.5 -75.4 Q127.0 -76.1 127.85 -77.35 128.4 -78.25 128.7 -78.15 M120.85 -64.85 L122.75 -63.6 Q124.0 -62.5 124.1 -61.6 125.6 -63.8 127.1 -63.6 127.95 -63.45 129.15 -62.7 130.6 -61.95 131.7 -62.45 133.6 -63.35 135.05 -67.95 134.55 -68.1 133.85 -69.8 133.25 -71.3 131.9 -71.1 L129.35 -72.0 Q127.7 -72.9 127.5 -74.35 125.65 -73.0 122.6 -74.0 121.55 -74.35 120.7 -73.7 119.9 -73.15 119.4 -71.6 117.95 -67.05 119.1 -65.55 119.25 -65.35 120.85 -64.85" fill="#000000" fill-rule="evenodd" stroke="none"/>
    <path d="M120.7 -73.7 Q121.55 -74.35 122.6 -74.0 125.65 -73.0 127.5 -74.35 127.7 -72.9 129.35 -72.0 L131.9 -71.1 Q133.25 -71.3 133.85 -69.8 134.55 -68.1 135.05 -67.95 133.6 -63.35 131.7 -62.45 130.6 -61.95 129.15 -62.7 127.95 -63.45 127.1 -63.6 125.6 -63.8 124.1 -61.6 124.0 -62.5 122.75 -63.6 L120.85 -64.85 Q121.8 -65.25 123.25 -66.9 123.15 -67.8 121.85 -68.55 120.4 -69.45 120.15 -70.0 L120.85 -71.75 Q121.75 -70.45 123.35 -69.75 L126.0 -68.8 128.55 -68.5 Q129.9 -68.75 128.95 -70.65 126.7 -72.3 125.3 -72.75 L124.0 -73.05 Q123.15 -73.05 122.85 -72.1 L122.05 -72.95 Q121.55 -73.45 120.85 -73.65 L120.7 -73.7" fill="#333333" fill-rule="evenodd" stroke="none"/>
    <path d="M120.85 -64.85 Q119.25 -65.35 119.1 -65.55 117.95 -67.05 119.4 -71.6 119.9 -73.15 120.7 -73.7 L120.85 -73.65 Q121.55 -73.45 122.05 -72.95 L122.85 -72.1 Q123.15 -73.05 124.0 -73.05 L125.3 -72.75 Q126.7 -72.3 128.95 -70.65 129.9 -68.75 128.55 -68.5 L126.0 -68.8 123.35 -69.75 Q121.75 -70.45 120.85 -71.75 L120.15 -70.0 Q120.4 -69.45 121.85 -68.55 123.15 -67.8 123.25 -66.9 121.8 -65.25 120.85 -64.85" fill="#3e2426" fill-rule="evenodd" stroke="none"/>
    <path d="M121.5 -78.15 Q124.9 -77.5 124.95 -74.65 125.05 -73.0 123.6 -68.65 123.0 -67.65 121.15 -66.8 119.15 -65.9 117.75 -66.35 114.9 -67.25 113.55 -65.45 112.1 -63.6 111.15 -63.75 111.1 -65.25 110.1 -66.9 109.15 -68.55 107.9 -68.95 105.9 -69.05 105.2 -70.05 103.85 -71.75 105.8 -78.0 107.05 -81.95 109.0 -81.9 110.0 -81.9 111.25 -80.95 L113.75 -81.0 Q115.25 -81.7 116.1 -82.95 116.65 -83.85 116.95 -83.75 118.0 -83.45 117.45 -83.25 116.75 -80.35 118.55 -79.25 119.55 -78.6 121.5 -78.15 M109.1 -70.45 L111.0 -69.2 Q112.25 -68.1 112.35 -67.2 113.85 -69.4 115.35 -69.2 116.2 -69.05 117.4 -68.3 118.85 -67.55 119.95 -68.05 121.85 -68.95 123.3 -73.55 122.8 -73.7 122.1 -75.4 121.5 -76.9 120.15 -76.7 L117.6 -77.6 Q115.95 -78.5 115.75 -79.95 113.9 -78.6 110.85 -79.6 109.8 -79.95 108.95 -79.3 108.15 -78.75 107.65 -77.2 106.2 -72.65 107.35 -71.15 107.5 -70.95 109.1 -70.45" fill="#000000" fill-rule="evenodd" stroke="none"/>
    <path d="M108.95 -79.3 Q109.8 -79.95 110.85 -79.6 113.9 -78.6 115.75 -79.95 115.95 -78.5 117.6 -77.6 L120.15 -76.7 Q121.5 -76.9 122.1 -75.4 122.8 -73.7 123.3 -73.55 121.85 -68.95 119.95 -68.05 118.85 -67.55 117.4 -68.3 116.2 -69.05 115.35 -69.2 113.85 -69.4 112.35 -67.2 112.25 -68.1 111.0 -69.2 L109.1 -70.45 Q110.05 -70.85 111.5 -72.5 111.4 -73.4 110.1 -74.15 108.65 -75.05 108.4 -75.6 L109.1 -77.35 Q110.0 -76.05 111.6 -75.35 L114.25 -74.4 116.8 -74.1 Q118.15 -74.35 117.2 -76.25 114.95 -77.9 113.55 -78.35 L112.25 -78.65 Q111.4 -78.65 111.1 -77.7 L110.3 -78.55 Q109.8 -79.05 109.1 -79.25 L108.95 -79.3" fill="#333333" fill-rule="evenodd" stroke="none"/>
    <path d="M109.1 -70.45 Q107.5 -70.95 107.35 -71.15 106.2 -72.65 107.65 -77.2 108.15 -78.75 108.95 -79.3 L109.1 -79.25 Q109.8 -79.05 110.3 -78.55 L111.1 -77.7 Q111.4 -78.65 112.25 -78.65 L113.55 -78.35 Q114.95 -77.9 117.2 -76.25 118.15 -74.35 116.8 -74.1 L114.25 -74.4 111.6 -75.35 Q110.0 -76.05 109.1 -77.35 L108.4 -75.6 Q108.65 -75.05 110.1 -74.15 111.4 -73.4 111.5 -72.5 110.05 -70.85 109.1 -70.45" fill="#3e2426" fill-rule="evenodd" stroke="none"/>
    <path d="M101.8 -90.9 Q102.35 -91.8 102.65 -91.7 103.7 -91.4 103.15 -91.2 102.45 -88.3 104.25 -87.2 105.25 -86.55 107.2 -86.1 110.6 -85.45 110.65 -82.6 110.75 -80.95 109.3 -76.6 108.7 -75.6 106.85 -74.75 104.85 -73.85 103.45 -74.3 100.6 -75.2 99.25 -73.4 97.8 -71.55 96.85 -71.7 96.8 -73.2 95.8 -74.85 94.85 -76.5 93.6 -76.9 91.6 -77.0 90.9 -78.0 89.55 -79.7 91.5 -85.95 92.75 -89.9 94.7 -89.85 95.7 -89.85 96.95 -88.9 L99.45 -88.95 Q100.95 -89.65 101.8 -90.9 M94.8 -78.4 L96.7 -77.15 Q97.95 -76.05 98.05 -75.15 99.55 -77.35 101.05 -77.15 101.9 -77.0 103.1 -76.25 104.55 -75.5 105.65 -76.0 107.55 -76.9 109.0 -81.5 108.5 -81.65 107.8 -83.35 107.2 -84.85 105.85 -84.65 L103.3 -85.55 Q101.65 -86.45 101.45 -87.9 99.6 -86.55 96.55 -87.55 95.5 -87.9 94.65 -87.25 93.85 -86.7 93.35 -85.15 91.9 -80.6 93.05 -79.1 93.2 -78.9 94.8 -78.4" fill="#000000" fill-rule="evenodd" stroke="none"/>
    <path d="M94.65 -87.25 Q95.5 -87.9 96.55 -87.55 99.6 -86.55 101.45 -87.9 101.65 -86.45 103.3 -85.55 L105.85 -84.65 Q107.2 -84.85 107.8 -83.35 108.5 -81.65 109.0 -81.5 107.55 -76.9 105.65 -76.0 104.55 -75.5 103.1 -76.25 101.9 -77.0 101.05 -77.15 99.55 -77.35 98.05 -75.15 97.95 -76.05 96.7 -77.15 L94.8 -78.4 Q95.75 -78.8 97.2 -80.45 97.1 -81.35 95.8 -82.1 94.35 -83.0 94.1 -83.55 L94.8 -85.3 Q95.7 -84.0 97.3 -83.3 97.8 -83.0 99.95 -82.35 L102.5 -82.05 Q103.85 -82.3 102.9 -84.2 100.65 -85.85 99.25 -86.3 L97.95 -86.6 Q97.1 -86.6 96.8 -85.65 L96.0 -86.5 94.8 -87.2 94.65 -87.25" fill="#333333" fill-rule="evenodd" stroke="none"/>
    <path d="M94.8 -78.4 Q93.2 -78.9 93.05 -79.1 91.9 -80.6 93.35 -85.15 93.85 -86.7 94.65 -87.25 L94.8 -87.2 96.0 -86.5 96.8 -85.65 Q97.1 -86.6 97.95 -86.6 L99.25 -86.3 Q100.65 -85.85 102.9 -84.2 103.85 -82.3 102.5 -82.05 L99.95 -82.35 Q97.8 -83.0 97.3 -83.3 95.7 -84.0 94.8 -85.3 L94.1 -83.55 Q94.35 -83.0 95.8 -82.1 97.1 -81.35 97.2 -80.45 95.75 -78.8 94.8 -78.4" fill="#3e2426" fill-rule="evenodd" stroke="none"/>
    <path d="M81.15 -92.1 Q80.35 -91.55 79.85 -90.0 78.4 -85.45 79.55 -83.95 79.7 -83.75 81.3 -83.25 L83.2 -82.0 Q84.45 -80.9 84.55 -80.0 86.05 -82.2 87.55 -82.0 88.4 -81.85 89.6 -81.1 91.05 -80.35 92.15 -80.85 94.05 -81.75 95.5 -86.35 95.0 -86.5 94.3 -88.2 93.7 -89.7 92.35 -89.5 L89.8 -90.4 Q88.15 -91.3 87.95 -92.75 86.1 -91.4 83.05 -92.4 82.0 -92.75 81.15 -92.1 M80.1 -81.75 Q78.1 -81.85 77.4 -82.85 76.05 -84.55 78.0 -90.8 79.25 -94.75 81.2 -94.7 82.2 -94.7 83.45 -93.75 L85.95 -93.8 Q87.45 -94.5 88.3 -95.75 88.85 -96.65 89.15 -96.55 90.2 -96.25 89.65 -96.05 88.95 -93.15 90.75 -92.05 91.75 -91.4 93.7 -90.95 97.1 -90.3 97.15 -87.45 97.25 -85.8 95.8 -81.45 95.2 -80.45 93.35 -79.6 91.35 -78.7 89.95 -79.15 87.1 -80.05 85.75 -78.25 84.3 -76.4 83.35 -76.55 83.3 -78.05 82.3 -79.7 81.35 -81.35 80.1 -81.75" fill="#000000" fill-rule="evenodd" stroke="none"/>
    <path d="M81.3 -83.25 Q79.7 -83.75 79.55 -83.95 78.4 -85.45 79.85 -90.0 80.35 -91.55 81.15 -92.1 L81.3 -92.05 Q82.0 -91.85 82.5 -91.35 L83.3 -90.5 Q83.6 -91.45 84.45 -91.45 L85.75 -91.15 Q87.15 -90.7 89.4 -89.05 90.35 -87.15 89.0 -86.9 L86.45 -87.2 83.8 -88.15 Q82.2 -88.85 81.3 -90.15 L80.6 -88.4 Q80.85 -87.85 82.3 -86.95 83.6 -86.2 83.7 -85.3 82.25 -83.65 81.3 -83.25" fill="#3e2426" fill-rule="evenodd" stroke="none"/>
    <path d="M81.15 -92.1 Q82.0 -92.75 83.05 -92.4 86.1 -91.4 87.95 -92.75 88.15 -91.3 89.8 -90.4 L92.35 -89.5 Q93.7 -89.7 94.3 -88.2 95.0 -86.5 95.5 -86.35 94.05 -81.75 92.15 -80.85 91.05 -80.35 89.6 -81.1 88.4 -81.85 87.55 -82.0 86.05 -82.2 84.55 -80.0 84.45 -80.9 83.2 -82.0 L81.3 -83.25 Q82.25 -83.65 83.7 -85.3 83.6 -86.2 82.3 -86.95 80.85 -87.85 80.6 -88.4 L81.3 -90.15 Q82.2 -88.85 83.8 -88.15 L86.45 -87.2 89.0 -86.9 Q90.35 -87.15 89.4 -89.05 87.15 -90.7 85.75 -91.15 L84.45 -91.45 Q83.6 -91.45 83.3 -90.5 L82.5 -91.35 Q82.0 -91.85 81.3 -92.05 L81.15 -92.1" fill="#333333" fill-rule="evenodd" stroke="none"/>
    <path d="M75.15 -100.45 Q76.2 -100.15 75.65 -99.95 74.95 -97.05 76.75 -95.95 77.75 -95.3 79.7 -94.85 83.1 -94.2 83.15 -91.35 83.25 -89.7 81.8 -85.35 81.2 -84.35 79.35 -83.5 77.35 -82.6 75.95 -83.05 73.1 -83.95 71.75 -82.15 70.3 -80.3 69.35 -80.45 69.3 -81.95 68.3 -83.6 67.35 -85.25 66.1 -85.65 64.1 -85.75 63.4 -86.75 62.05 -88.45 64.0 -94.7 65.25 -98.65 67.2 -98.6 68.2 -98.6 69.45 -97.65 L71.95 -97.7 Q73.45 -98.4 74.3 -99.65 74.85 -100.55 75.15 -100.45 M67.3 -87.15 L69.2 -85.9 Q70.45 -84.8 70.55 -83.9 72.05 -86.1 73.55 -85.9 L75.6 -85.0 Q77.05 -84.25 78.15 -84.75 80.05 -85.65 81.5 -90.25 81.0 -90.4 80.3 -92.1 79.7 -93.6 78.35 -93.4 76.7 -93.85 75.8 -94.3 74.15 -95.2 73.95 -96.65 72.1 -95.3 69.05 -96.3 68.0 -96.65 67.15 -96.0 66.35 -95.45 65.85 -93.9 64.4 -89.35 65.55 -87.85 65.7 -87.65 67.3 -87.15" fill="#000000" fill-rule="evenodd" stroke="none"/>
    <path d="M67.3 -87.15 Q68.25 -87.55 69.7 -89.2 69.6 -90.1 68.3 -90.85 66.85 -91.75 66.6 -92.3 L67.3 -94.05 Q68.2 -92.75 69.8 -92.05 L72.45 -91.1 75.0 -90.8 Q76.35 -91.05 75.4 -92.95 73.15 -94.6 71.75 -95.05 L70.45 -95.35 Q69.6 -95.35 69.3 -94.4 L68.5 -95.25 Q68.0 -95.75 67.3 -95.95 L67.15 -96.0 Q68.0 -96.65 69.05 -96.3 72.1 -95.3 73.95 -96.65 74.15 -95.2 75.8 -94.3 76.7 -93.85 78.35 -93.4 79.7 -93.6 80.3 -92.1 81.0 -90.4 81.5 -90.25 80.05 -85.65 78.15 -84.75 77.05 -84.25 75.6 -85.0 L73.55 -85.9 Q72.05 -86.1 70.55 -83.9 70.45 -84.8 69.2 -85.9 L67.3 -87.15" fill="#333333" fill-rule="evenodd" stroke="none"/>
    <path d="M67.15 -96.0 L67.3 -95.95 Q68.0 -95.75 68.5 -95.25 L69.3 -94.4 Q69.6 -95.35 70.45 -95.35 L71.75 -95.05 Q73.15 -94.6 75.4 -92.95 76.35 -91.05 75.0 -90.8 L72.45 -91.1 69.8 -92.05 Q68.2 -92.75 67.3 -94.05 L66.6 -92.3 Q66.85 -91.75 68.3 -90.85 69.6 -90.1 69.7 -89.2 68.25 -87.55 67.3 -87.15 65.7 -87.65 65.55 -87.85 64.4 -89.35 65.85 -93.9 66.35 -95.45 67.15 -96.0" fill="#3e2426" fill-rule="evenodd" stroke="none"/>
    <path d="M54.85 -93.8 Q53.25 -94.3 53.1 -94.5 51.95 -96.0 53.4 -100.55 53.9 -102.1 54.7 -102.65 L54.85 -102.6 Q55.55 -102.4 56.05 -101.9 L56.85 -101.05 Q57.15 -102.0 58.0 -102.0 L59.3 -101.7 Q60.7 -101.25 62.95 -99.6 63.9 -97.7 62.55 -97.45 L60.0 -97.75 Q57.85 -98.4 57.35 -98.7 55.75 -99.4 54.85 -100.7 L54.15 -98.95 Q54.4 -98.4 55.85 -97.5 57.15 -96.75 57.25 -95.85 55.8 -94.2 54.85 -93.8" fill="#3e2426" fill-rule="evenodd" stroke="none"/>
    <path d="M54.7 -102.65 Q55.55 -103.3 56.6 -102.95 59.65 -101.95 61.5 -103.3 61.7 -101.85 63.35 -100.95 L65.9 -100.05 Q67.25 -100.25 67.85 -98.75 68.55 -97.05 69.05 -96.9 67.6 -92.3 65.7 -91.4 64.6 -90.9 63.15 -91.65 61.95 -92.4 61.1 -92.55 59.6 -92.75 58.1 -90.55 58.0 -91.45 56.75 -92.55 L54.85 -93.8 Q55.8 -94.2 57.25 -95.85 57.15 -96.75 55.85 -97.5 54.4 -98.4 54.15 -98.95 L54.85 -100.7 Q55.75 -99.4 57.35 -98.7 57.85 -98.4 60.0 -97.75 L62.55 -97.45 Q63.9 -97.7 62.95 -99.6 60.7 -101.25 59.3 -101.7 L58.0 -102.0 Q57.15 -102.0 56.85 -101.05 L56.05 -101.9 Q55.55 -102.4 54.85 -102.6 L54.7 -102.65" fill="#333333" fill-rule="evenodd" stroke="none"/>
    <path d="M54.7 -102.65 Q53.9 -102.1 53.4 -100.55 51.95 -96.0 53.1 -94.5 53.25 -94.3 54.85 -93.8 L56.75 -92.55 Q58.0 -91.45 58.1 -90.55 59.6 -92.75 61.1 -92.55 61.95 -92.4 63.15 -91.65 64.6 -90.9 65.7 -91.4 67.6 -92.3 69.05 -96.9 68.55 -97.05 67.85 -98.75 67.25 -100.25 65.9 -100.05 L63.35 -100.95 Q61.7 -101.85 61.5 -103.3 59.65 -101.95 56.6 -102.95 55.55 -103.3 54.7 -102.65 M57.0 -104.3 L59.5 -104.35 Q61.0 -105.05 61.85 -106.3 62.4 -107.2 62.7 -107.1 63.75 -106.8 63.2 -106.6 62.5 -103.7 64.3 -102.6 65.3 -101.95 67.25 -101.5 70.65 -100.85 70.7 -98.0 70.8 -96.35 69.35 -92.0 68.75 -91.0 66.9 -90.15 64.9 -89.25 63.5 -89.7 60.65 -90.6 59.3 -88.8 57.85 -86.95 56.9 -87.1 56.85 -88.6 55.85 -90.25 54.9 -91.9 53.65 -92.3 51.65 -92.4 50.95 -93.4 49.6 -95.1 51.55 -101.35 52.8 -105.3 54.75 -105.25 55.75 -105.25 57.0 -104.3" fill="#000000" fill-rule="evenodd" stroke="none"/>
    <path d="M38.95 -100.15 Q37.6 -101.85 39.55 -108.1 40.8 -112.05 42.75 -112.0 43.75 -112.0 45.0 -111.05 L47.5 -111.1 Q49.0 -111.8 49.85 -113.05 50.4 -113.95 50.7 -113.85 51.75 -113.55 51.2 -113.35 50.5 -110.45 52.3 -109.35 53.3 -108.7 55.25 -108.25 58.65 -107.6 58.7 -104.75 58.8 -103.1 57.35 -98.75 56.75 -97.75 54.9 -96.9 52.9 -96.0 51.5 -96.45 48.65 -97.35 47.3 -95.55 45.85 -93.7 44.9 -93.85 44.85 -95.35 43.85 -97.0 42.9 -98.65 41.65 -99.05 39.65 -99.15 38.95 -100.15 M42.85 -100.55 L44.75 -99.3 Q46.0 -98.2 46.1 -97.3 47.6 -99.5 49.1 -99.3 49.95 -99.15 51.15 -98.4 52.6 -97.65 53.7 -98.15 55.6 -99.05 57.05 -103.65 56.55 -103.8 55.85 -105.5 55.25 -107.0 53.9 -106.8 L51.35 -107.7 Q49.7 -108.6 49.5 -110.05 47.65 -108.7 44.6 -109.7 43.55 -110.05 42.7 -109.4 41.9 -108.85 41.4 -107.3 39.95 -102.75 41.1 -101.25 41.25 -101.05 42.85 -100.55" fill="#000000" fill-rule="evenodd" stroke="none"/>
    <path d="M42.85 -100.55 Q43.8 -100.95 45.25 -102.6 45.15 -103.5 43.85 -104.25 42.4 -105.15 42.15 -105.7 L42.85 -107.45 Q43.75 -106.15 45.35 -105.45 L48.0 -104.5 50.55 -104.2 Q51.9 -104.45 50.95 -106.35 48.7 -108.0 47.3 -108.45 L46.0 -108.75 Q45.15 -108.75 44.85 -107.8 L44.05 -108.65 42.85 -109.35 42.7 -109.4 Q43.55 -110.05 44.6 -109.7 47.65 -108.7 49.5 -110.05 49.7 -108.6 51.35 -107.7 L53.9 -106.8 Q55.25 -107.0 55.85 -105.5 56.55 -103.8 57.05 -103.65 55.6 -99.05 53.7 -98.15 52.6 -97.65 51.15 -98.4 49.95 -99.15 49.1 -99.3 47.6 -99.5 46.1 -97.3 46.0 -98.2 44.75 -99.3 L42.85 -100.55" fill="#333333" fill-rule="evenodd" stroke="none"/>
    <path d="M42.7 -109.4 L42.85 -109.35 44.05 -108.65 44.85 -107.8 Q45.15 -108.75 46.0 -108.75 L47.3 -108.45 Q48.7 -108.0 50.95 -106.35 51.9 -104.45 50.55 -104.2 L48.0 -104.5 45.35 -105.45 Q43.75 -106.15 42.85 -107.45 L42.15 -105.7 Q42.4 -105.15 43.85 -104.25 45.15 -103.5 45.25 -102.6 43.8 -100.95 42.85 -100.55 41.25 -101.05 41.1 -101.25 39.95 -102.75 41.4 -107.3 41.9 -108.85 42.7 -109.4" fill="#3e2426" fill-rule="evenodd" stroke="none"/>
    <path d="M39.65 -121.9 Q40.7 -121.6 40.15 -121.4 39.45 -118.5 41.25 -117.4 42.25 -116.75 44.2 -116.3 47.6 -115.65 47.65 -112.8 47.75 -111.15 46.3 -106.8 45.7 -105.8 43.85 -104.95 41.85 -104.05 40.45 -104.5 37.6 -105.4 36.25 -103.6 34.8 -101.75 33.85 -101.9 33.8 -103.4 32.8 -105.05 31.85 -106.7 30.6 -107.1 28.6 -107.2 27.9 -108.2 26.55 -109.9 28.5 -116.15 29.75 -120.1 31.7 -120.05 32.7 -120.05 33.95 -119.1 L36.45 -119.15 Q37.95 -119.85 38.8 -121.1 39.35 -122.0 39.65 -121.9 M31.8 -108.6 L33.7 -107.35 Q34.95 -106.25 35.05 -105.35 36.55 -107.55 38.05 -107.35 38.9 -107.2 40.1 -106.45 41.55 -105.7 42.65 -106.2 44.55 -107.1 46.0 -111.7 45.5 -111.85 44.8 -113.55 44.2 -115.05 42.85 -114.85 L40.3 -115.75 Q38.65 -116.65 38.45 -118.1 36.6 -116.75 33.55 -117.75 32.5 -118.1 31.65 -117.45 30.85 -116.9 30.35 -115.35 28.9 -110.8 30.05 -109.3 30.2 -109.1 31.8 -108.6" fill="#000000" fill-rule="evenodd" stroke="none"/>
    <path d="M31.8 -108.6 Q32.75 -109.0 34.2 -110.65 34.1 -111.55 32.8 -112.3 31.35 -113.2 31.1 -113.75 L31.8 -115.5 Q32.7 -114.2 34.3 -113.5 34.8 -113.2 36.95 -112.55 L39.5 -112.25 Q40.85 -112.5 39.9 -114.4 37.65 -116.05 36.25 -116.5 L34.95 -116.8 Q34.1 -116.8 33.8 -115.85 L33.0 -116.7 31.8 -117.4 31.65 -117.45 Q32.5 -118.1 33.55 -117.75 36.6 -116.75 38.45 -118.1 38.65 -116.65 40.3 -115.75 L42.85 -114.85 Q44.2 -115.05 44.8 -113.55 45.5 -111.85 46.0 -111.7 44.55 -107.1 42.65 -106.2 41.55 -105.7 40.1 -106.45 38.9 -107.2 38.05 -107.35 36.55 -107.55 35.05 -105.35 34.95 -106.25 33.7 -107.35 L31.8 -108.6" fill="#333333" fill-rule="evenodd" stroke="none"/>
    <path d="M31.65 -117.45 L31.8 -117.4 33.0 -116.7 33.8 -115.85 Q34.1 -116.8 34.95 -116.8 L36.25 -116.5 Q37.65 -116.05 39.9 -114.4 40.85 -112.5 39.5 -112.25 L36.95 -112.55 Q34.8 -113.2 34.3 -113.5 32.7 -114.2 31.8 -115.5 L31.1 -113.75 Q31.35 -113.2 32.8 -112.3 34.1 -111.55 34.2 -110.65 32.75 -109.0 31.8 -108.6 30.2 -109.1 30.05 -109.3 28.9 -110.8 30.35 -115.35 30.85 -116.9 31.65 -117.45" fill="#3e2426" fill-rule="evenodd" stroke="none"/>
    <path d="M19.3 -116.55 Q20.25 -116.95 21.7 -118.6 21.6 -119.5 20.3 -120.25 18.85 -121.15 18.6 -121.7 L19.3 -123.45 Q20.2 -122.15 21.8 -121.45 L24.45 -120.5 27.0 -120.2 Q28.35 -120.45 27.4 -122.35 25.15 -124.0 23.75 -124.45 L22.45 -124.75 Q21.6 -124.75 21.3 -123.8 L20.5 -124.65 Q20.0 -125.15 19.3 -125.35 L19.15 -125.4 Q20.0 -126.05 21.05 -125.7 24.1 -124.7 25.95 -126.05 26.15 -124.6 27.8 -123.7 L30.35 -122.8 Q31.7 -123.0 32.3 -121.5 33.0 -119.8 33.5 -119.65 32.05 -115.05 30.15 -114.15 29.05 -113.65 27.6 -114.4 26.4 -115.15 25.55 -115.3 24.05 -115.5 22.55 -113.3 22.45 -114.2 21.2 -115.3 L19.3 -116.55" fill="#333333" fill-rule="evenodd" stroke="none"/>
    <path d="M19.15 -125.4 L19.3 -125.35 Q20.0 -125.15 20.5 -124.65 L21.3 -123.8 Q21.6 -124.75 22.45 -124.75 L23.75 -124.45 Q25.15 -124.0 27.4 -122.35 28.35 -120.45 27.0 -120.2 L24.45 -120.5 21.8 -121.45 Q20.2 -122.15 19.3 -123.45 L18.6 -121.7 Q18.85 -121.15 20.3 -120.25 21.6 -119.5 21.7 -118.6 20.25 -116.95 19.3 -116.55 17.7 -117.05 17.55 -117.25 16.4 -118.75 17.85 -123.3 18.35 -124.85 19.15 -125.4" fill="#3e2426" fill-rule="evenodd" stroke="none"/>
    <path d="M19.3 -116.55 L21.2 -115.3 Q22.45 -114.2 22.55 -113.3 24.05 -115.5 25.55 -115.3 26.4 -115.15 27.6 -114.4 29.05 -113.65 30.15 -114.15 32.05 -115.05 33.5 -119.65 33.0 -119.8 32.3 -121.5 31.7 -123.0 30.35 -122.8 L27.8 -123.7 Q26.15 -124.6 25.95 -126.05 24.1 -124.7 21.05 -125.7 20.0 -126.05 19.15 -125.4 18.35 -124.85 17.85 -123.3 16.4 -118.75 17.55 -117.25 17.7 -117.05 19.3 -116.55 M21.45 -127.05 L23.95 -127.1 Q25.45 -127.8 26.3 -129.05 26.85 -129.95 27.15 -129.85 28.2 -129.55 27.65 -129.35 26.95 -126.45 28.75 -125.35 29.75 -124.7 31.7 -124.25 35.1 -123.6 35.15 -120.75 35.25 -119.1 33.8 -114.75 33.2 -113.75 31.35 -112.9 29.35 -112.0 27.95 -112.45 25.1 -113.35 23.75 -111.55 22.3 -109.7 21.35 -109.85 21.3 -111.35 20.3 -113.0 19.35 -114.65 18.1 -115.05 16.1 -115.15 15.4 -116.15 14.05 -117.85 16.0 -124.1 17.25 -128.05 19.2 -128.0 20.2 -128.0 21.45 -127.05" fill="#000000" fill-rule="evenodd" stroke="none"/>
    <path d="M22.3 -130.75 Q22.85 -129.2 22.85 -124.6 22.6 -123.45 21.1 -122.1 19.45 -120.6 18.0 -120.6 14.95 -120.6 14.2 -118.5 13.4 -116.25 12.45 -116.1 11.9 -117.55 10.5 -118.75 9.1 -120.05 7.8 -120.1 5.85 -119.55 4.85 -120.3 3.05 -121.5 3.0 -128.1 3.0 -132.2 4.8 -132.75 L7.3 -132.5 Q8.7 -132.5 9.65 -133.3 10.9 -134.45 11.3 -135.9 11.55 -136.95 11.85 -136.95 12.95 -136.95 12.55 -136.65 12.7 -133.65 14.75 -133.2 L17.95 -133.0 Q21.3 -133.45 22.3 -130.75 M5.55 -130.3 Q5.0 -129.5 5.0 -127.85 5.05 -123.05 6.6 -122.0 L8.45 -121.9 10.65 -121.25 Q12.2 -120.6 12.6 -119.8 13.3 -122.3 14.8 -122.65 L17.0 -122.35 Q18.65 -122.1 19.55 -122.9 21.05 -124.35 21.05 -129.15 20.45 -129.15 19.3 -130.55 18.3 -131.8 17.05 -131.25 L14.35 -131.3 Q12.5 -131.6 11.85 -132.95 10.55 -131.15 7.3 -131.1 6.2 -131.1 5.55 -130.3" fill="#000000" fill-rule="evenodd" stroke="none"/>
    <path d="M8.45 -121.9 Q9.25 -122.6 10.15 -124.55 9.8 -125.4 8.3 -125.75 6.65 -126.15 6.25 -126.55 L6.3 -128.45 Q7.55 -127.5 9.3 -127.3 L12.15 -127.2 14.65 -127.7 Q15.85 -128.4 14.4 -129.9 L10.25 -130.75 8.95 -130.65 Q8.15 -130.4 8.1 -129.4 L7.1 -130.0 5.75 -130.3 5.55 -130.3 Q6.2 -131.1 7.3 -131.1 10.55 -131.15 11.85 -132.95 12.5 -131.6 14.35 -131.3 L17.05 -131.25 Q18.3 -131.8 19.3 -130.55 20.45 -129.15 21.05 -129.15 21.05 -124.35 19.55 -122.9 18.65 -122.1 17.0 -122.35 L14.8 -122.65 Q13.3 -122.3 12.6 -119.8 12.2 -120.6 10.65 -121.25 L8.45 -121.9" fill="#333333" fill-rule="evenodd" stroke="none"/>
    <path d="M5.55 -130.3 L5.75 -130.3 7.1 -130.0 8.1 -129.4 Q8.15 -130.4 8.95 -130.65 L10.25 -130.75 14.4 -129.9 Q15.85 -128.4 14.65 -127.7 L12.15 -127.2 9.3 -127.3 Q7.55 -127.5 6.3 -128.45 L6.25 -126.55 Q6.65 -126.15 8.3 -125.75 9.8 -125.4 10.15 -124.55 9.25 -122.6 8.45 -121.9 L6.6 -122.0 Q5.05 -123.05 5.0 -127.85 5.0 -129.5 5.55 -130.3" fill="#3e2426" fill-rule="evenodd" stroke="none"/>
    <path d="M0.0 -135.55 L3.2 -135.35 Q6.55 -135.8 7.55 -133.1 8.1 -131.55 8.1 -126.95 7.85 -125.8 6.35 -124.45 4.7 -122.95 3.25 -122.95 0.2 -122.95 -0.55 -120.85 -1.35 -118.6 -2.3 -118.45 -2.85 -119.9 -4.25 -121.1 -5.65 -122.4 -6.95 -122.45 -8.9 -121.9 -9.9 -122.65 -11.7 -123.85 -11.75 -130.45 -11.75 -134.55 -9.95 -135.1 L-7.45 -134.85 Q-6.05 -134.85 -5.1 -135.65 -3.85 -136.8 -3.45 -138.25 L-2.9 -139.3 Q-1.8 -139.3 -2.2 -139.0 -2.05 -136.0 0.0 -135.55 M-6.3 -124.25 L-4.1 -123.6 Q-2.55 -122.95 -2.15 -122.15 -1.45 -124.65 0.05 -125.0 L2.25 -124.7 Q3.9 -124.45 4.8 -125.25 6.3 -126.7 6.3 -131.5 5.7 -131.5 4.55 -132.9 3.55 -134.15 2.3 -133.6 L-0.4 -133.65 Q-2.25 -133.95 -2.9 -135.3 -4.2 -133.5 -7.45 -133.45 -8.55 -133.45 -9.2 -132.65 -9.75 -131.85 -9.75 -130.2 -9.7 -125.4 -8.15 -124.35 L-6.3 -124.25" fill="#000000" fill-rule="evenodd" stroke="none"/>
    <path d="M-9.2 -132.65 Q-8.55 -133.45 -7.45 -133.45 -4.2 -133.5 -2.9 -135.3 -2.25 -133.95 -0.4 -133.65 L2.3 -133.6 Q3.55 -134.15 4.55 -132.9 5.7 -131.5 6.3 -131.5 6.3 -126.7 4.8 -125.25 3.9 -124.45 2.25 -124.7 L0.05 -125.0 Q-1.45 -124.65 -2.15 -122.15 -2.55 -122.95 -4.1 -123.6 L-6.3 -124.25 Q-5.5 -124.95 -4.6 -126.9 -4.95 -127.75 -6.45 -128.1 -8.1 -128.5 -8.5 -128.9 L-8.45 -130.8 Q-7.2 -129.85 -5.45 -129.65 L-2.6 -129.55 Q-0.9 -129.6 -0.1 -130.05 1.1 -130.75 -0.35 -132.25 L-4.5 -133.1 -5.8 -133.0 Q-6.6 -132.75 -6.65 -131.75 L-7.65 -132.35 -9.0 -132.65 -9.2 -132.65" fill="#333333" fill-rule="evenodd" stroke="none"/>
    <path d="M-6.3 -124.25 L-8.15 -124.35 Q-9.7 -125.4 -9.75 -130.2 -9.75 -131.85 -9.2 -132.65 L-9.0 -132.65 -7.65 -132.35 -6.65 -131.75 Q-6.6 -132.75 -5.8 -133.0 L-4.5 -133.1 -0.35 -132.25 Q1.1 -130.75 -0.1 -130.05 -0.9 -129.6 -2.6 -129.55 L-5.45 -129.65 Q-7.2 -129.85 -8.45 -130.8 L-8.5 -128.9 Q-8.1 -128.5 -6.45 -128.1 -4.95 -127.75 -4.6 -126.9 -5.5 -124.95 -6.3 -124.25" fill="#3e2426" fill-rule="evenodd" stroke="none"/>
    <path d="M-20.0 -136.7 Q-19.0 -137.2 -19.25 -136.7 -17.75 -134.15 -15.75 -134.6 -14.55 -134.8 -12.8 -135.85 -10.0 -137.75 -7.9 -135.8 -6.7 -134.65 -4.65 -130.55 -4.35 -129.35 -5.1 -127.55 -5.9 -125.45 -7.2 -124.8 -9.9 -123.45 -9.6 -121.2 -9.3 -118.9 -10.15 -118.3 -11.25 -119.35 -13.1 -119.8 -14.95 -120.3 -16.1 -119.8 -17.6 -118.4 -18.8 -118.6 -21.0 -118.9 -23.95 -124.75 -25.8 -128.45 -24.4 -129.75 -23.7 -130.45 -22.1 -130.7 -20.85 -131.35 -20.35 -132.45 -19.8 -134.0 -20.05 -135.5 -20.3 -136.55 -20.0 -136.7 M-16.3 -121.65 L-14.0 -122.1 Q-12.4 -122.15 -11.65 -121.65 -12.2 -124.2 -10.95 -125.15 -10.25 -125.65 -8.85 -125.9 -7.3 -126.45 -6.85 -127.55 -6.15 -129.5 -8.25 -133.85 -8.8 -133.6 -10.45 -134.3 -11.9 -134.95 -12.8 -133.9 L-15.25 -132.7 Q-17.05 -132.2 -18.2 -133.1 -18.6 -130.9 -21.45 -129.4 -22.45 -128.9 -22.65 -127.9 -22.8 -126.95 -22.05 -125.45 -19.9 -121.2 -18.0 -120.95 -17.8 -120.9 -16.3 -121.65" fill="#000000" fill-rule="evenodd" stroke="none"/>
    <path d="M-22.65 -127.9 Q-22.45 -128.9 -21.45 -129.4 -18.6 -130.9 -18.2 -133.1 -17.05 -132.2 -15.25 -132.7 L-12.8 -133.9 Q-11.9 -134.95 -10.45 -134.3 -8.8 -133.6 -8.25 -133.85 -6.15 -129.5 -6.85 -127.55 -7.3 -126.45 -8.85 -125.9 -10.25 -125.65 -10.95 -125.15 -12.2 -124.2 -11.65 -121.65 -12.4 -122.15 -14.0 -122.1 L-16.3 -121.65 Q-15.9 -122.65 -16.0 -124.8 -16.7 -125.4 -18.15 -125.05 L-20.4 -124.85 -21.1 -126.6 -17.95 -126.9 Q-17.4 -127.05 -15.4 -128.05 -13.85 -128.85 -13.3 -129.6 -12.55 -130.8 -14.55 -131.5 -17.35 -131.1 -18.7 -130.4 L-19.8 -129.75 Q-20.4 -129.15 -20.0 -128.25 L-21.15 -128.3 -22.5 -128.0 -22.65 -127.9" fill="#333333" fill-rule="evenodd" stroke="none"/>
    <path d="M-16.3 -121.65 Q-17.8 -120.9 -18.0 -120.95 -19.9 -121.2 -22.05 -125.45 -22.8 -126.95 -22.65 -127.9 L-22.5 -128.0 -21.15 -128.3 -20.0 -128.25 Q-20.4 -129.15 -19.8 -129.75 L-18.7 -130.4 Q-17.35 -131.1 -14.55 -131.5 -12.55 -130.8 -13.3 -129.6 -13.85 -128.85 -15.4 -128.05 -17.4 -127.05 -17.95 -126.9 L-21.1 -126.6 -20.4 -124.85 -18.15 -125.05 Q-16.7 -125.4 -16.0 -124.8 -15.9 -122.65 -16.3 -121.65" fill="#3e2426" fill-rule="evenodd" stroke="none"/>
    <path d="M-17.95 -127.95 Q-16.85 -127.4 -15.95 -125.6 -14.9 -123.65 -15.25 -122.25 -16.0 -119.3 -14.2 -118.05 -12.25 -116.7 -12.3 -115.75 -13.85 -115.6 -15.4 -114.5 -17.0 -113.45 -17.4 -112.2 -17.3 -110.2 -18.25 -109.4 -19.9 -107.95 -26.3 -109.6 -30.3 -110.6 -30.35 -112.5 -30.4 -113.55 -29.55 -114.85 -29.2 -116.25 -29.7 -117.35 -30.55 -118.85 -31.8 -119.6 -32.8 -120.1 -32.7 -120.4 -32.45 -121.45 -32.25 -120.95 -29.3 -120.4 -28.3 -122.25 -27.7 -123.3 -27.3 -125.3 -26.9 -128.65 -24.0 -128.95 -22.4 -129.1 -17.95 -127.95 M-18.9 -113.3 L-17.75 -115.3 Q-16.75 -116.6 -15.85 -116.8 -18.15 -118.1 -18.05 -119.65 L-17.25 -121.7 Q-16.55 -123.25 -17.1 -124.3 -18.15 -126.1 -22.8 -127.35 -22.9 -126.8 -24.6 -126.05 -26.05 -125.35 -25.8 -124.0 L-26.6 -121.4 Q-27.35 -119.65 -28.8 -119.4 -27.4 -117.65 -28.15 -114.5 -28.4 -113.45 -27.8 -112.6 -27.15 -111.85 -25.55 -111.45 -20.9 -110.25 -19.5 -111.5 L-18.9 -113.3" fill="#000000" fill-rule="evenodd" stroke="none"/>
    <path d="M-27.8 -112.6 Q-28.4 -113.45 -28.15 -114.5 -27.4 -117.65 -28.8 -119.4 -27.35 -119.65 -26.6 -121.4 L-25.8 -124.0 Q-26.05 -125.35 -24.6 -126.05 -22.9 -126.8 -22.8 -127.35 -18.15 -126.1 -17.1 -124.3 -16.55 -123.25 -17.25 -121.7 L-18.05 -119.65 Q-18.15 -118.1 -15.85 -116.8 -16.75 -116.6 -17.75 -115.3 L-18.9 -113.3 Q-19.4 -114.25 -21.1 -115.55 -22.0 -115.45 -22.7 -114.1 -23.5 -112.55 -23.95 -112.3 L-25.8 -112.9 Q-24.55 -113.85 -23.95 -115.5 L-23.15 -118.25 Q-22.7 -119.95 -22.95 -120.8 -23.35 -122.1 -25.2 -121.1 -26.7 -118.7 -27.05 -117.25 L-27.35 -116.0 Q-27.25 -115.1 -26.3 -114.9 L-27.15 -114.0 -27.75 -112.8 -27.8 -112.6" fill="#333333" fill-rule="evenodd" stroke="none"/>
    <path d="M-18.9 -113.3 L-19.5 -111.5 Q-20.9 -110.25 -25.55 -111.45 -27.15 -111.85 -27.8 -112.6 L-27.75 -112.8 -27.15 -114.0 -26.3 -114.9 Q-27.25 -115.1 -27.35 -116.0 L-27.05 -117.25 Q-26.7 -118.7 -25.2 -121.1 -23.35 -122.1 -22.95 -120.8 -22.7 -119.95 -23.15 -118.25 L-23.95 -115.5 Q-24.55 -113.85 -25.8 -112.9 L-23.95 -112.3 Q-23.5 -112.55 -22.7 -114.1 -22.0 -115.45 -21.1 -115.55 -19.4 -114.25 -18.9 -113.3" fill="#3e2426" fill-rule="evenodd" stroke="none"/>
    <path d="M-15.15 -112.0 L-18.35 -111.6 Q-18.75 -110.85 -18.1 -109.45 -17.35 -107.9 -17.4 -107.3 L-19.0 -106.2 Q-19.05 -107.8 -20.0 -109.3 L-21.65 -111.55 Q-22.75 -112.9 -23.6 -113.25 -24.9 -113.75 -25.2 -111.65 -24.2 -109.0 -23.25 -107.8 L-22.35 -106.85 Q-21.65 -106.45 -20.85 -107.0 L-20.7 -105.85 -20.1 -104.6 -20.0 -104.5 Q-20.95 -104.45 -21.65 -105.35 -23.75 -107.8 -26.0 -107.7 -25.35 -109.1 -26.25 -110.7 L-27.9 -112.9 Q-29.15 -113.5 -28.8 -115.1 -28.4 -116.9 -28.8 -117.35 -25.0 -120.3 -22.9 -120.05 -21.75 -119.9 -20.9 -118.4 -20.35 -117.1 -19.7 -116.5 -18.55 -115.5 -16.15 -116.55 -16.5 -115.7 -16.05 -114.15 -15.75 -112.8 -15.15 -112.0" fill="#333333" fill-rule="evenodd" stroke="none"/>
    <path d="M-26.35 -121.55 L-23.3 -121.8 Q-21.05 -121.45 -20.15 -120.3 -18.25 -117.95 -16.15 -118.65 L-13.2 -118.75 Q-13.95 -117.45 -14.05 -115.55 -14.15 -113.65 -13.35 -112.6 -11.7 -111.4 -11.65 -110.2 -11.5 -107.95 -16.6 -103.85 -19.85 -101.25 -21.4 -102.35 -22.25 -102.9 -22.8 -104.45 -23.7 -105.55 -24.9 -105.75 L-27.95 -105.4 Q-28.95 -104.95 -29.15 -105.2 -29.85 -106.05 -29.3 -105.95 -27.15 -107.9 -27.95 -109.85 -28.45 -110.95 -29.85 -112.45 -32.3 -114.85 -30.8 -117.3 -30.0 -118.7 -26.35 -121.55 M-15.15 -112.0 Q-15.75 -112.8 -16.05 -114.15 -16.5 -115.7 -16.15 -116.55 -18.55 -115.5 -19.7 -116.5 -20.35 -117.1 -20.9 -118.4 -21.75 -119.9 -22.9 -120.05 -25.0 -120.3 -28.8 -117.35 -28.4 -116.9 -28.8 -115.1 -29.15 -113.5 -27.9 -112.9 L-26.25 -110.7 Q-25.35 -109.1 -26.0 -107.7 -23.75 -107.8 -21.65 -105.35 -20.95 -104.45 -20.0 -104.5 -18.95 -104.55 -17.7 -105.55 -13.95 -108.6 -14.1 -110.45 L-15.15 -112.0" fill="#000000" fill-rule="evenodd" stroke="none"/>
    <path d="M-20.0 -104.5 L-20.1 -104.6 -20.7 -105.85 -20.85 -107.0 Q-21.65 -106.45 -22.35 -106.85 L-23.25 -107.8 Q-24.2 -109.0 -25.2 -111.65 -24.9 -113.75 -23.6 -113.25 -22.75 -112.9 -21.65 -111.55 L-20.0 -109.3 Q-19.05 -107.8 -19.0 -106.2 L-17.4 -107.3 Q-17.35 -107.9 -18.1 -109.45 -18.75 -110.85 -18.35 -111.6 L-15.15 -112.0 -14.1 -110.45 Q-13.95 -108.6 -17.7 -105.55 -18.95 -104.55 -20.0 -104.5" fill="#3e2426" fill-rule="evenodd" stroke="none"/>
    <path d="M-23.35 -104.45 Q-25.8 -106.85 -24.3 -109.3 -23.5 -110.7 -19.85 -113.55 L-16.8 -113.8 Q-14.55 -113.45 -13.65 -112.3 -11.75 -109.95 -9.65 -110.65 L-6.7 -110.75 Q-7.45 -109.45 -7.55 -107.55 -7.65 -105.65 -6.85 -104.6 -5.2 -103.4 -5.15 -102.2 -5.0 -99.95 -10.1 -95.85 -13.35 -93.25 -14.9 -94.35 -15.75 -94.9 -16.3 -96.45 -17.2 -97.55 -18.4 -97.75 L-21.45 -97.4 Q-22.45 -96.95 -22.65 -97.2 -23.35 -98.05 -22.8 -97.95 -20.65 -99.9 -21.45 -101.85 -21.95 -102.95 -23.35 -104.45 M-8.65 -104.0 Q-9.25 -104.8 -9.55 -106.15 -10.0 -107.7 -9.65 -108.55 -12.05 -107.5 -13.2 -108.5 -13.85 -109.1 -14.4 -110.4 -15.25 -111.9 -16.4 -112.05 -18.5 -112.3 -22.3 -109.35 -21.9 -108.9 -22.3 -107.1 -22.65 -105.5 -21.4 -104.9 L-19.75 -102.7 Q-18.85 -101.1 -19.5 -99.7 -17.25 -99.8 -15.15 -97.35 -14.45 -96.45 -13.5 -96.5 -12.45 -96.55 -11.2 -97.55 -7.45 -100.6 -7.6 -102.45 L-8.65 -104.0" fill="#000000" fill-rule="evenodd" stroke="none"/>
    <path d="M-13.5 -96.5 Q-14.45 -96.45 -15.15 -97.35 -17.25 -99.8 -19.5 -99.7 -18.85 -101.1 -19.75 -102.7 L-21.4 -104.9 Q-22.65 -105.5 -22.3 -107.1 -21.9 -108.9 -22.3 -109.35 -18.5 -112.3 -16.4 -112.05 -15.25 -111.9 -14.4 -110.4 -13.85 -109.1 -13.2 -108.5 -12.05 -107.5 -9.65 -108.55 -10.0 -107.7 -9.55 -106.15 -9.25 -104.8 -8.65 -104.0 L-11.85 -103.6 Q-12.25 -102.85 -11.6 -101.45 -10.85 -99.9 -10.9 -99.3 L-12.5 -98.2 Q-12.55 -99.8 -13.5 -101.3 L-15.15 -103.55 Q-16.25 -104.9 -17.1 -105.25 -18.4 -105.75 -18.7 -103.65 -17.7 -101.0 -16.75 -99.8 L-15.85 -98.85 Q-15.15 -98.45 -14.35 -99.0 L-14.2 -97.85 -13.6 -96.6 -13.5 -96.5" fill="#333333" fill-rule="evenodd" stroke="none"/>
    <path d="M-8.65 -104.0 L-7.6 -102.45 Q-7.45 -100.6 -11.2 -97.55 -12.45 -96.55 -13.5 -96.5 L-13.6 -96.6 -14.2 -97.85 -14.35 -99.0 Q-15.15 -98.45 -15.85 -98.85 L-16.75 -99.8 Q-17.7 -101.0 -18.7 -103.65 -18.4 -105.75 -17.1 -105.25 -16.25 -104.9 -15.15 -103.55 L-13.5 -101.3 Q-12.55 -99.8 -12.5 -98.2 L-10.9 -99.3 Q-10.85 -99.9 -11.6 -101.45 -12.25 -102.85 -11.85 -103.6 L-8.65 -104.0" fill="#3e2426" fill-rule="evenodd" stroke="none"/>
    <path d="M-3.1 -94.85 Q-3.7 -95.65 -4.0 -97.0 -4.45 -98.55 -4.1 -99.4 -6.5 -98.35 -7.65 -99.35 -8.3 -99.95 -8.85 -101.25 -9.7 -102.75 -10.85 -102.9 -12.95 -103.15 -16.75 -100.2 -16.35 -99.75 -16.75 -97.95 -17.1 -96.35 -15.85 -95.75 -14.75 -94.45 -14.2 -93.55 -13.3 -91.95 -13.95 -90.55 -11.7 -90.65 -9.6 -88.2 -8.9 -87.3 -7.95 -87.35 -6.9 -87.4 -5.65 -88.4 -1.9 -91.45 -2.05 -93.3 L-3.1 -94.85 M-4.1 -101.5 L-1.15 -101.6 Q-1.9 -100.3 -2.0 -98.4 -2.1 -96.5 -1.3 -95.45 0.35 -94.25 0.4 -93.05 0.55 -90.8 -4.55 -86.7 -7.8 -84.1 -9.35 -85.2 -10.2 -85.75 -10.75 -87.3 -11.65 -88.4 -12.85 -88.6 -14.55 -88.85 -15.9 -88.25 -16.9 -87.8 -17.1 -88.05 -17.8 -88.9 -17.25 -88.8 -15.1 -90.75 -15.9 -92.7 -16.4 -93.8 -17.8 -95.3 -20.25 -97.7 -18.75 -100.15 -17.95 -101.55 -14.3 -104.4 L-11.25 -104.65 Q-9.0 -104.3 -8.1 -103.15 -6.2 -100.8 -4.1 -101.5" fill="#000000" fill-rule="evenodd" stroke="none"/>
    <path d="M-7.95 -87.35 Q-8.9 -87.3 -9.6 -88.2 -11.7 -90.65 -13.95 -90.55 -13.3 -91.95 -14.2 -93.55 -14.75 -94.45 -15.85 -95.75 -17.1 -96.35 -16.75 -97.95 -16.35 -99.75 -16.75 -100.2 -12.95 -103.15 -10.85 -102.9 -9.7 -102.75 -8.85 -101.25 -8.3 -99.95 -7.65 -99.35 -6.5 -98.35 -4.1 -99.4 -4.45 -98.55 -4.0 -97.0 -3.7 -95.65 -3.1 -94.85 L-6.3 -94.45 Q-6.7 -93.7 -6.05 -92.3 -5.3 -90.75 -5.35 -90.15 L-6.95 -89.05 Q-7.0 -90.65 -7.95 -92.15 L-9.6 -94.4 Q-10.7 -95.75 -11.55 -96.1 -12.85 -96.6 -13.15 -94.5 -12.15 -91.85 -11.2 -90.65 L-10.3 -89.7 Q-9.6 -89.3 -8.8 -89.85 L-8.65 -88.7 -8.05 -87.45 -7.95 -87.35" fill="#333333" fill-rule="evenodd" stroke="none"/>
    <path d="M-3.1 -94.85 L-2.05 -93.3 Q-1.9 -91.45 -5.65 -88.4 -6.9 -87.4 -7.95 -87.35 L-8.05 -87.45 -8.65 -88.7 -8.8 -89.85 Q-9.6 -89.3 -10.3 -89.7 L-11.2 -90.65 Q-12.15 -91.85 -13.15 -94.5 -12.85 -96.6 -11.55 -96.1 -10.7 -95.75 -9.6 -94.4 L-7.95 -92.15 Q-7.0 -90.65 -6.95 -89.05 L-5.35 -90.15 Q-5.3 -90.75 -6.05 -92.3 -6.7 -93.7 -6.3 -94.45 L-3.1 -94.85" fill="#3e2426" fill-rule="evenodd" stroke="none"/>
    <path d="M4.55 -87.45 Q3.95 -88.25 3.65 -89.6 3.2 -91.15 3.55 -92.0 1.15 -90.95 0.0 -91.95 -0.65 -92.55 -1.2 -93.85 -2.05 -95.35 -3.2 -95.5 -5.3 -95.75 -9.1 -92.8 -8.7 -92.35 -9.1 -90.55 -9.45 -88.95 -8.2 -88.35 L-6.55 -86.15 Q-5.65 -84.55 -6.3 -83.15 -4.05 -83.25 -1.95 -80.8 -1.25 -79.9 -0.3 -79.95 0.75 -80.0 2.0 -81.0 5.75 -84.05 5.6 -85.9 L4.55 -87.45 M5.65 -91.0 Q5.55 -89.1 6.35 -88.05 8.0 -86.85 8.05 -85.65 8.2 -83.4 3.1 -79.3 -0.15 -76.7 -1.7 -77.8 -2.55 -78.35 -3.1 -79.9 -4.0 -81.0 -5.2 -81.2 L-8.25 -80.85 Q-9.25 -80.4 -9.45 -80.65 -10.15 -81.5 -9.6 -81.4 -7.45 -83.35 -8.25 -85.3 -8.75 -86.4 -10.15 -87.9 -12.6 -90.3 -11.1 -92.75 -10.3 -94.15 -6.65 -97.0 L-3.6 -97.25 Q-1.35 -96.9 -0.45 -95.75 1.45 -93.4 3.55 -94.1 L6.5 -94.2 Q5.75 -92.9 5.65 -91.0" fill="#000000" fill-rule="evenodd" stroke="none"/>
    <path d="M4.55 -87.45 L1.35 -87.05 Q0.95 -86.3 1.6 -84.9 2.35 -83.35 2.3 -82.75 L0.7 -81.65 Q0.65 -83.25 -0.3 -84.75 L-1.95 -87.0 Q-3.05 -88.35 -3.9 -88.7 -5.2 -89.2 -5.5 -87.1 -4.5 -84.45 -3.55 -83.25 L-2.65 -82.3 Q-1.95 -81.9 -1.15 -82.45 L-1.0 -81.3 -0.4 -80.05 -0.3 -79.95 Q-1.25 -79.9 -1.95 -80.8 -4.05 -83.25 -6.3 -83.15 -5.65 -84.55 -6.55 -86.15 L-8.2 -88.35 Q-9.45 -88.95 -9.1 -90.55 -8.7 -92.35 -9.1 -92.8 -5.3 -95.75 -3.2 -95.5 -2.05 -95.35 -1.2 -93.85 -0.65 -92.55 0.0 -91.95 1.15 -90.95 3.55 -92.0 3.2 -91.15 3.65 -89.6 3.95 -88.25 4.55 -87.45" fill="#333333" fill-rule="evenodd" stroke="none"/>
    <path d="M-0.3 -79.95 L-0.4 -80.05 -1.0 -81.3 -1.15 -82.45 Q-1.95 -81.9 -2.65 -82.3 L-3.55 -83.25 Q-4.5 -84.45 -5.5 -87.1 -5.2 -89.2 -3.9 -88.7 -3.05 -88.35 -1.95 -87.0 L-0.3 -84.75 Q0.65 -83.25 0.7 -81.65 L2.3 -82.75 Q2.35 -83.35 1.6 -84.9 0.95 -86.3 1.35 -87.05 L4.55 -87.45 5.6 -85.9 Q5.75 -84.05 2.0 -81.0 0.75 -80.0 -0.3 -79.95" fill="#3e2426" fill-rule="evenodd" stroke="none"/>
    <path d="M1.8 -90.25 Q4.05 -89.9 4.95 -88.75 6.85 -86.4 8.95 -87.1 L11.9 -87.2 Q11.15 -85.9 11.05 -84.0 10.95 -82.1 11.75 -81.05 13.4 -79.85 13.45 -78.65 13.6 -76.4 8.5 -72.3 5.25 -69.7 3.7 -70.8 2.85 -71.35 2.3 -72.9 1.4 -74.0 0.2 -74.2 L-2.85 -73.85 Q-3.85 -73.4 -4.05 -73.65 -4.75 -74.5 -4.2 -74.4 -2.05 -76.35 -2.85 -78.3 -3.35 -79.4 -4.75 -80.9 -7.2 -83.3 -5.7 -85.75 -4.9 -87.15 -1.25 -90.0 L1.8 -90.25 M9.95 -80.45 Q9.35 -81.25 9.05 -82.6 8.6 -84.15 8.95 -85.0 6.55 -83.95 5.4 -84.95 4.75 -85.55 4.2 -86.85 3.35 -88.35 2.2 -88.5 0.1 -88.75 -3.7 -85.8 -3.3 -85.35 -3.7 -83.55 -4.05 -81.95 -2.8 -81.35 L-1.15 -79.15 Q-0.25 -77.55 -0.9 -76.15 1.35 -76.25 3.45 -73.8 4.15 -72.9 5.1 -72.95 6.15 -73.0 7.4 -74.0 11.15 -77.05 11.0 -78.9 L9.95 -80.45" fill="#000000" fill-rule="evenodd" stroke="none"/>
    <path d="M5.1 -72.95 Q4.15 -72.9 3.45 -73.8 1.35 -76.25 -0.9 -76.15 -0.25 -77.55 -1.15 -79.15 L-2.8 -81.35 Q-4.05 -81.95 -3.7 -83.55 -3.3 -85.35 -3.7 -85.8 0.1 -88.75 2.2 -88.5 3.35 -88.35 4.2 -86.85 4.75 -85.55 5.4 -84.95 6.55 -83.95 8.95 -85.0 8.6 -84.15 9.05 -82.6 9.35 -81.25 9.95 -80.45 L6.75 -80.05 Q6.35 -79.3 7.0 -77.9 7.75 -76.35 7.7 -75.75 L6.1 -74.65 Q6.05 -76.25 5.1 -77.75 L3.45 -80.0 Q2.35 -81.35 1.5 -81.7 0.2 -82.2 -0.1 -80.1 0.9 -77.45 1.85 -76.25 L2.75 -75.3 4.25 -75.45 4.4 -74.3 Q4.55 -73.65 5.0 -73.05 L5.1 -72.95" fill="#333333" fill-rule="evenodd" stroke="none"/>
    <path d="M9.95 -80.45 L11.0 -78.9 Q11.15 -77.05 7.4 -74.0 6.15 -73.0 5.1 -72.95 L5.0 -73.05 Q4.55 -73.65 4.4 -74.3 L4.25 -75.45 2.75 -75.3 1.85 -76.25 Q0.9 -77.45 -0.1 -80.1 0.2 -82.2 1.5 -81.7 2.35 -81.35 3.45 -80.0 L5.1 -77.75 Q6.05 -76.25 6.1 -74.65 L7.7 -75.75 Q7.75 -76.35 7.0 -77.9 6.35 -79.3 6.75 -80.05 L9.95 -80.45" fill="#3e2426" fill-rule="evenodd" stroke="none"/>
  </g>
</svg>
