<?xml version="1.0" encoding="UTF-8" standalone="no"?>
<svg xmlns:ffdec="https://www.free-decompiler.com/flash" xmlns:xlink="http://www.w3.org/1999/xlink" ffdec:objectType="shape" height="135.5px" width="147.5px" xmlns="http://www.w3.org/2000/svg">
  <g transform="matrix(1.0, 0.0, 0.0, 1.0, 73.75, 67.75)">
    <path d="M66.2 29.3 L66.1 29.25 66.2 27.0 66.2 26.75 66.7 25.2 66.7 25.05 66.7 25.0 66.65 23.25 66.45 22.0 66.4 21.9 Q66.15 19.0 64.75 16.75 63.15 14.05 59.7 12.1 56.85 10.45 53.7 10.6 49.55 10.8 46.35 14.3 L45.65 13.75 43.55 13.2 Q42.5 13.15 41.55 13.8 L40.7 13.25 41.1 12.0 Q42.7 7.05 42.7 3.35 42.7 -6.9 33.2 -19.25 21.85 -34.0 4.85 -38.0 L-0.35 -39.95 -2.95 -40.4 Q-2.8 -41.05 -2.8 -42.25 L-3.0 -43.25 -3.05 -43.45 Q3.0 -44.4 4.7 -48.7 5.4 -50.5 5.4 -52.95 L5.2 -55.85 5.0 -59.35 4.35 -63.0 Q3.6 -64.1 0.2 -65.25 -2.25 -66.4 -4.9 -66.9 L-4.9 -67.1 0.0 -67.25 Q30.35 -67.25 51.8 -47.55 73.25 -27.85 73.25 0.0 73.25 16.0 66.2 29.3" fill="url(#gradient0)" fill-rule="evenodd" stroke="none"/>
    <path d="M-10.8 -66.6 Q-15.8 -64.55 -17.8 -60.8 -19.3 -58.05 -19.3 -54.1 -19.3 -50.8 -17.55 -48.1 -15.3 -44.65 -10.7 -43.65 L-10.8 -42.75 -10.25 -40.65 -9.8 -40.05 Q-16.05 -38.75 -21.3 -34.9 -26.85 -30.9 -32.9 -22.6 -40.15 -12.65 -41.2 -10.2 -42.3 -7.55 -42.3 0.0 L-42.0 6.3 -41.3 15.55 Q-41.0 18.3 -37.05 24.05 L-33.5 28.3 -34.55 29.25 -35.1 30.05 -35.25 30.3 Q-40.0 26.85 -44.05 28.4 L-44.95 28.35 Q-46.45 28.4 -49.2 29.8 L-49.95 30.55 Q-51.35 31.5 -52.25 33.1 -53.3 35.05 -53.6 37.65 L-54.35 38.9 Q-54.55 39.9 -53.65 41.95 L-53.65 42.0 -53.2 43.05 -53.2 45.05 -52.45 46.95 Q-73.25 27.45 -73.25 0.0 -73.25 -27.85 -51.8 -47.55 -34.3 -63.65 -10.8 -66.6" fill="url(#gradient1)" fill-rule="evenodd" stroke="none"/>
    <path d="M-46.15 52.25 L-46.1 52.15 Q-41.15 54.15 -37.05 52.95 -34.05 52.1 -31.3 49.25 -28.95 46.95 -28.3 43.85 -27.4 39.8 -29.95 35.8 L-29.25 35.3 -28.65 34.3 -28.65 34.25 -28.6 34.2 -26.85 35.0 -21.4 37.25 Q-19.25 38.15 -16.4 39.7 -13.25 40.75 -5.8 40.75 21.5 40.75 34.45 24.55 36.8 21.6 38.5 18.3 L39.3 18.75 39.45 19.05 41.2 20.45 42.15 20.75 42.4 20.85 Q40.5 25.7 42.3 29.05 42.6 30.95 43.7 32.5 45.95 35.6 50.8 36.15 L50.8 36.3 54.35 36.7 55.65 37.05 56.65 36.75 57.45 36.75 Q61.9 36.75 64.7 31.3 L65.0 31.5 Q59.9 40.1 51.8 47.55 30.35 67.25 0.0 67.25 -26.45 67.25 -46.15 52.25" fill="url(#gradient2)" fill-rule="evenodd" stroke="none"/>
    <path d="M66.2 29.3 Q73.25 16.0 73.25 0.0 73.25 -27.85 51.8 -47.55 30.35 -67.25 0.0 -67.25 L-4.9 -67.1 M-10.8 -66.6 Q-34.3 -63.65 -51.8 -47.55 -73.25 -27.85 -73.25 0.0 -73.25 27.45 -52.45 46.95 M-46.15 52.25 Q-26.45 67.25 0.0 67.25 30.35 67.25 51.8 47.55 59.9 40.1 65.0 31.5 M-46.65 51.9 L-49.2 49.85 -49.95 49.2" fill="none" stroke="#010101" stroke-linecap="round" stroke-linejoin="round" stroke-opacity="0.0" stroke-width="1.0"/>
  </g>
  <defs>
    <linearGradient gradientTransform="matrix(0.021, 0.021, -0.022, 0.022, 39.15, -24.3)" gradientUnits="userSpaceOnUse" id="gradient0" spreadMethod="pad" x1="-819.2" x2="819.2">
      <stop offset="0.0" stop-color="#333333" stop-opacity="0.49803922"/>
      <stop offset="1.0" stop-color="#777777" stop-opacity="0.49803922"/>
    </linearGradient>
    <linearGradient gradientTransform="matrix(0.0095, -0.0352, 0.0313, 0.0084, -43.8, -16.0)" gradientUnits="userSpaceOnUse" id="gradient1" spreadMethod="pad" x1="-819.2" x2="819.2">
      <stop offset="0.0" stop-color="#a2a2a2" stop-opacity="0.49803922"/>
      <stop offset="1.0" stop-color="#777777" stop-opacity="0.0"/>
    </linearGradient>
    <linearGradient gradientTransform="matrix(-0.0184, 0.0049, -0.0066, -0.0248, 7.75, 46.4)" gradientUnits="userSpaceOnUse" id="gradient2" spreadMethod="pad" x1="-819.2" x2="819.2">
      <stop offset="0.0" stop-color="#777777" stop-opacity="0.49803922"/>
      <stop offset="1.0" stop-color="#a2a2a2" stop-opacity="0.49803922"/>
    </linearGradient>
  </defs>
</svg>
