<?xml version="1.0" encoding="UTF-8" standalone="no"?>
<svg xmlns:ffdec="https://www.free-decompiler.com/flash" xmlns:xlink="http://www.w3.org/1999/xlink" ffdec:objectType="shape" height="121.0px" width="121.1px" xmlns="http://www.w3.org/2000/svg">
  <g transform="matrix(1.0, 0.0, 0.0, 1.0, 60.55, 60.75)">
    <path d="M-11.05 -60.05 Q-8.4 -59.55 -5.95 -58.4 -2.55 -57.25 -1.8 -56.15 -1.45 -55.55 -1.15 -52.5 L-0.95 -49.0 -0.75 -46.1 Q-0.75 -43.65 -1.45 -41.85 -3.15 -37.55 -9.2 -36.6 L-9.15 -36.4 -8.95 -35.4 Q-8.95 -34.2 -9.1 -33.55 L-9.3 -33.15 -9.45 -32.9 -9.45 -31.7 Q-9.45 -30.05 -10.05 -28.9 L-10.5 -28.2 Q-8.95 -27.6 -8.95 -25.2 -8.95 -23.75 -9.35 -22.8 -7.45 -21.9 -7.45 -19.7 -7.45 -17.45 -8.85 -16.7 -7.95 -15.95 -7.95 -14.15 L-8.0 -12.9 -7.95 -12.9 Q-7.0 -12.3 -6.65 -11.5 L-6.45 -10.0 -6.65 -7.75 -7.25 -6.85 -7.15 -6.6 -6.95 -5.2 -7.05 -3.75 -6.05 -3.2 Q-4.95 -2.35 -4.95 -1.15 -4.95 -0.45 -5.35 0.25 L-5.05 0.35 -4.95 0.8 Q-3.45 1.95 -3.0 4.25 -2.85 5.15 -2.85 6.2 -2.85 8.05 -4.35 9.4 L-5.7 10.35 Q-7.3 11.1 -9.6 11.1 -11.75 11.1 -13.0 9.95 -13.85 9.15 -14.35 7.85 L-14.85 4.4 Q-14.85 2.45 -13.0 1.1 L-12.95 1.05 Q-12.45 0.7 -11.95 0.45 L-11.95 0.25 Q-11.95 -1.15 -11.55 -2.1 L-11.95 -2.15 -12.2 -4.55 -12.45 -6.8 -12.3 -7.4 -11.3 -7.75 -11.95 -8.65 Q-12.95 -10.3 -12.95 -11.25 L-12.9 -11.65 Q-13.75 -12.0 -13.7 -12.6 -13.65 -14.7 -14.45 -15.5 -13.4 -16.45 -12.45 -16.9 L-12.55 -20.0 -13.45 -19.4 -14.15 -19.9 Q-14.45 -20.3 -14.45 -21.15 L-14.45 -21.25 Q-15.15 -21.7 -15.4 -22.55 -15.65 -23.35 -15.45 -24.3 -15.45 -26.85 -14.05 -27.8 -14.7 -28.25 -14.95 -29.2 -15.15 -30.15 -14.95 -31.2 L-14.9 -32.35 Q-15.55 -32.7 -15.95 -33.2 L-16.4 -33.8 -16.95 -35.9 -16.85 -36.8 Q-21.45 -37.8 -23.7 -41.25 -25.45 -43.95 -25.45 -47.25 -25.45 -51.2 -23.95 -53.95 -21.95 -57.7 -16.95 -59.75 -15.0 -60.55 -12.1 -60.2 L-11.05 -60.05 M-3.7 -54.75 Q-3.85 -55.1 -5.8 -55.85 L-8.05 -56.65 -11.85 -57.45 Q-15.25 -57.95 -17.05 -56.9 L-19.55 -55.1 Q-21.7 -53.5 -22.2 -52.4 -23.45 -49.5 -23.45 -46.95 -23.45 -44.15 -21.7 -42.0 -18.95 -38.65 -12.7 -38.65 -5.35 -38.65 -3.45 -43.5 -2.45 -46.0 -2.95 -48.95 L-3.0 -51.65 Q-3.1 -53.65 -3.7 -54.75 M-13.7 -34.0 L-11.05 -34.15 -10.95 -36.45 -12.7 -36.4 -15.35 -36.55 -15.1 -35.15 Q-15.0 -34.0 -13.7 -34.0 M-12.75 -31.9 L-12.95 -30.4 -12.45 -29.9 Q-11.55 -30.6 -11.45 -31.95 L-12.45 -31.9 -12.75 -31.9 M-10.95 -25.75 L-13.2 -25.75 -13.45 -23.5 -13.3 -23.2 -11.6 -23.4 -11.1 -24.0 -10.95 -25.65 -10.95 -25.75 M-10.45 -19.75 L-10.45 -18.65 Q-9.95 -18.9 -9.7 -19.55 -9.5 -20.2 -9.7 -20.4 L-9.7 -20.25 -10.45 -19.75 M-9.95 -14.4 L-10.65 -14.6 Q-11.3 -14.6 -11.45 -14.25 L-11.45 -13.5 -9.95 -13.65 -9.95 -14.4 M-8.95 -10.65 Q-9.25 -9.65 -9.95 -9.0 L-9.95 -8.9 -9.55 -8.75 -8.55 -8.65 Q-8.3 -10.45 -8.95 -10.75 L-8.95 -10.65 M-9.05 -4.15 L-8.95 -5.65 -9.95 -5.25 -9.95 -4.15 -9.05 -4.15 M-8.85 -0.25 L-8.2 -0.2 Q-7.4 -0.35 -7.2 -0.6 L-6.95 -0.9 Q-7.15 -1.25 -8.15 -1.25 -9.15 -1.25 -9.45 -0.9 L-9.75 -0.15 -8.85 -0.25" fill="#000000" fill-rule="evenodd" stroke="none"/>
    <path d="M-3.0 4.25 Q-2.3 3.75 -1.6 3.85 L-0.2 4.65 Q1.15 5.4 1.35 6.65 L3.1 7.65 Q4.0 6.4 4.8 6.45 4.85 6.4 5.7 6.9 6.9 7.6 7.5 8.4 L7.75 8.1 10.0 9.05 12.05 9.95 12.5 10.4 Q12.6 10.8 12.3 11.45 L13.4 11.35 16.15 11.75 16.5 12.0 Q17.2 11.45 17.7 11.75 19.5 12.85 20.55 12.6 L20.8 15.0 23.5 16.45 Q23.25 15.95 23.45 15.4 23.95 15.0 24.25 15.05 24.75 15.0 25.45 15.45 L25.55 15.5 27.2 15.3 Q27.95 15.5 28.7 16.1 30.9 17.4 31.05 19.05 L32.7 19.0 Q33.6 19.3 34.4 20.0 L34.45 20.05 34.55 20.1 35.4 20.65 Q36.35 20.0 37.4 20.05 L39.5 20.6 40.2 21.15 Q43.4 17.65 47.55 17.45 50.7 17.3 53.55 18.95 57.0 20.9 58.6 23.6 60.0 25.85 60.25 28.75 L60.3 28.85 60.5 30.1 60.55 31.85 60.55 31.9 60.55 32.05 60.05 33.6 60.05 33.85 59.95 36.1 Q59.65 36.95 58.75 37.55 L58.55 38.15 Q55.75 43.6 51.3 43.6 L50.5 43.6 49.5 43.9 48.2 43.55 44.65 43.15 44.65 43.0 Q39.8 42.45 37.55 39.35 36.45 37.8 36.15 35.9 34.35 32.55 36.25 27.7 L36.25 27.65 36.0 27.6 35.05 27.3 Q33.65 26.5 33.3 25.9 L33.15 25.6 32.35 25.15 32.1 25.0 Q30.7 24.2 30.0 23.1 L29.6 22.35 26.25 22.2 Q24.95 21.5 24.35 20.65 L20.7 20.75 Q18.75 19.65 18.8 18.05 17.7 18.45 16.15 17.55 L15.1 16.85 15.05 16.9 Q14.1 17.45 13.2 17.35 12.65 17.25 11.8 16.75 L9.95 15.5 9.5 14.5 9.2 14.45 Q8.7 14.35 7.9 13.9 L6.7 13.15 5.7 13.7 3.4 13.65 2.4 12.6 2.15 12.8 Q1.9 12.75 0.8 12.15 L-0.3 11.3 Q-1.85 12.95 -3.95 11.7 L-5.7 10.35 -4.35 9.4 Q-2.85 8.05 -2.85 6.2 -2.85 5.15 -3.0 4.25 M-5.65 -49.75 Q-5.45 -50.1 -5.45 -52.0 -5.45 -55.35 -8.45 -55.15 -11.45 -55.0 -11.45 -52.3 -11.65 -51.5 -11.45 -50.65 -11.05 -48.9 -9.2 -48.9 -6.3 -48.9 -5.65 -49.75 M-13.7 -34.0 Q-15.0 -34.0 -15.1 -35.15 L-15.35 -36.55 -12.7 -36.4 -10.95 -36.45 -11.05 -34.15 -13.7 -34.0 M-3.7 -54.75 Q-3.1 -53.65 -3.0 -51.65 L-2.95 -48.95 Q-2.45 -46.0 -3.45 -43.5 -5.35 -38.65 -12.7 -38.65 -18.95 -38.65 -21.7 -42.0 -23.45 -44.15 -23.45 -46.95 -23.45 -49.5 -22.2 -52.4 -21.7 -53.5 -19.55 -55.1 L-17.05 -56.9 Q-15.25 -57.95 -11.85 -57.45 L-8.05 -56.65 -5.8 -55.85 Q-3.85 -55.1 -3.7 -54.75 M27.0 17.45 L26.7 17.4 26.0 19.0 26.3 19.75 27.6 20.7 27.7 20.75 28.85 18.8 27.0 17.45 M17.9 15.4 Q18.25 14.85 18.0 14.55 L17.35 14.15 16.7 15.55 17.35 15.9 Q17.6 15.95 17.9 15.4 M22.45 19.15 L22.35 19.1 22.25 18.2 21.3 17.65 Q21.25 18.15 21.75 18.75 22.2 19.2 22.45 19.15 M32.05 21.5 Q32.2 22.65 33.3 23.4 L33.8 22.5 33.95 22.25 32.75 21.3 32.05 21.5 M9.45 11.35 L8.5 10.8 8.05 11.6 9.3 12.45 9.45 11.35 M5.0 8.95 Q3.85 10.9 4.05 11.4 L4.2 11.75 Q4.6 11.8 5.1 10.95 5.6 10.05 5.45 9.6 L5.0 8.95 M11.7 14.3 Q13.15 15.4 13.7 15.0 L13.6 14.95 Q12.9 14.2 12.7 13.2 L12.6 13.15 12.3 13.45 11.7 14.3 M-0.9 7.6 L-0.85 7.45 -1.15 6.95 -1.8 6.6 -3.5 9.05 -3.5 9.55 -2.9 10.0 -1.55 8.9 -1.3 8.6 -0.95 7.65 -0.9 7.6" fill="#333333" fill-rule="evenodd" stroke="none"/>
    <path d="M-13.0 9.95 L-13.45 10.35 Q-12.45 11.5 -12.7 12.25 L-13.4 13.05 -15.3 14.4 -15.1 14.65 -16.55 16.6 -18.0 18.4 -18.5 18.65 Q-18.95 18.65 -19.5 18.2 L-19.7 19.35 Q-20.1 21.15 -20.8 21.85 L-21.1 22.15 Q-20.8 22.95 -21.2 23.35 -22.75 24.8 -22.75 25.9 L-25.1 25.55 -27.2 27.75 Q-26.7 27.65 -26.2 28.0 -25.95 28.55 -26.05 28.8 -26.15 29.35 -26.75 29.85 L-26.85 29.95 Q-26.6 30.8 -27.05 31.6 -27.45 32.3 -28.25 32.85 -30.1 34.65 -31.7 34.4 -31.6 35.1 -32.1 35.95 -32.6 36.75 -33.5 37.35 L-34.4 38.15 Q-34.0 39.25 -34.3 40.25 L-34.3 40.3 -34.4 40.4 -34.8 41.1 -34.8 41.15 -35.4 42.15 -36.1 42.65 Q-33.55 46.65 -34.45 50.7 -35.1 53.8 -37.45 56.1 -40.2 58.95 -43.2 59.8 -47.3 61.0 -52.25 59.0 L-52.8 58.75 -55.35 56.7 -56.0 55.9 -56.15 55.75 -56.8 55.45 Q-57.9 54.85 -58.6 53.8 L-59.35 51.9 -59.35 49.9 -59.8 48.85 -59.8 48.8 Q-60.7 46.75 -60.5 45.75 L-59.75 44.5 Q-59.45 41.9 -58.4 39.95 -57.5 38.35 -56.1 37.4 L-55.35 36.65 Q-52.6 35.25 -51.1 35.2 L-50.2 35.25 Q-46.15 33.7 -41.4 37.15 L-41.35 37.15 -41.25 36.9 -40.7 36.1 -39.65 35.15 -38.9 34.75 -38.55 34.7 -37.75 33.85 Q-36.6 32.7 -35.35 32.3 L-34.5 32.15 Q-35.2 30.55 -33.45 28.9 -32.5 27.85 -31.55 27.45 -32.25 25.45 -30.65 23.95 -29.1 22.35 -27.55 22.8 -27.65 21.65 -26.4 20.35 L-25.45 19.5 Q-25.8 18.4 -25.45 17.55 L-24.5 16.4 -22.8 14.9 -21.75 14.7 -21.6 14.4 -20.7 13.3 -19.7 12.35 -19.95 11.25 Q-20.2 9.95 -19.3 9.05 -18.85 8.55 -18.05 8.35 L-18.2 8.05 -17.2 6.9 Q-16.65 6.4 -16.1 6.1 -17.3 4.15 -15.55 2.45 -14.2 1.15 -13.5 1.05 L-13.0 1.1 Q-14.85 2.45 -14.85 4.4 L-14.35 7.85 Q-13.85 9.15 -13.0 9.95 M-5.65 -49.75 Q-6.3 -48.9 -9.2 -48.9 -11.05 -48.9 -11.45 -50.65 -11.65 -51.5 -11.45 -52.3 -11.45 -55.0 -8.45 -55.15 -5.45 -55.35 -5.45 -52.0 -5.45 -50.1 -5.65 -49.75 M-15.15 11.8 Q-16.8 10.2 -17.35 10.25 L-17.7 10.3 Q-17.85 10.7 -17.15 11.4 -16.45 12.1 -15.95 12.1 L-15.15 11.8 M-23.2 18.6 Q-22.3 18.1 -21.3 18.15 L-21.25 18.05 -21.4 17.7 -22.1 16.9 Q-23.55 18.05 -23.3 18.65 L-23.2 18.6 M-18.7 15.5 L-17.9 14.7 -18.55 14.05 -19.7 15.05 Q-19.6 15.3 -18.7 15.5 M-24.75 22.65 L-24.0 22.95 -23.4 22.4 -24.6 21.4 -25.1 21.95 Q-25.25 22.2 -24.75 22.65 M-32.45 30.7 L-30.9 32.3 -29.1 30.85 -29.0 30.6 -30.35 29.5 -31.15 29.6 -32.35 30.6 -32.45 30.7 M-29.5 25.95 L-28.6 26.1 -27.85 25.3 -29.0 25.45 -29.6 26.0 -29.5 25.95 M-36.5 35.4 L-35.75 36.15 -35.5 36.35 -34.3 35.4 -34.3 34.7 Q-35.45 34.55 -36.5 35.4" fill="#666666" fill-rule="evenodd" stroke="none"/>
    <path d="M36.25 27.7 L36.0 27.6 36.25 27.65 36.25 27.7 M-34.4 40.4 L-34.75 41.05 -34.8 41.1 -34.4 40.4 M-52.25 59.0 L-52.3 59.1 -52.8 58.75 -52.25 59.0 M-55.35 56.7 L-56.1 56.05 -56.0 55.9 -55.35 56.7 M-41.4 37.15 L-41.25 36.9 -41.35 37.15 -41.4 37.15 M-12.1 -60.2 L-11.05 -60.25 -11.05 -60.05 -12.1 -60.2 M-8.85 -0.25 L-9.75 -0.15 -9.45 -0.9 Q-9.15 -1.25 -8.15 -1.25 -7.15 -1.25 -6.95 -0.9 L-7.2 -0.6 Q-7.4 -0.35 -8.2 -0.2 L-8.85 -0.25 M-9.05 -4.15 L-9.95 -4.15 -9.95 -5.25 -8.95 -5.65 -9.05 -4.15 M-8.95 -10.65 L-8.95 -10.75 Q-8.3 -10.45 -8.55 -8.65 L-9.55 -8.75 -9.95 -8.9 -9.95 -9.0 Q-9.25 -9.65 -8.95 -10.65 M-9.95 -14.4 L-9.95 -13.65 -11.45 -13.5 -11.45 -14.25 Q-11.3 -14.6 -10.65 -14.6 L-9.95 -14.4 M-10.45 -19.75 L-9.7 -20.25 -9.7 -20.4 Q-9.5 -20.2 -9.7 -19.55 -9.95 -18.9 -10.45 -18.65 L-10.45 -19.75 M-10.95 -25.75 L-10.95 -25.65 -11.1 -24.0 -11.6 -23.4 -13.3 -23.2 -13.45 -23.5 -13.2 -25.75 -10.95 -25.75 M-12.75 -31.9 L-12.45 -31.9 -11.45 -31.95 Q-11.55 -30.6 -12.45 -29.9 L-12.95 -30.4 -12.75 -31.9 M-36.5 35.4 Q-35.45 34.55 -34.3 34.7 L-34.3 35.4 -35.5 36.35 -35.75 36.15 -36.5 35.4 M-29.5 25.95 L-29.6 26.0 -29.0 25.45 -27.85 25.3 -28.6 26.1 -29.5 25.95 M-32.45 30.7 L-32.35 30.6 -31.15 29.6 -30.35 29.5 -29.0 30.6 -29.1 30.85 -30.9 32.3 -32.45 30.7 M-24.75 22.65 Q-25.25 22.2 -25.1 21.95 L-24.6 21.4 -23.4 22.4 -24.0 22.95 -24.75 22.65 M-18.7 15.5 Q-19.6 15.3 -19.7 15.05 L-18.55 14.05 -17.9 14.7 -18.7 15.5 M-23.2 18.6 L-23.3 18.65 Q-23.55 18.05 -22.1 16.9 L-21.4 17.7 -21.25 18.05 -21.3 18.15 Q-22.3 18.1 -23.2 18.6 M-15.15 11.8 L-15.95 12.1 Q-16.45 12.1 -17.15 11.4 -17.85 10.7 -17.7 10.3 L-17.35 10.25 Q-16.8 10.2 -15.15 11.8 M-12.05 35.8 L-12.45 35.65 -10.55 35.9 -12.05 35.8 M-0.9 7.6 L-0.95 7.65 -1.3 8.6 -1.55 8.9 -2.9 10.0 -3.5 9.55 -3.5 9.05 -1.8 6.6 -1.15 6.95 -0.85 7.45 -0.9 7.6 M11.7 14.3 L12.3 13.45 12.6 13.15 12.7 13.2 Q12.9 14.2 13.6 14.95 L13.7 15.0 Q13.15 15.4 11.7 14.3 M5.0 8.95 L5.45 9.6 Q5.6 10.05 5.1 10.95 4.6 11.8 4.2 11.75 L4.05 11.4 Q3.85 10.9 5.0 8.95 M9.45 11.35 L9.3 12.45 8.05 11.6 8.5 10.8 9.45 11.35 M32.05 21.5 L32.75 21.3 33.95 22.25 33.8 22.5 33.3 23.4 Q32.2 22.65 32.05 21.5 M22.45 19.15 Q22.2 19.2 21.75 18.75 21.25 18.15 21.3 17.65 L22.25 18.2 22.35 19.1 22.45 19.15 M17.9 15.4 Q17.6 15.95 17.35 15.9 L16.7 15.55 17.35 14.15 18.0 14.55 Q18.25 14.85 17.9 15.4 M27.0 17.45 L28.85 18.8 27.7 20.75 27.6 20.7 26.3 19.75 26.0 19.0 26.7 17.4 27.0 17.45" fill="#999999" fill-rule="evenodd" stroke="none"/>
    <path d="M-56.1 56.05 L-56.8 55.45 -56.15 55.75 -56.0 55.9 -56.1 56.05" fill="url(#gradient0)" fill-rule="evenodd" stroke="none"/>
    <path d="M59.95 36.1 L60.05 36.15 58.85 38.3 58.85 38.35 58.55 38.15 58.75 37.55 Q59.65 36.95 59.95 36.1" fill="url(#gradient1)" fill-rule="evenodd" stroke="none"/>
    <path d="M60.05 36.15 L58.85 38.3 58.85 38.35 M-52.3 59.1 L-52.8 58.75 M-56.1 56.05 L-56.8 55.45 M-12.1 -60.2 L-11.05 -60.25" fill="none" stroke="#010101" stroke-linecap="round" stroke-linejoin="round" stroke-opacity="0.0" stroke-width="1.0"/>
  </g>
  <defs>
    <linearGradient gradientTransform="matrix(0.0095, -0.0352, 0.0313, 0.0084, -49.95, -9.15)" gradientUnits="userSpaceOnUse" id="gradient0" spreadMethod="pad" x1="-819.2" x2="819.2">
      <stop offset="0.0" stop-color="#a2a2a2" stop-opacity="0.49803922"/>
      <stop offset="1.0" stop-color="#777777" stop-opacity="0.0"/>
    </linearGradient>
    <linearGradient gradientTransform="matrix(0.0126, 0.0126, -0.0604, 0.0604, 7.25, 19.7)" gradientUnits="userSpaceOnUse" id="gradient1" spreadMethod="pad" x1="-819.2" x2="819.2">
      <stop offset="0.0" stop-color="#626262" stop-opacity="0.49803922"/>
      <stop offset="1.0" stop-color="#b4b3a9" stop-opacity="0.49803922"/>
    </linearGradient>
  </defs>
</svg>
