<?xml version="1.0" encoding="UTF-8" standalone="no"?>
<svg xmlns:ffdec="https://www.free-decompiler.com/flash" xmlns:xlink="http://www.w3.org/1999/xlink" ffdec:objectType="shape" height="225.75px" width="123.5px" xmlns="http://www.w3.org/2000/svg">
  <g transform="matrix(1.0, 0.0, 0.0, 1.0, 43.0, 129.25)">
    <path d="M40.35 -127.75 Q47.45 -126.65 49.2 -125.95 L52.5 -123.85 56.5 -121.95 Q58.65 -120.85 58.95 -119.65 60.6 -119.25 60.65 -116.8 60.65 -112.25 61.0 -111.5 L61.0 -101.2 60.3 -101.15 59.75 -100.8 Q58.5 -99.95 58.5 -99.5 58.5 -97.3 59.5 -92.0 L60.5 -85.25 60.6 -85.25 60.85 -84.8 61.0 -84.9 61.0 -64.05 Q63.4 -64.1 64.25 -61.65 65.6 -57.65 66.0 -57.35 L66.0 -57.25 66.1 -57.25 66.5 -56.5 66.4 -56.45 69.35 -54.2 Q72.4 -51.4 75.05 -50.5 76.55 -51.45 77.55 -49.1 78.5 -46.75 78.5 -43.4 78.5 -36.55 76.0 -34.95 L75.9 -34.25 75.6 -34.0 71.0 -34.0 69.8 -35.15 Q69.25 -35.75 66.0 -35.75 L66.0 -34.85 Q66.0 -31.9 64.6 -29.25 L63.65 -27.7 64.25 -24.35 65.0 -18.75 66.5 -7.85 Q66.95 -3.7 67.75 0.4 L67.0 0.45 66.0 11.8 65.95 13.85 Q66.0 15.1 66.35 16.0 66.9 17.25 68.05 18.0 L68.65 18.4 Q70.5 18.9 71.55 19.45 L72.25 18.95 72.4 19.95 72.5 20.0 72.5 20.5 73.05 24.8 74.0 35.55 Q74.4 39.95 76.3 46.25 L79.25 56.3 79.85 56.25 80.0 57.85 79.95 59.0 80.1 59.25 Q80.5 60.0 80.5 62.0 80.5 63.15 79.5 67.45 L78.5 72.05 Q78.55 75.45 76.2 77.6 L71.5 81.0 Q71.2 81.25 70.5 83.3 L69.25 86.05 Q68.85 86.5 65.4 87.55 62.1 88.6 61.5 89.5 60.05 91.45 52.9 93.75 45.95 96.0 42.0 96.0 40.6 96.0 38.35 95.05 L35.5 93.5 34.65 95.1 34.5 95.3 33.0 96.3 20.75 96.5 14.05 96.3 8.0 95.8 6.25 94.05 3.5 92.0 3.3 93.05 Q3.05 93.5 2.25 93.5 -0.4 93.5 -8.8 89.2 -15.7 85.7 -18.55 83.75 -23.75 80.05 -25.15 78.1 -26.5 76.15 -26.5 72.5 L-26.8 71.15 -27.55 67.25 Q-28.0 65.45 -28.0 59.65 -28.0 48.7 -27.6 44.75 L-27.25 42.2 -27.0 42.35 -27.3 41.35 -29.0 35.5 Q-31.0 29.95 -31.0 24.25 -31.0 20.7 -30.3 19.0 -29.9 18.3 -27.75 17.4 L-27.3 17.25 -28.0 12.8 -29.2 3.0 -28.45 2.95 -28.25 2.55 -26.95 2.6 -26.8 2.0 Q-26.5 0.9 -26.5 -0.6 -26.5 -4.95 -29.0 -10.2 -31.5 -15.45 -31.5 -16.15 L-31.45 -16.7 -31.6 -16.65 -33.0 -26.1 Q-34.15 -33.75 -34.85 -45.35 L-36.0 -65.1 Q-36.65 -76.45 -39.0 -84.6 L-41.0 -93.3 Q-43.0 -102.2 -43.0 -103.9 -43.0 -105.35 -42.35 -105.8 -38.9 -110.9 -30.05 -116.6 -19.7 -123.3 -9.75 -125.25 L-1.0 -127.25 0.95 -127.55 Q0.95 -128.0 2.0 -128.0 L2.55 -127.8 3.95 -128.0 Q4.2 -128.35 4.5 -128.5 L4.75 -128.1 Q12.4 -129.6 25.35 -129.15 36.6 -128.8 40.35 -127.75 M43.35 -125.25 L42.2 -125.35 41.45 -125.45 41.0 -125.5 5.85 -126.35 5.3 -126.3 5.5 -124.5 Q5.5 -121.05 4.0 -120.0 2.75 -120.75 1.85 -122.85 1.2 -124.35 1.05 -125.7 L-0.7 -125.35 -9.1 -123.25 -9.3 -123.15 -16.3 -121.2 -18.0 -120.65 -21.0 -119.6 Q-26.2 -117.25 -30.5 -114.15 L-30.95 -113.85 -30.8 -113.25 -30.5 -110.6 Q-30.45 -110.45 -30.55 -110.3 -30.7 -110.0 -31.5 -110.0 -33.25 -110.0 -33.85 -111.55 L-35.0 -110.55 -40.5 -105.1 -40.4 -105.05 -41.25 -105.0 -41.65 -105.0 -41.6 -104.9 Q-40.55 -101.7 -39.6 -96.1 -38.4 -88.9 -37.5 -86.25 -34.7 -78.15 -34.0 -66.35 L-32.95 -46.6 Q-32.25 -34.9 -31.0 -27.0 L-30.2 -21.55 -29.95 -19.6 -28.9 -20.85 Q-26.35 -23.65 -25.5 -25.0 L-23.2 -22.6 Q-20.5 -20.35 -17.8 -20.35 -17.3 -20.35 -16.45 -21.0 L-14.75 -22.4 -14.5 -22.6 -14.15 -23.05 -14.2 -23.2 -14.4 -24.0 -14.5 -26.0 -14.5 -29.75 -14.45 -34.3 -14.4 -34.85 Q-14.15 -37.05 -13.5 -38.0 -12.75 -36.8 -12.55 -34.0 L-12.5 -30.05 -12.5 -26.85 -12.5 -25.25 -12.5 -24.3 -10.5 -24.95 -10.15 -25.05 -5.95 -25.95 -5.75 -25.95 -5.25 -25.95 -4.5 -25.85 -4.3 -25.75 -4.1 -25.65 -3.75 -24.95 -3.35 -25.05 -3.05 -25.3 -3.15 -25.5 -3.45 -26.8 -3.5 -29.6 -3.4 -33.6 Q-3.15 -35.9 -2.0 -37.0 L-1.9 -36.95 -1.55 -36.8 -1.25 -36.55 Q-1.0 -36.25 -1.0 -35.4 L-1.35 -29.45 -1.45 -26.35 Q-0.05 -27.0 1.6 -26.8 4.25 -26.45 5.0 -24.1 4.85 -22.1 5.1 -21.0 L5.15 -20.85 5.35 -20.4 5.4 -20.4 Q5.85 -19.6 7.05 -19.1 8.05 -18.7 9.5 -18.5 L14.95 -16.6 20.25 -14.75 Q21.15 -14.75 22.1 -15.6 L23.1 -16.25 Q22.65 -17.25 22.5 -19.55 L22.5 -23.8 22.55 -28.15 Q22.75 -30.95 23.5 -31.5 24.85 -29.15 25.05 -24.35 L25.0 -16.6 25.0 -16.3 Q26.2 -15.7 28.0 -13.35 30.45 -10.25 33.25 -10.25 L35.05 -10.55 36.05 -11.0 36.2 -11.1 Q37.65 -12.0 39.75 -12.0 41.15 -12.0 44.9 -8.3 L44.95 -8.25 46.1 -7.1 48.3 -4.8 48.5 -4.6 49.8 -4.85 Q48.8 -6.95 48.75 -10.65 L48.65 -15.25 48.5 -17.5 Q48.1 -20.15 47.75 -24.9 L47.5 -30.25 47.5 -32.15 Q47.6 -33.95 48.5 -34.5 49.65 -33.05 49.8 -29.95 49.7 -26.55 49.85 -25.25 L51.0 -15.85 51.0 -5.3 Q52.75 -6.0 53.75 -6.0 58.65 -6.0 63.0 -3.35 L65.0 -2.05 65.0 -5.25 64.65 -7.7 63.5 -14.7 Q62.0 -23.85 62.0 -26.05 L62.0 -26.25 61.95 -26.2 Q60.65 -25.5 59.0 -25.5 56.7 -25.5 56.15 -26.3 56.0 -26.5 56.0 -27.25 L56.1 -28.25 Q60.85 -26.95 62.7 -30.35 63.6 -32.0 63.75 -34.5 L63.0 -34.0 62.35 -34.15 61.5 -34.0 Q59.2 -34.0 58.1 -36.3 57.6 -37.45 57.5 -38.75 57.5 -39.55 57.8 -39.8 L58.5 -40.0 59.35 -38.75 59.9 -37.75 59.95 -37.65 Q60.8 -36.15 62.05 -35.8 62.25 -37.0 63.1 -37.5 L67.1 -37.65 70.9 -36.65 71.1 -36.55 71.0 -36.95 Q70.7 -38.2 71.0 -39.55 L71.0 -39.65 71.0 -39.8 71.0 -39.9 71.05 -41.3 71.05 -41.35 Q71.15 -43.35 71.5 -44.75 72.05 -47.0 73.35 -48.8 72.15 -49.25 70.7 -50.45 68.8 -52.05 68.5 -52.6 68.15 -53.0 65.8 -54.2 64.5 -54.85 64.15 -55.6 62.4 -54.85 61.55 -53.85 60.55 -52.25 59.5 -51.5 58.5 -52.65 58.5 -53.05 58.5 -54.8 60.25 -56.2 61.45 -57.15 63.05 -57.35 L62.45 -58.6 61.5 -61.85 60.15 -61.55 60.0 -61.5 Q58.0 -60.9 56.8 -59.55 55.4 -57.6 54.5 -57.0 L53.65 -57.2 Q53.5 -57.3 53.5 -58.15 53.5 -59.95 59.2 -63.5 58.6 -65.6 58.45 -68.2 L58.5 -75.25 58.5 -83.15 51.75 -82.5 50.45 -82.55 49.1 -82.85 49.05 -82.85 49.0 -82.85 49.0 -82.6 48.7 -79.35 48.0 -75.1 48.15 -71.55 Q48.15 -69.1 46.5 -68.0 L45.75 -68.1 Q45.5 -68.2 45.5 -69.0 45.5 -71.6 46.45 -76.95 47.0 -80.3 46.9 -84.15 L46.9 -84.85 46.75 -84.8 Q45.75 -84.55 43.45 -82.65 L42.5 -81.9 Q40.6 -80.5 39.75 -80.5 37.75 -80.5 36.05 -82.4 L34.1 -84.25 33.75 -84.35 Q32.1 -84.35 31.45 -82.5 L31.0 -80.1 30.75 -79.25 30.8 -78.9 31.0 -77.0 30.35 -53.35 29.5 -53.0 Q28.35 -54.0 28.35 -55.65 L28.5 -58.5 Q28.4 -59.4 28.45 -61.1 L28.5 -63.55 28.5 -76.9 27.7 -76.7 Q26.2 -76.45 22.7 -77.4 L22.5 -77.45 22.3 -77.5 Q18.45 -78.55 16.8 -78.55 L16.35 -78.5 16.25 -78.5 16.2 -78.5 15.1 -78.3 Q13.2 -77.8 12.0 -76.1 L9.8 -73.8 Q8.5 -72.5 8.5 -71.6 8.5 -70.45 8.05 -69.55 L7.7 -68.95 7.85 -68.05 8.5 -62.85 8.5 -59.5 8.25 -59.35 8.1 -59.3 7.5 -59.0 Q6.2 -60.05 6.0 -61.5 L6.0 -64.5 5.5 -67.2 5.15 -68.75 2.55 -69.6 2.2 -69.7 Q-0.55 -70.7 -5.5 -70.75 L-6.15 -70.75 -10.35 -70.5 Q-13.45 -70.1 -15.7 -69.1 L-16.95 -68.5 -18.75 -67.5 -19.55 -67.75 -19.75 -67.65 Q-20.0 -67.7 -20.0 -68.5 -20.0 -69.2 -18.7 -72.85 -19.5 -74.5 -19.4 -77.45 -19.25 -81.05 -19.8 -82.5 L-22.2 -87.85 Q-24.0 -91.95 -24.0 -92.4 -24.0 -94.65 -22.6 -93.25 -21.5 -92.15 -20.75 -90.3 L-20.5 -89.5 Q-20.2 -88.3 -19.3 -86.4 L-17.5 -83.1 -17.5 -76.25 -16.0 -79.75 -14.1 -82.75 Q-10.35 -88.15 -6.05 -90.25 -4.05 -91.2 -0.85 -91.4 L-0.6 -91.4 0.1 -91.45 0.1 -91.5 2.05 -92.05 Q2.15 -93.25 2.95 -96.25 L4.0 -100.85 4.4 -105.95 4.5 -108.6 4.5 -109.0 4.5 -109.1 4.5 -109.25 4.5 -109.35 Q5.9 -108.85 6.3 -107.5 L6.5 -105.1 Q6.5 -103.9 5.2 -97.6 L4.9 -96.05 6.2 -98.0 Q7.4 -99.8 8.5 -100.35 12.3 -102.4 16.7 -102.35 L26.5 -102.0 Q29.1 -102.0 29.5 -102.5 L29.75 -103.6 Q32.35 -108.75 37.55 -107.95 39.55 -107.65 41.35 -106.75 L42.5 -106.1 43.5 -106.5 43.5 -106.75 44.1 -110.0 Q44.7 -112.1 45.75 -113.15 L45.75 -113.1 46.35 -113.65 46.55 -113.75 46.75 -113.85 47.0 -114.0 47.75 -113.85 48.0 -113.0 46.75 -109.55 46.3 -108.35 46.2 -108.0 46.65 -108.3 Q50.5 -110.35 52.5 -109.5 L52.6 -109.45 53.0 -109.15 57.0 -106.25 58.95 -104.75 58.5 -111.15 58.0 -116.85 58.0 -118.0 Q57.9 -118.0 52.45 -121.55 L51.0 -122.5 50.85 -122.6 50.8 -122.6 49.3 -123.35 48.0 -124.0 48.0 -123.4 48.0 -123.3 47.9 -121.05 Q47.75 -120.4 46.6 -118.75 46.5 -118.6 46.0 -118.5 L45.15 -118.7 Q45.0 -118.8 45.0 -119.65 45.0 -120.25 45.55 -121.5 46.05 -122.65 46.0 -123.25 45.9 -123.75 46.15 -124.6 L46.2 -124.75 43.35 -125.25 M57.1 -102.55 L57.8 -102.8 55.8 -104.6 Q52.4 -107.75 50.25 -107.75 47.95 -107.75 45.6 -105.6 L45.5 -105.5 Q43.25 -103.5 42.25 -103.5 41.25 -103.5 40.95 -104.1 40.65 -104.75 36.25 -104.75 31.9 -104.75 31.2 -102.85 L30.8 -101.25 Q30.55 -100.3 29.75 -99.85 28.9 -99.4 19.8 -99.8 11.35 -100.15 8.85 -97.6 L5.65 -93.2 3.75 -90.85 1.5 -89.0 -2.75 -88.9 Q-5.3 -89.45 -7.8 -87.0 L-9.75 -84.75 -11.4 -82.25 -13.05 -80.25 Q-14.45 -78.65 -15.2 -75.95 -16.0 -73.1 -16.55 -71.8 L-16.8 -71.25 -15.85 -71.55 Q-15.35 -71.75 -14.6 -72.05 L-13.55 -72.35 -13.15 -72.45 -12.9 -72.5 -9.1 -72.95 -7.55 -73.0 -6.25 -73.0 Q-0.75 -73.0 1.45 -72.2 L1.8 -72.05 Q2.55 -71.7 3.45 -71.5 L5.35 -71.25 5.4 -71.25 5.5 -71.25 6.5 -71.25 Q6.5 -72.0 6.85 -72.9 L8.35 -75.75 Q10.0 -78.15 11.5 -79.35 L20.15 -79.7 22.4 -79.75 22.6 -79.75 28.5 -80.0 28.75 -80.1 28.85 -80.3 29.0 -81.25 29.85 -83.1 Q31.1 -86.5 33.25 -86.5 34.5 -86.5 36.6 -84.6 38.7 -82.75 39.3 -82.75 L42.6 -84.85 Q45.65 -87.0 46.5 -87.0 L47.55 -86.9 48.85 -86.75 48.95 -86.05 48.95 -86.0 50.0 -84.85 Q52.0 -84.4 55.15 -84.9 L57.8 -85.3 57.6 -86.85 57.6 -86.9 57.6 -87.05 57.6 -87.5 57.5 -91.3 57.5 -91.5 56.95 -96.05 56.65 -98.05 56.5 -99.55 Q56.5 -101.95 56.85 -102.35 L57.1 -102.55 M64.25 3.5 Q64.45 1.85 64.9 0.65 L61.0 -1.35 Q56.1 -3.75 53.75 -3.75 L51.15 -3.1 48.5 -2.5 Q46.85 -2.5 44.1 -6.15 41.35 -9.85 40.25 -9.85 37.95 -9.85 36.15 -8.9 34.35 -8.0 33.0 -8.0 31.25 -8.0 28.1 -10.6 25.25 -13.0 24.85 -14.25 L23.1 -13.0 Q22.45 -12.5 20.5 -12.5 19.05 -12.5 12.3 -14.55 5.2 -16.65 4.5 -17.6 4.35 -17.8 3.35 -21.75 2.6 -24.75 0.75 -24.75 -1.2 -24.75 -1.6 -24.05 L-2.5 -22.6 Q-4.65 -20.8 -5.95 -21.1 -6.65 -21.3 -7.7 -22.6 L-7.8 -22.75 -7.85 -22.85 -8.7 -23.55 -9.2 -23.7 -9.45 -23.7 Q-10.75 -23.55 -13.05 -21.0 L-14.05 -19.9 -15.6 -18.45 -15.85 -18.3 -16.15 -18.15 -17.75 -18.0 Q-19.5 -18.0 -22.2 -19.65 L-25.55 -21.6 -28.15 -18.75 -29.2 -17.6 -29.3 -17.1 -29.5 -15.85 Q-29.5 -15.35 -27.85 -12.3 L-27.2 -11.1 -25.75 -8.0 Q-25.3 -6.7 -24.95 -4.5 L-24.85 -3.95 -24.5 -1.1 -24.5 -0.55 -24.8 1.65 -25.2 3.8 -24.25 5.2 -21.8 10.25 Q-21.75 11.1 -21.15 11.35 L-17.5 11.6 -16.85 11.6 -15.0 11.5 -11.05 11.8 -5.0 13.0 Q-2.3 13.5 -2.05 14.8 L-1.75 17.3 Q3.1 16.9 9.55 17.0 L20.85 17.25 Q21.65 15.0 22.75 15.0 23.2 15.0 25.25 17.9 L25.6 18.35 25.85 18.7 26.75 19.9 27.75 20.8 29.85 20.65 44.5 20.25 Q44.5 19.85 44.85 19.05 45.5 18.0 46.75 18.0 48.1 18.0 49.05 19.15 L49.5 19.65 49.75 19.65 50.0 20.15 50.25 20.3 61.25 17.0 64.3 17.45 64.0 16.05 64.0 13.5 64.0 11.7 64.0 11.55 64.0 11.05 64.0 10.9 64.0 10.75 64.0 10.6 64.0 10.45 64.05 7.2 64.1 4.6 64.25 3.5 M75.6 -47.7 L75.25 -48.0 Q74.15 -46.9 73.75 -45.25 L73.7 -45.15 73.0 -42.35 73.0 -37.1 73.15 -36.9 74.25 -36.75 Q76.15 -36.75 76.5 -39.95 76.7 -41.55 76.5 -43.3 76.5 -46.65 75.6 -47.7 M64.85 19.65 L63.6 19.55 63.0 19.5 62.75 19.5 62.55 19.5 62.3 19.5 62.0 19.5 54.5 21.6 51.25 22.5 49.55 22.3 49.5 22.4 49.0 24.2 49.0 24.25 Q49.0 24.95 49.5 27.05 L50.25 30.55 50.55 33.65 Q50.7 35.65 51.0 37.0 L50.0 38.0 Q48.25 36.9 48.25 34.55 48.5 32.0 48.25 31.0 47.0 26.5 47.0 24.35 L47.1 21.7 47.4 20.9 46.6 20.25 46.5 21.0 46.25 22.05 28.5 23.0 Q27.3 23.0 26.2 22.4 25.25 21.85 24.4 20.85 L23.9 20.15 23.05 18.55 23.0 18.5 22.65 18.75 22.7 18.85 22.75 18.95 22.85 19.1 23.25 19.9 23.3 20.05 24.15 22.7 24.9 26.95 Q25.6 33.6 26.5 36.0 26.2 36.65 25.7 36.9 L25.5 37.0 Q23.3 35.25 23.2 32.55 L23.0 28.05 22.1 23.9 21.5 19.6 21.5 19.5 Q13.5 19.85 9.35 19.5 L9.5 19.5 6.35 19.4 -2.25 19.25 -2.8 19.15 -1.95 22.45 -1.3 25.6 Q-0.05 31.6 1.65 34.7 L2.0 35.3 1.75 36.05 Q2.25 36.5 1.0 36.5 -1.05 36.5 -3.25 27.25 L-5.0 18.0 Q-5.0 17.1 -4.7 16.55 L-4.65 16.5 -4.55 16.35 -4.3 16.15 -4.25 16.1 -4.45 15.85 -4.5 15.8 Q-6.1 14.65 -14.0 14.1 L-14.4 14.1 -14.75 14.05 -22.0 13.3 Q-23.5 11.85 -26.85 6.45 L-26.0 12.75 -25.2 17.2 Q-24.75 17.45 -24.5 18.0 L-24.95 18.35 -24.9 18.65 -25.35 18.55 -27.0 19.25 Q-28.8 20.1 -29.0 21.25 L-29.05 22.75 -29.0 24.35 Q-29.0 28.25 -26.85 35.65 L-24.0 46.0 Q-24.1 46.7 -25.0 47.0 L-25.4 46.25 -25.5 47.5 Q-25.5 51.25 -26.0 59.5 L-25.9 64.25 Q-25.7 66.3 -24.5 70.3 L-24.5 72.0 -24.5 72.35 -24.5 72.5 Q-24.3 82.2 1.3 90.75 1.95 90.75 2.4 90.15 2.9 89.5 3.5 89.5 L5.0 89.9 Q5.1 88.45 6.0 86.3 L5.95 85.4 5.5 85.8 4.25 86.5 2.3 84.6 Q0.35 82.65 -0.75 82.55 L-6.65 82.05 -8.55 81.75 Q-9.3 80.8 -9.8 80.55 L-14.0 79.0 Q-16.7 77.9 -19.75 74.0 L-20.0 78.0 Q-20.25 78.0 -21.0 78.5 -21.5 77.85 -21.8 76.55 L-22.0 75.0 Q-22.0 70.5 -21.55 69.0 -21.25 67.85 -20.65 67.15 -19.85 66.15 -18.5 66.05 L-18.25 65.4 -18.15 65.35 Q-16.3 64.6 -11.5 64.25 L-11.05 62.5 -10.95 61.8 -10.9 61.55 -10.75 60.8 Q-10.45 59.9 -8.95 59.3 L-6.55 58.7 -2.3 58.25 0.3 57.3 Q3.0 56.55 6.3 56.5 L6.75 56.5 Q8.4 56.5 8.85 57.65 L9.5 59.25 12.65 58.45 24.0 55.75 23.75 54.7 23.5 53.25 Q23.5 51.95 23.9 51.75 L26.5 51.5 27.45 51.55 Q30.6 51.6 31.6 52.45 33.15 53.7 34.4 54.15 L34.7 54.25 34.75 54.25 38.3 54.75 Q41.45 55.35 43.0 56.5 44.5 53.85 48.25 53.3 L54.5 52.25 Q54.65 51.75 53.9 50.3 53.05 48.7 53.0 48.05 L55.45 47.9 Q56.8 48.1 58.7 48.85 L59.65 49.2 Q62.3 50.25 66.0 52.0 L66.1 52.05 66.2 52.1 67.65 52.7 68.5 53.05 73.0 54.55 Q76.05 55.7 77.6 56.85 L77.75 56.75 77.95 56.7 Q75.3 50.7 74.15 47.4 72.05 41.25 72.0 36.75 71.8 28.25 70.65 21.35 L68.4 20.5 68.3 20.45 67.75 20.5 Q66.5 20.5 65.65 19.8 L64.85 19.65 M76.1 63.0 L76.25 62.65 76.4 62.15 77.3 60.05 76.5 58.85 Q62.0 52.5 56.1 50.25 57.0 51.95 57.0 53.0 57.0 54.3 55.55 54.65 L47.25 56.25 Q45.5 56.65 44.4 58.2 43.35 59.75 42.0 60.0 41.3 59.1 41.2 58.35 L41.0 57.25 Q35.3 56.9 32.3 55.5 30.05 54.05 28.75 53.75 L25.85 53.75 26.0 55.15 Q26.0 56.9 25.4 57.4 24.25 58.4 19.75 58.75 L14.8 60.15 9.25 61.5 Q7.35 61.5 7.25 60.5 7.1 59.1 6.6 58.75 L-4.65 60.65 Q-8.6 61.5 -9.25 64.0 -10.1 67.35 -10.75 67.05 -12.95 65.95 -16.0 67.0 L-16.7 67.25 -17.75 68.0 Q-18.65 68.6 -19.1 70.2 L-18.95 70.5 -18.6 71.0 -18.45 71.25 -18.25 71.55 Q-16.45 74.5 -14.4 76.25 L-14.0 76.55 -10.15 78.8 Q-7.45 80.1 -6.3 80.25 2.45 81.25 3.25 81.95 L3.45 82.6 Q3.55 83.1 4.5 83.5 L5.65 82.1 Q6.6 81.0 7.25 81.0 8.35 81.0 8.8 82.85 L9.0 84.8 18.35 84.3 Q24.35 83.4 27.6 85.25 L32.0 85.25 32.0 81.8 32.25 81.65 33.25 81.5 Q33.65 81.5 35.25 83.65 36.9 85.75 37.85 85.75 38.2 85.75 41.5 83.8 46.8 81.8 56.85 81.75 63.95 81.75 63.5 75.8 64.4 75.35 67.1 76.25 L69.5 76.25 Q69.15 75.2 70.15 74.35 L72.35 72.05 73.5 69.6 74.5 67.25 76.1 63.0 M7.4 88.4 L6.2 91.2 6.75 91.8 9.0 94.0 21.0 94.25 33.35 94.7 Q32.8 94.15 33.35 93.05 L33.5 92.3 34.0 91.6 33.6 90.1 33.5 87.3 30.0 87.5 8.0 86.8 7.4 88.4 M36.0 91.1 Q36.8 91.35 38.35 92.4 40.5 93.75 42.25 93.75 52.4 92.5 56.6 90.3 58.2 89.5 59.0 88.4 L60.35 86.75 61.45 86.15 Q61.0 85.3 61.0 84.25 L61.1 83.25 57.6 83.75 Q46.85 84.45 41.8 86.3 38.8 88.0 37.5 88.0 L35.85 87.65 36.0 90.65 36.0 91.1 M77.75 66.5 L78.1 65.15 77.4 66.35 Q76.05 68.8 75.5 70.3 74.35 73.45 72.6 75.25 71.7 76.15 71.55 77.65 L71.4 78.75 Q73.5 77.85 75.05 75.7 76.85 73.1 76.5 71.0 L77.75 66.5 M69.15 78.75 Q69.35 77.7 65.5 78.25 64.95 79.45 64.15 81.7 63.7 82.25 62.85 82.65 L63.0 84.1 62.95 85.7 64.5 85.4 Q67.3 84.9 68.0 83.55 L69.25 79.6 Q69.05 79.3 69.15 78.75" fill="#000000" fill-rule="evenodd" stroke="none"/>
    <path d="M4.0 -120.0 Q5.5 -121.05 5.5 -124.5 L5.3 -126.3 5.85 -126.35 41.0 -125.5 41.45 -125.45 42.2 -125.35 43.35 -125.25 44.35 -125.1 43.85 -122.0 42.85 -116.35 Q43.0 -112.6 42.75 -110.35 42.45 -107.75 41.35 -106.75 39.55 -107.65 37.55 -107.95 32.35 -108.75 29.75 -103.6 L29.5 -102.5 Q29.1 -102.0 26.5 -102.0 L16.7 -102.35 Q12.3 -102.4 8.5 -100.35 7.4 -99.8 6.2 -98.0 L4.9 -96.05 5.2 -97.6 Q6.5 -103.9 6.5 -105.1 L6.3 -107.5 Q5.9 -108.85 4.5 -109.35 L4.5 -109.25 4.5 -109.1 4.5 -109.0 4.5 -108.6 4.4 -105.95 4.0 -109.75 4.0 -120.0 M46.0 -118.5 Q46.5 -118.6 46.6 -118.75 47.75 -120.4 47.9 -121.05 L48.0 -123.3 48.0 -123.4 48.25 -123.5 48.65 -123.65 49.3 -123.35 50.8 -122.6 50.85 -122.6 51.0 -122.5 52.45 -121.55 52.6 -121.0 Q53.05 -119.65 53.05 -117.1 L53.0 -113.85 53.0 -109.15 52.6 -109.45 52.5 -109.5 Q50.5 -110.35 46.65 -108.3 L46.3 -108.35 46.75 -109.55 48.0 -113.0 47.75 -113.85 47.0 -114.0 46.75 -113.85 46.55 -113.75 46.35 -113.65 45.75 -113.1 45.75 -113.15 45.75 -113.4 46.0 -117.25 45.95 -118.5 46.0 -118.5 M-0.7 -125.35 Q-0.2 -122.75 0.0 -118.85 L0.0 -105.75 0.1 -101.9 0.0 -96.75 Q0.3 -94.1 0.2 -92.6 L0.1 -91.5 0.1 -91.45 -0.6 -91.4 -0.85 -91.4 Q-4.05 -91.2 -6.05 -90.25 -10.35 -88.15 -14.1 -82.75 -16.15 -86.5 -17.55 -97.9 -18.6 -106.4 -19.0 -115.0 L-18.45 -118.2 -18.0 -120.65 -16.3 -121.2 -9.3 -123.15 -9.1 -123.25 -0.7 -125.35 M46.9 -84.15 Q47.0 -80.3 46.45 -76.95 45.5 -71.6 45.5 -69.0 45.5 -68.2 45.75 -68.1 L46.5 -68.0 Q48.15 -69.1 48.15 -71.55 L48.0 -75.1 48.7 -79.35 49.0 -82.6 49.05 -82.85 49.1 -82.85 50.45 -82.55 50.7 -80.6 Q50.4 -77.55 50.5 -76.1 L50.55 -71.95 50.5 -67.5 50.55 -58.85 Q50.6 -53.9 51.0 -50.25 L51.65 -41.6 52.25 -33.0 Q52.35 -31.6 53.05 -28.9 L54.25 -24.35 Q54.6 -22.75 54.6 -19.65 L54.5 -15.9 54.5 -9.35 54.4 -8.5 54.0 -8.65 55.0 -8.25 Q55.55 -8.6 56.05 -9.7 56.45 -10.5 57.25 -10.5 L59.15 -10.05 61.35 -9.1 63.0 -8.55 64.65 -7.7 65.0 -5.25 65.0 -2.05 63.0 -3.35 Q58.65 -6.0 53.75 -6.0 52.75 -6.0 51.0 -5.3 L51.0 -15.85 49.85 -25.25 Q49.7 -26.55 49.8 -29.95 49.65 -33.05 48.5 -34.5 47.6 -33.95 47.5 -32.15 L47.5 -30.25 47.75 -24.9 Q48.1 -20.15 48.5 -17.5 L48.65 -15.25 48.75 -10.65 Q48.8 -6.95 49.8 -4.85 L48.5 -4.6 48.3 -4.8 46.1 -7.1 45.35 -7.85 45.35 -7.9 45.2 -8.05 44.95 -8.25 44.9 -8.3 Q41.15 -12.0 39.75 -12.0 37.65 -12.0 36.2 -11.1 L36.05 -11.0 35.6 -11.0 35.05 -10.55 33.25 -10.25 Q30.45 -10.25 28.0 -13.35 26.2 -15.7 25.0 -16.3 L25.0 -16.6 25.05 -24.35 Q24.85 -29.15 23.5 -31.5 22.75 -30.95 22.55 -28.15 L22.5 -23.8 22.5 -19.55 Q22.65 -17.25 23.1 -16.25 L22.1 -15.6 Q21.15 -14.75 20.25 -14.75 L14.95 -16.6 9.5 -18.5 Q8.05 -18.7 7.05 -19.1 5.85 -19.6 5.4 -20.4 L5.35 -20.4 5.15 -20.85 5.1 -21.0 Q4.85 -22.1 5.0 -24.1 4.25 -26.45 1.6 -26.8 -0.05 -27.0 -1.45 -26.35 L-1.35 -29.45 1.35 -31.25 2.95 -32.45 Q4.0 -33.5 4.0 -34.75 L4.0 -42.25 Q4.0 -49.9 3.0 -57.7 2.0 -65.45 2.0 -68.1 L2.2 -69.7 2.55 -69.6 5.15 -68.75 5.5 -67.2 6.0 -64.5 6.0 -61.5 Q6.2 -60.05 7.5 -59.0 L8.1 -59.3 8.25 -59.35 8.25 -59.1 9.35 -47.85 Q10.0 -43.05 10.0 -36.8 L10.1 -34.3 10.0 -31.35 Q9.85 -30.2 9.15 -28.7 8.5 -27.3 8.5 -26.65 8.5 -23.35 9.85 -23.1 L14.05 -22.15 14.0 -23.5 13.45 -27.0 13.1 -30.6 Q12.5 -36.0 12.5 -44.3 12.5 -49.6 13.45 -62.7 14.15 -72.3 14.15 -77.95 L15.1 -78.3 16.2 -78.5 16.25 -78.5 16.35 -78.5 16.8 -78.55 Q18.45 -78.55 22.3 -77.5 L22.5 -77.0 22.7 -77.4 Q26.2 -76.45 27.7 -76.7 L28.5 -76.9 28.5 -63.55 28.45 -61.1 Q28.4 -59.4 28.5 -58.5 L28.35 -55.65 Q28.35 -54.0 29.5 -53.0 L29.5 -51.1 Q29.5 -42.0 29.1 -35.0 L29.3 -26.2 29.3 -24.75 Q29.7 -22.85 30.85 -20.95 L31.95 -19.35 32.0 -20.1 32.0 -40.35 32.25 -58.1 32.5 -76.9 Q32.5 -78.1 33.45 -81.85 L34.1 -84.25 36.05 -82.4 Q37.75 -80.5 39.75 -80.5 40.6 -80.5 42.5 -81.9 L43.45 -82.65 Q45.75 -84.55 46.75 -84.8 L46.9 -84.15 M71.05 -41.35 L71.05 -41.3 71.0 -39.9 71.0 -39.8 71.0 -39.65 71.0 -39.55 Q70.7 -38.2 71.0 -36.95 L70.9 -36.65 67.1 -37.65 63.1 -37.5 Q62.25 -37.0 62.05 -35.8 60.8 -36.15 59.95 -37.65 L59.9 -37.75 59.35 -38.75 59.25 -39.15 Q58.95 -40.95 59.0 -42.85 L59.05 -45.9 Q59.4 -48.0 60.75 -48.85 61.35 -49.2 62.9 -49.35 L65.1 -49.75 66.2 -49.6 Q67.15 -49.35 68.0 -48.75 69.25 -47.75 70.15 -46.1 71.1 -44.35 71.0 -43.0 70.9 -42.05 71.05 -41.35 M-1.55 -36.8 L-1.9 -36.95 -2.0 -37.0 Q-3.15 -35.9 -3.4 -33.6 L-3.5 -29.6 -3.45 -26.8 -3.15 -25.5 -3.35 -25.05 -3.75 -24.95 -4.1 -25.65 -4.3 -25.75 -4.5 -25.85 -5.25 -25.95 -5.75 -25.95 -5.95 -25.95 -10.15 -25.05 -10.5 -24.95 -12.5 -25.25 -12.5 -26.85 -12.5 -27.85 -11.25 -28.15 Q-8.6 -28.6 -9.0 -32.0 -9.15 -33.85 -8.75 -38.0 -8.75 -40.1 -10.0 -45.5 -11.15 -50.6 -11.0 -53.0 -10.75 -55.95 -11.35 -61.55 L-12.0 -67.4 -11.7 -68.7 -10.35 -70.5 -6.15 -70.75 -5.5 -70.75 -4.85 -70.7 -3.8 -70.3 Q-3.0 -69.85 -3.0 -68.85 L-3.0 -57.25 Q-2.9 -50.8 -2.15 -44.8 -1.65 -40.7 -1.55 -36.8 M-14.4 -34.85 L-14.45 -34.3 -14.5 -29.75 -14.5 -26.0 -14.4 -24.0 -14.2 -23.2 -14.65 -22.45 -14.75 -22.4 -16.45 -21.0 Q-17.3 -20.35 -17.8 -20.35 -20.5 -20.35 -23.2 -22.6 L-25.5 -25.0 Q-26.35 -23.65 -28.9 -20.85 L-29.95 -19.6 -30.2 -21.55 -29.55 -23.6 Q-28.2 -27.0 -25.75 -27.0 -22.6 -27.0 -22.05 -26.35 -21.65 -25.2 -20.55 -24.1 L-20.25 -27.2 -20.0 -30.05 -21.0 -38.5 -22.0 -40.05 Q-23.0 -41.15 -23.0 -42.35 L-23.0 -46.1 -23.45 -54.2 Q-23.85 -59.25 -23.5 -62.25 -22.75 -68.1 -25.1 -78.2 -28.0 -90.45 -28.25 -94.0 L-29.5 -94.0 Q-29.5 -91.6 -30.05 -90.25 L-30.05 -90.1 -31.0 -90.0 Q-32.65 -90.0 -34.0 -100.4 L-35.0 -110.5 -35.0 -110.55 -33.85 -111.55 Q-33.25 -110.0 -31.5 -110.0 -30.7 -110.0 -30.55 -110.3 -30.45 -110.45 -30.5 -110.6 L-30.8 -113.25 -30.95 -113.85 -30.5 -114.15 -30.2 -114.35 Q-29.35 -114.1 -29.5 -112.35 -29.5 -109.15 -28.55 -104.1 -28.25 -102.5 -27.5 -102.25 L-25.25 -101.35 Q-24.55 -100.9 -24.0 -99.7 L-23.0 -97.25 Q-22.15 -95.4 -21.45 -93.0 L-20.75 -90.3 Q-21.5 -92.15 -22.6 -93.25 -24.0 -94.65 -24.0 -92.4 -24.0 -91.95 -22.2 -87.85 L-19.8 -82.5 Q-19.25 -81.05 -19.4 -77.45 -19.5 -74.5 -18.7 -72.85 -20.0 -69.2 -20.0 -68.5 -20.0 -67.7 -19.75 -67.65 L-19.55 -67.75 -18.75 -67.5 -16.95 -68.5 Q-16.5 -66.05 -16.5 -64.75 L-16.9 -60.35 -17.3 -57.05 -16.15 -49.65 Q-15.0 -42.9 -15.0 -41.1 L-14.4 -34.85 M64.85 19.65 L64.85 22.55 Q65.35 26.1 66.75 32.75 69.5 50.75 69.5 52.75 L69.5 53.4 68.5 53.05 67.65 52.7 66.2 52.1 66.1 52.05 66.0 52.0 Q62.3 50.25 59.65 49.2 L58.7 48.85 58.25 47.25 Q56.45 41.4 56.0 37.8 L54.55 27.45 54.5 21.6 62.0 19.5 62.3 19.5 62.55 19.5 62.75 19.5 63.0 19.5 63.6 19.55 64.85 19.65 M26.2 22.4 Q27.3 23.0 28.5 23.0 L46.25 22.05 46.5 21.0 46.6 20.25 47.4 20.9 47.1 21.7 47.0 24.35 Q47.0 26.5 48.25 31.0 48.5 32.0 48.25 34.55 48.25 36.9 50.0 38.0 L51.0 37.0 Q50.7 35.65 50.55 33.65 L50.25 30.55 49.5 27.05 Q49.0 24.95 49.0 24.25 L49.0 24.2 49.05 23.85 50.0 26.8 53.05 38.0 55.45 47.9 53.0 48.05 Q53.05 48.7 53.9 50.3 54.65 51.75 54.5 52.25 L48.25 53.3 Q44.5 53.85 43.0 56.5 41.45 55.35 38.3 54.75 L34.75 54.25 34.7 54.25 34.4 54.15 33.55 53.75 33.25 52.3 Q32.95 50.4 31.65 46.65 30.3 42.85 30.0 41.05 L27.6 30.5 Q26.55 25.8 26.2 22.4 M22.65 18.75 L23.05 18.55 23.9 20.15 24.35 23.4 24.15 22.7 23.3 20.05 23.25 19.9 22.85 19.1 22.75 18.95 22.7 18.85 22.65 18.75 M6.35 19.4 L9.5 19.5 9.35 19.5 Q13.5 19.85 21.5 19.5 L21.5 19.6 22.1 23.9 23.0 28.05 23.2 32.55 Q23.3 35.25 25.5 37.0 L25.7 36.9 27.45 51.55 26.5 51.5 23.9 51.75 Q23.5 51.95 23.5 53.25 L23.75 54.7 24.0 55.75 12.65 58.45 11.85 56.75 Q10.85 54.9 10.6 54.05 8.6 47.55 8.25 44.3 L6.85 34.6 Q6.0 28.5 6.0 24.6 L5.95 22.15 Q5.95 20.45 6.25 19.55 L6.35 19.4 M-1.95 22.45 Q-0.9 23.55 -0.35 25.45 L0.35 29.0 1.65 34.7 Q-0.05 31.6 -1.3 25.6 L-1.95 22.45 M1.75 36.05 L1.9 35.7 Q5.5 51.8 6.3 56.5 3.0 56.55 0.3 57.3 L-2.3 58.25 -6.55 58.7 -8.95 59.3 -9.0 58.75 -9.55 52.75 Q-10.45 43.9 -11.05 40.75 L-13.95 28.25 Q-15.5 21.7 -15.5 16.85 -15.5 15.5 -14.75 14.05 L-14.4 14.1 -14.0 14.1 Q-6.1 14.65 -4.5 15.8 L-4.45 15.85 -4.35 15.95 -4.3 16.15 -4.55 16.35 -4.65 16.5 -4.7 16.55 Q-5.0 17.1 -5.0 18.0 L-3.25 27.25 Q-1.05 36.5 1.0 36.5 2.25 36.5 1.75 36.05 M-20.65 67.15 L-21.0 66.25 Q-21.5 64.8 -21.5 63.3 L-21.5 57.3 Q-21.35 55.05 -21.65 50.65 L-22.0 45.85 -21.5 43.55 Q-21.05 41.9 -21.05 41.25 L-21.5 35.7 -22.0 30.1 Q-22.0 25.35 -21.05 24.0 -19.0 21.15 -18.25 28.25 L-17.0 34.55 -15.8 41.0 -12.65 53.5 Q-11.4 58.05 -10.9 61.55 L-10.95 61.8 -11.05 62.5 -11.5 64.25 Q-16.3 64.6 -18.15 65.35 L-18.25 65.4 -18.5 66.05 Q-19.85 66.15 -20.65 67.15" fill="#221c1f" fill-rule="evenodd" stroke="none"/>
    <path d="M4.0 -120.0 L4.0 -109.75 4.4 -105.95 4.0 -100.85 2.95 -96.25 Q2.15 -93.25 2.05 -92.05 L0.1 -91.5 0.2 -92.6 Q0.3 -94.1 0.0 -96.75 L0.1 -101.9 0.0 -105.75 0.0 -118.85 Q-0.2 -122.75 -0.7 -125.35 L1.05 -125.7 Q1.2 -124.35 1.85 -122.85 2.75 -120.75 4.0 -120.0 M41.35 -106.75 Q42.45 -107.75 42.75 -110.35 43.0 -112.6 42.85 -116.35 L43.85 -122.0 44.35 -125.1 43.35 -125.25 46.2 -124.75 46.15 -124.6 Q45.9 -123.75 46.0 -123.25 46.05 -122.65 45.55 -121.5 45.0 -120.25 45.0 -119.65 45.0 -118.8 45.15 -118.7 L46.0 -118.5 45.95 -118.5 46.0 -117.25 45.75 -113.4 45.75 -113.15 Q44.7 -112.1 44.1 -110.0 L43.5 -106.75 43.5 -106.5 42.5 -106.1 41.35 -106.75 M48.0 -123.4 L48.0 -124.0 49.3 -123.35 48.65 -123.65 48.25 -123.5 48.0 -123.4 M52.45 -121.55 Q57.9 -118.0 58.0 -118.0 L58.0 -116.85 58.5 -111.15 58.95 -104.75 57.0 -106.25 53.0 -109.15 53.0 -113.85 53.05 -117.1 Q53.05 -119.65 52.6 -121.0 L52.45 -121.55 M46.75 -84.8 L46.9 -84.85 46.9 -84.15 46.75 -84.8 M50.45 -82.55 L51.75 -82.5 58.5 -83.15 58.5 -75.25 58.45 -68.2 Q58.6 -65.6 59.2 -63.5 53.5 -59.95 53.5 -58.15 53.5 -57.3 53.65 -57.2 L54.5 -57.0 Q55.4 -57.6 56.8 -59.55 58.0 -60.9 60.0 -61.5 L60.15 -61.55 61.5 -61.85 62.45 -58.6 63.05 -57.35 Q61.45 -57.15 60.25 -56.2 58.5 -54.8 58.5 -53.05 58.5 -52.65 59.5 -51.5 60.55 -52.25 61.55 -53.85 62.4 -54.85 64.15 -55.6 64.5 -54.85 65.8 -54.2 68.15 -53.0 68.5 -52.6 68.8 -52.05 70.7 -50.45 72.15 -49.25 73.35 -48.8 72.05 -47.0 71.5 -44.75 71.15 -43.35 71.05 -41.35 70.9 -42.05 71.0 -43.0 71.1 -44.35 70.15 -46.1 69.25 -47.75 68.0 -48.75 67.15 -49.35 66.2 -49.6 L65.1 -49.75 62.9 -49.35 Q61.35 -49.2 60.75 -48.85 59.4 -48.0 59.05 -45.9 L59.0 -42.85 Q58.95 -40.95 59.25 -39.15 L59.35 -38.75 58.5 -40.0 57.8 -39.8 Q57.5 -39.55 57.5 -38.75 57.6 -37.45 58.1 -36.3 59.2 -34.0 61.5 -34.0 L62.35 -34.15 63.0 -34.0 63.75 -34.5 Q63.6 -32.0 62.7 -30.35 60.85 -26.95 56.1 -28.25 L56.0 -27.25 Q56.0 -26.5 56.15 -26.3 56.7 -25.5 59.0 -25.5 60.65 -25.5 61.95 -26.2 L62.0 -26.05 Q62.0 -23.85 63.5 -14.7 L64.65 -7.7 63.0 -8.55 61.35 -9.1 59.15 -10.05 57.25 -10.5 Q56.45 -10.5 56.05 -9.7 55.55 -8.6 55.0 -8.25 L54.0 -8.65 54.4 -8.5 54.5 -9.35 54.5 -15.9 54.6 -19.65 Q54.6 -22.75 54.25 -24.35 L53.05 -28.9 Q52.35 -31.6 52.25 -33.0 L51.65 -41.6 51.0 -50.25 Q50.6 -53.9 50.55 -58.85 L50.5 -67.5 50.55 -71.95 50.5 -76.1 Q50.4 -77.55 50.7 -80.6 L50.45 -82.55 M46.1 -7.1 L44.95 -8.25 45.2 -8.05 45.35 -7.9 45.35 -7.85 46.1 -7.1 M36.05 -11.0 L35.05 -10.55 35.6 -11.0 36.05 -11.0 M-1.35 -29.45 L-1.0 -35.4 Q-1.0 -36.25 -1.25 -36.55 L-1.55 -36.8 Q-1.65 -40.7 -2.15 -44.8 -2.9 -50.8 -3.0 -57.25 L-3.0 -68.85 Q-3.0 -69.85 -3.8 -70.3 L-4.85 -70.7 -5.5 -70.75 Q-0.55 -70.7 2.2 -69.7 L2.0 -68.1 Q2.0 -65.45 3.0 -57.7 4.0 -49.9 4.0 -42.25 L4.0 -34.75 Q4.0 -33.5 2.95 -32.45 L1.35 -31.25 -1.35 -29.45 M-3.15 -25.5 L-3.05 -25.3 -3.35 -25.05 -3.15 -25.5 M-10.5 -24.95 L-12.5 -24.3 -12.5 -25.25 -10.5 -24.95 M-12.5 -26.85 L-12.5 -30.05 -12.55 -34.0 Q-12.75 -36.8 -13.5 -38.0 -14.15 -37.05 -14.4 -34.85 L-15.0 -41.1 Q-15.0 -42.9 -16.15 -49.65 L-17.3 -57.05 -16.9 -60.35 -16.5 -64.75 Q-16.5 -66.05 -16.95 -68.5 L-15.7 -69.1 Q-13.45 -70.1 -10.35 -70.5 L-11.7 -68.7 -12.0 -67.4 -11.35 -61.55 Q-10.75 -55.95 -11.0 -53.0 -11.15 -50.6 -10.0 -45.5 -8.75 -40.1 -8.75 -38.0 -9.15 -33.85 -9.0 -32.0 -8.6 -28.6 -11.25 -28.15 L-12.5 -27.85 -12.5 -26.85 M-14.2 -23.2 L-14.15 -23.05 -14.5 -22.6 -14.75 -22.4 -14.65 -22.45 -14.2 -23.2 M-30.2 -21.55 L-31.0 -27.0 Q-32.25 -34.9 -32.95 -46.6 L-34.0 -66.35 Q-34.7 -78.15 -37.5 -86.25 -38.4 -88.9 -39.6 -96.1 -40.55 -101.7 -41.6 -104.9 L-41.25 -105.0 -40.4 -105.05 -40.5 -105.1 -35.0 -110.55 -35.0 -110.5 -34.0 -100.4 Q-32.65 -90.0 -31.0 -90.0 L-30.05 -90.1 -30.05 -90.25 Q-29.5 -91.6 -29.5 -94.0 L-28.25 -94.0 Q-28.0 -90.45 -25.1 -78.2 -22.75 -68.1 -23.5 -62.25 -23.85 -59.25 -23.45 -54.2 L-23.0 -46.1 -23.0 -42.35 Q-23.0 -41.15 -22.0 -40.05 L-21.0 -38.5 -20.0 -30.05 -20.25 -27.2 -20.55 -24.1 Q-21.65 -25.2 -22.05 -26.35 -22.6 -27.0 -25.75 -27.0 -28.2 -27.0 -29.55 -23.6 L-30.2 -21.55 M-30.5 -114.15 Q-26.2 -117.25 -21.0 -119.6 L-18.0 -120.65 -18.45 -118.2 -19.0 -115.0 Q-18.6 -106.4 -17.55 -97.9 -16.15 -86.5 -14.1 -82.75 L-16.0 -79.75 -17.5 -76.25 -17.5 -83.1 -19.3 -86.4 Q-20.2 -88.3 -20.5 -89.5 L-20.75 -90.3 -21.45 -93.0 Q-22.15 -95.4 -23.0 -97.25 L-24.0 -99.7 Q-24.55 -100.9 -25.25 -101.35 L-27.5 -102.25 Q-28.25 -102.5 -28.55 -104.1 -29.5 -109.15 -29.5 -112.35 -29.35 -114.1 -30.2 -114.35 L-30.5 -114.15 M34.1 -84.25 L33.45 -81.85 Q32.5 -78.1 32.5 -76.9 L32.25 -58.1 32.0 -40.35 32.0 -20.1 31.95 -19.35 30.85 -20.95 Q29.7 -22.85 29.3 -24.75 L29.3 -26.2 29.1 -35.0 Q29.5 -42.0 29.5 -51.1 L29.5 -53.0 30.35 -53.35 31.0 -77.0 30.8 -78.9 30.75 -79.25 31.0 -80.1 31.45 -82.5 Q32.1 -84.35 33.75 -84.35 L34.1 -84.25 M22.7 -77.4 L22.5 -77.0 22.3 -77.5 22.5 -77.45 22.7 -77.4 M15.1 -78.3 L14.15 -77.95 Q14.15 -72.3 13.45 -62.7 12.5 -49.6 12.5 -44.3 12.5 -36.0 13.1 -30.6 L13.45 -27.0 14.0 -23.5 14.05 -22.15 9.85 -23.1 Q8.5 -23.35 8.5 -26.65 8.5 -27.3 9.15 -28.7 9.85 -30.2 10.0 -31.35 L10.1 -34.3 10.0 -36.8 Q10.0 -43.05 9.35 -47.85 L8.25 -59.1 8.25 -59.35 8.5 -59.5 8.5 -62.85 7.85 -68.05 7.7 -68.95 8.05 -69.55 Q8.5 -70.45 8.5 -71.6 8.5 -72.5 9.8 -73.8 L12.0 -76.1 Q13.2 -77.8 15.1 -78.3 M68.5 53.05 L69.5 53.4 69.5 52.75 Q69.5 50.75 66.75 32.75 65.35 26.1 64.85 22.55 L64.85 19.65 65.65 19.8 Q66.5 20.5 67.75 20.5 L68.3 20.45 68.4 20.5 70.65 21.35 Q71.8 28.25 72.0 36.75 72.05 41.25 74.15 47.4 75.3 50.7 77.95 56.7 L77.75 56.75 77.6 56.85 Q76.05 55.7 73.0 54.55 L68.5 53.05 M54.5 21.6 L54.55 27.45 56.0 37.8 Q56.45 41.4 58.25 47.25 L58.7 48.85 Q56.8 48.1 55.45 47.9 L53.05 38.0 50.0 26.8 49.05 23.85 49.0 24.2 49.5 22.4 49.55 22.3 51.25 22.5 54.5 21.6 M26.2 22.4 Q26.55 25.8 27.6 30.5 L30.0 41.05 Q30.3 42.85 31.65 46.65 32.95 50.4 33.25 52.3 L33.55 53.75 34.4 54.15 Q33.15 53.7 31.6 52.45 30.6 51.6 27.45 51.55 L25.7 36.9 Q26.2 36.65 26.5 36.0 25.6 33.6 24.9 26.95 L24.15 22.7 24.35 23.4 23.9 20.15 24.4 20.85 Q25.25 21.85 26.2 22.4 M6.35 19.4 L6.25 19.55 Q5.95 20.45 5.95 22.15 L6.0 24.6 Q6.0 28.5 6.85 34.6 L8.25 44.3 Q8.6 47.55 10.6 54.05 10.85 54.9 11.85 56.75 L12.65 58.45 9.5 59.25 8.85 57.65 Q8.4 56.5 6.75 56.5 L6.3 56.5 Q5.5 51.8 1.9 35.7 L1.75 36.05 2.0 35.3 1.65 34.7 0.35 29.0 -0.35 25.45 Q-0.9 23.55 -1.95 22.45 L-2.8 19.15 -2.25 19.25 6.35 19.4 M-4.3 16.15 L-4.35 15.95 -4.45 15.85 -4.25 16.1 -4.3 16.15 M-14.75 14.05 Q-15.5 15.5 -15.5 16.85 -15.5 21.7 -13.95 28.25 L-11.05 40.75 Q-10.45 43.9 -9.55 52.75 L-9.0 58.75 -8.95 59.3 Q-10.45 59.9 -10.75 60.8 L-10.9 61.55 Q-11.4 58.05 -12.65 53.5 L-15.8 41.0 -17.0 34.55 -18.25 28.25 Q-19.0 21.15 -21.05 24.0 -22.0 25.35 -22.0 30.1 L-21.5 35.7 -21.05 41.25 Q-21.05 41.9 -21.5 43.55 L-22.0 45.85 -21.65 50.65 Q-21.35 55.05 -21.5 57.3 L-21.5 63.3 Q-21.5 64.8 -21.0 66.25 L-20.65 67.15 Q-21.25 67.85 -21.55 69.0 -22.0 70.5 -22.0 75.0 L-21.8 76.55 Q-21.5 77.85 -21.0 78.5 -20.25 78.0 -20.0 78.0 L-19.75 74.0 Q-16.7 77.9 -14.0 79.0 L-9.8 80.55 Q-9.3 80.8 -8.55 81.75 L-6.65 82.05 -0.75 82.55 Q0.35 82.65 2.3 84.6 L4.25 86.5 5.5 85.8 5.95 85.4 6.0 86.3 Q5.1 88.45 5.0 89.9 L3.5 89.5 Q2.9 89.5 2.4 90.15 1.95 90.75 1.3 90.75 -24.3 82.2 -24.5 72.5 L-24.5 72.35 -24.5 72.0 -24.5 70.3 Q-25.7 66.3 -25.9 64.25 L-26.0 59.5 Q-25.5 51.25 -25.5 47.5 L-25.4 46.25 -25.0 47.0 Q-24.1 46.7 -24.0 46.0 L-26.85 35.65 Q-29.0 28.25 -29.0 24.35 L-29.05 22.75 -29.0 21.25 Q-28.8 20.1 -27.0 19.25 L-25.35 18.55 -24.9 18.65 -24.95 18.35 -24.5 18.0 Q-24.75 17.45 -25.2 17.2 L-26.0 12.75 -26.85 6.45 Q-23.5 11.85 -22.0 13.3 L-14.75 14.05 M21.15 62.9 L25.65 62.2 26.9 62.05 16.15 65.6 Q9.7 67.8 6.75 69.8 6.5 70.35 6.5 69.1 6.5 68.35 11.5 66.05 16.1 63.95 17.0 63.8 L20.35 63.05 21.15 62.9 M45.2 62.15 L45.0 62.0 48.25 61.55 48.75 61.4 48.8 61.4 48.95 61.35 49.15 61.1 50.3 61.1 51.3 60.75 51.95 60.55 61.75 61.05 61.9 60.85 62.0 61.6 61.85 62.4 61.25 62.3 49.35 61.35 49.85 61.2 48.45 61.6 48.4 61.6 45.2 62.15 M27.0 66.0 Q28.0 65.25 36.45 64.85 L45.75 64.55 45.9 64.35 46.0 65.1 Q46.0 65.65 43.65 67.25 40.95 69.0 39.0 69.0 L22.85 68.8 Q22.85 68.65 22.25 68.4 L21.5 68.0 Q21.65 67.75 22.9 67.65 L25.5 67.3 27.0 66.0 M26.35 67.8 Q27.05 67.6 34.35 68.0 40.65 68.35 43.35 66.25 L44.6 65.55 Q43.45 65.75 35.25 65.6 29.55 65.5 26.35 67.8 M2.5 72.05 Q2.8 71.7 9.25 71.95 L16.55 72.3 Q30.35 72.3 41.4 70.5 L50.6 68.55 59.55 65.75 Q67.9 63.05 68.5 63.0 64.65 65.45 51.9 69.0 35.9 73.5 24.0 73.5 L14.7 73.25 3.25 72.8 2.5 72.05 M36.0 91.1 L36.0 90.65 35.85 87.65 37.5 88.0 Q38.8 88.0 41.8 86.3 46.85 84.45 57.6 83.75 L61.1 83.25 61.0 84.25 Q61.0 85.3 61.45 86.15 L60.35 86.75 59.0 88.4 Q58.2 89.5 56.6 90.3 52.4 92.5 42.25 93.75 40.5 93.75 38.35 92.4 36.8 91.35 36.0 91.1 M7.4 88.4 L8.0 86.8 30.0 87.5 33.5 87.3 33.6 90.1 34.0 91.6 33.5 92.3 33.35 93.05 Q32.8 94.15 33.35 94.7 L21.0 94.25 9.0 94.0 6.75 91.8 6.2 91.2 7.4 88.4 M68.4 67.9 Q72.5 65.15 73.5 65.5 66.95 70.5 61.7 73.45 53.35 78.2 42.5 81.8 42.0 82.6 42.0 81.35 42.0 80.8 49.7 77.7 58.85 74.0 61.35 72.55 L68.4 67.9 M77.4 66.35 L77.75 66.5 76.5 71.0 Q76.85 73.1 75.05 75.7 73.5 77.85 71.4 78.75 L71.55 77.65 Q71.7 76.15 72.6 75.25 74.35 73.45 75.5 70.3 76.05 68.8 77.4 66.35 M58.5 73.0 Q55.35 74.95 50.55 76.15 41.5 78.5 22.25 78.5 3.55 78.5 -2.7 76.65 -4.5 76.1 -5.75 75.25 -6.85 74.4 -7.5 74.25 -7.5 73.8 -7.0 73.5 -5.75 74.0 -4.25 75.05 -3.05 75.9 -1.5 76.25 L22.5 77.3 Q42.35 77.3 50.4 75.25 L54.8 73.8 Q56.7 73.1 58.5 73.0 M69.15 78.75 Q69.05 79.3 69.25 79.6 L68.0 83.55 Q67.3 84.9 64.5 85.4 L62.95 85.7 63.0 84.1 62.85 82.65 Q63.7 82.25 64.15 81.7 64.95 79.45 65.5 78.25 69.35 77.7 69.15 78.75" fill="#31282d" fill-rule="evenodd" stroke="none"/>
    <path d="M-16.55 -71.8 Q-16.0 -73.1 -15.2 -75.95 -14.45 -78.65 -13.05 -80.25 L-11.4 -82.25 -9.75 -84.75 -7.8 -87.0 Q-5.3 -89.45 -2.75 -88.9 L1.5 -89.0 3.75 -90.85 5.65 -93.2 8.85 -97.6 Q11.35 -100.15 19.8 -99.8 28.9 -99.4 29.75 -99.85 30.55 -100.3 30.8 -101.25 L31.2 -102.85 Q31.9 -104.75 36.25 -104.75 40.65 -104.75 40.95 -104.1 41.25 -103.5 42.25 -103.5 43.25 -103.5 45.5 -105.5 L45.6 -105.6 Q47.95 -107.75 50.25 -107.75 52.4 -107.75 55.8 -104.6 L57.8 -102.8 57.1 -102.55 Q52.65 -104.25 51.8 -104.25 50.85 -104.25 42.5 -100.0 42.35 -100.0 39.5 -101.1 36.65 -102.25 36.15 -102.25 34.25 -102.25 32.7 -100.3 31.75 -99.2 31.35 -98.1 31.6 -96.8 31.3 -96.3 30.8 -95.5 26.5 -94.85 22.1 -94.15 17.05 -95.0 14.95 -95.35 10.0 -91.6 L8.15 -89.85 5.35 -87.5 Q4.85 -87.15 4.6 -86.45 L4.3 -85.65 4.15 -85.35 4.1 -85.25 1.7 -84.65 -3.0 -84.0 Q-5.75 -83.6 -7.25 -82.25 L-8.8 -80.0 -9.7 -78.8 -4.6 -77.85 5.15 -76.75 Q6.55 -76.75 8.85 -82.15 L9.0 -82.55 Q9.0 -83.2 10.5 -83.35 L10.7 -83.35 11.8 -83.4 11.85 -83.45 26.25 -83.75 27.0 -84.85 27.65 -86.0 28.25 -87.1 Q29.45 -88.55 31.05 -89.75 32.65 -91.0 33.5 -91.0 34.8 -91.0 37.2 -88.9 39.6 -86.85 40.25 -86.85 40.8 -86.85 42.3 -88.4 43.9 -90.0 44.75 -90.25 L47.3 -91.05 49.0 -91.5 49.7 -90.8 Q49.95 -90.35 49.85 -89.85 53.05 -90.1 52.35 -89.35 51.55 -88.45 55.1 -87.85 L57.6 -87.5 57.6 -87.05 57.6 -86.9 57.6 -86.85 57.8 -85.3 55.15 -84.9 Q52.0 -84.4 50.0 -84.85 L48.95 -86.0 48.95 -86.05 48.85 -86.75 47.55 -86.9 46.5 -87.0 Q45.65 -87.0 42.6 -84.85 L39.3 -82.75 Q38.7 -82.75 36.6 -84.6 34.5 -86.5 33.25 -86.5 31.1 -86.5 29.85 -83.1 L29.0 -81.25 28.85 -80.3 28.5 -80.0 22.6 -79.75 22.4 -79.75 20.15 -79.7 11.5 -79.35 Q10.0 -78.15 8.35 -75.75 L6.85 -72.9 6.6 -72.15 6.0 -72.35 Q5.7 -72.05 5.55 -71.45 L5.5 -71.25 5.4 -71.25 5.35 -71.25 3.45 -71.5 3.1 -71.6 3.0 -72.1 1.45 -72.2 Q-0.75 -73.0 -6.25 -73.0 L-7.55 -73.0 -9.1 -72.95 -12.9 -72.5 -13.15 -72.5 -13.15 -72.45 -13.55 -72.35 -14.6 -72.05 Q-15.35 -71.75 -15.85 -71.55 L-16.55 -71.8 M-9.2 -23.7 L-8.7 -23.55 -7.85 -22.85 -7.8 -22.75 -7.7 -22.6 Q-6.65 -21.3 -5.95 -21.1 -4.65 -20.8 -2.5 -22.6 L-1.6 -24.05 Q-1.2 -24.75 0.75 -24.75 2.6 -24.75 3.35 -21.75 4.35 -17.8 4.5 -17.6 5.2 -16.65 12.3 -14.55 19.05 -12.5 20.5 -12.5 22.45 -12.5 23.1 -13.0 L24.85 -14.25 Q25.25 -13.0 28.1 -10.6 31.25 -8.0 33.0 -8.0 34.35 -8.0 36.15 -8.9 37.95 -9.85 40.25 -9.85 41.35 -9.85 44.1 -6.15 46.85 -2.5 48.5 -2.5 L51.15 -3.1 53.75 -3.75 Q56.1 -3.75 61.0 -1.35 L64.9 0.65 Q64.45 1.85 64.25 3.5 L63.75 3.5 60.1 3.2 56.85 2.75 56.5 2.0 Q56.5 1.8 55.15 1.55 L53.1 1.25 Q47.65 0.9 47.1 0.35 47.2 -0.35 45.85 -1.0 L43.5 -2.4 41.6 -4.0 38.05 -4.6 34.35 -5.25 34.05 -5.4 34.1 -6.35 26.3 -8.55 14.6 -11.35 9.55 -12.45 4.5 -13.6 1.0 -13.85 Q-1.8 -14.5 -1.8 -17.35 L-2.05 -18.0 Q-4.3 -16.0 -6.0 -16.0 -6.4 -16.0 -8.6 -17.35 L-17.5 -14.0 Q-18.45 -14.0 -19.45 -15.25 -20.4 -16.5 -22.75 -16.5 L-24.35 -14.15 Q-26.0 -11.6 -27.0 -11.0 L-27.2 -11.1 -27.85 -12.3 Q-29.5 -15.35 -29.5 -15.85 L-29.3 -17.1 -29.2 -17.6 -28.15 -18.75 -25.55 -21.6 -22.2 -19.65 Q-19.5 -18.0 -17.75 -18.0 L-16.15 -18.15 -16.0 -18.1 -15.6 -18.45 -14.05 -19.9 -11.7 -21.95 -9.2 -23.7 M64.0 13.5 L64.0 16.05 64.3 17.45 61.25 17.0 50.25 20.3 50.0 20.15 49.75 19.65 49.5 19.65 49.05 19.15 Q48.1 18.0 46.75 18.0 45.5 18.0 44.85 19.05 44.5 19.85 44.5 20.25 L29.85 20.65 29.6 20.05 27.0 20.15 26.75 19.9 25.85 18.7 25.6 18.35 25.25 17.9 Q23.2 15.0 22.75 15.0 21.65 15.0 20.85 17.25 L9.55 17.0 Q3.1 16.9 -1.75 17.3 L-2.05 14.8 Q-2.3 13.5 -5.0 13.0 L-11.05 11.8 -15.0 11.5 -16.85 11.6 -17.5 11.25 -17.5 11.6 -21.15 11.35 Q-21.75 11.1 -21.8 10.25 L-24.25 5.2 -25.2 3.8 -24.8 1.65 -23.3 2.65 -20.8 4.75 Q-17.6 7.15 -13.05 6.7 L-4.0 7.0 Q-3.05 7.25 -3.0 7.85 -2.95 8.45 -2.0 8.75 1.55 10.3 4.7 11.5 10.8 13.8 14.85 13.8 L18.35 13.15 23.5 12.3 33.0 11.0 34.35 11.25 34.5 12.75 42.3 13.3 Q43.5 13.7 43.5 14.6 43.5 15.8 42.0 16.25 L52.8 14.85 64.0 13.5 M73.75 -45.25 L75.6 -47.7 Q76.5 -46.65 76.5 -43.3 76.7 -41.55 76.5 -39.95 76.15 -36.75 74.25 -36.75 L73.15 -36.9 73.0 -37.1 73.0 -42.35 73.7 -45.15 73.75 -45.25 M-18.6 71.0 L-18.95 70.5 -19.1 70.2 Q-18.65 68.6 -17.75 68.0 L-16.7 67.25 -16.0 67.0 Q-12.95 65.95 -10.75 67.05 -10.1 67.35 -9.25 64.0 -8.6 61.5 -4.65 60.65 L6.6 58.75 Q7.1 59.1 7.25 60.5 7.35 61.5 9.25 61.5 L14.8 60.15 19.75 58.75 Q24.25 58.4 25.4 57.4 26.0 56.9 26.0 55.15 L25.85 53.75 28.75 53.75 Q30.05 54.05 32.3 55.5 35.3 56.9 41.0 57.25 L41.2 58.35 Q41.3 59.1 42.0 60.0 43.35 59.75 44.4 58.2 45.5 56.65 47.25 56.25 L55.55 54.65 Q57.0 54.3 57.0 53.0 57.0 51.95 56.1 50.25 62.0 52.5 76.5 58.85 L77.3 60.05 76.4 62.15 76.25 62.65 76.1 63.0 76.0 63.0 66.75 61.0 57.5 59.0 Q56.5 59.0 51.95 60.55 L51.3 60.75 50.3 61.1 49.15 61.1 48.95 61.35 48.8 61.4 48.75 61.4 48.25 61.55 45.0 62.0 45.2 62.15 39.5 62.5 33.7 62.05 Q33.75 61.55 33.35 61.55 L26.9 62.05 25.65 62.2 21.15 62.9 14.5 64.15 Q3.35 66.4 1.25 67.3 -0.2 67.95 -10.05 74.0 -12.25 75.35 -14.4 76.25 -16.45 74.5 -18.25 71.55 L-18.45 71.25 -18.0 71.05 -18.6 71.0 M-10.25 -76.75 L-11.15 -76.95 -11.45 -76.5 -10.25 -76.75" fill="#51424b" fill-rule="evenodd" stroke="none"/>
    <path d="M57.1 -102.55 L56.85 -102.35 Q56.5 -101.95 56.5 -99.55 L56.65 -98.05 55.6 -98.85 Q52.4 -100.4 47.15 -98.75 L42.4 -96.75 41.65 -97.6 Q40.8 -98.5 39.25 -98.5 38.2 -98.5 34.45 -96.85 30.75 -95.3 29.85 -94.5 28.05 -92.9 26.5 -93.4 L22.6 -93.75 Q18.25 -92.6 15.0 -91.0 L4.7 -86.2 4.5 -86.05 4.3 -85.65 4.6 -86.45 Q4.85 -87.15 5.35 -87.5 L8.15 -89.85 10.0 -91.6 Q14.95 -95.35 17.05 -95.0 22.1 -94.15 26.5 -94.85 30.8 -95.5 31.3 -96.3 31.6 -96.8 31.35 -98.1 31.75 -99.2 32.7 -100.3 34.25 -102.25 36.15 -102.25 36.65 -102.25 39.5 -101.1 42.35 -100.0 42.5 -100.0 50.85 -104.25 51.8 -104.25 52.65 -104.25 57.1 -102.55 M57.5 -91.3 L57.6 -87.5 55.1 -87.85 Q51.55 -88.45 52.35 -89.35 53.05 -90.1 49.85 -89.85 49.95 -90.35 49.7 -90.8 L49.0 -91.5 47.3 -91.05 44.75 -90.25 Q43.9 -90.0 42.3 -88.4 40.8 -86.85 40.25 -86.85 39.6 -86.85 37.2 -88.9 34.8 -91.0 33.5 -91.0 32.65 -91.0 31.05 -89.75 29.45 -88.55 28.25 -87.1 L27.65 -86.0 27.0 -84.85 26.25 -83.75 11.85 -83.45 Q14.95 -84.85 18.75 -86.75 L22.7 -88.05 Q26.2 -89.1 27.1 -89.6 30.65 -91.55 36.6 -93.1 52.1 -93.1 52.7 -92.05 52.5 -91.5 52.6 -91.35 L55.75 -91.0 57.5 -91.3 M28.85 -80.3 L28.75 -80.1 28.5 -80.0 28.85 -80.3 M6.85 -72.9 Q6.5 -72.0 6.5 -71.25 L5.5 -71.25 5.55 -71.45 Q5.7 -72.05 6.0 -72.35 L6.6 -72.15 6.85 -72.9 M3.45 -71.5 Q2.55 -71.7 1.8 -72.05 L1.45 -72.2 3.0 -72.1 3.1 -71.6 3.45 -71.5 M-12.9 -72.5 L-13.15 -72.45 -13.15 -72.5 -12.9 -72.5 M-15.85 -71.55 L-16.8 -71.25 -16.55 -71.8 -15.85 -71.55 M1.7 -84.65 Q-3.5 -81.9 -3.5 -80.85 L-3.35 -79.95 -3.25 -79.75 -0.75 -79.5 Q2.3 -79.5 8.85 -82.15 6.55 -76.75 5.15 -76.75 L-4.6 -77.85 -9.7 -78.8 -8.8 -80.0 -7.25 -82.25 Q-5.75 -83.6 -3.0 -84.0 L1.7 -84.65 M-9.2 -23.7 L-11.7 -21.95 -14.05 -19.9 -13.05 -21.0 Q-10.75 -23.55 -9.45 -23.7 L-9.2 -23.7 M-15.6 -18.45 L-16.0 -18.1 -16.15 -18.15 -15.85 -18.3 -15.6 -18.45 M-27.2 -11.1 L-27.0 -11.0 Q-26.0 -11.6 -24.35 -14.15 L-22.75 -16.5 Q-20.4 -16.5 -19.45 -15.25 -18.45 -14.0 -17.5 -14.0 L-8.6 -17.35 Q-6.4 -16.0 -6.0 -16.0 -4.3 -16.0 -2.05 -18.0 L-1.8 -17.35 Q-1.8 -14.5 1.0 -13.85 L4.5 -13.6 9.55 -12.45 14.6 -11.35 26.3 -8.55 34.1 -6.35 34.05 -5.4 34.35 -5.25 38.05 -4.6 41.6 -4.0 43.5 -2.4 45.85 -1.0 Q47.2 -0.35 47.1 0.35 47.65 0.9 53.1 1.25 L55.15 1.55 Q56.5 1.8 56.5 2.0 L56.85 2.75 60.1 3.2 63.75 3.5 64.25 3.5 64.1 4.6 64.05 7.2 64.05 6.4 63.75 6.25 60.7 5.4 59.0 5.0 Q55.05 4.65 55.45 4.05 55.75 3.5 54.0 3.5 L50.7 3.5 41.25 2.25 Q37.5 1.85 34.75 0.95 32.35 0.15 31.25 -0.75 L28.8 -1.75 26.5 -2.5 16.75 -2.9 16.85 -3.35 Q16.8 -3.7 15.5 -4.0 14.05 -4.35 10.35 -4.1 8.1 -3.95 6.25 -5.85 L4.75 -7.55 0.25 -8.0 Q-3.5 -8.0 -5.95 -7.15 -6.5 -7.0 -8.0 -8.6 -9.6 -10.1 -11.75 -10.1 L-15.8 -9.25 Q-17.05 -8.85 -17.85 -7.45 -18.55 -6.25 -20.5 -6.0 -23.8 -5.5 -24.85 -4.6 L-24.95 -4.5 Q-25.3 -6.7 -25.75 -8.0 L-27.2 -11.1 M64.0 11.7 L64.0 13.5 52.8 14.85 42.0 16.25 Q43.5 15.8 43.5 14.6 43.5 13.7 42.3 13.3 L34.5 12.75 34.35 11.25 33.0 11.0 23.5 12.3 18.35 13.15 14.85 13.8 Q10.8 13.8 4.7 11.5 1.55 10.3 -2.0 8.75 -2.95 8.45 -3.0 7.85 -3.05 7.25 -4.0 7.0 L-13.05 6.7 Q-17.6 7.15 -20.8 4.75 L-23.3 2.65 -24.8 1.65 -24.5 -0.55 -24.5 -1.1 Q-23.15 -0.5 -20.0 -0.5 L-15.5 -1.05 -11.0 -1.6 Q-2.55 -1.6 -0.2 0.0 1.0 0.85 0.75 1.8 2.7 3.4 6.25 3.65 L12.5 4.25 13.95 4.8 14.75 5.3 17.45 5.55 22.25 5.8 Q23.4 6.0 27.7 7.8 31.8 9.5 32.5 9.5 L38.45 9.4 42.35 10.0 44.8 11.15 Q46.35 12.0 48.25 12.0 L50.2 11.8 51.6 11.75 58.5 12.5 Q61.35 12.5 63.85 11.75 L64.0 11.7 M29.85 20.65 L27.75 20.8 26.75 19.9 27.0 20.15 29.6 20.05 29.85 20.65 M-16.85 11.6 L-17.5 11.6 -17.5 11.25 -16.85 11.6 M73.75 -45.25 Q74.15 -46.9 75.25 -48.0 L75.6 -47.7 73.75 -45.25 M-18.6 71.0 L-18.0 71.05 -18.45 71.25 -18.6 71.0 M-14.4 76.25 Q-12.25 75.35 -10.05 74.0 -0.2 67.95 1.25 67.3 3.35 66.4 14.5 64.15 L21.15 62.9 20.35 63.05 17.0 63.8 Q16.1 63.95 11.5 66.05 6.5 68.35 6.5 69.1 6.5 70.35 6.75 69.8 9.7 67.8 16.15 65.6 L26.9 62.05 33.35 61.55 Q33.75 61.55 33.7 62.05 L39.5 62.5 45.2 62.15 48.4 61.6 48.45 61.6 49.85 61.2 49.35 61.35 61.25 62.3 61.85 62.4 62.0 61.6 61.9 60.85 61.75 61.05 51.95 60.55 Q56.5 59.0 57.5 59.0 L66.75 61.0 76.0 63.0 76.1 63.0 74.5 67.25 73.5 69.6 72.35 72.05 70.15 74.35 Q69.15 75.2 69.5 76.25 L67.1 76.25 Q64.4 75.35 63.5 75.8 63.95 81.75 56.85 81.75 46.8 81.8 41.5 83.8 38.2 85.75 37.85 85.75 36.9 85.75 35.25 83.65 33.65 81.5 33.25 81.5 L32.25 81.65 32.0 81.8 32.0 85.25 27.6 85.25 Q24.35 83.4 18.35 84.3 L9.0 84.8 8.8 82.85 Q8.35 81.0 7.25 81.0 6.6 81.0 5.65 82.1 L4.5 83.5 Q3.55 83.1 3.45 82.6 L3.25 81.95 Q2.45 81.25 -6.3 80.25 -7.45 80.1 -10.15 78.8 L-14.0 76.55 -14.4 76.25 M27.0 66.0 L25.5 67.3 22.9 67.65 Q21.65 67.75 21.5 68.0 L22.25 68.4 Q22.85 68.65 22.85 68.8 L39.0 69.0 Q40.95 69.0 43.65 67.25 46.0 65.65 46.0 65.1 L45.9 64.35 45.75 64.55 36.45 64.85 Q28.0 65.25 27.0 66.0 M2.5 72.05 L3.25 72.8 14.7 73.25 24.0 73.5 Q35.9 73.5 51.9 69.0 64.65 65.45 68.5 63.0 67.9 63.05 59.55 65.75 L50.6 68.55 41.4 70.5 Q30.35 72.3 16.55 72.3 L9.25 71.95 Q2.8 71.7 2.5 72.05 M26.35 67.8 Q29.55 65.5 35.25 65.6 43.45 65.75 44.6 65.55 L43.35 66.25 Q40.65 68.35 34.35 68.0 27.05 67.6 26.35 67.8 M68.4 67.9 L61.35 72.55 Q58.85 74.0 49.7 77.7 42.0 80.8 42.0 81.35 42.0 82.6 42.5 81.8 53.35 78.2 61.7 73.45 66.95 70.5 73.5 65.5 72.5 65.15 68.4 67.9 M58.5 73.0 Q56.7 73.1 54.8 73.8 L50.4 75.25 Q42.35 77.3 22.5 77.3 L-1.5 76.25 Q-3.05 75.9 -4.25 75.05 -5.75 74.0 -7.0 73.5 -7.5 73.8 -7.5 74.25 -6.85 74.4 -5.75 75.25 -4.5 76.1 -2.7 76.65 3.55 78.5 22.25 78.5 41.5 78.5 50.55 76.15 55.35 74.95 58.5 73.0 M-10.25 -76.75 L-11.45 -76.5 -11.15 -76.95 -10.25 -76.75" fill="#65525e" fill-rule="evenodd" stroke="none"/>
    <path d="M56.65 -98.05 L56.95 -96.05 57.5 -91.5 57.5 -91.3 55.75 -91.0 52.6 -91.35 Q52.5 -91.5 52.7 -92.05 52.1 -93.1 36.6 -93.1 30.65 -91.55 27.1 -89.6 26.2 -89.1 22.7 -88.05 L18.75 -86.75 Q14.95 -84.85 11.85 -83.45 L11.8 -83.4 10.7 -83.35 10.5 -83.35 Q9.0 -83.2 9.0 -82.55 L8.85 -82.15 Q2.3 -79.5 -0.75 -79.5 L-3.25 -79.75 -3.35 -79.95 -3.5 -80.85 Q-3.5 -81.9 1.7 -84.65 L4.1 -85.25 4.15 -85.35 4.3 -85.65 4.5 -86.05 4.7 -86.2 15.0 -91.0 Q18.25 -92.6 22.6 -93.75 L26.5 -93.4 Q28.05 -92.9 29.85 -94.5 30.75 -95.3 34.45 -96.85 38.2 -98.5 39.25 -98.5 40.8 -98.5 41.65 -97.6 L42.4 -96.75 47.15 -98.75 Q52.4 -100.4 55.6 -98.85 L56.65 -98.05 M64.05 7.2 L64.0 10.45 64.0 10.6 64.0 10.75 64.0 10.9 64.0 11.05 64.0 11.55 64.0 11.7 63.85 11.75 Q61.35 12.5 58.5 12.5 L51.6 11.75 50.2 11.8 48.25 12.0 Q46.35 12.0 44.8 11.15 L42.35 10.0 38.45 9.4 32.5 9.5 Q31.8 9.5 27.7 7.8 23.4 6.0 22.25 5.8 L17.45 5.55 14.75 5.3 13.95 4.8 12.5 4.25 6.25 3.65 Q2.7 3.4 0.75 1.8 1.0 0.85 -0.2 0.0 -2.55 -1.6 -11.0 -1.6 L-15.5 -1.05 -20.0 -0.5 Q-23.15 -0.5 -24.5 -1.1 L-24.85 -3.95 -24.95 -4.5 -24.85 -4.6 Q-23.8 -5.5 -20.5 -6.0 -18.55 -6.25 -17.85 -7.45 -17.05 -8.85 -15.8 -9.25 L-11.75 -10.1 Q-9.6 -10.1 -8.0 -8.6 -6.5 -7.0 -5.95 -7.15 -3.5 -8.0 0.25 -8.0 L4.75 -7.55 6.25 -5.85 Q8.1 -3.95 10.35 -4.1 14.05 -4.35 15.5 -4.0 16.8 -3.7 16.85 -3.35 L16.75 -2.9 26.5 -2.5 28.8 -1.75 31.25 -0.75 Q32.35 0.15 34.75 0.95 37.5 1.85 41.25 2.25 L50.7 3.5 54.0 3.5 Q55.75 3.5 55.45 4.05 55.05 4.65 59.0 5.0 L60.7 5.4 63.75 6.25 64.05 6.4 64.05 7.2" fill="#046193" fill-rule="evenodd" stroke="none"/>
  </g>
</svg>
