<?xml version="1.0" encoding="UTF-8" standalone="no"?>
<svg xmlns:ffdec="https://www.free-decompiler.com/flash" xmlns:xlink="http://www.w3.org/1999/xlink" ffdec:objectType="shape" height="237.85px" width="282.4px" xmlns="http://www.w3.org/2000/svg">
  <g transform="matrix(1.0, 0.0, 0.0, 1.0, -7.0, 278.85)">
    <path d="M267.1 -85.3 Q266.45 -89.5 264.55 -96.65 261.95 -106.25 260.4 -109.75 258.55 -113.95 255.55 -124.15 252.65 -133.8 250.55 -138.25 L236.9 -166.75 Q233.55 -173.6 228.55 -181.0 L224.6 -186.6 224.65 -186.45 Q222.5 -190.5 218.1 -195.0 212.65 -200.5 205.15 -205.25 L191.6 -214.15 Q183.75 -219.2 177.15 -222.25 L160.6 -230.1 Q150.3 -234.8 140.05 -238.0 L130.9 -241.4 Q122.35 -244.65 118.25 -245.75 106.1 -249.0 100.0 -249.5 L88.45 -250.25 Q87.9 -250.3 84.0 -251.5 L71.55 -252.15 61.0 -252.25 Q37.05 -251.3 23.6 -248.0 19.3 -246.95 16.75 -245.9 L15.25 -251.35 Q14.35 -254.75 11.5 -261.1 L10.0 -266.0 Q9.5 -267.9 8.2 -269.4 L7.0 -270.85 Q7.0 -273.55 30.7 -276.25 L60.5 -278.85 Q89.5 -278.3 99.0 -276.8 L105.5 -275.55 114.55 -274.35 Q129.6 -272.2 140.6 -268.95 154.0 -264.95 169.9 -257.0 201.85 -241.05 213.8 -227.85 216.85 -224.5 227.75 -213.65 237.35 -204.05 241.55 -199.0 252.05 -186.4 258.8 -169.75 262.65 -160.2 269.4 -140.95 L275.6 -126.4 Q279.45 -117.5 281.55 -111.7 L284.4 -104.2 Q285.85 -100.2 286.4 -97.0 287.35 -91.85 287.4 -89.95 287.5 -87.15 288.45 -85.3 L289.4 -83.5 Q289.4 -82.8 288.7 -82.2 287.9 -81.5 286.9 -81.5 285.75 -81.5 285.2 -82.2 L284.4 -82.95 280.25 -83.45 274.9 -84.0 267.55 -85.25 267.1 -85.3 M23.05 -222.5 L23.55 -222.7 33.05 -226.5 41.05 -228.85 Q42.75 -229.55 47.4 -230.15 L73.3 -231.35 Q103.15 -231.35 114.25 -227.15 L122.45 -223.3 Q127.55 -220.9 133.75 -219.5 147.45 -216.45 159.05 -210.35 L175.05 -201.25 Q184.05 -196.7 190.95 -191.65 197.85 -186.65 200.4 -182.85 L207.4 -173.1 213.65 -164.1 Q215.5 -161.15 218.75 -154.85 222.15 -148.2 223.65 -145.75 225.6 -142.6 226.4 -136.45 226.6 -135.0 228.3 -131.85 L230.9 -127.0 Q236.75 -114.75 241.1 -100.15 242.9 -94.15 244.0 -91.65 L243.9 -90.65 Q243.9 -89.0 244.35 -86.5 L244.2 -86.5 Q237.6 -86.6 233.55 -88.75 L230.3 -89.3 225.9 -90.0 224.5 -90.5 222.9 -91.0 215.1 -93.15 203.85 -95.2 204.0 -95.35 204.3 -95.7 204.4 -104.15 204.2 -110.8 Q203.75 -114.95 202.3 -117.75 L198.05 -124.95 Q195.4 -129.35 194.4 -132.0 192.15 -138.05 187.05 -146.05 L177.3 -160.1 Q172.7 -166.65 163.85 -174.3 157.55 -179.8 146.15 -188.25 L136.85 -195.05 Q130.4 -199.3 123.05 -201.85 L106.0 -207.75 Q64.3 -211.6 53.5 -211.25 41.9 -210.65 31.55 -207.1 L28.1 -205.8 26.35 -211.6 23.05 -222.5 M33.55 -184.55 L34.0 -184.5 Q35.2 -185.05 37.2 -185.6 41.25 -186.75 45.35 -186.75 53.85 -186.75 99.3 -180.1 L113.45 -176.45 125.3 -172.5 Q134.95 -169.05 143.75 -162.6 148.75 -158.9 155.9 -152.1 161.0 -147.3 165.45 -141.45 L172.4 -131.2 Q173.0 -130.3 175.85 -121.65 178.9 -112.35 178.9 -110.0 178.9 -107.4 177.65 -104.4 176.4 -101.4 176.4 -100.4 L176.45 -99.9 171.9 -100.5 Q169.7 -100.75 167.7 -101.55 L163.9 -103.0 157.05 -104.0 Q151.75 -104.45 149.05 -105.25 143.5 -106.95 140.85 -108.05 137.95 -109.3 137.0 -110.45 134.9 -113.2 128.9 -115.55 119.9 -119.0 106.5 -119.0 104.85 -119.0 104.0 -122.95 102.9 -128.05 102.3 -129.0 L99.05 -133.85 Q96.6 -137.1 94.05 -138.75 85.8 -144.35 80.05 -147.1 71.35 -151.3 59.5 -154.0 L52.1 -154.95 Q44.6 -155.9 36.75 -157.6 35.85 -157.8 36.1 -159.6 L36.5 -162.5 36.5 -167.25 36.0 -172.25 33.55 -184.55" fill="#221c1f" fill-opacity="0.47843137" fill-rule="evenodd" stroke="none"/>
    <path d="M16.75 -245.9 Q19.3 -246.95 23.6 -248.0 37.05 -251.3 61.0 -252.25 L71.55 -252.15 84.0 -251.5 Q87.9 -250.3 88.45 -250.25 L100.0 -249.5 Q106.1 -249.0 118.25 -245.75 122.35 -244.65 130.9 -241.4 L140.05 -238.0 Q150.3 -234.8 160.6 -230.1 L177.15 -222.25 Q183.75 -219.2 191.6 -214.15 L205.15 -205.25 Q212.65 -200.5 218.1 -195.0 222.5 -190.5 224.65 -186.45 L224.6 -186.6 228.55 -181.0 Q233.55 -173.6 236.9 -166.75 L250.55 -138.25 Q252.65 -133.8 255.55 -124.15 258.55 -113.95 260.4 -109.75 261.95 -106.25 264.55 -96.65 266.45 -89.5 267.1 -85.3 L262.05 -85.9 257.75 -86.25 257.6 -86.25 257.55 -86.25 256.9 -86.25 Q256.6 -94.4 254.4 -102.95 250.75 -115.35 248.4 -124.45 L245.5 -134.7 Q243.75 -140.2 241.55 -144.6 L236.3 -154.75 Q228.4 -164.3 228.4 -158.35 228.4 -157.5 230.3 -153.6 L233.3 -147.85 234.4 -145.1 235.15 -142.7 Q235.6 -141.75 235.65 -139.85 235.7 -137.85 236.05 -137.0 L243.65 -115.7 Q247.1 -105.7 249.65 -94.25 L250.85 -86.35 250.45 -86.35 244.35 -86.5 Q243.9 -89.0 243.9 -90.65 L244.0 -91.65 Q242.9 -94.15 241.1 -100.15 236.75 -114.75 230.9 -127.0 L228.3 -131.85 Q226.6 -135.0 226.4 -136.45 225.6 -142.6 223.65 -145.75 222.15 -148.2 218.75 -154.85 215.5 -161.15 213.65 -164.1 L207.4 -173.1 200.4 -182.85 Q197.85 -186.65 190.95 -191.65 184.05 -196.7 175.05 -201.25 L159.05 -210.35 Q147.45 -216.45 133.75 -219.5 127.55 -220.9 122.45 -223.3 L114.25 -227.15 Q103.15 -231.35 73.3 -231.35 L47.4 -230.15 Q42.75 -229.55 41.05 -228.85 L33.05 -226.5 23.55 -222.7 23.05 -222.5 22.0 -226.15 20.5 -231.5 17.9 -241.65 16.75 -245.9 M28.1 -205.8 L31.55 -207.1 Q41.9 -210.65 53.5 -211.25 64.3 -211.6 106.0 -207.75 L123.05 -201.85 Q130.4 -199.3 136.85 -195.05 L146.15 -188.25 Q157.55 -179.8 163.85 -174.3 172.7 -166.65 177.3 -160.1 L187.05 -146.05 Q192.15 -138.05 194.4 -132.0 195.4 -129.35 198.05 -124.95 L202.3 -117.75 Q203.75 -114.95 204.2 -110.8 L204.4 -104.15 204.3 -95.7 204.0 -95.35 203.85 -95.2 202.05 -95.45 199.55 -95.75 Q191.9 -96.65 185.65 -98.1 L179.4 -99.4 179.0 -99.5 176.45 -99.9 176.4 -100.4 Q176.4 -101.4 177.65 -104.4 178.9 -107.4 178.9 -110.0 178.9 -112.35 175.85 -121.65 173.0 -130.3 172.4 -131.2 L165.45 -141.45 Q161.0 -147.3 155.9 -152.1 148.75 -158.9 143.75 -162.6 134.95 -169.05 125.3 -172.5 L113.45 -176.45 99.3 -180.1 Q53.85 -186.75 45.35 -186.75 41.25 -186.75 37.2 -185.6 35.2 -185.05 34.0 -184.5 L33.55 -184.55 33.5 -184.85 33.0 -187.35 32.0 -191.75 29.0 -202.75 28.1 -205.8 M188.8 -126.2 Q185.95 -131.5 182.55 -137.0 L180.35 -139.5 Q178.95 -140.9 178.65 -141.95 178.05 -143.0 176.9 -143.9 175.45 -145.1 174.05 -145.1 L173.9 -144.65 173.9 -143.85 175.65 -139.4 178.65 -132.45 Q180.9 -127.7 182.8 -120.45 184.6 -113.5 184.4 -108.45 184.4 -103.95 184.85 -102.35 186.3 -97.5 191.4 -97.5 193.1 -97.5 193.35 -98.6 L193.4 -101.25 Q195.45 -101.55 195.85 -102.9 L195.9 -104.75 Q195.9 -112.9 188.8 -126.2" fill="#65525e" fill-opacity="0.47843137" fill-rule="evenodd" stroke="none"/>
    <path d="M250.85 -86.35 L249.65 -94.25 Q247.1 -105.7 243.65 -115.7 L236.05 -137.0 Q235.7 -137.85 235.65 -139.85 235.6 -141.75 235.15 -142.7 L234.4 -145.1 233.3 -147.85 230.3 -153.6 Q228.4 -157.5 228.4 -158.35 228.4 -164.3 236.3 -154.75 L241.55 -144.6 Q243.75 -140.2 245.5 -134.7 L248.4 -124.45 Q250.75 -115.35 254.4 -102.95 256.6 -94.4 256.9 -86.25 L257.55 -86.25 257.6 -86.25 257.75 -86.25 257.9 -86.2 258.5 -78.15 Q259.9 -59.95 259.9 -53.85 259.9 -49.45 259.55 -47.0 258.65 -41.0 255.9 -41.0 255.2 -41.0 253.35 -45.25 251.4 -49.9 251.4 -52.95 L251.4 -78.0 Q251.4 -79.8 252.1 -80.9 252.8 -81.95 252.8 -82.5 L251.95 -86.35 250.85 -86.35 M188.8 -126.2 Q195.9 -112.9 195.9 -104.75 L195.85 -102.9 Q195.45 -101.55 193.4 -101.25 L193.35 -98.6 Q193.1 -97.5 191.4 -97.5 186.3 -97.5 184.85 -102.35 184.4 -103.95 184.4 -108.45 184.6 -113.5 182.8 -120.45 180.9 -127.7 178.65 -132.45 L175.65 -139.4 173.9 -143.85 173.9 -144.65 174.05 -145.1 Q175.45 -145.1 176.9 -143.9 178.05 -143.0 178.65 -141.95 178.95 -140.9 180.35 -139.5 L182.55 -137.0 Q185.95 -131.5 188.8 -126.2" fill="#0033ff" fill-opacity="0.47843137" fill-rule="evenodd" stroke="none"/>
  </g>
</svg>
