<?xml version="1.0" encoding="UTF-8" standalone="no"?>
<svg xmlns:ffdec="https://www.free-decompiler.com/flash" xmlns:xlink="http://www.w3.org/1999/xlink" ffdec:objectType="shape" height="86.15px" width="234.0px" xmlns="http://www.w3.org/2000/svg">
  <g transform="matrix(1.0, 0.0, 0.0, 1.0, 20.3, 80.15)">
    <path d="M89.15 -66.15 L80.05 -68.85 78.45 -68.05 Q72.05 -64.85 67.4 -62.95 L56.55 -56.7 57.4 -52.95 57.4 -52.5 57.7 -47.3 57.75 -47.15 57.95 -44.0 Q59.4 -42.85 62.05 -38.7 68.4 -27.85 69.45 -26.65 L84.6 -17.45 97.15 -10.05 Q95.9 -13.4 95.7 -17.4 95.55 -20.1 95.75 -22.95 95.75 -45.3 110.55 -52.5 L110.65 -52.5 107.6 -55.85 Q103.45 -60.5 101.25 -61.75 98.4 -63.3 90.05 -65.9 L89.15 -66.15 M54.65 -48.95 L54.65 -49.5 54.7 -55.6 53.6 -54.95 Q42.45 -48.3 40.15 -48.3 L39.1 -48.35 37.85 -47.55 Q40.0 -44.75 40.65 -39.7 L40.65 -39.6 40.8 -37.2 40.95 -27.75 Q41.4 -24.65 43.2 -16.45 L44.75 -8.45 Q46.0 -15.3 48.55 -25.05 52.4 -39.45 54.85 -44.45 L54.65 -48.95 M79.55 -72.65 Q87.5 -77.1 107.5 -79.8 L108.8 -80.0 Q110.65 -80.25 112.45 -80.0 120.2 -79.1 128.2 -70.0 L128.4 -70.1 130.55 -70.25 135.9 -69.55 143.15 -68.6 148.15 -67.8 153.25 -67.2 157.85 -67.55 158.15 -67.7 158.25 -67.6 160.65 -68.1 Q162.45 -68.6 165.6 -70.0 168.35 -71.2 170.05 -71.5 L176.05 -71.3 Q180.95 -67.95 183.1 -59.4 184.55 -53.55 184.55 -46.15 L184.45 -38.7 188.1 -37.85 Q194.45 -36.2 198.75 -33.9 201.25 -32.6 204.0 -30.45 204.2 -30.9 204.55 -30.65 205.0 -30.35 205.5 -29.25 208.8 -26.5 211.3 -18.85 213.6 -11.9 213.6 -6.8 L213.65 -3.55 Q213.5 -1.8 212.25 -0.6 209.2 2.4 196.3 4.35 L136.0 4.35 134.6 3.3 Q131.15 4.35 124.25 4.35 115.55 4.35 109.45 2.05 109.45 2.95 109.05 3.3 L108.1 3.8 80.3 4.05 71.4 4.95 63.15 6.0 48.9 6.0 42.95 5.6 Q37.75 5.15 31.1 2.95 L15.6 2.95 14.8 3.05 11.05 3.2 10.1 2.9 Q9.75 2.65 9.75 1.95 L3.8 1.55 0.0 1.05 -7.9 0.8 Q-8.95 1.45 -11.95 1.45 L-20.0 1.3 -20.25 0.4 -20.3 -0.95 Q-20.3 -5.1 -12.65 -16.55 L-3.7 -29.5 Q3.95 -30.0 7.4 -30.85 L9.45 -30.95 Q10.0 -32.6 11.35 -33.25 L11.35 -33.35 Q11.35 -34.8 23.05 -41.95 30.95 -46.8 36.1 -49.1 L36.15 -49.1 38.4 -50.0 Q39.55 -51.15 48.95 -56.75 60.55 -63.65 66.0 -65.45 70.4 -66.85 73.85 -69.0 L79.55 -72.65 M36.55 -42.3 L36.4 -43.4 36.1 -46.4 28.9 -41.85 13.45 -32.3 11.9 -24.9 12.05 -21.8 12.1 -21.55 12.1 -21.5 12.95 -12.75 14.1 -1.7 14.1 0.25 15.45 -0.1 31.35 -0.1 40.75 1.45 43.9 1.95 43.7 1.1 Q42.05 -5.55 39.1 -24.4 L37.25 -36.95 36.55 -42.3 M9.45 -19.85 L9.3 -19.35 6.5 -19.5 3.8 -19.8 -2.75 -20.35 -7.45 -20.6 -7.6 -20.75 -12.5 -14.1 -14.65 -10.85 -11.65 -10.75 -10.8 -9.25 -10.7 -9.25 -10.75 -9.15 -9.65 -6.7 Q-8.5 -3.7 -8.5 -2.1 L-8.55 -1.0 -7.35 -0.75 0.4 -0.35 2.8 0.05 5.2 0.5 8.3 0.65 9.95 0.85 Q10.3 0.3 11.15 0.35 L12.0 0.35 Q11.15 -3.3 10.3 -11.5 L9.45 -19.85 M59.0 -34.45 Q59.55 -30.7 64.6 -14.8 69.25 -0.2 69.45 2.15 L70.9 2.0 77.15 1.3 77.15 1.15 Q77.15 -0.3 87.1 -5.0 L94.2 -8.2 Q90.8 -9.95 84.55 -13.9 80.05 -16.7 69.7 -23.5 67.5 -24.95 61.75 -33.45 L58.55 -38.3 59.0 -34.45 M53.4 -33.1 L49.7 -20.5 Q49.15 -18.1 48.9 -14.5 L48.4 -8.35 Q47.75 -1.35 45.4 2.25 L49.0 2.95 62.85 2.95 66.0 2.55 Q57.5 -24.0 55.35 -40.05 L53.4 -33.1 M91.95 -68.1 Q96.4 -66.75 100.7 -64.55 110.0 -59.6 112.85 -53.45 118.65 -55.65 126.0 -55.3 130.7 -55.05 135.7 -53.8 L134.75 -55.1 128.9 -64.05 Q126.85 -67.1 124.8 -69.35 117.9 -77.1 111.3 -77.1 98.45 -77.1 87.9 -72.55 L82.3 -69.9 82.6 -69.85 Q87.35 -69.5 91.95 -68.1 M138.15 -42.25 L140.95 -45.55 143.35 -45.55 143.05 -46.25 141.9 -49.4 141.8 -49.4 Q140.7 -49.4 139.7 -49.85 L137.65 -50.9 Q134.25 -52.4 127.25 -52.4 108.2 -52.4 101.55 -38.6 100.7 -36.85 100.15 -34.95 98.5 -29.75 98.5 -22.75 L98.55 -17.0 Q99.0 -12.4 100.8 -8.95 106.3 1.3 123.9 1.3 L128.25 1.15 132.65 0.8 132.45 0.35 132.55 0.3 132.45 -0.5 Q133.6 -5.15 133.6 -6.0 L133.55 -7.65 129.45 -7.2 128.2 -7.4 127.65 -7.85 127.5 -8.7 Q128.5 -9.6 133.35 -10.85 L132.75 -16.5 132.55 -18.1 Q130.45 -15.5 128.9 -14.3 L127.9 -14.65 Q127.5 -14.9 127.5 -15.8 127.5 -16.25 128.45 -18.65 129.6 -21.7 131.05 -24.3 L131.45 -25.0 126.6 -27.6 126.45 -28.45 Q127.4 -30.3 131.95 -28.6 L131.85 -32.25 Q131.9 -34.05 132.5 -35.3 L134.0 -37.3 Q132.6 -37.65 131.85 -38.0 130.8 -38.45 130.8 -39.45 130.8 -40.8 130.95 -40.9 L136.6 -40.45 138.15 -42.25 M133.65 -62.9 L136.15 -59.05 140.1 -52.45 142.0 -51.8 Q142.45 -53.15 143.75 -51.1 L144.0 -51.0 143.9 -50.85 146.5 -45.55 147.05 -45.55 145.6 -53.25 Q144.45 -58.35 144.1 -61.65 L144.0 -64.1 144.05 -65.15 139.35 -65.85 130.2 -67.65 133.65 -62.9 M156.65 -64.3 L153.3 -64.15 146.05 -64.9 148.15 -55.7 150.2 -45.3 152.85 -44.3 152.75 -45.05 Q152.75 -47.35 154.2 -51.85 155.8 -56.65 156.05 -59.65 L156.75 -63.8 156.65 -64.3 M157.2 -52.2 Q155.65 -45.4 154.35 -43.6 L155.5 -42.9 155.5 -43.1 Q158.55 -43.65 163.55 -43.0 L163.25 -44.65 162.6 -51.85 Q162.35 -53.9 159.45 -58.6 L158.65 -59.85 Q158.3 -56.95 157.2 -52.2 M161.1 -61.6 L161.8 -60.15 Q163.85 -55.7 165.4 -51.15 167.0 -46.2 167.0 -43.9 L167.0 -42.5 171.4 -41.7 180.35 -39.65 182.35 -39.2 182.7 -39.15 Q182.1 -41.65 181.8 -44.95 L181.2 -53.0 Q180.25 -62.95 175.25 -68.45 L169.75 -67.45 165.8 -66.05 Q163.0 -65.0 159.5 -64.55 L161.1 -61.6 M97.95 -6.65 L96.45 -7.05 89.15 -2.95 82.1 1.05 106.4 0.65 Q101.45 -2.1 98.7 -6.7 L97.95 -6.65 M156.65 -37.85 L156.5 -38.1 153.1 -40.5 Q151.4 -41.4 149.35 -41.95 L146.75 -42.45 145.65 -42.25 Q145.3 -42.25 144.9 -42.65 L141.95 -42.65 139.55 -39.6 Q141.95 -38.85 143.6 -37.85 145.4 -36.8 146.15 -35.4 L145.95 -34.55 Q145.7 -34.05 144.8 -34.05 143.6 -34.05 142.1 -35.2 140.45 -36.4 139.6 -36.5 L137.4 -36.75 135.1 -33.8 Q134.6 -32.8 134.6 -31.35 L134.65 -29.35 Q137.45 -32.25 140.45 -32.15 L140.55 -31.95 140.7 -31.1 Q140.7 -30.05 137.9 -25.75 142.55 -23.2 145.65 -20.9 L144.85 -19.65 Q144.5 -19.25 144.0 -19.25 142.25 -19.25 135.85 -22.6 L134.75 -21.0 Q134.75 -15.95 135.0 -13.65 L135.25 -11.25 136.25 -11.5 144.25 -12.95 144.4 -12.7 144.5 -11.7 Q144.5 -10.7 138.8 -8.95 L135.75 -8.1 Q136.5 -4.35 137.8 -1.45 L147.3 -1.45 Q153.15 -2.55 158.15 -8.3 162.6 -13.35 162.6 -16.8 162.6 -26.95 160.4 -32.15 158.95 -35.55 156.65 -37.85 M188.65 -27.65 L188.75 -29.05 Q189.05 -32.5 189.85 -34.55 184.0 -36.6 176.4 -38.2 L176.4 -38.15 179.3 -29.25 179.45 -29.1 179.95 -27.95 Q180.85 -25.6 181.15 -22.3 L181.25 -14.85 181.1 -7.55 182.25 -9.5 Q186.9 -17.2 187.7 -19.65 188.1 -20.9 188.65 -27.65 M205.15 -22.55 L205.1 -22.65 203.9 -27.05 Q199.75 -30.65 192.7 -33.5 L192.75 -33.0 192.75 -32.55 194.15 -29.45 195.75 -24.4 Q197.15 -19.05 197.15 -13.75 L196.9 -5.3 Q196.3 -1.05 194.45 1.3 L196.05 1.3 202.65 -0.1 202.6 -0.85 Q202.6 -2.95 204.55 -7.9 206.45 -12.85 206.45 -14.85 206.45 -18.05 205.15 -22.55 M176.15 -29.05 L175.85 -30.15 174.7 -35.3 174.7 -35.4 174.65 -35.75 Q174.65 -37.55 174.8 -38.45 L166.9 -39.85 166.9 -39.55 165.9 -40.25 165.75 -40.2 165.1 -39.75 164.9 -39.55 164.55 -40.2 164.3 -40.2 164.1 -40.25 158.05 -41.0 Q161.6 -37.8 163.45 -32.65 L163.5 -32.5 163.85 -31.25 164.1 -30.45 Q165.35 -25.3 165.35 -16.8 165.35 -15.1 164.2 -12.25 162.65 -8.45 159.9 -5.45 155.15 -0.3 148.1 1.3 L173.35 1.3 173.85 0.2 175.75 -3.5 Q178.5 -9.4 178.5 -15.0 178.5 -21.0 176.6 -27.55 L176.15 -29.05 M179.2 -0.1 L178.2 1.3 191.7 1.3 191.65 1.0 193.05 -5.95 Q194.4 -12.25 194.4 -14.0 194.4 -15.95 192.75 -24.45 L192.35 -26.7 Q191.6 -21.7 189.6 -17.3 187.45 -12.5 179.3 -0.1 L179.2 -0.1 M209.2 -14.75 Q209.2 -11.7 207.8 -7.65 206.55 -3.85 205.95 -1.0 208.7 -1.85 209.7 -2.65 210.75 -3.4 210.85 -4.6 L210.85 -7.2 Q210.85 -13.85 210.05 -17.05 209.35 -19.85 207.95 -22.25 209.2 -17.7 209.2 -14.75 M-15.15 -10.0 Q-18.7 -4.05 -18.95 -0.1 L-11.4 -0.5 -9.65 -0.75 Q-10.25 -2.4 -10.6 -5.6 -11.5 -9.0 -15.15 -10.0" fill="#000000" fill-rule="evenodd" stroke="none"/>
    <path d="M9.45 -19.85 L10.3 -11.5 Q11.15 -3.3 12.0 0.35 L11.15 0.35 Q10.3 0.3 9.95 0.85 L8.3 0.65 5.2 0.5 2.8 0.05 0.4 -0.35 -7.35 -0.75 -8.55 -1.0 -8.5 -2.1 Q-8.5 -3.7 -9.65 -6.7 L-10.75 -9.15 -10.7 -9.25 -10.8 -9.25 -11.65 -10.75 -14.65 -10.85 -12.5 -14.1 -7.6 -20.75 -7.45 -20.6 -2.75 -20.35 3.8 -19.8 6.5 -19.5 9.3 -19.35 9.45 -19.85 M59.0 -34.45 L58.55 -38.3 61.75 -33.45 Q67.5 -24.95 69.7 -23.5 80.05 -16.7 84.55 -13.9 90.8 -9.95 94.2 -8.2 L87.1 -5.0 Q77.15 -0.3 77.15 1.15 L77.15 1.3 70.9 2.0 69.45 2.15 Q69.25 -0.2 64.6 -14.8 59.55 -30.7 59.0 -34.45 M124.8 -69.35 Q126.85 -67.1 128.9 -64.05 L134.75 -55.1 135.7 -53.8 Q130.7 -55.05 126.0 -55.3 118.65 -55.65 112.85 -53.45 110.0 -59.6 100.7 -64.55 96.4 -66.75 91.95 -68.1 L97.5 -70.1 115.9 -70.1 124.8 -69.35 M100.15 -34.95 L101.6 -35.95 109.75 -40.9 Q112.15 -42.2 121.05 -44.0 L131.25 -45.7 131.1 -45.55 Q130.95 -45.1 130.95 -44.5 L130.95 -43.65 Q132.15 -43.45 133.2 -43.65 L135.25 -44.15 Q135.25 -43.55 135.6 -43.0 136.0 -42.45 136.6 -42.25 L138.15 -42.25 136.6 -40.45 130.95 -40.9 Q130.8 -40.8 130.8 -39.45 130.8 -38.45 131.85 -38.0 132.6 -37.65 134.0 -37.3 L132.5 -35.3 Q131.9 -34.05 131.85 -32.25 L131.95 -28.6 Q127.4 -30.3 126.45 -28.45 L126.6 -27.6 131.45 -25.0 131.05 -24.3 Q129.6 -21.7 128.45 -18.65 127.5 -16.25 127.5 -15.8 127.5 -14.9 127.9 -14.65 L128.9 -14.3 Q130.45 -15.5 132.55 -18.1 L132.75 -16.5 133.35 -10.85 Q128.5 -9.6 127.5 -8.7 L127.65 -7.85 128.2 -7.4 129.45 -7.2 133.55 -7.65 133.6 -6.0 Q133.6 -5.15 132.45 -0.5 L132.55 0.3 132.45 0.35 132.65 0.8 128.25 1.15 123.9 1.3 Q106.3 1.3 100.8 -8.95 99.0 -12.4 98.55 -17.0 L98.5 -22.75 Q98.5 -29.75 100.15 -34.95 M144.1 -61.65 Q144.45 -58.35 145.6 -53.25 L147.05 -45.55 146.5 -45.55 143.9 -50.85 144.0 -51.0 143.75 -51.1 Q142.45 -53.15 142.0 -51.8 L140.1 -52.45 136.15 -59.05 133.65 -62.9 Q137.65 -61.45 142.9 -61.45 L144.1 -61.65 M180.35 -39.65 L171.4 -41.7 167.0 -42.5 167.0 -43.9 Q167.0 -46.2 165.4 -51.15 163.85 -55.7 161.8 -60.15 L161.1 -61.6 167.7 -63.05 176.45 -64.9 Q177.05 -62.2 177.65 -56.7 L178.7 -47.45 Q179.35 -42.3 180.35 -39.65 M143.6 -37.85 L156.65 -37.85 Q158.95 -35.55 160.4 -32.15 162.6 -26.95 162.6 -16.8 162.6 -13.35 158.15 -8.3 153.15 -2.55 147.3 -1.45 L137.8 -1.45 Q136.5 -4.35 135.75 -8.1 L138.8 -8.95 Q144.5 -10.7 144.5 -11.7 L144.4 -12.7 144.25 -12.95 136.25 -11.5 135.25 -11.25 135.0 -13.65 Q134.75 -15.95 134.75 -21.0 L135.85 -22.6 Q142.25 -19.25 144.0 -19.25 144.5 -19.25 144.85 -19.65 L145.65 -20.9 Q142.55 -23.2 137.9 -25.75 140.7 -30.05 140.7 -31.1 L140.55 -31.95 140.45 -32.15 Q137.45 -32.25 134.65 -29.35 L134.6 -31.35 Q134.6 -32.8 135.1 -33.8 L137.4 -36.75 139.6 -36.5 Q140.45 -36.4 142.1 -35.2 143.6 -34.05 144.8 -34.05 145.7 -34.05 145.95 -34.55 L146.15 -35.4 Q145.4 -36.8 143.6 -37.85 M-15.15 -10.0 Q-11.5 -9.0 -10.6 -5.6 -10.25 -2.4 -9.65 -0.75 L-11.4 -0.5 -18.95 -0.1 Q-18.7 -4.05 -15.15 -10.0" fill="#332d26" fill-rule="evenodd" stroke="none"/>
    <path d="M40.8 -37.2 Q43.95 -39.3 49.4 -44.15 L54.65 -48.95 54.85 -44.45 Q52.4 -39.45 48.55 -25.05 46.0 -15.3 44.75 -8.45 L43.2 -16.45 Q41.4 -24.65 40.95 -27.75 L40.8 -37.2 M53.4 -33.1 L55.35 -40.05 Q57.5 -24.0 66.0 2.55 L62.85 2.95 49.0 2.95 45.4 2.25 Q47.75 -1.35 48.4 -8.35 L48.9 -14.5 Q49.15 -18.1 49.7 -20.5 L53.4 -33.1 M157.2 -52.2 Q158.3 -56.95 158.65 -59.85 L159.45 -58.6 Q162.35 -53.9 162.6 -51.85 L163.25 -44.65 163.55 -43.0 Q158.55 -43.65 155.5 -43.1 L155.5 -42.9 154.35 -43.6 Q155.65 -45.4 157.2 -52.2 M156.65 -64.3 L156.75 -63.8 156.05 -59.65 Q155.8 -56.65 154.2 -51.85 152.75 -47.35 152.75 -45.05 L152.85 -44.3 150.2 -45.3 148.15 -55.7 146.05 -64.9 153.3 -64.15 156.65 -64.3 M179.95 -27.95 L185.9 -27.45 188.65 -27.65 Q188.1 -20.9 187.7 -19.65 186.9 -17.2 182.25 -9.5 L181.1 -7.55 181.25 -14.85 181.15 -22.3 Q180.85 -25.6 179.95 -27.95 M179.2 -0.1 L179.3 -0.1 Q187.45 -12.5 189.6 -17.3 191.6 -21.7 192.35 -26.7 L192.75 -24.45 Q194.4 -15.95 194.4 -14.0 194.4 -12.25 193.05 -5.95 L191.65 1.0 191.7 1.3 178.2 1.3 179.2 -0.1" fill="#6b6150" fill-rule="evenodd" stroke="none"/>
    <path d="M36.55 -42.3 L35.85 -42.95 36.4 -43.4 36.55 -42.3 M12.1 -21.5 L24.85 -28.95 Q34.15 -34.55 37.25 -36.95 L39.1 -24.4 Q42.05 -5.55 43.7 1.1 L43.9 1.95 40.75 1.45 31.35 -0.1 15.45 -0.1 14.1 0.25 14.1 -1.7 12.95 -12.75 12.1 -21.5" fill="#023f60" fill-rule="evenodd" stroke="none"/>
    <path d="M97.95 -6.65 L98.7 -6.7 Q101.45 -2.1 106.4 0.65 L82.1 1.05 89.15 -2.95 96.45 -7.05 97.95 -6.65 M195.75 -24.4 L196.75 -24.05 Q201.05 -22.5 204.25 -22.5 L205.15 -22.55 Q206.45 -18.05 206.45 -14.85 206.45 -12.85 204.55 -7.9 202.6 -2.95 202.6 -0.85 L202.65 -0.1 196.05 1.3 194.45 1.3 Q196.3 -1.05 196.9 -5.3 L197.15 -13.75 Q197.15 -19.05 195.75 -24.4" fill="#4e5963" fill-rule="evenodd" stroke="none"/>
    <path d="M57.75 -47.15 L71.65 -54.85 Q89.15 -64.85 89.15 -66.15 L90.05 -65.9 Q98.4 -63.3 101.25 -61.75 103.45 -60.5 107.6 -55.85 L110.65 -52.5 110.55 -52.5 Q95.75 -45.3 95.75 -22.95 95.55 -20.1 95.7 -17.4 95.9 -13.4 97.15 -10.05 L84.6 -17.45 69.45 -26.65 Q68.4 -27.85 62.05 -38.7 59.4 -42.85 57.95 -44.0 L57.75 -47.15 M164.1 -30.45 Q166.25 -29.35 169.55 -29.25 L174.65 -29.2 176.15 -29.05 176.6 -27.55 Q178.5 -21.0 178.5 -15.0 178.5 -9.4 175.75 -3.5 L173.85 0.2 173.35 1.3 148.1 1.3 Q155.15 -0.3 159.9 -5.45 162.65 -8.45 164.2 -12.25 165.35 -15.1 165.35 -16.8 165.35 -25.3 164.1 -30.45 M209.2 -14.75 Q209.2 -17.7 207.95 -22.25 209.35 -19.85 210.05 -17.05 210.85 -13.85 210.85 -7.2 L210.85 -4.6 Q210.75 -3.4 209.7 -2.65 208.7 -1.85 205.95 -1.0 206.55 -3.85 207.8 -7.65 209.2 -11.7 209.2 -14.75" fill="#be9378" fill-rule="evenodd" stroke="none"/>
    <path d="M36.4 -43.4 L35.85 -42.95 36.55 -42.3 37.25 -36.95 Q34.15 -34.55 24.85 -28.95 L12.1 -21.5 12.1 -21.55 12.05 -21.8 11.9 -24.9 13.45 -32.3 28.9 -41.85 36.1 -46.4 36.4 -43.4" fill="#046193" fill-rule="evenodd" stroke="none"/>
    <path d="M40.8 -37.2 L40.65 -39.6 40.65 -39.7 Q40.0 -44.75 37.85 -47.55 L39.1 -48.35 40.15 -48.3 Q42.45 -48.3 53.6 -54.95 L54.7 -55.6 54.65 -49.5 54.65 -48.95 49.4 -44.15 Q43.95 -39.3 40.8 -37.2 M179.95 -27.95 L179.45 -29.1 179.3 -29.25 176.4 -38.15 176.4 -38.2 Q184.0 -36.6 189.85 -34.55 189.05 -32.5 188.75 -29.05 L188.65 -27.65 185.9 -27.45 179.95 -27.95" fill="#988b76" fill-rule="evenodd" stroke="none"/>
    <path d="M57.75 -47.15 L57.7 -47.3 57.4 -52.5 57.4 -52.95 56.55 -56.7 67.4 -62.95 Q72.05 -64.85 78.45 -68.05 L80.05 -68.85 89.15 -66.15 Q89.15 -64.85 71.65 -54.85 L57.75 -47.15 M164.1 -30.45 L163.85 -31.25 163.5 -32.5 163.45 -32.65 Q161.6 -37.8 158.05 -41.0 L164.1 -40.25 164.3 -40.2 164.55 -40.2 164.9 -39.55 165.1 -39.75 165.75 -40.2 165.9 -40.25 166.9 -39.55 166.9 -39.85 174.8 -38.45 Q174.65 -37.55 174.65 -35.75 L174.7 -35.4 174.7 -35.3 175.85 -30.15 176.15 -29.05 174.65 -29.2 169.55 -29.25 Q166.25 -29.35 164.1 -30.45" fill="#cdac98" fill-rule="evenodd" stroke="none"/>
    <path d="M124.8 -69.35 L115.9 -70.1 97.5 -70.1 91.95 -68.1 Q87.35 -69.5 82.6 -69.85 L82.3 -69.9 87.9 -72.55 Q98.45 -77.1 111.3 -77.1 117.9 -77.1 124.8 -69.35 M100.15 -34.95 Q100.7 -36.85 101.55 -38.6 108.2 -52.4 127.25 -52.4 134.25 -52.4 137.65 -50.9 L139.7 -49.85 Q140.7 -49.4 141.8 -49.4 L141.9 -49.4 143.05 -46.25 143.35 -45.55 140.95 -45.55 138.15 -42.25 136.6 -42.25 Q136.0 -42.45 135.6 -43.0 135.25 -43.55 135.25 -44.15 L133.2 -43.65 Q132.15 -43.45 130.95 -43.65 L130.95 -44.5 Q130.95 -45.1 131.1 -45.55 L131.25 -45.7 121.05 -44.0 Q112.15 -42.2 109.75 -40.9 L101.6 -35.95 100.15 -34.95 M144.1 -61.65 L142.9 -61.45 Q137.65 -61.45 133.65 -62.9 L130.2 -67.65 139.35 -65.85 144.05 -65.15 144.0 -64.1 144.1 -61.65 M180.35 -39.65 Q179.35 -42.3 178.7 -47.45 L177.65 -56.7 Q177.05 -62.2 176.45 -64.9 L167.7 -63.05 161.1 -61.6 159.5 -64.55 Q163.0 -65.0 165.8 -66.05 L169.75 -67.45 175.25 -68.45 Q180.25 -62.95 181.2 -53.0 L181.8 -44.95 Q182.1 -41.65 182.7 -39.15 L182.35 -39.2 180.35 -39.65 M143.6 -37.85 Q141.95 -38.85 139.55 -39.6 L141.95 -42.65 144.9 -42.65 Q145.3 -42.25 145.65 -42.25 L146.75 -42.45 149.35 -41.95 Q151.4 -41.4 153.1 -40.5 L156.5 -38.1 156.65 -37.85 143.6 -37.85" fill="#4b4238" fill-rule="evenodd" stroke="none"/>
    <path d="M195.75 -24.4 L194.15 -29.45 192.75 -32.55 192.75 -33.0 192.7 -33.5 Q199.75 -30.65 203.9 -27.05 L205.1 -22.65 205.15 -22.55 204.25 -22.5 Q201.05 -22.5 196.75 -24.05 L195.75 -24.4" fill="#6c7b88" fill-rule="evenodd" stroke="none"/>
  </g>
</svg>
