<?xml version="1.0" encoding="UTF-8" standalone="no"?>
<svg xmlns:ffdec="https://www.free-decompiler.com/flash" xmlns:xlink="http://www.w3.org/1999/xlink" ffdec:objectType="shape" height="105.6px" width="115.0px" xmlns="http://www.w3.org/2000/svg">
  <g transform="matrix(1.0, 0.0, 0.0, 1.0, 27.55, 80.0)">
    <path d="M-27.25 -41.15 L-27.25 -41.25 Q-27.25 -43.1 -21.75 -47.9 L-11.65 -56.55 Q-6.1 -61.75 0.0 -66.55 9.4 -73.95 12.4 -73.95 L14.7 -73.8 14.95 -72.35 14.95 -72.3 15.0 -72.3 Q16.3 -71.35 21.7 -70.5 L31.55 -69.6 37.65 -70.0 44.85 -71.25 Q48.15 -71.95 60.75 -76.45 56.3 -65.75 51.55 -62.55 50.8 -62.05 48.85 -61.2 47.85 -60.8 47.85 -60.0 L47.95 -59.0 48.15 -58.9 53.65 -58.55 Q63.15 -58.55 81.05 -68.75 L80.6 -67.7 Q76.75 -61.15 69.85 -56.25 L65.85 -53.45 Q64.25 -52.2 64.25 -51.15 64.25 -49.5 68.25 -49.5 70.5 -49.5 71.7 -50.15 80.9 -55.05 83.0 -56.95 L84.7 -58.45 84.75 -58.35 84.7 -58.05 Q79.55 -51.35 71.7 -39.8 64.8 -29.75 62.85 -26.2 L62.2 -25.8 Q56.6 -22.25 55.65 -22.25 L50.7 -20.75 Q46.1 -19.25 45.2 -19.25 L43.85 -19.5 43.9 -19.65 Q44.85 -22.3 44.85 -23.35 44.85 -24.25 44.3 -24.5 L42.9 -24.75 42.6 -23.5 42.35 -23.85 41.8 -23.85 33.8 -22.6 26.7 -22.0 Q18.9 -22.0 8.95 -24.95 3.95 -26.4 -4.95 -29.9 -10.05 -31.8 -18.05 -35.4 -19.3 -36.05 -23.75 -39.95 L-25.2 -40.95 -26.15 -40.15 -26.95 -40.2 Q-27.25 -40.35 -27.25 -41.15" fill="#282828" fill-rule="evenodd" stroke="none"/>
    <path d="M14.7 -73.8 L14.85 -73.95 15.1 -74.0 17.65 -73.45 20.0 -73.05 25.65 -72.3 32.0 -71.6 38.35 -72.45 Q42.5 -73.35 46.05 -73.45 48.65 -73.55 55.45 -76.8 58.85 -78.4 61.9 -80.0 62.85 -80.0 63.05 -79.6 L63.15 -78.15 Q63.15 -75.75 60.4 -69.9 56.8 -62.1 51.9 -60.7 L53.65 -60.6 Q58.25 -60.6 62.55 -62.1 69.3 -64.45 82.5 -72.05 L83.25 -71.65 83.5 -70.45 Q83.5 -66.5 78.7 -61.5 72.2 -55.5 68.8 -51.7 78.45 -55.7 82.1 -59.05 L83.95 -61.05 Q84.75 -61.95 85.65 -62.25 86.5 -61.6 86.85 -60.5 L87.2 -60.5 87.45 -59.5 86.9 -57.9 86.8 -57.4 86.5 -57.15 84.45 -53.95 81.45 -49.5 Q81.45 -49.0 71.95 -35.45 L67.85 -29.3 Q66.2 -26.55 64.5 -24.65 L64.45 -24.1 63.25 -23.3 63.25 -23.15 63.25 -23.1 Q63.25 -22.25 60.05 -16.8 L56.55 -11.3 56.5 -11.05 56.5 -10.75 Q54.7 -8.4 53.5 -5.7 51.95 -2.1 52.45 -0.05 L52.35 0.35 51.7 0.6 Q52.65 3.1 54.2 9.2 54.2 13.5 44.4 19.75 35.1 25.6 30.35 25.6 28.45 25.6 27.1 22.75 25.95 20.45 25.95 18.7 25.95 14.05 31.1 9.75 33.65 7.55 37.2 5.1 36.95 4.3 36.95 3.2 36.95 -0.9 39.55 -11.65 L41.4 -18.9 41.35 -19.15 Q41.35 -20.0 41.7 -20.15 L42.3 -22.4 Q40.45 -20.9 27.7 -19.85 L21.7 -20.35 15.7 -20.9 Q9.95 -20.9 -8.75 -29.15 -27.55 -37.4 -27.55 -40.0 L-27.25 -41.15 Q-27.25 -40.35 -26.95 -40.2 L-26.15 -40.15 -25.2 -40.95 -23.75 -39.95 Q-19.3 -36.05 -18.05 -35.4 -10.05 -31.8 -4.95 -29.9 3.95 -26.4 8.95 -24.95 18.9 -22.0 26.7 -22.0 L33.8 -22.6 41.8 -23.85 42.35 -23.85 42.6 -23.5 42.9 -24.75 44.3 -24.5 Q44.85 -24.25 44.85 -23.35 44.85 -22.3 43.9 -19.65 L43.85 -19.5 45.2 -19.25 Q46.1 -19.25 50.7 -20.75 L55.65 -22.25 Q56.6 -22.25 62.2 -25.8 L62.85 -26.2 Q64.8 -29.75 71.7 -39.8 79.55 -51.35 84.7 -58.05 L84.75 -58.35 84.8 -58.6 84.7 -58.45 83.0 -56.95 Q80.9 -55.05 71.7 -50.15 70.5 -49.5 68.25 -49.5 64.25 -49.5 64.25 -51.15 64.25 -52.2 65.85 -53.45 L69.85 -56.25 Q76.75 -61.15 80.6 -67.7 L81.05 -68.75 Q63.15 -58.55 53.65 -58.55 L48.15 -58.9 47.95 -59.0 47.85 -60.0 Q47.85 -60.8 48.85 -61.2 50.8 -62.05 51.55 -62.55 56.3 -65.75 60.75 -76.45 48.15 -71.95 44.85 -71.25 L37.65 -70.0 31.55 -69.6 21.7 -70.5 Q16.3 -71.35 15.0 -72.3 L14.95 -72.35 14.7 -73.8 M64.45 -23.85 L64.45 -23.8 64.4 -23.75 64.45 -23.85 M39.65 -0.4 L39.4 4.0 Q43.4 1.35 49.4 -0.15 L49.35 -0.2 49.5 -0.8 49.9 -1.05 49.7 -1.4 Q49.7 -4.65 53.35 -10.15 L53.35 -10.2 Q53.35 -10.7 57.25 -16.75 59.4 -20.15 60.85 -21.95 57.6 -20.25 55.3 -20.25 L51.1 -18.7 Q46.9 -17.15 45.75 -17.15 L43.15 -17.4 42.9 -15.95 Q42.9 -15.35 42.15 -13.9 41.3 -12.2 41.0 -10.2 L40.8 -5.0 Q40.8 -4.3 40.25 -2.7 39.65 -1.05 39.65 -0.4 M31.25 22.85 Q30.9 21.8 30.9 21.2 30.9 19.95 31.7 17.45 32.7 14.45 33.85 13.85 L34.45 13.85 34.7 14.7 Q34.7 15.85 33.85 18.65 33.15 20.75 33.55 23.2 36.0 22.75 39.2 20.75 L39.05 20.5 Q38.5 19.45 38.5 19.1 38.5 17.9 39.3 15.7 40.05 13.5 40.8 12.55 L42.1 12.65 42.2 12.7 42.25 13.5 41.5 16.8 Q41.15 18.05 41.15 19.45 L44.8 16.6 Q52.15 10.45 52.15 8.9 52.15 7.0 50.1 1.7 48.1 2.95 45.2 4.2 42.05 5.55 39.3 6.3 38.85 6.8 38.2 6.85 L37.6 6.1 30.5 13.25 Q28.1 15.7 28.1 18.55 28.1 22.7 31.1 23.25 L31.45 23.3 31.25 22.85" fill="#000000" fill-rule="evenodd" stroke="none"/>
    <path d="M31.1 23.25 Q28.1 22.7 28.1 18.55 28.1 15.7 30.5 13.25 L37.6 6.1 38.2 6.85 Q38.85 6.8 39.3 6.3 42.05 5.55 45.2 4.2 48.1 2.95 50.1 1.7 52.15 7.0 52.15 8.9 52.15 10.45 44.8 16.6 L41.15 19.45 Q41.15 18.05 41.5 16.8 L42.25 13.5 42.2 12.7 42.1 12.65 40.8 12.55 Q40.05 13.5 39.3 15.7 38.5 17.9 38.5 19.1 38.5 19.45 39.05 20.5 L39.2 20.75 Q36.0 22.75 33.55 23.2 33.15 20.75 33.85 18.65 34.7 15.85 34.7 14.7 L34.45 13.85 33.85 13.85 Q32.7 14.45 31.7 17.45 30.9 19.95 30.9 21.2 30.9 21.8 31.25 22.85 L31.1 23.25" fill="#666666" fill-rule="evenodd" stroke="none"/>
    <path d="M64.45 -24.1 L64.45 -23.85 64.4 -23.75 Q63.8 -23.55 63.25 -23.15 L63.25 -23.3 64.45 -24.1 M39.65 -0.4 Q39.65 -1.05 40.25 -2.7 40.8 -4.3 40.8 -5.0 L41.0 -10.2 Q41.3 -12.2 42.15 -13.9 42.9 -15.35 42.9 -15.95 L43.15 -17.4 45.75 -17.15 Q46.9 -17.15 51.1 -18.7 L55.3 -20.25 Q57.6 -20.25 60.85 -21.95 59.4 -20.15 57.25 -16.75 53.35 -10.7 53.35 -10.2 L53.35 -10.15 Q49.7 -4.65 49.7 -1.4 L49.9 -1.05 49.5 -0.8 49.35 -0.2 49.4 -0.15 Q43.4 1.35 39.4 4.0 L39.65 -0.4" fill="#046193" fill-rule="evenodd" stroke="none"/>
  </g>
</svg>
