<?xml version="1.0" encoding="UTF-8" standalone="no"?>
<svg xmlns:ffdec="https://www.free-decompiler.com/flash" xmlns:xlink="http://www.w3.org/1999/xlink" ffdec:objectType="shape" height="59.9px" width="53.75px" xmlns="http://www.w3.org/2000/svg">
  <g transform="matrix(1.0, 0.0, 0.0, 1.0, 37.25, 57.4)">
    <path d="M-10.15 -9.85 Q-10.5 -11.6 -10.45 -13.25 -10.45 -18.85 -4.0 -24.35 1.65 -29.15 4.8 -29.15 7.5 -29.15 11.95 -26.0 L12.75 -25.4 12.15 -27.3 Q9.45 -35.6 5.7 -39.25 2.6 -42.25 0.45 -43.2 -1.35 -44.0 -4.4 -44.0 L-8.0 -43.45 -11.6 -42.9 Q-17.6 -42.9 -20.5 -38.85 -23.35 -34.85 -23.35 -26.7 -23.35 -19.75 -13.6 -12.0 L-10.3 -9.55 -10.0 -9.3 -10.15 -9.85 M8.5 -39.85 Q11.6 -36.75 14.2 -28.55 L15.95 -21.95 Q16.5 -20.85 16.35 -19.8 L16.35 -19.55 16.5 -17.1 Q16.5 -15.5 15.95 -13.85 15.35 -12.0 14.2 -11.3 15.5 -7.85 15.5 -3.9 15.5 -1.7 2.6 2.5 0.65 2.5 -1.1 1.15 -2.85 -0.15 -3.45 -2.05 L-3.45 -2.1 -3.85 -2.1 Q-4.95 -2.1 -9.35 -5.25 L-15.8 -10.2 Q-20.15 -13.9 -22.85 -18.65 L-23.25 -19.4 Q-24.65 -19.75 -26.55 -22.35 -29.5 -26.3 -30.8 -27.35 L-34.95 -30.75 Q-37.25 -32.8 -37.25 -33.65 -37.25 -34.35 -35.75 -34.95 -34.15 -35.6 -33.95 -36.0 L-35.4 -38.5 -36.05 -40.15 Q-36.05 -41.15 -34.85 -41.9 -33.65 -42.65 -33.65 -44.0 -33.65 -45.35 -33.8 -46.5 -33.9 -47.65 -34.45 -48.05 L-35.25 -48.7 -35.75 -49.4 Q-36.3 -50.3 -36.3 -51.2 L-36.15 -52.15 -34.2 -51.85 -32.1 -51.45 Q-27.35 -51.45 -27.35 -56.9 L-27.25 -57.2 -26.4 -57.4 -21.55 -55.35 Q-16.95 -53.35 -15.7 -53.35 -4.05 -50.3 -2.65 -49.5 1.6 -47.5 3.6 -46.05 6.5 -44.05 8.5 -39.85 M13.35 -14.1 Q14.3 -15.95 14.3 -17.45 L14.05 -20.05 11.15 -22.8 Q7.1 -26.7 5.25 -26.7 L3.45 -26.2 Q2.35 -25.75 1.65 -25.75 -0.6 -25.75 -4.4 -20.9 -8.25 -16.0 -8.25 -13.05 -8.25 -11.65 -7.6 -9.15 L-7.05 -7.05 -6.65 -6.75 -4.1 -4.55 -5.05 -7.8 -6.6 -12.3 -6.8 -13.5 Q-6.8 -16.6 6.35 -20.9 8.75 -19.55 11.0 -16.8 L13.0 -13.85 13.1 -13.65 13.35 -14.1 M3.9 -17.25 Q1.85 -16.25 0.55 -16.25 0.0 -16.25 -2.15 -14.95 -4.4 -13.6 -4.4 -12.9 -4.4 -9.85 -1.75 -4.85 0.8 0.0 2.2 0.0 4.25 0.0 5.6 -0.65 L8.85 -2.2 Q11.4 -3.15 12.1 -3.85 13.05 -4.85 13.05 -7.15 13.05 -8.05 12.0 -10.45 10.7 -13.5 8.55 -16.5 L7.45 -17.6 6.15 -18.25 3.9 -17.25 M-1.9 -46.5 Q-2.75 -47.0 -6.9 -48.35 L-11.75 -49.7 -14.15 -50.25 -16.55 -50.8 Q-17.65 -50.8 -24.5 -54.45 -26.8 -49.2 -31.95 -49.15 L-32.7 -49.25 Q-31.45 -45.9 -31.45 -42.6 -31.45 -41.3 -32.4 -40.5 L-33.6 -39.35 -32.15 -37.95 Q-31.45 -37.2 -31.45 -35.5 -31.45 -34.1 -32.45 -33.7 -33.0 -33.45 -34.1 -33.1 L-34.35 -33.05 -34.2 -32.95 Q-31.15 -31.05 -27.75 -26.85 L-24.9 -23.35 Q-25.6 -25.65 -25.6 -27.75 -25.6 -33.4 -23.9 -37.4 -22.1 -41.75 -18.8 -42.95 L-15.65 -44.15 -11.95 -45.2 -7.95 -45.9 -4.65 -46.4 -1.9 -46.35 -1.6 -46.35 -1.9 -46.5" fill="#000000" fill-rule="evenodd" stroke="none"/>
    <path d="M-10.3 -9.55 L-13.6 -12.0 Q-23.35 -19.75 -23.35 -26.7 -23.35 -34.85 -20.5 -38.85 -17.6 -42.9 -11.6 -42.9 L-8.0 -43.45 -4.4 -44.0 Q-1.35 -44.0 0.45 -43.2 2.6 -42.25 5.7 -39.25 9.45 -35.6 12.15 -27.3 L12.75 -25.4 11.95 -26.0 Q7.5 -29.15 4.8 -29.15 1.65 -29.15 -4.0 -24.35 -10.45 -18.85 -10.45 -13.25 -10.5 -11.6 -10.15 -9.85 L-10.3 -9.55 M3.9 -17.25 L6.15 -18.25 7.45 -17.6 8.55 -16.5 Q10.7 -13.5 12.0 -10.45 13.05 -8.05 13.05 -7.15 13.05 -4.85 12.1 -3.85 11.4 -3.15 8.85 -2.2 L5.6 -0.65 Q4.25 0.0 2.2 0.0 0.8 0.0 -1.75 -4.85 -4.4 -9.85 -4.4 -12.9 -4.4 -13.6 -2.15 -14.95 0.0 -16.25 0.55 -16.25 1.85 -16.25 3.9 -17.25" fill="#cdac98" fill-rule="evenodd" stroke="none"/>
    <path d="M13.0 -13.85 L11.0 -16.8 Q8.75 -19.55 6.35 -20.9 -6.8 -16.6 -6.8 -13.5 L-6.6 -12.3 -5.05 -7.8 -4.1 -4.55 -6.65 -6.75 -7.05 -7.05 -7.6 -9.15 Q-8.25 -11.65 -8.25 -13.05 -8.25 -16.0 -4.4 -20.9 -0.6 -25.75 1.65 -25.75 2.35 -25.75 3.45 -26.2 L5.25 -26.7 Q7.1 -26.7 11.15 -22.8 L14.05 -20.05 14.3 -17.45 Q14.3 -15.95 13.35 -14.1 L13.0 -13.85" fill="#915e3c" fill-rule="evenodd" stroke="none"/>
    <path d="M-34.1 -33.1 Q-33.0 -33.45 -32.45 -33.7 -31.45 -34.1 -31.45 -35.5 -31.45 -37.2 -32.15 -37.95 L-33.6 -39.35 -32.4 -40.5 Q-31.45 -41.3 -31.45 -42.6 -31.45 -45.9 -32.7 -49.25 L-31.95 -49.15 Q-26.8 -49.2 -24.5 -54.45 -17.65 -50.8 -16.55 -50.8 L-14.15 -50.25 -11.75 -49.7 -6.9 -48.35 Q-2.75 -47.0 -1.9 -46.5 L-1.9 -46.35 -4.65 -46.4 -7.95 -45.9 -11.95 -45.2 -15.65 -44.15 -18.8 -42.95 Q-22.1 -41.75 -23.9 -37.4 -25.6 -33.4 -25.6 -27.75 -25.6 -25.65 -24.9 -23.35 L-27.75 -26.85 Q-31.15 -31.05 -34.2 -32.95 L-34.1 -33.1" fill="#02334d" fill-rule="evenodd" stroke="none"/>
  </g>
</svg>
