<?xml version="1.0" encoding="UTF-8" standalone="no"?>
<svg xmlns:ffdec="https://www.free-decompiler.com/flash" xmlns:xlink="http://www.w3.org/1999/xlink" ffdec:objectType="shape" height="64.0px" width="79.15px" xmlns="http://www.w3.org/2000/svg">
  <g transform="matrix(1.0, 0.0, 0.0, 1.0, 30.65, 48.5)">
    <path d="M26.6 -31.15 Q26.6 -33.65 26.0 -35.45 L26.55 -35.35 26.6 -37.25 27.0 -38.05 Q27.95 -39.25 30.4 -39.25 L33.95 -38.7 34.55 -38.65 35.0 -37.0 Q35.4 -35.75 35.9 -35.3 L35.65 -34.8 Q35.5 -34.25 35.5 -33.15 35.5 -31.9 36.2 -30.9 L36.1 -29.9 36.0 -23.25 36.1 -16.25 Q35.9 -17.6 34.8 -18.7 33.55 -19.95 31.85 -20.2 27.65 -20.95 27.6 -16.05 L27.6 -15.9 27.5 -15.6 27.5 -14.2 27.6 -14.0 Q28.35 -12.1 32.3 -12.1 34.45 -12.1 35.35 -13.15 36.0 -13.9 36.1 -15.4 L36.5 -6.75 36.4 1.7 Q36.35 4.85 37.0 7.3 L37.05 8.5 37.4 8.85 36.7 10.1 Q36.3 11.25 31.9 11.25 28.6 11.25 27.5 10.05 L27.5 10.0 27.5 1.5 27.6 1.5 Q28.35 3.4 32.3 3.4 34.45 3.4 35.35 2.35 36.0 1.6 36.1 0.1 L36.1 -0.25 36.1 -0.75 Q35.9 -2.1 34.8 -3.2 33.55 -4.45 31.85 -4.7 27.65 -5.45 27.6 -0.55 L27.6 -0.4 27.5 -0.4 27.5 -9.5 27.1 -14.1 26.5 -23.35 Q26.3 -25.3 26.5 -29.1 L26.6 -29.15 26.6 -29.1 Q27.35 -27.2 31.3 -27.2 33.45 -27.2 34.35 -28.25 35.1 -29.1 35.1 -30.85 35.1 -32.45 33.8 -33.8 32.55 -35.05 30.85 -35.3 26.65 -36.05 26.6 -31.15 M-18.0 -31.0 L-18.0 -36.5 -17.4 -36.45 -17.35 -36.8 -17.45 -37.4 -16.5 -38.3 -15.8 -39.0 -10.0 -39.0 -9.9 -39.0 -8.85 -37.35 -8.2 -36.55 -8.3 -36.05 -8.2 -36.05 Q-8.6 -34.65 -8.6 -32.15 -8.4 -27.4 -8.5 -25.75 L-8.55 -18.5 -8.5 -13.4 -8.5 -1.35 Q-8.4 0.65 -8.6 4.75 -8.6 7.2 -8.1 8.95 L-8.2 8.95 -8.1 9.65 -8.1 10.0 Q-9.15 11.8 -16.75 11.8 L-17.15 11.15 Q-17.45 10.6 -18.0 10.55 L-18.1 9.9 -18.0 9.8 -18.0 1.4 -17.9 1.4 Q-17.15 3.3 -13.2 3.3 -11.05 3.3 -10.15 2.25 -9.4 1.4 -9.4 -0.35 -9.4 -1.95 -10.7 -3.3 -11.95 -4.55 -13.65 -4.8 -17.9 -5.55 -17.9 -0.5 L-18.0 -0.5 -18.0 -14.1 -17.9 -14.1 Q-17.15 -12.2 -13.2 -12.2 -11.05 -12.2 -10.15 -13.25 -9.4 -14.1 -9.4 -15.85 -9.4 -17.45 -10.7 -18.8 -11.95 -20.05 -13.65 -20.3 -17.9 -21.05 -17.9 -16.0 L-18.0 -16.0 -18.0 -29.1 -17.9 -29.1 Q-17.15 -27.2 -13.2 -27.2 -11.05 -27.2 -10.15 -28.25 -9.4 -29.1 -9.4 -30.85 -9.4 -32.45 -10.7 -33.8 -11.95 -35.05 -13.65 -35.3 -17.9 -36.05 -17.9 -31.0 L-18.0 -31.0" fill="#273236" fill-rule="evenodd" stroke="none"/>
    <path d="M36.1 -16.25 L36.0 -23.25 36.1 -29.9 36.2 -30.9 Q35.5 -31.9 35.5 -33.15 35.5 -34.25 35.65 -34.8 L35.9 -35.3 Q35.4 -35.75 35.0 -37.0 L34.55 -38.65 33.95 -38.7 30.4 -39.25 Q27.95 -39.25 27.0 -38.05 L26.6 -37.25 26.55 -35.35 26.0 -35.45 Q26.6 -33.65 26.6 -31.15 L26.6 -31.0 26.5 -30.7 26.5 -29.3 26.5 -29.1 Q26.3 -25.3 26.5 -23.35 L27.1 -14.1 27.5 -9.5 27.5 -0.4 27.5 -0.1 27.5 1.3 27.5 1.5 27.5 10.0 27.5 10.05 Q28.6 11.25 31.9 11.25 36.3 11.25 36.7 10.1 L37.4 8.85 37.05 8.5 37.0 7.3 Q36.35 4.85 36.4 1.7 L36.5 -6.75 36.1 -15.4 36.1 -15.75 36.1 -16.25 M37.05 -40.25 L37.3 -39.9 Q39.2 -41.25 44.0 -42.0 46.1 -41.25 46.85 -38.85 L47.5 -35.25 Q48.05 -32.45 48.05 -28.35 L48.0 -21.35 Q48.0 -12.0 48.5 6.5 L48.5 10.8 Q48.0 14.5 45.75 14.5 43.95 14.5 40.55 11.7 L38.85 10.2 37.75 11.55 37.15 13.05 32.0 13.5 Q27.15 13.5 25.35 11.1 L25.0 10.5 22.5 10.5 22.45 11.35 Q21.3 10.7 20.05 10.7 L20.05 10.5 1.1 10.5 1.15 10.55 -0.2 10.35 -1.3 10.5 -6.5 10.5 -7.6 12.3 Q-7.95 12.95 -7.8 13.45 L-8.0 13.45 Q-9.35 13.45 -10.4 14.0 L-13.25 14.0 -17.0 13.75 -17.05 14.05 -17.6 14.0 -18.2 13.3 Q-18.85 12.65 -19.65 12.35 L-21.9 13.75 Q-24.95 15.5 -26.75 15.5 -29.9 15.5 -30.5 7.7 -30.8 3.8 -30.5 -0.25 -30.0 -15.6 -30.0 -23.1 -30.0 -28.1 -29.5 -34.35 -29.35 -36.25 -29.35 -40.0 -25.8 -41.35 -22.2 -39.9 -20.55 -39.25 -19.75 -38.55 L-18.3 -40.1 Q-16.95 -41.1 -15.95 -40.95 L-10.0 -41.25 -10.0 -41.5 -9.25 -41.25 Q-9.05 -41.1 -9.0 -40.5 -8.1 -40.0 -7.15 -38.75 L-7.1 -38.7 Q-6.75 -38.95 -6.3 -38.5 L-2.0 -38.65 -2.0 -39.1 -1.85 -40.35 -1.95 -40.35 -2.0 -41.15 -1.95 -42.0 -1.75 -42.35 -0.5 -42.5 Q-0.5 -43.8 1.3 -45.8 3.35 -48.05 5.5 -48.5 15.55 -47.95 17.1 -45.8 17.5 -45.15 17.5 -43.75 17.55 -42.8 17.75 -42.15 L21.05 -42.0 Q21.2 -41.9 21.3 -41.85 L21.5 -41.0 21.4 -40.75 21.5 -40.5 21.5 -38.65 23.0 -38.5 24.65 -38.15 Q25.05 -39.4 26.3 -40.75 27.45 -41.95 34.95 -40.65 L35.5 -41.0 36.0 -40.45 37.05 -40.25 M24.15 -29.0 L24.0 -35.65 24.0 -35.9 20.0 -36.5 Q8.3 -36.8 -1.1 -36.55 L-6.0 -36.35 -6.1 -35.4 -6.5 -35.6 -6.5 -35.4 -6.5 -28.55 -6.5 2.6 -6.5 8.1 -6.25 8.2 -6.15 8.3 -5.95 8.15 8.0 7.75 Q8.0 7.6 21.0 8.0 L21.5 7.5 22.2 8.0 25.65 8.1 Q25.35 6.65 25.35 4.75 L25.45 2.85 25.5 0.4 25.5 -1.0 25.0 -12.6 Q24.6 -17.4 24.25 -26.45 L24.25 -26.5 24.25 -27.05 24.2 -28.05 24.2 -29.0 24.15 -29.0 M37.2 -35.1 Q38.1 -33.25 38.1 -30.55 L38.0 -25.5 38.0 -20.4 38.0 -15.35 39.0 4.8 39.0 7.35 Q40.85 8.35 45.05 12.25 L46.3 12.25 46.5 6.35 Q46.0 -9.5 46.0 -17.35 L46.0 -30.55 Q45.55 -39.75 42.9 -39.75 41.15 -39.75 39.15 -38.25 L37.25 -36.65 37.5 -35.5 37.4 -35.25 37.2 -35.1 M11.0 -46.0 L10.3 -46.1 7.65 -46.25 7.6 -46.25 6.15 -46.15 Q3.25 -45.85 2.25 -44.2 L1.9 -42.7 2.5 -42.75 15.8 -42.25 15.35 -43.6 Q14.4 -45.45 11.0 -46.0 M16.5 -40.05 L9.75 -40.0 0.0 -40.2 0.0 -38.7 1.0 -38.75 19.3 -38.75 19.1 -40.2 16.5 -40.05 M-18.0 1.4 L-18.0 9.8 -18.1 9.9 -18.0 10.55 Q-17.45 10.6 -17.15 11.15 L-16.75 11.8 Q-9.15 11.8 -8.1 10.0 L-8.1 9.65 -8.2 8.95 -8.1 8.95 Q-8.6 7.2 -8.6 4.75 -8.4 0.65 -8.5 -1.35 L-8.5 -13.4 -8.55 -18.5 -8.5 -25.75 Q-8.4 -27.4 -8.6 -32.15 -8.6 -34.65 -8.2 -36.05 L-8.3 -36.05 -8.2 -36.55 -8.85 -37.35 -9.9 -39.0 -10.0 -39.0 -15.8 -39.0 -16.5 -38.3 -17.45 -37.4 -17.35 -36.8 -17.4 -36.45 -18.0 -36.5 -18.0 -31.0 -18.0 -30.7 -18.0 -29.35 -18.0 -29.1 -18.0 -16.0 -18.0 -15.7 -18.0 -14.35 -18.0 -14.1 -18.0 -0.5 -18.0 -0.2 -18.0 1.15 -18.0 1.4 M-20.0 10.55 L-19.8 9.2 Q-20.15 8.3 -20.15 7.0 L-20.0 3.5 Q-20.0 -1.35 -20.5 -3.6 L-20.5 -36.1 -21.65 -36.9 -23.6 -38.25 -27.5 -38.25 Q-28.0 -25.85 -28.5 -0.4 -28.5 6.3 -28.0 12.75 L-27.75 13.0 -26.65 13.25 -20.25 10.5 -20.0 10.6 -20.0 10.55" fill="#000000" fill-rule="evenodd" stroke="none"/>
    <path d="M26.6 -31.15 Q26.65 -36.05 30.85 -35.3 32.55 -35.05 33.8 -33.8 35.1 -32.45 35.1 -30.85 35.1 -29.1 34.35 -28.25 33.45 -27.2 31.3 -27.2 27.35 -27.2 26.6 -29.1 L26.6 -29.15 26.5 -29.3 26.5 -30.7 26.6 -31.0 26.6 -31.15 M27.6 -0.4 L27.6 -0.55 Q27.65 -5.45 31.85 -4.7 33.55 -4.45 34.8 -3.2 35.9 -2.1 36.1 -0.75 L36.1 -0.25 36.1 0.1 Q36.0 1.6 35.35 2.35 34.45 3.4 32.3 3.4 28.35 3.4 27.6 1.5 L27.5 1.3 27.5 -0.1 27.6 -0.4 M36.1 -15.4 Q36.0 -13.9 35.35 -13.15 34.45 -12.1 32.3 -12.1 28.35 -12.1 27.6 -14.0 L27.5 -14.2 27.5 -15.6 27.6 -15.9 27.6 -16.05 Q27.65 -20.95 31.85 -20.2 33.55 -19.95 34.8 -18.7 35.9 -17.6 36.1 -16.25 L36.1 -15.75 36.1 -15.4 M33.85 -31.15 Q34.25 -31.55 34.25 -32.2 34.25 -33.25 33.1 -33.85 31.9 -34.55 30.85 -33.65 L30.85 -30.8 32.35 -30.6 Q33.35 -30.6 33.85 -31.15 M16.5 -40.05 L19.1 -40.2 19.3 -38.75 1.0 -38.75 0.0 -38.7 0.0 -40.2 9.75 -40.0 16.5 -40.05 M31.85 -18.55 L31.85 -15.7 33.35 -15.5 Q34.35 -15.5 34.85 -16.05 35.25 -16.45 35.25 -17.1 35.25 -18.15 34.1 -18.75 32.9 -19.45 31.85 -18.55 M34.1 -3.25 Q32.9 -3.95 31.85 -3.05 L31.85 -0.2 33.35 0.0 Q34.35 0.0 34.85 -0.55 35.25 -0.95 35.25 -1.6 35.25 -2.65 34.1 -3.25 M-17.9 -31.0 Q-17.9 -36.05 -13.65 -35.3 -11.95 -35.05 -10.7 -33.8 -9.4 -32.45 -9.4 -30.85 -9.4 -29.1 -10.15 -28.25 -11.05 -27.2 -13.2 -27.2 -17.15 -27.2 -17.9 -29.1 L-18.0 -29.35 -18.0 -30.7 -17.9 -31.0 M-17.9 -16.0 Q-17.9 -21.05 -13.65 -20.3 -11.95 -20.05 -10.7 -18.8 -9.4 -17.45 -9.4 -15.85 -9.4 -14.1 -10.15 -13.25 -11.05 -12.2 -13.2 -12.2 -17.15 -12.2 -17.9 -14.1 L-18.0 -14.35 -18.0 -15.7 -17.9 -16.0 M-17.9 -0.5 Q-17.9 -5.55 -13.65 -4.8 -11.95 -4.55 -10.7 -3.3 -9.4 -1.95 -9.4 -0.35 -9.4 1.4 -10.15 2.25 -11.05 3.3 -13.2 3.3 -17.15 3.3 -17.9 1.4 L-18.0 1.15 -18.0 -0.2 -17.9 -0.5 M-10.65 -31.15 Q-10.25 -31.55 -10.25 -32.2 -10.25 -33.25 -11.4 -33.85 -12.6 -34.55 -13.65 -33.65 L-13.65 -30.8 -12.15 -30.6 Q-11.15 -30.6 -10.65 -31.15 M-11.4 -18.85 Q-12.6 -19.55 -13.65 -18.65 L-13.65 -15.8 -12.15 -15.6 Q-11.15 -15.6 -10.65 -16.15 -10.25 -16.55 -10.25 -17.2 -10.25 -18.25 -11.4 -18.85 M-12.15 -0.1 Q-11.15 -0.1 -10.65 -0.65 -10.25 -1.05 -10.25 -1.7 -10.25 -2.75 -11.4 -3.35 -12.6 -4.05 -13.65 -3.15 L-13.65 -0.3 -12.15 -0.1" fill="#583429" fill-rule="evenodd" stroke="none"/>
    <path d="M26.6 -29.15 L26.5 -29.1 26.5 -29.3 26.6 -29.15 M27.5 -0.4 L27.6 -0.4 27.5 -0.1 27.5 -0.4 M27.6 1.5 L27.5 1.5 27.5 1.3 27.6 1.5 M-6.1 -35.4 L-6.0 -36.35 -1.1 -36.55 Q8.3 -36.8 20.0 -36.5 L24.0 -35.9 24.0 -35.65 24.15 -29.0 Q-2.75 -29.0 -6.5 -28.55 L-6.5 -35.4 -6.1 -35.4 M25.45 2.85 L25.35 4.75 Q25.35 6.65 25.65 8.1 L22.2 8.0 21.5 7.5 21.0 8.0 Q8.0 7.6 8.0 7.75 L-5.95 8.15 -6.15 8.3 -6.25 8.2 -6.5 8.1 -6.5 2.6 13.25 3.0 25.45 2.85 M37.2 -35.1 L37.4 -35.25 37.5 -35.5 37.25 -36.65 39.15 -38.25 Q41.15 -39.75 42.9 -39.75 45.55 -39.75 46.0 -30.55 L46.0 -17.35 Q46.0 -9.5 46.5 6.35 L46.3 12.25 45.05 12.25 Q40.85 8.35 39.0 7.35 L39.0 4.8 38.0 -15.35 38.0 -20.4 38.0 -25.5 38.1 -30.55 Q38.1 -33.25 37.2 -35.1 M-18.0 -31.0 L-17.9 -31.0 -18.0 -30.7 -18.0 -31.0 M-17.9 -29.1 L-18.0 -29.1 -18.0 -29.35 -17.9 -29.1 M-18.0 -16.0 L-17.9 -16.0 -18.0 -15.7 -18.0 -16.0 M-17.9 -14.1 L-18.0 -14.1 -18.0 -14.35 -17.9 -14.1 M-18.0 -0.5 L-17.9 -0.5 -18.0 -0.2 -18.0 -0.5 M-17.9 1.4 L-18.0 1.4 -18.0 1.15 -17.9 1.4 M-20.25 10.5 L-26.65 13.25 -27.75 13.0 -28.0 12.75 Q-28.5 6.3 -28.5 -0.4 -28.0 -25.85 -27.5 -38.25 L-23.6 -38.25 -21.65 -36.9 -20.5 -36.1 -20.5 -3.6 Q-20.0 -1.35 -20.0 3.5 L-20.15 7.0 Q-20.15 8.3 -19.8 9.2 L-20.0 10.55 -20.25 10.5" fill="#3f5158" fill-rule="evenodd" stroke="none"/>
    <path d="M-6.5 -28.55 Q-2.75 -29.0 24.15 -29.0 L24.2 -29.0 24.2 -28.05 24.25 -27.05 24.25 -26.5 24.25 -26.45 Q24.6 -17.4 25.0 -12.6 L25.5 -1.0 25.5 0.4 25.45 2.85 13.25 3.0 -6.5 2.6 -6.5 -28.55 M0.85 -6.35 L1.1 -6.05 1.15 -6.2 0.85 -6.4 0.8 -6.4 0.85 -6.35" fill="#6d8c98" fill-rule="evenodd" stroke="none"/>
    <path d="M33.85 -31.15 Q33.35 -30.6 32.35 -30.6 L30.85 -30.8 30.85 -33.65 Q31.9 -34.55 33.1 -33.85 34.25 -33.25 34.25 -32.2 34.25 -31.55 33.85 -31.15 M31.85 -18.55 Q32.9 -19.45 34.1 -18.75 35.25 -18.15 35.25 -17.1 35.25 -16.45 34.85 -16.05 34.35 -15.5 33.35 -15.5 L31.85 -15.7 31.85 -18.55 M34.1 -3.25 Q35.25 -2.65 35.25 -1.6 35.25 -0.95 34.85 -0.55 34.35 0.0 33.35 0.0 L31.85 -0.2 31.85 -3.05 Q32.9 -3.95 34.1 -3.25 M-10.65 -31.15 Q-11.15 -30.6 -12.15 -30.6 L-13.65 -30.8 -13.65 -33.65 Q-12.6 -34.55 -11.4 -33.85 -10.25 -33.25 -10.25 -32.2 -10.25 -31.55 -10.65 -31.15 M-11.4 -18.85 Q-10.25 -18.25 -10.25 -17.2 -10.25 -16.55 -10.65 -16.15 -11.15 -15.6 -12.15 -15.6 L-13.65 -15.8 -13.65 -18.65 Q-12.6 -19.55 -11.4 -18.85 M-12.15 -0.1 L-13.65 -0.3 -13.65 -3.15 Q-12.6 -4.05 -11.4 -3.35 -10.25 -2.75 -10.25 -1.7 -10.25 -1.05 -10.65 -0.65 -11.15 -0.1 -12.15 -0.1" fill="#935644" fill-rule="evenodd" stroke="none"/>
    <path d="M10.3 -46.1 L11.0 -46.0 11.0 -45.4 10.75 -42.6 10.25 -42.6 Q10.4 -44.2 10.15 -46.1 L10.3 -46.1 M6.15 -46.15 L7.6 -46.25 6.0 -43.6 5.55 -43.6 5.5 -44.4 Q5.5 -45.1 6.15 -46.15" fill="#463941" fill-rule="evenodd" stroke="none"/>
    <path d="M10.3 -46.1 L10.15 -46.1 Q10.4 -44.2 10.25 -42.6 L10.75 -42.6 11.0 -45.4 11.0 -46.0 Q14.4 -45.45 15.35 -43.6 L15.8 -42.25 2.5 -42.75 1.9 -42.7 2.25 -44.2 Q3.25 -45.85 6.15 -46.15 5.5 -45.1 5.5 -44.4 L5.55 -43.6 6.0 -43.6 7.6 -46.25 7.65 -46.25 10.3 -46.1" fill="#31282d" fill-rule="evenodd" stroke="none"/>
    <path d="M10.25 -42.6 L10.75 -42.6 10.25 -42.6" fill="#65525e" fill-rule="evenodd" stroke="none"/>
    <path d="M0.85 -6.4 L1.15 -6.2 1.1 -6.05 0.85 -6.35 0.85 -6.4" fill="#455a63" fill-rule="evenodd" stroke="none"/>
    <path d="M0.85 -6.35 L0.8 -6.4 0.85 -6.4 0.85 -6.35" fill="#5b7782" fill-rule="evenodd" stroke="none"/>
  </g>
</svg>
