<?xml version="1.0" encoding="UTF-8" standalone="no"?>
<svg xmlns:ffdec="https://www.free-decompiler.com/flash" xmlns:xlink="http://www.w3.org/1999/xlink" ffdec:objectType="shape" height="85.85px" width="94.45px" xmlns="http://www.w3.org/2000/svg">
  <g transform="matrix(1.0, 0.0, 0.0, 1.0, 14.7, 90.85)">
    <path d="M65.65 -87.3 Q67.5 -88.2 69.5 -88.2 72.4 -88.2 74.9 -84.0 77.1 -80.4 77.1 -77.8 77.1 -74.25 73.7 -71.6 70.6 -69.2 67.15 -69.2 65.05 -69.2 62.3 -70.95 59.95 -72.45 59.05 -74.55 L56.95 -73.75 Q57.65 -71.65 59.2 -70.15 57.15 -70.65 55.35 -71.75 52.15 -73.7 52.25 -75.8 L51.65 -80.5 Q51.4 -81.5 51.0 -81.95 L53.25 -83.3 56.95 -85.0 Q57.95 -86.1 61.3 -87.0 L65.65 -87.3 M63.65 -67.3 L63.5 -67.55 63.85 -67.45 63.65 -67.3 M48.9 -80.6 L48.7 -80.6 48.85 -80.7 48.9 -80.6 M20.25 -46.05 Q18.65 -45.15 18.25 -45.15 16.95 -45.15 15.15 -45.9 L14.65 -46.1 13.2 -46.8 13.3 -48.7 Q13.5 -49.75 14.55 -52.35 L14.6 -53.8 14.9 -53.95 14.95 -54.5 14.65 -54.9 Q17.45 -60.1 21.65 -64.35 26.1 -68.85 31.4 -71.6 L36.95 -74.6 37.2 -74.75 37.15 -73.95 Q37.15 -69.4 41.95 -63.85 47.4 -57.5 54.35 -57.3 L52.45 -55.25 Q51.65 -54.15 49.65 -53.1 L49.2 -52.85 48.55 -51.7 47.0 -50.3 Q45.05 -47.3 38.25 -42.8 35.35 -40.85 32.75 -39.6 L32.7 -39.55 32.65 -39.0 31.65 -39.9 29.45 -42.9 28.6 -43.2 Q28.0 -43.2 25.9 -41.8 25.4 -42.7 25.4 -44.75 L25.55 -46.0 25.2 -47.2 24.6 -48.15 Q24.35 -48.1 24.1 -47.45 23.9 -46.95 23.15 -46.95 21.95 -46.95 20.6 -46.25 L20.25 -46.2 20.25 -46.05" fill="#cdac98" fill-rule="evenodd" stroke="none"/>
    <path d="M62.8 -88.85 Q65.55 -90.85 68.2 -90.85 72.55 -90.85 76.45 -85.55 79.75 -81.05 79.75 -78.35 79.75 -73.35 75.1 -69.8 71.15 -66.85 67.55 -66.85 L67.35 -66.85 65.95 -65.75 64.2 -63.35 59.6 -58.2 59.45 -58.0 Q59.3 -57.8 58.75 -57.6 54.3 -54.9 49.15 -49.6 L44.65 -44.6 43.0 -42.9 40.9 -39.2 Q41.95 -37.85 43.2 -33.8 44.65 -29.0 45.7 -22.95 45.7 -18.45 41.6 -15.0 L35.85 -11.0 Q33.2 -8.5 29.5 -7.7 L21.45 -7.15 Q21.1 -7.15 19.85 -7.9 L18.85 -8.55 Q14.85 -5.0 13.95 -5.0 L11.8 -5.55 9.65 -6.1 8.3 -6.15 8.2 -6.0 7.7 -6.25 7.65 -6.25 7.25 -6.35 7.1 -6.6 7.05 -6.65 Q5.55 -7.7 5.55 -9.65 L6.2 -10.65 4.25 -11.45 Q-0.35 -13.4 -1.2 -14.7 L-4.0 -18.75 Q-4.45 -18.3 -5.85 -17.4 -7.75 -16.2 -8.15 -16.2 L-11.05 -17.6 Q-13.95 -19.7 -13.95 -23.4 -13.95 -24.9 -11.3 -27.85 L-10.35 -28.75 Q-12.85 -33.85 -13.5 -38.65 L-14.6 -40.15 -14.7 -40.75 -13.85 -41.0 -12.85 -40.65 -8.8 -43.4 Q-4.5 -45.85 -4.5 -46.4 -4.5 -48.0 -4.8 -48.05 -5.4 -48.15 -5.95 -49.5 -5.15 -50.25 -3.1 -50.25 L-0.2 -50.1 Q2.0 -50.1 1.9 -53.25 L1.35 -58.85 1.45 -59.6 Q1.7 -59.95 2.6 -59.95 3.15 -59.95 4.55 -58.85 L6.5 -57.5 9.4 -57.1 12.15 -56.7 12.4 -56.6 13.25 -58.1 14.95 -60.75 Q16.4 -63.9 18.8 -65.3 20.2 -66.1 23.35 -68.8 26.4 -71.4 27.8 -72.15 L38.55 -78.1 Q46.45 -82.4 47.55 -82.4 L53.25 -85.3 Q55.75 -86.5 57.8 -87.3 L58.4 -87.85 Q60.3 -89.05 61.85 -88.65 L62.8 -88.85 M65.65 -87.3 L61.3 -87.0 Q57.95 -86.1 56.95 -85.0 L53.25 -83.3 51.0 -81.95 Q51.4 -81.5 51.65 -80.5 L52.25 -75.8 Q52.15 -73.7 55.35 -71.75 57.15 -70.65 59.2 -70.15 57.65 -71.65 56.95 -73.75 L59.05 -74.55 Q59.95 -72.45 62.3 -70.95 65.05 -69.2 67.15 -69.2 70.6 -69.2 73.7 -71.6 77.1 -74.25 77.1 -77.8 77.1 -80.4 74.9 -84.0 72.4 -88.2 69.5 -88.2 67.5 -88.2 65.65 -87.3 M48.7 -80.6 Q44.05 -77.85 42.2 -77.1 41.25 -76.75 40.15 -76.2 L40.2 -74.45 Q39.4 -71.45 41.8 -67.9 44.8 -63.4 49.85 -61.25 52.65 -60.1 57.05 -59.35 L57.65 -59.8 61.6 -64.0 61.85 -64.3 61.45 -64.2 60.55 -64.0 61.5 -64.8 61.5 -64.95 61.6 -65.05 62.9 -66.6 62.7 -66.75 63.65 -67.3 63.85 -67.45 63.5 -67.55 Q62.45 -67.0 59.95 -67.0 58.6 -67.0 55.0 -69.1 50.95 -71.45 50.35 -73.4 49.8 -75.35 48.9 -80.6 L48.85 -80.7 48.7 -80.6 M20.6 -46.25 Q21.95 -46.95 23.15 -46.95 23.9 -46.95 24.1 -47.45 24.35 -48.1 24.6 -48.15 L25.2 -47.2 25.55 -46.0 25.4 -44.75 Q25.4 -42.7 25.9 -41.8 28.0 -43.2 28.6 -43.2 L29.45 -42.9 31.65 -39.9 32.65 -39.0 32.7 -39.55 32.75 -39.6 Q35.35 -40.85 38.25 -42.8 45.05 -47.3 47.0 -50.3 L48.55 -51.7 49.2 -52.85 49.65 -53.1 Q51.65 -54.15 52.45 -55.25 L54.35 -57.3 Q47.4 -57.5 41.95 -63.85 37.15 -69.4 37.15 -73.95 L37.2 -74.75 36.95 -74.6 31.4 -71.6 Q26.1 -68.85 21.65 -64.35 17.45 -60.1 14.65 -54.9 L14.95 -54.5 14.9 -53.95 14.6 -53.8 14.55 -52.35 Q13.5 -49.75 13.3 -48.7 L13.2 -46.8 14.65 -46.1 15.15 -45.9 Q16.95 -45.15 18.25 -45.15 18.65 -45.15 20.25 -46.05 L20.6 -46.25 M1.6 -40.1 Q3.45 -38.85 4.3 -38.8 L7.0 -43.05 7.5 -43.75 Q9.1 -45.8 10.7 -46.55 L10.65 -47.4 10.75 -50.95 Q11.0 -52.85 11.6 -54.05 L8.45 -54.9 Q4.9 -56.0 4.05 -56.55 4.95 -51.35 2.8 -49.35 1.3 -47.9 -2.2 -47.85 L-2.65 -47.9 -2.4 -47.7 Q-1.95 -47.2 -1.95 -46.1 -1.95 -44.75 -6.45 -42.0 -9.05 -40.4 -10.9 -39.55 L-11.0 -39.5 -10.8 -39.35 Q-8.4 -37.75 -6.4 -37.05 L-6.45 -36.95 -6.1 -36.95 Q-4.85 -36.95 -3.4 -39.1 -2.0 -41.3 -1.2 -41.3 -0.2 -41.3 1.55 -40.15 L1.6 -40.1 M33.85 -37.5 L33.9 -36.9 Q33.85 -36.6 33.05 -36.6 L32.3 -36.75 30.7 -35.95 31.7 -37.05 Q30.3 -37.95 28.45 -40.45 L26.9 -39.35 Q26.1 -38.7 25.55 -38.7 L23.85 -39.25 Q22.45 -40.55 23.4 -44.2 L23.05 -44.4 21.9 -44.65 20.15 -43.6 Q18.55 -42.55 17.9 -42.55 16.8 -42.55 14.8 -43.4 L12.4 -44.3 Q11.9 -44.3 10.4 -42.6 L8.55 -40.55 Q8.35 -40.4 7.3 -37.9 6.4 -35.85 5.2 -35.85 4.35 -35.85 2.8 -37.15 1.25 -38.5 -0.2 -38.5 L-2.7 -36.55 -5.35 -34.65 -6.65 -34.65 -6.65 -34.6 -6.9 -34.7 -7.2 -34.75 -7.2 -34.85 Q-9.25 -35.7 -10.75 -36.6 L-10.7 -35.45 Q-10.2 -30.15 -3.15 -21.2 -1.05 -18.6 1.4 -16.15 3.75 -13.75 4.4 -13.5 L6.95 -12.6 7.7 -12.3 8.35 -12.95 Q8.85 -12.65 9.2 -12.65 L10.05 -12.75 10.25 -12.45 Q13.1 -13.85 19.15 -19.25 L27.05 -26.7 35.1 -35.85 37.8 -39.6 33.85 -37.55 33.85 -37.5 M36.25 -33.25 L36.7 -32.3 Q37.3 -30.45 37.3 -28.7 37.3 -26.5 26.3 -15.65 L20.45 -10.05 22.6 -10.1 27.2 -9.65 Q29.75 -9.65 36.4 -14.7 43.3 -19.9 43.3 -22.55 43.3 -23.45 41.5 -29.1 L38.9 -36.45 36.25 -33.25 M33.7 -29.8 L33.45 -29.35 33.5 -30.2 27.65 -24.2 Q26.8 -23.95 26.05 -23.3 25.05 -22.5 24.7 -21.35 12.35 -9.65 9.45 -9.65 L9.05 -9.7 Q8.55 -9.2 8.25 -9.0 L8.5 -8.7 9.45 -8.8 11.6 -8.2 Q13.05 -7.6 13.75 -7.6 15.1 -7.6 25.1 -17.9 35.1 -28.25 35.1 -29.75 L34.85 -31.15 33.7 -29.8 M-8.9 -26.05 L-9.1 -26.4 -9.15 -26.3 -10.1 -25.35 Q-11.55 -23.9 -11.55 -23.1 L-11.3 -19.25 -9.55 -19.0 -8.0 -18.8 Q-7.5 -18.8 -6.6 -19.5 L-5.15 -20.4 -8.9 -26.05" fill="#000000" fill-rule="evenodd" stroke="none"/>
    <path d="M61.6 -64.0 L57.65 -59.8 57.05 -59.35 Q52.65 -60.1 49.85 -61.25 44.8 -63.4 41.8 -67.9 39.4 -71.45 40.2 -74.45 L40.15 -76.2 Q41.25 -76.75 42.2 -77.1 44.05 -77.85 48.7 -80.6 L48.9 -80.6 Q49.8 -75.35 50.35 -73.4 50.95 -71.45 55.0 -69.1 58.6 -67.0 59.95 -67.0 62.45 -67.0 63.5 -67.55 L63.65 -67.3 62.7 -66.75 62.9 -66.6 61.6 -65.05 61.5 -64.95 61.5 -64.8 60.55 -64.0 61.45 -64.2 61.6 -64.0 M33.7 -29.8 L34.85 -31.15 35.1 -29.75 Q35.1 -28.25 25.1 -17.9 15.1 -7.6 13.75 -7.6 13.05 -7.6 11.6 -8.2 L9.45 -8.8 8.5 -8.7 8.25 -9.0 Q8.55 -9.2 9.05 -9.7 L9.45 -9.65 Q12.35 -9.65 24.7 -21.35 25.05 -22.5 26.05 -23.3 26.8 -23.95 27.65 -24.2 L33.5 -30.2 33.45 -29.35 33.7 -29.8 M-9.15 -26.3 L-8.9 -26.05 -5.15 -20.4 -6.6 -19.5 Q-7.5 -18.8 -8.0 -18.8 L-9.55 -19.0 -11.3 -19.25 -11.55 -23.1 Q-11.55 -23.9 -10.1 -25.35 L-9.15 -26.3" fill="#915e3c" fill-rule="evenodd" stroke="none"/>
    <path d="M33.85 -37.5 L33.85 -37.55 37.8 -39.6 35.1 -35.85 27.05 -26.7 19.15 -19.25 Q13.1 -13.85 10.25 -12.45 L10.05 -12.75 9.2 -12.65 Q8.85 -12.65 8.35 -12.95 L7.7 -12.3 6.95 -12.6 4.4 -13.5 Q3.75 -13.75 1.4 -16.15 -1.05 -18.6 -3.15 -21.2 -10.2 -30.15 -10.7 -35.45 L-10.75 -36.6 Q-9.25 -35.7 -7.2 -34.85 L-7.2 -34.75 -6.9 -34.7 -6.65 -34.6 -6.65 -34.65 -5.35 -34.65 -2.7 -36.55 -0.2 -38.5 Q1.25 -38.5 2.8 -37.15 4.35 -35.85 5.2 -35.85 6.4 -35.85 7.3 -37.9 8.35 -40.4 8.55 -40.55 L10.4 -42.6 Q11.9 -44.3 12.4 -44.3 L14.8 -43.4 Q16.8 -42.55 17.9 -42.55 18.55 -42.55 20.15 -43.6 L21.9 -44.65 23.05 -44.4 23.4 -44.2 Q22.45 -40.55 23.85 -39.25 L25.55 -38.7 Q26.1 -38.7 26.9 -39.35 L28.45 -40.45 Q30.3 -37.95 31.7 -37.05 L30.7 -35.95 32.3 -36.75 33.05 -36.6 Q33.85 -36.6 33.9 -36.9 L33.85 -37.5" fill="#046193" fill-rule="evenodd" stroke="none"/>
    <path d="M36.25 -33.25 L38.9 -36.45 41.5 -29.1 Q43.3 -23.45 43.3 -22.55 43.3 -19.9 36.4 -14.7 29.75 -9.65 27.2 -9.65 L22.6 -10.1 20.45 -10.05 26.3 -15.65 Q37.3 -26.5 37.3 -28.7 37.3 -30.45 36.7 -32.3 L36.25 -33.25" fill="#8a5242" fill-rule="evenodd" stroke="none"/>
    <path d="M-2.2 -47.85 Q1.3 -47.9 2.8 -49.35 4.95 -51.35 4.05 -56.55 4.9 -56.0 8.45 -54.9 L11.6 -54.05 Q11.0 -52.85 10.75 -50.95 L10.65 -47.4 10.7 -46.55 Q9.1 -45.8 7.5 -43.75 L7.0 -43.05 4.3 -38.8 Q3.45 -38.85 1.6 -40.1 L1.6 -40.15 1.55 -40.15 Q-0.2 -41.3 -1.2 -41.3 -2.0 -41.3 -3.4 -39.1 -4.85 -36.95 -6.1 -36.95 L-6.35 -37.15 -6.4 -37.05 Q-8.4 -37.75 -10.8 -39.35 L-10.9 -39.55 Q-9.05 -40.4 -6.45 -42.0 -1.95 -44.75 -1.95 -46.1 -1.95 -47.2 -2.4 -47.7 L-2.2 -47.85" fill="#02334d" fill-rule="evenodd" stroke="none"/>
  </g>
</svg>
