<?xml version="1.0" encoding="UTF-8" standalone="no"?>
<svg xmlns:ffdec="https://www.free-decompiler.com/flash" xmlns:xlink="http://www.w3.org/1999/xlink" ffdec:objectType="shape" height="88.8px" width="157.75px" xmlns="http://www.w3.org/2000/svg">
  <g transform="matrix(1.0, 0.0, 0.0, 1.0, 14.7, 114.1)">
    <path d="M13.2 -62.2 L13.05 -62.35 Q14.1 -63.25 15.05 -63.05 L16.35 -62.7 20.4 -63.85 25.7 -65.45 Q32.2 -67.55 35.85 -69.45 39.75 -71.5 46.75 -76.55 50.15 -79.0 52.1 -82.0 54.2 -85.15 55.1 -85.9 56.65 -84.35 56.65 -83.5 L55.55 -75.9 54.2 -68.2 Q62.65 -72.5 68.15 -80.55 71.05 -84.75 73.55 -89.95 L74.4 -88.95 75.05 -87.55 Q75.05 -85.3 74.1 -80.8 L72.65 -73.45 72.5 -73.2 Q78.45 -77.55 81.3 -83.35 83.1 -87.1 83.8 -92.15 83.9 -92.15 84.2 -92.3 L85.3 -92.5 Q86.45 -92.5 87.05 -89.2 87.45 -87.0 87.45 -85.15 87.45 -82.85 86.4 -76.75 L86.5 -76.55 86.9 -76.2 Q87.8 -76.45 91.75 -78.35 94.9 -79.85 96.8 -79.85 L96.95 -79.85 101.65 -82.45 116.0 -90.65 118.0 -92.3 118.05 -92.45 Q118.4 -92.8 120.0 -93.75 120.6 -94.0 122.0 -95.6 L124.85 -98.15 124.75 -98.85 Q124.75 -103.9 125.15 -107.25 125.8 -111.35 130.6 -113.1 133.25 -114.1 135.85 -114.1 139.6 -114.1 141.5 -111.85 143.05 -110.0 143.05 -107.1 143.05 -105.2 141.1 -101.75 139.15 -98.3 139.15 -97.25 139.15 -96.3 137.2 -93.55 135.0 -90.55 133.2 -89.65 L132.8 -89.55 Q131.1 -87.3 122.85 -79.25 L114.9 -71.65 114.9 -71.5 Q114.9 -71.3 114.45 -71.25 L112.1 -69.1 112.1 -68.75 Q112.1 -67.55 105.95 -62.65 99.95 -57.85 93.25 -53.65 82.45 -46.85 70.45 -40.85 58.7 -35.25 53.95 -32.7 47.8 -29.35 42.9 -28.2 L34.5 -27.05 27.8 -26.0 19.9 -25.3 9.2 -26.15 6.6 -26.65 3.95 -27.2 Q2.55 -27.2 -6.05 -31.9 -14.7 -36.6 -14.7 -37.4 L-14.6 -38.1 -14.6 -38.05 -14.45 -37.2 -13.8 -37.3 -12.9 -37.75 Q-5.15 -33.4 -0.35 -31.3 8.85 -27.35 19.35 -27.35 L28.25 -28.1 35.95 -29.15 39.55 -29.95 43.0 -30.55 Q48.25 -31.15 51.7 -34.3 54.8 -37.15 58.7 -37.15 60.8 -37.15 67.9 -41.35 L85.8 -51.9 Q88.05 -53.15 92.3 -56.05 95.9 -58.45 98.0 -60.05 L104.55 -65.65 Q108.4 -68.95 110.55 -70.0 L112.75 -72.3 112.05 -73.3 111.0 -75.15 109.5 -77.5 108.9 -78.45 Q108.2 -78.8 108.0 -79.45 106.55 -80.8 104.7 -80.95 L104.5 -81.1 Q104.3 -81.2 104.25 -81.75 102.05 -80.95 100.2 -80.0 L99.95 -79.8 100.2 -79.8 100.65 -79.8 Q91.55 -74.8 90.35 -74.45 L90.4 -74.55 Q88.05 -73.45 87.15 -73.45 86.6 -73.45 86.05 -73.85 L84.9 -73.4 Q84.4 -73.45 84.2 -73.6 83.85 -73.85 83.85 -74.7 83.85 -76.2 84.6 -79.45 85.35 -82.7 85.35 -85.5 L85.2 -86.7 85.0 -87.2 84.9 -86.8 Q81.6 -76.3 70.5 -69.3 L69.85 -69.25 Q69.6 -69.25 69.6 -70.1 L71.0 -76.55 72.65 -83.9 72.65 -84.15 72.55 -83.95 Q68.9 -78.25 66.35 -75.3 61.85 -70.15 52.35 -64.8 L51.55 -64.95 Q51.25 -65.1 51.25 -66.0 L52.65 -72.15 Q54.0 -78.35 54.0 -79.25 L53.9 -80.4 53.65 -80.85 Q52.55 -80.15 52.2 -79.3 51.75 -78.15 51.0 -77.35 47.75 -73.9 31.65 -65.3 29.55 -64.15 28.0 -63.85 L25.3 -63.35 19.95 -61.45 Q17.5 -60.6 16.05 -60.6 15.65 -60.6 14.5 -61.3 L14.2 -61.5 14.4 -62.15 13.65 -62.55 13.2 -62.2 M126.95 -98.15 Q129.0 -97.6 130.7 -95.7 132.15 -94.05 133.1 -91.85 L140.7 -105.9 Q140.7 -108.8 140.25 -110.05 139.55 -111.9 137.5 -111.9 129.6 -111.9 128.0 -108.35 127.45 -107.05 127.5 -104.9 L127.7 -101.2 127.4 -99.5 126.95 -98.2 126.9 -98.15 126.95 -98.15 M126.8 -95.5 Q126.05 -95.8 125.6 -96.2 L122.9 -93.4 117.8 -89.45 Q117.05 -88.3 115.05 -87.1 110.25 -84.1 107.8 -83.0 111.6 -79.1 112.75 -75.8 L113.8 -74.55 114.25 -73.85 118.0 -77.75 131.2 -90.95 130.65 -91.7 Q129.7 -93.05 129.0 -94.35 L126.8 -95.5" fill="#000000" fill-rule="evenodd" stroke="none"/>
    <path d="M-14.6 -38.1 Q-14.55 -41.2 -11.5 -43.35 L1.2 -51.8 Q4.75 -54.35 8.8 -58.15 L13.2 -62.2 13.65 -62.55 14.4 -62.15 14.2 -61.5 14.2 -61.45 14.5 -61.3 Q15.65 -60.6 16.05 -60.6 17.5 -60.6 19.95 -61.45 L25.3 -63.35 28.0 -63.85 Q29.55 -64.15 31.65 -65.3 47.75 -73.9 51.0 -77.35 51.75 -78.15 52.2 -79.3 52.55 -80.15 53.65 -80.85 L53.9 -80.4 54.0 -79.25 Q54.0 -78.35 52.65 -72.15 L51.25 -66.0 Q51.25 -65.1 51.55 -64.95 L52.35 -64.8 Q61.85 -70.15 66.35 -75.3 68.9 -78.25 72.55 -83.95 L72.65 -83.9 71.0 -76.55 69.6 -70.1 Q69.6 -69.25 69.85 -69.25 L70.5 -69.3 Q81.6 -76.3 84.9 -86.8 L85.2 -86.7 85.35 -85.5 Q85.35 -82.7 84.6 -79.45 83.85 -76.2 83.85 -74.7 83.85 -73.85 84.2 -73.6 84.4 -73.45 84.9 -73.4 L86.05 -73.85 Q86.6 -73.45 87.15 -73.45 88.05 -73.45 90.4 -74.55 L90.35 -74.45 Q91.55 -74.8 100.65 -79.8 L100.2 -79.8 100.2 -80.0 Q102.05 -80.95 104.25 -81.75 104.3 -81.2 104.5 -81.1 L104.7 -80.95 Q106.55 -80.8 108.0 -79.45 108.2 -78.8 108.9 -78.45 L109.5 -77.5 111.0 -75.15 112.05 -73.3 112.75 -72.3 110.55 -70.0 Q108.4 -68.95 104.55 -65.65 L98.0 -60.05 Q95.9 -58.45 92.3 -56.05 88.05 -53.15 85.8 -51.9 L67.9 -41.35 Q60.8 -37.15 58.7 -37.15 54.8 -37.15 51.7 -34.3 48.25 -31.15 43.0 -30.55 L39.55 -29.95 35.95 -29.15 28.25 -28.1 19.35 -27.35 Q8.85 -27.35 -0.35 -31.3 -5.15 -33.4 -12.9 -37.75 L-13.8 -37.3 -14.45 -37.2 -14.6 -38.05 -14.6 -38.1" fill="#282828" fill-rule="evenodd" stroke="none"/>
    <path d="M126.95 -98.2 L127.4 -99.5 127.7 -101.2 127.5 -104.9 Q127.45 -107.05 128.0 -108.35 129.6 -111.9 137.5 -111.9 139.55 -111.9 140.25 -110.05 140.7 -108.8 140.7 -105.9 L133.1 -91.85 Q132.15 -94.05 130.7 -95.7 129.0 -97.6 126.95 -98.15 L126.95 -98.2" fill="#666666" fill-rule="evenodd" stroke="none"/>
    <path d="M126.8 -95.5 L129.0 -94.35 Q129.7 -93.05 130.65 -91.7 L131.2 -90.95 118.0 -77.75 114.25 -73.85 113.8 -74.55 112.75 -75.8 Q111.6 -79.1 107.8 -83.0 110.25 -84.1 115.05 -87.1 117.05 -88.3 117.8 -89.45 L122.9 -93.4 125.6 -96.2 Q126.05 -95.8 126.8 -95.5" fill="#046193" fill-rule="evenodd" stroke="none"/>
  </g>
</svg>
