<?xml version="1.0" encoding="UTF-8" standalone="no"?>
<svg xmlns:ffdec="https://www.free-decompiler.com/flash" xmlns:xlink="http://www.w3.org/1999/xlink" ffdec:objectType="shape" height="35.35px" width="40.6px" xmlns="http://www.w3.org/2000/svg">
  <g transform="matrix(1.0, 0.0, 0.0, 1.0, 25.1, 33.3)">
    <path d="M4.6 -28.85 Q5.35 -25.9 6.6 -23.4 7.45 -21.8 8.4 -20.7 9.15 -17.5 10.8 -14.15 12.75 -10.3 13.35 -8.05 L13.75 -6.45 14.0 -6.2 Q15.15 -5.1 15.4 -4.2 L15.45 -3.3 Q15.25 -3.1 13.65 -2.75 7.25 -1.15 -1.6 2.05 -2.2 1.4 -2.85 1.0 L-3.2 0.9 -3.05 0.75 -3.45 0.05 -4.05 -1.4 Q-4.9 -4.5 -5.4 -7.55 L-5.5 -7.3 Q-6.45 -5.3 -8.15 -3.95 -7.05 -2.55 -6.65 1.05 -7.05 1.85 -8.2 1.75 L-8.35 1.55 Q-10.6 2.05 -14.95 1.6 -19.0 0.5 -21.9 -4.0 -23.8 -7.0 -24.0 -8.95 L-24.25 -9.55 -24.4 -10.0 -24.75 -10.05 -24.55 -10.25 -25.1 -12.2 -24.4 -13.3 -23.85 -13.6 -22.8 -14.95 -21.25 -16.4 Q-18.55 -18.75 -17.75 -21.75 L-17.05 -22.55 Q-15.5 -26.65 -13.5 -29.2 -9.25 -34.55 -3.1 -32.9 -2.0 -32.6 -0.9 -31.85 0.35 -32.1 1.7 -31.3 L4.6 -28.85 M7.25 -3.6 L8.1 -6.7 Q8.6 -8.25 10.7 -8.5 L9.95 -10.85 8.6 -13.95 7.25 -17.1 6.65 -19.2 6.0 -18.9 Q1.45 -17.15 -0.75 -16.0 L2.9 -2.1 4.25 -2.45 7.35 -3.25 7.4 -3.25 7.7 -3.35 7.25 -3.6 M10.9 -6.05 L8.8 -3.65 12.2 -4.5 10.9 -6.05 M-14.05 -0.4 L-14.0 -1.3 Q-13.65 -2.6 -12.75 -3.65 -11.45 -5.1 -9.8 -4.85 L-9.7 -5.65 -8.55 -7.65 -7.55 -9.6 -6.4 -12.2 -6.1 -12.8 -6.35 -16.95 -7.65 -17.25 Q-9.75 -17.8 -10.25 -18.1 L-10.4 -18.2 -10.4 -18.15 Q-10.75 -17.1 -14.2 -12.9 -18.05 -8.3 -20.7 -7.2 L-20.0 -5.45 Q-18.55 -1.7 -14.05 -0.35 L-13.7 -0.3 -9.15 0.0 -8.95 0.05 -9.2 -0.45 Q-9.7 -1.9 -10.25 -2.55 L-11.45 -1.45 Q-12.2 -1.0 -13.75 -0.45 L-14.05 -0.4" fill="#000000" fill-rule="evenodd" stroke="none"/>
    <path d="M7.35 -3.25 L7.25 -3.6 7.4 -3.25 7.35 -3.25" fill="#5b6171" fill-rule="evenodd" stroke="none"/>
    <path d="M7.35 -3.25 L4.25 -2.45 2.9 -2.1 -0.75 -16.0 Q1.45 -17.15 6.0 -18.9 L6.65 -19.2 7.25 -17.1 8.6 -13.95 9.95 -10.85 10.7 -8.5 Q8.6 -8.25 8.1 -6.7 L7.25 -3.6 7.35 -3.25 M-10.25 -18.1 Q-9.75 -17.8 -7.65 -17.25 L-6.35 -16.95 -6.1 -12.8 -6.4 -12.2 -7.55 -9.6 -8.55 -7.65 -9.7 -5.65 -9.8 -4.85 Q-11.45 -5.1 -12.75 -3.65 -13.65 -2.6 -14.0 -1.3 L-14.05 -0.4 -14.05 -0.35 Q-18.55 -1.7 -20.0 -5.45 L-20.7 -7.2 Q-18.05 -8.3 -14.2 -12.9 -10.75 -17.1 -10.4 -18.15 L-10.25 -18.1 M10.9 -6.05 L12.2 -4.5 8.8 -3.65 10.9 -6.05 M-13.75 -0.45 Q-12.2 -1.0 -11.45 -1.45 L-10.25 -2.55 Q-9.7 -1.9 -9.2 -0.45 L-9.15 0.0 -13.7 -0.3 -13.75 -0.45" fill="#333333" fill-rule="evenodd" stroke="none"/>
  </g>
</svg>
