<?xml version="1.0" encoding="UTF-8" standalone="no"?>
<svg xmlns:ffdec="https://www.free-decompiler.com/flash" xmlns:xlink="http://www.w3.org/1999/xlink" ffdec:objectType="shape" height="70.3px" width="78.0px" xmlns="http://www.w3.org/2000/svg">
  <g transform="matrix(1.0, 0.0, 0.0, 1.0, 27.0, 29.3)">
    <path d="M15.65 -24.9 Q17.35 -24.55 20.85 -23.0 L22.9 -21.05 24.5 -19.0 24.7 -18.65 Q26.0 -17.95 27.7 -16.55 30.8 -14.05 31.0 -12.55 32.45 -12.0 35.05 -10.25 39.5 -7.25 41.85 -5.0 44.75 -2.75 47.9 1.6 51.0 5.85 51.0 7.4 51.0 10.65 49.25 13.05 46.35 17.0 39.5 17.0 32.1 17.0 26.05 9.95 L26.0 11.35 Q26.0 18.8 26.2 20.1 L29.0 31.5 29.0 37.5 28.0 38.0 27.75 37.7 25.65 38.5 Q22.25 39.5 18.0 39.5 L15.1 39.05 3.25 40.0 -1.85 39.7 -2.3 40.25 -3.0 40.5 -3.85 40.25 -7.75 41.0 Q-11.4 41.0 -16.8 39.1 -21.5 37.5 -23.05 36.25 -25.5 34.3 -26.1 33.05 -26.5 32.15 -26.5 29.65 L-26.0 26.4 Q-25.5 23.75 -25.5 23.1 -27.0 9.35 -27.0 6.8 -27.0 -2.5 -24.7 -11.6 -21.6 -24.05 -15.8 -24.75 L-15.65 -24.85 -15.6 -24.8 Q-14.6 -26.1 -12.75 -27.0 -9.9 -28.4 -7.0 -27.4 -4.65 -30.45 3.35 -28.6 7.15 -27.7 10.7 -26.05 L12.7 -25.0 13.05 -25.1 14.1 -24.85 15.65 -24.9 M16.3 -21.7 L16.85 -19.85 Q19.0 -13.3 19.0 -12.15 L19.0 -11.55 19.3 -11.05 19.5 -9.65 19.05 -7.55 21.0 -8.0 24.4 -8.5 24.0 -9.0 24.0 -10.1 Q24.0 -14.4 21.85 -18.3 19.5 -22.5 15.75 -22.95 L16.3 -21.7 M16.85 -10.0 Q16.65 -10.35 16.8 -10.9 L17.0 -12.3 Q17.0 -13.35 14.5 -19.15 L13.0 -22.5 -0.75 -27.25 Q-2.8 -27.25 -4.0 -25.85 L-4.05 -25.75 -3.25 -25.1 Q-0.7 -22.0 1.1 -18.15 3.0 -14.1 3.0 -11.4 L2.9 -8.65 Q3.45 -7.35 3.7 -4.9 L3.95 -1.55 Q4.75 -2.0 6.3 -2.1 L15.45 -1.6 Q16.0 -6.9 17.3 -9.85 L17.35 -10.0 16.85 -10.0 M-20.0 24.15 Q-18.85 22.6 -16.05 21.75 -13.1 20.8 -11.05 18.9 L-7.8 15.0 -5.5 11.25 Q-5.3 10.15 -4.75 10.15 L1.45 11.25 2.0 4.6 1.75 1.6 1.5 -2.1 1.0 -5.85 0.6 -8.05 Q-4.3 -8.45 -10.55 -13.2 -13.8 -15.7 -15.4 -17.6 -17.0 -19.5 -17.0 -20.85 L-17.0 -20.9 -17.0 -20.95 -16.95 -21.65 -16.85 -22.3 -17.25 -21.8 -19.1 -19.4 -19.2 -19.25 -19.25 -19.15 -19.35 -19.05 -19.45 -18.95 -19.5 -18.85 -19.6 -18.75 -19.65 -18.65 -22.1 -14.15 -23.1 -10.95 -23.4 -9.15 -23.5 -8.5 -24.35 -0.65 -24.8 7.25 -24.15 15.5 -23.5 23.1 -24.0 26.3 -24.5 29.5 Q-24.5 32.05 -22.85 33.65 L-22.55 33.9 -22.25 32.8 -22.2 32.75 -22.15 32.55 -22.15 32.5 -21.0 28.75 Q-21.0 26.4 -20.55 25.15 L-20.3 24.65 -20.0 24.15 M25.05 -6.45 Q23.4 -5.5 19.5 -5.5 L18.45 -5.55 18.0 -4.0 Q17.1 -0.25 17.0 2.0 16.8 4.25 16.85 7.8 L17.0 13.55 Q17.0 17.6 17.65 25.35 17.95 32.25 16.5 37.25 L19.85 37.25 23.95 36.5 24.15 36.45 26.75 36.0 26.95 36.05 26.75 34.75 26.5 31.3 Q25.35 27.05 25.0 24.55 24.6 21.95 24.25 16.95 L24.0 11.4 Q24.0 8.65 24.35 5.9 24.9 1.5 26.4 -2.85 28.75 -9.9 28.75 -12.1 L26.05 -14.7 25.75 -14.95 25.8 -14.45 26.0 -10.0 26.0 -7.4 25.9 -7.2 25.05 -6.45 M-14.55 -22.8 Q-15.0 -22.0 -15.0 -21.0 -15.0 -18.8 -8.2 -14.45 -1.35 -10.05 1.0 -10.75 L1.0 -13.0 -1.7 -17.55 -4.55 -22.75 -5.65 -24.3 -5.95 -24.5 -6.25 -24.5 -8.0 -24.75 -7.9 -25.25 -10.55 -25.15 Q-13.65 -24.55 -14.55 -22.8 M30.6 -10.25 L28.5 -2.7 Q26.9 2.9 26.3 7.2 35.55 14.8 36.25 14.8 44.8 14.8 47.6 11.5 48.85 10.05 48.85 7.5 L48.35 6.25 47.5 4.75 45.75 2.05 40.5 -3.1 34.3 -7.55 Q31.9 -9.2 30.6 -10.25 M1.3 12.45 L-1.0 12.95 -2.55 12.75 -7.45 17.75 Q-12.55 23.0 -15.5 24.0 -17.95 24.8 -18.4 26.8 L-19.0 30.25 -19.85 33.05 -20.4 35.15 -18.3 35.75 -14.9 36.75 -11.0 38.0 -9.2 38.35 -6.5 38.5 -3.95 38.4 Q-3.75 37.0 -3.0 35.2 -1.65 31.95 -1.3 30.5 -0.75 28.35 0.25 21.8 L1.2 13.25 1.3 12.45 M4.85 14.85 L15.0 15.45 15.0 15.35 Q15.0 4.15 15.2 1.0 6.65 0.95 4.0 -0.05 L4.0 4.3 Q4.0 8.7 3.3 14.9 L4.85 14.85 M1.9 24.65 Q0.45 33.85 -0.95 37.75 1.05 37.05 4.9 37.1 L14.55 37.05 15.05 34.75 Q15.55 32.75 15.5 31.75 L15.0 26.05 15.0 17.75 12.0 18.0 2.95 17.55 1.9 24.65" fill="#000000" fill-rule="evenodd" stroke="none"/>
    <path d="M16.3 -21.7 L15.75 -22.95 Q19.5 -22.5 21.85 -18.3 24.0 -14.4 24.0 -10.1 L24.0 -9.0 24.4 -8.5 21.0 -8.0 19.05 -7.55 19.5 -9.65 19.3 -11.05 19.0 -11.55 19.0 -12.15 Q19.0 -13.3 16.85 -19.85 L16.3 -21.7 M-15.4 -17.6 Q-13.8 -15.7 -10.55 -13.2 -4.3 -8.45 0.6 -8.05 L1.0 -5.85 1.5 -2.1 1.75 1.6 2.0 4.6 1.45 11.25 -4.75 10.15 Q-5.3 10.15 -5.5 11.25 L-7.8 15.0 -11.05 18.9 Q-13.1 20.8 -16.05 21.75 -18.85 22.6 -20.0 24.15 L-20.0 23.4 -21.0 11.65 -22.0 1.85 Q-22.0 -2.25 -18.25 -11.05 L-15.4 -17.6 M-22.25 32.8 L-22.55 33.9 -22.85 33.65 -22.25 32.8 M-23.1 -10.95 L-22.1 -14.15 -22.35 -13.5 -22.5 -12.75 -22.95 -11.55 -23.1 -10.95 M-17.25 -21.8 L-16.85 -22.3 -16.95 -21.65 -17.25 -21.8 M23.95 36.5 L19.85 37.25 16.5 37.25 Q17.95 32.25 17.65 25.35 17.0 17.6 17.0 13.55 L16.85 7.8 Q16.8 4.25 17.0 2.0 17.1 -0.25 18.0 -4.0 L18.45 -5.55 19.5 -5.5 Q23.4 -5.5 25.05 -6.45 L23.7 -5.9 22.5 -2.75 21.75 1.35 Q21.0 5.2 21.0 5.8 21.3 14.35 22.0 22.75 22.85 32.4 23.95 36.5 M26.05 -14.7 L28.75 -12.1 Q28.75 -9.9 26.4 -2.85 24.9 1.5 24.35 5.9 24.4 5.15 25.0 2.0 L26.0 -2.25 26.45 -3.0 Q28.45 -9.0 28.7 -11.4 28.05 -13.1 26.0 -14.65 L26.05 -14.7 M-5.65 -24.3 L-4.55 -22.75 -1.7 -17.55 1.0 -13.0 1.0 -10.75 Q-1.35 -10.05 -8.2 -14.45 -15.0 -18.8 -15.0 -21.0 -15.0 -22.0 -14.55 -22.8 -13.85 -22.45 -13.9 -21.85 L-14.0 -20.25 -12.75 -20.0 Q-12.5 -20.0 -8.8 -22.25 -6.6 -23.6 -5.65 -24.3 M1.3 12.45 L1.2 13.25 0.25 21.8 Q-0.75 28.35 -1.3 30.5 -1.65 31.95 -3.0 35.2 -3.75 37.0 -3.95 38.4 L-6.5 38.5 -9.2 38.35 -11.0 38.0 -14.9 36.75 -18.3 35.75 -20.4 35.15 -19.85 33.05 -19.0 30.25 -18.4 26.8 Q-17.95 24.8 -15.5 24.0 -12.55 23.0 -7.45 17.75 L-2.55 12.75 -1.0 12.95 1.3 12.45 M30.6 -10.25 Q31.9 -9.2 34.3 -7.55 L40.5 -3.1 45.75 2.05 47.5 4.75 48.35 6.25 48.85 7.5 Q48.85 10.05 47.6 11.5 44.8 14.8 36.25 14.8 35.55 14.8 26.3 7.2 26.9 2.9 28.5 -2.7 L30.6 -10.25" fill="#42353e" fill-rule="evenodd" stroke="none"/>
    <path d="M17.3 -9.85 Q16.0 -6.9 15.45 -1.6 L6.3 -2.1 Q4.75 -2.0 3.95 -1.55 L3.7 -4.9 Q3.45 -7.35 2.9 -8.65 L3.0 -11.4 Q3.0 -14.1 1.1 -18.15 -0.7 -22.0 -3.25 -25.1 L-4.05 -25.75 -4.0 -25.85 Q-2.8 -27.25 -0.75 -27.25 L13.0 -22.5 14.5 -19.15 Q17.0 -13.35 17.0 -12.3 L16.8 -10.9 Q16.65 -10.35 16.85 -10.0 L17.3 -9.85 M1.9 24.65 L2.95 17.55 12.0 18.0 15.0 17.75 15.0 26.05 15.5 31.75 Q15.55 32.75 15.05 34.75 L14.55 37.05 4.9 37.1 Q1.05 37.05 -0.95 37.75 0.45 33.85 1.9 24.65" fill="#da4505" fill-rule="evenodd" stroke="none"/>
    <path d="M4.85 14.85 L3.3 14.9 Q4.0 8.7 4.0 4.3 L4.0 -0.05 Q6.65 0.95 15.2 1.0 15.0 4.15 15.0 15.35 L15.0 15.45 4.85 14.85" fill="#cccccc" fill-rule="evenodd" stroke="none"/>
    <path d="M-15.4 -17.6 L-18.25 -11.05 Q-22.0 -2.25 -22.0 1.85 L-21.0 11.65 -20.0 23.4 -20.0 24.15 -20.3 24.65 -20.55 25.15 Q-21.0 26.4 -21.0 28.75 L-22.15 32.5 -22.15 32.55 -22.2 32.75 -22.25 32.8 -22.85 33.65 Q-24.5 32.05 -24.5 29.5 L-24.0 26.3 -23.5 23.1 -24.15 15.5 -24.8 7.25 -24.35 -0.65 -23.5 -8.5 -23.4 -9.15 -23.1 -10.95 -22.95 -11.55 -22.5 -12.75 -22.35 -13.5 -22.1 -14.15 -19.65 -18.65 -19.6 -18.75 -19.5 -18.85 -19.45 -18.95 -19.35 -19.05 -19.25 -19.15 -19.2 -19.25 -19.1 -19.4 -17.25 -21.8 -16.95 -21.65 -17.0 -20.95 -17.0 -20.9 -17.0 -20.85 Q-17.0 -19.5 -15.4 -17.6 M23.95 36.5 Q22.85 32.4 22.0 22.75 21.3 14.35 21.0 5.8 21.0 5.2 21.75 1.35 L22.5 -2.75 23.7 -5.9 25.05 -6.45 25.9 -7.2 26.0 -7.4 26.0 -10.0 25.8 -14.45 26.0 -14.65 Q28.05 -13.1 28.7 -11.4 28.45 -9.0 26.45 -3.0 L26.0 -2.25 25.0 2.0 Q24.4 5.15 24.35 5.9 24.0 8.65 24.0 11.4 L24.25 16.95 Q24.6 21.95 25.0 24.55 25.35 27.05 26.5 31.3 L26.75 34.75 26.95 36.05 26.75 36.0 24.15 36.45 23.95 36.5 M-5.65 -24.3 Q-6.6 -23.6 -8.8 -22.25 -12.5 -20.0 -12.75 -20.0 L-14.0 -20.25 -13.9 -21.85 Q-13.85 -22.45 -14.55 -22.8 -13.65 -24.55 -10.55 -25.15 L-7.9 -25.25 -8.0 -24.75 -6.25 -24.5 -5.95 -24.5 -5.65 -24.3" fill="#624f5a" fill-rule="evenodd" stroke="none"/>
  </g>
</svg>
