<?xml version="1.0" encoding="UTF-8" standalone="no"?>
<svg xmlns:ffdec="https://www.free-decompiler.com/flash" xmlns:xlink="http://www.w3.org/1999/xlink" ffdec:objectType="shape" height="135.5px" width="147.5px" xmlns="http://www.w3.org/2000/svg">
  <g transform="matrix(1.0, 0.0, 0.0, 1.0, 73.75, 67.75)">
    <path d="M30.0 23.55 L30.5 22.6 35.55 12.0 Q37.05 7.05 38.2 -0.4 39.3 -7.85 30.3 -21.8 21.3 -35.75 1.35 -38.0 L-3.6 -39.95 -6.4 -40.15 Q-6.5 -41.15 -7.35 -42.8 L-7.3 -45.75 -7.35 -48.8 -7.75 -50.55 Q-7.3 -50.35 -7.15 -49.7 L-6.85 -48.5 -6.4 -47.5 -6.15 -46.45 Q-5.6 -46.7 -5.35 -47.7 L-5.35 -49.15 -4.9 -50.4 Q-4.65 -51.3 -4.75 -51.8 L-4.5 -53.2 -4.5 -54.55 -4.4 -56.9 -2.65 -56.95 Q20.75 -56.95 37.3 -40.4 53.85 -23.85 53.85 -0.45 53.85 16.0 45.7 29.05 L45.75 27.1 Q45.95 20.25 41.5 25.6 36.95 30.95 36.65 29.05 34.95 25.7 36.75 20.85 L36.55 20.75 35.65 20.45 Q34.3 19.65 34.0 19.05 L33.85 18.75 33.1 18.3 30.6 22.7 30.1 23.55 29.25 25.05 30.0 23.55" fill="url(#gradient0)" fill-rule="evenodd" stroke="none"/>
    <path d="M30.0 23.55 L29.25 25.05 30.1 23.55 30.6 22.7 33.1 18.3 33.85 18.75 34.0 19.05 Q34.3 19.65 35.65 20.45 L36.55 20.75 36.75 20.85 Q34.95 25.7 36.65 29.05 36.95 30.95 41.5 25.6 45.95 20.25 45.75 27.1 L45.7 29.05 Q42.25 34.55 37.3 39.5 20.75 56.05 -2.65 56.05 -18.4 56.05 -31.05 48.55 L-41.6 40.1 Q-35.0 44.2 -37.6 39.85 L-35.45 39.55 -35.4 39.6 -35.4 39.55 Q-30.9 38.75 -31.15 36.8 L-30.1 37.45 -29.8 37.45 -29.65 37.45 Q-28.6 37.45 -28.6 36.45 -28.6 35.9 -29.3 35.35 L-29.9 34.85 -30.3 34.4 -30.3 34.3 -30.3 34.25 -30.25 34.2 -28.6 35.0 -23.45 37.25 -18.75 39.7 Q-15.75 40.75 -8.7 40.75 17.05 40.75 29.25 24.55 L30.0 23.55" fill="url(#gradient1)" fill-rule="evenodd" stroke="none"/>
    <path d="M-31.05 48.55 Q-37.2 44.9 -42.6 39.5 -59.15 22.95 -59.15 -0.45 -59.15 -23.85 -42.6 -40.4 -33.15 -49.85 -21.45 -53.9 -21.4 -50.7 -19.8 -48.1 -18.5 -46.0 -16.35 -44.75 L-15.1 -41.85 -15.0 -39.35 Q-19.5 -37.9 -23.35 -34.9 -28.6 -30.9 -34.3 -22.6 -41.15 -12.65 -42.15 -10.2 -43.15 -7.55 -43.15 0.0 L-42.9 6.3 -42.2 15.55 Q-41.95 18.3 -38.2 24.05 L-35.65 27.45 -35.25 27.8 -35.15 28.0 -34.2 28.65 -33.0 30.85 -32.75 31.35 -32.05 32.5 -31.85 32.7 -30.9 33.8 -30.8 33.95 Q-30.6 34.1 -30.35 34.35 L-30.3 34.4 -29.9 34.85 -29.3 35.35 Q-28.6 35.9 -28.6 36.45 -28.6 37.45 -29.65 37.45 L-29.8 37.45 -30.1 37.45 -31.15 36.8 Q-30.9 38.75 -35.4 39.55 L-35.4 39.6 -35.45 39.55 -37.6 39.85 Q-35.0 44.2 -41.6 40.1 L-31.05 48.55 M-36.45 30.25 L-36.5 30.3 -36.45 30.3 -36.45 30.25" fill="url(#gradient2)" fill-rule="evenodd" stroke="none"/>
    <path d="M45.7 29.05 Q53.85 16.0 53.85 -0.45 53.85 -23.85 37.3 -40.4 20.75 -56.95 -2.65 -56.95 L-4.4 -56.9 -4.4 -57.15 -4.6 -59.35 -4.55 -60.35 Q-4.6 -61.05 -4.8 -61.35 L-5.45 -63.5 -6.05 -64.5 -6.5 -65.5 Q-6.5 -66.25 -5.85 -66.4 L-7.85 -66.9 -7.85 -67.1 -3.25 -67.25 -1.6 -67.2 Q26.0 -66.7 45.65 -47.55 65.85 -27.85 65.85 0.0 65.85 16.0 59.2 29.3 L58.0 31.45 57.05 33.05 57.9 31.35 57.8 31.3 Q55.15 36.75 50.95 36.75 L50.2 36.75 49.25 37.05 48.05 36.7 Q45.15 36.6 45.35 35.3 L45.7 29.05" fill="url(#gradient3)" fill-rule="evenodd" stroke="none"/>
    <path d="M-46.75 52.2 Q-46.3 52.75 -45.65 52.75 L-45.5 52.75 -45.45 52.75 -45.4 52.75 -45.1 52.75 -42.35 54.95 -41.8 55.4 -42.05 55.15 -44.7 52.5 -44.5 51.75 Q-44.5 51.2 -45.25 50.55 L-45.85 50.0 -45.4 49.1 Q-44.6 49.6 -43.7 50.2 L-45.35 48.95 -44.55 47.65 -41.45 49.5 -44.35 47.4 -44.25 47.3 -43.35 46.35 Q-42.85 45.9 -42.25 45.8 L-44.7 44.75 Q-45.35 44.45 -46.1 44.1 -51.4 41.7 -48.05 40.75 -40.4 45.0 -30.05 51.65 -15.6 60.85 -28.75 50.4 L-31.05 48.55 Q-18.4 56.05 -2.65 56.05 20.75 56.05 37.3 39.5 42.25 34.55 45.7 29.05 L45.35 35.3 Q45.15 36.6 48.05 36.7 L49.25 37.05 50.2 36.75 50.95 36.75 Q55.15 36.75 57.8 31.3 L57.9 31.35 57.05 33.05 58.0 31.45 58.1 31.5 Q53.3 40.1 45.65 47.55 25.95 66.7 -1.65 67.25 L-3.25 67.25 Q-28.2 67.25 -46.8 52.25 L-46.75 52.2" fill="url(#gradient4)" fill-rule="evenodd" stroke="none"/>
    <path d="M-46.75 52.2 L-47.1 51.8 -47.15 51.7 -47.2 51.65 -47.2 51.6 -47.95 50.85 -48.0 50.75 -49.8 49.05 -50.0 48.85 -50.1 48.8 Q-53.0 46.55 -52.75 46.95 L-57.65 41.6 Q-72.35 23.75 -72.35 0.0 -72.35 -23.65 -57.8 -41.4 L-52.15 -47.55 Q-35.6 -63.65 -13.45 -66.6 L-14.65 -66.0 Q-18.4 -64.05 -20.05 -60.8 -21.45 -58.05 -21.45 -54.1 L-21.45 -53.9 Q-33.15 -49.85 -42.6 -40.4 -59.15 -23.85 -59.15 -0.45 -59.15 22.95 -42.6 39.5 -37.2 44.9 -31.05 48.55 L-28.75 50.4 Q-15.6 60.85 -30.05 51.65 -40.4 45.0 -48.05 40.75 -51.4 41.7 -46.1 44.1 -45.35 44.45 -44.7 44.75 L-43.35 46.35 -44.25 47.3 -51.25 40.3 -51.15 41.1 -51.05 41.45 -51.05 41.5 Q-50.75 42.2 -49.7 43.3 L-49.55 43.5 -44.35 47.4 -41.45 49.5 -44.55 47.65 -48.9 45.0 -48.9 45.5 -48.95 46.15 -48.85 46.2 Q-48.05 46.6 -47.7 46.9 L-47.15 47.55 -45.35 48.95 -43.7 50.2 Q-44.6 49.6 -45.4 49.1 L-46.75 48.3 -46.65 48.55 -45.9 49.95 -45.85 50.0 -45.25 50.55 Q-44.5 51.2 -44.5 51.75 L-44.7 52.5 -42.05 55.15 -41.8 55.4 -42.35 54.95 -45.1 52.75 -45.4 52.75 -45.45 52.75 -45.5 52.75 -45.65 52.75 Q-46.3 52.75 -46.75 52.2" fill="url(#gradient5)" fill-rule="evenodd" stroke="none"/>
    <path d="M45.7 29.05 Q53.85 16.0 53.85 -0.45 53.85 -23.85 37.3 -40.4 20.75 -56.95 -2.65 -56.95 L-4.4 -56.9 Q-13.45 -56.7 -21.45 -53.9 -33.15 -49.85 -42.6 -40.4 -59.15 -23.85 -59.15 -0.45 -59.15 22.95 -42.6 39.5 -37.2 44.9 -31.05 48.55 -18.4 56.05 -2.65 56.05 20.75 56.05 37.3 39.5 42.25 34.55 45.7 29.05 M-1.6 -67.2 L0.0 -67.25 Q30.35 -67.25 51.8 -47.55 73.25 -27.85 73.25 0.0 73.25 16.0 66.2 29.3 M-14.65 -66.0 L-10.8 -66.6 M-57.8 -41.4 Q-73.25 -23.65 -73.25 0.0 -73.25 23.75 -57.65 41.6 M-49.8 49.05 L-49.2 49.85 -48.0 50.75 M-1.65 67.25 L0.0 67.25 Q30.35 67.25 51.8 47.55 59.9 40.1 65.0 31.5" fill="none" stroke="#010101" stroke-linecap="round" stroke-linejoin="round" stroke-opacity="0.0" stroke-width="1.0"/>
  </g>
  <defs>
    <linearGradient gradientTransform="matrix(0.0198, 0.021, -0.0207, 0.022, 33.7, -24.3)" gradientUnits="userSpaceOnUse" id="gradient0" spreadMethod="pad" x1="-819.2" x2="819.2">
      <stop offset="0.0" stop-color="#333333" stop-opacity="0.49803922"/>
      <stop offset="1.0" stop-color="#777777" stop-opacity="0.49803922"/>
    </linearGradient>
    <linearGradient gradientTransform="matrix(-0.0174, 0.0049, -0.0062, -0.0248, 4.05, 46.4)" gradientUnits="userSpaceOnUse" id="gradient1" spreadMethod="pad" x1="-819.2" x2="819.2">
      <stop offset="0.0" stop-color="#777777" stop-opacity="0.49803922"/>
      <stop offset="1.0" stop-color="#a2a2a2" stop-opacity="0.49803922"/>
    </linearGradient>
    <linearGradient gradientTransform="matrix(0.0089, -0.0352, 0.0296, 0.0084, -44.6, -16.0)" gradientUnits="userSpaceOnUse" id="gradient2" spreadMethod="pad" x1="-819.2" x2="819.2">
      <stop offset="0.0" stop-color="#a2a2a2" stop-opacity="0.49803922"/>
      <stop offset="1.0" stop-color="#777777" stop-opacity="0.0"/>
    </linearGradient>
    <linearGradient gradientTransform="matrix(0.0198, 0.021, -0.0207, 0.022, 33.7, -24.3)" gradientUnits="userSpaceOnUse" id="gradient3" spreadMethod="pad" x1="-819.2" x2="819.2">
      <stop offset="0.0" stop-color="#6d6d6d" stop-opacity="0.49803922"/>
      <stop offset="1.0" stop-color="#adadad" stop-opacity="0.49803922"/>
    </linearGradient>
    <linearGradient gradientTransform="matrix(-0.0174, 0.0049, -0.0062, -0.0248, 4.05, 46.4)" gradientUnits="userSpaceOnUse" id="gradient4" spreadMethod="pad" x1="-819.2" x2="819.2">
      <stop offset="0.0" stop-color="#9f9f9f" stop-opacity="0.49803922"/>
      <stop offset="1.0" stop-color="#c2c2c2" stop-opacity="0.49803922"/>
    </linearGradient>
    <linearGradient gradientTransform="matrix(0.0089, -0.0352, 0.0296, 0.0084, -44.6, -16.0)" gradientUnits="userSpaceOnUse" id="gradient5" spreadMethod="pad" x1="-819.2" x2="819.2">
      <stop offset="0.0" stop-color="#b8b8b8" stop-opacity="0.49803922"/>
      <stop offset="1.0" stop-color="#8d8d8d" stop-opacity="0.0"/>
    </linearGradient>
  </defs>
</svg>
