<?xml version="1.0" encoding="UTF-8" standalone="no"?>
<svg xmlns:ffdec="https://www.free-decompiler.com/flash" xmlns:xlink="http://www.w3.org/1999/xlink" ffdec:objectType="shape" height="135.55px" width="80.5px" xmlns="http://www.w3.org/2000/svg">
  <g transform="matrix(1.0, 0.0, 0.0, 1.0, 5.5, 24.65)">
    <path d="M6.75 -12.7 L5.3 -13.05 Q4.25 -13.05 3.4 -12.45 2.35 -11.7 2.35 -10.5 L3.6 -7.7 Q4.8 -4.75 4.8 -2.55 L4.05 -0.1 3.3 -1.2 1.9 -3.6 1.7 -3.55 1.3 -4.3 0.9 -5.1 -0.25 -7.3 Q-3.3 -13.15 -3.3 -15.45 L-2.65 -18.9 Q-1.6 -22.25 0.55 -22.25 4.25 -22.25 10.9 -16.0 14.3 -12.8 17.05 -9.45 L20.0 -5.25 22.55 -1.4 Q23.25 -0.15 23.7 3.55 23.9 5.45 24.25 6.65 L24.25 6.75 23.75 7.5 Q23.3 8.35 22.2 8.35 18.7 8.0 17.05 8.3 14.85 8.6 12.0 10.3 L10.6 11.3 7.35 6.2 5.4 3.0 6.3 -0.95 Q7.0 -6.35 7.0 -9.45 L6.75 -12.7" fill="#42353e" fill-rule="evenodd" stroke="none"/>
    <path d="M6.75 -12.7 L7.0 -9.45 Q7.0 -6.35 6.3 -0.95 L5.4 3.0 7.35 6.2 10.6 11.3 12.0 10.3 Q14.85 8.6 17.05 8.3 18.7 8.0 22.2 8.35 23.3 8.35 23.75 7.5 L24.25 6.75 24.25 6.65 Q23.9 5.45 23.7 3.55 23.25 -0.15 22.55 -1.4 L20.0 -5.25 17.05 -9.45 Q14.3 -12.8 10.9 -16.0 4.25 -22.25 0.55 -22.25 -1.6 -22.25 -2.65 -18.9 L-3.3 -15.45 Q-3.3 -13.15 -0.25 -7.3 L0.9 -5.1 1.3 -4.3 1.7 -3.55 1.9 -3.6 3.3 -1.2 4.05 -0.1 4.8 -2.55 Q4.8 -4.75 3.6 -7.7 L2.35 -10.5 Q2.35 -11.7 3.4 -12.45 4.25 -13.05 5.3 -13.05 L6.75 -12.7 M2.45 -0.2 L1.95 -0.2 Q1.85 -0.2 1.75 -0.3 L1.4 -1.5 Q0.85 -2.9 -0.2 -3.4 L-0.95 -4.85 -2.25 -7.65 -5.5 -15.1 Q-5.5 -18.25 -3.8 -21.2 -1.9 -24.65 0.85 -24.65 5.1 -24.65 11.85 -18.35 16.55 -13.95 18.2 -11.45 L24.4 -3.05 Q26.45 0.5 26.45 6.15 L26.2 7.7 25.75 9.3 Q26.75 10.55 27.0 14.3 L27.05 20.9 27.05 21.4 28.55 21.25 Q31.85 21.25 33.0 27.95 33.6 31.3 33.5 34.75 33.5 41.75 29.9 48.05 28.1 51.35 22.05 58.8 16.5 65.65 14.15 70.55 10.55 78.0 10.55 86.9 L10.85 91.25 11.5 97.25 Q11.8 99.25 13.7 102.35 15.9 105.9 17.6 105.9 L20.35 107.35 Q23.85 108.75 28.75 108.75 38.8 108.75 43.8 105.25 46.45 103.4 47.15 101.3 L46.6 100.3 Q45.05 97.3 45.05 95.55 45.05 92.75 46.45 90.4 47.75 88.35 51.0 85.3 52.45 82.7 54.25 80.85 57.65 77.3 63.05 77.3 63.9 77.3 66.15 78.25 68.2 79.15 68.85 79.65 L71.1 81.1 Q73.3 82.55 73.5 82.85 73.95 83.5 74.5 86.8 L75.0 90.55 Q75.0 94.6 72.7 96.1 71.3 97.05 67.3 98.25 66.3 98.7 63.25 101.55 59.05 104.25 51.25 104.25 50.15 104.25 49.2 103.65 48.1 105.7 44.0 107.7 37.35 110.9 27.4 110.9 20.25 110.9 14.55 106.5 9.65 102.7 9.65 99.8 L9.0 95.9 Q8.35 92.4 8.4 90.65 L8.3 82.0 Q8.3 80.25 9.85 75.8 L12.15 69.6 Q12.85 67.75 16.15 63.75 L21.15 57.3 28.75 45.15 Q31.4 39.95 31.4 34.05 31.4 24.85 26.85 23.35 L26.4 24.45 Q25.45 25.75 22.45 25.75 16.6 25.75 12.7 24.35 7.8 22.55 7.8 19.0 L7.95 16.9 7.35 16.8 5.15 16.2 Q3.95 15.45 3.8 14.65 L3.5 13.05 Q2.7 11.0 2.7 6.55 2.7 4.5 3.25 2.45 L2.45 -0.2 M23.45 10.75 L19.3 10.2 17.1 10.05 Q15.75 10.3 12.95 12.55 L10.25 14.55 10.4 17.3 Q10.5 20.2 11.1 21.45 11.45 22.2 15.95 22.9 L22.0 23.5 24.5 23.2 24.45 17.05 24.3 12.35 24.4 10.55 23.45 10.75 M5.25 11.65 Q6.15 13.9 8.35 15.2 L9.05 13.8 9.05 13.5 Q9.05 13.0 9.4 12.5 6.95 9.8 5.1 6.55 L4.75 5.9 4.55 7.45 Q4.55 9.95 5.25 11.65 M55.1 86.1 L56.9 89.7 Q58.1 91.65 60.0 92.9 L60.0 92.75 Q60.0 91.55 63.65 88.9 L68.6 85.5 69.4 85.75 Q69.75 86.0 69.75 86.8 69.75 87.8 65.95 90.55 62.55 93.1 61.15 93.55 63.9 94.85 67.85 94.85 69.1 94.85 70.55 93.9 L70.95 94.05 71.35 93.85 Q72.85 92.65 72.85 88.5 72.85 86.15 71.2 84.2 70.15 82.95 68.35 81.85 64.55 79.55 61.05 79.55 59.05 79.55 54.35 84.95 L55.1 86.1 M52.75 86.85 Q47.1 93.7 47.1 95.1 47.1 98.45 50.2 100.8 54.6 104.2 62.15 98.75 L65.6 96.9 65.15 96.8 Q59.15 95.45 56.75 93.5 55.75 92.45 54.2 89.45 L52.75 86.85" fill="#000000" fill-rule="evenodd" stroke="none"/>
    <path d="M23.45 10.75 L24.4 10.55 24.3 12.35 24.45 17.05 24.5 23.2 22.0 23.5 15.95 22.9 Q11.45 22.2 11.1 21.45 10.5 20.2 10.4 17.3 L10.25 14.55 12.95 12.55 Q15.75 10.3 17.1 10.05 L19.3 10.2 23.45 10.75" fill="#c2865f" fill-rule="evenodd" stroke="none"/>
    <path d="M52.75 86.85 L54.2 89.45 Q55.75 92.45 56.75 93.5 59.15 95.45 65.15 96.8 L65.6 96.9 62.15 98.75 Q54.6 104.2 50.2 100.8 47.1 98.45 47.1 95.1 47.1 93.7 52.75 86.85" fill="#333333" fill-rule="evenodd" stroke="none"/>
    <path d="M55.1 86.1 L54.35 84.95 Q59.05 79.55 61.05 79.55 64.55 79.55 68.35 81.85 70.15 82.95 71.2 84.2 72.85 86.15 72.85 88.5 72.85 92.65 71.35 93.85 L70.95 94.05 70.55 93.9 Q69.1 94.85 67.85 94.85 63.9 94.85 61.15 93.55 62.55 93.1 65.95 90.55 69.75 87.8 69.75 86.8 69.75 86.0 69.4 85.75 L68.6 85.5 63.65 88.9 Q60.0 91.55 60.0 92.75 L60.0 92.9 Q58.1 91.65 56.9 89.7 L55.1 86.1" fill="#cccccc" fill-rule="evenodd" stroke="none"/>
  </g>
</svg>
