<?xml version="1.0" encoding="UTF-8" standalone="no"?>
<svg xmlns:ffdec="https://www.free-decompiler.com/flash" xmlns:xlink="http://www.w3.org/1999/xlink" ffdec:objectType="shape" height="196.8px" width="47.0px" xmlns="http://www.w3.org/2000/svg">
  <g transform="matrix(1.0, 0.0, 0.0, 1.0, 5.5, 24.65)">
    <path d="M5.3 -13.05 Q4.25 -13.05 3.4 -12.45 2.35 -11.7 2.35 -10.5 L3.6 -7.7 Q4.8 -4.75 4.8 -2.55 L4.05 -0.1 3.3 -1.2 1.9 -3.6 1.7 -3.55 1.3 -4.3 0.9 -5.1 -0.25 -7.3 Q-3.3 -13.15 -3.3 -15.45 L-2.65 -18.9 Q-1.6 -22.25 0.55 -22.25 4.25 -22.25 10.9 -16.0 14.3 -12.8 17.05 -9.45 L20.0 -5.25 22.55 -1.4 Q23.25 -0.15 23.7 3.55 23.9 5.45 24.25 6.65 L24.25 6.75 23.75 7.5 Q23.3 8.35 22.2 8.35 18.7 8.0 17.05 8.3 14.85 8.6 12.0 10.3 L10.6 11.3 7.35 6.2 5.4 3.0 6.3 -0.95 Q7.0 -6.35 7.0 -9.45 L6.75 -12.7 5.3 -13.05" fill="#42353e" fill-rule="evenodd" stroke="none"/>
    <path d="M5.3 -13.05 L6.75 -12.7 7.0 -9.45 Q7.0 -6.35 6.3 -0.95 L5.4 3.0 7.35 6.2 10.6 11.3 12.0 10.3 Q14.85 8.6 17.05 8.3 18.7 8.0 22.2 8.35 23.3 8.35 23.75 7.5 L24.25 6.75 24.25 6.65 Q23.9 5.45 23.7 3.55 23.25 -0.15 22.55 -1.4 L20.0 -5.25 17.05 -9.45 Q14.3 -12.8 10.9 -16.0 4.25 -22.25 0.55 -22.25 -1.6 -22.25 -2.65 -18.9 L-3.3 -15.45 Q-3.3 -13.15 -0.25 -7.3 L0.9 -5.1 1.3 -4.3 1.7 -3.55 1.9 -3.6 3.3 -1.2 4.05 -0.1 4.8 -2.55 Q4.8 -4.75 3.6 -7.7 L2.35 -10.5 Q2.35 -11.7 3.4 -12.45 4.25 -13.05 5.3 -13.05 M1.95 -0.2 Q1.85 -0.2 1.75 -0.3 L1.4 -1.5 Q0.85 -2.9 -0.2 -3.4 L-0.95 -4.85 -2.25 -7.65 -5.5 -15.1 Q-5.5 -18.25 -3.8 -21.2 -1.9 -24.65 0.85 -24.65 5.1 -24.65 11.85 -18.35 16.55 -13.95 18.2 -11.45 L24.4 -3.05 Q26.45 0.5 26.45 6.15 L26.2 7.7 25.75 9.3 Q26.75 10.55 27.0 14.3 L27.05 20.9 27.05 21.4 28.55 21.25 Q31.85 21.25 33.0 27.95 33.6 31.3 33.5 34.75 L33.3 38.05 34.15 39.2 34.35 40.1 34.65 42.15 34.15 45.95 33.65 49.75 Q33.65 51.0 32.85 55.25 L32.25 57.95 Q31.75 59.7 31.75 60.4 L29.9 68.0 Q28.0 75.5 28.0 77.65 L27.55 79.15 Q27.05 80.0 27.05 80.6 27.05 81.6 25.95 85.85 24.8 90.05 24.8 90.75 24.8 92.0 22.45 100.25 20.05 108.5 20.05 112.05 20.05 113.85 19.35 115.65 18.65 117.45 18.6 120.05 18.6 121.5 17.85 124.7 L17.1 127.9 16.65 129.6 16.0 131.25 16.0 132.45 16.15 134.05 15.75 136.6 15.35 139.15 14.55 149.75 13.95 155.0 13.35 160.25 Q13.35 160.9 14.3 161.55 15.05 162.05 15.35 162.05 L15.5 162.05 Q15.95 160.65 18.6 157.45 21.75 153.65 21.75 151.85 21.75 148.65 22.95 146.4 25.05 142.5 30.25 142.5 34.95 142.5 38.55 147.3 41.5 151.2 41.5 153.75 41.5 156.05 39.25 159.3 L35.75 164.35 Q33.4 168.9 32.0 170.0 29.35 172.15 23.1 172.15 21.0 172.15 19.05 170.05 17.85 168.8 17.25 167.5 L16.55 164.9 16.3 164.35 14.6 163.75 Q11.15 162.1 11.15 159.35 L11.6 154.8 12.05 150.25 Q12.05 148.1 12.45 145.55 12.85 142.95 12.85 139.4 12.85 135.0 15.25 125.8 17.6 116.55 17.6 113.05 17.6 112.1 19.1 105.35 L20.55 98.65 Q20.55 97.9 21.4 95.65 22.25 93.45 22.25 91.75 22.25 90.6 24.15 83.2 26.05 75.8 26.05 73.55 L27.05 70.0 Q28.0 66.85 28.0 65.1 L29.5 59.5 Q31.0 53.6 31.0 51.55 L31.45 48.3 32.0 44.25 31.9 40.8 31.75 40.7 31.45 38.4 31.2 37.4 31.4 34.05 Q31.4 24.85 26.85 23.35 L26.4 24.45 Q25.45 25.75 22.45 25.75 16.6 25.75 12.7 24.35 7.8 22.55 7.8 19.0 L7.95 16.9 7.35 16.8 5.15 16.2 Q3.95 15.45 3.8 14.65 L3.5 13.05 Q2.7 11.0 2.7 6.55 2.7 4.5 3.25 2.45 L2.45 -0.2 1.95 -0.2 M24.4 10.55 L23.45 10.75 19.3 10.2 17.1 10.05 Q15.75 10.3 12.95 12.55 L10.25 14.55 10.4 17.3 Q10.5 20.2 11.1 21.45 11.45 22.2 15.95 22.9 L22.0 23.5 24.5 23.2 24.45 17.05 24.3 12.35 24.4 10.55 M5.25 11.65 Q6.15 13.9 8.35 15.2 L9.05 13.8 9.05 13.5 Q9.05 13.0 9.4 12.5 6.95 9.8 5.1 6.55 L4.75 5.9 4.55 7.45 Q4.55 9.95 5.25 11.65 M24.7 147.2 Q23.65 148.75 23.65 150.65 L23.4 153.75 23.2 155.1 27.6 158.5 28.25 158.9 28.25 158.75 Q28.25 158.2 30.15 156.3 L32.65 153.35 34.0 150.85 Q34.5 149.45 34.0 148.55 L34.05 147.9 33.95 147.15 34.5 147.05 35.2 147.1 Q32.55 144.75 30.25 144.75 26.4 144.75 24.7 147.2 M36.1 148.0 L36.3 151.3 Q36.3 153.0 33.7 156.05 31.2 158.95 29.2 159.35 31.7 160.4 35.3 160.7 L36.3 159.0 39.35 153.4 Q39.35 151.45 36.35 148.25 L36.1 148.0 M20.6 158.9 Q18.15 160.85 18.15 162.3 18.15 166.1 20.8 168.6 24.6 172.15 31.4 166.65 L34.1 162.65 Q31.75 163.1 28.2 161.3 24.25 159.3 22.55 157.25 L20.6 158.9" fill="#000000" fill-rule="evenodd" stroke="none"/>
    <path d="M24.4 10.55 L24.3 12.35 24.45 17.05 24.5 23.2 22.0 23.5 15.95 22.9 Q11.45 22.2 11.1 21.45 10.5 20.2 10.4 17.3 L10.25 14.55 12.95 12.55 Q15.75 10.3 17.1 10.05 L19.3 10.2 23.45 10.75 24.4 10.55" fill="#c2865f" fill-rule="evenodd" stroke="none"/>
    <path d="M36.1 148.0 L36.35 148.25 Q39.35 151.45 39.35 153.4 L36.3 159.0 35.3 160.7 Q31.7 160.4 29.2 159.35 31.2 158.95 33.7 156.05 36.3 153.0 36.3 151.3 L36.1 148.0 M24.7 147.2 Q26.4 144.75 30.25 144.75 32.55 144.75 35.2 147.1 L34.5 147.05 33.95 147.15 34.05 147.9 34.0 148.55 Q34.5 149.45 34.0 150.85 L32.65 153.35 30.15 156.3 Q28.25 158.2 28.25 158.75 L28.25 158.9 27.6 158.5 23.2 155.1 23.4 153.75 23.65 150.65 Q23.65 148.75 24.7 147.2" fill="#cccccc" fill-rule="evenodd" stroke="none"/>
    <path d="M20.6 158.9 L22.55 157.25 Q24.25 159.3 28.2 161.3 31.75 163.1 34.1 162.65 L31.4 166.65 Q24.6 172.15 20.8 168.6 18.15 166.1 18.15 162.3 18.15 160.85 20.6 158.9" fill="#333333" fill-rule="evenodd" stroke="none"/>
  </g>
</svg>
