<?xml version="1.0" encoding="UTF-8" standalone="no"?>
<svg xmlns:ffdec="https://www.free-decompiler.com/flash" xmlns:xlink="http://www.w3.org/1999/xlink" ffdec:objectType="shape" height="33.4px" width="46.45px" xmlns="http://www.w3.org/2000/svg">
  <g transform="matrix(1.0, 0.0, 0.0, 1.0, 29.45, 28.15)">
    <path d="M-24.15 -2.3 L-24.15 -2.5 -24.1 -2.5 -24.15 -2.3" fill="#372c22" fill-rule="evenodd" stroke="none"/>
    <path d="M10.8 -26.1 L12.95 -23.0 Q12.9 -19.95 13.5 -17.2 13.9 -15.45 14.5 -14.15 14.4 -10.85 15.15 -7.15 16.0 -2.95 16.0 -0.65 L16.0 1.0 16.2 1.35 Q17.0 2.7 17.0 3.6 L16.85 4.5 14.95 4.6 -1.0 5.25 Q-1.45 4.35 -2.25 3.75 L-2.1 3.6 -2.3 2.85 -2.5 1.3 Q-2.5 -6.95 -0.65 -14.3 L-2.0 -12.75 Q-3.15 -11.6 -10.25 -7.0 L-13.55 -4.3 Q-15.4 -3.05 -17.55 -2.7 -17.3 -0.95 -18.75 2.4 -19.45 2.9 -20.45 2.2 L-20.45 2.0 Q-22.7 1.25 -26.2 -1.35 -29.15 -4.3 -29.45 -9.6 -29.6 -13.15 -28.75 -15.0 L-28.7 -15.65 -28.6 -16.05 -28.85 -16.3 -28.6 -16.35 -28.15 -18.3 -26.9 -18.95 -26.3 -18.95 -24.75 -19.6 -22.7 -20.05 Q-19.2 -20.75 -17.0 -22.95 L-15.95 -23.3 Q-12.55 -26.1 -9.55 -27.3 -3.2 -29.75 1.3 -25.25 2.2 -24.35 2.75 -23.05 4.15 -25.3 5.9 -26.45 8.6 -28.25 10.8 -26.1 M9.0 2.1 L10.65 -0.7 Q11.5 -2.05 13.6 -1.7 L13.5 -4.2 12.95 -7.55 Q12.55 -9.7 12.5 -10.95 L12.45 -13.1 11.75 -13.0 4.5 -11.95 4.45 2.4 5.85 2.4 9.0 2.45 9.05 2.45 9.35 2.45 9.0 2.1 M10.5 2.45 L14.0 2.55 13.2 0.65 Q11.8 1.5 10.5 2.45 M-12.4 -16.15 Q-13.25 -15.4 -18.35 -13.5 -23.95 -11.4 -26.75 -11.8 L-27.05 -9.9 Q-27.7 -5.95 -24.4 -2.55 L-24.15 -2.3 Q-23.2 -1.35 -20.4 0.25 -20.35 0.2 -20.25 0.3 L-20.2 -0.25 Q-19.95 -1.7 -20.0 -2.55 L-21.65 -2.2 -24.1 -2.5 -24.15 -2.5 Q-24.25 -2.5 -24.35 -2.6 L-23.9 -3.35 -21.7 -4.75 Q-19.8 -5.35 -18.55 -4.3 L-18.0 -4.95 Q-17.55 -5.4 -16.05 -6.1 -14.7 -6.85 -14.2 -7.35 L-11.9 -8.95 Q-10.1 -10.15 -9.6 -10.65 L-7.65 -12.0 Q-9.0 -12.55 -10.45 -14.0 L-12.3 -16.05 -12.35 -16.2 -12.4 -16.15" fill="#000000" fill-rule="evenodd" stroke="none"/>
    <path d="M9.0 2.45 L9.0 2.1 9.05 2.45 9.0 2.45" fill="#5b6171" fill-rule="evenodd" stroke="none"/>
    <path d="M9.0 2.45 L5.85 2.4 4.45 2.4 4.5 -11.95 11.75 -13.0 12.45 -13.1 12.5 -10.95 Q12.55 -9.7 12.95 -7.55 L13.5 -4.2 13.6 -1.7 Q11.5 -2.05 10.65 -0.7 L9.0 2.1 9.0 2.45 M10.5 2.45 Q11.8 1.5 13.2 0.65 L14.0 2.55 10.5 2.45 M-24.4 -2.55 Q-27.7 -5.95 -27.05 -9.9 L-26.75 -11.8 Q-23.95 -11.4 -18.35 -13.5 -13.25 -15.4 -12.4 -16.15 L-12.3 -16.05 -10.45 -14.0 Q-9.0 -12.55 -7.65 -12.0 L-9.6 -10.65 Q-10.1 -10.15 -11.9 -8.95 L-14.2 -7.35 Q-14.7 -6.85 -16.05 -6.1 -17.55 -5.4 -18.0 -4.95 L-18.55 -4.3 Q-19.8 -5.35 -21.7 -4.75 L-23.9 -3.35 -24.35 -2.6 -24.4 -2.55 M-24.1 -2.5 L-21.65 -2.2 -20.0 -2.55 Q-19.95 -1.7 -20.2 -0.25 L-20.4 0.25 Q-23.2 -1.35 -24.15 -2.3 L-24.1 -2.5" fill="#254a9e" fill-rule="evenodd" stroke="none"/>
  </g>
</svg>
