<?xml version="1.0" encoding="UTF-8" standalone="no"?>
<svg xmlns:ffdec="https://www.free-decompiler.com/flash" xmlns:xlink="http://www.w3.org/1999/xlink" ffdec:objectType="shape" height="72.6px" width="79.5px" xmlns="http://www.w3.org/2000/svg">
  <g transform="matrix(1.0, 0.0, 0.0, 1.0, 29.0, 30.1)">
    <path d="M14.1 -26.25 L14.45 -25.6 17.25 -23.6 Q22.0 -20.7 23.35 -18.5 L23.85 -17.35 25.6 -16.75 Q29.65 -15.5 30.0 -13.4 L30.9 -12.7 34.6 -9.25 39.0 -6.05 41.25 -4.1 43.5 -4.0 Q45.85 -3.05 47.65 -1.35 49.5 0.45 49.5 1.9 L49.5 2.65 49.35 3.05 Q50.15 4.25 50.4 5.7 L50.5 9.05 Q50.5 12.15 48.9 14.35 46.5 17.5 41.25 17.5 L40.8 17.5 Q39.05 20.0 36.0 20.0 31.8 20.0 30.0 15.0 L29.35 11.45 Q27.95 11.15 25.65 9.0 L24.2 7.65 Q23.5 11.05 23.5 14.1 L25.0 20.6 Q26.5 26.7 26.5 27.8 L25.95 28.3 25.5 29.75 Q28.1 31.1 30.5 36.6 30.5 37.6 27.5 38.5 24.15 39.5 19.5 39.5 L18.45 39.45 Q16.9 41.0 16.25 41.0 15.15 41.0 14.05 39.5 L13.5 39.5 11.0 39.0 7.75 39.5 8.0 39.0 3.65 39.3 0.55 39.1 -2.5 42.5 -4.95 39.0 -13.5 39.0 -16.25 39.05 -17.25 38.8 -19.2 39.0 -20.45 38.8 -24.1 39.05 -25.0 37.5 -25.0 32.75 -24.95 29.55 -28.0 32.0 -28.7 31.75 Q-29.0 31.55 -29.0 30.75 -29.0 29.8 -27.5 24.35 -26.0 18.85 -26.0 17.05 -26.0 13.0 -26.5 4.15 -26.5 0.05 -26.0 -3.1 L-25.1 -6.55 Q-24.5 -9.0 -24.5 -10.25 -25.6 -13.15 -22.45 -17.25 -19.2 -21.55 -14.3 -22.45 L-13.5 -23.4 Q-10.9 -25.4 -10.55 -25.75 L-9.25 -27.05 -8.45 -27.5 Q-8.1 -28.9 -5.75 -29.65 -1.5 -31.05 7.1 -28.25 L14.1 -26.25 M8.0 -25.85 Q5.9 -26.85 -5.2 -26.15 L-2.55 -24.3 Q0.5 -22.05 1.25 -20.6 L1.6 -20.75 2.0 -20.0 1.55 -19.3 1.65 -19.2 5.6 -12.75 Q6.5 -11.35 7.45 -7.5 8.4 -3.75 9.6 -2.1 16.8 -10.45 17.55 -17.85 16.25 -19.3 14.45 -21.85 L12.6 -24.5 9.25 -24.95 8.0 -25.85 M20.4 -18.55 L19.1 -20.0 19.35 -19.35 19.75 -19.25 20.0 -18.3 20.0 -17.55 20.0 -17.5 20.0 -17.4 Q19.8 -15.4 18.95 -12.95 20.05 -12.85 20.8 -12.0 L22.35 -10.0 22.5 -12.55 22.4 -15.25 21.5 -15.6 Q21.35 -16.55 21.65 -17.0 L20.4 -18.55 M1.65 -14.4 Q-1.0 -18.55 -1.0 -19.25 L-1.0 -19.35 -3.2 -21.05 -8.3 -25.25 -11.55 -22.0 -7.25 -16.2 Q-4.35 -12.35 -3.25 -10.0 L-0.4 -12.3 2.0 -13.8 1.65 -14.4 M-20.6 21.7 Q-19.15 20.0 -18.75 20.0 -18.45 20.0 -14.15 24.1 -9.75 28.35 -9.05 29.55 L-5.65 34.3 -2.25 39.0 2.55 32.4 Q5.7 28.15 7.0 26.95 L6.3 23.4 Q5.5 18.8 5.5 17.25 L6.0 8.05 6.6 3.25 Q6.9 0.95 8.15 0.4 7.3 -0.9 6.65 -2.85 L5.0 -8.35 3.15 -11.9 1.05 -10.0 Q-2.0 -7.25 -3.5 -6.5 L-8.55 -14.25 -12.0 -18.7 -12.85 -19.7 -13.0 -19.85 -13.2 -19.8 Q-17.15 -19.0 -19.4 -17.15 -21.4 -15.5 -22.1 -13.1 -22.6 -11.55 -22.8 -8.1 L-22.85 -7.1 Q-23.1 -4.55 -23.5 -3.35 -24.2 -1.3 -24.15 6.65 L-24.0 15.0 -24.1 20.35 -25.5 27.0 -25.5 27.25 -25.4 27.25 -22.15 23.55 -20.95 22.1 -20.6 21.7 M22.1 -6.4 L21.65 -6.95 20.1 -9.0 18.55 -10.35 18.1 -10.95 16.4 -7.75 Q14.0 -3.7 9.5 2.0 L9.45 1.95 9.45 2.0 8.5 8.6 Q7.5 15.0 7.5 17.05 7.5 23.95 10.15 27.8 15.15 35.05 16.35 37.8 L20.05 33.15 20.95 31.9 23.9 27.95 24.8 26.8 23.3 22.25 22.95 21.05 Q21.5 16.05 21.5 14.1 21.5 7.35 24.55 -0.75 27.35 -8.2 27.6 -12.25 L27.5 -12.35 27.6 -12.65 27.6 -13.0 Q27.6 -13.75 25.35 -14.4 L24.4 -14.65 Q24.8 -11.8 25.0 -7.05 L24.85 -5.35 Q25.0 -5.0 23.75 -5.0 23.3 -5.0 22.1 -6.4 M26.75 -1.0 Q25.5 2.3 24.75 5.3 L27.05 7.1 29.05 8.75 Q29.3 5.6 31.2 3.5 33.15 1.35 36.0 1.15 L36.65 1.15 Q36.5 0.85 36.5 0.25 36.5 -1.45 38.55 -2.85 L35.1 -5.6 29.7 -10.35 Q29.0 -6.9 26.75 -1.0 M46.3 0.65 Q44.25 -1.95 42.0 -2.2 L41.85 -1.8 Q42.15 -1.5 41.0 -1.5 L40.7 -1.55 39.65 -0.45 37.9 1.25 39.05 1.6 Q40.0 1.0 41.8 0.65 L46.25 0.9 46.6 1.0 46.3 0.65 M-19.25 23.75 L-19.25 23.7 -19.75 24.25 -22.25 26.85 -22.95 27.55 Q-22.75 28.25 -23.0 29.0 L-23.0 35.7 -23.0 36.3 -21.9 36.35 -21.7 36.35 -13.25 36.65 -6.45 36.95 -9.55 32.85 Q-14.2 26.75 -18.8 23.25 L-19.25 23.75 M41.25 3.3 Q43.0 5.4 43.0 8.85 43.0 12.1 42.1 14.85 L43.25 14.45 46.6 13.5 48.2 11.3 48.5 9.5 Q48.5 2.75 44.25 2.75 42.35 2.75 41.25 3.3 M38.05 4.05 L38.0 3.85 36.0 3.55 Q33.95 3.65 32.55 5.15 31.0 6.8 31.0 9.55 31.0 11.4 32.0 14.05 33.4 17.75 35.75 17.75 38.45 17.75 40.0 13.05 40.8 10.7 41.0 8.6 41.0 6.1 39.45 4.7 L39.2 4.5 38.35 4.25 38.05 4.05 M12.75 37.2 Q10.3 32.0 8.0 29.3 L3.9 34.8 1.5 37.9 Q3.5 37.1 7.5 36.95 L12.75 37.25 12.8 37.25 12.75 37.2 M25.5 32.6 L24.7 31.3 24.45 31.75 21.65 35.75 20.5 37.15 27.35 36.25 Q27.35 35.25 25.95 33.2 L25.5 32.6" fill="#000000" fill-rule="evenodd" stroke="none"/>
    <path d="M-12.0 -18.7 L-8.55 -14.25 -3.5 -6.5 Q-2.0 -7.25 1.05 -10.0 L3.15 -11.9 5.0 -8.35 6.65 -2.85 Q7.3 -0.9 8.15 0.4 6.9 0.95 6.6 3.25 L6.0 8.05 5.5 17.25 Q5.5 18.8 6.3 23.4 L7.0 26.95 Q5.7 28.15 2.55 32.4 L-2.25 39.0 -5.65 34.3 -9.05 29.55 Q-9.75 28.35 -14.15 24.1 -18.45 20.0 -18.75 20.0 -19.15 20.0 -20.6 21.7 L-20.5 18.3 -20.0 4.8 -19.85 -1.85 Q-19.7 -5.7 -19.0 -8.25 -17.55 -13.2 -13.1 -17.65 L-12.0 -18.7 M-22.85 -7.1 L-22.8 -8.1 Q-22.6 -11.55 -22.1 -13.1 -21.4 -15.5 -19.4 -17.15 -21.15 -14.55 -22.05 -11.1 L-22.85 -7.1 M9.5 2.0 Q14.0 -3.7 16.4 -7.75 L18.1 -10.95 18.55 -10.35 20.1 -9.0 21.65 -6.95 22.1 -6.4 21.0 -0.75 19.0 7.05 17.65 11.2 Q17.0 13.25 17.0 15.1 L17.25 19.3 17.5 25.05 Q17.5 27.3 19.2 31.35 L20.05 33.15 16.35 37.8 Q15.15 35.05 10.15 27.8 7.5 23.95 7.5 17.05 7.5 15.0 8.5 8.6 L9.45 2.0 9.5 2.0 M22.95 21.05 L23.3 22.25 24.8 26.8 23.9 27.95 23.5 25.8 Q23.0 23.25 23.0 22.0 L22.95 21.05 M26.75 -1.0 Q29.0 -6.9 29.7 -10.35 L35.1 -5.6 38.55 -2.85 Q36.5 -1.45 36.5 0.25 36.5 0.85 36.65 1.15 L36.0 1.15 Q33.15 1.35 31.2 3.5 29.3 5.6 29.05 8.75 L27.05 7.1 24.75 5.3 Q25.5 2.3 26.75 -1.0" fill="#244800" fill-rule="evenodd" stroke="none"/>
    <path d="M20.0 -18.3 L20.4 -18.55 21.65 -17.0 Q21.35 -16.55 21.5 -15.6 L22.4 -15.25 22.5 -12.55 22.35 -10.0 20.8 -12.0 Q20.05 -12.85 18.95 -12.95 19.8 -15.4 20.0 -17.4 L20.0 -17.5 20.0 -17.55 20.0 -18.3 M1.65 -14.4 L2.0 -13.8 -0.4 -12.3 -3.25 -10.0 Q-4.35 -12.35 -7.25 -16.2 L-11.55 -22.0 -8.3 -25.25 -3.2 -21.05 -1.0 -19.35 -1.0 -19.25 Q-1.0 -18.55 1.65 -14.4 M46.25 0.9 L41.8 0.65 Q40.0 1.0 39.05 1.6 L37.9 1.25 39.65 -0.45 40.7 -1.55 41.0 -1.5 Q42.15 -1.5 41.85 -1.8 L42.0 -2.2 Q44.25 -1.95 46.3 0.65 L46.25 0.9" fill="#339900" fill-rule="evenodd" stroke="none"/>
    <path d="M-12.0 -18.7 L-13.1 -17.65 Q-17.55 -13.2 -19.0 -8.25 -19.7 -5.7 -19.85 -1.85 L-20.0 4.8 -20.5 18.3 -20.6 21.7 -20.95 22.1 -22.15 23.55 -25.4 27.25 -25.5 27.0 -24.1 20.35 -24.0 15.0 -24.15 6.65 Q-24.2 -1.3 -23.5 -3.35 -23.1 -4.55 -22.85 -7.1 L-22.05 -11.1 Q-21.15 -14.55 -19.4 -17.15 -17.15 -19.0 -13.2 -19.8 L-13.0 -19.85 -12.85 -19.7 -12.0 -18.7 M20.05 33.15 L19.2 31.35 Q17.5 27.3 17.5 25.05 L17.25 19.3 17.0 15.1 Q17.0 13.25 17.65 11.2 L19.0 7.05 21.0 -0.75 22.1 -6.4 Q23.3 -5.0 23.75 -5.0 25.0 -5.0 24.85 -5.35 L25.0 -7.05 Q24.8 -11.8 24.4 -14.65 L25.35 -14.4 Q27.6 -13.75 27.6 -13.0 L27.6 -12.65 27.5 -12.35 27.6 -12.25 Q27.35 -8.2 24.55 -0.75 21.5 7.35 21.5 14.1 21.5 16.05 22.95 21.05 L23.0 22.0 Q23.0 23.25 23.5 25.8 L23.9 27.95 20.95 31.9 20.05 33.15" fill="#336600" fill-rule="evenodd" stroke="none"/>
    <path d="M8.0 -25.85 L9.25 -24.95 12.6 -24.5 14.45 -21.85 Q16.25 -19.3 17.55 -17.85 16.8 -10.45 9.6 -2.1 8.4 -3.75 7.45 -7.5 6.5 -11.35 5.6 -12.75 L1.65 -19.2 1.55 -19.3 2.0 -20.0 1.6 -20.75 1.25 -20.6 Q0.5 -22.05 -2.55 -24.3 L-5.2 -26.15 Q5.9 -26.85 8.0 -25.85 M-19.25 23.75 L-18.8 23.25 Q-14.2 26.75 -9.55 32.85 L-6.45 36.95 -13.25 36.65 -21.7 36.35 -21.7 36.1 Q-21.7 35.5 -21.0 35.5 -18.7 35.5 -18.45 35.05 L-18.5 32.4 -18.5 27.1 Q-18.65 25.1 -19.25 23.75 M-21.9 36.35 L-23.0 36.3 -23.0 35.7 -22.6 36.3 -21.9 36.35 M41.25 3.3 Q42.35 2.75 44.25 2.75 48.5 2.75 48.5 9.5 L48.2 11.3 46.6 13.5 43.25 14.45 42.1 14.85 Q43.0 12.1 43.0 8.85 43.0 5.4 41.25 3.3 M12.75 37.25 L7.5 36.95 Q3.5 37.1 1.5 37.9 L3.9 34.8 8.0 29.3 Q10.3 32.0 12.75 37.2 L12.75 37.25 M24.45 31.75 L24.7 31.3 25.5 32.6 24.5 31.75 24.45 31.75" fill="#cccccc" fill-rule="evenodd" stroke="none"/>
    <path d="M-23.0 35.7 L-23.0 29.0 Q-22.75 28.25 -22.95 27.55 L-22.25 26.85 -19.75 24.25 -19.25 23.7 -19.25 23.75 Q-18.65 25.1 -18.5 27.1 L-18.5 32.4 -18.45 35.05 Q-18.7 35.5 -21.0 35.5 -21.7 35.5 -21.7 36.1 L-21.7 36.35 -21.9 36.35 -22.6 36.3 -23.0 35.7 M25.5 32.6 L25.95 33.2 Q27.35 35.25 27.35 36.25 L20.5 37.15 21.65 35.75 24.45 31.75 24.5 31.75 25.5 32.6" fill="#e8e8e8" fill-rule="evenodd" stroke="none"/>
    <path d="M38.05 4.05 L38.35 4.25 39.2 4.5 39.45 4.7 Q41.0 6.1 41.0 8.6 40.8 10.7 40.0 13.05 38.45 17.75 35.75 17.75 33.4 17.75 32.0 14.05 31.0 11.4 31.0 9.55 31.0 6.8 32.55 5.15 33.95 3.65 36.0 3.55 L38.0 3.85 38.05 4.05" fill="#fdcd9d" fill-rule="evenodd" stroke="none"/>
  </g>
</svg>
