<?xml version="1.0" encoding="UTF-8" standalone="no"?>
<svg xmlns:ffdec="https://www.free-decompiler.com/flash" xmlns:xlink="http://www.w3.org/1999/xlink" ffdec:objectType="shape" height="63.55px" width="29.0px" xmlns="http://www.w3.org/2000/svg">
  <g transform="matrix(1.0, 0.0, 0.0, 1.0, 21.0, 30.55)">
    <path d="M5.05 -25.25 Q7.35 -20.2 7.8 -16.95 8.0 -15.65 8.0 -9.5 7.5 -1.25 7.5 2.8 L7.65 6.0 Q7.65 8.0 7.0 9.25 6.0 11.15 3.75 12.15 2.0 12.95 2.0 14.4 2.0 15.9 4.5 16.7 7.0 17.55 7.0 20.15 7.0 23.15 4.5 27.3 1.05 33.0 -4.5 33.0 -9.5 33.0 -14.05 27.65 -16.4 24.95 -19.0 20.05 -20.5 17.1 -20.85 13.3 L-21.0 6.55 -20.7 0.4 -20.0 -8.75 -18.7 -16.25 Q-17.85 -20.85 -16.25 -24.1 -12.7 -31.3 -4.1 -30.45 -0.75 -30.1 1.95 -28.55 4.6 -27.0 5.05 -25.25 M3.5 -23.35 Q2.75 -25.1 -0.4 -26.75 -4.55 -28.85 -9.0 -27.6 -10.5 -27.15 -12.6 -24.55 L-15.1 -21.1 Q-17.0 -18.45 -17.4 -14.1 -17.55 -9.2 -18.0 -6.85 -18.5 -4.0 -18.8 1.15 L-19.0 6.75 -18.9 12.75 Q-18.6 15.05 -16.6 19.75 -15.4 22.65 -12.35 26.1 -8.25 30.75 -4.75 30.75 0.05 30.75 3.0 25.6 5.0 22.0 5.0 20.0 5.0 19.45 2.5 18.2 0.0 17.0 0.0 14.6 0.0 11.7 0.9 10.55 1.35 10.0 2.85 9.5 5.65 8.6 5.5 2.8 5.4 -1.25 6.0 -9.5 L5.85 -15.85 Q5.5 -18.35 3.5 -23.35 M-11.5 19.65 Q-11.5 14.7 -7.25 13.25 L-4.35 13.4 Q-3.0 14.2 -3.0 16.25 -3.0 18.0 -4.0 20.0 -5.55 23.0 -8.5 23.0 -11.05 23.0 -11.5 21.4 L-11.5 19.65 M-8.15 16.7 Q-9.5 18.3 -9.5 19.8 L-9.45 20.7 -9.25 20.8 Q-6.7 20.35 -5.8 18.65 -5.55 18.1 -5.25 16.25 -6.6 14.9 -8.15 16.7" fill="#000000" fill-rule="evenodd" stroke="none"/>
    <path d="M2.55 -15.1 Q4.0 -16.3 4.0 -17.0 4.0 -17.6 3.65 -17.9 3.05 -18.4 2.5 -19.85 1.9 -21.3 -1.0 -22.35 -2.5 -22.75 -3.8 -21.15 -5.0 -19.7 -5.0 -18.0 -5.0 -17.35 -4.25 -17.0 L-3.25 -16.6 Q-4.3 -15.55 -3.6 -14.5 L-0.8 -14.25 0.5 -14.0 Q1.15 -14.0 2.55 -15.1 M3.5 -23.35 Q5.5 -18.35 5.85 -15.85 L6.0 -9.5 Q5.4 -1.25 5.5 2.8 5.65 8.6 2.85 9.5 1.35 10.0 0.9 10.55 0.0 11.7 0.0 14.6 0.0 17.0 2.5 18.2 5.0 19.45 5.0 20.0 5.0 22.0 3.0 25.6 0.05 30.75 -4.75 30.75 -8.25 30.75 -12.35 26.1 -15.4 22.65 -16.6 19.75 -18.6 15.05 -18.9 12.75 L-19.0 6.75 -18.8 1.15 Q-18.5 -4.0 -18.0 -6.85 -17.55 -9.2 -17.4 -14.1 -17.0 -18.45 -15.1 -21.1 L-12.6 -24.55 Q-10.5 -27.15 -9.0 -27.6 -4.55 -28.85 -0.4 -26.75 2.75 -25.1 3.5 -23.35 M3.0 0.5 Q3.0 -4.95 1.5 -7.0 L-3.2 -2.7 Q-6.0 -0.1 -6.0 1.85 L-5.4 2.8 Q-4.75 3.7 -4.6 4.3 L-4.4 5.1 -2.5 6.5 -1.75 6.4 Q-1.5 6.3 -1.5 5.5 3.0 1.1 3.0 0.5 M0.0 -3.0 L0.5 -3.1 0.45 -2.4 -0.3 -1.25 Q0.0 -1.9 0.0 -3.0 M-8.0 -12.75 L-8.5 -13.75 Q-9.55 -15.4 -10.35 -15.75 -11.8 -16.35 -12.8 -15.45 -13.5 -14.8 -13.75 -13.6 -13.9 -12.7 -14.75 -11.75 -15.5 -10.9 -15.5 -9.65 -15.5 -8.85 -14.85 -7.8 L-14.0 -6.25 -13.8 -3.8 Q-13.35 -2.5 -10.0 -2.5 L-9.15 -2.65 -9.1 -2.85 -9.0 -3.8 Q-9.0 -4.55 -7.25 -5.65 -5.5 -6.75 -5.5 -7.75 -5.5 -8.6 -6.35 -12.25 L-8.0 -12.75 M-9.1 8.7 Q-8.0 6.75 -8.0 6.0 -8.0 4.8 -8.85 4.5 -10.55 3.85 -11.5 3.0 -13.5 3.9 -14.1 4.9 -14.5 5.5 -14.5 6.55 L-14.45 7.45 -14.1 7.75 -13.25 8.0 -12.05 7.65 -11.5 7.5 -11.5 7.8 Q-11.6 8.3 -12.35 9.0 -13.0 9.65 -13.0 10.25 -13.0 11.5 -11.5 11.5 -10.35 10.8 -9.1 8.7 M-11.5 19.65 L-11.5 21.4 Q-11.05 23.0 -8.5 23.0 -5.55 23.0 -4.0 20.0 -3.0 18.0 -3.0 16.25 -3.0 14.2 -4.35 13.4 L-7.25 13.25 Q-11.5 14.7 -11.5 19.65" fill="#663300" fill-rule="evenodd" stroke="none"/>
    <path d="M2.55 -15.1 Q1.15 -14.0 0.5 -14.0 L-0.8 -14.25 -3.6 -14.5 Q-4.3 -15.55 -3.25 -16.6 L-4.25 -17.0 Q-5.0 -17.35 -5.0 -18.0 -5.0 -19.7 -3.8 -21.15 -2.5 -22.75 -1.0 -22.35 1.9 -21.3 2.5 -19.85 3.05 -18.4 3.65 -17.9 4.0 -17.6 4.0 -17.0 4.0 -16.3 2.55 -15.1" fill="#ff0000" fill-rule="evenodd" stroke="none"/>
    <path d="M-8.0 -12.75 L-6.35 -12.25 Q-5.5 -8.6 -5.5 -7.75 -5.5 -6.75 -7.25 -5.65 -9.0 -4.55 -9.0 -3.8 L-9.1 -2.85 -9.15 -2.65 -10.0 -2.5 Q-13.35 -2.5 -13.8 -3.8 L-14.0 -6.25 -14.85 -7.8 Q-15.5 -8.85 -15.5 -9.65 -15.5 -10.9 -14.75 -11.75 -13.9 -12.7 -13.75 -13.6 -13.5 -14.8 -12.8 -15.45 -11.8 -16.35 -10.35 -15.75 -9.55 -15.4 -8.5 -13.75 L-8.0 -12.75" fill="#003366" fill-rule="evenodd" stroke="none"/>
    <path d="M0.0 -3.0 Q0.0 -1.9 -0.3 -1.25 L0.45 -2.4 0.5 -3.1 0.0 -3.0 M3.0 0.5 Q3.0 1.1 -1.5 5.5 -1.5 6.3 -1.75 6.4 L-2.5 6.5 -4.4 5.1 -4.6 4.3 Q-4.75 3.7 -5.4 2.8 L-6.0 1.85 Q-6.0 -0.1 -3.2 -2.7 L1.5 -7.0 Q3.0 -4.95 3.0 0.5" fill="#006633" fill-rule="evenodd" stroke="none"/>
    <path d="M-9.1 8.7 Q-10.35 10.8 -11.5 11.5 -13.0 11.5 -13.0 10.25 -13.0 9.65 -12.35 9.0 -11.6 8.3 -11.5 7.8 L-11.5 7.5 -12.05 7.65 -13.25 8.0 -14.1 7.75 -14.45 7.45 -14.5 6.55 Q-14.5 5.5 -14.1 4.9 -13.5 3.9 -11.5 3.0 -10.55 3.85 -8.85 4.5 -8.0 4.8 -8.0 6.0 -8.0 6.75 -9.1 8.7" fill="#ffcc33" fill-rule="evenodd" stroke="none"/>
  </g>
</svg>
