<?xml version="1.0" encoding="UTF-8" standalone="no"?>
<svg xmlns:ffdec="https://www.free-decompiler.com/flash" xmlns:xlink="http://www.w3.org/1999/xlink" ffdec:objectType="shape" height="116.0px" width="24.5px" xmlns="http://www.w3.org/2000/svg">
  <g transform="matrix(1.0, 0.0, 0.0, 1.0, 15.5, 75.5)">
    <path d="M7.8 -75.5 Q8.65 -75.5 8.8 -75.0 9.0 -74.45 9.0 -71.75 9.0 -68.25 7.4 -66.65 5.75 -65.05 5.75 -63.5 5.75 -62.6 6.65 -60.75 7.5 -58.85 7.5 -57.25 7.5 -52.75 4.1 -49.1 1.8 -46.65 -0.75 -45.5 L-1.9 -45.5 -1.5 -45.0 -0.75 -34.6 -0.35 -32.55 0.0 -30.6 0.15 -30.55 Q0.65 -30.4 1.0 -29.0 2.0 -24.85 2.0 -10.0 2.0 4.3 0.85 18.8 -0.1 30.4 -1.0 34.5 -1.4 36.5 -2.45 38.5 -3.5 40.5 -4.15 40.5 -5.9 40.5 -8.45 29.35 -11.65 15.15 -11.25 -4.5 -11.5 -28.5 -11.25 -29.1 L-11.35 -29.3 -10.5 -29.5 -10.4 -29.5 Q-11.65 -30.4 -11.25 -31.6 L-11.1 -31.9 -10.95 -31.95 -10.75 -43.6 Q-10.8 -45.5 -10.35 -46.5 L-10.5 -46.5 Q-12.75 -46.5 -14.5 -52.4 -16.75 -60.0 -14.0 -70.5 -11.0 -73.9 -9.15 -74.6 L-4.5 -75.0 -0.4 -74.5 3.65 -74.0 Q4.0 -74.0 5.55 -74.75 7.1 -75.5 7.8 -75.5 M6.75 -70.4 L6.75 -72.0 0.2 -72.5 -4.5 -73.0 -4.7 -73.0 Q-7.9 -72.95 -9.75 -71.5 -13.25 -68.75 -13.25 -61.0 -13.25 -53.9 -11.35 -50.4 -9.5 -48.15 -9.5 -47.75 L-9.6 -47.35 -9.5 -47.4 -8.55 -47.5 -6.15 -46.95 -3.9 -46.15 -4.0 -46.5 -4.0 -47.9 -3.1 -47.0 -2.65 -47.4 Q-2.5 -47.7 -2.5 -48.5 L-2.5 -48.75 -2.8 -48.6 -2.5 -48.8 Q-2.35 -48.65 -2.35 -48.3 -2.35 -47.6 -1.75 -47.6 0.2 -47.6 2.75 -51.1 5.25 -54.6 5.25 -57.25 5.25 -58.8 4.4 -60.25 L4.15 -60.7 Q3.5 -61.95 3.5 -63.5 3.5 -65.95 4.95 -67.7 L6.0 -68.85 6.75 -69.6 6.75 -70.4 M-8.25 -45.0 Q-8.75 -41.0 -8.95 -31.65 L-7.85 -31.0 Q-6.35 -30.0 -5.4 -30.0 -4.65 -30.0 -3.55 -30.95 L-2.55 -31.65 -3.75 -44.0 -6.0 -44.45 -8.25 -45.0 M-9.55 -28.8 L-9.5 -28.35 -9.7 -22.25 Q-10.2 -6.1 -7.75 21.3 -7.45 24.35 -6.25 29.0 L-4.25 36.3 -4.0 36.5 -3.95 36.4 Q-2.45 30.25 -1.35 17.0 -0.25 3.25 -0.25 -10.25 L-0.8 -20.0 -1.4 -29.35 -1.55 -29.45 Q-2.3 -28.5 -3.0 -28.2 L-5.4 -28.0 Q-7.25 -28.0 -9.25 -28.85 L-9.65 -29.05 -9.55 -28.8" fill="#000000" fill-rule="evenodd" stroke="none"/>
    <path d="M-4.25 36.3 L-6.25 29.0 Q-7.45 24.35 -7.75 21.3 -10.2 -6.1 -9.7 -22.25 L-9.5 -28.35 -9.55 -28.8 -9.25 -28.85 Q-7.25 -28.0 -5.4 -28.0 L-3.0 -28.2 Q-2.3 -28.5 -1.55 -29.45 L-1.4 -29.35 -0.8 -20.0 -0.25 -10.25 Q-0.25 3.25 -1.35 17.0 -2.45 30.25 -3.95 36.4 L-4.25 36.3" fill="#663300" fill-rule="evenodd" stroke="none"/>
    <path d="M-8.25 -45.0 L-6.0 -44.45 -3.75 -44.0 -2.55 -31.65 -3.55 -30.95 Q-4.65 -30.0 -5.4 -30.0 -6.35 -30.0 -7.85 -31.0 L-8.95 -31.65 Q-8.75 -41.0 -8.25 -45.0" fill="#999999" fill-rule="evenodd" stroke="none"/>
    <path d="M6.75 -70.4 L6.75 -69.6 6.0 -68.85 6.0 -69.0 Q6.0 -70.2 6.75 -70.4 M4.15 -60.7 L4.4 -60.25 Q5.25 -58.8 5.25 -57.25 5.25 -54.6 2.75 -51.1 0.2 -47.6 -1.75 -47.6 -2.35 -47.6 -2.35 -48.3 -2.35 -48.65 -2.5 -48.8 L-2.8 -48.6 -2.5 -48.75 -2.5 -48.5 Q-2.5 -47.7 -2.65 -47.4 L-3.1 -47.0 -4.0 -47.9 -4.0 -46.5 -3.9 -46.15 -6.15 -46.95 -8.55 -47.5 -9.5 -47.4 -9.5 -47.75 Q-9.5 -48.15 -11.35 -50.4 -13.25 -53.9 -13.25 -61.0 -13.25 -68.75 -9.75 -71.5 -7.9 -72.95 -4.7 -73.0 L-5.1 -72.95 Q-6.9 -72.75 -7.75 -70.6 L-8.85 -66.5 Q-9.0 -65.5 -8.2 -65.3 L-6.5 -64.85 Q-6.85 -63.6 -6.55 -61.35 -6.2 -58.5 -4.65 -58.5 -3.9 -58.5 -2.85 -59.8 L-1.0 -62.0 0.3 -59.8 Q1.0 -59.0 1.8 -59.0 2.95 -59.0 4.15 -60.7" fill="#cc6600" fill-rule="evenodd" stroke="none"/>
    <path d="M-4.7 -73.0 L-4.5 -73.0 0.2 -72.5 6.75 -72.0 6.75 -70.4 Q6.0 -70.2 6.0 -69.0 L6.0 -68.85 4.95 -67.7 Q3.5 -65.95 3.5 -63.5 3.5 -61.95 4.15 -60.7 2.95 -59.0 1.8 -59.0 1.0 -59.0 0.3 -59.8 L-1.0 -62.0 -2.85 -59.8 Q-3.9 -58.5 -4.65 -58.5 -6.2 -58.5 -6.55 -61.35 -6.85 -63.6 -6.5 -64.85 L-8.2 -65.3 Q-9.0 -65.5 -8.85 -66.5 L-7.75 -70.6 Q-6.9 -72.75 -5.1 -72.95 L-4.7 -73.0" fill="#ff0000" fill-rule="evenodd" stroke="none"/>
  </g>
</svg>
