<?xml version="1.0" encoding="UTF-8" standalone="no"?>
<svg xmlns:ffdec="https://www.free-decompiler.com/flash" xmlns:xlink="http://www.w3.org/1999/xlink" ffdec:objectType="shape" height="47.2px" width="26.3px" xmlns="http://www.w3.org/2000/svg">
  <g transform="matrix(1.0, 0.0, 0.0, 1.0, 12.9, 22.05)">
    <path d="M-3.05 -7.05 L4.2 -6.85 7.55 -6.1 9.05 -9.05 Q11.1 -13.05 11.1 -15.05 L10.5 -17.25 10.1 -18.45 10.0 -18.55 Q8.95 -19.8 8.25 -19.8 5.45 -19.8 0.15 -16.05 -4.6 -12.75 -5.55 -11.1 -6.5 -9.25 -7.2 -8.15 L-8.15 -6.75 -3.05 -7.05 M-8.35 16.0 L-8.9 13.55 -8.5 13.4 -8.55 12.7 -8.55 12.35 -9.9 8.9 -9.75 7.8 -10.0 7.8 Q-11.0 7.8 -12.05 5.95 -12.9 4.4 -12.9 3.6 L-12.35 -0.55 -11.85 -4.7 Q-11.85 -5.4 -11.0 -5.9 -10.8 -7.35 -7.15 -12.7 -3.95 -16.4 0.6 -19.15 5.35 -22.05 8.55 -22.05 10.05 -22.05 11.35 -20.3 L11.85 -19.6 Q13.4 -18.1 13.4 -14.55 13.4 -11.9 12.0 -9.2 10.85 -6.9 8.8 -4.8 L8.8 -4.6 Q8.8 -2.95 7.6 -0.9 L6.2 1.0 7.4 3.3 7.3 3.85 8.15 5.3 8.9 4.8 8.85 5.35 Q8.85 6.35 9.4 7.45 L9.1 7.55 Q10.2 10.35 10.2 12.0 10.2 12.55 11.15 14.15 L11.45 14.7 12.15 16.8 12.6 17.7 12.05 17.7 Q11.6 19.4 6.4 22.15 0.65 25.15 -2.85 25.15 -3.95 25.15 -4.85 24.4 L-4.9 24.45 -6.3 21.05 -8.15 16.65 -8.25 16.0 -8.35 16.0 M6.05 -4.3 Q-2.3 -4.9 -9.2 -4.25 L-9.95 0.05 -10.55 3.85 -10.3 5.0 -9.9 5.6 Q-5.45 2.8 1.6 0.75 6.15 -0.6 6.15 -2.45 L6.05 -4.3 M4.55 2.15 Q1.95 3.65 -3.2 5.6 L-7.8 7.25 -7.35 8.85 -6.8 11.15 -6.4 11.2 -6.3 11.25 Q-4.55 10.15 5.05 3.15 L4.55 2.15 M0.35 9.8 L-6.15 13.6 Q-6.05 16.1 -5.25 18.95 -4.1 22.85 -2.4 22.85 L1.05 21.8 Q4.4 20.55 6.1 19.5 L8.1 18.8 Q9.15 18.4 9.65 17.15 L9.65 16.55 5.85 5.8 Q4.05 7.5 0.35 9.8" fill="#000000" fill-rule="evenodd" stroke="none"/>
    <path d="M-3.05 -7.05 L-8.15 -6.75 -7.2 -8.15 Q-6.5 -9.25 -5.55 -11.1 -4.6 -12.75 0.15 -16.05 5.45 -19.8 8.25 -19.8 8.95 -19.8 10.0 -18.55 L10.1 -18.45 10.5 -17.25 11.1 -15.05 Q11.1 -13.05 9.05 -9.05 L7.55 -6.1 4.2 -6.85 -3.05 -7.05" fill="#244800" fill-rule="evenodd" stroke="none"/>
    <path d="M6.05 -4.3 L6.15 -2.45 Q6.15 -0.6 1.6 0.75 -5.45 2.8 -9.9 5.6 L-10.3 5.0 -10.55 3.85 -9.95 0.05 -9.2 -4.25 Q-2.3 -4.9 6.05 -4.3" fill="#339900" fill-rule="evenodd" stroke="none"/>
    <path d="M4.55 2.15 L5.05 3.15 Q-4.55 10.15 -6.3 11.25 L-6.4 11.2 -6.8 11.15 -7.35 8.85 -7.8 7.25 -3.2 5.6 Q1.95 3.65 4.55 2.15" fill="#cccccc" fill-rule="evenodd" stroke="none"/>
    <path d="M0.35 9.8 Q4.05 7.5 5.85 5.8 L9.65 16.55 9.65 17.15 Q9.15 18.4 8.1 18.8 L6.1 19.5 Q4.4 20.55 1.05 21.8 L-2.4 22.85 Q-4.1 22.85 -5.25 18.95 -6.05 16.1 -6.15 13.6 L0.35 9.8" fill="#fdcd9d" fill-rule="evenodd" stroke="none"/>
    <path d="M9.4 7.45 L9.6 7.85 9.6 8.0 Q9.6 9.8 11.05 11.75 11.1 13.25 11.45 14.7 L11.15 14.15 Q10.2 12.55 10.2 12.0 10.2 10.35 9.1 7.55 L9.4 7.45 M-8.15 16.65 L-8.3 16.25 -8.35 16.0 -8.25 16.0 -8.15 16.65" fill="#663300" fill-rule="evenodd" stroke="none"/>
  </g>
</svg>
