<?xml version="1.0" encoding="UTF-8" standalone="no"?>
<svg xmlns:ffdec="https://www.free-decompiler.com/flash" xmlns:xlink="http://www.w3.org/1999/xlink" ffdec:objectType="shape" height="34.5px" width="59.95px" xmlns="http://www.w3.org/2000/svg">
  <g transform="matrix(1.0, 0.0, 0.0, 1.0, 2.1, 33.15)">
    <path d="M13.6 -17.35 Q11.85 -16.5 9.5 -16.5 7.05 -15.65 4.75 -14.15 0.15 -11.25 0.15 -8.25 0.15 -5.25 2.85 -2.8 5.35 -0.55 7.75 -0.55 10.4 -0.55 21.1 -3.0 20.35 -3.55 20.0 -6.2 19.75 -7.85 19.75 -9.65 19.75 -12.35 20.4 -15.9 20.9 -18.7 21.7 -20.5 L19.0 -19.75 Q17.0 -19.05 13.6 -17.35 M40.05 -18.0 Q40.45 -16.1 42.15 -12.1 L42.8 -10.55 44.2 -11.35 Q55.75 -17.8 55.75 -19.3 55.75 -31.0 52.55 -31.0 47.3 -31.0 41.15 -28.3 L39.2 -27.3 39.55 -24.55 Q39.8 -19.25 40.05 -18.0 M30.95 -20.75 Q30.9 -16.75 31.0 -15.75 L31.25 -10.95 Q31.55 -9.4 32.2 -8.7 L32.15 -8.35 Q32.15 -7.6 32.35 -7.45 L32.75 -7.3 33.35 -7.45 Q33.4 -7.0 33.55 -7.0 L34.0 -7.0 33.55 -6.35 33.3 -5.95 Q36.25 -7.1 40.45 -9.3 39.1 -11.55 38.15 -16.55 37.1 -21.8 36.9 -26.1 L30.65 -23.1 30.95 -20.75 M28.3 -22.2 L24.5 -21.2 23.9 -20.4 Q23.05 -19.2 23.05 -17.85 22.6 -15.75 22.5 -14.5 22.05 -11.3 22.05 -7.8 22.05 -5.5 23.05 -4.15 L22.1 -3.2 28.1 -4.65 Q29.45 -4.65 31.6 -5.35 29.7 -7.4 28.8 -14.15 28.3 -18.2 28.3 -22.0 L28.3 -22.2 M30.4 -2.55 Q12.85 1.35 6.15 1.35 3.35 1.35 0.55 -2.15 -2.1 -5.5 -2.1 -8.5 -2.1 -14.65 9.55 -19.4 15.3 -21.75 22.65 -23.3 27.75 -24.8 36.1 -28.95 42.5 -32.1 45.55 -32.1 L48.75 -32.6 51.9 -33.15 Q56.05 -33.15 57.3 -27.6 57.85 -25.0 57.85 -17.85 57.85 -16.45 54.8 -14.5 53.45 -13.65 49.9 -11.85 46.8 -9.9 44.3 -8.85 L43.65 -8.5 43.85 -7.75 Q44.0 -7.5 42.75 -7.5 L41.95 -7.65 37.5 -5.4 Q33.35 -3.25 30.4 -2.55" fill="#000000" fill-rule="evenodd" stroke="none"/>
    <path d="M13.6 -17.35 Q17.0 -19.05 19.0 -19.75 L21.7 -20.5 Q20.9 -18.7 20.4 -15.9 19.75 -12.35 19.75 -9.65 19.75 -7.85 20.0 -6.2 20.35 -3.55 21.1 -3.0 10.4 -0.55 7.75 -0.55 5.35 -0.55 2.85 -2.8 0.15 -5.25 0.15 -8.25 0.15 -11.25 4.75 -14.15 7.05 -15.65 9.5 -16.5 11.85 -16.5 13.6 -17.35" fill="#244800" fill-rule="evenodd" stroke="none"/>
    <path d="M30.95 -20.75 L30.65 -23.1 36.9 -26.1 Q37.1 -21.8 38.15 -16.55 39.1 -11.55 40.45 -9.3 36.25 -7.1 33.3 -5.95 L33.55 -6.35 34.0 -7.0 33.55 -7.0 Q33.4 -7.0 33.35 -7.45 L32.75 -7.3 32.35 -7.45 Q32.15 -7.6 32.15 -8.35 L32.2 -8.7 Q31.55 -9.4 31.25 -10.95 L31.0 -15.75 Q30.9 -16.75 30.95 -20.75" fill="#cccccc" fill-rule="evenodd" stroke="none"/>
    <path d="M40.05 -18.0 Q39.8 -19.25 39.55 -24.55 L39.2 -27.3 41.15 -28.3 Q47.3 -31.0 52.55 -31.0 55.75 -31.0 55.75 -19.3 55.75 -17.8 44.2 -11.35 L42.8 -10.55 42.15 -12.1 Q40.45 -16.1 40.05 -18.0" fill="#fdcd9d" fill-rule="evenodd" stroke="none"/>
    <path d="M28.3 -22.2 L28.3 -22.0 Q28.3 -18.2 28.8 -14.15 29.7 -7.4 31.6 -5.35 29.45 -4.65 28.1 -4.65 L22.1 -3.2 23.05 -4.15 Q22.05 -5.5 22.05 -7.8 22.05 -11.3 22.5 -14.5 22.6 -15.75 23.05 -17.85 23.05 -19.2 23.9 -20.4 L24.5 -21.2 28.3 -22.2" fill="#336600" fill-rule="evenodd" stroke="none"/>
  </g>
</svg>
