<?xml version="1.0" encoding="UTF-8" standalone="no"?>
<svg xmlns:ffdec="https://www.free-decompiler.com/flash" xmlns:xlink="http://www.w3.org/1999/xlink" ffdec:objectType="shape" height="26.8px" width="194.9px" xmlns="http://www.w3.org/2000/svg">
  <g transform="matrix(1.0, 0.0, 0.0, 1.0, 57.0, 49.3)">
    <path d="M35.5 -31.25 L54.3 -33.25 Q61.45 -34.2 77.5 -37.45 L95.9 -41.5 Q98.0 -42.0 101.5 -43.6 105.0 -45.2 106.55 -45.6 110.4 -46.55 113.95 -48.85 117.65 -50.1 127.05 -47.75 134.0 -46.35 136.4 -42.75 137.9 -40.55 137.9 -36.5 L137.9 -34.5 137.55 -32.75 Q135.95 -29.8 134.45 -30.25 L133.15 -31.35 97.05 -26.75 67.2 -24.2 23.25 -22.5 Q12.95 -22.5 -19.15 -23.25 L-56.6 -24.5 -56.8 -24.6 Q-57.0 -24.75 -57.0 -25.5 -57.0 -26.7 -54.0 -27.25 L-36.5 -28.0 -11.65 -27.8 4.5 -29.0 35.5 -31.25" fill="#cc6600" fill-opacity="0.5058824" fill-rule="evenodd" stroke="none"/>
  </g>
</svg>
