<?xml version="1.0" encoding="UTF-8" standalone="no"?>
<svg xmlns:ffdec="https://www.free-decompiler.com/flash" xmlns:xlink="http://www.w3.org/1999/xlink" ffdec:objectType="shape" height="49.85px" width="148.4px" xmlns="http://www.w3.org/2000/svg">
  <g transform="matrix(1.0, 0.0, 0.0, 1.0, 74.5, 22.35)">
    <path d="M17.95 -17.15 L20.7 -17.55 22.3 -18.25 Q25.85 -19.5 33.4 -19.5 35.4 -19.5 37.45 -18.55 39.45 -17.65 41.8 -17.75 L39.4 -19.3 Q37.4 -20.6 37.4 -21.15 L37.45 -22.0 37.65 -22.35 Q43.2 -21.9 48.25 -19.3 52.8 -17.0 55.55 -13.75 56.6 -14.4 57.45 -16.0 58.2 -17.4 58.4 -18.85 L58.45 -19.15 Q58.6 -19.5 59.4 -19.5 59.85 -19.5 61.65 -15.85 63.4 -12.1 63.4 -11.0 L63.65 -6.85 63.9 -2.75 Q65.85 -3.3 67.4 -4.5 68.7 -5.5 69.15 -5.5 L70.3 -5.25 70.4 -3.0 Q70.4 -0.85 69.2 2.65 L67.8 6.6 Q72.05 7.05 73.2 9.5 73.9 10.95 73.9 17.3 73.9 22.9 73.05 23.75 72.4 24.35 68.7 24.5 L59.9 25.5 41.4 26.5 31.6 26.15 25.4 26.5 14.8 26.95 -34.5 27.0 -55.5 27.5 -72.1 26.65 Q-73.45 26.25 -73.8 25.15 -74.35 24.65 -74.5 23.65 L-74.5 21.6 Q-74.5 13.85 -71.5 9.05 -70.7 7.75 -69.0 6.45 -67.25 5.05 -65.5 4.5 -57.15 1.9 -53.3 1.5 L-51.25 1.35 Q-48.4 -1.7 -40.25 -4.75 -28.35 -8.65 -22.6 -10.75 L-16.7 -12.1 -16.3 -12.15 -16.0 -12.5 -15.75 -12.4 Q-14.7 -13.45 -12.25 -14.4 L-9.7 -15.15 -9.6 -15.3 -9.2 -15.35 -2.5 -17.5 Q8.65 -16.85 16.9 -17.35 L17.95 -17.15 M40.4 23.5 Q38.8 23.5 37.95 18.0 L37.45 13.0 37.4 12.5 Q37.4 9.55 37.6 8.65 L37.85 7.9 36.85 7.65 33.95 6.7 26.4 7.0 Q24.75 7.05 22.8 7.8 L20.65 8.5 19.8 8.25 19.45 8.05 19.4 7.25 Q19.4 6.75 19.95 5.75 20.5 4.8 20.9 4.55 L13.3 4.5 13.1 4.35 Q12.9 4.15 12.9 3.4 L14.25 1.6 15.8 -0.25 7.55 -0.8 Q7.0 -1.0 7.0 -1.85 7.0 -2.65 7.35 -3.15 L8.25 -4.1 8.5 -4.35 Q4.5 -4.3 3.35 -5.15 2.8 -5.6 3.0 -6.15 3.0 -7.45 3.95 -7.95 L6.0 -8.85 8.85 -10.85 8.5 -11.4 Q8.5 -12.35 11.35 -13.75 L14.15 -15.0 5.15 -15.25 Q-2.95 -15.25 -7.2 -13.85 L-9.25 -13.05 -10.8 -11.95 Q-11.85 -11.4 -13.6 -10.8 L-15.25 -9.65 -15.4 -9.35 Q-15.95 -8.15 -17.1 -7.75 L-18.3 -6.85 -19.85 -5.25 -22.6 -1.5 Q-23.0 -0.8 -23.0 1.3 -23.0 7.6 -11.0 11.7 L-2.75 14.25 Q1.0 15.55 1.0 16.65 1.0 18.15 -5.85 24.9 L20.8 24.75 23.4 24.7 23.45 24.35 25.8 24.35 28.85 24.4 31.65 24.2 31.75 24.4 40.45 24.2 48.1 23.9 Q46.95 23.45 46.85 22.25 L46.9 20.0 46.9 15.8 Q46.3 13.75 46.35 11.9 46.35 10.1 47.15 9.2 L40.4 8.4 39.9 10.2 Q39.4 11.8 39.4 12.4 39.4 13.4 40.4 17.55 L41.4 22.15 41.25 23.1 41.05 23.25 Q41.65 23.5 40.4 23.5 M15.7 -13.15 L12.4 -11.35 Q13.95 -9.75 11.8 -8.6 L8.0 -7.1 Q7.25 -6.85 7.0 -6.6 L11.75 -6.0 12.4 -5.0 11.2 -3.7 10.0 -2.6 19.05 -2.5 19.25 -2.25 19.4 -1.3 Q19.4 0.1 18.85 0.55 L16.65 2.05 16.4 2.3 20.9 2.15 24.05 2.0 Q24.6 3.15 23.8 4.8 L23.55 5.25 26.5 4.9 30.1 4.5 30.15 4.5 30.6 4.5 34.25 4.5 37.55 5.25 54.9 7.0 65.65 6.5 65.8 6.5 66.7 3.05 Q67.5 -0.25 68.4 -2.0 67.95 -2.2 66.35 -1.2 64.5 0.0 63.15 0.0 L61.9 -0.25 Q62.05 -4.7 61.8 -7.15 61.4 -11.45 59.3 -14.5 L57.5 -12.35 Q56.25 -11.0 55.15 -11.0 53.8 -11.0 52.8 -12.5 L50.9 -15.1 47.95 -16.8 44.4 -18.5 44.3 -17.8 44.4 -16.5 44.25 -15.05 Q44.0 -14.5 43.15 -14.5 L39.0 -15.85 Q34.65 -17.25 33.0 -17.25 25.25 -17.25 22.45 -15.95 L22.05 -15.55 20.95 -15.7 Q18.75 -14.85 16.7 -13.7 L15.7 -13.15 M57.1 23.25 L61.7 22.8 66.9 22.3 71.8 21.75 71.9 17.15 71.75 13.8 71.75 13.65 71.75 13.6 71.4 11.55 71.0 8.85 Q70.95 8.25 70.25 8.4 L57.65 9.5 57.5 9.5 57.4 10.3 57.4 12.75 57.7 16.7 58.4 22.0 58.2 22.6 Q57.95 23.0 57.15 23.0 L56.3 22.75 Q55.4 15.0 55.4 12.75 L55.5 10.35 55.7 9.5 49.9 9.35 49.4 11.05 Q48.9 12.3 48.9 16.05 L49.15 19.7 49.4 22.6 49.3 23.25 48.7 23.9 51.3 23.75 57.1 23.25 M-24.75 -1.05 Q-24.15 -3.4 -22.15 -6.0 L-19.4 -9.1 -22.0 -8.5 -29.05 -6.5 -28.55 -6.1 Q-27.05 -4.65 -25.6 -2.25 L-24.75 -1.05 M-39.55 -2.5 L-47.95 1.5 Q-45.4 1.75 -43.0 2.65 L-42.95 1.95 -42.75 1.55 Q-38.4 1.75 -32.25 0.4 L-26.75 0.6 Q-28.75 -3.75 -31.65 -5.65 -35.55 -4.25 -39.55 -2.5 M-19.1 10.25 Q-21.05 8.95 -22.3 7.55 -21.75 10.05 -21.6 12.2 L-21.5 18.85 -21.6 24.8 -8.0 24.9 Q-7.9 24.4 -5.2 21.2 L-2.0 17.5 -1.85 17.05 Q-13.55 14.0 -19.1 10.25 M-61.05 25.1 L-55.5 25.25 -38.0 24.5 -27.8 24.7 -22.95 24.8 Q-23.6 23.55 -23.6 21.5 -23.4 18.45 -23.5 17.3 L-23.95 13.25 -24.5 9.05 Q-24.85 5.15 -26.45 1.35 -27.8 2.15 -32.1 3.0 L-40.0 4.0 -41.15 4.0 -41.65 4.3 -43.0 4.5 -48.7 4.5 Q-48.2 5.1 -47.75 6.0 -46.5 8.5 -46.5 11.3 -46.5 15.2 -51.2 18.75 -54.0 20.85 -61.0 25.0 L-61.35 24.8 -62.0 24.3 Q-61.8 23.3 -55.0 18.65 -48.5 14.2 -48.5 11.5 -48.5 10.2 -50.05 7.55 -51.15 5.65 -52.2 4.55 L-59.35 4.75 -61.9 5.55 -64.75 6.55 Q-66.15 7.1 -67.85 8.4 -69.75 9.9 -70.0 11.05 -70.15 12.0 -71.45 16.35 -72.5 19.9 -72.5 21.75 L-72.2 23.25 -69.0 24.15 -61.05 25.1" fill="#000000" fill-rule="evenodd" stroke="none"/>
    <path d="M40.45 24.2 L31.75 24.4 31.65 24.2 28.85 24.4 25.8 24.35 23.45 24.35 23.4 24.7 20.8 24.75 -5.85 24.9 Q1.0 18.15 1.0 16.65 1.0 15.55 -2.75 14.25 L-11.0 11.7 Q-23.0 7.6 -23.0 1.3 -23.0 -0.8 -22.6 -1.5 L-19.85 -5.25 -18.3 -6.85 -17.1 -7.75 Q-15.95 -8.15 -15.4 -9.35 L-15.25 -9.65 -13.6 -10.8 Q-11.85 -11.4 -10.8 -11.95 L-9.25 -13.05 -7.2 -13.85 Q-2.95 -15.25 5.15 -15.25 L14.15 -15.0 11.35 -13.75 Q8.5 -12.35 8.5 -11.4 L8.85 -10.85 6.0 -8.85 3.95 -7.95 Q3.0 -7.45 3.0 -6.15 2.8 -5.6 3.35 -5.15 4.5 -4.3 8.5 -4.35 L8.25 -4.1 7.35 -3.15 Q7.0 -2.65 7.0 -1.85 7.0 -1.0 7.55 -0.8 L15.8 -0.25 14.25 1.6 12.9 3.4 Q12.9 4.15 13.1 4.35 L13.3 4.5 20.9 4.55 Q20.5 4.8 19.95 5.75 19.4 6.75 19.4 7.25 L19.45 8.05 19.8 8.25 20.65 8.5 22.8 7.8 Q24.75 7.05 26.4 7.0 L33.95 6.7 36.85 7.65 37.85 7.9 37.6 8.65 Q37.4 9.55 37.4 12.5 L37.45 13.0 37.95 18.0 Q38.8 23.5 40.4 23.5 L40.45 24.2 M69.65 15.5 L69.4 14.75 Q69.4 14.5 69.95 13.9 L69.65 15.5" fill="#244800" fill-rule="evenodd" stroke="none"/>
    <path d="M40.45 24.2 L40.4 23.5 Q41.65 23.5 41.05 23.25 L41.25 23.1 41.4 22.15 40.4 17.55 Q39.4 13.4 39.4 12.4 39.4 11.8 39.9 10.2 L40.4 8.4 47.15 9.2 Q46.35 10.1 46.35 11.9 46.3 13.75 46.9 15.8 L46.9 20.0 46.85 22.25 Q46.95 23.45 48.1 23.9 L40.45 24.2" fill="#336600" fill-rule="evenodd" stroke="none"/>
    <path d="M57.15 23.0 L57.1 23.25 51.3 23.75 48.7 23.9 49.3 23.25 49.4 22.6 49.15 19.7 48.9 16.05 Q48.9 12.3 49.4 11.05 L49.9 9.35 55.7 9.5 55.5 10.35 55.4 12.75 Q55.4 15.0 56.3 22.75 L57.15 23.0 M-24.75 -1.05 L-25.6 -2.25 Q-27.05 -4.65 -28.55 -6.1 L-29.05 -6.5 -22.0 -8.5 -19.4 -9.1 -22.15 -6.0 Q-24.15 -3.4 -24.75 -1.05 M-19.1 10.25 Q-13.55 14.0 -1.85 17.05 L-2.0 17.5 -5.2 21.2 Q-7.9 24.4 -8.0 24.9 L-21.6 24.8 -21.5 18.85 -21.6 12.2 Q-21.75 10.05 -22.3 7.55 -21.05 8.95 -19.1 10.25" fill="#cccccc" fill-rule="evenodd" stroke="none"/>
    <path d="M-39.55 -2.5 Q-35.55 -4.25 -31.65 -5.65 -28.75 -3.75 -26.75 0.6 L-32.25 0.4 Q-38.4 1.75 -42.75 1.55 L-42.95 1.95 -43.0 2.65 Q-45.4 1.75 -47.95 1.5 L-39.55 -2.5 M-61.0 25.0 Q-54.0 20.85 -51.2 18.75 -46.5 15.2 -46.5 11.3 -46.5 8.5 -47.75 6.0 -48.2 5.1 -48.7 4.5 L-43.0 4.5 -41.65 4.3 -41.15 4.0 -40.0 4.0 -32.1 3.0 Q-27.8 2.15 -26.45 1.35 -24.85 5.15 -24.5 9.05 L-23.95 13.25 -23.5 17.3 Q-23.4 18.45 -23.6 21.5 -23.6 23.55 -22.95 24.8 L-27.8 24.7 -38.0 24.5 -55.5 25.25 -61.05 25.1 -61.0 25.0" fill="#666666" fill-rule="evenodd" stroke="none"/>
    <path d="M-61.0 25.0 L-61.05 25.1 -69.0 24.15 -72.2 23.25 -72.5 21.75 Q-72.5 19.9 -71.45 16.35 -70.15 12.0 -70.0 11.05 -69.75 9.9 -67.85 8.4 -66.15 7.1 -64.75 6.55 L-61.9 5.55 -59.35 4.75 -52.2 4.55 Q-51.15 5.65 -50.05 7.55 -48.5 10.2 -48.5 11.5 -48.5 14.2 -55.0 18.65 -61.8 23.3 -62.0 24.3 L-61.35 24.8 -61.0 25.0" fill="#333333" fill-rule="evenodd" stroke="none"/>
    <path d="M15.7 -13.15 L16.7 -13.7 Q18.75 -14.85 20.95 -15.7 L22.05 -15.55 22.45 -15.95 Q25.25 -17.25 33.0 -17.25 34.65 -17.25 39.0 -15.85 L43.15 -14.5 Q44.0 -14.5 44.25 -15.05 L44.4 -16.5 44.3 -17.8 44.4 -18.5 47.95 -16.8 50.9 -15.1 52.8 -12.5 Q53.8 -11.0 55.15 -11.0 56.25 -11.0 57.5 -12.35 L59.3 -14.5 Q61.4 -11.45 61.8 -7.15 62.05 -4.7 61.9 -0.25 L63.15 0.0 Q64.5 0.0 66.35 -1.2 67.95 -2.2 68.4 -2.0 67.5 -0.25 66.7 3.05 L65.8 6.5 65.65 6.5 54.9 7.0 37.55 5.25 34.25 4.5 30.6 4.5 30.15 4.5 30.1 4.5 26.5 4.9 23.55 5.25 23.8 4.8 Q24.6 3.15 24.05 2.0 L20.9 2.15 16.4 2.3 16.65 2.05 18.85 0.55 Q19.4 0.1 19.4 -1.3 L19.25 -2.25 19.05 -2.5 10.0 -2.6 11.2 -3.7 12.4 -5.0 11.75 -6.0 7.0 -6.6 Q7.25 -6.85 8.0 -7.1 L11.8 -8.6 Q13.95 -9.75 12.4 -11.35 L15.7 -13.15" fill="#9e7701" fill-rule="evenodd" stroke="none"/>
    <path d="M57.15 23.0 Q57.95 23.0 58.2 22.6 L58.4 22.0 57.7 16.7 57.4 12.75 57.4 10.3 57.5 9.5 57.65 9.5 70.25 8.4 Q70.95 8.25 71.0 8.85 L71.4 11.55 71.75 13.6 71.75 13.65 71.75 13.8 71.9 17.15 71.8 21.75 66.9 22.3 61.7 22.8 57.1 23.25 57.15 23.0 M69.65 15.5 L69.95 13.9 Q69.4 14.5 69.4 14.75 L69.65 15.5" fill="#fdcd9d" fill-rule="evenodd" stroke="none"/>
  </g>
</svg>
