<?xml version="1.0" encoding="UTF-8" standalone="no"?>
<svg xmlns:ffdec="https://www.free-decompiler.com/flash" xmlns:xlink="http://www.w3.org/1999/xlink" ffdec:objectType="shape" height="113.55px" width="127.5px" xmlns="http://www.w3.org/2000/svg">
  <g transform="matrix(1.0, 0.0, 0.0, 1.0, 218.5, 243.85)">
    <path d="M-131.15 -221.0 Q-146.0 -229.05 -159.5 -224.8 -163.9 -223.45 -169.75 -219.5 L-177.5 -213.75 Q-178.45 -213.1 -186.85 -209.75 -194.45 -206.8 -197.75 -203.5 -200.65 -200.65 -201.55 -192.35 -202.0 -188.15 -202.0 -179.15 -202.0 -171.1 -201.7 -169.8 -200.55 -165.2 -194.95 -160.3 -185.65 -152.2 -182.75 -151.0 -172.55 -146.8 -168.9 -145.85 -162.85 -144.3 -153.25 -144.3 -122.45 -144.3 -111.95 -159.8 -107.0 -167.1 -107.0 -179.55 -107.0 -185.65 -108.7 -191.7 -110.6 -198.35 -114.2 -203.75 -117.75 -213.7 -131.15 -221.0 M-136.0 -241.8 Q-128.55 -240.3 -125.5 -239.05 L-115.25 -236.05 -113.15 -235.3 -112.5 -234.55 -109.75 -231.3 Q-109.35 -230.0 -107.9 -228.1 -105.6 -224.9 -105.25 -224.05 -103.2 -218.45 -101.95 -215.8 -95.35 -202.15 -94.15 -199.1 -91.0 -190.95 -91.0 -183.45 -91.0 -176.35 -92.45 -169.2 -93.75 -163.1 -96.5 -155.05 -101.0 -142.3 -123.7 -135.3 -139.95 -130.3 -153.5 -130.3 -175.05 -130.3 -185.2 -134.15 -197.35 -138.8 -210.5 -154.05 -217.0 -161.6 -218.2 -167.45 -218.5 -168.95 -218.5 -179.8 -218.5 -201.1 -209.5 -215.15 -195.3 -237.35 -159.5 -241.8 -152.8 -242.6 -148.2 -243.8 -145.25 -244.1 -136.0 -241.8" fill="#fe885b" fill-opacity="0.49803922" fill-rule="evenodd" stroke="none"/>
    <path d="M-131.15 -221.0 Q-117.75 -213.7 -114.2 -203.75 -110.6 -198.35 -108.7 -191.7 -107.0 -185.65 -107.0 -179.55 -107.0 -167.1 -111.95 -159.8 -122.45 -144.3 -153.25 -144.3 -162.85 -144.3 -168.9 -145.85 -172.55 -146.8 -182.75 -151.0 -185.65 -152.2 -194.95 -160.3 -200.55 -165.2 -201.7 -169.8 -202.0 -171.1 -202.0 -179.15 -202.0 -188.15 -201.55 -192.35 -200.65 -200.65 -197.75 -203.5 -194.45 -206.8 -186.85 -209.75 -178.45 -213.1 -177.5 -213.75 L-169.75 -219.5 Q-163.9 -223.45 -159.5 -224.8 -146.0 -229.05 -131.15 -221.0 M-165.5 -217.5 L-165.7 -217.3 -165.5 -217.3 -165.5 -217.5" fill="#eecb5e" fill-opacity="0.49803922" fill-rule="evenodd" stroke="none"/>
  </g>
</svg>
