<?xml version="1.0" encoding="UTF-8" standalone="no"?>
<svg xmlns:ffdec="https://www.free-decompiler.com/flash" xmlns:xlink="http://www.w3.org/1999/xlink" ffdec:objectType="shape" height="83.05px" width="69.75px" xmlns="http://www.w3.org/2000/svg">
  <g transform="matrix(1.0, 0.0, 0.0, 1.0, 27.5, 46.05)">
    <path d="M11.25 -17.0 Q11.25 -18.1 12.65 -18.65 14.0 -19.2 14.0 -17.4 14.0 -15.5 12.5 -15.5 11.45 -15.5 11.25 -16.2 L11.25 -17.0 M12.0 -14.05 L12.25 -13.4 11.5 -12.45 10.5 -11.5 Q9.75 -12.1 9.75 -12.35 9.75 -12.85 10.35 -13.45 11.1 -14.2 12.0 -14.05 M18.75 -12.75 Q18.75 -11.25 17.35 -11.25 16.45 -11.25 16.25 -11.75 L16.25 -12.3 Q16.25 -13.5 17.5 -13.95 18.75 -14.4 18.75 -12.75 M7.35 -18.75 L6.6 -18.8 6.5 -19.4 Q6.5 -21.9 7.9 -21.4 9.25 -20.9 9.25 -20.0 9.25 -18.75 7.35 -18.75 M2.5 -18.95 L2.4 -18.25 Q2.35 -18.0 1.75 -18.0 0.5 -18.0 0.75 -19.4 0.75 -20.6 1.65 -20.25 2.5 -19.9 2.5 -18.95 M0.75 -23.3 Q0.75 -25.3 1.75 -25.45 2.75 -25.55 2.75 -24.15 L2.65 -23.2 1.5 -22.25 Q0.9 -22.35 0.8 -22.7 L0.75 -23.3 M4.75 -17.15 L4.3 -16.15 3.75 -15.25 Q3.0 -15.85 3.0 -16.5 L3.1 -17.3 Q3.4 -17.8 4.5 -17.8 L4.75 -17.15 M7.65 -14.0 Q7.6 -13.75 7.0 -13.75 L6.5 -13.8 6.25 -14.0 6.25 -16.5 Q7.35 -17.3 7.65 -16.5 L7.75 -15.35 7.65 -14.0 M6.65 -2.0 L8.4 -0.55 10.3 0.9 10.8 1.3 Q11.0 0.8 11.75 1.1 12.75 1.45 12.75 2.05 L12.65 2.65 12.5 2.85 12.0 3.0 11.55 2.9 11.0 3.0 Q9.75 3.0 7.75 0.8 L6.0 -1.3 Q6.0 -2.3 6.65 -2.0 M16.25 -8.9 Q16.25 -8.45 15.95 -8.35 L15.1 -8.25 14.1 -8.3 14.0 -8.9 Q14.0 -9.5 14.45 -9.6 L16.0 -9.55 16.25 -8.9 M14.9 -3.7 L15.4 -3.25 Q16.15 -3.5 16.4 -4.05 L16.9 -5.25 Q18.25 -5.9 18.25 -4.3 18.25 -2.75 17.6 -2.2 17.1 -1.75 15.85 -1.75 L14.05 -1.95 13.75 -2.4 Q13.3 -1.75 12.6 -1.75 L11.85 -1.8 11.75 -2.4 Q11.75 -3.0 12.5 -3.5 L13.75 -4.0 14.9 -3.7 M13.35 -4.85 Q13.0 -4.5 12.6 -4.5 L11.85 -4.55 11.75 -5.15 Q11.75 -6.0 12.75 -6.3 13.75 -6.55 13.75 -5.65 13.75 -5.2 13.35 -4.85 M17.5 -0.65 Q17.5 -1.7 19.0 -1.3 L19.25 -0.65 Q19.25 0.0 18.35 0.0 L17.6 -0.05 17.5 -0.65 M19.5 -2.9 Q19.5 -4.1 21.5 -3.6 23.5 -3.05 23.5 -2.25 23.5 -1.1 23.05 -1.25 L22.0 -1.65 Q21.65 -1.0 21.1 -1.0 20.35 -1.0 20.25 -1.5 L20.25 -2.0 19.8 -2.35 Q19.5 -2.6 19.5 -2.9 M23.25 -4.5 Q21.9 -4.5 21.45 -5.25 L21.25 -5.9 Q21.25 -6.8 23.0 -6.9 24.75 -7.0 24.75 -5.8 24.75 -4.5 23.25 -4.5 M24.25 -1.65 L24.4 -2.05 25.0 -2.5 25.55 -3.0 25.75 -3.5 Q26.7 -3.65 27.25 -3.2 27.75 -2.8 27.75 -2.25 27.75 -1.55 27.3 -1.25 L25.5 -1.0 24.35 -1.05 24.25 -1.65 M42.0 20.1 Q41.4 21.75 39.6 21.75 38.1 21.75 37.6 20.85 L37.25 19.5 37.1 19.05 37.0 19.0 37.0 18.95 36.6 18.4 35.1 17.9 35.0 17.0 Q34.55 16.95 34.25 17.25 L33.5 16.6 32.4 16.35 Q32.35 17.25 31.6 17.25 30.65 17.25 30.65 16.35 L29.5 16.55 29.65 16.9 Q31.15 18.75 30.35 19.9 32.85 19.8 33.55 21.1 33.75 21.5 33.75 22.7 L33.75 23.85 Q33.8 21.8 37.25 22.4 40.75 23.05 40.75 25.8 40.75 26.7 40.1 27.7 39.25 29.0 37.75 29.0 35.9 29.0 34.65 26.45 L33.75 23.9 33.75 23.85 Q33.5 24.55 32.45 24.75 L32.5 25.4 32.25 26.25 31.25 26.5 Q28.6 26.5 28.05 25.25 L28.0 24.0 Q28.0 23.2 28.25 22.75 L28.2 22.7 26.95 21.25 26.85 21.75 Q26.85 22.1 27.2 22.85 L27.5 23.9 27.25 25.75 Q26.85 27.0 26.0 27.0 L25.2 26.85 26.25 28.0 27.35 30.6 28.0 32.9 27.85 33.9 Q27.6 34.25 26.35 34.25 23.2 34.25 21.95 31.5 21.25 30.05 21.25 28.4 21.25 27.45 21.4 27.2 21.75 26.6 23.15 26.25 23.65 26.1 24.15 26.25 23.05 25.25 22.25 23.0 L19.75 25.85 Q20.25 26.7 20.25 27.9 20.25 31.25 17.75 31.25 15.9 31.25 15.25 28.5 L15.0 25.85 Q15.0 23.15 17.65 24.2 L17.6 24.15 17.5 21.9 18.0 18.75 Q18.1 16.95 19.0 17.4 L20.4 18.25 20.95 17.9 Q21.35 17.5 21.85 17.5 23.15 17.5 23.65 18.65 L24.15 18.15 24.75 18.0 25.85 18.2 25.75 18.1 24.25 15.85 Q23.8 16.5 23.25 16.5 22.35 16.5 21.7 15.35 L20.75 15.35 19.3 15.8 Q17.85 16.4 17.75 17.0 L17.45 18.2 Q17.1 19.15 16.45 19.25 L16.75 20.65 16.25 22.7 Q15.7 24.25 15.25 24.25 14.45 24.25 13.9 23.7 L12.9 22.65 Q12.15 22.15 12.0 21.65 L12.0 20.8 12.1 19.95 12.3 19.7 11.65 18.55 11.15 16.85 10.6 15.1 10.5 13.85 Q10.5 12.65 11.3 12.0 L11.05 11.3 11.0 10.15 Q11.0 9.0 11.15 8.7 11.6 7.75 13.25 8.25 L13.6 8.25 12.35 6.7 12.25 5.55 Q12.25 4.65 12.85 3.9 13.7 2.8 15.1 4.5 15.55 4.8 15.6 5.45 L15.6 6.6 Q15.6 7.25 16.25 8.65 L17.0 10.75 17.5 10.2 18.25 10.0 19.5 10.7 19.65 10.8 20.55 9.8 21.65 9.2 21.5 9.0 21.05 8.6 20.75 8.05 21.05 7.65 21.5 7.0 21.5 5.85 22.85 5.95 Q23.4 6.35 23.5 7.25 L26.85 7.9 Q28.1 8.15 29.0 8.7 29.85 8.7 30.85 9.55 31.25 8.65 33.15 8.75 35.5 8.9 35.5 10.7 L35.35 11.45 36.4 11.5 Q37.8 11.8 38.4 12.75 L39.45 13.8 40.35 14.65 41.9 16.7 Q42.25 17.25 42.25 18.25 L42.0 20.1 M34.05 5.2 L30.6 5.75 28.85 5.45 28.75 4.85 Q28.75 4.25 30.25 3.35 31.75 2.5 32.6 2.5 33.95 2.5 34.35 3.15 L34.5 3.9 Q34.5 4.85 34.05 5.2 M39.25 8.5 Q38.5 8.2 38.3 7.7 L38.25 6.95 Q38.25 5.85 39.25 5.95 40.25 6.05 40.25 7.05 40.25 8.1 39.25 8.5 M25.1 5.75 Q25.1 6.0 24.5 6.0 23.8 6.0 22.2 4.55 L20.75 3.2 23.0 3.15 Q25.25 4.55 25.25 5.25 L25.1 5.75 M20.45 7.5 Q20.25 8.0 19.5 8.0 18.05 8.0 17.5 6.55 L17.25 5.2 Q17.25 4.05 18.9 4.6 20.5 5.15 20.5 6.6 L20.45 7.5 M24.2 11.5 Q24.8 11.45 25.75 12.0 L26.75 12.2 26.5 11.4 26.5 11.25 26.5 11.0 26.0 10.95 25.25 11.0 24.25 10.55 23.5 10.1 23.25 10.0 24.2 11.5 M26.25 18.45 L26.5 18.65 26.3 18.45 26.25 18.45 M18.0 4.25 Q16.45 4.25 15.25 3.5 14.25 2.85 14.25 2.4 L14.25 2.3 13.75 1.6 Q13.75 1.05 14.5 0.85 15.25 0.7 15.25 1.55 L15.2 2.0 17.45 2.45 Q19.0 2.9 19.0 3.5 19.0 4.25 18.0 4.25 M11.3 5.6 L11.75 6.65 11.65 7.0 11.5 7.3 11.0 7.5 10.65 7.4 10.5 7.6 10.0 7.75 9.5 7.65 9.25 7.4 9.25 5.05 9.0 4.35 Q9.0 3.5 9.6 3.5 10.2 3.5 10.65 4.5 L11.3 5.6 M6.05 4.9 L5.3 3.75 4.25 2.15 Q4.25 0.1 6.0 1.95 7.75 3.85 7.75 4.9 L7.75 5.3 7.75 5.75 7.7 6.85 Q7.5 7.55 6.75 7.75 6.0 7.1 6.0 5.6 L6.05 4.9 M4.1 7.3 Q4.8 8.05 5.25 9.25 L6.6 10.9 6.8 11.15 6.85 10.85 7.0 10.85 Q7.0 8.45 8.3 10.3 9.4 11.8 10.5 14.65 L10.4 15.0 10.25 15.3 Q10.1 15.5 9.75 15.5 9.35 15.5 7.85 12.5 L7.5 12.45 7.5 12.5 7.35 13.0 Q7.35 13.25 6.75 13.25 5.75 13.25 3.25 8.15 3.25 6.35 4.1 7.3 M6.0 13.45 Q6.75 13.55 6.75 14.45 6.75 15.25 6.0 15.5 5.25 15.35 5.25 14.5 5.25 13.35 6.0 13.45 M1.6 14.7 L1.0 15.5 Q0.25 15.35 0.25 14.5 0.25 13.6 1.15 13.2 2.0 12.8 2.0 13.8 L1.6 14.7 M3.75 18.5 Q2.9 18.5 2.25 15.9 L2.35 15.35 Q3.8 15.4 4.5 17.55 L4.4 18.15 4.25 18.35 3.75 18.5 M8.0 18.65 Q8.0 17.15 9.15 16.8 10.25 16.45 10.25 18.9 L10.1 20.0 9.35 20.5 Q8.65 20.5 8.25 19.6 L8.0 18.65 M11.9 22.95 Q13.75 23.4 13.75 25.8 L13.65 27.0 Q13.45 27.5 12.35 27.5 11.1 27.5 10.45 25.85 L10.0 24.15 Q10.0 22.55 11.9 22.95 M32.65 29.9 Q33.2 30.1 33.4 30.5 L33.55 31.05 33.85 31.6 Q35.0 33.35 35.0 33.75 L34.75 34.75 34.5 35.75 33.85 36.6 Q33.2 37.0 32.25 37.0 29.55 37.0 28.6 34.25 L28.25 31.6 Q28.25 29.75 28.55 29.25 29.2 28.05 31.65 29.6 L32.65 29.9 M-13.1 -42.6 Q-10.0 -39.05 -10.0 -35.9 L-10.0 -35.4 -10.0 -34.9 -10.25 -33.15 Q-10.45 -32.25 -10.8 -31.95 -10.5 -31.25 -10.5 -30.7 -10.5 -29.75 -11.25 -29.75 -12.5 -29.75 -15.5 -35.45 -15.5 -36.4 -15.2 -36.6 L-15.65 -37.55 Q-16.25 -38.85 -16.25 -41.35 -16.25 -46.1 -13.1 -42.6 M-18.85 -41.9 Q-19.0 -41.5 -19.6 -41.5 -21.0 -41.5 -21.5 -43.05 L-21.75 -44.75 Q-21.75 -46.7 -20.25 -45.75 -18.75 -44.8 -18.75 -42.8 L-18.85 -41.9 M-19.75 -33.75 Q-21.6 -33.75 -23.75 -35.8 -25.5 -37.5 -25.8 -38.5 L-27.0 -43.15 Q-27.0 -46.25 -22.5 -41.85 -18.0 -37.4 -18.0 -35.9 -18.0 -35.3 -18.5 -34.6 -19.05 -33.75 -19.75 -33.75 M-19.0 -32.4 Q-19.0 -34.9 -16.85 -34.0 -14.75 -33.1 -14.75 -30.9 -14.75 -30.2 -14.95 -30.0 L-16.0 -29.75 Q-17.55 -29.75 -18.45 -31.2 L-19.0 -32.4 M-15.4 -25.75 L-16.85 -25.5 Q-20.2 -25.5 -22.8 -29.5 -24.1 -31.55 -24.75 -33.55 -24.75 -35.6 -23.15 -34.65 -22.3 -34.15 -19.75 -31.65 L-18.9 -30.0 -17.55 -28.8 -15.95 -27.6 -14.75 -27.55 -12.05 -24.8 -11.65 -23.8 -11.5 -22.75 Q-11.1 -21.95 -10.0 -21.6 -9.05 -21.35 -9.0 -20.95 -9.0 -22.3 -8.0 -21.85 -7.0 -21.35 -7.0 -20.25 L-7.05 -19.55 -6.15 -19.55 Q-6.0 -19.55 -6.0 -18.9 -6.0 -18.55 -6.3 -18.35 L-6.9 -18.0 -6.7 -17.6 Q-5.75 -16.15 -5.75 -15.2 L-6.0 -14.3 -6.5 -14.25 Q-6.85 -14.25 -7.55 -15.9 -7.75 -15.5 -8.5 -15.5 -9.35 -15.5 -9.5 -16.0 L-9.5 -16.35 Q-9.5 -16.85 -9.15 -17.0 L-9.25 -17.8 Q-9.25 -19.0 -8.95 -19.2 L-8.25 -19.45 Q-8.7 -19.85 -9.0 -20.95 L-9.0 -20.9 Q-9.0 -20.45 -9.25 -20.35 L-10.1 -20.25 Q-11.5 -20.25 -12.35 -21.25 -13.0 -22.05 -13.0 -22.8 -14.75 -23.15 -14.8 -23.45 L-15.25 -25.0 -15.3 -25.5 -15.3 -25.85 -15.4 -25.75 M-11.5 -28.0 Q-11.5 -29.7 -10.35 -28.85 L-9.0 -27.3 -9.25 -26.75 Q-9.4 -26.5 -10.1 -26.5 -11.1 -26.5 -11.4 -27.3 L-11.5 -28.0 M-3.2 -33.05 L-2.75 -30.5 -3.0 -29.55 -3.25 -28.65 -2.6 -26.75 -2.0 -24.5 -2.0 -23.5 -2.2 -23.35 -2.75 -23.25 Q-3.45 -23.25 -3.65 -23.75 L-4.25 -24.75 Q-4.85 -25.2 -5.05 -25.6 L-5.25 -26.3 -6.5 -28.2 Q-7.25 -29.2 -7.25 -29.9 L-7.0 -30.35 Q-6.75 -30.5 -6.75 -30.8 -6.75 -31.3 -7.75 -32.9 L-8.0 -34.9 -7.9 -36.3 Q-7.7 -37.3 -6.9 -37.55 -4.7 -38.3 -3.9 -35.75 L-3.2 -33.05 M-26.05 -32.3 Q-24.6 -31.7 -24.5 -30.65 L-24.55 -30.25 -24.7 -30.1 -25.25 -30.0 Q-26.75 -30.0 -27.5 -31.8 -27.5 -32.9 -26.05 -32.3 M-24.25 -26.15 Q-24.25 -27.7 -23.1 -26.95 -22.0 -26.25 -22.0 -25.6 -22.0 -24.75 -23.0 -24.75 -23.95 -24.75 -24.2 -25.45 L-24.25 -26.15 M-0.9 -21.8 Q-0.75 -21.8 -0.75 -21.15 L-0.8 -20.75 -1.5 -20.5 -2.25 -21.15 -2.05 -21.75 -0.9 -21.8 M-2.75 -19.8 Q-2.75 -19.0 -3.0 -18.55 L-3.5 -18.5 Q-4.3 -18.5 -4.6 -19.1 -5.0 -19.3 -5.3 -20.05 L-6.05 -21.5 -7.6 -22.55 Q-9.0 -23.55 -9.0 -23.9 -9.0 -25.5 -6.25 -24.15 -4.35 -23.2 -3.75 -21.55 -2.75 -21.45 -2.75 -19.8 M-8.5 -12.85 L-9.25 -12.75 Q-10.5 -12.75 -11.0 -13.5 L-11.25 -14.15 Q-11.25 -15.4 -9.75 -14.65 -8.25 -13.9 -8.25 -13.4 -8.25 -12.95 -8.5 -12.85 M-2.25 -16.3 L-2.75 -16.25 Q-3.75 -16.25 -3.5 -17.3 -3.5 -18.45 -2.75 -18.45 -2.0 -18.45 -2.0 -17.3 -2.0 -16.75 -2.25 -16.3 M-15.6 -20.1 Q-15.8 -19.75 -17.0 -19.75 -18.4 -19.75 -19.35 -21.5 -20.0 -22.75 -20.0 -23.4 -20.0 -25.0 -17.75 -23.8 -15.5 -22.6 -15.5 -21.15 L-15.6 -20.1 M-18.6 -19.5 Q-17.25 -18.8 -17.25 -18.15 -17.25 -17.6 -17.5 -17.4 L-18.35 -17.25 Q-19.85 -17.25 -20.0 -19.05 -20.0 -20.2 -18.6 -19.5 M-12.75 -16.9 L-12.8 -16.5 -12.95 -16.35 -13.5 -16.25 Q-14.25 -16.25 -14.7 -16.85 L-15.0 -17.6 Q-15.0 -19.05 -13.95 -18.35 -13.05 -17.7 -12.75 -16.9 M-11.75 -10.9 Q-11.75 -11.6 -11.1 -11.75 -10.35 -11.95 -9.75 -10.75 L-9.75 -10.25 -9.95 -10.1 -10.5 -10.0 Q-11.05 -10.0 -11.4 -10.35 -11.75 -10.6 -11.75 -10.9 M-15.0 -8.5 Q-15.65 -8.5 -15.75 -9.3 L-15.75 -10.3 Q-15.75 -12.65 -14.75 -12.2 -13.75 -11.7 -13.75 -9.95 -13.75 -9.45 -14.35 -8.9 L-15.0 -8.5 M-11.0 -6.9 Q-9.75 -6.2 -9.75 -5.65 -9.75 -5.0 -10.6 -5.0 -11.6 -5.0 -12.0 -5.75 L-12.25 -6.4 Q-12.25 -7.65 -11.0 -6.9 M-15.5 -3.9 Q-15.5 -4.4 -15.0 -4.7 L-13.4 -4.8 Q-13.25 -4.8 -13.25 -4.15 -13.25 -3.8 -13.7 -3.5 L-14.6 -3.25 -15.3 -3.3 -15.4 -3.45 -15.5 -3.9 M-11.75 -2.4 Q-11.75 -3.4 -10.15 -3.05 -10.0 -3.05 -10.0 -2.4 -10.0 -1.95 -10.25 -1.85 L-10.85 -1.75 -11.55 -1.8 Q-11.75 -1.8 -11.75 -2.4 M-1.05 3.45 Q-0.5 3.7 -0.5 4.7 L-0.95 6.55 Q-1.45 8.2 -2.0 8.5 L-2.75 7.8 -2.45 6.3 -2.0 4.75 Q-1.65 3.25 -1.05 3.45 M-8.35 4.1 Q-8.0 4.25 -8.0 4.8 -8.0 5.75 -8.6 6.35 -9.15 7.0 -10.1 7.0 L-11.25 6.75 Q-12.0 6.45 -12.0 6.05 -12.0 5.6 -11.65 5.25 L-11.0 4.6 Q-10.8 4.35 -10.15 4.15 L-9.5 4.0 -8.35 4.1 M-7.75 12.05 Q-7.75 12.9 -9.0 13.75 -9.75 13.6 -9.75 12.75 -9.75 11.45 -8.75 11.3 -7.75 11.15 -7.75 12.05 M-5.5 9.8 L-5.55 11.0 -5.75 11.15 -6.25 11.25 Q-7.25 11.25 -7.0 9.85 -7.0 8.55 -6.25 8.5 -5.5 8.4 -5.5 9.8 M-13.8 4.0 L-13.75 4.5 Q-13.75 5.25 -14.6 5.25 L-15.3 5.1 -15.4 5.0 -15.5 4.55 Q-15.5 3.4 -13.9 3.85 L-13.8 4.0 M-13.6 1.25 Q-15.25 1.25 -15.25 0.0 -15.25 -1.6 -14.0 -1.1 -12.75 -0.65 -12.75 0.4 -12.75 1.25 -13.6 1.25 M-1.75 16.5 Q-2.75 16.5 -3.0 13.55 -3.0 11.75 -2.0 12.8 -1.0 13.9 -1.0 15.5 L-1.0 16.15 Q-1.1 16.5 -1.75 16.5 M-5.0 16.25 Q-5.0 16.6 -5.65 17.45 L-7.0 18.75 Q-7.75 18.6 -7.75 17.75 -7.75 17.15 -7.15 16.45 -6.4 15.55 -5.15 15.6 L-5.05 15.75 -5.0 16.25" fill="#990000" fill-rule="evenodd" stroke="none"/>
  </g>
</svg>
