<?xml version="1.0" encoding="UTF-8" standalone="no"?>
<svg xmlns:ffdec="https://www.free-decompiler.com/flash" xmlns:xlink="http://www.w3.org/1999/xlink" ffdec:objectType="shape" height="93.2px" width="74.75px" xmlns="http://www.w3.org/2000/svg">
  <g transform="matrix(1.0, 0.0, 0.0, 1.0, 30.5, 50.7)">
    <path d="M12.0 -27.75 Q12.0 -26.7 10.75 -26.0 10.0 -26.6 10.0 -26.85 10.0 -28.35 11.0 -28.6 12.0 -28.85 12.0 -27.75 M11.55 -19.0 L10.75 -18.25 Q10.0 -18.85 10.0 -19.1 10.0 -20.15 11.0 -20.5 12.0 -20.85 12.0 -19.85 12.0 -19.45 11.55 -19.0 M14.0 -16.1 L14.1 -16.75 15.5 -16.8 15.75 -16.15 Q15.35 -15.35 14.75 -15.25 14.0 -15.85 14.0 -16.1 M18.6 -12.75 L17.6 -12.8 17.5 -13.6 Q17.5 -14.3 18.05 -14.4 L20.25 -14.55 20.5 -13.9 Q20.5 -13.45 19.85 -13.1 19.3 -12.75 18.6 -12.75 M5.25 -23.5 Q5.25 -25.05 6.25 -24.4 7.25 -23.8 7.25 -23.0 7.25 -22.25 6.25 -22.25 5.4 -22.25 5.25 -22.95 L5.25 -23.5 M2.25 -23.15 L2.1 -22.75 1.5 -22.5 0.75 -23.15 Q0.7 -24.4 2.0 -23.8 L2.25 -23.15 M19.25 -5.4 Q19.25 -5.75 20.6 -6.4 21.85 -7.0 22.5 -7.05 L22.75 -6.4 Q22.75 -5.75 22.0 -5.25 21.3 -4.75 20.5 -4.75 L19.35 -4.8 19.25 -5.4 M19.0 -1.9 L17.85 -1.55 17.0 -1.25 16.25 -2.1 Q16.25 -3.4 18.75 -3.35 21.25 -3.3 21.25 -1.9 21.25 -1.25 20.25 -1.25 19.65 -1.25 19.35 -1.55 L19.0 -1.9 M26.5 -6.5 Q26.5 -6.1 25.25 -5.25 24.5 -5.85 24.5 -6.1 24.5 -7.8 25.5 -7.65 26.5 -7.45 26.5 -6.5 M24.5 -1.9 Q24.5 -1.25 23.6 -1.25 L22.85 -1.3 22.75 -1.9 Q22.75 -2.95 24.25 -2.55 L24.5 -1.9 M28.25 -2.0 Q27.45 -1.5 26.5 -1.5 25.9 -1.5 25.75 -2.15 L25.75 -2.8 Q25.75 -4.3 27.4 -4.35 29.0 -4.45 29.0 -2.95 29.0 -2.45 28.25 -2.0 M40.75 32.3 Q40.2 33.25 38.35 33.25 36.8 33.25 36.15 30.85 L35.75 28.4 Q35.75 24.55 38.4 25.4 41.0 26.25 41.0 30.7 L40.75 32.3 M43.8 24.2 L41.25 24.5 38.15 22.5 37.55 21.45 37.5 20.65 Q37.5 19.6 38.7 18.95 L39.25 18.75 Q38.65 18.75 38.25 18.05 L38.0 17.45 Q38.0 16.5 39.0 16.5 40.0 16.5 40.0 17.65 40.0 18.55 39.55 18.7 40.65 18.6 42.0 19.65 L43.45 21.55 Q44.25 22.55 44.25 23.25 44.25 23.95 43.8 24.2 M42.65 8.45 L41.5 8.75 40.35 8.6 40.25 8.05 Q40.25 6.25 41.65 6.65 43.0 7.1 43.0 7.75 L42.65 8.45 M30.6 4.6 L30.5 4.05 Q30.5 3.0 32.25 3.35 L32.4 3.5 32.5 4.0 Q32.5 4.75 31.5 4.75 L30.6 4.6 M39.5 11.65 L39.25 13.25 Q38.9 14.25 38.25 14.25 L37.9 14.0 Q37.85 13.75 37.5 13.75 37.4 13.75 36.05 14.5 34.65 15.25 33.25 15.25 29.5 15.25 27.9 12.7 L27.0 9.95 Q27.0 7.9 28.15 8.2 29.25 8.45 29.25 10.0 29.25 10.95 33.85 12.75 L34.8 11.25 Q35.85 9.75 37.35 9.75 38.8 9.75 39.3 10.65 L39.5 11.65 M26.25 5.85 L25.25 6.0 Q23.95 6.0 23.25 4.65 22.95 4.25 22.05 4.25 L19.85 4.1 Q19.75 4.15 19.75 3.55 19.75 3.0 20.5 2.75 L22.5 2.0 Q23.85 1.75 24.4 3.0 24.85 4.0 25.4 4.4 L26.5 5.15 26.25 5.85 M21.0 0.75 L20.85 1.25 20.25 1.5 19.5 0.8 Q19.5 -0.35 20.75 0.1 21.0 0.15 21.0 0.75 M24.35 8.6 L22.6 9.0 Q21.95 9.0 21.2 8.1 L20.5 7.1 Q20.5 5.75 22.0 6.5 L22.7 7.15 24.25 7.0 25.0 7.75 Q25.0 8.25 24.35 8.6 M23.6 12.35 L23.75 13.95 Q23.75 15.15 23.0 15.75 22.1 15.0 21.7 13.45 L20.75 10.9 18.25 9.0 17.1 7.7 17.0 6.8 17.1 5.85 Q17.35 5.35 18.5 5.6 L18.55 6.2 18.5 6.9 Q18.5 7.25 20.35 8.6 L22.4 10.25 23.6 12.35 M29.4 18.0 Q29.7 19.0 32.5 19.0 33.85 19.0 34.45 20.9 L34.75 22.85 34.5 24.35 34.5 25.65 34.45 27.2 Q34.1 28.25 32.6 28.25 30.65 28.25 29.75 26.3 L29.25 24.3 Q29.25 24.0 29.55 23.5 L29.85 22.65 Q29.85 22.05 28.6 21.8 27.2 21.5 26.85 20.65 L26.0 18.6 Q25.0 16.35 25.0 14.55 25.0 12.7 25.95 12.9 26.95 13.1 28.4 15.35 28.7 15.7 29.4 18.0 M21.25 14.85 Q21.25 15.4 22.0 17.7 L22.75 20.25 23.0 21.2 23.25 22.15 Q23.25 25.25 21.75 25.25 20.6 25.25 20.2 23.9 L20.0 22.45 Q20.0 21.75 20.5 21.2 L21.0 20.4 Q20.25 18.85 20.0 17.6 19.75 16.5 19.75 14.8 19.75 13.1 20.45 12.6 21.1 12.05 21.25 14.85 M34.15 17.25 L34.25 17.75 Q34.25 18.5 33.0 18.5 L31.85 18.35 31.75 17.8 Q31.75 17.25 32.2 17.1 32.7 16.9 34.0 17.1 L34.15 17.25 M18.75 1.25 L18.4 1.95 17.25 2.25 16.1 2.1 16.0 1.55 Q16.0 1.0 16.45 0.85 L18.5 0.6 Q18.75 0.65 18.75 1.25 M12.85 3.0 Q12.85 3.25 12.25 3.25 L11.1 2.2 10.25 1.3 Q10.25 0.05 11.65 0.75 13.0 1.45 13.0 2.3 L12.85 3.0 M11.0 11.1 L10.75 9.85 Q10.75 9.0 11.35 9.0 11.95 9.0 12.5 10.0 L12.75 12.35 12.4 14.85 Q12.0 16.1 12.0 16.95 12.0 17.6 12.75 18.3 13.5 18.95 13.5 19.3 L13.4 19.9 13.25 20.1 12.75 20.25 11.65 19.55 10.85 18.65 Q10.5 18.1 10.5 16.9 L10.9 14.55 11.25 12.3 11.0 11.1 M16.75 10.4 L17.25 12.65 Q18.0 13.9 18.0 16.95 18.0 18.8 17.3 21.5 16.4 24.75 15.25 24.75 14.0 24.75 13.75 23.6 L13.75 22.35 Q13.75 19.9 14.35 18.75 14.8 17.9 15.75 17.35 L15.75 15.75 15.4 12.7 15.0 10.8 Q15.0 10.3 15.45 9.9 16.0 9.35 16.75 10.4 M8.65 10.0 L8.75 10.5 8.25 11.7 Q7.75 12.8 7.75 13.25 7.75 14.4 8.25 15.4 8.75 16.45 8.75 18.15 8.75 19.65 8.55 20.15 8.1 21.25 6.6 21.25 5.5 21.25 5.75 20.25 L5.85 19.5 Q6.1 19.0 7.15 19.25 L7.25 18.15 Q7.25 17.15 6.75 16.1 6.25 15.0 6.25 13.2 6.25 11.6 6.4 11.25 6.8 10.05 8.5 9.85 L8.65 10.0 M5.4 17.75 Q5.15 18.25 4.5 18.25 3.15 18.25 3.5 17.15 3.5 15.65 4.5 15.3 5.5 15.0 5.5 16.75 L5.4 17.75 M1.75 17.7 Q1.45 18.5 1.0 18.5 0.0 18.5 0.25 17.4 0.25 15.9 1.15 15.6 2.0 15.3 2.0 16.45 L1.75 17.7 M4.65 21.5 L4.75 22.0 3.75 23.0 3.0 22.3 Q3.0 21.9 3.15 21.6 3.5 21.0 4.5 21.35 L4.65 21.5 M18.0 27.6 Q19.1 25.85 19.75 26.25 L22.1 28.4 22.25 30.35 Q22.25 31.6 21.8 32.45 21.2 33.5 20.1 33.5 18.65 33.5 17.7 31.7 L17.0 29.8 Q17.0 29.15 18.0 27.6 M15.2 28.75 Q14.95 29.25 14.1 29.25 13.4 29.25 13.0 28.2 L12.75 27.05 Q12.75 25.5 14.0 26.2 15.25 26.9 15.25 27.95 L15.2 28.75 M17.4 32.25 L17.5 32.75 17.35 33.25 16.75 33.5 16.0 32.8 Q16.0 31.6 17.25 32.1 L17.4 32.25 M30.7 36.75 Q30.3 37.75 28.5 37.75 27.7 37.75 26.3 36.8 L25.0 35.65 24.45 34.25 24.25 33.2 Q24.25 31.9 24.8 31.1 25.7 29.6 27.9 31.35 30.1 32.5 30.55 33.35 30.75 33.75 30.75 35.2 L30.7 36.75 M32.95 33.05 Q34.2 32.9 35.4 34.1 36.85 35.85 37.4 37.1 38.0 38.4 38.0 40.0 L37.8 41.45 Q37.25 42.5 35.35 42.5 34.35 42.5 32.75 40.5 31.25 38.6 31.25 37.75 31.25 36.95 31.4 36.5 L31.5 34.85 Q31.55 33.15 32.95 33.05 M29.25 28.95 Q28.85 30.25 28.0 30.25 26.55 30.25 25.35 27.7 L24.5 25.3 Q24.5 22.25 27.0 22.8 29.5 23.35 29.5 27.25 L29.25 28.95 M22.25 35.3 Q22.25 34.2 23.75 34.6 L23.9 34.75 24.0 35.25 Q24.0 36.0 23.1 36.0 L22.35 35.85 Q22.25 35.9 22.25 35.3 M-12.7 -45.55 L-11.65 -44.65 Q-11.25 -44.1 -11.25 -42.7 L-11.75 -36.5 Q-11.75 -35.35 -11.25 -34.05 L-10.75 -32.6 -10.6 -32.5 Q-9.7 -31.85 -9.55 -31.65 -9.0 -31.0 -9.0 -29.4 L-9.05 -28.65 -9.25 -28.55 -9.75 -28.5 Q-10.3 -28.5 -10.55 -29.05 L-10.75 -29.9 -11.0 -30.45 -11.75 -31.15 -13.15 -32.85 -13.25 -34.15 -13.2 -35.05 Q-13.5 -37.05 -13.75 -37.8 L-15.15 -41.35 Q-15.5 -42.2 -15.5 -43.85 L-15.5 -45.2 Q-15.3 -46.25 -14.25 -46.25 -13.65 -46.25 -12.7 -45.55 M-19.75 -46.75 Q-21.15 -46.75 -21.85 -48.0 -22.25 -48.8 -22.25 -49.4 -22.25 -51.3 -20.5 -50.4 -18.75 -49.5 -18.75 -48.15 L-18.85 -47.15 Q-19.0 -46.75 -19.75 -46.75 M-18.9 -40.0 L-18.75 -38.25 -18.15 -36.5 -17.5 -34.9 -17.55 -34.5 -17.7 -34.35 -18.25 -34.25 Q-18.75 -34.25 -19.2 -34.9 L-19.75 -35.8 Q-20.05 -36.4 -21.5 -37.25 L-22.35 -38.45 Q-22.75 -39.1 -23.65 -39.4 -24.95 -39.85 -25.45 -40.8 L-26.05 -42.4 -26.6 -44.0 -27.0 -45.4 Q-27.0 -46.85 -25.5 -46.2 L-23.0 -44.75 Q-21.7 -44.2 -21.1 -43.0 L-20.25 -41.75 Q-19.2 -41.25 -18.9 -40.0 M-13.5 -31.5 L-13.7 -31.35 -14.25 -31.25 Q-14.8 -31.25 -15.8 -32.0 -16.75 -32.75 -16.75 -33.05 -16.75 -34.4 -15.25 -33.55 -13.85 -32.75 -13.5 -32.0 L-13.5 -31.5 M-16.5 -29.1 Q-15.55 -29.55 -14.15 -28.75 -12.75 -27.35 -12.3 -26.55 L-11.9 -25.45 -11.55 -24.3 -10.85 -23.45 -10.25 -22.4 Q-10.25 -21.75 -11.1 -21.75 -12.4 -21.75 -13.2 -23.85 L-14.3 -26.5 -14.85 -26.05 Q-15.2 -25.75 -15.85 -25.75 -17.05 -25.75 -17.25 -28.3 -17.25 -28.75 -16.5 -29.1 M-19.35 -28.0 Q-21.2 -28.0 -22.65 -30.25 L-24.0 -33.15 Q-24.15 -33.55 -25.5 -34.05 L-27.4 -34.8 Q-28.7 -35.65 -28.95 -36.3 L-29.0 -37.55 Q-29.0 -39.9 -26.5 -39.6 -23.9 -39.25 -23.0 -35.5 -22.8 -33.25 -22.25 -32.3 -21.5 -31.15 -19.6 -30.65 -18.0 -30.25 -18.0 -29.65 -18.0 -28.0 -19.35 -28.0 M-4.6 -33.0 L-5.0 -30.3 Q-5.0 -29.25 -4.25 -28.1 L-3.5 -26.9 Q-3.5 -26.45 -3.75 -26.35 L-4.5 -26.25 Q-5.8 -26.25 -6.6 -28.55 -7.25 -30.3 -7.25 -31.4 -7.25 -32.55 -7.85 -34.15 -8.5 -35.75 -8.5 -36.65 -8.5 -40.1 -6.35 -40.0 -4.25 -39.9 -4.25 -36.5 -4.25 -35.65 -4.6 -33.0 M-8.85 -26.05 L-7.3 -24.4 -5.2 -21.9 -5.25 -22.0 -5.5 -23.1 -5.2 -24.15 Q-4.75 -24.8 -4.0 -23.75 L-3.55 -22.65 -3.25 -21.5 -3.3 -21.05 -3.5 -20.85 -4.0 -20.75 Q-4.6 -20.75 -5.0 -21.45 L-5.0 -21.0 -5.2 -20.85 -5.75 -20.75 Q-7.25 -20.75 -10.0 -25.55 -10.0 -27.1 -8.85 -26.05 M-29.1 -41.5 Q-30.15 -41.5 -30.5 -42.9 -30.5 -44.0 -29.35 -43.55 -28.25 -43.1 -28.25 -42.15 -28.25 -41.5 -29.1 -41.5 M-27.8 -32.4 L-28.75 -32.25 Q-29.6 -32.25 -29.75 -32.75 L-29.75 -33.2 Q-29.75 -34.55 -28.75 -34.05 -27.75 -33.55 -27.75 -33.0 L-27.8 -32.4 M-25.9 -27.2 L-26.0 -27.65 Q-26.0 -28.7 -24.15 -28.3 -24.0 -28.3 -24.0 -27.65 -24.0 -27.2 -24.25 -27.1 L-25.0 -27.0 -25.8 -27.05 -25.9 -27.2 M-23.25 -29.0 Q-24.15 -29.0 -24.7 -29.85 L-25.0 -30.6 Q-25.0 -32.95 -22.25 -29.65 -22.25 -29.0 -23.25 -29.0 M-21.0 -19.75 L-21.75 -20.4 -21.55 -21.0 -20.4 -21.05 Q-20.25 -21.05 -20.25 -20.4 L-20.3 -20.0 -21.0 -19.75 M-0.3 -22.05 L-0.5 -21.85 -1.0 -21.75 Q-1.5 -21.75 -1.8 -22.25 L-2.0 -22.9 Q-2.0 -23.9 -1.1 -23.65 -0.25 -23.4 -0.25 -22.5 L-0.3 -22.05 M-6.15 -18.05 Q-6.0 -18.05 -6.0 -17.4 L-6.05 -17.0 -6.75 -16.75 -7.5 -17.4 -7.3 -18.0 -6.15 -18.05 M-9.25 -12.9 Q-9.25 -12.45 -9.5 -12.35 L-10.5 -12.25 -11.55 -12.3 -11.65 -12.45 -11.75 -12.9 Q-11.75 -13.5 -11.25 -13.6 L-9.4 -13.55 Q-9.25 -13.55 -9.25 -12.9 M-14.55 -20.65 L-15.5 -20.5 Q-16.1 -20.5 -17.4 -21.8 L-17.95 -22.0 -18.55 -22.25 Q-18.75 -22.5 -18.75 -23.05 -18.75 -25.1 -16.6 -23.45 L-14.5 -21.4 -14.55 -20.65 M-12.5 -20.0 Q-12.5 -21.25 -11.0 -20.55 -9.5 -19.85 -9.5 -18.65 -9.5 -18.0 -10.35 -18.0 L-11.6 -19.0 -12.5 -20.0 M-13.5 -10.35 L-13.5 -9.75 -13.75 -9.6 -14.35 -9.5 Q-15.05 -9.5 -15.25 -10.0 L-15.25 -10.35 Q-15.25 -11.15 -14.35 -11.15 -13.5 -11.15 -13.5 -10.35 M-15.6 -6.75 L-14.65 -6.55 Q-14.5 -6.55 -14.5 -5.9 -14.5 -5.55 -14.85 -5.3 -15.2 -5.0 -15.75 -5.0 -16.55 -5.0 -16.75 -5.4 L-16.75 -5.85 -16.45 -6.6 -15.6 -6.75 M-13.4 -2.3 Q-13.25 -2.3 -13.25 -1.65 L-13.3 -1.25 -14.0 -1.0 -14.75 -1.65 -14.55 -2.25 -13.4 -2.3 M-8.55 12.25 L-8.5 12.75 Q-8.5 13.5 -9.75 14.5 L-10.35 13.95 -10.5 13.6 Q-10.5 13.1 -10.1 12.6 -9.6 11.9 -8.65 12.1 L-8.55 12.25 M-9.25 4.95 Q-9.25 5.5 -9.7 6.0 -10.15 6.5 -10.75 6.5 -11.75 6.5 -11.5 5.4 -11.5 4.0 -10.25 4.0 -9.45 4.0 -9.3 4.45 L-9.25 4.95 M-14.8 3.75 L-14.75 4.25 -14.8 4.75 -15.5 5.0 -16.25 4.3 Q-16.25 3.05 -14.9 3.6 L-14.8 3.75 M-5.25 19.85 Q-5.25 19.35 -4.85 19.0 L-3.4 18.85 -3.3 19.0 -3.25 19.5 Q-3.25 19.95 -3.8 20.35 L-4.5 20.75 Q-5.15 20.75 -5.25 20.35 L-5.25 19.85" fill="#990000" fill-rule="evenodd" stroke="none"/>
  </g>
</svg>
