<?xml version="1.0" encoding="UTF-8" standalone="no"?>
<svg xmlns:ffdec="https://www.free-decompiler.com/flash" xmlns:xlink="http://www.w3.org/1999/xlink" ffdec:objectType="shape" height="92.2px" width="77.5px" xmlns="http://www.w3.org/2000/svg">
  <g transform="matrix(1.0, 0.0, 0.0, 1.0, 33.25, 50.95)">
    <path d="M9.75 -32.4 Q9.75 -33.0 10.15 -33.1 L11.25 -33.05 11.5 -32.4 Q11.5 -31.75 10.6 -31.75 L9.85 -31.8 9.75 -32.4 M8.0 -34.25 Q8.0 -33.35 7.25 -33.25 6.5 -33.4 6.5 -34.2 6.5 -35.35 7.25 -35.2 8.0 -35.1 8.0 -34.25 M2.9 -26.25 Q2.85 -26.0 2.25 -26.0 L1.75 -26.05 1.5 -26.25 1.5 -28.0 Q2.45 -28.7 2.8 -28.3 L3.0 -27.25 2.9 -26.25 M20.0 -20.9 Q20.0 -20.25 19.1 -20.25 L18.35 -20.3 18.25 -20.9 Q18.25 -21.95 19.75 -21.55 L20.0 -20.9 M13.25 -21.9 L13.1 -21.5 12.5 -21.25 Q11.75 -21.8 11.75 -21.9 11.75 -23.1 13.0 -22.55 L13.25 -21.9 M18.25 -0.05 Q18.5 -0.05 18.5 0.5 18.5 1.25 17.6 1.25 L16.85 1.1 Q16.75 1.15 16.75 0.55 16.75 0.0 17.15 -0.1 L18.25 -0.05 M25.25 -21.55 L25.5 -20.9 Q25.5 -20.25 24.6 -20.25 L23.85 -20.3 23.75 -20.9 Q23.75 -21.95 25.25 -21.55 M27.0 -15.35 Q27.0 -15.9 27.75 -16.1 28.5 -16.25 28.5 -15.35 L28.4 -14.75 27.75 -14.5 Q27.0 -15.05 27.0 -15.35 M23.0 -9.0 L22.25 -9.65 Q22.25 -10.05 22.4 -10.25 L23.5 -10.3 23.75 -9.65 23.6 -9.25 23.0 -9.0 M21.5 -3.4 L21.35 -3.0 20.75 -2.75 20.0 -3.4 Q20.0 -4.65 21.25 -4.05 L21.5 -3.4 M29.15 -2.95 Q31.5 -2.75 31.5 -1.9 31.5 -1.45 31.2 -1.35 L29.5 -1.25 27.05 -1.6 Q26.75 -1.75 26.75 -2.15 26.75 -3.15 29.15 -2.95 M44.15 6.5 L44.25 7.0 43.95 7.6 42.85 7.75 41.6 7.6 41.5 7.05 Q41.5 6.45 41.95 6.35 42.45 6.15 44.0 6.35 L44.15 6.5 M42.4 10.25 Q43.5 10.5 43.5 11.45 43.5 12.5 42.75 12.5 L41.25 11.05 Q41.25 10.0 42.4 10.25 M40.7 15.9 Q40.5 16.5 39.6 16.5 L37.45 15.25 35.75 14.0 35.2 14.75 33.75 15.0 Q32.4 15.0 30.9 14.15 29.4 13.25 29.25 12.25 L29.5 12.15 30.1 12.0 Q30.55 12.0 31.7 12.7 32.85 13.35 33.55 13.35 L35.85 11.45 Q38.0 9.8 39.35 10.85 L40.0 11.8 40.4 12.9 Q40.75 13.65 40.75 14.7 L40.7 15.9 M43.5 24.0 L43.5 25.45 Q43.3 26.5 42.25 26.5 41.4 26.5 40.5 23.75 L39.75 20.9 39.85 20.35 Q42.55 20.05 43.25 21.75 L43.5 24.0 M41.0 30.6 Q41.0 33.25 39.0 33.25 38.15 33.25 37.25 32.05 36.5 31.1 36.5 30.8 L37.05 29.4 37.9 28.0 Q39.8 27.15 40.6 28.75 41.0 29.55 41.0 30.6 M36.9 4.0 L37.0 4.5 Q37.0 4.9 36.5 5.2 L35.35 5.5 34.6 5.35 34.5 4.8 Q34.5 4.3 34.95 3.95 L36.75 3.85 36.9 4.0 M33.0 6.05 L32.85 6.75 32.25 7.0 Q31.85 7.0 31.05 6.05 L30.25 5.0 26.75 5.2 Q24.35 5.7 23.5 4.85 23.0 4.5 23.0 3.9 L23.1 3.35 25.7 3.45 31.1 3.75 32.25 4.9 Q33.0 5.6 33.0 6.05 M32.45 1.6 L31.25 1.75 Q29.0 1.75 29.0 0.8 29.0 -0.15 30.9 0.05 32.75 0.25 32.75 1.0 L32.45 1.6 M33.65 8.75 L33.75 9.25 Q33.75 9.75 33.0 10.25 32.3 10.75 31.85 10.75 L30.85 10.6 Q30.75 10.65 30.75 10.05 30.75 9.45 31.4 9.1 L33.5 8.6 33.65 8.75 M26.2 0.6 L24.75 0.75 23.15 0.45 Q23.0 0.35 23.0 0.05 23.0 -0.7 24.75 -0.8 26.5 -0.85 26.5 0.0 26.5 0.5 26.2 0.6 M23.25 1.5 L23.1 2.0 22.5 2.25 21.75 1.55 Q21.75 0.3 23.0 0.85 23.25 0.9 23.25 1.5 M24.75 7.8 Q24.75 6.95 25.9 6.9 L29.25 6.85 29.4 7.0 29.5 7.5 Q29.5 7.95 28.7 8.35 L27.5 8.75 Q25.6 8.75 25.0 8.35 L24.75 7.8 M24.9 11.65 L26.5 12.85 26.3 13.4 Q26.15 13.75 25.75 13.75 24.6 13.75 22.8 12.5 21.0 11.3 21.0 10.65 21.0 9.75 21.6 9.75 22.2 9.75 23.1 10.75 L24.9 11.65 M24.75 23.0 L25.95 25.75 Q26.5 26.7 26.5 27.75 L26.45 28.7 Q26.25 29.25 25.5 29.25 24.05 29.25 23.4 27.55 22.95 26.35 23.0 25.15 L22.5 22.7 22.0 21.15 Q22.0 20.2 22.7 20.1 23.35 20.0 24.1 20.6 24.5 21.35 24.75 23.0 M27.5 19.85 Q27.5 17.4 29.65 18.05 31.75 18.75 31.75 21.2 L31.6 22.6 Q31.35 23.25 30.5 23.25 29.25 23.25 28.25 21.75 27.5 20.55 27.5 19.85 M34.75 17.85 Q35.3 17.65 37.1 17.85 L38.0 19.75 37.85 20.25 Q37.85 20.5 37.25 20.5 36.9 20.5 36.65 20.15 L36.25 19.6 Q35.75 19.1 35.1 19.05 L34.35 19.1 Q34.25 19.15 34.25 18.55 34.25 17.95 34.75 17.85 M35.15 24.1 L35.5 24.25 Q35.9 24.6 36.3 25.85 L36.75 27.85 Q36.75 29.75 35.5 29.75 L34.75 29.5 34.0 29.25 33.8 29.2 34.0 30.55 Q34.0 31.3 33.6 31.85 33.15 32.5 32.35 32.5 30.7 32.5 29.95 31.0 29.5 30.15 29.5 29.3 29.5 27.0 31.75 27.45 L32.75 27.85 32.75 26.55 Q32.75 25.3 32.9 24.8 32.35 24.4 32.0 23.55 L31.75 22.25 Q31.75 20.6 33.9 20.4 36.0 20.15 36.0 22.35 36.0 22.95 35.25 23.95 L35.15 24.1 M12.9 1.9 L12.25 2.25 11.6 1.7 11.5 1.35 Q11.5 0.8 12.25 0.6 13.0 0.45 13.0 1.3 L12.9 1.9 M12.0 3.35 Q12.75 3.2 12.75 4.05 L12.65 4.65 12.0 5.0 Q11.25 4.35 11.25 4.1 11.25 3.55 12.0 3.35 M12.0 11.2 Q12.0 12.0 11.25 12.25 10.5 11.75 10.3 10.5 L10.25 8.8 10.25 6.85 Q11.65 6.4 11.75 7.5 L12.0 11.2 M18.15 9.0 L18.25 9.5 18.1 10.0 17.5 10.25 16.75 9.55 Q16.75 8.35 18.0 8.85 L18.15 9.0 M7.25 16.35 L7.3 14.9 Q7.45 14.1 8.25 13.75 8.85 14.25 8.75 15.15 L8.75 16.5 Q8.75 17.7 10.65 19.65 12.5 21.6 12.5 24.7 L12.4 25.65 12.25 25.85 11.75 26.0 11.25 25.9 11.0 25.65 Q10.9 21.65 9.05 19.95 7.25 18.25 7.25 16.35 M8.25 21.75 Q8.8 21.6 9.4 22.25 L9.75 24.1 Q9.75 24.65 9.0 25.25 7.75 24.15 7.75 22.45 7.75 21.95 8.25 21.75 M15.35 15.0 L14.75 15.25 Q14.15 15.25 13.75 14.4 L13.5 13.5 Q13.5 11.9 14.5 12.8 15.5 13.75 15.5 14.5 L15.35 15.0 M17.9 16.1 L17.5 14.6 Q17.5 12.85 18.65 14.2 19.75 15.5 19.75 16.8 L19.65 18.15 19.5 18.35 19.0 18.5 18.5 18.4 18.25 18.15 17.9 16.1 M18.15 18.5 L18.25 19.0 17.9 20.05 17.5 21.05 Q17.5 22.5 19.4 22.9 21.25 23.35 21.25 25.65 L21.1 26.75 Q20.85 27.25 19.75 27.25 17.85 27.25 17.4 25.75 L17.25 24.1 16.8 23.35 16.25 22.6 Q16.0 22.15 16.0 21.1 L16.1 19.35 Q16.5 18.3 18.0 18.35 L18.15 18.5 M14.0 17.25 L14.5 20.5 Q14.5 22.0 13.75 22.0 12.95 22.0 12.8 20.7 L12.75 19.0 12.5 17.4 12.25 16.05 Q12.25 15.5 12.65 15.35 L13.6 15.5 14.0 17.25 M14.0 29.0 L14.0 28.4 Q14.0 27.2 14.75 27.2 15.5 27.25 15.5 28.4 15.5 29.5 14.75 29.5 14.1 29.5 14.0 29.0 M19.75 32.45 Q19.75 31.0 20.95 30.4 L22.75 30.5 23.5 32.25 23.75 33.6 Q23.75 35.25 22.25 35.25 20.5 35.25 19.95 33.8 L19.75 32.45 M33.5 36.5 Q33.5 37.5 32.6 37.5 L31.65 37.3 Q31.25 37.75 30.35 37.75 29.2 37.75 28.6 37.15 L27.75 36.25 Q27.3 35.95 27.1 35.15 L27.0 34.5 Q27.0 32.05 29.5 32.9 31.0 33.45 31.6 34.5 32.6 34.55 33.1 35.35 33.5 35.95 33.5 36.5 M37.5 34.95 Q40.0 36.3 40.0 39.65 L39.85 40.75 Q39.6 41.25 38.75 41.25 37.35 41.25 36.05 38.9 L35.0 36.5 Q35.0 33.6 37.5 34.95 M-21.35 -50.9 Q-20.25 -50.55 -20.25 -49.0 L-20.3 -48.0 Q-20.45 -47.5 -21.25 -47.5 -22.5 -47.5 -22.5 -49.55 -22.5 -51.25 -21.35 -50.9 M-9.5 -45.95 Q-9.5 -47.1 -8.2 -47.2 -7.25 -47.25 -6.75 -46.45 -5.65 -46.4 -5.35 -45.75 L-5.25 -45.05 Q-5.25 -44.2 -5.75 -43.6 L-5.9 -43.4 -5.75 -43.1 -6.25 -42.3 Q-6.25 -42.2 -5.75 -41.85 -5.25 -41.55 -5.25 -41.1 -5.25 -40.65 -5.9 -39.75 -5.25 -39.05 -5.25 -38.55 -5.25 -38.05 -5.6 -37.05 L-6.0 -35.25 -6.2 -35.1 -6.75 -35.0 -7.2 -35.05 -7.5 -35.25 -7.5 -36.8 -8.0 -36.75 Q-9.0 -36.75 -8.75 -38.35 L-8.65 -40.75 Q-8.45 -42.15 -7.75 -42.75 L-7.8 -42.8 Q-9.25 -42.95 -9.25 -43.65 L-8.9 -44.35 -9.0 -45.05 -9.5 -45.95 M-12.25 -45.0 L-11.65 -42.95 -11.25 -41.25 -11.3 -39.9 -11.5 -39.85 -11.55 -39.75 -11.7 -39.6 -12.25 -39.5 Q-13.2 -39.5 -13.8 -41.35 L-14.15 -42.85 Q-14.75 -43.15 -14.95 -43.6 L-15.25 -44.75 -15.75 -45.7 -16.25 -46.95 -16.5 -47.65 Q-16.5 -48.55 -15.45 -49.05 -14.35 -49.6 -13.5 -48.5 L-13.45 -48.25 Q-12.85 -47.85 -12.5 -46.75 L-12.25 -45.0 M-18.3 -43.4 L-18.5 -43.3 -19.0 -43.25 Q-19.65 -43.25 -19.75 -43.7 L-19.75 -44.2 Q-19.75 -45.35 -19.0 -45.2 -18.25 -45.1 -18.25 -44.25 L-18.3 -43.4 M-15.7 -37.55 L-16.0 -37.75 -16.0 -39.5 Q-14.95 -40.2 -14.65 -39.8 -14.5 -39.6 -14.5 -38.75 L-14.5 -37.75 -14.7 -37.6 -15.25 -37.5 -15.7 -37.55 M-20.1 -38.4 L-19.9 -38.15 -19.25 -36.75 -19.3 -36.15 -19.5 -36.1 -19.5 -36.0 -19.55 -35.55 -19.75 -35.35 -20.25 -35.25 Q-20.75 -35.25 -21.05 -35.75 L-21.25 -36.4 -21.05 -37.05 -21.65 -37.95 -23.25 -40.25 -24.25 -40.6 Q-25.2 -41.05 -25.25 -41.75 L-25.25 -42.0 Q-25.75 -42.0 -25.85 -42.5 L-25.8 -43.15 Q-26.85 -43.45 -27.1 -44.4 L-27.6 -44.85 -27.75 -46.4 -27.6 -47.5 Q-27.2 -48.45 -25.75 -48.0 -24.9 -47.7 -24.5 -47.0 -23.95 -47.0 -23.8 -46.35 L-23.75 -45.75 -23.25 -45.3 -22.75 -45.0 Q-22.25 -44.3 -22.5 -44.35 L-22.25 -44.25 -21.65 -43.6 -21.5 -43.15 -20.6 -41.2 -20.0 -39.0 -20.1 -38.4 M-15.15 -31.2 Q-15.75 -31.25 -15.75 -32.1 -15.75 -32.9 -14.7 -33.35 -13.6 -33.9 -12.9 -32.25 L-12.25 -31.55 -11.75 -30.65 -11.35 -29.85 -11.05 -29.35 -10.4 -28.75 -8.9 -26.6 Q-8.0 -25.05 -8.0 -24.25 L-8.05 -23.8 -8.25 -23.6 -8.75 -23.5 Q-9.15 -23.5 -10.05 -25.2 L-11.25 -27.5 -11.85 -28.25 Q-13.15 -28.3 -13.3 -29.15 L-13.4 -29.7 Q-14.2 -30.4 -14.4 -31.05 L-15.15 -31.2 M-12.5 -36.0 Q-13.15 -36.0 -13.25 -36.45 L-13.25 -36.95 Q-13.25 -38.1 -12.5 -37.95 -11.75 -37.85 -11.75 -37.0 L-11.8 -36.15 -12.0 -36.05 -12.5 -36.0 M-19.0 -34.4 Q-19.0 -33.95 -19.25 -33.85 L-19.85 -33.75 -20.55 -33.8 -20.65 -33.95 -20.75 -34.4 Q-20.75 -35.5 -19.15 -35.05 -19.0 -35.05 -19.0 -34.4 M-17.05 -27.55 Q-17.2 -27.0 -18.0 -27.0 -19.55 -27.0 -20.2 -28.6 L-20.5 -30.05 Q-20.5 -32.3 -18.45 -31.6 -16.45 -30.95 -15.05 -28.4 -10.75 -24.1 -10.75 -22.75 L-10.8 -22.3 -11.0 -22.1 -11.5 -22.0 Q-12.25 -22.0 -13.9 -25.05 L-17.0 -28.25 -17.05 -27.55 M-7.0 -32.25 Q-8.0 -32.25 -7.75 -33.3 -7.75 -34.45 -7.0 -34.45 -6.25 -34.45 -6.25 -33.3 -6.25 -32.75 -6.5 -32.3 L-7.0 -32.25 M-5.5 -27.5 L-4.7 -25.9 Q-4.25 -25.1 -4.25 -24.3 L-4.3 -23.15 -4.5 -23.05 -5.0 -23.0 Q-5.45 -23.0 -6.55 -25.95 L-7.5 -28.75 -7.3 -29.3 -6.05 -29.15 -5.5 -27.5 M-28.5 -38.05 L-29.4 -38.3 -29.65 -38.55 -29.75 -39.1 Q-29.75 -40.1 -28.9 -40.3 -27.85 -41.7 -27.05 -41.05 L-26.75 -39.85 -26.7 -39.65 -26.5 -39.15 -26.25 -38.85 -26.0 -39.1 -25.35 -39.25 Q-24.65 -39.25 -24.5 -38.05 L-24.5 -36.75 -24.5 -35.55 Q-23.85 -35.35 -23.35 -34.75 -22.75 -34.05 -22.75 -33.55 L-22.8 -33.0 -22.95 -32.85 -23.5 -32.75 Q-24.0 -32.75 -24.6 -33.35 L-25.75 -34.25 Q-26.8 -34.6 -26.95 -35.5 -27.9 -35.65 -28.15 -37.1 L-28.25 -38.0 -28.5 -38.05 M-31.3 -43.8 L-31.5 -43.6 -32.0 -43.5 Q-33.25 -43.5 -33.25 -44.6 -33.25 -45.5 -32.25 -45.35 -31.25 -45.2 -31.25 -44.25 L-31.3 -43.8 M-31.0 -36.1 Q-31.0 -37.05 -30.0 -36.75 -29.0 -36.5 -29.0 -35.9 -29.0 -35.45 -29.25 -35.35 L-30.0 -35.25 Q-30.8 -35.25 -31.0 -35.75 L-31.0 -36.1 M-25.5 -31.95 Q-23.25 -30.55 -23.25 -29.9 -23.25 -29.45 -23.5 -29.35 L-24.25 -29.25 -26.2 -30.5 -27.75 -31.65 Q-27.75 -33.35 -25.5 -31.95 M-27.2 -28.1 L-27.5 -28.85 Q-27.5 -30.15 -26.1 -29.4 -24.75 -28.7 -24.75 -28.15 -24.75 -27.5 -25.6 -27.5 -26.7 -27.5 -27.2 -28.1 M-20.85 -3.65 Q-20.0 -3.65 -20.0 -2.85 L-20.0 -2.25 -20.2 -2.1 -20.75 -2.0 Q-21.5 -2.0 -21.75 -3.05 -21.75 -3.65 -20.85 -3.65 M-13.75 -21.0 Q-14.8 -21.0 -15.6 -21.8 -16.25 -22.4 -16.25 -22.9 -16.25 -25.4 -12.75 -21.65 -12.75 -21.2 -13.0 -21.1 L-13.75 -21.0 M-17.5 -23.75 L-17.7 -23.6 -18.25 -23.5 Q-19.0 -23.5 -20.75 -26.05 -20.75 -27.7 -19.35 -26.7 -18.05 -25.75 -17.5 -24.25 L-17.5 -23.75 M-15.25 -16.0 Q-15.25 -15.25 -16.1 -15.25 -16.85 -15.25 -17.0 -15.75 L-17.0 -16.1 Q-17.0 -17.0 -16.1 -16.85 -15.25 -16.65 -15.25 -16.0 M-16.0 -9.15 L-16.05 -8.75 -16.75 -8.5 -17.5 -9.15 -17.3 -9.75 -16.15 -9.8 Q-16.0 -9.8 -16.0 -9.15 M-9.8 1.0 L-10.0 1.15 -10.5 1.25 -11.3 0.75 -11.5 0.05 Q-11.5 -0.9 -10.6 -0.65 -9.75 -0.35 -9.75 0.3 L-9.8 1.0 M-15.8 8.0 L-15.75 8.5 Q-15.75 9.25 -16.75 9.25 L-17.55 9.1 -17.65 9.0 -17.75 8.55 Q-17.75 7.45 -15.9 7.85 L-15.8 8.0 M-11.05 13.75 L-11.0 14.25 -11.05 14.75 -11.75 15.0 -12.5 14.3 -12.3 13.7 -11.15 13.6 -11.05 13.75 M-2.8 12.75 L-2.75 13.25 Q-2.75 14.0 -3.6 14.0 L-4.3 13.85 -4.4 13.75 -4.5 13.3 Q-4.5 12.15 -2.9 12.6 L-2.8 12.75 M-0.8 21.5 L-0.75 22.0 -0.8 22.5 -1.5 22.75 -2.25 22.05 -2.05 21.4 -0.9 21.35 -0.8 21.5" fill="#990000" fill-rule="evenodd" stroke="none"/>
  </g>
</svg>
