<?xml version="1.0" encoding="UTF-8" standalone="no"?>
<svg xmlns:ffdec="https://www.free-decompiler.com/flash" xmlns:xlink="http://www.w3.org/1999/xlink" ffdec:objectType="shape" height="72.4px" width="86.2px" xmlns="http://www.w3.org/2000/svg">
  <g transform="matrix(1.0, 0.0, 0.0, 1.0, 50.95, 23.5)">
    <path d="M32.8 -10.3 Q31.9 -13.45 27.75 -16.85 22.4 -21.25 17.35 -21.25 14.15 -21.25 7.0 -18.8 -2.6 -15.5 -6.95 -10.55 -9.9 -6.7 -12.0 -4.3 -15.95 0.15 -19.8 1.75 L-17.15 2.1 Q-15.45 2.3 -14.6 2.85 L-14.65 4.15 -15.35 4.35 -15.9 4.45 Q-17.0 6.35 -21.45 10.85 -27.45 16.95 -32.3 19.6 L-32.45 19.65 -32.25 19.65 -27.55 18.6 -27.5 18.55 -26.95 18.65 Q-26.75 18.8 -26.75 19.65 -26.75 20.8 -27.3 21.4 L-28.65 22.95 Q-31.55 25.75 -32.7 27.45 -33.25 28.25 -33.8 30.3 -34.4 32.55 -35.2 33.85 L-38.1 39.45 Q-40.3 42.65 -46.3 46.65 -44.45 46.0 -42.6 45.9 L-39.45 45.6 Q-36.8 45.1 -32.35 42.7 L-31.9 42.45 -31.8 42.45 -30.65 42.05 -30.2 41.5 -27.9 40.1 -26.1 38.9 Q-25.4 39.1 -25.3 39.2 -25.05 39.4 -25.0 40.2 L-25.0 40.45 Q-25.05 41.15 -26.5 42.85 L-29.45 46.45 Q-16.75 41.4 -11.8 36.85 -10.45 35.6 -6.3 29.2 -4.6 26.6 -3.2 22.85 L-0.8 15.7 1.1 8.6 Q2.6 3.3 4.45 1.4 10.4 -4.7 18.6 -7.8 24.4 -9.95 29.8 -10.2 30.7 -9.7 31.5 -9.7 32.35 -9.7 32.4 -9.9 L32.35 -10.15 32.85 -10.0 32.8 -10.3 M11.3 -22.35 L17.4 -23.5 Q20.9 -23.5 24.6 -21.7 28.05 -20.1 29.65 -18.0 L32.95 -12.85 35.0 -9.0 35.05 -9.0 35.05 -8.95 35.25 -8.25 35.25 -7.4 35.05 -7.0 34.95 -6.75 Q34.75 -6.5 33.9 -6.5 33.0 -6.5 32.95 -7.05 L32.95 -7.75 30.85 -7.9 Q28.1 -7.9 18.7 -4.3 7.65 -0.05 6.05 3.6 4.5 7.05 2.9 12.2 L0.3 20.0 -3.15 28.55 Q-4.9 32.2 -7.7 35.95 -11.4 40.7 -19.95 45.0 -27.8 48.9 -31.8 48.9 L-32.6 48.9 Q-32.75 48.75 -32.95 48.7 L-33.1 48.6 Q-33.3 48.6 -33.3 47.75 -33.3 47.1 -32.3 45.5 L-34.65 46.5 Q-36.8 47.4 -38.6 47.4 L-42.25 48.05 -45.9 48.7 -49.3 48.05 Q-50.95 47.35 -50.95 46.4 L-50.85 45.55 Q-43.85 42.95 -41.15 39.65 -39.45 36.4 -38.5 35.5 L-36.65 31.9 Q-34.8 28.2 -34.8 27.7 -34.8 26.5 -31.4 22.55 L-31.1 22.2 -32.75 22.2 -33.25 22.3 -36.75 22.75 Q-37.35 22.75 -37.9 21.9 L-38.3 20.85 -37.85 20.05 -36.1 18.9 Q-29.85 16.0 -28.6 15.05 L-27.75 13.9 Q-26.6 12.6 -25.45 12.0 -24.65 11.55 -23.35 9.7 L-20.25 5.7 -18.85 4.3 -20.95 3.5 Q-22.65 2.55 -22.65 1.25 -22.65 0.95 -19.3 -1.65 -15.55 -4.6 -14.6 -5.75 L-11.55 -9.25 -8.4 -12.35 Q-4.85 -15.7 -3.4 -16.65 -0.6 -18.55 6.2 -21.25 L11.3 -22.35" fill="#000000" fill-rule="evenodd" stroke="none"/>
    <path d="M-32.3 19.6 Q-27.45 16.95 -21.45 10.85 -17.0 6.35 -15.9 4.45 L-15.35 4.35 -14.65 4.15 -14.6 2.85 Q-15.45 2.3 -17.15 2.1 L-19.8 1.75 Q-15.95 0.15 -12.0 -4.3 -9.9 -6.7 -6.95 -10.55 -2.6 -15.5 7.0 -18.8 14.15 -21.25 17.35 -21.25 22.4 -21.25 27.75 -16.85 31.9 -13.45 32.8 -10.3 L32.35 -10.15 32.3 -10.25 Q32.1 -11.5 29.35 -13.55 26.4 -15.75 24.35 -15.75 L19.3 -16.6 14.6 -17.5 12.5 -17.4 -2.3 -8.3 -4.85 -6.3 -10.35 -2.3 -10.2 -0.85 Q-10.0 -0.4 -9.05 -0.4 L-7.0 -0.8 -7.55 0.05 -11.9 5.5 -14.05 8.9 -14.85 9.85 Q-16.6 11.6 -20.15 13.75 -22.5 15.15 -22.5 16.45 L-22.25 17.4 -21.7 17.35 -19.55 17.05 -19.55 17.1 Q-23.2 20.95 -27.4 28.0 -29.6 31.95 -32.05 39.7 -32.7 40.55 -32.7 41.65 L-32.45 42.5 -32.35 42.7 Q-36.8 45.1 -39.45 45.6 L-42.6 45.9 Q-44.45 46.0 -46.3 46.65 -40.3 42.65 -38.1 39.45 L-35.2 33.85 Q-34.4 32.55 -33.8 30.3 -33.25 28.25 -32.7 27.45 -31.55 25.75 -28.65 22.95 L-27.3 21.4 Q-26.75 20.8 -26.75 19.65 -26.75 18.8 -26.95 18.65 L-27.5 18.55 -27.55 18.6 -32.25 19.65 -32.3 19.6" fill="#333333" fill-rule="evenodd" stroke="none"/>
    <path d="M32.35 -10.15 L32.4 -9.9 Q32.35 -9.7 31.5 -9.7 30.7 -9.7 29.8 -10.2 24.4 -9.95 18.6 -7.8 10.4 -4.7 4.45 1.4 2.6 3.3 1.1 8.6 L-0.8 15.7 -3.2 22.85 Q-4.6 26.6 -6.3 29.2 -10.45 35.6 -11.8 36.85 -16.75 41.4 -29.45 46.45 L-26.5 42.85 Q-25.05 41.15 -25.0 40.45 L-25.0 40.2 Q-25.05 39.4 -25.3 39.2 -25.4 39.1 -26.1 38.9 L-27.9 40.1 -30.2 41.5 -30.65 42.05 -31.8 42.45 -31.9 42.45 -32.45 42.5 -32.7 41.65 Q-32.7 40.55 -32.05 39.7 -29.6 31.95 -27.4 28.0 -23.2 20.95 -19.55 17.1 L-19.45 17.05 -19.55 17.05 -21.7 17.35 -22.25 17.4 -22.5 16.45 Q-22.5 15.15 -20.15 13.75 -16.6 11.6 -14.85 9.85 L-14.05 8.9 -11.9 5.5 -7.55 0.05 -7.0 -0.8 -9.05 -0.4 Q-10.0 -0.4 -10.2 -0.85 L-10.35 -2.3 -4.85 -6.3 -2.3 -8.3 12.5 -17.4 14.6 -17.5 19.3 -16.6 24.35 -15.75 Q26.4 -15.75 29.35 -13.55 32.1 -11.5 32.3 -10.25 L32.35 -10.15" fill="#231d1d" fill-rule="evenodd" stroke="none"/>
    <path d="M32.8 -10.3 L32.85 -10.0 32.35 -10.15 32.8 -10.3 M-31.9 42.45 L-32.35 42.7 -32.45 42.5 -31.9 42.45 M-19.55 17.1 L-19.55 17.05 -19.45 17.05 -19.55 17.1" fill="#332b2b" fill-rule="evenodd" stroke="none"/>
  </g>
</svg>
