<?xml version="1.0" encoding="UTF-8" standalone="no"?>
<svg xmlns:ffdec="https://www.free-decompiler.com/flash" xmlns:xlink="http://www.w3.org/1999/xlink" ffdec:objectType="shape" height="28.3px" width="36.9px" xmlns="http://www.w3.org/2000/svg">
  <g transform="matrix(1.0, 0.0, 0.0, 1.0, 18.65, 12.7)">
    <path d="M3.55 -3.95 L2.15 -1.75 1.85 -1.25 1.75 -1.0 1.65 -0.95 0.95 0.05 1.95 0.0 Q3.8 0.15 3.8 1.05 L3.75 1.6 Q3.7 1.9 3.05 1.9 L1.65 1.35 1.65 1.65 Q1.65 3.05 1.05 5.25 L0.6 5.3 Q-0.3 5.3 -0.05 3.15 L0.0 2.35 -0.85 3.05 -1.55 3.0 -1.65 2.85 -1.75 2.4 Q-1.75 2.05 -1.05 1.25 -0.4 0.5 0.25 0.35 L-0.05 0.05 -0.05 -0.35 0.4 -1.6 0.1 -1.5 Q-0.5 -2.25 -0.5 -2.95 L-0.5 -4.25 Q0.5 -4.5 0.75 -4.05 L0.85 -3.0 0.85 -2.55 Q1.95 -4.6 3.35 -4.55 3.55 -4.55 3.55 -3.95 M-5.9 -2.1 Q-3.0 -1.7 -3.0 -0.9 -3.0 -0.45 -3.6 -0.45 L-8.85 -1.65 Q-8.85 -2.45 -5.9 -2.1 M-2.85 -3.75 Q-0.75 -2.05 -0.75 -1.35 L-0.85 -0.75 Q-0.9 -0.5 -1.5 -0.5 L-5.0 -3.6 Q-5.0 -5.5 -2.85 -3.75 M-2.1 0.6 L-4.0 1.15 -4.55 1.5 -5.25 1.65 -6.0 1.5 -6.1 1.0 Q-6.1 0.35 -5.35 0.05 L-1.75 -0.4 Q-1.5 -0.4 -1.5 0.15 -1.5 0.5 -2.1 0.6 M-1.85 1.75 L-7.2 3.95 -7.65 3.9 -7.8 3.5 Q-7.8 2.65 -4.8 1.7 L-1.85 1.75 M-6.05 0.35 L-9.25 0.45 -12.55 0.25 -12.6 0.05 Q-12.6 -0.4 -9.2 -0.5 -5.85 -0.55 -5.85 0.0 L-6.05 0.35" fill="#990000" fill-rule="evenodd" stroke="none"/>
    <path d="M4.1 -2.65 L4.35 -4.0 Q4.55 -4.95 5.3 -5.3 L5.6 -5.25 5.7 -4.9 5.25 -3.15 Q4.75 -1.7 4.75 -0.8 L5.2 1.4 Q5.25 2.7 3.1 2.65 L2.55 4.8 Q1.75 6.8 0.3 6.8 L-0.05 6.7 -0.2 6.65 -0.2 6.3 Q-0.2 5.55 0.4 4.35 L0.4 3.35 Q-1.65 3.45 -3.5 5.05 -5.25 6.6 -7.55 6.6 -11.35 6.6 -14.15 3.5 L-18.65 -1.75 -17.5 -2.0 Q-15.45 -2.0 -12.35 -0.35 -9.2 1.25 -7.4 1.25 L-5.45 1.1 Q-5.3 0.8 -4.7 0.5 -4.7 0.15 -4.95 -0.1 L-11.25 -0.3 -11.45 -0.75 Q-11.6 -1.2 -12.35 -1.7 -12.35 -2.05 -11.95 -2.2 L-9.65 -2.25 Q-8.9 -2.65 -8.3 -3.9 L-7.45 -6.2 Q-6.5 -8.6 -5.1 -7.05 -3.1 -4.8 -2.6 -4.8 -2.25 -4.8 -1.3 -5.85 L0.1 -6.9 Q2.0 -6.9 3.05 -5.05 L3.95 -2.7 4.1 -2.65 M1.1 5.35 L1.0 5.25 1.0 5.4 1.1 5.35" fill="#990000" fill-rule="evenodd" stroke="none"/>
    <path d="M10.0 -6.5 Q10.0 -5.85 6.95 -3.85 L6.4 -3.45 11.55 -3.1 11.7 -3.05 12.25 -2.4 Q12.25 -1.9 11.75 -1.75 L3.1 -1.5 2.25 -1.6 Q1.95 -1.25 1.5 -1.25 -0.05 -1.25 -0.25 -3.05 -0.25 -3.95 0.5 -4.2 L0.5 -4.5 0.7 -5.65 2.0 -7.5 Q3.0 -8.9 3.45 -8.4 L3.75 -7.0 3.55 -6.05 3.25 -5.0 3.3 -4.9 3.55 -4.8 5.3 -5.6 6.5 -6.05 6.65 -6.15 9.1 -7.5 Q10.0 -7.5 10.0 -6.5 M4.4 -0.8 Q6.5 -0.35 6.5 0.55 6.5 1.55 5.35 1.7 L5.25 1.8 4.1 2.0 Q2.5 2.0 2.5 0.8 L2.6 0.45 2.25 -0.15 Q2.25 -1.25 4.4 -0.8 M0.25 -5.55 Q0.25 -4.05 -0.3 -3.65 L-0.25 -3.4 Q-0.25 -2.95 -0.85 -2.6 -1.3 -2.25 -1.55 -2.25 -1.0 -1.95 -1.0 -0.95 -1.0 -0.45 -1.15 -0.25 L-0.9 -0.15 -0.5 1.7 -0.35 1.6 -0.1 1.25 Q0.1 1.0 0.75 1.0 1.75 1.0 2.25 2.8 2.25 3.35 1.7 3.75 L0.5 4.1 Q0.15 4.1 0.15 6.95 L0.15 11.9 0.0 12.1 -0.5 12.25 -0.95 12.15 -1.25 11.9 -1.25 10.35 -1.5 10.15 Q-1.35 9.3 -1.8 7.15 L-2.25 4.3 -2.3 4.15 Q-2.5 3.6 -2.25 3.15 L-2.25 3.1 -2.8 3.5 -3.45 3.75 -3.9 4.25 -4.6 5.85 Q-5.15 7.0 -5.75 7.0 -6.75 7.0 -6.5 5.9 -6.5 5.25 -5.95 4.15 L-5.0 2.15 -4.7 1.65 -4.15 0.55 -3.8 0.0 -8.6 0.25 Q-9.1 0.25 -10.0 -1.55 -10.5 -2.15 -7.0 -2.3 -3.75 -2.45 -2.75 -2.25 L-2.6 -2.3 -1.75 -2.3 -2.8 -3.85 -2.85 -3.95 -3.6 -3.75 -3.75 -3.75 -3.85 -3.75 -4.05 -3.75 -4.15 -3.75 Q-6.75 -3.9 -6.75 -5.9 -6.75 -8.75 -4.85 -6.95 L-5.25 -8.15 -5.5 -9.95 Q-5.5 -12.2 -4.25 -10.7 L-2.75 -8.4 -2.25 -7.9 -2.5 -9.6 Q-2.5 -10.9 -1.9 -10.65 -1.3 -10.4 -0.65 -8.9 L0.05 -7.0 0.25 -5.55 M13.6 6.5 Q11.65 6.5 10.25 4.9 L9.25 3.25 Q9.25 1.15 12.65 2.9 16.0 4.6 16.0 5.5 16.0 6.5 13.6 6.5 M15.65 10.35 Q18.25 11.05 18.25 12.95 L18.2 13.75 Q17.85 14.25 16.25 14.25 13.0 14.25 13.0 12.3 13.0 9.6 15.65 10.35 M3.0 4.45 Q4.25 5.1 4.25 6.5 4.25 7.25 3.0 8.0 2.4 8.0 2.0 6.55 L1.75 5.25 Q1.75 3.75 3.0 4.45 M6.05 7.35 L4.75 5.45 Q4.75 3.3 7.5 4.6 10.25 5.9 10.25 8.3 10.25 9.25 9.0 9.25 7.6 9.25 6.05 7.35 M7.0 10.4 Q8.5 11.05 8.5 12.15 8.5 13.75 7.25 13.75 6.85 13.75 6.1 12.65 L5.5 11.7 Q5.5 9.75 7.0 10.4" fill="#990000" fill-rule="evenodd" stroke="none"/>
    <path d="M-1.8 -6.5 Q-1.8 -5.85 1.25 -3.85 L1.8 -3.45 -3.35 -3.1 -3.5 -3.05 Q-4.05 -2.85 -4.05 -2.4 -4.05 -1.9 -3.55 -1.75 L5.1 -1.5 5.95 -1.6 Q6.25 -1.25 6.7 -1.25 8.25 -1.25 8.45 -3.05 8.45 -3.95 7.7 -4.2 L7.7 -4.5 7.5 -5.65 6.2 -7.5 Q5.2 -8.9 4.75 -8.4 4.45 -8.05 4.45 -7.0 L4.65 -6.05 4.95 -5.0 4.9 -4.9 4.65 -4.8 2.9 -5.6 1.7 -6.05 1.55 -6.15 -0.9 -7.5 Q-1.8 -7.5 -1.8 -6.5 M3.8 -0.8 Q1.7 -0.35 1.7 0.55 1.7 1.55 2.85 1.7 L2.95 1.8 4.1 2.0 Q5.7 2.0 5.7 0.8 L5.6 0.45 5.95 -0.15 Q5.95 -1.25 3.8 -0.8 M7.95 -5.55 Q7.95 -4.05 8.5 -3.65 L8.45 -3.4 Q8.45 -2.95 9.05 -2.6 9.5 -2.25 9.75 -2.25 9.2 -1.95 9.2 -0.95 9.2 -0.45 9.35 -0.25 L9.1 -0.15 8.7 1.7 8.55 1.6 8.3 1.25 7.45 1.0 Q6.45 1.0 5.95 2.8 5.95 3.35 6.5 3.75 L7.7 4.1 Q8.05 4.1 8.05 6.95 L8.05 11.9 8.2 12.1 8.7 12.25 9.15 12.15 9.45 11.9 9.45 10.35 9.7 10.15 Q9.55 9.3 10.0 7.15 L10.45 4.3 10.5 4.15 Q10.7 3.6 10.45 3.15 L10.45 3.1 11.0 3.5 11.65 3.75 12.1 4.25 12.8 5.85 Q13.35 7.0 13.95 7.0 14.95 7.0 14.7 5.9 14.7 5.25 14.15 4.15 L13.2 2.15 12.9 1.65 12.35 0.55 12.0 0.0 16.8 0.25 Q17.3 0.25 18.2 -1.55 18.7 -2.15 15.2 -2.3 11.95 -2.45 10.95 -2.25 L10.8 -2.3 9.95 -2.3 11.0 -3.85 11.05 -3.95 11.8 -3.75 11.95 -3.75 12.05 -3.75 12.25 -3.75 12.35 -3.75 Q14.95 -3.9 14.95 -5.9 14.95 -8.75 13.05 -6.95 L13.45 -8.15 13.7 -9.95 Q13.7 -12.2 12.45 -10.7 L10.95 -8.4 10.45 -7.9 10.7 -9.6 Q10.7 -10.9 10.1 -10.65 9.5 -10.4 8.85 -8.9 L8.15 -7.0 7.95 -5.55 M-7.45 10.35 Q-10.05 11.05 -10.05 12.95 L-10.0 13.75 Q-9.65 14.25 -8.05 14.25 -4.8 14.25 -4.8 12.3 -4.8 9.6 -7.45 10.35 M-2.05 4.9 L-1.05 3.25 Q-1.05 1.15 -4.45 2.9 -7.8 4.6 -7.8 5.5 -7.8 6.5 -5.4 6.5 -3.45 6.5 -2.05 4.9 M5.2 4.45 Q3.95 5.1 3.95 6.5 3.95 7.25 5.2 8.0 5.8 8.0 6.2 6.55 L6.45 5.25 Q6.45 3.75 5.2 4.45 M-0.3 12.15 Q-0.3 13.75 0.95 13.75 1.35 13.75 2.1 12.65 L2.7 11.7 Q2.7 9.75 1.2 10.4 -0.3 11.05 -0.3 12.15 M2.15 7.35 L3.45 5.45 Q3.45 3.3 0.7 4.6 -2.05 5.9 -2.05 8.3 -2.05 9.25 -0.8 9.25 0.6 9.25 2.15 7.35" fill="#990000" fill-rule="evenodd" stroke="none"/>
    <path d="M-3.85 -4.45 Q-3.2 -4.45 -1.2 -1.4 L-0.8 -0.85 Q-0.75 -5.25 -0.45 -6.0 L-0.4 -6.15 Q-0.2 -6.7 0.25 -6.7 L0.9 -6.2 1.15 2.45 1.05 3.3 Q1.4 3.6 1.4 4.05 1.4 5.6 -0.4 5.8 -1.3 5.8 -1.55 5.05 L-1.85 5.05 -3.0 4.85 -4.85 3.55 Q-6.25 2.55 -5.75 2.1 -5.4 1.8 -4.35 1.8 L-3.4 2.0 -2.35 2.3 -2.25 2.25 -2.15 2.0 -2.95 0.25 -3.4 -0.95 -3.5 -1.1 -4.85 -3.55 Q-4.85 -4.45 -3.85 -4.45 M1.85 1.15 Q2.3 -0.95 3.2 -0.95 4.2 -0.95 4.35 0.2 L4.45 0.3 Q4.65 0.6 4.65 1.45 4.65 3.05 3.45 3.05 L3.1 2.95 2.5 3.3 Q1.4 3.3 1.85 1.15 M-2.9 5.3 Q-1.4 5.3 -1.0 5.85 L-0.75 5.8 Q-0.3 5.8 0.05 6.4 L0.4 7.1 Q0.7 6.55 1.7 6.55 L2.4 6.7 2.5 6.45 4.35 6.05 4.25 5.9 3.9 5.65 Q3.65 5.45 3.65 4.8 3.65 3.8 5.45 3.3 6.0 3.3 6.4 3.85 6.75 4.4 6.75 5.05 L9.6 5.4 14.55 5.4 14.75 5.55 14.9 6.05 14.8 6.5 14.55 6.8 13.0 6.8 12.8 7.05 9.8 7.35 6.95 7.8 6.8 7.85 5.8 7.8 5.75 7.8 6.15 8.35 6.4 9.0 6.9 9.45 8.5 10.15 Q9.65 10.7 9.65 11.3 9.65 12.3 8.55 12.05 7.9 12.05 6.8 11.5 L4.8 10.55 4.3 10.25 3.2 9.7 2.65 9.35 2.9 14.15 Q2.9 14.65 1.1 15.55 0.5 16.05 0.35 12.55 0.2 9.3 0.4 8.3 L0.35 8.15 0.35 7.3 Q0.05 7.7 -1.2 8.35 L-1.3 8.4 -1.1 9.15 -1.1 9.3 -1.1 9.4 -1.1 9.6 -1.1 9.7 Q-1.25 12.3 -3.25 12.3 -6.1 12.3 -4.3 10.4 -4.85 10.7 -5.5 10.8 L-7.3 11.05 Q-9.55 11.05 -8.05 9.8 L-5.75 8.3 -5.25 7.8 -6.95 8.05 Q-8.25 8.05 -8.0 7.45 -7.75 6.85 -6.25 6.2 L-4.35 5.5 -2.9 5.3 M13.0 -10.1 Q13.7 -12.7 15.6 -12.7 L16.4 -12.65 Q16.9 -12.3 16.9 -10.7 16.9 -7.45 14.95 -7.45 12.25 -7.45 13.0 -10.1 M7.55 -4.7 L5.9 -3.7 Q3.8 -3.7 5.55 -7.1 7.25 -10.45 8.15 -10.45 9.15 -10.45 9.15 -8.05 9.15 -6.1 7.55 -4.7 M7.1 2.55 Q7.75 1.3 9.15 1.3 9.9 1.3 10.65 2.55 10.65 3.15 9.2 3.55 L7.9 3.8 Q6.4 3.8 7.1 2.55 M14.8 -2.95 Q16.4 -2.95 16.4 -1.7 16.4 -1.3 15.3 -0.55 L14.35 0.05 Q12.4 0.05 13.05 -1.45 13.7 -2.95 14.8 -2.95 M10.0 -0.5 L8.1 0.8 Q5.95 0.8 7.25 -1.95 8.55 -4.7 10.95 -4.7 11.9 -4.7 11.9 -3.45 11.9 -2.05 10.0 -0.5" fill="#990000" fill-rule="evenodd" stroke="none"/>
  </g>
</svg>
