<?xml version="1.0" encoding="UTF-8" standalone="no"?>
<svg xmlns:ffdec="https://www.free-decompiler.com/flash" xmlns:xlink="http://www.w3.org/1999/xlink" ffdec:objectType="shape" height="66.1px" width="77.55px" xmlns="http://www.w3.org/2000/svg">
  <g transform="matrix(1.0, 0.0, 0.0, 1.0, 34.05, 38.1)">
    <path d="M7.4 -7.3 L7.5 -6.8 Q7.5 -6.3 6.6 -5.5 5.65 -4.65 4.75 -4.6 L4.25 -5.0 Q5.8 -6.95 7.05 -7.4 L7.4 -7.3 M0.6 -7.8 L0.6 -4.85 0.1 -4.6 Q-0.3 -4.8 -0.3 -6.4 -0.3 -8.0 0.1 -8.3 L0.6 -7.8 M3.85 -1.5 Q3.3 -1.5 3.1 -1.75 L3.7 -2.2 5.0 -2.0 Q4.75 -1.5 3.85 -1.5 M6.7 3.4 L6.2 3.55 5.05 3.3 4.1 2.3 4.1 1.75 5.6 2.2 Q6.5 2.65 6.8 3.05 L6.7 3.4 M2.55 1.65 L1.4 0.3 1.65 0.1 Q2.55 0.8 2.75 1.5 L2.55 1.65 M1.55 4.7 L1.65 5.3 1.1 6.95 0.35 8.25 0.05 8.0 -0.05 7.45 Q-0.05 6.9 0.3 5.95 0.7 4.85 1.15 4.5 L1.55 4.7 M-13.1 -7.35 Q-12.0 -7.15 -9.0 -5.15 -9.25 -4.65 -9.6 -4.65 L-13.1 -6.95 -13.1 -7.35 M-18.0 -1.85 Q-18.0 -2.15 -16.05 -2.3 -14.1 -2.45 -14.1 -1.9 -14.1 -1.55 -14.3 -1.45 L-16.05 -1.35 -17.95 -1.55 -18.0 -1.85 M-16.9 -5.95 Q-14.25 -5.7 -13.95 -4.95 L-14.15 -4.65 Q-14.25 -4.5 -14.55 -4.5 -17.9 -4.5 -19.5 -5.65 -19.5 -6.2 -16.9 -5.95 M-12.35 -4.45 L-10.45 -4.4 Q-8.55 -3.55 -8.55 -3.05 -8.55 -2.6 -9.1 -2.6 -9.7 -2.6 -11.1 -3.55 L-12.35 -4.45 M-6.9 -6.5 Q-5.35 -5.55 -4.4 -4.15 L-4.85 -3.75 Q-7.15 -5.05 -8.8 -6.25 -8.65 -7.55 -6.9 -6.5 M-6.15 -0.35 L-6.0 0.0 -6.55 0.15 -8.9 -0.3 -9.0 -0.65 -7.8 -0.75 -6.15 -0.35 M-3.3 -1.8 L-4.4 -2.05 Q-5.0 -2.25 -5.1 -2.4 L-5.05 -2.6 -4.05 -2.45 -2.65 -2.0 -3.3 -1.8 M-1.25 2.8 Q-1.8 3.55 -2.4 3.85 L-2.8 3.8 -2.9 3.35 Q-2.9 2.9 -2.4 2.65 L-1.75 2.3 -1.25 2.8 M-3.4 1.2 L-2.65 1.4 Q-3.8 2.8 -4.85 3.05 -5.25 3.0 -5.35 2.8 L-4.0 1.15 -3.4 1.2 M-9.2 2.5 L-11.75 3.3 -12.25 3.0 -10.5 1.55 Q-9.2 0.85 -6.75 1.05 L-6.6 1.4 Q-7.1 1.75 -9.2 2.5 M-12.55 1.0 Q-14.1 1.45 -15.05 1.95 L-15.5 1.5 Q-15.5 1.05 -14.0 0.4 L-11.7 0.0 Q-11.55 0.0 -11.55 0.35 -11.55 0.7 -12.55 1.0 M-16.85 2.35 L-16.8 2.65 Q-16.8 3.1 -17.6 3.45 L-19.8 3.8 -20.55 3.75 -20.6 3.35 Q-20.6 2.9 -19.9 2.7 L-16.95 2.25 -16.85 2.35" fill="#990000" fill-rule="evenodd" stroke="none"/>
    <path d="M17.1 -16.7 Q8.25 -12.7 6.0 -6.0 L4.9 -1.5 6.15 -2.65 Q7.75 -3.8 9.5 -4.55 L9.75 -4.5 9.85 -4.1 Q9.85 -3.45 7.4 -2.0 4.9 -0.55 4.9 -0.05 L5.9 2.0 7.3 4.5 7.25 4.75 7.15 4.85 9.85 12.3 9.7 12.9 9.4 12.95 7.2 8.55 5.9 5.55 6.15 5.1 6.35 4.65 6.35 4.55 Q5.6 3.65 4.35 0.5 3.55 3.45 2.15 5.5 L2.0 5.45 1.95 5.55 1.65 5.7 1.55 5.6 -0.2 8.1 -1.85 10.4 -1.05 9.7 -0.6 9.2 -0.3 9.25 -0.2 9.6 -0.2 9.65 -0.2 9.8 Q-0.2 10.7 -2.35 13.3 L-2.35 13.4 -3.55 14.65 -3.7 14.8 Q-6.95 18.4 -8.05 19.05 L-8.35 18.95 -8.45 18.55 -6.1 14.7 -5.25 13.45 -4.95 12.95 Q-1.55 7.95 0.95 5.1 L-0.6 3.2 Q-3.75 3.35 -5.35 4.0 L-10.5 4.5 Q-12.7 4.5 -16.5 2.75 L-20.35 1.0 Q-21.05 1.0 -24.4 3.65 -27.7 6.25 -28.05 6.25 -30.9 6.25 -32.0 5.05 -32.55 4.45 -32.55 3.7 -32.55 2.95 -32.2 2.75 L-26.8 2.65 Q-25.55 2.45 -24.85 1.85 L-24.0 0.8 -23.7 0.7 -25.05 0.35 -23.55 -1.6 Q-22.35 -2.7 -20.1 -3.05 L-22.6 -3.25 -22.75 -3.4 -21.4 -4.2 Q-22.2 -6.45 -25.05 -9.0 -25.05 -9.45 -20.3 -7.15 -15.1 -4.65 -14.3 -4.65 -12.4 -4.65 -11.95 -5.45 L-11.85 -5.75 -12.55 -7.2 Q-13.0 -8.95 -13.15 -12.7 -14.15 -17.5 -16.3 -19.65 L-18.25 -21.35 -18.2 -21.6 Q-13.25 -20.1 -12.4 -12.2 L-11.6 -7.15 -11.4 -6.65 -10.95 -6.7 Q-10.8 -6.8 -10.8 -6.3 L-10.85 -5.85 Q-10.05 -4.95 -8.65 -4.95 -6.4 -4.95 -5.75 -6.85 -5.5 -7.6 -5.5 -9.35 L-4.9 -9.45 Q-4.1 -9.45 -3.25 -8.65 L-2.25 -7.9 Q0.75 -7.9 5.25 -11.5 8.35 -13.95 11.0 -17.1 L11.3 -17.0 11.4 -16.6 Q11.4 -16.1 9.1 -13.7 L6.5 -11.25 6.5 -10.25 7.65 -10.6 7.8 -10.55 9.3 -12.15 Q12.65 -15.2 16.7 -17.1 L17.1 -16.7 M5.7 -10.25 L5.65 -10.4 5.65 -10.35 5.7 -10.25 M6.9 -9.45 L6.6 -9.45 6.8 -9.3 6.9 -9.45 M-22.6 -7.55 L-22.55 -7.5 -22.4 -7.6 -22.6 -7.55 M-3.9 13.7 L-5.3 15.3 -4.15 14.25 -3.9 13.7 M-6.65 17.35 L-5.75 16.5 -6.05 16.65 -6.15 16.6 -6.65 17.35 M-23.05 1.4 Q-24.45 2.0 -24.3 2.9 L-24.2 3.0 -23.05 1.4" fill="#990000" fill-rule="evenodd" stroke="none"/>
    <path d="M0.85 -15.25 Q1.15 -16.1 2.35 -15.8 L3.0 -12.9 2.55 -12.25 1.6 -12.0 Q0.45 -12.0 0.75 -13.8 L0.85 -15.25 M8.6 -9.7 Q7.85 -8.75 6.85 -8.75 5.5 -8.75 5.1 -9.3 L5.0 -9.85 Q5.0 -10.95 7.15 -11.95 9.25 -12.9 9.25 -11.05 9.25 -10.45 8.6 -9.7 M6.35 -7.3 L6.25 -7.9 Q6.25 -8.95 7.75 -8.55 L8.0 -7.9 Q8.0 -7.25 7.1 -7.25 L6.35 -7.3 M4.25 -10.5 Q3.5 -10.65 3.5 -11.55 3.5 -12.4 4.4 -12.75 5.25 -13.1 5.25 -12.1 5.25 -11.75 4.85 -11.25 L4.25 -10.5 M2.9 -8.5 L2.25 -8.25 Q1.5 -8.8 1.5 -9.1 1.5 -9.65 2.25 -9.85 3.0 -10.0 3.0 -9.1 L2.9 -8.5 M5.05 -3.15 Q5.45 -3.45 6.35 -2.8 6.95 -2.45 7.5 -2.45 L8.35 -2.5 9.0 -2.3 9.25 -1.65 8.5 -0.9 Q7.75 -0.5 7.25 -0.5 5.75 -0.5 4.75 -2.35 4.75 -2.95 5.05 -3.15 M9.5 -5.95 Q9.5 -7.25 11.5 -8.05 13.5 -8.85 13.5 -7.0 13.5 -6.35 13.0 -5.7 12.3 -4.75 11.0 -4.75 9.8 -4.75 9.5 -5.3 L9.5 -5.95 M11.75 -12.15 Q12.75 -12.3 12.75 -11.0 L12.7 -10.25 Q12.5 -9.75 11.75 -9.75 10.9 -9.75 10.75 -10.25 L10.75 -10.8 Q10.75 -11.95 11.75 -12.15 M14.95 -3.4 L15.4 -3.5 15.85 -3.55 15.5 -3.75 15.0 -3.5 14.95 -3.4 M14.0 -4.2 Q14.0 -5.45 15.65 -5.45 17.25 -5.45 17.25 -4.4 17.25 -3.95 16.85 -3.6 L16.65 -3.4 Q17.25 -3.15 17.25 -2.25 17.25 -1.35 16.9 -1.1 L14.85 -0.75 Q13.8 -0.75 13.55 -1.3 13.4 -1.6 13.5 -1.95 13.5 -2.9 14.55 -3.3 14.0 -3.5 14.0 -4.2 M19.95 -4.45 L21.5 -4.55 21.75 -3.9 21.3 -3.25 20.35 -3.0 19.6 -3.05 19.5 -3.65 Q19.5 -4.15 19.95 -4.45 M25.0 9.75 Q26.25 10.5 26.65 11.5 28.25 15.25 28.15 16.4 L27.65 19.6 28.05 21.4 28.0 20.55 28.1 19.1 Q28.4 18.65 29.75 19.1 L30.9 19.05 Q31.5 19.1 31.85 19.85 L32.0 21.35 31.95 22.65 Q31.55 23.5 29.85 23.5 28.9 23.5 28.45 22.9 L28.5 23.7 Q28.5 26.25 25.75 26.25 24.65 26.25 24.5 25.7 24.35 25.1 22.75 25.0 L21.95 24.75 20.5 24.5 20.05 24.35 18.6 24.5 Q16.75 24.5 15.4 22.7 L14.85 21.9 Q14.35 21.75 14.2 21.3 L14.0 20.35 12.85 19.65 11.85 18.9 10.3 17.15 Q9.5 16.35 9.5 15.65 9.5 15.35 10.1 14.8 L10.0 14.55 Q10.0 12.05 12.0 13.35 L12.15 13.45 Q13.3 13.05 14.25 13.75 14.55 13.15 15.0 13.0 L15.85 12.25 Q16.85 10.9 17.5 10.9 L19.25 10.9 18.8 9.5 Q18.5 8.9 18.5 8.35 18.5 7.55 18.9 7.0 18.05 6.95 17.7 5.75 L17.5 4.65 Q17.5 3.25 18.9 3.35 20.25 3.45 20.25 5.55 L20.2 6.15 Q21.6 5.8 23.25 7.75 24.3 9.3 25.0 9.75 M28.9 8.05 L27.25 9.25 Q26.5 8.95 26.3 8.05 L26.25 6.85 Q26.25 5.05 27.65 5.6 29.0 6.1 29.0 7.2 L28.9 8.05 M16.15 4.05 L16.0 4.3 Q16.75 4.85 16.75 5.8 L16.25 6.7 Q15.7 7.25 15.0 7.25 14.15 7.25 13.75 5.95 L13.5 4.7 13.7 4.0 13.25 3.55 Q12.5 2.65 12.5 1.55 12.5 0.45 14.4 0.7 16.25 1.0 16.25 3.0 L16.15 4.05 M10.75 4.5 L10.1 3.95 10.0 3.6 Q10.0 3.05 10.75 2.85 11.5 2.7 11.5 3.55 L11.4 4.15 10.75 4.5 M14.75 9.0 Q15.9 9.0 16.2 9.75 L16.25 10.55 16.15 11.6 Q15.95 12.0 15.25 12.0 14.65 12.0 14.25 11.65 L14.25 12.0 14.1 12.5 13.5 12.75 12.9 12.2 12.6 12.25 Q11.75 12.25 11.3 10.8 L11.0 9.3 Q11.0 9.0 11.15 8.8 L10.6 9.0 9.85 8.85 9.75 8.25 9.6 8.25 Q8.7 8.25 8.25 7.2 L8.0 6.05 8.1 5.3 Q8.3 5.0 9.1 5.0 10.95 5.0 10.75 6.85 L10.75 7.35 11.5 8.25 11.25 8.65 Q11.65 8.35 12.65 8.65 L13.9 9.3 13.95 9.25 14.75 9.0 M13.85 11.3 L13.9 11.3 13.85 11.25 13.85 11.3 M6.15 3.65 L5.5 4.0 4.85 3.45 4.75 3.1 Q4.75 2.55 5.5 2.35 6.25 2.2 6.25 3.05 L6.15 3.65 M0.8 4.75 Q0.45 5.65 -0.5 6.25 L-1.25 5.55 Q-0.5 3.4 -0.5 3.1 L-1.1 2.45 -1.75 1.4 Q-1.75 -0.5 -0.35 0.65 1.0 1.8 1.0 3.05 L0.8 4.75 M2.0 11.45 Q2.0 12.25 1.25 12.5 0.5 12.35 0.5 11.5 0.5 10.35 1.25 10.45 2.0 10.55 2.0 11.45 M3.45 8.0 L2.5 9.0 Q1.5 8.2 1.5 7.05 1.5 5.9 2.5 5.9 3.5 5.9 3.5 7.05 L3.45 8.0 M4.0 7.35 Q4.0 6.0 5.15 6.25 6.25 6.5 6.25 7.95 6.25 9.0 5.35 9.0 4.65 9.0 4.25 8.1 L4.0 7.35 M8.0 9.0 L7.85 9.5 7.25 9.75 6.5 9.05 Q6.5 7.8 7.75 8.35 L7.9 8.5 8.0 9.0 M9.25 11.6 Q10.0 11.45 10.0 12.3 L9.9 12.9 Q9.6 13.1 9.25 13.25 L8.6 12.7 8.5 12.35 Q8.5 11.8 9.25 11.6 M5.25 14.15 Q5.1 14.75 4.35 14.75 3.25 14.75 3.5 12.9 3.5 10.7 4.4 10.85 5.25 10.95 5.25 12.9 L5.25 14.15 M8.75 17.5 Q7.85 17.5 7.2 16.05 L6.75 14.75 Q6.75 12.75 8.15 13.75 9.5 14.75 9.5 16.4 9.5 17.5 8.75 17.5 M9.8 19.4 L11.1 19.25 Q13.25 19.25 13.25 21.15 13.25 21.95 12.95 22.15 L11.75 22.25 Q9.5 22.25 9.5 20.25 9.5 19.55 9.8 19.4 M21.0 28.0 Q20.35 28.0 20.25 27.5 L20.25 26.9 Q20.25 25.65 21.15 25.85 22.0 26.0 22.0 27.0 22.0 27.65 21.0 28.0 M-16.05 -38.0 Q-15.6 -38.45 -14.5 -36.8 L-13.75 -35.65 -13.25 -34.55 -11.8 -32.3 -11.0 -31.2 -10.25 -30.05 -9.85 -28.95 -9.25 -27.8 Q-8.8 -27.25 -8.15 -27.3 -7.5 -27.35 -7.15 -27.0 L-6.75 -26.35 -6.5 -25.8 Q-5.85 -25.1 -5.3 -23.65 -4.75 -22.25 -4.75 -21.3 L-4.85 -20.45 Q-5.05 -20.0 -5.75 -20.0 L-6.5 -20.2 -6.5 -20.15 Q-6.5 -19.8 -6.95 -19.55 -7.35 -19.25 -7.75 -19.25 L-8.5 -19.65 -8.5 -20.1 -8.4 -20.75 -7.25 -20.95 -8.05 -21.5 -8.5 -22.5 -9.1 -22.65 Q-9.8 -22.75 -10.05 -23.0 L-10.35 -23.55 -10.5 -24.05 -11.15 -24.4 -11.75 -24.75 -12.4 -25.3 -13.55 -25.55 -11.9 -23.15 Q-10.75 -21.6 -10.75 -20.15 -10.75 -19.05 -11.15 -18.5 L-11.4 -17.7 -11.25 -17.15 -11.3 -16.75 -11.45 -16.6 -12.0 -16.5 -13.9 -18.9 Q-15.8 -21.65 -16.25 -23.3 -16.7 -25.2 -18.5 -27.1 -20.0 -28.75 -20.0 -30.3 -20.0 -31.4 -19.05 -31.85 L-18.05 -31.95 -17.95 -32.25 -17.55 -32.75 -19.0 -36.0 Q-19.0 -37.15 -18.25 -37.25 L-16.8 -37.15 -16.05 -38.0 M-6.5 -16.3 Q-4.75 -14.95 -4.75 -13.65 -4.75 -11.5 -6.0 -11.5 -6.75 -11.5 -7.6 -13.5 L-8.25 -15.4 Q-8.25 -17.6 -6.5 -16.3 M-8.05 -13.0 L-8.2 -12.85 -8.75 -12.75 Q-9.9 -12.75 -10.75 -15.95 -10.75 -17.75 -9.35 -16.7 -8.0 -15.65 -8.0 -13.8 L-8.05 -13.0 M-0.1 -13.15 L0.0 -11.9 Q0.0 -9.6 -1.75 -9.0 -2.5 -9.65 -2.5 -10.25 L-2.6 -10.7 -2.75 -11.35 -2.5 -12.8 -1.9 -14.05 Q-0.45 -13.8 -0.1 -13.15 M-1.75 -16.9 Q-1.75 -16.2 -2.25 -14.8 L-2.75 -14.75 Q-3.4 -14.75 -3.75 -16.35 -3.75 -16.85 -3.35 -17.25 -2.85 -17.8 -1.9 -17.55 -1.75 -17.55 -1.75 -16.9 M-10.75 -4.15 L-10.8 -3.75 -11.5 -3.5 -12.25 -4.15 -12.05 -4.75 -10.9 -4.8 Q-10.75 -4.8 -10.75 -4.15 M-10.75 -6.5 Q-10.75 -7.85 -9.0 -7.6 -7.25 -7.35 -7.25 -5.75 -7.25 -5.1 -7.5 -4.95 L-8.5 -4.75 Q-9.9 -4.75 -10.5 -5.7 L-10.75 -6.5 M-3.6 -10.0 Q-4.35 -10.0 -4.5 -10.5 L-4.5 -10.85 Q-4.5 -11.75 -3.6 -11.6 -2.75 -11.4 -2.75 -10.75 -2.75 -10.0 -3.6 -10.0 M-5.0 -7.3 L-5.5 -7.25 Q-6.5 -7.25 -6.75 -8.55 -6.75 -9.5 -5.75 -9.5 -4.95 -9.5 -4.8 -9.0 L-4.75 -8.3 Q-4.75 -7.75 -5.0 -7.3 M-5.1 -2.35 Q-4.25 -2.15 -4.25 -1.5 -4.25 -0.75 -5.1 -0.75 -5.85 -0.75 -6.0 -1.25 L-6.0 -1.6 Q-6.0 -2.5 -5.1 -2.35 M-6.25 -0.6 Q-6.25 1.25 -8.5 1.25 -9.95 1.25 -10.25 0.4 L-10.25 -0.55 Q-10.25 -2.3 -8.25 -2.45 -6.25 -2.65 -6.25 -0.6 M-4.1 -4.5 Q-4.85 -4.5 -5.0 -5.0 L-5.0 -5.35 Q-5.0 -6.25 -4.1 -6.1 -3.25 -5.9 -3.25 -5.25 -3.25 -4.5 -4.1 -4.5 M-9.25 2.9 Q-9.25 1.7 -8.25 1.75 -7.25 1.75 -7.25 2.7 -7.25 4.0 -8.5 4.0 -9.5 4.0 -9.25 2.9 M-6.25 7.2 Q-6.25 4.3 -5.0 4.3 -3.75 4.35 -3.75 6.65 L-3.75 8.2 Q-4.0 9.25 -5.0 9.25 -6.05 9.25 -6.25 8.25 L-6.25 7.2 M-8.0 11.0 Q-9.05 11.0 -9.25 10.25 L-9.25 9.4 Q-9.25 8.1 -8.0 7.9 -6.75 7.7 -6.75 9.3 -6.75 11.0 -8.0 11.0 M-1.0 10.55 Q0.25 10.35 0.25 12.1 0.25 13.5 -0.6 13.5 -1.45 13.5 -2.25 11.65 -2.25 10.75 -1.0 10.55" fill="#990000" fill-rule="evenodd" stroke="none"/>
    <path d="M9.65 -15.8 L9.0 -12.9 Q9.0 -12.55 9.45 -12.25 L10.4 -12.0 Q11.55 -12.0 11.25 -13.8 L11.15 -15.25 Q10.85 -16.1 9.65 -15.8 M3.4 -9.7 Q4.15 -8.75 5.15 -8.75 6.5 -8.75 6.9 -9.3 L7.0 -9.85 Q7.0 -10.95 4.85 -11.95 2.75 -12.9 2.75 -11.05 2.75 -10.45 3.4 -9.7 M5.75 -7.9 Q5.75 -8.95 4.25 -8.55 4.0 -8.55 4.0 -7.9 4.0 -7.25 4.9 -7.25 L5.65 -7.3 5.75 -7.9 M9.75 -8.25 Q10.5 -8.8 10.5 -9.1 10.5 -9.65 9.75 -9.85 9.0 -10.0 9.0 -9.1 L9.1 -8.5 Q9.4 -8.3 9.75 -8.25 M8.5 -11.55 Q8.5 -12.4 7.6 -12.75 6.75 -13.1 6.75 -12.1 L7.15 -11.25 7.75 -10.5 Q8.5 -10.65 8.5 -11.55 M6.95 -3.15 Q6.55 -3.45 5.65 -2.8 5.05 -2.45 4.5 -2.45 L3.65 -2.5 3.0 -2.3 Q2.75 -2.3 2.75 -1.65 2.75 -1.35 3.5 -0.9 L4.75 -0.5 Q6.25 -0.5 7.25 -2.35 L6.95 -3.15 M2.5 -5.95 Q2.5 -7.25 0.5 -8.05 -1.5 -8.85 -1.5 -7.0 -1.5 -6.35 -1.0 -5.7 -0.3 -4.75 1.0 -4.75 2.2 -4.75 2.5 -5.3 L2.5 -5.95 M0.25 -12.15 Q-0.75 -12.3 -0.75 -11.0 L-0.7 -10.25 Q-0.5 -9.75 0.25 -9.75 1.1 -9.75 1.25 -10.25 L1.25 -10.8 Q1.25 -11.95 0.25 -12.15 M-1.55 -1.3 Q-1.4 -1.6 -1.5 -1.95 -1.5 -2.9 -2.55 -3.3 -2.0 -3.5 -2.0 -4.2 -2.0 -5.45 -3.65 -5.45 -5.25 -5.45 -5.25 -4.4 -5.25 -3.95 -4.85 -3.6 L-4.65 -3.4 Q-5.25 -3.15 -5.25 -2.25 -5.25 -1.35 -4.9 -1.1 -4.4 -0.75 -2.85 -0.75 -1.8 -0.75 -1.55 -1.3 M-2.95 -3.4 L-3.4 -3.5 -3.85 -3.55 -3.5 -3.75 -3.0 -3.5 -2.95 -3.4 M-7.95 -4.45 L-9.5 -4.55 -9.75 -3.9 -9.3 -3.25 -8.35 -3.0 -7.6 -3.05 -7.5 -3.65 Q-7.5 -4.15 -7.95 -4.45 M-15.25 9.25 Q-14.5 8.95 -14.3 8.05 L-14.25 6.85 Q-14.25 5.05 -15.65 5.6 -17.0 6.1 -17.0 7.2 L-16.9 8.05 -15.25 9.25 M-14.65 11.5 Q-16.25 15.25 -16.15 16.4 L-15.65 19.6 -16.05 21.4 -16.0 20.55 -16.1 19.1 Q-16.4 18.65 -17.75 19.1 L-18.9 19.05 Q-19.5 19.1 -19.85 19.85 L-20.0 21.35 -19.95 22.65 Q-19.55 23.5 -17.85 23.5 -16.9 23.5 -16.45 22.9 L-16.5 23.7 Q-16.5 26.25 -13.75 26.25 -12.65 26.25 -12.5 25.7 -12.35 25.1 -10.75 25.0 L-9.95 24.75 -8.5 24.5 -8.05 24.35 -6.6 24.5 Q-4.75 24.5 -3.4 22.7 L-2.85 21.9 Q-2.35 21.75 -2.2 21.3 L-2.0 20.35 -0.85 19.65 0.15 18.9 1.7 17.15 Q2.5 16.35 2.5 15.65 2.5 15.35 1.9 14.8 L2.0 14.55 Q2.0 12.05 0.0 13.35 L-0.15 13.45 Q-1.3 13.05 -2.25 13.75 -2.55 13.15 -3.0 13.0 L-3.85 12.25 Q-4.85 10.9 -5.5 10.9 L-7.25 10.9 -6.8 9.5 Q-6.5 8.9 -6.5 8.35 -6.5 7.55 -6.9 7.0 -6.05 6.95 -5.7 5.75 L-5.5 4.65 Q-5.5 3.25 -6.9 3.35 -8.25 3.45 -8.25 5.55 L-8.2 6.15 Q-9.6 5.8 -11.25 7.75 -12.3 9.3 -13.0 9.75 -14.25 10.5 -14.65 11.5 M-4.0 4.3 Q-4.75 4.85 -4.75 5.8 L-4.25 6.7 Q-3.7 7.25 -3.0 7.25 -2.15 7.25 -1.75 5.95 L-1.5 4.7 -1.7 4.0 -1.25 3.55 Q-0.5 2.65 -0.5 1.55 -0.5 0.45 -2.4 0.7 -4.25 1.0 -4.25 3.0 L-4.15 4.05 -4.0 4.3 M0.5 3.55 L0.6 4.15 1.25 4.5 1.9 3.95 2.0 3.6 Q2.0 3.05 1.25 2.85 0.5 2.7 0.5 3.55 M-2.75 9.0 Q-3.9 9.0 -4.2 9.75 L-4.25 10.55 -4.15 11.6 Q-3.95 12.0 -3.25 12.0 -2.65 12.0 -2.25 11.65 L-2.25 12.0 -2.1 12.5 -1.5 12.75 -0.9 12.2 -0.6 12.25 Q0.25 12.25 0.7 10.8 L1.0 9.3 0.85 8.8 1.4 9.0 2.15 8.85 2.25 8.25 2.4 8.25 Q3.3 8.25 3.75 7.2 L4.0 6.05 3.9 5.3 Q3.7 5.0 2.9 5.0 1.05 5.0 1.25 6.85 L1.25 7.35 0.5 8.25 0.75 8.65 Q0.35 8.35 -0.65 8.65 -1.5 8.9 -1.9 9.3 L-1.95 9.25 -2.75 9.0 M-1.9 11.3 L-1.85 11.25 -1.85 11.3 -1.9 11.3 M5.85 3.65 L6.5 4.0 7.15 3.45 7.25 3.1 Q7.25 2.55 6.5 2.35 5.75 2.2 5.75 3.05 L5.85 3.65 M11.2 4.75 Q11.55 5.65 12.5 6.25 L13.25 5.55 12.5 3.1 13.1 2.45 Q13.75 1.9 13.75 1.4 13.75 -0.5 12.35 0.65 11.0 1.8 11.0 3.05 L11.2 4.75 M8.0 7.35 Q8.0 6.0 6.85 6.25 5.75 6.5 5.75 7.95 5.75 9.0 6.65 9.0 7.35 9.0 7.75 8.1 L8.0 7.35 M9.5 9.0 Q10.5 8.2 10.5 7.05 10.5 5.9 9.5 5.9 8.5 5.9 8.5 7.05 L8.55 8.0 9.5 9.0 M10.75 10.45 Q10.0 10.55 10.0 11.45 10.0 12.25 10.75 12.5 11.5 12.35 11.5 11.5 11.5 10.35 10.75 10.45 M4.0 9.0 L4.15 9.5 4.75 9.75 5.5 9.05 Q5.5 7.8 4.25 8.35 L4.1 8.5 4.0 9.0 M2.75 11.6 Q2.0 11.45 2.0 12.3 L2.1 12.9 2.75 13.25 3.4 12.7 3.5 12.35 Q3.5 11.8 2.75 11.6 M6.75 14.15 Q6.9 14.75 7.65 14.75 8.75 14.75 8.5 12.9 8.5 10.7 7.6 10.85 6.75 10.95 6.75 12.9 L6.75 14.15 M3.25 17.5 Q4.15 17.5 4.8 16.05 L5.25 14.75 Q5.25 12.75 3.85 13.75 2.5 14.75 2.5 16.4 2.5 17.5 3.25 17.5 M2.2 19.4 L0.9 19.25 Q-1.25 19.25 -1.25 21.15 -1.25 21.95 -0.95 22.15 L0.25 22.25 Q2.5 22.25 2.5 20.25 2.5 19.55 2.2 19.4 M-8.25 27.5 L-8.25 26.9 Q-8.25 25.65 -9.15 25.85 -10.0 26.0 -10.0 27.0 -10.0 27.65 -9.0 28.0 -8.35 28.0 -8.25 27.5 M28.8 -37.15 L28.05 -38.0 Q27.6 -38.45 26.5 -36.8 26.05 -36.35 25.75 -35.65 L25.25 -34.55 23.8 -32.3 23.0 -31.2 22.25 -30.05 21.85 -28.95 21.25 -27.8 Q20.8 -27.25 20.15 -27.3 19.5 -27.35 19.15 -27.0 L18.75 -26.35 18.5 -25.8 Q17.85 -25.1 17.3 -23.65 16.75 -22.25 16.75 -21.3 L16.85 -20.45 Q17.05 -20.0 17.75 -20.0 L18.5 -20.2 18.5 -20.15 Q18.5 -19.8 18.95 -19.55 19.35 -19.25 19.75 -19.25 L20.5 -19.65 20.5 -20.1 20.4 -20.75 19.25 -20.95 20.05 -21.5 20.5 -22.5 21.1 -22.65 Q21.8 -22.75 22.05 -23.0 L22.35 -23.55 22.5 -24.05 23.15 -24.4 Q23.55 -24.5 23.75 -24.75 L24.4 -25.3 25.55 -25.55 23.9 -23.15 Q22.75 -21.6 22.75 -20.15 22.75 -19.05 23.15 -18.5 L23.4 -17.7 23.25 -17.15 23.3 -16.75 23.45 -16.6 24.0 -16.5 25.9 -18.9 Q27.8 -21.65 28.25 -23.3 28.7 -25.2 30.5 -27.1 32.0 -28.75 32.0 -30.3 32.0 -31.4 31.05 -31.85 L30.05 -31.95 29.95 -32.25 29.55 -32.75 31.0 -36.0 Q31.0 -37.15 30.25 -37.25 L28.8 -37.15 M20.2 -12.85 L20.75 -12.75 Q21.9 -12.75 22.75 -15.95 22.75 -17.75 21.35 -16.7 20.0 -15.65 20.0 -13.8 L20.05 -13.0 20.2 -12.85 M20.25 -15.4 Q20.25 -17.6 18.5 -16.3 16.75 -14.95 16.75 -13.65 16.75 -11.5 18.0 -11.5 18.75 -11.5 19.6 -13.5 L20.25 -15.4 M14.25 -14.8 L14.75 -14.75 Q15.4 -14.75 15.75 -16.35 15.75 -16.85 15.35 -17.25 14.85 -17.8 13.9 -17.55 13.75 -17.55 13.75 -16.9 13.75 -16.2 14.25 -14.8 M13.9 -14.05 Q12.45 -13.8 12.1 -13.15 L12.0 -11.9 Q12.0 -9.6 13.75 -9.0 14.5 -9.65 14.5 -10.25 L14.6 -10.7 14.75 -11.35 14.5 -12.8 13.9 -14.05 M22.75 -6.5 Q22.75 -7.85 21.0 -7.6 19.25 -7.35 19.25 -5.75 19.25 -5.1 19.5 -4.95 L20.5 -4.75 Q21.9 -4.75 22.5 -5.7 L22.75 -6.5 M22.8 -3.75 L23.5 -3.5 24.25 -4.15 24.05 -4.75 22.9 -4.8 Q22.75 -4.8 22.75 -4.15 L22.8 -3.75 M16.5 -10.85 Q16.5 -11.75 15.6 -11.6 14.75 -11.4 14.75 -10.75 14.75 -10.0 15.6 -10.0 16.35 -10.0 16.5 -10.5 L16.5 -10.85 M16.75 -8.3 Q16.75 -7.75 17.0 -7.3 L17.5 -7.25 Q18.5 -7.25 18.75 -8.55 18.75 -9.5 17.75 -9.5 16.95 -9.5 16.8 -9.0 L16.75 -8.3 M18.25 -0.6 Q18.25 1.25 20.5 1.25 21.95 1.25 22.25 0.4 L22.25 -0.55 Q22.25 -2.3 20.25 -2.45 18.25 -2.65 18.25 -0.6 M18.0 -1.25 L18.0 -1.6 Q18.0 -2.5 17.1 -2.35 16.25 -2.15 16.25 -1.5 16.25 -0.75 17.1 -0.75 17.85 -0.75 18.0 -1.25 M17.0 -5.0 L17.0 -5.35 Q17.0 -6.25 16.1 -6.1 15.25 -5.9 15.25 -5.25 15.25 -4.5 16.1 -4.5 16.85 -4.5 17.0 -5.0 M21.25 2.9 Q21.25 1.7 20.25 1.75 19.25 1.75 19.25 2.7 19.25 4.0 20.5 4.0 21.5 4.0 21.25 2.9 M21.25 10.25 L21.25 9.4 Q21.25 8.1 20.0 7.9 18.75 7.7 18.75 9.3 18.75 11.0 20.0 11.0 21.05 11.0 21.25 10.25 M18.25 7.2 Q18.25 4.3 17.0 4.3 15.75 4.35 15.75 6.65 L15.75 8.2 Q16.0 9.25 17.0 9.25 18.05 9.25 18.25 8.25 L18.25 7.2 M13.0 10.55 Q11.75 10.35 11.75 12.1 11.75 13.5 12.6 13.5 13.45 13.5 14.25 11.65 14.25 10.75 13.0 10.55" fill="#990000" fill-rule="evenodd" stroke="none"/>
    <path d="M-5.15 -7.25 L-2.3 -6.35 Q-2.0 -6.15 -1.95 -5.6 L-2.25 -4.7 Q-2.8 -3.7 -4.2 -4.85 L-5.4 -5.65 Q-6.0 -6.35 -5.15 -7.25 M3.25 -9.6 Q3.7 -8.45 3.2 -7.6 2.5 -6.4 1.85 -6.35 L1.3 -6.55 Q0.35 -7.1 0.6 -9.45 0.85 -11.75 2.45 -10.8 2.95 -10.5 3.25 -9.6 M3.65 -6.65 Q2.75 -7.15 3.85 -8.25 L4.5 -8.2 Q5.05 -7.85 4.6 -7.05 L4.25 -6.45 3.65 -6.65 M1.35 -3.35 L0.2 -3.15 Q-0.25 -3.4 -0.05 -4.15 0.2 -4.9 0.95 -4.45 L1.45 -4.05 1.35 -3.35 M-0.9 -6.1 Q-1.65 -6.55 -1.5 -7.45 -1.35 -8.4 -0.5 -7.9 -0.2 -7.7 0.05 -7.1 L0.4 -6.25 Q-0.1 -5.65 -0.9 -6.1 M7.15 -3.2 Q7.1 -3.7 8.15 -4.2 L9.0 -5.0 9.4 -5.8 9.85 -6.25 10.55 -6.1 Q10.85 -5.95 10.8 -5.1 L10.55 -3.85 Q9.8 -2.55 7.7 -2.55 7.2 -2.85 7.15 -3.2 M6.95 -8.5 Q5.8 -9.15 6.15 -11.25 6.45 -13.4 8.05 -12.5 8.6 -12.15 8.9 -11.4 9.4 -10.3 8.75 -9.2 8.15 -8.15 7.5 -8.2 7.2 -8.25 6.95 -8.5 M2.75 -13.55 Q3.1 -14.5 4.2 -13.85 L4.8 -13.4 Q5.15 -13.0 4.8 -12.35 4.35 -11.6 3.85 -11.7 L3.4 -12.0 Q2.4 -12.55 2.75 -13.55 M13.0 -9.7 L12.4 -9.95 Q11.6 -10.45 11.8 -11.55 L10.7 -11.5 Q9.65 -12.1 10.5 -13.55 11.3 -14.95 12.2 -14.45 L12.7 -13.7 12.75 -13.4 14.05 -13.35 Q14.85 -12.9 14.85 -12.5 14.9 -11.85 14.15 -10.5 13.6 -9.6 13.0 -9.7 M11.9 -11.95 L12.0 -12.4 12.25 -12.8 11.85 -12.55 11.8 -12.05 11.9 -11.95 M13.5 -16.8 Q13.35 -17.5 14.15 -18.15 L14.85 -18.1 Q15.2 -17.9 15.2 -17.35 L14.95 -16.4 14.5 -15.75 13.95 -16.0 Q13.5 -16.25 13.5 -16.8 M29.0 -16.25 L27.45 -16.05 26.45 -16.6 Q24.85 -17.5 26.05 -18.45 27.15 -19.35 28.1 -18.8 L28.75 -18.3 Q29.05 -17.75 29.0 -16.25 M30.65 -14.65 Q34.7 -14.1 35.65 -13.5 L38.15 -11.45 Q38.75 -11.1 39.95 -10.9 39.5 -11.05 39.15 -11.25 L37.95 -12.1 Q37.7 -12.55 38.8 -13.5 L39.3 -14.5 Q39.65 -15.05 40.5 -14.95 L41.85 -14.3 42.95 -13.6 Q43.5 -12.85 42.65 -11.4 42.15 -10.6 41.45 -10.5 L42.1 -10.15 Q44.35 -8.85 43.0 -6.45 42.45 -5.5 41.85 -5.65 41.3 -5.85 40.4 -4.5 L39.8 -3.9 38.8 -2.8 38.5 -2.45 37.85 -1.15 Q36.95 0.45 34.7 0.7 L33.75 0.8 32.9 1.05 31.95 0.8 30.8 1.4 29.65 1.9 27.35 2.4 25.65 2.3 Q25.4 2.15 25.2 1.35 L24.95 1.35 Q22.8 0.1 24.9 -1.0 L25.1 -1.05 Q25.3 -2.25 26.4 -2.75 26.05 -3.3 26.1 -3.8 26.2 -4.3 25.9 -4.9 25.25 -6.45 25.55 -7.0 L26.45 -8.5 25.0 -8.85 23.85 -9.1 Q23.15 -9.5 22.85 -10.15 22.4 -9.45 21.2 -9.75 L20.15 -10.1 Q18.9 -10.8 19.7 -11.95 L22.3 -12.05 22.8 -11.7 Q23.15 -13.1 25.7 -13.55 L28.3 -14.05 Q29.6 -14.8 30.65 -14.65 M19.05 -9.0 L20.75 -8.9 21.3 -8.0 Q21.5 -7.25 21.15 -6.65 20.75 -5.9 19.4 -6.2 L18.15 -6.65 17.65 -7.15 17.05 -6.95 Q15.9 -6.8 14.95 -7.35 14.0 -7.9 15.15 -9.4 16.35 -10.85 18.1 -9.85 L18.95 -9.25 19.05 -9.0 M16.15 -5.45 L16.65 -5.05 16.65 -4.35 15.8 -4.05 15.45 -4.15 Q15.0 -4.4 15.2 -5.15 15.45 -5.9 16.15 -5.45 M22.55 -5.55 Q23.1 -6.55 23.9 -6.45 L24.65 -6.05 25.5 -5.5 Q25.75 -5.1 25.4 -4.5 25.1 -4.0 24.6 -3.8 L24.9 -3.65 25.25 -3.25 25.15 -2.6 24.35 -2.35 24.25 -2.05 Q23.85 -1.35 22.35 -1.7 L20.9 -2.2 20.55 -2.55 20.45 -2.0 19.95 -1.4 19.4 -1.6 19.3 -1.45 Q18.85 -0.7 17.75 -0.85 L16.6 -1.2 16.0 -1.65 Q15.85 -2.0 16.25 -2.7 17.2 -4.3 18.7 -3.15 L19.1 -2.9 20.25 -3.1 20.5 -2.7 Q20.45 -3.2 21.2 -3.9 21.8 -4.55 22.35 -4.7 L22.35 -4.75 Q22.3 -5.2 22.55 -5.55 M24.1 -3.7 L24.05 -3.65 24.1 -3.65 24.1 -3.7 M13.6 -0.8 L13.55 -0.05 12.8 0.25 12.45 0.15 Q11.95 -0.1 12.15 -0.85 12.4 -1.6 13.15 -1.15 L13.6 -0.8 M11.85 4.4 Q12.5 5.15 12.5 6.3 L11.55 6.6 9.8 4.7 8.9 4.9 Q8.15 5.15 7.7 4.9 6.05 3.95 7.75 3.35 L10.5 3.4 11.85 4.4 M15.7 2.95 Q14.55 2.25 15.35 1.4 L17.4 1.3 Q18.3 1.8 17.85 2.55 17.5 3.15 16.5 3.05 L15.7 2.95 M16.4 5.05 L14.2 4.95 Q13.2 4.35 13.7 3.5 14.2 2.6 15.2 3.2 L16.05 3.7 16.4 5.05 M17.05 6.85 Q17.5 6.25 18.25 6.7 18.95 7.1 18.85 7.85 18.3 8.45 17.55 8.0 16.55 7.45 17.05 6.85 M19.15 0.25 L19.55 0.65 19.45 1.3 18.45 1.6 Q17.35 0.95 18.5 0.2 L18.65 0.1 19.15 0.25 M22.05 0.5 Q22.25 -0.2 23.0 0.2 L23.45 0.6 23.45 1.35 22.65 1.6 22.3 1.55 Q21.8 1.25 22.05 0.5 M22.25 5.25 Q22.65 5.7 22.3 6.35 21.75 7.3 20.25 6.1 18.35 5.0 18.95 4.35 19.5 3.65 21.15 4.6 L22.25 5.25 M26.9 3.85 Q26.45 4.65 24.85 4.5 L23.5 4.25 Q21.8 3.25 23.35 2.55 L26.3 2.65 Q27.25 3.2 26.9 3.85 M29.05 3.9 L29.55 2.75 Q30.65 0.9 32.3 1.85 L33.05 2.6 32.5 3.65 Q31.35 5.6 29.65 4.6 29.05 4.25 29.05 3.9 M41.3 -1.1 L40.8 -1.4 Q39.7 -2.0 40.35 -2.65 40.85 -3.35 41.75 -2.85 42.3 -2.5 42.1 -1.5 41.8 -0.9 41.3 -1.1 M-33.2 -1.3 L-33.55 -2.4 Q-33.75 -3.0 -31.75 -3.15 L-30.35 -3.2 -29.15 -3.1 -26.5 -3.25 -25.15 -3.35 -23.75 -3.4 -22.6 -3.2 -21.35 -3.2 Q-20.65 -3.3 -20.35 -3.9 -20.1 -4.45 -19.6 -4.6 L-18.8 -4.6 -18.25 -4.55 -15.8 -4.5 -13.45 -3.85 -12.75 -3.3 Q-12.45 -2.95 -12.8 -2.3 -13.0 -1.95 -13.4 -1.75 L-13.35 -1.7 Q-13.05 -1.55 -13.05 -1.05 -12.95 -0.55 -13.15 -0.2 -13.5 0.35 -13.9 0.25 L-14.3 0.0 -14.8 -0.4 Q-14.95 -0.85 -14.4 -1.45 L-15.25 -1.1 -16.4 -1.2 -16.8 -0.7 -17.55 -0.1 Q-17.8 0.05 -18.2 -0.1 L-18.75 -0.2 -19.35 0.15 -19.95 0.55 -20.75 0.8 -21.55 1.7 -18.65 1.45 Q-16.7 1.2 -15.45 1.95 -14.5 2.5 -14.2 3.1 L-13.7 3.7 -13.1 3.9 -12.8 4.15 -12.75 4.3 -12.95 4.85 -15.95 5.3 -20.95 5.1 Q-22.8 4.55 -25.35 5.15 -27.55 5.65 -28.9 4.85 -29.85 4.3 -29.75 3.3 -29.7 2.8 -29.3 2.4 L-29.55 2.15 -29.75 1.55 -33.35 1.15 Q-34.3 0.6 -34.0 -0.1 L-33.2 -1.3 M-7.9 3.4 L-8.05 3.95 -11.8 4.05 Q-13.35 3.15 -11.75 2.45 -10.2 1.85 -8.6 2.75 L-7.9 3.15 -7.9 3.4 M-10.1 2.15 Q-12.0 1.05 -10.0 0.2 L-6.8 0.0 Q-4.95 1.05 -5.6 2.15 -5.95 2.8 -8.15 2.55 L-10.1 2.15 M-6.55 -2.75 L-6.75 -2.25 -8.65 -2.2 -9.25 -3.0 Q-9.45 -3.75 -8.8 -4.4 L-8.15 -4.25 -6.55 -2.75 M-5.75 -2.65 Q-4.8 -3.8 -4.1 -3.75 L-2.95 -3.25 Q-0.95 -2.1 -1.3 -0.3 L-2.8 -0.25 -3.2 -0.4 -3.85 -0.55 -5.0 -1.55 -5.75 -2.65 M-3.65 8.75 Q-4.8 8.1 -3.75 6.7 -2.6 5.35 -1.25 6.15 -0.65 6.45 -0.7 6.75 -0.6 7.05 -1.0 7.7 -1.7 8.9 -2.85 8.95 L-3.65 8.75 M-1.3 10.2 L-1.45 10.9 -2.35 11.25 -2.75 10.8 Q-3.0 10.25 -2.25 9.75 -2.15 9.6 -1.6 9.95 L-1.3 10.2 M-4.3 1.2 Q-5.1 0.75 -4.5 0.0 -3.85 -0.6 -3.3 -0.25 -2.65 0.1 -3.1 0.8 -3.45 1.45 -4.0 1.35 L-4.3 1.2 M-2.2 2.65 Q-1.7 2.95 -1.45 3.4 L-1.7 3.85 Q-2.2 4.75 -3.4 4.3 -4.25 3.8 -3.75 2.95 -3.35 2.25 -2.85 2.35 -2.7 2.35 -2.2 2.65 M3.75 7.8 Q5.35 8.75 4.2 10.7 3.5 11.95 2.6 11.8 2.1 11.7 1.75 11.35 0.25 10.45 1.15 8.65 1.95 6.8 3.75 7.8 M3.25 7.3 L2.95 7.1 Q2.2 6.65 2.75 5.95 3.4 5.35 3.95 5.65 4.6 6.05 4.15 6.75 3.8 7.4 3.25 7.3 M0.5 4.55 L0.2 4.4 Q-0.55 3.95 0.0 3.2 0.65 2.55 1.2 2.9 1.85 3.25 1.4 4.0 1.05 4.65 0.5 4.55 M5.25 12.15 Q4.2 11.55 4.75 10.75 5.25 9.9 6.1 10.35 7.2 11.0 6.55 12.05 6.05 12.95 5.25 12.15 M11.65 15.85 L10.9 15.4 Q9.75 14.75 10.2 13.6 10.65 12.4 12.05 13.2 13.55 14.05 12.9 15.15 12.4 16.05 11.65 15.85 M10.5 11.7 Q7.95 10.25 8.55 9.2 L11.25 9.3 12.6 10.05 Q13.35 10.8 12.85 11.7 12.35 12.6 11.4 12.25 L10.5 11.7 M16.0 8.85 Q16.45 7.7 18.0 8.55 19.2 9.25 18.75 9.95 18.35 10.7 16.35 10.5 15.55 10.05 16.0 8.85" fill="#990000" fill-rule="evenodd" stroke="none"/>
  </g>
</svg>
