<?xml version="1.0" encoding="UTF-8" standalone="no"?>
<svg xmlns:ffdec="https://www.free-decompiler.com/flash" xmlns:xlink="http://www.w3.org/1999/xlink" ffdec:objectType="shape" height="96.75px" width="116.45px" xmlns="http://www.w3.org/2000/svg">
  <g transform="matrix(1.0, 0.0, 0.0, 1.0, 52.3, 54.25)">
    <path d="M-38.95 -13.05 L-37.9 -12.8 -37.3 -12.35 -37.35 -12.05 -37.65 -12.0 -38.55 -12.3 -39.0 -12.75 -38.95 -13.05 M-34.55 -5.1 Q-35.1 -5.1 -35.5 -5.4 L-35.8 -5.75 Q-35.8 -6.2 -34.85 -6.1 -33.95 -6.0 -33.95 -5.6 -33.95 -5.1 -34.55 -5.1 M-21.55 -2.0 Q-21.55 -1.65 -21.9 -1.65 L-22.4 -1.7 -22.45 -1.95 Q-22.45 -2.5 -21.65 -2.3 L-21.55 -2.0 M-22.0 -5.75 L-22.3 -5.65 Q-22.95 -5.65 -23.3 -6.05 L-23.55 -6.5 Q-23.55 -7.5 -21.95 -6.05 L-22.0 -5.75 M-13.6 -11.0 Q-13.6 -10.65 -14.0 -10.65 L-14.8 -10.95 -15.35 -11.5 Q-15.35 -12.15 -14.45 -11.75 L-13.6 -11.0 M-13.95 -0.3 L-14.4 -0.35 -14.45 -0.65 Q-14.45 -1.05 -14.0 -1.0 L-13.6 -0.65 Q-13.6 -0.3 -13.95 -0.3 M-32.0 1.65 L-32.2 1.85 Q-32.85 1.85 -32.9 1.3 -32.9 0.95 -32.4 0.95 -31.9 0.95 -31.9 1.4 L-32.0 1.65" fill="#990000" fill-rule="evenodd" stroke="none"/>
    <path d="M14.15 -21.9 L13.75 -21.5 13.35 -21.75 14.0 -22.2 14.15 -21.9 M13.35 -12.95 L13.1 -12.15 Q12.8 -11.75 12.3 -11.75 L11.8 -11.85 11.65 -11.9 11.65 -12.2 Q11.65 -13.05 12.5 -12.65 L12.6 -13.35 Q12.7 -13.85 13.3 -13.6 L13.35 -12.95 M0.95 -1.1 L-0.4 -2.4 -1.2 -3.3 Q-1.75 -4.1 -1.75 -4.45 L-1.7 -5.0 1.0 -4.9 2.25 -3.8 3.15 -2.65 2.6 -2.15 Q2.0 -1.6 2.0 -0.5 L1.65 -0.35 0.95 -1.1 M18.85 -0.2 L18.45 0.2 18.05 -0.05 18.05 -0.5 18.7 -0.5 18.85 -0.2 M13.35 18.45 L12.95 18.85 12.55 18.6 13.2 18.15 13.35 18.45 M-29.2 -0.5 L-29.05 0.1 Q-29.05 1.0 -29.7 1.0 -30.4 1.0 -30.35 0.15 L-30.3 -0.35 -29.2 -0.5 M-12.05 -2.65 Q-11.55 -2.25 -11.55 -1.75 -11.55 -1.3 -12.15 -0.95 L-13.75 -0.95 -14.6 -1.6 -14.65 -2.35 Q-14.65 -2.75 -14.25 -3.1 -12.8 -3.25 -12.05 -2.65 M-8.4 4.9 L-8.7 5.2 -9.35 5.3 -10.8 5.0 -10.8 4.6 -10.75 4.1 Q-10.45 4.1 -9.85 4.4 L-8.4 4.9 M-9.4 22.45 L-9.8 22.85 -10.2 22.6 -9.55 22.15 -9.4 22.45 M-31.7 1.55 L-31.7 1.6 Q-31.2 2.5 -31.2 3.25 L-31.6 4.6 Q-32.05 5.5 -32.6 5.5 -33.55 5.5 -33.75 4.15 L-33.75 2.75 -33.65 1.1 -33.05 0.2 Q-32.95 -0.95 -32.5 -1.3 -32.15 -0.9 -31.85 0.85 L-31.7 1.55 M-32.7 4.4 L-32.75 4.4 -32.75 4.5 -32.7 4.55 -32.5 4.3 -32.7 4.4" fill="#990000" fill-rule="evenodd" stroke="none"/>
    <path d="M27.0 -3.9 Q27.0 -3.55 26.6 -3.25 L25.85 -3.0 25.25 -3.05 Q25.1 -3.15 25.05 -3.2 L25.0 -3.65 Q25.0 -4.6 26.75 -4.55 L27.0 -3.9 M33.7 -1.1 L34.75 -1.05 35.0 -0.4 34.85 0.0 34.25 0.25 Q34.0 0.5 33.6 0.5 L32.85 0.35 32.75 -0.35 Q32.75 -1.15 33.35 -1.15 L33.7 -1.1 M36.1 -2.75 L35.5 -2.5 34.75 -3.15 Q34.75 -4.3 36.0 -3.8 L36.25 -3.15 36.1 -2.75 M41.25 -0.35 L41.15 0.15 40.5 0.5 Q39.75 -0.05 39.75 -0.35 39.75 -0.9 40.5 -1.1 41.25 -1.25 41.25 -0.35 M46.0 12.35 L46.15 12.5 46.25 13.0 Q46.25 13.75 45.0 13.75 L43.85 13.6 43.75 13.05 Q43.75 12.5 44.2 12.35 44.7 12.15 46.0 12.35 M47.0 9.3 Q47.0 10.25 45.75 10.25 44.0 10.25 44.0 9.3 44.0 8.75 44.3 8.6 L45.5 8.5 Q47.0 8.5 47.0 9.3 M40.95 19.65 Q40.7 20.25 39.6 20.25 38.45 20.25 38.25 19.75 L38.25 19.15 Q38.25 17.05 39.65 16.7 41.0 16.3 41.0 18.45 L40.95 19.65 M42.25 23.85 L42.4 24.0 42.5 24.5 Q42.5 25.25 41.6 25.25 L40.85 25.1 40.75 24.55 Q40.75 23.45 42.25 23.85 M44.25 25.5 Q46.25 25.5 46.25 26.8 46.25 28.5 44.5 28.5 43.3 28.5 42.8 27.6 42.5 27.1 42.5 26.65 42.5 25.9 42.7 25.75 L44.25 25.5 M41.1 32.85 Q40.9 33.25 40.1 33.25 39.0 33.25 38.75 32.15 L38.75 31.2 Q38.75 29.45 40.0 29.7 41.25 29.95 41.25 31.9 L41.1 32.85 M43.75 33.2 Q46.0 33.7 46.0 36.0 46.0 36.85 45.6 37.45 45.05 38.25 43.85 38.25 42.15 38.25 41.65 36.8 L41.5 35.3 Q41.5 32.7 43.75 33.2 M39.65 6.0 L39.75 6.5 39.6 7.0 39.0 7.25 38.25 6.55 Q38.25 5.3 39.5 5.85 L39.65 6.0 M34.5 3.0 L34.35 3.5 33.75 3.75 33.0 3.05 Q33.0 1.8 34.25 2.35 L34.4 2.5 34.5 3.0 M34.75 5.5 Q34.75 6.75 33.35 6.75 32.4 6.75 32.25 6.25 L32.25 5.65 Q32.25 4.45 33.5 4.3 34.75 4.15 34.75 5.5 M31.35 11.0 Q30.6 10.95 30.15 10.5 29.75 10.15 29.75 9.65 L29.85 9.1 Q31.8 9.15 32.45 9.65 33.0 10.05 33.0 11.1 33.5 11.35 33.5 12.3 33.5 13.5 32.5 13.5 31.65 13.5 31.5 12.8 L31.5 12.4 31.35 12.35 Q31.15 11.7 31.35 11.0 M37.0 11.15 Q37.0 10.0 38.0 10.0 39.0 10.0 39.0 10.8 39.0 11.25 38.6 11.75 L38.0 12.25 Q37.45 12.25 37.2 11.75 L37.0 11.15 M25.75 1.6 L25.25 1.75 Q24.7 1.75 24.45 1.25 L24.25 0.65 24.35 0.1 Q25.05 -0.1 25.55 0.1 26.0 0.3 26.0 0.8 L25.9 1.4 25.75 1.6 M28.5 4.75 Q28.5 3.5 29.5 3.5 30.5 3.5 30.5 4.45 L30.2 5.5 30.2 5.55 30.15 5.65 29.95 5.8 29.55 6.0 29.5 6.0 29.35 6.0 Q28.65 6.0 28.5 5.4 L28.5 4.75 M22.0 5.3 Q22.0 4.1 23.25 4.6 L23.4 4.75 23.5 5.25 23.35 5.75 22.75 6.0 22.0 5.3 M25.3 7.95 Q25.9 7.8 26.75 8.85 L28.05 9.75 Q29.0 10.25 29.0 10.8 L28.65 11.65 27.6 12.0 26.85 11.75 26.25 11.1 25.5 10.6 24.75 9.8 24.75 9.0 Q24.75 8.15 25.3 7.95 M27.25 18.45 Q27.25 19.5 26.25 19.5 25.4 19.5 25.25 18.8 L25.25 18.1 Q25.25 16.3 26.25 16.85 27.25 17.35 27.25 18.45 M26.25 14.7 Q26.25 13.8 27.15 14.05 28.0 14.35 28.0 15.05 L27.85 15.75 Q27.85 16.0 27.25 16.0 26.75 16.0 26.45 15.3 L26.25 14.7 M21.85 18.5 L20.85 18.35 20.75 17.6 Q20.75 16.75 21.35 16.75 22.05 16.75 23.0 17.85 22.6 18.5 21.85 18.5 M29.25 19.85 Q30.0 19.7 30.0 20.55 L29.9 21.15 29.25 21.5 28.6 20.95 28.5 20.6 Q28.5 20.05 29.25 19.85 M39.1 15.75 Q38.2 15.75 38.0 15.25 L38.0 14.75 Q38.0 13.45 39.4 13.3 40.75 13.15 40.75 14.5 L40.25 15.25 Q39.7 15.75 39.1 15.75 M36.25 15.75 Q36.25 16.5 35.35 16.5 34.1 16.5 33.7 15.8 L33.5 15.05 Q33.5 14.25 34.5 14.25 35.15 14.25 35.75 14.95 L36.25 15.75 M31.25 23.8 L31.35 22.65 33.1 22.35 34.0 23.6 34.25 24.5 Q34.25 25.75 32.5 25.75 31.5 25.75 31.25 24.7 L31.25 23.8 M39.0 24.2 Q39.0 26.0 36.6 26.0 35.9 26.0 35.5 25.3 L35.25 24.55 Q35.25 23.0 37.15 22.9 39.0 22.75 39.0 24.2 M13.05 12.35 Q13.5 12.55 13.5 13.05 L13.4 13.65 13.25 13.85 12.75 14.0 Q12.2 14.0 11.95 13.5 L11.75 12.9 11.85 12.35 Q12.55 12.1 13.05 12.35 M13.0 9.5 L12.25 8.8 Q12.25 7.6 13.5 8.1 L13.65 8.25 13.75 8.75 13.6 9.25 13.0 9.5 M17.65 17.5 L17.75 18.0 Q17.75 18.75 16.85 18.75 L16.1 18.6 16.0 18.05 Q16.0 16.95 17.5 17.35 L17.65 17.5 M14.5 16.3 L14.4 16.9 14.25 17.1 13.75 17.25 Q13.15 17.25 12.8 16.85 L12.5 16.3 Q12.5 15.4 13.5 15.5 14.5 15.6 14.5 16.3 M13.9 23.5 L14.0 24.0 Q14.0 24.75 13.0 24.75 L12.1 24.6 12.0 24.05 Q12.0 23.0 13.75 23.35 L13.9 23.5 M18.65 19.95 Q19.5 20.05 19.5 21.15 19.5 22.25 18.75 22.25 18.3 22.25 18.0 21.55 L17.75 20.8 Q17.75 19.85 18.65 19.95 M17.4 24.5 L17.5 25.0 17.5 25.05 17.5 25.35 17.4 26.4 17.25 26.6 16.75 26.75 Q15.9 26.75 15.75 25.7 L15.75 24.8 Q15.75 23.2 16.65 23.65 17.15 23.9 17.4 24.5 M20.15 24.25 L20.25 24.75 20.1 25.25 19.5 25.5 18.75 24.8 Q18.75 23.55 20.0 24.1 L20.15 24.25 M14.45 29.75 Q14.25 30.25 13.5 30.25 12.65 30.25 12.5 29.75 L12.5 29.25 Q12.5 26.8 13.5 26.95 14.5 27.15 14.5 28.65 L14.45 29.75 M19.45 33.7 L18.5 34.75 Q17.75 34.6 17.75 33.75 17.75 31.5 18.65 31.25 19.5 31.0 19.5 32.75 L19.45 33.7 M11.0 31.3 Q11.0 32.5 10.1 32.5 9.35 32.5 9.25 31.8 L9.25 31.05 Q9.25 29.2 10.15 29.45 11.0 29.75 11.0 31.3 M38.9 27.5 L39.0 28.0 Q39.0 28.45 38.6 28.85 L37.85 29.25 Q37.2 29.25 36.95 28.65 L36.75 27.95 36.95 27.4 38.75 27.35 38.9 27.5 M34.75 31.1 Q34.75 29.95 35.75 30.35 36.75 30.7 36.75 31.25 36.75 32.0 35.75 32.0 L34.85 31.85 34.75 31.1 M31.75 33.25 Q31.0 32.6 31.0 32.0 31.0 30.9 31.9 30.9 32.75 30.9 32.75 31.65 32.75 32.05 31.75 33.25 M31.75 36.7 L31.7 37.9 Q31.5 38.5 30.85 38.5 30.15 38.5 29.6 37.45 L29.25 36.5 Q29.25 35.35 30.5 35.05 31.75 34.75 31.75 36.7 M35.5 36.0 L35.5 35.25 35.6 34.4 Q35.85 33.95 37.0 33.5 L38.05 34.35 38.5 35.5 38.2 36.4 37.0 36.5 Q35.75 36.5 35.5 36.0 M27.1 27.25 Q26.4 27.25 26.25 26.65 L26.25 26.0 Q26.25 24.05 27.4 23.75 28.5 23.5 28.5 25.65 28.5 26.15 28.1 26.7 27.7 27.25 27.1 27.25 M26.0 29.1 Q26.0 28.15 26.9 28.05 27.75 28.0 27.75 28.8 27.75 29.35 26.75 30.0 26.0 29.35 26.0 29.1 M23.25 28.25 Q22.55 28.75 22.0 28.75 21.15 28.75 21.0 28.05 L21.0 27.3 Q21.0 25.05 22.5 25.55 24.0 26.1 24.0 27.25 24.0 27.75 23.25 28.25 M25.0 33.05 Q25.0 31.4 26.4 31.25 27.75 31.1 27.75 32.55 L27.5 34.2 Q27.1 35.25 26.25 35.25 25.6 35.25 25.25 34.2 L25.0 33.05 M37.25 39.5 Q37.25 38.0 39.4 37.5 41.5 37.0 41.5 39.5 41.5 42.0 39.75 42.0 38.3 42.0 37.6 40.8 L37.25 39.5 M36.5 41.8 Q36.35 42.5 35.5 42.5 L35.1 42.45 34.75 42.5 Q34.45 42.5 33.85 41.6 L33.15 41.25 Q32.75 40.85 32.75 39.7 32.75 37.6 34.65 37.6 36.5 37.55 36.5 40.55 L36.5 41.8 M-28.1 -52.0 Q-26.0 -51.55 -26.0 -48.95 -25.85 -48.3 -26.0 -47.95 -26.25 -47.25 -27.75 -47.25 -29.4 -47.25 -30.0 -48.7 L-30.25 -50.0 Q-30.25 -52.45 -28.1 -52.0 M-21.85 -52.95 Q-20.75 -53.05 -20.75 -51.15 L-20.8 -50.4 -21.75 -50.25 Q-22.4 -50.25 -22.75 -50.95 L-23.0 -51.55 Q-23.0 -52.9 -21.85 -52.95 M-16.1 -54.25 Q-14.95 -54.25 -14.75 -53.5 L-14.75 -52.65 -14.95 -51.5 Q-15.3 -50.75 -16.5 -50.75 -17.55 -50.75 -17.75 -51.4 L-17.75 -52.05 Q-17.75 -54.25 -16.1 -54.25 M-8.5 -47.0 L-9.0 -45.9 -9.0 -45.8 -8.95 -45.8 -8.0 -45.2 -8.0 -44.75 -8.0 -43.75 -8.2 -43.6 -8.75 -43.5 -9.2 -43.55 -9.5 -43.75 -9.5 -45.25 -10.0 -45.25 Q-11.05 -45.25 -11.25 -46.4 L-11.25 -47.55 Q-11.25 -49.7 -9.6 -50.4 -8.0 -51.1 -8.0 -48.65 -8.0 -47.95 -8.5 -47.0 M-8.75 -38.7 Q-7.75 -38.7 -7.75 -37.45 -7.75 -36.25 -8.75 -36.25 -9.45 -36.25 -9.7 -36.9 L-9.75 -37.45 Q-9.75 -38.7 -8.75 -38.7 M-8.0 -42.5 Q-6.25 -41.75 -6.25 -40.65 -6.25 -38.75 -8.35 -38.75 -9.45 -38.75 -9.7 -39.6 L-9.75 -41.0 Q-9.75 -43.25 -8.0 -42.5 M-14.0 -44.5 L-15.0 -45.7 -15.75 -46.6 Q-15.75 -47.55 -14.35 -47.45 -13.0 -47.4 -13.0 -46.5 -13.0 -45.55 -13.5 -44.55 L-14.0 -44.5 M-20.0 -48.0 L-20.2 -47.85 -20.75 -47.75 -21.2 -47.8 -21.5 -48.0 Q-21.35 -49.5 -20.65 -49.45 -20.0 -49.45 -20.0 -48.6 L-20.0 -48.0 M-15.55 -49.0 L-16.25 -48.75 -17.0 -49.4 Q-16.95 -50.65 -15.65 -50.05 -15.5 -50.05 -15.5 -49.4 L-15.55 -49.0 M-20.1 -38.45 Q-20.55 -37.5 -21.35 -37.5 -22.3 -37.5 -22.5 -38.5 L-22.5 -39.55 Q-22.5 -42.3 -21.1 -41.55 -19.75 -40.8 -19.75 -39.75 -19.75 -39.1 -20.1 -38.45 M-17.75 -41.25 L-17.95 -41.1 -18.5 -41.0 Q-18.8 -41.0 -19.75 -42.8 -19.75 -43.65 -18.75 -43.4 -17.75 -43.15 -17.75 -42.15 L-17.75 -41.25 M-13.6 -40.0 Q-14.3 -40.0 -14.5 -40.45 L-14.5 -40.95 Q-14.5 -42.05 -13.6 -42.15 -12.75 -42.25 -12.75 -41.05 -12.75 -40.0 -13.6 -40.0 M-12.5 -32.3 Q-12.5 -30.25 -14.0 -30.25 -14.95 -30.25 -15.45 -31.7 L-15.75 -33.0 Q-15.75 -34.45 -14.1 -34.2 -12.5 -33.95 -12.5 -32.3 M-19.5 -31.35 L-20.5 -31.25 Q-21.55 -31.25 -21.75 -31.75 L-21.8 -32.05 -22.35 -32.0 Q-23.55 -32.0 -23.75 -32.45 L-23.75 -32.95 Q-23.75 -33.8 -22.25 -34.45 -20.8 -35.05 -20.75 -33.45 -20.1 -33.2 -19.25 -31.8 L-19.5 -31.35 M-17.25 -35.25 Q-18.25 -35.25 -18.0 -36.3 -18.0 -37.45 -17.25 -37.45 -16.5 -37.45 -16.5 -36.3 -16.5 -35.75 -16.75 -35.3 L-17.25 -35.25 M-17.35 -28.25 L-17.75 -29.15 Q-17.75 -30.2 -16.35 -29.85 -15.0 -29.5 -15.0 -28.5 L-15.05 -27.75 Q-15.2 -27.25 -15.85 -27.25 -16.75 -27.25 -17.35 -28.25 M-18.8 -25.65 L-19.0 -25.55 -19.5 -25.5 Q-19.95 -25.5 -20.75 -26.25 L-21.5 -27.2 Q-21.5 -28.45 -20.1 -28.2 -18.75 -27.9 -18.75 -26.8 L-18.8 -25.65 M-12.3 -29.25 L-11.15 -29.3 Q-11.0 -29.3 -11.0 -28.65 L-11.05 -28.25 -11.75 -28.0 -12.5 -28.65 -12.3 -29.25 M-14.15 -26.7 L-13.7 -27.25 Q-13.15 -27.45 -12.75 -26.15 L-11.95 -25.65 -11.15 -25.15 Q-11.0 -24.95 -11.0 -23.9 -11.0 -23.0 -11.25 -22.55 L-11.75 -22.5 Q-12.55 -22.5 -12.5 -23.1 -12.5 -23.95 -13.15 -24.4 -13.9 -24.9 -14.15 -25.3 L-14.15 -25.4 -14.75 -25.9 -14.55 -26.5 -14.15 -26.7 M-8.25 -32.0 Q-9.55 -32.0 -9.25 -33.05 -9.25 -34.15 -8.1 -34.5 -7.0 -34.8 -7.0 -33.3 -7.0 -32.0 -8.25 -32.0 M-7.25 -29.0 L-7.45 -28.85 -8.0 -28.75 -8.45 -28.8 -8.75 -29.0 Q-8.6 -30.5 -7.9 -30.45 -7.25 -30.45 -7.25 -29.6 L-7.25 -29.0 M-8.8 -25.0 L-9.5 -24.75 -10.25 -25.4 Q-10.2 -26.65 -8.9 -26.05 -8.75 -26.05 -8.75 -25.4 L-8.8 -25.0 M-6.9 -25.75 Q-6.65 -26.2 -5.5 -25.5 L-5.25 -24.3 -5.0 -23.25 -5.05 -22.65 -5.85 -22.5 Q-6.65 -22.5 -6.9 -23.55 L-7.25 -23.95 -7.25 -24.45 -6.95 -25.35 -6.9 -25.75 M-23.25 -44.9 Q-23.25 -43.0 -24.6 -43.0 -25.4 -43.0 -26.0 -43.8 L-26.5 -44.9 Q-26.5 -47.2 -24.85 -47.1 -23.25 -47.0 -23.25 -44.9 M-21.5 -44.7 Q-20.75 -44.6 -20.75 -43.75 L-20.8 -42.9 -21.0 -42.8 -21.5 -42.75 Q-22.15 -42.75 -22.25 -43.2 L-22.25 -43.7 Q-22.25 -44.85 -21.5 -44.7 M-28.05 -39.65 L-25.3 -39.8 Q-24.5 -39.0 -24.5 -38.0 L-24.75 -36.5 Q-25.1 -35.25 -25.85 -35.25 -27.3 -35.25 -28.25 -38.9 L-28.05 -39.65 M-28.25 -41.9 Q-28.25 -41.2 -28.75 -40.65 -29.35 -40.0 -30.5 -40.0 -31.95 -40.0 -32.5 -41.5 L-32.75 -42.9 -32.5 -44.15 Q-31.85 -44.85 -29.3 -44.55 -29.05 -44.4 -28.65 -43.25 L-28.25 -41.9 M-35.25 -46.75 L-35.45 -46.6 -36.0 -46.5 -36.45 -46.55 -36.75 -46.75 Q-36.65 -48.05 -35.95 -48.5 -35.25 -48.9 -35.25 -47.35 L-35.25 -46.75 M-33.75 -40.0 Q-33.75 -40.85 -32.85 -40.7 -32.0 -40.6 -32.0 -39.75 L-32.05 -38.9 -32.25 -38.8 -32.75 -38.75 Q-33.2 -38.75 -33.55 -39.45 L-33.75 -40.0 M-26.5 -34.65 L-26.55 -34.25 -27.25 -34.0 -28.0 -34.65 -27.8 -35.25 -26.65 -35.3 Q-26.5 -35.3 -26.5 -34.65 M-26.2 -29.8 L-26.5 -30.0 Q-26.4 -31.3 -25.7 -31.75 -25.0 -32.15 -25.0 -30.6 L-25.0 -30.0 -25.2 -29.85 -25.75 -29.75 -26.2 -29.8 M-14.1 -21.25 L-16.25 -22.65 -16.15 -23.0 -16.35 -23.0 -17.05 -23.05 -17.15 -23.2 -17.25 -23.65 Q-17.25 -24.75 -15.65 -24.3 -15.5 -24.3 -15.5 -23.65 L-15.5 -23.4 -14.75 -23.4 Q-13.25 -23.15 -13.25 -21.9 -13.25 -21.25 -14.1 -21.25" fill="#990000" fill-rule="evenodd" stroke="none"/>
    <path d="M-16.4 -3.25 L-15.65 -3.0 -15.05 -3.05 Q-14.9 -3.15 -14.85 -3.2 L-14.8 -3.65 Q-14.8 -4.6 -16.55 -4.55 L-16.8 -3.9 -16.4 -3.25 M-23.5 -1.1 L-24.55 -1.05 -24.8 -0.4 -24.65 0.0 -24.05 0.25 -23.4 0.5 -22.65 0.35 -22.55 -0.35 Q-22.55 -1.15 -23.15 -1.15 L-23.5 -1.1 M-25.9 -2.75 L-25.3 -2.5 -24.55 -3.15 Q-24.55 -4.3 -25.8 -3.8 L-26.05 -3.15 -25.9 -2.75 M-31.05 -0.35 L-30.95 0.15 -30.3 0.5 Q-29.55 -0.05 -29.55 -0.35 -29.55 -0.9 -30.3 -1.1 -31.05 -1.25 -31.05 -0.35 M-35.55 10.25 Q-33.8 10.25 -33.8 9.3 -33.8 8.75 -34.1 8.6 L-35.3 8.5 Q-36.8 8.5 -36.8 9.3 -36.8 10.25 -35.55 10.25 M-35.8 12.35 L-35.95 12.5 -36.05 13.0 Q-36.05 13.75 -34.8 13.75 L-33.65 13.6 -33.55 13.05 Q-33.55 12.5 -34.0 12.35 -34.5 12.15 -35.8 12.35 M-32.2 24.0 L-32.3 24.5 Q-32.3 25.25 -31.4 25.25 L-30.65 25.1 -30.55 24.55 Q-30.55 23.45 -32.05 23.85 L-32.2 24.0 M-30.75 19.65 Q-30.5 20.25 -29.4 20.25 -28.25 20.25 -28.05 19.75 L-28.05 19.15 Q-28.05 17.05 -29.45 16.7 -30.8 16.3 -30.8 18.45 L-30.75 19.65 M-32.6 27.6 Q-32.3 27.1 -32.3 26.65 -32.3 25.9 -32.5 25.75 L-34.05 25.5 Q-36.05 25.5 -36.05 26.8 -36.05 28.5 -34.3 28.5 -33.1 28.5 -32.6 27.6 M-31.3 35.3 Q-31.3 32.7 -33.55 33.2 -35.8 33.7 -35.8 36.0 -35.8 36.85 -35.4 37.45 -34.85 38.25 -33.65 38.25 -31.95 38.25 -31.45 36.8 L-31.3 35.3 M-30.9 32.85 Q-30.7 33.25 -29.9 33.25 -28.8 33.25 -28.55 32.15 L-28.55 31.2 Q-28.55 29.45 -29.8 29.7 -31.05 29.95 -31.05 31.9 L-30.9 32.85 M-29.45 6.0 L-29.55 6.5 -29.4 7.0 -28.8 7.25 -28.05 6.55 Q-28.05 5.3 -29.3 5.85 L-29.45 6.0 M-24.2 2.5 L-24.3 3.0 -24.15 3.5 -23.55 3.75 -22.8 3.05 Q-22.8 1.8 -24.05 2.35 L-24.2 2.5 M-24.55 5.5 Q-24.55 6.75 -23.15 6.75 -22.2 6.75 -22.05 6.25 L-22.05 5.65 Q-22.05 4.45 -23.3 4.3 -24.55 4.15 -24.55 5.5 M-22.8 11.1 Q-23.3 11.35 -23.3 12.3 -23.3 13.5 -22.3 13.5 -21.45 13.5 -21.3 12.8 L-21.3 12.4 -21.15 12.35 Q-20.95 11.7 -21.15 11.0 -20.4 10.95 -19.95 10.5 -19.55 10.15 -19.55 9.65 L-19.65 9.1 Q-21.6 9.15 -22.25 9.65 -22.8 10.05 -22.8 11.1 M-26.8 11.15 Q-26.8 10.0 -27.8 10.0 -28.8 10.0 -28.8 10.8 L-28.4 11.75 -27.8 12.25 Q-27.25 12.25 -27.0 11.75 L-26.8 11.15 M-15.8 0.8 L-15.7 1.4 -15.55 1.6 -15.05 1.75 Q-14.5 1.75 -14.25 1.25 L-14.05 0.65 -14.15 0.1 Q-14.85 -0.1 -15.35 0.1 -15.8 0.3 -15.8 0.8 M-18.3 4.75 Q-18.3 3.5 -19.3 3.5 -20.3 3.5 -20.3 4.45 L-20.0 5.5 -20.0 5.55 -19.95 5.65 -19.75 5.8 -19.35 6.0 -19.3 6.0 -19.15 6.0 Q-18.45 6.0 -18.3 5.4 L-18.3 4.75 M-11.8 5.3 Q-11.8 4.1 -13.05 4.6 L-13.2 4.75 -13.3 5.25 -13.15 5.75 -12.55 6.0 -11.8 5.3 M-14.55 9.0 Q-14.55 8.15 -15.1 7.95 -15.7 7.8 -16.55 8.85 L-17.85 9.75 Q-18.8 10.25 -18.8 10.8 -18.8 11.3 -18.45 11.65 L-17.4 12.0 -16.65 11.75 -16.05 11.1 -15.3 10.6 -14.55 9.8 -14.55 9.0 M-17.05 18.45 Q-17.05 19.5 -16.05 19.5 -15.2 19.5 -15.05 18.8 L-15.05 18.1 Q-15.05 16.3 -16.05 16.85 -17.05 17.35 -17.05 18.45 M-16.05 14.7 Q-16.05 13.8 -16.95 14.05 -17.8 14.35 -17.8 15.05 L-17.65 15.75 Q-17.65 16.0 -17.05 16.0 -16.55 16.0 -16.25 15.3 L-16.05 14.7 M-10.65 18.35 L-10.55 17.6 Q-10.55 16.75 -11.15 16.75 -11.85 16.75 -12.8 17.85 -12.4 18.5 -11.65 18.5 L-10.65 18.35 M-19.8 20.55 L-19.7 21.15 -19.05 21.5 -18.4 20.95 -18.3 20.6 Q-18.3 20.05 -19.05 19.85 -19.8 19.7 -19.8 20.55 M-28.9 15.75 Q-28.0 15.75 -27.8 15.25 L-27.8 14.75 Q-27.8 13.45 -29.2 13.3 -30.55 13.15 -30.55 14.5 L-30.05 15.25 Q-29.5 15.75 -28.9 15.75 M-26.05 15.75 Q-26.05 16.5 -25.15 16.5 -23.9 16.5 -23.5 15.8 L-23.3 15.05 Q-23.3 14.25 -24.3 14.25 -24.95 14.25 -25.55 14.95 L-26.05 15.75 M-21.15 22.65 Q-21.5 22.2 -22.9 22.35 L-23.8 23.6 -24.05 24.5 Q-24.05 25.75 -22.3 25.75 -21.3 25.75 -21.05 24.7 L-21.05 23.8 -21.15 22.65 M-28.8 24.2 Q-28.8 26.0 -26.4 26.0 -25.7 26.0 -25.3 25.3 L-25.05 24.55 Q-25.05 23.0 -26.95 22.9 -28.8 22.75 -28.8 24.2 M-2.85 12.35 Q-3.3 12.55 -3.3 13.05 L-3.2 13.65 -3.05 13.85 -2.55 14.0 Q-2.0 14.0 -1.75 13.5 L-1.55 12.9 -1.65 12.35 Q-2.35 12.1 -2.85 12.35 M-2.8 9.5 L-2.05 8.8 Q-2.05 7.6 -3.3 8.1 L-3.45 8.25 -3.55 8.75 -3.4 9.25 -2.8 9.5 M-7.3 17.35 L-7.45 17.5 -7.55 18.0 Q-7.55 18.75 -6.65 18.75 L-5.9 18.6 -5.8 18.05 Q-5.8 16.95 -7.3 17.35 M-4.2 16.9 L-4.05 17.1 -3.55 17.25 Q-2.95 17.25 -2.6 16.85 L-2.3 16.3 Q-2.3 15.4 -3.3 15.5 -4.3 15.6 -4.3 16.3 L-4.2 16.9 M-3.8 24.0 Q-3.8 24.75 -2.8 24.75 L-1.9 24.6 -1.8 24.05 Q-1.8 23.0 -3.55 23.35 L-3.7 23.5 -3.8 24.0 M-8.45 19.95 Q-9.3 20.05 -9.3 21.15 -9.3 22.25 -8.55 22.25 -8.1 22.25 -7.8 21.55 L-7.55 20.8 Q-7.55 19.85 -8.45 19.95 M-7.2 24.5 L-7.3 25.0 -7.3 25.05 -7.3 25.35 -7.2 26.4 -7.05 26.6 -6.55 26.75 Q-5.7 26.75 -5.55 25.7 L-5.55 24.8 Q-5.55 23.2 -6.45 23.65 -6.95 23.9 -7.2 24.5 M-9.95 24.25 L-10.05 24.75 -9.9 25.25 -9.3 25.5 -8.55 24.8 Q-8.55 23.55 -9.8 24.1 L-9.95 24.25 M-3.3 30.25 Q-2.45 30.25 -2.3 29.75 L-2.3 29.25 Q-2.3 26.8 -3.3 26.95 -4.3 27.15 -4.3 28.65 L-4.25 29.75 Q-4.05 30.25 -3.3 30.25 M-8.3 34.75 Q-7.55 34.6 -7.55 33.75 -7.55 31.5 -8.45 31.25 -9.3 31.0 -9.3 32.75 L-9.25 33.7 -8.3 34.75 M-0.8 31.3 Q-0.8 32.5 0.1 32.5 0.85 32.5 0.95 31.8 L0.95 31.05 Q0.95 29.2 0.05 29.45 -0.8 29.75 -0.8 31.3 M-28.7 27.5 L-28.8 28.0 -28.4 28.85 Q-28.05 29.25 -27.65 29.25 -27.0 29.25 -26.75 28.65 L-26.55 27.95 -26.75 27.4 -28.55 27.35 -28.7 27.5 M-21.55 36.7 L-21.5 37.9 Q-21.3 38.5 -20.65 38.5 -19.95 38.5 -19.4 37.45 L-19.05 36.5 Q-19.05 35.35 -20.3 35.05 -21.55 34.75 -21.55 36.7 M-20.8 32.0 Q-20.8 30.9 -21.7 30.9 -22.55 30.9 -22.55 31.65 -22.55 32.05 -21.55 33.25 -20.8 32.6 -20.8 32.0 M-24.55 31.1 Q-24.55 29.95 -25.55 30.35 -26.55 30.7 -26.55 31.25 -26.55 32.0 -25.55 32.0 L-24.65 31.85 -24.55 31.1 M-25.3 36.0 L-25.3 35.25 -25.4 34.4 Q-25.65 33.95 -26.8 33.5 L-27.85 34.35 -28.3 35.5 -28.0 36.4 -26.8 36.5 Q-25.55 36.5 -25.3 36.0 M-16.9 27.25 Q-16.2 27.25 -16.05 26.65 L-16.05 26.0 Q-16.05 24.05 -17.2 23.75 -18.3 23.5 -18.3 25.65 L-17.9 26.7 Q-17.5 27.25 -16.9 27.25 M-15.8 29.1 Q-15.8 28.15 -16.7 28.05 -17.55 28.0 -17.55 28.8 -17.55 29.35 -16.55 30.0 -15.8 29.35 -15.8 29.1 M-11.8 28.75 Q-10.95 28.75 -10.8 28.05 L-10.8 27.3 Q-10.8 25.05 -12.3 25.55 -13.8 26.1 -13.8 27.25 -13.8 27.75 -13.05 28.25 -12.35 28.75 -11.8 28.75 M-14.8 33.05 Q-14.8 31.4 -16.2 31.25 -17.55 31.1 -17.55 32.55 L-17.3 34.2 Q-16.9 35.25 -16.05 35.25 -15.4 35.25 -15.05 34.2 L-14.8 33.05 M-27.05 39.5 Q-27.05 38.0 -29.2 37.5 -31.3 37.0 -31.3 39.5 -31.3 42.0 -29.55 42.0 -28.1 42.0 -27.4 40.8 L-27.05 39.5 M-26.3 41.8 Q-26.15 42.5 -25.3 42.5 L-24.9 42.45 -24.55 42.5 Q-24.25 42.5 -23.65 41.6 L-22.95 41.25 Q-22.55 40.85 -22.55 39.7 -22.55 37.6 -24.45 37.6 -26.3 37.55 -26.3 40.55 L-26.3 41.8 M38.3 -52.0 Q36.2 -51.55 36.2 -48.95 36.05 -48.3 36.2 -47.95 36.45 -47.25 37.95 -47.25 39.6 -47.25 40.2 -48.7 L40.45 -50.0 Q40.45 -52.45 38.3 -52.0 M32.05 -52.95 Q30.95 -53.05 30.95 -51.15 L31.0 -50.4 31.95 -50.25 Q32.6 -50.25 32.95 -50.95 L33.2 -51.55 Q33.2 -52.9 32.05 -52.95 M24.95 -52.65 L25.15 -51.5 Q25.5 -50.75 26.7 -50.75 27.75 -50.75 27.95 -51.4 L27.95 -52.05 Q27.95 -54.25 26.3 -54.25 25.15 -54.25 24.95 -53.5 L24.95 -52.65 M18.7 -47.0 L19.2 -45.9 19.2 -45.8 19.15 -45.8 18.2 -45.2 18.2 -44.75 18.2 -43.75 18.4 -43.6 18.95 -43.5 19.4 -43.55 19.7 -43.75 19.7 -45.25 20.2 -45.25 Q21.25 -45.25 21.45 -46.4 L21.45 -47.55 Q21.45 -49.7 19.8 -50.4 18.2 -51.1 18.2 -48.65 18.2 -47.95 18.7 -47.0 M16.45 -40.65 Q16.45 -38.75 18.55 -38.75 19.65 -38.75 19.9 -39.6 L19.95 -41.0 Q19.95 -43.25 18.2 -42.5 16.45 -41.75 16.45 -40.65 M17.95 -37.45 Q17.95 -36.25 18.95 -36.25 19.65 -36.25 19.9 -36.9 L19.95 -37.45 Q19.95 -38.7 18.95 -38.7 17.95 -38.7 17.95 -37.45 M24.2 -44.5 L25.2 -45.7 25.95 -46.6 Q25.95 -47.55 24.55 -47.45 23.2 -47.4 23.2 -46.5 23.2 -45.55 23.7 -44.55 L24.2 -44.5 M27.2 -49.4 Q27.15 -50.65 25.85 -50.05 25.7 -50.05 25.7 -49.4 L25.75 -49.0 26.45 -48.75 27.2 -49.4 M30.2 -48.0 L30.4 -47.85 30.95 -47.75 31.4 -47.8 31.7 -48.0 Q31.55 -49.5 30.85 -49.45 30.2 -49.45 30.2 -48.6 L30.2 -48.0 M28.15 -41.1 L28.7 -41.0 Q29.0 -41.0 29.95 -42.8 29.95 -43.65 28.95 -43.4 27.95 -43.15 27.95 -42.15 L27.95 -41.25 28.15 -41.1 M30.3 -38.45 Q30.75 -37.5 31.55 -37.5 32.5 -37.5 32.7 -38.5 L32.7 -39.55 Q32.7 -42.3 31.3 -41.55 29.95 -40.8 29.95 -39.75 29.95 -39.1 30.3 -38.45 M24.7 -40.45 L24.7 -40.95 Q24.7 -42.05 23.8 -42.15 22.95 -42.25 22.95 -41.05 22.95 -40.0 23.8 -40.0 24.5 -40.0 24.7 -40.45 M22.7 -32.3 Q22.7 -30.25 24.2 -30.25 25.15 -30.25 25.65 -31.7 L25.95 -33.0 Q25.95 -34.45 24.3 -34.2 22.7 -33.95 22.7 -32.3 M29.7 -31.35 L30.7 -31.25 Q31.75 -31.25 31.95 -31.75 L32.0 -32.05 32.55 -32.0 Q33.75 -32.0 33.95 -32.45 L33.95 -32.95 Q33.95 -33.8 32.45 -34.45 31.0 -35.05 30.95 -33.45 30.3 -33.2 29.45 -31.8 L29.7 -31.35 M27.45 -35.25 Q28.45 -35.25 28.2 -36.3 28.2 -37.45 27.45 -37.45 26.7 -37.45 26.7 -36.3 26.7 -35.75 26.95 -35.3 L27.45 -35.25 M29.2 -25.55 L29.7 -25.5 Q30.15 -25.5 30.95 -26.25 31.7 -26.95 31.7 -27.2 31.7 -28.45 30.3 -28.2 28.95 -27.9 28.95 -26.8 L29.0 -25.65 29.2 -25.55 M27.55 -28.25 L27.95 -29.15 Q27.95 -30.2 26.55 -29.85 25.2 -29.5 25.2 -28.5 L25.25 -27.75 Q25.4 -27.25 26.05 -27.25 26.95 -27.25 27.55 -28.25 M22.5 -29.25 L21.35 -29.3 Q21.2 -29.3 21.2 -28.65 L21.25 -28.25 21.95 -28.0 22.7 -28.65 22.5 -29.25 M22.95 -26.15 L22.15 -25.65 21.35 -25.15 Q21.2 -24.95 21.2 -23.9 21.2 -23.0 21.45 -22.55 L21.95 -22.5 Q22.75 -22.5 22.7 -23.1 22.7 -23.95 23.35 -24.4 L24.35 -25.3 24.35 -25.4 24.95 -25.9 24.75 -26.5 24.35 -26.7 23.9 -27.25 Q23.35 -27.45 22.95 -26.15 M18.45 -32.0 Q19.75 -32.0 19.45 -33.05 19.45 -34.15 18.3 -34.5 17.2 -34.8 17.2 -33.3 17.2 -32.0 18.45 -32.0 M17.65 -28.85 L18.2 -28.75 18.65 -28.8 18.95 -29.0 Q18.8 -30.5 18.1 -30.45 17.45 -30.45 17.45 -29.6 L17.45 -29.0 17.65 -28.85 M19.0 -25.0 L19.7 -24.75 20.45 -25.4 Q20.4 -26.65 19.1 -26.05 18.95 -26.05 18.95 -25.4 L19.0 -25.0 M17.1 -25.75 Q16.85 -26.2 15.7 -25.5 L15.45 -24.3 15.2 -23.25 15.25 -22.65 16.05 -22.5 Q16.85 -22.5 17.1 -23.55 L17.45 -23.95 17.45 -24.45 17.15 -25.35 17.1 -25.75 M30.95 -43.75 L31.0 -42.9 31.2 -42.8 31.7 -42.75 Q32.35 -42.75 32.45 -43.2 L32.45 -43.7 Q32.45 -44.85 31.7 -44.7 30.95 -44.6 30.95 -43.75 M33.45 -44.9 Q33.45 -43.0 34.8 -43.0 35.6 -43.0 36.2 -43.8 L36.7 -44.9 Q36.7 -47.2 35.05 -47.1 33.45 -47.0 33.45 -44.9 M38.95 -40.65 Q39.55 -40.0 40.7 -40.0 42.15 -40.0 42.7 -41.5 L42.95 -42.9 42.7 -44.15 Q42.05 -44.85 39.5 -44.55 39.25 -44.4 38.85 -43.25 L38.45 -41.9 Q38.45 -41.2 38.95 -40.65 M38.25 -39.65 L35.5 -39.8 Q34.7 -39.0 34.7 -38.0 L34.95 -36.5 Q35.3 -35.25 36.05 -35.25 37.5 -35.25 38.45 -38.9 L38.25 -39.65 M45.45 -46.75 L45.65 -46.6 46.2 -46.5 46.65 -46.55 46.95 -46.75 Q46.85 -48.05 46.15 -48.5 45.45 -48.9 45.45 -47.35 L45.45 -46.75 M43.95 -40.0 Q43.95 -40.85 43.05 -40.7 42.2 -40.6 42.2 -39.75 L42.25 -38.9 42.45 -38.8 42.95 -38.75 Q43.4 -38.75 43.75 -39.45 L43.95 -40.0 M36.75 -34.25 L37.45 -34.0 38.2 -34.65 38.0 -35.25 36.85 -35.3 Q36.7 -35.3 36.7 -34.65 L36.75 -34.25 M36.7 -30.0 Q36.6 -31.3 35.9 -31.75 35.2 -32.15 35.2 -30.6 L35.2 -30.0 35.4 -29.85 35.95 -29.75 36.4 -29.8 36.7 -30.0 M23.45 -21.9 Q23.45 -21.25 24.3 -21.25 L26.45 -22.65 26.35 -23.0 26.55 -23.0 27.25 -23.05 27.35 -23.2 27.45 -23.65 Q27.45 -24.75 25.85 -24.3 25.7 -24.3 25.7 -23.65 L25.7 -23.4 24.95 -23.4 Q23.45 -23.15 23.45 -21.9" fill="#990000" fill-rule="evenodd" stroke="none"/>
    <path d="M18.15 -23.2 L18.0 -22.45 17.65 -21.9 17.45 -21.85 17.0 -22.0 Q16.15 -22.5 17.1 -23.95 L17.75 -23.9 18.15 -23.2 M23.55 -28.3 Q23.45 -28.7 24.15 -29.15 L24.8 -29.05 25.1 -28.75 25.0 -28.05 24.9 -27.4 24.4 -26.8 Q24.25 -26.75 23.75 -27.05 23.05 -27.45 23.35 -28.0 L23.55 -28.3 M23.3 -31.15 L23.25 -30.55 22.3 -30.2 Q21.35 -30.8 22.35 -31.65 L23.05 -31.5 23.3 -31.15 M28.0 -34.4 L28.4 -34.1 28.35 -33.35 Q27.5 -32.95 27.25 -33.1 26.75 -33.4 26.95 -34.15 27.2 -34.85 28.0 -34.4 M39.45 -33.0 Q38.55 -31.5 37.7 -32.0 37.25 -32.25 37.25 -32.6 L37.75 -33.7 Q38.5 -35.0 39.2 -34.6 40.05 -34.1 39.45 -33.0 M41.35 -32.2 L41.6 -32.25 42.05 -32.1 Q42.7 -31.7 42.05 -30.6 L41.4 -29.75 40.85 -29.9 Q40.4 -30.2 40.45 -30.65 40.5 -31.15 41.35 -32.2 M49.65 -23.25 L50.1 -23.1 Q50.75 -22.7 50.3 -21.95 L49.85 -21.4 Q49.85 -21.25 49.3 -21.55 48.35 -22.1 49.45 -23.2 L49.65 -23.25 M45.15 -24.15 Q45.55 -23.65 45.0 -22.7 44.45 -21.7 43.9 -21.8 L43.4 -22.1 Q41.55 -23.15 41.95 -24.55 42.25 -25.9 44.15 -24.8 L45.15 -24.15 M52.95 -21.8 L52.0 -22.0 51.3 -22.65 Q51.25 -23.0 51.9 -24.1 52.9 -25.85 54.0 -25.2 55.5 -24.35 54.6 -22.85 54.0 -21.8 52.95 -21.8 M58.95 -16.85 Q56.7 -18.15 58.3 -19.85 59.85 -21.55 61.85 -20.4 L62.9 -19.3 Q63.35 -18.4 62.75 -17.4 61.9 -15.9 60.35 -16.2 L58.95 -16.85 M56.65 -17.7 Q56.9 -17.3 56.5 -16.65 55.95 -15.7 54.9 -16.0 L54.05 -16.5 Q52.55 -17.35 53.35 -18.35 L55.95 -18.3 56.65 -17.7 M32.7 -29.9 L33.2 -29.7 33.5 -29.35 33.45 -28.7 32.45 -28.4 Q31.4 -29.05 32.45 -29.8 L32.7 -29.9 M27.0 -27.1 L27.5 -26.95 27.9 -26.55 27.8 -25.9 26.8 -25.6 Q25.7 -26.25 26.85 -27.0 L27.0 -27.1 M29.8 -25.9 Q30.9 -25.25 30.2 -24.05 29.7 -23.2 29.2 -23.35 L28.7 -23.65 Q27.65 -24.25 28.1 -25.4 28.65 -26.55 29.8 -25.9 M33.75 -21.6 L35.05 -21.4 Q36.1 -20.8 35.6 -19.95 35.2 -19.2 34.5 -19.45 L34.15 -19.65 34.05 -19.5 Q33.4 -19.7 32.9 -20.2 32.45 -19.55 31.85 -19.4 L30.9 -19.45 30.5 -19.85 Q31.45 -21.5 32.25 -21.8 L33.75 -21.6 M35.8 -25.0 Q34.8 -25.6 35.3 -26.45 35.8 -27.35 36.5 -26.95 L37.15 -26.1 Q37.4 -25.55 37.25 -25.3 37.0 -24.85 36.45 -24.85 L35.8 -25.0 M21.35 -20.65 L21.8 -20.3 21.95 -20.05 21.8 -19.5 Q21.5 -19.05 21.0 -19.05 L20.35 -19.2 19.95 -19.6 Q20.1 -20.3 20.55 -20.65 20.9 -20.9 21.35 -20.65 M26.0 -20.85 Q24.95 -21.5 25.45 -22.35 25.95 -23.2 26.75 -22.7 L27.5 -21.95 27.55 -21.9 27.65 -21.8 27.65 -21.6 27.65 -21.15 27.6 -21.1 27.55 -20.95 Q27.2 -20.35 26.6 -20.55 L26.0 -20.85 M23.25 -14.95 Q22.2 -15.55 23.3 -16.4 L23.45 -16.4 23.95 -16.25 24.35 -15.85 24.25 -15.25 23.25 -14.95 M27.85 -15.5 Q27.1 -15.9 27.2 -16.45 27.35 -17.1 28.7 -17.25 29.0 -17.25 30.15 -17.95 31.05 -18.5 31.5 -18.25 L32.1 -17.5 Q32.2 -17.0 31.85 -16.45 L31.3 -15.9 30.4 -15.75 29.6 -15.35 Q29.0 -14.95 28.55 -15.1 L27.85 -15.5 M37.3 -12.9 Q38.2 -12.4 37.7 -11.55 37.25 -10.8 36.6 -11.0 L36.0 -11.35 Q34.4 -12.25 35.4 -12.85 L37.3 -12.9 M33.55 -13.95 Q32.75 -14.4 33.4 -15.0 34.1 -15.6 34.7 -15.25 L35.25 -14.75 Q35.45 -14.65 35.15 -14.15 34.9 -13.7 34.15 -13.8 L33.55 -13.95 M34.0 -7.4 L33.3 -7.7 Q32.55 -8.1 32.85 -8.65 33.2 -9.25 34.6 -9.5 34.95 -8.85 34.6 -8.2 L34.0 -7.4 M40.45 -14.25 L40.9 -13.85 40.9 -13.15 40.1 -12.8 39.75 -12.95 Q39.25 -13.2 39.5 -13.95 39.7 -14.7 40.45 -14.25 M40.85 -24.5 Q40.4 -23.75 39.85 -23.8 L39.4 -24.05 Q38.3 -24.7 38.85 -26.0 39.45 -27.25 40.6 -26.6 L41.0 -25.75 Q41.15 -25.05 40.85 -24.5 M39.45 -22.05 Q40.1 -21.7 39.65 -20.9 39.0 -19.85 38.2 -19.85 L37.45 -20.0 Q36.75 -20.4 37.25 -21.3 37.6 -21.85 38.5 -22.0 L39.45 -22.05 M42.95 -14.35 Q42.75 -14.9 43.55 -16.0 L45.1 -16.2 46.0 -15.95 Q47.1 -15.3 46.2 -13.8 45.7 -12.95 44.7 -13.25 L43.9 -13.7 42.95 -14.35 M48.1 -20.25 Q49.65 -19.35 48.45 -17.25 48.1 -16.65 47.3 -16.65 L46.55 -16.8 Q45.2 -17.6 46.1 -19.25 46.85 -20.95 48.1 -20.25 M24.9 -3.65 L25.7 -3.7 26.15 -3.3 26.3 -3.05 26.15 -2.6 Q25.85 -2.1 25.35 -2.15 L24.7 -2.3 24.3 -2.6 Q24.45 -3.35 24.9 -3.65 M22.4 -5.05 L21.4 -4.75 Q20.4 -5.35 21.4 -6.2 L21.65 -6.2 22.15 -6.05 22.45 -5.7 22.4 -5.05 M31.45 -5.0 L31.65 -5.1 32.15 -4.9 Q32.8 -4.5 32.35 -3.75 L31.8 -3.2 Q31.8 -3.05 31.3 -3.35 30.35 -3.9 31.45 -5.0 M29.5 -2.55 L29.6 -2.35 29.5 -1.8 Q29.2 -1.3 28.65 -1.2 L28.0 -1.25 Q27.25 -1.7 27.8 -2.5 28.4 -3.3 29.0 -2.95 L29.5 -2.55 M35.45 1.35 Q36.1 1.75 35.6 2.6 L35.0 3.25 34.5 3.1 Q33.55 2.55 34.75 1.25 L34.95 1.15 35.45 1.35 M34.3 -4.7 Q34.75 -5.4 35.7 -4.85 36.65 -4.3 36.3 -3.65 36.05 -3.25 35.3 -3.35 L34.55 -3.5 Q33.75 -3.95 34.3 -4.7 M37.55 -1.35 L38.05 -1.2 38.1 -1.15 38.35 -1.0 39.2 -0.4 39.35 -0.2 39.2 0.35 Q38.75 1.1 37.8 0.65 L37.05 0.2 Q35.65 -0.6 36.5 -1.1 36.95 -1.45 37.55 -1.35 M38.75 -3.85 L39.25 -3.7 39.55 -3.3 39.5 -2.7 38.55 -2.4 Q37.45 -3.0 38.5 -3.8 L38.75 -3.85 M40.6 4.9 Q40.2 5.65 39.65 5.5 L39.25 5.25 Q37.1 4.0 37.75 3.25 38.4 2.5 39.7 3.25 L40.65 3.85 Q41.0 4.25 40.6 4.9 M47.0 2.85 Q46.5 3.4 45.8 3.0 43.85 1.85 44.05 0.95 44.25 0.05 45.75 0.95 L46.6 1.45 47.0 2.85 M40.25 7.55 Q41.3 8.15 40.85 8.95 40.5 9.6 39.85 9.35 L39.2 9.0 Q37.6 8.05 38.25 7.4 38.9 6.8 40.25 7.55 M50.9 -18.5 L51.4 -18.35 51.95 -17.55 Q52.15 -17.05 51.95 -16.7 51.6 -16.1 50.95 -16.2 L50.25 -16.4 Q49.9 -16.6 49.9 -16.85 49.8 -17.35 50.75 -18.4 L50.9 -18.5 M55.35 -7.7 L56.3 -7.05 Q56.75 -6.6 56.45 -6.0 56.1 -5.4 54.9 -5.45 L53.9 -5.65 Q52.9 -6.2 53.25 -7.4 53.65 -8.65 55.35 -7.7 M50.85 -9.4 Q49.9 -9.95 50.35 -10.75 50.8 -11.45 51.45 -11.05 51.8 -10.85 52.35 -9.4 51.4 -9.1 50.85 -9.4 M52.0 -13.1 Q51.0 -13.65 51.85 -14.3 52.65 -15.05 53.1 -14.75 53.75 -14.4 53.25 -13.5 L52.7 -12.8 Q52.55 -12.75 52.0 -13.1 M56.6 -11.3 L55.95 -11.65 Q55.3 -12.0 55.25 -12.2 55.0 -12.6 55.15 -13.85 L56.45 -14.3 57.65 -14.15 Q58.25 -13.8 58.25 -13.45 L57.75 -12.35 Q57.15 -11.25 56.6 -11.3 M44.8 -8.35 Q44.45 -7.75 43.9 -7.95 L43.3 -8.3 Q41.65 -9.25 41.9 -10.4 42.25 -11.5 44.1 -10.4 L44.8 -9.55 Q45.1 -8.9 44.8 -8.35 M45.85 -6.5 Q45.05 -6.95 45.4 -7.8 45.8 -8.6 46.5 -8.2 46.95 -7.9 47.05 -6.7 L45.85 -6.5 M43.55 -3.2 Q43.15 -2.45 42.45 -2.7 L41.8 -3.1 Q39.85 -4.2 41.05 -5.25 42.25 -6.3 43.25 -5.7 43.7 -5.45 43.75 -4.55 43.85 -3.7 43.55 -3.2 M48.75 -3.65 Q47.35 -4.5 47.9 -5.75 48.5 -7.05 49.75 -6.3 L51.0 -5.25 Q51.75 -4.35 51.35 -3.65 51.0 -3.05 49.9 -3.3 L48.75 -3.65 M60.5 -11.05 Q59.2 -11.8 59.85 -13.9 60.45 -16.0 62.6 -14.75 64.75 -13.5 63.9 -11.95 63.15 -10.7 61.8 -10.7 L60.5 -11.05 M62.1 -9.25 Q62.65 -8.8 62.2 -8.05 L61.95 -7.7 61.85 -7.4 Q61.7 -7.15 60.65 -7.05 L59.95 -6.6 Q59.45 -6.45 58.45 -7.05 56.6 -8.1 57.55 -9.75 L61.0 -9.85 62.1 -9.25 M-51.45 -0.2 Q-50.0 -1.8 -47.75 -0.5 L-46.9 0.0 Q-46.35 0.6 -47.1 1.9 -47.95 3.3 -49.55 3.1 L-50.75 2.65 Q-52.85 1.45 -51.45 -0.2 M-49.1 -6.1 L-47.0 -6.15 -46.4 -5.75 -46.7 -4.8 Q-47.05 -4.25 -47.8 -4.3 L-48.5 -4.4 Q-49.65 -5.1 -49.1 -6.1 M-45.3 -12.1 L-44.4 -11.35 Q-43.95 -10.65 -44.55 -9.6 -45.05 -8.7 -45.7 -8.9 L-46.3 -9.2 Q-48.2 -10.3 -47.4 -11.7 -46.8 -12.7 -46.05 -12.55 L-45.3 -12.1 M-37.3 -14.7 L-36.6 -13.7 -36.5 -13.65 -36.45 -13.7 Q-36.0 -13.9 -35.5 -14.2 L-35.1 -13.95 -34.25 -13.45 -34.2 -13.25 -34.35 -12.7 -34.65 -12.35 -35.0 -12.15 -36.3 -12.9 -36.55 -12.5 Q-37.05 -11.6 -38.15 -12.0 L-39.15 -12.55 Q-41.0 -13.65 -40.8 -15.45 -40.6 -17.15 -38.5 -15.9 L-37.3 -14.7 M-30.65 -13.45 Q-29.0 -12.5 -30.05 -10.65 -30.6 -9.7 -31.5 -9.95 L-32.7 -10.6 Q-34.65 -11.7 -33.15 -12.85 -31.6 -14.0 -30.65 -13.45 M-28.65 -10.55 Q-27.6 -9.95 -28.1 -9.05 -28.45 -8.45 -29.15 -8.6 -29.5 -8.65 -29.65 -8.8 -30.7 -9.45 -30.2 -10.3 -29.7 -11.2 -28.65 -10.55 M-37.9 -8.7 L-39.45 -8.4 -40.55 -8.2 Q-41.4 -8.65 -40.6 -9.8 -39.9 -11.0 -39.1 -10.55 -38.3 -10.05 -37.7 -9.1 L-37.9 -8.7 M-43.65 -8.55 Q-44.65 -9.15 -43.5 -10.0 L-42.9 -9.85 -42.55 -9.6 -42.65 -8.85 -43.65 -8.55 M-43.9 -5.25 L-43.9 -4.95 -44.05 -4.45 -44.35 -4.1 Q-44.45 -4.0 -44.65 -3.95 -45.85 -4.8 -45.5 -5.35 -45.2 -5.95 -44.45 -5.55 L-43.9 -5.25 M-36.9 -3.55 L-37.1 -3.05 -39.25 -2.85 Q-40.0 -3.25 -39.3 -4.0 -38.55 -4.75 -37.7 -4.25 L-36.9 -3.8 -36.9 -3.55 M-35.7 -0.35 Q-35.1 0.5 -35.5 1.2 -36.0 2.0 -36.95 1.7 L-37.85 1.2 Q-40.25 -0.2 -38.9 -1.05 -37.55 -1.85 -36.6 -1.3 L-35.7 -0.35 M-34.65 -6.2 L-35.05 -6.45 Q-36.0 -7.0 -35.65 -7.8 -35.3 -8.6 -34.25 -8.0 -33.35 -7.5 -33.8 -6.75 -34.15 -6.15 -34.65 -6.2 M-26.55 -3.85 Q-24.8 -2.8 -25.55 -1.55 -26.0 -0.7 -27.5 -1.0 L-28.8 -1.4 Q-30.05 -2.1 -29.0 -3.45 -28.0 -4.65 -26.55 -3.85 M-29.25 2.7 L-29.65 3.6 Q-30.15 4.5 -30.7 4.45 L-31.0 4.35 -31.2 4.8 Q-31.8 5.85 -32.3 5.8 L-32.75 5.55 Q-33.45 5.1 -33.3 3.5 -33.1 1.95 -31.65 2.7 -31.15 2.25 -29.5 2.2 L-29.25 2.7 M-31.5 -1.2 Q-32.0 -0.35 -32.8 -1.1 -33.8 -1.65 -33.4 -2.3 L-32.05 -2.4 -31.25 -1.7 -31.5 -1.2 M-24.0 5.15 L-24.2 5.6 -25.45 6.3 -26.65 6.45 Q-27.75 5.85 -26.8 4.75 -25.85 3.75 -24.9 4.3 L-23.95 4.95 -24.0 5.15 M-25.45 2.4 L-26.45 2.25 Q-27.35 1.7 -26.35 0.7 -25.4 -0.3 -24.55 0.2 L-23.9 0.65 Q-23.55 1.0 -23.85 1.6 -24.3 2.35 -25.45 2.4 M-23.85 -2.5 Q-24.0 -3.0 -23.25 -3.55 L-22.65 -3.3 -22.3 -3.1 -22.45 -2.35 -23.4 -2.0 -23.85 -2.5 M-21.35 -0.55 L-20.5 -1.0 -19.7 -1.45 -18.55 -0.95 Q-17.75 -0.5 -17.5 -0.05 L-17.7 0.4 Q-18.1 1.05 -18.6 0.75 L-20.05 0.65 -21.3 1.05 -21.4 1.0 -22.15 1.25 -22.55 0.8 -22.5 0.35 -22.8 -0.3 Q-22.65 -0.85 -21.35 -0.55 M-24.15 -7.4 Q-24.8 -6.3 -25.55 -7.05 -26.5 -7.6 -26.3 -8.8 -26.0 -9.9 -24.7 -9.15 -23.55 -8.5 -24.15 -7.4 M-21.05 -6.5 L-21.25 -5.95 -21.5 -5.65 -21.8 -5.45 Q-23.05 -6.35 -22.65 -6.9 -22.3 -7.45 -21.6 -7.05 L-21.05 -6.75 -21.05 -6.5 M-18.4 -3.45 L-18.55 -2.65 -19.45 -2.35 Q-20.55 -3.0 -19.35 -3.85 L-18.7 -3.65 -18.4 -3.45 M-18.1 -5.4 Q-18.35 -5.9 -17.2 -6.55 L-16.0 -6.15 -15.0 -5.8 -14.45 -5.5 -14.75 -4.75 Q-15.15 -4.05 -16.2 -4.3 L-16.7 -4.2 -17.1 -4.45 Q-17.75 -4.8 -17.75 -5.2 L-18.1 -5.4 M-40.6 -2.45 L-39.9 -2.0 -39.9 -1.75 -40.1 -1.3 Q-40.4 -0.7 -40.85 -0.9 L-41.3 -1.15 Q-42.3 -1.7 -41.8 -2.3 -41.3 -2.9 -40.6 -2.45 M-42.85 -0.85 Q-41.2 0.1 -41.9 1.25 -42.3 1.95 -43.3 2.05 L-44.5 1.95 Q-46.5 0.8 -45.55 -0.6 -44.65 -1.9 -42.85 -0.85 M-41.9 6.05 Q-41.65 6.85 -42.25 7.85 -42.95 9.1 -44.55 8.85 L-45.85 8.35 -46.85 7.55 Q-47.1 6.65 -45.6 4.55 L-44.1 4.65 -42.75 4.95 Q-42.15 5.3 -41.9 6.05 M-40.7 5.95 Q-40.85 5.45 -39.45 3.45 L-37.5 3.65 -36.3 4.65 Q-35.45 5.6 -35.8 6.25 -36.55 7.5 -40.15 6.45 L-40.7 5.95 M-50.45 8.65 L-50.4 8.85 -50.6 9.4 -50.85 9.75 -51.2 9.95 Q-52.25 9.2 -52.3 8.35 -52.3 7.55 -50.95 8.35 L-50.45 8.65 M-43.85 10.7 Q-44.6 10.3 -44.0 9.55 -43.5 8.85 -42.75 9.3 L-42.05 9.75 -42.05 10.0 -42.25 10.45 Q-42.5 10.85 -43.25 10.8 L-43.85 10.7 M-35.25 7.35 L-35.4 8.05 -36.35 8.4 -36.8 7.95 Q-36.9 7.4 -36.2 6.9 -36.15 6.75 -35.6 7.1 -35.45 7.2 -35.25 7.35 M-31.6 9.4 Q-32.65 8.65 -32.7 7.85 L-31.35 7.8 -30.85 8.1 -30.8 8.35 -30.95 8.9 -31.25 9.25 -31.6 9.4 M-17.9 1.95 Q-17.35 2.3 -17.8 3.05 L-20.05 4.2 -20.3 3.95 -20.4 4.1 -20.8 4.7 -21.0 4.7 -21.45 4.6 Q-22.4 4.05 -21.2 2.85 -21.15 2.7 -20.6 3.05 L-20.35 3.15 -19.95 2.5 Q-19.0 1.35 -17.9 1.95" fill="#990000" fill-rule="evenodd" stroke="none"/>
  </g>
</svg>
