<?xml version="1.0" encoding="UTF-8" standalone="no"?>
<svg xmlns:ffdec="https://www.free-decompiler.com/flash" xmlns:xlink="http://www.w3.org/1999/xlink" ffdec:objectType="shape" height="100.25px" width="118.5px" xmlns="http://www.w3.org/2000/svg">
  <g transform="matrix(1.0, 0.0, 0.0, 1.0, 52.65, 57.25)">
    <path d="M-38.7 -12.95 L-38.75 -12.75 -38.8 -12.65 -39.1 -12.6 Q-39.45 -12.6 -39.8 -12.95 L-39.8 -13.35 -38.85 -13.35 Q-38.7 -13.35 -38.7 -12.95 M-35.25 -5.15 L-35.25 -5.05 -35.55 -5.0 Q-36.05 -5.0 -36.3 -5.75 L-36.3 -6.0 -35.6 -5.95 Q-35.25 -5.8 -35.25 -5.45 L-35.25 -5.15 M-24.45 -7.35 L-24.35 -7.25 Q-24.6 -6.9 -24.9 -6.9 L-25.65 -7.35 -25.3 -7.8 -24.45 -7.35 M-16.95 -12.2 L-16.8 -12.6 -15.45 -12.15 -15.35 -11.85 Q-15.55 -11.55 -15.85 -11.55 -17.0 -11.55 -16.95 -12.2 M-15.65 -0.45 Q-16.3 -0.45 -16.8 -1.25 L-16.65 -1.65 Q-16.25 -1.65 -15.35 -0.75 L-15.4 -0.55 Q-15.45 -0.45 -15.65 -0.45 M-32.6 1.25 L-32.7 1.4 -33.0 1.5 -33.45 1.35 -33.75 0.9 -33.75 0.5 Q-33.15 0.5 -32.6 0.9 L-32.6 1.25" fill="#990000" fill-rule="evenodd" stroke="none"/>
    <path d="M12.75 -11.95 L12.35 -11.55 12.0 -11.8 Q12.0 -12.15 12.35 -12.35 L12.75 -11.95 M2.35 -2.05 L2.0 -1.0 1.7 -0.95 Q1.15 -1.25 0.35 -2.25 -0.4 -3.25 -0.4 -3.6 -0.4 -4.05 0.7 -4.05 2.35 -4.05 2.35 -2.05 M-12.15 -1.95 Q-12.65 -1.15 -13.8 -1.15 L-14.45 -1.25 -14.45 -2.3 -13.7 -2.55 Q-12.85 -2.55 -12.15 -1.95 M-9.0 5.5 L-9.4 5.9 -10.65 5.9 -10.8 5.35 -9.15 5.2 -9.0 5.5 M-31.85 3.05 L-31.8 3.95 Q-31.8 5.3 -32.7 5.3 L-33.95 3.9 Q-33.95 2.9 -31.85 3.05 M-29.95 0.1 L-29.65 -0.2 -29.25 0.2 -29.4 0.65 -29.75 0.8 -30.15 0.55 -29.95 0.1" fill="#990000" fill-rule="evenodd" stroke="none"/>
    <path d="M-31.25 -51.15 Q-31.25 -52.75 -29.75 -52.9 -28.25 -53.1 -28.25 -51.65 -28.25 -49.25 -29.5 -49.25 -30.7 -49.25 -31.1 -50.0 L-31.25 -51.15 M-21.55 -52.15 L-21.75 -52.05 -22.25 -52.0 Q-23.25 -52.0 -23.0 -53.3 -23.0 -54.6 -22.25 -54.7 -21.5 -54.75 -21.5 -53.4 L-21.55 -52.15 M-16.75 -56.85 Q-15.75 -55.8 -15.75 -54.4 L-15.8 -53.15 -16.0 -53.05 -16.5 -53.0 Q-17.3 -53.0 -17.3 -53.65 L-17.25 -54.55 -17.55 -55.25 -17.75 -56.1 Q-17.75 -57.9 -16.75 -56.85 M-16.25 -51.45 Q-16.25 -52.6 -15.5 -52.45 -14.75 -52.35 -14.75 -51.5 L-14.8 -50.65 -15.0 -50.55 -15.5 -50.5 Q-16.15 -50.5 -16.25 -50.95 L-16.25 -51.45 M-10.95 -50.8 Q-11.75 -50.95 -11.95 -51.6 L-12.0 -52.4 Q-12.0 -54.1 -10.6 -53.95 -9.25 -53.75 -9.25 -52.05 L-9.25 -51.25 Q-9.35 -51.0 -9.6 -50.9 L-9.25 -49.25 -9.25 -49.0 -9.45 -48.65 Q-9.6 -48.5 -10.0 -48.5 -11.35 -48.5 -11.0 -50.3 L-10.95 -50.8 M-19.9 -49.8 Q-19.75 -49.8 -19.75 -49.15 L-19.8 -48.75 -20.5 -48.5 -21.25 -49.15 -21.05 -49.75 -19.9 -49.8 M-8.75 -44.55 L-9.25 -44.5 Q-10.25 -44.5 -10.0 -45.55 L-9.9 -46.35 Q-9.6 -46.85 -8.4 -46.55 -8.25 -46.55 -8.25 -45.9 -8.25 -45.4 -8.75 -44.55 M-6.75 -42.0 L-6.75 -41.0 -6.9 -40.9 -7.25 -39.8 -7.75 -39.75 Q-8.75 -39.75 -8.5 -41.0 -8.85 -41.4 -8.75 -42.15 -8.75 -43.25 -7.75 -43.25 -6.95 -43.25 -6.8 -42.75 L-6.75 -42.0 M-9.25 -37.7 Q-9.25 -38.85 -8.5 -38.7 -7.75 -38.6 -7.75 -37.75 L-7.8 -36.9 -8.0 -36.8 -8.5 -36.75 Q-9.15 -36.75 -9.25 -37.2 L-9.25 -37.7 M-14.5 -45.25 L-14.95 -45.3 -15.25 -45.5 Q-15.15 -46.8 -14.45 -47.25 -13.75 -47.65 -13.75 -46.1 L-13.75 -45.5 -13.95 -45.35 -14.5 -45.25 M-18.5 -45.05 Q-17.5 -45.35 -17.5 -44.25 -17.5 -43.3 -18.0 -42.3 L-18.5 -42.25 Q-19.65 -42.25 -19.5 -43.75 -19.5 -44.7 -18.5 -45.05 M-17.05 -37.65 L-17.85 -37.5 Q-18.5 -37.5 -19.25 -38.9 -19.25 -39.95 -18.1 -39.6 -17.0 -39.25 -17.0 -38.25 L-17.05 -37.65 M-13.5 -40.8 L-14.0 -40.75 Q-14.65 -40.75 -15.0 -42.15 -15.0 -43.05 -14.1 -42.95 -13.25 -42.9 -13.25 -41.8 -13.25 -41.25 -13.5 -40.8 M-10.85 -32.15 Q-10.0 -31.9 -10.0 -31.0 L-10.05 -30.4 -10.85 -30.25 Q-12.05 -30.25 -11.75 -31.2 -11.75 -32.45 -10.85 -32.15 M-13.25 -32.9 Q-13.25 -32.45 -13.5 -32.35 L-14.25 -32.25 Q-14.9 -32.25 -15.25 -32.95 L-15.5 -33.5 Q-15.5 -34.55 -14.35 -34.05 -13.25 -33.55 -13.25 -32.9 M-19.5 -31.75 L-19.7 -31.6 -20.25 -31.5 -20.7 -31.55 -21.0 -31.75 -21.0 -33.5 Q-19.95 -34.2 -19.65 -33.8 -19.5 -33.6 -19.5 -32.75 L-19.5 -31.75 M-19.75 -27.5 L-19.95 -27.35 -20.5 -27.25 Q-21.1 -27.25 -21.6 -27.8 L-22.0 -28.55 Q-22.0 -29.75 -21.0 -29.2 -20.05 -28.7 -19.75 -28.0 L-19.75 -27.5 M-16.5 -28.65 Q-16.5 -29.6 -15.35 -29.4 -14.25 -29.2 -14.25 -28.4 -14.25 -27.75 -15.1 -27.75 -15.8 -27.75 -16.15 -28.05 L-16.5 -28.65 M-8.75 -34.05 L-9.25 -34.0 Q-10.25 -34.0 -10.0 -35.05 -10.0 -36.15 -9.25 -36.15 -8.5 -36.15 -8.5 -35.05 -8.5 -34.5 -8.75 -34.05 M-28.25 -46.35 Q-28.25 -48.65 -26.75 -48.9 -25.25 -49.15 -25.25 -47.15 -25.25 -45.25 -26.6 -45.25 -28.35 -45.25 -28.25 -46.35 M-27.25 -39.9 Q-27.25 -39.25 -27.6 -38.7 -28.0 -38.0 -28.75 -38.0 -29.35 -38.0 -29.75 -39.45 L-30.0 -40.75 Q-30.0 -42.6 -28.6 -41.65 -27.25 -40.7 -27.25 -39.9 M-21.85 -39.75 Q-22.8 -39.75 -23.0 -40.5 L-23.0 -41.3 Q-23.0 -43.15 -21.75 -43.2 -20.5 -43.3 -20.5 -41.8 -20.5 -39.75 -21.85 -39.75 M-32.6 -46.0 Q-30.75 -45.8 -30.75 -44.4 -30.75 -43.8 -31.25 -43.2 -31.8 -42.5 -32.6 -42.5 -33.75 -42.5 -34.25 -43.55 L-34.5 -44.65 Q-34.5 -46.2 -32.6 -46.0 M-35.3 -47.9 L-36.1 -47.75 Q-36.85 -47.75 -37.25 -48.45 L-37.5 -49.0 Q-37.5 -49.9 -36.35 -49.65 -35.25 -49.35 -35.25 -48.5 L-35.3 -47.9 M-32.55 -38.9 L-33.35 -38.75 Q-35.75 -40.1 -35.75 -40.15 -35.75 -41.2 -34.1 -40.85 -32.5 -40.5 -32.5 -39.5 L-32.55 -38.9 M-22.25 -34.9 L-22.35 -33.85 Q-22.55 -33.5 -23.35 -33.5 -25.0 -33.5 -25.0 -34.8 -25.0 -36.75 -23.6 -36.5 -22.25 -36.3 -22.25 -34.9 M-27.25 -35.4 Q-27.25 -34.75 -28.1 -34.75 L-28.8 -34.8 -28.9 -34.95 -29.0 -35.4 Q-29.0 -36.4 -27.4 -36.05 -27.25 -36.05 -27.25 -35.4 M-24.35 -30.25 Q-24.65 -30.0 -25.0 -30.0 -26.5 -30.0 -26.5 -30.9 -26.5 -31.5 -26.0 -31.6 L-24.15 -31.55 Q-24.0 -31.55 -24.0 -30.9 -24.0 -30.55 -24.35 -30.25 M-15.85 -22.75 Q-16.45 -22.75 -16.8 -23.45 L-17.0 -24.05 Q-17.0 -25.3 -16.0 -24.8 -15.0 -24.35 -15.0 -23.4 -15.0 -22.75 -15.85 -22.75 M41.25 4.75 L41.1 5.25 40.5 5.5 39.75 4.8 Q39.75 3.55 41.0 4.1 L41.15 4.25 41.25 4.75 M45.45 8.6 Q45.9 8.4 47.0 8.6 L47.15 8.75 47.25 9.25 Q47.25 10.0 46.1 10.0 L45.1 9.85 45.0 9.3 Q45.0 8.75 45.45 8.6 M48.25 14.1 L48.05 14.65 47.5 15.0 Q45.5 15.0 45.5 14.05 45.5 13.3 46.15 13.2 46.95 13.05 48.25 14.1 M43.25 15.4 L42.8 16.2 41.5 16.5 Q40.3 16.5 40.0 15.8 L40.0 15.25 Q40.0 14.2 41.65 14.05 43.25 13.85 43.25 15.4 M41.25 24.4 Q41.25 25.5 40.5 25.5 39.85 25.5 39.75 25.0 L39.75 24.4 Q39.75 23.2 40.5 23.2 41.25 23.25 41.25 24.4 M40.9 19.4 L40.75 19.6 40.25 19.75 Q39.4 19.75 38.75 19.0 L38.25 18.2 Q38.25 17.15 39.65 17.65 41.0 18.15 41.0 18.8 L40.9 19.4 M45.0 27.8 Q45.0 28.3 44.6 28.75 44.2 29.25 43.75 29.25 42.95 29.25 42.55 28.55 L42.25 27.8 Q42.25 27.25 42.5 27.1 L43.6 27.0 Q45.0 27.0 45.0 27.8 M40.5 33.75 Q39.45 33.75 39.25 33.0 L39.25 32.15 Q39.25 30.75 40.65 30.45 42.0 30.15 42.0 32.0 L41.8 33.25 Q41.45 33.75 40.5 33.75 M46.75 36.8 Q46.75 39.25 44.85 39.25 44.15 39.25 44.0 38.4 L44.0 37.5 Q44.0 35.25 45.4 35.0 46.75 34.75 46.75 36.8 M41.0 42.05 Q40.2 42.75 39.5 42.75 38.85 42.75 38.5 41.7 L38.25 40.55 Q38.25 38.95 40.0 39.05 41.75 39.1 41.75 41.0 L41.0 42.05 M36.15 5.75 L36.25 6.25 Q36.25 7.0 35.25 7.0 L34.35 6.85 Q34.25 6.9 34.25 6.3 34.25 5.25 36.0 5.6 L36.15 5.75 M40.25 11.05 L40.15 11.65 40.0 11.85 39.5 12.0 Q38.95 12.0 38.7 11.5 L38.5 10.9 38.6 10.35 Q39.3 10.1 39.8 10.35 40.25 10.55 40.25 11.05 M28.25 3.1 L28.4 3.25 28.5 3.75 28.35 4.25 27.75 4.5 27.0 3.8 Q27.0 2.55 28.25 3.1 M21.1 8.25 L20.5 8.5 19.75 7.8 Q19.75 6.6 21.0 7.1 L21.15 7.25 21.25 7.75 21.1 8.25 M21.75 12.0 Q21.75 12.5 21.35 13.05 L20.75 13.5 Q20.15 13.5 20.0 13.0 L20.0 12.5 Q20.0 11.8 20.15 11.55 20.45 11.1 21.5 11.35 L21.65 11.5 21.75 12.0 M24.0 12.25 L23.85 12.75 23.25 13.0 22.5 12.3 Q22.5 11.05 23.75 11.6 L23.9 11.75 24.0 12.25 M29.15 9.45 Q30.5 9.55 30.5 10.45 30.5 11.5 29.6 11.5 28.25 11.5 27.85 10.95 L27.75 10.35 Q27.75 9.35 29.15 9.45 M27.5 15.55 L27.4 16.15 Q27.25 16.5 26.6 16.5 L25.85 16.35 Q25.75 16.4 25.75 15.8 25.75 15.0 26.65 14.85 27.5 14.65 27.5 15.55 M24.4 21.5 L24.5 22.0 Q24.5 22.75 23.6 22.75 L22.85 22.6 Q22.75 22.65 22.75 22.05 22.75 20.95 24.25 21.35 L24.4 21.5 M27.1 22.25 L26.35 22.1 26.25 21.35 Q26.25 20.5 26.85 20.5 27.45 20.5 28.0 21.5 27.65 22.25 27.1 22.25 M34.5 13.0 Q34.5 13.75 33.6 13.75 L32.85 13.6 32.75 13.05 Q32.75 11.95 34.25 12.35 L34.4 12.5 34.5 13.0 M32.5 17.8 Q32.5 16.7 34.0 17.1 L34.15 17.25 34.25 17.75 Q34.25 18.5 33.35 18.5 L32.6 18.35 32.5 17.8 M34.0 22.75 Q34.95 22.75 35.2 23.25 L35.25 23.95 Q35.25 25.5 34.0 25.5 33.4 25.5 32.75 24.8 L32.25 24.05 Q32.25 23.5 32.75 23.1 33.3 22.75 34.0 22.75 M37.6 24.25 Q38.25 24.25 38.7 24.75 L39.0 25.5 39.0 25.7 39.0 26.0 38.85 26.5 38.25 26.75 37.5 27.0 Q36.65 27.0 36.5 26.35 L36.5 25.6 36.55 24.6 Q36.7 24.25 37.6 24.25 M15.75 9.1 L15.9 9.25 16.0 9.75 Q16.0 10.5 15.1 10.5 L14.35 10.35 Q14.25 10.4 14.25 9.8 14.25 8.7 15.75 9.1 M19.5 16.85 L19.65 17.0 19.75 17.5 19.6 18.0 19.0 18.25 18.25 17.55 Q18.25 16.35 19.5 16.85 M14.9 24.25 L15.0 24.75 14.85 25.25 14.25 25.5 13.5 24.8 Q13.5 23.55 14.75 24.1 L14.9 24.25 M18.9 25.65 Q18.6 25.85 18.25 26.0 L17.6 25.45 17.5 25.1 Q17.5 24.55 18.25 24.35 19.0 24.2 19.0 25.05 L18.9 25.65 M14.25 33.55 Q14.25 32.3 15.5 32.85 L15.65 33.0 15.75 33.5 15.6 34.0 15.0 34.25 14.25 33.55 M33.0 27.75 L32.35 27.2 32.25 26.85 Q32.25 26.3 33.0 26.1 33.75 25.95 33.75 26.8 L33.65 27.4 33.0 27.75 M30.65 29.0 L30.75 29.5 Q30.75 30.25 29.85 30.25 L29.1 30.1 29.0 29.55 Q29.0 28.45 30.5 28.85 L30.65 29.0 M34.25 31.35 Q34.25 30.8 35.0 30.6 35.75 30.45 35.75 31.3 L35.65 31.9 35.0 32.25 Q34.25 31.6 34.25 31.35 M38.25 36.55 Q38.25 37.5 37.25 37.5 36.25 37.5 36.05 36.8 L36.0 36.05 Q36.0 34.8 37.15 34.7 38.25 34.6 38.25 36.55 M28.0 27.6 L28.15 27.75 28.25 28.25 28.1 28.75 27.5 29.0 26.75 28.3 Q26.75 27.05 28.0 27.6 M22.3 29.25 L21.5 30.25 Q20.5 29.5 20.5 28.6 20.5 27.1 21.65 26.8 22.75 26.55 22.75 28.25 L22.3 29.25 M21.9 35.75 L22.0 36.25 21.85 36.75 21.25 37.0 Q20.5 36.35 20.5 36.3 20.5 35.1 21.75 35.6 L21.9 35.75 M28.0 34.75 Q28.0 35.6 26.25 36.25 25.5 35.6 25.5 34.85 25.5 33.55 26.75 33.5 28.0 33.45 28.0 34.75 M29.75 38.55 Q29.75 38.05 30.05 37.85 L30.75 37.75 Q31.5 37.75 31.7 38.25 L31.75 38.9 Q31.75 40.0 30.85 40.0 30.35 40.0 30.0 39.3 L29.75 38.55 M37.0 41.8 Q37.0 42.35 36.55 42.7 L35.5 43.0 Q34.4 43.0 34.1 42.4 L34.0 41.65 Q34.0 39.95 35.5 40.0 37.0 40.1 37.0 41.8" fill="#990000" fill-rule="evenodd" stroke="none"/>
    <path d="M41.95 -51.15 Q41.95 -52.75 40.45 -52.9 38.95 -53.1 38.95 -51.65 38.95 -49.25 40.2 -49.25 41.4 -49.25 41.8 -50.0 L41.95 -51.15 M32.45 -52.05 L32.95 -52.0 Q33.95 -52.0 33.7 -53.3 33.7 -54.6 32.95 -54.7 32.2 -54.75 32.2 -53.4 L32.25 -52.15 32.45 -52.05 M27.45 -56.85 Q26.45 -55.8 26.45 -54.4 L26.5 -53.15 26.7 -53.05 27.2 -53.0 Q28.0 -53.0 28.0 -53.65 L27.95 -54.55 28.25 -55.25 28.45 -56.1 Q28.45 -57.9 27.45 -56.85 M26.95 -51.45 Q26.95 -52.6 26.2 -52.45 25.45 -52.35 25.45 -51.5 L25.5 -50.65 25.7 -50.55 26.2 -50.5 Q26.85 -50.5 26.95 -50.95 L26.95 -51.45 M22.65 -51.6 L22.7 -52.4 Q22.7 -54.1 21.3 -53.95 19.95 -53.75 19.95 -52.05 L19.95 -51.25 Q20.05 -51.0 20.3 -50.9 L19.95 -49.25 19.95 -49.0 20.15 -48.65 20.7 -48.5 Q22.05 -48.5 21.7 -50.3 L21.65 -50.8 Q22.45 -50.95 22.65 -51.6 M30.6 -49.8 Q30.45 -49.8 30.45 -49.15 L30.5 -48.75 31.2 -48.5 31.95 -49.15 31.75 -49.75 30.6 -49.8 M19.95 -44.5 Q20.95 -44.5 20.7 -45.55 L20.6 -46.35 Q20.3 -46.85 19.1 -46.55 18.95 -46.55 18.95 -45.9 18.95 -45.4 19.45 -44.55 L19.95 -44.5 M17.45 -42.0 L17.45 -41.0 17.6 -40.9 17.95 -39.8 18.45 -39.75 Q19.45 -39.75 19.2 -41.0 19.55 -41.4 19.45 -42.15 19.45 -43.25 18.45 -43.25 17.65 -43.25 17.5 -42.75 L17.45 -42.0 M19.95 -37.7 Q19.95 -38.85 19.2 -38.7 18.45 -38.6 18.45 -37.75 L18.5 -36.9 18.7 -36.8 19.2 -36.75 Q19.85 -36.75 19.95 -37.2 L19.95 -37.7 M25.2 -45.25 L25.65 -45.3 25.95 -45.5 Q25.85 -46.8 25.15 -47.25 24.45 -47.65 24.45 -46.1 L24.45 -45.5 24.65 -45.35 25.2 -45.25 M29.2 -45.05 Q28.2 -45.35 28.2 -44.25 28.2 -43.3 28.7 -42.3 L29.2 -42.25 Q30.35 -42.25 30.2 -43.75 30.2 -44.7 29.2 -45.05 M28.55 -37.5 Q29.2 -37.5 29.95 -38.9 29.95 -39.95 28.8 -39.6 27.7 -39.25 27.7 -38.25 L27.75 -37.65 28.55 -37.5 M24.7 -40.75 Q25.35 -40.75 25.7 -42.15 25.7 -43.05 24.8 -42.95 23.95 -42.9 23.95 -41.8 23.95 -41.25 24.2 -40.8 L24.7 -40.75 M21.55 -32.15 Q20.7 -31.9 20.7 -31.0 L20.75 -30.4 21.55 -30.25 Q22.75 -30.25 22.45 -31.2 22.45 -32.45 21.55 -32.15 M23.95 -32.9 Q23.95 -32.45 24.2 -32.35 L24.95 -32.25 Q25.6 -32.25 25.95 -32.95 L26.2 -33.5 Q26.2 -34.55 25.05 -34.05 23.95 -33.55 23.95 -32.9 M30.2 -31.75 L30.4 -31.6 30.95 -31.5 31.4 -31.55 31.7 -31.75 31.7 -33.5 Q30.65 -34.2 30.35 -33.8 30.2 -33.6 30.2 -32.75 L30.2 -31.75 M26.05 -29.4 Q24.95 -29.2 24.95 -28.4 24.95 -27.75 25.8 -27.75 26.5 -27.75 26.85 -28.05 L27.2 -28.65 Q27.2 -29.6 26.05 -29.4 M30.65 -27.35 L31.2 -27.25 Q31.8 -27.25 32.3 -27.8 L32.7 -28.55 Q32.7 -29.75 31.7 -29.2 30.75 -28.7 30.45 -28.0 L30.45 -27.5 30.65 -27.35 M19.95 -34.0 Q20.95 -34.0 20.7 -35.05 20.7 -36.15 19.95 -36.15 19.2 -36.15 19.2 -35.05 19.2 -34.5 19.45 -34.05 L19.95 -34.0 M37.45 -48.9 Q35.95 -49.15 35.95 -47.15 35.95 -45.25 37.3 -45.25 39.05 -45.25 38.95 -46.35 38.95 -48.65 37.45 -48.9 M40.7 -40.75 Q40.7 -42.6 39.3 -41.65 37.95 -40.7 37.95 -39.9 37.95 -39.25 38.3 -38.7 38.7 -38.0 39.45 -38.0 40.05 -38.0 40.45 -39.45 L40.7 -40.75 M33.7 -40.5 L33.7 -41.3 Q33.7 -43.15 32.45 -43.2 31.2 -43.3 31.2 -41.8 31.2 -39.75 32.55 -39.75 33.5 -39.75 33.7 -40.5 M43.3 -46.0 Q41.45 -45.8 41.45 -44.4 41.45 -43.8 41.95 -43.2 42.5 -42.5 43.3 -42.5 44.45 -42.5 44.95 -43.55 L45.2 -44.65 Q45.2 -46.2 43.3 -46.0 M46.0 -47.9 L46.8 -47.75 Q47.55 -47.75 47.95 -48.45 L48.2 -49.0 Q48.2 -49.9 47.05 -49.65 45.95 -49.35 45.95 -48.5 L46.0 -47.9 M43.25 -38.9 L44.05 -38.75 46.45 -40.15 Q46.45 -41.2 44.8 -40.85 43.2 -40.5 43.2 -39.5 L43.25 -38.9 M32.95 -34.9 L33.05 -33.85 Q33.25 -33.5 34.05 -33.5 35.7 -33.5 35.7 -34.8 35.7 -36.75 34.3 -36.5 32.95 -36.3 32.95 -34.9 M38.8 -34.75 L39.5 -34.8 39.6 -34.95 39.7 -35.4 Q39.7 -36.4 38.1 -36.05 37.95 -36.05 37.95 -35.4 37.95 -34.75 38.8 -34.75 M35.7 -30.0 Q37.2 -30.0 37.2 -30.9 37.2 -31.5 36.7 -31.6 L34.85 -31.55 Q34.7 -31.55 34.7 -30.9 34.7 -30.55 35.05 -30.25 35.35 -30.0 35.7 -30.0 M27.5 -23.45 L27.7 -24.05 Q27.7 -25.3 26.7 -24.8 25.7 -24.35 25.7 -23.4 25.7 -22.75 26.55 -22.75 27.15 -22.75 27.5 -23.45 M-30.55 4.75 L-30.4 5.25 -29.8 5.5 -29.05 4.8 Q-29.05 3.55 -30.3 4.1 L-30.45 4.25 -30.55 4.75 M-34.75 8.6 Q-35.2 8.4 -36.3 8.6 L-36.45 8.75 -36.55 9.25 Q-36.55 10.0 -35.4 10.0 L-34.4 9.85 -34.3 9.3 Q-34.3 8.75 -34.75 8.6 M-37.55 14.1 L-37.35 14.65 Q-37.2 15.0 -36.8 15.0 -34.8 15.0 -34.8 14.05 -34.8 13.3 -35.45 13.2 -36.25 13.05 -37.55 14.1 M-32.55 15.4 L-32.1 16.2 -30.8 16.5 Q-29.6 16.5 -29.3 15.8 L-29.3 15.25 Q-29.3 14.2 -30.95 14.05 -32.55 13.85 -32.55 15.4 M-30.55 24.4 Q-30.55 25.5 -29.8 25.5 -29.15 25.5 -29.05 25.0 L-29.05 24.4 Q-29.05 23.2 -29.8 23.2 -30.55 23.25 -30.55 24.4 M-30.2 19.4 L-30.05 19.6 -29.55 19.75 Q-28.7 19.75 -28.05 19.0 -27.55 18.45 -27.55 18.2 -27.55 17.15 -28.95 17.65 -30.3 18.15 -30.3 18.8 L-30.2 19.4 M-33.9 28.75 L-33.05 29.25 Q-32.25 29.25 -31.85 28.55 L-31.55 27.8 Q-31.55 27.25 -31.8 27.1 L-32.9 27.0 Q-34.3 27.0 -34.3 27.8 -34.3 28.3 -33.9 28.75 M-31.1 33.25 Q-30.75 33.75 -29.8 33.75 -28.75 33.75 -28.55 33.0 L-28.55 32.15 Q-28.55 30.75 -29.95 30.45 -31.3 30.15 -31.3 32.0 L-31.1 33.25 M-36.05 36.8 Q-36.05 39.25 -34.15 39.25 -33.45 39.25 -33.3 38.4 L-33.3 37.5 Q-33.3 35.25 -34.7 35.0 -36.05 34.75 -36.05 36.8 M-30.3 42.05 Q-29.5 42.75 -28.8 42.75 -28.15 42.75 -27.8 41.7 L-27.55 40.55 Q-27.55 38.95 -29.3 39.05 -31.05 39.1 -31.05 41.0 L-30.3 42.05 M-25.45 5.75 L-25.55 6.25 Q-25.55 7.0 -24.55 7.0 L-23.65 6.85 Q-23.55 6.9 -23.55 6.3 -23.55 5.25 -25.3 5.6 L-25.45 5.75 M-28.8 12.0 Q-28.25 12.0 -28.0 11.5 L-27.8 10.9 -27.9 10.35 Q-28.6 10.1 -29.1 10.35 -29.55 10.55 -29.55 11.05 L-29.45 11.65 -29.3 11.85 -28.8 12.0 M-17.55 3.1 L-17.7 3.25 -17.8 3.75 -17.65 4.25 -17.05 4.5 -16.3 3.8 Q-16.3 2.55 -17.55 3.1 M-10.45 7.25 L-10.55 7.75 -10.4 8.25 -9.8 8.5 -9.05 7.8 Q-9.05 6.6 -10.3 7.1 L-10.45 7.25 M-11.05 12.0 Q-11.05 12.5 -10.65 13.05 L-10.05 13.5 Q-9.45 13.5 -9.3 13.0 L-9.3 12.5 Q-9.3 11.8 -9.45 11.55 -9.75 11.1 -10.8 11.35 L-10.95 11.5 -11.05 12.0 M-13.3 12.25 L-13.15 12.75 -12.55 13.0 -11.8 12.3 Q-11.8 11.05 -13.05 11.6 L-13.2 11.75 -13.3 12.25 M-17.15 10.95 L-17.05 10.35 Q-17.05 9.35 -18.45 9.45 -19.8 9.55 -19.8 10.45 -19.8 11.5 -18.9 11.5 -17.55 11.5 -17.15 10.95 M-16.8 15.55 L-16.7 16.15 Q-16.55 16.5 -15.9 16.5 L-15.15 16.35 Q-15.05 16.4 -15.05 15.8 -15.05 15.0 -15.95 14.85 -16.8 14.65 -16.8 15.55 M-13.8 22.0 Q-13.8 22.75 -12.9 22.75 L-12.15 22.6 Q-12.05 22.65 -12.05 22.05 -12.05 20.95 -13.55 21.35 L-13.7 21.5 -13.8 22.0 M-15.65 22.1 L-15.55 21.35 Q-15.55 20.5 -16.15 20.5 -16.75 20.5 -17.3 21.5 -16.95 22.25 -16.4 22.25 L-15.65 22.1 M-22.9 13.75 L-22.15 13.6 -22.05 13.05 Q-22.05 11.95 -23.55 12.35 L-23.7 12.5 -23.8 13.0 Q-23.8 13.75 -22.9 13.75 M-21.8 17.8 Q-21.8 16.7 -23.3 17.1 L-23.45 17.25 -23.55 17.75 Q-23.55 18.5 -22.65 18.5 L-21.9 18.35 -21.8 17.8 M-24.5 23.25 L-24.55 23.95 Q-24.55 25.5 -23.3 25.5 -22.7 25.5 -22.05 24.8 L-21.55 24.05 Q-21.55 23.5 -22.05 23.1 -22.6 22.75 -23.3 22.75 -24.25 22.75 -24.5 23.25 M-26.9 24.25 Q-27.55 24.25 -28.0 24.75 L-28.3 25.5 -28.3 25.7 -28.3 26.0 -28.15 26.5 -27.55 26.75 -26.8 27.0 Q-25.95 27.0 -25.8 26.35 L-25.8 25.6 -25.85 24.6 Q-26.0 24.25 -26.9 24.25 M-5.05 9.1 L-5.2 9.25 -5.3 9.75 Q-5.3 10.5 -4.4 10.5 L-3.65 10.35 Q-3.55 10.4 -3.55 9.8 -3.55 8.7 -5.05 9.1 M-4.2 24.25 L-4.3 24.75 -4.15 25.25 -3.55 25.5 -2.8 24.8 Q-2.8 23.55 -4.05 24.1 L-4.2 24.25 M-8.95 17.0 L-9.05 17.5 -8.9 18.0 -8.3 18.25 -7.55 17.55 Q-7.55 16.35 -8.8 16.85 L-8.95 17.0 M-7.55 26.0 L-6.9 25.45 -6.8 25.1 Q-6.8 24.55 -7.55 24.35 -8.3 24.2 -8.3 25.05 L-8.2 25.65 -7.55 26.0 M-3.55 33.55 Q-3.55 32.3 -4.8 32.85 L-4.95 33.0 -5.05 33.5 -4.9 34.0 -4.3 34.25 -3.55 33.55 M-22.3 27.75 L-21.65 27.2 -21.55 26.85 Q-21.55 26.3 -22.3 26.1 -23.05 25.95 -23.05 26.8 L-22.95 27.4 -22.3 27.75 M-19.95 29.0 L-20.05 29.5 Q-20.05 30.25 -19.15 30.25 L-18.4 30.1 -18.3 29.55 Q-18.3 28.45 -19.8 28.85 L-19.95 29.0 M-23.55 31.35 Q-23.55 30.8 -24.3 30.6 -25.05 30.45 -25.05 31.3 L-24.95 31.9 Q-24.65 32.1 -24.3 32.25 -23.55 31.6 -23.55 31.35 M-25.3 36.05 Q-25.3 34.8 -26.45 34.7 -27.55 34.6 -27.55 36.55 -27.55 37.5 -26.55 37.5 -25.55 37.5 -25.35 36.8 L-25.3 36.05 M-17.3 27.6 L-17.45 27.75 -17.55 28.25 -17.4 28.75 -16.8 29.0 -16.05 28.3 Q-16.05 27.05 -17.3 27.6 M-10.8 30.25 Q-9.8 29.5 -9.8 28.6 -9.8 27.1 -10.95 26.8 -12.05 26.55 -12.05 28.25 L-11.6 29.25 -10.8 30.25 M-11.3 36.25 L-11.15 36.75 -10.55 37.0 -9.8 36.3 Q-9.8 35.1 -11.05 35.6 L-11.2 35.75 -11.3 36.25 M-15.55 36.25 Q-14.8 35.6 -14.8 34.85 -14.8 33.55 -16.05 33.5 -17.3 33.45 -17.3 34.75 -17.3 35.6 -15.55 36.25 M-19.35 37.85 L-20.05 37.75 Q-20.8 37.75 -21.0 38.25 L-21.05 38.9 Q-21.05 40.0 -20.15 40.0 -19.65 40.0 -19.3 39.3 L-19.05 38.55 Q-19.05 38.05 -19.35 37.85 M-26.3 41.8 Q-26.3 42.35 -25.85 42.7 L-24.8 43.0 Q-23.7 43.0 -23.4 42.4 L-23.3 41.65 Q-23.3 39.95 -24.8 40.0 -26.3 40.1 -26.3 41.8" fill="#990000" fill-rule="evenodd" stroke="none"/>
    <path d="M-51.0 2.6 Q-52.4 1.8 -51.75 0.4 -51.2 -1.0 -49.95 -0.25 -47.85 0.95 -48.5 2.05 -49.1 3.1 -49.95 3.05 L-51.0 2.6 M-47.05 -6.05 L-47.25 -5.65 Q-47.75 -4.75 -48.75 -5.65 -49.9 -6.3 -49.55 -7.0 -49.25 -7.65 -48.1 -7.0 L-47.0 -6.3 -47.05 -6.05 M-48.7 -12.8 Q-47.25 -13.15 -46.05 -12.45 L-45.05 -11.75 -45.05 -11.55 -45.25 -11.1 Q-45.65 -10.4 -46.2 -10.7 L-46.95 -11.2 -47.7 -11.3 -48.55 -11.6 Q-50.1 -12.5 -48.7 -12.8 M-43.75 -10.55 Q-44.75 -11.15 -44.25 -11.7 -43.8 -12.3 -43.05 -11.9 L-42.35 -11.4 -42.4 -11.15 -42.6 -10.75 Q-42.9 -10.15 -43.3 -10.3 -43.55 -10.35 -43.75 -10.55 M-41.75 -14.35 Q-42.2 -14.4 -42.5 -14.7 -43.95 -15.55 -43.1 -16.65 -42.25 -17.75 -40.8 -16.9 L-40.1 -16.5 Q-39.9 -16.3 -40.0 -16.05 L-38.35 -15.5 -38.15 -15.4 -37.95 -15.0 -38.1 -14.5 Q-38.75 -13.3 -40.15 -14.5 L-40.55 -14.8 Q-41.05 -14.15 -41.75 -14.35 M-44.2 -6.55 L-43.5 -6.35 -43.2 -6.1 -43.35 -5.4 -44.25 -5.05 -44.7 -5.5 Q-44.9 -6.05 -44.2 -6.55 M-34.25 -13.15 Q-34.75 -12.25 -35.55 -13.0 L-36.2 -13.5 Q-36.45 -14.0 -35.6 -14.9 L-34.95 -14.7 -34.05 -13.55 -34.25 -13.15 M-30.8 -14.05 L-29.95 -13.55 -29.95 -13.35 -29.15 -12.5 -29.35 -12.05 Q-29.85 -11.15 -30.85 -12.05 -31.35 -11.95 -31.95 -12.35 -32.9 -12.9 -32.4 -13.8 -32.0 -14.5 -31.5 -14.35 L-30.8 -14.05 M-28.35 -9.75 Q-29.35 -10.3 -28.85 -10.9 -28.4 -11.5 -27.65 -11.05 L-26.95 -10.6 -26.95 -10.35 -27.2 -9.9 Q-27.5 -9.35 -27.9 -9.5 L-28.35 -9.75 M-37.55 -8.95 L-37.8 -8.6 -38.1 -8.45 Q-39.2 -9.2 -39.2 -10.0 L-37.85 -10.05 -37.35 -9.75 -37.3 -9.45 -37.55 -8.95 M-39.35 -5.4 Q-39.1 -6.4 -38.15 -5.85 -37.35 -5.4 -36.75 -4.45 L-36.95 -4.0 Q-37.5 -3.0 -38.75 -3.85 -39.55 -4.35 -39.35 -5.4 M-32.5 -2.2 Q-32.85 -1.65 -34.4 -1.7 -35.3 -2.2 -34.45 -3.0 -33.6 -3.8 -32.75 -3.3 L-32.2 -2.95 -32.5 -2.2 M-33.4 -7.15 Q-33.7 -6.55 -35.1 -6.95 -35.9 -7.4 -35.35 -8.15 -34.85 -8.9 -33.9 -8.35 L-33.2 -7.6 -33.4 -7.15 M-24.35 -5.55 Q-23.75 -6.2 -22.95 -5.75 L-22.45 -5.4 -22.7 -4.6 Q-23.3 -3.55 -23.95 -4.3 -25.05 -4.9 -24.35 -5.55 M-26.2 -3.9 Q-25.8 -3.65 -25.85 -3.35 L-26.15 -2.65 Q-26.5 -2.1 -27.25 -2.15 L-27.85 -2.25 Q-28.75 -2.75 -27.75 -3.45 -26.75 -4.2 -26.2 -3.9 M-28.35 2.15 L-28.3 2.35 -28.5 2.9 -28.75 3.3 Q-28.85 3.3 -29.1 3.45 L-30.6 2.55 Q-30.65 1.3 -30.15 1.2 -29.95 1.2 -29.2 1.65 L-28.35 2.15 M-24.2 -0.3 Q-23.5 -1.15 -22.8 -0.75 -22.25 -0.4 -22.7 0.35 L-23.45 1.1 -24.15 1.1 Q-25.0 0.6 -24.2 -0.3 M-24.75 4.75 L-24.95 5.25 Q-25.25 5.75 -26.0 5.9 L-26.85 5.9 Q-27.85 5.3 -26.9 4.7 -25.95 4.1 -25.2 4.2 L-24.75 4.45 -24.75 4.75 M-25.15 -7.9 Q-25.65 -7.0 -26.45 -7.75 -27.4 -8.3 -27.0 -8.95 L-25.7 -9.05 -24.95 -8.3 -25.15 -7.9 M-46.8 -0.2 Q-46.25 -1.6 -44.55 -0.6 -42.9 0.35 -43.6 1.55 -44.45 3.05 -45.35 2.4 -47.35 1.25 -46.8 -0.2 M-41.4 6.75 Q-43.0 5.8 -41.45 5.05 -39.95 4.35 -39.25 4.75 L-38.4 5.65 Q-38.0 6.35 -38.35 7.0 L-40.1 7.15 -41.4 6.75 M-37.65 0.75 Q-38.05 0.65 -38.35 0.35 -39.95 -0.55 -39.35 -1.65 -38.85 -2.8 -37.55 -2.05 -35.75 -1.0 -36.4 0.15 -36.9 1.0 -37.65 0.75 M-47.25 6.35 Q-46.1 4.85 -44.9 5.55 L-44.1 6.55 Q-43.8 7.4 -44.2 8.1 -44.75 9.1 -45.9 9.0 L-47.0 8.7 Q-48.35 7.9 -47.25 6.35 M-50.25 7.7 L-50.5 8.5 Q-50.85 9.15 -51.65 9.15 L-52.3 9.1 Q-53.05 8.65 -52.25 7.8 -51.45 7.0 -50.7 7.4 L-50.25 7.7 M-41.05 9.85 L-41.3 10.65 -43.7 12.0 Q-44.65 11.45 -43.55 10.25 -42.4 9.0 -41.55 9.5 L-41.05 9.85 M-32.4 2.9 L-31.55 3.55 Q-31.35 3.9 -31.75 4.55 -32.6 6.0 -33.75 5.35 -35.45 4.4 -34.5 3.3 -33.65 2.2 -32.4 2.9 M-35.25 8.1 L-35.65 8.65 -35.8 8.7 -36.25 8.5 Q-37.1 8.0 -36.0 6.85 L-35.35 7.0 Q-34.8 7.35 -35.25 8.1 M-29.6 7.75 Q-30.35 9.05 -31.1 8.6 -31.65 8.3 -31.45 7.8 L-30.45 6.25 -29.85 6.45 -29.45 7.1 -29.6 7.75 M-19.8 3.95 L-20.45 3.8 Q-21.5 3.15 -20.6 2.55 L-18.85 2.4 Q-18.3 2.75 -18.7 3.5 -19.0 4.0 -19.8 3.95 M33.65 -32.2 L34.0 -31.85 33.9 -31.2 32.95 -30.9 Q31.85 -31.5 32.95 -32.35 L33.2 -32.4 33.65 -32.2 M39.1 -33.95 Q39.1 -34.45 39.85 -35.3 L40.1 -35.35 40.55 -35.15 Q41.2 -34.8 40.6 -33.8 L40.0 -33.0 39.45 -33.2 Q39.0 -33.45 39.1 -33.95 M45.25 -33.65 L45.65 -33.15 Q45.85 -32.9 45.65 -32.55 44.65 -30.8 43.8 -31.25 43.15 -31.65 43.45 -32.25 43.7 -33.0 45.25 -33.65 M43.9 -28.65 Q44.3 -28.4 44.35 -27.85 44.35 -27.3 43.95 -26.6 43.35 -25.55 42.6 -25.65 L42.1 -25.9 Q41.2 -26.45 41.9 -27.9 42.55 -29.4 43.9 -28.65 M50.7 -22.4 Q51.65 -21.85 51.25 -21.2 50.95 -20.65 50.45 -20.8 L49.95 -21.1 Q48.9 -21.7 49.25 -22.35 L50.7 -22.4 M46.15 -24.6 L46.25 -24.4 46.15 -23.85 Q45.7 -23.1 44.75 -22.95 44.05 -22.8 43.8 -22.95 42.9 -23.45 44.05 -24.4 45.1 -25.3 45.7 -25.0 L46.15 -24.6 M56.1 -23.1 L56.15 -22.15 Q55.75 -21.45 54.95 -21.45 L54.15 -21.6 Q53.65 -21.85 53.6 -22.15 L54.1 -23.15 Q54.8 -24.35 55.5 -23.95 L56.1 -23.1 M58.6 -18.45 Q58.9 -17.9 58.4 -17.05 57.9 -16.15 57.15 -16.4 L56.4 -16.8 Q55.2 -17.5 55.6 -18.85 56.0 -20.15 57.6 -19.25 L58.6 -18.45 M64.15 -21.0 Q66.3 -19.75 65.35 -18.1 65.0 -17.5 64.15 -17.8 L63.4 -18.25 Q61.45 -19.35 61.9 -20.7 62.4 -22.0 64.15 -21.0 M65.8 -13.35 Q66.0 -12.3 65.65 -11.7 65.35 -11.15 64.25 -11.4 L63.15 -11.75 Q61.8 -12.55 62.7 -14.0 63.65 -15.5 65.3 -14.55 65.6 -14.35 65.8 -13.35 M32.0 -27.3 L32.45 -27.15 Q33.1 -26.8 32.6 -25.95 L32.05 -25.2 31.5 -25.4 Q30.6 -25.9 31.75 -27.3 L32.0 -27.3 M39.05 -27.1 Q38.8 -26.65 38.2 -26.65 L37.6 -26.8 37.15 -27.15 Q37.3 -27.9 37.75 -28.15 L38.6 -28.2 39.1 -27.8 39.15 -27.6 39.05 -27.1 M25.75 -21.8 L25.9 -21.85 26.4 -21.7 26.8 -21.3 26.7 -20.7 25.7 -20.4 Q24.6 -21.0 25.75 -21.8 M25.8 -13.55 L26.25 -13.4 26.6 -13.0 26.5 -12.4 25.55 -12.1 Q24.5 -12.7 25.55 -13.55 L25.8 -13.55 M30.2 -11.75 L30.9 -10.85 31.0 -10.1 Q30.7 -9.6 30.15 -9.7 L29.75 -9.95 29.0 -10.55 Q28.75 -11.05 29.5 -11.8 L29.7 -11.9 30.2 -11.75 M31.5 -13.55 L31.9 -13.15 31.8 -12.55 30.8 -12.25 Q29.7 -12.85 30.85 -13.65 L31.05 -13.7 31.5 -13.55 M32.35 -17.5 L31.75 -17.75 Q30.9 -18.25 31.7 -19.4 32.4 -20.5 33.2 -20.05 34.1 -19.55 33.65 -18.8 33.0 -17.6 32.35 -17.5 M36.1 -14.9 L36.6 -14.55 Q36.85 -14.25 36.5 -13.7 L36.0 -13.1 Q36.0 -13.0 35.5 -13.3 34.8 -13.7 35.1 -14.55 35.35 -15.35 36.1 -14.9 M40.2 -9.1 Q40.85 -8.7 40.4 -7.95 L39.9 -7.4 39.4 -7.55 Q38.45 -8.1 39.55 -9.2 L39.7 -9.3 40.2 -9.1 M41.25 -10.65 L40.55 -10.95 Q39.8 -11.4 40.1 -11.9 40.4 -12.4 41.5 -12.4 42.0 -11.7 41.7 -11.2 L41.25 -10.65 M37.6 -21.1 L37.15 -20.55 Q37.1 -20.4 36.6 -20.7 35.65 -21.25 36.75 -22.35 L36.95 -22.45 37.4 -22.3 Q38.05 -21.9 37.6 -21.1 M40.55 -18.15 Q39.6 -18.7 40.7 -19.8 L40.95 -19.8 41.4 -19.65 Q42.05 -19.3 41.6 -18.55 L41.1 -17.95 40.55 -18.15 M46.65 -17.75 L47.3 -17.45 Q48.65 -16.7 48.0 -15.6 47.7 -15.1 46.8 -14.85 L45.9 -14.8 Q45.4 -15.1 45.3 -15.7 45.25 -16.35 45.6 -16.95 46.1 -17.75 46.65 -17.75 M48.7 -19.3 Q49.05 -19.9 49.7 -20.0 L50.5 -19.95 50.65 -19.85 50.9 -19.7 51.3 -19.3 51.2 -18.65 51.05 -17.9 Q50.65 -17.15 49.95 -17.3 49.35 -17.65 49.3 -17.7 L48.5 -18.25 Q48.25 -18.55 48.7 -19.3 M24.7 -8.0 L24.85 -8.0 25.35 -7.85 Q26.0 -7.5 25.55 -6.75 L25.05 -6.15 24.55 -6.35 Q23.6 -6.9 24.7 -8.0 M37.35 0.35 L37.85 0.5 38.2 0.9 38.15 1.5 37.15 1.8 Q36.05 1.2 37.15 0.4 L37.35 0.35 M33.45 -7.4 L33.95 -7.25 34.3 -6.85 34.2 -6.2 33.25 -5.9 Q32.2 -6.5 33.25 -7.35 L33.45 -7.4 M40.55 -1.7 L39.75 -1.4 39.4 -1.5 Q38.9 -1.75 39.15 -2.5 39.35 -3.25 40.1 -2.8 L40.55 -2.4 40.55 -1.7 M45.1 5.55 Q44.0 4.9 45.1 4.15 L45.35 4.05 45.8 4.2 46.15 4.6 46.05 5.25 45.1 5.55 M49.45 -13.6 L48.65 -13.3 48.3 -13.4 Q47.85 -13.7 48.0 -14.45 48.25 -15.15 49.0 -14.75 L49.5 -14.35 49.45 -13.6 M49.35 -10.95 L49.85 -10.8 Q50.5 -10.4 50.05 -9.6 L49.5 -9.05 Q49.5 -8.9 49.0 -9.2 48.05 -9.75 49.15 -10.85 L49.35 -10.95 M53.2 -12.85 Q52.7 -13.15 52.9 -13.9 53.15 -14.6 53.9 -14.2 L54.4 -13.8 54.35 -13.05 53.2 -12.85 M58.1 -12.05 Q57.05 -12.7 57.55 -13.7 L59.7 -13.75 Q60.55 -13.3 60.05 -12.4 59.55 -11.55 58.8 -11.7 L58.1 -12.05 M46.8 -9.35 L47.05 -9.4 47.5 -9.2 47.85 -8.85 47.75 -8.2 46.8 -7.9 Q45.75 -8.5 46.8 -9.35 M45.85 -2.35 Q44.7 -1.9 43.9 -2.35 42.6 -3.1 42.95 -4.25 43.3 -5.3 44.75 -4.45 L45.4 -3.55 45.85 -2.35 M51.3 0.2 L51.7 0.6 51.6 1.2 50.6 1.5 Q49.55 0.9 50.65 0.05 L50.8 0.05 51.3 0.2 M53.45 -3.5 L51.85 -3.55 Q50.7 -4.2 51.3 -5.3 51.85 -6.4 53.0 -5.75 53.75 -5.35 53.45 -3.5 M56.75 -5.95 L57.0 -6.65 Q57.35 -7.3 57.9 -7.2 L58.5 -6.95 Q59.45 -6.4 59.0 -5.6 58.75 -5.2 57.95 -5.25 L57.2 -5.35 Q56.75 -5.6 56.75 -5.95 M63.6 -10.05 L64.2 -9.2 63.9 -8.15 Q63.35 -7.2 62.65 -7.25 62.45 -7.25 61.95 -7.5 60.5 -8.35 61.3 -9.65 62.15 -10.9 63.6 -10.05" fill="#990000" fill-rule="evenodd" stroke="none"/>
  </g>
</svg>
