<?xml version="1.0" encoding="UTF-8" standalone="no"?>
<svg xmlns:ffdec="https://www.free-decompiler.com/flash" xmlns:xlink="http://www.w3.org/1999/xlink" ffdec:objectType="shape" height="18.35px" width="12.3px" xmlns="http://www.w3.org/2000/svg">
  <g transform="matrix(1.0, 0.0, 0.0, 1.0, 6.4, 11.3)">
    <path d="M5.9 -8.65 Q5.9 -7.8 4.55 -5.0 3.2 -2.15 3.2 -1.5 3.2 -0.65 3.65 -0.45 4.55 -0.1 5.0 0.4 4.85 0.8 4.45 0.8 L0.6 0.3 Q1.0 1.35 2.55 4.0 L4.0 6.55 3.95 6.9 3.85 6.95 3.6 7.05 Q2.95 7.05 1.25 4.65 L-1.0 1.3 -3.6 3.15 -6.05 4.9 -6.3 4.85 -6.4 4.5 -4.05 2.75 Q-1.75 0.95 -1.75 0.3 -1.75 -0.25 -2.8 -0.7 -4.85 -1.6 -6.2 -2.45 L-6.25 -2.85 -5.7 -2.95 Q-4.85 -2.95 -2.75 -1.75 L-0.4 -0.45 Q-1.4 -2.4 -2.1 -5.15 L-3.4 -10.05 -3.4 -11.3 Q-2.65 -10.6 -1.25 -7.3 0.1 -4.1 1.65 -2.7 L3.4 -6.1 Q4.5 -8.45 5.35 -9.45 5.9 -9.1 5.9 -8.65 M2.9 -3.55 L2.9 -3.45 3.95 -5.45 3.85 -5.45 Q3.45 -5.1 2.9 -3.55 M0.35 1.7 L-0.25 0.8 Q-0.75 0.25 -1.0 0.2 L-0.3 1.05 0.3 1.7 0.35 1.7 M0.7 2.35 Q1.0 3.05 1.25 3.2 L0.7 2.3 0.7 2.35" fill="#ffe991" fill-rule="evenodd" stroke="none"/>
    <path d="M3.0 -2.8 L3.5 -2.8 Q5.25 -2.7 5.25 -1.1 L5.25 -0.15 Q5.0 0.45 4.05 0.5 L3.4 0.75 3.3 1.2 3.2 1.25 3.0 1.7 2.4 2.05 2.3 2.2 Q1.9 2.75 0.85 2.75 -0.25 2.75 -1.0 0.95 L-1.15 0.5 -1.6 0.5 Q-2.45 0.5 -2.95 -0.3 L-3.25 -1.3 Q-3.25 -2.9 -1.5 -2.8 L-1.0 -2.7 Q-0.9 -4.9 1.0 -4.75 3.0 -4.6 3.0 -3.05 L3.0 -2.8" fill="#ffcc00" fill-rule="evenodd" stroke="none"/>
  </g>
</svg>
