<?xml version="1.0" encoding="UTF-8" standalone="no"?>
<svg xmlns:ffdec="https://www.free-decompiler.com/flash" xmlns:xlink="http://www.w3.org/1999/xlink" ffdec:objectType="shape" height="123.1px" width="91.5px" xmlns="http://www.w3.org/2000/svg">
  <g transform="matrix(1.0, 0.0, 0.0, 1.0, 42.5, 104.1)">
    <path d="M46.75 -60.95 L47.0 -60.75 46.8 -61.0 46.75 -60.95 M48.95 -63.0 L49.0 -61.5 Q49.0 -59.5 44.8 -42.9 L38.55 -19.7 Q36.4 -12.5 33.0 1.3 30.0 13.2 19.75 17.0 14.25 19.0 2.0 19.0 -9.0 19.0 -15.7 15.4 -23.6 11.15 -25.0 2.05 L-25.4 -0.25 Q-25.8 -1.85 -26.5 -2.5 -27.6 -3.5 -27.75 -4.75 L-28.0 -6.95 -29.8 -11.65 -31.5 -16.25 Q-42.5 -51.8 -42.5 -53.85 L-42.45 -54.75 -42.2 -54.85 -41.25 -55.0 Q-41.0 -55.0 -37.4 -49.45 L-32.2 -41.25 -24.2 -28.0 -24.0 -32.65 Q-24.0 -39.0 -24.5 -50.85 -25.0 -62.95 -25.5 -67.25 L-25.5 -87.95 -24.5 -88.5 -15.9 -63.4 Q-11.0 -48.6 -8.7 -38.2 L-8.75 -70.7 Q-8.75 -90.6 -6.95 -103.75 -5.2 -104.85 -4.65 -102.45 L-3.95 -98.2 -2.6 -94.2 -1.5 -90.25 Q0.35 -84.2 2.3 -74.5 L5.65 -58.85 Q7.65 -49.55 8.5 -43.0 L8.75 -42.95 Q13.2 -51.45 16.95 -67.45 20.8 -83.9 24.5 -91.5 25.6 -89.5 25.65 -86.1 L25.75 -80.45 Q26.05 -78.35 26.05 -74.25 L26.0 -69.6 Q26.0 -59.75 25.55 -54.1 25.1 -48.55 23.3 -36.5 30.1 -41.05 36.65 -50.4 44.05 -61.05 48.0 -64.5 48.75 -63.9 48.95 -63.0" fill="#ffff99" fill-rule="evenodd" stroke="none"/>
  </g>
</svg>
