<?xml version="1.0" encoding="UTF-8" standalone="no"?>
<svg xmlns:ffdec="https://www.free-decompiler.com/flash" xmlns:xlink="http://www.w3.org/1999/xlink" ffdec:objectType="shape" height="211.05px" width="249.9px" xmlns="http://www.w3.org/2000/svg">
  <g transform="matrix(1.0, 0.0, 0.0, 1.0, 124.95, 105.5)">
    <path d="M49.3 -75.9 Q54.35 -86.05 59.95 -91.45 60.75 -90.85 60.9 -89.95 L60.95 -88.45 Q60.95 -78.1 43.95 -18.15 L43.95 -17.95 Q53.9 -33.75 65.6 -47.45 67.95 -50.2 77.6 -64.1 85.85 -75.95 86.7 -75.95 L87.85 -75.7 87.95 -72.95 Q87.95 -65.65 74.6 -37.9 69.05 -27.25 67.45 -20.65 L65.55 -12.0 65.45 -11.6 65.7 -11.7 Q68.2 -12.6 70.75 -14.3 L74.95 -17.4 Q80.95 -21.6 92.2 -28.2 L102.25 -33.65 Q108.5 -37.0 111.6 -39.45 L118.7 -45.15 Q119.7 -45.9 121.3 -48.05 122.9 -49.6 124.85 -48.7 L124.95 -47.6 Q124.95 -46.35 115.55 -32.15 106.6 -18.5 101.95 -12.4 L90.0 5.45 Q82.75 16.05 74.45 22.85 L74.1 23.3 95.3 14.15 Q110.2 7.55 113.45 7.55 L115.85 7.8 115.95 9.4 Q115.95 14.2 96.95 29.85 85.5 39.25 74.1 49.8 L79.85 49.95 79.7 50.3 84.95 49.15 Q90.75 47.8 94.1 48.05 L94.3 48.2 94.45 49.05 Q94.45 50.35 92.95 51.55 91.75 52.5 90.1 52.85 86.3 55.25 72.3 61.95 50.55 72.3 44.45 76.85 41.1 79.35 36.15 84.05 30.95 89.05 28.3 91.1 17.95 99.25 9.6 102.6 2.35 105.55 -5.2 105.55 -27.3 105.55 -37.25 102.2 -40.8 101.0 -43.3 99.2 L-46.65 96.3 Q-49.2 94.1 -52.2 90.15 -55.4 85.75 -56.95 83.85 L-56.95 79.6 Q-68.05 71.35 -70.7 69.8 -78.0 65.5 -84.7 61.4 -97.95 53.2 -97.95 52.2 L-97.95 51.5 -97.9 51.55 Q-97.4 51.05 -95.45 51.05 -94.1 51.05 -87.4 52.6 L-79.65 54.3 Q-81.2 52.0 -85.9 47.8 L-93.2 41.1 -98.45 34.6 Q-101.8 30.05 -103.9 28.05 L-109.8 21.75 -115.45 14.85 -124.95 2.2 -124.95 1.5 -124.9 1.55 -124.8 1.2 -123.95 1.05 Q-123.7 1.05 -111.5 8.5 -98.4 16.55 -93.9 19.85 -81.25 29.05 -66.9 38.05 L-79.85 20.35 Q-87.15 10.1 -91.65 2.8 L-103.8 -14.45 Q-111.45 -25.15 -113.95 -32.15 L-113.75 -32.65 -112.7 -32.95 Q-111.8 -32.95 -101.25 -23.55 L-87.15 -10.95 Q-82.1 -6.75 -76.6 -0.3 -72.85 4.1 -67.9 10.8 L-67.7 10.8 -77.2 -9.7 Q-83.0 -22.1 -87.15 -30.45 -89.75 -35.75 -96.3 -51.7 -103.45 -69.1 -103.45 -71.2 L-103.3 -72.15 -102.95 -72.4 Q-99.65 -69.05 -91.9 -57.65 L-88.1 -53.85 Q-85.8 -51.45 -85.2 -49.7 -84.75 -48.3 -82.85 -45.7 L-80.15 -41.9 Q-75.8 -34.8 -69.65 -26.25 L-58.8 -11.55 Q-60.2 -15.2 -62.25 -25.1 L-67.2 -50.2 Q-68.75 -57.6 -71.8 -70.45 L-76.45 -90.7 -76.45 -92.95 -76.4 -93.2 -75.45 -93.45 Q-74.85 -93.45 -68.3 -79.5 L-58.15 -57.95 Q-55.25 -52.1 -48.3 -40.3 -40.9 -27.7 -38.15 -22.45 -37.45 -49.2 -37.45 -103.95 L-37.4 -104.2 -36.45 -104.45 Q-34.9 -104.45 -32.0 -96.5 -30.55 -92.6 -28.15 -84.7 L-22.15 -64.9 -14.55 -43.2 Q-9.65 -29.45 -8.7 -25.15 L-8.65 -24.95 Q-7.25 -33.45 -4.5 -44.7 L0.8 -64.95 3.45 -74.75 Q4.95 -80.65 5.55 -84.9 6.0 -88.55 7.55 -94.95 L7.95 -99.9 Q8.25 -103.2 9.85 -104.7 12.05 -106.85 12.95 -103.25 13.35 -101.65 13.55 -97.7 14.05 -94.4 14.55 -87.65 L16.05 -67.4 17.0 -47.5 Q17.5 -35.75 17.6 -27.2 L17.85 -26.95 28.25 -43.15 Q34.1 -52.0 39.85 -59.4 43.35 -63.95 49.3 -75.9 M-119.45 6.1 L-119.35 6.2 -119.2 6.1 -119.45 6.1 M-110.2 -28.45 L-110.15 -28.45 -110.4 -28.7 -110.2 -28.45 M86.95 52.65 L87.0 52.65 86.85 52.45 86.95 52.65 M113.5 9.75 L113.6 10.05 113.95 9.6 113.5 9.75 M120.85 -43.7 L120.95 -44.15 120.75 -43.9 120.85 -43.7" fill="#ffff99" fill-rule="evenodd" stroke="none"/>
  </g>
</svg>
