<?xml version="1.0" encoding="UTF-8" standalone="no"?>
<svg xmlns:ffdec="https://www.free-decompiler.com/flash" xmlns:xlink="http://www.w3.org/1999/xlink" ffdec:objectType="shape" height="4.75px" width="7.25px" xmlns="http://www.w3.org/2000/svg">
  <g transform="matrix(1.0, 0.0, 0.0, 1.0, 16.1, -1.45)">
    <path d="M-9.05 2.15 L-10.15 2.8 -10.25 2.85 -11.9 3.3 -12.3 3.3 -12.35 3.3 -12.85 3.15 -13.35 3.0 -14.25 3.05 -14.45 3.95 -14.65 4.9 Q-15.05 6.05 -16.05 6.15 L-16.1 5.9 -15.9 5.6 -15.9 5.55 -15.75 5.4 -15.15 4.65 -15.15 3.5 -14.95 2.85 -14.9 2.85 -14.9 2.8 -14.6 2.5 -14.3 2.3 -13.0 1.85 Q-12.45 1.85 -12.65 2.25 L-12.6 2.25 -12.65 2.25 -12.5 2.25 -12.5 1.95 Q-12.5 1.7 -11.5 1.6 L-9.8 1.5 Q-9.05 1.3 -8.85 2.0 L-9.05 2.15" fill="#666666" fill-rule="evenodd" stroke="none"/>
  </g>
</svg>
