<?xml version="1.0" encoding="UTF-8" standalone="no"?>
<svg xmlns:ffdec="https://www.free-decompiler.com/flash" xmlns:xlink="http://www.w3.org/1999/xlink" ffdec:objectType="shape" height="82.6px" width="140.25px" xmlns="http://www.w3.org/2000/svg">
  <g transform="matrix(1.0, 0.0, 0.0, 1.0, 61.75, -20.6)">
    <path d="M52.1 23.55 L41.4 23.25 Q22.65 23.25 5.55 25.4 -6.2 26.85 -11.65 28.45 L-14.4 33.3 Q-16.05 36.85 -17.1 40.55 -18.0 43.7 -18.4 47.0 L-13.5 46.0 -5.1 43.25 4.0 40.05 Q11.9 37.7 20.9 34.0 L31.0 30.0 33.05 29.25 33.5 30.0 Q22.0 37.4 0.05 44.85 -21.25 52.05 -32.65 52.5 L-33.45 52.8 Q-35.3 53.45 -37.95 53.7 -42.55 54.15 -44.5 55.25 L-49.3 57.65 -53.0 59.8 Q-54.55 61.1 -57.0 65.35 -59.65 69.9 -59.65 71.8 -59.65 73.75 -56.15 76.75 L-53.85 78.6 Q-52.0 79.25 -49.45 80.8 L-46.65 82.45 -43.05 84.2 -38.5 84.85 Q-35.75 84.85 -33.2 84.05 -30.8 83.25 -28.55 81.75 -26.45 80.25 -24.5 78.05 L-24.2 77.75 -20.55 73.4 Q-19.0 71.7 -17.5 71.35 -10.7 64.3 8.95 58.0 L25.8 52.9 26.1 52.8 27.05 52.5 27.9 52.25 28.35 52.1 Q38.45 49.05 45.45 46.4 L48.15 45.35 Q48.95 45.65 49.15 46.35 42.9 49.7 32.3 53.3 L13.1 59.3 Q-7.3 65.7 -15.35 71.35 -10.8 72.1 -8.5 77.7 -7.6 80.0 -6.9 83.05 L-6.25 86.25 -6.2 86.4 Q-5.15 89.1 -3.55 94.3 -2.25 97.6 0.0 100.15 L1.95 99.1 Q18.15 90.5 38.75 80.75 52.55 74.2 63.0 64.95 76.0 53.5 76.0 43.75 L76.0 41.1 75.95 40.95 Q75.7 39.65 74.5 37.3 L74.5 34.75 75.65 34.5 75.55 34.0 75.55 33.8 72.35 34.05 71.75 34.05 71.65 34.05 71.35 34.05 68.6 34.15 58.55 35.25 49.2 36.9 39.75 38.0 Q36.2 38.0 35.5 37.3 L35.5 36.55 Q35.5 33.7 39.75 30.4 43.4 27.5 47.65 26.6 L49.4 26.3 49.55 26.25 50.0 27.0 Q48.4 28.35 42.6 32.15 38.05 35.1 38.0 35.8 L52.4 33.65 Q66.95 31.5 72.25 31.5 L75.05 31.85 Q74.6 30.5 73.9 29.65 69.7 24.65 52.1 23.55 M78.25 35.5 L78.3 35.6 Q78.5 36.15 78.5 38.4 78.5 51.35 70.95 60.6 63.3 70.0 44.25 80.25 L27.55 88.75 Q14.9 95.2 8.0 99.5 L1.5 103.2 1.4 102.95 0.75 103.05 Q-2.1 103.05 -5.25 95.05 L-6.6 91.4 -9.85 79.6 Q-9.85 78.8 -10.5 77.7 L-19.9 81.6 -21.9 82.3 -31.05 85.35 -31.55 85.55 Q-33.55 85.9 -35.05 86.9 L-45.0 86.1 Q-46.4 85.45 -48.05 85.2 L-49.35 84.1 -54.45 80.7 Q-61.75 75.0 -61.75 71.85 -61.75 68.6 -59.65 64.7 -57.4 60.55 -53.55 57.35 -49.1 53.6 -43.95 52.15 -42.9 51.55 -41.7 51.2 -38.9 50.35 -33.3 49.85 L-33.3 49.65 -33.25 49.65 -33.05 49.85 -31.8 49.75 Q-29.5 48.8 -25.65 48.1 L-20.5 47.35 -20.5 47.3 Q-20.5 42.95 -18.7 36.3 -16.05 26.3 -11.35 26.25 L-11.15 26.15 -11.05 26.25 Q-5.85 24.3 6.2 23.25 L33.0 21.25 Q58.65 18.85 70.7 25.2 78.5 29.3 78.5 34.65 L78.45 35.4 78.25 35.5 M-22.75 79.05 L-22.85 79.2 -22.7 79.1 Q-14.25 75.85 -10.65 77.45 L-11.8 75.95 Q-13.85 73.5 -15.5 73.5 -17.4 73.5 -19.55 75.6 L-22.75 79.05" fill="#000000" fill-rule="evenodd" stroke="none"/>
    <path d="M-22.7 79.1 L-22.75 79.05 -19.55 75.6 Q-17.4 73.5 -15.5 73.5 -13.85 73.5 -11.8 75.95 L-10.65 77.45 Q-14.25 75.85 -22.7 79.1" fill="#3e0202" fill-rule="evenodd" stroke="none"/>
    <path d="M-17.1 40.55 Q-16.05 36.85 -14.4 33.3 L-11.65 28.45 Q-6.2 26.85 5.55 25.4 22.65 23.25 41.4 23.25 L52.1 23.55 Q49.0 24.65 48.05 26.0 L47.05 26.7 47.65 26.6 Q43.4 27.5 39.75 30.4 35.5 33.7 35.5 36.55 L35.5 37.3 Q36.2 38.0 39.75 38.0 L49.2 36.9 58.55 35.25 68.6 34.15 67.05 37.5 Q64.35 43.35 60.3 46.55 54.75 50.85 50.05 53.8 L37.65 60.4 Q3.1 76.85 -6.9 83.05 -7.6 80.0 -8.5 77.7 -10.8 72.1 -15.35 71.35 -7.3 65.7 13.1 59.3 L32.3 53.3 Q42.9 49.7 49.15 46.35 48.95 45.65 48.15 45.35 L45.45 46.4 Q21.5 49.6 -2.5 57.3 -9.55 59.55 -15.05 61.65 L-26.35 67.85 Q-39.75 75.75 -46.65 82.45 L-49.45 80.8 Q-52.0 79.25 -53.85 78.6 L-56.15 76.75 Q-59.65 73.75 -59.65 71.8 -59.65 69.9 -57.0 65.35 -54.55 61.1 -53.0 59.8 L-49.3 57.65 -44.5 55.25 Q-42.55 54.15 -37.95 53.7 -35.3 53.45 -33.45 52.8 L-32.65 52.5 Q-21.25 52.05 0.05 44.85 22.0 37.4 33.5 30.0 L33.05 29.25 31.0 30.0 Q31.0 29.2 30.8 29.15 L30.55 29.25 Q18.95 30.4 2.55 34.2 -11.4 37.4 -17.1 40.55 M61.4 42.5 L61.35 42.3 59.65 43.0 61.4 42.5 M-30.25 66.85 L-30.0 66.6 -30.2 66.6 -30.25 66.85" fill="#942403" fill-rule="evenodd" stroke="none"/>
    <path d="M-17.1 40.55 Q-11.4 37.4 2.55 34.2 18.95 30.4 30.55 29.25 L30.8 29.15 Q31.0 29.2 31.0 30.0 L20.9 34.0 Q11.9 37.7 4.0 40.05 L-5.1 43.25 -13.5 46.0 -18.4 47.0 Q-18.0 43.7 -17.1 40.55 M-46.65 82.45 Q-39.75 75.75 -26.35 67.85 L-15.05 61.65 Q-9.55 59.55 -2.5 57.3 21.5 49.6 45.45 46.4 38.45 49.05 28.35 52.1 L27.9 52.25 27.05 52.5 26.1 52.8 25.8 52.9 8.95 58.0 Q-10.7 64.3 -17.5 71.35 -19.0 71.7 -20.55 73.4 L-24.2 77.75 -24.5 78.05 Q-26.45 80.25 -28.55 81.75 -30.8 83.25 -33.2 84.05 -35.75 84.85 -38.5 84.85 L-43.05 84.2 -46.65 82.45 M-6.9 83.05 Q3.1 76.85 37.65 60.4 L50.05 53.8 Q54.75 50.85 60.3 46.55 64.35 43.35 67.05 37.5 L68.6 34.15 71.35 34.05 71.65 34.05 71.75 34.05 72.35 34.05 75.55 33.8 75.55 34.0 75.65 34.5 74.5 34.75 74.5 37.3 Q75.7 39.65 75.95 40.95 L76.0 41.1 76.0 43.75 Q76.0 53.5 63.0 64.95 52.55 74.2 38.75 80.75 18.15 90.5 1.95 99.1 L0.0 100.15 Q-2.25 97.6 -3.55 94.3 -5.15 89.1 -6.2 86.4 L-6.25 86.25 -6.9 83.05 M47.65 26.6 L47.05 26.7 48.05 26.0 Q49.0 24.65 52.1 23.55 69.7 24.65 73.9 29.65 74.6 30.5 75.05 31.85 L72.25 31.5 Q66.95 31.5 52.4 33.65 L38.0 35.8 Q38.05 35.1 42.6 32.15 48.4 28.35 50.0 27.0 L49.55 26.25 49.4 26.3 47.65 26.6 M61.4 42.5 L59.65 43.0 61.35 42.3 61.4 42.5 M-30.25 66.85 L-30.2 66.6 -30.0 66.6 -30.25 66.85" fill="#731c02" fill-rule="evenodd" stroke="none"/>
  </g>
</svg>
