<?xml version="1.0" encoding="UTF-8" standalone="no"?>
<svg xmlns:ffdec="https://www.free-decompiler.com/flash" xmlns:xlink="http://www.w3.org/1999/xlink" ffdec:objectType="shape" height="68.0px" width="328.9px" xmlns="http://www.w3.org/2000/svg">
  <g transform="matrix(1.0, 0.0, 0.0, 1.0, -2.1, -1.5)">
    <path d="M309.7 16.65 L315.0 17.25 322.5 18.25 Q326.75 20.05 327.2 20.35 328.05 20.85 328.45 21.55 323.6 23.85 322.9 24.3 320.0 26.25 320.0 28.8 320.0 29.75 320.15 30.1 L321.0 31.0 322.25 32.0 323.25 32.55 323.1 32.65 322.35 33.0 Q319.05 34.6 317.9 35.3 L316.15 36.65 315.8 35.8 Q314.9 33.6 314.1 29.55 L312.8 23.8 Q312.15 21.6 310.15 17.55 L309.7 16.65 M328.2 24.3 Q327.75 25.05 327.75 25.6 L327.85 26.4 326.1 26.85 325.75 26.95 324.05 27.7 323.75 28.0 322.8 28.0 322.65 27.75 Q322.5 27.5 322.5 26.75 322.5 25.75 324.7 24.95 L328.2 24.3 M304.0 56.35 L312.25 56.8 Q312.55 56.8 314.05 57.7 316.05 58.6 318.55 58.5 L318.75 59.05 318.75 60.0 Q318.75 60.8 318.4 61.5 L318.3 61.5 318.25 61.8 317.6 62.55 Q316.15 63.9 313.25 64.0 L312.75 64.05 306.7 64.2 306.1 64.25 297.4 64.25 292.2 64.3 292.2 64.35 286.85 64.85 286.1 64.8 285.95 64.8 285.95 64.6 283.9 64.75 283.65 64.75 273.15 64.95 261.15 66.0 259.7 66.3 258.75 66.2 240.15 63.9 227.8 62.1 223.75 61.5 223.7 61.45 220.6 60.95 217.5 60.45 215.5 60.7 215.05 60.75 214.1 60.75 211.1 61.15 201.5 61.75 200.5 62.15 199.85 62.45 194.65 62.9 193.5 63.0 190.15 63.3 190.1 62.85 189.9 63.3 161.9 64.8 157.55 64.9 148.35 65.0 148.35 64.7 Q159.5 64.4 174.15 62.6 L175.05 62.45 179.85 61.8 192.5 60.15 211.5 58.25 Q216.6 57.55 221.65 58.0 225.35 58.3 229.0 59.25 L230.35 59.6 230.9 59.75 231.0 59.8 Q242.15 62.8 254.0 62.8 L260.45 62.55 260.5 62.55 268.5 62.15 269.6 62.1 270.8 62.05 270.95 62.05 272.95 61.95 273.0 61.95 275.25 61.8 277.9 61.6 278.0 60.5 278.05 60.25 Q278.25 60.0 279.0 60.0 279.8 60.0 280.0 61.0 L280.1 61.4 281.1 61.35 281.75 61.25 284.25 61.0 287.05 60.65 287.8 60.55 288.95 60.45 289.55 60.35 290.5 60.25 290.3 59.3 288.4 50.85 286.3 42.05 281.55 26.4 Q277.85 13.8 277.55 8.5 L280.0 8.75 Q281.25 8.75 281.8 8.35 L287.25 8.75 292.5 8.65 296.15 9.25 Q297.3 10.05 297.3 10.55 L297.05 12.3 297.0 12.6 Q292.2 14.45 291.25 15.75 L295.2 16.1 295.0 17.6 Q295.0 18.75 301.0 36.55 L303.9 47.15 304.25 48.1 Q302.95 47.8 300.7 48.6 298.65 49.35 296.8 50.75 295.0 52.1 295.0 52.8 295.0 53.9 297.05 55.5 299.65 57.5 303.0 57.5 303.75 57.5 303.9 57.05 L304.0 56.4 304.0 56.35 M137.5 64.95 L122.65 64.75 122.65 64.6 122.6 64.75 112.55 64.45 111.15 64.4 111.0 64.4 109.8 64.25 109.35 64.35 109.3 64.35 102.85 64.05 100.85 64.25 92.8 65.05 91.5 65.2 Q91.7 64.3 97.0 63.0 103.25 61.5 110.0 61.5 L118.7 62.1 123.75 63.15 Q127.9 64.35 137.5 64.65 L137.5 64.95 M79.3 66.4 L78.25 66.5 78.45 66.45 78.5 66.35 Q78.5 65.65 78.1 64.75 L78.55 64.6 79.3 66.4 M61.6 68.1 L57.55 68.5 56.9 68.55 56.1 68.6 51.25 68.85 39.35 69.5 38.0 69.3 37.05 69.0 35.6 68.7 35.35 68.5 35.2 68.0 34.25 68.0 34.2 68.0 33.65 67.85 28.0 67.35 24.45 67.2 24.35 67.15 24.0 66.9 23.75 66.7 Q23.1 66.35 22.7 66.3 22.0 65.8 20.85 65.35 21.2 65.05 21.85 65.0 L33.5 66.0 Q36.4 67.3 45.9 67.5 L50.1 67.6 48.6 64.15 46.5 59.05 Q44.6 52.75 39.8 40.0 35.1 27.55 32.9 20.9 30.95 15.1 29.55 9.95 L29.55 9.9 Q35.1 7.65 41.95 6.05 45.5 14.55 51.85 33.3 63.0 66.3 63.0 67.85 L63.0 67.95 61.6 68.1 M18.2 50.9 L12.3 51.25 10.6 50.8 9.5 50.55 9.45 50.65 7.9 49.05 7.1 48.35 7.0 48.3 Q4.35 47.15 3.2 45.9 L3.1 45.75 Q2.35 45.0 2.15 44.05 L2.15 44.0 2.3 43.9 2.15 43.95 2.25 41.5 Q2.25 40.9 2.75 39.7 L3.1 38.75 4.0 38.25 4.95 37.85 Q6.95 37.0 9.2 36.3 10.1 35.95 10.5 35.3 L13.05 42.25 15.0 49.3 Q16.45 50.2 18.2 50.9 M20.75 25.35 L22.6 24.5 Q23.6 23.75 23.75 22.75 L23.75 22.7 23.75 22.65 23.75 22.55 23.75 22.5 23.75 22.4 23.75 22.3 24.95 21.95 23.6 21.6 Q22.9 19.85 19.25 18.0 L16.7 16.7 19.35 14.8 19.9 14.95 Q23.15 16.1 24.5 17.3 27.3 18.2 28.0 19.55 L29.0 21.25 29.5 22.75 Q29.5 23.8 28.35 24.75 26.95 25.85 24.5 26.0 L20.8 26.0 20.65 25.85 20.55 25.45 20.75 25.35 M273.0 61.9 L272.95 61.9 270.95 62.0 272.0 61.0 Q272.55 61.15 273.0 61.9 M68.0 6.1 L68.0 6.5 Q67.25 6.5 67.05 6.75 L67.0 7.0 67.0 10.75 68.0 14.75 67.75 14.8 64.6 6.1 68.0 6.1" fill="#caeae9" fill-rule="evenodd" stroke="none"/>
    <path d="M323.1 32.65 L323.25 32.55 322.25 32.0 321.0 31.0 320.15 30.1 Q320.0 29.75 320.0 28.8 320.0 26.25 322.9 24.3 323.6 23.85 328.45 21.55 L328.75 22.55 328.75 22.65 328.75 22.7 328.75 22.8 Q328.75 23.45 328.25 24.2 L328.2 24.3 324.7 24.95 Q322.5 25.75 322.5 26.75 322.5 27.5 322.65 27.75 L322.8 28.0 323.75 28.0 323.65 28.4 Q323.65 29.2 325.0 30.1 326.15 30.85 327.05 30.85 L327.25 31.35 326.95 32.5 326.75 32.5 323.2 32.8 323.1 32.65" fill="url(#gradient0)" fill-rule="evenodd" stroke="none"/>
    <path d="M326.95 32.5 L326.8 33.0 326.75 32.5 326.95 32.5 M318.4 61.5 L318.25 61.8 318.3 61.5 318.4 61.5" fill="#6e89cf" fill-rule="evenodd" stroke="none"/>
    <path d="M326.8 33.0 L324.25 34.7 Q322.85 34.25 322.15 35.0 L321.55 35.45 Q321.15 35.85 321.15 36.6 L321.3 37.25 320.5 37.5 319.75 37.35 Q319.5 37.2 319.5 36.4 319.5 36.0 321.0 34.05 321.55 33.3 322.4 33.0 L323.2 32.8 326.75 32.5 326.8 33.0" fill="url(#gradient1)" fill-rule="evenodd" stroke="none"/>
    <path d="M316.15 36.65 L317.9 35.3 Q319.05 34.6 322.35 33.0 L322.4 33.0 Q321.55 33.3 321.0 34.05 319.5 36.0 319.5 36.4 319.5 37.2 319.75 37.35 L320.5 37.5 321.3 37.25 322.1 38.2 322.05 38.25 322.3 38.3 322.65 38.5 325.45 39.4 325.65 39.45 327.15 39.85 Q329.5 40.6 330.0 42.2 L330.2 42.35 Q331.0 43.15 331.0 45.0 331.0 46.5 330.2 47.45 L330.45 47.05 328.5 47.0 Q324.9 47.0 320.5 48.0 L320.0 48.15 320.0 47.85 319.9 47.15 325.5 44.3 326.3 43.3 Q322.25 42.9 319.95 41.65 318.8 41.0 317.7 40.7 L317.15 39.3 316.15 36.65" fill="url(#gradient2)" fill-rule="evenodd" stroke="none"/>
    <path d="M309.7 16.65 L310.15 17.55 Q312.15 21.6 312.8 23.8 L314.1 29.55 Q314.9 33.6 315.8 35.8 L316.15 36.65 317.15 39.3 317.7 40.7 319.9 47.15 320.0 47.85 320.0 48.15 320.5 48.0 Q324.9 47.0 328.5 47.0 L330.45 47.05 330.2 47.45 329.75 47.85 329.5 48.0 Q326.75 49.8 319.05 50.0 L317.25 50.0 312.85 49.65 312.55 49.75 312.7 49.85 313.8 50.65 313.5 50.8 Q313.15 51.1 313.15 51.9 L313.25 52.65 311.5 52.75 307.05 53.0 299.65 53.4 Q298.25 53.5 298.25 54.35 298.25 55.2 299.2 55.45 L300.85 55.7 300.85 55.75 301.25 56.0 301.35 56.05 303.5 56.35 304.0 56.4 303.9 57.05 Q303.75 57.5 303.0 57.5 299.65 57.5 297.05 55.5 295.0 53.9 295.0 52.8 295.0 52.1 296.8 50.75 298.65 49.35 300.7 48.6 302.95 47.8 304.25 48.1 L303.9 47.15 301.0 36.55 Q295.0 18.75 295.0 17.6 L295.2 16.1 300.55 16.0 305.15 15.6 307.4 16.15 309.7 16.65 M313.95 38.95 L312.65 39.4 314.05 39.2 313.95 38.95 M306.05 51.7 L306.05 51.75 306.1 51.75 306.05 51.7" fill="url(#gradient3)" fill-rule="evenodd" stroke="none"/>
    <path d="M319.9 47.15 L317.7 40.7 Q318.8 41.0 319.95 41.65 322.25 42.9 326.3 43.3 L325.5 44.3 319.9 47.15" fill="url(#gradient4)" fill-rule="evenodd" stroke="none"/>
    <path d="M322.35 33.0 L323.1 32.65 323.2 32.8 322.4 33.0 322.35 33.0 M303.5 56.35 L303.9 56.35 303.95 56.35 304.0 56.4 303.5 56.35 M306.1 64.25 L297.3 64.65 297.4 64.25 306.1 64.25 M285.95 64.8 L283.9 64.75 285.95 64.6 285.95 64.8 M147.0 65.0 L145.7 65.0 144.4 65.0 137.5 64.95 137.5 64.65 144.4 64.75 145.65 64.75 146.95 64.75 147.0 65.0 M62.95 68.0 L61.6 68.1 63.0 67.95 62.95 68.0 M24.35 52.8 L24.2 52.75 24.05 52.25 24.35 52.8 M2.15 44.0 L2.15 43.95 2.3 43.9 2.15 44.0 M19.35 14.8 L19.7 14.6 19.9 14.95 19.35 14.8 M29.3 10.0 L29.55 9.9 29.55 9.95 29.3 10.0 M306.05 51.7 L306.1 51.75 306.05 51.75 306.05 51.7 M292.2 64.3 L292.2 64.35 292.2 64.3 M223.75 61.5 L223.7 61.45 223.75 61.5 M20.85 65.35 L20.75 65.25 20.85 65.35" fill="#829edb" fill-rule="evenodd" stroke="none"/>
    <path d="M322.1 38.2 L322.65 38.5 322.3 38.3 322.05 38.25 322.1 38.2 M293.0 64.95 L291.3 65.1 286.85 64.85 292.2 64.35 293.0 64.95 M223.75 61.5 L220.85 61.0 220.6 60.95 223.7 61.45 223.75 61.5 M215.05 60.75 L199.85 62.45 200.5 62.15 201.5 61.75 211.1 61.15 214.1 60.75 215.05 60.75 M111.0 64.4 L109.35 64.35 109.8 64.25 111.0 64.4 M35.35 68.5 Q34.95 68.2 34.25 68.0 L35.2 68.0 35.35 68.5 M24.45 67.2 L24.35 67.2 24.0 66.9 24.35 67.15 24.45 67.2 M20.85 65.35 L19.3 64.75 18.6 64.55 18.2 64.3 20.75 65.25 20.85 65.35 M14.05 61.75 L13.95 61.45 14.8 60.8 14.1 61.35 14.05 61.75 M10.5 35.3 L10.7 34.7 10.5 35.3 M13.7 26.35 L14.35 26.3 14.45 26.3 13.7 26.35 M112.45 6.75 L118.4 7.6 112.8 7.3 112.95 6.85 112.45 6.75 M122.05 7.75 L122.9 7.75 122.5 7.75 122.05 7.75 M180.7 5.15 L183.55 5.25 183.0 5.25 182.5 5.8 182.0 5.2 180.7 5.15 M264.0 8.2 L264.2 8.15 264.35 8.15 264.3 8.3 264.05 8.25 264.0 8.2 M176.6 8.15 L176.55 8.35 176.25 8.15 176.6 8.15 M260.45 62.55 L260.45 62.45 260.5 62.55 260.45 62.55 M269.7 62.05 L269.6 62.1 268.5 62.15 269.7 62.05 M289.55 60.35 L288.95 60.45 289.05 59.5 289.55 60.35 M170.6 7.85 L171.05 7.85 171.05 8.5 170.75 8.55 170.6 7.85 M174.15 62.6 L174.2 62.55 175.05 62.45 174.15 62.6 M68.0 14.75 L68.0 14.8 67.75 14.8 68.0 14.75 M57.15 5.6 L57.0 6.85 56.55 5.4 57.15 5.6 M12.5 26.6 L12.5 26.55 12.8 27.25 13.05 28.5 12.8 28.5 Q12.5 27.75 12.5 26.6 M78.1 64.75 L77.5 63.3 78.55 64.6 78.1 64.75" fill="#aacbdd" fill-rule="evenodd" stroke="none"/>
    <path d="M271.1 7.6 L275.05 8.15 277.55 8.5 Q277.85 13.8 281.55 26.4 L286.3 42.05 288.4 50.85 290.3 59.3 290.5 60.25 289.55 60.35 289.05 59.5 288.95 60.45 287.8 60.55 287.05 60.65 284.25 61.0 281.75 61.25 281.1 61.35 281.35 60.95 Q281.85 60.35 282.0 59.0 281.75 57.45 281.8 56.7 281.85 55.95 282.3 55.6 279.6 47.55 276.55 35.95 271.75 17.7 271.1 7.6" fill="url(#gradient5)" fill-rule="evenodd" stroke="none"/>
    <path d="M266.7 7.85 L270.1 7.5 271.1 7.6 Q271.75 17.7 276.55 35.95 279.6 47.55 282.3 55.6 281.85 55.95 281.8 56.7 281.75 57.45 282.0 59.0 281.85 60.35 281.35 60.95 L281.1 61.35 280.1 61.4 280.0 61.0 Q279.8 60.0 279.0 60.0 278.25 60.0 278.05 60.25 L278.0 60.5 277.9 61.6 275.25 61.8 273.0 61.95 272.95 61.95 270.95 62.05 270.8 62.05 269.6 62.1 269.7 62.05 268.75 60.25 Q267.85 58.9 267.55 57.8 266.4 53.45 265.0 52.0 L264.0 52.55 264.0 54.05 263.8 54.05 260.8 40.8 Q258.85 32.95 256.5 28.0 255.8 28.3 255.3 29.55 L255.25 29.3 254.45 27.65 Q254.0 26.7 253.05 26.75 L253.0 28.6 Q253.0 30.9 255.15 38.9 L257.55 47.55 258.6 52.65 259.5 57.3 Q260.05 61.15 260.45 62.45 L260.45 62.55 254.0 62.8 Q242.15 62.8 231.0 59.8 L231.0 59.3 227.65 49.6 224.25 39.8 Q220.15 28.7 216.5 21.0 216.1 21.05 215.8 21.55 215.5 22.1 215.5 23.0 216.9 33.65 218.8 44.25 220.35 52.85 221.65 58.0 216.6 57.55 211.5 58.25 L192.5 60.15 Q191.6 55.6 189.05 47.05 L184.8 33.25 182.7 25.25 180.55 17.8 178.0 10.0 Q177.8 9.3 176.55 8.35 L176.6 8.15 187.0 9.0 196.0 8.8 196.25 8.5 197.0 8.05 200.75 7.0 203.0 5.65 205.5 5.75 207.65 5.25 208.85 5.0 Q209.05 5.0 212.3 6.75 217.0 8.4 218.6 5.3 219.15 4.25 219.65 4.55 220.4 4.95 222.5 8.0 L222.95 8.75 Q223.8 9.35 226.3 9.25 L226.4 10.4 Q226.55 10.85 227.0 11.0 L233.5 11.55 Q233.5 11.75 235.05 12.1 L237.5 12.5 250.4 11.5 258.05 10.7 Q258.65 13.1 260.05 16.4 L263.5 25.05 265.7 34.1 Q267.1 39.35 269.5 43.0 271.5 40.8 271.5 39.35 271.5 37.9 270.55 34.6 L269.5 30.75 268.5 22.05 267.75 13.35 Q267.4 10.2 266.7 7.85 M273.0 61.9 Q272.55 61.15 272.0 61.0 L270.95 62.0 272.95 61.9 273.0 61.9" fill="url(#gradient6)" fill-rule="evenodd" stroke="none"/>
    <path d="M56.05 3.65 L62.8 2.95 Q74.8 2.0 102.6 2.0 105.4 2.0 106.6 2.9 L108.5 4.9 108.9 5.25 110.3 6.05 111.1 6.35 112.45 6.75 112.95 6.85 112.8 7.3 118.4 7.6 118.75 7.6 119.35 7.65 121.0 7.7 121.9 7.75 122.05 7.75 122.5 7.75 122.9 7.75 123.25 7.75 123.8 7.75 124.0 7.75 Q128.45 7.75 132.1 6.5 134.35 5.75 135.0 5.1 141.8 4.75 143.65 3.4 L143.85 3.3 144.5 3.25 147.9 2.8 148.65 2.05 152.7 1.7 161.35 1.5 174.8 1.55 175.3 1.55 175.3 3.05 176.8 4.05 177.75 4.8 178.0 4.85 180.7 5.15 182.0 5.2 182.5 5.8 183.0 5.25 183.55 5.25 185.3 5.25 185.5 5.25 185.75 5.25 185.95 5.25 186.15 5.25 186.3 5.25 186.5 5.25 Q194.6 5.25 197.7 4.25 199.3 3.75 199.75 3.0 200.75 2.5 203.2 1.8 L211.4 1.9 213.7 1.9 219.3 2.0 219.65 2.0 220.05 2.0 227.7 2.7 Q229.6 3.1 230.9 3.75 231.1 3.8 232.5 4.75 L234.05 6.0 234.3 7.05 240.4 7.75 249.4 8.25 249.7 8.35 249.7 8.25 252.25 8.25 254.75 8.55 258.25 8.75 264.0 8.2 264.05 8.25 264.3 8.3 264.35 8.15 266.7 7.85 Q267.4 10.2 267.75 13.35 L268.5 22.05 269.5 30.75 270.55 34.6 Q271.5 37.9 271.5 39.35 271.5 40.8 269.5 43.0 267.1 39.35 265.7 34.1 L263.5 25.05 260.05 16.4 Q258.65 13.1 258.05 10.7 L250.4 11.5 237.5 12.5 235.05 12.1 Q233.5 11.75 233.5 11.55 L227.0 11.0 Q226.55 10.85 226.4 10.4 L226.3 9.25 Q223.8 9.35 222.95 8.75 L222.5 8.0 Q220.4 4.95 219.65 4.55 219.15 4.25 218.6 5.3 217.0 8.4 212.3 6.75 209.05 5.0 208.85 5.0 L207.65 5.25 205.5 5.75 203.0 5.65 200.75 7.0 197.0 8.05 196.25 8.5 196.0 8.8 187.0 9.0 176.6 8.15 176.25 8.15 176.55 8.35 Q177.8 9.3 178.0 10.0 L180.55 17.8 182.7 25.25 184.8 33.25 189.05 47.05 Q191.6 55.6 192.5 60.15 L179.85 61.8 175.05 62.45 174.2 62.55 173.5 61.55 172.3 57.8 169.55 50.0 Q165.95 39.2 164.8 34.55 L160.25 17.2 157.35 5.35 155.75 5.7 152.0 6.5 147.05 7.3 144.0 8.05 Q144.0 8.7 143.5 8.8 143.0 8.9 143.0 9.5 143.0 10.25 142.45 10.5 L141.55 10.75 Q142.1 11.4 141.8 11.8 140.85 12.45 139.5 12.8 L131.65 13.5 132.15 15.8 133.3 23.75 Q134.05 28.15 134.95 32.0 135.5 34.65 135.5 38.85 L135.3 43.55 135.25 43.8 134.25 44.0 Q133.05 44.0 132.85 43.0 132.65 42.0 132.0 42.0 130.65 42.0 128.45 35.75 126.85 31.3 125.8 26.75 L123.3 19.2 Q122.0 15.45 121.65 13.15 L118.85 12.6 Q117.55 11.65 116.0 11.5 L108.0 11.0 Q107.7 11.0 107.7 10.55 107.7 10.05 107.0 10.05 L97.35 10.55 97.0 10.8 98.1 14.65 100.75 25.55 Q104.55 39.8 106.0 47.3 L106.0 50.0 105.0 50.5 Q102.05 46.1 94.55 28.95 89.1 16.4 87.6 11.5 L78.3 11.5 78.15 11.35 Q78.0 11.15 78.0 10.4 78.0 9.95 78.3 9.75 79.15 9.2 82.3 9.25 81.9 8.65 82.05 8.05 L73.75 7.3 Q72.25 6.9 72.05 6.05 L68.0 6.1 64.6 6.1 57.8 5.75 57.15 5.6 56.55 5.4 56.05 3.65 M170.6 7.85 L170.75 8.55 171.05 8.5 171.05 7.85 170.6 7.85" fill="url(#gradient7)" fill-rule="evenodd" stroke="none"/>
    <path d="M13.95 61.45 L13.85 61.2 14.7 60.6 14.75 60.5 14.2 59.7 14.8 58.9 15.75 57.35 15.65 56.6 15.5 56.8 14.9 56.7 15.85 56.1 Q16.45 56.6 18.35 56.7 L18.25 56.85 16.9 58.6 16.6 59.0 16.55 59.0 15.55 60.1 14.8 60.8 13.95 61.45 M249.4 8.25 L249.7 8.25 249.7 8.35 249.4 8.25" fill="#e8fffe" fill-rule="evenodd" stroke="none"/>
    <path d="M260.45 62.45 Q260.05 61.15 259.5 57.3 L258.6 52.65 257.55 47.55 255.15 38.9 Q253.0 30.9 253.0 28.6 L253.05 26.75 Q254.0 26.7 254.45 27.65 L255.25 29.3 255.3 29.55 Q255.8 28.3 256.5 28.0 258.85 32.95 260.8 40.8 L263.8 54.05 264.0 54.05 264.0 52.55 265.0 52.0 Q266.4 53.45 267.55 57.8 267.85 58.9 268.75 60.25 L269.7 62.05 268.5 62.15 260.5 62.55 260.45 62.45 M261.65 53.05 L261.65 53.0 261.5 53.05 261.65 53.05" fill="url(#gradient8)" fill-rule="evenodd" stroke="none"/>
    <path d="M318.3 61.5 L318.25 61.8 318.3 61.5" fill="url(#gradient9)" fill-rule="evenodd" stroke="none"/>
    <path d="M303.95 56.35 L304.0 56.35 304.0 56.4 303.95 56.35 M147.0 64.75 L147.0 65.0 146.95 64.75 147.0 64.75" fill="url(#gradient10)" fill-rule="evenodd" stroke="none"/>
    <path d="M297.3 64.65 L293.0 64.95 292.2 64.35 292.2 64.3 297.4 64.25 297.3 64.65" fill="url(#gradient11)" fill-rule="evenodd" stroke="none"/>
    <path d="M190.15 63.3 L189.9 63.3 190.1 62.85 190.15 63.3 M122.65 64.75 L122.6 64.75 122.65 64.6 122.65 64.75 M203.2 1.8 L203.25 1.75 211.4 1.85 213.7 1.9 211.4 1.9 203.2 1.8" fill="#bcfefd" fill-opacity="0.8117647" fill-rule="evenodd" stroke="none"/>
    <path d="M221.65 58.0 Q220.35 52.85 218.8 44.25 216.9 33.65 215.5 23.0 215.5 22.1 215.8 21.55 216.1 21.05 216.5 21.0 220.15 28.7 224.25 39.8 L227.65 49.6 231.0 59.3 230.9 59.75 230.35 59.6 229.0 59.25 Q225.35 58.3 221.65 58.0" fill="url(#gradient12)" fill-rule="evenodd" stroke="none"/>
    <path d="M91.5 65.2 L90.45 65.3 86.0 65.75 86.0 65.15 Q86.0 62.0 84.3 57.95 L80.8 50.55 Q78.8 46.15 76.0 36.0 L71.25 18.1 Q68.2 6.5 68.0 6.5 L68.0 6.1 72.05 6.05 Q72.25 6.9 73.75 7.3 L82.05 8.05 Q81.9 8.65 82.3 9.25 79.15 9.2 78.3 9.75 78.0 9.95 78.0 10.4 78.0 11.15 78.15 11.35 L78.3 11.5 87.6 11.5 Q89.1 16.4 94.55 28.95 102.05 46.1 105.0 50.5 L106.0 50.0 106.0 47.3 Q104.55 39.8 100.75 25.55 L98.1 14.65 97.0 10.8 97.35 10.55 107.0 10.05 Q107.7 10.05 107.7 10.55 107.7 11.0 108.0 11.0 L116.0 11.5 Q117.55 11.65 118.85 12.6 L121.65 13.15 Q122.0 15.45 123.3 19.2 L125.8 26.75 Q126.85 31.3 128.45 35.75 130.65 42.0 132.0 42.0 132.65 42.0 132.85 43.0 133.05 44.0 134.25 44.0 L135.25 43.8 135.3 43.55 135.5 38.85 Q135.5 34.65 134.95 32.0 134.05 28.15 133.3 23.75 L132.15 15.8 131.65 13.5 139.5 12.8 Q140.85 12.45 141.8 11.8 142.1 11.4 141.55 10.75 L142.45 10.5 Q143.0 10.25 143.0 9.5 143.0 8.9 143.5 8.8 144.0 8.7 144.0 8.05 L147.05 7.3 152.0 6.5 155.75 5.7 157.35 5.35 160.25 17.2 164.8 34.55 Q165.95 39.2 169.55 50.0 L172.3 57.8 173.5 61.55 174.2 62.55 174.15 62.6 Q159.5 64.4 148.35 64.7 L148.3 64.7 147.0 64.75 146.95 64.75 145.65 64.75 144.4 64.75 137.5 64.65 137.3 62.95 Q136.85 61.0 135.75 61.0 134.95 61.0 134.7 61.45 L134.5 62.05 133.55 62.2 132.0 62.5 Q131.55 62.15 131.55 61.0 131.5 59.95 130.5 59.5 L129.5 60.05 Q129.5 61.55 129.3 61.8 L129.25 61.75 128.5 59.4 Q127.9 58.0 125.75 58.3 L124.55 53.8 123.2 49.5 Q122.1 46.6 121.75 44.8 120.7 39.9 119.3 35.8 118.35 32.8 117.0 31.5 116.25 30.75 115.85 29.45 115.55 28.45 114.5 28.0 113.5 28.75 113.5 30.8 113.5 34.55 114.45 39.8 L116.25 48.8 117.8 58.7 118.7 62.1 110.0 61.5 Q103.25 61.5 97.0 63.0 91.7 64.3 91.5 65.2" fill="url(#gradient13)" fill-rule="evenodd" stroke="none"/>
    <path d="M231.0 59.3 L231.0 59.8 230.9 59.75 231.0 59.3" fill="#aec1e8" fill-rule="evenodd" stroke="none"/>
    <path d="M118.7 62.1 L117.8 58.7 116.25 48.8 114.45 39.8 Q113.5 34.55 113.5 30.8 113.5 28.75 114.5 28.0 115.55 28.45 115.85 29.45 116.25 30.75 117.0 31.5 118.35 32.8 119.3 35.8 120.7 39.9 121.75 44.8 122.1 46.6 123.2 49.5 L124.55 53.8 125.75 58.3 Q127.9 58.0 128.5 59.4 L129.25 61.75 129.3 61.8 Q129.5 61.55 129.5 60.05 L130.5 59.5 Q131.5 59.95 131.55 61.0 131.55 62.15 132.0 62.5 L133.55 62.2 134.5 62.05 134.7 61.45 Q134.95 61.0 135.75 61.0 136.85 61.0 137.3 62.95 L137.5 64.65 Q127.9 64.35 123.75 63.15 L118.7 62.1" fill="url(#gradient14)" fill-rule="evenodd" stroke="none"/>
    <path d="M86.0 65.75 L80.9 66.25 79.3 66.4 78.55 64.6 77.5 63.3 78.1 64.75 Q78.5 65.65 78.5 66.35 L78.45 66.45 78.25 66.5 78.05 66.5 64.05 25.75 59.8 14.45 59.6 13.85 57.25 7.65 57.0 6.9 57.0 6.85 57.15 5.6 57.8 5.75 64.6 6.1 67.75 14.8 68.0 14.8 68.0 14.75 67.0 10.75 67.0 7.0 67.05 6.75 Q67.25 6.5 68.0 6.5 68.2 6.5 71.25 18.1 L76.0 36.0 Q78.8 46.15 80.8 50.55 L84.3 57.95 Q86.0 62.0 86.0 65.15 L86.0 65.75" fill="url(#gradient15)" fill-rule="evenodd" stroke="none"/>
    <path d="M148.35 65.0 L147.0 65.0 147.0 64.75 148.3 64.7 148.35 65.0" fill="url(#gradient16)" fill-rule="evenodd" stroke="none"/>
    <path d="M148.35 64.7 L148.35 65.0 148.3 64.7 148.35 64.7" fill="url(#gradient17)" fill-rule="evenodd" stroke="none"/>
    <path d="M78.05 66.5 L63.0 68.0 63.0 67.95 63.0 67.85 Q63.0 66.3 51.85 33.3 45.5 14.55 41.95 6.05 48.45 4.55 56.05 3.65 L56.55 5.4 57.0 6.85 57.0 6.9 57.25 7.65 59.6 13.85 59.8 14.45 64.05 25.75 78.05 66.5" fill="url(#gradient18)" fill-rule="evenodd" stroke="none"/>
    <path d="M18.2 64.3 L17.6 63.95 Q16.2 63.25 14.95 63.05 L14.05 61.75 14.1 61.35 14.8 60.8 15.55 60.1 16.6 60.3 Q17.9 60.7 19.5 61.8 L22.0 62.65 24.5 63.3 33.35 63.0 32.5 60.75 29.95 54.2 30.2 53.75 29.75 53.7 28.85 51.5 25.05 42.0 Q21.6 32.85 19.25 25.75 L20.75 25.35 20.55 25.45 20.65 25.85 20.8 26.0 24.5 26.0 Q26.95 25.85 28.35 24.75 29.5 23.8 29.5 22.75 L29.0 21.25 28.0 19.55 Q27.3 18.2 24.5 17.3 23.15 16.1 19.9 14.95 L19.7 14.6 20.1 14.3 Q23.25 12.45 29.3 10.0 L29.55 9.95 Q30.95 15.1 32.9 20.9 35.1 27.55 39.8 40.0 44.6 52.75 46.5 59.05 L48.6 64.15 50.1 67.6 45.9 67.5 Q36.4 67.3 33.5 66.0 L21.85 65.0 Q21.2 65.05 20.85 65.35 L20.75 65.25 18.2 64.3" fill="url(#gradient19)" fill-rule="evenodd" stroke="none"/>
    <path d="M29.75 53.7 L28.15 53.4 24.35 52.8 24.05 52.25 Q23.65 51.45 22.55 51.25 L18.85 39.1 14.45 26.3 14.35 26.3 16.25 26.1 19.25 25.75 Q21.6 32.85 25.05 42.0 L28.85 51.5 29.75 53.7" fill="url(#gradient20)" fill-rule="evenodd" stroke="none"/>
    <path d="M22.55 51.25 L19.8 51.4 18.75 51.1 18.2 50.9 Q16.45 50.2 15.0 49.3 L13.05 42.25 10.5 35.3 10.7 34.7 10.75 34.3 10.75 34.25 Q10.75 33.45 9.75 31.6 L9.7 31.55 9.5 31.15 8.9 30.0 8.75 29.65 8.75 29.6 Q8.75 29.15 8.9 28.75 10.0 27.7 12.1 26.6 L12.5 26.6 Q12.5 27.75 12.8 28.5 L13.05 28.5 12.8 27.25 12.5 26.55 13.7 26.35 14.45 26.3 18.85 39.1 22.55 51.25" fill="url(#gradient21)" fill-rule="evenodd" stroke="none"/>
    <path d="M18.35 56.7 L19.75 56.75 25.85 56.05 26.0 57.0 Q26.0 58.35 24.75 59.5 23.7 60.5 23.0 60.5 20.75 60.5 18.3 59.7 L16.6 59.0 16.9 58.6 18.25 56.85 18.35 56.7 M12.1 26.6 L12.25 26.6 12.35 26.55 12.5 26.55 12.5 26.6 12.1 26.6" fill="#c0e7e6" fill-rule="evenodd" stroke="none"/>
    <path d="M25.85 56.05 L27.55 55.5 Q29.3 54.8 29.95 54.2 L32.5 60.75 33.35 63.0 24.5 63.3 22.0 62.65 19.5 61.8 Q17.9 60.7 16.6 60.3 L15.55 60.1 16.55 59.0 16.6 59.0 18.3 59.7 Q20.75 60.5 23.0 60.5 23.7 60.5 24.75 59.5 26.0 58.35 26.0 57.0 L25.85 56.05" fill="url(#gradient22)" fill-rule="evenodd" stroke="none"/>
    <path d="M63.0 68.0 L62.95 68.0 63.0 67.95 63.0 68.0" fill="url(#gradient23)" fill-rule="evenodd" stroke="none"/>
  </g>
  <defs>
    <radialGradient cx="0" cy="0" gradientTransform="matrix(0.0124, 0.0, 0.0, 0.0124, 322.5, 29.5)" gradientUnits="userSpaceOnUse" id="gradient0" r="819.2" spreadMethod="pad">
      <stop offset="0.0" stop-color="#ffffff"/>
      <stop offset="1.0" stop-color="#c0e7e6" stop-opacity="0.8509804"/>
    </radialGradient>
    <radialGradient cx="0" cy="0" gradientTransform="matrix(0.0082, 0.0, 0.0, 0.0082, 324.5, 33.0)" gradientUnits="userSpaceOnUse" id="gradient1" r="819.2" spreadMethod="pad">
      <stop offset="0.0" stop-color="#ffffff"/>
      <stop offset="1.0" stop-color="#c0e7e6" stop-opacity="0.8509804"/>
    </radialGradient>
    <radialGradient cx="0" cy="0" gradientTransform="matrix(0.0131, 0.0, 0.0, 0.0131, 321.5, 43.0)" gradientUnits="userSpaceOnUse" id="gradient2" r="819.2" spreadMethod="pad">
      <stop offset="0.0" stop-color="#ffffff"/>
      <stop offset="1.0" stop-color="#c0e7e6" stop-opacity="0.8509804"/>
    </radialGradient>
    <radialGradient cx="0" cy="0" gradientTransform="matrix(0.0359, 0.0, 0.0, 0.0359, 307.5, 42.5)" gradientUnits="userSpaceOnUse" id="gradient3" r="819.2" spreadMethod="pad">
      <stop offset="0.0" stop-color="#ffffff"/>
      <stop offset="1.0" stop-color="#c0e7e6" stop-opacity="0.8509804"/>
    </radialGradient>
    <radialGradient cx="0" cy="0" gradientTransform="matrix(0.0073, 0.0, 0.0, 0.0073, 320.5, 44.5)" gradientUnits="userSpaceOnUse" id="gradient4" r="819.2" spreadMethod="pad">
      <stop offset="0.0" stop-color="#ffffff"/>
      <stop offset="1.0" stop-color="#c0e7e6" stop-opacity="0.8509804"/>
    </radialGradient>
    <radialGradient cx="0" cy="0" gradientTransform="matrix(0.0452, 0.0, 0.0, 0.0452, 276.0, 26.5)" gradientUnits="userSpaceOnUse" id="gradient5" r="819.2" spreadMethod="pad">
      <stop offset="0.0" stop-color="#ffffff"/>
      <stop offset="1.0" stop-color="#c0e7e6" stop-opacity="0.8509804"/>
    </radialGradient>
    <radialGradient cx="0" cy="0" gradientTransform="matrix(0.1051, 0.0, 0.0, 0.1051, 200.5, 33.0)" gradientUnits="userSpaceOnUse" id="gradient6" r="819.2" spreadMethod="pad">
      <stop offset="0.0" stop-color="#ffffff"/>
      <stop offset="1.0" stop-color="#c0e7e6" stop-opacity="0.8509804"/>
    </radialGradient>
    <radialGradient cx="0" cy="0" gradientTransform="matrix(0.1516, 0.0, 0.0, 0.1516, 174.0, 41.5)" gradientUnits="userSpaceOnUse" id="gradient7" r="819.2" spreadMethod="pad">
      <stop offset="0.0" stop-color="#ffffff"/>
      <stop offset="1.0" stop-color="#c0e7e6" stop-opacity="0.8509804"/>
    </radialGradient>
    <linearGradient gradientTransform="matrix(0.0039, 0.0128, -0.0052, 0.0016, 260.8, 48.25)" gradientUnits="userSpaceOnUse" id="gradient8" spreadMethod="pad" x1="-819.2" x2="819.2">
      <stop offset="0.0" stop-color="#ffffff"/>
      <stop offset="1.0" stop-color="#c0e7e6" stop-opacity="0.8509804"/>
    </linearGradient>
    <radialGradient cx="0" cy="0" gradientTransform="matrix(0.0401, 0.0, 0.0, 0.0401, 306.0, 64.0)" gradientUnits="userSpaceOnUse" id="gradient9" r="819.2" spreadMethod="pad">
      <stop offset="0.0" stop-color="#ffffff"/>
      <stop offset="1.0" stop-color="#c0e7e6" stop-opacity="0.8509804"/>
    </radialGradient>
    <linearGradient gradientTransform="matrix(-0.0037, -0.0134, 0.0985, -0.0269, 229.95, 51.3)" gradientUnits="userSpaceOnUse" id="gradient10" spreadMethod="pad" x1="-819.2" x2="819.2">
      <stop offset="0.0" stop-color="#99b8dc"/>
      <stop offset="1.0" stop-color="#829edb"/>
    </linearGradient>
    <radialGradient cx="0" cy="0" gradientTransform="matrix(0.0044, 0.0, 0.0, 0.0044, 295.5, 64.5)" gradientUnits="userSpaceOnUse" id="gradient11" r="819.2" spreadMethod="pad">
      <stop offset="0.0" stop-color="#ffffff"/>
      <stop offset="1.0" stop-color="#c0e7e6" stop-opacity="0.8509804"/>
    </radialGradient>
    <linearGradient gradientTransform="matrix(0.003, 0.0159, -0.0055, 0.0011, 224.5, 49.7)" gradientUnits="userSpaceOnUse" id="gradient12" spreadMethod="pad" x1="-819.2" x2="819.2">
      <stop offset="0.0" stop-color="#ffffff"/>
      <stop offset="1.0" stop-color="#c0e7e6" stop-opacity="0.8509804"/>
    </linearGradient>
    <radialGradient cx="0" cy="0" gradientTransform="matrix(0.1077, 0.0, 0.0, 0.1077, 151.5, 33.5)" gradientUnits="userSpaceOnUse" id="gradient13" r="819.2" spreadMethod="pad">
      <stop offset="0.0" stop-color="#ffffff"/>
      <stop offset="1.0" stop-color="#c0e7e6" stop-opacity="0.8509804"/>
    </radialGradient>
    <radialGradient cx="0" cy="0" gradientTransform="matrix(0.0327, 0.0, 0.0, 0.0327, 118.0, 54.5)" gradientUnits="userSpaceOnUse" id="gradient14" r="819.2" spreadMethod="pad">
      <stop offset="0.0" stop-color="#ffffff"/>
      <stop offset="1.0" stop-color="#c0e7e6" stop-opacity="0.8509804"/>
    </radialGradient>
    <radialGradient cx="0" cy="0" gradientTransform="matrix(0.043, 0.0, 0.0, 0.043, 70.0, 38.0)" gradientUnits="userSpaceOnUse" id="gradient15" r="819.2" spreadMethod="pad">
      <stop offset="0.0" stop-color="#ffffff"/>
      <stop offset="1.0" stop-color="#c0e7e6" stop-opacity="0.8509804"/>
    </radialGradient>
    <linearGradient gradientTransform="matrix(0.003, 0.0116, -0.0991, 0.0258, 230.0, 51.0)" gradientUnits="userSpaceOnUse" id="gradient16" spreadMethod="pad" x1="-819.2" x2="819.2">
      <stop offset="0.0" stop-color="#99b8dc"/>
      <stop offset="1.0" stop-color="#829edb"/>
    </linearGradient>
    <linearGradient gradientTransform="matrix(0.003, 0.0098, -0.0958, 0.0298, 231.5, 55.45)" gradientUnits="userSpaceOnUse" id="gradient17" spreadMethod="pad" x1="-819.2" x2="819.2">
      <stop offset="0.0" stop-color="#99b8dc"/>
      <stop offset="1.0" stop-color="#829edb"/>
    </linearGradient>
    <radialGradient cx="0" cy="0" gradientTransform="matrix(0.0577, 0.0, 0.0, 0.0577, 62.0, 48.5)" gradientUnits="userSpaceOnUse" id="gradient18" r="819.2" spreadMethod="pad">
      <stop offset="0.0" stop-color="#ffffff"/>
      <stop offset="1.0" stop-color="#c0e7e6" stop-opacity="0.8509804"/>
    </radialGradient>
    <radialGradient cx="0" cy="0" gradientTransform="matrix(0.0601, 0.0, 0.0, 0.0601, 39.0, 57.5)" gradientUnits="userSpaceOnUse" id="gradient19" r="819.2" spreadMethod="pad">
      <stop offset="0.0" stop-color="#ffffff"/>
      <stop offset="1.0" stop-color="#c0e7e6" stop-opacity="0.8509804"/>
    </radialGradient>
    <radialGradient cx="0" cy="0" gradientTransform="matrix(0.0325, 0.0, 0.0, 0.0325, 24.0, 51.0)" gradientUnits="userSpaceOnUse" id="gradient20" r="819.2" spreadMethod="pad">
      <stop offset="0.0" stop-color="#ffffff"/>
      <stop offset="1.0" stop-color="#c0e7e6" stop-opacity="0.8509804"/>
    </radialGradient>
    <radialGradient cx="0" cy="0" gradientTransform="matrix(0.0256, 0.0, 0.0, 0.0256, 16.0, 46.5)" gradientUnits="userSpaceOnUse" id="gradient21" r="819.2" spreadMethod="pad">
      <stop offset="0.0" stop-color="#ffffff"/>
      <stop offset="1.0" stop-color="#c0e7e6" stop-opacity="0.8509804"/>
    </radialGradient>
    <radialGradient cx="0" cy="0" gradientTransform="matrix(0.016, 0.0, 0.0, 0.016, 28.5, 61.5)" gradientUnits="userSpaceOnUse" id="gradient22" r="819.2" spreadMethod="pad">
      <stop offset="0.0" stop-color="#ffffff"/>
      <stop offset="1.0" stop-color="#c0e7e6" stop-opacity="0.8509804"/>
    </radialGradient>
    <linearGradient gradientTransform="matrix(0.0036, 0.0137, -0.0115, 0.003, 60.05, 36.6)" gradientUnits="userSpaceOnUse" id="gradient23" spreadMethod="pad" x1="-819.2" x2="819.2">
      <stop offset="0.0" stop-color="#99b8dc"/>
      <stop offset="1.0" stop-color="#829edb"/>
    </linearGradient>
  </defs>
</svg>
