<?xml version="1.0" encoding="UTF-8" standalone="no"?>
<svg xmlns:ffdec="https://www.free-decompiler.com/flash" xmlns:xlink="http://www.w3.org/1999/xlink" ffdec:objectType="shape" height="279.0px" width="772.05px" xmlns="http://www.w3.org/2000/svg">
  <g transform="matrix(1.0, 0.0, 0.0, 1.0, 369.1, 214.5)">
    <path d="M376.75 -80.45 Q377.55 -61.65 378.7 -53.05 L380.9 -31.8 382.2 -19.6 382.8 -15.5 383.55 -10.4 389.15 11.15 391.8 21.35 392.85 21.45 Q395.0 22.35 396.4 27.25 397.3 29.95 397.7 33.25 400.95 34.85 401.65 39.5 402.25 43.1 401.3 46.85 401.3 49.2 400.95 51.05 401.85 51.45 402.35 52.2 403.0 53.15 402.95 54.2 402.95 55.9 396.85 56.5 L379.25 57.25 Q339.95 58.1 313.4 60.55 L303.65 61.9 286.7 63.15 Q260.5 64.2 180.35 64.45 L170.5 64.5 138.85 64.5 Q73.55 64.5 35.3 63.6 L-15.4 61.7 -63.5 59.75 Q-92.5 59.05 -138.5 58.9 L-152.55 58.85 -158.65 58.85 Q-172.05 58.85 -188.15 59.25 L-220.65 60.15 Q-254.75 60.95 -299.5 61.25 L-300.3 61.25 -310.2 61.3 -311.65 61.3 -311.7 61.3 -346.8 61.35 Q-360.3 61.35 -360.65 53.95 -360.85 51.7 -359.7 47.4 -358.5 43.0 -358.5 41.5 L-360.5 32.3 -362.15 24.55 -362.35 23.0 -362.5 21.95 -362.5 21.75 -362.45 20.55 Q-363.15 18.45 -363.65 15.45 -364.55 10.2 -364.95 2.45 -365.3 -5.0 -365.15 -14.0 L-364.95 -21.55 -364.8 -31.95 -364.6 -35.65 -364.55 -37.45 Q-364.3 -44.2 -363.65 -51.45 L-362.35 -72.8 -362.3 -73.3 -362.1 -78.9 -362.0 -79.25 -362.1 -79.25 -362.0 -80.45 376.75 -80.45" fill="url(#gradient0)" fill-rule="evenodd" stroke="none"/>
    <path d="M384.3 -155.75 L384.25 -155.8 384.3 -155.8 384.3 -155.75" fill="url(#gradient1)" fill-rule="evenodd" stroke="none"/>
    <path d="M-362.0 -80.45 L-361.75 -87.95 Q-361.45 -97.6 -359.5 -121.2 L-358.2 -138.9 -358.2 -139.4 -358.05 -141.45 -357.85 -144.75 -357.7 -153.95 Q-357.7 -157.7 -358.4 -163.9 L-358.4 -163.95 -358.75 -166.95 -358.75 -167.0 -359.35 -171.3 -361.75 -187.55 Q-361.95 -189.85 -363.0 -195.7 L-364.15 -204.0 Q-364.55 -208.05 -368.85 -214.1 L-369.1 -214.5 378.55 -214.5 378.35 -213.85 Q376.3 -206.6 376.3 -202.85 L376.3 -181.65 376.25 -172.8 376.1 -166.35 375.45 -139.05 Q375.45 -128.8 375.8 -114.25 L375.8 -112.95 376.05 -102.25 376.75 -80.45 -362.0 -80.45 M-261.8 -177.8 L-262.35 -177.25 -262.35 -177.2 -261.8 -177.8 M-16.7 -158.75 L-16.9 -159.1 -16.9 -158.7 -16.7 -158.75" fill="url(#gradient2)" fill-rule="evenodd" stroke="none"/>
  </g>
  <defs>
    <linearGradient gradientTransform="matrix(0.0, 0.1752, -0.4751, 0.0, 13.75, -82.9)" gradientUnits="userSpaceOnUse" id="gradient0" spreadMethod="pad" x1="-819.2" x2="819.2">
      <stop offset="0.0" stop-color="#bcc2cb"/>
      <stop offset="1.0" stop-color="#839696"/>
    </linearGradient>
    <linearGradient gradientTransform="matrix(0.0, 0.0, 0.0, 0.0, 384.25, -155.8)" gradientUnits="userSpaceOnUse" id="gradient1" spreadMethod="pad" x1="-819.2" x2="819.2">
      <stop offset="0.0" stop-color="#9fabb0" stop-opacity="0.0"/>
      <stop offset="1.0" stop-color="#9eabaf"/>
    </linearGradient>
    <linearGradient gradientTransform="matrix(0.0, 0.0784, -0.4563, 0.0, 4.75, -145.5)" gradientUnits="userSpaceOnUse" id="gradient2" spreadMethod="pad" x1="-819.2" x2="819.2">
      <stop offset="0.0" stop-color="#9fabb0" stop-opacity="0.0"/>
      <stop offset="1.0" stop-color="#9eabaf"/>
    </linearGradient>
  </defs>
</svg>
