<?xml version="1.0" encoding="UTF-8" standalone="no"?>
<svg xmlns:ffdec="https://www.free-decompiler.com/flash" xmlns:xlink="http://www.w3.org/1999/xlink" ffdec:objectType="shape" height="226.2px" width="797.35px" xmlns="http://www.w3.org/2000/svg">
  <g transform="matrix(1.0, 0.0, 0.0, 1.0, 286.35, 136.35)">
    <path d="M-35.35 -32.8 L-22.8 -30.25 -22.35 -30.3 -12.25 -28.75 -9.85 -27.9 0.1 -26.0 12.75 -23.1 20.35 -22.5 Q25.4 -21.8 29.4 -20.45 32.3 -19.5 35.6 -19.5 40.55 -19.5 45.85 -17.6 L50.75 -15.95 57.25 -15.3 Q71.75 -14.6 90.15 -14.4 L103.25 -14.35 Q109.25 -14.35 118.1 -12.65 L124.75 -12.15 169.75 -10.25 195.65 -8.35 Q214.15 -6.5 226.0 -6.5 248.9 -6.5 268.9 -9.65 288.95 -12.85 308.0 -12.85 310.15 -12.85 311.4 -11.25 L313.0 -10.75 Q314.05 -9.55 315.05 -5.75 316.0 -2.3 316.0 -0.5 L315.5 3.2 315.75 11.25 316.85 26.15 317.6 35.85 317.9 36.25 318.6 37.45 Q315.85 38.8 315.85 40.85 L316.05 42.8 314.9 43.2 Q314.25 44.0 313.15 44.5 311.4 45.25 303.5 46.75 L294.1 48.75 277.05 50.15 259.25 51.25 255.65 51.25 254.5 51.4 Q235.4 53.85 211.4 54.25 236.6 54.4 216.0 55.45 L172.05 56.85 169.1 57.85 151.75 59.35 Q150.75 59.45 149.65 59.9 L147.75 60.6 122.5 62.0 Q89.7 62.0 54.15 65.25 34.1 67.1 -8.2 72.45 -48.85 77.55 -72.75 79.6 -110.65 82.85 -147.5 82.85 L-162.0 81.95 -176.5 81.0 -187.75 81.85 -240.35 86.35 Q-251.4 86.1 -254.95 86.6 -257.05 86.85 -257.4 87.8 -258.25 89.85 -276.25 89.85 -278.85 89.85 -279.9 88.1 -280.5 87.15 -280.5 86.0 L-280.6 84.8 Q-280.4 84.05 -279.1 83.5 L-280.5 82.3 Q-281.6 80.8 -281.5 77.2 -280.15 66.3 -280.75 58.35 L-282.6 32.1 -283.05 19.25 -283.5 5.85 Q-283.8 0.35 -285.15 -7.55 -286.35 -14.45 -286.35 -20.1 -286.35 -21.55 -284.35 -22.6 -283.35 -26.45 -273.0 -29.0 -258.7 -31.65 -253.1 -33.0 L-236.7 -36.55 Q-225.4 -38.5 -208.5 -39.25 L-169.5 -42.8 -122.6 -46.35 -114.1 -45.6 Q-109.25 -46.75 -102.6 -46.75 L-95.85 -46.05 -89.4 -45.3 -85.5 -45.0 Q-83.85 -45.0 -68.9 -41.55 -53.15 -37.85 -50.0 -37.5 L-42.0 -34.35 -40.75 -34.1 -35.35 -32.8 M307.4 -4.5 L307.5 -3.75 307.55 -4.5 307.4 -4.5" fill="#607373" fill-rule="evenodd" stroke="none"/>
    <path d="M90.15 -14.4 L90.1 -15.35 Q90.1 -17.35 96.0 -20.85 101.8 -24.25 105.0 -24.25 105.7 -24.25 145.3 -49.7 L145.95 -49.7 Q148.8 -52.15 152.6 -54.0 L152.55 -54.35 156.4 -56.85 158.35 -58.05 Q191.75 -79.45 200.35 -84.0 217.95 -93.15 227.1 -97.3 240.75 -103.45 257.75 -109.1 264.85 -111.5 284.1 -116.15 305.7 -121.35 325.7 -125.15 371.55 -133.9 379.45 -129.85 L380.75 -129.85 421.0 -133.1 Q457.3 -136.35 477.85 -136.35 485.85 -136.35 491.25 -134.95 497.25 -133.45 497.25 -130.85 497.25 -128.05 496.05 -127.05 495.25 -126.4 493.55 -126.3 L493.75 -124.5 Q494.15 -117.0 495.5 -111.0 499.0 -94.15 499.5 -85.0 500.1 -75.65 502.3 -57.5 504.0 -43.6 504.0 -33.0 504.0 -28.6 505.25 -17.95 L507.0 -4.25 508.35 9.85 Q508.6 13.3 509.85 18.05 L511.0 22.85 Q511.0 24.4 510.0 25.5 508.55 27.1 505.25 27.1 L503.05 26.65 498.8 27.2 428.75 32.6 410.4 34.85 Q403.55 36.3 395.85 37.0 L377.6 38.75 Q334.3 43.75 328.1 43.75 L325.7 43.65 Q324.6 44.05 323.5 44.95 321.8 46.35 320.25 46.35 316.7 46.35 316.05 42.8 L315.85 40.85 Q315.85 38.8 318.6 37.45 L317.9 36.25 317.6 35.85 316.85 26.15 315.75 11.25 315.5 3.2 316.0 -0.5 Q316.0 -2.3 315.05 -5.75 314.05 -9.55 313.0 -10.75 L311.4 -11.25 Q310.15 -12.85 308.0 -12.85 288.95 -12.85 268.9 -9.65 248.9 -6.5 226.0 -6.5 214.15 -6.5 195.65 -8.35 L169.75 -10.25 124.75 -12.15 118.1 -12.65 Q109.25 -14.35 103.25 -14.35 L90.15 -14.4 M500.5 14.4 L500.5 13.35 500.1 14.1 500.5 14.4" fill="#718888" fill-rule="evenodd" stroke="none"/>
    <path d="M90.15 -14.4 Q71.75 -14.6 57.25 -15.3 L50.75 -15.95 45.85 -17.6 Q40.55 -19.5 35.6 -19.5 32.3 -19.5 29.4 -20.45 25.4 -21.8 20.35 -22.5 L12.75 -23.1 0.1 -26.0 -9.85 -27.9 -12.25 -28.75 -22.35 -30.3 -22.8 -30.25 -35.35 -32.8 -35.5 -33.75 Q-35.5 -35.25 -33.4 -36.5 L-32.6 -36.5 23.4 -40.6 72.5 -44.75 Q95.15 -45.85 116.85 -48.4 141.85 -51.35 152.4 -55.1 L152.55 -54.35 152.6 -54.0 Q148.8 -52.15 145.95 -49.7 L145.3 -49.7 Q105.7 -24.25 105.0 -24.25 101.8 -24.25 96.0 -20.85 90.1 -17.35 90.1 -15.35 L90.15 -14.4" fill="#859a9a" fill-rule="evenodd" stroke="none"/>
  </g>
</svg>
