<?xml version="1.0" encoding="UTF-8" standalone="no"?>
<svg xmlns:ffdec="https://www.free-decompiler.com/flash" xmlns:xlink="http://www.w3.org/1999/xlink" ffdec:objectType="shape" height="307.6px" width="1967.35px" xmlns="http://www.w3.org/2000/svg">
  <g transform="matrix(1.0, 0.0, 0.0, 1.0, 992.15, 110.8)">
    <path d="M285.85 -61.3 L286.1 -62.25 Q285.15 -61.7 284.0 -62.0 286.65 -67.75 296.35 -79.25 306.5 -91.3 309.0 -96.0 312.15 -93.85 313.4 -88.75 L315.0 -80.25 317.2 -82.4 Q318.5 -83.7 321.0 -85.0 L325.35 -79.3 Q327.85 -75.85 330.0 -74.0 332.1 -75.25 331.95 -79.1 331.8 -82.85 334.0 -84.0 336.3 -82.85 337.85 -81.3 338.95 -80.25 339.25 -79.5 L345.25 -88.75 Q347.05 -87.55 347.8 -85.0 348.25 -83.5 351.85 -83.5 354.65 -83.5 357.4 -89.2 360.55 -95.7 361.0 -96.0 362.45 -94.3 363.3 -87.15 364.15 -80.55 368.0 -77.25 369.35 -78.25 371.95 -81.9 374.15 -85.0 375.0 -85.0 379.05 -85.0 382.75 -80.1 386.45 -75.25 388.0 -75.25 394.6 -75.25 396.2 -77.2 398.0 -79.45 401.35 -79.75 L403.05 -75.9 Q404.3 -73.05 405.85 -72.25 L412.45 -77.65 Q416.9 -81.3 418.1 -82.75 421.8 -83.05 422.4 -80.95 422.45 -78.35 422.85 -77.5 424.75 -78.8 426.8 -82.35 L430.25 -89.1 Q434.75 -97.75 439.75 -97.75 443.3 -97.75 445.25 -92.9 446.85 -89.05 446.85 -84.5 L447.1 -84.25 Q448.45 -85.05 450.2 -88.2 451.85 -91.2 453.85 -92.0 L455.85 -91.75 Q457.7 -82.2 461.85 -74.5 L464.6 -78.9 Q466.55 -82.0 468.85 -82.0 469.55 -82.0 471.65 -80.15 L474.1 -77.5 Q474.55 -77.95 475.9 -81.65 476.7 -83.75 480.25 -83.75 481.9 -83.75 485.9 -78.5 489.95 -73.25 491.1 -73.25 493.95 -73.25 499.5 -81.1 505.05 -89.0 505.85 -89.0 508.35 -89.0 511.05 -84.45 512.45 -82.2 513.35 -79.75 515.4 -82.8 516.65 -89.4 L518.35 -100.75 520.25 -98.9 520.3 -98.85 Q524.4 -94.5 526.85 -88.7 L531.6 -74.5 Q537.85 -78.45 540.8 -83.75 543.25 -88.2 543.85 -94.75 L544.85 -95.25 547.35 -95.75 Q547.6 -95.75 550.05 -90.85 L553.6 -83.75 555.35 -88.65 Q556.15 -91.0 557.85 -91.0 560.3 -91.0 564.55 -85.0 567.95 -80.15 568.35 -78.75 569.55 -80.55 572.55 -84.15 L577.85 -90.0 Q579.7 -89.5 582.9 -86.3 586.85 -82.45 587.85 -81.75 588.75 -83.2 590.95 -88.4 592.65 -92.4 594.85 -95.0 596.55 -94.4 597.4 -92.4 L598.35 -89.0 Q600.3 -90.9 601.4 -94.55 L601.45 -94.6 601.5 -94.8 603.35 -101.75 Q607.55 -101.2 609.0 -98.9 L610.6 -96.0 Q611.45 -97.1 612.85 -102.55 613.85 -106.5 617.35 -107.75 619.55 -102.65 622.35 -94.2 625.65 -84.1 626.85 -81.0 L630.35 -89.8 Q632.95 -96.25 635.35 -98.75 637.9 -95.05 640.3 -88.85 643.1 -81.6 644.85 -78.5 646.8 -80.0 648.8 -84.4 650.45 -88.0 651.85 -88.0 657.3 -88.0 662.5 -78.25 L665.8 -71.55 666.65 -70.05 673.15 -70.05 Q676.15 -71.9 679.25 -76.05 682.2 -80.0 685.85 -86.0 688.65 -85.15 690.9 -81.65 L694.35 -76.25 695.45 -78.25 697.35 -81.75 Q700.95 -81.8 702.1 -79.6 704.0 -76.0 704.6 -75.5 704.8 -77.05 705.45 -78.95 706.1 -80.9 706.85 -82.0 708.55 -81.15 709.4 -79.15 L710.55 -75.55 713.05 -77.35 Q717.5 -80.35 718.1 -85.75 L719.35 -85.75 Q719.45 -81.05 724.95 -74.7 729.5 -69.55 734.5 -66.3 L737.2 -65.85 738.55 -65.35 Q738.85 -67.05 740.8 -66.0 L741.35 -65.65 Q742.95 -64.5 742.9 -62.25 L742.75 -60.65 742.75 -60.45 742.7 -60.4 Q745.3 -55.75 745.3 -54.1 745.3 -53.5 744.75 -53.05 744.25 -52.75 744.25 -52.15 744.15 -51.45 744.7 -51.35 745.2 -51.2 745.2 -50.6 745.15 -49.8 744.75 -49.75 L743.35 -49.8 745.2 -47.35 Q748.65 -49.1 748.65 -50.65 748.7 -51.25 748.15 -51.4 747.7 -51.55 747.7 -52.2 747.7 -52.95 750.15 -55.1 L750.6 -55.9 751.85 -57.65 753.4 -60.3 Q754.85 -62.85 755.45 -62.95 L755.7 -62.8 756.35 -63.4 756.4 -63.45 756.55 -63.15 Q758.8 -58.55 760.5 -53.1 L761.5 -52.0 762.05 -51.35 Q762.35 -51.0 762.2 -50.3 L762.2 -50.1 762.65 -49.35 762.5 -48.7 762.0 -48.3 762.0 -48.0 764.05 -45.15 763.8 -44.55 Q763.6 -44.3 762.85 -44.3 L762.95 -42.4 763.65 -41.7 763.9 -41.45 764.95 -40.35 764.75 -39.65 764.4 -39.35 764.45 -39.3 764.4 -37.2 765.3 -36.4 765.15 -36.05 765.4 -36.0 767.45 -38.1 Q767.75 -38.8 768.4 -39.45 L769.5 -40.2 770.4 -42.35 771.0 -43.5 Q771.75 -44.95 772.55 -45.5 774.45 -43.9 775.1 -38.5 L775.2 -38.0 776.0 -37.1 777.2 -35.65 778.75 -33.6 778.65 -32.95 780.25 -31.45 779.8 -30.8 779.7 -30.7 779.6 -30.35 Q779.45 -30.0 778.65 -29.95 L778.45 -30.0 Q780.05 -28.65 780.6 -27.45 L780.35 -26.8 780.35 -26.75 781.05 -25.9 780.95 -25.6 Q782.05 -24.4 782.55 -23.05 L782.3 -22.25 782.35 -22.05 782.5 -22.25 783.45 -23.45 783.6 -24.8 Q783.6 -26.9 786.4 -28.5 L786.7 -28.65 787.6 -30.4 788.25 -31.65 788.25 -33.05 789.15 -33.15 789.7 -33.7 790.0 -33.55 790.05 -33.55 790.75 -33.7 Q791.85 -32.95 792.1 -30.65 L792.55 -27.8 792.85 -27.3 793.4 -26.4 793.75 -25.8 794.45 -24.55 794.3 -22.15 Q794.35 -21.75 795.45 -20.6 796.45 -19.7 795.9 -18.6 L795.8 -18.35 795.15 -18.1 795.4 -17.5 Q795.1 -16.3 795.95 -14.9 796.25 -14.35 797.0 -13.85 L798.25 -13.1 Q798.0 -12.25 796.35 -11.8 L797.0 -10.65 799.1 -12.8 800.8 -14.35 800.35 -14.6 Q799.9 -16.05 804.3 -17.6 L805.1 -17.8 805.85 -18.7 808.25 -21.65 808.85 -22.35 Q810.55 -25.0 812.0 -24.85 813.55 -24.75 813.5 -22.35 L812.95 -18.4 812.9 -18.15 Q812.25 -14.25 812.1 -12.05 L812.0 -11.85 811.1 -11.75 810.65 -9.3 810.75 -7.7 812.5 -4.0 812.5 -3.25 812.25 -3.0 812.15 -2.85 811.3 -2.8 Q810.95 -2.8 810.35 -3.35 L810.2 -2.85 810.5 -2.15 810.2 -1.55 Q810.05 -1.25 809.25 -1.25 808.6 -1.3 808.1 -1.65 L808.65 -0.1 809.6 1.05 811.85 3.9 811.6 4.45 810.6 4.7 810.4 4.7 810.95 5.7 811.45 5.35 812.9 4.5 812.35 4.0 811.9 3.75 813.45 2.4 813.95 1.2 Q814.0 0.15 817.55 -2.95 L818.1 -3.35 818.05 -3.6 Q818.05 -4.2 820.4 -6.8 822.95 -9.5 824.15 -9.9 L824.5 -9.8 824.55 -9.85 824.65 -9.95 825.45 -9.1 825.65 -7.8 825.65 -7.55 825.4 -6.65 825.55 -4.8 825.5 -3.95 825.45 -2.6 Q825.2 2.2 826.9 4.75 L826.6 5.3 825.8 5.55 825.8 6.55 825.7 6.8 825.35 7.0 826.05 9.35 826.65 11.7 827.15 13.0 826.95 13.65 Q826.65 14.05 825.9 14.05 L825.1 13.9 825.15 15.15 825.05 15.85 826.3 14.4 829.5 11.4 830.95 6.5 Q832.35 1.95 834.3 -0.1 L834.85 -0.7 835.05 -0.55 835.05 -0.5 Q835.6 0.05 835.8 0.85 836.45 1.35 836.75 2.3 L837.3 5.05 Q837.25 5.75 837.85 8.1 838.6 10.4 838.6 11.3 L838.5 12.25 838.3 12.75 837.4 12.85 838.25 14.05 841.05 18.45 840.95 18.55 Q842.65 18.3 843.35 17.65 L846.55 14.0 Q848.15 12.15 850.55 12.4 L850.6 15.2 850.25 19.15 Q850.9 21.7 850.8 23.35 850.8 25.25 850.5 25.9 L850.45 25.95 850.75 27.65 850.6 27.8 Q850.45 28.1 849.7 28.05 L849.45 27.95 849.45 28.05 850.0 28.45 Q850.7 29.05 850.7 29.85 L850.7 30.2 851.9 29.25 851.7 29.0 853.6 27.35 855.5 24.95 Q856.35 24.0 857.2 23.85 L857.65 23.45 Q858.35 22.25 860.25 23.1 L860.3 24.45 859.7 27.25 Q859.15 29.4 859.15 30.0 L859.6 31.95 860.05 34.35 Q860.0 34.95 859.75 35.15 L858.5 35.25 857.7 35.15 857.6 35.2 Q857.55 36.55 857.65 37.4 857.85 38.4 858.9 39.65 L859.95 40.75 862.2 40.1 861.7 39.75 Q861.5 39.45 861.65 38.7 861.85 37.45 862.35 37.15 L864.65 37.05 Q866.2 35.85 866.3 35.8 868.6 34.15 870.4 33.75 L870.65 33.55 870.8 33.7 872.2 33.6 872.4 33.75 872.5 34.6 872.45 35.15 872.85 35.9 873.5 38.15 875.4 41.55 Q876.5 43.25 876.4 43.95 876.15 45.3 874.6 45.3 876.3 47.45 876.15 48.3 L875.45 49.55 874.8 50.5 875.0 50.75 876.1 52.3 876.55 50.8 Q877.05 48.2 879.05 48.25 L879.4 48.3 879.45 47.9 Q881.45 47.2 881.6 49.7 L881.5 51.2 881.6 53.25 881.6 54.15 883.2 57.35 883.55 58.0 886.1 59.65 886.25 59.6 886.25 60.45 Q886.15 61.0 885.1 61.25 L884.55 61.35 883.9 62.4 Q885.5 63.3 886.15 64.0 L885.05 64.55 883.8 64.55 882.75 64.35 884.2 66.5 883.8 67.35 883.6 67.45 883.9 67.6 Q884.55 68.3 884.8 69.8 L884.95 69.65 886.35 68.8 886.85 68.25 886.55 67.9 Q887.5 66.2 889.45 64.8 889.95 64.4 890.5 64.15 L892.6 61.65 Q894.9 59.5 896.35 60.35 895.95 63.95 897.05 66.5 898.0 69.0 897.7 70.5 897.65 70.95 896.55 71.45 L896.4 71.5 896.45 71.6 Q897.2 72.7 897.15 74.0 898.25 74.35 898.35 75.2 899.25 74.4 900.2 74.1 L900.45 72.7 Q902.85 72.0 903.35 74.5 903.75 76.55 903.0 78.5 L902.95 79.1 904.35 81.4 Q905.25 83.1 905.05 84.3 904.8 85.8 904.15 85.8 L904.2 86.3 903.95 86.7 904.9 88.6 906.35 86.5 906.15 86.6 Q905.3 85.95 905.55 84.6 905.7 83.6 906.75 82.1 908.1 80.45 908.4 79.4 908.75 77.65 909.05 76.95 909.45 75.6 910.65 75.2 911.1 75.8 911.15 77.3 911.9 79.15 912.7 83.5 L913.4 88.95 913.25 89.55 912.6 90.05 Q913.15 90.45 913.3 91.25 L914.65 93.2 Q915.95 94.4 916.25 95.5 917.15 94.95 918.5 94.85 L917.9 94.4 917.3 93.9 Q917.0 93.35 917.15 93.0 917.5 92.4 920.6 92.4 L920.55 92.0 Q920.25 91.7 920.3 91.0 920.35 90.05 922.25 89.5 924.65 88.85 925.4 88.25 926.05 87.7 926.35 86.65 926.8 85.75 927.45 85.35 928.1 86.65 928.5 89.3 L928.75 93.35 928.5 96.35 928.5 96.6 928.25 96.75 928.8 101.7 928.95 102.55 931.05 100.2 Q934.6 96.65 936.0 97.25 L936.1 97.5 936.15 98.5 936.0 100.75 936.25 101.55 Q936.6 102.95 936.5 105.45 936.8 108.0 937.55 109.6 938.1 110.8 938.05 112.8 938.05 113.45 938.45 114.25 L938.85 115.35 Q938.25 115.6 939.5 115.65 940.85 115.65 942.9 114.6 944.95 113.6 946.3 112.3 947.2 110.9 947.8 110.25 948.7 109.0 950.35 108.85 951.75 110.15 951.45 113.35 L951.25 116.05 Q951.1 117.85 951.3 118.35 951.9 120.35 952.3 123.1 952.85 126.2 952.85 127.75 L952.75 130.4 952.65 130.65 952.5 130.85 952.8 131.9 952.7 133.4 952.35 133.65 952.15 133.7 Q952.5 140.65 953.6 154.4 954.85 169.55 954.65 178.35 L954.5 185.9 954.0 186.1 954.0 186.35 954.0 186.75 954.0 187.0 953.95 190.1 953.7 190.85 953.15 191.65 Q952.55 191.9 931.5 191.75 L929.9 187.8 Q929.45 186.95 929.2 182.8 929.0 179.6 927.35 178.55 925.8 179.0 925.1 180.4 924.65 181.1 923.95 182.65 922.85 184.15 921.0 185.45 919.15 186.85 917.8 187.05 916.55 187.25 917.1 186.85 L916.5 185.85 Q916.0 185.15 915.9 184.5 915.6 182.5 914.9 181.45 913.9 179.95 913.15 177.55 912.8 175.05 912.25 173.75 L911.85 172.95 911.65 170.75 911.45 169.75 911.3 169.5 Q909.8 169.15 906.9 173.2 L905.2 175.9 904.95 175.1 903.6 170.3 903.8 170.15 903.75 169.9 903.5 166.9 902.55 162.95 Q901.75 160.35 900.9 159.15 900.3 159.7 900.05 160.65 899.85 161.75 899.3 162.4 898.7 163.15 896.4 164.15 894.65 165.0 894.75 165.95 894.85 166.55 895.1 166.85 L899.85 167.0 895.25 167.0 895.3 167.3 Q892.2 167.8 892.0 168.45 891.9 168.8 892.25 169.3 L892.95 169.75 893.65 170.05 Q892.3 170.4 891.5 171.05 891.05 170.05 889.6 169.05 888.2 167.9 887.9 167.35 L887.8 167.1 Q840.0 167.55 615.05 171.3 342.6 175.85 322.25 176.75 L234.6 182.8 153.0 188.0 123.05 187.8 101.25 187.55 100.75 189.5 100.15 190.85 99.55 191.85 Q100.1 192.25 98.85 192.05 97.5 191.85 95.65 190.45 93.8 189.15 92.7 187.65 L92.45 187.1 87.65 186.35 87.45 187.8 Q87.2 191.95 86.75 192.8 L85.15 196.75 Q64.1 196.9 63.5 196.65 63.15 196.5 62.95 195.85 L62.7 195.1 62.65 192.0 62.65 191.75 62.65 191.35 62.65 191.1 62.15 190.9 62.0 183.35 Q61.8 174.55 63.05 159.4 L64.5 138.7 64.3 138.65 63.95 138.4 63.85 136.9 64.15 135.85 64.0 135.65 63.9 135.4 63.8 132.75 Q63.8 131.2 64.35 128.1 64.75 125.35 65.35 123.35 65.55 122.85 65.4 121.05 L65.2 118.35 Q64.9 115.15 66.3 113.85 67.95 114.0 68.85 115.25 L70.35 117.3 Q71.7 118.6 73.75 119.6 75.8 120.65 77.15 120.65 78.4 120.6 77.8 120.35 L78.2 119.25 Q78.6 118.45 78.6 117.8 78.55 115.8 79.1 114.6 79.85 113.0 80.15 110.45 80.05 107.95 80.4 106.55 L80.65 105.75 80.5 103.5 80.55 102.5 80.65 102.25 Q82.05 101.65 85.6 105.2 L87.7 107.55 87.85 106.7 Q88.05 103.85 88.4 101.75 L88.15 101.6 88.15 101.35 87.9 98.35 Q87.85 96.45 88.15 94.3 88.55 91.65 89.2 90.35 89.85 90.75 90.3 91.65 90.6 92.7 91.25 93.25 92.0 93.85 94.4 94.5 96.3 95.05 96.35 96.0 96.4 96.7 96.1 97.0 L96.05 97.4 Q99.15 97.4 99.5 98.0 L99.35 98.9 98.75 99.4 98.15 99.85 Q99.5 99.95 100.4 100.5 100.7 99.4 102.0 98.2 L103.35 96.25 Q103.5 95.45 104.05 95.05 L103.4 94.55 103.25 93.95 Q103.15 93.2 103.95 88.5 104.75 84.15 105.5 82.3 105.55 80.8 106.0 80.2 107.2 80.6 107.6 81.95 L108.25 84.4 Q108.55 85.45 109.9 87.1 110.95 88.6 111.1 89.6 111.35 90.95 110.5 91.6 L110.3 91.5 111.75 93.6 112.7 91.7 112.45 91.3 112.5 90.8 Q111.85 90.8 111.6 89.3 111.4 88.1 112.3 86.4 L113.7 84.1 113.65 83.5 Q112.9 81.55 113.3 79.5 113.8 77.0 116.2 77.7 L116.45 79.1 118.3 80.2 Q118.4 79.35 119.5 79.0 119.45 77.7 120.2 76.6 L120.25 76.5 120.1 76.45 Q119.0 75.95 118.95 75.5 118.65 74.0 119.6 71.5 120.7 68.95 120.3 65.35 121.75 64.5 124.05 66.65 125.4 67.95 126.15 69.15 L127.2 69.8 Q129.15 71.2 130.1 72.9 L129.8 73.25 130.3 73.8 131.7 74.65 131.85 74.8 Q132.1 73.3 132.75 72.6 L133.05 72.45 132.85 72.35 132.45 71.5 133.9 69.35 132.85 69.55 131.6 69.55 130.5 69.0 Q131.15 68.3 132.75 67.4 132.3 66.95 132.1 66.35 L131.55 66.25 Q130.5 66.0 130.4 65.45 130.25 64.65 130.4 64.6 L130.55 64.65 133.1 63.0 133.45 62.35 135.05 59.15 135.05 58.25 135.15 56.2 135.05 54.7 Q135.2 52.2 137.2 52.9 L137.25 53.3 137.6 53.25 Q139.6 53.2 140.1 55.8 140.25 56.65 140.55 57.3 L141.65 55.75 141.85 55.5 141.2 54.55 Q140.6 53.9 140.5 53.3 140.35 52.45 142.05 50.3 140.5 50.3 140.25 48.95 140.15 48.25 141.25 46.55 L143.15 43.15 143.8 40.9 144.2 40.15 144.15 39.6 144.25 38.75 144.45 38.6 145.85 38.7 146.0 38.55 146.25 38.75 Q148.05 39.15 150.35 40.8 L152.0 42.05 154.3 42.15 Q154.8 42.45 155.0 43.7 155.15 44.45 154.95 44.75 L154.45 45.1 Q155.8 45.75 156.7 45.75 L157.75 44.65 Q158.8 43.4 159.0 42.4 L159.05 40.2 158.95 40.15 158.15 40.25 156.9 40.15 156.6 39.35 Q156.6 38.7 157.05 36.95 L157.5 35.0 156.95 32.25 156.35 29.45 156.4 28.1 Q158.3 27.25 159.0 28.45 L159.45 28.85 Q160.3 29.0 161.15 29.95 L163.05 32.35 164.95 34.0 164.75 34.25 165.95 35.2 165.95 34.85 Q165.95 34.05 166.65 33.45 L167.2 33.05 167.2 32.95 166.95 33.05 166.05 32.8 165.9 32.65 166.2 30.95 166.15 30.9 Q165.85 30.25 165.85 28.35 165.75 26.7 166.4 24.15 L166.05 20.2 Q166.0 18.1 166.1 17.4 168.5 17.15 170.1 19.0 L173.3 22.65 Q174.0 23.3 175.7 23.55 L175.6 23.45 178.4 19.05 179.25 17.85 178.35 17.75 178.15 17.25 178.05 16.3 Q178.05 15.4 178.8 13.1 L179.35 10.05 179.9 7.3 Q180.2 6.35 180.85 5.85 181.05 5.05 181.6 4.5 L181.65 4.45 181.8 4.3 182.35 4.9 Q184.3 6.95 185.7 11.5 L187.15 16.4 190.35 19.4 191.6 20.85 191.5 20.15 191.55 18.9 190.75 19.05 Q190.0 19.05 189.7 18.65 L189.5 18.0 190.0 16.7 190.6 14.35 191.3 12.0 190.95 11.8 190.85 11.55 190.85 10.55 190.05 10.3 189.75 9.75 Q191.45 7.2 191.2 2.4 L191.15 1.05 191.1 0.2 191.25 -1.65 191.0 -2.55 191.0 -2.8 191.2 -4.1 192.0 -4.95 192.1 -4.85 192.15 -4.8 192.5 -4.9 Q193.7 -4.5 196.25 -1.8 198.6 0.8 198.6 1.4 L198.55 1.65 199.1 2.05 Q202.65 5.15 202.7 6.2 202.7 6.85 203.2 7.4 L204.75 8.75 204.3 9.0 Q203.9 9.05 203.75 9.5 L205.2 10.35 205.7 10.7 Q205.85 10.15 206.25 9.7 L206.05 9.7 205.05 9.45 204.8 8.9 207.05 6.05 208.0 4.9 208.55 3.35 207.4 3.75 Q206.6 3.75 206.45 3.45 L206.15 2.85 206.45 2.15 206.3 1.65 205.35 2.2 204.5 2.15 204.4 2.0 204.15 1.75 204.15 1.0 205.9 -2.7 206.0 -4.3 205.55 -6.75 204.65 -6.85 204.55 -7.05 203.75 -13.15 203.7 -13.4 203.15 -17.35 Q203.1 -19.75 204.65 -19.85 206.1 -20.0 207.8 -17.35 L208.4 -16.65 210.8 -13.7 211.55 -12.8 212.35 -12.6 Q216.75 -11.05 216.3 -9.6 L215.85 -9.35 217.55 -7.8 219.65 -5.65 Q219.85 -6.45 220.3 -6.8 218.65 -7.25 218.4 -8.1 L219.65 -8.85 220.7 -9.9 Q221.55 -11.3 221.25 -12.5 L221.5 -13.1 Q220.95 -13.15 220.85 -13.35 L220.75 -13.6 Q220.2 -14.7 221.2 -15.6 L222.35 -17.15 222.2 -19.55 222.9 -20.8 223.25 -21.4 223.8 -22.3 224.1 -22.8 224.55 -25.65 Q224.8 -27.95 225.9 -28.7 L226.6 -28.55 226.65 -28.55 226.95 -28.7 227.5 -28.15 228.4 -28.05 228.4 -26.65 229.05 -25.4 229.95 -23.65 230.25 -23.5 Q233.05 -21.9 233.05 -19.8 L233.2 -18.45 234.15 -17.25 234.3 -17.05 234.35 -17.25 234.1 -18.05 Q234.6 -19.4 235.7 -20.6 L235.6 -20.9 236.3 -21.75 236.3 -21.8 236.05 -22.45 Q236.6 -23.65 238.2 -25.0 L238.0 -24.95 Q237.2 -25.0 237.05 -25.35 L236.95 -25.7 236.85 -25.8 236.4 -26.45 238.0 -27.95 237.9 -28.6 239.45 -30.65 240.65 -32.1 241.45 -33.0 241.55 -33.5 Q242.2 -38.9 244.1 -40.5 244.9 -39.95 245.65 -38.5 L246.25 -37.35 247.15 -35.2 248.25 -34.45 249.2 -33.1 251.25 -31.0 251.5 -31.05 251.35 -31.4 252.25 -32.2 252.2 -34.3 252.25 -34.35 251.9 -34.65 251.7 -35.35 252.75 -36.45 253.0 -36.7 253.7 -37.4 253.8 -39.3 Q253.05 -39.3 252.85 -39.55 L252.6 -40.15 254.65 -43.0 254.65 -43.3 254.15 -43.7 Q254.0 -43.85 254.0 -44.35 L254.45 -45.1 254.45 -45.3 Q254.3 -46.0 254.6 -46.35 L255.15 -47.0 256.15 -48.1 Q257.85 -53.55 260.15 -58.15 L260.25 -58.45 260.35 -58.4 260.95 -57.8 261.2 -57.95 Q261.8 -57.85 263.25 -55.3 L264.8 -52.65 266.05 -50.9 266.5 -50.1 Q268.95 -47.95 268.95 -47.2 268.95 -46.55 268.5 -46.4 267.95 -46.25 268.0 -45.65 268.0 -44.1 271.45 -42.35 L273.3 -44.8 271.9 -44.75 Q271.5 -44.8 271.45 -45.6 271.45 -46.2 271.95 -46.35 272.5 -46.45 272.4 -47.15 272.4 -47.75 271.9 -48.05 271.35 -48.5 271.35 -49.1 271.35 -50.75 273.95 -55.4 L273.9 -55.45 273.9 -55.65 Q273.75 -56.4 273.75 -57.25 273.7 -59.5 275.3 -60.65 L275.85 -61.0 Q277.8 -62.05 278.1 -60.35 278.8 -60.8 279.45 -60.85 L284.35 -61.3 285.8 -61.2 285.85 -61.2 285.85 -61.3 M706.8 -75.2 L706.05 -71.55 706.2 -71.55 Q707.25 -72.95 709.6 -74.85 708.1 -77.85 707.85 -79.0 L707.35 -79.0 706.8 -75.2 M706.2 -70.45 L705.15 -70.15 709.35 -70.25 706.35 -70.25 706.2 -70.45 M726.95 -70.05 L726.55 -70.5 726.55 -70.05 726.95 -70.05 M676.85 -70.05 L676.85 -70.25 676.8 -70.05 676.85 -70.05 M782.35 -21.95 L781.5 -21.95 Q781.0 -21.9 779.55 -23.15 L779.7 -22.7 Q780.45 -21.65 781.55 -21.05 L782.35 -21.95 M236.95 -17.7 L237.1 -18.15 Q235.65 -16.9 235.15 -16.95 L234.3 -16.95 235.1 -16.05 Q236.2 -16.65 236.95 -17.7 M309.65 -92.2 L310.0 -92.0 309.75 -92.5 309.65 -92.2 M595.6 -91.5 L595.1 -92.0 595.0 -91.7 595.6 -91.5 M163.75 40.45 L163.65 40.4 163.55 40.85 163.75 40.45 M192.6 22.3 L192.75 22.05 192.3 21.75 192.6 22.3 M201.15 120.2 L201.15 120.1 201.05 120.1 199.9 121.2 199.6 121.4 200.7 122.5 200.75 122.15 Q200.85 121.4 201.65 120.9 L202.25 120.6 202.25 120.5 202.0 120.6 Q201.25 120.5 201.15 120.2 M134.65 72.25 L134.6 72.3 134.7 72.35 134.65 72.25 M105.85 105.65 L106.3 105.65 106.0 105.25 105.85 105.65 M91.55 185.4 Q90.85 184.0 89.3 183.55 88.15 184.25 87.7 186.0 L91.85 185.95 91.55 185.4 M136.4 168.8 L137.45 171.1 138.75 169.45 138.55 169.0 138.7 168.5 Q138.1 168.4 138.05 167.1 L137.55 167.1 Q137.55 168.5 136.55 168.95 L136.4 168.8 M853.1 35.85 L853.0 35.4 852.9 35.45 853.1 35.85 M823.9 17.05 L824.05 17.3 824.35 16.75 823.9 17.05 M882.0 67.25 L881.95 67.35 882.05 67.3 882.0 67.25 M815.5 115.2 Q815.4 115.5 814.65 115.6 L814.4 115.5 814.4 115.6 815.0 115.9 Q815.8 116.4 815.9 117.15 L815.95 117.5 817.05 116.4 816.75 116.2 815.6 115.1 815.5 115.1 815.5 115.2 M879.2 166.1 L879.2 166.4 887.0 166.6 887.45 166.6 887.0 166.25 887.55 165.7 887.6 165.05 Q887.6 164.3 886.0 159.85 884.5 155.65 883.45 153.95 883.2 152.5 882.6 151.95 881.5 152.6 881.3 153.95 L881.1 156.5 Q880.95 157.55 879.95 159.45 879.1 161.1 879.1 162.1 L878.6 162.1 Q878.55 163.4 877.95 163.5 L878.1 164.0 877.9 164.45 879.2 166.1 M910.8 100.65 L910.65 100.25 910.35 100.65 910.8 100.65 M-752.0 -68.7 L-751.45 -69.05 Q-749.5 -70.1 -749.2 -68.4 L-747.85 -68.9 -745.15 -69.35 Q-740.15 -72.6 -735.6 -77.75 -730.1 -84.1 -730.0 -88.8 L-728.75 -88.8 Q-728.15 -83.4 -723.7 -80.4 L-721.2 -78.6 -720.05 -82.2 Q-719.2 -84.2 -717.5 -85.05 -716.75 -83.95 -716.1 -82.0 -715.45 -80.1 -715.25 -78.55 -714.65 -79.05 -712.75 -82.65 -711.6 -84.85 -708.0 -84.8 L-706.1 -81.3 -705.0 -79.3 -701.55 -84.7 Q-699.3 -88.2 -696.5 -89.05 -692.85 -83.05 -689.9 -79.1 -686.8 -74.95 -683.8 -73.1 L-677.3 -73.1 -676.45 -74.6 -673.15 -81.3 Q-667.95 -91.05 -662.5 -91.05 -661.1 -91.05 -659.45 -87.45 -657.45 -83.05 -655.5 -81.55 -653.75 -84.65 -650.95 -91.9 -648.55 -98.1 -646.0 -101.8 -643.6 -99.3 -641.0 -92.85 L-637.5 -84.05 Q-636.3 -87.15 -633.0 -97.25 -630.2 -105.7 -628.0 -110.8 -624.5 -109.55 -623.5 -105.6 -622.1 -100.15 -621.25 -99.05 L-619.65 -101.95 Q-618.2 -104.25 -614.0 -104.8 L-612.15 -97.85 -612.1 -97.65 -612.05 -97.6 Q-610.95 -93.95 -609.0 -92.05 L-608.05 -95.45 Q-607.2 -97.45 -605.5 -98.05 -603.3 -95.45 -601.6 -91.45 -599.4 -86.25 -598.5 -84.8 -597.5 -85.5 -593.55 -89.35 -590.35 -92.55 -588.5 -93.05 L-583.2 -87.2 -579.0 -81.8 Q-578.6 -83.2 -575.2 -88.05 -570.95 -94.05 -568.5 -94.05 -566.8 -94.05 -566.0 -91.7 L-564.25 -86.8 -560.7 -93.9 Q-558.25 -98.8 -558.0 -98.8 -556.5 -98.8 -555.5 -98.3 L-554.5 -97.8 Q-553.9 -91.25 -551.45 -86.8 -548.5 -81.5 -542.25 -77.55 L-537.5 -91.75 Q-535.05 -97.55 -530.95 -101.9 L-530.9 -101.95 -529.0 -103.8 -527.3 -92.45 Q-526.05 -85.85 -524.0 -82.8 -523.1 -85.25 -521.7 -87.5 -519.0 -92.05 -516.5 -92.05 -515.7 -92.05 -510.15 -84.15 -504.6 -76.3 -501.75 -76.3 -500.6 -76.3 -496.55 -81.55 -492.55 -86.8 -490.9 -86.8 -487.35 -86.8 -486.55 -84.7 -485.2 -81.0 -484.75 -80.55 L-482.3 -83.2 Q-480.2 -85.05 -479.5 -85.05 -477.2 -85.05 -475.25 -81.95 L-472.5 -77.55 Q-468.35 -85.25 -466.5 -94.8 L-464.5 -95.05 Q-462.5 -94.25 -460.85 -91.25 -459.1 -88.1 -457.75 -87.3 L-457.5 -87.55 Q-457.5 -92.1 -455.9 -95.95 -453.95 -100.8 -450.4 -100.8 -445.4 -100.8 -440.9 -92.15 L-437.45 -85.4 Q-435.4 -81.85 -433.5 -80.55 -433.1 -81.4 -433.05 -84.0 -432.45 -86.1 -428.75 -85.8 -427.55 -84.35 -423.1 -80.7 L-416.5 -75.3 Q-414.95 -76.1 -413.7 -78.95 L-412.0 -82.8 Q-408.65 -82.5 -406.85 -80.25 -405.25 -78.3 -398.65 -78.3 -397.1 -78.3 -393.4 -83.15 -389.7 -88.05 -385.65 -88.05 -384.8 -88.05 -382.6 -84.95 -380.0 -81.3 -378.65 -80.3 -374.8 -83.6 -373.95 -90.2 -373.1 -97.35 -371.65 -99.05 -371.2 -98.75 -368.05 -92.25 -365.3 -86.55 -362.5 -86.55 -358.9 -86.55 -358.45 -88.05 -357.7 -90.6 -355.9 -91.8 -350.4 -83.65 -349.9 -82.55 -349.6 -83.3 -348.5 -84.35 -346.95 -85.9 -344.65 -87.05 -342.45 -85.9 -342.6 -82.15 -342.75 -78.3 -340.65 -77.05 -338.5 -78.9 -336.0 -82.35 L-331.65 -88.05 Q-329.15 -86.75 -327.85 -85.45 L-325.65 -83.3 -324.05 -91.8 Q-322.8 -96.9 -319.65 -99.05 -317.15 -94.35 -307.0 -82.3 -297.3 -70.8 -294.65 -65.05 L-296.75 -65.3 -296.5 -64.35 -296.5 -64.25 -296.45 -64.25 -295.0 -64.35 -290.1 -63.9 Q-289.45 -63.85 -288.75 -63.4 -288.45 -65.1 -286.5 -64.05 L-285.95 -63.7 Q-284.35 -62.55 -284.4 -60.3 -284.4 -59.45 -284.55 -58.7 L-284.55 -58.5 -284.6 -58.45 Q-282.0 -53.8 -282.0 -52.15 -282.0 -51.55 -282.55 -51.1 -283.05 -50.8 -283.05 -50.2 -283.15 -49.5 -282.6 -49.4 -282.1 -49.25 -282.1 -48.65 -282.15 -47.85 -282.55 -47.8 L-283.95 -47.85 -282.1 -45.4 Q-278.65 -47.15 -278.65 -48.7 -278.6 -49.3 -279.15 -49.45 -279.6 -49.6 -279.6 -50.25 -279.6 -51.0 -277.15 -53.15 L-276.7 -53.95 -275.45 -55.7 -273.9 -58.35 Q-272.45 -60.9 -271.85 -61.0 L-271.6 -60.85 -271.0 -61.45 -270.9 -61.5 -270.8 -61.2 Q-268.5 -56.6 -266.8 -51.15 L-265.8 -50.05 -265.25 -49.4 Q-264.95 -49.05 -265.1 -48.35 L-265.1 -48.15 -264.65 -47.4 Q-264.65 -46.9 -264.8 -46.75 L-265.3 -46.35 -265.3 -46.05 -263.25 -43.2 -263.5 -42.6 Q-263.7 -42.35 -264.45 -42.35 L-264.35 -40.45 -263.65 -39.75 -263.4 -39.5 -262.35 -38.4 -262.55 -37.7 -262.9 -37.4 -262.85 -37.35 -262.9 -35.25 -262.0 -34.45 -262.15 -34.1 -261.9 -34.05 -259.85 -36.15 -258.9 -37.5 -257.8 -38.25 -256.9 -40.4 -256.3 -41.55 Q-255.55 -43.0 -254.75 -43.55 -252.85 -41.95 -252.2 -36.55 L-252.1 -36.05 -251.3 -35.15 -250.1 -33.7 -248.55 -31.65 -248.65 -31.0 -247.05 -29.5 -247.5 -28.85 -247.6 -28.75 -247.7 -28.4 Q-247.85 -28.05 -248.65 -28.0 L-248.85 -28.05 Q-247.25 -26.7 -246.7 -25.5 L-246.95 -24.85 -246.95 -24.8 -246.25 -23.95 -246.35 -23.65 Q-245.25 -22.45 -244.75 -21.1 L-245.0 -20.3 -244.95 -20.1 -244.8 -20.3 -243.85 -21.5 -243.7 -22.85 Q-243.7 -24.95 -240.9 -26.55 L-240.6 -26.7 -239.7 -28.45 -239.05 -29.7 -239.05 -31.1 -238.15 -31.2 -237.6 -31.75 -237.3 -31.6 -237.25 -31.6 Q-236.55 -31.6 -236.55 -31.75 -235.45 -31.0 -235.2 -28.7 L-234.75 -25.85 -234.45 -25.35 -233.9 -24.45 -233.55 -23.85 -232.85 -22.6 -233.0 -20.2 -231.85 -18.65 Q-230.85 -17.75 -231.4 -16.65 L-231.5 -16.4 Q-231.6 -16.2 -232.15 -16.15 L-231.9 -15.55 Q-232.2 -14.35 -231.35 -12.95 L-230.3 -11.9 -229.05 -11.15 Q-229.3 -10.3 -230.95 -9.85 -230.5 -9.5 -230.3 -8.7 L-228.2 -10.85 -226.5 -12.4 -226.95 -12.65 Q-227.4 -14.1 -223.0 -15.65 L-222.2 -15.85 -221.45 -16.75 -219.05 -19.7 -218.45 -20.4 Q-216.75 -23.05 -215.3 -22.9 -213.75 -22.8 -213.8 -20.4 L-214.35 -16.45 -214.4 -16.2 -215.2 -10.1 -215.3 -9.9 -216.2 -9.8 -216.65 -7.35 -216.55 -5.75 -214.8 -2.05 -214.8 -1.3 -215.05 -1.05 -215.15 -0.9 -216.0 -0.85 Q-216.35 -0.85 -216.95 -1.4 L-217.1 -0.9 -216.8 -0.2 -217.1 0.4 Q-217.25 0.7 -218.05 0.7 L-219.2 0.3 -218.65 1.85 -217.7 3.0 Q-216.15 4.75 -215.45 5.85 L-215.7 6.4 -216.7 6.65 -216.9 6.65 -216.35 7.65 -215.85 7.3 -214.4 6.45 -214.95 5.95 -215.4 5.7 -213.85 4.35 Q-213.35 3.8 -213.35 3.15 -213.3 2.1 -209.75 -1.0 L-209.2 -1.4 -209.25 -1.65 Q-209.25 -2.25 -206.9 -4.85 -204.35 -7.55 -203.15 -7.95 L-202.8 -7.85 -202.75 -7.9 -202.65 -8.0 -201.85 -7.15 -201.65 -5.85 -201.65 -5.6 -201.9 -4.7 -201.75 -2.85 -201.8 -2.0 -201.85 -0.65 Q-202.1 4.15 -200.4 6.7 L-200.7 7.25 -201.5 7.5 -201.5 8.5 -201.6 8.75 -201.95 8.95 -201.25 11.3 Q-200.65 13.1 -200.65 13.65 L-200.15 14.95 -200.35 15.6 Q-200.65 16.0 -201.4 16.0 L-202.2 15.85 -202.15 17.1 -202.25 17.8 -201.0 16.35 -197.8 13.35 -196.35 8.45 Q-194.95 3.9 -193.0 1.85 L-192.45 1.25 -192.3 1.4 -192.25 1.45 Q-191.7 2.0 -191.5 2.8 -190.85 3.3 -190.55 4.25 L-190.0 7.0 -189.45 10.05 Q-188.7 12.35 -188.7 13.25 L-188.8 14.2 -189.0 14.7 -189.9 14.8 -189.05 16.0 -186.25 20.4 -186.35 20.5 Q-184.65 20.25 -183.95 19.6 L-180.75 15.95 Q-179.15 14.1 -176.75 14.35 -176.65 15.05 -176.7 17.15 L-177.05 21.1 Q-176.4 23.65 -176.5 25.3 -176.5 27.2 -176.8 27.85 L-176.85 27.9 -176.55 29.6 -176.7 29.75 Q-176.85 30.05 -177.6 30.0 L-177.85 29.9 -177.85 30.0 -177.3 30.4 Q-176.6 31.0 -176.6 31.8 L-176.6 32.15 -175.4 31.2 -175.6 30.95 Q-174.9 30.65 -173.7 29.3 L-171.8 26.9 Q-170.95 25.95 -170.1 25.8 L-169.65 25.4 Q-168.95 24.2 -167.05 25.05 L-167.0 26.4 -167.6 29.2 -168.15 31.95 -167.7 33.9 Q-167.25 35.65 -167.25 36.3 L-167.55 37.1 -168.8 37.2 -169.6 37.1 -169.7 37.15 -169.65 39.35 Q-169.45 40.35 -168.4 41.6 L-167.35 42.7 Q-166.45 42.7 -165.1 42.05 L-165.6 41.7 Q-165.8 41.4 -165.65 40.65 -165.45 39.4 -164.95 39.1 L-162.65 39.0 -161.0 37.75 Q-158.7 36.1 -156.9 35.7 L-156.65 35.5 -156.5 35.65 -155.1 35.55 -154.9 35.7 -154.8 36.55 -154.85 37.1 -154.45 37.85 -153.8 40.1 -151.9 43.5 Q-150.8 45.2 -150.9 45.9 -151.15 47.25 -152.7 47.25 -151.0 49.4 -151.15 50.25 -151.25 50.85 -151.85 51.5 L-152.5 52.45 -152.3 52.7 -151.2 54.25 Q-150.9 53.6 -150.75 52.75 -150.25 50.15 -148.25 50.2 L-147.9 50.25 -147.85 49.85 Q-145.85 49.15 -145.7 51.65 L-145.8 53.15 -145.7 55.2 -145.7 56.1 -144.1 59.3 -143.75 59.95 -141.2 61.6 -141.05 61.55 Q-140.9 61.6 -141.05 62.4 -141.15 62.95 -142.2 63.2 L-142.75 63.3 -143.4 64.35 -141.15 65.95 -142.25 66.5 -143.5 66.5 -144.55 66.3 -143.1 68.45 -143.5 69.3 -143.7 69.4 -143.4 69.55 Q-142.75 70.25 -142.5 71.75 L-142.35 71.6 -140.95 70.75 -140.45 70.2 -140.75 69.85 Q-139.8 68.15 -137.85 66.75 L-136.8 66.1 Q-136.05 64.9 -134.7 63.6 -132.4 61.45 -130.95 62.3 -131.35 65.9 -130.25 68.45 -129.3 70.95 -129.6 72.45 -129.65 72.9 -130.75 73.4 L-130.9 73.45 -130.85 73.55 Q-130.1 74.65 -130.15 75.95 -129.05 76.3 -128.95 77.15 -128.05 76.35 -127.1 76.05 L-126.85 74.65 Q-124.45 73.95 -123.95 76.45 -123.55 78.5 -124.3 80.45 L-124.35 81.05 -122.95 83.35 Q-122.05 85.05 -122.25 86.25 -122.5 87.75 -123.15 87.75 L-123.1 88.25 -123.35 88.65 -122.4 90.55 -120.95 88.45 -121.15 88.55 Q-122.0 87.9 -121.75 86.55 -121.6 85.55 -120.55 84.05 -119.2 82.4 -118.9 81.35 L-118.25 78.9 Q-117.85 77.55 -116.65 77.15 -116.2 77.75 -116.15 79.25 -115.4 81.1 -114.6 85.45 -113.8 90.15 -113.9 90.9 L-114.05 91.5 -114.7 92.0 Q-114.15 92.4 -114.0 93.2 L-112.65 95.15 Q-111.35 96.35 -111.05 97.45 -110.15 96.9 -108.8 96.8 L-109.4 96.35 -110.0 95.85 -110.15 94.95 Q-109.8 94.35 -106.7 94.35 -106.6 94.2 -106.75 93.95 -107.05 93.65 -107.0 92.95 -106.95 92.0 -105.05 91.45 -102.65 90.8 -101.9 90.2 -101.25 89.65 -100.95 88.6 -100.5 87.7 -99.85 87.3 -99.2 88.6 -98.8 91.25 -98.5 93.4 -98.55 95.3 L-98.8 98.3 -98.8 98.55 -99.05 98.7 Q-98.7 100.8 -98.5 103.65 L-98.35 104.5 -96.25 102.15 Q-92.7 98.6 -91.3 99.2 L-91.2 99.45 -91.15 100.45 -91.3 102.7 -91.05 103.5 Q-90.7 104.9 -90.8 107.4 -90.5 109.95 -89.75 111.55 -89.2 112.75 -89.25 114.75 L-88.85 116.2 -88.45 117.3 Q-89.05 117.55 -87.8 117.6 -86.45 117.6 -84.4 116.55 -82.35 115.55 -81.0 114.25 L-79.5 112.2 Q-78.6 110.95 -76.95 110.8 -75.55 112.1 -75.85 115.3 L-76.05 118.0 Q-76.2 119.8 -76.0 120.3 -75.4 122.3 -75.0 125.05 -74.45 128.15 -74.45 129.7 L-74.55 132.35 -74.65 132.6 -74.8 132.8 -74.5 133.85 -74.6 135.35 -74.95 135.6 -75.15 135.65 -73.7 156.35 Q-72.45 171.5 -72.65 180.3 L-72.8 187.85 -73.3 188.05 -73.3 188.3 -73.3 188.7 -73.3 188.95 -73.35 192.05 -73.6 192.8 Q-73.8 193.45 -74.15 193.6 -74.75 193.85 -95.8 193.7 L-97.4 189.75 Q-97.85 188.9 -98.1 184.75 L-98.3 183.3 -103.1 184.05 -103.35 184.6 Q-104.45 186.1 -106.3 187.4 -108.15 188.8 -109.5 189.0 -110.75 189.2 -110.2 188.8 L-110.8 187.8 Q-111.3 187.1 -111.4 186.45 L-111.9 184.5 -133.7 184.75 -163.65 184.95 -245.25 179.75 -332.9 173.7 Q-353.25 172.8 -625.7 168.25 -850.65 164.5 -898.45 164.05 L-898.55 164.3 Q-898.85 164.85 -900.25 166.0 -901.7 167.0 -902.15 168.0 -902.95 167.35 -904.3 167.0 L-903.6 166.7 Q-903.1 166.45 -902.9 166.25 -902.55 165.75 -902.65 165.4 -902.85 164.75 -905.95 164.25 L-905.9 163.95 -910.5 163.95 -905.75 163.8 Q-905.5 163.5 -905.4 162.9 -905.3 161.95 -907.05 161.1 -909.35 160.1 -909.95 159.35 -910.5 158.7 -910.7 157.6 -910.95 156.65 -911.55 156.1 -912.4 157.3 -913.2 159.9 L-914.15 163.85 -914.4 166.85 -914.45 167.1 -914.25 167.25 -915.6 172.05 -915.85 172.85 -917.55 170.15 Q-920.45 166.1 -921.95 166.45 L-922.1 166.7 -922.3 167.7 -922.5 169.9 -922.9 170.7 Q-923.45 172.0 -923.8 174.5 -924.55 176.9 -925.55 178.4 -926.25 179.45 -926.55 181.45 -926.65 182.1 -927.15 182.8 L-927.75 183.8 Q-927.2 184.2 -928.45 184.0 -929.8 183.8 -931.65 182.4 -933.5 181.1 -934.6 179.6 L-935.75 177.35 Q-936.45 175.95 -938.0 175.5 -939.65 176.55 -939.85 179.75 -940.1 183.9 -940.55 184.75 L-942.15 188.7 Q-963.2 188.85 -963.8 188.6 L-964.35 187.8 -964.6 187.05 -964.65 183.95 -964.65 183.7 -964.65 183.3 -964.65 183.05 -965.15 182.85 -965.3 175.3 Q-965.5 166.5 -964.25 151.35 -963.15 137.6 -962.8 130.65 L-963.0 130.6 -963.35 130.35 -963.45 128.85 -963.15 127.8 -963.3 127.6 -963.4 127.35 -963.5 124.7 Q-963.5 123.15 -962.95 120.05 -962.55 117.3 -961.95 115.3 -961.75 114.8 -961.9 113.0 L-962.1 110.3 Q-962.4 107.1 -961.0 105.8 -959.35 105.95 -958.45 107.2 -957.85 107.85 -956.95 109.25 -955.6 110.55 -953.55 111.55 -951.5 112.6 -950.15 112.6 -948.9 112.55 -949.5 112.3 L-949.1 111.2 Q-948.7 110.4 -948.7 109.75 -948.75 107.75 -948.2 106.55 -947.45 104.95 -947.15 102.4 -947.25 99.9 -946.9 98.5 L-946.65 97.7 -946.8 95.45 -946.75 94.45 -946.65 94.2 Q-945.25 93.6 -941.7 97.15 L-939.6 99.5 -939.45 98.65 -938.9 93.7 -939.15 93.55 -939.15 93.3 -939.4 90.3 -939.15 86.25 Q-938.75 83.6 -938.1 82.3 -937.45 82.7 -937.0 83.6 -936.7 84.65 -936.05 85.2 -935.3 85.8 -932.9 86.45 -931.0 87.0 -930.95 87.95 -930.9 88.65 -931.2 88.95 L-931.25 89.35 Q-928.15 89.35 -927.8 89.95 -927.65 90.3 -927.95 90.85 L-928.55 91.35 -929.15 91.8 Q-927.8 91.9 -926.9 92.45 -926.6 91.35 -925.3 90.15 -924.15 88.8 -923.95 88.2 -923.8 87.4 -923.25 87.0 L-923.9 86.5 -924.05 85.9 -923.35 80.45 Q-922.55 76.1 -921.8 74.25 -921.75 72.75 -921.3 72.15 -920.1 72.55 -919.7 73.9 -919.4 74.6 -919.05 76.35 -918.75 77.4 -917.4 79.05 -916.35 80.55 -916.2 81.55 -915.95 82.9 -916.8 83.55 L-917.0 83.45 -915.55 85.55 -914.6 83.65 -914.85 83.25 -914.8 82.75 Q-915.45 82.75 -915.7 81.25 -915.9 80.05 -915.0 78.35 L-913.6 76.05 -913.65 75.45 Q-914.4 73.5 -914.0 71.45 -913.5 68.95 -911.1 69.65 L-910.85 71.05 Q-909.9 71.35 -909.0 72.15 -908.9 71.3 -907.8 70.95 -907.85 69.65 -907.1 68.55 L-907.05 68.45 -907.2 68.4 Q-908.3 67.9 -908.35 67.45 -908.65 65.95 -907.7 63.45 -906.6 60.9 -907.0 57.3 -905.55 56.45 -903.25 58.6 -901.9 59.9 -901.15 61.1 -900.6 61.35 -900.1 61.75 -898.15 63.15 -897.2 64.85 L-897.5 65.2 -897.0 65.75 -895.6 66.6 -895.45 66.75 Q-895.2 65.25 -894.55 64.55 L-894.25 64.4 -894.45 64.3 -894.85 63.45 -893.4 61.3 -894.45 61.5 -895.7 61.5 -896.8 60.95 -894.55 59.35 -895.2 58.3 -895.75 58.2 Q-896.8 57.95 -896.9 57.4 L-896.9 56.55 -896.75 56.6 -894.2 54.95 -893.85 54.3 -892.25 51.1 -892.25 50.2 -892.15 48.15 -892.25 46.65 Q-892.1 44.15 -890.1 44.85 L-890.05 45.25 -889.7 45.2 Q-887.7 45.15 -887.2 47.75 L-886.75 49.25 -885.65 47.7 -885.45 47.45 -886.1 46.5 -886.8 45.25 Q-886.95 44.4 -885.25 42.25 -886.8 42.25 -887.05 40.9 -887.15 40.2 -886.05 38.5 L-884.15 35.1 -883.5 32.85 -883.1 32.1 -883.15 31.55 -883.05 30.7 -882.85 30.55 -881.45 30.65 -881.3 30.5 -881.05 30.7 Q-879.25 31.1 -876.95 32.75 -876.85 32.8 -875.3 34.0 L-873.0 34.1 Q-872.5 34.4 -872.3 35.65 -872.15 36.4 -872.35 36.7 L-872.85 37.05 Q-871.5 37.7 -870.6 37.7 L-869.55 36.6 Q-868.5 35.35 -868.3 34.35 -868.2 33.5 -868.25 32.15 L-868.35 32.1 -869.15 32.2 -870.4 32.1 Q-870.65 31.9 -870.7 31.3 L-870.25 28.9 -869.8 26.95 Q-869.8 26.35 -870.35 24.2 L-870.95 21.4 -870.9 20.05 Q-869.0 19.2 -868.3 20.4 L-867.85 20.8 Q-867.0 20.95 -866.15 21.9 L-864.25 24.3 -862.35 25.95 -862.55 26.2 -861.35 27.15 -861.35 26.8 Q-861.35 26.0 -860.65 25.4 L-860.1 25.0 -860.1 24.9 -860.35 25.0 -861.25 24.75 -861.4 24.6 -861.1 22.9 -861.15 22.85 Q-861.45 22.2 -861.45 20.3 -861.55 18.65 -860.9 16.1 L-861.25 12.15 -861.2 9.35 Q-858.8 9.1 -857.2 10.95 L-854.0 14.6 Q-853.3 15.25 -851.6 15.5 L-851.7 15.4 -848.9 11.0 -848.05 9.8 -848.95 9.7 -849.15 9.2 -849.25 8.25 Q-849.25 7.35 -848.5 5.05 -847.9 2.7 -847.95 2.0 L-847.4 -0.75 Q-847.1 -1.7 -846.45 -2.2 L-845.7 -3.55 -845.7 -3.6 -845.5 -3.75 -844.95 -3.15 Q-843.0 -1.1 -841.6 3.45 L-840.15 8.35 -836.95 11.35 -835.7 12.8 -835.8 12.1 -835.75 10.85 -836.55 11.0 Q-837.3 11.0 -837.6 10.6 L-837.8 9.95 -837.3 8.65 -836.7 6.3 Q-836.1 4.7 -836.0 3.95 -836.25 3.95 -836.35 3.75 L-836.45 3.5 -836.45 2.5 -837.25 2.25 -837.55 1.7 Q-835.85 -0.85 -836.1 -5.65 L-836.15 -7.0 -836.2 -7.85 -836.05 -9.7 -836.3 -10.6 -836.3 -10.85 -836.1 -12.15 -835.3 -13.0 -835.2 -12.9 -835.15 -12.85 -834.8 -12.95 Q-833.6 -12.55 -831.05 -9.85 -828.7 -7.25 -828.7 -6.65 L-828.75 -6.4 -828.2 -6.0 Q-824.65 -2.9 -824.6 -1.85 -824.6 -1.2 -824.1 -0.65 L-822.55 0.7 -823.0 0.95 -823.55 1.45 Q-822.85 1.8 -822.1 2.3 L-821.6 2.65 -821.05 1.65 -821.25 1.65 -822.25 1.4 -822.5 0.85 -820.25 -2.0 -819.3 -3.15 -818.75 -4.7 Q-819.25 -4.35 -819.9 -4.3 -820.7 -4.3 -820.85 -4.6 L-821.15 -5.2 -820.85 -5.9 -821.0 -6.4 Q-821.6 -5.85 -821.95 -5.85 L-822.8 -5.9 -822.9 -6.05 -823.15 -6.3 -823.15 -7.05 -821.4 -10.75 -821.3 -12.35 -821.75 -14.8 -822.65 -14.9 -822.75 -15.1 Q-822.9 -17.3 -823.55 -21.2 L-823.6 -21.45 -824.15 -25.4 Q-824.2 -27.8 -822.65 -27.9 -821.2 -28.05 -819.5 -25.4 L-818.9 -24.7 -816.5 -21.75 -815.75 -20.85 -814.95 -20.65 Q-810.55 -19.1 -811.0 -17.65 L-811.45 -17.4 -809.75 -15.85 -807.65 -13.7 -807.0 -14.85 Q-808.65 -15.3 -808.9 -16.15 L-807.65 -16.9 Q-806.9 -17.4 -806.6 -17.95 -805.75 -19.35 -806.05 -20.55 L-805.8 -21.15 Q-806.35 -21.2 -806.45 -21.4 L-806.55 -21.65 Q-807.1 -22.75 -806.1 -23.65 -805.0 -24.8 -804.95 -25.2 L-805.1 -27.6 -804.4 -28.85 -804.05 -29.45 -803.5 -30.35 -803.2 -30.85 Q-803.1 -31.1 -802.75 -33.7 -802.5 -36.0 -801.4 -36.75 L-800.7 -36.6 -800.65 -36.6 -800.35 -36.75 -799.8 -36.2 -798.9 -36.1 -798.9 -34.7 -798.25 -33.45 -797.35 -31.7 -797.05 -31.55 Q-794.25 -29.95 -794.25 -27.85 L-794.1 -26.5 -793.15 -25.3 -793.0 -25.1 -792.95 -25.3 -793.2 -26.1 Q-792.7 -27.45 -791.6 -28.65 L-791.7 -28.95 -791.0 -29.8 -791.0 -29.85 -791.25 -30.5 Q-790.7 -31.7 -789.1 -33.05 L-789.3 -33.0 Q-790.1 -33.05 -790.25 -33.4 L-790.35 -33.75 -790.45 -33.85 -790.9 -34.5 -789.3 -36.0 -789.4 -36.65 -787.85 -38.7 -786.65 -40.15 -785.85 -41.05 -785.75 -41.55 Q-785.1 -46.95 -783.2 -48.55 -782.4 -48.0 -781.65 -46.55 L-781.05 -45.4 -780.15 -43.25 -779.05 -42.5 -778.1 -41.15 -776.05 -39.05 -775.8 -39.1 -775.95 -39.45 -775.05 -40.25 -775.1 -42.35 -775.05 -42.4 -775.4 -42.7 -775.6 -43.4 -774.55 -44.5 -774.3 -44.75 -773.6 -45.45 -773.5 -47.35 -774.45 -47.6 -774.7 -48.2 -772.65 -51.05 -772.65 -51.35 -773.15 -51.75 -773.3 -52.4 -772.85 -53.15 -772.85 -53.35 Q-773.0 -54.05 -772.7 -54.4 L-772.15 -55.05 -771.15 -56.15 Q-769.45 -61.6 -767.2 -66.2 L-767.05 -66.5 -767.0 -66.45 -766.35 -65.85 -766.1 -66.0 Q-765.5 -65.9 -764.05 -63.35 L-762.5 -60.7 -761.25 -58.95 -760.8 -58.15 Q-758.35 -56.0 -758.35 -55.25 -758.35 -54.6 -758.8 -54.45 -759.35 -54.3 -759.3 -53.7 -759.3 -52.15 -755.85 -50.4 L-754.0 -52.85 -755.4 -52.8 Q-755.8 -52.85 -755.85 -53.65 -755.85 -54.25 -755.35 -54.4 -754.8 -54.5 -754.9 -55.2 -754.9 -55.8 -755.4 -56.1 -755.95 -56.55 -755.95 -57.15 -755.95 -58.8 -753.35 -63.45 L-753.4 -63.5 -753.4 -63.7 -753.55 -65.3 Q-753.6 -67.55 -752.0 -68.7 M-606.25 -94.55 L-605.65 -94.75 -605.75 -95.05 -606.25 -94.55 M-320.65 -95.05 L-320.3 -95.25 -320.4 -95.55 -320.65 -95.05 M-247.6 -20.75 Q-246.85 -19.7 -245.75 -19.1 L-244.95 -20.0 -245.8 -20.0 Q-246.3 -19.95 -247.75 -21.2 L-247.6 -20.75 M-737.6 -73.1 L-737.2 -73.1 -737.2 -73.55 -737.6 -73.1 M-790.35 -25.75 L-790.2 -26.2 Q-791.65 -24.95 -792.15 -25.0 L-793.0 -25.0 -792.2 -24.1 Q-791.1 -24.7 -790.35 -25.75 M-687.5 -73.3 L-687.5 -73.1 -687.45 -73.1 -687.5 -73.3 M-717.0 -73.3 L-720.0 -73.3 -715.8 -73.2 -716.85 -73.5 -717.0 -73.3 M-718.0 -82.05 L-718.5 -82.05 Q-718.75 -80.9 -720.25 -77.9 -717.9 -76.0 -716.85 -74.6 L-716.7 -74.6 -717.45 -78.25 -718.0 -82.05 M-892.65 64.2 L-892.7 64.25 -892.6 64.3 -892.65 64.2 M-863.65 32.35 L-863.75 32.8 -863.55 32.4 -863.65 32.35 M-834.7 14.25 L-834.55 14.0 -835.0 13.7 -834.7 14.25 M-921.3 97.2 L-921.45 97.6 -921.0 97.6 -921.3 97.2 M-889.75 159.05 Q-889.75 158.05 -890.6 156.4 L-891.75 153.45 -891.95 150.9 Q-892.15 149.55 -893.25 148.9 -893.85 149.45 -894.1 150.9 -895.15 152.6 -896.65 156.8 -898.25 161.25 -898.25 162.0 L-898.2 162.65 -897.65 163.2 -898.1 163.55 -897.65 163.55 -889.85 163.35 -889.85 163.05 -888.55 161.4 -888.75 160.95 -888.6 160.45 Q-889.2 160.35 -889.25 159.05 L-889.75 159.05 M-826.25 112.05 L-827.4 113.15 -827.7 113.35 -826.6 114.45 -826.55 114.1 Q-826.45 113.35 -825.65 112.85 L-825.05 112.55 -825.05 112.45 -825.3 112.55 Q-826.05 112.45 -826.15 112.15 L-826.15 112.05 -826.25 112.05 M-145.25 69.25 L-145.3 69.2 -145.35 69.3 -145.25 69.25 M-116.5 102.6 L-116.65 102.2 -116.95 102.6 -116.5 102.6 M-149.4 166.4 L-148.1 168.05 -147.05 165.75 -147.2 165.9 Q-148.2 165.45 -148.2 164.05 L-148.7 164.05 Q-148.75 165.35 -149.35 165.45 L-149.2 165.95 -149.4 166.4 M-102.5 182.9 L-98.35 182.95 Q-98.8 181.2 -99.95 180.5 -101.5 180.95 -102.2 182.35 L-102.5 182.9 M-174.3 37.35 L-174.4 37.4 -174.2 37.8 -174.3 37.35 M-202.95 18.7 L-203.4 19.0 -203.25 19.25 -202.95 18.7 M-211.8 117.15 Q-211.9 117.45 -212.65 117.55 L-212.9 117.45 -212.9 117.55 -212.3 117.85 Q-211.5 118.35 -211.4 119.1 L-211.35 119.45 -210.25 118.35 -210.55 118.15 -211.7 117.05 -211.8 117.05 -211.8 117.15" fill="#435252" fill-rule="evenodd" stroke="none"/>
    <path d="M741.35 -65.65 L741.5 -66.1 Q742.5 -68.8 743.1 -69.05 L743.35 -68.95 743.95 -69.7 Q747.05 -65.35 749.7 -60.15 L751.5 -58.7 Q751.85 -58.35 751.85 -57.65 L750.6 -55.9 750.15 -55.1 Q747.7 -52.95 747.7 -52.2 747.7 -51.55 748.15 -51.4 748.7 -51.25 748.65 -50.65 748.65 -49.1 745.2 -47.35 L743.35 -49.8 744.75 -49.75 Q745.15 -49.8 745.2 -50.6 745.2 -51.2 744.7 -51.35 744.15 -51.45 744.25 -52.15 744.25 -52.75 744.75 -53.05 745.3 -53.5 745.3 -54.1 745.3 -55.75 742.7 -60.4 L742.75 -60.45 742.75 -60.65 742.9 -62.25 Q742.95 -64.5 741.35 -65.65 M761.5 -52.0 Q762.05 -53.9 762.85 -54.65 765.0 -53.4 766.5 -48.2 L766.7 -47.7 767.65 -46.95 770.95 -43.95 771.0 -43.5 770.4 -42.35 769.5 -40.2 768.4 -39.45 Q767.75 -38.8 767.45 -38.1 L765.4 -36.0 765.15 -36.05 765.3 -36.4 764.4 -37.2 764.45 -39.3 764.4 -39.35 764.75 -39.65 764.95 -40.35 763.9 -41.45 763.65 -41.7 762.95 -42.4 762.85 -44.3 Q763.6 -44.3 763.8 -44.55 L764.05 -45.15 762.0 -48.0 762.0 -48.3 762.5 -48.7 762.65 -49.35 762.2 -50.1 762.2 -50.3 Q762.35 -51.0 762.05 -51.35 L761.5 -52.0 M777.2 -35.65 L777.15 -36.05 Q776.8 -38.15 779.35 -40.2 L779.6 -40.4 780.2 -42.3 780.6 -43.6 780.4 -45.0 781.3 -45.25 781.75 -45.9 782.1 -45.8 Q782.8 -45.9 782.75 -46.05 783.95 -45.5 784.6 -43.25 L785.55 -40.5 787.95 -37.6 788.2 -35.25 Q788.3 -34.85 789.6 -33.9 L790.0 -33.55 789.7 -33.7 789.15 -33.15 788.25 -33.05 788.25 -31.65 787.6 -30.4 786.7 -28.65 786.4 -28.5 Q783.6 -26.9 783.6 -24.8 L783.45 -23.45 782.5 -22.25 782.35 -22.05 782.3 -22.25 782.55 -23.05 Q782.05 -24.4 780.95 -25.6 L781.05 -25.9 780.35 -26.75 780.35 -26.8 780.6 -27.45 Q780.05 -28.65 778.45 -30.0 L778.65 -29.95 Q779.45 -30.0 779.6 -30.35 L779.7 -30.7 779.8 -30.8 780.25 -31.45 778.65 -32.95 778.75 -33.6 777.2 -35.65 M792.85 -27.3 Q793.45 -27.05 793.6 -26.95 L793.4 -26.4 792.85 -27.3 M793.75 -25.8 L794.45 -26.8 795.9 -28.65 795.4 -28.8 Q794.75 -30.15 798.8 -32.4 L799.55 -32.75 800.15 -33.75 802.5 -37.9 Q803.75 -40.75 805.2 -40.85 806.75 -41.0 807.1 -38.65 L807.2 -34.4 807.4 -28.25 807.35 -28.05 Q807.1 -27.85 806.5 -27.8 L806.45 -25.3 806.8 -23.7 808.25 -21.65 805.85 -18.7 805.1 -17.8 804.3 -17.6 Q799.9 -16.05 800.35 -14.6 L800.8 -14.35 799.1 -12.8 797.0 -10.65 796.35 -11.8 Q798.0 -12.25 798.25 -13.1 L797.0 -13.85 Q796.25 -14.35 795.95 -14.9 795.1 -16.3 795.4 -17.5 L795.15 -18.1 795.8 -18.35 795.9 -18.6 Q796.45 -19.7 795.45 -20.6 794.35 -21.75 794.3 -22.15 L794.45 -24.55 793.75 -25.8 M812.95 -18.4 L814.3 -20.15 814.8 -20.65 814.7 -20.9 Q814.6 -21.5 816.5 -24.45 818.55 -27.55 819.7 -28.15 L820.05 -28.1 820.15 -28.25 821.1 -27.55 821.5 -26.3 821.45 -25.15 Q821.9 -23.55 822.15 -21.15 822.75 -16.35 824.8 -14.15 L824.6 -13.55 Q824.5 -13.3 823.85 -13.15 L824.05 -12.15 824.0 -11.9 Q823.9 -11.7 823.65 -11.65 L824.55 -9.85 824.5 -9.8 824.15 -9.9 Q822.95 -9.5 820.4 -6.8 818.05 -4.2 818.05 -3.6 L818.1 -3.35 817.55 -2.95 Q814.0 0.15 813.95 1.2 L813.45 2.4 811.9 3.75 812.35 4.0 812.9 4.5 811.45 5.35 810.95 5.7 810.4 4.7 810.6 4.7 811.6 4.45 811.85 3.9 809.6 1.05 808.65 -0.1 808.1 -1.65 Q808.6 -1.3 809.25 -1.25 810.05 -1.25 810.2 -1.55 L810.5 -2.15 810.2 -2.85 810.35 -3.35 Q810.95 -2.8 811.3 -2.8 L812.15 -2.85 812.25 -3.0 812.5 -3.25 812.5 -4.0 810.75 -7.7 810.65 -9.3 811.1 -11.75 812.0 -11.85 812.1 -12.05 Q812.25 -14.25 812.9 -18.15 L812.95 -18.4 M825.65 -7.55 L825.75 -7.25 826.45 -6.0 826.35 -5.35 Q826.15 -4.95 825.55 -4.8 L825.4 -6.65 825.65 -7.55 M825.5 -3.95 L825.85 -4.5 828.5 -8.0 829.15 -13.05 Q829.75 -17.8 831.3 -20.1 831.45 -20.55 831.75 -20.85 832.6 -20.35 833.0 -19.45 L834.15 -18.2 835.1 -15.55 Q835.2 -14.85 836.2 -12.65 L837.45 -9.6 837.5 -8.65 837.4 -8.15 836.55 -7.9 837.55 -6.85 841.05 -2.95 841.0 -2.8 Q842.6 -3.4 843.2 -4.15 L845.75 -8.25 Q847.05 -10.4 849.4 -10.5 L849.95 -7.75 850.25 -3.8 Q851.3 -1.4 851.5 0.25 851.8 2.15 851.6 2.8 L851.6 2.85 852.15 4.5 852.05 4.7 Q851.95 5.0 851.2 5.1 L850.95 5.0 850.95 5.1 851.55 5.4 Q852.35 5.9 852.45 6.65 L852.5 7.0 853.6 5.9 853.3 5.7 Q854.0 5.25 854.9 3.7 L856.4 1.05 Q857.1 -0.05 857.9 -0.35 L858.25 -0.8 Q858.75 -2.05 860.8 -1.55 L861.05 -0.25 860.95 2.6 Q860.75 4.85 860.85 5.45 L861.6 7.3 862.45 9.55 862.3 10.4 861.1 10.75 860.25 10.8 860.15 10.85 860.6 12.95 Q860.95 13.9 862.2 15.0 L863.4 15.9 Q864.3 15.75 865.55 14.9 L865.0 14.65 Q864.75 14.4 864.75 13.6 864.75 12.35 865.2 11.95 865.8 11.35 867.45 11.5 L868.85 9.95 Q870.85 7.95 872.55 7.25 L872.75 7.0 872.95 7.1 874.35 6.8 874.55 6.9 874.8 7.75 874.85 8.3 875.35 8.95 876.35 11.1 878.8 14.1 Q880.15 15.65 880.15 16.35 880.15 17.75 878.65 17.95 880.65 19.8 880.65 20.65 880.65 21.3 880.15 22.05 L879.7 23.05 879.9 23.25 881.3 24.6 881.5 23.05 Q881.55 20.4 883.5 20.1 L883.85 20.1 883.85 19.7 Q885.7 18.7 886.25 21.15 L886.4 22.65 886.85 24.65 887.0 25.55 889.15 28.45 889.55 29.0 892.35 30.2 Q892.45 30.1 892.5 30.1 L892.65 30.95 Q892.65 31.5 891.65 31.95 L891.1 32.15 890.65 33.3 Q892.4 33.9 893.15 34.45 L892.15 35.25 890.9 35.45 889.85 35.4 891.65 37.25 891.35 38.15 891.15 38.3 891.55 38.4 Q892.3 39.0 892.75 40.45 L892.9 40.25 894.1 39.2 894.5 38.6 894.15 38.25 Q894.8 36.45 896.5 34.7 L897.45 33.9 Q897.95 32.6 899.1 31.1 901.0 28.6 902.6 29.2 902.8 32.8 904.3 35.15 905.65 37.45 905.65 39.0 905.65 39.45 904.6 40.1 L904.5 40.2 904.55 40.25 Q905.5 41.2 905.65 42.55 906.8 42.7 907.05 43.5 L908.65 42.15 908.65 40.7 Q910.95 39.6 911.85 42.0 912.6 43.95 912.15 46.0 L912.25 46.6 913.95 48.6 Q915.15 50.15 915.15 51.35 915.15 52.9 914.5 53.0 L914.65 53.5 914.45 53.95 915.75 55.6 916.8 53.3 916.65 53.45 Q915.65 53.0 915.65 51.6 915.65 50.6 916.5 48.95 917.5 47.05 917.65 46.0 L917.85 43.45 Q918.05 42.1 919.15 41.45 919.75 42.0 920.0 43.45 921.05 45.15 922.55 49.35 924.15 53.8 924.15 54.55 L924.1 55.2 923.55 55.75 924.45 56.85 Q924.75 57.4 926.15 58.55 927.6 59.55 928.05 60.55 928.85 59.9 930.2 59.55 L929.5 59.25 928.8 58.8 Q928.45 58.3 928.55 57.95 928.75 57.3 931.85 56.8 L931.7 56.4 Q931.4 56.15 931.3 55.45 931.2 54.5 932.95 53.65 935.25 52.65 935.85 51.9 936.4 51.25 936.6 50.15 936.85 49.2 937.45 48.65 938.3 49.85 939.1 52.45 L940.05 56.4 940.3 59.4 940.35 59.65 940.15 59.8 941.5 64.6 941.75 65.4 943.45 62.7 Q946.35 58.65 947.85 59.0 L948.0 59.25 948.2 60.25 948.4 62.45 948.8 63.25 Q949.35 64.55 949.7 67.05 950.45 69.45 951.45 70.95 952.15 72.0 952.45 74.0 L953.05 75.35 953.65 76.35 Q953.1 76.75 954.35 76.55 955.7 76.35 957.55 74.95 959.4 73.65 960.5 72.15 961.2 70.6 961.65 69.9 962.35 68.5 963.9 68.05 965.55 69.1 965.75 72.3 966.0 76.45 966.45 77.3 L968.05 81.25 968.25 81.8 Q969.3 84.75 969.55 86.3 L969.85 88.95 Q969.75 88.95 969.8 89.2 L969.7 89.4 970.15 90.4 970.3 91.9 970.0 92.2 969.85 92.3 Q971.35 99.1 974.75 112.45 L975.2 114.15 959.5 115.35 951.25 116.05 951.45 113.35 Q951.75 110.15 950.35 108.85 948.7 109.0 947.8 110.25 947.2 110.9 946.3 112.3 944.95 113.6 942.9 114.6 940.85 115.65 939.5 115.65 938.25 115.6 938.85 115.35 L938.45 114.25 Q938.05 113.45 938.05 112.8 938.1 110.8 937.55 109.6 936.8 108.0 936.5 105.45 936.6 102.95 936.25 101.55 L936.0 100.75 936.15 98.5 936.1 97.5 936.0 97.25 Q934.6 96.65 931.05 100.2 L928.95 102.55 928.8 101.7 928.25 96.75 928.5 96.6 928.5 96.35 928.75 93.35 928.5 89.3 Q928.1 86.65 927.45 85.35 926.8 85.75 926.35 86.65 926.05 87.7 925.4 88.25 924.65 88.85 922.25 89.5 920.35 90.05 920.3 91.0 920.25 91.7 920.55 92.0 L920.6 92.4 Q917.5 92.4 917.15 93.0 917.0 93.35 917.3 93.9 L917.9 94.4 918.5 94.85 Q917.15 94.95 916.25 95.5 915.95 94.4 914.65 93.2 L913.3 91.25 Q913.15 90.45 912.6 90.05 L913.25 89.55 913.4 88.95 912.7 83.5 Q911.9 79.15 911.15 77.3 911.1 75.8 910.65 75.2 909.45 75.6 909.05 76.95 908.75 77.65 908.4 79.4 908.1 80.45 906.75 82.1 905.7 83.6 905.55 84.6 905.3 85.95 906.15 86.6 L906.35 86.5 904.9 88.6 903.95 86.7 904.2 86.3 904.15 85.8 Q904.8 85.8 905.05 84.3 905.25 83.1 904.35 81.4 L902.95 79.1 903.0 78.5 Q903.75 76.55 903.35 74.5 902.85 72.0 900.45 72.7 L900.2 74.1 Q899.25 74.4 898.35 75.2 898.25 74.35 897.15 74.0 897.2 72.7 896.45 71.6 L896.4 71.5 896.55 71.45 Q897.65 70.95 897.7 70.5 898.0 69.0 897.05 66.5 895.95 63.95 896.35 60.35 894.9 59.5 892.6 61.65 L890.5 64.15 Q889.95 64.4 889.45 64.8 887.5 66.2 886.55 67.9 L886.85 68.25 886.35 68.8 884.95 69.65 884.8 69.8 Q884.55 68.3 883.9 67.6 L883.6 67.45 883.8 67.35 884.2 66.5 882.75 64.35 883.8 64.55 885.05 64.55 886.15 64.0 Q885.5 63.3 883.9 62.4 L884.55 61.35 885.1 61.25 Q886.15 61.0 886.25 60.45 L886.25 59.6 886.1 59.65 883.55 58.0 883.2 57.35 881.6 54.15 881.6 53.25 881.5 51.2 881.6 49.7 Q881.45 47.2 879.45 47.9 L879.4 48.3 879.05 48.25 Q877.05 48.2 876.55 50.8 L876.1 52.3 875.0 50.75 874.8 50.5 875.45 49.55 876.15 48.3 Q876.3 47.45 874.6 45.3 876.15 45.3 876.4 43.95 876.5 43.25 875.4 41.55 L873.5 38.15 872.85 35.9 872.45 35.15 872.5 34.6 872.4 33.75 872.2 33.6 870.8 33.7 870.65 33.55 870.4 33.75 Q868.6 34.15 866.3 35.8 866.2 35.85 864.65 37.05 L862.35 37.15 Q861.85 37.45 861.65 38.7 861.5 39.45 861.7 39.75 L862.2 40.1 859.95 40.75 858.9 39.65 Q857.85 38.4 857.65 37.4 857.55 36.55 857.6 35.2 L857.7 35.15 858.5 35.25 859.75 35.15 Q860.0 34.95 860.05 34.35 L859.6 31.95 859.15 30.0 Q859.15 29.4 859.7 27.25 L860.3 24.45 860.25 23.1 Q858.35 22.25 857.65 23.45 L857.2 23.85 Q856.35 24.0 855.5 24.95 L853.6 27.35 851.7 29.0 851.9 29.25 850.7 30.2 850.7 29.85 Q850.7 29.05 850.0 28.45 L849.45 28.05 849.45 27.95 849.7 28.05 Q850.45 28.1 850.6 27.8 L850.75 27.65 850.45 25.95 850.5 25.9 Q850.8 25.25 850.8 23.35 850.9 21.7 850.25 19.15 L850.6 15.2 850.55 12.4 Q848.15 12.15 846.55 14.0 L843.35 17.65 Q842.65 18.3 840.95 18.55 L841.05 18.45 838.25 14.05 837.4 12.85 838.3 12.75 838.5 12.25 838.6 11.3 Q838.6 10.4 837.85 8.1 837.25 5.75 837.3 5.05 L836.75 2.3 Q836.45 1.35 835.8 0.85 835.6 0.05 835.05 -0.5 L835.05 -0.55 834.85 -0.7 834.3 -0.1 Q832.35 1.95 830.95 6.5 L829.5 11.4 826.3 14.4 825.05 15.85 825.15 15.15 825.1 13.9 825.9 14.05 Q826.65 14.05 826.95 13.65 L827.15 13.0 826.65 11.7 826.05 9.35 825.35 7.0 825.7 6.8 825.8 6.55 825.8 5.55 826.6 5.3 826.9 4.75 Q825.2 2.2 825.45 -2.6 L825.5 -3.95 M65.4 121.05 L57.15 120.35 41.45 119.15 41.9 117.45 46.8 97.3 46.65 97.2 46.35 96.9 46.5 95.4 46.95 94.4 46.85 94.2 46.8 93.95 47.1 91.3 Q47.35 89.75 48.4 86.8 L48.6 86.25 50.2 82.3 Q50.65 81.45 50.9 77.3 51.1 74.1 52.75 73.05 54.3 73.5 55.0 74.9 L56.15 77.15 Q57.25 78.65 59.1 79.95 60.95 81.35 62.3 81.55 63.55 81.75 63.0 81.35 L63.6 80.35 64.2 79.0 Q64.5 77.0 65.2 75.95 66.2 74.45 66.95 72.05 67.3 69.55 67.85 68.25 L68.25 67.45 68.45 65.25 68.65 64.25 68.8 64.0 Q70.3 63.65 73.2 67.7 L74.9 70.4 75.15 69.6 76.5 64.8 76.3 64.65 76.35 64.4 76.6 61.4 Q76.9 59.5 77.55 57.45 78.35 54.85 79.2 53.65 79.8 54.2 80.05 55.15 80.25 56.25 80.8 56.9 81.4 57.65 83.7 58.65 85.45 59.5 85.35 60.45 85.25 61.15 84.95 61.4 L84.8 61.8 Q87.9 62.3 88.1 62.95 L87.85 63.8 87.15 64.25 86.45 64.55 Q87.8 64.9 88.6 65.55 89.05 64.55 90.5 63.55 L92.2 61.85 Q92.5 61.1 93.1 60.75 L92.55 60.2 92.5 59.55 Q92.5 58.8 94.1 54.35 95.6 50.15 96.65 48.45 96.9 47.0 97.5 46.45 98.6 47.1 98.8 48.45 L99.0 51.0 Q99.15 52.05 100.15 53.95 101.0 55.6 101.0 56.6 101.0 58.0 100.0 58.45 L99.85 58.3 100.9 60.6 102.2 58.95 102.0 58.5 102.15 58.0 Q101.5 57.9 101.5 56.35 101.5 55.15 102.7 53.6 L104.4 51.6 104.5 51.0 Q104.05 48.95 104.8 47.0 105.7 44.6 108.0 45.7 L108.0 47.15 109.6 48.5 Q109.85 47.7 111.0 47.55 111.15 46.2 112.1 45.25 L112.15 45.2 112.05 45.1 Q111.0 44.45 111.0 44.0 111.0 42.45 112.35 40.15 113.85 37.8 114.05 34.2 115.65 33.6 117.55 36.1 L119.2 38.9 120.15 39.7 Q121.85 41.45 122.5 43.25 L122.15 43.6 122.55 44.2 123.75 45.25 123.9 45.45 Q124.35 44.0 125.1 43.4 L125.5 43.3 125.3 43.15 Q125.05 42.9 125.0 42.25 L126.8 40.4 125.75 40.45 124.5 40.25 123.5 39.45 Q124.25 38.9 126.0 38.3 L125.55 37.15 125.0 36.95 Q124.0 36.5 124.0 35.95 124.0 35.15 124.15 35.1 L124.3 35.2 127.1 34.0 127.5 33.45 129.65 30.55 129.8 29.65 130.25 27.65 130.4 26.15 Q130.95 23.7 132.8 24.7 L132.8 25.1 133.15 25.1 Q135.1 25.4 135.15 28.05 L135.35 29.6 136.75 28.25 136.95 28.05 136.5 27.05 Q136.0 26.3 136.0 25.65 136.0 24.8 138.0 22.95 136.5 22.75 136.5 21.35 136.5 20.65 137.85 19.1 L140.3 16.1 141.3 13.95 141.8 13.3 141.85 12.75 142.1 11.9 142.3 11.8 143.7 12.1 143.9 12.0 144.1 12.25 Q145.8 12.95 147.8 14.95 L149.2 16.5 Q150.85 16.35 151.45 16.95 151.9 17.35 151.9 18.6 L151.65 19.65 151.1 19.9 Q152.35 20.75 153.25 20.9 L154.45 20.0 156.05 17.95 156.5 15.85 156.4 15.8 155.55 15.75 154.35 15.4 Q154.15 15.15 154.2 14.55 154.3 13.95 155.05 12.3 L155.8 10.45 155.7 7.6 Q155.5 5.4 155.6 4.75 L155.85 3.45 Q157.9 2.95 158.4 4.2 L158.75 4.65 Q159.55 4.95 160.25 6.05 L161.75 8.7 Q162.65 10.25 163.35 10.7 L163.05 10.9 164.15 12.0 164.2 11.65 Q164.3 10.9 165.1 10.4 L165.7 10.1 165.7 10.0 165.45 10.1 Q164.7 10.0 164.6 9.7 L164.5 9.5 165.05 7.85 165.05 7.8 Q164.85 7.15 165.15 5.25 165.35 3.6 166.4 1.2 L166.7 -2.75 Q167.0 -4.8 167.25 -5.5 169.6 -5.4 170.9 -3.25 L173.45 0.85 Q174.05 1.6 175.65 2.2 L175.6 2.05 179.1 -1.85 180.1 -2.9 179.25 -3.15 179.15 -3.65 179.2 -4.6 Q179.35 -5.5 180.45 -7.65 L181.55 -10.55 182.5 -13.2 183.65 -14.45 Q184.05 -15.35 184.9 -15.85 L185.35 -15.1 Q186.9 -12.8 187.5 -8.05 L188.15 -3.0 190.8 0.5 191.15 1.05 191.2 2.4 Q191.45 7.2 189.75 9.75 L190.05 10.3 190.85 10.55 190.85 11.55 190.95 11.8 191.3 12.0 190.6 14.35 190.0 16.7 189.5 18.0 189.7 18.65 Q190.0 19.05 190.75 19.05 L191.55 18.9 191.5 20.15 191.6 20.85 190.35 19.4 187.15 16.4 185.7 11.5 Q184.3 6.95 182.35 4.9 L181.8 4.3 181.65 4.45 181.6 4.5 Q181.05 5.05 180.85 5.85 180.2 6.35 179.9 7.3 L179.35 10.05 178.8 13.1 Q178.05 15.4 178.05 16.3 L178.15 17.25 178.35 17.75 179.25 17.85 178.4 19.05 175.6 23.45 175.7 23.55 Q174.0 23.3 173.3 22.65 L170.1 19.0 Q168.5 17.15 166.1 17.4 166.0 18.1 166.05 20.2 L166.4 24.15 Q165.75 26.7 165.85 28.35 165.85 30.25 166.15 30.9 L166.2 30.95 165.9 32.65 166.05 32.8 166.95 33.05 167.2 32.95 167.2 33.05 166.65 33.45 Q165.95 34.05 165.95 34.85 L165.95 35.2 164.75 34.25 164.95 34.0 163.05 32.35 161.15 29.95 Q160.3 29.0 159.45 28.85 L159.0 28.45 Q158.3 27.25 156.4 28.1 L156.35 29.45 156.95 32.25 157.5 35.0 157.05 36.95 Q156.6 38.7 156.6 39.35 L156.9 40.15 158.15 40.25 158.95 40.15 159.05 40.2 159.0 42.4 Q158.8 43.4 157.75 44.65 L156.7 45.75 Q155.8 45.75 154.45 45.1 L154.95 44.75 Q155.15 44.45 155.0 43.7 154.8 42.45 154.3 42.15 L152.0 42.05 150.35 40.8 Q148.05 39.15 146.25 38.75 L146.0 38.55 145.85 38.7 144.45 38.6 144.25 38.75 144.15 39.6 144.2 40.15 143.8 40.9 143.15 43.15 141.25 46.55 Q140.15 48.25 140.25 48.95 140.5 50.3 142.05 50.3 140.35 52.45 140.5 53.3 140.6 53.9 141.2 54.55 L141.85 55.5 141.65 55.75 140.55 57.3 Q140.25 56.65 140.1 55.8 139.6 53.2 137.6 53.25 L137.25 53.3 137.2 52.9 Q135.2 52.2 135.05 54.7 L135.15 56.2 135.05 58.25 135.05 59.15 133.45 62.35 133.1 63.0 130.55 64.65 130.4 64.6 Q130.25 64.65 130.4 65.45 130.5 66.0 131.55 66.25 L132.1 66.35 Q132.3 66.95 132.75 67.4 131.15 68.3 130.5 69.0 L131.6 69.55 132.85 69.55 133.9 69.35 132.45 71.5 132.85 72.35 133.05 72.45 132.75 72.6 Q132.1 73.3 131.85 74.8 L131.7 74.65 130.3 73.8 129.8 73.25 130.1 72.9 Q129.15 71.2 127.2 69.8 L126.15 69.15 Q125.4 67.95 124.05 66.65 121.75 64.5 120.3 65.35 120.7 68.95 119.6 71.5 118.65 74.0 118.95 75.5 119.0 75.95 120.1 76.45 L120.25 76.5 120.2 76.6 Q119.45 77.7 119.5 79.0 118.4 79.35 118.3 80.2 L116.45 79.1 116.2 77.7 Q113.8 77.0 113.3 79.5 112.9 81.55 113.65 83.5 L113.7 84.1 112.3 86.4 Q111.4 88.1 111.6 89.3 111.85 90.8 112.5 90.8 L112.45 91.3 112.7 91.7 111.75 93.6 110.3 91.5 110.5 91.6 Q111.35 90.95 111.1 89.6 110.95 88.6 109.9 87.1 108.55 85.45 108.25 84.4 L107.6 81.95 Q107.2 80.6 106.0 80.2 105.55 80.8 105.5 82.3 104.75 84.15 103.95 88.5 103.15 93.2 103.25 93.95 L103.4 94.55 104.05 95.05 Q103.5 95.45 103.35 96.25 L102.0 98.2 Q100.7 99.4 100.4 100.5 99.5 99.95 98.15 99.85 L98.75 99.4 99.35 98.9 99.5 98.0 Q99.15 97.4 96.05 97.4 L96.1 97.0 Q96.4 96.7 96.35 96.0 96.3 95.05 94.4 94.5 92.0 93.85 91.25 93.25 90.6 92.7 90.3 91.65 89.85 90.75 89.2 90.35 88.55 91.65 88.15 94.3 87.85 96.45 87.9 98.35 L88.15 101.35 88.15 101.6 88.4 101.75 Q88.05 103.85 87.85 106.7 L87.7 107.55 85.6 105.2 Q82.05 101.65 80.65 102.25 L80.55 102.5 80.5 103.5 80.65 105.75 80.4 106.55 Q80.05 107.95 80.15 110.45 79.85 113.0 79.1 114.6 78.55 115.8 78.6 117.8 78.6 118.45 78.2 119.25 L77.8 120.35 Q78.4 120.6 77.15 120.65 75.8 120.65 73.75 119.6 71.7 118.6 70.35 117.3 L68.85 115.25 Q67.95 114.0 66.3 113.85 64.9 115.15 65.2 118.35 L65.4 121.05 M191.1 0.2 Q190.5 0.05 190.3 -0.35 L190.2 -1.0 190.9 -2.25 191.0 -2.55 191.25 -1.65 191.1 0.2 M192.1 -4.85 L193.0 -6.65 192.65 -6.9 192.6 -7.15 192.8 -8.15 Q192.15 -8.3 192.05 -8.55 L191.85 -9.15 Q193.9 -11.35 194.5 -16.15 194.75 -18.55 195.2 -20.15 L195.15 -21.3 Q195.3 -22.2 195.55 -22.55 L196.5 -23.25 196.6 -23.1 196.95 -23.15 Q198.1 -22.55 200.15 -19.45 202.05 -16.5 201.95 -15.9 L201.85 -15.65 202.35 -15.15 203.7 -13.4 203.75 -13.15 204.55 -7.05 204.65 -6.85 205.55 -6.75 206.0 -4.3 205.9 -2.7 204.15 1.0 204.15 1.75 204.4 2.0 204.5 2.15 205.35 2.2 206.3 1.65 206.45 2.15 206.15 2.85 206.45 3.45 Q206.6 3.75 207.4 3.75 L208.55 3.35 208.0 4.9 207.05 6.05 204.8 8.9 205.05 9.45 206.05 9.7 206.25 9.7 Q205.85 10.15 205.7 10.7 L205.2 10.35 203.75 9.5 Q203.9 9.05 204.3 9.0 L204.75 8.75 203.2 7.4 Q202.7 6.85 202.7 6.2 202.65 5.15 199.1 2.05 L198.55 1.65 198.6 1.4 Q198.6 0.8 196.25 -1.8 193.7 -4.5 192.5 -4.9 L192.15 -4.8 192.1 -4.85 M208.4 -16.65 L209.85 -18.7 210.2 -20.3 210.15 -22.8 Q209.55 -22.85 209.3 -23.05 L209.25 -23.25 209.45 -29.4 209.55 -33.65 Q209.9 -36.0 211.45 -35.85 212.9 -35.75 214.15 -32.9 L216.5 -28.75 217.1 -27.75 217.85 -27.4 Q221.9 -25.15 221.25 -23.8 L220.75 -23.65 222.2 -21.8 222.9 -20.8 222.2 -19.55 222.35 -17.15 221.2 -15.6 Q220.2 -14.7 220.75 -13.6 L220.85 -13.35 Q220.95 -13.15 221.5 -13.1 L221.25 -12.5 Q221.55 -11.3 220.7 -9.9 L219.65 -8.85 218.4 -8.1 Q218.65 -7.25 220.3 -6.8 219.85 -6.45 219.65 -5.65 L217.55 -7.8 215.85 -9.35 216.3 -9.6 Q216.75 -11.05 212.35 -12.6 L211.55 -12.8 210.8 -13.7 208.4 -16.65 M223.25 -21.4 L223.05 -21.95 223.8 -22.3 223.25 -21.4 M226.65 -28.55 L227.05 -28.9 228.45 -30.25 228.7 -32.6 231.1 -35.5 232.05 -38.25 Q232.7 -40.5 233.9 -41.05 233.85 -40.9 234.55 -40.8 L234.9 -40.9 235.35 -40.25 236.25 -40.0 236.05 -38.6 236.45 -37.3 237.05 -35.4 237.3 -35.2 Q239.85 -33.15 239.5 -31.05 L239.45 -30.65 237.9 -28.6 238.0 -27.95 236.4 -26.45 236.85 -25.8 236.95 -25.7 237.05 -25.35 Q237.2 -25.0 238.0 -24.95 L238.2 -25.0 Q236.6 -23.65 236.05 -22.45 L236.3 -21.8 236.3 -21.75 235.6 -20.9 235.7 -20.6 Q234.6 -19.4 234.1 -18.05 L234.35 -17.25 234.3 -17.05 234.15 -17.25 233.2 -18.45 233.05 -19.8 Q233.05 -21.9 230.25 -23.5 L229.95 -23.65 229.05 -25.4 228.4 -26.65 228.4 -28.05 227.5 -28.15 226.95 -28.7 226.65 -28.55 M245.65 -38.5 L245.7 -38.95 249.0 -41.95 249.95 -42.7 250.15 -43.2 Q251.65 -48.4 253.8 -49.65 254.6 -48.9 255.15 -47.0 L254.6 -46.35 Q254.3 -46.0 254.45 -45.3 L254.45 -45.1 254.0 -44.35 Q254.0 -43.85 254.15 -43.7 L254.65 -43.3 254.65 -43.0 252.6 -40.15 252.85 -39.55 Q253.05 -39.3 253.8 -39.3 L253.7 -37.4 253.0 -36.7 252.75 -36.45 251.7 -35.35 251.9 -34.65 252.25 -34.35 252.2 -34.3 252.25 -32.2 251.35 -31.4 251.5 -31.05 251.25 -31.0 249.2 -33.1 248.25 -34.45 247.15 -35.2 246.25 -37.35 245.65 -38.5 M264.8 -52.65 Q264.8 -53.35 265.15 -53.7 L266.95 -55.15 Q269.6 -60.35 272.7 -64.7 L273.3 -63.95 273.55 -64.05 Q274.15 -63.8 275.15 -61.1 L275.3 -60.65 Q273.7 -59.5 273.75 -57.25 273.75 -56.4 273.9 -55.65 L273.9 -55.45 273.95 -55.4 Q271.35 -50.75 271.35 -49.1 271.35 -48.5 271.9 -48.05 272.4 -47.75 272.4 -47.15 272.5 -46.45 271.95 -46.35 271.45 -46.2 271.45 -45.6 271.5 -44.8 271.9 -44.75 L273.3 -44.8 271.45 -42.35 Q268.0 -44.1 268.0 -45.65 267.95 -46.25 268.5 -46.4 268.95 -46.55 268.95 -47.2 268.95 -47.95 266.5 -50.1 L266.05 -50.9 264.8 -52.65 M285.8 -61.2 L285.85 -61.3 285.85 -61.2 285.8 -61.2 M782.35 -21.95 L781.55 -21.05 Q780.45 -21.65 779.7 -22.7 L779.55 -23.15 Q781.0 -21.9 781.5 -21.95 L782.35 -21.95 M236.95 -17.7 Q236.2 -16.65 235.1 -16.05 L234.3 -16.95 235.15 -16.95 Q235.65 -16.9 237.1 -18.15 L236.95 -17.7 M192.6 22.3 L192.3 21.75 192.75 22.05 192.6 22.3 M163.75 40.45 L163.55 40.85 163.65 40.4 163.75 40.45 M134.65 72.25 L134.7 72.35 134.6 72.3 134.65 72.25 M105.85 105.65 L106.0 105.25 106.3 105.65 105.85 105.65 M882.0 67.25 L882.05 67.3 881.95 67.35 882.0 67.25 M823.9 17.05 L824.35 16.75 824.05 17.3 823.9 17.05 M853.1 35.85 L852.9 35.45 853.0 35.4 853.1 35.85 M910.8 100.65 L910.35 100.65 910.65 100.25 910.8 100.65 M-752.0 -68.7 Q-753.6 -67.55 -753.55 -65.3 L-753.4 -63.7 -753.4 -63.5 -753.35 -63.45 Q-755.95 -58.8 -755.95 -57.15 -755.95 -56.55 -755.4 -56.1 -754.9 -55.8 -754.9 -55.2 -754.8 -54.5 -755.35 -54.4 -755.85 -54.25 -755.85 -53.65 -755.8 -52.85 -755.4 -52.8 L-754.0 -52.85 -755.85 -50.4 Q-759.3 -52.15 -759.3 -53.7 -759.35 -54.3 -758.8 -54.45 -758.35 -54.6 -758.35 -55.25 -758.35 -56.0 -760.8 -58.15 L-761.25 -58.95 -762.5 -60.7 Q-762.5 -61.4 -762.15 -61.75 L-760.35 -63.2 Q-757.7 -68.4 -754.6 -72.75 L-754.0 -72.0 -753.75 -72.1 Q-753.15 -71.85 -752.15 -69.15 L-752.0 -68.7 M-772.15 -55.05 L-772.7 -54.4 Q-773.0 -54.05 -772.85 -53.35 L-772.85 -53.15 -773.3 -52.4 -773.15 -51.75 -772.65 -51.35 -772.65 -51.05 -774.7 -48.2 -774.45 -47.6 -773.5 -47.35 -773.6 -45.45 -774.3 -44.75 -774.55 -44.5 -775.6 -43.4 -775.4 -42.7 -775.05 -42.4 -775.1 -42.35 -775.05 -40.25 -775.95 -39.45 -775.8 -39.1 -776.05 -39.05 -778.1 -41.15 -779.05 -42.5 -780.15 -43.25 -781.05 -45.4 -781.65 -46.55 -781.6 -47.0 -778.3 -50.0 -777.35 -50.75 -777.15 -51.25 Q-775.65 -56.45 -773.5 -57.7 -772.7 -56.95 -772.15 -55.05 M-787.85 -38.7 L-789.4 -36.65 -789.3 -36.0 -790.9 -34.5 -790.45 -33.85 -790.35 -33.75 -790.25 -33.4 Q-790.1 -33.05 -789.3 -33.0 L-789.1 -33.05 Q-790.7 -31.7 -791.25 -30.5 L-791.0 -29.85 -791.0 -29.8 -791.7 -28.95 -791.6 -28.65 Q-792.7 -27.45 -793.2 -26.1 L-792.95 -25.3 -793.0 -25.1 -793.15 -25.3 -794.1 -26.5 -794.25 -27.85 Q-794.25 -29.95 -797.05 -31.55 L-797.35 -31.7 -798.25 -33.45 -798.9 -34.7 -798.9 -36.1 -799.8 -36.2 -800.35 -36.75 -800.65 -36.6 -800.25 -36.95 Q-798.95 -37.9 -798.85 -38.3 L-798.6 -40.65 -796.2 -43.55 Q-796.05 -43.8 -795.25 -46.3 -794.6 -48.55 -793.4 -49.1 -793.45 -48.95 -792.75 -48.85 L-792.4 -48.95 -791.95 -48.3 -791.05 -48.05 -791.25 -46.65 -790.85 -45.35 -790.25 -43.45 -790.0 -43.25 Q-787.45 -41.2 -787.8 -39.1 L-787.85 -38.7 M-803.5 -30.35 L-804.05 -29.45 -804.25 -30.0 -803.5 -30.35 M-804.4 -28.85 L-805.1 -27.6 -804.95 -25.2 Q-805.0 -24.8 -806.1 -23.65 -807.1 -22.75 -806.55 -21.65 L-806.45 -21.4 Q-806.35 -21.2 -805.8 -21.15 L-806.05 -20.55 Q-805.75 -19.35 -806.6 -17.95 -806.9 -17.4 -807.65 -16.9 L-808.9 -16.15 Q-808.65 -15.3 -807.0 -14.85 L-807.65 -13.7 -809.75 -15.85 -811.45 -17.4 -811.0 -17.65 Q-810.55 -19.1 -814.95 -20.65 L-815.75 -20.85 -816.5 -21.75 -818.9 -24.7 -817.45 -26.75 -817.1 -28.35 -817.15 -30.85 -818.0 -31.1 -818.05 -31.3 -817.85 -37.45 -817.75 -41.7 Q-817.4 -44.05 -815.85 -43.9 -814.4 -43.8 -813.15 -40.95 L-810.8 -36.8 -810.2 -35.8 -809.45 -35.45 Q-805.4 -33.2 -806.05 -31.85 L-806.55 -31.7 -805.1 -29.85 -804.4 -28.85 M-823.6 -21.45 L-823.55 -21.2 Q-822.9 -17.3 -822.75 -15.1 L-822.65 -14.9 -821.75 -14.8 -821.3 -12.35 -821.4 -10.75 -823.15 -7.05 -823.15 -6.3 -822.9 -6.05 -822.8 -5.9 -821.95 -5.85 Q-821.6 -5.85 -821.0 -6.4 L-820.85 -5.9 -821.15 -5.2 -820.85 -4.6 Q-820.7 -4.3 -819.9 -4.3 -819.25 -4.35 -818.75 -4.7 L-819.3 -3.15 -820.25 -2.0 -822.5 0.85 -822.25 1.4 -821.25 1.65 -821.05 1.65 -821.6 2.65 -822.1 2.3 Q-822.85 1.8 -823.55 1.45 L-823.0 0.95 -822.55 0.7 -824.1 -0.65 Q-824.6 -1.2 -824.6 -1.85 -824.65 -2.9 -828.2 -6.0 L-828.75 -6.4 -828.7 -6.65 Q-828.7 -7.25 -831.05 -9.85 -833.6 -12.55 -834.8 -12.95 L-835.15 -12.85 -835.2 -12.9 -834.3 -14.7 Q-834.55 -14.75 -834.65 -14.95 L-834.7 -15.2 -834.5 -16.2 -835.25 -16.6 -835.45 -17.2 Q-833.4 -19.4 -832.8 -24.2 -832.55 -26.6 -832.1 -28.2 L-832.15 -29.35 -831.75 -30.6 Q-831.55 -30.95 -830.8 -31.3 L-830.7 -31.15 -830.35 -31.2 Q-829.2 -30.6 -827.15 -27.5 -825.25 -24.55 -825.35 -23.95 L-825.45 -23.7 -824.95 -23.2 -823.6 -21.45 M-836.3 -10.6 L-836.05 -9.7 -836.2 -7.85 -837.0 -8.4 -837.1 -9.05 -836.4 -10.3 -836.3 -10.6 M-836.15 -7.0 L-836.1 -5.65 Q-835.85 -0.85 -837.55 1.7 L-837.25 2.25 -836.45 2.5 -836.45 3.5 -836.35 3.75 Q-836.25 3.95 -836.0 3.95 -836.1 4.7 -836.7 6.3 L-837.3 8.65 -837.8 9.95 -837.6 10.6 Q-837.3 11.0 -836.55 11.0 L-835.75 10.85 -835.8 12.1 -835.7 12.8 -836.95 11.35 -840.15 8.35 -841.6 3.45 Q-843.0 -1.1 -844.95 -3.15 L-845.5 -3.75 -845.7 -3.6 -845.7 -3.55 -846.45 -2.2 Q-847.1 -1.7 -847.4 -0.75 L-847.95 2.0 Q-847.9 2.7 -848.5 5.05 -849.25 7.35 -849.25 8.25 L-849.15 9.2 -848.95 9.7 -848.05 9.8 -848.9 11.0 -851.7 15.4 -851.6 15.5 Q-853.3 15.25 -854.0 14.6 L-857.2 10.95 Q-858.8 9.1 -861.2 9.35 L-861.25 12.15 -860.9 16.1 Q-861.55 18.65 -861.45 20.3 -861.45 22.2 -861.15 22.85 L-861.1 22.9 -861.4 24.6 -861.25 24.75 -860.35 25.0 -860.1 24.9 -860.1 25.0 -860.65 25.4 Q-861.35 26.0 -861.35 26.8 L-861.35 27.15 -862.55 26.2 -862.35 25.95 -864.25 24.3 -866.15 21.9 Q-867.0 20.95 -867.85 20.8 L-868.3 20.4 Q-869.0 19.2 -870.9 20.05 L-870.95 21.4 -870.35 24.2 Q-869.8 26.35 -869.8 26.95 L-870.25 28.9 -870.7 31.3 Q-870.65 31.9 -870.4 32.1 L-869.15 32.2 -868.35 32.1 -868.25 32.15 Q-868.2 33.5 -868.3 34.35 -868.5 35.35 -869.55 36.6 L-870.6 37.7 Q-871.5 37.7 -872.85 37.05 L-872.35 36.7 Q-872.15 36.4 -872.3 35.65 -872.5 34.4 -873.0 34.1 L-875.3 34.0 Q-876.85 32.8 -876.95 32.75 -879.25 31.1 -881.05 30.7 L-881.3 30.5 -881.45 30.65 -882.85 30.55 -883.05 30.7 -883.15 31.55 -883.1 32.1 -883.5 32.85 -884.15 35.1 -886.05 38.5 Q-887.15 40.2 -887.05 40.9 -886.8 42.25 -885.25 42.25 -886.95 44.4 -886.8 45.25 L-886.1 46.5 -885.45 47.45 -885.65 47.7 -886.75 49.25 -887.2 47.75 Q-887.7 45.15 -889.7 45.2 L-890.05 45.25 -890.1 44.85 Q-892.1 44.15 -892.25 46.65 L-892.15 48.15 -892.25 50.2 -892.25 51.1 -893.85 54.3 -894.2 54.95 -896.75 56.6 -896.9 56.55 -896.9 57.4 Q-896.8 57.95 -895.75 58.2 L-895.2 58.3 -894.55 59.35 -896.8 60.95 -895.7 61.5 -894.45 61.5 -893.4 61.3 -894.85 63.45 -894.45 64.3 -894.25 64.4 -894.55 64.55 Q-895.2 65.25 -895.45 66.75 L-895.6 66.6 -897.0 65.75 -897.5 65.2 -897.2 64.85 Q-898.15 63.15 -900.1 61.75 -900.6 61.35 -901.15 61.1 -901.9 59.9 -903.25 58.6 -905.55 56.45 -907.0 57.3 -906.6 60.9 -907.7 63.45 -908.65 65.95 -908.35 67.45 -908.3 67.9 -907.2 68.4 L-907.05 68.45 -907.1 68.55 Q-907.85 69.65 -907.8 70.95 -908.9 71.3 -909.0 72.15 -909.9 71.35 -910.85 71.05 L-911.1 69.65 Q-913.5 68.95 -914.0 71.45 -914.4 73.5 -913.65 75.45 L-913.6 76.05 -915.0 78.35 Q-915.9 80.05 -915.7 81.25 -915.45 82.75 -914.8 82.75 L-914.85 83.25 -914.6 83.65 -915.55 85.55 -917.0 83.45 -916.8 83.55 Q-915.95 82.9 -916.2 81.55 -916.35 80.55 -917.4 79.05 -918.75 77.4 -919.05 76.35 -919.4 74.6 -919.7 73.9 -920.1 72.55 -921.3 72.15 -921.75 72.75 -921.8 74.25 -922.55 76.1 -923.35 80.45 L-924.05 85.9 -923.9 86.5 -923.25 87.0 Q-923.8 87.4 -923.95 88.2 -924.15 88.8 -925.3 90.15 -926.6 91.35 -926.9 92.45 -927.8 91.9 -929.15 91.8 L-928.55 91.35 -927.95 90.85 Q-927.65 90.3 -927.8 89.95 -928.15 89.35 -931.25 89.35 L-931.2 88.95 Q-930.9 88.65 -930.95 87.95 -931.0 87.0 -932.9 86.45 -935.3 85.8 -936.05 85.2 -936.7 84.65 -937.0 83.6 -937.45 82.7 -938.1 82.3 -938.75 83.6 -939.15 86.25 L-939.4 90.3 -939.15 93.3 -939.15 93.55 -938.9 93.7 -939.45 98.65 -939.6 99.5 -941.7 97.15 Q-945.25 93.6 -946.65 94.2 L-946.75 94.45 -946.8 95.45 -946.65 97.7 -946.9 98.5 Q-947.25 99.9 -947.15 102.4 -947.45 104.95 -948.2 106.55 -948.75 107.75 -948.7 109.75 -948.7 110.4 -949.1 111.2 L-949.5 112.3 Q-948.9 112.55 -950.15 112.6 -951.5 112.6 -953.55 111.55 -955.6 110.55 -956.95 109.25 -957.85 107.85 -958.45 107.2 -959.35 105.95 -961.0 105.8 -962.4 107.1 -962.1 110.3 L-961.9 113.0 -970.15 112.3 -985.85 111.1 -985.4 109.4 Q-982.0 96.05 -980.5 89.25 L-980.65 89.15 -980.95 88.85 -980.8 87.35 -980.35 86.35 -980.45 86.15 Q-980.4 85.9 -980.5 85.9 L-980.2 83.25 Q-979.95 81.7 -978.9 78.75 L-978.7 78.2 -977.1 74.25 Q-976.65 73.4 -976.4 69.25 -976.2 66.05 -974.55 65.0 -973.0 65.45 -972.3 66.85 L-971.15 69.1 Q-970.05 70.6 -968.2 71.9 -966.35 73.3 -965.0 73.5 -963.75 73.7 -964.3 73.3 L-963.7 72.3 Q-963.2 71.6 -963.1 70.95 -962.8 68.95 -962.1 67.9 -961.1 66.4 -960.35 64.0 -960.0 61.5 -959.45 60.2 L-959.05 59.4 -958.85 57.2 -958.65 56.2 -958.5 55.95 Q-957.0 55.6 -954.1 59.65 L-952.4 62.35 -952.15 61.55 -950.8 56.75 -951.0 56.6 -950.95 56.35 -950.7 53.35 -949.75 49.4 Q-948.95 46.8 -948.1 45.6 -947.5 46.15 -947.25 47.1 -947.05 48.2 -946.5 48.85 -945.9 49.6 -943.6 50.6 -941.85 51.45 -941.95 52.4 L-942.35 53.35 -942.5 53.75 Q-939.4 54.25 -939.2 54.9 -939.1 55.25 -939.45 55.75 L-940.15 56.2 -940.85 56.5 Q-939.5 56.85 -938.7 57.5 -938.25 56.5 -936.8 55.5 -935.4 54.35 -935.1 53.8 -934.8 53.05 -934.2 52.7 L-934.75 52.15 -934.8 51.5 Q-934.8 50.75 -933.2 46.3 -931.7 42.1 -930.65 40.4 -930.4 38.95 -929.8 38.4 -928.7 39.05 -928.5 40.4 L-928.3 42.95 Q-928.15 44.0 -927.15 45.9 -926.3 47.55 -926.3 48.55 -926.3 49.95 -927.3 50.4 L-927.45 50.25 -926.4 52.55 -925.1 50.9 -925.3 50.45 -925.15 49.95 Q-925.8 49.85 -925.8 48.3 -925.8 47.1 -924.6 45.55 L-922.9 43.55 -922.8 42.95 Q-923.25 40.9 -922.5 38.95 -921.6 36.55 -919.3 37.65 L-919.3 39.1 Q-918.45 39.55 -917.7 40.45 -917.45 39.65 -916.3 39.5 -916.15 38.15 -915.2 37.2 L-915.15 37.15 -915.25 37.05 Q-916.3 36.4 -916.3 35.95 -916.3 34.4 -914.95 32.1 -913.45 29.75 -913.25 26.15 -911.65 25.55 -909.75 28.05 -908.6 29.55 -908.1 30.85 L-907.15 31.65 Q-905.45 33.4 -904.8 35.2 L-905.15 35.55 -904.75 36.15 -903.55 37.2 -903.4 37.4 Q-902.95 35.95 -902.2 35.35 L-901.8 35.25 -902.0 35.1 -902.3 34.2 -900.5 32.35 -901.55 32.4 -902.8 32.2 -903.8 31.4 Q-903.05 30.85 -901.3 30.25 L-901.75 29.1 -902.3 28.9 Q-903.3 28.45 -903.3 27.9 L-903.15 27.05 -903.0 27.15 -900.2 25.95 -899.8 25.4 -897.65 22.5 -897.5 21.6 -897.05 19.6 -896.9 18.1 Q-896.35 15.65 -894.5 16.65 L-894.5 17.05 -894.15 17.05 Q-892.2 17.35 -892.15 20.0 L-891.95 21.55 -890.55 20.2 -890.35 20.0 -890.8 19.0 Q-891.3 18.25 -891.3 17.6 -891.3 16.75 -889.3 14.9 -890.8 14.7 -890.8 13.3 -890.8 12.6 -889.45 11.05 L-887.0 8.05 -886.0 5.9 -885.5 5.25 -885.45 4.7 -885.2 3.85 -885.0 3.75 -883.6 4.05 -883.4 3.95 -883.2 4.2 Q-881.5 4.9 -879.5 6.9 L-878.1 8.45 Q-876.45 8.3 -875.85 8.9 -875.4 9.3 -875.4 10.55 -875.4 11.35 -875.65 11.6 L-876.2 11.85 Q-874.95 12.7 -874.05 12.85 L-872.85 11.95 Q-871.6 10.85 -871.25 9.9 L-870.8 7.8 -870.9 7.75 -871.75 7.7 -872.95 7.35 -873.1 6.5 -872.25 4.25 -871.5 2.4 Q-871.4 1.8 -871.6 -0.45 L-871.7 -3.3 -871.45 -4.6 Q-869.4 -5.1 -868.9 -3.85 L-868.55 -3.4 Q-867.75 -3.1 -867.05 -2.0 L-865.55 0.65 Q-864.65 2.2 -863.95 2.65 L-864.25 2.85 -863.15 3.95 -863.1 3.6 Q-863.0 2.85 -862.2 2.35 L-861.6 2.05 -861.6 1.95 -861.85 2.05 Q-862.6 1.95 -862.7 1.65 L-862.8 1.45 -862.25 -0.2 -862.25 -0.25 Q-862.45 -0.9 -862.15 -2.8 -861.95 -4.45 -860.9 -6.85 L-860.6 -10.8 -860.05 -13.55 Q-857.7 -13.45 -856.4 -11.3 L-853.85 -7.2 Q-853.25 -6.45 -851.65 -5.85 L-851.7 -6.0 -848.2 -9.9 -847.2 -10.95 Q-847.85 -11.05 -848.05 -11.2 L-848.15 -11.7 -848.1 -12.65 Q-847.95 -13.55 -846.85 -15.7 -845.85 -17.9 -845.75 -18.6 L-844.8 -21.25 -843.65 -22.5 Q-843.25 -23.4 -842.4 -23.9 L-841.95 -23.15 Q-840.4 -20.85 -839.8 -16.1 L-839.15 -11.05 -836.5 -7.55 -836.15 -7.0 M-76.05 118.0 L-75.85 115.3 Q-75.55 112.1 -76.95 110.8 -78.6 110.95 -79.5 112.2 L-81.0 114.25 Q-82.35 115.55 -84.4 116.55 -86.45 117.6 -87.8 117.6 -89.05 117.55 -88.45 117.3 L-88.85 116.2 -89.25 114.75 Q-89.2 112.75 -89.75 111.55 -90.5 109.95 -90.8 107.4 -90.7 104.9 -91.05 103.5 L-91.3 102.7 -91.15 100.45 -91.2 99.45 -91.3 99.2 Q-92.7 98.6 -96.25 102.15 L-98.35 104.5 -98.5 103.65 Q-98.7 100.8 -99.05 98.7 L-98.8 98.55 -98.8 98.3 -98.55 95.3 Q-98.5 93.4 -98.8 91.25 -99.2 88.6 -99.85 87.3 -100.5 87.7 -100.95 88.6 -101.25 89.65 -101.9 90.2 -102.65 90.8 -105.05 91.45 -106.95 92.0 -107.0 92.95 -107.05 93.65 -106.75 93.95 -106.6 94.2 -106.7 94.35 -109.8 94.35 -110.15 94.95 L-110.0 95.85 -109.4 96.35 -108.8 96.8 Q-110.15 96.9 -111.05 97.45 -111.35 96.35 -112.65 95.15 L-114.0 93.2 Q-114.15 92.4 -114.7 92.0 L-114.05 91.5 -113.9 90.9 Q-113.8 90.15 -114.6 85.45 -115.4 81.1 -116.15 79.25 -116.2 77.75 -116.65 77.15 -117.85 77.55 -118.25 78.9 L-118.9 81.35 Q-119.2 82.4 -120.55 84.05 -121.6 85.55 -121.75 86.55 -122.0 87.9 -121.15 88.55 L-120.95 88.45 -122.4 90.55 -123.35 88.65 -123.1 88.25 -123.15 87.75 Q-122.5 87.75 -122.25 86.25 -122.05 85.05 -122.95 83.35 L-124.35 81.05 -124.3 80.45 Q-123.55 78.5 -123.95 76.45 -124.45 73.95 -126.85 74.65 L-127.1 76.05 Q-128.05 76.35 -128.95 77.15 -129.05 76.3 -130.15 75.95 -130.1 74.65 -130.85 73.55 L-130.9 73.45 -130.75 73.4 Q-129.65 72.9 -129.6 72.45 -129.3 70.95 -130.25 68.45 -131.35 65.9 -130.95 62.3 -132.4 61.45 -134.7 63.6 -136.05 64.9 -136.8 66.1 L-137.85 66.75 Q-139.8 68.15 -140.75 69.85 L-140.45 70.2 -140.95 70.75 -142.35 71.6 -142.5 71.75 Q-142.75 70.25 -143.4 69.55 L-143.7 69.4 -143.5 69.3 -143.1 68.45 -144.55 66.3 -143.5 66.5 -142.25 66.5 -141.15 65.95 -143.4 64.35 -142.75 63.3 -142.2 63.2 Q-141.15 62.95 -141.05 62.4 -140.9 61.6 -141.05 61.55 L-141.2 61.6 -143.75 59.95 -144.1 59.3 -145.7 56.1 -145.7 55.2 -145.8 53.15 -145.7 51.65 Q-145.85 49.15 -147.85 49.85 L-147.9 50.25 -148.25 50.2 Q-150.25 50.15 -150.75 52.75 -150.9 53.6 -151.2 54.25 L-152.3 52.7 -152.5 52.45 -151.85 51.5 Q-151.25 50.85 -151.15 50.25 -151.0 49.4 -152.7 47.25 -151.15 47.25 -150.9 45.9 -150.8 45.2 -151.9 43.5 L-153.8 40.1 -154.45 37.85 -154.85 37.1 -154.8 36.55 -154.9 35.7 -155.1 35.55 -156.5 35.65 -156.65 35.5 -156.9 35.7 Q-158.7 36.1 -161.0 37.75 L-162.65 39.0 -164.95 39.1 Q-165.45 39.4 -165.65 40.65 -165.8 41.4 -165.6 41.7 L-165.1 42.05 Q-166.45 42.7 -167.35 42.7 L-168.4 41.6 Q-169.45 40.35 -169.65 39.35 L-169.7 37.15 -169.6 37.1 -168.8 37.2 -167.55 37.1 -167.25 36.3 Q-167.25 35.65 -167.7 33.9 L-168.15 31.95 -167.6 29.2 -167.0 26.4 -167.05 25.05 Q-168.95 24.2 -169.65 25.4 L-170.1 25.8 Q-170.95 25.95 -171.8 26.9 L-173.7 29.3 Q-174.9 30.65 -175.6 30.95 L-175.4 31.2 -176.6 32.15 -176.6 31.8 Q-176.6 31.0 -177.3 30.4 L-177.85 30.0 -177.85 29.9 -177.6 30.0 Q-176.85 30.05 -176.7 29.75 L-176.55 29.6 -176.85 27.9 -176.8 27.85 Q-176.5 27.2 -176.5 25.3 -176.4 23.65 -177.05 21.1 L-176.7 17.15 Q-176.65 15.05 -176.75 14.35 -179.15 14.1 -180.75 15.95 L-183.95 19.6 Q-184.65 20.25 -186.35 20.5 L-186.25 20.4 -189.05 16.0 -189.9 14.8 -189.0 14.7 -188.8 14.2 -188.7 13.25 Q-188.7 12.35 -189.45 10.05 L-190.0 7.0 -190.55 4.25 Q-190.85 3.3 -191.5 2.8 -191.7 2.0 -192.25 1.45 L-192.3 1.4 -192.45 1.25 -193.0 1.85 Q-194.95 3.9 -196.35 8.45 L-197.8 13.35 -201.0 16.35 -202.25 17.8 -202.15 17.1 -202.2 15.85 -201.4 16.0 Q-200.65 16.0 -200.35 15.6 L-200.15 14.95 -200.65 13.65 Q-200.65 13.1 -201.25 11.3 L-201.95 8.95 -201.6 8.75 -201.5 8.5 -201.5 7.5 -200.7 7.25 -200.4 6.7 Q-202.1 4.15 -201.85 -0.65 L-201.8 -2.0 -201.45 -2.55 -198.8 -6.05 -198.15 -11.1 Q-197.55 -15.85 -196.0 -18.15 L-195.55 -18.9 Q-194.7 -18.4 -194.3 -17.5 -193.6 -17.1 -193.15 -16.25 L-192.2 -13.6 -191.1 -10.7 Q-190.0 -8.55 -189.85 -7.65 L-189.8 -6.7 -189.9 -6.2 -190.75 -5.95 -189.75 -4.9 -186.25 -1.0 -186.3 -0.85 Q-184.7 -1.45 -184.1 -2.2 L-181.55 -6.3 Q-180.25 -8.45 -177.9 -8.55 -177.65 -7.85 -177.35 -5.8 L-177.05 -1.85 Q-176.0 0.55 -175.8 2.2 -175.5 4.1 -175.7 4.75 L-175.7 4.8 -175.15 6.45 -175.25 6.65 Q-175.35 6.95 -176.1 7.05 L-176.35 6.95 -176.35 7.05 -175.75 7.35 Q-174.95 7.85 -174.85 8.6 L-174.8 8.95 -173.7 7.85 -174.0 7.65 Q-173.3 7.2 -172.4 5.65 L-170.9 3.0 Q-170.2 1.9 -169.4 1.6 L-169.05 1.15 Q-168.55 -0.1 -166.5 0.4 L-166.25 1.7 Q-166.15 2.35 -166.35 4.55 L-166.45 7.4 -165.7 9.25 -164.85 11.5 Q-164.8 12.1 -165.0 12.35 L-166.2 12.7 -167.05 12.75 -167.15 12.8 -166.7 14.9 -165.1 16.95 -163.9 17.85 Q-163.0 17.7 -161.75 16.85 L-162.3 16.6 -162.55 15.55 Q-162.55 14.3 -162.1 13.9 -161.5 13.3 -159.85 13.45 L-158.45 11.9 Q-156.45 9.9 -154.75 9.2 L-154.55 8.95 -154.35 9.05 -152.95 8.75 -152.75 8.85 Q-152.6 8.95 -152.5 9.7 L-152.45 10.25 -151.95 10.9 -150.95 13.05 -148.5 16.05 Q-147.15 17.6 -147.15 18.3 -147.15 19.7 -148.65 19.9 -146.65 21.75 -146.65 22.6 -146.65 23.25 -147.15 24.0 L-147.6 25.0 -147.4 25.2 -146.0 26.55 -145.8 25.0 Q-145.75 22.35 -143.8 22.05 L-143.45 22.05 -143.45 21.65 Q-141.6 20.65 -141.05 23.1 L-140.9 24.6 -140.45 26.6 -140.3 27.5 -138.15 30.4 -137.75 30.95 -134.95 32.15 -134.8 32.05 Q-134.65 32.1 -134.65 32.9 -134.65 33.45 -135.65 33.9 L-136.2 34.1 -136.65 35.25 Q-134.9 35.85 -134.15 36.4 L-135.15 37.2 -136.4 37.4 -137.45 37.35 -135.65 39.2 Q-135.7 39.85 -135.95 40.1 L-136.15 40.25 -135.75 40.35 Q-135.0 40.95 -134.55 42.4 L-134.4 42.2 -133.2 41.15 -132.8 40.55 -133.15 40.2 Q-132.5 38.4 -130.8 36.65 L-129.85 35.85 -128.2 33.05 Q-126.3 30.55 -124.7 31.15 -124.5 34.75 -123.0 37.1 -121.65 39.4 -121.65 40.95 -121.65 41.4 -122.7 42.05 L-122.8 42.15 -122.75 42.2 Q-121.8 43.15 -121.65 44.5 -120.5 44.65 -120.25 45.45 -119.5 44.55 -118.65 44.1 L-118.65 42.65 Q-116.35 41.55 -115.45 43.95 -114.7 45.9 -115.15 47.95 L-115.05 48.55 -113.35 50.55 Q-112.15 52.1 -112.15 53.3 -112.15 54.85 -112.8 54.95 L-112.65 55.45 -112.85 55.9 -111.55 57.55 -110.5 55.25 -110.65 55.4 Q-111.65 54.95 -111.65 53.55 -111.65 52.55 -110.8 50.9 -109.8 49.0 -109.65 47.95 L-109.45 45.4 Q-109.25 44.05 -108.15 43.4 -107.55 43.95 -107.3 45.4 -106.25 47.1 -104.75 51.3 -103.15 55.75 -103.15 56.5 L-103.2 57.15 -103.75 57.7 Q-103.15 58.05 -102.85 58.8 L-101.15 60.5 Q-99.7 61.5 -99.25 62.5 -98.45 61.85 -97.1 61.5 L-97.8 61.2 -98.5 60.75 -98.75 59.9 Q-98.55 59.25 -95.45 58.75 L-95.6 58.35 -96.0 57.4 Q-96.1 56.45 -94.35 55.6 -92.05 54.6 -91.45 53.85 -90.9 53.2 -90.7 52.1 -90.45 51.15 -89.85 50.6 -89.0 51.8 -88.2 54.4 -87.55 56.45 -87.25 58.35 L-87.0 61.35 -86.95 61.6 -87.15 61.75 -85.8 66.55 -85.55 67.35 -83.85 64.65 Q-80.95 60.6 -79.45 60.95 L-79.3 61.2 -79.1 62.2 -78.9 64.4 -78.5 65.2 Q-77.95 66.5 -77.6 69.0 -76.85 71.4 -75.85 72.9 -75.15 73.95 -74.85 75.95 L-74.25 77.3 -73.65 78.3 Q-74.2 78.7 -72.95 78.5 -71.6 78.3 -69.75 76.9 -67.9 75.6 -66.8 74.1 L-65.65 71.85 Q-64.95 70.45 -63.4 70.0 -61.75 71.05 -61.55 74.25 -61.3 78.4 -60.85 79.25 L-59.25 83.2 -59.05 83.75 Q-58.0 86.7 -57.75 88.25 L-57.45 90.9 -57.5 91.15 -57.6 91.35 -57.15 92.35 -57.0 93.85 -57.3 94.15 -57.45 94.25 -52.55 114.4 -52.1 116.1 -67.8 117.3 -76.05 118.0 M-201.75 -2.85 L-201.9 -4.7 -201.65 -5.6 -201.55 -5.3 -200.85 -4.05 -200.95 -3.4 Q-201.15 -3.0 -201.75 -2.85 M-202.75 -7.9 L-202.8 -7.85 -203.15 -7.95 Q-204.35 -7.55 -206.9 -4.85 -209.25 -2.25 -209.25 -1.65 L-209.2 -1.4 -209.75 -1.0 Q-213.3 2.1 -213.35 3.15 -213.35 3.8 -213.85 4.35 L-215.4 5.7 -214.95 5.95 -214.4 6.45 -215.85 7.3 -216.35 7.65 -216.9 6.65 -216.7 6.65 -215.7 6.4 -215.45 5.85 Q-216.15 4.75 -217.7 3.0 L-218.65 1.85 -219.2 0.3 -218.05 0.7 Q-217.25 0.7 -217.1 0.4 L-216.8 -0.2 -217.1 -0.9 -216.95 -1.4 Q-216.35 -0.85 -216.0 -0.85 L-215.15 -0.9 -215.05 -1.05 -214.8 -1.3 -214.8 -2.05 -216.55 -5.75 -216.65 -7.35 -216.2 -9.8 -215.3 -9.9 -215.2 -10.1 -214.4 -16.2 -214.35 -16.45 -213.0 -18.2 -212.5 -18.7 -212.6 -18.95 Q-212.7 -19.55 -210.8 -22.5 -208.75 -25.6 -207.6 -26.2 L-207.25 -26.15 -207.15 -26.3 -206.2 -25.6 -205.8 -24.35 -205.85 -23.2 Q-205.4 -21.6 -205.15 -19.2 -204.55 -14.4 -202.5 -12.2 L-202.7 -11.6 Q-202.8 -11.35 -203.45 -11.2 L-203.25 -10.2 -203.3 -9.95 Q-203.4 -9.75 -203.65 -9.7 L-202.75 -7.9 M-219.05 -19.7 L-221.45 -16.75 -222.2 -15.85 -223.0 -15.65 Q-227.4 -14.1 -226.95 -12.65 L-226.5 -12.4 -228.2 -10.85 -230.3 -8.7 Q-230.5 -9.5 -230.95 -9.85 -229.3 -10.3 -229.05 -11.15 L-230.3 -11.9 -231.35 -12.95 Q-232.2 -14.35 -231.9 -15.55 L-232.15 -16.15 Q-231.6 -16.2 -231.5 -16.4 L-231.4 -16.65 Q-230.85 -17.75 -231.85 -18.65 L-233.0 -20.2 -232.85 -22.6 -233.55 -23.85 -232.85 -24.85 -231.4 -26.7 -231.9 -26.85 Q-232.55 -28.2 -228.5 -30.45 -228.15 -30.65 -227.75 -30.8 L-227.15 -31.8 -224.8 -35.95 Q-223.55 -38.8 -222.1 -38.9 -220.55 -39.05 -220.2 -36.7 L-220.1 -32.45 -219.9 -26.3 -219.95 -26.1 Q-220.2 -25.9 -220.8 -25.85 L-220.85 -23.35 -220.5 -21.75 -219.05 -19.7 M-233.9 -24.45 L-234.45 -25.35 -233.7 -25.0 -233.9 -24.45 M-237.3 -31.6 L-237.6 -31.75 -238.15 -31.2 -239.05 -31.1 -239.05 -29.7 -239.7 -28.45 -240.6 -26.7 -240.9 -26.55 Q-243.7 -24.95 -243.7 -22.85 L-243.85 -21.5 -244.8 -20.3 -244.95 -20.1 -245.0 -20.3 -244.75 -21.1 Q-245.25 -22.45 -246.35 -23.65 L-246.25 -23.95 -246.95 -24.8 -246.95 -24.85 -246.7 -25.5 Q-247.25 -26.7 -248.85 -28.05 L-248.65 -28.0 Q-247.85 -28.05 -247.7 -28.4 L-247.6 -28.75 -247.5 -28.85 -247.05 -29.5 -248.65 -31.0 -248.55 -31.65 -250.1 -33.7 -250.15 -34.1 Q-250.5 -36.2 -247.95 -38.25 L-247.7 -38.45 -247.1 -40.35 -246.7 -41.65 -246.9 -43.05 -246.0 -43.3 -245.55 -43.95 -245.2 -43.85 Q-244.5 -43.95 -244.55 -44.1 -243.35 -43.55 -242.7 -41.3 L-241.75 -38.55 -239.35 -35.65 -239.1 -33.3 Q-239.0 -32.9 -237.7 -31.95 L-237.3 -31.6 M-256.3 -41.55 L-256.9 -40.4 -257.8 -38.25 -258.9 -37.5 -259.85 -36.15 -261.9 -34.05 -262.15 -34.1 -262.0 -34.45 -262.9 -35.25 -262.85 -37.35 -262.9 -37.4 -262.55 -37.7 -262.35 -38.4 -263.4 -39.5 -263.65 -39.75 -264.35 -40.45 -264.45 -42.35 Q-263.7 -42.35 -263.5 -42.6 L-263.25 -43.2 -265.3 -46.05 -265.3 -46.35 -264.8 -46.75 Q-264.65 -46.9 -264.65 -47.4 L-265.1 -48.15 -265.1 -48.35 Q-264.95 -49.05 -265.25 -49.4 L-265.8 -50.05 Q-265.25 -51.95 -264.45 -52.7 -262.3 -51.45 -260.8 -46.25 L-260.6 -45.75 -259.65 -45.0 Q-257.55 -43.3 -256.35 -42.0 L-256.3 -41.55 M-275.45 -55.7 L-276.7 -53.95 -277.15 -53.15 Q-279.6 -51.0 -279.6 -50.25 -279.6 -49.6 -279.15 -49.45 -278.6 -49.3 -278.65 -48.7 -278.65 -47.15 -282.1 -45.4 L-283.95 -47.85 -282.55 -47.8 Q-282.15 -47.85 -282.1 -48.65 -282.1 -49.25 -282.6 -49.4 -283.15 -49.5 -283.05 -50.2 -283.05 -50.8 -282.55 -51.1 -282.0 -51.55 -282.0 -52.15 -282.0 -53.8 -284.6 -58.45 L-284.55 -58.5 -284.55 -58.7 Q-284.4 -59.45 -284.4 -60.3 -284.35 -62.55 -285.95 -63.7 L-285.8 -64.15 Q-284.8 -66.85 -284.2 -67.1 L-283.95 -67.0 -283.35 -67.75 Q-280.25 -63.4 -277.6 -58.2 L-275.8 -56.75 Q-275.45 -56.4 -275.45 -55.7 M-296.45 -64.25 L-296.5 -64.25 -296.5 -64.35 -296.45 -64.25 M-247.6 -20.75 L-247.75 -21.2 Q-246.3 -19.95 -245.8 -20.0 L-244.95 -20.0 -245.75 -19.1 Q-246.85 -19.7 -247.6 -20.75 M-790.35 -25.75 Q-791.1 -24.7 -792.2 -24.1 L-793.0 -25.0 -792.15 -25.0 Q-791.65 -24.95 -790.2 -26.2 L-790.35 -25.75 M-834.7 14.25 L-835.0 13.7 -834.55 14.0 -834.7 14.25 M-863.65 32.35 L-863.55 32.4 -863.75 32.8 -863.65 32.35 M-892.65 64.2 L-892.6 64.3 -892.7 64.25 -892.65 64.2 M-921.3 97.2 L-921.0 97.6 -921.45 97.6 -921.3 97.2 M-991.7 109.0 L-989.7 101.05 -989.7 110.85 -992.15 110.7 -991.7 109.0 M-145.25 69.25 L-145.35 69.3 -145.3 69.2 -145.25 69.25 M-116.5 102.6 L-116.95 102.6 -116.65 102.2 -116.5 102.6 M-202.95 18.7 L-203.25 19.25 -203.4 19.0 -202.95 18.7 M-174.3 37.35 L-174.2 37.8 -174.4 37.4 -174.3 37.35" fill="#506060" fill-rule="evenodd" stroke="none"/>
    <path d="M201.15 120.2 Q201.25 120.5 202.0 120.6 L202.25 120.5 202.25 120.6 201.65 120.9 Q200.85 121.4 200.75 122.15 L200.7 122.5 199.6 121.4 199.9 121.2 201.05 120.1 201.15 120.2 M136.4 168.8 L136.55 168.95 Q137.55 168.5 137.55 167.1 L138.05 167.1 Q138.1 168.4 138.7 168.5 L138.55 169.0 138.75 169.45 137.45 171.1 136.4 168.8 M815.6 115.1 L816.75 116.2 817.05 116.4 815.95 117.5 815.9 117.15 Q815.8 116.4 815.0 115.9 L814.4 115.6 814.4 115.5 814.65 115.6 Q815.4 115.5 815.5 115.2 L815.6 115.1 M879.1 162.1 Q879.1 163.5 880.1 163.95 L880.25 163.8 879.2 166.1 877.9 164.45 878.1 164.0 877.95 163.5 Q878.55 163.4 878.6 162.1 L879.1 162.1 M-889.75 159.05 L-889.25 159.05 Q-889.2 160.35 -888.6 160.45 L-888.75 160.95 -888.55 161.4 -889.85 163.05 -890.9 160.75 -890.75 160.9 Q-889.75 160.45 -889.75 159.05 M-826.15 112.15 Q-826.05 112.45 -825.3 112.55 L-825.05 112.45 -825.05 112.55 -825.65 112.85 Q-826.45 113.35 -826.55 114.1 L-826.6 114.45 -827.7 113.35 -827.4 113.15 -826.25 112.05 -826.15 112.15 M-149.4 166.4 L-149.2 165.95 -149.35 165.45 Q-148.75 165.35 -148.7 164.05 L-148.2 164.05 Q-148.2 165.45 -147.2 165.9 L-147.05 165.75 -148.1 168.05 -149.4 166.4 M-211.7 117.05 L-210.55 118.15 -210.25 118.35 -211.35 119.45 -211.4 119.1 Q-211.5 118.35 -212.3 117.85 L-212.9 117.55 -212.9 117.45 -212.65 117.55 Q-211.9 117.45 -211.8 117.15 L-211.7 117.05" fill="#333e3e" fill-rule="evenodd" stroke="none"/>
  </g>
</svg>
