<?xml version="1.0" encoding="UTF-8" standalone="no"?>
<svg xmlns:ffdec="https://www.free-decompiler.com/flash" xmlns:xlink="http://www.w3.org/1999/xlink" ffdec:objectType="shape" height="26.45px" width="26.9px" xmlns="http://www.w3.org/2000/svg">
  <g transform="matrix(1.0, 0.0, 0.0, 1.0, 13.4, 13.8)">
    <path d="M2.95 2.75 L3.35 3.65 Q3.7 4.4 4.6 4.25 5.5 4.1 5.5 3.4 L4.55 2.5 Q3.55 1.6 3.35 1.0 L2.45 -1.35 Q2.25 -1.1 1.85 -1.05 L1.8 -1.05 Q1.65 -1.7 1.65 -2.45 L1.75 -3.65 2.25 -4.6 4.4 -4.0 5.1 -2.55 6.25 -0.3 6.35 0.75 Q6.55 1.4 7.6 1.4 L7.55 1.75 Q7.5 2.6 6.85 3.25 L6.25 4.15 Q6.25 4.9 6.95 4.9 8.35 4.9 8.75 3.15 L8.9 1.1 8.9 0.55 8.95 -0.3 Q9.75 0.0 10.2 -0.5 L11.55 -2.4 13.0 -2.4 Q13.5 -2.2 13.5 0.0 13.5 1.7 12.1 3.9 L12.1 3.75 11.45 3.65 10.75 3.75 10.6 4.7 Q10.6 4.9 11.1 5.35 9.5 7.4 7.75 7.75 L5.55 7.6 5.7 7.15 Q5.7 6.6 5.1 6.15 L3.9 5.15 3.4 6.05 3.0 4.75 Q2.25 4.1 2.25 3.45 2.25 2.95 2.7 2.85 L2.95 2.75 M8.3 6.05 Q8.3 6.55 8.45 6.85 L9.35 6.3 9.7 5.5 9.65 5.0 Q9.85 4.9 9.35 4.9 8.95 4.9 8.6 5.4 8.3 5.8 8.3 6.05" fill="url(#gradient0)" fill-rule="evenodd" stroke="none"/>
    <path d="M1.8 -1.05 L1.85 -1.05 Q2.25 -1.1 2.45 -1.35 L3.35 1.0 Q3.55 1.6 4.55 2.5 L5.5 3.4 Q5.5 4.1 4.6 4.25 3.7 4.4 3.35 3.65 L2.95 2.75 3.1 2.6 3.1 2.4 1.95 -0.35 1.8 -1.05 M3.4 6.05 L3.9 5.15 5.1 6.15 Q5.7 6.6 5.7 7.15 L5.55 7.6 5.1 7.4 4.6 7.2 4.55 7.15 4.35 7.05 3.4 6.05 M11.1 5.35 Q10.6 4.9 10.6 4.7 L10.75 3.75 11.45 3.65 12.1 3.75 12.1 3.9 11.1 5.35 M13.5 8.3 L13.35 9.3 13.3 9.4 13.1 9.4 12.25 9.35 11.65 9.25 11.6 8.9 11.8 8.7 12.3 8.35 12.4 7.95 12.8 7.65 13.1 7.7 13.35 8.15 13.5 8.3 M8.3 6.05 Q8.3 5.8 8.6 5.4 8.95 4.9 9.35 4.9 9.85 4.9 9.65 5.0 L9.7 5.5 9.35 6.3 8.45 6.85 Q8.3 6.55 8.3 6.05 M0.3 4.2 L0.25 4.0 -0.2 3.9 -0.3 3.9 -0.55 4.05 Q-0.55 3.75 -0.15 3.2 L0.35 2.65 0.6 3.35 0.3 4.2 M-2.9 4.65 L-2.85 4.75 Q-2.15 5.7 -2.15 6.05 L-2.2 6.4 -2.4 6.4 -3.25 5.8 -3.3 5.75 -3.9 5.45 -4.15 4.15 -4.05 3.65 -3.85 3.7 -4.0 4.0 -2.9 4.65 M-5.0 5.25 L-5.05 5.25 -5.15 5.3 Q-5.6 5.6 -6.75 4.8 -7.9 4.0 -7.9 2.2 L-7.9 1.9 -6.05 3.9 -4.95 5.2 -5.0 5.25 M-0.65 11.1 L-1.55 10.3 -2.05 8.9 -1.75 8.95 -1.1 9.45 Q-0.75 9.65 -0.7 10.1 L-0.7 11.0 -0.65 11.1 M0.75 10.05 L0.65 10.65 -0.45 10.6 -0.55 10.2 Q-0.55 9.65 0.2 9.15 0.75 9.4 0.75 10.05 M6.4 12.5 L5.8 12.25 Q4.85 11.75 4.85 11.0 L4.85 10.75 4.85 10.7 4.9 10.4 5.4 10.4 6.0 11.05 6.5 11.9 6.4 12.5 M6.7 11.9 L6.8 11.4 7.6 11.5 7.7 11.6 7.7 11.9 7.6 12.4 7.0 12.4 Q6.7 12.4 6.7 11.9 M-4.55 -3.05 L-6.45 -3.2 -6.5 -3.35 Q-6.1 -4.35 -5.2 -4.35 L-4.8 -4.1 Q-4.5 -3.8 -4.5 -3.35 L-4.55 -3.05 M-9.45 -0.2 L-9.65 -0.1 Q-10.2 -0.3 -10.2 -1.4 L-10.1 -2.45 Q-9.35 -0.75 -9.35 -0.35 L-9.35 -0.3 -9.45 -0.2 M-6.45 9.7 L-6.35 9.7 Q-5.8 10.0 -5.8 11.2 L-5.9 11.4 Q-6.45 11.0 -6.45 9.7" fill="#ffff99" fill-rule="evenodd" stroke="none"/>
    <path d="M11.55 -2.4 L10.2 -0.5 Q9.75 0.0 8.95 -0.3 L8.9 0.55 8.9 1.1 8.75 3.15 Q8.35 4.9 6.95 4.9 6.25 4.9 6.25 4.15 L6.85 3.25 Q7.5 2.6 7.55 1.75 L7.6 1.4 Q6.55 1.4 6.35 0.75 L6.25 -0.3 5.1 -2.55 4.4 -4.0 5.3 -3.55 5.35 -3.5 Q6.6 -2.8 7.4 -2.55 L7.65 -2.45 8.25 -2.35 8.3 -2.35 11.55 -2.4 M9.9 7.2 L9.95 7.15 10.1 6.85 10.4 6.35 10.55 6.15 11.15 5.35 11.15 5.3 11.8 4.9 11.9 4.9 12.15 4.9 12.15 4.95 12.15 5.4 Q12.15 6.1 11.55 6.95 10.85 7.95 9.9 7.2 M-5.9 -1.15 Q-3.55 -1.25 -3.45 -1.6 -3.35 -1.9 -2.8 -2.0 L-2.8 -1.9 Q-2.8 -0.8 -2.45 0.1 -2.15 0.95 -2.15 1.65 -2.15 2.1 -2.7 2.4 -3.4 1.25 -4.85 0.7 -5.9 0.3 -5.9 -1.0 L-5.9 -1.15 M0.4 6.4 L0.9 6.4 1.0 6.4 2.15 6.6 2.95 7.25 2.35 7.85 1.35 8.4 Q1.15 8.4 0.55 8.0 L-0.1 7.15 Q-0.1 6.85 0.3 6.5 L0.4 6.4 M6.85 9.4 L6.9 9.4 6.95 9.3 7.0 9.15 7.05 9.05 7.1 8.9 7.45 8.3 7.6 8.1 8.2 8.6 8.3 8.7 8.45 9.1 8.5 9.25 8.6 9.5 8.5 9.9 7.15 9.9 6.85 9.4 M-6.7 -6.85 L-6.15 -7.6 -5.8 -7.35 Q-5.55 -6.45 -4.8 -5.8 -4.2 -5.25 -4.15 -4.45 -5.2 -4.65 -5.9 -5.3 -6.6 -5.95 -6.7 -6.85 M-4.3 9.3 L-5.35 9.25 -6.25 8.45 -5.9 7.9 Q-5.2 7.85 -4.9 8.1 L-4.15 8.9 -4.3 9.3" fill="#fbbc00" fill-rule="evenodd" stroke="none"/>
    <path d="M12.15 4.95 Q12.9 5.05 13.4 5.55 L13.5 7.5 13.5 8.3 13.35 8.15 13.1 7.7 12.8 7.65 12.4 7.95 12.3 8.35 11.8 8.7 11.6 8.9 11.65 9.25 12.25 9.35 10.25 8.85 Q9.75 8.55 9.75 7.6 L9.9 7.2 Q10.85 7.95 11.55 6.95 12.15 6.1 12.15 5.4 L12.15 4.95" fill="url(#gradient1)" fill-rule="evenodd" stroke="none"/>
    <path d="M0.8 3.65 Q0.45 3.75 0.45 4.35 L0.3 4.2 0.6 3.35 0.35 2.65 -0.15 3.2 Q-0.55 3.75 -0.55 4.05 L-0.8 4.45 Q-1.05 5.0 -2.1 5.0 L-2.9 4.65 -4.0 4.0 -3.85 3.7 -3.7 3.4 -3.7 3.35 -3.3 2.55 -3.35 2.1 -3.45 1.95 -3.4 1.9 -3.7 1.9 Q-4.05 1.9 -5.0 3.1 L-5.65 3.45 -5.85 3.7 -5.9 3.75 Q-6.5 3.2 -6.9 2.25 L-7.5 0.2 -7.65 0.15 -7.6 -0.1 Q-7.6 -0.7 -7.05 -1.1 L-5.9 -1.15 -5.9 -1.0 Q-5.9 0.3 -4.85 0.7 -3.4 1.25 -2.7 2.4 -2.15 2.1 -2.15 1.65 -2.15 0.95 -2.45 0.1 -2.8 -0.8 -2.8 -1.9 L-2.8 -2.0 -1.7 -2.1 Q0.45 -2.1 1.05 -0.95 1.35 -0.45 1.35 0.95 L0.8 3.65 M-0.5 0.55 L-0.55 0.55 -0.4 0.6 -0.5 0.55" fill="url(#gradient2)" fill-rule="evenodd" stroke="none"/>
    <path d="M0.8 3.65 L0.85 3.65 0.75 3.8 0.75 3.85 Q-0.2 6.55 -2.2 6.4 L-2.15 6.05 Q-2.15 5.7 -2.85 4.75 L-2.9 4.65 -2.1 5.0 Q-1.05 5.0 -0.8 4.45 L-0.55 4.05 -0.3 3.9 -0.2 3.9 0.25 4.0 0.3 4.2 0.45 4.35 Q0.45 3.75 0.8 3.65 M-3.9 5.45 L-4.9 5.2 -5.0 5.25 -4.95 5.2 -6.05 3.9 -7.9 1.9 -7.65 0.15 -7.5 0.2 -6.9 2.25 Q-6.5 3.2 -5.9 3.75 L-5.85 3.75 -5.45 4.0 -5.85 3.7 -5.65 3.45 -5.0 3.1 Q-4.05 1.9 -3.7 1.9 L-3.4 1.9 -3.45 1.95 -3.35 2.1 -3.3 2.55 -3.7 3.35 -3.7 3.4 -3.85 3.7 -4.05 3.65 -4.15 4.15 -3.9 5.45" fill="url(#gradient3)" fill-rule="evenodd" stroke="none"/>
    <path d="M2.95 7.25 Q3.4 7.95 3.4 9.15 3.4 11.45 0.65 11.4 L-0.65 11.1 -0.7 11.0 -0.7 10.1 Q-0.75 9.65 -1.1 9.45 L-1.75 8.95 -2.05 8.9 -2.1 8.1 -1.9 7.15 Q-1.35 6.5 0.4 6.4 L0.3 6.5 Q-0.1 6.85 -0.1 7.15 L0.55 8.0 Q1.15 8.4 1.35 8.4 L2.35 7.85 2.95 7.25 M0.75 10.05 Q0.75 9.4 0.2 9.15 -0.55 9.65 -0.55 10.2 L-0.45 10.6 0.65 10.65 0.75 10.05" fill="url(#gradient4)" fill-rule="evenodd" stroke="none"/>
    <path d="M4.9 10.4 L5.0 10.1 5.15 9.65 6.4 9.4 6.85 9.4 7.15 9.9 8.5 9.9 8.6 9.5 8.9 10.9 8.75 11.7 8.3 11.9 7.75 11.9 7.65 12.65 6.4 12.5 6.5 11.9 6.0 11.05 5.4 10.4 4.9 10.4 M7.6 8.1 L7.75 7.9 8.3 8.7 8.2 8.6 7.6 8.1 M6.7 11.9 Q6.7 12.4 7.0 12.4 L7.6 12.4 7.7 11.9 7.7 11.6 7.6 11.5 6.8 11.4 6.7 11.9" fill="url(#gradient5)" fill-rule="evenodd" stroke="none"/>
    <path d="M-4.15 -4.45 L-4.15 -4.25 -4.25 -3.4 -4.35 -3.1 -4.55 -3.05 -4.5 -3.35 Q-4.5 -3.8 -4.8 -4.1 L-5.2 -4.35 Q-6.1 -4.35 -6.5 -3.35 L-6.45 -3.2 -6.9 -3.7 -7.05 -5.65 -6.7 -6.85 Q-6.6 -5.95 -5.9 -5.3 -5.2 -4.65 -4.15 -4.45" fill="url(#gradient6)" fill-rule="evenodd" stroke="none"/>
    <path d="M-10.1 -2.45 L-10.0 -2.6 -9.05 -2.45 -8.85 -2.25 -8.75 -1.45 Q-8.75 -0.8 -9.05 -0.5 L-9.45 -0.2 -9.35 -0.3 -9.35 -0.35 Q-9.35 -0.75 -10.1 -2.45" fill="url(#gradient7)" fill-rule="evenodd" stroke="none"/>
    <path d="M-5.9 3.75 L-5.85 3.7 -5.85 3.75 -5.9 3.75" fill="url(#gradient8)" fill-rule="evenodd" stroke="none"/>
    <path d="M-5.85 3.7 L-5.45 4.0 -5.85 3.75 -5.85 3.7" fill="#ffcc00" fill-rule="evenodd" stroke="none"/>
    <path d="M-6.25 8.45 L-5.35 9.25 -4.3 9.3 -5.0 10.2 -5.8 11.2 Q-5.8 10.0 -6.35 9.7 L-6.45 9.7 -6.25 8.45" fill="url(#gradient9)" fill-rule="evenodd" stroke="none"/>
    <path d="M3.5 -13.05 Q3.5 -13.55 3.8 -13.55 L4.4 -13.55 4.5 -13.05 4.5 -12.75 4.4 -12.65 3.6 -12.55 3.5 -13.05 M3.2 -13.65 L3.3 -13.05 2.8 -12.2 2.2 -11.55 1.7 -11.55 1.65 -11.85 1.65 -11.9 1.65 -12.15 Q1.65 -12.9 2.6 -13.4 L3.2 -13.65 M9.05 -10.5 L9.9 -10.55 10.1 -10.55 10.15 -10.45 10.3 -9.45 10.15 -9.3 9.9 -8.85 9.6 -8.8 Q9.3 -8.8 9.2 -9.1 L9.1 -9.5 8.6 -9.85 8.4 -10.05 8.45 -10.4 9.05 -10.5 M5.25 -8.0 Q5.75 -7.95 6.15 -7.45 L6.5 -6.65 6.45 -6.15 Q6.65 -6.05 6.15 -6.05 5.75 -6.05 5.4 -6.55 5.1 -6.95 5.1 -7.2 5.1 -7.7 5.25 -8.0 M2.35 -8.75 L2.5 -8.3 Q2.5 -7.75 1.9 -7.3 L0.7 -6.3 0.2 -7.2 1.15 -8.2 1.35 -8.3 1.4 -8.35 1.9 -8.55 2.35 -8.75 M-0.25 -3.9 L0.15 -4.8 Q0.5 -5.55 1.4 -5.4 2.3 -5.25 2.3 -4.55 L1.35 -3.65 Q0.35 -2.75 0.15 -2.15 L-0.75 0.2 -1.35 -0.1 -1.4 -0.1 -1.25 -0.8 -0.1 -3.55 -0.1 -3.75 -0.25 -3.9 M8.9 -5.05 L8.9 -4.9 8.25 -4.8 7.55 -4.9 7.4 -5.85 7.9 -6.5 8.9 -5.05 M-12.65 -0.95 L-12.55 -0.85 -12.55 -0.8 Q-12.55 -0.4 -13.3 1.3 L-13.4 0.25 Q-13.4 -0.85 -12.85 -1.05 L-12.65 -0.95 M-11.1 -3.05 L-11.1 -3.35 Q-11.1 -5.15 -9.95 -5.95 -8.8 -6.75 -8.35 -6.45 L-8.25 -6.4 -8.15 -6.35 -9.25 -5.05 -11.1 -3.05 M-7.1 -6.6 L-6.5 -6.9 -6.45 -6.95 -5.6 -7.55 -5.4 -7.55 -5.35 -7.2 Q-5.35 -6.85 -6.05 -5.9 L-6.1 -5.8 -7.2 -5.15 -7.05 -4.85 -7.25 -4.8 -7.35 -5.3 -7.1 -6.6 M-5.25 -10.05 L-4.75 -11.45 -3.85 -12.25 -3.9 -12.15 -3.9 -11.25 Q-3.95 -10.8 -4.3 -10.6 L-4.95 -10.1 -5.25 -10.05 M-3.75 -11.35 L-3.65 -11.75 -2.55 -11.8 -2.45 -11.2 Q-2.45 -10.55 -3.0 -10.3 -3.75 -10.8 -3.75 -11.35 M-9.65 -10.85 Q-9.65 -12.15 -9.1 -12.55 L-9.0 -12.35 Q-9.0 -11.15 -9.55 -10.85 L-9.65 -10.85 M-3.75 -5.2 L-3.5 -5.05 -3.4 -5.05 -2.95 -5.15 -2.9 -5.35 Q-2.6 -5.0 -2.6 -4.5 -2.6 -4.05 -2.85 -3.8 L-3.35 -4.35 Q-3.75 -4.9 -3.75 -5.2 M-9.65 2.05 L-7.75 1.9 -7.7 2.2 Q-7.7 2.65 -8.0 2.95 L-8.4 3.2 Q-9.3 3.2 -9.7 2.2 L-9.65 2.05" fill="#ffff99" fill-rule="evenodd" stroke="none"/>
    <path d="M3.5 -13.05 L3.6 -12.55 4.4 -12.65 4.5 -12.75 4.5 -13.05 4.4 -13.55 3.8 -13.55 Q3.5 -13.55 3.5 -13.05 M1.7 -11.55 L2.2 -11.55 2.8 -12.2 3.3 -13.05 3.2 -13.65 4.45 -13.8 4.55 -13.05 5.1 -13.05 5.55 -12.85 5.7 -12.05 5.4 -10.65 5.3 -11.05 3.95 -11.05 3.65 -10.55 3.2 -10.55 1.95 -10.8 1.8 -11.25 1.7 -11.55 M5.1 -9.85 L4.55 -9.05 4.4 -9.25 5.0 -9.75 5.1 -9.85" fill="url(#gradient10)" fill-rule="evenodd" stroke="none"/>
    <path d="M9.05 -10.5 L8.45 -10.4 8.4 -10.05 8.6 -9.85 9.1 -9.5 9.2 -9.1 Q9.3 -8.8 9.6 -8.8 L9.9 -8.85 10.15 -9.3 10.3 -9.45 10.3 -8.65 10.2 -6.7 Q9.7 -6.2 8.95 -6.05 L8.95 -6.55 Q8.95 -7.25 8.35 -8.1 7.65 -9.1 6.7 -8.35 L6.55 -8.75 Q6.55 -9.7 7.05 -10.0 L9.05 -10.5" fill="url(#gradient11)" fill-rule="evenodd" stroke="none"/>
    <path d="M3.65 -10.55 L3.95 -11.05 5.3 -11.05 5.4 -10.65 5.3 -10.4 5.25 -10.25 5.1 -9.85 5.0 -9.75 4.4 -9.25 4.25 -9.45 3.9 -10.05 3.85 -10.2 3.8 -10.3 3.75 -10.45 3.7 -10.55 3.65 -10.55 M8.95 -6.05 L8.7 -6.05 8.6 -6.05 7.95 -6.45 7.95 -6.5 7.35 -7.3 7.2 -7.5 6.9 -8.0 6.7 -8.35 Q7.65 -9.1 8.35 -8.1 8.95 -7.25 8.95 -6.55 L8.95 -6.05 M1.2 2.85 L1.9 1.4 3.05 -0.85 3.15 -1.9 Q3.35 -2.55 4.4 -2.55 L4.35 -2.9 Q4.3 -3.75 3.65 -4.4 3.05 -5.0 3.05 -5.3 3.05 -6.05 3.75 -6.05 5.15 -6.05 5.55 -4.3 L5.7 -2.25 5.7 -1.7 5.75 -0.85 Q6.55 -1.15 7.0 -0.65 L8.35 1.25 5.1 1.2 5.05 1.2 4.45 1.3 4.2 1.4 Q3.4 1.65 2.15 2.35 L2.1 2.4 1.2 2.85 M-6.0 0.85 Q-6.55 0.75 -6.65 0.45 -6.75 0.1 -9.1 0.0 L-9.1 -0.15 Q-9.1 -1.45 -8.05 -1.85 -6.6 -2.4 -5.9 -3.55 -5.35 -3.25 -5.35 -2.8 -5.35 -2.1 -5.65 -1.25 -6.0 -0.35 -6.0 0.75 L-6.0 0.85 M-0.25 -8.4 L-1.05 -7.75 -2.2 -7.55 -2.3 -7.55 -2.8 -7.55 -2.9 -7.65 Q-3.3 -8.0 -3.3 -8.3 L-2.65 -9.15 -1.85 -9.55 Q-1.45 -9.55 -0.85 -9.0 L-0.25 -8.4 M-7.5 -10.45 L-7.35 -10.05 -8.1 -9.25 -9.1 -9.05 -9.45 -9.6 -8.55 -10.4 -7.5 -10.45 M-7.35 3.3 Q-7.4 4.1 -8.0 4.65 -8.75 5.3 -9.0 6.2 L-9.35 6.45 -9.9 5.7 Q-9.8 4.8 -9.1 4.15 -8.4 3.5 -7.35 3.3" fill="#fbbc00" fill-rule="evenodd" stroke="none"/>
    <path d="M5.25 -8.0 Q5.1 -7.7 5.1 -7.2 5.1 -6.95 5.4 -6.55 5.75 -6.05 6.15 -6.05 6.65 -6.05 6.45 -6.15 L6.5 -6.65 6.15 -7.45 Q5.75 -7.95 5.25 -8.0 M0.2 -7.2 L0.7 -6.3 1.9 -7.3 Q2.5 -7.75 2.5 -8.3 L2.35 -8.75 4.55 -8.9 Q6.3 -8.55 7.9 -6.5 L7.4 -5.85 7.55 -4.9 8.25 -4.8 8.9 -4.9 8.9 -5.05 Q10.3 -2.85 10.3 -1.15 10.3 1.05 9.8 1.25 L8.35 1.25 7.0 -0.65 Q6.55 -1.15 5.75 -0.85 L5.7 -1.7 5.7 -2.25 5.55 -4.3 Q5.15 -6.05 3.75 -6.05 3.05 -6.05 3.05 -5.3 3.05 -5.0 3.65 -4.4 4.3 -3.75 4.35 -2.9 L4.4 -2.55 Q3.35 -2.55 3.15 -1.9 L3.05 -0.85 1.9 1.4 1.2 2.85 Q-0.15 3.45 -0.95 3.45 L-1.45 2.5 -1.55 1.3 -1.4 -0.1 -1.35 -0.1 -0.75 0.2 0.15 -2.15 Q0.35 -2.75 1.35 -3.65 L2.3 -4.55 Q2.3 -5.25 1.4 -5.4 0.5 -5.55 0.15 -4.8 L-0.25 -3.9 -0.5 -4.0 Q-0.95 -4.1 -0.95 -4.6 -0.95 -5.25 -0.2 -5.9 L0.2 -7.2 M9.1 -0.8 L9.15 -0.8 9.15 -0.85 9.1 -0.8" fill="url(#gradient12)" fill-rule="evenodd" stroke="none"/>
    <path d="M-10.85 -1.3 L-11.1 -3.05 -9.25 -5.05 -8.15 -6.35 -8.25 -6.4 -8.1 -6.35 -7.1 -6.6 -7.35 -5.3 -7.25 -4.8 -7.05 -4.85 -6.9 -4.55 -6.9 -4.5 -6.5 -3.7 -6.55 -3.25 -6.65 -3.1 -6.6 -3.05 -6.9 -3.05 Q-7.25 -3.05 -8.2 -4.25 L-8.85 -4.6 -9.05 -4.85 -8.65 -5.15 -9.05 -4.9 -9.1 -4.9 -10.1 -3.4 -10.7 -1.35 -10.85 -1.3 M-5.4 -7.55 Q-3.4 -7.7 -2.45 -5.0 L-2.45 -4.95 -2.35 -4.8 -2.4 -4.8 Q-2.75 -4.9 -2.75 -5.5 L-2.9 -5.35 -2.95 -5.15 -3.4 -5.05 -3.5 -5.05 -3.75 -5.2 -4.0 -5.6 Q-4.25 -6.15 -5.3 -6.15 L-6.1 -5.8 -6.05 -5.9 Q-5.35 -6.85 -5.35 -7.2 L-5.4 -7.55" fill="url(#gradient13)" fill-rule="evenodd" stroke="none"/>
    <path d="M-9.1 0.0 L-10.25 -0.05 Q-10.8 -0.45 -10.8 -1.05 L-10.85 -1.3 -10.7 -1.35 -10.1 -3.4 -9.1 -4.9 -9.05 -4.85 -8.85 -4.6 -8.2 -4.25 Q-7.25 -3.05 -6.9 -3.05 L-6.6 -3.05 -6.65 -3.1 -6.55 -3.25 -6.5 -3.7 -6.9 -4.5 -6.9 -4.55 -7.05 -4.85 -7.2 -5.15 -6.1 -5.8 -5.3 -6.15 Q-4.25 -6.15 -4.0 -5.6 L-3.75 -5.2 Q-3.75 -4.9 -3.35 -4.35 L-2.85 -3.8 Q-2.6 -4.05 -2.6 -4.5 -2.6 -5.0 -2.9 -5.35 L-2.75 -5.5 Q-2.75 -4.9 -2.4 -4.8 -1.95 -3.5 -1.85 -2.1 -1.85 -0.7 -2.15 -0.2 -2.75 0.95 -4.9 0.95 L-6.0 0.85 -6.0 0.75 Q-6.0 -0.35 -5.65 -1.25 -5.35 -2.1 -5.35 -2.8 -5.35 -3.25 -5.9 -3.55 -6.6 -2.4 -8.05 -1.85 -9.1 -1.45 -9.1 -0.15 L-9.1 0.0 M-9.6 -2.3 L-9.55 -2.3 -9.55 -2.35 -9.6 -2.3 M-3.75 -1.7 L-3.7 -1.7 -3.6 -1.75 -3.75 -1.7" fill="url(#gradient14)" fill-rule="evenodd" stroke="none"/>
    <path d="M-13.3 1.3 Q-12.55 -0.4 -12.55 -0.8 L-12.55 -0.85 -12.65 -0.95 -12.25 -0.65 Q-11.95 -0.35 -11.95 0.3 L-12.05 1.1 -12.25 1.3 -13.2 1.45 -13.3 1.3" fill="url(#gradient15)" fill-rule="evenodd" stroke="none"/>
    <path d="M-3.85 -12.25 L-2.55 -12.55 Q0.2 -12.6 0.2 -10.3 0.2 -9.1 -0.25 -8.4 L-0.85 -9.0 Q-1.45 -9.55 -1.85 -9.55 L-2.65 -9.15 -3.3 -8.3 Q-3.3 -8.0 -2.9 -7.65 L-2.8 -7.55 Q-4.55 -7.65 -5.1 -8.3 -5.3 -8.55 -5.3 -9.25 L-5.25 -10.05 -4.95 -10.1 -4.3 -10.6 Q-3.95 -10.8 -3.9 -11.25 L-3.9 -12.15 -3.85 -12.25 M-3.75 -11.35 Q-3.75 -10.8 -3.0 -10.3 -2.45 -10.55 -2.45 -11.2 L-2.55 -11.8 -3.65 -11.75 -3.75 -11.35" fill="url(#gradient16)" fill-rule="evenodd" stroke="none"/>
    <path d="M-9.45 -9.6 L-9.65 -10.85 -9.55 -10.85 Q-9.0 -11.15 -9.0 -12.35 L-8.2 -11.35 -7.5 -10.45 -8.55 -10.4 -9.45 -9.6" fill="url(#gradient17)" fill-rule="evenodd" stroke="none"/>
    <path d="M-9.1 -4.9 L-9.05 -4.9 -9.05 -4.85 -9.1 -4.9" fill="url(#gradient18)" fill-rule="evenodd" stroke="none"/>
    <path d="M-9.05 -4.9 L-8.65 -5.15 -9.05 -4.85 -9.05 -4.9" fill="#ffcc00" fill-rule="evenodd" stroke="none"/>
    <path d="M-7.75 1.9 L-7.55 1.95 -7.45 2.25 -7.35 3.1 -7.35 3.3 Q-8.4 3.5 -9.1 4.15 -9.8 4.8 -9.9 5.7 L-10.25 4.5 -10.1 2.55 -9.65 2.05 -9.7 2.2 Q-9.3 3.2 -8.4 3.2 L-8.0 2.95 Q-7.7 2.65 -7.7 2.2 L-7.75 1.9" fill="url(#gradient19)" fill-rule="evenodd" stroke="none"/>
  </g>
  <defs>
    <radialGradient cx="0" cy="0" gradientTransform="matrix(0.0105, 0.0, 0.0, -0.0105, 7.55, 2.15)" gradientUnits="userSpaceOnUse" id="gradient0" r="819.2" spreadMethod="pad">
      <stop offset="0.20784313725490197" stop-color="#ffcc00"/>
      <stop offset="1.0" stop-color="#ffff33"/>
    </radialGradient>
    <radialGradient cx="0" cy="0" gradientTransform="matrix(0.0048, 0.0, 0.0, -0.0048, 11.35, 6.4)" gradientUnits="userSpaceOnUse" id="gradient1" r="819.2" spreadMethod="pad">
      <stop offset="0.20784313725490197" stop-color="#ffcc00"/>
      <stop offset="1.0" stop-color="#ffff33"/>
    </radialGradient>
    <radialGradient cx="0" cy="0" gradientTransform="matrix(0.0073, 0.0, 0.0, -0.0073, -2.55, 1.65)" gradientUnits="userSpaceOnUse" id="gradient2" r="819.2" spreadMethod="pad">
      <stop offset="0.20784313725490197" stop-color="#ffcc00"/>
      <stop offset="1.0" stop-color="#ffff33"/>
    </radialGradient>
    <radialGradient cx="0" cy="0" gradientTransform="matrix(0.0061, 0.0, 0.0, -0.0061, -3.3, 1.9)" gradientUnits="userSpaceOnUse" id="gradient3" r="819.2" spreadMethod="pad">
      <stop offset="0.20784313725490197" stop-color="#ffcc00"/>
      <stop offset="1.0" stop-color="#ffff33"/>
    </radialGradient>
    <radialGradient cx="0" cy="0" gradientTransform="matrix(0.0045, 0.0, 0.0, -0.0045, 0.5, 8.15)" gradientUnits="userSpaceOnUse" id="gradient4" r="819.2" spreadMethod="pad">
      <stop offset="0.20784313725490197" stop-color="#ffcc00"/>
      <stop offset="1.0" stop-color="#ffff33"/>
    </radialGradient>
    <radialGradient cx="0" cy="0" gradientTransform="matrix(0.0043, 0.0, 0.0, -0.0043, 7.45, 9.65)" gradientUnits="userSpaceOnUse" id="gradient5" r="819.2" spreadMethod="pad">
      <stop offset="0.20784313725490197" stop-color="#ffcc00"/>
      <stop offset="1.0" stop-color="#ffff33"/>
    </radialGradient>
    <radialGradient cx="0" cy="0" gradientTransform="matrix(0.0045, 0.0, 0.0, -0.0045, -6.05, -6.35)" gradientUnits="userSpaceOnUse" id="gradient6" r="819.2" spreadMethod="pad">
      <stop offset="0.20784313725490197" stop-color="#ffcc00"/>
      <stop offset="1.0" stop-color="#ffff33"/>
    </radialGradient>
    <radialGradient cx="0" cy="0" gradientTransform="matrix(0.0018, 0.0, 0.0, -0.0018, -9.5, -1.6)" gradientUnits="userSpaceOnUse" id="gradient7" r="819.2" spreadMethod="pad">
      <stop offset="0.20784313725490197" stop-color="#ffcc00"/>
      <stop offset="1.0" stop-color="#ffff33"/>
    </radialGradient>
    <radialGradient cx="0" cy="0" gradientTransform="matrix(0.0, 0.0, 0.0, 0.0, 3.1, 1.9)" gradientUnits="userSpaceOnUse" id="gradient8" r="819.2" spreadMethod="pad">
      <stop offset="0.0" stop-color="#ffcc00"/>
      <stop offset="1.0" stop-color="#ffff33"/>
    </radialGradient>
    <radialGradient cx="0" cy="0" gradientTransform="matrix(0.0034, 0.0, 0.0, -0.0034, -5.6, 8.65)" gradientUnits="userSpaceOnUse" id="gradient9" r="819.2" spreadMethod="pad">
      <stop offset="0.20784313725490197" stop-color="#ffcc00"/>
      <stop offset="1.0" stop-color="#ffff33"/>
    </radialGradient>
    <radialGradient cx="0" cy="0" gradientTransform="matrix(0.0043, 0.0, 0.0, 0.0043, 4.25, -10.8)" gradientUnits="userSpaceOnUse" id="gradient10" r="819.2" spreadMethod="pad">
      <stop offset="0.20784313725490197" stop-color="#ffcc00"/>
      <stop offset="1.0" stop-color="#ffff33"/>
    </radialGradient>
    <radialGradient cx="0" cy="0" gradientTransform="matrix(0.0048, 0.0, 0.0, 0.0048, 8.15, -7.55)" gradientUnits="userSpaceOnUse" id="gradient11" r="819.2" spreadMethod="pad">
      <stop offset="0.20784313725490197" stop-color="#ffcc00"/>
      <stop offset="1.0" stop-color="#ffff33"/>
    </radialGradient>
    <radialGradient cx="0" cy="0" gradientTransform="matrix(0.0105, 0.0, 0.0, 0.0105, 4.35, -3.3)" gradientUnits="userSpaceOnUse" id="gradient12" r="819.2" spreadMethod="pad">
      <stop offset="0.20784313725490197" stop-color="#ffcc00"/>
      <stop offset="1.0" stop-color="#ffff33"/>
    </radialGradient>
    <radialGradient cx="0" cy="0" gradientTransform="matrix(0.0061, 0.0, 0.0, 0.0061, -6.5, -3.05)" gradientUnits="userSpaceOnUse" id="gradient13" r="819.2" spreadMethod="pad">
      <stop offset="0.20784313725490197" stop-color="#ffcc00"/>
      <stop offset="1.0" stop-color="#ffff33"/>
    </radialGradient>
    <radialGradient cx="0" cy="0" gradientTransform="matrix(0.0073, 0.0, 0.0, 0.0073, -5.75, -2.8)" gradientUnits="userSpaceOnUse" id="gradient14" r="819.2" spreadMethod="pad">
      <stop offset="0.20784313725490197" stop-color="#ffcc00"/>
      <stop offset="1.0" stop-color="#ffff33"/>
    </radialGradient>
    <radialGradient cx="0" cy="0" gradientTransform="matrix(0.0018, 0.0, 0.0, 0.0018, -12.7, 0.45)" gradientUnits="userSpaceOnUse" id="gradient15" r="819.2" spreadMethod="pad">
      <stop offset="0.20784313725490197" stop-color="#ffcc00"/>
      <stop offset="1.0" stop-color="#ffff33"/>
    </radialGradient>
    <radialGradient cx="0" cy="0" gradientTransform="matrix(0.0045, 0.0, 0.0, 0.0045, -2.7, -9.3)" gradientUnits="userSpaceOnUse" id="gradient16" r="819.2" spreadMethod="pad">
      <stop offset="0.20784313725490197" stop-color="#ffcc00"/>
      <stop offset="1.0" stop-color="#ffff33"/>
    </radialGradient>
    <radialGradient cx="0" cy="0" gradientTransform="matrix(0.0034, 0.0, 0.0, 0.0034, -8.8, -9.8)" gradientUnits="userSpaceOnUse" id="gradient17" r="819.2" spreadMethod="pad">
      <stop offset="0.20784313725490197" stop-color="#ffcc00"/>
      <stop offset="1.0" stop-color="#ffff33"/>
    </radialGradient>
    <radialGradient cx="0" cy="0" gradientTransform="matrix(0.0, 0.0, 0.0, 0.0, -0.1, -3.05)" gradientUnits="userSpaceOnUse" id="gradient18" r="819.2" spreadMethod="pad">
      <stop offset="0.0" stop-color="#ffcc00"/>
      <stop offset="1.0" stop-color="#ffff33"/>
    </radialGradient>
    <radialGradient cx="0" cy="0" gradientTransform="matrix(0.0045, 0.0, 0.0, 0.0045, -9.25, 5.2)" gradientUnits="userSpaceOnUse" id="gradient19" r="819.2" spreadMethod="pad">
      <stop offset="0.20784313725490197" stop-color="#ffcc00"/>
      <stop offset="1.0" stop-color="#ffff33"/>
    </radialGradient>
  </defs>
</svg>
