<?xml version="1.0" encoding="UTF-8" standalone="no"?>
<svg xmlns:ffdec="https://www.free-decompiler.com/flash" xmlns:xlink="http://www.w3.org/1999/xlink" ffdec:objectType="shape" height="32.35px" width="38.75px" xmlns="http://www.w3.org/2000/svg">
  <g transform="matrix(1.0, 0.0, 0.0, 1.0, 18.35, 17.7)">
    <path d="M5.1 -3.95 Q5.15 -4.75 5.75 -5.3 6.5 -5.95 6.75 -6.85 L7.1 -7.1 7.65 -6.35 Q7.55 -5.45 6.85 -4.8 6.15 -4.15 5.1 -3.95 M6.85 -0.65 L6.85 -0.5 Q6.85 0.8 5.8 1.2 4.35 1.75 3.65 2.9 3.1 2.6 3.1 2.15 3.1 1.45 3.4 0.6 3.75 -0.3 3.75 -1.4 L3.75 -1.5 Q4.3 -1.4 4.4 -1.1 4.5 -0.75 6.85 -0.65 M0.55 6.9 L0.65 7.0 Q1.05 7.35 1.05 7.65 L0.4 8.5 -0.4 8.9 Q-0.8 8.9 -1.4 8.35 L-2.0 7.75 -1.2 7.1 -0.05 6.9 0.05 6.9 0.55 6.9 M5.25 9.8 L5.1 9.4 5.85 8.6 6.85 8.4 7.2 8.95 6.3 9.75 5.25 9.8 M-10.6 -1.9 L-7.35 -1.85 -7.3 -1.85 -6.7 -1.95 -6.45 -2.05 Q-5.65 -2.3 -4.4 -3.0 L-4.35 -3.05 Q-3.85 -3.3 -3.45 -3.5 L-4.15 -2.05 -5.3 0.2 -5.4 1.25 Q-5.6 1.9 -6.65 1.9 L-6.6 2.25 Q-6.55 3.1 -5.9 3.75 -5.3 4.35 -5.3 4.65 -5.3 5.4 -6.0 5.4 -7.4 5.4 -7.8 3.65 L-7.95 1.6 -7.95 1.05 -8.0 0.2 Q-8.8 0.5 -9.25 0.0 L-10.6 -1.9 M-6.65 8.6 L-6.5 8.8 -6.15 9.4 -6.1 9.55 -6.05 9.65 -6.0 9.8 -5.95 9.9 -5.9 9.9 -6.2 10.4 -7.55 10.4 -7.65 10.0 -7.55 9.75 -7.5 9.6 -7.35 9.2 -7.25 9.1 -6.65 8.6 M-11.2 5.45 L-11.2 5.4 -10.95 5.4 -10.85 5.4 Q-10.6 5.4 -10.2 5.8 L-10.2 5.85 -9.6 6.65 -9.45 6.85 -9.15 7.35 -8.95 7.7 Q-9.9 8.45 -10.6 7.45 -11.2 6.6 -11.2 5.9 L-11.2 5.45" fill="#fbbc00" fill-rule="evenodd" stroke="none"/>
    <path d="M3.75 -1.5 L3.75 -1.4 Q3.75 -0.3 3.4 0.6 3.1 1.45 3.1 2.15 3.1 2.6 3.65 2.9 4.35 1.75 5.8 1.2 6.85 0.8 6.85 -0.5 L6.85 -0.65 8.0 -0.6 Q8.55 -0.2 8.55 0.4 L8.6 0.65 8.45 0.7 7.85 2.75 Q7.45 3.7 6.85 4.25 L6.8 4.2 6.6 3.95 5.95 3.6 Q5.0 2.4 4.65 2.4 L4.35 2.4 4.4 2.45 4.3 2.6 4.25 3.05 4.65 3.85 4.65 3.9 4.8 4.2 4.95 4.5 3.85 5.15 3.05 5.5 Q2.0 5.5 1.75 4.95 L1.5 4.55 1.1 3.7 0.6 3.15 Q0.35 3.4 0.35 3.85 0.35 4.35 0.65 4.7 L0.5 4.85 Q0.5 4.25 0.15 4.15 L-0.4 1.45 Q-0.4 0.05 -0.1 -0.45 0.5 -1.6 2.65 -1.6 L3.75 -1.5 M1.5 1.05 L1.45 1.05 1.35 1.1 1.5 1.05" fill="url(#gradient0)" fill-rule="evenodd" stroke="none"/>
    <path d="M7.65 -6.35 L8.0 -5.15 7.85 -3.2 7.4 -2.7 7.45 -2.85 Q7.05 -3.85 6.15 -3.85 L5.75 -3.6 Q5.45 -3.3 5.45 -2.85 L5.5 -2.55 5.3 -2.6 5.2 -2.9 5.1 -3.75 5.1 -3.95 Q6.15 -4.15 6.85 -4.8 7.55 -5.45 7.65 -6.35" fill="url(#gradient1)" fill-rule="evenodd" stroke="none"/>
    <path d="M7.4 -2.7 L5.5 -2.55 5.45 -2.85 Q5.45 -3.3 5.75 -3.6 L6.15 -3.85 Q7.05 -3.85 7.45 -2.85 L7.4 -2.7 M0.65 4.7 Q0.35 4.35 0.35 3.85 0.35 3.4 0.6 3.15 L1.1 3.7 1.5 4.55 1.25 4.4 1.15 4.4 0.7 4.5 0.65 4.7 M3.85 5.15 L4.95 4.5 4.8 4.2 5.0 4.15 5.1 4.65 4.85 5.95 4.25 6.25 4.2 6.3 3.35 6.9 3.15 6.9 3.1 6.55 Q3.1 6.2 3.8 5.25 L3.85 5.15 M10.4 0.3 L10.3 0.2 10.3 0.15 Q10.3 -0.25 11.05 -1.95 L11.15 -0.9 Q11.15 0.2 10.6 0.4 L10.4 0.3 M8.85 2.4 L8.85 2.7 Q8.85 4.5 7.7 5.3 6.55 6.1 6.1 5.8 L6.0 5.75 5.9 5.7 7.0 4.4 8.85 2.4 M1.6 11.6 L1.65 11.5 1.65 10.6 Q1.7 10.15 2.05 9.95 L2.7 9.45 3.0 9.4 2.5 10.8 1.6 11.6 M0.75 9.65 Q1.5 10.15 1.5 10.7 L1.4 11.1 0.3 11.15 0.2 10.55 Q0.2 9.9 0.75 9.65 M7.4 10.2 Q7.4 11.5 6.85 11.9 L6.75 11.7 Q6.75 10.5 7.3 10.2 L7.4 10.2 M-0.85 -0.55 L-1.0 0.15 -2.15 2.9 -2.15 3.1 -2.0 3.25 -2.4 4.15 Q-2.75 4.9 -3.65 4.75 -4.55 4.6 -4.55 3.9 L-3.6 3.0 Q-2.6 2.1 -2.4 1.5 L-1.5 -0.85 Q-1.3 -0.6 -0.9 -0.55 L-0.85 -0.55 M-2.45 6.55 L-3.4 7.55 -3.6 7.65 -3.65 7.7 -4.15 7.9 -4.6 8.1 -4.75 7.65 Q-4.75 7.1 -4.15 6.65 L-2.95 5.65 -2.45 6.55 M-10.15 5.85 L-11.15 4.4 -11.15 4.25 -10.5 4.15 -9.8 4.25 -9.65 5.2 -10.15 5.85 M-7.65 5.9 Q-7.35 6.3 -7.35 6.55 -7.35 7.05 -7.5 7.35 L-8.4 6.8 -8.75 6.0 -8.7 5.5 Q-8.9 5.4 -8.4 5.4 -8.0 5.4 -7.65 5.9 M-3.95 10.9 L-3.9 11.2 -3.9 11.25 -3.9 11.5 Q-3.9 12.25 -4.85 12.75 L-5.45 13.0 -5.55 12.4 -5.05 11.55 -4.45 10.9 -3.95 10.9 M-11.3 9.85 L-12.15 9.9 -12.35 9.9 -12.4 9.8 -12.55 8.8 -12.4 8.65 -12.15 8.2 -11.85 8.15 Q-11.55 8.15 -11.45 8.45 L-11.35 8.85 -10.85 9.2 -10.65 9.4 -10.7 9.75 -11.3 9.85 M-6.65 12.0 L-5.85 11.9 -5.75 12.4 Q-5.75 12.9 -6.05 12.9 L-6.65 12.9 -6.75 12.4 -6.75 12.1 -6.65 12.0" fill="#ffff99" fill-rule="evenodd" stroke="none"/>
    <path d="M10.4 0.3 L10.0 0.0 Q9.7 -0.3 9.7 -0.95 L9.8 -1.75 10.0 -1.95 10.95 -2.1 11.05 -1.95 Q10.3 -0.25 10.3 0.15 L10.3 0.2 10.4 0.3" fill="url(#gradient2)" fill-rule="evenodd" stroke="none"/>
    <path d="M0.15 4.15 Q0.5 4.25 0.5 4.85 L0.65 4.7 0.7 4.5 1.15 4.4 1.25 4.4 1.5 4.55 1.75 4.95 Q2.0 5.5 3.05 5.5 L3.85 5.15 3.8 5.25 Q3.1 6.2 3.1 6.55 L3.15 6.9 Q1.15 7.05 0.2 4.35 L0.2 4.3 0.1 4.15 0.15 4.15 M4.8 4.2 L4.65 3.9 4.65 3.85 4.25 3.05 4.3 2.6 4.4 2.45 4.35 2.4 4.65 2.4 Q5.0 2.4 5.95 3.6 L6.6 3.95 6.8 4.2 6.4 4.5 6.8 4.25 6.85 4.25 Q7.45 3.7 7.85 2.75 L8.45 0.7 8.6 0.65 8.85 2.4 7.0 4.4 5.9 5.7 6.0 5.75 5.85 5.7 4.85 5.95 5.1 4.65 5.0 4.15 4.8 4.2" fill="url(#gradient3)" fill-rule="evenodd" stroke="none"/>
    <path d="M6.8 4.2 L6.85 4.25 6.8 4.25 6.8 4.2" fill="url(#gradient4)" fill-rule="evenodd" stroke="none"/>
    <path d="M6.8 4.25 L6.4 4.5 6.8 4.2 6.8 4.25" fill="#ffcc00" fill-rule="evenodd" stroke="none"/>
    <path d="M0.55 6.9 Q2.3 7.0 2.85 7.65 L3.05 8.6 3.0 9.4 2.7 9.45 2.05 9.95 Q1.7 10.15 1.65 10.6 L1.65 11.5 1.6 11.6 0.3 11.9 Q-2.45 11.95 -2.45 9.65 -2.45 8.45 -2.0 7.75 L-1.4 8.35 Q-0.8 8.9 -0.4 8.9 L0.4 8.5 1.05 7.65 Q1.05 7.35 0.65 7.0 L0.55 6.9 M0.75 9.65 Q0.2 9.9 0.2 10.55 L0.3 11.15 1.4 11.1 1.5 10.7 Q1.5 10.15 0.75 9.65" fill="url(#gradient5)" fill-rule="evenodd" stroke="none"/>
    <path d="M7.2 8.95 L7.4 10.2 7.3 10.2 Q6.75 10.5 6.75 11.7 L5.95 10.7 5.25 9.8 6.3 9.75 7.2 8.95" fill="url(#gradient6)" fill-rule="evenodd" stroke="none"/>
    <path d="M-11.15 4.4 Q-12.55 2.2 -12.55 0.5 -12.55 -1.7 -12.05 -1.9 L-10.6 -1.9 -9.25 0.0 Q-8.8 0.5 -8.0 0.2 L-7.95 1.05 -7.95 1.6 -7.8 3.65 Q-7.4 5.4 -6.0 5.4 -5.3 5.4 -5.3 4.65 -5.3 4.35 -5.9 3.75 -6.55 3.1 -6.6 2.25 L-6.65 1.9 Q-5.6 1.9 -5.4 1.25 L-5.3 0.2 -4.15 -2.05 -3.45 -3.5 Q-2.1 -4.1 -1.3 -4.1 L-0.8 -3.15 -0.7 -1.95 Q-0.7 -1.2 -0.85 -0.55 L-0.9 -0.55 Q-1.3 -0.6 -1.5 -0.85 L-2.4 1.5 Q-2.6 2.1 -3.6 3.0 L-4.55 3.9 Q-4.55 4.6 -3.65 4.75 -2.75 4.9 -2.4 4.15 L-2.0 3.25 -1.75 3.35 Q-1.3 3.45 -1.3 3.95 -1.3 4.6 -2.05 5.25 L-2.45 6.55 -2.95 5.65 -4.15 6.65 Q-4.75 7.1 -4.75 7.65 L-4.6 8.1 -6.8 8.25 Q-8.55 7.9 -10.15 5.85 L-9.65 5.2 -9.8 4.25 -10.5 4.15 -11.15 4.25 -11.15 4.4 M-7.65 5.9 Q-8.0 5.4 -8.4 5.4 -8.9 5.4 -8.7 5.5 L-8.75 6.0 -8.4 6.8 -7.5 7.35 Q-7.35 7.05 -7.35 6.55 -7.35 6.3 -7.65 5.9" fill="url(#gradient7)" fill-rule="evenodd" stroke="none"/>
    <path d="M-7.35 9.2 L-6.8 8.4 -6.65 8.6 -7.25 9.1 -7.35 9.2 M-5.9 9.9 L-5.45 9.9 -4.2 10.15 -4.05 10.6 -3.95 10.9 -4.45 10.9 -5.05 11.55 -5.55 12.4 -5.45 13.0 -6.7 13.15 -6.8 12.4 -7.35 12.4 -7.8 12.2 -7.95 11.4 -7.65 10.0 -7.55 10.4 -6.2 10.4 -5.9 9.9 M-6.65 12.0 L-6.75 12.1 -6.75 12.4 -6.65 12.9 -6.05 12.9 Q-5.75 12.9 -5.75 12.4 L-5.85 11.9 -6.65 12.0" fill="url(#gradient8)" fill-rule="evenodd" stroke="none"/>
    <path d="M-8.95 7.7 L-8.8 8.1 Q-8.8 9.05 -9.3 9.35 -9.85 9.75 -11.3 9.85 L-10.7 9.75 -10.65 9.4 -10.85 9.2 -11.35 8.85 -11.45 8.45 Q-11.55 8.15 -11.85 8.15 L-12.15 8.2 -12.4 8.65 -12.55 8.8 -12.55 8.0 -12.45 6.05 Q-11.95 5.55 -11.2 5.45 L-11.2 5.9 Q-11.2 6.6 -10.6 7.45 -9.9 8.45 -8.95 7.7" fill="url(#gradient9)" fill-rule="evenodd" stroke="none"/>
    <path d="M-1.75 -16.65 L-0.5 -16.8 -0.4 -16.05 0.15 -16.05 0.6 -15.85 0.75 -15.05 0.45 -13.65 0.35 -14.05 -1.0 -14.05 -1.3 -13.55 -1.75 -13.55 -3.0 -13.8 -3.15 -14.25 -3.25 -14.55 -2.75 -14.55 -2.15 -15.2 Q-1.65 -15.85 -1.65 -16.05 L-1.75 -16.65 M0.15 -12.85 Q-0.15 -12.2 -0.4 -12.05 L-0.55 -12.25 0.05 -12.75 0.15 -12.85 M-1.45 -16.05 L-1.35 -15.55 -0.55 -15.65 -0.45 -15.75 -0.45 -16.05 -0.55 -16.55 -1.15 -16.55 Q-1.45 -16.55 -1.45 -16.05" fill="url(#gradient10)" fill-rule="evenodd" stroke="none"/>
    <path d="M0.45 -13.65 L0.35 -13.4 0.3 -13.25 0.15 -12.85 0.05 -12.75 -0.55 -12.25 -0.7 -12.45 -1.05 -13.05 -1.1 -13.2 -1.15 -13.3 -1.2 -13.45 -1.25 -13.55 -1.3 -13.55 -1.0 -14.05 0.35 -14.05 0.45 -13.65 M1.75 -11.35 Q2.7 -12.1 3.4 -11.1 4.0 -10.25 4.0 -9.55 L4.0 -9.05 3.75 -9.05 3.65 -9.05 3.0 -9.45 3.0 -9.5 2.4 -10.3 2.25 -10.5 1.95 -11.0 1.8 -11.3 1.75 -11.35 M-3.75 -0.15 L-3.05 -1.6 -1.9 -3.85 -1.8 -4.9 Q-1.6 -5.55 -0.55 -5.55 L-0.6 -5.9 Q-0.65 -6.75 -1.3 -7.4 -1.9 -8.0 -1.9 -8.3 -1.9 -9.05 -1.2 -9.05 0.2 -9.05 0.6 -7.3 L0.75 -5.25 0.75 -4.7 0.8 -3.85 Q1.6 -4.15 2.05 -3.65 L3.4 -1.75 0.15 -1.8 0.1 -1.8 -0.5 -1.7 -0.75 -1.6 -2.8 -0.65 -2.85 -0.6 -3.75 -0.15 M-5.2 -11.4 Q-5.55 -11.0 -6.0 -10.75 L-7.15 -10.55 -7.25 -10.55 -7.75 -10.55 -7.85 -10.65 Q-8.25 -11.0 -8.25 -11.3 L-7.6 -12.15 -6.8 -12.55 Q-6.4 -12.55 -5.8 -12.0 L-5.2 -11.4 M-12.45 -13.45 L-12.3 -13.05 -13.05 -12.25 -14.05 -12.05 -14.4 -12.6 -13.5 -13.4 -12.45 -13.45 M-14.05 -3.0 L-14.05 -3.15 Q-14.05 -4.45 -13.0 -4.85 -11.55 -5.4 -10.85 -6.55 -10.3 -6.25 -10.3 -5.8 -10.3 -5.1 -10.6 -4.25 -10.95 -3.35 -10.95 -2.25 L-10.95 -2.15 Q-11.5 -2.25 -11.6 -2.55 -11.7 -2.9 -14.05 -3.0 M-14.85 2.7 Q-14.75 1.8 -14.05 1.15 -13.35 0.5 -12.3 0.3 -12.35 1.1 -12.95 1.65 -13.7 2.3 -13.95 3.2 L-14.3 3.45 -14.85 2.7" fill="#fbbc00" fill-rule="evenodd" stroke="none"/>
    <path d="M-3.25 -14.55 L-3.3 -14.85 -3.3 -14.9 -3.3 -15.15 Q-3.3 -15.9 -2.35 -16.4 L-1.75 -16.65 -1.65 -16.05 Q-1.65 -15.85 -2.15 -15.2 L-2.75 -14.55 -3.25 -14.55 M5.35 -12.45 L5.2 -12.3 4.95 -11.85 4.65 -11.8 Q4.35 -11.8 4.25 -12.1 L4.15 -12.5 3.65 -12.85 3.45 -13.05 3.5 -13.4 4.1 -13.5 4.95 -13.55 5.15 -13.55 5.2 -13.45 5.35 -12.45 M0.15 -10.2 Q0.15 -10.7 0.3 -11.0 L1.2 -10.45 1.55 -9.65 1.5 -9.15 Q1.7 -9.05 1.2 -9.05 0.8 -9.05 0.45 -9.55 0.15 -9.95 0.15 -10.2 M3.95 -8.05 L3.95 -7.9 3.3 -7.8 2.6 -7.9 2.45 -8.85 2.95 -9.5 3.95 -8.05 M-2.6 -11.75 L-2.45 -11.3 Q-2.45 -10.75 -3.05 -10.3 L-4.25 -9.3 -4.75 -10.2 -3.8 -11.2 -3.6 -11.3 -3.55 -11.35 -3.05 -11.55 -2.6 -11.75 M-5.2 -6.9 L-4.8 -7.8 Q-4.45 -8.55 -3.55 -8.4 -2.65 -8.25 -2.65 -7.55 L-3.6 -6.65 Q-4.6 -5.75 -4.8 -5.15 L-5.7 -2.8 Q-5.9 -3.05 -6.3 -3.1 L-6.35 -3.1 -6.2 -3.8 -5.05 -6.55 -5.05 -6.75 -5.2 -6.9 M-10.2 -13.05 L-9.7 -14.45 -8.8 -15.25 -8.85 -15.15 -8.85 -14.25 Q-8.9 -13.8 -9.25 -13.6 L-9.9 -13.1 -10.2 -13.05 M-8.6 -14.75 L-7.5 -14.8 -7.4 -14.2 Q-7.4 -13.55 -7.95 -13.3 -8.7 -13.8 -8.7 -14.35 L-8.6 -14.75 M-1.45 -16.05 Q-1.45 -16.55 -1.15 -16.55 L-0.55 -16.55 -0.45 -16.05 -0.45 -15.75 -0.55 -15.65 -1.35 -15.55 -1.45 -16.05 M-14.6 -13.85 Q-14.6 -15.15 -14.05 -15.55 L-13.95 -15.35 Q-13.95 -14.15 -14.5 -13.85 L-14.6 -13.85 M-10.35 -10.55 L-10.3 -10.2 Q-10.3 -9.85 -11.0 -8.9 L-11.05 -8.8 -12.15 -8.15 -12.0 -7.85 -12.2 -7.8 -12.3 -8.3 -12.05 -9.6 Q-11.8 -9.7 -11.45 -9.9 L-11.4 -9.95 -10.55 -10.55 -10.35 -10.55 M-8.7 -8.2 L-8.45 -8.05 -8.35 -8.05 -7.9 -8.15 -7.85 -8.35 Q-7.55 -8.0 -7.55 -7.5 -7.55 -7.05 -7.8 -6.8 L-8.3 -7.35 -8.7 -8.2 M-13.2 -9.4 L-13.1 -9.35 -14.2 -8.05 -16.05 -6.05 -16.05 -6.35 Q-16.05 -8.15 -14.9 -8.95 -13.75 -9.75 -13.3 -9.45 L-13.2 -9.4 M-17.6 -3.95 L-17.5 -3.85 -17.5 -3.8 Q-17.5 -3.4 -18.25 -1.7 L-18.35 -2.75 Q-18.35 -3.85 -17.8 -4.05 L-17.6 -3.95 M-12.7 -1.1 L-12.65 -0.8 Q-12.65 -0.35 -12.95 -0.05 L-13.35 0.2 Q-14.25 0.2 -14.65 -0.8 L-14.6 -0.95 -12.7 -1.1" fill="#ffff99" fill-rule="evenodd" stroke="none"/>
    <path d="M4.1 -13.5 L3.5 -13.4 3.45 -13.05 3.65 -12.85 4.15 -12.5 4.25 -12.1 Q4.35 -11.8 4.65 -11.8 L4.95 -11.85 5.2 -12.3 5.35 -12.45 5.35 -11.65 5.25 -9.7 Q4.75 -9.2 4.0 -9.05 L4.0 -9.55 Q4.0 -10.25 3.4 -11.1 2.7 -12.1 1.75 -11.35 L1.6 -11.75 Q1.6 -12.7 2.1 -13.0 L4.1 -13.5" fill="url(#gradient11)" fill-rule="evenodd" stroke="none"/>
    <path d="M0.15 -10.2 Q0.15 -9.95 0.45 -9.55 0.8 -9.05 1.2 -9.05 1.7 -9.05 1.5 -9.15 L1.55 -9.65 1.2 -10.45 0.3 -11.0 Q0.15 -10.7 0.15 -10.2 M2.95 -9.5 L2.45 -8.85 2.6 -7.9 3.3 -7.8 3.95 -7.9 3.95 -8.05 Q5.35 -5.85 5.35 -4.15 5.35 -1.95 4.85 -1.75 L3.4 -1.75 2.05 -3.65 Q1.6 -4.15 0.8 -3.85 L0.75 -4.7 0.75 -5.25 0.6 -7.3 Q0.2 -9.05 -1.2 -9.05 -1.9 -9.05 -1.9 -8.3 -1.9 -8.0 -1.3 -7.4 -0.65 -6.75 -0.6 -5.9 L-0.55 -5.55 Q-1.6 -5.55 -1.8 -4.9 L-1.9 -3.85 -3.05 -1.6 -3.75 -0.15 Q-5.1 0.45 -5.9 0.45 L-6.4 -0.5 -6.5 -1.7 -6.35 -3.1 -6.3 -3.1 Q-5.9 -3.05 -5.7 -2.8 L-4.8 -5.15 Q-4.6 -5.75 -3.6 -6.65 L-2.65 -7.55 Q-2.65 -8.25 -3.55 -8.4 -4.45 -8.55 -4.8 -7.8 L-5.2 -6.9 -5.45 -7.0 Q-5.9 -7.1 -5.9 -7.6 -5.9 -8.25 -5.15 -8.9 L-4.75 -10.2 -4.25 -9.3 -3.05 -10.3 Q-2.45 -10.75 -2.45 -11.3 L-2.6 -11.75 -0.4 -11.9 Q1.35 -11.55 2.95 -9.5 M4.15 -3.8 L4.2 -3.8 4.2 -3.85 4.15 -3.8" fill="url(#gradient12)" fill-rule="evenodd" stroke="none"/>
    <path d="M-8.8 -15.25 L-7.5 -15.55 Q-4.75 -15.6 -4.75 -13.3 -4.75 -12.1 -5.2 -11.4 L-5.8 -12.0 Q-6.4 -12.55 -6.8 -12.55 L-7.6 -12.15 -8.25 -11.3 Q-8.25 -11.0 -7.85 -10.65 L-7.75 -10.55 Q-9.5 -10.65 -10.05 -11.3 L-10.25 -12.25 -10.2 -13.05 -9.9 -13.1 -9.25 -13.6 Q-8.9 -13.8 -8.85 -14.25 L-8.85 -15.15 -8.8 -15.25 M-8.6 -14.75 L-8.7 -14.35 Q-8.7 -13.8 -7.95 -13.3 -7.4 -13.55 -7.4 -14.2 L-7.5 -14.8 -8.6 -14.75" fill="url(#gradient13)" fill-rule="evenodd" stroke="none"/>
    <path d="M-13.95 -15.35 L-13.15 -14.35 -12.45 -13.45 -13.5 -13.4 -14.4 -12.6 -14.6 -13.85 -14.5 -13.85 Q-13.95 -14.15 -13.95 -15.35" fill="url(#gradient14)" fill-rule="evenodd" stroke="none"/>
    <path d="M-11.05 -8.8 L-11.0 -8.9 Q-10.3 -9.85 -10.3 -10.2 L-10.35 -10.55 Q-8.35 -10.7 -7.4 -8.0 L-7.4 -7.95 -7.3 -7.8 -7.35 -7.8 Q-7.7 -7.9 -7.7 -8.5 L-7.85 -8.35 -7.9 -8.15 -8.35 -8.05 -8.45 -8.05 -8.7 -8.2 -8.95 -8.6 Q-9.2 -9.15 -10.25 -9.15 L-11.05 -8.8 M-12.05 -9.6 L-12.3 -8.3 -12.2 -7.8 -12.0 -7.85 -11.85 -7.55 -11.85 -7.5 -11.45 -6.7 -11.5 -6.25 -11.6 -6.1 -11.55 -6.05 -11.85 -6.05 Q-12.2 -6.05 -13.15 -7.25 L-13.8 -7.6 -14.0 -7.85 -13.6 -8.15 -14.0 -7.9 -14.05 -7.9 -15.05 -6.4 -15.65 -4.35 -15.8 -4.3 -16.05 -6.05 -14.2 -8.05 -13.1 -9.35 -13.2 -9.4 -13.05 -9.35 -12.05 -9.6" fill="url(#gradient15)" fill-rule="evenodd" stroke="none"/>
    <path d="M-14.05 -7.9 L-14.0 -7.9 -14.0 -7.85 -14.05 -7.9" fill="url(#gradient16)" fill-rule="evenodd" stroke="none"/>
    <path d="M-12.0 -7.85 L-12.15 -8.15 -11.05 -8.8 -10.25 -9.15 Q-9.2 -9.15 -8.95 -8.6 L-8.7 -8.2 -8.3 -7.35 -7.8 -6.8 Q-7.55 -7.05 -7.55 -7.5 -7.55 -8.0 -7.85 -8.35 L-7.7 -8.5 Q-7.7 -7.9 -7.35 -7.8 -6.9 -6.5 -6.8 -5.1 -6.8 -3.7 -7.1 -3.2 -7.7 -2.05 -9.85 -2.05 L-10.95 -2.15 -10.95 -2.25 Q-10.95 -3.35 -10.6 -4.25 -10.3 -5.1 -10.3 -5.8 -10.3 -6.25 -10.85 -6.55 -11.55 -5.4 -13.0 -4.85 -14.05 -4.45 -14.05 -3.15 L-14.05 -3.0 -15.2 -3.05 Q-15.75 -3.45 -15.75 -4.05 L-15.8 -4.3 -15.65 -4.35 -15.05 -6.4 -14.05 -7.9 -14.0 -7.85 -13.8 -7.6 -13.15 -7.25 Q-12.2 -6.05 -11.85 -6.05 L-11.55 -6.05 -11.6 -6.1 -11.5 -6.25 -11.45 -6.7 -11.85 -7.5 -11.85 -7.55 -12.0 -7.85 M-14.55 -5.3 L-14.5 -5.3 -14.5 -5.35 -14.55 -5.3 M-8.55 -4.75 L-8.7 -4.7 -8.65 -4.7 -8.55 -4.75" fill="url(#gradient17)" fill-rule="evenodd" stroke="none"/>
    <path d="M-14.0 -7.9 L-13.6 -8.15 -14.0 -7.85 -14.0 -7.9" fill="#ffcc00" fill-rule="evenodd" stroke="none"/>
    <path d="M-17.6 -3.95 L-17.2 -3.65 Q-16.9 -3.35 -16.9 -2.7 L-17.0 -1.9 -17.2 -1.7 -18.15 -1.55 -18.25 -1.7 Q-17.5 -3.4 -17.5 -3.8 L-17.5 -3.85 -17.6 -3.95" fill="url(#gradient18)" fill-rule="evenodd" stroke="none"/>
    <path d="M-14.85 2.7 L-15.2 1.5 -15.05 -0.45 -14.6 -0.95 -14.65 -0.8 Q-14.25 0.2 -13.35 0.2 L-12.95 -0.05 Q-12.65 -0.35 -12.65 -0.8 L-12.7 -1.1 -12.5 -1.05 -12.4 -0.75 -12.3 0.1 -12.3 0.3 Q-13.35 0.5 -14.05 1.15 -14.75 1.8 -14.85 2.7" fill="url(#gradient19)" fill-rule="evenodd" stroke="none"/>
    <path d="M11.1 -15.9 L10.5 -16.0 Q10.2 -16.05 10.1 -15.6 L10.1 -15.1 10.9 -15.05 11.05 -15.1 11.1 -15.4 11.1 -15.9 M9.95 -16.25 L11.2 -16.1 11.15 -15.4 11.7 -15.3 12.1 -15.0 12.05 -14.15 11.5 -12.9 11.5 -13.3 10.15 -13.55 9.75 -13.15 9.35 -13.25 8.15 -13.75 8.05 -14.15 8.05 -14.5 8.55 -14.4 9.25 -14.9 9.95 -15.65 9.95 -16.25 M11.0 -12.1 L10.3 -11.45 10.2 -11.7 10.9 -12.05 11.0 -12.1" fill="url(#gradient20)" fill-rule="evenodd" stroke="none"/>
    <path d="M11.1 -15.9 L11.1 -15.4 11.05 -15.1 10.9 -15.05 10.1 -15.1 10.1 -15.6 Q10.2 -16.05 10.5 -16.0 L11.1 -15.9 M8.05 -14.5 L8.05 -14.8 8.05 -14.85 8.1 -15.1 Q8.25 -15.85 9.3 -16.15 L9.95 -16.25 9.95 -15.65 9.25 -14.9 8.55 -14.4 8.05 -14.5 M2.8 -16.3 L2.7 -16.2 2.5 -15.3 2.0 -14.8 1.25 -14.45 0.95 -14.45 1.7 -15.7 Q2.1 -16.2 2.8 -16.3 M3.95 -15.6 L3.9 -15.0 Q3.8 -14.4 3.2 -14.25 2.6 -14.9 2.7 -15.4 L2.85 -15.75 3.95 -15.6 M8.1 -11.6 L8.15 -11.15 Q8.05 -10.6 7.35 -10.3 L6.0 -9.6 5.7 -10.55 Q6.15 -11.05 6.8 -11.35 L7.0 -11.4 7.1 -11.45 7.75 -11.55 8.1 -11.65 8.1 -11.6 M4.55 -7.45 L5.15 -8.2 Q5.65 -8.9 6.5 -8.55 7.35 -8.2 7.2 -7.5 7.2 -7.4 6.05 -6.85 L4.6 -5.6 3.25 -3.5 2.75 -3.9 2.7 -3.9 2.95 -4.6 4.65 -7.05 4.7 -7.25 4.55 -7.45 M13.75 -6.65 L13.75 -6.5 13.05 -6.55 Q12.7 -6.65 12.45 -6.8 L12.45 -7.75 13.1 -8.3 13.75 -6.65 M0.25 -12.05 L0.25 -11.65 -0.65 -10.55 -0.75 -10.45 -1.95 -10.05 -1.9 -9.7 -2.1 -9.7 -2.1 -10.25 -1.6 -11.45 -0.9 -11.6 -0.85 -11.65 Q0.05 -12.0 0.05 -12.05 L0.25 -12.05 M1.45 -9.4 L1.6 -9.2 1.7 -9.15 2.2 -9.2 2.25 -9.35 2.4 -8.45 2.0 -7.85 1.6 -8.45 1.45 -9.4 M16.0 -10.7 L15.85 -10.55 15.55 -10.15 15.2 -10.2 Q14.9 -10.3 14.9 -10.55 L14.85 -10.95 14.45 -11.45 Q14.25 -11.5 14.3 -11.65 L14.4 -12.0 15.0 -12.0 15.9 -11.85 16.1 -11.8 16.1 -11.7 16.0 -10.7 M10.8 -10.3 L11.55 -9.6 11.75 -8.7 11.6 -8.25 Q11.75 -8.1 11.25 -8.25 10.85 -8.3 10.65 -8.85 L10.5 -9.55 10.8 -10.3 M-3.2 -16.15 Q-2.95 -17.4 -2.3 -17.7 L-2.25 -17.45 Q-2.5 -16.25 -3.1 -16.15 L-3.2 -16.15 M-2.7 -11.5 L-2.7 -11.45 -4.0 -10.35 -6.2 -8.8 -6.15 -9.1 Q-5.75 -10.85 -4.5 -11.4 L-2.8 -11.6 -2.7 -11.5 M-8.2 -7.05 L-8.1 -6.95 -8.1 -6.9 Q-8.2 -6.5 -9.25 -5.0 L-9.1 -6.0 Q-8.9 -7.1 -8.3 -7.2 L-8.2 -7.05 M-3.95 -3.25 L-3.95 -2.95 Q-4.05 -2.5 -4.4 -2.3 L-4.8 -2.15 Q-5.7 -2.35 -5.9 -3.35 L-5.85 -3.5 -3.95 -3.25" fill="#ffff99" fill-rule="evenodd" stroke="none"/>
    <path d="M11.5 -12.9 L11.35 -12.65 11.25 -12.5 11.1 -12.25 11.05 -12.15 11.0 -12.1 10.9 -12.05 10.2 -11.7 10.1 -11.9 9.9 -12.6 9.85 -12.75 9.85 -12.85 9.8 -13.0 9.8 -13.15 9.75 -13.15 10.15 -13.55 11.5 -13.3 11.5 -12.9 M2.8 -11.5 L2.75 -11.6 Q2.4 -12.05 2.45 -12.35 L3.3 -13.0 4.2 -13.25 5.0 -12.5 5.5 -11.85 4.55 -11.35 3.4 -11.4 3.3 -11.4 2.8 -11.5 M4.6 -0.55 L5.6 -1.8 7.2 -3.75 7.5 -4.75 Q7.85 -5.35 8.85 -5.15 L8.85 -5.5 Q9.0 -6.35 8.5 -7.1 8.05 -7.8 8.1 -8.1 8.25 -8.85 8.9 -8.7 10.3 -8.45 10.35 -6.6 L10.05 -4.55 9.95 -4.1 9.8 -3.2 Q10.65 -3.35 11.0 -2.75 L11.9 -0.65 8.8 -1.35 8.1 -1.35 7.85 -1.3 5.65 -0.8 5.6 -0.75 4.6 -0.55 M12.4 -9.95 L12.3 -10.35 Q13.4 -10.85 13.85 -9.8 14.25 -8.8 14.1 -8.1 L14.0 -7.65 13.9 -7.65 13.75 -7.7 13.65 -7.75 13.15 -8.25 13.15 -8.3 12.7 -9.2 12.6 -9.4 12.4 -9.95 M-1.2 -15.3 L-1.1 -14.9 -2.05 -14.25 Q-2.35 -14.05 -3.05 -14.25 L-3.25 -14.85 Q-3.0 -15.3 -2.2 -15.45 L-1.2 -15.3 M-4.85 -5.4 L-4.85 -5.55 Q-4.6 -6.85 -3.5 -7.0 -1.95 -7.25 -1.0 -8.25 -0.55 -7.8 -0.65 -7.35 L-1.25 -5.95 -1.95 -4.05 -2.0 -3.95 -2.55 -4.5 Q-2.6 -4.8 -4.85 -5.4 M-6.85 0.0 Q-6.55 -0.85 -5.7 -1.35 -4.9 -1.85 -3.85 -1.85 -4.05 -1.05 -4.75 -0.6 -5.6 -0.15 -6.05 0.7 L-6.45 0.85 -6.85 0.0" fill="#fbbc00" fill-rule="evenodd" stroke="none"/>
    <path d="M0.95 -14.45 L1.25 -14.45 2.0 -14.8 2.5 -15.3 2.7 -16.2 2.8 -16.3 4.1 -16.35 Q6.8 -15.85 6.35 -13.6 6.1 -12.4 5.5 -11.85 L5.0 -12.5 4.2 -13.25 3.3 -13.0 2.45 -12.35 Q2.4 -12.05 2.75 -11.6 L2.8 -11.5 Q1.15 -11.95 0.7 -12.7 0.55 -13.0 0.7 -13.65 L0.95 -14.45 M3.95 -15.6 L2.85 -15.75 2.7 -15.4 Q2.6 -14.9 3.2 -14.25 3.8 -14.4 3.9 -15.0 L3.95 -15.6" fill="url(#gradient21)" fill-rule="evenodd" stroke="none"/>
    <path d="M5.7 -10.55 L6.0 -9.6 7.35 -10.3 Q8.05 -10.6 8.15 -11.15 L8.1 -11.6 10.3 -11.3 Q11.9 -10.65 13.1 -8.3 L12.45 -7.75 12.45 -6.8 Q12.7 -6.65 13.05 -6.55 L13.75 -6.5 13.75 -6.65 Q14.65 -4.25 14.3 -2.6 13.85 -0.45 13.35 -0.35 L11.9 -0.65 11.0 -2.75 Q10.65 -3.35 9.8 -3.2 L9.95 -4.1 10.05 -4.55 10.35 -6.6 Q10.3 -8.45 8.9 -8.7 8.25 -8.85 8.1 -8.1 8.05 -7.8 8.5 -7.1 9.0 -6.35 8.85 -5.5 L8.85 -5.15 Q7.85 -5.35 7.5 -4.75 L7.2 -3.75 5.6 -1.8 4.6 -0.55 2.35 -0.35 2.1 -1.4 2.25 -2.6 Q2.4 -3.35 2.7 -3.9 L2.75 -3.9 3.25 -3.5 4.6 -5.6 6.05 -6.85 Q7.2 -7.4 7.2 -7.5 7.35 -8.2 6.5 -8.55 5.65 -8.9 5.15 -8.2 L4.55 -7.45 4.35 -7.6 Q3.9 -7.75 4.0 -8.2 4.15 -8.85 5.05 -9.35 L5.7 -10.55 M10.8 -10.3 L10.5 -9.55 10.65 -8.85 Q10.85 -8.3 11.25 -8.25 11.75 -8.1 11.6 -8.25 L11.75 -8.7 11.55 -9.6 10.8 -10.3 M13.15 -2.45 L13.15 -2.5 13.1 -2.45 13.15 -2.45" fill="url(#gradient22)" fill-rule="evenodd" stroke="none"/>
    <path d="M2.65 -8.7 Q2.35 -8.9 2.45 -9.5 L2.25 -9.35 2.2 -9.2 1.7 -9.15 1.6 -9.2 1.45 -9.4 1.25 -9.85 Q1.15 -10.45 0.1 -10.65 L-0.75 -10.45 -0.65 -10.55 0.25 -11.65 0.25 -12.05 Q2.25 -11.75 2.65 -8.95 L2.65 -8.9 2.7 -8.7 2.65 -8.7 M-1.9 -9.7 L-1.8 -9.4 -1.8 -9.35 Q-1.5 -8.85 -1.55 -8.5 L-1.7 -8.05 -1.85 -7.95 -1.8 -7.9 -2.1 -7.95 Q-2.45 -8.0 -3.1 -9.35 L-3.7 -9.85 -3.85 -10.1 -3.45 -10.35 -3.8 -10.15 -3.85 -10.2 -5.2 -8.95 -6.15 -7.05 -6.3 -7.05 -6.2 -8.8 -4.0 -10.35 -2.7 -11.45 -2.7 -11.5 -2.65 -11.45 -1.6 -11.45 -2.1 -10.25 -2.1 -9.7 -1.9 -9.7" fill="url(#gradient23)" fill-rule="evenodd" stroke="none"/>
    <path d="M2.25 -9.35 L2.45 -9.5 Q2.35 -8.9 2.65 -8.7 2.85 -7.4 2.65 -5.95 2.35 -4.6 1.95 -4.15 1.15 -3.2 -0.95 -3.65 -1.65 -3.75 -2.0 -3.95 L-1.95 -4.05 -1.25 -5.95 -0.65 -7.35 Q-0.55 -7.8 -1.0 -8.25 -1.95 -7.25 -3.5 -7.0 -4.6 -6.85 -4.85 -5.55 L-4.85 -5.4 -6.0 -5.65 Q-6.45 -6.2 -6.3 -6.8 L-6.3 -7.05 -6.15 -7.05 -5.2 -8.95 -3.85 -10.2 -3.85 -10.1 -3.7 -9.85 -3.1 -9.35 Q-2.45 -8.0 -2.1 -7.95 L-1.8 -7.9 -1.85 -7.95 -1.7 -8.05 -1.55 -8.5 Q-1.5 -8.85 -1.8 -9.35 L-1.8 -9.4 -1.9 -9.7 -1.95 -10.05 -0.75 -10.45 0.1 -10.65 Q1.15 -10.45 1.25 -9.85 L1.45 -9.4 1.6 -8.45 2.0 -7.85 2.4 -8.45 2.25 -9.35 M-4.9 -7.75 L-4.85 -7.75 -4.85 -7.8 -4.9 -7.75" fill="url(#gradient24)" fill-rule="evenodd" stroke="none"/>
    <path d="M16.0 -10.7 L15.85 -9.95 15.4 -8.0 Q14.8 -7.6 14.0 -7.65 L14.1 -8.1 Q14.25 -8.8 13.85 -9.8 13.4 -10.85 12.3 -10.35 L12.4 -9.95 12.2 -10.8 Q12.4 -11.7 12.95 -11.9 L15.0 -12.0 14.4 -12.0 14.3 -11.65 Q14.25 -11.5 14.45 -11.45 L14.85 -10.95 14.9 -10.55 Q14.9 -10.3 15.2 -10.2 L15.55 -10.15 15.85 -10.55 16.0 -10.7" fill="url(#gradient25)" fill-rule="evenodd" stroke="none"/>
    <path d="M-2.25 -17.45 L-1.65 -16.3 -1.2 -15.3 -2.2 -15.45 Q-3.0 -15.3 -3.25 -14.85 L-3.2 -16.15 -3.1 -16.15 Q-2.5 -16.25 -2.25 -17.45" fill="url(#gradient26)" fill-rule="evenodd" stroke="none"/>
    <path d="M-3.85 -10.2 L-3.8 -10.15 -3.85 -10.1 -3.85 -10.2" fill="url(#gradient27)" fill-rule="evenodd" stroke="none"/>
    <path d="M-3.8 -10.15 L-3.45 -10.35 -3.85 -10.1 -3.8 -10.15" fill="#ffcc00" fill-rule="evenodd" stroke="none"/>
    <path d="M-9.25 -5.0 Q-8.2 -6.5 -8.1 -6.9 L-8.1 -6.95 -8.2 -7.05 -7.85 -6.7 Q-7.6 -6.3 -7.75 -5.65 L-8.0 -4.95 -8.25 -4.8 -9.15 -4.8 -9.25 -5.0" fill="url(#gradient28)" fill-rule="evenodd" stroke="none"/>
    <path d="M-5.85 -3.5 L-5.9 -3.35 Q-5.7 -2.35 -4.8 -2.15 L-4.4 -2.3 Q-4.05 -2.5 -3.95 -2.95 L-3.95 -3.25 -3.75 -3.15 -3.75 -2.85 -3.8 -2.05 -3.85 -1.85 Q-4.9 -1.85 -5.7 -1.35 -6.55 -0.85 -6.85 0.0 L-6.95 -1.2 -6.4 -3.1 -5.85 -3.5" fill="url(#gradient29)" fill-rule="evenodd" stroke="none"/>
    <path d="M10.2 -11.3 L10.7 -11.3 11.3 -11.95 11.8 -12.8 11.7 -13.4 12.95 -13.55 13.05 -12.8 13.6 -12.8 14.05 -12.6 14.2 -11.8 13.9 -10.4 13.8 -10.8 12.45 -10.8 12.15 -10.3 11.7 -10.3 10.45 -10.55 10.3 -11.0 10.2 -11.3 M12.3 -13.3 Q12.0 -13.3 12.0 -12.8 L12.1 -12.3 12.9 -12.4 13.0 -12.5 13.0 -12.8 12.9 -13.3 12.3 -13.3 M12.9 -9.0 L13.5 -9.5 13.6 -9.6 13.05 -8.8 12.9 -9.0" fill="url(#gradient30)" fill-rule="evenodd" stroke="none"/>
    <path d="M11.7 -13.4 L11.8 -12.8 11.3 -11.95 10.7 -11.3 10.2 -11.3 10.15 -11.6 10.15 -11.65 10.15 -11.9 Q10.15 -12.65 11.1 -13.15 L11.7 -13.4 M12.3 -13.3 L12.9 -13.3 13.0 -12.8 13.0 -12.5 12.9 -12.4 12.1 -12.3 12.0 -12.8 Q12.0 -13.3 12.3 -13.3 M5.5 -10.05 Q4.75 -10.55 4.75 -11.1 4.75 -11.6 4.85 -11.5 L5.95 -11.55 6.05 -10.95 Q6.05 -10.3 5.5 -10.05 M3.25 -9.8 L3.75 -11.2 4.65 -12.0 4.6 -11.9 4.6 -11.0 Q4.55 -10.55 4.2 -10.35 L3.55 -9.85 3.25 -9.8 M8.7 -6.95 L9.65 -7.95 9.85 -8.05 9.9 -8.1 10.4 -8.3 10.85 -8.5 11.0 -8.05 Q11.0 -7.5 10.4 -7.05 L9.2 -6.05 8.7 -6.95 M16.4 -6.25 L17.4 -4.8 17.4 -4.65 16.75 -4.55 16.05 -4.65 15.9 -5.6 16.4 -6.25 M7.1 0.15 L7.25 -0.55 8.4 -3.3 8.4 -3.5 8.25 -3.65 8.65 -4.55 Q9.0 -5.3 9.9 -5.15 10.8 -5.0 10.8 -4.3 L9.85 -3.4 8.65 -1.9 7.75 0.45 7.15 0.15 7.1 0.15 M-1.15 -10.6 Q-1.15 -11.9 -0.6 -12.3 L-0.5 -12.1 Q-0.5 -10.9 -1.05 -10.6 L-1.15 -10.6 M1.4 -6.35 L2.0 -6.65 2.05 -6.7 2.9 -7.3 3.1 -7.3 3.15 -6.95 2.45 -5.65 2.4 -5.55 1.3 -4.9 1.45 -4.6 1.25 -4.55 Q1.15 -4.55 1.15 -5.05 1.15 -5.9 1.4 -6.35 M-2.6 -2.8 L-2.6 -3.1 Q-2.6 -4.9 -1.45 -5.7 -0.3 -6.5 0.15 -6.2 L0.25 -6.15 0.35 -6.1 -0.75 -4.8 -2.6 -2.8 M4.75 -4.95 L5.0 -4.8 5.1 -4.8 5.55 -4.9 5.6 -5.1 5.9 -4.25 5.65 -3.55 5.15 -4.1 Q4.75 -4.65 4.75 -4.95 M17.55 -10.25 L18.4 -10.3 18.6 -10.3 18.65 -10.2 18.8 -9.2 18.65 -9.05 18.4 -8.6 18.1 -8.55 Q17.8 -8.55 17.7 -8.85 L17.6 -9.25 17.1 -9.6 16.9 -9.8 16.95 -10.15 17.55 -10.25 M14.65 -7.2 L15.0 -6.4 14.95 -5.9 14.65 -5.8 Q14.25 -5.8 13.9 -6.3 L13.6 -6.95 Q13.6 -7.45 13.75 -7.75 14.25 -7.7 14.65 -7.2 M0.75 2.15 L0.8 2.45 0.5 3.2 0.1 3.45 Q-0.8 3.45 -1.2 2.45 L-1.15 2.3 0.75 2.15 M-4.8 1.55 L-4.9 0.5 Q-4.9 -0.6 -4.35 -0.8 L-4.15 -0.7 -4.05 -0.6 -4.05 -0.55 Q-4.05 -0.15 -4.8 1.55" fill="#ffff99" fill-rule="evenodd" stroke="none"/>
    <path d="M5.5 -10.05 Q6.05 -10.3 6.05 -10.95 L5.95 -11.55 4.85 -11.5 Q4.75 -11.6 4.75 -11.1 4.75 -10.55 5.5 -10.05 M8.25 -8.15 L7.65 -8.75 Q7.05 -9.3 6.65 -9.3 L5.85 -8.9 Q5.2 -8.4 5.2 -8.05 5.2 -7.75 5.6 -7.4 L5.7 -7.3 Q3.95 -7.4 3.4 -8.05 3.2 -8.3 3.2 -9.0 L3.25 -9.8 3.55 -9.85 4.2 -10.35 Q4.55 -10.55 4.6 -11.0 L4.6 -11.9 4.65 -12.0 5.95 -12.3 Q8.7 -12.35 8.7 -10.05 8.7 -8.85 8.25 -8.15" fill="url(#gradient31)" fill-rule="evenodd" stroke="none"/>
    <path d="M12.15 -10.3 L12.45 -10.8 13.8 -10.8 13.9 -10.4 13.8 -10.15 13.75 -10.0 13.6 -9.6 13.5 -9.5 12.9 -9.0 12.75 -9.2 12.4 -9.8 12.35 -9.95 12.3 -10.05 12.25 -10.2 12.2 -10.3 12.15 -10.3 M8.25 -8.15 L7.45 -7.5 6.3 -7.3 6.2 -7.3 5.7 -7.3 5.6 -7.4 Q5.2 -7.75 5.2 -8.05 5.2 -8.4 5.85 -8.9 L6.65 -9.3 Q7.05 -9.3 7.65 -8.75 L8.25 -8.15 M16.85 1.5 L13.6 1.45 13.55 1.45 12.95 1.55 12.7 1.65 Q11.9 1.9 10.65 2.6 L10.6 2.65 9.7 3.1 10.4 1.65 11.55 -0.6 11.65 -1.65 Q11.85 -2.3 12.9 -2.3 L12.85 -2.65 Q12.8 -3.5 12.15 -4.15 11.55 -4.75 11.55 -5.05 11.55 -5.8 12.25 -5.8 13.65 -5.8 14.05 -4.05 L14.2 -2.0 14.2 -1.45 14.25 -0.6 Q15.05 -0.9 15.5 -0.4 L16.85 1.5 M1.0 -10.2 L1.15 -9.8 0.4 -9.0 -0.6 -8.8 -0.95 -9.35 Q-0.8 -9.8 -0.05 -10.15 L1.0 -10.2 M2.5 1.1 L1.85 0.7 Q1.75 0.35 -0.6 0.25 L-0.6 0.1 Q-0.6 -1.2 0.45 -1.6 1.9 -2.15 2.6 -3.3 3.15 -3.0 3.15 -2.55 L2.85 -1.0 Q2.5 -0.1 2.5 1.0 L2.5 1.1 M17.45 -5.8 L17.2 -5.8 17.1 -5.8 Q16.85 -5.8 16.45 -6.2 L16.45 -6.25 15.85 -7.05 15.7 -7.25 15.4 -7.75 15.25 -8.05 15.2 -8.1 Q16.15 -8.85 16.85 -7.85 17.45 -7.0 17.45 -6.3 L17.45 -5.8 M-1.4 5.95 Q-1.3 5.05 -0.6 4.4 0.1 3.75 1.15 3.55 1.1 4.35 0.5 4.9 -0.25 5.55 -0.5 6.45 L-0.85 6.7 -1.4 5.95" fill="#fbbc00" fill-rule="evenodd" stroke="none"/>
    <path d="M-0.95 -9.35 L-1.15 -10.6 -1.05 -10.6 Q-0.5 -10.9 -0.5 -12.1 L0.3 -11.1 1.0 -10.2 -0.05 -10.15 Q-0.8 -9.8 -0.95 -9.35" fill="url(#gradient32)" fill-rule="evenodd" stroke="none"/>
    <path d="M3.1 -7.3 Q5.1 -7.45 6.05 -4.75 L6.05 -4.7 6.15 -4.55 6.1 -4.55 Q5.75 -4.65 5.75 -5.25 L5.6 -5.1 5.55 -4.9 5.1 -4.8 5.0 -4.8 4.75 -4.95 4.5 -5.35 Q4.25 -5.9 3.2 -5.9 L2.4 -5.55 2.45 -5.65 3.15 -6.95 3.1 -7.3 M-2.35 -1.05 L-2.6 -2.8 -0.75 -4.8 0.35 -6.1 0.25 -6.15 0.4 -6.1 1.4 -6.35 Q1.15 -5.9 1.15 -5.05 1.15 -4.55 1.25 -4.55 L1.45 -4.6 1.6 -4.3 1.6 -4.25 2.0 -3.45 1.95 -3.0 1.85 -2.85 1.9 -2.8 1.6 -2.8 Q1.25 -2.8 0.3 -4.0 L-0.35 -4.35 -0.55 -4.6 -0.15 -4.9 -0.55 -4.65 -0.6 -4.65 Q-1.2 -4.1 -1.6 -3.15 L-2.2 -1.1 -2.35 -1.05" fill="url(#gradient33)" fill-rule="evenodd" stroke="none"/>
    <path d="M6.1 -4.55 L6.65 -1.85 Q6.65 -0.45 6.35 0.05 5.75 1.2 3.6 1.2 L2.5 1.1 2.5 1.0 Q2.5 -0.1 2.85 -1.0 L3.15 -2.55 Q3.15 -3.0 2.6 -3.3 1.9 -2.15 0.45 -1.6 -0.6 -1.2 -0.6 0.1 L-0.6 0.25 -1.75 0.2 Q-2.3 -0.2 -2.3 -0.8 L-2.35 -1.05 -2.2 -1.1 -1.6 -3.15 Q-1.2 -4.1 -0.6 -4.65 L-0.55 -4.6 -0.35 -4.35 0.3 -4.0 Q1.25 -2.8 1.6 -2.8 L1.9 -2.8 1.85 -2.85 1.95 -3.0 2.0 -3.45 1.6 -4.25 1.6 -4.3 1.45 -4.6 1.3 -4.9 2.4 -5.55 3.2 -5.9 Q4.25 -5.9 4.5 -5.35 L4.75 -4.95 Q4.75 -4.65 5.15 -4.1 L5.65 -3.55 5.9 -4.25 5.6 -5.1 5.75 -5.25 Q5.75 -4.65 6.1 -4.55 M4.75 -1.45 L4.8 -1.45 4.9 -1.5 4.75 -1.45 M-1.05 -2.05 L-1.05 -2.1 -1.1 -2.05 -1.05 -2.05" fill="url(#gradient34)" fill-rule="evenodd" stroke="none"/>
    <path d="M8.7 -6.95 L9.2 -6.05 10.4 -7.05 Q11.0 -7.5 11.0 -8.05 L10.85 -8.5 13.05 -8.65 Q14.8 -8.3 16.4 -6.25 L15.9 -5.6 16.05 -4.65 16.75 -4.55 17.4 -4.65 17.4 -4.8 Q18.8 -2.6 18.8 -0.9 18.8 1.3 18.3 1.5 L16.85 1.5 15.5 -0.4 Q15.05 -0.9 14.25 -0.6 L14.2 -1.45 14.2 -2.0 14.05 -4.05 Q13.65 -5.8 12.25 -5.8 11.55 -5.8 11.55 -5.05 11.55 -4.75 12.15 -4.15 12.8 -3.5 12.85 -2.65 L12.9 -2.3 Q11.85 -2.3 11.65 -1.65 L11.55 -0.6 10.4 1.65 9.7 3.1 7.55 3.7 7.05 2.75 6.95 1.55 Q6.95 0.8 7.1 0.15 L7.15 0.15 7.75 0.45 8.65 -1.9 9.85 -3.4 10.8 -4.3 Q10.8 -5.0 9.9 -5.15 9.0 -5.3 8.65 -4.55 L8.25 -3.65 8.0 -3.75 Q7.55 -3.85 7.55 -4.35 7.55 -5.0 8.3 -5.65 L8.7 -6.95 M14.65 -7.2 Q14.25 -7.7 13.75 -7.75 13.6 -7.45 13.6 -6.95 L13.9 -6.3 Q14.25 -5.8 14.65 -5.8 L14.95 -5.9 15.0 -6.4 14.65 -7.2 M17.65 -0.6 L17.6 -0.55 17.65 -0.55 17.65 -0.6" fill="url(#gradient35)" fill-rule="evenodd" stroke="none"/>
    <path d="M17.55 -10.25 L16.95 -10.15 16.9 -9.8 17.1 -9.6 17.6 -9.25 17.7 -8.85 Q17.8 -8.55 18.1 -8.55 L18.4 -8.6 18.65 -9.05 18.8 -9.2 18.8 -8.4 18.7 -6.45 Q18.2 -5.95 17.45 -5.8 L17.45 -6.3 Q17.45 -7.0 16.85 -7.85 16.15 -8.85 15.2 -8.1 L15.05 -8.5 Q15.05 -9.45 15.55 -9.75 16.1 -10.15 17.55 -10.25" fill="url(#gradient36)" fill-rule="evenodd" stroke="none"/>
    <path d="M0.75 2.15 L0.95 2.2 1.05 2.5 1.15 3.35 1.15 3.55 Q0.1 3.75 -0.6 4.4 -1.3 5.05 -1.4 5.95 L-1.75 4.75 -1.6 2.8 -1.15 2.3 -1.2 2.45 Q-0.8 3.45 0.1 3.45 L0.5 3.2 0.8 2.45 0.75 2.15" fill="url(#gradient37)" fill-rule="evenodd" stroke="none"/>
    <path d="M-0.55 -4.6 L-0.6 -4.65 -0.55 -4.65 -0.55 -4.6" fill="url(#gradient38)" fill-rule="evenodd" stroke="none"/>
    <path d="M-0.55 -4.65 L-0.15 -4.9 -0.55 -4.6 -0.55 -4.65" fill="#ffcc00" fill-rule="evenodd" stroke="none"/>
    <path d="M-4.15 -0.7 L-3.75 -0.4 Q-3.45 -0.1 -3.45 0.55 L-3.55 1.35 -3.75 1.55 -4.7 1.7 -4.8 1.55 Q-4.05 -0.15 -4.05 -0.55 L-4.05 -0.6 -4.15 -0.7" fill="url(#gradient39)" fill-rule="evenodd" stroke="none"/>
    <path d="M-1.35 -0.4 L1.9 -0.35 1.95 -0.35 2.55 -0.45 2.8 -0.55 4.85 -1.5 4.9 -1.55 5.8 -2.0 5.1 -0.55 Q4.15 1.15 3.95 1.7 L3.85 2.75 Q3.65 3.4 2.6 3.4 L2.65 3.75 Q2.7 4.6 3.35 5.25 L3.95 6.15 Q3.95 6.9 3.25 6.9 1.85 6.9 1.45 5.15 1.3 4.5 1.3 3.1 L1.3 2.55 Q1.2 2.2 1.25 1.7 0.45 2.0 0.0 1.5 L-1.35 -0.4 M16.9 -4.85 Q16.8 -3.95 16.1 -3.3 15.4 -2.65 14.35 -2.45 14.4 -3.25 15.0 -3.8 15.75 -4.45 16.0 -5.35 L16.35 -5.6 16.9 -4.85 M13.0 0.0 Q13.55 0.1 13.65 0.4 L16.1 0.85 16.1 1.0 Q16.1 2.3 15.05 2.7 13.6 3.25 12.9 4.4 12.35 4.1 12.35 3.65 12.35 2.95 12.65 2.1 13.0 1.2 13.0 0.1 L13.0 0.0 M7.25 9.25 L8.05 8.6 9.2 8.4 9.3 8.4 9.8 8.4 9.9 8.5 10.3 9.15 9.65 10.0 Q9.05 10.4 8.85 10.4 L7.85 9.85 7.25 9.25 M14.5 11.3 L14.35 10.9 15.1 10.1 16.1 9.9 16.45 10.45 Q16.3 10.9 15.55 11.25 L14.5 11.3 M-1.95 6.95 L-1.95 6.9 -1.7 6.9 -1.6 6.9 Q-1.35 6.9 -0.95 7.3 L-0.95 7.35 -0.35 8.15 -0.2 8.35 0.1 8.85 0.3 9.15 0.3 9.2 Q-0.65 9.95 -1.35 8.95 -1.95 8.1 -1.95 7.4 L-1.95 6.95 M3.35 11.4 L3.05 11.9 1.7 11.9 1.6 11.5 1.7 11.25 1.75 11.1 1.9 10.7 2.0 10.6 2.6 10.1 2.75 10.3 3.1 10.9 3.15 11.05 3.2 11.15 3.25 11.3 3.3 11.4 3.35 11.4" fill="#fbbc00" fill-rule="evenodd" stroke="none"/>
    <path d="M-1.35 -0.4 L0.0 1.5 Q0.45 2.0 1.25 1.7 1.2 2.2 1.3 2.55 L1.3 3.1 Q1.3 4.5 1.45 5.15 1.85 6.9 3.25 6.9 3.95 6.9 3.95 6.15 L3.35 5.25 Q2.7 4.6 2.65 3.75 L2.6 3.4 Q3.65 3.4 3.85 2.75 L3.95 1.7 Q4.15 1.15 5.1 -0.55 L5.8 -2.0 Q7.15 -2.6 7.95 -2.6 L8.45 -1.65 8.55 -0.45 8.4 0.95 8.35 0.95 Q7.95 0.9 7.75 0.65 L6.85 3.0 Q6.65 3.6 5.65 4.5 4.7 5.3 4.7 5.4 4.7 6.1 5.6 6.25 6.5 6.4 6.85 5.65 L7.25 4.75 7.5 4.85 Q7.95 4.95 7.95 5.45 7.95 6.1 7.2 6.75 L6.8 8.05 6.3 7.15 5.1 8.15 Q4.5 8.6 4.5 9.15 L4.65 9.6 2.45 9.75 Q0.7 9.4 -0.9 7.35 L-0.4 6.7 -0.55 5.75 -1.25 5.65 -1.9 5.75 -1.9 5.9 Q-3.3 3.7 -3.3 2.0 -3.3 -0.2 -2.8 -0.4 L-1.35 -0.4 M0.55 7.0 L0.5 7.5 Q0.5 7.9 0.85 8.3 1.25 8.8 1.75 8.85 L1.9 8.05 1.6 7.4 Q1.25 6.9 0.85 6.9 0.35 6.9 0.55 7.0" fill="url(#gradient40)" fill-rule="evenodd" stroke="none"/>
    <path d="M16.65 -1.2 L16.7 -1.35 Q16.3 -2.35 15.4 -2.35 L15.0 -2.1 Q14.7 -1.8 14.7 -1.35 L14.75 -1.05 14.55 -1.1 14.45 -1.4 14.35 -2.25 14.35 -2.45 Q15.4 -2.65 16.1 -3.3 16.8 -3.95 16.9 -4.85 L17.25 -3.65 17.1 -1.7 16.65 -1.2" fill="url(#gradient41)" fill-rule="evenodd" stroke="none"/>
    <path d="M8.4 0.95 L8.25 1.65 7.1 4.4 7.1 4.6 7.25 4.75 6.85 5.65 Q6.5 6.4 5.6 6.25 4.7 6.1 4.7 5.4 4.7 5.3 5.65 4.5 6.65 3.6 6.85 3.0 L7.75 0.65 Q7.95 0.9 8.35 0.95 L8.4 0.95 M6.8 8.05 L5.85 9.05 5.65 9.15 5.6 9.2 5.1 9.4 4.65 9.6 4.5 9.15 Q4.5 8.6 5.1 8.15 L6.3 7.15 6.8 8.05 M-0.9 7.35 L-1.9 5.9 -1.9 5.75 -1.25 5.65 -0.55 5.75 -0.4 6.7 -0.9 7.35 M14.75 -1.05 L14.7 -1.35 Q14.7 -1.8 15.0 -2.1 L15.4 -2.35 Q16.3 -2.35 16.7 -1.35 L16.65 -1.2 14.75 -1.05 M19.65 1.8 L19.55 1.7 19.55 1.65 Q19.55 1.25 20.3 -0.45 L20.4 0.6 Q20.4 1.7 19.85 1.9 L19.65 1.8 M18.1 3.9 L18.1 4.2 Q18.1 6.0 16.95 6.8 15.8 7.6 15.35 7.3 L15.25 7.25 15.15 7.2 16.25 5.9 18.1 3.9 M14.1 7.45 L13.5 7.75 13.45 7.8 12.6 8.4 12.4 8.4 12.35 8.05 Q12.35 7.7 13.05 6.75 L13.1 6.65 14.2 6.0 14.05 5.7 14.25 5.65 14.35 6.15 14.1 7.45 M10.75 6.05 L10.5 5.9 10.4 5.9 9.95 6.0 9.9 6.2 Q9.6 5.85 9.6 5.35 9.6 4.9 9.85 4.65 L10.35 5.2 10.75 6.05 M12.25 10.9 L11.75 12.3 10.85 13.1 10.9 13.0 10.9 12.1 Q10.95 11.65 11.3 11.45 L11.95 10.95 12.25 10.9 M16.65 11.7 Q16.65 13.0 16.1 13.4 L16.0 13.2 Q16.0 12.0 16.55 11.7 L16.65 11.7 M0.55 7.0 Q0.35 6.9 0.85 6.9 1.25 6.9 1.6 7.4 L1.9 8.05 1.75 8.85 Q1.25 8.8 0.85 8.3 0.5 7.9 0.5 7.5 L0.55 7.0 M-2.05 11.35 L-2.9 11.4 -3.1 11.4 -3.15 11.3 -3.3 10.3 -3.15 10.15 -2.9 9.7 -2.6 9.65 -2.2 9.95 -2.1 10.35 -1.6 10.7 -1.4 10.9 -1.45 11.25 -2.05 11.35 M3.8 14.5 L3.7 13.9 Q3.7 13.7 4.2 13.05 L4.8 12.4 5.3 12.4 5.35 12.7 5.35 12.75 5.35 13.0 Q5.35 13.75 4.4 14.25 L3.8 14.5 M10.0 11.15 Q10.75 11.65 10.75 12.2 L10.65 12.6 9.55 12.65 9.45 12.05 Q9.45 11.4 10.0 11.15 M3.5 13.9 L3.2 14.4 2.6 14.4 2.5 13.9 2.5 13.6 2.6 13.5 3.4 13.4 3.5 13.9" fill="#ffff99" fill-rule="evenodd" stroke="none"/>
    <path d="M19.65 1.8 L19.25 1.5 Q18.95 1.2 18.95 0.55 L19.05 -0.25 19.25 -0.45 20.2 -0.6 20.3 -0.45 Q19.55 1.25 19.55 1.65 L19.55 1.7 19.65 1.8" fill="url(#gradient42)" fill-rule="evenodd" stroke="none"/>
    <path d="M16.1 0.85 L17.25 0.9 Q17.8 1.3 17.8 1.9 L17.85 2.15 17.7 2.2 17.1 4.25 Q16.7 5.2 16.1 5.75 L16.05 5.7 15.85 5.45 15.2 5.1 13.9 3.9 13.6 3.9 13.65 3.95 13.55 4.1 13.5 4.55 13.9 5.35 13.9 5.4 14.05 5.7 14.2 6.0 13.1 6.65 12.3 7.0 Q11.25 7.0 11.0 6.45 L10.75 6.05 10.35 5.2 9.85 4.65 Q9.6 4.9 9.6 5.35 9.6 5.85 9.9 6.2 L9.75 6.35 Q9.75 5.75 9.4 5.65 8.95 4.35 8.85 2.95 8.85 1.55 9.15 1.05 9.75 -0.1 11.9 -0.1 L13.0 0.0 13.0 0.1 Q13.0 1.2 12.65 2.1 12.35 2.95 12.35 3.65 12.35 4.1 12.9 4.4 13.6 3.25 15.05 2.7 16.1 2.3 16.1 1.0 L16.1 0.85 M10.75 2.55 L10.7 2.55 10.6 2.6 10.75 2.55" fill="url(#gradient43)" fill-rule="evenodd" stroke="none"/>
    <path d="M16.1 5.75 L16.05 5.75 16.05 5.7 16.1 5.75" fill="url(#gradient44)" fill-rule="evenodd" stroke="none"/>
    <path d="M17.85 2.15 L18.1 3.9 16.25 5.9 15.15 7.2 15.25 7.25 15.1 7.2 14.1 7.45 14.35 6.15 14.25 5.65 14.05 5.7 13.9 5.4 13.9 5.35 13.5 4.55 13.55 4.1 13.65 3.95 13.6 3.9 13.9 3.9 15.2 5.1 15.85 5.45 16.05 5.7 15.65 6.0 16.05 5.75 16.1 5.75 Q16.7 5.2 17.1 4.25 L17.7 2.2 17.85 2.15 M12.4 8.4 Q10.4 8.55 9.45 5.85 L9.45 5.8 9.35 5.65 9.4 5.65 Q9.75 5.75 9.75 6.35 L9.9 6.2 9.95 6.0 10.4 5.9 10.5 5.9 10.75 6.05 11.0 6.45 Q11.25 7.0 12.3 7.0 L13.1 6.65 13.05 6.75 Q12.35 7.7 12.35 8.05 L12.4 8.4" fill="url(#gradient45)" fill-rule="evenodd" stroke="none"/>
    <path d="M16.05 5.75 L15.65 6.0 16.05 5.7 16.05 5.75" fill="#ffcc00" fill-rule="evenodd" stroke="none"/>
    <path d="M9.8 8.4 Q11.55 8.5 12.1 9.15 L12.3 10.1 12.25 10.9 11.95 10.95 11.3 11.45 Q10.95 11.65 10.9 12.1 L10.9 13.0 10.85 13.1 9.55 13.4 Q6.8 13.45 6.8 11.15 6.8 9.95 7.25 9.25 L7.85 9.85 8.85 10.4 Q9.05 10.4 9.65 10.0 L10.3 9.15 9.9 8.5 9.8 8.4 M10.0 11.15 Q9.45 11.4 9.45 12.05 L9.55 12.65 10.65 12.6 10.75 12.2 Q10.75 11.65 10.0 11.15" fill="url(#gradient46)" fill-rule="evenodd" stroke="none"/>
    <path d="M16.45 10.45 L16.65 11.7 16.55 11.7 Q16.0 12.0 16.0 13.2 L15.2 12.2 14.5 11.3 15.55 11.25 Q16.3 10.9 16.45 10.45" fill="url(#gradient47)" fill-rule="evenodd" stroke="none"/>
    <path d="M1.6 11.5 L1.7 11.9 3.05 11.9 3.35 11.4 3.8 11.4 5.05 11.65 5.2 12.1 5.3 12.4 4.8 12.4 4.2 13.05 Q3.7 13.7 3.7 13.9 L3.8 14.5 2.55 14.65 2.45 13.9 1.9 13.9 1.45 13.7 Q1.3 13.55 1.3 12.9 L1.6 11.5 M2.6 10.1 L2.0 10.6 1.9 10.7 Q2.2 10.05 2.45 9.9 L2.6 10.1 M3.5 13.9 L3.4 13.4 2.6 13.5 2.5 13.6 2.5 13.9 2.6 14.4 3.2 14.4 3.5 13.9" fill="url(#gradient48)" fill-rule="evenodd" stroke="none"/>
    <path d="M-1.95 6.95 L-1.95 7.4 Q-1.95 8.1 -1.35 8.95 -0.65 9.95 0.3 9.2 L0.45 9.6 Q0.45 10.55 -0.05 10.85 L-2.05 11.35 -1.45 11.25 -1.4 10.9 -1.6 10.7 -2.1 10.35 -2.2 9.95 -2.6 9.65 -2.9 9.7 -3.15 10.15 -3.3 10.3 -3.3 9.5 -3.2 7.55 Q-2.7 7.05 -1.95 6.95" fill="url(#gradient49)" fill-rule="evenodd" stroke="none"/>
  </g>
  <defs>
    <radialGradient cx="0" cy="0" gradientTransform="matrix(-0.0073, 0.0, 0.0, -0.0073, 3.5, 2.15)" gradientUnits="userSpaceOnUse" id="gradient0" r="819.2" spreadMethod="pad">
      <stop offset="0.20784313725490197" stop-color="#ffcc00"/>
      <stop offset="1.0" stop-color="#ffff33"/>
    </radialGradient>
    <radialGradient cx="0" cy="0" gradientTransform="matrix(-0.0045, 0.0, 0.0, -0.0045, 7.0, -5.85)" gradientUnits="userSpaceOnUse" id="gradient1" r="819.2" spreadMethod="pad">
      <stop offset="0.20784313725490197" stop-color="#ffcc00"/>
      <stop offset="1.0" stop-color="#ffff33"/>
    </radialGradient>
    <radialGradient cx="0" cy="0" gradientTransform="matrix(-0.0018, 0.0, 0.0, -0.0018, 10.45, -1.1)" gradientUnits="userSpaceOnUse" id="gradient2" r="819.2" spreadMethod="pad">
      <stop offset="0.20784313725490197" stop-color="#ffcc00"/>
      <stop offset="1.0" stop-color="#ffff33"/>
    </radialGradient>
    <radialGradient cx="0" cy="0" gradientTransform="matrix(-0.0061, 0.0, 0.0, -0.0061, 4.25, 2.4)" gradientUnits="userSpaceOnUse" id="gradient3" r="819.2" spreadMethod="pad">
      <stop offset="0.20784313725490197" stop-color="#ffcc00"/>
      <stop offset="1.0" stop-color="#ffff33"/>
    </radialGradient>
    <radialGradient cx="0" cy="0" gradientTransform="matrix(0.0, 0.0, 0.0, 0.0, -2.15, 2.4)" gradientUnits="userSpaceOnUse" id="gradient4" r="819.2" spreadMethod="pad">
      <stop offset="0.0" stop-color="#ffcc00"/>
      <stop offset="1.0" stop-color="#ffff33"/>
    </radialGradient>
    <radialGradient cx="0" cy="0" gradientTransform="matrix(-0.0045, 0.0, 0.0, -0.0045, 0.45, 8.65)" gradientUnits="userSpaceOnUse" id="gradient5" r="819.2" spreadMethod="pad">
      <stop offset="0.20784313725490197" stop-color="#ffcc00"/>
      <stop offset="1.0" stop-color="#ffff33"/>
    </radialGradient>
    <radialGradient cx="0" cy="0" gradientTransform="matrix(-0.0034, 0.0, 0.0, -0.0034, 6.55, 9.15)" gradientUnits="userSpaceOnUse" id="gradient6" r="819.2" spreadMethod="pad">
      <stop offset="0.20784313725490197" stop-color="#ffcc00"/>
      <stop offset="1.0" stop-color="#ffff33"/>
    </radialGradient>
    <radialGradient cx="0" cy="0" gradientTransform="matrix(-0.0105, 0.0, 0.0, -0.0105, -6.6, 2.65)" gradientUnits="userSpaceOnUse" id="gradient7" r="819.2" spreadMethod="pad">
      <stop offset="0.20784313725490197" stop-color="#ffcc00"/>
      <stop offset="1.0" stop-color="#ffff33"/>
    </radialGradient>
    <radialGradient cx="0" cy="0" gradientTransform="matrix(-0.0043, 0.0, 0.0, -0.0043, -6.5, 10.15)" gradientUnits="userSpaceOnUse" id="gradient8" r="819.2" spreadMethod="pad">
      <stop offset="0.20784313725490197" stop-color="#ffcc00"/>
      <stop offset="1.0" stop-color="#ffff33"/>
    </radialGradient>
    <radialGradient cx="0" cy="0" gradientTransform="matrix(-0.0048, 0.0, 0.0, -0.0048, -10.4, 6.9)" gradientUnits="userSpaceOnUse" id="gradient9" r="819.2" spreadMethod="pad">
      <stop offset="0.20784313725490197" stop-color="#ffcc00"/>
      <stop offset="1.0" stop-color="#ffff33"/>
    </radialGradient>
    <radialGradient cx="0" cy="0" gradientTransform="matrix(0.0043, 0.0, 0.0, 0.0043, -0.7, -13.8)" gradientUnits="userSpaceOnUse" id="gradient10" r="819.2" spreadMethod="pad">
      <stop offset="0.20784313725490197" stop-color="#ffcc00"/>
      <stop offset="1.0" stop-color="#ffff33"/>
    </radialGradient>
    <radialGradient cx="0" cy="0" gradientTransform="matrix(0.0048, 0.0, 0.0, 0.0048, 3.2, -10.55)" gradientUnits="userSpaceOnUse" id="gradient11" r="819.2" spreadMethod="pad">
      <stop offset="0.20784313725490197" stop-color="#ffcc00"/>
      <stop offset="1.0" stop-color="#ffff33"/>
    </radialGradient>
    <radialGradient cx="0" cy="0" gradientTransform="matrix(0.0105, 0.0, 0.0, 0.0105, -0.6, -6.3)" gradientUnits="userSpaceOnUse" id="gradient12" r="819.2" spreadMethod="pad">
      <stop offset="0.20784313725490197" stop-color="#ffcc00"/>
      <stop offset="1.0" stop-color="#ffff33"/>
    </radialGradient>
    <radialGradient cx="0" cy="0" gradientTransform="matrix(0.0045, 0.0, 0.0, 0.0045, -7.65, -12.3)" gradientUnits="userSpaceOnUse" id="gradient13" r="819.2" spreadMethod="pad">
      <stop offset="0.20784313725490197" stop-color="#ffcc00"/>
      <stop offset="1.0" stop-color="#ffff33"/>
    </radialGradient>
    <radialGradient cx="0" cy="0" gradientTransform="matrix(0.0034, 0.0, 0.0, 0.0034, -13.75, -12.8)" gradientUnits="userSpaceOnUse" id="gradient14" r="819.2" spreadMethod="pad">
      <stop offset="0.20784313725490197" stop-color="#ffcc00"/>
      <stop offset="1.0" stop-color="#ffff33"/>
    </radialGradient>
    <radialGradient cx="0" cy="0" gradientTransform="matrix(0.0061, 0.0, 0.0, 0.0061, -11.45, -6.05)" gradientUnits="userSpaceOnUse" id="gradient15" r="819.2" spreadMethod="pad">
      <stop offset="0.20784313725490197" stop-color="#ffcc00"/>
      <stop offset="1.0" stop-color="#ffff33"/>
    </radialGradient>
    <radialGradient cx="0" cy="0" gradientTransform="matrix(0.0, 0.0, 0.0, 0.0, -5.05, -6.05)" gradientUnits="userSpaceOnUse" id="gradient16" r="819.2" spreadMethod="pad">
      <stop offset="0.0" stop-color="#ffcc00"/>
      <stop offset="1.0" stop-color="#ffff33"/>
    </radialGradient>
    <radialGradient cx="0" cy="0" gradientTransform="matrix(0.0073, 0.0, 0.0, 0.0073, -10.7, -5.8)" gradientUnits="userSpaceOnUse" id="gradient17" r="819.2" spreadMethod="pad">
      <stop offset="0.20784313725490197" stop-color="#ffcc00"/>
      <stop offset="1.0" stop-color="#ffff33"/>
    </radialGradient>
    <radialGradient cx="0" cy="0" gradientTransform="matrix(0.0018, 0.0, 0.0, 0.0018, -17.65, -2.55)" gradientUnits="userSpaceOnUse" id="gradient18" r="819.2" spreadMethod="pad">
      <stop offset="0.20784313725490197" stop-color="#ffcc00"/>
      <stop offset="1.0" stop-color="#ffff33"/>
    </radialGradient>
    <radialGradient cx="0" cy="0" gradientTransform="matrix(0.0045, 0.0, 0.0, 0.0045, -14.2, 2.2)" gradientUnits="userSpaceOnUse" id="gradient19" r="819.2" spreadMethod="pad">
      <stop offset="0.20784313725490197" stop-color="#ffcc00"/>
      <stop offset="1.0" stop-color="#ffff33"/>
    </radialGradient>
    <radialGradient cx="0" cy="0" gradientTransform="matrix(0.0042, 9.0E-4, -9.0E-4, 0.0042, 10.4, -13.25)" gradientUnits="userSpaceOnUse" id="gradient20" r="819.2" spreadMethod="pad">
      <stop offset="0.20784313725490197" stop-color="#ffcc00"/>
      <stop offset="1.0" stop-color="#ffff33"/>
    </radialGradient>
    <radialGradient cx="0" cy="0" gradientTransform="matrix(0.0044, 9.0E-4, -9.0E-4, 0.0044, 3.25, -13.2)" gradientUnits="userSpaceOnUse" id="gradient21" r="819.2" spreadMethod="pad">
      <stop offset="0.20784313725490197" stop-color="#ffcc00"/>
      <stop offset="1.0" stop-color="#ffff33"/>
    </radialGradient>
    <radialGradient cx="0" cy="0" gradientTransform="matrix(0.0103, 0.0021, -0.0021, 0.0103, 8.95, -5.9)" gradientUnits="userSpaceOnUse" id="gradient22" r="819.2" spreadMethod="pad">
      <stop offset="0.20784313725490197" stop-color="#ffcc00"/>
      <stop offset="1.0" stop-color="#ffff33"/>
    </radialGradient>
    <radialGradient cx="0" cy="0" gradientTransform="matrix(0.006, 0.0013, -0.0013, 0.006, -1.7, -7.85)" gradientUnits="userSpaceOnUse" id="gradient23" r="819.2" spreadMethod="pad">
      <stop offset="0.20784313725490197" stop-color="#ffcc00"/>
      <stop offset="1.0" stop-color="#ffff33"/>
    </radialGradient>
    <radialGradient cx="0" cy="0" gradientTransform="matrix(0.0071, 0.0015, -0.0015, 0.0071, -1.05, -7.45)" gradientUnits="userSpaceOnUse" id="gradient24" r="819.2" spreadMethod="pad">
      <stop offset="0.20784313725490197" stop-color="#ffcc00"/>
      <stop offset="1.0" stop-color="#ffff33"/>
    </radialGradient>
    <radialGradient cx="0" cy="0" gradientTransform="matrix(0.0047, 0.001, -0.001, 0.0047, 13.5, -9.25)" gradientUnits="userSpaceOnUse" id="gradient25" r="819.2" spreadMethod="pad">
      <stop offset="0.20784313725490197" stop-color="#ffcc00"/>
      <stop offset="1.0" stop-color="#ffff33"/>
    </radialGradient>
    <radialGradient cx="0" cy="0" gradientTransform="matrix(0.0033, 7.0E-4, -7.0E-4, 0.0033, -2.55, -14.9)" gradientUnits="userSpaceOnUse" id="gradient26" r="819.2" spreadMethod="pad">
      <stop offset="0.20784313725490197" stop-color="#ffcc00"/>
      <stop offset="1.0" stop-color="#ffff33"/>
    </radialGradient>
    <radialGradient cx="0" cy="0" gradientTransform="matrix(0.0, 0.0, 0.0, 0.0, 4.55, -6.55)" gradientUnits="userSpaceOnUse" id="gradient27" r="819.2" spreadMethod="pad">
      <stop offset="0.0" stop-color="#ffcc00"/>
      <stop offset="1.0" stop-color="#ffff33"/>
    </radialGradient>
    <radialGradient cx="0" cy="0" gradientTransform="matrix(0.0018, 4.0E-4, -4.0E-4, 0.0018, -8.5, -5.7)" gradientUnits="userSpaceOnUse" id="gradient28" r="819.2" spreadMethod="pad">
      <stop offset="0.20784313725490197" stop-color="#ffcc00"/>
      <stop offset="1.0" stop-color="#ffff33"/>
    </radialGradient>
    <radialGradient cx="0" cy="0" gradientTransform="matrix(0.0044, 9.0E-4, -9.0E-4, 0.0044, -6.1, -0.35)" gradientUnits="userSpaceOnUse" id="gradient29" r="819.2" spreadMethod="pad">
      <stop offset="0.20784313725490197" stop-color="#ffcc00"/>
      <stop offset="1.0" stop-color="#ffff33"/>
    </radialGradient>
    <radialGradient cx="0" cy="0" gradientTransform="matrix(0.0043, 0.0, 0.0, 0.0043, 12.75, -10.55)" gradientUnits="userSpaceOnUse" id="gradient30" r="819.2" spreadMethod="pad">
      <stop offset="0.20784313725490197" stop-color="#ffcc00"/>
      <stop offset="1.0" stop-color="#ffff33"/>
    </radialGradient>
    <radialGradient cx="0" cy="0" gradientTransform="matrix(0.0045, 0.0, 0.0, 0.0045, 5.8, -9.05)" gradientUnits="userSpaceOnUse" id="gradient31" r="819.2" spreadMethod="pad">
      <stop offset="0.20784313725490197" stop-color="#ffcc00"/>
      <stop offset="1.0" stop-color="#ffff33"/>
    </radialGradient>
    <radialGradient cx="0" cy="0" gradientTransform="matrix(0.0034, 0.0, 0.0, 0.0034, -0.3, -9.55)" gradientUnits="userSpaceOnUse" id="gradient32" r="819.2" spreadMethod="pad">
      <stop offset="0.20784313725490197" stop-color="#ffcc00"/>
      <stop offset="1.0" stop-color="#ffff33"/>
    </radialGradient>
    <radialGradient cx="0" cy="0" gradientTransform="matrix(0.0061, 0.0, 0.0, 0.0061, 2.0, -2.8)" gradientUnits="userSpaceOnUse" id="gradient33" r="819.2" spreadMethod="pad">
      <stop offset="0.20784313725490197" stop-color="#ffcc00"/>
      <stop offset="1.0" stop-color="#ffff33"/>
    </radialGradient>
    <radialGradient cx="0" cy="0" gradientTransform="matrix(0.0073, 0.0, 0.0, 0.0073, 2.75, -2.55)" gradientUnits="userSpaceOnUse" id="gradient34" r="819.2" spreadMethod="pad">
      <stop offset="0.20784313725490197" stop-color="#ffcc00"/>
      <stop offset="1.0" stop-color="#ffff33"/>
    </radialGradient>
    <radialGradient cx="0" cy="0" gradientTransform="matrix(0.0105, 0.0, 0.0, 0.0105, 12.85, -3.05)" gradientUnits="userSpaceOnUse" id="gradient35" r="819.2" spreadMethod="pad">
      <stop offset="0.20784313725490197" stop-color="#ffcc00"/>
      <stop offset="1.0" stop-color="#ffff33"/>
    </radialGradient>
    <radialGradient cx="0" cy="0" gradientTransform="matrix(0.0048, 0.0, 0.0, 0.0048, 16.65, -7.3)" gradientUnits="userSpaceOnUse" id="gradient36" r="819.2" spreadMethod="pad">
      <stop offset="0.20784313725490197" stop-color="#ffcc00"/>
      <stop offset="1.0" stop-color="#ffff33"/>
    </radialGradient>
    <radialGradient cx="0" cy="0" gradientTransform="matrix(0.0045, 0.0, 0.0, 0.0045, -0.75, 5.45)" gradientUnits="userSpaceOnUse" id="gradient37" r="819.2" spreadMethod="pad">
      <stop offset="0.20784313725490197" stop-color="#ffcc00"/>
      <stop offset="1.0" stop-color="#ffff33"/>
    </radialGradient>
    <radialGradient cx="0" cy="0" gradientTransform="matrix(0.0, 0.0, 0.0, 0.0, 8.4, -2.8)" gradientUnits="userSpaceOnUse" id="gradient38" r="819.2" spreadMethod="pad">
      <stop offset="0.0" stop-color="#ffcc00"/>
      <stop offset="1.0" stop-color="#ffff33"/>
    </radialGradient>
    <radialGradient cx="0" cy="0" gradientTransform="matrix(0.0018, 0.0, 0.0, 0.0018, -4.2, 0.7)" gradientUnits="userSpaceOnUse" id="gradient39" r="819.2" spreadMethod="pad">
      <stop offset="0.20784313725490197" stop-color="#ffcc00"/>
      <stop offset="1.0" stop-color="#ffff33"/>
    </radialGradient>
    <radialGradient cx="0" cy="0" gradientTransform="matrix(-0.0105, 0.0, 0.0, -0.0105, 2.65, 4.15)" gradientUnits="userSpaceOnUse" id="gradient40" r="819.2" spreadMethod="pad">
      <stop offset="0.20784313725490197" stop-color="#ffcc00"/>
      <stop offset="1.0" stop-color="#ffff33"/>
    </radialGradient>
    <radialGradient cx="0" cy="0" gradientTransform="matrix(-0.0045, 0.0, 0.0, -0.0045, 16.25, -4.35)" gradientUnits="userSpaceOnUse" id="gradient41" r="819.2" spreadMethod="pad">
      <stop offset="0.20784313725490197" stop-color="#ffcc00"/>
      <stop offset="1.0" stop-color="#ffff33"/>
    </radialGradient>
    <radialGradient cx="0" cy="0" gradientTransform="matrix(-0.0018, 0.0, 0.0, -0.0018, 19.7, 0.4)" gradientUnits="userSpaceOnUse" id="gradient42" r="819.2" spreadMethod="pad">
      <stop offset="0.20784313725490197" stop-color="#ffcc00"/>
      <stop offset="1.0" stop-color="#ffff33"/>
    </radialGradient>
    <radialGradient cx="0" cy="0" gradientTransform="matrix(-0.0073, 0.0, 0.0, -0.0073, 12.75, 3.65)" gradientUnits="userSpaceOnUse" id="gradient43" r="819.2" spreadMethod="pad">
      <stop offset="0.20784313725490197" stop-color="#ffcc00"/>
      <stop offset="1.0" stop-color="#ffff33"/>
    </radialGradient>
    <radialGradient cx="0" cy="0" gradientTransform="matrix(0.0, 0.0, 0.0, 0.0, 7.1, 3.9)" gradientUnits="userSpaceOnUse" id="gradient44" r="819.2" spreadMethod="pad">
      <stop offset="0.0" stop-color="#ffcc00"/>
      <stop offset="1.0" stop-color="#ffff33"/>
    </radialGradient>
    <radialGradient cx="0" cy="0" gradientTransform="matrix(-0.0061, 0.0, 0.0, -0.0061, 13.5, 3.9)" gradientUnits="userSpaceOnUse" id="gradient45" r="819.2" spreadMethod="pad">
      <stop offset="0.20784313725490197" stop-color="#ffcc00"/>
      <stop offset="1.0" stop-color="#ffff33"/>
    </radialGradient>
    <radialGradient cx="0" cy="0" gradientTransform="matrix(-0.0045, 0.0, 0.0, -0.0045, 9.7, 10.15)" gradientUnits="userSpaceOnUse" id="gradient46" r="819.2" spreadMethod="pad">
      <stop offset="0.20784313725490197" stop-color="#ffcc00"/>
      <stop offset="1.0" stop-color="#ffff33"/>
    </radialGradient>
    <radialGradient cx="0" cy="0" gradientTransform="matrix(-0.0034, 0.0, 0.0, -0.0034, 15.8, 10.65)" gradientUnits="userSpaceOnUse" id="gradient47" r="819.2" spreadMethod="pad">
      <stop offset="0.20784313725490197" stop-color="#ffcc00"/>
      <stop offset="1.0" stop-color="#ffff33"/>
    </radialGradient>
    <radialGradient cx="0" cy="0" gradientTransform="matrix(-0.0043, 0.0, 0.0, -0.0043, 2.75, 11.65)" gradientUnits="userSpaceOnUse" id="gradient48" r="819.2" spreadMethod="pad">
      <stop offset="0.20784313725490197" stop-color="#ffcc00"/>
      <stop offset="1.0" stop-color="#ffff33"/>
    </radialGradient>
    <radialGradient cx="0" cy="0" gradientTransform="matrix(-0.0048, 0.0, 0.0, -0.0048, -1.15, 8.4)" gradientUnits="userSpaceOnUse" id="gradient49" r="819.2" spreadMethod="pad">
      <stop offset="0.20784313725490197" stop-color="#ffcc00"/>
      <stop offset="1.0" stop-color="#ffff33"/>
    </radialGradient>
  </defs>
</svg>
