<?xml version="1.0" encoding="UTF-8" standalone="no"?>
<svg xmlns:ffdec="https://www.free-decompiler.com/flash" xmlns:xlink="http://www.w3.org/1999/xlink" ffdec:objectType="shape" height="20.45px" width="20.45px" xmlns="http://www.w3.org/2000/svg">
  <g transform="matrix(1.0, 0.0, 0.0, 1.0, 10.2, 10.5)">
    <path d="M6.55 -6.8 Q9.25 -4.05 9.25 -0.25 9.25 3.55 6.55 6.25 3.85 8.95 0.05 8.95 -3.75 8.95 -6.5 6.25 -9.2 3.55 -9.2 -0.25 -9.2 -4.05 -6.5 -6.8 -3.75 -9.5 0.05 -9.5 3.85 -9.5 6.55 -6.8" fill="#ffff00" fill-rule="evenodd" stroke="none"/>
    <path d="M6.55 -6.8 Q9.25 -4.05 9.25 -0.25 9.25 3.55 6.55 6.25 3.85 8.95 0.05 8.95 -3.75 8.95 -6.5 6.25 -9.2 3.55 -9.2 -0.25 -9.2 -4.05 -6.5 -6.8 -3.75 -9.5 0.05 -9.5 3.85 -9.5 6.55 -6.8 Z" fill="none" stroke="#cc9900" stroke-linecap="round" stroke-linejoin="miter-clip" stroke-miterlimit="3.0" stroke-width="2.0"/>
  </g>
</svg>
