<?xml version="1.0" encoding="UTF-8" standalone="no"?>
<svg xmlns:ffdec="https://www.free-decompiler.com/flash" xmlns:xlink="http://www.w3.org/1999/xlink" ffdec:objectType="shape" height="64.35px" width="39.3px" xmlns="http://www.w3.org/2000/svg">
  <g transform="matrix(1.0, 0.0, 0.0, 1.0, 19.05, 24.45)">
    <path d="M0.8 -23.3 L1.3 -22.55 1.5 -22.55 Q2.5 -22.55 3.2 -20.8 L3.75 -20.2 5.05 -17.0 5.75 -13.0 Q6.75 -9.8 7.65 -4.15 L7.6 -2.85 7.45 2.3 Q7.0 8.05 8.25 10.9 9.45 13.7 12.3 17.15 L16.5 22.4 17.85 26.7 Q18.9 30.25 20.1 31.5 L20.25 31.65 20.25 32.35 Q20.25 35.85 19.85 36.7 18.35 39.9 12.5 39.9 L-11.5 39.15 -11.5 39.1 -12.05 39.05 -12.5 34.7 -12.25 30.05 -12.0 27.45 -12.35 25.55 Q-12.85 23.35 -14.75 21.45 L-15.15 21.05 -15.8 20.3 -16.0 20.3 Q-18.05 20.3 -18.8 17.1 -19.7 13.5 -17.55 9.6 L-14.5 0.6 Q-13.45 -1.4 -12.85 -4.65 L-12.1 -8.45 -12.45 -10.55 Q-12.8 -14.9 -11.3 -17.8 -9.2 -20.15 -7.55 -22.85 -6.55 -24.1 -4.9 -24.25 L-4.75 -24.45 -4.05 -24.3 -2.35 -23.9 0.8 -23.3 M11.2 19.05 L9.4 17.8 8.2 17.0 Q5.95 13.7 5.45 9.75 L5.25 7.1 Q5.25 6.2 5.8 3.25 L6.35 -0.05 Q6.35 -1.6 5.25 -8.2 L4.1 -14.45 Q3.45 -16.45 2.0 -18.3 L0.75 -20.1 0.35 -20.6 0.25 -20.65 Q-0.95 -21.55 -2.75 -21.25 L-4.5 -20.8 Q-6.55 -20.0 -7.5 -17.8 -8.3 -15.2 -8.85 -13.95 L-8.9 -13.8 -8.95 -13.55 Q-9.65 -11.2 -10.15 -6.6 L-10.2 -5.9 -10.65 -2.6 -11.25 0.95 Q-11.55 2.65 -13.55 7.0 L-14.05 8.05 -15.55 11.95 -16.0 13.8 -16.15 15.1 -14.2 17.55 -13.9 17.85 Q-11.4 20.45 -9.9 24.0 L-9.65 24.55 -9.35 25.65 -9.35 25.7 -9.3 27.75 -9.25 28.15 -9.15 30.35 -10.25 31.5 -10.05 32.7 -9.9 32.9 -9.2 32.9 -9.25 33.5 -9.15 33.5 -9.05 33.45 -8.6 32.9 -7.75 32.9 Q-3.55 30.35 -3.35 30.35 L-3.15 30.4 -4.25 32.1 -4.0 33.35 -3.25 33.5 Q-2.7 33.2 -1.25 31.3 0.1 30.5 2.1 27.75 L2.9 26.6 Q2.75 27.75 2.75 29.1 2.75 30.2 3.0 30.5 L3.75 30.95 Q4.45 30.6 7.1 26.6 L8.05 25.2 8.35 25.8 8.15 26.25 7.25 28.3 Q7.25 29.3 7.5 29.5 L8.25 29.7 Q10.0 28.75 11.7 26.1 L12.1 25.55 12.25 25.85 13.25 24.95 13.25 24.25 13.7 24.25 13.25 23.75 13.25 22.05 Q13.2 20.45 12.3 19.9 L11.8 19.65 11.2 19.05 M10.8 34.7 Q11.2 36.1 13.25 36.1 14.25 36.1 15.05 34.8 15.75 33.65 15.75 32.3 15.75 29.5 13.25 29.1 10.75 28.65 10.75 33.1 L10.8 34.7" fill="#000000" fill-rule="evenodd" stroke="none"/>
    <path d="M10.8 34.7 L10.75 33.1 Q10.75 28.65 13.25 29.1 15.75 29.5 15.75 32.3 15.75 33.65 15.05 34.8 14.25 36.1 13.25 36.1 11.2 36.1 10.8 34.7" fill="#333333" fill-rule="evenodd" stroke="none"/>
    <path d="M-9.9 24.0 Q-11.4 20.45 -13.9 17.85 L-14.2 17.55 -16.15 15.1 -16.0 13.8 -15.55 11.95 -14.05 8.05 -13.55 7.0 Q-11.55 2.65 -11.25 0.95 L-10.65 -2.6 -10.2 -5.9 -10.15 -6.6 Q-9.65 -11.2 -8.95 -13.55 L-8.9 -13.8 -8.85 -13.95 Q-8.3 -15.2 -7.5 -17.8 -6.55 -20.0 -4.5 -20.8 L-2.75 -21.25 Q-0.95 -21.55 0.25 -20.65 L0.35 -20.6 0.75 -20.1 2.0 -18.3 Q3.45 -16.45 4.1 -14.45 L5.25 -8.2 Q6.35 -1.6 6.35 -0.05 L5.8 3.25 Q5.25 6.2 5.25 7.1 L5.45 9.75 Q5.95 13.7 8.2 17.0 L9.4 17.8 11.2 19.05 10.65 19.6 8.4 21.7 Q7.1 21.7 5.8 20.75 4.5 19.7 4.0 19.7 3.25 19.7 3.1 19.95 L2.8 20.65 Q2.55 19.0 1.65 18.5 L-0.55 22.25 Q-1.45 23.8 -2.35 23.8 -2.9 23.8 -3.95 22.9 L-5.15 22.0 Q-7.8 22.0 -9.9 24.0" fill="#4e362c" fill-rule="evenodd" stroke="none"/>
    <path d="M-9.9 24.0 Q-7.8 22.0 -5.15 22.0 L-3.95 22.9 Q-2.9 23.8 -2.35 23.8 -1.45 23.8 -0.55 22.25 L1.65 18.5 Q2.55 19.0 2.8 20.65 L3.1 19.95 Q3.25 19.7 4.0 19.7 4.5 19.7 5.8 20.75 7.1 21.7 8.4 21.7 L10.65 19.6 11.2 19.05 11.8 19.65 12.3 19.9 Q13.2 20.45 13.25 22.05 L13.25 23.75 13.25 24.25 13.25 24.95 12.25 25.85 12.1 25.55 11.7 26.1 Q10.0 28.75 8.25 29.7 L7.5 29.5 Q7.25 29.3 7.25 28.3 L8.15 26.25 8.35 25.8 8.05 25.2 7.1 26.6 Q4.45 30.6 3.75 30.95 L3.0 30.5 Q2.75 30.2 2.75 29.1 2.75 27.75 2.9 26.6 L2.1 27.75 Q0.1 30.5 -1.25 31.3 -2.7 33.2 -3.25 33.5 L-4.0 33.35 -4.25 32.1 -3.15 30.4 -3.35 30.35 Q-3.55 30.35 -7.75 32.9 L-8.6 32.9 -9.05 33.45 -9.15 33.5 -9.25 33.5 -9.2 32.9 -9.9 32.9 -10.05 32.7 -10.25 31.5 -9.15 30.35 -9.25 28.15 -9.3 27.75 -9.35 25.7 -9.35 25.65 -9.65 24.55 -9.9 24.0" fill="#272121" fill-rule="evenodd" stroke="none"/>
  </g>
</svg>
