<?xml version="1.0" encoding="UTF-8" standalone="no"?>
<svg xmlns:ffdec="https://www.free-decompiler.com/flash" xmlns:xlink="http://www.w3.org/1999/xlink" ffdec:objectType="shape" height="125.95px" width="126.8px" xmlns="http://www.w3.org/2000/svg">
  <g transform="matrix(1.0, 0.0, 0.0, 1.0, 215.1, 250.6)">
    <path d="M-148.3 -249.7 Q-147.1 -248.95 -144.8 -248.45 L-140.15 -247.0 Q-135.05 -244.0 -132.35 -242.75 -118.65 -236.45 -115.75 -234.85 -108.15 -230.6 -103.4 -224.85 -98.85 -219.35 -95.4 -212.9 -92.55 -207.45 -89.55 -199.5 -84.9 -186.85 -97.9 -167.0 -107.2 -152.8 -117.65 -144.15 -134.2 -130.45 -144.45 -126.95 -156.75 -122.8 -176.6 -126.15 -186.4 -127.8 -191.05 -131.55 -192.25 -132.55 -199.15 -140.85 -212.7 -157.25 -214.7 -173.8 -217.95 -199.9 -193.2 -226.1 -188.55 -231.0 -185.8 -234.85 -183.75 -236.95 -175.1 -241.05 -168.45 -244.65 -165.3 -245.65 L-155.5 -249.85 -153.45 -250.6 -152.45 -250.45 -148.3 -249.7 M-134.15 -225.7 Q-143.25 -231.05 -158.2 -228.15 -174.7 -224.9 -182.4 -213.05 -184.95 -209.2 -186.9 -202.45 L-189.2 -193.1 Q-189.55 -192.0 -193.85 -184.05 -197.85 -176.95 -198.25 -172.3 -198.7 -168.25 -194.1 -161.35 -191.75 -157.8 -186.05 -150.85 -180.9 -144.7 -179.85 -143.9 -176.05 -141.1 -168.6 -140.85 L-153.35 -141.45 Q-142.8 -144.75 -139.4 -146.3 -133.7 -148.95 -126.35 -155.1 -102.65 -174.7 -104.45 -193.3 -105.25 -202.05 -113.2 -211.65 -117.1 -216.3 -122.25 -219.95 -127.95 -223.8 -134.15 -225.7" fill="#fe885b" fill-opacity="0.49803922" fill-rule="evenodd" stroke="none"/>
    <path d="M-134.15 -225.7 Q-127.95 -223.8 -122.25 -219.95 -117.1 -216.3 -113.2 -211.65 -105.25 -202.05 -104.45 -193.3 -102.65 -174.7 -126.35 -155.1 -133.7 -148.95 -139.4 -146.3 -142.8 -144.75 -153.35 -141.45 L-168.6 -140.85 Q-176.05 -141.1 -179.85 -143.9 -180.9 -144.7 -186.05 -150.85 -191.75 -157.8 -194.1 -161.35 -198.7 -168.25 -198.25 -172.3 -197.85 -176.95 -193.85 -184.05 -189.55 -192.0 -189.2 -193.1 L-186.9 -202.45 Q-184.95 -209.2 -182.4 -213.05 -174.7 -224.9 -158.2 -228.15 -143.25 -231.05 -134.15 -225.7 M-182.2 -203.45 L-182.35 -203.65 -182.35 -203.3 -182.2 -203.45" fill="#eecb5e" fill-opacity="0.49803922" fill-rule="evenodd" stroke="none"/>
  </g>
</svg>
