<?xml version="1.0" encoding="UTF-8" standalone="no"?>
<svg xmlns:ffdec="https://www.free-decompiler.com/flash" xmlns:xlink="http://www.w3.org/1999/xlink" ffdec:objectType="shape" height="157.25px" width="1272.75px" xmlns="http://www.w3.org/2000/svg">
  <g transform="matrix(1.0, 0.0, 0.0, 1.0, 3.6, 8.0)">
    <path d="M1263.8 143.25 Q1259.4 145.85 1251.5 145.25 L1183.5 145.25 1146.55 143.4 1108.5 142.25 1085.65 144.0 1045.5 147.25 1012.55 147.25 1012.5 147.3 Q1010.85 149.1 1008.0 149.25 1007.85 138.7 1008.05 136.3 1008.75 128.85 1012.05 123.25 1020.75 108.6 1052.5 98.75 1066.1 94.6 1086.1 77.3 1094.15 70.35 1112.0 52.5 L1115.2 60.5 Q1117.1 65.6 1119.1 68.4 1125.0 76.75 1139.5 76.75 1146.8 76.75 1151.65 47.65 L1155.45 22.0 Q1157.7 6.3 1159.5 -1.5 L1170.55 11.6 1170.5 13.75 Q1170.5 19.55 1172.15 27.9 1174.45 39.6 1178.95 49.1 1191.95 76.35 1218.75 76.75 L1263.8 143.25 M418.6 119.45 Q411.35 120.6 403.5 122.3 L401.95 123.2 401.25 123.6 396.15 125.65 Q389.85 127.55 381.2 127.75 L375.75 129.25 175.25 130.25 135.15 133.5 113.75 135.25 103.15 134.75 96.25 134.25 14.0 133.25 Q1.55 131.4 -2.05 126.35 10.0 121.75 35.8 108.55 85.9 82.9 95.75 78.75 107.25 73.9 113.8 65.5 118.65 59.35 122.2 48.9 125.75 37.15 128.15 31.5 132.15 21.85 138.75 16.0 148.0 24.6 156.45 39.45 165.9 56.1 173.75 64.75 L187.75 64.75 204.4 58.75 Q219.75 53.5 226.25 53.5 L230.9 58.95 Q237.0 65.3 245.25 69.5 271.85 83.1 312.25 71.25 313.5 75.3 322.8 85.15 331.65 94.5 335.75 96.75 L392.25 97.25 Q399.7 104.7 413.95 116.2 L418.1 119.55 418.6 119.45 M311.25 85.75 L309.75 85.75 311.6 86.25 311.25 85.75" fill="#244555" fill-rule="evenodd" stroke="none"/>
    <path d="M1008.0 149.25 L1007.5 149.25 Q999.5 149.25 997.95 138.55 997.5 135.15 997.7 131.0 L998.0 127.25 Q998.0 116.5 1004.9 109.9 1010.2 104.75 1020.95 101.2 1027.1 99.2 1039.45 96.05 1049.6 93.1 1053.5 89.25 L1060.9 81.4 Q1068.45 73.6 1075.5 67.55 1097.75 48.5 1112.5 48.5 1117.6 48.5 1124.05 56.65 L1128.45 62.2 Q1130.65 64.75 1132.0 64.75 1132.75 64.75 1135.5 63.25 L1137.5 51.65 Q1140.15 32.9 1141.55 23.95 1144.05 8.45 1146.85 1.1 1150.4 -8.35 1155.5 -8.0 1174.15 -6.6 1182.95 2.45 1190.1 9.8 1191.7 23.55 1192.1 27.4 1192.15 38.3 L1194.35 42.05 1197.0 45.95 Q1206.35 58.55 1213.5 62.25 1221.8 69.6 1241.55 92.7 L1241.75 92.9 Q1252.3 99.4 1257.2 103.5 1263.6 108.85 1266.25 114.65 1269.0 120.6 1269.0 129.5 L1269.15 133.0 Q1269.1 136.25 1267.95 138.7 1266.6 141.6 1263.8 143.25 L1218.75 76.75 Q1191.95 76.35 1178.95 49.1 1174.45 39.6 1172.15 27.9 1170.5 19.55 1170.5 13.75 L1170.55 11.6 1159.5 -1.5 Q1157.7 6.3 1155.45 22.0 L1151.65 47.65 Q1146.8 76.75 1139.5 76.75 1125.0 76.75 1119.1 68.4 1117.1 65.6 1115.2 60.5 L1112.0 52.5 Q1094.15 70.35 1086.1 77.3 1066.1 94.6 1052.5 98.75 1020.75 108.6 1012.05 123.25 1008.75 128.85 1008.05 136.3 1007.85 138.7 1008.0 149.25 M-2.05 126.35 L-2.35 125.85 Q-3.5 123.95 -3.6 121.35 L-3.5 117.5 Q-3.5 111.45 -1.9 109.25 -0.1 106.75 4.95 106.35 13.05 101.15 30.7 92.7 60.65 78.4 73.0 74.75 98.75 67.3 108.2 58.25 112.45 54.15 115.05 48.45 116.9 44.4 119.0 36.5 125.95 11.0 134.5 6.2 141.6 2.25 149.15 12.75 155.05 21.0 159.85 35.75 L160.2 36.9 161.15 39.95 163.8 43.0 Q171.1 51.5 180.5 51.5 182.2 51.5 183.25 52.65 184.45 53.9 185.45 54.1 189.5 54.8 207.25 46.0 L212.15 43.8 Q215.55 42.5 218.75 42.5 223.7 42.5 236.7 51.15 252.0 61.3 255.75 62.75 259.35 64.15 268.35 63.95 283.35 63.6 286.0 63.7 310.65 64.6 325.25 78.75 329.45 82.75 341.05 84.45 L364.95 86.15 389.75 87.95 Q402.5 89.65 408.25 93.75 411.6 96.1 417.95 103.3 425.25 111.6 425.25 114.75 425.25 117.4 424.4 118.0 423.55 118.65 418.9 119.4 L418.6 119.45 418.1 119.55 413.95 116.2 Q399.7 104.7 392.25 97.25 L335.75 96.75 Q331.65 94.5 322.8 85.15 313.5 75.3 312.25 71.25 271.85 83.1 245.25 69.5 237.0 65.3 230.9 58.95 L226.25 53.5 Q219.75 53.5 204.4 58.75 L187.75 64.75 173.75 64.75 Q165.9 56.1 156.45 39.45 148.0 24.6 138.75 16.0 132.15 21.85 128.15 31.5 125.75 37.15 122.2 48.9 118.65 59.35 113.8 65.5 107.25 73.9 95.75 78.75 85.9 82.9 35.8 108.55 10.0 121.75 -2.05 126.35" fill="#305b70" fill-rule="evenodd" stroke="none"/>
  </g>
</svg>
