<?xml version="1.0" encoding="UTF-8" standalone="no"?>
<svg xmlns:ffdec="https://www.free-decompiler.com/flash" xmlns:xlink="http://www.w3.org/1999/xlink" ffdec:objectType="shape" height="228.2px" width="2373.6px" xmlns="http://www.w3.org/2000/svg">
  <g transform="matrix(1.0, 0.0, 0.0, 1.0, 1227.55, -0.05)">
    <path d="M1075.95 6.05 Q1075.55 7.95 1072.75 8.4 L1057.25 8.9 1050.45 9.55 1044.6 10.2 1029.6 10.2 1025.6 9.45 1010.0 9.4 1002.25 9.9 995.6 10.15 Q990.55 10.15 976.95 13.7 L963.1 17.2 Q961.75 17.2 960.9 16.65 960.05 16.1 959.1 16.2 L940.1 16.2 Q933.7 14.7 925.45 9.65 L918.35 4.9 Q900.1 4.9 881.9 10.05 860.3 16.1 841.6 17.7 L823.1 17.7 Q817.35 16.35 807.55 13.0 L798.85 9.95 Q795.45 9.95 788.9 12.95 781.25 16.45 779.35 16.9 L769.8 17.8 752.1 19.7 725.4 19.9 717.3 20.4 709.4 20.7 Q695.15 20.7 692.75 14.1 688.25 16.35 679.9 19.15 663.35 24.7 659.35 24.7 L657.85 24.6 657.25 24.45 640.6 24.2 Q639.1 23.75 629.15 18.85 619.7 14.15 619.0 14.15 613.85 17.15 607.55 20.2 594.95 26.2 587.35 26.2 582.0 26.2 579.1 23.35 L577.25 20.45 572.6 21.7 549.6 21.7 Q545.35 21.05 542.75 19.05 541.15 17.8 539.85 15.65 L533.3 19.75 Q527.45 22.7 520.6 22.7 509.35 22.7 503.75 19.1 502.05 18.0 500.8 16.45 L499.5 14.9 495.0 14.9 493.1 15.2 460.5 15.4 431.95 16.3 Q405.45 16.5 397.65 17.2 L390.45 17.35 382.65 17.7 365.65 17.7 Q363.8 17.75 362.8 17.05 L345.35 20.6 311.15 25.95 311.15 26.0 Q299.45 24.75 289.3 16.8 285.85 14.05 282.35 10.35 L279.5 7.4 Q274.35 7.4 260.95 12.9 244.7 19.5 242.15 20.2 L229.15 20.2 224.65 17.3 Q222.25 15.35 222.0 13.95 L217.5 13.95 Q205.8 15.25 189.15 19.85 175.15 23.7 166.65 23.7 157.05 23.7 152.0 18.9 L149.95 16.65 143.3 19.25 Q131.45 23.2 120.15 23.2 94.45 23.2 89.65 19.15 88.45 18.1 87.65 15.5 87.0 13.05 85.15 11.95 L79.3 11.9 Q72.4 11.9 50.85 18.3 27.3 25.35 20.65 26.2 L2.15 26.2 -2.3 23.9 Q-5.4 22.15 -7.85 22.15 -8.4 22.15 -9.55 23.1 -11.15 24.45 -12.55 25.2 -18.25 28.2 -29.6 28.2 -44.05 28.2 -64.6 25.55 -85.2 22.9 -89.7 22.9 L-97.6 24.05 -105.1 25.2 -107.15 24.75 -106.45 24.7 -126.7 24.9 -129.7 25.3 -132.85 25.7 -171.85 25.7 Q-185.2 22.55 -192.6 20.05 -198.55 18.05 -206.45 14.4 L-252.85 14.2 -254.5 13.95 Q-256.05 13.95 -260.85 16.2 L-271.35 21.1 Q-287.75 28.2 -300.85 28.2 -312.2 28.2 -317.95 22.65 -320.75 19.95 -321.45 17.5 L-320.8 17.3 -338.2 21.45 Q-363.75 27.2 -368.6 27.2 -388.65 27.2 -395.15 24.0 -397.3 22.9 -398.85 20.95 L-401.45 17.9 Q-404.05 20.15 -410.7 23.0 -417.05 25.7 -419.2 25.7 L-433.35 26.7 Q-442.0 26.7 -450.8 24.15 L-460.5 20.7 Q-462.0 20.15 -466.85 16.2 L-471.45 12.4 Q-476.45 12.4 -496.35 15.25 L-523.25 19.2 -543.0 19.4 -552.55 20.5 -565.75 21.7 -596.25 21.7 Q-597.65 21.15 -603.2 19.5 -606.6 18.3 -607.6 17.35 L-616.05 19.45 Q-633.65 23.15 -656.7 23.2 L-656.75 22.7 -664.95 22.6 -669.75 22.6 -669.9 22.6 -673.75 22.7 Q-688.35 22.7 -694.85 15.9 -697.6 13.0 -698.35 10.1 L-716.35 12.45 -735.75 15.2 -753.3 15.4 -784.95 19.25 Q-814.2 22.7 -825.5 22.7 -842.75 22.7 -847.55 16.7 L-848.55 15.0 Q-855.65 14.4 -868.8 12.1 L-885.5 8.95 -889.5 9.1 -915.3 9.4 Q-932.7 11.45 -959.35 17.1 -978.65 21.2 -994.4 21.2 -1007.35 21.2 -1013.35 18.95 L-1020.6 16.15 Q-1026.35 14.1 -1034.15 12.2 L-1057.15 12.2 -1058.9 11.95 -1061.6 11.7 Q-1067.7 11.7 -1084.6 14.35 L-1105.15 17.7 -1126.65 17.7 Q-1129.55 17.3 -1142.9 13.05 -1155.1 9.15 -1159.3 9.15 L-1164.3 11.75 Q-1169.8 14.55 -1173.05 15.4 L-1195.65 18.2 -1211.35 18.2 -1210.95 17.95 -1211.0 17.15 Q-1211.0 14.35 -1209.6 13.4 L-1208.65 13.15 -1208.5 13.1 -1206.35 12.75 -1206.0 12.65 Q-1174.15 11.35 -1168.65 8.8 -1167.2 7.65 -1166.4 7.25 L-1160.0 6.65 Q-1156.7 6.65 -1152.55 7.75 L-1144.3 10.15 Q-1131.95 13.65 -1118.25 13.65 L-1101.3 12.55 Q-1098.05 12.05 -1090.95 10.15 -1077.8 6.65 -1056.0 6.65 L-1024.45 7.8 Q-1021.6 8.3 -1019.9 9.3 -1019.5 11.25 -1018.0 12.6 -1013.85 16.3 -998.65 17.4 L-983.15 17.4 -956.65 12.2 -930.8 7.95 -929.4 7.75 -916.0 6.65 Q-866.4 6.65 -848.2 11.15 L-845.7 11.8 -845.2 12.4 -843.0 14.75 Q-839.65 17.95 -836.15 18.4 L-819.55 18.45 -816.65 18.75 -813.15 18.9 Q-803.5 18.9 -791.4 15.6 L-790.8 15.45 Q-756.5 14.6 -727.75 11.15 L-706.65 8.05 -699.25 6.65 Q-696.95 6.65 -692.7 8.85 L-692.25 10.65 -691.4 11.2 -686.45 14.7 Q-676.15 19.95 -645.3 19.95 -635.0 19.95 -622.3 15.8 -609.55 11.65 -605.75 11.65 L-604.6 11.75 -604.5 11.75 -600.85 13.2 -599.95 14.05 -597.25 17.15 Q-593.55 18.8 -583.5 19.7 L-528.55 14.4 -473.5 8.65 Q-470.3 8.65 -468.5 9.45 -467.8 11.9 -465.35 13.85 -462.1 16.45 -454.75 18.9 L-454.35 18.9 Q-453.05 20.0 -450.8 20.45 L-438.75 21.4 -424.75 21.4 Q-419.8 20.45 -404.0 14.45 L-399.3 12.65 -398.55 13.6 -395.35 17.4 Q-389.05 22.9 -374.75 22.9 -365.75 22.9 -351.05 19.6 L-344.7 18.15 -335.15 15.75 Q-329.45 14.65 -322.5 14.65 L-317.5 14.95 -316.75 16.0 -316.7 16.1 -316.65 16.15 Q-312.95 21.05 -307.0 22.65 -304.2 23.7 -301.4 23.7 L-296.4 23.25 Q-284.2 22.25 -269.95 15.95 -264.15 13.4 -260.15 10.8 L-254.5 10.65 Q-219.75 10.65 -203.35 11.4 -200.75 14.15 -193.3 16.9 -183.55 20.5 -176.85 20.9 L-162.85 20.95 -149.85 21.9 -128.85 21.9 -120.3 20.5 -94.5 20.65 -76.5 20.65 Q-73.0 20.65 -64.55 22.4 L-61.35 23.1 -61.2 23.2 Q-58.75 24.65 -53.0 25.2 L-51.5 25.65 -35.6 25.65 -33.85 25.9 Q-26.9 25.9 -7.7 18.95 L-6.6 18.55 -5.95 19.7 Q-4.45 21.65 -1.05 22.7 L0.5 23.65 4.0 23.65 9.4 23.9 14.15 23.65 18.5 23.65 23.45 22.2 Q30.35 20.75 39.05 18.15 L45.1 16.25 48.65 15.3 Q73.9 8.65 77.5 8.65 84.5 8.65 86.85 9.65 87.85 12.35 90.35 14.6 96.7 20.3 110.65 19.4 L125.65 19.4 Q134.95 17.7 144.3 14.75 149.7 13.05 153.4 11.4 L153.4 11.45 153.85 12.3 154.45 13.1 154.4 13.25 155.55 14.6 156.9 15.45 Q158.1 16.3 159.65 16.95 L160.75 18.15 Q179.9 19.55 194.75 14.35 L206.25 10.5 Q213.2 8.65 221.25 8.65 L225.7 9.1 Q225.8 12.05 226.25 12.95 L226.8 13.8 Q226.9 14.6 227.15 15.15 228.2 17.4 231.1 17.8 231.5 18.15 232.25 18.15 L239.7 17.3 Q246.15 16.7 254.4 12.75 L265.25 6.9 Q268.25 5.45 271.6 4.15 276.15 3.5 279.75 5.65 L293.15 15.3 Q297.7 18.15 301.65 19.85 306.55 22.2 311.65 22.2 L315.55 22.15 316.35 22.1 322.8 21.8 324.3 21.7 345.85 19.1 Q358.25 16.85 371.25 12.65 L497.25 12.65 Q511.6 18.35 521.25 17.7 526.05 17.35 533.6 14.05 538.6 11.9 542.55 12.8 542.95 14.1 543.85 15.0 546.4 17.55 553.65 18.4 L571.1 18.4 578.95 16.85 Q579.55 17.65 579.8 18.8 580.4 21.65 585.25 21.65 595.05 21.65 603.2 16.15 607.7 13.15 609.35 12.35 612.95 10.65 617.25 10.65 620.55 10.65 623.55 12.35 L629.05 16.15 Q637.2 21.65 650.0 21.65 667.6 21.65 682.0 14.65 688.3 11.6 690.3 11.1 692.8 10.5 695.4 11.1 L696.4 11.9 697.6 12.6 Q701.45 14.7 707.6 15.9 L754.6 15.9 Q768.9 13.8 783.8 10.1 792.8 7.8 798.65 5.6 L799.65 6.25 799.6 6.4 800.55 6.8 Q802.3 7.7 804.8 8.6 809.65 10.35 820.1 12.4 L838.6 12.4 Q876.4 4.95 910.5 0.05 917.65 0.4 923.55 1.75 924.2 4.25 925.9 5.85 929.9 9.55 941.1 10.9 L955.6 10.9 Q967.7 9.7 975.95 7.75 L982.45 6.25 982.95 6.2 1012.0 4.65 Q1046.3 4.65 1067.35 5.65 L1075.95 6.05" fill="#5bb5aa" fill-rule="evenodd" stroke="none"/>
    <path d="M1075.95 6.05 Q1090.9 6.65 1100.0 6.65 L1118.75 7.3 Q1134.05 8.9 1142.0 14.65 L1142.0 98.65 Q1143.35 101.65 1144.75 116.35 1146.0 129.35 1146.0 134.65 L1146.05 144.05 Q1145.7 150.45 1143.7 155.3 1137.9 169.2 1117.0 174.65 L1087.6 182.95 Q1068.7 188.35 1054.7 191.4 1012.25 200.65 960.0 200.65 769.25 181.4 697.25 173.15 L620.75 173.65 581.45 178.15 560.45 179.75 Q544.0 181.05 513.25 188.65 L435.25 189.15 Q427.6 191.05 412.3 192.45 L379.25 194.65 328.75 195.15 243.55 205.65 Q167.3 214.65 136.25 214.65 108.95 214.65 89.95 208.9 84.55 207.25 78.05 204.55 72.25 202.1 70.5 201.65 L-19.0 201.15 -26.5 202.65 -80.5 202.65 Q-82.95 201.85 -89.85 200.55 L-107.5 197.65 -172.5 197.15 Q-177.2 198.3 -189.0 198.75 L-214.7 199.7 Q-254.7 201.75 -290.5 210.65 L-558.5 211.15 -564.5 212.65 -641.75 213.65 Q-643.9 214.5 -652.7 215.8 L-678.25 218.65 -978.0 219.15 Q-984.0 220.65 -1002.0 222.65 L-1063.5 223.65 -1080.75 225.15 -1098.0 226.65 -1160.0 226.65 Q-1187.7 230.55 -1203.5 225.0 -1217.2 220.15 -1222.85 207.7 -1227.25 198.05 -1227.55 181.15 -1227.0 161.3 -1227.0 151.65 -1227.0 112.65 -1225.0 93.15 -1221.4 82.3 -1216.7 63.9 -1211.0 41.6 -1211.0 34.65 -1211.0 32.15 -1213.0 29.4 -1215.0 26.65 -1215.0 24.15 -1215.0 20.45 -1211.45 18.25 L-1211.35 18.2 -1195.65 18.2 -1173.05 15.4 Q-1169.8 14.55 -1164.3 11.75 L-1159.3 9.15 Q-1155.1 9.15 -1142.9 13.05 -1129.55 17.3 -1126.65 17.7 L-1105.15 17.7 -1084.6 14.35 Q-1067.7 11.7 -1061.6 11.7 L-1058.9 11.95 -1057.15 12.2 -1034.15 12.2 Q-1026.35 14.1 -1020.6 16.15 L-1013.35 18.95 Q-1007.35 21.2 -994.4 21.2 -978.65 21.2 -959.35 17.1 -932.7 11.45 -915.3 9.4 L-889.5 9.1 -885.5 8.95 -868.8 12.1 Q-855.65 14.4 -848.55 15.0 L-847.55 16.7 Q-842.75 22.7 -825.5 22.7 -814.2 22.7 -784.95 19.25 L-753.3 15.4 -735.75 15.2 -716.35 12.45 -698.35 10.1 Q-697.6 13.0 -694.85 15.9 -688.35 22.7 -673.75 22.7 L-669.9 22.6 -669.75 22.6 -664.95 22.6 -656.75 22.7 -656.7 23.2 Q-633.65 23.15 -616.05 19.45 L-607.6 17.35 Q-606.6 18.3 -603.2 19.5 -597.65 21.15 -596.25 21.7 L-565.75 21.7 -552.55 20.5 -543.0 19.4 -523.25 19.2 -496.35 15.25 Q-476.45 12.4 -471.45 12.4 L-466.85 16.2 Q-462.0 20.15 -460.5 20.7 L-450.8 24.15 Q-442.0 26.7 -433.35 26.7 L-419.2 25.7 Q-417.05 25.7 -410.7 23.0 -404.05 20.15 -401.45 17.9 L-398.85 20.95 Q-397.3 22.9 -395.15 24.0 -388.65 27.2 -368.6 27.2 -363.75 27.2 -338.2 21.45 L-320.8 17.3 -321.45 17.5 Q-320.75 19.95 -317.95 22.65 -312.2 28.2 -300.85 28.2 -287.75 28.2 -271.35 21.1 L-260.85 16.2 Q-256.05 13.95 -254.5 13.95 L-252.85 14.2 -206.45 14.4 Q-198.55 18.05 -192.6 20.05 -185.2 22.55 -171.85 25.7 L-132.85 25.7 -129.7 25.3 -126.7 24.9 -106.45 24.7 -107.15 24.75 -105.1 25.2 -97.6 24.05 -89.7 22.9 Q-85.2 22.9 -64.6 25.55 -44.05 28.2 -29.6 28.2 -18.25 28.2 -12.55 25.2 -11.15 24.45 -9.55 23.1 -8.4 22.15 -7.85 22.15 -5.4 22.15 -2.3 23.9 L2.15 26.2 20.65 26.2 Q27.3 25.35 50.85 18.3 72.4 11.9 79.3 11.9 L85.15 11.95 Q87.0 13.05 87.65 15.5 88.45 18.1 89.65 19.15 94.45 23.2 120.15 23.2 131.45 23.2 143.3 19.25 L149.95 16.65 152.0 18.9 Q157.05 23.7 166.65 23.7 175.15 23.7 189.15 19.85 205.8 15.25 217.5 13.95 L222.0 13.95 Q222.25 15.35 224.65 17.3 L229.15 20.2 242.15 20.2 Q244.7 19.5 260.95 12.9 274.35 7.4 279.5 7.4 L282.35 10.35 Q285.85 14.05 289.3 16.8 299.45 24.75 311.15 26.0 L311.15 25.95 345.35 20.6 362.8 17.05 Q363.8 17.75 365.65 17.7 L382.65 17.7 390.45 17.35 397.65 17.2 Q405.45 16.5 431.95 16.3 L460.5 15.4 493.1 15.2 495.0 14.9 499.5 14.9 500.8 16.45 Q502.05 18.0 503.75 19.1 509.35 22.7 520.6 22.7 527.45 22.7 533.3 19.75 L539.85 15.65 Q541.15 17.8 542.75 19.05 545.35 21.05 549.6 21.7 L572.6 21.7 577.25 20.45 579.1 23.35 Q582.0 26.2 587.35 26.2 594.95 26.2 607.55 20.2 613.85 17.15 619.0 14.15 619.7 14.15 629.15 18.85 639.1 23.75 640.6 24.2 L657.25 24.45 657.85 24.6 659.35 24.7 Q663.35 24.7 679.9 19.15 688.25 16.35 692.75 14.1 695.15 20.7 709.4 20.7 L717.3 20.4 725.4 19.9 752.1 19.7 769.8 17.8 779.35 16.9 Q781.25 16.45 788.9 12.95 795.45 9.95 798.85 9.95 L807.55 13.0 Q817.35 16.35 823.1 17.7 L841.6 17.7 Q860.3 16.1 881.9 10.05 900.1 4.9 918.35 4.9 L925.45 9.65 Q933.7 14.7 940.1 16.2 L959.1 16.2 Q960.05 16.1 960.9 16.65 961.75 17.2 963.1 17.2 L976.95 13.7 Q990.55 10.15 995.6 10.15 L1002.25 9.9 1010.0 9.4 1025.6 9.45 1029.6 10.2 1044.6 10.2 1050.45 9.55 1057.25 8.9 1072.75 8.4 Q1075.55 7.95 1075.95 6.05 M566.55 25.7 L564.0 25.65 560.7 26.1 560.75 26.15 566.55 25.7" fill="url(#gradient0)" fill-rule="evenodd" stroke="none"/>
    <path d="M-1209.6 13.4 L-1209.25 13.2 -1208.65 13.15 -1209.6 13.4 M-307.0 22.65 L-300.75 23.4 -296.4 23.25 -301.4 23.7 Q-304.2 23.7 -307.0 22.65 M154.45 13.1 L155.15 13.95 156.9 15.45 155.55 14.6 154.4 13.25 154.45 13.1 M301.65 19.85 Q307.1 22.15 311.25 22.15 L316.35 22.1 315.55 22.15 311.65 22.2 Q306.55 22.2 301.65 19.85" fill="url(#gradient1)" fill-rule="evenodd" stroke="none"/>
  </g>
  <defs>
    <linearGradient gradientTransform="matrix(-0.0012, -0.0903, 1.4488, -0.0191, -41.5, 104.8)" gradientUnits="userSpaceOnUse" id="gradient0" spreadMethod="pad" x1="-819.2" x2="819.2">
      <stop offset="0.0" stop-color="#3f7d8d"/>
      <stop offset="1.0" stop-color="#3f8d82"/>
    </linearGradient>
    <linearGradient gradientTransform="matrix(0.001, -0.1016, 1.4484, 0.0138, -39.85, 62.75)" gradientUnits="userSpaceOnUse" id="gradient1" spreadMethod="pad" x1="-819.2" x2="819.2">
      <stop offset="0.0" stop-color="#3f7d8d"/>
      <stop offset="1.0" stop-color="#a0bccf"/>
    </linearGradient>
  </defs>
</svg>
