<?xml version="1.0" encoding="UTF-8" standalone="no"?>
<svg xmlns:ffdec="https://www.free-decompiler.com/flash" xmlns:xlink="http://www.w3.org/1999/xlink" ffdec:objectType="shape" height="247.5px" width="926.2px" xmlns="http://www.w3.org/2000/svg">
  <g transform="matrix(1.0, 0.0, 0.0, 1.0, 2255.7, 418.7)">
    <path d="M-1629.85 -417.3 Q-1626.55 -418.7 -1625.0 -418.7 L-1624.95 -418.7 -1627.5 -415.85 Q-1628.65 -416.5 -1629.85 -417.3" fill="#bbc8c7" fill-rule="evenodd" stroke="none"/>
    <path d="M-1637.75 -197.85 L-1638.7 -197.8 Q-1641.55 -197.8 -1642.7 -201.15 -1643.3 -202.9 -1643.3 -204.85 -1643.7 -207.55 -1644.95 -212.8 L-1646.6 -221.35 Q-1647.15 -224.3 -1647.2 -227.85 L-1649.3 -227.25 -1651.2 -222.95 Q-1651.3 -221.3 -1651.85 -218.35 L-1652.65 -213.7 Q-1653.05 -209.9 -1652.8 -202.7 L-1652.5 -195.1 -1652.85 -190.45 -1653.3 -184.05 -1654.45 -183.65 Q-1656.05 -185.2 -1656.3 -188.1 L-1656.5 -193.65 Q-1656.85 -199.0 -1657.85 -203.3 L-1661.15 -216.35 Q-1661.7 -207.45 -1661.7 -202.65 L-1661.95 -202.25 Q-1662.3 -201.9 -1663.3 -201.9 -1664.7 -201.9 -1668.5 -212.05 L-1673.8 -226.6 Q-1675.25 -225.2 -1677.3 -223.9 -1680.45 -221.95 -1682.65 -221.95 -1685.05 -221.95 -1688.95 -225.0 -1692.8 -228.05 -1693.45 -228.05 -1695.0 -228.05 -1697.25 -226.7 -1699.5 -225.4 -1701.1 -225.4 -1702.65 -225.4 -1704.85 -226.7 -1707.0 -228.05 -1708.6 -228.05 L-1712.3 -225.55 Q-1716.15 -223.05 -1718.15 -223.05 -1723.75 -223.05 -1726.2 -225.9 -1727.55 -227.4 -1728.9 -229.8 L-1731.95 -227.25 Q-1734.75 -225.4 -1737.8 -225.4 -1745.55 -225.4 -1749.75 -229.05 -1752.1 -231.1 -1753.05 -231.6 -1755.15 -232.75 -1758.45 -232.75 L-1761.8 -230.25 Q-1765.45 -227.75 -1767.95 -227.75 -1772.4 -227.75 -1775.45 -230.8 L-1775.6 -230.95 -1776.3 -229.8 Q-1779.5 -225.4 -1787.8 -225.4 L-1796.65 -226.15 Q-1799.35 -222.45 -1801.8 -221.0 -1806.15 -218.35 -1814.05 -218.35 -1815.75 -218.35 -1824.25 -222.5 L-1831.9 -226.25 -1836.15 -226.65 -1863.5 -226.5 -1867.9 -224.65 Q-1884.0 -217.75 -1892.55 -214.4 -1896.25 -212.9 -1897.85 -210.95 -1898.65 -210.0 -1899.55 -207.45 -1901.2 -203.0 -1908.5 -200.9 -1932.15 -194.15 -2061.95 -194.15 -2089.2 -194.15 -2116.25 -192.7 L-2150.4 -190.6 Q-2164.05 -190.0 -2170.35 -191.5 -2177.5 -193.2 -2182.1 -198.9 -2185.0 -202.8 -2185.25 -203.85 -2185.9 -205.4 -2186.2 -208.6 L-2186.85 -214.2 Q-2187.45 -218.5 -2187.85 -225.55 L-2188.2 -235.55 -2188.15 -237.05 Q-2189.1 -238.6 -2189.1 -240.55 -2189.7 -245.05 -2193.05 -256.35 -2196.15 -266.5 -2196.15 -272.3 L-2194.75 -276.25 Q-2194.2 -278.65 -2196.15 -280.25 -2198.1 -281.7 -2215.8 -284.3 -2234.1 -286.95 -2236.6 -288.2 -2250.1 -294.95 -2253.45 -304.15 -2255.15 -308.4 -2255.7 -314.85 -2236.9 -319.2 -2216.4 -324.5 L-2189.4 -331.6 Q-2132.65 -331.95 -2091.9 -333.1 L-2003.9 -336.65 Q-1935.9 -339.7 -1831.9 -340.9 L-1802.8 -341.8 Q-1756.65 -341.8 -1744.25 -339.0 L-1736.0 -336.95 Q-1730.5 -335.9 -1719.05 -335.7 L-1667.45 -334.35 -1643.9 -333.05 -1601.9 -330.4 Q-1590.8 -330.4 -1568.85 -333.1 L-1543.75 -335.7 Q-1536.15 -335.6 -1530.95 -336.9 -1525.6 -336.0 -1520.8 -334.45 L-1518.3 -333.85 -1517.7 -333.15 Q-1519.45 -332.0 -1520.9 -331.65 -1521.75 -331.45 -1521.75 -331.1 -1521.75 -329.4 -1503.55 -315.55 -1484.85 -301.4 -1476.35 -297.05 -1444.0 -280.6 -1418.15 -265.85 L-1390.15 -249.05 Q-1388.15 -247.8 -1382.0 -244.85 L-1373.4 -240.7 -1363.45 -236.15 Q-1357.1 -233.35 -1355.55 -231.8 -1352.15 -228.3 -1346.65 -224.0 -1341.0 -219.55 -1339.15 -217.7 -1332.05 -210.6 -1332.05 -197.8 L-1332.7 -192.15 -1333.35 -184.45 -1333.45 -181.15 -1333.35 -177.85 Q-1333.2 -176.6 -1333.6 -174.25 L-1333.95 -171.45 -1334.0 -171.2 -1334.65 -171.2 Q-1337.0 -171.2 -1336.7 -183.6 L-1335.95 -196.15 -1335.8 -198.85 Q-1335.75 -200.55 -1335.95 -201.6 -1336.25 -203.35 -1337.5 -203.4 -1338.6 -203.45 -1338.65 -205.6 -1338.65 -207.4 -1339.0 -210.15 L-1340.55 -209.6 Q-1341.4 -211.1 -1343.4 -213.1 -1347.0 -216.7 -1348.45 -213.4 L-1348.45 -194.35 -1348.55 -194.25 -1350.1 -197.1 Q-1351.8 -200.75 -1352.05 -202.65 L-1352.4 -207.5 -1352.4 -207.75 -1353.75 -207.75 -1353.95 -206.75 -1354.95 -209.4 Q-1356.35 -212.45 -1360.05 -216.05 -1364.85 -220.8 -1364.85 -213.8 -1364.85 -212.25 -1363.25 -206.05 L-1362.55 -203.25 -1363.45 -203.0 -1364.2 -205.75 Q-1366.8 -213.05 -1369.85 -213.05 -1372.1 -213.05 -1372.6 -212.1 L-1372.75 -209.65 -1373.9 -209.5 -1374.05 -210.85 Q-1374.35 -213.4 -1375.25 -215.1 -1376.45 -217.35 -1376.65 -218.1 -1377.9 -222.3 -1379.4 -219.8 -1380.1 -218.55 -1380.4 -217.2 L-1380.45 -217.2 Q-1381.55 -221.15 -1384.85 -226.4 -1388.35 -228.55 -1389.4 -222.95 -1389.8 -220.8 -1389.8 -215.35 -1389.8 -208.95 -1388.8 -195.7 -1388.2 -187.35 -1387.95 -181.5 L-1387.95 -181.4 -1388.9 -181.45 Q-1389.35 -183.15 -1390.0 -187.85 -1390.35 -190.9 -1391.75 -195.95 L-1391.75 -198.1 -1391.75 -203.8 Q-1391.85 -205.2 -1392.3 -207.0 L-1391.95 -207.35 -1391.75 -207.75 -1391.75 -208.65 Q-1391.75 -209.2 -1393.05 -212.45 L-1394.35 -215.8 Q-1394.35 -216.65 -1393.7 -217.1 -1393.05 -217.6 -1393.05 -218.4 -1393.05 -218.95 -1398.25 -224.25 -1404.2 -230.25 -1405.75 -232.55 L-1409.45 -235.3 Q-1413.1 -237.85 -1414.25 -239.15 L-1418.2 -243.05 Q-1420.3 -244.65 -1422.95 -244.0 L-1423.25 -243.65 -1423.3 -242.7 Q-1420.0 -235.8 -1415.95 -229.0 L-1415.25 -227.9 -1415.25 -227.85 -1415.75 -227.6 -1427.75 -238.75 Q-1430.85 -243.0 -1439.85 -251.1 -1443.0 -253.6 -1447.1 -257.65 -1449.6 -259.55 -1449.6 -254.8 -1449.6 -249.5 -1441.9 -241.0 -1433.45 -231.7 -1432.3 -227.35 -1431.75 -225.2 -1429.0 -220.55 L-1425.1 -213.7 Q-1422.85 -208.7 -1423.3 -206.55 L-1423.4 -206.55 Q-1423.85 -209.9 -1426.2 -212.65 L-1427.2 -213.7 Q-1428.85 -215.3 -1429.9 -214.7 -1431.15 -214.05 -1431.15 -210.6 L-1430.55 -207.05 -1431.8 -200.4 Q-1432.0 -198.3 -1432.8 -194.8 -1433.5 -191.6 -1434.25 -189.4 L-1434.2 -184.0 Q-1434.1 -181.25 -1436.2 -179.9 L-1435.5 -180.5 -1436.45 -183.15 Q-1436.7 -184.55 -1436.6 -186.75 L-1436.45 -189.8 -1435.9 -196.45 Q-1435.6 -202.55 -1436.45 -205.75 L-1438.55 -213.7 Q-1441.05 -215.3 -1442.3 -214.6 L-1442.3 -215.35 -1442.45 -215.35 -1442.6 -214.4 -1443.25 -213.4 Q-1443.6 -212.55 -1443.6 -209.5 L-1443.55 -208.35 Q-1446.1 -193.15 -1449.85 -179.9 L-1450.3 -179.9 -1450.25 -180.95 Q-1450.15 -182.65 -1449.3 -186.2 -1448.35 -189.8 -1448.25 -191.6 -1447.6 -200.75 -1447.6 -213.05 -1447.6 -214.5 -1448.25 -215.85 -1449.4 -218.15 -1452.05 -217.95 L-1452.1 -215.95 -1453.35 -215.9 -1453.5 -215.9 -1453.3 -214.3 Q-1453.1 -213.1 -1453.2 -212.3 L-1453.05 -212.1 -1454.15 -211.9 -1454.3 -211.9 -1455.45 -214.75 Q-1456.75 -217.45 -1456.75 -218.25 L-1456.75 -218.45 Q-1457.05 -222.3 -1457.65 -223.3 L-1459.75 -225.75 -1465.7 -233.9 -1471.55 -241.25 Q-1476.15 -246.4 -1477.5 -248.7 L-1480.05 -252.2 -1483.4 -255.95 Q-1485.5 -257.75 -1489.55 -263.6 -1493.6 -268.6 -1497.95 -268.65 L-1498.1 -268.15 -1498.1 -267.1 Q-1498.1 -266.55 -1495.0 -262.85 L-1491.95 -258.9 Q-1491.95 -258.2 -1492.4 -257.75 L-1493.05 -257.15 Q-1493.5 -256.4 -1490.95 -253.6 L-1488.95 -250.8 -1487.5 -248.3 -1483.3 -242.9 Q-1480.65 -239.75 -1479.25 -237.65 -1476.2 -233.2 -1474.55 -227.2 -1473.45 -223.3 -1472.55 -216.45 L-1472.2 -211.7 -1472.05 -205.55 -1472.9 -205.5 Q-1473.05 -209.35 -1473.85 -211.6 -1474.9 -214.7 -1476.2 -220.25 -1477.55 -224.25 -1480.4 -224.25 L-1480.6 -224.25 -1481.75 -224.05 -1482.3 -223.85 Q-1482.15 -221.5 -1482.4 -219.45 -1482.8 -215.35 -1484.55 -215.35 -1487.25 -215.35 -1490.45 -216.9 L-1494.0 -226.05 -1500.15 -241.65 Q-1503.35 -250.5 -1505.9 -255.3 -1509.25 -261.5 -1511.55 -262.1 -1513.95 -262.75 -1513.95 -256.75 L-1512.85 -247.05 -1511.45 -237.5 -1509.8 -228.9 -1512.8 -229.0 -1512.9 -226.65 -1513.5 -213.7 Q-1513.75 -208.9 -1514.45 -203.05 L-1515.05 -198.2 -1515.85 -198.25 -1518.2 -210.8 Q-1519.15 -217.75 -1519.15 -224.9 -1519.15 -227.95 -1519.8 -229.3 L-1521.3 -231.9 Q-1522.15 -232.65 -1522.8 -235.4 -1523.7 -237.45 -1526.25 -236.2 -1526.3 -235.35 -1526.7 -234.15 L-1527.05 -232.25 -1527.05 -232.15 -1527.55 -234.9 -1527.95 -232.0 Q-1528.4 -229.25 -1530.35 -227.35 L-1531.05 -227.95 Q-1532.75 -232.95 -1534.45 -235.5 L-1535.8 -239.55 Q-1536.6 -241.9 -1539.05 -241.8 -1541.95 -240.05 -1542.55 -238.45 L-1542.8 -235.25 Q-1542.85 -231.45 -1542.15 -227.65 -1541.75 -225.4 -1541.15 -223.85 L-1542.45 -219.55 -1543.6 -215.65 -1544.15 -213.6 -1545.3 -216.2 Q-1547.15 -220.05 -1548.9 -221.5 L-1553.55 -225.6 Q-1556.0 -228.4 -1556.8 -232.55 -1556.95 -233.7 -1557.8 -235.5 L-1559.2 -238.75 -1560.1 -241.25 Q-1560.95 -242.5 -1563.2 -241.5 -1565.5 -240.45 -1565.55 -236.45 L-1565.15 -230.1 -1565.15 -221.9 -1564.85 -220.85 -1565.0 -219.3 Q-1565.8 -208.85 -1564.5 -202.0 L-1564.5 -182.6 -1565.8 -181.85 Q-1566.65 -182.35 -1566.95 -183.05 L-1567.25 -184.35 Q-1567.6 -183.85 -1568.4 -183.65 -1569.6 -185.3 -1570.0 -188.9 L-1570.35 -194.55 Q-1571.0 -200.0 -1572.2 -205.6 -1576.3 -225.4 -1576.3 -227.25 L-1576.3 -227.35 -1576.2 -228.2 -1576.3 -228.2 -1580.85 -228.1 -1583.35 -227.7 -1582.85 -226.45 Q-1582.2 -224.9 -1582.2 -222.05 -1582.2 -218.95 -1583.45 -212.4 -1584.55 -206.65 -1584.15 -200.85 L-1584.55 -200.6 Q-1585.0 -200.3 -1585.45 -200.15 -1586.75 -201.25 -1587.85 -204.35 -1588.75 -206.9 -1589.3 -209.95 L-1590.05 -214.75 -1590.05 -214.8 -1590.1 -214.75 Q-1592.25 -209.0 -1599.85 -209.0 -1607.35 -209.0 -1611.05 -217.35 L-1613.55 -223.1 -1613.75 -223.45 -1613.75 -191.95 -1613.8 -191.9 -1613.9 -191.6 Q-1614.05 -191.3 -1615.05 -191.3 -1617.05 -191.3 -1617.9 -193.65 -1618.55 -195.35 -1619.1 -200.2 -1620.6 -213.65 -1623.15 -222.05 L-1623.15 -222.15 -1623.2 -222.05 -1623.55 -219.55 -1624.85 -218.0 -1628.2 -214.85 Q-1633.15 -221.2 -1634.65 -224.0 L-1634.65 -224.05 Q-1635.35 -225.25 -1635.35 -225.75 L-1635.35 -223.55 Q-1635.35 -219.0 -1636.25 -210.25 -1637.1 -202.05 -1637.85 -198.0 L-1637.75 -197.85 M-2183.5 -233.6 L-2184.4 -234.0 -2184.4 -233.55 -2183.5 -233.6" fill="#a4b5b4" fill-rule="evenodd" stroke="none"/>
    <path d="M-1517.65 -333.75 L-1512.95 -332.8 -1506.9 -331.7 -1506.6 -331.65 -1505.65 -331.5 -1501.35 -330.7 -1498.9 -328.25 Q-1494.65 -324.15 -1490.65 -321.05 -1474.9 -309.0 -1442.15 -290.4 L-1406.25 -270.55 -1382.95 -256.55 Q-1369.35 -248.7 -1356.9 -244.3 -1352.6 -242.8 -1341.95 -233.35 -1332.45 -224.95 -1330.9 -220.95 -1329.6 -220.15 -1329.5 -217.95 L-1330.0 -213.4 -1330.0 -204.75 Q-1330.0 -191.7 -1330.25 -189.15 -1330.6 -185.05 -1332.3 -177.65 L-1333.35 -177.85 -1333.45 -181.15 -1333.35 -184.45 -1332.7 -192.15 -1332.05 -197.8 Q-1332.05 -210.6 -1339.15 -217.7 -1341.0 -219.55 -1346.65 -224.0 -1352.15 -228.3 -1355.55 -231.8 -1357.1 -233.35 -1363.45 -236.15 L-1373.4 -240.7 -1382.0 -244.85 Q-1388.15 -247.8 -1390.15 -249.05 L-1418.15 -265.85 Q-1444.0 -280.6 -1476.35 -297.05 -1484.85 -301.4 -1503.55 -315.55 -1521.75 -329.4 -1521.75 -331.1 -1521.75 -331.45 -1520.9 -331.65 -1519.45 -332.0 -1517.7 -333.15 L-1517.65 -333.75 M-1340.55 -209.6 L-1342.35 -209.1 -1343.55 -204.6 -1346.05 -193.65 -1346.5 -193.65 -1347.8 -193.85 -1348.45 -194.35 -1348.45 -213.4 Q-1347.0 -216.7 -1343.4 -213.1 -1341.4 -211.1 -1340.55 -209.6 M-1353.95 -206.75 L-1354.65 -203.6 -1356.35 -194.85 Q-1356.85 -191.45 -1356.65 -186.15 L-1356.4 -179.65 -1357.6 -179.65 Q-1358.95 -191.35 -1359.45 -192.75 L-1362.55 -203.25 -1363.25 -206.05 Q-1364.85 -212.25 -1364.85 -213.8 -1364.85 -220.8 -1360.05 -216.05 -1356.35 -212.45 -1354.95 -209.4 L-1353.95 -206.75 M-1380.45 -217.2 L-1380.6 -217.15 -1382.55 -203.8 Q-1385.2 -185.5 -1385.2 -178.45 L-1385.35 -178.05 Q-1385.6 -177.7 -1386.55 -177.7 L-1386.85 -177.75 -1387.4 -178.05 -1387.9 -178.7 -1387.9 -178.75 -1387.95 -181.4 -1387.95 -181.5 Q-1388.2 -187.35 -1388.8 -195.7 -1389.8 -208.95 -1389.8 -215.35 -1389.8 -220.8 -1389.4 -222.95 -1388.35 -228.55 -1384.85 -226.4 -1381.55 -221.15 -1380.45 -217.2 M-1405.1 -214.85 Q-1408.5 -213.75 -1411.4 -213.15 L-1411.65 -213.1 -1412.05 -213.05 -1412.7 -210.95 Q-1413.2 -209.2 -1414.0 -208.05 -1415.6 -205.65 -1418.7 -204.75 -1421.4 -204.95 -1423.3 -206.55 -1422.85 -208.7 -1425.1 -213.7 L-1429.0 -220.55 Q-1431.75 -225.2 -1432.3 -227.35 -1433.45 -231.7 -1441.9 -241.0 -1449.6 -249.5 -1449.6 -254.8 -1449.6 -259.55 -1447.1 -257.65 -1443.0 -253.6 -1439.85 -251.1 -1430.85 -243.0 -1427.75 -238.75 L-1415.75 -227.6 -1414.05 -225.95 -1409.35 -221.05 Q-1405.8 -217.05 -1405.1 -214.85 M-1456.85 -218.4 Q-1460.4 -218.75 -1467.4 -222.35 L-1468.3 -211.35 -1469.3 -200.85 Q-1469.15 -192.6 -1469.45 -187.85 -1469.85 -181.1 -1471.6 -179.45 -1472.1 -183.4 -1472.05 -190.2 L-1472.05 -190.5 -1472.0 -199.25 -1472.05 -205.55 -1472.2 -211.7 -1472.55 -216.45 Q-1473.45 -223.3 -1474.55 -227.2 -1476.2 -233.2 -1479.25 -237.65 -1480.65 -239.75 -1483.3 -242.9 L-1487.5 -248.3 -1488.95 -250.8 -1490.95 -253.6 Q-1493.5 -256.4 -1493.05 -257.15 L-1492.4 -257.75 Q-1491.95 -258.2 -1491.95 -258.9 L-1495.0 -262.85 Q-1498.1 -266.55 -1498.1 -267.1 L-1498.1 -268.15 -1497.95 -268.65 Q-1493.6 -268.6 -1489.55 -263.6 -1485.5 -257.75 -1483.4 -255.95 L-1480.05 -252.2 -1477.5 -248.7 Q-1476.15 -246.4 -1471.55 -241.25 L-1465.7 -233.9 -1459.75 -225.75 -1457.65 -223.3 Q-1457.05 -222.3 -1456.75 -218.45 L-1456.85 -218.4" fill="#b0bfbe" fill-rule="evenodd" stroke="none"/>
    <path d="M-1518.3 -333.85 L-1517.65 -333.75 -1517.7 -333.15 -1518.3 -333.85 M-1333.15 -174.15 L-1333.85 -171.55 -1333.65 -171.35 -1334.0 -171.2 -1333.95 -171.45 -1333.6 -174.25 -1333.15 -174.15 M-1454.3 -211.9 Q-1455.15 -212.0 -1455.7 -212.8 L-1455.75 -212.9 -1456.25 -214.05 -1456.3 -214.2 -1456.35 -214.45 -1456.4 -214.6 -1456.4 -214.65 -1456.45 -214.8 -1456.45 -214.95 -1456.5 -215.1 -1456.5 -215.2 -1456.55 -215.4 -1456.6 -215.6 -1456.75 -216.75 -1456.85 -218.25 -1456.85 -218.4 -1456.75 -218.45 -1456.75 -218.25 Q-1456.75 -217.45 -1455.45 -214.75 L-1454.3 -211.9" fill="#dee4e4" fill-rule="evenodd" stroke="none"/>
    <path d="M-1346.05 -193.65 L-1346.1 -193.45 -1346.0 -193.25 -1347.15 -193.05 Q-1347.75 -193.05 -1348.55 -194.25 L-1348.45 -194.35 -1347.8 -193.85 -1346.5 -193.65 -1346.05 -193.65 M-1357.15 -176.7 L-1357.65 -176.55 Q-1359.6 -178.25 -1359.85 -180.95 L-1360.25 -185.65 Q-1361.75 -192.35 -1362.75 -194.95 L-1362.95 -195.5 -1362.35 -195.5 -1362.25 -198.45 -1363.45 -203.0 -1362.55 -203.25 -1359.45 -192.75 Q-1358.95 -191.35 -1357.6 -179.65 L-1357.2 -177.0 -1357.15 -176.7 M-1371.85 -203.75 L-1372.65 -196.05 -1372.75 -194.35 -1372.85 -194.0 -1373.05 -193.8 Q-1372.75 -195.1 -1372.75 -196.05 -1372.75 -198.15 -1373.9 -209.5 L-1372.75 -209.65 Q-1372.75 -208.05 -1372.35 -205.95 L-1371.85 -203.75 M-1387.9 -178.75 L-1388.9 -181.45 -1387.95 -181.4 -1387.9 -178.75 M-1418.7 -204.75 L-1422.65 -204.3 -1423.35 -204.3 -1423.6 -204.35 -1423.3 -204.9 -1423.3 -204.95 -1423.4 -206.55 -1423.3 -206.55 Q-1421.4 -204.95 -1418.7 -204.75 M-1449.85 -179.9 L-1450.35 -179.7 -1450.3 -179.9 -1449.85 -179.9 M-1452.25 -212.1 L-1452.3 -212.3 -1453.35 -215.9 -1452.1 -215.95 -1452.25 -212.1 M-1515.05 -198.2 L-1515.4 -195.75 -1515.85 -198.25 -1515.05 -198.2 M-1530.35 -227.35 L-1530.75 -227.0 -1531.05 -227.95 -1530.35 -227.35 M-1551.2 -209.1 Q-1551.9 -209.6 -1552.4 -211.4 L-1552.15 -211.9 -1551.2 -209.1 M-1637.85 -198.0 L-1637.65 -197.9 Q-1637.65 -197.85 -1637.75 -197.85 L-1637.85 -198.0 M-1595.65 -354.3 L-1601.9 -354.45 Q-1601.05 -355.3 -1599.5 -355.15 L-1595.65 -354.3 M-1472.05 -205.55 L-1472.0 -199.25 -1472.05 -190.5 -1472.55 -199.25 -1472.9 -205.5 -1472.05 -205.55 M-1415.75 -227.6 L-1415.25 -227.85 -1414.05 -225.95 -1415.75 -227.6" fill="#bbc8c7" fill-rule="evenodd" stroke="none"/>
    <path d="M-1362.95 -195.5 L-1364.3 -199.25 Q-1365.2 -201.55 -1366.8 -203.45 -1368.25 -205.15 -1369.75 -208.05 L-1371.1 -210.8 -1371.6 -206.05 -1372.35 -205.95 Q-1372.75 -208.05 -1372.75 -209.65 L-1372.6 -212.1 Q-1372.1 -213.05 -1369.85 -213.05 -1366.8 -213.05 -1364.2 -205.75 L-1363.45 -203.0 -1362.25 -198.45 -1362.35 -195.5 -1362.95 -195.5 M-1373.05 -193.8 L-1373.6 -193.65 -1374.05 -193.65 Q-1375.05 -193.65 -1376.6 -198.55 L-1378.6 -205.75 Q-1379.1 -207.6 -1379.45 -212.1 -1379.65 -215.1 -1380.2 -217.2 L-1380.2 -217.25 -1380.4 -217.2 Q-1380.1 -218.55 -1379.4 -219.8 -1377.9 -222.3 -1376.65 -218.1 -1376.45 -217.35 -1375.25 -215.1 -1374.35 -213.4 -1374.05 -210.85 L-1373.9 -209.5 Q-1372.75 -198.15 -1372.75 -196.05 -1372.75 -195.1 -1373.05 -193.8 M-1392.4 -198.0 L-1395.75 -208.25 -1398.5 -216.7 Q-1401.0 -216.4 -1403.0 -215.65 L-1405.1 -214.85 Q-1405.8 -217.05 -1409.35 -221.05 L-1414.05 -225.95 -1415.25 -227.85 -1415.25 -227.9 -1415.95 -229.0 Q-1420.0 -235.8 -1423.3 -242.7 L-1423.25 -243.65 -1422.95 -244.0 Q-1420.3 -244.65 -1418.2 -243.05 L-1414.25 -239.15 Q-1413.1 -237.85 -1409.45 -235.3 L-1405.75 -232.55 Q-1404.2 -230.25 -1398.25 -224.25 -1393.05 -218.95 -1393.05 -218.4 -1393.05 -217.6 -1393.7 -217.1 -1394.35 -216.65 -1394.35 -215.8 L-1393.05 -212.45 Q-1391.75 -209.2 -1391.75 -208.65 L-1391.75 -207.75 -1391.95 -207.35 -1392.3 -207.0 Q-1391.85 -205.2 -1391.75 -203.8 L-1391.75 -198.1 -1392.4 -198.0 M-1424.4 -204.5 L-1430.2 -207.5 -1430.4 -207.65 -1430.55 -207.05 -1431.15 -210.6 Q-1431.15 -214.05 -1429.9 -214.7 -1428.85 -215.3 -1427.2 -213.7 L-1426.2 -212.65 Q-1423.85 -209.9 -1423.4 -206.55 L-1423.3 -204.95 -1424.4 -204.5 M-1436.2 -179.9 L-1436.5 -179.75 -1436.85 -179.6 -1436.95 -179.55 -1437.1 -179.5 Q-1438.55 -180.75 -1438.55 -183.5 L-1438.4 -188.2 -1438.45 -192.4 -1438.4 -196.55 -1438.95 -196.35 Q-1439.35 -196.1 -1439.7 -196.0 -1441.1 -197.4 -1441.6 -200.55 L-1442.05 -205.6 -1442.3 -214.35 -1442.3 -214.6 Q-1441.05 -215.3 -1438.55 -213.7 L-1436.45 -205.75 Q-1435.6 -202.55 -1435.9 -196.45 L-1436.45 -189.8 -1436.6 -186.75 Q-1436.7 -184.55 -1436.45 -183.15 L-1435.5 -180.5 -1436.2 -179.9 M-1450.35 -179.7 L-1450.9 -179.5 Q-1451.9 -180.5 -1452.15 -182.05 L-1452.2 -184.7 -1451.55 -191.4 -1450.9 -198.1 Q-1450.9 -199.0 -1451.55 -199.55 L-1452.2 -200.4 -1452.2 -202.65 Q-1451.55 -205.45 -1451.55 -207.55 -1451.55 -209.3 -1452.25 -212.1 L-1452.1 -215.95 -1452.05 -217.95 Q-1449.4 -218.15 -1448.25 -215.85 -1447.6 -214.5 -1447.6 -213.05 -1447.6 -200.75 -1448.25 -191.6 -1448.35 -189.8 -1449.3 -186.2 -1450.15 -182.65 -1450.25 -180.95 L-1450.3 -179.9 -1450.35 -179.7 M-1480.55 -224.2 L-1480.35 -221.25 -1480.45 -219.05 Q-1481.3 -211.35 -1492.2 -211.35 -1497.5 -211.35 -1501.45 -216.3 L-1501.6 -216.5 -1502.1 -217.2 -1503.15 -218.85 -1504.6 -221.75 -1504.7 -221.95 Q-1507.05 -226.15 -1507.75 -228.65 L-1509.2 -228.9 -1509.8 -228.9 -1511.45 -237.5 -1512.85 -247.05 -1513.95 -256.75 Q-1513.95 -262.75 -1511.55 -262.1 -1509.25 -261.5 -1505.9 -255.3 -1503.35 -250.5 -1500.15 -241.65 L-1494.0 -226.05 -1490.45 -216.9 Q-1487.25 -215.35 -1484.55 -215.35 -1482.8 -215.35 -1482.4 -219.45 -1482.15 -221.5 -1482.3 -223.85 L-1481.75 -224.05 -1480.6 -224.25 -1480.55 -224.2 M-1530.75 -227.0 L-1531.75 -226.25 -1532.95 -225.55 Q-1533.1 -225.5 -1533.3 -225.4 L-1539.55 -225.0 -1540.8 -225.0 -1541.15 -223.85 Q-1541.75 -225.4 -1542.15 -227.65 -1542.85 -231.45 -1542.8 -235.25 L-1542.55 -238.45 Q-1541.95 -240.05 -1539.05 -241.8 -1536.6 -241.9 -1535.8 -239.55 L-1534.45 -235.5 Q-1532.75 -232.95 -1531.05 -227.95 L-1530.75 -227.0 M-1544.15 -213.6 L-1544.9 -209.95 -1547.6 -209.25 -1550.7 -208.9 Q-1550.95 -208.9 -1551.2 -209.1 L-1552.15 -211.9 -1552.4 -211.4 Q-1552.95 -213.2 -1553.35 -216.15 L-1553.5 -217.6 -1555.3 -217.3 Q-1561.35 -217.3 -1564.5 -222.5 L-1564.7 -222.9 -1564.75 -222.5 -1564.8 -221.9 -1565.15 -221.9 -1565.15 -230.1 -1565.55 -236.45 Q-1565.5 -240.45 -1563.2 -241.5 -1560.95 -242.5 -1560.1 -241.25 L-1559.2 -238.75 -1557.8 -235.5 Q-1556.95 -233.7 -1556.8 -232.55 -1556.0 -228.4 -1553.55 -225.6 L-1548.9 -221.5 Q-1547.15 -220.05 -1545.3 -216.2 L-1544.15 -213.6" fill="#96a9a8" fill-rule="evenodd" stroke="none"/>
    <path d="M-1371.6 -206.05 L-1371.85 -203.75 -1372.35 -205.95 -1371.6 -206.05 M-1391.75 -195.95 L-1391.8 -196.1 -1392.05 -196.95 -1392.3 -197.75 -1392.4 -198.0 -1391.75 -198.1 -1391.75 -195.95 M-1423.6 -204.35 L-1424.4 -204.5 -1423.3 -204.95 -1423.3 -204.9 -1423.6 -204.35 M-1442.6 -214.4 L-1442.6 -214.35 -1443.55 -208.35 -1443.6 -209.5 Q-1443.6 -212.55 -1443.25 -213.4 L-1442.6 -214.4 M-1471.6 -179.45 Q-1472.15 -178.95 -1472.85 -178.95 L-1474.55 -179.15 Q-1474.85 -183.4 -1475.9 -194.0 L-1475.9 -194.25 -1476.3 -198.1 -1477.15 -206.55 Q-1477.4 -209.05 -1479.95 -221.25 L-1480.55 -224.2 -1480.6 -224.25 -1480.4 -224.25 Q-1477.55 -224.25 -1476.2 -220.25 -1474.9 -214.7 -1473.85 -211.6 -1473.05 -209.35 -1472.9 -205.5 L-1472.55 -199.25 -1472.05 -190.5 -1472.05 -190.2 Q-1472.1 -183.4 -1471.6 -179.45 M-1501.6 -216.5 L-1501.9 -216.9 -1502.1 -217.2 -1501.6 -216.5 M-1515.4 -195.75 L-1515.4 -195.7 -1515.8 -192.55 -1515.9 -192.0 -1516.3 -191.75 Q-1516.75 -191.45 -1517.2 -191.3 -1518.2 -192.4 -1518.35 -193.15 L-1518.5 -194.7 Q-1518.65 -195.4 -1518.95 -195.7 L-1520.45 -196.7 -1520.45 -203.0 Q-1520.65 -210.45 -1521.75 -215.75 -1522.95 -221.05 -1525.9 -228.55 L-1527.05 -232.1 -1527.05 -232.15 -1527.05 -232.25 -1526.7 -234.15 Q-1526.3 -235.35 -1526.25 -236.2 -1523.7 -237.45 -1522.8 -235.4 -1522.15 -232.65 -1521.3 -231.9 L-1519.8 -229.3 Q-1519.15 -227.95 -1519.15 -224.9 -1519.15 -217.75 -1518.2 -210.8 L-1515.85 -198.25 -1515.4 -195.75 M-1564.8 -221.9 L-1564.85 -220.85 -1565.15 -221.9 -1564.8 -221.9" fill="#a6b7b6" fill-rule="evenodd" stroke="none"/>
    <path d="M-1332.3 -177.65 L-1333.15 -174.15 -1333.6 -174.25 Q-1333.2 -176.6 -1333.35 -177.85 L-1332.3 -177.65 M-1356.4 -179.65 L-1356.35 -177.15 -1356.4 -177.15 -1356.85 -176.9 -1357.15 -176.7 -1357.2 -177.0 -1357.6 -179.65 -1356.4 -179.65" fill="#d0d9d9" fill-rule="evenodd" stroke="none"/>
  </g>
</svg>
