<?xml version="1.0" encoding="UTF-8" standalone="no"?>
<svg xmlns:ffdec="https://www.free-decompiler.com/flash" xmlns:xlink="http://www.w3.org/1999/xlink" ffdec:objectType="shape" height="209.5px" width="1856.65px" xmlns="http://www.w3.org/2000/svg">
  <g transform="matrix(1.0, 0.0, 0.0, 1.0, 847.9, -10.75)">
    <path d="M179.0 69.55 L188.15 67.8 192.85 67.0 Q272.55 52.25 293.0 49.4 334.8 43.75 356.5 41.4 388.9 37.95 429.0 35.7 L491.1 33.8 Q541.9 32.9 588.9 33.05 696.6 33.3 714.7 38.9 L717.7 39.15 811.9 43.85 Q896.85 47.75 944.8 51.8 963.45 53.4 975.95 55.85 989.8 58.45 989.6 61.05 989.35 63.85 986.45 64.65 L980.55 64.9 980.9 66.75 Q981.2 74.25 983.8 80.55 990.6 98.0 991.0 107.2 991.6 116.65 995.2 135.15 998.0 149.35 997.1 159.9 996.75 164.3 998.75 175.15 L1001.7 189.15 Q1003.45 198.9 1003.65 203.45 1003.95 206.95 1006.5 211.95 L1008.75 216.95 Q1008.6 218.5 1006.2 219.4 1002.65 220.7 994.95 220.05 L989.85 219.15 979.9 218.9 816.05 210.5 773.05 209.15 Q756.95 209.2 738.95 208.4 L696.2 206.55 580.35 201.8 574.75 201.25 569.45 202.1 Q565.4 203.15 561.75 202.85 553.5 202.15 552.25 198.5 551.9 197.55 551.95 196.5 552.15 194.45 558.65 193.65 L557.15 192.3 556.5 191.85 555.55 182.05 554.2 167.0 554.35 158.95 Q555.75 156.0 555.8 155.35 555.95 153.55 554.05 149.9 552.0 145.95 549.65 144.55 547.6 143.9 545.95 143.75 543.2 141.9 538.2 141.45 493.75 137.7 446.65 136.95 399.75 136.15 346.35 131.65 318.7 129.3 275.7 123.85 232.8 118.35 215.4 116.9 167.6 112.85 110.6 106.15 L95.1 104.3 Q74.6 100.9 60.6 99.7 L30.05 97.1 30.05 96.1 Q30.2 94.1 44.25 91.8 58.1 89.55 65.55 90.2 67.2 90.35 161.65 72.75 L163.2 72.9 Q170.1 71.0 179.1 69.9 L179.0 69.55 M984.05 206.1 Q984.5 206.2 984.95 206.45 L985.05 205.4 984.05 206.1" fill="#718888" fill-rule="evenodd" stroke="none"/>
    <path d="M552.25 198.5 L549.55 198.65 Q547.95 199.35 545.35 199.6 541.2 200.05 522.65 200.0 517.05 199.8 500.55 200.15 L460.7 198.1 419.05 195.7 410.65 195.0 408.0 194.95 320.25 190.4 Q359.95 194.05 317.8 191.4 L215.2 184.2 208.2 184.6 167.55 182.7 Q165.25 182.6 162.6 182.8 L158.15 183.15 99.15 179.6 Q22.6 173.15 -60.6 169.35 L-206.7 164.3 -357.85 158.7 Q-446.55 154.5 -532.5 147.25 L-566.3 143.5 -600.0 139.7 -626.3 138.35 -749.4 132.5 -783.5 129.85 Q-788.45 129.7 -789.3 130.6 -791.5 132.45 -833.45 128.95 -839.55 128.4 -841.85 126.45 -843.15 125.4 -843.05 124.25 -843.45 123.45 -843.15 123.05 -842.65 122.3 -839.55 122.0 -841.6 121.4 -842.75 120.55 -845.2 118.85 -844.65 115.3 -840.55 104.65 -841.3 96.65 L-843.45 70.15 -843.4 57.25 Q-843.1 48.25 -843.35 43.8 -843.6 38.25 -846.05 30.15 -848.3 23.0 -847.8 17.35 -847.7 15.95 -842.9 15.3 -840.3 11.65 -815.9 11.1 -782.35 11.3 -769.15 11.05 -736.65 10.65 -730.6 10.75 L-664.55 13.6 -573.3 17.7 -463.55 23.4 -443.8 25.8 -416.85 26.95 -401.2 28.95 -386.2 30.95 -377.1 32.05 Q-373.25 32.35 -338.7 38.75 L-294.95 46.5 -276.55 51.2 -273.65 51.7 -261.15 54.05 -232.1 59.05 -231.05 59.1 -207.65 62.65 Q-205.9 62.9 -202.1 63.95 L-179.0 67.8 -149.75 73.2 -132.1 75.3 Q-120.35 77.0 -111.15 79.1 -104.45 80.6 -96.75 81.25 -85.2 82.2 -73.0 85.15 L-61.7 87.8 -46.6 89.7 30.05 97.1 60.6 99.7 Q74.6 100.9 95.1 104.3 L110.6 106.15 Q167.6 112.85 215.4 116.9 232.8 118.35 275.7 123.85 318.7 129.3 346.35 131.65 399.75 136.15 446.65 136.95 493.75 137.7 538.2 141.45 543.2 141.9 545.95 143.75 547.6 143.9 549.65 144.55 552.0 145.95 554.05 149.9 555.95 153.55 555.8 155.35 555.75 156.0 554.35 158.95 L554.2 167.0 555.55 182.05 556.5 191.85 557.15 192.3 558.65 193.65 Q552.15 194.45 551.95 196.5 551.9 197.55 552.25 198.5 M536.45 149.65 L536.1 149.65 536.2 150.4 Q536.25 150.0 536.45 149.65" fill="#607373" fill-rule="evenodd" stroke="none"/>
    <path d="M-261.15 54.05 L-261.4 53.05 Q-261.3 51.55 -256.3 50.8 L-254.45 50.95 -123.45 57.85 -8.55 63.35 95.2 68.45 Q153.75 70.45 178.75 68.75 L179.0 69.55 179.1 69.9 Q170.1 71.0 163.2 72.9 L161.65 72.75 Q67.2 90.35 65.55 90.2 58.1 89.55 44.25 91.8 30.2 94.1 30.05 96.1 L30.05 97.1 -46.6 89.7 -61.7 87.8 -73.0 85.15 Q-85.2 82.2 -96.75 81.25 -104.45 80.6 -111.15 79.1 -120.35 77.0 -132.1 75.3 L-149.75 73.2 -179.0 67.8 -202.1 63.95 Q-205.9 62.9 -207.65 62.65 L-231.05 59.1 -232.1 59.05 -261.15 54.05" fill="#859a9a" fill-rule="evenodd" stroke="none"/>
  </g>
</svg>
