<?xml version="1.0" encoding="UTF-8" standalone="no"?>
<svg xmlns:ffdec="https://www.free-decompiler.com/flash" xmlns:xlink="http://www.w3.org/1999/xlink" ffdec:objectType="shape" height="128.5px" width="112.4px" xmlns="http://www.w3.org/2000/svg">
  <g transform="matrix(1.0, 0.0, 0.0, 1.0, 211.9, 252.65)">
    <path d="M-125.25 -206.05 Q-125.8 -207.1 -127.95 -215.85 -129.85 -223.8 -132.7 -227.5 -135.1 -230.75 -143.2 -232.75 L-156.2 -235.0 -165.5 -235.95 Q-170.2 -235.45 -175.8 -230.6 -185.1 -222.45 -186.7 -219.75 -192.25 -210.25 -193.7 -206.75 -196.0 -200.95 -197.3 -191.45 -201.5 -160.95 -187.55 -148.45 -181.05 -142.6 -168.7 -140.9 -162.65 -140.05 -156.4 -140.9 -149.6 -141.9 -143.75 -144.7 -133.45 -146.85 -124.35 -159.15 -114.4 -172.75 -116.75 -186.7 -117.5 -191.3 -120.65 -197.55 L-125.25 -206.05 M-153.3 -251.25 Q-132.2 -248.35 -119.55 -237.55 -99.45 -220.45 -99.9 -184.4 -100.0 -177.7 -99.5 -172.95 -99.6 -170.0 -103.1 -161.15 -105.6 -153.95 -107.3 -151.1 L-111.6 -141.4 -112.65 -139.4 -113.5 -138.85 -117.05 -136.55 Q-118.4 -136.35 -120.45 -135.15 -124.0 -133.35 -124.85 -133.1 L-133.45 -130.95 Q-147.85 -126.25 -151.1 -125.5 -159.55 -123.5 -167.0 -124.5 -174.0 -125.45 -180.9 -127.85 -186.8 -129.95 -194.35 -133.8 -206.4 -140.0 -210.25 -163.4 -213.0 -180.15 -211.2 -193.6 -208.25 -214.9 -203.05 -224.45 -196.8 -235.85 -179.9 -246.8 -171.55 -252.2 -165.6 -252.65 L-153.3 -251.25" fill="#fe885b" fill-opacity="0.49803922" fill-rule="evenodd" stroke="none"/>
    <path d="M-125.25 -206.05 L-120.65 -197.55 Q-117.5 -191.3 -116.75 -186.7 -114.4 -172.75 -124.35 -159.15 -133.45 -146.85 -143.75 -144.7 -149.6 -141.9 -156.4 -140.9 -162.65 -140.05 -168.7 -140.9 -181.05 -142.6 -187.55 -148.45 -201.5 -160.95 -197.3 -191.45 -196.0 -200.95 -193.7 -206.75 -192.25 -210.25 -186.7 -219.75 -185.1 -222.45 -175.8 -230.6 -170.2 -235.45 -165.5 -235.95 L-156.2 -235.0 -143.2 -232.75 Q-135.1 -230.75 -132.7 -227.5 -129.85 -223.8 -127.95 -215.85 -125.8 -207.1 -125.25 -206.05 M-123.35 -193.65 L-123.15 -193.65 -123.3 -193.85 -123.35 -193.65" fill="#eecb5e" fill-opacity="0.49803922" fill-rule="evenodd" stroke="none"/>
  </g>
</svg>
