<?xml version="1.0" encoding="UTF-8" standalone="no"?>
<svg xmlns:ffdec="https://www.free-decompiler.com/flash" xmlns:xlink="http://www.w3.org/1999/xlink" ffdec:objectType="shape" height="121.35px" width="128.15px" xmlns="http://www.w3.org/2000/svg">
  <g transform="matrix(1.0, 0.0, 0.0, 1.0, 216.75, 247.75)">
    <path d="M-137.9 -247.55 L-135.65 -247.75 -134.75 -247.3 -131.0 -245.4 Q-130.1 -244.35 -128.0 -243.2 L-124.0 -240.5 -117.7 -234.25 Q-106.25 -224.4 -103.95 -222.05 -97.8 -215.8 -94.85 -208.95 -92.05 -202.4 -90.55 -195.3 -89.35 -189.15 -88.65 -180.75 -87.75 -167.25 -105.8 -151.8 -118.7 -140.85 -131.1 -135.45 -150.9 -126.95 -161.75 -126.45 -174.75 -125.9 -192.8 -134.65 -201.75 -139.05 -205.15 -143.9 -206.05 -145.2 -210.35 -155.15 -218.8 -174.65 -216.1 -191.1 -211.85 -217.1 -180.8 -235.35 -174.95 -238.75 -171.2 -241.65 -168.6 -243.1 -159.25 -244.65 L-148.5 -246.25 -137.9 -247.55 M-108.0 -199.0 Q-110.4 -204.6 -114.35 -209.5 -118.75 -214.85 -124.2 -218.35 -131.35 -226.05 -146.55 -227.45 -163.35 -229.0 -174.05 -219.75 -177.55 -216.75 -181.35 -210.85 L-186.2 -202.5 Q-186.8 -201.5 -193.15 -195.15 -199.0 -189.4 -200.7 -185.05 -202.2 -181.3 -199.8 -173.35 -198.5 -169.35 -194.95 -161.1 -191.75 -153.7 -191.0 -152.6 -188.1 -148.85 -181.05 -146.55 -169.3 -142.8 -166.15 -142.85 L-151.45 -143.65 Q-145.25 -144.65 -136.45 -148.4 -108.2 -160.6 -104.7 -178.95 -103.1 -187.6 -108.0 -199.0" fill="#fe885b" fill-opacity="0.49803922" fill-rule="evenodd" stroke="none"/>
    <path d="M-108.0 -199.0 Q-103.1 -187.6 -104.7 -178.95 -108.2 -160.6 -136.45 -148.4 -145.25 -144.65 -151.45 -143.65 L-166.15 -142.85 Q-169.3 -142.8 -181.05 -146.55 -188.1 -148.85 -191.0 -152.6 -191.75 -153.7 -194.95 -161.1 -198.5 -169.35 -199.8 -173.35 -202.2 -181.3 -200.7 -185.05 -199.0 -189.4 -193.15 -195.15 -186.8 -201.5 -186.2 -202.5 L-181.35 -210.85 Q-177.55 -216.75 -174.05 -219.75 -163.35 -229.0 -146.55 -227.45 -131.35 -226.05 -124.2 -218.35 -118.75 -214.85 -114.35 -209.5 -110.4 -204.6 -108.0 -199.0 M-176.6 -210.5 L-176.7 -210.7 -176.75 -210.4 -176.6 -210.5" fill="#eecb5e" fill-opacity="0.49803922" fill-rule="evenodd" stroke="none"/>
  </g>
</svg>
