<?xml version="1.0" encoding="UTF-8" standalone="no"?>
<svg xmlns:ffdec="https://www.free-decompiler.com/flash" xmlns:xlink="http://www.w3.org/1999/xlink" ffdec:objectType="shape" height="402.95px" width="610.95px" xmlns="http://www.w3.org/2000/svg">
  <g transform="matrix(1.0, 0.0, 0.0, 1.0, 324.45, 199.45)">
    <path d="M129.0 -44.0 Q128.55 -49.25 126.4 -54.2 125.2 -56.9 124.75 -59.95 L124.35 -63.05 Q124.0 -67.5 123.95 -72.0 123.95 -74.2 123.0 -76.0 M258.0 -136.0 Q254.8 -127.7 250.85 -121.1 M286.0 79.0 Q283.65 77.35 281.75 75.25 M197.0 141.0 Q197.7 134.45 195.35 128.85 L193.0 119.0 M-196.95 -1.0 L-196.95 -19.0 M-91.0 131.0 L-91.85 135.05 Q-92.5 137.0 -93.0 137.0 M-323.95 -198.95 L-323.95 203.0" fill="none" stroke="#333333" stroke-linecap="round" stroke-linejoin="round" stroke-opacity="0.6" stroke-width="1.0"/>
  </g>
</svg>
