<?xml version="1.0" encoding="UTF-8" standalone="no"?>
<svg xmlns:ffdec="https://www.free-decompiler.com/flash" xmlns:xlink="http://www.w3.org/1999/xlink" ffdec:objectType="shape" height="558.95px" width="707.95px" xmlns="http://www.w3.org/2000/svg">
  <g transform="matrix(1.0, 0.0, 0.0, 1.0, 353.95, 355.95)">
    <path d="M354.0 203.0 L-353.95 203.0 -353.95 -355.95 354.0 -355.95 354.0 203.0" fill="url(#gradient0)" fill-rule="evenodd" stroke="none"/>
    <path d="M49.0 -133.0 Q48.4 -125.55 49.9 -119.0 M253.0 -202.0 Q254.7 -198.0 253.9 -193.0 253.5 -190.5 253.35 -188.0 L252.85 -177.0 Q252.7 -170.9 252.0 -165.0 M227.0 -127.0 Q228.45 -135.1 228.25 -144.0 228.1 -150.85 229.65 -157.1 M146.0 92.0 Q150.6 94.3 155.05 96.9 158.85 99.05 162.9 100.35 165.0 101.0 167.0 102.0 L171.0 104.0 M297.0 201.0 L297.0 -190.95 M-257.95 -36.0 Q-258.4 -42.45 -256.85 -46.95 -256.3 -48.65 -254.95 -51.0 M-101.0 17.0 L-101.0 14.0 -101.0 12.0 M-199.95 151.95 Q-199.5 146.75 -201.2 142.1 M-144.0 -201.95 L-144.0 202.0" fill="none" stroke="#333333" stroke-linecap="round" stroke-linejoin="round" stroke-opacity="0.6" stroke-width="1.0"/>
  </g>
  <defs>
    <linearGradient gradientTransform="matrix(0.0, -0.3143, 0.4321, 0.0, 0.0, -61.5)" gradientUnits="userSpaceOnUse" id="gradient0" spreadMethod="pad" x1="-819.2" x2="819.2">
      <stop offset="0.0196078431372549" stop-color="#996600" stop-opacity="0.14901961"/>
      <stop offset="0.803921568627451" stop-color="#996600" stop-opacity="0.09803922"/>
      <stop offset="1.0" stop-color="#996600" stop-opacity="0.0"/>
    </linearGradient>
  </defs>
</svg>
