<?xml version="1.0" encoding="UTF-8" standalone="no"?>
<svg xmlns:ffdec="https://www.free-decompiler.com/flash" xmlns:xlink="http://www.w3.org/1999/xlink" ffdec:objectType="shape" height="406.95px" width="598.95px" xmlns="http://www.w3.org/2000/svg">
  <g transform="matrix(1.0, 0.0, 0.0, 1.0, 288.45, 203.45)">
    <path d="M278.0 -173.0 Q273.0 -172.9 269.3 -169.65 268.0 -168.5 267.0 -167.0 M172.0 -25.0 Q175.7 -20.9 178.55 -12.85 181.3 -5.15 183.05 3.0 184.05 7.6 185.55 12.15 186.75 18.65 188.0 22.0 M310.0 -29.0 L310.0 -30.0 310.0 -31.0 M38.0 -202.95 L38.0 203.0 M-247.95 -196.0 Q-241.9 -194.0 -237.65 -189.25 L-233.95 -186.0 M-287.95 -69.0 Q-287.4 -80.9 -284.1 -92.05 M-60.0 167.95 Q-61.45 159.85 -61.1 150.95 L-60.65 145.05 -60.15 141.95 Q-58.65 135.0 -56.35 129.85 L-55.0 126.0 M-252.95 89.0 Q-254.65 88.2 -254.5 85.0 L-256.5 78.85" fill="none" stroke="#333333" stroke-linecap="round" stroke-linejoin="round" stroke-opacity="0.6" stroke-width="1.0"/>
  </g>
</svg>
