<?xml version="1.0" encoding="UTF-8" standalone="no"?>
<svg xmlns:ffdec="https://www.free-decompiler.com/flash" xmlns:xlink="http://www.w3.org/1999/xlink" ffdec:objectType="shape" height="296.95px" width="516.85px" xmlns="http://www.w3.org/2000/svg">
  <g transform="matrix(1.0, 0.0, 0.0, 1.0, 234.4, 172.45)">
    <path d="M60.0 -169.0 Q58.15 -161.75 53.85 -155.1 L51.0 -151.0 M91.0 -15.0 L90.55 -23.95 M267.4 -162.55 Q265.8 -160.95 263.5 -160.95 261.2 -160.95 259.6 -162.55 258.0 -164.15 258.0 -166.45 258.0 -168.75 259.6 -170.35 261.2 -171.95 263.5 -171.95 265.8 -171.95 267.4 -170.35 269.0 -168.75 269.0 -166.45 269.0 -164.15 267.4 -162.55 M277.0 27.0 Q281.7 25.8 281.95 29.0 M175.0 124.0 Q173.9 123.3 172.95 121.05 L172.0 119.0 M-154.0 -164.0 L-144.05 -163.6 -141.1 -161.95 Q-139.85 -160.1 -138.0 -160.0 M-55.0 25.0 Q-54.65 27.75 -53.4 30.2 -51.65 33.65 -51.55 39.0 -49.85 44.95 -49.0 49.0 M-232.95 86.0 Q-234.8 90.4 -233.05 95.05 -230.65 101.2 -229.35 107.1 -228.85 109.4 -225.95 111.0 M-192.95 0.0 L-192.95 -1.0" fill="none" stroke="#333333" stroke-linecap="round" stroke-linejoin="round" stroke-opacity="0.6" stroke-width="1.0"/>
  </g>
</svg>
