<?xml version="1.0" encoding="UTF-8" standalone="no"?>
<svg xmlns:ffdec="https://www.free-decompiler.com/flash" xmlns:xlink="http://www.w3.org/1999/xlink" ffdec:objectType="shape" height="330.9px" width="582.2px" xmlns="http://www.w3.org/2000/svg">
  <g transform="matrix(1.0, 0.0, 0.0, 1.0, 300.7, 169.45)">
    <path d="M67.0 -114.0 Q70.05 -103.85 69.55 -92.0 69.5 -90.5 69.6 -88.95 L71.0 -68.0 M281.0 -151.95 Q281.0 -144.9 268.7 -139.95 256.4 -134.95 239.0 -134.95 221.6 -134.95 209.3 -139.95 197.0 -144.9 197.0 -151.95 197.0 -159.0 209.3 -164.0 221.6 -168.95 239.0 -168.95 256.4 -168.95 268.7 -164.0 281.0 -159.0 281.0 -151.95 M203.0 111.0 Q212.2 116.95 219.85 122.2 222.6 124.1 225.0 125.0 M-290.95 -68.0 Q-290.85 -49.15 -296.2 -32.1 -298.05 -26.2 -298.8 -20.1 L-300.2 -16.05 M-65.0 -151.0 Q-63.4 -150.7 -62.75 -148.05 L-62.0 -146.0 M-150.0 43.0 Q-152.65 29.5 -152.05 15.0 M-95.0 160.95 Q-98.35 156.75 -99.55 151.05 L-100.55 146.9 -101.45 143.1 Q-102.3 139.7 -103.5 136.8 -104.5 134.0 -105.0 134.0 M-274.95 140.0 L-273.95 140.0" fill="none" stroke="#333333" stroke-linecap="round" stroke-linejoin="round" stroke-opacity="0.6" stroke-width="1.0"/>
  </g>
</svg>
