<?xml version="1.0" encoding="UTF-8" standalone="no"?>
<svg xmlns:ffdec="https://www.free-decompiler.com/flash" xmlns:xlink="http://www.w3.org/1999/xlink" ffdec:objectType="shape" height="98.0px" width="134.0px" xmlns="http://www.w3.org/2000/svg">
  <g transform="matrix(1.0, 0.0, 0.0, 1.0, 235.0, 249.8)">
    <path d="M-140.7 -208.75 Q-149.0 -217.75 -156.55 -214.7 -164.0 -211.7 -164.0 -199.8 L-164.0 -197.95 Q-163.65 -195.8 -162.0 -195.8 -160.65 -195.8 -160.45 -196.3 L-160.5 -197.4 Q-160.25 -199.05 -153.9 -199.05 -147.25 -199.05 -143.0 -193.5 -140.0 -189.5 -140.0 -187.05 -140.0 -185.05 -142.0 -183.3 -145.75 -180.0 -154.95 -180.0 -156.35 -180.0 -158.65 -182.9 -160.9 -185.8 -161.75 -185.8 -163.3 -185.8 -165.0 -181.45 -166.5 -177.75 -166.5 -176.2 -166.5 -174.3 -165.0 -172.45 -162.45 -169.3 -156.5 -169.3 -152.4 -169.3 -150.25 -170.25 -148.1 -171.25 -145.7 -171.25 -145.1 -171.25 -144.1 -169.25 -142.4 -167.3 -138.5 -167.3 -136.3 -167.3 -134.65 -168.25 -133.0 -169.25 -130.75 -169.25 -129.65 -169.25 -127.15 -167.0 -123.05 -164.8 -114.0 -164.8 -110.55 -164.8 -109.2 -168.3 -108.3 -170.6 -108.5 -173.0 -108.6 -173.85 -107.75 -175.1 L-106.25 -177.5 Q-105.5 -179.25 -105.5 -181.95 L-105.3 -183.35 Q-105.25 -184.5 -105.95 -185.3 -108.0 -187.8 -116.75 -187.8 L-124.5 -187.1 Q-125.55 -187.15 -130.95 -190.75 -132.75 -191.95 -134.6 -193.8 -136.55 -195.8 -136.7 -196.75 -137.2 -199.6 -138.3 -202.9 -139.4 -206.3 -140.7 -208.75 M-148.65 -229.25 Q-146.0 -227.8 -142.45 -224.25 -139.5 -222.65 -137.85 -219.8 -137.15 -218.65 -135.7 -214.8 -131.4 -203.35 -124.95 -200.25 -122.0 -198.8 -113.75 -198.8 -108.05 -198.8 -105.75 -196.8 -103.05 -196.8 -101.75 -193.25 -101.1 -191.45 -101.0 -189.7 -101.0 -187.9 -102.25 -186.5 -103.5 -185.05 -103.5 -183.45 -103.5 -182.75 -102.5 -181.25 -101.5 -179.75 -101.5 -178.8 -101.5 -178.0 -102.35 -177.15 L-104.25 -174.8 -104.55 -173.2 -104.5 -171.5 Q-104.5 -168.0 -105.35 -166.3 L-106.2 -164.3 Q-106.2 -163.65 -105.6 -162.75 -105.0 -161.8 -105.0 -161.2 -105.0 -159.95 -105.7 -158.3 -106.2 -157.15 -106.15 -156.65 L-106.0 -155.75 Q-106.0 -153.65 -106.55 -152.9 -107.35 -151.8 -110.0 -151.8 -113.0 -151.8 -113.25 -153.05 -113.5 -154.05 -116.75 -153.5 L-120.7 -153.35 Q-123.1 -153.55 -124.75 -154.25 L-128.85 -154.1 Q-131.1 -153.15 -134.25 -154.5 L-135.95 -155.75 -137.2 -156.75 Q-140.75 -156.75 -142.1 -155.0 -143.4 -153.3 -145.25 -153.3 -147.55 -153.3 -148.5 -154.1 L-149.5 -155.5 Q-150.25 -156.3 -153.15 -156.4 L-156.5 -156.55 -158.75 -157.45 -162.0 -158.55 Q-163.9 -159.1 -168.4 -158.65 -172.0 -158.25 -174.5 -160.0 -175.15 -160.45 -175.4 -161.15 L-175.9 -162.2 Q-176.95 -163.2 -183.0 -163.55 -185.05 -163.7 -186.65 -165.25 -187.8 -166.35 -188.0 -167.05 -188.7 -168.75 -192.4 -170.45 -197.35 -172.45 -200.25 -174.0 -203.5 -175.75 -204.65 -177.7 -205.5 -179.2 -205.5 -181.8 -205.5 -185.3 -203.1 -186.2 -200.7 -187.05 -200.7 -188.05 -200.7 -188.65 -202.15 -190.5 L-204.0 -193.3 Q-204.5 -194.8 -204.5 -198.45 L-204.7 -203.45 Q-204.6 -204.55 -202.5 -209.8 -200.85 -213.9 -198.7 -216.7 -195.45 -220.9 -194.0 -216.55 L-193.6 -210.8 Q-193.35 -207.05 -192.5 -205.0 -191.8 -203.3 -191.1 -202.25 -190.05 -200.7 -188.25 -199.3 L-186.95 -197.9 Q-185.8 -196.8 -184.7 -196.55 L-183.2 -196.2 -180.25 -196.2 Q-174.4 -196.1 -172.75 -202.3 -172.3 -204.1 -172.35 -206.75 L-172.5 -211.3 Q-170.6 -218.9 -169.7 -220.65 -166.75 -226.4 -159.25 -229.5 -153.45 -231.9 -148.65 -229.25 M-224.95 -226.45 L-225.5 -229.7 Q-225.5 -232.0 -223.45 -233.8 -221.55 -235.5 -219.0 -235.75 -216.3 -236.05 -214.55 -234.4 -212.5 -232.5 -212.5 -228.55 -212.5 -225.85 -212.75 -225.3 -213.8 -222.8 -218.25 -222.8 -223.3 -222.8 -224.95 -226.45 M-229.5 -225.85 Q-227.25 -225.85 -225.7 -224.05 -224.0 -222.05 -224.0 -218.55 -224.0 -216.25 -224.45 -215.3 -225.6 -212.8 -229.5 -212.8 -233.2 -212.8 -234.5 -215.75 L-235.0 -218.55 Q-235.0 -221.95 -233.3 -224.0 -231.75 -225.8 -229.5 -225.85 M-177.5 -185.3 Q-179.5 -185.3 -179.5 -183.2 L-179.45 -182.2 Q-179.05 -180.8 -177.5 -180.8 -176.5 -180.8 -175.95 -181.75 -175.5 -182.45 -175.5 -183.2 -175.5 -185.3 -177.5 -185.3 M-182.0 -178.45 Q-182.0 -179.65 -184.75 -180.75 -187.5 -181.9 -187.5 -179.05 L-187.2 -177.75 Q-186.45 -176.3 -184.5 -176.3 -183.65 -176.3 -182.95 -176.75 -182.0 -177.3 -182.0 -178.45 M-185.4 -188.95 Q-186.0 -189.7 -187.0 -189.8 L-189.7 -190.3 -190.2 -191.5 Q-192.2 -193.35 -193.2 -192.6 -194.0 -192.05 -194.0 -190.45 L-193.45 -188.3 Q-192.15 -185.8 -188.5 -185.8 -186.75 -185.8 -185.95 -186.25 -185.0 -186.75 -185.0 -187.95 L-185.4 -188.95 M-201.4 -182.05 L-201.25 -182.05 -201.35 -182.25 -201.4 -182.05" fill="#ff6633" fill-opacity="0.7058824" fill-rule="evenodd" stroke="none"/>
    <path d="M-140.7 -208.75 Q-139.4 -206.3 -138.3 -202.9 -137.2 -199.6 -136.7 -196.75 -136.55 -195.8 -134.6 -193.8 -132.75 -191.95 -130.95 -190.75 -125.55 -187.15 -124.5 -187.1 L-116.75 -187.8 Q-108.0 -187.8 -105.95 -185.3 -105.25 -184.5 -105.3 -183.35 L-105.5 -181.95 Q-105.5 -179.25 -106.25 -177.5 L-107.75 -175.1 Q-108.6 -173.85 -108.5 -173.0 -108.3 -170.6 -109.2 -168.3 -110.55 -164.8 -114.0 -164.8 -123.05 -164.8 -127.15 -167.0 -129.65 -169.25 -130.75 -169.25 -133.0 -169.25 -134.65 -168.25 -136.3 -167.3 -138.5 -167.3 -142.4 -167.3 -144.1 -169.25 -145.1 -171.25 -145.7 -171.25 -148.1 -171.25 -150.25 -170.25 -152.4 -169.3 -156.5 -169.3 -162.45 -169.3 -165.0 -172.45 -166.5 -174.3 -166.5 -176.2 -166.5 -177.75 -165.0 -181.45 -163.3 -185.8 -161.75 -185.8 -160.9 -185.8 -158.65 -182.9 -156.35 -180.0 -154.95 -180.0 -145.75 -180.0 -142.0 -183.3 -140.0 -185.05 -140.0 -187.05 -140.0 -189.5 -143.0 -193.5 -147.25 -199.05 -153.9 -199.05 -160.25 -199.05 -160.5 -197.4 L-160.45 -196.3 Q-160.65 -195.8 -162.0 -195.8 -163.65 -195.8 -164.0 -197.95 L-164.0 -199.8 Q-164.0 -211.7 -156.55 -214.7 -149.0 -217.75 -140.7 -208.75 M-185.4 -188.95 L-185.0 -187.95 Q-185.0 -186.75 -185.95 -186.25 -186.75 -185.8 -188.5 -185.8 -192.15 -185.8 -193.45 -188.3 L-194.0 -190.45 Q-194.0 -192.05 -193.2 -192.6 -192.2 -193.35 -190.2 -191.5 L-189.7 -190.3 -187.0 -189.8 Q-186.0 -189.7 -185.4 -188.95 M-182.0 -178.45 Q-182.0 -177.3 -182.95 -176.75 -183.65 -176.3 -184.5 -176.3 -186.45 -176.3 -187.2 -177.75 L-187.5 -179.05 Q-187.5 -181.9 -184.75 -180.75 -182.0 -179.65 -182.0 -178.45 M-177.5 -185.3 Q-175.5 -185.3 -175.5 -183.2 -175.5 -182.45 -175.95 -181.75 -176.5 -180.8 -177.5 -180.8 -179.05 -180.8 -179.45 -182.2 L-179.5 -183.2 Q-179.5 -185.3 -177.5 -185.3" fill="#f1ca47" fill-opacity="0.7058824" fill-rule="evenodd" stroke="none"/>
    <path d="M-227.0 -249.8 Q-224.5 -249.85 -224.5 -247.3 -224.5 -246.55 -224.9 -245.8 -225.5 -244.8 -226.5 -244.8 -228.45 -244.8 -229.2 -246.25 L-229.5 -247.55 Q-229.5 -249.8 -227.0 -249.8 M-217.5 -215.95 Q-217.5 -217.65 -215.5 -217.75 -213.5 -217.8 -213.5 -215.95 -213.5 -215.15 -214.0 -214.55 -214.55 -213.8 -215.5 -213.8 -216.75 -213.8 -217.25 -214.8 L-217.5 -215.95 M-217.45 -202.25 L-217.5 -203.7 Q-217.5 -206.9 -215.25 -206.35 -213.0 -205.8 -213.0 -202.95 -213.0 -201.85 -213.95 -201.25 -214.6 -200.8 -215.25 -200.8 -217.05 -200.8 -217.45 -202.25" fill="#ff6633" fill-opacity="0.49803922" fill-rule="evenodd" stroke="none"/>
  </g>
</svg>
