<?xml version="1.0" encoding="UTF-8" standalone="no"?>
<svg xmlns:ffdec="https://www.free-decompiler.com/flash" xmlns:xlink="http://www.w3.org/1999/xlink" ffdec:objectType="shape" height="370.95px" width="642.95px" xmlns="http://www.w3.org/2000/svg">
  <g transform="matrix(1.0, 0.0, 0.0, 1.0, 324.45, 185.5)">
    <path d="M160.0 -108.0 Q158.65 -112.0 156.5 -114.45 M32.0 -96.0 Q32.0 -100.55 29.25 -103.25 L26.9 -105.95 Q25.35 -108.0 23.0 -108.0 M243.0 -133.0 L243.0 -131.0 243.0 -130.0 M318.0 45.0 Q314.65 39.7 312.65 33.1 L311.3 28.9 Q307.45 17.45 304.15 5.95 L301.35 -4.1 Q300.9 -5.85 299.45 -7.45 297.5 -10.5 297.3 -11.1 M223.0 122.0 Q221.45 119.55 221.75 115.0 L222.35 106.05 Q222.5 104.5 223.1 103.05 L230.0 86.0 M314.0 162.95 L315.0 162.95 M96.0 184.95 L81.0 184.95 M-323.95 -178.0 L-323.95 -176.0 -323.95 -175.0 M-221.95 -59.0 Q-223.95 -62.8 -224.85 -67.0 M-149.0 -185.0 Q-145.0 -185.0 -142.75 -183.4 -141.5 -182.5 -140.0 -182.0 M-130.0 4.0 L-127.85 16.95 Q-126.3 26.2 -127.0 36.0 M-86.0 142.0 Q-84.05 142.05 -82.8 142.6 L-80.0 143.0 M-291.95 29.0 Q-292.6 32.5 -291.15 35.1 M-300.95 170.95 Q-302.95 168.95 -303.35 165.0 -305.2 159.15 -305.55 155.9 -305.95 152.45 -305.95 148.95 M-218.95 142.0 L-228.8 149.15" fill="none" stroke="#333333" stroke-linecap="round" stroke-linejoin="round" stroke-opacity="0.6" stroke-width="1.0"/>
  </g>
</svg>
