<?xml version="1.0" encoding="UTF-8" standalone="no"?>
<svg xmlns:ffdec="https://www.free-decompiler.com/flash" xmlns:xlink="http://www.w3.org/1999/xlink" ffdec:objectType="shape" height="358.95px" width="641.95px" xmlns="http://www.w3.org/2000/svg">
  <g transform="matrix(1.0, 0.0, 0.0, 1.0, 311.45, 190.5)">
    <path d="M309.0 -120.0 Q307.3 -120.8 307.5 -124.05 307.0 -126.0 307.0 -127.0 M206.0 -166.0 L202.8 -154.05 Q201.05 -148.4 197.0 -145.0 M293.0 158.95 Q296.2 160.3 301.0 160.75 306.1 161.25 311.05 162.85 314.75 164.1 318.95 164.4 L323.9 165.3 330.0 165.95 M113.0 91.0 Q114.4 88.65 114.95 86.0 115.2 84.8 117.0 84.0 M-171.95 -190.0 L-171.95 -187.0 M-236.95 -63.0 Q-235.2 -59.6 -232.2 -56.75 M-6.0 -166.0 Q-8.2 -168.2 -10.35 -171.8 -12.75 -175.85 -13.55 -179.1 -14.05 -181.2 -14.7 -183.1 -15.5 -185.5 -16.0 -186.0 M-143.0 102.0 Q-145.2 105.4 -146.8 109.1 M-310.95 91.0 L-310.95 95.0 M-214.95 167.95 Q-216.9 167.9 -217.95 166.95 -219.95 163.95 -220.15 163.0 -220.75 160.1 -220.7 156.95 -220.6 154.2 -219.4 151.75 -218.35 149.6 -215.95 147.95" fill="none" stroke="#333333" stroke-linecap="round" stroke-linejoin="round" stroke-opacity="0.6" stroke-width="1.0"/>
  </g>
</svg>
