<?xml version="1.0" encoding="UTF-8" standalone="no"?>
<svg xmlns:ffdec="https://www.free-decompiler.com/flash" xmlns:xlink="http://www.w3.org/1999/xlink" ffdec:objectType="shape" height="97.5px" width="99.5px" xmlns="http://www.w3.org/2000/svg">
  <g transform="matrix(1.0, 0.0, 0.0, 1.0, -121.0, -114.0)">
    <path d="M198.5 135.5 Q194.5 131.6 189.95 129.1 181.35 124.3 170.75 124.3 154.55 124.3 143.0 135.5 131.55 146.8 131.55 162.75 131.55 178.7 143.0 189.95 146.15 192.95 149.6 195.25 159.0 201.2 170.75 201.2 187.0 201.2 198.5 189.95 210.0 178.7 210.0 162.75 210.0 146.8 198.5 135.5 M199.95 134.1 Q212.05 146.0 212.05 162.8 212.05 179.6 199.95 191.4 187.85 203.25 170.75 203.25 158.35 203.25 148.45 197.0 144.85 194.6 141.55 191.4 129.45 179.6 129.45 162.8 129.45 146.0 141.55 134.1 153.7 122.3 170.75 122.3 181.9 122.3 190.95 127.35 195.75 130.0 199.95 134.1 M194.15 121.8 Q183.7 115.95 170.75 115.95 151.0 115.95 137.0 129.6 123.0 143.35 123.0 162.75 123.0 182.15 137.0 195.8 140.75 199.55 145.05 202.25 156.35 209.55 170.75 209.55 190.55 209.55 204.5 195.8 218.55 182.15 218.55 162.75 218.55 143.35 204.5 129.6 199.65 124.85 194.15 121.8 M195.1 120.1 Q200.85 123.3 205.9 128.25 220.5 142.55 220.5 162.75 220.5 182.95 205.9 197.2 191.35 211.5 170.75 211.5 155.75 211.5 143.95 203.9 139.5 201.1 135.55 197.2 121.0 182.95 121.0 162.75 121.0 142.55 135.55 128.25 150.15 114.0 170.75 114.0 184.2 114.0 195.1 120.1" fill="#34270e" fill-rule="evenodd" stroke="none"/>
    <path d="M198.5 135.5 Q210.0 146.8 210.0 162.75 210.0 178.7 198.5 189.95 187.0 201.2 170.75 201.2 159.0 201.2 149.6 195.25 146.15 192.95 143.0 189.95 131.55 178.7 131.55 162.75 131.55 146.8 143.0 135.5 154.55 124.3 170.75 124.3 181.35 124.3 189.95 129.1 194.5 131.6 198.5 135.5" fill="#081628" fill-rule="evenodd" stroke="none"/>
    <path d="M199.95 134.1 Q195.75 130.0 190.95 127.35 181.9 122.3 170.75 122.3 153.7 122.3 141.55 134.1 129.45 146.0 129.45 162.8 129.45 179.6 141.55 191.4 144.85 194.6 148.45 197.0 158.35 203.25 170.75 203.25 187.85 203.25 199.95 191.4 212.05 179.6 212.05 162.8 212.05 146.0 199.95 134.1 M202.15 131.95 Q215.15 144.75 215.15 162.8 215.15 180.85 202.15 193.55 189.15 206.3 170.75 206.3 157.4 206.3 146.8 199.55 142.9 197.0 139.35 193.55 126.35 180.85 126.35 162.8 126.35 144.75 139.35 131.95 152.4 119.25 170.75 119.25 182.75 119.25 192.5 124.7 197.65 127.55 202.15 131.95" fill="#6a511b" fill-rule="evenodd" stroke="none"/>
    <path d="M202.15 131.95 Q197.65 127.55 192.5 124.7 182.75 119.25 170.75 119.25 152.4 119.25 139.35 131.95 126.35 144.75 126.35 162.8 126.35 180.85 139.35 193.55 142.9 197.0 146.8 199.55 157.4 206.3 170.75 206.3 189.15 206.3 202.15 193.55 215.15 180.85 215.15 162.8 215.15 144.75 202.15 131.95 M193.4 123.1 Q198.75 126.05 203.45 130.65 217.0 143.95 217.0 162.75 217.0 181.55 203.45 194.8 189.9 208.1 170.75 208.1 156.8 208.1 145.8 201.05 141.7 198.4 138.0 194.8 124.5 181.55 124.5 162.75 124.5 143.95 138.0 130.65 151.6 117.4 170.75 117.4 183.25 117.4 193.4 123.1" fill="#8e6c24" fill-rule="evenodd" stroke="none"/>
    <path d="M193.4 123.1 Q183.25 117.4 170.75 117.4 151.6 117.4 138.0 130.65 124.5 143.95 124.5 162.75 124.5 181.55 138.0 194.8 141.7 198.4 145.8 201.05 156.8 208.1 170.75 208.1 189.9 208.1 203.45 194.8 217.0 181.55 217.0 162.75 217.0 143.95 203.45 130.65 198.75 126.05 193.4 123.1 M194.15 121.8 Q199.65 124.85 204.5 129.6 218.55 143.35 218.55 162.75 218.55 182.15 204.5 195.8 190.55 209.55 170.75 209.55 156.35 209.55 145.05 202.25 140.75 199.55 137.0 195.8 123.0 182.15 123.0 162.75 123.0 143.35 137.0 129.6 151.0 115.95 170.75 115.95 183.7 115.95 194.15 121.8" fill="#cd9e3f" fill-rule="evenodd" stroke="none"/>
  </g>
</svg>
