<?xml version="1.0" encoding="UTF-8" standalone="no"?>
<svg xmlns:ffdec="https://www.free-decompiler.com/flash" xmlns:xlink="http://www.w3.org/1999/xlink" ffdec:objectType="shape" height="76.9px" width="76.65px" xmlns="http://www.w3.org/2000/svg">
  <g transform="matrix(1.0, 0.0, 0.0, 1.0, -132.15, -124.15)">
    <path d="M199.55 137.55 Q205.95 144.85 207.95 154.05 L208.55 157.6 208.7 159.55 208.8 162.5 208.8 163.55 208.8 163.75 Q208.35 178.8 197.55 189.6 L193.6 193.1 189.25 196.0 188.25 196.55 Q180.25 200.8 170.45 200.8 154.6 200.8 143.35 189.6 L141.6 187.75 Q132.15 177.05 132.15 162.5 132.15 146.6 143.35 135.4 154.6 124.15 170.45 124.15 184.05 124.15 194.25 132.45 L195.1 133.15 195.7 133.65 197.55 135.4 199.55 137.55" fill="#00ff00" fill-rule="evenodd" stroke="none"/>
    <path d="M193.7 199.55 L193.7 201.05 193.55 201.05 193.55 199.7 193.7 199.55" fill="#473a29" fill-rule="evenodd" stroke="none"/>
  </g>
</svg>
