<?xml version="1.0" encoding="UTF-8" standalone="no"?>
<svg xmlns:ffdec="https://www.free-decompiler.com/flash" xmlns:xlink="http://www.w3.org/1999/xlink" ffdec:objectType="shape" height="140.6px" width="90.65px" xmlns="http://www.w3.org/2000/svg">
  <g transform="matrix(1.0, 0.0, 0.0, 1.0, -44.65, 30.75)">
    <path d="M59.95 28.95 L55.15 31.05 55.1 31.05 55.0 31.05 53.7 31.15 Q51.05 31.15 48.8 30.05 46.6 29.05 46.6 28.1 L46.65 27.85 46.6 27.45 Q46.6 27.05 46.75 26.95 L46.9 26.85 Q50.4 27.1 52.0 25.3 53.2 24.05 53.2 22.5 L53.0 21.1 52.85 19.4 Q51.1 19.25 50.75 18.65 50.6 18.45 50.6 17.35 L51.05 14.0 Q49.7 14.4 49.3 13.25 L49.15 12.05 Q49.15 11.15 49.3 10.75 L50.05 8.65 Q49.0 8.75 48.75 7.6 L48.65 5.7 48.75 3.1 50.35 -0.65 Q47.55 -0.9 46.85 -1.35 46.35 -1.55 46.35 -2.5 46.35 -3.85 49.0 -6.85 51.75 -9.85 53.4 -10.15 L51.6 -10.95 Q50.6 -11.55 50.6 -12.65 50.6 -14.65 52.0 -16.05 53.7 -17.65 58.2 -19.2 L57.4 -19.75 57.35 -20.3 57.8 -21.35 Q58.4 -22.3 59.6 -22.95 63.15 -25.0 70.45 -24.55 69.55 -25.6 71.0 -27.6 72.4 -29.55 74.3 -29.55 L78.55 -28.65 84.0 -27.1 Q83.55 -29.3 85.0 -30.25 86.3 -31.05 88.65 -30.55 90.65 -30.1 94.25 -28.65 L98.9 -26.65 99.0 -29.15 Q99.25 -29.55 101.15 -29.55 105.45 -29.55 109.95 -26.85 113.15 -25.0 114.9 -22.85 L114.95 -22.95 115.0 -25.5 115.95 -25.6 Q117.3 -25.6 119.8 -24.35 L124.75 -20.9 Q130.75 -15.6 130.75 -10.55 L130.65 -7.35 129.35 -3.5 128.6 -2.45 128.5 -2.25 128.4 -2.15 128.4 -2.1 127.3 -0.95 127.25 -0.9 127.1 -0.5 127.05 -0.45 126.95 -0.3 126.8 0.0 125.9 0.9 Q123.55 2.9 119.05 2.9 L118.15 2.75 Q116.45 2.5 112.45 1.1 L111.3 0.8 111.15 0.7 111.2 0.85 111.25 0.9 110.2 0.9 110.2 1.1 Q109.15 1.55 107.95 3.9 L107.0 5.35 Q109.65 6.7 111.5 8.2 113.25 9.7 113.25 10.4 L113.25 10.85 113.05 10.95 112.85 11.0 113.0 11.05 Q115.2 12.2 117.4 14.05 119.45 15.8 120.75 17.6 122.0 19.4 122.05 20.5 L122.05 20.6 121.9 21.15 121.7 21.2 121.7 21.35 118.85 29.2 118.65 29.7 117.3 32.9 Q115.2 37.95 114.5 37.95 L114.45 37.95 114.65 39.85 Q114.65 42.1 113.25 43.7 L112.3 45.0 Q111.85 45.85 111.85 47.1 111.85 48.25 112.55 50.15 113.25 52.05 113.25 53.5 L113.25 55.45 113.7 55.3 113.8 55.25 113.85 55.2 114.1 55.2 116.3 55.15 Q117.4 55.3 118.15 56.1 118.95 56.9 119.4 58.05 L119.75 59.5 119.7 60.0 121.35 59.95 122.05 59.95 Q124.8 60.55 127.1 61.9 L130.95 64.4 Q134.15 66.3 135.0 70.5 L135.3 73.95 135.25 77.05 135.2 80.55 Q135.0 82.55 133.95 84.0 133.0 85.8 131.45 87.3 L130.4 88.25 130.95 88.3 131.05 92.35 130.8 96.3 Q130.35 98.9 130.25 101.2 129.85 105.65 128.5 107.35 126.85 109.55 122.55 109.55 L115.65 109.0 Q109.2 108.25 108.75 107.05 107.1 107.95 104.55 108.85 101.35 109.85 99.85 109.85 L98.0 109.6 96.35 109.25 92.45 108.85 88.7 108.4 84.7 107.45 83.6 107.2 83.6 107.45 83.35 107.9 82.35 108.45 82.1 108.75 Q81.8 108.95 81.65 109.05 81.2 109.3 81.35 109.55 L81.3 109.8 74.3 109.85 65.1 109.15 63.45 108.55 Q62.5 108.05 61.9 107.9 60.35 107.4 57.65 106.1 55.15 104.9 54.05 104.15 50.75 101.9 46.9 99.7 45.7 98.9 45.25 98.1 44.65 97.2 44.65 95.9 44.65 94.15 44.95 93.25 L45.45 91.8 Q46.4 90.0 46.6 86.1 46.75 84.35 47.4 81.2 L48.45 76.4 49.15 73.8 49.8 71.55 Q50.0 70.7 50.75 69.0 L51.6 66.7 52.4 61.55 Q52.65 59.55 53.0 58.15 L52.7 57.3 52.6 53.85 Q52.6 50.4 53.35 47.7 54.4 44.2 56.5 42.45 54.9 40.7 53.3 39.3 52.6 38.5 52.6 36.7 52.6 34.85 53.2 34.5 L54.15 34.3 54.45 34.25 55.4 34.25 55.5 34.25 57.5 34.0 58.2 33.65 58.9 33.2 59.65 32.85 62.05 30.65 64.1 28.45 Q64.55 27.4 66.85 23.7 L68.1 21.35 69.25 18.8 69.6 17.6 69.3 17.6 69.25 17.6 69.15 17.6 68.35 17.5 67.95 17.45 67.4 17.3 65.4 16.5 64.75 16.15 64.6 16.5 Q63.85 18.2 63.85 18.7 L63.75 20.6 63.75 20.7 63.75 20.95 63.6 23.15 Q63.35 24.35 62.6 25.6 L61.4 27.45 60.0 28.9 59.95 28.95 M128.05 -15.8 Q125.05 -20.65 116.15 -24.4 L116.15 -22.15 Q116.15 -20.8 115.55 -20.2 L113.6 -22.55 Q112.15 -24.3 111.0 -24.85 107.3 -26.8 106.3 -27.15 102.45 -28.75 100.0 -28.35 100.0 -27.15 101.15 -25.7 L102.25 -23.95 102.15 -23.45 102.05 -23.5 101.4 -23.35 99.75 -24.35 97.15 -26.2 93.35 -28.05 Q89.65 -29.5 85.75 -29.5 85.3 -29.5 85.15 -29.0 L85.05 -28.05 85.75 -26.95 86.45 -25.9 86.35 -25.4 86.25 -25.35 85.05 -25.35 80.15 -27.0 Q76.0 -28.25 74.4 -28.25 72.85 -28.25 72.0 -27.25 71.5 -26.5 71.5 -25.85 71.5 -25.05 73.05 -24.4 74.6 -23.8 74.6 -23.35 L74.45 -22.85 74.35 -22.8 73.2 -22.8 Q65.8 -24.3 61.6 -22.6 60.15 -22.1 59.35 -21.3 58.8 -20.7 58.8 -20.5 58.8 -19.9 60.35 -19.45 61.9 -18.95 61.9 -18.6 L61.8 -18.1 61.7 -18.0 Q55.8 -17.9 53.3 -15.8 51.75 -14.45 51.75 -12.55 51.75 -12.1 53.6 -11.55 55.8 -10.85 56.5 -9.9 54.3 -10.05 50.8 -7.0 L48.4 -4.5 Q47.45 -3.25 47.45 -2.65 L47.45 -2.3 47.5 -2.2 47.55 -2.35 49.95 -2.05 51.3 -2.0 52.3 -1.75 50.7 2.1 Q49.75 4.0 49.75 5.45 L49.8 7.25 50.75 6.6 51.9 5.95 Q52.35 5.95 52.5 6.2 L52.6 6.5 51.3 9.25 Q50.35 11.4 50.35 12.0 50.35 12.55 50.5 12.65 L53.2 13.1 52.45 14.9 Q51.75 16.5 51.75 17.15 51.75 17.55 52.0 17.6 L52.7 17.65 Q53.8 17.9 54.0 19.7 L54.15 21.3 54.3 22.65 Q54.3 24.35 53.5 25.55 52.55 27.05 50.15 27.9 L50.0 27.95 49.75 28.05 47.7 28.05 48.65 28.8 Q50.25 29.9 53.7 29.9 57.05 29.9 58.8 28.35 L59.85 27.2 60.65 26.25 Q61.7 25.45 62.15 24.05 L62.6 22.0 62.95 17.8 Q63.15 16.35 63.65 15.25 L63.6 15.05 Q63.6 14.6 63.75 14.5 L64.0 14.5 64.6 13.05 64.65 12.85 65.3 11.3 Q66.4 8.85 67.7 7.5 L68.05 7.0 69.8 4.65 71.9 2.55 73.7 0.55 74.5 -0.45 76.5 -1.5 78.3 -2.4 79.4 -3.25 Q83.8 -5.05 85.75 -5.45 L94.35 -5.7 Q97.2 -5.7 101.5 -4.6 L105.35 -3.25 Q106.0 -3.15 106.6 -2.65 107.1 -2.15 108.45 -1.55 L108.75 -1.5 108.9 -1.45 110.45 -0.95 110.85 -0.75 110.9 -0.75 112.75 0.0 113.4 0.25 Q116.05 1.3 118.0 1.55 L119.05 1.65 120.75 1.5 120.8 1.5 122.2 1.3 122.95 1.2 124.1 0.3 Q125.45 -0.65 126.8 -2.4 129.65 -6.15 129.65 -10.55 129.65 -13.3 128.05 -15.8 M103.2 -0.5 L103.95 -2.1 104.15 -2.65 104.0 -2.7 102.05 -3.45 Q98.45 -4.6 91.3 -4.6 85.9 -4.6 82.3 -3.3 L79.4 -1.7 76.8 -0.45 Q75.35 0.3 74.5 1.8 74.0 2.8 72.6 3.95 L70.65 5.55 Q70.1 6.1 68.8 8.35 L67.5 9.85 67.25 10.2 66.15 11.8 65.6 13.75 65.25 14.45 65.2 14.8 66.25 15.2 67.05 15.55 67.6 15.7 68.7 16.25 69.9 16.8 Q70.5 15.1 71.25 13.85 72.75 11.25 75.5 8.85 77.85 6.45 81.5 4.3 86.8 1.1 90.4 1.9 96.0 1.5 101.35 3.1 101.65 2.3 102.5 0.85 L103.2 -0.5 M73.75 25.0 L73.6 24.7 73.0 23.7 72.9 22.3 72.9 21.6 Q72.9 19.95 73.35 17.6 73.95 14.9 74.75 13.85 L75.1 13.35 75.9 12.35 76.15 12.1 76.8 11.5 77.2 11.2 79.35 10.3 79.5 10.3 80.05 10.35 Q81.0 10.55 81.65 11.4 82.25 12.2 82.25 13.15 83.15 12.3 84.6 11.55 84.7 11.5 88.65 9.55 L91.4 8.45 94.0 7.55 94.25 7.45 94.35 7.4 100.5 7.55 100.75 7.55 101.15 7.6 102.85 7.7 104.2 8.0 104.25 8.0 104.45 8.05 105.35 8.6 Q105.85 8.95 107.05 9.1 L107.7 9.2 108.75 9.45 109.3 9.55 110.75 10.1 111.45 10.3 111.55 10.35 111.65 10.4 111.8 10.45 Q111.45 9.55 110.6 8.95 L109.7 8.3 108.75 7.75 108.55 7.7 108.15 7.5 107.75 7.3 107.6 7.25 106.8 6.8 106.2 6.55 103.15 5.1 103.15 5.05 Q97.95 3.05 89.1 3.05 L89.0 3.05 Q87.15 3.05 84.65 4.05 81.8 5.25 79.15 7.15 72.5 12.0 70.4 19.0 69.7 21.2 68.6 23.45 L65.65 28.1 65.55 28.3 64.25 29.9 64.05 30.2 63.75 30.5 63.7 30.55 62.5 31.8 62.5 31.9 62.35 32.0 61.35 32.95 Q57.8 36.05 54.5 35.8 L53.7 35.7 53.7 37.55 55.7 39.9 56.75 41.0 57.2 39.65 57.4 39.3 Q57.9 38.35 59.05 37.95 61.0 36.5 63.6 36.05 L64.95 35.8 65.1 35.8 66.75 35.7 68.3 35.75 68.4 35.75 70.3 35.95 70.4 35.95 73.05 30.95 75.45 26.45 74.2 25.55 74.0 25.3 73.85 25.2 73.75 25.0 M79.25 11.4 L79.2 11.4 78.6 11.5 78.05 11.7 77.3 12.3 Q76.25 13.2 75.45 15.2 L75.1 15.9 74.05 20.7 74.05 20.8 74.05 21.3 74.05 21.9 74.05 22.3 74.05 22.75 74.05 22.95 74.2 23.75 74.3 23.75 74.3 24.0 74.85 24.6 75.15 24.85 76.55 25.0 77.3 24.9 77.9 24.5 78.1 24.4 78.8 23.55 78.8 23.5 78.95 23.55 79.0 23.5 79.0 23.55 Q83.1 23.65 89.0 24.95 94.65 26.2 100.4 28.2 106.2 30.2 109.7 32.15 113.1 34.0 113.5 35.35 L113.55 35.35 113.95 36.2 114.95 35.35 115.5 34.45 115.8 33.8 116.95 30.9 117.0 30.85 118.75 27.4 119.3 25.85 119.9 24.4 120.55 23.0 121.1 21.55 120.95 20.95 121.0 20.85 121.1 20.75 121.1 20.7 120.65 20.05 120.25 19.3 120.05 19.1 119.25 17.8 119.2 17.75 117.95 16.1 116.05 14.35 114.95 13.65 114.55 13.4 110.0 11.2 109.95 11.15 109.05 10.8 Q106.75 9.95 104.4 9.45 L97.75 8.65 Q93.7 8.65 90.1 10.1 89.05 10.45 88.05 11.0 87.9 11.05 87.8 11.15 L87.0 11.6 84.0 13.6 Q82.6 14.5 82.1 14.5 L81.85 14.5 81.7 14.6 81.5 14.5 81.5 14.45 81.55 13.95 Q81.55 12.3 80.4 11.4 79.9 11.1 79.6 11.1 79.35 11.15 79.25 11.4 M108.15 0.8 L108.85 0.3 Q107.95 -0.15 106.9 -0.95 L105.45 -1.9 104.9 -1.7 104.8 -1.55 Q104.8 -0.3 103.65 2.0 L102.7 3.55 105.75 4.75 107.3 2.35 Q107.75 1.3 108.15 0.8 M117.7 60.05 L117.85 60.05 118.6 60.0 Q118.55 59.3 117.8 58.05 116.85 56.4 115.8 56.4 L114.3 56.75 112.7 57.1 112.4 57.1 112.15 57.5 112.05 57.65 111.5 58.45 109.7 60.95 109.85 61.15 Q110.3 60.8 110.5 60.75 L115.4 60.15 117.7 60.05 M122.15 61.5 L121.9 61.45 121.0 61.3 120.95 61.3 119.05 61.2 Q112.35 61.2 108.2 63.1 L106.0 64.4 105.9 64.45 104.85 64.9 105.0 65.05 105.6 65.35 105.8 65.45 106.6 66.0 109.05 68.0 111.45 70.25 Q113.05 72.15 114.15 75.0 L115.55 78.95 Q116.1 79.25 116.55 80.45 L117.85 83.95 Q119.95 89.1 124.55 89.1 L124.65 89.1 124.75 89.1 125.3 89.1 Q128.15 88.85 130.5 86.55 131.85 85.25 132.9 83.55 133.95 82.35 134.1 80.3 L134.15 76.85 134.1 72.5 Q133.95 70.0 133.05 68.1 131.8 65.7 127.8 63.5 125.45 62.3 123.15 61.7 L122.15 61.5 M116.7 84.8 L116.7 88.75 115.2 93.6 Q115.55 94.3 115.55 95.35 115.55 97.5 115.25 98.35 114.75 99.9 113.15 99.95 L112.65 101.2 112.7 101.2 111.85 103.9 110.45 105.9 112.05 106.2 114.15 106.85 Q117.3 107.75 122.6 107.75 L125.75 107.35 Q126.9 107.0 127.55 105.95 128.6 104.2 128.8 97.75 L128.95 95.15 129.05 92.5 Q128.8 90.7 128.85 89.75 L129.0 89.2 129.1 89.1 128.95 89.2 Q126.9 90.35 124.55 90.35 121.1 90.35 119.0 88.05 L117.8 86.35 117.2 85.35 116.75 84.8 116.7 84.65 116.7 84.8 M96.2 31.15 L96.4 31.15 97.4 30.25 97.65 30.05 97.6 30.0 96.6 29.0 95.35 28.3 94.55 27.65 93.1 27.3 92.1 27.05 92.0 27.2 92.1 27.5 92.15 28.45 92.15 28.5 92.25 29.3 Q92.5 30.2 93.1 30.85 L94.95 31.25 95.4 31.25 96.2 31.15 M107.2 46.35 L107.9 44.7 108.0 44.5 106.2 42.25 Q104.8 40.6 103.8 39.95 L102.1 38.85 99.7 38.15 Q93.95 37.0 92.5 36.45 L92.1 38.05 Q92.1 38.55 92.4 39.15 L92.7 39.7 94.2 41.2 94.5 41.55 94.7 41.8 95.4 42.85 95.4 42.9 96.2 45.15 96.2 45.2 96.35 46.7 96.35 49.25 96.05 50.85 95.2 52.55 96.95 53.15 97.65 53.5 99.65 53.95 99.7 53.95 Q103.25 53.3 104.35 52.4 L105.1 51.35 105.45 50.5 105.65 50.05 106.1 49.05 106.75 47.5 107.15 46.45 107.2 46.35 M110.1 36.15 L110.4 36.05 110.65 35.8 110.75 35.7 111.15 35.3 111.3 35.2 111.3 35.1 111.05 34.85 109.7 33.8 109.65 33.8 108.65 33.6 107.55 33.45 106.7 33.4 106.7 33.95 106.7 34.1 106.7 34.2 Q106.9 36.35 108.5 36.35 L110.1 36.15 M104.45 63.6 L105.2 62.95 Q105.8 62.6 106.7 62.35 L110.1 58.05 Q112.15 55.35 112.15 53.65 112.15 52.55 111.45 50.7 110.7 48.8 110.7 47.05 110.7 44.7 112.15 43.0 L113.1 41.75 Q113.55 40.95 113.55 39.85 L112.85 37.3 112.8 37.25 112.7 37.25 112.2 39.0 111.6 40.4 108.85 45.35 Q108.4 46.2 107.7 48.35 L106.4 51.55 Q104.8 54.6 101.15 55.1 L102.95 58.45 Q104.0 60.95 104.2 62.75 L104.25 63.4 104.25 63.55 104.25 63.8 104.45 63.6 M80.05 25.95 L78.5 30.35 76.25 36.1 77.0 37.25 77.05 37.35 79.7 40.4 80.65 41.95 81.8 43.7 83.75 46.55 Q85.35 48.8 87.7 51.15 L88.35 51.9 88.55 52.1 88.85 52.45 89.85 53.45 91.65 55.2 92.45 56.0 92.5 56.05 92.55 55.95 Q93.2 53.8 94.45 51.0 95.2 49.25 95.2 46.6 L95.1 44.65 Q94.8 43.6 93.5 42.5 L92.1 40.35 91.0 38.3 90.95 38.05 90.95 37.95 Q90.95 37.3 91.4 36.3 91.8 35.25 91.8 34.0 91.8 32.7 91.0 31.75 L89.25 30.35 Q88.05 29.45 87.55 28.6 86.85 27.45 86.75 25.95 L85.9 25.8 85.8 25.75 85.4 25.7 85.35 25.65 80.45 24.9 80.05 25.95 M79.8 43.35 L79.75 43.25 78.85 41.95 78.8 41.9 78.7 41.7 78.6 41.65 78.55 41.6 76.05 37.95 76.0 37.95 75.05 37.75 74.9 37.75 74.85 37.75 74.5 37.7 74.4 37.7 71.9 37.5 71.5 37.4 67.7 37.2 63.85 37.4 Q60.35 37.95 58.85 39.5 L58.25 40.3 Q57.95 40.95 57.9 41.65 62.4 40.15 64.65 39.8 68.65 39.15 73.5 40.4 L74.5 40.8 76.6 41.75 78.2 42.65 78.35 42.7 78.5 42.7 78.55 42.75 79.5 43.25 79.8 43.5 79.8 43.45 80.0 43.6 79.8 43.35 M73.4 43.5 Q74.65 43.5 74.85 44.35 76.75 44.4 78.05 44.95 L79.6 45.9 81.05 46.7 82.2 47.2 81.9 46.9 80.6 45.6 79.6 44.8 Q79.2 44.45 78.1 43.95 76.75 43.35 76.55 43.15 L75.0 42.2 73.4 41.7 71.1 41.6 64.4 41.45 62.0 41.35 Q61.55 41.35 60.0 41.9 57.9 42.65 56.95 43.6 L55.8 45.35 54.8 47.05 Q53.9 48.45 53.75 50.5 L53.7 53.9 Q53.7 55.85 54.5 58.25 L55.0 59.45 55.1 59.8 56.6 54.9 Q57.25 52.8 58.2 51.25 59.7 49.0 61.6 48.05 L64.0 46.35 Q65.25 45.35 66.6 45.1 L66.8 45.1 Q70.7 43.65 72.6 43.5 L73.4 43.5 M80.5 50.9 L78.8 50.65 78.6 50.6 77.4 50.35 71.65 49.85 Q71.35 49.85 68.25 51.25 L66.3 52.2 Q64.5 53.25 63.85 53.9 L62.9 54.9 61.35 56.7 Q60.05 58.35 59.5 59.7 L58.3 62.65 57.2 65.65 56.95 66.3 56.85 66.45 56.5 67.15 55.95 68.65 55.65 70.2 55.4 70.8 55.5 72.7 Q55.85 74.75 57.2 75.5 L57.35 75.3 57.35 75.2 57.5 74.55 57.55 74.45 58.35 69.8 58.4 69.55 59.65 63.45 Q59.85 62.4 61.25 60.4 L63.5 57.5 64.65 56.05 64.75 55.85 65.0 55.65 65.8 55.15 65.9 55.1 65.95 55.05 66.1 54.95 Q68.65 53.6 72.75 53.5 L78.95 53.55 79.15 53.55 79.7 53.55 81.85 53.6 84.85 54.35 84.9 54.4 84.95 54.4 85.15 54.45 85.2 54.45 89.5 56.45 90.75 57.2 87.0 53.35 86.65 53.05 Q85.45 52.0 84.9 51.8 L82.8 51.3 80.5 50.9 M75.5 45.85 L73.85 45.55 73.65 45.5 72.85 45.35 72.7 45.35 72.35 45.25 71.2 45.25 71.1 45.3 69.25 45.55 Q67.2 46.05 65.2 47.2 63.6 48.1 61.25 49.85 59.45 50.85 58.6 52.9 L57.35 56.25 Q56.55 57.9 55.95 62.6 L55.6 65.45 56.85 62.8 57.6 60.75 58.3 59.0 59.65 57.05 61.05 55.2 Q62.55 52.95 65.4 51.5 L70.55 49.05 70.6 49.05 70.65 49.05 73.5 48.8 73.6 48.8 73.7 48.8 73.85 48.8 74.2 48.8 76.8 49.05 76.85 49.05 77.7 49.15 80.1 49.55 81.2 49.7 83.4 50.0 80.5 48.0 79.35 47.2 77.15 46.3 75.5 45.85 M90.1 61.95 L89.85 61.8 89.65 61.65 87.2 59.8 84.85 57.75 82.8 55.7 82.8 55.45 82.8 55.35 82.8 55.3 80.7 55.05 Q81.3 56.45 81.65 58.55 82.15 60.75 82.25 63.0 L82.7 64.3 83.05 65.35 83.6 67.1 84.65 70.85 84.7 71.25 84.7 71.85 Q84.7 72.65 84.2 73.15 83.65 73.7 81.9 74.55 L78.3 76.0 75.0 76.8 Q74.55 76.8 74.4 76.55 L74.35 76.45 74.3 76.55 74.0 76.35 73.7 76.25 72.95 68.45 72.8 67.3 72.7 66.55 72.65 66.25 72.6 66.1 72.6 65.95 71.9 60.75 71.5 55.4 71.55 54.9 70.85 55.05 70.9 55.45 70.9 55.75 71.15 57.55 71.2 60.15 70.9 65.05 70.65 72.3 70.5 79.55 70.5 79.7 70.15 83.25 70.4 83.55 70.3 84.1 70.1 84.2 69.85 84.2 69.5 84.45 69.05 84.35 69.05 84.3 68.8 84.3 69.7 85.9 69.85 86.2 71.2 89.05 Q72.2 90.8 73.15 93.55 73.85 93.0 74.9 92.35 L77.3 90.8 Q80.1 88.85 81.05 86.9 L83.15 82.5 85.05 78.2 Q85.95 76.2 87.4 73.7 L89.9 69.6 91.6 67.65 93.0 66.4 93.65 65.75 94.1 65.15 94.15 65.15 95.2 63.8 95.35 63.55 95.55 63.3 95.0 63.35 93.25 63.35 92.55 63.5 92.1 63.55 92.1 63.75 92.0 63.75 92.0 63.55 91.3 63.6 90.9 63.6 89.8 63.6 89.2 63.55 89.0 63.0 Q89.55 62.5 90.2 62.2 L90.4 62.15 90.15 62.0 90.1 61.95 M93.75 61.3 L93.5 61.05 90.65 58.95 90.6 58.95 90.55 58.9 90.45 58.9 90.45 58.85 86.7 56.55 86.6 56.55 84.95 55.85 85.65 56.45 87.85 58.55 90.05 60.3 91.4 61.0 91.55 61.15 93.8 61.8 94.1 61.9 93.8 61.3 93.75 61.3 M80.1 57.75 L80.05 57.55 79.95 56.45 79.95 56.4 79.95 55.95 80.05 55.15 80.15 54.9 75.55 54.65 72.25 54.85 72.85 56.95 73.15 59.05 73.2 59.3 73.2 59.35 73.2 59.5 73.4 61.75 73.65 64.4 73.7 64.55 73.75 64.75 74.1 67.35 74.15 67.55 74.15 67.75 74.2 67.95 74.4 67.75 74.85 67.55 75.05 67.45 Q75.65 67.15 77.15 66.7 L81.7 65.85 82.2 65.85 81.8 64.6 Q81.1 62.5 80.75 60.75 L80.4 59.35 80.1 57.75 M99.25 59.1 L98.95 58.45 98.9 58.45 98.9 58.4 98.9 58.35 97.85 57.15 97.65 57.0 95.8 55.4 94.3 54.25 92.95 56.85 92.8 57.05 92.7 57.0 92.6 57.0 92.65 57.05 93.7 58.25 93.8 58.3 94.35 59.0 95.2 60.7 95.2 61.0 95.2 61.2 95.55 61.5 96.0 62.15 96.05 62.15 96.35 62.2 96.6 62.6 96.85 62.6 96.9 62.85 96.9 63.35 96.9 63.45 97.05 63.45 97.1 63.45 99.45 63.6 99.5 63.6 99.5 63.45 99.5 63.35 99.5 63.3 99.6 62.3 99.6 62.15 99.65 61.15 99.65 60.95 99.65 60.75 99.6 60.75 99.25 59.1 M99.0 54.8 L97.55 54.8 98.4 55.55 Q99.7 56.85 100.8 59.15 L100.8 59.7 101.05 59.45 101.8 58.95 100.9 57.15 100.0 55.2 100.0 55.15 99.85 55.15 Q99.25 55.15 99.0 54.8 M102.25 60.15 Q101.7 61.05 100.8 61.05 L100.8 63.8 103.15 64.3 102.25 60.15 M54.7 103.2 L57.5 104.6 Q59.6 105.9 60.95 106.45 62.05 107.0 63.4 107.35 L63.1 104.9 62.95 101.0 62.6 99.1 62.2 97.2 62.15 96.25 62.2 95.3 Q62.2 94.15 61.9 93.65 L61.6 93.2 58.2 93.2 Q57.8 92.6 57.7 91.65 L57.65 90.1 57.95 81.8 57.95 77.5 58.0 76.65 57.2 76.8 Q56.2 76.8 55.55 76.15 54.6 75.3 54.35 73.3 54.2 72.15 54.2 70.7 L54.3 69.15 54.3 68.5 54.5 62.8 54.75 61.2 53.9 59.85 52.8 65.7 52.75 65.75 52.75 65.8 52.05 68.25 50.6 73.05 49.5 77.05 48.35 81.75 Q47.75 84.6 47.75 86.35 47.75 90.1 46.8 91.8 L46.1 93.25 Q45.85 94.1 45.85 95.65 L46.05 97.5 Q46.45 98.35 48.2 99.25 L50.15 100.5 50.45 100.7 50.55 100.75 51.2 101.2 51.4 101.35 52.7 102.2 54.1 102.9 54.5 103.1 54.7 103.2 M68.3 75.15 L69.3 74.9 69.5 69.4 69.75 65.8 70.05 62.2 70.0 58.6 Q70.0 57.2 70.3 56.25 L70.0 56.1 69.8 55.95 69.9 55.2 68.85 55.35 68.65 55.4 Q66.4 55.95 66.0 56.35 L65.1 57.4 64.15 58.75 63.3 59.6 Q63.85 59.6 64.1 60.0 L64.15 61.05 64.15 61.15 64.05 62.0 64.05 62.15 63.85 63.55 63.75 64.2 63.6 66.0 63.6 66.9 63.65 70.05 63.6 73.05 63.3 76.0 63.1 77.8 Q64.25 76.8 65.9 76.05 66.8 75.55 67.8 75.3 L68.3 75.15 M62.5 65.05 L62.7 63.75 63.0 61.7 62.7 60.95 62.5 60.6 Q61.15 62.45 60.65 64.45 L59.2 70.0 Q58.8 71.85 58.7 73.45 L58.7 73.7 58.8 73.45 59.25 73.9 Q59.6 74.5 59.55 75.55 L59.45 76.55 59.35 77.3 59.05 83.6 59.0 84.7 60.55 84.7 61.05 84.7 61.15 84.7 61.45 84.7 61.55 84.55 61.6 84.55 61.6 80.7 62.5 71.2 62.5 68.9 62.5 66.55 62.5 66.45 62.5 65.4 62.5 65.05 M75.5 68.7 L74.3 69.25 74.35 69.85 74.4 70.2 74.45 70.6 74.5 70.85 74.5 71.1 74.5 71.25 74.85 74.0 74.85 74.1 74.85 74.25 74.85 74.4 74.85 75.1 74.85 75.15 74.75 75.65 74.65 75.95 Q75.9 75.25 79.75 74.1 83.6 72.9 83.6 71.85 L83.6 71.8 83.55 71.35 83.3 70.0 83.2 69.7 82.5 67.1 82.45 67.0 82.45 66.95 80.55 67.0 77.35 67.9 75.5 68.7 M67.8 76.6 L65.75 77.8 64.2 78.7 63.0 79.3 62.95 82.0 62.5 84.3 63.8 83.9 63.85 83.85 63.85 83.9 64.1 83.85 66.0 83.45 67.85 83.05 68.95 82.95 69.2 78.0 69.3 75.8 67.8 76.6 M66.5 91.15 L66.15 91.75 65.8 91.65 65.6 91.6 65.55 90.5 65.8 88.85 66.15 86.65 66.2 84.8 65.6 84.95 64.4 85.25 64.4 85.75 64.35 87.35 64.15 89.4 64.1 91.45 63.55 92.85 63.45 93.15 63.35 93.2 63.2 93.2 63.4 94.05 63.25 95.2 Q63.15 95.85 63.3 96.1 L63.55 98.1 63.85 100.1 64.5 104.2 64.7 107.7 66.85 108.15 67.0 108.3 67.3 108.2 67.7 108.25 72.0 108.65 74.1 108.65 74.25 108.65 74.45 109.0 74.85 108.65 Q81.0 108.6 82.25 107.7 L82.55 107.0 82.6 106.9 Q81.45 106.3 80.7 104.75 L79.7 102.3 Q79.0 101.0 78.0 96.9 77.15 93.25 77.15 92.5 74.55 94.4 73.4 94.6 L72.9 94.85 Q71.75 94.65 71.45 93.95 L71.2 92.65 70.65 91.2 70.5 90.85 Q70.2 90.95 69.8 91.2 L66.6 91.2 66.55 91.1 66.5 91.15 M59.65 85.9 L58.95 85.9 58.8 89.9 58.8 91.9 59.7 91.9 60.05 91.9 61.55 91.95 62.7 92.1 62.7 90.15 63.15 86.95 63.35 85.9 61.9 85.9 59.65 85.9 M67.6 86.1 L67.25 88.0 67.0 89.85 67.0 90.1 70.0 89.8 68.6 86.9 Q67.9 85.55 67.8 84.5 L67.6 86.1 M111.9 79.8 L112.65 79.35 113.05 79.2 114.15 78.55 112.55 74.5 Q111.65 72.5 110.45 70.85 L108.4 68.8 106.3 67.2 106.15 67.1 Q103.7 65.45 99.8 64.6 L97.55 64.25 97.0 64.1 96.95 64.1 96.8 64.0 96.7 63.95 93.8 67.55 92.1 69.4 91.9 69.6 91.85 69.6 90.4 71.2 88.15 75.25 85.9 79.45 84.0 83.6 83.45 84.75 85.9 86.65 86.65 87.25 87.7 87.9 89.1 88.4 89.35 88.4 89.5 88.45 89.8 88.5 90.2 88.5 90.4 88.5 90.55 88.5 Q95.2 88.5 98.25 87.45 99.8 86.95 100.75 86.25 L105.35 83.55 109.0 81.5 Q109.35 81.25 109.65 81.1 L109.95 80.95 110.7 80.5 111.65 79.95 111.9 79.8 M106.8 84.2 L105.85 84.7 105.65 84.8 105.65 85.6 105.35 86.85 105.35 86.9 105.15 87.95 107.95 88.2 107.95 88.15 109.1 88.2 109.8 88.2 Q113.2 88.75 114.05 86.3 L114.45 85.35 114.75 84.95 114.85 84.4 115.05 83.4 Q115.3 82.45 115.8 81.95 L115.45 81.1 115.25 80.85 115.3 80.85 115.3 80.8 115.2 80.6 115.25 80.8 Q115.0 80.5 114.75 80.45 L114.65 80.45 114.65 80.5 114.3 81.95 113.85 83.55 113.8 83.6 113.7 83.9 113.35 85.15 113.35 85.25 113.25 85.8 113.05 86.1 112.75 86.5 111.5 86.65 109.0 86.75 108.0 86.65 Q106.95 86.6 106.8 86.25 L106.7 85.8 106.75 85.7 106.8 85.1 106.85 84.2 106.8 84.2 M112.7 83.4 L112.8 82.95 112.8 82.85 112.85 82.65 112.85 82.55 112.95 82.4 112.95 82.35 Q113.05 81.25 113.25 80.95 L113.3 80.85 113.2 80.9 110.4 82.35 Q108.9 83.0 107.9 83.55 L107.9 85.0 107.9 85.45 110.65 85.45 110.75 85.4 111.2 85.45 Q112.0 85.45 112.4 84.8 L112.55 84.1 112.5 83.85 112.7 83.4 M95.2 95.0 L95.2 94.95 Q95.15 93.9 94.35 92.65 L94.3 92.55 94.25 92.5 94.2 92.4 93.6 91.1 93.5 90.9 93.4 90.85 92.1 90.95 91.65 91.3 90.75 92.2 Q92.4 92.0 92.75 92.9 92.95 93.25 92.95 94.3 L92.65 96.0 Q91.9 97.4 89.45 97.4 88.1 97.4 86.8 95.75 L85.45 93.8 Q84.2 92.5 81.65 91.2 L81.5 91.1 79.95 90.4 79.8 90.3 79.75 90.3 78.05 91.75 78.5 92.15 78.55 93.45 79.1 95.85 79.15 96.45 79.35 96.45 80.2 96.5 80.35 96.5 81.05 96.5 81.35 96.55 83.45 97.2 84.45 97.9 85.6 98.65 Q86.4 99.0 87.2 100.25 88.15 101.15 90.45 101.45 L90.75 101.45 91.2 101.45 92.1 100.4 93.5 98.65 94.55 97.05 94.85 96.5 95.2 95.25 95.2 95.0 M104.15 85.8 Q100.4 88.15 98.9 88.7 L94.2 89.7 Q94.6 89.85 94.6 90.55 L94.6 90.75 95.35 91.85 95.75 92.65 96.0 93.5 96.0 93.55 96.35 95.05 96.35 95.3 Q96.35 96.2 96.05 96.6 L95.2 98.2 95.0 98.7 93.5 100.6 Q92.15 102.2 91.8 102.2 L91.6 102.2 91.55 102.25 90.95 102.75 Q88.0 102.5 86.8 101.6 L85.95 100.75 85.0 99.8 81.9 98.05 80.7 97.55 80.65 97.55 Q79.75 97.2 79.25 97.1 79.65 99.35 80.3 100.7 L81.35 103.1 82.7 105.3 Q83.65 106.3 84.7 106.5 L85.3 106.6 86.65 106.85 86.75 106.85 86.85 106.85 88.15 107.0 94.65 107.95 101.55 108.65 Q108.05 106.1 109.35 105.3 109.85 105.05 110.5 103.35 110.7 102.7 111.0 102.2 L111.0 102.1 111.7 99.75 110.75 99.1 110.2 98.4 109.4 97.85 108.15 99.9 Q106.85 101.65 104.95 101.65 101.3 101.65 99.5 99.75 L99.35 99.6 98.7 98.35 98.45 97.75 97.55 94.65 97.15 93.2 97.15 93.0 Q97.15 92.5 97.85 91.6 L98.15 91.2 Q99.15 89.95 100.4 89.35 L102.75 89.25 102.85 89.3 Q104.1 90.2 104.5 93.0 L103.8 93.2 103.2 93.05 102.55 92.95 102.55 93.55 Q102.55 94.15 102.85 94.7 103.3 95.65 104.25 95.65 L105.0 95.05 105.8 93.55 Q107.05 91.5 108.5 91.5 111.8 91.5 113.55 92.25 L113.85 92.4 114.1 92.55 114.15 92.55 114.2 92.45 114.3 91.85 114.5 91.2 114.95 89.5 114.95 87.3 113.95 88.75 113.8 88.85 113.65 88.95 113.6 89.0 113.6 89.05 113.5 89.05 Q113.05 89.25 112.65 89.5 L112.35 89.55 111.85 89.6 109.75 89.35 109.8 89.5 108.3 89.55 104.2 89.1 103.9 88.7 103.95 88.5 103.95 88.25 104.05 86.95 104.25 85.95 104.25 85.7 104.15 85.8 M80.8 89.55 Q82.7 90.0 83.8 90.7 L85.6 92.15 86.45 93.3 87.1 94.2 87.15 94.4 Q88.4 96.15 89.45 96.15 90.45 96.15 91.2 95.55 91.8 95.05 91.8 94.35 L91.8 93.8 91.7 93.6 91.15 93.75 90.3 93.75 89.6 93.65 88.4 93.2 88.7 92.7 89.75 91.5 91.85 90.05 92.5 89.75 90.55 89.8 Q88.25 89.8 85.3 87.8 L83.45 86.2 83.0 85.65 82.0 87.8 80.7 89.4 80.6 89.55 80.8 89.55 M114.0 98.0 L114.3 96.55 114.35 95.5 Q114.35 94.65 113.7 94.1 L113.65 94.1 113.65 94.05 113.4 93.8 Q111.85 92.7 108.15 92.7 107.7 92.7 107.3 93.4 L106.6 94.95 Q105.55 97.15 104.25 97.15 102.75 97.15 101.95 95.5 101.4 94.35 101.4 93.2 L101.5 92.2 101.55 92.15 101.95 91.85 102.0 91.8 102.05 91.8 102.15 91.8 102.75 91.65 102.85 91.65 103.05 91.7 103.15 91.7 103.05 91.6 102.85 91.6 102.75 91.55 102.55 91.3 102.45 91.15 101.9 90.5 101.8 90.4 Q101.15 89.8 100.1 90.75 L99.2 91.8 Q98.25 92.85 98.25 93.2 L98.25 93.35 98.75 93.4 98.9 93.25 99.1 93.05 99.25 93.55 99.35 94.65 99.55 95.85 Q100.7 98.25 101.65 99.0 102.75 99.95 105.2 99.95 105.75 99.95 107.15 97.85 108.6 95.75 109.4 95.75 110.5 95.75 112.35 97.1 L113.9 98.35 114.0 98.0" fill="#000000" fill-rule="evenodd" stroke="none"/>
    <path d="M47.45 -2.3 L47.45 -2.65 Q47.45 -3.25 48.4 -4.5 L50.8 -7.0 Q54.3 -10.05 56.5 -9.9 55.8 -10.85 53.6 -11.55 51.75 -12.1 51.75 -12.55 51.75 -14.45 53.3 -15.8 55.8 -17.9 61.7 -18.0 L61.8 -18.1 61.9 -18.6 Q61.9 -18.95 60.35 -19.45 58.8 -19.9 58.8 -20.5 58.8 -20.7 59.35 -21.3 60.15 -22.1 61.6 -22.6 65.8 -24.3 73.2 -22.8 L74.35 -22.8 74.45 -22.85 74.6 -23.35 Q74.6 -23.8 73.05 -24.4 71.5 -25.05 71.5 -25.85 71.5 -26.5 72.0 -27.25 72.85 -28.25 74.4 -28.25 76.0 -28.25 80.15 -27.0 L85.05 -25.35 86.25 -25.35 86.35 -25.4 86.45 -25.9 85.75 -26.95 85.05 -28.05 85.15 -29.0 Q85.3 -29.5 85.75 -29.5 89.65 -29.5 93.35 -28.05 L97.15 -26.2 99.75 -24.35 101.4 -23.35 102.05 -23.5 102.15 -23.45 102.25 -23.95 101.15 -25.7 Q100.0 -27.15 100.0 -28.35 102.45 -28.75 106.3 -27.15 107.3 -26.8 111.0 -24.85 112.15 -24.3 113.6 -22.55 L115.55 -20.2 Q116.15 -20.8 116.15 -22.15 L116.15 -24.4 Q125.05 -20.65 128.05 -15.8 L128.05 -15.7 128.5 -13.5 Q128.5 -9.6 126.95 -6.95 125.6 -4.5 123.1 -2.65 120.85 -0.85 119.45 -0.85 L116.45 -1.55 111.8 -2.2 Q109.35 -2.2 108.75 -1.55 L108.75 -1.5 108.45 -1.55 Q107.1 -2.15 106.6 -2.65 106.0 -3.15 105.35 -3.25 L101.5 -4.6 Q97.2 -5.7 94.35 -5.7 L85.75 -5.45 Q83.8 -5.05 79.4 -3.25 L78.3 -2.4 76.5 -1.5 74.5 -0.45 73.7 0.55 71.9 2.55 69.8 4.65 68.05 7.0 67.7 7.5 Q66.4 8.85 65.3 11.3 L64.65 12.85 64.6 12.9 64.2 12.35 Q64.0 12.35 63.2 14.05 L62.05 16.55 Q61.15 18.35 60.8 20.7 L60.35 22.75 Q59.95 23.85 58.95 24.8 L57.25 26.85 Q55.6 28.4 53.85 28.4 L50.4 27.95 50.15 27.9 Q52.55 27.05 53.5 25.55 54.3 24.35 54.3 22.65 L54.15 21.3 54.0 19.7 Q53.8 17.9 52.7 17.65 L52.0 17.6 Q51.75 17.55 51.75 17.15 51.75 16.5 52.45 14.9 L53.2 13.1 50.5 12.65 Q50.35 12.55 50.35 12.0 50.35 11.4 51.3 9.25 L52.6 6.5 52.5 6.2 Q52.35 5.95 51.9 5.95 L50.75 6.6 49.8 7.25 49.75 5.45 Q49.75 4.0 50.7 2.1 L52.3 -1.75 51.3 -2.0 49.95 -2.05 47.55 -2.35 47.45 -2.3 M120.75 1.5 L119.05 1.65 118.0 1.55 118.25 1.4 118.45 1.15 119.3 1.3 120.75 1.5 M113.4 0.25 L112.75 0.0 110.9 -0.75 111.4 -0.65 112.15 -0.4 Q112.4 -0.25 113.15 0.15 L113.4 0.25" fill="#11111e" fill-rule="evenodd" stroke="none"/>
    <path d="M66.25 15.2 L65.2 14.8 65.25 14.45 65.6 13.75 66.15 11.8 67.25 10.2 67.5 9.85 68.8 8.35 Q70.1 6.1 70.65 5.55 L72.6 3.95 Q74.0 2.8 74.5 1.8 75.35 0.3 76.8 -0.45 L79.4 -1.7 82.3 -3.3 Q85.9 -4.6 91.3 -4.6 98.45 -4.6 102.05 -3.45 L104.0 -2.7 104.15 -2.65 103.95 -2.1 103.2 -0.5 102.4 -0.85 99.8 -1.95 98.5 -2.55 94.2 -2.95 90.75 -2.85 87.85 -2.65 85.9 -2.4 85.6 -2.1 85.2 -1.7 84.5 -1.55 83.6 -1.3 83.35 -1.0 83.2 -0.7 Q82.75 -0.3 82.15 -0.05 L80.6 0.35 Q78.35 0.95 76.75 2.7 L74.3 5.25 Q72.95 6.25 71.55 8.0 L69.3 10.45 68.2 11.85 67.6 13.1 66.8 14.5 66.25 15.2 M73.85 25.2 L74.0 25.3 74.2 25.55 75.45 26.45 73.05 30.95 70.4 35.95 70.3 35.95 68.4 35.75 68.3 35.75 71.0 30.7 72.15 28.9 72.4 28.4 73.1 27.1 73.6 26.15 73.85 25.3 73.85 25.2 M64.05 30.2 L64.25 29.9 65.55 28.3 65.65 28.1 68.6 23.45 Q69.7 21.2 70.4 19.0 72.5 12.0 79.15 7.15 81.8 5.25 84.65 4.05 87.15 3.05 89.0 3.05 L89.1 3.05 Q97.95 3.05 103.15 5.05 L103.15 5.1 106.2 6.55 Q107.5 7.8 107.7 9.2 L107.05 9.1 Q105.85 8.95 105.35 8.6 L104.45 8.05 104.25 8.0 104.2 8.0 102.85 7.7 101.15 7.6 100.8 7.3 100.35 6.85 98.9 5.85 95.75 4.7 95.6 4.7 92.45 4.6 89.25 4.4 85.6 4.8 Q84.4 5.25 80.75 7.35 L78.2 9.0 76.2 10.65 Q74.7 12.0 73.95 13.95 L72.95 17.2 71.75 20.65 Q71.7 22.55 69.15 26.05 L69.1 26.15 68.65 26.65 68.5 26.85 67.95 27.4 66.5 28.6 65.8 29.15 64.75 29.65 64.05 30.2 M79.75 11.9 L79.65 11.7 79.25 11.4 Q79.35 11.15 79.6 11.1 79.9 11.1 80.4 11.4 81.55 12.3 81.55 13.95 L81.5 14.45 81.5 14.5 81.0 14.75 Q80.4 14.75 80.15 14.15 L80.1 13.95 80.1 13.85 80.05 13.25 80.05 13.15 79.95 12.25 79.75 11.9 M109.95 11.15 L110.0 11.2 114.55 13.4 114.95 13.65 116.05 14.35 117.95 16.1 116.6 19.5 114.8 23.55 112.55 28.95 111.65 31.05 Q108.55 29.25 103.6 27.55 L103.35 27.45 105.05 22.95 106.9 18.5 107.9 16.1 108.75 13.65 109.05 12.25 Q109.35 11.6 109.9 11.25 L109.95 11.15 M114.95 35.35 L113.95 36.2 113.55 35.35 113.5 35.35 Q113.1 34.0 109.7 32.15 106.2 30.2 100.4 28.2 94.65 26.2 89.0 24.95 83.1 23.65 79.0 23.55 L79.0 23.5 78.95 23.55 78.8 23.5 78.8 23.55 78.1 24.4 77.9 24.5 77.3 24.9 76.55 25.0 75.15 24.85 74.85 24.6 74.95 24.65 75.2 24.75 75.3 24.75 75.55 24.75 75.6 24.75 76.05 24.7 76.7 24.35 76.8 24.3 77.2 23.9 77.3 23.8 77.6 23.4 77.6 23.35 77.7 23.2 77.75 23.15 77.85 23.05 77.9 22.95 78.05 22.7 78.1 22.7 78.25 22.5 78.5 22.5 78.95 22.5 78.95 22.7 79.05 22.65 80.15 22.65 81.4 22.65 81.4 22.7 87.8 23.9 93.15 25.0 98.6 26.65 102.45 28.0 Q105.95 28.95 110.2 31.25 113.6 33.15 114.55 34.45 L114.95 35.35 M104.45 63.6 L104.25 63.8 104.25 63.55 104.45 63.6 M104.2 62.75 Q104.0 60.95 102.95 58.45 L101.15 55.1 Q104.8 54.6 106.4 51.55 L107.7 48.35 Q108.4 46.2 108.85 45.35 L111.6 40.4 112.2 39.0 112.35 39.95 112.55 41.0 111.5 42.85 110.4 44.35 110.0 46.0 109.9 47.5 110.2 48.95 110.45 50.3 110.65 51.7 110.85 53.1 Q110.85 54.2 110.25 55.7 109.6 57.15 108.75 58.15 L107.8 59.4 106.8 60.75 105.1 62.0 104.2 62.75 M85.9 27.75 L85.85 27.55 85.8 27.3 85.75 26.65 85.75 26.55 85.75 26.45 85.8 25.75 85.9 25.8 86.75 25.95 Q86.85 27.45 87.55 28.6 88.05 29.45 89.25 30.35 L91.0 31.75 Q91.8 32.7 91.8 34.0 91.8 35.25 91.4 36.3 90.95 37.3 90.95 37.95 L90.95 38.05 91.0 38.3 92.1 40.35 93.5 42.5 Q94.8 43.6 95.1 44.65 L95.2 46.6 Q95.2 49.25 94.45 51.0 93.2 53.8 92.55 55.95 L92.45 56.0 91.65 55.2 92.95 51.95 Q94.35 48.25 94.35 46.65 L94.35 46.55 94.5 45.35 Q94.5 44.0 93.15 43.0 L92.75 42.85 92.55 42.25 92.45 42.25 92.35 42.15 92.35 42.1 92.3 42.05 91.8 41.45 91.65 41.2 91.5 41.0 91.5 40.95 90.75 39.95 Q90.1 38.95 90.1 37.85 L90.4 35.95 90.7 34.3 Q90.7 33.55 89.95 32.55 L88.15 30.45 86.0 28.2 85.9 27.75 M82.8 51.3 L84.9 51.8 Q85.45 52.0 86.65 53.05 L87.0 53.35 90.75 57.2 89.5 56.45 85.2 54.45 85.15 54.45 85.05 54.4 84.95 54.4 84.9 54.4 84.7 53.05 Q84.65 52.5 84.1 52.1 L83.15 51.5 82.8 51.3 M92.7 57.0 L92.8 57.05 92.95 56.85 94.3 54.25 95.8 55.4 97.65 57.0 97.85 57.15 98.9 58.35 98.9 58.4 98.9 58.45 98.95 58.45 99.25 59.1 98.6 58.5 Q97.65 57.9 96.2 57.9 95.15 57.9 94.35 59.0 L93.8 58.3 93.7 58.25 92.65 57.05 92.7 57.0" fill="#34270e" fill-rule="evenodd" stroke="none"/>
    <path d="M128.05 -15.8 Q129.65 -13.3 129.65 -10.55 129.65 -6.15 126.8 -2.4 125.45 -0.65 124.1 0.3 L122.95 1.2 122.2 1.3 120.8 1.5 120.75 1.5 119.3 1.3 118.45 1.15 118.25 1.4 118.0 1.55 Q116.05 1.3 113.4 0.25 L113.15 0.15 Q112.4 -0.25 112.15 -0.4 L111.4 -0.65 110.9 -0.75 110.85 -0.75 110.45 -0.95 108.9 -1.45 108.75 -1.5 108.75 -1.55 Q109.35 -2.2 111.8 -2.2 L116.45 -1.55 119.45 -0.85 Q120.85 -0.85 123.1 -2.65 125.6 -4.5 126.95 -6.95 128.5 -9.6 128.5 -13.5 L128.05 -15.7 128.05 -15.8 M64.65 12.85 L64.6 13.05 64.0 14.5 63.75 14.5 Q63.6 14.6 63.6 15.05 L63.65 15.25 Q63.15 16.35 62.95 17.8 L62.6 22.0 62.15 24.05 Q61.7 25.45 60.65 26.25 L59.85 27.2 58.8 28.35 Q57.05 29.9 53.7 29.9 50.25 29.9 48.65 28.8 L47.7 28.05 49.75 28.05 50.0 27.95 50.15 27.9 50.4 27.95 53.85 28.4 Q55.6 28.4 57.25 26.85 L58.95 24.8 Q59.95 23.85 60.35 22.75 L60.8 20.7 Q61.15 18.35 62.05 16.55 L63.2 14.05 Q64.0 12.35 64.2 12.35 L64.6 12.9 64.65 12.85" fill="#000033" fill-rule="evenodd" stroke="none"/>
    <path d="M103.2 -0.5 L102.5 0.85 Q101.65 2.3 101.35 3.1 96.0 1.5 90.4 1.9 86.8 1.1 81.5 4.3 77.85 6.45 75.5 8.85 72.75 11.25 71.25 13.85 70.5 15.1 69.9 16.8 L68.7 16.25 67.6 15.7 67.05 15.55 66.25 15.2 66.8 14.5 67.6 13.1 68.2 11.85 69.3 10.45 71.55 8.0 Q72.95 6.25 74.3 5.25 L76.75 2.7 Q78.35 0.95 80.6 0.35 L82.15 -0.05 Q82.75 -0.3 83.2 -0.7 L83.35 -1.0 83.6 -1.3 84.5 -1.55 85.2 -1.7 85.6 -2.1 85.9 -2.4 87.85 -2.65 90.75 -2.85 94.2 -2.95 98.5 -2.55 99.8 -1.95 102.4 -0.85 103.2 -0.5 M79.5 10.3 L79.35 10.3 77.2 11.2 76.8 11.5 76.15 12.1 75.9 12.35 75.1 13.35 74.75 13.85 Q73.95 14.9 73.35 17.6 72.9 19.95 72.9 21.6 L72.9 22.3 73.0 23.7 73.6 24.7 73.75 25.0 73.6 25.2 Q72.8 25.2 72.05 24.4 L71.85 24.15 71.5 24.65 70.5 25.65 68.85 26.65 68.5 26.85 68.65 26.65 69.1 26.15 69.15 26.05 Q71.7 22.55 71.75 20.65 L72.95 17.2 73.95 13.95 Q74.7 12.0 76.2 10.65 L78.2 9.0 80.75 7.35 Q84.4 5.25 85.6 4.8 L89.25 4.4 92.45 4.6 95.6 4.7 95.75 4.7 98.9 5.85 100.35 6.85 100.8 7.3 100.75 7.55 100.5 7.55 94.35 7.4 94.25 7.45 94.0 7.55 92.65 6.85 Q89.4 5.35 86.35 5.35 86.05 5.35 84.1 6.45 82.4 7.35 81.0 8.25 L79.6 10.15 79.5 10.3 M106.2 6.55 L106.8 6.8 107.6 7.25 108.2 8.45 108.75 9.45 107.7 9.2 Q107.5 7.8 106.2 6.55 M104.4 9.45 Q106.75 9.95 109.05 10.8 L109.95 11.15 109.9 11.25 Q109.35 11.6 109.05 12.25 L108.75 13.65 107.9 16.1 106.9 18.5 105.05 22.95 103.35 27.45 101.65 26.75 Q100.5 26.15 99.55 25.9 L98.15 25.6 97.85 25.5 99.5 21.4 101.95 15.45 103.0 12.55 Q103.55 10.8 104.2 9.7 L104.4 9.45 M117.95 16.1 L119.2 17.75 118.7 18.8 118.25 19.85 118.0 20.3 Q116.2 23.95 116.1 24.35 L114.1 29.3 113.0 31.9 112.55 31.65 112.2 31.35 112.05 31.25 111.65 31.05 112.55 28.95 114.8 23.55 116.6 19.5 117.95 16.1 M81.0 26.25 L80.8 26.2 80.2 26.05 80.15 25.95 80.05 25.95 80.45 24.9 85.35 25.65 85.35 25.8 85.4 25.7 85.8 25.75 85.75 26.45 85.75 26.55 85.75 26.65 85.8 27.3 85.85 27.55 85.9 27.75 85.05 27.4 83.05 26.85 81.0 26.25 M91.65 55.2 L89.85 53.45 88.85 52.45 88.55 52.1 88.35 51.9 88.45 51.6 89.0 49.9 89.7 47.1 90.75 44.25 91.65 41.3 91.65 41.2 91.8 41.45 92.3 42.05 92.35 42.1 92.35 42.15 92.45 42.25 92.5 42.25 92.55 42.25 92.75 42.85 93.15 43.0 Q94.5 44.0 94.5 45.35 L94.35 46.55 94.35 46.65 Q94.35 48.25 92.95 51.95 L91.65 55.2 M81.85 53.6 L81.9 53.15 Q81.9 52.35 80.95 51.35 L80.5 50.9 82.8 51.3 83.15 51.5 84.1 52.1 Q84.65 52.5 84.7 53.05 L84.9 54.4 84.85 54.35 81.85 53.6 M99.25 59.1 L99.6 60.75 99.4 60.25 Q98.65 59.4 97.65 59.3 96.6 59.15 95.85 59.9 95.35 60.3 95.2 61.0 L95.2 60.7 94.35 59.0 Q95.15 57.9 96.2 57.9 97.65 57.9 98.6 58.5 L99.25 59.1 M97.05 63.45 L96.9 63.45 96.9 63.35 96.95 63.35 97.05 63.45 M74.95 74.35 L75.05 74.3 75.5 74.0 76.3 73.7 78.55 73.2 81.6 71.85 81.8 71.75 81.85 71.75 83.05 71.4 83.1 71.35 83.35 71.35 83.45 71.35 83.55 71.35 83.6 71.8 83.6 71.85 Q83.6 72.9 79.75 74.1 75.9 75.25 74.65 75.95 L74.75 75.65 74.85 75.15 74.85 75.1 74.85 74.4 74.95 74.35 M67.85 83.05 L67.7 82.35 67.7 79.8 67.7 77.8 67.8 76.6 69.3 75.8 69.2 78.0 68.95 82.95 67.85 83.05 M61.9 85.9 L63.35 85.9 63.15 86.95 62.7 90.15 62.7 92.1 61.55 91.95 61.5 91.2 61.55 89.65 61.8 87.35 61.8 87.2 61.9 85.95 61.9 85.9 M67.6 86.1 L67.8 84.5 Q67.9 85.55 68.6 86.9 L70.0 89.8 67.0 90.1 67.0 89.85 67.25 88.0 67.6 86.1 M105.35 86.85 L105.65 85.6 105.65 84.8 105.85 84.7 106.8 84.2 106.85 84.2 106.8 85.1 106.75 85.7 106.7 85.8 Q106.25 86.0 105.45 86.75 L105.4 86.8 105.35 86.85 M113.8 83.6 L113.85 83.55 114.3 81.95 114.65 80.5 114.75 80.45 Q115.0 80.5 115.25 80.8 L115.25 80.85 115.45 81.1 115.8 81.95 Q115.3 82.45 115.05 83.4 L114.85 84.4 114.85 83.9 Q114.75 83.5 114.15 83.5 L113.8 83.6 M91.65 91.3 L92.1 91.3 Q93.1 91.3 93.35 91.75 L93.45 92.6 93.65 93.6 93.8 94.45 Q93.8 96.0 92.7 96.75 91.65 97.45 89.6 97.45 88.5 97.45 87.35 96.55 L85.4 94.65 83.3 92.85 Q81.95 92.15 80.5 92.4 L80.45 93.65 80.4 94.95 80.4 96.2 80.35 96.5 80.2 96.5 79.35 96.45 79.15 96.45 79.1 95.85 78.55 93.45 78.5 92.15 78.05 91.75 79.75 90.3 79.8 90.3 79.95 90.4 81.5 91.1 81.65 91.2 Q84.2 92.5 85.45 93.8 L86.8 95.75 Q88.1 97.4 89.45 97.4 91.9 97.4 92.65 96.0 L92.95 94.3 Q92.95 93.25 92.75 92.9 92.4 92.0 90.75 92.2 L91.65 91.3 M114.3 96.55 L113.9 96.15 113.4 95.15 Q112.45 93.55 109.2 93.55 108.7 93.55 108.15 94.25 L107.05 95.9 105.95 97.1 Q104.9 98.0 104.3 98.0 102.5 98.0 101.6 96.35 100.95 95.25 100.95 94.05 L101.25 92.55 Q101.5 91.9 102.0 91.8 L101.95 91.85 101.55 92.15 101.5 92.2 101.4 93.2 Q101.4 94.35 101.95 95.5 102.75 97.15 104.25 97.15 105.55 97.15 106.6 94.95 L107.3 93.4 Q107.7 92.7 108.15 92.7 111.85 92.7 113.4 93.8 L113.65 94.05 113.65 94.1 113.7 94.1 Q114.35 94.65 114.35 95.5 L114.3 96.55 M101.8 90.4 L101.5 90.75 100.6 91.6 100.45 91.65 99.55 92.65 99.1 93.05 98.9 93.25 98.75 93.4 98.25 93.35 98.25 93.2 Q98.25 92.85 99.2 91.8 L100.1 90.75 Q101.15 89.8 101.8 90.4" fill="#473612" fill-rule="evenodd" stroke="none"/>
    <path d="M66.75 35.7 L65.1 35.8 64.95 35.8 63.6 36.05 66.0 32.25 Q67.45 29.75 68.65 28.0 L68.95 27.75 69.05 27.7 69.1 27.7 70.6 26.75 72.15 25.85 72.25 26.2 Q72.25 26.85 70.75 29.25 L69.1 31.8 66.75 35.7 M57.4 39.3 L57.2 39.65 56.75 41.0 55.7 39.9 53.7 37.55 53.7 35.7 54.5 35.8 55.3 36.75 56.05 37.55 57.3 39.15 57.4 39.3 M74.05 20.8 L74.05 20.7 75.1 15.9 75.45 15.2 Q76.25 13.2 77.3 12.3 L78.05 11.7 78.6 11.5 79.2 11.4 79.25 11.4 79.65 11.7 79.75 11.9 79.8 12.1 79.8 12.15 79.9 12.85 79.9 13.1 77.2 17.1 74.05 20.8 M120.65 20.05 L121.1 20.7 121.1 20.75 121.0 20.85 120.95 20.95 121.1 21.55 120.55 23.0 119.9 24.4 119.3 25.85 118.75 27.4 117.0 30.85 116.95 30.9 115.8 33.8 115.5 34.45 114.95 35.35 114.55 34.45 115.05 33.1 115.85 31.25 116.6 29.25 117.3 27.15 119.25 23.0 119.85 21.7 120.2 21.0 120.25 20.45 Q120.3 20.1 120.65 20.05 M74.85 24.6 L74.3 24.0 74.3 23.75 74.2 23.75 74.05 22.95 74.05 22.75 74.05 22.3 74.05 21.9 74.1 21.85 75.8 20.45 77.15 18.95 Q77.95 18.25 77.95 19.4 L76.95 22.1 Q76.0 24.25 75.3 24.75 L75.2 24.75 74.95 24.65 74.85 24.6 M84.25 9.7 Q83.8 9.7 83.65 9.35 L83.6 8.65 Q83.6 7.6 84.7 7.3 85.75 7.1 85.75 8.2 L85.6 8.95 Q85.3 9.7 84.25 9.7 M80.05 25.95 L80.15 25.95 80.2 26.05 80.8 26.2 81.0 26.25 80.3 28.6 78.9 32.25 77.45 36.3 77.05 37.35 77.0 37.25 76.25 36.1 78.5 30.35 80.05 25.95 M66.3 52.2 L66.35 52.2 Q67.0 52.5 67.0 53.1 67.0 53.85 66.2 54.8 L66.1 54.95 65.95 55.05 65.9 55.1 65.8 55.15 65.0 55.65 64.75 55.85 64.25 55.95 Q63.15 55.95 62.95 55.5 L62.9 54.9 63.85 53.9 Q64.5 53.25 66.3 52.2 M56.95 66.3 L57.1 66.55 57.65 67.9 58.3 69.3 58.4 69.55 58.35 69.8 57.55 74.45 57.5 74.55 57.35 75.2 57.35 75.3 57.2 75.5 Q55.85 74.75 55.5 72.7 L55.4 70.8 55.65 70.2 55.95 68.65 56.5 67.15 56.85 66.45 56.95 66.3 M75.5 68.7 L75.75 68.95 75.9 70.0 75.9 71.8 76.1 72.75 76.3 73.7 75.5 74.0 75.05 74.3 74.95 74.35 74.85 74.25 74.85 74.1 74.85 74.0 74.5 71.25 74.5 71.1 74.5 70.85 74.45 70.6 74.4 70.2 74.35 69.85 74.3 69.25 75.5 68.7 M64.2 78.7 L64.2 80.9 64.2 83.35 64.1 83.85 63.85 83.9 63.85 83.85 63.8 83.9 62.5 84.3 62.95 82.0 63.0 79.3 64.2 78.7 M81.35 96.55 L81.55 95.85 81.55 95.4 81.85 95.35 Q83.05 95.35 84.4 96.5 L85.3 97.35 86.25 98.2 Q86.6 98.55 88.7 99.8 L90.6 100.2 91.0 100.25 91.4 99.7 93.15 98.05 94.4 96.85 94.85 96.5 94.55 97.05 93.5 98.65 92.1 100.4 91.2 101.45 90.75 101.45 90.45 101.45 Q88.15 101.15 87.2 100.25 86.4 99.0 85.6 98.65 L84.45 97.9 83.45 97.2 81.35 96.55" fill="#e7d1a1" fill-rule="evenodd" stroke="none"/>
    <path d="M68.3 35.75 L66.75 35.7 69.1 31.8 70.75 29.25 Q72.25 26.85 72.25 26.2 L72.15 25.85 72.35 25.8 73.1 25.35 73.75 25.25 73.85 25.3 73.6 26.15 73.1 27.1 72.4 28.4 72.15 28.9 71.0 30.7 68.3 35.75 M63.6 36.05 Q61.0 36.5 59.05 37.95 57.9 38.35 57.4 39.3 L57.3 39.15 56.05 37.55 55.3 36.75 54.5 35.8 Q57.8 36.05 61.35 32.95 L62.35 32.0 62.5 31.9 62.5 31.8 63.7 30.55 63.75 30.5 65.55 29.45 68.65 28.0 Q67.45 29.75 66.0 32.25 L63.6 36.05 M109.7 8.3 L110.6 8.95 Q111.45 9.55 111.8 10.45 L111.65 10.4 111.55 10.35 111.45 10.3 110.75 10.1 110.65 9.7 110.0 8.65 109.7 8.3 M74.05 20.8 L77.2 17.1 79.9 13.1 79.95 13.4 80.05 13.15 80.05 13.25 80.1 13.85 80.1 13.95 80.15 14.15 Q80.4 14.75 81.0 14.75 L81.5 14.5 81.7 14.6 81.85 14.5 82.1 14.5 Q82.6 14.5 84.0 13.6 L87.0 11.6 87.8 11.15 Q87.9 11.05 88.05 11.0 89.05 10.45 90.1 10.1 L90.1 10.3 87.85 17.65 86.6 21.35 86.3 22.35 86.1 23.05 86.45 23.1 89.1 23.65 91.3 24.05 93.5 24.55 96.25 25.1 98.15 25.6 99.55 25.9 Q100.5 26.15 101.65 26.75 L103.35 27.45 103.6 27.55 Q108.55 29.25 111.65 31.05 L112.05 31.25 112.2 31.35 112.55 31.65 113.0 31.9 114.2 32.85 114.1 32.75 114.85 30.85 Q116.25 27.1 117.0 25.65 L118.15 23.4 119.3 21.1 120.05 19.1 120.25 19.3 120.65 20.05 Q120.3 20.1 120.25 20.45 L120.2 21.0 119.85 21.7 119.25 23.0 117.3 27.15 116.6 29.25 115.85 31.25 115.05 33.1 114.55 34.45 Q113.6 33.15 110.2 31.25 105.95 28.95 102.45 28.0 L98.6 26.65 93.15 25.0 87.8 23.9 81.4 22.7 81.4 22.65 80.15 22.65 79.05 22.65 78.95 22.7 78.95 22.5 78.5 22.5 78.25 22.5 78.1 22.7 78.05 22.7 77.9 22.95 77.85 23.05 77.75 23.15 77.7 23.2 77.6 23.35 77.6 23.4 77.0 23.9 76.05 24.7 75.6 24.75 75.55 24.75 75.3 24.75 Q76.0 24.25 76.95 22.1 L77.95 19.4 Q77.95 18.25 77.15 18.95 L75.8 20.45 74.1 21.85 74.05 21.9 74.05 21.3 74.05 20.8 M85.15 6.75 L87.15 6.7 Q87.9 6.75 88.05 7.05 L88.15 7.55 87.15 9.25 Q85.85 11.1 83.45 11.1 82.25 11.1 81.9 10.75 L81.8 9.95 Q81.8 9.35 82.15 8.95 L83.45 7.7 Q84.3 7.05 85.15 6.75 M84.25 9.7 Q85.3 9.7 85.6 8.95 L85.75 8.2 Q85.75 7.1 84.7 7.3 83.6 7.6 83.6 8.65 L83.65 9.35 Q83.8 9.7 84.25 9.7 M77.05 37.35 L77.45 36.3 78.9 32.25 80.3 28.6 81.0 26.25 83.05 26.85 85.05 27.4 85.9 27.75 85.9 27.85 85.25 30.2 83.6 35.95 83.15 38.5 82.6 41.0 81.8 43.7 80.65 41.95 79.7 40.4 77.05 37.35 M77.4 50.35 L77.95 50.9 78.7 51.7 79.0 53.1 78.95 53.55 72.75 53.5 Q68.65 53.6 66.1 54.95 L66.2 54.8 Q67.0 53.85 67.0 53.1 67.0 52.5 66.35 52.2 L66.3 52.2 68.25 51.25 Q71.35 49.85 71.65 49.85 L77.4 50.35 M85.15 54.45 L84.95 54.4 85.05 54.4 85.15 54.45 M99.6 62.15 L99.6 62.3 99.5 63.3 99.5 63.35 99.5 63.45 99.45 63.6 97.1 63.45 97.05 63.45 96.9 62.65 97.0 62.0 Q97.25 61.35 98.1 61.35 98.9 61.35 99.25 61.7 L99.6 62.15 M62.9 54.9 L62.95 55.5 Q63.15 55.95 64.25 55.95 L64.75 55.85 64.65 56.05 63.5 57.5 61.25 60.4 Q59.85 62.4 59.65 63.45 L58.4 69.55 58.3 69.3 57.65 67.9 57.1 66.55 56.95 66.3 57.2 65.65 58.3 62.65 59.5 59.7 Q60.05 58.35 61.35 56.7 L62.9 54.9 M76.3 73.7 L76.1 72.75 75.9 71.8 75.9 70.0 75.75 68.95 75.5 68.7 77.35 67.9 80.55 67.0 81.3 69.95 81.35 70.7 81.45 71.5 81.8 71.75 81.6 71.85 78.55 73.2 76.3 73.7 M74.85 74.25 L74.95 74.35 74.85 74.4 74.85 74.25 M64.2 78.7 L65.75 77.8 67.8 76.6 67.7 77.8 67.7 79.8 67.7 82.35 67.85 83.05 66.0 83.45 64.1 83.85 64.2 83.35 64.2 80.9 64.2 78.7 M83.55 71.35 L83.45 71.35 83.3 70.0 83.55 71.35 M59.7 91.9 L58.8 91.9 58.8 89.9 58.95 85.9 59.65 85.9 59.65 86.0 59.65 87.85 59.6 89.0 59.7 90.5 59.7 91.9 M114.65 80.5 L114.65 80.45 114.75 80.45 114.65 80.5 M81.55 95.4 L81.55 93.85 81.6 93.8 82.8 94.35 Q83.75 94.7 84.05 94.95 L85.75 96.2 87.15 97.35 Q88.7 98.3 90.45 98.3 91.65 98.3 93.05 97.45 L94.25 96.6 94.8 96.15 95.1 95.7 Q95.05 95.5 95.15 95.25 L95.2 95.0 95.2 95.25 94.85 96.5 94.4 96.85 93.15 98.05 91.4 99.7 91.0 100.25 90.6 100.2 88.7 99.8 Q86.6 98.55 86.25 98.2 L85.3 97.35 84.4 96.5 Q83.05 95.35 81.85 95.35 L81.55 95.4 M100.6 91.6 L100.6 92.45 100.5 93.75 Q100.5 95.0 100.75 95.9 101.35 98.9 104.0 98.9 105.5 98.9 106.3 97.95 106.9 97.45 107.05 96.75 107.1 96.5 107.5 96.15 L108.15 95.55 108.5 95.05 110.4 94.8 Q111.85 94.8 112.95 96.45 L113.6 97.55 114.0 98.0 113.9 98.35 112.35 97.1 Q110.5 95.75 109.4 95.75 108.6 95.75 107.15 97.85 105.75 99.95 105.2 99.95 102.75 99.95 101.65 99.0 100.7 98.25 99.55 95.85 L99.35 94.65 99.25 93.55 99.1 93.05 99.55 92.65 100.45 91.65 100.6 91.6 M102.85 91.65 L102.95 91.65 102.85 91.6 103.05 91.6 103.05 91.7 102.85 91.65" fill="#cd9e3f" fill-rule="evenodd" stroke="none"/>
    <path d="M73.75 25.0 L73.85 25.2 73.85 25.3 73.75 25.25 73.1 25.35 72.35 25.8 72.15 25.85 70.6 26.75 69.1 27.7 69.05 27.7 68.95 27.75 68.65 28.0 65.55 29.45 63.75 30.5 64.05 30.2 64.75 29.65 65.8 29.15 66.5 28.6 67.95 27.4 68.5 26.85 68.85 26.65 70.5 25.65 71.5 24.65 71.85 24.15 72.05 24.4 Q72.8 25.2 73.6 25.2 L73.75 25.0 M107.6 7.25 L107.75 7.3 108.15 7.5 108.55 7.7 108.75 7.75 109.7 8.3 110.0 8.65 110.65 9.7 110.75 10.1 109.3 9.55 108.75 9.45 108.2 8.45 107.6 7.25 M101.15 7.6 L100.75 7.55 100.8 7.3 101.15 7.6 M94.0 7.55 L91.4 8.45 88.65 9.55 Q84.7 11.5 84.6 11.55 83.15 12.3 82.25 13.15 82.25 12.2 81.65 11.4 81.0 10.55 80.05 10.35 L79.5 10.3 79.6 10.15 81.0 8.25 Q82.4 7.35 84.1 6.45 86.05 5.35 86.35 5.35 89.4 5.35 92.65 6.85 L94.0 7.55 M79.9 13.1 L79.9 12.85 79.8 12.15 79.8 12.1 79.75 11.9 79.95 12.25 80.05 13.15 79.95 13.4 79.9 13.1 M90.1 10.1 Q93.7 8.65 97.75 8.65 L104.4 9.45 104.2 9.7 Q103.55 10.8 103.0 12.55 L101.95 15.45 99.5 21.4 97.85 25.5 98.15 25.6 96.25 25.1 93.5 24.55 91.3 24.05 89.1 23.65 86.45 23.1 86.1 23.05 86.3 22.35 86.6 21.35 87.85 17.65 90.1 10.3 90.1 10.1 M119.2 17.75 L119.25 17.8 120.05 19.1 119.3 21.1 118.15 23.4 117.0 25.65 Q116.25 27.1 114.85 30.85 L114.1 32.75 114.2 32.85 113.0 31.9 114.1 29.3 116.1 24.35 Q116.2 23.95 118.0 20.3 L118.25 19.85 118.7 18.8 119.2 17.75 M85.15 6.75 Q84.3 7.05 83.45 7.7 L82.15 8.95 Q81.8 9.35 81.8 9.95 L81.9 10.75 Q82.25 11.1 83.45 11.1 85.85 11.1 87.15 9.25 L88.15 7.55 88.05 7.05 Q87.9 6.75 87.15 6.7 L85.15 6.75 M108.15 0.8 Q107.75 1.3 107.3 2.35 L105.75 4.75 102.7 3.55 103.65 2.0 Q104.8 -0.3 104.8 -1.55 L104.9 -1.7 105.45 -1.9 106.9 -0.95 Q107.95 -0.15 108.85 0.3 L108.15 0.8 M77.6 23.4 L77.3 23.8 77.2 23.9 76.8 24.3 76.7 24.35 76.05 24.7 77.0 23.9 77.6 23.4 M112.2 39.0 L112.7 37.25 112.8 37.25 112.85 37.3 113.55 39.85 Q113.55 40.95 113.1 41.75 L112.15 43.0 Q110.7 44.7 110.7 47.05 110.7 48.8 111.45 50.7 112.15 52.55 112.15 53.65 112.15 55.35 110.1 58.05 L106.7 62.35 Q105.8 62.6 105.2 62.95 L104.45 63.6 104.25 63.55 104.25 63.4 104.2 62.75 105.1 62.0 106.8 60.75 107.8 59.4 108.75 58.15 Q109.6 57.15 110.25 55.7 110.85 54.2 110.85 53.1 L110.65 51.7 110.45 50.3 110.2 48.95 109.9 47.5 110.0 46.0 110.4 44.35 111.5 42.85 112.55 41.0 112.35 39.95 112.2 39.0 M85.4 25.7 L85.35 25.8 85.35 25.65 85.4 25.7 M92.55 55.95 L92.5 56.05 92.45 56.0 92.55 55.95 M88.35 51.9 L87.7 51.15 Q85.35 48.8 83.75 46.55 L81.8 43.7 82.6 41.0 83.15 38.5 83.6 35.95 85.25 30.2 85.9 27.85 85.9 27.75 86.0 28.2 88.15 30.45 89.95 32.55 Q90.7 33.55 90.7 34.3 L90.4 35.95 90.1 37.85 Q90.1 38.95 90.75 39.95 L91.5 40.95 91.5 41.0 91.65 41.2 91.65 41.3 90.75 44.25 89.7 47.1 89.0 49.9 88.45 51.6 88.35 51.9 M92.55 42.25 L92.5 42.25 92.45 42.25 92.55 42.25 M77.4 50.35 L78.6 50.6 78.8 50.65 80.5 50.9 80.95 51.35 Q81.9 52.35 81.9 53.15 L81.85 53.6 79.7 53.55 79.15 53.55 78.95 53.55 79.0 53.1 78.7 51.7 77.95 50.9 77.4 50.35 M99.6 60.75 L99.65 60.75 99.65 60.95 99.65 61.15 99.6 62.15 99.25 61.7 Q98.9 61.35 98.1 61.35 97.25 61.35 97.0 62.0 L96.9 62.65 97.05 63.45 96.95 63.35 96.9 63.35 96.9 62.85 96.85 62.6 96.6 62.6 96.35 62.2 96.05 62.15 96.0 62.15 95.55 61.5 95.2 61.2 95.2 61.0 Q95.35 60.3 95.85 59.9 96.6 59.15 97.65 59.3 98.65 59.4 99.4 60.25 L99.6 60.75 M99.5 63.45 L99.5 63.6 99.45 63.6 99.5 63.45 M81.8 71.75 L81.45 71.5 81.35 70.7 81.3 69.95 80.55 67.0 82.45 66.95 82.45 67.0 82.5 67.1 83.2 69.7 83.3 70.0 83.45 71.35 83.35 71.35 83.1 71.35 83.05 71.4 81.85 71.75 81.8 71.75 M59.7 91.9 L59.7 90.5 59.6 89.0 59.65 87.85 59.65 86.0 59.65 85.9 61.9 85.9 61.9 85.95 61.8 87.2 61.8 87.35 61.55 89.65 61.5 91.2 61.55 91.95 60.05 91.9 59.7 91.9 M106.7 85.8 L106.8 86.25 Q106.95 86.6 108.0 86.65 L109.0 86.75 111.5 86.65 112.75 86.5 113.05 86.1 113.25 85.8 113.35 85.25 113.35 85.15 113.7 83.9 113.8 83.6 114.15 83.5 Q114.75 83.5 114.85 83.9 L114.85 84.4 114.75 84.95 114.45 85.35 114.05 86.3 Q113.2 88.75 109.8 88.2 L109.1 88.2 107.95 88.15 107.95 88.2 105.15 87.95 105.35 86.9 105.35 86.85 105.4 86.8 105.45 86.75 Q106.25 86.0 106.7 85.8 M91.65 91.3 L92.1 90.95 93.4 90.85 93.5 90.9 93.6 91.1 94.2 92.4 94.25 92.5 94.3 92.55 94.35 92.65 Q95.15 93.9 95.2 94.95 L95.2 95.0 95.15 95.25 Q95.05 95.5 95.1 95.7 L94.8 96.15 94.25 96.6 93.05 97.45 Q91.65 98.3 90.45 98.3 88.7 98.3 87.15 97.35 L85.75 96.2 84.05 94.95 Q83.75 94.7 82.8 94.35 L81.6 93.8 81.55 93.85 81.55 95.4 81.55 95.85 81.35 96.55 81.05 96.5 80.35 96.5 80.4 96.2 80.4 94.95 80.45 93.65 80.5 92.4 Q81.95 92.15 83.3 92.85 L85.4 94.65 87.35 96.55 Q88.5 97.45 89.6 97.45 91.65 97.45 92.7 96.75 93.8 96.0 93.8 94.45 L93.65 93.6 93.45 92.6 93.35 91.75 Q93.1 91.3 92.1 91.3 L91.65 91.3 M114.0 98.0 L113.6 97.55 112.95 96.45 Q111.85 94.8 110.4 94.8 L108.5 95.05 108.15 95.55 107.5 96.15 Q107.1 96.5 107.05 96.75 106.9 97.45 106.3 97.95 105.5 98.9 104.0 98.9 101.35 98.9 100.75 95.9 100.5 95.0 100.5 93.75 L100.6 92.45 100.6 91.6 101.5 90.75 101.8 90.4 101.9 90.5 102.45 91.15 102.55 91.3 102.75 91.55 102.85 91.6 102.95 91.65 102.85 91.65 102.75 91.65 102.15 91.8 102.05 91.8 102.0 91.8 Q101.5 91.9 101.25 92.55 L100.95 94.05 Q100.95 95.25 101.6 96.35 102.5 98.0 104.3 98.0 104.9 98.0 105.95 97.1 L107.05 95.9 108.15 94.25 Q108.7 93.55 109.2 93.55 112.45 93.55 113.4 95.15 L113.9 96.15 114.3 96.55 114.0 98.0" fill="#8e6c24" fill-rule="evenodd" stroke="none"/>
    <path d="M59.95 28.95 L60.0 28.9 60.05 28.85 60.0 29.0 59.95 28.95 M113.0 11.05 L112.85 11.0 113.05 10.95 113.0 11.05 M111.25 0.9 L111.2 0.85 111.15 0.7 111.3 0.8 111.25 0.9" fill="#ff7c51" fill-rule="evenodd" stroke="none"/>
    <path d="M117.7 60.05 L117.05 58.95 Q115.8 56.95 115.05 56.95 L113.8 57.2 112.15 57.5 112.4 57.1 112.7 57.1 114.3 56.75 115.8 56.4 Q116.85 56.4 117.8 58.05 118.55 59.3 118.6 60.0 L117.85 60.05 117.7 60.05 M79.8 43.35 L80.0 43.6 79.8 43.45 79.8 43.35 M58.25 40.3 L58.85 39.5 Q60.35 37.95 63.85 37.4 L64.55 37.95 Q64.95 38.2 65.15 38.4 L62.6 38.45 61.7 38.85 60.8 39.2 59.75 39.55 59.05 39.8 58.25 40.3 M55.0 59.45 L54.5 58.25 Q53.7 55.85 53.7 53.9 L53.75 50.5 Q53.9 48.45 54.8 47.05 L55.8 45.35 56.95 43.6 Q57.9 42.65 60.0 41.9 61.55 41.35 62.0 41.35 L64.4 41.45 64.6 41.6 66.0 43.15 66.05 43.3 65.8 43.45 Q65.25 43.75 64.0 44.6 L62.05 45.45 Q60.35 46.55 59.3 47.5 58.2 48.4 57.6 49.55 L56.45 51.75 55.6 53.8 Q55.15 54.7 55.05 55.85 L55.0 57.9 55.0 59.45 M84.95 71.15 L85.5 69.55 85.6 69.25 86.1 67.75 86.8 66.9 87.65 66.0 88.05 65.65 89.7 65.5 Q91.6 65.5 92.7 66.25 L93.0 66.4 91.6 67.65 89.9 69.6 87.4 73.7 Q85.95 76.2 85.05 78.2 L83.15 82.5 81.05 86.9 Q80.1 88.85 77.3 90.8 L74.9 92.35 Q73.85 93.0 73.15 93.55 72.2 90.8 71.2 89.05 L69.85 86.2 69.7 85.9 69.8 85.8 Q70.15 85.5 70.65 85.45 L71.35 85.2 71.7 84.85 Q71.4 84.2 71.4 83.65 71.4 80.25 72.3 75.2 L72.65 70.95 Q72.6 70.15 72.95 68.85 L72.95 68.45 73.7 76.25 74.0 76.35 74.3 76.55 74.4 76.55 Q74.55 76.8 75.0 76.8 L78.3 76.0 81.9 74.55 Q83.65 73.7 84.2 73.15 84.7 72.65 84.7 71.85 L84.7 71.25 84.7 71.35 84.95 71.15 M50.15 100.5 L48.2 99.25 Q46.45 98.35 46.05 97.5 L45.85 95.65 Q45.85 94.1 46.1 93.25 L46.8 91.8 Q47.75 90.1 47.75 86.35 47.75 84.6 48.35 81.75 L49.5 77.05 50.6 73.05 52.05 68.25 52.75 65.8 52.75 66.2 52.7 66.75 53.2 69.2 53.3 70.15 53.25 70.5 53.25 70.6 53.1 71.8 52.75 73.1 52.3 75.65 51.9 78.25 50.6 88.05 Q49.35 97.25 49.35 98.95 L49.35 99.5 Q49.5 99.85 50.05 99.95 L50.15 100.5 M72.0 108.65 L67.7 108.25 67.7 108.2 67.35 105.75 66.95 102.65 66.45 99.6 66.1 97.15 66.2 96.55 66.3 96.0 68.4 99.4 Q69.9 101.75 70.4 103.0 L71.4 106.9 72.0 108.65" fill="#840808" fill-rule="evenodd" stroke="none"/>
    <path d="M112.15 57.5 L113.8 57.2 115.05 56.95 Q115.8 56.95 117.05 58.95 L117.7 60.05 115.4 60.15 114.8 59.0 Q114.4 58.45 112.95 58.0 L112.05 57.65 112.15 57.5 M63.85 37.4 L67.7 37.2 71.5 37.4 71.9 37.5 72.8 38.55 73.55 39.35 72.25 39.05 65.15 38.4 Q64.95 38.2 64.55 37.95 L63.85 37.4 M71.1 41.6 L71.25 41.7 72.6 42.7 73.4 43.5 72.6 43.5 Q70.7 43.65 66.8 45.1 L66.6 45.1 Q65.25 45.35 64.0 46.35 L61.6 48.05 Q59.7 49.0 58.2 51.25 57.25 52.8 56.6 54.9 L55.1 59.8 55.0 59.45 55.0 57.9 55.05 55.85 Q55.15 54.7 55.6 53.8 L56.45 51.75 57.6 49.55 Q58.2 48.4 59.3 47.5 60.35 46.55 62.05 45.45 L64.0 44.6 Q65.25 43.75 65.8 43.45 L66.05 43.3 66.0 43.15 64.6 41.6 64.4 41.45 71.1 41.6 M84.65 70.85 L84.95 71.15 84.7 71.35 84.7 71.25 84.65 70.85 M85.6 69.25 L85.3 68.2 84.85 66.9 84.55 66.2 84.25 65.65 Q85.5 65.45 86.3 65.05 L87.15 64.5 88.2 64.35 89.85 64.7 89.95 64.7 90.1 64.65 90.15 64.65 91.35 64.45 93.3 64.85 94.0 65.1 94.15 65.15 94.1 65.15 93.65 65.75 93.0 66.4 92.7 66.25 Q91.6 65.5 89.7 65.5 L88.05 65.65 87.65 66.0 86.8 66.9 86.1 67.75 85.6 69.25 M95.35 63.55 L95.25 63.5 95.0 63.35 95.55 63.3 95.35 63.55 M90.2 62.2 L90.1 61.95 90.15 62.0 90.4 62.15 90.2 62.2 M83.15 58.15 L84.5 59.3 86.0 60.6 86.95 61.7 87.75 62.65 87.15 63.2 Q86.35 63.75 84.2 63.85 L83.75 63.9 84.0 63.15 84.1 62.4 Q84.1 61.5 83.7 60.25 L83.1 58.25 83.15 58.15 M54.7 103.2 L54.5 103.1 54.1 102.9 53.75 102.6 Q53.25 101.95 52.75 102.05 L52.7 102.2 51.4 101.35 51.2 101.2 50.55 100.75 50.45 100.7 50.15 100.5 50.05 99.95 Q49.5 99.85 49.35 99.5 L49.35 98.95 Q49.35 97.25 50.6 88.05 L51.9 78.25 52.3 75.65 52.75 73.1 53.1 71.8 53.25 70.6 53.4 71.5 53.65 73.5 53.9 75.55 54.15 76.55 54.35 77.5 54.5 77.85 54.6 79.2 55.05 81.7 55.2 84.15 55.25 84.55 55.25 84.75 55.0 90.9 55.0 97.05 55.1 100.8 Q55.05 102.75 54.7 103.2 M72.7 66.55 L72.8 67.3 72.95 68.45 72.95 68.85 Q72.6 70.15 72.65 70.95 L72.3 75.2 Q71.4 80.25 71.4 83.65 71.4 84.2 71.7 84.85 L71.35 85.2 70.65 85.45 Q70.15 85.5 69.8 85.8 L69.7 85.9 68.8 84.3 69.05 84.3 69.05 84.35 69.5 84.45 69.85 84.2 70.1 84.2 70.3 84.1 70.4 83.55 70.15 83.25 70.5 79.7 70.5 79.55 70.65 78.65 70.65 77.6 70.85 75.65 71.15 73.8 71.45 71.85 71.75 70.0 Q71.75 69.6 72.3 67.95 L72.7 66.55 M74.85 108.65 L74.45 109.0 74.25 108.65 74.1 108.65 72.0 108.65 71.4 106.9 70.4 103.0 Q69.9 101.75 68.4 99.4 L66.3 96.0 66.2 96.55 66.1 97.15 66.45 99.6 66.95 102.65 67.35 105.75 67.7 108.2 67.7 108.25 67.3 108.2 67.0 108.3 66.85 108.15 Q66.1 107.0 65.5 103.25 64.9 99.6 64.9 97.2 L64.95 95.1 Q65.6 94.3 66.25 94.4 66.8 94.5 67.65 95.25 69.05 96.5 70.65 99.3 L73.25 104.0 75.05 107.75 74.95 108.35 74.85 108.65" fill="#5c0404" fill-rule="evenodd" stroke="none"/>
    <path d="M122.15 61.5 L122.5 62.0 122.7 62.75 Q122.7 63.8 120.1 64.9 117.8 66.0 116.35 66.0 L113.35 65.6 108.7 65.2 105.8 65.45 105.6 65.35 105.0 65.05 104.85 64.9 105.9 64.45 106.0 64.4 108.2 63.1 Q112.35 61.2 119.05 61.2 L120.95 61.3 121.0 61.3 121.9 61.45 122.15 61.5 M95.4 42.85 L94.7 41.8 94.5 41.55 94.2 41.2 92.7 39.7 92.4 39.15 Q92.1 38.55 92.1 38.05 L92.5 36.45 Q93.95 37.0 99.7 38.15 L102.1 38.85 103.8 39.95 Q104.8 40.6 106.2 42.25 L108.0 44.5 107.9 44.7 107.2 46.35 107.05 46.35 105.45 44.5 103.6 43.25 101.7 41.85 Q101.3 41.55 98.55 40.6 L95.85 39.75 95.2 39.65 95.9 40.6 97.7 42.5 98.95 44.2 98.9 44.15 99.1 44.5 Q99.45 44.95 99.45 45.8 L99.5 46.3 99.45 46.45 99.55 46.5 99.55 47.7 99.55 49.35 99.0 51.15 98.55 52.1 98.15 52.95 97.65 53.5 96.95 53.15 95.2 52.55 96.05 50.85 96.35 49.25 96.35 46.7 96.2 45.2 96.2 45.15 95.4 42.9 95.4 42.85 95.5 42.85 95.4 42.85 M111.9 79.8 L111.85 79.45 112.05 78.5 112.3 77.1 Q112.3 75.3 110.65 72.15 109.85 70.4 107.9 69.0 L106.8 68.2 106.75 68.2 104.55 67.5 102.15 66.3 100.3 65.85 99.7 65.7 98.6 65.5 96.35 65.4 95.8 66.35 94.4 68.75 93.7 70.05 93.0 71.35 92.45 72.9 92.35 73.15 92.1 73.95 92.1 74.0 91.2 76.2 90.85 77.0 90.85 77.05 90.65 77.25 90.5 77.8 89.25 80.3 88.35 83.25 88.25 83.5 88.2 83.7 88.05 83.8 87.4 84.75 86.8 85.75 86.3 86.75 Q86.3 87.05 86.65 87.25 L85.9 86.65 83.45 84.75 84.0 83.6 85.9 79.45 88.15 75.25 90.4 71.2 91.85 69.6 91.9 69.6 92.1 69.4 93.8 67.55 96.7 63.95 96.8 64.0 96.95 64.1 97.0 64.1 97.55 64.25 99.8 64.6 Q103.7 65.45 106.15 67.1 L106.3 67.2 108.4 68.8 110.45 70.85 Q111.65 72.5 112.55 74.5 L114.15 78.55 113.05 79.2 112.75 79.25 112.7 79.25 112.65 79.35 111.9 79.8 M89.6 81.55 L89.6 81.6 89.55 81.6 89.6 81.55 M89.35 88.4 L89.5 88.4 89.5 88.45 89.35 88.4" fill="#473629" fill-rule="evenodd" stroke="none"/>
    <path d="M105.8 65.45 L108.7 65.2 113.35 65.6 116.35 66.0 Q117.8 66.0 120.1 64.9 122.7 63.8 122.7 62.75 L122.5 62.0 122.15 61.5 123.15 61.7 123.25 61.85 123.45 62.8 Q123.45 63.45 123.05 63.75 L121.7 64.85 Q121.1 65.5 119.7 66.05 L116.15 66.7 112.5 66.35 108.6 66.05 109.4 66.7 109.4 66.75 Q111.6 68.7 114.1 71.85 L115.65 74.85 116.75 77.9 117.95 80.9 119.0 83.75 119.75 85.35 120.95 86.75 123.7 88.5 124.65 89.1 124.55 89.1 Q119.95 89.1 117.85 83.95 L116.55 80.45 Q116.1 79.25 115.55 78.95 L114.15 75.0 Q113.05 72.15 111.45 70.25 L109.05 68.0 106.6 66.0 105.8 65.45 M107.15 46.45 L106.75 47.5 106.1 49.05 105.95 48.8 105.05 47.5 Q104.25 46.8 103.1 46.2 L100.9 45.0 100.65 44.85 100.4 44.75 100.25 44.7 100.1 44.65 99.9 44.55 99.8 44.5 98.95 44.2 97.7 42.5 95.9 40.6 95.2 39.65 95.85 39.75 98.55 40.6 Q101.3 41.55 101.7 41.85 L103.6 43.25 105.45 44.5 107.05 46.35 107.15 46.45 M92.45 72.9 L93.0 71.35 93.7 70.05 94.4 68.75 95.8 66.35 96.35 65.4 98.6 65.5 99.7 65.7 100.3 65.85 102.15 66.3 104.55 67.5 106.75 68.2 106.8 68.2 107.9 69.0 Q109.85 70.4 110.65 72.15 112.3 75.3 112.3 77.1 L112.05 78.5 111.85 79.45 111.9 79.8 111.65 79.95 110.7 80.5 Q110.45 80.45 110.45 79.85 L110.85 78.5 Q111.3 77.55 111.3 76.4 L111.25 74.7 109.85 72.5 Q107.5 69.0 102.65 69.0 L101.55 69.1 101.5 68.95 101.45 68.9 Q99.2 69.25 96.7 70.15 93.65 71.25 93.0 72.4 L92.45 72.9 M112.65 79.35 L112.7 79.25 112.75 79.25 113.05 79.2 112.65 79.35 M95.7 73.45 L95.0 73.7 95.2 73.55 95.85 73.1 95.7 73.45 M89.5 88.45 L89.5 88.4 89.65 88.35 89.95 88.4 90.25 88.4 90.2 88.5 89.8 88.5 89.5 88.45" fill="#604837" fill-rule="evenodd" stroke="none"/>
    <path d="M123.25 61.85 L123.15 61.7 Q125.45 62.3 127.8 63.5 131.8 65.7 133.05 68.1 133.95 70.0 134.1 72.5 L134.15 76.85 134.1 80.3 Q133.95 82.35 132.9 83.55 131.85 85.25 130.5 86.55 128.15 88.85 125.3 89.1 L123.45 86.75 Q121.2 84.4 120.65 83.05 119.05 79.1 118.45 76.75 L117.3 73.6 115.75 70.35 114.4 68.75 112.65 67.3 115.55 67.4 119.8 67.15 Q121.9 66.85 122.8 65.65 L123.8 64.35 124.15 63.1 124.1 62.3 Q123.9 61.9 123.25 61.85 M95.4 42.85 L95.5 42.85 95.4 42.85 M86.65 87.25 Q86.3 87.05 86.3 86.75 L86.8 85.75 87.4 84.75 88.05 83.8 88.2 83.7 88.25 83.5 88.95 82.85 89.4 82.75 91.9 82.35 92.55 82.35 93.0 82.55 93.0 82.5 93.35 82.5 93.6 82.5 98.5 81.85 102.35 81.05 105.25 80.1 107.25 79.65 Q108.5 79.65 108.6 80.55 L108.7 81.2 109.0 81.5 105.35 83.55 100.75 86.25 Q99.8 86.95 98.25 87.45 95.2 88.5 90.55 88.5 L90.4 88.5 90.2 88.5 90.25 88.4 89.95 88.4 89.65 88.35 89.5 88.4 89.35 88.4 89.1 88.4 87.7 87.9 86.65 87.25" fill="#bba18d" fill-rule="evenodd" stroke="none"/>
    <path d="M109.4 66.75 L109.4 66.7 108.6 66.05 112.5 66.35 116.15 66.7 119.7 66.05 Q121.1 65.5 121.7 64.85 L123.05 63.75 Q123.45 63.45 123.45 62.8 L123.25 61.85 Q123.9 61.9 124.1 62.3 L124.15 63.1 123.8 64.35 122.8 65.65 Q121.9 66.85 119.8 67.15 L115.55 67.4 112.65 67.3 110.95 67.2 110.75 67.0 110.4 66.9 109.55 66.85 109.4 66.75 M106.1 49.05 L105.65 50.05 105.45 50.5 104.65 49.75 102.2 47.8 99.95 46.6 99.55 46.5 99.45 46.45 99.5 46.3 99.45 45.8 Q99.45 44.95 99.1 44.5 L98.9 44.15 98.95 44.2 99.8 44.5 99.9 44.55 100.1 44.65 100.25 44.7 100.4 44.75 100.65 44.85 100.9 45.0 103.1 46.2 Q104.25 46.8 105.05 47.5 L105.95 48.8 106.1 49.05 M90.85 77.0 L91.2 76.2 92.1 74.0 92.1 73.95 92.35 73.15 92.45 72.9 93.0 72.4 Q93.65 71.25 96.7 70.15 99.2 69.25 101.45 68.9 L101.5 68.95 101.55 69.1 102.65 69.0 Q107.5 69.0 109.85 72.5 L111.25 74.7 111.3 76.4 Q111.3 77.55 110.85 78.5 L110.45 79.85 Q110.45 80.45 110.7 80.5 L109.95 80.95 109.95 80.9 109.9 80.8 109.9 80.15 109.75 79.55 109.6 78.9 109.6 78.2 109.65 77.6 109.6 76.35 Q108.9 74.35 106.8 73.1 104.55 71.8 101.8 71.8 L101.45 71.85 100.1 71.65 98.4 72.3 Q97.25 72.65 96.75 72.9 96.1 73.2 95.7 73.45 L95.85 73.1 95.2 73.55 95.0 73.7 94.15 74.15 Q92.85 74.8 92.15 75.55 L90.85 77.0 M99.0 73.1 L99.25 73.0 99.05 73.2 99.0 73.1" fill="#795b46" fill-rule="evenodd" stroke="none"/>
    <path d="M124.65 89.1 L123.7 88.5 120.95 86.75 119.75 85.35 119.0 83.75 117.95 80.9 116.75 77.9 115.65 74.85 114.1 71.85 Q111.6 68.7 109.4 66.75 L109.55 66.85 110.4 66.9 110.75 67.0 110.95 67.2 112.65 67.3 114.4 68.75 115.75 70.35 117.3 73.6 118.45 76.75 Q119.05 79.1 120.65 83.05 121.2 84.4 123.45 86.75 L125.3 89.1 124.75 89.1 124.65 89.1 M105.45 50.5 L105.1 51.35 104.35 52.4 Q103.25 53.3 99.7 53.95 L99.65 53.95 97.65 53.5 98.15 52.95 98.55 52.1 99.0 51.15 99.55 49.35 99.55 47.7 99.55 46.5 99.95 46.6 102.2 47.8 104.65 49.75 105.45 50.5 M88.25 83.5 L88.35 83.25 89.25 80.3 90.5 77.8 90.65 77.25 90.85 77.05 90.85 77.0 92.15 75.55 Q92.85 74.8 94.15 74.15 L95.0 73.7 95.7 73.45 Q96.1 73.2 96.75 72.9 97.25 72.65 98.4 72.3 L100.1 71.65 101.45 71.85 101.8 71.8 Q104.55 71.8 106.8 73.1 108.9 74.35 109.6 76.35 L109.65 77.6 109.6 78.2 109.6 78.9 109.75 79.55 109.9 80.15 109.9 80.8 109.95 80.9 109.95 80.95 109.65 81.1 Q109.35 81.25 109.0 81.5 L108.7 81.2 108.6 80.55 Q108.5 79.65 107.25 79.65 L105.25 80.1 102.35 81.05 98.5 81.85 93.6 82.5 93.35 82.5 93.0 82.5 93.0 82.55 92.55 82.35 91.9 82.35 89.4 82.75 88.95 82.85 88.25 83.5 M99.0 73.1 L99.05 73.2 99.25 73.0 99.0 73.1 M89.6 81.55 L89.55 81.6 89.6 81.6 89.6 81.55" fill="#946f56" fill-rule="evenodd" stroke="none"/>
    <path d="M112.05 57.65 L112.95 58.0 Q114.4 58.45 114.8 59.0 L115.4 60.15 110.5 60.75 Q110.3 60.8 109.85 61.15 L109.7 60.95 111.5 58.45 112.05 57.65 M116.7 84.8 L116.75 84.8 117.2 85.35 117.8 86.35 119.0 88.05 Q121.1 90.35 124.55 90.35 126.9 90.35 128.95 89.2 L129.0 89.2 128.85 89.75 Q128.8 90.7 129.05 92.5 L128.95 95.15 128.8 97.75 Q128.6 104.2 127.55 105.95 126.9 107.0 125.75 107.35 L122.6 107.75 Q117.3 107.75 114.15 106.85 L112.05 106.2 110.45 105.9 111.85 103.9 112.7 101.2 112.65 101.2 113.15 99.95 Q114.75 99.9 115.25 98.35 115.55 97.5 115.55 95.35 115.55 94.3 115.2 93.6 L116.7 88.75 116.7 84.8 M71.9 37.5 L74.4 37.7 74.5 37.7 74.85 37.75 74.9 37.75 75.05 37.75 76.0 37.95 76.05 37.95 78.55 41.6 78.6 41.65 78.7 41.7 78.8 41.9 78.85 41.95 79.75 43.25 79.8 43.35 79.8 43.45 79.8 43.5 79.5 43.25 78.55 42.75 78.5 42.7 78.35 42.7 78.2 42.65 76.6 41.75 74.5 40.8 73.5 40.4 Q68.65 39.15 64.65 39.8 62.4 40.15 57.9 41.65 57.95 40.95 58.25 40.3 L59.05 39.8 59.75 39.55 60.8 39.2 61.7 38.85 62.6 38.45 65.15 38.4 72.25 39.05 73.55 39.35 72.8 38.55 71.9 37.5 M71.1 41.6 L73.4 41.7 75.0 42.2 76.55 43.15 Q76.75 43.35 78.1 43.95 79.2 44.45 79.6 44.8 L80.6 45.6 81.9 46.9 82.2 47.2 81.05 46.7 79.6 45.9 78.05 44.95 Q76.75 44.4 74.85 44.35 74.65 43.5 73.4 43.5 L72.6 42.7 71.25 41.7 71.1 41.6 M84.65 70.85 L83.6 67.1 83.05 65.35 82.7 64.3 82.25 63.0 Q82.15 60.75 81.65 58.55 81.3 56.45 80.7 55.05 L82.8 55.3 82.8 55.35 82.8 55.45 82.8 55.7 84.85 57.75 87.2 59.8 89.65 61.65 89.85 61.8 90.1 61.95 90.2 62.2 Q89.55 62.5 89.0 63.0 L89.2 63.55 89.8 63.6 90.9 63.6 91.3 63.6 92.0 63.55 92.0 63.75 92.1 63.75 92.1 63.55 92.55 63.5 93.25 63.35 95.0 63.35 95.25 63.5 95.35 63.55 95.2 63.8 94.15 65.15 94.0 65.1 93.3 64.85 91.35 64.45 90.15 64.65 90.1 64.65 89.95 64.7 89.85 64.7 88.2 64.35 87.15 64.5 86.3 65.05 Q85.5 65.45 84.25 65.65 L84.55 66.2 84.85 66.9 85.3 68.2 85.6 69.25 85.5 69.55 84.95 71.15 84.65 70.85 M83.15 58.15 L83.1 58.25 83.7 60.25 Q84.1 61.5 84.1 62.4 L84.0 63.15 83.75 63.9 84.2 63.85 Q86.35 63.75 87.15 63.2 L87.75 62.65 86.95 61.7 86.0 60.6 84.5 59.3 83.15 58.15 M99.0 54.8 Q99.25 55.15 99.85 55.15 L100.0 55.15 100.0 55.2 100.9 57.15 101.8 58.95 101.05 59.45 100.8 59.7 100.8 59.15 Q99.7 56.85 98.4 55.55 L97.55 54.8 99.0 54.8 M102.25 60.15 L103.15 64.3 100.8 63.8 100.8 61.05 Q101.7 61.05 102.25 60.15 M52.75 65.8 L52.75 65.75 52.8 65.7 53.9 59.85 54.75 61.2 54.5 62.8 54.3 68.5 54.3 69.15 54.2 70.7 Q54.2 72.15 54.35 73.3 54.6 75.3 55.55 76.15 56.2 76.8 57.2 76.8 L58.0 76.65 57.95 77.5 57.95 81.8 57.65 90.1 57.7 91.65 Q57.8 92.6 58.2 93.2 L61.6 93.2 61.9 93.65 Q62.2 94.15 62.2 95.3 L62.15 96.25 62.2 97.2 62.6 99.1 62.95 101.0 63.1 104.9 63.4 107.35 Q62.05 107.0 60.95 106.45 59.6 105.9 57.5 104.6 L54.7 103.2 Q55.05 102.75 55.1 100.8 L55.0 97.05 55.0 90.9 55.25 84.75 55.25 84.55 55.2 84.15 55.05 81.7 54.6 79.2 54.5 77.85 54.35 77.5 54.15 76.55 53.9 75.55 53.65 73.5 53.4 71.5 53.25 70.6 53.25 70.5 53.3 70.15 53.2 69.2 52.7 66.75 52.75 66.2 52.75 65.8 M54.1 102.9 L52.7 102.2 52.75 102.05 Q53.25 101.95 53.75 102.6 L54.1 102.9 M70.5 79.55 L70.65 72.3 70.9 65.05 71.2 60.15 71.15 57.55 70.9 55.75 70.9 55.45 70.85 55.05 71.55 54.9 71.5 55.4 71.9 60.75 72.6 65.95 72.6 66.1 72.65 66.25 72.7 66.55 72.3 67.95 Q71.75 69.6 71.75 70.0 L71.45 71.85 71.15 73.8 70.85 75.65 70.65 77.6 70.65 78.65 70.5 79.55 M66.85 108.15 L64.7 107.7 64.5 104.2 63.85 100.1 63.55 98.1 63.3 96.1 Q63.15 95.85 63.25 95.2 L63.4 94.05 63.2 93.2 63.35 93.2 63.45 93.15 63.55 92.85 64.1 91.45 64.15 89.4 64.35 87.35 64.4 85.75 64.4 85.25 65.6 84.95 66.2 84.8 66.15 86.65 65.8 88.85 65.55 90.5 65.6 91.6 65.8 91.65 66.15 91.75 66.5 91.15 66.6 91.2 69.8 91.2 Q70.2 90.95 70.5 90.85 L70.65 91.2 71.2 92.65 71.45 93.95 Q71.75 94.65 72.9 94.85 L73.4 94.6 Q74.55 94.4 77.15 92.5 77.15 93.25 78.0 96.9 79.0 101.0 79.7 102.3 L80.7 104.75 Q81.45 106.3 82.6 106.9 L82.55 107.0 82.25 107.7 Q81.0 108.6 74.85 108.65 L74.95 108.35 75.05 107.75 73.25 104.0 70.65 99.3 Q69.05 96.5 67.65 95.25 66.8 94.5 66.25 94.4 65.6 94.3 64.95 95.1 L64.9 97.2 Q64.9 99.6 65.5 103.25 66.1 107.0 66.85 108.15" fill="#3e0202" fill-rule="evenodd" stroke="none"/>
    <path d="M92.15 28.45 L92.1 27.5 92.0 27.2 92.1 27.05 93.1 27.3 94.55 27.65 95.35 28.3 96.6 29.0 97.6 30.0 97.65 30.05 97.4 30.25 96.4 31.15 96.2 31.15 96.15 30.85 96.05 30.45 95.05 29.65 94.2 29.25 Q94.15 28.1 93.3 28.05 92.6 27.95 92.45 28.55 L92.15 28.45 M106.7 34.1 L106.7 33.95 106.7 33.4 107.55 33.45 108.65 33.6 109.65 33.8 109.7 33.8 111.05 34.85 111.3 35.1 111.3 35.2 111.15 35.3 110.75 35.7 110.65 35.8 110.4 36.05 110.1 36.15 110.0 36.15 109.7 35.85 108.5 34.85 108.3 34.75 Q108.3 33.85 107.55 33.85 107.05 33.85 106.9 34.25 L106.75 34.1 106.7 34.1 M80.1 49.55 L78.85 48.35 77.15 47.2 75.5 45.85 77.15 46.3 79.35 47.2 80.5 48.0 83.4 50.0 81.2 49.7 80.1 49.55 M93.75 61.3 L93.8 61.3 94.1 61.9 93.8 61.8 91.55 61.15 91.4 61.0 90.05 60.3 87.85 58.55 85.65 56.45 84.95 55.85 86.6 56.55 89.2 58.8 Q92.45 61.35 93.3 61.35 L93.75 61.3 M73.15 59.05 L72.85 56.95 72.25 54.85 75.55 54.65 80.15 54.9 80.05 55.15 79.95 55.95 79.95 56.4 79.95 56.45 80.05 57.55 80.1 57.75 79.8 57.5 Q78.55 56.45 76.9 56.45 73.85 56.45 73.35 58.2 L73.15 59.05 M64.05 62.15 L64.05 62.0 64.15 61.15 64.15 61.05 64.1 60.0 Q63.85 59.6 63.3 59.6 L64.15 58.75 65.1 57.4 66.0 56.35 Q66.4 55.95 68.65 55.4 L68.85 55.35 69.9 55.2 69.8 55.95 70.0 56.1 70.3 56.25 Q70.0 57.2 70.0 58.6 L70.05 62.2 69.75 65.8 69.5 69.4 69.3 74.9 68.3 75.15 68.25 74.4 68.5 71.85 68.7 68.75 68.9 65.85 69.1 63.0 68.9 60.15 68.8 59.6 68.7 58.25 68.25 58.4 Q66.85 58.95 66.2 59.8 L64.95 61.3 64.05 62.2 64.05 62.15 M58.7 73.45 Q58.8 71.85 59.2 70.0 L60.65 64.45 Q61.15 62.45 62.5 60.6 L62.7 60.95 63.0 61.7 62.7 63.75 62.5 65.05 62.45 65.25 62.5 65.2 62.5 65.4 62.5 66.45 62.5 66.55 62.5 68.9 62.5 71.2 61.6 80.7 61.6 84.55 61.55 84.55 61.45 84.7 61.15 84.7 61.15 84.55 61.05 83.55 61.25 80.3 61.5 77.4 61.4 74.3 61.4 73.75 61.4 73.55 61.35 71.6 61.35 71.5 61.35 71.25 61.35 71.2 Q61.35 68.65 61.6 66.85 L61.0 68.1 59.7 71.5 59.45 73.25 59.25 73.9 58.8 73.45 58.7 73.45 M112.7 83.4 Q111.8 83.5 110.3 84.2 L108.3 84.8 107.9 85.0 107.9 83.55 Q108.9 83.0 110.4 82.35 L113.2 80.9 113.25 80.95 Q113.05 81.25 112.95 82.35 L112.95 82.4 112.85 82.55 112.85 82.65 112.8 82.85 112.8 82.95 112.7 83.4 M95.35 91.85 L94.6 90.75 94.6 90.55 Q94.6 89.85 94.2 89.7 L98.9 88.7 Q100.4 88.15 104.15 85.8 L104.25 85.95 104.05 86.95 103.5 87.1 102.95 87.45 101.95 88.05 102.25 88.0 Q103.6 88.5 104.45 89.9 105.1 91.15 105.0 92.25 L107.1 90.75 109.6 90.4 Q112.7 90.4 114.15 90.95 L114.5 91.15 Q114.45 90.25 114.2 89.7 114.0 89.2 113.65 89.05 L113.6 89.0 113.65 88.95 113.8 88.85 113.95 88.75 114.95 87.3 114.95 89.5 114.5 91.2 114.3 91.85 114.2 92.45 114.15 92.55 114.1 92.55 113.85 92.4 113.55 92.25 Q111.8 91.5 108.5 91.5 107.05 91.5 105.8 93.55 L105.0 95.05 104.25 95.65 Q103.3 95.65 102.85 94.7 102.55 94.15 102.55 93.55 L102.55 92.95 103.2 93.05 103.8 93.2 104.5 93.0 Q104.1 90.2 102.85 89.3 L102.75 89.25 100.4 89.35 Q99.15 89.95 98.15 91.2 L97.85 91.6 98.15 90.2 97.95 90.3 96.4 91.1 95.35 91.85 M91.15 93.75 L91.7 93.6 91.8 93.8 91.8 94.35 Q91.8 95.05 91.2 95.55 90.45 96.15 89.45 96.15 88.4 96.15 87.15 94.4 L87.1 94.2 86.45 93.3 85.6 92.15 83.8 90.7 Q82.7 90.0 80.8 89.55 L80.7 89.4 82.0 87.8 83.0 85.65 83.45 86.2 85.3 87.8 Q88.25 89.8 90.55 89.8 L92.5 89.75 91.85 90.05 89.75 91.5 88.7 92.7 87.45 92.8 87.65 93.05 88.4 94.2 89.05 95.15 Q90.05 95.15 90.6 94.65 L90.95 94.05 91.15 93.75 M96.0 93.5 L96.1 93.5 96.0 93.55 96.0 93.5 M85.3 106.6 L84.7 106.5 Q83.65 106.3 82.7 105.3 L81.35 103.1 80.3 100.7 Q79.65 99.35 79.25 97.1 79.75 97.2 80.65 97.55 L80.65 97.8 Q80.65 98.85 81.65 100.75 L83.3 103.3 84.9 106.0 85.3 106.6 M103.9 88.7 L103.8 88.6 103.95 88.5 103.9 88.7" fill="#666666" fill-rule="evenodd" stroke="none"/>
    <path d="M96.2 31.15 L95.4 31.25 94.95 31.25 93.1 30.85 Q92.5 30.2 92.25 29.3 L92.15 28.5 92.15 28.45 92.45 28.55 92.4 29.1 92.5 29.85 Q92.7 30.25 93.35 30.25 94.0 30.25 94.15 29.9 L94.2 29.45 94.2 29.25 95.05 29.65 96.05 30.45 96.15 30.85 96.2 31.15 M110.1 36.15 L108.5 36.35 Q106.9 36.35 106.7 34.2 L106.75 34.1 106.9 34.25 106.8 34.6 106.9 35.2 Q107.15 35.5 107.6 35.5 108.15 35.5 108.3 35.2 L108.3 34.8 108.3 34.75 108.5 34.85 109.7 35.85 110.0 36.15 110.1 36.15 M72.7 45.35 L72.65 45.35 72.65 45.5 75.4 47.8 76.75 48.95 76.8 49.05 74.2 48.8 73.85 48.8 73.7 48.8 73.6 48.8 73.5 48.8 70.65 49.05 70.6 49.05 70.3 47.7 69.45 45.95 69.25 45.55 71.1 45.3 71.2 45.25 72.35 45.25 72.7 45.35 M86.6 56.55 L86.7 56.55 90.45 58.85 90.45 58.9 90.55 58.9 90.6 58.95 90.65 58.95 93.5 61.05 93.75 61.3 93.3 61.35 Q92.45 61.35 89.2 58.8 L86.6 56.55 M80.4 59.35 L80.75 60.75 79.9 60.6 79.75 60.15 Q79.6 59.55 77.9 59.55 L76.1 59.8 74.35 60.95 74.75 64.35 75.05 67.45 74.85 67.55 74.4 67.75 74.2 67.95 74.15 67.75 74.15 67.55 74.1 67.35 73.75 64.75 73.7 64.55 73.65 64.4 73.65 64.2 73.5 61.65 73.4 61.75 73.2 59.5 73.75 59.05 74.2 58.8 74.6 58.45 74.95 58.3 75.45 58.05 75.55 58.0 75.9 57.9 76.0 57.9 76.05 57.9 Q78.05 57.9 79.2 58.6 L79.9 59.1 80.4 59.35 M68.3 75.15 L67.8 75.3 67.65 73.55 67.5 71.85 67.8 67.25 68.1 63.45 68.1 62.05 68.05 62.05 65.75 64.45 63.75 66.0 63.6 66.0 63.75 64.2 64.95 63.2 66.1 61.85 67.25 60.35 Q67.9 59.75 68.8 59.6 L68.9 60.15 69.1 63.0 68.9 65.85 68.7 68.75 68.5 71.85 68.25 74.4 68.3 75.15 M61.05 84.7 L60.55 84.7 Q60.4 83.6 60.4 81.55 L60.5 78.2 60.65 73.0 60.65 72.95 60.7 72.75 61.25 71.4 61.35 71.5 61.35 71.6 61.4 73.55 61.4 73.75 61.4 74.3 61.5 77.4 61.25 80.3 61.05 83.55 61.15 84.55 61.05 84.7 M96.35 95.05 L96.5 94.75 97.05 94.35 97.55 94.65 98.45 97.75 98.7 98.35 99.35 99.6 99.5 99.75 Q101.3 101.65 104.95 101.65 106.85 101.65 108.15 99.9 L109.4 97.85 110.2 98.4 110.75 99.1 111.7 99.75 111.0 102.1 111.0 102.2 Q110.7 102.7 110.5 103.35 109.85 105.05 109.35 105.3 108.05 106.1 101.55 108.65 L94.65 107.95 88.15 107.0 86.85 106.85 86.2 105.85 84.1 102.3 81.9 98.05 85.0 99.8 85.95 100.75 86.8 101.6 Q88.0 102.5 90.95 102.75 L91.55 102.25 91.6 102.2 91.8 102.2 Q92.15 102.2 93.5 100.6 L95.0 98.7 95.2 98.2 96.05 96.6 Q96.35 96.2 96.35 95.3 L96.35 95.05" fill="#cccccc" fill-rule="evenodd" stroke="none"/>
    <path d="M92.45 28.55 Q92.6 27.95 93.3 28.05 94.15 28.1 94.2 29.25 L94.2 29.45 94.15 29.9 Q94.0 30.25 93.35 30.25 92.7 30.25 92.5 29.85 L92.4 29.1 92.45 28.55 M106.7 34.2 L106.7 34.1 106.75 34.1 106.7 34.2 M106.9 34.25 Q107.05 33.85 107.55 33.85 108.3 33.85 108.3 34.75 L108.3 34.8 108.3 35.2 Q108.15 35.5 107.6 35.5 107.15 35.5 106.9 35.2 L106.8 34.6 106.9 34.25" fill="#ffffff" fill-rule="evenodd" stroke="none"/>
    <path d="M75.5 45.85 L77.15 47.2 78.85 48.35 80.1 49.55 77.7 49.15 76.85 49.05 76.75 48.95 75.4 47.8 72.65 45.5 72.65 45.35 72.7 45.35 72.85 45.35 73.65 45.5 73.85 45.55 75.5 45.85 M80.1 57.75 L80.4 59.35 79.9 59.1 79.2 58.6 Q78.05 57.9 76.05 57.9 L76.0 57.9 75.9 57.9 75.55 58.0 75.45 58.05 74.95 58.3 74.6 58.45 74.2 58.8 73.75 59.05 73.2 59.5 73.2 59.35 73.2 59.3 73.15 59.05 73.35 58.2 Q73.85 56.45 76.9 56.45 78.55 56.45 79.8 57.5 L80.1 57.75 M63.75 64.2 L63.85 63.55 64.05 62.15 64.05 62.2 64.95 61.3 66.2 59.8 Q66.85 58.95 68.25 58.4 L68.7 58.25 68.8 59.6 Q67.9 59.75 67.25 60.35 L66.1 61.85 64.95 63.2 63.75 64.2 M59.45 76.55 L59.55 75.55 Q59.6 74.5 59.25 73.9 L59.45 73.25 59.7 71.5 61.0 68.1 61.6 66.85 Q61.35 68.65 61.35 71.2 L61.35 71.25 61.25 71.4 60.7 72.75 60.65 73.05 60.05 74.95 59.7 76.15 59.45 76.55 M107.9 85.0 L108.3 84.8 110.3 84.2 Q111.8 83.5 112.7 83.4 L112.5 83.85 112.55 84.1 112.4 84.8 Q112.0 85.45 111.2 85.45 L110.75 85.4 110.65 85.45 107.9 85.45 107.9 85.0 M95.35 91.85 L96.4 91.1 97.95 90.3 98.15 90.2 97.85 91.6 Q97.15 92.5 97.15 93.0 L97.15 93.2 97.55 94.65 97.05 94.35 96.5 94.75 96.35 95.05 96.0 93.55 96.1 93.5 96.0 93.5 95.75 92.65 95.35 91.85 M113.6 89.0 L113.65 89.05 Q114.0 89.2 114.2 89.7 114.45 90.25 114.5 91.15 L114.15 90.95 Q112.7 90.4 109.6 90.4 L107.1 90.75 105.0 92.25 Q105.1 91.15 104.45 89.9 103.6 88.5 102.25 88.0 L101.95 88.05 102.95 87.45 103.5 87.1 104.05 86.95 103.95 88.25 103.95 88.5 103.8 88.6 103.9 88.7 104.2 89.1 108.3 89.55 109.8 89.5 109.75 89.35 111.85 89.6 112.35 89.55 112.65 89.5 Q113.05 89.25 113.5 89.05 L113.6 89.05 113.6 89.0 M91.15 93.75 L90.95 94.05 90.6 94.65 Q90.05 95.15 89.05 95.15 L88.4 94.2 87.65 93.05 87.45 92.8 88.7 92.7 88.4 93.2 89.6 93.65 90.3 93.75 91.15 93.75 M80.65 97.55 L80.7 97.55 81.9 98.05 84.1 102.3 86.2 105.85 86.85 106.85 86.75 106.85 86.65 106.85 85.3 106.6 84.9 106.0 83.3 103.3 81.65 100.75 Q80.65 98.85 80.65 97.8 L80.65 97.55" fill="#999999" fill-rule="evenodd" stroke="none"/>
    <path d="M76.75 48.95 L76.85 49.05 76.8 49.05 76.75 48.95 M80.75 60.75 Q81.1 62.5 81.8 64.6 L82.2 65.85 81.7 65.85 77.15 66.7 Q75.65 67.15 75.05 67.45 L74.75 64.35 74.35 60.95 76.1 59.8 77.9 59.55 Q79.6 59.55 79.75 60.15 L79.9 60.6 80.75 60.75 M74.2 67.95 L74.15 67.75 74.2 67.95 M73.65 64.4 L73.4 61.75 73.5 61.65 73.65 64.2 73.65 64.4 M70.6 49.05 L70.55 49.05 65.4 51.5 Q62.55 52.95 61.05 55.2 L59.65 57.05 58.3 59.0 57.6 60.75 56.85 62.8 55.6 65.45 55.95 62.6 Q56.55 57.9 57.35 56.25 L58.6 52.9 Q59.45 50.85 61.25 49.85 63.6 48.1 65.2 47.2 67.2 46.05 69.25 45.55 L69.45 45.95 70.3 47.7 70.6 49.05 M67.8 75.3 Q66.8 75.55 65.9 76.05 64.25 76.8 63.1 77.8 L63.3 76.0 63.6 73.05 63.65 70.05 63.6 66.9 63.6 66.0 63.75 66.0 65.75 64.45 68.05 62.05 68.1 62.05 68.1 63.45 67.8 67.25 67.5 71.85 67.65 73.55 67.8 75.3 M62.5 65.05 L62.5 65.4 62.5 65.2 62.45 65.25 62.5 65.05 M61.15 84.7 L61.05 84.7 61.15 84.55 61.15 84.7 M60.55 84.7 L59.0 84.7 59.05 83.6 59.35 77.3 59.45 76.55 59.7 76.15 60.05 74.95 60.65 73.05 60.7 72.75 60.65 72.95 60.65 73.0 60.5 78.2 60.4 81.55 Q60.4 83.6 60.55 84.7 M61.35 71.5 L61.25 71.4 61.35 71.25 61.35 71.5 M106.8 84.2 L106.85 84.2 106.8 84.2 M113.25 80.95 L113.2 80.9 113.3 80.85 113.25 80.95" fill="#e2e2e2" fill-rule="evenodd" stroke="none"/>
    <path d="M107.2 46.35 L107.15 46.45 107.05 46.35 107.2 46.35" fill="#735844" fill-rule="evenodd" stroke="none"/>
  </g>
</svg>
