<?xml version="1.0" encoding="UTF-8" standalone="no"?>
<svg xmlns:ffdec="https://www.free-decompiler.com/flash" xmlns:xlink="http://www.w3.org/1999/xlink" ffdec:objectType="shape" height="90.85px" width="72.45px" xmlns="http://www.w3.org/2000/svg">
  <g transform="matrix(1.0, 0.0, 0.0, 1.0, -49.25, 9.55)">
    <path d="M50.3 61.6 L50.35 61.6 50.45 61.7 50.3 61.6" fill="#135320" fill-rule="evenodd" stroke="none"/>
    <path d="M50.3 61.6 L50.15 61.55 50.1 61.55 50.1 61.5 50.05 61.35 50.05 61.3 50.3 60.65 50.65 59.8 51.05 59.05 51.7 58.25 52.7 56.75 53.65 55.25 55.0 53.0 54.95 52.75 54.9 52.15 54.85 52.15 54.75 52.65 54.45 53.05 54.35 52.95 54.35 53.1 54.3 53.3 54.1 53.35 53.95 53.3 Q53.5 51.8 53.35 49.75 L53.3 46.1 53.35 43.8 53.65 41.4 Q53.2 41.55 53.0 41.95 L52.65 42.7 52.45 43.5 52.0 44.1 51.8 44.1 51.75 44.0 51.75 43.75 Q51.75 41.5 52.55 37.65 53.4 33.6 54.2 32.9 L54.25 32.85 54.1 32.85 52.3 34.3 50.35 35.55 50.05 35.5 50.05 35.2 50.85 33.5 51.85 31.25 52.55 29.3 53.3 27.6 53.45 27.2 53.4 27.2 53.15 27.55 52.55 27.75 52.1 27.7 52.1 27.4 52.65 25.9 53.45 24.0 55.55 20.5 Q56.45 19.0 58.45 17.0 L62.2 13.5 61.3 13.5 58.45 13.6 58.25 13.4 57.95 13.4 Q57.6 13.3 57.55 13.2 L57.6 12.95 Q57.6 12.7 60.15 11.35 L63.4 9.65 Q64.85 8.9 66.7 8.3 L66.75 8.25 68.2 7.8 71.35 7.05 74.05 6.55 72.9 4.8 Q71.9 3.55 71.9 3.0 L71.8 2.8 71.8 2.6 Q71.8 1.7 72.85 2.3 L74.25 3.3 74.4 3.4 75.2 3.9 Q75.7 4.15 75.95 4.35 L76.7 4.7 77.05 4.8 77.3 4.95 78.35 3.05 80.5 -0.6 81.55 -2.1 81.9 -2.6 82.55 -3.7 82.95 -4.8 83.0 -4.95 83.55 -5.95 83.6 -6.0 83.9 -7.05 84.25 -7.6 Q84.75 -8.05 85.65 -7.8 87.8 -7.25 87.75 -6.05 L87.7 -5.6 87.55 -5.0 87.45 -4.7 Q87.45 -3.05 88.0 -1.1 L88.95 -1.05 89.65 -0.9 Q89.8 -1.3 89.2 -2.85 L88.6 -4.95 88.6 -5.0 Q88.6 -5.45 88.75 -5.65 L89.1 -5.9 90.05 -5.4 92.05 -3.85 94.6 -1.8 94.6 -6.15 94.45 -6.5 94.35 -7.0 94.0 -8.15 94.1 -8.35 94.25 -8.4 94.35 -8.3 94.4 -8.65 95.0 -8.8 Q95.45 -8.8 96.45 -7.5 L97.55 -5.9 100.05 -2.0 100.05 -6.4 99.75 -7.9 Q99.75 -8.75 100.35 -9.3 L100.55 -9.1 100.7 -9.3 101.5 -8.3 102.4 -6.85 104.25 -3.2 105.15 0.0 105.2 0.15 105.65 1.15 107.95 -7.0 108.65 -9.55 108.8 -9.3 Q109.0 -9.7 109.35 -9.5 L109.6 -8.95 109.55 -8.85 109.55 -8.75 109.55 -8.65 109.55 -8.55 109.55 -8.4 109.6 -8.2 109.8 -6.85 110.4 -4.1 110.6 -1.6 110.55 -0.75 110.55 1.6 Q111.9 0.7 113.2 -1.2 L115.2 -3.8 115.45 -3.7 115.95 -4.6 116.2 -4.55 116.2 -4.5 115.4 -1.1 114.5 2.2 113.8 3.8 113.4 4.6 112.6 6.5 112.2 7.8 111.7 9.35 111.5 10.0 109.9 13.55 108.85 15.3 110.55 15.3 112.95 15.25 117.2 15.05 118.0 14.55 Q118.6 14.05 118.75 14.05 119.9 14.0 120.45 14.5 L120.6 14.65 120.85 15.2 121.1 15.7 120.95 16.1 120.3 16.8 119.9 17.2 119.5 17.8 118.05 20.05 115.85 21.7 Q115.15 22.3 114.7 22.4 L114.3 22.5 Q111.7 23.8 110.5 23.8 L110.35 23.95 Q111.25 26.0 111.25 26.8 L111.0 27.75 110.95 27.95 110.75 28.75 Q110.2 30.15 109.45 30.5 L109.65 30.8 109.85 30.95 110.1 31.3 110.2 31.45 110.35 32.6 110.15 36.3 Q110.15 37.95 110.6 40.0 L111.0 41.4 111.25 42.35 111.65 43.05 111.8 43.3 112.3 44.35 111.75 45.55 111.7 45.6 111.7 45.65 111.55 46.1 111.5 46.15 111.6 46.1 Q111.85 46.4 111.9 48.2 L111.9 49.05 111.95 50.5 111.9 51.3 111.9 51.75 111.85 53.7 Q111.7 55.45 111.1 56.65 L110.85 57.3 110.6 58.05 109.75 59.55 109.65 59.6 109.6 59.7 109.35 60.1 109.4 60.25 109.4 60.3 109.45 60.9 Q109.45 63.05 107.6 64.25 L107.3 64.45 106.5 64.85 105.15 65.45 104.2 65.75 103.8 66.1 103.75 66.3 103.55 66.55 Q103.05 66.95 101.45 66.95 L99.25 66.95 99.05 67.2 98.5 67.8 97.5 68.35 Q96.8 68.7 96.65 68.8 L95.5 70.25 Q94.65 71.35 94.2 71.35 93.95 71.35 93.8 71.2 L93.7 70.9 93.8 70.6 93.95 70.4 93.85 70.4 93.75 70.5 Q93.4 70.7 92.8 71.2 L92.6 71.35 93.35 71.8 95.1 72.8 96.95 73.9 98.45 75.15 100.7 77.7 Q102.6 79.95 102.75 80.6 L102.8 80.75 102.8 81.0 102.35 81.3 101.8 80.6 100.8 79.25 99.8 77.9 99.5 77.5 97.75 75.8 95.75 74.35 93.2 73.1 92.55 72.8 92.5 72.8 91.9 72.45 91.45 72.15 Q90.7 72.6 90.05 73.35 L89.2 74.0 88.9 73.9 Q88.75 73.8 88.75 73.55 L88.85 73.3 88.8 73.3 88.95 73.15 89.15 72.8 89.1 72.8 88.75 73.1 87.9 73.85 86.85 74.95 86.4 75.6 86.0 76.25 86.05 76.95 Q86.05 77.5 85.45 77.5 L85.4 77.5 85.2 77.4 85.15 77.3 85.1 77.25 85.05 76.85 85.1 76.4 85.15 75.85 85.35 74.5 84.95 75.5 84.75 75.9 84.3 76.2 Q83.75 76.2 83.85 73.1 L83.85 72.6 84.05 68.45 84.0 68.5 83.85 69.05 83.85 69.15 83.85 69.25 83.75 69.6 83.7 70.1 83.65 70.15 83.55 70.55 83.5 70.6 83.2 71.0 82.85 71.1 82.6 71.0 82.5 70.9 82.2 68.75 82.15 67.45 82.05 66.65 82.0 65.75 80.55 64.6 78.55 62.9 76.65 61.5 Q74.9 60.15 74.9 59.8 74.9 59.65 75.05 59.55 L76.15 59.35 76.15 59.25 71.65 55.55 66.7 51.7 Q64.25 49.8 63.4 47.35 62.7 45.55 62.9 43.15 L62.25 44.05 62.15 44.1 61.45 44.8 61.3 44.8 61.2 44.8 60.95 44.7 60.9 44.6 60.85 44.1 61.3 42.35 61.65 41.2 61.05 42.3 61.0 42.45 60.5 43.45 58.6 46.5 Q57.3 48.45 57.05 49.55 56.5 51.95 54.0 55.55 L52.05 58.55 51.3 59.9 52.3 59.15 52.3 59.75 Q50.7 62.05 49.25 64.6 L49.25 63.75 49.3 63.65 49.35 63.55 49.4 63.5 50.35 61.9 50.45 61.7 50.5 61.65 50.55 61.6 50.35 61.6 50.3 61.6 M91.75 9.9 L91.75 10.1 91.05 10.25 90.6 10.2 90.55 10.1 90.45 9.95 90.4 9.6 Q90.4 8.0 89.3 5.5 L87.45 1.4 86.7 -0.6 Q86.25 -1.8 86.25 -2.7 86.25 -4.05 86.4 -4.85 86.55 -5.6 86.15 -6.05 L85.2 -6.55 85.2 -6.5 85.0 -6.1 84.85 -5.9 84.85 -5.85 84.75 -5.75 84.9 -5.85 85.45 -6.1 85.65 -5.8 85.95 -5.55 86.0 -5.05 85.6 -2.6 85.55 -2.4 85.45 -0.75 85.5 1.55 85.45 3.35 85.35 6.45 85.45 10.95 84.75 11.15 83.9 11.65 Q83.25 11.95 82.95 13.0 L82.65 14.6 82.35 16.35 82.05 16.9 82.05 16.95 Q81.55 18.35 80.65 18.35 L80.6 18.35 80.15 18.15 80.0 17.85 80.15 17.45 80.25 17.15 80.25 17.1 80.3 17.1 80.45 16.65 80.85 15.7 81.55 13.95 81.7 12.65 81.95 11.75 Q82.35 10.65 84.45 10.2 L84.3 7.95 Q84.2 5.55 84.45 2.75 L84.45 -1.1 84.55 -3.3 84.5 -3.3 84.55 -3.45 84.55 -3.7 84.55 -3.95 84.7 -4.35 84.55 -4.65 84.45 -4.65 Q84.3 -4.65 84.2 -4.75 L83.85 -4.15 83.65 -3.85 82.3 -1.6 81.7 0.05 79.8 3.4 78.55 5.1 78.05 5.65 Q77.4 6.9 77.4 7.3 L77.5 8.45 77.9 9.65 78.8 10.7 78.9 10.8 78.95 10.9 79.2 11.65 79.35 12.2 Q79.35 13.2 77.95 13.6 L77.15 14.15 78.1 16.35 78.5 17.25 78.8 17.65 78.85 17.85 79.0 17.95 79.05 17.95 79.1 18.05 79.1 18.25 78.9 18.3 78.8 18.25 78.95 18.85 78.85 19.3 78.75 19.35 77.85 19.25 77.15 17.05 77.0 17.3 76.25 18.35 75.0 20.4 Q73.5 22.9 71.85 24.65 L71.85 24.7 71.9 24.7 72.0 24.65 72.4 24.35 72.75 24.15 72.8 24.15 73.0 24.2 73.05 24.25 73.05 24.45 73.1 24.45 Q73.05 25.1 71.35 27.05 L68.5 30.35 66.2 33.25 65.3 34.55 65.9 34.05 65.95 34.05 65.55 34.85 65.65 35.25 64.8 36.35 64.65 36.55 63.7 38.5 63.35 39.2 62.7 40.9 62.35 41.85 62.1 42.7 62.55 42.3 62.55 42.25 Q63.05 41.55 63.35 41.55 L63.6 41.55 63.65 41.6 63.7 41.7 63.7 41.9 63.65 42.3 63.8 43.4 63.9 45.8 63.9 46.0 64.35 47.55 65.5 48.85 67.25 50.75 68.25 51.65 69.05 52.4 69.1 52.45 70.5 53.45 71.5 54.4 71.55 54.4 71.6 54.45 72.5 55.1 72.05 53.6 71.6 50.9 71.45 50.4 71.4 50.4 71.05 50.5 70.7 50.2 70.6 49.8 70.6 49.65 70.6 48.8 70.8 46.55 71.1 45.4 71.2 45.1 71.2 45.0 71.2 44.25 71.2 44.05 71.2 43.8 70.9 43.9 70.65 44.0 70.45 43.95 70.45 43.9 70.45 43.8 70.35 43.6 70.35 43.45 70.35 43.4 70.9 41.95 71.0 41.75 71.75 38.4 71.8 37.65 71.8 37.55 71.65 36.8 71.6 36.55 71.5 35.95 Q71.5 35.15 71.95 35.45 72.3 35.7 72.45 36.25 L72.55 37.75 72.3 39.9 71.95 41.7 72.0 41.75 72.0 41.9 72.55 42.1 72.55 42.6 72.05 45.2 71.5 47.7 71.5 47.75 71.6 47.55 Q71.65 47.4 72.0 47.4 L72.35 47.5 72.45 48.05 72.4 49.85 Q72.35 50.9 72.55 51.8 L73.0 53.65 73.2 54.2 73.35 54.65 73.6 55.65 73.55 55.85 73.55 55.9 74.5 56.65 75.8 57.8 77.75 59.75 78.55 60.65 78.55 60.85 78.5 60.85 78.3 60.9 78.1 60.9 78.05 60.85 78.0 60.85 77.6 60.65 77.5 60.7 77.75 60.9 78.65 61.6 80.2 62.9 81.3 63.95 81.7 64.35 81.8 64.45 81.85 64.5 81.85 64.35 81.8 64.2 81.4 62.45 81.0 60.8 80.7 59.35 80.4 57.75 80.4 57.55 80.4 57.1 79.9 56.75 79.2 56.3 78.0 55.3 76.05 52.85 75.95 52.7 Q75.4 51.95 75.4 50.7 L75.4 50.55 75.4 50.5 75.4 50.3 75.5 49.6 75.6 49.25 75.6 49.15 75.85 48.25 76.1 47.3 76.4 46.25 76.6 45.8 77.15 44.3 77.5 43.6 77.5 43.5 77.55 43.4 77.6 43.25 77.75 42.7 77.85 42.25 77.9 42.0 78.0 41.85 78.0 41.8 78.8 39.95 78.8 39.85 79.15 38.95 79.15 38.9 79.3 38.55 79.4 38.3 80.05 36.4 80.05 36.35 80.15 36.15 80.2 36.1 80.4 35.85 80.6 36.1 80.65 36.9 Q80.65 37.65 79.65 40.45 L78.45 43.75 77.3 46.75 Q76.2 49.7 76.2 50.65 76.2 51.65 77.05 52.85 L78.95 55.0 79.25 55.3 79.3 55.35 79.45 55.45 80.2 56.0 80.3 56.0 81.6 56.8 82.2 57.0 82.45 57.05 86.4 57.45 87.05 57.45 87.25 57.5 87.35 57.2 87.6 56.25 87.95 55.35 88.3 54.55 87.0 54.75 85.85 54.8 84.15 54.55 83.6 54.05 83.1 53.7 82.6 52.95 82.45 52.45 81.75 50.95 81.6 50.45 80.95 51.7 80.65 52.25 80.2 52.85 79.9 53.55 79.6 54.05 79.45 53.95 79.35 53.9 79.3 53.4 79.2 52.8 79.0 52.1 79.65 50.55 80.6 48.65 80.95 47.65 80.95 47.6 80.8 47.6 Q80.4 47.6 80.1 47.0 L79.8 46.1 79.9 45.45 80.05 44.65 80.25 43.75 80.5 43.05 81.15 41.4 81.85 39.85 82.25 39.0 82.25 39.05 82.35 38.85 82.8 38.25 82.85 38.2 83.4 37.5 83.65 37.05 83.7 37.1 83.75 37.0 83.8 36.95 84.05 36.65 85.9 35.15 86.45 34.75 86.5 34.7 86.55 34.7 Q86.95 34.4 87.3 34.3 L87.4 34.3 87.5 33.9 Q87.7 32.9 88.05 32.15 88.9 30.7 89.5 32.0 L89.85 32.95 90.15 34.1 90.2 34.45 Q90.3 33.85 91.0 33.2 L90.95 33.2 90.9 32.25 90.85 31.05 90.8 30.9 90.75 30.8 Q90.4 30.2 88.35 30.2 87.75 30.2 83.3 31.8 78.85 33.45 77.65 33.45 77.25 33.45 77.15 33.2 L77.15 32.85 77.5 32.6 78.1 32.3 Q79.4 31.7 81.7 30.95 L83.6 30.3 84.0 30.2 84.05 30.15 Q84.65 29.75 85.1 29.5 L85.2 29.5 86.35 29.0 86.55 28.95 87.75 28.8 88.45 28.85 89.65 29.05 Q90.85 29.05 91.45 29.5 L91.75 29.85 91.85 29.8 91.9 29.8 92.15 29.65 93.25 28.85 93.25 28.8 93.35 28.75 94.9 27.6 94.95 27.55 96.15 27.05 97.7 27.15 98.1 27.6 98.65 28.0 99.75 28.6 101.0 28.85 Q101.8 29.05 101.8 29.2 L101.75 29.45 101.55 29.45 100.65 29.45 Q99.25 28.95 97.95 28.15 L96.9 27.4 96.7 27.4 Q95.6 27.55 94.0 28.9 L93.8 29.05 92.35 30.05 92.25 30.1 91.9 30.3 92.0 30.6 92.0 31.15 92.0 31.35 92.1 32.4 92.65 32.0 92.9 31.8 93.45 31.2 94.3 30.25 Q95.55 29.05 96.8 29.05 L97.85 29.2 98.25 29.6 Q98.9 29.6 99.8 30.05 L102.9 30.25 103.6 29.95 104.1 29.7 104.5 29.4 105.25 28.85 Q105.9 28.5 106.3 28.5 L107.25 28.65 107.15 28.45 Q106.4 27.3 104.25 27.2 L103.8 27.15 102.7 27.2 102.6 27.15 102.6 26.95 102.5 26.95 102.35 27.1 102.3 27.05 101.9 26.8 101.9 26.75 101.85 26.7 101.7 26.65 100.05 25.6 98.95 24.9 98.45 24.65 97.1 24.3 96.25 24.2 95.9 24.2 Q94.2 24.2 93.0 24.8 L91.05 25.3 90.35 25.7 Q89.6 26.1 89.1 26.1 L88.5 26.05 88.45 26.05 88.35 26.0 86.75 25.2 86.4 25.0 86.05 24.75 85.55 24.2 85.35 24.0 85.0 23.6 84.95 23.55 84.85 23.4 84.55 22.95 84.45 22.85 84.45 22.8 84.4 22.75 84.3 22.45 84.2 22.35 Q83.85 21.6 83.85 21.05 83.85 20.2 84.0 19.85 L84.4 19.3 Q85.95 18.1 86.9 16.9 L87.95 16.0 89.15 15.25 90.35 14.45 Q91.45 13.85 92.1 14.15 L92.9 15.05 93.35 15.9 93.55 16.15 93.6 16.25 93.7 16.35 94.05 17.15 94.15 17.35 94.15 17.45 94.2 17.45 94.2 17.5 94.55 18.3 95.85 20.6 95.95 20.7 97.4 22.55 Q97.8 22.55 98.45 22.0 L98.5 21.95 98.65 21.8 99.2 21.35 Q99.35 21.35 99.45 21.5 L98.8 22.35 98.3 22.75 98.7 22.95 99.35 23.1 99.4 23.1 99.65 23.15 99.7 23.15 100.55 23.05 101.75 22.55 102.2 22.05 102.2 22.0 102.3 21.95 102.6 21.75 102.6 21.7 102.65 21.55 102.7 21.35 102.75 21.25 Q102.9 21.0 103.45 21.0 L103.7 20.25 103.95 20.75 103.7 21.75 103.7 22.0 103.65 22.5 103.5 22.85 103.2 23.3 102.9 24.15 102.6 24.45 102.9 24.85 102.95 24.9 103.0 25.0 103.05 25.0 103.15 25.25 103.3 24.95 103.7 24.35 103.8 24.4 103.8 24.35 103.85 24.2 104.05 23.7 104.1 23.6 104.55 22.4 104.6 22.35 104.8 22.45 104.85 22.75 104.2 24.7 104.25 24.7 104.25 26.1 105.7 25.1 107.8 23.6 108.15 23.3 108.4 23.1 108.3 22.8 Q106.75 19.6 106.4 18.1 L106.0 18.3 103.6 18.6 101.0 18.45 Q100.05 18.3 100.05 17.8 L100.1 17.55 100.05 17.55 99.65 17.45 99.65 17.35 99.6 17.25 99.55 16.85 99.85 16.3 100.35 15.6 Q99.35 15.0 98.65 13.55 98.15 12.5 98.0 11.45 97.95 11.05 96.55 9.95 95.55 9.15 95.05 8.35 L94.9 8.35 94.25 8.1 93.8 8.2 91.85 6.8 90.9 6.0 91.15 6.95 91.75 8.35 91.75 9.25 91.75 9.35 91.75 9.45 91.75 9.65 91.75 9.9 M90.7 -2.85 L90.55 -3.0 90.9 -1.45 90.95 0.75 90.75 0.8 90.75 0.95 90.75 1.2 90.65 1.3 90.4 1.4 90.0 1.2 89.85 1.05 89.35 0.65 88.7 0.4 88.6 0.4 88.5 0.35 88.95 1.5 89.75 3.25 89.75 3.3 89.85 3.55 90.45 4.9 Q91.0 4.7 91.6 5.25 L93.25 6.5 93.15 6.4 93.1 5.85 93.25 5.45 93.7 5.3 Q93.95 5.3 94.35 5.6 L95.4 6.75 95.8 7.25 96.05 7.5 96.4 7.9 96.7 8.2 96.7 8.1 Q96.8 7.9 97.2 7.9 L97.3 7.95 97.25 7.55 97.35 7.25 97.5 7.15 97.55 7.15 97.9 7.5 Q98.45 8.0 98.75 8.85 L99.3 10.7 99.4 10.95 100.35 13.55 100.4 13.75 100.7 12.9 Q100.85 12.35 101.1 12.2 101.25 12.05 101.35 12.05 L101.75 12.15 101.8 12.15 102.1 11.7 102.15 11.65 102.35 11.7 102.35 11.75 102.35 12.35 101.8 15.8 101.7 16.4 101.3 17.45 101.5 17.45 101.75 17.5 105.55 17.1 106.25 16.75 107.3 15.45 107.9 14.15 108.05 13.85 108.15 13.65 108.15 13.6 109.15 11.75 110.5 9.25 110.55 9.15 111.4 7.3 112.4 4.6 114.05 -0.35 114.0 -0.3 113.95 -0.25 112.8 1.4 111.25 3.4 109.7 4.75 109.65 4.75 109.5 4.7 109.45 4.65 109.45 4.6 109.45 4.0 109.3 3.9 109.25 3.8 109.2 2.8 109.2 2.5 109.2 -1.45 109.0 -5.1 108.9 -5.7 107.2 0.0 107.0 0.6 106.75 1.7 Q106.1 4.2 105.6 4.2 L105.4 3.95 105.3 4.0 104.85 3.95 104.85 3.9 104.8 3.8 103.6 -1.2 103.5 -1.55 Q102.85 -3.5 101.9 -5.0 L101.15 -6.0 101.1 -5.85 100.85 0.2 100.55 0.3 100.35 0.95 100.3 0.9 100.2 0.7 99.85 0.1 99.8 0.0 98.9 -1.65 98.25 -2.7 97.35 -4.05 95.95 -6.0 95.65 -6.35 95.75 -2.1 Q95.75 -0.6 95.45 0.1 L95.5 0.65 95.5 0.75 95.5 0.8 95.35 1.1 95.3 1.1 95.25 1.15 94.75 0.6 94.7 0.6 94.45 0.55 94.55 0.5 94.5 0.4 94.15 0.0 93.6 -0.6 92.9 -1.35 92.85 -1.4 91.75 -2.15 91.15 -2.55 90.7 -2.85 M119.1 16.2 L119.6 15.55 119.6 15.2 118.5 16.05 Q117.2 16.85 115.6 16.85 L113.9 16.7 111.2 16.55 107.7 16.95 107.55 17.15 107.55 17.2 108.0 18.15 108.25 18.7 108.55 19.6 111.5 19.1 114.55 18.75 116.9 18.3 117.3 18.2 117.45 18.4 Q117.45 18.8 116.75 18.95 L116.7 18.95 116.6 19.0 114.65 19.25 114.55 19.25 113.85 19.4 113.8 19.4 113.35 19.45 113.15 19.5 111.25 19.65 110.6 19.65 109.35 19.9 108.75 20.1 109.2 21.45 109.2 21.5 109.7 22.6 109.9 22.95 109.9 22.9 113.4 21.6 Q115.75 20.7 116.6 19.85 L117.55 18.65 117.65 18.5 118.05 17.7 118.95 16.4 119.1 16.2 M108.25 16.15 L108.35 16.15 108.3 16.1 108.25 16.15 M98.15 8.7 L98.1 8.65 98.05 8.75 98.25 9.05 98.15 8.7 M88.55 21.45 L91.45 22.1 92.15 22.35 93.3 23.05 93.4 23.05 93.55 23.1 93.75 23.1 94.2 22.9 94.25 22.7 94.25 22.65 94.15 22.4 94.15 22.35 94.1 22.25 94.05 22.15 93.65 21.05 93.6 20.95 93.55 20.95 93.45 20.7 93.4 20.6 93.3 20.35 93.2 20.15 Q91.9 17.7 90.55 17.7 89.65 17.7 88.15 18.65 86.4 19.8 86.0 21.15 L86.85 21.25 86.95 21.25 87.45 21.3 88.15 21.35 88.55 21.45 M96.25 25.4 L96.0 25.45 93.8 26.25 93.25 26.45 Q90.25 27.65 89.05 27.65 L87.65 27.55 87.35 27.35 87.45 27.15 91.2 26.95 91.65 26.6 92.25 26.25 93.75 25.75 95.6 25.1 Q96.85 24.6 97.35 24.85 L98.3 25.75 99.2 26.7 99.85 27.4 99.85 27.55 99.8 27.6 99.6 27.65 Q99.25 27.65 98.15 26.45 L97.1 25.25 97.0 25.25 96.65 25.3 96.25 25.35 96.25 25.4 M106.15 29.65 L105.4 30.5 Q104.35 31.35 102.8 31.35 L100.4 31.15 98.35 30.9 97.6 30.4 97.25 30.25 Q96.4 30.5 95.45 31.1 L95.1 31.35 93.85 32.4 91.55 34.5 91.55 34.75 91.65 36.35 91.75 36.7 92.25 38.6 92.55 39.45 92.6 39.6 93.05 40.55 93.7 41.25 93.95 41.45 94.85 42.1 95.15 42.4 96.8 44.2 98.0 46.0 Q98.2 46.65 98.85 47.0 L100.6 47.5 101.85 47.8 102.45 47.95 102.5 47.95 103.5 48.15 106.9 48.55 107.3 48.8 107.5 48.85 108.0 48.9 Q108.3 48.9 109.7 46.8 L111.1 44.45 110.3 42.75 Q109.5 41.05 109.45 40.15 L109.15 37.7 109.1 37.35 108.9 35.75 109.1 34.1 109.15 33.5 109.2 33.2 109.2 32.4 109.1 31.9 108.45 30.85 108.4 30.85 108.1 30.7 107.9 30.35 Q107.25 29.85 106.3 29.5 L106.15 29.65 M95.0 39.65 L94.95 39.8 94.8 39.85 94.7 39.7 93.75 37.9 Q93.0 36.05 93.0 35.45 L93.25 34.5 Q93.55 33.6 93.75 33.45 L95.1 32.6 96.35 31.8 Q97.05 31.2 97.65 31.35 98.3 31.45 98.85 32.3 L99.55 33.7 99.75 34.7 99.35 36.85 98.95 39.05 98.9 40.1 98.75 41.15 98.75 42.3 98.6 43.25 98.55 43.35 98.5 43.35 98.4 43.3 98.35 43.25 98.3 43.25 98.3 43.1 98.3 42.95 98.3 40.75 98.35 40.4 98.45 39.55 Q98.05 39.3 97.85 38.5 L97.8 38.5 Q96.6 38.5 95.7 37.3 L95.65 37.25 95.35 36.85 95.3 36.7 Q94.9 36.05 94.9 35.4 L94.95 35.2 95.05 34.5 94.7 34.65 94.3 34.8 94.35 34.9 94.0 35.3 93.55 35.55 93.45 35.55 93.55 35.85 93.55 35.9 94.25 37.65 94.75 38.9 94.95 39.4 95.0 39.55 95.0 39.65 M107.3 38.0 L107.4 38.05 107.9 38.65 108.8 40.8 109.05 41.7 109.35 42.65 109.85 43.75 109.9 44.5 109.85 45.3 109.1 46.4 Q107.65 48.3 107.3 48.3 L107.2 48.3 107.05 48.2 107.0 48.15 107.0 48.05 107.05 48.05 107.65 47.45 107.8 47.3 108.45 46.5 108.55 46.4 108.6 46.3 108.85 45.95 108.7 45.9 108.6 45.85 108.55 45.75 108.55 45.55 108.65 45.0 108.65 44.0 108.5 43.7 108.3 43.9 Q107.7 44.8 106.85 44.8 106.55 44.8 106.4 44.6 L106.5 44.4 Q107.45 44.2 107.9 43.7 L107.8 43.6 107.25 43.8 106.75 43.9 Q106.25 43.9 105.5 43.3 L105.45 43.25 104.8 43.6 104.7 43.6 104.25 44.35 104.05 44.7 103.95 44.9 103.7 45.2 103.1 46.05 102.9 46.3 102.7 46.05 102.75 45.9 103.1 45.35 104.4 43.1 104.55 42.7 104.65 42.6 104.8 42.3 Q106.1 40.0 106.5 38.5 L106.85 38.1 Q106.95 38.0 107.0 38.0 L107.1 38.0 107.3 38.0 M84.6 36.9 L84.45 37.05 84.3 37.2 84.3 37.25 84.45 37.3 84.5 37.3 84.55 37.3 84.7 38.2 84.85 38.6 85.1 38.75 85.3 38.75 85.55 38.7 85.55 38.25 85.75 37.05 85.95 36.8 86.3 36.55 86.75 35.9 86.7 35.4 86.7 35.2 85.75 35.95 84.85 36.7 84.6 36.9 M90.1 40.2 L90.1 40.0 90.05 39.85 89.85 39.4 89.95 39.25 89.9 38.85 89.05 33.35 88.75 32.85 88.6 33.25 88.2 34.5 87.8 36.7 87.5 37.9 87.0 39.95 86.5 41.2 86.35 41.55 85.05 44.3 84.15 46.15 82.5 49.75 82.65 50.45 83.0 51.55 83.15 51.9 Q84.2 53.95 85.85 53.95 87.45 53.95 88.3 53.05 L88.45 52.9 88.6 52.7 88.6 52.65 88.75 52.4 88.95 52.0 Q89.45 50.7 89.5 47.95 L89.5 47.8 89.85 44.65 89.85 44.5 90.15 41.15 90.15 40.65 90.1 40.2 M87.25 35.2 L87.3 34.85 87.15 34.95 87.2 35.2 87.2 35.25 87.25 35.2 M85.95 38.9 L86.1 38.9 86.15 39.5 86.15 39.55 86.2 39.7 86.35 39.15 87.0 36.5 86.85 36.7 86.4 37.05 86.15 37.35 86.0 38.25 85.85 38.85 85.95 38.9 M90.7 37.35 L90.6 37.0 90.35 36.05 90.5 37.15 90.65 37.95 90.75 38.35 90.95 38.15 90.7 37.35 M91.9 40.9 L91.25 39.3 91.15 38.75 90.85 38.95 90.9 40.15 90.95 41.0 90.95 41.15 90.85 43.0 90.75 43.9 90.75 44.0 90.75 44.5 90.95 44.4 91.2 44.3 91.5 44.25 92.25 44.0 92.35 44.0 92.5 44.0 92.7 43.8 92.35 42.7 92.0 41.4 92.0 41.2 92.0 41.0 91.9 40.9 M85.05 39.5 Q83.85 39.45 83.75 39.1 L83.9 38.55 83.55 39.2 83.5 39.3 Q84.0 39.4 84.2 39.6 84.55 39.9 84.55 40.45 L84.5 40.85 84.45 41.0 Q85.0 41.5 85.0 42.25 L85.0 42.4 85.7 41.0 85.6 41.0 Q85.05 41.0 85.05 39.5 M84.05 40.3 L83.2 39.8 82.95 39.7 82.85 39.7 82.6 39.6 82.5 39.55 82.3 40.0 81.6 41.5 81.5 41.7 81.6 41.55 82.35 40.65 82.5 40.5 82.95 40.35 83.1 40.35 83.9 40.6 83.95 40.65 84.0 40.65 84.05 40.65 84.1 40.4 84.05 40.35 84.05 40.3 M83.45 41.0 L83.4 40.95 Q83.2 40.8 82.9 40.8 82.6 40.8 81.6 42.4 L80.8 43.75 80.75 43.9 81.5 43.9 82.15 43.8 82.2 43.8 82.65 43.1 83.0 42.4 83.4 42.15 83.85 42.3 84.0 42.4 84.3 42.6 84.3 42.45 84.45 42.25 84.55 41.95 84.35 41.65 84.05 41.3 83.45 41.0 M84.3 43.7 L84.4 43.45 84.2 43.25 83.45 42.7 82.95 43.5 82.95 43.55 82.95 43.75 82.55 44.05 81.95 45.35 81.95 45.8 82.0 45.95 82.05 46.1 82.05 46.15 82.05 46.3 82.45 46.1 82.6 46.1 83.05 46.0 83.1 46.0 83.25 46.0 83.4 45.75 83.95 44.4 84.25 43.75 84.3 43.7 M80.6 44.35 L80.55 44.65 80.25 46.1 80.7 46.85 81.1 47.3 81.25 46.95 81.6 46.6 81.55 46.55 81.5 45.6 81.6 44.6 81.75 44.35 80.7 44.35 80.65 44.3 80.6 44.35 M81.2 48.3 L81.2 48.4 80.9 49.1 79.85 51.2 79.45 52.05 79.5 52.25 79.5 52.35 79.55 52.4 79.6 52.55 79.7 52.7 80.0 52.45 80.35 51.85 80.4 51.65 80.5 51.25 80.6 50.95 80.65 50.9 81.15 49.95 81.2 49.9 81.25 49.85 81.5 49.45 81.5 49.3 Q81.55 48.4 82.0 47.85 L82.65 46.95 83.05 46.4 Q82.4 46.6 82.0 46.9 L81.7 47.15 81.4 47.6 81.2 48.3 M90.8 45.45 L90.7 45.45 90.4 48.7 90.45 48.65 91.35 48.3 92.4 48.5 93.15 49.0 93.6 49.1 93.65 49.2 93.7 49.35 93.6 49.6 94.1 50.2 94.85 51.1 95.4 50.95 96.3 50.8 96.2 50.55 Q96.1 50.05 95.15 49.8 94.7 49.6 94.45 49.0 94.25 48.4 93.85 48.25 L92.75 47.65 Q92.4 47.35 92.35 46.9 L92.2 46.0 92.0 45.1 91.3 45.3 90.8 45.45 M94.6 43.4 L94.2 43.1 93.65 42.7 93.9 43.4 94.1 44.0 94.15 44.2 94.65 45.45 94.75 45.5 95.7 46.75 96.85 48.05 Q97.45 48.55 99.75 49.25 L101.6 49.75 102.85 49.95 Q104.25 49.95 104.9 49.55 L104.75 49.5 104.7 49.5 103.2 49.35 102.7 49.3 100.6 48.85 100.4 48.75 99.9 48.7 99.85 48.65 98.05 48.0 97.65 47.8 97.0 47.4 96.65 46.2 96.3 45.25 95.15 44.0 94.6 43.4 M93.25 44.7 L93.05 44.45 93.1 44.6 93.1 44.7 93.0 45.55 93.0 46.1 93.1 46.45 93.55 47.1 93.65 47.15 93.9 47.3 94.1 47.35 94.3 47.45 94.55 47.55 94.6 47.6 94.65 47.6 94.7 47.65 94.85 47.45 95.0 47.35 94.5 46.65 94.45 46.55 93.55 45.15 93.25 44.7 M92.45 49.6 Q92.05 49.15 91.6 49.15 91.5 49.15 91.35 49.3 L91.35 49.35 91.3 49.45 91.3 49.5 90.85 49.9 90.75 49.9 90.6 49.9 90.3 49.7 90.25 49.7 90.2 49.65 90.15 49.65 90.1 50.6 90.1 50.65 90.4 50.75 90.55 50.85 Q90.8 50.95 91.1 51.2 L91.25 51.35 91.95 51.9 92.1 51.65 92.15 51.55 92.25 51.3 92.55 50.65 92.6 50.5 92.75 50.0 92.75 49.95 92.65 49.8 92.45 49.6 M95.55 47.95 L95.25 47.65 95.15 47.8 95.05 47.95 95.1 48.2 95.15 48.55 95.25 48.65 95.75 48.95 96.1 49.1 96.25 49.15 96.65 49.3 96.8 49.15 96.95 49.05 Q96.35 48.75 95.55 47.95 M109.7 25.75 L109.5 27.1 109.1 27.85 108.55 28.45 108.65 28.75 109.3 28.0 Q110.2 27.15 110.2 26.6 L109.75 25.75 109.7 25.6 109.7 25.75 M107.95 25.35 L107.85 25.25 107.5 25.15 107.15 25.15 Q106.85 25.25 105.75 26.05 L105.3 26.35 105.75 26.5 106.0 26.55 Q106.9 26.6 107.55 27.15 L107.7 27.3 107.8 27.4 107.95 27.55 108.2 27.85 108.25 27.95 108.2 27.8 108.2 27.55 108.3 26.25 108.1 25.55 108.0 25.4 108.0 25.35 107.95 25.35 M111.1 48.9 L111.1 48.15 110.35 49.75 110.35 49.8 110.1 50.35 108.9 52.7 108.3 53.75 107.3 55.45 107.1 55.75 105.15 58.25 103.25 60.05 103.45 60.25 103.6 60.4 104.0 60.75 104.1 60.8 104.15 60.85 104.2 60.9 104.5 61.05 Q105.3 61.55 106.15 61.55 106.7 61.55 107.4 60.95 L108.1 60.2 108.9 59.05 109.15 58.65 Q110.35 56.65 110.8 54.85 L111.1 51.25 111.1 48.9 M108.0 50.15 L106.95 49.9 106.7 49.8 106.7 50.4 106.65 51.5 106.7 52.95 106.9 54.25 108.8 50.65 109.25 49.35 Q108.55 50.15 108.0 50.15 M105.8 56.25 L106.2 55.6 Q105.8 54.85 105.7 53.95 L105.6 51.75 105.65 50.05 105.6 50.05 Q105.55 50.05 105.45 50.15 L105.15 50.3 104.5 50.55 104.3 50.7 103.55 50.95 103.55 51.0 103.6 51.45 103.45 52.25 103.35 52.55 103.7 52.65 Q104.5 52.9 104.5 53.85 L104.4 54.5 104.4 55.35 104.65 56.1 104.85 56.85 104.6 57.45 105.8 56.25 M104.55 57.5 L104.6 57.45 104.55 57.4 104.45 57.35 104.4 57.25 104.35 57.15 104.35 57.1 104.2 56.55 104.2 56.45 104.1 56.15 103.95 55.65 103.95 55.85 103.85 57.75 103.85 57.9 103.8 58.15 104.4 57.65 104.55 57.5 M101.15 51.55 Q101.75 51.4 102.2 51.05 L102.3 51.0 102.35 50.95 102.25 50.95 101.5 50.85 100.65 50.7 100.55 50.65 100.25 50.6 100.05 50.55 99.85 50.5 99.75 50.45 99.65 50.65 99.5 50.85 99.55 51.15 99.55 51.25 99.55 51.3 99.4 51.65 99.8 51.75 100.65 51.7 101.15 51.55 M102.65 51.9 L102.45 52.05 101.4 52.4 101.35 52.4 101.15 52.45 99.75 52.6 100.2 53.2 Q100.35 52.95 101.0 52.65 L101.15 52.55 102.0 52.35 102.35 52.4 102.85 52.6 102.9 52.6 103.05 52.1 103.1 51.55 102.65 51.9 M103.3 53.15 L103.65 53.85 103.85 54.75 103.95 54.45 104.05 53.85 104.0 53.55 Q103.9 53.3 103.4 53.15 L103.3 53.15 M101.95 53.25 L101.9 53.25 101.6 53.3 Q101.3 53.45 100.9 53.85 L100.85 53.9 100.4 54.35 100.2 54.5 99.95 54.6 99.85 54.6 99.35 54.0 99.35 53.95 99.35 53.8 99.3 53.8 99.2 53.45 99.05 53.3 98.45 53.15 98.35 53.15 98.2 53.15 97.7 53.05 97.55 53.0 97.4 52.95 97.2 52.75 97.1 52.2 97.05 52.1 97.0 51.85 96.95 51.8 96.4 51.65 96.35 51.65 95.6 51.85 95.55 51.85 95.35 51.95 95.3 51.95 94.8 52.25 94.75 52.25 94.65 52.25 94.25 51.95 93.95 51.6 93.8 51.45 93.65 51.25 93.5 51.1 93.15 50.7 93.1 50.65 93.1 50.75 93.05 50.85 92.9 51.3 92.9 51.35 92.55 52.05 92.4 52.3 92.5 52.4 92.7 52.55 92.95 52.8 93.2 53.0 93.35 53.1 93.7 53.0 94.15 53.0 94.15 52.75 94.45 52.45 94.55 52.4 94.6 52.4 94.7 52.35 94.75 52.3 94.8 52.3 94.9 52.3 94.65 52.75 94.35 53.05 94.3 53.05 94.25 53.05 94.25 53.1 94.35 53.65 94.5 53.75 94.9 53.95 95.15 54.15 95.35 54.25 96.0 55.25 96.75 54.8 96.95 54.65 96.95 54.6 96.95 54.5 97.1 54.1 97.25 53.55 97.25 53.25 97.25 53.1 97.35 53.05 97.5 53.05 97.55 53.05 97.7 53.1 97.7 53.2 97.75 53.45 97.6 54.2 97.6 54.25 97.45 54.7 97.45 54.75 97.35 54.85 97.25 55.4 97.25 55.45 97.2 55.45 97.2 55.5 97.05 56.25 97.05 56.6 97.1 56.65 97.3 56.9 97.35 56.9 97.45 56.9 97.6 56.9 98.75 56.45 99.2 56.05 99.25 56.0 99.3 55.95 99.35 55.95 99.4 55.85 99.55 55.45 99.65 55.4 99.8 55.5 99.85 55.9 99.85 56.2 99.85 56.3 99.6 56.65 99.65 56.85 99.8 57.6 100.3 58.4 100.4 58.55 100.7 58.65 101.7 59.0 102.2 59.3 102.25 59.25 Q102.8 58.6 103.05 57.75 L103.2 55.95 103.0 54.55 102.6 53.65 Q102.3 53.3 101.95 53.25 M106.7 62.3 L106.2 62.4 105.85 62.4 105.2 62.3 Q104.3 62.1 103.45 61.5 L102.6 60.8 102.25 60.6 101.5 60.0 100.85 59.55 100.5 59.45 100.45 59.45 100.4 59.4 99.3 59.1 97.5 58.55 94.55 56.75 92.95 55.9 92.65 55.8 Q92.15 55.8 91.9 56.25 L91.6 56.9 91.0 57.45 91.5 57.55 91.55 57.6 91.6 57.6 91.6 57.65 91.65 57.65 Q92.5 57.8 92.5 58.1 L92.75 58.2 94.5 59.05 95.95 59.75 Q97.25 60.45 97.25 60.9 L97.25 61.1 97.05 61.15 96.35 60.65 95.35 60.05 95.15 60.0 95.0 59.85 94.75 59.75 94.25 59.5 94.1 59.4 92.0 58.45 91.9 58.45 90.0 58.35 89.55 59.0 89.0 59.65 87.95 60.6 88.05 60.8 88.1 60.9 88.75 61.75 88.8 60.7 88.95 60.2 Q89.1 60.05 89.35 60.05 L89.75 60.45 89.85 60.5 90.05 61.05 90.25 61.45 Q91.05 63.1 91.6 63.65 L92.0 62.8 Q92.25 62.25 92.7 62.25 93.05 62.25 93.3 63.4 L93.55 64.65 94.95 64.2 96.2 63.8 96.6 63.85 96.8 63.9 96.8 64.2 96.7 64.55 96.55 64.8 99.45 64.65 99.55 64.7 99.65 65.0 99.65 65.1 99.65 65.5 99.2 65.85 99.35 65.9 99.95 65.9 100.0 65.9 100.15 65.9 100.8 65.9 102.75 65.85 103.1 65.45 103.4 65.05 104.7 64.3 106.05 63.75 Q107.1 63.45 107.7 62.95 L108.0 62.55 108.6 61.3 108.6 61.05 108.3 61.35 108.3 61.4 107.1 62.2 106.7 62.3 M99.3 50.25 L99.0 50.15 97.5 49.35 97.2 49.6 96.95 49.75 96.95 49.85 96.95 49.95 97.0 50.25 97.0 50.3 97.05 50.7 97.5 50.7 98.5 50.55 98.9 50.55 99.05 50.5 Q99.2 50.4 99.3 50.35 L99.4 50.3 99.3 50.25 M97.5 51.15 L97.65 51.3 98.0 51.15 98.0 51.1 97.5 51.15 M98.3 51.5 L98.45 51.35 97.65 51.35 97.75 51.4 98.0 52.25 98.4 52.25 Q98.25 52.1 98.25 51.8 L98.3 51.5 M88.9 57.75 Q89.8 56.55 90.1 56.55 L90.35 56.65 90.45 56.75 90.95 56.2 91.0 56.1 91.15 55.7 Q91.6 54.6 92.95 54.6 L93.0 54.6 Q93.55 54.65 93.95 54.85 L94.2 55.05 94.35 55.25 94.6 55.5 94.95 55.85 94.7 55.25 94.15 54.8 92.25 53.75 90.55 52.25 90.45 52.1 90.3 52.0 90.25 51.9 90.2 51.85 90.1 51.75 90.05 51.7 90.05 51.65 89.95 51.6 89.7 52.7 89.9 52.75 90.05 53.05 89.7 53.65 89.15 54.75 88.9 55.6 88.65 56.3 88.5 56.7 87.6 59.6 87.55 59.75 87.55 59.8 87.6 59.8 87.75 59.6 88.05 59.05 88.1 59.0 88.9 57.8 88.9 57.75 M96.0 56.15 L95.75 56.55 96.8 57.05 96.6 56.5 96.7 55.5 96.15 55.85 96.0 55.85 96.0 56.15 M99.55 58.15 L99.25 57.4 98.95 56.9 98.45 57.2 97.65 57.45 99.5 58.2 99.55 58.25 99.55 58.15 M86.85 59.25 L87.05 58.2 85.45 58.35 81.9 57.95 82.2 58.35 82.75 59.2 82.75 59.05 Q82.7 58.85 82.8 58.65 L82.8 58.55 Q82.9 58.35 83.1 58.35 L83.95 58.85 84.65 59.5 86.2 61.1 86.3 61.2 86.3 61.0 86.35 60.7 86.3 60.35 Q86.3 59.7 86.75 59.65 L86.85 59.25 M82.85 61.1 L82.8 61.05 82.8 61.0 81.95 59.9 82.15 61.0 82.35 62.05 Q82.85 63.15 83.0 64.65 L83.2 66.55 83.35 67.95 83.6 67.25 83.65 67.15 Q83.6 66.65 83.7 66.25 83.8 65.5 84.35 65.5 L84.45 65.5 84.7 65.1 84.9 65.15 84.95 65.15 85.0 65.45 84.8 67.0 84.8 67.2 84.8 69.1 84.75 72.4 84.7 73.6 84.7 73.65 84.75 73.65 84.9 73.05 85.3 71.5 85.35 71.35 Q85.65 69.8 86.1 69.8 L86.35 69.85 86.4 69.85 86.5 69.95 86.5 71.45 86.5 72.6 86.1 74.3 86.3 74.1 88.15 72.45 88.25 72.4 Q89.8 71.1 90.15 71.1 L90.5 71.2 Q90.7 71.2 90.75 71.35 L90.7 71.4 90.65 71.5 90.65 71.6 92.75 70.1 Q94.45 68.9 94.85 68.9 L95.3 68.95 95.55 68.85 95.9 68.5 96.25 68.1 98.15 66.85 97.75 66.7 Q97.45 66.7 97.55 66.6 L97.5 66.35 97.9 65.55 97.35 65.6 96.9 65.65 94.95 66.1 94.9 66.1 94.75 66.1 94.75 66.05 94.7 65.95 94.7 65.7 94.75 65.6 94.85 65.5 94.85 65.3 94.25 65.55 93.0 65.9 92.7 65.8 92.6 64.95 92.55 64.95 92.55 64.9 92.5 64.25 92.35 64.7 91.75 65.1 91.55 65.0 91.25 64.85 91.25 64.8 Q90.7 64.3 89.6 62.1 L89.5 62.75 Q89.35 63.45 89.0 63.55 L88.95 63.55 88.9 63.5 87.95 62.45 87.3 61.7 87.25 61.95 87.25 62.05 86.75 62.75 86.55 62.6 86.45 62.6 86.1 62.4 85.8 62.1 85.8 62.05 85.65 61.9 85.45 61.75 85.2 61.5 85.15 61.45 84.0 60.3 83.8 60.1 83.75 60.1 84.05 61.2 84.0 61.55 84.0 61.65 84.0 61.75 83.9 61.9 83.7 61.95 82.95 61.25 82.85 61.1 M93.65 72.8 L93.35 72.65 93.8 72.9 93.65 72.8 M58.65 45.5 L59.7 43.85 60.25 42.95 61.9 39.9 62.75 38.35 63.45 36.65 63.0 37.15 62.85 36.95 62.8 36.9 62.7 36.95 62.15 37.2 61.85 37.05 61.75 36.75 62.55 36.1 62.4 35.75 Q63.8 35.0 65.1 33.4 L67.15 30.8 69.35 28.15 71.45 25.65 71.2 25.75 71.05 25.85 70.05 26.45 69.8 26.35 69.7 26.3 69.65 26.3 Q69.2 26.3 69.2 25.9 L70.9 23.9 73.45 20.7 Q74.9 18.15 75.95 16.95 76.5 16.3 76.8 16.15 L75.55 13.55 Q75.7 13.35 76.8 12.7 77.85 12.1 78.2 11.55 L77.3 10.65 Q76.8 10.15 76.75 9.75 L76.35 7.5 Q76.35 7.0 76.9 5.8 L76.9 5.75 76.5 5.7 75.05 5.1 75.0 5.05 75.0 5.0 74.9 5.0 74.85 4.95 74.6 4.8 73.55 4.15 74.3 5.25 74.65 5.9 74.9 6.1 75.75 7.0 75.7 7.2 75.7 7.25 75.15 7.25 75.05 7.45 74.35 7.55 72.2 7.8 70.1 8.25 67.1 9.05 65.55 9.75 63.5 10.5 61.55 11.45 60.6 11.95 59.8 12.55 63.15 12.75 63.45 12.65 Q64.5 12.1 64.95 12.1 L65.2 12.15 65.3 12.15 65.3 12.4 63.7 13.2 63.65 13.4 63.65 13.45 63.25 13.5 63.2 13.5 Q61.75 14.4 60.35 15.65 58.35 17.45 56.85 19.5 L55.4 21.4 Q54.65 22.45 54.35 23.35 L53.35 25.45 52.65 27.15 52.65 27.25 52.7 27.25 54.5 25.5 Q55.95 24.15 56.3 24.15 L56.55 24.2 56.6 24.25 56.6 24.45 Q55.15 25.6 54.2 27.0 L52.95 29.5 51.9 32.1 50.75 34.7 Q51.75 34.35 53.15 33.15 L54.55 32.05 54.8 32.1 54.8 32.8 Q53.65 34.45 53.05 37.4 L52.55 39.75 52.3 42.1 52.35 42.4 52.6 41.9 52.85 41.4 54.0 40.5 54.2 40.6 54.25 40.65 54.25 41.5 Q53.85 42.45 53.8 43.75 L53.75 46.05 53.85 47.5 53.9 49.5 54.0 51.3 54.15 52.15 54.25 52.55 Q54.55 50.65 55.0 51.0 55.35 51.25 55.4 52.1 L55.4 52.2 55.45 52.1 56.6 49.35 56.65 49.3 56.65 49.25 56.7 49.05 56.9 48.45 Q57.35 47.45 58.35 46.0 L58.65 45.5 M61.95 40.4 L62.25 39.85 61.9 40.4 61.8 40.65 61.65 41.1 61.95 40.4" fill="#000000" fill-rule="evenodd" stroke="none"/>
    <path d="M50.5 61.65 L50.45 61.7 50.35 61.6 50.5 61.65 M109.55 -8.4 L109.55 -8.55 109.75 -8.55 109.55 -8.4" fill="#006600" fill-rule="evenodd" stroke="none"/>
    <path d="M90.0 1.2 L90.0 1.25 89.85 1.35 89.05 0.75 88.7 0.4 89.35 0.65 89.85 1.05 90.0 1.2 M101.75 12.15 L101.8 11.95 102.0 9.45 102.15 4.6 102.15 2.2 101.9 0.8 101.8 -0.15 101.9 -0.4 102.0 -1.2 102.0 -2.05 101.9 -5.0 Q102.85 -3.5 103.5 -1.55 L103.95 1.0 103.9 2.25 103.7 4.05 103.65 4.95 103.5 6.1 103.35 6.7 103.25 7.3 103.25 7.45 103.3 7.5 103.3 7.55 103.5 7.6 103.7 7.35 Q104.1 7.25 104.45 5.85 L104.6 5.05 104.25 7.35 103.9 8.45 103.55 9.55 103.3 9.85 102.9 10.35 102.65 11.05 Q102.6 11.2 102.35 11.2 102.25 11.2 102.1 11.7 L101.8 12.15 101.75 12.15 M100.2 0.7 L100.1 0.55 100.15 2.25 100.45 6.25 100.25 7.9 100.15 6.4 Q100.0 5.5 99.55 5.0 L99.35 5.45 99.3 5.9 98.4 2.25 98.0 0.4 97.6 -0.45 97.2 -1.2 96.25 -4.95 95.95 -6.0 97.35 -4.05 98.15 -2.4 98.8 0.05 Q99.2 1.5 99.75 2.4 L99.95 2.15 100.0 1.75 99.85 0.1 100.2 0.7 M95.3 1.1 L95.3 1.15 95.45 1.7 96.15 3.85 95.95 3.75 95.75 3.85 95.7 4.1 96.1 5.8 96.65 7.7 95.0 4.85 93.5 1.8 90.7 -2.85 91.15 -2.55 91.75 -2.15 92.75 -0.6 95.15 3.1 95.35 3.0 95.35 2.8 95.15 1.8 94.85 0.9 94.75 0.6 95.25 1.15 95.3 1.1 M92.85 -1.4 L92.9 -1.35 93.6 -0.6 Q93.25 -0.85 92.85 -1.4 M104.85 3.9 L104.85 3.95 104.8 4.15 104.85 3.9 M109.0 -5.1 L109.2 -1.45 109.2 2.5 108.55 4.15 Q107.9 5.55 107.9 6.1 L107.9 6.3 108.0 6.35 108.1 6.4 108.3 6.45 108.75 6.25 105.7 11.45 105.6 11.45 106.5 9.1 Q107.1 7.65 107.15 6.8 L107.7 4.45 108.3 2.15 108.85 -3.1 109.0 -5.1 M109.45 4.6 L109.45 4.65 109.5 4.7 109.65 4.75 109.15 5.6 109.25 5.35 109.45 4.6 M113.95 -0.25 L114.0 -0.3 114.05 -0.35 112.4 4.6 111.4 7.3 110.55 9.15 110.5 9.25 109.15 11.75 108.15 13.6 108.15 13.65 108.05 13.85 107.9 14.05 106.95 15.4 105.85 16.75 105.55 17.1 101.75 17.5 102.3 17.05 103.95 15.65 105.15 14.45 106.0 13.2 Q108.2 10.55 109.4 8.3 L112.05 3.4 113.5 0.65 113.95 -0.25 M105.15 4.75 L105.15 5.2 105.1 5.3 Q105.05 4.9 105.15 4.75 M80.7 44.35 L81.75 44.35 81.6 44.6 81.5 45.6 81.55 46.55 81.6 46.6 81.25 46.95 81.1 47.3 80.7 46.85 80.25 46.1 80.55 44.65 80.6 44.35 80.7 44.35 M96.0 56.15 L96.0 55.85 96.15 55.85 96.7 55.5 96.6 56.5 96.8 57.05 95.75 56.55 96.0 56.15 M99.5 58.2 L97.65 57.45 98.45 57.2 98.95 56.9 99.25 57.4 99.55 58.15 99.5 58.2 M94.9 66.1 L94.95 66.1 96.9 65.65 97.35 65.6 96.85 66.0 95.95 66.6 95.05 67.4 93.45 69.0 92.05 70.5 91.15 71.05 90.75 71.35 Q90.7 71.2 90.5 71.2 L90.15 71.1 Q89.8 71.1 88.25 72.4 L88.85 71.55 89.95 70.3 91.35 69.25 92.95 68.1 94.9 66.1 M56.6 49.35 L55.45 52.1 55.4 52.1 Q55.35 51.25 55.0 51.0 54.55 50.65 54.25 52.55 L54.15 52.15 54.0 51.3 53.9 49.5 53.85 47.5 53.75 46.05 53.8 43.75 Q53.85 42.45 54.25 41.5 L54.25 40.65 54.2 40.6 54.0 40.5 52.85 41.4 52.6 41.9 52.35 42.4 52.3 42.1 52.55 39.75 53.05 37.4 Q53.65 34.45 54.8 32.8 L54.8 32.1 54.55 32.05 53.15 33.15 Q51.75 34.35 50.75 34.7 L51.9 32.1 52.95 29.5 54.2 27.0 Q55.15 25.6 56.6 24.45 L56.6 24.25 56.55 24.2 56.3 24.15 Q55.95 24.15 54.5 25.5 L52.7 27.25 52.65 27.15 53.35 25.45 54.35 23.35 Q54.65 22.45 55.4 21.4 L56.85 19.5 Q58.35 17.45 60.35 15.65 61.75 14.4 63.2 13.5 L63.25 13.5 63.65 13.45 63.65 13.4 63.7 13.2 65.3 12.4 65.3 12.15 65.2 12.15 64.95 12.1 Q64.5 12.1 63.45 12.65 L63.15 12.75 59.8 12.55 60.6 11.95 61.55 11.45 63.5 10.5 65.55 9.75 67.1 9.05 70.1 8.25 72.2 7.8 70.8 8.7 70.4 8.9 69.8 9.2 68.4 9.5 67.6 9.55 66.45 9.95 Q65.9 10.2 65.7 10.4 L66.55 11.3 67.0 11.15 67.55 10.75 68.7 10.85 67.8 11.55 67.1 12.4 65.95 13.35 65.3 13.95 64.1 14.9 62.4 16.1 61.2 17.05 60.0 17.85 Q59.15 18.45 57.95 20.05 L56.6 21.9 56.65 22.1 56.95 22.15 57.65 21.85 58.3 21.45 59.3 21.15 60.3 20.8 60.5 20.85 58.8 22.9 Q57.85 24.25 57.6 25.15 L57.2 25.7 56.75 26.2 56.45 26.75 56.1 27.35 Q55.85 27.65 55.55 28.4 L54.55 29.45 54.6 29.7 54.9 29.8 56.35 29.25 57.6 28.6 56.45 31.35 Q55.7 32.95 55.7 33.35 L55.15 35.75 54.6 36.9 54.1 38.1 54.15 38.25 54.15 38.3 54.4 38.4 54.85 37.95 55.1 37.35 55.5 36.75 Q55.55 36.9 55.7 36.9 L56.0 36.65 56.25 36.35 56.25 37.95 55.95 39.65 55.7 41.3 55.55 42.1 55.4 43.0 55.4 43.9 55.45 44.6 55.25 48.45 55.25 48.95 55.65 49.2 56.05 48.8 56.3 48.2 56.35 48.15 56.45 48.7 56.5 49.3 56.6 49.35 M62.85 16.7 L62.55 16.9 62.7 16.75 62.85 16.7" fill="#11131a" fill-rule="evenodd" stroke="none"/>
    <path d="M90.0 1.2 L90.4 1.4 90.65 1.3 90.75 1.2 90.75 0.95 90.75 0.8 90.95 0.75 90.9 -1.45 90.55 -3.0 90.7 -2.85 93.5 1.8 95.0 4.85 96.65 7.7 96.1 5.8 95.7 4.1 95.75 3.85 95.95 3.75 96.15 3.85 95.45 1.7 95.3 1.15 95.3 1.1 95.35 1.1 95.5 0.8 95.5 0.75 95.5 0.65 95.45 0.1 Q95.75 -0.6 95.75 -2.1 L95.65 -6.35 95.95 -6.0 96.25 -4.95 97.2 -1.2 97.6 -0.45 98.0 0.4 98.4 2.25 99.3 5.9 99.35 5.45 99.55 5.0 Q100.0 5.5 100.15 6.4 L100.25 7.9 100.45 6.25 100.15 2.25 100.1 0.55 100.2 0.7 100.3 0.9 100.35 0.95 100.55 0.3 100.85 0.2 101.1 -5.85 101.15 -6.0 101.9 -5.0 102.0 -2.05 102.0 -1.2 101.9 -0.4 101.8 -0.15 101.9 0.8 102.15 2.2 102.15 4.6 102.0 9.45 101.8 11.95 101.75 12.15 101.35 12.05 Q101.25 12.05 101.1 12.2 L101.15 11.95 101.35 9.7 101.25 7.05 101.0 6.9 Q100.55 8.2 100.65 9.9 L100.6 10.0 100.4 9.95 100.15 9.95 99.55 8.85 Q99.1 8.1 99.1 7.6 L98.8 6.4 98.4 5.05 98.2 5.05 97.9 5.1 97.4 3.55 96.85 2.2 96.65 2.35 96.6 2.7 96.75 3.6 96.9 4.45 96.75 4.8 96.6 5.1 96.75 6.15 96.85 7.2 96.8 7.55 96.7 7.75 96.5 7.9 96.4 7.9 96.05 7.5 95.8 7.25 95.4 6.75 94.35 5.6 92.35 2.65 91.85 2.9 91.75 3.2 91.85 3.55 92.0 3.9 92.1 4.15 92.2 4.45 92.1 4.7 91.9 4.85 91.45 4.6 91.35 4.65 90.85 3.9 89.95 2.95 89.8 3.1 89.75 3.25 88.95 1.5 88.5 0.35 88.6 0.4 88.7 0.4 89.05 0.75 89.85 1.35 90.0 1.25 90.0 1.2 M104.85 3.95 L105.3 4.0 105.4 3.95 105.6 4.2 Q106.1 4.2 106.75 1.7 L107.0 0.6 107.2 0.0 108.9 -5.7 109.0 -5.1 108.85 -3.1 108.3 2.15 107.7 4.45 107.15 6.8 Q107.1 7.65 106.5 9.1 L105.6 11.45 105.7 11.45 108.75 6.25 108.85 6.0 109.05 5.75 109.15 5.6 109.65 4.75 109.7 4.75 111.25 3.4 112.8 1.4 113.95 -0.25 113.5 0.65 112.05 3.4 109.4 8.3 Q108.2 10.55 106.0 13.2 L105.15 14.45 103.95 15.65 102.3 17.05 101.75 17.5 101.5 17.45 102.65 16.35 103.8 14.8 104.7 13.85 Q105.4 12.95 105.4 12.45 L105.4 12.25 105.3 12.2 105.15 12.25 104.8 12.5 104.35 12.95 104.15 12.8 103.7 13.05 103.05 13.65 104.8 9.85 Q106.2 6.75 106.2 5.55 L106.2 5.05 Q105.9 5.05 105.75 5.35 L105.6 5.75 105.45 6.25 105.15 6.75 104.1 9.0 102.45 11.6 102.35 11.75 102.35 11.7 102.15 11.65 102.1 11.7 Q102.25 11.2 102.35 11.2 102.6 11.2 102.65 11.05 L102.9 10.35 103.3 9.85 103.55 9.55 103.9 8.45 104.25 7.35 104.6 5.05 104.8 4.15 104.85 3.95 M105.15 4.75 Q105.05 4.9 105.1 5.3 L105.15 5.2 105.15 4.75 M82.85 61.1 L82.95 61.25 82.95 61.35 82.85 61.1 M85.15 61.45 L85.2 61.5 85.2 61.6 85.15 61.45 M87.25 61.95 L87.3 61.7 87.95 62.45 88.9 63.5 87.7 66.1 86.55 69.2 86.4 69.85 86.35 69.85 86.45 69.4 86.65 68.15 87.25 65.35 87.6 63.15 87.4 62.45 87.25 61.95 M92.6 64.95 L92.7 65.8 93.0 65.9 94.25 65.55 94.85 65.3 94.85 65.5 94.75 65.6 94.7 65.7 94.7 65.95 94.75 66.05 94.75 66.1 94.9 66.1 92.95 68.1 91.35 69.25 89.95 70.3 88.85 71.55 88.25 72.4 88.15 72.45 86.3 74.1 86.55 73.05 87.25 70.35 88.3 67.5 87.7 70.15 87.75 70.2 87.9 70.3 90.35 67.55 92.6 64.95 M84.9 73.05 L84.75 73.65 84.7 73.65 84.7 73.6 84.75 72.4 84.9 73.0 84.9 73.05 M83.65 67.15 L83.6 67.25 83.55 66.9 83.65 67.15 M74.85 4.95 L75.2 5.4 75.7 5.9 75.9 6.4 76.1 6.95 76.1 7.6 75.85 7.6 75.3 8.05 74.95 8.65 74.15 8.6 73.6 9.1 73.15 9.65 72.3 10.25 71.55 10.55 71.25 11.0 71.1 11.75 70.7 12.1 69.5 13.25 68.25 14.25 67.4 15.15 Q67.4 15.45 67.7 15.55 67.45 15.8 67.15 16.45 L66.65 17.3 66.15 18.15 Q66.05 18.4 65.6 18.4 L64.1 19.95 62.15 22.35 61.7 23.35 61.35 24.4 61.05 24.95 60.85 25.4 Q60.55 25.95 60.6 26.05 L60.75 26.35 60.25 27.4 Q59.75 28.3 59.75 28.6 L59.9 28.8 60.05 29.05 58.65 33.8 58.65 34.3 58.65 34.4 58.85 34.4 59.15 34.1 59.45 33.65 58.85 35.45 Q58.55 36.45 58.55 37.2 L58.6 37.5 58.7 37.75 58.65 38.3 58.85 39.5 59.1 40.5 58.85 42.5 58.65 44.5 58.65 44.8 58.85 44.9 Q58.7 44.95 58.7 45.0 L58.65 45.25 58.65 45.5 58.35 46.0 Q57.35 47.45 56.9 48.45 L56.7 49.05 56.65 49.25 56.65 49.3 56.6 49.35 56.5 49.3 56.45 48.7 56.35 48.15 56.3 48.2 56.05 48.8 55.65 49.2 55.25 48.95 55.25 48.45 55.45 44.6 55.4 43.9 55.4 43.0 55.55 42.1 55.7 41.3 55.95 39.65 56.25 37.95 56.25 36.35 56.0 36.65 55.7 36.9 Q55.55 36.9 55.5 36.75 L55.1 37.35 54.85 37.95 54.4 38.4 54.15 38.3 54.15 38.25 54.1 38.1 54.6 36.9 55.15 35.75 55.7 33.35 Q55.7 32.95 56.45 31.35 L57.6 28.6 56.35 29.25 54.9 29.8 54.6 29.7 54.55 29.45 55.55 28.4 Q55.85 27.65 56.1 27.35 L56.45 26.75 56.75 26.2 57.2 25.7 57.6 25.15 Q57.85 24.25 58.8 22.9 L60.5 20.85 60.3 20.8 59.3 21.15 58.3 21.45 57.65 21.85 56.95 22.15 56.65 22.1 56.6 21.9 57.95 20.05 Q59.15 18.45 60.0 17.85 L61.2 17.05 62.4 16.1 64.1 14.9 65.3 13.95 65.95 13.35 67.1 12.4 67.8 11.55 68.7 10.85 67.55 10.75 67.0 11.15 66.55 11.3 65.7 10.4 Q65.9 10.2 66.45 9.95 L67.6 9.55 68.4 9.5 69.8 9.2 70.4 8.9 70.8 8.7 72.2 7.8 74.35 7.55 75.05 7.45 75.15 7.25 75.7 7.25 75.7 7.2 75.75 7.0 74.9 6.1 74.65 5.9 74.3 5.25 73.55 4.15 74.6 4.8 74.85 4.95 M73.9 9.85 Q74.2 9.5 74.4 9.5 L74.4 9.55 73.9 9.85 M62.85 16.7 L62.7 16.75 62.55 16.9 62.85 16.7 M60.1 31.4 L60.4 30.9 60.45 30.95 60.1 31.4 M61.8 27.05 L61.85 26.75 61.95 26.55 61.95 26.6 61.8 27.05" fill="#0c0e12" fill-rule="evenodd" stroke="none"/>
    <path d="M91.75 -2.15 L92.85 -1.4 Q93.25 -0.85 93.6 -0.6 L94.15 0.0 94.5 0.4 94.55 0.5 94.45 0.55 94.7 0.6 94.75 0.6 94.85 0.9 95.15 1.8 95.35 2.8 95.35 3.0 95.15 3.1 92.75 -0.6 91.75 -2.15 M99.85 0.1 L100.0 1.75 99.95 2.15 99.75 2.4 Q99.2 1.5 98.8 0.05 L98.15 -2.4 97.35 -4.05 98.25 -2.7 98.9 -1.65 99.8 0.0 99.85 0.1 M103.5 -1.55 L103.6 -1.2 104.8 3.8 104.85 3.9 104.8 4.15 104.6 5.05 104.45 5.85 Q104.1 7.25 103.7 7.35 L103.5 7.6 103.3 7.55 103.3 7.5 103.25 7.45 103.25 7.3 103.35 6.7 103.5 6.1 103.65 4.95 103.7 4.05 103.9 2.25 103.95 1.0 103.5 -1.55 M109.2 2.5 L109.2 2.8 109.25 3.8 109.3 3.9 109.45 4.0 109.45 4.6 109.25 5.35 109.15 5.6 109.05 5.75 108.85 6.0 108.75 6.25 108.3 6.45 108.1 6.4 108.0 6.35 107.9 6.3 107.9 6.1 Q107.9 5.55 108.55 4.15 L109.2 2.5 M108.05 13.85 L107.9 14.15 107.3 15.45 106.25 16.75 105.55 17.1 105.85 16.75 106.95 15.4 107.9 14.05 108.05 13.85 M97.35 65.6 L97.9 65.55 97.5 66.35 97.55 66.6 Q97.45 66.7 97.75 66.7 L98.15 66.85 96.25 68.1 95.9 68.5 95.55 68.85 95.3 68.95 94.85 68.9 Q94.45 68.9 92.75 70.1 L90.65 71.6 90.65 71.5 90.7 71.4 90.75 71.35 91.15 71.05 92.05 70.5 93.45 69.0 95.05 67.4 95.95 66.6 96.85 66.0 97.35 65.6" fill="#1c1f2b" fill-rule="evenodd" stroke="none"/>
    <path d="M82.2 68.75 L82.5 70.9 82.6 71.0 82.85 71.1 83.2 71.0 83.4 71.4 83.65 71.8 83.8 72.25 83.85 72.6 83.85 73.1 Q83.75 76.2 84.3 76.2 L84.75 75.9 85.1 76.4 85.05 76.85 85.1 77.25 83.7 76.2 Q80.95 74.45 79.7 71.8 L80.9 72.7 81.4 73.1 81.95 73.3 82.1 73.25 82.2 73.05 80.85 71.5 Q79.5 69.8 78.9 68.5 L78.2 67.4 77.7 66.7 77.75 66.2 Q77.9 65.35 78.7 65.35 79.4 65.35 80.6 66.35 L81.3 66.95 82.2 68.75 M85.45 77.5 Q86.05 77.5 86.05 76.95 L86.0 76.25 86.4 75.6 86.85 74.95 87.9 73.85 88.75 73.1 89.1 72.8 89.15 72.8 88.95 73.15 88.8 73.3 88.85 73.3 88.75 73.55 Q88.75 73.8 88.9 73.9 L89.2 74.0 90.05 73.35 Q90.7 72.6 91.45 72.15 L91.9 72.45 91.9 72.5 91.85 72.7 Q91.85 73.5 92.8 74.6 L94.3 76.25 95.75 78.1 96.95 79.8 97.5 80.6 88.8 80.6 88.6 80.4 86.3 78.25 85.45 77.55 85.45 77.5 M84.85 -5.9 L85.0 -6.1 85.2 -6.5 85.2 -6.55 86.15 -6.05 Q86.55 -5.6 86.4 -4.85 86.25 -4.05 86.25 -2.7 86.25 -1.8 86.7 -0.6 L87.45 1.4 89.3 5.5 Q90.4 8.0 90.4 9.6 L90.45 9.95 90.55 10.1 90.6 10.2 91.05 10.25 91.75 10.1 91.75 9.9 92.25 10.2 92.65 10.55 93.0 10.75 93.85 11.3 94.65 11.75 94.9 11.55 95.6 12.3 96.2 12.5 Q96.65 12.65 96.7 12.75 L97.55 13.65 98.15 14.55 98.55 14.8 98.95 15.1 99.2 15.5 99.45 15.9 99.85 16.3 99.55 16.85 99.6 17.25 99.65 17.35 99.65 17.45 100.05 17.55 100.1 17.55 100.05 17.8 Q100.05 18.3 101.0 18.45 L103.6 18.6 106.0 18.3 107.0 20.75 107.3 21.5 107.65 22.25 107.8 23.0 108.15 23.3 107.8 23.6 105.7 25.1 104.25 26.1 104.25 24.7 104.2 24.7 104.85 22.75 104.8 22.45 104.6 22.35 104.55 22.4 104.6 21.85 104.6 20.95 Q104.15 21.0 103.9 21.95 L103.8 22.4 103.75 22.55 103.65 22.5 103.7 22.0 103.7 21.75 103.95 20.75 103.7 20.25 103.45 21.0 Q102.9 21.0 102.75 21.25 L102.7 21.35 102.65 21.55 102.5 21.5 102.6 20.85 102.55 20.4 102.35 20.0 101.45 21.35 Q100.8 22.35 99.65 22.85 L99.55 23.05 99.65 23.15 99.4 23.1 99.35 23.1 98.7 22.95 98.3 22.75 98.8 22.35 99.45 21.5 Q99.35 21.35 99.2 21.35 L99.1 21.25 99.25 21.05 99.65 20.1 99.65 19.35 99.65 18.55 99.2 17.65 98.9 18.5 98.55 19.45 98.15 20.35 Q97.65 21.15 97.25 21.15 L96.6 20.85 96.05 20.55 95.9 20.6 95.85 20.6 94.55 18.3 94.2 17.5 94.95 17.0 96.15 16.1 97.15 15.6 97.85 15.2 97.8 15.25 97.9 15.25 97.95 15.2 97.95 15.15 98.05 14.95 98.05 14.8 98.0 14.7 97.55 14.7 95.75 14.95 Q94.0 15.45 93.35 15.9 L92.9 15.05 92.1 14.15 Q91.45 13.85 90.35 14.45 L89.15 15.25 87.95 16.0 86.9 16.9 Q85.95 18.1 84.4 19.3 L84.0 19.85 Q83.85 20.2 83.85 21.05 83.85 21.6 84.2 22.35 L84.25 22.45 83.85 22.65 82.6 24.1 Q80.95 26.35 80.2 28.45 L80.05 28.75 80.05 28.85 80.05 28.95 80.1 29.05 80.1 29.1 80.3 29.15 81.45 27.95 82.9 26.45 Q83.05 26.3 84.55 25.1 L85.55 24.2 86.05 24.75 86.4 25.0 86.75 25.2 88.35 26.0 88.45 26.05 88.5 26.05 89.1 26.1 Q89.6 26.1 90.35 25.7 L91.05 25.3 93.0 24.8 Q94.2 24.2 95.9 24.2 L96.25 24.2 97.1 24.4 Q98.6 24.8 98.9 24.95 99.5 25.25 100.7 26.65 L101.0 27.05 101.4 27.55 Q101.75 27.95 103.1 27.95 L104.6 28.0 105.25 28.85 104.5 29.4 104.1 29.7 103.6 29.95 102.9 30.25 99.8 30.05 Q98.9 29.6 98.25 29.6 L97.85 29.2 96.8 29.05 Q95.55 29.05 94.3 30.25 L93.45 31.2 93.45 31.15 93.8 30.3 94.0 29.45 93.8 29.05 94.0 28.9 Q95.6 27.55 96.7 27.4 L96.6 27.65 Q96.6 28.3 98.05 28.95 L101.5 29.8 101.55 29.75 101.55 29.5 101.55 29.45 101.75 29.45 101.8 29.2 Q101.8 29.05 101.0 28.85 L99.75 28.6 98.65 28.0 98.1 27.6 97.7 27.15 96.15 27.05 94.95 27.55 94.85 27.55 Q94.5 27.45 94.15 27.75 L92.95 28.25 Q92.8 28.35 92.8 28.55 L92.4 28.75 91.75 28.75 90.25 28.3 87.65 27.9 86.0 28.1 85.55 28.35 85.4 28.25 Q85.35 28.1 85.2 28.1 L84.15 28.95 Q83.1 29.75 82.85 29.8 L82.4 29.9 81.9 30.1 81.1 30.6 80.05 31.05 79.65 30.95 Q79.0 30.95 78.15 31.85 L77.5 32.6 77.15 32.85 77.15 33.2 Q77.25 33.45 77.65 33.45 78.85 33.45 83.3 31.8 87.75 30.2 88.35 30.2 90.4 30.2 90.75 30.8 L90.8 30.9 90.7 31.1 90.5 31.8 90.4 31.8 90.1 31.85 89.85 31.55 89.5 31.2 89.0 31.2 88.45 31.3 88.3 31.15 88.15 30.95 Q85.75 32.9 84.45 35.1 L82.7 38.15 82.65 38.25 82.35 38.85 82.25 39.0 81.85 39.85 81.15 41.4 80.5 43.05 80.25 43.75 80.05 44.65 79.9 45.45 79.8 46.1 80.1 47.0 Q80.4 47.6 80.8 47.6 L80.95 47.65 80.6 48.65 79.65 50.55 79.0 52.1 79.2 52.8 79.3 53.4 79.25 53.7 79.25 53.85 79.1 54.8 79.35 55.25 79.75 55.4 80.05 55.35 Q80.05 54.8 80.55 53.75 L81.3 52.2 81.6 52.75 81.95 53.3 82.2 53.75 82.8 54.4 Q83.4 54.9 85.4 55.35 87.15 55.75 87.15 56.0 L87.25 56.3 87.35 56.5 87.3 56.65 87.25 56.9 87.25 57.05 87.3 57.1 87.3 57.15 87.35 57.2 87.25 57.5 87.05 57.45 86.4 57.45 82.45 57.05 82.2 57.0 81.6 56.8 80.3 56.0 80.2 56.0 79.45 55.45 79.3 55.35 79.35 55.25 79.25 55.3 78.95 55.0 77.05 52.85 Q76.2 51.65 76.2 50.65 76.2 49.7 77.3 46.75 L78.45 43.75 79.65 40.45 Q80.65 37.65 80.65 36.9 L80.6 36.1 80.6 35.9 80.55 35.8 80.4 35.8 Q79.8 35.75 79.35 36.5 L78.6 38.0 78.0 39.3 77.4 40.7 76.9 42.1 76.25 43.5 76.0 44.1 75.75 44.85 75.4 45.65 75.4 46.2 74.75 47.9 Q74.15 49.6 74.15 51.1 74.15 51.9 74.65 52.9 L76.0 54.75 77.85 56.4 Q79.4 57.7 80.4 57.75 L80.7 59.35 80.6 60.1 80.5 62.0 80.45 62.0 80.2 61.35 79.8 60.7 79.5 60.65 79.1 60.6 78.85 60.3 78.5 59.9 77.05 58.65 75.85 57.35 74.7 56.05 73.7 54.8 73.2 54.2 73.0 53.65 72.55 51.8 Q72.35 50.9 72.4 49.85 L72.45 48.05 72.35 47.5 72.0 47.4 Q71.65 47.4 71.6 47.55 L71.5 47.75 71.5 47.7 72.05 45.2 72.55 42.6 72.55 42.1 72.0 41.9 72.0 41.75 71.95 41.7 72.3 39.9 72.55 37.75 72.45 36.25 Q72.3 35.7 71.95 35.45 71.5 35.15 71.5 35.95 L71.6 36.55 Q71.35 36.6 71.15 37.3 L71.0 38.2 70.45 39.1 70.0 39.85 70.15 39.95 70.25 40.1 69.9 41.25 69.35 42.6 68.65 44.15 68.8 45.15 68.65 45.6 68.55 46.05 Q68.55 46.45 69.0 46.4 L68.95 46.65 68.9 47.05 69.0 47.3 69.1 47.6 69.15 47.9 69.55 47.85 69.65 48.2 69.8 48.6 69.7 48.85 69.7 49.2 69.8 49.75 70.15 50.4 70.15 51.05 70.45 51.65 70.4 51.75 68.7 49.75 67.15 47.75 66.7 46.75 66.65 45.7 66.4 43.8 66.8 40.5 67.4 37.75 68.05 36.35 68.9 34.85 69.35 34.1 69.9 33.3 70.4 32.45 Q70.55 32.15 70.8 32.15 L71.95 30.95 73.25 29.25 73.95 28.6 74.6 28.05 74.85 27.7 75.2 27.35 75.5 26.95 75.75 27.0 76.8 25.75 77.75 24.05 77.85 24.1 77.8 24.5 78.0 24.6 78.2 24.25 78.35 23.95 78.65 23.5 78.8 23.7 Q79.3 23.7 79.5 23.35 L79.8 22.9 80.35 22.4 80.5 21.85 80.8 22.15 81.0 20.9 Q81.0 20.1 81.15 19.9 82.2 18.65 82.2 17.7 L82.05 16.95 82.05 16.9 82.35 16.35 82.65 14.6 82.95 13.0 Q83.25 11.95 83.9 11.65 L84.75 11.15 85.45 10.95 85.35 6.45 85.45 3.35 85.5 1.55 85.45 -0.75 85.55 -2.4 85.6 -2.6 86.0 -5.05 85.95 -5.55 85.65 -5.8 85.45 -6.1 84.9 -5.85 84.85 -5.9 M108.0 18.15 L109.0 17.85 Q110.35 17.35 111.0 17.35 L112.4 17.55 113.5 17.75 115.1 17.5 116.05 17.25 117.45 16.95 118.15 16.8 118.65 16.45 118.9 16.25 118.95 16.4 118.05 17.7 117.65 18.5 117.45 18.4 117.3 18.2 116.9 18.3 114.55 18.75 111.5 19.1 108.55 19.6 108.25 18.7 108.0 18.15 M99.85 27.55 L99.85 27.4 99.2 26.7 98.3 25.75 97.35 24.85 Q96.85 24.6 95.6 25.1 L93.75 25.75 92.25 26.25 91.65 26.6 91.2 26.95 87.45 27.15 87.35 27.35 87.65 27.55 89.05 27.65 Q90.25 27.65 93.25 26.45 L93.8 26.25 96.0 25.45 96.25 25.4 96.25 25.45 Q96.25 25.9 99.8 28.0 L100.05 27.95 100.1 27.75 99.85 27.55 M92.95 55.9 L94.55 56.75 97.5 58.55 99.3 59.1 100.4 59.4 100.45 59.45 100.5 59.45 100.85 59.55 101.5 60.0 102.25 60.6 102.6 60.8 103.45 61.5 Q104.3 62.1 105.2 62.3 L105.85 62.4 106.2 62.4 106.7 62.3 Q105.5 63.0 103.35 63.3 102.55 63.35 102.45 63.9 102.3 64.55 101.45 64.7 L100.55 65.0 Q100.0 65.2 99.65 65.0 L99.55 64.7 99.45 64.65 96.55 64.8 96.7 64.55 96.8 64.2 96.8 63.9 96.6 63.85 96.2 63.8 94.95 64.2 93.55 64.65 93.3 63.4 Q93.05 62.25 92.7 62.25 92.25 62.25 92.0 62.8 L91.6 63.65 Q91.05 63.1 90.25 61.45 L90.05 61.05 89.85 60.5 89.75 60.45 89.35 60.05 Q89.1 60.05 88.95 60.2 L88.9 60.15 89.15 59.85 89.65 59.1 89.95 58.85 Q91.55 58.85 91.55 59.15 L93.45 59.85 95.8 60.7 96.3 60.7 96.35 60.65 97.05 61.15 97.25 61.1 97.25 60.9 Q97.25 60.45 95.95 59.75 L94.5 59.05 92.75 58.2 92.5 58.1 Q92.5 57.8 91.65 57.65 L91.6 57.65 91.6 57.6 92.1 56.9 Q92.45 56.25 92.95 55.9 M86.85 59.25 L86.75 59.65 Q86.3 59.7 86.3 60.35 L86.35 60.7 86.3 61.0 86.2 61.1 84.65 59.5 83.95 58.85 86.65 59.25 86.85 59.25" fill="#323a50" fill-rule="evenodd" stroke="none"/>
    <path d="M111.6 46.1 L111.5 46.15 111.55 46.1 111.6 46.1 M108.25 16.15 L108.3 16.1 108.35 16.15 108.25 16.15 M109.95 59.6 L110.0 59.55 110.05 59.7 109.95 59.6" fill="#003300" fill-rule="evenodd" stroke="none"/>
    <path d="M79.05 17.95 L79.0 17.95 78.85 17.85 78.8 17.65 78.5 17.25 78.1 16.35 77.15 14.15 77.95 13.6 Q79.35 13.2 79.35 12.2 L79.2 11.65 78.95 10.9 78.9 10.8 78.8 10.7 77.9 9.65 77.5 8.45 77.4 7.3 Q77.4 6.9 78.05 5.65 L78.55 5.1 79.8 3.4 81.7 0.05 82.3 -1.6 83.65 -3.85 83.85 -4.15 84.2 -4.75 Q84.3 -4.65 84.45 -4.65 L84.55 -4.65 84.55 -4.5 84.5 -4.0 84.55 -3.95 84.55 -3.7 84.55 -3.45 84.5 -3.3 84.25 -3.2 84.15 -2.95 Q83.75 -2.1 83.75 -1.5 L82.7 0.35 Q81.65 2.65 81.6 4.85 L81.5 5.65 81.4 6.4 81.4 7.25 81.2 8.05 Q80.25 10.35 80.25 11.15 L80.75 13.8 80.45 14.3 80.15 14.85 80.25 16.0 80.45 16.65 80.3 17.1 80.25 17.1 80.15 17.2 79.65 17.55 79.05 17.95 M84.9 -5.85 L84.75 -5.75 84.85 -5.85 84.9 -5.85 M117.65 18.5 L117.55 18.65 116.6 19.85 Q115.75 20.7 113.4 21.6 L109.9 22.9 109.9 22.95 109.7 22.6 110.4 22.05 111.9 20.8 112.7 20.35 113.45 19.95 114.3 19.55 114.65 19.25 116.6 19.0 116.7 18.95 116.75 18.95 Q117.45 18.8 117.45 18.4 L117.65 18.5 M92.55 39.45 L92.55 39.4 Q92.55 38.8 92.8 38.65 L93.35 38.7 Q94.15 39.25 94.15 40.35 L94.15 40.85 93.7 41.25 93.05 40.55 92.6 39.6 92.55 39.45 M107.5 48.85 L109.0 47.2 109.9 45.95 110.6 44.7 110.05 42.65 109.45 40.8 Q109.1 40.0 109.1 38.75 L109.1 37.35 109.15 37.7 109.45 40.15 Q109.5 41.05 110.3 42.75 L111.1 44.45 109.7 46.8 Q108.3 48.9 108.0 48.9 L107.5 48.85 M109.1 31.9 L108.9 31.7 108.0 31.1 106.8 30.2 106.15 29.65 106.3 29.5 Q107.25 29.85 107.9 30.35 L108.1 30.7 108.4 30.85 108.45 30.85 109.1 31.9 M98.3 42.95 L98.3 43.1 98.2 43.1 98.3 42.95 M94.95 39.4 L95.05 39.45 95.05 39.5 95.0 39.55 94.95 39.4 M99.95 31.7 L101.0 32.05 101.75 32.15 102.6 32.95 102.75 33.8 102.8 34.45 102.25 36.0 101.45 38.05 100.9 39.0 100.7 39.25 100.4 40.0 99.25 42.1 99.2 42.1 99.2 41.75 99.05 41.7 98.95 41.55 99.2 41.05 99.2 40.75 99.55 37.6 99.95 35.95 100.2 34.45 99.75 32.9 98.85 31.4 99.95 31.7" fill="#625067" fill-rule="evenodd" stroke="none"/>
    <path d="M84.55 -4.65 L84.7 -4.35 84.55 -3.95 84.5 -4.0 84.55 -4.5 84.55 -4.65 M84.5 -3.3 L84.55 -3.3 84.45 -1.1 84.45 2.75 Q84.2 5.55 84.3 7.95 83.95 8.7 83.2 8.85 82.65 8.9 81.9 9.9 81.75 10.1 81.75 10.45 L81.7 11.0 81.7 12.2 81.7 12.65 81.55 13.95 80.85 15.7 80.45 16.65 80.25 16.0 80.15 14.85 80.45 14.3 80.75 13.8 80.25 11.15 Q80.25 10.35 81.2 8.05 L81.4 7.25 81.4 6.4 81.5 5.65 81.6 4.85 Q81.65 2.65 82.7 0.35 L83.75 -1.5 Q83.75 -2.1 84.15 -2.95 L84.25 -3.2 84.5 -3.3 M109.7 22.6 L109.2 21.5 109.6 21.15 110.25 20.65 110.7 20.25 111.25 19.7 111.25 19.65 113.15 19.5 113.35 19.45 113.8 19.4 113.85 19.4 114.55 19.25 114.65 19.25 114.3 19.55 113.45 19.95 112.7 20.35 111.9 20.8 110.4 22.05 109.7 22.6 M92.55 39.45 L92.25 38.6 91.75 36.7 91.65 36.35 91.55 34.75 91.55 34.5 93.85 32.4 95.1 31.35 95.45 31.1 Q96.4 30.5 97.25 30.25 L97.6 30.4 98.35 30.9 100.4 31.15 102.8 31.35 Q104.35 31.35 105.4 30.5 L106.15 29.65 106.8 30.2 108.0 31.1 108.9 31.7 109.1 31.9 109.2 32.4 109.2 33.2 109.15 33.5 109.1 34.1 108.9 35.75 109.1 37.35 109.1 38.75 Q109.1 40.0 109.45 40.8 L110.05 42.65 110.6 44.7 109.9 45.95 109.0 47.2 107.5 48.85 107.3 48.8 106.9 48.55 103.5 48.15 102.5 47.95 102.45 47.95 Q102.95 47.35 103.65 47.35 L104.2 47.45 104.6 47.6 105.2 47.7 105.9 47.85 106.5 48.1 107.05 48.2 107.2 48.3 107.3 48.3 Q107.65 48.3 109.1 46.4 L109.85 45.3 109.9 44.5 109.85 43.75 109.35 42.65 109.05 41.7 108.8 40.8 107.9 38.65 107.4 38.05 107.3 38.0 107.35 37.5 107.3 36.5 107.4 34.8 107.25 33.05 Q106.8 32.2 105.05 33.6 L104.4 34.25 103.75 35.15 103.3 35.95 102.8 36.85 Q102.25 37.95 101.45 40.25 100.55 42.3 99.1 43.7 L98.9 43.35 98.6 43.25 98.75 42.3 98.75 41.15 98.9 40.1 98.95 39.05 99.35 36.85 99.75 34.7 99.55 33.7 98.85 32.3 Q98.3 31.45 97.65 31.35 97.05 31.2 96.35 31.8 L95.1 32.6 93.75 33.45 Q93.55 33.6 93.25 34.5 L93.0 35.45 Q93.0 36.05 93.75 37.9 L94.7 39.7 94.8 39.85 94.95 39.8 95.0 39.65 95.4 39.95 95.45 40.1 95.7 41.1 95.6 41.8 95.15 42.4 94.85 42.1 93.95 41.45 93.7 41.25 94.15 40.85 94.15 40.35 Q94.15 39.25 93.35 38.7 L92.8 38.65 Q92.55 38.8 92.55 39.4 L92.55 39.45 M99.95 31.7 L98.85 31.4 99.75 32.9 100.2 34.45 99.95 35.95 99.55 37.6 99.2 40.75 99.2 41.05 98.95 41.55 99.05 41.7 99.2 41.75 99.2 42.1 99.25 42.1 100.4 40.0 100.7 39.25 100.9 39.0 101.45 38.05 102.25 36.0 102.8 34.45 102.75 33.8 102.6 32.95 101.75 32.15 101.0 32.05 99.95 31.7" fill="#514255" fill-rule="evenodd" stroke="none"/>
    <path d="M82.05 66.65 L82.15 67.45 82.2 68.75 81.3 66.95 80.6 66.35 Q79.4 65.35 78.7 65.35 77.9 65.35 77.75 66.2 L77.7 66.7 78.2 67.4 78.9 68.5 Q79.5 69.8 80.85 71.5 L82.2 73.05 82.1 73.25 81.95 73.3 81.4 73.1 80.9 72.7 79.7 71.8 Q80.95 74.45 83.7 76.2 L85.1 77.25 85.15 77.3 85.2 77.4 85.4 77.5 85.45 77.5 85.45 77.55 86.3 78.25 88.6 80.4 88.8 80.6 77.75 80.6 77.3 79.95 74.95 75.8 73.25 72.7 71.4 69.6 71.45 69.6 Q73.5 70.95 73.75 70.95 L74.05 70.9 74.1 70.8 74.15 70.6 73.35 69.6 Q72.4 68.35 71.8 67.1 L71.05 65.45 Q70.6 64.35 70.6 63.7 70.6 62.85 71.3 62.0 L71.65 61.2 Q72.0 60.55 72.6 60.55 74.2 60.55 76.45 61.85 77.95 62.7 79.1 63.7 L80.9 65.5 82.05 66.65 M103.05 25.0 L103.0 25.0 102.95 24.9 102.9 24.85 102.6 24.45 102.9 24.15 103.2 23.3 103.5 22.85 103.65 22.5 103.75 22.55 103.7 22.7 103.05 24.85 103.05 25.0 M102.65 21.55 L102.6 21.7 102.6 21.75 102.3 21.95 102.5 21.5 102.65 21.55 M99.2 21.35 L98.65 21.8 98.5 21.95 98.6 21.85 99.1 21.25 99.2 21.35 M93.6 16.25 L93.55 16.15 93.65 16.15 93.9 16.1 93.85 16.15 93.8 16.15 93.7 16.2 93.6 16.25 M84.2 22.35 L84.3 22.45 84.25 22.45 84.2 22.35 M84.4 22.75 L84.45 22.8 84.35 22.9 84.4 22.75 M93.45 31.2 L92.9 31.8 92.65 32.0 92.65 31.15 92.4 30.05 92.35 30.05 93.8 29.05 94.0 29.45 93.8 30.3 93.45 31.15 93.45 31.2 M94.9 27.6 L93.35 28.75 93.25 28.8 93.25 28.85 92.15 29.65 91.9 29.8 91.85 29.65 Q91.85 29.05 91.1 28.8 L88.2 28.4 Q87.05 28.3 85.7 28.85 L84.3 29.5 83.45 29.9 82.75 30.3 81.15 31.05 79.55 31.55 Q78.45 31.85 78.1 32.25 L78.1 32.3 77.5 32.6 78.15 31.85 Q79.0 30.95 79.65 30.95 L80.05 31.05 81.1 30.6 81.9 30.1 82.4 29.9 82.85 29.8 Q83.1 29.75 84.15 28.95 L85.2 28.1 Q85.35 28.1 85.4 28.25 L85.55 28.35 86.0 28.1 87.65 27.9 90.25 28.3 91.75 28.75 92.4 28.75 92.8 28.55 Q92.8 28.35 92.95 28.25 L94.15 27.75 Q94.5 27.45 94.85 27.55 L94.9 27.6 M88.45 28.85 L87.75 28.8 86.55 28.95 87.65 28.75 88.45 28.85 M90.85 31.05 L90.9 32.25 90.65 33.35 90.55 33.4 90.35 33.4 90.0 33.25 89.85 32.95 89.5 32.0 Q88.9 30.7 88.05 32.15 87.7 32.9 87.5 33.9 L87.4 34.3 87.3 34.3 Q86.95 34.4 86.55 34.7 L86.5 34.7 86.45 34.75 85.9 35.15 84.05 36.65 83.8 36.95 83.75 37.0 83.7 37.1 83.65 37.05 83.4 37.5 82.85 38.2 82.7 38.15 84.45 35.1 Q85.75 32.9 88.15 30.95 L88.3 31.15 88.45 31.3 89.0 31.2 89.5 31.2 89.85 31.55 90.1 31.85 90.4 31.8 90.5 31.8 90.7 31.1 90.85 31.05 M79.35 53.9 L79.45 53.95 79.6 54.05 79.9 53.55 80.2 52.85 80.65 52.25 80.95 51.7 81.6 50.45 81.75 50.95 82.45 52.45 82.6 52.95 83.1 53.7 83.6 54.05 84.15 54.55 85.85 54.8 87.0 54.75 88.3 54.55 87.95 55.35 87.6 56.25 87.35 57.2 87.3 57.15 87.3 57.1 87.25 57.05 87.25 56.9 87.3 56.65 87.35 56.5 87.25 56.3 87.15 56.0 Q87.15 55.75 85.4 55.35 83.4 54.9 82.8 54.4 L82.2 53.75 81.95 53.3 81.6 52.75 81.3 52.2 80.55 53.75 Q80.05 54.8 80.05 55.35 L79.75 55.4 79.35 55.25 79.1 54.8 79.25 53.85 79.35 53.9 M79.3 55.35 L79.25 55.3 79.35 55.25 79.3 55.35 M80.4 35.85 L80.2 36.1 80.15 36.15 80.05 36.35 80.05 36.4 79.4 38.3 79.3 38.55 79.15 38.9 79.15 38.95 78.8 39.85 78.8 39.95 78.0 41.8 78.0 41.85 77.9 42.0 77.85 42.25 77.75 42.7 77.6 43.25 77.55 43.4 77.5 43.5 77.5 43.6 77.15 44.3 76.6 45.8 76.4 46.25 76.3 46.15 76.15 46.45 76.2 46.6 75.7 47.3 Q75.1 47.95 75.0 48.55 L74.8 49.35 74.6 50.4 74.7 51.2 75.05 52.05 75.4 52.85 75.9 53.6 Q77.85 55.8 79.6 56.75 L79.9 56.75 80.4 57.1 80.4 57.55 80.4 57.75 Q79.4 57.7 77.85 56.4 L76.0 54.75 74.65 52.9 Q74.15 51.9 74.15 51.1 74.15 49.6 74.75 47.9 L75.4 46.2 75.4 45.65 75.75 44.85 76.0 44.1 76.25 43.5 76.9 42.1 77.4 40.7 78.0 39.3 78.6 38.0 79.35 36.5 Q79.8 35.75 80.4 35.8 L80.4 35.85 M77.75 60.9 L77.5 60.7 77.6 60.65 78.0 60.85 78.05 61.0 77.95 61.0 77.75 60.9 M71.6 36.55 L71.65 36.8 71.8 37.55 71.8 37.65 71.75 38.4 71.0 41.75 71.35 40.0 71.6 38.75 Q70.7 40.3 70.45 42.0 L70.35 43.4 70.35 43.45 70.35 43.6 70.35 45.1 70.35 47.8 70.5 49.1 70.6 49.65 70.6 49.8 70.7 50.2 70.7 50.4 Q70.7 50.85 71.25 53.05 L71.55 54.35 71.6 54.35 71.6 54.45 71.55 54.4 71.5 54.4 70.5 53.45 69.1 52.45 69.05 52.4 68.25 51.65 68.2 50.95 66.9 49.3 Q65.5 47.6 65.1 46.4 L64.7 44.3 64.35 41.85 Q64.35 40.7 65.2 38.65 L66.3 35.4 Q66.4 34.7 66.95 33.85 L68.05 32.3 69.2 30.7 70.05 29.9 70.9 29.15 73.15 25.95 73.5 25.05 73.85 24.4 74.65 23.6 75.4 22.8 76.75 21.2 Q77.65 20.15 78.35 19.95 L79.6 19.35 80.35 18.65 80.6 18.35 80.65 18.35 Q81.55 18.35 82.05 16.95 L82.2 17.7 Q82.2 18.65 81.15 19.9 81.0 20.1 81.0 20.9 L80.8 22.15 80.5 21.85 80.35 22.4 79.8 22.9 79.5 23.35 Q79.3 23.7 78.8 23.7 L78.65 23.5 78.35 23.95 78.2 24.25 78.0 24.6 77.8 24.5 77.85 24.1 77.75 24.05 76.8 25.75 75.75 27.0 75.5 26.95 75.2 27.35 74.85 27.7 74.6 28.05 73.95 28.6 73.25 29.25 71.95 30.95 70.8 32.15 Q70.55 32.15 70.4 32.45 L69.9 33.3 69.35 34.1 68.9 34.85 68.05 36.35 67.4 37.75 66.8 40.5 66.4 43.8 66.65 45.7 66.7 46.75 67.15 47.75 68.7 49.75 70.4 51.75 70.45 51.65 70.15 51.05 70.15 50.4 69.8 49.75 69.7 49.2 69.7 48.85 69.8 48.6 69.65 48.2 69.55 47.85 69.15 47.9 69.1 47.6 69.0 47.3 68.9 47.05 68.95 46.65 69.0 46.4 Q68.55 46.45 68.55 46.05 L68.65 45.6 68.8 45.15 68.65 44.15 69.35 42.6 69.9 41.25 70.25 40.1 70.15 39.95 70.0 39.85 70.45 39.1 71.0 38.2 71.15 37.3 Q71.35 36.6 71.6 36.55 M71.2 45.0 L71.2 45.1 71.1 45.4 71.2 45.0 M84.85 -5.85 L84.85 -5.9 84.9 -5.85 84.85 -5.85 M118.9 16.25 L119.1 16.2 118.95 16.4 118.9 16.25 M103.2 49.35 L104.7 49.5 104.75 49.5 104.9 49.55 Q104.25 49.95 102.85 49.95 L101.6 49.75 103.2 49.55 103.2 49.35 M105.8 56.25 L104.6 57.45 104.85 56.85 104.65 56.1 104.4 55.35 104.4 54.5 104.5 53.85 Q104.5 52.9 103.7 52.65 L103.35 52.55 103.45 52.25 103.6 51.45 103.55 51.0 103.55 50.95 104.3 50.7 104.5 50.55 105.15 50.3 105.0 51.05 104.85 52.4 105.2 54.25 105.8 56.25 M88.95 60.2 L88.8 60.7 88.75 61.75 88.1 60.9 88.05 60.8 88.2 60.8 88.9 60.15 88.95 60.2 M89.55 59.0 L90.0 58.35 91.9 58.45 92.0 58.45 94.1 59.4 94.25 59.5 94.75 59.75 95.0 59.85 95.15 60.0 95.35 60.05 96.35 60.65 96.3 60.7 95.8 60.7 93.45 59.85 91.55 59.15 Q91.55 58.85 89.95 58.85 L89.65 59.1 89.55 59.0 M83.95 58.85 L83.1 58.35 Q82.9 58.35 82.8 58.55 L82.8 58.65 Q82.7 58.85 82.75 59.05 L82.75 59.2 82.2 58.35 81.9 57.95 85.45 58.35 87.05 58.2 86.85 59.25 86.65 59.25 83.95 58.85 M86.3 61.0 L86.3 61.2 86.2 61.1 86.3 61.0" fill="#242939" fill-rule="evenodd" stroke="none"/>
    <path d="M93.75 70.5 L93.85 70.4 93.95 70.4 93.8 70.6 93.75 70.5" fill="#10451b" fill-rule="evenodd" stroke="none"/>
    <path d="M89.75 3.25 L89.8 3.1 89.95 2.95 90.85 3.9 91.35 4.65 91.45 4.6 91.9 4.85 92.1 4.7 92.2 4.45 92.1 4.15 92.0 3.9 91.85 3.55 91.75 3.2 91.85 2.9 92.35 2.65 94.35 5.6 Q93.95 5.3 93.7 5.3 L93.25 5.45 93.1 5.85 93.15 6.4 93.25 6.5 91.6 5.25 Q91.0 4.7 90.45 4.9 L89.85 3.55 89.75 3.3 89.75 3.25 M96.4 7.9 L96.5 7.9 96.7 7.75 96.8 7.55 96.85 7.2 96.75 6.15 96.6 5.1 96.75 4.8 96.9 4.45 96.75 3.6 96.6 2.7 96.65 2.35 96.85 2.2 97.4 3.55 97.9 5.1 98.2 5.05 98.4 5.05 98.8 6.4 99.1 7.6 Q99.1 8.1 99.55 8.85 L100.15 9.95 100.4 9.95 100.6 10.0 100.65 9.9 Q100.55 8.2 101.0 6.9 L101.25 7.05 101.35 9.7 101.15 11.95 101.1 12.2 Q100.85 12.35 100.7 12.9 L100.4 13.75 100.35 13.55 99.4 10.95 99.3 10.7 98.75 8.85 Q98.45 8.0 97.9 7.5 L97.55 7.15 97.5 7.15 97.35 7.25 97.25 7.55 97.3 7.95 97.2 7.9 Q96.8 7.9 96.7 8.1 L96.7 8.2 96.4 7.9 M101.5 17.45 L101.3 17.45 101.7 16.4 101.8 15.8 102.35 12.35 102.35 11.75 102.45 11.6 104.1 9.0 105.15 6.75 105.45 6.25 105.6 5.75 105.75 5.35 Q105.9 5.05 106.2 5.05 L106.2 5.55 Q106.2 6.75 104.8 9.85 L103.05 13.65 103.7 13.05 104.15 12.8 104.35 12.95 104.8 12.5 105.15 12.25 105.3 12.2 105.4 12.25 105.4 12.45 Q105.4 12.95 104.7 13.85 L103.8 14.8 102.65 16.35 101.5 17.45 M85.05 39.5 Q85.05 41.0 85.6 41.0 L85.7 41.0 85.0 42.4 85.0 42.25 Q85.0 41.5 84.45 41.0 L84.5 40.85 84.55 40.45 Q84.55 39.9 84.2 39.6 84.0 39.4 83.5 39.3 L83.55 39.2 83.9 38.55 83.75 39.1 Q83.85 39.45 85.05 39.5 M90.8 45.45 L91.3 45.3 92.0 45.1 92.2 46.0 92.35 46.9 Q92.4 47.35 92.75 47.65 L93.85 48.25 Q94.25 48.4 94.45 49.0 94.7 49.6 95.15 49.8 96.1 50.05 96.2 50.55 L96.3 50.8 95.4 50.95 94.85 51.1 94.1 50.2 93.6 49.6 93.7 49.35 93.65 49.2 93.6 49.1 93.15 49.0 92.4 48.5 91.35 48.3 90.45 48.65 90.4 48.7 90.7 45.45 90.8 45.45 M98.3 51.5 L98.25 51.8 Q98.25 52.1 98.4 52.25 L98.0 52.25 97.75 51.4 97.65 51.35 98.45 51.35 98.3 51.5 M97.5 51.15 L98.0 51.1 98.0 51.15 97.65 51.3 97.5 51.15 M83.6 67.25 L83.35 67.95 83.2 66.55 83.0 64.65 Q82.85 63.15 82.35 62.05 L82.15 61.0 81.95 59.9 82.8 61.0 82.8 61.05 82.85 61.1 82.95 61.35 82.95 61.25 83.7 61.95 83.9 61.9 84.0 61.75 84.0 61.65 84.0 61.55 84.05 61.2 83.75 60.1 83.8 60.1 84.0 60.3 85.15 61.45 85.2 61.6 85.2 61.5 85.45 61.75 85.65 61.9 85.8 62.05 85.8 62.1 86.1 62.4 86.45 62.6 86.55 62.6 86.75 62.75 87.25 62.05 87.25 61.95 87.4 62.45 87.6 63.15 87.25 65.35 86.65 68.15 86.45 69.4 86.35 69.85 86.1 69.8 Q85.65 69.8 85.35 71.35 L85.3 71.5 84.9 73.05 84.9 73.0 84.75 72.4 84.8 69.1 84.8 67.2 84.8 67.0 85.0 65.45 84.95 65.15 84.9 65.15 84.7 65.1 84.45 65.5 84.35 65.5 Q83.8 65.5 83.7 66.25 83.6 66.65 83.65 67.15 L83.55 66.9 83.6 67.25 M88.9 63.5 L88.95 63.55 89.0 63.55 Q89.35 63.45 89.5 62.75 L89.6 62.1 Q90.7 64.3 91.25 64.8 L91.25 64.85 91.55 65.0 91.75 65.1 92.35 64.7 92.5 64.25 92.55 64.9 92.55 64.95 92.6 64.95 90.35 67.55 87.9 70.3 87.75 70.2 87.7 70.15 88.3 67.5 87.25 70.35 86.55 73.05 86.3 74.1 86.1 74.3 86.5 72.6 86.5 71.45 86.5 69.95 86.4 69.85 86.55 69.2 87.7 66.1 88.9 63.5 M74.85 4.95 L74.9 5.0 75.0 5.0 75.0 5.05 75.05 5.1 76.5 5.7 76.9 5.75 76.9 5.8 Q76.35 7.0 76.35 7.5 L76.75 9.75 Q76.8 10.15 77.3 10.65 L78.2 11.55 Q77.85 12.1 76.8 12.7 75.7 13.35 75.55 13.55 L76.8 16.15 Q76.5 16.3 75.95 16.95 74.9 18.15 73.45 20.7 L70.9 23.9 69.2 25.9 Q69.2 26.3 69.65 26.3 L69.7 26.3 69.8 26.35 70.05 26.45 71.05 25.85 71.2 25.75 71.45 25.65 69.35 28.15 67.15 30.8 65.1 33.4 Q63.8 35.0 62.4 35.75 L62.55 36.1 61.75 36.75 61.85 37.05 62.15 37.2 62.7 36.95 62.8 36.9 62.85 36.95 63.0 37.15 63.45 36.65 62.75 38.35 61.9 39.9 60.25 42.95 59.7 43.85 58.65 45.5 58.65 45.25 58.7 45.0 Q58.7 44.95 58.85 44.9 L58.65 44.8 58.65 44.5 58.85 42.5 59.1 40.5 58.85 39.5 58.65 38.3 58.7 37.75 58.6 37.5 58.55 37.2 Q58.55 36.45 58.85 35.45 L59.45 33.65 59.15 34.1 58.85 34.4 58.65 34.4 58.65 34.3 58.65 33.8 60.05 29.05 59.9 28.8 59.75 28.6 Q59.75 28.3 60.25 27.4 L60.75 26.35 60.6 26.05 Q60.55 25.95 60.85 25.4 L61.05 24.95 61.35 24.4 61.7 23.35 62.15 22.35 64.1 19.95 65.6 18.4 Q66.05 18.4 66.15 18.15 L66.65 17.3 67.15 16.45 Q67.45 15.8 67.7 15.55 67.4 15.45 67.4 15.15 L68.25 14.25 69.5 13.25 70.7 12.1 71.1 11.75 71.25 11.0 71.55 10.55 72.3 10.25 73.15 9.65 73.6 9.1 74.15 8.6 74.95 8.65 75.3 8.05 75.85 7.6 76.1 7.6 76.1 6.95 75.9 6.4 75.7 5.9 75.2 5.4 74.85 4.95 M73.9 9.85 L74.4 9.55 74.4 9.5 Q74.2 9.5 73.9 9.85 M60.1 31.4 L60.45 30.95 60.4 30.9 60.1 31.4 M61.8 27.05 L61.95 26.6 61.95 26.55 61.85 26.75 61.8 27.05" fill="#07090c" fill-rule="evenodd" stroke="none"/>
    <path d="M49.25 64.6 Q50.7 62.05 52.3 59.75 L52.3 59.15 51.3 59.9 52.05 58.55 54.0 55.55 Q56.5 51.95 57.05 49.55 57.3 48.45 58.6 46.5 L60.5 43.45 61.0 42.45 61.05 42.3 61.65 41.2 61.3 42.35 60.85 44.1 60.9 44.6 60.95 44.7 61.2 44.8 61.3 44.8 61.45 44.8 62.15 44.1 62.25 44.05 62.9 43.15 Q62.7 45.55 63.4 47.35 64.25 49.8 66.7 51.7 L71.65 55.55 76.15 59.25 76.15 59.35 75.05 59.55 Q74.9 59.65 74.9 59.8 74.9 60.15 76.65 61.5 L78.55 62.9 80.55 64.6 82.0 65.75 82.05 66.65 80.9 65.5 79.1 63.7 Q77.95 62.7 76.45 61.85 74.2 60.55 72.6 60.55 72.0 60.55 71.65 61.2 L71.3 62.0 Q70.6 62.85 70.6 63.7 70.6 64.35 71.05 65.45 L71.8 67.1 Q72.4 68.35 73.35 69.6 L74.15 70.6 74.1 70.8 74.05 70.9 73.75 70.95 Q73.5 70.95 71.45 69.6 L71.4 69.6 73.25 72.7 74.95 75.8 77.3 79.95 77.75 80.6 49.25 80.6 49.25 64.6 M83.2 71.0 L83.5 70.6 83.55 70.55 83.65 70.15 83.7 70.1 83.75 69.6 83.85 69.25 83.85 69.15 83.85 69.05 84.0 68.5 84.05 68.45 83.85 72.6 83.8 72.25 83.65 71.8 83.4 71.4 83.2 71.0 M84.75 75.9 L84.95 75.5 85.35 74.5 85.15 75.85 85.1 76.4 84.75 75.9 M91.75 9.9 L91.75 9.65 91.75 9.45 91.75 9.35 91.75 9.25 91.75 8.35 91.15 6.95 90.9 6.0 91.85 6.8 93.8 8.2 94.25 8.1 94.9 8.35 95.05 8.35 Q95.55 9.15 96.55 9.95 97.95 11.05 98.0 11.45 98.15 12.5 98.65 13.55 99.35 15.0 100.35 15.6 L99.85 16.3 99.45 15.9 99.2 15.5 98.95 15.1 98.55 14.8 98.15 14.55 97.55 13.65 96.7 12.75 Q96.65 12.65 96.2 12.5 L95.6 12.3 94.9 11.55 94.65 11.75 93.85 11.3 93.0 10.75 92.65 10.55 92.25 10.2 91.75 9.9 M94.05 17.15 L93.7 16.35 93.7 16.2 93.8 16.15 93.85 16.15 93.9 16.1 96.3 15.15 96.5 15.2 95.5 16.2 95.15 16.4 94.75 16.65 94.35 16.9 94.05 17.15 M84.45 22.85 L84.55 22.95 84.85 23.4 84.95 23.55 85.0 23.6 84.45 24.35 83.35 25.35 82.05 26.7 80.8 27.45 81.05 27.0 82.55 24.85 83.4 23.75 83.45 23.65 83.65 23.5 83.7 23.5 83.7 23.4 83.75 23.4 84.2 23.0 84.3 22.95 84.35 22.9 84.45 22.85 M92.25 30.1 L92.35 30.05 92.4 30.05 92.25 30.1 M94.95 27.55 L94.9 27.6 94.85 27.55 94.95 27.55 M91.9 29.8 L91.85 29.8 91.85 29.65 91.9 29.8 M84.0 30.2 L83.6 30.3 83.75 30.2 84.0 30.2 M90.8 30.9 L90.85 31.05 90.7 31.1 90.8 30.9 M82.85 38.2 L82.8 38.25 82.35 38.85 82.25 39.05 82.25 39.0 82.35 38.85 82.65 38.25 82.7 38.15 82.85 38.2 M79.3 53.4 L79.35 53.9 79.25 53.85 79.25 53.7 79.3 53.4 M80.6 36.1 L80.4 35.85 80.4 35.8 80.55 35.8 80.6 35.9 80.6 36.1 M75.85 48.25 L75.6 49.15 75.6 49.25 75.5 49.6 75.4 50.3 Q75.4 49.45 75.75 48.45 L75.85 48.25 M80.7 59.35 L81.0 60.8 81.4 62.45 81.3 63.65 81.3 63.95 80.2 62.9 78.65 61.6 77.75 60.9 77.95 61.0 78.05 61.0 78.0 60.85 78.05 60.85 78.1 60.9 78.3 60.9 78.5 60.85 78.55 60.85 78.55 60.65 77.75 59.75 75.8 57.8 74.5 56.65 73.55 55.9 73.55 55.85 73.6 55.65 73.35 54.65 73.2 54.2 73.7 54.8 74.7 56.05 75.85 57.35 77.05 58.65 78.5 59.9 78.85 60.3 79.1 60.6 79.5 60.65 79.8 60.7 80.2 61.35 80.45 62.0 80.5 62.0 80.6 60.1 80.7 59.35 M81.8 64.45 L81.7 64.35 81.85 64.35 81.8 64.45 M68.25 51.65 L67.25 50.75 65.5 48.85 64.35 47.55 63.9 46.0 63.9 45.8 63.8 43.4 63.65 42.3 63.7 41.9 63.7 41.7 63.65 41.6 63.6 41.55 63.35 41.55 Q63.05 41.55 62.55 42.25 L62.55 42.3 62.1 42.7 62.35 41.85 62.7 40.9 63.35 39.2 63.7 38.5 64.65 36.55 64.8 36.35 65.65 35.25 65.55 34.85 65.95 34.05 65.9 34.05 65.3 34.55 66.2 33.25 68.5 30.35 71.35 27.05 Q73.05 25.1 73.1 24.45 L73.05 24.45 73.05 24.25 73.0 24.2 72.8 24.15 72.75 24.15 72.4 24.35 72.0 24.65 71.9 24.7 71.85 24.65 Q73.5 22.9 75.0 20.4 L76.25 18.35 77.0 17.3 77.15 17.05 77.85 19.25 78.75 19.35 78.85 19.3 78.95 18.85 78.8 18.25 78.9 18.3 79.1 18.25 79.1 18.05 79.05 17.95 79.65 17.55 80.15 17.2 80.25 17.1 80.25 17.15 80.15 17.45 80.0 17.85 80.15 18.15 80.6 18.35 80.35 18.65 79.6 19.35 78.35 19.95 Q77.65 20.15 76.75 21.2 L75.4 22.8 74.65 23.6 73.85 24.4 73.5 25.05 73.15 25.95 70.9 29.15 70.05 29.9 69.2 30.7 68.05 32.3 66.95 33.85 Q66.4 34.7 66.3 35.4 L65.2 38.65 Q64.35 40.7 64.35 41.85 L64.7 44.3 65.1 46.4 Q65.5 47.6 66.9 49.3 L68.2 50.95 68.25 51.65 M98.05 8.75 L98.15 8.7 98.25 9.05 98.05 8.75 M101.6 49.75 L99.75 49.25 Q97.45 48.55 96.85 48.05 L95.7 46.75 94.75 45.5 94.65 45.45 94.15 44.2 94.1 44.0 93.9 43.4 93.65 42.7 94.2 43.1 94.6 43.4 94.75 43.7 95.5 45.35 96.2 46.7 Q96.85 47.85 97.5 47.85 L97.65 47.8 98.05 48.0 99.85 48.65 99.9 48.7 100.4 48.75 100.6 48.85 102.7 49.3 103.2 49.35 103.2 49.55 101.6 49.75 M88.05 60.8 L87.95 60.6 89.0 59.65 89.55 59.0 89.65 59.1 89.15 59.85 88.9 60.15 88.2 60.8 88.05 60.8 M91.6 57.6 L91.55 57.6 91.5 57.55 91.0 57.45 91.6 56.9 91.9 56.25 Q92.15 55.8 92.65 55.8 L92.95 55.9 Q92.45 56.25 92.1 56.9 L91.6 57.6" fill="#1c202b" fill-rule="evenodd" stroke="none"/>
    <path d="M84.3 7.95 L84.45 10.2 Q82.35 10.65 81.95 11.75 L81.7 12.65 81.7 12.2 81.7 11.0 81.75 10.45 Q81.75 10.1 81.9 9.9 82.65 8.9 83.2 8.85 83.95 8.7 84.3 7.95 M109.2 21.5 L109.2 21.45 108.75 20.1 109.35 19.9 110.6 19.65 111.25 19.65 111.25 19.7 110.7 20.25 110.25 20.65 109.6 21.15 109.2 21.5 M98.35 40.4 L98.3 40.75 98.3 42.95 98.2 43.1 97.7 42.05 97.4 40.85 Q96.95 39.9 95.75 39.6 L95.05 39.45 94.95 39.4 94.75 38.9 94.25 37.65 93.55 35.9 93.7 35.9 93.9 35.55 94.1 35.6 94.55 37.0 95.45 38.2 96.25 38.8 97.15 39.35 97.7 39.95 98.2 40.4 98.35 40.4 M107.0 47.6 L107.2 47.2 107.3 46.65 107.1 46.7 Q105.65 46.7 105.05 46.1 L104.7 45.65 104.4 45.45 Q103.95 45.45 103.75 45.75 L103.1 46.05 103.7 45.2 103.95 44.9 104.05 44.7 104.25 44.7 105.0 44.65 106.05 45.0 107.0 45.35 107.85 45.05 108.3 44.6 108.4 44.8 108.5 45.15 108.3 45.6 108.1 45.95 Q108.1 46.4 108.5 46.4 L108.55 46.4 108.45 46.5 107.8 47.3 107.65 47.45 107.05 48.05 107.0 48.05 107.0 47.8 107.0 47.6" fill="#362c38" fill-rule="evenodd" stroke="none"/>
    <path d="M89.65 19.9 Q89.05 20.1 88.8 20.85 L88.55 21.45 88.15 21.35 87.45 21.3 86.95 21.25 87.45 20.65 88.25 19.8 89.25 19.2 Q90.15 18.7 90.65 18.7 92.15 18.7 92.9 21.05 L93.35 22.65 93.55 23.1 93.4 23.05 93.3 23.05 92.15 22.35 92.2 22.1 92.35 21.6 92.15 20.7 91.6 20.15 91.6 20.1 Q91.6 19.55 91.05 19.45 90.85 19.2 90.4 19.25 89.75 19.35 89.65 19.9 M107.15 25.15 L107.5 25.6 Q107.4 25.45 107.1 25.45 L107.0 25.5 106.7 25.55 106.65 25.65 106.6 25.9 106.05 26.3 105.75 26.5 105.3 26.35 105.75 26.05 Q106.85 25.25 107.15 25.15 M107.55 25.7 L107.75 26.2 107.8 27.2 107.7 27.3 107.55 27.15 107.5 26.8 107.4 26.45 107.55 26.3 107.6 26.0 107.55 25.7" fill="#999999" fill-rule="evenodd" stroke="none"/>
    <path d="M93.55 23.1 L93.35 22.65 92.9 21.05 Q92.15 18.7 90.65 18.7 90.15 18.7 89.25 19.2 L88.25 19.8 87.45 20.65 86.95 21.25 86.85 21.25 86.0 21.15 Q86.4 19.8 88.15 18.65 89.65 17.7 90.55 17.7 91.9 17.7 93.2 20.15 L93.3 20.35 93.4 20.6 93.45 20.7 93.45 20.85 93.55 20.95 93.6 20.95 93.65 21.05 94.05 22.15 94.1 22.25 94.15 22.35 94.15 22.4 94.15 22.55 94.15 22.65 94.25 22.65 94.25 22.7 94.2 22.9 93.75 23.1 93.55 23.1 M107.95 25.35 L108.0 25.4 108.1 25.55 108.3 26.25 108.2 27.55 108.2 27.8 108.2 27.85 107.95 27.55 107.8 27.2 107.75 26.2 107.55 25.7 107.5 25.6 107.15 25.15 107.5 25.15 107.85 25.25 107.95 25.35" fill="#666666" fill-rule="evenodd" stroke="none"/>
    <path d="M91.9 72.45 L92.5 72.8 92.55 72.8 93.2 73.1 95.75 74.35 97.75 75.8 99.5 77.5 99.8 77.9 100.8 79.25 101.8 80.6 97.5 80.6 96.95 79.8 95.75 78.1 94.3 76.25 92.8 74.6 Q91.85 73.5 91.85 72.7 L91.9 72.5 91.9 72.45 M106.0 18.3 L106.4 18.1 Q106.75 19.6 108.3 22.8 L108.4 23.1 108.15 23.3 107.8 23.0 107.65 22.25 107.3 21.5 107.0 20.75 106.0 18.3 M104.55 22.4 L104.1 23.6 104.05 23.7 103.85 24.2 103.8 24.35 103.7 24.35 103.3 24.95 103.15 25.25 103.05 25.0 103.05 24.85 103.7 22.7 103.75 22.55 103.8 22.4 103.9 21.95 Q104.15 21.0 104.6 20.95 L104.6 21.85 104.55 22.4 M102.3 21.95 L102.2 22.0 102.2 22.05 101.75 22.55 100.55 23.05 99.7 23.15 99.65 23.15 99.55 23.05 99.65 22.85 Q100.8 22.35 101.45 21.35 L102.35 20.0 102.55 20.4 102.6 20.85 102.5 21.5 102.3 21.95 M98.5 21.95 L98.45 22.0 Q97.8 22.55 97.4 22.55 L95.95 20.7 95.85 20.6 95.9 20.6 96.05 20.55 96.6 20.85 97.25 21.15 Q97.65 21.15 98.15 20.35 L98.55 19.45 98.9 18.5 99.2 17.65 99.65 18.55 99.65 19.35 99.65 20.1 99.25 21.05 99.1 21.25 98.6 21.85 98.5 21.95 M93.55 16.15 L93.35 15.9 Q94.0 15.45 95.75 14.95 L97.55 14.7 97.5 14.7 97.35 14.75 97.3 14.75 97.2 14.8 97.05 14.85 97.0 14.9 96.85 14.95 96.3 15.15 93.9 16.1 93.65 16.15 93.55 16.15 M84.3 22.45 L84.4 22.75 84.35 22.9 84.3 22.9 84.3 22.95 84.2 23.0 83.75 23.4 83.7 23.4 83.7 23.5 83.65 23.5 83.45 23.65 83.4 23.75 82.55 24.85 81.05 27.0 80.8 27.45 80.2 28.45 Q80.95 26.35 82.6 24.1 L83.85 22.65 84.25 22.45 84.3 22.45 M98.95 24.9 L100.05 25.6 101.7 26.65 101.85 26.7 101.9 26.75 101.9 26.8 102.3 27.05 102.35 27.1 102.5 26.95 102.6 26.95 102.6 27.15 102.7 27.2 103.8 27.15 104.25 27.2 Q106.4 27.3 107.15 28.45 L107.25 28.65 106.3 28.5 Q105.9 28.5 105.25 28.85 L104.6 28.0 103.1 27.95 Q101.75 27.95 101.4 27.55 L101.0 27.05 100.7 26.65 Q99.5 25.25 98.9 24.95 L98.95 24.9 M96.7 27.4 L96.9 27.4 97.95 28.15 Q99.25 28.95 100.65 29.45 L101.55 29.45 101.55 29.5 101.55 29.75 101.5 29.8 98.05 28.95 Q96.6 28.3 96.6 27.65 L96.7 27.4 M108.0 18.15 L107.55 17.2 107.55 17.15 107.7 16.95 111.2 16.55 113.9 16.7 115.6 16.85 Q117.2 16.85 118.5 16.05 L119.6 15.2 119.6 15.55 119.1 16.2 118.9 16.25 118.65 16.45 118.15 16.8 117.45 16.95 116.05 17.25 115.1 17.5 113.5 17.75 112.4 17.55 111.0 17.35 Q110.35 17.35 109.0 17.85 L108.0 18.15 M99.85 27.55 L100.1 27.75 100.05 27.95 99.8 28.0 Q96.25 25.9 96.25 25.45 L96.25 25.4 96.25 25.35 96.65 25.3 97.0 25.25 97.1 25.25 98.15 26.45 Q99.25 27.65 99.6 27.65 L99.8 27.6 99.85 27.55 M109.75 25.75 L110.2 26.6 Q110.2 27.15 109.3 28.0 L108.65 28.75 108.55 28.45 109.1 27.85 109.5 27.1 109.7 25.75 109.75 25.75 M105.15 50.3 L105.45 50.15 Q105.55 50.05 105.6 50.05 L105.65 50.05 105.6 51.75 105.7 53.95 Q105.8 54.85 106.2 55.6 L105.8 56.25 105.2 54.25 104.85 52.4 105.0 51.05 105.15 50.3 M106.7 62.3 L107.1 62.2 108.3 61.4 108.3 61.35 108.6 61.05 108.6 61.3 108.0 62.55 107.7 62.95 Q107.1 63.45 106.05 63.75 L104.7 64.3 103.4 65.05 103.1 65.45 102.75 65.85 100.8 65.9 100.15 65.9 100.0 65.9 99.95 65.9 99.35 65.9 99.2 65.85 99.65 65.5 99.65 65.1 99.65 65.0 Q100.0 65.2 100.55 65.0 L101.45 64.7 Q102.3 64.55 102.45 63.9 102.55 63.35 103.35 63.3 105.5 63.0 106.7 62.3" fill="#505b7e" fill-rule="evenodd" stroke="none"/>
    <path d="M94.2 17.5 L94.2 17.45 94.15 17.45 94.15 17.35 94.05 17.15 94.35 16.9 94.75 16.65 95.15 16.4 95.5 16.2 96.5 15.2 96.3 15.15 96.85 14.95 97.0 14.9 97.05 14.85 97.2 14.8 97.3 14.75 97.35 14.75 97.5 14.7 97.55 14.7 98.0 14.7 98.05 14.8 98.05 14.95 97.95 15.15 97.85 15.2 97.15 15.6 96.15 16.1 94.95 17.0 94.2 17.5 M93.7 16.35 L93.6 16.25 93.7 16.2 93.7 16.35 M84.45 22.8 L84.45 22.85 84.35 22.9 84.3 22.95 84.3 22.9 84.35 22.9 84.45 22.8 M85.0 23.6 L85.35 24.0 85.55 24.2 84.55 25.1 Q83.05 26.3 82.9 26.45 L81.45 27.95 80.3 29.15 80.1 29.1 80.1 29.05 80.15 29.05 80.05 28.95 80.05 28.85 80.05 28.75 80.2 28.45 80.8 27.45 82.05 26.7 83.35 25.35 84.45 24.35 85.0 23.6 M92.65 32.0 L92.1 32.4 92.0 31.35 92.0 31.15 92.0 30.6 91.9 30.3 92.25 30.1 92.4 30.05 92.65 31.15 92.65 32.0 M91.85 29.8 L91.75 29.85 91.45 29.5 Q90.85 29.05 89.65 29.05 L88.45 28.85 87.65 28.75 86.55 28.95 86.35 29.0 85.2 29.5 85.1 29.5 Q84.65 29.75 84.05 30.15 L84.0 30.2 83.75 30.2 83.6 30.3 81.7 30.95 Q79.4 31.7 78.1 32.3 L78.1 32.25 Q78.45 31.85 79.55 31.55 L81.15 31.05 82.75 30.3 83.45 29.9 84.3 29.5 85.7 28.85 Q87.05 28.3 88.2 28.4 L91.1 28.8 Q91.85 29.05 91.85 29.65 L91.85 29.8 M90.9 32.25 L90.95 33.2 91.0 33.2 Q90.3 33.85 90.2 34.45 L90.15 34.1 89.85 32.95 90.0 33.25 90.35 33.4 90.55 33.4 90.65 33.35 90.9 32.25 M76.4 46.25 L76.1 47.3 75.85 48.25 75.75 48.45 Q75.4 49.45 75.4 50.3 L75.4 50.5 75.4 50.55 75.4 50.7 Q75.4 51.95 75.95 52.7 L76.05 52.85 78.0 55.3 79.2 56.3 79.9 56.75 79.6 56.75 Q77.85 55.8 75.9 53.6 L75.4 52.85 75.05 52.05 74.7 51.2 74.6 50.4 74.8 49.35 75.0 48.55 Q75.1 47.95 75.7 47.3 L76.2 46.6 76.15 46.45 76.3 46.15 76.4 46.25 M81.4 62.45 L81.8 64.2 81.85 64.35 81.85 64.5 81.8 64.45 81.85 64.35 81.7 64.35 81.3 63.95 81.3 63.65 81.4 62.45 M71.0 41.75 L70.9 41.95 70.35 43.4 70.45 42.0 Q70.7 40.3 71.6 38.75 L71.35 40.0 71.0 41.75 M70.35 43.6 L70.45 43.8 70.45 43.9 70.45 43.95 70.65 44.0 70.9 43.9 71.2 43.8 71.2 44.05 71.2 44.25 71.2 45.0 71.1 45.4 70.8 46.55 70.6 48.8 70.6 49.65 70.5 49.1 70.35 47.8 70.35 45.1 70.35 43.6 M70.7 50.2 L71.05 50.5 71.4 50.4 71.45 50.4 71.6 50.9 72.05 53.6 72.5 55.1 71.6 54.45 71.6 54.35 71.55 54.35 71.25 53.05 Q70.7 50.85 70.7 50.4 L70.7 50.2 M94.6 43.4 L95.15 44.0 96.3 45.25 96.65 46.2 97.0 47.4 97.65 47.8 97.5 47.85 Q96.85 47.85 96.2 46.7 L95.5 45.35 94.75 43.7 94.6 43.4 M61.95 40.4 L61.65 41.1 61.8 40.65 61.9 40.4 62.25 39.85 61.95 40.4" fill="#161a23" fill-rule="evenodd" stroke="none"/>
    <path d="M91.6 20.15 L91.55 20.5 Q91.35 20.95 90.8 20.95 L90.4 20.8 89.9 20.55 89.65 20.05 89.65 19.9 Q89.75 19.35 90.4 19.25 90.85 19.2 91.05 19.45 91.6 19.55 91.6 20.1 L91.6 20.15 M107.5 25.6 L107.55 25.7 107.6 26.0 107.55 26.3 107.4 26.45 107.1 26.55 Q106.85 26.55 106.7 26.35 L106.6 26.0 106.6 25.9 106.65 25.65 106.7 25.55 107.0 25.5 107.1 25.45 Q107.4 25.45 107.5 25.6" fill="#ffffff" fill-rule="evenodd" stroke="none"/>
    <path d="M89.65 19.9 L89.65 20.05 89.9 20.55 90.4 20.8 90.8 20.95 Q91.35 20.95 91.55 20.5 L91.6 20.15 92.15 20.7 92.35 21.6 92.2 22.1 92.15 22.35 91.45 22.1 88.55 21.45 88.8 20.85 Q89.05 20.1 89.65 19.9 M93.45 20.7 L93.55 20.95 93.45 20.85 93.45 20.7 M108.0 25.4 L107.95 25.35 108.0 25.35 108.0 25.4 M106.6 25.9 L106.6 26.0 106.7 26.35 Q106.85 26.55 107.1 26.55 L107.4 26.45 107.5 26.8 107.55 27.15 Q106.9 26.6 106.0 26.55 L105.75 26.5 106.05 26.3 106.6 25.9 M107.7 27.3 L107.8 27.2 107.8 27.4 107.7 27.3" fill="#cccccc" fill-rule="evenodd" stroke="none"/>
    <path d="M103.8 24.35 L103.8 24.4 103.7 24.35 103.8 24.35 M96.25 24.2 L97.1 24.3 98.45 24.65 98.95 24.9 98.9 24.95 Q98.6 24.8 97.1 24.4 L96.25 24.2 M97.95 15.15 L97.95 15.2 97.9 15.25 97.8 15.25 97.85 15.2 97.95 15.15 M80.1 29.05 L80.05 28.95 80.15 29.05 80.1 29.05 M109.75 25.75 L109.7 25.75 109.7 25.6 109.75 25.75" fill="#3e4762" fill-rule="evenodd" stroke="none"/>
    <path d="M84.45 37.3 L84.55 37.05 84.6 36.9 84.85 36.7 85.75 35.95 84.95 36.8 84.5 37.3 84.45 37.3 M86.7 35.4 L86.75 35.9 86.3 36.55 85.95 36.8 85.85 36.8 85.9 36.75 86.65 35.45 86.7 35.4 M85.1 38.75 L84.85 38.6 84.9 38.45 85.1 37.8 85.2 37.55 85.1 38.75 M87.25 35.2 L87.2 35.2 87.15 34.95 87.3 34.85 87.25 35.2 M86.4 37.05 L86.1 38.0 85.95 38.9 85.85 38.85 86.0 38.25 86.15 37.35 86.4 37.05 M90.5 37.15 L90.35 36.05 90.6 37.0 90.7 37.35 90.5 37.15 M90.9 40.15 L91.0 40.1 91.25 40.25 91.55 40.5 91.9 40.9 92.0 41.0 92.0 41.2 92.0 41.4 91.45 41.15 90.95 41.0 90.9 40.15 M86.35 41.55 L86.65 41.5 86.7 41.75 86.45 43.1 86.1 44.6 85.55 45.95 85.05 47.35 83.6 51.55 83.9 52.1 84.65 53.25 85.95 53.45 Q87.75 53.45 88.3 53.05 87.45 53.95 85.85 53.95 84.2 53.95 83.15 51.9 L83.0 51.55 83.1 50.55 83.4 49.6 83.85 48.6 85.1 44.7 85.05 44.3 86.35 41.55 M88.45 52.9 L88.55 52.7 88.6 52.7 88.45 52.9 M82.85 39.7 L82.95 39.7 83.2 39.8 84.05 40.3 83.45 39.95 82.85 39.7 M84.1 40.4 L84.05 40.65 84.0 40.65 84.05 40.6 84.1 40.4 M81.5 43.9 L80.75 43.9 80.8 43.75 81.6 42.4 Q82.6 40.8 82.9 40.8 83.2 40.8 83.4 40.95 L83.45 41.0 83.65 41.2 83.85 41.65 84.1 42.15 84.05 42.4 84.0 42.4 83.85 42.3 83.4 42.15 Q83.4 41.25 82.35 42.05 81.3 42.9 81.3 43.6 L81.4 43.75 81.5 43.9 M84.3 43.7 L84.25 43.75 83.7 44.05 83.25 44.5 82.65 45.0 Q82.35 45.2 82.35 45.35 L82.05 45.75 81.95 45.8 81.95 45.35 82.55 44.05 82.95 43.75 82.95 43.55 83.4 43.45 Q84.1 43.35 84.3 43.7 M90.85 49.9 L90.85 49.95 90.65 50.75 90.55 50.85 90.4 50.75 90.55 50.55 90.65 50.15 90.6 49.9 90.75 49.9 90.85 49.9 M107.4 60.95 Q106.7 61.55 106.15 61.55 105.3 61.55 104.5 61.05 L104.2 60.9 104.15 60.85 104.25 60.6 104.1 60.8 104.0 60.75 Q103.9 60.2 104.25 59.6 L105.3 58.35 106.35 57.25 107.3 56.0 107.3 55.85 107.25 55.75 107.1 55.75 107.3 55.45 108.3 53.75 108.9 52.7 108.95 52.7 109.0 52.9 108.65 53.75 108.3 54.45 108.25 55.25 107.6 56.25 106.45 58.1 105.85 59.0 105.3 59.85 105.0 60.55 105.15 60.6 105.4 60.9 107.4 60.95 M101.15 52.45 L101.35 52.4 101.4 52.4 102.45 52.05 102.65 51.9 102.35 52.4 102.0 52.35 101.15 52.55 101.15 52.45 M100.85 53.9 L101.0 54.35 100.9 55.1 100.65 56.0 100.25 56.9 99.8 57.6 99.65 56.85 99.6 56.65 99.85 56.3 99.85 56.2 100.4 55.65 100.55 54.75 100.4 54.35 100.85 53.9 M97.55 53.0 L97.7 53.05 97.7 53.1 97.55 53.05 97.55 53.0 M98.2 53.15 L98.35 53.15 98.45 53.15 98.55 53.25 Q97.55 55.5 97.25 55.5 L97.2 55.5 97.2 55.45 97.25 55.45 97.25 55.4 97.35 54.85 97.4 54.85 Q97.8 54.8 98.0 54.0 L98.2 53.15 M94.9 53.95 L94.5 53.75 95.05 52.8 95.35 51.95 95.55 51.85 95.6 51.85 95.6 51.9 95.55 52.45 95.25 53.15 94.95 53.9 94.9 53.95 M92.5 52.4 L92.4 52.3 92.55 52.05 92.55 52.2 92.5 52.4 M93.5 51.1 L93.65 51.25 93.25 51.95 93.05 52.25 93.05 52.2 93.5 51.1" fill="#9f8d6c" fill-rule="evenodd" stroke="none"/>
    <path d="M85.75 35.95 L86.7 35.2 86.7 35.4 86.65 35.45 85.9 36.75 85.85 36.8 85.75 36.8 85.4 37.05 85.2 37.55 85.1 37.8 84.9 38.45 84.85 38.6 84.7 38.2 84.55 37.3 84.5 37.3 84.95 36.8 85.75 35.95 M87.2 35.2 L87.25 35.2 87.2 35.25 87.2 35.2 M86.4 37.05 L86.85 36.7 87.0 36.5 86.35 39.15 86.2 39.7 86.15 39.55 86.15 39.5 86.1 38.9 85.95 38.9 86.1 38.0 86.4 37.05 M90.9 40.15 L90.85 38.95 91.15 38.75 91.25 39.3 91.9 40.9 91.55 40.5 91.25 40.25 91.0 40.1 90.9 40.15 M85.05 44.3 L85.1 44.7 83.85 48.6 83.4 49.6 83.1 50.55 83.0 51.55 82.65 50.45 82.5 49.75 84.15 46.15 85.05 44.3 M84.05 40.3 L84.05 40.35 84.1 40.4 84.05 40.6 84.0 40.65 83.95 40.65 83.9 40.6 83.1 40.35 82.95 40.35 82.5 40.5 82.35 40.65 81.6 41.55 81.6 41.5 82.3 40.0 82.5 39.55 82.6 39.6 82.85 39.7 83.45 39.95 84.05 40.3 M83.4 42.15 L83.0 42.4 82.65 43.1 82.2 43.8 82.15 43.8 81.5 43.9 81.4 43.75 81.3 43.6 Q81.3 42.9 82.35 42.05 83.4 41.25 83.4 42.15 M84.25 43.75 L83.95 44.4 83.4 45.75 83.3 45.8 83.1 46.0 83.05 46.0 82.6 46.1 82.45 46.1 82.4 46.1 82.05 46.15 82.05 46.1 82.0 45.95 81.95 45.8 82.05 45.75 82.35 45.35 Q82.35 45.2 82.65 45.0 L83.25 44.5 83.7 44.05 84.25 43.75 M104.0 60.75 L103.6 60.4 103.45 60.25 103.25 60.05 105.15 58.25 107.1 55.75 107.25 55.75 107.3 55.85 107.3 56.0 106.35 57.25 105.3 58.35 104.25 59.6 Q103.9 60.2 104.0 60.75 M101.5 50.85 L102.25 50.95 102.35 50.95 102.3 51.0 102.2 51.05 Q101.75 51.4 101.15 51.55 101.3 50.95 101.5 50.85 M101.15 52.55 L101.0 52.65 Q100.35 52.95 100.2 53.2 L99.75 52.6 101.15 52.45 101.15 52.55 M97.7 53.05 L98.2 53.15 98.0 54.0 Q97.8 54.8 97.4 54.85 L97.35 54.85 97.45 54.75 97.45 54.7 97.6 54.25 97.6 54.2 97.75 53.45 97.7 53.2 97.7 53.1 97.7 53.05 M100.2 54.5 L100.4 54.35 100.55 54.75 100.4 55.65 99.85 56.2 99.85 55.9 99.8 55.5 99.85 55.25 100.2 54.5 M94.5 53.75 L94.35 53.65 94.25 53.1 94.3 53.05 94.35 53.05 94.65 52.75 94.9 52.3 94.8 52.3 94.75 52.3 94.7 52.35 94.75 52.25 94.8 52.25 95.3 51.95 95.35 51.95 95.05 52.8 94.5 53.75 M92.7 52.55 L92.5 52.4 92.55 52.2 92.55 52.05 92.9 51.35 92.9 51.3 93.05 50.85 93.1 50.75 93.15 50.7 93.5 51.1 93.05 52.2 93.05 52.25 93.0 52.25 92.9 52.4 92.7 52.55 M90.6 49.9 L90.65 50.15 90.55 50.55 90.4 50.75 90.1 50.65 90.1 50.6 90.15 49.65 90.2 49.65 90.25 49.7 90.3 49.7 90.6 49.9" fill="#887859" fill-rule="evenodd" stroke="none"/>
    <path d="M84.45 37.3 L84.3 37.25 84.3 37.2 84.45 37.05 84.6 36.9 84.55 37.05 84.45 37.3 M85.95 36.8 L85.75 37.05 85.55 38.25 85.55 38.7 85.3 38.75 85.1 38.75 85.2 37.55 85.4 37.05 85.75 36.8 85.85 36.8 85.95 36.8 M87.0 39.95 L87.45 38.8 87.7 38.4 Q87.8 38.25 88.05 38.15 88.35 38.2 88.35 38.85 L87.6 42.9 86.7 46.45 85.65 50.25 85.3 51.55 85.35 51.75 Q85.75 52.85 87.75 52.85 L88.95 52.0 88.75 52.4 88.6 52.65 88.6 52.7 88.55 52.7 88.45 52.9 88.3 53.05 Q87.75 53.45 85.95 53.45 L84.65 53.25 83.9 52.1 83.6 51.55 85.05 47.35 85.55 45.95 86.1 44.6 86.45 43.1 86.7 41.75 86.65 41.5 86.35 41.55 86.5 41.2 87.0 39.95 M90.7 37.35 L90.95 38.15 90.75 38.35 90.65 37.95 90.5 37.15 90.7 37.35 M92.0 41.4 L92.35 42.7 92.7 43.8 92.5 44.0 92.35 44.0 92.35 43.85 92.35 43.55 Q92.35 42.75 92.05 42.4 91.5 42.4 91.3 42.7 L90.85 43.0 90.95 41.15 90.95 41.0 91.45 41.15 92.0 41.4 M87.0 41.9 L87.15 41.4 86.95 41.9 87.0 41.9 M83.45 41.0 L84.05 41.3 84.35 41.65 84.55 41.95 84.45 42.25 84.3 42.45 84.3 42.6 84.0 42.4 84.05 42.4 84.1 42.15 83.85 41.65 83.65 41.2 83.45 41.0 M82.95 43.55 L82.95 43.5 83.45 42.7 84.2 43.25 84.4 43.45 84.3 43.7 Q84.1 43.35 83.4 43.45 L82.95 43.55 M83.4 45.75 L83.25 46.0 83.1 46.0 83.3 45.8 83.4 45.75 M82.45 46.1 L82.05 46.3 82.05 46.15 82.4 46.1 82.45 46.1 M93.1 44.6 L93.05 44.45 93.25 44.7 93.1 44.6 M94.5 46.65 L95.0 47.35 94.85 47.45 94.7 47.65 94.65 47.6 94.6 47.6 94.55 47.55 94.5 46.65 M91.35 49.3 L91.7 49.3 91.75 49.35 91.75 49.55 91.3 50.8 91.1 51.2 Q90.8 50.95 90.55 50.85 L90.65 50.75 90.85 49.95 90.85 49.9 91.3 49.5 91.3 49.45 91.35 49.35 91.35 49.3 M108.1 60.2 L107.4 60.95 105.4 60.9 105.15 60.6 105.0 60.55 105.3 59.85 105.85 59.0 106.45 58.1 107.6 56.25 108.25 55.25 108.3 54.45 108.65 53.75 109.0 52.9 108.95 52.7 108.9 52.7 110.1 50.35 110.35 49.8 110.35 49.75 110.45 49.8 110.5 50.65 Q110.5 51.55 108.8 56.35 L107.25 59.35 106.65 60.25 106.8 60.35 107.25 60.5 107.5 60.4 107.65 60.3 108.1 60.2 M101.5 50.85 Q101.3 50.95 101.15 51.55 L100.65 51.7 100.85 51.4 100.55 51.25 100.05 51.15 99.55 51.25 99.55 51.15 99.5 50.85 99.65 50.65 99.85 50.5 100.05 50.55 100.25 50.6 100.55 50.65 100.65 50.7 101.5 50.85 M102.65 51.9 L103.1 51.55 103.05 52.1 102.9 52.6 102.85 52.6 102.35 52.4 102.65 51.9 M103.3 53.15 L103.4 53.15 Q103.9 53.3 104.0 53.55 L104.05 53.85 103.95 54.45 103.85 54.75 103.65 53.85 103.3 53.15 M100.85 53.9 L100.9 53.85 Q101.3 53.45 101.6 53.3 L101.9 53.25 101.95 53.25 102.0 54.35 101.9 55.4 101.3 57.0 100.75 58.55 100.7 58.65 100.4 58.55 100.3 58.4 99.8 57.6 100.25 56.9 100.65 56.0 100.9 55.1 101.0 54.35 100.85 53.9 M97.0 50.3 L97.0 50.25 96.95 49.95 96.95 49.85 96.95 49.75 97.2 49.6 97.5 49.35 99.0 50.15 99.3 50.25 99.3 50.35 Q99.2 50.4 99.05 50.5 L98.9 50.55 98.5 50.55 98.45 50.3 Q98.55 49.9 97.55 49.9 L97.0 50.3 M95.6 51.85 L96.35 51.65 96.4 51.65 95.8 53.05 95.15 54.15 94.9 53.95 94.95 53.9 95.25 53.15 95.55 52.45 95.6 51.9 95.6 51.85 M98.45 53.15 L99.05 53.3 98.3 55.1 97.45 56.9 97.35 56.9 97.3 56.9 97.1 56.65 97.05 56.6 97.05 56.25 97.2 55.5 97.25 55.5 Q97.55 55.5 98.55 53.25 L98.45 53.15 M99.95 54.6 L100.2 54.5 99.85 55.25 99.8 55.5 99.65 55.4 99.55 55.45 99.8 54.85 99.85 54.7 99.95 54.6 M97.55 53.05 L97.5 53.05 97.55 53.0 97.55 53.05 M94.25 53.1 L94.25 53.05 94.3 53.05 94.25 53.1 M94.7 52.35 L94.6 52.4 94.6 52.35 94.65 52.25 94.75 52.25 94.7 52.35 M92.95 52.8 L92.7 52.55 92.9 52.4 93.0 52.25 93.05 52.25 93.25 51.95 93.65 51.25 93.8 51.45 93.25 52.4 92.95 52.8" fill="#ac9d80" fill-rule="evenodd" stroke="none"/>
    <path d="M88.6 33.25 L88.75 32.85 89.05 33.35 89.9 38.85 89.95 39.25 89.85 39.4 90.05 39.85 90.1 40.0 90.1 40.2 90.05 41.75 89.85 44.5 89.85 44.65 89.5 47.8 89.5 47.95 89.4 48.4 88.15 52.15 88.0 52.05 87.9 51.95 88.05 51.2 88.2 50.55 88.75 47.55 Q89.25 44.45 89.25 42.2 L89.3 41.3 89.25 40.05 89.05 38.9 88.95 37.75 88.8 35.6 88.6 33.3 88.6 33.25 M92.25 44.0 L91.5 44.25 91.2 44.3 90.95 44.4 90.85 44.15 Q90.85 43.1 91.6 43.15 91.85 43.2 92.1 43.4 L92.35 43.85 92.25 44.0 M94.3 47.45 L94.1 47.35 93.9 47.3 93.8 47.2 93.6 46.95 93.55 47.1 93.1 46.45 Q93.4 46.3 93.75 46.45 94.35 46.75 94.35 47.2 L94.3 47.45 M92.15 51.55 L92.1 51.55 91.9 51.5 91.85 51.45 91.85 50.85 92.0 50.05 Q92.05 49.65 92.45 49.6 L92.65 49.8 92.75 49.95 92.75 50.0 92.6 50.5 92.55 50.65 92.25 51.3 92.15 51.55 M111.1 48.9 L111.1 51.25 110.8 54.85 Q110.35 56.65 109.15 58.65 L109.1 58.65 108.85 58.6 108.8 58.45 Q109.35 58.0 109.5 57.2 L109.8 55.85 110.5 53.2 111.1 48.9 M102.6 53.65 L103.0 54.55 103.2 55.95 103.05 57.75 102.9 57.75 102.75 57.65 Q102.6 56.9 102.6 55.3 L102.5 54.35 102.6 53.65 M96.95 51.8 L97.0 51.85 97.05 52.1 97.1 52.2 97.2 52.75 97.4 52.95 97.35 53.05 97.25 53.1 97.25 53.25 97.25 53.55 97.1 54.1 96.95 54.5 96.85 54.5 96.6 54.45 96.5 53.8 Q96.65 52.3 96.95 51.8 M99.3 53.8 L99.35 53.8 99.35 53.95 99.35 54.0 99.85 54.6 99.85 54.7 99.8 54.85 99.55 55.45 99.4 55.85 99.35 55.95 99.3 55.95 99.25 56.0 99.2 56.05 99.15 56.05 99.05 56.05 98.8 56.0 98.75 55.85 98.75 54.85 98.9 54.6 99.1 54.45 99.15 53.75 99.3 53.8 M94.6 52.4 L94.55 52.4 94.45 52.45 94.15 52.75 94.15 53.0 93.7 53.0 93.6 52.65 93.55 52.45 93.9 52.15 Q94.1 52.0 94.25 51.95 L94.65 52.25 94.6 52.35 94.6 52.4" fill="#c9c0ad" fill-rule="evenodd" stroke="none"/>
    <path d="M88.6 33.25 L88.6 33.3 88.8 35.6 88.95 37.75 89.05 38.9 89.25 40.05 89.3 41.3 89.25 42.2 Q89.25 44.45 88.75 47.55 L88.2 50.55 88.05 51.2 87.9 51.95 88.0 52.05 88.15 52.15 89.4 48.4 89.5 47.95 Q89.45 50.7 88.95 52.0 L87.75 52.85 Q85.75 52.85 85.35 51.75 L85.3 51.55 85.65 50.25 86.7 46.45 87.6 42.9 88.35 38.85 Q88.35 38.2 88.05 38.15 87.8 38.25 87.7 38.4 L87.45 38.8 87.0 39.95 87.5 37.9 87.8 36.7 88.2 34.5 88.6 33.25 M89.85 44.5 L90.05 41.75 90.1 40.2 90.15 40.65 90.15 41.15 89.85 44.5 M92.35 44.0 L92.25 44.0 92.35 43.85 92.1 43.4 Q91.85 43.2 91.6 43.15 90.85 43.1 90.85 44.15 L90.95 44.4 90.75 44.5 90.75 44.0 90.75 43.9 90.85 43.0 91.3 42.7 Q91.5 42.4 92.05 42.4 92.35 42.75 92.35 43.55 L92.35 43.85 92.35 44.0 M87.0 41.9 L86.95 41.9 87.15 41.4 87.0 41.9 M93.25 44.7 L93.55 45.15 94.45 46.55 94.5 46.65 94.55 47.55 94.3 47.45 94.35 47.2 Q94.35 46.75 93.75 46.45 93.4 46.3 93.1 46.45 L93.0 46.1 93.0 45.55 93.1 44.7 93.1 44.6 93.25 44.7 M93.9 47.3 L93.65 47.15 93.55 47.1 93.6 46.95 93.8 47.2 93.9 47.3 M91.35 49.3 Q91.5 49.15 91.6 49.15 92.05 49.15 92.45 49.6 92.05 49.65 92.0 50.05 L91.85 50.85 91.85 51.45 91.9 51.5 92.1 51.55 92.15 51.55 92.1 51.65 91.95 51.9 91.25 51.35 91.1 51.2 91.3 50.8 91.75 49.55 91.75 49.35 91.7 49.3 91.35 49.3 M95.55 47.95 Q96.35 48.75 96.95 49.05 L96.8 49.15 96.65 49.3 96.25 49.15 96.1 49.1 95.75 48.95 95.25 48.65 95.15 48.55 95.1 48.2 95.05 47.95 95.15 47.8 95.25 47.65 95.55 47.95 M110.35 49.75 L111.1 48.15 111.1 48.9 110.5 53.2 109.8 55.85 109.5 57.2 Q109.35 58.0 108.8 58.45 L108.85 58.6 109.1 58.65 109.15 58.65 108.9 59.05 108.1 60.2 107.65 60.3 107.5 60.4 107.25 60.5 106.8 60.35 106.65 60.25 107.25 59.35 108.8 56.35 Q110.5 51.55 110.5 50.65 L110.45 49.8 110.35 49.75 M104.15 60.85 L104.1 60.8 104.25 60.6 104.15 60.85 M100.65 51.7 L99.8 51.75 99.4 51.65 99.55 51.3 99.55 51.25 100.05 51.15 100.55 51.25 100.85 51.4 100.65 51.7 M99.65 50.65 L99.75 50.45 99.85 50.5 99.65 50.65 M100.7 58.65 L100.75 58.55 101.3 57.0 101.9 55.4 102.0 54.35 101.95 53.25 Q102.3 53.3 102.6 53.65 L102.5 54.35 102.6 55.3 Q102.6 56.9 102.75 57.65 L102.9 57.75 103.05 57.75 Q102.8 58.6 102.25 59.25 L102.2 59.3 101.7 59.0 100.7 58.65 M99.3 50.25 L99.4 50.3 99.3 50.35 99.3 50.25 M98.5 50.55 L97.5 50.7 97.05 50.7 97.0 50.3 97.55 49.9 Q98.55 49.9 98.45 50.3 L98.5 50.55 M96.4 51.65 L96.95 51.8 Q96.65 52.3 96.5 53.8 L96.6 54.45 96.85 54.5 96.95 54.5 96.95 54.6 96.95 54.65 96.75 54.8 96.0 55.25 95.35 54.25 95.15 54.15 95.8 53.05 96.4 51.65 M97.4 52.95 L97.55 53.0 97.5 53.05 97.35 53.05 97.4 52.95 M99.05 53.3 L99.2 53.45 99.3 53.8 99.15 53.75 99.1 54.45 98.9 54.6 98.75 54.85 98.75 55.85 98.8 56.0 99.05 56.05 99.15 56.05 99.2 56.05 98.75 56.45 97.6 56.9 97.45 56.9 98.3 55.1 99.05 53.3 M99.85 54.6 L99.95 54.6 99.85 54.7 99.85 54.6 M93.7 53.0 L93.35 53.1 93.2 53.0 92.95 52.8 93.25 52.4 93.8 51.45 93.95 51.6 94.25 51.95 Q94.1 52.0 93.9 52.15 L93.55 52.45 93.6 52.65 93.7 53.0 M93.1 50.75 L93.1 50.65 93.15 50.7 93.1 50.75" fill="#baae96" fill-rule="evenodd" stroke="none"/>
    <path d="M93.55 35.85 L93.45 35.55 93.55 35.55 94.0 35.3 94.35 34.9 94.3 34.8 94.7 34.65 95.05 34.5 94.95 35.2 94.85 35.4 Q94.85 36.05 95.3 36.7 L95.35 36.85 95.65 37.25 95.7 37.3 Q96.6 38.5 97.8 38.5 L97.85 38.5 Q98.05 39.3 98.45 39.55 L98.35 40.4 98.2 40.4 97.7 39.95 97.15 39.35 96.25 38.8 95.45 38.2 94.55 37.0 94.1 35.6 93.9 35.55 93.7 35.9 93.55 35.85 M104.05 44.7 L104.25 44.35 104.7 43.6 104.8 43.6 105.45 43.25 105.5 43.3 Q106.25 43.9 106.75 43.9 L107.25 43.8 107.8 43.6 107.9 43.7 Q107.45 44.2 106.5 44.4 L106.4 44.6 Q106.55 44.8 106.85 44.8 107.7 44.8 108.3 43.9 L108.5 43.7 108.65 44.0 108.65 45.0 108.55 45.55 108.55 45.75 108.6 45.85 108.7 45.9 108.85 45.95 108.6 46.3 108.55 46.4 108.5 46.4 Q108.1 46.4 108.1 45.95 L108.3 45.6 108.5 45.15 108.4 44.8 108.3 44.6 107.85 45.05 107.0 45.35 106.05 45.0 105.0 44.65 104.25 44.7 104.05 44.7" fill="#2c232e" fill-rule="evenodd" stroke="none"/>
    <path d="M95.4 39.95 L95.0 39.65 95.0 39.55 95.05 39.5 95.4 39.95 M98.6 43.25 L98.9 43.35 99.1 43.7 Q100.55 42.3 101.45 40.25 102.25 37.95 102.8 36.85 L103.3 35.95 103.75 35.15 104.4 34.25 105.05 33.6 Q106.8 32.2 107.25 33.05 L107.4 34.8 107.3 36.5 107.35 37.5 107.3 38.0 107.1 38.0 107.0 38.0 Q106.95 38.0 106.85 38.1 L106.85 34.0 106.95 33.5 Q106.9 33.25 106.55 33.25 106.1 33.25 105.1 34.35 104.2 35.3 104.0 35.7 L102.6 38.55 102.0 40.0 101.4 41.4 100.45 43.05 Q99.6 44.25 98.9 44.25 L98.4 44.0 98.05 43.6 98.1 43.35 98.1 43.3 98.25 43.25 98.3 43.25 98.35 43.25 98.4 43.3 98.5 43.35 98.55 43.35 98.6 43.25 M107.05 48.2 L106.5 48.1 105.9 47.85 105.2 47.7 104.6 47.6 104.2 47.45 103.65 47.35 Q102.95 47.35 102.45 47.95 L101.85 47.8 102.3 47.3 Q103.1 46.5 104.25 46.85 L106.35 47.35 107.0 47.6 107.0 47.8 107.0 48.05 107.0 48.15 107.05 48.2 M93.55 35.9 L93.55 35.85 93.7 35.9 93.55 35.9 M94.95 35.2 L94.9 35.4 Q94.9 36.05 95.3 36.7 94.85 36.05 94.85 35.4 L94.95 35.2" fill="#413544" fill-rule="evenodd" stroke="none"/>
    <path d="M82.65 46.95 L82.8 46.5 Q82.35 46.65 82.0 46.9 L81.2 48.3 81.4 47.6 81.45 47.5 81.7 47.15 82.0 46.9 Q82.4 46.6 83.05 46.4 L82.65 46.95 M79.6 52.55 L79.7 52.55 80.5 51.25 80.4 51.65 80.35 51.8 80.0 52.45 79.7 52.7 79.6 52.55 M104.55 57.5 L104.4 57.65 103.8 58.15 103.85 57.9 103.85 57.75 103.95 57.9 104.25 57.4 104.4 57.25 104.45 57.35 104.55 57.4 104.55 57.5 M88.9 57.75 L88.9 57.8 88.1 59.0 88.05 59.05 87.55 59.8 87.55 59.75 87.6 59.6 88.3 58.25 89.05 56.3 90.5 52.7 90.45 52.25 90.45 52.1 90.55 52.25 92.25 53.75 94.15 54.8 94.7 55.25 94.65 55.3 94.35 55.25 94.2 55.05 93.95 54.85 Q93.55 54.65 93.0 54.6 L90.85 53.35 90.75 53.5 90.5 54.25 90.35 54.75 90.25 55.1 89.85 55.9 89.55 56.7 88.9 57.75" fill="#1d2c2e" fill-rule="evenodd" stroke="none"/>
    <path d="M81.2 48.3 L82.0 46.9 Q82.35 46.65 82.8 46.5 L82.65 46.95 82.0 47.85 Q81.55 48.4 81.5 49.3 L81.25 49.75 81.25 49.85 81.2 49.9 81.15 49.95 80.65 50.9 80.6 50.95 80.5 51.25 79.7 52.55 79.6 52.55 79.55 52.4 79.5 52.35 79.5 52.25 79.55 52.15 79.85 51.35 79.85 51.2 80.9 49.1 81.2 48.4 81.2 48.3 M103.85 57.75 L103.95 55.85 103.95 55.65 104.1 56.15 104.2 56.45 104.2 56.55 104.35 57.1 104.35 57.15 104.4 57.25 104.25 57.4 103.95 57.9 103.85 57.75 M87.6 59.6 L88.5 56.7 88.65 56.3 88.9 55.6 89.15 54.75 89.7 53.65 90.05 53.05 89.9 52.75 89.7 52.7 89.95 51.6 90.05 51.65 90.05 51.7 90.1 51.75 90.2 51.85 90.25 51.9 90.3 52.0 90.45 52.1 90.45 52.25 90.5 52.7 89.05 56.3 88.3 58.25 87.6 59.6" fill="#172324" fill-rule="evenodd" stroke="none"/>
    <path d="M79.85 51.2 L79.85 51.35 79.55 52.15 79.5 52.25 79.45 52.05 79.85 51.2 M81.25 49.85 L81.25 49.75 81.5 49.3 81.5 49.45 81.25 49.85 M81.7 47.15 L81.45 47.5 81.4 47.6 81.7 47.15 M104.6 57.45 L104.55 57.5 104.55 57.4 104.6 57.45 M93.0 54.6 L92.95 54.6 Q91.6 54.6 91.15 55.7 L91.0 56.1 90.95 56.2 90.45 56.75 90.35 56.65 90.1 56.55 Q89.8 56.55 88.9 57.75 L89.55 56.7 89.85 55.9 90.25 55.1 90.35 54.75 90.5 54.25 90.75 53.5 90.85 53.35 93.0 54.6 M88.05 59.05 L87.75 59.6 87.6 59.8 87.55 59.8 88.05 59.05 M94.7 55.25 L94.95 55.85 94.6 55.5 94.35 55.25 94.65 55.3 94.7 55.25 M80.4 51.65 L80.35 51.85 80.0 52.45 80.35 51.8 80.4 51.65" fill="#243639" fill-rule="evenodd" stroke="none"/>
    <path d="M107.8 27.2 L107.95 27.55 107.8 27.4 107.8 27.2" fill="#bebebe" fill-rule="evenodd" stroke="none"/>
    <path d="M109.4 60.25 L109.35 60.1 109.6 59.7 109.65 59.6 109.75 59.55 109.9 59.65 109.45 60.2 109.4 60.25 M110.2 31.45 L110.1 31.3 110.2 31.4 110.2 31.45 M120.95 16.1 L121.1 15.7 120.85 15.2 120.6 14.65 120.7 14.55 121.4 14.65 Q121.7 14.75 121.7 15.15 L121.3 15.95 121.15 16.25 120.95 16.1 M93.65 72.8 L93.8 72.9 93.35 72.65 93.65 72.8" fill="#001e00" fill-rule="evenodd" stroke="none"/>
    <path d="M95.15 42.4 L95.6 41.8 95.7 41.1 95.45 40.1 95.4 39.95 95.05 39.5 95.05 39.45 95.75 39.6 Q96.95 39.9 97.4 40.85 L97.7 42.05 98.2 43.1 98.3 43.1 98.3 43.25 98.25 43.25 98.1 43.3 98.1 43.35 98.05 43.6 98.4 44.0 98.9 44.25 Q99.6 44.25 100.45 43.05 L101.4 41.4 102.0 40.0 102.6 38.55 104.0 35.7 Q104.2 35.3 105.1 34.35 106.1 33.25 106.55 33.25 106.9 33.25 106.95 33.5 L106.85 34.0 106.85 38.1 106.5 38.5 Q106.1 40.0 104.8 42.3 L104.65 42.6 104.55 42.7 104.4 43.1 103.1 45.35 102.75 45.9 102.7 46.05 102.9 46.3 103.1 46.05 103.75 45.75 Q103.95 45.45 104.4 45.45 L104.7 45.65 105.05 46.1 Q105.65 46.7 107.1 46.7 L107.3 46.65 107.2 47.2 107.0 47.6 106.35 47.35 104.25 46.85 Q103.1 46.5 102.3 47.3 L101.85 47.8 100.6 47.5 98.85 47.0 Q98.2 46.65 98.0 46.0 L96.8 44.2 95.15 42.4" fill="#453848" fill-rule="evenodd" stroke="none"/>
  </g>
</svg>
