<?xml version="1.0" encoding="UTF-8" standalone="no"?>
<svg xmlns:ffdec="https://www.free-decompiler.com/flash" xmlns:xlink="http://www.w3.org/1999/xlink" ffdec:objectType="shape" height="113.45px" width="79.05px" xmlns="http://www.w3.org/2000/svg">
  <g transform="matrix(1.0, 0.0, 0.0, 1.0, -54.1, 44.65)">
    <path d="M71.45 -44.6 L71.45 -44.65 71.65 -44.65 71.75 -44.65 72.05 -44.25 72.6 -43.4 73.55 -42.25 73.95 -41.55 74.05 -41.3 74.35 -40.85 74.5 -40.6 77.1 -35.65 77.15 -34.8 Q77.3 -34.65 76.7 -34.55 76.25 -34.45 75.15 -35.15 L74.85 -35.4 78.6 -16.95 79.6 -16.7 Q80.9 -15.95 81.45 -13.9 L81.75 -12.45 82.3 -15.95 83.15 -21.55 Q83.75 -23.3 86.25 -28.15 86.85 -29.3 88.2 -30.85 L90.5 -33.55 Q90.95 -34.1 92.3 -34.85 93.7 -35.75 94.65 -35.9 L98.1 -36.4 106.45 -35.9 106.55 -35.8 106.65 -35.4 Q109.35 -35.55 111.6 -34.25 114.45 -32.4 115.6 -27.4 L116.55 -20.95 Q117.1 -18.25 116.85 -14.45 L116.45 -8.05 115.95 -4.95 115.85 -4.8 115.45 -4.7 115.4 -4.7 115.7 -3.6 115.85 -3.1 115.9 -2.9 115.9 -2.8 116.35 1.9 Q116.9 1.95 117.25 2.3 L118.3 3.6 119.0 4.9 119.25 6.1 118.8 7.15 Q117.7 7.65 113.8 7.2 L113.8 8.9 113.55 10.9 Q114.1 11.6 114.3 12.6 115.55 12.3 116.45 13.0 117.45 13.75 118.55 16.95 L118.45 17.35 Q121.15 17.5 121.45 18.0 L121.6 18.9 121.55 19.9 121.55 21.55 120.55 22.45 Q121.45 23.1 122.35 24.6 L122.65 25.35 122.8 25.35 123.0 25.9 123.45 26.1 124.7 26.9 Q125.8 27.8 127.7 28.2 L130.85 29.1 Q131.75 29.55 132.15 30.4 L132.55 31.8 Q133.15 33.5 133.15 34.3 133.15 35.8 132.45 37.45 131.4 39.85 129.4 39.85 L119.6 38.55 Q113.1 37.3 112.1 35.9 L112.1 36.3 111.45 36.6 Q110.85 36.9 110.85 36.15 L110.85 35.85 109.6 34.9 109.15 34.45 108.6 33.9 108.3 34.45 108.3 34.6 Q108.3 36.15 107.4 37.3 L106.95 37.8 106.95 38.05 106.95 39.15 106.85 40.9 107.25 40.9 107.4 41.0 107.55 41.3 Q108.75 41.7 109.0 43.6 109.2 44.8 109.0 46.1 L110.55 48.9 Q112.0 51.8 112.0 53.05 L112.0 53.5 111.9 53.75 111.9 53.9 111.6 54.0 111.6 54.1 111.9 54.75 112.2 56.45 112.35 56.4 112.6 57.0 112.3 57.2 112.25 57.2 112.1 57.35 111.7 57.6 111.55 57.45 103.9 58.75 103.25 58.85 103.55 60.5 104.05 64.4 104.05 65.35 104.15 65.6 104.65 66.9 104.55 67.45 103.4 67.5 93.9 67.9 93.15 67.0 93.25 66.9 93.1 66.45 93.0 65.55 93.0 63.75 92.2 63.6 92.15 64.3 91.95 63.5 91.85 63.45 91.65 63.0 91.8 62.95 91.35 61.1 88.35 63.05 86.4 64.7 Q85.3 65.45 84.0 65.65 84.15 66.7 83.3 68.7 82.85 69.0 82.3 68.55 L82.3 68.45 Q80.95 68.0 78.85 66.45 77.1 64.7 76.9 61.5 76.8 59.4 77.3 58.3 L77.35 57.95 76.95 57.8 75.0 57.5 75.25 56.15 Q72.05 56.4 70.5 57.15 L68.5 58.45 69.6 61.6 71.1 65.5 71.05 66.1 71.05 66.2 70.5 66.25 61.65 65.6 Q60.1 65.2 58.8 64.6 56.85 64.1 56.05 63.3 L55.9 63.3 Q54.4 63.3 54.1 59.75 L54.1 56.15 Q54.1 43.05 57.1 32.7 57.75 30.4 59.6 26.85 L62.85 20.85 Q63.55 19.4 64.65 18.1 66.15 16.3 67.9 15.15 L70.85 13.8 70.6 13.3 70.5 12.65 Q70.5 10.15 73.75 8.9 75.35 8.25 77.3 8.3 L73.6 -3.85 72.6 -7.15 72.3 -7.05 72.05 -7.4 71.6 -7.65 71.15 -8.5 70.65 -9.9 70.05 -12.15 Q70.0 -13.3 70.8 -14.2 L70.45 -14.15 64.75 -31.85 64.55 -32.4 64.35 -32.1 63.55 -30.65 62.95 -31.3 62.7 -31.7 Q62.3 -33.1 62.7 -37.25 63.0 -40.4 63.4 -41.75 L63.55 -42.2 63.55 -42.3 63.6 -42.35 63.6 -42.4 63.85 -42.4 63.95 -42.4 64.25 -42.05 64.9 -41.25 65.9 -40.15 66.4 -39.55 66.55 -39.3 66.7 -39.1 Q67.1 -41.8 67.55 -43.1 L67.7 -43.45 67.7 -43.6 67.75 -43.6 67.75 -43.65 67.95 -43.65 68.05 -43.65 68.4 -43.3 68.95 -42.45 69.95 -41.35 70.3 -40.85 Q70.75 -43.0 71.15 -44.05 L71.35 -44.4 71.35 -44.6 71.45 -44.6 M76.7 -16.4 Q77.3 -16.8 77.85 -16.9 77.35 -17.6 77.1 -18.9 L76.65 -21.55 75.65 -26.5 75.15 -28.65 74.6 -31.6 74.05 -34.1 Q73.75 -35.45 74.0 -36.2 L73.9 -36.3 73.9 -36.65 74.3 -36.85 74.85 -36.8 75.55 -36.4 73.35 -40.25 71.95 -42.85 71.4 -40.35 71.2 -39.4 70.9 -37.8 70.5 -35.4 70.65 -35.55 71.05 -36.0 71.4 -36.25 71.75 -36.2 71.95 -35.95 72.05 -36.0 72.25 -36.05 72.45 -35.15 72.6 -34.25 72.65 -34.0 74.05 -27.35 76.65 -16.55 76.65 -16.4 76.7 -16.4 M71.55 -14.8 Q72.15 -15.2 72.7 -15.4 72.15 -16.0 71.75 -17.3 L71.0 -19.85 69.55 -24.7 68.85 -26.8 68.0 -29.7 67.25 -32.1 67.1 -31.95 66.6 -32.55 66.35 -33.05 Q66.05 -34.25 66.45 -37.5 L65.95 -38.2 Q64.85 -39.75 64.3 -40.65 L64.0 -38.1 Q63.55 -34.4 63.6 -33.1 63.9 -33.75 64.35 -34.05 L64.75 -34.05 64.95 -33.8 65.25 -33.9 65.55 -33.05 65.7 -32.1 67.9 -25.45 71.45 -14.9 71.5 -14.8 71.55 -14.8 M74.35 -15.7 L75.45 -16.2 75.4 -16.35 Q74.95 -17.05 74.65 -18.2 L74.05 -20.8 72.85 -25.7 72.25 -27.85 71.55 -30.8 70.85 -33.3 70.75 -33.65 70.3 -33.0 69.75 -33.65 69.5 -34.1 Q69.25 -35.45 70.0 -39.25 L69.9 -39.4 68.35 -41.9 67.95 -39.35 67.7 -37.75 67.45 -36.1 67.3 -34.95 67.3 -34.35 67.7 -34.95 68.05 -35.25 68.1 -35.25 68.5 -35.25 68.65 -35.05 69.0 -35.1 69.2 -34.2 69.35 -33.3 69.5 -32.8 71.25 -26.5 74.3 -15.85 74.3 -15.7 74.35 -15.7 M68.25 -33.35 L68.05 -33.45 68.0 -33.4 68.0 -33.3 71.4 -22.1 68.4 -33.1 68.35 -33.3 68.25 -33.35 M72.1 -9.0 L72.15 -8.95 72.4 -8.25 72.5 -8.1 74.05 -8.6 73.6 -9.45 73.25 -10.9 72.75 -13.15 72.95 -14.15 Q71.05 -13.4 71.1 -12.25 L72.05 -9.1 72.05 -9.05 72.3 -7.95 72.35 -8.05 72.1 -9.0 M81.3 -10.6 Q80.65 -11.6 80.2 -13.65 79.6 -16.0 78.9 -15.85 L78.0 -15.6 76.95 -15.2 Q76.05 -14.7 76.0 -13.95 L76.6 -10.65 76.7 -9.55 76.8 -9.6 76.6 -10.7 76.7 -10.55 76.9 -9.85 77.0 -9.65 79.2 -10.15 80.05 -10.35 81.15 -10.55 81.25 -10.5 Q81.0 -10.35 80.95 -10.35 L80.95 -9.8 81.0 -9.55 80.2 -9.35 80.4 -9.25 80.6 -9.4 82.75 1.15 Q83.0 0.2 83.4 -0.5 L83.4 -1.25 Q83.6 -2.9 84.95 -5.4 L85.55 -6.4 81.85 -6.7 Q81.15 -7.7 81.25 -9.0 L81.3 -9.55 81.45 -10.55 81.3 -10.6 M74.95 -13.95 L75.1 -14.75 74.35 -14.25 Q73.8 -13.8 73.8 -13.25 L74.55 -9.95 74.75 -8.85 74.8 -8.9 74.55 -10.0 74.65 -9.85 74.9 -9.15 75.0 -8.95 76.05 -9.3 75.65 -10.15 75.3 -11.65 74.95 -13.95 M75.95 -8.25 L78.35 1.2 78.95 1.05 77.65 -5.35 77.0 -8.5 75.95 -8.25 M79.65 -9.2 L77.9 -8.85 79.85 0.7 80.05 0.65 80.95 0.4 81.55 0.3 80.35 -5.9 79.7 -9.25 79.65 -9.2 M73.5 -7.4 L76.35 1.95 77.45 1.55 75.85 -4.7 75.1 -7.85 73.5 -7.4 M103.75 -34.85 L100.3 -35.05 95.7 -34.65 93.4 -33.8 91.6 -32.65 89.35 -30.25 Q87.9 -28.7 87.3 -27.45 84.7 -22.65 84.3 -21.3 L83.55 -16.05 82.65 -8.25 88.55 -7.25 Q88.3 -7.75 88.35 -8.4 L88.35 -8.55 88.35 -8.6 88.7 -10.2 88.7 -10.4 88.9 -11.9 89.15 -13.4 90.2 -19.3 Q90.8 -21.25 93.15 -25.85 96.0 -31.4 101.65 -34.05 L103.75 -34.85 M114.45 -27.95 L113.75 -29.95 Q112.25 -32.8 107.9 -33.45 102.0 -34.35 97.9 -30.25 95.65 -27.95 92.55 -21.75 91.1 -19.0 90.5 -14.65 L90.05 -11.6 89.85 -10.2 89.55 -7.8 90.65 -8.65 93.0 -10.1 93.0 -10.65 93.15 -12.1 93.2 -12.25 93.55 -13.7 Q94.35 -16.8 96.7 -19.85 100.3 -24.5 104.35 -24.05 110.2 -25.95 111.7 -17.75 112.2 -15.15 112.15 -11.8 L112.15 -10.95 112.65 -10.4 114.6 -7.75 114.8 -7.4 115.1 -7.25 115.6 -13.6 Q115.95 -17.5 115.5 -20.1 L115.1 -23.3 114.55 -26.75 114.45 -27.95 M94.75 -12.8 L94.15 -10.25 94.4 -10.05 94.5 -9.9 94.7 -10.05 95.95 -10.35 96.25 -12.5 96.6 -13.15 97.35 -14.8 98.45 -17.45 Q100.15 -20.25 103.7 -20.8 107.05 -21.25 108.4 -17.0 L109.1 -13.35 110.45 -12.5 110.85 -12.1 110.95 -15.8 Q110.9 -17.05 110.05 -19.4 109.1 -22.15 108.15 -22.25 102.95 -23.1 101.1 -22.3 99.1 -21.4 96.65 -17.1 L95.3 -14.35 94.75 -12.8 M101.15 -16.85 L100.85 -14.85 100.8 -14.6 104.05 -14.1 104.1 -14.35 104.5 -17.4 105.0 -19.45 Q102.75 -19.6 101.1 -18.45 101.3 -17.8 101.15 -16.85 M98.45 -14.85 L99.65 -14.95 100.05 -17.55 98.65 -15.45 98.45 -14.85 M100.65 -13.3 L97.85 -13.3 97.8 -13.25 97.3 -11.0 97.15 -9.45 Q97.25 -9.3 96.95 -9.3 L95.8 -8.5 93.8 -8.25 Q93.45 -8.35 93.4 -8.4 L93.3 -8.95 Q92.8 -8.5 91.55 -7.6 L89.8 -6.35 89.05 -6.0 89.0 -5.95 88.95 -5.95 86.8 -6.25 85.45 -3.3 84.65 -0.65 84.65 -0.25 84.6 0.0 84.6 0.25 84.35 2.25 84.35 2.4 84.3 2.45 84.3 2.55 84.3 2.7 84.05 3.6 83.65 5.7 84.3 8.75 84.75 8.85 85.2 8.9 85.85 9.05 87.6 9.45 87.6 9.2 Q87.7 8.85 88.1 8.45 L88.25 8.25 88.5 7.6 88.7 6.7 Q89.15 5.3 90.3 2.85 L91.5 0.45 91.4 0.15 91.9 -1.2 92.35 -2.55 92.8 -3.4 93.25 -4.1 93.25 -4.65 93.2 -5.0 93.15 -5.0 93.25 -5.45 93.25 -5.5 93.25 -5.7 93.4 -5.8 93.5 -5.9 93.95 -5.95 96.0 -5.8 98.75 -5.0 112.0 -3.7 112.05 -3.7 112.55 -3.75 113.85 -3.8 114.75 -3.6 114.25 -5.1 Q113.7 -5.6 113.2 -6.65 L112.35 -8.35 Q109.45 -11.8 103.95 -12.85 L102.1 -13.0 101.25 -13.25 100.65 -13.3 M112.5 -2.2 L109.6 -2.5 103.4 -3.55 101.6 -3.55 99.75 -3.55 97.05 -4.2 94.75 -4.7 94.55 -4.05 94.45 -3.9 94.45 -3.7 93.55 -1.25 93.55 -1.2 93.5 -1.1 93.7 -1.15 97.2 -1.0 98.5 -0.55 99.5 -0.25 105.7 0.4 108.15 0.35 111.9 0.4 112.95 0.4 115.45 0.6 115.1 -2.25 113.75 -2.35 112.45 -2.6 112.5 -2.2 M105.9 -18.6 L105.6 -16.6 105.2 -14.05 107.45 -13.3 107.9 -13.55 107.6 -13.6 107.6 -13.95 106.9 -16.8 Q106.3 -18.65 105.9 -19.15 L105.9 -18.6 M131.3 32.1 Q131.3 30.3 128.15 29.45 124.0 28.35 122.15 26.6 L121.4 26.75 Q120.2 27.0 119.15 27.5 L117.4 28.9 Q115.3 30.45 114.6 31.5 L112.9 33.75 112.7 34.05 113.7 35.05 Q114.8 36.15 116.65 36.6 L120.35 37.65 Q124.1 38.45 129.2 38.45 130.5 38.45 131.25 37.0 131.85 35.9 131.85 34.85 L131.6 33.45 131.3 32.1 M116.8 6.1 L117.9 6.3 117.95 6.25 118.1 5.8 Q118.15 5.3 117.5 4.65 L116.7 3.45 115.45 2.4 115.45 2.2 115.5 1.9 115.45 1.9 113.65 1.9 113.15 1.9 113.1 1.9 111.75 1.9 108.65 1.8 107.7 1.65 103.85 1.3 93.25 0.15 93.0 0.1 92.6 1.35 Q92.55 1.35 92.45 1.45 L91.75 2.8 90.55 5.4 90.3 6.45 89.7 7.8 89.6 7.9 Q88.95 9.2 88.65 10.05 L88.7 10.4 87.65 10.6 86.95 10.6 85.8 10.55 85.6 10.55 84.95 10.45 84.7 10.45 84.6 10.4 85.25 13.55 85.85 13.65 86.05 13.65 87.6 13.5 Q88.4 13.3 89.05 12.7 90.15 11.6 90.85 9.35 L91.3 7.6 91.65 6.25 91.85 5.5 Q92.35 3.9 93.0 3.15 L93.0 2.75 93.0 2.4 93.85 2.4 94.65 2.45 94.85 2.5 97.2 2.8 107.4 4.5 112.5 5.35 113.4 5.5 113.6 5.55 114.15 5.65 114.2 5.65 114.45 5.6 114.85 5.6 114.8 5.85 115.4 5.95 116.7 6.1 116.8 6.1 M112.35 11.15 Q108.15 10.55 104.95 11.05 L104.05 11.3 104.3 11.35 106.3 11.9 106.3 12.3 106.15 13.95 105.9 15.45 105.9 15.95 105.95 16.35 105.9 16.75 106.15 16.85 106.3 17.05 106.6 17.1 107.95 17.05 108.85 16.85 Q109.8 16.5 110.55 15.7 L111.55 14.0 111.65 13.8 112.05 12.5 112.2 11.95 112.35 11.15 M112.6 6.9 L112.7 6.7 112.65 6.65 112.6 6.9 M101.55 4.85 L96.45 3.95 96.3 4.25 96.25 4.25 96.15 6.05 96.05 6.7 96.0 7.35 95.6 9.75 95.15 13.35 95.2 14.25 95.45 15.65 96.1 16.7 104.35 17.95 104.35 17.9 105.05 13.05 105.0 12.75 104.7 12.8 Q103.1 12.95 102.2 12.4 101.15 11.8 100.9 10.4 L100.95 8.4 101.15 7.05 101.15 6.8 101.45 5.3 101.55 4.85 M105.8 8.55 L106.35 8.75 106.95 8.7 107.15 8.45 107.35 7.8 107.4 7.15 107.35 6.9 106.25 6.7 106.0 6.65 105.75 6.6 105.7 6.65 105.45 8.45 105.45 8.6 105.8 8.55 M112.85 16.0 L112.75 16.2 Q111.45 19.15 106.95 18.45 L105.2 18.1 Q104.45 18.7 102.95 18.8 L104.7 18.9 104.85 18.85 107.4 18.9 107.5 18.95 108.05 19.3 112.2 20.05 117.7 21.35 120.35 21.35 120.35 18.9 115.45 18.5 115.4 18.45 115.3 17.9 Q115.3 17.45 115.6 17.35 L115.9 17.3 117.3 17.35 Q116.85 16.9 116.45 15.75 L116.35 15.55 116.35 15.45 116.3 15.35 Q115.65 13.9 114.95 13.9 L114.4 14.05 114.35 14.3 114.25 14.3 113.8 14.6 113.5 14.45 113.2 14.55 112.85 16.0 M104.7 21.55 L104.85 21.4 106.3 21.35 106.9 21.4 Q107.8 21.5 108.0 22.05 L108.1 22.55 108.0 23.1 108.0 24.25 Q107.7 25.05 106.15 25.05 104.4 25.05 104.05 24.25 L104.05 23.35 104.1 23.05 Q104.15 22.3 104.35 21.95 L104.5 21.75 104.55 21.65 104.7 21.55 M104.15 20.5 Q103.5 21.0 103.05 21.8 L103.05 21.85 102.55 23.15 102.5 24.05 102.55 24.35 103.15 25.5 103.65 26.05 Q104.2 26.55 104.7 26.55 L106.5 26.4 107.85 26.0 108.7 25.45 108.95 25.2 109.15 25.0 109.6 23.6 109.6 23.55 109.35 22.4 108.55 21.2 108.5 21.1 108.25 20.9 Q106.85 19.65 104.7 20.15 104.45 20.3 104.15 20.5 M101.5 23.25 L101.0 23.25 101.0 23.35 100.9 24.45 101.45 24.4 101.45 24.05 101.5 23.25 M105.1 23.2 L105.05 23.8 105.5 23.9 106.85 23.9 106.95 22.7 106.95 22.45 105.25 22.55 105.2 22.7 105.15 22.9 105.1 23.2 M102.75 20.4 L99.85 20.3 100.15 20.55 100.85 21.95 101.85 21.9 Q102.15 21.1 102.75 20.4 M110.6 22.25 L110.65 22.95 112.05 23.05 112.05 22.75 112.3 21.85 110.55 22.15 110.6 22.25 M114.7 22.8 L115.75 24.9 115.9 25.15 Q116.0 24.65 116.5 24.45 L116.75 24.65 117.85 24.05 Q118.75 23.55 119.55 23.35 L119.2 22.7 118.85 22.7 114.4 22.1 114.7 22.8 M111.9 24.15 L110.5 24.65 109.75 26.1 108.8 27.0 109.4 28.2 109.4 28.45 109.45 28.15 109.9 28.05 110.05 28.15 111.7 25.0 111.9 24.15 M81.75 1.3 L80.05 1.65 83.7 19.85 Q84.35 19.2 85.3 18.75 L84.0 12.3 83.55 10.25 83.55 10.2 83.25 8.65 83.15 8.1 82.25 3.65 81.75 1.3 M86.2 18.3 L86.2 18.45 Q87.1 18.3 88.0 18.85 L90.25 20.45 90.9 21.75 92.25 21.8 Q92.7 20.6 93.8 19.75 L93.65 19.5 93.45 18.7 92.6 18.8 86.2 18.3 M89.1 15.2 L85.5 14.85 85.8 16.4 86.15 16.4 89.2 16.75 89.3 16.75 92.8 17.35 93.55 17.5 93.6 16.9 93.0 16.6 92.9 16.55 90.45 15.15 89.1 15.2 M85.35 21.3 L86.8 21.25 Q87.9 21.25 88.35 21.65 L88.5 21.95 88.5 23.0 88.5 24.15 88.15 24.6 Q87.7 24.95 86.65 24.95 L85.3 24.75 84.6 24.15 84.6 24.1 84.6 23.25 Q84.6 22.25 84.85 21.8 L85.1 21.5 85.35 21.3 M84.0 21.05 L83.55 21.7 Q83.0 22.85 83.0 23.9 83.0 24.45 83.65 25.35 84.2 26.1 84.8 26.3 L85.25 26.4 87.95 26.05 89.45 25.05 89.8 24.6 90.1 23.45 90.05 23.05 Q90.0 22.35 89.55 21.7 L89.0 21.0 Q88.0 19.9 86.5 19.9 L85.55 19.95 85.25 20.05 Q84.5 20.35 84.0 21.05 M82.45 21.5 L77.7 2.55 76.65 2.85 82.4 21.65 82.45 21.5 M81.95 23.65 L80.45 18.7 79.85 18.25 78.95 17.75 75.3 18.75 73.85 19.2 72.6 19.65 72.65 19.75 73.3 20.9 73.7 21.25 75.9 22.7 76.9 23.35 77.9 24.15 79.5 25.2 80.6 25.6 82.65 25.85 Q81.95 24.9 81.95 23.9 L81.95 23.65 M85.55 23.7 L86.0 23.8 87.35 23.75 87.45 23.0 87.45 22.35 86.0 22.45 85.75 22.45 85.7 22.6 85.6 23.1 85.55 23.7 M94.7 17.75 L94.9 18.95 95.25 18.75 97.9 18.9 98.5 19.3 99.25 18.55 Q96.1 18.0 94.7 17.3 L94.7 17.75 M95.25 21.35 L96.7 21.3 Q98.05 21.3 98.35 21.95 L98.4 22.0 98.4 23.05 98.4 24.2 98.2 24.55 96.55 25.0 Q95.25 25.0 94.75 24.6 L94.45 24.2 94.45 23.3 94.45 23.15 Q94.5 22.3 94.7 21.9 L94.75 21.85 94.95 21.6 95.25 21.35 M94.6 20.4 Q93.9 20.9 93.45 21.75 L93.45 21.8 92.95 23.15 92.85 23.95 93.05 24.6 93.55 25.45 94.3 26.15 95.1 26.45 97.4 26.25 Q98.65 25.9 99.35 25.15 L99.8 24.45 100.0 23.5 100.0 23.3 99.55 21.95 98.85 21.05 98.55 20.75 Q97.15 19.6 95.1 20.1 L94.6 20.4 M91.9 23.1 L91.15 23.05 91.15 23.3 90.95 24.6 91.9 24.6 91.85 23.95 91.9 23.1 M95.6 22.65 L95.5 23.15 95.5 23.2 95.45 23.75 95.9 23.85 97.25 23.8 97.3 23.2 97.35 22.4 95.65 22.5 95.6 22.65 M99.7 26.55 L100.5 28.1 100.5 28.15 Q100.95 26.85 102.05 25.85 L102.0 25.75 100.3 25.8 100.15 26.05 99.7 26.55 M97.6 27.55 L97.9 27.9 97.9 28.75 97.9 28.95 97.9 30.1 97.6 30.55 96.05 30.9 Q94.3 30.9 93.95 30.1 L93.95 30.0 93.95 29.2 94.0 28.7 94.2 27.8 94.45 27.5 94.6 27.4 93.5 26.85 Q93.15 27.2 92.95 27.65 L92.55 28.65 92.35 29.9 92.35 29.95 92.7 30.9 93.0 31.35 93.35 31.75 Q93.95 32.4 94.6 32.4 L97.55 31.95 98.85 31.05 98.95 30.9 99.4 30.1 99.45 29.45 99.4 28.8 Q99.25 27.95 98.6 27.25 L97.6 27.55 M96.85 28.3 L95.15 28.4 95.1 28.55 95.0 28.7 95.0 29.05 94.95 29.65 95.4 29.75 96.7 29.75 96.85 28.75 96.85 28.3 M100.35 30.9 L100.3 30.7 100.25 30.9 100.35 30.9 M92.6 26.05 L92.55 25.95 90.3 25.95 90.25 26.0 90.15 26.15 90.45 26.4 91.3 28.05 91.3 28.6 91.45 28.6 Q91.75 27.2 92.7 26.15 L92.6 26.05 M91.25 29.95 L90.95 31.0 91.55 31.0 91.3 29.95 91.25 29.95 M94.55 33.8 L94.45 34.3 94.4 34.9 94.85 35.0 96.2 35.0 96.3 34.3 96.3 33.6 94.6 33.65 94.55 33.8 M91.2 32.5 L91.3 32.7 91.4 32.5 91.2 32.5 M92.4 32.9 Q92.0 33.65 91.9 34.4 L91.85 35.15 92.15 36.1 92.5 36.6 92.9 37.05 Q93.45 37.65 94.05 37.65 96.0 37.65 97.2 37.1 L98.3 36.3 98.55 35.95 Q98.95 35.4 98.95 34.7 L98.95 34.35 98.45 33.0 97.4 33.35 97.35 34.2 97.35 35.35 96.7 36.0 95.5 36.15 94.35 36.05 Q93.6 35.85 93.4 35.35 L93.4 34.45 93.4 34.3 Q93.45 33.55 93.65 33.15 L92.65 32.55 92.4 32.9 M91.15 36.6 L90.85 37.05 91.45 37.05 91.15 36.6 M99.45 32.4 L99.65 32.75 99.85 32.4 99.45 32.4 M101.1 32.4 L100.7 33.0 100.2 34.4 100.15 35.2 100.3 35.9 100.8 36.7 101.15 37.15 Q101.75 37.75 102.35 37.75 104.35 37.75 105.55 37.15 L105.75 37.05 106.6 36.4 Q107.25 35.7 107.25 34.75 L106.95 33.5 106.85 33.3 105.75 33.6 105.65 34.3 105.65 35.45 105.4 35.8 Q104.95 36.25 103.8 36.25 L102.05 35.9 101.7 35.45 101.7 34.55 101.7 34.4 Q101.75 33.55 102.0 33.15 L102.05 33.0 101.2 32.3 101.1 32.4 M87.15 28.25 L85.95 28.35 85.9 28.5 85.8 29.0 85.75 29.6 86.2 29.7 87.55 29.65 87.65 28.25 87.15 28.25 M90.2 28.6 Q89.95 27.75 89.2 26.9 L88.2 27.35 88.7 27.85 88.75 28.55 88.7 28.9 88.7 30.1 Q88.35 30.85 86.85 30.85 85.1 30.85 84.75 30.05 L84.75 29.15 Q84.75 28.15 85.0 27.75 L85.25 27.45 84.05 27.05 83.75 27.6 83.4 28.4 83.2 29.35 83.15 29.8 Q83.15 30.3 83.6 31.0 L83.75 31.15 83.85 31.3 84.65 32.1 85.4 32.3 88.85 31.65 89.65 31.0 89.75 30.85 90.2 29.9 90.3 29.35 90.2 28.6 M81.9 27.5 L81.85 27.5 81.0 27.2 79.9 26.7 79.85 26.65 79.05 26.2 78.95 26.15 77.75 25.45 76.0 24.3 75.85 24.2 75.15 23.8 73.8 23.1 73.55 22.95 72.7 22.5 72.2 22.25 71.0 20.95 70.85 20.4 Q70.7 20.45 70.55 20.6 69.3 21.35 69.3 22.15 L69.4 22.75 69.45 22.75 69.6 23.1 70.85 24.15 71.25 24.35 72.3 24.75 74.0 25.6 75.1 26.15 75.75 26.55 Q77.65 27.65 79.25 28.3 L82.15 29.25 Q82.25 28.35 82.6 27.6 L82.65 27.45 81.9 27.5 M82.2 30.55 L79.6 29.65 78.35 29.1 77.95 28.9 77.95 29.0 77.85 29.6 77.75 29.7 77.9 30.4 78.05 33.05 79.45 33.1 79.95 33.3 81.3 34.15 81.7 32.75 82.05 31.3 82.3 30.7 82.2 30.55 M84.05 32.9 L83.55 34.35 83.5 35.1 83.7 35.8 84.15 36.55 84.5 36.95 Q85.1 37.6 85.75 37.6 L87.25 37.5 88.95 37.05 90.0 36.25 90.05 36.2 90.15 36.05 Q90.6 35.45 90.6 34.65 L90.6 34.5 Q90.55 33.45 89.85 32.55 L89.0 33.05 89.0 33.15 89.0 34.15 89.0 35.35 88.7 35.8 87.15 36.15 87.0 36.15 85.7 35.9 85.6 35.9 85.1 35.35 85.1 34.4 85.1 33.95 85.25 33.35 84.05 32.9 M78.25 36.4 L80.1 36.75 80.85 36.95 81.1 35.15 81.1 35.1 81.15 34.9 81.1 34.9 80.85 34.95 80.65 34.95 79.3 34.6 78.75 34.4 78.0 34.1 77.95 34.15 77.7 35.9 77.65 36.1 77.65 36.25 78.25 36.4 M82.1 36.8 L82.25 36.85 82.3 36.85 83.0 36.9 82.55 35.8 82.3 35.8 82.15 36.25 82.1 36.8 M86.2 33.8 L86.15 34.3 86.05 34.9 86.5 35.0 87.85 34.95 88.0 33.55 86.5 33.65 86.3 33.65 86.2 33.8 M86.05 39.1 L86.05 41.0 86.95 41.0 86.5 38.75 86.15 38.7 86.05 38.7 86.05 39.1 M87.55 38.75 L92.1 61.5 92.15 62.6 92.15 62.9 92.5 62.9 93.1 62.85 93.7 62.75 94.15 62.45 94.3 62.15 94.45 62.15 94.45 62.1 Q92.9 56.0 90.65 45.3 L89.25 38.4 87.55 38.75 M86.85 43.35 L86.85 43.3 Q86.85 43.15 86.45 43.15 86.25 43.15 85.8 43.45 L84.55 44.25 83.15 45.0 81.2 45.35 80.5 45.35 80.2 45.25 80.05 44.95 Q80.3 44.05 81.75 43.65 L83.75 43.15 84.45 42.75 85.05 42.4 84.55 42.35 83.0 42.3 81.75 42.25 81.15 43.05 80.05 44.6 79.9 45.35 79.8 46.0 79.75 46.4 79.6 46.9 79.55 47.25 79.55 47.35 79.5 47.45 79.45 47.5 79.7 47.45 80.95 47.3 81.45 47.2 82.05 47.05 Q83.0 46.75 83.8 46.25 L84.65 45.6 84.7 45.6 85.0 45.35 85.9 44.85 85.95 44.85 86.05 44.75 86.05 44.8 86.3 44.95 86.35 45.0 86.5 45.3 86.65 45.65 86.7 45.8 86.8 46.75 86.85 47.05 Q86.95 47.5 87.35 47.8 L87.55 47.75 87.55 47.8 87.7 48.05 88.45 48.3 88.5 48.3 88.2 47.0 88.1 46.45 87.45 45.65 Q87.1 45.05 86.85 43.45 L86.85 43.35 M82.95 41.05 L85.15 41.0 Q84.85 40.4 84.85 39.75 84.85 38.9 85.0 38.45 L84.65 38.3 83.25 38.15 82.15 38.05 82.1 38.4 82.0 38.45 82.1 40.65 81.7 41.0 81.95 41.05 82.05 41.0 82.15 41.05 82.95 41.05 M83.95 48.05 L83.0 48.55 Q83.3 49.45 83.15 50.8 L86.95 51.1 86.95 49.15 86.95 48.9 86.5 48.45 85.6 46.6 83.95 48.05 M99.75 37.15 L99.45 36.7 99.15 37.15 99.75 37.15 M96.3 40.9 L100.0 40.9 99.75 39.85 Q99.75 38.9 100.15 38.45 L97.3 38.5 96.3 38.75 95.4 38.8 93.4 38.5 93.05 38.5 92.9 38.5 92.9 38.85 92.9 40.95 96.3 40.9 M100.9 38.45 L100.65 38.45 100.8 38.8 100.95 39.75 100.9 40.85 100.9 40.9 100.95 40.9 103.5 40.9 105.85 40.9 105.75 40.45 105.75 39.25 105.7 38.55 103.7 38.9 103.15 38.9 101.4 38.45 100.9 38.45 M98.3 43.0 L99.95 43.5 101.25 43.9 Q101.75 44.3 103.55 45.05 L105.6 45.85 105.6 45.0 105.6 43.4 Q105.6 42.55 105.85 42.1 L97.6 42.25 98.3 43.0 M91.7 39.75 L91.9 38.5 90.6 38.45 91.25 40.95 92.0 40.95 Q91.7 40.35 91.7 39.75 M91.6 42.3 L92.4 45.0 93.75 43.8 95.45 42.25 91.6 42.3 M93.0 47.05 L93.2 47.65 94.1 46.95 95.9 45.35 96.05 45.1 96.3 45.1 96.45 45.15 97.1 45.2 Q97.1 45.5 97.4 45.85 L97.4 45.95 97.35 46.0 97.6 46.15 97.75 46.15 99.7 47.1 100.05 47.3 100.85 47.65 Q103.7 48.8 105.25 48.8 L107.25 48.6 107.55 48.4 107.55 48.35 107.6 48.3 107.6 48.25 107.75 47.8 107.8 47.3 107.85 46.15 107.85 46.05 107.85 45.95 107.85 45.9 107.9 44.7 107.85 44.25 107.85 44.15 107.7 43.6 107.55 43.45 107.2 43.1 106.95 45.2 106.55 46.7 106.3 47.25 105.9 47.45 Q101.55 46.3 100.6 45.5 L99.75 44.9 97.85 43.95 96.4 43.35 96.3 43.3 94.0 45.25 92.8 46.25 92.85 46.55 93.0 47.05 M95.9 47.1 L94.15 48.45 93.6 48.9 94.35 51.45 94.4 51.45 95.85 51.45 95.9 51.45 95.9 50.9 95.75 48.4 Q95.75 47.65 95.9 47.1 M100.9 49.15 L99.8 48.6 99.65 48.5 Q98.05 47.6 97.1 47.25 L97.1 51.5 100.35 51.5 100.7 51.5 100.7 50.5 101.0 49.3 101.05 49.2 100.9 49.15 M121.15 25.5 L120.3 24.4 119.6 24.85 Q118.45 25.55 117.55 25.65 L117.45 25.75 116.8 25.95 116.55 25.9 116.5 25.95 117.05 26.65 117.45 27.2 118.0 27.0 119.55 26.15 121.15 25.55 121.2 25.55 121.15 25.5 M114.2 25.65 L114.6 25.45 113.5 23.2 Q113.45 24.7 112.45 27.0 L114.2 25.65 M115.4 26.9 L115.4 26.85 115.3 26.75 Q114.0 26.85 113.1 27.75 L112.2 29.0 113.5 30.35 115.6 28.3 115.9 28.1 115.6 27.7 115.5 27.35 115.45 27.0 115.45 26.95 115.4 26.9 M111.1 34.05 L111.1 34.0 111.2 33.75 111.25 33.6 Q111.55 32.9 112.7 31.35 L111.85 30.55 111.75 30.5 Q111.25 31.05 110.65 32.25 L110.15 33.45 110.6 33.75 110.85 34.35 111.0 34.65 111.1 34.05 M106.55 27.7 L106.8 28.0 106.85 28.7 106.8 29.05 106.8 30.2 106.2 30.8 104.95 31.0 Q103.15 31.0 102.85 30.2 L102.85 29.3 102.85 28.8 103.1 27.9 103.35 27.6 103.6 27.35 103.9 27.35 Q103.2 27.05 102.7 26.6 102.2 27.05 101.85 27.75 L101.45 28.8 101.25 29.95 101.3 30.15 101.45 30.65 101.9 31.45 102.0 31.55 Q102.7 32.45 103.5 32.45 L106.0 32.15 107.75 31.15 108.0 30.75 108.35 29.95 108.35 29.5 108.25 28.6 107.9 27.9 107.65 27.5 106.55 27.7 M110.95 29.7 L110.35 30.75 109.1 33.05 109.5 33.2 Q109.8 32.45 110.65 31.1 L111.3 30.1 111.55 30.3 111.05 29.8 110.95 29.7 M105.75 28.4 L104.05 28.5 104.0 28.65 103.9 28.8 103.9 29.15 103.85 29.75 104.3 29.85 105.6 29.8 105.75 28.75 105.75 28.4 M102.85 33.9 L102.75 34.4 102.7 35.0 103.15 35.1 104.5 35.05 104.55 34.45 104.6 34.25 104.6 33.65 102.9 33.75 102.85 33.9 M109.05 52.1 L106.65 52.55 106.65 52.7 106.65 53.6 106.65 53.75 106.7 53.9 108.3 53.9 109.7 53.4 110.6 53.15 110.5 52.7 110.25 51.65 109.05 52.1 M109.5 50.3 L108.85 48.85 Q108.25 49.85 106.45 50.1 L106.65 51.35 108.55 51.0 108.75 50.6 109.65 50.45 109.5 50.3 M107.55 55.2 L107.25 55.2 106.0 55.0 104.95 55.35 102.95 55.8 102.3 55.8 101.6 55.75 99.6 56.1 96.8 55.75 95.75 56.1 96.45 58.3 97.15 58.3 101.95 58.0 103.15 57.9 105.1 57.6 107.9 57.15 111.0 56.65 110.4 54.8 107.55 55.2 M105.35 50.9 L105.45 50.15 105.3 50.15 Q103.4 50.15 101.55 49.45 L101.85 50.45 101.9 51.5 102.2 51.5 105.35 51.4 105.35 50.9 M103.25 54.45 L105.45 53.75 105.45 52.65 102.3 52.85 101.85 52.85 101.85 54.45 103.25 54.45 M99.85 66.0 L100.85 64.35 Q101.35 63.55 102.6 63.75 L102.55 62.25 102.2 60.25 102.05 59.0 97.15 59.55 97.15 61.2 97.25 61.5 97.3 62.0 97.4 62.25 97.5 62.85 97.4 62.85 97.4 63.25 97.3 62.9 97.15 63.0 97.15 66.2 98.0 66.2 99.85 66.25 99.9 66.25 100.05 66.25 99.85 66.0 M102.35 65.15 L100.75 66.25 102.85 66.3 102.35 65.15 M97.1 54.45 L99.35 54.65 100.7 54.7 100.65 52.85 100.35 52.85 97.7 52.85 97.4 52.85 97.1 52.85 97.1 54.45 M94.8 52.85 L95.35 54.7 95.9 54.7 95.9 52.85 94.8 52.85 M95.4 57.4 L96.2 60.7 96.3 61.75 96.35 62.3 96.55 62.0 96.7 61.7 96.85 61.65 95.7 58.35 95.4 57.4 M92.6 50.0 L94.8 60.9 94.8 62.05 94.85 62.55 94.9 62.65 95.2 62.6 95.3 62.6 95.65 62.25 95.75 61.9 95.95 61.95 95.95 61.85 92.6 50.0 M88.8 49.75 L88.2 49.55 88.2 50.3 88.15 51.2 88.25 51.2 89.1 51.25 88.8 49.75 M87.9 52.75 L87.85 53.0 87.85 54.5 89.85 54.55 89.45 52.75 87.9 52.75 M86.45 54.0 L86.55 53.3 86.65 52.7 85.8 52.7 82.95 52.55 82.7 54.2 86.35 54.3 86.4 54.3 86.45 54.0 M81.35 57.55 L86.3 58.1 87.55 58.15 90.7 58.3 90.15 55.8 86.95 55.8 86.5 55.6 86.45 55.5 82.0 55.5 81.85 55.5 81.45 55.3 81.35 55.2 81.25 54.65 81.25 54.6 78.0 54.6 77.35 54.55 77.15 55.45 76.5 56.6 77.55 56.85 81.0 57.5 81.35 57.55 M81.05 52.0 L78.5 51.65 78.35 51.5 78.2 51.8 77.7 53.0 81.35 53.45 81.4 53.45 81.45 53.0 81.5 52.8 81.6 52.35 81.05 52.0 M81.8 50.65 L81.75 48.85 80.5 48.95 79.1 48.8 Q78.7 49.45 78.6 50.4 L78.7 50.35 81.35 50.6 81.8 50.65 M79.95 65.7 L80.2 65.25 81.55 64.4 Q82.65 64.05 83.4 64.7 L83.75 64.3 Q84.0 64.0 84.9 63.6 L86.0 62.85 87.4 61.9 88.75 60.9 89.9 60.1 89.1 59.65 83.2 59.35 Q80.1 60.45 78.5 60.2 L78.35 61.35 Q77.95 63.7 79.9 65.75 L80.05 65.85 82.3 67.4 Q82.35 67.35 82.4 67.45 L82.45 67.1 82.55 65.75 81.55 65.95 80.05 65.75 79.95 65.7 M78.6 2.1 L81.3 12.9 79.1 2.0 78.6 2.1 M71.95 13.3 L74.15 12.4 74.0 12.25 Q73.65 11.9 73.75 11.5 L73.95 11.2 74.15 10.85 Q74.45 10.5 75.1 10.1 74.15 10.4 73.45 10.85 L72.9 11.3 Q72.0 12.15 71.75 13.2 L71.7 13.4 71.95 13.3 M75.3 11.95 L75.3 12.1 78.6 12.55 77.9 10.25 Q76.65 10.6 76.0 10.9 75.3 11.2 75.25 11.45 L75.25 11.5 75.25 11.85 75.25 11.9 75.3 11.95 M79.35 15.1 L79.0 13.95 78.15 13.8 75.55 13.7 Q74.35 13.6 72.3 14.55 L70.05 15.65 68.2 16.55 Q65.55 17.75 63.6 22.05 L60.65 27.7 Q58.85 31.15 58.3 33.45 56.9 39.0 56.1 45.2 55.3 51.35 55.3 56.1 L55.6 59.6 56.2 61.1 Q56.6 61.8 56.6 62.45 L59.95 63.45 62.45 64.2 64.0 64.6 69.3 64.6 Q67.6 60.55 66.45 55.55 65.15 50.15 65.15 46.1 L65.25 43.15 65.05 42.85 Q62.95 38.3 62.35 36.3 L62.15 35.1 Q62.15 34.6 62.3 34.3 L61.85 33.4 Q61.85 31.75 64.9 27.65 L65.25 27.25 68.35 23.45 68.1 22.4 68.1 22.2 Q68.1 20.55 68.8 19.95 69.4 19.35 72.65 18.1 L73.35 17.85 77.4 16.4 79.6 16.7 79.85 16.65 79.35 15.1 M69.1 24.45 L66.7 27.65 67.75 28.2 68.3 28.65 69.1 29.35 69.3 28.95 Q70.65 26.55 71.3 25.75 L70.2 25.2 69.35 24.65 69.1 24.45 M72.3 26.3 L70.65 29.3 70.1 30.25 72.45 31.5 74.25 32.85 74.95 31.45 75.45 30.1 75.65 29.75 76.0 28.6 76.0 28.55 76.5 28.4 76.6 28.4 76.65 28.3 76.4 28.15 75.95 27.95 75.85 27.75 75.45 27.7 74.35 27.15 73.75 26.85 72.35 26.2 72.3 26.15 72.3 26.3 M73.2 35.2 L73.65 34.0 Q72.75 33.85 71.15 32.6 L69.6 31.15 Q69.0 32.3 69.0 32.8 L70.95 34.05 73.2 35.2 M76.25 31.8 L75.9 32.45 Q74.45 35.5 73.75 36.1 73.6 36.4 73.15 36.4 71.75 36.4 69.6 34.9 L67.85 33.45 67.75 33.3 67.7 33.3 67.2 33.4 66.6 33.2 Q65.9 32.85 65.05 31.75 L64.35 30.75 Q63.25 32.45 63.25 33.25 63.25 34.25 64.7 35.45 L65.95 36.3 67.1 37.05 67.3 37.15 Q68.4 37.8 71.3 38.5 L77.75 39.8 80.95 39.8 80.85 38.55 79.85 38.15 78.5 37.75 Q77.05 37.35 76.65 36.85 L76.45 36.25 76.5 31.9 76.55 31.2 76.25 31.8 M65.3 30.35 L65.3 30.4 65.7 30.8 66.95 31.65 67.05 31.75 Q67.45 31.95 67.65 32.25 L67.75 31.95 67.8 31.9 67.9 31.75 68.5 30.45 67.65 30.1 66.75 29.45 65.9 28.65 65.0 29.85 64.85 30.0 65.1 30.15 65.3 30.35 M66.0 37.6 L65.75 37.45 63.6 35.75 64.2 37.6 65.15 39.65 65.45 40.25 66.0 41.65 66.5 42.7 Q67.6 45.35 68.35 47.95 69.05 49.35 71.85 49.35 74.6 49.35 75.65 48.5 L76.15 47.6 74.75 43.9 73.35 40.55 Q69.85 39.8 66.95 38.15 L66.0 37.6 M67.05 48.3 L66.35 45.85 66.35 46.0 Q66.35 47.9 66.9 51.0 L67.85 56.0 68.2 57.5 68.5 57.05 69.5 56.1 Q71.1 55.1 75.6 54.95 L76.2 53.85 76.2 53.45 Q76.2 53.0 76.7 51.75 L77.4 49.9 Q77.5 48.75 77.75 48.05 L78.3 47.25 78.5 45.75 79.0 43.75 Q79.55 42.4 80.1 41.7 L80.05 41.65 80.05 41.15 79.55 41.15 78.4 41.05 76.9 41.1 76.85 41.05 74.85 40.85 76.15 43.8 Q77.35 47.15 77.35 47.75 77.35 48.9 76.25 49.65 74.8 50.7 71.85 50.7 68.15 50.7 67.05 48.3" fill="#000000" fill-rule="evenodd" stroke="none"/>
    <path d="M76.65 -16.55 L74.05 -27.35 72.65 -34.0 72.6 -34.25 72.45 -35.15 72.25 -36.05 72.05 -36.0 71.95 -35.95 71.75 -36.2 71.4 -36.25 71.05 -36.0 70.65 -35.55 70.5 -35.4 70.9 -37.8 71.2 -39.4 71.4 -40.35 71.95 -42.85 73.35 -40.25 75.55 -36.4 74.85 -36.8 74.3 -36.85 73.9 -36.65 73.9 -36.3 74.0 -36.2 Q73.75 -35.45 74.05 -34.1 L74.6 -31.6 75.15 -28.65 75.65 -26.5 76.65 -21.55 77.1 -18.9 Q77.35 -17.6 77.85 -16.9 77.3 -16.8 76.7 -16.4 L76.65 -16.55 M71.45 -14.9 L67.9 -25.45 65.7 -32.1 65.55 -33.05 65.25 -33.9 64.95 -33.8 64.75 -34.05 64.35 -34.05 Q63.9 -33.75 63.6 -33.1 63.55 -34.4 64.0 -38.1 L64.3 -40.65 Q64.85 -39.75 65.95 -38.2 L66.45 -37.5 Q66.05 -34.25 66.35 -33.05 L66.6 -32.55 67.1 -31.95 67.25 -32.1 68.0 -29.7 68.85 -26.8 69.55 -24.7 71.0 -19.85 71.75 -17.3 Q72.15 -16.0 72.7 -15.4 72.15 -15.2 71.55 -14.8 L71.45 -14.9 M74.3 -15.85 L71.25 -26.5 69.5 -32.8 69.35 -33.3 69.2 -34.2 69.0 -35.1 68.65 -35.05 68.5 -35.25 68.1 -35.25 68.05 -35.25 67.7 -34.95 67.3 -34.35 67.3 -34.95 67.45 -36.1 67.7 -37.75 67.95 -39.35 68.35 -41.9 69.9 -39.4 70.0 -39.25 Q69.25 -35.45 69.5 -34.1 L69.75 -33.65 70.3 -33.0 70.75 -33.65 70.85 -33.3 71.55 -30.8 72.25 -27.85 72.85 -25.7 74.05 -20.8 74.65 -18.2 Q74.95 -17.05 75.4 -16.35 L75.45 -16.2 74.35 -15.7 74.3 -15.85" fill="#60606c" fill-rule="evenodd" stroke="none"/>
    <path d="M72.05 -9.05 L72.05 -9.1 71.1 -12.25 Q71.05 -13.4 72.95 -14.15 L72.75 -13.15 73.25 -10.9 73.6 -9.45 74.05 -8.6 72.5 -8.1 72.4 -8.25 72.15 -8.95 72.1 -9.0 72.05 -9.05 M74.95 -13.95 L75.3 -11.65 75.65 -10.15 76.05 -9.3 75.0 -8.95 74.9 -9.15 74.65 -9.85 74.55 -10.0 74.8 -8.9 74.75 -8.85 74.55 -9.95 73.8 -13.25 Q73.8 -13.8 74.35 -14.25 L75.1 -14.75 74.95 -13.95 M81.25 -10.5 L81.15 -10.55 80.05 -10.35 79.2 -10.15 77.0 -9.65 76.9 -9.85 76.7 -10.55 76.6 -10.7 76.8 -9.6 76.7 -9.55 76.6 -10.65 76.0 -13.95 Q76.05 -14.7 76.95 -15.2 L78.0 -15.6 78.9 -15.85 Q79.6 -16.0 80.2 -13.65 80.65 -11.6 81.3 -10.6 L81.25 -10.5 M103.75 -34.85 L101.65 -34.05 Q96.0 -31.4 93.15 -25.85 90.8 -21.25 90.2 -19.3 L89.15 -13.4 88.9 -11.9 88.7 -10.4 88.7 -10.2 88.35 -8.6 88.35 -8.55 88.35 -8.4 Q88.3 -7.75 88.55 -7.25 L82.65 -8.25 83.55 -16.05 84.3 -21.3 Q84.7 -22.65 87.3 -27.45 87.9 -28.7 89.35 -30.25 L91.6 -32.65 93.4 -33.8 95.7 -34.65 100.3 -35.05 103.75 -34.85 M73.5 -7.4 L75.1 -7.85 75.85 -4.7 77.45 1.55 76.35 1.95 73.5 -7.4 M79.65 -9.2 L79.7 -9.25 80.35 -5.9 81.55 0.3 80.95 0.4 80.05 0.65 79.85 0.7 77.9 -8.85 79.65 -9.2 M75.95 -8.25 L77.0 -8.5 77.65 -5.35 78.95 1.05 78.35 1.2 75.95 -8.25 M107.4 18.9 L111.1 18.5 115.45 18.5 120.35 18.9 120.35 21.35 117.7 21.35 112.2 20.05 108.05 19.3 107.5 18.95 107.4 18.9 M116.3 15.35 L114.0 15.75 112.85 16.0 113.2 14.55 113.5 14.45 113.8 14.6 114.25 14.3 114.35 14.3 114.4 14.05 114.95 13.9 Q115.65 13.9 116.3 15.35 M92.9 16.55 L90.2 15.65 89.1 15.2 90.45 15.15 92.9 16.55 M107.9 57.15 L107.55 55.2 110.4 54.8 111.0 56.65 107.9 57.15 M82.0 55.5 L82.0 55.6 Q81.45 56.75 81.35 57.55 L81.0 57.5 77.55 56.85 76.5 56.6 77.15 55.45 77.35 54.55 78.0 54.6 81.25 54.6 81.25 54.65 81.35 55.2 81.45 55.3 81.85 55.5 82.0 55.5 M74.15 10.85 L73.55 10.85 73.45 10.85 Q74.15 10.4 75.1 10.1 74.45 10.5 74.15 10.85 M62.45 64.2 L59.95 63.45 56.6 62.45 Q56.6 61.8 56.2 61.1 L55.6 59.6 55.3 56.1 Q55.3 51.35 56.1 45.2 56.9 39.0 58.3 33.45 58.85 31.15 60.65 27.7 L63.6 22.05 Q65.55 17.75 68.2 16.55 L70.05 15.65 72.3 14.55 Q74.35 13.6 75.55 13.7 L78.15 13.8 79.0 13.95 79.35 15.1 Q78.05 15.5 76.95 16.05 L73.35 17.85 72.65 18.1 Q69.4 19.35 68.8 19.95 68.1 20.55 68.1 22.2 L68.1 22.4 66.45 24.85 66.3 25.2 65.3 27.05 65.25 27.25 64.9 27.65 Q61.85 31.75 61.85 33.4 L62.3 34.3 Q62.15 34.6 62.15 35.1 L62.35 36.3 61.05 43.85 Q60.6 47.65 60.6 54.65 60.6 55.75 61.1 57.35 L61.55 59.3 Q61.55 61.0 62.1 62.85 L62.45 64.2" fill="#942403" fill-rule="evenodd" stroke="none"/>
    <path d="M81.3 -10.6 L81.45 -10.55 81.3 -9.55 81.15 -9.45 81.0 -9.55 80.95 -9.8 80.95 -10.35 Q81.0 -10.35 81.25 -10.5 L81.3 -10.6 M81.75 1.3 L82.25 3.65 83.15 8.1 83.25 8.65 83.55 10.2 83.55 10.25 84.0 12.3 85.3 18.75 Q84.35 19.2 83.7 19.85 L80.05 1.65 81.75 1.3 M82.45 21.5 L82.4 21.65 76.65 2.85 77.7 2.55 82.45 21.5 M87.55 38.75 L89.25 38.4 90.65 45.3 Q92.9 56.0 94.45 62.1 L94.45 62.15 94.3 62.15 94.15 62.45 93.7 62.75 93.1 62.85 92.5 62.9 92.15 62.9 92.15 62.6 92.1 61.5 87.55 38.75 M95.4 57.4 L95.7 58.35 96.85 61.65 96.7 61.7 96.55 62.0 96.35 62.3 96.3 61.75 96.2 60.7 95.4 57.4 M92.6 50.0 L95.95 61.85 95.95 61.95 95.75 61.9 95.65 62.25 95.3 62.6 95.2 62.6 94.9 62.65 94.85 62.55 94.8 62.05 94.8 60.9 92.6 50.0 M78.6 2.1 L79.1 2.0 81.3 12.9 78.6 2.1" fill="#211b14" fill-rule="evenodd" stroke="none"/>
    <path d="M114.45 -27.95 L114.55 -26.75 115.1 -23.3 115.5 -20.1 Q115.95 -17.5 115.6 -13.6 L115.1 -7.25 114.8 -7.4 114.6 -7.75 112.65 -10.4 112.15 -10.95 112.15 -11.8 Q112.2 -15.15 111.7 -17.75 110.2 -25.95 104.35 -24.05 100.3 -24.5 96.7 -19.85 94.35 -16.8 93.55 -13.7 L93.2 -12.25 93.15 -12.1 93.0 -10.65 93.0 -10.1 90.65 -8.65 89.55 -7.8 89.85 -10.2 90.05 -11.6 90.5 -14.65 Q91.1 -19.0 92.55 -21.75 95.65 -27.95 97.9 -30.25 102.0 -34.35 107.9 -33.45 112.25 -32.8 113.75 -29.95 L114.45 -27.95" fill="#7b1102" fill-rule="evenodd" stroke="none"/>
    <path d="M94.75 -12.8 L95.3 -14.35 96.65 -17.1 Q99.1 -21.4 101.1 -22.3 102.95 -23.1 108.15 -22.25 109.1 -22.15 110.05 -19.4 110.9 -17.05 110.95 -15.8 L110.85 -12.1 110.45 -12.5 109.1 -13.35 108.4 -17.0 Q107.05 -21.25 103.7 -20.8 100.15 -20.25 98.45 -17.45 L97.35 -14.8 96.6 -13.15 96.25 -12.5 95.95 -10.35 94.7 -10.05 94.5 -9.9 94.4 -10.05 94.15 -10.25 94.75 -12.8 M116.8 6.1 L116.6 5.95 116.7 6.1 115.4 5.95 113.8 2.9 113.1 1.9 113.15 1.9 113.5 2.15 113.65 1.9 115.45 1.9 115.45 2.2 115.45 2.4 116.7 3.45 117.5 4.65 Q118.15 5.3 118.1 5.8 L117.95 6.25 117.9 6.3 116.8 6.1 M113.5 2.15 L113.5 2.2 113.55 2.2 113.5 2.15 M113.4 5.5 L113.55 5.45 113.6 5.55 113.4 5.5 M94.7 17.75 L94.7 17.3 Q96.1 18.0 99.25 18.55 L98.5 19.3 97.9 18.9 95.25 18.75 94.9 18.95 94.7 17.75 M81.9 27.5 L82.6 27.6 Q82.25 28.35 82.15 29.25 L79.25 28.3 Q77.65 27.65 75.75 26.55 L75.1 26.15 74.0 25.6 72.3 24.75 71.25 24.35 70.85 24.15 69.6 23.1 69.45 22.75 69.4 22.75 69.3 22.15 Q69.3 21.35 70.55 20.6 L71.0 20.95 72.2 22.25 72.7 22.5 73.55 22.95 73.8 23.1 75.15 23.8 75.85 24.2 76.0 24.3 77.75 25.45 78.95 26.15 79.05 26.2 79.85 26.65 79.9 26.7 81.0 27.2 81.85 27.5 81.9 27.5 M77.7 35.9 L77.95 34.15 78.0 34.1 78.75 34.4 79.3 34.6 80.65 34.95 80.85 34.95 81.1 34.9 81.15 34.9 81.1 35.1 81.1 35.15 80.85 36.95 80.1 36.75 78.25 36.4 77.85 36.0 77.7 35.9 M86.05 39.1 L86.05 38.7 86.15 38.7 86.05 39.1 M86.85 43.35 L86.85 43.45 Q87.1 45.05 87.45 45.65 L88.1 46.45 88.2 47.0 86.95 45.2 86.75 44.5 Q86.45 43.95 85.9 43.95 L84.3 45.1 82.3 46.2 80.95 46.4 Q80.05 46.55 79.6 46.9 L79.75 46.4 79.8 46.0 79.9 45.35 80.5 45.35 81.2 45.35 82.9 45.35 83.15 45.0 84.55 44.25 85.8 43.45 86.35 43.3 86.85 43.35 M88.45 48.3 L87.7 48.05 87.55 47.8 88.1 48.2 88.45 48.3 M87.55 47.75 L87.35 47.8 Q86.95 47.5 86.85 47.05 L86.8 46.75 86.95 47.0 87.55 47.75 M83.25 38.15 L84.65 38.3 85.0 38.45 Q84.85 38.9 84.85 39.75 84.85 40.4 85.15 41.0 L82.95 41.05 83.15 40.5 83.4 38.55 83.25 38.15 M96.3 38.75 L97.3 38.5 100.15 38.45 Q99.75 38.9 99.75 39.85 L100.0 40.9 96.3 40.9 96.35 39.35 96.3 38.75 M92.9 38.85 L92.9 38.5 93.05 38.5 92.9 38.85 M100.8 38.8 L100.65 38.45 100.9 38.45 100.8 38.8 M103.15 38.9 L103.7 38.9 105.7 38.55 105.75 39.25 105.75 40.45 105.85 40.9 103.5 40.9 103.3 40.45 103.1 39.85 103.15 38.9 M100.95 40.9 L100.9 40.9 100.9 40.85 100.95 40.9 M91.7 39.75 Q91.7 40.35 92.0 40.95 L91.25 40.95 90.6 38.45 91.9 38.5 91.7 39.75 M93.0 47.05 L92.85 46.55 93.75 45.85 96.4 43.35 97.85 43.95 99.75 44.9 100.6 45.5 Q101.55 46.3 105.9 47.45 L106.3 47.25 106.65 47.3 106.85 47.35 106.5 47.95 Q103.0 47.95 99.9 46.2 L96.95 44.45 Q96.05 44.45 94.6 45.8 L93.4 46.8 93.0 47.05 M106.55 46.7 L106.95 45.2 107.2 43.1 107.55 43.45 107.7 43.6 107.85 44.15 107.75 44.6 107.6 45.7 107.0 47.15 106.9 47.3 106.55 46.7 M107.6 48.25 L107.6 48.3 107.5 48.35 107.55 48.4 107.25 48.6 107.5 48.35 107.6 48.25 M100.85 47.65 L100.05 47.3 100.2 47.3 100.85 47.65 M97.6 46.15 L97.35 46.0 97.4 45.95 97.6 46.15 M115.45 27.0 L115.4 26.9 115.45 26.95 115.45 27.0 M75.25 11.9 L75.25 11.85 75.25 11.5 75.25 11.45 Q75.3 11.2 76.0 10.9 76.65 10.6 77.9 10.25 L78.6 12.55 75.3 12.1 75.3 11.95 75.3 11.9 75.25 11.9 M73.2 35.2 L70.95 34.05 69.0 32.8 Q69.0 32.3 69.6 31.15 L71.15 32.6 Q72.75 33.85 73.65 34.0 L73.2 35.2 M65.0 29.85 L65.9 28.65 66.75 29.45 67.65 30.1 68.5 30.45 67.9 31.75 67.8 31.9 67.75 31.95 67.65 32.25 Q67.45 31.95 67.05 31.75 L66.95 31.65 65.7 30.8 65.3 30.4 65.3 30.35 65.0 29.85" fill="#cc9d3c" fill-rule="evenodd" stroke="none"/>
    <path d="M101.15 -16.85 Q101.3 -17.8 101.1 -18.45 102.75 -19.6 105.0 -19.45 L104.5 -17.4 104.1 -14.35 104.05 -14.1 100.8 -14.6 100.85 -14.85 101.15 -16.85 M113.1 1.9 L113.8 2.9 115.4 5.95 114.8 5.85 114.85 5.6 114.45 5.6 114.2 5.65 114.15 5.65 113.6 5.55 113.55 5.45 113.4 5.5 112.5 5.35 107.4 4.5 97.2 2.8 94.85 2.5 94.65 2.45 93.85 2.2 93.85 2.4 93.0 2.4 93.0 2.75 93.0 3.15 Q92.35 3.9 91.85 5.5 L91.65 6.25 91.3 7.6 90.85 9.35 Q90.15 11.6 89.05 12.7 88.4 13.3 87.6 13.5 L86.05 13.65 85.85 13.65 85.25 13.55 84.6 10.4 84.7 10.45 84.95 10.45 85.6 10.55 85.8 10.55 86.95 10.6 87.65 10.6 88.7 10.4 88.65 10.05 Q88.95 9.2 89.6 7.9 L89.7 7.8 90.3 6.45 90.55 5.4 91.75 2.8 92.45 1.45 Q92.55 1.35 92.6 1.35 L93.0 0.1 93.25 0.15 103.85 1.3 106.1 1.65 107.65 1.8 108.6 1.85 111.35 2.05 111.65 2.05 111.75 1.9 113.1 1.9 M104.15 20.5 Q104.45 20.3 104.7 20.15 106.85 19.65 108.25 20.9 L108.5 21.1 108.55 21.2 109.35 22.4 109.6 23.55 109.6 23.6 109.15 25.0 108.95 25.2 108.7 25.45 107.85 26.0 106.5 26.4 104.7 26.55 Q104.2 26.55 103.65 26.05 L103.15 25.5 102.55 24.35 102.5 24.05 102.55 23.15 103.05 21.85 103.05 21.8 Q103.5 21.0 104.15 20.5 M104.7 21.55 L104.55 21.65 104.5 21.75 104.35 21.95 Q104.15 22.3 104.1 23.05 L104.05 23.35 104.05 24.25 Q104.4 25.05 106.15 25.05 107.7 25.05 108.0 24.25 L108.0 23.1 108.1 22.55 108.0 22.05 Q107.8 21.5 106.9 21.4 L106.3 21.35 104.85 21.4 104.7 21.55 M105.1 23.2 L105.15 22.9 105.2 22.7 105.25 22.55 106.95 22.45 106.95 22.7 106.85 23.9 105.5 23.9 105.05 23.8 105.1 23.2 M84.0 21.05 Q84.5 20.35 85.25 20.05 L85.55 19.95 86.5 19.9 Q88.0 19.9 89.0 21.0 L89.55 21.7 Q90.0 22.35 90.05 23.05 L90.1 23.45 89.8 24.6 89.45 25.05 87.95 26.05 85.25 26.4 84.8 26.3 Q84.2 26.1 83.65 25.35 83.0 24.45 83.0 23.9 83.0 22.85 83.55 21.7 L84.0 21.05 M85.35 21.3 L85.1 21.5 84.85 21.8 Q84.6 22.25 84.6 23.25 L84.6 24.1 84.6 24.15 85.3 24.75 86.65 24.95 Q87.7 24.95 88.15 24.6 L88.5 24.15 88.5 23.0 88.5 21.95 88.35 21.65 Q87.9 21.25 86.8 21.25 L85.35 21.3 M85.55 23.7 L85.6 23.1 85.7 22.6 85.75 22.45 86.0 22.45 87.45 22.35 87.45 23.0 87.35 23.75 86.0 23.8 85.55 23.7 M94.6 20.4 L95.1 20.1 Q97.15 19.6 98.55 20.75 L98.85 21.05 99.55 21.95 100.0 23.3 100.0 23.5 99.8 24.45 99.35 25.15 Q98.65 25.9 97.4 26.25 L95.1 26.45 94.3 26.15 93.55 25.45 93.05 24.6 92.85 23.95 92.95 23.15 93.45 21.8 93.45 21.75 Q93.9 20.9 94.6 20.4 M95.25 21.35 L94.95 21.6 94.75 21.85 94.7 21.9 Q94.5 22.3 94.45 23.15 L94.45 23.3 94.45 24.2 94.75 24.6 Q95.25 25.0 96.55 25.0 L98.2 24.55 98.4 24.2 98.4 23.05 98.4 22.0 98.35 21.95 Q98.05 21.3 96.7 21.3 L95.25 21.35 M95.6 22.65 L95.65 22.5 97.35 22.4 97.3 23.2 97.25 23.8 95.9 23.85 95.45 23.75 95.5 23.2 95.5 23.15 95.6 22.65 M96.85 28.3 L96.85 28.75 96.7 29.75 95.4 29.75 94.95 29.65 95.0 29.05 95.0 28.7 95.1 28.55 95.15 28.4 96.85 28.3 M97.6 27.55 L98.6 27.25 Q99.25 27.95 99.4 28.8 L99.45 29.45 99.4 30.1 98.95 30.9 98.85 31.05 97.55 31.95 94.6 32.4 Q93.95 32.4 93.35 31.75 L93.0 31.35 92.7 30.9 92.35 29.95 92.35 29.9 92.55 28.65 92.95 27.65 Q93.15 27.2 93.5 26.85 L94.6 27.4 94.45 27.5 94.2 27.8 94.0 28.7 93.95 29.2 93.95 30.0 93.95 30.1 Q94.3 30.9 96.05 30.9 L97.6 30.55 97.9 30.1 97.9 28.95 97.9 28.75 97.9 27.9 97.6 27.55 M94.55 33.8 L94.6 33.65 96.3 33.6 96.3 34.3 96.2 35.0 94.85 35.0 94.4 34.9 94.45 34.3 94.55 33.8 M92.4 32.9 L92.65 32.55 93.65 33.15 Q93.45 33.55 93.4 34.3 L93.4 34.45 93.4 35.35 Q93.6 35.85 94.35 36.05 L95.5 36.15 96.7 36.0 97.35 35.35 97.35 34.2 97.4 33.35 98.45 33.0 98.95 34.35 98.95 34.7 Q98.95 35.4 98.55 35.95 L98.3 36.3 97.2 37.1 Q96.0 37.65 94.05 37.65 93.45 37.65 92.9 37.05 L92.5 36.6 92.15 36.1 91.85 35.15 91.9 34.4 Q92.0 33.65 92.4 32.9 M90.2 28.6 L90.3 29.35 90.2 29.9 89.75 30.85 89.65 31.0 88.85 31.65 85.4 32.3 84.65 32.1 83.85 31.3 83.75 31.15 83.6 31.0 Q83.15 30.3 83.15 29.8 L83.2 29.35 83.4 28.4 83.75 27.6 84.05 27.05 85.25 27.45 85.0 27.75 Q84.75 28.15 84.75 29.15 L84.75 30.05 Q85.1 30.85 86.85 30.85 88.35 30.85 88.7 30.1 L88.7 28.9 88.75 28.55 88.7 27.85 88.2 27.35 89.2 26.9 Q89.95 27.75 90.2 28.6 M87.15 28.25 L87.65 28.25 87.55 29.65 86.2 29.7 85.75 29.6 85.8 29.0 85.9 28.5 85.95 28.35 87.15 28.25 M101.1 32.4 L101.2 32.3 102.05 33.0 102.0 33.15 Q101.75 33.55 101.7 34.4 L101.7 34.55 101.7 35.45 102.05 35.9 103.8 36.25 Q104.95 36.25 105.4 35.8 L105.65 35.45 105.65 34.3 105.75 33.6 106.85 33.3 106.95 33.5 107.25 34.75 Q107.25 35.7 106.6 36.4 L105.75 37.05 105.55 37.15 Q104.35 37.75 102.35 37.75 101.75 37.75 101.15 37.15 L100.8 36.7 100.3 35.9 100.15 35.2 100.2 34.4 100.7 33.0 101.1 32.4 M84.05 32.9 L85.25 33.35 85.1 33.95 85.1 34.4 85.1 35.35 85.6 35.9 85.7 35.9 87.0 36.15 87.15 36.15 88.7 35.8 89.0 35.35 89.0 34.15 89.0 33.15 89.0 33.05 89.85 32.55 Q90.55 33.45 90.6 34.5 L90.6 34.65 Q90.6 35.45 90.15 36.05 L90.05 36.2 90.0 36.25 88.95 37.05 87.25 37.5 85.75 37.6 Q85.1 37.6 84.5 36.95 L84.15 36.55 83.7 35.8 83.5 35.1 83.55 34.35 84.05 32.9 M86.2 33.8 L86.3 33.65 86.5 33.65 88.0 33.55 87.85 34.95 86.5 35.0 86.05 34.9 86.15 34.3 86.2 33.8 M86.15 38.7 L86.5 38.75 86.95 41.0 86.05 41.0 86.05 39.1 86.15 38.7 M88.2 47.0 L88.5 48.3 88.45 48.3 88.1 48.2 87.55 47.8 87.55 47.75 86.95 47.0 86.8 46.75 86.7 45.8 86.65 45.65 86.5 45.3 86.35 45.0 86.35 44.9 86.3 44.95 86.05 44.8 86.05 44.75 85.95 44.85 85.9 44.85 85.0 45.35 84.7 45.6 84.65 45.6 83.6 46.1 82.1 46.9 80.95 47.3 79.7 47.45 79.5 47.45 79.55 47.35 79.55 47.25 79.6 46.9 Q80.05 46.55 80.95 46.4 L82.3 46.2 84.3 45.1 85.9 43.95 Q86.45 43.95 86.75 44.5 L86.95 45.2 88.2 47.0 M83.25 38.15 L83.4 38.55 83.15 40.5 82.95 41.05 82.15 41.05 82.05 41.0 81.95 41.05 81.7 41.0 82.1 40.65 82.0 38.45 82.1 38.4 82.15 38.05 83.25 38.15 M96.3 40.9 L92.9 40.95 92.9 38.85 93.05 38.5 93.4 38.5 95.4 38.8 96.3 38.75 96.35 39.35 96.3 40.9 M100.9 38.45 L101.4 38.45 103.15 38.9 103.1 39.85 103.3 40.45 103.5 40.9 100.95 40.9 100.9 40.85 100.95 39.75 100.8 38.8 100.9 38.45 M96.3 45.1 L96.05 45.1 95.9 45.35 94.1 46.95 93.2 47.65 93.0 47.05 93.4 46.8 94.6 45.8 Q96.05 44.45 96.95 44.45 L99.9 46.2 Q103.0 47.95 106.5 47.95 L106.85 47.35 106.9 47.35 106.9 47.3 107.0 47.15 107.6 45.7 107.75 44.6 107.85 44.15 107.85 44.25 107.9 44.7 107.85 45.9 107.85 45.95 107.85 46.05 107.85 46.15 107.8 47.3 107.75 47.8 107.55 48.2 107.6 48.25 107.5 48.35 107.25 48.6 105.25 48.8 Q103.7 48.8 100.85 47.65 L100.2 47.3 100.05 47.3 99.7 47.1 97.75 46.15 97.6 46.15 97.4 45.95 97.4 45.85 Q97.1 45.5 97.1 45.2 L96.45 45.15 96.4 45.0 96.3 45.1 M121.15 25.55 L119.55 26.15 118.0 27.0 117.45 27.2 117.05 26.65 116.5 25.95 116.55 25.9 116.8 25.95 117.45 25.75 117.55 25.65 Q118.45 25.55 119.6 24.85 L120.3 24.4 121.15 25.5 121.15 25.55 M115.45 27.0 L115.5 27.35 115.6 27.7 115.9 28.1 115.6 28.3 113.5 30.35 112.2 29.0 113.1 27.75 Q114.0 26.85 115.3 26.75 L115.4 26.85 115.4 26.9 115.45 27.0 M110.85 34.35 L110.6 33.75 110.15 33.45 110.65 32.25 Q111.25 31.05 111.75 30.5 L111.85 30.55 112.7 31.35 Q111.55 32.9 111.25 33.6 L111.2 33.75 111.1 34.0 111.1 34.05 110.85 34.35 M106.55 27.7 L107.65 27.5 107.9 27.9 108.25 28.6 108.35 29.5 108.35 29.95 108.0 30.75 107.75 31.15 106.0 32.15 103.5 32.45 Q102.7 32.45 102.0 31.55 L101.9 31.45 101.45 30.65 101.3 30.15 101.25 29.95 101.45 28.8 101.85 27.75 Q102.2 27.05 102.7 26.6 103.2 27.05 103.9 27.35 L103.6 27.35 103.35 27.6 103.1 27.9 102.85 28.8 102.85 29.3 102.85 30.2 Q103.15 31.0 104.95 31.0 L106.2 30.8 106.8 30.2 106.8 29.05 106.85 28.7 106.8 28.0 106.55 27.7 M102.85 33.9 L102.9 33.75 104.6 33.65 104.6 34.25 104.55 34.45 104.5 35.05 103.15 35.1 102.7 35.0 102.75 34.4 102.85 33.9 M105.75 28.4 L105.75 28.75 105.6 29.8 104.3 29.85 103.85 29.75 103.9 29.15 103.9 28.8 104.0 28.65 104.05 28.5 105.75 28.4 M109.05 52.1 L110.25 51.65 110.5 52.7 110.6 53.15 109.7 53.4 108.3 53.9 106.7 53.9 106.65 53.75 106.65 53.6 106.65 52.7 106.65 52.55 109.05 52.1 M103.25 54.45 L101.85 54.45 101.85 52.85 102.3 52.85 105.45 52.65 105.45 53.75 103.25 54.45 M94.8 52.85 L95.9 52.85 95.9 54.7 95.35 54.7 94.8 52.85 M97.1 54.45 L97.1 52.85 97.4 52.85 97.7 52.85 100.35 52.85 100.65 52.85 100.7 54.7 99.35 54.65 97.1 54.45 M87.9 52.75 L89.45 52.75 89.85 54.55 87.85 54.5 87.85 53.0 87.9 52.75 M86.35 54.3 L82.7 54.2 82.95 52.55 85.8 52.7 86.65 52.7 86.55 53.3 86.45 54.0 86.35 54.15 86.35 54.3 M81.05 52.0 L81.6 52.35 81.5 52.8 81.45 53.0 81.4 53.45 81.35 53.45 77.7 53.0 78.2 51.8 78.35 51.5 78.5 51.65 81.05 52.0" fill="#8e6c24" fill-rule="evenodd" stroke="none"/>
    <path d="M97.8 -13.25 L97.85 -13.3 100.65 -13.3 98.75 -13.3 97.8 -13.25 M84.65 -0.25 L84.65 -0.65 85.45 -3.3 86.0 -3.8 84.7 -0.7 84.65 -0.25 M99.9 66.25 L99.85 66.25 99.85 66.0 99.9 66.25" fill="#5b6171" fill-rule="evenodd" stroke="none"/>
    <path d="M100.65 -13.3 L101.25 -13.25 102.1 -13.0 103.95 -12.85 Q109.45 -11.8 112.35 -8.35 L113.2 -6.65 Q113.7 -5.6 114.25 -5.1 L114.75 -3.6 113.85 -3.8 112.55 -3.75 112.05 -3.7 Q109.8 -9.95 102.45 -11.1 99.7 -11.5 97.3 -11.0 L97.8 -13.25 98.75 -13.3 100.65 -13.3 M85.2 8.9 L84.75 8.85 84.3 8.75 83.65 5.7 84.05 3.6 84.3 2.7 84.3 2.55 84.3 2.45 84.35 2.4 84.35 2.25 84.6 0.25 84.6 0.0 84.65 -0.25 84.7 -0.7 86.0 -3.8 85.45 -3.3 86.8 -6.25 88.95 -5.95 89.0 -5.95 89.05 -6.0 89.8 -6.35 Q87.3 -3.3 86.35 1.2 L85.8 4.85 85.25 8.45 85.2 8.9 M112.5 -2.2 L112.45 -2.6 113.75 -2.35 115.1 -2.25 115.45 0.6 112.95 0.4 112.65 -1.7 112.5 -2.2 M93.7 -1.15 L93.5 -1.1 93.55 -1.2 93.7 -1.15 M113.5 2.15 L113.55 2.2 113.5 2.2 113.5 2.15 M111.75 1.9 L111.65 2.05 111.35 2.05 108.6 1.85 107.65 1.8 106.1 1.65 103.85 1.3 107.7 1.65 108.65 1.8 111.75 1.9 M93.85 2.4 L93.85 2.2 94.65 2.45 93.85 2.4 M111.9 24.15 L111.7 25.0 110.05 28.15 109.9 28.05 109.45 28.15 109.4 28.45 109.4 28.2 108.8 27.0 109.75 26.1 110.5 24.65 111.9 24.15 M91.2 32.5 L91.4 32.5 91.3 32.7 91.2 32.5 M99.45 32.4 L99.85 32.4 99.65 32.75 99.45 32.4 M86.35 45.0 L86.3 44.95 86.35 44.9 86.35 45.0 M84.65 45.6 L83.8 46.25 Q83.0 46.75 82.05 47.05 L82.1 46.9 83.6 46.1 84.65 45.6 M79.9 45.35 L80.05 44.6 81.15 43.05 81.75 42.25 83.0 42.3 84.55 42.35 84.45 42.75 83.75 43.15 81.75 43.65 Q80.3 44.05 80.05 44.95 L80.2 45.25 80.5 45.35 79.9 45.35 M81.2 45.35 L83.15 45.0 82.9 45.35 81.2 45.35 M96.45 45.15 L96.3 45.1 96.4 45.0 96.45 45.15" fill="#666666" fill-rule="evenodd" stroke="none"/>
    <path d="M112.05 -3.7 L112.0 -3.7 98.75 -5.0 96.0 -5.8 93.95 -5.95 93.5 -5.9 93.4 -5.8 93.25 -5.7 93.25 -5.5 93.25 -5.45 93.15 -5.0 93.2 -5.0 93.25 -4.65 93.25 -4.1 92.8 -3.4 92.35 -2.55 91.9 -1.2 91.4 0.15 91.5 0.45 90.3 2.85 Q89.15 5.3 88.7 6.7 L88.5 7.6 88.25 8.25 88.1 8.45 Q87.7 8.85 87.6 9.2 L87.6 9.45 85.85 9.05 85.2 8.9 85.25 8.45 85.8 4.85 86.35 1.2 Q87.3 -3.3 89.8 -6.35 L91.55 -7.6 Q92.8 -8.5 93.3 -8.95 L93.4 -8.4 Q93.45 -8.35 93.8 -8.25 L95.8 -8.5 96.95 -9.3 Q97.25 -9.3 97.15 -9.45 L97.3 -11.0 Q99.7 -11.5 102.45 -11.1 109.8 -9.95 112.05 -3.7 M93.55 -1.2 L93.55 -1.25 94.45 -3.7 94.45 -3.9 94.55 -4.05 94.75 -4.7 97.05 -4.2 99.75 -3.55 101.6 -3.55 103.4 -3.55 109.6 -2.5 112.5 -2.2 112.65 -1.7 112.95 0.4 111.9 0.4 108.15 0.35 105.7 0.4 99.5 -0.25 98.5 -0.55 97.2 -1.0 93.7 -1.15 93.55 -1.2 M101.55 4.85 L101.45 5.3 101.15 6.8 101.15 7.05 100.95 8.4 100.9 10.4 Q101.15 11.8 102.2 12.4 103.1 12.95 104.7 12.8 L105.0 12.75 105.05 13.05 104.35 17.9 104.35 17.95 96.1 16.7 95.45 15.65 95.2 14.25 95.15 13.35 95.6 9.75 96.0 7.35 96.05 6.7 96.15 6.05 96.25 4.25 96.3 4.25 96.45 3.95 101.55 4.85 M102.75 20.4 Q102.15 21.1 101.85 21.9 L100.85 21.95 100.15 20.55 99.85 20.3 102.75 20.4 M86.2 18.3 L92.6 18.8 93.45 18.7 93.65 19.5 93.8 19.75 Q92.7 20.6 92.25 21.8 L90.9 21.75 90.25 20.45 88.0 18.85 Q87.1 18.3 86.2 18.45 L86.2 18.3 M81.95 23.65 L81.95 23.9 Q81.95 24.9 82.65 25.85 L80.6 25.6 79.5 25.2 77.9 24.15 76.9 23.35 75.9 22.7 73.7 21.25 73.3 20.9 72.65 19.75 72.6 19.65 73.85 19.2 75.3 18.75 78.95 17.75 79.85 18.25 80.45 18.7 81.95 23.65 M99.7 26.55 L100.15 26.05 100.3 25.8 102.0 25.75 102.05 25.85 Q100.95 26.85 100.5 28.15 L100.5 28.1 99.7 26.55 M92.6 26.05 L92.7 26.15 Q91.75 27.2 91.45 28.6 L91.3 28.6 91.3 28.05 90.45 26.4 90.15 26.15 90.25 26.0 90.3 25.95 92.55 25.95 92.6 26.05 M82.6 27.6 L81.9 27.5 82.65 27.45 82.6 27.6 M71.0 20.95 L70.55 20.6 Q70.7 20.45 70.85 20.4 L71.0 20.95 M85.8 43.45 Q86.25 43.15 86.45 43.15 86.85 43.15 86.85 43.3 L86.85 43.35 86.35 43.3 85.8 43.45 M84.55 42.35 L85.05 42.4 84.45 42.75 84.55 42.35 M98.3 43.0 L97.6 42.25 105.85 42.1 Q105.6 42.55 105.6 43.4 L105.6 45.0 105.6 45.85 103.55 45.05 Q101.75 44.3 101.25 43.9 L99.95 43.5 98.3 43.0 M91.6 42.3 L95.45 42.25 93.75 43.8 92.4 45.0 91.6 42.3 M92.85 46.55 L92.8 46.25 94.0 45.25 96.3 43.3 96.4 43.35 93.75 45.85 92.85 46.55 M106.3 47.25 L106.55 46.7 106.9 47.3 106.9 47.35 106.85 47.35 106.65 47.3 106.3 47.25 M99.85 66.25 L98.0 66.2 97.15 66.2 97.15 63.0 97.3 62.9 97.4 63.25 97.4 62.85 97.5 62.85 97.4 62.25 97.3 62.0 97.25 61.5 97.15 61.2 97.15 59.55 102.05 59.0 102.2 60.25 102.55 62.25 102.6 63.75 Q101.35 63.55 100.85 64.35 L99.85 66.0 99.85 66.25 M102.35 65.15 L102.85 66.3 100.75 66.25 102.35 65.15 M79.9 65.75 Q77.95 63.7 78.35 61.35 L78.5 60.2 Q80.1 60.45 83.2 59.35 L89.1 59.65 89.9 60.1 88.75 60.9 87.4 61.9 86.0 62.85 84.9 63.6 Q84.0 64.0 83.75 64.3 L83.4 64.7 Q82.65 64.05 81.55 64.4 L80.2 65.25 79.95 65.7 79.9 65.75 M80.05 65.75 L81.55 65.95 82.55 65.75 82.45 67.1 82.3 67.4 80.05 65.85 80.05 65.75" fill="#333333" fill-rule="evenodd" stroke="none"/>
    <path d="M131.3 32.1 L131.6 33.45 131.85 34.85 Q131.85 35.9 131.25 37.0 130.5 38.45 129.2 38.45 124.1 38.45 120.35 37.65 L116.65 36.6 Q114.8 36.15 113.7 35.05 L112.7 34.05 112.9 33.75 114.6 31.5 Q115.3 30.45 117.4 28.9 L119.15 27.5 Q120.2 27.0 121.4 26.75 L122.15 26.6 Q124.0 28.35 128.15 29.45 131.3 30.3 131.3 32.1 M112.35 11.15 L112.2 11.95 112.05 12.5 111.65 13.8 111.55 14.0 110.55 15.7 Q109.8 16.5 108.85 16.85 L107.95 17.05 106.6 17.1 106.3 17.05 106.15 16.85 105.9 16.75 105.95 16.35 105.9 15.95 105.9 15.45 106.15 13.95 106.3 12.3 106.3 11.9 104.3 11.35 104.05 11.3 104.95 11.05 Q108.15 10.55 112.35 11.15 M66.0 37.6 L66.95 38.15 Q69.85 39.8 73.35 40.55 L74.75 43.9 76.15 47.6 75.65 48.5 Q74.6 49.35 71.85 49.35 69.05 49.35 68.35 47.95 67.6 45.35 66.5 42.7 L66.0 41.65 65.45 40.25 65.15 39.65 64.2 37.6 63.6 35.75 65.75 37.45 66.0 37.6" fill="#aa8a71" fill-rule="evenodd" stroke="none"/>
    <path d="M116.7 6.1 L116.6 5.95 116.8 6.1 116.7 6.1 M115.45 2.2 L115.45 1.9 115.5 1.9 115.45 2.2 M113.65 1.9 L113.5 2.15 113.15 1.9 113.65 1.9 M82.05 47.05 L81.45 47.2 80.95 47.3 82.1 46.9 82.05 47.05 M79.7 47.45 L79.45 47.5 79.5 47.45 79.7 47.45 M107.75 47.8 L107.6 48.25 107.55 48.2 107.75 47.8 M107.6 48.3 L107.55 48.35 107.55 48.4 107.5 48.35 107.6 48.3 M75.25 11.9 L75.3 11.9 75.3 11.95 75.25 11.9" fill="#999999" fill-rule="evenodd" stroke="none"/>
    <path d="M106.0 6.65 L106.25 6.7 107.35 6.9 107.4 7.15 107.35 7.8 107.15 8.45 106.95 8.7 106.35 8.75 105.8 8.55 105.45 8.45 105.7 6.65 106.0 6.65" fill="#ffffff" fill-rule="evenodd" stroke="none"/>
    <path d="M107.4 18.9 L104.85 18.85 104.7 18.9 102.95 18.8 Q104.45 18.7 105.2 18.1 L106.95 18.45 Q111.45 19.15 112.75 16.2 L112.85 16.0 114.0 15.75 116.3 15.35 116.35 15.45 116.35 15.55 116.45 15.75 Q116.85 16.9 117.3 17.35 L115.9 17.3 115.6 17.35 Q115.3 17.45 115.3 17.9 L115.4 18.45 115.45 18.5 111.1 18.5 107.4 18.9 M92.9 16.55 L93.0 16.6 93.6 16.9 93.55 17.5 92.8 17.35 89.3 16.75 89.2 16.75 86.15 16.4 85.8 16.4 85.5 14.85 89.1 15.2 90.2 15.65 92.9 16.55 M107.9 57.15 L105.1 57.6 103.15 57.9 101.95 58.0 97.15 58.3 96.45 58.3 95.75 56.1 96.8 55.75 99.6 56.1 101.6 55.75 102.3 55.8 102.95 55.8 104.95 55.35 106.0 55.0 107.25 55.2 107.55 55.2 107.9 57.15 M82.0 55.5 L86.45 55.5 86.5 55.6 86.95 55.8 90.15 55.8 90.7 58.3 87.55 58.15 86.3 58.1 81.35 57.55 Q81.45 56.75 82.0 55.6 L82.0 55.5 M74.15 10.85 L73.95 11.2 73.75 11.5 Q73.65 11.9 74.0 12.25 L74.15 12.4 71.95 13.3 71.75 13.2 Q72.0 12.15 72.9 11.3 L73.45 10.85 73.55 10.85 74.15 10.85 M62.45 64.2 L62.1 62.85 Q61.55 61.0 61.55 59.3 L61.1 57.35 Q60.6 55.75 60.6 54.65 60.6 47.65 61.05 43.85 L62.35 36.3 Q62.95 38.3 65.05 42.85 L65.25 43.15 65.15 46.1 Q65.15 50.15 66.45 55.55 67.6 60.55 69.3 64.6 L64.0 64.6 62.45 64.2 M65.25 27.25 L65.3 27.05 66.3 25.2 66.45 24.85 68.1 22.4 68.35 23.45 65.25 27.25 M73.35 17.85 L76.95 16.05 Q78.05 15.5 79.35 15.1 L79.85 16.65 79.6 16.7 77.4 16.4 73.35 17.85" fill="#731c02" fill-rule="evenodd" stroke="none"/>
    <path d="M101.5 23.25 L101.45 24.05 101.45 24.4 100.9 24.45 101.0 23.35 101.0 23.25 101.5 23.25 M110.6 22.25 L110.55 22.15 112.3 21.85 112.05 22.75 112.05 23.05 110.65 22.95 110.6 22.25 M91.9 23.1 L91.85 23.95 91.9 24.6 90.95 24.6 91.15 23.3 91.15 23.05 91.9 23.1 M100.35 30.9 L100.25 30.9 100.3 30.7 100.35 30.9 M91.25 29.95 L91.3 29.95 91.55 31.0 90.95 31.0 91.25 29.95 M91.15 36.6 L91.45 37.05 90.85 37.05 91.15 36.6 M82.1 36.8 L82.15 36.25 82.3 35.8 82.55 35.8 83.0 36.9 82.3 36.85 82.25 36.85 82.1 36.8 M99.75 37.15 L99.15 37.15 99.45 36.7 99.75 37.15" fill="#221c15" fill-rule="evenodd" stroke="none"/>
    <path d="M114.7 22.8 L114.4 22.1 118.85 22.7 119.2 22.7 119.55 23.35 Q118.75 23.55 117.85 24.05 L116.75 24.65 116.5 24.45 Q116.0 24.65 115.9 25.15 L115.75 24.9 114.7 22.8 M82.2 30.55 L82.3 30.7 82.05 31.3 81.7 32.75 81.3 34.15 79.95 33.3 79.45 33.1 78.05 33.05 77.9 30.4 77.75 29.7 77.85 29.6 77.95 29.0 77.95 28.9 78.35 29.1 79.6 29.65 82.2 30.55 M77.7 35.9 L77.85 36.0 78.25 36.4 77.65 36.25 77.65 36.1 77.7 35.9 M83.95 48.05 L85.6 46.6 86.5 48.45 86.95 48.9 86.95 49.15 86.95 51.1 83.15 50.8 Q83.3 49.45 83.0 48.55 L83.95 48.05 M95.9 47.1 Q95.75 47.65 95.75 48.4 L95.9 50.9 95.9 51.45 95.85 51.45 94.4 51.45 94.35 51.45 93.6 48.9 94.15 48.45 95.9 47.1 M100.9 49.15 L101.05 49.2 101.0 49.3 100.7 50.5 100.7 51.5 100.35 51.5 97.1 51.5 97.1 47.25 Q98.05 47.6 99.65 48.5 L99.8 48.6 100.9 49.15 M121.15 25.55 L121.15 25.5 121.2 25.55 121.15 25.55 M114.2 25.65 L112.45 27.0 Q113.45 24.7 113.5 23.2 L114.6 25.45 114.2 25.65 M110.85 34.35 L111.1 34.05 111.0 34.65 110.85 34.35 M110.95 29.7 L111.05 29.8 111.55 30.3 111.3 30.1 110.65 31.1 Q109.8 32.45 109.5 33.2 L109.1 33.05 110.35 30.75 110.95 29.7 M109.5 50.3 L109.65 50.45 108.75 50.6 108.55 51.0 106.65 51.35 106.45 50.1 Q108.25 49.85 108.85 48.85 L109.5 50.3 M105.35 50.9 L105.35 51.4 102.2 51.5 101.9 51.5 101.85 50.45 101.55 49.45 Q103.4 50.15 105.3 50.15 L105.45 50.15 105.35 50.9 M88.8 49.75 L89.1 51.25 88.25 51.2 88.15 51.2 88.2 50.3 88.2 49.55 88.8 49.75 M86.35 54.3 L86.35 54.15 86.45 54.0 86.4 54.3 86.35 54.3 M81.8 50.65 L81.35 50.6 78.7 50.35 78.6 50.4 Q78.7 49.45 79.1 48.8 L80.5 48.95 81.75 48.85 81.8 50.65 M69.1 24.45 L69.35 24.65 70.2 25.2 71.3 25.75 Q70.65 26.55 69.3 28.95 L69.1 29.35 68.3 28.65 67.75 28.2 66.7 27.65 69.1 24.45 M72.35 26.2 L73.75 26.85 74.35 27.15 75.45 27.7 75.85 27.75 75.95 27.95 76.4 28.15 76.65 28.3 76.6 28.4 76.5 28.4 76.0 28.55 76.0 28.6 75.65 29.75 75.45 30.1 74.95 31.45 74.25 32.85 72.45 31.5 70.1 30.25 70.65 29.3 72.3 26.3 72.35 26.2 M65.3 30.35 L65.1 30.15 64.85 30.0 65.0 29.85 65.3 30.35" fill="#e5e5e5" fill-rule="evenodd" stroke="none"/>
    <path d="M72.35 26.2 L72.3 26.3 72.3 26.15 72.35 26.2 M76.5 31.9 L76.25 31.8 76.55 31.2 76.5 31.9 M67.05 48.3 Q68.15 50.7 71.85 50.7 74.8 50.7 76.25 49.65 77.35 48.9 77.35 47.75 77.35 47.15 76.15 43.8 L74.85 40.85 76.85 41.05 76.9 41.1 78.4 41.05 79.55 41.15 80.05 41.15 80.05 41.65 80.1 41.7 Q79.55 42.4 79.0 43.75 L78.5 45.75 78.3 47.25 77.75 48.05 Q77.5 48.75 77.4 49.9 L76.7 51.75 Q76.2 53.0 76.2 53.45 L76.2 53.85 75.6 54.95 Q71.1 55.1 69.5 56.1 L68.5 57.05 68.2 57.5 67.85 56.0 66.9 51.0 Q66.35 47.9 66.35 46.0 L66.35 45.85 67.05 48.3" fill="#5a1501" fill-rule="evenodd" stroke="none"/>
    <path d="M76.5 31.9 L76.45 36.25 76.65 36.85 Q77.05 37.35 78.5 37.75 L79.85 38.15 80.85 38.55 80.95 39.8 77.75 39.8 71.3 38.5 Q68.4 37.8 67.3 37.15 L67.1 37.05 65.95 36.3 64.7 35.45 Q63.25 34.25 63.25 33.25 63.25 32.45 64.35 30.75 L65.05 31.75 Q65.9 32.85 66.6 33.2 L67.2 33.4 67.7 33.3 67.75 33.3 67.85 33.45 69.6 34.9 Q71.75 36.4 73.15 36.4 73.6 36.4 73.75 36.1 74.45 35.5 75.9 32.45 L76.25 31.8 76.5 31.9" fill="#780000" fill-rule="evenodd" stroke="none"/>
  </g>
</svg>
