<?xml version="1.0" encoding="UTF-8" standalone="no"?>
<svg xmlns:ffdec="https://www.free-decompiler.com/flash" xmlns:xlink="http://www.w3.org/1999/xlink" ffdec:objectType="shape" height="97.5px" width="367.65px" xmlns="http://www.w3.org/2000/svg">
  <g transform="matrix(1.0, 0.0, 0.0, 1.0, -217.45, -114.0)">
    <path d="M218.45 146.25 L493.0 146.25" fill="none" stroke="#473612" stroke-linecap="round" stroke-linejoin="round" stroke-width="2.0"/>
    <path d="M535.35 124.3 Q551.55 124.3 563.1 135.5 574.55 146.8 574.55 162.75 574.55 178.7 563.1 189.95 559.95 192.95 556.5 195.25 547.1 201.2 535.35 201.2 519.1 201.2 507.6 189.95 496.1 178.7 496.1 162.75 496.1 146.8 507.6 135.5 511.6 131.6 516.15 129.1 524.75 124.3 535.35 124.3" fill="#081628" fill-rule="evenodd" stroke="none"/>
    <path d="M535.35 122.3 Q552.4 122.3 564.55 134.1 576.65 146.0 576.65 162.8 576.65 179.6 564.55 191.4 561.25 194.6 557.65 197.0 547.75 203.25 535.35 203.25 518.25 203.25 506.15 191.4 494.05 179.6 494.05 162.8 494.05 146.0 506.15 134.1 510.35 130.0 515.15 127.35 524.2 122.3 535.35 122.3 M535.35 124.3 Q524.75 124.3 516.15 129.1 511.6 131.6 507.6 135.5 496.1 146.8 496.1 162.75 496.1 178.7 507.6 189.95 519.1 201.2 535.35 201.2 547.1 201.2 556.5 195.25 559.95 192.95 563.1 189.95 574.55 178.7 574.55 162.75 574.55 146.8 563.1 135.5 551.55 124.3 535.35 124.3 M500.2 128.25 Q505.25 123.3 511.0 120.1 521.9 114.0 535.35 114.0 555.95 114.0 570.55 128.25 585.1 142.55 585.1 162.75 585.1 182.95 570.55 197.2 566.6 201.1 562.15 203.9 550.35 211.5 535.35 211.5 514.75 211.5 500.2 197.2 485.6 182.95 485.6 162.75 485.6 142.55 500.2 128.25 M501.6 129.6 Q487.55 143.35 487.55 162.75 487.55 182.15 501.6 195.8 515.55 209.55 535.35 209.55 549.75 209.55 561.05 202.25 565.35 199.55 569.1 195.8 583.1 182.15 583.1 162.75 583.1 143.35 569.1 129.6 555.1 115.95 535.35 115.95 522.4 115.95 511.95 121.8 506.45 124.85 501.6 129.6" fill="#34270e" fill-rule="evenodd" stroke="none"/>
    <path d="M535.35 119.25 Q553.7 119.25 566.75 131.95 579.75 144.75 579.75 162.8 579.75 180.85 566.75 193.55 563.2 197.0 559.3 199.55 548.7 206.3 535.35 206.3 516.95 206.3 503.95 193.55 490.95 180.85 490.95 162.8 490.95 144.75 503.95 131.95 508.45 127.55 513.6 124.7 523.35 119.25 535.35 119.25 M535.35 122.3 Q524.2 122.3 515.15 127.35 510.35 130.0 506.15 134.1 494.05 146.0 494.05 162.8 494.05 179.6 506.15 191.4 518.25 203.25 535.35 203.25 547.75 203.25 557.65 197.0 561.25 194.6 564.55 191.4 576.65 179.6 576.65 162.8 576.65 146.0 564.55 134.1 552.4 122.3 535.35 122.3" fill="#6a511b" fill-rule="evenodd" stroke="none"/>
    <path d="M535.35 119.25 Q523.35 119.25 513.6 124.7 508.45 127.55 503.95 131.95 490.95 144.75 490.95 162.8 490.95 180.85 503.95 193.55 516.95 206.3 535.35 206.3 548.7 206.3 559.3 199.55 563.2 197.0 566.75 193.55 579.75 180.85 579.75 162.8 579.75 144.75 566.75 131.95 553.7 119.25 535.35 119.25 M502.65 130.65 Q507.35 126.05 512.7 123.1 522.85 117.4 535.35 117.4 554.5 117.4 568.1 130.65 581.6 143.95 581.6 162.75 581.6 181.55 568.1 194.8 564.4 198.4 560.3 201.05 549.3 208.1 535.35 208.1 516.2 208.1 502.65 194.8 489.1 181.55 489.1 162.75 489.1 143.95 502.65 130.65" fill="#8e6c24" fill-rule="evenodd" stroke="none"/>
    <path d="M501.6 129.6 Q506.45 124.85 511.95 121.8 522.4 115.95 535.35 115.95 555.1 115.95 569.1 129.6 583.1 143.35 583.1 162.75 583.1 182.15 569.1 195.8 565.35 199.55 561.05 202.25 549.75 209.55 535.35 209.55 515.55 209.55 501.6 195.8 487.55 182.15 487.55 162.75 487.55 143.35 501.6 129.6 M502.65 130.65 Q489.1 143.95 489.1 162.75 489.1 181.55 502.65 194.8 516.2 208.1 535.35 208.1 549.3 208.1 560.3 201.05 564.4 198.4 568.1 194.8 581.6 181.55 581.6 162.75 581.6 143.95 568.1 130.65 554.5 117.4 535.35 117.4 522.85 117.4 512.7 123.1 507.35 126.05 502.65 130.65" fill="#cd9e3f" fill-rule="evenodd" stroke="none"/>
  </g>
</svg>
