<?xml version="1.0" encoding="UTF-8" standalone="no"?>
<svg xmlns:ffdec="https://www.free-decompiler.com/flash" xmlns:xlink="http://www.w3.org/1999/xlink" ffdec:objectType="shape" height="76.65px" width="76.65px" xmlns="http://www.w3.org/2000/svg">
  <g transform="matrix(1.0, 0.0, 0.0, 1.0, -497.3, -124.15)">
    <path d="M535.65 124.15 Q551.5 124.15 562.75 135.4 573.95 146.6 573.95 162.5 573.95 177.05 564.5 187.75 L562.75 189.6 Q551.5 200.8 535.65 200.8 525.85 200.8 517.85 196.55 L516.85 196.0 512.5 193.1 508.55 189.6 Q497.75 178.8 497.3 163.75 L497.3 163.55 497.3 162.5 497.4 159.55 497.55 157.6 498.15 154.05 Q500.15 144.85 506.55 137.55 L508.55 135.4 510.4 133.65 511.0 133.15 511.85 132.45 Q522.05 124.15 535.65 124.15" fill="#00ff00" fill-rule="evenodd" stroke="none"/>
  </g>
</svg>
