<?xml version="1.0" encoding="UTF-8" standalone="no"?>
<svg xmlns:ffdec="https://www.free-decompiler.com/flash" xmlns:xlink="http://www.w3.org/1999/xlink" ffdec:objectType="shape" height="401.95px" width="701.95px" xmlns="http://www.w3.org/2000/svg">
  <g transform="matrix(1.0, 0.0, 0.0, 1.0, 1.0, 1.0)">
    <path d="M700.95 400.95 L-1.0 400.95 -1.0 -1.0 700.95 -1.0 700.95 400.95" fill="#333333" fill-rule="evenodd" stroke="none"/>
    <path d="M661.6 35.0 L661.55 35.0 664.15 37.7 664.45 38.0 665.25 38.7 665.3 38.75 666.35 39.55 666.35 39.7 666.35 39.85 665.45 40.4 663.0 42.25 662.05 43.05 661.55 43.75 661.35 44.55 661.4 45.65 661.4 84.0 655.45 84.0 655.45 62.0 655.45 56.0 655.5 46.25 655.55 45.65 655.55 45.0 655.35 44.1 654.9 43.45 654.6 43.2 654.0 42.7 652.8 41.55 652.7 41.45 651.95 40.7 651.65 40.4 651.5 40.3 652.2 39.7 652.85 38.7 Q653.0 38.1 652.8 37.5 L652.1 36.55 Q651.6 36.2 651.0 36.15 L649.2 36.1 647.85 36.0 647.65 36.0 640.9 36.15 605.95 36.15 605.95 31.4 640.85 31.4 654.05 31.65 657.2 31.75 657.95 32.4 658.1 32.5 658.3 32.6 658.55 32.75 658.95 32.9 661.6 35.0 M655.45 317.0 L661.4 317.0 661.4 357.05 661.65 358.0 662.3 358.75 662.55 358.9 662.6 358.95 665.0 360.7 664.95 360.7 Q665.55 361.15 665.85 361.15 L665.85 361.45 Q665.55 361.55 664.85 362.2 L664.75 362.25 663.95 362.95 663.65 363.2 661.1 365.8 658.5 367.85 657.55 368.55 654.4 368.6 641.15 368.75 600.95 368.8 600.95 365.6 641.15 365.6 648.0 365.7 649.5 365.65 651.4 365.65 Q652.25 365.65 652.85 365.1 653.4 364.5 653.4 363.65 653.4 362.8 652.85 362.25 L652.25 361.7 651.05 360.75 651.15 360.7 651.45 360.4 652.2 359.65 652.3 359.6 653.65 358.3 653.7 358.3 654.95 357.15 Q655.5 356.5 655.5 355.7 L655.4 329.0 655.4 324.15 655.4 322.0 655.45 322.0 655.45 317.0 M528.3 120.6 L528.55 120.75 528.95 120.9 Q529.75 121.25 531.6 123.0 L531.55 123.0 534.15 125.7 534.45 126.0 535.25 126.7 535.3 126.75 536.35 127.55 536.35 127.7 536.35 127.85 Q536.05 127.85 535.45 128.4 L533.0 130.25 532.05 131.05 531.55 131.75 531.35 132.55 531.4 133.65 531.4 247.05 531.65 248.0 532.3 248.75 532.55 248.9 532.6 248.95 535.0 250.7 534.95 250.7 Q535.55 251.15 535.85 251.15 L535.85 251.45 534.85 252.2 534.75 252.25 533.95 252.95 533.65 253.2 531.1 255.8 Q529.3 257.45 528.5 257.85 L527.55 258.55 524.4 258.6 511.15 258.75 373.65 258.8 371.95 258.8 343.95 258.8 261.55 258.8 254.95 258.8 233.95 258.8 204.2 258.75 202.4 258.7 199.45 258.7 198.85 258.8 179.3 258.8 176.6 258.8 170.75 258.8 168.95 258.75 168.9 258.75 168.85 258.7 168.2 258.25 167.7 258.05 Q166.9 257.7 165.15 256.05 L165.1 256.05 162.55 253.45 162.3 253.2 161.45 252.5 161.4 252.45 160.35 251.7 160.35 251.4 161.25 250.95 161.2 250.95 163.6 249.2 163.65 249.15 165.15 248.05 165.7 247.35 165.9 246.45 165.8 219.0 165.8 214.15 165.8 204.0 165.85 144.0 165.9 133.1 Q166.05 132.5 165.85 132.0 L165.25 131.1 162.9 129.2 160.5 127.35 Q159.85 126.8 159.55 126.8 L159.55 126.65 159.55 126.5 160.6 125.7 160.65 125.65 161.5 124.95 161.75 124.65 164.35 121.95 166.95 119.85 167.4 119.7 167.6 119.55 168.05 119.25 168.55 119.3 169.15 119.2 169.55 119.15 169.75 119.25 170.95 119.35 176.85 119.35 179.6 119.35 199.1 119.35 199.7 119.45 202.6 119.45 204.3 119.45 233.95 119.4 254.95 119.4 261.55 119.4 343.95 119.35 371.95 119.35 373.65 119.35 510.85 119.4 524.05 119.65 527.2 119.75 527.95 120.4 528.1 120.5 528.3 120.6 M522.85 126.7 L522.8 125.5 Q522.6 124.9 522.1 124.55 521.6 124.2 521.0 124.15 L519.2 124.1 517.85 124.0 517.65 124.0 510.9 124.15 201.75 124.15 197.95 124.1 197.5 124.1 196.15 124.1 196.1 124.1 186.2 124.15 176.2 124.1 Q175.6 124.1 175.1 124.45 174.55 124.75 174.3 125.35 174.05 125.9 174.2 126.5 L174.5 127.2 174.3 127.35 Q174.1 127.45 173.95 127.65 L173.2 128.4 173.1 128.5 171.85 129.7 170.85 130.65 Q170.3 131.25 170.3 132.0 L170.3 245.5 Q170.3 246.3 170.85 246.85 L172.6 248.6 173.95 249.85 174.0 249.9 174.75 250.65 175.1 250.95 175.2 251.0 174.15 251.8 Q173.9 251.95 173.65 252.25 173.05 252.8 173.05 253.65 173.05 254.5 173.65 255.1 174.2 255.65 175.05 255.65 L175.15 255.65 175.2 255.65 185.95 255.6 195.8 255.6 197.25 255.65 197.3 255.65 197.95 255.65 201.45 255.6 511.15 255.6 518.0 255.7 519.5 255.65 521.4 255.65 Q522.25 255.65 522.85 255.1 523.4 254.5 523.4 253.65 523.4 252.8 522.85 252.25 L522.25 251.7 521.05 250.75 521.15 250.7 521.45 250.4 522.2 249.65 522.3 249.6 523.65 248.3 523.7 248.3 524.95 247.15 Q525.5 246.5 525.5 245.7 L525.4 219.0 525.4 214.15 525.4 204.0 525.45 144.0 525.5 134.25 525.55 133.65 525.55 133.0 525.35 132.1 524.9 131.45 524.6 131.2 524.0 130.7 522.8 129.55 522.7 129.45 521.95 128.7 521.65 128.4 521.5 128.3 522.2 127.7 522.85 126.7 M35.85 315.0 L40.3 315.0 40.3 355.5 Q40.3 356.3 40.85 356.85 L42.6 358.6 43.95 359.85 44.0 359.9 44.75 360.65 45.1 360.95 45.2 361.0 44.15 361.8 43.65 362.25 Q43.05 362.8 43.05 363.65 43.05 364.5 43.65 365.1 44.2 365.65 45.05 365.65 L45.15 365.65 45.2 365.65 55.95 365.6 65.8 365.6 67.25 365.65 67.3 365.65 71.45 365.6 93.0 365.6 93.0 368.8 74.2 368.75 72.4 368.7 69.45 368.7 68.85 368.8 49.3 368.8 46.6 368.8 40.75 368.8 38.95 368.75 38.9 368.75 38.85 368.7 38.2 368.25 37.7 368.05 35.15 366.05 35.1 366.05 32.55 363.45 32.3 363.2 31.45 362.5 31.4 362.45 30.35 361.7 30.35 361.4 31.25 360.95 31.2 360.95 33.6 359.2 33.65 359.15 Q34.45 358.55 35.15 358.05 L35.7 357.35 35.9 356.45 35.8 329.0 35.8 324.15 35.8 322.0 35.85 322.0 35.85 315.0 M94.0 31.4 L94.0 36.15 71.75 36.15 67.5 36.1 66.15 36.1 66.1 36.1 56.2 36.15 46.2 36.1 Q45.6 36.1 45.1 36.45 44.55 36.75 44.3 37.35 44.05 37.9 44.2 38.5 L44.5 39.2 44.3 39.35 43.95 39.65 43.2 40.4 43.1 40.5 41.85 41.7 40.85 42.65 Q40.3 43.25 40.3 44.0 L40.3 82.0 35.85 82.0 35.85 62.0 35.85 56.0 35.9 45.1 Q36.05 44.5 35.85 44.0 L35.25 43.1 32.9 41.2 30.5 39.35 Q29.85 38.8 29.55 38.8 L29.55 38.65 29.55 38.5 30.6 37.7 30.65 37.65 31.5 36.95 31.75 36.65 34.35 33.95 Q36.15 32.2 36.95 31.85 L37.4 31.7 37.6 31.55 38.05 31.25 38.55 31.3 39.15 31.2 39.55 31.15 39.75 31.25 40.95 31.35 46.85 31.35 49.6 31.35 69.1 31.35 69.7 31.45 72.6 31.45 74.3 31.45 94.0 31.4" fill="#ffffff" fill-rule="evenodd" stroke="none"/>
  </g>
</svg>
