<?xml version="1.0" encoding="UTF-8" standalone="no"?>
<svg xmlns:ffdec="https://www.free-decompiler.com/flash" xmlns:xlink="http://www.w3.org/1999/xlink" ffdec:objectType="shape" height="66.5px" width="80.5px" xmlns="http://www.w3.org/2000/svg">
  <g transform="matrix(1.0, 0.0, 0.0, 1.0, 29.55, 23.5)">
    <path d="M-3.05 -20.95 L-3.05 -21.1 -3.0 -21.1 -3.05 -20.95" fill="#5b6171" fill-rule="evenodd" stroke="none"/>
    <path d="M18.85 -22.5 L31.05 -22.5 31.2 -22.95 Q31.9 -22.9 32.45 -22.5 L33.0 -22.5 33.25 -22.35 Q33.45 -22.25 33.45 -21.5 L33.45 -21.4 Q34.65 -19.5 35.15 -15.3 37.8 -12.9 42.3 -9.65 44.55 -7.7 45.6 -5.55 47.9 -4.05 49.4 -0.6 50.95 2.8 50.95 6.15 50.95 10.0 50.5 10.65 49.6 11.9 43.45 15.0 L42.7 14.75 Q41.25 16.5 38.95 16.5 32.25 16.5 30.7 12.1 L30.65 11.9 Q28.85 11.35 26.25 8.75 L25.55 8.0 25.2 8.15 24.05 8.4 23.95 9.0 Q23.45 13.5 23.45 16.5 L23.15 16.7 23.25 17.0 Q24.25 18.05 25.85 20.55 29.7 26.5 31.95 32.0 L31.85 32.2 31.95 33.0 31.95 33.5 32.3 33.95 33.9 36.3 33.9 39.05 33.9 39.5 Q33.9 40.6 27.9 41.5 L-6.35 43.0 -12.6 42.6 -24.3 42.0 -24.45 41.85 -24.6 40.9 Q-24.6 40.5 -23.9 40.3 L-24.05 39.8 -24.1 38.05 Q-24.1 35.8 -23.9 35.15 -23.75 34.55 -23.4 34.25 L-23.45 34.0 -23.8 34.0 -23.95 33.75 -24.1 32.75 -23.4 29.35 -22.6 24.75 -22.15 22.75 -21.6 20.55 -21.8 18.7 -21.55 17.8 -21.4 17.6 Q-22.3 16.6 -22.55 13.4 L-22.55 8.65 -22.7 2.4 -28.0 3.0 -28.05 3.0 -28.75 3.0 -28.9 2.75 -29.05 1.75 -29.0 0.95 -28.9 0.8 -29.4 -2.1 -29.55 -7.45 Q-29.55 -14.25 -29.0 -16.95 -27.7 -23.05 -23.75 -22.0 L-22.8 -22.2 -22.75 -22.25 Q-21.75 -22.8 -18.05 -22.75 L-15.65 -22.95 0.75 -23.0 1.45 -23.5 2.25 -21.95 7.15 -21.9 13.95 -21.5 15.95 -21.35 Q16.0 -22.15 16.25 -22.25 L18.85 -22.5 M32.8 -17.25 L32.75 -17.4 31.95 -19.65 31.65 -20.45 26.15 -20.35 19.7 -19.95 Q20.05 -19.65 19.55 -19.55 L19.8 -18.35 19.25 -18.45 19.55 -17.25 19.7 -16.65 19.8 -16.1 Q20.3 -13.7 20.95 -12.7 L20.95 -11.45 20.95 -9.0 20.95 -5.05 20.95 -3.25 20.9 -3.3 20.9 -3.0 20.9 -1.5 27.55 -1.5 27.4 -2.2 27.4 -3.0 27.4 -5.1 27.4 -5.45 Q27.95 -6.0 29.4 -5.8 29.95 -6.3 31.25 -6.9 L32.95 -7.65 32.95 -9.4 32.95 -11.5 32.95 -15.0 32.95 -16.25 32.9 -16.75 32.8 -17.1 32.8 -17.25 M18.3 -11.9 L18.15 -12.7 18.15 -12.8 18.05 -13.15 17.9 -14.1 Q17.45 -16.7 17.45 -17.95 L17.6 -18.75 3.3 -19.5 4.85 -15.05 5.25 -13.8 5.75 -12.05 5.95 -11.4 7.1 -7.25 7.45 -6.0 7.45 -5.5 7.45 -4.4 7.65 -3.45 7.9 -1.5 7.95 -1.5 8.2 -1.35 Q8.4 -1.25 8.4 -0.5 L8.25 0.2 Q8.05 0.2 7.95 0.5 L5.65 0.45 0.5 1.1 -2.1 2.0 -2.85 1.85 -3.05 1.5 -3.9 1.05 -4.65 0.25 -5.4 -1.0 -5.45 -1.0 -5.8 -1.7 -6.75 -4.2 -12.2 -3.6 -12.6 -3.5 -12.75 -3.55 -14.7 -3.5 -14.8 -3.45 -15.95 -2.7 -15.95 -3.0 -16.8 -3.0 -19.05 -3.2 -20.0 -0.85 -20.2 -0.35 -20.2 -0.25 -20.2 -0.2 -20.25 1.5 -20.35 4.6 -20.45 4.9 -20.6 5.9 -20.4 6.7 -20.45 6.7 -20.45 7.0 -20.55 8.4 -20.45 10.1 Q-20.3 9.85 -19.85 9.75 L-9.1 9.25 Q-9.1 9.05 1.1 9.1 11.7 9.15 21.75 9.45 L22.05 6.2 22.05 6.15 22.15 6.15 22.2 5.8 22.2 5.6 22.2 5.5 22.2 5.25 22.2 4.85 22.2 4.7 22.25 4.0 22.3 3.1 22.9 3.3 22.9 2.5 22.95 1.15 21.0 1.4 19.9 1.5 19.15 1.25 Q18.95 1.1 18.9 0.5 L18.9 0.4 18.9 0.25 Q18.9 -0.25 19.35 -0.6 L19.3 -0.7 19.0 -1.5 18.95 -1.6 18.9 -3.35 18.9 -4.2 18.95 -5.5 18.95 -7.2 18.95 -7.45 18.95 -7.5 18.3 -11.9 M1.8 -18.0 L0.9 -19.3 0.5 -21.0 -2.3 -20.95 -3.0 -21.1 -3.05 -21.1 -3.05 -20.95 -8.75 -20.85 -18.4 -20.5 Q-17.2 -19.25 -16.25 -17.0 L-15.55 -15.0 -15.05 -13.15 -14.55 -10.8 -14.4 -10.15 -14.3 -9.6 -14.25 -9.15 -14.2 -8.85 -14.15 -8.5 -13.85 -5.95 -13.85 -5.85 -13.45 -6.0 -5.55 -6.5 -5.15 -5.6 Q-4.6 -5.15 -4.1 -4.0 L-3.85 -3.65 -3.75 -3.5 -1.95 -0.35 Q-0.5 -1.15 2.4 -1.25 L5.45 -1.45 5.4 -1.6 5.4 -2.4 5.2 -2.4 5.1 -3.7 5.05 -4.4 5.05 -4.5 5.05 -4.75 5.05 -4.85 4.95 -5.95 4.9 -6.5 4.55 -9.45 4.45 -9.75 3.95 -11.0 3.8 -11.5 3.7 -11.75 Q3.55 -13.75 2.65 -15.65 L2.25 -16.45 2.2 -16.75 2.2 -16.85 1.8 -18.0 M29.9 -4.05 L29.9 -0.2 29.55 0.05 28.9 0.5 28.7 0.35 27.45 0.65 25.9 0.85 25.9 1.0 25.4 2.4 25.4 2.6 25.35 3.5 25.4 3.5 25.55 3.5 25.5 3.75 25.35 3.85 25.15 4.5 26.05 5.35 27.0 6.75 29.65 8.5 30.25 8.95 30.45 7.35 Q30.45 4.7 31.0 3.0 L31.1 2.95 Q31.5 1.95 32.9 0.8 34.5 -0.45 35.9 -1.0 L36.25 -0.85 36.5 -1.25 37.0 -2.1 Q38.7 -2.25 40.3 -1.6 41.8 -1.3 43.0 -0.45 43.1 -1.2 44.0 -2.0 L44.4 -2.3 Q44.0 -5.45 38.95 -9.55 36.65 -11.4 35.35 -12.7 L35.45 -5.95 34.4 -5.95 33.95 -5.85 32.9 -5.2 32.0 -4.65 Q30.75 -4.0 30.15 -4.0 L29.9 -4.05 M46.85 0.35 L46.75 0.2 46.45 0.5 46.15 0.45 45.45 2.3 44.85 2.45 44.95 4.4 Q44.95 8.6 44.45 10.8 L43.95 12.5 45.7 11.3 Q48.95 9.15 48.95 6.5 48.95 4.45 46.85 0.35 M41.45 1.3 L40.85 0.9 39.75 0.25 36.65 0.55 35.1 2.3 32.75 4.55 Q32.45 5.75 32.45 7.5 32.45 9.65 32.7 10.85 L32.95 11.0 32.85 11.25 32.95 11.55 Q34.2 14.25 38.6 14.25 41.4 14.25 42.45 9.5 L42.95 4.75 42.25 2.8 41.45 1.3 M-19.9 11.7 L-20.1 12.9 -19.85 14.05 -19.55 14.6 -19.95 14.45 -19.6 16.9 -19.0 17.55 -17.7 17.75 -17.0 18.4 -14.45 18.85 -0.4 19.25 9.0 18.95 17.05 18.6 17.95 18.5 20.75 17.75 20.7 16.8 20.7 16.75 Q21.45 16.0 21.45 14.65 L21.25 14.7 21.45 12.65 21.45 12.4 21.55 11.5 -19.9 11.5 -20.3 11.5 -20.3 11.7 -19.9 11.7 M26.6 27.0 L25.1 24.65 24.4 23.45 23.25 21.55 22.25 19.75 21.45 20.0 18.55 20.65 13.95 21.1 -0.3 21.5 -11.05 21.1 -14.6 20.9 -15.75 20.75 -17.75 20.25 -18.1 20.2 -18.65 22.05 -18.65 22.1 -19.3 24.05 -20.55 27.55 -20.6 27.8 -20.65 28.1 -20.65 28.15 -20.65 28.45 -20.7 28.65 -20.85 30.0 -20.95 30.9 -21.4 32.65 -21.45 33.05 -21.4 33.05 -16.05 33.1 -12.9 33.15 3.35 33.75 Q13.75 33.75 18.3 33.4 L19.7 33.25 19.85 33.2 20.05 33.2 24.45 32.65 30.15 32.1 27.9 29.05 27.4 28.3 26.6 27.0 M26.05 39.15 L31.35 38.7 31.85 38.65 31.95 38.65 32.45 38.6 30.9 36.15 29.6 34.1 23.95 34.5 23.6 34.55 23.4 34.55 22.35 34.6 3.45 36.0 -7.0 36.05 Q-10.35 35.95 -11.05 35.3 -11.2 35.15 -16.1 35.25 L-16.4 35.25 -21.1 35.4 -21.6 37.6 -22.2 40.0 Q-20.15 39.8 -16.25 40.0 L-15.6 40.0 -6.45 40.75 19.95 39.65 26.05 39.15 M-23.95 -20.15 Q-27.0 -18.15 -27.45 -15.55 -27.75 -13.75 -27.55 -9.7 -27.9 -7.25 -27.65 -3.85 L-27.25 0.45 -22.6 0.15 Q-22.35 -3.05 -21.2 -3.9 -23.25 -5.05 -23.95 -7.5 -24.35 -8.9 -24.25 -10.6 L-24.05 -12.1 -23.8 -16.8 Q-23.35 -18.9 -22.1 -19.5 L-23.95 -20.15" fill="#000000" fill-rule="evenodd" stroke="none"/>
    <path d="M46.45 0.5 L46.85 0.35 Q48.95 4.45 48.95 6.5 48.95 9.15 45.7 11.3 L43.95 12.5 44.45 10.8 Q44.95 8.6 44.95 4.4 L44.85 2.45 45.45 2.3 46.15 0.45 46.45 0.5 M41.45 1.3 L42.25 2.8 42.95 4.75 42.45 9.5 Q41.4 14.25 38.6 14.25 34.2 14.25 32.95 11.55 L32.85 11.25 32.95 11.0 32.7 10.85 Q32.45 9.65 32.45 7.5 32.45 5.75 32.75 4.55 L35.1 2.3 36.65 0.55 39.75 0.25 40.85 0.9 41.45 1.3" fill="#cdac98" fill-rule="evenodd" stroke="none"/>
    <path d="M-19.9 11.5 L-19.9 11.7 -20.3 11.7 -20.3 11.5 -19.9 11.5" fill="#11100f" fill-rule="evenodd" stroke="none"/>
    <path d="M23.4 34.55 L23.6 34.55 23.95 34.5 29.6 34.1 30.9 36.15 32.45 38.6 31.95 38.65 31.85 38.65 31.35 38.7 26.05 39.15 25.05 39.2 24.4 38.1 Q23.5 36.25 23.4 34.55 M-16.25 40.0 Q-20.15 39.8 -22.2 40.0 L-21.6 37.6 -21.1 35.4 -16.4 35.25 -16.1 35.25 -16.1 37.0 Q-16.1 38.75 -16.25 40.0" fill="#046193" fill-rule="evenodd" stroke="none"/>
    <path d="M29.9 -4.05 L30.15 -4.0 Q30.75 -4.0 32.0 -4.65 L32.9 -5.2 33.95 -5.85 34.4 -5.95 35.45 -5.95 35.35 -12.7 Q36.65 -11.4 38.95 -9.55 44.0 -5.45 44.4 -2.3 L44.0 -2.0 Q43.1 -1.2 43.0 -0.45 41.8 -1.3 40.3 -1.6 38.7 -2.25 37.0 -2.1 L36.5 -1.25 36.25 -0.85 35.9 -1.0 Q34.5 -0.45 32.9 0.8 31.5 1.95 31.1 2.95 L31.0 3.0 Q30.45 4.7 30.45 7.35 L30.25 8.95 29.65 8.5 27.0 6.75 26.05 5.35 25.15 4.5 25.35 3.85 25.5 3.75 25.55 3.5 25.4 3.5 25.35 3.5 25.4 2.6 25.4 2.4 25.9 1.0 25.9 0.85 27.45 0.65 28.7 0.35 28.9 0.5 29.55 0.05 29.9 -0.2 29.9 -4.05 M23.4 34.55 Q23.5 36.25 24.4 38.1 L25.05 39.2 26.05 39.15 19.95 39.65 -6.45 40.75 -15.6 40.0 -16.25 40.0 Q-16.1 38.75 -16.1 37.0 L-16.1 35.25 Q-11.2 35.15 -11.05 35.3 -10.35 35.95 -7.0 36.05 L3.45 36.0 22.35 34.6 23.4 34.55" fill="#023f60" fill-rule="evenodd" stroke="none"/>
    <path d="M-21.4 33.05 L-21.45 33.05 -21.4 32.65 -21.4 33.05" fill="#942403" fill-rule="evenodd" stroke="none"/>
    <path d="M19.55 -17.25 L19.25 -18.45 19.8 -18.35 19.55 -19.55 Q20.05 -19.65 19.7 -19.95 L26.15 -20.35 31.65 -20.45 31.95 -19.65 32.75 -17.4 32.8 -17.25 32.7 -17.45 23.15 -18.25 Q20.85 -18.1 19.55 -17.25 M32.95 -15.0 L32.95 -11.5 20.95 -11.45 20.95 -12.7 Q20.3 -13.7 19.8 -16.1 21.35 -15.4 23.6 -15.75 27.0 -16.3 29.9 -15.0 L32.95 -15.0 M32.95 -9.4 L32.95 -7.65 31.25 -6.9 Q29.95 -6.3 29.4 -5.8 27.95 -6.0 27.4 -5.45 L27.4 -5.1 27.35 -5.1 22.25 -5.45 20.95 -5.05 20.95 -9.0 28.9 -9.0 31.7 -9.35 32.95 -9.4 M27.4 -3.0 L27.4 -2.2 27.55 -1.5 20.9 -1.5 20.9 -3.0 27.4 -3.0 M18.3 -11.9 L18.95 -7.5 Q9.95 -7.6 7.2 -7.25 L7.1 -7.25 5.95 -11.4 5.75 -12.05 5.95 -11.4 8.4 -11.0 Q14.65 -11.0 18.3 -11.9 M18.95 -5.5 L18.9 -4.2 18.9 -3.35 18.95 -1.6 19.0 -1.5 18.95 -1.5 Q11.45 -1.6 8.2 -1.35 L7.95 -1.5 7.9 -1.5 7.65 -3.45 7.45 -4.4 7.45 -5.5 18.95 -5.5 M18.9 0.5 Q18.95 1.1 19.15 1.25 L19.9 1.5 21.0 1.4 22.95 1.15 22.9 2.5 22.9 3.3 22.3 3.1 22.25 4.0 -11.6 4.0 -11.6 4.25 -20.35 4.9 -20.45 4.9 -20.35 4.6 -20.25 1.5 -13.1 1.5 -7.3 1.15 -3.9 1.05 -3.05 1.5 -2.85 1.85 -2.1 2.0 0.5 1.1 5.65 0.45 5.7 0.5 7.95 0.5 18.9 0.5 M22.05 6.15 L22.05 6.2 21.75 9.45 Q11.7 9.15 1.1 9.1 -9.1 9.05 -9.1 9.25 L-19.85 9.75 Q-20.3 9.85 -20.45 10.1 L-20.55 8.4 -20.45 7.0 -12.6 7.0 Q-1.1 6.6 21.8 6.15 L22.05 6.15 M-20.2 -0.2 L-20.2 -0.25 -20.2 -0.35 -20.0 -0.85 -19.05 -3.2 -16.8 -3.0 -15.95 -3.0 -15.95 -2.7 -14.8 -3.45 -14.7 -3.5 -12.75 -3.55 -12.6 -3.5 -12.2 -3.6 -6.75 -4.2 -5.8 -1.7 -5.45 -1.0 -12.6 -0.75 -20.1 -0.25 -20.2 -0.2 M5.25 -13.8 L4.85 -15.05 3.3 -19.5 17.6 -18.75 17.45 -17.95 Q17.45 -16.7 17.9 -14.1 L16.45 -14.0 9.45 -13.75 6.65 -13.8 5.25 -13.8 M-3.0 -21.1 L-2.3 -20.95 0.5 -21.0 0.9 -19.3 1.8 -18.0 Q-10.1 -18.0 -10.1 -17.75 -14.7 -17.75 -16.25 -17.0 -17.2 -19.25 -18.4 -20.5 L-8.75 -20.85 -3.05 -20.95 -3.0 -21.1 M2.65 -15.65 Q3.55 -13.75 3.7 -11.75 L3.8 -11.5 3.7 -11.5 Q-6.6 -11.5 -6.6 -11.25 L-14.55 -10.8 -15.05 -13.15 -15.55 -15.0 -12.6 -15.0 -3.8 -15.45 2.65 -15.65 M4.55 -9.45 L4.9 -6.5 4.95 -5.95 4.9 -6.45 -3.5 -6.0 -5.15 -5.6 -5.55 -6.5 -13.45 -6.0 -13.85 -5.85 -13.85 -5.95 -14.15 -8.5 -10.6 -8.5 4.55 -9.45 M5.05 -4.4 L5.1 -3.7 5.2 -2.4 5.4 -2.4 5.4 -1.6 5.45 -1.45 2.4 -1.25 Q-0.5 -1.15 -1.95 -0.35 L-3.75 -3.5 -2.1 -3.5 5.05 -4.4 M24.4 23.45 L25.1 24.65 26.6 27.0 15.65 27.05 13.4 27.25 -17.35 27.85 -20.65 28.1 -20.6 27.8 -20.55 27.55 -19.3 24.05 2.4 25.0 Q14.05 25.0 16.7 24.05 L24.4 23.45 M27.9 29.05 L30.15 32.1 24.45 32.65 20.05 33.2 19.85 33.2 19.7 33.25 18.3 33.4 Q13.75 33.75 3.35 33.75 L-12.9 33.15 -16.05 33.1 -21.4 33.05 -21.4 32.65 -20.95 30.9 -20.85 30.0 -20.9 30.5 -18.1 30.5 27.9 29.05 M-18.65 22.05 L-18.1 20.2 -17.75 20.25 -15.75 20.75 -14.6 20.9 -11.05 21.1 -0.3 21.5 13.95 21.1 18.55 20.65 21.45 20.0 22.25 19.75 23.25 21.55 11.45 22.15 2.05 22.75 -12.1 22.0 Q-16.5 21.75 -18.65 22.05 M-23.95 -20.15 L-22.1 -19.5 Q-23.35 -18.9 -23.8 -16.8 L-24.05 -12.1 -24.25 -10.6 Q-24.35 -8.9 -23.95 -7.5 -23.25 -5.05 -21.2 -3.9 -22.35 -3.05 -22.6 0.15 L-27.25 0.45 -27.65 -3.85 Q-27.9 -7.25 -27.55 -9.7 -27.75 -13.75 -27.45 -15.55 -27.0 -18.15 -23.95 -20.15" fill="#4e5963" fill-rule="evenodd" stroke="none"/>
    <path d="M19.55 -17.25 Q20.85 -18.1 23.15 -18.25 L32.7 -17.45 32.8 -17.25 32.8 -17.1 32.9 -16.75 32.95 -16.25 32.95 -15.0 29.9 -15.0 Q27.0 -16.3 23.6 -15.75 21.35 -15.4 19.8 -16.1 L19.7 -16.65 19.55 -17.25 M32.95 -11.5 L32.95 -9.4 31.7 -9.35 28.9 -9.0 20.95 -9.0 20.95 -11.45 32.95 -11.5 M27.4 -5.1 L27.4 -3.0 20.9 -3.0 20.9 -3.3 20.95 -3.25 20.95 -5.05 22.25 -5.45 27.35 -5.1 27.4 -5.1 M17.9 -14.1 L18.05 -13.15 18.15 -12.8 18.15 -12.7 18.3 -11.9 Q14.65 -11.0 8.4 -11.0 L5.95 -11.4 5.75 -12.05 5.25 -13.8 6.65 -13.8 9.45 -13.75 16.45 -14.0 17.9 -14.1 M18.95 -7.5 L18.95 -7.45 18.95 -7.2 18.95 -5.5 7.45 -5.5 7.45 -6.0 7.1 -7.25 7.2 -7.25 Q9.95 -7.6 18.95 -7.5 M19.0 -1.5 L19.3 -0.7 19.35 -0.6 Q18.9 -0.25 18.9 0.25 L18.9 0.4 18.9 0.5 7.95 0.5 5.7 0.5 5.65 0.45 7.95 0.5 Q8.05 0.2 8.25 0.2 L8.4 -0.5 Q8.4 -1.25 8.2 -1.35 11.45 -1.6 18.95 -1.5 L19.0 -1.5 M22.25 4.0 L22.2 4.7 22.2 4.85 22.2 5.25 22.2 5.5 22.2 5.6 22.2 5.8 22.15 6.15 22.05 6.15 21.8 6.15 Q-1.1 6.6 -12.6 7.0 L-20.45 7.0 -20.45 6.7 -20.4 6.7 -20.6 5.9 -20.45 4.9 -20.35 4.9 -11.6 4.25 -11.6 4.0 22.25 4.0 M-20.25 1.5 L-20.2 -0.2 -20.1 -0.25 -12.6 -0.75 -5.45 -1.0 -5.4 -1.0 -4.65 0.25 -3.9 1.05 -7.3 1.15 -13.1 1.5 -20.25 1.5 M1.8 -18.0 L2.2 -16.85 2.2 -16.75 2.25 -16.45 2.65 -15.65 -3.8 -15.45 -12.6 -15.0 -15.55 -15.0 -16.25 -17.0 Q-14.7 -17.75 -10.1 -17.75 -10.1 -18.0 1.8 -18.0 M3.8 -11.5 L3.95 -11.0 4.45 -9.75 4.55 -9.45 -10.6 -8.5 -14.15 -8.5 -14.2 -8.85 -14.25 -9.15 -14.3 -9.6 -14.4 -10.15 -14.55 -10.8 -6.6 -11.25 Q-6.6 -11.5 3.7 -11.5 L3.8 -11.5 M4.95 -5.95 L5.05 -4.85 5.05 -4.75 5.05 -4.5 5.05 -4.4 -2.1 -3.5 -3.75 -3.5 -3.85 -3.65 -4.1 -4.0 Q-4.6 -5.15 -5.15 -5.6 L-3.5 -6.0 4.9 -6.45 4.95 -5.95 M24.4 23.45 L16.7 24.05 Q14.05 25.0 2.4 25.0 L-19.3 24.05 -18.65 22.1 -18.65 22.05 Q-16.5 21.75 -12.1 22.0 L2.05 22.75 11.45 22.15 23.25 21.55 24.4 23.45 M-20.65 28.1 L-17.35 27.85 13.4 27.25 15.65 27.05 26.6 27.0 27.4 28.3 27.9 29.05 -18.1 30.5 -20.9 30.5 -20.85 30.0 -20.7 28.65 -20.65 28.45 -20.65 28.15 -20.65 28.1" fill="#333a42" fill-rule="evenodd" stroke="none"/>
    <path d="M-19.9 11.5 L21.55 11.5 21.45 12.4 21.45 12.65 21.25 14.7 21.45 14.65 Q21.45 16.0 20.7 16.75 L20.7 16.8 20.75 17.75 17.95 18.5 17.05 18.6 9.0 18.95 -0.4 19.25 -14.45 18.85 -17.0 18.4 -17.7 17.75 -19.0 17.55 -19.6 16.9 -19.95 14.45 -19.55 14.6 -19.85 14.05 -20.1 12.9 -19.9 11.7 -19.9 11.5" fill="#221c15" fill-rule="evenodd" stroke="none"/>
  </g>
</svg>
