<?xml version="1.0" encoding="UTF-8" standalone="no"?>
<svg xmlns:ffdec="https://www.free-decompiler.com/flash" xmlns:xlink="http://www.w3.org/1999/xlink" ffdec:objectType="shape" height="187.95px" width="219.25px" xmlns="http://www.w3.org/2000/svg">
  <g transform="matrix(1.0, 0.0, 0.0, 1.0, 177.0, 193.75)">
    <path d="M-67.0 -106.2 L-66.35 -106.1 Q-65.5 -107.0 -63.4 -107.55 -55.35 -109.8 -30.0 -108.3 -12.1 -106.3 -5.75 -102.55 -3.25 -101.0 8.6 -96.1 20.2 -91.3 25.25 -88.05 38.6 -79.3 41.2 -71.55 42.25 -68.5 42.25 -63.95 L42.0 -55.05 42.15 -48.05 Q42.15 -44.45 41.25 -41.85 39.05 -35.35 28.25 -27.3 L23.0 -22.95 Q17.65 -18.8 11.8 -15.65 -6.6 -5.8 -29.0 -5.8 L-40.95 -6.5 Q-41.4 -6.75 -41.05 -7.35 -40.65 -8.15 -40.75 -8.55 L-40.9 -9.25 -41.0 -11.3 -41.0 -11.55 Q-62.95 -11.15 -69.4 -13.4 -71.4 -14.05 -74.75 -16.1 -78.5 -18.35 -82.0 -19.8 -84.25 -20.7 -91.5 -21.5 -97.0 -22.1 -99.5 -24.55 L-103.15 -27.45 Q-106.4 -28.7 -109.85 -30.4 -119.05 -35.0 -124.5 -39.55 -129.5 -43.85 -131.6 -47.4 -134.35 -52.1 -134.0 -58.3 -133.6 -63.8 -143.55 -69.65 L-151.15 -73.75 Q-155.05 -75.85 -156.0 -77.05 -164.0 -87.35 -164.0 -95.45 -164.0 -101.75 -161.5 -101.55 -158.25 -100.05 -156.75 -100.05 -150.35 -100.05 -149.05 -102.55 -148.6 -103.35 -148.75 -104.3 L-149.0 -105.15 Q-149.0 -108.7 -153.35 -112.8 -156.0 -115.3 -163.0 -120.75 -177.0 -132.55 -177.0 -146.4 -177.0 -149.65 -176.15 -151.2 L-175.9 -151.55 Q-172.5 -146.25 -168.3 -146.25 -164.0 -146.25 -161.5 -149.55 -159.4 -152.3 -159.4 -155.8 -159.4 -156.5 -162.55 -169.1 -164.55 -177.6 -165.7 -184.55 L-165.55 -185.7 -166.05 -186.7 -166.7 -191.35 Q-166.35 -192.5 -165.7 -193.15 -165.15 -193.65 -164.45 -193.75 L-161.45 -184.4 Q-157.4 -172.7 -152.9 -162.55 -143.35 -141.25 -134.95 -134.4 -127.25 -124.8 -107.0 -124.8 -94.45 -124.8 -87.2 -119.7 -84.85 -118.05 -82.95 -115.75 L-82.35 -115.0 -83.0 -114.55 Q-83.6 -114.85 -85.9 -116.6 L-88.25 -118.3 Q-93.2 -119.65 -96.15 -118.75 -100.8 -117.3 -105.6 -117.3 L-116.5 -118.05 Q-119.0 -117.9 -119.0 -112.8 -119.0 -111.4 -118.35 -110.45 -117.4 -109.15 -115.0 -108.3 L-109.0 -107.55 -103.0 -106.8 -101.0 -106.3 -101.0 -105.9 Q-101.0 -103.5 -102.8 -102.55 -104.15 -101.8 -107.0 -101.8 -112.85 -101.8 -125.1 -110.35 -131.3 -114.7 -137.75 -119.8 L-137.95 -119.55 -138.0 -117.8 Q-138.0 -112.6 -130.75 -97.1 -123.0 -80.45 -122.0 -73.55 -121.4 -68.9 -116.95 -62.9 -111.0 -55.6 -107.75 -51.05 -102.7 -43.95 -90.7 -39.55 L-88.55 -38.75 Q-94.0 -36.7 -94.0 -34.8 -94.0 -33.3 -93.15 -32.3 L-92.0 -31.05 -91.8 -30.35 -89.6 -30.0 -84.25 -29.3 Q-80.6 -28.8 -79.1 -27.9 L-77.25 -26.8 -76.25 -26.3 -76.2 -26.85 Q-68.85 -27.15 -66.45 -28.75 -65.25 -29.55 -64.25 -31.2 L-63.6 -32.3 -62.35 -31.9 -55.0 -29.3 Q-50.45 -27.1 -47.2 -25.95 -41.25 -23.8 -29.5 -23.8 -9.6 -23.8 -2.8 -28.25 -0.75 -29.6 0.9 -32.0 2.55 -34.4 3.5 -35.05 L13.3 -41.7 Q18.0 -45.55 18.0 -48.95 18.0 -50.9 17.15 -55.05 16.2 -59.55 16.0 -63.55 15.9 -66.85 8.0 -71.1 0.75 -74.95 -5.0 -75.8 L-43.65 -81.1 -51.55 -82.35 Q-54.75 -88.7 -59.0 -96.05 L-59.25 -96.85 -59.4 -96.8 -61.65 -100.1 -64.85 -100.3 Q-67.0 -100.9 -67.0 -104.05 L-66.8 -105.6 -66.65 -105.8 -67.0 -106.2 M-21.75 -15.05 L-22.5 -14.3 -21.65 -14.4 -21.75 -15.05" fill="#ff6633" fill-opacity="0.8509804" fill-rule="evenodd" stroke="none"/>
    <path d="M-51.55 -82.35 L-43.65 -81.1 -5.0 -75.8 Q0.75 -74.95 8.0 -71.1 15.9 -66.85 16.0 -63.55 16.2 -59.55 17.15 -55.05 18.0 -50.9 18.0 -48.95 18.0 -45.55 13.3 -41.7 L3.5 -35.05 Q2.55 -34.4 0.9 -32.0 -0.75 -29.6 -2.8 -28.25 -9.6 -23.8 -29.5 -23.8 -41.25 -23.8 -47.2 -25.95 -50.45 -27.1 -55.0 -29.3 L-62.35 -31.9 -63.6 -32.3 Q-67.7 -33.7 -73.0 -34.8 -81.25 -36.5 -87.5 -39.05 L-88.55 -38.75 -90.7 -39.55 Q-102.7 -43.95 -107.75 -51.05 -111.0 -55.6 -116.95 -62.9 -121.4 -68.9 -122.0 -73.55 -123.0 -80.45 -130.75 -97.1 -138.0 -112.6 -138.0 -117.8 L-137.95 -119.55 -137.75 -119.8 Q-131.3 -114.7 -125.1 -110.35 -112.85 -101.8 -107.0 -101.8 -104.15 -101.8 -102.8 -102.55 -101.0 -103.5 -101.0 -105.9 L-101.0 -106.3 -98.35 -105.7 -92.5 -104.8 Q-88.15 -104.8 -86.1 -104.0 -84.2 -103.3 -82.3 -101.0 L-77.5 -94.8 -76.3 -93.3 Q-71.35 -91.95 -65.25 -86.55 -62.2 -84.35 -51.55 -82.35 M-62.05 -75.2 L-61.8 -75.75 -62.4 -76.0 -62.05 -75.2" fill="#f1ca47" fill-opacity="0.81960785" fill-rule="evenodd" stroke="none"/>
    <path d="M-81.3 -113.65 L-77.0 -113.45 Q-74.9 -114.2 -72.5 -111.8 L-67.0 -106.2 -66.65 -105.8 -66.8 -105.6 -67.0 -104.05 Q-67.0 -100.9 -64.85 -100.3 L-61.65 -100.1 -59.4 -96.8 -59.0 -96.05 Q-54.75 -88.7 -51.55 -82.35 -62.2 -84.35 -65.25 -86.55 -71.35 -91.95 -76.3 -93.3 L-77.5 -94.8 -82.3 -101.0 Q-84.2 -103.3 -86.1 -104.0 -88.15 -104.8 -92.5 -104.8 L-98.35 -105.7 -101.0 -106.3 -103.0 -106.8 -109.0 -107.55 -115.0 -108.3 Q-117.4 -109.15 -118.35 -110.45 -119.0 -111.4 -119.0 -112.8 -119.0 -117.9 -116.5 -118.05 L-105.6 -117.3 Q-100.8 -117.3 -96.15 -118.75 -93.2 -119.65 -88.25 -118.3 L-85.9 -116.6 Q-83.6 -114.85 -83.0 -114.55 L-81.3 -113.65 M-63.6 -32.3 L-64.25 -31.2 Q-65.25 -29.55 -66.45 -28.75 -68.85 -27.15 -76.2 -26.85 L-77.25 -26.8 -79.1 -27.9 Q-80.6 -28.8 -84.25 -29.3 L-89.6 -30.0 -91.8 -30.35 -92.0 -31.05 -93.15 -32.3 Q-94.0 -33.3 -94.0 -34.8 -94.0 -36.7 -88.55 -38.75 L-87.5 -39.05 Q-81.25 -36.5 -73.0 -34.8 -67.7 -33.7 -63.6 -32.3 M-62.05 -75.2 L-62.4 -76.0 -61.8 -75.75 -62.05 -75.2" fill="#ff8c66" fill-opacity="0.7058824" fill-rule="evenodd" stroke="none"/>
    <path d="M-82.35 -115.0 L-81.3 -113.65 -83.0 -114.55 -82.35 -115.0" fill="#ff6633" fill-opacity="0.7058824" fill-rule="evenodd" stroke="none"/>
  </g>
</svg>
