<?xml version="1.0" encoding="UTF-8" standalone="no"?>
<svg xmlns:ffdec="https://www.free-decompiler.com/flash" xmlns:xlink="http://www.w3.org/1999/xlink" ffdec:objectType="shape" height="7.4px" width="18.1px" xmlns="http://www.w3.org/2000/svg">
  <g transform="matrix(1.0, 0.0, 0.0, 1.0, -4.8, -2.65)">
    <path d="M21.3 3.85 Q20.85 3.5 20.05 3.5 19.15 3.5 18.8 3.8 18.4 4.15 18.4 4.6 L18.65 5.2 20.1 5.75 21.7 6.2 22.6 6.9 22.9 7.95 22.55 9.0 21.65 9.8 20.25 10.05 18.65 9.8 17.6 8.95 Q17.2 8.35 17.2 7.65 L18.1 7.55 18.4 8.45 19.1 9.0 20.2 9.2 21.15 9.05 21.8 8.6 22.0 8.0 21.8 7.4 Q21.6 7.15 21.15 7.0 L19.85 6.65 18.5 6.2 17.75 5.55 Q17.45 5.15 17.45 4.65 17.45 4.1 17.8 3.65 18.1 3.15 18.7 2.9 L20.0 2.65 21.4 2.95 22.35 3.7 22.7 4.8 21.75 4.9 Q21.7 4.2 21.3 3.85 M16.35 4.85 Q16.35 5.8 15.75 6.4 15.15 7.05 13.65 7.05 L11.8 7.05 11.8 9.95 10.85 9.95 10.85 2.8 13.55 2.8 14.65 2.85 Q15.2 2.95 15.55 3.2 L16.1 3.9 16.35 4.85 M14.55 3.7 L13.65 3.65 11.8 3.65 11.8 6.2 13.65 6.2 Q14.6 6.2 14.95 5.85 15.35 5.5 15.35 4.9 L15.15 4.1 14.55 3.7 M9.65 3.65 L5.75 3.65 5.75 5.85 9.15 5.85 9.15 6.7 5.75 6.7 5.75 9.95 4.8 9.95 4.8 2.8 9.65 2.8 9.65 3.65" fill="#ffffff" fill-rule="evenodd" stroke="none"/>
  </g>
</svg>
