<?xml version="1.0" encoding="UTF-8" standalone="no"?>
<svg xmlns:ffdec="https://www.free-decompiler.com/flash" xmlns:xlink="http://www.w3.org/1999/xlink" ffdec:objectType="shape" height="97.9px" width="539.35px" xmlns="http://www.w3.org/2000/svg">
  <g transform="matrix(1.0, 0.0, 0.0, 1.0, 7.0, 7.25)">
    <path d="M96.65 1.25 L97.05 1.25 96.9 1.25 96.65 1.25 M120.7 15.6 L120.85 15.8 120.95 16.15 120.7 15.6 M154.45 11.75 L154.5 11.4 154.55 11.3 154.45 11.75 M217.55 76.4 L217.5 76.45 217.45 76.5 217.45 76.45 217.5 76.45 217.55 76.4 M217.35 76.55 L217.35 76.6 217.15 76.8 217.05 76.85 217.35 76.55 M147.8 77.05 L147.7 76.95 147.5 76.8 147.8 77.05 M122.3 87.85 L122.1 88.0 121.75 88.25 122.3 87.85 M78.3 67.95 L78.05 68.15 78.3 67.95 M69.85 73.0 L69.7 73.05 69.55 73.05 69.85 73.0 M51.85 73.05 L51.75 73.05 51.4 72.9 51.85 73.05 M43.15 67.95 L43.1 67.95 43.15 67.95 M19.35 84.8 L19.4 84.8 19.35 84.8 M0.25 15.4 L0.15 15.55 0.3 15.3 0.25 15.4" fill="#3399ff" fill-rule="evenodd" stroke="none"/>
    <path d="M0.3 15.3 Q2.1 11.3 7.05 7.7 L7.0 7.7 Q11.05 4.65 14.9 3.35 L15.05 3.3 Q18.25 2.15 24.2 1.3 L24.45 1.25 24.75 1.25 28.4 0.35 28.8 0.2 28.95 0.2 Q29.95 -0.15 31.35 -0.85 L31.35 -0.8 34.9 -2.5 34.85 -2.5 34.95 -2.5 35.3 -2.7 Q43.6 -5.6 47.85 -6.35 L59.5 -7.25 61.9 -7.25 73.6 -6.35 Q77.75 -5.6 86.1 -2.7 L86.2 -2.65 86.25 -2.6 86.35 -2.55 86.4 -2.55 86.65 -2.4 89.6 -1.0 90.05 -0.85 Q91.45 -0.15 92.5 0.2 L92.65 0.2 93.05 0.35 96.65 1.25 96.9 1.25 97.1 1.3 101.45 2.0 101.4 2.0 101.6 2.05 101.7 2.1 101.85 2.1 102.1 2.2 102.2 2.25 102.9 2.5 102.95 2.5 103.0 2.55 102.9 2.5 103.15 2.65 103.05 2.55 104.2 3.25 105.7 3.65 105.75 3.7 105.95 3.75 106.3 3.85 106.4 3.85 Q109.45 4.9 112.7 7.1 L112.65 7.15 112.9 7.25 112.95 7.25 113.15 7.4 114.1 8.1 Q118.9 11.65 120.7 15.6 L120.95 16.15 Q122.6 19.7 122.35 24.95 L122.35 25.5 127.5 10.4 127.5 10.45 127.55 10.3 127.6 10.2 128.2 9.05 128.25 8.95 128.25 8.9 Q128.9 7.9 129.95 7.1 L130.3 6.9 130.25 6.9 Q131.85 5.8 133.85 5.7 L133.95 5.7 146.65 5.7 146.7 5.7 Q148.1 5.75 149.35 6.35 L149.4 6.4 149.5 6.45 149.55 6.45 149.6 6.5 149.7 6.55 149.75 6.55 149.9 6.6 149.85 6.6 150.25 6.8 150.3 6.8 Q152.25 8.1 153.05 10.3 L153.05 10.35 153.1 10.55 153.15 10.7 167.85 52.05 172.45 44.0 155.9 16.9 155.7 16.65 155.65 16.55 155.45 16.25 155.4 16.15 155.35 16.1 Q154.15 14.1 154.45 11.8 L154.45 11.9 154.45 11.75 154.55 11.3 154.55 11.2 154.6 11.1 Q155.0 8.9 156.65 7.45 L156.95 7.15 156.9 7.15 Q157.2 6.9 157.55 6.75 159.2 5.6 161.3 5.55 L178.2 5.55 Q179.5 5.55 180.7 6.05 L180.9 6.15 180.95 6.15 181.0 6.2 181.05 6.2 181.15 6.25 181.25 6.3 181.4 6.35 181.5 6.4 181.7 6.55 Q183.15 7.4 184.05 8.85 L184.1 8.95 184.2 9.05 184.25 9.15 184.3 9.25 184.35 9.35 184.35 9.3 184.45 9.55 184.45 9.6 184.5 9.65 189.0 17.55 193.55 9.85 193.55 9.8 193.7 9.6 193.75 9.35 193.85 9.15 Q194.6 7.7 195.95 6.8 L195.8 6.95 196.0 6.8 196.1 6.7 196.3 6.6 196.45 6.5 196.55 6.45 Q198.05 5.6 199.8 5.55 L216.9 5.55 Q219.55 5.55 221.55 7.3 L222.2 8.05 Q223.45 9.4 223.85 11.25 L223.9 11.65 Q224.15 13.8 223.2 15.65 L223.25 15.5 223.25 15.55 223.0 16.05 222.85 16.35 222.85 16.4 205.2 43.95 218.75 67.55 218.85 67.75 218.9 67.85 218.95 67.9 218.95 67.95 219.05 68.1 Q219.75 69.45 219.8 70.95 L219.8 71.15 219.8 71.35 219.8 71.45 219.8 71.55 219.8 71.6 219.8 71.65 219.8 71.75 219.8 71.8 219.8 72.1 219.8 72.05 219.7 72.7 Q219.2 74.9 217.55 76.4 L217.5 76.45 217.45 76.45 217.4 76.55 217.35 76.55 217.05 76.85 Q215.15 78.25 212.85 78.25 L195.8 78.25 Q194.2 78.2 192.75 77.5 L192.7 77.5 192.5 77.35 191.95 77.05 191.9 77.0 191.75 76.9 191.7 76.85 191.35 76.6 190.85 76.05 189.9 74.9 189.85 74.8 189.8 74.7 189.75 74.55 189.45 73.95 189.5 74.1 188.45 72.2 187.2 74.3 187.25 74.3 187.1 74.55 187.05 74.65 185.4 76.65 185.05 76.95 184.55 77.25 184.4 77.35 184.35 77.35 184.3 77.4 184.2 77.45 Q182.75 78.2 181.2 78.25 L168.5 78.25 167.15 78.35 151.85 78.35 Q149.6 78.35 147.8 77.05 L147.5 76.8 Q145.75 75.4 145.2 73.3 L145.25 73.4 145.2 73.25 145.15 73.1 145.15 73.05 144.0 69.6 137.1 69.5 135.6 73.75 135.55 73.85 135.55 73.9 135.55 73.95 135.5 73.95 135.5 74.0 135.45 74.2 135.4 74.25 135.15 74.7 135.0 74.95 134.95 75.0 134.9 75.1 134.85 75.15 134.0 76.25 133.9 76.35 133.85 76.4 133.8 76.45 133.35 76.85 133.3 76.9 133.15 77.0 Q131.3 78.45 129.0 78.4 L127.35 78.4 126.15 81.9 126.1 82.05 126.0 82.3 126.0 82.35 Q124.2 86.35 122.3 87.85 L121.75 88.25 121.1 88.4 121.25 88.6 121.0 88.75 Q119.85 89.35 118.65 89.55 116.95 90.65 114.85 90.65 L114.6 90.65 114.55 90.65 Q108.05 90.95 102.2 84.95 L101.95 84.7 101.9 84.7 101.7 84.5 101.65 84.45 101.35 84.1 98.8 81.25 98.75 81.2 98.75 81.15 98.7 81.15 98.65 81.1 Q96.45 78.65 95.5 76.95 L95.5 76.9 95.45 76.85 95.4 76.75 95.3 76.65 Q92.85 72.35 89.95 66.25 L89.95 66.2 89.9 66.15 89.6 65.35 89.55 65.3 Q87.55 61.1 85.85 58.35 L85.35 58.45 83.45 61.65 83.4 61.75 83.2 62.05 Q81.05 65.3 78.3 67.95 L78.05 68.15 78.0 68.2 Q74.5 71.5 69.85 73.0 L69.55 73.05 Q66.45 74.0 62.25 74.25 L62.2 74.25 61.1 74.25 60.7 74.25 60.3 74.25 59.25 74.25 59.15 74.25 Q54.95 74.0 51.85 73.05 L51.4 72.9 48.15 71.65 48.05 71.6 48.0 71.6 47.95 71.55 47.75 71.45 47.8 71.45 47.6 71.35 46.3 70.4 45.2 69.7 43.5 68.25 43.3 68.1 43.15 67.95 Q40.15 65.1 37.95 61.6 L37.85 61.35 37.7 61.1 37.65 61.05 35.85 57.9 35.65 58.2 Q33.9 60.95 31.9 65.25 L31.8 65.5 31.75 65.55 31.7 65.75 31.65 65.8 31.6 65.95 31.6 66.0 31.55 66.05 31.5 66.15 31.5 66.2 31.45 66.3 Q28.55 72.4 26.1 76.65 L26.0 76.85 25.9 76.95 Q24.95 78.65 22.8 81.1 L22.7 81.15 22.75 81.15 22.6 81.25 22.7 81.2 20.1 84.05 20.0 84.15 19.4 84.75 19.5 84.65 19.45 84.7 19.35 84.8 Q13.45 90.95 6.85 90.65 L6.8 90.65 Q1.6 90.6 -1.2 87.5 L-1.35 87.35 -1.35 87.3 -1.45 87.2 -1.95 86.5 Q-4.95 84.15 -6.1 78.25 L-6.4 76.65 -6.8 74.25 -6.85 74.05 -6.85 74.0 Q-7.25 70.9 -6.6 67.35 L-6.55 67.25 -6.55 67.2 -6.5 67.0 -6.35 66.35 Q-5.95 63.3 -5.05 60.0 -3.6 54.5 -1.3 50.15 L-0.6 46.55 -0.2 40.95 -0.3 37.25 Q-1.6 30.1 -1.6 25.15 L-1.45 22.65 Q-1.35 19.1 -0.2 16.45 L-0.05 15.95 0.05 15.8 0.15 15.55 0.2 15.5 0.25 15.4 0.3 15.3 M399.9 67.95 L399.65 68.15 399.6 68.2 Q396.1 71.5 391.45 73.0 L391.3 73.05 391.15 73.05 Q388.05 74.0 383.85 74.25 L383.8 74.25 382.7 74.25 382.3 74.25 381.9 74.25 380.85 74.25 380.75 74.25 Q376.7 74.05 373.7 73.15 L373.65 73.15 373.55 73.1 373.4 73.05 373.35 73.0 373.3 73.0 372.95 72.85 Q370.85 72.2 369.05 71.2 L368.95 71.15 368.9 71.1 368.85 71.1 368.75 71.05 368.4 70.85 368.3 70.8 368.3 70.75 367.65 70.25 366.8 69.7 365.1 68.25 364.9 68.1 364.75 67.95 364.7 67.95 364.75 67.95 Q361.75 65.1 359.55 61.6 L359.3 61.15 359.3 61.1 357.45 57.9 357.25 58.2 Q355.5 60.95 353.5 65.25 L353.4 65.5 353.35 65.55 353.3 65.75 353.25 65.8 353.2 65.9 353.2 65.95 353.2 66.0 353.15 66.1 353.1 66.15 353.1 66.2 353.05 66.3 Q350.15 72.4 347.7 76.65 L347.6 76.85 347.5 76.95 Q346.55 78.65 344.4 81.1 L344.3 81.15 344.35 81.15 344.2 81.25 344.3 81.2 341.7 84.05 341.6 84.15 341.0 84.75 341.1 84.65 341.05 84.7 340.95 84.8 341.0 84.8 340.95 84.8 Q335.05 90.95 328.45 90.65 L328.4 90.65 Q323.2 90.6 320.4 87.5 L320.25 87.35 319.4 86.15 318.45 85.1 318.4 85.0 318.2 84.65 318.05 84.4 318.05 84.3 317.05 82.35 317.0 82.3 316.95 82.1 316.9 82.05 316.85 81.95 315.55 78.1 Q314.05 77.8 312.75 76.9 L312.65 76.8 312.45 76.65 Q310.7 75.25 310.15 73.15 L310.2 73.25 310.15 73.1 310.1 72.95 310.1 72.9 308.95 69.45 302.05 69.35 300.55 73.6 300.5 73.75 300.15 74.5 300.05 74.65 300.0 74.75 299.9 74.8 299.85 74.95 299.35 75.35 299.35 75.2 299.05 75.6 298.9 76.0 298.85 76.15 298.7 76.35 298.55 76.55 297.55 77.25 297.7 77.15 297.4 77.3 297.35 77.35 297.25 77.4 297.2 77.4 Q295.7 78.25 293.95 78.25 L278.8 78.2 Q276.6 78.15 274.8 76.9 L274.65 76.8 274.5 76.7 274.45 76.65 273.95 76.2 273.75 76.15 269.85 77.65 Q266.75 78.65 258.55 78.8 253.3 78.9 247.8 77.0 L247.65 76.95 Q242.75 75.3 237.6 69.5 L237.6 69.45 237.35 69.15 237.3 69.1 234.8 65.6 234.75 65.55 234.7 65.45 234.7 65.4 234.65 65.35 234.6 65.3 Q233.25 62.95 232.65 60.35 L232.65 60.4 232.6 60.1 231.7 56.75 231.65 56.75 231.6 56.45 231.55 56.25 231.6 56.4 231.6 56.3 231.5 56.15 231.5 56.05 231.45 55.8 231.45 55.75 231.4 55.35 Q230.75 52.6 230.8 50.1 L230.8 35.7 Q230.7 32.8 231.1 29.35 231.35 25.8 233.0 21.7 L233.1 21.5 233.25 21.05 233.35 20.8 233.35 20.75 Q235.15 16.35 239.45 12.6 L239.65 12.4 239.85 12.2 240.0 12.05 240.1 12.0 244.0 9.0 243.85 9.1 244.05 8.95 244.25 8.8 Q244.3 8.7 244.4 8.7 247.8 6.5 250.75 5.95 L251.0 5.95 251.2 5.9 251.15 5.9 251.2 5.9 260.9 5.1 260.95 5.1 Q267.65 5.1 274.25 8.15 L274.3 8.15 274.55 8.25 274.6 8.3 274.65 8.35 Q277.65 9.7 279.6 11.45 L279.7 11.5 279.65 11.45 279.7 11.45 280.0 11.7 280.15 11.85 280.2 11.9 Q281.9 13.5 283.7 16.25 L283.8 16.4 Q284.9 18.1 284.85 20.1 L284.85 20.15 284.85 20.25 284.85 20.35 284.85 20.45 284.85 20.5 284.85 20.55 284.85 20.75 284.85 20.85 284.85 20.95 284.85 21.0 284.8 21.35 Q284.5 23.05 283.5 24.35 L283.45 24.45 282.8 25.2 282.65 25.4 276.9 30.5 282.15 30.5 Q283.8 30.5 285.2 31.2 L292.45 10.2 292.5 10.15 292.6 9.9 293.15 8.9 293.2 8.8 Q293.8 7.75 294.9 6.95 L295.25 6.75 295.2 6.75 Q296.8 5.65 298.8 5.55 L298.9 5.55 311.6 5.55 311.65 5.55 Q313.1 5.6 314.35 6.25 L314.45 6.3 314.7 6.4 314.85 6.45 314.8 6.45 315.2 6.65 315.25 6.65 Q317.2 7.95 318.0 10.15 L318.0 10.2 318.05 10.4 320.8 18.15 321.4 16.45 321.55 15.95 321.65 15.8 321.75 15.55 321.8 15.5 321.85 15.4 321.75 15.55 321.9 15.3 Q323.7 11.3 328.65 7.7 L328.6 7.7 Q332.65 4.65 336.5 3.35 L336.65 3.3 Q339.85 2.15 345.8 1.3 L346.05 1.25 346.35 1.25 350.0 0.35 350.4 0.2 350.55 0.2 Q351.55 -0.15 352.95 -0.85 L352.95 -0.8 356.5 -2.5 356.45 -2.5 356.55 -2.5 356.9 -2.7 Q365.2 -5.6 369.45 -6.35 L381.1 -7.25 383.5 -7.25 395.2 -6.35 Q399.35 -5.6 407.7 -2.7 L407.8 -2.65 407.85 -2.6 407.95 -2.55 408.0 -2.55 408.25 -2.4 411.15 -1.0 411.65 -0.85 Q413.05 -0.15 414.1 0.2 L414.25 0.2 414.65 0.35 418.25 1.25 418.5 1.25 418.7 1.3 423.05 2.0 423.0 2.0 423.2 2.05 423.3 2.1 423.45 2.1 423.7 2.2 423.8 2.25 424.5 2.5 424.55 2.5 424.6 2.55 424.5 2.5 424.75 2.65 424.65 2.55 425.45 3.0 426.6 3.05 426.95 3.1 427.3 3.15 427.35 3.15 427.5 3.2 428.0 3.3 428.15 3.35 Q431.15 4.4 434.35 6.5 L434.3 6.5 434.4 6.55 434.5 6.6 434.55 6.65 435.2 7.1 435.8 7.55 435.95 7.65 436.0 7.7 437.1 8.55 437.85 7.65 437.9 7.6 Q439.9 5.55 442.8 5.55 L481.5 5.55 Q484.4 5.55 486.45 7.6 L486.45 7.65 Q487.4 8.55 487.9 9.65 490.5 8.0 493.1 7.2 L493.45 7.05 493.6 7.0 493.55 7.0 499.25 5.7 499.8 5.6 508.05 5.15 Q512.6 5.35 515.8 6.5 L516.05 6.55 516.15 6.6 Q526.6 10.45 530.0 14.95 L530.15 15.15 530.3 15.3 530.4 15.4 530.45 15.45 Q531.95 17.45 531.8 19.95 531.7 21.8 530.85 23.25 L530.8 23.3 530.8 23.35 530.05 24.35 529.95 24.4 529.95 24.45 529.75 24.65 529.7 24.65 529.65 24.75 529.3 25.0 521.9 32.1 Q524.4 33.55 526.95 36.3 L527.0 36.35 527.05 36.4 527.55 36.9 529.15 39.05 529.25 39.25 529.3 39.35 529.35 39.45 529.3 39.45 529.35 39.5 529.4 39.55 529.4 39.6 529.5 39.7 529.55 39.8 529.55 39.85 531.05 43.25 531.1 43.25 531.25 43.55 531.2 43.5 531.35 43.7 531.35 43.75 Q532.1 45.8 532.35 48.35 L532.2 49.4 532.2 50.0 Q532.2 56.75 527.25 65.4 524.55 70.2 522.0 72.45 L521.55 73.1 521.3 73.25 521.25 73.3 Q519.15 74.95 515.85 75.95 L515.8 76.0 515.75 76.0 515.55 76.1 515.65 76.05 515.35 76.2 515.3 76.25 514.4 76.45 Q508.5 78.2 504.3 78.4 L504.2 78.4 494.75 77.95 Q491.45 77.65 488.05 76.4 486.05 78.25 483.3 78.25 L449.0 78.25 Q448.35 80.65 447.5 82.45 L447.5 82.5 447.3 82.8 Q445.95 85.7 444.55 87.15 L444.45 87.25 444.4 87.35 444.35 87.4 444.3 87.45 444.25 87.5 444.2 87.55 444.15 87.6 444.1 87.65 443.95 87.75 443.95 87.8 Q441.35 90.35 436.85 90.65 L436.75 90.65 436.45 90.65 436.2 90.65 436.15 90.65 Q429.65 90.95 423.8 84.95 L423.55 84.7 423.5 84.7 423.3 84.5 423.25 84.45 422.95 84.1 420.4 81.25 420.35 81.2 420.35 81.15 420.3 81.15 420.25 81.1 Q418.05 78.65 417.1 76.95 L417.1 76.9 417.05 76.85 417.0 76.75 416.9 76.65 Q414.45 72.35 411.55 66.25 L411.55 66.2 411.5 66.15 411.2 65.35 411.15 65.3 Q409.1 60.95 407.35 58.2 L407.25 57.95 405.05 61.65 405.0 61.75 404.8 62.05 Q402.65 65.3 399.9 67.95 M423.8 2.25 L423.85 2.25 423.8 2.25 M407.25 57.95 L407.2 57.9 407.2 57.95 407.25 57.95 M444.3 87.4 L444.3 87.45 444.3 87.4 M444.25 87.5 L444.2 87.5 444.25 87.5 M372.95 72.85 L373.1 72.9 373.05 72.9 372.95 72.85 M280.2 11.9 L280.15 11.9 280.2 11.9 M298.9 75.7 L298.65 75.9 298.75 76.05 298.9 75.7 M239.6 12.45 L239.75 12.3 239.65 12.4 239.6 12.45 M233.05 21.7 L233.15 21.4 233.1 21.5 233.05 21.7 M217.55 76.4 L217.55 76.35 217.5 76.4 217.55 76.4 M102.2 2.25 L102.25 2.25 102.2 2.25" fill="#ffffff" fill-rule="evenodd" stroke="none"/>
    <path d="M418.25 1.25 L418.65 1.25 418.5 1.25 418.25 1.25 M515.8 6.5 L516.1 6.55 516.05 6.55 515.8 6.5 M530.0 14.95 L530.25 15.2 530.15 15.15 530.0 14.95" fill="#000000" fill-rule="evenodd" stroke="none"/>
  </g>
</svg>
