<?xml version="1.0" encoding="UTF-8" standalone="no"?>
<svg xmlns:ffdec="https://www.free-decompiler.com/flash" xmlns:xlink="http://www.w3.org/1999/xlink" ffdec:objectType="shape" height="50.4px" width="77.15px" xmlns="http://www.w3.org/2000/svg">
  <g transform="matrix(1.0, 0.0, 0.0, 1.0, 49.95, 24.65)">
    <path d="M19.15 2.7 L19.2 2.7 19.2 2.75 19.15 2.7" fill="#333333" fill-rule="evenodd" stroke="none"/>
    <path d="M19.2 2.75 L19.3 2.85 20.2 3.7 20.05 3.9 21.05 5.6 22.05 8.05 Q22.7 10.75 22.7 13.05 L22.7 14.35 22.8 14.4 22.9 14.75 Q22.9 16.25 22.25 17.95 21.55 19.65 20.5 20.85 L17.55 23.8 15.35 24.9 Q13.05 25.75 9.8 25.75 4.25 25.75 1.8 21.35 0.1 18.3 0.1 13.6 L0.0 12.85 Q0.0 12.45 0.3 12.35 L0.25 11.6 0.25 11.25 Q0.25 4.95 4.5 2.0 8.5 -0.85 14.7 0.4 16.8 0.55 19.15 2.7 L19.2 2.75 M20.3 11.6 Q20.3 12.15 12.85 16.35 L12.5 16.3 Q12.4 16.4 12.4 16.0 L12.7 15.8 Q12.4 15.0 12.35 11.4 L12.4 9.3 Q12.45 8.4 12.65 7.75 12.55 7.95 12.55 7.6 L12.7 7.3 12.85 7.35 12.85 7.3 Q15.55 7.5 17.25 8.9 L20.05 11.4 20.15 11.35 20.25 11.4 20.3 11.6 M22.05 12.95 Q22.05 10.0 20.75 6.9 L19.5 4.2 19.25 3.95 Q19.15 3.15 17.8 2.4 L17.55 2.25 16.9 1.9 16.25 1.6 16.0 1.5 14.3 1.05 Q11.1 0.4 8.15 1.15 6.35 1.6 5.5 2.25 L3.8 3.7 2.4 5.2 Q0.9 7.4 0.9 11.3 0.9 12.1 1.45 14.4 L2.1 16.9 Q2.85 18.75 3.5 19.45 5.3 21.2 8.9 21.55 L8.95 21.55 10.4 21.55 11.8 21.55 Q17.9 21.15 20.6 17.4 L20.7 17.3 21.15 16.4 21.9 15.25 22.1 14.0 22.05 12.95 M15.85 24.0 L15.85 23.95 17.65 22.8 20.25 19.85 Q21.05 18.95 21.55 17.35 L20.9 18.05 18.3 20.6 Q17.35 21.35 15.7 21.8 L15.1 21.9 14.95 21.95 14.9 22.0 14.8 22.0 14.65 22.0 13.45 22.2 12.1 22.3 10.4 22.3 Q7.0 22.3 4.85 21.15 L4.4 20.9 Q2.4 19.6 1.4 17.15 L0.85 15.5 Q1.15 17.55 1.95 19.85 2.75 21.9 3.45 22.6 L4.4 23.5 4.95 23.9 7.1 24.7 7.6 24.8 8.95 24.95 9.8 25.0 12.35 24.9 13.35 24.7 13.45 24.7 15.85 24.0 M18.2 12.2 L19.2 11.7 Q18.6 11.5 17.85 10.85 L16.45 9.6 15.1 8.55 13.2 7.9 13.4 9.45 13.25 11.65 13.3 13.65 13.2 15.45 13.6 15.15 Q16.2 13.2 18.2 12.2 M11.25 11.4 L11.3 11.6 Q11.3 12.15 3.85 16.35 L3.5 16.3 Q3.4 16.4 3.4 16.0 L3.7 15.8 Q3.4 15.0 3.35 11.4 L3.4 9.3 Q3.45 8.4 3.65 7.75 3.55 7.95 3.55 7.6 L3.7 7.3 3.85 7.35 3.85 7.3 Q6.55 7.5 8.25 8.9 L11.05 11.4 11.15 11.35 11.25 11.4 M9.2 12.2 L10.2 11.7 8.85 10.85 7.45 9.6 6.1 8.55 4.2 7.9 4.4 9.45 4.25 11.65 4.3 13.65 4.2 15.45 4.6 15.15 Q7.2 13.2 9.2 12.2" fill="#392d11" fill-rule="evenodd" stroke="none"/>
    <path d="M4.4 23.5 L3.45 22.6 Q2.75 21.9 1.95 19.85 1.15 17.55 0.85 15.5 L1.4 17.15 Q2.4 19.6 4.4 20.9 L4.35 21.9 4.4 23.5" fill="#eddcb7" fill-rule="evenodd" stroke="none"/>
    <path d="M22.05 12.95 L22.1 14.0 21.9 15.25 21.15 16.4 20.7 17.3 20.6 17.4 Q17.9 21.15 11.8 21.55 L10.4 21.55 8.95 21.55 8.9 21.55 Q5.3 21.2 3.5 19.45 2.85 18.75 2.1 16.9 L1.45 14.4 Q0.9 12.1 0.9 11.3 0.9 7.4 2.4 5.2 L3.8 3.7 5.5 2.25 Q6.35 1.6 8.15 1.15 11.1 0.4 14.3 1.05 L16.0 1.5 16.25 1.6 16.9 1.9 17.55 2.25 17.8 2.4 Q19.15 3.15 19.25 3.95 L19.5 4.2 20.75 6.9 Q22.05 10.0 22.05 12.95 M20.3 11.6 L20.25 11.4 20.15 11.35 20.05 11.4 17.25 8.9 Q15.55 7.5 12.85 7.3 L12.85 7.35 12.7 7.3 12.55 7.6 Q12.55 7.95 12.65 7.75 12.45 8.4 12.4 9.3 L12.35 11.4 Q12.4 15.0 12.7 15.8 L12.4 16.0 Q12.4 16.4 12.5 16.3 L12.85 16.35 Q20.3 12.15 20.3 11.6 M12.35 24.9 L9.8 25.0 8.95 24.95 7.6 24.8 7.1 24.7 4.95 23.9 4.4 23.5 4.35 21.9 4.4 20.9 4.85 21.15 Q7.0 22.3 10.4 22.3 L12.1 22.3 12.05 22.5 Q12.05 24.05 12.35 24.9 M11.25 11.4 L11.15 11.35 11.05 11.4 8.25 8.9 Q6.55 7.5 3.85 7.3 L3.85 7.35 3.7 7.3 3.55 7.6 Q3.55 7.95 3.65 7.75 3.45 8.4 3.4 9.3 L3.35 11.4 Q3.4 15.0 3.7 15.8 L3.4 16.0 Q3.4 16.4 3.5 16.3 L3.85 16.35 Q11.3 12.15 11.3 11.6 L11.25 11.4" fill="#cc9d3c" fill-rule="evenodd" stroke="none"/>
    <path d="M15.7 21.8 L15.65 22.3 15.85 24.0 13.45 24.7 13.35 24.7 12.35 24.9 Q12.05 24.05 12.05 22.5 L12.1 22.3 13.45 22.2 14.65 22.0 14.8 22.0 14.9 22.0 14.95 21.95 15.1 21.9 15.7 21.8 M13.6 15.15 L14.0 12.8 14.45 9.7 17.05 11.4 18.2 12.2 Q16.2 13.2 13.6 15.15 M4.6 15.15 L5.0 12.8 5.45 9.7 8.05 11.4 9.2 12.2 Q7.2 13.2 4.6 15.15" fill="#906e27" fill-rule="evenodd" stroke="none"/>
    <path d="M15.7 21.8 Q17.35 21.35 18.3 20.6 L20.9 18.05 21.55 17.35 Q21.05 18.95 20.25 19.85 L17.65 22.8 15.85 23.95 15.85 24.0 15.65 22.3 15.7 21.8 M13.6 15.15 L13.2 15.45 13.3 13.65 13.25 11.65 13.4 9.45 13.2 7.9 15.1 8.55 16.45 9.6 17.85 10.85 Q18.6 11.5 19.2 11.7 L18.2 12.2 17.05 11.4 14.45 9.7 14.0 12.8 13.6 15.15 M4.6 15.15 L4.2 15.45 4.3 13.65 4.25 11.65 4.4 9.45 4.2 7.9 6.1 8.55 7.45 9.6 8.85 10.85 10.2 11.7 9.2 12.2 8.05 11.4 5.45 9.7 5.0 12.8 4.6 15.15" fill="#4a3916" fill-rule="evenodd" stroke="none"/>
    <path d="M27.2 -1.9 L-49.95 -1.9 -49.95 -24.65 27.2 -24.65 27.2 -1.9" fill="#000000" fill-opacity="0.49803922" fill-rule="evenodd" stroke="none"/>
  </g>
</svg>
