<?xml version="1.0" encoding="UTF-8" standalone="no"?>
<svg xmlns:ffdec="https://www.free-decompiler.com/flash" xmlns:xlink="http://www.w3.org/1999/xlink" ffdec:objectType="shape" height="97.2px" width="31.1px" xmlns="http://www.w3.org/2000/svg">
  <g transform="matrix(1.0, 0.0, 0.0, 1.0, 13.65, 96.7)">
    <path d="M13.2 -74.2 Q13.5 -72.9 13.5 -68.6 L13.4 -63.3 Q13.0 -60.1 11.35 -57.95 12.0 -57.75 10.9 -57.75 10.0 -57.75 9.45 -59.2 L8.4 -62.4 Q6.75 -67.15 2.85 -67.15 1.8 -67.15 1.05 -66.55 L-0.05 -65.6 Q-1.45 -67.0 -1.7 -67.65 L-1.8 -69.5 Q-1.8 -72.35 0.05 -74.7 2.7 -77.95 8.25 -78.3 12.15 -78.45 13.2 -74.2 M-4.0 -88.25 Q-4.0 -91.55 0.2 -90.35 L0.3 -89.95 0.4 -88.95 Q0.4 -87.9 -0.25 -87.05 -0.85 -86.2 -1.8 -86.2 -3.65 -86.2 -4.0 -87.15 L-4.0 -88.25 M5.0 -94.25 L4.75 -93.95 Q4.55 -93.65 3.9 -93.65 3.2 -93.65 3.0 -94.0 L2.6 -94.5 2.55 -95.1 3.2 -95.95 3.9 -96.7 5.2 -95.25 5.15 -94.6 5.0 -94.25 M5.55 -84.75 L5.65 -83.8 Q5.65 -83.0 5.25 -82.45 4.8 -81.8 3.9 -81.8 L2.85 -82.05 2.6 -82.45 2.55 -83.45 Q2.55 -84.6 2.8 -84.9 3.3 -85.75 5.45 -85.1 L5.55 -84.75 M1.4 -63.7 Q3.35 -65.05 5.4 -63.15 L7.25 -59.15 7.4 -56.4 Q7.4 -51.9 5.2 -49.05 L3.8 -46.8 3.55 -46.45 4.25 -44.1 Q5.0 -41.2 6.1 -40.0 6.5 -39.55 8.3 -38.95 9.8 -38.4 10.9 -36.3 12.2 -33.45 12.2 -32.4 L12.0 -31.0 11.85 -30.85 12.05 -30.6 12.1 -30.45 12.2 -29.95 Q12.7 -28.9 13.6 -28.35 L16.95 -23.35 Q17.45 -22.4 17.45 -18.0 L17.2 -13.8 14.15 -8.25 Q12.8 -5.9 9.9 -3.25 5.7 0.5 2.15 0.5 -6.65 0.5 -10.95 -9.15 -13.65 -15.1 -13.65 -19.75 -13.65 -22.15 -11.75 -24.75 L-9.85 -27.5 -10.45 -29.3 Q-11.0 -30.95 -11.0 -31.85 -11.0 -32.9 -9.7 -35.3 -8.4 -37.7 -8.4 -38.4 L-9.45 -41.7 Q-10.55 -44.65 -10.55 -47.15 -10.55 -51.35 -9.35 -54.55 -7.45 -59.35 -3.1 -60.8 -2.45 -61.0 1.4 -63.7 M3.55 -23.0 L3.9 -24.3 Q3.9 -25.9 2.65 -26.7 1.45 -27.5 -0.05 -27.1 -4.0 -26.05 -4.0 -19.55 L-3.9 -17.1 Q-3.55 -15.6 -2.4 -15.1 L-2.5 -15.0 Q-4.0 -13.6 -4.0 -11.95 -4.0 -10.45 -3.1 -9.3 -1.95 -7.8 0.4 -7.8 2.75 -7.8 4.35 -10.6 5.65 -12.75 5.65 -14.4 5.65 -14.95 6.5 -15.85 7.4 -16.75 7.4 -18.25 L7.25 -19.8 5.2 -21.85 3.15 -22.2 3.55 -23.0 M-2.05 -30.85 L-2.0 -30.8 -2.05 -30.9 -2.05 -30.85 M2.5 -34.8 Q0.95 -35.6 -0.5 -32.75 L-0.5 -30.35 1.7 -30.15 Q3.3 -30.15 3.7 -30.8 3.9 -31.05 3.9 -32.2 3.9 -34.05 2.5 -34.8 M10.9 -61.4 L10.9 -61.25 10.95 -61.35 10.9 -61.4 M6.05 -49.25 L5.7 -48.6 5.35 -48.3 6.05 -49.25" fill="#ff9933" fill-rule="evenodd" stroke="none"/>
    <path d="M2.5 -34.8 Q3.9 -34.05 3.9 -32.2 3.9 -31.05 3.7 -30.8 3.3 -30.15 1.7 -30.15 L-0.5 -30.35 -0.5 -32.75 Q0.95 -35.6 2.5 -34.8 M-2.05 -30.85 L-2.05 -30.9 -2.0 -30.8 -2.05 -30.85 M3.55 -23.0 L3.15 -22.2 5.2 -21.85 7.25 -19.8 7.4 -18.25 Q7.4 -16.75 6.5 -15.85 5.65 -14.95 5.65 -14.4 5.65 -12.75 4.35 -10.6 2.75 -7.8 0.4 -7.8 -1.95 -7.8 -3.1 -9.3 -4.0 -10.45 -4.0 -11.95 -4.0 -13.6 -2.5 -15.0 L-2.4 -15.1 Q-3.55 -15.6 -3.9 -17.1 L-4.0 -19.55 Q-4.0 -26.05 -0.05 -27.1 1.45 -27.5 2.65 -26.7 3.9 -25.9 3.9 -24.3 L3.55 -23.0" fill="#fdcd73" fill-rule="evenodd" stroke="none"/>
  </g>
</svg>
