<?xml version="1.0" encoding="UTF-8" standalone="no"?>
<svg xmlns:ffdec="https://www.free-decompiler.com/flash" xmlns:xlink="http://www.w3.org/1999/xlink" ffdec:objectType="shape" height="36.35px" width="31.15px" xmlns="http://www.w3.org/2000/svg">
  <g transform="matrix(1.0, 0.0, 0.0, 1.0, -2.15, -1.65)">
    <path d="M32.25 33.0 L32.75 34.15 Q32.75 35.0 32.25 35.6 31.6 36.35 30.45 36.35 L30.1 36.25 30.95 35.25 32.25 33.0 M24.75 32.0 L23.2 30.55 23.0 30.35 Q24.6 28.65 25.95 26.0 L28.45 28.5 28.35 29.6 28.55 30.8 26.4 33.2 Q25.65 32.1 24.75 32.0 M11.8 17.45 L8.2 12.4 Q9.3 10.65 9.3 9.45 L9.3 8.75 Q10.5 8.65 11.15 8.05 L12.75 9.75 Q13.2 11.4 14.9 13.8 L15.5 14.65 Q14.2 17.0 12.75 18.75 L12.4 18.25 12.0 17.65 11.8 17.45 M4.4 5.95 Q4.65 3.55 6.65 4.4 L6.0 5.35 5.75 5.4 Q5.0 5.55 4.4 5.95 M18.3 18.45 L22.4 22.5 Q21.15 24.85 19.2 26.7 L18.65 26.1 18.45 25.7 Q18.1 24.95 17.3 24.7 L15.85 22.95 17.6 19.75 18.3 18.45" fill="#ff9999" fill-rule="evenodd" stroke="none"/>
    <path d="M6.65 4.4 Q7.25 3.7 8.3 3.1 10.7 1.7 13.9 1.65 17.3 1.6 19.5 3.15 22.05 4.95 22.05 8.45 L21.9 9.6 22.45 9.45 Q29.45 7.55 29.45 13.1 29.45 16.35 27.8 21.3 L27.85 21.3 Q28.4 20.1 30.2 20.55 32.6 21.2 32.75 23.95 33.3 24.9 33.3 26.25 L33.05 29.25 32.5 30.75 32.55 31.6 32.25 33.0 30.95 35.25 30.1 36.25 Q28.35 38.0 26.1 38.0 23.65 38.0 22.8 36.35 22.35 35.55 22.35 34.5 22.35 31.95 24.5 31.95 L24.75 32.0 Q25.65 32.1 26.4 33.2 L28.55 30.8 28.35 29.6 28.45 28.5 28.55 26.15 25.95 25.95 25.95 26.0 Q24.6 28.65 23.0 30.35 20.35 33.05 16.9 33.05 13.9 33.05 13.25 31.05 L13.2 28.7 Q13.2 27.1 13.35 26.45 10.1 30.3 6.85 30.3 3.95 30.3 3.05 28.25 L2.7 26.15 Q6.6 16.8 10.35 16.8 11.2 16.8 11.8 17.45 L12.0 17.65 12.4 18.25 12.6 18.9 12.75 18.75 Q14.2 17.0 15.5 14.65 15.65 13.85 16.35 13.05 17.6 10.4 17.6 8.7 17.6 7.95 16.4 6.9 15.15 5.85 14.25 5.85 12.25 5.85 11.65 7.3 L11.15 8.05 Q10.5 8.65 9.3 8.75 L9.3 9.45 Q9.3 10.65 8.2 12.4 L8.0 12.65 Q6.55 14.85 4.9 14.85 2.85 14.85 2.3 13.45 L2.15 12.0 Q2.15 7.4 4.4 5.95 5.0 5.55 5.75 5.4 L6.0 5.35 6.65 4.4 M22.4 22.5 L23.25 20.65 Q24.4 17.75 24.75 13.8 L24.75 13.65 23.1 13.65 20.7 15.7 19.0 17.0 18.3 18.45 17.6 19.75 15.85 22.95 14.6 24.85 Q15.25 24.5 16.2 24.5 L17.3 24.7 Q18.1 24.95 18.45 25.7 L18.65 26.1 Q18.85 26.7 18.65 27.15 L19.2 26.7 Q21.15 24.85 22.4 22.5" fill="#cc6699" fill-rule="evenodd" stroke="none"/>
  </g>
</svg>
