<?xml version="1.0" encoding="UTF-8" standalone="no"?>
<svg xmlns:ffdec="https://www.free-decompiler.com/flash" xmlns:xlink="http://www.w3.org/1999/xlink" ffdec:objectType="shape" height="33.1px" width="34.8px" xmlns="http://www.w3.org/2000/svg">
  <g transform="matrix(1.0, 0.0, 0.0, 1.0, -2.25, -2.75)">
    <path d="M32.6 11.35 L33.05 11.85 Q34.85 14.0 34.85 15.05 L34.65 16.35 34.05 16.5 32.6 14.1 31.9 12.85 29.9 13.5 29.1 12.7 Q29.1 11.95 30.75 11.25 L30.9 11.2 25.25 6.65 Q21.65 6.65 20.75 7.3 L19.95 7.9 19.95 8.0 19.75 8.8 20.3 9.45 Q20.5 7.7 24.55 9.4 28.8 11.2 28.8 13.65 30.75 13.1 32.55 15.65 L32.9 17.0 33.15 18.3 Q33.15 21.85 29.1 23.1 L28.55 22.65 Q30.75 25.4 30.75 27.15 30.75 27.65 29.4 28.35 L28.65 27.55 28.5 27.6 28.25 27.7 28.25 27.85 27.75 29.25 27.95 29.6 32.7 28.65 33.35 27.7 Q35.4 24.6 35.4 23.4 L35.05 22.0 34.5 21.9 Q34.35 22.0 34.35 21.25 L34.45 21.0 34.05 20.15 Q34.05 18.35 35.15 19.5 L35.15 19.4 34.45 18.5 Q33.75 17.85 33.75 17.55 L33.75 17.15 33.9 16.95 Q36.8 17.2 36.8 19.3 L36.5 20.9 36.4 21.2 Q37.05 22.4 37.05 23.45 37.05 25.3 36.15 27.75 34.75 31.4 32.2 31.4 L31.4 31.25 31.3 31.0 28.85 31.4 29.1 33.1 Q29.1 35.55 26.3 35.55 L24.2 35.25 24.0 34.8 24.1 34.45 Q22.2 35.85 19.8 35.85 17.75 35.85 16.65 34.8 L16.0 34.05 8.8 34.7 Q7.6 34.7 7.2 33.65 6.9 33.0 7.05 32.4 5.35 31.75 3.75 28.35 L2.25 24.1 Q2.25 22.2 3.1 21.2 L2.85 20.1 2.85 17.0 Q2.85 14.1 4.8 10.7 6.75 7.3 6.75 10.0 L5.65 12.6 Q4.5 15.15 4.5 16.95 L4.6 17.5 Q5.15 12.15 9.1 11.55 L11.65 11.65 Q12.95 9.8 15.15 8.75 16.5 8.1 17.7 8.1 L15.6 6.8 Q12.05 4.5 11.9 4.5 9.8 4.5 9.0 6.3 8.1 8.4 7.8 8.55 L7.1 8.0 7.05 7.45 Q7.05 0.8 13.5 3.55 15.65 4.45 17.95 6.15 L18.65 6.7 Q19.15 3.45 25.6 5.75 32.6 8.2 32.6 11.0 L32.6 11.35 M19.7 11.85 Q19.25 11.85 18.55 10.75 17.8 9.65 17.25 9.65 14.6 9.65 13.25 12.2 L13.65 12.4 Q13.65 12.95 13.0 13.05 L12.9 13.05 12.65 13.7 Q11.0 19.1 10.5 19.55 L9.75 18.7 Q9.75 15.45 10.8 13.15 L9.2 13.2 8.1 13.15 Q7.45 13.15 7.05 13.65 6.85 14.0 6.8 14.7 L6.75 15.75 6.15 20.3 6.0 20.5 5.6 20.7 5.6 20.75 6.15 22.35 6.0 22.85 Q6.15 23.1 5.4 23.1 L4.45 22.95 Q3.9 23.9 3.9 24.2 3.9 24.95 4.6 26.3 L5.55 28.25 Q6.4 30.15 7.05 30.2 L11.45 30.45 11.6 30.6 11.7 31.15 10.85 32.0 8.55 32.55 Q8.75 33.0 9.6 33.0 13.4 33.0 16.55 31.45 L17.9 30.85 Q18.3 30.8 18.3 31.5 18.3 32.65 17.4 33.35 L17.65 33.55 Q18.2 34.05 19.9 34.05 23.85 34.05 25.25 30.75 L26.25 28.4 26.5 28.05 25.35 28.1 Q23.6 28.1 21.05 25.25 L18.9 22.5 Q18.9 20.7 20.35 22.0 L21.9 23.7 Q22.5 24.4 22.75 26.05 23.6 27.1 28.2 25.95 L28.25 25.95 27.6 24.3 Q26.15 22.1 24.85 21.05 23.85 20.2 23.85 20.45 23.85 17.45 27.3 21.2 L28.25 22.3 29.9 20.75 Q31.5 19.4 31.5 18.15 31.5 17.65 30.7 17.5 L27.55 16.9 26.85 17.6 26.2 17.05 26.1 16.65 26.3 16.05 Q26.3 15.4 26.8 14.85 L27.15 13.65 Q27.15 12.4 23.7 11.15 L20.45 9.85 20.55 10.8 20.45 11.45 20.3 11.65 19.7 11.85 M19.9 17.65 Q17.55 18.75 16.35 19.55 15.45 19.35 15.45 18.5 15.45 17.15 18.55 15.65 L21.6 15.55 Q21.6 16.65 19.9 17.65 M16.2 15.95 Q15.4 16.1 14.9 15.45 14.2 15.9 14.05 17.2 13.85 18.5 13.05 19.05 12.3 18.4 12.3 17.7 12.3 14.85 14.65 14.05 16.95 13.3 16.95 15.15 16.95 15.8 16.2 15.95 M13.05 23.3 L13.5 24.0 15.0 23.45 Q16.8 22.7 17.45 22.7 L17.6 22.9 17.7 23.45 Q17.7 24.4 14.5 25.45 15.55 26.9 16.05 26.9 17.65 26.9 18.85 26.3 L20.25 25.65 21.15 25.8 21.25 25.9 21.35 26.45 Q21.35 27.55 20.3 28.05 L15.75 28.65 Q13.25 28.65 12.15 26.15 L8.35 26.7 6.0 26.35 5.9 25.95 Q5.9 25.25 7.0 25.15 L11.7 24.5 11.4 23.1 Q11.4 20.6 13.05 23.3 M27.45 32.95 L27.15 31.7 27.0 31.25 26.8 31.2 Q25.75 33.0 24.5 34.15 L27.35 33.75 27.45 32.95" fill="#99cc33" fill-rule="evenodd" stroke="none"/>
  </g>
</svg>
