<?xml version="1.0" encoding="UTF-8" standalone="no"?>
<svg xmlns:ffdec="https://www.free-decompiler.com/flash" xmlns:xlink="http://www.w3.org/1999/xlink" ffdec:objectType="shape" height="18.75px" width="32.85px" xmlns="http://www.w3.org/2000/svg">
  <g transform="matrix(1.0, 0.0, 0.0, 1.0, 7.9, -25.0)">
    <path d="M4.0 43.25 L4.05 43.2 5.4 41.2 6.0 40.15 6.25 40.0 6.45 39.9 6.65 39.7 6.25 40.55 5.55 41.5 4.9 42.55 4.4 43.25 4.0 43.25 M6.2 43.25 L5.75 43.25 6.25 42.65 6.65 42.2 6.8 42.2 6.85 42.4 6.35 43.1 6.2 43.25 M8.5 43.25 L9.9 40.85 9.95 40.8 10.05 40.85 10.15 41.0 9.55 42.4 9.05 43.25 8.5 43.25 M14.05 43.25 L14.7 42.0 14.85 42.05 14.9 42.25 14.6 43.25 14.05 43.25 M16.3 43.25 L16.8 42.4 17.4 41.25 17.85 40.85 18.05 40.35 Q18.15 39.9 18.6 39.25 L18.75 39.15 18.95 39.15 18.95 39.2 18.8 39.2 18.75 39.45 18.8 39.65 18.9 39.7 18.65 40.2 18.65 40.3 18.5 40.5 17.85 41.55 17.6 41.95 17.25 42.55 16.9 43.25 16.3 43.25 M19.95 43.25 L20.1 42.85 20.4 41.6 20.85 39.3 22.0 35.55 22.15 35.05 23.9 28.7 24.45 26.45 24.45 29.45 23.55 32.55 23.6 32.6 23.65 33.8 23.75 34.5 23.85 34.85 23.75 35.55 23.6 36.35 23.05 37.6 22.8 37.3 22.6 37.35 22.35 37.35 22.35 36.8 21.55 39.55 21.5 39.55 21.05 41.05 20.85 41.7 20.95 41.95 21.0 41.95 21.05 42.1 21.05 43.25 20.65 43.25 20.6 43.0 20.55 42.6 20.4 43.0 20.3 43.25 19.95 43.25 M24.3 40.85 L24.45 40.35 24.45 42.5 24.35 42.9 24.25 43.15 24.25 43.25 23.7 43.25 23.8 42.85 23.9 42.25 24.3 40.85 M24.4 43.25 L24.4 43.2 24.45 43.2 24.45 43.25 24.4 43.25" fill="#70665a" fill-rule="evenodd" stroke="none"/>
    <path d="M15.95 39.05 L16.0 38.9 16.3 38.05 17.1 35.55 20.15 25.5 24.3 25.5 24.45 25.45 24.45 26.45 23.9 28.7 22.15 35.05 22.0 35.55 20.85 39.3 20.4 41.6 20.1 42.85 19.95 43.25 18.75 43.25 19.0 42.15 19.1 41.75 19.25 40.4 19.2 39.55 19.1 39.55 19.15 39.45 19.1 39.25 18.95 39.2 18.95 39.15 18.75 39.15 18.55 39.15 18.45 39.1 17.2 39.05 17.1 39.05 16.9 39.0 16.6 39.05 16.55 39.05 16.5 39.0 16.05 39.05 15.95 39.05 M18.65 40.3 L18.6 40.5 18.5 40.5 18.65 40.3" fill="#665e53" fill-rule="evenodd" stroke="none"/>
    <path d="M20.3 43.25 L20.4 43.0 20.6 43.0 20.65 43.25 20.3 43.25 M21.05 43.25 L21.05 42.1 21.0 41.95 20.95 41.95 20.85 41.7 21.05 41.05 21.5 39.55 21.55 39.55 22.35 36.8 22.35 37.35 22.6 37.35 22.8 37.3 23.05 37.6 23.6 36.35 23.75 35.55 23.85 34.85 23.75 34.5 23.65 33.8 23.6 32.6 23.55 32.55 24.45 29.45 24.45 40.35 24.3 40.85 23.9 42.25 23.65 43.25 21.05 43.25" fill="#817567" fill-rule="evenodd" stroke="none"/>
    <path d="M24.45 40.35 L24.3 40.85 24.45 40.35 M23.9 42.25 L23.8 42.85 23.7 43.25 23.65 43.25 23.9 42.25 M24.35 42.9 L24.45 42.5 24.45 43.2 24.4 43.2 24.35 42.9" fill="#c2bcb4" fill-rule="evenodd" stroke="none"/>
    <path d="M7.55 39.3 L10.15 39.2 10.3 39.2 12.85 39.15 15.4 39.05 15.95 39.05 16.05 39.05 16.5 39.0 16.55 39.05 16.6 39.05 16.9 39.0 17.1 39.05 17.2 39.05 18.45 39.1 18.55 39.15 18.75 39.15 18.6 39.25 Q18.15 39.9 18.05 40.35 L17.85 40.85 17.4 41.25 16.8 42.4 16.3 43.25 14.6 43.25 14.9 42.25 14.85 42.05 14.7 42.0 14.05 43.25 9.05 43.25 9.55 42.4 10.15 41.0 10.05 40.85 9.95 40.8 9.9 40.85 8.5 43.25 6.2 43.25 6.35 43.1 6.85 42.4 6.8 42.2 6.65 42.2 6.25 42.65 5.75 43.25 4.4 43.25 4.9 42.55 5.55 41.5 6.25 40.55 6.65 39.7 6.65 39.65 Q6.75 39.45 7.05 39.35 L7.55 39.3" fill="#8f8374" fill-rule="evenodd" stroke="none"/>
    <path d="M15.1 25.55 L12.5 25.55 -6.1 25.6 -7.65 25.6 -7.8 25.55 -7.9 25.35 -7.8 25.2 -7.65 25.1 24.3 25.0 24.5 25.1 24.55 25.25 24.5 25.45 24.45 25.45 24.3 25.5 20.15 25.5 17.1 35.55 16.3 38.05 16.0 38.9 15.95 39.05 15.4 39.05 15.45 38.9 15.45 38.75 15.8 38.0 16.05 37.4 16.1 37.25 19.5 25.5 15.1 25.55" fill="#25221b" fill-rule="evenodd" stroke="none"/>
    <path d="M10.3 39.2 L10.7 37.4 11.0 36.25 11.2 35.55 11.45 35.0 15.1 25.55 19.5 25.5 16.1 37.25 16.05 37.4 15.8 38.0 15.45 38.75 15.45 38.9 15.4 39.05 12.85 39.15 10.3 39.2" fill="#37332d" fill-rule="evenodd" stroke="none"/>
    <path d="M7.55 39.3 L9.05 35.55 9.85 33.7 10.7 30.65 Q11.2 28.7 11.7 27.65 L12.25 26.2 12.5 25.55 15.1 25.55 11.45 35.0 11.2 35.55 11.0 36.25 10.7 37.4 10.3 39.2 10.15 39.2 7.55 39.3" fill="#484239" fill-rule="evenodd" stroke="none"/>
    <path d="M12.5 25.55 L12.25 26.2 11.7 27.65 Q11.2 28.7 10.7 30.65 L9.85 33.7 9.05 35.55 7.55 39.3 7.05 39.35 Q6.75 39.45 6.65 39.65 L6.65 39.7 6.45 39.9 6.25 40.0 6.0 40.15 5.4 41.2 4.05 43.2 4.0 43.25 -6.1 43.25 -6.1 25.6 12.5 25.55" fill="#575046" fill-rule="evenodd" stroke="none"/>
    <path d="M18.65 40.3 L18.65 40.2 18.9 39.7 18.8 39.65 18.75 39.45 18.8 39.2 18.95 39.2 19.1 39.25 19.15 39.45 19.1 39.55 19.2 39.55 19.25 40.4 19.1 41.75 19.0 42.15 18.75 43.25 16.9 43.25 17.25 42.55 17.6 41.95 17.85 41.55 18.5 40.5 18.6 40.5 18.65 40.3 M24.25 43.25 L24.25 43.15 24.4 43.2 24.4 43.25 24.25 43.25" fill="#aba296" fill-rule="evenodd" stroke="none"/>
    <path d="M20.4 43.0 L20.55 42.6 20.6 43.0 20.4 43.0 M24.25 43.15 L24.35 42.9 24.4 43.2 24.25 43.15" fill="#d6d2cd" fill-rule="evenodd" stroke="none"/>
    <path d="M24.45 40.35 L24.3 40.85 23.9 42.25 23.65 43.25" fill="none" stroke="#a2978a" stroke-linecap="round" stroke-linejoin="round" stroke-width="1.0"/>
  </g>
</svg>
