<?xml version="1.0" encoding="UTF-8" standalone="no"?>
<svg xmlns:ffdec="https://www.free-decompiler.com/flash" xmlns:xlink="http://www.w3.org/1999/xlink" ffdec:objectType="shape" height="65.1px" width="51.5px" xmlns="http://www.w3.org/2000/svg">
  <g transform="matrix(1.0, 0.0, 0.0, 1.0, 4.65, 17.8)">
    <path d="M44.95 -8.75 Q43.1 -11.65 37.7 -14.0 L37.65 -12.6 Q37.65 -11.8 37.3 -11.45 L36.1 -12.85 Q35.2 -13.85 34.55 -14.25 L31.7 -15.65 Q29.4 -16.6 27.9 -16.35 27.9 -15.65 28.6 -14.75 L29.25 -13.65 29.2 -13.35 29.15 -13.4 28.75 -13.35 Q28.5 -13.35 27.75 -13.9 L26.2 -15.05 23.85 -16.15 Q21.6 -17.05 19.25 -17.05 L18.85 -16.75 18.8 -16.15 19.25 -15.5 19.65 -14.85 19.6 -14.55 19.55 -14.5 18.8 -14.5 15.85 -15.55 12.4 -16.3 Q11.4 -16.3 10.9 -15.7 10.6 -15.25 10.6 -14.8 10.6 -14.35 11.55 -14.0 12.45 -13.6 12.45 -13.35 L12.4 -13.0 11.65 -13.0 Q7.15 -13.85 4.6 -12.9 3.75 -12.55 3.25 -12.1 L2.9 -11.55 Q2.9 -11.2 3.8 -10.95 L4.8 -10.4 4.7 -10.1 4.65 -10.05 Q1.1 -10.0 -0.45 -8.75 -1.4 -7.95 -1.4 -6.8 -1.4 -6.5 -0.25 -6.15 1.1 -5.75 1.5 -5.15 0.15 -5.25 -1.95 -3.35 L-3.4 -1.9 -3.95 -0.75 -3.95 -0.55 -3.95 -0.5 -3.9 -0.55 -2.5 -0.4 -1.7 -0.4 -1.05 -0.25 -2.05 2.1 Q-2.6 3.3 -2.6 4.15 L-2.55 5.25 -2.0 4.85 Q-1.45 4.5 -1.3 4.5 L-0.95 4.6 -0.85 4.8 -1.7 6.45 -2.25 8.1 -2.15 8.5 -0.55 8.8 -0.95 9.9 -1.4 11.25 -1.2 11.55 -0.8 11.6 Q-0.15 11.7 -0.05 12.8 L0.05 13.75 0.15 14.55 Q0.15 15.65 -0.3 16.35 -0.9 17.25 -2.35 17.75 L-2.4 17.8 -2.6 17.85 -3.85 17.85 -3.25 18.35 Q-2.25 18.95 -0.2 18.95 1.85 18.95 2.9 18.05 L3.55 17.35 4.0 16.75 Q4.65 16.3 4.95 15.45 L5.2 14.2 5.45 11.65 5.85 10.1 5.8 10.0 5.9 9.65 6.05 9.65 6.4 8.75 6.45 8.65 6.85 7.7 Q7.5 6.2 8.3 5.4 L8.55 5.05 9.55 3.7 10.85 2.35 12.0 1.2 12.4 0.55 13.6 -0.05 14.75 -0.6 15.4 -1.15 19.25 -2.45 24.45 -2.6 28.8 -1.95 Q30.65 -1.45 31.15 -1.1 L31.85 -0.75 Q32.2 -0.45 33.0 -0.1 L33.2 -0.05 33.3 0.0 34.25 0.3 34.5 0.4 35.65 0.85 35.85 0.95 36.0 1.0 38.8 1.8 39.45 1.85 40.5 1.8 41.35 1.65 41.8 1.55 42.5 1.05 44.15 -0.6 Q45.85 -2.85 45.85 -5.55 45.85 -7.2 44.95 -8.75 M-2.85 19.2 L-3.2 19.05 Q-4.45 18.5 -4.45 17.9 L-4.45 17.75 -4.45 17.5 -4.4 17.2 -4.35 17.15 Q-2.2 17.25 -1.2 16.2 -0.55 15.45 -0.55 14.5 L-0.6 13.65 -0.7 12.6 -2.0 12.15 -2.1 11.35 -1.75 9.35 Q-2.6 9.55 -2.85 8.9 L-2.95 8.2 -2.85 7.35 -2.4 6.1 Q-3.05 6.15 -3.2 5.45 L-3.25 4.35 -3.25 2.75 -2.25 0.45 -4.35 0.05 Q-4.65 -0.1 -4.65 -0.65 -4.65 -1.5 -3.05 -3.3 -1.4 -5.15 -0.35 -5.3 L-1.45 -5.8 Q-2.1 -6.15 -2.1 -6.8 -2.1 -8.05 -1.2 -8.9 -0.2 -9.85 2.55 -10.8 2.15 -10.9 2.1 -11.15 L2.05 -11.45 2.3 -12.1 Q2.65 -12.7 3.4 -13.1 5.5 -14.3 9.95 -14.05 9.45 -14.75 10.3 -15.9 11.15 -17.1 12.3 -17.1 L14.85 -16.5 18.2 -15.6 Q17.9 -16.95 18.75 -17.5 L21.0 -17.65 Q22.2 -17.45 24.4 -16.5 L27.2 -15.3 27.3 -16.85 28.6 -17.1 Q31.2 -17.1 33.9 -15.45 35.85 -14.3 36.95 -13.0 L36.95 -13.1 37.0 -14.6 37.55 -14.7 Q38.4 -14.7 39.9 -13.9 41.45 -13.1 42.9 -11.85 46.55 -8.65 46.55 -5.55 L46.5 -3.6 45.7 -1.3 45.25 -0.65 45.15 -0.5 45.1 -0.5 45.1 -0.45 44.45 0.25 44.4 0.35 44.3 0.55 44.3 0.6 44.25 0.65 44.15 0.8 43.6 1.4 Q42.15 2.6 39.45 2.6 L38.9 2.55 35.4 1.55 34.75 1.3 34.65 1.25 34.7 1.35 34.7 1.4 34.05 1.4 34.05 1.55 Q33.45 1.8 32.7 3.2 L32.15 4.1 34.85 5.8 Q35.95 6.7 35.95 7.15 L35.9 7.45 35.8 7.5 35.7 7.55 35.75 7.55 38.4 9.4 Q39.7 10.45 40.45 11.55 41.2 12.6 41.25 13.3 L41.25 13.35 41.2 13.65 41.05 13.7 41.05 13.8 39.3 18.55 39.2 18.85 38.4 20.8 Q37.1 23.85 36.7 23.85 L36.65 23.8 36.65 23.85 36.8 25.05 Q36.8 26.4 35.95 27.35 L35.35 28.15 Q35.05 28.65 35.05 29.4 35.05 30.1 35.5 31.25 L35.95 33.3 35.9 34.45 36.2 34.35 36.3 34.35 36.45 34.3 37.75 34.25 Q38.4 34.4 38.9 34.85 L39.25 35.25 39.2 35.3 39.3 35.45 40.8 37.3 41.4 38.75 41.45 39.0 Q42.35 39.65 42.35 40.2 L42.15 40.55 Q42.15 40.05 41.8 39.8 41.4 39.55 41.4 40.05 L41.55 40.65 41.55 40.95 41.4 41.0 Q40.9 41.0 40.7 39.85 L40.7 39.65 40.65 39.4 40.55 39.35 Q38.7 38.1 36.7 38.1 L36.2 38.15 36.1 38.2 36.0 38.25 35.85 38.25 Q34.15 38.55 32.9 39.1 L31.55 39.9 31.45 39.95 30.8 40.25 30.9 40.25 31.3 40.5 31.4 40.55 31.6 40.7 31.95 40.9 32.15 41.1 32.35 41.25 32.3 41.3 33.2 42.35 34.95 43.95 34.25 44.25 32.7 42.8 31.75 41.65 31.7 41.65 31.6 41.55 Q30.15 40.5 27.75 40.05 L26.4 39.8 26.05 39.75 25.95 39.7 25.9 39.65 24.15 41.8 23.1 42.95 22.95 43.05 22.05 44.0 21.15 45.7 20.1 45.9 20.25 45.55 21.75 43.05 22.8 41.9 23.65 41.15 24.05 40.75 24.3 40.4 24.35 40.35 24.95 39.5 25.05 39.4 25.2 39.25 24.85 39.25 23.8 39.25 23.35 39.35 23.1 39.4 23.1 39.5 23.05 39.5 23.05 39.4 22.6 39.4 22.35 39.4 21.7 39.4 21.35 39.4 21.25 39.1 Q21.55 38.75 21.95 38.6 L22.05 38.55 21.9 38.45 21.7 38.3 21.6 38.2 20.15 37.1 18.7 35.85 17.45 34.6 17.45 34.4 16.2 34.2 16.8 36.35 17.1 39.1 17.4 39.85 17.6 40.5 17.95 41.55 18.55 43.85 18.6 44.1 18.65 44.4 18.3 45.25 Q18.0 45.55 16.9 46.05 L14.75 46.9 13.7 47.25 12.35 47.25 12.25 47.25 12.1 47.15 12.0 47.1 11.5 42.4 11.4 41.65 11.35 41.25 11.3 41.0 11.3 40.9 11.25 40.85 10.85 37.7 10.6 34.45 10.65 34.15 10.2 34.2 10.25 34.5 10.25 34.7 10.4 35.75 10.45 37.35 10.25 40.25 10.1 44.65 10.1 47.1 9.3 47.05 9.3 46.85 8.95 47.05 8.25 47.05 7.55 46.8 8.4 46.55 8.7 46.4 9.3 46.25 9.4 42.95 9.55 40.8 9.75 38.6 9.7 36.4 Q9.7 35.55 9.85 34.95 L9.7 34.85 9.55 34.8 9.6 34.3 9.0 34.45 8.85 34.45 Q7.5 34.75 7.25 35.0 7.05 35.15 6.75 35.65 L6.15 36.45 5.65 37.0 6.1 37.25 6.15 37.9 6.15 37.95 6.1 38.45 6.1 38.55 5.95 39.4 5.95 39.75 5.85 40.9 5.8 41.4 5.85 43.35 5.8 45.15 5.75 46.15 5.0 45.85 5.1 44.0 5.1 42.65 5.1 41.2 5.15 40.5 5.2 40.3 5.3 39.5 5.45 38.25 5.3 37.8 5.15 37.55 Q4.3 38.7 4.05 39.95 L3.15 43.3 2.85 45.15 2.35 45.0 2.65 43.2 2.65 43.05 3.4 39.35 Q3.55 38.7 4.4 37.5 L5.75 35.75 6.45 34.85 6.5 34.75 6.65 34.6 7.15 34.3 7.15 34.25 7.2 34.25 7.25 34.2 7.3 34.2 Q8.9 33.35 11.4 33.3 L15.15 33.35 15.55 33.35 16.9 33.35 18.7 33.8 18.75 33.8 18.75 33.85 18.9 33.85 21.5 35.1 22.3 35.55 20.0 33.2 19.8 33.05 18.75 32.25 17.45 31.95 16.05 31.7 15.0 31.55 14.95 31.55 14.2 31.4 10.65 31.1 Q10.5 31.1 8.65 31.95 L7.5 32.55 5.95 33.55 5.4 34.15 4.45 35.25 3.3 37.05 2.65 38.85 1.95 40.65 1.75 41.05 1.7 41.15 1.5 41.55 1.2 42.45 1.0 43.45 0.85 43.75 0.85 44.6 0.1 44.45 0.1 43.75 0.15 42.8 0.15 42.4 Q0.15 39.85 0.3 38.95 L0.45 37.95 -0.05 37.15 -0.7 40.7 -0.75 40.75 -1.2 42.3 -1.7 44.1 -2.45 43.95 -2.0 42.7 -1.45 41.3 -1.0 38.2 -0.6 36.1 -0.8 35.6 -0.85 33.5 Q-0.85 31.4 -0.4 29.8 L-0.3 29.55 -0.1 29.15 -0.15 29.0 Q0.45 27.45 1.5 26.6 L-0.45 24.7 -0.7 24.25 -0.8 23.8 -0.85 23.1 Q-0.85 22.0 -0.55 21.75 L0.1 21.65 0.25 21.65 0.9 21.6 2.1 21.45 2.55 21.25 Q2.75 21.1 3.0 21.05 L3.4 20.75 4.9 19.45 6.1 18.1 7.8 15.2 8.55 13.85 9.2 12.25 9.45 11.5 9.3 11.5 9.2 11.5 8.7 11.45 8.45 11.45 8.15 11.35 6.9 10.85 6.5 10.65 6.4 10.9 5.95 12.2 5.95 13.35 5.95 13.55 5.8 14.9 5.2 16.35 4.45 17.5 3.7 18.35 3.6 18.4 0.7 19.65 0.65 19.65 0.6 19.7 -0.2 19.7 -2.4 19.4 -2.65 19.2 -2.85 19.2 M29.8 0.55 L30.3 -0.45 30.4 -0.75 30.3 -0.8 29.1 -1.25 22.6 -1.95 Q19.35 -1.95 17.15 -1.15 L15.4 -0.15 13.8 0.55 Q12.95 1.05 12.45 1.9 L11.25 3.25 10.1 4.25 Q9.75 4.55 8.95 5.9 L8.2 6.8 8.05 7.05 7.35 8.0 7.05 9.15 6.85 9.6 6.8 9.8 7.4 10.05 7.9 10.25 8.25 10.4 8.9 10.7 9.6 11.05 10.45 9.25 Q11.35 7.7 13.05 6.2 14.45 4.75 16.65 3.45 19.9 1.5 22.05 2.0 25.45 1.8 28.65 2.75 L29.4 1.35 29.8 0.55 M31.2 -0.3 L30.85 -0.2 30.8 -0.1 Q30.8 0.65 30.1 2.05 L29.55 3.0 31.35 3.75 32.35 2.3 32.85 1.3 33.25 1.05 32.1 0.25 31.2 -0.3 M36.95 22.25 L37.3 21.75 37.5 21.35 38.15 19.55 38.2 19.55 39.3 17.45 39.6 16.55 39.95 15.65 40.35 14.8 40.65 13.9 40.6 13.55 40.65 13.5 40.7 13.45 40.7 13.4 40.45 13.0 40.15 12.55 40.05 12.45 39.55 11.65 39.55 11.6 38.75 10.6 37.6 9.55 36.95 9.1 36.75 9.0 34.0 7.65 33.9 7.6 33.35 7.4 Q31.95 6.85 30.55 6.55 L26.55 6.1 Q24.1 6.1 21.9 6.95 L20.65 7.55 20.5 7.6 20.0 7.85 18.15 9.1 17.0 9.65 16.9 9.6 16.8 9.75 16.65 9.65 16.65 9.55 16.65 9.35 Q16.65 8.35 16.0 7.75 L15.5 7.6 Q15.35 7.6 15.3 7.75 L14.95 7.85 14.6 7.95 14.1 8.3 Q13.5 8.85 12.95 10.05 L12.8 10.5 12.15 13.4 12.15 13.5 12.15 13.75 12.15 14.05 12.15 14.15 12.15 14.35 12.15 14.65 12.15 14.8 12.25 15.2 12.3 15.25 12.3 15.4 12.65 15.75 12.8 15.95 13.7 16.05 14.1 15.95 14.5 15.7 14.6 15.65 15.05 15.15 15.05 15.1 15.1 15.15 15.15 15.1 15.15 15.15 Q17.65 15.2 21.25 16.0 24.65 16.75 28.15 18.0 31.6 19.15 33.75 20.35 35.85 21.5 36.1 22.25 L36.35 22.85 36.95 22.25 M39.6 38.05 L40.75 39.3 40.95 39.2 41.05 39.0 Q41.05 38.4 39.5 36.75 L38.55 35.9 38.5 35.85 38.35 35.55 Q37.95 35.05 37.5 35.05 L36.55 35.25 35.6 35.5 35.4 35.5 35.25 35.75 35.2 35.85 34.9 36.35 33.75 37.85 33.85 37.95 34.25 37.7 37.0 37.35 36.85 37.5 Q38.25 37.55 39.6 38.05 M32.5 5.25 L32.0 5.0 31.6 4.85 29.8 3.95 29.75 3.95 Q26.65 2.7 21.3 2.7 L21.25 2.7 Q20.15 2.7 18.55 3.35 16.85 4.0 15.25 5.2 11.2 8.15 9.9 12.35 9.55 13.7 8.8 15.05 L7.05 17.9 7.0 18.0 6.2 19.0 6.1 19.15 5.95 19.35 5.85 19.4 5.15 20.15 5.1 20.2 5.05 20.3 4.45 20.85 Q2.3 22.7 0.3 22.6 L-0.2 22.5 -0.2 23.65 1.0 25.05 1.65 25.7 1.95 24.85 2.05 24.7 Q2.35 24.15 3.05 23.85 4.25 23.0 5.85 22.7 L6.65 22.6 6.75 22.55 7.75 22.5 8.65 22.55 8.7 22.55 9.85 22.65 9.9 22.65 11.55 19.6 13.0 16.85 12.25 16.35 12.1 16.2 12.05 16.15 12.05 16.1 12.0 16.05 11.85 15.85 11.5 15.2 11.45 14.4 11.45 13.9 Q11.45 12.95 11.75 11.55 12.05 9.9 12.55 9.25 L12.8 8.95 13.25 8.35 13.45 8.2 13.8 7.85 Q13.95 7.7 14.05 7.65 L15.35 7.1 15.45 7.1 15.8 7.1 Q16.4 7.25 16.75 7.75 17.1 8.25 17.1 8.85 17.65 8.35 18.55 7.85 18.6 7.8 21.0 6.65 L22.65 5.95 24.25 5.4 24.4 5.35 28.2 5.4 28.35 5.4 28.55 5.45 29.65 5.55 30.45 5.65 30.45 5.7 30.65 5.75 31.15 6.05 32.15 6.4 32.55 6.45 33.2 6.55 33.5 6.65 34.45 6.95 34.85 7.1 34.9 7.15 34.95 7.15 35.05 7.2 34.3 6.25 33.85 6.0 33.75 5.9 33.2 5.55 33.05 5.5 32.85 5.4 32.5 5.25 M25.55 19.75 L25.7 19.7 26.3 19.2 26.45 19.05 26.4 19.05 25.8 18.45 25.05 18.0 24.6 17.6 23.7 17.4 23.05 17.25 23.05 17.35 23.1 17.55 23.1 18.1 23.1 18.15 23.2 18.65 23.7 19.55 24.8 19.8 25.1 19.8 25.55 19.75 M22.4 23.9 L22.4 23.85 22.65 22.85 22.95 21.5 Q22.95 20.7 22.45 20.15 L21.4 19.25 20.35 18.2 Q19.9 17.5 19.85 16.6 L19.35 16.5 19.25 16.5 19.05 16.45 19.0 16.45 16.0 15.95 15.8 16.6 14.85 19.25 13.5 22.75 13.95 23.4 14.0 23.5 15.55 25.35 16.15 26.3 16.85 27.35 18.05 29.1 20.4 31.9 20.8 32.3 20.95 32.45 21.15 32.65 21.75 33.25 22.85 34.35 23.3 34.8 23.35 34.85 23.35 34.75 Q23.75 33.45 24.5 31.8 25.0 30.75 25.0 29.15 L24.9 27.9 Q24.75 27.3 23.95 26.6 L23.1 25.35 22.45 24.1 22.4 23.9 M32.25 28.95 L32.7 28.0 32.75 27.8 31.65 26.5 30.2 25.05 29.15 24.4 27.7 24.0 23.35 22.95 23.1 23.9 23.25 24.6 23.5 24.9 24.4 25.85 24.55 26.0 24.7 26.2 25.1 26.85 25.1 26.9 25.55 28.25 25.65 29.2 25.65 30.7 25.5 31.65 24.95 32.75 26.05 33.1 26.45 33.3 27.7 33.6 Q29.9 33.15 30.5 32.6 L30.95 32.0 31.2 31.5 31.3 31.2 31.6 30.6 31.95 29.65 32.25 29.0 32.25 28.95 M32.45 21.35 Q32.15 21.4 32.05 21.6 L32.0 21.85 32.1 22.2 Q32.25 22.4 32.5 22.4 L32.95 22.15 32.95 21.95 Q32.95 21.35 32.45 21.35 M30.6 39.4 L31.05 39.05 31.95 38.65 34.0 36.05 Q35.25 34.45 35.25 33.4 L34.8 31.6 Q34.4 30.45 34.4 29.35 34.4 28.0 35.25 26.95 L35.85 26.2 36.1 25.05 35.7 23.5 35.65 23.4 35.6 23.45 35.3 24.5 34.9 25.35 33.25 28.3 32.55 30.15 31.8 32.1 Q30.8 33.95 28.6 34.25 L29.65 36.3 30.45 38.9 30.45 39.3 30.45 39.4 30.45 39.55 30.6 39.4 M2.55 25.3 L2.35 26.1 Q5.05 25.2 6.45 25.0 L11.8 25.35 12.45 25.6 13.7 26.2 14.7 26.7 14.75 26.75 14.85 26.75 15.45 27.1 15.65 27.2 15.75 27.3 15.65 27.1 15.6 27.1 15.1 26.3 15.0 26.25 14.95 26.15 14.95 26.1 14.9 26.05 13.35 23.85 13.3 23.85 12.75 23.75 12.6 23.75 12.45 23.75 12.4 23.75 10.85 23.6 10.6 23.55 8.3 23.4 6.0 23.55 Q3.85 23.85 2.95 24.8 L2.55 25.3 M11.75 27.2 Q12.5 27.25 12.65 27.75 L14.6 28.15 Q14.95 28.3 15.5 28.7 L16.4 29.2 17.05 29.5 16.9 29.3 16.1 28.55 15.5 28.05 Q15.3 27.8 14.6 27.5 L13.7 27.05 12.7 26.45 11.75 26.15 10.35 26.05 6.35 25.95 4.85 25.95 3.6 26.25 Q2.35 26.7 1.75 27.3 L1.1 28.3 0.5 29.35 Q-0.05 30.25 -0.15 31.5 L-0.2 33.55 Q-0.2 34.75 0.3 36.15 L0.6 36.9 0.7 37.1 1.6 34.15 Q2.0 32.9 2.55 31.95 3.45 30.55 4.6 30.0 L6.05 28.95 Q6.85 28.3 7.65 28.2 L7.75 28.15 11.3 27.2 11.75 27.2 M15.85 30.9 L16.5 31.0 17.8 31.15 16.05 29.95 15.35 29.5 14.05 28.95 13.05 28.65 12.05 28.45 11.9 28.45 11.4 28.35 11.35 28.35 11.15 28.3 10.45 28.3 10.35 28.3 9.2 28.45 Q8.0 28.75 6.8 29.45 L4.35 31.1 Q3.3 31.65 2.75 32.95 L2.05 34.95 Q1.55 35.95 1.2 38.8 L0.95 40.55 1.65 38.95 2.15 37.7 2.65 36.65 3.4 35.45 4.25 34.35 Q5.2 32.95 6.9 32.05 L10.05 30.6 10.1 30.6 11.8 30.45 11.9 30.45 12.0 30.45 12.05 30.45 12.25 30.45 13.85 30.6 14.35 30.7 15.85 30.9 M11.6 36.65 L11.65 36.8 11.65 36.85 11.65 36.95 11.75 38.3 11.9 39.45 11.9 39.75 11.95 39.85 11.95 40.0 12.0 40.0 12.0 40.1 12.15 41.7 12.2 41.85 12.2 41.9 12.25 42.05 12.35 41.95 12.6 41.8 12.75 41.75 Q13.15 41.55 14.05 41.3 L16.8 40.8 17.05 40.8 16.85 40.05 16.2 37.7 16.0 36.85 15.85 35.85 15.8 35.75 15.75 35.1 15.75 35.0 15.75 34.8 15.8 34.3 15.85 34.15 13.1 34.05 11.0 34.1 11.4 35.35 11.6 36.65 M19.75 35.15 L18.75 34.75 19.2 35.1 20.55 36.35 21.85 37.45 Q22.25 37.5 22.65 37.85 L22.8 37.95 24.15 38.35 24.35 38.35 24.15 38.05 24.1 38.0 23.95 37.9 22.2 36.65 22.15 36.55 22.1 36.55 Q20.8 35.65 19.85 35.2 L19.8 35.15 19.75 35.15 M17.75 43.3 L17.7 43.1 17.3 41.55 17.25 41.5 17.25 41.45 16.1 41.5 14.2 42.05 13.05 42.5 12.3 42.85 12.35 43.2 12.4 43.45 12.4 43.6 12.4 43.85 12.4 43.95 12.45 44.05 12.6 45.75 12.65 45.85 12.65 46.0 12.65 46.4 12.55 46.75 12.5 46.9 Q13.25 46.5 15.6 45.8 17.95 45.1 17.95 44.45 L17.95 44.4 17.9 44.1 17.75 43.3 M27.45 36.7 L27.3 36.35 27.25 36.35 27.25 36.3 27.2 36.25 26.55 35.5 26.45 35.4 25.35 34.45 24.4 33.7 23.6 35.3 23.5 35.45 23.5 35.4 23.4 35.4 23.45 35.45 24.1 36.15 24.1 36.25 24.45 36.65 Q25.0 37.3 25.0 37.65 L24.95 37.85 24.95 37.9 25.0 37.95 25.2 38.15 25.5 38.55 25.65 38.6 25.8 38.85 25.95 38.8 26.0 38.95 26.0 39.25 26.0 39.35 26.15 39.35 27.55 39.4 27.6 39.45 27.6 39.35 27.6 39.25 27.65 38.6 27.65 38.55 27.7 37.7 27.65 37.7 27.45 36.7 M27.8 34.3 L27.3 34.1 26.4 34.1 26.9 34.55 Q27.7 35.3 28.4 36.75 L28.4 37.05 28.55 36.9 Q28.75 36.7 29.0 36.6 L28.45 35.5 27.9 34.3 27.8 34.3 M28.4 37.9 L28.4 39.5 29.8 39.85 29.25 37.3 Q28.9 37.9 28.4 37.9" fill="#000000" fill-rule="evenodd" stroke="none"/>
    <path d="M-3.95 -0.55 L-3.95 -0.75 -3.4 -1.9 -1.95 -3.35 Q0.15 -5.25 1.5 -5.15 1.1 -5.75 -0.25 -6.15 -1.4 -6.5 -1.4 -6.8 -1.4 -7.95 -0.45 -8.75 1.1 -10.0 4.65 -10.05 L4.7 -10.1 4.8 -10.4 3.8 -10.95 Q2.9 -11.2 2.9 -11.55 L3.25 -12.1 Q3.75 -12.55 4.6 -12.9 7.15 -13.85 11.65 -13.0 L12.4 -13.0 12.45 -13.35 Q12.45 -13.6 11.55 -14.0 10.6 -14.35 10.6 -14.8 10.6 -15.25 10.9 -15.7 11.4 -16.3 12.4 -16.3 L15.85 -15.55 18.8 -14.5 19.55 -14.5 19.6 -14.55 19.65 -14.85 19.25 -15.5 18.8 -16.15 18.85 -16.75 19.25 -17.05 Q21.6 -17.05 23.85 -16.15 L26.2 -15.05 27.75 -13.9 Q28.5 -13.35 28.75 -13.35 L29.15 -13.4 29.2 -13.35 29.25 -13.65 28.6 -14.75 Q27.9 -15.65 27.9 -16.35 29.4 -16.6 31.7 -15.65 L34.55 -14.25 Q35.2 -13.85 36.1 -12.85 L37.3 -11.45 Q37.65 -11.8 37.65 -12.6 L37.7 -14.0 Q43.1 -11.65 44.95 -8.75 L44.95 -8.65 45.2 -7.35 Q45.2 -5.0 44.25 -3.35 43.4 -1.9 41.95 -0.75 40.55 0.35 39.65 0.35 L37.85 -0.1 35.05 -0.5 Q33.55 -0.5 33.2 -0.1 L33.2 -0.05 33.0 -0.1 Q32.2 -0.45 31.85 -0.75 L31.15 -1.1 Q30.65 -1.45 28.8 -1.95 L24.45 -2.6 19.25 -2.45 15.4 -1.15 14.75 -0.6 13.6 -0.05 12.4 0.55 12.0 1.2 10.85 2.35 9.55 3.7 8.55 5.05 8.3 5.4 Q7.5 6.2 6.85 7.7 L6.45 8.65 6.4 8.65 6.15 8.35 5.6 9.4 4.85 10.9 Q4.3 12.0 4.15 13.4 L3.85 14.65 3.0 15.9 1.95 17.1 Q0.95 18.1 -0.05 18.1 L-2.15 17.8 -2.35 17.75 Q-0.9 17.25 -0.3 16.35 0.15 15.65 0.15 14.55 L0.05 13.75 -0.05 12.8 Q-0.15 11.7 -0.8 11.6 L-1.2 11.55 -1.4 11.25 -0.95 9.9 -0.55 8.8 -2.15 8.5 -2.25 8.1 -1.7 6.45 -0.85 4.8 -0.95 4.6 -1.3 4.5 Q-1.45 4.5 -2.0 4.85 L-2.55 5.25 -2.6 4.15 Q-2.6 3.3 -2.05 2.1 L-1.05 -0.25 -1.7 -0.4 -2.5 -0.4 -3.9 -0.55 -3.95 -0.55 M40.5 1.8 L39.45 1.85 38.8 1.8 39.0 1.7 39.05 1.55 39.6 1.65 40.6 1.75 40.35 1.75 40.5 1.8 M35.85 0.95 L35.65 0.85 34.5 0.4 34.8 0.45 35.25 0.6 35.85 0.95" fill="#11111e" fill-rule="evenodd" stroke="none"/>
    <path d="M17.45 31.95 L18.75 32.25 19.8 33.05 20.0 33.2 22.3 35.55 21.5 35.1 18.9 33.85 18.75 33.85 18.75 33.8 18.65 33.05 18.3 32.5 17.65 32.1 17.45 31.95 M7.4 10.05 L6.8 9.8 6.85 9.6 7.05 9.15 7.35 8.0 8.05 7.05 8.2 6.8 8.95 5.9 Q9.75 4.55 10.1 4.25 L11.25 3.25 12.45 1.9 Q12.95 1.05 13.8 0.55 L15.4 -0.15 17.15 -1.15 Q19.35 -1.95 22.6 -1.95 L29.1 -1.25 30.3 -0.8 30.4 -0.75 30.3 -0.45 29.8 0.55 29.35 0.35 27.75 -0.35 26.95 -0.7 24.4 -1.0 22.3 -0.9 20.55 -0.75 19.35 -0.6 19.2 -0.4 18.9 -0.15 18.5 -0.1 17.95 0.1 17.8 0.25 17.7 0.4 17.05 0.8 16.1 1.1 Q14.75 1.45 13.8 2.45 L12.3 4.0 10.6 5.7 9.3 7.2 Q8.9 7.55 8.65 8.0 L8.2 8.8 7.75 9.65 7.4 10.05 M36.7 21.75 L36.95 22.25 36.35 22.85 36.1 22.25 Q35.85 21.5 33.75 20.35 31.6 19.15 28.15 18.0 24.65 16.75 21.25 16.0 17.65 15.2 15.15 15.15 L15.15 15.1 15.1 15.15 15.05 15.1 15.05 15.15 14.6 15.65 14.5 15.7 14.1 15.95 13.7 16.05 12.8 15.95 12.65 15.75 12.7 15.8 12.85 15.85 12.9 15.85 13.1 15.85 13.15 15.85 13.35 15.85 13.75 15.6 13.8 15.55 14.05 15.35 14.1 15.3 14.35 14.95 14.35 14.9 14.45 14.8 14.6 14.65 14.7 14.5 14.85 14.5 15.1 14.5 15.15 14.65 15.15 14.55 15.85 14.55 16.6 14.55 16.6 14.65 20.5 15.35 23.7 16.05 Q24.65 16.2 27.05 17.0 L29.35 17.8 Q31.45 18.4 34.05 19.8 36.1 20.95 36.7 21.75 M15.3 7.75 Q15.35 7.6 15.5 7.6 L16.0 7.75 Q16.65 8.35 16.65 9.35 L16.65 9.55 16.65 9.65 16.4 9.8 Q16.0 9.8 15.85 9.4 L15.85 9.25 15.8 8.9 15.8 8.85 15.75 8.3 15.65 8.15 15.6 8.05 15.55 7.95 15.3 7.75 M33.9 7.6 L34.0 7.65 36.75 9.0 36.95 9.1 37.6 9.55 38.75 10.6 37.95 12.7 36.85 15.15 35.55 18.4 34.95 19.65 Q33.05 18.55 30.05 17.6 L29.9 17.5 30.95 14.8 32.1 12.05 32.7 10.6 33.2 9.1 33.4 8.3 33.9 7.65 33.9 7.6 M32.55 6.45 L32.15 6.4 31.15 6.05 30.65 5.75 30.45 5.7 30.45 5.65 29.65 5.55 28.55 5.45 28.4 5.3 28.1 5.0 27.2 4.4 Q26.65 4.1 25.3 3.7 L25.25 3.7 23.3 3.6 21.4 3.5 19.2 3.75 Q18.45 4.0 16.2 5.3 L14.7 6.3 13.45 7.3 Q12.55 8.15 12.05 9.35 L11.5 11.3 10.75 13.35 Q10.75 14.5 9.2 16.6 L9.15 16.7 8.85 17.0 8.8 17.1 8.45 17.45 7.55 18.2 7.15 18.5 6.5 18.8 6.1 19.15 6.2 19.0 7.0 18.0 7.05 17.9 8.8 15.05 Q9.55 13.7 9.9 12.35 11.2 8.15 15.25 5.2 16.85 4.0 18.55 3.35 20.15 2.7 21.25 2.7 L21.3 2.7 Q26.65 2.7 29.75 3.95 L29.8 3.95 31.6 4.85 Q32.45 5.6 32.55 6.45 M12.05 16.15 L12.1 16.2 12.25 16.35 13.0 16.85 11.55 19.6 9.9 22.65 9.85 22.65 8.7 22.55 8.65 22.55 10.3 19.45 11.0 18.35 11.15 18.1 11.55 17.25 11.85 16.7 12.05 16.2 12.05 16.15 M19.25 16.5 L19.35 16.5 19.85 16.6 Q19.9 17.5 20.35 18.2 L21.4 19.25 22.45 20.15 Q22.95 20.7 22.95 21.5 L22.65 22.85 22.4 23.85 22.4 23.9 22.4 23.95 22.45 24.1 23.1 25.35 23.95 26.6 Q24.75 27.3 24.9 27.9 L25.0 29.15 Q25.0 30.75 24.5 31.8 23.75 33.45 23.35 34.75 L23.3 34.8 22.85 34.35 23.6 32.35 24.45 29.15 24.45 29.1 24.55 28.4 Q24.55 27.55 23.75 26.95 L23.5 26.85 23.35 26.5 23.25 26.45 23.2 26.35 22.95 25.95 22.85 25.85 22.7 25.7 22.3 25.1 Q21.9 24.45 21.9 23.8 L22.05 22.65 22.25 21.65 21.8 20.6 20.7 19.3 19.45 17.95 19.3 17.7 19.25 17.6 19.25 17.4 19.25 17.0 19.25 16.9 19.25 16.5 M30.6 39.4 L30.45 39.55 30.45 39.4 30.6 39.4 M30.45 38.9 L29.65 36.3 28.6 34.25 Q30.8 33.95 31.8 32.1 L32.55 30.15 33.25 28.3 34.9 25.35 35.3 24.5 35.4 25.1 35.5 25.7 34.9 26.85 34.15 27.75 34.0 28.75 33.9 29.65 34.05 30.5 34.25 31.35 34.35 32.25 34.5 33.05 34.1 34.6 33.2 36.1 32.6 36.9 32.0 37.65 31.0 38.45 30.45 38.9 M23.5 35.4 L23.5 35.45 23.6 35.3 24.4 33.7 25.35 34.45 26.45 35.4 26.55 35.5 27.2 36.25 27.25 36.3 27.25 36.35 27.3 36.35 27.45 36.7 27.05 36.35 Q26.45 35.95 25.55 35.95 24.9 35.95 24.45 36.65 L24.1 36.25 24.1 36.15 23.45 35.45 23.5 35.4" fill="#34270e" fill-rule="evenodd" stroke="none"/>
    <path d="M16.05 31.7 L17.45 31.95 17.65 32.1 18.3 32.5 18.65 33.05 18.75 33.8 18.7 33.8 16.9 33.35 16.9 33.05 Q16.9 32.55 16.35 32.0 L16.05 31.7 M8.95 47.05 L9.3 46.85 9.3 47.05 8.95 47.05 M7.4 10.05 L7.75 9.65 8.2 8.8 8.65 8.0 Q8.9 7.55 9.3 7.2 L10.6 5.7 12.3 4.0 13.8 2.45 Q14.75 1.45 16.1 1.1 L17.05 0.8 17.7 0.4 17.8 0.25 17.95 0.1 18.5 -0.1 18.9 -0.15 19.2 -0.4 19.35 -0.6 20.55 -0.75 22.3 -0.9 24.4 -1.0 26.95 -0.7 27.75 -0.35 29.35 0.35 29.8 0.55 29.4 1.35 28.65 2.75 Q25.45 1.8 22.05 2.0 19.9 1.5 16.65 3.45 14.45 4.75 13.05 6.2 11.35 7.7 10.45 9.25 L9.6 11.05 8.9 10.7 8.25 10.4 7.9 10.25 7.4 10.05 M30.55 6.55 Q31.95 6.85 33.35 7.4 L33.9 7.6 33.9 7.65 33.4 8.3 33.2 9.1 32.7 10.6 32.1 12.05 30.95 14.8 29.9 17.5 28.9 17.05 27.6 16.55 26.75 16.35 26.6 16.3 27.55 13.85 29.1 10.2 29.7 8.45 30.45 6.75 30.55 6.55 M38.75 10.6 L39.55 11.6 39.25 12.25 38.95 12.9 38.8 13.15 37.65 15.6 36.45 18.65 35.75 20.2 35.55 20.05 35.3 19.9 35.2 19.8 34.95 19.65 35.55 18.4 36.85 15.15 37.95 12.7 38.75 10.6 M31.6 4.85 L32.0 5.0 32.5 5.25 32.9 5.95 33.2 6.55 32.55 6.45 Q32.45 5.6 31.6 4.85 M28.35 5.4 L28.2 5.4 24.4 5.35 24.25 5.4 23.45 5.0 Q21.45 4.1 19.6 4.1 L18.2 4.75 16.4 5.85 15.5 7.05 15.45 7.1 15.35 7.1 14.05 7.65 Q13.95 7.7 13.8 7.85 L13.45 8.2 13.25 8.35 12.8 8.95 12.55 9.25 Q12.05 9.9 11.75 11.55 11.45 12.95 11.45 13.9 L11.45 14.4 11.5 15.2 11.85 15.85 12.0 16.05 11.9 16.1 Q11.4 16.1 10.95 15.65 L10.85 15.5 10.6 15.8 10.0 16.4 9.0 17.0 8.8 17.1 8.85 17.0 9.15 16.7 9.2 16.6 Q10.75 14.5 10.75 13.35 L11.5 11.3 12.05 9.35 Q12.55 8.15 13.45 7.3 L14.7 6.3 16.2 5.3 Q18.45 4.0 19.2 3.75 L21.4 3.5 23.3 3.6 25.25 3.7 25.3 3.7 Q26.65 4.1 27.2 4.4 L28.1 5.0 28.4 5.3 28.35 5.4 M19.25 16.5 L19.25 16.9 19.25 17.0 19.25 17.4 19.25 17.6 19.3 17.7 18.8 17.45 17.6 17.15 16.4 16.75 16.25 16.7 15.9 16.6 15.8 16.6 16.0 15.95 19.0 16.45 19.0 16.55 19.05 16.45 19.25 16.5 M22.85 25.85 L22.95 25.95 23.2 26.35 23.25 26.45 23.35 26.5 23.5 26.85 23.75 26.95 Q24.55 27.55 24.55 28.4 L24.45 29.1 24.45 29.15 23.6 32.35 22.85 34.35 21.75 33.25 21.15 32.65 20.95 32.45 20.8 32.3 20.9 32.15 21.25 31.1 21.65 29.4 22.25 27.7 22.85 25.9 22.85 25.85 M16.85 44.35 L16.9 44.35 17.6 44.15 17.65 44.15 17.8 44.1 17.85 44.1 17.9 44.1 17.95 44.4 17.95 44.45 Q17.95 45.1 15.6 45.8 13.25 46.5 12.5 46.9 L12.55 46.75 12.65 46.4 12.65 46.0 12.7 45.95 12.75 45.9 13.05 45.75 13.55 45.55 14.9 45.25 16.75 44.45 16.85 44.35 M27.45 36.7 L27.65 37.7 27.5 37.4 Q27.05 36.9 26.45 36.8 25.8 36.75 25.35 37.15 25.05 37.45 24.95 37.9 L24.95 37.85 25.0 37.65 Q25.0 37.3 24.45 36.65 24.9 35.95 25.55 35.95 26.45 35.95 27.05 36.35 L27.45 36.7 M26.15 39.35 L26.0 39.35 26.0 39.25 26.1 39.3 26.15 39.35" fill="#473612" fill-rule="evenodd" stroke="none"/>
    <path d="M14.2 31.4 L14.95 31.55 15.0 31.55 16.05 31.7 16.35 32.0 Q16.9 32.55 16.9 33.05 L16.9 33.35 15.55 33.35 15.15 33.35 15.15 33.05 15.0 32.2 14.5 31.75 14.2 31.4 M31.2 -0.3 L32.1 0.25 33.25 1.05 32.85 1.3 32.35 2.3 31.35 3.75 29.55 3.0 30.1 2.05 Q30.8 0.65 30.8 -0.1 L30.85 -0.2 31.2 -0.3 M21.9 6.95 Q24.1 6.1 26.55 6.1 L30.55 6.55 30.45 6.75 29.7 8.45 29.1 10.2 27.55 13.85 26.6 16.3 25.65 16.1 23.95 15.7 22.6 15.45 21.3 15.2 19.65 14.9 19.5 14.8 19.6 14.4 19.75 13.85 20.55 11.6 21.9 7.1 21.9 6.95 M39.55 11.6 L39.55 11.65 40.05 12.45 39.6 13.65 38.9 15.05 38.2 16.4 36.85 19.55 36.45 20.7 35.75 20.2 36.45 18.65 37.65 15.6 38.8 13.15 38.95 12.9 39.25 12.25 39.55 11.6 M32.5 5.25 L32.85 5.4 33.05 5.5 33.2 5.55 33.75 5.9 33.85 6.0 33.95 6.1 34.35 6.75 34.45 6.95 33.5 6.65 33.2 6.55 32.9 5.95 32.5 5.25 M28.55 5.45 L28.35 5.4 28.4 5.3 28.55 5.45 M24.25 5.4 L22.65 5.95 21.0 6.65 Q18.6 7.8 18.55 7.85 17.65 8.35 17.1 8.85 17.1 8.25 16.75 7.75 16.4 7.25 15.8 7.1 L15.45 7.1 15.5 7.05 16.4 5.85 18.2 4.75 19.6 4.1 Q21.45 4.1 23.45 5.0 L24.25 5.4 M12.0 16.05 L12.05 16.1 12.05 16.15 12.05 16.2 12.0 16.15 11.55 16.2 11.1 16.5 11.0 16.55 10.1 17.1 9.15 17.65 9.1 17.65 9.05 17.7 8.85 17.8 7.0 18.75 5.95 19.35 6.1 19.15 6.5 18.8 7.15 18.5 7.55 18.2 8.45 17.45 8.8 17.1 9.0 17.0 10.0 16.4 10.6 15.8 10.85 15.5 10.95 15.65 Q11.4 16.1 11.9 16.1 L12.0 16.05 M20.65 5.1 L20.1 4.9 18.85 4.95 17.85 5.55 17.05 6.25 16.85 6.85 16.9 7.35 17.85 7.55 Q19.25 7.55 20.15 6.45 L20.7 5.4 20.65 5.1 M19.3 17.7 L19.45 17.95 20.7 19.3 21.8 20.6 22.25 21.65 22.05 22.65 21.9 23.8 Q21.9 24.45 22.3 25.1 L22.7 25.7 22.85 25.85 22.85 25.9 22.25 27.7 21.65 29.4 21.25 31.1 20.9 32.15 20.8 32.3 20.4 31.9 18.05 29.1 16.85 27.35 17.35 25.75 17.65 24.2 17.95 22.65 18.95 19.15 19.3 17.75 19.3 17.7 M23.3 34.8 L23.35 34.75 23.35 34.85 23.3 34.8 M22.45 24.1 L22.4 23.95 22.4 23.9 22.45 24.1 M35.3 24.5 L35.6 23.45 35.65 23.4 35.7 23.5 36.1 25.05 35.85 26.2 35.25 26.95 Q34.4 28.0 34.4 29.35 34.4 30.45 34.8 31.6 L35.25 33.4 Q35.25 34.45 34.0 36.05 L31.95 38.65 31.05 39.05 30.6 39.4 30.45 39.4 30.45 39.3 30.45 38.9 31.0 38.45 32.0 37.65 32.6 36.9 33.2 36.1 34.1 34.6 34.5 33.05 34.35 32.25 34.25 31.35 34.05 30.5 33.9 29.65 34.0 28.75 34.15 27.75 34.9 26.85 35.5 25.7 35.4 25.1 35.3 24.5 M15.75 8.8 L15.75 8.65 15.65 8.25 15.65 8.15 15.75 8.3 15.8 8.85 15.75 8.95 15.75 8.8 M19.0 16.45 L19.05 16.45 19.0 16.55 19.0 16.45 M13.35 15.85 L13.95 15.35 14.35 14.95 14.1 15.3 14.05 15.35 13.8 15.55 13.75 15.6 13.35 15.85 M16.1 41.5 L17.25 41.45 17.25 41.5 17.3 41.55 17.7 43.1 17.75 43.3 17.85 44.1 17.8 44.1 17.65 44.15 17.6 44.15 16.9 44.35 16.85 44.35 16.65 44.2 16.55 43.75 16.55 43.3 16.1 41.5 M27.65 37.7 L27.7 37.7 27.65 38.55 27.45 38.3 26.7 38.05 Q26.2 38.05 26.05 38.45 L26.0 38.85 26.0 38.95 26.1 39.3 26.0 39.25 26.0 38.95 25.95 38.8 25.8 38.85 25.65 38.6 25.5 38.55 25.2 38.15 25.0 37.95 24.95 37.9 Q25.05 37.45 25.35 37.15 25.8 36.75 26.45 36.8 27.05 36.9 27.5 37.4 L27.65 37.7 M27.6 39.35 L27.6 39.45 27.55 39.4 27.6 39.35" fill="#8e6c24" fill-rule="evenodd" stroke="none"/>
    <path d="M44.95 -8.75 Q45.85 -7.2 45.85 -5.55 45.85 -2.85 44.15 -0.6 L42.5 1.05 41.8 1.55 41.35 1.65 40.5 1.8 40.35 1.75 40.6 1.75 39.6 1.65 39.05 1.55 39.0 1.7 38.8 1.8 36.0 1.0 35.85 0.95 35.25 0.6 34.8 0.45 34.5 0.4 34.25 0.3 33.3 0.0 33.2 -0.05 33.2 -0.1 Q33.55 -0.5 35.05 -0.5 L37.85 -0.1 39.65 0.35 Q40.55 0.35 41.95 -0.75 43.4 -1.9 44.25 -3.35 45.2 -5.0 45.2 -7.35 L44.95 -8.65 44.95 -8.75 M6.45 8.65 L6.4 8.75 6.05 9.65 5.9 9.65 5.8 10.0 5.85 10.1 5.45 11.65 5.2 14.2 4.95 15.45 Q4.65 16.3 4.0 16.75 L3.55 17.35 2.9 18.05 Q1.85 18.95 -0.2 18.95 -2.25 18.95 -3.25 18.35 L-3.85 17.85 -2.6 17.85 -2.4 17.8 -2.35 17.75 -2.15 17.8 -0.05 18.1 Q0.95 18.1 1.95 17.1 L3.0 15.9 3.85 14.65 4.15 13.4 Q4.3 12.0 4.85 10.9 L5.6 9.4 6.15 8.35 6.4 8.65 6.45 8.65" fill="#000033" fill-rule="evenodd" stroke="none"/>
    <path d="M38.9 2.55 L39.45 2.6 Q42.15 2.6 43.6 1.4 L44.15 0.8 44.25 0.65 44.3 0.6 44.3 0.55 44.4 0.35 44.45 0.25 45.1 -0.45 45.1 -0.5 45.15 -0.5 45.15 0.15 Q45.15 3.95 46.0 6.55 L46.6 8.35 46.85 10.55 46.7 15.45 46.1 18.5 Q45.7 19.85 45.3 20.25 45.25 19.3 44.65 17.85 L43.5 15.2 Q41.95 11.95 40.8 10.55 39.25 8.55 39.0 5.6 L38.9 3.05 38.9 2.55" fill="#932500" fill-rule="evenodd" stroke="none"/>
    <path d="M0.85 44.6 L0.85 43.75 1.0 43.45 1.2 42.45 1.5 41.55 1.7 41.15 1.75 41.05 1.9 41.2 2.2 42.05 2.65 42.85 2.65 43.05 2.65 43.2 2.35 45.0 0.85 44.6 M5.4 34.15 L5.95 33.55 7.5 32.55 7.9 33.05 7.4 34.1 7.3 34.2 7.25 34.2 7.2 34.25 7.15 34.25 7.15 34.3 6.65 34.6 6.5 34.75 6.2 34.8 Q5.55 34.8 5.4 34.5 L5.4 34.15 M40.45 13.0 L40.7 13.4 40.7 13.45 40.65 13.5 40.6 13.55 40.65 13.9 40.35 14.8 39.95 15.65 39.6 16.55 39.3 17.45 38.2 19.55 38.15 19.55 37.5 21.35 37.3 21.75 36.95 22.25 36.7 21.75 37.0 20.95 37.5 19.8 37.9 18.55 38.4 17.3 39.55 14.8 39.95 14.0 40.15 13.6 40.15 13.25 40.45 13.0 M12.65 15.75 L12.3 15.4 12.3 15.25 12.25 15.2 12.15 14.8 12.15 14.65 12.15 14.35 12.15 14.15 12.15 14.05 13.2 13.25 14.05 12.35 Q14.5 11.95 14.5 12.6 L13.9 14.25 12.9 15.85 12.85 15.85 12.7 15.8 12.65 15.75 M12.15 13.5 L12.15 13.4 12.8 10.5 12.95 10.05 Q13.5 8.85 14.1 8.3 L14.6 7.95 14.95 7.85 15.3 7.75 15.55 7.95 15.6 8.05 15.65 8.15 15.65 8.25 15.75 8.65 15.75 8.8 14.05 11.2 12.15 13.5 M7.75 22.5 L6.75 22.55 6.65 22.6 5.85 22.7 7.25 20.4 8.85 17.8 9.05 17.7 9.1 17.65 9.15 17.65 10.1 17.1 11.0 16.55 11.0 16.7 10.15 18.55 9.15 20.15 7.75 22.5 M2.05 24.7 L1.95 24.85 1.65 25.7 1.0 25.05 -0.2 23.65 -0.2 22.5 0.3 22.6 0.75 23.15 1.2 23.65 2.0 24.65 2.05 24.7 M17.95 6.1 Q17.95 5.45 18.6 5.3 19.25 5.15 19.25 5.8 L19.15 6.3 Q18.95 6.7 18.35 6.7 L18.0 6.55 17.95 6.1 M16.4 16.75 L15.9 18.2 15.1 20.4 14.25 22.9 14.0 23.5 13.95 23.4 13.5 22.75 14.85 19.25 15.8 16.6 15.9 16.6 16.25 16.7 16.4 16.75 M12.65 45.85 L12.6 45.75 12.45 44.05 12.4 43.95 12.4 43.85 12.4 43.6 12.4 43.45 12.35 43.2 12.3 42.85 13.05 42.5 13.15 42.65 13.3 43.3 13.3 44.4 13.4 45.0 13.55 45.55 13.05 45.75 12.75 45.9 12.7 45.95 12.65 45.85" fill="#e7d1a1" fill-rule="evenodd" stroke="none"/>
    <path d="M5.95 13.35 L5.95 12.2 6.4 10.9 6.5 10.65 6.9 10.85 8.15 11.35 7.55 11.85 6.6 12.7 5.95 13.35 M38.4 20.8 L39.2 18.85 39.3 18.55 41.05 13.8 41.05 13.7 41.2 13.65 41.25 13.35 41.25 13.3 Q41.2 12.6 40.45 11.55 39.7 10.45 38.4 9.4 L35.75 7.55 35.8 7.5 35.9 7.45 35.95 7.15 Q35.95 6.7 34.85 5.8 L32.15 4.1 32.7 3.2 Q33.45 1.8 34.05 1.55 L34.05 1.4 34.7 1.4 34.75 1.3 35.4 1.55 38.9 2.55 38.9 3.05 39.0 5.6 Q39.25 8.55 40.8 10.55 41.95 11.95 43.5 15.2 L44.65 17.85 Q45.25 19.3 45.3 20.25 L45.35 20.55 Q45.35 21.55 44.8 23.25 L43.95 26.05 43.5 27.45 43.1 28.9 42.9 29.6 42.75 30.3 42.5 30.7 42.3 30.55 42.1 29.95 41.7 28.5 41.15 27.15 40.95 26.85 Q40.8 25.0 39.7 23.5 L38.75 21.65 38.4 20.8" fill="#fd4000" fill-rule="evenodd" stroke="none"/>
    <path d="M-2.85 19.2 L-2.65 19.2 -2.4 19.4 -0.2 19.7 0.6 19.7 0.65 19.65 0.7 19.65 3.6 18.4 3.65 18.4 3.45 18.85 2.75 20.4 2.1 21.45 0.9 21.6 0.25 21.65 0.1 21.65 -0.55 21.75 Q-0.85 22.0 -0.85 23.1 L-0.8 23.8 -0.7 24.25 -0.45 24.7 1.5 26.6 Q0.45 27.45 -0.15 29.0 L-0.1 29.15 -0.3 29.55 -0.45 29.55 Q-1.6 29.55 -1.85 25.95 -2.8 25.2 -2.9 20.6 L-3.05 19.7 -2.85 19.2 M5.2 16.35 L5.8 14.9 5.95 13.55 5.95 13.35 6.6 12.7 7.55 11.85 8.15 11.35 8.45 11.45 8.7 11.45 9.2 11.5 9.3 11.5 9.45 11.5 9.2 12.25 8.55 13.85 7.8 14.4 5.2 16.35 M42.15 40.55 L42.35 40.2 Q42.35 39.65 41.45 39.0 L41.4 38.75 40.8 37.3 39.3 35.45 39.2 35.3 39.25 35.25 38.9 34.85 Q38.4 34.4 37.75 34.25 L37.75 32.65 37.8 30.65 37.6 28.65 37.35 26.65 37.0 24.6 36.7 23.85 Q37.1 23.85 38.4 20.8 L38.75 21.65 39.7 23.5 Q40.8 25.0 40.95 26.85 L41.15 27.15 41.7 28.5 42.1 29.95 42.3 30.55 42.5 30.7 42.65 30.9 Q43.5 31.9 44.05 33.3 L44.4 35.05 44.45 36.55 44.4 38.05 44.1 39.55 43.3 41.25 Q42.6 42.45 42.1 42.45 L42.05 42.45 Q41.8 42.45 41.75 42.3 L41.75 42.1 42.2 41.55 42.15 40.6 42.15 40.55" fill="#fc8f3f" fill-rule="evenodd" stroke="none"/>
    <path d="M21.15 45.7 L22.05 44.0 22.95 43.05 23.1 42.95 24.15 41.8 25.9 39.65 25.95 39.7 26.05 39.75 26.4 39.8 27.75 40.05 Q30.15 40.5 31.6 41.55 L31.7 41.65 31.2 42.0 30.7 41.8 29.2 41.05 28.1 40.8 27.7 40.65 27.05 40.6 25.7 40.5 25.3 41.1 24.5 42.55 24.1 43.35 23.65 44.15 23.3 45.1 23.25 45.25 23.2 45.35 21.15 45.7 M31.4 40.55 L31.3 40.5 30.9 40.25 30.8 40.25 31.45 39.95 31.55 39.9 32.9 39.1 Q34.15 38.55 35.85 38.25 L36.0 38.25 36.1 38.2 36.2 38.15 36.7 38.1 Q38.7 38.1 40.55 39.35 L40.65 39.4 40.7 39.65 40.7 39.85 Q40.9 41.0 41.4 41.0 L41.55 40.95 41.4 41.9 41.3 42.45 Q41.1 42.85 40.3 43.0 L39.5 43.15 38.9 42.5 38.35 42.2 36.3 41.05 34.8 40.4 32.85 40.4 31.4 40.55 M26.45 33.3 L26.05 33.1 24.95 32.75 25.5 31.65 25.65 30.7 25.65 29.2 25.55 28.25 25.1 26.9 25.1 26.85 24.7 26.2 24.55 26.0 24.4 25.85 23.5 24.9 23.25 24.6 23.1 23.9 23.35 22.95 27.7 24.0 29.15 24.4 30.2 25.05 31.65 26.5 32.75 27.8 32.7 28.0 32.25 28.95 32.2 28.95 31.2 27.8 30.05 27.05 28.9 26.25 Q28.65 26.0 27.0 25.45 L25.4 24.95 25.0 24.85 25.4 25.45 26.5 26.65 27.3 27.65 27.2 27.6 27.35 27.8 27.55 28.65 27.55 29.0 27.6 29.05 27.6 29.8 27.6 30.8 27.3 31.9 27.0 32.45 26.8 32.95 26.45 33.3" fill="#473629" fill-rule="evenodd" stroke="none"/>
    <path d="M-1.7 44.1 L-1.2 42.3 -0.75 40.75 -0.75 41.0 -0.8 41.35 -0.55 42.8 -0.45 43.4 -0.45 43.6 -0.45 43.7 -0.55 44.3 -1.7 44.1 M11.5 42.4 L12.0 47.1 12.1 47.15 12.25 47.25 11.2 47.3 10.95 47.25 11.05 46.45 11.3 43.85 Q11.25 43.45 11.5 42.65 L11.5 42.4 M13.7 47.25 L14.75 46.9 16.9 46.05 Q18.0 45.55 18.3 45.25 L18.65 44.4 18.6 44.1 18.65 44.1 18.75 44.0 19.1 43.05 19.2 42.85 19.45 41.95 19.9 41.4 20.4 40.9 20.65 40.65 21.65 40.6 23.5 41.0 23.65 41.15 22.8 41.9 21.75 43.05 20.25 45.55 20.1 45.9 17.85 46.3 Q16.05 46.65 15.15 47.3 L13.7 47.25 M34.25 44.25 L34.95 43.95 38.6 43.25 39.2 43.6 39.6 43.3 39.5 43.15 40.3 43.0 Q41.1 42.85 41.3 42.45 L41.4 41.9 41.55 40.95 41.55 40.65 41.4 40.05 Q41.4 39.55 41.8 39.8 42.15 40.05 42.15 40.55 L42.15 40.6 42.2 41.55 41.75 42.1 41.75 42.3 Q41.8 42.45 42.05 42.45 41.85 43.2 41.3 43.4 L39.35 43.8 37.7 44.05 34.55 44.7 Q34.2 44.7 34.2 44.35 L34.25 44.25 M35.25 35.75 L35.4 35.5 35.6 35.5 36.55 35.25 37.5 35.05 Q37.95 35.05 38.35 35.55 L38.5 35.85 38.55 35.9 39.5 36.75 Q41.05 38.4 41.05 39.0 L40.95 39.2 40.75 39.3 39.6 38.05 39.2 37.5 38.2 36.25 38.05 36.35 Q37.45 35.35 37.0 35.35 L36.25 35.55 35.25 35.75 M6.75 24.15 L5.2 24.15 4.65 24.4 4.15 24.65 3.45 24.85 3.05 24.95 2.55 25.3 2.95 24.8 Q3.85 23.85 6.0 23.55 L6.4 23.9 6.75 24.15 M15.65 27.2 L15.65 27.1 15.75 27.3 15.65 27.2 M0.6 36.9 L0.3 36.15 Q-0.2 34.75 -0.2 33.55 L-0.15 31.5 Q-0.05 30.25 0.5 29.35 L1.1 28.3 1.75 27.3 Q2.35 26.7 3.6 26.25 L4.85 25.95 6.35 25.95 6.4 26.05 7.25 27.05 7.3 27.1 7.15 27.15 6.05 27.9 4.9 28.4 3.2 29.65 2.15 30.9 1.5 32.25 0.95 33.45 Q0.7 34.05 0.6 34.75 L0.6 36.0 0.6 36.9" fill="#840808" fill-rule="evenodd" stroke="none"/>
    <path d="M3.6 18.4 L3.7 18.35 3.65 18.4 3.6 18.4 M35.75 7.55 L35.7 7.55 35.8 7.5 35.75 7.55 M34.7 1.4 L34.7 1.35 34.65 1.25 34.75 1.3 34.7 1.4" fill="#ff7c51" fill-rule="evenodd" stroke="none"/>
    <path d="M1.75 41.05 L1.95 40.65 2.65 38.85 3.3 37.05 4.45 35.25 5.4 34.15 5.4 34.5 Q5.55 34.8 6.2 34.8 L6.5 34.75 6.45 34.85 5.75 35.75 4.4 37.5 Q3.55 38.7 3.4 39.35 L2.65 43.05 2.65 42.85 2.2 42.05 1.9 41.2 1.75 41.05 M7.5 32.55 L8.65 31.95 Q10.5 31.1 10.65 31.1 L14.2 31.4 14.5 31.75 15.0 32.2 15.15 33.05 15.15 33.35 11.4 33.3 Q8.9 33.35 7.3 34.2 L7.4 34.1 7.9 33.05 7.5 32.55 M40.45 13.0 L40.15 13.25 40.15 13.6 39.95 14.0 39.55 14.8 38.4 17.3 37.9 18.55 37.5 19.8 37.0 20.95 36.7 21.75 Q36.1 20.95 34.05 19.8 31.45 18.4 29.35 17.8 L27.05 17.0 Q24.65 16.2 23.7 16.05 L20.5 15.35 16.6 14.65 16.6 14.55 15.85 14.55 15.15 14.55 15.15 14.65 15.1 14.5 14.85 14.5 14.7 14.5 14.6 14.65 14.45 14.8 14.35 14.9 14.35 14.95 13.95 15.35 13.35 15.85 13.15 15.85 13.1 15.85 12.9 15.85 13.9 14.25 14.5 12.6 Q14.5 11.95 14.05 12.35 L13.2 13.25 12.15 14.05 12.15 13.75 12.15 13.5 14.05 11.2 15.75 8.8 15.75 8.95 15.8 8.85 15.8 8.9 15.85 9.25 15.85 9.4 Q16.0 9.8 16.4 9.8 L16.65 9.65 16.8 9.75 16.9 9.6 17.0 9.65 18.15 9.1 20.0 7.85 20.5 7.6 20.65 7.55 21.9 6.95 21.9 7.1 20.55 11.6 19.75 13.85 19.6 14.4 19.5 14.8 19.65 14.9 21.3 15.2 22.6 15.45 23.95 15.7 25.65 16.1 26.6 16.3 26.75 16.35 27.6 16.55 28.9 17.05 29.9 17.5 30.05 17.6 Q33.05 18.55 34.95 19.65 L35.2 19.8 35.3 19.9 35.55 20.05 35.75 20.2 36.45 20.7 36.85 19.55 38.2 16.4 38.9 15.05 39.6 13.65 40.05 12.45 40.15 12.55 40.45 13.0 M33.85 6.0 L34.3 6.25 35.05 7.2 34.95 7.15 34.9 7.15 34.85 7.1 34.45 6.95 34.35 6.75 33.95 6.1 33.85 6.0 M8.65 22.55 L7.75 22.5 9.15 20.15 10.15 18.55 11.0 16.7 11.0 16.55 11.1 16.5 11.55 16.2 12.0 16.15 12.05 16.2 11.85 16.7 11.55 17.25 11.15 18.1 11.0 18.35 10.3 19.45 8.65 22.55 M5.85 22.7 Q4.25 23.0 3.05 23.85 2.35 24.15 2.05 24.7 L2.0 24.65 1.2 23.65 0.75 23.15 0.3 22.6 Q2.3 22.7 4.45 20.85 L5.05 20.3 5.1 20.2 5.15 20.15 5.85 19.4 5.95 19.35 7.0 18.75 8.85 17.8 7.25 20.4 5.85 22.7 M20.65 5.1 L20.7 5.4 20.15 6.45 Q19.25 7.55 17.85 7.55 L16.9 7.35 16.85 6.85 17.05 6.25 17.85 5.55 18.85 4.95 20.1 4.9 20.65 5.1 M17.95 6.1 L18.0 6.55 18.35 6.7 Q18.95 6.7 19.15 6.3 L19.25 5.8 Q19.25 5.15 18.6 5.3 17.95 5.45 17.95 6.1 M14.0 23.5 L14.25 22.9 15.1 20.4 15.9 18.2 16.4 16.75 17.6 17.15 18.8 17.45 19.3 17.7 19.3 17.75 18.95 19.15 17.95 22.65 17.65 24.2 17.35 25.75 16.85 27.35 16.15 26.3 15.55 25.35 14.0 23.5 M16.1 41.5 L16.55 43.3 16.55 43.75 16.65 44.2 16.85 44.35 16.75 44.45 14.9 45.25 13.55 45.55 13.4 45.0 13.3 44.4 13.3 43.3 13.15 42.65 13.05 42.5 14.2 42.05 16.1 41.5 M17.85 44.1 L17.75 43.3 17.9 44.1 17.85 44.1 M12.65 46.0 L12.65 45.85 12.7 45.95 12.65 46.0 M27.65 38.55 L27.65 38.6 27.6 39.25 27.6 39.35 27.55 39.4 26.15 39.35 26.1 39.3 26.0 38.95 26.0 38.85 26.05 38.45 Q26.2 38.05 26.7 38.05 L27.45 38.3 27.65 38.55" fill="#cd9e3f" fill-rule="evenodd" stroke="none"/>
    <path d="M2.85 45.15 L3.15 43.3 4.05 39.95 Q4.3 38.7 5.15 37.55 L5.3 37.8 5.45 38.25 5.3 39.5 5.2 40.3 5.1 40.4 5.15 40.5 5.1 41.2 5.1 42.65 5.1 44.0 5.0 45.85 4.45 45.7 4.45 45.6 4.45 45.45 4.45 44.2 4.45 44.05 4.45 44.0 Q4.45 42.45 4.6 41.4 L4.2 42.15 Q3.65 43.45 3.45 44.2 L3.3 45.25 3.3 45.3 2.85 45.15 M6.1 38.55 L6.1 38.45 6.15 37.95 6.15 37.9 6.1 37.25 5.65 37.0 6.15 36.45 6.75 35.65 Q7.05 35.15 7.25 35.0 7.5 34.75 8.85 34.45 L9.0 34.45 9.6 34.3 9.55 34.8 9.7 34.85 9.85 34.95 Q9.7 35.55 9.7 36.4 L9.75 38.6 9.55 40.8 9.4 42.95 9.3 46.25 8.7 46.4 8.65 46.0 8.8 44.4 8.9 42.55 9.05 40.8 9.15 39.1 9.05 37.35 8.95 37.0 8.9 36.15 8.65 36.3 7.4 37.1 6.6 38.05 6.1 38.6 6.1 38.55 M23.1 18.1 L23.1 17.55 23.05 17.35 23.05 17.25 23.7 17.4 24.6 17.6 25.05 18.0 25.8 18.45 26.4 19.05 26.45 19.05 26.3 19.2 25.7 19.7 25.55 19.75 25.55 19.55 25.5 19.3 24.85 18.8 24.35 18.55 Q24.35 17.9 23.85 17.85 23.4 17.8 23.3 18.15 L23.15 18.1 23.1 18.1 M13.05 28.65 L14.05 28.95 15.35 29.5 16.05 29.95 17.8 31.15 16.5 31.0 15.85 30.9 15.05 30.2 14.05 29.45 13.05 28.65 M15.85 35.85 L15.65 35.75 Q14.9 35.1 13.85 35.1 12.05 35.1 11.75 36.15 L11.6 36.65 11.4 35.35 11.0 34.1 13.1 34.05 15.85 34.15 15.8 34.3 15.75 34.8 15.75 35.0 15.75 35.1 15.8 35.75 15.85 35.85 M24.1 38.0 L24.15 38.05 24.35 38.35 24.15 38.35 22.8 37.95 22.65 37.85 Q22.25 37.5 21.85 37.45 L20.55 36.35 19.2 35.1 18.75 34.75 19.75 35.15 21.35 36.5 Q23.35 38.05 23.85 38.05 L24.1 38.0" fill="#666666" fill-rule="evenodd" stroke="none"/>
    <path d="M23.1 18.15 L23.1 18.1 23.15 18.1 23.1 18.15 M23.3 18.15 Q23.4 17.8 23.85 17.85 24.35 17.9 24.35 18.55 L24.4 18.75 24.35 19.0 Q24.25 19.2 23.85 19.2 23.45 19.2 23.35 18.95 L23.25 18.5 23.3 18.15 M32.45 21.35 Q32.95 21.35 32.95 21.95 L32.95 22.15 32.5 22.4 Q32.25 22.4 32.1 22.2 L32.0 21.85 32.05 21.6 Q32.15 21.4 32.45 21.35" fill="#ffffff" fill-rule="evenodd" stroke="none"/>
    <path d="M5.85 40.9 L5.95 39.75 6.6 39.2 7.3 38.35 8.0 37.45 Q8.4 37.05 8.95 37.0 L9.05 37.35 9.15 39.1 9.05 40.8 8.9 42.55 8.8 44.4 8.65 46.0 8.7 46.4 8.4 46.55 8.25 45.45 8.2 44.45 8.4 41.65 8.55 39.35 8.55 38.55 7.1 39.95 5.9 40.9 5.85 40.9 M25.55 19.75 L25.1 19.8 24.8 19.8 23.7 19.55 23.2 18.65 23.1 18.15 23.15 18.1 23.3 18.15 23.25 18.5 23.35 18.95 Q23.45 19.2 23.85 19.2 24.25 19.2 24.35 19.0 L24.4 18.75 24.35 18.55 24.85 18.8 25.5 19.3 25.55 19.55 25.55 19.75 M13.85 30.6 L12.25 30.45 12.05 30.45 12.0 30.45 11.9 30.45 11.8 30.45 10.1 30.6 10.05 30.6 9.85 29.8 9.35 28.7 9.2 28.45 10.35 28.3 10.45 28.3 11.15 28.3 11.35 28.35 11.3 28.45 12.95 29.85 13.8 30.5 13.85 30.6 M11.65 36.95 L12.0 36.65 12.25 36.5 12.5 36.35 12.7 36.2 13.05 36.05 13.1 36.0 13.25 35.95 13.35 35.95 Q14.6 35.95 15.3 36.4 L15.75 36.7 16.0 36.85 16.2 37.7 15.7 37.6 15.6 37.35 Q15.5 37.0 14.45 37.0 L13.4 37.15 Q13.2 37.2 12.35 37.8 L12.55 39.85 12.75 41.75 12.6 41.8 12.35 41.95 12.25 42.05 12.2 41.9 12.2 41.85 12.15 41.7 12.0 40.1 12.0 40.0 11.95 40.0 11.95 39.85 11.9 39.75 11.9 39.45 11.8 38.25 11.75 38.3 11.65 36.95 M19.75 35.15 L19.8 35.15 19.85 35.2 Q20.8 35.65 22.1 36.55 L22.15 36.55 22.2 36.65 23.95 37.9 24.1 38.0 23.85 38.05 Q23.35 38.05 21.35 36.5 L19.75 35.15 M4.05 45.0 L4.05 44.95 4.4 44.15 4.45 44.2 4.45 45.45 4.45 45.6 4.45 45.7 4.05 45.55 4.05 45.1 4.05 45.0" fill="#cccccc" fill-rule="evenodd" stroke="none"/>
    <path d="M36.65 23.85 L36.65 23.8 36.7 23.85 36.65 23.85" fill="#f3d368" fill-rule="evenodd" stroke="none"/>
    <path d="M3.7 18.35 L4.45 17.5 5.2 16.35 7.8 14.4 8.55 13.85 7.8 15.2 6.1 18.1 4.9 19.45 3.4 20.75 3.0 21.05 Q2.75 21.1 2.55 21.25 L2.1 21.45 2.75 20.4 3.45 18.85 3.65 18.4 3.7 18.35 M37.75 34.25 L36.45 34.3 36.45 34.05 36.35 34.2 36.3 34.3 36.3 34.35 36.2 34.35 35.9 34.45 35.95 33.3 35.5 31.25 Q35.05 30.1 35.05 29.4 35.05 28.65 35.35 28.15 L35.95 27.35 Q36.8 26.4 36.8 25.05 L36.65 23.85 36.7 23.85 37.0 24.6 37.35 26.65 37.6 28.65 37.8 30.65 37.75 32.65 37.75 34.25" fill="#edbd1b" fill-rule="evenodd" stroke="none"/>
    <path d="M-0.75 40.75 L-0.7 40.7 -0.05 37.15 0.45 37.95 0.3 38.95 Q0.15 39.85 0.15 42.4 L0.15 42.8 0.1 43.75 0.1 44.45 -0.35 44.35 -0.35 44.2 -0.45 43.7 -0.45 43.6 -0.45 43.4 -0.55 42.8 -0.8 41.35 -0.75 41.0 -0.75 40.75 M10.1 47.1 L10.1 44.65 10.25 40.25 10.45 37.35 10.4 35.75 10.25 34.7 10.25 34.5 10.2 34.2 10.65 34.15 10.6 34.45 10.85 37.7 11.25 40.85 11.3 40.9 11.3 41.0 11.35 41.25 11.1 42.05 10.75 43.3 10.6 44.45 10.4 45.65 10.2 46.75 10.15 47.15 10.1 47.1 M18.55 43.85 L17.95 41.55 17.6 40.5 17.4 39.85 17.1 39.1 16.8 36.35 16.2 34.2 17.45 34.4 17.45 34.6 18.7 35.85 20.15 37.1 21.6 38.2 21.7 38.3 21.9 38.45 21.95 38.6 Q21.55 38.75 21.25 39.1 L21.35 39.4 21.7 39.4 22.35 39.4 22.6 39.4 23.05 39.4 23.05 39.5 23.1 39.5 23.1 39.4 23.35 39.35 23.8 39.25 24.85 39.25 25.0 39.35 25.05 39.4 24.95 39.5 24.35 40.35 24.25 40.35 23.8 40.2 22.65 39.95 21.9 40.05 21.8 40.1 21.7 40.1 20.75 39.85 Q20.35 39.85 20.1 40.0 19.9 40.05 19.6 40.25 19.1 40.55 18.35 40.65 L18.5 41.0 18.7 41.4 19.0 42.2 19.2 42.85 19.1 43.05 18.75 44.0 18.55 43.85 M37.0 37.35 L34.25 37.7 33.85 37.95 33.75 37.85 34.9 36.35 35.2 35.85 35.75 36.0 Q36.65 36.35 36.85 36.65 L37.2 37.2 37.0 37.35 M2.55 25.3 L3.05 24.95 3.45 24.85 4.15 24.65 4.65 24.4 5.2 24.15 6.75 24.15 11.0 24.5 11.85 24.75 11.4 24.25 10.85 23.6 12.4 23.75 12.45 23.75 12.6 23.75 12.75 23.75 13.3 23.85 13.35 23.85 14.9 26.05 14.95 26.1 14.95 26.15 15.0 26.25 15.1 26.3 15.6 27.1 15.65 27.1 15.65 27.2 15.45 27.1 14.85 26.75 14.75 26.75 14.7 26.7 13.7 26.2 12.45 25.6 11.8 25.35 6.45 25.0 Q5.05 25.2 2.35 26.1 L2.55 25.3 M10.35 26.05 L11.75 26.15 12.7 26.45 13.7 27.05 14.6 27.5 Q15.3 27.8 15.5 28.05 L16.1 28.55 16.9 29.3 17.05 29.5 16.4 29.2 15.5 28.7 Q14.95 28.3 14.6 28.15 L12.65 27.75 Q12.5 27.25 11.75 27.2 L11.3 26.75 10.45 26.15 10.35 26.05 M17.65 36.1 L17.65 36.15 18.0 37.4 18.2 38.7 18.15 39.15 18.05 39.65 18.3 39.6 20.1 39.2 20.45 38.85 19.95 38.3 19.4 37.6 18.5 36.8 17.65 36.1 M27.8 34.3 L27.9 34.3 28.45 35.5 29.0 36.6 Q28.75 36.7 28.55 36.9 L28.4 37.05 28.4 36.75 Q27.7 35.3 26.9 34.55 L26.4 34.1 27.3 34.1 27.8 34.3 M28.4 37.9 Q28.9 37.9 29.25 37.3 L29.8 39.85 28.4 39.5 28.4 37.9" fill="#3e0202" fill-rule="evenodd" stroke="none"/>
    <path d="M11.35 41.25 L11.4 41.65 11.5 42.4 11.5 42.65 Q11.25 43.45 11.3 43.85 L11.05 46.45 10.95 47.25 10.3 47.15 10.15 47.15 10.2 46.75 10.4 45.65 10.6 44.45 10.75 43.3 11.1 42.05 11.35 41.25 M18.6 44.1 L18.55 43.85 18.75 44.0 18.65 44.1 18.6 44.1 M21.9 38.45 L22.05 38.55 21.95 38.6 21.9 38.45 M24.85 39.25 L25.2 39.25 25.05 39.4 25.0 39.35 24.85 39.25 M24.35 40.35 L24.3 40.4 24.05 40.75 23.65 41.15 23.5 41.0 21.65 40.6 20.65 40.65 20.4 40.9 19.9 41.4 19.45 41.95 19.2 42.85 19.0 42.2 18.7 41.4 18.5 41.0 18.35 40.65 Q19.1 40.55 19.6 40.25 19.9 40.05 20.1 40.0 20.35 39.85 20.75 39.85 L21.7 40.1 21.8 40.1 21.9 40.05 22.65 39.95 23.8 40.2 24.25 40.35 24.35 40.35 M39.6 38.05 Q38.25 37.55 36.85 37.5 L37.0 37.35 37.2 37.2 36.85 36.65 Q36.65 36.35 35.75 36.0 L35.2 35.85 35.25 35.75 36.25 35.55 37.0 35.35 Q37.45 35.35 38.05 36.35 L38.2 36.25 39.2 37.5 39.6 38.05 M10.85 23.6 L11.4 24.25 11.85 24.75 11.0 24.5 6.75 24.15 6.4 23.9 6.0 23.55 8.3 23.4 10.6 23.55 10.85 23.6 M11.75 27.2 L11.3 27.2 7.75 28.15 7.65 28.2 Q6.85 28.3 6.05 28.95 L4.6 30.0 Q3.45 30.55 2.55 31.95 2.0 32.9 1.6 34.15 L0.7 37.1 0.6 36.9 0.6 36.0 0.6 34.75 Q0.7 34.05 0.95 33.45 L1.5 32.25 2.15 30.9 3.2 29.65 4.9 28.4 6.05 27.9 7.15 27.15 7.3 27.1 7.25 27.05 6.4 26.05 6.35 25.95 10.35 26.05 10.45 26.15 11.3 26.75 11.75 27.2 M17.65 36.1 L18.5 36.8 19.4 37.6 19.95 38.3 20.45 38.85 20.1 39.2 18.3 39.6 18.05 39.65 18.15 39.15 18.2 38.7 18.0 37.4 17.65 36.15 17.65 36.1 M-0.45 43.7 L-0.35 44.2 -0.35 44.35 -0.55 44.3 -0.45 43.7" fill="#5c0404" fill-rule="evenodd" stroke="none"/>
    <path d="M5.95 39.75 L5.95 39.4 6.1 38.55 6.1 38.6 6.6 38.05 7.4 37.1 8.65 36.3 8.9 36.15 8.95 37.0 Q8.4 37.05 8.0 37.45 L7.3 38.35 6.6 39.2 5.95 39.75 M15.85 30.9 L14.35 30.7 13.85 30.6 13.8 30.5 12.95 29.85 11.3 28.45 11.35 28.35 11.4 28.35 11.9 28.45 12.05 28.45 13.05 28.65 14.05 29.45 15.05 30.2 15.85 30.9 M11.6 36.65 L11.75 36.15 Q12.05 35.1 13.85 35.1 14.9 35.1 15.65 35.75 L15.85 35.85 16.0 36.85 15.75 36.7 15.3 36.4 Q14.6 35.95 13.35 35.95 L13.25 35.95 13.1 36.0 13.05 36.05 12.7 36.2 12.5 36.35 12.25 36.5 12.0 36.65 11.65 36.95 11.65 36.85 11.65 36.8 11.6 36.65 M3.3 45.3 L3.3 45.25 3.45 44.2 Q3.65 43.45 4.2 42.15 L4.6 41.4 Q4.45 42.45 4.45 44.0 L4.45 44.05 4.4 44.15 4.05 44.95 4.05 45.0 4.0 45.15 3.9 45.5 3.3 45.3" fill="#999999" fill-rule="evenodd" stroke="none"/>
    <path d="M5.2 40.3 L5.15 40.5 5.1 40.4 5.2 40.3 M5.75 46.15 L5.8 45.15 5.85 43.35 5.8 41.4 5.85 40.9 5.9 40.9 7.1 39.95 8.55 38.55 8.55 39.35 8.4 41.65 8.2 44.45 8.25 45.45 8.4 46.55 7.55 46.8 5.75 46.15 M10.05 30.6 L6.9 32.05 Q5.2 32.95 4.25 34.35 L3.4 35.45 2.65 36.65 2.15 37.7 1.65 38.95 0.95 40.55 1.2 38.8 Q1.55 35.95 2.05 34.95 L2.75 32.95 Q3.3 31.65 4.35 31.1 L6.8 29.45 Q8.0 28.75 9.2 28.45 L9.35 28.7 9.85 29.8 10.05 30.6 M3.9 45.5 L4.0 45.15 4.05 45.0 4.05 45.1 4.05 45.55 3.9 45.5 M4.4 44.15 L4.45 44.05 4.45 44.2 4.4 44.15 M16.2 37.7 L16.85 40.05 17.05 40.8 16.8 40.8 14.05 41.3 Q13.15 41.55 12.75 41.75 L12.55 39.85 12.35 37.8 Q13.2 37.2 13.4 37.15 L14.45 37.0 Q15.5 37.0 15.6 37.35 L15.7 37.6 16.2 37.7 M11.9 39.45 L11.75 38.3 11.8 38.25 11.9 39.45" fill="#e2e2e2" fill-rule="evenodd" stroke="none"/>
    <path d="M32.25 28.95 L32.25 29.0 32.2 28.95 32.25 28.95" fill="#735844" fill-rule="evenodd" stroke="none"/>
    <path d="M34.95 43.95 L33.2 42.35 32.3 41.3 32.35 41.25 32.15 41.1 31.95 40.9 31.6 40.7 31.4 40.55 32.85 40.4 34.8 40.4 36.3 41.05 38.35 42.2 38.9 42.5 39.5 43.15 39.6 43.3 39.2 43.6 38.6 43.25 34.95 43.95 M32.25 29.0 L31.95 29.65 31.6 30.6 31.45 30.45 30.95 29.65 29.75 28.9 Q29.4 28.65 28.45 28.15 L28.25 28.05 28.1 28.0 28.0 27.95 27.95 27.9 27.85 27.85 27.75 27.8 27.3 27.65 26.5 26.65 25.4 25.45 25.0 24.85 25.4 24.95 27.0 25.45 Q28.65 26.0 28.9 26.25 L30.05 27.05 31.2 27.8 32.2 28.95 32.25 29.0 M23.3 45.1 L23.65 44.15 24.1 43.35 24.5 42.55 25.3 41.1 25.7 40.5 27.05 40.6 27.7 40.65 28.1 40.8 29.2 41.05 30.7 41.8 31.2 42.0 30.05 42.75 29.5 42.7 28.85 42.8 28.85 42.7 28.8 42.65 25.85 43.45 Q24.05 44.1 23.65 44.75 L23.3 45.1" fill="#604837" fill-rule="evenodd" stroke="none"/>
    <path d="M31.6 30.6 L31.3 31.2 31.2 31.5 30.7 31.05 29.25 29.8 27.85 29.15 27.6 29.05 27.55 29.0 27.55 28.65 27.35 27.8 27.2 27.6 27.3 27.65 27.75 27.8 27.85 27.85 27.95 27.9 28.0 27.95 28.1 28.0 28.25 28.05 28.45 28.15 Q29.4 28.65 29.75 28.9 L30.95 29.65 31.45 30.45 31.6 30.6 M23.3 45.1 L23.65 44.75 Q24.05 44.1 25.85 43.45 L28.8 42.65 28.85 42.7 28.85 42.8 29.5 42.7 30.05 42.75 27.7 44.2 25.25 45.0 23.2 45.35 23.25 45.25 23.3 45.1" fill="#795b46" fill-rule="evenodd" stroke="none"/>
    <path d="M31.2 31.5 L30.95 32.0 30.5 32.6 Q29.9 33.15 27.7 33.6 L26.45 33.3 26.8 32.95 27.0 32.45 27.3 31.9 27.6 30.8 27.6 29.8 27.6 29.05 27.85 29.15 29.25 29.8 30.7 31.05 31.2 31.5" fill="#946f56" fill-rule="evenodd" stroke="none"/>
  </g>
</svg>
