<?xml version="1.0" encoding="UTF-8" standalone="no"?>
<svg xmlns:ffdec="https://www.free-decompiler.com/flash" xmlns:xlink="http://www.w3.org/1999/xlink" ffdec:objectType="shape" height="138.1px" width="39.75px" xmlns="http://www.w3.org/2000/svg">
  <g transform="matrix(1.0, 0.0, 0.0, 1.0, 14.35, 84.1)">
    <path d="M21.7 7.45 L21.75 7.45 22.15 10.0 22.3 10.0 22.35 11.0 13.15 11.0 Q5.8 11.8 -4.8 11.25 L-11.8 11.8 -12.05 10.4 Q-12.15 8.85 -12.35 8.5 L-12.65 6.6 -0.05 7.1 11.4 7.5 21.7 7.45" fill="#cc9d3c" fill-rule="evenodd" stroke="none"/>
    <path d="M4.1 -81.1 L4.6 -81.75 5.3 -80.65 6.95 -77.95 8.15 -75.75 9.85 -70.95 Q11.0 -67.7 11.65 -66.35 14.8 -60.05 17.15 -48.0 18.1 -42.8 19.35 -27.25 L20.45 -11.05 Q20.45 -8.7 21.1 0.0 L21.55 5.45 9.9 5.15 10.15 -2.4 10.05 -13.7 Q9.85 -19.25 9.1 -23.15 L9.15 -24.8 8.15 -40.45 Q7.4 -47.95 6.3 -51.85 5.15 -56.0 3.65 -56.0 L3.25 -55.95 3.15 -60.65 3.45 -65.85 4.15 -73.25 Q4.45 -74.9 4.05 -79.65 L4.1 -81.1" fill="#dcbd76" fill-rule="evenodd" stroke="none"/>
    <path d="M-0.3 -24.15 L0.35 -24.0 0.4 -23.2 -0.5 -23.1 -0.3 -24.15" fill="#000000" fill-rule="evenodd" stroke="none"/>
    <path d="M4.1 -81.1 L4.05 -79.65 Q4.45 -74.9 4.15 -73.25 L3.45 -65.85 3.15 -60.65 3.25 -55.95 Q0.25 -55.2 -0.85 -42.75 -1.35 -37.05 -1.35 -28.1 L-1.3 -25.9 -1.25 -25.15 -0.5 -23.1 -1.05 -18.05 -1.35 -9.55 -1.25 4.85 -0.05 4.9 -10.15 4.6 -11.95 4.6 -11.4 -16.75 -10.85 -38.35 Q-10.6 -54.35 -2.95 -69.6 0.6 -76.65 4.1 -81.1" fill="#eddcb7" fill-rule="evenodd" stroke="none"/>
    <path d="M3.25 -55.95 L3.65 -56.0 Q5.15 -56.0 6.3 -51.85 7.4 -47.95 8.15 -40.45 L9.15 -24.8 9.1 -23.15 8.65 -25.0 8.4 -24.8 Q6.65 -26.1 4.15 -26.25 1.8 -26.4 0.35 -25.25 L0.2 -25.35 0.15 -25.5 0.1 -25.35 -1.3 -25.9 -1.35 -28.1 Q-1.35 -37.05 -0.85 -42.75 0.25 -55.2 3.25 -55.95" fill="#d2ab4f" fill-rule="evenodd" stroke="none"/>
    <path d="M0.35 -25.25 L0.2 -25.15 0.2 -25.35 0.35 -25.25 M0.1 -25.35 L-0.15 -24.8 -0.35 -24.6 -0.25 -24.5 -0.25 -24.4 -0.3 -24.15 -0.5 -23.1 -1.25 -25.15 -1.3 -25.9 0.1 -25.35" fill="#dab96d" fill-rule="evenodd" stroke="none"/>
    <path d="M0.35 -24.0 L4.3 -23.85 7.4 -23.5 7.85 -23.45 7.7 -22.25 7.65 -18.4 Q8.2 -5.85 8.15 0.5 L8.0 5.1 1.2 4.95 Q0.65 -2.1 0.65 -9.65 L0.4 -23.2 0.35 -24.0 M21.3 16.75 L20.15 19.0 Q18.7 21.55 16.9 23.2 L15.3 23.85 Q15.95 22.2 17.9 20.15 L21.3 16.75 M14.25 24.15 L9.15 24.75 9.65 24.4 Q10.6 17.55 13.65 14.4 L13.95 14.75 14.15 17.2 13.65 20.4 13.15 23.6 13.2 24.35 14.25 24.15 M8.45 24.75 L4.5 24.65 4.75 19.65 Q5.15 16.75 6.95 15.4 L7.2 20.65 Q7.4 23.3 8.45 24.75 M3.35 24.55 L-1.7 23.8 -1.7 23.75 -1.35 18.85 -0.85 14.15 Q1.05 15.95 2.05 19.85 L3.35 24.55 M-2.9 23.45 L-5.25 22.65 -5.3 22.65 Q-7.05 21.4 -8.35 19.75 L-8.35 14.55 -6.8 17.0 -2.9 23.45" fill="#8e6c24" fill-rule="evenodd" stroke="none"/>
    <path d="M22.45 13.0 L22.45 13.55 21.3 16.75 17.9 20.15 Q15.95 22.2 15.3 23.85 L14.25 24.15 13.2 24.35 13.15 23.6 13.65 20.4 14.15 17.2 13.95 14.75 13.65 14.4 Q10.6 17.55 9.65 24.4 L9.15 24.75 8.45 24.75 Q7.4 23.3 7.2 20.65 L6.95 15.4 Q5.15 16.75 4.75 19.65 L4.5 24.65 3.55 24.55 3.35 24.55 2.05 19.85 Q1.05 15.95 -0.85 14.15 L-1.35 18.85 -1.7 23.75 -1.7 23.8 -2.15 23.7 -2.9 23.5 -2.9 23.45 -6.8 17.0 -8.35 14.55 -8.35 19.75 -10.3 16.55 -10.35 16.45 -10.65 15.65 Q-10.35 14.25 -9.5 13.65 L-9.25 13.7 -8.9 13.75 -8.8 13.8 -8.85 13.75 -5.6 14.0 -3.45 17.0 -3.2 14.2 -3.15 14.0 2.1 14.0 3.15 16.5 4.1 14.65 4.6 14.0 8.65 14.0 8.8 14.0 9.0 14.55 Q9.2 16.25 9.45 16.5 L10.95 14.05 11.2 13.7 13.2 13.25 15.65 13.25 16.05 14.5 16.15 17.15 16.15 17.4 18.75 14.75 Q20.3 13.1 22.45 13.0" fill="#4a3916" fill-rule="evenodd" stroke="none"/>
    <path d="M15.65 13.25 L22.45 12.95 22.45 13.0 Q20.3 13.1 18.75 14.75 L16.15 17.4 16.15 17.15 16.05 14.5 15.65 13.25 M-10.65 15.65 L-11.5 13.15 -9.5 13.65 Q-10.35 14.25 -10.65 15.65 M-8.9 13.75 L-8.85 13.75 -8.8 13.8 -8.9 13.75 M-5.6 14.0 L-3.15 14.0 -3.2 14.2 -3.45 17.0 -5.6 14.0 M2.1 14.0 L4.6 14.0 4.1 14.65 3.15 16.5 2.1 14.0 M8.8 14.0 L11.2 13.7 10.95 14.05 9.45 16.5 Q9.2 16.25 9.0 14.55 L8.8 14.0 M7.25 28.5 L8.4 28.5 10.5 28.35 9.7 30.3 Q8.4 33.7 8.4 35.55 L8.25 37.95 8.25 38.1 Q7.45 38.4 6.4 39.05 4.3 40.25 2.55 40.25 2.45 40.25 2.3 40.1 L2.1 39.85 2.4 37.95 2.4 37.6 2.4 36.9 Q2.4 34.75 1.65 30.45 L1.1 27.75 2.9 28.1 7.25 28.5" fill="#906e27" fill-rule="evenodd" stroke="none"/>
    <path d="M3.85 -82.95 L3.45 -83.55 5.05 -84.1 Q16.65 -66.15 19.8 -40.55 20.75 -32.7 21.55 -17.75 22.35 -2.25 23.15 5.0 L23.15 5.45 25.2 5.5 25.4 5.65 Q25.15 7.4 25.15 9.6 L25.2 10.5 25.15 10.5 25.15 10.7 25.15 10.8 25.15 11.0 25.2 11.0 25.25 12.45 25.0 12.55 24.95 12.65 Q24.55 14.7 23.4 17.15 L23.35 17.2 Q22.75 19.15 21.65 20.85 20.45 22.7 18.75 24.05 16.15 26.7 12.95 27.8 L12.95 28.0 11.9 30.9 Q10.8 33.65 10.8 36.2 L10.5 38.7 10.5 38.75 10.5 38.95 10.25 39.45 Q9.9 40.2 9.3 40.2 L7.25 41.3 Q4.05 42.9 3.05 42.9 1.9 42.9 0.95 42.3 -0.15 41.65 -0.15 40.6 -0.15 39.25 0.2 37.95 L0.25 37.8 0.3 36.45 Q0.3 35.3 -0.5 31.0 L-1.3 27.05 Q-3.75 26.2 -5.75 24.85 L-5.8 24.8 Q-9.2 23.45 -11.1 21.15 -13.25 18.55 -13.35 14.05 -13.85 12.05 -13.85 9.95 L-13.8 7.95 Q-13.65 7.1 -13.3 6.55 L-13.95 6.5 -14.15 6.4 Q-14.35 6.25 -14.35 5.5 -14.35 4.85 -14.0 4.75 L-13.05 4.65 Q-13.65 2.0 -13.8 -1.85 L-13.85 -9.55 Q-13.85 -66.4 3.65 -83.0 L3.85 -82.95 M9.1 -23.15 Q9.85 -19.25 10.05 -13.7 L10.15 -2.4 9.9 5.15 21.55 5.45 21.1 0.0 Q20.45 -8.7 20.45 -11.05 L19.35 -27.25 Q18.1 -42.8 17.15 -48.0 14.8 -60.05 11.65 -66.35 11.0 -67.7 9.85 -70.95 L8.15 -75.75 6.95 -77.95 5.3 -80.65 4.6 -81.75 4.1 -81.1 Q0.6 -76.65 -2.95 -69.6 -10.6 -54.35 -10.85 -38.35 L-11.4 -16.75 -11.95 4.6 -10.15 4.6 -0.05 4.9 -1.25 4.85 -1.35 -9.55 -1.05 -18.05 -0.5 -23.1 0.4 -23.2 0.65 -9.65 Q0.65 -2.1 1.2 4.95 L8.0 5.1 8.15 0.5 Q8.2 -5.85 7.65 -18.4 L7.7 -22.25 7.85 -23.45 7.9 -23.55 7.4 -23.5 4.3 -23.85 0.35 -24.0 -0.3 -24.15 -0.25 -24.4 -0.25 -24.5 -0.35 -24.6 -0.15 -24.8 0.1 -25.35 0.15 -25.5 0.2 -25.35 0.2 -25.15 0.35 -25.25 Q1.8 -26.4 4.15 -26.25 6.65 -26.1 8.4 -24.8 L8.65 -25.0 9.1 -23.15 M21.7 7.45 L11.4 7.5 -0.05 7.1 -12.65 6.6 -12.35 8.5 Q-12.15 8.85 -12.05 10.4 L-11.8 11.8 -4.8 11.25 Q5.8 11.8 13.15 11.0 L22.35 11.0 22.3 10.0 22.15 10.0 21.75 7.45 21.7 7.45 M22.45 13.0 L22.45 12.95 15.65 13.25 13.2 13.25 11.2 13.7 8.8 14.0 8.65 14.0 4.6 14.0 2.1 14.0 -3.15 14.0 -5.6 14.0 -8.85 13.75 -8.9 13.75 -9.25 13.7 -9.5 13.65 -11.5 13.15 -10.65 15.65 -10.35 16.45 -10.3 16.55 -8.35 19.75 Q-7.05 21.4 -5.3 22.65 L-5.25 22.65 -2.9 23.45 -2.9 23.5 -2.15 23.7 -1.7 23.8 3.35 24.55 3.55 24.55 4.5 24.65 8.45 24.75 9.15 24.75 14.25 24.15 15.3 23.85 16.9 23.2 Q18.7 21.55 20.15 19.0 L21.3 16.75 22.45 13.55 22.45 13.0 M7.25 28.5 L2.9 28.1 1.1 27.75 1.65 30.45 Q2.4 34.75 2.4 36.9 L2.4 37.6 2.4 37.95 2.1 39.85 2.3 40.1 Q2.45 40.25 2.55 40.25 4.3 40.25 6.4 39.05 7.45 38.4 8.25 38.1 L8.25 37.95 8.4 35.55 Q8.4 33.7 9.7 30.3 L10.5 28.35 8.4 28.5 7.25 28.5" fill="#392d11" fill-rule="evenodd" stroke="none"/>
    <path d="M12.45 45.0 Q10.95 47.1 7.6 47.6 L6.7 47.55 6.5 47.7 5.3 47.75 Q0.3 47.75 -2.05 46.1 -3.15 45.35 -3.45 44.55 9.35 44.7 12.45 44.9 L12.45 45.0" fill="#cc9d3c" fill-rule="evenodd" stroke="none"/>
    <path d="M12.45 44.9 Q9.35 44.7 -3.45 44.55 -3.15 45.35 -2.05 46.1 0.3 47.75 5.3 47.75 L6.5 47.7 6.7 47.55 7.6 47.6 Q10.95 47.1 12.45 45.0 L12.55 44.9 12.5 44.9 12.45 44.9 M10.75 39.4 Q8.2 38.2 4.9 38.1 -2.85 37.85 -3.5 42.75 -1.2 42.45 4.65 42.55 L13.35 43.1 13.4 42.35 Q13.4 40.7 10.75 39.4 M15.4 42.3 Q15.4 45.2 13.45 47.25 11.75 49.05 8.9 49.65 L8.9 50.1 8.65 52.55 Q8.05 54.0 5.9 54.0 3.4 54.0 2.45 52.8 1.9 52.15 1.9 51.3 1.9 50.4 2.05 50.05 L2.2 49.8 Q-2.0 49.25 -4.05 47.05 -5.6 45.45 -5.6 43.75 -5.6 40.3 -2.3 38.15 0.6 36.2 4.9 36.0 9.15 35.75 12.1 37.35 15.4 39.1 15.4 42.3 M5.4 50.0 L4.85 50.0 4.5 50.6 3.9 51.25 3.9 51.3 6.65 51.75 6.6 50.15 6.6 50.0 5.4 50.0" fill="#000000" fill-rule="evenodd" stroke="none"/>
    <path d="M10.75 39.4 Q13.4 40.7 13.4 42.35 L13.35 43.1 4.65 42.55 Q-1.2 42.45 -3.5 42.75 -2.85 37.85 4.9 38.1 8.2 38.2 10.75 39.4" fill="#8e6c24" fill-rule="evenodd" stroke="none"/>
    <path d="M12.45 45.0 L12.45 44.9 12.5 44.9 12.45 45.0" fill="#906e27" fill-rule="evenodd" stroke="none"/>
    <path d="M5.4 50.0 L6.6 50.0 6.6 50.15 6.65 51.75 3.9 51.3 3.9 51.25 4.5 50.6 4.85 50.0 5.4 50.0" fill="#706247" fill-rule="evenodd" stroke="none"/>
  </g>
</svg>
