<?xml version="1.0" encoding="UTF-8" standalone="no"?>
<svg xmlns:ffdec="https://www.free-decompiler.com/flash" xmlns:xlink="http://www.w3.org/1999/xlink" ffdec:objectType="shape" height="36.75px" width="37.1px" xmlns="http://www.w3.org/2000/svg">
  <g transform="matrix(1.0, 0.0, 0.0, 1.0, 19.75, 17.7)">
    <path d="M11.75 -15.7 L10.05 -16.8 9.05 -17.0 Q5.05 -17.0 3.65 -14.15 L3.0 -12.45 3.0 -11.55 3.0 -11.45 2.95 -11.4 3.0 -11.15 3.0 -10.35 2.75 -7.4 2.35 -7.0 2.45 -7.0 2.1 -6.85 1.55 -6.55 1.05 -6.15 1.05 -6.1 1.9 -6.0 5.5 -6.0 5.7 -8.95 5.95 -10.35 5.85 -10.35 5.85 -10.4 6.15 -11.05 Q10.25 -10.85 13.0 -10.95 L13.65 -10.95 13.55 -11.3 13.45 -12.3 12.9 -14.0 Q12.4 -15.3 11.75 -15.7 M13.45 -14.6 Q14.25 -12.9 14.25 -11.4 L14.2 -10.8 14.25 -10.75 14.1 -10.45 13.95 -10.4 13.95 -10.0 13.8 -8.7 13.6 -7.6 13.35 -6.45 Q13.1 -6.05 11.9 -5.9 L12.45 -5.6 Q12.8 -5.1 13.9 -4.8 16.05 -3.95 16.05 -3.25 L16.05 -3.1 16.45 -2.95 17.3 -1.8 17.35 -0.8 17.3 0.05 16.15 0.95 16.05 0.95 Q15.8 1.55 14.6 1.55 L13.35 1.3 Q13.0 1.0 12.95 0.45 L12.25 -0.1 12.3 1.15 12.25 1.65 12.2 1.75 11.95 2.0 11.9 2.05 11.9 2.25 12.2 3.25 12.1 3.45 12.35 3.8 12.55 4.15 12.85 4.5 Q13.95 5.65 13.95 6.45 13.95 7.0 13.65 7.0 L13.35 7.0 13.55 7.3 13.55 7.35 13.7 8.2 14.3 8.4 15.5 9.05 15.55 9.05 15.6 9.3 Q15.6 9.75 13.85 10.75 11.95 11.8 10.6 11.8 L10.0 11.75 9.8 11.8 Q9.4 11.55 9.35 11.2 L9.35 10.6 9.2 9.4 8.6 8.05 8.45 7.75 8.2 8.05 7.2 9.2 Q6.7 9.7 5.8 10.2 L4.5 10.95 4.5 11.1 4.2 11.9 Q3.9 12.5 3.95 12.75 3.9 12.9 3.65 12.9 3.25 12.9 2.25 12.0 L1.45 11.0 0.85 9.9 0.85 9.05 0.85 8.8 0.8 8.8 0.75 8.55 0.85 8.35 1.3 7.65 2.2 7.0 2.2 6.8 Q2.2 5.9 2.7 4.75 2.8 4.25 3.2 3.7 L3.35 3.5 3.2 3.4 3.2 2.2 3.25 2.2 3.2 2.15 3.2 1.8 3.05 1.15 3.05 -0.9 Q2.25 -0.35 2.0 -0.35 L1.65 -0.45 1.65 0.65 Q1.65 2.3 1.45 2.55 L-0.45 2.75 -2.35 2.8 -2.2 2.55 -2.2 0.05 -2.15 -2.1 -2.05 -2.8 -2.1 -3.1 Q-2.1 -4.0 1.05 -5.4 L0.45 -5.5 Q0.3 -5.55 0.3 -6.05 0.3 -6.5 0.45 -6.65 L1.55 -7.35 1.8 -7.7 Q2.2 -8.0 2.2 -8.75 L2.3 -10.35 2.2 -11.3 2.3 -11.7 2.3 -11.9 Q2.3 -13.75 3.6 -15.4 5.6 -17.85 9.9 -17.7 L12.25 -16.1 13.45 -14.6 M9.5 -10.25 L7.55 -10.3 7.15 -8.05 7.15 -6.0 8.3 -5.85 9.0 -5.9 Q9.0 -7.6 9.15 -8.25 L9.25 -9.35 9.5 -10.25 M9.8 -6.45 L10.8 -6.6 12.3 -6.7 12.6 -6.9 12.85 -7.25 13.05 -8.45 10.35 -8.45 9.85 -8.45 9.75 -7.6 9.75 -6.45 9.8 -6.45 M0.0 -1.7 L-1.05 -2.5 -1.35 -2.55 -1.55 -2.1 -1.55 2.1 0.95 2.1 1.0 -0.8 0.0 -1.7 M3.7 -0.9 Q3.7 0.9 3.85 1.75 L8.05 1.75 10.7 1.5 11.3 1.5 11.65 1.55 11.65 1.15 11.4 -2.55 11.35 -4.35 11.05 -4.7 10.7 -5.15 10.4 -5.8 10.2 -5.8 9.7 -5.8 9.65 -5.65 9.15 -5.2 9.35 -4.55 9.5 -3.85 10.25 -3.9 10.3 -3.65 9.85 -3.15 10.25 -2.4 10.2 -2.1 9.9 -2.0 Q9.75 -2.0 9.55 -2.35 L9.5 -1.6 9.25 -1.55 Q8.85 -1.65 8.85 -2.0 L8.9 -2.45 8.6 -2.25 8.25 -2.55 Q8.25 -2.85 8.75 -3.2 L8.2 -3.55 8.0 -3.8 Q8.0 -4.55 8.8 -4.0 L8.75 -4.2 8.55 -5.0 8.55 -5.15 6.95 -5.3 Q6.6 -5.3 6.5 -5.5 L6.5 -5.55 6.4 -5.5 6.15 -5.3 6.05 -5.35 5.45 -5.3 5.6 -5.2 5.9 -3.9 5.75 -3.0 4.4 -1.95 3.65 -1.35 3.7 -0.9 M4.75 -3.15 L5.25 -3.9 Q5.35 -4.35 4.95 -4.65 4.25 -5.25 2.05 -5.0 L-1.05 -3.35 Q1.25 -1.25 1.9 -1.25 2.75 -1.25 4.0 -2.6 L4.75 -3.15 M11.0 -10.05 Q10.65 -10.05 10.65 -9.65 L10.7 -9.3 11.05 -9.25 11.35 -9.65 11.0 -10.05 M13.15 -9.15 L13.1 -9.15 13.15 -9.1 13.15 -9.15 M11.9 -4.9 L12.05 -2.9 12.15 -1.3 12.8 -0.75 13.0 -0.5 13.05 -0.95 13.6 -1.65 13.5 -1.8 Q13.5 -2.45 14.3 -2.9 L15.2 -3.15 13.35 -4.25 12.25 -4.9 11.65 -5.15 11.9 -4.9 M14.55 -2.1 L14.5 -2.0 14.6 -2.0 14.95 -2.1 15.75 -1.9 Q16.15 -1.65 16.15 -0.9 L16.15 0.15 16.25 0.0 16.7 -0.8 16.5 -1.75 Q16.2 -2.55 15.8 -2.55 15.05 -2.55 14.55 -2.1 M13.95 0.9 L15.35 0.9 15.5 -1.35 Q13.6 -1.75 13.6 0.2 13.6 0.55 13.95 0.9 M11.15 2.1 L9.8 2.15 8.7 2.3 5.85 2.45 3.95 2.4 3.85 3.05 11.25 3.0 11.15 2.1 M11.4 3.9 L11.25 3.65 5.8 3.75 3.85 3.75 3.45 4.75 Q3.1 5.7 3.05 6.4 L3.35 6.5 3.35 6.55 11.15 6.35 12.55 6.4 12.45 6.25 12.85 6.3 13.0 6.3 13.1 6.15 12.45 5.1 11.75 4.25 11.4 3.9 M13.05 8.4 L12.85 7.8 12.75 6.95 10.25 7.05 10.45 7.35 10.95 8.35 11.35 9.3 11.5 10.25 11.5 10.9 12.8 10.4 12.75 10.25 Q12.75 9.65 13.0 9.2 L12.95 8.6 13.05 8.4 M13.7 8.95 L13.55 9.8 13.45 10.1 14.1 9.8 14.6 9.35 13.9 9.05 13.7 8.95 M1.5 9.0 L1.75 9.95 1.7 10.0 1.9 10.45 2.1 10.4 4.0 10.45 4.2 10.5 4.2 10.15 4.3 10.2 5.25 9.65 6.5 8.75 5.15 7.65 3.75 8.4 1.5 8.85 1.5 9.0 M3.65 11.15 L3.25 11.15 2.5 11.1 3.35 11.9 3.6 11.25 3.65 11.15" fill="#282828" fill-rule="evenodd" stroke="none"/>
    <path d="M11.75 -15.7 Q12.4 -15.3 12.9 -14.0 L13.45 -12.3 13.55 -11.3 13.65 -10.95 13.0 -10.95 Q10.25 -10.85 6.15 -11.05 L5.85 -10.4 5.85 -10.35 5.95 -10.35 5.7 -8.95 5.5 -6.0 1.9 -6.0 1.05 -6.1 1.05 -6.15 1.55 -6.55 2.1 -6.85 2.45 -7.0 2.35 -7.0 2.75 -7.4 3.0 -10.35 3.0 -11.15 2.95 -11.4 3.0 -11.45 3.0 -11.55 3.0 -12.45 3.65 -14.15 Q5.05 -17.0 9.05 -17.0 L10.05 -16.8 11.75 -15.7 M9.5 -10.25 L9.25 -9.35 9.15 -8.25 Q9.0 -7.6 9.0 -5.9 L8.3 -5.85 7.15 -6.0 7.15 -8.05 7.55 -10.3 9.5 -10.25 M11.15 2.1 L11.25 3.0 3.85 3.05 3.95 2.4 5.85 2.45 8.7 2.3 9.8 2.15 11.15 2.1 M3.65 11.15 L3.6 11.25 3.35 11.9 2.5 11.1 3.25 11.15 3.65 11.15 M1.5 9.0 L1.5 8.85 3.75 8.4 5.15 7.65 6.5 8.75 5.25 9.65 4.3 10.2 4.2 10.15 4.2 10.5 4.0 10.45 2.1 10.4 1.9 10.45 1.7 10.0 1.75 9.95 1.5 9.0 M13.7 8.95 L13.9 9.05 14.6 9.35 14.1 9.8 13.45 10.1 13.55 9.8 13.7 8.95 M13.05 8.4 L12.95 8.6 13.0 9.2 Q12.75 9.65 12.75 10.25 L12.8 10.4 11.5 10.9 11.5 10.25 11.35 9.3 10.95 8.35 10.45 7.35 10.25 7.05 12.75 6.95 12.85 7.8 13.05 8.4" fill="#666666" fill-rule="evenodd" stroke="none"/>
    <path d="M0.0 -1.7 L1.0 -0.8 0.95 2.1 -1.55 2.1 -1.55 -2.1 -1.35 -2.55 -1.05 -2.5 0.0 -1.7 M9.8 -6.45 L9.75 -6.45 9.75 -7.6 9.85 -8.45 10.35 -8.45 13.05 -8.45 12.85 -7.25 12.6 -6.9 12.3 -6.7 10.8 -6.6 9.8 -6.45 M11.0 -10.05 L11.35 -9.65 11.05 -9.25 10.7 -9.3 10.65 -9.65 Q10.65 -10.05 11.0 -10.05 M14.6 -2.0 L14.55 -2.1 Q15.05 -2.55 15.8 -2.55 16.2 -2.55 16.5 -1.75 L16.7 -0.8 16.25 0.0 16.15 0.15 16.15 -0.9 Q16.15 -1.65 15.75 -1.9 L14.95 -2.1 14.6 -2.0 M13.95 0.9 Q13.6 0.55 13.6 0.2 13.6 -1.75 15.5 -1.35 L15.35 0.9 13.95 0.9" fill="#999999" fill-rule="evenodd" stroke="none"/>
    <path d="M4.75 -3.15 L4.0 -2.6 Q2.75 -1.25 1.9 -1.25 1.25 -1.25 -1.05 -3.35 L2.05 -5.0 Q4.25 -5.25 4.95 -4.65 5.35 -4.35 5.25 -3.9 L4.75 -3.15 M3.7 -0.9 L3.65 -1.35 4.4 -1.95 5.75 -3.0 5.9 -3.9 5.6 -5.2 5.45 -5.3 6.05 -5.35 6.15 -5.3 6.4 -5.5 6.5 -5.55 6.5 -5.5 Q6.6 -5.3 6.95 -5.3 L8.55 -5.15 8.55 -5.0 8.75 -4.2 8.8 -4.0 Q8.0 -4.55 8.0 -3.8 L8.2 -3.55 8.75 -3.2 Q8.25 -2.85 8.25 -2.55 L8.6 -2.25 8.9 -2.45 8.85 -2.0 Q8.85 -1.65 9.25 -1.55 L9.5 -1.6 9.55 -2.35 Q9.75 -2.0 9.9 -2.0 L10.2 -2.1 10.25 -2.4 9.85 -3.15 10.3 -3.65 10.25 -3.9 9.5 -3.85 9.35 -4.55 9.15 -5.2 9.65 -5.65 9.7 -5.8 10.2 -5.8 10.4 -5.8 10.7 -5.15 11.05 -4.7 11.35 -4.35 11.4 -2.55 11.65 1.15 11.65 1.55 11.3 1.5 10.7 1.5 8.05 1.75 3.85 1.75 Q3.7 0.9 3.7 -0.9 M11.9 -4.9 L11.65 -5.15 12.25 -4.9 13.35 -4.25 15.2 -3.15 14.3 -2.9 Q13.5 -2.45 13.5 -1.8 L13.6 -1.65 13.05 -0.95 13.0 -0.5 12.8 -0.75 12.15 -1.3 12.05 -2.9 11.9 -4.9 M11.4 3.9 L11.75 4.25 12.45 5.1 13.1 6.15 13.0 6.3 12.85 6.3 12.45 6.25 12.55 6.4 11.15 6.35 3.35 6.55 3.35 6.5 3.05 6.4 Q3.1 5.7 3.45 4.75 L3.85 3.75 5.8 3.75 11.25 3.65 11.4 3.9" fill="#333333" fill-rule="evenodd" stroke="none"/>
    <path d="M-14.4 -6.3 L-13.75 -8.0 Q-12.35 -10.85 -8.35 -10.85 L-7.35 -10.65 -5.65 -9.55 Q-5.0 -9.15 -4.5 -7.85 L-3.95 -6.15 -3.85 -5.15 -3.75 -4.8 -4.4 -4.8 Q-7.15 -4.7 -11.25 -4.9 L-11.55 -4.25 -11.55 -4.2 -11.45 -4.2 -11.7 -2.8 -11.9 0.15 -15.5 0.15 -16.35 0.05 -16.35 0.0 -15.85 -0.4 -15.3 -0.7 -14.95 -0.85 -15.05 -0.85 -14.65 -1.25 -14.4 -4.2 -14.4 -5.0 -14.45 -5.25 -14.4 -5.3 -14.4 -5.4 -14.4 -6.3 M-9.85 -4.15 L-7.9 -4.1 -8.15 -3.2 -8.25 -2.1 -8.4 0.25 -9.1 0.3 -10.25 0.15 -10.25 -1.9 -9.85 -4.15 M-6.25 8.25 L-6.15 9.15 -13.55 9.2 -13.45 8.55 -11.55 8.6 -8.7 8.45 -7.6 8.3 -6.25 8.25 M-3.7 15.1 L-3.5 15.2 -2.8 15.5 -3.3 15.95 -3.95 16.25 -3.85 15.95 -3.7 15.1 M-4.45 14.75 L-4.4 15.35 -4.65 16.4 -4.6 16.55 -5.9 17.05 -5.9 16.4 -6.05 15.45 -6.45 14.5 -6.95 13.5 -7.15 13.2 -4.65 13.1 -4.55 13.95 -4.35 14.55 -4.45 14.75 M-14.05 18.05 L-14.9 17.25 -14.15 17.3 -13.75 17.3 -13.8 17.4 -14.05 18.05 M-12.25 13.8 L-10.9 14.9 -12.15 15.8 -13.1 16.35 -13.2 16.3 -13.2 16.65 -13.4 16.6 -15.3 16.55 -15.5 16.6 -15.7 16.15 -15.65 16.1 -15.9 15.15 -15.9 15.0 -13.65 14.55 -12.25 13.8" fill="#666666" fill-rule="evenodd" stroke="none"/>
    <path d="M-14.4 -6.3 L-14.4 -5.4 -14.4 -5.3 -14.45 -5.25 -14.4 -5.0 -14.4 -4.2 -14.65 -1.25 -15.05 -0.85 -14.95 -0.85 -15.3 -0.7 -15.85 -0.4 -16.35 0.0 -16.35 0.05 -15.5 0.15 -11.9 0.15 -11.7 -2.8 -11.45 -4.2 -11.55 -4.2 -11.55 -4.25 -11.25 -4.9 Q-7.15 -4.7 -4.4 -4.8 L-3.75 -4.8 -3.85 -5.15 -3.95 -6.15 -4.5 -7.85 Q-5.0 -9.15 -5.65 -9.55 L-7.35 -10.65 -8.35 -10.85 Q-12.35 -10.85 -13.75 -8.0 L-14.4 -6.3 M-15.85 -1.2 L-15.6 -1.55 Q-15.2 -1.85 -15.2 -2.6 L-15.1 -4.2 -15.2 -5.15 -15.1 -5.55 -15.1 -5.75 Q-15.1 -7.6 -13.8 -9.25 -11.8 -11.7 -7.5 -11.55 -6.6 -11.2 -5.15 -9.95 -4.3 -9.2 -3.95 -8.45 -3.15 -6.75 -3.15 -5.25 L-3.2 -4.65 -3.15 -4.6 Q-3.15 -4.35 -3.3 -4.3 L-3.45 -4.25 -3.45 -3.85 -3.6 -2.55 -3.8 -1.45 Q-3.8 -0.65 -4.05 -0.3 -4.3 0.1 -5.5 0.25 L-4.95 0.55 -3.5 1.35 Q-1.35 2.2 -1.35 2.9 L-1.35 3.05 -0.95 3.2 Q-0.25 3.85 -0.1 4.35 L-0.05 5.35 -0.1 6.2 Q-0.3 6.55 -1.25 7.1 L-1.35 7.1 Q-1.6 7.7 -2.8 7.7 L-4.05 7.45 -4.45 6.6 -5.15 6.05 -5.1 7.3 -5.15 7.8 -5.2 7.9 -5.45 8.15 -5.5 8.2 -5.5 8.4 -5.2 9.4 -5.3 9.6 -5.05 9.95 -4.85 10.3 -4.55 10.65 Q-3.45 11.8 -3.45 12.6 -3.45 13.15 -3.75 13.15 L-4.05 13.15 -3.85 13.45 -3.85 13.5 -3.7 14.35 -3.1 14.55 Q-2.0 14.95 -1.9 15.2 L-1.85 15.2 -1.8 15.45 Q-1.8 15.9 -3.55 16.9 -5.45 17.95 -6.8 17.95 L-7.4 17.9 -7.6 17.95 -8.05 17.35 -8.05 16.75 -8.2 15.55 -8.8 14.2 -8.95 13.9 -9.2 14.2 -10.2 15.35 Q-10.7 15.85 -11.6 16.35 L-12.9 17.1 -12.9 17.25 -13.2 18.05 -13.45 18.9 Q-13.5 19.05 -13.75 19.05 -14.15 19.05 -15.15 18.15 L-15.95 17.15 -16.55 16.05 -16.55 15.2 -16.55 14.95 -16.6 14.95 -16.65 14.7 -16.55 14.5 -16.1 13.8 Q-15.75 13.35 -15.2 13.15 L-15.2 12.95 Q-15.2 12.05 -14.7 10.9 L-14.2 9.85 -14.05 9.65 -14.2 9.55 -14.2 8.35 -14.15 8.35 -14.2 8.3 -14.2 7.95 -14.35 7.3 -14.35 5.25 -15.4 5.8 -15.75 5.7 -15.75 6.8 Q-15.75 8.45 -15.95 8.7 L-17.85 8.9 -19.75 8.95 -19.6 8.7 -19.6 6.2 -19.55 4.05 -19.45 3.35 -19.5 3.05 Q-19.5 2.15 -16.35 0.75 L-16.95 0.65 -17.1 0.1 -16.95 -0.5 -15.85 -1.2 M-6.7 -3.15 L-6.35 -3.1 Q-6.05 -3.1 -6.05 -3.5 -6.05 -3.85 -6.4 -3.9 -6.75 -3.9 -6.75 -3.5 L-6.7 -3.15 M-9.85 -4.15 L-10.25 -1.9 -10.25 0.15 -9.1 0.3 -8.4 0.25 -8.25 -2.1 -8.15 -3.2 -7.9 -4.1 -9.85 -4.15 M-7.6 -0.3 L-6.6 -0.45 -5.1 -0.55 -4.8 -0.75 -4.55 -1.1 -4.35 -2.3 -7.05 -2.3 -7.55 -2.3 -7.65 -1.45 -7.65 -0.3 -7.6 -0.3 M-4.3 -3.0 L-4.25 -2.95 -4.25 -3.0 -4.3 -3.0 M-4.4 5.65 L-4.35 5.2 -3.8 4.5 -3.9 4.35 Q-3.9 3.7 -3.1 3.25 L-2.2 3.0 -4.05 1.9 -5.15 1.25 -5.75 1.0 -5.5 1.25 Q-5.3 1.8 -5.35 3.25 L-5.25 4.85 -4.6 5.4 -4.4 5.65 M-2.85 4.05 L-2.9 4.15 -2.8 4.15 -2.45 4.05 -1.65 4.25 Q-1.25 4.5 -1.25 5.25 L-1.25 6.3 -1.15 6.15 Q-0.7 5.75 -0.7 5.35 L-0.9 4.4 Q-1.2 3.6 -1.6 3.6 -2.35 3.6 -2.85 4.05 M-6.35 1.45 L-6.7 1.0 -7.0 0.35 -7.2 0.35 -7.7 0.35 -7.75 0.5 -8.25 0.95 -8.05 1.6 -7.9 2.3 -7.15 2.25 -7.1 2.5 -7.55 3.0 -7.15 3.75 -7.2 4.05 -7.5 4.15 -7.85 3.8 -7.9 4.55 -8.15 4.6 Q-8.55 4.5 -8.55 4.15 L-8.5 3.7 -8.8 3.9 -9.15 3.6 Q-9.15 3.3 -8.65 2.95 L-9.2 2.6 -9.4 2.35 Q-9.4 1.6 -8.6 2.15 L-8.65 1.95 -8.85 1.15 -8.85 1.0 -10.45 0.85 Q-10.8 0.85 -10.9 0.65 L-10.9 0.6 -11.0 0.65 -11.25 0.85 -11.35 0.8 -11.95 0.85 -11.8 0.95 Q-11.5 1.4 -11.5 2.25 -11.5 3.0 -11.65 3.15 L-13.0 4.2 -13.75 4.8 -13.7 5.25 -13.55 7.9 -9.35 7.9 -6.7 7.65 -6.1 7.65 -5.75 7.7 -5.75 7.3 -6.0 3.6 Q-5.95 2.4 -6.05 1.8 L-6.35 1.45 M-6.25 8.25 L-7.6 8.3 -8.7 8.45 -11.55 8.6 -13.45 8.55 -13.55 9.2 -6.15 9.15 -6.25 8.25 M-6.0 10.05 L-6.15 9.8 -11.6 9.9 -13.55 9.9 -13.95 10.9 -14.35 12.55 -14.05 12.65 -14.05 12.7 -6.25 12.5 -4.85 12.55 -4.95 12.4 -4.55 12.45 -4.4 12.45 -4.3 12.3 -4.95 11.25 -5.65 10.4 -6.0 10.05 M-3.45 7.05 L-2.05 7.05 -1.9 4.8 Q-3.8 4.4 -3.8 6.35 L-3.45 7.05 M-12.15 2.25 Q-12.05 1.8 -12.45 1.5 -13.15 0.9 -15.35 1.15 -16.7 1.6 -18.45 2.8 -16.15 4.9 -15.5 4.9 -14.65 4.9 -13.4 3.55 L-12.65 3.0 -12.15 2.25 M-18.75 3.6 L-18.95 4.05 -18.95 8.25 -16.45 8.25 -16.4 5.35 -17.4 4.45 -18.45 3.65 -18.75 3.6 M-12.25 13.8 L-13.65 14.55 -15.9 15.0 -15.9 15.15 -15.65 16.1 -15.7 16.15 -15.5 16.6 -15.3 16.55 -13.4 16.6 -13.2 16.65 -13.2 16.3 -13.1 16.35 -12.15 15.8 -10.9 14.9 -12.25 13.8 M-14.05 18.05 L-13.8 17.4 -13.75 17.3 -14.15 17.3 -14.9 17.25 -14.05 18.05 M-4.45 14.75 L-4.35 14.55 -4.55 13.95 -4.65 13.1 -7.15 13.2 -6.95 13.5 -6.45 14.5 -6.05 15.45 -5.9 16.4 -5.9 17.05 -4.6 16.55 -4.65 16.4 -4.4 15.35 -4.45 14.75 M-3.7 15.1 L-3.85 15.95 -3.95 16.25 -3.3 15.95 -2.8 15.5 -3.5 15.2 -3.7 15.1" fill="#282828" fill-rule="evenodd" stroke="none"/>
    <path d="M-6.7 -3.15 L-6.75 -3.5 Q-6.75 -3.9 -6.4 -3.9 -6.05 -3.85 -6.05 -3.5 -6.05 -3.1 -6.35 -3.1 L-6.7 -3.15 M-7.6 -0.3 L-7.65 -0.3 -7.65 -1.45 -7.55 -2.3 -7.05 -2.3 -4.35 -2.3 -4.55 -1.1 -4.8 -0.75 -5.1 -0.55 -6.6 -0.45 -7.6 -0.3 M-2.8 4.15 L-2.85 4.05 Q-2.35 3.6 -1.6 3.6 -1.2 3.6 -0.9 4.4 L-0.7 5.35 Q-0.7 5.75 -1.15 6.15 L-1.25 6.3 -1.25 5.25 Q-1.25 4.5 -1.65 4.25 L-2.45 4.05 -2.8 4.15 M-3.45 7.05 L-3.8 6.35 Q-3.8 4.4 -1.9 4.8 L-2.05 7.05 -3.45 7.05 M-18.75 3.6 L-18.45 3.65 -17.4 4.45 -16.4 5.35 -16.45 8.25 -18.95 8.25 -18.95 4.05 -18.75 3.6" fill="#999999" fill-rule="evenodd" stroke="none"/>
    <path d="M-4.4 5.65 L-4.6 5.4 -5.25 4.85 -5.35 3.25 Q-5.3 1.8 -5.5 1.25 L-5.75 1.0 -5.15 1.25 -4.05 1.9 -2.2 3.0 -3.1 3.25 Q-3.9 3.7 -3.9 4.35 L-3.8 4.5 -4.35 5.2 -4.4 5.65 M-6.35 1.45 L-6.05 1.8 Q-5.95 2.4 -6.0 3.6 L-5.75 7.3 -5.75 7.7 -6.1 7.65 -6.7 7.65 -9.35 7.9 -13.55 7.9 -13.7 5.25 -13.75 4.8 -13.0 4.2 -11.65 3.15 Q-11.5 3.0 -11.5 2.25 -11.5 1.4 -11.8 0.95 L-11.95 0.85 -11.35 0.8 -11.25 0.85 -11.0 0.65 -10.9 0.6 -10.9 0.65 Q-10.8 0.85 -10.45 0.85 L-8.85 1.0 -8.85 1.15 -8.65 1.95 -8.6 2.15 Q-9.4 1.6 -9.4 2.35 L-9.2 2.6 -8.65 2.95 Q-9.15 3.3 -9.15 3.6 L-8.8 3.9 -8.5 3.7 -8.55 4.15 Q-8.55 4.5 -8.15 4.6 L-7.9 4.55 -7.85 3.8 -7.5 4.15 -7.2 4.05 -7.15 3.75 -7.55 3.0 -7.1 2.5 -7.15 2.25 -7.9 2.3 -8.05 1.6 -8.25 0.95 -7.75 0.5 -7.7 0.35 -7.2 0.35 -7.0 0.35 -6.7 1.0 -6.35 1.45 M-6.0 10.05 L-5.65 10.4 -4.95 11.25 -4.3 12.3 -4.4 12.45 -4.55 12.45 -4.95 12.4 -4.85 12.55 -6.25 12.5 -14.05 12.7 -14.05 12.65 -14.35 12.55 -13.95 10.9 -13.55 9.9 -11.6 9.9 -6.15 9.8 -6.0 10.05 M-12.15 2.25 L-12.65 3.0 -13.4 3.55 Q-14.65 4.9 -15.5 4.9 -16.15 4.9 -18.45 2.8 -16.7 1.6 -15.35 1.15 -13.15 0.9 -12.45 1.5 -12.05 1.8 -12.15 2.25" fill="#333333" fill-rule="evenodd" stroke="none"/>
  </g>
</svg>
