<?xml version="1.0" encoding="UTF-8" standalone="no"?>
<svg xmlns:ffdec="https://www.free-decompiler.com/flash" xmlns:xlink="http://www.w3.org/1999/xlink" ffdec:objectType="shape" height="77.25px" width="86.4px" xmlns="http://www.w3.org/2000/svg">
  <g transform="matrix(1.0, 0.0, 0.0, 1.0, 43.2, 38.65)">
    <path d="M7.5 37.5 L7.6 37.5 7.5 37.9 7.5 37.5 M21.2 -28.15 Q22.85 -28.15 24.7 -26.75 26.85 -25.1 29.2 -21.5 31.85 -17.5 33.15 -15.95 L31.05 -14.9 Q27.95 -13.25 26.7 -12.75 L19.75 -9.7 15.95 -14.95 12.05 -20.45 Q17.7 -24.15 17.7 -26.3 L17.7 -26.4 18.15 -26.65 19.05 -27.5 Q19.65 -28.15 21.2 -28.15 M3.7 -15.8 L3.8 -15.55 Q3.8 -15.3 7.75 -9.9 L10.75 -5.8 6.7 -4.0 Q5.0 -3.2 0.95 -1.0 L-2.0 0.55 -3.8 -2.9 -5.7 -6.5 -7.35 -11.05 -7.85 -11.8 -3.95 -12.9 Q-0.45 -13.8 3.7 -15.8 M-22.2 -2.55 L-21.95 -5.75 Q-21.55 -6.95 -20.15 -7.8 L-19.35 -7.8 -19.1 -8.1 -19.0 -8.35 -17.05 -9.05 -17.2 -7.9 Q-17.2 -6.8 -14.9 -1.45 L-12.45 3.9 -13.7 4.2 Q-18.3 5.35 -19.05 5.85 -20.1 3.55 -21.5 1.45 -22.2 0.4 -22.2 -2.55" fill="#333333" fill-rule="evenodd" stroke="none"/>
    <path d="M22.9 -30.25 L23.35 -30.15 26.1 -28.35 Q28.25 -27.05 28.7 -26.25 30.0 -23.85 33.1 -20.2 35.2 -17.65 35.2 -16.15 L35.15 -15.5 Q36.2 -14.5 36.95 -13.1 L38.6 -9.75 Q43.2 1.75 43.2 3.5 43.2 6.2 42.9 6.5 L40.2 8.75 Q40.1 10.15 33.8 13.35 30.65 14.95 26.7 16.6 L17.8 20.5 Q12.8 22.65 10.6 23.3 11.45 24.3 11.95 25.95 13.05 29.25 13.2 35.05 L13.2 35.1 13.2 35.2 Q13.2 36.45 11.7 36.9 L8.6 37.4 7.6 37.5 7.5 37.5 1.45 37.6 -8.0 37.3 Q-11.25 36.85 -12.7 35.15 L-12.75 35.1 -13.05 34.65 -13.45 34.65 -13.4 34.25 -13.95 33.35 -14.6 32.4 -14.1 32.4 -15.05 29.15 -17.0 18.45 -17.25 18.45 -17.15 17.9 Q-17.15 17.25 -17.55 16.15 L-17.5 16.15 Q-18.45 11.7 -20.45 7.4 L-21.1 6.1 -21.2 5.7 -21.5 4.5 Q-22.05 3.2 -23.65 1.4 L-23.85 1.2 Q-24.2 0.15 -24.2 -2.65 L-23.95 -6.15 -23.1 -7.8 -23.5 -7.8 -22.35 -8.45 Q-20.15 -9.45 -19.3 -10.3 L-12.95 -12.4 -4.95 -14.65 Q0.05 -15.85 4.75 -18.4 L4.6 -18.4 6.2 -19.25 8.15 -20.35 9.95 -21.65 9.5 -21.35 Q14.0 -24.55 16.4 -27.45 L16.5 -27.55 16.4 -27.55 13.65 -27.15 15.9 -27.75 Q18.35 -28.55 18.7 -29.85 20.6 -30.75 22.9 -30.25 M21.2 -28.15 Q19.65 -28.15 19.05 -27.5 L18.15 -26.65 17.7 -26.4 17.7 -26.3 Q17.7 -24.15 12.05 -20.45 L15.95 -14.95 19.75 -9.7 26.7 -12.75 Q27.95 -13.25 31.05 -14.9 L33.15 -15.95 Q31.85 -17.5 29.2 -21.5 26.85 -25.1 24.7 -26.75 22.85 -28.15 21.2 -28.15 M4.95 -26.8 L4.15 -26.8 4.7 -26.9 4.95 -26.8 M11.1 -26.95 L11.75 -27.0 11.9 -27.0 11.1 -26.95 M-5.55 -26.8 L-2.15 -27.15 -2.1 -26.8 -5.55 -26.8 M14.05 -13.15 L13.95 -13.3 10.7 -19.25 10.75 -19.6 10.55 -19.5 9.6 -18.95 9.3 -18.75 9.2 -18.55 8.9 -18.5 Q6.75 -17.35 4.85 -16.35 6.55 -14.9 8.9 -11.5 L9.45 -10.7 12.4 -6.5 12.5 -6.55 16.45 -8.3 16.5 -8.3 17.3 -8.65 17.15 -8.85 Q15.8 -10.3 14.05 -13.15 M3.8 -15.55 L3.8 -15.85 3.7 -15.8 Q-0.45 -13.8 -3.95 -12.9 L-7.85 -11.8 -7.35 -11.05 -5.7 -6.5 -3.8 -2.9 -2.0 0.55 0.95 -1.0 Q5.0 -3.2 6.7 -4.0 L10.75 -5.8 7.75 -9.9 Q3.8 -15.3 3.8 -15.55 M40.1 -0.55 L38.7 -3.95 37.9 -5.75 37.85 -5.85 35.85 -10.1 33.7 -14.0 Q30.4 -11.65 22.75 -8.4 L10.2 -3.4 Q3.1 0.35 -0.65 2.1 -7.15 5.15 -18.45 7.05 L-18.5 7.05 -18.4 7.35 Q-16.15 12.8 -15.4 16.2 L-14.9 16.2 -14.7 16.35 Q-14.5 16.5 -14.5 17.3 L-14.5 17.65 -14.6 18.1 -14.9 18.4 -14.95 18.4 -14.0 21.75 -13.05 25.1 -12.7 26.85 -12.45 28.35 -12.35 29.25 -11.9 31.65 -11.45 32.45 -10.45 32.45 -10.2 32.55 Q-10.0 32.7 -10.0 33.55 L-10.0 33.85 -9.95 33.9 -9.9 33.95 -9.85 34.0 -9.7 34.2 -9.7 34.15 -9.65 34.0 -9.45 33.35 -4.0 28.0 Q1.25 23.75 3.8 22.6 L3.95 22.55 Q6.65 21.35 8.55 21.9 9.6 21.3 11.4 20.45 L15.85 18.4 20.55 16.5 25.2 14.65 Q30.55 11.6 33.1 10.35 35.9 8.95 37.7 8.35 L39.2 6.55 Q41.2 4.35 41.2 3.7 L41.2 3.65 41.2 3.55 40.7 1.2 40.65 1.05 40.5 0.6 40.35 0.15 40.1 -0.55 M7.1 35.3 L8.5 35.25 11.05 35.1 10.5 30.0 Q10.05 26.1 8.7 24.15 L8.35 24.25 7.3 24.5 4.9 25.15 Q2.45 25.9 0.6 26.85 L-2.3 28.7 -3.05 29.3 -3.2 29.55 -3.35 29.7 -7.75 34.8 -7.95 34.95 -8.35 35.3 -8.1 35.3 1.45 35.35 1.6 35.35 3.55 35.35 4.65 35.35 7.1 35.3 M-22.2 -2.55 Q-22.2 0.4 -21.5 1.45 -20.1 3.55 -19.05 5.85 -18.3 5.35 -13.7 4.2 L-12.45 3.9 -14.9 -1.45 Q-17.2 -6.8 -17.2 -7.9 L-17.05 -9.05 -19.0 -8.35 -19.1 -8.1 -19.35 -7.8 -20.15 -7.8 Q-21.55 -6.95 -21.95 -5.75 L-22.2 -2.55 M-5.95 -3.15 L-7.05 -5.0 Q-9.65 -9.25 -10.45 -11.1 L-15.75 -9.5 -14.8 -7.1 -13.65 -4.15 -12.25 -1.15 -10.7 2.25 -10.7 3.45 -4.2 1.5 Q-4.45 -0.35 -5.95 -3.15 M-33.0 19.0 L-33.85 19.0 -33.2 18.75 -33.0 19.0 M-25.05 34.65 L-24.45 34.2 -24.65 34.65 -24.95 34.65 -25.05 34.65" fill="#202020" fill-rule="evenodd" stroke="none"/>
    <path d="M-12.45 28.35 Q-10.15 26.45 -3.35 23.0 11.25 15.6 16.95 11.9 18.85 10.65 24.7 7.7 L28.3 5.75 29.9 4.6 30.95 3.95 31.7 3.35 Q34.65 1.05 38.4 -0.7 L39.8 -1.3 40.1 -0.55 40.35 0.15 40.5 0.6 40.65 1.05 40.7 1.2 41.2 3.55 41.2 3.65 41.2 3.7 Q41.2 4.35 39.2 6.55 L37.7 8.35 Q35.9 8.95 33.1 10.35 30.55 11.6 25.2 14.65 L20.55 16.5 15.85 18.4 11.4 20.45 Q9.6 21.3 8.55 21.9 6.65 21.35 3.95 22.55 L3.8 22.6 Q1.25 23.75 -4.0 28.0 L-9.45 33.35 -9.65 33.8 -9.9 33.95 -9.95 33.9 -10.0 33.85 -10.0 33.55 Q-10.0 32.7 -10.2 32.55 L-10.45 32.45 -11.45 32.45 -11.9 31.65 -12.35 29.25 -12.45 28.35 M4.9 25.15 L7.3 24.5 8.35 24.25 8.7 24.15 Q10.05 26.1 10.5 30.0 L11.05 35.1 8.5 35.25 7.1 35.3 7.1 34.55 6.95 33.85 5.6 29.9 Q4.8 27.6 4.8 26.1 L4.9 25.15 M-27.95 -17.6 L-27.95 -17.85 -27.1 -17.85 -27.95 -17.6 M-27.2 16.2 L-27.2 16.1 -27.15 16.2 -27.2 16.2" fill="#999999" fill-rule="evenodd" stroke="none"/>
    <path d="M8.6 37.4 L7.5 37.9 7.6 37.5 8.6 37.4 M-17.9 37.8 L-24.7 38.1 Q-29.85 38.1 -31.55 34.4 -32.15 33.1 -33.2 26.15 L-33.7 20.45 -33.85 19.0 -33.0 19.0 -26.65 18.8 Q-26.4 20.1 -26.3 21.65 L-26.2 27.35 -26.3 30.15 -26.2 32.6 -29.55 32.85 Q-30.85 33.0 -30.95 33.25 L-30.8 33.55 -30.55 34.5 -30.3 34.65 -25.05 34.65 -24.95 34.65 -23.7 35.9 -22.25 36.7 -20.7 37.4 -17.9 37.8 M-34.15 17.1 L-34.95 14.15 -39.9 2.35 Q-43.2 -5.55 -43.2 -9.55 -43.2 -13.75 -42.8 -14.75 -41.9 -16.95 -37.4 -20.65 -34.85 -22.7 -34.0 -23.15 -32.45 -23.9 -28.2 -24.9 L-22.6 -26.5 -17.45 -28.0 Q-14.25 -28.85 -8.9 -32.4 -2.2 -36.9 -0.2 -37.9 3.8 -39.85 8.95 -36.6 L10.1 -35.85 Q8.85 -35.1 7.95 -33.45 6.65 -31.25 5.35 -30.5 L3.5 -29.4 -7.25 -28.7 -8.5 -28.25 -8.35 -27.95 Q-8.35 -27.15 -8.15 -26.95 L-7.95 -26.8 -5.55 -26.8 -2.1 -26.8 -1.25 -26.8 -5.15 -24.9 -14.2 -21.15 -14.2 -20.9 -14.85 -20.9 -29.2 -19.85 Q-30.85 -19.35 -30.15 -18.55 -29.45 -17.85 -27.95 -17.85 L-27.95 -17.6 -28.95 -17.25 Q-34.05 -13.95 -34.9 -11.75 L-35.15 -9.8 -36.45 -9.7 Q-38.0 -9.55 -38.0 -8.9 L-37.8 -7.9 -37.6 -7.8 -35.2 -7.8 -35.2 -6.2 Q-35.2 -2.3 -34.85 -1.2 -34.45 0.1 -33.0 2.45 L-33.85 2.6 Q-34.3 2.7 -34.5 2.9 -35.75 3.1 -35.75 3.85 L-35.5 4.8 -35.3 5.0 -31.2 5.15 Q-29.85 7.2 -28.85 10.25 -28.25 12.15 -27.2 16.1 L-27.2 16.2 -32.7 16.6 -34.15 17.1 M16.4 -27.55 L16.5 -27.55 16.4 -27.45 16.4 -27.55 M18.6 -29.8 L18.35 -29.65 18.2 -30.0 18.6 -29.8 M40.1 -0.55 L39.8 -1.3 38.4 -0.7 Q34.65 1.05 31.7 3.35 L30.95 3.95 29.9 4.6 28.3 5.75 24.7 7.7 Q18.85 10.65 16.95 11.9 11.25 15.6 -3.35 23.0 -10.15 26.45 -12.45 28.35 L-12.7 26.85 -13.05 25.1 Q-10.95 24.9 1.0 18.15 12.3 11.8 15.95 9.15 16.3 8.9 29.6 1.6 L38.7 -3.95 40.1 -0.55 M-9.9 33.95 L-9.65 33.8 -9.45 33.35 -9.65 34.0 -9.7 34.15 -9.7 34.2 -9.85 34.0 -9.9 33.95 M35.85 -10.1 L33.1 -8.15 Q24.3 -2.3 15.95 1.5 12.25 3.2 7.3 6.3 L-0.45 11.15 -9.5 15.1 Q-12.7 16.55 -14.5 17.65 L-14.5 17.3 Q-14.5 16.5 -14.7 16.35 L-14.9 16.2 -15.4 16.2 Q-16.15 12.8 -18.4 7.35 L-18.45 7.05 Q-7.15 5.15 -0.65 2.1 3.1 0.35 10.2 -3.4 L22.75 -8.4 Q30.4 -11.65 33.7 -14.0 L35.85 -10.1 M4.9 25.15 L4.8 26.1 Q4.8 27.6 5.6 29.9 L6.95 33.85 7.1 34.55 7.1 35.3 4.65 35.35 4.4 34.7 4.15 34.15 3.05 31.65 2.7 28.45 Q2.55 27.15 1.75 26.35 L0.6 26.85 Q2.45 25.9 4.9 25.15 M-8.1 35.3 L-8.35 35.3 -7.95 34.95 -8.2 35.2 -8.1 35.3" fill="#666666" fill-rule="evenodd" stroke="none"/>
    <path d="M10.7 -19.25 L13.95 -13.3 14.05 -13.15 12.1 -12.75 Q10.5 -12.0 9.45 -10.7 L8.9 -11.5 Q6.55 -14.9 4.85 -16.35 6.75 -17.35 8.9 -18.5 L9.2 -18.55 9.3 -18.75 9.6 -18.95 10.55 -19.5 10.7 -19.25 M17.15 -8.85 L17.3 -8.65 16.5 -8.3 17.15 -8.85 M-12.25 -1.15 L-13.65 -4.15 -14.8 -7.1 -15.75 -9.5 -10.45 -11.1 Q-9.65 -9.25 -7.05 -5.0 L-5.95 -3.15 -7.95 -2.8 Q-10.6 -2.1 -12.25 -1.15" fill="#363530" fill-rule="evenodd" stroke="none"/>
    <path d="M9.45 -10.7 Q10.5 -12.0 12.1 -12.75 L14.05 -13.15 Q15.8 -10.3 17.15 -8.85 L16.5 -8.3 16.45 -8.3 12.5 -6.55 12.4 -6.5 9.45 -10.7 M-12.25 -1.15 Q-10.6 -2.1 -7.95 -2.8 L-5.95 -3.15 Q-4.45 -0.35 -4.2 1.5 L-10.7 3.45 -10.7 2.25 -12.25 -1.15" fill="#272623" fill-rule="evenodd" stroke="none"/>
    <path d="M7.5 37.9 L-6.95 38.6 -14.1 38.1 -17.9 37.8 -20.7 37.4 -22.25 36.7 -23.7 35.9 -24.95 34.65 -24.65 34.65 -13.45 34.65 -13.05 34.65 -12.75 35.1 -12.7 35.15 Q-11.25 36.85 -8.0 37.3 L1.45 37.6 7.5 37.5 7.5 37.9 M10.1 -35.85 L10.7 -36.15 Q17.65 -38.95 22.9 -30.25 20.6 -30.75 18.7 -29.85 L18.6 -29.8 18.2 -30.0 18.0 -29.9 14.45 -29.9 9.45 -29.6 3.5 -29.4 5.35 -30.5 Q6.65 -31.25 7.95 -33.45 8.85 -35.1 10.1 -35.85 M13.65 -27.15 L16.4 -27.55 16.4 -27.45 Q14.0 -24.55 9.5 -21.35 L9.45 -21.35 9.15 -21.1 9.05 -21.2 Q-12.2 -21.2 -12.2 -20.95 L-14.2 -20.9 -14.2 -21.15 -5.15 -24.9 -1.25 -26.8 4.15 -26.8 4.95 -26.8 11.1 -26.95 11.9 -27.0 11.95 -27.0 13.65 -27.15 M4.6 -18.4 L4.75 -18.4 Q0.05 -15.85 -4.95 -14.65 L-12.95 -12.4 -19.3 -10.3 -19.3 -10.35 -19.85 -10.1 -20.05 -10.05 -20.15 -10.0 Q-30.95 -10.1 -35.15 -9.8 L-34.9 -11.75 Q-34.05 -13.95 -28.95 -17.25 L-27.95 -17.6 -27.1 -17.85 -9.2 -18.15 4.6 -18.4 M-23.5 -7.8 L-23.1 -7.8 -23.95 -6.15 -24.2 -2.65 Q-24.2 0.15 -23.85 1.2 L-23.7 1.5 -23.3 2.2 Q-30.25 2.05 -33.0 2.45 -34.45 0.1 -34.85 -1.2 -35.2 -2.3 -35.2 -6.2 L-35.2 -7.8 -23.5 -7.8 M-21.1 6.1 L-20.45 7.4 Q-18.45 11.7 -17.5 16.15 L-17.55 16.15 Q-23.35 16.05 -27.15 16.2 L-27.2 16.1 Q-28.25 12.15 -28.85 10.25 -29.85 7.2 -31.2 5.15 L-25.9 5.35 -22.95 5.55 -21.45 5.45 -21.3 5.8 -21.1 6.1 M-17.25 18.45 L-17.0 18.45 -15.05 29.15 -14.1 32.4 -14.6 32.4 Q-22.1 32.35 -26.2 32.6 L-26.3 30.15 -26.2 27.35 -26.3 21.65 Q-26.4 20.1 -26.65 18.8 L-17.25 18.45 M38.7 -3.95 L29.6 1.6 Q16.3 8.9 15.95 9.15 12.3 11.8 1.0 18.15 -10.95 24.9 -13.05 25.1 L-14.0 21.75 -14.95 18.4 -14.9 18.4 -14.6 18.1 -14.5 17.65 Q-12.7 16.55 -9.5 15.1 L-0.45 11.15 7.3 6.3 Q12.25 3.2 15.95 1.5 24.3 -2.3 33.1 -8.15 L35.85 -10.1 37.85 -5.85 37.9 -5.75 38.7 -3.95 M4.65 35.35 L3.55 35.35 1.6 35.35 1.45 35.35 -8.1 35.3 -8.2 35.2 -7.95 34.95 -7.75 34.8 -3.35 29.7 -3.2 29.55 -3.05 29.3 -2.3 28.7 0.6 26.85 1.75 26.35 Q2.55 27.15 2.7 28.45 L3.05 31.65 4.15 34.15 4.4 34.7 4.65 35.35" fill="#515151" fill-rule="evenodd" stroke="none"/>
    <path d="M-33.85 19.0 L-34.2 19.0 -34.4 18.85 -34.65 17.85 Q-34.65 17.4 -34.15 17.1 L-32.7 16.6 -27.2 16.2 -27.15 16.2 Q-23.35 16.05 -17.55 16.15 -17.15 17.25 -17.15 17.9 L-17.25 18.45 -26.65 18.8 -33.0 19.0 -33.2 18.75 -33.85 19.0 M18.7 -29.85 Q18.35 -28.55 15.9 -27.75 L13.65 -27.15 11.95 -27.0 11.9 -27.0 11.75 -27.0 11.1 -26.95 4.95 -26.8 4.7 -26.9 4.15 -26.8 -1.25 -26.8 -2.1 -26.8 -2.15 -27.15 -5.55 -26.8 -7.95 -26.8 -8.15 -26.95 Q-8.35 -27.15 -8.35 -27.95 L-8.5 -28.25 -7.25 -28.7 3.5 -29.4 9.45 -29.6 14.45 -29.9 18.0 -29.9 18.2 -30.0 18.35 -29.65 18.6 -29.8 18.7 -29.85 M9.5 -21.35 L9.95 -21.65 8.15 -20.35 6.2 -19.25 4.6 -18.4 -9.2 -18.15 -27.1 -17.85 -27.95 -17.85 Q-29.45 -17.85 -30.15 -18.55 -30.85 -19.35 -29.2 -19.85 L-14.85 -20.9 -14.2 -20.9 -12.2 -20.95 Q-12.2 -21.2 9.05 -21.2 L9.15 -21.1 9.45 -21.35 9.5 -21.35 M-19.3 -10.3 Q-20.15 -9.45 -22.35 -8.45 L-23.5 -7.8 -35.2 -7.8 -37.6 -7.8 -37.8 -7.9 -38.0 -8.9 Q-38.0 -9.55 -36.45 -9.7 L-35.15 -9.8 Q-30.95 -10.1 -20.15 -10.0 L-20.05 -10.05 -19.85 -10.1 -19.3 -10.35 -19.3 -10.3 M-23.85 1.2 L-23.65 1.4 Q-22.05 3.2 -21.5 4.5 L-21.2 5.7 -21.1 6.1 -21.3 5.8 -21.45 5.45 -22.95 5.55 -25.9 5.35 -31.2 5.15 -35.3 5.0 -35.5 4.8 -35.75 3.85 Q-35.75 3.1 -34.5 2.9 -34.3 2.7 -33.85 2.6 L-33.0 2.45 Q-30.25 2.05 -23.3 2.2 L-23.7 1.5 -23.85 1.2 M-14.6 32.4 L-13.95 33.35 -13.4 34.25 -13.45 34.65 -24.65 34.65 -24.45 34.2 -25.05 34.65 -30.3 34.65 -30.55 34.5 -30.8 33.55 -30.95 33.25 Q-30.85 33.0 -29.55 32.85 L-26.2 32.6 Q-22.1 32.35 -14.6 32.4" fill="#3a3a3a" fill-rule="evenodd" stroke="none"/>
  </g>
</svg>
