<?xml version="1.0" encoding="UTF-8" standalone="no"?>
<svg xmlns:ffdec="https://www.free-decompiler.com/flash" xmlns:xlink="http://www.w3.org/1999/xlink" ffdec:objectType="frame" height="118.0px" width="91.5px" xmlns="http://www.w3.org/2000/svg">
  <g transform="matrix(1.0, 0.0, 0.0, 1.0, 45.75, 59.4)">
    <use ffdec:characterId="997" height="118.0" transform="matrix(1.0, 0.0, 0.0, 1.0, -45.75, -59.4)" width="91.5" xlink:href="#shape0"/>
  </g>
  <defs>
    <g id="shape0" transform="matrix(1.0, 0.0, 0.0, 1.0, 45.75, 59.4)">
      <path d="M-7.4 29.9 L-8.25 15.15 -8.2 12.75 -8.05 12.05 -10.6 11.0 Q-15.75 8.4 -15.45 4.75 L-15.95 7.6 Q-16.4 9.75 -17.75 10.85 -20.35 9.15 -21.65 6.5 L-23.5 2.0 -23.75 1.75 Q-24.25 4.05 -24.75 4.75 L-25.75 4.85 Q-28.1 4.85 -30.95 -4.4 L-31.85 -6.7 Q-32.35 -8.0 -32.25 -8.9 L-32.25 -13.4 Q-32.25 -18.25 -31.25 -23.8 -30.55 -27.65 -30.35 -30.5 L-35.15 -30.15 Q-34.9 -29.4 -34.8 -28.3 L-34.75 -25.05 -35.25 -20.75 -35.75 -16.45 -35.3 -14.2 -34.75 -11.75 Q-34.7 -10.95 -34.95 -9.5 L-35.25 -7.45 Q-34.75 -2.4 -34.75 -0.25 -32.65 0.9 -31.2 2.7 -29.75 4.55 -29.75 6.1 -29.75 10.35 -34.5 10.35 -38.9 10.35 -39.75 8.0 -40.2 6.8 -39.75 5.35 L-39.75 2.35 -36.75 -0.15 -36.75 -5.55 -37.75 -16.25 -37.3 -19.5 Q-36.85 -22.35 -36.75 -23.75 L-36.9 -27.7 Q-36.9 -29.15 -36.45 -30.15 L-36.75 -30.15 Q-41.7 -30.15 -42.95 -30.9 -43.25 -31.05 -43.25 -31.8 L-43.2 -32.45 Q-43.55 -33.25 -43.7 -34.5 L-43.75 -37.9 -43.7 -41.3 -43.15 -43.45 -43.25 -43.9 -43.2 -44.65 -43.1 -45.0 -42.25 -45.15 Q-41.2 -45.15 -39.25 -44.0 L-15.5 -42.9 -11.7 -42.9 -11.7 -43.4 -10.6 -42.95 -10.5 -42.95 Q-11.55 -44.15 -11.75 -46.55 L-11.75 -50.75 Q-11.85 -53.7 -12.3 -55.8 L-12.75 -58.45 -12.65 -59.05 -11.2 -59.4 1.25 -58.65 2.25 -57.65 Q0.75 -54.25 0.35 -50.35 0.1 -48.0 0.25 -43.35 L7.7 -43.8 24.8 -44.4 Q32.3 -44.0 36.3 -44.7 L39.55 -45.4 40.25 -39.75 Q40.3 -39.05 41.05 -36.85 L41.75 -34.15 41.75 -33.4 41.55 -33.0 41.6 -32.8 40.75 -32.65 37.95 -33.05 33.55 -33.45 34.25 -32.15 33.75 -26.5 33.25 -20.9 Q33.25 -20.5 33.95 -19.75 34.5 -17.5 35.55 -15.3 36.6 -13.1 37.8 -11.85 L37.8 -11.8 Q36.85 -12.2 35.0 -10.5 L34.8 -10.3 35.0 -10.95 32.85 -11.3 32.75 -11.35 Q33.6 -9.7 33.75 -6.9 L33.75 -1.2 33.55 2.0 33.25 2.2 33.25 3.35 Q38.1 3.05 39.35 4.85 39.75 5.45 39.75 7.55 39.75 9.7 39.05 10.7 37.95 12.35 34.75 12.35 31.4 12.35 30.75 10.85 30.4 10.1 30.75 9.2 L31.0 4.4 31.55 -1.05 31.35 -2.25 31.25 -6.3 31.3 -9.6 Q31.45 -10.95 31.8 -11.6 31.1 -11.85 30.75 -12.15 L30.35 -10.55 Q28.15 -2.65 21.75 8.85 20.6 8.3 20.6 6.65 L20.55 3.75 18.5 9.3 Q17.2 12.75 16.75 14.85 16.35 16.9 16.15 20.45 L15.8 26.1 Q16.0 26.35 14.75 26.35 13.8 26.35 12.7 25.05 L10.3 22.0 Q6.7 17.5 1.65 15.5 L2.0 22.65 2.25 28.85 2.25 31.35 Q2.25 34.8 2.7 38.35 L2.85 39.35 3.0 40.55 3.05 40.7 Q3.75 45.25 3.75 48.5 L3.7 49.25 Q3.55 49.25 3.5 49.35 L3.5 49.7 2.75 49.85 2.65 49.85 Q2.2 50.5 0.3 51.1 L0.25 51.15 Q0.1 49.8 -0.35 48.95 L1.75 48.35 1.8 48.35 Q1.1 46.1 0.6 40.55 L0.45 38.3 0.4 37.5 0.25 35.5 0.05 31.2 -0.25 21.0 Q-0.8 19.25 -0.85 17.55 -0.9 15.7 -0.15 14.85 L-6.45 12.65 Q-5.95 14.2 -5.85 16.15 L-5.75 21.9 -5.25 32.75 -5.25 33.3 -5.25 37.8 -5.25 38.15 -5.3 40.25 -5.35 40.6 Q-5.65 43.5 -7.25 49.65 L-4.65 49.55 -4.75 49.65 -4.75 51.85 -5.25 51.85 -6.2 51.85 -6.55 51.4 Q-7.75 49.85 -8.25 49.85 -9.0 49.85 -9.2 50.1 L-9.25 50.35 -9.25 49.25 Q-9.25 46.95 -8.25 42.95 L-7.7 40.2 -7.7 40.15 -7.45 38.1 -7.25 32.85 -7.4 29.9 M-9.75 -56.9 L-9.5 -51.1 -9.25 -46.95 -9.45 -43.0 -9.45 -42.95 -1.55 -43.25 -1.7 -43.85 -1.75 -46.15 -1.25 -51.0 -0.75 -55.9 -0.85 -56.9 -1.0 -57.0 -9.75 -56.9 M-41.75 -33.15 L-34.7 -33.15 -34.75 -33.4 -34.75 -34.8 -34.25 -38.55 -33.35 -41.3 -35.95 -41.4 -40.2 -41.75 Q-41.3 -41.9 -41.75 -42.15 L-41.75 -33.15 M-6.5 -38.0 L-10.1 -39.8 -11.1 -40.75 -15.25 -40.65 -26.7 -41.05 -26.25 -40.15 Q-26.25 -39.4 -26.55 -38.65 L-26.7 -38.2 -26.25 -38.0 -24.5 -37.35 Q-18.65 -35.5 -9.0 -35.05 L-6.2 -37.65 -6.15 -37.65 -6.15 -37.7 -6.5 -38.0 M-6.1 -40.1 L-4.55 -39.05 -4.5 -39.1 -2.15 -41.05 -7.25 -40.85 -6.1 -40.1 M-4.7 -36.2 L-6.45 -34.95 -3.1 -34.9 -4.25 -35.75 -4.7 -36.2 M-30.05 -40.15 L-28.75 -39.2 -28.75 -39.65 -28.6 -41.1 -30.4 -41.2 -31.0 -41.2 -31.25 -41.2 -31.25 -41.15 Q-31.05 -41.15 -30.25 -40.35 L-30.05 -40.15 M-31.25 -35.95 L-32.2 -37.7 -32.45 -36.4 -32.4 -34.2 -32.5 -33.15 -30.25 -33.15 Q-30.4 -34.1 -31.0 -35.45 L-31.25 -35.95 M-22.5 -34.15 L-23.5 -34.4 -24.85 -34.75 -25.0 -34.8 -26.25 -35.2 -28.15 -35.95 -28.25 -36.0 -28.75 -36.25 -28.65 -35.9 -28.6 -35.8 -28.45 -35.25 -28.25 -33.15 -28.25 -32.65 -28.25 -32.25 -28.25 -32.15 -28.25 -32.05 Q-28.35 -28.75 -29.25 -23.3 -30.25 -17.35 -30.25 -13.3 -30.25 -8.0 -29.9 -6.6 -29.4 -4.7 -26.0 1.85 L-25.75 1.85 -25.75 1.75 -25.5 0.45 -25.2 -1.4 -24.95 -1.5 -24.0 -1.65 Q-22.6 -1.65 -20.55 2.75 L-18.5 7.75 -18.25 7.75 -16.7 -0.4 -16.45 -0.5 -15.85 -0.65 -15.65 -0.65 -15.5 -0.65 Q-15.0 -0.65 -13.75 2.5 L-13.65 2.75 -13.55 2.95 -13.55 3.0 -13.4 3.3 -13.35 3.4 -12.0 6.75 -11.95 6.85 -11.85 6.95 -11.8 7.0 -11.75 7.1 -11.7 7.15 -11.65 7.2 -11.6 7.25 -11.55 7.3 -10.15 8.3 -10.1 8.3 -10.05 8.35 -4.95 10.55 -4.75 10.6 -1.7 11.6 Q3.55 13.25 7.85 16.8 L14.25 22.65 Q12.95 18.25 15.65 10.75 L16.6 8.2 Q19.5 -0.05 19.8 -1.9 L20.05 -2.0 21.0 -2.15 Q23.05 -2.15 23.1 0.15 L23.1 0.3 23.0 1.15 22.95 1.5 22.75 2.85 23.4 1.8 24.25 0.2 Q26.85 -4.8 28.05 -10.35 L28.75 -14.9 29.0 -15.0 29.05 -15.0 29.2 -15.05 29.25 -15.05 30.0 -15.15 Q30.45 -15.15 31.2 -14.45 L32.0 -13.75 34.05 -13.9 27.95 -27.05 Q26.25 -31.55 25.85 -36.3 L25.75 -39.0 25.75 -39.5 25.55 -39.35 25.5 -39.3 23.95 -38.3 22.65 -37.7 22.65 -37.65 19.25 -36.25 Q9.85 -32.65 -2.5 -32.65 -15.2 -32.65 -22.5 -34.15 M37.75 -42.65 L28.0 -42.3 28.3 -41.75 29.8 -39.4 32.25 -36.6 32.9 -35.8 38.75 -35.75 38.25 -39.05 37.75 -42.4 37.75 -42.65 M23.75 -41.3 L25.75 -42.15 25.75 -42.2 23.7 -42.1 23.75 -41.3 M1.8 -34.95 L10.05 -35.7 Q13.8 -36.4 18.75 -38.65 L21.25 -39.95 21.25 -42.0 12.3 -41.65 0.9 -41.15 Q0.1 -40.0 -2.65 -37.8 0.35 -35.85 1.75 -35.15 L1.75 -34.95 1.8 -34.95 M30.05 -27.0 L31.2 -24.45 31.1 -28.45 Q31.15 -31.85 31.95 -33.5 L28.55 -33.65 28.45 -33.7 Q29.15 -29.4 30.05 -27.0 M30.05 -35.55 L28.05 -37.9 28.25 -35.0 28.9 -35.35 30.05 -35.55 M34.1 5.95 L34.15 6.0 33.75 5.85 33.0 6.0 32.8 6.35 32.75 6.75 32.75 6.95 32.75 7.2 32.8 7.55 32.8 7.7 32.95 8.1 33.0 8.15 33.3 8.25 33.35 8.25 33.1 8.4 32.9 8.7 Q32.75 8.95 32.75 9.25 L32.8 10.15 33.0 10.25 Q37.75 10.3 37.75 7.7 37.75 6.75 37.2 6.1 36.35 5.1 34.45 5.45 L34.1 5.55 33.8 5.6 34.1 5.95 M-34.75 2.8 Q-37.75 1.7 -37.75 5.45 -38.05 7.05 -37.75 7.5 -37.4 8.1 -34.35 8.1 -32.5 8.1 -31.95 7.15 L-31.75 6.05 Q-31.75 3.9 -34.75 2.8 M-3.35 49.45 L-1.75 49.25 Q-1.8 50.4 -2.0 50.65 -2.8 49.7 -3.35 49.45 M-9.25 50.45 L-9.2 50.7 -9.25 50.65 -9.25 50.45" fill="#333333" fill-rule="evenodd" stroke="none"/>
      <path d="M-4.65 49.55 L-7.25 49.65 Q-5.65 43.5 -5.35 40.6 L-5.3 40.25 -5.25 38.15 -5.25 37.8 -5.25 33.3 -5.25 32.75 -5.75 21.9 -5.85 16.15 Q-5.95 14.2 -6.45 12.65 L-0.15 14.85 Q-0.9 15.7 -0.85 17.55 -0.8 19.25 -0.25 21.0 L0.05 31.2 0.25 35.5 0.4 37.5 0.45 38.3 0.6 40.55 Q1.1 46.1 1.8 48.35 L1.75 48.35 -0.35 48.95 -0.75 48.35 -1.4 48.6 -1.75 48.85 -1.75 49.25 -3.35 49.45 -3.75 49.35 -4.6 49.5 -4.65 49.55 M-41.75 -33.15 L-41.75 -42.15 Q-41.3 -41.9 -40.2 -41.75 L-35.95 -41.4 -33.35 -41.3 -34.25 -38.55 -34.75 -34.8 -34.75 -33.4 -34.7 -33.15 -41.75 -33.15 M-9.75 -56.9 L-1.0 -57.0 -0.85 -56.9 -0.75 -55.9 -1.25 -51.0 -1.75 -46.15 -1.7 -43.85 -1.55 -43.25 -9.45 -42.95 -9.45 -43.0 -9.25 -46.95 -9.5 -51.1 -9.75 -56.9 M-6.5 -38.0 L-6.15 -37.65 -6.2 -37.65 -9.0 -35.05 Q-18.65 -35.5 -24.5 -37.35 L-26.25 -38.0 -26.7 -38.2 -26.55 -38.65 Q-26.25 -39.4 -26.25 -40.15 L-26.7 -41.05 -15.25 -40.65 -11.1 -40.75 -10.1 -39.8 -6.5 -38.0 M-31.25 -35.95 L-31.0 -35.45 Q-30.4 -34.1 -30.25 -33.15 L-32.5 -33.15 -32.4 -34.2 -32.45 -36.4 -32.2 -37.7 -31.25 -35.95 M-30.05 -40.15 L-30.25 -40.35 Q-31.05 -41.15 -31.25 -41.15 L-31.25 -41.2 -31.0 -41.2 -30.4 -41.2 -28.6 -41.1 -28.75 -39.65 -28.75 -39.2 -30.05 -40.15 M-4.7 -36.2 L-4.25 -35.75 -3.1 -34.9 -6.45 -34.95 -4.7 -36.2 M-6.1 -40.1 L-7.25 -40.85 -2.15 -41.05 -4.5 -39.1 -4.55 -39.05 -6.1 -40.1 M23.75 -41.3 L23.7 -42.1 25.75 -42.2 25.75 -42.15 23.75 -41.3 M37.75 -42.65 L37.75 -42.4 38.25 -39.05 38.75 -35.75 32.9 -35.8 32.25 -36.6 29.8 -39.4 28.3 -41.75 28.0 -42.3 37.75 -42.65 M1.75 -35.15 Q0.35 -35.85 -2.65 -37.8 0.1 -40.0 0.9 -41.15 L12.3 -41.65 21.25 -42.0 21.25 -39.95 18.75 -38.65 Q13.8 -36.4 10.05 -35.7 L1.8 -34.95 1.75 -35.15 M30.05 -35.55 L28.9 -35.35 28.25 -35.0 28.05 -37.9 30.05 -35.55" fill="#666666" fill-rule="evenodd" stroke="none"/>
      <path d="M-22.5 -34.15 L-22.2 -34.1 Q-21.75 -31.6 -21.75 -29.2 L-21.75 -28.05 Q-21.45 -27.5 -21.25 -26.25 L-20.8 -22.7 -20.25 -19.15 -20.25 2.25 -20.35 2.55 -20.55 2.75 Q-22.6 -1.65 -24.0 -1.65 L-24.95 -1.5 -25.2 -1.4 -25.5 0.45 -25.75 1.75 -25.0 -2.9 -24.25 -7.0 Q-24.25 -9.7 -23.75 -12.0 -23.25 -14.3 -23.25 -15.25 L-28.25 -33.15 -28.45 -35.25 -28.6 -35.8 -28.65 -35.9 -28.25 -36.0 -28.15 -35.95 -26.25 -35.2 -25.0 -34.8 -24.75 -34.05 -24.85 -34.75 -23.5 -34.4 -22.5 -34.15 M-15.85 -0.65 L-15.85 -1.15 -15.75 -6.25 Q-16.25 -10.0 -16.25 -15.45 L-16.15 -20.9 Q-15.75 -24.3 -14.25 -25.65 -12.05 -21.95 -10.55 -16.9 L-8.25 -7.75 Q-6.95 -2.3 -4.75 9.85 L-4.75 10.6 -4.95 10.55 -10.05 8.35 -10.1 8.3 -10.15 8.3 -11.55 7.3 -11.6 7.25 -11.65 7.2 -11.7 7.15 -11.75 7.1 -11.8 7.0 -11.85 6.95 -11.95 6.85 -12.0 6.75 -13.35 3.4 -13.4 3.3 -13.55 3.0 -13.55 2.95 -13.7 2.0 -13.75 2.5 Q-15.0 -0.65 -15.5 -0.65 L-15.65 -0.65 -15.85 -0.65 M16.6 8.2 Q15.45 6.95 15.0 4.45 L14.55 0.25 13.05 -7.65 10.1 -16.25 Q7.75 -22.7 7.75 -23.2 7.75 -25.0 8.75 -28.5 10.4 -27.2 12.1 -22.8 13.85 -18.15 16.25 -16.0 L20.7 -9.05 24.25 -2.15 24.25 0.2 23.4 1.8 23.25 1.85 22.95 1.5 23.0 1.15 23.1 0.3 23.1 0.15 Q23.05 -2.15 21.0 -2.15 L20.05 -2.0 19.8 -1.9 Q19.5 -0.05 16.6 8.2 M28.05 -10.35 Q25.15 -11.55 23.25 -19.9 22.15 -24.8 21.75 -30.0 21.75 -33.9 22.55 -36.4 L22.65 -37.65 22.65 -37.7 23.95 -38.3 25.5 -39.3 25.55 -39.35 25.75 -39.0 25.85 -36.3 25.75 -35.75 25.25 -32.5 Q25.25 -29.25 27.75 -20.2 L29.25 -15.05 29.2 -15.05 29.05 -15.0 29.0 -15.0 28.75 -14.9 28.05 -10.35 M34.1 5.55 L34.45 5.45 Q36.35 5.1 37.2 6.1 37.75 6.75 37.75 7.7 37.75 10.3 33.0 10.25 L32.8 10.15 32.75 9.25 Q32.75 8.95 32.9 8.7 L33.1 8.4 33.35 8.25 33.3 8.25 33.0 8.15 32.95 8.1 32.8 7.7 32.8 7.55 32.75 7.2 32.75 6.95 32.75 6.75 32.8 6.35 33.0 6.0 33.75 5.85 34.15 6.0 34.1 5.95 34.1 5.55 M-34.75 2.8 Q-31.75 3.9 -31.75 6.05 L-31.95 7.15 Q-32.5 8.1 -34.35 8.1 -37.4 8.1 -37.75 7.5 -38.05 7.05 -37.75 5.45 -37.75 1.7 -34.75 2.8" fill="#999999" fill-rule="evenodd" stroke="none"/>
      <path d="M-20.55 2.75 L-20.35 2.55 -20.25 2.25 -20.25 -19.15 -20.8 -22.7 -21.25 -26.25 Q-21.45 -27.5 -21.75 -28.05 L-21.75 -29.2 Q-21.75 -31.6 -22.2 -34.1 L-22.5 -34.15 Q-15.2 -32.65 -2.5 -32.65 9.85 -32.65 19.25 -36.25 L22.65 -37.65 22.55 -36.4 Q21.75 -33.9 21.75 -30.0 22.15 -24.8 23.25 -19.9 25.15 -11.55 28.05 -10.35 26.85 -4.8 24.25 0.2 L24.25 -2.15 20.7 -9.05 16.25 -16.0 Q13.85 -18.15 12.1 -22.8 10.4 -27.2 8.75 -28.5 7.75 -25.0 7.75 -23.2 7.75 -22.7 10.1 -16.25 L13.05 -7.65 14.55 0.25 15.0 4.45 Q15.45 6.95 16.6 8.2 L15.65 10.75 Q12.95 18.25 14.25 22.65 L7.85 16.8 Q3.55 13.25 -1.7 11.6 L-4.75 10.6 -4.75 9.85 Q-6.95 -2.3 -8.25 -7.75 L-10.55 -16.9 Q-12.05 -21.95 -14.25 -25.65 -15.75 -24.3 -16.15 -20.9 L-16.25 -15.45 Q-16.25 -10.0 -15.75 -6.25 L-15.85 -1.15 -15.85 -0.65 -16.45 -0.5 -16.7 -0.4 -18.25 7.75 -18.5 7.75 -20.55 2.75 M-24.85 -34.75 L-24.75 -34.05 -25.0 -34.8 -24.85 -34.75 M-28.25 -33.15 L-23.25 -15.25 Q-23.25 -14.3 -23.75 -12.0 -24.25 -9.7 -24.25 -7.0 L-25.0 -2.9 -25.75 1.75 -25.75 1.85 -26.0 1.85 Q-29.4 -4.7 -29.9 -6.6 -30.25 -8.0 -30.25 -13.3 -30.25 -17.35 -29.25 -23.3 -28.35 -28.75 -28.25 -32.05 L-28.25 -32.15 -28.25 -32.25 -28.25 -32.65 -28.25 -33.15 M25.85 -36.3 Q26.25 -31.55 27.95 -27.05 L34.05 -13.9 32.0 -13.75 31.2 -14.45 Q30.45 -15.15 30.0 -15.15 L29.25 -15.05 27.75 -20.2 Q25.25 -29.25 25.25 -32.5 L25.75 -35.75 25.85 -36.3 M23.4 1.8 L22.75 2.85 22.95 1.5 23.25 1.85 23.4 1.8 M-13.55 2.95 L-13.65 2.75 -13.75 2.5 -13.7 2.0 -13.55 2.95" fill="#cccccc" fill-rule="evenodd" stroke="none"/>
      <path d="M2.25 28.85 Q2.9 28.85 3.45 29.35 4.0 29.85 4.6 29.85 6.6 29.85 7.8 28.1 9.7 25.3 10.25 24.85 11.45 25.7 11.7 28.15 L11.75 31.85 12.25 31.45 13.25 30.85 13.95 31.5 14.25 32.35 Q14.85 30.85 15.75 30.85 16.55 30.85 16.65 31.2 L16.75 31.85 Q17.0 31.3 18.25 30.35 18.95 30.65 19.25 31.35 19.75 31.05 20.2 29.4 20.65 27.9 22.25 27.35 23.3 27.95 23.3 28.8 L22.75 30.6 22.75 30.85 Q24.8 30.35 25.25 29.25 25.55 28.35 27.25 28.35 27.95 28.35 28.3 27.85 L28.75 27.35 29.45 27.55 Q29.75 27.65 29.75 28.45 29.75 29.1 28.9 30.6 28.0 32.15 28.0 32.6 28.0 33.15 28.35 34.25 28.65 35.2 28.55 35.85 L30.25 34.35 Q32.0 35.5 32.25 36.4 L35.95 32.2 Q36.95 31.35 38.55 31.35 L39.75 30.55 40.75 29.4 41.8 29.35 42.05 29.5 Q42.25 29.6 42.25 30.35 42.25 31.0 41.0 33.55 L39.25 37.1 40.25 36.85 Q41.05 37.8 41.1 38.6 L41.0 39.45 41.85 39.9 Q42.7 40.25 42.75 41.15 L42.75 41.5 Q43.9 40.5 44.75 40.35 L45.45 40.5 Q45.75 40.6 45.75 41.35 45.75 43.55 41.1 48.05 37.1 51.9 34.75 53.15 L32.75 53.95 29.4 54.9 23.25 56.35 19.25 56.85 9.3 57.6 0.5 58.6 -0.5 58.5 -8.3 58.1 Q-9.4 57.35 -14.7 57.6 L-15.5 57.65 -29.15 56.65 -32.05 56.15 -32.3 56.05 -32.35 56.05 -32.4 56.1 -35.0 55.5 -36.4 55.5 Q-38.2 54.45 -39.95 52.2 -42.3 49.1 -42.7 47.6 L-43.85 45.65 Q-45.75 42.3 -45.75 41.25 -45.75 40.5 -45.25 40.35 L-44.75 40.35 -41.05 44.3 Q-41.75 41.65 -41.75 39.95 L-41.5 37.65 -41.6 37.5 -40.75 37.35 -37.25 40.6 Q-36.5 41.4 -36.15 41.35 L-34.75 41.15 Q-35.75 39.05 -35.75 37.4 L-35.5 35.6 -35.25 33.65 -35.0 33.5 -34.0 33.35 Q-33.6 33.35 -32.65 34.35 L-31.45 35.65 Q-31.25 34.85 -31.25 32.15 L-31.1 32.0 -30.25 31.85 -28.5 32.9 Q-27.15 33.9 -26.5 34.65 -24.55 32.95 -24.55 29.7 -24.6 25.35 -24.25 24.4 -22.25 25.05 -21.55 27.8 L-20.45 32.35 Q-20.15 32.35 -19.9 32.5 L-18.95 32.65 Q-18.25 32.65 -18.2 32.0 -18.1 31.35 -17.75 31.35 L-17.1 31.6 -15.95 31.85 Q-14.6 31.85 -12.9 29.1 -11.2 26.35 -9.75 26.35 L-8.7 26.4 -7.95 26.6 Q-8.1 28.25 -7.4 29.9 L-7.25 32.85 -7.45 38.1 Q-15.25 37.95 -15.25 38.1 -23.35 38.7 -29.7 40.35 L-32.25 41.6 -35.2 43.55 -35.6 43.9 -34.4 46.1 -33.65 47.55 -33.25 48.1 Q-32.15 49.7 -30.95 49.85 L-30.75 49.85 Q-30.6 49.85 -29.35 50.95 -28.05 52.05 -27.5 52.15 L-27.2 51.4 Q-26.85 50.9 -25.25 50.15 -26.25 48.05 -26.25 46.95 -26.25 46.1 -26.05 45.8 -25.9 45.6 -25.25 45.35 -23.55 46.1 -23.6 46.85 -23.7 47.35 -22.75 47.35 L-21.5 48.95 -19.7 50.9 -17.3 52.05 -14.5 53.15 -15.3 51.6 -15.75 49.9 -15.7 49.65 Q-15.55 49.35 -14.75 49.35 -14.1 49.35 -13.4 50.5 L-12.5 52.15 -12.2 52.35 -12.25 50.9 -12.2 50.65 Q-12.05 50.35 -11.25 50.35 -10.5 50.35 -10.05 51.45 -9.55 52.8 -8.2 53.4 -9.1 51.85 -9.2 50.7 L-9.25 50.45 -9.25 50.35 -9.2 50.1 Q-9.0 49.85 -8.25 49.85 -7.75 49.85 -6.55 51.4 L-6.2 51.85 -4.75 53.4 -4.75 51.85 -4.75 49.65 -4.65 49.55 -4.6 49.5 -3.75 49.35 -3.35 49.45 Q-2.8 49.7 -2.0 50.65 -1.8 50.4 -1.75 49.25 L-1.75 48.85 -1.4 48.6 -0.75 48.35 -0.35 48.95 Q0.1 49.8 0.25 51.15 L0.25 51.9 0.65 52.25 1.8 52.4 2.9 51.45 Q3.75 50.45 4.25 50.35 5.2 51.0 5.3 52.15 L8.0 49.65 9.15 49.55 10.3 49.35 12.0 46.7 Q12.95 44.95 13.75 44.85 L14.45 45.5 14.75 46.15 15.45 46.05 16.55 46.1 16.65 46.5 16.75 47.6 16.3 49.1 15.5 50.6 15.25 50.9 16.65 50.25 Q17.3 49.85 18.0 49.85 19.25 49.85 19.25 51.15 21.3 50.75 22.85 48.95 24.2 47.35 24.75 47.35 25.5 47.35 25.75 47.85 L26.0 48.4 28.65 46.3 Q30.2 44.85 31.05 44.45 L31.25 44.35 31.45 44.65 Q31.95 45.4 32.05 46.35 32.2 47.5 31.5 47.9 L31.75 48.1 34.6 45.45 35.1 45.0 35.9 44.3 34.4 43.45 34.25 43.4 33.3 42.9 Q32.1 42.35 31.0 41.95 L30.3 41.7 29.05 41.35 23.0 39.8 23.05 39.6 22.9 39.8 19.2 39.05 17.25 38.85 2.7 38.35 Q2.25 34.8 2.25 31.35 L2.25 28.85 M-37.25 48.6 L-37.2 47.85 Q-37.2 47.1 -37.6 46.3 L-38.0 45.65 -38.2 45.8 -39.1 46.65 -37.45 48.65 -37.25 48.6" fill="#3c3cff" fill-rule="evenodd" stroke="none"/>
      <path d="M32.75 53.95 Q29.1 55.65 23.9 56.65 L19.25 56.85 23.25 56.35 29.4 54.9 32.75 53.95 M-7.45 38.1 L-7.7 40.15 -7.7 40.2 -8.25 42.95 Q-9.25 46.95 -9.25 49.25 L-9.25 50.35 -9.25 50.45 -9.25 50.65 -9.2 50.7 Q-9.1 51.85 -8.2 53.4 -9.55 52.8 -10.05 51.45 -10.5 50.35 -11.25 50.35 -12.05 50.35 -12.2 50.65 L-12.25 50.9 -12.2 52.35 -12.5 52.15 -13.4 50.5 Q-14.1 49.35 -14.75 49.35 -15.55 49.35 -15.7 49.65 L-15.75 49.9 -15.3 51.6 -14.5 53.15 -17.3 52.05 -19.7 50.9 -21.5 48.95 -22.75 47.35 Q-23.7 47.35 -23.6 46.85 -23.55 46.1 -25.25 45.35 -25.9 45.6 -26.05 45.8 -26.25 46.1 -26.25 46.95 -26.25 48.05 -25.25 50.15 -26.85 50.9 -27.2 51.4 L-27.5 52.15 Q-28.05 52.05 -29.35 50.95 -30.6 49.85 -30.75 49.85 L-30.95 49.85 Q-32.15 49.7 -33.25 48.1 L-33.65 47.55 -34.4 46.1 -35.6 43.9 -35.2 43.55 -32.25 41.6 -29.7 40.35 Q-23.35 38.7 -15.25 38.1 -15.25 37.95 -7.45 38.1 M-6.2 51.85 L-5.25 51.85 -4.75 51.85 -4.75 53.4 -6.2 51.85 M0.25 51.15 L0.3 51.1 Q2.2 50.5 2.65 49.85 L2.75 49.85 3.5 49.7 3.5 49.35 Q3.55 49.25 3.7 49.25 L3.75 48.5 Q3.75 45.25 3.05 40.7 L3.0 40.55 2.85 39.35 2.7 38.35 17.25 38.85 19.2 39.05 22.9 39.8 23.0 39.8 29.05 41.35 30.3 41.7 31.0 41.95 Q32.1 42.35 33.3 42.9 L34.25 43.4 34.4 43.45 35.9 44.3 35.1 45.0 34.6 45.45 31.75 48.1 31.5 47.9 Q32.2 47.5 32.05 46.35 31.95 45.4 31.45 44.65 L31.25 44.35 31.05 44.45 Q30.2 44.85 28.65 46.3 L26.0 48.4 25.75 47.85 Q25.5 47.35 24.75 47.35 24.2 47.35 22.85 48.95 21.3 50.75 19.25 51.15 19.25 49.85 18.0 49.85 17.3 49.85 16.65 50.25 L15.25 50.9 15.5 50.6 16.3 49.1 16.75 47.6 16.65 46.5 16.55 46.1 15.45 46.05 14.75 46.15 14.45 45.5 13.75 44.85 Q12.95 44.95 12.0 46.7 L10.3 49.35 9.15 49.55 8.0 49.65 5.3 52.15 Q5.2 51.0 4.25 50.35 3.75 50.45 2.9 51.45 L1.8 52.4 0.65 52.25 0.25 51.9 0.25 51.15 M-37.25 48.6 L-37.45 48.65 -39.1 46.65 -38.2 45.8 -38.0 45.65 -37.6 46.3 Q-37.2 47.1 -37.2 47.85 L-37.25 48.6" fill="#000099" fill-rule="evenodd" stroke="none"/>
    </g>
  </defs>
</svg>
