<?xml version="1.0" encoding="UTF-8" standalone="no"?>
<svg xmlns:ffdec="https://www.free-decompiler.com/flash" xmlns:xlink="http://www.w3.org/1999/xlink" ffdec:objectType="frame" height="192.3px" width="199.25px" xmlns="http://www.w3.org/2000/svg">
  <g transform="matrix(1.0, 0.0, 0.0, 1.0, 1.6, -1.5)">
    <filter id="filter25">
      <feColorMatrix in="SourceGraphic" result="filterResult0" type="matrix" values="0 0 0 0 0.0,0 0 0 0 0.0,0 0 0 0 0.0,0 0 0 1 0"/>
      <feConvolveMatrix divisor="4.0" in="filterResult0" kernelMatrix="1 1 1 1" order="2 2" result="filterResult1"/>
      <feComposite in="SourceGraphic" in2="filterResult1" operator="over" result="filterResult2"/>
    </filter>
    <use ffdec:characterId="288" filter="url(#filter25)" height="25.6" transform="matrix(1.0, 0.0, 0.0, 1.0, 41.8, 110.35)" width="119.95" xlink:href="#text0"/>
    <filter id="filter26">
      <feColorMatrix in="SourceGraphic" result="filterResult3" type="matrix" values="0 0 0 0 0.0,0 0 0 0 0.0,0 0 0 0 0.0,0 0 0 1 0"/>
      <feConvolveMatrix divisor="16.0" in="filterResult3" kernelMatrix="1 1 1 1 1 1 1 1 1 1 1 1 1 1 1 1" order="4 4" result="filterResult4"/>
      <feComposite in="SourceGraphic" in2="filterResult4" operator="over" result="filterResult5"/>
    </filter>
    <use ffdec:characterId="113" filter="url(#filter26)" height="97.9" transform="matrix(0.2863, 0.0, 0.0, 0.2863, 14.0459, 76.4743)" width="592.7" xlink:href="#sprite0"/>
    <filter id="filter34">
      <feColorMatrix in="SourceGraphic" result="filterResult6" type="matrix" values="0 0 0 0 0.0,0 0 0 0 0.0,0 0 0 0 0.0,0 0 0 1 0"/>
      <feConvolveMatrix divisor="4.0" in="filterResult6" kernelMatrix="1 1 1 1" order="2 2" result="filterResult7"/>
      <feComposite in="SourceGraphic" in2="filterResult7" operator="over" result="filterResult8"/>
    </filter>
    <use ffdec:characterId="289" filter="url(#filter34)" height="15.9" transform="matrix(1.0, 0.0, 0.0, 1.0, 57.4, 1.55)" width="90.65" xlink:href="#text1"/>
  </g>
  <defs>
    <g id="text0" transform="matrix(1.0, 0.0, 0.0, 1.0, 63.3, -0.35)">
      <g transform="matrix(1.0, 0.0, 0.0, 1.0, -97.1, 0.0)">
        <use fill="#dbb663" height="25.6" transform="matrix(0.0098, 0.0, 0.0, 0.0098, 33.0, 10.0)" width="119.95" xlink:href="#font_Lithos_Pro_Regular_F0"/>
        <use fill="#dbb663" height="25.6" transform="matrix(0.0098, 0.0, 0.0, 0.0098, 39.0, 10.0)" width="119.95" xlink:href="#font_Lithos_Pro_Regular_r0"/>
        <use fill="#dbb663" height="25.6" transform="matrix(0.0098, 0.0, 0.0, 0.0098, 46.05, 10.0)" width="119.95" xlink:href="#font_Lithos_Pro_Regular_e0"/>
        <use fill="#dbb663" height="25.6" transform="matrix(0.0098, 0.0, 0.0, 0.0098, 51.75, 10.0)" width="119.95" xlink:href="#font_Lithos_Pro_Regular_e0"/>
        <use fill="#dbb663" height="25.6" transform="matrix(0.0098, 0.0, 0.0, 0.0098, 59.95, 10.0)" width="119.95" xlink:href="#font_Lithos_Pro_Regular_I0"/>
        <use fill="#dbb663" height="25.6" transform="matrix(0.0098, 0.0, 0.0, 0.0098, 64.35, 10.0)" width="119.95" xlink:href="#font_Lithos_Pro_Regular_n0"/>
        <use fill="#dbb663" height="25.6" transform="matrix(0.0098, 0.0, 0.0, 0.0098, 72.3, 10.0)" width="119.95" xlink:href="#font_Lithos_Pro_Regular_t0"/>
        <use fill="#dbb663" height="25.6" transform="matrix(0.0098, 0.0, 0.0, 0.0098, 78.3, 10.0)" width="119.95" xlink:href="#font_Lithos_Pro_Regular_e0"/>
        <use fill="#dbb663" height="25.6" transform="matrix(0.0098, 0.0, 0.0, 0.0098, 84.0, 10.0)" width="119.95" xlink:href="#font_Lithos_Pro_Regular_r0"/>
        <use fill="#dbb663" height="25.6" transform="matrix(0.0098, 0.0, 0.0, 0.0098, 91.05, 10.0)" width="119.95" xlink:href="#font_Lithos_Pro_Regular_n0"/>
        <use fill="#dbb663" height="25.6" transform="matrix(0.0098, 0.0, 0.0, 0.0098, 99.0, 10.0)" width="119.95" xlink:href="#font_Lithos_Pro_Regular_e0"/>
        <use fill="#dbb663" height="25.6" transform="matrix(0.0098, 0.0, 0.0, 0.0098, 104.7, 10.0)" width="119.95" xlink:href="#font_Lithos_Pro_Regular_t0"/>
        <use fill="#dbb663" height="25.6" transform="matrix(0.0098, 0.0, 0.0, 0.0098, 113.2, 10.0)" width="119.95" xlink:href="#font_Lithos_Pro_Regular_G0"/>
        <use fill="#dbb663" height="25.6" transform="matrix(0.0098, 0.0, 0.0, 0.0098, 120.6, 10.0)" width="119.95" xlink:href="#font_Lithos_Pro_Regular_a0"/>
        <use fill="#dbb663" height="25.6" transform="matrix(0.0098, 0.0, 0.0, 0.0098, 128.3, 10.0)" width="119.95" xlink:href="#font_Lithos_Pro_Regular_m0"/>
        <use fill="#dbb663" height="25.6" transform="matrix(0.0098, 0.0, 0.0, 0.0098, 138.2, 10.0)" width="119.95" xlink:href="#font_Lithos_Pro_Regular_e0"/>
        <use fill="#dbb663" height="25.6" transform="matrix(0.0098, 0.0, 0.0, 0.0098, 143.9, 10.0)" width="119.95" xlink:href="#font_Lithos_Pro_Regular_s0"/>
      </g>
      <g transform="matrix(1.0, 0.0, 0.0, 1.0, -97.1, 0.0)">
        <use fill="#dbb663" height="25.6" transform="matrix(0.0098, 0.0, 0.0, 0.0098, 58.0, 25.0)" width="119.95" xlink:href="#font_Lithos_Pro_Regular_T0"/>
        <use fill="#dbb663" height="25.6" transform="matrix(0.0098, 0.0, 0.0, 0.0098, 64.15, 25.0)" width="119.95" xlink:href="#font_Lithos_Pro_Regular_o0"/>
        <use fill="#dbb663" height="25.6" transform="matrix(0.0098, 0.0, 0.0, 0.0098, 74.9, 25.0)" width="119.95" xlink:href="#font_Lithos_Pro_Regular_t0"/>
        <use fill="#dbb663" height="25.6" transform="matrix(0.0098, 0.0, 0.0, 0.0098, 80.9, 25.0)" width="119.95" xlink:href="#font_Lithos_Pro_Regular_h0"/>
        <use fill="#dbb663" height="25.6" transform="matrix(0.0098, 0.0, 0.0, 0.0098, 89.35, 25.0)" width="119.95" xlink:href="#font_Lithos_Pro_Regular_e0"/>
        <use fill="#dbb663" height="25.6" transform="matrix(0.0098, 0.0, 0.0, 0.0098, 97.55, 25.0)" width="119.95" xlink:href="#font_Lithos_Pro_Regular_M0"/>
        <use fill="#dbb663" height="25.6" transform="matrix(0.0098, 0.0, 0.0, 0.0098, 108.45, 25.0)" width="119.95" xlink:href="#font_Lithos_Pro_Regular_a0"/>
        <use fill="#dbb663" height="25.6" transform="matrix(0.0098, 0.0, 0.0, 0.0098, 116.1, 25.0)" width="119.95" xlink:href="#font_Lithos_Pro_Regular_x0"/>
      </g>
    </g>
    <g id="font_Lithos_Pro_Regular_F0">
      <path d="M334.5 0.0 L334.5 0.0 106.5 0.0 Q107.5 -17.0 108.5 -49.5 109.0 -82.0 109.5 -121.5 110.0 -160.5 110.5 -198.0 110.5 -235.5 110.5 -262.5 110.5 -290.0 110.5 -298.0 L110.5 -434.0 Q110.5 -439.5 110.5 -467.5 110.0 -495.5 109.5 -535.0 109.5 -574.5 109.0 -615.0 108.0 -655.5 107.5 -686.0 107.0 -716.0 106.5 -726.0 132.0 -726.0 175.0 -727.0 217.5 -728.5 269.5 -730.5 321.5 -732.0 374.5 -734.5 428.0 -736.5 475.0 -738.5 522.0 -741.0 554.5 -742.5 L558.5 -572.5 333.5 -567.5 333.5 -410.5 Q350.5 -411.0 402.0 -414.0 453.5 -417.0 539.5 -419.5 L542.5 -258.0 333.5 -260.0 333.5 -173.0 Q333.5 -166.0 333.5 -141.0 334.0 -116.5 334.0 -86.0 334.0 -55.0 334.5 -31.0 334.5 -6.5 334.5 0.0" fill-rule="evenodd" stroke="none"/>
    </g>
    <g id="font_Lithos_Pro_Regular_r0">
      <path d="M311.5 -492.5 L311.5 -266.0 Q311.5 -255.5 311.5 -227.5 312.0 -199.0 312.5 -162.0 312.5 -125.5 313.0 -90.0 314.0 -54.5 314.5 -29.5 315.0 -5.0 315.5 0.0 L95.5 0.0 Q96.5 -7.0 97.5 -31.5 98.0 -56.0 98.5 -89.5 98.5 -123.0 98.5 -156.5 98.5 -190.0 98.5 -214.0 98.5 -238.5 98.5 -244.5 L98.5 -386.0 Q98.5 -394.5 98.5 -419.0 98.0 -443.0 97.5 -474.5 97.5 -506.0 97.0 -537.0 96.0 -568.0 95.5 -590.0 95.0 -612.5 94.5 -618.5 194.0 -619.0 285.0 -617.5 376.5 -616.5 444.5 -608.0 547.5 -595.0 602.0 -557.0 656.0 -519.0 656.5 -458.5 656.0 -404.5 626.0 -361.5 596.0 -319.0 539.5 -284.5 551.0 -273.0 577.0 -247.5 603.5 -222.5 634.5 -193.0 665.5 -163.0 691.5 -138.5 717.0 -113.5 727.0 -102.5 L545.0 29.5 Q537.5 19.0 516.0 -12.0 494.5 -43.0 466.0 -84.5 437.5 -126.0 409.0 -168.0 380.0 -209.5 358.0 -241.5 336.0 -273.5 328.0 -285.5 352.5 -297.5 375.5 -316.0 399.0 -334.0 414.0 -359.5 429.5 -384.5 430.0 -417.0 431.5 -448.5 405.5 -469.5 379.5 -491.0 311.5 -492.5" fill-rule="evenodd" stroke="none"/>
    </g>
    <g id="font_Lithos_Pro_Regular_e0">
      <path d="M519.5 -147.0 L522.5 9.5 Q510.0 9.5 468.5 8.5 427.5 7.5 371.0 6.0 315.0 5.0 257.5 3.5 200.5 2.0 156.0 1.0 112.0 0.0 94.5 0.0 95.0 -18.5 95.5 -56.0 96.0 -93.5 96.5 -136.0 96.5 -178.5 96.5 -211.0 96.5 -244.0 96.5 -253.0 L96.5 -368.5 Q96.5 -373.5 96.5 -397.5 96.0 -421.5 96.0 -455.0 95.5 -489.0 95.0 -523.5 95.0 -558.0 94.5 -584.0 94.5 -610.0 94.5 -618.5 113.0 -618.5 155.5 -620.0 198.5 -621.0 252.5 -623.0 307.0 -625.0 360.0 -627.0 413.0 -629.5 452.0 -631.0 491.5 -633.0 504.0 -634.0 L508.0 -484.5 Q494.0 -484.5 465.0 -483.5 435.5 -483.0 402.5 -482.0 369.0 -481.0 343.5 -480.0 317.5 -479.5 310.5 -479.5 L310.5 -373.5 Q318.0 -373.5 338.5 -374.0 359.0 -375.0 385.5 -376.0 412.0 -377.0 436.5 -378.5 461.5 -380.0 477.5 -381.5 L479.5 -236.5 Q469.5 -236.5 445.5 -237.0 421.5 -237.5 393.5 -238.0 365.0 -238.5 342.0 -239.0 319.0 -239.5 310.5 -239.5 L310.5 -145.0 Q320.0 -145.0 347.0 -144.5 373.5 -144.5 407.0 -144.5 441.0 -144.5 471.5 -145.0 502.0 -145.5 519.5 -147.0" fill-rule="evenodd" stroke="none"/>
    </g>
    <g id="font_Lithos_Pro_Regular_I0">
      <path d="M341.0 -419.0 L341.0 -419.0 341.0 -309.0 Q341.0 -269.5 341.5 -220.5 342.0 -172.0 342.5 -125.0 343.5 -78.0 344.0 -44.0 344.5 -10.0 345.0 0.0 L107.5 0.0 Q108.0 -14.5 108.5 -47.0 109.0 -80.0 109.5 -121.0 110.0 -162.5 110.0 -203.0 110.5 -243.0 110.5 -272.5 110.5 -302.0 110.5 -311.0 L110.5 -421.5 Q110.5 -427.5 110.0 -457.5 110.0 -487.0 109.5 -529.0 109.0 -571.0 108.5 -613.0 108.0 -655.5 108.0 -686.5 107.5 -717.5 107.5 -726.0 L345.0 -726.0 Q344.5 -718.5 344.0 -687.5 343.5 -656.5 342.5 -611.5 342.0 -566.5 341.5 -516.5 341.0 -466.0 341.0 -419.0" fill-rule="evenodd" stroke="none"/>
    </g>
    <g id="font_Lithos_Pro_Regular_n0">
      <path d="M264.0 6.0 L62.5 0.0 Q64.0 -16.0 67.0 -59.5 69.5 -103.0 73.0 -163.5 76.5 -224.0 80.5 -291.5 84.0 -359.5 88.0 -424.5 91.5 -489.5 95.0 -542.0 98.0 -594.0 100.5 -624.0 L116.5 -629.0 Q157.0 -603.0 210.5 -566.5 264.0 -530.0 321.0 -490.5 378.5 -451.0 428.5 -415.5 479.0 -380.0 512.5 -355.0 546.5 -330.5 553.0 -324.0 553.0 -338.5 553.0 -369.5 552.5 -400.0 552.5 -438.5 552.0 -477.0 552.0 -515.0 551.5 -552.5 551.5 -582.0 551.5 -611.0 552.0 -623.0 L752.5 -618.5 Q749.5 -583.5 745.5 -532.0 741.5 -480.5 737.5 -419.0 734.0 -357.5 730.5 -293.0 726.5 -229.5 723.5 -170.0 720.0 -111.0 717.5 -63.5 715.0 -16.0 714.0 13.5 L697.5 17.5 Q668.5 0.0 620.0 -33.0 571.5 -66.0 515.0 -106.0 458.5 -145.5 405.0 -184.0 352.0 -222.5 313.5 -250.5 275.5 -279.0 263.0 -289.0 263.0 -274.5 263.0 -243.5 263.0 -212.0 263.0 -173.0 263.0 -134.0 263.0 -96.0 263.5 -58.0 263.5 -30.0 263.5 -2.5 264.0 6.0" fill-rule="evenodd" stroke="none"/>
    </g>
    <g id="font_Lithos_Pro_Regular_t0">
      <path d="M421.5 0.0 L194.5 0.0 Q195.0 -12.5 195.5 -51.5 196.0 -90.5 196.0 -141.5 196.5 -192.5 196.5 -241.0 L196.5 -461.0 Q181.5 -461.0 153.5 -460.5 125.0 -459.5 93.0 -459.0 61.5 -458.0 35.0 -457.0 8.5 -456.5 -3.0 -456.0 L-3.0 -616.5 Q10.0 -615.0 40.5 -614.0 70.5 -613.0 108.5 -612.0 146.0 -611.5 181.5 -610.5 217.5 -610.0 242.0 -609.5 266.5 -609.5 270.0 -609.5 L351.0 -609.5 Q357.0 -609.5 381.0 -609.5 405.0 -610.0 439.0 -610.5 473.5 -611.5 509.0 -612.0 544.5 -613.0 574.0 -614.0 603.0 -615.0 617.0 -616.5 L617.0 -456.0 Q609.5 -456.5 580.0 -457.0 550.5 -458.0 514.5 -459.0 478.5 -459.5 451.0 -460.5 423.0 -461.0 418.5 -461.0 L418.5 -227.5 Q418.5 -181.0 419.0 -132.5 419.0 -83.5 420.0 -46.5 420.5 -10.0 421.5 0.0" fill-rule="evenodd" stroke="none"/>
    </g>
    <g id="font_Lithos_Pro_Regular_G0">
      <path d="M683.0 -233.0 L683.0 -233.0 683.0 -158.5 Q683.0 -138.0 683.5 -106.5 684.0 -75.5 684.5 -47.0 685.0 -19.0 685.0 -7.0 671.5 -3.0 638.0 2.5 605.0 8.0 558.0 12.5 511.5 16.5 459.0 16.5 310.5 13.5 217.0 -28.5 123.5 -70.0 79.5 -138.0 35.5 -206.0 36.0 -287.5 35.0 -335.5 59.5 -399.0 84.0 -462.5 142.5 -529.0 201.5 -595.5 304.5 -652.5 407.5 -710.0 564.5 -745.5 L611.5 -544.5 Q558.5 -537.5 501.0 -518.0 443.5 -498.5 392.5 -467.5 342.0 -436.0 310.0 -394.0 278.5 -351.5 277.5 -299.0 278.0 -261.0 295.5 -234.0 313.0 -207.0 341.0 -190.5 369.0 -173.5 401.0 -166.0 433.5 -158.5 463.0 -159.5 L464.0 -241.5 Q464.0 -263.5 463.0 -285.0 462.0 -306.0 462.0 -327.5 L684.0 -327.5 Q683.5 -298.5 683.0 -277.0 683.0 -255.5 683.0 -233.0" fill-rule="evenodd" stroke="none"/>
    </g>
    <g id="font_Lithos_Pro_Regular_a0">
      <path d="M301.0 -222.5 L454.5 -229.5 Q434.5 -268.0 413.0 -306.5 391.5 -345.0 378.0 -373.0 361.0 -340.5 340.0 -300.0 319.5 -259.5 301.0 -222.5 M184.5 29.5 L0.0 -65.0 Q7.5 -76.5 30.5 -114.0 54.0 -152.0 88.0 -206.5 121.5 -261.5 161.0 -324.0 200.0 -387.0 239.5 -449.0 279.0 -511.5 313.5 -564.0 347.5 -616.5 371.5 -650.5 L391.0 -650.5 Q426.0 -602.0 472.5 -535.0 518.5 -467.5 568.5 -394.0 618.5 -321.0 664.0 -254.0 709.5 -187.0 742.0 -139.0 775.0 -91.0 787.5 -75.0 L599.0 28.5 Q584.5 6.5 567.0 -22.0 549.5 -50.5 535.5 -73.5 521.5 -96.5 517.0 -102.5 L243.5 -89.5 Q241.0 -84.5 230.5 -64.0 220.5 -43.5 207.5 -18.0 195.0 8.0 184.5 29.5" fill-rule="evenodd" stroke="none"/>
    </g>
    <g id="font_Lithos_Pro_Regular_m0">
      <path d="M195.5 26.5 L9.0 -37.0 Q13.5 -46.5 30.0 -86.0 46.5 -125.0 70.5 -183.5 94.5 -242.0 122.5 -308.5 150.0 -375.5 177.5 -440.0 205.0 -504.5 227.5 -556.5 250.0 -608.5 264.0 -637.0 L278.5 -637.0 Q300.5 -603.5 333.0 -554.0 365.5 -505.0 400.0 -452.5 434.0 -400.5 461.5 -359.0 489.0 -317.0 500.5 -299.0 514.5 -319.5 542.5 -361.5 570.0 -403.0 603.0 -453.0 635.5 -503.0 666.0 -549.0 696.0 -595.0 715.5 -624.0 L730.0 -624.0 Q750.0 -584.0 781.0 -519.0 812.0 -454.5 847.0 -380.0 882.5 -305.5 915.0 -236.0 948.0 -166.5 971.5 -116.5 995.5 -66.5 1003.5 -51.0 L811.0 26.5 Q801.5 5.0 787.5 -30.0 773.0 -64.5 756.5 -105.0 740.0 -145.0 725.0 -182.5 710.0 -219.5 700.0 -246.5 689.5 -273.0 687.0 -280.5 682.0 -273.5 661.0 -244.0 640.0 -214.5 610.0 -173.0 580.0 -131.0 548.0 -87.5 516.0 -44.0 489.5 -9.5 L475.0 -9.5 Q447.5 -47.5 418.5 -90.0 389.0 -132.0 362.5 -171.0 336.0 -210.0 317.0 -238.0 298.5 -266.5 292.5 -276.5 288.5 -262.5 279.0 -231.5 270.0 -201.0 258.0 -162.0 245.5 -123.5 233.5 -85.0 221.0 -46.5 211.0 -16.5 201.0 13.5 195.5 26.5" fill-rule="evenodd" stroke="none"/>
    </g>
    <g id="font_Lithos_Pro_Regular_s0">
      <path d="M79.5 17.5 L56.0 -138.5 Q107.5 -137.0 154.0 -142.5 201.0 -148.0 231.0 -161.0 261.0 -173.5 262.0 -194.5 263.5 -208.5 243.0 -222.0 223.0 -236.0 167.0 -260.0 136.0 -273.5 105.0 -293.0 73.5 -312.5 52.0 -341.5 30.5 -370.0 29.5 -411.0 30.0 -465.5 77.5 -514.5 125.5 -563.0 214.0 -596.5 303.0 -629.5 427.0 -637.0 L451.5 -479.5 Q356.0 -480.0 308.0 -471.0 260.0 -461.5 260.0 -434.5 260.0 -418.0 284.5 -405.5 308.5 -393.0 354.0 -376.0 380.5 -366.5 413.0 -349.5 445.0 -332.5 469.5 -304.0 493.5 -276.0 494.5 -232.5 495.0 -178.0 452.0 -125.5 409.0 -72.5 317.5 -33.5 225.5 5.0 79.5 17.5" fill-rule="evenodd" stroke="none"/>
    </g>
    <g id="font_Lithos_Pro_Regular_T0">
      <path d="M456.5 0.0 L456.5 0.0 220.0 0.0 Q220.5 -10.5 221.5 -40.0 222.0 -69.5 222.5 -110.0 222.5 -151.0 223.0 -196.5 223.0 -241.5 223.0 -284.0 L223.0 -553.0 Q204.0 -553.0 171.5 -552.0 139.0 -551.5 103.5 -550.5 67.5 -549.0 38.5 -548.5 9.5 -547.5 -3.5 -547.0 L-3.5 -726.0 Q11.5 -724.5 44.5 -723.5 77.5 -722.5 119.0 -721.5 160.5 -720.5 199.5 -719.5 239.0 -718.5 265.5 -718.0 292.5 -718.0 297.0 -718.0 L386.0 -718.0 Q392.5 -718.0 419.0 -718.0 445.5 -718.5 483.0 -719.5 520.5 -720.5 559.5 -721.5 599.0 -722.5 631.0 -723.5 663.0 -724.5 678.5 -726.0 L678.5 -547.0 Q672.0 -547.0 649.5 -548.0 626.5 -548.5 595.5 -549.5 565.0 -550.5 534.0 -551.0 503.5 -552.0 481.5 -552.5 459.0 -553.0 453.5 -553.0 L453.5 -268.0 Q453.5 -227.5 453.5 -184.5 454.0 -141.0 454.0 -102.0 454.5 -63.0 455.0 -35.5 456.0 -8.5 456.5 0.0" fill-rule="evenodd" stroke="none"/>
    </g>
    <g id="font_Lithos_Pro_Regular_o0">
      <path d="M409.5 -127.0 L409.5 -127.0 Q482.0 -127.0 524.0 -175.0 565.5 -223.5 566.5 -319.5 566.0 -403.0 531.5 -446.5 496.5 -490.5 432.5 -490.5 382.0 -490.0 347.5 -463.5 313.0 -437.5 295.5 -393.5 277.5 -350.0 277.5 -297.0 278.0 -239.5 296.0 -202.0 313.5 -164.0 343.5 -145.5 373.5 -127.0 409.5 -127.0 M399.5 14.5 L399.5 14.5 Q306.0 13.5 237.5 -12.5 169.5 -39.0 125.5 -82.5 81.5 -126.0 60.0 -178.5 39.0 -230.5 39.0 -283.5 39.0 -347.5 63.5 -409.0 88.5 -470.5 138.5 -521.0 188.5 -571.0 265.0 -601.0 341.5 -631.0 444.5 -632.0 556.5 -631.5 637.0 -595.0 718.0 -558.5 761.0 -490.0 804.5 -422.0 805.0 -325.5 805.5 -275.5 785.5 -217.0 766.0 -159.0 719.5 -106.5 673.5 -54.0 595.0 -20.5 516.5 13.5 399.5 14.5" fill-rule="evenodd" stroke="none"/>
    </g>
    <g id="font_Lithos_Pro_Regular_h0">
      <path d="M323.5 0.0 L96.5 0.0 Q97.0 -12.0 97.0 -40.0 97.5 -67.5 97.5 -103.0 98.0 -138.0 98.0 -172.5 98.5 -206.5 98.5 -231.5 98.5 -256.5 98.5 -264.0 L98.5 -358.0 Q98.5 -363.5 98.5 -389.0 98.0 -414.5 97.5 -450.0 97.5 -486.0 97.0 -522.0 96.0 -558.0 95.5 -584.5 95.0 -611.0 94.5 -618.5 L324.5 -618.5 Q324.0 -611.0 323.0 -582.5 322.0 -554.0 321.5 -518.0 320.5 -482.5 320.0 -454.0 319.5 -425.5 319.5 -418.5 L319.5 -388.0 544.0 -404.0 544.0 -437.0 Q544.0 -443.5 543.5 -468.5 543.5 -494.0 543.0 -526.0 542.0 -557.5 541.5 -584.0 540.5 -610.0 540.0 -618.5 L769.0 -618.5 Q768.5 -611.0 768.0 -582.5 767.5 -553.5 767.0 -514.5 766.5 -475.0 766.0 -436.0 765.5 -396.5 765.5 -368.0 765.0 -339.5 765.0 -332.5 L765.0 -245.5 Q765.0 -241.5 765.0 -217.5 765.5 -193.5 766.0 -159.0 766.0 -125.0 766.5 -90.5 767.5 -56.0 768.0 -31.0 768.5 -6.0 769.0 0.0 L540.0 0.0 Q540.5 -12.0 541.0 -39.5 541.5 -67.0 542.5 -98.5 543.0 -130.5 543.5 -155.5 544.0 -180.5 544.0 -187.5 L544.0 -247.5 319.5 -231.5 319.5 -206.0 Q319.5 -190.0 320.0 -159.5 320.5 -129.5 321.0 -95.5 322.0 -62.0 322.5 -35.0 323.0 -8.5 323.5 0.0" fill-rule="evenodd" stroke="none"/>
    </g>
    <g id="font_Lithos_Pro_Regular_M0">
      <path d="M212.0 32.0 L212.0 32.0 10.5 -43.0 Q15.5 -54.0 33.5 -100.5 51.5 -146.5 78.5 -215.5 105.5 -284.0 136.5 -363.0 167.5 -441.5 198.0 -517.5 228.5 -593.5 253.5 -655.0 279.0 -716.0 294.0 -749.5 L304.5 -749.5 Q323.5 -718.5 351.0 -673.5 378.0 -628.5 408.5 -578.5 439.0 -528.0 468.0 -481.0 496.5 -433.5 518.5 -397.5 540.0 -361.5 550.0 -345.5 562.5 -364.0 585.0 -400.5 607.5 -437.0 635.5 -482.5 664.0 -528.5 692.5 -576.0 721.5 -624.0 747.0 -665.0 772.0 -706.5 788.5 -733.5 L799.0 -733.5 Q817.0 -694.5 844.0 -635.0 871.0 -575.0 903.0 -504.0 935.0 -433.5 967.0 -361.5 999.5 -289.5 1027.5 -226.5 1056.0 -163.5 1076.0 -119.5 1095.5 -75.5 1103.0 -60.5 L896.0 32.0 Q886.0 6.5 870.0 -35.5 854.0 -77.5 835.5 -125.5 817.0 -174.0 800.0 -219.5 783.0 -264.5 770.5 -296.5 758.5 -328.5 755.0 -338.0 749.5 -330.0 726.0 -294.0 702.5 -258.0 669.0 -207.5 635.5 -156.5 600.0 -104.0 564.0 -51.5 534.5 -10.0 L524.5 -10.0 Q494.5 -55.5 462.0 -106.5 429.5 -157.5 399.5 -205.0 370.0 -252.5 349.5 -287.0 328.5 -321.5 322.0 -333.5 316.5 -317.0 305.5 -280.0 294.5 -243.0 281.0 -196.0 267.5 -149.0 253.5 -102.5 240.0 -55.5 229.0 -19.5 218.0 16.5 212.0 32.0" fill-rule="evenodd" stroke="none"/>
    </g>
    <g id="font_Lithos_Pro_Regular_x0">
      <path d="M172.0 39.0 L22.5 -102.5 Q30.0 -110.5 59.0 -139.5 88.0 -168.0 124.5 -204.5 161.0 -240.5 192.0 -271.0 222.5 -301.5 233.5 -313.0 215.0 -332.0 186.0 -362.0 156.5 -391.5 126.0 -423.0 95.5 -454.5 72.0 -478.5 49.0 -502.0 43.0 -508.5 L208.0 -651.0 Q224.0 -632.0 248.5 -602.5 273.0 -572.5 299.0 -540.5 325.5 -508.0 347.0 -482.0 369.0 -455.5 379.0 -444.0 389.0 -455.5 412.5 -482.0 435.5 -508.5 464.0 -541.0 492.0 -573.5 518.0 -603.5 544.0 -633.0 560.0 -651.0 L715.0 -513.0 Q705.0 -503.0 676.0 -476.5 647.0 -450.0 611.5 -418.0 575.5 -386.0 546.5 -359.0 517.0 -332.5 507.0 -322.5 520.5 -308.5 551.5 -278.0 583.0 -247.0 619.0 -211.0 655.0 -175.5 683.0 -147.0 711.5 -119.0 720.0 -110.5 L555.0 38.0 Q542.5 23.5 516.0 -7.5 489.5 -38.5 458.5 -75.0 427.5 -111.5 401.0 -142.5 374.5 -173.5 361.5 -188.5 353.0 -179.0 326.5 -147.0 300.0 -115.0 267.0 -75.5 234.5 -36.0 208.0 -3.5 181.0 29.0 172.0 39.0" fill-rule="evenodd" stroke="none"/>
    </g>
    <g id="sprite0" transform="matrix(1.0, 0.0, 0.0, 1.0, 7.0, 7.25)">
      <use ffdec:characterId="107" height="97.9" transform="matrix(1.0, 0.0, 0.0, 1.0, -7.0, -7.25)" width="592.7" xlink:href="#shape0"/>
      <use ffdec:characterId="109" height="59.85" transform="matrix(1.0, 0.0, 0.0, 1.0, 113.35, 12.3)" width="104.0" xlink:href="#sprite1"/>
      <use ffdec:characterId="110" height="14.55" transform="matrix(1.0, 0.0, 0.0, 1.0, 524.2, 56.45)" width="53.15" xlink:href="#sprite2"/>
      <use ffdec:characterId="111" height="60.35" transform="matrix(1.0, 0.0, 0.0, 1.0, 442.25, 11.85)" width="83.65" xlink:href="#sprite3"/>
      <use ffdec:characterId="112" height="60.7" transform="matrix(1.0, 0.0, 0.0, 1.0, 237.25, 11.85)" width="95.3" xlink:href="#sprite4"/>
      <use ffdec:characterId="46" height="84.9" transform="matrix(1.0, 0.0, 0.0, 1.0, -0.5, -0.5)" width="122.3" xlink:href="#shape5"/>
      <use ffdec:characterId="45" height="84.9" transform="matrix(1.0, 0.0, 0.0, 1.0, 321.1, -0.5)" width="122.3" xlink:href="#shape6"/>
    </g>
    <g id="shape0" transform="matrix(1.0, 0.0, 0.0, 1.0, 7.0, 7.25)">
      <path d="M96.65 1.25 L97.05 1.25 96.9 1.25 96.65 1.25 M120.7 15.6 L120.85 15.8 120.95 16.15 120.7 15.6 M154.45 11.75 L154.5 11.4 154.55 11.3 154.45 11.75 M217.55 76.4 L217.5 76.45 217.45 76.5 217.45 76.45 217.5 76.45 217.55 76.4 M217.35 76.55 L217.35 76.6 217.15 76.8 217.05 76.85 217.35 76.55 M147.8 77.05 L147.7 76.95 147.5 76.8 147.8 77.05 M122.3 87.85 L122.1 88.0 121.75 88.25 122.3 87.85 M78.3 67.95 L78.05 68.15 78.3 67.95 M69.85 73.0 L69.7 73.05 69.55 73.05 69.85 73.0 M51.85 73.05 L51.75 73.05 51.4 72.9 51.85 73.05 M43.15 67.95 L43.1 67.95 43.15 67.95 M19.35 84.8 L19.4 84.8 19.35 84.8 M0.25 15.4 L0.15 15.55 0.3 15.3 0.25 15.4" fill="#3399ff" fill-rule="evenodd" stroke="none"/>
      <path d="M0.3 15.3 Q2.1 11.3 7.05 7.7 L7.0 7.7 Q11.05 4.65 14.9 3.35 L15.05 3.3 Q18.25 2.15 24.2 1.3 L24.45 1.25 24.75 1.25 28.4 0.35 28.8 0.2 28.95 0.2 Q29.95 -0.15 31.35 -0.85 L31.35 -0.8 34.9 -2.5 34.85 -2.5 34.95 -2.5 35.3 -2.7 Q43.6 -5.6 47.85 -6.35 L59.5 -7.25 61.9 -7.25 73.6 -6.35 Q77.75 -5.6 86.1 -2.7 L86.2 -2.65 86.25 -2.6 86.35 -2.55 86.4 -2.55 86.65 -2.4 89.6 -1.0 90.05 -0.85 Q91.45 -0.15 92.5 0.2 L92.65 0.2 93.05 0.35 96.65 1.25 96.9 1.25 97.1 1.3 101.45 2.0 101.4 2.0 101.6 2.05 101.7 2.1 101.85 2.1 102.1 2.2 102.2 2.25 102.9 2.5 102.95 2.5 103.0 2.55 102.9 2.5 103.15 2.65 103.05 2.55 104.2 3.25 105.7 3.65 105.75 3.7 105.95 3.75 106.3 3.85 106.4 3.85 Q109.45 4.9 112.7 7.1 L112.65 7.15 112.9 7.25 112.95 7.25 113.15 7.4 114.1 8.1 Q118.9 11.65 120.7 15.6 L120.95 16.15 Q122.6 19.7 122.35 24.95 L122.35 25.5 127.5 10.4 127.5 10.45 127.55 10.3 127.6 10.2 128.2 9.05 128.25 8.95 128.25 8.9 Q128.9 7.9 129.95 7.1 L130.3 6.9 130.25 6.9 Q131.85 5.8 133.85 5.7 L133.95 5.7 146.65 5.7 146.7 5.7 Q148.1 5.75 149.35 6.35 L149.4 6.4 149.5 6.45 149.55 6.45 149.6 6.5 149.7 6.55 149.75 6.55 149.9 6.6 149.85 6.6 150.25 6.8 150.3 6.8 Q152.25 8.1 153.05 10.3 L153.05 10.35 153.1 10.55 153.15 10.7 167.85 52.05 172.45 44.0 155.9 16.9 155.7 16.65 155.65 16.55 155.45 16.25 155.4 16.15 155.35 16.1 Q154.15 14.1 154.45 11.8 L154.45 11.9 154.45 11.75 154.55 11.3 154.55 11.2 154.6 11.1 Q155.0 8.9 156.65 7.45 L156.95 7.15 156.9 7.15 Q157.2 6.9 157.55 6.75 159.2 5.6 161.3 5.55 L178.2 5.55 Q179.5 5.55 180.7 6.05 L180.9 6.15 180.95 6.15 181.0 6.2 181.05 6.2 181.15 6.25 181.25 6.3 181.4 6.35 181.5 6.4 181.7 6.55 Q183.15 7.4 184.05 8.85 L184.1 8.95 184.2 9.05 184.25 9.15 184.3 9.25 184.35 9.35 184.35 9.3 184.45 9.55 184.45 9.6 184.5 9.65 189.0 17.55 193.55 9.85 193.55 9.8 193.7 9.6 193.75 9.35 193.85 9.15 Q194.6 7.7 195.95 6.8 L195.8 6.95 196.0 6.8 196.1 6.7 196.3 6.6 196.45 6.5 196.55 6.45 Q198.05 5.6 199.8 5.55 L216.9 5.55 Q219.55 5.55 221.55 7.3 L222.2 8.05 Q223.45 9.4 223.85 11.25 L223.9 11.65 Q224.15 13.8 223.2 15.65 L223.25 15.5 223.25 15.55 223.0 16.05 222.85 16.35 222.85 16.4 205.2 43.95 218.75 67.55 218.85 67.75 218.9 67.85 218.95 67.9 218.95 67.95 219.05 68.1 Q219.75 69.45 219.8 70.95 L219.8 71.15 219.8 71.35 219.8 71.45 219.8 71.55 219.8 71.6 219.8 71.65 219.8 71.75 219.8 71.8 219.8 72.1 219.8 72.05 219.7 72.7 Q219.2 74.9 217.55 76.4 L217.55 76.35 217.5 76.4 217.55 76.4 217.5 76.45 217.45 76.45 217.4 76.55 217.35 76.55 217.05 76.85 Q215.15 78.25 212.85 78.25 L195.8 78.25 Q194.2 78.2 192.75 77.5 L192.7 77.5 192.5 77.35 191.95 77.05 191.9 77.0 191.75 76.9 191.7 76.85 191.35 76.6 190.85 76.05 189.9 74.9 189.85 74.8 189.8 74.7 189.75 74.55 189.45 73.95 189.5 74.1 188.45 72.2 187.2 74.3 187.25 74.3 187.1 74.55 187.05 74.65 185.4 76.65 185.05 76.95 184.55 77.25 184.4 77.35 184.35 77.35 184.3 77.4 184.2 77.45 Q182.75 78.2 181.2 78.25 L168.5 78.25 167.15 78.35 151.85 78.35 Q149.6 78.35 147.8 77.05 L147.5 76.8 Q145.75 75.4 145.2 73.3 L145.25 73.4 145.2 73.25 145.15 73.1 145.15 73.05 144.0 69.6 137.1 69.5 135.6 73.75 135.55 73.85 135.55 73.9 135.55 73.95 135.5 73.95 135.5 74.0 135.45 74.2 135.4 74.25 135.15 74.7 135.0 74.95 134.95 75.0 134.9 75.1 134.85 75.15 134.0 76.25 133.9 76.35 133.85 76.4 133.8 76.45 133.35 76.85 133.3 76.9 133.15 77.0 Q131.3 78.45 129.0 78.4 L127.35 78.4 126.15 81.9 126.1 82.05 126.0 82.3 126.0 82.35 Q124.2 86.35 122.3 87.85 L121.75 88.25 121.1 88.4 121.25 88.6 121.0 88.75 Q119.85 89.35 118.65 89.55 116.95 90.65 114.85 90.65 L114.6 90.65 114.55 90.65 Q108.05 90.95 102.2 84.95 L101.95 84.7 101.9 84.7 101.7 84.5 101.65 84.45 101.35 84.1 98.8 81.25 98.75 81.2 98.75 81.15 98.7 81.15 98.65 81.1 Q96.45 78.65 95.5 76.95 L95.5 76.9 95.45 76.85 95.4 76.75 95.3 76.65 Q92.85 72.35 89.95 66.25 L89.95 66.2 89.9 66.15 89.6 65.35 89.55 65.3 Q87.55 61.1 85.85 58.35 L85.35 58.45 83.45 61.65 83.4 61.75 83.2 62.05 Q81.05 65.3 78.3 67.95 L78.05 68.15 78.0 68.2 Q74.5 71.5 69.85 73.0 L69.55 73.05 Q66.45 74.0 62.25 74.25 L62.2 74.25 61.1 74.25 60.7 74.25 60.3 74.25 59.25 74.25 59.15 74.25 Q54.95 74.0 51.85 73.05 L51.4 72.9 48.15 71.65 48.05 71.6 48.0 71.6 47.95 71.55 47.75 71.45 47.8 71.45 47.6 71.35 46.3 70.4 45.2 69.7 43.5 68.25 43.3 68.1 43.15 67.95 Q40.15 65.1 37.95 61.6 L37.85 61.35 37.7 61.1 37.65 61.05 35.85 57.9 35.65 58.2 Q33.9 60.95 31.9 65.25 L31.8 65.5 31.75 65.55 31.7 65.75 31.65 65.8 31.6 65.95 31.6 66.0 31.55 66.05 31.5 66.15 31.5 66.2 31.45 66.3 Q28.55 72.4 26.1 76.65 L26.0 76.85 25.9 76.95 Q24.95 78.65 22.8 81.1 L22.7 81.15 22.75 81.15 22.6 81.25 22.7 81.2 20.1 84.05 20.0 84.15 19.4 84.75 19.5 84.65 19.45 84.7 19.35 84.8 Q13.45 90.95 6.85 90.65 L6.8 90.65 Q1.6 90.6 -1.2 87.5 L-1.35 87.35 -1.35 87.3 -1.45 87.2 -1.95 86.5 Q-4.95 84.15 -6.1 78.25 L-6.4 76.65 -6.8 74.25 -6.85 74.05 -6.85 74.0 Q-7.25 70.9 -6.6 67.35 L-6.55 67.25 -6.55 67.2 -6.5 67.0 -6.35 66.35 Q-5.95 63.3 -5.05 60.0 -3.6 54.5 -1.3 50.15 L-0.6 46.55 -0.2 40.95 -0.3 37.25 Q-1.6 30.1 -1.6 25.15 L-1.45 22.65 Q-1.35 19.1 -0.2 16.45 L-0.05 15.95 0.05 15.8 0.15 15.55 0.2 15.5 0.25 15.4 0.3 15.3 M356.9 -2.7 Q365.2 -5.6 369.45 -6.35 L381.1 -7.25 383.5 -7.25 395.2 -6.35 Q399.35 -5.6 407.7 -2.7 L407.8 -2.65 407.85 -2.6 407.95 -2.55 408.0 -2.55 408.25 -2.4 411.15 -1.0 411.65 -0.85 Q413.05 -0.15 414.1 0.2 L414.25 0.2 414.65 0.35 418.25 1.25 418.65 1.25 418.5 1.25 418.7 1.3 423.05 2.0 423.0 2.0 423.2 2.05 423.3 2.1 423.45 2.1 423.7 2.2 423.8 2.25 424.5 2.5 424.55 2.5 424.6 2.55 424.5 2.5 424.75 2.65 424.65 2.55 425.45 3.0 426.6 3.05 426.95 3.1 427.3 3.15 427.35 3.15 427.5 3.2 428.0 3.3 428.15 3.35 Q431.15 4.4 434.35 6.5 L434.3 6.5 434.4 6.55 434.5 6.6 434.55 6.65 435.2 7.1 435.8 7.55 435.95 7.65 436.0 7.7 437.1 8.55 437.85 7.65 437.9 7.6 Q439.9 5.55 442.8 5.55 L481.5 5.55 Q484.4 5.55 486.45 7.6 L486.45 7.65 Q487.4 8.55 487.9 9.65 490.5 8.0 493.1 7.2 L493.45 7.05 493.6 7.0 493.55 7.0 499.25 5.7 499.8 5.6 508.05 5.15 Q512.6 5.35 515.8 6.5 L516.1 6.55 516.05 6.55 516.15 6.6 Q526.6 10.45 530.0 14.95 L530.25 15.2 530.15 15.15 530.3 15.3 530.4 15.4 530.45 15.45 Q531.95 17.45 531.8 19.95 531.7 21.8 530.85 23.25 L530.8 23.3 530.8 23.35 530.05 24.35 529.95 24.4 529.95 24.45 529.75 24.65 529.7 24.65 529.65 24.75 529.3 25.0 521.9 32.1 Q524.4 33.55 526.95 36.3 L527.0 36.35 527.05 36.4 527.55 36.9 529.15 39.05 529.25 39.25 529.3 39.35 529.35 39.45 529.3 39.45 529.35 39.5 529.4 39.55 529.4 39.6 529.5 39.7 529.55 39.8 529.55 39.85 531.05 43.25 531.1 43.25 531.25 43.55 531.2 43.5 531.35 43.7 531.35 43.75 Q532.35 46.55 532.45 50.15 L535.3 49.65 536.9 49.4 538.1 49.55 Q540.6 49.65 542.6 50.45 L544.15 51.3 Q545.75 50.4 548.1 50.0 L548.2 50.0 553.3 50.2 553.65 50.3 Q554.75 50.7 555.4 51.3 L556.25 50.75 Q558.0 49.9 560.5 49.95 L563.5 50.35 Q564.45 49.6 566.7 49.6 569.8 49.55 571.8 50.5 572.8 49.65 575.4 49.75 L577.65 49.9 Q579.55 50.55 581.65 52.8 585.1 56.5 585.2 58.25 L585.6 65.05 Q585.95 70.1 585.1 72.7 L584.1 74.65 582.75 76.05 Q580.65 77.6 577.2 77.6 574.35 77.6 573.1 76.75 571.55 77.85 569.3 77.85 566.05 77.85 564.9 76.95 563.4 78.05 561.0 78.05 558.1 78.05 556.75 76.4 L556.6 76.05 555.6 76.65 Q552.8 78.3 549.5 78.3 545.9 78.3 543.85 76.9 L543.5 76.65 Q541.35 78.05 538.45 78.05 535.15 78.05 533.65 77.05 L533.5 76.95 Q530.85 78.3 528.8 78.3 526.15 78.3 524.0 76.35 L522.9 75.2 522.65 75.25 522.45 74.9 521.8 72.9 521.3 73.25 521.25 73.3 Q519.15 74.95 515.85 75.95 L515.8 76.0 515.75 76.0 515.55 76.1 515.65 76.05 515.35 76.2 515.3 76.25 514.4 76.45 Q508.5 78.2 504.3 78.4 L504.2 78.4 494.75 77.95 Q491.45 77.65 488.05 76.4 486.05 78.25 483.3 78.25 L449.0 78.25 Q448.35 80.65 447.5 82.45 L447.5 82.5 447.3 82.8 Q445.95 85.7 444.55 87.15 L444.45 87.25 444.4 87.35 444.35 87.4 444.3 87.45 444.25 87.5 444.2 87.55 444.15 87.6 444.1 87.65 443.95 87.75 443.95 87.8 Q441.35 90.35 436.85 90.65 L436.75 90.65 436.45 90.65 436.2 90.65 436.15 90.65 Q429.65 90.95 423.8 84.95 L423.55 84.7 423.5 84.7 423.3 84.5 423.25 84.45 422.95 84.1 420.4 81.25 420.35 81.2 420.35 81.15 420.3 81.15 420.25 81.1 Q418.05 78.65 417.1 76.95 L417.1 76.9 417.05 76.85 417.0 76.75 416.9 76.65 Q414.45 72.35 411.55 66.25 L411.55 66.2 411.5 66.15 411.2 65.35 411.15 65.3 Q409.1 60.95 407.35 58.2 L407.25 57.95 405.05 61.65 405.0 61.75 404.8 62.05 Q402.65 65.3 399.9 67.95 L399.65 68.15 399.6 68.2 Q396.1 71.5 391.45 73.0 L391.3 73.05 391.15 73.05 Q388.05 74.0 383.85 74.25 L383.8 74.25 382.7 74.25 382.3 74.25 381.9 74.25 380.85 74.25 380.75 74.25 Q376.7 74.05 373.7 73.15 L373.65 73.15 373.55 73.1 373.4 73.05 373.35 73.0 373.3 73.0 372.95 72.85 Q370.85 72.2 369.05 71.2 L368.95 71.15 368.9 71.1 368.85 71.1 368.75 71.05 368.4 70.85 368.3 70.8 368.3 70.75 367.65 70.25 366.8 69.7 365.1 68.25 364.9 68.1 364.75 67.95 364.7 67.95 364.75 67.95 Q361.75 65.1 359.55 61.6 L359.3 61.15 359.3 61.1 357.45 57.9 357.25 58.2 Q355.5 60.95 353.5 65.25 L353.4 65.5 353.35 65.55 353.3 65.75 353.25 65.8 353.2 65.9 353.2 65.95 353.2 66.0 353.15 66.1 353.1 66.15 353.1 66.2 353.05 66.3 Q350.15 72.4 347.7 76.65 L347.6 76.85 347.5 76.95 Q346.55 78.65 344.4 81.1 L344.3 81.15 344.35 81.15 344.2 81.25 344.3 81.2 341.7 84.05 341.6 84.15 341.0 84.75 341.1 84.65 341.05 84.7 340.95 84.8 341.0 84.8 340.95 84.8 Q335.05 90.95 328.45 90.65 L328.4 90.65 Q323.2 90.6 320.4 87.5 L320.25 87.35 319.4 86.15 318.45 85.1 318.4 85.0 318.2 84.65 318.05 84.4 318.05 84.3 317.05 82.35 317.0 82.3 316.95 82.1 316.9 82.05 316.85 81.95 315.55 78.1 Q314.05 77.8 312.75 76.9 L312.65 76.8 312.45 76.65 Q310.7 75.25 310.15 73.15 L310.2 73.25 310.15 73.1 310.1 72.95 310.1 72.9 308.95 69.45 302.05 69.35 300.55 73.6 300.5 73.75 300.15 74.5 300.05 74.65 300.0 74.75 299.9 74.8 299.85 74.95 299.35 75.35 299.35 75.2 299.05 75.6 298.9 76.0 298.85 76.15 298.7 76.35 298.55 76.55 297.55 77.25 297.7 77.15 297.4 77.3 297.35 77.35 297.25 77.4 297.2 77.4 Q295.7 78.25 293.95 78.25 L278.8 78.2 Q276.6 78.15 274.8 76.9 L274.65 76.8 274.5 76.7 274.45 76.65 273.95 76.2 273.75 76.15 269.85 77.65 Q266.75 78.65 258.55 78.8 253.3 78.9 247.8 77.0 L247.65 76.95 Q242.75 75.3 237.6 69.5 L237.6 69.45 237.35 69.15 237.3 69.1 234.8 65.6 234.75 65.55 234.7 65.45 234.7 65.4 234.65 65.35 234.6 65.3 Q233.25 62.95 232.65 60.35 L232.65 60.4 232.6 60.1 231.7 56.75 231.65 56.75 231.6 56.45 231.55 56.25 231.6 56.4 231.6 56.3 231.5 56.15 231.5 56.05 231.45 55.8 231.45 55.75 231.4 55.35 Q230.75 52.6 230.8 50.1 L230.8 35.7 Q230.7 32.8 231.1 29.35 231.35 25.8 233.0 21.7 L233.1 21.5 233.25 21.05 233.35 20.8 233.35 20.75 Q235.15 16.35 239.45 12.6 L239.65 12.4 239.85 12.2 240.0 12.05 240.1 12.0 244.0 9.0 243.85 9.1 244.05 8.95 244.25 8.8 Q244.3 8.7 244.4 8.7 247.8 6.5 250.75 5.95 L251.0 5.95 251.2 5.9 251.15 5.9 251.2 5.9 260.9 5.1 260.95 5.1 Q267.65 5.1 274.25 8.15 L274.3 8.15 274.55 8.25 274.6 8.3 274.65 8.35 Q277.65 9.7 279.6 11.45 L279.7 11.5 279.65 11.45 279.7 11.45 280.0 11.7 280.15 11.85 280.2 11.9 Q281.9 13.5 283.7 16.25 L283.8 16.4 Q284.9 18.1 284.85 20.1 L284.85 20.15 284.85 20.25 284.85 20.35 284.85 20.45 284.85 20.5 284.85 20.55 284.85 20.75 284.85 20.85 284.85 20.95 284.85 21.0 284.8 21.35 Q284.5 23.05 283.5 24.35 L283.45 24.45 282.8 25.2 282.65 25.4 276.9 30.5 282.15 30.5 Q283.8 30.5 285.2 31.2 L292.45 10.2 292.5 10.15 292.6 9.9 293.15 8.9 293.2 8.8 Q293.8 7.75 294.9 6.95 L295.25 6.75 295.2 6.75 Q296.8 5.65 298.8 5.55 L298.9 5.55 311.6 5.55 311.65 5.55 Q313.1 5.6 314.35 6.25 L314.45 6.3 314.7 6.4 314.85 6.45 314.8 6.45 315.2 6.65 315.25 6.65 Q317.2 7.95 318.0 10.15 L318.0 10.2 318.05 10.4 320.8 18.15 321.4 16.45 321.55 15.95 321.65 15.8 321.75 15.55 321.8 15.5 321.85 15.4 321.75 15.55 321.9 15.3 Q323.7 11.3 328.65 7.7 L328.6 7.7 Q332.65 4.65 336.5 3.35 L336.65 3.3 Q339.85 2.15 345.8 1.3 L346.05 1.25 346.35 1.25 350.0 0.35 350.4 0.2 350.55 0.2 Q351.55 -0.15 352.95 -0.85 L352.95 -0.8 356.5 -2.5 356.45 -2.5 356.55 -2.5 356.9 -2.7 M423.8 2.25 L423.85 2.25 423.8 2.25 M407.25 57.95 L407.2 57.9 407.2 57.95 407.25 57.95 M444.3 87.4 L444.3 87.45 444.3 87.4 M280.2 11.9 L280.15 11.9 280.2 11.9 M372.95 72.85 L373.1 72.9 373.05 72.9 372.95 72.85 M444.25 87.5 L444.2 87.5 444.25 87.5 M298.9 75.7 L298.65 75.9 298.75 76.05 298.9 75.7 M239.6 12.45 L239.75 12.3 239.65 12.4 239.6 12.45 M233.05 21.7 L233.15 21.4 233.1 21.5 233.05 21.7 M102.2 2.25 L102.25 2.25 102.2 2.25" fill="#ffffff" fill-rule="evenodd" stroke="none"/>
    </g>
    <g id="sprite1" transform="matrix(1.0, 0.0, 0.0, 1.0, 0.5, 0.5)">
      <use ffdec:characterId="108" height="59.85" transform="matrix(1.0, 0.0, 0.0, 1.0, -0.5, -0.5)" width="104.0" xlink:href="#shape1"/>
    </g>
    <g id="shape1" transform="matrix(1.0, 0.0, 0.0, 1.0, 0.5, 0.5)">
      <path d="M53.25 58.8 L38.0 58.8 35.25 50.05 18.25 49.95 15.05 58.85 0.0 58.8 20.25 0.15 32.5 0.15 52.35 56.25 66.7 31.4 47.5 0.0 64.2 0.0 75.0 18.8 86.05 0.0 103.0 0.0 83.15 31.15 98.9 58.7 82.0 58.7 75.05 46.15 74.55 46.15 67.05 58.7 53.25 58.7 53.25 58.8 M27.0 22.05 L26.65 22.05 21.5 38.05 31.75 38.05 27.0 22.05" fill="#111111" fill-rule="evenodd" stroke="none"/>
      <path d="M53.25 58.8 L53.25 58.7 53.25 58.8" fill="#009999" fill-rule="evenodd" stroke="none"/>
      <path d="M53.25 58.7 L67.05 58.7 74.55 46.15 75.05 46.15 82.0 58.7 98.9 58.7 83.15 31.15 103.0 0.0 86.05 0.0 75.0 18.8 64.2 0.0 47.5 0.0 66.7 31.4 52.35 56.25 32.5 0.15 20.25 0.15 0.0 58.8 15.05 58.85 18.25 49.95 35.25 50.05 38.0 58.8 53.25 58.8 53.25 58.7 M27.0 22.05 L31.75 38.05 21.5 38.05 26.65 22.05 27.0 22.05 Z" fill="none" stroke="#000000" stroke-linecap="round" stroke-linejoin="round" stroke-width="1.0"/>
    </g>
    <g id="sprite2" transform="matrix(1.0, 0.0, 0.0, 1.0, 0.0, 0.0)">
      <use ffdec:characterId="55" height="14.55" transform="matrix(1.0, 0.0, 0.0, 1.0, 0.0, 0.0)" width="53.15" xlink:href="#shape2"/>
    </g>
    <g id="shape2" transform="matrix(1.0, 0.0, 0.0, 1.0, 0.0, 0.0)">
      <path d="M39.4 1.0 Q40.25 0.4 40.95 0.25 L41.95 0.1 Q43.2 0.1 43.85 0.6 44.5 1.05 44.8 1.65 L45.1 2.65 45.3 2.65 46.2 1.55 Q46.7 0.95 47.55 0.55 48.4 0.1 49.65 0.1 50.75 0.1 51.6 0.6 52.4 1.1 52.75 2.1 L53.05 3.15 53.15 4.4 53.15 5.5 53.15 14.2 49.4 14.2 49.4 4.8 49.3 4.15 48.85 3.55 Q48.55 3.3 47.95 3.3 L47.0 3.5 45.6 4.6 45.6 14.2 41.8 14.2 41.8 5.15 41.75 4.4 41.45 3.65 Q41.1 3.3 40.45 3.3 39.85 3.3 39.35 3.65 L38.0 4.65 38.0 14.2 34.25 14.2 34.25 0.45 37.7 0.45 37.7 3.0 37.8 3.0 Q38.55 1.65 39.4 1.0 M20.6 2.5 Q21.1 1.4 22.25 0.75 23.45 0.05 25.6 0.0 L27.4 0.1 29.2 0.7 Q30.05 1.15 30.75 2.1 31.3 2.95 31.5 4.2 L31.7 7.25 31.65 9.75 31.2 11.6 30.05 13.1 29.4 13.65 28.1 14.15 25.95 14.4 24.9 14.4 23.65 14.25 22.55 13.85 Q21.3 13.2 20.75 12.25 20.15 11.25 20.0 9.95 L19.9 6.95 20.0 4.75 Q20.1 3.6 20.6 2.5 M24.45 3.25 Q24.05 3.7 23.95 4.35 23.85 4.95 23.9 5.5 L23.9 8.2 23.9 8.9 23.95 9.8 24.05 10.45 24.6 11.3 25.3 11.65 25.8 11.7 Q26.75 11.7 27.15 11.25 27.55 10.75 27.6 9.7 L27.7 6.75 27.6 4.75 Q27.55 3.85 27.15 3.3 26.75 2.75 25.8 2.75 24.9 2.8 24.45 3.25 M8.3 2.85 Q8.55 2.1 9.05 1.55 9.4 1.1 9.9 0.8 11.1 0.05 13.05 0.05 L14.25 0.1 15.75 0.5 17.2 1.55 18.0 3.1 18.1 4.5 15.05 4.5 14.85 3.8 14.45 3.2 Q14.15 2.95 13.45 2.95 12.55 2.95 12.2 3.4 11.8 3.85 11.7 4.4 L11.65 5.35 11.65 9.4 Q11.6 10.65 12.05 11.2 12.45 11.75 13.5 11.75 14.45 11.7 14.8 11.15 15.15 10.6 15.15 9.75 L18.4 9.75 18.3 11.1 Q18.2 11.9 17.7 12.7 17.25 13.5 16.25 14.0 L13.4 14.55 12.35 14.55 10.9 14.25 Q10.15 14.0 9.5 13.45 L9.05 13.0 Q8.45 12.3 8.2 11.45 7.75 10.3 7.75 9.05 L7.75 5.75 Q7.75 4.15 8.3 2.85 M5.8 11.65 Q5.8 12.85 4.95 13.7 4.1 14.55 2.9 14.55 1.7 14.55 0.85 13.7 0.0 12.85 0.0 11.65 0.0 10.45 0.85 9.6 1.7 8.75 2.9 8.75 4.1 8.75 4.95 9.6 5.8 10.45 5.8 11.65" fill="#000000" fill-rule="evenodd" stroke="none"/>
    </g>
    <g id="sprite3" transform="matrix(1.0, 0.0, 0.0, 1.0, 0.5, 0.5)">
      <use ffdec:characterId="51" height="60.35" transform="matrix(1.0, 0.0, 0.0, 1.0, -0.5, -0.5)" width="83.65" xlink:href="#shape3"/>
    </g>
    <g id="shape3" transform="matrix(1.0, 0.0, 0.0, 1.0, 0.5, 0.5)">
      <path d="M58.0 0.45 L64.9 0.05 Q68.45 0.2 70.9 1.1 79.4 4.2 82.0 7.5 L72.2 16.85 Q71.55 15.75 70.25 14.9 L67.65 13.55 Q66.35 12.9 64.2 12.75 L60.35 13.0 Q57.55 13.55 55.6 15.5 54.9 16.2 55.05 18.05 55.2 19.8 55.85 20.4 L56.85 21.45 Q57.35 21.9 58.1 22.15 L60.95 22.75 68.75 23.8 Q71.3 24.2 74.45 25.5 76.8 26.45 79.25 29.2 L80.45 30.8 Q81.25 32.1 81.9 34.1 82.65 36.15 82.65 38.9 82.75 40.3 82.3 43.05 81.9 46.05 80.05 49.5 79.2 51.1 77.75 52.55 L74.25 55.6 Q72.75 56.75 70.25 57.45 64.85 59.1 61.1 59.3 L52.65 58.85 Q48.35 58.4 43.7 55.95 L40.5 54.0 40.5 59.15 0.0 59.15 0.0 0.45 38.7 0.45 38.7 12.65 14.3 12.65 14.3 23.65 35.6 23.65 35.6 35.85 14.45 35.85 14.45 46.65 40.5 46.65 40.5 48.9 47.45 42.1 Q48.15 43.6 50.35 44.75 L53.95 46.25 Q55.95 47.05 59.8 46.95 L64.35 46.35 66.85 45.05 Q68.45 43.9 68.6 42.15 68.85 39.65 67.65 38.3 66.85 37.4 65.2 36.9 L62.1 36.3 58.0 35.65 Q51.7 34.45 49.35 33.55 46.25 32.4 43.35 28.5 41.05 25.45 40.95 19.65 41.0 16.05 41.15 14.95 41.4 12.45 42.4 10.6 45.05 6.0 48.65 3.6 50.75 2.2 52.85 1.55 L58.0 0.45" fill="#fb0a08" fill-rule="evenodd" stroke="none"/>
      <path d="M58.0 0.45 L52.85 1.55 Q50.75 2.2 48.65 3.6 45.05 6.0 42.4 10.6 41.4 12.45 41.15 14.95 41.0 16.05 40.95 19.65 41.05 25.45 43.35 28.5 46.25 32.4 49.35 33.55 51.7 34.45 58.0 35.65 L62.1 36.3 65.2 36.9 Q66.85 37.4 67.65 38.3 68.85 39.65 68.6 42.15 68.45 43.9 66.85 45.05 L64.35 46.35 59.8 46.95 Q55.95 47.05 53.95 46.25 L50.35 44.75 Q48.15 43.6 47.45 42.1 L40.5 48.9 40.5 46.65 14.45 46.65 14.45 35.85 35.6 35.85 35.6 23.65 14.3 23.65 14.3 12.65 38.7 12.65 38.7 0.45 0.0 0.45 0.0 59.15 40.5 59.15 40.5 54.0 43.7 55.95 Q48.35 58.4 52.65 58.85 L61.1 59.3 Q64.85 59.1 70.25 57.45 72.75 56.75 74.25 55.6 L77.75 52.55 Q79.2 51.1 80.05 49.5 81.9 46.05 82.3 43.05 82.75 40.3 82.65 38.9 82.65 36.15 81.9 34.1 81.25 32.1 80.45 30.8 L79.25 29.2 Q76.8 26.45 74.45 25.5 71.3 24.2 68.75 23.8 L60.95 22.75 58.1 22.15 Q57.35 21.9 56.85 21.45 L55.85 20.4 Q55.2 19.8 55.05 18.05 54.9 16.2 55.6 15.5 57.55 13.55 60.35 13.0 L64.2 12.75 Q66.35 12.9 67.65 13.55 L70.25 14.9 Q71.55 15.75 72.2 16.85 L82.0 7.5 Q79.4 4.2 70.9 1.1 68.45 0.2 64.9 0.05 L58.0 0.45 Z" fill="none" stroke="#000000" stroke-linecap="round" stroke-linejoin="round" stroke-width="1.0"/>
    </g>
    <g id="sprite4" transform="matrix(1.0, 0.0, 0.0, 1.0, 0.5, 0.5)">
      <use ffdec:characterId="53" height="60.7" transform="matrix(1.0, 0.0, 0.0, 1.0, -0.5, -0.5)" width="95.3" xlink:href="#shape4"/>
    </g>
    <g id="shape4" transform="matrix(1.0, 0.0, 0.0, 1.0, -237.25, -11.85)">
      <path d="M271.5 14.8 Q273.75 15.85 275.15 17.15 276.45 18.35 277.8 20.45 L271.3 26.35 267.85 29.4 266.7 27.95 265.35 26.95 Q263.35 25.15 259.8 25.15 256.85 25.2 254.5 27.35 252.85 28.95 252.4 31.0 252.0 33.25 252.0 34.9 L252.0 49.8 Q252.0 51.45 252.15 52.25 L252.7 54.15 Q253.0 55.4 253.6 56.25 L255.15 57.7 Q257.05 59.2 260.35 59.2 263.9 59.15 265.4 57.7 L266.7 56.55 Q267.2 56.0 267.35 55.25 L267.55 53.0 267.55 49.75 260.2 49.75 260.2 37.75 282.1 37.75 282.05 53.2 Q280.7 59.3 279.95 61.15 279.15 63.15 277.05 65.75 L270.75 70.0 Q269.4 70.7 267.7 71.2 L258.4 72.05 Q254.35 72.1 250.1 70.6 246.6 69.35 242.8 65.1 L240.7 62.25 Q239.75 60.7 239.35 58.95 L238.35 55.0 Q237.7 52.55 237.75 50.35 L237.75 35.95 Q237.7 33.3 238.05 30.15 238.25 27.25 239.7 23.8 241.05 20.55 244.3 17.75 L248.05 14.9 Q250.25 13.5 252.1 13.1 L260.85 12.35 Q266.25 12.35 271.5 14.8 M299.05 12.8 L311.3 12.8 332.05 71.45 316.8 71.45 314.05 62.7 297.05 62.6 293.85 71.5 278.8 71.45 299.05 12.8 M305.8 34.7 L305.45 34.7 300.3 50.7 310.55 50.7 305.8 34.7" fill="#fb0a08" fill-rule="evenodd" stroke="none"/>
      <path d="M305.8 34.7 L310.55 50.7 300.3 50.7 305.45 34.7 305.8 34.7 M299.05 12.8 L278.8 71.45 293.85 71.5 297.05 62.6 314.05 62.7 316.8 71.45 332.05 71.45 311.3 12.8 299.05 12.8 M271.5 14.8 Q266.25 12.35 260.85 12.35 L252.1 13.1 Q250.25 13.5 248.05 14.9 L244.3 17.75 Q241.05 20.55 239.7 23.8 238.25 27.25 238.05 30.15 237.7 33.3 237.75 35.95 L237.75 50.35 Q237.7 52.55 238.35 55.0 L239.35 58.95 Q239.75 60.7 240.7 62.25 L242.8 65.1 Q246.6 69.35 250.1 70.6 254.35 72.1 258.4 72.05 L267.7 71.2 Q269.4 70.7 270.75 70.0 L277.05 65.75 Q279.15 63.15 279.95 61.15 280.7 59.3 282.05 53.2 L282.1 37.75 260.2 37.75 260.2 49.75 267.55 49.75 267.55 53.0 267.35 55.25 Q267.2 56.0 266.7 56.55 L265.4 57.7 Q263.9 59.15 260.35 59.2 257.05 59.2 255.15 57.7 L253.6 56.25 Q253.0 55.4 252.7 54.15 L252.15 52.25 Q252.0 51.45 252.0 49.8 L252.0 34.9 Q252.0 33.25 252.4 31.0 252.85 28.95 254.5 27.35 256.85 25.2 259.8 25.15 263.35 25.15 265.35 26.95 L266.7 27.95 267.85 29.4 271.3 26.35 277.8 20.45 Q276.45 18.35 275.15 17.15 273.75 15.85 271.5 14.8 Z" fill="none" stroke="#000000" stroke-linecap="round" stroke-linejoin="round" stroke-width="1.0"/>
    </g>
    <g id="shape5" transform="matrix(1.0, 0.0, 0.0, 1.0, 0.5, 0.5)">
      <path d="M110.15 13.55 Q113.55 16.05 114.85 18.75 116.0 21.2 115.8 24.85 L115.15 31.35 Q114.75 34.75 114.7 36.1 L114.45 47.2 Q114.65 50.9 117.05 55.35 L121.0 68.7 Q121.5 71.25 121.2 73.45 120.65 77.3 119.55 79.75 118.5 82.05 117.55 82.85 116.45 83.9 114.5 83.9 110.4 83.9 106.65 79.75 L103.85 76.7 Q102.05 74.7 101.3 73.4 98.95 69.25 96.15 63.3 93.7 58.0 91.65 54.7 88.8 50.1 85.6 49.65 82.6 49.25 80.65 52.55 L77.45 58.1 Q75.7 60.9 73.35 63.15 70.85 65.65 67.4 66.65 65.05 67.35 61.85 67.5 L61.05 67.5 60.65 67.5 60.25 67.5 59.45 67.5 Q56.25 67.35 53.9 66.65 50.45 65.65 47.95 63.15 45.6 60.9 43.85 58.1 L40.65 52.55 Q38.7 49.25 35.7 49.65 32.5 50.1 29.65 54.7 27.6 58.0 25.15 63.3 22.35 69.25 20.0 73.4 L17.45 76.7 14.65 79.75 Q10.9 83.9 6.8 83.9 4.85 83.9 3.75 82.85 2.8 82.05 1.75 79.75 0.65 77.3 0.1 73.45 -0.2 71.25 0.3 68.7 L4.25 55.35 Q6.65 50.9 6.85 47.2 L6.6 36.1 6.15 31.35 Q5.65 27.55 5.5 24.85 5.3 21.2 6.45 18.75 7.75 16.05 11.15 13.55 14.25 11.25 17.15 10.25 19.9 9.25 25.2 8.5 L30.6 7.2 Q32.2 6.8 34.45 5.7 36.95 4.4 37.6 4.2 45.3 1.5 49.15 0.8 L59.45 0.0 61.85 0.0 72.15 0.8 Q76.0 1.5 83.7 4.2 L86.85 5.7 Q89.1 6.8 90.7 7.2 L96.1 8.5 Q101.4 9.25 104.15 10.25 107.05 11.25 110.15 13.55" fill="#111111" fill-rule="evenodd" stroke="none"/>
      <path d="M110.15 13.55 Q113.55 16.05 114.85 18.75 116.0 21.2 115.8 24.85 L115.15 31.35 Q114.75 34.75 114.7 36.1 L114.45 47.2 Q114.65 50.9 117.05 55.35 L121.0 68.7 Q121.5 71.25 121.2 73.45 120.65 77.3 119.55 79.75 118.5 82.05 117.55 82.85 116.45 83.9 114.5 83.9 110.4 83.9 106.65 79.75 L103.85 76.7 Q102.05 74.7 101.3 73.4 98.95 69.25 96.15 63.3 93.7 58.0 91.65 54.7 88.8 50.1 85.6 49.65 82.6 49.25 80.65 52.55 L77.45 58.1 Q75.7 60.9 73.35 63.15 70.85 65.65 67.4 66.65 65.05 67.35 61.85 67.5 L61.05 67.5 60.65 67.5 60.25 67.5 59.45 67.5 Q56.25 67.35 53.9 66.65 50.45 65.65 47.95 63.15 45.6 60.9 43.85 58.1 L40.65 52.55 Q38.7 49.25 35.7 49.65 32.5 50.1 29.65 54.7 27.6 58.0 25.15 63.3 22.35 69.25 20.0 73.4 L17.45 76.7 14.65 79.75 Q10.9 83.9 6.8 83.9 4.85 83.9 3.75 82.85 2.8 82.05 1.75 79.75 0.65 77.3 0.1 73.45 -0.2 71.25 0.3 68.7 L4.25 55.35 Q6.65 50.9 6.85 47.2 L6.6 36.1 6.15 31.35 Q5.65 27.55 5.5 24.85 5.3 21.2 6.45 18.75 7.75 16.05 11.15 13.55 14.25 11.25 17.15 10.25 19.9 9.25 25.2 8.5 L30.6 7.2 Q32.2 6.8 34.45 5.7 36.95 4.4 37.6 4.2 45.3 1.5 49.15 0.8 L59.45 0.0 61.85 0.0 72.15 0.8 Q76.0 1.5 83.7 4.2 L86.85 5.7 Q89.1 6.8 90.7 7.2 L96.1 8.5 Q101.4 9.25 104.15 10.25 107.05 11.25 110.15 13.55 Z" fill="none" stroke="#000000" stroke-linecap="round" stroke-linejoin="round" stroke-width="1.0"/>
      <path d="M33.35 47.25 Q35.55 48.0 37.15 49.25 L38.0 49.95 35.7 49.65 Q32.5 50.1 29.65 54.7 27.6 58.0 25.15 63.3 22.35 69.25 20.0 73.4 L17.45 76.7 14.65 79.75 Q10.9 83.9 6.8 83.9 4.85 83.9 3.75 82.85 L2.55 81.35 Q6.4 78.4 9.25 74.3 15.0 66.0 18.7 56.6 21.75 48.8 27.25 47.0 L33.35 47.25" fill="url(#gradient0)" fill-rule="evenodd" stroke="none"/>
      <path d="M83.65 49.85 Q81.9 50.4 80.65 52.55 L77.45 58.1 Q75.7 60.9 73.35 63.15 70.85 65.65 67.4 66.65 65.05 67.35 61.85 67.5 L61.05 67.5 60.65 67.5 60.25 67.5 59.45 67.5 Q56.25 67.35 53.9 66.65 51.35 65.9 49.3 64.35 L53.0 64.75 Q60.85 64.75 69.45 56.6 72.85 53.35 74.75 50.8 76.4 49.8 78.25 49.0 L83.5 49.0 84.25 49.7 83.65 49.85" fill="url(#gradient1)" fill-rule="evenodd" stroke="none"/>
      <path d="M114.5 45.05 L114.45 47.2 Q114.65 50.9 117.05 55.35 L121.0 68.7 Q121.5 71.25 121.2 73.45 120.65 77.3 119.55 79.75 118.5 82.05 117.55 82.85 116.55 83.85 114.8 83.9 L115.0 80.3 Q115.0 75.9 114.45 72.7 113.85 69.05 112.15 64.65 111.55 62.9 110.2 60.75 L109.15 59.15 108.45 57.0 Q106.5 51.4 106.25 49.25 L105.95 46.4 Q110.2 45.4 114.5 45.05" fill="url(#gradient2)" fill-rule="evenodd" stroke="none"/>
      <path d="M105.95 46.4 L105.8 44.6 105.8 44.25 106.5 31.15 Q106.5 27.6 106.0 24.8 L105.85 24.1 105.5 19.5 105.3 19.2 Q104.1 15.75 102.2 12.65 L101.5 11.0 100.05 9.15 104.15 10.25 Q106.55 11.1 109.1 12.8 L110.15 13.55 Q113.55 16.05 114.85 18.75 116.0 21.2 115.8 24.85 L115.15 31.35 Q114.75 34.75 114.7 36.1 L114.5 45.05 Q110.2 45.4 105.95 46.4" fill="url(#gradient3)" fill-rule="evenodd" stroke="none"/>
      <path d="M30.25 11.8 L32.55 11.05 Q32.85 10.8 35.15 10.0 38.25 8.95 41.05 7.7 48.65 4.25 63.1 3.95 77.55 3.65 88.05 10.45 98.5 17.2 98.5 26.95 98.5 33.95 92.85 39.45 L31.95 39.45 30.25 11.8" fill="url(#gradient4)" fill-rule="evenodd" stroke="none"/>
      <path d="M110.45 58.7 L111.7 60.1 Q118.1 67.55 119.3 72.35 120.55 77.15 118.6 79.6 116.7 82.05 113.5 81.05 110.25 80.05 106.55 75.75 103.55 72.2 100.15 65.95 L98.55 62.9 Q95.8 57.5 95.25 54.45 L106.25 54.45 110.45 58.7" fill="url(#gradient5)" fill-rule="evenodd" stroke="none"/>
      <path d="M31.95 39.45 L10.55 39.45 Q10.55 33.15 9.0 27.65 6.95 20.3 17.0 15.75 21.6 13.6 23.9 12.9 27.1 11.85 30.25 11.8 L31.95 39.45" fill="url(#gradient6)" fill-rule="evenodd" stroke="none"/>
      <path d="M18.75 71.25 Q16.75 76.05 13.15 78.5 9.6 80.95 6.55 79.65 3.5 78.4 2.75 74.1 2.05 69.85 4.05 65.05 L8.6 54.45 18.05 54.45 18.35 55.05 Q18.95 56.75 19.35 59.0 20.75 66.45 18.75 71.25" fill="url(#gradient7)" fill-rule="evenodd" stroke="none"/>
      <path d="M99.65 39.65 Q94.95 39.65 91.65 35.95 88.35 32.3 88.35 27.1 88.35 21.9 91.65 18.2 94.95 14.55 99.65 14.55 104.3 14.55 107.65 18.2 110.95 21.9 110.95 27.1 110.95 32.3 107.65 35.95 104.3 39.65 99.65 39.65 M61.45 25.7 Q53.25 25.7 47.45 22.6 41.7 19.55 41.7 15.2 41.7 10.85 47.45 7.75 53.25 4.7 61.45 4.7 69.65 4.7 75.4 7.75 81.2 10.85 81.2 15.2 81.2 19.55 75.4 22.6 69.65 25.7 61.45 25.7 M32.3 27.6 Q32.3 32.8 29.0 36.45 25.65 40.15 21.0 40.15 16.3 40.15 13.0 36.45 9.7 32.8 9.7 27.6 9.7 22.4 13.0 18.7 16.3 15.05 21.0 15.05 25.65 15.05 29.0 18.7 32.3 22.4 32.3 27.6" fill="#000000" fill-rule="evenodd" stroke="none"/>
      <path d="M59.95 30.7 Q66.25 30.7 70.7 35.15 75.2 39.65 75.2 45.95 75.2 52.25 70.7 56.7 66.25 61.2 59.95 61.2 53.65 61.2 49.15 56.7 44.7 52.25 44.7 45.95 44.7 39.65 49.15 35.15 53.65 30.7 59.95 30.7" fill="url(#gradient8)" fill-rule="evenodd" stroke="none"/>
      <path d="M60.2 35.7 Q63.95 35.7 66.55 38.3 69.2 40.95 69.2 44.7 69.2 48.45 66.55 51.05 63.95 53.7 60.2 53.7 56.45 53.7 53.8 51.05 51.2 48.45 51.2 44.7 51.2 40.95 53.8 38.3 56.45 35.7 60.2 35.7" fill="url(#gradient9)" fill-rule="evenodd" stroke="none"/>
      <path d="M60.2 35.7 Q63.95 35.7 66.55 38.3 69.2 40.95 69.2 44.7 69.2 48.45 66.55 51.05 63.95 53.7 60.2 53.7 56.45 53.7 53.8 51.05 51.2 48.45 51.2 44.7 51.2 40.95 53.8 38.3 56.45 35.7 60.2 35.7 Z" fill="none" stroke="#000000" stroke-linecap="round" stroke-linejoin="round" stroke-width="1.0"/>
      <path d="M66.85 16.45 Q68.15 16.45 69.0 17.3 69.95 18.2 69.95 19.45 69.95 20.7 69.0 21.55 68.15 22.45 66.85 22.45 L54.75 22.45 Q53.5 22.45 52.6 21.55 51.7 20.7 51.7 19.45 51.7 18.2 52.6 17.3 53.5 16.45 54.75 16.45 L66.85 16.45" fill="url(#gradient10)" fill-rule="evenodd" stroke="none"/>
      <path d="M66.85 8.2 Q68.15 8.2 69.0 9.05 69.95 9.95 69.95 11.2 69.95 12.45 69.0 13.3 68.15 14.2 66.85 14.2 L54.8 14.2 Q53.55 14.2 52.6 13.3 51.7 12.45 51.7 11.2 51.7 9.95 52.6 9.05 53.55 8.2 54.8 8.2 L66.85 8.2" fill="url(#gradient11)" fill-rule="evenodd" stroke="none"/>
      <path d="M66.85 16.45 L54.75 16.45 Q53.5 16.45 52.6 17.3 51.7 18.2 51.7 19.45 51.7 20.7 52.6 21.55 53.5 22.45 54.75 22.45 L66.85 22.45 Q68.15 22.45 69.0 21.55 69.95 20.7 69.95 19.45 69.95 18.2 69.0 17.3 68.15 16.45 66.85 16.45 M66.85 8.2 L54.8 8.2 Q53.55 8.2 52.6 9.05 51.7 9.95 51.7 11.2 51.7 12.45 52.6 13.3 53.55 14.2 54.8 14.2 L66.85 14.2 Q68.15 14.2 69.0 13.3 69.95 12.45 69.95 11.2 69.95 9.95 69.0 9.05 68.15 8.2 66.85 8.2 Z" fill="none" stroke="#000000" stroke-linecap="round" stroke-linejoin="round" stroke-width="1.0"/>
      <path d="M68.7 11.4 L68.7 11.45 Q68.7 12.15 68.05 12.6 67.45 13.2 66.6 13.2 L55.05 13.2 Q54.2 13.2 53.55 12.6 52.95 12.15 52.95 11.45 L52.95 11.4 Q52.95 10.7 53.55 10.15 54.2 9.7 55.05 9.7 L66.6 9.7 Q67.45 9.7 68.05 10.15 68.7 10.7 68.7 11.4" fill="url(#gradient12)" fill-rule="evenodd" stroke="none"/>
      <path d="M68.0 18.45 Q68.65 19.15 68.65 20.0 L68.65 20.05 Q68.65 20.9 68.0 21.5 67.4 22.2 66.55 22.2 L55.0 22.2 Q54.15 22.2 53.5 21.5 52.9 20.9 52.9 20.05 L52.9 20.0 Q52.9 19.15 53.5 18.45 54.15 17.9 55.0 17.9 L66.55 17.9 Q67.4 17.9 68.0 18.45" fill="url(#gradient13)" fill-rule="evenodd" stroke="none"/>
      <path d="M102.1 22.05 Q101.15 23.05 99.8 23.05 98.45 23.05 97.45 22.05 96.5 21.1 96.5 19.75 96.5 18.4 97.45 17.4 98.45 16.45 99.8 16.45 101.15 16.45 102.1 17.4 103.1 18.4 103.1 19.75 103.1 21.1 102.1 22.05" fill="url(#gradient14)" fill-rule="evenodd" stroke="none"/>
      <path d="M105.3 23.7 Q106.65 23.7 107.6 24.65 108.6 25.65 108.6 27.0 108.6 28.35 107.6 29.3 106.65 30.3 105.3 30.3 103.95 30.3 102.95 29.3 102.0 28.35 102.0 27.0 102.0 25.65 102.95 24.65 103.95 23.7 105.3 23.7" fill="url(#gradient15)" fill-rule="evenodd" stroke="none"/>
      <path d="M94.55 23.7 Q95.9 23.7 96.85 24.65 97.85 25.65 97.85 27.0 97.85 28.35 96.85 29.3 95.9 30.3 94.55 30.3 93.2 30.3 92.2 29.3 91.25 28.35 91.25 27.0 91.25 25.65 92.2 24.65 93.2 23.7 94.55 23.7" fill="url(#gradient16)" fill-rule="evenodd" stroke="none"/>
      <path d="M97.45 36.8 Q96.5 35.85 96.5 34.5 96.5 33.15 97.45 32.15 98.45 31.2 99.8 31.2 101.15 31.2 102.1 32.15 103.1 33.15 103.1 34.5 103.1 35.85 102.1 36.8 101.15 37.8 99.8 37.8 98.45 37.8 97.45 36.8" fill="url(#gradient17)" fill-rule="evenodd" stroke="none"/>
      <path d="M21.15 23.3 Q19.8 23.3 18.8 22.3 17.85 21.35 17.85 20.0 17.85 18.65 18.8 17.65 19.8 16.7 21.15 16.7 22.5 16.7 23.45 17.65 24.45 18.65 24.45 20.0 24.45 21.35 23.45 22.3 22.5 23.3 21.15 23.3" fill="url(#gradient18)" fill-rule="evenodd" stroke="none"/>
      <path d="M13.55 24.9 Q14.55 23.95 15.9 23.95 17.25 23.95 18.2 24.9 19.2 25.9 19.2 27.25 19.2 28.6 18.2 29.55 17.25 30.55 15.9 30.55 14.55 30.55 13.55 29.55 12.6 28.6 12.6 27.25 12.6 25.9 13.55 24.9" fill="url(#gradient19)" fill-rule="evenodd" stroke="none"/>
      <path d="M18.8 32.4 Q19.8 31.45 21.15 31.45 22.5 31.45 23.45 32.4 24.45 33.4 24.45 34.75 24.45 36.1 23.45 37.05 22.5 38.05 21.15 38.05 19.8 38.05 18.8 37.05 17.85 36.1 17.85 34.75 17.85 33.4 18.8 32.4" fill="url(#gradient20)" fill-rule="evenodd" stroke="none"/>
      <path d="M29.95 27.25 Q29.95 28.6 28.95 29.55 28.0 30.55 26.65 30.55 25.3 30.55 24.3 29.55 23.35 28.6 23.35 27.25 23.35 25.9 24.3 24.9 25.3 23.95 26.65 23.95 28.0 23.95 28.95 24.9 29.95 25.9 29.95 27.25" fill="url(#gradient21)" fill-rule="evenodd" stroke="none"/>
      <path d="M105.3 23.7 Q106.65 23.7 107.6 24.65 108.6 25.65 108.6 27.0 108.6 28.35 107.6 29.3 106.65 30.3 105.3 30.3 103.95 30.3 102.95 29.3 102.0 28.35 102.0 27.0 102.0 25.65 102.95 24.65 103.95 23.7 105.3 23.7 M102.1 22.05 Q101.15 23.05 99.8 23.05 98.45 23.05 97.45 22.05 96.5 21.1 96.5 19.75 96.5 18.4 97.45 17.4 98.45 16.45 99.8 16.45 101.15 16.45 102.1 17.4 103.1 18.4 103.1 19.75 103.1 21.1 102.1 22.05 M94.55 23.7 Q95.9 23.7 96.85 24.65 97.85 25.65 97.85 27.0 97.85 28.35 96.85 29.3 95.9 30.3 94.55 30.3 93.2 30.3 92.2 29.3 91.25 28.35 91.25 27.0 91.25 25.65 92.2 24.65 93.2 23.7 94.55 23.7 M97.45 36.8 Q96.5 35.85 96.5 34.5 96.5 33.15 97.45 32.15 98.45 31.2 99.8 31.2 101.15 31.2 102.1 32.15 103.1 33.15 103.1 34.5 103.1 35.85 102.1 36.8 101.15 37.8 99.8 37.8 98.45 37.8 97.45 36.8 M21.15 23.3 Q19.8 23.3 18.8 22.3 17.85 21.35 17.85 20.0 17.85 18.65 18.8 17.65 19.8 16.7 21.15 16.7 22.5 16.7 23.45 17.65 24.45 18.65 24.45 20.0 24.45 21.35 23.45 22.3 22.5 23.3 21.15 23.3 M18.8 32.4 Q19.8 31.45 21.15 31.45 22.5 31.45 23.45 32.4 24.45 33.4 24.45 34.75 24.45 36.1 23.45 37.05 22.5 38.05 21.15 38.05 19.8 38.05 18.8 37.05 17.85 36.1 17.85 34.75 17.85 33.4 18.8 32.4 M13.55 24.9 Q14.55 23.95 15.9 23.95 17.25 23.95 18.2 24.9 19.2 25.9 19.2 27.25 19.2 28.6 18.2 29.55 17.25 30.55 15.9 30.55 14.55 30.55 13.55 29.55 12.6 28.6 12.6 27.25 12.6 25.9 13.55 24.9 M29.95 27.25 Q29.95 28.6 28.95 29.55 28.0 30.55 26.65 30.55 25.3 30.55 24.3 29.55 23.35 28.6 23.35 27.25 23.35 25.9 24.3 24.9 25.3 23.95 26.65 23.95 28.0 23.95 28.95 24.9 29.95 25.9 29.95 27.25 Z" fill="none" stroke="#000000" stroke-linecap="round" stroke-linejoin="round" stroke-width="1.0"/>
    </g>
    <radialGradient cx="0" cy="0" gradientTransform="matrix(0.1232, 0.0, 0.0, 0.1232, -53.5, 7.25)" gradientUnits="userSpaceOnUse" id="gradient0" r="819.2" spreadMethod="pad">
      <stop offset="0.8549019607843137" stop-color="#000000" stop-opacity="0.0"/>
      <stop offset="0.9647058823529412" stop-color="#000000" stop-opacity="0.29803923"/>
    </radialGradient>
    <radialGradient cx="0" cy="0" gradientTransform="matrix(0.0803, 0.0, 0.0, 0.0803, 36.75, 9.5)" gradientUnits="userSpaceOnUse" id="gradient1" r="819.2" spreadMethod="pad">
      <stop offset="0.8549019607843137" stop-color="#000000" stop-opacity="0.0"/>
      <stop offset="0.9647058823529412" stop-color="#000000" stop-opacity="0.29803923"/>
    </radialGradient>
    <radialGradient cx="0" cy="0" gradientTransform="matrix(0.0892, 0.0, 0.0, 0.0892, 49.0, 76.5)" gradientUnits="userSpaceOnUse" id="gradient2" r="819.2" spreadMethod="pad">
      <stop offset="0.8549019607843137" stop-color="#000000" stop-opacity="0.0"/>
      <stop offset="0.9647058823529412" stop-color="#000000" stop-opacity="0.29803923"/>
    </radialGradient>
    <radialGradient cx="0" cy="0" gradientTransform="matrix(0.1025, 0.0, 0.0, 0.1025, 32.75, 33.25)" gradientUnits="userSpaceOnUse" id="gradient3" r="819.2" spreadMethod="pad">
      <stop offset="0.8549019607843137" stop-color="#000000" stop-opacity="0.0"/>
      <stop offset="0.9647058823529412" stop-color="#000000" stop-opacity="0.29803923"/>
    </radialGradient>
    <radialGradient cx="0" cy="0" gradientTransform="matrix(0.1137, 0.0, 0.0, 0.1137, 66.0, 95.75)" gradientUnits="userSpaceOnUse" id="gradient4" r="819.2" spreadMethod="pad">
      <stop offset="0.8549019607843137" stop-color="#ffffff" stop-opacity="0.0"/>
      <stop offset="1.0" stop-color="#ffffff" stop-opacity="0.4"/>
    </radialGradient>
    <linearGradient gradientTransform="matrix(0.0097, -0.0031, 0.016, 0.017, 106.85, 65.9)" gradientUnits="userSpaceOnUse" id="gradient5" spreadMethod="pad" x1="-819.2" x2="819.2">
      <stop offset="0.0" stop-color="#ffffff" stop-opacity="0.49803922"/>
      <stop offset="0.44313725490196076" stop-color="#ffffff" stop-opacity="0.0"/>
    </linearGradient>
    <radialGradient cx="0" cy="0" gradientTransform="matrix(0.0752, 0.0, 0.0, 0.0752, 42.5, 71.75)" gradientUnits="userSpaceOnUse" id="gradient6" r="819.2" spreadMethod="pad">
      <stop offset="0.8352941176470589" stop-color="#ffffff" stop-opacity="0.0"/>
      <stop offset="1.0" stop-color="#ffffff" stop-opacity="0.4"/>
    </radialGradient>
    <linearGradient gradientTransform="matrix(0.0106, 0.0, 0.0, 0.0157, 11.25, 67.25)" gradientUnits="userSpaceOnUse" id="gradient7" spreadMethod="pad" x1="-819.2" x2="819.2">
      <stop offset="0.0" stop-color="#ffffff" stop-opacity="0.49803922"/>
      <stop offset="0.44313725490196076" stop-color="#ffffff" stop-opacity="0.0"/>
    </linearGradient>
    <radialGradient cx="0" cy="0" gradientTransform="matrix(0.0187, 0.0, 0.0, 0.0187, 59.95, 45.95)" gradientUnits="userSpaceOnUse" id="gradient8" r="819.2" spreadMethod="pad">
      <stop offset="0.5843137254901961" stop-color="#373737"/>
      <stop offset="1.0" stop-color="#000000"/>
    </radialGradient>
    <radialGradient cx="0" cy="0" gradientTransform="matrix(0.0137, 0.0, 0.0, 0.0137, 60.0, 42.5)" gradientUnits="userSpaceOnUse" id="gradient9" r="819.2" spreadMethod="pad">
      <stop offset="0.17254901960784313" stop-color="#aeaeae"/>
      <stop offset="0.7098039215686275" stop-color="#333333"/>
      <stop offset="0.9176470588235294" stop-color="#000000"/>
    </radialGradient>
    <linearGradient gradientTransform="matrix(0.0, 0.0037, -0.0111, 0.0, 60.85, 19.45)" gradientUnits="userSpaceOnUse" id="gradient10" spreadMethod="pad" x1="-819.2" x2="819.2">
      <stop offset="0.4392156862745098" stop-color="#10bd0f"/>
      <stop offset="1.0" stop-color="#000000"/>
    </linearGradient>
    <linearGradient gradientTransform="matrix(0.0, 0.0037, -0.0111, 0.0, 60.85, 11.2)" gradientUnits="userSpaceOnUse" id="gradient11" spreadMethod="pad" x1="-819.2" x2="819.2">
      <stop offset="0.4392156862745098" stop-color="#10bd0f"/>
      <stop offset="1.0" stop-color="#000000"/>
    </linearGradient>
    <linearGradient gradientTransform="matrix(0.0, 0.0021, -0.0096, 0.0, 60.85, 11.4)" gradientUnits="userSpaceOnUse" id="gradient12" spreadMethod="pad" x1="-819.2" x2="819.2">
      <stop offset="0.0" stop-color="#f2ffee"/>
      <stop offset="1.0" stop-color="#ffffff" stop-opacity="0.0"/>
    </linearGradient>
    <linearGradient gradientTransform="matrix(0.0, 0.0026, -0.0096, 0.0, 60.8, 20.0)" gradientUnits="userSpaceOnUse" id="gradient13" spreadMethod="pad" x1="-819.2" x2="819.2">
      <stop offset="0.0" stop-color="#f2ffee"/>
      <stop offset="1.0" stop-color="#ffffff" stop-opacity="0.0"/>
    </linearGradient>
    <radialGradient cx="0" cy="0" gradientTransform="matrix(0.0052, 0.0, 0.0, 0.0052, 100.05, 18.75)" gradientUnits="userSpaceOnUse" id="gradient14" r="819.2" spreadMethod="pad">
      <stop offset="0.16470588235294117" stop-color="#ffffff"/>
      <stop offset="0.19607843137254902" stop-color="#ff5555"/>
      <stop offset="1.0" stop-color="#000000"/>
    </radialGradient>
    <radialGradient cx="0" cy="0" gradientTransform="matrix(0.0052, 0.0, 0.0, 0.0052, 105.55, 26.0)" gradientUnits="userSpaceOnUse" id="gradient15" r="819.2" spreadMethod="pad">
      <stop offset="0.16470588235294117" stop-color="#ffffff"/>
      <stop offset="0.19607843137254902" stop-color="#ff5555"/>
      <stop offset="1.0" stop-color="#000000"/>
    </radialGradient>
    <radialGradient cx="0" cy="0" gradientTransform="matrix(0.0052, 0.0, 0.0, 0.0052, 94.8, 26.0)" gradientUnits="userSpaceOnUse" id="gradient16" r="819.2" spreadMethod="pad">
      <stop offset="0.16470588235294117" stop-color="#ffffff"/>
      <stop offset="0.19607843137254902" stop-color="#ff5555"/>
      <stop offset="1.0" stop-color="#000000"/>
    </radialGradient>
    <radialGradient cx="0" cy="0" gradientTransform="matrix(0.0052, 0.0, 0.0, 0.0052, 100.05, 33.5)" gradientUnits="userSpaceOnUse" id="gradient17" r="819.2" spreadMethod="pad">
      <stop offset="0.16470588235294117" stop-color="#ffffff"/>
      <stop offset="0.19607843137254902" stop-color="#ff5555"/>
      <stop offset="1.0" stop-color="#000000"/>
    </radialGradient>
    <radialGradient cx="0" cy="0" gradientTransform="matrix(0.0052, 0.0, 0.0, 0.0052, 21.4, 19.0)" gradientUnits="userSpaceOnUse" id="gradient18" r="819.2" spreadMethod="pad">
      <stop offset="0.16470588235294117" stop-color="#ffffff"/>
      <stop offset="0.19607843137254902" stop-color="#ff5555"/>
      <stop offset="1.0" stop-color="#000000"/>
    </radialGradient>
    <radialGradient cx="0" cy="0" gradientTransform="matrix(0.0052, 0.0, 0.0, 0.0052, 16.15, 26.25)" gradientUnits="userSpaceOnUse" id="gradient19" r="819.2" spreadMethod="pad">
      <stop offset="0.16470588235294117" stop-color="#ffffff"/>
      <stop offset="0.19607843137254902" stop-color="#ff5555"/>
      <stop offset="1.0" stop-color="#000000"/>
    </radialGradient>
    <radialGradient cx="0" cy="0" gradientTransform="matrix(0.0052, 0.0, 0.0, 0.0052, 21.4, 33.75)" gradientUnits="userSpaceOnUse" id="gradient20" r="819.2" spreadMethod="pad">
      <stop offset="0.16470588235294117" stop-color="#ffffff"/>
      <stop offset="0.19607843137254902" stop-color="#ff5555"/>
      <stop offset="1.0" stop-color="#000000"/>
    </radialGradient>
    <radialGradient cx="0" cy="0" gradientTransform="matrix(0.0052, 0.0, 0.0, 0.0052, 26.9, 26.25)" gradientUnits="userSpaceOnUse" id="gradient21" r="819.2" spreadMethod="pad">
      <stop offset="0.16470588235294117" stop-color="#ffffff"/>
      <stop offset="0.19607843137254902" stop-color="#ff5555"/>
      <stop offset="1.0" stop-color="#000000"/>
    </radialGradient>
    <g id="shape6" transform="matrix(1.0, 0.0, 0.0, 1.0, 0.5, 0.5)">
      <path d="M110.15 13.55 Q113.55 16.05 114.85 18.75 116.0 21.2 115.8 24.85 L115.15 31.35 Q114.75 34.75 114.7 36.1 L114.45 47.2 Q114.65 50.9 117.05 55.35 L121.0 68.7 Q121.5 71.25 121.2 73.45 120.65 77.3 119.55 79.75 118.5 82.05 117.55 82.85 116.45 83.9 114.5 83.9 110.4 83.9 106.65 79.75 L103.85 76.7 Q102.05 74.7 101.3 73.4 98.95 69.25 96.15 63.3 93.7 58.0 91.65 54.7 88.8 50.1 85.6 49.65 82.6 49.25 80.65 52.55 L77.45 58.1 Q75.7 60.9 73.35 63.15 70.85 65.65 67.4 66.65 65.05 67.35 61.85 67.5 L61.05 67.5 60.65 67.5 60.25 67.5 59.45 67.5 Q56.25 67.35 53.9 66.65 50.45 65.65 47.95 63.15 45.6 60.9 43.85 58.1 L40.65 52.55 Q38.7 49.25 35.7 49.65 32.5 50.1 29.65 54.7 27.6 58.0 25.15 63.3 22.35 69.25 20.0 73.4 L17.45 76.7 14.65 79.75 Q10.9 83.9 6.8 83.9 4.85 83.9 3.75 82.85 2.8 82.05 1.75 79.75 0.65 77.3 0.1 73.45 -0.2 71.25 0.3 68.7 L4.25 55.35 Q6.65 50.9 6.85 47.2 L6.6 36.1 6.15 31.35 Q5.65 27.55 5.5 24.85 5.3 21.2 6.45 18.75 7.75 16.05 11.15 13.55 14.25 11.25 17.15 10.25 19.9 9.25 25.2 8.5 L30.6 7.2 Q32.2 6.8 34.45 5.7 36.95 4.4 37.6 4.2 45.3 1.5 49.15 0.8 L59.45 0.0 61.85 0.0 72.15 0.8 Q76.0 1.5 83.7 4.2 L86.85 5.7 Q89.1 6.8 90.7 7.2 L96.1 8.5 Q101.4 9.25 104.15 10.25 107.05 11.25 110.15 13.55" fill="#fb0a08" fill-rule="evenodd" stroke="none"/>
      <path d="M110.15 13.55 Q113.55 16.05 114.85 18.75 116.0 21.2 115.8 24.85 L115.15 31.35 Q114.75 34.75 114.7 36.1 L114.45 47.2 Q114.65 50.9 117.05 55.35 L121.0 68.7 Q121.5 71.25 121.2 73.45 120.65 77.3 119.55 79.75 118.5 82.05 117.55 82.85 116.45 83.9 114.5 83.9 110.4 83.9 106.65 79.75 L103.85 76.7 Q102.05 74.7 101.3 73.4 98.95 69.25 96.15 63.3 93.7 58.0 91.65 54.7 88.8 50.1 85.6 49.65 82.6 49.25 80.65 52.55 L77.45 58.1 Q75.7 60.9 73.35 63.15 70.85 65.65 67.4 66.65 65.05 67.35 61.85 67.5 L61.05 67.5 60.65 67.5 60.25 67.5 59.45 67.5 Q56.25 67.35 53.9 66.65 50.45 65.65 47.95 63.15 45.6 60.9 43.85 58.1 L40.65 52.55 Q38.7 49.25 35.7 49.65 32.5 50.1 29.65 54.7 27.6 58.0 25.15 63.3 22.35 69.25 20.0 73.4 L17.45 76.7 14.65 79.75 Q10.9 83.9 6.8 83.9 4.85 83.9 3.75 82.85 2.8 82.05 1.75 79.75 0.65 77.3 0.1 73.45 -0.2 71.25 0.3 68.7 L4.25 55.35 Q6.65 50.9 6.85 47.2 L6.6 36.1 6.15 31.35 Q5.65 27.55 5.5 24.85 5.3 21.2 6.45 18.75 7.75 16.05 11.15 13.55 14.25 11.25 17.15 10.25 19.9 9.25 25.2 8.5 L30.6 7.2 Q32.2 6.8 34.45 5.7 36.95 4.4 37.6 4.2 45.3 1.5 49.15 0.8 L59.45 0.0 61.85 0.0 72.15 0.8 Q76.0 1.5 83.7 4.2 L86.85 5.7 Q89.1 6.8 90.7 7.2 L96.1 8.5 Q101.4 9.25 104.15 10.25 107.05 11.25 110.15 13.55 Z" fill="none" stroke="#000000" stroke-linecap="round" stroke-linejoin="round" stroke-width="1.0"/>
      <path d="M33.35 47.25 Q35.55 48.0 37.15 49.25 L38.0 49.95 35.7 49.65 Q32.5 50.1 29.65 54.7 27.6 58.0 25.15 63.3 22.35 69.25 20.0 73.4 L17.45 76.7 14.65 79.75 Q10.9 83.9 6.8 83.9 4.85 83.9 3.75 82.85 L2.55 81.35 Q6.4 78.4 9.25 74.3 15.0 66.0 18.7 56.6 21.75 48.8 27.25 47.0 L33.35 47.25" fill="url(#gradient22)" fill-rule="evenodd" stroke="none"/>
      <path d="M83.65 49.85 Q81.9 50.4 80.65 52.55 L77.45 58.1 Q75.7 60.9 73.35 63.15 70.85 65.65 67.4 66.65 65.05 67.35 61.85 67.5 L61.05 67.5 60.65 67.5 60.25 67.5 59.45 67.5 Q56.25 67.35 53.9 66.65 51.35 65.9 49.3 64.35 L53.0 64.75 Q60.85 64.75 69.45 56.6 72.85 53.35 74.75 50.8 76.4 49.8 78.25 49.0 L83.5 49.0 84.25 49.7 83.65 49.85" fill="url(#gradient23)" fill-rule="evenodd" stroke="none"/>
      <path d="M114.5 45.05 L114.45 47.2 Q114.65 50.9 117.05 55.35 L121.0 68.7 Q121.5 71.25 121.2 73.45 120.65 77.3 119.55 79.75 118.5 82.05 117.55 82.85 116.55 83.85 114.8 83.9 L115.0 80.3 Q115.0 75.9 114.45 72.7 113.85 69.05 112.15 64.65 111.55 62.9 110.2 60.75 L109.15 59.15 108.45 57.0 Q106.5 51.4 106.25 49.25 L105.95 46.4 Q110.2 45.4 114.5 45.05" fill="url(#gradient24)" fill-rule="evenodd" stroke="none"/>
      <path d="M105.95 46.4 L105.8 44.6 105.8 44.25 106.5 31.15 Q106.5 27.6 106.0 24.8 L105.85 24.1 105.5 19.5 105.3 19.2 Q104.1 15.75 102.2 12.65 L101.5 11.0 100.05 9.15 104.15 10.25 Q106.55 11.1 109.1 12.8 L110.15 13.55 Q113.55 16.05 114.85 18.75 116.0 21.2 115.8 24.85 L115.15 31.35 Q114.75 34.75 114.7 36.1 L114.5 45.05 Q110.2 45.4 105.95 46.4" fill="url(#gradient25)" fill-rule="evenodd" stroke="none"/>
      <path d="M30.25 11.8 L32.55 11.05 Q32.85 10.8 35.15 10.0 38.25 8.95 41.05 7.7 48.65 4.25 63.1 3.95 77.55 3.65 88.05 10.45 98.5 17.2 98.5 26.95 98.5 33.95 92.85 39.45 L31.95 39.45 30.25 11.8" fill="url(#gradient26)" fill-rule="evenodd" stroke="none"/>
      <path d="M110.45 58.7 L111.7 60.1 Q118.1 67.55 119.3 72.35 120.55 77.15 118.6 79.6 116.7 82.05 113.5 81.05 110.25 80.05 106.55 75.75 103.55 72.2 100.15 65.95 L98.55 62.9 Q95.8 57.5 95.25 54.45 L106.25 54.45 110.45 58.7" fill="url(#gradient27)" fill-rule="evenodd" stroke="none"/>
      <path d="M31.95 39.45 L10.55 39.45 Q10.55 33.15 9.0 27.65 6.95 20.3 17.0 15.75 21.6 13.6 23.9 12.9 27.1 11.85 30.25 11.8 L31.95 39.45" fill="url(#gradient28)" fill-rule="evenodd" stroke="none"/>
      <path d="M18.35 55.05 Q18.95 56.75 19.35 59.0 20.75 66.45 18.75 71.25 16.75 76.05 13.15 78.5 9.6 80.95 6.55 79.65 3.5 78.4 2.75 74.1 2.05 69.85 4.05 65.05 L8.6 54.45 18.05 54.45 18.35 55.05" fill="url(#gradient29)" fill-rule="evenodd" stroke="none"/>
      <path d="M99.65 39.65 Q94.95 39.65 91.65 35.95 88.35 32.3 88.35 27.1 88.35 21.9 91.65 18.2 94.95 14.55 99.65 14.55 104.3 14.55 107.65 18.2 110.95 21.9 110.95 27.1 110.95 32.3 107.65 35.95 104.3 39.65 99.65 39.65 M61.45 25.7 Q53.25 25.7 47.45 22.6 41.7 19.55 41.7 15.2 41.7 10.85 47.45 7.75 53.25 4.7 61.45 4.7 69.65 4.7 75.4 7.75 81.2 10.85 81.2 15.2 81.2 19.55 75.4 22.6 69.65 25.7 61.45 25.7 M32.3 27.6 Q32.3 32.8 29.0 36.45 25.65 40.15 21.0 40.15 16.3 40.15 13.0 36.45 9.7 32.8 9.7 27.6 9.7 22.4 13.0 18.7 16.3 15.05 21.0 15.05 25.65 15.05 29.0 18.7 32.3 22.4 32.3 27.6" fill="#c90303" fill-rule="evenodd" stroke="none"/>
      <path d="M59.95 30.7 Q66.25 30.7 70.7 35.15 75.2 39.65 75.2 45.95 75.2 52.25 70.7 56.7 66.25 61.2 59.95 61.2 53.65 61.2 49.15 56.7 44.7 52.25 44.7 45.95 44.7 39.65 49.15 35.15 53.65 30.7 59.95 30.7" fill="url(#gradient30)" fill-rule="evenodd" stroke="none"/>
      <path d="M53.8 38.3 Q56.45 35.7 60.2 35.7 63.95 35.7 66.55 38.3 69.2 40.95 69.2 44.7 69.2 48.45 66.55 51.05 63.95 53.7 60.2 53.7 56.45 53.7 53.8 51.05 51.2 48.45 51.2 44.7 51.2 40.95 53.8 38.3" fill="url(#gradient31)" fill-rule="evenodd" stroke="none"/>
      <path d="M53.8 38.3 Q56.45 35.7 60.2 35.7 63.95 35.7 66.55 38.3 69.2 40.95 69.2 44.7 69.2 48.45 66.55 51.05 63.95 53.7 60.2 53.7 56.45 53.7 53.8 51.05 51.2 48.45 51.2 44.7 51.2 40.95 53.8 38.3 Z" fill="none" stroke="#000000" stroke-linecap="round" stroke-linejoin="round" stroke-width="1.0"/>
      <path d="M66.85 16.45 Q68.15 16.45 69.0 17.3 69.95 18.2 69.95 19.45 69.95 20.7 69.0 21.55 68.15 22.45 66.85 22.45 L54.75 22.45 Q53.5 22.45 52.6 21.55 51.7 20.7 51.7 19.45 51.7 18.2 52.6 17.3 53.5 16.45 54.75 16.45 L66.85 16.45" fill="url(#gradient32)" fill-rule="evenodd" stroke="none"/>
      <path d="M66.85 8.2 Q68.15 8.2 69.0 9.05 69.95 9.95 69.95 11.2 69.95 12.45 69.0 13.3 68.15 14.2 66.85 14.2 L54.8 14.2 Q53.55 14.2 52.6 13.3 51.7 12.45 51.7 11.2 51.7 9.95 52.6 9.05 53.55 8.2 54.8 8.2 L66.85 8.2" fill="url(#gradient33)" fill-rule="evenodd" stroke="none"/>
      <path d="M66.85 16.45 L54.75 16.45 Q53.5 16.45 52.6 17.3 51.7 18.2 51.7 19.45 51.7 20.7 52.6 21.55 53.5 22.45 54.75 22.45 L66.85 22.45 Q68.15 22.45 69.0 21.55 69.95 20.7 69.95 19.45 69.95 18.2 69.0 17.3 68.15 16.45 66.85 16.45 M66.85 8.2 L54.8 8.2 Q53.55 8.2 52.6 9.05 51.7 9.95 51.7 11.2 51.7 12.45 52.6 13.3 53.55 14.2 54.8 14.2 L66.85 14.2 Q68.15 14.2 69.0 13.3 69.95 12.45 69.95 11.2 69.95 9.95 69.0 9.05 68.15 8.2 66.85 8.2 Z" fill="none" stroke="#000000" stroke-linecap="round" stroke-linejoin="round" stroke-width="1.0"/>
      <path d="M68.7 11.4 L68.7 11.45 Q68.7 12.15 68.05 12.6 67.45 13.2 66.6 13.2 L55.05 13.2 Q54.2 13.2 53.55 12.6 52.95 12.15 52.95 11.45 L52.95 11.4 Q52.95 10.7 53.55 10.15 54.2 9.7 55.05 9.7 L66.6 9.7 Q67.45 9.7 68.05 10.15 68.7 10.7 68.7 11.4" fill="url(#gradient34)" fill-rule="evenodd" stroke="none"/>
      <path d="M68.0 18.45 Q68.65 19.15 68.65 20.0 L68.65 20.05 Q68.65 20.9 68.0 21.5 67.4 22.2 66.55 22.2 L55.0 22.2 Q54.15 22.2 53.5 21.5 52.9 20.9 52.9 20.05 L52.9 20.0 Q52.9 19.15 53.5 18.45 54.15 17.9 55.0 17.9 L66.55 17.9 Q67.4 17.9 68.0 18.45" fill="url(#gradient35)" fill-rule="evenodd" stroke="none"/>
      <path d="M103.1 19.75 Q103.1 21.1 102.1 22.05 101.15 23.05 99.8 23.05 98.45 23.05 97.45 22.05 96.5 21.1 96.5 19.75 96.5 18.4 97.45 17.4 98.45 16.45 99.8 16.45 101.15 16.45 102.1 17.4 103.1 18.4 103.1 19.75" fill="url(#gradient36)" fill-rule="evenodd" stroke="none"/>
      <path d="M107.6 24.65 Q108.6 25.65 108.6 27.0 108.6 28.35 107.6 29.3 106.65 30.3 105.3 30.3 103.95 30.3 102.95 29.3 102.0 28.35 102.0 27.0 102.0 25.65 102.95 24.65 103.95 23.7 105.3 23.7 106.65 23.7 107.6 24.65" fill="url(#gradient37)" fill-rule="evenodd" stroke="none"/>
      <path d="M94.55 23.7 Q95.9 23.7 96.85 24.65 97.85 25.65 97.85 27.0 97.85 28.35 96.85 29.3 95.9 30.3 94.55 30.3 93.2 30.3 92.2 29.3 91.25 28.35 91.25 27.0 91.25 25.65 92.2 24.65 93.2 23.7 94.55 23.7" fill="url(#gradient38)" fill-rule="evenodd" stroke="none"/>
      <path d="M97.45 36.8 Q96.5 35.85 96.5 34.5 96.5 33.15 97.45 32.15 98.45 31.2 99.8 31.2 101.15 31.2 102.1 32.15 103.1 33.15 103.1 34.5 103.1 35.85 102.1 36.8 101.15 37.8 99.8 37.8 98.45 37.8 97.45 36.8" fill="url(#gradient39)" fill-rule="evenodd" stroke="none"/>
      <path d="M24.45 20.0 Q24.45 21.35 23.45 22.3 22.5 23.3 21.15 23.3 19.8 23.3 18.8 22.3 17.85 21.35 17.85 20.0 17.85 18.65 18.8 17.65 19.8 16.7 21.15 16.7 22.5 16.7 23.45 17.65 24.45 18.65 24.45 20.0" fill="url(#gradient40)" fill-rule="evenodd" stroke="none"/>
      <path d="M18.8 32.4 Q19.8 31.45 21.15 31.45 22.5 31.45 23.45 32.4 24.45 33.4 24.45 34.75 24.45 36.1 23.45 37.05 22.5 38.05 21.15 38.05 19.8 38.05 18.8 37.05 17.85 36.1 17.85 34.75 17.85 33.4 18.8 32.4" fill="url(#gradient41)" fill-rule="evenodd" stroke="none"/>
      <path d="M13.55 24.9 Q14.55 23.95 15.9 23.95 17.25 23.95 18.2 24.9 19.2 25.9 19.2 27.25 19.2 28.6 18.2 29.55 17.25 30.55 15.9 30.55 14.55 30.55 13.55 29.55 12.6 28.6 12.6 27.25 12.6 25.9 13.55 24.9" fill="url(#gradient42)" fill-rule="evenodd" stroke="none"/>
      <path d="M26.65 30.55 Q25.3 30.55 24.3 29.55 23.35 28.6 23.35 27.25 23.35 25.9 24.3 24.9 25.3 23.95 26.65 23.95 28.0 23.95 28.95 24.9 29.95 25.9 29.95 27.25 29.95 28.6 28.95 29.55 28.0 30.55 26.65 30.55" fill="url(#gradient43)" fill-rule="evenodd" stroke="none"/>
      <path d="M107.6 24.65 Q108.6 25.65 108.6 27.0 108.6 28.35 107.6 29.3 106.65 30.3 105.3 30.3 103.95 30.3 102.95 29.3 102.0 28.35 102.0 27.0 102.0 25.65 102.95 24.65 103.95 23.7 105.3 23.7 106.65 23.7 107.6 24.65 M103.1 19.75 Q103.1 21.1 102.1 22.05 101.15 23.05 99.8 23.05 98.45 23.05 97.45 22.05 96.5 21.1 96.5 19.75 96.5 18.4 97.45 17.4 98.45 16.45 99.8 16.45 101.15 16.45 102.1 17.4 103.1 18.4 103.1 19.75 M94.55 23.7 Q95.9 23.7 96.85 24.65 97.85 25.65 97.85 27.0 97.85 28.35 96.85 29.3 95.9 30.3 94.55 30.3 93.2 30.3 92.2 29.3 91.25 28.35 91.25 27.0 91.25 25.65 92.2 24.65 93.2 23.7 94.55 23.7 M97.45 36.8 Q96.5 35.85 96.5 34.5 96.5 33.15 97.45 32.15 98.45 31.2 99.8 31.2 101.15 31.2 102.1 32.15 103.1 33.15 103.1 34.5 103.1 35.85 102.1 36.8 101.15 37.8 99.8 37.8 98.45 37.8 97.45 36.8 M24.45 20.0 Q24.45 21.35 23.45 22.3 22.5 23.3 21.15 23.3 19.8 23.3 18.8 22.3 17.85 21.35 17.85 20.0 17.85 18.65 18.8 17.65 19.8 16.7 21.15 16.7 22.5 16.7 23.45 17.65 24.45 18.65 24.45 20.0 M18.8 32.4 Q19.8 31.45 21.15 31.45 22.5 31.45 23.45 32.4 24.45 33.4 24.45 34.75 24.45 36.1 23.45 37.05 22.5 38.05 21.15 38.05 19.8 38.05 18.8 37.05 17.85 36.1 17.85 34.75 17.85 33.4 18.8 32.4 M13.55 24.9 Q14.55 23.95 15.9 23.95 17.25 23.95 18.2 24.9 19.2 25.9 19.2 27.25 19.2 28.6 18.2 29.55 17.25 30.55 15.9 30.55 14.55 30.55 13.55 29.55 12.6 28.6 12.6 27.25 12.6 25.9 13.55 24.9 M26.65 30.55 Q25.3 30.55 24.3 29.55 23.35 28.6 23.35 27.25 23.35 25.9 24.3 24.9 25.3 23.95 26.65 23.95 28.0 23.95 28.95 24.9 29.95 25.9 29.95 27.25 29.95 28.6 28.95 29.55 28.0 30.55 26.65 30.55 Z" fill="none" stroke="#000000" stroke-linecap="round" stroke-linejoin="round" stroke-width="1.0"/>
    </g>
    <radialGradient cx="0" cy="0" gradientTransform="matrix(0.1232, 0.0, 0.0, 0.1232, -53.5, 7.25)" gradientUnits="userSpaceOnUse" id="gradient22" r="819.2" spreadMethod="pad">
      <stop offset="0.8549019607843137" stop-color="#000000" stop-opacity="0.0"/>
      <stop offset="0.9647058823529412" stop-color="#000000" stop-opacity="0.29803923"/>
    </radialGradient>
    <radialGradient cx="0" cy="0" gradientTransform="matrix(0.0803, 0.0, 0.0, 0.0803, 36.75, 9.5)" gradientUnits="userSpaceOnUse" id="gradient23" r="819.2" spreadMethod="pad">
      <stop offset="0.8549019607843137" stop-color="#000000" stop-opacity="0.0"/>
      <stop offset="0.9647058823529412" stop-color="#000000" stop-opacity="0.29803923"/>
    </radialGradient>
    <radialGradient cx="0" cy="0" gradientTransform="matrix(0.0892, 0.0, 0.0, 0.0892, 49.0, 76.5)" gradientUnits="userSpaceOnUse" id="gradient24" r="819.2" spreadMethod="pad">
      <stop offset="0.8549019607843137" stop-color="#000000" stop-opacity="0.0"/>
      <stop offset="0.9647058823529412" stop-color="#000000" stop-opacity="0.29803923"/>
    </radialGradient>
    <radialGradient cx="0" cy="0" gradientTransform="matrix(0.1025, 0.0, 0.0, 0.1025, 32.75, 33.25)" gradientUnits="userSpaceOnUse" id="gradient25" r="819.2" spreadMethod="pad">
      <stop offset="0.8549019607843137" stop-color="#000000" stop-opacity="0.0"/>
      <stop offset="0.9647058823529412" stop-color="#000000" stop-opacity="0.29803923"/>
    </radialGradient>
    <radialGradient cx="0" cy="0" gradientTransform="matrix(0.1137, 0.0, 0.0, 0.1137, 66.0, 95.75)" gradientUnits="userSpaceOnUse" id="gradient26" r="819.2" spreadMethod="pad">
      <stop offset="0.8549019607843137" stop-color="#ffffff" stop-opacity="0.0"/>
      <stop offset="1.0" stop-color="#ffffff" stop-opacity="0.4"/>
    </radialGradient>
    <linearGradient gradientTransform="matrix(0.0097, -0.0031, 0.016, 0.017, 106.85, 65.9)" gradientUnits="userSpaceOnUse" id="gradient27" spreadMethod="pad" x1="-819.2" x2="819.2">
      <stop offset="0.0" stop-color="#ffffff" stop-opacity="0.49803922"/>
      <stop offset="0.44313725490196076" stop-color="#ffffff" stop-opacity="0.0"/>
    </linearGradient>
    <radialGradient cx="0" cy="0" gradientTransform="matrix(0.0752, 0.0, 0.0, 0.0752, 42.5, 71.75)" gradientUnits="userSpaceOnUse" id="gradient28" r="819.2" spreadMethod="pad">
      <stop offset="0.8352941176470589" stop-color="#ffffff" stop-opacity="0.0"/>
      <stop offset="1.0" stop-color="#ffffff" stop-opacity="0.4"/>
    </radialGradient>
    <linearGradient gradientTransform="matrix(0.0106, 0.0, 0.0, 0.0157, 11.25, 67.25)" gradientUnits="userSpaceOnUse" id="gradient29" spreadMethod="pad" x1="-819.2" x2="819.2">
      <stop offset="0.0" stop-color="#ffffff" stop-opacity="0.49803922"/>
      <stop offset="0.44313725490196076" stop-color="#ffffff" stop-opacity="0.0"/>
    </linearGradient>
    <radialGradient cx="0" cy="0" gradientTransform="matrix(0.0187, 0.0, 0.0, 0.0187, 59.95, 45.95)" gradientUnits="userSpaceOnUse" id="gradient30" r="819.2" spreadMethod="pad">
      <stop offset="0.5568627450980392" stop-color="#f13838"/>
      <stop offset="1.0" stop-color="#5c0101"/>
    </radialGradient>
    <radialGradient cx="0" cy="0" gradientTransform="matrix(0.0137, 0.0, 0.0, 0.0137, 60.0, 42.5)" gradientUnits="userSpaceOnUse" id="gradient31" r="819.2" spreadMethod="pad">
      <stop offset="0.1411764705882353" stop-color="#fde1d7"/>
      <stop offset="0.7098039215686275" stop-color="#cc0000"/>
      <stop offset="0.9176470588235294" stop-color="#430101"/>
    </radialGradient>
    <linearGradient gradientTransform="matrix(0.0, 0.0037, -0.0111, 0.0, 60.85, 19.45)" gradientUnits="userSpaceOnUse" id="gradient32" spreadMethod="pad" x1="-819.2" x2="819.2">
      <stop offset="0.4392156862745098" stop-color="#10bd0f"/>
      <stop offset="1.0" stop-color="#000000"/>
    </linearGradient>
    <linearGradient gradientTransform="matrix(0.0, 0.0037, -0.0111, 0.0, 60.85, 11.2)" gradientUnits="userSpaceOnUse" id="gradient33" spreadMethod="pad" x1="-819.2" x2="819.2">
      <stop offset="0.4392156862745098" stop-color="#10bd0f"/>
      <stop offset="1.0" stop-color="#000000"/>
    </linearGradient>
    <linearGradient gradientTransform="matrix(0.0, 0.0021, -0.0096, 0.0, 60.85, 11.4)" gradientUnits="userSpaceOnUse" id="gradient34" spreadMethod="pad" x1="-819.2" x2="819.2">
      <stop offset="0.0" stop-color="#f2ffee"/>
      <stop offset="1.0" stop-color="#ffffff" stop-opacity="0.0"/>
    </linearGradient>
    <linearGradient gradientTransform="matrix(0.0, 0.0026, -0.0096, 0.0, 60.8, 20.0)" gradientUnits="userSpaceOnUse" id="gradient35" spreadMethod="pad" x1="-819.2" x2="819.2">
      <stop offset="0.0" stop-color="#f2ffee"/>
      <stop offset="1.0" stop-color="#ffffff" stop-opacity="0.0"/>
    </linearGradient>
    <radialGradient cx="0" cy="0" gradientTransform="matrix(0.0052, 0.0, 0.0, 0.0052, 100.05, 18.75)" gradientUnits="userSpaceOnUse" id="gradient36" r="819.2" spreadMethod="pad">
      <stop offset="0.16470588235294117" stop-color="#ffffff"/>
      <stop offset="0.19607843137254902" stop-color="#c4c4c4"/>
      <stop offset="1.0" stop-color="#111111"/>
    </radialGradient>
    <radialGradient cx="0" cy="0" gradientTransform="matrix(0.0052, 0.0, 0.0, 0.0052, 105.55, 26.0)" gradientUnits="userSpaceOnUse" id="gradient37" r="819.2" spreadMethod="pad">
      <stop offset="0.16470588235294117" stop-color="#ffffff"/>
      <stop offset="0.19607843137254902" stop-color="#c4c4c4"/>
      <stop offset="1.0" stop-color="#111111"/>
    </radialGradient>
    <radialGradient cx="0" cy="0" gradientTransform="matrix(0.0052, 0.0, 0.0, 0.0052, 94.8, 26.0)" gradientUnits="userSpaceOnUse" id="gradient38" r="819.2" spreadMethod="pad">
      <stop offset="0.16470588235294117" stop-color="#ffffff"/>
      <stop offset="0.19607843137254902" stop-color="#c4c4c4"/>
      <stop offset="1.0" stop-color="#111111"/>
    </radialGradient>
    <radialGradient cx="0" cy="0" gradientTransform="matrix(0.0052, 0.0, 0.0, 0.0052, 100.05, 33.5)" gradientUnits="userSpaceOnUse" id="gradient39" r="819.2" spreadMethod="pad">
      <stop offset="0.16470588235294117" stop-color="#ffffff"/>
      <stop offset="0.19607843137254902" stop-color="#c4c4c4"/>
      <stop offset="1.0" stop-color="#111111"/>
    </radialGradient>
    <radialGradient cx="0" cy="0" gradientTransform="matrix(0.0052, 0.0, 0.0, 0.0052, 21.4, 19.0)" gradientUnits="userSpaceOnUse" id="gradient40" r="819.2" spreadMethod="pad">
      <stop offset="0.16470588235294117" stop-color="#ffffff"/>
      <stop offset="0.19607843137254902" stop-color="#c4c4c4"/>
      <stop offset="1.0" stop-color="#111111"/>
    </radialGradient>
    <radialGradient cx="0" cy="0" gradientTransform="matrix(0.0052, 0.0, 0.0, 0.0052, 21.4, 33.75)" gradientUnits="userSpaceOnUse" id="gradient41" r="819.2" spreadMethod="pad">
      <stop offset="0.16470588235294117" stop-color="#ffffff"/>
      <stop offset="0.19607843137254902" stop-color="#c4c4c4"/>
      <stop offset="1.0" stop-color="#111111"/>
    </radialGradient>
    <radialGradient cx="0" cy="0" gradientTransform="matrix(0.0052, 0.0, 0.0, 0.0052, 16.15, 26.25)" gradientUnits="userSpaceOnUse" id="gradient42" r="819.2" spreadMethod="pad">
      <stop offset="0.16470588235294117" stop-color="#ffffff"/>
      <stop offset="0.19607843137254902" stop-color="#c4c4c4"/>
      <stop offset="1.0" stop-color="#111111"/>
    </radialGradient>
    <radialGradient cx="0" cy="0" gradientTransform="matrix(0.0052, 0.0, 0.0, 0.0052, 26.9, 26.25)" gradientUnits="userSpaceOnUse" id="gradient43" r="819.2" spreadMethod="pad">
      <stop offset="0.16470588235294117" stop-color="#ffffff"/>
      <stop offset="0.19607843137254902" stop-color="#c4c4c4"/>
      <stop offset="1.0" stop-color="#111111"/>
    </radialGradient>
    <g id="text1" transform="matrix(1.0, 0.0, 0.0, 1.0, 14.95, -2.0)">
      <g transform="matrix(1.0, 0.0, 0.0, 1.0, -15.6, 0.0)">
        <use fill="#f7cf73" height="15.9" transform="matrix(0.0166, 0.0, 0.0, 0.0166, 0.0, 16.0)" width="90.65" xlink:href="#font_Lithos_Pro_Regular_S0"/>
        <use fill="#f7cf73" height="15.9" transform="matrix(0.0166, 0.0, 0.0, 0.0166, 9.3, 16.0)" width="90.65" xlink:href="#font_Lithos_Pro_Regular_p0"/>
        <use fill="#f7cf73" height="15.9" transform="matrix(0.0166, 0.0, 0.0, 0.0166, 20.65, 16.0)" width="90.65" xlink:href="#font_Lithos_Pro_Regular_o0"/>
        <use fill="#f7cf73" height="15.9" transform="matrix(0.0166, 0.0, 0.0, 0.0166, 34.65, 16.0)" width="90.65" xlink:href="#font_Lithos_Pro_Regular_n0"/>
        <use fill="#f7cf73" height="15.9" transform="matrix(0.0166, 0.0, 0.0, 0.0166, 48.2, 16.0)" width="90.65" xlink:href="#font_Lithos_Pro_Regular_s0"/>
        <use fill="#f7cf73" height="15.9" transform="matrix(0.0166, 0.0, 0.0, 0.0166, 56.85, 16.0)" width="90.65" xlink:href="#font_Lithos_Pro_Regular_o0"/>
        <use fill="#f7cf73" height="15.9" transform="matrix(0.0166, 0.0, 0.0, 0.0166, 70.75, 16.0)" width="90.65" xlink:href="#font_Lithos_Pro_Regular_r0"/>
      </g>
    </g>
    <g id="font_Lithos_Pro_Regular_S0">
      <path d="M95.5 18.5 L95.5 18.5 67.5 -156.5 Q118.5 -155.0 165.5 -163.5 213.0 -171.5 244.0 -188.5 274.5 -205.0 275.5 -229.5 276.0 -239.0 268.0 -248.5 260.0 -258.0 238.0 -272.0 216.0 -286.0 175.0 -309.0 142.0 -327.5 110.0 -351.5 78.5 -376.0 57.5 -408.0 36.5 -440.5 35.5 -483.5 36.0 -541.5 84.5 -597.5 133.5 -653.0 225.5 -693.0 317.5 -733.0 447.5 -745.5 L475.0 -574.5 Q379.0 -574.5 330.5 -558.5 282.5 -542.5 282.5 -511.0 282.5 -493.5 307.0 -477.5 332.0 -462.0 382.0 -438.5 410.5 -425.0 443.0 -404.0 476.0 -383.0 499.5 -351.0 523.5 -319.0 524.5 -273.5 524.5 -230.5 501.0 -185.5 477.5 -140.0 426.5 -98.5 375.5 -57.5 294.0 -26.5 212.0 4.5 95.5 18.5" fill-rule="evenodd" stroke="none"/>
    </g>
    <g id="font_Lithos_Pro_Regular_p0">
      <path d="M311.5 -491.5 L311.5 -278.5 Q337.5 -279.5 364.5 -293.5 392.0 -307.0 411.0 -334.0 430.0 -360.5 431.0 -400.5 432.5 -437.5 406.0 -461.5 380.0 -485.5 311.5 -491.5 M312.5 0.0 L93.5 0.0 Q93.5 -15.5 94.0 -55.5 94.0 -95.5 94.5 -145.5 95.0 -195.0 95.0 -240.0 95.5 -284.5 95.5 -309.5 L95.5 -404.5 Q95.5 -411.5 95.5 -433.5 95.0 -455.5 95.0 -485.0 94.5 -514.5 94.0 -543.5 94.0 -572.5 93.5 -593.0 93.5 -614.0 93.5 -618.5 192.0 -618.5 264.0 -616.5 336.0 -615.0 388.0 -610.0 440.0 -605.0 478.0 -596.0 525.5 -585.5 565.0 -564.0 604.5 -542.5 628.5 -508.0 652.5 -474.0 653.0 -425.0 653.0 -363.5 613.5 -307.0 574.5 -250.5 498.5 -208.5 422.5 -166.5 311.5 -149.5 L311.5 -127.0 Q311.5 -120.0 311.5 -102.5 311.5 -85.0 311.5 -64.0 311.5 -43.0 312.0 -25.0 312.0 -7.5 312.5 0.0" fill-rule="evenodd" stroke="none"/>
    </g>
  </defs>
</svg>
