<?xml version="1.0" encoding="UTF-8" standalone="no"?>
<svg xmlns:ffdec="https://www.free-decompiler.com/flash" xmlns:xlink="http://www.w3.org/1999/xlink" ffdec:objectType="frame" height="185.7px" width="173.55px" xmlns="http://www.w3.org/2000/svg">
  <g transform="matrix(1.0, 0.0, 0.0, 1.0, 50.05, 152.85)">
    <filter id="filter0">
      <feOffset dx="3.5355799791601" dy="3.535487832104965" in="SourceGraphic" result="filterResult0"/>
      <feColorMatrix in="filterResult0" result="filterResult1" type="matrix" values="0 0 0 0 0.0,0 0 0 0 0.0,0 0 0 0 0.0,0 0 0 1 0"/>
      <feColorMatrix in="filterResult1" result="filterResult2" type="matrix" values="1 0 0 0 0,0 1 0 0 0,0 0 1 0 0,0 0 0 0.296875 0"/>
    </filter>
    <use ffdec:characterId="363" filter="url(#filter0)" height="174.1" id="shadowMC" transform="matrix(1.0, 0.0, 0.0, -0.3, -50.05, 32.8531)" width="169.3" xlink:href="#sprite0"/>
    <use ffdec:characterId="343" height="35.25" transform="matrix(1.0, 0.0, 0.0, 1.0, -22.3, -36.65)" width="32.95" xlink:href="#shape7"/>
    <use ffdec:characterId="202" height="88.5" transform="matrix(-0.7383, -0.0963, 0.1292, -0.9904, -18.9654, -34.202)" width="27.5" xlink:href="#shape8"/>
    <use ffdec:characterId="202" height="88.5" transform="matrix(-0.7383, -0.0963, 0.1292, -0.9904, -10.8654, -42.802)" width="27.5" xlink:href="#shape1"/>
    <use ffdec:characterId="202" height="88.5" transform="matrix(-0.7383, -0.0963, 0.1292, -0.9904, -5.9154, -34.152)" width="27.5" xlink:href="#shape1"/>
    <use ffdec:characterId="348" height="89.55" transform="matrix(1.0, 0.0, 0.0, 1.0, -40.65, -95.0)" width="92.05" xlink:href="#shape2"/>
    <use ffdec:characterId="204" height="71.65" transform="matrix(0.9933, 0.1089, -0.1089, 0.9933, -22.8754, -148.3994)" width="69.5" xlink:href="#shape3"/>
    <use ffdec:characterId="349" height="117.95" transform="matrix(0.6877, 0.7221, -0.7221, 0.6877, 68.4366, -92.6756)" width="25.6" xlink:href="#shape4"/>
    <use ffdec:characterId="202" height="88.5" transform="matrix(-0.5713, 0.5764, -0.6395, -0.6338, 92.1515, -15.6799)" width="27.5" xlink:href="#shape1"/>
    <use ffdec:characterId="298" height="51.75" transform="matrix(0.7503, -0.6582, 0.6582, 0.7503, -22.9905, -70.3421)" width="32.7" xlink:href="#shape5"/>
    <use ffdec:characterId="367" height="54.85" transform="matrix(1.0, 0.0, 0.0, 1.0, 45.8, -50.35)" width="56.15" xlink:href="#shape9"/>
  </g>
  <defs>
    <g id="sprite0" transform="matrix(1.0, 0.0, 0.0, 1.0, 45.8, 152.85)">
      <use ffdec:characterId="201" height="34.0" transform="matrix(1.0, 0.0, 0.0, 1.0, -24.7, -36.1)" width="46.45" xlink:href="#shape0"/>
      <use ffdec:characterId="202" height="88.5" transform="matrix(-0.7383, -0.0963, 0.1292, -0.9904, -18.2654, -31.552)" width="27.5" xlink:href="#shape1"/>
      <use ffdec:characterId="202" height="88.5" transform="matrix(-0.7383, -0.0963, 0.1292, -0.9904, -10.1654, -40.152)" width="27.5" xlink:href="#shape1"/>
      <use ffdec:characterId="202" height="88.5" transform="matrix(-0.7383, -0.0963, 0.1292, -0.9904, -5.2154, -31.502)" width="27.5" xlink:href="#shape1"/>
      <use ffdec:characterId="348" height="89.55" transform="matrix(1.0, 0.0, 0.0, 1.0, -39.95, -92.35)" width="92.05" xlink:href="#shape2"/>
      <use ffdec:characterId="204" height="71.65" transform="matrix(0.991, 0.1308, -0.1308, 0.991, -21.6928, -147.6001)" width="69.5" xlink:href="#shape3"/>
      <use ffdec:characterId="349" height="117.95" transform="matrix(0.6719, 0.7379, -0.7379, 0.6719, 72.7257, -90.4752)" width="25.6" xlink:href="#shape4"/>
      <use ffdec:characterId="202" height="88.5" transform="matrix(-0.5846, 0.5639, -0.6256, -0.6485, 94.7223, -12.9076)" width="27.5" xlink:href="#shape1"/>
      <use ffdec:characterId="298" height="51.75" transform="matrix(0.7655, -0.6418, 0.6418, 0.7655, -19.2576, -70.2026)" width="32.7" xlink:href="#shape5"/>
      <use ffdec:characterId="350" height="54.85" transform="matrix(1.0, 0.0, 0.0, 1.0, 48.5, -43.45)" width="58.9" xlink:href="#shape6"/>
    </g>
    <g id="shape0" transform="matrix(1.0, 0.0, 0.0, 1.0, 29.45, 30.75)">
      <path d="M9.0 -1.05 L5.85 -1.1 4.45 -1.1 4.5 -15.45 11.75 -16.5 12.45 -16.6 12.5 -14.45 Q12.55 -13.2 12.95 -11.05 L13.5 -7.7 13.6 -5.2 Q11.5 -5.55 10.65 -4.2 L9.0 -1.4 9.0 -1.05 M-24.4 -1.9 Q-27.7 -5.3 -27.05 -9.25 L-26.75 -11.15 Q-23.95 -10.75 -18.35 -12.85 -13.25 -14.75 -12.4 -15.5 L-12.3 -15.4 -10.45 -13.35 Q-9.0 -11.9 -7.65 -11.35 L-9.6 -10.0 Q-10.1 -9.5 -11.9 -8.3 L-14.2 -6.7 Q-14.7 -6.2 -16.05 -5.45 -17.55 -4.75 -18.0 -4.3 L-18.55 -3.65 Q-19.8 -4.7 -21.7 -4.1 L-23.9 -2.7 -24.35 -1.95 -24.4 -1.9 M10.5 -1.05 L13.2 -2.85 14.0 -0.95 10.5 -1.05 M-24.15 -1.65 L-24.15 -1.85 -21.65 -1.55 -20.0 -1.9 Q-19.95 -1.05 -20.2 0.4 L-20.4 0.9 Q-23.2 -0.7 -24.15 -1.65" fill="#372c22" fill-rule="evenodd" stroke="none"/>
      <path d="M12.95 -26.5 Q12.9 -23.45 13.5 -20.7 13.9 -18.95 14.5 -17.65 14.4 -14.35 15.15 -10.65 16.0 -6.45 16.0 -4.15 L16.0 -2.5 16.2 -2.15 Q17.0 -0.8 17.0 0.1 L16.85 1.0 14.95 1.1 -1.0 1.75 Q-1.45 0.85 -2.25 0.25 L-2.1 0.1 -2.3 -0.65 -2.5 -2.2 Q-2.5 -7.45 -1.75 -12.35 L-2.0 -12.1 Q-3.15 -10.95 -10.25 -6.35 L-13.55 -3.65 Q-15.4 -2.4 -17.55 -2.05 -17.3 -0.3 -18.75 3.05 -19.45 3.55 -20.45 2.85 L-20.45 2.65 Q-22.7 1.9 -26.2 -0.7 -29.15 -3.65 -29.45 -8.95 -29.6 -12.5 -28.75 -14.35 L-28.7 -15.0 -28.6 -15.4 -28.85 -15.65 -28.6 -15.7 -28.15 -17.65 -26.9 -18.3 -26.3 -18.3 -24.75 -18.95 -22.7 -19.4 Q-19.2 -20.1 -17.0 -22.3 L-15.95 -22.65 Q-12.55 -25.45 -9.55 -26.65 -3.2 -29.1 1.3 -24.6 L1.55 -24.35 Q3.4 -28.25 5.9 -29.95 8.6 -31.75 10.8 -29.6 L12.95 -26.5 M9.0 -1.4 L10.65 -4.2 Q11.5 -5.55 13.6 -5.2 L13.5 -7.7 12.95 -11.05 Q12.55 -13.2 12.5 -14.45 L12.45 -16.6 11.75 -16.5 4.5 -15.45 4.45 -1.1 5.85 -1.1 9.0 -1.05 9.05 -1.05 9.35 -1.05 9.0 -1.4 M10.5 -1.05 L14.0 -0.95 13.2 -2.85 10.5 -1.05 M-12.4 -15.5 Q-13.25 -14.75 -18.35 -12.85 -23.95 -10.75 -26.75 -11.15 L-27.05 -9.25 Q-27.7 -5.3 -24.4 -1.9 L-24.15 -1.65 Q-23.2 -0.7 -20.4 0.9 -20.35 0.85 -20.25 0.95 L-20.2 0.4 Q-19.95 -1.05 -20.0 -1.9 L-21.65 -1.55 -24.15 -1.85 Q-24.25 -1.85 -24.35 -1.95 L-23.9 -2.7 -21.7 -4.1 Q-19.8 -4.7 -18.55 -3.65 L-18.0 -4.3 Q-17.55 -4.75 -16.05 -5.45 -14.7 -6.2 -14.2 -6.7 L-11.9 -8.3 Q-10.1 -9.5 -9.6 -10.0 L-7.65 -11.35 Q-9.0 -11.9 -10.45 -13.35 L-12.3 -15.4 -12.35 -15.55 -12.4 -15.5" fill="#000000" fill-rule="evenodd" stroke="none"/>
      <path d="M9.0 -1.05 L9.0 -1.4 9.05 -1.05 9.0 -1.05" fill="#5b6171" fill-rule="evenodd" stroke="none"/>
    </g>
    <g id="shape1" transform="matrix(1.0, 0.0, 0.0, 1.0, 13.75, 44.25)">
      <path d="M-3.2 -19.55 L-3.2 -19.6 -3.25 -23.1 -3.1 -26.95 Q-2.6 -29.85 -0.75 -30.25 3.5 -30.5 3.95 -27.2 L4.25 -22.2 4.25 -19.0 7.75 -18.45 Q7.25 -22.15 4.7 -28.55 L0.3 -39.25 Q-2.05 -35.85 -4.35 -29.4 L-7.7 -19.0 -4.25 -19.25 -3.2 -19.15 -3.15 -19.15 -3.2 -19.55 M1.45 -27.75 L1.25 -28.2 Q-1.95 -26.7 -1.7 -23.4 L-1.25 -20.45 -1.1 -18.75 2.45 -18.75 2.55 -18.85 1.95 -21.9 Q1.55 -24.75 1.75 -27.5 L1.45 -27.75 M5.45 -32.3 Q10.25 -20.5 10.25 -17.85 L10.0 -16.25 Q9.65 -15.75 8.5 -15.75 6.95 -15.75 5.35 -16.75 L4.25 -17.4 4.25 -17.25 3.6 -16.9 3.85 -13.65 3.75 -7.75 3.8 -1.2 3.75 3.5 3.7 13.05 Q6.45 13.4 9.8 16.55 13.25 19.8 13.25 20.9 L13.25 21.35 13.6 22.3 13.75 25.65 13.45 32.75 12.75 43.75 11.75 44.25 11.6 44.15 11.0 44.25 6.05 39.25 2.1 35.05 1.75 35.25 -1.95 35.25 -2.1 35.1 -2.1 35.05 -3.65 36.1 -6.7 38.0 Q-9.9 41.4 -11.75 42.75 -13.15 42.0 -13.55 39.05 L-13.75 34.15 Q-13.25 26.3 -13.25 22.55 -13.9 19.85 -10.6 16.95 -7.4 14.1 -2.85 13.35 L-2.75 4.75 -2.8 -1.45 -2.75 -7.7 -2.9 -13.9 -2.7 -16.75 -2.95 -16.75 -3.1 -16.9 -3.25 -17.55 -5.05 -17.1 -7.0 -16.75 Q-9.3 -16.75 -9.75 -17.85 L-9.75 -19.15 Q-9.75 -22.95 -4.9 -33.75 -1.05 -42.3 0.25 -44.25 1.15 -42.8 5.45 -32.3 M1.85 -16.75 L-0.85 -16.75 -0.65 -13.65 -0.75 -7.75 Q-0.65 -5.45 -0.7 -1.2 L-0.75 3.5 -0.85 15.2 Q-1.0 26.05 -1.35 32.5 L-0.55 32.6 0.2 32.9 0.9 32.75 1.45 32.7 1.3 31.9 1.25 29.4 1.75 4.75 1.7 -1.45 Q1.65 -5.2 1.75 -7.7 L1.6 -13.9 Q1.6 -15.55 1.85 -16.75 M3.85 14.9 L3.65 14.75 3.65 15.2 3.1 32.95 3.25 33.5 Q5.0 34.45 7.05 36.85 L10.75 41.25 10.75 40.15 11.25 21.8 11.25 21.7 8.35 19.05 3.85 14.9 M-11.6 39.2 Q-10.2 37.15 -7.4 35.5 L-2.95 33.1 -3.2 31.9 -3.25 29.4 -2.85 14.85 -5.8 16.35 Q-9.95 18.45 -10.45 21.05 L-10.85 25.4 Q-11.05 28.05 -11.75 29.3 L-11.75 39.05 -11.7 39.3 -11.6 39.2" fill="#000000" fill-rule="evenodd" stroke="none"/>
      <path d="M-3.2 -19.15 L-4.25 -19.25 -7.7 -19.0 -4.35 -29.4 Q-2.05 -35.85 0.3 -39.25 L4.7 -28.55 Q7.25 -22.15 7.75 -18.45 L4.25 -19.0 4.25 -22.2 3.95 -27.2 Q3.5 -30.5 -0.75 -30.25 -2.6 -29.85 -3.1 -26.95 L-3.25 -23.1 -3.2 -19.6 -3.2 -19.55 -3.2 -19.15 M1.45 -27.75 L1.75 -27.5 Q1.55 -24.75 1.95 -21.9 L2.55 -18.85 2.45 -18.75 -1.1 -18.75 -1.25 -20.45 -1.7 -23.4 Q-1.95 -26.7 1.25 -28.2 L1.45 -27.75" fill="#60606c" fill-rule="evenodd" stroke="none"/>
      <path d="M1.85 -16.75 Q1.6 -15.55 1.6 -13.9 L1.75 -7.7 Q1.65 -5.2 1.7 -1.45 L1.75 4.75 1.25 29.4 1.3 31.9 1.45 32.7 0.9 32.75 0.2 32.9 -0.55 32.6 -1.35 32.5 Q-1.0 26.05 -0.85 15.2 L-0.75 3.5 -0.7 -1.2 Q-0.65 -5.45 -0.75 -7.75 L-0.65 -13.65 -0.85 -16.75 1.85 -16.75" fill="#14100c" fill-rule="evenodd" stroke="none"/>
      <path d="M3.65 15.2 L3.85 14.9 8.35 19.05 11.25 21.7 11.25 21.8 10.75 40.15 10.75 41.25 7.05 36.85 Q5.0 34.45 3.25 33.5 L3.1 32.95 3.65 15.2 M-11.75 39.05 L-11.75 29.3 Q-11.05 28.05 -10.85 25.4 L-10.45 21.05 Q-9.95 18.45 -5.8 16.35 L-2.85 14.85 -3.25 29.4 -3.2 31.9 -2.95 33.1 -7.4 35.5 Q-10.2 37.15 -11.6 39.2 L-11.75 39.05" fill="#942403" fill-rule="evenodd" stroke="none"/>
    </g>
    <g id="shape2" transform="matrix(1.0, 0.0, 0.0, 1.0, 46.0, 38.05)">
      <path d="M6.45 -25.95 L7.35 -25.75 9.85 -24.45 15.25 -21.35 Q16.2 -21.75 17.85 -20.4 L21.05 -16.95 Q21.6 -15.1 25.55 -9.9 L29.8 -3.15 32.75 2.6 33.4 3.2 33.75 3.25 Q34.0 3.35 34.05 3.95 L35.7 6.3 39.05 12.05 42.7 16.9 Q46.05 21.4 46.05 22.65 46.05 23.8 45.85 23.65 46.25 24.05 45.05 24.05 L43.45 25.85 42.35 27.3 Q39.35 31.05 36.55 31.05 L36.35 31.05 34.8 31.55 34.65 31.5 34.05 31.55 33.7 31.4 Q32.75 30.7 30.3 27.5 27.4 23.6 26.55 21.85 L24.05 17.45 Q22.7 14.95 22.3 13.65 19.25 15.55 18.05 15.55 L16.35 15.3 Q16.15 15.6 16.1 15.0 14.5 14.5 12.55 10.8 L11.45 8.6 11.3 10.15 11.1 13.45 Q12.75 13.35 13.75 14.85 15.15 18.15 15.95 19.1 L19.0 22.7 19.85 23.5 21.75 26.5 23.3 29.9 24.5 32.4 24.5 33.15 24.35 33.55 24.35 33.8 23.9 34.0 Q23.5 34.75 21.55 35.65 L21.55 35.75 22.5 38.3 23.75 41.75 Q24.5 43.85 24.5 44.65 L24.35 45.6 24.1 45.75 Q24.65 45.95 23.9 46.0 23.2 47.3 19.0 48.8 L18.55 49.0 18.0 49.0 Q16.55 49.2 15.4 50.2 L15.1 49.95 Q8.25 51.5 -2.5 51.5 L-19.5 50.7 Q-24.95 49.9 -28.85 48.0 L-30.0 48.0 Q-32.15 48.0 -33.5 46.5 -34.5 45.35 -34.5 44.3 -33.35 39.8 -32.2 37.6 -33.4 36.7 -34.0 35.65 L-34.35 35.2 -34.5 34.0 -36.3 34.0 -36.35 34.25 Q-42.7 33.3 -44.95 29.1 -45.9 27.4 -46.0 25.35 L-45.95 23.65 Q-45.95 19.15 -42.45 5.65 L-42.45 5.45 Q-42.45 4.35 -41.0 -0.4 L-39.45 -5.7 -38.45 -11.45 Q-37.9 -14.7 -36.95 -16.95 -36.1 -19.0 -35.35 -22.95 L-34.15 -29.55 Q-32.4 -37.15 -27.95 -37.95 L-27.95 -38.05 -18.85 -37.55 Q-6.95 -36.45 -6.95 -32.15 L-7.35 -29.5 -7.85 -26.9 -6.45 -26.95 -6.35 -27.2 -4.35 -27.0 -3.95 -26.95 -4.0 -26.9 2.45 -26.0 6.45 -25.95 M14.05 -18.25 L13.35 -20.0 13.15 -20.2 13.0 -20.35 12.9 -20.4 12.0 -21.0 11.65 -21.2 11.3 -21.4 10.55 -21.75 10.3 -21.9 9.7 -22.15 9.0 -22.4 8.35 -22.65 7.7 -22.85 7.6 -22.85 7.5 -22.9 7.1 -23.0 6.65 -23.1 6.15 -23.25 Q5.85 -22.95 5.2 -22.95 L5.15 -22.95 5.35 -22.3 4.05 -22.45 3.1 -22.35 3.0 -23.1 1.75 -23.25 2.9 -22.25 2.95 -22.2 6.25 -18.4 6.35 -18.25 6.45 -18.1 6.75 -17.7 7.25 -16.95 7.75 -16.15 8.65 -14.65 9.05 -13.9 9.9 -12.4 10.6 -11.0 11.5 -9.15 12.1 -7.85 12.4 -7.2 13.2 -5.3 13.3 -5.05 13.45 -5.4 14.15 -7.1 14.3 -7.55 14.75 -8.95 15.3 -11.5 15.45 -13.6 15.5 -13.75 15.55 -14.05 15.6 -14.7 15.0 -16.0 14.85 -16.3 14.35 -17.5 14.1 -18.05 14.05 -18.25 M17.9 -16.05 L18.5 -13.8 18.1 -12.1 17.55 -9.35 17.1 -7.7 16.6 -7.5 15.45 -4.15 15.25 -3.55 15.3 -3.5 Q14.3 -1.7 14.1 0.35 L13.95 1.25 14.05 2.05 13.75 3.55 13.3 5.05 12.45 6.0 13.25 6.9 14.55 9.05 16.05 11.25 17.5 13.65 19.4 12.6 Q23.35 10.4 25.6 8.55 L29.65 5.65 31.85 4.1 Q29.3 0.6 23.7 -8.7 20.1 -14.65 17.2 -18.05 L17.9 -16.05 M8.65 4.3 L11.1 4.05 11.55 3.3 11.55 3.15 Q11.4 2.5 11.55 2.1 L11.85 1.5 12.0 -0.2 12.25 -1.6 Q11.2 -2.8 9.85 -6.15 L9.35 -7.4 7.05 -12.9 1.65 -20.05 Q-1.9 -24.35 -3.65 -23.45 L-3.8 -23.7 -3.85 -23.85 -6.8 -24.15 -7.15 -24.2 -7.3 -24.2 -8.45 -24.2 -10.05 -24.1 -11.75 -23.95 -12.35 -23.9 -11.95 -23.7 -11.9 -23.7 Q-9.6 -22.55 -6.85 -19.0 L-1.2 -11.15 3.35 -3.5 Q5.1 -0.45 6.8 1.75 L8.55 3.85 8.45 4.3 8.65 4.3 M1.5 -2.55 L0.3 -4.75 -1.45 -8.0 -2.2 -9.4 -2.55 -9.85 -5.35 -13.65 -6.3 -14.85 -7.75 -16.7 -9.8 -19.15 -11.1 -20.65 -13.45 -23.15 -13.45 -23.25 -13.45 -23.65 -13.75 -23.55 -14.6 -23.05 -14.85 -22.8 Q-15.75 -22.1 -16.9 -21.95 L-16.95 -21.95 -19.65 -20.05 -21.7 -17.8 -22.65 -16.15 -22.75 -15.9 -23.5 -14.3 -24.85 -11.25 -24.9 -11.15 -25.25 -10.35 -25.55 -9.6 -26.5 -6.5 -26.55 -6.4 -26.8 -5.05 -27.25 -1.45 -27.4 0.45 -27.5 2.1 Q-26.65 2.15 -26.65 2.5 L-26.5 3.25 -26.3 3.45 Q-25.15 4.15 -19.75 4.5 L-6.05 4.8 5.4 4.45 6.0 4.45 5.8 4.25 5.75 4.2 Q4.3 2.8 2.4 -0.8 L1.5 -2.55 M-26.5 13.65 L-26.5 9.25 Q-26.4 7.3 -25.95 6.05 L-27.45 5.55 Q-28.5 5.1 -28.75 4.65 L-29.35 3.5 -29.95 3.6 Q-29.5 -5.15 -27.35 -11.65 -23.8 -22.5 -15.95 -25.15 L-15.7 -25.3 -15.3 -25.45 Q-13.1 -26.45 -9.9 -26.75 L-9.95 -27.65 -9.45 -29.85 Q-8.95 -31.45 -8.95 -32.1 -8.95 -33.6 -11.55 -34.2 L-23.65 -35.7 -27.2 -35.7 -27.55 -35.25 -27.65 -35.15 -27.8 -35.05 -27.95 -34.95 -28.75 -34.5 Q-30.7 -33.5 -31.2 -31.4 -31.45 -30.2 -32.05 -28.5 L-32.95 -25.7 -34.2 -20.6 -35.45 -14.9 -38.0 -4.0 -39.35 1.0 Q-40.45 2.3 -40.45 4.9 L-40.4 6.55 -40.95 8.85 -42.5 15.35 Q-43.9 21.55 -43.95 23.35 L-43.95 23.45 -43.95 23.6 -43.95 23.7 Q-43.85 26.65 -41.8 29.25 -39.85 31.7 -36.6 32.4 L-35.9 32.2 -35.65 32.15 -35.2 32.05 -34.3 32.25 -34.2 31.95 -33.3 29.2 -33.1 28.7 -31.0 24.15 -29.4 21.25 -29.2 20.85 -28.0 17.7 -27.05 15.95 -27.05 14.7 -27.0 13.65 -26.9 13.65 -26.5 13.7 -26.5 13.65 M-19.4 17.8 L-19.5 17.8 -20.45 17.9 -20.75 17.9 -23.3 18.05 -25.05 17.9 -25.9 19.55 -27.2 21.85 -28.5 24.0 -28.7 24.3 -28.9 24.7 -31.35 30.15 -31.65 31.1 -32.2 33.0 -32.45 34.6 -30.85 35.65 Q-29.85 35.15 -27.9 34.4 L-24.85 33.25 -24.3 33.0 -19.2 30.95 -18.85 30.8 Q-17.8 30.35 -15.15 28.3 L-14.95 28.15 -14.65 27.9 Q-13.2 26.75 -11.95 26.25 L-11.85 26.1 -11.5 25.8 -10.2 25.7 -10.15 25.65 -10.05 25.75 -9.25 26.25 -8.2 27.15 -8.05 27.3 -8.0 27.35 -7.6 27.8 -6.7 28.7 -4.45 31.1 -3.9 31.7 -3.85 31.75 -2.5 33.0 0.95 35.8 5.05 38.85 Q5.2 37.9 6.0 36.55 L6.6 35.55 8.8 32.4 9.0 32.0 9.6 30.75 9.9 30.1 10.75 28.35 11.5 27.1 11.5 26.25 11.65 26.15 11.7 26.15 12.05 25.95 12.15 25.95 12.3 25.9 12.35 25.85 12.5 25.8 12.55 25.8 12.75 25.65 13.0 25.5 13.7 25.7 13.9 25.85 14.05 25.95 14.85 26.55 17.0 29.05 19.05 30.2 19.8 30.6 19.95 30.65 21.3 31.55 21.25 31.45 21.1 31.15 21.0 30.95 20.95 30.9 20.9 30.8 20.55 30.1 20.2 29.45 18.4 25.55 17.95 24.55 17.25 24.5 16.95 24.5 16.75 24.1 16.45 23.55 16.4 23.55 14.95 21.4 14.85 21.3 13.65 19.35 12.85 18.15 Q11.95 16.75 10.8 16.5 L9.45 16.55 9.15 16.45 8.45 16.55 8.15 16.55 7.55 16.6 7.0 16.6 6.3 16.65 4.7 16.7 3.75 16.7 1.2 16.8 -0.75 16.6 Q-1.45 16.2 -2.5 16.1 -3.75 16.0 -4.45 16.5 L-4.55 16.45 Q-6.1 16.05 -7.6 17.45 L-7.5 17.15 -7.65 17.15 -15.9 17.6 -18.9 17.8 -19.4 17.8 M-9.05 14.55 L7.55 13.9 7.55 13.7 8.7 13.8 9.15 13.8 9.1 13.75 8.95 13.0 9.1 13.0 9.05 10.55 Q8.85 8.45 9.0 7.35 L9.15 6.75 -5.95 7.05 -24.15 6.35 -24.0 7.2 -23.95 9.8 -24.05 13.75 -24.35 15.85 -18.4 15.2 -9.05 14.55 M-23.0 35.5 L-23.8 35.9 -27.5 37.5 -29.5 37.5 -29.4 38.05 -30.0 38.55 -29.6 38.95 -30.15 38.7 -31.0 40.55 Q-32.5 43.6 -32.5 44.1 -32.5 45.1 -30.95 45.65 L-29.8 46.1 -29.4 45.95 -29.3 46.0 -28.7 46.3 -26.2 47.2 -25.6 47.3 -22.4 48.0 -22.1 48.05 -2.75 49.25 10.6 48.65 13.0 48.0 15.3 47.85 16.05 47.7 16.65 47.45 18.0 46.55 18.1 46.5 18.55 46.3 Q19.3 45.9 20.6 45.4 L22.15 44.75 Q21.4 43.5 20.5 40.95 L19.5 37.55 19.5 37.3 19.45 36.1 19.5 35.6 19.25 34.55 19.1 34.15 19.9 33.85 16.0 31.0 15.25 30.4 13.5 28.9 13.25 28.7 11.0 32.6 10.45 33.5 7.65 38.25 7.95 38.5 7.85 38.5 7.75 38.5 7.55 38.45 Q6.6 40.0 6.55 40.25 L6.0 40.5 5.65 40.4 5.0 40.5 Q4.05 40.5 0.25 37.7 L-4.5 34.0 -7.45 31.4 -10.65 28.0 -12.65 29.8 -12.95 30.0 -18.45 33.25 -23.0 35.5 M42.8 22.4 Q41.0 20.4 38.3 15.85 L36.55 17.05 34.1 19.3 32.0 21.0 29.7 22.9 34.65 29.45 35.8 28.55 36.05 28.55 37.2 28.25 37.25 28.25 37.35 28.3 37.95 27.95 39.8 25.9 42.2 23.6 42.4 23.1 42.8 22.4 M28.65 21.4 Q29.05 19.95 32.45 17.3 35.3 15.05 37.4 14.4 L37.05 13.75 32.85 5.75 27.1 10.3 23.9 12.6 25.3 15.55 Q26.85 18.95 28.05 20.6 L28.65 21.4 M20.75 36.0 L20.75 36.05 20.8 36.15 21.3 35.8 20.75 36.0" fill="#000000" fill-rule="evenodd" stroke="none"/>
      <path d="M3.1 -22.35 L2.9 -22.25 1.75 -23.25 3.0 -23.1 3.1 -22.35 M-11.95 -23.7 L-12.35 -23.9 -11.75 -23.95 -11.95 -23.7 M5.8 4.25 L6.0 4.45 5.4 4.45 5.8 4.25 M-13.75 -23.55 L-13.45 -23.65 -13.45 -23.25 -13.75 -23.55" fill="#221f1c" fill-rule="evenodd" stroke="none"/>
      <path d="M13.45 -5.4 L13.3 -5.05 13.2 -5.3 13.45 -5.4 M8.65 4.3 L8.45 4.3 8.55 3.85 8.65 4.3 M7.0 16.65 L6.3 16.65 7.0 16.6 7.0 16.65" fill="#332e28" fill-rule="evenodd" stroke="none"/>
      <path d="M-7.15 -24.2 L-6.8 -24.15 -6.95 -24.15 -7.15 -24.2 M-7.0 3.2 L-8.2 3.3 -6.95 3.05 -7.0 3.2" fill="#001671" fill-rule="evenodd" stroke="none"/>
      <path d="M-11.9 -23.7 L-11.95 -23.7 -11.75 -23.95 -11.9 -23.7 M-26.5 13.65 L-26.5 13.7 -26.9 13.65 -26.5 13.65 M-27.55 -35.25 L-27.2 -35.7 -27.35 -35.45 -27.55 -35.25" fill="#11100f" fill-rule="evenodd" stroke="none"/>
      <path d="M8.45 16.55 L8.25 16.65 8.15 16.55 8.45 16.55" fill="#0033ff" fill-rule="evenodd" stroke="none"/>
      <path d="M16.05 47.7 L15.3 47.85 15.25 47.85 16.05 47.7" fill="#331a4d" fill-rule="evenodd" stroke="none"/>
      <path d="M3.1 -22.35 L2.95 -22.2 2.9 -22.25 3.1 -22.35 M5.75 4.2 L5.8 4.25 5.4 4.45 5.75 4.2 M-19.4 17.8 L-19.5 17.85 -19.5 17.8 -19.4 17.8 M-7.6 17.45 L-7.65 17.15 -7.5 17.15 -7.6 17.45 M-28.9 24.7 L-29.1 25.1 -29.3 25.75 -29.65 26.65 -29.75 26.8 -30.45 28.3 -31.35 30.15 -28.9 24.7 M-12.95 30.0 L-12.65 29.8 -12.85 30.25 -12.95 30.0" fill="#1c181d" fill-rule="evenodd" stroke="none"/>
      <path d="M7.55 16.6 L7.1 16.9 7.0 16.65 7.0 16.6 7.55 16.6 M15.25 30.4 L16.0 31.0 15.65 31.2 15.25 30.4" fill="#2c262d" fill-rule="evenodd" stroke="none"/>
      <path d="M-33.1 28.7 L-33.3 29.2 -33.1 28.65 -33.1 28.7 M-35.65 32.15 L-35.9 32.2 -35.8 31.9 -35.65 32.15" fill="#372c22" fill-rule="evenodd" stroke="none"/>
      <path d="M42.8 22.4 L42.4 23.1 42.2 23.6 39.8 25.9 37.95 27.95 37.35 28.3 37.25 28.25 37.2 28.25 36.05 28.55 35.8 28.55 34.65 29.45 29.7 22.9 32.0 21.0 34.1 19.3 36.55 17.05 38.3 15.85 Q41.0 20.4 42.8 22.4" fill="#aa8a71" fill-rule="evenodd" stroke="none"/>
      <path d="M3.1 -22.35 L4.05 -22.45 5.35 -22.3 5.15 -22.95 5.2 -22.95 Q5.85 -22.95 6.15 -23.25 L6.65 -23.1 7.1 -23.0 7.5 -22.9 7.6 -22.85 7.7 -22.85 8.35 -22.65 9.0 -22.4 9.7 -22.15 10.3 -21.9 10.55 -21.75 11.3 -21.4 11.65 -21.2 12.0 -21.0 12.9 -20.4 13.0 -20.35 13.15 -20.2 13.35 -20.0 14.05 -18.25 6.25 -18.4 2.95 -22.2 3.1 -22.35 M15.0 -16.0 L15.6 -14.7 15.55 -14.05 15.5 -13.75 15.45 -13.6 9.05 -13.9 8.65 -14.65 7.75 -16.15 15.0 -16.0 M15.3 -11.5 L14.75 -8.95 11.5 -9.15 10.6 -11.0 9.9 -12.4 10.15 -11.9 15.3 -11.5 M14.15 -7.1 L13.45 -5.4 13.2 -5.3 12.4 -7.2 14.15 -7.1 M1.5 -2.55 L2.4 -0.8 Q4.3 2.8 5.75 4.2 L5.4 4.45 -6.05 4.8 -19.75 4.5 Q-25.15 4.15 -26.3 3.45 L-26.3 3.25 -26.5 3.25 -26.65 2.5 Q-26.65 2.15 -27.5 2.1 L-27.4 0.45 Q-12.45 0.25 1.3 1.25 L3.65 1.45 2.45 -0.7 -3.45 -1.05 -9.1 -1.35 -27.25 -1.45 -26.8 -5.05 1.5 -2.55 M-26.5 -6.5 L-25.55 -9.6 -25.65 -9.25 -1.45 -8.0 0.3 -4.75 -9.5 -5.35 -26.5 -6.6 -26.5 -6.5 M-24.85 -11.25 L-23.5 -14.3 -5.9 -12.95 -4.75 -12.85 -5.35 -13.65 -2.55 -9.85 -10.6 -10.25 -24.85 -11.25 M-22.75 -15.9 L-22.65 -16.15 -21.7 -17.8 -21.0 -17.7 -7.75 -16.7 -6.3 -14.85 -9.6 -15.1 -22.75 -15.9 M-19.65 -20.05 L-16.95 -21.95 -16.9 -21.95 Q-15.75 -22.1 -14.85 -22.8 L-14.6 -23.05 -13.75 -23.55 -13.45 -23.25 -13.45 -23.15 -11.1 -20.65 -9.8 -19.15 -19.0 -20.0 -19.65 -20.05 M-7.0 3.2 L-6.95 3.05 -8.2 3.3 -7.0 3.2 M-19.5 17.8 L-19.5 17.85 -19.4 17.8 -18.9 17.8 -15.9 17.6 -7.65 17.15 -7.6 17.45 Q-6.1 16.05 -4.55 16.45 L-4.45 16.5 Q-3.75 16.0 -2.5 16.1 -1.45 16.2 -0.75 16.6 L1.2 16.8 3.75 16.7 4.7 16.7 6.3 16.65 7.0 16.65 7.1 16.9 7.55 16.6 8.15 16.55 8.25 16.65 8.45 16.55 9.15 16.45 9.45 16.55 10.8 16.5 Q11.95 16.75 12.85 18.15 L13.65 19.35 -10.35 20.65 -27.2 21.85 -25.9 19.55 -25.05 17.9 -23.3 18.05 -20.75 17.9 -20.45 17.9 -19.5 17.8 M-28.5 24.0 L-19.5 24.0 -8.5 23.05 3.5 22.0 14.95 21.4 16.4 23.55 11.75 24.0 -9.65 25.95 -9.25 26.25 -10.05 25.75 -10.15 25.65 -10.2 25.7 -11.5 25.8 -11.85 26.1 -26.25 26.8 -29.65 26.65 -29.3 25.75 -29.1 25.1 -28.9 24.7 -28.7 24.3 -28.5 24.0 M-24.3 33.0 L-24.85 33.25 -27.9 34.4 Q-29.85 35.15 -30.85 35.65 L-32.45 34.6 -32.2 33.0 -24.3 33.0 M-31.65 31.1 L-31.35 30.15 -30.45 28.3 -30.75 29.0 -15.15 28.3 Q-17.8 30.35 -18.85 30.8 L-19.2 30.95 -31.65 31.1 M-7.6 27.8 L11.65 26.15 11.5 26.25 11.5 27.1 10.75 28.35 9.9 30.1 9.6 30.75 8.5 30.8 -4.65 30.85 -4.45 31.1 -6.7 28.7 -7.6 27.8 M14.05 25.95 L18.4 25.55 20.2 29.45 20.55 30.1 19.05 30.2 17.0 29.05 14.85 26.55 14.05 25.95 M-2.5 33.0 L7.5 33.0 8.45 32.9 8.8 32.4 6.6 35.55 6.0 36.55 Q5.2 37.9 5.05 38.85 L0.95 35.8 -2.5 33.0 M28.65 21.4 L28.05 20.6 Q26.85 18.95 25.3 15.55 L23.9 12.6 27.1 10.3 32.85 5.75 37.05 13.75 37.4 14.4 Q35.3 15.05 32.45 17.3 29.05 19.95 28.65 21.4" fill="#333333" fill-rule="evenodd" stroke="none"/>
      <path d="M-6.8 -24.15 L-3.85 -23.85 -3.8 -23.7 -3.65 -23.45 Q-1.9 -24.35 1.65 -20.05 L7.05 -12.9 9.35 -7.4 9.85 -6.15 Q11.2 -2.8 12.25 -1.6 L12.0 -0.2 11.85 1.5 11.55 2.1 Q11.4 2.5 11.55 3.15 L11.55 3.3 11.1 4.05 8.65 4.3 8.55 3.85 6.8 1.75 Q5.1 -0.45 3.35 -3.5 L-1.2 -11.15 -6.85 -19.0 Q-9.6 -22.55 -11.9 -23.7 L-11.75 -23.95 -10.05 -24.1 -8.45 -24.2 -7.3 -24.2 -7.15 -24.2 -6.95 -24.15 -6.8 -24.15 M-27.2 -35.7 L-23.65 -35.7 -11.55 -34.2 Q-8.95 -33.6 -8.95 -32.1 -8.95 -31.45 -9.45 -29.85 L-9.95 -27.65 -9.9 -26.75 Q-13.1 -26.45 -15.3 -25.45 L-15.7 -25.3 -15.95 -25.15 Q-23.8 -22.5 -27.35 -11.65 -29.5 -5.15 -29.95 3.6 L-29.35 3.5 -28.75 4.65 Q-28.5 5.1 -27.45 5.55 L-25.95 6.05 Q-26.4 7.3 -26.5 9.25 L-26.5 13.65 -26.9 13.65 -27.0 13.65 -27.05 14.7 -27.05 15.95 -28.0 17.7 -29.2 20.85 -29.4 21.25 -31.0 24.15 -33.1 28.7 -33.1 28.65 -33.15 28.65 Q-36.55 27.7 -38.25 26.8 L-39.9 24.5 -40.05 24.3 -40.45 20.55 Q-40.45 19.35 -38.15 8.2 L-34.9 -6.9 -32.95 -13.65 -30.9 -20.4 -28.35 -28.2 -26.45 -33.95 Q-26.45 -34.8 -27.35 -35.45 L-27.2 -35.7 M-9.05 14.55 L-18.4 15.2 -24.35 15.85 -24.05 13.75 -23.95 9.8 -24.0 7.2 -24.15 6.35 -5.95 7.05 9.15 6.75 9.0 7.35 Q8.85 8.45 9.05 10.55 L9.1 13.0 8.95 13.0 9.1 13.75 9.15 13.8 8.7 13.8 7.55 13.7 7.55 13.9 -9.05 14.55" fill="#14100c" fill-rule="evenodd" stroke="none"/>
      <path d="M-33.3 29.2 L-34.2 31.95 -34.3 32.25 -35.2 32.05 -35.65 32.15 -35.8 31.9 -35.9 32.2 -36.6 32.4 Q-39.85 31.7 -41.8 29.25 -43.85 26.65 -43.95 23.7 L-43.95 23.6 -43.95 23.45 -43.95 23.35 Q-43.9 21.55 -42.5 15.35 L-40.95 8.85 -40.4 6.55 -40.45 4.9 Q-40.45 2.3 -39.35 1.0 L-38.0 -4.0 -35.45 -14.9 -34.2 -20.6 -32.95 -25.7 -32.05 -28.5 Q-31.45 -30.2 -31.2 -31.4 -30.7 -33.5 -28.75 -34.5 L-27.95 -34.95 -27.8 -35.05 -27.65 -35.15 -27.55 -35.25 -27.35 -35.45 Q-26.45 -34.8 -26.45 -33.95 L-28.35 -28.2 -30.9 -20.4 -32.95 -13.65 -34.9 -6.9 -38.15 8.2 Q-40.45 19.35 -40.45 20.55 L-40.05 24.3 -39.9 24.5 -38.25 26.8 Q-36.55 27.7 -33.15 28.65 L-33.1 28.65 -33.3 29.2" fill="#221c15" fill-rule="evenodd" stroke="none"/>
      <path d="M6.25 -18.4 L14.05 -18.25 14.1 -18.05 14.35 -17.5 14.85 -16.3 15.0 -16.0 7.75 -16.15 7.25 -16.95 6.75 -17.7 6.45 -18.1 6.35 -18.25 6.25 -18.4 M15.45 -13.6 L15.3 -11.5 10.15 -11.9 9.9 -12.4 9.05 -13.9 15.45 -13.6 M14.75 -8.95 L14.3 -7.55 14.15 -7.1 12.4 -7.2 12.1 -7.85 11.5 -9.15 14.75 -8.95 M0.3 -4.75 L1.5 -2.55 -26.8 -5.05 -26.55 -6.4 -26.5 -6.5 -26.5 -6.6 -9.5 -5.35 0.3 -4.75 M-27.4 0.45 L-27.25 -1.45 -9.1 -1.35 -3.45 -1.05 2.45 -0.7 3.65 1.45 1.3 1.25 Q-12.45 0.25 -27.4 0.45 M-25.55 -9.6 L-25.25 -10.35 -24.9 -11.15 -24.85 -11.25 -10.6 -10.25 -2.55 -9.85 -2.2 -9.4 -1.45 -8.0 -25.65 -9.25 -25.55 -9.6 M-23.5 -14.3 L-22.75 -15.9 -9.6 -15.1 -6.3 -14.85 -5.35 -13.65 -4.75 -12.85 -5.9 -12.95 -23.5 -14.3 M-21.7 -17.8 L-19.65 -20.05 -19.0 -20.0 -9.8 -19.15 -7.75 -16.7 -21.0 -17.7 -21.7 -17.8 M-27.2 21.85 L-10.35 20.65 13.65 19.35 14.85 21.3 14.95 21.4 3.5 22.0 -8.5 23.05 -19.5 24.0 -28.5 24.0 -27.2 21.85 M-29.65 26.65 L-26.25 26.8 -11.85 26.1 -11.95 26.25 Q-13.2 26.75 -14.65 27.9 L-14.95 28.15 -15.15 28.3 -30.75 29.0 -30.45 28.3 -29.75 26.8 -29.65 26.65 M-9.25 26.25 L-9.65 25.95 11.75 24.0 16.4 23.55 16.45 23.55 16.75 24.1 16.95 24.5 17.25 24.5 17.95 24.55 18.4 25.55 14.05 25.95 13.9 25.85 13.7 25.7 13.0 25.5 12.75 25.65 12.55 25.8 12.5 25.8 12.35 25.85 12.3 25.9 12.15 25.95 12.05 25.95 11.7 26.15 11.65 26.15 -7.6 27.8 -8.0 27.35 -8.05 27.3 -8.2 27.15 -9.25 26.25 M-24.3 33.0 L-32.2 33.0 -31.65 31.1 -19.2 30.95 -24.3 33.0 M-4.45 31.1 L-4.65 30.85 8.5 30.8 9.6 30.75 9.0 32.0 8.8 32.4 8.45 32.9 7.5 33.0 -2.5 33.0 -3.85 31.75 -3.9 31.7 -4.45 31.1 M20.55 30.1 L20.9 30.8 20.95 30.9 21.0 30.95 21.1 31.15 21.25 31.45 21.3 31.55 19.95 30.65 19.8 30.6 19.05 30.2 20.55 30.1" fill="#1a1a1a" fill-rule="evenodd" stroke="none"/>
      <path d="M-25.6 47.3 L-26.2 47.2 -28.7 46.3 -29.3 46.0 -29.4 45.95 -29.8 46.1 -30.95 45.65 Q-32.5 45.1 -32.5 44.1 -32.5 43.6 -31.0 40.55 L-30.15 38.7 -29.6 38.95 -30.0 38.55 -29.4 38.05 -29.5 37.5 -27.5 37.5 -23.8 35.9 -23.0 35.5 Q-23.15 41.1 -25.6 47.3 M13.5 28.9 L15.25 30.4 15.65 31.2 16.0 31.0 19.9 33.85 19.1 34.15 19.25 34.55 19.5 35.6 19.45 36.1 19.5 37.3 19.5 37.55 20.5 40.95 Q21.4 43.5 22.15 44.75 L20.6 45.4 Q19.3 45.9 18.55 46.3 L18.1 46.5 Q16.85 43.7 15.75 40.2 13.6 33.45 13.5 28.9" fill="#942403" fill-rule="evenodd" stroke="none"/>
      <path d="M17.9 -16.05 L17.2 -18.05 Q20.1 -14.65 23.7 -8.7 29.3 0.6 31.85 4.1 L29.65 5.65 25.6 8.55 Q23.35 10.4 19.4 12.6 L17.5 13.65 16.05 11.25 14.55 9.05 13.25 6.9 12.45 6.0 13.3 5.05 13.75 3.55 14.05 2.05 13.95 1.25 14.1 0.35 Q14.3 -1.7 15.3 -3.5 L15.25 -3.55 15.45 -4.15 16.6 -7.5 17.1 -7.7 17.55 -9.35 18.1 -12.1 18.5 -13.8 17.9 -16.05 M-25.6 47.3 Q-23.15 41.1 -23.0 35.5 L-18.45 33.25 -12.95 30.0 -12.85 30.25 -12.65 29.8 -10.65 28.0 -7.45 31.4 -4.5 34.0 0.25 37.7 Q4.05 40.5 5.0 40.5 L5.65 40.4 6.0 40.5 6.55 40.25 Q6.6 40.0 7.55 38.45 L7.75 38.5 7.85 38.5 7.95 38.5 7.65 38.25 10.45 33.5 11.0 32.6 13.25 28.7 13.5 28.9 Q13.6 33.45 15.75 40.2 16.85 43.7 18.1 46.5 L18.0 46.55 16.65 47.45 16.05 47.7 15.25 47.85 15.3 47.85 13.0 48.0 10.6 48.65 -2.75 49.25 -22.1 48.05 -22.4 48.0 -25.6 47.3" fill="#731c02" fill-rule="evenodd" stroke="none"/>
    </g>
    <g id="shape3" transform="matrix(1.0, 0.0, 0.0, 1.0, 34.35, 43.55)">
      <path d="M31.85 2.8 L32.0 2.8 Q32.6 2.8 32.35 2.5 L32.3 1.15 32.25 -1.55 31.95 -2.8 Q31.7 -5.05 30.85 -7.55 29.85 -10.55 27.2 -16.55 L27.25 -16.6 22.4 -23.6 Q15.6 -32.7 6.7 -39.1 L5.45 -40.0 4.15 -40.85 3.4 -41.35 3.0 -41.6 2.95 -41.55 2.9 -41.5 2.85 -41.35 1.55 -39.75 0.65 -38.8 -5.3 -32.3 -5.85 -31.6 -12.3 -21.5 -12.7 -20.8 -12.75 -20.7 -12.75 -20.6 -12.8 -20.6 -12.8 -20.5 -14.85 -15.75 -16.85 -9.65 -17.8 -5.9 -17.85 -5.9 -17.9 -5.9 -17.95 -5.4 -18.05 -4.85 -18.3 -2.95 -18.9 2.75 -19.1 2.85 -19.1 4.85 -19.1 4.9 -19.1 5.0 -19.1 5.05 -19.1 5.15 -19.1 5.3 -19.1 5.35 -19.1 5.55 -19.2 7.2 -19.55 12.35 -19.6 13.05 -19.75 15.1 -19.75 15.45 -19.8 15.65 -19.85 15.9 -20.35 16.1 -20.3 16.15 -20.1 16.6 -26.05 18.95 Q-31.85 21.3 -31.85 22.35 L-31.85 22.45 -31.8 23.0 -31.7 23.15 -31.6 23.35 -24.5 23.35 -13.8 23.35 Q-7.8 23.3 -6.6 15.0 L-5.85 8.4 Q-5.45 5.55 -4.55 4.2 L-4.6 3.5 -4.7 3.0 -1.65 2.65 Q4.4 2.45 28.55 3.05 L28.6 3.1 28.65 3.05 29.8 3.05 31.65 3.1 31.85 3.1 32.25 3.1 31.95 2.95 31.85 2.8 M1.7 -43.55 Q8.5 -43.75 20.0 -30.95 24.4 -26.05 27.6 -21.25 29.85 -17.9 30.5 -16.2 L32.1 -12.8 Q34.25 -7.4 34.65 -4.4 L34.75 -4.4 34.85 -3.6 35.0 -3.45 35.1 -3.3 35.05 -3.0 35.15 -2.5 Q35.15 0.25 34.75 2.75 L34.8 3.4 34.6 4.15 34.3 4.45 34.2 4.8 33.95 5.1 30.75 5.1 31.35 8.55 31.4 13.95 31.7 16.8 Q31.85 19.2 31.4 20.9 30.0 26.1 22.4 26.1 L19.35 25.9 Q17.35 28.1 10.65 28.1 1.25 28.1 -0.1 25.85 L-0.4 25.1 -0.6 25.1 Q-2.95 25.1 -4.7 23.9 L-5.15 24.5 Q-7.25 25.6 -23.1 25.6 -31.8 25.6 -33.8 24.0 -34.45 23.5 -34.35 22.85 L-34.1 22.25 Q-34.1 20.95 -29.8 18.35 -25.25 15.6 -22.35 15.6 L-21.9 15.6 -22.05 15.3 -22.1 14.1 Q-22.35 8.25 -22.2 5.25 -22.05 2.25 -21.4 0.55 L-21.6 -0.65 Q-21.6 -3.2 -20.3 -7.1 L-20.3 -9.75 -19.8 -10.8 Q-19.0 -12.75 -18.85 -15.0 -17.8 -16.6 -17.8 -17.85 L-17.8 -17.95 Q-14.6 -24.7 -9.7 -31.6 -2.9 -41.1 1.7 -42.75 L1.7 -43.55 M28.9 5.5 L29.0 5.1 28.9 5.1 28.9 5.5 M18.0 9.95 L18.9 10.1 19.95 9.85 20.25 9.4 20.4 8.35 20.3 7.25 20.2 6.85 18.25 6.75 17.85 6.8 17.4 6.75 17.4 6.85 17.4 9.85 17.45 10.1 18.0 9.95 M20.9 23.9 Q28.4 23.9 29.4 14.9 L29.55 12.6 Q22.35 12.65 17.25 14.3 L15.85 14.9 19.7 15.35 19.9 21.35 20.2 22.85 20.25 23.45 20.6 23.55 20.9 23.9 M10.05 4.9 L1.3 4.7 1.15 5.15 1.1 5.2 1.4 9.25 1.4 14.45 Q1.4 19.2 1.55 20.55 2.05 24.3 3.95 25.85 L17.9 25.85 17.9 17.6 17.7 17.15 Q11.9 18.75 10.35 14.25 9.9 12.9 9.9 8.2 L9.95 5.6 10.05 4.9" fill="#000000" fill-rule="evenodd" stroke="none"/>
      <path d="M28.55 3.05 L28.65 3.05 28.6 3.1 28.55 3.05" fill="#221c15" fill-rule="evenodd" stroke="none"/>
      <path d="M31.65 3.1 L31.8 2.8 31.85 2.8 31.95 2.95 31.85 3.1 31.65 3.1" fill="#402c1a" fill-rule="evenodd" stroke="none"/>
      <path d="M-17.85 -5.55 L-18.05 -4.85 -17.95 -5.4 -17.85 -5.55 M31.95 2.95 L32.25 3.1 31.85 3.1 31.95 2.95" fill="#5b6171" fill-rule="evenodd" stroke="none"/>
      <path d="M17.85 6.8 L18.25 6.75 20.2 6.85 20.3 7.25 20.4 8.35 20.25 9.4 19.95 9.85 18.9 10.1 18.0 9.95 17.4 9.85 17.4 6.85 17.85 6.8" fill="#ffffff" fill-rule="evenodd" stroke="none"/>
      <path d="M20.9 23.9 L20.6 23.55 20.25 23.45 20.2 22.85 19.9 21.35 19.7 15.35 15.85 14.9 17.25 14.3 Q22.35 12.65 29.55 12.6 L29.4 14.9 Q28.4 23.9 20.9 23.9" fill="#aa8a71" fill-rule="evenodd" stroke="none"/>
      <path d="M-12.75 -20.6 L-12.8 -20.5 -12.8 -20.6 -12.75 -20.6 M-17.8 -5.9 L-17.85 -5.55 -17.85 -5.9 -17.8 -5.9" fill="#855b36" fill-rule="evenodd" stroke="none"/>
      <path d="M-17.85 -5.9 L-17.85 -5.55 -17.95 -5.4 -17.9 -5.9 -17.85 -5.9" fill="#969cab" fill-rule="evenodd" stroke="none"/>
      <path d="M-24.5 23.35 L-23.5 22.75 Q-16.25 18.25 -16.3 12.0 -16.3 8.85 -15.35 3.45 L-13.8 -5.15 Q-13.1 -9.5 -11.2 -14.15 -9.05 -19.35 -6.4 -22.4 -2.95 -26.3 2.15 -32.95 L4.95 -36.6 9.85 -32.15 Q19.35 -23.6 22.45 -17.65 L23.25 -15.7 Q25.3 -13.8 25.65 -10.75 28.05 -7.25 28.6 -3.45 L29.15 -1.35 29.6 1.35 29.45 2.1 29.25 2.65 Q29.55 2.8 28.9 2.8 L28.85 2.8 28.65 3.05 28.55 3.05 Q4.4 2.45 -1.65 2.65 L-4.7 3.0 -4.6 3.5 -4.55 4.2 Q-5.45 5.55 -5.85 8.4 L-6.6 15.0 Q-7.8 23.3 -13.8 23.35 L-24.5 23.35 M10.05 4.9 L9.95 5.6 9.9 8.2 Q9.9 12.9 10.35 14.25 11.9 18.75 17.7 17.15 L17.9 17.6 17.9 25.85 3.95 25.85 Q2.05 24.3 1.55 20.55 1.4 19.2 1.4 14.45 L1.4 9.25 1.1 5.2 1.15 5.15 1.3 4.7 10.05 4.9" fill="#333333" fill-rule="evenodd" stroke="none"/>
      <path d="M-12.75 -20.6 L-12.75 -20.7 -12.7 -20.8 -12.3 -21.5 -5.85 -31.6 -5.3 -32.3 0.65 -38.8 1.55 -39.75 2.85 -41.35 2.9 -41.5 2.95 -41.55 3.0 -41.6 3.4 -41.35 4.15 -40.85 5.45 -40.0 6.7 -39.1 Q15.6 -32.7 22.4 -23.6 L27.25 -16.6 27.2 -16.55 Q29.85 -10.55 30.85 -7.55 31.7 -5.05 31.95 -2.8 L32.25 -1.55 32.3 1.15 32.35 2.5 Q32.6 2.8 32.0 2.8 L31.85 2.8 31.8 2.8 31.65 3.1 29.8 3.05 28.65 3.05 28.85 2.8 28.9 2.8 Q29.55 2.8 29.25 2.65 L29.45 2.1 29.6 1.35 29.15 -1.35 28.6 -3.45 Q28.05 -7.25 25.65 -10.75 25.3 -13.8 23.25 -15.7 L22.45 -17.65 Q19.35 -23.6 9.85 -32.15 L4.95 -36.6 2.15 -32.95 Q-2.95 -26.3 -6.4 -22.4 -9.05 -19.35 -11.2 -14.15 -13.1 -9.5 -13.8 -5.15 L-15.35 3.45 Q-16.3 8.85 -16.3 12.0 -16.25 18.25 -23.5 22.75 L-24.5 23.35 -31.6 23.35 -31.7 23.15 -31.8 23.0 -31.85 22.45 -31.85 22.35 Q-31.85 21.3 -26.05 18.95 L-20.1 16.6 -20.3 16.15 -20.35 16.1 -19.85 15.9 -19.8 15.65 -19.75 15.45 -19.75 15.1 -19.6 13.05 -19.55 12.35 -19.2 7.2 -19.1 5.55 -19.1 5.35 -19.1 5.3 -19.1 5.15 -19.1 5.05 -19.1 5.0 -19.1 4.9 -19.1 4.85 -19.1 2.85 -18.9 2.75 -18.3 -2.95 -18.05 -4.85 -17.85 -5.55 -17.8 -5.9 -16.85 -9.65 -14.85 -15.75 -12.8 -20.5 -12.75 -20.6" fill="#4b4b4b" fill-rule="evenodd" stroke="none"/>
    </g>
    <g id="shape4" transform="matrix(1.0, 0.0, 0.0, 1.0, 10.6, 58.2)">
      <path d="M-2.6 -50.8 Q-0.9 -49.25 0.25 -47.3 L2.55 -43.25 6.5 -35.35 Q8.65 -30.7 9.8 -27.2 13.75 -15.6 14.55 -9.35 15.0 -6.1 15.0 5.25 15.0 22.8 9.7 32.8 8.1 35.75 3.05 43.3 -1.2 49.65 -4.4 55.1 -4.85 54.55 -5.9 54.1 L-3.4 49.85 0.4 44.0 4.15 37.6 8.2 31.05 Q9.8 28.55 10.85 24.7 11.9 20.3 12.65 18.0 13.15 16.35 13.3 13.5 L13.35 10.55 13.1 5.15 12.8 -3.0 12.15 -10.2 11.3 -14.05 7.95 -25.5 Q5.75 -32.35 1.35 -40.95 0.25 -43.0 -3.85 -48.75 L-3.85 -48.8 Q-2.75 -49.65 -2.6 -50.8 M-5.35 56.75 L-6.2 58.25 -6.35 58.25 -6.1 58.55 -6.3 59.3 Q-6.55 59.75 -7.35 59.75 -8.55 59.75 -9.6 58.55 L-9.6 57.5 -9.4 57.5 -9.45 57.1 -8.75 54.9 -7.75 56.0 -7.65 56.1 -8.25 57.4 -7.15 57.45 -7.1 57.45 -7.15 57.05 -7.15 57.0 -7.05 56.45 -5.6 56.75 -5.35 56.75 M-7.85 -50.3 Q-10.55 -55.15 -10.55 -55.6 L-10.5 -56.35 -10.6 -56.45 Q-10.6 -57.5 -10.1 -58.2 L-8.55 -57.8 Q-7.9 -57.5 -7.7 -57.0 -6.8 -56.75 -5.75 -55.25 L-3.65 -52.2 Q-4.65 -52.35 -5.75 -51.35 L-8.25 -55.05 -6.2 -51.15 Q-6.7 -51.7 -7.6 -51.7 L-7.85 -50.3 M-4.3 -48.5 L-3.65 -47.2 -1.85 -43.15 Q-0.4 -39.95 1.3 -35.25 L3.9 -27.1 Q5.9 -19.55 6.9 -14.3 L7.6 -9.25 Q7.95 -6.0 7.95 5.35 L7.8 12.55 7.75 12.9 Q7.0 25.15 3.8 32.9 2.55 35.85 -1.4 43.4 L-6.65 53.85 -7.2 53.7 -7.1 52.1 -7.1 51.2 -6.5 49.95 -3.5 44.1 -0.55 37.7 2.6 31.15 Q3.9 28.65 4.7 24.8 L6.1 18.1 Q6.7 15.65 6.65 10.65 L6.5 5.25 6.2 -2.9 5.75 -10.1 Q5.15 -14.3 2.4 -25.4 0.7 -32.25 -2.75 -40.85 L-5.9 -46.85 -5.7 -47.7 -4.3 -48.5 M-8.65 -55.75 L-8.45 -55.4 -8.55 -55.7 -8.55 -55.75 -8.65 -55.75" fill="#000000" fill-rule="evenodd" stroke="none"/>
      <path d="M11.3 -14.05 L12.15 -10.2 12.8 -3.0 13.1 5.15 13.35 10.55 13.3 13.5 13.2 13.5 10.4 13.75 Q8.75 13.75 7.75 12.9 L7.8 12.55 7.95 5.35 Q7.95 -6.0 7.6 -9.25 L6.9 -14.3 11.3 -14.05" fill="#221c15" fill-rule="evenodd" stroke="none"/>
      <path d="M-4.4 55.1 L-4.1 55.8 -4.45 56.45 Q-4.75 56.7 -5.35 56.75 L-5.6 56.75 -7.05 56.45 -7.65 56.1 -7.75 56.0 -8.75 54.9 -9.1 54.55 -9.1 53.5 -8.55 53.55 Q-9.2 52.15 -9.45 49.35 L-9.6 43.5 -8.6 11.25 Q-8.5 4.75 -8.75 -8.1 L-9.1 -20.5 -8.95 -36.65 Q-8.75 -44.9 -7.85 -50.3 L-7.6 -51.7 Q-6.7 -51.7 -6.2 -51.15 L-6.1 -50.95 -5.75 -51.35 Q-4.65 -52.35 -3.65 -52.2 L-2.95 -52.0 -2.7 -51.95 -2.6 -51.15 -2.6 -50.8 Q-2.75 -49.65 -3.85 -48.8 L-3.85 -48.75 Q-4.05 -48.65 -4.3 -48.5 L-5.7 -47.7 -5.9 -46.85 -6.1 -45.85 -6.6 -42.2 -6.55 -39.1 Q-6.5 -37.1 -6.6 -35.75 -7.1 -29.0 -7.1 -23.0 L-6.85 -10.45 -6.6 2.05 -6.85 28.5 -7.1 51.2 -7.1 52.1 -7.2 53.7 -6.65 53.85 -5.9 54.1 Q-4.85 54.55 -4.4 55.1" fill="#999999" fill-rule="evenodd" stroke="none"/>
      <path d="M-3.85 -48.75 Q0.25 -43.0 1.35 -40.95 5.75 -32.35 7.95 -25.5 L11.3 -14.05 6.9 -14.3 Q5.9 -19.55 3.9 -27.1 L1.3 -35.25 Q-0.4 -39.95 -1.85 -43.15 L-3.65 -47.2 -4.3 -48.5 Q-4.05 -48.65 -3.85 -48.75 M13.3 13.5 Q13.15 16.35 12.65 18.0 11.9 20.3 10.85 24.7 9.8 28.55 8.2 31.05 L4.15 37.6 0.4 44.0 -3.4 49.85 -5.9 54.1 -6.65 53.85 -1.4 43.4 Q2.55 35.85 3.8 32.9 7.0 25.15 7.75 12.9 8.75 13.75 10.4 13.75 L13.2 13.5 13.3 13.5 M-5.75 -51.35 L-6.1 -50.95 -6.2 -51.15 -8.25 -55.05 -5.75 -51.35 M-7.05 56.45 L-7.15 57.0 -7.15 57.05 -7.15 57.45 -8.25 57.4 -7.65 56.1 -7.05 56.45" fill="#942403" fill-rule="evenodd" stroke="none"/>
    </g>
    <g id="shape5" transform="matrix(1.0, 0.0, 0.0, 1.0, 5.0, 24.9)">
      <path d="M5.65 -1.85 Q7.1 0.45 8.65 5.35 10.6 11.7 10.6 15.2 10.6 16.7 10.95 20.2 10.95 20.45 11.9 21.15 L13.3 22.1 Q14.85 23.1 16.35 23.3 L17.8 23.45 Q20.9 24.6 22.4 24.6 24.4 24.6 25.05 21.5 L25.35 19.15 Q24.7 18.0 23.95 15.15 L21.95 7.5 19.25 0.7 Q17.5 -3.45 17.25 -4.6 L9.55 -2.85 5.65 -1.85 M0.95 -0.3 L1.15 0.35 -1.55 -0.1 Q-2.5 -1.9 -3.35 -4.85 -5.0 -10.55 -5.0 -14.35 -5.0 -23.0 -1.05 -24.55 2.25 -25.9 7.7 -22.3 12.3 -19.3 16.45 -14.4 20.4 -9.7 20.4 -7.65 L20.15 -6.45 19.95 -6.15 20.3 -6.15 20.55 -5.35 19.3 -5.05 21.25 -1.1 Q22.7 2.65 22.7 3.8 22.7 4.35 24.85 10.65 L27.0 16.85 27.3 16.85 27.4 17.1 27.45 18.0 27.45 18.3 27.7 19.1 27.35 19.55 Q27.1 21.2 26.3 23.2 24.95 26.85 23.05 26.85 20.9 26.85 18.05 25.8 14.75 24.5 13.35 24.3 12.1 24.1 11.1 23.45 L9.55 22.2 Q8.1 21.05 8.3 19.2 L8.85 16.35 7.9 11.75 6.9 8.05 Q6.9 6.65 5.15 2.55 L3.65 -1.25 0.95 -0.3 M18.55 -6.35 Q16.2 -10.3 13.0 -14.15 6.05 -22.65 0.15 -22.65 -1.15 -22.65 -2.2 -19.1 L-2.95 -15.45 Q-2.95 -13.85 -0.9 -6.55 L0.45 -1.85 Q3.6 -3.9 8.3 -5.05 12.85 -6.15 17.9 -6.2 L18.1 -6.3 18.25 -6.2 18.65 -6.2 18.55 -6.35" fill="#000000" fill-rule="evenodd" stroke="none"/>
      <path d="M5.65 -1.85 L9.55 -2.85 17.25 -4.6 Q17.5 -3.45 19.25 0.7 L21.95 7.5 23.95 15.15 Q24.7 18.0 25.35 19.15 L25.05 21.5 Q24.4 24.6 22.4 24.6 20.9 24.6 17.8 23.45 L16.35 23.3 Q14.85 23.1 13.3 22.1 L11.9 21.15 Q10.95 20.45 10.95 20.2 10.6 16.7 10.6 15.2 10.6 11.7 8.65 5.35 7.1 0.45 5.65 -1.85" fill="#aa8a71" fill-rule="evenodd" stroke="none"/>
      <path d="M18.25 -6.2 L18.1 -6.3 17.9 -6.2 Q12.85 -6.15 8.3 -5.05 3.6 -3.9 0.45 -1.85 L-0.9 -6.55 Q-2.95 -13.85 -2.95 -15.45 L-2.2 -19.1 Q-1.15 -22.65 0.15 -22.65 6.05 -22.65 13.0 -14.15 16.2 -10.3 18.55 -6.35 L18.25 -6.2" fill="#942403" fill-rule="evenodd" stroke="none"/>
    </g>
    <g id="shape6" transform="matrix(1.0, 0.0, 0.0, 1.0, -48.5, 43.45)">
      <path d="M71.5 -14.5 Q71.5 -15.95 72.55 -18.1 73.8 -20.55 75.25 -20.85 78.1 -21.4 80.05 -20.95 80.15 -20.25 81.25 -18.6 82.5 -16.7 82.5 -14.6 L82.4 -11.2 82.4 -10.65 81.95 -9.7 Q79.9 -5.6 78.3 -4.5 75.65 -6.05 73.55 -9.05 71.5 -12.1 71.5 -14.5" fill="#ffcc00" fill-rule="evenodd" stroke="none"/>
      <path d="M71.5 -14.5 Q71.5 -12.1 73.55 -9.05 75.65 -6.05 78.3 -4.5 79.9 -5.6 81.95 -9.7 L82.4 -10.65 82.4 -11.2 82.5 -14.6 Q82.5 -16.7 81.25 -18.6 80.15 -20.25 80.05 -20.95 78.1 -21.4 75.25 -20.85 73.8 -20.55 72.55 -18.1 71.5 -15.95 71.5 -14.5 M69.85 -21.05 L70.4 -21.75 71.65 -23.15 Q74.6 -25.85 78.8 -25.75 82.25 -25.65 83.55 -24.25 L84.8 -21.75 85.4 -20.6 Q87.5 -17.95 87.5 -15.0 87.5 -13.2 86.4 -10.9 85.3 -8.65 84.0 -8.1 L83.5 -7.0 81.85 -2.75 81.1 -1.45 75.25 -1.1 74.45 -1.45 73.0 -2.85 Q72.1 -3.95 70.5 -7.0 70.0 -7.9 68.75 -11.3 L67.5 -15.0 Q67.5 -17.6 69.85 -21.05" fill="#ff6633" fill-rule="evenodd" stroke="none"/>
      <path d="M78.05 -28.65 L77.95 -28.75 Q77.15 -29.6 74.0 -28.45 65.9 -25.5 63.4 -21.9 61.5 -19.25 61.5 -13.6 61.5 -10.0 61.8 -8.6 62.4 -5.8 64.5 -3.45 66.55 -1.25 70.3 0.95 75.35 3.9 79.5 3.9 87.25 3.9 91.75 -4.0 95.0 -9.6 95.0 -13.9 L94.9 -18.1 Q94.5 -20.5 92.5 -22.6 90.65 -24.35 86.5 -26.1 L85.8 -26.25 Q84.0 -27.6 80.9 -28.3 L78.05 -28.65 M79.25 -42.85 L78.5 -42.6 Q89.3 -40.55 93.0 -38.25 95.4 -36.75 100.0 -32.45 106.1 -27.8 107.1 -25.55 107.4 -24.8 107.4 -19.2 107.4 -9.95 102.5 -2.0 94.2 11.4 75.0 11.4 66.95 11.4 64.05 8.9 62.95 7.9 61.2 7.55 59.25 7.2 58.5 6.7 53.45 3.3 52.05 0.4 49.9 -3.95 49.15 -6.7 48.5 -9.1 48.5 -12.15 48.5 -17.9 50.9 -22.4 53.25 -26.9 59.05 -32.1 66.8 -39.05 75.65 -43.45 L79.75 -43.1 80.4 -43.1 79.25 -42.85" fill="#ff6633" fill-opacity="0.49803922" fill-rule="evenodd" stroke="none"/>
      <path d="M78.05 -28.65 L80.9 -28.3 Q84.0 -27.6 85.8 -26.25 L86.5 -26.1 Q90.65 -24.35 92.5 -22.6 94.5 -20.5 94.9 -18.1 L95.0 -13.9 Q95.0 -9.6 91.75 -4.0 87.25 3.9 79.5 3.9 75.35 3.9 70.3 0.95 66.55 -1.25 64.5 -3.45 62.4 -5.8 61.8 -8.6 61.5 -10.0 61.5 -13.6 61.5 -19.25 63.4 -21.9 65.9 -25.5 74.0 -28.45 77.15 -29.6 77.95 -28.75 L78.05 -28.65 M69.85 -21.05 Q67.5 -17.6 67.5 -15.0 L68.75 -11.3 Q70.0 -7.9 70.5 -7.0 72.1 -3.95 73.0 -2.85 L74.45 -1.45 75.25 -1.1 81.1 -1.45 81.85 -2.75 83.5 -7.0 84.0 -8.1 Q85.3 -8.65 86.4 -10.9 87.5 -13.2 87.5 -15.0 87.5 -17.95 85.4 -20.6 L84.8 -21.75 83.55 -24.25 Q82.25 -25.65 78.8 -25.75 74.6 -25.85 71.65 -23.15 L70.4 -21.75 69.85 -21.05" fill="#ffcc00" fill-opacity="0.49803922" fill-rule="evenodd" stroke="none"/>
    </g>
    <g id="shape7" transform="matrix(1.0, 0.0, 0.0, 1.0, 21.25, 30.35)">
      <path d="M-10.15 -3.4 L-10.8 -3.85 -14.1 -7.2 -14.35 -7.15 -14.9 -7.6 -15.05 -8.2 -15.4 -8.65 -14.85 -8.9 Q-14.1 -10.95 -11.1 -12.45 L-11.1 -13.15 -6.95 -17.0 -4.75 -18.75 -2.95 -20.05 -2.8 -20.3 -2.5 -20.45 -2.3 -20.45 -1.35 -20.35 Q-0.6 -20.15 -0.2 -19.3 L-0.05 -18.85 0.6 -18.15 1.0 -18.1 3.0 -16.55 4.1 -15.0 2.85 -12.9 1.6 -11.2 -0.5 -8.55 Q-0.1 -7.75 -0.8 -6.4 L-1.55 -6.4 -1.75 -5.65 -1.8 -5.35 -2.65 -5.6 -6.4 -5.85 -7.5 -5.65 Q-9.65 -5.15 -10.1 -3.45 L-10.15 -3.4 M3.7 2.1 L0.55 2.05 -0.85 2.05 -0.85 1.95 -0.15 1.85 0.15 -1.95 0.45 -5.15 1.3 -7.25 5.1 -11.5 6.4 -13.35 6.45 -13.35 7.15 -13.45 7.2 -11.3 Q7.25 -10.05 7.65 -7.9 L8.2 -4.55 8.3 -2.05 Q6.2 -2.4 5.35 -1.05 L3.7 1.75 3.7 2.1 M5.2 2.1 Q6.5 1.15 7.9 0.3 L8.7 2.2 5.2 2.1 M-8.65 -2.45 L-7.7 -2.8 -6.9 -3.15 -4.65 -3.8 -2.45 -3.4 -2.1 -3.3 -1.9 -1.05 -1.7 0.35 -1.75 0.35 -2.4 0.95 Q-3.5 0.15 -5.5 -0.8 L-7.75 -1.9 -8.65 -2.45" fill="#372c22" fill-rule="evenodd" stroke="none"/>
      <path d="M5.35 -26.95 Q8.45 -23.75 8.35 -21.05 L8.65 -20.55 Q9.1 -19.75 8.95 -19.05 L8.3 -17.1 Q8.65 -15.65 9.2 -14.5 9.1 -11.2 9.85 -7.5 10.7 -3.3 10.7 -1.0 L10.7 0.65 10.9 1.0 Q11.7 2.35 11.7 3.25 L11.55 4.15 9.65 4.25 -6.3 4.9 Q-6.75 4.0 -7.55 3.4 L-7.4 3.25 -7.6 2.5 -7.8 0.95 -7.8 0.65 Q-10.55 -0.9 -13.8 -3.55 -19.8 -8.4 -21.25 -12.15 L-20.95 -12.75 -21.25 -12.8 -17.5 -16.35 -11.7 -21.9 -7.45 -26.7 Q-5.45 -28.7 -3.85 -29.4 L-3.85 -29.5 1.0 -30.3 Q2.45 -29.9 5.35 -26.95 M-10.1 -3.45 Q-9.65 -5.15 -7.5 -5.65 L-6.4 -5.85 -2.65 -5.6 -1.8 -5.35 -1.75 -5.65 -1.55 -6.4 -0.8 -6.4 Q-0.1 -7.75 -0.5 -8.55 L1.6 -11.2 2.85 -12.9 4.1 -15.0 3.0 -16.55 1.0 -18.1 0.6 -18.15 -0.05 -18.85 -0.2 -19.3 Q-0.6 -20.15 -1.35 -20.35 L-2.3 -20.45 -2.5 -20.45 -2.8 -20.3 -2.95 -20.05 -4.75 -18.75 -6.95 -17.0 -11.1 -13.15 -11.1 -12.45 Q-14.1 -10.95 -14.85 -8.9 L-15.4 -8.65 -15.05 -8.2 -14.9 -7.6 -14.35 -7.15 -14.1 -7.2 -10.8 -3.85 -10.15 -3.4 -10.15 -3.3 -10.1 -3.45 M3.7 1.75 L5.35 -1.05 Q6.2 -2.4 8.3 -2.05 L8.2 -4.55 7.65 -7.9 Q7.25 -10.05 7.2 -11.3 L7.15 -13.45 6.45 -13.35 6.4 -13.35 5.1 -11.5 1.3 -7.25 0.45 -5.15 0.15 -1.95 -0.15 1.85 -0.85 1.95 -0.85 2.05 0.55 2.05 3.7 2.1 3.75 2.1 4.05 2.1 3.7 1.75 M5.2 2.1 L8.7 2.2 7.9 0.3 Q6.5 1.15 5.2 2.1 M-19.7 -12.9 L-19.9 -12.85 -19.8 -12.8 -19.7 -12.9 M-8.65 -2.45 L-7.75 -1.9 -5.5 -0.8 Q-3.5 0.15 -2.4 0.95 L-1.75 0.35 -1.7 0.35 -1.9 -1.05 -2.1 -3.3 -2.45 -3.4 -4.65 -3.8 -6.9 -3.15 -7.7 -2.8 -8.65 -2.45" fill="#000000" fill-rule="evenodd" stroke="none"/>
      <path d="M3.7 2.1 L3.7 1.75 3.75 2.1 3.7 2.1" fill="#5b6171" fill-rule="evenodd" stroke="none"/>
    </g>
    <g id="shape8" transform="matrix(1.0, 0.0, 0.0, 1.0, 13.75, 44.25)">
      <path d="M-3.2 -19.55 L-3.2 -19.6 -3.25 -23.1 -3.1 -26.95 Q-2.6 -29.85 -0.75 -30.25 3.5 -30.5 3.95 -27.2 L4.25 -22.2 4.25 -19.0 7.75 -18.45 Q7.25 -22.15 4.7 -28.55 L0.3 -39.25 Q-2.05 -35.85 -4.35 -29.4 L-7.7 -19.0 -4.25 -19.25 -3.2 -19.15 -3.15 -19.15 -3.2 -19.55 M1.45 -27.75 L1.25 -28.2 Q-1.95 -26.7 -1.7 -23.4 L-1.25 -20.45 -1.1 -18.75 2.45 -18.75 2.55 -18.85 1.95 -21.9 Q1.55 -24.75 1.75 -27.5 L1.45 -27.75 M5.45 -32.3 Q10.25 -20.5 10.25 -17.85 L10.0 -16.25 Q9.65 -15.75 8.5 -15.75 6.95 -15.75 5.35 -16.75 L4.25 -17.4 4.25 -17.25 3.6 -16.9 3.85 -13.65 3.75 -7.75 3.8 -1.2 3.75 3.5 3.7 13.05 Q6.45 13.4 9.8 16.55 13.25 19.8 13.25 20.9 L13.25 21.35 13.6 22.3 13.75 25.65 13.45 32.75 12.75 43.75 11.75 44.25 11.6 44.15 11.0 44.25 6.05 39.25 2.1 35.05 1.75 35.25 -1.95 35.25 -2.1 35.1 -2.1 35.05 -3.65 36.1 -6.7 38.0 Q-9.9 41.4 -11.75 42.75 -13.15 42.0 -13.55 39.05 L-13.75 34.15 Q-13.25 26.3 -13.25 22.55 -13.9 19.85 -10.6 16.95 -7.4 14.1 -2.85 13.35 L-2.75 4.75 -2.8 -1.45 -2.75 -7.7 -2.9 -13.9 -2.7 -16.75 -2.95 -16.75 -3.1 -16.9 -3.25 -17.55 -5.05 -17.1 -7.0 -16.75 Q-9.3 -16.75 -9.75 -17.85 L-9.75 -19.15 Q-9.75 -22.95 -4.9 -33.75 -1.05 -42.3 0.25 -44.25 1.15 -42.8 5.45 -32.3 M1.85 -16.75 L-0.85 -16.75 -0.65 -13.65 -0.75 -7.75 Q-0.65 -5.45 -0.7 -1.2 L-0.75 3.5 -0.85 15.2 Q-1.0 26.05 -1.35 32.5 L-0.55 32.6 0.2 32.9 0.9 32.75 1.45 32.7 1.3 31.9 1.25 29.4 1.75 4.75 1.7 -1.45 Q1.65 -5.2 1.75 -7.7 L1.6 -13.9 Q1.6 -15.55 1.85 -16.75 M3.85 14.9 L3.65 14.75 3.65 15.2 3.1 32.95 3.25 33.5 Q5.0 34.45 7.05 36.85 L10.75 41.25 10.75 40.15 11.25 21.8 11.25 21.7 8.35 19.05 3.85 14.9 M-11.6 39.2 Q-10.2 37.15 -7.4 35.5 L-2.95 33.1 -3.2 31.9 -3.25 29.4 -2.85 14.85 -5.8 16.35 Q-9.95 18.45 -10.45 21.05 L-10.85 25.4 Q-11.05 28.05 -11.75 29.3 L-11.75 39.05 -11.7 39.3 -11.6 39.2" fill="#000000" fill-rule="evenodd" stroke="none"/>
      <path d="M-3.2 -19.15 L-4.25 -19.25 -7.7 -19.0 -4.35 -29.4 Q-2.05 -35.85 0.3 -39.25 L4.7 -28.55 Q7.25 -22.15 7.75 -18.45 L4.25 -19.0 4.25 -22.2 3.95 -27.2 Q3.5 -30.5 -0.75 -30.25 -2.6 -29.85 -3.1 -26.95 L-3.25 -23.1 -3.2 -19.6 -3.2 -19.55 -3.2 -19.15 M1.45 -27.75 L1.75 -27.5 Q1.55 -24.75 1.95 -21.9 L2.55 -18.85 2.45 -18.75 -1.1 -18.75 -1.25 -20.45 -1.7 -23.4 Q-1.95 -26.7 1.25 -28.2 L1.45 -27.75" fill="#60606c" fill-rule="evenodd" stroke="none"/>
      <path d="M1.85 -16.75 Q1.6 -15.55 1.6 -13.9 L1.75 -7.7 Q1.65 -5.2 1.7 -1.45 L1.75 4.75 1.25 29.4 1.3 31.9 1.45 32.7 0.9 32.75 0.2 32.9 -0.55 32.6 -1.35 32.5 Q-1.0 26.05 -0.85 15.2 L-0.75 3.5 -0.7 -1.2 Q-0.65 -5.45 -0.75 -7.75 L-0.65 -13.65 -0.85 -16.75 1.85 -16.75" fill="#14100c" fill-rule="evenodd" stroke="none"/>
      <path d="M3.65 15.2 L3.85 14.9 8.35 19.05 11.25 21.7 11.25 21.8 10.75 40.15 10.75 41.25 7.05 36.85 Q5.0 34.45 3.25 33.5 L3.1 32.95 3.65 15.2 M-11.75 39.05 L-11.75 29.3 Q-11.05 28.05 -10.85 25.4 L-10.45 21.05 Q-9.95 18.45 -5.8 16.35 L-2.85 14.85 -3.25 29.4 -3.2 31.9 -2.95 33.1 -7.4 35.5 Q-10.2 37.15 -11.6 39.2 L-11.75 39.05" fill="#942403" fill-rule="evenodd" stroke="none"/>
    </g>
    <g id="shape9" transform="matrix(1.0, 0.0, 0.0, 1.0, -45.8, 50.35)">
      <path d="M60.75 -37.6 L60.55 -37.85 60.7 -37.8 60.75 -37.6 M59.5 -39.0 L59.0 -39.55 Q59.85 -43.75 60.55 -45.35 61.1 -46.6 62.2 -46.8 L61.65 -46.25 Q60.0 -44.35 60.0 -42.65 L60.05 -41.5 60.0 -41.55 60.0 -41.4 59.5 -41.05 59.5 -39.0 M70.7 -36.4 L72.65 -35.35 Q71.95 -35.2 70.7 -36.4 M62.9 -35.35 L63.0 -34.9 62.55 -31.2 Q62.45 -30.0 62.75 -28.85 L62.65 -28.95 Q62.0 -29.55 62.0 -30.7 62.0 -33.7 62.9 -35.35 M67.15 -26.75 L66.4 -29.35 Q67.05 -29.9 67.35 -30.6 L68.0 -31.75 Q69.0 -30.4 69.95 -29.9 70.75 -29.5 73.0 -28.8 L73.65 -28.2 Q77.5 -24.8 78.0 -24.8 78.15 -24.8 78.45 -25.15 L78.55 -25.15 79.0 -24.8 79.2 -24.9 80.5 -23.9 81.0 -23.55 81.75 -20.5 82.5 -17.1 Q81.5 -13.1 81.0 -12.9 L79.4 -12.6 78.0 -12.15 Q77.65 -11.9 77.5 -11.05 L77.3 -9.8 Q76.8 -11.3 76.0 -11.3 75.2 -11.3 75.05 -10.95 L75.0 -10.65 Q75.0 -9.9 74.75 -9.9 L71.0 -12.8 Q70.2 -12.8 70.05 -12.55 L70.0 -12.3 70.0 -16.9 69.35 -19.55 68.5 -21.8 67.15 -26.75 M70.0 -18.3 L70.1 -17.0 70.25 -18.2 70.0 -18.55 70.0 -18.3" fill="#ffcc00" fill-rule="evenodd" stroke="none"/>
      <path d="M62.2 -46.8 Q63.9 -48.2 65.8 -46.15 L65.9 -45.9 Q66.5 -45.15 66.5 -43.65 L67.05 -43.55 Q67.5 -44.05 67.5 -42.8 L66.8 -41.45 66.5 -40.85 66.5 -39.85 67.0 -39.8 Q68.2 -39.8 68.85 -38.85 L68.95 -38.7 70.55 -36.55 70.7 -36.4 Q71.95 -35.2 72.65 -35.35 L73.5 -35.8 Q74.2 -35.8 80.5 -29.05 L81.65 -28.05 83.0 -26.8 Q85.0 -23.8 85.0 -22.8 L85.0 -22.35 85.05 -22.25 86.0 -19.05 85.5 -14.15 84.95 -13.25 Q84.5 -12.8 84.5 -12.4 L84.5 -10.15 Q84.4 -9.55 83.6 -8.9 82.65 -8.1 80.6 -7.2 77.3 -5.8 75.5 -5.8 L74.45 -5.9 Q72.3 -6.25 69.8 -8.05 68.55 -8.6 67.95 -9.0 67.0 -9.7 67.0 -11.4 67.0 -13.15 66.15 -15.1 65.35 -16.9 65.5 -18.8 65.6 -20.45 65.0 -22.9 64.4 -25.45 63.5 -27.05 L62.75 -28.85 Q62.45 -30.0 62.55 -31.2 L63.0 -34.9 62.9 -35.35 62.8 -35.55 61.9 -36.35 Q61.1 -36.8 60.75 -37.6 L60.7 -37.8 60.55 -37.85 59.5 -38.05 59.5 -39.0 59.5 -41.05 60.0 -41.4 60.0 -41.55 60.05 -41.5 60.0 -42.65 Q60.0 -44.35 61.65 -46.25 L62.2 -46.8 M67.15 -26.75 L68.5 -21.8 69.35 -19.55 70.0 -16.9 70.0 -12.3 70.05 -12.55 Q70.2 -12.8 71.0 -12.8 L74.75 -9.9 Q75.0 -9.9 75.0 -10.65 L75.05 -10.95 Q75.2 -11.3 76.0 -11.3 76.8 -11.3 77.3 -9.8 L77.5 -11.05 Q77.65 -11.9 78.0 -12.15 L79.4 -12.6 81.0 -12.9 Q81.5 -13.1 82.5 -17.1 L81.75 -20.5 81.0 -23.55 80.5 -23.9 79.2 -24.9 79.0 -24.8 78.55 -25.15 78.45 -25.15 Q78.15 -24.8 78.0 -24.8 77.5 -24.8 73.65 -28.2 L73.0 -28.8 Q70.75 -29.5 69.95 -29.9 69.0 -30.4 68.0 -31.75 L67.35 -30.6 Q67.05 -29.9 66.4 -29.35 L67.15 -26.75" fill="#ff6633" fill-rule="evenodd" stroke="none"/>
      <path d="M68.95 -38.7 L68.85 -38.85 Q68.2 -39.8 67.0 -39.8 L66.5 -39.85 66.5 -40.85 66.8 -41.45 67.5 -42.8 Q67.5 -44.05 67.05 -43.55 L66.5 -43.65 Q66.5 -45.15 65.9 -45.9 L65.8 -46.15 Q63.9 -48.2 62.2 -46.8 61.1 -46.6 60.55 -45.35 59.85 -43.75 59.0 -39.55 L59.5 -39.0 59.5 -38.05 60.55 -37.85 60.75 -37.6 Q61.1 -36.8 61.9 -36.35 L62.8 -35.55 60.7 -34.0 Q58.55 -32.1 57.6 -29.1 56.7 -26.2 56.65 -21.85 56.6 -16.05 58.7 -12.45 62.55 -5.75 71.65 -5.8 L74.45 -5.9 75.5 -5.8 Q77.3 -5.8 80.6 -7.2 82.65 -8.1 83.6 -8.9 L85.45 -10.1 Q87.35 -11.65 88.15 -14.45 88.75 -16.9 88.2 -21.4 L88.0 -22.05 Q88.25 -24.3 87.3 -27.35 86.8 -28.95 86.15 -29.95 L86.2 -30.1 Q86.55 -31.25 84.0 -33.35 77.4 -38.9 73.0 -39.3 71.2 -39.45 68.95 -38.7 M57.1 -47.3 Q62.1 -50.2 67.2 -50.35 72.25 -50.6 79.65 -48.15 89.55 -44.9 97.8 -39.45 98.35 -37.75 99.5 -35.75 L99.85 -35.15 99.05 -36.0 98.5 -36.55 Q102.1 -26.15 101.95 -21.8 101.85 -18.95 100.45 -12.85 99.45 -5.25 98.0 -3.25 L92.7 0.15 Q84.65 4.8 75.35 4.5 59.55 4.05 49.95 -12.6 45.9 -19.55 46.65 -23.3 46.95 -24.8 46.4 -26.45 45.7 -28.35 45.8 -29.25 46.2 -35.3 48.0 -37.95 50.7 -42.0 52.7 -44.05 54.5 -45.8 57.1 -47.3" fill="#ff6633" fill-opacity="0.49803922" fill-rule="evenodd" stroke="none"/>
      <path d="M68.95 -38.7 Q71.2 -39.45 73.0 -39.3 77.4 -38.9 84.0 -33.35 86.55 -31.25 86.2 -30.1 L86.15 -29.95 Q86.8 -28.95 87.3 -27.35 88.25 -24.3 88.0 -22.05 L88.2 -21.4 Q88.75 -16.9 88.15 -14.45 87.35 -11.65 85.45 -10.1 L83.6 -8.9 Q84.4 -9.55 84.5 -10.15 L84.5 -12.4 Q84.5 -12.8 84.95 -13.25 L85.5 -14.15 86.0 -19.05 85.05 -22.25 85.0 -22.35 85.0 -22.8 Q85.0 -23.8 83.0 -26.8 L81.65 -28.05 80.5 -29.05 Q74.2 -35.8 73.5 -35.8 L72.65 -35.35 70.7 -36.4 70.55 -36.55 68.95 -38.7 M74.45 -5.9 L71.65 -5.8 Q62.55 -5.75 58.7 -12.45 56.6 -16.05 56.65 -21.85 56.7 -26.2 57.6 -29.1 58.55 -32.1 60.7 -34.0 L62.8 -35.55 62.9 -35.35 Q62.0 -33.7 62.0 -30.7 62.0 -29.55 62.65 -28.95 L62.75 -28.85 63.5 -27.05 Q64.4 -25.45 65.0 -22.9 65.6 -20.45 65.5 -18.8 65.35 -16.9 66.15 -15.1 67.0 -13.15 67.0 -11.4 67.0 -9.7 67.95 -9.0 68.55 -8.6 69.8 -8.05 72.3 -6.25 74.45 -5.9 M70.0 -18.3 L70.0 -18.55 70.25 -18.2 70.1 -17.0 70.0 -18.3" fill="#ffcc00" fill-opacity="0.49803922" fill-rule="evenodd" stroke="none"/>
    </g>
  </defs>
</svg>
