<?xml version="1.0" encoding="UTF-8" standalone="no"?>
<svg xmlns:ffdec="https://www.free-decompiler.com/flash" xmlns:xlink="http://www.w3.org/1999/xlink" ffdec:objectType="frame" height="178.35px" width="232.65px" xmlns="http://www.w3.org/2000/svg">
  <g transform="matrix(1.0, 0.0, 0.0, 1.0, 45.35, 18.7)">
    <use ffdec:characterId="730" height="178.35" transform="matrix(1.0, 0.0, 0.0, 1.0, -45.35, -18.7)" width="232.65" xlink:href="#morphshape0"/>
  </g>
  <defs>
    <g id="morphshape0" transform="matrix(1.0, 0.0, 0.0, 1.0, 45.35, 18.7)">
      <path d="M-20.25 35.35 Q-18.2 52.45 -12.2 69.65 5.2 121.7 33.05 150.5 L34.45 152.25 Q93.75 145.2 138.25 126.1 155.5 117.5 166.1 109.95 L165.2 104.35 Q163.15 92.8 159.45 81.15 151.05 53.9 137.15 31.9 125.45 11.6 114.15 -2.9 L111.15 -6.9 Q85.75 -4.2 61.5 1.3 29.2 8.85 5.1 19.95 -10.45 28.1 -20.2 35.4 M-11.45 30.35 L-11.4 30.5 Q-11.05 32.5 -8.45 33.8 L-5.55 35.95 Q-7.25 44.5 -6.05 48.6 -5.0 52.7 1.1 55.9 2.85 57.25 3.75 57.0 L3.95 57.0 Q3.85 57.2 3.05 57.55 L-0.6 60.9 0.95 60.95 Q1.7 60.25 1.0 60.7 L-1.6 63.0 -1.55 63.0 Q-1.05 63.2 -0.1 63.35 1.2 63.2 2.25 64.5 4.3 65.85 3.25 69.05 2.1 72.4 4.45 74.0 5.25 75.3 6.75 75.65 8.2 75.95 8.55 76.35 8.85 76.4 7.05 76.7 5.1 77.75 2.5 79.65 L2.4 79.8 2.4 79.85 Q2.35 80.75 2.05 79.75 1.7 78.6 1.65 79.3 L3.65 81.5 Q3.7 82.2 3.45 83.2 3.3 84.45 4.6 85.3 5.85 86.75 6.65 86.6 L7.1 86.5 Q7.75 85.55 7.25 86.3 6.7 86.55 5.4 86.9 L5.95 87.25 9.05 85.95 Q13.4 83.85 15.55 82.6 16.45 81.75 16.7 81.15 17.6 80.05 16.7 79.35 L17.1 79.2 Q19.55 78.35 21.6 77.85 25.1 76.95 29.65 76.5 L30.65 77.2 31.65 78.05 31.7 78.4 31.6 78.45 31.6 78.2 32.35 77.6 Q32.8 77.0 32.45 76.9 32.35 76.8 32.3 76.95 32.15 77.0 32.5 77.4 32.95 77.3 33.5 78.35 34.7 79.35 36.95 79.3 40.25 79.2 43.1 78.4 44.95 77.75 46.05 77.1 47.4 75.85 47.85 75.05 L48.35 75.05 Q50.2 75.05 51.9 74.0 53.65 73.0 56.05 73.05 56.3 74.05 56.9 74.3 58.35 75.2 61.6 75.3 64.2 75.35 65.6 74.9 L66.8 73.9 Q68.2 73.3 70.85 72.75 73.75 73.85 78.3 74.05 88.45 74.7 96.85 73.45 L97.1 73.4 101.15 74.55 Q106.6 76.15 110.8 76.6 114.55 77.0 117.8 75.65 120.0 74.5 121.0 73.95 122.9 72.2 121.25 73.65 121.25 74.2 121.1 75.05 L120.85 75.15 119.25 74.4 119.2 74.4 Q119.25 74.25 119.85 73.85 120.5 72.65 121.75 70.65 L122.9 68.4 123.3 68.05 123.35 67.85 123.3 67.8 120.9 67.35 118.35 65.35 Q117.3 63.55 115.6 61.7 114.4 60.4 113.6 59.45 114.55 57.8 114.45 56.3 114.3 53.75 112.3 51.8 110.5 49.3 107.8 47.3 L103.35 43.9 Q101.2 43.15 101.0 42.75 L101.15 42.8 Q101.65 42.2 104.05 40.75 105.8 39.6 106.6 38.1 107.1 37.35 107.15 36.4 L107.15 35.7 Q106.95 34.8 106.25 34.35 105.7 33.9 105.4 33.85 L105.0 33.8 103.4 32.25 103.0 31.5 Q102.85 31.1 102.9 30.65 102.9 30.15 103.35 29.8 L105.8 27.55 110.6 23.7 111.4 23.55 111.5 23.55 Q111.6 22.75 109.15 22.2 106.05 19.3 101.6 15.0 101.35 13.45 101.15 10.3 100.95 7.7 100.65 6.8 99.95 6.1 99.8 6.05 L99.7 6.15 99.7 6.15 Q99.7 6.2 99.95 6.25 99.45 5.8 98.8 5.55 L97.45 4.8 Q98.1 2.95 98.25 1.75 98.4 0.45 97.75 -0.7 L96.45 -1.05 Q89.75 -0.95 87.05 0.65 86.55 0.95 86.7 1.4 L86.65 2.5 82.55 3.9 Q81.6 4.15 80.95 4.65 L80.55 5.05 Q79.55 4.75 78.45 4.6 72.15 4.8 65.15 6.6 59.9 8.0 57.65 8.9 56.25 9.5 57.15 10.25 58.25 10.9 57.25 11.25 L52.85 12.65 Q49.25 13.9 47.35 14.75 L46.9 14.95 43.45 14.5 Q39.55 14.2 34.65 16.3 30.95 17.9 28.95 18.65 28.25 19.2 28.0 19.35 L28.0 19.65 Q28.25 19.05 27.7 17.65 27.75 16.2 27.35 15.95 27.35 16.65 27.55 16.95 27.35 17.0 26.35 17.95 L24.85 18.75 Q17.2 17.75 11.1 19.3 L7.1 22.4 Q5.4 24.5 4.55 25.2 -4.0 25.45 -10.65 29.15 L-12.05 29.85 M-4.35 42.95 L-3.25 48.45 Q-2.3 53.05 -0.7 55.3 1.5 57.7 2.75 58.1 L2.8 58.75 Q2.65 58.45 2.9 59.2 3.3 59.9 4.4 60.4 5.65 60.95 6.75 62.65 9.75 67.35 10.85 71.4 11.75 74.05 11.45 77.0 10.9 82.8 7.4 88.85 3.55 94.35 3.05 99.0 2.25 106.6 7.85 119.55 11.3 130.4 12.9 139.0 18.55 139.5 23.6 138.8 34.2 137.8 41.4 134.35 44.95 131.0 48.05 130.0 52.95 127.85 59.95 125.4 64.8 123.35 67.3 123.05 L68.6 122.05 Q69.75 121.15 70.0 121.15 72.8 121.45 75.3 126.05 78.8 128.8 82.05 133.5 L83.8 134.7 86.85 132.85 88.05 133.15 89.5 130.2 Q93.0 125.35 93.8 118.25 93.85 115.2 93.9 110.55 L93.8 106.0 Q93.45 102.9 91.95 100.9 89.75 98.05 87.7 95.2 86.2 94.05 85.6 92.95 85.2 92.5 85.05 92.4 84.75 92.45 84.85 91.8 L86.5 89.85 87.65 87.7 88.75 85.5 Q88.65 84.9 88.05 84.35 L84.5 78.6 Q84.25 75.45 85.2 70.8 86.3 64.7 90.05 59.45 93.5 55.3 94.35 52.0 95.05 49.15 94.1 47.6 93.6 45.6 92.65 44.35 L91.3 44.75 Q79.65 48.55 72.0 53.4 L69.8 54.65 Q67.05 56.1 65.05 57.95 56.95 55.85 48.8 54.75 48.65 52.7 45.45 51.65 43.55 51.0 41.9 48.75 39.15 46.75 34.3 44.35 29.05 41.9 23.1 40.55 16.8 39.05 10.9 39.55 2.8 39.9 -4.25 43.0 M30.75 60.0 L30.8 60.15 Q31.5 64.1 34.7 65.95 37.25 68.1 40.25 68.6 43.1 69.15 46.1 71.45 46.9 72.0 47.2 73.1 L47.35 74.75 46.55 76.8 Q43.95 77.35 43.15 80.05 42.7 81.45 42.75 83.85 L42.85 86.3 Q43.5 89.2 46.4 90.95 L54.25 97.15 Q61.5 100.55 63.6 101.05 64.5 101.6 66.9 101.45 L69.05 103.9 Q73.65 107.4 75.75 108.15 77.15 107.7 76.7 107.9 76.25 108.8 74.2 108.2 72.2 107.65 71.7 108.25 70.95 108.15 73.25 108.8 74.1 110.65 77.85 112.3 L78.8 113.05 79.05 113.0 80.85 114.15 81.05 115.7 Q80.95 116.35 82.05 117.05 82.45 117.45 83.0 117.6 84.3 118.0 86.25 117.85 92.55 117.5 95.55 113.85 97.25 112.05 98.2 109.9 L98.55 108.95 101.3 108.2 Q105.25 106.85 106.25 104.95 106.95 103.55 106.55 103.55 106.25 103.5 106.65 104.6 L106.9 105.35 106.95 105.3 106.15 104.55 106.25 103.95 107.35 102.2 Q115.25 103.05 120.5 100.5 123.55 98.6 124.55 97.15 126.65 95.55 124.9 94.6 122.55 93.6 124.5 93.25 126.25 92.3 131.7 90.6 133.0 91.05 133.85 91.7 L134.65 92.65 Q134.85 93.25 135.35 93.6 L136.0 94.15 Q137.2 94.65 139.05 94.8 140.9 94.9 141.8 93.95 142.45 93.4 142.85 92.75 143.75 91.95 143.3 91.3 146.7 90.15 147.65 89.75 148.25 89.15 147.6 89.55 147.6 90.15 147.35 91.45 L147.35 91.65 147.15 91.45 Q144.55 89.6 144.2 88.35 143.85 87.1 143.9 86.0 148.55 83.8 148.8 79.9 148.85 78.65 148.2 76.35 147.25 72.8 144.0 69.6 142.65 68.3 141.95 67.65 141.1 67.1 141.2 67.4 L141.3 67.4 Q141.55 67.2 142.25 66.6 143.35 65.8 143.7 65.45 L143.9 65.45 144.05 65.5 Q143.95 65.5 143.25 65.25 138.2 62.2 137.15 61.2 136.75 60.75 137.05 61.4 137.3 60.6 141.25 59.0 138.5 58.85 139.0 58.8 139.3 58.65 141.75 57.65 145.65 55.35 148.9 53.95 148.8 54.55 147.4 53.6 146.65 52.5 144.65 50.8 142.8 49.4 142.4 48.75 141.7 47.9 142.5 48.95 143.2 49.65 143.95 49.05 145.05 48.55 147.25 47.85 L145.6 46.25 Q138.9 41.95 141.35 43.65 L141.95 43.9 Q141.9 44.55 141.95 44.95 L140.75 48.8 Q137.3 51.4 131.15 52.2 131.2 51.3 130.6 51.15 127.3 47.6 121.45 50.75 L119.5 49.05 Q121.3 49.4 119.25 47.9 118.85 47.6 118.15 47.3 116.85 46.8 115.15 46.6 L108.55 46.75 Q106.3 46.85 105.15 48.2 104.1 48.75 103.3 50.45 L100.45 55.25 Q93.5 58.1 84.95 63.6 L77.8 63.4 Q72.1 61.2 69.4 57.4 67.35 53.8 63.3 52.4 L49.25 51.4 Q42.6 52.45 38.25 54.35 35.35 55.45 33.05 57.95 L30.7 59.85 M53.25 1.4 L53.95 4.5 Q54.75 7.7 55.9 10.8 61.1 28.5 65.5 45.1 67.05 52.9 67.7 60.75 67.8 68.35 66.6 78.05 66.2 80.35 65.2 82.55 71.7 80.45 78.4 79.3 82.05 78.65 85.2 77.45 88.45 76.45 91.65 76.25 94.35 76.05 98.3 77.1 102.0 77.65 106.7 78.5 117.85 80.3 130.0 82.3 L139.9 84.05 Q140.15 77.1 139.6 69.65 139.45 66.15 138.7 62.1 137.65 55.4 136.4 48.2 134.85 39.35 134.25 31.85 133.6 27.15 133.25 22.5 131.95 12.8 133.25 2.8 L124.75 3.75 Q120.15 3.9 116.5 3.75 L114.5 3.6 Q109.95 3.7 106.8 4.2 103.15 4.35 99.9 4.85 98.25 4.95 95.8 4.25 91.3 3.45 85.65 3.15 71.05 2.5 59.45 1.3 56.1 0.95 53.25 1.35 M34.75 57.75 L36.2 62.95 Q39.95 80.1 40.4 96.85 40.6 112.15 37.15 128.3 42.7 126.8 48.3 125.7 81.9 120.05 117.55 128.1 116.45 123.35 115.75 118.6 108.65 88.6 114.15 58.45 L114.8 55.8 Q74.75 64.4 34.75 57.7" fill="url(#gradient0)" fill-rule="evenodd" stroke="none"/>
      <path d="M-10.85 30.85 L-10.8 31.0 Q-10.45 33.0 -7.85 34.3 L-4.95 36.45 Q-6.65 45.0 -5.45 49.1 -4.4 53.2 1.7 56.4 3.45 57.75 4.35 57.5 L4.55 57.5 Q4.45 57.7 3.65 58.05 L0.0 61.4 1.55 61.45 Q2.3 60.75 1.6 61.2 L-1.0 63.5 -0.95 63.5 Q-0.45 63.7 0.5 63.85 1.8 63.7 2.85 65.0 4.9 66.35 3.85 69.55 2.7 72.9 5.05 74.5 5.85 75.8 7.35 76.15 8.8 76.45 9.15 76.85 9.45 76.9 7.65 77.2 5.7 78.25 3.1 80.15 L3.0 80.3 3.0 80.35 Q2.95 81.25 2.65 80.25 2.3 79.1 2.25 79.8 L4.25 82.0 Q4.3 82.7 4.05 83.7 3.9 84.95 5.2 85.8 6.45 87.25 7.25 87.1 L7.7 87.0 Q8.35 86.05 7.85 86.8 7.3 87.05 6.0 87.4 L6.55 87.75 9.65 86.45 Q14.0 84.35 16.15 83.1 17.05 82.25 17.3 81.65 18.2 80.55 17.3 79.85 L17.7 79.7 Q20.15 78.85 22.2 78.35 25.7 77.45 30.25 77.0 L31.25 77.7 32.25 78.55 32.3 78.9 32.2 78.95 32.2 78.7 32.95 78.1 Q33.4 77.5 33.05 77.4 32.95 77.3 32.9 77.45 32.75 77.5 33.1 77.9 33.55 77.8 34.1 78.85 35.3 79.85 37.55 79.8 40.85 79.7 43.7 78.9 45.55 78.25 46.65 77.6 48.0 76.35 48.45 75.55 L48.95 75.55 Q50.8 75.55 52.5 74.5 54.25 73.5 56.65 73.55 56.9 74.55 57.5 74.8 58.95 75.7 62.2 75.8 64.8 75.85 66.2 75.4 L67.4 74.4 Q68.8 73.8 71.45 73.25 74.35 74.35 78.9 74.55 89.05 75.2 97.45 73.95 L97.7 73.9 101.75 75.05 Q107.2 76.65 111.4 77.1 115.15 77.5 118.4 76.15 120.6 75.0 121.6 74.45 123.5 72.7 121.85 74.15 121.85 74.7 121.7 75.55 L121.45 75.65 119.85 74.9 119.8 74.9 Q119.85 74.75 120.45 74.35 121.1 73.15 122.35 71.15 L123.5 68.9 123.9 68.55 123.95 68.35 123.9 68.3 121.5 67.85 118.95 65.85 Q117.9 64.05 116.2 62.2 115.0 60.9 114.2 59.95 115.15 58.3 115.05 56.8 114.9 54.25 112.9 52.3 111.1 49.8 108.4 47.8 L103.95 44.4 Q101.8 43.65 101.6 43.25 L101.75 43.3 Q102.25 42.7 104.65 41.25 106.4 40.1 107.2 38.6 107.7 37.85 107.75 36.9 L107.75 36.2 Q107.55 35.3 106.85 34.85 106.3 34.4 106.0 34.35 L105.6 34.3 104.0 32.75 103.6 32.0 Q103.45 31.6 103.5 31.15 103.5 30.65 103.95 30.3 L106.4 28.05 111.2 24.2 112.0 24.05 112.1 24.05 Q112.2 23.25 109.75 22.7 106.65 19.8 102.2 15.5 101.95 13.95 101.75 10.8 101.55 8.2 101.25 7.3 100.55 6.6 100.4 6.55 L100.3 6.65 100.3 6.65 Q100.3 6.7 100.55 6.75 100.05 6.3 99.4 6.05 L98.05 5.3 Q98.7 3.45 98.85 2.25 99.0 0.95 98.35 -0.2 L97.05 -0.55 Q90.35 -0.45 87.65 1.15 87.15 1.45 87.3 1.9 L87.25 3.0 83.15 4.4 Q82.2 4.65 81.55 5.15 L81.15 5.55 Q80.15 5.25 79.05 5.1 72.75 5.3 65.75 7.1 60.5 8.5 58.25 9.4 56.85 10.0 57.75 10.75 58.85 11.4 57.85 11.75 L53.45 13.15 Q49.85 14.4 47.95 15.25 L47.5 15.45 44.05 15.0 Q40.15 14.7 35.25 16.8 31.55 18.4 29.55 19.15 28.85 19.7 28.6 19.85 L28.6 20.15 Q28.85 19.55 28.3 18.15 28.35 16.7 27.95 16.45 27.95 17.15 28.15 17.45 27.95 17.5 26.95 18.45 L25.45 19.25 Q17.8 18.25 11.7 19.8 L7.7 22.9 Q6.0 25.0 5.15 25.7 -3.4 25.95 -10.05 29.65 L-11.45 30.35 M-4.45 42.9 L-3.35 48.4 Q-2.4 53.0 -0.8 55.25 1.4 57.65 2.65 58.05 L2.7 58.7 Q2.55 58.4 2.8 59.15 3.2 59.85 4.3 60.35 5.55 60.9 6.65 62.6 9.65 67.3 10.75 71.35 11.65 74.0 11.35 76.95 10.8 82.75 7.3 88.8 3.45 94.3 2.95 98.95 2.15 106.55 7.75 119.5 11.2 130.35 12.8 138.95 18.45 139.45 23.5 138.75 34.1 137.75 41.3 134.3 44.85 130.95 47.95 129.95 52.85 127.8 59.85 125.35 64.7 123.3 67.2 123.0 L68.5 122.0 Q69.65 121.1 69.9 121.1 72.7 121.4 75.2 126.0 78.7 128.75 81.95 133.45 L83.7 134.65 86.75 132.8 87.95 133.1 89.4 130.15 Q92.9 125.3 93.7 118.2 93.75 115.15 93.8 110.5 L93.7 105.95 Q93.35 102.85 91.85 100.85 89.65 98.0 87.6 95.15 86.1 94.0 85.5 92.9 85.1 92.45 84.95 92.35 84.65 92.4 84.75 91.75 L86.4 89.8 87.55 87.65 88.65 85.45 Q88.55 84.85 87.95 84.3 L84.4 78.55 Q84.15 75.4 85.1 70.75 86.2 64.65 89.95 59.4 93.4 55.25 94.25 51.95 94.95 49.1 94.0 47.55 93.5 45.55 92.55 44.3 L91.2 44.7 Q79.55 48.5 71.9 53.35 L69.7 54.6 Q66.95 56.05 64.95 57.9 56.85 55.8 48.7 54.7 48.55 52.65 45.35 51.6 43.45 50.95 41.8 48.7 39.05 46.7 34.2 44.3 28.95 41.85 23.0 40.5 16.7 39.0 10.8 39.5 2.7 39.85 -4.35 42.95 M34.75 57.7 L36.2 62.9 Q39.95 80.05 40.4 96.8 40.6 112.1 37.15 128.25 42.7 126.75 48.3 125.65 81.9 120.0 117.55 128.05 116.45 123.3 115.75 118.55 108.65 88.55 114.15 58.4 L114.8 55.75 Q74.75 64.35 34.75 57.65 M30.8 60.15 L30.85 60.3 Q31.55 64.25 34.75 66.1 37.3 68.25 40.3 68.75 43.15 69.3 46.15 71.6 46.95 72.15 47.25 73.25 L47.4 74.9 46.6 76.95 Q44.0 77.5 43.2 80.2 42.75 81.6 42.8 84.0 L42.9 86.45 Q43.55 89.35 46.45 91.1 L54.3 97.3 Q61.55 100.7 63.65 101.2 64.55 101.75 66.95 101.6 L69.1 104.05 Q73.7 107.55 75.8 108.3 77.2 107.85 76.75 108.05 76.3 108.95 74.25 108.35 72.25 107.8 71.75 108.4 71.0 108.3 73.3 108.95 74.15 110.8 77.9 112.45 L78.85 113.2 79.1 113.15 80.9 114.3 81.1 115.85 Q81.0 116.5 82.1 117.2 82.5 117.6 83.05 117.75 84.35 118.15 86.3 118.0 92.6 117.65 95.6 114.0 97.3 112.2 98.25 110.05 L98.6 109.1 101.35 108.35 Q105.3 107.0 106.3 105.1 107.0 103.7 106.6 103.7 106.3 103.65 106.7 104.75 L106.95 105.5 107.0 105.45 106.2 104.7 106.3 104.1 107.4 102.35 Q115.3 103.2 120.55 100.65 123.6 98.75 124.6 97.3 126.7 95.7 124.95 94.75 122.6 93.75 124.55 93.4 126.3 92.45 131.75 90.75 133.05 91.2 133.9 91.85 L134.7 92.8 Q134.9 93.4 135.4 93.75 L136.05 94.3 Q137.25 94.8 139.1 94.95 140.95 95.05 141.85 94.1 142.5 93.55 142.9 92.9 143.8 92.1 143.35 91.45 146.75 90.3 147.7 89.9 148.3 89.3 147.65 89.7 147.65 90.3 147.4 91.6 L147.4 91.8 147.2 91.6 Q144.6 89.75 144.25 88.5 143.9 87.25 143.95 86.15 148.6 83.95 148.85 80.05 148.9 78.8 148.25 76.5 147.3 72.95 144.05 69.75 142.7 68.45 142.0 67.8 141.15 67.25 141.25 67.55 L141.35 67.55 Q141.6 67.35 142.3 66.75 143.4 65.95 143.75 65.6 L143.95 65.6 144.1 65.65 Q144.0 65.65 143.3 65.4 138.25 62.35 137.2 61.35 136.8 60.9 137.1 61.55 137.35 60.75 141.3 59.15 138.55 59.0 139.05 58.95 139.35 58.8 141.8 57.8 145.7 55.5 148.95 54.1 148.85 54.7 147.45 53.75 146.7 52.65 144.7 50.95 142.85 49.55 142.45 48.9 141.75 48.05 142.55 49.1 143.25 49.8 144.0 49.2 145.1 48.7 147.3 48.0 L145.65 46.4 Q138.95 42.1 141.4 43.8 L142.0 44.05 Q141.95 44.7 142.0 45.1 L140.8 48.95 Q137.35 51.55 131.2 52.35 131.25 51.45 130.65 51.3 127.35 47.75 121.5 50.9 L119.55 49.2 Q121.35 49.55 119.3 48.05 118.9 47.75 118.2 47.45 116.9 46.95 115.2 46.75 L108.6 46.9 Q106.35 47.0 105.2 48.35 104.15 48.9 103.35 50.6 L100.5 55.4 Q93.55 58.25 85.0 63.75 L77.85 63.55 Q72.15 61.35 69.45 57.55 67.4 53.95 63.35 52.55 L49.3 51.55 Q42.65 52.6 38.3 54.5 35.4 55.6 33.1 58.1 L30.75 60.0 M53.25 1.45 L53.95 4.55 Q54.75 7.75 55.9 10.85 61.1 28.55 65.5 45.15 67.05 52.95 67.7 60.8 67.8 68.4 66.6 78.1 66.2 80.4 65.2 82.6 71.7 80.5 78.4 79.35 82.05 78.7 85.2 77.5 88.45 76.5 91.65 76.3 94.35 76.1 98.3 77.15 102.0 77.7 106.7 78.55 117.85 80.35 130.0 82.35 L139.9 84.1 Q140.15 77.15 139.6 69.7 139.45 66.2 138.7 62.15 137.65 55.45 136.4 48.25 134.85 39.4 134.25 31.9 133.6 27.2 133.25 22.55 131.95 12.85 133.25 2.85 L124.75 3.8 Q120.15 3.95 116.5 3.8 L114.5 3.65 Q109.95 3.75 106.8 4.25 103.15 4.4 99.9 4.9 98.25 5.0 95.8 4.3 91.3 3.5 85.65 3.2 71.05 2.55 59.45 1.35 56.1 1.0 53.25 1.4" fill="url(#gradient1)" fill-rule="evenodd" stroke="none"/>
      <path d="M-20.15 35.45 Q-10.4 28.15 5.15 20.0 29.25 8.9 61.55 1.35 85.8 -4.15 111.2 -6.85 L114.2 -2.85 Q125.5 11.65 137.2 31.95 151.1 53.95 159.5 81.2 163.2 92.85 165.25 104.4 L166.15 110.0 Q155.55 117.55 138.3 126.15 93.8 145.25 34.5 152.3 L33.1 150.55 Q5.25 121.75 -12.15 69.7 -18.15 52.5 -20.2 35.4 -10.45 28.1 5.1 19.95 29.2 8.85 61.5 1.3 85.75 -4.2 111.15 -6.9 L114.15 -2.9 Q125.45 11.6 137.15 31.9 151.05 53.9 159.45 81.15 163.15 92.8 165.2 104.35 L166.1 109.95 Q155.5 117.5 138.25 126.1 93.75 145.2 34.45 152.25 L33.05 150.5 Q5.2 121.7 -12.2 69.65 -18.2 52.45 -20.25 35.35" fill="none" stroke="#465966" stroke-linecap="round" stroke-linejoin="round" stroke-opacity="0.3529412" stroke-width="5.050000000000001"/>
      <path d="M-12.05 29.85 L-10.65 29.15 Q-4.0 25.45 4.55 25.2 5.4 24.5 7.1 22.4 L11.1 19.3 Q17.2 17.75 24.85 18.75 L26.35 17.95 Q27.35 17.0 27.55 16.95 27.35 16.65 27.35 15.95 27.75 16.2 27.7 17.65 28.25 19.05 28.0 19.65 L28.0 19.35 Q28.25 19.2 28.95 18.65 30.95 17.9 34.65 16.3 39.55 14.2 43.45 14.5 L46.9 14.95 47.35 14.75 Q49.25 13.9 52.85 12.65 L57.25 11.25 Q58.25 10.9 57.15 10.25 56.25 9.5 57.65 8.9 59.9 8.0 65.15 6.6 72.15 4.8 78.45 4.6 79.55 4.75 80.55 5.05 L80.95 4.65 Q81.6 4.15 82.55 3.9 L86.65 2.5 86.7 1.4 Q86.55 0.95 87.05 0.65 89.75 -0.95 96.45 -1.05 L97.75 -0.7 Q98.4 0.45 98.25 1.75 98.1 2.95 97.45 4.8 L98.8 5.55 Q99.45 5.8 99.95 6.25 99.7 6.2 99.7 6.15 L99.7 6.15 99.8 6.05 Q99.95 6.1 100.65 6.8 100.95 7.7 101.15 10.3 101.35 13.45 101.6 15.0 106.05 19.3 109.15 22.2 111.6 22.75 111.5 23.55 L111.4 23.55 110.6 23.7 105.8 27.55 103.35 29.8 Q102.9 30.15 102.9 30.65 102.85 31.1 103.0 31.5 L103.4 32.25 105.0 33.8 105.4 33.85 Q105.7 33.9 106.25 34.35 106.95 34.8 107.15 35.7 L107.15 36.4 Q107.1 37.35 106.6 38.1 105.8 39.6 104.05 40.75 101.65 42.2 101.15 42.8 L101.0 42.75 Q101.2 43.15 103.35 43.9 L107.8 47.3 Q110.5 49.3 112.3 51.8 114.3 53.75 114.45 56.3 114.55 57.8 113.6 59.45 114.4 60.4 115.6 61.7 117.3 63.55 118.35 65.35 L120.9 67.35 123.3 67.8 123.35 67.85 123.3 68.05 122.9 68.4 121.75 70.65 Q120.5 72.65 119.85 73.85 119.25 74.25 119.2 74.4 L119.25 74.4 120.85 75.15 121.1 75.05 Q121.25 74.2 121.25 73.65 122.9 72.2 121.0 73.95 120.0 74.5 117.8 75.65 114.55 77.0 110.8 76.6 106.6 76.15 101.15 74.55 L97.1 73.4 96.85 73.45 Q88.45 74.7 78.3 74.05 73.75 73.85 70.85 72.75 68.2 73.3 66.8 73.9 L65.6 74.9 Q64.2 75.35 61.6 75.3 58.35 75.2 56.9 74.3 56.3 74.05 56.05 73.05 53.65 73.0 51.9 74.0 50.2 75.05 48.35 75.05 L47.85 75.05 Q47.4 75.85 46.05 77.1 44.95 77.75 43.1 78.4 40.25 79.2 36.95 79.3 34.7 79.35 33.5 78.35 32.95 77.3 32.5 77.4 32.15 77.0 32.3 76.95 32.35 76.8 32.45 76.9 32.8 77.0 32.35 77.6 L31.6 78.2 31.6 78.45 31.7 78.4 31.65 78.05 30.65 77.2 29.65 76.5 Q25.1 76.95 21.6 77.85 19.55 78.35 17.1 79.2 L16.7 79.35 Q17.6 80.05 16.7 81.15 16.45 81.75 15.55 82.6 13.4 83.85 9.05 85.95 L5.95 87.25 5.4 86.9 Q6.7 86.55 7.25 86.3 7.75 85.55 7.1 86.5 L6.65 86.6 Q5.85 86.75 4.6 85.3 3.3 84.45 3.45 83.2 3.7 82.2 3.65 81.5 L1.65 79.3 Q1.7 78.6 2.05 79.75 2.35 80.75 2.4 79.85 L2.4 79.8 2.5 79.65 Q5.1 77.75 7.05 76.7 8.85 76.4 8.55 76.35 8.2 75.95 6.75 75.65 5.25 75.3 4.45 74.0 2.1 72.4 3.25 69.05 4.3 65.85 2.25 64.5 1.2 63.2 -0.1 63.35 -1.05 63.2 -1.55 63.0 L-1.6 63.0 1.0 60.7 Q1.7 60.25 0.95 60.95 L-0.6 60.9 3.05 57.55 Q3.85 57.2 3.95 57.0 L3.75 57.0 Q2.85 57.25 1.1 55.9 -5.0 52.7 -6.05 48.6 -7.25 44.5 -5.55 35.95 L-8.45 33.8 Q-11.05 32.5 -11.4 30.5 L-11.45 30.35 -10.05 29.65 Q-3.4 25.95 5.15 25.7 6.0 25.0 7.7 22.9 L11.7 19.8 Q17.8 18.25 25.45 19.25 L26.95 18.45 Q27.95 17.5 28.15 17.45 27.95 17.15 27.95 16.45 28.35 16.7 28.3 18.15 28.85 19.55 28.6 20.15 L28.6 19.85 Q28.85 19.7 29.55 19.15 31.55 18.4 35.25 16.8 40.15 14.7 44.05 15.0 L47.5 15.45 47.95 15.25 Q49.85 14.4 53.45 13.15 L57.85 11.75 Q58.85 11.4 57.75 10.75 56.85 10.0 58.25 9.4 60.5 8.5 65.75 7.1 72.75 5.3 79.05 5.1 80.15 5.25 81.15 5.55 L81.55 5.15 Q82.2 4.65 83.15 4.4 L87.25 3.0 87.3 1.9 Q87.15 1.45 87.65 1.15 90.35 -0.45 97.05 -0.55 L98.35 -0.2 Q99.0 0.95 98.85 2.25 98.7 3.45 98.05 5.3 L99.4 6.05 Q100.05 6.3 100.55 6.75 100.3 6.7 100.3 6.65 L100.3 6.65 100.4 6.55 Q100.55 6.6 101.25 7.3 101.55 8.2 101.75 10.8 101.95 13.95 102.2 15.5 106.65 19.8 109.75 22.7 112.2 23.25 112.1 24.05 L112.0 24.05 111.2 24.2 106.4 28.05 103.95 30.3 Q103.5 30.65 103.5 31.15 103.45 31.6 103.6 32.0 L104.0 32.75 105.6 34.3 106.0 34.35 Q106.3 34.4 106.85 34.85 107.55 35.3 107.75 36.2 L107.75 36.9 Q107.7 37.85 107.2 38.6 106.4 40.1 104.65 41.25 102.25 42.7 101.75 43.3 L101.6 43.25 Q101.8 43.65 103.95 44.4 L108.4 47.8 Q111.1 49.8 112.9 52.3 114.9 54.25 115.05 56.8 115.15 58.3 114.2 59.95 115.0 60.9 116.2 62.2 117.9 64.05 118.95 65.85 L121.5 67.85 123.9 68.3 123.95 68.35 123.9 68.55 123.5 68.9 122.35 71.15 Q121.1 73.15 120.45 74.35 119.85 74.75 119.8 74.9 L119.85 74.9 121.45 75.65 121.7 75.55 Q121.85 74.7 121.85 74.15 123.5 72.7 121.6 74.45 120.6 75.0 118.4 76.15 115.15 77.5 111.4 77.1 107.2 76.65 101.75 75.05 L97.7 73.9 97.45 73.95 Q89.05 75.2 78.9 74.55 74.35 74.35 71.45 73.25 68.8 73.8 67.4 74.4 L66.2 75.4 Q64.8 75.85 62.2 75.8 58.95 75.7 57.5 74.8 56.9 74.55 56.65 73.55 54.25 73.5 52.5 74.5 50.8 75.55 48.95 75.55 L48.45 75.55 Q48.0 76.35 46.65 77.6 45.55 78.25 43.7 78.9 40.85 79.7 37.55 79.8 35.3 79.85 34.1 78.85 33.55 77.8 33.1 77.9 32.75 77.5 32.9 77.45 32.95 77.3 33.05 77.4 33.4 77.5 32.95 78.1 L32.2 78.7 32.2 78.95 32.3 78.9 32.25 78.55 31.25 77.7 30.25 77.0 Q25.7 77.45 22.2 78.35 20.15 78.85 17.7 79.7 L17.3 79.85 Q18.2 80.55 17.3 81.65 17.05 82.25 16.15 83.1 14.0 84.35 9.65 86.45 L6.55 87.75 6.0 87.4 Q7.3 87.05 7.85 86.8 8.35 86.05 7.7 87.0 L7.25 87.1 Q6.45 87.25 5.2 85.8 3.9 84.95 4.05 83.7 4.3 82.7 4.25 82.0 L2.25 79.8 Q2.3 79.1 2.65 80.25 2.95 81.25 3.0 80.35 L3.0 80.3 3.1 80.15 Q5.7 78.25 7.65 77.2 9.45 76.9 9.15 76.85 8.8 76.45 7.35 76.15 5.85 75.8 5.05 74.5 2.7 72.9 3.85 69.55 4.9 66.35 2.85 65.0 1.8 63.7 0.5 63.85 -0.45 63.7 -0.95 63.5 L-1.0 63.5 1.6 61.2 Q2.3 60.75 1.55 61.45 L0.0 61.4 3.65 58.05 Q4.45 57.7 4.55 57.5 L4.35 57.5 Q3.45 57.75 1.7 56.4 -4.4 53.2 -5.45 49.1 -6.65 45.0 -4.95 36.45 L-7.85 34.3 Q-10.45 33.0 -10.8 31.0 L-10.85 30.85 M-4.25 43.0 Q2.8 39.9 10.9 39.55 16.8 39.05 23.1 40.55 29.05 41.9 34.3 44.35 39.15 46.75 41.9 48.75 43.55 51.0 45.45 51.65 48.65 52.7 48.8 54.75 56.95 55.85 65.05 57.95 67.05 56.1 69.8 54.65 L72.0 53.4 Q79.65 48.55 91.3 44.75 L92.65 44.35 Q93.6 45.6 94.1 47.6 95.05 49.15 94.35 52.0 93.5 55.3 90.05 59.45 86.3 64.7 85.2 70.8 84.25 75.45 84.5 78.6 L88.05 84.35 Q88.65 84.9 88.75 85.5 L87.65 87.7 86.5 89.85 84.85 91.8 Q84.75 92.45 85.05 92.4 85.2 92.5 85.6 92.95 86.2 94.05 87.7 95.2 89.75 98.05 91.95 100.9 93.45 102.9 93.8 106.0 L93.9 110.55 Q93.85 115.2 93.8 118.25 93.0 125.35 89.5 130.2 L88.05 133.15 86.85 132.85 83.8 134.7 82.05 133.5 Q78.8 128.8 75.3 126.05 72.8 121.45 70.0 121.15 69.75 121.15 68.6 122.05 L67.3 123.05 Q64.8 123.35 59.95 125.4 52.95 127.85 48.05 130.0 44.95 131.0 41.4 134.35 34.2 137.8 23.6 138.8 18.55 139.5 12.9 139.0 11.3 130.4 7.85 119.55 2.25 106.6 3.05 99.0 3.55 94.35 7.4 88.85 10.9 82.8 11.45 77.0 11.75 74.05 10.85 71.4 9.75 67.35 6.75 62.65 5.65 60.95 4.4 60.4 3.3 59.9 2.9 59.2 2.65 58.45 2.8 58.75 L2.75 58.1 Q1.5 57.7 -0.7 55.3 -2.3 53.05 -3.25 48.45 L-4.35 42.95 Q2.7 39.85 10.8 39.5 16.7 39.0 23.0 40.5 28.95 41.85 34.2 44.3 39.05 46.7 41.8 48.7 43.45 50.95 45.35 51.6 48.55 52.65 48.7 54.7 56.85 55.8 64.95 57.9 66.95 56.05 69.7 54.6 L71.9 53.35 Q79.55 48.5 91.2 44.7 L92.55 44.3 Q93.5 45.55 94.0 47.55 94.95 49.1 94.25 51.95 93.4 55.25 89.95 59.4 86.2 64.65 85.1 70.75 84.15 75.4 84.4 78.55 L87.95 84.3 Q88.55 84.85 88.65 85.45 L87.55 87.65 86.4 89.8 84.75 91.75 Q84.65 92.4 84.95 92.35 85.1 92.45 85.5 92.9 86.1 94.0 87.6 95.15 89.65 98.0 91.85 100.85 93.35 102.85 93.7 105.95 L93.8 110.5 Q93.75 115.15 93.7 118.2 92.9 125.3 89.4 130.15 L87.95 133.1 86.75 132.8 83.7 134.65 81.95 133.45 Q78.7 128.75 75.2 126.0 72.7 121.4 69.9 121.1 69.65 121.1 68.5 122.0 L67.2 123.0 Q64.7 123.3 59.85 125.35 52.85 127.8 47.95 129.95 44.85 130.95 41.3 134.3 34.1 137.75 23.5 138.75 18.45 139.45 12.8 138.95 11.2 130.35 7.75 119.5 2.15 106.55 2.95 98.95 3.45 94.3 7.3 88.8 10.8 82.75 11.35 76.95 11.65 74.0 10.75 71.35 9.65 67.3 6.65 62.6 5.55 60.9 4.3 60.35 3.2 59.85 2.8 59.15 2.55 58.4 2.7 58.7 L2.65 58.05 Q1.4 57.65 -0.8 55.25 -2.4 53.0 -3.35 48.4 L-4.45 42.9 M30.7 59.85 L33.05 57.95 Q35.35 55.45 38.25 54.35 42.6 52.45 49.25 51.4 L63.3 52.4 Q67.35 53.8 69.4 57.4 72.1 61.2 77.8 63.4 L84.95 63.6 Q93.5 58.1 100.45 55.25 L103.3 50.45 Q104.1 48.75 105.15 48.2 106.3 46.85 108.55 46.75 L115.15 46.6 Q116.85 46.8 118.15 47.3 118.85 47.6 119.25 47.9 121.3 49.4 119.5 49.05 L121.45 50.75 Q127.3 47.6 130.6 51.15 131.2 51.3 131.15 52.2 137.3 51.4 140.75 48.8 L141.95 44.95 Q141.9 44.55 141.95 43.9 L141.35 43.65 Q138.9 41.95 145.6 46.25 L147.25 47.85 Q145.05 48.55 143.95 49.05 143.2 49.65 142.5 48.95 141.7 47.9 142.4 48.75 142.8 49.4 144.65 50.8 146.65 52.5 147.4 53.6 148.8 54.55 148.9 53.95 145.65 55.35 141.75 57.65 139.3 58.65 139.0 58.8 138.5 58.85 141.25 59.0 137.3 60.6 137.05 61.4 136.75 60.75 137.15 61.2 138.2 62.2 143.25 65.25 143.95 65.5 144.05 65.5 L143.9 65.45 143.7 65.45 Q143.35 65.8 142.25 66.6 141.55 67.2 141.3 67.4 L141.2 67.4 Q141.1 67.1 141.95 67.65 142.65 68.3 144.0 69.6 147.25 72.8 148.2 76.35 148.85 78.65 148.8 79.9 148.55 83.8 143.9 86.0 143.85 87.1 144.2 88.35 144.55 89.6 147.15 91.45 L147.35 91.65 147.35 91.45 Q147.6 90.15 147.6 89.55 148.25 89.15 147.65 89.75 146.7 90.15 143.3 91.3 143.75 91.95 142.85 92.75 142.45 93.4 141.8 93.95 140.9 94.9 139.05 94.8 137.2 94.65 136.0 94.15 L135.35 93.6 Q134.85 93.25 134.65 92.65 L133.85 91.7 Q133.0 91.05 131.7 90.6 126.25 92.3 124.5 93.25 122.55 93.6 124.9 94.6 126.65 95.55 124.55 97.15 123.55 98.6 120.5 100.5 115.25 103.05 107.35 102.2 L106.25 103.95 106.15 104.55 106.95 105.3 106.9 105.35 106.65 104.6 Q106.25 103.5 106.55 103.55 106.95 103.55 106.25 104.95 105.25 106.85 101.3 108.2 L98.55 108.95 98.2 109.9 Q97.25 112.05 95.55 113.85 92.55 117.5 86.25 117.85 84.3 118.0 83.0 117.6 82.45 117.45 82.05 117.05 80.95 116.35 81.05 115.7 L80.85 114.15 79.05 113.0 78.8 113.05 77.85 112.3 Q74.1 110.65 73.25 108.8 70.95 108.15 71.7 108.25 72.2 107.65 74.2 108.2 76.25 108.8 76.7 107.9 77.15 107.7 75.75 108.15 73.65 107.4 69.05 103.9 L66.9 101.45 Q64.5 101.6 63.6 101.05 61.5 100.55 54.25 97.15 L46.4 90.95 Q43.5 89.2 42.85 86.3 L42.75 83.85 Q42.7 81.45 43.15 80.05 43.95 77.35 46.55 76.8 L47.35 74.75 47.2 73.1 Q46.9 72.0 46.1 71.45 43.1 69.15 40.25 68.6 37.25 68.1 34.7 65.95 31.5 64.1 30.8 60.15 L30.75 60.0 33.1 58.1 Q35.4 55.6 38.3 54.5 42.65 52.6 49.3 51.55 L63.35 52.55 Q67.4 53.95 69.45 57.55 72.15 61.35 77.85 63.55 L85.0 63.75 Q93.55 58.25 100.5 55.4 L103.35 50.6 Q104.15 48.9 105.2 48.35 106.35 47.0 108.6 46.9 L115.2 46.75 Q116.9 46.95 118.2 47.45 118.9 47.75 119.3 48.05 121.35 49.55 119.55 49.2 L121.5 50.9 Q127.35 47.75 130.65 51.3 131.25 51.45 131.2 52.35 137.35 51.55 140.8 48.95 L142.0 45.1 Q141.95 44.7 142.0 44.05 L141.4 43.8 Q138.95 42.1 145.65 46.4 L147.3 48.0 Q145.1 48.7 144.0 49.2 143.25 49.8 142.55 49.1 141.75 48.05 142.45 48.9 142.85 49.55 144.7 50.95 146.7 52.65 147.45 53.75 148.85 54.7 148.95 54.1 145.7 55.5 141.8 57.8 139.35 58.8 139.05 58.95 138.55 59.0 141.3 59.15 137.35 60.75 137.1 61.55 136.8 60.9 137.2 61.35 138.25 62.35 143.3 65.4 144.0 65.65 144.1 65.65 L143.95 65.6 143.75 65.6 Q143.4 65.95 142.3 66.75 141.6 67.35 141.35 67.55 L141.25 67.55 Q141.15 67.25 142.0 67.8 142.7 68.45 144.05 69.75 147.3 72.95 148.25 76.5 148.9 78.8 148.85 80.05 148.6 83.95 143.95 86.15 143.9 87.25 144.25 88.5 144.6 89.75 147.2 91.6 L147.4 91.8 147.4 91.6 Q147.65 90.3 147.65 89.7 148.3 89.3 147.7 89.9 146.75 90.3 143.35 91.45 143.8 92.1 142.9 92.9 142.5 93.55 141.85 94.1 140.95 95.05 139.1 94.95 137.25 94.8 136.05 94.3 L135.4 93.75 Q134.9 93.4 134.7 92.8 L133.9 91.85 Q133.05 91.2 131.75 90.75 126.3 92.45 124.55 93.4 122.6 93.75 124.95 94.75 126.7 95.7 124.6 97.3 123.6 98.75 120.55 100.65 115.3 103.2 107.4 102.35 L106.3 104.1 106.2 104.7 107.0 105.45 106.95 105.5 106.7 104.75 Q106.3 103.65 106.6 103.7 107.0 103.7 106.3 105.1 105.3 107.0 101.35 108.35 L98.6 109.1 98.25 110.05 Q97.3 112.2 95.6 114.0 92.6 117.65 86.3 118.0 84.35 118.15 83.05 117.75 82.5 117.6 82.1 117.2 81.0 116.5 81.1 115.85 L80.9 114.3 79.1 113.15 78.85 113.2 77.9 112.45 Q74.15 110.8 73.3 108.95 71.0 108.3 71.75 108.4 72.25 107.8 74.25 108.35 76.3 108.95 76.75 108.05 77.2 107.85 75.8 108.3 73.7 107.55 69.1 104.05 L66.95 101.6 Q64.55 101.75 63.65 101.2 61.55 100.7 54.3 97.3 L46.45 91.1 Q43.55 89.35 42.9 86.45 L42.8 84.0 Q42.75 81.6 43.2 80.2 44.0 77.5 46.6 76.95 L47.4 74.9 47.25 73.25 Q46.95 72.15 46.15 71.6 43.15 69.3 40.3 68.75 37.3 68.25 34.75 66.1 31.55 64.25 30.85 60.3 L30.8 60.15 M34.75 57.65 Q74.75 64.35 114.8 55.75 L114.15 58.4 Q108.65 88.55 115.75 118.55 116.45 123.3 117.55 128.05 81.9 120.0 48.3 125.65 42.7 126.75 37.15 128.25 40.6 112.1 40.4 96.8 39.95 80.05 36.2 62.9 L34.75 57.7 Q74.75 64.4 114.8 55.8 L114.15 58.45 Q108.65 88.6 115.75 118.6 116.45 123.35 117.55 128.1 81.9 120.05 48.3 125.7 42.7 126.8 37.15 128.3 40.6 112.15 40.4 96.85 39.95 80.1 36.2 62.95 L34.75 57.75 M53.25 1.35 Q56.1 0.95 59.45 1.3 71.05 2.5 85.65 3.15 91.3 3.45 95.8 4.25 98.25 4.95 99.9 4.85 103.15 4.35 106.8 4.2 109.95 3.7 114.5 3.6 L116.5 3.75 Q120.15 3.9 124.75 3.75 L133.25 2.8 Q131.95 12.8 133.25 22.5 133.6 27.15 134.25 31.85 134.85 39.35 136.4 48.2 137.65 55.4 138.7 62.1 139.45 66.15 139.6 69.65 140.15 77.1 139.9 84.05 L130.0 82.3 Q117.85 80.3 106.7 78.5 102.0 77.65 98.3 77.1 94.35 76.05 91.65 76.25 88.45 76.45 85.2 77.45 82.05 78.65 78.4 79.3 71.7 80.45 65.2 82.55 66.2 80.35 66.6 78.05 67.8 68.35 67.7 60.75 67.05 52.9 65.5 45.1 61.1 28.5 55.9 10.8 54.75 7.7 53.95 4.5 L53.25 1.4 Q56.1 1.0 59.45 1.35 71.05 2.55 85.65 3.2 91.3 3.5 95.8 4.3 98.25 5.0 99.9 4.9 103.15 4.4 106.8 4.25 109.95 3.75 114.5 3.65 L116.5 3.8 Q120.15 3.95 124.75 3.8 L133.25 2.85 Q131.95 12.85 133.25 22.55 133.6 27.2 134.25 31.9 134.85 39.4 136.4 48.25 137.65 55.45 138.7 62.15 139.45 66.2 139.6 69.7 140.15 77.15 139.9 84.1 L130.0 82.35 Q117.85 80.35 106.7 78.55 102.0 77.7 98.3 77.15 94.35 76.1 91.65 76.3 88.45 76.5 85.2 77.5 82.05 78.7 78.4 79.35 71.7 80.5 65.2 82.6 66.2 80.4 66.6 78.1 67.8 68.4 67.7 60.8 67.05 52.95 65.5 45.15 61.1 28.55 55.9 10.85 54.75 7.75 53.95 4.55 L53.25 1.45" ffdec:has-small-stroke="true" ffdec:original-stroke-width="0.0" fill="none" stroke="#000000" stroke-linecap="round" stroke-linejoin="round" stroke-opacity="0.0" stroke-width="1.0"/>
    </g>
    <radialGradient cx="0" cy="0" gradientTransform="matrix(0.1093, 0.0019, -0.0022, 0.117, 75.0, 75.0)" gradientUnits="userSpaceOnUse" id="gradient0" r="819.2" spreadMethod="pad">
      <stop offset="0.0" stop-color="#b6cdef" stop-opacity="0.49803922"/>
      <stop offset="1.0" stop-color="#5e92b6" stop-opacity="0.49803922"/>
    </radialGradient>
    <radialGradient cx="0" cy="0" gradientTransform="matrix(0.1295, 0.0, 0.0, 0.1295, 75.0, 75.0)" gradientUnits="userSpaceOnUse" id="gradient1" r="819.2" spreadMethod="pad">
      <stop offset="0.0" stop-color="#74a0d1" stop-opacity="0.3529412"/>
      <stop offset="1.0" stop-color="#407ea7" stop-opacity="0.3529412"/>
    </radialGradient>
  </defs>
</svg>
