<?xml version="1.0" encoding="UTF-8" standalone="no"?>
<svg xmlns:ffdec="https://www.free-decompiler.com/flash" xmlns:xlink="http://www.w3.org/1999/xlink" ffdec:objectType="frame" height="178.35px" width="232.65px" xmlns="http://www.w3.org/2000/svg">
  <g transform="matrix(1.0, 0.0, 0.0, 1.0, 45.35, 18.7)">
    <use ffdec:characterId="728" height="178.3" transform="matrix(1.0, 0.0, 0.0, 1.0, -45.35, -18.7)" width="232.6" xlink:href="#morphshape0"/>
  </g>
  <defs>
    <g id="morphshape0" transform="matrix(1.0, 0.0, 0.0, 1.0, 45.35, 18.7)">
      <path d="M44.2 69.9 L44.2 70.0 Q44.75 74.75 46.95 79.55 51.7 90.25 59.55 95.45 63.55 95.8 67.95 95.7 86.25 95.35 97.6 86.45 102.4 82.55 104.1 78.45 L104.0 77.55 Q103.45 74.4 102.1 71.2 99.15 63.7 93.95 58.4 92.15 56.35 90.1 54.75 85.9 53.95 81.35 53.85 72.85 53.55 65.0 55.7 55.8 58.05 49.9 62.9 45.9 66.3 44.25 69.8 M47.15 67.8 L47.55 68.1 48.3 68.7 49.4 69.0 Q48.65 71.75 49.05 72.7 49.4 73.6 51.75 74.15 52.4 74.35 52.75 73.9 L52.8 73.7 Q52.7 73.6 52.35 73.55 L50.8 74.0 51.3 73.05 Q51.6 72.4 51.3 72.2 L50.25 72.55 50.3 72.5 Q50.45 72.3 50.85 72.1 51.35 71.75 51.75 72.0 52.55 72.2 52.1 73.15 51.6 74.15 52.5 74.45 52.85 74.65 53.45 74.5 54.05 74.3 54.2 74.15 54.35 73.9 53.65 73.75 52.85 73.7 51.8 74.0 L51.75 74.0 51.8 73.95 Q51.8 74.0 51.7 73.25 L51.6 73.0 Q52.25 72.3 52.95 72.05 L54.2 72.0 Q54.3 72.1 54.25 72.35 54.4 72.5 55.1 72.5 55.95 72.45 56.65 71.75 L57.2 71.05 Q57.75 70.15 57.85 69.95 57.85 69.7 57.55 69.5 L58.7 69.0 Q60.05 68.25 60.5 67.85 60.7 67.55 60.65 67.35 60.65 67.0 59.95 66.85 L60.05 66.8 Q60.75 66.55 61.3 66.45 62.25 66.15 63.6 66.1 L63.75 66.45 63.95 66.85 63.9 67.0 63.75 67.05 63.6 66.95 63.75 66.7 Q63.8 66.5 63.5 66.5 63.35 66.5 63.2 66.6 63.05 66.65 63.1 66.85 63.15 66.8 63.25 67.25 63.5 67.7 64.2 67.7 65.15 67.7 65.95 67.4 66.45 67.15 66.7 66.9 67.0 66.4 66.95 66.1 L67.05 66.1 Q67.55 66.1 68.0 65.7 68.45 65.3 69.15 65.35 69.1 65.75 69.2 65.85 69.5 66.2 70.5 66.25 71.35 66.25 71.7 66.05 L72.0 65.65 Q72.3 65.4 73.1 65.15 73.8 65.55 75.15 65.6 78.15 65.7 80.45 65.05 L80.5 65.05 81.6 65.4 Q83.25 65.95 84.35 66.0 85.45 66.05 86.3 65.45 86.95 64.9 87.1 64.6 87.4 63.75 86.25 64.2 85.95 64.35 85.55 64.65 L85.3 64.8 85.1 64.9 85.15 65.05 Q85.25 65.15 85.55 65.15 85.95 65.15 86.6 64.85 L87.2 64.45 87.3 64.4 87.35 64.35 87.4 64.35 86.45 64.85 85.4 64.5 Q85.0 64.05 84.35 63.6 83.9 63.3 83.6 63.1 84.0 62.6 84.0 62.2 84.0 61.45 83.25 61.0 82.55 60.45 81.5 60.1 L79.8 59.6 Q78.95 59.6 78.9 59.7 L79.0 59.9 Q79.25 60.0 80.25 59.75 81.0 59.55 81.35 59.2 81.55 59.0 81.6 58.7 L81.6 58.45 Q81.5 58.2 81.2 58.1 80.95 58.0 80.85 58.05 L80.7 58.15 80.1 57.9 79.95 57.7 Q79.9 57.6 79.95 57.45 79.95 57.3 80.15 57.25 L81.15 56.85 83.15 56.3 83.55 56.4 83.55 56.55 Q83.65 56.6 82.7 56.75 L81.95 56.65 78.95 56.85 Q78.55 56.75 78.15 56.0 77.85 55.3 77.5 55.3 77.05 55.3 76.8 55.55 L76.5 55.95 76.35 56.2 Q76.2 56.4 76.2 56.6 75.8 56.7 75.35 56.85 L74.3 57.25 Q74.35 56.8 74.2 56.6 73.95 56.2 73.05 55.95 70.9 55.8 70.35 56.25 70.25 56.35 70.45 56.5 L70.85 56.85 69.7 57.3 Q69.4 57.4 69.25 57.6 L69.15 57.75 Q68.9 57.6 68.6 57.5 66.85 57.4 64.8 57.95 63.1 58.4 62.65 58.65 62.35 58.85 63.0 59.15 63.6 59.4 63.4 59.55 L62.15 60.05 Q61.05 60.5 60.65 60.8 L60.55 60.9 59.5 60.7 Q58.5 60.5 57.05 61.3 55.95 61.9 55.55 62.15 55.35 62.4 55.35 62.45 L55.65 62.6 Q56.15 62.35 56.35 61.75 56.65 61.2 56.75 61.1 57.2 61.4 57.7 61.55 57.75 61.6 57.5 62.0 L57.1 62.35 Q54.8 62.0 53.15 62.7 L52.3 64.05 Q51.95 64.95 51.95 65.25 49.5 65.5 47.8 67.2 L47.5 67.55 M50.45 72.85 L50.6 73.15 50.9 74.5 Q51.2 75.85 51.75 76.25 52.55 76.65 52.95 76.25 L52.9 75.95 Q52.8 75.6 52.9 75.65 53.05 75.6 53.45 75.45 53.9 75.25 54.25 75.55 55.4 76.7 55.75 77.55 56.1 78.2 55.95 78.95 55.65 80.25 54.15 81.65 52.55 83.0 52.3 84.0 51.9 85.1 53.75 87.85 L54.95 88.25 Q59.75 90.85 63.15 90.75 66.1 90.7 67.65 89.55 68.4 88.3 69.0 88.0 69.95 87.2 71.75 86.3 73.1 85.5 73.5 85.4 L73.7 85.0 Q73.75 84.65 73.45 84.65 73.2 84.65 72.85 86.35 73.0 87.35 73.05 88.95 L72.35 89.1 72.05 87.95 72.9 88.1 73.5 88.15 Q75.1 87.4 75.5 85.75 75.55 85.1 75.65 83.8 L75.65 82.55 Q75.55 81.75 75.0 81.35 L73.45 80.4 Q72.9 80.35 72.7 80.35 72.55 80.35 72.5 80.5 72.4 80.75 72.45 80.75 L73.2 80.6 73.75 80.15 74.25 79.7 Q74.25 79.7 74.05 79.75 L72.75 78.9 Q72.7 78.25 73.1 76.95 72.9 76.1 73.7 75.6 74.45 75.05 74.1 74.8 74.0 74.25 73.25 74.2 72.35 74.15 71.2 74.55 68.1 75.5 66.6 77.1 L66.1 77.5 Q65.5 78.0 65.2 78.65 63.2 77.6 61.15 76.95 62.1 76.0 61.85 75.55 61.65 75.25 61.55 74.3 61.25 73.5 60.1 72.55 58.85 71.6 57.3 71.15 55.65 70.65 54.2 70.95 52.2 71.25 50.6 72.8 M64.45 79.7 L64.6 80.0 Q64.8 81.15 66.05 81.45 67.0 81.8 68.15 81.45 69.25 81.15 70.35 81.55 70.7 81.65 70.85 82.0 L70.85 82.45 70.45 82.9 Q69.35 82.7 69.0 83.35 68.8 83.65 68.8 84.35 L68.8 85.05 Q69.05 85.8 70.15 86.05 L73.15 86.9 Q75.85 87.1 76.7 86.15 77.0 85.7 77.95 84.95 L78.8 85.45 Q80.6 86.0 81.45 85.45 81.9 85.05 81.85 84.8 L82.9 84.35 Q83.05 84.05 82.55 83.15 82.1 82.25 82.25 81.85 82.35 81.05 83.7 80.55 84.75 80.15 86.95 79.7 L87.65 79.6 88.0 80.2 87.45 81.0 Q87.2 81.35 87.4 81.7 87.5 81.9 87.65 82.0 87.95 82.25 88.55 82.25 90.45 82.25 91.05 80.9 91.35 80.25 91.35 79.45 L91.3 79.1 92.05 78.85 Q93.2 78.4 93.2 77.7 93.2 77.2 92.75 77.25 92.3 77.25 92.15 77.75 L92.0 78.1 91.95 78.05 90.75 77.8 90.6 77.6 90.65 76.9 Q93.1 77.3 94.45 76.25 95.3 75.45 95.35 74.85 95.55 74.2 94.2 73.75 92.75 73.3 93.0 73.1 93.2 72.65 94.9 71.9 95.25 72.05 95.4 72.3 L95.45 72.65 Q95.4 72.9 95.5 73.05 L95.65 73.25 Q95.95 73.4 96.5 73.4 97.05 73.4 97.2 72.95 97.3 72.7 97.3 72.4 97.35 72.0 96.85 71.65 97.95 71.1 98.05 70.9 98.05 70.6 97.55 70.7 97.2 70.85 96.75 71.3 L96.65 71.35 96.1 71.1 Q95.45 70.85 95.45 70.75 95.35 70.45 95.45 70.25 97.4 70.05 97.6 69.2 97.65 68.9 97.4 68.15 97.05 67.2 95.8 66.4 95.25 66.05 94.95 66.0 94.6 65.95 94.65 66.2 L94.7 66.25 Q94.8 66.3 95.1 66.2 95.55 66.05 95.7 66.1 L95.75 66.35 95.85 66.5 Q95.8 66.55 95.55 66.5 93.6 65.9 93.25 66.1 93.1 66.1 93.25 66.55 93.45 66.8 95.1 66.75 94.1 67.2 94.35 67.7 94.55 68.0 95.55 67.95 97.25 67.8 98.55 68.05 98.5 68.65 97.95 68.6 97.65 68.55 96.85 68.25 96.15 67.95 96.0 67.95 L95.9 68.05 Q95.7 68.35 95.9 69.15 96.0 69.9 96.1 70.15 96.2 70.55 96.75 70.85 L95.6 70.9 Q91.75 71.05 91.45 73.55 91.4 74.2 91.45 74.5 L91.8 75.75 Q91.0 76.6 89.1 76.75 89.25 76.35 89.15 76.25 88.45 74.65 86.75 75.8 L86.35 75.05 Q87.5 75.05 87.1 74.4 87.0 74.25 86.8 74.1 86.45 73.85 85.95 73.75 L84.05 73.7 Q83.4 73.7 83.2 74.25 83.0 74.45 82.9 75.1 L82.75 76.95 Q81.1 78.05 78.8 80.2 L76.8 80.15 Q75.2 79.3 74.8 77.8 74.5 76.4 73.4 75.9 L69.25 75.65 Q67.25 76.2 66.2 77.05 65.5 77.6 65.05 78.7 L64.6 79.55 M73.55 56.15 L73.55 56.2 73.7 56.75 Q73.95 57.4 74.35 58.0 75.95 61.2 77.4 63.9 L78.1 66.3 78.15 66.9 Q79.5 66.95 80.75 67.5 81.0 67.6 81.1 67.65 L82.55 67.5 Q83.0 67.4 83.3 67.05 83.65 66.7 84.0 66.7 84.2 66.65 84.85 67.05 85.45 67.25 86.45 67.55 88.65 68.1 91.15 68.25 L93.55 68.45 Q94.0 67.55 93.95 66.5 94.0 65.85 93.8 64.95 93.5 63.6 93.15 62.1 92.7 60.3 92.6 59.05 92.45 58.3 92.4 57.6 88.65 57.7 86.0 57.5 84.85 57.35 84.1 56.9 83.4 56.7 83.25 56.75 L82.05 56.45 Q81.25 56.1 80.0 56.0 76.7 55.8 74.65 55.85 74.05 55.85 73.65 56.15 M66.25 78.75 L66.7 79.7 Q67.55 82.2 67.4 84.55 67.3 85.65 66.9 86.75 69.4 86.15 71.95 85.8 L84.35 84.9 Q83.0 81.65 83.95 78.55 L80.85 78.85 66.25 78.7" fill="url(#gradient0)" fill-rule="evenodd" stroke="none"/>
      <path d="M46.8 68.05 L47.2 68.35 47.95 68.95 49.05 69.25 Q48.3 72.0 48.7 72.95 49.05 73.85 51.4 74.4 52.05 74.6 52.4 74.15 L52.45 73.95 Q52.35 73.85 52.0 73.8 L50.45 74.25 50.95 73.3 Q51.25 72.65 50.95 72.45 L49.9 72.8 49.95 72.75 Q50.1 72.55 50.5 72.35 51.0 72.0 51.4 72.25 52.2 72.45 51.75 73.4 51.25 74.4 52.15 74.7 52.5 74.9 53.1 74.75 53.7 74.55 53.85 74.4 54.0 74.15 53.3 74.0 52.5 73.95 51.45 74.25 L51.4 74.25 51.45 74.2 Q51.45 74.25 51.35 73.5 L51.25 73.25 Q51.9 72.55 52.6 72.3 L53.85 72.25 Q53.95 72.35 53.9 72.6 54.05 72.75 54.75 72.75 55.6 72.7 56.3 72.0 L56.85 71.3 Q57.4 70.4 57.5 70.2 57.5 69.95 57.2 69.75 L58.35 69.25 Q59.7 68.5 60.15 68.1 60.35 67.8 60.3 67.6 60.3 67.25 59.6 67.1 L59.7 67.05 Q60.4 66.8 60.95 66.7 61.9 66.4 63.25 66.35 L63.4 66.7 63.6 67.1 63.55 67.25 63.4 67.3 63.25 67.2 63.4 66.95 Q63.45 66.75 63.15 66.75 63.0 66.75 62.85 66.85 62.7 66.9 62.75 67.1 62.8 67.05 62.9 67.5 63.15 67.95 63.85 67.95 64.8 67.95 65.6 67.65 66.1 67.4 66.35 67.15 66.65 66.65 66.6 66.35 L66.7 66.35 Q67.2 66.35 67.65 65.95 68.1 65.55 68.8 65.6 68.75 66.0 68.85 66.1 69.15 66.45 70.15 66.5 71.0 66.5 71.35 66.3 L71.65 65.9 Q71.95 65.65 72.75 65.4 73.45 65.8 74.8 65.85 77.8 65.95 80.1 65.3 L80.15 65.3 81.25 65.65 Q82.9 66.2 84.0 66.25 85.1 66.3 85.95 65.7 86.6 65.15 86.75 64.85 87.05 64.0 85.9 64.45 85.6 64.6 85.2 64.9 L84.95 65.05 84.75 65.15 84.8 65.3 Q84.9 65.4 85.2 65.4 85.6 65.4 86.25 65.1 L86.85 64.7 86.95 64.65 87.0 64.6 87.05 64.6 86.1 65.1 85.05 64.75 Q84.65 64.3 84.0 63.85 83.55 63.55 83.25 63.35 83.65 62.85 83.65 62.45 83.65 61.7 82.9 61.25 82.2 60.7 81.15 60.35 L79.45 59.85 Q78.6 59.85 78.55 59.95 L78.65 60.15 Q78.9 60.25 79.9 60.0 80.65 59.8 81.0 59.45 81.2 59.25 81.25 58.95 L81.25 58.7 Q81.15 58.45 80.85 58.35 80.6 58.25 80.5 58.3 L80.35 58.4 79.75 58.15 79.6 57.95 Q79.55 57.85 79.6 57.7 79.6 57.55 79.8 57.5 L80.8 57.1 82.8 56.55 83.2 56.65 83.2 56.8 Q83.3 56.85 82.35 57.0 L81.6 56.9 78.6 57.1 Q78.2 57.0 77.8 56.25 77.5 55.55 77.15 55.55 76.7 55.55 76.45 55.8 L76.15 56.2 76.0 56.45 Q75.85 56.65 75.85 56.85 75.45 56.95 75.0 57.1 L73.95 57.5 Q74.0 57.05 73.85 56.85 73.6 56.45 72.7 56.2 70.55 56.05 70.0 56.5 69.9 56.6 70.1 56.75 L70.5 57.1 69.35 57.55 Q69.05 57.65 68.9 57.85 L68.8 58.0 Q68.55 57.85 68.25 57.75 66.5 57.65 64.45 58.2 62.75 58.65 62.3 58.9 62.0 59.1 62.65 59.4 63.25 59.65 63.05 59.8 L61.8 60.3 Q60.7 60.75 60.3 61.05 L60.2 61.15 59.15 60.95 Q58.15 60.75 56.7 61.55 55.6 62.15 55.2 62.4 55.0 62.65 55.0 62.7 L55.3 62.85 Q55.8 62.6 56.0 62.0 56.3 61.45 56.4 61.35 56.85 61.65 57.35 61.8 57.4 61.85 57.15 62.25 L56.75 62.6 Q54.45 62.25 52.8 62.95 L51.95 64.3 Q51.6 65.2 51.6 65.5 49.15 65.75 47.45 67.45 L47.15 67.8 M50.3 72.9 L50.45 73.2 50.75 74.55 Q51.05 75.9 51.6 76.3 52.4 76.7 52.8 76.3 L52.75 76.0 Q52.65 75.65 52.75 75.7 52.9 75.65 53.3 75.5 53.75 75.3 54.1 75.6 55.25 76.75 55.6 77.6 55.95 78.25 55.8 79.0 55.5 80.3 54.0 81.7 52.4 83.05 52.15 84.05 51.75 85.15 53.6 87.9 L54.8 88.3 Q59.6 90.9 63.0 90.8 65.95 90.75 67.5 89.6 68.25 88.35 68.85 88.05 69.8 87.25 71.6 86.35 72.95 85.55 73.35 85.45 L73.55 85.05 Q73.6 84.7 73.3 84.7 73.05 84.7 72.7 86.4 72.85 87.4 72.9 89.0 L72.2 89.15 71.9 88.0 72.75 88.15 73.35 88.2 Q74.95 87.45 75.35 85.8 75.4 85.15 75.5 83.85 L75.5 82.6 Q75.4 81.8 74.85 81.4 L73.3 80.45 Q72.75 80.4 72.55 80.4 72.4 80.4 72.35 80.55 72.25 80.8 72.3 80.8 L73.05 80.65 73.6 80.2 74.1 79.75 Q74.1 79.75 73.9 79.8 L72.6 78.95 Q72.55 78.3 72.95 77.0 72.75 76.15 73.55 75.65 74.3 75.1 73.95 74.85 73.85 74.3 73.1 74.25 72.2 74.2 71.05 74.6 67.95 75.55 66.45 77.15 L65.95 77.55 Q65.35 78.05 65.05 78.7 63.05 77.65 61.0 77.0 61.95 76.05 61.7 75.6 61.5 75.3 61.4 74.35 61.1 73.55 59.95 72.6 58.7 71.65 57.15 71.2 55.5 70.7 54.05 71.0 52.05 71.3 50.45 72.85 M66.25 78.7 L66.7 79.65 Q67.55 82.15 67.4 84.5 67.3 85.6 66.9 86.7 69.4 86.1 71.95 85.75 L84.35 84.85 Q83.0 81.6 83.95 78.5 L80.85 78.8 66.25 78.65 M64.3 79.85 L64.45 80.15 Q64.65 81.3 65.9 81.6 66.85 81.95 68.0 81.6 69.1 81.3 70.2 81.7 70.55 81.8 70.7 82.15 L70.7 82.6 70.3 83.05 Q69.2 82.85 68.85 83.5 68.65 83.8 68.65 84.5 L68.65 85.2 Q68.9 85.95 70.0 86.2 L73.0 87.05 Q75.7 87.25 76.55 86.3 76.85 85.85 77.8 85.1 L78.65 85.6 Q80.45 86.15 81.3 85.6 81.75 85.2 81.7 84.95 L82.75 84.5 Q82.9 84.2 82.4 83.3 81.95 82.4 82.1 82.0 82.2 81.2 83.55 80.7 84.6 80.3 86.8 79.85 L87.5 79.75 87.85 80.35 87.3 81.15 Q87.05 81.5 87.25 81.85 87.35 82.05 87.5 82.15 87.8 82.4 88.4 82.4 90.3 82.4 90.9 81.05 91.2 80.4 91.2 79.6 L91.15 79.25 91.9 79.0 Q93.05 78.55 93.05 77.85 93.05 77.35 92.6 77.4 92.15 77.4 92.0 77.9 L91.85 78.25 91.8 78.2 90.6 77.95 90.45 77.75 90.5 77.05 Q92.95 77.45 94.3 76.4 95.15 75.6 95.2 75.0 95.4 74.35 94.05 73.9 92.6 73.45 92.85 73.25 93.05 72.8 94.75 72.05 95.1 72.2 95.25 72.45 L95.3 72.8 Q95.25 73.05 95.35 73.2 L95.5 73.4 Q95.8 73.55 96.35 73.55 96.9 73.55 97.05 73.1 97.15 72.85 97.15 72.55 97.2 72.15 96.7 71.8 97.8 71.25 97.9 71.05 97.9 70.75 97.4 70.85 97.05 71.0 96.6 71.45 L96.5 71.5 95.95 71.25 Q95.3 71.0 95.3 70.9 95.2 70.6 95.3 70.4 97.25 70.2 97.45 69.35 97.5 69.05 97.25 68.3 96.9 67.35 95.65 66.55 95.1 66.2 94.8 66.15 94.45 66.1 94.5 66.35 L94.55 66.4 Q94.65 66.45 94.95 66.35 95.4 66.2 95.55 66.25 L95.6 66.5 95.7 66.65 Q95.65 66.7 95.4 66.65 93.45 66.05 93.1 66.25 92.95 66.25 93.1 66.7 93.3 66.95 94.95 66.9 93.95 67.35 94.2 67.85 94.4 68.15 95.4 68.1 97.1 67.95 98.4 68.2 98.35 68.8 97.8 68.75 97.5 68.7 96.7 68.4 96.0 68.1 95.85 68.1 L95.75 68.2 Q95.55 68.5 95.75 69.3 95.85 70.05 95.95 70.3 96.05 70.7 96.6 71.0 L95.45 71.05 Q91.6 71.2 91.3 73.7 91.25 74.35 91.3 74.65 L91.65 75.9 Q90.85 76.75 88.95 76.9 89.1 76.5 89.0 76.4 88.3 74.8 86.6 75.95 L86.2 75.2 Q87.35 75.2 86.95 74.55 86.85 74.4 86.65 74.25 86.3 74.0 85.8 73.9 L83.9 73.85 Q83.25 73.85 83.05 74.4 82.85 74.6 82.75 75.25 L82.6 77.1 Q80.95 78.2 78.65 80.35 L76.65 80.3 Q75.05 79.45 74.65 77.95 74.35 76.55 73.25 76.05 L69.1 75.8 Q67.1 76.35 66.05 77.2 65.35 77.75 64.9 78.85 L64.45 79.7 M73.45 56.15 L73.45 56.2 73.6 56.75 Q73.85 57.4 74.25 58.0 75.85 61.2 77.3 63.9 L78.0 66.3 78.05 66.9 Q79.4 66.95 80.65 67.5 80.9 67.6 81.0 67.65 L82.45 67.5 Q82.9 67.4 83.2 67.05 83.55 66.7 83.9 66.7 84.1 66.65 84.75 67.05 85.35 67.25 86.35 67.55 88.55 68.1 91.05 68.25 L93.45 68.45 Q93.9 67.55 93.85 66.5 93.9 65.85 93.7 64.95 93.4 63.6 93.05 62.1 92.6 60.3 92.5 59.05 92.35 58.3 92.3 57.6 88.55 57.7 85.9 57.5 84.75 57.35 84.0 56.9 83.3 56.7 83.15 56.75 L81.95 56.45 Q81.15 56.1 79.9 56.0 76.6 55.8 74.55 55.85 73.95 55.85 73.55 56.15" fill="url(#gradient1)" fill-rule="evenodd" stroke="none"/>
      <path d="M44.25 69.8 Q45.9 66.3 49.9 62.9 55.8 58.05 65.0 55.7 72.85 53.55 81.35 53.85 85.9 53.95 90.1 54.75 92.15 56.35 93.95 58.4 99.15 63.7 102.1 71.2 103.45 74.4 104.0 77.55 L104.1 78.45 Q102.4 82.55 97.6 86.45 86.25 95.35 67.95 95.7 63.55 95.8 59.55 95.45 51.7 90.25 46.95 79.55 44.75 74.75 44.2 70.0 L44.2 69.9 M44.25 69.8 Q45.9 66.3 49.9 62.9 55.8 58.05 65.0 55.7 72.85 53.55 81.35 53.85 85.9 53.95 90.1 54.75 92.15 56.35 93.95 58.4 99.15 63.7 102.1 71.2 103.45 74.4 104.0 77.55 L104.1 78.45 Q102.4 82.55 97.6 86.45 86.25 95.35 67.95 95.7 63.55 95.8 59.55 95.45 51.7 90.25 46.95 79.55 44.75 74.75 44.2 70.0" fill="none" stroke="#1c2429" stroke-linecap="round" stroke-linejoin="round" stroke-opacity="0.14117648" stroke-width="2.0"/>
      <path d="M47.5 67.55 L47.8 67.2 Q49.5 65.5 51.95 65.25 51.95 64.95 52.3 64.05 L53.15 62.7 Q54.8 62.0 57.1 62.35 L57.5 62.0 Q57.75 61.6 57.7 61.55 57.2 61.4 56.75 61.1 56.65 61.2 56.35 61.75 56.15 62.35 55.65 62.6 L55.35 62.45 Q55.35 62.4 55.55 62.15 55.95 61.9 57.05 61.3 58.5 60.5 59.5 60.7 L60.55 60.9 60.65 60.8 Q61.05 60.5 62.15 60.05 L63.4 59.55 Q63.6 59.4 63.0 59.15 62.35 58.85 62.65 58.65 63.1 58.4 64.8 57.95 66.85 57.4 68.6 57.5 68.9 57.6 69.15 57.75 L69.25 57.6 Q69.4 57.4 69.7 57.3 L70.85 56.85 70.45 56.5 Q70.25 56.35 70.35 56.25 70.9 55.8 73.05 55.95 73.95 56.2 74.2 56.6 74.35 56.8 74.3 57.25 L75.35 56.85 Q75.8 56.7 76.2 56.6 76.2 56.4 76.35 56.2 L76.5 55.95 76.8 55.55 Q77.05 55.3 77.5 55.3 77.85 55.3 78.15 56.0 78.55 56.75 78.95 56.85 L81.95 56.65 82.7 56.75 Q83.65 56.6 83.55 56.55 L83.55 56.4 83.15 56.3 81.15 56.85 80.15 57.25 Q79.95 57.3 79.95 57.45 79.9 57.6 79.95 57.7 L80.1 57.9 80.7 58.15 80.85 58.05 Q80.95 58.0 81.2 58.1 81.5 58.2 81.6 58.45 L81.6 58.7 Q81.55 59.0 81.35 59.2 81.0 59.55 80.25 59.75 79.25 60.0 79.0 59.9 L78.9 59.7 Q78.95 59.6 79.8 59.6 L81.5 60.1 Q82.55 60.45 83.25 61.0 84.0 61.45 84.0 62.2 84.0 62.6 83.6 63.1 83.9 63.3 84.35 63.6 85.0 64.05 85.4 64.5 L86.45 64.85 87.4 64.35 87.35 64.35 87.3 64.4 87.2 64.45 86.6 64.85 Q85.95 65.15 85.55 65.15 85.25 65.15 85.15 65.05 L85.1 64.9 85.3 64.8 85.55 64.65 Q85.95 64.35 86.25 64.2 87.4 63.75 87.1 64.6 86.95 64.9 86.3 65.45 85.45 66.05 84.35 66.0 83.25 65.95 81.6 65.4 L80.5 65.05 80.45 65.05 Q78.15 65.7 75.15 65.6 73.8 65.55 73.1 65.15 72.3 65.4 72.0 65.65 L71.7 66.05 Q71.35 66.25 70.5 66.25 69.5 66.2 69.2 65.85 69.1 65.75 69.15 65.35 68.45 65.3 68.0 65.7 67.55 66.1 67.05 66.1 L66.95 66.1 Q67.0 66.4 66.7 66.9 66.45 67.15 65.95 67.4 65.15 67.7 64.2 67.7 63.5 67.7 63.25 67.25 63.15 66.8 63.1 66.85 63.05 66.65 63.2 66.6 63.35 66.5 63.5 66.5 63.8 66.5 63.75 66.7 L63.6 66.95 63.75 67.05 63.9 67.0 63.95 66.85 63.75 66.45 63.6 66.1 Q62.25 66.15 61.3 66.45 60.75 66.55 60.05 66.8 L59.95 66.85 Q60.65 67.0 60.65 67.35 60.7 67.55 60.5 67.85 60.05 68.25 58.7 69.0 L57.55 69.5 Q57.85 69.7 57.85 69.95 57.75 70.15 57.2 71.05 L56.65 71.75 Q55.95 72.45 55.1 72.5 54.4 72.5 54.25 72.35 54.3 72.1 54.2 72.0 L52.95 72.05 Q52.25 72.3 51.6 73.0 L51.7 73.25 Q51.8 74.0 51.8 73.95 L51.75 74.0 51.8 74.0 Q52.85 73.7 53.65 73.75 54.35 73.9 54.2 74.15 54.05 74.3 53.45 74.5 52.85 74.65 52.5 74.45 51.6 74.15 52.1 73.15 52.55 72.2 51.75 72.0 51.35 71.75 50.85 72.1 50.45 72.3 50.3 72.5 L50.25 72.55 51.3 72.2 Q51.6 72.4 51.3 73.05 L50.8 74.0 52.35 73.55 Q52.7 73.6 52.8 73.7 L52.75 73.9 Q52.4 74.35 51.75 74.15 49.4 73.6 49.05 72.7 48.65 71.75 49.4 69.0 L48.3 68.7 47.55 68.1 47.15 67.8 47.45 67.45 Q49.15 65.75 51.6 65.5 51.6 65.2 51.95 64.3 L52.8 62.95 Q54.45 62.25 56.75 62.6 L57.15 62.25 Q57.4 61.85 57.35 61.8 56.85 61.65 56.4 61.35 56.3 61.45 56.0 62.0 55.8 62.6 55.3 62.85 L55.0 62.7 Q55.0 62.65 55.2 62.4 55.6 62.15 56.7 61.55 58.15 60.75 59.15 60.95 L60.2 61.15 60.3 61.05 Q60.7 60.75 61.8 60.3 L63.05 59.8 Q63.25 59.65 62.65 59.4 62.0 59.1 62.3 58.9 62.75 58.65 64.45 58.2 66.5 57.65 68.25 57.75 68.55 57.85 68.8 58.0 L68.9 57.85 Q69.05 57.65 69.35 57.55 L70.5 57.1 70.1 56.75 Q69.9 56.6 70.0 56.5 70.55 56.05 72.7 56.2 73.6 56.45 73.85 56.85 74.0 57.05 73.95 57.5 L75.0 57.1 Q75.45 56.95 75.85 56.85 75.85 56.65 76.0 56.45 L76.15 56.2 76.45 55.8 Q76.7 55.55 77.15 55.55 77.5 55.55 77.8 56.25 78.2 57.0 78.6 57.1 L81.6 56.9 82.35 57.0 Q83.3 56.85 83.2 56.8 L83.2 56.65 82.8 56.55 80.8 57.1 79.8 57.5 Q79.6 57.55 79.6 57.7 79.55 57.85 79.6 57.95 L79.75 58.15 80.35 58.4 80.5 58.3 Q80.6 58.25 80.85 58.35 81.15 58.45 81.25 58.7 L81.25 58.95 Q81.2 59.25 81.0 59.45 80.65 59.8 79.9 60.0 78.9 60.25 78.65 60.15 L78.55 59.95 Q78.6 59.85 79.45 59.85 L81.15 60.35 Q82.2 60.7 82.9 61.25 83.65 61.7 83.65 62.45 83.65 62.85 83.25 63.35 83.55 63.55 84.0 63.85 84.65 64.3 85.05 64.75 L86.1 65.1 87.05 64.6 87.0 64.6 86.95 64.65 86.85 64.7 86.25 65.1 Q85.6 65.4 85.2 65.4 84.9 65.4 84.8 65.3 L84.75 65.15 84.95 65.05 85.2 64.9 Q85.6 64.6 85.9 64.45 87.05 64.0 86.75 64.85 86.6 65.15 85.95 65.7 85.1 66.3 84.0 66.25 82.9 66.2 81.25 65.65 L80.15 65.3 80.1 65.3 Q77.8 65.95 74.8 65.85 73.45 65.8 72.75 65.4 71.95 65.65 71.65 65.9 L71.35 66.3 Q71.0 66.5 70.15 66.5 69.15 66.45 68.85 66.1 68.75 66.0 68.8 65.6 68.1 65.55 67.65 65.95 67.2 66.35 66.7 66.35 L66.6 66.35 Q66.65 66.65 66.35 67.15 66.1 67.4 65.6 67.65 64.8 67.95 63.85 67.95 63.15 67.95 62.9 67.5 62.8 67.05 62.75 67.1 62.7 66.9 62.85 66.85 63.0 66.75 63.15 66.75 63.45 66.75 63.4 66.95 L63.25 67.2 63.4 67.3 63.55 67.25 63.6 67.1 63.4 66.7 63.25 66.35 Q61.9 66.4 60.95 66.7 60.4 66.8 59.7 67.05 L59.6 67.1 Q60.3 67.25 60.3 67.6 60.35 67.8 60.15 68.1 59.7 68.5 58.35 69.25 L57.2 69.75 Q57.5 69.95 57.5 70.2 57.4 70.4 56.85 71.3 L56.3 72.0 Q55.6 72.7 54.75 72.75 54.05 72.75 53.9 72.6 53.95 72.35 53.85 72.25 L52.6 72.3 Q51.9 72.55 51.25 73.25 L51.35 73.5 Q51.45 74.25 51.45 74.2 L51.4 74.25 51.45 74.25 Q52.5 73.95 53.3 74.0 54.0 74.15 53.85 74.4 53.7 74.55 53.1 74.75 52.5 74.9 52.15 74.7 51.25 74.4 51.75 73.4 52.2 72.45 51.4 72.25 51.0 72.0 50.5 72.35 50.1 72.55 49.95 72.75 L49.9 72.8 50.95 72.45 Q51.25 72.65 50.95 73.3 L50.45 74.25 52.0 73.8 Q52.35 73.85 52.45 73.95 L52.4 74.15 Q52.05 74.6 51.4 74.4 49.05 73.85 48.7 72.95 48.3 72.0 49.05 69.25 L47.95 68.95 47.2 68.35 46.8 68.05 M50.6 72.8 Q52.2 71.25 54.2 70.95 55.65 70.65 57.3 71.15 58.85 71.6 60.1 72.55 61.25 73.5 61.55 74.3 61.65 75.25 61.85 75.55 62.1 76.0 61.15 76.95 63.2 77.6 65.2 78.65 65.5 78.0 66.1 77.5 L66.6 77.1 Q68.1 75.5 71.2 74.55 72.35 74.15 73.25 74.2 74.0 74.25 74.1 74.8 74.45 75.05 73.7 75.6 72.9 76.1 73.1 76.95 72.7 78.25 72.75 78.9 L74.05 79.75 Q74.25 79.7 74.25 79.7 L73.75 80.15 73.2 80.6 72.45 80.75 Q72.4 80.75 72.5 80.5 72.55 80.35 72.7 80.35 72.9 80.35 73.45 80.4 L75.0 81.35 Q75.55 81.75 75.65 82.55 L75.65 83.8 Q75.55 85.1 75.5 85.75 75.1 87.4 73.5 88.15 L72.9 88.1 72.05 87.95 72.35 89.1 73.05 88.95 Q73.0 87.35 72.85 86.35 73.2 84.65 73.45 84.65 73.75 84.65 73.7 85.0 L73.5 85.4 Q73.1 85.5 71.75 86.3 69.95 87.2 69.0 88.0 68.4 88.3 67.65 89.55 66.1 90.7 63.15 90.75 59.75 90.85 54.95 88.25 L53.75 87.85 Q51.9 85.1 52.3 84.0 52.55 83.0 54.15 81.65 55.65 80.25 55.95 78.95 56.1 78.2 55.75 77.55 55.4 76.7 54.25 75.55 53.9 75.25 53.45 75.45 53.05 75.6 52.9 75.65 52.8 75.6 52.9 75.95 L52.95 76.25 Q52.55 76.65 51.75 76.25 51.2 75.85 50.9 74.5 L50.6 73.15 50.45 72.85 Q52.05 71.3 54.05 71.0 55.5 70.7 57.15 71.2 58.7 71.65 59.95 72.6 61.1 73.55 61.4 74.35 61.5 75.3 61.7 75.6 61.95 76.05 61.0 77.0 63.05 77.65 65.05 78.7 65.35 78.05 65.95 77.55 L66.45 77.15 Q67.95 75.55 71.05 74.6 72.2 74.2 73.1 74.25 73.85 74.3 73.95 74.85 74.3 75.1 73.55 75.65 72.75 76.15 72.95 77.0 72.55 78.3 72.6 78.95 L73.9 79.8 Q74.1 79.75 74.1 79.75 L73.6 80.2 73.05 80.65 72.3 80.8 Q72.25 80.8 72.35 80.55 72.4 80.4 72.55 80.4 72.75 80.4 73.3 80.45 L74.85 81.4 Q75.4 81.8 75.5 82.6 L75.5 83.85 Q75.4 85.15 75.35 85.8 74.95 87.45 73.35 88.2 L72.75 88.15 71.9 88.0 72.2 89.15 72.9 89.0 Q72.85 87.4 72.7 86.4 73.05 84.7 73.3 84.7 73.6 84.7 73.55 85.05 L73.35 85.45 Q72.95 85.55 71.6 86.35 69.8 87.25 68.85 88.05 68.25 88.35 67.5 89.6 65.95 90.75 63.0 90.8 59.6 90.9 54.8 88.3 L53.6 87.9 Q51.75 85.15 52.15 84.05 52.4 83.05 54.0 81.7 55.5 80.3 55.8 79.0 55.95 78.25 55.6 77.6 55.25 76.75 54.1 75.6 53.75 75.3 53.3 75.5 52.9 75.65 52.75 75.7 52.65 75.65 52.75 76.0 L52.8 76.3 Q52.4 76.7 51.6 76.3 51.05 75.9 50.75 74.55 L50.45 73.2 50.3 72.9 M64.6 79.55 L65.05 78.7 Q65.5 77.6 66.2 77.05 67.25 76.2 69.25 75.65 L73.4 75.9 Q74.5 76.4 74.8 77.8 75.2 79.3 76.8 80.15 L78.8 80.2 Q81.1 78.05 82.75 76.95 L82.9 75.1 Q83.0 74.45 83.2 74.25 83.4 73.7 84.05 73.7 L85.95 73.75 Q86.45 73.85 86.8 74.1 87.0 74.25 87.1 74.4 87.5 75.05 86.35 75.05 L86.75 75.8 Q88.45 74.65 89.15 76.25 89.25 76.35 89.1 76.75 91.0 76.6 91.8 75.75 L91.45 74.5 Q91.4 74.2 91.45 73.55 91.75 71.05 95.6 70.9 L96.75 70.85 Q96.2 70.55 96.1 70.15 96.0 69.9 95.9 69.15 95.7 68.35 95.9 68.05 L96.0 67.95 Q96.15 67.95 96.85 68.25 97.65 68.55 97.95 68.6 98.5 68.65 98.55 68.05 97.25 67.8 95.55 67.95 94.55 68.0 94.35 67.7 94.1 67.2 95.1 66.75 93.45 66.8 93.25 66.55 93.1 66.1 93.25 66.1 93.6 65.9 95.55 66.5 95.8 66.55 95.85 66.5 L95.75 66.35 95.7 66.1 Q95.55 66.05 95.1 66.2 94.8 66.3 94.7 66.25 L94.65 66.2 Q94.6 65.95 94.95 66.0 95.25 66.05 95.8 66.4 97.05 67.2 97.4 68.15 97.65 68.9 97.6 69.2 97.4 70.05 95.45 70.25 95.35 70.45 95.45 70.75 95.45 70.85 96.1 71.1 L96.65 71.35 96.75 71.3 Q97.2 70.85 97.55 70.7 98.05 70.6 98.05 70.9 97.95 71.1 96.85 71.65 97.35 72.0 97.3 72.4 97.3 72.7 97.2 72.95 97.05 73.4 96.5 73.4 95.95 73.4 95.65 73.25 L95.5 73.05 Q95.4 72.9 95.45 72.65 L95.4 72.3 Q95.25 72.05 94.9 71.9 93.2 72.65 93.0 73.1 92.75 73.3 94.2 73.75 95.55 74.2 95.35 74.85 95.3 75.45 94.45 76.25 93.1 77.3 90.65 76.9 L90.6 77.6 90.75 77.8 91.95 78.05 92.0 78.1 92.15 77.75 Q92.3 77.25 92.75 77.25 93.2 77.2 93.2 77.7 93.2 78.4 92.05 78.85 L91.3 79.1 91.35 79.45 Q91.35 80.25 91.05 80.9 90.45 82.25 88.55 82.25 87.95 82.25 87.65 82.0 87.5 81.9 87.4 81.7 87.2 81.35 87.45 81.0 L88.0 80.2 87.65 79.6 86.95 79.7 Q84.75 80.15 83.7 80.55 82.35 81.05 82.25 81.85 82.1 82.25 82.55 83.15 83.05 84.05 82.9 84.35 L81.85 84.8 Q81.9 85.05 81.45 85.45 80.6 86.0 78.8 85.45 L77.95 84.95 Q77.0 85.7 76.7 86.15 75.85 87.1 73.15 86.9 L70.15 86.05 Q69.05 85.8 68.8 85.05 L68.8 84.35 Q68.8 83.65 69.0 83.35 69.35 82.7 70.45 82.9 L70.85 82.45 70.85 82.0 Q70.7 81.65 70.35 81.55 69.25 81.15 68.15 81.45 67.0 81.8 66.05 81.45 64.8 81.15 64.6 80.0 L64.45 79.7 64.9 78.85 Q65.35 77.75 66.05 77.2 67.1 76.35 69.1 75.8 L73.25 76.05 Q74.35 76.55 74.65 77.95 75.05 79.45 76.65 80.3 L78.65 80.35 Q80.95 78.2 82.6 77.1 L82.75 75.25 Q82.85 74.6 83.05 74.4 83.25 73.85 83.9 73.85 L85.8 73.9 Q86.3 74.0 86.65 74.25 86.85 74.4 86.95 74.55 87.35 75.2 86.2 75.2 L86.6 75.95 Q88.3 74.8 89.0 76.4 89.1 76.5 88.95 76.9 90.85 76.75 91.65 75.9 L91.3 74.65 Q91.25 74.35 91.3 73.7 91.6 71.2 95.45 71.05 L96.6 71.0 Q96.05 70.7 95.95 70.3 95.85 70.05 95.75 69.3 95.55 68.5 95.75 68.2 L95.85 68.1 Q96.0 68.1 96.7 68.4 97.5 68.7 97.8 68.75 98.35 68.8 98.4 68.2 97.1 67.95 95.4 68.1 94.4 68.15 94.2 67.85 93.95 67.35 94.95 66.9 93.3 66.95 93.1 66.7 92.95 66.25 93.1 66.25 93.45 66.05 95.4 66.65 95.65 66.7 95.7 66.65 L95.6 66.5 95.55 66.25 Q95.4 66.2 94.95 66.35 94.65 66.45 94.55 66.4 L94.5 66.35 Q94.45 66.1 94.8 66.15 95.1 66.2 95.65 66.55 96.9 67.35 97.25 68.3 97.5 69.05 97.45 69.35 97.25 70.2 95.3 70.4 95.2 70.6 95.3 70.9 95.3 71.0 95.95 71.25 L96.5 71.5 96.6 71.45 Q97.05 71.0 97.4 70.85 97.9 70.75 97.9 71.05 97.8 71.25 96.7 71.8 97.2 72.15 97.15 72.55 97.15 72.85 97.05 73.1 96.9 73.55 96.35 73.55 95.8 73.55 95.5 73.4 L95.35 73.2 Q95.25 73.05 95.3 72.8 L95.25 72.45 Q95.1 72.2 94.75 72.05 93.05 72.8 92.85 73.25 92.6 73.45 94.05 73.9 95.4 74.35 95.2 75.0 95.15 75.6 94.3 76.4 92.95 77.45 90.5 77.05 L90.45 77.75 90.6 77.95 91.8 78.2 91.85 78.25 92.0 77.9 Q92.15 77.4 92.6 77.4 93.05 77.35 93.05 77.85 93.05 78.55 91.9 79.0 L91.15 79.25 91.2 79.6 Q91.2 80.4 90.9 81.05 90.3 82.4 88.4 82.4 87.8 82.4 87.5 82.15 87.35 82.05 87.25 81.85 87.05 81.5 87.3 81.15 L87.85 80.35 87.5 79.75 86.8 79.85 Q84.6 80.3 83.55 80.7 82.2 81.2 82.1 82.0 81.95 82.4 82.4 83.3 82.9 84.2 82.75 84.5 L81.7 84.95 Q81.75 85.2 81.3 85.6 80.45 86.15 78.65 85.6 L77.8 85.1 Q76.85 85.85 76.55 86.3 75.7 87.25 73.0 87.05 L70.0 86.2 Q68.9 85.95 68.65 85.2 L68.65 84.5 Q68.65 83.8 68.85 83.5 69.2 82.85 70.3 83.05 L70.7 82.6 70.7 82.15 Q70.55 81.8 70.2 81.7 69.1 81.3 68.0 81.6 66.85 81.95 65.9 81.6 64.65 81.3 64.45 80.15 L64.3 79.85 M66.25 78.65 L80.85 78.8 83.95 78.5 Q83.0 81.6 84.35 84.85 L71.95 85.75 Q69.4 86.1 66.9 86.7 67.3 85.6 67.4 84.5 67.55 82.15 66.7 79.65 L66.25 78.7 80.85 78.85 83.95 78.55 Q83.0 81.65 84.35 84.9 L71.95 85.8 Q69.4 86.15 66.9 86.75 67.3 85.65 67.4 84.55 67.55 82.2 66.7 79.7 L66.25 78.75 M73.65 56.15 Q74.05 55.85 74.65 55.85 76.7 55.8 80.0 56.0 81.25 56.1 82.05 56.45 L83.25 56.75 Q83.4 56.7 84.1 56.9 84.85 57.35 86.0 57.5 88.65 57.7 92.4 57.6 92.45 58.3 92.6 59.05 92.7 60.3 93.15 62.1 93.5 63.6 93.8 64.95 94.0 65.85 93.95 66.5 94.0 67.55 93.55 68.45 L91.15 68.25 Q88.65 68.1 86.45 67.55 85.45 67.25 84.85 67.05 84.2 66.65 84.0 66.7 83.65 66.7 83.3 67.05 83.0 67.4 82.55 67.5 L81.1 67.65 Q81.0 67.6 80.75 67.5 79.5 66.95 78.15 66.9 L78.1 66.3 77.4 63.9 Q75.95 61.2 74.35 58.0 73.95 57.4 73.7 56.75 L73.55 56.2 73.55 56.15 Q73.95 55.85 74.55 55.85 76.6 55.8 79.9 56.0 81.15 56.1 81.95 56.45 L83.15 56.75 Q83.3 56.7 84.0 56.9 84.75 57.35 85.9 57.5 88.55 57.7 92.3 57.6 92.35 58.3 92.5 59.05 92.6 60.3 93.05 62.1 93.4 63.6 93.7 64.95 93.9 65.85 93.85 66.5 93.9 67.55 93.45 68.45 L91.05 68.25 Q88.55 68.1 86.35 67.55 85.35 67.25 84.75 67.05 84.1 66.65 83.9 66.7 83.55 66.7 83.2 67.05 82.9 67.4 82.45 67.5 L81.0 67.65 Q80.9 67.6 80.65 67.5 79.4 66.95 78.05 66.9 L78.0 66.3 77.3 63.9 Q75.85 61.2 74.25 58.0 73.85 57.4 73.6 56.75 L73.45 56.2 73.45 56.15" fill="none" stroke="#000000" stroke-linecap="round" stroke-linejoin="round" stroke-opacity="0.0" stroke-width="0.0"/>
    </g>
    <radialGradient cx="0" cy="0" gradientTransform="matrix(0.0282, 8.0E-4, -9.0E-4, 0.0313, 75.0, 75.0)" gradientUnits="userSpaceOnUse" id="gradient0" r="819.2" spreadMethod="pad">
      <stop offset="0.0" stop-color="#8aafe5" stop-opacity="0.4392157"/>
      <stop offset="1.0" stop-color="#296e9c" stop-opacity="0.6"/>
    </radialGradient>
    <radialGradient cx="0" cy="0" gradientTransform="matrix(0.0129, 0.0, 0.0, 0.0129, 75.0, 75.0)" gradientUnits="userSpaceOnUse" id="gradient1" r="819.2" spreadMethod="pad">
      <stop offset="0.0" stop-color="#709dd9" stop-opacity="0.38039216"/>
      <stop offset="1.0" stop-color="#1d6696" stop-opacity="0.5411765"/>
    </radialGradient>
  </defs>
</svg>
