<?xml version="1.0" encoding="UTF-8" standalone="no"?>
<svg xmlns:ffdec="https://www.free-decompiler.com/flash" xmlns:xlink="http://www.w3.org/1999/xlink" ffdec:objectType="frame" height="178.35px" width="232.65px" xmlns="http://www.w3.org/2000/svg">
  <g transform="matrix(1.0, 0.0, 0.0, 1.0, 45.35, 18.7)">
    <use ffdec:characterId="728" height="178.3" transform="matrix(1.0, 0.0, 0.0, 1.0, -45.35, -18.7)" width="232.6" xlink:href="#morphshape0"/>
  </g>
  <defs>
    <g id="morphshape0" transform="matrix(1.0, 0.0, 0.0, 1.0, 45.35, 18.7)">
      <path d="M23.2 70.0 L23.2 70.05 Q23.45 77.85 27.45 85.75 36.2 103.15 53.65 109.35 60.05 110.3 67.35 110.3 98.15 110.3 115.1 92.15 122.4 84.1 123.6 75.75 L123.5 74.2 Q122.9 68.95 120.55 63.65 115.45 51.65 104.25 43.95 100.2 41.0 95.7 38.95 88.75 37.25 81.1 37.0 67.1 36.45 54.35 40.75 39.15 45.75 30.5 55.75 24.45 62.85 23.1 70.1 M29.7 65.65 L30.5 66.2 31.75 66.7 33.75 66.9 Q32.0 71.75 32.6 73.0 33.15 74.25 37.75 74.8 39.0 74.95 39.65 73.85 L39.75 73.35 Q39.6 73.05 38.9 72.85 L35.75 73.05 36.75 70.4 Q37.3 68.8 36.65 68.15 L34.5 68.35 34.55 68.25 Q34.9 67.7 35.7 67.1 36.75 66.15 37.6 66.4 39.25 66.55 38.4 68.2 37.5 69.9 39.4 70.2 40.1 70.35 41.35 69.75 42.6 69.15 42.9 68.6 43.2 67.85 41.8 67.35 40.35 66.9 38.4 67.1 L38.3 67.1 38.35 67.0 Q38.4 66.8 38.25 65.1 L38.15 64.4 Q38.6 63.1 39.2 62.65 L41.35 62.65 Q41.5 62.9 41.4 63.4 41.5 63.75 42.75 63.8 44.15 63.8 45.2 62.5 L46.05 61.1 Q46.95 59.35 46.95 59.0 46.75 58.5 45.95 58.1 L47.85 57.05 Q50.15 55.65 50.7 54.9 51.05 54.3 50.85 53.9 50.55 53.25 48.85 52.9 L49.0 52.8 Q50.2 52.3 51.1 52.05 52.6 51.55 54.95 51.45 L55.2 52.1 55.45 52.9 55.2 53.25 54.8 53.35 54.5 53.2 54.7 52.75 Q54.7 52.35 54.05 52.3 53.7 52.3 53.4 52.45 52.95 52.55 52.9 52.9 52.9 52.85 53.0 53.75 53.3 54.65 54.5 54.7 56.15 54.7 57.45 54.1 58.35 53.6 58.65 53.1 59.1 52.15 58.85 51.5 L59.05 51.5 Q59.9 51.5 60.6 50.7 61.25 49.9 62.45 50.0 62.25 50.8 62.35 51.0 62.7 51.7 64.5 51.8 65.95 51.85 66.45 51.45 L66.8 50.6 Q67.15 50.05 68.5 49.6 69.55 50.4 71.95 50.5 77.05 50.65 80.75 49.3 L80.8 49.25 82.65 49.95 Q85.5 51.0 87.3 51.1 89.1 51.2 90.5 49.9 91.55 48.8 91.65 48.2 91.75 46.45 89.0 47.3 88.15 47.55 87.15 48.1 L86.6 48.4 86.2 48.6 86.25 48.85 Q86.4 49.1 87.0 49.1 87.8 49.15 89.1 48.55 L90.3 47.85 90.65 47.85 90.75 47.85 90.8 48.0 89.2 49.6 87.35 49.3 Q86.65 48.7 85.4 48.05 84.5 47.6 83.95 47.4 84.8 46.65 84.8 46.0 84.8 44.8 83.3 44.15 82.0 43.45 80.0 43.15 L76.65 42.95 Q75.0 43.15 74.9 43.65 L75.05 44.25 Q75.55 44.85 77.5 44.75 78.95 44.6 79.6 44.2 80.0 43.9 80.05 43.4 L80.05 43.0 Q79.9 42.55 79.3 42.5 78.85 42.4 78.6 42.6 L78.3 42.9 77.05 42.7 76.75 42.4 Q76.65 42.25 76.7 42.0 76.7 41.8 77.05 41.7 L79.0 41.35 82.75 41.05 83.4 41.4 83.4 41.8 Q83.4 42.2 81.35 42.8 L79.6 43.0 74.1 43.3 Q73.55 43.0 73.05 41.45 72.6 40.05 72.1 40.05 71.3 40.05 70.95 40.55 L70.6 41.3 70.4 41.8 Q70.25 42.2 70.35 42.6 69.7 42.75 68.95 43.05 L67.25 43.85 Q67.55 42.95 67.4 42.55 67.2 41.8 65.6 41.35 61.75 41.05 61.1 42.0 60.95 42.2 61.35 42.5 L62.55 43.15 60.7 44.0 Q60.25 44.15 60.05 44.5 L59.95 44.8 Q59.55 44.5 59.05 44.3 56.2 44.15 52.75 45.25 49.8 46.2 49.25 46.75 48.9 47.15 50.4 47.7 51.85 48.2 51.6 48.45 L49.6 49.45 Q47.7 50.4 47.2 51.05 L47.05 51.2 45.35 50.8 Q43.75 50.5 41.35 52.15 39.45 53.4 38.9 53.95 38.55 54.4 38.6 54.55 L39.4 54.8 Q40.7 54.35 41.35 53.25 42.1 52.1 42.5 51.95 43.75 52.6 45.1 52.9 45.3 53.0 44.85 53.8 L44.25 54.5 Q40.35 53.9 37.75 55.4 L36.75 58.15 Q36.35 60.0 36.65 60.7 32.6 61.4 30.1 64.9 L29.6 65.6 M35.85 76.15 L35.95 76.4 36.3 78.5 Q36.75 80.7 37.7 81.05 39.15 81.35 39.85 80.1 L39.65 79.15 Q39.4 78.25 39.5 78.2 39.7 77.85 40.5 77.3 41.4 76.6 42.1 76.85 44.35 78.5 45.05 79.6 45.7 80.55 45.4 81.75 44.85 83.55 41.95 85.55 38.9 87.5 38.5 88.75 38.05 89.85 42.15 94.3 L43.75 95.2 Q51.3 100.65 56.1 100.6 60.9 100.65 62.95 98.4 63.9 95.95 64.55 95.4 65.7 93.85 68.5 92.1 70.75 90.5 71.1 90.3 L71.2 89.5 Q71.05 88.75 70.2 88.75 68.55 88.75 66.7 92.15 65.9 94.0 64.9 97.1 L62.3 97.25 60.45 94.75 61.8 95.0 63.0 95.1 Q66.6 94.55 67.75 92.2 68.05 91.35 68.35 89.2 L68.5 87.35 Q68.35 86.05 67.3 85.65 L64.25 84.9 Q63.1 85.15 62.7 85.45 62.4 85.6 62.3 86.05 62.05 86.8 62.15 87.0 L63.55 87.2 64.5 86.65 65.4 86.25 Q65.3 86.5 64.8 86.8 L61.8 86.2 Q61.45 85.3 62.1 83.15 62.2 81.4 64.3 80.35 66.3 79.2 66.1 78.7 66.15 77.6 64.95 77.5 63.65 77.4 61.85 78.15 56.95 80.1 55.25 83.3 L54.6 84.15 Q53.9 85.15 53.8 86.45 50.85 84.45 47.85 83.25 50.6 81.4 50.95 80.55 51.05 80.0 51.35 78.2 51.4 76.7 49.75 74.85 48.0 73.1 45.7 72.25 43.1 71.35 40.85 72.05 37.95 72.85 35.85 76.1 M64.0 89.9 L64.1 90.15 Q64.4 92.1 66.7 92.35 68.45 92.6 70.6 91.5 72.6 90.4 74.75 90.75 75.35 90.85 75.55 91.4 L75.55 92.2 74.75 92.95 Q72.5 92.2 71.7 93.2 71.25 93.65 71.2 94.9 L71.15 96.1 Q71.55 97.25 73.75 97.5 L79.7 97.8 Q85.25 97.2 87.0 94.25 87.75 92.8 89.75 90.8 L91.55 91.4 Q95.4 91.85 97.25 90.1 98.2 89.05 98.25 88.3 L99.05 87.65 Q99.1 87.1 97.85 85.35 96.65 83.65 96.65 82.85 96.55 81.3 98.9 80.35 100.4 79.65 104.25 78.85 L105.45 78.6 105.95 79.8 104.3 81.5 Q103.6 82.15 103.9 82.85 104.0 83.25 104.2 83.45 104.65 83.95 105.65 83.95 109.0 84.0 109.7 81.4 110.0 80.15 109.7 78.6 L109.5 77.9 110.8 77.4 Q112.85 76.5 112.55 75.1 112.3 74.1 111.2 74.2 110.1 74.25 109.55 75.2 L108.95 75.9 108.85 75.85 105.75 75.4 105.25 74.95 105.05 73.55 Q109.25 74.35 111.3 72.25 112.65 70.7 112.4 69.5 112.2 68.15 108.95 67.25 105.65 66.3 105.75 65.9 105.75 64.95 108.75 63.45 109.4 63.75 109.65 64.2 L109.7 64.9 Q109.55 65.35 109.65 65.6 L109.9 66.0 Q110.35 66.3 111.3 66.35 112.25 66.35 112.4 65.45 112.45 64.9 112.3 64.3 112.15 63.5 110.9 62.8 112.85 61.7 112.8 61.2 112.65 60.55 111.5 60.75 110.5 61.0 109.3 61.85 L109.1 61.95 107.65 61.4 Q106.4 60.9 106.4 60.75 106.25 60.15 106.45 59.75 110.55 59.8 111.15 58.5 111.3 58.05 110.85 56.75 110.3 55.25 107.95 54.05 106.95 53.5 106.45 53.5 105.8 53.45 105.95 54.05 L106.1 54.25 Q106.35 54.5 107.0 54.45 107.95 54.35 108.3 54.65 L108.5 55.3 108.65 55.75 Q108.6 56.0 108.05 56.05 104.2 55.35 103.55 56.25 103.3 56.5 103.6 57.6 103.95 58.65 107.25 59.05 105.15 60.4 105.6 61.8 105.9 62.7 107.85 62.9 111.05 63.25 113.55 64.35 113.4 65.85 112.2 66.1 111.5 66.2 109.8 65.85 108.25 65.45 107.85 65.65 L107.6 65.85 Q107.15 66.4 107.55 68.0 107.85 69.5 108.2 69.95 108.7 70.7 110.1 71.25 L108.25 71.35 Q101.5 71.6 101.85 76.6 101.95 77.85 102.2 78.45 L103.7 81.0 Q102.6 82.75 99.35 83.05 99.8 82.25 99.7 82.05 98.85 78.85 95.95 81.1 L95.55 79.55 Q98.2 79.6 97.8 78.25 97.7 77.95 97.4 77.65 96.85 77.15 96.0 76.95 L92.8 76.85 Q91.7 76.9 91.45 77.95 91.25 78.35 91.25 79.65 L91.85 83.4 Q89.45 85.7 85.75 90.1 L82.35 90.0 Q79.75 88.35 79.55 85.4 79.4 82.65 77.65 81.65 L70.75 81.4 Q67.35 82.55 65.8 84.4 64.8 85.55 64.3 87.8 L63.8 89.6 M81.95 43.0 L81.95 43.05 82.1 43.65 Q82.35 44.4 82.9 45.05 85.0 48.15 88.5 50.3 L90.75 52.1 91.05 52.65 Q92.45 52.95 93.6 54.2 93.8 54.45 93.7 54.55 L92.9 54.5 Q93.05 54.35 92.8 53.7 92.7 53.05 92.6 53.05 92.2 52.95 92.75 53.7 93.2 54.05 94.5 54.6 96.95 55.6 100.05 55.75 L102.95 55.9 Q104.3 55.15 104.6 54.1 104.8 53.4 104.5 52.25 104.15 50.8 103.4 49.05 102.45 46.9 101.8 45.85 101.15 45.25 100.6 44.7 95.6 44.85 92.8 44.4 91.4 44.1 90.75 43.2 90.35 42.9 91.05 42.95 L91.35 42.55 Q90.7 41.95 89.1 41.8 84.7 41.6 82.75 42.0 82.1 42.1 81.85 42.8 M67.15 87.8 L67.5 88.3 Q68.0 89.7 68.4 90.7 68.5 91.3 68.35 91.9 70.6 91.05 72.95 90.7 L84.9 90.1 Q83.85 88.2 83.5 86.45 L80.65 86.95 67.1 87.8" fill="url(#gradient0)" fill-rule="evenodd" stroke="none"/>
      <path d="M29.8 65.7 L30.6 66.25 31.85 66.75 33.85 66.95 Q32.1 71.8 32.7 73.05 33.25 74.3 37.85 74.85 39.1 75.0 39.75 73.9 L39.85 73.4 Q39.7 73.1 39.0 72.9 L35.85 73.1 36.85 70.45 Q37.4 68.85 36.75 68.2 L34.6 68.4 34.65 68.3 Q35.0 67.75 35.8 67.15 36.85 66.2 37.7 66.45 39.35 66.6 38.5 68.25 37.6 69.95 39.5 70.25 40.2 70.4 41.45 69.8 42.7 69.2 43.0 68.65 43.3 67.9 41.9 67.4 40.45 66.95 38.5 67.15 L38.4 67.15 38.45 67.05 Q38.5 66.85 38.35 65.15 L38.25 64.45 Q38.7 63.15 39.3 62.7 L41.45 62.7 Q41.6 62.95 41.5 63.45 41.6 63.8 42.85 63.85 44.25 63.85 45.3 62.55 L46.15 61.15 Q47.05 59.4 47.05 59.05 46.85 58.55 46.05 58.15 L47.95 57.1 Q50.25 55.7 50.8 54.95 51.15 54.35 50.95 53.95 50.65 53.3 48.95 52.95 L49.1 52.85 Q50.3 52.35 51.2 52.1 52.7 51.6 55.05 51.5 L55.3 52.15 55.55 52.95 55.3 53.3 54.9 53.4 54.6 53.25 54.8 52.8 Q54.8 52.4 54.15 52.35 53.8 52.35 53.5 52.5 53.05 52.6 53.0 52.95 53.0 52.9 53.1 53.8 53.4 54.7 54.6 54.75 56.25 54.75 57.55 54.15 58.45 53.65 58.75 53.15 59.2 52.2 58.95 51.55 L59.15 51.55 Q60.0 51.55 60.7 50.75 61.35 49.95 62.55 50.05 62.35 50.85 62.45 51.05 62.8 51.75 64.6 51.85 66.05 51.9 66.55 51.5 L66.9 50.65 Q67.25 50.1 68.6 49.65 69.65 50.45 72.05 50.55 77.15 50.7 80.85 49.35 L80.9 49.3 82.75 50.0 Q85.6 51.05 87.4 51.15 89.2 51.25 90.6 49.95 91.65 48.85 91.75 48.25 91.85 46.5 89.1 47.35 88.25 47.6 87.25 48.15 L86.7 48.45 86.3 48.65 86.35 48.9 Q86.5 49.15 87.1 49.15 87.9 49.2 89.2 48.6 L90.4 47.9 90.75 47.9 90.85 47.9 90.9 48.05 89.3 49.65 87.45 49.35 Q86.75 48.75 85.5 48.1 84.6 47.65 84.05 47.45 84.9 46.7 84.9 46.05 84.9 44.85 83.4 44.2 82.1 43.5 80.1 43.2 L76.75 43.0 Q75.1 43.2 75.0 43.7 L75.15 44.3 Q75.65 44.9 77.6 44.8 79.05 44.65 79.7 44.25 80.1 43.95 80.15 43.45 L80.15 43.05 Q80.0 42.6 79.4 42.55 78.95 42.45 78.7 42.65 L78.4 42.95 77.15 42.75 76.85 42.45 Q76.75 42.3 76.8 42.05 76.8 41.85 77.15 41.75 L79.1 41.4 82.85 41.1 83.5 41.45 83.5 41.85 Q83.5 42.25 81.45 42.85 L79.7 43.05 74.2 43.35 Q73.65 43.05 73.15 41.5 72.7 40.1 72.2 40.1 71.4 40.1 71.05 40.6 L70.7 41.35 70.5 41.85 Q70.35 42.25 70.45 42.65 69.8 42.8 69.05 43.1 L67.35 43.9 Q67.65 43.0 67.5 42.6 67.3 41.85 65.7 41.4 61.85 41.1 61.2 42.05 61.05 42.25 61.45 42.55 L62.65 43.2 60.8 44.05 Q60.35 44.2 60.15 44.55 L60.05 44.85 Q59.65 44.55 59.15 44.35 56.3 44.2 52.85 45.3 49.9 46.25 49.35 46.8 49.0 47.2 50.5 47.75 51.95 48.25 51.7 48.5 L49.7 49.5 Q47.8 50.45 47.3 51.1 L47.15 51.25 45.45 50.85 Q43.85 50.55 41.45 52.2 39.55 53.45 39.0 54.0 38.65 54.45 38.7 54.6 L39.5 54.85 Q40.8 54.4 41.45 53.3 42.2 52.15 42.6 52.0 43.85 52.65 45.2 52.95 45.4 53.05 44.95 53.85 L44.35 54.55 Q40.45 53.95 37.85 55.45 L36.85 58.2 Q36.45 60.05 36.75 60.75 32.7 61.45 30.2 64.95 L29.7 65.65 M35.85 76.2 L35.95 76.45 36.3 78.55 Q36.75 80.75 37.7 81.1 39.15 81.4 39.85 80.15 L39.65 79.2 Q39.4 78.3 39.5 78.25 39.7 77.9 40.5 77.35 41.4 76.65 42.1 76.9 44.35 78.55 45.05 79.65 45.7 80.6 45.4 81.8 44.85 83.6 41.95 85.6 38.9 87.55 38.5 88.8 38.05 89.9 42.15 94.35 L43.75 95.25 Q51.3 100.7 56.1 100.65 60.9 100.7 62.95 98.45 63.9 96.0 64.55 95.45 65.7 93.9 68.5 92.15 70.75 90.55 71.1 90.35 L71.2 89.55 Q71.05 88.8 70.2 88.8 68.55 88.8 66.7 92.2 65.9 94.05 64.9 97.15 L62.3 97.3 60.45 94.8 61.8 95.05 63.0 95.15 Q66.6 94.6 67.75 92.25 68.05 91.4 68.35 89.25 L68.5 87.4 Q68.35 86.1 67.3 85.7 L64.25 84.95 Q63.1 85.2 62.7 85.5 62.4 85.65 62.3 86.1 62.05 86.85 62.15 87.05 L63.55 87.25 64.5 86.7 65.4 86.3 Q65.3 86.55 64.8 86.85 L61.8 86.25 Q61.45 85.35 62.1 83.2 62.2 81.45 64.3 80.4 66.3 79.25 66.1 78.75 66.15 77.65 64.95 77.55 63.65 77.45 61.85 78.2 56.95 80.15 55.25 83.35 L54.6 84.2 Q53.9 85.2 53.8 86.5 50.85 84.5 47.85 83.3 50.6 81.45 50.95 80.6 51.05 80.05 51.35 78.25 51.4 76.75 49.75 74.9 48.0 73.15 45.7 72.3 43.1 71.4 40.85 72.1 37.95 72.9 35.85 76.15 M67.1 87.8 L67.45 88.3 Q67.95 89.7 68.35 90.7 68.45 91.3 68.3 91.9 70.55 91.05 72.9 90.7 L84.85 90.1 Q83.8 88.2 83.45 86.45 L80.6 86.95 67.05 87.8 M64.2 90.2 L64.3 90.45 Q64.6 92.4 66.9 92.65 68.65 92.9 70.8 91.8 72.8 90.7 74.95 91.05 75.55 91.15 75.75 91.7 L75.75 92.5 74.95 93.25 Q72.7 92.5 71.9 93.5 71.45 93.95 71.4 95.2 L71.35 96.4 Q71.75 97.55 73.95 97.8 L79.9 98.1 Q85.45 97.5 87.2 94.55 87.95 93.1 89.95 91.1 L91.75 91.7 Q95.6 92.15 97.45 90.4 98.4 89.35 98.45 88.6 L99.25 87.95 Q99.3 87.4 98.05 85.65 96.85 83.95 96.85 83.15 96.75 81.6 99.1 80.65 100.6 79.95 104.45 79.15 L105.65 78.9 106.15 80.1 104.5 81.8 Q103.8 82.45 104.1 83.15 104.2 83.55 104.4 83.75 104.85 84.25 105.85 84.25 109.2 84.3 109.9 81.7 110.2 80.45 109.9 78.9 L109.7 78.2 111.0 77.7 Q113.05 76.8 112.75 75.4 112.5 74.4 111.4 74.5 110.3 74.55 109.75 75.5 L109.15 76.2 109.05 76.15 105.95 75.7 105.45 75.25 105.25 73.85 Q109.45 74.65 111.5 72.55 112.85 71.0 112.6 69.8 112.4 68.45 109.15 67.55 105.85 66.6 105.95 66.2 105.95 65.25 108.95 63.75 109.6 64.05 109.85 64.5 L109.9 65.2 Q109.75 65.65 109.85 65.9 L110.1 66.3 Q110.55 66.6 111.5 66.65 112.45 66.65 112.6 65.75 112.65 65.2 112.5 64.6 112.35 63.8 111.1 63.1 113.05 62.0 113.0 61.5 112.85 60.85 111.7 61.05 110.7 61.3 109.5 62.15 L109.3 62.25 107.85 61.7 Q106.6 61.2 106.6 61.05 106.45 60.45 106.65 60.05 110.75 60.1 111.35 58.8 111.5 58.35 111.05 57.05 110.5 55.55 108.15 54.35 107.15 53.8 106.65 53.8 106.0 53.75 106.15 54.35 L106.3 54.55 Q106.55 54.8 107.2 54.75 108.15 54.65 108.5 54.95 L108.7 55.6 108.85 56.05 Q108.8 56.3 108.25 56.35 104.4 55.65 103.75 56.55 103.5 56.8 103.8 57.9 104.15 58.95 107.45 59.35 105.35 60.7 105.8 62.1 106.1 63.0 108.05 63.2 111.25 63.55 113.75 64.65 113.6 66.15 112.4 66.4 111.7 66.5 110.0 66.15 108.45 65.75 108.05 65.95 L107.8 66.15 Q107.35 66.7 107.75 68.3 108.05 69.8 108.4 70.25 108.9 71.0 110.3 71.55 L108.45 71.65 Q101.7 71.9 102.05 76.9 102.15 78.15 102.4 78.75 L103.9 81.3 Q102.8 83.05 99.55 83.35 100.0 82.55 99.9 82.35 99.05 79.15 96.15 81.4 L95.75 79.85 Q98.4 79.9 98.0 78.55 97.9 78.25 97.6 77.95 97.05 77.45 96.2 77.25 L93.0 77.15 Q91.9 77.2 91.65 78.25 91.45 78.65 91.45 79.95 L92.05 83.7 Q89.65 86.0 85.95 90.4 L82.55 90.3 Q79.95 88.65 79.75 85.7 79.6 82.95 77.85 81.95 L70.95 81.7 Q67.55 82.85 66.0 84.7 65.0 85.85 64.5 88.1 L64.0 89.9 M82.05 43.2 L82.05 43.25 82.2 43.85 Q82.45 44.6 83.0 45.25 85.1 48.35 88.6 50.5 L90.85 52.3 91.15 52.85 Q92.55 53.15 93.7 54.4 93.9 54.65 93.8 54.75 L93.0 54.7 Q93.15 54.55 92.9 53.9 92.8 53.25 92.7 53.25 92.3 53.15 92.85 53.9 93.3 54.25 94.6 54.8 97.05 55.8 100.15 55.95 L103.05 56.1 Q104.4 55.35 104.7 54.3 104.9 53.6 104.6 52.45 104.25 51.0 103.5 49.25 102.55 47.1 101.9 46.05 101.25 45.45 100.7 44.9 95.7 45.05 92.9 44.6 91.5 44.3 90.85 43.4 90.45 43.1 91.15 43.15 L91.45 42.75 Q90.8 42.15 89.2 42.0 84.8 41.8 82.85 42.2 82.2 42.3 81.95 43.0" fill="url(#gradient1)" fill-rule="evenodd" stroke="none"/>
      <path d="M23.1 70.1 Q24.45 62.85 30.5 55.75 39.15 45.75 54.35 40.75 67.1 36.45 81.1 37.0 88.75 37.25 95.7 38.95 100.2 41.0 104.25 43.95 115.45 51.65 120.55 63.65 122.9 68.95 123.5 74.2 L123.6 75.75 Q122.4 84.1 115.1 92.15 98.15 110.3 67.35 110.3 60.05 110.3 53.65 109.35 36.2 103.15 27.45 85.75 23.45 77.85 23.2 70.05 L23.2 70.0 M23.1 70.1 Q24.45 62.85 30.5 55.75 39.15 45.75 54.35 40.75 67.1 36.45 81.1 37.0 88.75 37.25 95.7 38.95 100.2 41.0 104.25 43.95 115.45 51.65 120.55 63.65 122.9 68.95 123.5 74.2 L123.6 75.75 Q122.4 84.1 115.1 92.15 98.15 110.3 67.35 110.3 60.05 110.3 53.65 109.35 36.2 103.15 27.45 85.75 23.45 77.85 23.2 70.05" fill="none" stroke="#384752" stroke-linecap="round" stroke-linejoin="round" stroke-opacity="0.28627452" stroke-width="4.0"/>
      <path d="M29.6 65.6 L30.1 64.9 Q32.6 61.4 36.65 60.7 36.35 60.0 36.75 58.15 L37.75 55.4 Q40.35 53.9 44.25 54.5 L44.85 53.8 Q45.3 53.0 45.1 52.9 43.75 52.6 42.5 51.95 42.1 52.1 41.35 53.25 40.7 54.35 39.4 54.8 L38.6 54.55 Q38.55 54.4 38.9 53.95 39.45 53.4 41.35 52.15 43.75 50.5 45.35 50.8 L47.05 51.2 47.2 51.05 Q47.7 50.4 49.6 49.45 L51.6 48.45 Q51.85 48.2 50.4 47.7 48.9 47.15 49.25 46.75 49.8 46.2 52.75 45.25 56.2 44.15 59.05 44.3 59.55 44.5 59.95 44.8 L60.05 44.5 Q60.25 44.15 60.7 44.0 L62.55 43.15 61.35 42.5 Q60.95 42.2 61.1 42.0 61.75 41.05 65.6 41.35 67.2 41.8 67.4 42.55 67.55 42.95 67.25 43.85 L68.95 43.05 Q69.7 42.75 70.35 42.6 70.25 42.2 70.4 41.8 L70.6 41.3 70.95 40.55 Q71.3 40.05 72.1 40.05 72.6 40.05 73.05 41.45 73.55 43.0 74.1 43.3 L79.6 43.0 81.35 42.8 Q83.4 42.2 83.4 41.8 L83.4 41.4 82.75 41.05 79.0 41.35 77.05 41.7 Q76.7 41.8 76.7 42.0 76.65 42.25 76.75 42.4 L77.05 42.7 78.3 42.9 78.6 42.6 Q78.85 42.4 79.3 42.5 79.9 42.55 80.05 43.0 L80.05 43.4 Q80.0 43.9 79.6 44.2 78.95 44.6 77.5 44.75 75.55 44.85 75.05 44.25 L74.9 43.65 Q75.0 43.15 76.65 42.95 L80.0 43.15 Q82.0 43.45 83.3 44.15 84.8 44.8 84.8 46.0 84.8 46.65 83.95 47.4 84.5 47.6 85.4 48.05 86.65 48.7 87.35 49.3 L89.2 49.6 90.8 48.0 90.75 47.85 90.65 47.85 90.3 47.85 89.1 48.55 Q87.8 49.15 87.0 49.1 86.4 49.1 86.25 48.85 L86.2 48.6 86.6 48.4 87.15 48.1 Q88.15 47.55 89.0 47.3 91.75 46.45 91.65 48.2 91.55 48.8 90.5 49.9 89.1 51.2 87.3 51.1 85.5 51.0 82.65 49.95 L80.8 49.25 80.75 49.3 Q77.05 50.65 71.95 50.5 69.55 50.4 68.5 49.6 67.15 50.05 66.8 50.6 L66.45 51.45 Q65.95 51.85 64.5 51.8 62.7 51.7 62.35 51.0 62.25 50.8 62.45 50.0 61.25 49.9 60.6 50.7 59.9 51.5 59.05 51.5 L58.85 51.5 Q59.1 52.15 58.65 53.1 58.35 53.6 57.45 54.1 56.15 54.7 54.5 54.7 53.3 54.65 53.0 53.75 52.9 52.85 52.9 52.9 52.95 52.55 53.4 52.45 53.7 52.3 54.05 52.3 54.7 52.35 54.7 52.75 L54.5 53.2 54.8 53.35 55.2 53.25 55.45 52.9 55.2 52.1 54.95 51.45 Q52.6 51.55 51.1 52.05 50.2 52.3 49.0 52.8 L48.85 52.9 Q50.55 53.25 50.85 53.9 51.05 54.3 50.7 54.9 50.15 55.65 47.85 57.05 L45.95 58.1 Q46.75 58.5 46.95 59.0 46.95 59.35 46.05 61.1 L45.2 62.5 Q44.15 63.8 42.75 63.8 41.5 63.75 41.4 63.4 41.5 62.9 41.35 62.65 L39.2 62.65 Q38.6 63.1 38.15 64.4 L38.25 65.1 Q38.4 66.8 38.35 67.0 L38.3 67.1 38.4 67.1 Q40.35 66.9 41.8 67.35 43.2 67.85 42.9 68.6 42.6 69.15 41.35 69.75 40.1 70.35 39.4 70.2 37.5 69.9 38.4 68.2 39.25 66.55 37.6 66.4 36.75 66.15 35.7 67.1 34.9 67.7 34.55 68.25 L34.5 68.35 36.65 68.15 Q37.3 68.8 36.75 70.4 L35.75 73.05 38.9 72.85 Q39.6 73.05 39.75 73.35 L39.65 73.85 Q39.0 74.95 37.75 74.8 33.15 74.25 32.6 73.0 32.0 71.75 33.75 66.9 L31.75 66.7 30.5 66.2 29.7 65.65 30.2 64.95 Q32.7 61.45 36.75 60.75 36.45 60.05 36.85 58.2 L37.85 55.45 Q40.45 53.95 44.35 54.55 L44.95 53.85 Q45.4 53.05 45.2 52.95 43.85 52.65 42.6 52.0 42.2 52.15 41.45 53.3 40.8 54.4 39.5 54.85 L38.7 54.6 Q38.65 54.45 39.0 54.0 39.55 53.45 41.45 52.2 43.85 50.55 45.45 50.85 L47.15 51.25 47.3 51.1 Q47.8 50.45 49.7 49.5 L51.7 48.5 Q51.95 48.25 50.5 47.75 49.0 47.2 49.35 46.8 49.9 46.25 52.85 45.3 56.3 44.2 59.15 44.35 59.65 44.55 60.05 44.85 L60.15 44.55 Q60.35 44.2 60.8 44.05 L62.65 43.2 61.45 42.55 Q61.05 42.25 61.2 42.05 61.85 41.1 65.7 41.4 67.3 41.85 67.5 42.6 67.65 43.0 67.35 43.9 L69.05 43.1 Q69.8 42.8 70.45 42.65 70.35 42.25 70.5 41.85 L70.7 41.35 71.05 40.6 Q71.4 40.1 72.2 40.1 72.7 40.1 73.15 41.5 73.65 43.05 74.2 43.35 L79.7 43.05 81.45 42.85 Q83.5 42.25 83.5 41.85 L83.5 41.45 82.85 41.1 79.1 41.4 77.15 41.75 Q76.8 41.85 76.8 42.05 76.75 42.3 76.85 42.45 L77.15 42.75 78.4 42.95 78.7 42.65 Q78.95 42.45 79.4 42.55 80.0 42.6 80.15 43.05 L80.15 43.45 Q80.1 43.95 79.7 44.25 79.05 44.65 77.6 44.8 75.65 44.9 75.15 44.3 L75.0 43.7 Q75.1 43.2 76.75 43.0 L80.1 43.2 Q82.1 43.5 83.4 44.2 84.9 44.85 84.9 46.05 84.9 46.7 84.05 47.45 84.6 47.65 85.5 48.1 86.75 48.75 87.45 49.35 L89.3 49.65 90.9 48.05 90.85 47.9 90.75 47.9 90.4 47.9 89.2 48.6 Q87.9 49.2 87.1 49.15 86.5 49.15 86.35 48.9 L86.3 48.65 86.7 48.45 87.25 48.15 Q88.25 47.6 89.1 47.35 91.85 46.5 91.75 48.25 91.65 48.85 90.6 49.95 89.2 51.25 87.4 51.15 85.6 51.05 82.75 50.0 L80.9 49.3 80.85 49.35 Q77.15 50.7 72.05 50.55 69.65 50.45 68.6 49.65 67.25 50.1 66.9 50.65 L66.55 51.5 Q66.05 51.9 64.6 51.85 62.8 51.75 62.45 51.05 62.35 50.85 62.55 50.05 61.35 49.95 60.7 50.75 60.0 51.55 59.15 51.55 L58.95 51.55 Q59.2 52.2 58.75 53.15 58.45 53.65 57.55 54.15 56.25 54.75 54.6 54.75 53.4 54.7 53.1 53.8 53.0 52.9 53.0 52.95 53.05 52.6 53.5 52.5 53.8 52.35 54.15 52.35 54.8 52.4 54.8 52.8 L54.6 53.25 54.9 53.4 55.3 53.3 55.55 52.95 55.3 52.15 55.05 51.5 Q52.7 51.6 51.2 52.1 50.3 52.35 49.1 52.85 L48.95 52.95 Q50.65 53.3 50.95 53.95 51.15 54.35 50.8 54.95 50.25 55.7 47.95 57.1 L46.05 58.15 Q46.85 58.55 47.05 59.05 47.05 59.4 46.15 61.15 L45.3 62.55 Q44.25 63.85 42.85 63.85 41.6 63.8 41.5 63.45 41.6 62.95 41.45 62.7 L39.3 62.7 Q38.7 63.15 38.25 64.45 L38.35 65.15 Q38.5 66.85 38.45 67.05 L38.4 67.15 38.5 67.15 Q40.45 66.95 41.9 67.4 43.3 67.9 43.0 68.65 42.7 69.2 41.45 69.8 40.2 70.4 39.5 70.25 37.6 69.95 38.5 68.25 39.35 66.6 37.7 66.45 36.85 66.2 35.8 67.15 35.0 67.75 34.65 68.3 L34.6 68.4 36.75 68.2 Q37.4 68.85 36.85 70.45 L35.85 73.1 39.0 72.9 Q39.7 73.1 39.85 73.4 L39.75 73.9 Q39.1 75.0 37.85 74.85 33.25 74.3 32.7 73.05 32.1 71.8 33.85 66.95 L31.85 66.75 30.6 66.25 29.8 65.7 M35.85 76.1 Q37.95 72.85 40.85 72.05 43.1 71.35 45.7 72.25 48.0 73.1 49.75 74.85 51.4 76.7 51.35 78.2 51.05 80.0 50.95 80.55 50.6 81.4 47.85 83.25 50.85 84.45 53.8 86.45 53.9 85.15 54.6 84.15 L55.25 83.3 Q56.95 80.1 61.85 78.15 63.65 77.4 64.95 77.5 66.15 77.6 66.1 78.7 66.3 79.2 64.3 80.35 62.2 81.4 62.1 83.15 61.45 85.3 61.8 86.2 L64.8 86.8 Q65.3 86.5 65.4 86.25 L64.5 86.65 63.55 87.2 62.15 87.0 Q62.05 86.8 62.3 86.05 62.4 85.6 62.7 85.45 63.1 85.15 64.25 84.9 L67.3 85.65 Q68.35 86.05 68.5 87.35 L68.35 89.2 Q68.05 91.35 67.75 92.2 66.6 94.55 63.0 95.1 L61.8 95.0 60.45 94.75 62.3 97.25 64.9 97.1 Q65.9 94.0 66.7 92.15 68.55 88.75 70.2 88.75 71.05 88.75 71.2 89.5 L71.1 90.3 Q70.75 90.5 68.5 92.1 65.7 93.85 64.55 95.4 63.9 95.95 62.95 98.4 60.9 100.65 56.1 100.6 51.3 100.65 43.75 95.2 L42.15 94.3 Q38.05 89.85 38.5 88.75 38.9 87.5 41.95 85.55 44.85 83.55 45.4 81.75 45.7 80.55 45.05 79.6 44.35 78.5 42.1 76.85 41.4 76.6 40.5 77.3 39.7 77.85 39.5 78.2 39.4 78.25 39.65 79.15 L39.85 80.1 Q39.15 81.35 37.7 81.05 36.75 80.7 36.3 78.5 L35.95 76.4 35.85 76.15 Q37.95 72.9 40.85 72.1 43.1 71.4 45.7 72.3 48.0 73.15 49.75 74.9 51.4 76.75 51.35 78.25 51.05 80.05 50.95 80.6 50.6 81.45 47.85 83.3 50.85 84.5 53.8 86.5 53.9 85.2 54.6 84.2 L55.25 83.35 Q56.95 80.15 61.85 78.2 63.65 77.45 64.95 77.55 66.15 77.65 66.1 78.75 66.3 79.25 64.3 80.4 62.2 81.45 62.1 83.2 61.45 85.35 61.8 86.25 L64.8 86.85 Q65.3 86.55 65.4 86.3 L64.5 86.7 63.55 87.25 62.15 87.05 Q62.05 86.85 62.3 86.1 62.4 85.65 62.7 85.5 63.1 85.2 64.25 84.95 L67.3 85.7 Q68.35 86.1 68.5 87.4 L68.35 89.25 Q68.05 91.4 67.75 92.25 66.6 94.6 63.0 95.15 L61.8 95.05 60.45 94.8 62.3 97.3 64.9 97.15 Q65.9 94.05 66.7 92.2 68.55 88.8 70.2 88.8 71.05 88.8 71.2 89.55 L71.1 90.35 Q70.75 90.55 68.5 92.15 65.7 93.9 64.55 95.45 63.9 96.0 62.95 98.45 60.9 100.7 56.1 100.65 51.3 100.7 43.75 95.25 L42.15 94.35 Q38.05 89.9 38.5 88.8 38.9 87.55 41.95 85.6 44.85 83.6 45.4 81.8 45.7 80.6 45.05 79.65 44.35 78.55 42.1 76.9 41.4 76.65 40.5 77.35 39.7 77.9 39.5 78.25 39.4 78.3 39.65 79.2 L39.85 80.15 Q39.15 81.4 37.7 81.1 36.75 80.75 36.3 78.55 L35.95 76.45 35.85 76.2 M63.8 89.6 L64.3 87.8 Q64.8 85.55 65.8 84.4 67.35 82.55 70.75 81.4 L77.65 81.65 Q79.4 82.65 79.55 85.4 79.75 88.35 82.35 90.0 L85.75 90.1 Q89.45 85.7 91.85 83.4 L91.25 79.65 Q91.25 78.35 91.45 77.95 91.7 76.9 92.8 76.85 L96.0 76.95 Q96.85 77.15 97.4 77.65 97.7 77.95 97.8 78.25 98.2 79.6 95.55 79.55 L95.95 81.1 Q98.85 78.85 99.7 82.05 99.8 82.25 99.35 83.05 102.6 82.75 103.7 81.0 L102.2 78.45 Q101.95 77.85 101.85 76.6 101.5 71.6 108.25 71.35 L110.1 71.25 Q108.7 70.7 108.2 69.95 107.85 69.5 107.55 68.0 107.15 66.4 107.6 65.85 L107.85 65.65 Q108.25 65.45 109.8 65.85 111.5 66.2 112.2 66.1 113.4 65.85 113.55 64.35 111.05 63.25 107.85 62.9 105.9 62.7 105.6 61.8 105.15 60.4 107.25 59.05 103.95 58.65 103.6 57.6 103.3 56.5 103.55 56.25 104.2 55.35 108.05 56.05 108.6 56.0 108.65 55.75 L108.5 55.3 108.3 54.65 Q107.95 54.35 107.0 54.45 106.35 54.5 106.1 54.25 L105.95 54.05 Q105.8 53.45 106.45 53.5 106.95 53.5 107.95 54.05 110.3 55.25 110.85 56.75 111.3 58.05 111.15 58.5 110.55 59.8 106.45 59.75 106.25 60.15 106.4 60.75 106.4 60.9 107.65 61.4 L109.1 61.95 109.3 61.85 Q110.5 61.0 111.5 60.75 112.65 60.55 112.8 61.2 112.85 61.7 110.9 62.8 112.15 63.5 112.3 64.3 112.45 64.9 112.4 65.45 112.25 66.35 111.3 66.35 110.35 66.3 109.9 66.0 L109.65 65.6 Q109.55 65.35 109.7 64.9 L109.65 64.2 Q109.4 63.75 108.75 63.45 105.75 64.95 105.75 65.9 105.65 66.3 108.95 67.25 112.2 68.15 112.4 69.5 112.65 70.7 111.3 72.25 109.25 74.35 105.05 73.55 L105.25 74.95 105.75 75.4 108.85 75.85 108.95 75.9 109.55 75.2 Q110.1 74.25 111.2 74.2 112.3 74.1 112.55 75.1 112.85 76.5 110.8 77.4 L109.5 77.9 109.7 78.6 Q110.0 80.15 109.7 81.4 109.0 84.0 105.65 83.95 104.65 83.95 104.2 83.45 104.0 83.25 103.9 82.85 103.6 82.15 104.3 81.5 L105.95 79.8 105.45 78.6 104.25 78.85 Q100.4 79.65 98.9 80.35 96.55 81.3 96.65 82.85 96.65 83.65 97.85 85.35 99.1 87.1 99.05 87.65 L98.25 88.3 Q98.2 89.05 97.25 90.1 95.4 91.85 91.55 91.4 L89.75 90.8 Q87.75 92.8 87.0 94.25 85.25 97.2 79.7 97.8 L73.75 97.5 Q71.55 97.25 71.15 96.1 L71.2 94.9 Q71.25 93.65 71.7 93.2 72.5 92.2 74.75 92.95 L75.55 92.2 75.55 91.4 Q75.35 90.85 74.75 90.75 72.6 90.4 70.6 91.5 68.45 92.6 66.7 92.35 64.4 92.1 64.1 90.15 L64.0 89.9 64.5 88.1 Q65.0 85.85 66.0 84.7 67.55 82.85 70.95 81.7 L77.85 81.95 Q79.6 82.95 79.75 85.7 79.95 88.65 82.55 90.3 L85.95 90.4 Q89.65 86.0 92.05 83.7 L91.45 79.95 Q91.45 78.65 91.65 78.25 91.9 77.2 93.0 77.15 L96.2 77.25 Q97.05 77.45 97.6 77.95 97.9 78.25 98.0 78.55 98.4 79.9 95.75 79.85 L96.15 81.4 Q99.05 79.15 99.9 82.35 100.0 82.55 99.55 83.35 102.8 83.05 103.9 81.3 L102.4 78.75 Q102.15 78.15 102.05 76.9 101.7 71.9 108.45 71.65 L110.3 71.55 Q108.9 71.0 108.4 70.25 108.05 69.8 107.75 68.3 107.35 66.7 107.8 66.15 L108.05 65.95 Q108.45 65.75 110.0 66.15 111.7 66.5 112.4 66.4 113.6 66.15 113.75 64.65 111.25 63.55 108.05 63.2 106.1 63.0 105.8 62.1 105.35 60.7 107.45 59.35 104.15 58.95 103.8 57.9 103.5 56.8 103.75 56.55 104.4 55.65 108.25 56.35 108.8 56.3 108.85 56.05 L108.7 55.6 108.5 54.95 Q108.15 54.65 107.2 54.75 106.55 54.8 106.3 54.55 L106.15 54.35 Q106.0 53.75 106.65 53.8 107.15 53.8 108.15 54.35 110.5 55.55 111.05 57.05 111.5 58.35 111.35 58.8 110.75 60.1 106.65 60.05 106.45 60.45 106.6 61.05 106.6 61.2 107.85 61.7 L109.3 62.25 109.5 62.15 Q110.7 61.3 111.7 61.05 112.85 60.85 113.0 61.5 113.05 62.0 111.1 63.1 112.35 63.8 112.5 64.6 112.65 65.2 112.6 65.75 112.45 66.65 111.5 66.65 110.55 66.6 110.1 66.3 L109.85 65.9 Q109.75 65.65 109.9 65.2 L109.85 64.5 Q109.6 64.05 108.95 63.75 105.95 65.25 105.95 66.2 105.85 66.6 109.15 67.55 112.4 68.45 112.6 69.8 112.85 71.0 111.5 72.55 109.45 74.65 105.25 73.85 L105.45 75.25 105.95 75.7 109.05 76.15 109.15 76.2 109.75 75.5 Q110.3 74.55 111.4 74.5 112.5 74.4 112.75 75.4 113.05 76.8 111.0 77.7 L109.7 78.2 109.9 78.9 Q110.2 80.45 109.9 81.7 109.2 84.3 105.85 84.25 104.85 84.25 104.4 83.75 104.2 83.55 104.1 83.15 103.8 82.45 104.5 81.8 L106.15 80.1 105.65 78.9 104.45 79.15 Q100.6 79.95 99.1 80.65 96.75 81.6 96.85 83.15 96.85 83.95 98.05 85.65 99.3 87.4 99.25 87.95 L98.45 88.6 Q98.4 89.35 97.45 90.4 95.6 92.15 91.75 91.7 L89.95 91.1 Q87.95 93.1 87.2 94.55 85.45 97.5 79.9 98.1 L73.95 97.8 Q71.75 97.55 71.35 96.4 L71.4 95.2 Q71.45 93.95 71.9 93.5 72.7 92.5 74.95 93.25 L75.75 92.5 75.75 91.7 Q75.55 91.15 74.95 91.05 72.8 90.7 70.8 91.8 68.65 92.9 66.9 92.65 64.6 92.4 64.3 90.45 L64.2 90.2 M67.05 87.8 L80.6 86.95 83.45 86.45 Q83.8 88.2 84.85 90.1 L72.9 90.7 Q70.55 91.05 68.3 91.9 68.45 91.3 68.35 90.7 67.95 89.7 67.45 88.3 L67.1 87.8 80.65 86.95 83.5 86.45 Q83.85 88.2 84.9 90.1 L72.95 90.7 Q70.6 91.05 68.35 91.9 68.5 91.3 68.4 90.7 68.0 89.7 67.5 88.3 L67.15 87.8 M81.85 42.8 Q82.1 42.1 82.75 42.0 84.7 41.6 89.1 41.8 90.7 41.95 91.35 42.55 L91.05 42.95 Q90.35 42.9 90.75 43.2 91.4 44.1 92.8 44.4 95.6 44.85 100.6 44.7 101.15 45.25 101.8 45.85 102.45 46.9 103.4 49.05 104.15 50.8 104.5 52.25 104.8 53.4 104.6 54.1 104.3 55.15 102.95 55.9 L100.05 55.75 Q96.95 55.6 94.5 54.6 93.2 54.05 92.75 53.7 92.2 52.95 92.6 53.05 92.7 53.05 92.8 53.7 93.05 54.35 92.9 54.5 L93.7 54.55 Q93.8 54.45 93.6 54.2 92.45 52.95 91.05 52.65 L90.75 52.1 88.5 50.3 Q85.0 48.15 82.9 45.05 82.35 44.4 82.1 43.65 L81.95 43.05 81.95 43.0 Q82.2 42.3 82.85 42.2 84.8 41.8 89.2 42.0 90.8 42.15 91.45 42.75 L91.15 43.15 Q90.45 43.1 90.85 43.4 91.5 44.3 92.9 44.6 95.7 45.05 100.7 44.9 101.25 45.45 101.9 46.05 102.55 47.1 103.5 49.25 104.25 51.0 104.6 52.45 104.9 53.6 104.7 54.3 104.4 55.35 103.05 56.1 L100.15 55.95 Q97.05 55.8 94.6 54.8 93.3 54.25 92.85 53.9 92.3 53.15 92.7 53.25 92.8 53.25 92.9 53.9 93.15 54.55 93.0 54.7 L93.8 54.75 Q93.9 54.65 93.7 54.4 92.55 53.15 91.15 52.85 L90.85 52.3 88.6 50.5 Q85.1 48.35 83.0 45.25 82.45 44.6 82.2 43.85 L82.05 43.25 82.05 43.2" fill="none" stroke="#000000" stroke-linecap="round" stroke-linejoin="round" stroke-opacity="0.0" stroke-width="0.0"/>
    </g>
    <radialGradient cx="0" cy="0" gradientTransform="matrix(0.0434, 0.0015, -0.0018, 0.0496, 75.0, 75.0)" gradientUnits="userSpaceOnUse" id="gradient0" r="819.2" spreadMethod="pad">
      <stop offset="0.0" stop-color="#a7c3eb" stop-opacity="0.5803922"/>
      <stop offset="1.0" stop-color="#4d86ad" stop-opacity="0.69803923"/>
    </radialGradient>
    <radialGradient cx="0" cy="0" gradientTransform="matrix(0.0129, 0.0, 0.0, 0.0129, 75.0, 75.0)" gradientUnits="userSpaceOnUse" id="gradient1" r="819.2" spreadMethod="pad">
      <stop offset="0.0" stop-color="#739fd3" stop-opacity="0.4627451"/>
      <stop offset="1.0" stop-color="#3476a2" stop-opacity="0.58431375"/>
    </radialGradient>
  </defs>
</svg>
