<?xml version="1.0" encoding="UTF-8" standalone="no"?>
<svg xmlns:ffdec="https://www.free-decompiler.com/flash" xmlns:xlink="http://www.w3.org/1999/xlink" ffdec:objectType="frame" height="178.35px" width="232.65px" xmlns="http://www.w3.org/2000/svg">
  <g transform="matrix(1.0, 0.0, 0.0, 1.0, 45.35, 18.7)">
    <use ffdec:characterId="728" height="178.3" transform="matrix(1.0, 0.0, 0.0, 1.0, -45.35, -18.7)" width="232.6" xlink:href="#morphshape0"/>
  </g>
  <defs>
    <g id="morphshape0" transform="matrix(1.0, 0.0, 0.0, 1.0, 45.35, 18.7)">
      <path d="M1.9 70.45 L1.9 70.5 Q1.9 81.35 7.75 92.3 20.5 116.35 47.6 123.6 56.45 125.1 66.6 125.15 109.95 125.45 132.55 98.0 142.4 85.75 143.15 73.1 L143.05 70.85 Q142.35 63.55 139.05 56.1 131.85 39.55 114.65 29.4 108.35 25.6 101.4 23.1 91.7 20.5 80.95 20.1 61.45 19.3 43.8 25.8 22.55 33.45 11.2 48.55 3.1 59.35 2.0 70.35 M11.6 63.6 L12.8 64.45 14.5 64.9 17.45 64.95 Q14.75 71.95 15.6 73.55 16.3 75.1 23.1 75.6 25.0 75.7 25.9 73.9 L26.05 73.1 Q25.8 72.55 24.7 72.15 L19.9 72.15 21.4 67.75 Q22.25 65.25 21.3 64.1 L18.1 64.15 18.2 63.95 Q18.8 63.0 19.95 62.0 21.5 60.5 22.75 60.7 25.25 60.8 23.95 63.1 22.6 65.5 25.45 65.75 26.55 65.85 28.45 64.85 30.3 63.8 30.8 62.9 31.3 61.7 29.25 60.8 27.1 59.9 24.2 60.05 L24.05 60.05 24.15 59.85 Q24.3 59.45 24.15 56.75 L24.1 55.55 Q24.4 53.65 24.85 53.05 L27.85 53.1 Q28.0 53.45 27.8 54.2 27.9 54.75 29.75 54.8 31.75 54.8 33.2 52.85 L34.3 50.75 Q35.5 48.2 35.35 47.7 35.0 47.0 33.75 46.4 L36.45 44.85 Q39.75 42.75 40.4 41.65 40.85 40.75 40.55 40.15 40.0 39.15 37.25 38.65 L37.5 38.5 Q39.2 37.7 40.4 37.35 42.4 36.6 45.7 36.45 L46.0 37.45 46.25 38.6 45.85 39.1 45.25 39.25 44.85 39.0 45.1 38.3 Q45.0 37.65 43.95 37.6 43.35 37.55 42.85 37.8 42.15 37.95 42.05 38.5 42.05 38.4 42.1 39.75 42.5 41.1 44.15 41.15 46.45 41.2 48.2 40.35 49.45 39.65 49.85 38.9 50.45 37.45 49.95 36.5 L50.3 36.5 Q51.45 36.55 52.45 35.3 53.35 34.1 55.1 34.2 54.8 35.45 54.9 35.75 55.25 36.85 57.8 36.95 59.9 37.0 60.5 36.45 L60.95 35.2 Q61.4 34.4 63.35 33.7 64.75 34.95 68.15 35.1 75.35 35.35 80.5 33.35 L80.6 33.3 83.15 34.35 Q87.15 35.85 89.6 35.95 92.15 36.05 94.05 34.1 95.55 32.45 95.55 31.55 95.5 28.9 91.2 30.15 89.8 30.55 88.15 31.4 L87.25 31.8 86.65 32.05 86.75 32.45 Q87.0 32.8 87.9 32.85 89.15 32.9 91.05 32.05 L92.85 31.1 93.4 31.15 93.6 31.25 93.7 31.5 91.5 34.25 88.8 34.05 Q87.75 33.3 85.95 32.5 84.65 31.85 83.8 31.6 85.15 30.55 85.2 29.7 85.25 28.05 83.05 27.15 81.1 26.3 78.1 26.05 L73.1 26.2 Q70.6 26.65 70.4 27.5 L70.65 28.5 Q71.35 29.55 74.3 29.55 76.5 29.5 77.5 29.0 78.1 28.65 78.2 28.0 L78.25 27.5 Q78.0 26.9 77.15 26.85 76.45 26.75 76.1 27.15 L75.6 27.65 73.65 27.45 73.15 27.05 Q72.95 26.85 73.05 26.55 73.1 26.25 73.65 26.15 L76.5 25.8 82.0 25.7 82.95 26.25 83.0 26.9 Q82.95 27.7 79.85 28.75 L77.15 29.3 69.15 29.75 Q68.4 29.3 67.75 26.9 67.2 24.85 66.5 24.9 65.4 24.85 64.95 25.65 L64.5 26.8 64.25 27.5 Q64.05 28.05 64.2 28.6 63.35 28.85 62.35 29.35 L60.0 30.55 Q60.5 29.15 60.35 28.55 60.15 27.4 57.9 26.7 52.35 26.25 51.65 27.65 51.5 27.9 52.15 28.35 L54.1 29.35 51.6 30.65 Q50.95 30.9 50.75 31.45 L50.6 31.85 Q50.0 31.4 49.25 31.15 45.3 30.9 40.5 32.6 36.25 34.05 35.65 34.95 35.2 35.55 37.5 36.4 39.75 37.1 39.5 37.5 L36.8 39.05 Q34.1 40.45 33.5 41.4 L33.35 41.65 31.05 41.05 Q28.9 40.6 25.5 43.1 22.75 45.05 22.1 45.95 21.65 46.65 21.75 46.85 L23.0 47.25 Q25.1 46.6 26.25 44.95 27.5 43.25 28.2 43.0 30.2 43.95 32.45 44.45 32.75 44.55 32.15 45.75 L31.35 46.8 Q25.9 45.95 22.3 48.2 L21.2 52.4 Q20.8 55.2 21.35 56.25 15.7 57.35 12.35 62.6 L11.7 63.65 M21.05 79.35 L21.15 79.5 21.5 82.35 Q22.1 85.45 23.5 85.7 25.65 85.95 26.7 83.8 L26.4 82.25 Q26.05 80.75 26.2 80.55 26.5 79.85 27.65 78.9 28.95 77.65 30.05 77.8 33.35 80.0 34.4 81.4 35.4 82.7 34.95 84.35 34.2 86.7 29.9 89.3 25.4 91.9 24.9 93.45 24.45 94.5 30.75 100.6 L32.7 102.0 Q43.05 110.3 49.2 110.35 55.9 110.45 58.4 107.15 59.6 103.5 60.25 102.65 61.55 100.4 65.4 97.75 68.5 95.35 68.75 95.0 L68.75 93.75 Q68.35 92.65 66.9 92.65 63.8 92.6 60.4 97.75 58.7 100.5 56.6 105.15 L52.15 105.35 48.7 101.55 50.5 101.9 52.3 102.1 Q57.95 101.8 59.9 98.75 60.4 97.7 60.9 94.7 L61.15 92.2 Q61.0 90.45 59.4 90.0 L54.8 89.4 Q53.1 90.0 52.5 90.65 52.05 90.95 51.9 91.65 51.55 92.95 51.65 93.4 L53.65 93.9 55.05 93.3 56.35 93.0 Q56.2 93.45 55.45 94.0 L50.8 93.7 Q50.2 92.6 51.05 89.65 51.5 86.95 54.85 85.3 58.15 83.5 58.15 82.7 58.4 81.0 56.7 80.85 55.0 80.7 52.55 81.85 45.9 84.85 44.05 89.7 L43.3 90.95 Q42.45 92.4 42.5 94.4 38.6 91.4 34.6 89.6 39.2 86.9 40.1 85.65 40.5 84.9 41.15 82.2 41.5 79.95 39.3 77.25 37.1 74.65 34.0 73.35 30.5 72.0 27.5 73.15 23.65 74.45 21.05 79.4 M62.8 99.35 L62.9 99.5 Q63.25 102.25 66.65 102.5 69.2 102.7 72.3 100.85 75.25 99.0 78.4 99.25 79.3 99.35 79.6 100.15 L79.65 101.3 78.4 102.3 Q75.0 101.05 73.8 102.35 73.15 103.0 73.1 104.85 L73.05 106.5 Q73.65 108.1 76.95 108.3 L85.9 108.1 Q94.35 106.65 97.05 101.75 98.25 99.3 101.25 96.0 L104.0 96.65 Q109.85 96.95 112.75 94.0 114.25 92.35 114.35 91.15 L114.85 90.35 Q114.75 89.6 112.7 87.05 110.7 84.5 110.6 83.35 110.25 81.05 113.6 79.7 115.6 78.75 121.05 77.55 L122.75 77.2 123.35 78.95 120.65 81.5 Q119.55 82.5 119.9 83.55 120.05 84.1 120.35 84.4 121.0 85.1 122.45 85.15 127.2 85.25 127.95 81.35 128.3 79.45 127.75 77.1 L127.35 76.1 129.2 75.4 Q132.1 74.0 131.45 71.9 131.0 70.35 129.2 70.45 127.4 70.5 126.45 71.95 L125.45 72.95 125.35 72.85 120.4 72.15 119.5 71.5 119.1 69.45 Q125.1 70.6 127.85 67.45 129.75 65.1 129.25 63.35 128.7 61.25 123.55 59.95 118.35 58.55 118.35 57.9 118.1 56.5 122.35 54.2 123.25 54.65 123.55 55.35 L123.55 56.4 Q123.35 57.1 123.5 57.5 L123.8 58.1 Q124.4 58.6 125.8 58.65 127.2 58.6 127.4 57.3 127.45 56.5 127.2 55.55 126.85 54.3 124.85 53.25 127.65 51.55 127.5 50.8 127.2 49.85 125.4 50.15 123.75 50.45 121.8 51.65 L121.55 51.85 119.15 50.95 Q117.25 50.2 117.2 49.95 116.95 49.1 117.2 48.45 123.5 48.8 124.55 47.1 124.85 46.55 124.25 44.75 123.5 42.75 120.0 41.1 118.5 40.4 117.75 40.5 116.85 40.5 117.1 41.5 L117.3 41.8 Q117.7 42.2 118.65 42.15 120.1 42.1 120.7 42.6 L121.1 43.7 121.35 44.4 Q121.25 44.8 120.45 44.9 114.7 44.1 113.7 45.75 113.3 46.2 113.75 48.0 114.25 49.8 119.15 50.7 115.9 52.95 116.55 55.3 116.95 56.8 119.9 57.3 124.55 58.1 128.2 60.0 127.9 62.35 126.1 62.85 125.0 63.15 122.45 62.7 120.1 62.2 119.5 62.6 L119.15 62.9 Q118.5 63.75 119.1 66.2 119.65 68.5 120.25 69.2 121.15 70.35 123.4 71.2 L120.8 71.4 Q111.2 71.8 112.15 79.35 112.35 81.25 112.85 82.1 L115.5 85.9 Q114.15 88.5 109.5 88.95 110.2 87.8 110.1 87.5 109.15 82.75 105.1 86.15 L104.65 83.85 Q108.85 84.0 108.4 82.0 108.3 81.6 107.85 81.2 107.15 80.5 105.95 80.15 L101.5 80.05 Q99.9 80.1 99.65 81.7 99.45 82.35 99.6 84.35 L100.9 89.95 Q97.8 93.4 92.75 100.0 L87.9 99.9 Q84.25 97.45 84.2 93.05 84.15 88.9 81.75 87.45 L72.15 87.15 Q67.35 88.95 65.35 91.75 64.05 93.5 63.5 96.95 L63.0 99.65 M90.0 29.2 L90.0 29.3 90.1 30.0 Q90.4 30.85 91.15 31.6 93.7 34.6 99.25 36.15 L103.05 37.3 103.65 37.85 Q105.05 38.4 106.1 40.35 106.3 40.8 106.05 41.0 L103.0 41.1 Q102.8 40.85 102.05 39.9 101.45 38.9 100.85 38.95 99.85 38.85 100.3 40.0 100.65 40.5 102.2 41.35 104.85 42.75 108.5 42.95 L111.85 43.05 Q114.15 42.5 114.85 41.4 115.25 40.7 114.9 39.3 114.55 37.8 113.35 35.75 111.85 33.2 110.7 32.3 109.6 31.9 108.55 31.55 102.35 31.8 99.45 31.15 97.85 30.7 97.35 29.4 97.3 28.95 98.9 29.05 L100.75 28.6 Q100.2 27.7 98.25 27.45 92.7 27.3 90.8 28.0 90.15 28.25 90.1 29.4 M67.8 97.0 L68.1 97.05 Q68.2 97.4 69.2 97.1 69.5 97.15 69.65 97.2 71.65 96.15 73.8 95.75 L85.35 95.4 Q84.65 94.9 82.95 94.45 L80.3 95.1 67.85 97.0" fill="url(#gradient0)" fill-rule="evenodd" stroke="none"/>
      <path d="M11.5 63.55 L12.7 64.4 14.4 64.85 17.35 64.9 Q14.65 71.9 15.5 73.5 16.2 75.05 23.0 75.55 24.9 75.65 25.8 73.85 L25.95 73.05 Q25.7 72.5 24.6 72.1 L19.8 72.1 21.3 67.7 Q22.15 65.2 21.2 64.05 L18.0 64.1 18.1 63.9 Q18.7 62.95 19.85 61.95 21.4 60.45 22.65 60.65 25.15 60.75 23.85 63.05 22.5 65.45 25.35 65.7 26.45 65.8 28.35 64.8 30.2 63.75 30.7 62.85 31.2 61.65 29.15 60.75 27.0 59.85 24.1 60.0 L23.95 60.0 24.05 59.8 Q24.2 59.4 24.05 56.7 L24.0 55.5 Q24.3 53.6 24.75 53.0 L27.75 53.05 Q27.9 53.4 27.7 54.15 27.8 54.7 29.65 54.75 31.65 54.75 33.1 52.8 L34.2 50.7 Q35.4 48.15 35.25 47.65 34.9 46.95 33.65 46.35 L36.35 44.8 Q39.65 42.7 40.3 41.6 40.75 40.7 40.45 40.1 39.9 39.1 37.15 38.6 L37.4 38.45 Q39.1 37.65 40.3 37.3 42.3 36.55 45.6 36.4 L45.9 37.4 46.15 38.55 45.75 39.05 45.15 39.2 44.75 38.95 45.0 38.25 Q44.9 37.6 43.85 37.55 43.25 37.5 42.75 37.75 42.05 37.9 41.95 38.45 41.95 38.35 42.0 39.7 42.4 41.05 44.05 41.1 46.35 41.15 48.1 40.3 49.35 39.6 49.75 38.85 50.35 37.4 49.85 36.45 L50.2 36.45 Q51.35 36.5 52.35 35.25 53.25 34.05 55.0 34.15 54.7 35.4 54.8 35.7 55.15 36.8 57.7 36.9 59.8 36.95 60.4 36.4 L60.85 35.15 Q61.3 34.35 63.25 33.65 64.65 34.9 68.05 35.05 75.25 35.3 80.4 33.3 L80.5 33.25 83.05 34.3 Q87.05 35.8 89.5 35.9 92.05 36.0 93.95 34.05 95.45 32.4 95.45 31.5 95.4 28.85 91.1 30.1 89.7 30.5 88.05 31.35 L87.15 31.75 86.55 32.0 86.65 32.4 Q86.9 32.75 87.8 32.8 89.05 32.85 90.95 32.0 L92.75 31.05 93.3 31.1 93.5 31.2 93.6 31.45 91.4 34.2 88.7 34.0 Q87.65 33.25 85.85 32.45 84.55 31.8 83.7 31.55 85.05 30.5 85.1 29.65 85.15 28.0 82.95 27.1 81.0 26.25 78.0 26.0 L73.0 26.15 Q70.5 26.6 70.3 27.45 L70.55 28.45 Q71.25 29.5 74.2 29.5 76.4 29.45 77.4 28.95 78.0 28.6 78.1 27.95 L78.15 27.45 Q77.9 26.85 77.05 26.8 76.35 26.7 76.0 27.1 L75.5 27.6 73.55 27.4 73.05 27.0 Q72.85 26.8 72.95 26.5 73.0 26.2 73.55 26.1 L76.4 25.75 81.9 25.65 82.85 26.2 82.9 26.85 Q82.85 27.65 79.75 28.7 L77.05 29.25 69.05 29.7 Q68.3 29.25 67.65 26.85 67.1 24.8 66.4 24.85 65.3 24.8 64.85 25.6 L64.4 26.75 64.15 27.45 Q63.95 28.0 64.1 28.55 63.25 28.8 62.25 29.3 L59.9 30.5 Q60.4 29.1 60.25 28.5 60.05 27.35 57.8 26.65 52.25 26.2 51.55 27.6 51.4 27.85 52.05 28.3 L54.0 29.3 51.5 30.6 Q50.85 30.85 50.65 31.4 L50.5 31.8 Q49.9 31.35 49.15 31.1 45.2 30.85 40.4 32.55 36.15 34.0 35.55 34.9 35.1 35.5 37.4 36.35 39.65 37.05 39.4 37.45 L36.7 39.0 Q34.0 40.4 33.4 41.35 L33.25 41.6 30.95 41.0 Q28.8 40.55 25.4 43.05 22.65 45.0 22.0 45.9 21.55 46.6 21.65 46.8 L22.9 47.2 Q25.0 46.55 26.15 44.9 27.4 43.2 28.1 42.95 30.1 43.9 32.35 44.4 32.65 44.5 32.05 45.7 L31.25 46.75 Q25.8 45.9 22.2 48.15 L21.1 52.35 Q20.7 55.15 21.25 56.2 15.6 57.3 12.25 62.55 L11.6 63.6 M21.05 79.3 L21.15 79.45 21.5 82.3 Q22.1 85.4 23.5 85.65 25.65 85.9 26.7 83.75 L26.4 82.2 Q26.05 80.7 26.2 80.5 26.5 79.8 27.65 78.85 28.95 77.6 30.05 77.75 33.35 79.95 34.4 81.35 35.4 82.65 34.95 84.3 34.2 86.65 29.9 89.25 25.4 91.85 24.9 93.4 24.45 94.45 30.75 100.55 L32.7 101.95 Q43.05 110.25 49.2 110.3 55.9 110.4 58.4 107.1 59.6 103.45 60.25 102.6 61.55 100.35 65.4 97.7 68.5 95.3 68.75 94.95 L68.75 93.7 Q68.35 92.6 66.9 92.6 63.8 92.55 60.4 97.7 58.7 100.45 56.6 105.1 L52.15 105.3 48.7 101.5 50.5 101.85 52.3 102.05 Q57.95 101.75 59.9 98.7 60.4 97.65 60.9 94.65 L61.15 92.15 Q61.0 90.4 59.4 89.95 L54.8 89.35 Q53.1 89.95 52.5 90.6 52.05 90.9 51.9 91.6 51.55 92.9 51.65 93.35 L53.65 93.85 55.05 93.25 56.35 92.95 Q56.2 93.4 55.45 93.95 L50.8 93.65 Q50.2 92.55 51.05 89.6 51.5 86.9 54.85 85.25 58.15 83.45 58.15 82.65 58.4 80.95 56.7 80.8 55.0 80.65 52.55 81.8 45.9 84.8 44.05 89.65 L43.3 90.9 Q42.45 92.35 42.5 94.35 38.6 91.35 34.6 89.55 39.2 86.85 40.1 85.6 40.5 84.85 41.15 82.15 41.5 79.9 39.3 77.2 37.1 74.6 34.0 73.3 30.5 71.95 27.5 73.1 23.65 74.4 21.05 79.35 M67.85 97.0 L68.15 97.05 Q68.25 97.4 69.25 97.1 69.55 97.15 69.7 97.2 71.7 96.15 73.85 95.75 L85.4 95.4 Q84.7 94.9 83.0 94.45 L80.35 95.1 67.9 97.0 M62.6 99.05 L62.7 99.2 Q63.05 101.95 66.45 102.2 69.0 102.4 72.1 100.55 75.05 98.7 78.2 98.95 79.1 99.05 79.4 99.85 L79.45 101.0 78.2 102.0 Q74.8 100.75 73.6 102.05 72.95 102.7 72.9 104.55 L72.85 106.2 Q73.45 107.8 76.75 108.0 L85.7 107.8 Q94.15 106.35 96.85 101.45 98.05 99.0 101.05 95.7 L103.8 96.35 Q109.65 96.65 112.55 93.7 114.05 92.05 114.15 90.85 L114.65 90.05 Q114.55 89.3 112.5 86.75 110.5 84.2 110.4 83.05 110.05 80.75 113.4 79.4 115.4 78.45 120.85 77.25 L122.55 76.9 123.15 78.65 120.45 81.2 Q119.35 82.2 119.7 83.25 119.85 83.8 120.15 84.1 120.8 84.8 122.25 84.85 127.0 84.95 127.75 81.05 128.1 79.15 127.55 76.8 L127.15 75.8 129.0 75.1 Q131.9 73.7 131.25 71.6 130.8 70.05 129.0 70.15 127.2 70.2 126.25 71.65 L125.25 72.65 125.15 72.55 120.2 71.85 119.3 71.2 118.9 69.15 Q124.9 70.3 127.65 67.15 129.55 64.8 129.05 63.05 128.5 60.95 123.35 59.65 118.15 58.25 118.15 57.6 117.9 56.2 122.15 53.9 123.05 54.35 123.35 55.05 L123.35 56.1 Q123.15 56.8 123.3 57.2 L123.6 57.8 Q124.2 58.3 125.6 58.35 127.0 58.3 127.2 57.0 127.25 56.2 127.0 55.25 126.65 54.0 124.65 52.95 127.45 51.25 127.3 50.5 127.0 49.55 125.2 49.85 123.55 50.15 121.6 51.35 L121.35 51.55 118.95 50.65 Q117.05 49.9 117.0 49.65 116.75 48.8 117.0 48.15 123.3 48.5 124.35 46.8 124.65 46.25 124.05 44.45 123.3 42.45 119.8 40.8 118.3 40.1 117.55 40.2 116.65 40.2 116.9 41.2 L117.1 41.5 Q117.5 41.9 118.45 41.85 119.9 41.8 120.5 42.3 L120.9 43.4 121.15 44.1 Q121.05 44.5 120.25 44.6 114.5 43.8 113.5 45.45 113.1 45.9 113.55 47.7 114.05 49.5 118.95 50.4 115.7 52.65 116.35 55.0 116.75 56.5 119.7 57.0 124.35 57.8 128.0 59.7 127.7 62.05 125.9 62.55 124.8 62.85 122.25 62.4 119.9 61.9 119.3 62.3 L118.95 62.6 Q118.3 63.45 118.9 65.9 119.45 68.2 120.05 68.9 120.95 70.05 123.2 70.9 L120.6 71.1 Q111.0 71.5 111.95 79.05 112.15 80.95 112.65 81.8 L115.3 85.6 Q113.95 88.2 109.3 88.65 110.0 87.5 109.9 87.2 108.95 82.45 104.9 85.85 L104.45 83.55 Q108.65 83.7 108.2 81.7 108.1 81.3 107.65 80.9 106.95 80.2 105.75 79.85 L101.3 79.75 Q99.7 79.8 99.45 81.4 99.25 82.05 99.4 84.05 L100.7 89.65 Q97.6 93.1 92.55 99.7 L87.7 99.6 Q84.05 97.15 84.0 92.75 83.95 88.6 81.55 87.15 L71.95 86.85 Q67.15 88.65 65.15 91.45 63.85 93.2 63.3 96.65 L62.8 99.35 M89.9 29.0 L89.9 29.1 90.0 29.8 Q90.3 30.65 91.05 31.4 93.6 34.4 99.15 35.95 L102.95 37.1 103.55 37.65 Q104.95 38.2 106.0 40.15 106.2 40.6 105.95 40.8 L102.9 40.9 Q102.7 40.65 101.95 39.7 101.35 38.7 100.75 38.75 99.75 38.65 100.2 39.8 100.55 40.3 102.1 41.15 104.75 42.55 108.4 42.75 L111.75 42.85 Q114.05 42.3 114.75 41.2 115.15 40.5 114.8 39.1 114.45 37.6 113.25 35.55 111.75 33.0 110.6 32.1 109.5 31.7 108.45 31.35 102.25 31.6 99.35 30.95 97.75 30.5 97.25 29.2 97.2 28.75 98.8 28.85 L100.65 28.4 Q100.1 27.5 98.15 27.25 92.6 27.1 90.7 27.8 90.05 28.05 90.0 29.2" fill="url(#gradient1)" fill-rule="evenodd" stroke="none"/>
      <path d="M2.0 70.35 Q3.1 59.35 11.2 48.55 22.55 33.45 43.8 25.8 61.45 19.3 80.95 20.1 91.7 20.5 101.4 23.1 108.35 25.6 114.65 29.4 131.85 39.55 139.05 56.1 142.35 63.55 143.05 70.85 L143.15 73.1 Q142.4 85.75 132.55 98.0 109.95 125.45 66.6 125.15 56.45 125.1 47.6 123.6 20.5 116.35 7.75 92.3 1.9 81.35 1.9 70.5 L1.9 70.45 M2.0 70.35 Q3.1 59.35 11.2 48.55 22.55 33.45 43.8 25.8 61.45 19.3 80.95 20.1 91.7 20.5 101.4 23.1 108.35 25.6 114.65 29.4 131.85 39.55 139.05 56.1 142.35 63.55 143.05 70.85 L143.15 73.1 Q142.4 85.75 132.55 98.0 109.95 125.45 66.6 125.15 56.45 125.1 47.6 123.6 20.5 116.35 7.75 92.3 1.9 81.35 1.9 70.5" fill="none" stroke="#556b7b" stroke-linecap="round" stroke-linejoin="round" stroke-opacity="0.42745098" stroke-width="6.0"/>
      <path d="M11.7 63.65 L12.35 62.6 Q15.7 57.35 21.35 56.25 20.8 55.2 21.2 52.4 L22.3 48.2 Q25.9 45.95 31.35 46.8 L32.15 45.75 Q32.75 44.55 32.45 44.45 30.2 43.95 28.2 43.0 27.5 43.25 26.25 44.95 25.1 46.6 23.0 47.25 L21.75 46.85 Q21.65 46.65 22.1 45.95 22.75 45.05 25.5 43.1 28.9 40.6 31.05 41.05 L33.35 41.65 33.5 41.4 Q34.1 40.45 36.8 39.05 L39.5 37.5 Q39.75 37.1 37.5 36.4 35.2 35.55 35.65 34.95 36.25 34.05 40.5 32.6 45.3 30.9 49.25 31.15 50.0 31.4 50.6 31.85 L50.75 31.45 Q50.95 30.9 51.6 30.65 L54.1 29.35 52.15 28.35 Q51.5 27.9 51.65 27.65 52.35 26.25 57.9 26.7 60.15 27.4 60.35 28.55 60.5 29.15 60.0 30.55 L62.35 29.35 Q63.35 28.85 64.2 28.6 64.05 28.05 64.25 27.5 L64.5 26.8 64.95 25.65 Q65.4 24.85 66.5 24.9 67.2 24.85 67.75 26.9 68.4 29.3 69.15 29.75 L77.15 29.3 79.85 28.75 Q82.95 27.7 83.0 26.9 L82.95 26.25 82.0 25.7 76.5 25.8 73.65 26.15 Q73.1 26.25 73.05 26.55 72.95 26.85 73.15 27.05 L73.65 27.45 75.6 27.65 76.1 27.15 Q76.45 26.75 77.15 26.85 78.0 26.9 78.25 27.5 L78.2 28.0 Q78.1 28.65 77.5 29.0 76.5 29.5 74.3 29.55 71.35 29.55 70.65 28.5 L70.4 27.5 Q70.6 26.65 73.1 26.2 L78.1 26.05 Q81.1 26.3 83.05 27.15 85.25 28.05 85.2 29.7 85.15 30.55 83.8 31.6 84.65 31.85 85.95 32.5 87.75 33.3 88.8 34.05 L91.5 34.25 93.7 31.5 93.6 31.25 93.4 31.15 92.85 31.1 91.05 32.05 Q89.15 32.9 87.9 32.85 87.0 32.8 86.75 32.45 L86.65 32.05 87.25 31.8 88.15 31.4 Q89.8 30.55 91.2 30.15 95.5 28.9 95.55 31.55 95.55 32.45 94.05 34.1 92.15 36.05 89.6 35.95 87.15 35.85 83.15 34.35 L80.6 33.3 80.5 33.35 Q75.35 35.35 68.15 35.1 64.75 34.95 63.35 33.7 61.4 34.4 60.95 35.2 L60.5 36.45 Q59.9 37.0 57.8 36.95 55.25 36.85 54.9 35.75 54.8 35.45 55.1 34.2 53.35 34.1 52.45 35.3 51.45 36.55 50.3 36.5 L49.95 36.5 Q50.45 37.45 49.85 38.9 49.45 39.65 48.2 40.35 46.45 41.2 44.15 41.15 42.5 41.1 42.1 39.75 42.05 38.4 42.05 38.5 42.15 37.95 42.85 37.8 43.35 37.55 43.95 37.6 45.0 37.65 45.1 38.3 L44.85 39.0 45.25 39.25 45.85 39.1 46.25 38.6 46.0 37.45 45.7 36.45 Q42.4 36.6 40.4 37.35 39.2 37.7 37.5 38.5 L37.25 38.65 Q40.0 39.15 40.55 40.15 40.85 40.75 40.4 41.65 39.75 42.75 36.45 44.85 L33.75 46.4 Q35.0 47.0 35.35 47.7 35.5 48.2 34.3 50.75 L33.2 52.85 Q31.75 54.8 29.75 54.8 27.9 54.75 27.8 54.2 28.0 53.45 27.85 53.1 L24.85 53.05 Q24.4 53.65 24.1 55.55 L24.15 56.75 Q24.3 59.45 24.15 59.85 L24.05 60.05 24.2 60.05 Q27.1 59.9 29.25 60.8 31.3 61.7 30.8 62.9 30.3 63.8 28.45 64.85 26.55 65.85 25.45 65.75 22.6 65.5 23.95 63.1 25.25 60.8 22.75 60.7 21.5 60.5 19.95 62.0 18.8 63.0 18.2 63.95 L18.1 64.15 21.3 64.1 Q22.25 65.25 21.4 67.75 L19.9 72.15 24.7 72.15 Q25.8 72.55 26.05 73.1 L25.9 73.9 Q25.0 75.7 23.1 75.6 16.3 75.1 15.6 73.55 14.75 71.95 17.45 64.95 L14.5 64.9 12.8 64.45 11.6 63.6 12.25 62.55 Q15.6 57.3 21.25 56.2 20.7 55.15 21.1 52.35 L22.2 48.15 Q25.8 45.9 31.25 46.75 L32.05 45.7 Q32.65 44.5 32.35 44.4 30.1 43.9 28.1 42.95 27.4 43.2 26.15 44.9 25.0 46.55 22.9 47.2 L21.65 46.8 Q21.55 46.6 22.0 45.9 22.65 45.0 25.4 43.05 28.8 40.55 30.95 41.0 L33.25 41.6 33.4 41.35 Q34.0 40.4 36.7 39.0 L39.4 37.45 Q39.65 37.05 37.4 36.35 35.1 35.5 35.55 34.9 36.15 34.0 40.4 32.55 45.2 30.85 49.15 31.1 49.9 31.35 50.5 31.8 L50.65 31.4 Q50.85 30.85 51.5 30.6 L54.0 29.3 52.05 28.3 Q51.4 27.85 51.55 27.6 52.25 26.2 57.8 26.65 60.05 27.35 60.25 28.5 60.4 29.1 59.9 30.5 L62.25 29.3 Q63.25 28.8 64.1 28.55 63.95 28.0 64.15 27.45 L64.4 26.75 64.85 25.6 Q65.3 24.8 66.4 24.85 67.1 24.8 67.65 26.85 68.3 29.25 69.05 29.7 L77.05 29.25 79.75 28.7 Q82.85 27.65 82.9 26.85 L82.85 26.2 81.9 25.65 76.4 25.75 73.55 26.1 Q73.0 26.2 72.95 26.5 72.85 26.8 73.05 27.0 L73.55 27.4 75.5 27.6 76.0 27.1 Q76.35 26.7 77.05 26.8 77.9 26.85 78.15 27.45 L78.1 27.95 Q78.0 28.6 77.4 28.95 76.4 29.45 74.2 29.5 71.25 29.5 70.55 28.45 L70.3 27.45 Q70.5 26.6 73.0 26.15 L78.0 26.0 Q81.0 26.25 82.95 27.1 85.15 28.0 85.1 29.65 85.05 30.5 83.7 31.55 84.55 31.8 85.85 32.45 87.65 33.25 88.7 34.0 L91.4 34.2 93.6 31.45 93.5 31.2 93.3 31.1 92.75 31.05 90.95 32.0 Q89.05 32.85 87.8 32.8 86.9 32.75 86.65 32.4 L86.55 32.0 87.15 31.75 88.05 31.35 Q89.7 30.5 91.1 30.1 95.4 28.85 95.45 31.5 95.45 32.4 93.95 34.05 92.05 36.0 89.5 35.9 87.05 35.8 83.05 34.3 L80.5 33.25 80.4 33.3 Q75.25 35.3 68.05 35.05 64.65 34.9 63.25 33.65 61.3 34.35 60.85 35.15 L60.4 36.4 Q59.8 36.95 57.7 36.9 55.15 36.8 54.8 35.7 54.7 35.4 55.0 34.15 53.25 34.05 52.35 35.25 51.35 36.5 50.2 36.45 L49.85 36.45 Q50.35 37.4 49.75 38.85 49.35 39.6 48.1 40.3 46.35 41.15 44.05 41.1 42.4 41.05 42.0 39.7 41.95 38.35 41.95 38.45 42.05 37.9 42.75 37.75 43.25 37.5 43.85 37.55 44.9 37.6 45.0 38.25 L44.75 38.95 45.15 39.2 45.75 39.05 46.15 38.55 45.9 37.4 45.6 36.4 Q42.3 36.55 40.3 37.3 39.1 37.65 37.4 38.45 L37.15 38.6 Q39.9 39.1 40.45 40.1 40.75 40.7 40.3 41.6 39.65 42.7 36.35 44.8 L33.65 46.35 Q34.9 46.95 35.25 47.65 35.4 48.15 34.2 50.7 L33.1 52.8 Q31.65 54.75 29.65 54.75 27.8 54.7 27.7 54.15 27.9 53.4 27.75 53.05 L24.75 53.0 Q24.3 53.6 24.0 55.5 L24.05 56.7 Q24.2 59.4 24.05 59.8 L23.95 60.0 24.1 60.0 Q27.0 59.85 29.15 60.75 31.2 61.65 30.7 62.85 30.2 63.75 28.35 64.8 26.45 65.8 25.35 65.7 22.5 65.45 23.85 63.05 25.15 60.75 22.65 60.65 21.4 60.45 19.85 61.95 18.7 62.95 18.1 63.9 L18.0 64.1 21.2 64.05 Q22.15 65.2 21.3 67.7 L19.8 72.1 24.6 72.1 Q25.7 72.5 25.95 73.05 L25.8 73.85 Q24.9 75.65 23.0 75.55 16.2 75.05 15.5 73.5 14.65 71.9 17.35 64.9 L14.4 64.85 12.7 64.4 11.5 63.55 M21.05 79.4 Q23.65 74.45 27.5 73.15 30.5 72.0 34.0 73.35 37.1 74.65 39.3 77.25 41.5 79.95 41.15 82.2 40.5 84.9 40.1 85.65 39.2 86.9 34.6 89.6 38.6 91.4 42.5 94.4 42.45 92.4 43.3 90.95 L44.05 89.7 Q45.9 84.85 52.55 81.85 55.0 80.7 56.7 80.85 58.4 81.0 58.15 82.7 58.15 83.5 54.85 85.3 51.5 86.95 51.05 89.65 50.2 92.6 50.8 93.7 L55.45 94.0 Q56.2 93.45 56.35 93.0 L55.05 93.3 53.65 93.9 51.65 93.4 Q51.55 92.95 51.9 91.65 52.05 90.95 52.5 90.65 53.1 90.0 54.8 89.4 L59.4 90.0 Q61.0 90.45 61.15 92.2 L60.9 94.7 Q60.4 97.7 59.9 98.75 57.95 101.8 52.3 102.1 L50.5 101.9 48.7 101.55 52.15 105.35 56.6 105.15 Q58.7 100.5 60.4 97.75 63.8 92.6 66.9 92.65 68.35 92.65 68.75 93.75 L68.75 95.0 Q68.5 95.35 65.4 97.75 61.55 100.4 60.25 102.65 59.6 103.5 58.4 107.15 55.9 110.45 49.2 110.35 43.05 110.3 32.7 102.0 L30.75 100.6 Q24.45 94.5 24.9 93.45 25.4 91.9 29.9 89.3 34.2 86.7 34.95 84.35 35.4 82.7 34.4 81.4 33.35 80.0 30.05 77.8 28.95 77.65 27.65 78.9 26.5 79.85 26.2 80.55 26.05 80.75 26.4 82.25 L26.7 83.8 Q25.65 85.95 23.5 85.7 22.1 85.45 21.5 82.35 L21.15 79.5 21.05 79.35 Q23.65 74.4 27.5 73.1 30.5 71.95 34.0 73.3 37.1 74.6 39.3 77.2 41.5 79.9 41.15 82.15 40.5 84.85 40.1 85.6 39.2 86.85 34.6 89.55 38.6 91.35 42.5 94.35 42.45 92.35 43.3 90.9 L44.05 89.65 Q45.9 84.8 52.55 81.8 55.0 80.65 56.7 80.8 58.4 80.95 58.15 82.65 58.15 83.45 54.85 85.25 51.5 86.9 51.05 89.6 50.2 92.55 50.8 93.65 L55.45 93.95 Q56.2 93.4 56.35 92.95 L55.05 93.25 53.65 93.85 51.65 93.35 Q51.55 92.9 51.9 91.6 52.05 90.9 52.5 90.6 53.1 89.95 54.8 89.35 L59.4 89.95 Q61.0 90.4 61.15 92.15 L60.9 94.65 Q60.4 97.65 59.9 98.7 57.95 101.75 52.3 102.05 L50.5 101.85 48.7 101.5 52.15 105.3 56.6 105.1 Q58.7 100.45 60.4 97.7 63.8 92.55 66.9 92.6 68.35 92.6 68.75 93.7 L68.75 94.95 Q68.5 95.3 65.4 97.7 61.55 100.35 60.25 102.6 59.6 103.45 58.4 107.1 55.9 110.4 49.2 110.3 43.05 110.25 32.7 101.95 L30.75 100.55 Q24.45 94.45 24.9 93.4 25.4 91.85 29.9 89.25 34.2 86.65 34.95 84.3 35.4 82.65 34.4 81.35 33.35 79.95 30.05 77.75 28.95 77.6 27.65 78.85 26.5 79.8 26.2 80.5 26.05 80.7 26.4 82.2 L26.7 83.75 Q25.65 85.9 23.5 85.65 22.1 85.4 21.5 82.3 L21.15 79.45 21.05 79.3 M63.0 99.65 L63.5 96.95 Q64.05 93.5 65.35 91.75 67.35 88.95 72.15 87.15 L81.75 87.45 Q84.15 88.9 84.2 93.05 84.25 97.45 87.9 99.9 L92.75 100.0 Q97.8 93.4 100.9 89.95 L99.6 84.35 Q99.45 82.35 99.65 81.7 99.9 80.1 101.5 80.05 L105.95 80.15 Q107.15 80.5 107.85 81.2 108.3 81.6 108.4 82.0 108.85 84.0 104.65 83.85 L105.1 86.15 Q109.15 82.75 110.1 87.5 110.2 87.8 109.5 88.95 114.15 88.5 115.5 85.9 L112.85 82.1 Q112.35 81.25 112.15 79.35 111.2 71.8 120.8 71.4 L123.4 71.2 Q121.15 70.35 120.25 69.2 119.65 68.5 119.1 66.2 118.5 63.75 119.15 62.9 L119.5 62.6 Q120.1 62.2 122.45 62.7 125.0 63.15 126.1 62.85 127.9 62.35 128.2 60.0 124.55 58.1 119.9 57.3 116.95 56.8 116.55 55.3 115.9 52.95 119.15 50.7 114.25 49.8 113.75 48.0 113.3 46.2 113.7 45.75 114.7 44.1 120.45 44.9 121.25 44.8 121.35 44.4 L121.1 43.7 120.7 42.6 Q120.1 42.1 118.65 42.15 117.7 42.2 117.3 41.8 L117.1 41.5 Q116.85 40.5 117.75 40.5 118.5 40.4 120.0 41.1 123.5 42.75 124.25 44.75 124.85 46.55 124.55 47.1 123.5 48.8 117.2 48.45 116.95 49.1 117.2 49.95 117.25 50.2 119.15 50.95 L121.55 51.85 121.8 51.65 Q123.75 50.45 125.4 50.15 127.2 49.85 127.5 50.8 127.65 51.55 124.85 53.25 126.85 54.3 127.2 55.55 127.45 56.5 127.4 57.3 127.2 58.6 125.8 58.65 124.4 58.6 123.8 58.1 L123.5 57.5 Q123.35 57.1 123.55 56.4 L123.55 55.35 Q123.25 54.65 122.35 54.2 118.1 56.5 118.35 57.9 118.35 58.55 123.55 59.95 128.7 61.25 129.25 63.35 129.75 65.1 127.85 67.45 125.1 70.6 119.1 69.45 L119.5 71.5 120.4 72.15 125.35 72.85 125.45 72.95 126.45 71.95 Q127.4 70.5 129.2 70.45 131.0 70.35 131.45 71.9 132.1 74.0 129.2 75.4 L127.35 76.1 127.75 77.1 Q128.3 79.45 127.95 81.35 127.2 85.25 122.45 85.15 121.0 85.1 120.35 84.4 120.05 84.1 119.9 83.55 119.55 82.5 120.65 81.5 L123.35 78.95 122.75 77.2 121.05 77.55 Q115.6 78.75 113.6 79.7 110.25 81.05 110.6 83.35 110.7 84.5 112.7 87.05 114.75 89.6 114.85 90.35 L114.35 91.15 Q114.25 92.35 112.75 94.0 109.85 96.95 104.0 96.65 L101.25 96.0 Q98.25 99.3 97.05 101.75 94.35 106.65 85.9 108.1 L76.95 108.3 Q73.65 108.1 73.05 106.5 L73.1 104.85 Q73.15 103.0 73.8 102.35 75.0 101.05 78.4 102.3 L79.65 101.3 79.6 100.15 Q79.3 99.35 78.4 99.25 75.25 99.0 72.3 100.85 69.2 102.7 66.65 102.5 63.25 102.25 62.9 99.5 L62.8 99.35 63.3 96.65 Q63.85 93.2 65.15 91.45 67.15 88.65 71.95 86.85 L81.55 87.15 Q83.95 88.6 84.0 92.75 84.05 97.15 87.7 99.6 L92.55 99.7 Q97.6 93.1 100.7 89.65 L99.4 84.05 Q99.25 82.05 99.45 81.4 99.7 79.8 101.3 79.75 L105.75 79.85 Q106.95 80.2 107.65 80.9 108.1 81.3 108.2 81.7 108.65 83.7 104.45 83.55 L104.9 85.85 Q108.95 82.45 109.9 87.2 110.0 87.5 109.3 88.65 113.95 88.2 115.3 85.6 L112.65 81.8 Q112.15 80.95 111.95 79.05 111.0 71.5 120.6 71.1 L123.2 70.9 Q120.95 70.05 120.05 68.9 119.45 68.2 118.9 65.9 118.3 63.45 118.95 62.6 L119.3 62.3 Q119.9 61.9 122.25 62.4 124.8 62.85 125.9 62.55 127.7 62.05 128.0 59.7 124.35 57.8 119.7 57.0 116.75 56.5 116.35 55.0 115.7 52.65 118.95 50.4 114.05 49.5 113.55 47.7 113.1 45.9 113.5 45.45 114.5 43.8 120.25 44.6 121.05 44.5 121.15 44.1 L120.9 43.4 120.5 42.3 Q119.9 41.8 118.45 41.85 117.5 41.9 117.1 41.5 L116.9 41.2 Q116.65 40.2 117.55 40.2 118.3 40.1 119.8 40.8 123.3 42.45 124.05 44.45 124.65 46.25 124.35 46.8 123.3 48.5 117.0 48.15 116.75 48.8 117.0 49.65 117.05 49.9 118.95 50.65 L121.35 51.55 121.6 51.35 Q123.55 50.15 125.2 49.85 127.0 49.55 127.3 50.5 127.45 51.25 124.65 52.95 126.65 54.0 127.0 55.25 127.25 56.2 127.2 57.0 127.0 58.3 125.6 58.35 124.2 58.3 123.6 57.8 L123.3 57.2 Q123.15 56.8 123.35 56.1 L123.35 55.05 Q123.05 54.35 122.15 53.9 117.9 56.2 118.15 57.6 118.15 58.25 123.35 59.65 128.5 60.95 129.05 63.05 129.55 64.8 127.65 67.15 124.9 70.3 118.9 69.15 L119.3 71.2 120.2 71.85 125.15 72.55 125.25 72.65 126.25 71.65 Q127.2 70.2 129.0 70.15 130.8 70.05 131.25 71.6 131.9 73.7 129.0 75.1 L127.15 75.8 127.55 76.8 Q128.1 79.15 127.75 81.05 127.0 84.95 122.25 84.85 120.8 84.8 120.15 84.1 119.85 83.8 119.7 83.25 119.35 82.2 120.45 81.2 L123.15 78.65 122.55 76.9 120.85 77.25 Q115.4 78.45 113.4 79.4 110.05 80.75 110.4 83.05 110.5 84.2 112.5 86.75 114.55 89.3 114.65 90.05 L114.15 90.85 Q114.05 92.05 112.55 93.7 109.65 96.65 103.8 96.35 L101.05 95.7 Q98.05 99.0 96.85 101.45 94.15 106.35 85.7 107.8 L76.75 108.0 Q73.45 107.8 72.85 106.2 L72.9 104.55 Q72.95 102.7 73.6 102.05 74.8 100.75 78.2 102.0 L79.45 101.0 79.4 99.85 Q79.1 99.05 78.2 98.95 75.05 98.7 72.1 100.55 69.0 102.4 66.45 102.2 63.05 101.95 62.7 99.2 L62.6 99.05 M67.9 97.0 L80.35 95.1 83.0 94.45 Q84.7 94.9 85.4 95.4 L73.85 95.75 Q71.7 96.15 69.7 97.2 69.55 97.15 69.25 97.1 68.25 97.4 68.15 97.05 L67.85 97.0 80.3 95.1 82.95 94.45 Q84.65 94.9 85.35 95.4 L73.8 95.75 Q71.65 96.15 69.65 97.2 69.5 97.15 69.2 97.1 68.2 97.4 68.1 97.05 L67.8 97.0 M90.1 29.4 Q90.15 28.25 90.8 28.0 92.7 27.3 98.25 27.45 100.2 27.7 100.75 28.6 L98.9 29.05 Q97.3 28.95 97.35 29.4 97.85 30.7 99.45 31.15 102.35 31.8 108.55 31.55 109.6 31.9 110.7 32.3 111.85 33.2 113.35 35.75 114.55 37.8 114.9 39.3 115.25 40.7 114.85 41.4 114.15 42.5 111.85 43.05 L108.5 42.95 Q104.85 42.75 102.2 41.35 100.65 40.5 100.3 40.0 99.85 38.85 100.85 38.95 101.45 38.9 102.05 39.9 102.8 40.85 103.0 41.1 L106.05 41.0 Q106.3 40.8 106.1 40.35 105.05 38.4 103.65 37.85 L103.05 37.3 99.25 36.15 Q93.7 34.6 91.15 31.6 90.4 30.85 90.1 30.0 L90.0 29.3 90.0 29.2 Q90.05 28.05 90.7 27.8 92.6 27.1 98.15 27.25 100.1 27.5 100.65 28.4 L98.8 28.85 Q97.2 28.75 97.25 29.2 97.75 30.5 99.35 30.95 102.25 31.6 108.45 31.35 109.5 31.7 110.6 32.1 111.75 33.0 113.25 35.55 114.45 37.6 114.8 39.1 115.15 40.5 114.75 41.2 114.05 42.3 111.75 42.85 L108.4 42.75 Q104.75 42.55 102.1 41.15 100.55 40.3 100.2 39.8 99.75 38.65 100.75 38.75 101.35 38.7 101.95 39.7 102.7 40.65 102.9 40.9 L105.95 40.8 Q106.2 40.6 106.0 40.15 104.95 38.2 103.55 37.65 L102.95 37.1 99.15 35.95 Q93.6 34.4 91.05 31.4 90.3 30.65 90.0 29.8 L89.9 29.1 89.9 29.0" fill="none" stroke="#000000" stroke-linecap="round" stroke-linejoin="round" stroke-opacity="0.0" stroke-width="0.0"/>
    </g>
    <radialGradient cx="0" cy="0" gradientTransform="matrix(0.0586, 0.0023, -0.0027, 0.0679, 75.0, 75.0)" gradientUnits="userSpaceOnUse" id="gradient0" r="819.2" spreadMethod="pad">
      <stop offset="0.0" stop-color="#c5d7f2" stop-opacity="0.7176471"/>
      <stop offset="1.0" stop-color="#709fbe" stop-opacity="0.8"/>
    </radialGradient>
    <radialGradient cx="0" cy="0" gradientTransform="matrix(0.0129, 0.0, 0.0, 0.0129, 75.0, 75.0)" gradientUnits="userSpaceOnUse" id="gradient1" r="819.2" spreadMethod="pad">
      <stop offset="0.0" stop-color="#75a2ce" stop-opacity="0.54901963"/>
      <stop offset="1.0" stop-color="#4c86ad" stop-opacity="0.627451"/>
    </radialGradient>
  </defs>
</svg>
