<?xml version="1.0" encoding="UTF-8" standalone="no"?>
<svg xmlns:ffdec="https://www.free-decompiler.com/flash" xmlns:xlink="http://www.w3.org/1999/xlink" ffdec:objectType="frame" height="178.35px" width="232.65px" xmlns="http://www.w3.org/2000/svg">
  <g transform="matrix(1.0, 0.0, 0.0, 1.0, 45.35, 18.7)">
    <use ffdec:characterId="730" height="178.35" transform="matrix(1.0, 0.0, 0.0, 1.0, -45.35, -18.7)" width="232.65" xlink:href="#morphshape0"/>
  </g>
  <defs>
    <g id="morphshape0" transform="matrix(1.0, 0.0, 0.0, 1.0, 45.35, 18.7)">
      <path d="M-40.3 70.95 Q-40.85 87.9 -31.35 105.0 -4.5 153.45 65.35 154.6 L69.05 154.65 Q134.65 154.3 167.6 109.6 181.75 90.05 182.3 69.95 L182.15 64.25 Q181.3 52.8 176.05 41.15 164.55 15.55 135.35 0.55 110.65 -12.3 80.55 -13.55 L72.3 -13.7 Q46.3 -13.35 22.6 -4.05 -10.7 8.9 -27.55 34.25 -39.75 52.45 -40.3 70.95 M-24.1 59.75 L-24.1 59.75 Q-24.05 61.25 -19.45 61.4 L-14.65 61.25 Q-19.3 72.5 -18.05 74.75 -16.95 76.95 -5.7 77.4 -2.6 77.4 -1.1 74.25 L-0.85 72.85 Q-1.25 71.85 -3.05 71.1 L-11.05 70.6 -8.55 62.75 Q-7.15 58.35 -8.75 56.25 L-14.1 56.0 -13.95 55.7 Q-12.95 54.0 -11.0 52.2 -8.35 49.5 -6.2 49.7 -2.0 49.7 -4.1 53.4 -6.3 57.2 -1.5 57.45 0.35 57.45 3.55 55.6 6.7 53.7 7.55 52.0 8.4 49.85 5.0 48.25 1.55 46.55 -3.2 46.55 L-3.45 46.55 -3.3 46.25 Q-3.0 45.4 -3.2 40.75 -3.4 35.85 -3.05 34.6 L1.7 34.75 Q1.95 35.35 1.6 36.6 1.65 37.55 4.6 37.7 7.7 37.75 9.9 34.55 L11.55 31.05 Q13.4 26.8 13.0 26.0 12.3 24.8 10.1 23.8 L11.6 22.9 14.3 21.2 Q19.55 17.75 20.4 15.95 21.1 14.45 20.5 13.45 19.35 11.85 14.6 11.0 L15.0 10.75 Q17.7 9.45 19.6 8.85 22.7 7.65 27.95 7.4 L28.4 9.05 28.7 11.0 27.95 11.85 26.85 12.1 26.15 11.7 26.5 10.55 Q26.3 9.5 24.5 9.4 23.5 9.35 22.65 9.75 21.4 10.0 21.15 10.9 21.05 10.75 21.1 13.0 21.6 15.25 24.25 15.35 27.9 15.4 30.65 13.95 32.65 12.75 33.2 11.5 34.1 9.1 33.2 7.5 L33.75 7.5 Q35.55 7.55 37.05 5.5 38.4 3.5 41.15 3.7 40.55 5.75 40.65 6.25 41.1 8.05 45.2 8.25 48.55 8.35 49.45 7.4 L50.05 5.3 Q50.65 3.95 53.75 2.8 55.85 4.85 61.3 5.1 72.7 5.45 80.65 2.05 L80.8 1.95 84.8 3.7 Q91.2 6.2 95.0 6.35 99.0 6.5 101.95 3.2 104.3 0.45 104.2 -1.05 103.8 -5.5 96.3 -3.45 94.0 -2.9 91.4 -1.7 L90.9 -1.5 88.35 -0.35 88.5 0.3 Q88.9 0.9 90.4 0.95 92.45 1.05 95.65 -0.4 L98.65 -1.95 99.65 -1.8 99.95 -1.6 100.1 -1.1 96.6 3.85 92.25 3.75 Q90.6 2.7 87.65 1.5 85.5 0.55 84.15 0.25 86.4 -1.35 86.5 -2.65 86.6 -5.2 82.95 -6.5 79.75 -7.65 74.8 -7.8 L66.5 -7.05 Q62.35 -6.15 62.05 -4.55 L62.45 -2.75 Q63.6 -0.75 68.5 -0.5 72.1 -0.45 73.7 -1.1 74.7 -1.65 74.85 -2.7 L74.9 -3.5 Q74.5 -4.45 73.05 -4.45 71.9 -4.55 71.3 -3.85 L70.5 -2.95 67.2 -3.05 66.4 -3.65 Q66.1 -3.95 66.25 -4.45 66.3 -4.9 67.2 -5.05 L71.9 -5.35 80.9 -4.95 82.4 -3.95 82.45 -2.8 Q82.25 -1.3 77.0 0.65 69.8 2.95 59.35 2.45 58.3 1.65 57.4 -2.35 56.6 -5.8 55.6 -5.75 53.85 -5.8 53.2 -4.5 L52.6 -2.6 52.25 -1.4 Q52.0 -0.45 52.35 0.5 51.0 0.9 49.4 1.7 L45.75 3.7 Q46.7 1.4 46.55 0.4 46.45 -0.9 44.75 -1.85 L42.8 -2.65 Q33.85 -3.4 32.95 -1.05 32.75 -0.6 33.85 0.15 L37.4 1.8 33.5 3.95 Q32.5 4.35 32.2 5.25 L32.05 5.95 Q31.15 5.2 30.0 4.75 23.85 4.4 16.25 7.25 9.45 9.7 8.7 11.2 8.1 12.2 12.1 13.6 16.0 14.8 15.7 15.45 L11.5 18.0 Q7.2 20.35 6.4 21.95 L6.15 22.35 2.55 21.35 Q-0.75 20.65 -6.1 24.85 -10.45 28.1 -11.35 29.6 -12.05 30.75 -11.85 31.1 L-9.6 31.75 Q-5.9 30.7 -3.8 28.0 -1.6 25.15 -0.3 24.75 3.3 26.4 7.25 27.25 7.85 27.45 6.9 29.45 L5.7 31.2 Q-2.95 29.85 -8.45 33.65 L-9.85 40.7 Q-10.35 45.4 -9.2 47.2 -18.05 49.15 -23.05 58.0 L-24.1 59.75 M-8.5 86.0 L-8.05 90.35 Q-7.15 95.2 -4.9 95.35 -1.45 95.4 0.2 91.5 L-0.4 88.65 Q-1.05 86.05 -0.85 85.6 -0.4 84.3 1.5 82.55 3.65 80.25 5.45 80.3 10.95 83.55 12.7 85.45 14.35 87.4 13.6 89.95 12.4 93.3 5.3 97.1 -2.1 100.95 -2.85 103.05 -3.4 104.2 10.15 116.0 19.35 124.1 26.2 127.6 31.15 130.1 34.9 130.2 45.3 130.45 48.75 124.95 50.35 118.9 51.1 117.5 52.75 113.75 58.6 109.35 63.5 105.35 63.65 104.8 L63.45 102.75 Q62.6 100.9 60.0 100.9 54.1 100.8 47.7 109.35 44.1 113.85 39.9 121.55 L31.65 121.8 25.05 115.35 26.05 115.6 30.8 116.2 Q40.45 116.3 43.9 111.85 44.85 110.4 45.75 105.7 L46.3 101.95 Q46.05 99.25 43.45 98.75 39.65 98.6 35.85 98.5 33.0 99.7 32.0 101.0 31.25 101.6 31.0 102.9 30.4 105.2 30.6 106.1 L33.9 107.3 36.15 106.55 38.25 106.35 Q37.95 107.25 36.65 108.3 L28.6 108.5 Q27.45 106.95 28.75 102.4 29.8 97.85 35.8 95.05 41.65 92.05 42.0 90.75 42.6 87.95 40.0 87.7 37.9 87.5 34.95 88.8 L33.75 89.35 Q23.55 94.35 21.35 102.4 L20.35 104.5 Q19.25 106.95 19.65 110.25 13.85 105.3 7.9 102.35 16.1 97.85 18.2 95.8 19.2 94.55 20.65 90.1 21.7 86.4 18.5 81.9 15.3 77.65 10.65 75.55 5.3 73.4 0.75 75.35 -4.9 77.65 -8.5 86.0 M61.4 119.75 L61.4 119.75 Q61.9 124.1 67.45 124.25 71.6 124.25 76.7 120.9 81.5 117.5 86.7 117.65 88.15 117.75 88.6 119.0 L88.65 120.85 86.6 122.4 Q80.9 120.05 78.85 122.0 77.7 122.95 77.6 125.9 L77.5 128.55 Q78.45 131.0 83.95 131.15 L98.85 129.85 Q113.0 126.8 117.55 117.95 119.65 113.5 124.75 107.7 L129.4 108.55 Q139.35 108.65 144.3 103.3 147.6 99.5 147.1 96.95 146.75 95.7 143.15 91.45 139.65 87.25 139.25 85.35 138.45 81.55 143.8 79.3 146.75 77.75 155.5 75.8 L158.0 75.2 158.2 75.2 159.1 78.15 154.25 82.5 Q152.3 84.15 152.8 85.9 153.0 86.85 153.45 87.35 154.4 88.55 156.7 88.6 164.3 88.8 165.25 82.35 165.6 79.2 164.45 75.3 L163.75 73.6 166.7 72.4 Q171.35 70.1 170.1 66.6 169.2 64.05 166.1 64.25 162.95 64.35 161.2 66.75 L159.3 68.45 159.1 68.3 150.35 67.15 148.75 66.05 147.85 62.6 Q157.4 64.5 161.55 59.25 164.5 55.35 163.45 52.4 162.15 48.9 153.2 46.7 144.3 44.3 144.0 43.2 143.35 40.8 150.2 36.95 151.65 37.7 152.1 38.85 L152.05 40.6 Q151.65 41.75 151.85 42.4 L152.3 43.4 Q153.2 44.2 155.4 44.3 157.6 44.25 157.8 42.05 157.8 40.7 157.3 39.15 156.55 37.05 153.05 35.3 157.55 32.45 157.1 31.15 156.5 29.55 153.4 30.05 150.45 30.55 147.0 32.55 L146.55 32.85 143.85 31.9 Q139.2 30.2 139.1 29.7 138.7 28.25 139.15 27.2 149.8 28.05 151.65 25.5 152.2 24.7 151.2 21.8 150.05 18.7 144.3 16.25 141.85 15.15 140.65 15.4 139.15 15.45 139.6 17.15 L139.95 17.75 Q140.65 18.55 142.3 18.6 144.75 18.65 145.75 19.65 L146.45 21.6 146.85 22.85 Q146.7 23.6 145.35 23.85 135.8 22.85 134.15 25.9 133.5 26.8 134.25 29.9 135.05 33.3 143.25 35.1 137.8 39.15 138.85 43.35 139.45 46.05 144.3 47.05 151.95 48.8 157.95 52.35 157.4 56.5 154.3 57.55 152.4 58.2 148.05 57.65 144.05 56.95 142.95 57.75 141.05 58.8 142.25 63.7 143.25 67.5 144.35 68.65 146.05 70.5 150.0 71.9 L145.95 72.2 Q130.55 72.8 132.8 85.35 L133.4 87.95 Q133.75 89.2 134.25 89.95 L139.2 96.3 Q137.25 100.7 129.85 101.45 131.1 99.5 131.0 99.0 129.75 91.1 123.35 96.75 L122.85 92.9 Q130.05 93.15 129.55 89.8 129.45 89.1 128.8 88.4 127.7 87.2 125.8 86.65 L118.75 86.45 Q116.25 86.55 115.95 89.2 115.75 90.25 116.1 93.55 L118.9 102.9 Q114.35 108.7 106.55 119.75 L98.9 119.6 Q93.25 115.55 93.6 108.25 93.85 101.4 90.15 99.0 L75.05 98.65 Q67.45 101.7 64.5 106.45 62.6 109.4 61.95 115.15 L61.4 119.75 M106.55 2.7 L106.6 3.65 Q106.95 4.7 108.05 5.55 111.55 8.35 121.2 8.75 124.65 8.7 128.1 8.7 130.35 9.1 131.5 13.6 131.65 14.35 130.55 14.85 127.0 14.95 123.5 15.05 122.65 14.7 120.85 13.15 119.35 11.55 117.85 11.6 115.65 11.4 115.9 13.3 115.95 14.1 118.05 15.5 121.15 17.75 125.95 17.95 L129.7 17.95 Q134.3 17.75 135.8 16.6 136.55 15.85 136.05 13.95 135.6 12.25 133.6 9.65 131.1 6.4 128.85 5.9 126.85 5.8 124.85 5.75 119.45 5.95 116.15 5.6 L112.9 4.95 Q110.85 4.2 110.75 2.8 L110.6 2.0 Q111.15 1.3 114.45 1.45 115.9 1.4 118.15 2.05 119.55 2.2 119.35 0.8 119.05 -0.6 116.4 -0.95 108.65 -1.05 106.95 0.3 106.25 0.75 106.55 2.7 M69.55 115.3 L69.65 114.45 Q69.0 112.65 71.1 109.7 72.55 107.3 74.4 106.3 75.1 106.05 75.75 105.8 80.4 105.9 85.05 106.0 85.75 106.0 86.45 106.0 86.3 108.7 79.9 111.4 L79.6 111.5 Q74.55 113.4 69.55 115.3" fill="url(#gradient0)" fill-rule="evenodd" stroke="none"/>
      <path d="M-24.1 59.75 L-24.1 59.75 Q-24.05 61.25 -19.45 61.4 L-14.65 61.25 Q-19.3 72.5 -18.05 74.75 -16.95 76.95 -5.7 77.4 -2.6 77.4 -1.1 74.25 L-0.85 72.85 Q-1.25 71.85 -3.05 71.1 L-11.05 70.6 -8.55 62.75 Q-7.15 58.35 -8.75 56.25 L-14.1 56.0 -13.95 55.7 Q-12.95 54.0 -11.0 52.2 -8.35 49.5 -6.2 49.7 -2.0 49.7 -4.1 53.4 -6.3 57.2 -1.5 57.45 0.35 57.45 3.55 55.6 6.7 53.7 7.55 52.0 8.4 49.85 5.0 48.25 1.55 46.55 -3.2 46.55 L-3.45 46.55 -3.3 46.25 Q-3.0 45.4 -3.2 40.75 -3.4 35.85 -3.05 34.6 L1.7 34.75 Q1.95 35.35 1.6 36.6 1.65 37.55 4.6 37.7 7.7 37.75 9.9 34.55 L11.55 31.05 Q13.4 26.8 13.0 26.0 12.3 24.8 10.1 23.8 L11.6 22.9 14.3 21.2 Q19.55 17.75 20.4 15.95 21.1 14.45 20.5 13.45 19.35 11.85 14.6 11.0 L15.0 10.75 Q17.7 9.45 19.6 8.85 22.7 7.65 27.95 7.4 L28.4 9.05 28.7 11.0 27.95 11.85 26.85 12.1 26.15 11.7 26.5 10.55 Q26.3 9.5 24.5 9.4 23.5 9.35 22.65 9.75 21.4 10.0 21.15 10.9 21.05 10.75 21.1 13.0 21.6 15.25 24.25 15.35 27.9 15.4 30.65 13.95 32.65 12.75 33.2 11.5 34.1 9.1 33.2 7.5 L33.75 7.5 Q35.55 7.55 37.05 5.5 38.4 3.5 41.15 3.7 40.55 5.75 40.65 6.25 41.1 8.05 45.2 8.25 48.55 8.35 49.45 7.4 L50.05 5.3 Q50.65 3.95 53.75 2.8 55.85 4.85 61.3 5.1 72.7 5.45 80.65 2.05 L80.8 1.95 84.8 3.7 Q91.2 6.2 95.0 6.35 99.0 6.5 101.95 3.2 104.3 0.45 104.2 -1.05 103.8 -5.5 96.3 -3.45 94.0 -2.9 91.4 -1.7 L90.9 -1.5 88.35 -0.35 88.5 0.3 Q88.9 0.9 90.4 0.95 92.45 1.05 95.65 -0.4 L98.65 -1.95 99.65 -1.8 99.95 -1.6 100.1 -1.1 96.6 3.85 92.25 3.75 Q90.6 2.7 87.65 1.5 85.5 0.55 84.15 0.25 86.4 -1.35 86.5 -2.65 86.6 -5.2 82.95 -6.5 79.75 -7.65 74.8 -7.8 L66.5 -7.05 Q62.35 -6.15 62.05 -4.55 L62.45 -2.75 Q63.6 -0.75 68.5 -0.5 72.1 -0.45 73.7 -1.1 74.7 -1.65 74.85 -2.7 L74.9 -3.5 Q74.5 -4.45 73.05 -4.45 71.9 -4.55 71.3 -3.85 L70.5 -2.95 67.2 -3.05 66.4 -3.65 Q66.1 -3.95 66.25 -4.45 66.3 -4.9 67.2 -5.05 L71.9 -5.35 80.9 -4.95 82.4 -3.95 82.45 -2.8 Q82.25 -1.3 77.0 0.65 69.8 2.95 59.35 2.45 58.3 1.65 57.4 -2.35 56.6 -5.8 55.6 -5.75 53.85 -5.8 53.2 -4.5 L52.6 -2.6 52.25 -1.4 Q52.0 -0.45 52.35 0.5 51.0 0.9 49.4 1.7 L45.75 3.7 Q46.7 1.4 46.55 0.4 46.45 -0.9 44.75 -1.85 L42.8 -2.65 Q33.85 -3.4 32.95 -1.05 32.75 -0.6 33.85 0.15 L37.4 1.8 33.5 3.95 Q32.5 4.35 32.2 5.25 L32.05 5.95 Q31.15 5.2 30.0 4.75 23.85 4.4 16.25 7.25 9.45 9.7 8.7 11.2 8.1 12.2 12.1 13.6 16.0 14.8 15.7 15.45 L11.5 18.0 Q7.2 20.35 6.4 21.95 L6.15 22.35 2.55 21.35 Q-0.75 20.65 -6.1 24.85 -10.45 28.1 -11.35 29.6 -12.05 30.75 -11.85 31.1 L-9.6 31.75 Q-5.9 30.7 -3.8 28.0 -1.6 25.15 -0.3 24.75 3.3 26.4 7.25 27.25 7.85 27.45 6.9 29.45 L5.7 31.2 Q-2.95 29.85 -8.45 33.65 L-9.85 40.7 Q-10.35 45.4 -9.2 47.2 -18.05 49.15 -23.05 58.0 L-24.1 59.75 M-8.5 86.0 L-8.05 90.35 Q-7.15 95.2 -4.9 95.35 -1.45 95.4 0.2 91.5 L-0.4 88.65 Q-1.05 86.05 -0.85 85.6 -0.4 84.3 1.5 82.55 3.65 80.25 5.45 80.3 10.95 83.55 12.7 85.45 14.35 87.4 13.6 89.95 12.4 93.3 5.3 97.1 -2.1 100.95 -2.85 103.05 -3.4 104.2 10.15 116.0 19.35 124.1 26.2 127.6 31.15 130.1 34.9 130.2 45.3 130.45 48.75 124.95 50.35 118.9 51.1 117.5 52.75 113.75 58.6 109.35 63.5 105.35 63.65 104.8 L63.45 102.75 Q62.6 100.9 60.0 100.9 54.1 100.8 47.7 109.35 44.1 113.85 39.9 121.55 L31.65 121.8 25.05 115.35 26.05 115.6 30.8 116.2 Q40.45 116.3 43.9 111.85 44.85 110.4 45.75 105.7 L46.3 101.95 Q46.05 99.25 43.45 98.75 39.65 98.6 35.85 98.5 33.0 99.7 32.0 101.0 31.25 101.6 31.0 102.9 30.4 105.2 30.6 106.1 L33.9 107.3 36.15 106.55 38.25 106.35 Q37.95 107.25 36.65 108.3 L28.6 108.5 Q27.45 106.95 28.75 102.4 29.8 97.85 35.8 95.05 41.65 92.05 42.0 90.75 42.6 87.95 40.0 87.7 37.9 87.5 34.95 88.8 L33.75 89.35 Q23.55 94.35 21.35 102.4 L20.35 104.5 Q19.25 106.95 19.65 110.25 13.85 105.3 7.9 102.35 16.1 97.85 18.2 95.8 19.2 94.55 20.65 90.1 21.7 86.4 18.5 81.9 15.3 77.65 10.65 75.55 5.3 73.4 0.75 75.35 -4.9 77.65 -8.5 86.0 M69.55 115.3 L69.65 114.45 Q69.0 112.65 71.1 109.7 72.55 107.3 74.4 106.3 75.1 106.05 75.75 105.8 80.4 105.9 85.05 106.0 85.75 106.0 86.45 106.0 86.3 108.7 79.9 111.4 L79.6 111.5 Q74.55 113.4 69.55 115.3 M61.4 119.75 L61.4 119.75 Q61.9 124.1 67.45 124.25 71.6 124.25 76.7 120.9 81.5 117.5 86.7 117.65 88.15 117.75 88.6 119.0 L88.65 120.85 86.6 122.4 Q80.9 120.05 78.85 122.0 77.7 122.95 77.6 125.9 L77.5 128.55 Q78.45 131.0 83.95 131.15 L98.85 129.85 Q113.0 126.8 117.55 117.95 119.65 113.5 124.75 107.7 L129.4 108.55 Q139.35 108.65 144.3 103.3 147.6 99.5 147.1 96.95 146.75 95.7 143.15 91.45 139.65 87.25 139.25 85.35 138.45 81.55 143.8 79.3 146.75 77.75 155.5 75.8 L158.0 75.2 158.2 75.2 159.1 78.15 154.25 82.5 Q152.3 84.15 152.8 85.9 153.0 86.85 153.45 87.35 154.4 88.55 156.7 88.6 164.3 88.8 165.25 82.35 165.6 79.2 164.45 75.3 L163.75 73.6 166.7 72.4 Q171.35 70.1 170.1 66.6 169.2 64.05 166.1 64.25 162.95 64.35 161.2 66.75 L159.3 68.45 159.1 68.3 150.35 67.15 148.75 66.05 147.85 62.6 Q157.4 64.5 161.55 59.25 164.5 55.35 163.45 52.4 162.15 48.9 153.2 46.7 144.3 44.3 144.0 43.2 143.35 40.8 150.2 36.95 151.65 37.7 152.1 38.85 L152.05 40.6 Q151.65 41.75 151.85 42.4 L152.3 43.4 Q153.2 44.2 155.4 44.3 157.6 44.25 157.8 42.05 157.8 40.7 157.3 39.15 156.55 37.05 153.05 35.3 157.55 32.45 157.1 31.15 156.5 29.55 153.4 30.05 150.45 30.55 147.0 32.55 L146.55 32.85 143.85 31.9 Q139.2 30.2 139.1 29.7 138.7 28.25 139.15 27.2 149.8 28.05 151.65 25.5 152.2 24.7 151.2 21.8 150.05 18.7 144.3 16.25 141.85 15.15 140.65 15.4 139.15 15.45 139.6 17.15 L139.95 17.75 Q140.65 18.55 142.3 18.6 144.75 18.65 145.75 19.65 L146.45 21.6 146.85 22.85 Q146.7 23.6 145.35 23.85 135.8 22.85 134.15 25.9 133.5 26.8 134.25 29.9 135.05 33.3 143.25 35.1 137.8 39.15 138.85 43.35 139.45 46.05 144.3 47.05 151.95 48.8 157.95 52.35 157.4 56.5 154.3 57.55 152.4 58.2 148.05 57.65 144.05 56.95 142.95 57.75 141.05 58.8 142.25 63.7 143.25 67.5 144.35 68.65 146.05 70.5 150.0 71.9 L145.95 72.2 Q130.55 72.8 132.8 85.35 L133.4 87.95 Q133.75 89.2 134.25 89.95 L139.2 96.3 Q137.25 100.7 129.85 101.45 131.1 99.5 131.0 99.0 129.75 91.1 123.35 96.75 L122.85 92.9 Q130.05 93.15 129.55 89.8 129.45 89.1 128.8 88.4 127.7 87.2 125.8 86.65 L118.75 86.45 Q116.25 86.55 115.95 89.2 115.75 90.25 116.1 93.55 L118.9 102.9 Q114.35 108.7 106.55 119.75 L98.9 119.6 Q93.25 115.55 93.6 108.25 93.85 101.4 90.15 99.0 L75.05 98.65 Q67.45 101.7 64.5 106.45 62.6 109.4 61.95 115.15 L61.4 119.75 M106.55 2.7 L106.6 3.65 Q106.95 4.7 108.05 5.55 111.55 8.35 121.2 8.75 124.65 8.7 128.1 8.7 130.35 9.1 131.5 13.6 131.65 14.35 130.55 14.85 127.0 14.95 123.5 15.05 122.65 14.7 120.85 13.15 119.35 11.55 117.85 11.6 115.65 11.4 115.9 13.3 115.95 14.1 118.05 15.5 121.15 17.75 125.95 17.95 L129.7 17.95 Q134.3 17.75 135.8 16.6 136.55 15.85 136.05 13.95 135.6 12.25 133.6 9.65 131.1 6.4 128.85 5.9 126.85 5.8 124.85 5.75 119.45 5.95 116.15 5.6 L112.9 4.95 Q110.85 4.2 110.75 2.8 L110.6 2.0 Q111.15 1.3 114.45 1.45 115.9 1.4 118.15 2.05 119.55 2.2 119.35 0.8 119.05 -0.6 116.4 -0.95 108.65 -1.05 106.95 0.3 106.25 0.75 106.55 2.7" fill="url(#gradient1)" fill-rule="evenodd" stroke="none"/>
      <path d="M-40.3 70.95 Q-39.75 52.45 -27.55 34.25 -10.7 8.9 22.6 -4.05 46.3 -13.35 72.3 -13.7 L80.55 -13.55 Q110.65 -12.3 135.35 0.55 164.55 15.55 176.05 41.15 181.3 52.8 182.15 64.25 L182.3 69.95 Q181.75 90.05 167.6 109.6 134.65 154.3 69.05 154.65 L65.35 154.6 Q-4.5 153.45 -31.35 105.0 -40.85 87.9 -40.3 70.95 -39.75 52.45 -27.55 34.25 -10.7 8.9 22.6 -4.05 46.3 -13.35 72.3 -13.7 L80.55 -13.55 Q110.65 -12.3 135.35 0.55 164.55 15.55 176.05 41.15 181.3 52.8 182.15 64.25 L182.3 69.95 Q181.75 90.05 167.6 109.6 134.65 154.3 69.05 154.65 L65.35 154.6 Q-4.5 153.45 -31.35 105.0 -40.85 87.9 -40.3 70.95" fill="none" stroke="#8db2cc" stroke-linecap="round" stroke-linejoin="round" stroke-opacity="0.70980394" stroke-width="10.05"/>
      <path d="M-24.1 59.75 L-23.05 58.0 Q-18.05 49.15 -9.2 47.2 -10.35 45.4 -9.85 40.7 L-8.45 33.65 Q-2.95 29.85 5.7 31.2 L6.9 29.45 Q7.85 27.45 7.25 27.25 3.3 26.4 -0.3 24.75 -1.6 25.15 -3.8 28.0 -5.9 30.7 -9.6 31.75 L-11.85 31.1 Q-12.05 30.75 -11.35 29.6 -10.45 28.1 -6.1 24.85 -0.75 20.65 2.55 21.35 L6.15 22.35 6.4 21.95 Q7.2 20.35 11.5 18.0 L15.7 15.45 Q16.0 14.8 12.1 13.6 8.1 12.2 8.7 11.2 9.45 9.7 16.25 7.25 23.85 4.4 30.0 4.75 31.15 5.2 32.05 5.95 L32.2 5.25 Q32.5 4.35 33.5 3.95 L37.4 1.8 33.85 0.15 Q32.75 -0.6 32.95 -1.05 33.85 -3.4 42.8 -2.65 L44.75 -1.85 Q46.45 -0.9 46.55 0.4 46.7 1.4 45.75 3.7 L49.4 1.7 Q51.0 0.9 52.35 0.5 52.0 -0.45 52.25 -1.4 L52.6 -2.6 53.2 -4.5 Q53.85 -5.8 55.6 -5.75 56.6 -5.8 57.4 -2.35 58.3 1.65 59.35 2.45 69.8 2.95 77.0 0.65 82.25 -1.3 82.45 -2.8 L82.4 -3.95 80.9 -4.95 71.9 -5.35 67.2 -5.05 Q66.3 -4.9 66.25 -4.45 66.1 -3.95 66.4 -3.65 L67.2 -3.05 70.5 -2.95 71.3 -3.85 Q71.9 -4.55 73.05 -4.45 74.5 -4.45 74.9 -3.5 L74.85 -2.7 Q74.7 -1.65 73.7 -1.1 72.1 -0.45 68.5 -0.5 63.6 -0.75 62.45 -2.75 L62.05 -4.55 Q62.35 -6.15 66.5 -7.05 L74.8 -7.8 Q79.75 -7.65 82.95 -6.5 86.6 -5.2 86.5 -2.65 86.4 -1.35 84.15 0.25 85.5 0.55 87.65 1.5 90.6 2.7 92.25 3.75 L96.6 3.85 100.1 -1.1 99.95 -1.6 99.65 -1.8 98.65 -1.95 95.65 -0.4 Q92.45 1.05 90.4 0.95 88.9 0.9 88.5 0.3 L88.35 -0.35 90.9 -1.5 91.4 -1.7 Q94.0 -2.9 96.3 -3.45 103.8 -5.5 104.2 -1.05 104.3 0.45 101.95 3.2 99.0 6.5 95.0 6.35 91.2 6.2 84.8 3.7 L80.8 1.95 80.65 2.05 Q72.7 5.45 61.3 5.1 55.85 4.85 53.75 2.8 50.65 3.95 50.05 5.3 L49.45 7.4 Q48.55 8.35 45.2 8.25 41.1 8.05 40.65 6.25 40.55 5.75 41.15 3.7 38.4 3.5 37.05 5.5 35.55 7.55 33.75 7.5 L33.2 7.5 Q34.1 9.1 33.2 11.5 32.65 12.75 30.65 13.95 27.9 15.4 24.25 15.35 21.6 15.25 21.1 13.0 21.05 10.75 21.15 10.9 21.4 10.0 22.65 9.75 23.5 9.35 24.5 9.4 26.3 9.5 26.5 10.55 L26.15 11.7 26.85 12.1 27.95 11.85 28.7 11.0 28.4 9.05 27.95 7.4 Q22.7 7.65 19.6 8.85 17.7 9.45 15.0 10.75 L14.6 11.0 Q19.35 11.85 20.5 13.45 21.1 14.45 20.4 15.95 19.55 17.75 14.3 21.2 L11.6 22.9 10.1 23.8 Q12.3 24.8 13.0 26.0 13.4 26.8 11.55 31.05 L9.9 34.55 Q7.7 37.75 4.6 37.7 1.65 37.55 1.6 36.6 1.95 35.35 1.7 34.75 L-3.05 34.6 Q-3.4 35.85 -3.2 40.75 -3.0 45.4 -3.3 46.25 L-3.45 46.55 -3.2 46.55 Q1.55 46.55 5.0 48.25 8.4 49.85 7.55 52.0 6.7 53.7 3.55 55.6 0.35 57.45 -1.5 57.45 -6.3 57.2 -4.1 53.4 -2.0 49.7 -6.2 49.7 -8.35 49.5 -11.0 52.2 -12.95 54.0 -13.95 55.7 L-14.1 56.0 -8.75 56.25 Q-7.15 58.35 -8.55 62.75 L-11.05 70.6 -3.05 71.1 Q-1.25 71.85 -0.85 72.85 L-1.1 74.25 Q-2.6 77.4 -5.7 77.4 -16.95 76.95 -18.05 74.75 -19.3 72.5 -14.65 61.25 L-19.45 61.4 Q-24.05 61.25 -24.1 59.75 L-24.1 59.75 -23.05 58.0 Q-18.05 49.15 -9.2 47.2 -10.35 45.4 -9.85 40.7 L-8.45 33.65 Q-2.95 29.85 5.7 31.2 L6.9 29.45 Q7.85 27.45 7.25 27.25 3.3 26.4 -0.3 24.75 -1.6 25.15 -3.8 28.0 -5.9 30.7 -9.6 31.75 L-11.85 31.1 Q-12.05 30.75 -11.35 29.6 -10.45 28.1 -6.1 24.85 -0.75 20.65 2.55 21.35 L6.15 22.35 6.4 21.95 Q7.2 20.35 11.5 18.0 L15.7 15.45 Q16.0 14.8 12.1 13.6 8.1 12.2 8.7 11.2 9.45 9.7 16.25 7.25 23.85 4.4 30.0 4.75 31.15 5.2 32.05 5.95 L32.2 5.25 Q32.5 4.35 33.5 3.95 L37.4 1.8 33.85 0.15 Q32.75 -0.6 32.95 -1.05 33.85 -3.4 42.8 -2.65 L44.75 -1.85 Q46.45 -0.9 46.55 0.4 46.7 1.4 45.75 3.7 L49.4 1.7 Q51.0 0.9 52.35 0.5 52.0 -0.45 52.25 -1.4 L52.6 -2.6 53.2 -4.5 Q53.85 -5.8 55.6 -5.75 56.6 -5.8 57.4 -2.35 58.3 1.65 59.35 2.45 69.8 2.95 77.0 0.65 82.25 -1.3 82.45 -2.8 L82.4 -3.95 80.9 -4.95 71.9 -5.35 67.2 -5.05 Q66.3 -4.9 66.25 -4.45 66.1 -3.95 66.4 -3.65 L67.2 -3.05 70.5 -2.95 71.3 -3.85 Q71.9 -4.55 73.05 -4.45 74.5 -4.45 74.9 -3.5 L74.85 -2.7 Q74.7 -1.65 73.7 -1.1 72.1 -0.45 68.5 -0.5 63.6 -0.75 62.45 -2.75 L62.05 -4.55 Q62.35 -6.15 66.5 -7.05 L74.8 -7.8 Q79.75 -7.65 82.95 -6.5 86.6 -5.2 86.5 -2.65 86.4 -1.35 84.15 0.25 85.5 0.55 87.65 1.5 90.6 2.7 92.25 3.75 L96.6 3.85 100.1 -1.1 99.95 -1.6 99.65 -1.8 98.65 -1.95 95.65 -0.4 Q92.45 1.05 90.4 0.95 88.9 0.9 88.5 0.3 L88.35 -0.35 90.9 -1.5 91.4 -1.7 Q94.0 -2.9 96.3 -3.45 103.8 -5.5 104.2 -1.05 104.3 0.45 101.95 3.2 99.0 6.5 95.0 6.35 91.2 6.2 84.8 3.7 L80.8 1.95 80.65 2.05 Q72.7 5.45 61.3 5.1 55.85 4.85 53.75 2.8 50.65 3.95 50.05 5.3 L49.45 7.4 Q48.55 8.35 45.2 8.25 41.1 8.05 40.65 6.25 40.55 5.75 41.15 3.7 38.4 3.5 37.05 5.5 35.55 7.55 33.75 7.5 L33.2 7.5 Q34.1 9.1 33.2 11.5 32.65 12.75 30.65 13.95 27.9 15.4 24.25 15.35 21.6 15.25 21.1 13.0 21.05 10.75 21.15 10.9 21.4 10.0 22.65 9.75 23.5 9.35 24.5 9.4 26.3 9.5 26.5 10.55 L26.15 11.7 26.85 12.1 27.95 11.85 28.7 11.0 28.4 9.05 27.95 7.4 Q22.7 7.65 19.6 8.85 17.7 9.45 15.0 10.75 L14.6 11.0 Q19.35 11.85 20.5 13.45 21.1 14.45 20.4 15.95 19.55 17.75 14.3 21.2 L11.6 22.9 10.1 23.8 Q12.3 24.8 13.0 26.0 13.4 26.8 11.55 31.05 L9.9 34.55 Q7.7 37.75 4.6 37.7 1.65 37.55 1.6 36.6 1.95 35.35 1.7 34.75 L-3.05 34.6 Q-3.4 35.85 -3.2 40.75 -3.0 45.4 -3.3 46.25 L-3.45 46.55 -3.2 46.55 Q1.55 46.55 5.0 48.25 8.4 49.85 7.55 52.0 6.7 53.7 3.55 55.6 0.35 57.45 -1.5 57.45 -6.3 57.2 -4.1 53.4 -2.0 49.7 -6.2 49.7 -8.35 49.5 -11.0 52.2 -12.95 54.0 -13.95 55.7 L-14.1 56.0 -8.75 56.25 Q-7.15 58.35 -8.55 62.75 L-11.05 70.6 -3.05 71.1 Q-1.25 71.85 -0.85 72.85 L-1.1 74.25 Q-2.6 77.4 -5.7 77.4 -16.95 76.95 -18.05 74.75 -19.3 72.5 -14.65 61.25 L-19.45 61.4 Q-24.05 61.25 -24.1 59.75 L-24.1 59.75 M-8.5 86.0 Q-4.9 77.65 0.75 75.35 5.3 73.4 10.65 75.55 15.3 77.65 18.5 81.9 21.7 86.4 20.65 90.1 19.2 94.55 18.2 95.8 16.1 97.85 7.9 102.35 13.85 105.3 19.65 110.25 19.25 106.95 20.35 104.5 L21.35 102.4 Q23.55 94.35 33.75 89.35 L34.95 88.8 Q37.9 87.5 40.0 87.7 42.6 87.95 42.0 90.75 41.65 92.05 35.8 95.05 29.8 97.85 28.75 102.4 27.45 106.95 28.6 108.5 L36.65 108.3 Q37.95 107.25 38.25 106.35 L36.15 106.55 33.9 107.3 30.6 106.1 Q30.4 105.2 31.0 102.9 31.25 101.6 32.0 101.0 33.0 99.7 35.85 98.5 39.65 98.6 43.45 98.75 46.05 99.25 46.3 101.95 L45.75 105.7 Q44.85 110.4 43.9 111.85 40.45 116.3 30.8 116.2 L26.05 115.6 25.05 115.35 31.65 121.8 39.9 121.55 Q44.1 113.85 47.7 109.35 54.1 100.8 60.0 100.9 62.6 100.9 63.45 102.75 L63.65 104.8 Q63.5 105.35 58.6 109.35 52.75 113.75 51.1 117.5 50.35 118.9 48.75 124.95 45.3 130.45 34.9 130.2 31.15 130.1 26.2 127.6 19.35 124.1 10.15 116.0 -3.4 104.2 -2.85 103.05 -2.1 100.95 5.3 97.1 12.4 93.3 13.6 89.95 14.35 87.4 12.7 85.45 10.95 83.55 5.45 80.3 3.65 80.25 1.5 82.55 -0.4 84.3 -0.85 85.6 -1.05 86.05 -0.4 88.65 L0.2 91.5 Q-1.45 95.4 -4.9 95.35 -7.15 95.2 -8.05 90.35 L-8.5 86.0 Q-4.9 77.65 0.75 75.35 5.3 73.4 10.65 75.55 15.3 77.65 18.5 81.9 21.7 86.4 20.65 90.1 19.2 94.55 18.2 95.8 16.1 97.85 7.9 102.35 13.85 105.3 19.65 110.25 19.25 106.95 20.35 104.5 L21.35 102.4 Q23.55 94.35 33.75 89.35 L34.95 88.8 Q37.9 87.5 40.0 87.7 42.6 87.95 42.0 90.75 41.65 92.05 35.8 95.05 29.8 97.85 28.75 102.4 27.45 106.95 28.6 108.5 L36.65 108.3 Q37.95 107.25 38.25 106.35 L36.15 106.55 33.9 107.3 30.6 106.1 Q30.4 105.2 31.0 102.9 31.25 101.6 32.0 101.0 33.0 99.7 35.85 98.5 39.65 98.6 43.45 98.75 46.05 99.25 46.3 101.95 L45.75 105.7 Q44.85 110.4 43.9 111.85 40.45 116.3 30.8 116.2 L26.05 115.6 25.05 115.35 31.65 121.8 39.9 121.55 Q44.1 113.85 47.7 109.35 54.1 100.8 60.0 100.9 62.6 100.9 63.45 102.75 L63.65 104.8 Q63.5 105.35 58.6 109.35 52.75 113.75 51.1 117.5 50.35 118.9 48.75 124.95 45.3 130.45 34.9 130.2 31.15 130.1 26.2 127.6 19.35 124.1 10.15 116.0 -3.4 104.2 -2.85 103.05 -2.1 100.95 5.3 97.1 12.4 93.3 13.6 89.95 14.35 87.4 12.7 85.45 10.95 83.55 5.45 80.3 3.65 80.25 1.5 82.55 -0.4 84.3 -0.85 85.6 -1.05 86.05 -0.4 88.65 L0.2 91.5 Q-1.45 95.4 -4.9 95.35 -7.15 95.2 -8.05 90.35 L-8.5 86.0 M61.4 119.75 L61.95 115.15 Q62.6 109.4 64.5 106.45 67.45 101.7 75.05 98.65 L90.15 99.0 Q93.85 101.4 93.6 108.25 93.25 115.55 98.9 119.6 L106.55 119.75 Q114.35 108.7 118.9 102.9 L116.1 93.55 Q115.75 90.25 115.95 89.2 116.25 86.55 118.75 86.45 L125.8 86.65 Q127.7 87.2 128.8 88.4 129.45 89.1 129.55 89.8 130.05 93.15 122.85 92.9 L123.35 96.75 Q129.75 91.1 131.0 99.0 131.1 99.5 129.85 101.45 137.25 100.7 139.2 96.3 L134.25 89.95 Q133.75 89.2 133.4 87.95 L132.8 85.35 Q130.55 72.8 145.95 72.2 L150.0 71.9 Q146.05 70.5 144.35 68.65 143.25 67.5 142.25 63.7 141.05 58.8 142.95 57.75 144.05 56.95 148.05 57.65 152.4 58.2 154.3 57.55 157.4 56.5 157.95 52.35 151.95 48.8 144.3 47.05 139.45 46.05 138.85 43.35 137.8 39.15 143.25 35.1 135.05 33.3 134.25 29.9 133.5 26.8 134.15 25.9 135.8 22.85 145.35 23.85 146.7 23.6 146.85 22.85 L146.45 21.6 145.75 19.65 Q144.75 18.65 142.3 18.6 140.65 18.55 139.95 17.75 L139.6 17.15 Q139.15 15.45 140.65 15.4 141.85 15.15 144.3 16.25 150.05 18.7 151.2 21.8 152.2 24.7 151.65 25.5 149.8 28.05 139.15 27.2 138.7 28.25 139.1 29.7 139.2 30.2 143.85 31.9 L146.55 32.85 147.0 32.55 Q150.45 30.55 153.4 30.05 156.5 29.55 157.1 31.15 157.55 32.45 153.05 35.3 156.55 37.05 157.3 39.15 157.8 40.7 157.8 42.05 157.6 44.25 155.4 44.3 153.2 44.2 152.3 43.4 L151.85 42.4 Q151.65 41.75 152.05 40.6 L152.1 38.85 Q151.65 37.7 150.2 36.95 143.35 40.8 144.0 43.2 144.3 44.3 153.2 46.7 162.15 48.9 163.45 52.4 164.5 55.35 161.55 59.25 157.4 64.5 147.85 62.6 L148.75 66.05 150.35 67.15 159.1 68.3 159.3 68.45 161.2 66.75 Q162.95 64.35 166.1 64.25 169.2 64.05 170.1 66.6 171.35 70.1 166.7 72.4 L163.75 73.6 164.45 75.3 Q165.6 79.2 165.25 82.35 164.3 88.8 156.7 88.6 154.4 88.55 153.45 87.35 153.0 86.85 152.8 85.9 152.3 84.15 154.25 82.5 L159.1 78.15 158.2 75.2 158.0 75.2 155.5 75.8 Q146.75 77.75 143.8 79.3 138.45 81.55 139.25 85.35 139.65 87.25 143.15 91.45 146.75 95.7 147.1 96.95 147.6 99.5 144.3 103.3 139.35 108.65 129.4 108.55 L124.75 107.7 Q119.65 113.5 117.55 117.95 113.0 126.8 98.85 129.85 L83.95 131.15 Q78.45 131.0 77.5 128.55 L77.6 125.9 Q77.7 122.95 78.85 122.0 80.9 120.05 86.6 122.4 L88.65 120.85 88.6 119.0 Q88.15 117.75 86.7 117.65 81.5 117.5 76.7 120.9 71.6 124.25 67.45 124.25 61.9 124.1 61.4 119.75 L61.4 119.75 61.95 115.15 Q62.6 109.4 64.5 106.45 67.45 101.7 75.05 98.65 L90.15 99.0 Q93.85 101.4 93.6 108.25 93.25 115.55 98.9 119.6 L106.55 119.75 Q114.35 108.7 118.9 102.9 L116.1 93.55 Q115.75 90.25 115.95 89.2 116.25 86.55 118.75 86.45 L125.8 86.65 Q127.7 87.2 128.8 88.4 129.45 89.1 129.55 89.8 130.05 93.15 122.85 92.9 L123.35 96.75 Q129.75 91.1 131.0 99.0 131.1 99.5 129.85 101.45 137.25 100.7 139.2 96.3 L134.25 89.95 Q133.75 89.2 133.4 87.95 L132.8 85.35 Q130.55 72.8 145.95 72.2 L150.0 71.9 Q146.05 70.5 144.35 68.65 143.25 67.5 142.25 63.7 141.05 58.8 142.95 57.75 144.05 56.95 148.05 57.65 152.4 58.2 154.3 57.55 157.4 56.5 157.95 52.35 151.95 48.8 144.3 47.05 139.45 46.05 138.85 43.35 137.8 39.15 143.25 35.1 135.05 33.3 134.25 29.9 133.5 26.8 134.15 25.9 135.8 22.85 145.35 23.85 146.7 23.6 146.85 22.85 L146.45 21.6 145.75 19.65 Q144.75 18.65 142.3 18.6 140.65 18.55 139.95 17.75 L139.6 17.15 Q139.15 15.45 140.65 15.4 141.85 15.15 144.3 16.25 150.05 18.7 151.2 21.8 152.2 24.7 151.65 25.5 149.8 28.05 139.15 27.2 138.7 28.25 139.1 29.7 139.2 30.2 143.85 31.9 L146.55 32.85 147.0 32.55 Q150.45 30.55 153.4 30.05 156.5 29.55 157.1 31.15 157.55 32.45 153.05 35.3 156.55 37.05 157.3 39.15 157.8 40.7 157.8 42.05 157.6 44.25 155.4 44.3 153.2 44.2 152.3 43.4 L151.85 42.4 Q151.65 41.75 152.05 40.6 L152.1 38.85 Q151.65 37.7 150.2 36.95 143.35 40.8 144.0 43.2 144.3 44.3 153.2 46.7 162.15 48.9 163.45 52.4 164.5 55.35 161.55 59.25 157.4 64.5 147.85 62.6 L148.75 66.05 150.35 67.15 159.1 68.3 159.3 68.45 161.2 66.75 Q162.95 64.35 166.1 64.25 169.2 64.05 170.1 66.6 171.35 70.1 166.7 72.4 L163.75 73.6 164.45 75.3 Q165.6 79.2 165.25 82.35 164.3 88.8 156.7 88.6 154.4 88.55 153.45 87.35 153.0 86.85 152.8 85.9 152.3 84.15 154.25 82.5 L159.1 78.15 158.2 75.2 158.0 75.2 155.5 75.8 Q146.75 77.75 143.8 79.3 138.45 81.55 139.25 85.35 139.65 87.25 143.15 91.45 146.75 95.7 147.1 96.95 147.6 99.5 144.3 103.3 139.35 108.65 129.4 108.55 L124.75 107.7 Q119.65 113.5 117.55 117.95 113.0 126.8 98.85 129.85 L83.95 131.15 Q78.45 131.0 77.5 128.55 L77.6 125.9 Q77.7 122.95 78.85 122.0 80.9 120.05 86.6 122.4 L88.65 120.85 88.6 119.0 Q88.15 117.75 86.7 117.65 81.5 117.5 76.7 120.9 71.6 124.25 67.45 124.25 61.9 124.1 61.4 119.75 L61.4 119.75 M69.55 115.3 Q74.55 113.4 79.6 111.5 L79.9 111.4 Q86.3 108.7 86.45 106.0 85.75 106.0 85.05 106.0 80.4 105.9 75.75 105.8 75.1 106.05 74.4 106.3 72.55 107.3 71.1 109.7 69.0 112.65 69.65 114.45 L69.55 115.3 Q74.55 113.4 79.6 111.5 L79.9 111.4 Q86.3 108.7 86.45 106.0 85.75 106.0 85.05 106.0 80.4 105.9 75.75 105.8 75.1 106.05 74.4 106.3 72.55 107.3 71.1 109.7 69.0 112.65 69.65 114.45 L69.55 115.3 M106.55 2.7 Q106.25 0.75 106.95 0.3 108.65 -1.05 116.4 -0.95 119.05 -0.6 119.35 0.8 119.55 2.2 118.15 2.05 115.9 1.4 114.45 1.45 111.15 1.3 110.6 2.0 L110.75 2.8 Q110.85 4.2 112.9 4.95 L116.15 5.6 Q119.45 5.95 124.85 5.75 126.85 5.8 128.85 5.9 131.1 6.4 133.6 9.65 135.6 12.25 136.05 13.95 136.55 15.85 135.8 16.6 134.3 17.75 129.7 17.95 L125.95 17.95 Q121.15 17.75 118.05 15.5 115.95 14.1 115.9 13.3 115.65 11.4 117.85 11.6 119.35 11.55 120.85 13.15 122.65 14.7 123.5 15.05 127.0 14.95 130.55 14.85 131.65 14.35 131.5 13.6 130.35 9.1 128.1 8.7 124.65 8.7 121.2 8.75 111.55 8.35 108.05 5.55 106.95 4.7 106.6 3.65 L106.55 2.7 Q106.25 0.75 106.95 0.3 108.65 -1.05 116.4 -0.95 119.05 -0.6 119.35 0.8 119.55 2.2 118.15 2.05 115.9 1.4 114.45 1.45 111.15 1.3 110.6 2.0 L110.75 2.8 Q110.85 4.2 112.9 4.95 L116.15 5.6 Q119.45 5.95 124.85 5.75 126.85 5.8 128.85 5.9 131.1 6.4 133.6 9.65 135.6 12.25 136.05 13.95 136.55 15.85 135.8 16.6 134.3 17.75 129.7 17.95 L125.95 17.95 Q121.15 17.75 118.05 15.5 115.95 14.1 115.9 13.3 115.65 11.4 117.85 11.6 119.35 11.55 120.85 13.15 122.65 14.7 123.5 15.05 127.0 14.95 130.55 14.85 131.65 14.35 131.5 13.6 130.35 9.1 128.1 8.7 124.65 8.7 121.2 8.75 111.55 8.35 108.05 5.55 106.95 4.7 106.6 3.65 L106.55 2.7 Z" ffdec:has-small-stroke="true" ffdec:original-stroke-width="0.0" fill="none" stroke="#000000" stroke-linecap="round" stroke-linejoin="round" stroke-opacity="0.0" stroke-width="1.0"/>
    </g>
    <radialGradient cx="0" cy="0" gradientTransform="matrix(0.0891, 0.0038, -0.0045, 0.1045, 75.0, 75.0)" gradientUnits="userSpaceOnUse" id="gradient0" r="819.2" spreadMethod="pad">
      <stop offset="0.0" stop-color="#ffffff"/>
      <stop offset="1.0" stop-color="#b8cfe0"/>
    </radialGradient>
    <radialGradient cx="0" cy="0" gradientTransform="matrix(0.1295, 0.0, 0.0, 0.1295, 75.0, 75.0)" gradientUnits="userSpaceOnUse" id="gradient1" r="819.2" spreadMethod="pad">
      <stop offset="0.0" stop-color="#7ba6c3" stop-opacity="0.70980394"/>
      <stop offset="1.0" stop-color="#7ba6c3" stop-opacity="0.70980394"/>
    </radialGradient>
  </defs>
</svg>
