<?xml version="1.0" encoding="UTF-8" standalone="no"?>
<svg xmlns:ffdec="https://www.free-decompiler.com/flash" xmlns:xlink="http://www.w3.org/1999/xlink" ffdec:objectType="frame" height="16.1px" width="147.8px" xmlns="http://www.w3.org/2000/svg">
  <g transform="matrix(1.0, 0.0, 0.0, 1.0, -2.45, -8.05)">
    <use ffdec:characterId="20" height="15.6" transform="matrix(1.0, 0.0, 0.0, 1.0, 135.55, 8.3)" width="14.7" xlink:href="#text0"/>
    <use ffdec:characterId="21" height="15.6" transform="matrix(1.0, 0.0, 0.0, 1.0, 119.65, 8.3)" width="24.25" xlink:href="#text1"/>
    <use ffdec:characterId="22" height="15.6" transform="matrix(1.0, 0.0, 0.0, 1.0, 104.85, 8.3)" width="24.25" xlink:href="#text2"/>
    <use ffdec:characterId="23" height="15.6" transform="matrix(1.0, 0.0, 0.0, 1.0, 88.2, 8.3)" width="26.1" xlink:href="#text3"/>
    <use ffdec:characterId="24" height="15.6" transform="matrix(1.0, 0.0, 0.0, 1.0, 68.2, 8.3)" width="21.8" xlink:href="#text4"/>
    <use ffdec:characterId="25" height="15.6" transform="matrix(1.0, 0.0, 0.0, 1.0, 52.35, 8.3)" width="23.95" xlink:href="#text5"/>
    <use ffdec:characterId="26" height="15.6" transform="matrix(1.0, 0.0, 0.0, 1.0, 37.7, 8.3)" width="22.75" xlink:href="#text6"/>
    <use ffdec:characterId="27" height="16.1" transform="matrix(1.0, 0.0, 0.0, 1.0, 15.9, 8.05)" width="24.5" xlink:href="#text7"/>
    <use ffdec:characterId="26" height="15.6" transform="matrix(1.0, 0.0, 0.0, 1.0, 2.45, 8.3)" width="22.75" xlink:href="#text6"/>
  </g>
  <defs>
    <g id="text0" transform="matrix(1.0, 0.0, 0.0, 1.0, -1.15, -6.3)">
      <g transform="matrix(1.0, 0.0, 0.0, 1.0, 0.0, 0.0)">
        <use fill="#000000" height="15.6" transform="matrix(0.0186, 0.0, 0.0, 0.0186, 0.0, 21.0)" width="14.7" xlink:href="#font_Arial_Black__0"/>
      </g>
    </g>
    <g id="font_Arial_Black__0">
      <path d="M69.5 -179.5 L69.5 0.0 272.5 0.0 272.5 -179.5 69.5 -179.5 M62.0 -733.0 L62.0 -566.0 103.0 -230.5 237.5 -230.5 279.5 -566.0 279.5 -733.0 62.0 -733.0" fill-rule="evenodd" stroke="none"/>
    </g>
    <g id="text1" transform="matrix(1.0, 0.0, 0.0, 1.0, -0.05, -6.3)">
      <g transform="matrix(1.0, 0.0, 0.0, 1.0, 0.0, 0.0)">
        <use fill="#000000" height="15.6" transform="matrix(0.0186, 0.0, 0.0, 0.0186, 0.0, 21.0)" width="24.25" xlink:href="#font_Arial_Black_X0"/>
      </g>
    </g>
    <g id="font_Arial_Black_X0">
      <path d="M25.0 -733.0 L255.0 -382.0 2.0 0.0 255.0 0.0 400.0 -235.5 544.5 0.0 799.0 0.0 549.5 -378.0 777.5 -733.0 530.5 -733.0 404.5 -507.5 274.5 -733.0 25.0 -733.0" fill-rule="evenodd" stroke="none"/>
    </g>
    <g id="text2" transform="matrix(1.0, 0.0, 0.0, 1.0, -0.05, -6.3)">
      <g transform="matrix(1.0, 0.0, 0.0, 1.0, 0.0, 0.0)">
        <use fill="#000000" height="15.6" transform="matrix(0.0186, 0.0, 0.0, 0.0186, 0.0, 21.0)" width="24.25" xlink:href="#font_Arial_Black_A0"/>
      </g>
    </g>
    <g id="font_Arial_Black_A0">
      <path d="M478.5 -279.5 L317.5 -279.5 398.0 -543.0 478.5 -279.5 M525.5 -121.0 L562.5 0.0 799.5 0.0 524.0 -733.0 277.0 -733.0 1.5 0.0 233.0 0.0 268.5 -121.0 525.5 -121.0" fill-rule="evenodd" stroke="none"/>
    </g>
    <g id="text3" transform="matrix(1.0, 0.0, 0.0, 1.0, -1.35, -6.3)">
      <g transform="matrix(1.0, 0.0, 0.0, 1.0, 0.0, 0.0)">
        <use fill="#000000" height="15.6" transform="matrix(0.0186, 0.0, 0.0, 0.0186, 0.0, 21.0)" width="26.1" xlink:href="#font_Arial_Black_M0"/>
      </g>
    </g>
    <g id="font_Arial_Black_M0">
      <path d="M72.5 -733.0 L72.5 0.0 258.0 0.0 258.0 -559.0 400.5 0.0 568.5 0.0 711.5 -559.0 711.5 0.0 897.0 0.0 897.0 -733.0 599.5 -733.0 485.5 -287.0 370.5 -733.0 72.5 -733.0" fill-rule="evenodd" stroke="none"/>
    </g>
    <g id="text4" transform="matrix(1.0, 0.0, 0.0, 1.0, -1.4, -6.3)">
      <g transform="matrix(1.0, 0.0, 0.0, 1.0, 0.0, 0.0)">
        <use fill="#000000" height="15.6" transform="matrix(0.0186, 0.0, 0.0, 0.0186, 0.0, 21.0)" width="21.8" xlink:href="#font_Arial_Black_E0"/>
      </g>
    </g>
    <g id="font_Arial_Black_E0">
      <path d="M74.5 -733.0 L74.5 0.0 692.5 0.0 692.5 -166.0 301.5 -166.0 301.5 -310.5 654.0 -310.5 654.0 -460.0 301.5 -460.0 301.5 -576.5 681.5 -576.5 681.5 -733.0 74.5 -733.0" fill-rule="evenodd" stroke="none"/>
    </g>
    <g id="text5" transform="matrix(1.0, 0.0, 0.0, 1.0, -1.4, -6.3)">
      <g transform="matrix(1.0, 0.0, 0.0, 1.0, 0.0, 0.0)">
        <use fill="#000000" height="15.6" transform="matrix(0.0186, 0.0, 0.0, 0.0186, 0.0, 21.0)" width="23.95" xlink:href="#font_Arial_Black_H0"/>
      </g>
    </g>
    <g id="font_Arial_Black_H0">
      <path d="M76.0 -733.0 L76.0 0.0 302.5 0.0 302.5 -296.5 550.0 -296.5 550.0 0.0 777.5 0.0 777.5 -733.0 550.0 -733.0 550.0 -476.5 302.5 -476.5 302.5 -733.0 76.0 -733.0" fill-rule="evenodd" stroke="none"/>
    </g>
    <g id="text6" transform="matrix(1.0, 0.0, 0.0, 1.0, -0.45, -6.3)">
      <g transform="matrix(1.0, 0.0, 0.0, 1.0, 0.0, 0.0)">
        <use fill="#000000" height="15.6" transform="matrix(0.0186, 0.0, 0.0, 0.0186, 0.0, 21.0)" width="22.75" xlink:href="#font_Arial_Black_T0"/>
      </g>
    </g>
    <g id="font_Arial_Black_T0">
      <path d="M23.5 -733.0 L23.5 -552.0 254.5 -552.0 254.5 0.0 481.0 0.0 481.0 -552.0 712.0 -552.0 712.0 -733.0 23.5 -733.0" fill-rule="evenodd" stroke="none"/>
    </g>
    <g id="text7" transform="matrix(1.0, 0.0, 0.0, 1.0, -0.85, -6.05)">
      <g transform="matrix(1.0, 0.0, 0.0, 1.0, 0.0, 0.0)">
        <use fill="#000000" height="16.1" transform="matrix(0.0186, 0.0, 0.0, 0.0186, 0.0, 21.0)" width="24.5" xlink:href="#font_Arial_Black_O0"/>
      </g>
    </g>
    <g id="font_Arial_Black_O0">
      <path d="M273.0 -365.0 L273.0 -365.0 Q273.0 -477.0 314.5 -525.5 356.0 -574.0 424.5 -574.0 496.0 -574.0 538.0 -526.0 579.5 -478.5 579.5 -375.0 579.5 -252.0 539.5 -204.5 499.5 -157.0 426.5 -157.0 355.5 -157.0 314.5 -205.5 273.0 -254.0 273.0 -365.0 M46.5 -366.0 L46.5 -366.0 Q46.5 -237.5 97.0 -152.0 147.5 -66.5 229.0 -27.0 310.0 12.5 434.0 12.5 556.0 12.5 638.0 -33.0 719.5 -79.0 763.0 -161.0 806.0 -243.5 806.0 -372.0 806.0 -549.0 707.0 -647.0 608.0 -745.5 425.0 -745.5 246.5 -745.5 146.5 -645.5 46.5 -545.5 46.5 -366.0" fill-rule="evenodd" stroke="none"/>
    </g>
  </defs>
</svg>
