<?xml version="1.0" encoding="UTF-8" standalone="no"?>
<svg xmlns:ffdec="https://www.free-decompiler.com/flash" xmlns:xlink="http://www.w3.org/1999/xlink" ffdec:objectType="frame" height="450.05px" width="910.2px" xmlns="http://www.w3.org/2000/svg">
  <g transform="matrix(1.0, 0.0, 0.0, 1.0, 119.2, 1.0)">
    <use ffdec:characterId="921" height="22.0" id="container" transform="matrix(1.0, 0.0, 0.0, 1.0, -1.35, 2.0)" width="22.0" xlink:href="#sprite0"/>
    <filter id="filter0">
      <feColorMatrix in="SourceGraphic" result="filterResult0" type="matrix" values="0 0 0 0 0.99607843,0 0 0 0 0.79607844,0 0 0 0 0.0,0 0 0 1 0"/>
      <feConvolveMatrix divisor="100.0" in="filterResult0" kernelMatrix="1 1 1 1 1 1 1 1 1 1 1 1 1 1 1 1 1 1 1 1 1 1 1 1 1 1 1 1 1 1 1 1 1 1 1 1 1 1 1 1 1 1 1 1 1 1 1 1 1 1 1 1 1 1 1 1 1 1 1 1 1 1 1 1 1 1 1 1 1 1 1 1 1 1 1 1 1 1 1 1 1 1 1 1 1 1 1 1 1 1 1 1 1 1 1 1 1 1 1 1" order="10 10" result="filterResult1"/>
      <feComposite in="SourceGraphic" in2="filterResult1" operator="over" result="filterResult2"/>
    </filter>
    <use ffdec:characterId="106" filter="url(#filter0)" height="107.95" transform="matrix(1.0, 0.0, 0.0, 1.0, 120.5, 24.7)" width="454.1" xlink:href="#sprite1"/>
    <use ffdec:characterId="921" height="22.0" id="mfContainer" transform="matrix(1.0, 0.0, 0.0, 1.0, 0.0, 0.0)" width="22.0" xlink:href="#sprite0"/>
    <use ffdec:characterId="1097" ffdec:characterName="Army_fla.Menu_DeleteConfirm_204" height="182.3" id="confirmDelMC" transform="matrix(1.0, 0.0, 0.0, 1.0, 173.45, 90.8)" width="381.9" xlink:href="#sprite2"/>
    <use ffdec:characterId="1098" height="401.0" transform="matrix(1.0, 0.0, 0.0, 1.0, -0.5, -0.5)" width="701.0" xlink:href="#shape2"/>
  </g>
  <defs>
    <g id="sprite0" transform="matrix(1.0, 0.0, 0.0, 1.0, 0.0, 0.0)">
      <use ffdec:characterId="145" height="22.0" transform="matrix(1.0, 0.0, 0.0, 1.0, 0.0, 0.0)" width="22.0" xlink:href="#shape0"/>
    </g>
    <g id="shape0" transform="matrix(1.0, 0.0, 0.0, 1.0, 0.0, 0.0)">
      <path d="M22.0 0.0 L22.0 22.0 0.0 22.0 0.0 0.0 22.0 0.0" fill="#00ff00" fill-opacity="0.0" fill-rule="evenodd" stroke="none"/>
    </g>
    <g id="sprite1" transform="matrix(1.0, 0.0, 0.0, 1.0, 0.0, -5.7)">
      <use ffdec:characterId="105" height="107.95" transform="matrix(1.0, 0.0, 0.0, 1.0, 0.0, 5.7)" width="454.1" xlink:href="#shape1"/>
    </g>
    <g id="shape1" transform="matrix(1.0, 0.0, 0.0, 1.0, 0.0, -5.7)">
      <path d="M412.1 113.6 Q411.55 113.5 410.65 112.45 408.4 109.75 403.65 101.1 397.15 89.2 397.15 88.5 L397.2 87.65 397.4 87.3 398.25 87.6 Q399.15 87.05 401.7 86.35 L410.65 83.95 Q423.65 80.0 423.65 74.0 423.65 71.95 412.4 59.9 401.15 47.8 401.15 45.15 L401.2 43.65 401.15 43.4 Q401.15 39.0 406.95 32.5 411.6 27.3 418.15 22.5 425.2 16.75 430.1 13.15 439.15 6.5 444.25 5.7 L444.5 5.8 444.6 6.55 445.5 6.7 Q446.45 10.8 449.5 18.65 452.35 25.9 453.6 29.85 L451.4 28.55 447.85 20.0 443.35 8.75 439.95 15.45 435.9 22.95 435.65 22.9 Q434.7 22.85 433.7 24.2 L433.2 25.0 433.2 25.15 433.15 24.4 Q433.15 23.9 433.3 23.55 L433.15 23.5 434.6 20.7 437.0 15.7 Q437.35 14.55 440.1 10.45 L440.35 9.7 439.85 10.05 434.45 13.8 Q422.95 21.8 419.05 24.9 411.15 31.05 407.9 35.0 406.3 37.0 405.05 39.45 L414.25 38.7 Q413.05 40.4 412.75 41.9 L412.7 42.3 410.15 42.4 403.65 42.4 403.3 43.15 403.3 43.6 403.15 45.0 Q403.15 46.75 414.4 58.4 424.25 68.6 425.5 72.9 L433.55 72.0 Q434.25 71.95 435.45 72.4 L436.1 73.65 436.35 74.5 Q436.35 75.35 435.8 76.5 L433.05 76.25 Q427.9 74.9 425.5 75.65 424.55 79.85 418.85 83.35 412.35 87.3 401.85 88.75 L404.65 89.65 417.15 91.3 419.05 91.7 Q419.7 91.9 420.1 92.2 L419.9 92.45 420.65 93.2 420.15 93.95 419.65 94.15 417.6 94.15 417.65 94.0 417.65 93.9 417.8 93.8 417.7 93.8 417.5 93.75 402.65 91.55 401.85 91.4 401.5 91.3 401.75 91.85 405.15 99.0 Q408.35 105.35 411.2 109.4 L410.65 109.4 410.65 112.0 411.5 112.7 Q412.1 113.1 412.9 113.1 413.55 113.1 414.15 112.15 L414.65 112.6 414.5 113.25 Q414.25 113.55 413.65 113.6 L413.5 113.6 413.4 113.6 413.0 113.6 412.9 113.55 412.8 113.55 411.8 113.15 412.1 113.6 M453.1 79.35 Q452.7 83.05 446.0 90.3 L443.45 93.0 447.55 88.1 Q451.8 82.75 453.1 79.35 M429.15 41.55 Q426.65 43.5 426.65 45.0 L426.7 45.35 420.2 44.45 Q416.9 43.8 415.4 43.1 L415.0 42.55 414.95 42.5 416.35 40.5 416.45 40.4 416.55 40.25 416.9 39.85 422.65 40.15 429.15 41.55 M449.5 74.25 Q451.1 76.95 451.1 78.5 L451.1 78.7 448.7 77.75 445.1 76.25 441.35 75.25 Q439.65 74.9 438.65 74.35 L438.6 74.35 Q438.6 73.65 438.05 72.5 443.8 72.3 448.25 73.8 L449.5 74.25 M350.3 87.4 L352.4 87.55 Q357.0 87.55 358.1 84.9 L359.5 78.3 Q359.95 76.5 360.25 72.95 L360.5 68.85 Q360.0 61.85 360.0 58.2 L359.75 53.0 359.5 48.05 359.75 42.55 360.0 35.65 360.0 23.7 360.05 14.8 Q360.15 11.0 360.5 9.2 L360.5 9.0 Q360.5 8.2 360.85 7.95 L361.0 7.7 361.1 7.85 363.8 7.75 Q377.55 8.2 386.05 8.15 L386.25 8.35 386.4 8.7 Q385.3 9.05 384.95 10.55 L382.4 10.7 377.0 10.8 368.5 10.3 368.2 10.25 365.6 10.2 Q362.8 10.05 362.75 10.2 L362.05 10.3 361.85 10.25 361.8 10.25 Q362.35 13.2 362.5 18.4 L362.5 26.2 362.25 30.9 362.0 37.35 361.75 42.55 361.5 47.9 Q361.5 48.45 361.85 49.35 361.5 50.05 361.5 50.45 L362.0 54.05 362.05 54.15 362.0 54.5 Q361.9 55.8 362.2 58.05 L362.5 60.85 Q362.5 71.3 362.0 75.95 L361.25 81.3 Q364.25 81.8 369.15 85.0 L372.2 87.15 371.85 92.6 Q369.4 91.6 365.85 88.45 362.65 85.55 360.85 83.25 360.2 86.05 359.45 87.2 358.05 89.35 353.7 89.65 L352.3 89.7 351.05 88.3 350.3 87.4 M351.0 113.3 L338.2 111.85 331.5 109.6 Q329.6 108.9 327.45 107.35 325.25 105.65 324.8 104.55 L322.2 98.85 Q320.55 95.2 320.0 93.35 318.65 89.1 318.35 82.25 L318.0 70.8 Q316.5 48.1 316.5 25.65 L316.45 22.05 Q316.4 19.0 316.5 17.2 L316.35 13.25 Q316.35 11.5 316.8 10.6 L316.3 10.6 316.15 10.45 Q316.0 10.25 316.0 9.55 316.0 8.4 317.7 8.2 L321.1 8.2 332.1 8.6 339.75 8.9 339.9 8.7 Q341.05 9.65 342.75 9.65 L342.95 9.65 343.0 10.2 343.0 10.25 342.1 10.0 Q340.8 10.15 340.3 12.65 L340.0 12.35 340.0 12.3 340.25 11.7 340.4 11.55 339.95 10.05 339.0 10.5 338.45 10.7 337.85 10.8 337.8 10.85 334.25 11.05 326.6 10.75 321.25 10.6 318.25 10.55 317.95 10.55 317.95 10.65 Q318.85 12.9 319.0 15.95 L319.0 22.5 318.7 29.1 Q318.4 33.3 318.5 35.65 L319.1 48.75 Q319.5 56.75 319.5 61.85 319.5 71.55 319.65 74.95 319.9 82.35 321.0 88.1 321.45 90.5 322.55 93.55 L324.65 91.7 Q328.1 88.65 330.55 87.05 L330.6 87.4 330.9 89.9 331.25 91.1 Q328.55 93.25 323.65 96.3 L325.75 101.15 Q326.7 103.3 327.55 104.25 328.9 105.85 331.5 107.2 L332.9 108.0 337.3 109.35 Q342.65 110.6 351.0 111.1 L351.0 113.3 M386.6 47.6 L386.65 47.85 386.9 51.7 386.85 54.4 386.6 47.6 M383.4 97.7 L381.95 101.25 380.8 100.25 377.05 97.0 374.6 94.65 375.05 92.05 375.25 90.85 Q377.2 91.7 383.4 97.7 M340.85 47.85 L341.0 58.2 341.05 62.6 341.05 63.4 341.0 62.35 Q340.85 57.2 340.85 47.85 M341.5 76.8 L341.7 78.6 342.0 82.4 342.0 82.45 342.1 82.65 338.5 85.15 Q335.15 87.3 333.35 88.0 L333.0 86.7 332.65 84.8 332.75 84.75 Q335.9 83.05 337.05 81.95 339.3 79.75 341.15 79.65 L341.5 79.65 341.55 80.1 Q341.4 78.55 341.5 76.8 M273.95 112.0 L273.9 112.0 273.15 110.15 272.95 110.15 272.9 109.35 272.95 109.3 Q272.65 108.05 272.7 106.55 L272.5 100.9 Q272.2 98.85 272.25 95.3 L272.15 89.7 271.35 78.6 Q270.9 72.05 270.9 67.35 270.85 55.6 269.8 42.8 268.85 30.95 268.95 22.35 269.05 14.0 269.65 10.3 L269.95 8.75 270.45 7.55 270.65 7.35 271.25 7.85 295.75 8.15 295.95 8.35 296.1 8.75 295.6 9.85 295.6 9.9 295.1 9.65 294.2 10.35 294.0 10.4 280.35 11.0 276.2 10.85 Q274.9 10.35 273.1 11.15 273.05 14.35 277.35 18.7 L281.1 21.9 280.95 22.95 280.2 22.95 Q279.25 22.95 277.3 20.1 L274.95 16.6 271.75 13.2 271.4 12.45 271.25 13.3 271.05 14.7 271.0 22.1 Q270.9 27.7 272.85 62.05 L275.0 100.7 274.95 107.15 279.65 103.1 283.15 99.65 284.1 98.8 Q284.25 97.95 284.8 97.4 L285.05 97.2 285.0 100.0 286.25 100.25 286.3 100.25 285.85 100.6 281.05 104.85 274.9 110.1 274.9 110.65 Q273.9 110.85 273.9 111.5 L273.95 112.0 M297.3 107.65 L297.25 107.9 297.25 108.35 Q295.45 107.1 292.5 104.15 287.55 99.25 287.55 98.55 L287.55 98.5 287.55 98.3 287.55 98.05 287.6 97.8 287.8 97.8 Q288.75 97.8 294.1 103.9 L297.3 107.65 M261.85 61.35 L261.65 61.05 260.9 60.9 259.95 61.3 Q259.05 61.15 258.1 60.65 L255.5 59.4 253.0 58.4 246.5 57.45 Q244.95 57.25 243.2 55.9 L242.05 54.75 241.4 55.15 Q240.3 53.9 239.0 54.2 L239.4 56.7 239.1 57.0 238.45 57.85 237.0 60.9 236.2 62.2 236.25 62.5 234.2 66.15 Q233.1 67.6 230.4 72.8 L228.3 76.35 227.45 77.5 226.8 77.85 227.15 78.3 227.55 78.8 227.6 78.95 227.95 79.55 228.1 79.8 Q229.9 83.2 231.35 90.75 L231.55 91.7 231.55 91.75 Q230.95 92.3 229.6 92.3 228.45 92.3 227.35 91.0 L227.65 91.2 227.6 91.05 227.55 90.95 227.55 90.9 227.35 90.6 226.3 88.25 225.6 86.55 Q223.1 80.05 223.1 78.4 L223.2 77.65 223.75 77.8 224.25 77.75 224.6 77.85 225.05 77.9 225.1 77.9 Q225.9 77.9 226.25 77.55 L226.6 76.9 225.65 76.05 225.9 75.6 Q226.8 73.65 228.85 70.25 L233.2 62.9 Q235.6 57.7 237.0 55.45 L238.2 53.5 239.45 51.7 Q240.55 51.45 241.7 52.1 L242.3 52.5 251.45 55.5 Q260.55 58.65 262.55 60.05 L262.9 60.3 262.5 61.05 261.85 61.35 M227.65 91.2 L227.7 91.25 228.4 91.7 227.65 91.2 M249.5 89.8 L249.5 89.9 249.4 90.3 249.35 90.15 249.45 89.9 249.5 89.8 M202.9 90.8 L202.5 90.5 200.0 88.45 Q200.75 88.65 201.3 89.15 L202.9 90.8 M191.55 81.3 L189.55 79.0 189.85 79.35 189.95 79.45 190.1 79.65 191.55 81.3 M181.2 65.15 Q180.7 63.6 180.7 62.25 180.7 61.65 181.25 60.75 L181.2 60.15 Q181.2 55.55 189.7 44.25 196.75 34.9 201.15 31.0 211.25 20.95 216.1 16.6 L218.5 14.55 Q224.45 9.65 230.1 7.85 L231.5 7.45 231.8 7.35 Q232.0 6.75 232.6 6.5 L232.85 7.15 233.1 7.75 241.0 27.45 241.2 27.45 241.35 27.65 241.5 28.6 241.5 28.7 242.0 29.95 241.85 30.55 241.2 30.9 241.5 29.95 241.45 29.35 241.45 29.5 241.35 29.75 240.5 29.95 239.0 29.7 238.35 29.6 238.45 29.45 238.6 28.45 238.35 27.05 238.5 27.1 238.5 27.0 235.6 19.75 232.2 10.4 229.4 16.4 225.85 23.6 225.5 23.7 224.25 24.2 224.45 24.2 Q223.65 24.2 222.85 24.55 223.25 23.05 224.4 20.75 L226.75 15.95 228.7 10.75 225.25 13.1 Q220.9 16.1 218.5 17.9 L216.0 19.95 209.0 26.45 Q204.65 30.35 202.65 32.75 L190.95 46.5 Q184.95 54.25 183.45 60.25 L183.8 60.8 Q185.8 60.0 190.2 60.0 L191.85 60.2 Q191.7 60.55 191.7 61.0 L191.7 61.2 191.65 61.7 192.0 62.3 192.5 63.35 191.7 63.85 183.95 63.85 184.0 65.1 Q182.85 63.55 181.45 63.5 181.25 64.05 181.2 65.15 M228.8 94.9 L228.7 95.1 228.6 94.8 228.65 94.75 228.8 94.9 M208.65 56.4 Q209.15 57.2 209.15 58.8 L208.85 59.75 208.7 59.9 208.55 59.75 208.25 59.4 207.8 59.55 202.7 60.6 202.5 60.55 Q201.7 60.55 199.85 61.4 L198.95 61.65 195.3 62.4 195.15 62.3 195.15 62.05 Q195.15 60.55 194.25 59.95 L193.9 60.1 194.5 59.8 199.8 58.2 Q205.65 56.75 208.15 56.9 L208.15 56.7 208.65 56.5 208.65 56.4 M107.9 66.5 Q107.4 64.95 107.4 63.6 107.4 63.0 107.95 62.1 L107.9 61.5 107.95 60.75 108.0 60.45 108.0 58.45 Q108.8 53.7 116.4 43.6 123.45 34.25 127.85 30.35 137.95 20.3 142.8 15.95 150.05 9.35 156.8 7.2 L158.2 6.8 Q158.3 6.7 158.5 6.7 158.7 6.1 159.3 5.85 L159.55 6.5 159.8 7.1 167.7 26.8 167.9 26.8 168.05 27.0 168.2 27.95 168.2 28.05 168.7 29.3 168.55 29.9 Q168.35 30.15 167.9 30.25 L168.2 29.3 168.15 28.7 168.15 28.85 168.05 29.1 167.2 29.3 165.7 29.05 165.05 28.95 165.15 28.8 165.3 27.8 165.05 26.4 165.2 26.45 165.2 26.35 162.3 19.1 158.9 9.75 156.1 15.75 152.55 22.95 152.2 23.05 150.95 23.55 149.55 23.9 Q149.95 22.4 151.1 20.1 L153.45 15.3 155.4 10.1 151.95 12.45 Q144.2 17.8 142.7 19.3 L135.7 25.8 Q131.35 29.7 129.35 32.1 L117.65 45.85 Q111.65 53.6 110.15 59.6 L110.5 60.15 Q112.5 59.35 116.9 59.35 L118.55 59.55 Q118.4 59.9 118.4 60.35 L118.4 60.5 Q118.4 61.3 119.2 62.7 L118.4 63.2 110.65 63.2 110.7 64.45 Q109.55 62.9 108.15 62.85 L108.0 63.45 108.0 64.8 108.0 65.45 107.95 65.85 107.9 66.5 M148.6 75.75 L149.0 75.9 156.9 79.6 157.0 79.7 157.1 79.75 157.35 79.85 157.4 79.85 Q159.0 80.25 161.5 81.95 163.95 83.65 166.2 84.1 169.6 84.85 172.3 86.0 174.3 86.9 175.45 87.85 L175.5 87.9 175.7 88.05 175.7 88.6 175.5 88.85 173.9 89.5 169.65 90.65 163.3 92.1 Q158.5 92.45 157.95 93.85 L157.95 93.95 Q157.4 93.6 156.8 93.6 L156.05 93.9 155.85 94.05 155.75 94.1 155.4 94.45 155.3 94.15 155.85 93.85 155.95 93.65 155.95 93.6 Q156.6 93.55 156.75 92.95 L156.8 92.25 156.85 92.2 Q158.95 90.2 165.4 88.95 L170.15 88.15 166.55 86.55 157.3 82.1 Q155.35 81.2 148.0 78.75 144.65 77.5 142.7 76.35 144.55 75.2 148.4 75.65 L148.6 75.75 M176.2 88.85 L176.2 89.25 176.1 89.65 175.95 89.4 175.9 89.4 175.95 89.35 176.2 88.85 M129.6 90.15 L129.2 89.85 126.7 87.8 Q127.45 88.0 128.0 88.5 L129.6 90.15 M118.25 80.65 L116.25 78.35 116.55 78.7 116.65 78.8 116.8 79.0 118.25 80.65 M141.3 73.05 L140.35 73.0 140.35 73.5 140.35 75.15 140.1 75.2 Q139.6 75.2 135.4 73.05 L129.7 69.95 Q128.3 69.05 125.65 67.9 123.15 65.25 121.9 63.4 L122.0 63.0 123.25 63.05 125.4 63.1 130.45 65.95 Q133.05 68.15 136.4 70.2 L141.3 73.05 M121.75 57.45 L122.2 56.8 Q122.35 56.65 122.55 56.6 L122.1 57.05 121.75 57.45 M161.05 56.4 Q159.6 58.4 158.95 59.85 L157.7 59.9 158.6 58.75 Q159.8 57.35 161.05 56.4 M235.9 83.3 L235.05 84.95 234.7 84.75 235.2 83.95 235.65 83.15 235.9 83.3 M73.25 112.0 L73.2 112.0 72.45 110.15 72.25 110.15 72.2 109.35 72.25 109.3 Q71.95 108.05 72.0 106.55 L71.8 100.9 Q71.5 98.85 71.55 95.3 L71.45 89.7 70.65 78.6 Q70.2 72.05 70.2 67.35 70.15 55.6 69.1 42.8 68.15 30.95 68.25 22.35 68.35 14.0 68.95 10.3 L69.25 8.75 69.75 7.55 69.95 7.35 70.55 7.85 95.05 8.15 95.25 8.35 95.4 8.75 Q95.1 9.1 94.9 9.85 L94.9 9.9 94.4 9.65 93.5 10.35 93.3 10.4 79.65 11.0 75.5 10.85 Q74.2 10.35 72.4 11.15 72.35 14.35 76.65 18.7 L80.4 21.9 80.25 22.95 79.5 22.95 Q78.55 22.95 76.6 20.1 L74.25 16.6 71.05 13.2 Q70.8 12.9 70.7 12.45 L70.55 13.3 70.35 14.7 70.3 22.1 Q70.2 27.7 72.15 62.05 L74.3 100.7 74.25 107.15 78.95 103.1 82.45 99.65 83.4 98.8 Q83.55 97.95 84.1 97.4 L84.35 97.2 84.3 100.0 85.55 100.25 85.6 100.25 85.15 100.6 80.35 104.85 74.2 110.1 74.2 110.65 Q73.2 110.85 73.2 111.5 L73.25 112.0 M96.6 107.65 L96.55 107.9 96.55 108.35 91.8 104.15 Q86.85 99.25 86.85 98.55 L86.85 98.5 86.85 98.3 86.85 98.05 86.9 97.8 87.1 97.8 Q88.05 97.8 93.4 103.9 L96.6 107.65 M14.95 113.65 Q14.4 113.55 13.5 112.5 11.25 109.8 6.5 101.15 0.0 89.25 0.0 88.55 L0.05 87.7 0.25 87.35 1.1 87.65 Q2.0 87.1 4.55 86.4 L13.5 84.0 Q26.5 80.05 26.5 74.05 26.5 72.0 15.25 59.95 4.0 47.85 4.0 45.2 L4.05 43.7 4.0 43.45 Q4.0 39.05 9.8 32.55 14.45 27.35 21.0 22.55 28.05 16.8 32.95 13.2 42.0 6.55 47.1 5.75 L47.35 5.85 47.45 6.6 48.35 6.75 Q49.3 10.85 52.35 18.7 55.2 25.95 56.45 29.9 L54.25 28.6 50.7 20.05 46.2 8.8 42.8 15.5 38.75 23.0 38.5 22.95 Q37.55 22.9 36.55 24.25 L36.05 25.05 36.05 25.2 36.0 24.45 Q36.0 23.95 36.15 23.6 L36.0 23.55 37.45 20.75 39.85 15.75 Q40.2 14.6 42.95 10.5 L43.2 9.75 42.7 10.1 37.3 13.85 Q25.8 21.85 21.9 24.95 14.0 31.1 10.75 35.05 9.15 37.05 7.9 39.5 L17.1 38.75 Q15.9 40.45 15.6 41.95 L15.55 42.35 13.0 42.45 6.5 42.45 6.15 43.2 6.15 43.65 6.0 45.05 Q6.0 46.8 17.25 58.45 27.1 68.65 28.35 72.95 L36.4 72.05 Q37.1 72.0 38.3 72.45 L38.95 73.7 39.2 74.55 Q39.2 75.4 38.65 76.55 L35.9 76.3 Q30.75 74.95 28.35 75.7 27.4 79.9 21.7 83.4 15.2 87.35 4.7 88.8 L7.5 89.7 20.0 91.35 21.9 91.75 22.95 92.25 22.75 92.5 23.5 93.25 23.0 94.0 22.5 94.2 20.45 94.2 20.5 94.05 20.5 93.95 20.65 93.85 20.55 93.85 20.35 93.8 5.5 91.6 4.7 91.45 4.35 91.35 4.6 91.9 8.0 99.05 Q11.2 105.4 14.05 109.45 L13.5 109.45 13.5 112.05 14.35 112.75 Q14.95 113.15 15.75 113.15 16.4 113.15 17.0 112.2 L17.5 112.65 17.35 113.3 16.5 113.65 16.35 113.65 16.25 113.65 15.85 113.65 15.75 113.6 15.65 113.6 14.65 113.2 14.95 113.65 M55.95 79.4 Q55.55 83.1 48.85 90.35 L46.3 93.05 50.4 88.15 Q54.65 82.8 55.95 79.4 M32.0 41.6 Q29.5 43.55 29.5 45.05 L29.55 45.4 23.05 44.5 Q19.75 43.85 18.25 43.15 L17.85 42.6 17.8 42.55 19.2 40.55 19.3 40.45 19.4 40.3 19.75 39.9 25.5 40.2 32.0 41.6 M52.35 74.3 Q53.95 77.0 53.95 78.55 L53.95 78.75 51.55 77.8 47.95 76.3 44.2 75.3 Q42.5 74.95 41.5 74.4 L41.45 74.4 Q41.45 73.7 40.9 72.55 46.65 72.35 51.1 73.85 L52.35 74.3" fill="#ff9900" fill-rule="evenodd" stroke="none"/>
      <path d="M451.4 28.55 L451.85 29.5 Q449.45 28.3 444.55 27.05 L437.6 25.2 437.5 25.05 437.3 24.9 437.0 25.0 436.6 24.85 436.65 25.1 Q435.7 25.4 434.5 26.1 L433.25 27.1 421.4 35.0 Q419.45 36.5 416.9 39.85 L416.55 40.25 416.45 40.4 416.35 40.5 414.95 42.5 415.0 42.55 415.4 43.1 428.25 58.85 Q436.15 68.5 438.05 72.5 438.6 73.65 438.6 74.35 L438.6 74.4 Q438.6 78.05 431.65 84.95 426.05 90.5 420.95 93.65 L420.65 93.2 419.9 92.45 420.1 92.2 427.75 85.55 Q434.2 79.85 435.8 76.5 436.35 75.35 436.35 74.5 L436.1 73.65 435.45 72.4 Q434.05 70.05 430.45 65.65 L424.5 58.6 418.25 51.3 Q412.95 44.85 412.7 42.9 L412.65 42.75 412.65 42.65 412.7 42.3 412.75 41.9 Q413.05 40.4 414.25 38.7 416.45 35.6 421.6 31.75 428.2 26.8 432.25 25.55 L433.15 23.5 433.3 23.55 Q433.15 23.9 433.15 24.4 L433.2 25.15 433.2 25.0 433.7 24.2 Q434.7 22.85 435.65 22.9 L435.9 22.95 439.95 15.45 443.35 8.75 447.85 20.0 451.4 28.55 M371.85 92.6 L372.2 87.15 372.4 85.15 373.15 76.8 373.4 71.05 372.4 38.55 372.5 22.6 Q370.95 22.0 366.7 16.5 362.55 11.2 362.05 10.3 L362.75 10.2 Q362.8 10.05 365.6 10.2 L368.2 10.25 368.5 10.3 377.0 10.8 382.4 10.7 384.95 10.55 385.0 10.55 384.9 11.0 384.9 12.0 379.65 16.95 376.4 20.7 375.05 21.95 375.3 23.1 Q375.7 25.8 374.9 27.85 L375.9 72.95 375.65 79.2 375.4 88.25 375.25 90.85 375.05 92.05 374.6 94.65 374.4 95.85 Q374.3 97.6 371.95 99.2 367.35 102.35 356.0 102.35 L352.75 102.3 351.2 102.25 341.8 101.15 Q337.95 100.35 336.8 99.2 L333.0 94.35 Q331.85 92.95 331.25 91.1 L330.9 89.9 330.6 87.4 330.55 87.05 330.5 84.9 330.0 75.7 Q329.5 69.45 329.5 66.4 329.5 54.0 328.5 29.4 328.1 27.6 328.05 25.7 328.05 24.05 328.45 22.85 326.55 21.4 323.1 17.0 L322.4 16.5 321.5 15.5 321.6 15.1 318.25 10.55 321.25 10.6 326.6 10.75 334.25 11.05 337.8 10.85 337.85 10.8 338.45 10.7 339.0 10.5 339.95 10.05 340.4 11.55 340.25 11.7 340.0 12.3 340.0 12.35 330.8 22.8 Q331.7 25.95 331.7 30.6 L331.5 41.0 331.5 51.05 331.5 61.1 332.25 71.1 Q332.75 77.3 332.5 81.45 332.4 82.9 332.65 84.75 L332.65 84.8 333.0 86.7 333.35 88.0 Q334.0 90.3 335.0 91.65 336.6 93.9 339.55 96.3 341.25 97.6 346.25 98.4 L352.6 99.1 353.85 99.15 357.65 99.2 Q365.25 99.2 367.15 99.0 370.1 98.7 370.95 97.5 371.65 96.55 371.8 93.35 L371.85 92.6 M286.3 100.25 L286.25 100.25 285.0 100.0 285.05 97.2 285.2 97.1 Q284.75 95.3 284.45 91.55 L283.85 79.85 283.75 70.65 283.5 61.1 282.05 43.4 Q280.9 29.05 280.95 23.65 L280.95 22.95 281.1 21.9 277.35 18.7 Q273.05 14.35 273.1 11.15 274.9 10.35 276.2 10.85 L280.35 11.0 294.0 10.4 294.1 10.45 294.2 10.35 295.1 9.65 295.6 9.9 295.85 10.1 296.05 11.2 Q296.05 12.25 295.1 13.6 293.65 15.6 290.15 18.3 286.65 21.1 283.75 22.8 L283.45 24.25 283.9 27.05 Q284.4 29.3 284.35 30.55 L284.55 33.65 284.8 36.9 285.65 49.25 285.55 55.65 Q285.45 59.65 286.0 62.0 287.1 66.75 286.85 68.9 286.35 71.4 286.35 74.35 286.35 75.35 287.05 78.8 L287.75 82.25 287.65 89.8 287.3 97.05 287.4 97.05 287.5 97.3 287.55 97.75 287.55 97.8 287.55 98.05 287.55 98.3 287.55 98.5 287.55 98.55 287.55 98.8 287.35 99.15 286.85 99.8 286.55 100.05 286.3 100.25 M227.35 91.0 Q228.45 92.3 229.6 92.3 230.95 92.3 231.55 91.75 L231.55 91.8 231.6 91.85 231.8 91.75 Q232.75 89.35 235.05 84.95 L235.9 83.3 237.3 80.65 Q241.8 72.25 244.4 68.25 L244.45 68.15 244.5 68.2 245.05 68.5 245.25 68.6 246.05 68.85 246.1 68.85 246.65 68.9 Q245.55 71.85 241.5 79.95 L239.1 84.65 238.15 86.4 236.0 90.25 234.25 93.05 233.1 94.7 232.9 95.35 232.35 95.75 232.2 95.3 230.6 95.8 Q229.6 95.8 228.8 94.9 L228.65 94.75 228.6 94.7 228.2 94.05 Q225.65 93.15 218.5 88.05 210.6 82.4 207.0 79.1 199.4 72.0 195.6 67.55 L193.5 64.9 192.5 63.35 192.0 62.3 191.65 61.7 191.7 61.2 191.7 61.0 Q191.7 60.55 191.85 60.2 L192.05 59.6 192.5 59.0 192.7 58.6 Q192.75 55.75 199.3 48.3 200.95 46.4 207.15 40.0 L211.2 35.35 215.25 30.95 218.5 27.65 219.35 26.85 Q221.25 25.15 222.85 24.55 223.65 24.2 224.45 24.2 L224.25 24.2 225.5 23.7 225.85 23.6 229.4 16.4 232.2 10.4 235.6 19.75 238.5 27.0 238.35 27.05 238.6 28.45 238.45 29.45 238.35 29.6 232.4 28.5 223.9 27.0 223.6 27.45 222.9 27.1 218.5 31.4 212.75 36.95 Q202.4 47.6 196.75 55.7 L195.85 57.25 195.65 57.6 194.5 59.8 193.9 60.1 194.25 59.95 Q195.15 60.55 195.15 62.05 L195.15 62.3 195.15 62.4 194.1 62.25 194.65 62.35 194.8 62.6 194.8 62.65 194.8 62.7 195.8 64.25 196.15 64.75 197.65 66.8 197.55 67.05 198.95 68.55 201.35 70.95 209.4 78.2 Q211.4 80.2 214.4 82.2 L218.5 84.85 219.1 85.25 227.35 91.0 M165.05 26.4 L165.3 27.8 165.15 28.8 165.05 28.95 159.1 27.85 150.6 26.35 150.3 26.8 149.6 26.45 139.45 36.3 Q127.95 48.15 122.2 56.8 L121.75 57.45 120.85 58.9 120.65 59.25 120.65 59.35 120.6 60.35 120.6 60.5 120.7 61.0 121.5 60.7 121.65 60.7 123.0 60.5 Q127.85 60.05 141.85 60.7 L148.1 59.95 Q152.4 59.35 157.5 60.1 L157.4 60.15 157.3 61.75 157.25 62.2 156.8 62.15 152.35 61.95 149.1 62.5 145.3 63.2 Q130.35 64.5 130.35 63.2 L133.05 63.2 130.35 63.15 125.4 63.1 123.25 63.05 122.0 63.0 121.6 62.95 121.9 63.4 Q123.15 65.25 125.65 67.9 L128.05 70.3 136.1 77.55 Q138.1 79.55 141.1 81.55 144.4 83.6 145.8 84.6 154.3 90.65 156.8 92.1 L156.8 92.25 156.75 92.95 Q156.6 93.55 155.95 93.6 L155.8 93.6 Q153.95 93.6 145.2 87.4 137.3 81.75 133.7 78.45 121.85 67.35 119.2 62.7 118.4 61.3 118.4 60.5 L118.4 60.35 Q118.4 59.9 118.55 59.55 L118.75 58.95 119.4 58.15 119.4 58.0 Q119.4 55.15 126.0 47.65 L133.85 39.35 137.9 34.7 141.95 30.3 Q144.35 27.7 146.05 26.2 147.95 24.5 149.55 23.9 L150.95 23.55 152.2 23.05 152.55 22.95 156.1 15.75 158.9 9.75 162.3 19.1 165.2 26.35 165.05 26.4 M85.6 100.25 L85.55 100.25 84.3 100.0 84.35 97.2 84.5 97.1 Q84.05 95.3 83.75 91.55 L83.15 79.85 83.05 70.65 82.8 61.1 81.35 43.4 Q80.2 29.05 80.25 23.65 L80.25 22.95 80.4 21.9 76.65 18.7 Q72.35 14.35 72.4 11.15 74.2 10.35 75.5 10.85 L79.65 11.0 93.3 10.4 93.4 10.45 93.5 10.35 94.4 9.65 94.9 9.9 95.15 10.1 95.35 11.2 Q95.35 12.25 94.4 13.6 92.95 15.6 89.45 18.3 L83.05 22.8 82.75 24.25 83.2 27.05 Q83.7 29.3 83.65 30.55 L83.85 33.65 84.1 36.9 84.95 49.25 84.85 55.65 Q84.75 59.65 85.3 62.0 86.4 66.75 86.15 68.9 85.65 71.4 85.65 74.35 85.65 75.35 86.35 78.8 L87.05 82.25 86.95 89.8 86.6 97.05 86.7 97.05 86.8 97.3 86.85 97.75 86.85 97.8 86.85 98.05 86.85 98.3 86.85 98.5 86.85 98.55 86.85 98.8 86.65 99.15 86.15 99.8 85.85 100.05 85.6 100.25 M17.1 38.75 Q19.3 35.65 24.45 31.8 31.05 26.85 35.1 25.6 L36.0 23.55 36.15 23.6 Q36.0 23.95 36.0 24.45 L36.05 25.2 36.05 25.05 36.55 24.25 Q37.55 22.9 38.5 22.95 L38.75 23.0 42.8 15.5 46.2 8.8 50.7 20.05 54.25 28.6 54.7 29.55 Q52.3 28.35 47.4 27.1 L40.45 25.25 40.35 25.1 40.15 24.95 39.85 25.05 39.45 24.9 39.5 25.15 37.35 26.15 36.1 27.15 24.25 35.05 Q22.3 36.55 19.75 39.9 L19.4 40.3 19.3 40.45 19.2 40.55 17.8 42.55 17.85 42.6 18.25 43.15 31.1 58.9 Q39.0 68.55 40.9 72.55 41.45 73.7 41.45 74.4 L41.45 74.45 Q41.45 78.1 34.5 85.0 28.9 90.55 23.8 93.7 L23.5 93.25 22.75 92.5 22.95 92.25 30.6 85.6 Q37.05 79.9 38.65 76.55 39.2 75.4 39.2 74.55 L38.95 73.7 38.3 72.45 Q36.9 70.1 33.3 65.7 L27.35 58.65 21.1 51.35 Q15.8 44.9 15.55 42.95 L15.5 42.8 15.5 42.7 15.55 42.35 15.6 41.95 Q15.9 40.45 17.1 38.75" fill="#ffcc00" fill-rule="evenodd" stroke="none"/>
      <path d="M453.6 29.85 L453.75 30.3 454.1 31.4 454.0 31.65 453.6 31.85 453.6 32.1 Q453.6 32.85 447.15 35.25 439.8 37.95 438.1 39.25 436.95 40.15 435.1 41.1 L431.65 42.75 Q431.1 43.05 429.5 44.7 L429.05 45.15 429.05 45.25 Q429.25 47.0 429.65 47.75 431.15 50.4 433.4 52.2 435.55 53.9 437.55 56.55 L441.1 60.95 449.45 70.05 Q453.1 74.75 453.1 78.9 L453.1 79.35 Q451.8 82.75 447.55 88.1 L443.45 93.0 443.3 93.15 438.25 97.7 438.05 97.85 437.85 98.0 437.25 98.4 426.75 106.35 Q416.65 113.6 413.65 113.6 414.25 113.55 414.5 113.25 L414.65 112.6 414.15 112.15 Q415.15 111.1 415.8 109.55 416.4 109.1 417.15 108.75 L423.65 105.25 434.15 97.75 440.3 93.1 445.25 88.15 Q450.8 80.55 451.1 78.7 L451.1 78.5 Q451.1 76.95 449.5 74.25 446.7 69.5 438.9 61.15 426.65 48.0 426.65 45.75 L426.7 45.4 426.7 45.35 426.65 45.0 Q426.65 43.5 429.15 41.55 432.3 39.05 439.5 35.9 L450.65 31.65 Q447.95 31.1 442.25 29.15 L436.1 27.1 436.1 26.9 435.45 26.9 435.4 26.9 434.8 26.65 434.2 26.45 434.15 26.5 433.25 27.1 434.5 26.1 Q435.7 25.4 436.65 25.1 L436.6 24.85 437.0 25.0 437.3 24.9 437.5 25.05 437.6 25.2 444.55 27.05 Q449.45 28.3 451.85 29.5 L451.4 28.55 453.6 29.85 M413.0 113.6 L412.8 113.55 412.15 113.6 412.1 113.6 411.8 113.15 412.8 113.55 412.9 113.55 413.0 113.6 M420.65 93.2 L420.95 93.65 420.65 93.85 420.5 93.95 419.8 95.95 420.15 93.95 420.65 93.2 M386.4 8.7 L386.4 9.2 386.4 9.25 386.4 10.05 386.05 9.1 Q387.65 13.45 387.25 21.1 386.8 30.45 387.4 33.7 388.45 38.85 388.75 46.15 L388.9 58.7 Q388.9 63.9 388.05 72.9 387.05 83.1 386.9 87.1 L386.9 88.0 385.5 97.95 385.4 98.2 385.4 98.25 385.35 98.5 383.7 102.85 Q381.75 106.9 378.7 109.3 L378.4 109.5 Q373.0 113.5 361.4 113.5 L351.0 113.3 351.0 111.1 351.3 111.1 353.75 111.15 361.65 111.3 Q374.1 111.3 379.8 104.5 L381.95 101.25 383.4 97.7 Q384.9 92.8 384.9 86.05 384.9 81.65 385.9 72.15 386.9 62.65 386.9 58.5 L386.85 54.4 386.9 51.7 386.65 47.85 386.6 47.6 386.6 47.55 386.6 47.4 385.95 35.3 385.9 34.85 385.9 34.65 Q384.95 19.6 384.9 12.0 L384.9 11.0 385.0 10.55 384.95 10.55 Q385.3 9.05 386.4 8.7 M343.0 10.25 L342.0 23.7 342.5 27.85 343.0 33.5 342.5 43.1 342.8 52.3 343.5 66.2 343.5 74.15 Q343.4 78.85 343.75 80.95 344.7 86.55 350.3 87.4 L351.05 88.3 352.3 89.7 352.25 89.7 351.6 89.7 Q346.2 89.45 343.5 85.6 342.6 84.3 342.1 82.65 L342.0 82.45 342.0 82.4 341.7 78.6 341.5 76.8 341.5 76.65 Q341.7 73.8 341.4 69.45 L341.35 68.1 341.3 67.45 341.05 63.4 341.05 62.6 341.0 58.2 340.85 47.85 340.85 45.1 341.0 33.95 340.6 30.05 340.0 24.5 Q339.9 22.7 340.2 19.3 L340.5 15.35 340.5 12.8 340.3 12.65 Q340.8 10.15 342.1 10.0 L343.0 10.25 M412.65 110.1 L412.65 110.5 412.1 109.85 413.2 106.6 Q412.65 109.4 412.65 110.1 M273.95 112.0 L273.9 111.5 Q273.9 110.85 274.9 110.65 L275.0 110.6 276.7 110.35 288.25 110.45 294.95 110.3 295.45 110.25 297.45 109.95 297.5 109.65 Q297.25 109.1 297.25 108.35 L297.25 107.9 297.3 107.65 297.4 104.95 297.5 98.95 297.15 87.1 Q296.25 74.25 295.95 63.15 L295.4 41.45 Q294.95 21.55 295.0 15.25 L295.1 13.6 Q296.05 12.25 296.05 11.2 L295.85 10.1 295.6 9.9 295.6 9.85 296.1 8.75 296.6 8.2 Q297.7 8.95 297.55 10.25 L297.05 12.55 Q296.9 13.2 296.9 14.55 L297.0 16.65 Q296.85 27.35 298.2 61.3 299.55 95.35 299.5 100.0 L299.35 107.2 299.75 107.6 299.85 108.8 299.75 110.3 Q299.55 111.05 298.85 111.55 L298.95 112.05 288.35 112.7 274.25 112.55 274.05 112.4 273.95 112.0 M261.85 61.35 L262.5 61.05 262.9 60.3 262.55 60.05 262.85 59.55 264.35 60.5 Q263.8 63.95 256.85 76.75 L249.5 89.8 249.45 89.9 249.35 90.15 249.4 90.3 249.3 90.55 243.9 101.2 243.45 102.05 Q242.55 103.8 240.95 108.0 239.8 110.4 238.3 111.85 L238.2 111.95 238.1 112.05 Q237.6 112.5 237.1 112.65 L237.3 112.65 236.65 113.15 236.6 113.15 235.6 112.55 235.65 112.55 234.8 112.1 228.6 108.35 218.5 102.05 217.6 101.55 Q214.65 99.95 210.0 96.4 L202.9 90.8 201.3 89.15 Q200.75 88.65 200.0 88.45 L199.95 88.45 199.85 88.35 199.4 88.0 192.1 81.85 191.6 81.35 191.55 81.3 190.1 79.65 189.95 79.45 189.85 79.35 189.55 79.0 189.4 78.75 188.95 78.15 188.3 77.0 188.25 76.9 188.2 76.85 183.4 69.35 Q181.85 67.1 181.2 65.15 181.25 64.05 181.45 63.5 182.85 63.55 184.0 65.1 L184.45 66.75 Q184.85 67.65 186.75 70.25 L189.45 74.2 Q192.75 80.05 203.4 88.2 L211.65 94.6 218.5 99.5 220.6 100.75 229.85 105.8 233.15 108.05 233.45 108.6 233.7 108.65 233.55 108.35 231.6 103.6 228.6 95.9 228.7 95.1 228.8 94.9 Q229.6 95.8 230.6 95.8 L232.2 95.3 232.35 95.75 232.85 97.35 233.85 99.6 235.7 103.7 Q237.5 107.75 237.5 108.4 L237.5 108.45 237.45 108.95 237.65 108.5 241.45 100.55 Q244.05 95.25 246.5 91.55 L246.5 91.2 246.85 90.25 247.55 88.75 247.95 87.9 253.15 77.8 260.35 64.3 260.35 64.25 260.7 63.55 Q261.9 62.7 261.9 61.9 L261.85 61.35 M225.65 76.05 L226.6 76.9 226.25 77.55 Q225.9 77.9 225.1 77.9 L225.05 77.9 224.6 77.85 224.25 77.75 223.3 77.35 Q221.3 76.25 218.5 73.0 L215.35 69.0 Q211.4 63.0 208.55 59.75 L208.7 59.9 208.85 59.75 209.15 58.8 Q209.15 57.2 208.65 56.4 L208.65 55.7 211.65 52.05 211.65 51.75 212.05 51.7 212.3 51.45 212.7 51.15 214.05 49.55 218.5 45.4 219.1 44.9 226.25 39.25 Q229.55 35.6 233.55 32.75 236.3 30.75 238.5 29.9 L238.55 29.9 239.0 29.7 240.5 29.95 241.35 29.75 241.45 29.5 241.45 29.35 241.5 29.95 241.2 30.9 Q240.65 31.8 239.0 32.55 L233.85 35.0 Q232.75 35.7 230.75 37.75 L227.0 41.4 220.2 47.4 218.5 48.95 217.45 49.85 215.7 52.1 213.5 54.7 212.0 57.25 211.25 58.25 212.1 60.4 214.1 63.25 Q215.6 65.0 216.1 66.05 216.7 67.25 218.5 69.25 L220.7 71.5 225.55 75.95 225.65 76.05 M167.9 30.25 Q167.35 31.15 165.7 31.9 L160.55 34.35 Q159.45 35.05 157.45 37.1 L153.7 40.75 146.9 46.75 141.7 51.3 144.1 51.5 151.4 51.1 162.3 50.5 163.2 50.3 168.8 50.25 168.7 51.45 168.7 51.75 Q168.75 53.3 169.5 54.7 L169.5 54.75 170.2 58.85 170.2 72.7 169.8 72.9 169.2 73.2 169.05 72.95 168.9 73.15 168.85 73.15 167.7 73.85 166.35 74.1 160.4 74.45 149.8 75.3 148.1 75.5 148.6 75.75 148.4 75.65 Q144.55 75.2 142.7 76.35 L141.3 75.4 140.35 75.15 140.35 73.5 140.35 73.0 141.3 73.05 141.75 73.1 145.35 73.45 157.05 72.6 166.4 71.85 164.6 70.45 164.25 70.15 Q165.95 71.2 166.95 71.2 167.85 71.2 168.65 70.7 169.7 70.0 169.7 68.8 L169.2 66.9 Q168.7 65.65 168.7 65.1 L168.75 63.2 168.7 61.35 167.95 53.85 Q167.65 52.1 166.75 51.85 L166.7 52.1 166.8 51.5 166.0 52.05 166.3 51.8 Q165.75 51.85 165.1 52.2 L164.95 52.3 159.95 52.8 144.05 53.75 141.1 53.4 139.0 52.9 138.95 52.9 138.75 52.8 138.7 52.8 138.65 52.75 138.4 52.65 138.35 52.6 138.35 51.1 139.05 51.05 Q139.45 50.2 140.75 48.9 142.45 47.05 145.8 44.25 L152.95 38.6 Q156.25 34.95 160.25 32.1 163.0 30.1 165.2 29.25 L165.25 29.25 165.7 29.05 167.2 29.3 168.05 29.1 168.15 28.85 168.15 28.7 168.2 29.3 167.9 30.25 M175.7 88.05 L175.95 88.3 176.05 88.45 176.2 88.6 176.2 88.85 175.95 89.35 175.9 89.4 175.95 89.4 176.1 89.65 176.0 89.9 170.6 100.55 170.15 101.4 Q169.25 103.15 167.65 107.35 166.45 109.9 164.8 111.4 L164.8 111.35 Q164.8 110.55 164.0 108.55 L168.15 99.9 Q171.2 93.65 174.1 89.6 L174.15 89.55 173.9 89.5 175.5 88.85 175.7 88.6 175.7 88.05 M164.0 112.0 L163.35 112.5 163.3 112.5 162.3 111.9 162.35 111.85 Q160.8 111.2 155.3 107.7 146.95 102.35 144.3 100.9 141.35 99.3 136.7 95.75 L129.6 90.15 128.0 88.5 Q127.45 88.0 126.7 87.8 L126.65 87.8 126.55 87.7 126.1 87.35 118.8 81.2 118.3 80.7 118.25 80.65 116.8 79.0 116.65 78.8 116.55 78.7 116.25 78.35 116.1 78.1 115.65 77.5 115.0 76.35 114.95 76.25 114.9 76.2 110.1 68.7 Q108.65 66.65 108.0 64.8 L108.0 63.45 108.15 62.85 Q109.55 62.9 110.7 64.45 110.8 65.4 111.15 66.1 111.55 67.0 113.45 69.6 L116.15 73.55 Q119.45 79.4 130.1 87.55 L138.35 93.95 Q144.2 98.4 147.3 100.1 L156.55 105.15 159.85 107.4 Q162.2 111.95 164.0 112.0 M108.0 65.45 L108.0 66.8 107.95 66.65 107.9 66.5 107.95 65.85 108.0 65.45 M195.15 62.3 L195.3 62.4 195.15 62.4 195.15 62.3 M199.85 61.4 Q201.7 60.55 202.5 60.55 L202.7 60.6 202.25 60.65 199.85 61.4 M194.65 62.35 L194.1 62.25 195.15 62.4 194.65 62.35 M160.25 67.05 L158.1 65.45 157.1 64.15 160.25 67.05 M237.35 109.25 L237.15 109.6 237.4 109.45 237.35 109.25 M73.25 112.0 L73.2 111.5 Q73.2 110.85 74.2 110.65 L74.3 110.6 76.0 110.35 87.55 110.45 94.25 110.3 94.75 110.25 96.75 109.95 96.8 109.65 Q96.55 109.1 96.55 108.35 L96.55 107.9 96.6 107.65 96.7 104.95 96.8 98.95 96.45 87.1 Q95.55 74.25 95.25 63.15 L94.7 41.45 Q94.25 21.55 94.3 15.25 L94.4 13.6 Q95.35 12.25 95.35 11.2 L95.15 10.1 94.9 9.9 94.9 9.85 Q95.1 9.1 95.4 8.75 L95.9 8.2 Q97.0 8.95 96.85 10.25 L96.35 12.55 Q96.2 13.2 96.2 14.55 L96.3 16.65 Q96.15 27.35 97.5 61.3 98.85 95.35 98.8 100.0 L98.65 107.2 99.05 107.6 99.15 108.8 99.05 110.3 Q98.85 111.05 98.15 111.55 L98.25 112.05 87.65 112.7 73.55 112.55 73.35 112.4 73.25 112.0 M156.05 93.9 L156.8 93.6 Q157.4 93.6 157.95 93.95 L157.8 94.7 157.85 95.05 Q157.05 94.15 156.05 93.9 M56.45 29.9 L56.6 30.35 56.95 31.45 56.85 31.7 56.45 31.9 56.45 32.15 Q56.45 32.9 50.0 35.3 42.65 38.0 40.95 39.3 L37.95 41.15 34.5 42.8 Q33.95 43.1 32.35 44.75 L31.9 45.2 31.9 45.3 Q32.1 47.05 32.5 47.8 34.0 50.45 36.25 52.25 38.4 53.95 40.4 56.6 L43.95 61.0 52.3 70.1 Q55.95 74.8 55.95 78.95 L55.95 79.4 Q54.65 82.8 50.4 88.15 L46.3 93.05 46.15 93.2 41.1 97.75 40.9 97.9 40.7 98.05 40.1 98.45 29.6 106.4 Q19.5 113.65 16.5 113.65 L17.35 113.3 17.5 112.65 17.0 112.2 Q18.0 111.15 18.65 109.6 L18.2 109.9 20.0 108.8 26.5 105.3 37.0 97.8 43.15 93.15 48.1 88.2 Q53.65 80.6 53.95 78.75 L53.95 78.55 Q53.95 77.0 52.35 74.3 49.55 69.55 41.75 61.2 29.5 48.05 29.5 45.8 L29.55 45.45 29.55 45.4 29.5 45.05 Q29.5 43.55 32.0 41.6 35.15 39.1 42.35 35.95 L53.5 31.7 45.1 29.2 38.95 27.15 38.95 26.95 38.3 26.95 38.25 26.95 37.65 26.7 37.05 26.5 37.0 26.55 36.1 27.15 37.35 26.15 39.5 25.15 39.45 24.9 39.85 25.05 40.15 24.95 40.35 25.1 40.45 25.25 47.4 27.1 Q52.3 28.35 54.7 29.55 L54.25 28.6 56.45 29.9 M15.85 113.65 L15.65 113.6 15.0 113.65 14.95 113.65 14.65 113.2 15.65 113.6 15.75 113.6 15.85 113.65 M23.5 93.25 L23.8 93.7 23.5 93.9 23.35 94.0 22.65 96.0 23.0 94.0 23.5 93.25 M15.5 110.15 L15.5 110.55 14.95 109.9 16.05 106.65 Q15.5 109.45 15.5 110.15" fill="#c17400" fill-rule="evenodd" stroke="none"/>
      <path d="M415.8 109.55 Q415.15 111.1 414.15 112.15 413.55 113.1 412.9 113.1 412.1 113.1 411.5 112.7 L410.65 112.0 410.65 109.4 411.2 109.4 Q408.35 105.35 405.15 99.0 L401.75 91.85 401.85 91.4 402.65 91.55 417.5 93.75 417.7 93.8 417.65 93.9 417.65 94.0 417.6 94.15 419.65 94.15 420.15 93.95 419.8 95.95 416.9 102.7 416.65 103.15 415.1 108.15 414.75 109.3 414.15 110.65 414.2 110.6 414.95 110.1 415.2 109.95 415.35 109.85 415.45 109.8 415.75 109.6 415.8 109.55 M412.65 110.1 Q412.65 109.4 413.2 106.6 L412.1 109.85 412.65 110.5 412.65 110.1 M274.9 110.1 L281.05 104.85 285.85 100.6 286.3 100.25 286.55 100.05 286.85 99.8 287.35 99.15 287.55 98.8 287.55 98.55 Q287.55 99.25 292.5 104.15 295.45 107.1 297.25 108.35 297.25 109.1 297.5 109.65 L297.45 109.95 295.45 110.25 294.95 110.3 288.25 110.45 276.7 110.35 275.0 110.6 274.9 110.1 M239.1 57.0 L239.4 56.7 239.0 54.2 Q240.3 53.9 241.4 55.15 L242.05 54.75 243.2 55.9 Q244.95 57.25 246.5 57.45 L253.0 58.4 255.5 59.4 258.1 60.65 Q259.05 61.15 259.95 61.3 L260.9 60.9 261.65 61.05 261.85 61.35 261.9 61.9 Q261.9 62.7 260.7 63.55 L259.9 64.05 256.5 65.8 Q253.9 67.15 251.7 67.95 L251.5 67.8 251.2 67.65 250.95 67.55 250.85 67.55 250.6 67.5 249.9 67.45 249.6 67.45 249.5 67.45 248.95 67.5 248.45 67.6 248.4 67.65 248.3 67.65 248.25 67.7 247.65 67.95 247.45 68.1 247.15 68.4 246.8 68.9 246.65 68.9 246.1 68.85 246.05 68.85 245.25 68.6 245.05 68.5 244.5 68.2 244.45 68.15 244.4 68.25 244.2 68.0 244.15 67.9 244.1 67.9 244.05 67.85 243.2 66.95 243.0 66.7 243.0 66.55 243.0 66.1 243.0 66.05 242.9 65.5 242.95 66.05 Q241.15 62.75 239.1 57.0 M287.55 97.8 L287.6 97.8 287.55 98.05 287.55 97.8 M164.8 111.4 L164.65 111.55 164.0 112.0 Q162.2 111.95 159.85 107.4 L160.25 107.7 161.2 108.45 161.35 108.6 Q157.65 101.8 155.4 94.45 L155.75 94.1 155.85 94.05 156.05 93.9 Q157.05 94.15 157.85 95.05 L157.8 94.7 157.95 93.95 157.95 93.85 Q158.5 92.45 163.3 92.1 L169.65 90.65 173.9 89.5 174.1 89.6 Q171.2 93.65 168.15 99.9 L164.0 108.55 Q164.8 110.55 164.8 111.35 L164.8 111.4 M140.75 48.9 Q139.45 50.2 139.05 51.05 L138.35 51.1 138.35 52.6 138.4 52.65 138.65 52.75 138.7 52.8 138.75 52.8 138.95 52.9 139.0 52.9 Q133.0 55.55 132.7 55.75 L127.65 58.5 Q124.6 60.0 123.0 60.5 L121.65 60.7 120.6 60.5 120.6 60.35 120.65 59.35 120.65 59.25 120.85 58.9 121.75 57.45 122.1 57.05 122.55 56.6 122.6 56.55 124.8 55.3 130.35 52.3 130.9 52.0 Q137.7 48.65 140.75 48.9 M164.95 52.3 L165.1 52.2 Q165.75 51.85 166.3 51.8 L166.0 52.05 166.8 51.5 166.7 52.1 166.75 51.85 Q167.65 52.1 167.95 53.85 L168.7 61.35 168.75 63.2 168.7 65.1 Q168.7 65.65 169.2 66.9 L169.7 68.8 Q169.7 70.0 168.65 70.7 167.85 71.2 166.95 71.2 165.95 71.2 164.25 70.15 L164.2 70.1 163.6 69.6 161.35 67.75 161.35 67.7 161.3 67.7 161.2 67.65 160.45 67.2 160.25 67.05 157.1 64.15 Q156.8 63.5 156.8 62.85 L156.85 62.4 156.8 62.15 157.25 62.2 157.3 61.75 157.4 60.15 157.5 60.1 157.7 59.9 158.95 59.85 Q159.6 58.4 161.05 56.4 L161.9 55.75 165.15 52.75 165.75 52.25 165.15 52.3 164.95 52.3 M74.2 110.1 L80.35 104.85 85.15 100.6 85.6 100.25 85.85 100.05 86.15 99.8 86.65 99.15 86.85 98.8 86.85 98.55 Q86.85 99.25 91.8 104.15 L96.55 108.35 Q96.55 109.1 96.8 109.65 L96.75 109.95 94.75 110.25 94.25 110.3 87.55 110.45 76.0 110.35 74.3 110.6 74.2 110.1 M86.9 97.8 L86.85 98.05 86.85 97.8 86.9 97.8 M18.2 109.9 L18.65 109.6 Q18.0 111.15 17.0 112.2 16.4 113.15 15.75 113.15 14.95 113.15 14.35 112.75 L13.5 112.05 13.5 109.45 14.05 109.45 Q11.2 105.4 8.0 99.05 L4.6 91.9 4.7 91.45 5.5 91.6 20.35 93.8 20.55 93.85 20.5 93.95 20.5 94.05 20.45 94.2 22.5 94.2 23.0 94.0 22.65 96.0 19.75 102.75 19.5 103.2 17.95 108.2 17.6 109.35 17.0 110.7 17.05 110.65 17.8 110.15 18.05 110.0 18.2 109.9 M15.5 110.15 Q15.5 109.45 16.05 106.65 L14.95 109.9 15.5 110.55 15.5 110.15" fill="#d58000" fill-rule="evenodd" stroke="none"/>
      <path d="M224.25 77.75 L223.75 77.8 223.2 77.65 223.3 77.35 224.25 77.75" fill="#dfa043" fill-rule="evenodd" stroke="none"/>
      <path d="M42.7 10.1 L42.95 10.5 Q40.2 14.6 39.85 15.75 L37.45 20.75 36.0 23.55 35.1 25.6 Q31.05 26.85 24.45 31.8 19.3 35.65 17.1 38.75 L7.9 39.5 Q9.15 37.05 10.75 35.05 14.0 31.1 21.9 24.95 25.8 21.85 37.3 13.85 L42.7 10.1" fill="url(#gradient0)" fill-rule="evenodd" stroke="none"/>
      <path d="M36.1 27.15 L37.0 26.55 37.05 26.5 37.65 26.7 38.25 26.95 38.3 26.95 38.95 26.95 38.95 27.15 45.1 29.2 53.5 31.7 42.35 35.95 Q35.15 39.1 32.0 41.6 L25.5 40.2 19.75 39.9 Q22.3 36.55 24.25 35.05 L36.1 27.15" fill="url(#gradient1)" fill-rule="evenodd" stroke="none"/>
      <path d="M38.3 72.45 Q37.1 72.0 36.4 72.05 L28.35 72.95 Q27.1 68.65 17.25 58.45 6.0 46.8 6.0 45.05 L6.15 43.65 6.15 43.2 6.5 42.45 13.0 42.45 15.55 42.35 15.5 42.7 15.5 42.8 15.55 42.95 Q15.8 44.9 21.1 51.35 L27.35 58.65 33.3 65.7 Q36.9 70.1 38.3 72.45" fill="url(#gradient2)" fill-rule="evenodd" stroke="none"/>
      <path d="M29.55 45.4 L29.55 45.45 29.5 45.8 Q29.5 48.05 41.75 61.2 49.55 69.55 52.35 74.3 L51.1 73.85 Q46.65 72.35 40.9 72.55 39.0 68.55 31.1 58.9 L18.25 43.15 Q19.75 43.85 23.05 44.5 L29.55 45.4" fill="url(#gradient3)" fill-rule="evenodd" stroke="none"/>
      <path d="M38.65 76.55 Q37.05 79.9 30.6 85.6 L22.95 92.25 21.9 91.75 20.0 91.35 7.5 89.7 4.7 88.8 Q15.2 87.35 21.7 83.4 27.4 79.9 28.35 75.7 30.75 74.95 35.9 76.3 L38.65 76.55" fill="url(#gradient4)" fill-rule="evenodd" stroke="none"/>
      <path d="M53.95 78.75 Q53.65 80.6 48.1 88.2 L43.15 93.15 37.0 97.8 26.5 105.3 20.0 108.8 18.2 109.9 18.05 110.0 17.8 110.15 17.05 110.65 17.0 110.7 17.6 109.35 17.95 108.2 19.5 103.2 19.75 102.75 22.65 96.0 23.35 94.0 23.5 93.9 23.8 93.7 Q28.9 90.55 34.5 85.0 41.45 78.1 41.45 74.45 L41.5 74.4 Q42.5 74.95 44.2 75.3 L47.95 76.3 51.55 77.8 53.95 78.75" fill="url(#gradient5)" fill-rule="evenodd" stroke="none"/>
      <path d="M352.3 89.7 L353.7 89.65 353.9 90.6 354.0 93.95 353.85 99.15 352.6 99.1 Q351.8 97.2 351.6 95.95 L351.5 92.4 351.6 89.7 352.25 89.7 352.3 89.7 M353.75 111.15 L351.3 111.1 351.5 108.9 351.25 106.5 351.0 104.25 351.2 102.25 352.75 102.3 Q353.6 103.25 353.9 105.15 354.15 106.7 354.0 108.25 L353.8 110.7 353.75 111.15" fill="#fe9800" fill-rule="evenodd" stroke="none"/>
      <path d="M86.85 97.75 L86.8 97.3 86.7 97.05 86.6 97.05 86.95 89.8 87.05 82.25 86.35 78.8 Q85.65 75.35 85.65 74.35 85.65 71.4 86.15 68.9 86.4 66.75 85.3 62.0 84.75 59.65 84.85 55.65 L84.95 49.25 84.1 36.9 83.85 33.65 83.65 30.55 Q83.7 29.3 83.2 27.05 L82.75 24.25 83.05 22.8 89.45 18.3 Q92.95 15.6 94.4 13.6 L94.3 15.25 Q94.25 21.55 94.7 41.45 L95.25 63.15 Q95.55 74.25 96.45 87.1 L96.8 98.95 96.7 104.95 96.6 107.65 93.4 103.9 Q88.05 97.8 87.1 97.8 L86.85 97.75" fill="url(#gradient6)" fill-rule="evenodd" stroke="none"/>
      <path d="M84.35 97.2 L84.1 97.4 Q83.55 97.95 83.4 98.8 L82.45 99.65 78.95 103.1 74.25 107.15 74.3 100.7 72.15 62.05 Q70.2 27.7 70.3 22.1 L70.35 14.7 70.55 13.3 71.05 13.2 74.25 16.6 76.6 20.1 Q78.55 22.95 79.5 22.95 L80.25 22.95 80.25 23.65 Q80.2 29.05 81.35 43.4 L82.8 61.1 83.05 70.65 83.15 79.85 83.75 91.55 Q84.05 95.3 84.5 97.1 L84.35 97.2" fill="url(#gradient7)" fill-rule="evenodd" stroke="none"/>
      <path d="M165.2 29.25 Q163.0 30.1 160.25 32.1 156.25 34.95 152.95 38.6 L145.8 44.25 Q142.45 47.05 140.75 48.9 137.7 48.65 130.9 52.0 L130.35 52.3 124.8 55.3 122.6 56.55 122.55 56.6 Q122.35 56.65 122.2 56.8 127.95 48.15 139.45 36.3 L149.6 26.45 150.3 26.8 150.6 26.35 159.1 27.85 165.05 28.95 165.2 29.25" fill="url(#gradient8)" fill-rule="evenodd" stroke="none"/>
      <path d="M165.25 29.25 L165.2 29.25 165.05 28.95 165.25 29.25" fill="url(#gradient9)" fill-rule="evenodd" stroke="none"/>
      <path d="M139.0 52.9 L141.1 53.4 144.05 53.75 159.95 52.8 164.95 52.3 165.15 52.3 165.15 52.75 161.9 55.75 161.05 56.4 Q159.8 57.35 158.6 58.75 L157.7 59.9 157.5 60.1 Q152.4 59.35 148.1 59.95 L141.85 60.7 Q127.85 60.05 123.0 60.5 124.6 60.0 127.65 58.5 L132.7 55.75 Q133.0 55.55 139.0 52.9" fill="url(#gradient10)" fill-rule="evenodd" stroke="none"/>
      <path d="M164.25 70.15 L164.6 70.45 166.4 71.85 157.05 72.6 145.35 73.45 141.75 73.1 141.3 73.05 136.4 70.2 Q133.05 68.15 130.45 65.95 L125.4 63.1 130.35 63.15 130.35 63.2 Q130.35 64.5 145.3 63.2 L149.1 62.5 152.35 61.95 156.8 62.15 156.85 62.4 156.8 62.85 Q156.8 63.5 157.1 64.15 L158.1 65.45 160.25 67.05 160.45 67.2 161.2 67.65 161.3 67.7 161.35 67.7 161.35 67.75 163.6 69.6 164.2 70.1 164.25 70.15" fill="url(#gradient11)" fill-rule="evenodd" stroke="none"/>
      <path d="M140.35 75.15 L141.3 75.4 142.7 76.35 Q144.65 77.5 148.0 78.75 155.35 81.2 157.3 82.1 L166.55 86.55 170.15 88.15 165.4 88.95 Q158.95 90.2 156.85 92.2 L156.8 92.1 Q154.3 90.65 145.8 84.6 144.4 83.6 141.1 81.55 138.1 79.55 136.1 77.55 L128.05 70.3 125.65 67.9 Q128.3 69.05 129.7 69.95 L135.4 73.05 Q139.6 75.2 140.1 75.2 L140.35 75.15" fill="url(#gradient12)" fill-rule="evenodd" stroke="none"/>
      <path d="M149.55 23.9 Q147.95 24.5 146.05 26.2 144.35 27.7 141.95 30.3 L137.9 34.7 133.85 39.35 126.0 47.65 Q119.4 55.15 119.4 58.0 L119.4 58.15 118.75 58.95 118.55 59.55 116.9 59.35 Q112.5 59.35 110.5 60.15 L110.15 59.6 Q111.65 53.6 117.65 45.85 L129.35 32.1 Q131.35 29.7 135.7 25.8 L142.7 19.3 Q144.2 17.8 151.95 12.45 L155.4 10.1 153.45 15.3 151.1 20.1 Q149.95 22.4 149.55 23.9" fill="url(#gradient13)" fill-rule="evenodd" stroke="none"/>
      <path d="M119.2 62.7 Q121.85 67.35 133.7 78.45 137.3 81.75 145.2 87.4 153.95 93.6 155.8 93.6 L155.95 93.65 155.85 93.85 155.3 94.15 155.4 94.45 Q157.65 101.8 161.35 108.6 L161.2 108.45 160.25 107.7 159.85 107.4 156.55 105.15 147.3 100.1 Q144.2 98.4 138.35 93.95 L130.1 87.55 Q119.45 79.4 116.15 73.55 L113.45 69.6 Q111.55 67.0 111.15 66.1 110.8 65.4 110.7 64.45 L110.65 63.2 118.4 63.2 119.2 62.7" fill="url(#gradient14)" fill-rule="evenodd" stroke="none"/>
      <path d="M246.65 68.9 L246.8 68.9 247.15 68.4 247.45 68.1 247.65 67.95 248.25 67.7 248.3 67.65 248.4 67.65 248.45 67.6 248.95 67.5 249.5 67.45 249.6 67.45 249.9 67.45 250.6 67.5 250.85 67.55 250.95 67.55 251.2 67.65 251.5 67.8 251.7 67.95 Q253.9 67.15 256.5 65.8 L259.9 64.05 260.35 64.3 253.15 77.8 247.95 87.9 247.55 88.75 246.85 90.25 246.5 91.2 246.5 91.55 Q244.05 95.25 241.45 100.55 L237.65 108.5 237.5 108.4 Q237.5 107.75 235.7 103.7 L233.85 99.6 232.85 97.35 232.35 95.75 232.9 95.35 233.1 94.7 234.25 93.05 236.0 90.25 238.15 86.4 239.1 84.65 241.5 79.95 Q245.55 71.85 246.65 68.9" fill="url(#gradient15)" fill-rule="evenodd" stroke="none"/>
      <path d="M231.55 91.75 L231.55 91.7 231.35 90.75 Q229.9 83.2 228.1 79.8 L227.95 79.55 227.6 78.95 227.55 78.8 227.15 78.3 226.8 77.85 227.45 77.5 228.3 76.35 230.4 72.8 Q233.1 67.6 234.2 66.15 L236.25 62.5 236.2 62.2 237.0 60.9 238.45 57.85 239.1 57.0 Q241.15 62.75 242.95 66.05 L243.0 66.05 243.0 66.1 243.0 66.55 243.0 66.7 243.2 66.95 244.05 67.85 244.1 67.9 244.2 68.0 244.4 68.25 Q241.8 72.25 237.3 80.65 L235.9 83.3 235.65 83.15 235.2 83.95 234.7 84.75 235.05 84.95 Q232.75 89.35 231.8 91.75 L231.55 91.8 231.55 91.75" fill="url(#gradient16)" fill-rule="evenodd" stroke="none"/>
      <path d="M242.95 66.05 L242.9 65.5 243.0 66.05 242.95 66.05 M244.1 67.9 L244.15 67.9 244.2 68.0 244.1 67.9" fill="url(#gradient17)" fill-rule="evenodd" stroke="none"/>
      <path d="M260.35 64.25 L260.35 64.3 259.9 64.05 260.35 64.25" fill="url(#gradient18)" fill-rule="evenodd" stroke="none"/>
      <path d="M191.85 60.2 L190.2 60.0 Q185.8 60.0 183.8 60.8 L183.45 60.25 Q184.95 54.25 190.95 46.5 L202.65 32.75 Q204.65 30.35 209.0 26.45 L216.0 19.95 218.5 17.9 Q220.9 16.1 225.25 13.1 L228.7 10.75 226.75 15.95 224.4 20.75 Q223.25 23.05 222.85 24.55 221.25 25.15 219.35 26.85 L218.5 27.65 215.25 30.95 211.2 35.35 207.15 40.0 Q200.95 46.4 199.3 48.3 192.75 55.75 192.7 58.6 L192.5 59.0 192.05 59.6 191.85 60.2" fill="url(#gradient19)" fill-rule="evenodd" stroke="none"/>
      <path d="M238.5 29.9 Q236.3 30.75 233.55 32.75 229.55 35.6 226.25 39.25 L219.1 44.9 218.5 45.4 214.05 49.55 212.7 51.15 212.3 51.45 212.05 51.7 211.65 51.75 211.65 52.05 208.65 55.7 208.65 56.4 208.65 56.5 208.15 56.7 208.15 56.9 Q205.65 56.75 199.8 58.2 L194.5 59.8 195.65 57.6 195.85 57.25 196.75 55.7 Q202.4 47.6 212.75 36.95 L218.5 31.4 222.9 27.1 223.6 27.45 223.9 27.0 232.4 28.5 238.35 29.6 238.5 29.9" fill="url(#gradient20)" fill-rule="evenodd" stroke="none"/>
      <path d="M238.5 29.9 L238.35 29.6 238.55 29.9 238.5 29.9" fill="url(#gradient21)" fill-rule="evenodd" stroke="none"/>
      <path d="M223.2 77.65 L223.1 78.4 Q223.1 80.05 225.6 86.55 L226.3 88.25 227.35 90.6 227.55 90.9 227.35 91.0 219.1 85.25 218.5 84.85 214.4 82.2 Q211.4 80.2 209.4 78.2 L201.35 70.95 198.95 68.55 197.55 67.05 197.65 66.8 196.15 64.75 195.8 64.25 194.8 62.7 195.3 62.4 198.95 61.65 199.85 61.4 202.25 60.65 202.7 60.6 207.8 59.55 208.25 59.4 208.55 59.75 Q211.4 63.0 215.35 69.0 L218.5 73.0 Q221.3 76.25 223.3 77.35 L223.2 77.65 M201.4 65.35 L201.65 65.5 201.6 65.35 201.4 65.35" fill="url(#gradient22)" fill-rule="evenodd" stroke="none"/>
      <path d="M228.7 95.1 L228.6 95.9 231.6 103.6 233.55 108.35 233.15 108.05 229.85 105.8 220.6 100.75 218.5 99.5 211.65 94.6 203.4 88.2 Q192.75 80.05 189.45 74.2 L186.75 70.25 Q184.85 67.65 184.45 66.75 L184.0 65.1 183.95 63.85 191.7 63.85 192.5 63.35 193.5 64.9 195.6 67.55 Q199.4 72.0 207.0 79.1 210.6 82.4 218.5 88.05 225.65 93.15 228.2 94.05 L228.6 94.7 228.65 94.75 228.6 94.8 228.7 95.1" fill="url(#gradient23)" fill-rule="evenodd" stroke="none"/>
      <path d="M201.4 65.35 L201.6 65.35 201.65 65.5 201.4 65.35" fill="url(#gradient24)" fill-rule="evenodd" stroke="none"/>
      <path d="M227.55 90.95 L227.6 91.05 227.65 91.2 227.35 91.0 227.55 90.95 M195.15 62.4 L195.3 62.4 194.8 62.7 194.8 62.65 195.15 62.4" fill="url(#gradient25)" fill-rule="evenodd" stroke="none"/>
      <path d="M194.8 62.65 L194.8 62.6 195.15 62.4 194.8 62.65" fill="url(#gradient26)" fill-rule="evenodd" stroke="none"/>
      <path d="M227.55 90.9 L227.55 90.95 227.35 91.0 227.55 90.9" fill="url(#gradient27)" fill-rule="evenodd" stroke="none"/>
      <path d="M295.1 13.6 L295.0 15.25 Q294.95 21.55 295.4 41.45 L295.95 63.15 Q296.25 74.25 297.15 87.1 L297.5 98.95 297.4 104.95 297.3 107.65 294.1 103.9 Q288.75 97.8 287.8 97.8 L287.55 97.75 287.5 97.3 287.4 97.05 287.3 97.05 287.65 89.8 287.75 82.25 287.05 78.8 Q286.35 75.35 286.35 74.35 286.35 71.4 286.85 68.9 287.1 66.75 286.0 62.0 285.45 59.65 285.55 55.65 L285.65 49.25 284.8 36.9 284.55 33.65 284.35 30.55 Q284.4 29.3 283.9 27.05 L283.45 24.25 283.75 22.8 Q286.65 21.1 290.15 18.3 293.65 15.6 295.1 13.6" fill="url(#gradient28)" fill-rule="evenodd" stroke="none"/>
      <path d="M285.05 97.2 L284.8 97.4 Q284.25 97.95 284.1 98.8 L283.15 99.65 279.65 103.1 274.95 107.15 275.0 100.7 272.85 62.05 Q270.9 27.7 271.0 22.1 L271.05 14.7 271.25 13.3 271.75 13.2 274.95 16.6 277.3 20.1 Q279.25 22.95 280.2 22.95 L280.95 22.95 280.95 23.65 Q280.9 29.05 282.05 43.4 L283.5 61.1 283.75 70.65 283.85 79.85 284.45 91.55 Q284.75 95.3 285.2 97.1 L285.05 97.2" fill="url(#gradient29)" fill-rule="evenodd" stroke="none"/>
      <path d="M372.2 87.15 L369.15 85.0 Q364.25 81.8 361.25 81.3 L362.0 75.95 Q362.5 71.3 362.5 60.85 L362.2 58.05 Q361.9 55.8 362.0 54.5 L362.05 54.15 362.0 54.05 361.5 50.45 Q361.5 50.05 361.85 49.35 361.5 48.45 361.5 47.9 L361.75 42.55 362.0 37.35 362.25 30.9 362.5 26.2 362.5 18.4 Q362.35 13.2 361.8 10.25 L361.85 10.25 362.05 10.3 Q362.55 11.2 366.7 16.5 370.95 22.0 372.5 22.6 L372.4 38.55 373.4 71.05 373.15 76.8 372.4 85.15 372.2 87.15" fill="url(#gradient30)" fill-rule="evenodd" stroke="none"/>
      <path d="M384.9 12.0 Q384.95 19.6 385.9 34.65 L385.9 34.85 385.95 35.3 386.6 47.4 386.6 47.55 386.6 47.6 386.85 54.4 386.9 58.5 Q386.9 62.65 385.9 72.15 384.9 81.65 384.9 86.05 384.9 92.8 383.4 97.7 377.2 91.7 375.25 90.85 L375.4 88.25 375.65 79.2 375.9 72.95 374.9 27.85 Q375.7 25.8 375.3 23.1 L375.05 21.95 376.4 20.7 379.65 16.95 384.9 12.0" fill="url(#gradient31)" fill-rule="evenodd" stroke="none"/>
      <path d="M340.0 12.35 L340.3 12.65 340.5 12.8 340.5 15.35 340.2 19.3 Q339.9 22.7 340.0 24.5 L340.6 30.05 341.0 33.95 340.85 45.1 340.85 47.85 Q340.85 57.2 341.0 62.35 L341.05 63.4 341.3 67.45 341.35 68.1 341.4 69.45 Q341.7 73.8 341.5 76.65 L341.5 76.8 Q341.4 78.55 341.55 80.1 L341.5 79.65 341.15 79.65 Q339.3 79.75 337.05 81.95 335.9 83.05 332.75 84.75 L332.65 84.75 Q332.4 82.9 332.5 81.45 332.75 77.3 332.25 71.1 L331.5 61.1 331.5 51.05 331.5 41.0 331.7 30.6 Q331.7 25.95 330.8 22.8 L340.0 12.35" fill="url(#gradient32)" fill-rule="evenodd" stroke="none"/>
      <path d="M318.25 10.55 L321.6 15.1 321.5 15.5 322.4 16.5 323.1 17.0 Q326.55 21.4 328.45 22.85 328.05 24.05 328.05 25.7 328.1 27.6 328.5 29.4 329.5 54.0 329.5 66.4 329.5 69.45 330.0 75.7 L330.5 84.9 330.55 87.05 Q328.1 88.65 324.65 91.7 L322.55 93.55 Q321.45 90.5 321.0 88.1 319.9 82.35 319.65 74.95 319.5 71.55 319.5 61.85 319.5 56.75 319.1 48.75 L318.5 35.65 Q318.4 33.3 318.7 29.1 L319.0 22.5 319.0 15.95 Q318.85 12.9 317.95 10.65 L318.25 10.55" fill="url(#gradient33)" fill-rule="evenodd" stroke="none"/>
      <path d="M342.1 82.65 Q342.6 84.3 343.5 85.6 346.2 89.45 351.6 89.7 L351.5 92.4 351.6 95.95 Q351.8 97.2 352.6 99.1 L346.25 98.4 Q341.25 97.6 339.55 96.3 336.6 93.9 335.0 91.65 334.0 90.3 333.35 88.0 335.15 87.3 338.5 85.15 L342.1 82.65" fill="url(#gradient34)" fill-rule="evenodd" stroke="none"/>
      <path d="M351.3 111.1 L351.0 111.1 Q342.65 110.6 337.3 109.35 L332.9 108.0 331.5 107.2 Q328.9 105.85 327.55 104.25 326.7 103.3 325.75 101.15 L323.65 96.3 Q328.55 93.25 331.25 91.1 331.85 92.95 333.0 94.35 L336.8 99.2 Q337.95 100.35 341.8 101.15 L351.2 102.25 351.0 104.25 351.25 106.5 351.5 108.9 351.3 111.1" fill="url(#gradient35)" fill-rule="evenodd" stroke="none"/>
      <path d="M353.7 89.65 Q358.05 89.35 359.45 87.2 360.2 86.05 360.85 83.25 362.65 85.55 365.85 88.45 369.4 91.6 371.85 92.6 L371.8 93.35 Q371.65 96.55 370.95 97.5 370.1 98.7 367.15 99.0 365.25 99.2 357.65 99.2 L353.85 99.15 354.0 93.95 353.9 90.6 353.7 89.65" fill="url(#gradient36)" fill-rule="evenodd" stroke="none"/>
      <path d="M381.95 101.25 L379.8 104.5 Q374.1 111.3 361.65 111.3 L353.75 111.15 353.8 110.7 354.0 108.25 Q354.15 106.7 353.9 105.15 353.6 103.25 352.75 102.3 L356.0 102.35 Q367.35 102.35 371.95 99.2 374.3 97.6 374.4 95.85 L374.6 94.65 377.05 97.0 380.8 100.25 381.95 101.25" fill="url(#gradient37)" fill-rule="evenodd" stroke="none"/>
      <path d="M433.15 23.5 L432.25 25.55 Q428.2 26.8 421.6 31.75 416.45 35.6 414.25 38.7 L405.05 39.45 Q406.3 37.0 407.9 35.0 411.15 31.05 419.05 24.9 422.95 21.8 434.45 13.8 L439.85 10.05 440.1 10.45 Q437.35 14.55 437.0 15.7 L434.6 20.7 433.15 23.5" fill="url(#gradient38)" fill-rule="evenodd" stroke="none"/>
      <path d="M412.7 42.3 L412.65 42.65 412.65 42.75 412.7 42.9 Q412.95 44.85 418.25 51.3 L424.5 58.6 430.45 65.65 Q434.05 70.05 435.45 72.4 434.25 71.95 433.55 72.0 L425.5 72.9 Q424.25 68.6 414.4 58.4 403.15 46.75 403.15 45.0 L403.3 43.6 403.3 43.15 403.65 42.4 410.15 42.4 412.7 42.3" fill="url(#gradient39)" fill-rule="evenodd" stroke="none"/>
      <path d="M433.25 27.1 L434.15 26.5 434.2 26.45 434.8 26.65 435.4 26.9 435.45 26.9 436.1 26.9 436.1 27.1 442.25 29.15 Q447.95 31.1 450.65 31.65 L439.5 35.9 Q432.3 39.05 429.15 41.55 L422.65 40.15 416.9 39.85 Q419.45 36.5 421.4 35.0 L433.25 27.1" fill="url(#gradient40)" fill-rule="evenodd" stroke="none"/>
      <path d="M426.7 45.35 L426.7 45.4 426.65 45.75 Q426.65 48.0 438.9 61.15 446.7 69.5 449.5 74.25 L448.25 73.8 Q443.8 72.3 438.05 72.5 436.15 68.5 428.25 58.85 L415.4 43.1 Q416.9 43.8 420.2 44.45 L426.7 45.35" fill="url(#gradient41)" fill-rule="evenodd" stroke="none"/>
      <path d="M435.8 76.5 Q434.2 79.85 427.75 85.55 L420.1 92.2 Q419.7 91.9 419.05 91.7 L417.15 91.3 404.65 89.65 401.85 88.75 Q412.35 87.3 418.85 83.35 424.55 79.85 425.5 75.65 427.9 74.9 433.05 76.25 L435.8 76.5" fill="url(#gradient42)" fill-rule="evenodd" stroke="none"/>
      <path d="M451.1 78.7 Q450.8 80.55 445.25 88.15 L440.3 93.1 434.15 97.75 423.65 105.25 417.15 108.75 Q416.4 109.1 415.8 109.55 L415.75 109.6 415.45 109.8 415.35 109.85 415.2 109.95 414.95 110.1 414.2 110.6 414.15 110.65 414.75 109.3 415.1 108.15 416.65 103.15 416.9 102.7 419.8 95.95 420.5 93.95 420.65 93.85 420.95 93.65 Q426.05 90.5 431.65 84.95 438.6 78.05 438.6 74.4 L438.65 74.35 Q439.65 74.9 441.35 75.25 L445.1 76.25 448.7 77.75 451.1 78.7" fill="url(#gradient43)" fill-rule="evenodd" stroke="none"/>
    </g>
    <linearGradient gradientTransform="matrix(-0.0195, 0.0137, -0.0031, -0.0044, 24.5, 28.25)" gradientUnits="userSpaceOnUse" id="gradient0" spreadMethod="pad" x1="-819.2" x2="819.2">
      <stop offset="0.0" stop-color="#ff9900"/>
      <stop offset="0.5058823529411764" stop-color="#ffc500"/>
      <stop offset="1.0" stop-color="#ff9a00"/>
    </linearGradient>
    <linearGradient gradientTransform="matrix(-0.0085, 0.0037, -0.0029, -0.0067, 33.0, 34.7)" gradientUnits="userSpaceOnUse" id="gradient1" spreadMethod="pad" x1="-819.2" x2="819.2">
      <stop offset="0.0" stop-color="#c17400"/>
      <stop offset="1.0" stop-color="#ff9900"/>
    </linearGradient>
    <linearGradient gradientTransform="matrix(0.0134, 0.0171, -0.0046, 0.0036, 21.5, 57.75)" gradientUnits="userSpaceOnUse" id="gradient2" spreadMethod="pad" x1="-819.2" x2="819.2">
      <stop offset="0.0" stop-color="#ff9900"/>
      <stop offset="0.5058823529411764" stop-color="#c17400"/>
      <stop offset="1.0" stop-color="#ff9a00"/>
    </linearGradient>
    <linearGradient gradientTransform="matrix(-0.0122, -0.0155, 0.004, -0.0031, 34.9, 58.25)" gradientUnits="userSpaceOnUse" id="gradient3" spreadMethod="pad" x1="-819.2" x2="819.2">
      <stop offset="0.0" stop-color="#ff9900"/>
      <stop offset="0.5176470588235295" stop-color="#ffc500"/>
      <stop offset="1.0" stop-color="#ff9a00"/>
    </linearGradient>
    <linearGradient gradientTransform="matrix(-0.0098, 0.0085, -0.0059, -0.0067, 22.0, 83.45)" gradientUnits="userSpaceOnUse" id="gradient4" spreadMethod="pad" x1="-819.2" x2="819.2">
      <stop offset="0.0" stop-color="#ff9900"/>
      <stop offset="0.5058823529411764" stop-color="#ffc500"/>
      <stop offset="1.0" stop-color="#ff9a00"/>
    </linearGradient>
    <linearGradient gradientTransform="matrix(0.0153, -0.0149, 0.0063, 0.0064, 35.95, 90.05)" gradientUnits="userSpaceOnUse" id="gradient5" spreadMethod="pad" x1="-819.2" x2="819.2">
      <stop offset="0.0" stop-color="#ff9900"/>
      <stop offset="0.5058823529411764" stop-color="#c17400"/>
      <stop offset="1.0" stop-color="#ff9a00"/>
    </linearGradient>
    <linearGradient gradientTransform="matrix(-0.0023, -0.0469, 0.0074, -4.0E-4, 90.55, 57.95)" gradientUnits="userSpaceOnUse" id="gradient6" spreadMethod="pad" x1="-819.2" x2="819.2">
      <stop offset="0.0" stop-color="#ff9900"/>
      <stop offset="0.5058823529411764" stop-color="#c17400"/>
      <stop offset="1.0" stop-color="#ff9a00"/>
    </linearGradient>
    <linearGradient gradientTransform="matrix(0.0021, 0.047, -0.0067, 3.0E-4, 77.5, 62.65)" gradientUnits="userSpaceOnUse" id="gradient7" spreadMethod="pad" x1="-819.2" x2="819.2">
      <stop offset="0.0" stop-color="#ff9900"/>
      <stop offset="0.5176470588235295" stop-color="#ffc500"/>
      <stop offset="1.0" stop-color="#ff9a00"/>
    </linearGradient>
    <linearGradient gradientTransform="matrix(-0.0063, 0.0213, -0.0195, -0.0058, 142.25, 47.85)" gradientUnits="userSpaceOnUse" id="gradient8" spreadMethod="pad" x1="-819.2" x2="819.2">
      <stop offset="0.0" stop-color="#ff9900"/>
      <stop offset="0.5058823529411764" stop-color="#c17400"/>
      <stop offset="1.0" stop-color="#ff9a00"/>
    </linearGradient>
    <linearGradient gradientTransform="matrix(-0.0134, 0.018, -0.0089, -0.0066, 141.9, 45.4)" gradientUnits="userSpaceOnUse" id="gradient9" spreadMethod="pad" x1="-819.2" x2="819.2">
      <stop offset="0.0" stop-color="#ff9900"/>
      <stop offset="0.5058823529411764" stop-color="#c17400"/>
      <stop offset="1.0" stop-color="#ff9a00"/>
    </linearGradient>
    <linearGradient gradientTransform="matrix(0.0137, 0.0, 0.0, 0.0051, 148.0, 56.5)" gradientUnits="userSpaceOnUse" id="gradient10" spreadMethod="pad" x1="-819.2" x2="819.2">
      <stop offset="0.0" stop-color="#ff9900"/>
      <stop offset="0.5058823529411764" stop-color="#ffc500"/>
      <stop offset="1.0" stop-color="#ff9a00"/>
    </linearGradient>
    <linearGradient gradientTransform="matrix(0.0063, -0.0095, 0.0197, 0.0132, 147.85, 64.5)" gradientUnits="userSpaceOnUse" id="gradient11" spreadMethod="pad" x1="-819.2" x2="819.2">
      <stop offset="0.0" stop-color="#ff9900"/>
      <stop offset="0.5058823529411764" stop-color="#c17400"/>
      <stop offset="1.0" stop-color="#ff9a00"/>
    </linearGradient>
    <linearGradient gradientTransform="matrix(-0.0036, -0.0119, 0.0214, -0.0066, 148.6, 80.4)" gradientUnits="userSpaceOnUse" id="gradient12" spreadMethod="pad" x1="-819.2" x2="819.2">
      <stop offset="0.0" stop-color="#ff9900"/>
      <stop offset="0.5058823529411764" stop-color="#ffc500"/>
      <stop offset="1.0" stop-color="#ff9a00"/>
    </linearGradient>
    <linearGradient gradientTransform="matrix(0.0219, -0.025, 0.0046, 0.004, 133.7, 34.6)" gradientUnits="userSpaceOnUse" id="gradient13" spreadMethod="pad" x1="-819.2" x2="819.2">
      <stop offset="0.0" stop-color="#ff9900"/>
      <stop offset="0.5058823529411764" stop-color="#ffc500"/>
      <stop offset="1.0" stop-color="#ff9a00"/>
    </linearGradient>
    <linearGradient gradientTransform="matrix(-0.0262, -0.0225, 0.0049, -0.0057, 133.2, 82.3)" gradientUnits="userSpaceOnUse" id="gradient14" spreadMethod="pad" x1="-819.2" x2="819.2">
      <stop offset="0.0" stop-color="#ff9900"/>
      <stop offset="0.5058823529411764" stop-color="#c17400"/>
      <stop offset="1.0" stop-color="#ff9a00"/>
    </linearGradient>
    <linearGradient gradientTransform="matrix(-0.0213, 0.0268, -0.0084, -0.0067, 236.55, 95.7)" gradientUnits="userSpaceOnUse" id="gradient15" spreadMethod="pad" x1="-819.2" x2="819.2">
      <stop offset="0.0" stop-color="#ff9900"/>
      <stop offset="0.5058823529411764" stop-color="#c17400"/>
      <stop offset="1.0" stop-color="#ff9a00"/>
    </linearGradient>
    <linearGradient gradientTransform="matrix(-0.0085, 0.0107, -0.0076, -0.0061, 235.1, 74.9)" gradientUnits="userSpaceOnUse" id="gradient16" spreadMethod="pad" x1="-819.2" x2="819.2">
      <stop offset="0.0" stop-color="#ff9900"/>
      <stop offset="0.5058823529411764" stop-color="#c17400"/>
      <stop offset="1.0" stop-color="#ff9a00"/>
    </linearGradient>
    <linearGradient gradientTransform="matrix(-0.0122, 0.0146, -0.0078, -0.0065, 230.25, 80.6)" gradientUnits="userSpaceOnUse" id="gradient17" spreadMethod="pad" x1="-819.2" x2="819.2">
      <stop offset="0.0" stop-color="#ff9900"/>
      <stop offset="0.5058823529411764" stop-color="#ffc500"/>
      <stop offset="1.0" stop-color="#ff9a00"/>
    </linearGradient>
    <linearGradient gradientTransform="matrix(0.0124, -0.0274, 0.007, 0.0031, 248.05, 76.3)" gradientUnits="userSpaceOnUse" id="gradient18" spreadMethod="pad" x1="-819.2" x2="819.2">
      <stop offset="0.0" stop-color="#ff9900"/>
      <stop offset="0.5058823529411764" stop-color="#c17400"/>
      <stop offset="1.0" stop-color="#ff9a00"/>
    </linearGradient>
    <linearGradient gradientTransform="matrix(0.0219, -0.025, 0.0046, 0.004, 207.0, 35.25)" gradientUnits="userSpaceOnUse" id="gradient19" spreadMethod="pad" x1="-819.2" x2="819.2">
      <stop offset="0.0" stop-color="#ff9900"/>
      <stop offset="0.5058823529411764" stop-color="#ffc500"/>
      <stop offset="1.0" stop-color="#ff9a00"/>
    </linearGradient>
    <linearGradient gradientTransform="matrix(-0.0167, 0.0171, -0.0059, -0.0058, 211.4, 48.0)" gradientUnits="userSpaceOnUse" id="gradient20" spreadMethod="pad" x1="-819.2" x2="819.2">
      <stop offset="0.0" stop-color="#c17400"/>
      <stop offset="1.0" stop-color="#ff9900"/>
    </linearGradient>
    <linearGradient gradientTransform="matrix(-0.0134, 0.018, -0.0089, -0.0066, 215.2, 46.05)" gradientUnits="userSpaceOnUse" id="gradient21" spreadMethod="pad" x1="-819.2" x2="819.2">
      <stop offset="0.0" stop-color="#ff9900"/>
      <stop offset="0.5058823529411764" stop-color="#c17400"/>
      <stop offset="1.0" stop-color="#ff9a00"/>
    </linearGradient>
    <linearGradient gradientTransform="matrix(0.014, 0.0152, -0.0058, 0.0054, 213.1, 74.35)" gradientUnits="userSpaceOnUse" id="gradient22" spreadMethod="pad" x1="-819.2" x2="819.2">
      <stop offset="0.0" stop-color="#ff9900"/>
      <stop offset="0.5176470588235295" stop-color="#ffc500"/>
      <stop offset="1.0" stop-color="#ff9a00"/>
    </linearGradient>
    <linearGradient gradientTransform="matrix(-0.0262, -0.0225, 0.0049, -0.0057, 206.5, 82.95)" gradientUnits="userSpaceOnUse" id="gradient23" spreadMethod="pad" x1="-819.2" x2="819.2">
      <stop offset="0.0" stop-color="#ff9900"/>
      <stop offset="0.5058823529411764" stop-color="#c17400"/>
      <stop offset="1.0" stop-color="#ff9a00"/>
    </linearGradient>
    <linearGradient gradientTransform="matrix(0.0063, -0.0095, 0.0197, 0.0132, 221.15, 65.15)" gradientUnits="userSpaceOnUse" id="gradient24" spreadMethod="pad" x1="-819.2" x2="819.2">
      <stop offset="0.0" stop-color="#ff9900"/>
      <stop offset="0.5058823529411764" stop-color="#c17400"/>
      <stop offset="1.0" stop-color="#ff9a00"/>
    </linearGradient>
    <linearGradient gradientTransform="matrix(-0.0244, -0.0219, 0.0054, -0.006, 205.2, 65.65)" gradientUnits="userSpaceOnUse" id="gradient25" spreadMethod="pad" x1="-819.2" x2="819.2">
      <stop offset="0.0" stop-color="#ff9900"/>
      <stop offset="0.5058823529411764" stop-color="#c17400"/>
      <stop offset="1.0" stop-color="#ff9a00"/>
    </linearGradient>
    <linearGradient gradientTransform="matrix(-0.0063, 0.0213, -0.0195, -0.0058, 97.3, 49.05)" gradientUnits="userSpaceOnUse" id="gradient26" spreadMethod="pad" x1="-819.2" x2="819.2">
      <stop offset="0.0" stop-color="#ff9900"/>
      <stop offset="0.5058823529411764" stop-color="#c17400"/>
      <stop offset="1.0" stop-color="#ff9a00"/>
    </linearGradient>
    <linearGradient gradientTransform="matrix(0.0164, 0.0177, -0.0058, 0.0054, 218.65, 80.15)" gradientUnits="userSpaceOnUse" id="gradient27" spreadMethod="pad" x1="-819.2" x2="819.2">
      <stop offset="0.0" stop-color="#ff9900"/>
      <stop offset="0.5176470588235295" stop-color="#ffc500"/>
      <stop offset="1.0" stop-color="#ff9a00"/>
    </linearGradient>
    <linearGradient gradientTransform="matrix(-0.0023, -0.0469, 0.0074, -4.0E-4, 291.25, 57.95)" gradientUnits="userSpaceOnUse" id="gradient28" spreadMethod="pad" x1="-819.2" x2="819.2">
      <stop offset="0.0" stop-color="#ff9900"/>
      <stop offset="0.5058823529411764" stop-color="#c17400"/>
      <stop offset="1.0" stop-color="#ff9a00"/>
    </linearGradient>
    <linearGradient gradientTransform="matrix(0.0021, 0.047, -0.0067, 3.0E-4, 278.2, 62.65)" gradientUnits="userSpaceOnUse" id="gradient29" spreadMethod="pad" x1="-819.2" x2="819.2">
      <stop offset="0.0" stop-color="#ff9900"/>
      <stop offset="0.5176470588235295" stop-color="#ffc500"/>
      <stop offset="1.0" stop-color="#ff9a00"/>
    </linearGradient>
    <linearGradient gradientTransform="matrix(-9.0E-4, 0.0281, -0.0085, -3.0E-4, 366.8, 58.8)" gradientUnits="userSpaceOnUse" id="gradient30" spreadMethod="pad" x1="-819.2" x2="819.2">
      <stop offset="0.0" stop-color="#ff9900"/>
      <stop offset="0.5058823529411764" stop-color="#ffcc00"/>
      <stop offset="1.0" stop-color="#ff9a00"/>
    </linearGradient>
    <linearGradient gradientTransform="matrix(-6.0E-4, 0.0412, -0.0079, -1.0E-4, 380.45, 58.85)" gradientUnits="userSpaceOnUse" id="gradient31" spreadMethod="pad" x1="-819.2" x2="819.2">
      <stop offset="0.0" stop-color="#ff9900"/>
      <stop offset="0.5058823529411764" stop-color="#c17400"/>
      <stop offset="1.0" stop-color="#ff9a00"/>
    </linearGradient>
    <linearGradient gradientTransform="matrix(-0.0015, 0.0403, -0.0078, -3.0E-4, 336.1, 54.15)" gradientUnits="userSpaceOnUse" id="gradient32" spreadMethod="pad" x1="-819.2" x2="819.2">
      <stop offset="0.0" stop-color="#ff9900"/>
      <stop offset="0.5058823529411764" stop-color="#c17400"/>
      <stop offset="1.0" stop-color="#ff9a00"/>
    </linearGradient>
    <linearGradient gradientTransform="matrix(0.0023, 0.0388, -0.0073, 4.0E-4, 324.5, 56.9)" gradientUnits="userSpaceOnUse" id="gradient33" spreadMethod="pad" x1="-819.2" x2="819.2">
      <stop offset="0.0" stop-color="#ff9900"/>
      <stop offset="0.5058823529411764" stop-color="#ffcc00"/>
      <stop offset="1.0" stop-color="#ff9a00"/>
    </linearGradient>
    <linearGradient gradientTransform="matrix(0.0101, 0.0068, -0.0045, 0.0063, 344.75, 92.15)" gradientUnits="userSpaceOnUse" id="gradient34" spreadMethod="pad" x1="-819.2" x2="819.2">
      <stop offset="0.0" stop-color="#ff9900"/>
      <stop offset="0.5058823529411764" stop-color="#c17400"/>
      <stop offset="1.0" stop-color="#ff9a00"/>
    </linearGradient>
    <linearGradient gradientTransform="matrix(0.0098, 0.0066, -0.0054, 0.0076, 337.7, 102.35)" gradientUnits="userSpaceOnUse" id="gradient35" spreadMethod="pad" x1="-819.2" x2="819.2">
      <stop offset="0.0" stop-color="#ff9900"/>
      <stop offset="0.5058823529411764" stop-color="#ffcc00"/>
      <stop offset="1.0" stop-color="#ff9a00"/>
    </linearGradient>
    <linearGradient gradientTransform="matrix(-0.0064, 0.0035, -0.0054, -0.0093, 359.7, 93.95)" gradientUnits="userSpaceOnUse" id="gradient36" spreadMethod="pad" x1="-819.2" x2="819.2">
      <stop offset="0.0" stop-color="#ff9900"/>
      <stop offset="0.5058823529411764" stop-color="#ffcc00"/>
      <stop offset="1.0" stop-color="#ff9a00"/>
    </linearGradient>
    <linearGradient gradientTransform="matrix(-0.0128, 0.0077, -0.0055, -0.0086, 365.85, 104.2)" gradientUnits="userSpaceOnUse" id="gradient37" spreadMethod="pad" x1="-819.2" x2="819.2">
      <stop offset="0.0" stop-color="#ff9900"/>
      <stop offset="0.5058823529411764" stop-color="#c17400"/>
      <stop offset="1.0" stop-color="#ff9a00"/>
    </linearGradient>
    <linearGradient gradientTransform="matrix(-0.0195, 0.0137, -0.0031, -0.0044, 421.65, 28.2)" gradientUnits="userSpaceOnUse" id="gradient38" spreadMethod="pad" x1="-819.2" x2="819.2">
      <stop offset="0.0" stop-color="#ff9900"/>
      <stop offset="0.5058823529411764" stop-color="#ffc500"/>
      <stop offset="1.0" stop-color="#ff9a00"/>
    </linearGradient>
    <linearGradient gradientTransform="matrix(0.0134, 0.0171, -0.0046, 0.0036, 418.65, 57.7)" gradientUnits="userSpaceOnUse" id="gradient39" spreadMethod="pad" x1="-819.2" x2="819.2">
      <stop offset="0.0" stop-color="#ff9900"/>
      <stop offset="0.5058823529411764" stop-color="#c17400"/>
      <stop offset="1.0" stop-color="#ff9a00"/>
    </linearGradient>
    <linearGradient gradientTransform="matrix(-0.0085, 0.0037, -0.0029, -0.0067, 430.15, 34.65)" gradientUnits="userSpaceOnUse" id="gradient40" spreadMethod="pad" x1="-819.2" x2="819.2">
      <stop offset="0.0" stop-color="#c17400"/>
      <stop offset="1.0" stop-color="#ff9900"/>
    </linearGradient>
    <linearGradient gradientTransform="matrix(-0.0122, -0.0155, 0.004, -0.0031, 432.05, 58.2)" gradientUnits="userSpaceOnUse" id="gradient41" spreadMethod="pad" x1="-819.2" x2="819.2">
      <stop offset="0.0" stop-color="#ff9900"/>
      <stop offset="0.5176470588235295" stop-color="#ffc500"/>
      <stop offset="1.0" stop-color="#ff9a00"/>
    </linearGradient>
    <linearGradient gradientTransform="matrix(-0.0098, 0.0085, -0.0059, -0.0067, 419.15, 83.4)" gradientUnits="userSpaceOnUse" id="gradient42" spreadMethod="pad" x1="-819.2" x2="819.2">
      <stop offset="0.0" stop-color="#ff9900"/>
      <stop offset="0.5058823529411764" stop-color="#ffc500"/>
      <stop offset="1.0" stop-color="#ff9a00"/>
    </linearGradient>
    <linearGradient gradientTransform="matrix(0.0153, -0.0149, 0.0063, 0.0064, 433.1, 90.0)" gradientUnits="userSpaceOnUse" id="gradient43" spreadMethod="pad" x1="-819.2" x2="819.2">
      <stop offset="0.0" stop-color="#ff9900"/>
      <stop offset="0.5058823529411764" stop-color="#c17400"/>
      <stop offset="1.0" stop-color="#ff9a00"/>
    </linearGradient>
    <g id="shape2" transform="matrix(1.0, 0.0, 0.0, 1.0, 0.5, 0.5)">
      <path d="M700.0 0.0 L700.0 400.0 0.0 400.0 0.0 0.0 700.0 0.0 Z" fill="none" stroke="#010101" stroke-linecap="round" stroke-linejoin="round" stroke-opacity="0.0" stroke-width="1.0"/>
    </g>
  </defs>
</svg>
