<?xml version="1.0" encoding="UTF-8" standalone="no"?>
<svg xmlns:ffdec="https://www.free-decompiler.com/flash" xmlns:xlink="http://www.w3.org/1999/xlink" ffdec:objectType="frame" height="98.05px" width="37.35px" xmlns="http://www.w3.org/2000/svg">
  <g transform="matrix(1.0, 0.0, 0.0, 1.0, 16.85, 97.55)">
    <use ffdec:characterId="91" height="84.0" transform="matrix(1.0, 0.0, 0.0, 1.0, -16.85, -83.95)" width="33.3" xlink:href="#shape0"/>
  </g>
  <defs>
    <g id="shape0" transform="matrix(1.0, 0.0, 0.0, 1.0, 16.85, 83.95)">
      <path d="M0.6 -83.95 L2.4 -83.8 2.5 -83.75 2.55 -83.05 2.4 -82.2 2.35 -82.0 1.45 -81.8 0.65 -82.05 Q0.45 -82.15 0.4 -82.2 L0.4 -82.9 0.4 -83.6 0.6 -83.95 M4.55 -61.4 Q7.6 -58.85 9.45 -55.85 11.35 -52.7 11.35 -49.95 11.35 -47.55 9.15 -45.4 6.95 -43.2 6.95 -42.05 L7.05 -40.85 Q10.35 -39.6 13.2 -35.5 16.45 -30.85 16.45 -27.45 16.45 -26.45 14.7 -23.75 12.95 -21.05 12.95 -20.5 12.95 -19.2 14.7 -16.55 16.45 -13.95 16.45 -12.65 16.45 -6.45 4.2 -0.8 L2.1 -0.8 2.0 -0.75 -0.2 0.05 -1.1 0.0 -2.4 0.05 Q-9.0 0.05 -13.55 -8.15 -15.0 -10.85 -16.05 -13.95 L-16.85 -16.7 Q-16.85 -20.85 -12.45 -24.05 L-9.45 -26.3 Q-8.05 -27.5 -8.05 -28.85 -8.05 -30.45 -10.7 -33.75 -13.35 -37.0 -13.35 -39.05 -13.35 -40.55 -7.2 -47.2 -3.85 -50.8 -2.35 -53.1 L-2.2 -53.95 -1.85 -57.2 -2.15 -57.5 -2.3 -57.65 -2.25 -58.25 Q-2.25 -60.2 -3.1 -61.75 L-2.9 -64.15 Q-2.4 -65.55 -0.5 -66.5 1.75 -65.15 2.15 -64.2 2.7 -62.95 4.55 -61.4 M3.55 -64.65 L4.9 -63.45 4.75 -63.45 Q3.6 -64.1 3.1 -65.15 L3.55 -64.65 M3.65 -17.0 Q6.5 -17.2 6.5 -22.25 6.5 -26.95 2.8 -25.9 1.45 -25.5 0.25 -24.55 -0.95 -23.55 -0.95 -22.9 -0.95 -22.0 -0.4 -20.8 -2.35 -21.2 -4.4 -19.75 -7.05 -17.8 -7.05 -15.9 L-7.1 -14.75 Q-7.1 -13.45 -6.65 -12.4 -5.1 -9.15 0.4 -9.15 2.75 -9.15 3.9 -10.6 4.75 -11.65 4.75 -13.05 4.75 -14.7 3.8 -16.75 L3.65 -17.0 M-0.5 -77.9 Q-0.5 -77.25 -1.35 -76.2 L-2.25 -75.25 Q-3.55 -76.55 -3.55 -77.45 -3.55 -79.85 -0.65 -78.95 L-0.6 -78.75 -0.5 -77.9" fill="#ff9933" fill-rule="evenodd" stroke="none"/>
      <path d="M3.65 -17.0 L3.8 -16.75 Q4.75 -14.7 4.75 -13.05 4.75 -11.65 3.9 -10.6 2.75 -9.15 0.4 -9.15 -5.1 -9.15 -6.65 -12.4 -7.1 -13.45 -7.1 -14.75 L-7.05 -15.9 Q-7.05 -17.8 -4.4 -19.75 -2.35 -21.2 -0.4 -20.8 -0.95 -22.0 -0.95 -22.9 -0.95 -23.55 0.25 -24.55 1.45 -25.5 2.8 -25.9 6.5 -26.95 6.5 -22.25 6.5 -17.2 3.65 -17.0" fill="#fdcd73" fill-rule="evenodd" stroke="none"/>
    </g>
  </defs>
</svg>
