<?xml version="1.0" encoding="UTF-8" standalone="no"?>
<svg xmlns:ffdec="https://www.free-decompiler.com/flash" xmlns:xlink="http://www.w3.org/1999/xlink" ffdec:objectType="frame" height="325.05px" width="346.05px" xmlns="http://www.w3.org/2000/svg">
  <g transform="matrix(1.0, 0.0, 0.0, 1.0, 188.85, 267.75)">
    <use ffdec:characterId="707" height="26.5" transform="matrix(1.0, 0.0, 0.0, 1.0, -9.9, -201.6)" width="23.6" xlink:href="#shape0"/>
  </g>
  <defs>
    <g id="shape0" transform="matrix(1.0, 0.0, 0.0, 1.0, 0.0, 0.0)">
      <path d="M12.3 4.1 L13.2 5.15 8.7 5.4 Q5.15 6.9 3.4 9.0 L2.95 8.15 Q2.5 7.4 1.85 7.1 2.5 5.65 4.1 4.0 6.75 1.25 9.95 1.25 L12.3 4.1 M12.8 7.6 L17.2 7.5 18.7 8.7 20.15 9.8 Q21.75 11.15 22.1 12.55 L22.25 15.1 Q22.25 17.5 20.65 20.4 18.15 25.0 13.15 25.0 7.15 25.0 4.4 21.5 2.7 19.35 2.7 16.95 2.7 14.1 3.9 11.65 4.4 11.65 4.6 11.35 L4.7 10.9 4.45 10.65 Q6.7 7.05 11.2 6.65 11.35 7.45 11.7 7.6 L12.8 7.6 M12.65 14.1 Q13.5 13.25 13.5 12.05 13.5 10.7 12.65 10.0 11.9 9.3 10.8 9.4 9.7 9.45 8.95 10.25 8.1 11.1 8.1 12.45 7.9 13.15 8.05 13.8 8.35 15.0 9.95 15.0 11.65 15.0 12.65 14.1" fill="#333333" fill-opacity="0.0" fill-rule="evenodd" stroke="none"/>
      <path d="M12.3 4.1 L9.95 1.25 Q6.75 1.25 4.1 4.0 2.5 5.65 1.85 7.1 2.5 7.4 2.95 8.15 L3.4 9.0 Q5.15 6.9 8.7 5.4 L13.2 5.15 12.3 4.1 M18.4 6.5 Q20.45 7.45 21.4 8.95 23.25 11.75 23.5 12.5 L23.6 15.3 Q23.6 18.45 21.45 21.85 18.45 26.5 13.15 26.5 5.6 26.5 2.8 22.1 1.35 19.9 1.35 16.95 1.35 12.7 2.3 10.65 L2.35 10.55 2.0 10.05 0.0 7.85 0.0 7.1 0.85 6.95 0.65 6.55 Q0.65 4.6 3.0 2.4 5.6 -0.05 8.7 0.0 11.15 0.05 12.95 2.3 L15.05 5.35 Q17.6 5.7 18.4 6.5 M12.8 7.6 L11.7 7.6 Q11.35 7.45 11.2 6.65 6.7 7.05 4.45 10.65 L4.7 10.9 4.6 11.35 Q4.4 11.65 3.9 11.65 2.7 14.1 2.7 16.95 2.7 19.35 4.4 21.5 7.15 25.0 13.15 25.0 18.15 25.0 20.65 20.4 22.25 17.5 22.25 15.1 L22.1 12.55 Q21.75 11.15 20.15 9.8 L18.7 8.7 17.2 7.5 12.8 7.6" fill="#000000" fill-opacity="0.0" fill-rule="evenodd" stroke="none"/>
      <path d="M12.65 14.1 Q11.65 15.0 9.95 15.0 8.35 15.0 8.05 13.8 7.9 13.15 8.1 12.45 8.1 11.1 8.95 10.25 9.7 9.45 10.8 9.4 11.9 9.3 12.65 10.0 13.5 10.7 13.5 12.05 13.5 13.25 12.65 14.1" fill="#666666" fill-opacity="0.0" fill-rule="evenodd" stroke="none"/>
    </g>
  </defs>
</svg>
