<?xml version="1.0" encoding="UTF-8" standalone="no"?>
<svg xmlns:ffdec="https://www.free-decompiler.com/flash" xmlns:xlink="http://www.w3.org/1999/xlink" ffdec:objectType="frame" height="132.85px" width="334.15px" xmlns="http://www.w3.org/2000/svg">
  <g transform="matrix(1.0, 0.0, 0.0, 1.0, 121.85, 70.0)">
    <use ffdec:characterId="734" height="79.85" transform="matrix(-0.9292, 0.0375, 0.0477, 1.1823, 154.3437, -50.1342)" width="104.65" xlink:href="#shape0"/>
    <use ffdec:characterId="734" height="79.85" transform="matrix(1.2855, 0.0519, -0.0578, 1.4314, -63.4762, -69.9779)" width="104.65" xlink:href="#shape0"/>
    <use ffdec:characterId="733" height="79.85" transform="matrix(0.8703, 0.0348, -0.0285, 0.7144, -86.9288, -17.3235)" width="104.65" xlink:href="#shape1"/>
    <use ffdec:characterId="734" height="79.85" transform="matrix(-0.9325, 0.037, 0.037, 0.9325, 122.5437, -32.5394)" width="104.65" xlink:href="#shape0"/>
    <use ffdec:characterId="734" height="79.85" transform="matrix(0.8498, 0.0373, -0.0373, 0.8498, -16.5098, -23.3573)" width="104.65" xlink:href="#shape0"/>
    <use ffdec:characterId="733" height="79.85" transform="matrix(-0.8413, 0.0336, 0.0303, 0.7587, 183.9385, -18.3287)" width="104.65" xlink:href="#shape1"/>
    <use ffdec:characterId="733" height="79.85" transform="matrix(-0.5715, 0.0228, 0.0259, 0.6493, 124.9538, 4.5488)" width="104.65" xlink:href="#shape1"/>
    <use ffdec:characterId="733" height="79.85" transform="matrix(0.681, 0.0272, -0.029, 0.7259, -25.5589, -2.1872)" width="104.65" xlink:href="#shape1"/>
    <use ffdec:characterId="733" height="79.85" transform="matrix(0.3996, 0.0174, -0.0174, 0.3996, -38.0557, 22.1457)" width="104.65" xlink:href="#shape1"/>
    <use ffdec:characterId="734" height="79.85" transform="matrix(-0.787, 0.0318, 0.0318, 0.787, 110.0911, -5.7617)" width="104.65" xlink:href="#shape0"/>
    <use ffdec:characterId="734" height="79.85" transform="matrix(0.7124, 0.0316, -0.0316, 0.7124, -5.0459, 2.42)" width="104.65" xlink:href="#shape0"/>
    <use ffdec:characterId="733" height="79.85" transform="matrix(-0.3996, 0.0174, 0.0174, 0.3996, 139.9557, 23.8957)" width="104.65" xlink:href="#shape1"/>
  </g>
  <defs>
    <g id="shape0" transform="matrix(1.0, 0.0, 0.0, 1.0, 52.3, 39.9)">
      <path d="M4.8 -16.65 L3.3 -19.25 2.1 -21.45 1.5 -23.75 1.55 -23.75 Q8.5 -14.05 27.0 6.85 27.6 10.35 28.65 14.0 L30.05 18.6 Q31.0 21.25 31.4 26.0 31.75 30.9 32.5 33.15 L33.15 32.85 33.35 28.35 33.1 24.15 32.8 22.65 31.05 15.55 30.65 14.05 29.75 10.75 29.25 8.9 Q28.45 6.3 27.55 5.0 L27.65 4.95 28.3 6.2 27.9 2.75 28.1 0.5 28.15 0.15 28.5 -2.95 Q31.05 -0.05 32.75 3.25 L35.7 8.2 35.8 8.35 35.95 8.55 36.5 11.6 36.65 14.1 Q36.95 16.85 37.95 21.5 39.45 29.05 39.4 31.85 L39.35 33.85 39.35 34.0 37.9 34.0 Q36.15 33.95 34.7 34.05 L34.4 32.4 34.15 32.55 34.1 34.1 Q30.4 34.25 28.7 34.95 L27.9 35.35 Q26.4 32.2 23.95 24.95 L20.05 13.9 Q17.9 8.1 16.7 5.95 12.65 -1.2 8.4 -10.1 L4.8 -16.65 M-12.1 -16.25 Q-9.9 -14.75 -8.0 -13.6 L-7.15 -12.9 -2.0 -8.5 Q2.1 -4.75 2.75 -4.5 2.9 -4.1 3.35 -3.65 L3.8 -3.35 4.5 -2.8 5.55 1.1 6.5 6.3 6.95 8.85 5.25 7.7 3.25 6.45 Q0.65 4.95 0.65 5.8 0.65 7.6 2.05 13.7 L2.05 13.75 2.0 13.7 -4.65 8.45 -8.3 -1.4 -12.05 -12.95 -12.35 -13.9 -12.1 -16.25 M16.65 34.3 Q14.85 31.1 12.25 24.55 L7.65 11.9 7.7 11.5 11.2 13.45 11.3 13.45 11.35 13.55 11.4 13.8 Q11.7 14.8 13.7 18.7 16.05 23.35 17.25 25.1 L21.2 31.95 23.7 35.9 23.4 35.9 22.95 35.85 21.65 35.7 20.95 34.55 20.85 35.45 20.3 35.25 20.0 35.1 19.95 35.05 Q18.75 34.15 17.1 34.15 L16.65 34.3 M2.05 31.3 Q-0.4 28.3 -3.85 23.1 L-9.95 13.55 Q-11.7 10.45 -11.7 9.65 -11.7 7.8 -8.75 9.85 -6.85 11.2 -4.5 13.6 L-2.3 15.95 Q0.8 19.4 3.05 22.7 L4.1 24.3 5.05 26.0 7.45 34.95 7.4 34.95 3.55 32.25 2.9 31.85 2.05 31.3 M0.75 35.95 L-0.3 34.4 Q-2.0 31.55 -2.1 30.55 L0.95 32.6 1.05 32.65 1.15 32.7 1.6 33.05 2.9 33.95 6.15 36.0 0.75 35.95 M-23.0 -0.7 L-20.7 0.1 -20.5 0.15 -20.3 0.1 -18.1 4.05 -27.8 4.05 Q-28.15 4.05 -28.5 4.35 L-28.55 4.4 Q-29.8 3.1 -29.8 5.0 L-29.8 5.45 Q-28.6 6.7 -24.1 13.35 L-24.1 13.4 -24.15 13.35 -24.65 13.15 Q-24.7 12.45 -25.3 12.45 L-25.3 12.55 -25.4 12.8 -25.75 12.6 -28.9 11.3 -29.0 11.25 -29.4 10.6 -30.4 8.75 -31.4 6.55 -33.5 1.85 -33.0 1.0 Q-32.45 0.3 -31.75 0.3 L-28.85 1.8 Q-25.8 3.3 -25.0 3.3 -24.6 3.3 -23.8 1.3 L-23.0 -0.7 M-26.95 14.15 Q-25.85 14.45 -25.15 14.7 L-24.2 14.85 -24.1 14.85 -23.55 14.6 -23.4 14.4 -20.35 19.05 Q-14.1 28.55 -11.8 28.55 L-11.5 28.55 -10.75 29.75 -10.75 29.95 -10.8 30.35 -17.75 27.75 -18.55 27.5 -19.0 27.1 -19.15 27.3 -23.25 26.15 -23.3 26.45 Q-25.9 23.35 -30.0 16.4 -29.95 15.7 -28.65 15.1 L-26.95 14.15 M-13.85 36.0 L-16.1 33.35 -19.9 28.5 -19.6 28.6 -16.5 30.1 -15.1 30.8 -15.0 30.85 -12.8 31.95 -12.5 32.1 -11.85 32.4 Q-11.7 32.45 -11.5 32.55 L-11.4 32.6 -9.95 33.3 -6.75 36.9 -8.5 37.2 Q-8.75 37.7 -9.45 37.7 -9.9 37.7 -11.3 36.8 -12.7 35.95 -13.55 35.95 L-13.6 35.95 -13.85 36.0 M-30.6 31.55 L-29.95 31.65 -22.1 33.05 -21.3 33.2 -20.7 33.75 -20.6 33.85 -18.85 37.45 Q-19.3 37.05 -21.45 36.55 L-24.5 35.8 -26.6 35.8 -27.55 35.05 Q-30.15 32.9 -30.8 31.5 L-30.6 31.55" fill="#9bd9d8" fill-rule="evenodd" stroke="none"/>
      <path d="M2.1 -21.45 L5.05 -9.3 Q8.35 4.8 8.35 8.55 L8.3 9.4 8.25 9.8 8.45 9.95 8.75 10.1 11.0 11.75 11.45 12.1 11.95 12.45 11.85 13.05 12.45 13.8 Q17.5 21.1 25.2 35.95 L27.2 35.65 27.9 35.35 28.7 34.95 Q30.4 34.25 34.1 34.1 L34.7 34.05 Q36.15 33.95 37.9 34.0 L39.35 34.0 40.35 33.8 41.2 33.35 45.1 33.2 48.9 33.4 49.0 33.45 49.2 33.45 50.2 33.5 42.5 19.85 38.75 13.2 35.95 8.55 35.8 8.35 35.7 8.2 32.75 3.25 Q31.05 -0.05 28.5 -2.95 L28.15 0.15 28.1 0.5 27.9 2.75 27.75 4.9 27.65 4.95 27.55 5.0 Q28.45 6.3 29.25 8.9 L29.75 10.75 30.65 14.05 31.05 15.55 32.8 22.65 33.1 24.15 33.35 28.35 33.15 32.85 32.5 33.15 Q31.75 30.9 31.4 26.0 31.0 21.25 30.05 18.6 L28.65 14.0 Q27.6 10.35 27.0 6.85 8.5 -14.05 1.55 -23.75 L1.5 -23.75 2.1 -21.45 M0.65 -29.0 L4.1 -22.85 8.4 -17.95 12.75 -13.0 21.05 -3.1 26.35 3.65 26.25 3.05 26.2 -2.0 Q26.3 -3.9 26.85 -5.0 L26.4 -6.15 26.4 -6.65 27.65 -5.9 27.75 -6.05 28.3 -5.5 Q32.1 -2.8 34.8 2.05 L37.4 7.4 40.35 12.95 41.05 14.15 47.5 25.25 Q52.35 33.65 52.35 34.15 L52.2 34.8 51.55 35.2 Q42.15 34.7 40.9 35.15 L40.3 35.5 38.15 35.65 36.95 35.4 36.3 35.05 Q30.45 35.2 28.3 36.5 L26.85 37.3 24.6 37.65 Q21.1 37.6 19.65 36.7 18.2 35.75 18.0 35.75 L13.7 36.9 9.8 38.1 9.05 38.0 8.9 37.9 8.9 37.6 8.4 37.75 -1.4 37.8 Q-2.0 38.0 -1.85 38.15 L-1.6 38.35 -7.25 38.65 -8.25 39.4 Q-8.5 39.7 -8.85 39.7 L-11.15 38.65 Q-13.0 37.65 -13.45 37.65 -14.05 37.6 -14.65 38.65 -15.3 39.8 -15.65 39.95 L-16.1 39.4 -16.25 39.6 -17.15 39.9 -20.65 38.65 -24.35 37.4 -29.6 37.45 -30.8 38.6 -31.95 39.7 -32.45 39.4 Q-34.55 38.85 -39.55 33.8 L-43.85 29.3 -44.1 29.2 -44.25 28.95 -44.6 28.7 -44.25 28.1 -43.95 27.6 -42.5 27.55 -37.85 28.5 Q-40.15 26.6 -44.3 19.6 L-47.95 13.1 Q-50.5 8.3 -52.3 3.9 -50.45 3.2 -44.75 5.1 -42.0 6.0 -36.3 8.35 L-42.35 -0.15 -49.05 -10.9 -36.55 -7.3 Q-25.4 -3.9 -21.2 -1.65 L-22.3 -3.8 -27.2 -13.15 -29.65 -17.85 -36.0 -28.7 Q-40.15 -36.0 -41.2 -39.0 L-41.5 -39.3 -41.45 -39.4 -41.1 -39.9 -39.9 -39.65 -39.75 -39.65 -39.5 -39.2 -31.8 -33.0 Q-23.9 -26.35 -20.05 -23.7 -16.75 -21.05 -6.65 -14.6 L-4.25 -12.9 Q1.95 -8.4 3.35 -5.5 L3.55 -5.15 3.95 -5.1 3.4 -7.3 3.0 -9.1 2.15 -12.8 0.4 -20.6 -1.35 -29.25 Q-1.35 -32.45 0.65 -29.0 M-4.65 8.45 L2.0 13.7 2.05 13.75 2.05 13.7 Q0.65 7.6 0.65 5.8 0.65 4.95 3.25 6.45 L5.25 7.7 6.95 8.85 6.5 6.3 5.55 1.1 4.5 -2.8 3.8 -3.35 3.35 -3.65 Q2.9 -4.1 2.75 -4.5 2.1 -4.75 -2.0 -8.5 L-7.15 -12.9 -8.0 -13.6 Q-9.9 -14.75 -12.1 -16.25 L-14.95 -18.2 -21.0 -22.5 Q-24.3 -24.8 -30.6 -30.0 L-33.6 -32.5 -37.8 -36.0 -28.3 -18.7 -25.3 -13.15 Q-19.95 -3.1 -17.0 3.7 L-16.85 4.05 -16.65 4.0 -15.05 3.7 -14.35 3.7 -14.35 3.15 -14.25 3.15 -13.7 3.3 -13.1 3.5 -13.1 3.45 Q-9.6 4.7 -5.25 8.0 L-4.65 8.45 M7.7 11.5 L7.15 11.15 3.2 8.7 2.8 8.45 3.2 10.5 3.85 13.7 5.55 21.1 8.65 33.75 8.6 35.8 8.45 35.85 9.15 36.75 Q9.95 36.3 12.95 35.35 L16.65 34.3 17.1 34.15 Q18.75 34.15 19.95 35.05 L20.0 35.1 20.3 35.25 20.85 35.45 21.65 35.7 22.95 35.85 23.4 35.9 23.7 35.9 21.2 31.95 17.25 25.1 Q16.05 23.35 13.7 18.7 11.7 14.8 11.4 13.8 L11.35 13.55 11.35 13.45 11.3 13.45 11.2 13.45 7.7 11.5 M5.05 26.0 L4.15 22.55 3.1 18.2 2.45 15.5 2.25 15.5 Q1.45 15.5 -1.15 13.65 L-5.45 10.35 Q-11.85 5.15 -13.5 5.15 L-13.8 5.15 -14.25 5.05 -14.4 5.0 -14.4 4.9 -16.75 5.7 -17.7 5.75 -22.3 5.75 -25.65 5.8 -27.2 5.85 -27.4 5.85 -27.4 5.9 -26.7 6.95 -22.35 13.4 -21.15 15.2 -16.65 21.2 Q-13.8 24.85 -11.0 27.55 L-11.15 28.25 -11.15 28.4 Q-11.25 28.55 -11.5 28.55 L-11.8 28.55 Q-14.1 28.55 -20.35 19.05 L-23.4 14.4 -23.55 14.6 -24.1 14.85 -24.2 14.85 -25.15 14.7 Q-25.85 14.45 -26.95 14.15 L-29.3 13.3 -35.8 10.85 Q-42.8 8.25 -47.5 6.3 L-49.4 5.5 -49.45 5.35 -49.55 5.8 Q-49.55 6.6 -45.55 13.1 L-43.55 16.35 -35.65 28.8 -35.75 28.95 -35.55 29.0 -33.5 29.4 -33.4 29.45 -33.2 29.5 -32.5 29.6 -23.6 30.8 -21.9 31.15 Q-23.35 28.0 -23.35 27.05 L-23.25 26.15 -19.15 27.3 -18.55 27.5 -17.75 27.75 -10.8 30.35 -10.15 30.65 -9.3 31.05 -4.05 33.85 -3.75 34.05 -3.85 33.35 -4.1 31.3 -4.25 29.3 -4.2 28.5 Q-2.45 28.55 2.05 31.3 L2.9 31.85 3.55 32.25 7.4 34.95 7.5 35.05 7.45 34.95 5.05 26.0 M-2.1 30.55 L-2.4 30.4 Q-2.45 33.3 -1.85 35.95 L0.75 35.95 6.15 36.0 2.9 33.95 1.6 33.05 1.15 32.7 1.05 32.65 0.95 32.6 -2.1 30.55 M-45.45 -8.3 L-45.55 -8.3 -44.95 -7.5 -44.9 -7.4 -44.9 -7.35 -44.5 -6.7 -34.05 7.85 -34.0 7.95 -33.9 8.05 -33.85 8.1 -33.75 8.25 -33.65 8.35 -33.55 8.45 -33.45 8.55 -32.35 9.85 -32.4 9.9 -29.65 11.0 -29.0 11.25 -28.9 11.3 -25.75 12.6 -25.4 12.8 -24.65 13.15 -24.15 13.35 -24.1 13.4 -24.1 13.35 Q-28.6 6.7 -29.8 5.45 L-29.8 5.0 Q-29.8 3.1 -28.55 4.4 L-28.5 4.35 Q-28.15 4.05 -27.8 4.05 L-18.1 4.05 -20.3 0.1 -20.5 0.15 -20.7 0.1 -23.0 -0.7 -42.25 -7.35 -45.2 -8.3 -45.45 -8.3 M-19.6 28.6 Q-21.45 27.7 -21.5 27.7 -18.7 34.2 -16.3 38.55 -16.15 38.05 -15.4 37.2 -14.5 36.15 -13.85 36.0 L-13.6 35.95 -13.55 35.95 Q-12.7 35.95 -11.3 36.8 -9.9 37.7 -9.45 37.7 -8.75 37.7 -8.5 37.2 L-6.75 36.9 Q-5.5 36.8 -3.45 36.85 L-3.6 35.75 Q-4.8 35.7 -9.95 33.3 L-11.4 32.6 -11.5 32.55 Q-11.7 32.45 -11.85 32.4 L-12.5 32.1 -12.8 31.95 -15.0 30.85 -15.1 30.8 -16.5 30.1 -19.6 28.6 M-40.4 29.85 L-41.15 29.7 -39.25 31.3 -38.9 31.6 -32.4 37.4 -32.2 37.1 -31.2 36.5 -30.05 35.75 -26.6 35.8 -24.5 35.8 -21.45 36.55 Q-19.3 37.05 -18.85 37.45 L-20.6 33.85 -20.9 33.3 -21.3 33.2 -22.1 33.05 -29.95 31.65 -30.6 31.55 -37.6 30.3 -40.4 29.85" fill="#83cfcd" fill-rule="evenodd" stroke="none"/>
      <path d="M2.1 -21.45 L3.3 -19.25 4.8 -16.65 7.3 -6.6 9.9 4.7 11.45 12.1 11.0 11.75 8.75 10.1 8.45 9.95 8.3 9.4 8.35 8.55 Q8.35 4.8 5.05 -9.3 L2.1 -21.45 M-13.1 3.45 L-13.1 3.5 -13.7 3.3 -14.25 3.15 -14.35 3.15 -14.35 3.7 -15.05 3.7 -16.65 4.0 -17.0 3.7 Q-19.95 -3.1 -25.3 -13.15 L-28.3 -18.7 -37.8 -36.0 -33.6 -32.5 -30.6 -30.0 -26.9 -23.4 -21.3 -13.1 Q-15.95 -3.05 -13.1 3.45 M45.1 33.2 Q44.45 31.35 43.75 28.2 L42.3 20.7 Q42.3 20.0 42.5 19.85 L50.2 33.5 49.2 33.45 49.0 33.45 48.9 33.4 45.1 33.2 M-13.8 5.15 L-13.2 7.75 -12.65 11.65 -12.65 12.25 -12.8 12.6 -12.9 12.75 -13.45 12.85 Q-14.3 12.85 -16.25 8.75 L-17.7 5.75 -16.75 5.7 -14.4 4.9 -14.4 5.0 -14.25 5.05 -13.8 5.15 M-25.65 5.8 L-19.6 12.55 -18.8 13.4 -11.4 21.8 Q-10.4 21.85 -6.05 28.35 L-4.1 31.3 -3.85 33.35 -3.75 34.05 -4.05 33.85 -9.3 31.05 -10.15 30.65 -10.75 29.95 -10.75 29.75 -11.5 28.55 Q-11.25 28.55 -11.15 28.4 L-11.15 28.25 -11.0 27.55 Q-13.8 24.85 -16.65 21.2 L-21.15 15.2 -22.35 13.4 -26.7 6.95 -27.2 5.85 -25.65 5.8 M-45.45 -8.3 L-45.2 -8.3 -42.25 -7.35 -38.15 -2.2 -31.4 6.55 -30.4 8.75 -29.4 10.6 -29.65 11.0 -32.4 9.9 -32.35 9.85 -33.45 8.55 -33.55 8.45 -33.65 8.35 -33.75 8.25 -33.85 8.1 -33.9 8.05 -34.0 7.95 -34.05 7.85 -44.5 -6.7 -44.9 -7.35 -44.9 -7.4 -44.95 -7.5 -45.45 -8.3 M-35.65 28.8 L-43.55 16.35 -45.55 13.1 Q-49.55 6.6 -49.55 5.8 L-49.45 5.35 -49.4 5.5 -47.5 6.3 Q-45.6 8.65 -42.55 13.15 L-41.2 15.25 Q-34.45 25.55 -32.5 29.6 L-33.2 29.5 -33.4 29.45 -33.5 29.4 -35.55 29.0 -35.65 28.8 M-40.4 29.85 L-37.6 30.3 Q-36.2 31.35 -35.1 32.3 -32.55 34.55 -31.2 36.5 L-32.2 37.1 -32.4 37.4 -38.9 31.6 -39.25 31.3 -40.4 29.85" fill="#ffffff" fill-rule="evenodd" stroke="none"/>
      <path d="M8.3 9.4 L8.45 9.95 8.25 9.8 8.3 9.4 M11.45 12.1 L9.9 4.7 7.3 -6.6 4.8 -16.65 8.4 -10.1 Q12.65 -1.2 16.7 5.95 17.9 8.1 20.05 13.9 L23.95 24.95 Q26.4 32.2 27.9 35.35 L27.2 35.65 25.2 35.95 Q17.5 21.1 12.45 13.8 L11.85 13.05 11.95 12.45 11.45 12.1 M34.1 34.1 L34.15 32.55 34.4 32.4 34.7 34.05 34.1 34.1 M39.35 34.0 L39.35 33.85 39.4 31.85 Q39.45 29.05 37.95 21.5 36.95 16.85 36.65 14.1 L36.5 11.6 35.95 8.55 38.75 13.2 42.5 19.85 Q42.3 20.0 42.3 20.7 L43.75 28.2 Q44.45 31.35 45.1 33.2 L41.2 33.35 40.35 33.8 39.35 34.0 M27.9 2.75 L28.3 6.2 27.65 4.95 27.75 4.9 27.9 2.75 M-12.1 -16.25 L-12.35 -13.9 -12.05 -12.95 -8.3 -1.4 -4.65 8.45 -5.25 8.0 Q-9.6 4.7 -13.1 3.45 -15.95 -3.05 -21.3 -13.1 L-26.9 -23.4 -30.6 -30.0 Q-24.3 -24.8 -21.0 -22.5 L-14.95 -18.2 -12.1 -16.25 M-16.65 4.0 L-16.85 4.05 -17.0 3.7 -16.65 4.0 M7.7 11.5 L7.65 11.9 12.25 24.55 Q14.85 31.1 16.65 34.3 L12.95 35.35 Q9.95 36.3 9.15 36.75 L8.45 35.85 8.6 35.8 8.65 33.75 5.55 21.1 3.85 13.7 3.2 10.5 2.8 8.45 3.2 8.7 7.15 11.15 7.7 11.5 M20.85 35.45 L20.95 34.55 21.65 35.7 20.85 35.45 M11.35 13.55 L11.3 13.45 11.35 13.45 11.35 13.55 M-13.8 5.15 L-13.5 5.15 Q-11.85 5.15 -5.45 10.35 L-1.15 13.65 Q1.45 15.5 2.25 15.5 L2.45 15.5 3.1 18.2 4.15 22.55 5.05 26.0 4.1 24.3 3.05 22.7 Q0.8 19.4 -2.3 15.95 L-4.5 13.6 Q-6.85 11.2 -8.75 9.85 -11.7 7.8 -11.7 9.65 -11.7 10.45 -9.95 13.55 L-3.85 23.1 Q-0.4 28.3 2.05 31.3 -2.45 28.55 -4.2 28.5 L-4.25 29.3 -4.1 31.3 -6.05 28.35 Q-10.4 21.85 -11.4 21.8 L-18.8 13.4 -19.6 12.55 -25.65 5.8 -22.3 5.75 -17.7 5.75 -16.25 8.75 Q-14.3 12.85 -13.45 12.85 L-12.9 12.75 -12.8 12.6 -12.65 12.25 -12.65 11.65 -13.2 7.75 -13.8 5.15 M7.45 34.95 L7.5 35.05 7.4 34.95 7.45 34.95 M0.75 35.95 L-1.85 35.95 Q-2.45 33.3 -2.4 30.4 L-2.1 30.55 Q-2.0 31.55 -0.3 34.4 L0.75 35.95 M-44.95 -7.5 L-45.55 -8.3 -45.45 -8.3 -44.95 -7.5 M-42.25 -7.35 L-23.0 -0.7 -23.8 1.3 Q-24.6 3.3 -25.0 3.3 -25.8 3.3 -28.85 1.8 L-31.75 0.3 Q-32.45 0.3 -33.0 1.0 L-33.5 1.85 -31.4 6.55 -38.15 -2.2 -42.25 -7.35 M-24.65 13.15 L-25.4 12.8 -25.3 12.55 -25.3 12.45 Q-24.7 12.45 -24.65 13.15 M-29.0 11.25 L-29.65 11.0 -29.4 10.6 -29.0 11.25 M-35.65 28.8 L-35.55 29.0 -35.75 28.95 -35.65 28.8 M-32.5 29.6 Q-34.45 25.55 -41.2 15.25 L-42.55 13.15 Q-45.6 8.65 -47.5 6.3 -42.8 8.25 -35.8 10.85 L-29.3 13.3 -26.95 14.15 -28.65 15.1 Q-29.95 15.7 -30.0 16.4 -25.9 23.35 -23.3 26.45 L-23.25 26.15 -23.35 27.05 Q-23.35 28.0 -21.9 31.15 L-23.6 30.8 -32.5 29.6 M-26.7 6.95 L-27.4 5.9 -27.4 5.85 -27.2 5.85 -26.7 6.95 M-19.15 27.3 L-19.0 27.1 -18.55 27.5 -19.15 27.3 M-10.8 30.35 L-10.75 29.95 -10.15 30.65 -10.8 30.35 M-13.85 36.0 Q-14.5 36.15 -15.4 37.2 -16.15 38.05 -16.3 38.55 -18.7 34.2 -21.5 27.7 -21.45 27.7 -19.6 28.6 L-19.9 28.5 -16.1 33.35 -13.85 36.0 M-9.95 33.3 Q-4.8 35.7 -3.6 35.75 L-3.45 36.85 Q-5.5 36.8 -6.75 36.9 L-9.95 33.3 M-39.25 31.3 L-41.15 29.7 -40.4 29.85 -39.25 31.3 M-37.6 30.3 L-30.6 31.55 -30.8 31.5 Q-30.15 32.9 -27.55 35.05 L-26.6 35.8 -30.05 35.75 -31.2 36.5 Q-32.55 34.55 -35.1 32.3 -36.2 31.35 -37.6 30.3 M-21.3 33.2 L-20.9 33.3 -20.6 33.85 -20.7 33.75 -21.3 33.2" fill="#c9eae9" fill-rule="evenodd" stroke="none"/>
    </g>
    <g id="shape1" transform="matrix(1.0, 0.0, 0.0, 1.0, 52.3, 39.9)">
      <path d="M0.65 -29.0 L4.1 -22.85 8.4 -17.95 12.75 -13.0 21.05 -3.1 26.35 3.65 26.25 3.05 26.2 -2.0 Q26.3 -3.9 26.85 -5.0 L26.4 -6.15 26.4 -6.65 27.65 -5.9 27.75 -6.05 28.3 -5.5 Q32.1 -2.8 34.8 2.05 L37.4 7.4 40.35 12.95 41.05 14.15 47.5 25.25 Q52.35 33.65 52.35 34.15 L52.2 34.8 51.55 35.2 Q42.15 34.7 40.9 35.15 L40.3 35.5 38.15 35.65 36.95 35.4 36.3 35.05 Q30.45 35.2 28.3 36.5 L26.85 37.3 24.6 37.65 Q21.1 37.6 19.65 36.7 18.2 35.75 18.0 35.75 L13.7 36.9 9.8 38.1 9.05 38.0 8.9 37.9 8.9 37.6 8.4 37.75 -1.4 37.8 Q-2.0 38.0 -1.85 38.15 L-1.6 38.35 -7.25 38.65 -8.25 39.4 Q-8.5 39.7 -8.85 39.7 L-11.15 38.65 Q-13.0 37.65 -13.45 37.65 -14.05 37.6 -14.65 38.65 -15.3 39.8 -15.65 39.95 L-16.1 39.4 -16.25 39.6 -17.15 39.9 -20.65 38.65 -24.35 37.4 -29.6 37.45 -30.8 38.6 -31.95 39.7 -32.45 39.4 Q-34.55 38.85 -39.55 33.8 L-43.85 29.3 -44.1 29.2 -44.25 28.95 -44.6 28.7 -44.25 28.1 -43.95 27.6 -42.5 27.55 -37.85 28.5 Q-40.15 26.6 -44.3 19.6 L-47.95 13.1 Q-50.5 8.3 -52.3 3.9 -50.45 3.2 -44.75 5.1 -42.0 6.0 -36.3 8.35 L-42.35 -0.15 -49.05 -10.9 -36.55 -7.3 Q-25.4 -3.9 -21.2 -1.65 L-22.3 -3.8 -27.2 -13.15 -29.65 -17.85 -36.0 -28.7 Q-40.15 -36.0 -41.2 -39.0 L-41.5 -39.3 -41.45 -39.4 -41.1 -39.9 -39.9 -39.65 -39.75 -39.65 -39.5 -39.2 -31.8 -33.0 Q-23.9 -26.35 -20.05 -23.7 -16.75 -21.05 -6.65 -14.6 L-4.25 -12.9 Q1.95 -8.4 3.35 -5.5 L3.55 -5.15 3.95 -5.1 3.4 -7.3 3.0 -9.1 2.15 -12.8 0.4 -20.6 -1.35 -29.25 Q-1.35 -32.45 0.65 -29.0 M27.65 4.95 L27.55 5.0 Q28.45 6.3 29.25 8.9 L29.75 10.75 30.65 14.05 31.05 15.55 32.8 22.65 33.1 24.15 33.35 28.35 33.15 32.85 32.5 33.15 Q31.75 30.9 31.4 26.0 31.0 21.25 30.05 18.6 L28.65 14.0 Q27.6 10.35 27.0 6.85 8.5 -14.05 1.55 -23.75 L1.5 -23.75 2.1 -21.45 5.05 -9.3 Q8.35 4.8 8.35 8.55 L8.3 9.4 8.25 9.8 8.45 9.95 8.75 10.1 11.0 11.75 11.45 12.1 11.95 12.45 11.85 13.05 12.45 13.8 Q17.5 21.1 25.2 35.95 L27.2 35.65 27.9 35.35 28.7 34.95 Q30.4 34.25 34.1 34.1 L34.7 34.05 Q36.15 33.95 37.9 34.0 L39.35 34.0 40.35 33.8 41.2 33.35 45.1 33.2 48.9 33.4 49.0 33.45 49.2 33.45 50.2 33.5 42.5 19.85 38.75 13.2 35.95 8.55 35.8 8.35 35.7 8.2 32.75 3.25 Q31.05 -0.05 28.5 -2.95 L28.15 0.15 28.1 0.5 27.9 2.75 27.75 4.9 27.65 4.95 M-4.65 8.45 L2.0 13.7 2.05 13.75 2.05 13.7 Q0.65 7.6 0.65 5.8 0.65 4.95 3.25 6.45 L5.25 7.7 6.95 8.85 6.5 6.3 5.55 1.1 4.5 -2.8 3.8 -3.35 3.35 -3.65 Q2.9 -4.1 2.75 -4.5 2.1 -4.75 -2.0 -8.5 L-7.15 -12.9 -8.0 -13.6 Q-9.9 -14.75 -12.1 -16.25 L-14.95 -18.2 -21.0 -22.5 Q-24.3 -24.8 -30.6 -30.0 L-33.6 -32.5 -37.8 -36.0 -28.3 -18.7 -25.3 -13.15 Q-19.95 -3.1 -17.0 3.7 L-16.85 4.05 -16.65 4.0 -15.05 3.7 -14.35 3.7 -14.35 3.15 -14.25 3.15 -13.7 3.3 -13.1 3.5 -13.1 3.45 Q-9.6 4.7 -5.25 8.0 L-4.65 8.45 M7.7 11.5 L7.15 11.15 3.2 8.7 2.8 8.45 3.2 10.5 3.85 13.7 5.55 21.1 8.65 33.75 8.6 35.8 8.45 35.85 9.15 36.75 Q9.95 36.3 12.95 35.35 L16.65 34.3 17.1 34.15 Q18.75 34.15 19.95 35.05 L20.0 35.1 20.3 35.25 20.85 35.45 21.65 35.7 22.95 35.85 23.4 35.9 23.7 35.9 21.2 31.95 17.25 25.1 Q16.05 23.35 13.7 18.7 11.7 14.8 11.4 13.8 L11.35 13.55 11.35 13.45 11.3 13.45 11.2 13.45 7.7 11.5 M5.05 26.0 L4.15 22.55 3.1 18.2 2.45 15.5 2.25 15.5 Q1.45 15.5 -1.15 13.65 L-5.45 10.35 Q-11.85 5.15 -13.5 5.15 L-13.8 5.15 -14.25 5.05 -14.4 5.0 -14.4 4.9 -16.75 5.7 -17.7 5.75 -22.3 5.75 -25.65 5.8 -27.2 5.85 -27.4 5.85 -27.4 5.9 -26.7 6.95 -22.35 13.4 -21.15 15.2 -16.65 21.2 Q-13.8 24.85 -11.0 27.55 L-11.15 28.25 -11.15 28.4 Q-11.25 28.55 -11.5 28.55 L-11.8 28.55 Q-14.1 28.55 -20.35 19.05 L-23.4 14.4 -23.55 14.6 -24.1 14.85 -24.2 14.85 -25.15 14.7 Q-25.85 14.45 -26.95 14.15 L-29.3 13.3 -35.8 10.85 Q-42.8 8.25 -47.5 6.3 L-49.4 5.5 -49.45 5.35 -49.55 5.8 Q-49.55 6.6 -45.55 13.1 L-43.55 16.35 -35.65 28.8 -35.75 28.95 -35.55 29.0 -33.5 29.4 -33.4 29.45 -33.2 29.5 -32.5 29.6 -23.6 30.8 -21.9 31.15 Q-23.35 28.0 -23.35 27.05 L-23.25 26.15 -19.15 27.3 -18.55 27.5 -17.75 27.75 -10.8 30.35 -10.15 30.65 -9.3 31.05 -4.05 33.85 -3.75 34.05 -3.85 33.35 -4.1 31.3 -4.25 29.3 -4.2 28.5 Q-2.45 28.55 2.05 31.3 L2.9 31.85 3.55 32.25 7.4 34.95 7.5 35.05 7.45 34.95 5.05 26.0 M-2.1 30.55 L-2.4 30.4 Q-2.45 33.3 -1.85 35.95 L0.75 35.95 6.15 36.0 2.9 33.95 1.6 33.05 1.15 32.7 1.05 32.65 0.95 32.6 -2.1 30.55 M-45.45 -8.3 L-45.55 -8.3 -44.95 -7.5 -44.9 -7.4 -44.9 -7.35 -44.5 -6.7 -34.05 7.85 -34.0 7.95 -33.9 8.05 -33.85 8.1 -33.75 8.25 -33.65 8.35 -33.55 8.45 -33.45 8.55 -32.35 9.85 -32.4 9.9 -29.65 11.0 -29.0 11.25 -28.9 11.3 -25.75 12.6 -25.4 12.8 -24.65 13.15 -24.15 13.35 -24.1 13.4 -24.1 13.35 Q-28.6 6.7 -29.8 5.45 L-29.8 5.0 Q-29.8 3.1 -28.55 4.4 L-28.5 4.35 Q-28.15 4.05 -27.8 4.05 L-18.1 4.05 -20.3 0.1 -20.5 0.15 -20.7 0.1 -23.0 -0.7 -42.25 -7.35 -45.2 -8.3 -45.45 -8.3 M-19.6 28.6 Q-21.45 27.7 -21.5 27.7 -18.7 34.2 -16.3 38.55 -16.15 38.05 -15.4 37.2 -14.5 36.15 -13.85 36.0 L-13.6 35.95 -13.55 35.95 Q-12.7 35.95 -11.3 36.8 -9.9 37.7 -9.45 37.7 -8.75 37.7 -8.5 37.2 L-6.75 36.9 Q-5.5 36.8 -3.45 36.85 L-3.6 35.75 Q-4.8 35.7 -9.95 33.3 L-11.4 32.6 -11.5 32.55 Q-11.7 32.45 -11.85 32.4 L-12.5 32.1 -12.8 31.95 -15.0 30.85 -15.1 30.8 -16.5 30.1 -19.6 28.6 M-40.4 29.85 L-41.15 29.7 -39.25 31.3 -38.9 31.6 -32.4 37.4 -32.2 37.1 -31.2 36.5 -30.05 35.75 -26.6 35.8 -24.5 35.8 -21.45 36.55 Q-19.3 37.05 -18.85 37.45 L-20.6 33.85 -20.9 33.3 -21.3 33.2 -22.1 33.05 -29.95 31.65 -30.6 31.55 -37.6 30.3 -40.4 29.85" fill="#83cfcd" fill-rule="evenodd" stroke="none"/>
      <path d="M2.1 -21.45 L3.3 -19.25 4.8 -16.65 7.3 -6.6 9.9 4.7 11.45 12.1 11.0 11.75 8.75 10.1 8.45 9.95 8.3 9.4 8.35 8.55 Q8.35 4.8 5.05 -9.3 L2.1 -21.45 M-13.1 3.45 L-13.1 3.5 -13.7 3.3 -14.25 3.15 -14.35 3.15 -14.35 3.7 -15.05 3.7 -16.65 4.0 -17.0 3.7 Q-19.95 -3.1 -25.3 -13.15 L-28.3 -18.7 -37.8 -36.0 -33.6 -32.5 -30.6 -30.0 -26.9 -23.4 -21.3 -13.1 Q-15.95 -3.05 -13.1 3.45 M45.1 33.2 Q44.45 31.35 43.75 28.2 L42.3 20.7 Q42.3 20.0 42.5 19.85 L50.2 33.5 49.2 33.45 49.0 33.45 48.9 33.4 45.1 33.2 M-13.8 5.15 L-13.2 7.75 -12.65 11.65 -12.65 12.25 -12.8 12.6 -12.9 12.75 -13.45 12.85 Q-14.3 12.85 -16.25 8.75 L-17.7 5.75 -16.75 5.7 -14.4 4.9 -14.4 5.0 -14.25 5.05 -13.8 5.15 M-25.65 5.8 L-19.6 12.55 -18.8 13.4 -11.4 21.8 Q-10.4 21.85 -6.05 28.35 L-4.1 31.3 -3.85 33.35 -3.75 34.05 -4.05 33.85 -9.3 31.05 -10.15 30.65 -10.75 29.95 -10.75 29.75 -11.5 28.55 Q-11.25 28.55 -11.15 28.4 L-11.15 28.25 -11.0 27.55 Q-13.8 24.85 -16.65 21.2 L-21.15 15.2 -22.35 13.4 -26.7 6.95 -27.2 5.85 -25.65 5.8 M-44.95 -7.5 L-45.45 -8.3 -45.2 -8.3 -42.25 -7.35 -38.15 -2.2 -31.4 6.55 -30.4 8.75 -29.4 10.6 -29.65 11.0 -32.4 9.9 -32.35 9.85 -33.45 8.55 -33.55 8.45 -33.65 8.35 -33.75 8.25 -33.85 8.1 -33.9 8.05 -34.0 7.95 -34.05 7.85 -44.5 -6.7 -44.9 -7.35 -44.9 -7.4 -44.95 -7.5 M-35.65 28.8 L-43.55 16.35 -45.55 13.1 Q-49.55 6.6 -49.55 5.8 L-49.45 5.35 -49.4 5.5 -47.5 6.3 Q-45.6 8.65 -42.55 13.15 L-41.2 15.25 Q-34.45 25.55 -32.5 29.6 L-33.2 29.5 -33.4 29.45 -33.5 29.4 -35.55 29.0 -35.65 28.8 M-40.4 29.85 L-37.6 30.3 Q-36.2 31.35 -35.1 32.3 -32.55 34.55 -31.2 36.5 L-32.2 37.1 -32.4 37.4 -38.9 31.6 -39.25 31.3 -40.4 29.85" fill="#ffffff" fill-rule="evenodd" stroke="none"/>
      <path d="M2.1 -21.45 L1.5 -23.75 1.55 -23.75 Q8.5 -14.05 27.0 6.85 27.6 10.35 28.65 14.0 L30.05 18.6 Q31.0 21.25 31.4 26.0 31.75 30.9 32.5 33.15 L33.15 32.85 33.35 28.35 33.1 24.15 32.8 22.65 31.05 15.55 30.65 14.05 29.75 10.75 29.25 8.9 Q28.45 6.3 27.55 5.0 L27.65 4.95 28.3 6.2 27.9 2.75 28.1 0.5 28.15 0.15 28.5 -2.95 Q31.05 -0.05 32.75 3.25 L35.7 8.2 35.8 8.35 35.95 8.55 36.5 11.6 36.65 14.1 Q36.95 16.85 37.95 21.5 39.45 29.05 39.4 31.85 L39.35 33.85 39.35 34.0 37.9 34.0 Q36.15 33.95 34.7 34.05 L34.4 32.4 34.15 32.55 34.1 34.1 Q30.4 34.25 28.7 34.95 L27.9 35.35 Q26.4 32.2 23.95 24.95 L20.05 13.9 Q17.9 8.1 16.7 5.95 12.65 -1.2 8.4 -10.1 L4.8 -16.65 3.3 -19.25 2.1 -21.45 M-12.1 -16.25 Q-9.9 -14.75 -8.0 -13.6 L-7.15 -12.9 -2.0 -8.5 Q2.1 -4.75 2.75 -4.5 2.9 -4.1 3.35 -3.65 L3.8 -3.35 4.5 -2.8 5.55 1.1 6.5 6.3 6.95 8.85 5.25 7.7 3.25 6.45 Q0.65 4.95 0.65 5.8 0.65 7.6 2.05 13.7 L2.05 13.75 2.0 13.7 -4.65 8.45 -8.3 -1.4 -12.05 -12.95 -12.35 -13.9 -12.1 -16.25 M16.65 34.3 Q14.85 31.1 12.25 24.55 L7.65 11.9 7.7 11.5 11.2 13.45 11.3 13.45 11.35 13.55 11.4 13.8 Q11.7 14.8 13.7 18.7 16.05 23.35 17.25 25.1 L21.2 31.95 23.7 35.9 23.4 35.9 22.95 35.85 21.65 35.7 20.95 34.55 20.85 35.45 20.3 35.25 20.0 35.1 19.95 35.05 Q18.75 34.15 17.1 34.15 L16.65 34.3 M2.05 31.3 Q-0.4 28.3 -3.85 23.1 L-9.95 13.55 Q-11.7 10.45 -11.7 9.65 -11.7 7.8 -8.75 9.85 -6.85 11.2 -4.5 13.6 L-2.3 15.95 Q0.8 19.4 3.05 22.7 L4.1 24.3 5.05 26.0 7.45 34.95 7.4 34.95 3.55 32.25 2.9 31.85 2.05 31.3 M0.75 35.95 L-0.3 34.4 Q-2.0 31.55 -2.1 30.55 L0.95 32.6 1.05 32.65 1.15 32.7 1.6 33.05 2.9 33.95 6.15 36.0 0.75 35.95 M-29.4 10.6 L-30.4 8.75 -31.4 6.55 -33.5 1.85 -33.0 1.0 Q-32.45 0.3 -31.75 0.3 L-28.85 1.8 Q-25.8 3.3 -25.0 3.3 -24.6 3.3 -23.8 1.3 L-23.0 -0.7 -20.7 0.1 -20.5 0.15 -20.3 0.1 -18.1 4.05 -27.8 4.05 Q-28.15 4.05 -28.5 4.35 L-28.55 4.4 Q-29.8 3.1 -29.8 5.0 L-29.8 5.45 Q-28.6 6.7 -24.1 13.35 L-24.1 13.4 -24.15 13.35 -24.65 13.15 Q-24.7 12.45 -25.3 12.45 L-25.3 12.55 -25.4 12.8 -25.75 12.6 -28.9 11.3 -29.0 11.25 -29.4 10.6 M-26.95 14.15 Q-25.85 14.45 -25.15 14.7 L-24.2 14.85 -24.1 14.85 -23.55 14.6 -23.4 14.4 -20.35 19.05 Q-14.1 28.55 -11.8 28.55 L-11.5 28.55 -10.75 29.75 -10.75 29.95 -10.8 30.35 -17.75 27.75 -18.55 27.5 -19.0 27.1 -19.15 27.3 -23.25 26.15 -23.3 26.45 Q-25.9 23.35 -30.0 16.4 -29.95 15.7 -28.65 15.1 L-26.95 14.15 M-13.85 36.0 L-16.1 33.35 -19.9 28.5 -19.6 28.6 -16.5 30.1 -15.1 30.8 -15.0 30.85 -12.8 31.95 -12.5 32.1 -11.85 32.4 Q-11.7 32.45 -11.5 32.55 L-11.4 32.6 -9.95 33.3 -6.75 36.9 -8.5 37.2 Q-8.75 37.7 -9.45 37.7 -9.9 37.7 -11.3 36.8 -12.7 35.95 -13.55 35.95 L-13.6 35.95 -13.85 36.0 M-30.6 31.55 L-29.95 31.65 -22.1 33.05 -21.3 33.2 -20.7 33.75 -20.6 33.85 -18.85 37.45 Q-19.3 37.05 -21.45 36.55 L-24.5 35.8 -26.6 35.8 -27.55 35.05 Q-30.15 32.9 -30.8 31.5 L-30.6 31.55" fill="#9bd9d8" fill-rule="evenodd" stroke="none"/>
      <path d="M4.8 -16.65 L8.4 -10.1 Q12.65 -1.2 16.7 5.95 17.9 8.1 20.05 13.9 L23.95 24.95 Q26.4 32.2 27.9 35.35 L27.2 35.65 25.2 35.95 Q17.5 21.1 12.45 13.8 L11.85 13.05 11.95 12.45 11.45 12.1 9.9 4.7 7.3 -6.6 4.8 -16.65 M34.1 34.1 L34.15 32.55 34.4 32.4 34.7 34.05 34.1 34.1 M39.35 34.0 L39.35 33.85 39.4 31.85 Q39.45 29.05 37.95 21.5 36.95 16.85 36.65 14.1 L36.5 11.6 35.95 8.55 38.75 13.2 42.5 19.85 Q42.3 20.0 42.3 20.7 L43.75 28.2 Q44.45 31.35 45.1 33.2 L41.2 33.35 40.35 33.8 39.35 34.0 M27.9 2.75 L28.3 6.2 27.65 4.95 27.75 4.9 27.9 2.75 M-12.1 -16.25 L-12.35 -13.9 -12.05 -12.95 -8.3 -1.4 -4.65 8.45 -5.25 8.0 Q-9.6 4.7 -13.1 3.45 -15.95 -3.05 -21.3 -13.1 L-26.9 -23.4 -30.6 -30.0 Q-24.3 -24.8 -21.0 -22.5 L-14.95 -18.2 -12.1 -16.25 M-16.65 4.0 L-16.85 4.05 -17.0 3.7 -16.65 4.0 M8.3 9.4 L8.45 9.95 8.25 9.8 8.3 9.4 M7.7 11.5 L7.65 11.9 12.25 24.55 Q14.85 31.1 16.65 34.3 L12.95 35.35 Q9.95 36.3 9.15 36.75 L8.45 35.85 8.6 35.8 8.65 33.75 5.55 21.1 3.85 13.7 3.2 10.5 2.8 8.45 3.2 8.7 7.15 11.15 7.7 11.5 M20.85 35.45 L20.95 34.55 21.65 35.7 20.85 35.45 M11.35 13.55 L11.3 13.45 11.35 13.45 11.35 13.55 M-13.8 5.15 L-13.5 5.15 Q-11.85 5.15 -5.45 10.35 L-1.15 13.65 Q1.45 15.5 2.25 15.5 L2.45 15.5 3.1 18.2 4.15 22.55 5.05 26.0 4.1 24.3 3.05 22.7 Q0.8 19.4 -2.3 15.95 L-4.5 13.6 Q-6.85 11.2 -8.75 9.85 -11.7 7.8 -11.7 9.65 -11.7 10.45 -9.95 13.55 L-3.85 23.1 Q-0.4 28.3 2.05 31.3 -2.45 28.55 -4.2 28.5 L-4.25 29.3 -4.1 31.3 -6.05 28.35 Q-10.4 21.85 -11.4 21.8 L-18.8 13.4 -19.6 12.55 -25.65 5.8 -22.3 5.75 -17.7 5.75 -16.25 8.75 Q-14.3 12.85 -13.45 12.85 L-12.9 12.75 -12.8 12.6 -12.65 12.25 -12.65 11.65 -13.2 7.75 -13.8 5.15 M7.45 34.95 L7.5 35.05 7.4 34.95 7.45 34.95 M0.75 35.95 L-1.85 35.95 Q-2.45 33.3 -2.4 30.4 L-2.1 30.55 Q-2.0 31.55 -0.3 34.4 L0.75 35.95 M-45.45 -8.3 L-44.95 -7.5 -45.55 -8.3 -45.45 -8.3 M-29.65 11.0 L-29.4 10.6 -29.0 11.25 -29.65 11.0 M-31.4 6.55 L-38.15 -2.2 -42.25 -7.35 -23.0 -0.7 -23.8 1.3 Q-24.6 3.3 -25.0 3.3 -25.8 3.3 -28.85 1.8 L-31.75 0.3 Q-32.45 0.3 -33.0 1.0 L-33.5 1.85 -31.4 6.55 M-35.65 28.8 L-35.55 29.0 -35.75 28.95 -35.65 28.8 M-32.5 29.6 Q-34.45 25.55 -41.2 15.25 L-42.55 13.15 Q-45.6 8.65 -47.5 6.3 -42.8 8.25 -35.8 10.85 L-29.3 13.3 -26.95 14.15 -28.65 15.1 Q-29.95 15.7 -30.0 16.4 -25.9 23.35 -23.3 26.45 L-23.25 26.15 -23.35 27.05 Q-23.35 28.0 -21.9 31.15 L-23.6 30.8 -32.5 29.6 M-26.7 6.95 L-27.4 5.9 -27.4 5.85 -27.2 5.85 -26.7 6.95 M-24.65 13.15 L-25.4 12.8 -25.3 12.55 -25.3 12.45 Q-24.7 12.45 -24.65 13.15 M-19.15 27.3 L-19.0 27.1 -18.55 27.5 -19.15 27.3 M-10.8 30.35 L-10.75 29.95 -10.15 30.65 -10.8 30.35 M-13.85 36.0 Q-14.5 36.15 -15.4 37.2 -16.15 38.05 -16.3 38.55 -18.7 34.2 -21.5 27.7 -21.45 27.7 -19.6 28.6 L-19.9 28.5 -16.1 33.35 -13.85 36.0 M-9.95 33.3 Q-4.8 35.7 -3.6 35.75 L-3.45 36.85 Q-5.5 36.8 -6.75 36.9 L-9.95 33.3 M-39.25 31.3 L-41.15 29.7 -40.4 29.85 -39.25 31.3 M-37.6 30.3 L-30.6 31.55 -30.8 31.5 Q-30.15 32.9 -27.55 35.05 L-26.6 35.8 -30.05 35.75 -31.2 36.5 Q-32.55 34.55 -35.1 32.3 -36.2 31.35 -37.6 30.3 M-21.3 33.2 L-20.9 33.3 -20.6 33.85 -20.7 33.75 -21.3 33.2" fill="#c9eae9" fill-rule="evenodd" stroke="none"/>
    </g>
  </defs>
</svg>
