<?xml version="1.0" encoding="UTF-8" standalone="no"?>
<svg xmlns:ffdec="https://www.free-decompiler.com/flash" xmlns:xlink="http://www.w3.org/1999/xlink" ffdec:objectType="frame" height="363.5px" width="496.55px" xmlns="http://www.w3.org/2000/svg">
  <g transform="matrix(1.0, 0.0, 0.0, 1.0, 40.05, 96.75)">
    <use ffdec:characterId="145" height="22.0" transform="matrix(4.8841, 0.0, 0.0, 4.8841, 0.0, 0.0)" width="22.0" xlink:href="#shape0"/>
    <filter id="filter0">
      <feColorMatrix in="SourceGraphic" result="filterResult0" type="matrix" values="0 0 0 0 0.38431373,0 0 0 0 0.0,0 0 0 0 0.0,0 0 0 1 0"/>
      <feConvolveMatrix divisor="9.0" in="filterResult0" kernelMatrix="1 1 1 1 1 1 1 1 1" order="3 3" result="filterResult1"/>
      <feComposite in="SourceGraphic" in2="filterResult1" operator="over" result="filterResult2"/>
    </filter>
    <use ffdec:characterId="669" filter="url(#filter0)" height="103.95" id="MC" transform="matrix(0.4954, 0.4954, -0.4954, 0.4954, 60.5755, 2.8724)" width="87.25" xlink:href="#sprite0"/>
  </g>
  <defs>
    <g id="shape0" transform="matrix(1.0, 0.0, 0.0, 1.0, 0.0, 0.0)">
      <path d="M22.0 0.0 L22.0 22.0 0.0 22.0 0.0 0.0 22.0 0.0" fill="#00ff00" fill-opacity="0.0" fill-rule="evenodd" stroke="none"/>
    </g>
    <g id="sprite0" transform="matrix(1.0, 0.0, 0.0, 1.0, 37.5, 58.95)">
      <use ffdec:characterId="658" height="25.55" transform="matrix(1.0, 0.0, 0.0, 1.0, -10.05, -11.3)" width="28.3" xlink:href="#shape1"/>
    </g>
    <g id="shape1" transform="matrix(1.0, 0.0, 0.0, 1.0, 10.05, 11.3)">
      <path d="M10.0 -6.5 Q10.0 -5.85 6.95 -3.85 L6.4 -3.45 11.55 -3.1 11.7 -3.05 12.25 -2.4 Q12.25 -1.9 11.75 -1.75 L3.1 -1.5 2.25 -1.6 Q1.95 -1.25 1.5 -1.25 -0.05 -1.25 -0.25 -3.05 -0.25 -3.95 0.5 -4.2 L0.5 -4.5 0.7 -5.65 2.0 -7.5 Q3.0 -8.9 3.45 -8.4 L3.75 -7.0 3.55 -6.05 3.25 -5.0 3.3 -4.9 3.55 -4.8 5.3 -5.6 6.5 -6.05 6.65 -6.15 9.1 -7.5 Q10.0 -7.5 10.0 -6.5 M4.4 -0.8 Q6.5 -0.35 6.5 0.55 6.5 1.55 5.35 1.7 L5.25 1.8 4.1 2.0 Q2.5 2.0 2.5 0.8 L2.6 0.45 2.25 -0.15 Q2.25 -1.25 4.4 -0.8 M0.25 -5.55 Q0.25 -4.05 -0.3 -3.65 L-0.25 -3.4 Q-0.25 -2.95 -0.85 -2.6 -1.3 -2.25 -1.55 -2.25 -1.0 -1.95 -1.0 -0.95 -1.0 -0.45 -1.15 -0.25 L-0.9 -0.15 -0.5 1.7 -0.35 1.6 -0.1 1.25 Q0.1 1.0 0.75 1.0 1.75 1.0 2.25 2.8 2.25 3.35 1.7 3.75 L0.5 4.1 Q0.15 4.1 0.15 6.95 L0.15 11.9 0.0 12.1 -0.5 12.25 -0.95 12.15 -1.25 11.9 -1.25 10.35 -1.5 10.15 Q-1.35 9.3 -1.8 7.15 L-2.25 4.3 -2.3 4.15 Q-2.5 3.6 -2.25 3.15 L-2.25 3.1 -2.8 3.5 -3.45 3.75 -3.9 4.25 -4.6 5.85 Q-5.15 7.0 -5.75 7.0 -6.75 7.0 -6.5 5.9 -6.5 5.25 -5.95 4.15 L-5.0 2.15 -4.7 1.65 -4.15 0.55 -3.8 0.0 -8.6 0.25 Q-9.1 0.25 -10.0 -1.55 -10.5 -2.15 -7.0 -2.3 -3.75 -2.45 -2.75 -2.25 L-2.6 -2.3 -1.75 -2.3 -2.8 -3.85 -2.85 -3.95 -3.6 -3.75 -3.75 -3.75 -3.85 -3.75 -4.05 -3.75 -4.15 -3.75 Q-6.75 -3.9 -6.75 -5.9 -6.75 -8.75 -4.85 -6.95 L-5.25 -8.15 -5.5 -9.95 Q-5.5 -12.2 -4.25 -10.7 L-2.75 -8.4 -2.25 -7.9 -2.5 -9.6 Q-2.5 -10.9 -1.9 -10.65 -1.3 -10.4 -0.65 -8.9 L0.05 -7.0 0.25 -5.55 M13.6 6.5 Q11.65 6.5 10.25 4.9 L9.25 3.25 Q9.25 1.15 12.65 2.9 16.0 4.6 16.0 5.5 16.0 6.5 13.6 6.5 M15.65 10.35 Q18.25 11.05 18.25 12.95 L18.2 13.75 Q17.85 14.25 16.25 14.25 13.0 14.25 13.0 12.3 13.0 9.6 15.65 10.35 M3.0 4.45 Q4.25 5.1 4.25 6.5 4.25 7.25 3.0 8.0 2.4 8.0 2.0 6.55 L1.75 5.25 Q1.75 3.75 3.0 4.45 M6.05 7.35 L4.75 5.45 Q4.75 3.3 7.5 4.6 10.25 5.9 10.25 8.3 10.25 9.25 9.0 9.25 7.6 9.25 6.05 7.35 M7.0 10.4 Q8.5 11.05 8.5 12.15 8.5 13.75 7.25 13.75 6.85 13.75 6.1 12.65 L5.5 11.7 Q5.5 9.75 7.0 10.4" fill="#990000" fill-rule="evenodd" stroke="none"/>
    </g>
  </defs>
</svg>
