<?xml version="1.0" encoding="UTF-8" standalone="no"?>
<svg xmlns:ffdec="https://www.free-decompiler.com/flash" xmlns:xlink="http://www.w3.org/1999/xlink" ffdec:objectType="frame" height="363.5px" width="496.55px" xmlns="http://www.w3.org/2000/svg">
  <g transform="matrix(1.0, 0.0, 0.0, 1.0, 40.05, 96.75)">
    <use ffdec:characterId="720" height="225.0" transform="matrix(1.0, 0.0, 0.0, 1.0, 0.0, 0.0)" width="248.0" xlink:href="#shape0"/>
    <use ffdec:characterId="727" height="178.35" id="MC" transform="matrix(1.0, 0.0, 0.0, 1.0, 5.15, 23.8)" width="232.65" xlink:href="#sprite0"/>
  </g>
  <defs>
    <g id="shape0" transform="matrix(1.0, 0.0, 0.0, 1.0, 0.0, 0.0)">
      <path d="M0.0 0.0 L248.0 0.0 248.0 225.0 0.0 225.0 0.0 0.0" fill="#00ff00" fill-opacity="0.0" fill-rule="evenodd" stroke="none"/>
    </g>
    <g id="sprite0" transform="matrix(1.0, 0.0, 0.0, 1.0, 45.35, 18.7)">
      <use ffdec:characterId="721" height="178.3" transform="matrix(1.0, 0.0, 0.0, 1.0, -45.35, -18.7)" width="232.6" xlink:href="#morphshape0"/>
    </g>
    <g id="morphshape0" transform="matrix(1.0, 0.0, 0.0, 1.0, 45.35, 18.7)">
      <path d="M65.4 69.5 L65.4 69.6 Q66.2 71.3 66.55 73.05 67.3 77.1 65.5 81.3 67.05 81.05 68.6 80.85 74.35 80.2 80.05 80.55 82.3 80.8 84.5 81.0 L84.4 80.8 Q83.95 79.7 83.55 78.6 82.75 75.65 83.55 72.8 84.0 71.65 84.4 70.5 82.95 70.6 81.5 70.65 78.5 70.6 75.55 70.6 72.4 70.3 69.25 70.05 67.3 69.75 65.4 69.5 L65.4 69.5 65.7 70.2 65.85 70.6 Q66.05 71.2 66.25 71.8 66.4 72.4 66.55 73.0 66.6 73.25 66.65 73.5 L66.65 73.6 Q66.65 73.75 66.65 73.9 L66.7 74.6 66.7 75.4 Q66.7 75.7 66.7 76.0 L66.7 76.5 66.7 76.5 Q66.65 76.7 66.65 76.9 66.6 77.15 66.55 77.4 66.5 77.65 66.45 77.9 66.4 78.2 66.35 78.5 66.3 78.75 66.25 79.0 66.2 79.25 66.15 79.5 66.1 79.7 66.05 79.9 65.9 80.25 65.8 80.6 L65.8 80.6 65.8 80.6 Q65.7 80.85 65.6 81.1 L65.5 81.3 Q66.3 81.2 67.1 81.1 L67.5 81.0 Q67.55 81.0 67.6 81.0 67.75 80.95 67.9 80.9 68.2 80.85 68.5 80.8 L68.8 80.8 Q69.05 80.75 69.3 80.7 69.45 80.7 69.6 80.7 L70.0 80.7 Q70.35 80.65 70.7 80.6 70.8 80.6 70.9 80.6 71.2 80.55 71.5 80.55 L71.5 80.55 Q71.7 80.55 71.9 80.55 72.3 80.5 72.7 80.5 L72.8 80.5 73.0 80.5 73.1 80.5 73.2 80.5 73.2 80.5 73.3 80.5 Q73.4 80.5 73.5 80.5 73.55 80.5 73.6 80.5 73.7 80.5 73.8 80.5 73.9 80.5 74.0 80.5 74.2 80.5 74.4 80.5 74.7 80.5 75.0 80.5 75.15 80.5 75.3 80.5 75.45 80.5 75.6 80.5 L75.6 80.5 Q75.8 80.5 76.0 80.5 76.2 80.5 76.4 80.5 76.5 80.5 76.6 80.5 76.85 80.5 77.1 80.5 77.3 80.5 77.5 80.5 L77.7 80.5 Q77.9 80.5 78.1 80.5 78.45 80.5 78.8 80.5 79.7 80.55 80.6 80.6 L80.6 80.6 81.0 80.6 Q81.45 80.65 81.9 80.7 82.25 80.75 82.6 80.8 82.8 80.8 83.0 80.8 83.45 80.85 83.9 80.9 84.15 80.95 84.4 81.0 L84.5 81.0 84.5 81.0 84.5 81.0 Q84.5 81.0 84.5 81.0 84.5 81.0 84.5 81.0 L84.5 80.9 84.4 80.8 84.4 80.7 84.4 80.6 84.1 80.0 83.9 79.6 Q83.8 79.3 83.7 79.05 83.65 78.9 83.6 78.75 83.55 78.55 83.5 78.35 83.45 78.05 83.4 77.8 83.35 77.4 83.3 77.0 L83.25 76.2 Q83.25 75.95 83.25 75.7 L83.25 75.5 Q83.3 75.15 83.3 74.8 83.35 74.55 83.4 74.3 83.4 74.2 83.4 74.1 L83.4 74.0 Q83.4 73.9 83.4 73.8 83.4 73.7 83.4 73.6 L83.4 73.5 83.5 73.2 83.5 73.1 Q83.5 73.05 83.5 73.0 83.5 72.95 83.5 72.9 L83.6 72.5 83.85 71.7 83.95 71.6 83.95 71.5 Q84.1 71.2 84.2 70.9 L84.4 70.5 83.9 70.6 Q83.65 70.65 83.4 70.7 83.2 70.7 83.0 70.7 82.85 70.7 82.7 70.7 L82.5 70.7 82.4 70.7 Q82.3 70.7 82.2 70.7 82.05 70.7 81.9 70.7 L81.5 70.7 Q81.35 70.7 81.2 70.7 80.95 70.7 80.7 70.7 80.25 70.7 79.8 70.7 79.7 70.7 79.65 70.7 L79.25 70.7 78.8 70.7 Q78.7 70.7 78.6 70.7 L78.5 70.7 Q78.4 70.7 78.3 70.7 77.65 70.65 77.0 70.6 76.6 70.55 76.2 70.5 76.0 70.5 75.8 70.5 75.6 70.5 75.4 70.5 L74.9 70.5 Q74.6 70.5 74.3 70.5 L74.25 70.5 73.85 70.5 Q73.4 70.45 72.95 70.4 72.65 70.35 72.35 70.3 72.25 70.3 72.2 70.3 L72.0 70.3 Q71.7 70.25 71.4 70.2 71.2 70.2 71.0 70.2 70.65 70.15 70.3 70.1 70.2 70.1 70.1 70.1 L69.9 70.1 Q69.2 70.0 68.5 69.95 L67.8 69.85 Q67.5 69.8 67.2 69.75 66.35 69.6 65.5 69.5 L65.4 69.5 65.6 69.9 65.85 70.5 Q66.0 70.95 66.1 71.4 66.25 71.9 66.35 72.4 L66.45 72.75 Q66.5 72.95 66.55 73.15 66.6 73.4 66.65 73.65 66.7 74.0 66.7 74.35 66.75 74.95 66.75 75.55 66.75 75.85 66.75 76.15 66.65 76.95 66.55 77.75 66.4 78.45 66.25 79.15 65.85 80.25 65.5 81.3 L66.3 81.2 Q68.35 80.95 70.4 80.75 71.5 80.65 72.6 80.6 73.15 80.55 73.7 80.55 74.5 80.5 75.3 80.5 75.75 80.5 76.2 80.5 L76.5 80.5 Q76.8 80.5 77.1 80.5 78.25 80.55 79.4 80.55 80.5 80.65 81.6 80.7 L82.8 80.8 84.1 80.95 84.5 81.0 84.5 81.0 Q84.1 80.05 83.75 79.1 83.6 78.65 83.5 78.2 L83.35 77.6 Q83.3 77.25 83.25 76.9 L83.2 75.8 Q83.2 75.45 83.2 75.1 83.2 74.95 83.2 74.8 83.2 74.55 83.2 74.3 L83.3 73.8 83.4 73.4 83.5 72.9 Q83.55 72.7 83.6 72.5 L84.0 71.4 Q84.2 70.95 84.4 70.5 83.85 70.55 83.35 70.6 82.8 70.65 82.25 70.65 81.95 70.65 81.65 70.65 81.15 70.65 80.65 70.65 79.3 70.6 77.95 70.6 L77.55 70.6 Q77.1 70.6 76.65 70.6 75.6 70.55 74.55 70.5 73.7 70.45 72.85 70.4 72.35 70.35 71.85 70.3 71.2 70.25 70.55 70.2 69.8 70.1 69.05 70.05 68.3 69.95 67.6 69.85 66.5 69.65 65.4 69.5 L65.6 69.9 Q65.75 70.25 65.9 70.6 66.05 71.05 66.2 71.45 66.35 71.9 66.45 72.35 66.5 72.45 66.55 72.55 L66.55 72.65 66.55 72.85 Q66.6 73.2 66.65 73.55 66.7 73.7 66.7 73.85 L66.7 74.05 Q66.75 74.35 66.75 74.65 L66.75 76.05 Q66.6 77.05 66.5 78.05 66.35 78.6 66.25 79.1 L66.15 79.5 Q65.9 80.15 65.7 80.8 65.6 81.05 65.5 81.3 L66.8 81.05 Q67.1 81.0 67.4 80.95 67.7 80.9 68.0 80.85 68.35 80.8 68.7 80.75 69.25 80.65 69.8 80.6 L70.0 80.6 70.2 80.6 70.7 80.5 Q70.85 80.5 71.0 80.5 71.05 80.5 71.1 80.5 71.25 80.5 71.4 80.5 71.9 80.45 72.4 80.4 72.7 80.4 73.0 80.4 L73.1 80.4 73.3 80.4 Q73.6 80.4 73.9 80.4 74.1 80.4 74.3 80.4 74.55 80.4 74.8 80.4 L75.1 80.4 75.1 80.4 75.8 80.4 76.0 80.4 76.3 80.4 Q76.95 80.45 77.6 80.45 77.9 80.45 78.2 80.45 78.75 80.5 79.3 80.5 79.7 80.55 80.1 80.6 80.5 80.65 80.9 80.7 81.0 80.7 81.1 80.7 L81.2 80.7 Q81.25 80.7 81.3 80.7 L81.4 80.7 Q81.55 80.7 81.7 80.7 81.85 80.7 82.0 80.7 82.1 80.7 82.2 80.7 82.45 80.75 82.7 80.75 82.95 80.8 83.2 80.85 83.35 80.85 83.5 80.85 83.8 80.9 84.1 80.95 L84.1 80.95 84.5 81.0 Q84.5 81.0 84.5 81.0 84.5 81.0 84.5 81.0 84.25 80.55 84.05 80.1 83.95 79.9 83.9 79.7 83.75 79.3 83.65 78.9 83.6 78.75 83.55 78.6 83.5 78.5 83.45 78.4 L83.45 78.3 Q83.4 78.15 83.35 78.0 83.3 77.8 83.25 77.6 L83.15 77.4 83.15 77.3 Q83.15 77.2 83.15 77.1 83.1 76.6 83.1 76.1 83.1 75.9 83.1 75.7 83.15 75.15 83.15 74.65 83.25 74.2 83.3 73.75 83.4 73.45 83.45 73.15 83.65 72.55 83.8 72.0 83.9 71.7 84.0 71.4 84.1 71.15 84.2 70.9 84.3 70.7 84.4 70.5 L84.4 70.5 Q84.4 70.5 84.4 70.5 84.25 70.5 84.1 70.5 83.8 70.55 83.5 70.55 L83.1 70.55 Q82.15 70.6 81.2 70.6 81.0 70.6 80.8 70.6 L80.0 70.6 Q79.5 70.55 79.0 70.55 78.9 70.55 78.8 70.55 78.25 70.5 77.7 70.5 L77.35 70.5 Q77.0 70.45 76.65 70.45 76.55 70.45 76.45 70.45 76.3 70.45 76.15 70.45 L75.55 70.45 Q75.35 70.45 75.15 70.45 74.95 70.45 74.75 70.45 L73.85 70.45 Q72.9 70.4 71.95 70.35 L71.35 70.3 Q70.75 70.25 70.15 70.2 69.7 70.15 69.25 70.1 L67.85 69.9 Q67.25 69.8 66.65 69.7 66.25 69.65 65.85 69.6 L65.4 69.5 65.4 69.5 65.6 70.0 Q65.8 70.55 66.0 71.1 67.15 74.4 66.55 77.7 L65.7 80.7 65.5 81.3 Q66.85 81.1 68.2 80.95 68.45 80.9 68.7 80.85 L72.4 80.55 Q73.2 80.5 74.0 80.45 74.8 80.4 75.6 80.4 76.4 80.4 77.15 80.4 77.9 80.45 78.65 80.45 80.65 80.6 82.6 80.75 L84.5 81.0 Q84.05 79.95 83.65 78.9 83.5 78.25 83.35 77.6 83.1 76.35 83.15 75.15 83.2 73.7 83.65 72.25 83.95 71.35 84.4 70.5 81.85 70.55 79.35 70.6 78.4 70.6 77.5 70.6 76.5 70.55 75.5 70.55 L72.75 70.35 Q71.85 70.25 70.95 70.2 68.75 69.95 66.6 69.7 66.0 69.6 65.4 69.5 L65.95 70.9 Q67.2 74.45 66.5 78.1 66.2 79.7 65.5 81.3 68.25 80.95 71.0 80.65 L83.8 79.5 Q82.15 74.9 84.4 70.5 L81.05 70.65 65.4 69.5" fill="url(#gradient0)" fill-rule="evenodd" stroke="none"/>
      <path d="M65.4 69.5 L65.4 69.5 65.7 70.2 65.85 70.6 Q66.05 71.2 66.25 71.8 66.4 72.4 66.55 73.0 66.6 73.25 66.65 73.5 L66.65 73.6 Q66.65 73.75 66.65 73.9 L66.7 74.6 66.7 75.4 Q66.7 75.7 66.7 76.0 L66.7 76.5 66.7 76.5 Q66.65 76.7 66.65 76.9 66.6 77.15 66.55 77.4 66.5 77.65 66.45 77.9 66.4 78.2 66.35 78.5 66.3 78.75 66.25 79.0 66.2 79.25 66.15 79.5 66.1 79.7 66.05 79.9 65.9 80.25 65.8 80.6 L65.8 80.6 65.8 80.6 Q65.7 80.85 65.6 81.1 L65.5 81.3 Q66.3 81.2 67.1 81.1 L67.5 81.0 Q67.55 81.0 67.6 81.0 67.75 80.95 67.9 80.9 68.2 80.85 68.5 80.8 L68.8 80.8 Q69.05 80.75 69.3 80.7 69.45 80.7 69.6 80.7 L70.0 80.7 Q70.35 80.65 70.7 80.6 70.8 80.6 70.9 80.6 71.2 80.55 71.5 80.55 L71.5 80.55 Q71.7 80.55 71.9 80.55 72.3 80.5 72.7 80.5 L72.8 80.5 73.0 80.5 73.1 80.5 73.2 80.5 73.2 80.5 73.3 80.5 Q73.4 80.5 73.5 80.5 73.55 80.5 73.6 80.5 73.7 80.5 73.8 80.5 73.9 80.5 74.0 80.5 74.2 80.5 74.4 80.5 74.7 80.5 75.0 80.5 75.15 80.5 75.3 80.5 75.45 80.5 75.6 80.5 L75.6 80.5 Q75.8 80.5 76.0 80.5 76.2 80.5 76.4 80.5 76.5 80.5 76.6 80.5 76.85 80.5 77.1 80.5 77.3 80.5 77.5 80.5 L77.7 80.5 Q77.9 80.5 78.1 80.5 78.45 80.5 78.8 80.5 79.7 80.55 80.6 80.6 L80.6 80.6 81.0 80.6 Q81.45 80.65 81.9 80.7 82.25 80.75 82.6 80.8 82.8 80.8 83.0 80.8 83.45 80.85 83.9 80.9 84.15 80.95 84.4 81.0 L84.5 81.0 84.5 81.0 84.5 81.0 Q84.5 81.0 84.5 81.0 84.5 81.0 84.5 81.0 L84.5 80.9 84.4 80.8 84.4 80.7 84.4 80.6 84.1 80.0 83.9 79.6 Q83.8 79.3 83.7 79.05 83.65 78.9 83.6 78.75 83.55 78.55 83.5 78.35 83.45 78.05 83.4 77.8 83.35 77.4 83.3 77.0 L83.25 76.2 Q83.25 75.95 83.25 75.7 L83.25 75.5 Q83.3 75.15 83.3 74.8 83.35 74.55 83.4 74.3 83.4 74.2 83.4 74.1 L83.4 74.0 Q83.4 73.9 83.4 73.8 83.4 73.7 83.4 73.6 L83.4 73.5 83.5 73.2 83.5 73.1 Q83.5 73.05 83.5 73.0 83.5 72.95 83.5 72.9 L83.6 72.5 83.85 71.7 83.95 71.6 83.95 71.5 Q84.1 71.2 84.2 70.9 L84.4 70.5 83.9 70.6 Q83.65 70.65 83.4 70.7 83.2 70.7 83.0 70.7 82.85 70.7 82.7 70.7 L82.5 70.7 82.4 70.7 Q82.3 70.7 82.2 70.7 82.05 70.7 81.9 70.7 L81.5 70.7 Q81.35 70.7 81.2 70.7 80.95 70.7 80.7 70.7 80.25 70.7 79.8 70.7 79.7 70.7 79.65 70.7 L79.25 70.7 78.8 70.7 Q78.7 70.7 78.6 70.7 L78.5 70.7 Q78.4 70.7 78.3 70.7 77.65 70.65 77.0 70.6 76.6 70.55 76.2 70.5 76.0 70.5 75.8 70.5 75.6 70.5 75.4 70.5 L74.9 70.5 Q74.6 70.5 74.3 70.5 L74.25 70.5 73.85 70.5 Q73.4 70.45 72.95 70.4 72.65 70.35 72.35 70.3 72.25 70.3 72.2 70.3 L72.0 70.3 Q71.7 70.25 71.4 70.2 71.2 70.2 71.0 70.2 70.65 70.15 70.3 70.1 70.2 70.1 70.1 70.1 L69.9 70.1 Q69.2 70.0 68.5 69.95 L67.8 69.85 Q67.5 69.8 67.2 69.75 66.35 69.6 65.5 69.5 L65.4 69.5 65.6 69.9 65.85 70.5 Q66.0 70.95 66.1 71.4 66.25 71.9 66.35 72.4 L66.45 72.75 Q66.5 72.95 66.55 73.15 66.6 73.4 66.65 73.65 66.7 74.0 66.7 74.35 66.75 74.95 66.75 75.55 66.75 75.85 66.75 76.15 66.65 76.95 66.55 77.75 66.4 78.45 66.25 79.15 65.85 80.25 65.5 81.3 L66.3 81.2 Q68.35 80.95 70.4 80.75 71.5 80.65 72.6 80.6 73.15 80.55 73.7 80.55 74.5 80.5 75.3 80.5 75.75 80.5 76.2 80.5 L76.5 80.5 Q76.8 80.5 77.1 80.5 78.25 80.55 79.4 80.55 80.5 80.65 81.6 80.7 L82.8 80.8 84.1 80.95 84.5 81.0 84.5 81.0 Q84.1 80.05 83.75 79.1 83.6 78.65 83.5 78.2 L83.35 77.6 Q83.3 77.25 83.25 76.9 L83.2 75.8 Q83.2 75.45 83.2 75.1 83.2 74.95 83.2 74.8 83.2 74.55 83.2 74.3 L83.3 73.8 83.4 73.4 83.5 72.9 Q83.55 72.7 83.6 72.5 L84.0 71.4 Q84.2 70.95 84.4 70.5 83.85 70.55 83.35 70.6 82.8 70.65 82.25 70.65 81.95 70.65 81.65 70.65 81.15 70.65 80.65 70.65 79.3 70.6 77.95 70.6 L77.55 70.6 Q77.1 70.6 76.65 70.6 75.6 70.55 74.55 70.5 73.7 70.45 72.85 70.4 72.35 70.35 71.85 70.3 71.2 70.25 70.55 70.2 69.8 70.1 69.05 70.05 68.3 69.95 67.6 69.85 66.5 69.65 65.4 69.5 L65.95 70.9 Q67.2 74.45 66.5 78.1 66.2 79.7 65.5 81.3 68.25 80.95 71.0 80.65 L83.8 79.5 Q82.15 74.9 84.4 70.5 L81.05 70.65 65.4 69.5 65.6 69.9 Q65.75 70.25 65.9 70.6 66.05 71.05 66.2 71.45 66.35 71.9 66.45 72.35 66.5 72.45 66.55 72.55 L66.55 72.65 66.55 72.85 Q66.6 73.2 66.65 73.55 66.7 73.7 66.7 73.85 L66.7 74.05 Q66.75 74.35 66.75 74.65 L66.75 76.05 Q66.6 77.05 66.5 78.05 66.35 78.6 66.25 79.1 L66.15 79.5 Q65.9 80.15 65.7 80.8 65.6 81.05 65.5 81.3 L66.8 81.05 Q67.1 81.0 67.4 80.95 67.7 80.9 68.0 80.85 68.35 80.8 68.7 80.75 69.25 80.65 69.8 80.6 L70.0 80.6 70.2 80.6 70.7 80.5 Q70.85 80.5 71.0 80.5 71.05 80.5 71.1 80.5 71.25 80.5 71.4 80.5 71.9 80.45 72.4 80.4 72.7 80.4 73.0 80.4 L73.1 80.4 73.3 80.4 Q73.6 80.4 73.9 80.4 74.1 80.4 74.3 80.4 74.55 80.4 74.8 80.4 L75.1 80.4 75.1 80.4 75.8 80.4 76.0 80.4 76.3 80.4 Q76.95 80.45 77.6 80.45 77.9 80.45 78.2 80.45 78.75 80.5 79.3 80.5 79.7 80.55 80.1 80.6 80.5 80.65 80.9 80.7 81.0 80.7 81.1 80.7 L81.2 80.7 Q81.25 80.7 81.3 80.7 L81.4 80.7 Q81.55 80.7 81.7 80.7 81.85 80.7 82.0 80.7 82.1 80.7 82.2 80.7 82.45 80.75 82.7 80.75 82.95 80.8 83.2 80.85 83.35 80.85 83.5 80.85 83.8 80.9 84.1 80.95 L84.1 80.95 84.5 81.0 Q84.5 81.0 84.5 81.0 84.5 81.0 84.5 81.0 84.25 80.55 84.05 80.1 83.95 79.9 83.9 79.7 83.75 79.3 83.65 78.9 83.6 78.75 83.55 78.6 83.5 78.5 83.45 78.4 L83.45 78.3 Q83.4 78.15 83.35 78.0 83.3 77.8 83.25 77.6 L83.15 77.4 83.15 77.3 Q83.15 77.2 83.15 77.1 83.1 76.6 83.1 76.1 83.1 75.9 83.1 75.7 83.15 75.15 83.15 74.65 83.25 74.2 83.3 73.75 83.4 73.45 83.45 73.15 83.65 72.55 83.8 72.0 83.9 71.7 84.0 71.4 84.1 71.15 84.2 70.9 84.3 70.7 84.4 70.5 L84.4 70.5 Q84.4 70.5 84.4 70.5 84.25 70.5 84.1 70.5 83.8 70.55 83.5 70.55 L83.1 70.55 Q82.15 70.6 81.2 70.6 81.0 70.6 80.8 70.6 L80.0 70.6 Q79.5 70.55 79.0 70.55 78.9 70.55 78.8 70.55 78.25 70.5 77.7 70.5 L77.35 70.5 Q77.0 70.45 76.65 70.45 76.55 70.45 76.45 70.45 76.3 70.45 76.15 70.45 L75.55 70.45 Q75.35 70.45 75.15 70.45 74.95 70.45 74.75 70.45 L73.85 70.45 Q72.9 70.4 71.95 70.35 L71.35 70.3 Q70.75 70.25 70.15 70.2 69.7 70.15 69.25 70.1 L67.85 69.9 Q67.25 69.8 66.65 69.7 66.25 69.65 65.85 69.6 L65.4 69.5 65.4 69.5 65.6 70.0 Q65.8 70.55 66.0 71.1 67.15 74.4 66.55 77.7 L65.7 80.7 65.5 81.3 Q66.85 81.1 68.2 80.95 68.45 80.9 68.7 80.85 L72.4 80.55 Q73.2 80.5 74.0 80.45 74.8 80.4 75.6 80.4 76.4 80.4 77.15 80.4 77.9 80.45 78.65 80.45 80.65 80.6 82.6 80.75 L84.5 81.0 Q84.05 79.95 83.65 78.9 83.5 78.25 83.35 77.6 83.1 76.35 83.15 75.15 83.2 73.7 83.65 72.25 83.95 71.35 84.4 70.5 81.85 70.55 79.35 70.6 78.4 70.6 77.5 70.6 76.5 70.55 75.5 70.55 L72.75 70.35 Q71.85 70.25 70.95 70.2 68.75 69.95 66.6 69.7 66.0 69.6 65.4 69.5" fill="url(#gradient1)" fill-rule="evenodd" stroke="none"/>
      <path d="M65.4 69.5 Q67.3 69.75 69.25 70.05 72.4 70.3 75.55 70.6 78.5 70.6 81.5 70.65 82.95 70.6 84.4 70.5 84.0 71.65 83.55 72.8 82.75 75.65 83.55 78.6 83.95 79.7 84.4 80.8 L84.5 81.0 Q82.3 80.8 80.05 80.55 74.35 80.2 68.6 80.85 67.05 81.05 65.5 81.3 67.3 77.1 66.55 73.05 66.2 71.3 65.4 69.6 L65.4 69.5 Q67.3 69.75 69.25 70.05 72.4 70.3 75.55 70.6 78.5 70.6 81.5 70.65 82.95 70.6 84.4 70.5 84.0 71.65 83.55 72.8 82.75 75.65 83.55 78.6 83.95 79.7 84.4 80.8 L84.5 81.0 Q82.3 80.8 80.05 80.55 74.35 80.2 68.6 80.85 67.05 81.05 65.5 81.3 67.3 77.1 66.55 73.05 66.2 71.3 65.4 69.6" ffdec:has-small-stroke="true" ffdec:original-stroke-width="0.0" fill="none" stroke="#000000" stroke-linecap="round" stroke-linejoin="round" stroke-opacity="0.0" stroke-width="1.0"/>
      <path d="M65.4 69.5 L65.5 69.5 Q66.35 69.6 67.2 69.75 67.5 69.8 67.8 69.85 L68.5 69.95 Q69.2 70.0 69.9 70.1 L70.1 70.1 Q70.2 70.1 70.3 70.1 70.65 70.15 71.0 70.2 71.2 70.2 71.4 70.2 71.7 70.25 72.0 70.3 L72.2 70.3 Q72.25 70.3 72.35 70.3 72.65 70.35 72.95 70.4 73.4 70.45 73.85 70.5 L74.25 70.5 74.3 70.5 Q74.6 70.5 74.9 70.5 L75.4 70.5 Q75.6 70.5 75.8 70.5 76.0 70.5 76.2 70.5 76.6 70.55 77.0 70.6 77.65 70.65 78.3 70.7 78.4 70.7 78.5 70.7 L78.6 70.7 Q78.7 70.7 78.8 70.7 L79.25 70.7 79.65 70.7 Q79.7 70.7 79.8 70.7 80.25 70.7 80.7 70.7 80.95 70.7 81.2 70.7 81.35 70.7 81.5 70.7 L81.9 70.7 Q82.05 70.7 82.2 70.7 82.3 70.7 82.4 70.7 L82.5 70.7 82.7 70.7 Q82.85 70.7 83.0 70.7 83.2 70.7 83.4 70.7 83.65 70.65 83.9 70.6 L84.4 70.5 84.2 70.9 Q84.1 71.2 83.95 71.5 L83.95 71.6 83.85 71.7 83.6 72.5 83.5 72.9 Q83.5 72.95 83.5 73.0 83.5 73.05 83.5 73.1 L83.5 73.2 83.4 73.5 83.4 73.6 Q83.4 73.7 83.4 73.8 83.4 73.9 83.4 74.0 L83.4 74.1 Q83.4 74.2 83.4 74.3 83.35 74.55 83.3 74.8 83.3 75.15 83.25 75.5 L83.25 75.7 Q83.25 75.95 83.25 76.2 L83.3 77.0 Q83.35 77.4 83.4 77.8 83.45 78.05 83.5 78.35 83.55 78.55 83.6 78.75 83.65 78.9 83.7 79.05 83.8 79.3 83.9 79.6 L84.1 80.0 84.4 80.6 84.4 80.7 84.4 80.8 84.5 80.9 84.5 81.0 Q84.5 81.0 84.5 81.0 84.5 81.0 84.5 81.0 L84.5 81.0 84.5 81.0 84.4 81.0 Q84.15 80.95 83.9 80.9 83.45 80.85 83.0 80.8 82.8 80.8 82.6 80.8 82.25 80.75 81.9 80.7 81.45 80.65 81.0 80.6 L80.6 80.6 80.6 80.6 Q79.7 80.55 78.8 80.5 78.45 80.5 78.1 80.5 77.9 80.5 77.7 80.5 L77.5 80.5 Q77.3 80.5 77.1 80.5 76.85 80.5 76.6 80.5 76.5 80.5 76.4 80.5 76.2 80.5 76.0 80.5 75.8 80.5 75.6 80.5 L75.6 80.5 Q75.45 80.5 75.3 80.5 75.15 80.5 75.0 80.5 74.7 80.5 74.4 80.5 74.2 80.5 74.0 80.5 73.9 80.5 73.8 80.5 73.7 80.5 73.6 80.5 73.55 80.5 73.5 80.5 73.4 80.5 73.3 80.5 L73.2 80.5 73.2 80.5 73.1 80.5 73.0 80.5 72.8 80.5 72.7 80.5 Q72.3 80.5 71.9 80.55 71.7 80.55 71.5 80.55 L71.5 80.55 Q71.2 80.55 70.9 80.6 70.8 80.6 70.7 80.6 70.35 80.65 70.0 80.7 L69.6 80.7 Q69.45 80.7 69.3 80.7 69.05 80.75 68.8 80.8 L68.5 80.8 Q68.2 80.85 67.9 80.9 67.75 80.95 67.6 81.0 67.55 81.0 67.5 81.0 L67.1 81.1 Q66.3 81.2 65.5 81.3 L65.6 81.1 Q65.7 80.85 65.8 80.6 L65.8 80.6 65.8 80.6 Q65.9 80.25 66.05 79.9 66.1 79.7 66.15 79.5 66.2 79.25 66.25 79.0 66.3 78.75 66.35 78.5 66.4 78.2 66.45 77.9 66.5 77.65 66.55 77.4 66.6 77.15 66.65 76.9 66.65 76.7 66.7 76.5 L66.7 76.5 66.7 76.0 Q66.7 75.7 66.7 75.4 L66.7 74.6 66.65 73.9 Q66.65 73.75 66.65 73.6 L66.65 73.5 Q66.6 73.25 66.55 73.0 66.4 72.4 66.25 71.8 66.05 71.2 65.85 70.6 L65.7 70.2 65.4 69.5 65.4 69.5 65.5 69.5 Q66.35 69.6 67.2 69.75 67.5 69.8 67.8 69.85 L68.5 69.95 Q69.2 70.0 69.9 70.1 L70.1 70.1 Q70.2 70.1 70.3 70.1 70.65 70.15 71.0 70.2 71.2 70.2 71.4 70.2 71.7 70.25 72.0 70.3 L72.2 70.3 Q72.25 70.3 72.35 70.3 72.65 70.35 72.95 70.4 73.4 70.45 73.85 70.5 L74.25 70.5 74.3 70.5 Q74.6 70.5 74.9 70.5 L75.4 70.5 Q75.6 70.5 75.8 70.5 76.0 70.5 76.2 70.5 76.6 70.55 77.0 70.6 77.65 70.65 78.3 70.7 78.4 70.7 78.5 70.7 L78.6 70.7 Q78.7 70.7 78.8 70.7 L79.25 70.7 79.65 70.7 Q79.7 70.7 79.8 70.7 80.25 70.7 80.7 70.7 80.95 70.7 81.2 70.7 81.35 70.7 81.5 70.7 L81.9 70.7 Q82.05 70.7 82.2 70.7 82.3 70.7 82.4 70.7 L82.5 70.7 82.7 70.7 Q82.85 70.7 83.0 70.7 83.2 70.7 83.4 70.7 83.65 70.65 83.9 70.6 L84.4 70.5 84.2 70.9 Q84.1 71.2 83.95 71.5 L83.95 71.6 83.85 71.7 83.6 72.5 83.5 72.9 Q83.5 72.95 83.5 73.0 83.5 73.05 83.5 73.1 L83.5 73.2 83.4 73.5 83.4 73.6 Q83.4 73.7 83.4 73.8 83.4 73.9 83.4 74.0 L83.4 74.1 Q83.4 74.2 83.4 74.3 83.35 74.55 83.3 74.8 83.3 75.15 83.25 75.5 L83.25 75.7 Q83.25 75.95 83.25 76.2 L83.3 77.0 Q83.35 77.4 83.4 77.8 83.45 78.05 83.5 78.35 83.55 78.55 83.6 78.75 83.65 78.9 83.7 79.05 83.8 79.3 83.9 79.6 L84.1 80.0 84.4 80.6 84.4 80.7 84.4 80.8 84.5 80.9 84.5 81.0 Q84.5 81.0 84.5 81.0 84.5 81.0 84.5 81.0 L84.5 81.0 84.5 81.0 84.4 81.0 Q84.15 80.95 83.9 80.9 83.45 80.85 83.0 80.8 82.8 80.8 82.6 80.8 82.25 80.75 81.9 80.7 81.45 80.65 81.0 80.6 L80.6 80.6 80.6 80.6 Q79.7 80.55 78.8 80.5 78.45 80.5 78.1 80.5 77.9 80.5 77.7 80.5 L77.5 80.5 Q77.3 80.5 77.1 80.5 76.85 80.5 76.6 80.5 76.5 80.5 76.4 80.5 76.2 80.5 76.0 80.5 75.8 80.5 75.6 80.5 L75.6 80.5 Q75.45 80.5 75.3 80.5 75.15 80.5 75.0 80.5 74.7 80.5 74.4 80.5 74.2 80.5 74.0 80.5 73.9 80.5 73.8 80.5 73.7 80.5 73.6 80.5 73.55 80.5 73.5 80.5 73.4 80.5 73.3 80.5 L73.2 80.5 73.2 80.5 73.1 80.5 73.0 80.5 72.8 80.5 72.7 80.5 Q72.3 80.5 71.9 80.55 71.7 80.55 71.5 80.55 L71.5 80.55 Q71.2 80.55 70.9 80.6 70.8 80.6 70.7 80.6 70.35 80.65 70.0 80.7 L69.6 80.7 Q69.45 80.7 69.3 80.7 69.05 80.75 68.8 80.8 L68.5 80.8 Q68.2 80.85 67.9 80.9 67.75 80.95 67.6 81.0 67.55 81.0 67.5 81.0 L67.1 81.1 Q66.3 81.2 65.5 81.3 L65.6 81.1 Q65.7 80.85 65.8 80.6 L65.8 80.6 65.8 80.6 Q65.9 80.25 66.05 79.9 66.1 79.7 66.15 79.5 66.2 79.25 66.25 79.0 66.3 78.75 66.35 78.5 66.4 78.2 66.45 77.9 66.5 77.65 66.55 77.4 66.6 77.15 66.65 76.9 66.65 76.7 66.7 76.5 L66.7 76.5 66.7 76.0 Q66.7 75.7 66.7 75.4 L66.7 74.6 66.65 73.9 Q66.65 73.75 66.65 73.6 L66.65 73.5 Q66.6 73.25 66.55 73.0 66.4 72.4 66.25 71.8 66.05 71.2 65.85 70.6 L65.7 70.2 65.4 69.5 65.4 69.5 Q66.5 69.65 67.6 69.85 68.3 69.95 69.05 70.05 69.8 70.1 70.55 70.2 71.2 70.25 71.85 70.3 72.35 70.35 72.85 70.4 73.7 70.45 74.55 70.5 75.6 70.55 76.65 70.6 77.1 70.6 77.55 70.6 L77.95 70.6 Q79.3 70.6 80.65 70.65 81.15 70.65 81.65 70.65 81.95 70.65 82.25 70.65 82.8 70.65 83.35 70.6 83.85 70.55 84.4 70.5 84.2 70.95 84.0 71.4 L83.6 72.5 Q83.55 72.7 83.5 72.9 L83.4 73.4 83.3 73.8 83.2 74.3 Q83.2 74.55 83.2 74.8 83.2 74.95 83.2 75.1 83.2 75.45 83.2 75.8 L83.25 76.9 Q83.3 77.25 83.35 77.6 L83.5 78.2 Q83.6 78.65 83.75 79.1 84.1 80.05 84.5 81.0 L84.5 81.0 84.1 80.95 82.8 80.8 81.6 80.7 Q80.5 80.65 79.4 80.55 78.25 80.55 77.1 80.5 76.8 80.5 76.5 80.5 L76.2 80.5 Q75.75 80.5 75.3 80.5 74.5 80.5 73.7 80.55 73.15 80.55 72.6 80.6 71.5 80.65 70.4 80.75 68.35 80.95 66.3 81.2 L65.5 81.3 Q65.85 80.25 66.25 79.15 66.4 78.45 66.55 77.75 66.65 76.95 66.75 76.15 66.75 75.85 66.75 75.55 66.75 74.95 66.7 74.35 66.7 74.0 66.65 73.65 66.6 73.4 66.55 73.15 66.5 72.95 66.45 72.75 L66.35 72.4 Q66.25 71.9 66.1 71.4 66.0 70.95 65.85 70.5 L65.6 69.9 65.4 69.5 Q66.5 69.65 67.6 69.85 68.3 69.95 69.05 70.05 69.8 70.1 70.55 70.2 71.2 70.25 71.85 70.3 72.35 70.35 72.85 70.4 73.7 70.45 74.55 70.5 75.6 70.55 76.65 70.6 77.1 70.6 77.55 70.6 L77.95 70.6 Q79.3 70.6 80.65 70.65 81.15 70.65 81.65 70.65 81.95 70.65 82.25 70.65 82.8 70.65 83.35 70.6 83.85 70.55 84.4 70.5 84.2 70.95 84.0 71.4 L83.6 72.5 Q83.55 72.7 83.5 72.9 L83.4 73.4 83.3 73.8 83.2 74.3 Q83.2 74.55 83.2 74.8 83.2 74.95 83.2 75.1 83.2 75.45 83.2 75.8 L83.25 76.9 Q83.3 77.25 83.35 77.6 L83.5 78.2 Q83.6 78.65 83.75 79.1 84.1 80.05 84.5 81.0 L84.5 81.0 84.1 80.95 82.8 80.8 81.6 80.7 Q80.5 80.65 79.4 80.55 78.25 80.55 77.1 80.5 76.8 80.5 76.5 80.5 L76.2 80.5 Q75.75 80.5 75.3 80.5 74.5 80.5 73.7 80.55 73.15 80.55 72.6 80.6 71.5 80.65 70.4 80.75 68.35 80.95 66.3 81.2 L65.5 81.3 Q65.85 80.25 66.25 79.15 66.4 78.45 66.55 77.75 66.65 76.95 66.75 76.15 66.75 75.85 66.75 75.55 66.75 74.95 66.7 74.35 66.7 74.0 66.65 73.65 66.6 73.4 66.55 73.15 66.5 72.95 66.45 72.75 L66.35 72.4 Q66.25 71.9 66.1 71.4 66.0 70.95 65.85 70.5 L65.6 69.9 65.4 69.5 65.85 69.6 Q66.25 69.65 66.65 69.7 67.25 69.8 67.85 69.9 L69.25 70.1 Q69.7 70.15 70.15 70.2 70.75 70.25 71.35 70.3 L71.95 70.35 Q72.9 70.4 73.85 70.45 L74.75 70.45 Q74.95 70.45 75.15 70.45 75.35 70.45 75.55 70.45 L76.15 70.45 Q76.3 70.45 76.45 70.45 76.55 70.45 76.65 70.45 77.0 70.45 77.35 70.5 L77.7 70.5 Q78.25 70.5 78.8 70.55 78.9 70.55 79.0 70.55 79.5 70.55 80.0 70.6 L80.8 70.6 Q81.0 70.6 81.2 70.6 82.15 70.6 83.1 70.55 L83.5 70.55 Q83.8 70.55 84.1 70.5 84.25 70.5 84.4 70.5 84.4 70.5 84.4 70.5 L84.4 70.5 Q84.3 70.7 84.2 70.9 84.1 71.15 84.0 71.4 83.9 71.7 83.8 72.0 83.65 72.55 83.45 73.15 83.4 73.45 83.3 73.75 83.25 74.2 83.15 74.65 83.15 75.15 83.1 75.7 83.1 75.9 83.1 76.1 83.1 76.6 83.15 77.1 83.15 77.2 83.15 77.3 L83.15 77.4 83.25 77.6 Q83.3 77.8 83.35 78.0 83.4 78.15 83.45 78.3 L83.45 78.4 Q83.5 78.5 83.55 78.6 83.6 78.75 83.65 78.9 83.75 79.3 83.9 79.7 83.95 79.9 84.05 80.1 84.25 80.55 84.5 81.0 84.5 81.0 84.5 81.0 84.5 81.0 84.5 81.0 L84.1 80.95 84.1 80.95 Q83.8 80.9 83.5 80.85 83.35 80.85 83.2 80.85 82.95 80.8 82.7 80.75 82.45 80.75 82.2 80.7 82.1 80.7 82.0 80.7 81.85 80.7 81.7 80.7 81.55 80.7 81.4 80.7 L81.3 80.7 Q81.25 80.7 81.2 80.7 L81.1 80.7 Q81.0 80.7 80.9 80.7 80.5 80.65 80.1 80.6 79.7 80.55 79.3 80.5 78.75 80.5 78.2 80.45 77.9 80.45 77.6 80.45 76.95 80.45 76.3 80.4 L76.0 80.4 75.8 80.4 75.1 80.4 75.1 80.4 74.8 80.4 Q74.55 80.4 74.3 80.4 74.1 80.4 73.9 80.4 73.6 80.4 73.3 80.4 L73.1 80.4 73.0 80.4 Q72.7 80.4 72.4 80.4 71.9 80.45 71.4 80.5 71.25 80.5 71.1 80.5 71.05 80.5 71.0 80.5 70.85 80.5 70.7 80.5 L70.2 80.6 70.0 80.6 69.8 80.6 Q69.25 80.65 68.7 80.75 68.35 80.8 68.0 80.85 67.7 80.9 67.4 80.95 67.1 81.0 66.8 81.05 L65.5 81.3 Q65.6 81.05 65.7 80.8 65.9 80.15 66.15 79.5 L66.25 79.1 Q66.35 78.6 66.5 78.05 66.6 77.05 66.75 76.05 L66.75 74.65 Q66.75 74.35 66.7 74.05 L66.7 73.85 Q66.7 73.7 66.65 73.55 66.6 73.2 66.55 72.85 L66.55 72.65 66.55 72.55 Q66.5 72.45 66.45 72.35 66.35 71.9 66.2 71.45 66.05 71.05 65.9 70.6 65.75 70.25 65.6 69.9 L65.4 69.5 65.85 69.6 Q66.25 69.65 66.65 69.7 67.25 69.8 67.85 69.9 L69.25 70.1 Q69.7 70.15 70.15 70.2 70.75 70.25 71.35 70.3 L71.95 70.35 Q72.9 70.4 73.85 70.45 L74.75 70.45 Q74.95 70.45 75.15 70.45 75.35 70.45 75.55 70.45 L76.15 70.45 Q76.3 70.45 76.45 70.45 76.55 70.45 76.65 70.45 77.0 70.45 77.35 70.5 L77.7 70.5 Q78.25 70.5 78.8 70.55 78.9 70.55 79.0 70.55 79.5 70.55 80.0 70.6 L80.8 70.6 Q81.0 70.6 81.2 70.6 82.15 70.6 83.1 70.55 L83.5 70.55 Q83.8 70.55 84.1 70.5 84.25 70.5 84.4 70.5 84.4 70.5 84.4 70.5 L84.4 70.5 Q84.3 70.7 84.2 70.9 84.1 71.15 84.0 71.4 83.9 71.7 83.8 72.0 83.65 72.55 83.45 73.15 83.4 73.45 83.3 73.75 83.25 74.2 83.15 74.65 83.15 75.15 83.1 75.7 83.1 75.9 83.1 76.1 83.1 76.6 83.15 77.1 83.15 77.2 83.15 77.3 L83.15 77.4 83.25 77.6 Q83.3 77.8 83.35 78.0 83.4 78.15 83.45 78.3 L83.45 78.4 Q83.5 78.5 83.55 78.6 83.6 78.75 83.65 78.9 83.75 79.3 83.9 79.7 83.95 79.9 84.05 80.1 84.25 80.55 84.5 81.0 84.5 81.0 84.5 81.0 84.5 81.0 84.5 81.0 L84.1 80.95 84.1 80.95 Q83.8 80.9 83.5 80.85 83.35 80.85 83.2 80.85 82.95 80.8 82.7 80.75 82.45 80.75 82.2 80.7 82.1 80.7 82.0 80.7 81.85 80.7 81.7 80.7 81.55 80.7 81.4 80.7 L81.3 80.7 Q81.25 80.7 81.2 80.7 L81.1 80.7 Q81.0 80.7 80.9 80.7 80.5 80.65 80.1 80.6 79.7 80.55 79.3 80.5 78.75 80.5 78.2 80.45 77.9 80.45 77.6 80.45 76.95 80.45 76.3 80.4 L76.0 80.4 75.8 80.4 75.1 80.4 75.1 80.4 74.8 80.4 Q74.55 80.4 74.3 80.4 74.1 80.4 73.9 80.4 73.6 80.4 73.3 80.4 L73.1 80.4 73.0 80.4 Q72.7 80.4 72.4 80.4 71.9 80.45 71.4 80.5 71.25 80.5 71.1 80.5 71.05 80.5 71.0 80.5 70.85 80.5 70.7 80.5 L70.2 80.6 70.0 80.6 69.8 80.6 Q69.25 80.65 68.7 80.75 68.35 80.8 68.0 80.85 67.7 80.9 67.4 80.95 67.1 81.0 66.8 81.05 L65.5 81.3 Q65.6 81.05 65.7 80.8 65.9 80.15 66.15 79.5 L66.25 79.1 Q66.35 78.6 66.5 78.05 66.6 77.05 66.75 76.05 L66.75 74.65 Q66.75 74.35 66.7 74.05 L66.7 73.85 Q66.7 73.7 66.65 73.55 66.6 73.2 66.55 72.85 L66.55 72.65 66.55 72.55 Q66.5 72.45 66.45 72.35 66.35 71.9 66.2 71.45 66.05 71.05 65.9 70.6 65.75 70.25 65.6 69.9 L65.4 69.5 81.05 70.65 84.4 70.5 Q82.15 74.9 83.8 79.5 L71.0 80.65 Q68.25 80.95 65.5 81.3 66.2 79.7 66.5 78.1 67.2 74.45 65.95 70.9 L65.4 69.5 81.05 70.65 84.4 70.5 Q82.15 74.9 83.8 79.5 L71.0 80.65 Q68.25 80.95 65.5 81.3 66.2 79.7 66.5 78.1 67.2 74.45 65.95 70.9 L65.4 69.5 Q66.0 69.6 66.6 69.7 68.75 69.95 70.95 70.2 71.85 70.25 72.75 70.35 L75.5 70.55 Q76.5 70.55 77.5 70.6 78.4 70.6 79.35 70.6 81.85 70.55 84.4 70.5 83.95 71.35 83.65 72.25 83.2 73.7 83.15 75.15 83.1 76.35 83.35 77.6 83.5 78.25 83.65 78.9 84.05 79.95 84.5 81.0 L82.6 80.75 Q80.65 80.6 78.65 80.45 77.9 80.45 77.15 80.4 76.4 80.4 75.6 80.4 74.8 80.4 74.0 80.45 73.2 80.5 72.4 80.55 L68.7 80.85 Q68.45 80.9 68.2 80.95 66.85 81.1 65.5 81.3 L65.7 80.7 66.55 77.7 Q67.15 74.4 66.0 71.1 65.8 70.55 65.6 70.0 L65.4 69.5 65.4 69.5 Q66.0 69.6 66.6 69.7 68.75 69.95 70.95 70.2 71.85 70.25 72.75 70.35 L75.5 70.55 Q76.5 70.55 77.5 70.6 78.4 70.6 79.35 70.6 81.85 70.55 84.4 70.5 83.95 71.35 83.65 72.25 83.2 73.7 83.15 75.15 83.1 76.35 83.35 77.6 83.5 78.25 83.65 78.9 84.05 79.95 84.5 81.0 L82.6 80.75 Q80.65 80.6 78.65 80.45 77.9 80.45 77.15 80.4 76.4 80.4 75.6 80.4 74.8 80.4 74.0 80.45 73.2 80.5 72.4 80.55 L68.7 80.85 Q68.45 80.9 68.2 80.95 66.85 81.1 65.5 81.3 L65.7 80.7 66.55 77.7 Q67.15 74.4 66.0 71.1 65.8 70.55 65.6 70.0 L65.4 69.5 65.4 69.5 Z" ffdec:has-small-stroke="true" ffdec:original-stroke-width="0.0" fill="none" stroke="#000000" stroke-linecap="round" stroke-linejoin="round" stroke-opacity="0.0" stroke-width="1.0"/>
    </g>
    <radialGradient cx="0" cy="0" gradientTransform="matrix(0.0129, 0.0, 0.0, 0.0129, 75.0, 75.0)" gradientUnits="userSpaceOnUse" id="gradient0" r="819.2" spreadMethod="pad">
      <stop offset="0.0" stop-color="#6d9bde" stop-opacity="0.29803923"/>
      <stop offset="1.0" stop-color="#05568b" stop-opacity="0.49803922"/>
    </radialGradient>
    <radialGradient cx="0" cy="0" gradientTransform="matrix(0.0129, 0.0, 0.0, 0.0129, 75.0, 75.0)" gradientUnits="userSpaceOnUse" id="gradient1" r="819.2" spreadMethod="pad">
      <stop offset="0.0" stop-color="#6d9bde" stop-opacity="0.29803923"/>
      <stop offset="1.0" stop-color="#05568b" stop-opacity="0.49803922"/>
    </radialGradient>
  </defs>
</svg>
