<?xml version="1.0" encoding="UTF-8" standalone="no"?>
<svg xmlns:ffdec="https://www.free-decompiler.com/flash" xmlns:xlink="http://www.w3.org/1999/xlink" ffdec:objectType="frame" height="691.45px" width="701.0px" xmlns="http://www.w3.org/2000/svg">
  <g transform="matrix(1.0, 0.0, 0.0, 1.0, 0.5, 69.2)">
    <use ffdec:characterId="1144" height="401.0" transform="matrix(1.0, 0.0, 0.0, 1.0, -0.5, -0.5)" width="701.0" xlink:href="#shape0"/>
    <use ffdec:characterId="1145" height="189.95" transform="matrix(1.0, 0.0, 0.0, 1.0, 56.5, 227.15)" width="574.7" xlink:href="#shape1"/>
    <use ffdec:characterId="137" height="319.1" transform="matrix(0.4123, 0.0, 0.0, 0.5862, 55.0967, 228.3571)" width="25.0" xlink:href="#shape2"/>
    <use ffdec:characterId="137" height="319.1" transform="matrix(0.0, -0.4123, -1.8022, 0.0, 632.1321, 229.9533)" width="25.0" xlink:href="#shape2"/>
    <use ffdec:characterId="138" height="55.4" transform="matrix(0.3725, 0.0, 0.0, 0.3725, 47.6595, 220.1286)" width="54.3" xlink:href="#shape3"/>
    <use ffdec:characterId="137" height="319.1" transform="matrix(0.4123, 0.0, 0.0, 0.5862, 622.9967, 228.6071)" width="25.0" xlink:href="#shape2"/>
    <use ffdec:characterId="137" height="319.1" transform="matrix(0.0, 0.4123, -1.8022, 0.0, 631.5321, 412.8967)" width="25.0" xlink:href="#shape2"/>
    <use ffdec:characterId="138" height="55.4" transform="matrix(-0.3725, 0.0, 0.0, -0.3725, 639.8405, 423.1214)" width="54.3" xlink:href="#shape3"/>
    <use ffdec:characterId="138" height="55.4" transform="matrix(0.3725, 0.0, 0.0, -0.3725, 47.4095, 422.6714)" width="54.3" xlink:href="#shape3"/>
    <use ffdec:characterId="138" height="55.4" transform="matrix(-0.3725, 0.0, 0.0, 0.3725, 640.8405, 219.8786)" width="54.3" xlink:href="#shape3"/>
    <filter id="filter6">
      <feColorMatrix in="SourceGraphic" result="filterResult0" type="matrix" values="0 0 0 0 0.5568628,0 0 0 0 0.42352942,0 0 0 0 0.14117648,0 0 0 1 0"/>
      <feConvolveMatrix divisor="25.0" in="filterResult0" kernelMatrix="1 1 1 1 1 1 1 1 1 1 1 1 1 1 1 1 1 1 1 1 1 1 1 1 1" order="5 5" result="filterResult1"/>
      <feComposite in="SourceGraphic" in2="filterResult1" operator="over" result="filterResult2"/>
    </filter>
    <use ffdec:characterId="1141" filter="url(#filter6)" height="25.35" transform="matrix(0.9589, 0.0, 0.0, 0.9589, 273.7671, 119.6219)" width="155.05" xlink:href="#text0"/>
    <filter id="filter17">
      <feColorMatrix in="SourceGraphic" result="filterResult3" type="matrix" values="0 0 0 0 0.5568628,0 0 0 0 0.42352942,0 0 0 0 0.14117648,0 0 0 1 0"/>
      <feConvolveMatrix divisor="25.0" in="filterResult3" kernelMatrix="1 1 1 1 1 1 1 1 1 1 1 1 1 1 1 1 1 1 1 1 1 1 1 1 1" order="5 5" result="filterResult4"/>
      <feComposite in="SourceGraphic" in2="filterResult4" operator="over" result="filterResult5"/>
    </filter>
    <use ffdec:characterId="1142" filter="url(#filter17)" height="32.95" transform="matrix(0.9589, 0.0, 0.0, 0.9589, 213.5979, 160.7048)" width="296.55" xlink:href="#text1"/>
  </g>
  <defs>
    <g id="shape0" transform="matrix(1.0, 0.0, 0.0, 1.0, 0.5, 0.5)">
      <path d="M700.0 400.0 L0.0 400.0 0.0 0.0 700.0 0.0 700.0 400.0" fill="#000000" fill-opacity="0.8" fill-rule="evenodd" stroke="none"/>
      <path d="M700.0 400.0 L0.0 400.0 0.0 0.0 700.0 0.0 700.0 400.0 Z" fill="none" stroke="#000000" stroke-linecap="round" stroke-linejoin="round" stroke-width="1.0"/>
    </g>
    <g id="shape1" transform="matrix(1.0, 0.0, 0.0, 1.0, -213.5, -61.8)">
      <path d="M760.85 68.85 L239.85 68.85 239.85 242.9 760.85 242.9 760.85 68.85 M788.2 251.75 L230.4 251.75 230.4 248.35 229.55 248.35 229.55 251.75 213.5 251.75 213.5 62.8 235.45 62.8 235.45 62.15 266.75 62.15 266.75 61.8 788.2 61.8 788.2 251.75" fill="#000810" fill-opacity="0.69411767" fill-rule="evenodd" stroke="none"/>
      <path d="M760.85 68.85 L760.85 242.9 239.85 242.9 239.85 68.85 760.85 68.85" fill="#000810" fill-opacity="0.6" fill-rule="evenodd" stroke="none"/>
    </g>
    <g id="shape2" transform="matrix(1.0, 0.0, 0.0, 1.0, 12.5, 158.8)">
      <path d="M6.5 127.4 L6.5 -124.4 6.75 -128.7 6.65 -130.1 Q6.5 -132.75 6.5 -140.3 6.5 -148.85 6.75 -151.35 7.0 -154.2 7.6 -156.5 L7.7 -157.9 7.85 -158.8 12.0 -158.8 12.4 -156.0 12.5 -149.9 12.5 -147.1 12.5 -126.75 12.1 -126.45 12.15 -123.45 12.2 -121.7 Q12.5 -96.85 12.5 0.85 L12.25 141.85 11.65 155.4 11.35 160.3 6.55 160.3 6.5 158.05 Q6.5 151.95 6.75 150.25 L7.0 148.85 6.5 141.85 6.5 130.4 6.5 127.4 M-7.65 160.3 L-12.45 160.3 -12.5 158.05 -12.25 150.25 -12.0 148.85 -12.5 141.85 -12.5 -124.4 -12.25 -128.7 -12.35 -130.1 -12.5 -140.3 -12.25 -151.35 Q-12.0 -154.2 -11.4 -156.5 L-11.3 -157.9 -11.1 -158.8 -6.95 -158.8 -6.6 -156.0 -6.5 -149.9 -6.5 -147.1 -6.5 -126.75 -6.9 -126.45 -6.85 -123.45 Q-6.5 -101.65 -6.5 -9.6 L-6.5 0.85 -6.5 12.9 Q-6.5 84.0 -6.75 141.85 L-7.35 155.4 -7.65 160.3" fill="#34270e" fill-rule="evenodd" stroke="none"/>
      <path d="M7.85 -158.8 L7.7 -157.9 7.6 -156.5 Q7.0 -154.2 6.75 -151.35 6.5 -148.85 6.5 -140.3 6.5 -132.75 6.65 -130.1 L6.75 -128.7 6.5 -124.4 6.5 127.4 6.45 129.7 6.5 130.4 6.5 141.85 7.0 148.85 6.75 150.25 Q6.5 151.95 6.5 158.05 L6.55 160.3 3.2 160.3 3.2 160.2 3.05 157.45 3.0 154.0 3.05 148.3 2.95 142.55 3.2 128.45 3.45 119.2 3.45 113.45 3.4 111.75 3.45 108.45 3.45 108.05 3.7 106.15 3.95 104.15 3.45 98.5 3.2 95.15 3.45 90.0 3.65 87.45 3.45 86.2 Q3.45 79.2 2.95 75.05 L3.2 61.0 3.45 50.55 2.95 22.05 2.65 12.45 2.85 8.4 2.95 -4.55 2.75 -18.75 2.75 -19.2 2.85 -19.35 2.9 -25.25 2.95 -26.6 3.2 -28.15 3.5 -30.3 3.5 -30.35 2.95 -40.95 2.95 -59.1 Q2.95 -65.65 3.45 -79.0 L3.3 -85.0 3.65 -85.6 Q3.4 -99.6 3.45 -120.7 L3.45 -153.8 3.05 -158.8 7.85 -158.8" fill="#cd9e3f" fill-rule="evenodd" stroke="none"/>
      <path d="M3.05 -158.8 L3.45 -153.8 3.45 -120.7 Q3.4 -99.6 3.65 -85.6 L3.3 -85.0 3.45 -79.0 Q2.95 -65.65 2.95 -59.1 L2.95 -40.95 3.5 -30.35 3.5 -30.3 3.2 -28.15 2.95 -26.6 2.9 -25.25 2.85 -19.35 2.75 -19.2 2.75 -18.75 2.95 -4.55 2.85 8.4 2.65 12.45 2.95 22.05 3.45 50.55 3.2 61.0 2.95 75.05 Q3.45 79.2 3.45 86.2 L3.65 87.45 3.45 90.0 3.2 95.15 3.45 98.5 3.95 104.15 3.7 106.15 3.45 108.05 3.45 108.45 3.4 111.75 3.45 113.45 3.45 119.2 3.2 128.45 2.95 142.55 3.05 148.3 3.0 154.0 3.05 157.45 3.2 160.2 3.2 160.3 -4.55 160.3 -4.55 157.85 Q-3.55 139.4 -3.55 130.05 L-3.65 116.25 -3.55 102.55 -3.4 88.8 -3.3 83.3 -3.3 83.2 Q-4.05 72.55 -4.05 67.5 L-3.05 31.5 -2.8 23.35 -3.05 12.3 -3.05 0.05 Q-3.55 -1.75 -3.45 -6.3 L-3.6 -7.2 -3.55 -9.6 -3.55 -30.4 -3.05 -72.8 -4.05 -97.4 -3.8 -112.25 -3.65 -121.7 -3.55 -135.7 -3.95 -152.3 -4.05 -154.95 -4.1 -158.8 3.05 -158.8 M6.5 130.4 L6.45 129.7 6.5 127.4 6.5 130.4" fill="#8e6c24" fill-rule="evenodd" stroke="none"/>
      <path d="M-6.95 -158.8 L-4.1 -158.8 -4.05 -154.95 -3.95 -152.3 -3.55 -135.7 -3.65 -121.7 -3.8 -112.25 -4.05 -97.4 -3.05 -72.8 -3.55 -30.4 -3.55 -9.6 -3.6 -7.2 -3.45 -6.3 Q-3.55 -1.75 -3.05 0.05 L-3.05 12.3 -2.8 23.35 -3.05 31.5 -4.05 67.5 Q-4.05 72.55 -3.3 83.2 L-3.3 83.3 -3.4 88.8 -3.55 102.55 -3.65 116.25 -3.55 130.05 Q-3.55 139.4 -4.55 157.85 L-4.55 160.3 -7.65 160.3 -7.35 155.4 -6.75 141.85 Q-6.5 84.0 -6.5 12.9 L-6.5 0.85 -6.5 -9.6 Q-6.5 -101.65 -6.85 -123.45 L-6.9 -126.45 -6.5 -126.75 -6.5 -147.1 -6.5 -149.9 -6.6 -156.0 -6.95 -158.8" fill="#473612" fill-rule="evenodd" stroke="none"/>
    </g>
    <g id="shape3" transform="matrix(1.0, 0.0, 0.0, 1.0, 126.0, 37.1)">
      <path d="M-87.0 -21.0 L-84.9 -18.95 -79.25 -13.75 -73.75 -8.35 -71.9 -5.7 -71.7 -5.45 Q-72.3 -4.4 -74.25 -2.25 L-76.4 -0.2 -78.85 2.7 -83.25 7.3 -88.3 13.3 Q-92.1 17.8 -94.0 17.8 L-94.3 17.75 -98.0 18.3 Q-99.85 18.3 -105.85 13.25 L-114.6 5.5 -121.3 -0.35 Q-126.0 -4.75 -126.0 -6.85 L-125.95 -7.35 -126.0 -7.85 Q-126.0 -10.35 -121.1 -15.15 L-118.45 -17.75 Q-114.85 -22.45 -111.0 -26.6 -104.6 -33.45 -101.6 -34.55 L-100.65 -35.3 Q-99.35 -36.55 -95.8 -36.7 L-91.85 -37.1 Q-90.15 -37.1 -89.85 -35.85 L-89.85 -34.55 Q-89.85 -32.6 -90.35 -32.2 -90.65 -31.95 -91.7 -31.8 L-91.8 -31.8 -93.15 -31.7 -96.9 -31.55 -98.05 -31.5 -98.5 -31.45 Q-98.65 -29.55 -109.25 -17.7 L-110.85 -15.9 Q-115.4 -10.9 -118.4 -8.2 L-117.75 -7.5 -115.75 -5.85 -112.65 -3.5 Q-108.65 -0.55 -108.0 0.0 -103.85 3.5 -100.25 7.55 L-100.0 7.8 -97.15 10.35 -92.95 6.3 -92.15 5.7 -90.1 4.0 -86.5 1.0 Q-83.3 -2.4 -80.35 -4.6 L-78.85 -5.55 -81.35 -8.1 -84.25 -10.7 -84.55 -11.0 -84.65 -11.1 -87.85 -14.15 -91.25 -10.45 Q-95.6 -5.8 -97.75 -4.3 -98.75 -3.65 -99.25 -3.65 L-99.55 -3.65 -99.95 -3.7 Q-101.25 -3.95 -101.75 -5.1 L-101.95 -5.95 -102.0 -6.65 -102.0 -6.85 -101.65 -7.95 Q-101.0 -9.3 -99.15 -10.9 L-98.0 -11.9 -94.25 -16.0 -90.25 -19.45 Q-89.7 -21.0 -87.8 -20.8 L-87.0 -21.0" fill="#34270e" fill-rule="evenodd" stroke="none"/>
      <path d="M-93.05 -27.75 L-91.95 -27.6 Q-88.8 -27.05 -88.8 -26.4 -88.8 -25.8 -89.4 -25.1 L-90.4 -24.35 -90.95 -24.2 -97.05 -18.4 Q-104.0 -11.55 -104.0 -10.0 -104.0 -9.05 -103.5 -7.8 -102.9 -6.4 -101.95 -5.95 L-101.75 -5.1 Q-101.25 -3.95 -99.95 -3.7 L-99.8 -3.25 -99.6 -3.1 -96.0 -3.1 -88.95 -6.7 Q-85.1 -8.8 -84.25 -10.7 L-81.35 -8.1 -84.25 -5.85 -87.55 -3.85 -90.1 -1.8 -96.8 3.6 Q-99.5 5.9 -100.25 7.55 -103.85 3.5 -108.0 0.0 -108.65 -0.55 -112.65 -3.5 L-115.75 -5.85 -112.35 -9.15 -105.1 -16.6 -98.15 -23.7 Q-96.5 -25.5 -95.6 -27.05 L-94.8 -27.3 Q-94.3 -27.8 -93.05 -27.75" fill="#8e6c24" fill-rule="evenodd" stroke="none"/>
      <path d="M-91.8 -31.8 L-91.8 -31.65 Q-90.85 -32.2 -90.85 -30.9 L-91.05 -29.85 -90.85 -29.35 -90.65 -28.8 Q-90.65 -27.95 -91.95 -27.95 L-92.6 -27.75 -93.05 -27.75 Q-94.3 -27.8 -94.8 -27.3 L-95.6 -27.05 Q-96.5 -25.5 -98.15 -23.7 L-105.1 -16.6 -112.35 -9.15 -115.75 -5.85 -117.75 -7.5 -118.4 -8.2 Q-115.4 -10.9 -110.85 -15.9 L-109.25 -17.7 Q-98.65 -29.55 -98.5 -31.45 L-98.05 -31.5 -96.9 -31.55 -93.15 -31.7 -91.8 -31.8 M-99.95 -3.7 L-99.55 -3.65 -99.25 -3.65 Q-98.75 -3.65 -97.75 -4.3 -95.6 -5.8 -91.25 -10.45 L-87.85 -14.15 -84.65 -11.1 -84.55 -11.0 -84.25 -10.7 Q-85.1 -8.8 -88.95 -6.7 L-96.0 -3.1 -99.6 -3.1 -99.8 -3.25 -99.95 -3.7" fill="#cd9e3f" fill-rule="evenodd" stroke="none"/>
      <path d="M-90.4 -24.35 L-88.4 -22.45 -87.0 -21.0 -87.8 -20.8 Q-89.7 -21.0 -90.25 -19.45 L-94.25 -16.0 -98.0 -11.9 -99.15 -10.9 Q-101.0 -9.3 -101.65 -7.95 L-102.0 -6.85 -102.0 -6.65 -101.95 -5.95 Q-102.9 -6.4 -103.5 -7.8 -104.0 -9.05 -104.0 -10.0 -104.0 -11.55 -97.05 -18.4 L-90.95 -24.2 -90.4 -24.35 M-81.35 -8.1 L-78.85 -5.55 -80.35 -4.6 Q-83.3 -2.4 -86.5 1.0 L-90.1 4.0 -92.15 5.7 -92.95 6.3 -97.15 10.35 -100.0 7.8 -100.25 7.55 Q-99.5 5.9 -96.8 3.6 L-90.1 -1.8 -87.55 -3.85 -84.25 -5.85 -81.35 -8.1" fill="#473612" fill-rule="evenodd" stroke="none"/>
    </g>
    <g id="text0" transform="matrix(1.0, 0.0, 0.0, 1.0, -0.8, -5.55)">
      <g transform="matrix(1.0, 0.0, 0.0, 1.0, 0.0, 0.0)">
        <use fill="#cd9e3f" height="25.35" transform="matrix(0.0293, 0.0, 0.0, 0.0293, 0.0, 29.0)" width="155.05" xlink:href="#font_Lithos_Pro_Regular_Y0"/>
        <use fill="#cd9e3f" height="25.35" transform="matrix(0.0293, 0.0, 0.0, 0.0293, 21.9, 29.0)" width="155.05" xlink:href="#font_Lithos_Pro_Regular_o0"/>
        <use fill="#cd9e3f" height="25.35" transform="matrix(0.0293, 0.0, 0.0, 0.0293, 46.65, 29.0)" width="155.05" xlink:href="#font_Lithos_Pro_Regular_u0"/>
        <use fill="#cd9e3f" height="25.35" transform="matrix(0.0293, 0.0, 0.0, 0.0293, 77.3, 29.0)" width="155.05" xlink:href="#font_Lithos_Pro_Regular_A0"/>
        <use fill="#cd9e3f" height="25.35" transform="matrix(0.0293, 0.0, 0.0, 0.0293, 102.65, 29.0)" width="155.05" xlink:href="#font_Lithos_Pro_Regular_r0"/>
        <use fill="#cd9e3f" height="25.35" transform="matrix(0.0293, 0.0, 0.0, 0.0293, 123.8, 29.0)" width="155.05" xlink:href="#font_Lithos_Pro_Regular_e0"/>
      </g>
    </g>
    <g id="font_Lithos_Pro_Regular_Y0">
      <path d="M511.0 0.0 L511.0 0.0 270.5 0.0 Q271.0 -9.5 271.5 -31.0 272.5 -52.0 273.5 -76.5 274.5 -101.0 275.0 -120.5 275.5 -139.5 275.5 -145.5 L275.5 -190.5 Q274.5 -290.5 237.5 -365.5 200.5 -440.5 142.5 -479.5 111.5 -500.0 81.5 -513.0 51.5 -525.5 26.5 -532.5 L105.5 -743.5 Q157.5 -727.0 208.0 -701.0 258.0 -675.0 298.0 -636.0 327.0 -608.0 352.5 -566.0 378.5 -524.5 397.5 -465.0 L405.5 -465.0 Q423.0 -516.0 452.0 -558.0 481.0 -600.0 518.0 -635.0 555.0 -670.5 603.5 -698.5 651.5 -726.5 711.0 -743.5 L775.5 -532.5 Q740.5 -525.5 698.5 -505.5 657.0 -486.0 620.5 -455.5 589.5 -430.5 563.5 -391.0 537.5 -352.0 522.0 -301.5 506.5 -251.0 506.0 -192.5 L506.0 -126.0 Q506.0 -120.0 506.5 -103.0 507.0 -86.0 507.5 -65.5 508.5 -44.5 509.5 -26.5 510.5 -8.5 511.0 0.0" fill-rule="evenodd" stroke="none"/>
    </g>
    <g id="font_Lithos_Pro_Regular_o0">
      <path d="M409.5 -127.0 L409.5 -127.0 Q482.0 -127.0 524.0 -175.0 565.5 -223.5 566.5 -319.5 566.0 -403.0 531.5 -446.5 496.5 -490.5 432.5 -490.5 382.0 -490.0 347.5 -463.5 313.0 -437.5 295.5 -393.5 277.5 -350.0 277.5 -297.0 278.0 -239.5 296.0 -202.0 313.5 -164.0 343.5 -145.5 373.5 -127.0 409.5 -127.0 M399.5 14.5 L399.5 14.5 Q306.0 13.5 237.5 -12.5 169.5 -39.0 125.5 -82.5 81.5 -126.0 60.0 -178.5 39.0 -230.5 39.0 -283.5 39.0 -347.5 63.5 -409.0 88.5 -470.5 138.5 -521.0 188.5 -571.0 265.0 -601.0 341.5 -631.0 444.5 -632.0 556.5 -631.5 637.0 -595.0 718.0 -558.5 761.0 -490.0 804.5 -422.0 805.0 -325.5 805.5 -275.5 785.5 -217.0 766.0 -159.0 719.5 -106.5 673.5 -54.0 595.0 -20.5 516.5 13.5 399.5 14.5" fill-rule="evenodd" stroke="none"/>
    </g>
    <g id="font_Lithos_Pro_Regular_u0">
      <path d="M289.0 -462.0 L289.0 -403.5 Q288.5 -334.5 292.0 -288.5 295.0 -242.5 304.0 -213.5 313.0 -184.5 331.0 -165.5 345.5 -150.5 363.5 -143.5 381.0 -137.0 402.5 -137.0 427.0 -137.0 446.5 -146.5 465.5 -156.5 478.5 -175.0 488.0 -187.5 493.5 -204.0 499.0 -220.0 501.5 -247.5 504.0 -275.0 504.5 -321.5 505.0 -368.0 505.0 -441.5 L505.0 -474.0 Q505.0 -520.5 503.0 -561.5 501.0 -602.0 500.0 -627.0 L725.0 -627.0 Q725.0 -617.0 725.0 -593.5 725.5 -570.5 725.5 -539.0 726.0 -507.5 726.0 -472.5 L726.0 -431.5 Q726.5 -348.5 720.5 -285.0 714.5 -221.5 697.0 -172.5 679.5 -123.5 645.0 -84.0 602.0 -35.5 535.5 -10.5 469.0 14.5 390.5 14.5 351.5 15.0 303.5 8.0 255.5 0.5 208.5 -23.0 161.5 -46.5 126.0 -95.0 109.0 -118.0 97.5 -145.0 85.5 -172.0 78.0 -209.0 70.5 -246.5 67.0 -300.5 63.5 -355.0 63.5 -433.5 L63.5 -480.5 Q63.5 -501.5 64.0 -528.0 64.0 -555.0 64.5 -578.5 64.5 -602.0 64.5 -612.5 L294.0 -612.5 Q291.5 -595.5 290.5 -558.5 289.0 -521.0 289.0 -462.0" fill-rule="evenodd" stroke="none"/>
    </g>
    <g id="font_Lithos_Pro_Regular_A0">
      <path d="M328.0 -261.5 L328.0 -261.5 501.0 -270.5 Q486.0 -300.0 470.0 -332.0 453.5 -364.0 439.0 -393.0 424.5 -422.0 415.0 -443.5 402.5 -418.5 387.5 -387.5 372.0 -356.0 356.5 -323.0 341.5 -290.5 328.0 -261.5 M194.5 32.5 L194.5 32.5 0.0 -76.0 Q8.5 -90.0 34.5 -134.5 60.5 -178.5 99.0 -243.0 137.0 -307.5 181.0 -381.5 225.5 -455.5 269.0 -528.5 313.0 -601.5 351.0 -663.5 388.5 -725.0 414.0 -765.0 L424.0 -765.0 Q461.5 -708.5 513.0 -629.0 564.5 -550.0 620.0 -463.5 676.0 -377.0 727.0 -298.5 778.0 -219.5 815.0 -163.5 852.0 -107.0 865.5 -88.5 L662.5 31.5 Q647.0 5.5 628.0 -28.0 608.5 -61.5 592.5 -89.5 576.0 -117.5 570.5 -127.0 L262.0 -110.0 Q257.5 -102.0 246.0 -77.0 234.5 -52.5 220.5 -22.5 206.5 7.5 194.5 32.5" fill-rule="evenodd" stroke="none"/>
    </g>
    <g id="font_Lithos_Pro_Regular_r0">
      <path d="M311.5 -492.5 L311.5 -266.0 Q311.5 -255.5 311.5 -227.5 312.0 -199.0 312.5 -162.0 312.5 -125.5 313.0 -90.0 314.0 -54.5 314.5 -29.5 315.0 -5.0 315.5 0.0 L95.5 0.0 Q96.5 -7.0 97.5 -31.5 98.0 -56.0 98.5 -89.5 98.5 -123.0 98.5 -156.5 98.5 -190.0 98.5 -214.0 98.5 -238.5 98.5 -244.5 L98.5 -386.0 Q98.5 -394.5 98.5 -419.0 98.0 -443.0 97.5 -474.5 97.5 -506.0 97.0 -537.0 96.0 -568.0 95.5 -590.0 95.0 -612.5 94.5 -618.5 194.0 -619.0 285.0 -617.5 376.5 -616.5 444.5 -608.0 547.5 -595.0 602.0 -557.0 656.0 -519.0 656.5 -458.5 656.0 -404.5 626.0 -361.5 596.0 -319.0 539.5 -284.5 551.0 -273.0 577.0 -247.5 603.5 -222.5 634.5 -193.0 665.5 -163.0 691.5 -138.5 717.0 -113.5 727.0 -102.5 L545.0 29.5 Q537.5 19.0 516.0 -12.0 494.5 -43.0 466.0 -84.5 437.5 -126.0 409.0 -168.0 380.0 -209.5 358.0 -241.5 336.0 -273.5 328.0 -285.5 352.5 -297.5 375.5 -316.0 399.0 -334.0 414.0 -359.5 429.5 -384.5 430.0 -417.0 431.5 -448.5 405.5 -469.5 379.5 -491.0 311.5 -492.5" fill-rule="evenodd" stroke="none"/>
    </g>
    <g id="font_Lithos_Pro_Regular_e0">
      <path d="M519.5 -147.0 L522.5 9.5 Q510.0 9.5 468.5 8.5 427.5 7.5 371.0 6.0 315.0 5.0 257.5 3.5 200.5 2.0 156.0 1.0 112.0 0.0 94.5 0.0 95.0 -18.5 95.5 -56.0 96.0 -93.5 96.5 -136.0 96.5 -178.5 96.5 -211.0 96.5 -244.0 96.5 -253.0 L96.5 -368.5 Q96.5 -373.5 96.5 -397.5 96.0 -421.5 96.0 -455.0 95.5 -489.0 95.0 -523.5 95.0 -558.0 94.5 -584.0 94.5 -610.0 94.5 -618.5 113.0 -618.5 155.5 -620.0 198.5 -621.0 252.5 -623.0 307.0 -625.0 360.0 -627.0 413.0 -629.5 452.0 -631.0 491.5 -633.0 504.0 -634.0 L508.0 -484.5 Q494.0 -484.5 465.0 -483.5 435.5 -483.0 402.5 -482.0 369.0 -481.0 343.5 -480.0 317.5 -479.5 310.5 -479.5 L310.5 -373.5 Q318.0 -373.5 338.5 -374.0 359.0 -375.0 385.5 -376.0 412.0 -377.0 436.5 -378.5 461.5 -380.0 477.5 -381.5 L479.5 -236.5 Q469.5 -236.5 445.5 -237.0 421.5 -237.5 393.5 -238.0 365.0 -238.5 342.0 -239.0 319.0 -239.5 310.5 -239.5 L310.5 -145.0 Q320.0 -145.0 347.0 -144.5 373.5 -144.5 407.0 -144.5 441.0 -144.5 471.5 -145.0 502.0 -145.5 519.5 -147.0" fill-rule="evenodd" stroke="none"/>
    </g>
    <g id="text1" transform="matrix(1.0, 0.0, 0.0, 1.0, -0.05, -8.4)">
      <g transform="matrix(1.0, 0.0, 0.0, 1.0, 0.0, 0.0)">
        <use fill="#cd9e3f" height="32.95" transform="matrix(0.0391, 0.0, 0.0, 0.0391, 0.0, 39.0)" width="296.55" xlink:href="#font_Lithos_Pro_Regular_V0"/>
        <use fill="#cd9e3f" height="32.95" transform="matrix(0.0391, 0.0, 0.0, 0.0391, 32.3, 39.0)" width="296.55" xlink:href="#font_Lithos_Pro_Regular_I0"/>
        <use fill="#cd9e3f" height="32.95" transform="matrix(0.0391, 0.0, 0.0, 0.0391, 49.75, 39.0)" width="296.55" xlink:href="#font_Lithos_Pro_Regular_C0"/>
        <use fill="#cd9e3f" height="32.95" transform="matrix(0.0391, 0.0, 0.0, 0.0391, 75.55, 39.0)" width="296.55" xlink:href="#font_Lithos_Pro_Regular_T0"/>
        <use fill="#cd9e3f" height="32.95" transform="matrix(0.0391, 0.0, 0.0, 0.0391, 100.35, 39.0)" width="296.55" xlink:href="#font_Lithos_Pro_Regular_O0"/>
        <use fill="#cd9e3f" height="32.95" transform="matrix(0.0391, 0.0, 0.0, 0.0391, 136.25, 39.0)" width="296.55" xlink:href="#font_Lithos_Pro_Regular_R0"/>
        <use fill="#cd9e3f" height="32.95" transform="matrix(0.0391, 0.0, 0.0, 0.0391, 167.25, 39.0)" width="296.55" xlink:href="#font_Lithos_Pro_Regular_I0"/>
        <use fill="#cd9e3f" height="32.95" transform="matrix(0.0391, 0.0, 0.0, 0.0391, 184.7, 39.0)" width="296.55" xlink:href="#font_Lithos_Pro_Regular_O0"/>
        <use fill="#cd9e3f" height="32.95" transform="matrix(0.0391, 0.0, 0.0, 0.0391, 220.8, 39.0)" width="296.55" xlink:href="#font_Lithos_Pro_Regular_U0"/>
        <use fill="#cd9e3f" height="32.95" transform="matrix(0.0391, 0.0, 0.0, 0.0391, 254.7, 39.0)" width="296.55" xlink:href="#font_Lithos_Pro_Regular_S0"/>
      </g>
    </g>
    <g id="font_Lithos_Pro_Regular_V0">
      <path d="M625.5 -748.5 L625.5 -748.5 841.5 -637.0 Q831.0 -622.0 801.5 -575.0 772.0 -528.5 730.5 -462.0 688.5 -395.0 641.5 -320.0 594.5 -245.0 549.5 -173.0 504.5 -101.5 468.5 -44.5 432.5 12.5 412.5 43.0 L402.5 43.0 Q375.5 1.0 338.0 -60.0 300.5 -121.0 258.5 -192.0 216.5 -263.0 174.5 -334.0 132.5 -405.5 96.5 -467.0 60.5 -529.0 35.0 -571.5 10.0 -614.5 1.0 -629.0 L221.0 -748.5 Q228.0 -733.5 247.0 -693.5 266.0 -653.0 291.5 -599.0 317.0 -545.5 343.0 -490.0 369.0 -435.0 390.0 -390.5 410.5 -346.0 420.5 -324.5 430.5 -346.5 452.5 -392.5 474.5 -438.0 502.0 -494.5 529.5 -551.0 556.0 -605.0 582.5 -659.5 601.5 -698.5 620.5 -737.5 625.5 -748.5" fill-rule="evenodd" stroke="none"/>
    </g>
    <g id="font_Lithos_Pro_Regular_I0">
      <path d="M341.0 -419.0 L341.0 -419.0 341.0 -309.0 Q341.0 -269.5 341.5 -220.5 342.0 -172.0 342.5 -125.0 343.5 -78.0 344.0 -44.0 344.5 -10.0 345.0 0.0 L107.5 0.0 Q108.0 -14.5 108.5 -47.0 109.0 -80.0 109.5 -121.0 110.0 -162.5 110.0 -203.0 110.5 -243.0 110.5 -272.5 110.5 -302.0 110.5 -311.0 L110.5 -421.5 Q110.5 -427.5 110.0 -457.5 110.0 -487.0 109.5 -529.0 109.0 -571.0 108.5 -613.0 108.0 -655.5 108.0 -686.5 107.5 -717.5 107.5 -726.0 L345.0 -726.0 Q344.5 -718.5 344.0 -687.5 343.5 -656.5 342.5 -611.5 342.0 -566.5 341.5 -516.5 341.0 -466.0 341.0 -419.0" fill-rule="evenodd" stroke="none"/>
    </g>
    <g id="font_Lithos_Pro_Regular_C0">
      <path d="M606.5 -179.0 L606.5 -179.0 616.5 8.5 Q590.0 11.5 561.0 14.0 531.5 16.5 496.0 16.5 370.0 15.5 282.5 -12.5 194.5 -40.5 140.0 -86.0 85.5 -132.0 60.5 -185.5 35.5 -239.5 36.0 -292.0 36.0 -356.0 66.0 -423.5 95.5 -490.5 157.5 -553.0 219.5 -615.5 315.5 -665.0 411.5 -714.5 544.0 -743.5 L589.0 -547.0 Q481.5 -527.0 414.5 -491.5 347.5 -456.0 316.5 -411.0 285.5 -366.0 286.0 -317.5 286.5 -277.5 313.5 -245.0 340.5 -213.0 390.0 -193.5 439.5 -174.5 508.0 -174.0 539.0 -174.0 563.5 -176.0 588.0 -177.5 606.5 -179.0" fill-rule="evenodd" stroke="none"/>
    </g>
    <g id="font_Lithos_Pro_Regular_T0">
      <path d="M456.5 0.0 L456.5 0.0 220.0 0.0 Q220.5 -10.5 221.5 -40.0 222.0 -69.5 222.5 -110.0 222.5 -151.0 223.0 -196.5 223.0 -241.5 223.0 -284.0 L223.0 -553.0 Q204.0 -553.0 171.5 -552.0 139.0 -551.5 103.5 -550.5 67.5 -549.0 38.5 -548.5 9.5 -547.5 -3.5 -547.0 L-3.5 -726.0 Q11.5 -724.5 44.5 -723.5 77.5 -722.5 119.0 -721.5 160.5 -720.5 199.5 -719.5 239.0 -718.5 265.5 -718.0 292.5 -718.0 297.0 -718.0 L386.0 -718.0 Q392.5 -718.0 419.0 -718.0 445.5 -718.5 483.0 -719.5 520.5 -720.5 559.5 -721.5 599.0 -722.5 631.0 -723.5 663.0 -724.5 678.5 -726.0 L678.5 -547.0 Q672.0 -547.0 649.5 -548.0 626.5 -548.5 595.5 -549.5 565.0 -550.5 534.0 -551.0 503.5 -552.0 481.5 -552.5 459.0 -553.0 453.5 -553.0 L453.5 -268.0 Q453.5 -227.5 453.5 -184.5 454.0 -141.0 454.0 -102.0 454.5 -63.0 455.0 -35.5 456.0 -8.5 456.5 0.0" fill-rule="evenodd" stroke="none"/>
    </g>
    <g id="font_Lithos_Pro_Regular_O0">
      <path d="M447.5 -142.0 L447.5 -142.0 Q531.5 -142.5 580.5 -201.5 629.5 -261.0 631.5 -376.0 631.5 -475.5 589.5 -530.0 547.5 -584.5 473.0 -585.0 414.5 -584.0 374.0 -551.5 333.5 -519.0 312.0 -466.0 291.0 -412.5 291.0 -349.0 291.5 -280.5 313.0 -234.5 334.0 -188.5 369.5 -165.0 405.0 -142.0 447.5 -142.0 M436.0 16.5 L436.0 16.5 Q334.0 15.5 259.0 -15.0 184.5 -46.0 136.0 -97.0 88.0 -148.0 64.5 -210.0 41.0 -271.5 41.0 -334.0 41.0 -409.0 68.0 -481.5 95.5 -553.5 150.5 -613.0 205.5 -672.0 289.5 -707.5 373.0 -742.5 486.5 -743.5 608.5 -743.0 697.5 -700.0 786.0 -657.0 834.0 -576.5 882.0 -496.0 882.5 -383.0 882.5 -336.0 869.0 -282.0 855.0 -228.0 824.0 -175.0 793.0 -122.5 741.5 -79.0 689.5 -35.5 614.0 -10.0 539.0 16.0 436.0 16.5" fill-rule="evenodd" stroke="none"/>
    </g>
    <g id="font_Lithos_Pro_Regular_R0">
      <path d="M333.5 -584.5 L333.5 -584.5 333.5 -312.5 Q333.5 -300.0 334.0 -267.0 334.0 -233.5 334.5 -190.5 335.0 -147.0 336.0 -105.5 336.5 -64.0 337.5 -34.5 338.0 -5.5 338.5 0.0 L110.5 0.0 Q111.5 -8.5 112.5 -46.0 113.0 -83.0 113.0 -134.5 113.0 -186.0 113.0 -237.5 113.0 -289.0 112.5 -325.5 112.5 -362.5 112.5 -370.0 L112.5 -454.0 Q112.5 -464.0 112.5 -492.0 112.0 -520.0 111.5 -557.0 111.0 -594.0 110.5 -630.5 110.0 -667.0 109.0 -693.0 108.5 -719.5 107.5 -726.0 178.0 -726.0 246.5 -725.0 314.5 -724.0 375.0 -721.0 435.5 -717.5 482.0 -711.5 596.0 -697.0 655.5 -653.0 715.0 -609.5 715.5 -538.5 714.5 -476.0 679.5 -426.0 644.0 -376.0 583.5 -334.0 596.0 -320.0 626.0 -289.0 656.0 -257.5 692.0 -220.5 727.5 -183.5 757.0 -152.5 786.5 -121.5 797.5 -108.5 L610.0 32.5 Q602.5 20.0 577.5 -16.5 553.0 -53.0 520.0 -101.5 486.5 -150.5 453.5 -199.5 420.0 -248.5 394.5 -286.0 369.0 -324.0 360.0 -338.5 383.5 -351.5 410.5 -374.0 438.0 -396.5 457.5 -426.0 477.0 -455.0 478.0 -489.5 478.5 -514.0 465.0 -535.5 452.0 -556.5 420.0 -570.0 388.5 -583.5 333.5 -584.5" fill-rule="evenodd" stroke="none"/>
    </g>
    <g id="font_Lithos_Pro_Regular_U0">
      <path d="M308.0 -544.0 L308.0 -544.0 308.0 -474.0 Q308.0 -393.0 311.5 -338.0 315.5 -283.0 325.5 -248.0 336.0 -213.0 355.0 -190.5 373.0 -170.0 395.5 -161.5 418.0 -153.0 442.0 -153.5 469.5 -153.5 492.5 -165.0 516.0 -176.5 533.5 -201.5 543.5 -216.5 549.5 -236.5 555.5 -256.0 558.5 -289.0 561.5 -322.0 562.5 -377.5 563.0 -433.0 563.0 -519.0 L563.0 -558.0 Q563.0 -612.0 561.0 -660.0 559.0 -708.0 558.0 -737.5 L792.5 -737.5 Q792.5 -725.5 792.5 -698.5 793.0 -671.0 793.0 -634.0 793.5 -597.0 793.5 -556.0 L793.5 -509.0 Q794.0 -411.0 787.5 -336.0 781.5 -260.5 762.0 -202.5 743.0 -144.5 704.5 -98.0 657.0 -41.5 586.0 -12.5 515.0 16.5 429.0 16.5 386.0 17.5 334.5 8.5 283.0 0.0 232.5 -28.0 182.0 -55.5 142.0 -111.5 123.5 -139.0 110.5 -170.5 97.5 -202.0 89.5 -246.0 81.5 -290.0 78.0 -354.0 74.5 -418.5 74.5 -511.0 L74.5 -566.5 Q74.5 -591.0 75.0 -622.5 75.0 -654.0 75.5 -681.5 75.5 -709.5 75.5 -722.0 L314.0 -722.0 Q311.0 -702.0 309.5 -658.0 308.0 -613.5 308.0 -544.0" fill-rule="evenodd" stroke="none"/>
    </g>
    <g id="font_Lithos_Pro_Regular_S0">
      <path d="M95.5 18.5 L95.5 18.5 67.5 -156.5 Q118.5 -155.0 165.5 -163.5 213.0 -171.5 244.0 -188.5 274.5 -205.0 275.5 -229.5 276.0 -239.0 268.0 -248.5 260.0 -258.0 238.0 -272.0 216.0 -286.0 175.0 -309.0 142.0 -327.5 110.0 -351.5 78.5 -376.0 57.5 -408.0 36.5 -440.5 35.5 -483.5 36.0 -541.5 84.5 -597.5 133.5 -653.0 225.5 -693.0 317.5 -733.0 447.5 -745.5 L475.0 -574.5 Q379.0 -574.5 330.5 -558.5 282.5 -542.5 282.5 -511.0 282.5 -493.5 307.0 -477.5 332.0 -462.0 382.0 -438.5 410.5 -425.0 443.0 -404.0 476.0 -383.0 499.5 -351.0 523.5 -319.0 524.5 -273.5 524.5 -230.5 501.0 -185.5 477.5 -140.0 426.5 -98.5 375.5 -57.5 294.0 -26.5 212.0 4.5 95.5 18.5" fill-rule="evenodd" stroke="none"/>
    </g>
  </defs>
</svg>
