<?xml version="1.0" encoding="UTF-8" standalone="no"?>
<svg xmlns:ffdec="https://www.free-decompiler.com/flash" xmlns:xlink="http://www.w3.org/1999/xlink" ffdec:objectType="frame" height="691.45px" width="701.0px" xmlns="http://www.w3.org/2000/svg">
  <g transform="matrix(1.0, 0.0, 0.0, 1.0, 0.5, 69.2)">
    <use ffdec:characterId="1144" height="401.0" transform="matrix(1.0, 0.0, 0.0, 1.0, -0.5, -0.5)" width="701.0" xlink:href="#shape0"/>
    <use ffdec:characterId="1145" height="189.95" transform="matrix(1.0, 0.0, 0.0, 1.0, 56.1, 115.35)" width="574.7" xlink:href="#shape1"/>
    <use ffdec:characterId="137" height="319.1" transform="matrix(0.4123, 0.0, 0.0, 0.5862, 54.6967, 116.5571)" width="25.0" xlink:href="#shape2"/>
    <use ffdec:characterId="137" height="319.1" transform="matrix(0.0, -0.4123, -1.8022, 0.0, 631.7321, 118.1533)" width="25.0" xlink:href="#shape2"/>
    <use ffdec:characterId="138" height="55.4" transform="matrix(0.3725, 0.0, 0.0, 0.3725, 47.2595, 108.3286)" width="54.3" xlink:href="#shape3"/>
    <use ffdec:characterId="137" height="319.1" transform="matrix(0.4123, 0.0, 0.0, 0.5862, 622.5967, 116.8071)" width="25.0" xlink:href="#shape2"/>
    <use ffdec:characterId="137" height="319.1" transform="matrix(0.0, 0.4123, -1.8022, 0.0, 631.1321, 301.0967)" width="25.0" xlink:href="#shape2"/>
    <use ffdec:characterId="138" height="55.4" transform="matrix(-0.3725, 0.0, 0.0, -0.3725, 639.4405, 311.3214)" width="54.3" xlink:href="#shape3"/>
    <use ffdec:characterId="138" height="55.4" transform="matrix(0.3725, 0.0, 0.0, -0.3725, 47.0095, 310.8714)" width="54.3" xlink:href="#shape3"/>
    <use ffdec:characterId="138" height="55.4" transform="matrix(-0.3725, 0.0, 0.0, 0.3725, 640.4405, 108.0786)" width="54.3" xlink:href="#shape3"/>
    <filter id="filter6">
      <feColorMatrix in="SourceGraphic" result="filterResult0" type="matrix" values="0 0 0 0 0.6,0 0 0 0 0.0,0 0 0 0 0.0,0 0 0 1 0"/>
      <feConvolveMatrix divisor="25.0" in="filterResult0" kernelMatrix="1 1 1 1 1 1 1 1 1 1 1 1 1 1 1 1 1 1 1 1 1 1 1 1 1" order="5 5" result="filterResult1"/>
      <feComposite in="SourceGraphic" in2="filterResult1" operator="over" result="filterResult2"/>
    </filter>
    <use ffdec:characterId="1160" filter="url(#filter6)" height="41.7" transform="matrix(1.0, 0.0, 0.0, 1.0, 248.75, 42.9)" width="231.6" xlink:href="#text0"/>
  </g>
  <defs>
    <g id="shape0" transform="matrix(1.0, 0.0, 0.0, 1.0, 0.5, 0.5)">
      <path d="M700.0 400.0 L0.0 400.0 0.0 0.0 700.0 0.0 700.0 400.0" fill="#000000" fill-opacity="0.8" fill-rule="evenodd" stroke="none"/>
      <path d="M700.0 400.0 L0.0 400.0 0.0 0.0 700.0 0.0 700.0 400.0 Z" fill="none" stroke="#000000" stroke-linecap="round" stroke-linejoin="round" stroke-width="1.0"/>
    </g>
    <g id="shape1" transform="matrix(1.0, 0.0, 0.0, 1.0, -213.5, -61.8)">
      <path d="M760.85 68.85 L239.85 68.85 239.85 242.9 760.85 242.9 760.85 68.85 M788.2 251.75 L230.4 251.75 230.4 248.35 229.55 248.35 229.55 251.75 213.5 251.75 213.5 62.8 235.45 62.8 235.45 62.15 266.75 62.15 266.75 61.8 788.2 61.8 788.2 251.75" fill="#000810" fill-opacity="0.69411767" fill-rule="evenodd" stroke="none"/>
      <path d="M760.85 68.85 L760.85 242.9 239.85 242.9 239.85 68.85 760.85 68.85" fill="#000810" fill-opacity="0.6" fill-rule="evenodd" stroke="none"/>
    </g>
    <g id="shape2" transform="matrix(1.0, 0.0, 0.0, 1.0, 12.5, 158.8)">
      <path d="M6.5 127.4 L6.5 -124.4 6.75 -128.7 6.65 -130.1 Q6.5 -132.75 6.5 -140.3 6.5 -148.85 6.75 -151.35 7.0 -154.2 7.6 -156.5 L7.7 -157.9 7.85 -158.8 12.0 -158.8 12.4 -156.0 12.5 -149.9 12.5 -147.1 12.5 -126.75 12.1 -126.45 12.15 -123.45 12.2 -121.7 Q12.5 -96.85 12.5 0.85 L12.25 141.85 11.65 155.4 11.35 160.3 6.55 160.3 6.5 158.05 Q6.5 151.95 6.75 150.25 L7.0 148.85 6.5 141.85 6.5 130.4 6.5 127.4 M-7.65 160.3 L-12.45 160.3 -12.5 158.05 -12.25 150.25 -12.0 148.85 -12.5 141.85 -12.5 -124.4 -12.25 -128.7 -12.35 -130.1 -12.5 -140.3 -12.25 -151.35 Q-12.0 -154.2 -11.4 -156.5 L-11.3 -157.9 -11.1 -158.8 -6.95 -158.8 -6.6 -156.0 -6.5 -149.9 -6.5 -147.1 -6.5 -126.75 -6.9 -126.45 -6.85 -123.45 Q-6.5 -101.65 -6.5 -9.6 L-6.5 0.85 -6.5 12.9 Q-6.5 84.0 -6.75 141.85 L-7.35 155.4 -7.65 160.3" fill="#34270e" fill-rule="evenodd" stroke="none"/>
      <path d="M7.85 -158.8 L7.7 -157.9 7.6 -156.5 Q7.0 -154.2 6.75 -151.35 6.5 -148.85 6.5 -140.3 6.5 -132.75 6.65 -130.1 L6.75 -128.7 6.5 -124.4 6.5 127.4 6.45 129.7 6.5 130.4 6.5 141.85 7.0 148.85 6.75 150.25 Q6.5 151.95 6.5 158.05 L6.55 160.3 3.2 160.3 3.2 160.2 3.05 157.45 3.0 154.0 3.05 148.3 2.95 142.55 3.2 128.45 3.45 119.2 3.45 113.45 3.4 111.75 3.45 108.45 3.45 108.05 3.7 106.15 3.95 104.15 3.45 98.5 3.2 95.15 3.45 90.0 3.65 87.45 3.45 86.2 Q3.45 79.2 2.95 75.05 L3.2 61.0 3.45 50.55 2.95 22.05 2.65 12.45 2.85 8.4 2.95 -4.55 2.75 -18.75 2.75 -19.2 2.85 -19.35 2.9 -25.25 2.95 -26.6 3.2 -28.15 3.5 -30.3 3.5 -30.35 2.95 -40.95 2.95 -59.1 Q2.95 -65.65 3.45 -79.0 L3.3 -85.0 3.65 -85.6 Q3.4 -99.6 3.45 -120.7 L3.45 -153.8 3.05 -158.8 7.85 -158.8" fill="#cd9e3f" fill-rule="evenodd" stroke="none"/>
      <path d="M3.05 -158.8 L3.45 -153.8 3.45 -120.7 Q3.4 -99.6 3.65 -85.6 L3.3 -85.0 3.45 -79.0 Q2.95 -65.65 2.95 -59.1 L2.95 -40.95 3.5 -30.35 3.5 -30.3 3.2 -28.15 2.95 -26.6 2.9 -25.25 2.85 -19.35 2.75 -19.2 2.75 -18.75 2.95 -4.55 2.85 8.4 2.65 12.45 2.95 22.05 3.45 50.55 3.2 61.0 2.95 75.05 Q3.45 79.2 3.45 86.2 L3.65 87.45 3.45 90.0 3.2 95.15 3.45 98.5 3.95 104.15 3.7 106.15 3.45 108.05 3.45 108.45 3.4 111.75 3.45 113.45 3.45 119.2 3.2 128.45 2.95 142.55 3.05 148.3 3.0 154.0 3.05 157.45 3.2 160.2 3.2 160.3 -4.55 160.3 -4.55 157.85 Q-3.55 139.4 -3.55 130.05 L-3.65 116.25 -3.55 102.55 -3.4 88.8 -3.3 83.3 -3.3 83.2 Q-4.05 72.55 -4.05 67.5 L-3.05 31.5 -2.8 23.35 -3.05 12.3 -3.05 0.05 Q-3.55 -1.75 -3.45 -6.3 L-3.6 -7.2 -3.55 -9.6 -3.55 -30.4 -3.05 -72.8 -4.05 -97.4 -3.8 -112.25 -3.65 -121.7 -3.55 -135.7 -3.95 -152.3 -4.05 -154.95 -4.1 -158.8 3.05 -158.8 M6.5 130.4 L6.45 129.7 6.5 127.4 6.5 130.4" fill="#8e6c24" fill-rule="evenodd" stroke="none"/>
      <path d="M-6.95 -158.8 L-4.1 -158.8 -4.05 -154.95 -3.95 -152.3 -3.55 -135.7 -3.65 -121.7 -3.8 -112.25 -4.05 -97.4 -3.05 -72.8 -3.55 -30.4 -3.55 -9.6 -3.6 -7.2 -3.45 -6.3 Q-3.55 -1.75 -3.05 0.05 L-3.05 12.3 -2.8 23.35 -3.05 31.5 -4.05 67.5 Q-4.05 72.55 -3.3 83.2 L-3.3 83.3 -3.4 88.8 -3.55 102.55 -3.65 116.25 -3.55 130.05 Q-3.55 139.4 -4.55 157.85 L-4.55 160.3 -7.65 160.3 -7.35 155.4 -6.75 141.85 Q-6.5 84.0 -6.5 12.9 L-6.5 0.85 -6.5 -9.6 Q-6.5 -101.65 -6.85 -123.45 L-6.9 -126.45 -6.5 -126.75 -6.5 -147.1 -6.5 -149.9 -6.6 -156.0 -6.95 -158.8" fill="#473612" fill-rule="evenodd" stroke="none"/>
    </g>
    <g id="shape3" transform="matrix(1.0, 0.0, 0.0, 1.0, 126.0, 37.1)">
      <path d="M-87.0 -21.0 L-84.9 -18.95 -79.25 -13.75 -73.75 -8.35 -71.9 -5.7 -71.7 -5.45 Q-72.3 -4.4 -74.25 -2.25 L-76.4 -0.2 -78.85 2.7 -83.25 7.3 -88.3 13.3 Q-92.1 17.8 -94.0 17.8 L-94.3 17.75 -98.0 18.3 Q-99.85 18.3 -105.85 13.25 L-114.6 5.5 -121.3 -0.35 Q-126.0 -4.75 -126.0 -6.85 L-125.95 -7.35 -126.0 -7.85 Q-126.0 -10.35 -121.1 -15.15 L-118.45 -17.75 Q-114.85 -22.45 -111.0 -26.6 -104.6 -33.45 -101.6 -34.55 L-100.65 -35.3 Q-99.35 -36.55 -95.8 -36.7 L-91.85 -37.1 Q-90.15 -37.1 -89.85 -35.85 L-89.85 -34.55 Q-89.85 -32.6 -90.35 -32.2 -90.65 -31.95 -91.7 -31.8 L-91.8 -31.8 -93.15 -31.7 -96.9 -31.55 -98.05 -31.5 -98.5 -31.45 Q-98.65 -29.55 -109.25 -17.7 L-110.85 -15.9 Q-115.4 -10.9 -118.4 -8.2 L-117.75 -7.5 -115.75 -5.85 -112.65 -3.5 Q-108.65 -0.55 -108.0 0.0 -103.85 3.5 -100.25 7.55 L-100.0 7.8 -97.15 10.35 -92.95 6.3 -92.15 5.7 -90.1 4.0 -86.5 1.0 Q-83.3 -2.4 -80.35 -4.6 L-78.85 -5.55 -81.35 -8.1 -84.25 -10.7 -84.55 -11.0 -84.65 -11.1 -87.85 -14.15 -91.25 -10.45 Q-95.6 -5.8 -97.75 -4.3 -98.75 -3.65 -99.25 -3.65 L-99.55 -3.65 -99.95 -3.7 Q-101.25 -3.95 -101.75 -5.1 L-101.95 -5.95 -102.0 -6.65 -102.0 -6.85 -101.65 -7.95 Q-101.0 -9.3 -99.15 -10.9 L-98.0 -11.9 -94.25 -16.0 -90.25 -19.45 Q-89.7 -21.0 -87.8 -20.8 L-87.0 -21.0" fill="#34270e" fill-rule="evenodd" stroke="none"/>
      <path d="M-93.05 -27.75 L-91.95 -27.6 Q-88.8 -27.05 -88.8 -26.4 -88.8 -25.8 -89.4 -25.1 L-90.4 -24.35 -90.95 -24.2 -97.05 -18.4 Q-104.0 -11.55 -104.0 -10.0 -104.0 -9.05 -103.5 -7.8 -102.9 -6.4 -101.95 -5.95 L-101.75 -5.1 Q-101.25 -3.95 -99.95 -3.7 L-99.8 -3.25 -99.6 -3.1 -96.0 -3.1 -88.95 -6.7 Q-85.1 -8.8 -84.25 -10.7 L-81.35 -8.1 -84.25 -5.85 -87.55 -3.85 -90.1 -1.8 -96.8 3.6 Q-99.5 5.9 -100.25 7.55 -103.85 3.5 -108.0 0.0 -108.65 -0.55 -112.65 -3.5 L-115.75 -5.85 -112.35 -9.15 -105.1 -16.6 -98.15 -23.7 Q-96.5 -25.5 -95.6 -27.05 L-94.8 -27.3 Q-94.3 -27.8 -93.05 -27.75" fill="#8e6c24" fill-rule="evenodd" stroke="none"/>
      <path d="M-91.8 -31.8 L-91.8 -31.65 Q-90.85 -32.2 -90.85 -30.9 L-91.05 -29.85 -90.85 -29.35 -90.65 -28.8 Q-90.65 -27.95 -91.95 -27.95 L-92.6 -27.75 -93.05 -27.75 Q-94.3 -27.8 -94.8 -27.3 L-95.6 -27.05 Q-96.5 -25.5 -98.15 -23.7 L-105.1 -16.6 -112.35 -9.15 -115.75 -5.85 -117.75 -7.5 -118.4 -8.2 Q-115.4 -10.9 -110.85 -15.9 L-109.25 -17.7 Q-98.65 -29.55 -98.5 -31.45 L-98.05 -31.5 -96.9 -31.55 -93.15 -31.7 -91.8 -31.8 M-99.95 -3.7 L-99.55 -3.65 -99.25 -3.65 Q-98.75 -3.65 -97.75 -4.3 -95.6 -5.8 -91.25 -10.45 L-87.85 -14.15 -84.65 -11.1 -84.55 -11.0 -84.25 -10.7 Q-85.1 -8.8 -88.95 -6.7 L-96.0 -3.1 -99.6 -3.1 -99.8 -3.25 -99.95 -3.7" fill="#cd9e3f" fill-rule="evenodd" stroke="none"/>
      <path d="M-90.4 -24.35 L-88.4 -22.45 -87.0 -21.0 -87.8 -20.8 Q-89.7 -21.0 -90.25 -19.45 L-94.25 -16.0 -98.0 -11.9 -99.15 -10.9 Q-101.0 -9.3 -101.65 -7.95 L-102.0 -6.85 -102.0 -6.65 -101.95 -5.95 Q-102.9 -6.4 -103.5 -7.8 -104.0 -9.05 -104.0 -10.0 -104.0 -11.55 -97.05 -18.4 L-90.95 -24.2 -90.4 -24.35 M-81.35 -8.1 L-78.85 -5.55 -80.35 -4.6 Q-83.3 -2.4 -86.5 1.0 L-90.1 4.0 -92.15 5.7 -92.95 6.3 -97.15 10.35 -100.0 7.8 -100.25 7.55 Q-99.5 5.9 -96.8 3.6 L-90.1 -1.8 -87.55 -3.85 -84.25 -5.85 -81.35 -8.1" fill="#473612" fill-rule="evenodd" stroke="none"/>
    </g>
    <g id="text0" transform="matrix(1.0, 0.0, 0.0, 1.0, -5.2, -10.2)">
      <g transform="matrix(1.0, 0.0, 0.0, 1.0, 0.0, 0.0)">
        <use fill="#ff6666" height="41.7" transform="matrix(0.0498, 0.0, 0.0, 0.0498, 0.0, 49.0)" width="231.6" xlink:href="#font_Lithos_Pro_Regular_D0"/>
        <use fill="#ff6666" height="41.7" transform="matrix(0.0498, 0.0, 0.0, 0.0498, 42.6, 49.0)" width="231.6" xlink:href="#font_Lithos_Pro_Regular_E0"/>
        <use fill="#ff6666" height="41.7" transform="matrix(0.0498, 0.0, 0.0, 0.0498, 74.3, 49.0)" width="231.6" xlink:href="#font_Lithos_Pro_Regular_F0"/>
        <use fill="#ff6666" height="41.7" transform="matrix(0.0498, 0.0, 0.0, 0.0498, 104.9, 49.0)" width="231.6" xlink:href="#font_Lithos_Pro_Regular_E0"/>
        <use fill="#ff6666" height="41.7" transform="matrix(0.0498, 0.0, 0.0, 0.0498, 136.6, 49.0)" width="231.6" xlink:href="#font_Lithos_Pro_Regular_A0"/>
        <use fill="#ff6666" height="41.7" transform="matrix(0.0498, 0.0, 0.0, 0.0498, 177.65, 49.0)" width="231.6" xlink:href="#font_Lithos_Pro_Regular_T0"/>
      </g>
    </g>
    <g id="font_Lithos_Pro_Regular_D0">
      <path d="M336.0 -562.0 L336.0 -562.0 336.0 -181.0 Q374.0 -187.0 415.5 -204.0 457.0 -221.0 493.0 -249.5 529.0 -278.0 551.5 -318.5 574.0 -359.5 574.5 -413.0 573.5 -472.5 538.5 -505.0 503.5 -537.5 449.0 -550.0 395.0 -562.5 336.0 -562.0 M110.5 -323.0 L110.5 -323.0 110.5 -449.5 Q110.5 -457.0 110.5 -484.0 110.5 -511.0 110.0 -548.0 109.5 -585.0 109.0 -622.5 108.5 -660.0 107.5 -688.0 106.5 -716.5 105.5 -726.0 199.0 -726.0 270.0 -724.0 341.0 -722.5 396.5 -718.0 451.5 -714.0 499.0 -707.5 598.5 -693.0 661.5 -663.0 725.0 -633.0 759.0 -595.5 793.0 -557.5 806.0 -519.0 818.5 -480.5 818.0 -448.5 817.0 -352.0 775.5 -278.0 734.0 -203.5 662.0 -150.0 590.0 -96.5 498.5 -62.0 407.0 -27.5 305.5 -11.5 204.5 5.0 104.5 5.0 105.5 -10.0 106.5 -44.5 107.5 -79.0 108.5 -123.0 109.0 -166.5 109.5 -209.0 110.0 -252.0 110.5 -283.0 110.5 -314.0 110.5 -323.0" fill-rule="evenodd" stroke="none"/>
    </g>
    <g id="font_Lithos_Pro_Regular_E0">
      <path d="M563.0 -165.5 L563.0 -165.5 567.0 10.5 Q557.0 10.5 524.0 9.5 490.5 9.0 443.5 8.0 396.0 6.5 343.5 5.5 291.0 4.0 242.0 3.0 193.5 1.5 157.5 1.0 121.5 0.0 107.5 0.0 108.5 -17.0 109.0 -49.5 109.5 -82.0 110.0 -121.0 110.0 -160.0 110.5 -197.5 110.5 -234.5 110.5 -261.5 110.5 -288.0 110.5 -296.0 L110.5 -433.0 Q110.5 -439.0 110.5 -467.0 110.0 -495.0 109.5 -535.0 109.5 -574.5 109.0 -615.5 108.5 -656.0 108.0 -686.5 108.0 -717.0 107.5 -727.0 126.0 -727.0 171.5 -728.5 217.0 -730.0 276.0 -732.5 334.5 -735.0 392.0 -737.5 449.5 -740.0 492.0 -742.5 534.0 -744.5 546.5 -745.5 L550.5 -575.5 Q535.5 -575.5 503.0 -574.5 471.0 -574.0 434.5 -573.0 398.5 -572.0 370.0 -571.0 341.5 -570.5 333.5 -570.5 L333.5 -435.0 Q342.0 -435.0 364.5 -436.0 387.0 -436.5 416.0 -438.0 445.0 -439.5 472.0 -441.0 499.0 -442.5 517.0 -444.0 L520.0 -280.5 Q508.5 -280.5 482.0 -281.0 456.0 -282.0 424.5 -282.5 393.5 -283.5 368.0 -284.0 343.0 -284.5 333.5 -284.5 L333.5 -163.5 Q344.5 -163.5 374.0 -163.0 403.0 -163.0 440.0 -163.0 477.0 -163.0 510.5 -163.5 544.0 -164.0 563.0 -165.5" fill-rule="evenodd" stroke="none"/>
    </g>
    <g id="font_Lithos_Pro_Regular_F0">
      <path d="M334.5 0.0 L334.5 0.0 106.5 0.0 Q107.5 -17.0 108.5 -49.5 109.0 -82.0 109.5 -121.5 110.0 -160.5 110.5 -198.0 110.5 -235.5 110.5 -262.5 110.5 -290.0 110.5 -298.0 L110.5 -434.0 Q110.5 -439.5 110.5 -467.5 110.0 -495.5 109.5 -535.0 109.5 -574.5 109.0 -615.0 108.0 -655.5 107.5 -686.0 107.0 -716.0 106.5 -726.0 132.0 -726.0 175.0 -727.0 217.5 -728.5 269.5 -730.5 321.5 -732.0 374.5 -734.5 428.0 -736.5 475.0 -738.5 522.0 -741.0 554.5 -742.5 L558.5 -572.5 333.5 -567.5 333.5 -410.5 Q350.5 -411.0 402.0 -414.0 453.5 -417.0 539.5 -419.5 L542.5 -258.0 333.5 -260.0 333.5 -173.0 Q333.5 -166.0 333.5 -141.0 334.0 -116.5 334.0 -86.0 334.0 -55.0 334.5 -31.0 334.5 -6.5 334.5 0.0" fill-rule="evenodd" stroke="none"/>
    </g>
    <g id="font_Lithos_Pro_Regular_A0">
      <path d="M328.0 -261.5 L328.0 -261.5 501.0 -270.5 Q486.0 -300.0 470.0 -332.0 453.5 -364.0 439.0 -393.0 424.5 -422.0 415.0 -443.5 402.5 -418.5 387.5 -387.5 372.0 -356.0 356.5 -323.0 341.5 -290.5 328.0 -261.5 M194.5 32.5 L194.5 32.5 0.0 -76.0 Q8.5 -90.0 34.5 -134.5 60.5 -178.5 99.0 -243.0 137.0 -307.5 181.0 -381.5 225.5 -455.5 269.0 -528.5 313.0 -601.5 351.0 -663.5 388.5 -725.0 414.0 -765.0 L424.0 -765.0 Q461.5 -708.5 513.0 -629.0 564.5 -550.0 620.0 -463.5 676.0 -377.0 727.0 -298.5 778.0 -219.5 815.0 -163.5 852.0 -107.0 865.5 -88.5 L662.5 31.5 Q647.0 5.5 628.0 -28.0 608.5 -61.5 592.5 -89.5 576.0 -117.5 570.5 -127.0 L262.0 -110.0 Q257.5 -102.0 246.0 -77.0 234.5 -52.5 220.5 -22.5 206.5 7.5 194.5 32.5" fill-rule="evenodd" stroke="none"/>
    </g>
    <g id="font_Lithos_Pro_Regular_T0">
      <path d="M456.5 0.0 L456.5 0.0 220.0 0.0 Q220.5 -10.5 221.5 -40.0 222.0 -69.5 222.5 -110.0 222.5 -151.0 223.0 -196.5 223.0 -241.5 223.0 -284.0 L223.0 -553.0 Q204.0 -553.0 171.5 -552.0 139.0 -551.5 103.5 -550.5 67.5 -549.0 38.5 -548.5 9.5 -547.5 -3.5 -547.0 L-3.5 -726.0 Q11.5 -724.5 44.5 -723.5 77.5 -722.5 119.0 -721.5 160.5 -720.5 199.5 -719.5 239.0 -718.5 265.5 -718.0 292.5 -718.0 297.0 -718.0 L386.0 -718.0 Q392.5 -718.0 419.0 -718.0 445.5 -718.5 483.0 -719.5 520.5 -720.5 559.5 -721.5 599.0 -722.5 631.0 -723.5 663.0 -724.5 678.5 -726.0 L678.5 -547.0 Q672.0 -547.0 649.5 -548.0 626.5 -548.5 595.5 -549.5 565.0 -550.5 534.0 -551.0 503.5 -552.0 481.5 -552.5 459.0 -553.0 453.5 -553.0 L453.5 -268.0 Q453.5 -227.5 453.5 -184.5 454.0 -141.0 454.0 -102.0 454.5 -63.0 455.0 -35.5 456.0 -8.5 456.5 0.0" fill-rule="evenodd" stroke="none"/>
    </g>
  </defs>
</svg>
