<?xml version="1.0" encoding="UTF-8" standalone="no"?>
<svg xmlns:ffdec="https://www.free-decompiler.com/flash" xmlns:xlink="http://www.w3.org/1999/xlink" ffdec:objectType="frame" height="57.6px" width="103.7px" xmlns="http://www.w3.org/2000/svg">
  <g transform="matrix(1.0, 0.0, 0.0, 1.0, 102.85, 28.35)">
    <use ffdec:characterId="850" height="57.6" transform="matrix(1.0, 0.0, 0.0, 1.0, -63.35, -28.35)" width="63.7" xlink:href="#shape0"/>
  </g>
  <defs>
    <g id="shape0" transform="matrix(1.0, 0.0, 0.0, 1.0, 31.85, 28.35)">
      <path d="M-2.4 -15.7 L-2.4 -15.75 -2.3 -15.95 -2.3 -16.1 -2.25 -16.6 -2.15 -16.75 -2.05 -16.75 1.45 -27.7 1.55 -28.0 1.65 -28.35 Q2.0 -28.3 2.15 -27.95 L2.3 -27.9 3.05 -27.75 3.25 -27.7 3.35 -27.65 3.4 -27.65 3.4 -27.6 4.05 -26.1 3.9 -26.2 5.15 -23.5 6.4 -21.45 6.45 -21.35 7.45 -19.05 6.95 -19.1 6.95 -18.9 7.2 -18.9 7.35 -18.95 7.45 -18.5 Q7.45 -18.0 6.45 -17.45 L6.25 -17.4 Q4.95 -16.75 3.55 -16.75 L2.6 -16.5 0.9 -16.05 0.25 -15.9 -0.35 -15.75 -0.6 -15.7 -0.9 -15.6 -1.7 -15.45 -2.15 -15.5 -2.25 -15.6 -2.25 -15.7 -2.25 -15.4 -2.05 -14.9 -2.1 -14.9 -2.2 -15.1 -2.4 -15.7 M3.15 29.0 L2.8 28.8 2.7 28.75 2.7 28.7 Q2.65 28.25 3.05 27.15 L0.45 22.7 Q-1.4 19.4 -3.15 17.35 L-3.05 17.25 -0.7 17.75 2.75 18.25 Q5.4 18.25 5.75 19.0 L5.75 19.05 5.8 19.5 5.85 19.65 6.75 18.95 6.85 19.05 6.95 19.05 7.1 19.25 Q6.2 23.3 4.45 27.05 L4.55 27.0 5.0 26.6 5.2 26.35 Q4.1 28.9 3.15 29.0 M23.85 -2.0 L24.4 -1.2 24.5 -1.05 24.55 -1.0 24.55 -0.45 24.55 -0.35 24.05 -0.25 23.3 -0.3 Q22.4 -0.5 20.7 -1.2 18.95 -1.95 17.9 -2.45 L14.4 -3.75 14.45 -3.8 14.55 -3.85 14.6 -3.9 14.7 -3.95 14.65 -4.75 14.3 -4.75 13.3 -5.85 Q14.9 -6.1 18.7 -4.6 L19.0 -4.45 22.1 -3.0 23.35 -2.45 23.35 -2.4 23.65 -2.15 23.85 -2.0 M-23.55 0.75 L-23.55 0.85 -23.45 1.55 -23.4 1.8 -23.4 1.9 -20.3 1.9 -20.3 2.0 -20.3 2.25 Q-19.75 2.6 -22.0 2.95 L-23.4 3.1 -23.4 3.0 -23.5 3.1 -23.65 3.25 -25.15 4.55 -25.25 4.65 -25.65 4.9 -25.8 4.9 -25.8 4.95 -27.15 6.05 -27.5 6.35 -27.5 6.4 -27.7 6.5 -29.2 7.05 -30.35 6.85 Q-31.0 6.5 -31.1 5.85 L-30.85 4.8 -30.6 3.8 -30.8 2.8 -30.8 1.8 -30.65 -2.3 Q-30.55 -3.25 -29.95 -3.35 L-30.0 -3.55 -29.55 -3.4 -29.65 -3.45 -28.9 -3.3 -28.8 -3.25 -28.95 -3.25 -29.3 -3.2 -28.9 -3.0 -26.7 -1.45 -26.15 -1.15 -24.6 0.65 -23.85 0.6 -23.65 0.75 -23.6 0.7 -23.55 0.75 M-0.75 -17.1 L-0.7 -17.05 -0.65 -17.1 -0.75 -17.1" fill="#d58000" fill-opacity="0.9882353" fill-rule="evenodd" stroke="none"/>
      <path d="M6.45 -21.35 L6.4 -21.45 5.15 -23.5 3.9 -26.2 4.05 -26.1 5.85 -25.1 Q10.25 -22.5 11.1 -21.75 L15.15 -18.5 18.8 -15.35 25.6 -8.4 Q29.15 -4.45 30.2 -1.25 L30.0 -0.95 26.55 -1.15 25.7 -0.95 25.5 -1.3 25.15 -1.65 25.15 -1.75 Q25.0 -3.3 21.2 -7.1 L16.65 -11.25 14.3 -13.6 11.9 -15.85 9.55 -17.9 7.6 -19.0 6.65 -21.0 6.45 -21.35" fill="url(#gradient0)" fill-rule="evenodd" stroke="none"/>
      <path d="M-2.4 -15.7 L-2.2 -15.1 -2.1 -14.9 Q-2.3 -14.9 -2.4 -15.05 L-2.5 -15.4 -2.4 -15.7 M7.45 -19.05 L6.45 -21.35 6.65 -21.0 7.6 -19.0 7.45 -19.05 M4.05 -26.1 L3.4 -27.6 Q7.0 -26.65 10.95 -23.55 L19.55 -16.35 Q22.05 -14.4 26.25 -9.65 30.7 -4.45 31.3 -1.95 L31.35 -0.9 31.45 -0.7 31.45 -0.3 31.5 0.0 31.85 0.8 31.65 2.4 31.6 2.05 31.55 1.8 31.55 1.45 31.5 0.75 31.4 0.4 Q30.65 0.5 30.05 1.35 L30.05 0.7 25.85 1.0 25.45 0.8 25.75 -0.45 25.75 -0.55 25.7 -0.95 26.55 -1.15 30.0 -0.95 30.2 -1.25 Q29.15 -4.45 25.6 -8.4 L18.8 -15.35 15.15 -18.5 11.1 -21.75 Q10.25 -22.5 5.85 -25.1 L4.05 -26.1 M27.55 9.15 L27.45 9.3 27.45 9.25 27.55 9.15 M27.4 9.35 L26.65 10.4 27.3 9.45 27.4 9.35 M22.35 14.55 L21.1 15.75 20.85 15.9 21.7 15.0 Q21.95 14.7 22.35 14.55 M-4.2 17.45 L-4.3 17.25 -4.3 17.0 -4.15 17.3 -4.2 17.45 M-4.1 16.55 L-3.95 16.45 Q-3.35 15.85 -2.3 15.35 -0.9 14.6 0.9 14.05 2.1 13.7 3.4 12.75 4.6 11.75 5.5 11.4 L5.65 11.35 5.7 11.35 5.75 11.3 9.85 9.0 10.1 8.9 10.2 8.85 13.25 9.0 10.5 10.5 Q6.65 12.1 5.65 12.65 L0.8 15.4 Q-0.2 16.0 -1.1 16.4 L1.5 16.7 Q5.05 17.1 6.25 18.1 L6.35 18.5 Q6.4 18.8 6.8 18.8 L6.85 18.9 Q7.05 18.95 7.15 19.1 L7.1 19.25 6.95 19.05 6.85 19.05 6.75 18.95 6.35 18.85 5.75 19.05 5.75 19.0 Q5.4 18.25 2.75 18.25 L-0.7 17.75 -3.05 17.25 -3.9 16.95 -4.05 16.85 -4.1 16.55 M23.6 -2.3 L23.85 -2.0 23.65 -2.15 23.35 -2.4 23.6 -2.3 M22.1 1.2 L23.25 1.1 23.9 1.05 24.0 1.25 22.15 3.8 Q20.75 4.5 20.05 5.05 L17.1 6.95 14.65 8.25 14.55 8.3 14.45 7.4 14.45 7.15 13.9 7.15 16.45 5.45 19.5 2.95 22.1 1.2 M-26.15 -1.15 L-24.4 0.0 -23.85 0.6 -24.6 0.65 -26.15 -1.15" fill="#ff9900" fill-opacity="0.9882353" fill-rule="evenodd" stroke="none"/>
      <path d="M6.45 -17.45 Q7.45 -18.0 7.45 -18.5 L7.35 -18.95 7.2 -18.9 6.95 -18.9 6.95 -19.1 7.45 -19.05 7.6 -19.0 9.55 -17.9 11.9 -15.85 14.3 -13.6 16.65 -11.25 21.2 -7.1 Q25.0 -3.3 25.15 -1.75 L25.15 -1.65 25.5 -1.3 25.7 -0.95 25.75 -0.55 25.75 -0.45 25.45 0.8 Q24.2 3.4 18.2 9.8 L12.35 15.05 Q7.9 18.75 6.9 18.8 L6.8 18.8 Q6.4 18.8 6.35 18.5 L6.25 18.1 6.25 18.0 11.95 13.6 Q12.65 13.0 14.3 11.75 L16.85 9.4 20.95 5.15 22.15 3.8 24.0 1.25 24.15 0.95 23.9 1.05 23.25 1.1 22.1 1.2 19.4 1.4 17.95 1.55 19.3 1.5 11.35 2.0 9.3 1.75 7.85 1.6 7.5 1.6 7.1 1.65 -20.3 1.9 -23.4 1.9 -23.4 1.8 -23.45 1.55 -23.55 0.85 -23.55 0.75 -23.4 0.75 -23.4 0.85 7.1 0.4 7.85 0.35 9.75 0.35 13.15 0.55 23.3 -0.3 24.05 -0.25 24.15 -0.25 24.55 -0.1 24.55 -0.35 24.55 -0.45 24.55 -1.0 24.5 -1.05 24.4 -1.2 23.85 -2.0 23.6 -2.3 Q20.15 -6.75 13.5 -12.7 L7.7 -17.6 7.3 -17.4 7.1 -17.65 6.45 -17.45" fill="#ffcc00" fill-opacity="0.9882353" fill-rule="evenodd" stroke="none"/>
      <path d="M-0.6 -15.7 L-0.35 -15.75 0.25 -15.9 0.9 -16.05 2.6 -16.5 3.55 -16.75 Q4.95 -16.75 6.25 -17.4 L6.45 -17.45 7.1 -17.65 7.3 -17.4 7.7 -17.6 13.5 -12.7 Q20.15 -6.75 23.6 -2.3 L23.35 -2.4 23.35 -2.45 22.1 -3.0 19.0 -4.45 18.7 -4.6 Q14.9 -6.1 13.3 -5.85 L10.4 -8.15 6.35 -10.95 2.15 -14.15 -0.6 -15.55 -0.6 -15.7" fill="url(#gradient1)" fill-rule="evenodd" stroke="none"/>
      <path d="M-2.05 -14.9 L-2.25 -15.4 -2.25 -15.7 -2.25 -15.6 -2.15 -15.5 -1.7 -15.45 -0.9 -15.6 -0.65 -15.55 -0.6 -15.55 2.15 -14.15 6.35 -10.95 10.4 -8.15 13.3 -5.85 14.3 -4.75 14.65 -4.75 14.7 -3.95 14.6 -3.9 14.55 -3.85 14.45 -3.8 14.4 -3.75 13.25 -3.45 11.7 -3.15 7.85 -2.95 7.1 -2.95 -23.4 -2.95 -23.4 -3.05 -23.65 -3.05 -25.55 -3.15 -28.8 -3.25 -28.9 -3.3 -29.65 -3.45 -29.55 -3.4 -30.0 -3.55 -29.95 -3.35 Q-30.55 -3.25 -30.65 -2.3 L-30.8 1.8 -30.8 2.8 -30.6 3.8 -30.85 4.8 -31.1 5.85 Q-31.0 6.5 -30.35 6.85 L-29.2 7.05 -27.7 6.5 -27.75 6.55 -28.8 7.35 -23.65 7.4 -23.4 7.4 -23.4 7.5 -16.95 7.5 7.1 7.55 7.85 7.55 11.75 7.5 13.65 7.25 13.9 7.15 14.45 7.15 14.45 7.4 14.55 8.3 14.0 8.4 13.25 9.0 10.2 8.85 10.35 8.75 9.45 8.7 7.85 8.7 7.1 8.7 -23.65 8.65 -23.65 8.55 -24.9 8.55 -28.7 8.55 -29.55 8.5 -30.35 8.15 -30.5 8.05 -30.55 8.2 -30.95 8.1 -31.2 7.95 -31.85 0.5 -31.6 -1.7 -31.6 -1.75 Q-31.2 -2.55 -31.2 -3.35 L-31.2 -3.55 -31.3 -4.2 -27.75 -4.35 -27.15 -4.3 -23.4 -4.3 -23.4 -4.2 7.1 -4.25 7.55 -4.25 7.85 -4.25 11.6 -4.35 12.85 -4.5 9.9 -6.75 6.0 -9.75 3.85 -11.55 2.1 -12.95 -0.8 -14.05 Q-1.75 -14.45 -2.05 -14.9 M31.65 2.4 L31.65 2.45 31.6 2.55 31.55 1.8 31.6 2.05 31.65 2.4 M31.55 1.45 L30.6 3.65 28.25 7.85 28.2 7.9 28.2 7.95 27.9 8.6 27.7 8.95 27.6 9.05 27.55 9.15 27.45 9.25 27.45 9.3 27.4 9.35 27.3 9.45 26.65 10.4 26.6 10.45 26.35 10.7 22.65 14.3 22.4 14.5 22.35 14.55 Q21.95 14.7 21.7 15.0 L20.85 15.9 17.25 19.25 13.35 22.3 Q11.95 23.2 7.65 26.4 L4.0 28.85 4.05 28.9 3.55 29.25 3.15 29.0 Q4.1 28.9 5.2 26.35 L6.9 25.05 11.7 22.0 16.3 18.3 20.5 14.55 Q25.95 9.8 27.45 6.5 L28.8 4.25 29.9 2.25 30.05 1.35 Q30.65 0.5 31.4 0.4 L31.5 0.75 31.55 1.45 M2.7 28.75 Q1.75 27.95 1.0 26.65 L-0.6 23.55 -0.85 23.15 -4.15 17.6 -4.2 17.45 -4.15 17.3 -4.3 17.0 -4.3 16.9 -4.2 16.8 -4.2 16.75 -4.1 16.55 -4.05 16.85 -3.9 16.95 -3.05 17.25 -3.2 17.3 -3.15 17.35 Q-1.4 19.4 0.45 22.7 L3.05 27.15 Q2.65 28.25 2.7 28.7 L2.7 28.75 M5.75 19.05 L6.35 18.85 6.75 18.95 5.85 19.65 5.8 19.5 5.75 19.05 M-22.0 2.95 L-23.4 3.25 -23.4 3.15 -23.45 3.25 -23.65 3.45 -23.85 3.6 -25.15 4.55 -23.65 3.25 -23.5 3.1 -23.4 3.0 -23.4 3.1 -22.0 2.95" fill="#c17400" fill-opacity="0.9882353" fill-rule="evenodd" stroke="none"/>
      <path d="M23.3 -0.3 L13.15 0.55 9.75 0.35 7.85 0.35 7.85 -2.95 11.7 -3.15 13.25 -3.45 14.4 -3.75 17.9 -2.45 Q18.95 -1.95 20.7 -1.2 22.4 -0.5 23.3 -0.3" fill="url(#gradient2)" fill-rule="evenodd" stroke="none"/>
      <path d="M7.85 0.35 L7.1 0.4 7.1 -2.95 7.85 -2.95 7.85 0.35" fill="url(#gradient3)" fill-rule="evenodd" stroke="none"/>
      <path d="M7.1 0.4 L-23.4 0.85 -23.4 0.75 -23.4 -2.95 7.1 -2.95 7.1 0.4" fill="url(#gradient4)" fill-rule="evenodd" stroke="none"/>
      <path d="M-23.4 0.75 L-23.55 0.75 -23.6 0.7 -23.65 0.75 -23.85 0.6 -24.4 0.0 -26.15 -1.15 -26.7 -1.45 -28.9 -3.0 -28.95 -3.25 -28.8 -3.25 -25.55 -3.15 -23.65 -3.05 -23.4 -3.05 -23.4 -2.95 -23.4 0.75" fill="url(#gradient5)" fill-rule="evenodd" stroke="none"/>
      <path d="M-0.6 -15.55 L-0.65 -15.55 -0.6 -15.7 -0.6 -15.55" fill="url(#gradient6)" fill-rule="evenodd" stroke="none"/>
      <path d="M-20.3 1.9 L7.1 1.65 7.1 7.55 -16.95 7.5 -23.4 7.5 -23.4 7.4 -23.4 3.25 -22.0 2.95 Q-19.75 2.6 -20.3 2.25 L-20.3 2.0 -20.3 1.9" fill="url(#gradient7)" fill-rule="evenodd" stroke="none"/>
      <path d="M-23.4 7.4 L-23.65 7.4 -28.8 7.35 -27.75 6.55 -27.7 6.5 -27.5 6.4 -27.5 6.35 -27.15 6.05 -25.8 4.95 -25.8 4.9 -25.65 4.9 -25.25 4.65 -25.15 4.55 -23.85 3.6 -23.65 3.45 -23.45 3.25 -23.4 3.15 -23.4 3.25 -23.4 7.4" fill="url(#gradient8)" fill-rule="evenodd" stroke="none"/>
      <path d="M25.45 0.8 L25.85 1.0 30.05 0.7 30.05 1.35 29.9 2.25 28.8 4.25 27.45 6.5 Q25.95 9.8 20.5 14.55 L16.3 18.3 11.7 22.0 6.9 25.05 5.2 26.35 5.0 26.6 4.55 27.0 4.45 27.05 Q6.2 23.3 7.1 19.25 L7.15 19.1 Q7.05 18.95 6.85 18.9 L6.8 18.8 6.9 18.8 Q7.9 18.75 12.35 15.05 L18.2 9.8 Q24.2 3.4 25.45 0.8" fill="url(#gradient9)" fill-rule="evenodd" stroke="none"/>
      <path d="M22.15 3.8 L20.95 5.15 16.85 9.4 14.3 11.75 Q12.65 13.0 11.95 13.6 L6.25 18.0 6.25 18.1 Q5.05 17.1 1.5 16.7 L-1.1 16.4 Q-0.2 16.0 0.8 15.4 L5.65 12.65 Q6.65 12.1 10.5 10.5 L13.25 9.0 14.0 8.4 14.55 8.3 14.65 8.25 17.1 6.95 20.05 5.05 Q20.75 4.5 22.15 3.8" fill="url(#gradient10)" fill-rule="evenodd" stroke="none"/>
      <path d="M7.85 1.6 L9.3 1.75 11.35 2.0 19.3 1.5 19.35 1.5 19.4 1.45 19.4 1.4 22.1 1.2 19.5 2.95 16.45 5.45 13.9 7.15 13.65 7.25 11.75 7.5 7.85 7.55 7.85 1.6" fill="url(#gradient11)" fill-rule="evenodd" stroke="none"/>
      <path d="M7.1 1.65 L7.5 1.6 7.85 1.6 7.85 7.55 7.1 7.55 7.1 1.65" fill="url(#gradient12)" fill-rule="evenodd" stroke="none"/>
    </g>
    <linearGradient gradientTransform="matrix(-0.0127, -0.0127, -0.0023, 0.0023, 16.55, -13.8)" gradientUnits="userSpaceOnUse" id="gradient0" spreadMethod="pad" x1="-819.2" x2="819.2">
      <stop offset="0.0" stop-color="#ff9900" stop-opacity="0.9882353"/>
      <stop offset="0.5058823529411764" stop-color="#ffc500" stop-opacity="0.9882353"/>
      <stop offset="1.0" stop-color="#ff9a00" stop-opacity="0.9882353"/>
    </linearGradient>
    <linearGradient gradientTransform="matrix(0.0042, 0.0113, 0.0103, -0.0039, 12.45, -6.4)" gradientUnits="userSpaceOnUse" id="gradient1" spreadMethod="pad" x1="-819.2" x2="819.2">
      <stop offset="0.0" stop-color="#ff9900" stop-opacity="0.9882353"/>
      <stop offset="0.5058823529411764" stop-color="#c17400" stop-opacity="0.9882353"/>
      <stop offset="1.0" stop-color="#ff9a00" stop-opacity="0.9882353"/>
    </linearGradient>
    <linearGradient gradientTransform="matrix(-0.0074, 5.0E-4, 2.0E-4, 0.0028, 9.65, -1.5)" gradientUnits="userSpaceOnUse" id="gradient2" spreadMethod="pad" x1="-819.2" x2="819.2">
      <stop offset="0.0" stop-color="#ff9900" stop-opacity="0.9882353"/>
      <stop offset="0.5058823529411764" stop-color="#ffc500" stop-opacity="0.9882353"/>
      <stop offset="1.0" stop-color="#ff9a00" stop-opacity="0.9882353"/>
    </linearGradient>
    <linearGradient gradientTransform="matrix(-0.0088, 5.0E-4, 2.0E-4, 0.0028, 10.0, -1.5)" gradientUnits="userSpaceOnUse" id="gradient3" spreadMethod="pad" x1="-819.2" x2="819.2">
      <stop offset="0.0" stop-color="#ff9900" stop-opacity="0.9882353"/>
      <stop offset="0.5058823529411764" stop-color="#ffc500" stop-opacity="0.9882353"/>
      <stop offset="1.0" stop-color="#ff9a00" stop-opacity="0.9882353"/>
    </linearGradient>
    <linearGradient gradientTransform="matrix(-0.0983, 5.0E-4, 0.0026, 0.0028, 39.5, -1.5)" gradientUnits="userSpaceOnUse" id="gradient4" spreadMethod="pad" x1="-819.2" x2="819.2">
      <stop offset="0.0" stop-color="#ff9900" stop-opacity="0.9882353"/>
      <stop offset="0.5058823529411764" stop-color="#ffc500" stop-opacity="0.9882353"/>
      <stop offset="1.0" stop-color="#ff9a00" stop-opacity="0.9882353"/>
    </linearGradient>
    <linearGradient gradientTransform="matrix(-0.0088, 5.0E-4, 2.0E-4, 0.0028, -17.75, -1.6)" gradientUnits="userSpaceOnUse" id="gradient5" spreadMethod="pad" x1="-819.2" x2="819.2">
      <stop offset="0.0" stop-color="#ff9900" stop-opacity="0.9882353"/>
      <stop offset="0.5058823529411764" stop-color="#ffc500" stop-opacity="0.9882353"/>
      <stop offset="1.0" stop-color="#ff9a00" stop-opacity="0.9882353"/>
    </linearGradient>
    <linearGradient gradientTransform="matrix(0.0079, 0.0092, 0.0045, -0.0039, 12.55, -7.7)" gradientUnits="userSpaceOnUse" id="gradient6" spreadMethod="pad" x1="-819.2" x2="819.2">
      <stop offset="0.0" stop-color="#ff9900" stop-opacity="0.9882353"/>
      <stop offset="0.5058823529411764" stop-color="#c17400" stop-opacity="0.9882353"/>
      <stop offset="1.0" stop-color="#ff9a00" stop-opacity="0.9882353"/>
    </linearGradient>
    <linearGradient gradientTransform="matrix(-0.0503, -0.0049, -0.1344, 0.0079, 44.55, 2.8)" gradientUnits="userSpaceOnUse" id="gradient7" spreadMethod="pad" x1="-819.2" x2="819.2">
      <stop offset="0.0" stop-color="#ff9900" stop-opacity="0.9882353"/>
      <stop offset="0.5058823529411764" stop-color="#c17400" stop-opacity="0.9882353"/>
      <stop offset="1.0" stop-color="#ff9a00" stop-opacity="0.9882353"/>
    </linearGradient>
    <linearGradient gradientTransform="matrix(-0.0045, -0.0049, -0.012, 0.0079, -17.3, 2.7)" gradientUnits="userSpaceOnUse" id="gradient8" spreadMethod="pad" x1="-819.2" x2="819.2">
      <stop offset="0.0" stop-color="#ff9900" stop-opacity="0.9882353"/>
      <stop offset="0.5058823529411764" stop-color="#c17400" stop-opacity="0.9882353"/>
      <stop offset="1.0" stop-color="#ff9a00" stop-opacity="0.9882353"/>
    </linearGradient>
    <linearGradient gradientTransform="matrix(0.0133, -0.0131, -0.0029, -0.0029, 18.65, 11.85)" gradientUnits="userSpaceOnUse" id="gradient9" spreadMethod="pad" x1="-819.2" x2="819.2">
      <stop offset="0.0" stop-color="#ff9900" stop-opacity="0.9882353"/>
      <stop offset="0.5058823529411764" stop-color="#c17400" stop-opacity="0.9882353"/>
      <stop offset="1.0" stop-color="#ff9a00" stop-opacity="0.9882353"/>
    </linearGradient>
    <linearGradient gradientTransform="matrix(0.0015, -0.0066, -0.0118, -0.0027, 10.25, 11.4)" gradientUnits="userSpaceOnUse" id="gradient10" spreadMethod="pad" x1="-819.2" x2="819.2">
      <stop offset="0.0" stop-color="#ff9900" stop-opacity="0.9882353"/>
      <stop offset="0.5058823529411764" stop-color="#ffc500" stop-opacity="0.9882353"/>
      <stop offset="1.0" stop-color="#ff9a00" stop-opacity="0.9882353"/>
    </linearGradient>
    <linearGradient gradientTransform="matrix(-0.0038, -0.0049, -0.0101, 0.0079, 10.05, 2.8)" gradientUnits="userSpaceOnUse" id="gradient11" spreadMethod="pad" x1="-819.2" x2="819.2">
      <stop offset="0.0" stop-color="#ff9900" stop-opacity="0.9882353"/>
      <stop offset="0.5058823529411764" stop-color="#c17400" stop-opacity="0.9882353"/>
      <stop offset="1.0" stop-color="#ff9a00" stop-opacity="0.9882353"/>
    </linearGradient>
    <linearGradient gradientTransform="matrix(-0.0045, -0.0049, -0.012, 0.0079, 10.45, 2.8)" gradientUnits="userSpaceOnUse" id="gradient12" spreadMethod="pad" x1="-819.2" x2="819.2">
      <stop offset="0.0" stop-color="#ff9900" stop-opacity="0.9882353"/>
      <stop offset="0.5058823529411764" stop-color="#c17400" stop-opacity="0.9882353"/>
      <stop offset="1.0" stop-color="#ff9a00" stop-opacity="0.9882353"/>
    </linearGradient>
  </defs>
</svg>
