<?xml version="1.0" encoding="UTF-8" standalone="no"?>
<svg xmlns:ffdec="https://www.free-decompiler.com/flash" xmlns:xlink="http://www.w3.org/1999/xlink" ffdec:objectType="frame" height="7.6px" width="54.6px" xmlns="http://www.w3.org/2000/svg">
  <g transform="matrix(1.0, 0.0, 0.0, 1.0, 2.1, 2.25)">
    <use ffdec:characterId="637" height="3.0" transform="matrix(1.6917, 0.0, 0.0, 1.0, 0.0, 0.0)" width="30.0" xlink:href="#morphshape0"/>
    <use ffdec:characterId="637" height="3.0" transform="matrix(0.3076, 0.0, 0.0, 1.0, 0.0, 0.0)" width="30.0" xlink:href="#morphshape1"/>
    <use ffdec:characterId="642" height="7.6" transform="matrix(1.0, 0.0, 0.0, 1.0, -2.1, -2.25)" width="54.6" xlink:href="#shape0"/>
  </g>
  <defs>
    <g id="morphshape0" transform="matrix(1.0, 0.0, 0.0, 1.0, 0.0, 0.0)">
      <path d="M0.0 0.0 L0.0 3.0 30.0 3.0 30.0 0.0 0.0 0.0" fill="#652100" fill-opacity="0.69803923" fill-rule="evenodd" stroke="none"/>
      <path d="M0.0 0.0 L30.0 0.0 30.0 3.0 0.0 3.0 0.0 0.0 Z" ffdec:has-small-stroke="true" ffdec:original-stroke-width="0.0" fill="none" stroke="#000000" stroke-linecap="round" stroke-linejoin="round" stroke-opacity="0.0" stroke-width="0.7196590607315689"/>
    </g>
    <g id="morphshape1" transform="matrix(1.0, 0.0, 0.0, 1.0, 0.0, 0.0)">
      <path d="M0.0 0.0 L0.0 3.0 30.0 3.0 30.0 0.0 0.0 0.0" fill="#ff5500" fill-opacity="0.69803923" fill-rule="evenodd" stroke="none"/>
      <path d="M0.0 0.0 L30.0 0.0 30.0 3.0 0.0 3.0 0.0 0.0 Z" ffdec:has-small-stroke="true" ffdec:original-stroke-width="0.0" fill="none" stroke="#000000" stroke-linecap="round" stroke-linejoin="round" stroke-opacity="0.0" stroke-width="1.351698378297502"/>
    </g>
    <g id="shape0" transform="matrix(1.0, 0.0, 0.0, 1.0, 2.1, 2.25)">
      <path d="M34.15 -1.0 L34.15 -2.25 34.15 -1.0 -0.85 -1.0 -0.8 3.95 -2.1 5.35 -2.1 -2.25 34.15 -2.25 52.5 -2.25 52.5 -2.15 51.35 -1.0 34.15 -1.0 M50.15 0.1 L50.2 0.1 51.35 -1.0 51.4 -0.85 51.25 4.1 44.75 4.1 44.75 4.05 43.55 4.05 43.1 4.05 40.35 4.05 34.15 4.05 34.15 2.9 34.15 4.05 -0.8 3.95 0.35 3.0 0.35 2.95 0.75 2.95 8.65 2.9 8.95 2.9 34.15 2.9 40.35 2.9 44.75 2.9 50.05 2.9 50.15 2.9 50.15 2.85 50.2 2.35 50.2 0.6 50.15 0.15 50.15 0.1" fill="#cd9e3f" fill-rule="evenodd" stroke="none"/>
      <path d="M34.15 -1.0 L51.35 -1.0 52.5 -2.15 52.5 5.35 34.15 5.35 34.15 4.05 34.15 5.35 -2.1 5.35 -0.8 3.95 -0.85 -1.0 34.15 -1.0 34.15 0.1 34.15 -1.0 M50.15 0.1 L47.25 0.1 34.15 0.1 0.5 0.1 0.3 0.1 0.3 0.25 0.3 0.5 0.3 2.1 0.4 2.85 0.35 2.95 0.35 3.0 -0.8 3.95 34.15 4.05 40.35 4.05 43.1 4.05 43.55 4.05 44.75 4.05 44.75 4.1 51.25 4.1 51.4 -0.85 51.35 -1.0 50.2 0.1 50.15 0.1" fill="#8e6c24" fill-rule="evenodd" stroke="none"/>
    </g>
  </defs>
</svg>
