<?xml version="1.0" encoding="UTF-8" standalone="no"?>
<svg xmlns:ffdec="https://www.free-decompiler.com/flash" xmlns:xlink="http://www.w3.org/1999/xlink" ffdec:objectType="frame" height="174.9px" width="201.65px" xmlns="http://www.w3.org/2000/svg">
  <g transform="matrix(1.0, 0.0, 0.0, 1.0, 97.3, 141.7)">
    <filter id="filter0">
      <feOffset dx="3.5355799791601" dy="3.535487832104965" in="SourceGraphic" result="filterResult0"/>
      <feColorMatrix in="filterResult0" result="filterResult1" type="matrix" values="0 0 0 0 0.0,0 0 0 0 0.0,0 0 0 0 0.0,0 0 0 1 0"/>
      <feColorMatrix in="filterResult1" result="filterResult2" type="matrix" values="1 0 0 0 0,0 1 0 0 0,0 0 1 0 0,0 0 0 0.296875 0"/>
    </filter>
    <use ffdec:characterId="378" filter="url(#filter0)" height="147.2" id="shadowMC" transform="matrix(1.0, 0.0, 0.0, -0.3, -97.3, 33.2083)" width="196.65" xlink:href="#sprite0"/>
    <use ffdec:characterId="101" height="43.5" transform="matrix(1.0, 0.0, 0.0, 1.0, -39.5, -42.5)" width="134.5" xlink:href="#shape6"/>
    <use ffdec:characterId="377" height="55.85" transform="matrix(1.0, 0.0, 0.0, 1.0, -49.5, -54.35)" width="150.0" xlink:href="#shape7"/>
  </g>
  <defs>
    <g id="sprite0" transform="matrix(1.0, 0.0, 0.0, 1.0, 92.3, 141.7)">
      <use ffdec:characterId="370" height="88.25" transform="matrix(0.9983, 0.0267, -0.0267, 0.9983, -77.6396, -106.9126)" width="88.5" xlink:href="#shape0"/>
      <use ffdec:characterId="201" height="34.0" transform="matrix(1.0, 0.0, 0.0, 1.0, -28.5, -32.05)" width="46.45" xlink:href="#shape1"/>
      <use ffdec:characterId="371" height="70.45" transform="matrix(1.0, 0.0, 0.0, 1.0, -29.9, -87.4)" width="78.2" xlink:href="#shape2"/>
      <use ffdec:characterId="372" height="55.7" transform="matrix(0.9936, 0.1093, -0.1093, 0.9936, -29.2866, -126.1985)" width="69.15" xlink:href="#shape3"/>
      <use ffdec:characterId="373" height="77.0" transform="matrix(-0.0286, 0.9973, -0.9973, -0.0286, 23.9468, -73.08)" width="60.1" xlink:href="#shape4"/>
      <use ffdec:characterId="199" height="46.8" transform="matrix(0.8771, 0.4787, -0.4787, 0.8771, -30.5342, -81.1389)" width="25.3" xlink:href="#shape5"/>
    </g>
    <g id="shape0" transform="matrix(1.0, 0.0, 0.0, 1.0, 44.55, 44.3)">
      <path d="M5.75 35.6 L6.15 35.75 6.05 35.8 5.75 35.6 M-35.25 25.85 L-35.4 25.7 -35.7 25.3 -35.8 25.15 -35.05 25.7 -34.45 26.2 -35.25 25.85" fill="#794d31" fill-rule="evenodd" stroke="none"/>
      <path d="M20.45 -38.6 L21.35 -38.35 32.95 -35.1 Q35.45 -34.2 38.65 -31.1 41.95 -27.9 41.95 -26.1 41.95 -21.5 35.45 -19.05 33.0 -18.1 31.35 -16.7 L30.35 -15.8 Q28.6 -13.95 28.45 -11.85 28.3 -9.35 26.8 -3.4 L26.05 -0.05 25.9 0.85 Q25.45 3.15 25.45 4.65 L25.45 4.75 Q25.45 6.7 26.2 9.35 26.95 12.0 26.95 13.25 26.95 17.55 26.1 20.2 L22.6 27.9 Q20.2 32.9 17.85 34.65 L16.4 35.65 16.4 35.7 16.0 36.15 14.5 37.0 14.45 37.0 9.6 40.0 -1.9 40.65 -2.55 40.65 -5.1 40.65 -16.95 40.15 -17.15 40.0 Q-18.25 39.35 -21.1 38.8 L-21.15 38.8 -21.9 38.65 -25.5 37.75 Q-28.1 37.0 -28.95 36.4 -30.75 35.05 -32.05 32.9 -33.55 30.45 -34.4 29.65 L-37.55 26.5 -39.2 24.75 -40.9 22.6 -41.4 21.45 Q-41.95 19.65 -41.95 16.45 -41.95 13.65 -41.5 11.85 -41.05 10.1 -39.45 6.7 L-37.35 3.9 -35.95 2.3 -35.85 2.2 -34.95 1.05 -34.15 -0.3 Q-33.5 -1.65 -33.45 -2.95 L-33.45 -3.0 -33.45 -3.1 Q-33.35 -9.25 -32.15 -13.1 -30.5 -18.55 -25.9 -23.35 -22.15 -27.3 -13.5 -32.55 L-6.05 -36.85 -1.4 -39.35 1.05 -40.1 6.05 -41.35 9.3 -41.6 Q11.7 -41.3 20.45 -38.6 M6.15 35.75 L13.5 34.25 14.85 32.95 16.6 30.65 17.2 29.65 19.15 26.6 Q21.1 23.7 21.35 22.4 22.05 19.0 22.35 14.3 22.6 10.0 22.45 6.35 L22.45 6.2 23.5 -0.1 23.6 -0.85 24.45 -9.85 25.65 -14.25 Q26.3 -16.7 28.6 -17.85 L30.15 -18.6 35.4 -21.3 Q38.95 -23.5 38.95 -25.55 38.95 -26.45 36.6 -29.15 34.3 -31.75 32.95 -32.55 30.5 -33.95 28.4 -34.5 L24.45 -35.1 21.25 -35.85 19.3 -36.35 14.45 -37.6 7.15 -38.05 6.35 -37.65 2.35 -36.15 -4.4 -33.8 -8.1 -31.55 -12.25 -29.0 -12.9 -28.6 Q-18.35 -25.15 -21.45 -21.55 L-24.3 -17.45 -25.95 -14.35 Q-27.65 -11.0 -28.75 -7.0 -29.95 -2.65 -29.95 0.65 L-30.0 1.55 -30.1 2.7 -30.15 3.0 -30.45 4.4 -30.75 5.25 Q-31.2 6.0 -32.05 6.6 L-33.9 7.9 -34.5 8.7 Q-36.45 11.05 -36.75 11.85 -36.95 12.4 -36.95 15.3 -36.95 17.1 -36.55 18.55 L-35.8 20.4 -35.75 20.45 -35.9 21.25 -33.8 22.85 -33.4 23.15 Q-32.8 23.65 -32.1 24.3 -30.05 25.45 -28.35 26.95 L-27.35 27.85 Q-25.0 30.2 -25.0 31.85 -24.5 32.1 -23.95 32.45 L-21.85 34.0 -17.6 34.5 -12.8 34.75 -6.3 35.0 -2.35 35.05 -0.5 35.0 0.0 35.0 0.05 35.0 Q4.2 34.95 5.75 35.6 L6.05 35.8 6.15 35.75 M-35.25 25.85 L-34.45 26.2 -35.05 25.7 -35.8 25.15 -35.7 25.3 -35.4 25.7 -35.25 25.85" fill="#925e3a" fill-rule="evenodd" stroke="none"/>
      <path d="M20.45 -38.6 Q11.7 -41.3 9.3 -41.6 L6.05 -41.35 1.05 -40.1 -1.4 -39.35 -6.05 -36.85 -13.5 -32.55 Q-22.15 -27.3 -25.9 -23.35 -30.5 -18.55 -32.15 -13.1 -33.35 -9.25 -33.45 -3.1 L-33.45 -3.0 -33.45 -2.95 Q-33.5 -1.65 -34.15 -0.3 L-34.95 1.05 -35.85 2.2 -35.95 2.3 -37.35 3.9 -39.45 6.7 Q-41.05 10.1 -41.5 11.85 -41.95 13.65 -41.95 16.45 -41.95 19.65 -41.4 21.45 L-40.9 22.6 -39.2 24.75 -37.55 26.5 -34.4 29.65 Q-33.55 30.45 -32.05 32.9 -30.75 35.05 -28.95 36.4 -28.1 37.0 -25.5 37.75 L-21.9 38.65 -21.15 38.8 -21.1 38.8 Q-18.25 39.35 -17.15 40.0 L-16.95 40.15 -5.1 40.65 -2.55 40.65 -1.9 40.65 9.6 40.0 14.45 37.0 14.5 37.0 16.0 36.15 16.4 35.7 16.4 35.65 17.85 34.65 Q20.2 32.9 22.6 27.9 L26.1 20.2 Q26.95 17.55 26.95 13.25 26.95 12.0 26.2 9.35 25.45 6.7 25.45 4.75 L25.45 4.65 Q25.45 3.15 25.9 0.85 L26.05 -0.05 26.8 -3.4 Q28.3 -9.35 28.45 -11.85 28.6 -13.95 30.35 -15.8 L31.35 -16.7 Q33.0 -18.1 35.45 -19.05 41.95 -21.5 41.95 -26.1 41.95 -27.9 38.65 -31.1 35.45 -34.2 32.95 -35.1 L21.35 -38.35 20.45 -38.6 M1.4 -42.5 L2.5 -42.95 2.55 -42.95 2.7 -43.05 4.65 -43.95 6.0 -44.25 Q13.15 -44.55 17.15 -42.05 22.4 -41.15 28.1 -39.25 43.95 -34.05 43.95 -26.25 43.95 -22.1 42.2 -20.0 40.95 -18.5 38.15 -17.45 L33.6 -15.6 Q32.35 -14.85 31.55 -13.7 31.2 -10.6 29.25 -4.0 L28.95 -3.0 28.15 1.15 27.95 2.15 Q28.4 3.4 28.25 5.1 L28.55 7.1 28.75 7.85 29.0 10.6 29.6 16.65 29.2 18.6 Q28.75 19.9 28.75 20.5 L26.05 26.35 Q23.4 31.8 22.75 32.65 L20.15 35.6 18.35 37.05 17.65 37.55 Q16.95 39.05 14.45 40.3 12.4 41.3 9.35 41.95 5.55 43.7 2.8 43.95 L2.4 43.9 -7.55 43.05 -8.95 43.3 -12.1 42.7 -16.45 42.95 -17.15 42.8 -22.4 42.05 -27.55 39.85 -29.5 39.2 -33.05 36.55 Q-34.2 35.2 -34.5 33.9 L-34.6 33.55 -36.05 31.45 Q-36.65 30.85 -37.5 30.2 L-41.15 27.3 -43.6 24.15 Q-44.4 22.8 -44.4 21.25 L-44.3 20.45 -44.4 19.9 -44.25 18.2 -44.5 17.2 -44.55 15.15 -44.55 15.1 Q-44.1 14.0 -44.1 13.35 L-43.65 10.25 -43.5 9.4 -42.35 7.7 -41.45 5.45 Q-41.05 4.45 -39.8 3.2 -38.7 1.25 -37.15 -0.25 L-37.05 -1.65 -36.25 -9.75 Q-35.8 -12.8 -33.45 -16.6 L-31.8 -19.15 -30.4 -22.0 Q-28.8 -24.8 -26.75 -27.0 L-23.15 -29.4 Q-19.0 -32.4 -16.5 -34.85 L-16.1 -35.2 -12.75 -36.8 Q-10.35 -37.8 -6.15 -39.7 -3.75 -40.3 1.4 -42.5" fill="#000000" fill-rule="evenodd" stroke="none"/>
      <path d="M5.75 35.6 Q4.2 34.95 0.05 35.0 L0.0 35.0 -0.5 35.0 -2.35 35.05 -6.3 35.0 -12.8 34.75 -17.6 34.5 -21.85 34.0 -23.95 32.45 Q-24.5 32.1 -25.0 31.85 -25.0 30.2 -27.35 27.85 L-28.35 26.95 Q-30.05 25.45 -32.1 24.3 -32.8 23.65 -33.4 23.15 L-33.8 22.85 -35.9 21.25 -35.75 20.45 -35.8 20.4 -36.55 18.55 Q-36.95 17.1 -36.95 15.3 -36.95 12.4 -36.75 11.85 -36.45 11.05 -34.5 8.7 L-33.9 7.9 -32.05 6.6 Q-31.2 6.0 -30.75 5.25 L-30.45 4.4 -30.15 3.0 -30.1 2.7 -30.0 1.55 -29.95 0.65 Q-29.95 -2.65 -28.75 -7.0 -27.65 -11.0 -25.95 -14.35 L-24.3 -17.45 -21.45 -21.55 Q-18.35 -25.15 -12.9 -28.6 L-12.25 -29.0 -8.1 -31.55 -4.4 -33.8 2.35 -36.15 6.35 -37.65 7.15 -38.05 14.45 -37.6 19.3 -36.35 21.25 -35.85 24.45 -35.1 28.4 -34.5 Q30.5 -33.95 32.95 -32.55 34.3 -31.75 36.6 -29.15 38.95 -26.45 38.95 -25.55 38.95 -23.5 35.4 -21.3 L30.15 -18.6 28.6 -17.85 Q26.3 -16.7 25.65 -14.25 L24.45 -9.85 23.6 -0.85 23.5 -0.1 22.45 6.2 22.45 6.35 Q22.6 10.0 22.35 14.3 22.05 19.0 21.35 22.4 21.1 23.7 19.15 26.6 L17.2 29.65 16.6 30.65 14.85 32.95 13.5 34.25 6.15 35.75 5.75 35.6" fill="#6a442b" fill-rule="evenodd" stroke="none"/>
    </g>
    <g id="shape1" transform="matrix(1.0, 0.0, 0.0, 1.0, 29.45, 30.75)">
      <path d="M9.0 -1.05 L5.85 -1.1 4.45 -1.1 4.5 -15.45 11.75 -16.5 12.45 -16.6 12.5 -14.45 Q12.55 -13.2 12.95 -11.05 L13.5 -7.7 13.6 -5.2 Q11.5 -5.55 10.65 -4.2 L9.0 -1.4 9.0 -1.05 M-24.4 -1.9 Q-27.7 -5.3 -27.05 -9.25 L-26.75 -11.15 Q-23.95 -10.75 -18.35 -12.85 -13.25 -14.75 -12.4 -15.5 L-12.3 -15.4 -10.45 -13.35 Q-9.0 -11.9 -7.65 -11.35 L-9.6 -10.0 Q-10.1 -9.5 -11.9 -8.3 L-14.2 -6.7 Q-14.7 -6.2 -16.05 -5.45 -17.55 -4.75 -18.0 -4.3 L-18.55 -3.65 Q-19.8 -4.7 -21.7 -4.1 L-23.9 -2.7 -24.35 -1.95 -24.4 -1.9 M10.5 -1.05 L13.2 -2.85 14.0 -0.95 10.5 -1.05 M-24.15 -1.65 L-24.15 -1.85 -21.65 -1.55 -20.0 -1.9 Q-19.95 -1.05 -20.2 0.4 L-20.4 0.9 Q-23.2 -0.7 -24.15 -1.65" fill="#372c22" fill-rule="evenodd" stroke="none"/>
      <path d="M12.95 -26.5 Q12.9 -23.45 13.5 -20.7 13.9 -18.95 14.5 -17.65 14.4 -14.35 15.15 -10.65 16.0 -6.45 16.0 -4.15 L16.0 -2.5 16.2 -2.15 Q17.0 -0.8 17.0 0.1 L16.85 1.0 14.95 1.1 -1.0 1.75 Q-1.45 0.85 -2.25 0.25 L-2.1 0.1 -2.3 -0.65 -2.5 -2.2 Q-2.5 -7.45 -1.75 -12.35 L-2.0 -12.1 Q-3.15 -10.95 -10.25 -6.35 L-13.55 -3.65 Q-15.4 -2.4 -17.55 -2.05 -17.3 -0.3 -18.75 3.05 -19.45 3.55 -20.45 2.85 L-20.45 2.65 Q-22.7 1.9 -26.2 -0.7 -29.15 -3.65 -29.45 -8.95 -29.6 -12.5 -28.75 -14.35 L-28.7 -15.0 -28.6 -15.4 -28.85 -15.65 -28.6 -15.7 -28.15 -17.65 -26.9 -18.3 -26.3 -18.3 -24.75 -18.95 -22.7 -19.4 Q-19.2 -20.1 -17.0 -22.3 L-15.95 -22.65 Q-12.55 -25.45 -9.55 -26.65 -3.2 -29.1 1.3 -24.6 L1.55 -24.35 Q3.4 -28.25 5.9 -29.95 8.6 -31.75 10.8 -29.6 L12.95 -26.5 M9.0 -1.4 L10.65 -4.2 Q11.5 -5.55 13.6 -5.2 L13.5 -7.7 12.95 -11.05 Q12.55 -13.2 12.5 -14.45 L12.45 -16.6 11.75 -16.5 4.5 -15.45 4.45 -1.1 5.85 -1.1 9.0 -1.05 9.05 -1.05 9.35 -1.05 9.0 -1.4 M10.5 -1.05 L14.0 -0.95 13.2 -2.85 10.5 -1.05 M-12.4 -15.5 Q-13.25 -14.75 -18.35 -12.85 -23.95 -10.75 -26.75 -11.15 L-27.05 -9.25 Q-27.7 -5.3 -24.4 -1.9 L-24.15 -1.65 Q-23.2 -0.7 -20.4 0.9 -20.35 0.85 -20.25 0.95 L-20.2 0.4 Q-19.95 -1.05 -20.0 -1.9 L-21.65 -1.55 -24.15 -1.85 Q-24.25 -1.85 -24.35 -1.95 L-23.9 -2.7 -21.7 -4.1 Q-19.8 -4.7 -18.55 -3.65 L-18.0 -4.3 Q-17.55 -4.75 -16.05 -5.45 -14.7 -6.2 -14.2 -6.7 L-11.9 -8.3 Q-10.1 -9.5 -9.6 -10.0 L-7.65 -11.35 Q-9.0 -11.9 -10.45 -13.35 L-12.3 -15.4 -12.35 -15.55 -12.4 -15.5" fill="#000000" fill-rule="evenodd" stroke="none"/>
      <path d="M9.0 -1.05 L9.0 -1.4 9.05 -1.05 9.0 -1.05" fill="#5b6171" fill-rule="evenodd" stroke="none"/>
    </g>
    <g id="shape2" transform="matrix(1.0, 0.0, 0.0, 1.0, 23.8, 32.6)">
      <path d="M8.6 -28.65 Q11.2 -30.7 12.7 -31.15 22.9 -34.35 28.75 -30.4 33.85 -27.0 33.7 -20.15 L33.5 -19.55 33.25 -19.3 33.8 -19.15 35.8 -18.9 37.45 -16.8 39.05 -15.35 39.3 -14.45 Q40.55 -12.7 40.9 -9.55 L41.55 -4.4 41.45 -4.0 42.65 -3.15 Q45.75 -0.7 46.4 1.1 L46.8 1.3 47.8 2.45 Q48.8 3.95 48.8 6.2 48.8 10.05 47.5 12.05 46.25 13.95 41.3 17.9 L36.3 17.9 36.35 18.05 Q33.6 17.8 31.8 14.85 30.15 14.25 27.65 11.85 26.65 11.65 25.5 10.45 L24.55 9.55 23.9 9.05 23.1 8.6 Q22.6 8.4 21.95 7.7 21.2 11.0 21.2 14.6 L21.2 16.25 21.2 16.35 21.2 16.5 21.5 17.65 Q21.35 18.45 18.95 18.95 L18.55 19.05 18.7 20.2 18.7 21.25 Q20.45 21.1 21.5 22.65 22.9 25.95 23.7 26.9 L27.1 30.95 Q28.2 32.35 28.2 34.0 L28.05 34.95 27.85 35.1 28.0 35.25 27.7 35.35 27.7 35.45 27.65 36.3 27.45 36.65 21.2 36.6 14.5 37.05 -1.8 37.85 -22.9 37.85 -22.95 37.8 -23.5 37.6 Q-23.8 37.4 -23.8 36.6 -23.8 35.3 -23.0 33.15 L-21.65 29.35 -20.25 25.5 -19.3 23.75 -19.3 22.5 -19.15 20.25 -19.1 20.2 Q-21.4 19.9 -22.05 19.15 -22.65 18.55 -22.3 17.35 L-22.3 17.0 -22.3 15.7 Q-22.3 4.25 -19.6 -3.85 -16.05 -14.7 -8.2 -17.35 L-7.95 -17.5 -7.55 -17.65 Q-4.2 -19.15 1.3 -19.15 1.55 -20.15 2.95 -22.35 L5.1 -25.4 Q6.15 -26.7 8.6 -28.65 M31.6 -19.75 Q30.85 -26.7 27.05 -28.8 25.05 -29.9 20.2 -29.9 11.55 -29.9 6.6 -23.95 4.6 -21.55 3.75 -19.1 L10.2 -18.2 14.2 -18.15 16.25 -17.7 18.85 -16.9 20.7 -15.55 21.55 -14.7 21.75 -14.75 Q22.85 -14.85 23.7 -13.35 L23.8 -13.2 24.7 -12.55 25.1 -12.15 25.05 -13.5 25.25 -15.25 25.3 -15.4 Q25.95 -17.25 27.45 -18.5 L28.2 -18.95 28.15 -19.05 28.8 -19.45 30.3 -19.9 30.35 -19.75 31.1 -19.65 31.1 -19.4 31.6 -19.45 31.6 -19.75 M18.05 -14.1 L17.45 -14.35 16.75 -14.6 15.45 -15.05 14.4 -15.3 13.9 -15.45 Q13.6 -15.15 12.95 -15.15 L12.9 -15.15 13.4 -13.3 13.6 -12.5 Q14.2 -9.9 14.2 -8.3 L14.15 -7.25 14.8 -7.7 15.1 -7.9 Q16.0 -8.45 17.0 -8.2 L17.85 -7.9 18.05 -8.0 18.2 -7.15 Q18.2 -6.65 17.0 -5.9 L15.15 -4.9 13.85 -4.35 15.05 -2.9 16.7 -1.1 16.6 -0.45 Q16.45 -0.15 15.7 -0.15 15.2 -0.15 14.6 -0.45 L13.25 -1.45 12.75 -1.95 Q11.45 1.3 9.7 3.35 L9.0 3.2 Q8.7 3.05 8.7 2.25 L10.45 -2.55 10.65 -3.05 10.3 -2.95 7.45 -2.15 6.25 -2.35 5.7 -2.85 Q6.8 -4.2 9.45 -5.1 L9.9 -5.15 10.0 -5.2 9.85 -5.4 Q7.7 -8.2 7.7 -8.65 L7.9 -9.5 8.2 -9.6 Q9.85 -8.85 11.9 -6.65 L12.2 -8.25 Q12.2 -9.55 11.45 -12.1 10.85 -14.15 10.75 -15.3 L6.7 -15.75 0.95 -16.35 0.55 -16.4 0.45 -16.4 -0.7 -16.4 -4.0 -16.15 -5.3 -15.95 Q-6.4 -15.7 -6.85 -15.25 L-7.1 -15.0 Q-8.0 -14.3 -9.15 -14.15 L-9.2 -14.15 Q-13.2 -11.95 -14.9 -8.35 -18.2 -1.5 -18.8 1.4 -19.65 5.3 -19.8 11.1 L-19.8 17.55 -15.9 18.1 -15.3 18.1 -11.65 18.0 10.7 17.35 11.75 17.3 12.5 17.25 14.55 17.1 15.75 17.0 17.2 16.85 18.85 16.35 19.25 16.05 19.2 14.2 19.25 12.45 19.75 7.6 20.05 5.95 20.25 5.2 20.2 4.85 Q20.2 4.25 20.6 4.05 L21.2 2.4 Q23.2 -2.3 23.2 -5.8 L23.25 -5.95 23.3 -6.25 23.35 -6.9 22.6 -8.5 22.1 -9.7 21.1 -12.2 20.9 -12.4 20.75 -12.55 20.65 -12.6 18.05 -14.1 M39.0 -5.5 Q38.75 -9.55 37.75 -12.45 36.6 -15.95 34.7 -16.55 33.65 -17.35 31.8 -17.5 29.85 -17.65 28.8 -16.9 L28.7 -16.9 Q27.05 -16.45 27.05 -13.1 27.05 -10.75 30.05 -6.9 32.9 -3.15 34.3 -3.15 37.55 -3.15 37.55 -5.55 L38.55 -5.45 39.0 -5.45 39.0 -5.5 M27.05 -6.65 L26.5 -7.3 25.85 -4.3 25.3 -1.55 24.85 0.1 24.35 0.3 23.2 3.65 23.0 4.25 Q24.3 4.8 24.95 5.85 L25.5 6.55 Q26.65 6.95 27.3 7.9 L28.9 9.2 29.95 10.1 29.55 8.55 28.55 -1.3 28.6 -3.7 28.75 -4.65 27.05 -6.65 M46.1 3.7 L44.05 5.45 Q41.9 6.9 40.8 6.9 L40.3 6.85 37.8 7.05 Q35.6 7.05 35.1 5.0 L35.05 2.3 Q35.05 1.1 34.45 -0.95 32.55 -1.15 30.8 -2.55 L31.0 -0.65 31.05 5.1 Q31.05 6.75 32.55 10.95 L33.55 13.4 34.05 13.85 34.0 14.15 35.25 14.5 36.2 15.15 38.0 14.85 41.7 14.85 42.6 14.15 45.1 11.45 46.35 9.05 46.8 6.4 Q46.8 5.0 46.35 3.95 L46.15 3.55 46.1 3.7 M37.15 -1.2 L37.25 0.0 Q37.3 4.2 37.55 4.8 38.65 4.85 41.2 3.7 L44.55 2.05 41.4 -0.8 39.1 -2.85 38.8 -2.35 Q38.25 -1.55 37.15 -1.2 M48.4 0.15 L48.5 0.0 48.8 0.15 48.4 0.15 M54.2 0.15 L54.4 0.05 54.4 0.15 54.2 0.15 M14.9 19.2 Q14.4 19.3 14.15 19.6 5.15 20.35 -15.55 20.35 L-17.05 20.35 Q-17.0 21.65 -17.3 23.65 L-10.65 23.0 -1.3 22.35 15.3 21.7 15.3 21.5 16.45 21.6 16.9 21.6 16.85 21.55 Q16.7 21.3 16.7 20.35 L16.9 19.15 14.9 19.2 M21.8 34.4 L24.7 34.35 24.8 34.35 25.55 34.35 26.0 34.35 24.85 32.55 Q23.1 29.4 22.6 29.1 L20.6 25.95 Q19.7 24.55 18.55 24.3 L17.2 24.35 16.9 24.25 16.2 24.35 15.9 24.35 15.3 24.4 11.5 24.5 -8.15 25.4 -13.0 25.7 -15.55 25.85 -17.55 25.65 -18.4 27.9 -19.8 31.65 -20.35 35.05 Q-20.55 35.75 -20.9 36.3 L-19.0 36.25 -15.9 36.2 -15.75 36.2 -12.4 36.1 15.35 34.65 16.2 34.6 19.55 34.4 21.8 34.4" fill="#000000" fill-rule="evenodd" stroke="none"/>
      <path d="M46.35 3.95 L46.1 3.7 46.15 3.55 46.35 3.95" fill="#c6b19f" fill-rule="evenodd" stroke="none"/>
      <path d="M31.1 -19.65 L30.35 -19.75 30.3 -19.9 28.8 -19.45 28.15 -19.05 28.2 -18.95 27.45 -18.5 Q25.95 -17.25 25.3 -15.4 L25.25 -15.25 25.05 -13.5 25.1 -12.15 24.7 -12.55 23.8 -13.2 23.7 -13.35 Q22.85 -14.85 21.75 -14.75 L21.55 -14.7 20.7 -15.55 18.85 -16.9 16.25 -17.7 14.2 -18.15 10.2 -18.2 3.75 -19.1 Q4.6 -21.55 6.6 -23.95 11.55 -29.9 20.2 -29.9 25.05 -29.9 27.05 -28.8 30.85 -26.7 31.6 -19.75 L31.1 -19.65 M37.15 -1.2 Q38.25 -1.55 38.8 -2.35 L39.1 -2.85 41.4 -0.8 44.55 2.05 41.2 3.7 Q38.65 4.85 37.55 4.8 37.3 4.2 37.25 0.0 L37.15 -1.2" fill="#794d31" fill-rule="evenodd" stroke="none"/>
      <path d="M14.9 19.2 L16.9 19.15 16.7 20.35 Q16.7 21.3 16.85 21.55 L16.9 21.6 16.45 21.6 15.3 21.5 15.3 21.7 -1.3 22.35 -10.65 23.0 -17.3 23.65 Q-17.0 21.65 -17.05 20.35 L-15.55 20.35 Q5.15 20.35 14.15 19.6 14.4 19.3 14.9 19.2" fill="#332d26" fill-rule="evenodd" stroke="none"/>
      <path d="M38.55 -5.45 L37.55 -5.55 Q37.55 -3.15 34.3 -3.15 32.9 -3.15 30.05 -6.9 27.05 -10.75 27.05 -13.1 27.05 -16.45 28.7 -16.9 L28.8 -16.9 Q29.85 -17.65 31.8 -17.5 33.65 -17.35 34.7 -16.55 36.6 -15.95 37.75 -12.45 38.75 -9.55 39.0 -5.5 L38.55 -5.45 M46.35 3.95 Q46.8 5.0 46.8 6.4 L46.35 9.05 45.1 11.45 42.6 14.15 41.7 14.85 38.0 14.85 36.2 15.15 35.25 14.5 34.0 14.15 34.05 13.85 33.55 13.4 32.55 10.95 Q31.05 6.75 31.05 5.1 L31.0 -0.65 30.8 -2.55 Q32.55 -1.15 34.45 -0.95 35.05 1.1 35.05 2.3 L35.1 5.0 Q35.6 7.05 37.8 7.05 L40.3 6.85 40.8 6.9 Q41.9 6.9 44.05 5.45 L46.1 3.7 46.35 3.95" fill="#aa8a71" fill-rule="evenodd" stroke="none"/>
      <path d="M0.55 -16.4 L0.8 -16.35 0.0 -15.5 0.0 -14.25 Q0.0 -7.85 -5.1 5.55 -8.85 15.3 -11.15 18.0 L-11.65 18.0 -15.3 18.1 -15.9 18.1 -19.8 17.55 -19.8 11.1 Q-19.65 5.3 -18.8 1.4 -18.2 -1.5 -14.9 -8.35 -13.2 -11.95 -9.2 -14.15 L-9.15 -14.15 Q-8.0 -14.3 -7.1 -15.0 L-6.85 -15.25 Q-6.4 -15.7 -5.3 -15.95 L-4.0 -16.15 -0.7 -16.4 0.45 -16.4 0.55 -16.4 M15.75 17.0 L15.9 15.15 Q16.25 11.3 17.0 8.5 L19.3 1.8 Q21.0 -3.2 21.0 -5.35 21.0 -7.75 20.65 -8.5 19.45 -10.9 18.8 -12.85 L18.05 -14.1 20.65 -12.6 20.75 -12.55 20.9 -12.4 21.1 -12.2 22.1 -9.7 22.6 -8.5 23.35 -6.9 23.3 -6.25 23.25 -5.95 23.2 -5.8 Q23.2 -2.3 21.2 2.4 L20.6 4.05 Q20.2 4.25 20.2 4.85 L20.25 5.2 20.05 5.95 19.75 7.6 19.25 12.45 19.2 14.2 19.25 16.05 18.85 16.35 17.2 16.85 15.75 17.0 M15.9 24.35 L16.2 24.35 16.9 24.25 17.2 24.35 18.55 24.3 Q19.7 24.55 20.6 25.95 L22.6 29.1 Q23.1 29.4 24.85 32.55 L26.0 34.35 25.55 34.35 24.8 34.35 24.7 34.35 21.8 34.4 19.75 31.0 15.9 24.35 M-15.75 36.2 L-15.9 36.2 -19.0 36.25 -20.9 36.3 Q-20.55 35.75 -20.35 35.05 L-19.8 31.65 -18.4 27.9 -17.55 25.65 -15.55 25.85 -13.0 25.7 -13.25 27.1 Q-13.0 27.45 -13.0 28.15 L-13.1 29.3 -13.6 29.55 -13.85 29.7 -14.5 32.2 -15.75 36.2" fill="#942403" fill-rule="evenodd" stroke="none"/>
      <path d="M10.45 -2.55 L8.7 2.25 Q8.7 3.05 9.0 3.2 L9.7 3.35 Q11.45 1.3 12.75 -1.95 L13.25 -1.45 14.6 -0.45 Q15.2 -0.15 15.7 -0.15 16.45 -0.15 16.6 -0.45 L16.7 -1.1 15.05 -2.9 13.85 -4.35 15.15 -4.9 17.0 -5.9 Q18.2 -6.65 18.2 -7.15 L18.05 -8.0 17.85 -7.9 17.0 -8.2 Q16.0 -8.45 15.1 -7.9 L14.8 -7.7 14.15 -7.25 14.2 -8.3 Q14.2 -9.9 13.6 -12.5 L13.4 -13.3 12.9 -15.15 12.95 -15.15 Q13.6 -15.15 13.9 -15.45 L14.4 -15.3 15.45 -15.05 16.75 -14.6 17.45 -14.35 18.05 -14.1 18.8 -12.85 Q19.45 -10.9 20.65 -8.5 21.0 -7.75 21.0 -5.35 21.0 -3.2 19.3 1.8 L17.0 8.5 Q16.25 11.3 15.9 15.15 L15.75 17.0 14.55 17.1 12.5 17.25 11.75 17.3 10.7 17.35 -11.65 18.0 -11.15 18.0 Q-8.85 15.3 -5.1 5.55 0.0 -7.85 0.0 -14.25 L0.0 -15.5 0.8 -16.35 0.55 -16.4 0.95 -16.35 6.7 -15.75 10.75 -15.3 Q10.85 -14.15 11.45 -12.1 12.2 -9.55 12.2 -8.25 L11.9 -6.65 Q9.85 -8.85 8.2 -9.6 L7.9 -9.5 7.7 -8.65 Q7.7 -8.2 9.85 -5.4 L10.0 -5.2 9.9 -5.15 9.45 -5.1 Q6.8 -4.2 5.7 -2.85 L6.25 -2.35 7.45 -2.15 10.3 -2.95 10.45 -2.55 M27.05 -6.65 L28.75 -4.65 28.6 -3.7 28.55 -1.3 29.55 8.55 29.95 10.1 28.9 9.2 27.3 7.9 Q26.65 6.95 25.5 6.55 L24.95 5.85 Q24.3 4.8 23.0 4.25 L23.2 3.65 24.35 0.3 24.85 0.1 25.3 -1.55 25.85 -4.3 26.5 -7.3 27.05 -6.65 M15.9 24.35 L19.75 31.0 21.8 34.4 19.55 34.4 16.2 34.6 15.35 34.65 -12.4 36.1 -15.75 36.2 -14.5 32.2 -13.85 29.7 -13.6 29.55 -13.1 29.3 -13.0 28.15 Q-13.0 27.45 -13.25 27.1 L-13.0 25.7 -8.15 25.4 11.5 24.5 15.3 24.4 15.9 24.35" fill="#731c02" fill-rule="evenodd" stroke="none"/>
    </g>
    <g id="shape3" transform="matrix(1.0, 0.0, 0.0, 1.0, 34.55, 27.85)">
      <path d="M3.8 -25.1 L7.85 -25.3 Q24.65 -25.3 30.15 -11.3 32.4 -5.55 32.55 0.95 L31.8 2.7 31.65 2.95 29.6 2.9 28.85 0.2 28.8 0.05 Q27.5 -6.3 26.55 -8.9 21.75 -21.9 7.35 -21.9 -3.45 -21.9 -9.9 -14.45 -15.7 -7.75 -16.25 2.5 L-16.3 8.6 -16.25 14.75 Q-16.25 17.2 -16.65 17.8 -17.7 19.55 -22.15 20.55 -22.85 20.7 -27.25 23.2 L-31.8 23.2 -31.9 23.0 -32.0 22.85 -32.05 22.3 -32.05 22.2 Q-32.05 21.15 -26.25 18.8 L-20.3 16.45 -20.5 16.0 -20.55 15.95 -20.05 15.75 -20.0 15.5 -19.95 15.3 -19.95 14.95 -19.8 12.9 -19.75 12.2 -19.4 7.05 -19.3 5.4 -19.3 5.2 -19.3 5.15 -19.3 5.0 -19.3 4.9 -19.3 4.85 -19.3 4.75 -19.3 4.7 -19.35 1.3 -19.4 0.9 -19.45 0.5 -19.45 0.45 -19.4 -0.3 -18.05 -5.7 -18.85 -4.75 Q-17.8 -9.7 -15.9 -13.35 L-15.85 -13.4 -14.95 -14.4 -13.85 -16.55 -13.8 -16.6 -13.4 -17.15 -12.65 -18.0 Q-8.45 -22.55 -1.55 -24.25 L0.7 -24.65 3.8 -25.1" fill="#695441" fill-rule="evenodd" stroke="none"/>
      <path d="M-27.25 23.2 Q-22.85 20.7 -22.15 20.55 -17.7 19.55 -16.65 17.8 -16.25 17.2 -16.25 14.75 L-16.3 8.6 -16.25 2.5 Q-15.7 -7.75 -9.9 -14.45 -3.45 -21.9 7.35 -21.9 21.75 -21.9 26.55 -8.9 27.5 -6.3 28.8 0.05 L28.85 0.2 29.6 2.9 10.35 2.55 -1.85 2.5 -4.9 2.85 -4.8 3.35 -4.75 4.05 Q-5.65 5.4 -6.05 8.25 L-6.8 14.85 Q-8.0 23.15 -14.0 23.2 L-27.25 23.2 M7.9 25.7 L3.75 25.7 Q1.85 24.15 1.35 20.4 1.2 19.05 1.2 14.3 L1.2 9.1 0.9 5.05 0.95 5.0 1.1 4.55 9.35 4.75 9.85 4.75 9.85 4.8 10.9 4.9 11.3 4.8 Q12.6 4.6 13.35 5.7 L13.55 9.55 13.6 15.75 13.05 21.0 11.85 23.7 Q10.65 25.65 8.3 25.8 L7.9 25.7" fill="#372c22" fill-rule="evenodd" stroke="none"/>
      <path d="M3.8 -25.1 L0.7 -24.65 -1.55 -24.25 3.8 -25.1 M-13.85 -16.55 L-14.95 -14.4 -15.85 -13.4 Q-14.95 -15.15 -13.85 -16.55 M-18.85 -4.75 L-18.05 -5.7 -19.4 -0.3 -19.45 0.45 -19.6 -0.15 -18.85 -4.75 M31.65 2.95 L31.8 2.7 32.55 0.95 32.55 2.95 32.05 2.95 31.65 2.95" fill="#5b6171" fill-rule="evenodd" stroke="none"/>
      <path d="M31.2 -12.8 Q33.45 -7.3 34.6 3.25 L34.4 4.0 34.1 4.3 34.0 4.65 33.75 4.95 30.55 4.95 Q31.0 6.5 31.15 8.4 L31.2 13.8 31.5 16.65 Q31.65 19.05 31.2 20.75 29.85 25.8 22.6 25.95 L18.7 26.2 17.5 26.9 18.4 26.2 18.05 26.2 13.9 26.0 12.35 27.25 7.8 27.6 7.45 27.7 6.9 27.85 Q0.75 27.5 -0.3 25.7 L-0.6 24.95 -0.8 24.95 -1.45 24.95 -3.7 25.2 -4.8 25.15 Q-5.45 24.7 -6.7 24.75 L-7.5 24.9 -23.3 25.45 Q-32.0 25.45 -34.0 23.85 -34.65 23.35 -34.55 22.7 L-34.3 22.1 Q-34.3 20.8 -30.0 18.2 -25.45 15.45 -22.55 15.45 L-22.1 15.45 -22.25 15.15 -22.3 13.95 Q-22.55 8.1 -22.4 5.1 -22.25 2.1 -21.6 0.4 L-21.8 -0.8 Q-21.8 -3.65 -20.2 -8.15 -18.1 -14.0 -14.45 -18.4 -3.85 -31.05 15.25 -26.8 27.25 -22.4 31.2 -12.8 M32.55 0.95 Q32.4 -5.55 30.15 -11.3 24.65 -25.3 7.85 -25.3 L3.8 -25.1 -1.55 -24.25 Q-8.45 -22.55 -12.65 -18.0 L-13.4 -17.15 -13.8 -16.6 -13.85 -16.55 Q-14.95 -15.15 -15.85 -13.4 L-15.9 -13.35 Q-17.8 -9.7 -18.85 -4.75 L-19.6 -0.15 -19.45 0.45 -19.45 0.5 -19.4 0.9 -19.35 1.3 -19.3 4.7 -19.3 4.75 -19.3 4.85 -19.3 4.9 -19.3 5.0 -19.3 5.15 -19.3 5.2 -19.3 5.4 -19.4 7.05 -19.75 12.2 -19.8 12.9 -19.95 14.95 -19.95 15.3 -20.0 15.5 -20.05 15.75 -20.55 15.95 -20.5 16.0 -20.3 16.45 -26.25 18.8 Q-32.05 21.15 -32.05 22.2 L-32.05 22.3 -32.0 22.85 -31.9 23.0 -31.8 23.2 -27.25 23.2 -14.0 23.2 Q-8.0 23.15 -6.8 14.85 L-6.05 8.25 Q-5.65 5.4 -4.75 4.05 L-4.8 3.35 -4.9 2.85 -1.85 2.5 10.35 2.55 29.6 2.9 31.65 2.95 32.05 2.95 32.55 2.95 32.55 0.95 M28.8 4.95 L28.7 4.95 28.7 5.35 28.8 4.95 M20.3 23.35 L20.4 23.4 20.6 23.6 21.35 23.75 Q28.25 23.35 29.2 14.75 L29.35 12.45 Q22.15 12.5 17.05 14.15 L16.8 14.3 16.8 14.6 16.8 15.95 Q16.7 18.95 16.3 20.5 L15.7 22.8 18.6 23.25 20.25 23.5 20.3 23.35 M8.3 25.8 Q10.65 25.65 11.85 23.7 L13.05 21.0 13.6 15.75 13.55 9.55 13.35 5.7 Q12.6 4.6 11.3 4.8 L10.9 4.9 9.85 4.8 9.85 4.75 9.35 4.75 1.1 4.55 0.95 5.0 0.9 5.05 1.2 9.1 1.2 14.3 Q1.2 19.05 1.35 20.4 1.85 24.15 3.75 25.7 L7.9 25.7 7.95 25.85 8.3 25.8 M17.8 9.8 L18.7 9.95 Q19.95 9.95 19.75 9.7 L20.05 9.25 20.2 8.2 20.1 7.1 20.0 6.7 18.05 6.6 17.65 6.65 17.2 6.6 17.2 6.7 17.2 9.7 17.25 9.95 17.8 9.8" fill="#000000" fill-rule="evenodd" stroke="none"/>
      <path d="M20.3 23.35 L20.25 23.5 18.6 23.25 15.7 22.8 16.3 20.5 Q16.7 18.95 16.8 15.95 L16.8 14.6 16.8 14.3 17.05 14.15 Q22.15 12.5 29.35 12.45 L29.2 14.75 Q28.25 23.35 21.35 23.75 L20.6 23.6 20.4 23.4 20.3 23.35" fill="#aa8a71" fill-rule="evenodd" stroke="none"/>
      <path d="M17.65 6.65 L18.05 6.6 20.0 6.7 20.1 7.1 20.2 8.2 20.05 9.25 19.75 9.7 Q19.95 9.95 18.7 9.95 L17.8 9.8 17.2 9.7 17.2 6.7 17.65 6.65" fill="#ffffff" fill-rule="evenodd" stroke="none"/>
    </g>
    <g id="shape4" transform="matrix(1.0, 0.0, 0.0, 1.0, 30.05, 41.5)">
      <path d="M1.3 -34.5 Q3.05 -33.65 3.45 -33.25 4.6 -32.1 4.85 -29.75 L2.4 -29.5 Q1.1 -29.3 0.15 -29.8 -0.55 -30.2 -0.85 -30.95 L-0.7 -31.0 -0.6 -31.05 -0.95 -31.15 Q-1.35 -32.4 -0.9 -34.5 L1.3 -34.5 M3.3 -22.45 L5.05 -22.5 5.05 -21.3 Q4.7 -20.8 4.6 -20.0 L4.6 -19.95 4.25 -19.8 4.0 -19.6 4.0 -13.85 3.55 -13.85 -1.85 1.05 -2.0 1.65 -2.5 -3.1 -3.0 -7.35 -2.85 -9.3 Q-0.05 -11.1 1.15 -15.05 L2.15 -18.1 1.75 -18.15 2.25 -18.1 2.4 -18.85 Q3.1 -20.95 3.5 -21.5 L3.15 -21.8 3.3 -22.45 M4.0 -9.95 L4.0 -7.25 Q5.0 4.75 5.0 11.05 L5.0 20.5 Q5.0 21.6 6.0 25.35 7.0 29.1 7.0 30.0 L7.0 31.3 6.5 32.05 Q6.25 32.75 7.1 33.15 L6.1 33.25 4.0 25.0 Q3.7 24.1 3.35 19.95 3.0 16.0 3.0 14.25 L2.95 10.95 Q2.9 8.2 3.0 6.55 3.05 5.55 4.0 2.5 L4.6 0.65 4.4 -2.35 4.05 -2.35 Q2.45 3.0 2.3 5.8 2.1 8.55 2.15 13.0 2.2 17.4 2.5 21.0 2.75 24.55 3.0 25.3 L3.8 28.1 4.75 31.0 Q5.0 31.65 4.85 33.25 L2.15 33.25 0.5 33.25 Q0.4 29.75 -0.4 24.25 L-1.75 15.05 -2.0 15.05 -2.0 8.1 -1.5 3.0 1.8 -4.45 4.0 -9.95 M-0.35 33.2 L-3.35 32.75 -3.5 31.35 -2.75 27.1 -2.05 23.15 -1.0 27.8 Q-0.45 29.75 -0.35 33.05 L-0.35 33.2 M-2.75 -10.95 L-2.0 -19.15 -1.7 -19.4 -1.45 -21.0 Q-1.45 -21.8 -2.1 -21.95 L-2.1 -22.1 2.7 -22.45 2.35 -22.4 2.2 -21.95 Q1.6 -21.7 1.15 -20.35 0.6 -18.7 0.5 -16.6 0.25 -14.4 -1.65 -12.25 L-2.75 -10.95" fill="#211b14" fill-rule="evenodd" stroke="none"/>
      <path d="M27.8 -31.6 L27.8 -32.15 27.8 -32.75 27.8 -32.9 27.35 -36.6 27.0 -38.55 Q26.2 -38.05 24.8 -37.55 L23.55 -37.15 20.6 -36.25 13.55 -34.55 6.75 -32.95 7.05 -30.75 Q7.05 -28.1 4.7 -27.55 L2.2 -27.5 0.05 -27.75 Q-1.95 -28.1 -2.45 -29.0 L-3.15 -30.25 Q-13.45 -26.9 -21.75 -20.5 L-22.45 -19.95 -21.7 -20.25 Q-18.65 -21.4 -14.3 -22.35 L-4.6 -23.95 -3.95 -24.0 5.8 -24.5 15.6 -23.6 21.1 -22.9 21.35 -22.85 22.15 -23.0 Q22.75 -23.0 23.75 -22.45 L26.15 -21.9 26.3 -22.4 26.35 -22.55 27.5 -27.75 27.75 -30.4 27.8 -31.35 27.8 -31.6 M29.3 -39.55 Q30.05 -37.3 30.05 -33.0 30.05 -19.0 26.7 -19.0 L26.1 -19.05 25.55 -19.0 Q24.75 -19.0 23.0 -20.05 L22.1 -20.65 21.5 -20.75 15.6 -21.5 9.85 -22.2 7.1 -22.45 7.25 -17.2 6.85 -17.3 6.75 -16.8 6.3 -13.85 6.0 -13.65 6.0 -13.15 Q7.0 1.55 7.0 8.75 L6.95 14.0 Q6.9 17.3 7.0 19.55 7.15 23.6 8.1 25.75 9.0 27.75 9.0 29.85 9.0 34.5 7.55 35.25 L2.5 35.5 Q-4.2 35.5 -5.5 33.55 -5.9 32.95 -5.75 32.15 L-5.5 31.3 Q-5.5 29.65 -4.65 27.05 -3.85 24.65 -4.0 22.0 L-4.0 12.75 -5.0 -12.3 -5.0 -17.7 -5.25 -17.35 Q-5.6 -18.25 -5.15 -21.75 L-11.4 -21.05 Q-16.0 -20.6 -21.95 -17.5 L-27.9 -14.5 -28.25 -14.55 -28.8 -14.0 Q-31.15 -14.0 -29.05 -16.65 L-26.15 -19.75 Q-21.45 -24.0 -18.95 -25.5 -10.9 -30.45 -3.95 -32.4 -4.45 -34.55 -3.05 -35.6 -1.9 -36.5 0.3 -36.5 2.5 -36.5 4.05 -35.8 L5.65 -34.75 11.8 -36.3 26.7 -41.0 26.75 -41.0 26.75 -41.2 Q26.85 -41.5 27.65 -41.5 28.65 -41.5 29.3 -39.55 M1.3 -34.5 L-0.9 -34.5 Q-1.35 -32.4 -0.95 -31.15 L-0.6 -31.05 -0.7 -31.0 -0.85 -30.95 Q-0.55 -30.2 0.15 -29.8 1.1 -29.3 2.4 -29.5 L4.85 -29.75 Q4.6 -32.1 3.45 -33.25 3.05 -33.65 1.3 -34.5 M3.3 -22.45 L2.7 -22.45 -2.1 -22.1 -2.45 -22.05 -2.45 -22.0 -2.1 -21.95 Q-1.45 -21.8 -1.45 -21.0 L-1.7 -19.4 -2.0 -19.35 -2.0 -19.15 -2.75 -10.95 -2.75 -10.75 -2.85 -9.6 -2.85 -9.3 -3.0 -7.35 -2.5 -3.1 -2.0 1.65 -2.0 2.1 -2.0 8.1 -2.0 15.05 -2.0 22.25 -2.05 23.1 -2.05 23.15 -2.75 27.1 -3.5 31.35 -3.35 32.75 -0.35 33.2 0.5 33.25 2.15 33.25 4.85 33.25 6.1 33.25 7.1 33.15 Q6.25 32.75 6.5 32.05 L7.0 31.3 7.0 30.0 Q7.0 29.1 6.0 25.35 5.0 21.6 5.0 20.5 L5.0 11.05 Q5.0 4.75 4.0 -7.25 L4.0 -9.95 4.0 -13.85 4.0 -19.6 4.25 -19.8 4.6 -19.95 4.6 -20.0 Q4.7 -20.8 5.05 -21.3 L5.05 -22.5 3.3 -22.45" fill="#000000" fill-rule="evenodd" stroke="none"/>
      <path d="M2.7 -22.45 L3.3 -22.45 3.15 -21.8 3.5 -21.5 Q3.1 -20.95 2.4 -18.85 L2.25 -18.1 1.75 -18.15 2.15 -18.1 1.15 -15.05 Q-0.05 -11.1 -2.85 -9.3 L-2.85 -9.6 -2.75 -10.75 -2.75 -10.95 -1.65 -12.25 Q0.25 -14.4 0.5 -16.6 0.6 -18.7 1.15 -20.35 1.6 -21.7 2.2 -21.95 L2.35 -22.4 2.7 -22.45 M4.0 -13.85 L4.0 -9.95 1.8 -4.45 -1.5 3.0 -2.0 8.1 -2.0 2.1 -2.0 1.65 -1.85 1.05 3.55 -13.85 4.0 -13.85 M6.1 33.25 L4.85 33.25 Q5.0 31.65 4.75 31.0 L3.8 28.1 3.0 25.3 Q2.75 24.55 2.5 21.0 2.2 17.4 2.15 13.0 2.1 8.55 2.3 5.8 2.45 3.0 4.05 -2.35 L4.4 -2.35 4.6 0.65 4.0 2.5 Q3.05 5.55 3.0 6.55 2.9 8.2 2.95 10.95 L3.0 14.25 Q3.0 16.0 3.35 19.95 3.7 24.1 4.0 25.0 L6.1 33.25 M0.5 33.25 L-0.35 33.2 -0.35 33.05 Q-0.45 29.75 -1.0 27.8 L-2.05 23.15 -2.05 23.1 -2.0 22.25 -2.0 15.05 -1.75 15.05 -0.4 24.25 Q0.4 29.75 0.5 33.25" fill="#372c22" fill-rule="evenodd" stroke="none"/>
      <path d="M23.55 -37.15 L23.45 -36.05 23.35 -35.5 25.05 -35.3 24.05 -34.1 23.1 -32.55 Q20.95 -32.1 19.55 -31.0 19.1 -29.9 20.9 -28.2 L24.05 -25.5 Q23.15 -25.5 22.0 -24.3 21.05 -23.25 21.05 -23.0 L21.1 -22.9 15.6 -23.6 5.8 -24.5 -3.95 -24.0 -4.6 -23.95 -14.3 -22.35 Q-18.65 -21.4 -21.7 -20.25 L-21.75 -20.5 Q-13.45 -26.9 -3.15 -30.25 L-2.45 -29.0 Q-1.95 -28.1 0.05 -27.75 L2.2 -27.5 4.7 -27.55 Q7.05 -28.1 7.05 -30.75 L6.75 -32.95 13.55 -34.55 20.6 -36.25 23.55 -37.15 M27.5 -27.75 L27.6 -28.8 26.85 -29.3 27.65 -29.45 27.75 -30.4 27.5 -27.75 M27.8 -31.35 L27.35 -31.5 27.8 -31.6 27.8 -31.35" fill="#60606c" fill-rule="evenodd" stroke="none"/>
      <path d="M23.55 -37.15 L24.8 -37.55 Q26.2 -38.05 27.0 -38.55 L27.35 -36.6 27.8 -32.9 27.8 -32.75 27.8 -32.15 27.8 -31.6 27.35 -31.5 27.8 -31.35 27.75 -30.4 27.65 -29.45 26.85 -29.3 27.6 -28.8 27.5 -27.75 26.35 -22.55 26.3 -22.4 26.15 -21.9 23.75 -22.45 Q22.75 -23.0 22.15 -23.0 L21.35 -22.85 21.1 -22.9 21.05 -23.0 Q21.05 -23.25 22.0 -24.3 23.15 -25.5 24.05 -25.5 L20.9 -28.2 Q19.1 -29.9 19.55 -31.0 20.95 -32.1 23.1 -32.55 L24.05 -34.1 25.05 -35.3 23.35 -35.5 23.45 -36.05 23.55 -37.15" fill="#414149" fill-rule="evenodd" stroke="none"/>
    </g>
    <g id="shape5" transform="matrix(1.0, 0.0, 0.0, 1.0, 12.05, 21.8)">
      <path d="M13.25 -13.55 Q13.25 -9.25 11.1 -3.95 L7.35 4.15 Q6.25 4.3 5.85 5.3 L5.2 5.1 8.15 9.4 Q12.4 15.8 12.4 17.3 12.4 18.05 10.25 19.8 6.9 22.5 0.3 24.6 L-0.45 24.9 -1.75 25.0 Q-4.4 25.0 -8.2 15.75 -11.65 7.4 -11.65 4.7 L-11.6 4.35 -12.05 4.1 -11.45 1.2 Q-10.3 -3.85 -9.15 -5.75 L-9.55 -6.1 -9.7 -5.95 -10.25 -5.7 Q-11.25 -6.9 -11.25 -7.35 -11.25 -9.65 -7.45 -13.65 -4.1 -17.2 -0.95 -18.95 7.85 -23.95 11.35 -20.15 13.25 -18.05 13.25 -13.55 M9.5 -19.15 Q4.55 -19.15 2.05 -17.9 0.45 -17.1 -4.0 -13.15 L-7.2 -9.55 -8.55 -7.55 -7.55 -6.95 -7.45 -6.95 -7.45 -6.9 -7.05 -6.55 Q-3.65 -3.2 -2.2 -2.45 2.85 0.95 5.8 3.25 L8.25 -3.3 Q11.25 -10.95 11.25 -13.45 10.5 -19.15 9.5 -19.15 M1.85 4.25 L2.25 3.65 -1.3 0.95 -7.55 -4.35 -9.25 1.35 -9.55 2.4 Q-9.15 3.7 -9.05 5.85 L-9.05 6.9 Q-9.05 8.55 -5.8 15.55 -2.45 22.8 -1.2 22.8 1.15 22.6 10.0 16.4 L2.45 5.15 1.85 4.25" fill="#000000" fill-rule="evenodd" stroke="none"/>
      <path d="M1.85 4.25 L2.45 5.15 10.0 16.4 Q1.15 22.6 -1.2 22.8 -2.45 22.8 -5.8 15.55 -9.05 8.55 -9.05 6.9 L-9.05 5.85 Q-9.15 3.7 -9.55 2.4 L-9.25 1.35 -7.55 -4.35 -1.3 0.95 2.25 3.65 1.85 4.25" fill="#aa8a71" fill-rule="evenodd" stroke="none"/>
      <path d="M9.5 -19.15 Q10.5 -19.15 11.25 -13.45 11.25 -10.95 8.25 -3.3 L5.8 3.25 Q2.85 0.95 -2.2 -2.45 -3.65 -3.2 -7.05 -6.55 L-7.45 -6.9 -7.45 -6.95 -7.55 -6.95 -8.55 -7.55 -7.2 -9.55 -4.0 -13.15 Q0.45 -17.1 2.05 -17.9 4.55 -19.15 9.5 -19.15" fill="#942403" fill-rule="evenodd" stroke="none"/>
    </g>
    <g id="shape6" transform="matrix(1.0, 0.0, 0.0, 1.0, 67.25, 21.75)">
      <path d="M10.3 -14.4 L10.9 -16.55 11.1 -17.25 10.4 -16.65 Q7.65 -14.25 6.75 -12.95 L4.5 -9.4 Q3.3 -6.9 4.25 -5.45 L4.25 -0.6 4.55 -0.5 Q4.65 0.3 4.25 1.6 4.3 2.0 5.0 2.25 L7.4 2.5 9.25 2.35 10.05 1.55 Q9.2 0.45 8.85 -1.6 L8.75 -4.25 Q8.75 -7.5 9.95 -13.1 L10.3 -14.4 M12.6 -15.5 Q11.45 -13.0 11.25 -11.95 10.95 -10.65 10.85 -8.15 L10.95 -8.15 Q12.05 -7.8 13.25 -6.45 14.85 -4.95 17.8 -5.4 19.35 -5.65 20.75 -4.25 L20.75 -8.7 Q21.6 -9.65 22.05 -11.7 22.55 -14.05 23.1 -15.0 25.25 -18.8 35.25 -19.5 45.5 -24.1 55.2 -14.7 59.0 -11.05 61.45 -6.3 63.75 -1.85 63.75 1.3 63.75 4.85 61.75 8.05 60.5 10.05 58.75 11.2 L60.0 11.8 Q60.65 11.1 62.05 10.3 63.85 9.25 65.0 9.25 66.55 9.25 67.05 11.3 L67.25 13.35 Q67.25 16.45 65.05 17.35 L65.5 18.25 65.8 18.25 66.05 18.4 Q66.25 18.5 66.25 19.25 L66.1 19.95 Q65.9 19.95 65.8 20.25 L64.95 20.25 64.75 20.25 64.5 20.25 46.8 20.85 Q43.5 21.7 40.75 21.75 L-66.35 21.75 -66.55 21.6 -66.75 20.9 -67.2 20.15 -67.25 19.25 Q-67.25 16.5 -65.55 14.9 L-60.1 10.55 Q-59.35 9.9 -57.75 9.25 -56.7 8.8 -56.7 8.15 L-56.75 7.05 Q-56.3 6.15 -54.6 4.9 L-51.85 3.0 Q-48.35 0.55 -44.7 2.4 L-44.65 2.45 Q-42.55 1.1 -41.1 0.45 L-40.75 -0.45 -40.3 -2.7 Q-40.0 -3.85 -38.5 -4.95 -36.3 -6.6 -27.75 -6.7 L-26.45 -8.1 Q-24.05 -9.9 -20.05 -7.15 -19.55 -10.3 -17.95 -13.2 -15.2 -18.05 -10.25 -20.25 L-9.7 -20.05 -9.75 -18.6 -9.4 -15.5 Q-10.55 -13.0 -10.75 -11.95 -11.05 -10.6 -11.15 -8.1 L-10.4 -8.45 -8.85 -8.85 Q-8.3 -11.65 -6.95 -14.3 -4.2 -19.4 0.75 -21.75 L1.3 -21.55 1.25 -20.0 1.6 -16.7 Q0.45 -14.05 0.25 -12.95 L-0.15 -9.4 1.0 -9.45 2.45 -9.3 Q3.0 -11.3 4.05 -13.2 6.8 -18.05 11.75 -20.25 L12.3 -20.05 12.25 -18.6 12.6 -15.5 M2.0 -0.35 L1.9 -0.9 1.8 -2.95 1.75 -3.0 1.75 -3.75 1.65 -5.75 1.8 -5.65 2.0 -7.25 0.4 -7.55 -0.2 -7.75 -0.2 -7.6 -0.25 -5.0 Q-0.25 -3.35 0.45 -0.25 L0.75 1.05 0.75 1.1 0.75 1.55 0.6 2.4 Q0.3 3.15 -0.5 3.75 -1.75 4.75 -3.25 4.75 -7.0 4.75 -7.95 3.4 L-8.2 2.3 -8.25 1.8 Q-8.9 0.5 -9.1 -1.25 L-9.1 -1.3 -9.2 -3.4 -9.25 -3.45 -9.25 -4.25 -9.35 -6.4 -9.2 -6.25 -9.15 -6.75 -9.45 -6.55 -11.25 -5.75 -11.25 -4.45 -11.25 -4.4 -11.25 -4.25 -10.95 -1.95 -10.25 1.25 -10.25 1.3 -10.25 1.75 Q-10.25 2.3 -10.55 2.85 L-11.5 3.8 Q-12.75 4.75 -14.25 4.75 L-16.25 4.65 -16.55 4.6 -16.25 4.75 Q-18.05 5.8 -19.25 5.65 -20.75 5.5 -22.75 6.25 L-23.5 6.0 -23.75 5.1 -23.75 5.0 Q-23.75 3.4 -21.85 3.2 -20.6 3.1 -18.75 3.7 L-18.95 3.5 Q-19.2 3.15 -19.25 1.95 -19.9 0.75 -20.1 -0.9 L-20.15 -1.45 -20.2 -2.95 -20.25 -3.0 -20.25 -3.75 -20.35 -5.75 -20.2 -5.65 -20.1 -6.6 Q-21.05 -6.0 -22.5 -6.2 -24.5 -6.5 -25.0 -6.2 L-25.45 -4.5 Q-25.85 -3.55 -27.25 -3.25 L-28.0 -3.6 -28.1 -3.75 -30.4 -3.85 -35.2 -4.0 -36.35 -3.45 Q-37.55 -2.85 -37.75 -2.45 L-38.45 -0.5 -38.6 0.15 -38.25 0.75 -39.4 1.95 Q-40.3 3.0 -41.65 3.5 L-41.7 3.5 -42.6 4.95 Q-43.15 5.75 -44.0 5.75 -44.9 5.75 -45.55 3.85 -49.2 3.85 -50.25 4.55 L-52.45 5.95 Q-53.95 7.0 -54.35 7.75 L-54.5 9.7 Q-54.6 11.05 -55.75 11.25 -58.15 11.65 -61.5 14.3 -63.15 15.65 -64.3 17.55 L-65.65 20.05 -61.45 19.5 Q-54.0 18.9 -35.95 19.0 L8.65 19.5 31.3 18.9 57.35 18.35 57.4 18.35 62.4 18.3 62.3 17.75 Q59.9 17.55 58.75 15.3 L58.1 13.45 57.75 12.8 57.2 12.8 Q54.6 12.85 54.0 13.55 53.4 14.25 52.5 14.25 L50.75 14.0 Q50.05 14.0 50.3 13.25 L50.55 12.05 50.7 11.65 50.6 11.7 Q49.9 11.7 46.55 10.5 L45.8 7.75 45.75 7.75 45.5 6.8 44.3 6.8 Q40.45 6.95 38.3 9.4 35.7 12.25 33.25 12.25 30.95 12.25 30.7 11.75 30.8 11.0 30.25 10.5 L24.55 9.5 24.25 7.75 24.05 5.75 Q23.75 5.75 23.75 5.3 19.45 6.35 17.2 5.35 16.0 4.75 15.8 4.1 L14.75 3.4 Q13.85 2.5 12.9 2.5 12.0 2.5 10.65 3.9 9.3 5.25 5.5 5.25 3.7 5.25 3.25 4.55 L3.75 4.1 3.05 3.5 2.85 2.85 2.85 2.8 2.8 2.5 2.75 1.95 Q2.2 0.95 2.0 -0.35 M19.75 -1.5 L19.75 -2.7 Q12.9 -3.0 11.55 -4.65 L10.8 -6.0 10.75 -4.45 Q10.75 -2.85 11.5 0.15 13.75 -1.15 15.55 0.4 L17.05 1.85 17.95 0.95 20.0 -1.3 20.1 -1.4 19.75 -1.5 M26.3 -10.0 L28.1 -9.75 Q29.85 -9.25 30.8 -8.5 32.25 -7.5 32.6 -6.25 L32.75 -4.0 Q32.75 -1.85 32.0 -0.25 30.55 2.75 27.0 2.75 24.9 2.75 23.8 1.95 L23.1 1.15 23.0 0.95 22.75 -1.0 22.85 -1.55 23.85 -5.55 Q24.95 -9.5 25.25 -9.7 L25.3 -9.7 Q25.7 -9.95 26.3 -10.0 M22.9 3.5 L24.8 3.5 Q26.05 4.3 26.2 5.75 L26.3 7.0 26.25 7.55 26.9 7.55 26.75 7.0 Q26.75 5.0 29.0 4.65 31.25 4.3 31.25 6.4 31.25 7.15 30.75 7.75 L30.7 7.8 Q31.65 8.05 31.95 8.6 L32.35 9.55 Q32.65 10.0 33.55 10.0 35.15 10.0 37.3 7.4 37.95 6.6 38.75 6.05 35.65 5.65 34.05 4.5 32.75 3.55 32.75 2.4 32.75 -3.65 40.0 -3.95 42.85 -4.05 45.0 -2.9 47.25 -1.65 47.25 0.35 47.25 2.7 46.55 4.0 L45.75 5.1 Q47.25 5.55 47.9 6.65 48.5 7.6 48.25 8.3 51.15 8.15 52.1 9.55 L52.3 10.15 52.5 10.75 52.55 10.85 55.15 9.65 Q58.95 8.05 59.55 7.3 61.55 5.0 61.75 4.15 L61.75 1.75 Q61.75 -3.7 57.25 -8.5 56.5 -11.25 54.5 -13.35 50.65 -17.5 41.65 -17.5 30.3 -17.5 27.5 -15.95 24.25 -14.2 22.75 -6.25 L22.65 -3.25 22.5 -1.6 22.05 -0.25 22.05 -0.2 22.0 -0.15 20.3 1.9 20.2 2.05 19.0 3.3 19.3 3.3 22.9 3.5 M38.85 -0.95 Q38.25 -1.85 37.5 -1.2 L38.85 1.45 Q37.25 2.75 37.25 3.65 L37.3 4.15 37.75 4.2 39.65 2.6 41.0 3.95 41.5 3.45 40.4 1.95 40.5 1.85 Q42.75 -0.1 42.75 -0.55 L42.6 -0.95 42.25 -1.05 39.75 0.8 39.6 0.45 38.85 -0.95 M28.25 -3.9 L28.1 -4.25 27.35 -5.65 Q26.75 -6.55 26.0 -5.9 26.45 -4.65 27.35 -3.25 25.75 -1.95 25.75 -1.05 L25.8 -0.55 26.25 -0.5 28.15 -2.1 29.5 -0.75 30.0 -1.25 28.9 -2.75 29.0 -2.85 Q31.25 -4.8 31.25 -5.25 L31.1 -5.65 30.75 -5.75 28.25 -3.9 M61.05 14.85 Q61.2 15.55 62.0 15.55 64.8 15.55 65.2 13.95 65.45 12.85 64.75 11.55 63.4 11.8 62.45 12.75 L61.0 13.8 61.05 14.85 M1.75 10.25 Q3.25 11.45 3.25 13.05 L3.1 15.0 Q2.7 15.75 1.0 15.75 L-1.9 15.35 -7.95 14.75 -8.1 14.5 -8.25 13.5 Q-8.25 12.9 -6.85 10.6 -5.3 8.0 -4.25 7.75 L0.5 8.2 0.75 9.0 Q1.0 9.65 1.75 10.25 M8.8 11.0 L14.25 12.5 Q13.25 9.5 12.55 9.2 L9.3 9.5 8.8 11.0 M7.8 7.9 Q9.25 6.8 11.25 7.05 16.25 7.55 16.25 12.5 L16.0 14.25 Q15.65 14.75 14.0 14.75 10.8 14.75 8.25 13.25 6.25 12.05 6.25 11.3 6.25 9.05 7.8 7.9 M-34.2 4.65 L-33.15 4.85 Q-31.85 5.55 -30.0 8.75 -29.75 9.05 -29.75 9.8 L-28.9 10.1 Q-27.9 10.35 -27.7 10.5 -27.25 10.75 -27.25 12.1 -27.25 14.15 -28.95 15.75 -30.55 17.25 -32.5 17.25 L-35.95 16.9 -38.95 16.5 -49.75 15.75 -50.6 15.0 -50.75 13.75 -50.75 13.3 -50.5 11.85 -50.45 11.8 Q-50.1 10.95 -49.1 10.5 L-47.85 10.0 -44.05 9.5 -41.05 9.05 Q-38.5 8.35 -36.95 6.5 L-36.35 5.85 Q-35.25 4.75 -34.25 4.65 L-34.2 4.65 M-5.45 2.25 L-3.6 2.35 Q-1.1 2.35 -0.9 1.7 L-0.85 1.5 Q-1.8 0.35 -2.15 -2.0 L-2.25 -4.8 Q-2.25 -8.25 -1.05 -14.15 L-0.5 -16.5 0.1 -18.55 -0.6 -17.95 -4.25 -14.0 -6.5 -10.25 Q-7.7 -7.6 -6.75 -6.05 L-6.75 -0.9 -6.45 -0.8 Q-6.35 0.05 -6.75 1.4 -6.65 2.0 -5.45 2.25 M-11.15 -16.55 L-10.9 -17.25 -11.6 -16.65 Q-14.35 -14.25 -15.25 -12.95 L-17.5 -9.4 Q-18.7 -6.9 -17.75 -5.45 L-17.75 -0.6 -17.45 -0.5 Q-17.35 0.3 -17.75 1.6 L-17.75 1.65 -17.6 1.9 Q-17.35 2.2 -16.6 2.35 L-14.6 2.5 Q-12.1 2.5 -11.9 1.85 L-11.85 1.7 Q-12.8 0.6 -13.15 -1.6 L-13.25 -4.25 Q-13.25 -7.5 -12.05 -13.1 L-11.15 -16.55 M-5.25 12.6 L-1.45 13.0 1.25 13.5 Q-1.25 10.5 -1.75 10.25 L-4.65 10.35 Q-5.0 10.85 -5.25 12.5 L-5.45 12.55 -5.25 12.6 M-29.45 12.5 L-29.25 12.3 -29.35 12.3 Q-31.3 11.85 -32.7 8.95 L-33.0 8.45 -33.2 8.25 -34.55 8.0 -34.6 8.0 -35.75 8.8 Q-37.35 11.3 -39.25 11.65 -40.4 11.85 -42.6 11.15 L-42.75 11.1 Q-45.85 11.7 -48.3 13.05 L-48.75 13.8 -47.8 13.85 -46.9 13.9 -46.85 13.9 -37.25 14.55 -32.35 15.0 Q-31.1 15.0 -30.25 13.85 L-29.45 12.5" fill="#362e1f" fill-rule="evenodd" stroke="none"/>
      <path d="M0.4 -7.55 L2.0 -7.25 1.8 -5.65 1.65 -5.75 1.75 -3.75 1.75 -3.0 1.8 -2.95 1.9 -0.9 2.0 -0.35 1.0 -0.25 0.45 -0.25 Q-0.25 -3.35 -0.25 -5.0 L-0.2 -7.6 0.4 -7.55 M2.8 2.5 L2.85 2.8 2.85 2.85 3.05 3.5 3.75 4.1 3.25 4.55 Q3.7 5.25 5.5 5.25 9.3 5.25 10.65 3.9 12.0 2.5 12.9 2.5 13.85 2.5 14.75 3.4 L15.8 4.1 Q16.0 4.75 17.2 5.35 19.45 6.35 23.75 5.3 23.75 5.75 24.05 5.75 L24.25 7.75 24.55 9.5 30.25 10.5 Q30.8 11.0 30.7 11.75 30.95 12.25 33.25 12.25 35.7 12.25 38.3 9.4 40.45 6.95 44.3 6.8 L45.75 7.75 45.8 7.75 46.55 10.5 Q49.9 11.7 50.6 11.7 L50.55 12.05 50.3 13.25 Q50.05 14.0 50.75 14.0 L52.5 14.25 Q53.4 14.25 54.0 13.55 54.6 12.85 57.2 12.8 L58.1 13.45 58.75 15.3 Q59.9 17.55 62.3 17.75 L62.4 18.3 57.4 18.35 57.35 18.35 Q53.2 16.25 49.75 16.25 47.85 16.25 47.45 15.25 47.05 14.25 46.0 14.25 44.35 14.25 43.9 12.9 43.75 12.5 43.75 11.3 L43.5 10.75 Q42.1 10.65 41.35 11.75 40.5 12.95 40.0 13.05 L32.75 14.75 29.8 14.3 Q27.35 13.8 26.5 13.25 L25.3 13.0 23.75 12.5 Q22.75 11.95 22.75 9.8 20.3 9.8 19.6 9.1 L19.25 8.0 Q19.1 7.65 18.75 7.55 L16.25 7.25 Q15.8 7.2 15.35 6.7 14.9 6.25 14.25 6.25 L5.9 6.75 -2.5 7.25 -3.45 6.8 Q-3.8 6.3 -4.45 6.3 L-20.5 9.75 Q-27.75 9.75 -27.75 6.6 L-27.5 5.4 Q-27.3 5.15 -26.5 4.8 L-23.8 5.1 -23.75 5.1 -23.5 6.0 -22.75 6.25 Q-20.75 5.5 -19.25 5.65 -18.05 5.8 -16.25 4.75 L-16.25 4.65 -14.25 4.75 Q-12.75 4.75 -11.5 3.8 L-10.55 2.85 -8.5 2.3 -8.2 2.3 -7.95 3.4 Q-7.0 4.75 -3.25 4.75 -1.75 4.75 -0.5 3.75 0.3 3.15 0.6 2.4 L2.8 2.5 M-61.45 19.5 L-65.65 20.05 -64.3 17.55 Q-63.15 15.65 -61.5 14.3 -58.15 11.65 -55.75 11.25 -54.6 11.05 -54.5 9.7 L-54.35 7.75 Q-53.95 7.0 -52.45 5.95 L-50.25 4.55 Q-49.2 3.85 -45.55 3.85 -44.9 5.75 -44.0 5.75 -43.15 5.75 -42.6 4.95 L-41.7 3.5 -41.65 3.5 Q-40.3 3.0 -39.4 1.95 L-38.25 0.75 -38.6 0.15 -38.45 -0.5 -37.75 -2.45 Q-37.55 -2.85 -36.35 -3.45 L-35.2 -4.0 -30.4 -3.85 -28.1 -3.75 -28.0 -3.6 -27.25 -3.25 Q-25.85 -3.55 -25.45 -4.5 L-25.0 -6.2 Q-24.5 -6.5 -22.5 -6.2 -21.05 -6.0 -20.1 -6.6 L-20.2 -5.65 -20.35 -5.75 -20.25 -3.75 -20.25 -3.0 -20.2 -2.95 -20.15 -1.45 -20.15 -1.2 -21.0 -1.25 Q-23.8 -1.25 -24.4 -0.25 -25.05 0.75 -26.0 0.75 -26.6 0.75 -26.95 0.3 -27.3 -0.2 -27.95 -0.2 L-30.6 0.05 -33.95 0.5 Q-32.25 2.0 -32.25 2.75 -32.25 3.4 -34.2 4.65 L-34.25 4.65 Q-35.25 4.75 -36.35 5.85 -39.05 7.3 -43.5 9.25 -44.3 9.25 -45.3 8.55 L-46.35 7.8 Q-47.6 7.8 -50.75 9.05 L-49.1 10.5 Q-50.1 10.95 -50.45 11.8 L-50.5 11.85 -50.75 13.3 Q-51.75 13.85 -53.25 14.4 -58.95 16.5 -60.6 18.0 L-61.45 19.5 M-10.95 -1.95 L-11.25 -4.25 -11.25 -4.4 -11.25 -4.45 -11.25 -5.75 -9.45 -6.55 -9.35 -6.4 -9.25 -4.25 -9.25 -3.45 -9.2 -3.4 -9.1 -1.3 -10.25 -1.25 -10.8 -1.25 -10.95 -1.95" fill="#692e1f" fill-rule="evenodd" stroke="none"/>
      <path d="M2.0 -0.35 Q2.2 0.95 2.75 1.95 L2.8 2.5 0.6 2.4 0.75 1.55 0.75 1.1 0.75 1.05 0.45 -0.25 1.0 -0.25 2.0 -0.35 M44.3 6.8 L45.5 6.8 45.75 7.75 44.3 6.8 M57.2 12.8 L57.75 12.8 58.1 13.45 57.2 12.8 M57.35 18.35 L31.3 18.9 8.65 19.5 -35.95 19.0 Q-54.0 18.9 -61.45 19.5 L-60.6 18.0 Q-58.95 16.5 -53.25 14.4 -51.75 13.85 -50.75 13.3 L-50.75 13.75 -50.6 15.0 -49.75 15.75 -38.95 16.5 -35.95 16.9 -32.5 17.25 Q-30.55 17.25 -28.95 15.75 -27.25 14.15 -27.25 12.1 -27.25 10.75 -27.7 10.5 -27.9 10.35 -28.9 10.1 L-29.75 9.8 Q-29.75 9.05 -30.0 8.75 -31.85 5.55 -33.15 4.85 L-34.2 4.65 Q-32.25 3.4 -32.25 2.75 -32.25 2.0 -33.95 0.5 L-30.6 0.05 -27.95 -0.2 Q-27.3 -0.2 -26.95 0.3 -26.6 0.75 -26.0 0.75 -25.05 0.75 -24.4 -0.25 -23.8 -1.25 -21.0 -1.25 L-20.15 -1.2 -20.15 -1.45 -20.1 -0.9 Q-19.9 0.75 -19.25 1.95 -19.2 3.15 -18.95 3.5 L-18.75 3.7 Q-20.6 3.1 -21.85 3.2 -23.75 3.4 -23.75 5.0 L-23.75 5.1 -23.8 5.1 -26.5 4.8 Q-27.3 5.15 -27.5 5.4 L-27.75 6.6 Q-27.75 9.75 -20.5 9.75 L-4.45 6.3 Q-3.8 6.3 -3.45 6.8 L-2.5 7.25 5.9 6.75 14.25 6.25 Q14.9 6.25 15.35 6.7 15.8 7.2 16.25 7.25 L18.75 7.55 Q19.1 7.65 19.25 8.0 L19.6 9.1 Q20.3 9.8 22.75 9.8 22.75 11.95 23.75 12.5 L25.3 13.0 26.5 13.25 Q27.35 13.8 29.8 14.3 L32.75 14.75 40.0 13.05 Q40.5 12.95 41.35 11.75 42.1 10.65 43.5 10.75 L43.75 11.3 Q43.75 12.5 43.9 12.9 44.35 14.25 46.0 14.25 47.05 14.25 47.45 15.25 47.85 16.25 49.75 16.25 53.2 16.25 57.35 18.35 M-10.55 2.85 Q-10.25 2.3 -10.25 1.75 L-10.25 1.3 -10.25 1.25 -10.95 -1.95 -10.8 -1.25 -10.25 -1.25 -9.1 -1.3 -9.1 -1.25 Q-8.9 0.5 -8.25 1.8 L-8.2 2.3 -8.5 2.3 -10.55 2.85 M-0.2 -7.6 L-0.2 -7.75 0.4 -7.55 -0.2 -7.6 M20.0 -1.3 L17.95 0.95 17.05 1.85 15.55 0.4 Q13.75 -1.15 11.5 0.15 10.75 -2.85 10.75 -4.45 L10.8 -6.0 11.55 -4.65 Q12.9 -3.0 19.75 -2.7 L19.75 -1.5 20.0 -1.3 M1.75 10.25 Q1.0 9.65 0.75 9.0 L0.5 8.2 -4.25 7.75 Q-5.3 8.0 -6.85 10.6 -8.25 12.9 -8.25 13.5 L-8.1 14.5 -7.95 14.75 -1.9 15.35 1.0 15.75 Q2.7 15.75 3.1 15.0 L3.25 13.05 Q3.25 11.45 1.75 10.25 M7.8 7.9 Q6.25 9.05 6.25 11.3 6.25 12.05 8.25 13.25 10.8 14.75 14.0 14.75 15.65 14.75 16.0 14.25 L16.25 12.5 Q16.25 7.55 11.25 7.05 9.25 6.8 7.8 7.9 M-36.35 5.85 L-36.95 6.5 Q-38.5 8.35 -41.05 9.05 L-44.05 9.5 -47.85 10.0 -49.1 10.5 -50.75 9.05 Q-47.6 7.8 -46.35 7.8 L-45.3 8.55 Q-44.3 9.25 -43.5 9.25 -39.05 7.3 -36.35 5.85" fill="#562e1f" fill-rule="evenodd" stroke="none"/>
      <path d="M5.0 2.25 Q5.0 2.0 5.15 1.95 L5.25 1.25 4.7 -2.6 Q4.45 -4.05 5.75 -8.2 6.4 -10.4 9.9 -14.05 L10.3 -14.4 9.95 -13.1 Q8.75 -7.5 8.75 -4.25 L8.85 -1.6 Q9.2 0.45 10.05 1.55 L9.25 2.35 7.4 2.5 5.0 2.25 M23.8 1.95 Q24.9 2.75 27.0 2.75 30.55 2.75 32.0 -0.25 32.75 -1.85 32.75 -4.0 L32.6 -6.25 Q32.25 -7.5 30.8 -8.5 29.85 -9.25 28.1 -9.75 L26.3 -10.0 Q27.75 -12.15 31.05 -13.55 35.6 -15.5 41.85 -15.5 L46.5 -15.3 Q47.95 -15.1 48.5 -14.45 L50.05 -12.2 Q52.05 -9.3 53.75 -7.7 56.55 -4.95 57.65 -2.75 58.75 -0.65 58.75 1.85 58.75 5.05 55.25 7.75 L52.3 10.15 52.1 9.55 Q51.15 8.15 48.25 8.3 48.5 7.6 47.9 6.65 47.25 5.55 45.75 5.1 L46.55 4.0 Q47.25 2.7 47.25 0.35 47.25 -1.65 45.0 -2.9 42.85 -4.05 40.0 -3.95 32.75 -3.65 32.75 2.4 32.75 3.55 34.05 4.5 35.65 5.65 38.75 6.05 37.95 6.6 37.3 7.4 35.15 10.0 33.55 10.0 32.65 10.0 32.35 9.55 L31.95 8.6 Q31.65 8.05 30.7 7.8 L30.75 7.75 Q31.25 7.15 31.25 6.4 31.25 4.3 29.0 4.65 26.75 5.0 26.75 7.0 L26.3 7.0 26.2 5.75 Q26.05 4.3 24.8 3.5 L22.9 3.5 23.8 1.95 M20.2 2.05 L19.75 2.5 19.3 3.3 19.0 3.3 20.2 2.05 M61.05 14.85 L61.0 13.8 62.45 12.75 Q63.4 11.8 64.75 11.55 65.45 12.85 65.2 13.95 64.8 15.55 62.0 15.55 61.2 15.55 61.05 14.85 M8.8 11.0 L9.3 9.5 12.55 9.2 Q13.25 9.5 14.25 12.5 L8.8 11.0 M-0.5 -16.5 L-1.05 -14.15 Q-2.25 -8.25 -2.25 -4.8 L-2.15 -2.0 Q-1.8 0.35 -0.85 1.5 L-0.9 1.7 Q-1.1 2.35 -3.6 2.35 L-5.45 2.25 -5.3 -2.9 Q-5.2 -6.25 -4.5 -8.5 -3.2 -13.15 -0.5 -16.5 M-11.3 -16.6 L-11.15 -16.55 -12.05 -13.1 Q-13.25 -7.5 -13.25 -4.25 L-13.15 -1.6 Q-12.8 0.6 -11.85 1.7 L-11.9 1.85 Q-12.1 2.5 -14.6 2.5 L-16.6 2.35 Q-16.05 1.05 -15.85 -0.65 L-15.75 -6.5 Q-15.75 -12.0 -13.25 -14.6 L-11.55 -16.3 -11.3 -16.6 M-5.25 12.5 Q-5.0 10.85 -4.65 10.35 L-1.75 10.25 Q-1.25 10.5 1.25 13.5 L-1.45 13.0 -5.25 12.6 -5.25 12.5 M-29.35 12.3 L-29.45 12.5 -30.25 13.85 Q-31.1 15.0 -32.35 15.0 L-37.25 14.55 -46.85 13.9 -41.5 13.0 -36.75 12.35 -35.7 11.55 -32.85 8.7 -33.0 8.45 -32.7 8.95 Q-31.3 11.85 -29.35 12.3" fill="#93856a" fill-rule="evenodd" stroke="none"/>
      <path d="M10.9 -16.55 L10.3 -14.4 9.9 -14.05 Q6.4 -10.4 5.75 -8.2 4.45 -4.05 4.7 -2.6 L5.25 1.25 5.15 1.95 Q5.0 2.0 5.0 2.25 4.3 2.0 4.25 1.6 4.65 0.3 4.55 -0.5 L4.25 -0.6 4.25 -5.45 Q3.3 -6.9 4.5 -9.4 L6.75 -12.95 Q7.65 -14.25 10.4 -16.65 L10.9 -16.55 M23.8 1.95 L22.9 3.5 19.3 3.3 19.75 2.5 20.2 2.05 20.3 1.9 22.0 -0.15 22.05 -0.2 22.05 -0.25 22.5 -1.6 22.65 -3.25 22.75 -6.25 Q24.25 -14.2 27.5 -15.95 30.3 -17.5 41.65 -17.5 50.65 -17.5 54.5 -13.35 56.5 -11.25 57.25 -8.5 61.75 -3.7 61.75 1.75 L61.75 4.15 Q61.55 5.0 59.55 7.3 58.95 8.05 55.15 9.65 L52.55 10.85 52.5 10.75 52.3 10.15 55.25 7.75 Q58.75 5.05 58.75 1.85 58.75 -0.65 57.65 -2.75 56.55 -4.95 53.75 -7.7 52.05 -9.3 50.05 -12.2 L48.5 -14.45 Q47.95 -15.1 46.5 -15.3 L41.85 -15.5 Q35.6 -15.5 31.05 -13.55 27.75 -12.15 26.3 -10.0 25.7 -9.95 25.3 -9.7 L25.25 -9.7 Q24.95 -9.5 23.85 -5.55 L22.85 -1.55 22.75 -1.0 23.0 0.95 23.1 1.15 23.8 1.95 M-5.45 2.25 Q-6.65 2.0 -6.75 1.4 -6.35 0.05 -6.45 -0.8 L-6.75 -0.9 -6.75 -6.05 Q-7.7 -7.6 -6.5 -10.25 L-4.25 -14.0 -0.6 -17.95 0.1 -18.55 -0.5 -16.5 Q-3.2 -13.15 -4.5 -8.5 -5.2 -6.25 -5.3 -2.9 L-5.45 2.25 M-11.6 -16.65 L-11.3 -16.6 -11.55 -16.3 -13.25 -14.6 Q-15.75 -12.0 -15.75 -6.5 L-15.85 -0.65 Q-16.05 1.05 -16.6 2.35 -17.35 2.2 -17.6 1.9 L-17.75 1.65 -17.75 1.6 Q-17.35 0.3 -17.45 -0.5 L-17.75 -0.6 -17.75 -5.45 Q-18.7 -6.9 -17.5 -9.4 L-15.25 -12.95 Q-14.35 -14.25 -11.6 -16.65 M-46.85 13.9 L-46.9 13.9 -47.8 13.85 -48.75 13.8 -48.3 13.05 Q-45.85 11.7 -42.75 11.1 L-42.6 11.15 Q-40.4 11.85 -39.25 11.65 -37.35 11.3 -35.75 8.8 L-34.6 8.0 -34.55 8.0 -33.2 8.25 -33.0 8.45 -32.85 8.7 -35.7 11.55 -36.75 12.35 -41.5 13.0 -46.85 13.9" fill="#a49983" fill-rule="evenodd" stroke="none"/>
      <path d="M28.25 -3.9 L30.75 -5.75 31.1 -5.65 31.25 -5.25 Q31.25 -4.8 29.0 -2.85 L28.9 -2.75 30.0 -1.25 29.5 -0.75 28.15 -2.1 26.25 -0.5 25.8 -0.55 25.75 -1.05 Q25.75 -1.95 27.35 -3.25 26.45 -4.65 26.0 -5.9 26.75 -6.55 27.35 -5.65 L28.1 -4.25 28.25 -3.9 M38.85 -0.95 L39.6 0.45 39.75 0.8 42.25 -1.05 42.6 -0.95 42.75 -0.55 Q42.75 -0.1 40.5 1.85 L40.4 1.95 41.5 3.45 41.0 3.95 39.65 2.6 37.75 4.2 37.3 4.15 37.25 3.65 Q37.25 2.75 38.85 1.45 L37.5 -1.2 Q38.25 -1.85 38.85 -0.95" fill="#b5ad9e" fill-rule="evenodd" stroke="none"/>
    </g>
    <g id="shape7" transform="matrix(1.0, 0.0, 0.0, 1.0, 75.0, 27.9)">
      <path d="M14.8 -26.55 Q18.0 -24.45 18.0 -20.8 L17.95 -20.05 18.0 -20.05 Q19.5 -19.4 20.6 -18.55 L21.45 -17.9 21.4 -18.15 21.35 -18.35 21.7 -18.1 Q22.0 -20.05 22.5 -20.75 24.95 -24.25 27.45 -22.85 29.6 -21.6 30.25 -18.25 29.55 -17.4 32.95 -17.3 L41.55 -17.2 Q55.7 -17.1 59.5 -14.05 L63.05 -10.7 66.05 -7.3 Q68.2 -4.5 69.15 -0.05 L70.5 7.25 70.5 11.95 72.85 11.65 Q74.75 13.4 75.0 15.2 L75.0 19.6 74.9 23.65 Q74.65 26.05 73.5 26.95 L63.8 26.95 63.65 26.7 63.6 26.5 Q52.6 26.6 39.9 27.05 L22.0 27.45 13.85 27.5 12.75 27.95 11.3 27.7 Q11.1 27.95 11.05 27.5 -1.35 27.6 -8.5 27.95 L-28.7 26.7 Q-32.5 26.6 -41.6 27.0 L-50.75 27.45 -55.9 27.1 Q-60.7 26.8 -63.1 26.95 L-63.15 26.9 -63.75 26.95 -65.2 26.6 Q-65.35 26.5 -66.2 25.95 -70.95 25.85 -73.0 23.95 -75.0 22.1 -75.0 17.95 -75.0 12.2 -70.1 9.7 L-67.85 8.25 -65.6 6.7 Q-61.35 3.9 -57.4 3.9 L-47.2 4.45 -46.25 2.25 Q-45.7 1.0 -43.35 -1.2 L-40.6 -4.0 -39.5 -6.95 -38.2 -10.3 Q-36.3 -13.5 -33.15 -16.7 -29.6 -20.25 -26.45 -21.75 -15.7 -26.8 -4.7 -24.05 -4.3 -24.6 -3.4 -24.85 L7.0 -27.3 Q11.4 -28.75 14.8 -26.55 M-44.75 22.3 Q-43.45 23.2 -41.35 23.7 L-41.25 23.9 Q-40.55 23.2 -39.25 23.25 -37.6 23.35 -35.45 24.55 -28.3 24.45 -22.1 24.8 L-8.35 25.7 11.75 25.45 12.5 25.4 12.75 25.15 Q14.65 23.55 16.55 22.65 L17.0 21.15 17.0 21.0 Q17.0 20.0 17.9 18.35 L19.0 16.2 Q19.5 14.3 19.8 10.9 L20.0 6.8 Q20.0 0.4 16.75 -2.65 L16.5 -2.85 16.5 -2.75 16.35 -2.65 15.7 -3.9 15.2 -4.4 14.2 -5.05 14.0 -6.0 13.05 -10.55 Q12.6 -12.3 12.25 -15.15 L12.0 -18.7 12.2 -20.15 13.15 -20.95 13.15 -21.0 13.3 -21.0 15.5 -21.3 Q15.0 -23.35 14.35 -24.1 13.3 -25.3 9.65 -25.3 5.15 -25.3 1.35 -24.0 L-1.85 -22.65 -2.45 -22.2 -2.65 -22.0 -4.75 -21.55 -4.8 -21.5 -12.35 -21.8 -23.6 -20.95 Q-27.45 -19.7 -32.7 -13.8 -34.6 -11.7 -35.95 -8.9 L-36.0 -8.8 -36.05 -8.7 -36.8 -7.0 -37.1 -6.3 -38.0 -4.05 -39.3 -2.2 -39.5 -1.95 -41.4 0.15 -41.8 0.55 Q-44.95 3.85 -45.35 5.7 L-46.7 10.95 Q-47.0 12.3 -47.0 15.35 -47.0 19.05 -46.65 20.0 L-46.6 20.1 -46.6 20.15 -46.55 20.25 -44.75 22.3 M15.8 -18.8 L14.0 -18.8 14.95 -12.6 Q15.5 -8.9 16.5 -6.5 L16.5 -6.35 19.8 -2.4 20.45 -5.85 20.85 -8.15 20.45 -8.65 Q21.5 -10.75 21.5 -15.05 L21.5 -15.6 Q20.4 -15.85 18.7 -17.0 L15.8 -18.8 M68.4 11.95 L68.3 11.5 68.05 10.15 68.0 6.2 Q67.75 3.5 66.5 -1.75 65.8 -4.3 64.8 -5.95 63.65 -7.85 61.55 -9.55 L60.85 -10.15 58.8 -11.85 58.4 -12.15 58.35 -12.2 57.0 -13.25 Q54.8 -14.8 49.5 -14.8 L45.4 -14.65 39.75 -14.55 32.2 -14.65 Q29.1 -14.9 28.55 -16.05 L28.0 -17.55 27.8 -19.35 Q27.75 -20.5 27.0 -20.5 L24.5 -20.3 23.65 -15.0 23.6 -14.7 23.55 -14.55 23.3 -12.75 23.2 -11.9 23.0 -8.95 23.0 -8.9 23.0 -8.75 Q23.05 -7.65 22.6 -5.9 L22.0 -3.05 22.0 -0.3 21.75 0.8 22.0 6.7 21.75 11.15 21.15 16.35 21.15 16.55 21.35 16.35 Q27.85 11.6 38.5 12.2 38.5 11.95 41.1 12.2 43.7 12.45 44.0 12.95 L44.0 13.5 52.5 13.2 53.55 13.0 59.5 12.95 64.25 12.6 66.0 12.45 66.3 12.4 66.75 12.4 67.2 12.35 67.5 12.35 67.95 12.3 68.4 12.25 68.5 12.25 68.4 11.95 M61.5 15.45 L51.7 15.45 50.35 15.55 44.75 15.95 44.0 15.8 44.0 24.45 64.55 24.45 64.8 24.6 64.85 24.65 65.05 24.7 72.5 24.7 Q73.0 23.2 73.0 19.55 73.0 16.0 72.5 14.2 L69.05 14.2 61.5 15.45 M19.05 25.3 L42.45 24.45 Q41.85 22.55 41.9 19.8 42.15 15.65 42.0 14.0 30.8 14.8 26.3 16.35 19.05 18.85 19.0 24.95 L18.75 25.3 19.05 25.3 M-48.0 6.5 L-55.85 6.7 -54.75 8.0 -54.0 7.95 -53.25 8.15 Q-53.1 8.2 -53.05 8.5 -51.6 8.3 -48.7 8.45 L-48.0 6.5 M-55.0 16.2 Q-55.0 9.55 -57.8 7.65 -60.15 6.1 -64.0 8.0 -67.3 9.6 -70.2 12.85 -73.0 15.95 -73.0 17.8 -73.0 18.95 -72.65 19.75 L-71.6 21.45 -70.6 22.9 Q-69.45 23.7 -65.75 23.7 -58.85 23.7 -56.25 20.25 -55.0 18.55 -55.0 16.2 M-55.0 22.45 L-55.1 22.45 Q-56.55 24.15 -59.05 25.0 L-45.6 24.5 -47.0 23.35 -48.65 21.55 -52.6 22.05 -55.0 22.45 M-44.95 24.85 L-45.5 24.55 -47.0 24.95 -44.95 24.85" fill="#241f15" fill-opacity="0.6666667" fill-rule="evenodd" stroke="none"/>
      <path d="M11.75 25.45 L14.0 21.5 Q17.0 16.2 17.0 13.0 17.0 9.5 15.8 5.55 14.4 1.05 12.0 -1.55 10.65 -3.0 10.55 -5.4 10.7 -7.9 10.5 -8.75 L9.8 -12.65 9.5 -15.9 9.75 -18.7 Q10.15 -21.45 11.0 -22.25 L11.0 -22.5 Q6.15 -22.3 2.55 -20.85 -0.8 -19.25 -2.7 -18.8 L-5.7 -18.5 -12.9 -18.8 Q-20.8 -18.8 -25.65 -15.65 -28.15 -14.05 -29.5 -11.8 -30.15 -10.85 -32.35 -8.3 -34.1 -6.0 -34.0 -4.75 -33.6 -1.2 -35.35 0.25 -36.35 1.05 -38.7 2.2 -39.4 2.75 -41.35 5.95 -41.9 6.7 -41.75 7.7 L-41.5 9.3 Q-41.5 10.05 -42.15 12.3 -42.85 14.75 -43.0 16.75 L-42.8 20.35 Q-42.95 21.8 -43.85 22.8 L-44.75 22.3 -46.55 20.25 -46.6 20.15 -46.6 20.1 -46.65 20.0 Q-47.0 19.05 -47.0 15.35 -47.0 12.3 -46.7 10.95 L-45.35 5.7 Q-44.95 3.85 -41.8 0.55 L-41.4 0.15 -39.5 -1.95 -39.3 -2.2 -39.15 -2.35 -37.0 -3.75 -37.1 -6.3 -36.8 -7.0 -36.05 -8.7 -36.0 -8.8 -35.95 -8.9 Q-34.6 -11.7 -32.7 -13.8 -27.45 -19.7 -23.6 -20.95 L-12.35 -21.8 -4.8 -21.5 -4.75 -21.55 -2.65 -22.0 -2.45 -22.2 -1.85 -22.65 1.35 -24.0 Q5.15 -25.3 9.65 -25.3 13.3 -25.3 14.35 -24.1 15.0 -23.35 15.5 -21.3 L13.3 -21.0 13.15 -21.0 13.15 -20.95 12.2 -20.15 12.0 -18.7 12.25 -15.15 Q12.6 -12.3 13.05 -10.55 L14.0 -6.0 14.05 -5.55 Q14.1 -4.85 14.25 -4.8 L15.2 -4.4 15.7 -3.9 16.35 -2.65 16.5 -2.75 16.75 -2.65 Q20.0 0.4 20.0 6.8 L19.8 10.9 Q19.5 14.3 19.0 16.2 L17.9 18.35 Q17.0 20.0 17.0 21.0 L17.0 21.15 16.55 22.65 Q14.65 23.55 12.75 25.15 L12.5 25.4 11.75 25.45" fill="#855d3b" fill-opacity="0.6666667" fill-rule="evenodd" stroke="none"/>
      <path d="M-44.75 22.3 L-43.85 22.8 Q-42.95 21.8 -42.8 20.35 L-43.0 16.75 Q-42.85 14.75 -42.15 12.3 -41.5 10.05 -41.5 9.3 L-41.75 7.7 Q-41.9 6.7 -41.35 5.95 -39.4 2.75 -38.7 2.2 -36.35 1.05 -35.35 0.25 -33.6 -1.2 -34.0 -4.75 -34.1 -6.0 -32.35 -8.3 -30.15 -10.85 -29.5 -11.8 -28.15 -14.05 -25.65 -15.65 -20.8 -18.8 -12.9 -18.8 L-5.7 -18.5 -2.7 -18.8 Q-0.8 -19.25 2.55 -20.85 6.15 -22.3 11.0 -22.5 L11.0 -22.25 Q10.15 -21.45 9.75 -18.7 L9.5 -15.9 9.8 -12.65 10.5 -8.75 Q10.7 -7.9 10.55 -5.4 10.65 -3.0 12.0 -1.55 14.4 1.05 15.8 5.55 17.0 9.5 17.0 13.0 17.0 16.2 14.0 21.5 L11.75 25.45 -8.35 25.7 -22.1 24.8 Q-28.3 24.45 -35.45 24.55 -37.6 23.35 -39.25 23.25 -40.55 23.2 -41.25 23.9 L-41.35 23.7 Q-43.45 23.2 -44.75 22.3 M15.2 -4.4 L14.25 -4.8 Q14.1 -4.85 14.05 -5.55 L14.0 -6.0 14.2 -5.05 15.2 -4.4 M-37.1 -6.3 L-37.0 -3.75 -39.15 -2.35 -39.3 -2.2 -38.0 -4.05 -37.1 -6.3" fill="#6a4c31" fill-opacity="0.6666667" fill-rule="evenodd" stroke="none"/>
      <path d="M23.2 -11.9 L23.3 -12.75 23.55 -14.55 23.6 -14.7 23.65 -15.0 24.5 -20.3 27.0 -20.5 Q27.75 -20.5 27.8 -19.35 L28.0 -17.55 28.55 -16.05 Q29.1 -14.9 32.2 -14.65 L39.75 -14.55 45.4 -14.65 49.5 -14.8 Q54.8 -14.8 57.0 -13.25 L58.35 -12.2 58.4 -12.15 58.8 -11.85 60.85 -10.15 61.55 -9.55 Q63.65 -7.85 64.8 -5.95 65.8 -4.3 66.5 -1.75 67.75 3.5 68.0 6.2 L68.05 10.15 68.3 11.5 68.4 11.95 68.4 12.25 67.95 12.3 67.5 12.35 67.2 12.35 66.75 12.4 66.3 12.4 66.0 12.45 64.25 12.6 Q64.1 11.55 64.1 10.25 63.95 2.95 63.5 1.75 L62.25 -1.75 Q61.3 -4.05 60.05 -5.3 L58.5 -6.95 Q56.85 -8.2 55.05 -8.8 L46.05 -11.3 44.1 -11.3 27.0 -10.05 Q23.85 -10.05 23.2 -11.9" fill="#6a5740" fill-opacity="0.6666667" fill-rule="evenodd" stroke="none"/>
      <path d="M23.2 -11.9 Q23.85 -10.05 27.0 -10.05 L44.1 -11.3 46.05 -11.3 55.05 -8.8 Q56.85 -8.2 58.5 -6.95 L60.05 -5.3 Q61.3 -4.05 62.25 -1.75 L63.5 1.75 Q63.95 2.95 64.1 10.25 64.1 11.55 64.25 12.6 L59.5 12.95 53.55 13.0 52.5 13.2 44.0 13.5 44.0 12.95 Q43.7 12.45 41.1 12.2 38.5 11.95 38.5 12.2 27.85 11.6 21.35 16.35 L21.15 16.35 21.75 11.15 22.0 6.7 21.75 0.8 22.0 -0.3 22.0 -3.05 22.6 -5.9 Q23.05 -7.65 23.0 -8.75 L23.0 -8.9 23.0 -8.95 23.2 -11.9 M68.4 12.25 L68.4 11.95 68.5 12.25 68.4 12.25 M-48.0 6.5 L-48.7 8.45 Q-51.6 8.3 -53.05 8.5 -53.1 8.2 -53.25 8.15 L-54.0 7.95 -54.75 8.0 -55.85 6.7 -48.0 6.5 M-55.0 22.45 L-52.6 22.05 -48.65 21.55 -47.0 23.35 -45.6 24.5 -59.05 25.0 Q-56.55 24.15 -55.1 22.45 L-55.0 22.45" fill="#483c2b" fill-opacity="0.6666667" fill-rule="evenodd" stroke="none"/>
      <path d="M61.5 15.45 L69.05 14.2 72.5 14.2 Q73.0 16.0 73.0 19.55 73.0 23.2 72.5 24.7 L65.05 24.7 64.85 24.65 64.8 24.6 64.55 24.45 44.0 24.45 44.0 15.8 44.75 15.95 50.35 15.55 51.7 15.45 61.5 15.45" fill="#a8957f" fill-opacity="0.6666667" fill-rule="evenodd" stroke="none"/>
      <path d="M-55.0 16.2 Q-55.0 18.55 -56.25 20.25 -58.85 23.7 -65.75 23.7 -69.45 23.7 -70.6 22.9 L-71.6 21.45 -72.65 19.75 Q-73.0 18.95 -73.0 17.8 -73.0 15.95 -70.2 12.85 -67.3 9.6 -64.0 8.0 -60.15 6.1 -57.8 7.65 -55.0 9.55 -55.0 16.2" fill="#3a3122" fill-opacity="0.6666667" fill-rule="evenodd" stroke="none"/>
      <path d="M15.8 -18.8 L18.7 -17.0 Q20.4 -15.85 21.5 -15.6 L21.5 -15.05 Q21.5 -10.75 20.45 -8.65 L20.85 -8.15 20.45 -5.85 19.8 -2.4 16.5 -6.35 16.5 -6.5 Q15.5 -8.9 14.95 -12.6 L14.0 -18.8 15.8 -18.8 M19.0 24.95 Q19.05 18.85 26.3 16.35 30.8 14.8 42.0 14.0 42.15 15.65 41.9 19.8 41.85 22.55 42.45 24.45 L19.05 25.3 19.0 24.95" fill="#703116" fill-opacity="0.6666667" fill-rule="evenodd" stroke="none"/>
    </g>
  </defs>
</svg>
