<?xml version="1.0" encoding="UTF-8" standalone="no"?>
<svg xmlns:ffdec="https://www.free-decompiler.com/flash" xmlns:xlink="http://www.w3.org/1999/xlink" ffdec:objectType="frame" height="267.3px" width="468.7px" xmlns="http://www.w3.org/2000/svg">
  <g transform="matrix(1.0, 0.0, 0.0, 1.0, 180.1, 204.45)">
    <filter id="filter0">
      <feOffset dx="3.5355799791601" dy="3.535487832104965" in="SourceGraphic" result="filterResult0"/>
      <feColorMatrix in="filterResult0" result="filterResult1" type="matrix" values="0 0 0 0 0.0,0 0 0 0 0.0,0 0 0 0 0.0,0 0 0 1 0"/>
      <feColorMatrix in="filterResult1" result="filterResult2" type="matrix" values="1 0 0 0 0,0 1 0 0 0,0 0 1 0 0,0 0 0 0.296875 0"/>
    </filter>
    <use ffdec:characterId="608" filter="url(#filter0)" height="267.3" id="shadowMC" transform="matrix(1.0, 0.0, 0.0, -0.3, -180.1, 56.3325)" width="465.7" xlink:href="#sprite0"/>
    <use ffdec:characterId="101" height="43.5" transform="matrix(1.0, 0.0, 0.0, 1.0, -39.5, -42.5)" width="134.5" xlink:href="#shape9"/>
    <use ffdec:characterId="600" height="49.85" transform="matrix(1.0, 0.0, 0.0, 1.0, -49.0, -47.65)" width="148.4" xlink:href="#shape10"/>
  </g>
  <defs>
    <g id="sprite0" transform="matrix(1.0, 0.0, 0.0, 1.0, 177.1, 204.45)">
      <use ffdec:characterId="589" height="34.0" transform="matrix(1.0, 0.0, 0.0, 1.0, -28.5, -32.05)" width="46.45" xlink:href="#shape0"/>
      <use ffdec:characterId="590" height="70.3" transform="matrix(1.0, 0.0, 0.0, 1.0, -33.1, -84.1)" width="78.0" xlink:href="#shape1"/>
      <use ffdec:characterId="591" height="61.65" transform="matrix(0.9936, 0.1093, -0.1093, 0.9936, -17.832, -124.7376)" width="64.5" xlink:href="#shape2"/>
      <use ffdec:characterId="592" height="63.35" transform="matrix(1.0, 0.0, 0.0, 1.0, 24.7, -71.3)" width="28.0" xlink:href="#shape3"/>
      <use ffdec:characterId="593" height="50.4" transform="matrix(-0.993, -0.0667, 0.0667, -0.993, -25.7313, -54.0053)" width="32.55" xlink:href="#shape4"/>
      <use ffdec:characterId="594" height="135.5" transform="matrix(1.1604, -0.8224, 0.416, 0.587, -164.6658, -83.1697)" width="147.5" xlink:href="#shape5"/>
      <use ffdec:characterId="595" height="120.4" transform="matrix(0.9702, 0.0564, -0.757, 1.007, -53.5148, -172.5233)" width="111.5" xlink:href="#shape6"/>
      <use ffdec:characterId="595" height="120.4" transform="matrix(1.2142, -0.4359, -0.1952, 0.9088, -102.8045, -141.2629)" width="111.5" xlink:href="#shape7"/>
      <use ffdec:characterId="595" height="120.4" transform="matrix(1.1604, -0.8224, 0.416, 0.587, -140.6072, -100.971)" width="111.5" xlink:href="#shape8"/>
    </g>
    <g id="shape0" transform="matrix(1.0, 0.0, 0.0, 1.0, 29.45, 30.75)">
      <path d="M-24.15 -1.85 L-24.1 -1.85 -24.15 -1.65 -24.15 -1.85" fill="#372c22" fill-rule="evenodd" stroke="none"/>
      <path d="M10.8 -29.6 L12.95 -26.5 Q12.9 -23.45 13.5 -20.7 13.9 -18.95 14.5 -17.65 14.4 -14.35 15.15 -10.65 16.0 -6.45 16.0 -4.15 L16.0 -2.5 16.2 -2.15 Q17.0 -0.8 17.0 0.1 L16.85 1.0 14.95 1.1 -1.0 1.75 Q-1.45 0.85 -2.25 0.25 L-2.1 0.1 -2.3 -0.65 -2.5 -2.2 Q-2.5 -7.45 -1.75 -12.35 L-2.0 -12.1 Q-3.15 -10.95 -10.25 -6.35 L-13.55 -3.65 Q-15.4 -2.4 -17.55 -2.05 -17.3 -0.3 -18.75 3.05 -19.45 3.55 -20.45 2.85 L-20.45 2.65 Q-22.7 1.9 -26.2 -0.7 -29.15 -3.65 -29.45 -8.95 -29.6 -12.5 -28.75 -14.35 L-28.7 -15.0 -28.6 -15.4 -28.85 -15.65 -28.6 -15.7 -28.15 -17.65 -26.9 -18.3 -26.3 -18.3 -24.75 -18.95 -22.7 -19.4 Q-19.2 -20.1 -17.0 -22.3 L-15.95 -22.65 Q-12.55 -25.45 -9.55 -26.65 -3.2 -29.1 1.3 -24.6 L1.55 -24.35 Q3.4 -28.25 5.9 -29.95 8.6 -31.75 10.8 -29.6 M9.0 -1.4 L10.65 -4.2 Q11.5 -5.55 13.6 -5.2 L13.5 -7.7 12.95 -11.05 Q12.55 -13.2 12.5 -14.45 L12.45 -16.6 11.75 -16.5 4.5 -15.45 4.45 -1.1 5.85 -1.1 9.0 -1.05 9.05 -1.05 9.35 -1.05 9.0 -1.4 M14.0 -0.95 L13.2 -2.85 10.5 -1.05 14.0 -0.95 M-12.4 -15.5 Q-13.25 -14.75 -18.35 -12.85 -23.95 -10.75 -26.75 -11.15 L-27.05 -9.25 Q-27.7 -5.3 -24.4 -1.9 L-24.15 -1.65 Q-23.2 -0.7 -20.4 0.9 -20.35 0.85 -20.25 0.95 L-20.2 0.4 Q-19.95 -1.05 -20.0 -1.9 L-21.65 -1.55 -24.1 -1.85 -24.15 -1.85 Q-24.25 -1.85 -24.35 -1.95 L-23.9 -2.7 -21.7 -4.1 Q-19.8 -4.7 -18.55 -3.65 L-18.0 -4.3 Q-17.55 -4.75 -16.05 -5.45 -14.7 -6.2 -14.2 -6.7 L-11.9 -8.3 Q-10.1 -9.5 -9.6 -10.0 L-7.65 -11.35 Q-9.0 -11.9 -10.45 -13.35 L-12.3 -15.4 -12.35 -15.55 -12.4 -15.5" fill="#000000" fill-rule="evenodd" stroke="none"/>
      <path d="M9.0 -1.05 L9.0 -1.4 9.05 -1.05 9.0 -1.05" fill="#5b6171" fill-rule="evenodd" stroke="none"/>
      <path d="M9.0 -1.05 L5.85 -1.1 4.45 -1.1 4.5 -15.45 11.75 -16.5 12.45 -16.6 12.5 -14.45 Q12.55 -13.2 12.95 -11.05 L13.5 -7.7 13.6 -5.2 Q11.5 -5.55 10.65 -4.2 L9.0 -1.4 9.0 -1.05 M-24.4 -1.9 Q-27.7 -5.3 -27.05 -9.25 L-26.75 -11.15 Q-23.95 -10.75 -18.35 -12.85 -13.25 -14.75 -12.4 -15.5 L-12.3 -15.4 -10.45 -13.35 Q-9.0 -11.9 -7.65 -11.35 L-9.6 -10.0 Q-10.1 -9.5 -11.9 -8.3 L-14.2 -6.7 Q-14.7 -6.2 -16.05 -5.45 -17.55 -4.75 -18.0 -4.3 L-18.55 -3.65 Q-19.8 -4.7 -21.7 -4.1 L-23.9 -2.7 -24.35 -1.95 -24.4 -1.9 M14.0 -0.95 L10.5 -1.05 13.2 -2.85 14.0 -0.95 M-24.1 -1.85 L-21.65 -1.55 -20.0 -1.9 Q-19.95 -1.05 -20.2 0.4 L-20.4 0.9 Q-23.2 -0.7 -24.15 -1.65 L-24.1 -1.85" fill="#254a9e" fill-rule="evenodd" stroke="none"/>
    </g>
    <g id="shape1" transform="matrix(1.0, 0.0, 0.0, 1.0, 27.0, 29.3)">
      <path d="M15.65 -24.9 Q17.35 -24.55 20.85 -23.0 L22.9 -21.05 24.5 -19.0 24.7 -18.65 Q26.0 -17.95 27.7 -16.55 30.8 -14.05 31.0 -12.55 32.45 -12.0 35.05 -10.25 39.5 -7.25 41.85 -5.0 44.75 -2.75 47.9 1.6 51.0 5.85 51.0 7.4 51.0 10.65 49.25 13.05 46.35 17.0 39.5 17.0 32.1 17.0 26.05 9.95 L26.0 11.35 Q26.0 18.8 26.2 20.1 L29.0 31.5 29.0 37.5 28.0 38.0 27.75 37.7 25.65 38.5 Q22.25 39.5 18.0 39.5 L15.1 39.05 3.25 40.0 -1.85 39.7 -2.3 40.25 -3.0 40.5 -3.85 40.25 -7.75 41.0 Q-11.4 41.0 -16.8 39.1 -21.5 37.5 -23.05 36.25 -25.5 34.3 -26.1 33.05 -26.5 32.15 -26.5 29.65 L-26.0 26.4 Q-25.5 23.75 -25.5 23.1 -27.0 9.35 -27.0 6.8 -27.0 -2.5 -24.7 -11.6 -21.6 -24.05 -15.8 -24.75 L-15.65 -24.85 -15.6 -24.8 Q-14.6 -26.1 -12.75 -27.0 -9.9 -28.4 -7.0 -27.4 -4.65 -30.45 3.35 -28.6 7.15 -27.7 10.7 -26.05 L12.7 -25.0 13.05 -25.1 14.1 -24.85 15.65 -24.9 M16.3 -21.7 L16.85 -19.85 Q19.0 -13.3 19.0 -12.15 L19.0 -11.55 19.3 -11.05 19.5 -9.65 19.05 -7.55 21.0 -8.0 24.4 -8.5 24.0 -9.0 24.0 -10.1 Q24.0 -14.4 21.85 -18.3 19.5 -22.5 15.75 -22.95 L16.3 -21.7 M16.85 -10.0 Q16.65 -10.35 16.8 -10.9 L17.0 -12.3 Q17.0 -13.35 14.5 -19.15 L13.0 -22.5 -0.75 -27.25 Q-2.8 -27.25 -4.0 -25.85 L-4.05 -25.75 -3.25 -25.1 Q-0.7 -22.0 1.1 -18.15 3.0 -14.1 3.0 -11.4 L2.9 -8.65 Q3.45 -7.35 3.7 -4.9 L3.95 -1.55 Q4.75 -2.0 6.3 -2.1 L15.45 -1.6 Q16.0 -6.9 17.3 -9.85 L17.35 -10.0 16.85 -10.0 M-20.0 24.15 Q-18.85 22.6 -16.05 21.75 -13.1 20.8 -11.05 18.9 L-7.8 15.0 -5.5 11.25 Q-5.3 10.15 -4.75 10.15 L1.45 11.25 2.0 4.6 1.75 1.6 1.5 -2.1 1.0 -5.85 0.6 -8.05 Q-4.3 -8.45 -10.55 -13.2 -13.8 -15.7 -15.4 -17.6 -17.0 -19.5 -17.0 -20.85 L-17.0 -20.9 -17.0 -20.95 -16.95 -21.65 -16.85 -22.3 -17.25 -21.8 -19.1 -19.4 -19.2 -19.25 -19.25 -19.15 -19.35 -19.05 -19.45 -18.95 -19.5 -18.85 -19.6 -18.75 -19.65 -18.65 -22.1 -14.15 -23.1 -10.95 -23.4 -9.15 -23.5 -8.5 -24.35 -0.65 -24.8 7.25 -24.15 15.5 -23.5 23.1 -24.0 26.3 -24.5 29.5 Q-24.5 32.05 -22.85 33.65 L-22.55 33.9 -22.25 32.8 -22.2 32.75 -22.15 32.55 -22.15 32.5 -21.0 28.75 Q-21.0 26.4 -20.55 25.15 L-20.3 24.65 -20.0 24.15 M25.05 -6.45 Q23.4 -5.5 19.5 -5.5 L18.45 -5.55 18.0 -4.0 Q17.1 -0.25 17.0 2.0 16.8 4.25 16.85 7.8 L17.0 13.55 Q17.0 17.6 17.65 25.35 17.95 32.25 16.5 37.25 L19.85 37.25 23.95 36.5 24.15 36.45 26.75 36.0 26.95 36.05 26.75 34.75 26.5 31.3 Q25.35 27.05 25.0 24.55 24.6 21.95 24.25 16.95 L24.0 11.4 Q24.0 8.65 24.35 5.9 24.9 1.5 26.4 -2.85 28.75 -9.9 28.75 -12.1 L26.05 -14.7 25.75 -14.95 25.8 -14.45 26.0 -10.0 26.0 -7.4 25.9 -7.2 25.05 -6.45 M-14.55 -22.8 Q-15.0 -22.0 -15.0 -21.0 -15.0 -18.8 -8.2 -14.45 -1.35 -10.05 1.0 -10.75 L1.0 -13.0 -1.7 -17.55 -4.55 -22.75 -5.65 -24.3 -5.95 -24.5 -6.25 -24.5 -8.0 -24.75 -7.9 -25.25 -10.55 -25.15 Q-13.65 -24.55 -14.55 -22.8 M30.6 -10.25 L28.5 -2.7 Q26.9 2.9 26.3 7.2 35.55 14.8 36.25 14.8 44.8 14.8 47.6 11.5 48.85 10.05 48.85 7.5 L48.35 6.25 47.5 4.75 45.75 2.05 40.5 -3.1 34.3 -7.55 Q31.9 -9.2 30.6 -10.25 M1.3 12.45 L-1.0 12.95 -2.55 12.75 -7.45 17.75 Q-12.55 23.0 -15.5 24.0 -17.95 24.8 -18.4 26.8 L-19.0 30.25 -19.85 33.05 -20.4 35.15 -18.3 35.75 -14.9 36.75 -11.0 38.0 -9.2 38.35 -6.5 38.5 -3.95 38.4 Q-3.75 37.0 -3.0 35.2 -1.65 31.95 -1.3 30.5 -0.75 28.35 0.25 21.8 L1.2 13.25 1.3 12.45 M4.85 14.85 L15.0 15.45 15.0 15.35 Q15.0 4.15 15.2 1.0 6.65 0.95 4.0 -0.05 L4.0 4.3 Q4.0 8.7 3.3 14.9 L4.85 14.85 M1.9 24.65 Q0.45 33.85 -0.95 37.75 1.05 37.05 4.9 37.1 L14.55 37.05 15.05 34.75 Q15.55 32.75 15.5 31.75 L15.0 26.05 15.0 17.75 12.0 18.0 2.95 17.55 1.9 24.65" fill="#000000" fill-rule="evenodd" stroke="none"/>
      <path d="M16.3 -21.7 L15.75 -22.95 Q19.5 -22.5 21.85 -18.3 24.0 -14.4 24.0 -10.1 L24.0 -9.0 24.4 -8.5 21.0 -8.0 19.05 -7.55 19.5 -9.65 19.3 -11.05 19.0 -11.55 19.0 -12.15 Q19.0 -13.3 16.85 -19.85 L16.3 -21.7 M-15.4 -17.6 Q-13.8 -15.7 -10.55 -13.2 -4.3 -8.45 0.6 -8.05 L1.0 -5.85 1.5 -2.1 1.75 1.6 2.0 4.6 1.45 11.25 -4.75 10.15 Q-5.3 10.15 -5.5 11.25 L-7.8 15.0 -11.05 18.9 Q-13.1 20.8 -16.05 21.75 -18.85 22.6 -20.0 24.15 L-20.0 23.4 -21.0 11.65 -22.0 1.85 Q-22.0 -2.25 -18.25 -11.05 L-15.4 -17.6 M-22.25 32.8 L-22.55 33.9 -22.85 33.65 -22.25 32.8 M-23.1 -10.95 L-22.1 -14.15 -22.35 -13.5 -22.5 -12.75 -22.95 -11.55 -23.1 -10.95 M-17.25 -21.8 L-16.85 -22.3 -16.95 -21.65 -17.25 -21.8 M23.95 36.5 L19.85 37.25 16.5 37.25 Q17.95 32.25 17.65 25.35 17.0 17.6 17.0 13.55 L16.85 7.8 Q16.8 4.25 17.0 2.0 17.1 -0.25 18.0 -4.0 L18.45 -5.55 19.5 -5.5 Q23.4 -5.5 25.05 -6.45 L23.7 -5.9 22.5 -2.75 21.75 1.35 Q21.0 5.2 21.0 5.8 21.3 14.35 22.0 22.75 22.85 32.4 23.95 36.5 M26.05 -14.7 L28.75 -12.1 Q28.75 -9.9 26.4 -2.85 24.9 1.5 24.35 5.9 24.4 5.15 25.0 2.0 L26.0 -2.25 26.45 -3.0 Q28.45 -9.0 28.7 -11.4 28.05 -13.1 26.0 -14.65 L26.05 -14.7 M-5.65 -24.3 L-4.55 -22.75 -1.7 -17.55 1.0 -13.0 1.0 -10.75 Q-1.35 -10.05 -8.2 -14.45 -15.0 -18.8 -15.0 -21.0 -15.0 -22.0 -14.55 -22.8 -13.85 -22.45 -13.9 -21.85 L-14.0 -20.25 -12.75 -20.0 Q-12.5 -20.0 -8.8 -22.25 -6.6 -23.6 -5.65 -24.3 M1.3 12.45 L1.2 13.25 0.25 21.8 Q-0.75 28.35 -1.3 30.5 -1.65 31.95 -3.0 35.2 -3.75 37.0 -3.95 38.4 L-6.5 38.5 -9.2 38.35 -11.0 38.0 -14.9 36.75 -18.3 35.75 -20.4 35.15 -19.85 33.05 -19.0 30.25 -18.4 26.8 Q-17.95 24.8 -15.5 24.0 -12.55 23.0 -7.45 17.75 L-2.55 12.75 -1.0 12.95 1.3 12.45 M30.6 -10.25 Q31.9 -9.2 34.3 -7.55 L40.5 -3.1 45.75 2.05 47.5 4.75 48.35 6.25 48.85 7.5 Q48.85 10.05 47.6 11.5 44.8 14.8 36.25 14.8 35.55 14.8 26.3 7.2 26.9 2.9 28.5 -2.7 L30.6 -10.25" fill="#42353e" fill-rule="evenodd" stroke="none"/>
      <path d="M17.3 -9.85 Q16.0 -6.9 15.45 -1.6 L6.3 -2.1 Q4.75 -2.0 3.95 -1.55 L3.7 -4.9 Q3.45 -7.35 2.9 -8.65 L3.0 -11.4 Q3.0 -14.1 1.1 -18.15 -0.7 -22.0 -3.25 -25.1 L-4.05 -25.75 -4.0 -25.85 Q-2.8 -27.25 -0.75 -27.25 L13.0 -22.5 14.5 -19.15 Q17.0 -13.35 17.0 -12.3 L16.8 -10.9 Q16.65 -10.35 16.85 -10.0 L17.3 -9.85 M1.9 24.65 L2.95 17.55 12.0 18.0 15.0 17.75 15.0 26.05 15.5 31.75 Q15.55 32.75 15.05 34.75 L14.55 37.05 4.9 37.1 Q1.05 37.05 -0.95 37.75 0.45 33.85 1.9 24.65" fill="#da4505" fill-rule="evenodd" stroke="none"/>
      <path d="M4.85 14.85 L3.3 14.9 Q4.0 8.7 4.0 4.3 L4.0 -0.05 Q6.65 0.95 15.2 1.0 15.0 4.15 15.0 15.35 L15.0 15.45 4.85 14.85" fill="#cccccc" fill-rule="evenodd" stroke="none"/>
      <path d="M-15.4 -17.6 L-18.25 -11.05 Q-22.0 -2.25 -22.0 1.85 L-21.0 11.65 -20.0 23.4 -20.0 24.15 -20.3 24.65 -20.55 25.15 Q-21.0 26.4 -21.0 28.75 L-22.15 32.5 -22.15 32.55 -22.2 32.75 -22.25 32.8 -22.85 33.65 Q-24.5 32.05 -24.5 29.5 L-24.0 26.3 -23.5 23.1 -24.15 15.5 -24.8 7.25 -24.35 -0.65 -23.5 -8.5 -23.4 -9.15 -23.1 -10.95 -22.95 -11.55 -22.5 -12.75 -22.35 -13.5 -22.1 -14.15 -19.65 -18.65 -19.6 -18.75 -19.5 -18.85 -19.45 -18.95 -19.35 -19.05 -19.25 -19.15 -19.2 -19.25 -19.1 -19.4 -17.25 -21.8 -16.95 -21.65 -17.0 -20.95 -17.0 -20.9 -17.0 -20.85 Q-17.0 -19.5 -15.4 -17.6 M23.95 36.5 Q22.85 32.4 22.0 22.75 21.3 14.35 21.0 5.8 21.0 5.2 21.75 1.35 L22.5 -2.75 23.7 -5.9 25.05 -6.45 25.9 -7.2 26.0 -7.4 26.0 -10.0 25.8 -14.45 26.0 -14.65 Q28.05 -13.1 28.7 -11.4 28.45 -9.0 26.45 -3.0 L26.0 -2.25 25.0 2.0 Q24.4 5.15 24.35 5.9 24.0 8.65 24.0 11.4 L24.25 16.95 Q24.6 21.95 25.0 24.55 25.35 27.05 26.5 31.3 L26.75 34.75 26.95 36.05 26.75 36.0 24.15 36.45 23.95 36.5 M-5.65 -24.3 Q-6.6 -23.6 -8.8 -22.25 -12.5 -20.0 -12.75 -20.0 L-14.0 -20.25 -13.9 -21.85 Q-13.85 -22.45 -14.55 -22.8 -13.65 -24.55 -10.55 -25.15 L-7.9 -25.25 -8.0 -24.75 -6.25 -24.5 -5.95 -24.5 -5.65 -24.3" fill="#624f5a" fill-rule="evenodd" stroke="none"/>
    </g>
    <g id="shape2" transform="matrix(1.0, 0.0, 0.0, 1.0, 23.0, 27.65)">
      <path d="M9.8 -27.65 Q13.65 -27.75 17.0 -25.0 L16.6 -24.2 15.5 -23.1 28.0 -21.75 Q30.5 -21.15 30.5 -19.75 30.5 -19.05 29.85 -18.75 L27.0 -18.0 Q36.25 -13.9 37.75 -12.9 41.5 -10.5 41.5 -6.75 L41.5 -5.8 41.3 -5.25 39.6 -5.3 37.0 -5.75 Q38.0 -3.0 38.0 -1.5 38.0 2.5 36.25 2.5 34.4 2.5 33.75 1.8 L32.95 0.9 33.0 2.25 32.5 4.9 Q32.0 7.05 32.0 8.3 L32.0 14.75 Q32.0 16.55 31.15 20.9 L30.55 24.75 30.95 25.25 Q31.5 26.2 31.5 28.05 31.5 29.85 30.3 31.8 28.95 34.0 27.25 34.0 L25.8 33.85 24.15 33.65 24.3 33.8 22.75 33.55 22.3 33.5 22.3 33.45 7.3 30.75 Q4.4 30.15 1.55 28.95 -1.2 27.8 -1.85 27.0 -3.05 25.45 -4.25 24.55 L-6.05 23.8 -7.9 23.05 -11.35 25.25 Q-15.3 27.5 -16.5 27.5 -17.75 27.5 -18.5 25.25 L-19.0 22.95 -19.6 22.75 Q-23.0 -1.65 -23.0 -8.0 -23.0 -11.7 -22.25 -13.85 -21.15 -16.95 -18.1 -19.25 L-15.3 -20.85 Q-13.35 -21.8 -11.6 -23.25 L-9.0 -24.85 Q-6.7 -26.25 -4.95 -25.55 L-3.5 -24.6 1.8 -26.25 9.8 -27.65 M24.05 -20.25 L9.8 -21.0 9.65 -21.2 Q9.5 -21.4 9.5 -22.15 9.5 -22.8 10.15 -23.3 L12.0 -24.35 Q2.8 -24.7 -2.0 -22.65 L-4.75 -21.2 Q-5.9 -20.5 -6.75 -20.5 -8.15 -20.5 -8.15 -21.2 L-8.1 -22.5 Q-15.95 -18.8 -18.5 -15.85 -21.0 -13.05 -21.0 -8.0 L-20.65 -2.15 -19.55 7.9 Q-18.25 18.2 -17.55 21.65 -17.25 22.25 -17.05 23.0 L-16.5 24.8 -12.2 23.1 -9.35 21.8 -10.15 20.7 Q-11.0 19.25 -11.0 17.8 -11.0 15.25 -9.6 12.55 -7.5 8.5 -3.25 8.5 -0.6 8.5 1.25 12.0 3.05 15.45 1.5 17.25 L1.5 17.3 3.25 17.6 5.0 17.75 4.9 13.45 Q4.95 10.85 5.5 9.05 6.5 5.8 7.0 4.85 7.5 3.8 8.1 3.2 L8.0 3.05 8.0 0.8 8.25 0.65 9.25 0.5 Q10.45 0.5 10.45 1.15 10.5 2.25 11.5 3.05 13.25 4.45 16.5 4.75 L16.5 1.75 Q15.5 0.1 15.5 -1.25 L15.75 -1.35 16.75 -1.5 19.9 0.5 23.5 3.0 23.5 -1.6 23.65 -1.8 24.5 -2.0 Q25.4 -2.0 26.45 0.55 27.35 2.8 30.0 1.75 L30.0 -3.5 30.05 -3.75 31.0 -4.0 33.3 -2.2 Q35.3 -0.35 35.55 -0.35 L35.95 -0.45 36.0 -1.4 35.25 -4.05 Q34.55 -5.85 34.5 -6.55 L34.5 -6.65 34.5 -6.85 34.55 -7.5 34.75 -7.85 36.7 -8.0 39.0 -8.25 Q36.25 -11.85 30.8 -14.15 24.55 -16.45 21.55 -18.0 L21.55 -17.8 21.5 -18.55 Q21.5 -19.05 22.05 -19.3 L24.0 -20.0 24.3 -20.25 24.05 -20.25 M32.05 0.0 L32.1 0.35 32.4 0.3 32.05 0.0 M20.55 8.45 L20.5 8.25 20.5 8.1 20.35 7.3 20.05 7.25 Q18.75 7.25 17.55 7.9 L17.25 8.05 16.75 8.05 16.55 8.45 16.5 8.85 16.5 9.25 Q16.5 10.0 16.65 10.25 L16.8 10.5 17.4 10.5 17.5 10.75 19.0 11.0 Q19.8 11.0 20.15 10.55 L20.2 10.5 20.25 10.5 21.25 10.2 21.5 9.55 Q21.45 9.0 20.55 8.45 M24.05 26.05 L25.75 25.5 Q27.7 24.9 27.95 23.65 L28.6 23.45 Q28.75 21.6 29.2 19.9 29.75 17.55 29.95 14.0 24.65 14.2 7.25 17.9 6.7 20.0 4.5 20.0 -0.2 20.0 -0.5 18.8 0.0 16.45 0.0 14.1 0.0 13.6 -1.25 12.05 -2.45 10.55 -2.75 10.55 -5.9 10.55 -7.75 14.0 -9.0 16.3 -9.0 17.65 -9.0 20.15 -5.65 21.65 -1.25 23.65 0.0 25.25 0.9 26.4 5.8 27.85 11.7 29.55 20.6 30.5 20.0 29.25 20.0 27.9 L20.0 27.55 22.3 26.65 Q21.8 27.0 21.8 27.5 L22.0 28.65 22.0 28.7 21.95 28.85 21.95 28.9 Q22.6 29.05 23.3 29.55 24.5 30.35 24.5 31.15 L24.5 31.3 24.75 31.3 Q28.1 31.3 29.0 29.75 L29.25 27.8 Q29.25 27.35 28.85 27.15 28.2 26.75 27.5 25.8 L27.5 25.35 27.0 25.45 25.2 25.95 24.05 26.05" fill="#000000" fill-rule="evenodd" stroke="none"/>
      <path d="M20.55 8.45 Q21.45 9.0 21.5 9.55 L21.25 10.2 20.25 10.5 20.2 10.5 20.15 10.55 Q19.8 11.0 19.0 11.0 L17.5 10.75 17.4 10.5 16.8 10.5 16.65 10.25 Q16.5 10.0 16.5 9.25 L16.5 8.85 16.55 8.45 16.75 8.05 17.25 8.05 17.55 7.9 Q18.75 7.25 20.05 7.25 L20.35 7.3 20.5 8.1 20.5 8.25 20.55 8.45" fill="#ffffff" fill-rule="evenodd" stroke="none"/>
      <path d="M22.3 26.65 L20.0 27.55 20.0 27.9 Q20.0 29.25 20.6 30.5 11.7 29.55 5.8 27.85 0.9 26.4 0.0 25.25 -1.25 23.65 -5.65 21.65 -9.0 20.15 -9.0 17.65 -9.0 16.3 -7.75 14.0 -5.9 10.55 -2.75 10.55 -2.45 10.55 -1.25 12.05 0.0 13.6 0.0 14.1 0.0 16.45 -0.5 18.8 -0.2 20.0 4.5 20.0 6.7 20.0 7.25 17.9 24.65 14.2 29.95 14.0 29.75 17.55 29.2 19.9 28.75 21.6 28.6 23.45 L27.95 23.65 Q27.7 24.9 25.75 25.5 L24.05 26.05 24.0 26.05 22.3 26.65" fill="#c2865f" fill-rule="evenodd" stroke="none"/>
      <path d="M-20.65 -2.15 L-20.5 -2.15 Q-20.5 -1.35 -20.2 -1.2 L-19.5 -1.0 Q-17.65 -1.65 -16.3 -3.8 L-14.0 -6.85 -13.45 -5.1 Q-12.95 -4.0 -11.75 -4.0 -10.2 -4.0 -9.3 -5.5 L-8.0 -7.35 -8.0 -3.25 -6.5 -3.0 Q-5.45 -3.0 -2.45 -5.75 L0.8 -8.85 1.0 -4.75 2.25 -4.5 Q3.0 -4.5 4.65 -6.25 L7.25 -8.95 7.3 -9.0 7.5 -8.6 Q7.0 -8.05 7.15 -7.05 7.25 -6.0 8.0 -5.0 9.15 -5.2 10.6 -6.65 L12.3 -8.5 Q12.4 -7.75 12.65 -7.15 13.15 -6.0 14.25 -6.0 14.95 -6.0 15.6 -6.75 L17.05 -7.85 18.5 -6.0 Q19.15 -5.0 20.25 -5.0 21.4 -5.0 21.9 -6.0 L22.5 -7.5 23.05 -6.2 Q23.7 -5.0 25.0 -5.0 25.75 -5.0 26.2 -5.65 L27.0 -7.1 27.95 -6.05 Q28.55 -5.5 29.25 -5.5 29.9 -5.5 30.55 -6.3 L31.25 -7.35 31.95 -6.6 Q32.6 -6.0 33.5 -6.0 34.15 -6.0 34.25 -6.5 L34.5 -6.85 34.5 -6.65 34.5 -6.55 Q34.55 -5.85 35.25 -4.05 L36.0 -1.4 35.95 -0.45 35.55 -0.35 Q35.3 -0.35 33.3 -2.2 L31.0 -4.0 30.05 -3.75 30.0 -3.5 30.0 1.75 Q27.35 2.8 26.45 0.55 25.4 -2.0 24.5 -2.0 L23.65 -1.8 23.5 -1.6 23.5 3.0 19.9 0.5 16.75 -1.5 15.75 -1.35 15.5 -1.25 Q15.5 0.1 16.5 1.75 L16.5 4.75 Q13.25 4.45 11.5 3.05 10.5 2.25 10.45 1.15 10.45 0.5 9.25 0.5 L8.25 0.65 8.0 0.8 8.0 3.05 8.1 3.2 Q7.5 3.8 7.0 4.85 6.5 5.8 5.5 9.05 4.95 10.85 4.9 13.45 L5.0 17.75 3.25 17.6 1.5 17.3 1.5 17.25 Q3.05 15.45 1.25 12.0 -0.6 8.5 -3.25 8.5 -7.5 8.5 -9.6 12.55 -11.0 15.25 -11.0 17.8 -11.0 19.25 -10.15 20.7 L-9.35 21.8 -12.2 23.1 -16.5 24.8 -17.05 23.0 Q-17.25 22.25 -17.55 21.65 -18.25 18.2 -19.55 7.9 L-20.65 -2.15 M9.55 -8.6 L9.5 -8.75 9.6 -8.65 9.55 -8.6 M-5.85 -5.7 L-6.0 -5.6 -6.0 -5.85 -5.85 -5.7" fill="#291f1b" fill-rule="evenodd" stroke="none"/>
      <path d="M-20.65 -2.15 L-21.0 -8.0 Q-21.0 -13.05 -18.5 -15.85 -15.95 -18.8 -8.1 -22.5 L-8.15 -21.2 Q-8.15 -20.5 -6.75 -20.5 -5.9 -20.5 -4.75 -21.2 L-2.0 -22.65 Q2.8 -24.7 12.0 -24.35 L10.15 -23.3 Q9.5 -22.8 9.5 -22.15 9.5 -21.4 9.65 -21.2 L9.8 -21.0 24.05 -20.25 24.0 -20.0 22.05 -19.3 Q21.5 -19.05 21.5 -18.55 L21.55 -17.8 21.55 -18.0 Q24.55 -16.45 30.8 -14.15 36.25 -11.85 39.0 -8.25 L36.7 -8.0 34.75 -7.85 34.55 -7.5 34.5 -6.85 34.25 -6.5 Q34.15 -6.0 33.5 -6.0 32.6 -6.0 31.95 -6.6 L31.25 -7.35 30.55 -6.3 Q29.9 -5.5 29.25 -5.5 28.55 -5.5 27.95 -6.05 L27.0 -7.1 26.2 -5.65 Q25.75 -5.0 25.0 -5.0 23.7 -5.0 23.05 -6.2 L22.5 -7.5 21.9 -6.0 Q21.4 -5.0 20.25 -5.0 19.15 -5.0 18.5 -6.0 L17.05 -7.85 15.6 -6.75 Q14.95 -6.0 14.25 -6.0 13.15 -6.0 12.65 -7.15 12.4 -7.75 12.3 -8.5 L10.6 -6.65 Q9.15 -5.2 8.0 -5.0 7.25 -6.0 7.15 -7.05 7.0 -8.05 7.5 -8.6 L7.3 -9.0 7.25 -8.95 4.65 -6.25 Q3.0 -4.5 2.25 -4.5 L1.0 -4.75 0.8 -8.85 -2.45 -5.75 Q-5.45 -3.0 -6.5 -3.0 L-8.0 -3.25 -8.0 -7.35 -9.3 -5.5 Q-10.2 -4.0 -11.75 -4.0 -12.95 -4.0 -13.45 -5.1 L-14.0 -6.85 -16.3 -3.8 Q-17.65 -1.65 -19.5 -1.0 L-20.2 -1.2 Q-20.5 -1.35 -20.5 -2.15 L-20.65 -2.15 M9.55 -8.6 L9.6 -8.65 9.5 -8.75 9.55 -8.6 M22.3 26.65 L24.0 26.05 24.05 26.05 25.2 25.95 27.0 25.45 27.5 25.35 27.5 25.8 Q28.2 26.75 28.85 27.15 29.25 27.35 29.25 27.8 L29.0 29.75 Q28.1 31.3 24.75 31.3 L24.5 31.3 24.5 31.15 Q24.5 30.35 23.3 29.55 22.6 29.05 21.95 28.9 L22.0 28.7 22.0 28.65 21.8 27.5 Q21.8 27.0 22.3 26.65 M-5.85 -5.7 L-6.0 -5.85 -6.0 -5.6 -5.85 -5.7" fill="#392b24" fill-rule="evenodd" stroke="none"/>
    </g>
    <g id="shape3" transform="matrix(1.0, 0.0, 0.0, 1.0, 18.5, 29.35)">
      <path d="M3.35 -27.15 L-14.65 -26.15 -15.0 -25.5 -15.5 -24.35 -15.5 -21.9 Q-14.5 -4.1 -14.5 4.5 -14.5 13.2 -13.5 30.3 L-13.7 30.85 -12.85 31.25 Q-7.55 33.0 -1.15 32.2 L7.2 31.05 7.1 29.15 7.5 25.25 Q7.5 23.2 6.65 19.05 5.85 15.15 6.0 12.05 6.75 3.5 6.5 -1.0 6.0 -11.25 6.0 -14.1 L6.0 -20.85 5.5 -24.3 5.0 -27.05 3.35 -27.15 M6.45 -28.55 Q7.15 -28.45 7.45 -27.6 L7.55 -25.25 7.8 -8.3 8.0 11.05 Q8.0 13.4 8.75 18.7 L9.5 25.1 9.25 28.25 9.0 32.5 8.0 33.0 7.8 32.7 Q7.35 33.25 5.95 33.5 L-5.75 34.0 -15.0 33.5 Q-16.0 33.2 -16.0 32.05 L-15.95 31.3 -16.1 31.25 -16.0 22.0 Q-16.0 14.95 -16.75 -0.5 -17.5 -15.95 -17.5 -22.0 L-17.95 -24.95 -17.75 -26.0 -18.1 -26.0 -18.3 -26.1 Q-18.5 -26.25 -18.5 -27.0 -18.5 -27.75 -17.35 -28.1 -15.55 -28.75 -10.0 -29.25 L-5.2 -29.35 6.05 -29.0 Q6.2 -28.9 6.3 -28.85 L6.45 -28.55 M4.0 -19.1 L3.5 -10.3 4.5 6.85 4.4 13.25 4.5 13.5 4.35 13.6 4.3 14.55 3.5 15.0 3.1 14.05 -2.0 14.5 Q-11.35 14.5 -12.5 12.6 -12.9 11.95 -12.5 10.75 L-12.0 8.85 -12.45 5.6 -13.0 1.3 -13.0 -6.1 Q-13.0 -11.0 -13.5 -20.55 -13.5 -22.15 -13.3 -22.45 -12.9 -23.25 -11.3 -22.85 L-10.0 -23.5 -3.9 -23.85 3.0 -23.5 Q4.15 -22.65 4.2 -21.35 L4.0 -19.1 M-11.25 -14.4 L-10.8 -4.0 -10.1 11.75 -1.55 12.05 2.65 12.45 Q2.0 10.0 1.95 6.7 L2.0 -1.75 Q1.35 -11.15 2.0 -18.25 L2.0 -21.25 Q-0.7 -21.7 -5.2 -21.4 L-11.35 -21.0 -11.5 -20.5 -11.25 -14.6 -11.25 -14.4 M2.0 19.55 L-2.5 19.8 -9.1 20.0 -9.0 28.3 -6.4 28.15 Q-3.75 28.0 1.5 28.0 1.5 25.55 2.0 24.5 L2.0 19.55 M4.0 22.0 L3.5 27.8 3.35 29.4 Q3.15 30.4 2.5 30.5 L-4.0 30.85 -9.75 31.0 -11.0 30.75 -11.25 24.25 -11.5 19.6 Q-11.5 17.75 -10.5 17.6 L-3.5 17.5 3.8 17.75 4.0 22.0" fill="#000000" fill-rule="evenodd" stroke="none"/>
      <path d="M3.35 -27.15 L5.0 -27.05 5.5 -24.3 6.0 -20.85 6.0 -14.1 Q6.0 -11.25 6.5 -1.0 6.75 3.5 6.0 12.05 5.85 15.15 6.65 19.05 7.5 23.2 7.5 25.25 L7.1 29.15 7.2 31.05 -1.15 32.2 Q-7.55 33.0 -12.85 31.25 L-13.7 30.85 -13.5 30.3 Q-14.5 13.2 -14.5 4.5 -14.5 -4.1 -15.5 -21.9 L-15.5 -24.35 -15.0 -25.5 -14.65 -26.15 3.35 -27.15 M4.0 -19.1 L4.2 -21.35 Q4.15 -22.65 3.0 -23.5 L-3.9 -23.85 -10.0 -23.5 -11.3 -22.85 Q-12.9 -23.25 -13.3 -22.45 -13.5 -22.15 -13.5 -20.55 -13.0 -11.0 -13.0 -6.1 L-13.0 1.3 -12.45 5.6 -12.0 8.85 -12.5 10.75 Q-12.9 11.95 -12.5 12.6 -11.35 14.5 -2.0 14.5 L3.1 14.05 3.5 15.0 4.3 14.55 4.35 13.6 4.5 13.5 4.4 13.25 4.5 6.85 3.5 -10.3 4.0 -19.1 M4.0 22.0 L3.8 17.75 -3.5 17.5 -10.5 17.6 Q-11.5 17.75 -11.5 19.6 L-11.25 24.25 -11.0 30.75 -9.75 31.0 -4.0 30.85 2.5 30.5 Q3.15 30.4 3.35 29.4 L3.5 27.8 4.0 22.0" fill="#333333" fill-rule="evenodd" stroke="none"/>
      <path d="M-11.25 -14.6 L-11.5 -20.5 -11.35 -21.0 -5.2 -21.4 Q-0.7 -21.7 2.0 -21.25 L2.0 -18.25 Q1.35 -11.15 2.0 -1.75 L1.95 6.7 Q2.0 10.0 2.65 12.45 L-1.55 12.05 -10.1 11.75 -10.8 -4.0 -11.25 -14.4 -7.4 -13.95 -7.05 -8.75 -10.5 -8.85 -10.9 -9.15 -11.0 -8.5 -10.85 -7.7 -10.75 -7.85 -6.95 -7.75 -6.6 -2.3 -7.15 -2.3 -8.5 -2.0 -6.6 -1.75 -6.5 3.75 -9.0 4.0 -6.5 4.4 -6.5 5.05 -6.65 8.2 -8.0 8.15 Q-9.4 8.15 -9.5 8.5 L-6.7 8.75 Q-6.65 11.2 -5.25 11.8 L-5.0 11.5 -5.15 8.75 -4.5 8.75 -1.8 8.75 -1.75 9.8 -0.5 9.5 -0.55 8.7 0.5 8.5 -0.6 8.45 -0.9 4.75 1.0 4.5 -0.95 4.15 -1.5 -1.7 0.5 -2.0 -1.5 -2.1 -2.05 -7.65 -0.5 -7.6 Q0.75 -7.6 0.5 -8.0 L-2.1 -8.45 -2.05 -7.85 -2.65 -13.65 -0.5 -13.6 Q0.75 -13.6 0.5 -14.0 L-2.85 -15.9 -3.25 -19.35 -3.85 -19.35 -4.0 -17.1 -4.0 -16.2 -5.2 -16.4 -6.5 -16.35 -6.75 -20.35 -7.35 -20.35 -7.5 -16.2 Q-9.3 -15.8 -11.25 -14.6 M0.25 23.55 L0.3 23.3 Q-0.05 23.05 -1.05 22.85 L-1.0 21.75 -1.05 20.85 -1.25 20.55 -1.85 20.55 -2.25 22.5 -2.25 22.65 -4.05 22.4 -4.7 22.35 -4.65 22.8 Q-4.9 21.45 -5.25 20.55 L-5.85 20.55 -5.9 20.55 -6.0 21.35 -5.95 22.2 -8.0 22.05 -7.8 22.75 -7.6 23.3 -5.85 23.4 -5.55 24.7 -7.35 24.55 -7.5 25.0 -5.25 25.55 -4.5 26.8 -4.1 26.45 -4.0 26.25 -4.1 25.8 -2.4 26.1 -2.0 26.8 -1.6 26.55 -1.55 26.25 -1.0 26.3 Q0.25 26.3 0.0 26.0 L-0.25 25.55 -1.35 25.25 -1.45 25.75 -1.15 23.75 0.0 24.0 0.25 23.55 M2.0 19.55 L2.0 24.5 Q1.5 25.55 1.5 28.0 -3.75 28.0 -6.4 28.15 L-9.0 28.3 -9.1 20.0 -2.5 19.8 2.0 19.55 M-3.1 -3.65 L-2.95 -2.2 -5.75 -2.3 -6.05 -7.7 -3.5 -7.65 -3.1 -3.65 M-4.0 -1.7 L-2.9 -1.7 -2.3 4.0 -5.4 3.75 -5.7 -1.7 -4.0 -1.7 M-6.4 -13.9 L-6.35 -13.9 -3.9 -13.75 -3.55 -8.55 -6.1 -8.7 -6.4 -13.9 M-2.25 4.2 L-1.85 8.4 -5.15 8.25 -5.35 4.55 -3.75 4.8 -2.2 4.8 -2.25 4.2 M-2.4 23.6 L-2.5 24.5 -2.5 25.05 -4.05 24.85 -4.25 24.85 -4.55 23.45 -2.4 23.6" fill="#666666" fill-rule="evenodd" stroke="none"/>
      <path d="M-11.25 -14.6 Q-9.3 -15.8 -7.5 -16.2 L-7.35 -20.35 -6.75 -20.35 -6.5 -16.35 -5.2 -16.4 -4.0 -16.2 -4.0 -17.1 -3.85 -19.35 -3.25 -19.35 -2.85 -15.9 0.5 -14.0 Q0.75 -13.6 -0.5 -13.6 L-2.65 -13.65 -2.05 -7.85 -2.1 -8.45 0.5 -8.0 Q0.75 -7.6 -0.5 -7.6 L-2.05 -7.65 -1.5 -2.1 0.5 -2.0 -1.5 -1.7 -0.95 4.15 1.0 4.5 -0.9 4.75 -0.6 8.45 0.5 8.5 -0.55 8.7 -0.5 9.5 -1.75 9.8 -1.8 8.75 -4.5 8.75 -5.15 8.75 -5.0 11.5 -5.25 11.8 Q-6.65 11.2 -6.7 8.75 L-9.5 8.5 Q-9.4 8.15 -8.0 8.15 L-6.65 8.2 -6.5 5.05 -6.5 4.4 -9.0 4.0 -6.5 3.75 -6.6 -1.75 -8.5 -2.0 -7.15 -2.3 -6.6 -2.3 -6.95 -7.75 -10.75 -7.85 -10.85 -7.7 -11.0 -8.5 -10.9 -9.15 -10.5 -8.85 -7.05 -8.75 -7.4 -13.95 -11.25 -14.4 -11.25 -14.6 M0.25 23.55 L0.0 24.0 -1.15 23.75 -1.45 25.75 -1.35 25.25 -0.25 25.55 0.0 26.0 Q0.25 26.3 -1.0 26.3 L-1.55 26.25 -1.6 26.55 -2.0 26.8 -2.4 26.1 -4.1 25.8 -4.0 26.25 -4.1 26.45 -4.5 26.8 -5.25 25.55 -7.5 25.0 -7.35 24.55 -5.55 24.7 -5.85 23.4 -7.6 23.3 -7.8 22.75 -8.0 22.05 -5.95 22.2 -6.0 21.35 -5.9 20.55 -5.85 20.55 -5.25 20.55 Q-4.9 21.45 -4.65 22.8 L-4.7 22.35 -4.05 22.4 -2.25 22.65 -2.25 22.5 -1.85 20.55 -1.25 20.55 -1.05 20.85 -1.0 21.75 -1.05 22.85 Q-0.05 23.05 0.3 23.3 L0.25 23.55 M-6.4 -13.9 L-6.1 -8.7 -3.55 -8.55 -3.9 -13.75 -6.35 -13.9 -6.4 -13.9 M-4.0 -1.7 L-5.7 -1.7 -5.4 3.75 -2.3 4.0 -2.9 -1.7 -4.0 -1.7 M-3.1 -3.65 L-3.5 -7.65 -6.05 -7.7 -5.75 -2.3 -2.95 -2.2 -3.1 -3.65 M-2.25 4.2 L-2.2 4.8 -3.75 4.8 -5.35 4.55 -5.15 8.25 -1.85 8.4 -2.25 4.2 M-2.4 23.6 L-4.55 23.45 -4.25 24.85 -4.05 24.85 -2.5 25.05 -2.5 24.5 -2.4 23.6" fill="#999999" fill-rule="evenodd" stroke="none"/>
    </g>
    <g id="shape4" transform="matrix(1.0, 0.0, 0.0, 1.0, 5.5, 24.65)">
      <path d="M5.3 -13.05 L6.75 -12.7 7.0 -9.45 Q7.0 -6.35 6.3 -0.95 L5.4 3.0 7.35 6.2 10.6 11.3 12.0 10.3 Q14.85 8.6 17.05 8.3 18.7 8.0 22.2 8.35 23.3 8.35 23.75 7.5 L24.25 6.75 24.25 6.65 Q23.9 5.45 23.7 3.55 23.25 -0.15 22.55 -1.4 L20.0 -5.25 17.05 -9.45 Q14.3 -12.8 10.9 -16.0 4.25 -22.25 0.55 -22.25 -1.6 -22.25 -2.65 -18.9 L-3.3 -15.45 Q-3.3 -13.15 -0.25 -7.3 L0.9 -5.1 1.3 -4.3 1.7 -3.55 1.9 -3.6 3.3 -1.2 4.05 -0.1 4.8 -2.55 Q4.8 -4.75 3.6 -7.7 L2.35 -10.5 Q2.35 -11.7 3.4 -12.45 4.25 -13.05 5.3 -13.05 M1.75 -0.3 L1.4 -1.5 Q0.85 -2.9 -0.2 -3.4 L-0.95 -4.85 -2.25 -7.65 -5.5 -15.1 Q-5.5 -18.25 -3.8 -21.2 -1.9 -24.65 0.85 -24.65 5.1 -24.65 11.85 -18.35 16.55 -13.95 18.2 -11.45 L24.4 -3.05 Q26.45 0.5 26.45 6.15 L26.2 7.7 25.75 9.3 Q26.75 10.55 27.0 14.3 L27.05 20.9 Q27.05 23.55 26.4 24.45 25.45 25.75 22.45 25.75 16.6 25.75 12.7 24.35 7.8 22.55 7.8 19.0 L7.95 16.9 7.35 16.8 5.15 16.2 Q3.95 15.45 3.8 14.65 L3.5 13.05 Q2.7 11.0 2.7 6.55 2.7 4.5 3.25 2.45 L2.45 -0.2 1.95 -0.2 Q1.85 -0.2 1.75 -0.3 M24.4 10.55 L23.45 10.75 19.3 10.2 17.1 10.05 Q15.75 10.3 12.95 12.55 L10.25 14.55 10.4 17.3 Q10.5 20.2 11.1 21.45 11.45 22.2 15.95 22.9 L22.0 23.5 24.5 23.2 24.45 17.05 24.3 12.35 24.4 10.55 M5.25 11.65 Q6.15 13.9 8.35 15.2 L9.05 13.8 9.05 13.5 Q9.05 13.0 9.4 12.5 6.95 9.8 5.1 6.55 L4.75 5.9 4.55 7.45 Q4.55 9.95 5.25 11.65" fill="#000000" fill-rule="evenodd" stroke="none"/>
      <path d="M24.4 10.55 L24.3 12.35 24.45 17.05 24.5 23.2 22.0 23.5 15.95 22.9 Q11.45 22.2 11.1 21.45 10.5 20.2 10.4 17.3 L10.25 14.55 12.95 12.55 Q15.75 10.3 17.1 10.05 L19.3 10.2 23.45 10.75 24.4 10.55" fill="#c2865f" fill-rule="evenodd" stroke="none"/>
      <path d="M5.3 -13.05 Q4.25 -13.05 3.4 -12.45 2.35 -11.7 2.35 -10.5 L3.6 -7.7 Q4.8 -4.75 4.8 -2.55 L4.05 -0.1 3.3 -1.2 1.9 -3.6 1.7 -3.55 1.3 -4.3 0.9 -5.1 -0.25 -7.3 Q-3.3 -13.15 -3.3 -15.45 L-2.65 -18.9 Q-1.6 -22.25 0.55 -22.25 4.25 -22.25 10.9 -16.0 14.3 -12.8 17.05 -9.45 L20.0 -5.25 22.55 -1.4 Q23.25 -0.15 23.7 3.55 23.9 5.45 24.25 6.65 L24.25 6.75 23.75 7.5 Q23.3 8.35 22.2 8.35 18.7 8.0 17.05 8.3 14.85 8.6 12.0 10.3 L10.6 11.3 7.35 6.2 5.4 3.0 6.3 -0.95 Q7.0 -6.35 7.0 -9.45 L6.75 -12.7 5.3 -13.05" fill="#42353e" fill-rule="evenodd" stroke="none"/>
    </g>
    <g id="shape5" transform="matrix(1.0, 0.0, 0.0, 1.0, 73.75, 67.75)">
      <path d="M30.0 23.55 L30.5 22.6 35.55 12.0 Q37.05 7.05 38.2 -0.4 39.3 -7.85 30.3 -21.8 21.3 -35.75 1.35 -38.0 L-3.6 -39.95 -6.4 -40.15 Q-6.5 -41.15 -7.35 -42.8 L-7.3 -45.75 -7.35 -48.8 -7.75 -50.55 Q-7.3 -50.35 -7.15 -49.7 L-6.85 -48.5 -6.4 -47.5 -6.15 -46.45 Q-5.6 -46.7 -5.35 -47.7 L-5.35 -49.15 -4.9 -50.4 Q-4.65 -51.3 -4.75 -51.8 L-4.5 -53.2 -4.5 -54.55 -4.4 -56.9 -2.65 -56.95 Q20.75 -56.95 37.3 -40.4 53.85 -23.85 53.85 -0.45 53.85 16.0 45.7 29.05 L45.75 27.1 Q45.95 20.25 41.5 25.6 36.95 30.95 36.65 29.05 34.95 25.7 36.75 20.85 L36.55 20.75 35.65 20.45 Q34.3 19.65 34.0 19.05 L33.85 18.75 33.1 18.3 30.6 22.7 30.1 23.55 29.25 25.05 30.0 23.55" fill="url(#gradient0)" fill-rule="evenodd" stroke="none"/>
      <path d="M30.0 23.55 L29.25 25.05 30.1 23.55 30.6 22.7 33.1 18.3 33.85 18.75 34.0 19.05 Q34.3 19.65 35.65 20.45 L36.55 20.75 36.75 20.85 Q34.95 25.7 36.65 29.05 36.95 30.95 41.5 25.6 45.95 20.25 45.75 27.1 L45.7 29.05 Q42.25 34.55 37.3 39.5 20.75 56.05 -2.65 56.05 -18.4 56.05 -31.05 48.55 L-41.6 40.1 Q-35.0 44.2 -37.6 39.85 L-35.45 39.55 -35.4 39.6 -35.4 39.55 Q-30.9 38.75 -31.15 36.8 L-30.1 37.45 -29.8 37.45 -29.65 37.45 Q-28.6 37.45 -28.6 36.45 -28.6 35.9 -29.3 35.35 L-29.9 34.85 -30.3 34.4 -30.3 34.3 -30.3 34.25 -30.25 34.2 -28.6 35.0 -23.45 37.25 -18.75 39.7 Q-15.75 40.75 -8.7 40.75 17.05 40.75 29.25 24.55 L30.0 23.55" fill="url(#gradient1)" fill-rule="evenodd" stroke="none"/>
      <path d="M-31.05 48.55 Q-37.2 44.9 -42.6 39.5 -59.15 22.95 -59.15 -0.45 -59.15 -23.85 -42.6 -40.4 -33.15 -49.85 -21.45 -53.9 -21.4 -50.7 -19.8 -48.1 -18.5 -46.0 -16.35 -44.75 L-15.1 -41.85 -15.0 -39.35 Q-19.5 -37.9 -23.35 -34.9 -28.6 -30.9 -34.3 -22.6 -41.15 -12.65 -42.15 -10.2 -43.15 -7.55 -43.15 0.0 L-42.9 6.3 -42.2 15.55 Q-41.95 18.3 -38.2 24.05 L-35.65 27.45 -35.25 27.8 -35.15 28.0 -34.2 28.65 -33.0 30.85 -32.75 31.35 -32.05 32.5 -31.85 32.7 -30.9 33.8 -30.8 33.95 Q-30.6 34.1 -30.35 34.35 L-30.3 34.4 -29.9 34.85 -29.3 35.35 Q-28.6 35.9 -28.6 36.45 -28.6 37.45 -29.65 37.45 L-29.8 37.45 -30.1 37.45 -31.15 36.8 Q-30.9 38.75 -35.4 39.55 L-35.4 39.6 -35.45 39.55 -37.6 39.85 Q-35.0 44.2 -41.6 40.1 L-31.05 48.55 M-36.45 30.25 L-36.5 30.3 -36.45 30.3 -36.45 30.25" fill="url(#gradient2)" fill-rule="evenodd" stroke="none"/>
      <path d="M45.7 29.05 Q53.85 16.0 53.85 -0.45 53.85 -23.85 37.3 -40.4 20.75 -56.95 -2.65 -56.95 L-4.4 -56.9 -4.4 -57.15 -4.6 -59.35 -4.55 -60.35 Q-4.6 -61.05 -4.8 -61.35 L-5.45 -63.5 -6.05 -64.5 -6.5 -65.5 Q-6.5 -66.25 -5.85 -66.4 L-7.85 -66.9 -7.85 -67.1 -3.25 -67.25 -1.6 -67.2 Q26.0 -66.7 45.65 -47.55 65.85 -27.85 65.85 0.0 65.85 16.0 59.2 29.3 L58.0 31.45 57.05 33.05 57.9 31.35 57.8 31.3 Q55.15 36.75 50.95 36.75 L50.2 36.75 49.25 37.05 48.05 36.7 Q45.15 36.6 45.35 35.3 L45.7 29.05" fill="url(#gradient3)" fill-rule="evenodd" stroke="none"/>
      <path d="M-46.75 52.2 Q-46.3 52.75 -45.65 52.75 L-45.5 52.75 -45.45 52.75 -45.4 52.75 -45.1 52.75 -42.35 54.95 -41.8 55.4 -42.05 55.15 -44.7 52.5 -44.5 51.75 Q-44.5 51.2 -45.25 50.55 L-45.85 50.0 -45.4 49.1 Q-44.6 49.6 -43.7 50.2 L-45.35 48.95 -44.55 47.65 -41.45 49.5 -44.35 47.4 -44.25 47.3 -43.35 46.35 Q-42.85 45.9 -42.25 45.8 L-44.7 44.75 Q-45.35 44.45 -46.1 44.1 -51.4 41.7 -48.05 40.75 -40.4 45.0 -30.05 51.65 -15.6 60.85 -28.75 50.4 L-31.05 48.55 Q-18.4 56.05 -2.65 56.05 20.75 56.05 37.3 39.5 42.25 34.55 45.7 29.05 L45.35 35.3 Q45.15 36.6 48.05 36.7 L49.25 37.05 50.2 36.75 50.95 36.75 Q55.15 36.75 57.8 31.3 L57.9 31.35 57.05 33.05 58.0 31.45 58.1 31.5 Q53.3 40.1 45.65 47.55 25.95 66.7 -1.65 67.25 L-3.25 67.25 Q-28.2 67.25 -46.8 52.25 L-46.75 52.2" fill="url(#gradient4)" fill-rule="evenodd" stroke="none"/>
      <path d="M-46.75 52.2 L-47.1 51.8 -47.15 51.7 -47.2 51.65 -47.2 51.6 -47.95 50.85 -48.0 50.75 -49.8 49.05 -50.0 48.85 -50.1 48.8 Q-53.0 46.55 -52.75 46.95 L-57.65 41.6 Q-72.35 23.75 -72.35 0.0 -72.35 -23.65 -57.8 -41.4 L-52.15 -47.55 Q-35.6 -63.65 -13.45 -66.6 L-14.65 -66.0 Q-18.4 -64.05 -20.05 -60.8 -21.45 -58.05 -21.45 -54.1 L-21.45 -53.9 Q-33.15 -49.85 -42.6 -40.4 -59.15 -23.85 -59.15 -0.45 -59.15 22.95 -42.6 39.5 -37.2 44.9 -31.05 48.55 L-28.75 50.4 Q-15.6 60.85 -30.05 51.65 -40.4 45.0 -48.05 40.75 -51.4 41.7 -46.1 44.1 -45.35 44.45 -44.7 44.75 L-43.35 46.35 -44.25 47.3 -51.25 40.3 -51.15 41.1 -51.05 41.45 -51.05 41.5 Q-50.75 42.2 -49.7 43.3 L-49.55 43.5 -44.35 47.4 -41.45 49.5 -44.55 47.65 -48.9 45.0 -48.9 45.5 -48.95 46.15 -48.85 46.2 Q-48.05 46.6 -47.7 46.9 L-47.15 47.55 -45.35 48.95 -43.7 50.2 Q-44.6 49.6 -45.4 49.1 L-46.75 48.3 -46.65 48.55 -45.9 49.95 -45.85 50.0 -45.25 50.55 Q-44.5 51.2 -44.5 51.75 L-44.7 52.5 -42.05 55.15 -41.8 55.4 -42.35 54.95 -45.1 52.75 -45.4 52.75 -45.45 52.75 -45.5 52.75 -45.65 52.75 Q-46.3 52.75 -46.75 52.2" fill="url(#gradient5)" fill-rule="evenodd" stroke="none"/>
      <path d="M45.7 29.05 Q53.85 16.0 53.85 -0.45 53.85 -23.85 37.3 -40.4 20.75 -56.95 -2.65 -56.95 L-4.4 -56.9 Q-13.45 -56.7 -21.45 -53.9 -33.15 -49.85 -42.6 -40.4 -59.15 -23.85 -59.15 -0.45 -59.15 22.95 -42.6 39.5 -37.2 44.9 -31.05 48.55 -18.4 56.05 -2.65 56.05 20.75 56.05 37.3 39.5 42.25 34.55 45.7 29.05 M-1.6 -67.2 L0.0 -67.25 Q30.35 -67.25 51.8 -47.55 73.25 -27.85 73.25 0.0 73.25 16.0 66.2 29.3 M-14.65 -66.0 L-10.8 -66.6 M-57.8 -41.4 Q-73.25 -23.65 -73.25 0.0 -73.25 23.75 -57.65 41.6 M-49.8 49.05 L-49.2 49.85 -48.0 50.75 M-1.65 67.25 L0.0 67.25 Q30.35 67.25 51.8 47.55 59.9 40.1 65.0 31.5" fill="none" stroke="#010101" stroke-linecap="round" stroke-linejoin="round" stroke-opacity="0.0" stroke-width="1.0"/>
    </g>
    <linearGradient gradientTransform="matrix(0.0198, 0.021, -0.0207, 0.022, 33.7, -24.3)" gradientUnits="userSpaceOnUse" id="gradient0" spreadMethod="pad" x1="-819.2" x2="819.2">
      <stop offset="0.0" stop-color="#333333" stop-opacity="0.49803922"/>
      <stop offset="1.0" stop-color="#777777" stop-opacity="0.49803922"/>
    </linearGradient>
    <linearGradient gradientTransform="matrix(-0.0174, 0.0049, -0.0062, -0.0248, 4.05, 46.4)" gradientUnits="userSpaceOnUse" id="gradient1" spreadMethod="pad" x1="-819.2" x2="819.2">
      <stop offset="0.0" stop-color="#777777" stop-opacity="0.49803922"/>
      <stop offset="1.0" stop-color="#a2a2a2" stop-opacity="0.49803922"/>
    </linearGradient>
    <linearGradient gradientTransform="matrix(0.0089, -0.0352, 0.0296, 0.0084, -44.6, -16.0)" gradientUnits="userSpaceOnUse" id="gradient2" spreadMethod="pad" x1="-819.2" x2="819.2">
      <stop offset="0.0" stop-color="#a2a2a2" stop-opacity="0.49803922"/>
      <stop offset="1.0" stop-color="#777777" stop-opacity="0.0"/>
    </linearGradient>
    <linearGradient gradientTransform="matrix(0.0198, 0.021, -0.0207, 0.022, 33.7, -24.3)" gradientUnits="userSpaceOnUse" id="gradient3" spreadMethod="pad" x1="-819.2" x2="819.2">
      <stop offset="0.0" stop-color="#6d6d6d" stop-opacity="0.49803922"/>
      <stop offset="1.0" stop-color="#adadad" stop-opacity="0.49803922"/>
    </linearGradient>
    <linearGradient gradientTransform="matrix(-0.0174, 0.0049, -0.0062, -0.0248, 4.05, 46.4)" gradientUnits="userSpaceOnUse" id="gradient4" spreadMethod="pad" x1="-819.2" x2="819.2">
      <stop offset="0.0" stop-color="#9f9f9f" stop-opacity="0.49803922"/>
      <stop offset="1.0" stop-color="#c2c2c2" stop-opacity="0.49803922"/>
    </linearGradient>
    <linearGradient gradientTransform="matrix(0.0089, -0.0352, 0.0296, 0.0084, -44.6, -16.0)" gradientUnits="userSpaceOnUse" id="gradient5" spreadMethod="pad" x1="-819.2" x2="819.2">
      <stop offset="0.0" stop-color="#b8b8b8" stop-opacity="0.49803922"/>
      <stop offset="1.0" stop-color="#8d8d8d" stop-opacity="0.0"/>
    </linearGradient>
    <g id="shape6" transform="matrix(1.0, 0.0, 0.0, 1.0, 58.4, 61.75)">
      <path d="M-10.85 3.4 Q-10.55 2.25 -9.3 2.1 L-9.1 1.75 Q-9.1 0.0 -9.7 -3.05 -10.4 -6.4 -10.5 -8.35 L-11.0 -18.5 Q-11.1 -19.75 -11.95 -23.55 -12.65 -26.7 -12.5 -28.6 -12.4 -29.75 -12.45 -30.95 L-12.85 -34.15 -13.5 -38.55 Q-18.25 -39.05 -20.1 -42.6 -21.15 -44.65 -21.0 -47.0 -21.0 -48.7 -21.5 -52.25 L-22.0 -56.15 Q-22.0 -58.8 -19.2 -60.35 -16.7 -61.7 -13.0 -61.75 -9.4 -61.8 -6.8 -60.6 L-5.45 -59.75 -5.1 -58.75 -4.9 -58.35 Q-5.25 -56.75 -5.25 -54.9 L-5.25 -54.0 -5.5 -53.25 -5.0 -50.9 Q-4.5 -49.15 -4.5 -48.55 -4.5 -45.3 -5.6 -42.75 -7.3 -39.0 -11.0 -38.55 -10.6 -37.95 -10.5 -37.1 L-10.45 -34.1 Q-10.4 -32.25 -10.5 -31.1 L-10.5 -30.95 Q-10.6 -29.0 -9.95 -25.3 L-9.0 -19.5 Q-8.5 -15.35 -8.5 -7.5 -8.5 -5.25 -7.25 -0.55 L-6.45 2.2 -7.7 2.0 -8.4 2.1 -8.25 2.1 Q-5.5 2.4 -5.5 5.15 -5.5 5.8 -6.0 6.3 -6.5 6.85 -7.25 6.95 L-7.75 7.0 Q-8.75 7.0 -10.0 5.55 L-11.0 4.25 -10.85 3.4 M24.65 20.55 L24.7 20.5 27.65 21.9 29.0 22.5 Q30.85 23.3 31.7 23.8 L30.3 25.85 30.2 25.85 29.0 25.6 28.8 25.5 26.25 23.9 23.8 22.25 23.65 22.15 24.65 20.55 M-12.2 -56.1 L-11.5 -53.1 -11.5 -50.55 Q-9.85 -50.9 -8.85 -51.6 -8.0 -52.2 -7.25 -53.1 L-7.5 -54.6 -7.1 -56.3 Q-6.95 -57.25 -7.85 -58.0 -11.1 -60.65 -15.65 -59.25 -19.75 -58.0 -19.75 -56.3 L-19.35 -52.6 -19.15 -50.6 -18.05 -50.5 -15.0 -50.25 -13.15 -50.3 Q-14.1 -51.6 -14.35 -52.9 L-14.5 -56.5 -14.3 -57.6 Q-14.0 -58.5 -13.5 -59.0 -12.65 -58.25 -12.2 -56.1 M-19.0 -48.4 L-19.0 -47.85 Q-19.0 -45.15 -18.2 -43.7 -16.65 -40.75 -12.0 -40.75 -7.85 -40.75 -7.0 -45.9 -6.65 -48.15 -6.9 -50.55 L-8.75 -49.4 Q-11.6 -48.0 -15.25 -48.0 L-19.0 -48.4" fill="#000000" fill-opacity="0.19607843" fill-rule="evenodd" stroke="none"/>
      <path d="M-6.45 2.2 L-6.2 2.35 Q-5.8 2.6 -5.45 4.25 L-4.9 6.0 Q-3.4 6.95 -0.5 8.05 2.65 9.25 4.35 10.2 L13.25 15.15 Q14.35 15.75 18.0 17.05 21.05 18.1 22.6 19.2 23.55 19.95 24.65 20.55 L23.65 22.15 23.8 22.25 26.25 23.9 28.8 25.5 29.0 25.6 28.65 25.45 26.15 23.9 23.6 22.25 Q22.05 21.1 18.45 19.6 L13.05 17.4 Q9.25 15.6 2.6 11.4 0.7 10.25 -3.95 8.8 L-7.8 7.65 -7.7 7.55 -7.5 7.35 -7.25 6.95 Q-6.5 6.85 -6.0 6.3 -5.5 5.8 -5.5 5.15 -5.5 2.4 -8.25 2.1 L-8.4 2.1 -7.7 2.0 -6.45 2.2 M29.0 22.5 L31.5 23.65 Q34.45 19.9 38.4 20.25 40.75 20.45 42.65 21.85 L47.35 24.15 50.95 25.85 Q52.35 26.75 52.8 28.4 53.2 29.4 53.1 30.8 52.8 33.65 50.85 36.8 48.95 39.8 46.55 41.35 L45.05 42.05 44.05 41.75 43.6 41.75 Q42.45 40.55 40.9 39.55 L40.15 39.05 39.65 38.45 Q39.15 38.1 37.6 37.65 L37.4 37.6 35.2 36.75 Q32.65 35.15 31.15 33.0 L30.85 32.6 Q28.65 29.15 30.2 25.85 L30.3 25.85 31.7 23.8 Q30.85 23.3 29.0 22.5 M-19.0 -48.4 L-15.25 -48.0 Q-11.6 -48.0 -8.75 -49.4 L-6.9 -50.55 Q-6.65 -48.15 -7.0 -45.9 -7.85 -40.75 -12.0 -40.75 -16.65 -40.75 -18.2 -43.7 -19.0 -45.15 -19.0 -47.85 L-19.0 -48.4 M46.6 26.45 L44.85 25.6 44.15 26.4 42.3 28.85 41.35 30.4 44.2 30.85 Q44.9 31.15 47.25 32.7 L48.05 33.45 Q48.65 34.15 48.85 34.9 47.7 35.2 45.65 34.35 L42.8 33.35 40.65 31.95 Q40.05 33.55 40.1 34.75 40.15 35.8 40.5 36.9 L41.85 37.5 43.1 38.75 Q43.8 39.4 44.9 39.05 48.95 37.8 50.2 33.15 51.35 29.1 49.95 28.15 L46.6 26.45" fill="#333333" fill-opacity="0.19607843" fill-rule="evenodd" stroke="none"/>
      <path d="M-7.8 7.65 L-9.75 7.85 -11.6 7.95 -14.65 11.75 -17.85 15.95 -24.75 23.4 -27.75 27.55 Q-29.5 30.25 -30.95 31.5 L-32.5 32.9 -32.2 33.25 -34.3 35.65 -37.2 39.05 Q-35.8 41.0 -35.45 42.95 -35.1 44.75 -35.7 46.6 -36.45 48.8 -38.25 50.3 L-41.65 54.3 -44.15 57.4 Q-46.0 59.25 -49.05 58.35 -51.8 57.4 -54.4 54.8 -56.95 52.25 -57.85 49.6 L-58.15 48.45 -58.4 46.9 -57.9 46.0 -57.75 45.6 Q-56.3 44.8 -54.9 43.6 L-54.2 43.0 -53.5 42.7 -52.1 40.9 -52.05 40.75 -50.6 38.85 Q-48.15 36.75 -45.5 35.85 -41.75 34.75 -39.05 37.0 L-38.45 35.9 -36.35 33.85 -34.15 31.75 Q-32.65 30.5 -30.35 27.4 L-26.9 22.7 Q-24.25 19.4 -18.6 13.95 -17.0 12.4 -14.5 8.25 L-12.2 4.3 Q-11.6 3.7 -10.85 3.4 L-11.0 4.25 -10.0 5.55 Q-8.75 7.0 -7.75 7.0 L-7.25 6.95 -7.5 7.35 -7.7 7.55 -7.8 7.65 M-53.2 45.1 Q-53.6 45.45 -54.75 45.9 -55.55 46.4 -55.5 47.55 -55.35 51.75 -51.35 54.25 -47.7 56.5 -46.45 55.4 L-43.9 52.65 -42.55 51.2 -42.7 50.95 -43.2 50.3 -45.0 47.9 -46.25 46.5 Q-46.6 48.05 -47.45 49.1 L-50.05 51.6 -50.95 52.15 -52.55 52.45 Q-52.55 51.35 -51.25 49.55 L-49.45 47.1 -47.5 45.4 Q-48.2 44.9 -48.8 44.6 L-50.05 44.1 -52.25 43.9 -53.2 45.1" fill="#666666" fill-opacity="0.19607843" fill-rule="evenodd" stroke="none"/>
      <path d="M-12.2 -56.1 Q-12.65 -58.25 -13.5 -59.0 -14.0 -58.5 -14.3 -57.6 L-14.5 -56.5 -14.35 -52.9 Q-14.1 -51.6 -13.15 -50.3 L-15.0 -50.25 -18.05 -50.5 -19.15 -50.6 -19.35 -52.6 -19.75 -56.3 Q-19.75 -58.0 -15.65 -59.25 -11.1 -60.65 -7.85 -58.0 -6.95 -57.25 -7.1 -56.3 L-7.5 -54.6 -7.25 -53.1 Q-8.0 -52.2 -8.85 -51.6 -9.85 -50.9 -11.5 -50.55 L-11.5 -53.1 -12.2 -56.1 M46.6 26.45 L49.95 28.15 Q51.35 29.1 50.2 33.15 48.95 37.8 44.9 39.05 43.8 39.4 43.1 38.75 L41.85 37.5 40.5 36.9 Q40.15 35.8 40.1 34.75 40.05 33.55 40.65 31.95 L42.8 33.35 45.65 34.35 Q47.7 35.2 48.85 34.9 48.65 34.15 48.05 33.45 L47.25 32.7 Q44.9 31.15 44.2 30.85 L41.35 30.4 42.3 28.85 44.15 26.4 44.85 25.6 46.6 26.45 M-53.2 45.1 L-52.25 43.9 -50.05 44.1 -48.8 44.6 Q-48.2 44.9 -47.5 45.4 L-49.45 47.1 -51.25 49.55 Q-52.55 51.35 -52.55 52.45 L-50.95 52.15 -50.05 51.6 -47.45 49.1 Q-46.6 48.05 -46.25 46.5 L-45.0 47.9 -43.2 50.3 -42.7 50.95 -42.55 51.2 -43.9 52.65 -46.45 55.4 Q-47.7 56.5 -51.35 54.25 -55.35 51.75 -55.5 47.55 -55.55 46.4 -54.75 45.9 -53.6 45.45 -53.2 45.1" fill="#cccccc" fill-opacity="0.19607843" fill-rule="evenodd" stroke="none"/>
    </g>
    <g id="shape7" transform="matrix(1.0, 0.0, 0.0, 1.0, 58.4, 61.75)">
      <path d="M-10.85 3.4 Q-10.55 2.25 -9.3 2.1 L-9.1 1.75 Q-9.1 0.0 -9.7 -3.05 -10.4 -6.4 -10.5 -8.35 L-11.0 -18.5 Q-11.1 -19.75 -11.95 -23.55 -12.65 -26.7 -12.5 -28.6 -12.4 -29.75 -12.45 -30.95 L-12.85 -34.15 -13.5 -38.55 Q-18.25 -39.05 -20.1 -42.6 -21.15 -44.65 -21.0 -47.0 -21.0 -48.7 -21.5 -52.25 L-22.0 -56.15 Q-22.0 -58.8 -19.2 -60.35 -16.7 -61.7 -13.0 -61.75 -9.4 -61.8 -6.8 -60.6 L-5.45 -59.75 -5.1 -58.75 -4.9 -58.35 Q-5.25 -56.75 -5.25 -54.9 L-5.25 -54.0 -5.5 -53.25 -5.0 -50.9 Q-4.5 -49.15 -4.5 -48.55 -4.5 -45.3 -5.6 -42.75 -7.3 -39.0 -11.0 -38.55 -10.6 -37.95 -10.5 -37.1 L-10.45 -34.1 Q-10.4 -32.25 -10.5 -31.1 L-10.5 -30.95 Q-10.6 -29.0 -9.95 -25.3 L-9.0 -19.5 Q-8.5 -15.35 -8.5 -7.5 -8.5 -5.25 -7.25 -0.55 L-6.45 2.2 -7.7 2.0 -8.4 2.1 -8.25 2.1 Q-5.5 2.4 -5.5 5.15 -5.5 5.8 -6.0 6.3 -6.5 6.85 -7.25 6.95 L-7.75 7.0 Q-8.75 7.0 -10.0 5.55 L-11.0 4.25 -10.85 3.4 M24.65 20.55 L24.7 20.5 27.65 21.9 29.0 22.5 Q30.85 23.3 31.7 23.8 L30.3 25.85 30.2 25.85 29.0 25.6 28.8 25.5 26.25 23.9 23.8 22.25 23.65 22.15 24.65 20.55 M-12.2 -56.1 L-11.5 -53.1 -11.5 -50.55 Q-9.85 -50.9 -8.85 -51.6 -8.0 -52.2 -7.25 -53.1 L-7.5 -54.6 -7.1 -56.3 Q-6.95 -57.25 -7.85 -58.0 -11.1 -60.65 -15.65 -59.25 -19.75 -58.0 -19.75 -56.3 L-19.35 -52.6 -19.15 -50.6 -18.05 -50.5 -15.0 -50.25 -13.15 -50.3 Q-14.1 -51.6 -14.35 -52.9 L-14.5 -56.5 -14.3 -57.6 Q-14.0 -58.5 -13.5 -59.0 -12.65 -58.25 -12.2 -56.1 M-19.0 -48.4 L-19.0 -47.85 Q-19.0 -45.15 -18.2 -43.7 -16.65 -40.75 -12.0 -40.75 -7.85 -40.75 -7.0 -45.9 -6.65 -48.15 -6.9 -50.55 L-8.75 -49.4 Q-11.6 -48.0 -15.25 -48.0 L-19.0 -48.4" fill="#000000" fill-opacity="0.5882353" fill-rule="evenodd" stroke="none"/>
      <path d="M-6.45 2.2 L-6.2 2.35 Q-5.8 2.6 -5.45 4.25 L-4.9 6.0 Q-3.4 6.95 -0.5 8.05 2.65 9.25 4.35 10.2 L13.25 15.15 Q14.35 15.75 18.0 17.05 21.05 18.1 22.6 19.2 23.55 19.95 24.65 20.55 L23.65 22.15 23.8 22.25 26.25 23.9 28.8 25.5 29.0 25.6 28.65 25.45 26.15 23.9 23.6 22.25 Q22.05 21.1 18.45 19.6 L13.05 17.4 Q9.25 15.6 2.6 11.4 0.7 10.25 -3.95 8.8 L-7.8 7.65 -7.7 7.55 -7.5 7.35 -7.25 6.95 Q-6.5 6.85 -6.0 6.3 -5.5 5.8 -5.5 5.15 -5.5 2.4 -8.25 2.1 L-8.4 2.1 -7.7 2.0 -6.45 2.2 M29.0 22.5 L31.5 23.65 Q34.45 19.9 38.4 20.25 40.75 20.45 42.65 21.85 L47.35 24.15 50.95 25.85 Q52.35 26.75 52.8 28.4 53.2 29.4 53.1 30.8 52.8 33.65 50.85 36.8 48.95 39.8 46.55 41.35 L45.05 42.05 44.05 41.75 43.6 41.75 Q42.45 40.55 40.9 39.55 L40.15 39.05 39.65 38.45 Q39.15 38.1 37.6 37.65 L37.4 37.6 35.2 36.75 Q32.65 35.15 31.15 33.0 L30.85 32.6 Q28.65 29.15 30.2 25.85 L30.3 25.85 31.7 23.8 Q30.85 23.3 29.0 22.5 M-19.0 -48.4 L-15.25 -48.0 Q-11.6 -48.0 -8.75 -49.4 L-6.9 -50.55 Q-6.65 -48.15 -7.0 -45.9 -7.85 -40.75 -12.0 -40.75 -16.65 -40.75 -18.2 -43.7 -19.0 -45.15 -19.0 -47.85 L-19.0 -48.4 M46.6 26.45 L44.85 25.6 44.15 26.4 42.3 28.85 41.35 30.4 44.2 30.85 Q44.9 31.15 47.25 32.7 L48.05 33.45 Q48.65 34.15 48.85 34.9 47.7 35.2 45.65 34.35 L42.8 33.35 40.65 31.95 Q40.05 33.55 40.1 34.75 40.15 35.8 40.5 36.9 L41.85 37.5 43.1 38.75 Q43.8 39.4 44.9 39.05 48.95 37.8 50.2 33.15 51.35 29.1 49.95 28.15 L46.6 26.45" fill="#333333" fill-opacity="0.5882353" fill-rule="evenodd" stroke="none"/>
      <path d="M-7.8 7.65 L-9.75 7.85 -11.6 7.95 -14.65 11.75 -17.85 15.95 -24.75 23.4 -27.75 27.55 Q-29.5 30.25 -30.95 31.5 L-32.5 32.9 -32.2 33.25 -34.3 35.65 -37.2 39.05 Q-35.8 41.0 -35.45 42.95 -35.1 44.75 -35.7 46.6 -36.45 48.8 -38.25 50.3 L-41.65 54.3 -44.15 57.4 Q-46.0 59.25 -49.05 58.35 -51.8 57.4 -54.4 54.8 -56.95 52.25 -57.85 49.6 L-58.15 48.45 -58.4 46.9 -57.9 46.0 -57.75 45.6 Q-56.3 44.8 -54.9 43.6 L-54.2 43.0 -53.5 42.7 -52.1 40.9 -52.05 40.75 -50.6 38.85 Q-48.15 36.75 -45.5 35.85 -41.75 34.75 -39.05 37.0 L-38.45 35.9 -36.35 33.85 -34.15 31.75 Q-32.65 30.5 -30.35 27.4 L-26.9 22.7 Q-24.25 19.4 -18.6 13.95 -17.0 12.4 -14.5 8.25 L-12.2 4.3 Q-11.6 3.7 -10.85 3.4 L-11.0 4.25 -10.0 5.55 Q-8.75 7.0 -7.75 7.0 L-7.25 6.95 -7.5 7.35 -7.7 7.55 -7.8 7.65 M-53.2 45.1 Q-53.6 45.45 -54.75 45.9 -55.55 46.4 -55.5 47.55 -55.35 51.75 -51.35 54.25 -47.7 56.5 -46.45 55.4 L-43.9 52.65 -42.55 51.2 -42.7 50.95 -43.2 50.3 -45.0 47.9 -46.25 46.5 Q-46.6 48.05 -47.45 49.1 L-50.05 51.6 -50.95 52.15 -52.55 52.45 Q-52.55 51.35 -51.25 49.55 L-49.45 47.1 -47.5 45.4 Q-48.2 44.9 -48.8 44.6 L-50.05 44.1 -52.25 43.9 -53.2 45.1" fill="#666666" fill-opacity="0.5882353" fill-rule="evenodd" stroke="none"/>
      <path d="M-12.2 -56.1 Q-12.65 -58.25 -13.5 -59.0 -14.0 -58.5 -14.3 -57.6 L-14.5 -56.5 -14.35 -52.9 Q-14.1 -51.6 -13.15 -50.3 L-15.0 -50.25 -18.05 -50.5 -19.15 -50.6 -19.35 -52.6 -19.75 -56.3 Q-19.75 -58.0 -15.65 -59.25 -11.1 -60.65 -7.85 -58.0 -6.95 -57.25 -7.1 -56.3 L-7.5 -54.6 -7.25 -53.1 Q-8.0 -52.2 -8.85 -51.6 -9.85 -50.9 -11.5 -50.55 L-11.5 -53.1 -12.2 -56.1 M46.6 26.45 L49.95 28.15 Q51.35 29.1 50.2 33.15 48.95 37.8 44.9 39.05 43.8 39.4 43.1 38.75 L41.85 37.5 40.5 36.9 Q40.15 35.8 40.1 34.75 40.05 33.55 40.65 31.95 L42.8 33.35 45.65 34.35 Q47.7 35.2 48.85 34.9 48.65 34.15 48.05 33.45 L47.25 32.7 Q44.9 31.15 44.2 30.85 L41.35 30.4 42.3 28.85 44.15 26.4 44.85 25.6 46.6 26.45 M-53.2 45.1 L-52.25 43.9 -50.05 44.1 -48.8 44.6 Q-48.2 44.9 -47.5 45.4 L-49.45 47.1 -51.25 49.55 Q-52.55 51.35 -52.55 52.45 L-50.95 52.15 -50.05 51.6 -47.45 49.1 Q-46.6 48.05 -46.25 46.5 L-45.0 47.9 -43.2 50.3 -42.7 50.95 -42.55 51.2 -43.9 52.65 -46.45 55.4 Q-47.7 56.5 -51.35 54.25 -55.35 51.75 -55.5 47.55 -55.55 46.4 -54.75 45.9 -53.6 45.45 -53.2 45.1" fill="#cccccc" fill-opacity="0.5882353" fill-rule="evenodd" stroke="none"/>
    </g>
    <g id="shape8" transform="matrix(1.0, 0.0, 0.0, 1.0, 58.4, 61.75)">
      <path d="M-10.85 3.4 Q-10.55 2.25 -9.3 2.1 L-9.1 1.75 Q-9.1 0.0 -9.7 -3.05 -10.4 -6.4 -10.5 -8.35 L-11.0 -18.5 Q-11.1 -19.75 -11.95 -23.55 -12.65 -26.7 -12.5 -28.6 -12.4 -29.75 -12.45 -30.95 L-12.85 -34.15 -13.5 -38.55 Q-18.25 -39.05 -20.1 -42.6 -21.15 -44.65 -21.0 -47.0 -21.0 -48.7 -21.5 -52.25 L-22.0 -56.15 Q-22.0 -58.8 -19.2 -60.35 -16.7 -61.7 -13.0 -61.75 -9.4 -61.8 -6.8 -60.6 L-5.45 -59.75 -5.1 -58.75 -4.9 -58.35 Q-5.25 -56.75 -5.25 -54.9 L-5.25 -54.0 -5.5 -53.25 -5.0 -50.9 Q-4.5 -49.15 -4.5 -48.55 -4.5 -45.3 -5.6 -42.75 -7.3 -39.0 -11.0 -38.55 -10.6 -37.95 -10.5 -37.1 L-10.45 -34.1 Q-10.4 -32.25 -10.5 -31.1 L-10.5 -30.95 Q-10.6 -29.0 -9.95 -25.3 L-9.0 -19.5 Q-8.5 -15.35 -8.5 -7.5 -8.5 -5.25 -7.25 -0.55 L-6.45 2.2 -7.7 2.0 -8.4 2.1 -8.25 2.1 Q-5.5 2.4 -5.5 5.15 -5.5 5.8 -6.0 6.3 -6.5 6.85 -7.25 6.95 L-7.75 7.0 Q-8.75 7.0 -10.0 5.55 L-11.0 4.25 -10.85 3.4 M24.65 20.55 L24.7 20.5 27.65 21.9 29.0 22.5 Q30.85 23.3 31.7 23.8 L30.3 25.85 30.2 25.85 29.0 25.6 28.8 25.5 26.25 23.9 23.8 22.25 23.65 22.15 24.65 20.55 M-12.2 -56.1 L-11.5 -53.1 -11.5 -50.55 Q-9.85 -50.9 -8.85 -51.6 -8.0 -52.2 -7.25 -53.1 L-7.5 -54.6 -7.1 -56.3 Q-6.95 -57.25 -7.85 -58.0 -11.1 -60.65 -15.65 -59.25 -19.75 -58.0 -19.75 -56.3 L-19.35 -52.6 -19.15 -50.6 -18.05 -50.5 -15.0 -50.25 -13.15 -50.3 Q-14.1 -51.6 -14.35 -52.9 L-14.5 -56.5 -14.3 -57.6 Q-14.0 -58.5 -13.5 -59.0 -12.65 -58.25 -12.2 -56.1 M-19.0 -48.4 L-19.0 -47.85 Q-19.0 -45.15 -18.2 -43.7 -16.65 -40.75 -12.0 -40.75 -7.85 -40.75 -7.0 -45.9 -6.65 -48.15 -6.9 -50.55 L-8.75 -49.4 Q-11.6 -48.0 -15.25 -48.0 L-19.0 -48.4" fill="#000000" fill-rule="evenodd" stroke="none"/>
      <path d="M-6.45 2.2 L-6.2 2.35 Q-5.8 2.6 -5.45 4.25 L-4.9 6.0 Q-3.4 6.95 -0.5 8.05 2.65 9.25 4.35 10.2 L13.25 15.15 Q14.35 15.75 18.0 17.05 21.05 18.1 22.6 19.2 23.55 19.95 24.65 20.55 L23.65 22.15 23.8 22.25 26.25 23.9 28.8 25.5 29.0 25.6 28.65 25.45 26.15 23.9 23.6 22.25 Q22.05 21.1 18.45 19.6 L13.05 17.4 Q9.25 15.6 2.6 11.4 0.7 10.25 -3.95 8.8 L-7.8 7.65 -7.7 7.55 -7.5 7.35 -7.25 6.95 Q-6.5 6.85 -6.0 6.3 -5.5 5.8 -5.5 5.15 -5.5 2.4 -8.25 2.1 L-8.4 2.1 -7.7 2.0 -6.45 2.2 M29.0 22.5 L31.5 23.65 Q34.45 19.9 38.4 20.25 40.75 20.45 42.65 21.85 L47.35 24.15 50.95 25.85 Q52.35 26.75 52.8 28.4 53.2 29.4 53.1 30.8 52.8 33.65 50.85 36.8 48.95 39.8 46.55 41.35 L45.05 42.05 44.05 41.75 43.6 41.75 Q42.45 40.55 40.9 39.55 L40.15 39.05 39.65 38.45 Q39.15 38.1 37.6 37.65 L37.4 37.6 35.2 36.75 Q32.65 35.15 31.15 33.0 L30.85 32.6 Q28.65 29.15 30.2 25.85 L30.3 25.85 31.7 23.8 Q30.85 23.3 29.0 22.5 M-19.0 -48.4 L-15.25 -48.0 Q-11.6 -48.0 -8.75 -49.4 L-6.9 -50.55 Q-6.65 -48.15 -7.0 -45.9 -7.85 -40.75 -12.0 -40.75 -16.65 -40.75 -18.2 -43.7 -19.0 -45.15 -19.0 -47.85 L-19.0 -48.4 M46.6 26.45 L44.85 25.6 44.15 26.4 42.3 28.85 41.35 30.4 44.2 30.85 Q44.9 31.15 47.25 32.7 L48.05 33.45 Q48.65 34.15 48.85 34.9 47.7 35.2 45.65 34.35 L42.8 33.35 40.65 31.95 Q40.05 33.55 40.1 34.75 40.15 35.8 40.5 36.9 L41.85 37.5 43.1 38.75 Q43.8 39.4 44.9 39.05 48.95 37.8 50.2 33.15 51.35 29.1 49.95 28.15 L46.6 26.45" fill="#333333" fill-rule="evenodd" stroke="none"/>
      <path d="M-7.8 7.65 L-9.75 7.85 -11.6 7.95 -14.65 11.75 -17.85 15.95 -24.75 23.4 -27.75 27.55 Q-29.5 30.25 -30.95 31.5 L-32.5 32.9 -32.2 33.25 -34.3 35.65 -37.2 39.05 Q-35.8 41.0 -35.45 42.95 -35.1 44.75 -35.7 46.6 -36.45 48.8 -38.25 50.3 L-41.65 54.3 -44.15 57.4 Q-46.0 59.25 -49.05 58.35 -51.8 57.4 -54.4 54.8 -56.95 52.25 -57.85 49.6 L-58.15 48.45 -58.4 46.9 -57.9 46.0 -57.75 45.6 Q-56.3 44.8 -54.9 43.6 L-54.2 43.0 -53.5 42.7 -52.1 40.9 -52.05 40.75 -50.6 38.85 Q-48.15 36.75 -45.5 35.85 -41.75 34.75 -39.05 37.0 L-38.45 35.9 -36.35 33.85 -34.15 31.75 Q-32.65 30.5 -30.35 27.4 L-26.9 22.7 Q-24.25 19.4 -18.6 13.95 -17.0 12.4 -14.5 8.25 L-12.2 4.3 Q-11.6 3.7 -10.85 3.4 L-11.0 4.25 -10.0 5.55 Q-8.75 7.0 -7.75 7.0 L-7.25 6.95 -7.5 7.35 -7.7 7.55 -7.8 7.65 M-53.2 45.1 Q-53.6 45.45 -54.75 45.9 -55.55 46.4 -55.5 47.55 -55.35 51.75 -51.35 54.25 -47.7 56.5 -46.45 55.4 L-43.9 52.65 -42.55 51.2 -42.7 50.95 -43.2 50.3 -45.0 47.9 -46.25 46.5 Q-46.6 48.05 -47.45 49.1 L-50.05 51.6 -50.95 52.15 -52.55 52.45 Q-52.55 51.35 -51.25 49.55 L-49.45 47.1 -47.5 45.4 Q-48.2 44.9 -48.8 44.6 L-50.05 44.1 -52.25 43.9 -53.2 45.1" fill="#666666" fill-rule="evenodd" stroke="none"/>
      <path d="M-12.2 -56.1 Q-12.65 -58.25 -13.5 -59.0 -14.0 -58.5 -14.3 -57.6 L-14.5 -56.5 -14.35 -52.9 Q-14.1 -51.6 -13.15 -50.3 L-15.0 -50.25 -18.05 -50.5 -19.15 -50.6 -19.35 -52.6 -19.75 -56.3 Q-19.75 -58.0 -15.65 -59.25 -11.1 -60.65 -7.85 -58.0 -6.95 -57.25 -7.1 -56.3 L-7.5 -54.6 -7.25 -53.1 Q-8.0 -52.2 -8.85 -51.6 -9.85 -50.9 -11.5 -50.55 L-11.5 -53.1 -12.2 -56.1 M46.6 26.45 L49.95 28.15 Q51.35 29.1 50.2 33.15 48.95 37.8 44.9 39.05 43.8 39.4 43.1 38.75 L41.85 37.5 40.5 36.9 Q40.15 35.8 40.1 34.75 40.05 33.55 40.65 31.95 L42.8 33.35 45.65 34.35 Q47.7 35.2 48.85 34.9 48.65 34.15 48.05 33.45 L47.25 32.7 Q44.9 31.15 44.2 30.85 L41.35 30.4 42.3 28.85 44.15 26.4 44.85 25.6 46.6 26.45 M-53.2 45.1 L-52.25 43.9 -50.05 44.1 -48.8 44.6 Q-48.2 44.9 -47.5 45.4 L-49.45 47.1 -51.25 49.55 Q-52.55 51.35 -52.55 52.45 L-50.95 52.15 -50.05 51.6 -47.45 49.1 Q-46.6 48.05 -46.25 46.5 L-45.0 47.9 -43.2 50.3 -42.7 50.95 -42.55 51.2 -43.9 52.65 -46.45 55.4 Q-47.7 56.5 -51.35 54.25 -55.35 51.75 -55.5 47.55 -55.55 46.4 -54.75 45.9 -53.6 45.45 -53.2 45.1" fill="#cccccc" fill-rule="evenodd" stroke="none"/>
    </g>
    <g id="shape9" transform="matrix(1.0, 0.0, 0.0, 1.0, 67.25, 21.75)">
      <path d="M10.3 -14.4 L10.9 -16.55 11.1 -17.25 10.4 -16.65 Q7.65 -14.25 6.75 -12.95 L4.5 -9.4 Q3.3 -6.9 4.25 -5.45 L4.25 -0.6 4.55 -0.5 Q4.65 0.3 4.25 1.6 4.3 2.0 5.0 2.25 L7.4 2.5 9.25 2.35 10.05 1.55 Q9.2 0.45 8.85 -1.6 L8.75 -4.25 Q8.75 -7.5 9.95 -13.1 L10.3 -14.4 M12.6 -15.5 Q11.45 -13.0 11.25 -11.95 10.95 -10.65 10.85 -8.15 L10.95 -8.15 Q12.05 -7.8 13.25 -6.45 14.85 -4.95 17.8 -5.4 19.35 -5.65 20.75 -4.25 L20.75 -8.7 Q21.6 -9.65 22.05 -11.7 22.55 -14.05 23.1 -15.0 25.25 -18.8 35.25 -19.5 45.5 -24.1 55.2 -14.7 59.0 -11.05 61.45 -6.3 63.75 -1.85 63.75 1.3 63.75 4.85 61.75 8.05 60.5 10.05 58.75 11.2 L60.0 11.8 Q60.65 11.1 62.05 10.3 63.85 9.25 65.0 9.25 66.55 9.25 67.05 11.3 L67.25 13.35 Q67.25 16.45 65.05 17.35 L65.5 18.25 65.8 18.25 66.05 18.4 Q66.25 18.5 66.25 19.25 L66.1 19.95 Q65.9 19.95 65.8 20.25 L64.95 20.25 64.75 20.25 64.5 20.25 46.8 20.85 Q43.5 21.7 40.75 21.75 L-66.35 21.75 -66.55 21.6 -66.75 20.9 -67.2 20.15 -67.25 19.25 Q-67.25 16.5 -65.55 14.9 L-60.1 10.55 Q-59.35 9.9 -57.75 9.25 -56.7 8.8 -56.7 8.15 L-56.75 7.05 Q-56.3 6.15 -54.6 4.9 L-51.85 3.0 Q-48.35 0.55 -44.7 2.4 L-44.65 2.45 Q-42.55 1.1 -41.1 0.45 L-40.75 -0.45 -40.3 -2.7 Q-40.0 -3.85 -38.5 -4.95 -36.3 -6.6 -27.75 -6.7 L-26.45 -8.1 Q-24.05 -9.9 -20.05 -7.15 -19.55 -10.3 -17.95 -13.2 -15.2 -18.05 -10.25 -20.25 L-9.7 -20.05 -9.75 -18.6 -9.4 -15.5 Q-10.55 -13.0 -10.75 -11.95 -11.05 -10.6 -11.15 -8.1 L-10.4 -8.45 -8.85 -8.85 Q-8.3 -11.65 -6.95 -14.3 -4.2 -19.4 0.75 -21.75 L1.3 -21.55 1.25 -20.0 1.6 -16.7 Q0.45 -14.05 0.25 -12.95 L-0.15 -9.4 1.0 -9.45 2.45 -9.3 Q3.0 -11.3 4.05 -13.2 6.8 -18.05 11.75 -20.25 L12.3 -20.05 12.25 -18.6 12.6 -15.5 M2.0 -0.35 L1.9 -0.9 1.8 -2.95 1.75 -3.0 1.75 -3.75 1.65 -5.75 1.8 -5.65 2.0 -7.25 0.4 -7.55 -0.2 -7.75 -0.2 -7.6 -0.25 -5.0 Q-0.25 -3.35 0.45 -0.25 L0.75 1.05 0.75 1.1 0.75 1.55 0.6 2.4 Q0.3 3.15 -0.5 3.75 -1.75 4.75 -3.25 4.75 -7.0 4.75 -7.95 3.4 L-8.2 2.3 -8.25 1.8 Q-8.9 0.5 -9.1 -1.25 L-9.1 -1.3 -9.2 -3.4 -9.25 -3.45 -9.25 -4.25 -9.35 -6.4 -9.2 -6.25 -9.15 -6.75 -9.45 -6.55 -11.25 -5.75 -11.25 -4.45 -11.25 -4.4 -11.25 -4.25 -10.95 -1.95 -10.25 1.25 -10.25 1.3 -10.25 1.75 Q-10.25 2.3 -10.55 2.85 L-11.5 3.8 Q-12.75 4.75 -14.25 4.75 L-16.25 4.65 -16.55 4.6 -16.25 4.75 Q-18.05 5.8 -19.25 5.65 -20.75 5.5 -22.75 6.25 L-23.5 6.0 -23.75 5.1 -23.75 5.0 Q-23.75 3.4 -21.85 3.2 -20.6 3.1 -18.75 3.7 L-18.95 3.5 Q-19.2 3.15 -19.25 1.95 -19.9 0.75 -20.1 -0.9 L-20.15 -1.45 -20.2 -2.95 -20.25 -3.0 -20.25 -3.75 -20.35 -5.75 -20.2 -5.65 -20.1 -6.6 Q-21.05 -6.0 -22.5 -6.2 -24.5 -6.5 -25.0 -6.2 L-25.45 -4.5 Q-25.85 -3.55 -27.25 -3.25 L-28.0 -3.6 -28.1 -3.75 -30.4 -3.85 -35.2 -4.0 -36.35 -3.45 Q-37.55 -2.85 -37.75 -2.45 L-38.45 -0.5 -38.6 0.15 -38.25 0.75 -39.4 1.95 Q-40.3 3.0 -41.65 3.5 L-41.7 3.5 -42.6 4.95 Q-43.15 5.75 -44.0 5.75 -44.9 5.75 -45.55 3.85 -49.2 3.85 -50.25 4.55 L-52.45 5.95 Q-53.95 7.0 -54.35 7.75 L-54.5 9.7 Q-54.6 11.05 -55.75 11.25 -58.15 11.65 -61.5 14.3 -63.15 15.65 -64.3 17.55 L-65.65 20.05 -61.45 19.5 Q-54.0 18.9 -35.95 19.0 L8.65 19.5 31.3 18.9 57.35 18.35 57.4 18.35 62.4 18.3 62.3 17.75 Q59.9 17.55 58.75 15.3 L58.1 13.45 57.75 12.8 57.2 12.8 Q54.6 12.85 54.0 13.55 53.4 14.25 52.5 14.25 L50.75 14.0 Q50.05 14.0 50.3 13.25 L50.55 12.05 50.7 11.65 50.6 11.7 Q49.9 11.7 46.55 10.5 L45.8 7.75 45.75 7.75 45.5 6.8 44.3 6.8 Q40.45 6.95 38.3 9.4 35.7 12.25 33.25 12.25 30.95 12.25 30.7 11.75 30.8 11.0 30.25 10.5 L24.55 9.5 24.25 7.75 24.05 5.75 Q23.75 5.75 23.75 5.3 19.45 6.35 17.2 5.35 16.0 4.75 15.8 4.1 L14.75 3.4 Q13.85 2.5 12.9 2.5 12.0 2.5 10.65 3.9 9.3 5.25 5.5 5.25 3.7 5.25 3.25 4.55 L3.75 4.1 3.05 3.5 2.85 2.85 2.85 2.8 2.8 2.5 2.75 1.95 Q2.2 0.95 2.0 -0.35 M19.75 -1.5 L19.75 -2.7 Q12.9 -3.0 11.55 -4.65 L10.8 -6.0 10.75 -4.45 Q10.75 -2.85 11.5 0.15 13.75 -1.15 15.55 0.4 L17.05 1.85 17.95 0.95 20.0 -1.3 20.1 -1.4 19.75 -1.5 M26.3 -10.0 L28.1 -9.75 Q29.85 -9.25 30.8 -8.5 32.25 -7.5 32.6 -6.25 L32.75 -4.0 Q32.75 -1.85 32.0 -0.25 30.55 2.75 27.0 2.75 24.9 2.75 23.8 1.95 L23.1 1.15 23.0 0.95 22.75 -1.0 22.85 -1.55 23.85 -5.55 Q24.95 -9.5 25.25 -9.7 L25.3 -9.7 Q25.7 -9.95 26.3 -10.0 M22.9 3.5 L24.8 3.5 Q26.05 4.3 26.2 5.75 L26.3 7.0 26.25 7.55 26.9 7.55 26.75 7.0 Q26.75 5.0 29.0 4.65 31.25 4.3 31.25 6.4 31.25 7.15 30.75 7.75 L30.7 7.8 Q31.65 8.05 31.95 8.6 L32.35 9.55 Q32.65 10.0 33.55 10.0 35.15 10.0 37.3 7.4 37.95 6.6 38.75 6.05 35.65 5.65 34.05 4.5 32.75 3.55 32.75 2.4 32.75 -3.65 40.0 -3.95 42.85 -4.05 45.0 -2.9 47.25 -1.65 47.25 0.35 47.25 2.7 46.55 4.0 L45.75 5.1 Q47.25 5.55 47.9 6.65 48.5 7.6 48.25 8.3 51.15 8.15 52.1 9.55 L52.3 10.15 52.5 10.75 52.55 10.85 55.15 9.65 Q58.95 8.05 59.55 7.3 61.55 5.0 61.75 4.15 L61.75 1.75 Q61.75 -3.7 57.25 -8.5 56.5 -11.25 54.5 -13.35 50.65 -17.5 41.65 -17.5 30.3 -17.5 27.5 -15.95 24.25 -14.2 22.75 -6.25 L22.65 -3.25 22.5 -1.6 22.05 -0.25 22.05 -0.2 22.0 -0.15 20.3 1.9 20.2 2.05 19.0 3.3 19.3 3.3 22.9 3.5 M38.85 -0.95 Q38.25 -1.85 37.5 -1.2 L38.85 1.45 Q37.25 2.75 37.25 3.65 L37.3 4.15 37.75 4.2 39.65 2.6 41.0 3.95 41.5 3.45 40.4 1.95 40.5 1.85 Q42.75 -0.1 42.75 -0.55 L42.6 -0.95 42.25 -1.05 39.75 0.8 39.6 0.45 38.85 -0.95 M28.25 -3.9 L28.1 -4.25 27.35 -5.65 Q26.75 -6.55 26.0 -5.9 26.45 -4.65 27.35 -3.25 25.75 -1.95 25.75 -1.05 L25.8 -0.55 26.25 -0.5 28.15 -2.1 29.5 -0.75 30.0 -1.25 28.9 -2.75 29.0 -2.85 Q31.25 -4.8 31.25 -5.25 L31.1 -5.65 30.75 -5.75 28.25 -3.9 M61.05 14.85 Q61.2 15.55 62.0 15.55 64.8 15.55 65.2 13.95 65.45 12.85 64.75 11.55 63.4 11.8 62.45 12.75 L61.0 13.8 61.05 14.85 M1.75 10.25 Q3.25 11.45 3.25 13.05 L3.1 15.0 Q2.7 15.75 1.0 15.75 L-1.9 15.35 -7.95 14.75 -8.1 14.5 -8.25 13.5 Q-8.25 12.9 -6.85 10.6 -5.3 8.0 -4.25 7.75 L0.5 8.2 0.75 9.0 Q1.0 9.65 1.75 10.25 M8.8 11.0 L14.25 12.5 Q13.25 9.5 12.55 9.2 L9.3 9.5 8.8 11.0 M7.8 7.9 Q9.25 6.8 11.25 7.05 16.25 7.55 16.25 12.5 L16.0 14.25 Q15.65 14.75 14.0 14.75 10.8 14.75 8.25 13.25 6.25 12.05 6.25 11.3 6.25 9.05 7.8 7.9 M-34.2 4.65 L-33.15 4.85 Q-31.85 5.55 -30.0 8.75 -29.75 9.05 -29.75 9.8 L-28.9 10.1 Q-27.9 10.35 -27.7 10.5 -27.25 10.75 -27.25 12.1 -27.25 14.15 -28.95 15.75 -30.55 17.25 -32.5 17.25 L-35.95 16.9 -38.95 16.5 -49.75 15.75 -50.6 15.0 -50.75 13.75 -50.75 13.3 -50.5 11.85 -50.45 11.8 Q-50.1 10.95 -49.1 10.5 L-47.85 10.0 -44.05 9.5 -41.05 9.05 Q-38.5 8.35 -36.95 6.5 L-36.35 5.85 Q-35.25 4.75 -34.25 4.65 L-34.2 4.65 M-5.45 2.25 L-3.6 2.35 Q-1.1 2.35 -0.9 1.7 L-0.85 1.5 Q-1.8 0.35 -2.15 -2.0 L-2.25 -4.8 Q-2.25 -8.25 -1.05 -14.15 L-0.5 -16.5 0.1 -18.55 -0.6 -17.95 -4.25 -14.0 -6.5 -10.25 Q-7.7 -7.6 -6.75 -6.05 L-6.75 -0.9 -6.45 -0.8 Q-6.35 0.05 -6.75 1.4 -6.65 2.0 -5.45 2.25 M-11.15 -16.55 L-10.9 -17.25 -11.6 -16.65 Q-14.35 -14.25 -15.25 -12.95 L-17.5 -9.4 Q-18.7 -6.9 -17.75 -5.45 L-17.75 -0.6 -17.45 -0.5 Q-17.35 0.3 -17.75 1.6 L-17.75 1.65 -17.6 1.9 Q-17.35 2.2 -16.6 2.35 L-14.6 2.5 Q-12.1 2.5 -11.9 1.85 L-11.85 1.7 Q-12.8 0.6 -13.15 -1.6 L-13.25 -4.25 Q-13.25 -7.5 -12.05 -13.1 L-11.15 -16.55 M-5.25 12.6 L-1.45 13.0 1.25 13.5 Q-1.25 10.5 -1.75 10.25 L-4.65 10.35 Q-5.0 10.85 -5.25 12.5 L-5.45 12.55 -5.25 12.6 M-29.45 12.5 L-29.25 12.3 -29.35 12.3 Q-31.3 11.85 -32.7 8.95 L-33.0 8.45 -33.2 8.25 -34.55 8.0 -34.6 8.0 -35.75 8.8 Q-37.35 11.3 -39.25 11.65 -40.4 11.85 -42.6 11.15 L-42.75 11.1 Q-45.85 11.7 -48.3 13.05 L-48.75 13.8 -47.8 13.85 -46.9 13.9 -46.85 13.9 -37.25 14.55 -32.35 15.0 Q-31.1 15.0 -30.25 13.85 L-29.45 12.5" fill="#2b2419" fill-rule="evenodd" stroke="none"/>
      <path d="M0.4 -7.55 L2.0 -7.25 1.8 -5.65 1.65 -5.75 1.75 -3.75 1.75 -3.0 1.8 -2.95 1.9 -0.9 2.0 -0.35 1.0 -0.25 0.45 -0.25 Q-0.25 -3.35 -0.25 -5.0 L-0.2 -7.6 0.4 -7.55 M2.8 2.5 L2.85 2.8 2.85 2.85 3.05 3.5 3.75 4.1 3.25 4.55 Q3.7 5.25 5.5 5.25 9.3 5.25 10.65 3.9 12.0 2.5 12.9 2.5 13.85 2.5 14.75 3.4 L15.8 4.1 Q16.0 4.75 17.2 5.35 19.45 6.35 23.75 5.3 23.75 5.75 24.05 5.75 L24.25 7.75 24.55 9.5 30.25 10.5 Q30.8 11.0 30.7 11.75 30.95 12.25 33.25 12.25 35.7 12.25 38.3 9.4 40.45 6.95 44.3 6.8 L45.75 7.75 45.8 7.75 46.55 10.5 Q49.9 11.7 50.6 11.7 L50.55 12.05 50.3 13.25 Q50.05 14.0 50.75 14.0 L52.5 14.25 Q53.4 14.25 54.0 13.55 54.6 12.85 57.2 12.8 L58.1 13.45 58.75 15.3 Q59.9 17.55 62.3 17.75 L62.4 18.3 57.4 18.35 57.35 18.35 Q53.2 16.25 49.75 16.25 47.85 16.25 47.45 15.25 47.05 14.25 46.0 14.25 44.35 14.25 43.9 12.9 43.75 12.5 43.75 11.3 L43.5 10.75 Q42.1 10.65 41.35 11.75 40.5 12.95 40.0 13.05 L32.75 14.75 29.8 14.3 Q27.35 13.8 26.5 13.25 L25.3 13.0 23.75 12.5 Q22.75 11.95 22.75 9.8 20.3 9.8 19.6 9.1 L19.25 8.0 Q19.1 7.65 18.75 7.55 L16.25 7.25 Q15.8 7.2 15.35 6.7 14.9 6.25 14.25 6.25 L5.9 6.75 -2.5 7.25 -3.45 6.8 Q-3.8 6.3 -4.45 6.3 L-20.5 9.75 Q-27.75 9.75 -27.75 6.6 L-27.5 5.4 Q-27.3 5.15 -26.5 4.8 L-23.8 5.1 -23.75 5.1 -23.5 6.0 -22.75 6.25 Q-20.75 5.5 -19.25 5.65 -18.05 5.8 -16.25 4.75 L-16.25 4.65 -14.25 4.75 Q-12.75 4.75 -11.5 3.8 L-10.55 2.85 -8.5 2.3 -8.2 2.3 -7.95 3.4 Q-7.0 4.75 -3.25 4.75 -1.75 4.75 -0.5 3.75 0.3 3.15 0.6 2.4 L2.8 2.5 M-61.45 19.5 L-65.65 20.05 -64.3 17.55 Q-63.15 15.65 -61.5 14.3 -58.15 11.65 -55.75 11.25 -54.6 11.05 -54.5 9.7 L-54.35 7.75 Q-53.95 7.0 -52.45 5.95 L-50.25 4.55 Q-49.2 3.85 -45.55 3.85 -44.9 5.75 -44.0 5.75 -43.15 5.75 -42.6 4.95 L-41.7 3.5 -41.65 3.5 Q-40.3 3.0 -39.4 1.95 L-38.25 0.75 -38.6 0.15 -38.45 -0.5 -37.75 -2.45 Q-37.55 -2.85 -36.35 -3.45 L-35.2 -4.0 -30.4 -3.85 -28.1 -3.75 -28.0 -3.6 -27.25 -3.25 Q-25.85 -3.55 -25.45 -4.5 L-25.0 -6.2 Q-24.5 -6.5 -22.5 -6.2 -21.05 -6.0 -20.1 -6.6 L-20.2 -5.65 -20.35 -5.75 -20.25 -3.75 -20.25 -3.0 -20.2 -2.95 -20.15 -1.45 -20.15 -1.2 -21.0 -1.25 Q-23.8 -1.25 -24.4 -0.25 -25.05 0.75 -26.0 0.75 -26.6 0.75 -26.95 0.3 -27.3 -0.2 -27.95 -0.2 L-30.6 0.05 -33.95 0.5 Q-32.25 2.0 -32.25 2.75 -32.25 3.4 -34.2 4.65 L-34.25 4.65 Q-35.25 4.75 -36.35 5.85 -39.05 7.3 -43.5 9.25 -44.3 9.25 -45.3 8.55 L-46.35 7.8 Q-47.6 7.8 -50.75 9.05 L-49.1 10.5 Q-50.1 10.95 -50.45 11.8 L-50.5 11.85 -50.75 13.3 Q-51.75 13.85 -53.25 14.4 -58.95 16.5 -60.6 18.0 L-61.45 19.5 M-10.95 -1.95 L-11.25 -4.25 -11.25 -4.4 -11.25 -4.45 -11.25 -5.75 -9.45 -6.55 -9.35 -6.4 -9.25 -4.25 -9.25 -3.45 -9.2 -3.4 -9.1 -1.3 -10.25 -1.25 -10.8 -1.25 -10.95 -1.95" fill="#672419" fill-rule="evenodd" stroke="none"/>
      <path d="M2.0 -0.35 Q2.2 0.95 2.75 1.95 L2.8 2.5 0.6 2.4 0.75 1.55 0.75 1.1 0.75 1.05 0.45 -0.25 1.0 -0.25 2.0 -0.35 M44.3 6.8 L45.5 6.8 45.75 7.75 44.3 6.8 M57.2 12.8 L57.75 12.8 58.1 13.45 57.2 12.8 M57.35 18.35 L31.3 18.9 8.65 19.5 -35.95 19.0 Q-54.0 18.9 -61.45 19.5 L-60.6 18.0 Q-58.95 16.5 -53.25 14.4 -51.75 13.85 -50.75 13.3 L-50.75 13.75 -50.6 15.0 -49.75 15.75 -38.95 16.5 -35.95 16.9 -32.5 17.25 Q-30.55 17.25 -28.95 15.75 -27.25 14.15 -27.25 12.1 -27.25 10.75 -27.7 10.5 -27.9 10.35 -28.9 10.1 L-29.75 9.8 Q-29.75 9.05 -30.0 8.75 -31.85 5.55 -33.15 4.85 L-34.2 4.65 Q-32.25 3.4 -32.25 2.75 -32.25 2.0 -33.95 0.5 L-30.6 0.05 -27.95 -0.2 Q-27.3 -0.2 -26.95 0.3 -26.6 0.75 -26.0 0.75 -25.05 0.75 -24.4 -0.25 -23.8 -1.25 -21.0 -1.25 L-20.15 -1.2 -20.15 -1.45 -20.1 -0.9 Q-19.9 0.75 -19.25 1.95 -19.2 3.15 -18.95 3.5 L-18.75 3.7 Q-20.6 3.1 -21.85 3.2 -23.75 3.4 -23.75 5.0 L-23.75 5.1 -23.8 5.1 -26.5 4.8 Q-27.3 5.15 -27.5 5.4 L-27.75 6.6 Q-27.75 9.75 -20.5 9.75 L-4.45 6.3 Q-3.8 6.3 -3.45 6.8 L-2.5 7.25 5.9 6.75 14.25 6.25 Q14.9 6.25 15.35 6.7 15.8 7.2 16.25 7.25 L18.75 7.55 Q19.1 7.65 19.25 8.0 L19.6 9.1 Q20.3 9.8 22.75 9.8 22.75 11.95 23.75 12.5 L25.3 13.0 26.5 13.25 Q27.35 13.8 29.8 14.3 L32.75 14.75 40.0 13.05 Q40.5 12.95 41.35 11.75 42.1 10.65 43.5 10.75 L43.75 11.3 Q43.75 12.5 43.9 12.9 44.35 14.25 46.0 14.25 47.05 14.25 47.45 15.25 47.85 16.25 49.75 16.25 53.2 16.25 57.35 18.35 M-10.55 2.85 Q-10.25 2.3 -10.25 1.75 L-10.25 1.3 -10.25 1.25 -10.95 -1.95 -10.8 -1.25 -10.25 -1.25 -9.1 -1.3 -9.1 -1.25 Q-8.9 0.5 -8.25 1.8 L-8.2 2.3 -8.5 2.3 -10.55 2.85 M-0.2 -7.6 L-0.2 -7.75 0.4 -7.55 -0.2 -7.6 M20.0 -1.3 L17.95 0.95 17.05 1.85 15.55 0.4 Q13.75 -1.15 11.5 0.15 10.75 -2.85 10.75 -4.45 L10.8 -6.0 11.55 -4.65 Q12.9 -3.0 19.75 -2.7 L19.75 -1.5 20.0 -1.3 M1.75 10.25 Q1.0 9.65 0.75 9.0 L0.5 8.2 -4.25 7.75 Q-5.3 8.0 -6.85 10.6 -8.25 12.9 -8.25 13.5 L-8.1 14.5 -7.95 14.75 -1.9 15.35 1.0 15.75 Q2.7 15.75 3.1 15.0 L3.25 13.05 Q3.25 11.45 1.75 10.25 M7.8 7.9 Q6.25 9.05 6.25 11.3 6.25 12.05 8.25 13.25 10.8 14.75 14.0 14.75 15.65 14.75 16.0 14.25 L16.25 12.5 Q16.25 7.55 11.25 7.05 9.25 6.8 7.8 7.9 M-36.35 5.85 L-36.95 6.5 Q-38.5 8.35 -41.05 9.05 L-44.05 9.5 -47.85 10.0 -49.1 10.5 -50.75 9.05 Q-47.6 7.8 -46.35 7.8 L-45.3 8.55 Q-44.3 9.25 -43.5 9.25 -39.05 7.3 -36.35 5.85" fill="#512419" fill-rule="evenodd" stroke="none"/>
      <path d="M5.0 2.25 Q5.0 2.0 5.15 1.95 L5.25 1.25 4.7 -2.6 Q4.45 -4.05 5.75 -8.2 6.4 -10.4 9.9 -14.05 L10.3 -14.4 9.95 -13.1 Q8.75 -7.5 8.75 -4.25 L8.85 -1.6 Q9.2 0.45 10.05 1.55 L9.25 2.35 7.4 2.5 5.0 2.25 M23.8 1.95 Q24.9 2.75 27.0 2.75 30.55 2.75 32.0 -0.25 32.75 -1.85 32.75 -4.0 L32.6 -6.25 Q32.25 -7.5 30.8 -8.5 29.85 -9.25 28.1 -9.75 L26.3 -10.0 Q27.75 -12.15 31.05 -13.55 35.6 -15.5 41.85 -15.5 L46.5 -15.3 Q47.95 -15.1 48.5 -14.45 L50.05 -12.2 Q52.05 -9.3 53.75 -7.7 56.55 -4.95 57.65 -2.75 58.75 -0.65 58.75 1.85 58.75 5.05 55.25 7.75 L52.3 10.15 52.1 9.55 Q51.15 8.15 48.25 8.3 48.5 7.6 47.9 6.65 47.25 5.55 45.75 5.1 L46.55 4.0 Q47.25 2.7 47.25 0.35 47.25 -1.65 45.0 -2.9 42.85 -4.05 40.0 -3.95 32.75 -3.65 32.75 2.4 32.75 3.55 34.05 4.5 35.65 5.65 38.75 6.05 37.95 6.6 37.3 7.4 35.15 10.0 33.55 10.0 32.65 10.0 32.35 9.55 L31.95 8.6 Q31.65 8.05 30.7 7.8 L30.75 7.75 Q31.25 7.15 31.25 6.4 31.25 4.3 29.0 4.65 26.75 5.0 26.75 7.0 L26.3 7.0 26.2 5.75 Q26.05 4.3 24.8 3.5 L22.9 3.5 23.8 1.95 M20.2 2.05 L19.75 2.5 19.3 3.3 19.0 3.3 20.2 2.05 M61.05 14.85 L61.0 13.8 62.45 12.75 Q63.4 11.8 64.75 11.55 65.45 12.85 65.2 13.95 64.8 15.55 62.0 15.55 61.2 15.55 61.05 14.85 M8.8 11.0 L9.3 9.5 12.55 9.2 Q13.25 9.5 14.25 12.5 L8.8 11.0 M-0.5 -16.5 L-1.05 -14.15 Q-2.25 -8.25 -2.25 -4.8 L-2.15 -2.0 Q-1.8 0.35 -0.85 1.5 L-0.9 1.7 Q-1.1 2.35 -3.6 2.35 L-5.45 2.25 -5.3 -2.9 Q-5.2 -6.25 -4.5 -8.5 -3.2 -13.15 -0.5 -16.5 M-11.3 -16.6 L-11.15 -16.55 -12.05 -13.1 Q-13.25 -7.5 -13.25 -4.25 L-13.15 -1.6 Q-12.8 0.6 -11.85 1.7 L-11.9 1.85 Q-12.1 2.5 -14.6 2.5 L-16.6 2.35 Q-16.05 1.05 -15.85 -0.65 L-15.75 -6.5 Q-15.75 -12.0 -13.25 -14.6 L-11.55 -16.3 -11.3 -16.6 M-5.25 12.5 Q-5.0 10.85 -4.65 10.35 L-1.75 10.25 Q-1.25 10.5 1.25 13.5 L-1.45 13.0 -5.25 12.6 -5.25 12.5 M-29.35 12.3 L-29.45 12.5 -30.25 13.85 Q-31.1 15.0 -32.35 15.0 L-37.25 14.55 -46.85 13.9 -41.5 13.0 -36.75 12.35 -35.7 11.55 -32.85 8.7 -33.0 8.45 -32.7 8.95 Q-31.3 11.85 -29.35 12.3" fill="#9a8b72" fill-rule="evenodd" stroke="none"/>
      <path d="M10.9 -16.55 L10.3 -14.4 9.9 -14.05 Q6.4 -10.4 5.75 -8.2 4.45 -4.05 4.7 -2.6 L5.25 1.25 5.15 1.95 Q5.0 2.0 5.0 2.25 4.3 2.0 4.25 1.6 4.65 0.3 4.55 -0.5 L4.25 -0.6 4.25 -5.45 Q3.3 -6.9 4.5 -9.4 L6.75 -12.95 Q7.65 -14.25 10.4 -16.65 L10.9 -16.55 M23.8 1.95 L22.9 3.5 19.3 3.3 19.75 2.5 20.2 2.05 20.3 1.9 22.0 -0.15 22.05 -0.2 22.05 -0.25 22.5 -1.6 22.65 -3.25 22.75 -6.25 Q24.25 -14.2 27.5 -15.95 30.3 -17.5 41.65 -17.5 50.65 -17.5 54.5 -13.35 56.5 -11.25 57.25 -8.5 61.75 -3.7 61.75 1.75 L61.75 4.15 Q61.55 5.0 59.55 7.3 58.95 8.05 55.15 9.65 L52.55 10.85 52.5 10.75 52.3 10.15 55.25 7.75 Q58.75 5.05 58.75 1.85 58.75 -0.65 57.65 -2.75 56.55 -4.95 53.75 -7.7 52.05 -9.3 50.05 -12.2 L48.5 -14.45 Q47.95 -15.1 46.5 -15.3 L41.85 -15.5 Q35.6 -15.5 31.05 -13.55 27.75 -12.15 26.3 -10.0 25.7 -9.95 25.3 -9.7 L25.25 -9.7 Q24.95 -9.5 23.85 -5.55 L22.85 -1.55 22.75 -1.0 23.0 0.95 23.1 1.15 23.8 1.95 M-5.45 2.25 Q-6.65 2.0 -6.75 1.4 -6.35 0.05 -6.45 -0.8 L-6.75 -0.9 -6.75 -6.05 Q-7.7 -7.6 -6.5 -10.25 L-4.25 -14.0 -0.6 -17.95 0.1 -18.55 -0.5 -16.5 Q-3.2 -13.15 -4.5 -8.5 -5.2 -6.25 -5.3 -2.9 L-5.45 2.25 M-11.6 -16.65 L-11.3 -16.6 -11.55 -16.3 -13.25 -14.6 Q-15.75 -12.0 -15.75 -6.5 L-15.85 -0.65 Q-16.05 1.05 -16.6 2.35 -17.35 2.2 -17.6 1.9 L-17.75 1.65 -17.75 1.6 Q-17.35 0.3 -17.45 -0.5 L-17.75 -0.6 -17.75 -5.45 Q-18.7 -6.9 -17.5 -9.4 L-15.25 -12.95 Q-14.35 -14.25 -11.6 -16.65 M-46.85 13.9 L-46.9 13.9 -47.8 13.85 -48.75 13.8 -48.3 13.05 Q-45.85 11.7 -42.75 11.1 L-42.6 11.15 Q-40.4 11.85 -39.25 11.65 -37.35 11.3 -35.75 8.8 L-34.6 8.0 -34.55 8.0 -33.2 8.25 -33.0 8.45 -32.85 8.7 -35.7 11.55 -36.75 12.35 -41.5 13.0 -46.85 13.9" fill="#aea391" fill-rule="evenodd" stroke="none"/>
      <path d="M28.25 -3.9 L30.75 -5.75 31.1 -5.65 31.25 -5.25 Q31.25 -4.8 29.0 -2.85 L28.9 -2.75 30.0 -1.25 29.5 -0.75 28.15 -2.1 26.25 -0.5 25.8 -0.55 25.75 -1.05 Q25.75 -1.95 27.35 -3.25 26.45 -4.65 26.0 -5.9 26.75 -6.55 27.35 -5.65 L28.1 -4.25 28.25 -3.9 M38.85 -0.95 L39.6 0.45 39.75 0.8 42.25 -1.05 42.6 -0.95 42.75 -0.55 Q42.75 -0.1 40.5 1.85 L40.4 1.95 41.5 3.45 41.0 3.95 39.65 2.6 37.75 4.2 37.3 4.15 37.25 3.65 Q37.25 2.75 38.85 1.45 L37.5 -1.2 Q38.25 -1.85 38.85 -0.95" fill="#c3bcb1" fill-rule="evenodd" stroke="none"/>
    </g>
    <g id="shape10" transform="matrix(1.0, 0.0, 0.0, 1.0, 74.5, 22.35)">
      <path d="M69.95 13.9 L69.65 15.5 69.4 14.75 Q69.4 14.5 69.95 13.9" fill="#2f4a0a" fill-opacity="0.32941177" fill-rule="evenodd" stroke="none"/>
      <path d="M19.6 -16.5 Q20.2 -17.55 22.3 -18.25 25.85 -19.5 33.4 -19.5 35.4 -19.5 37.45 -18.55 39.45 -17.65 41.8 -17.75 L39.4 -19.3 Q37.4 -20.6 37.4 -21.15 L37.45 -22.0 37.65 -22.35 Q43.2 -21.9 48.25 -19.3 52.8 -17.0 55.55 -13.75 56.6 -14.4 57.45 -16.0 58.2 -17.4 58.4 -18.85 L58.45 -19.15 Q58.6 -19.5 59.4 -19.5 59.85 -19.5 61.65 -15.85 63.4 -12.1 63.4 -11.0 L63.65 -6.85 63.9 -2.75 Q65.85 -3.3 67.4 -4.5 68.7 -5.5 69.15 -5.5 L70.3 -5.25 70.4 -3.0 Q70.4 -0.85 69.2 2.65 L67.8 6.6 Q72.05 7.05 73.2 9.5 73.9 10.95 73.9 17.3 73.9 22.9 73.05 23.75 72.4 24.35 68.7 24.5 L59.9 25.5 41.4 26.5 31.6 26.15 25.4 26.5 14.8 26.95 -34.5 27.0 -55.5 27.5 -72.1 26.65 Q-73.45 26.25 -73.8 25.15 -74.35 24.65 -74.5 23.65 L-74.5 21.6 Q-74.5 13.85 -71.5 9.05 -70.7 7.75 -69.0 6.45 -67.25 5.05 -65.5 4.5 -57.15 1.9 -53.3 1.5 L-51.25 1.35 Q-48.4 -1.7 -40.25 -4.75 -28.35 -8.65 -22.6 -10.75 L-16.7 -12.1 -16.3 -12.15 -16.0 -12.5 -15.75 -12.4 Q-14.7 -13.45 -12.25 -14.4 L-9.7 -15.15 -9.6 -15.3 -9.2 -15.35 -2.5 -17.5 3.65 -17.2 3.8 -17.25 3.8 -17.2 Q11.05 -17.0 16.9 -17.35 18.35 -17.15 19.6 -16.5 M1.25 -13.5 Q-1.5 -10.5 -1.5 -8.1 -1.5 -3.35 6.15 -0.3 14.0 2.8 30.6 4.5 L30.4 4.25 Q28.55 1.35 27.4 -2.5 27.15 -3.4 25.5 -5.95 L24.05 -8.35 23.4 -9.6 Q21.9 -13.75 15.8 -14.8 L5.15 -15.25 2.9 -15.2 1.25 -13.5 M33.0 -17.25 Q25.25 -17.25 22.45 -15.95 L21.5 -15.1 Q23.1 -13.5 26.3 -9.35 27.85 -7.35 29.05 -4.3 30.6 -0.5 31.3 0.75 L32.35 3.2 Q33.6 4.8 37.55 5.25 L54.9 7.0 65.65 6.5 65.8 6.5 66.7 3.05 Q67.5 -0.25 68.4 -2.0 67.95 -2.2 66.35 -1.2 64.5 0.0 63.15 0.0 L61.9 -0.25 Q62.05 -4.7 61.8 -7.15 61.4 -11.45 59.3 -14.5 L57.5 -12.35 Q56.25 -11.0 55.15 -11.0 53.8 -11.0 52.8 -12.5 L50.9 -15.1 47.95 -16.8 44.4 -18.5 44.3 -17.8 44.4 -16.5 44.25 -15.05 Q44.0 -14.5 43.15 -14.5 L39.0 -15.85 Q34.65 -17.25 33.0 -17.25 M57.1 23.25 L61.7 22.8 66.9 22.3 71.8 21.75 71.9 17.15 71.75 13.8 71.75 13.65 71.75 13.6 71.4 11.55 71.0 8.85 Q70.95 8.25 70.25 8.4 L57.65 9.5 57.5 9.5 57.4 10.3 57.4 12.75 57.7 16.7 58.4 22.0 58.2 22.6 Q57.95 23.0 57.15 23.0 L56.3 22.75 Q55.4 15.0 55.4 12.75 L55.5 10.35 55.7 9.5 49.9 9.35 49.8 9.85 Q47.25 8.55 41.25 8.3 L37.6 8.85 37.6 8.65 37.85 7.9 36.85 7.65 Q34.45 7.05 32.85 6.25 L31.65 6.5 Q19.4 6.5 9.3 3.25 -3.5 -0.85 -3.5 -8.25 -3.5 -12.7 -1.3 -14.95 -4.85 -14.65 -7.2 -13.85 L-9.25 -13.05 -10.8 -11.95 Q-11.85 -11.4 -13.6 -10.8 L-15.25 -9.65 -15.4 -9.35 Q-15.95 -8.15 -17.1 -7.75 L-18.3 -6.85 -19.85 -5.25 -22.6 -1.5 Q-23.0 -0.8 -23.0 1.3 -23.0 7.6 -11.0 11.7 L-2.75 14.25 Q1.0 15.55 1.0 16.65 1.0 18.15 -5.85 24.9 L20.8 24.75 23.4 24.7 23.45 24.35 25.8 24.35 28.85 24.4 31.65 24.2 31.75 24.4 40.45 24.2 48.1 23.9 Q47.3 23.6 47.05 22.95 L49.4 22.35 49.4 22.6 49.3 23.25 48.7 23.9 51.3 23.75 57.1 23.25 M41.05 23.25 Q41.65 23.5 40.4 23.5 39.75 23.5 39.25 22.65 L41.15 23.15 41.05 23.25 M-39.55 -2.5 L-47.95 1.5 Q-45.4 1.75 -43.0 2.65 L-42.95 1.95 -42.75 1.55 Q-38.4 1.75 -32.25 0.4 L-26.75 0.6 Q-28.75 -3.75 -31.65 -5.65 -35.55 -4.25 -39.55 -2.5 M-24.75 -1.05 Q-24.15 -3.4 -22.15 -6.0 L-19.4 -9.1 -22.0 -8.5 -29.05 -6.5 -28.55 -6.1 Q-27.05 -4.65 -25.6 -2.25 L-24.75 -1.05 M-19.1 10.25 Q-21.05 8.95 -22.3 7.55 -21.75 10.05 -21.6 12.2 L-21.5 18.85 -21.6 24.8 -8.0 24.9 Q-7.9 24.4 -5.2 21.2 L-2.0 17.5 -1.85 17.05 Q-13.55 14.0 -19.1 10.25 M-61.05 25.1 L-55.5 25.25 -38.0 24.5 -27.8 24.7 -22.95 24.8 Q-23.6 23.55 -23.6 21.5 -23.4 18.45 -23.5 17.3 L-23.95 13.25 -24.5 9.05 Q-24.85 5.15 -26.45 1.35 -27.8 2.15 -32.1 3.0 L-40.0 4.0 -41.15 4.0 -41.65 4.3 -43.0 4.5 -48.7 4.5 Q-48.2 5.1 -47.75 6.0 -46.5 8.5 -46.5 11.3 -46.5 15.2 -51.2 18.75 -54.0 20.85 -61.0 25.0 L-61.35 24.8 -62.0 24.3 Q-61.8 23.3 -55.0 18.65 -48.5 14.2 -48.5 11.5 -48.5 10.2 -50.05 7.55 -51.15 5.65 -52.2 4.55 L-59.35 4.75 -61.9 5.55 -64.75 6.55 Q-66.15 7.1 -67.85 8.4 -69.75 9.9 -70.0 11.05 -70.15 12.0 -71.45 16.35 -72.5 19.9 -72.5 21.75 L-72.2 23.25 -69.0 24.15 -61.05 25.1" fill="#120f0a" fill-opacity="0.32941177" fill-rule="evenodd" stroke="none"/>
      <path d="M-61.0 25.0 L-61.05 25.1 -69.0 24.15 -72.2 23.25 -72.5 21.75 Q-72.5 19.9 -71.45 16.35 -70.15 12.0 -70.0 11.05 -69.75 9.9 -67.85 8.4 -66.15 7.1 -64.75 6.55 L-61.9 5.55 -59.35 4.75 -52.2 4.55 Q-51.15 5.65 -50.05 7.55 -48.5 10.2 -48.5 11.5 -48.5 14.2 -55.0 18.65 -61.8 23.3 -62.0 24.3 L-61.35 24.8 -61.0 25.0" fill="#3c3934" fill-opacity="0.32941177" fill-rule="evenodd" stroke="none"/>
      <path d="M33.0 -17.25 Q34.65 -17.25 39.0 -15.85 L43.15 -14.5 Q44.0 -14.5 44.25 -15.05 L44.4 -16.5 44.3 -17.8 44.4 -18.5 47.95 -16.8 50.9 -15.1 52.8 -12.5 Q53.8 -11.0 55.15 -11.0 56.25 -11.0 57.5 -12.35 L59.3 -14.5 Q61.4 -11.45 61.8 -7.15 62.05 -4.7 61.9 -0.25 L63.15 0.0 Q64.5 0.0 66.35 -1.2 67.95 -2.2 68.4 -2.0 67.5 -0.25 66.7 3.05 L65.8 6.5 65.65 6.5 54.9 7.0 37.55 5.25 Q33.6 4.8 32.35 3.2 L31.3 0.75 Q30.6 -0.5 29.05 -4.3 27.85 -7.35 26.3 -9.35 23.1 -13.5 21.5 -15.1 L22.45 -15.95 Q25.25 -17.25 33.0 -17.25" fill="#413227" fill-opacity="0.32941177" fill-rule="evenodd" stroke="none"/>
      <path d="M1.25 -13.5 L2.9 -15.2 5.15 -15.25 15.8 -14.8 Q21.9 -13.75 23.4 -9.6 L24.05 -8.35 25.5 -5.95 Q27.15 -3.4 27.4 -2.5 28.55 1.35 30.4 4.25 L30.6 4.5 Q14.0 2.8 6.15 -0.3 -1.5 -3.35 -1.5 -8.1 -1.5 -10.5 1.25 -13.5 M57.15 23.0 L57.1 23.25 51.3 23.75 48.7 23.9 49.3 23.25 49.4 22.6 49.4 22.35 47.05 22.95 Q47.3 23.6 48.1 23.9 L40.45 24.2 31.75 24.4 31.65 24.2 28.85 24.4 25.8 24.35 23.45 24.35 23.4 24.7 20.8 24.75 -5.85 24.9 Q1.0 18.15 1.0 16.65 1.0 15.55 -2.75 14.25 L-11.0 11.7 Q-23.0 7.6 -23.0 1.3 -23.0 -0.8 -22.6 -1.5 L-19.85 -5.25 -18.3 -6.85 -17.1 -7.75 Q-15.95 -8.15 -15.4 -9.35 L-15.25 -9.65 -13.6 -10.8 Q-11.85 -11.4 -10.8 -11.95 L-9.25 -13.05 -7.2 -13.85 Q-4.85 -14.65 -1.3 -14.95 -3.5 -12.7 -3.5 -8.25 -3.5 -0.85 9.3 3.25 19.4 6.5 31.65 6.5 L32.85 6.25 Q34.45 7.05 36.85 7.65 L37.85 7.9 37.6 8.65 37.6 8.85 41.25 8.3 Q47.25 8.55 49.8 9.85 L49.9 9.35 55.7 9.5 55.5 10.35 55.4 12.75 Q55.4 15.0 56.3 22.75 L57.15 23.0 M41.05 23.25 L41.15 23.15 39.25 22.65 Q39.75 23.5 40.4 23.5 41.65 23.5 41.05 23.25" fill="#483b3d" fill-opacity="0.32941177" fill-rule="evenodd" stroke="none"/>
      <path d="M57.15 23.0 Q57.95 23.0 58.2 22.6 L58.4 22.0 57.7 16.7 57.4 12.75 57.4 10.3 57.5 9.5 57.65 9.5 70.25 8.4 Q70.95 8.25 71.0 8.85 L71.4 11.55 71.75 13.6 71.75 13.65 71.75 13.8 71.9 17.15 71.8 21.75 66.9 22.3 61.7 22.8 57.1 23.25 57.15 23.0 M69.95 13.9 Q69.4 14.5 69.4 14.75 L69.65 15.5 69.95 13.9" fill="#b37e59" fill-opacity="0.32941177" fill-rule="evenodd" stroke="none"/>
      <path d="M-19.1 10.25 Q-13.55 14.0 -1.85 17.05 L-2.0 17.5 -5.2 21.2 Q-7.9 24.4 -8.0 24.9 L-21.6 24.8 -21.5 18.85 -21.6 12.2 Q-21.75 10.05 -22.3 7.55 -21.05 8.95 -19.1 10.25 M-24.75 -1.05 L-25.6 -2.25 Q-27.05 -4.65 -28.55 -6.1 L-29.05 -6.5 -22.0 -8.5 -19.4 -9.1 -22.15 -6.0 Q-24.15 -3.4 -24.75 -1.05" fill="#c7480e" fill-opacity="0.32941177" fill-rule="evenodd" stroke="none"/>
      <path d="M-39.55 -2.5 Q-35.55 -4.25 -31.65 -5.65 -28.75 -3.75 -26.75 0.6 L-32.25 0.4 Q-38.4 1.75 -42.75 1.55 L-42.95 1.95 -43.0 2.65 Q-45.4 1.75 -47.95 1.5 L-39.55 -2.5 M-61.0 25.0 Q-54.0 20.85 -51.2 18.75 -46.5 15.2 -46.5 11.3 -46.5 8.5 -47.75 6.0 -48.2 5.1 -48.7 4.5 L-43.0 4.5 -41.65 4.3 -41.15 4.0 -40.0 4.0 -32.1 3.0 Q-27.8 2.15 -26.45 1.35 -24.85 5.15 -24.5 9.05 L-23.95 13.25 -23.5 17.3 Q-23.4 18.45 -23.6 21.5 -23.6 23.55 -22.95 24.8 L-27.8 24.7 -38.0 24.5 -55.5 25.25 -61.05 25.1 -61.0 25.0" fill="#304c8d" fill-opacity="0.32941177" fill-rule="evenodd" stroke="none"/>
    </g>
  </defs>
</svg>
