<?xml version="1.0" encoding="UTF-8" standalone="no"?>
<svg xmlns:ffdec="https://www.free-decompiler.com/flash" xmlns:xlink="http://www.w3.org/1999/xlink" ffdec:objectType="frame" height="192.95px" width="278.45px" xmlns="http://www.w3.org/2000/svg">
  <g transform="matrix(1.0, 0.0, 0.0, 1.0, 129.95, 170.75)">
    <use ffdec:characterId="101" height="43.5" transform="matrix(1.0, 0.0, 0.0, 1.0, -60.0, -44.5)" width="134.5" xlink:href="#shape0"/>
    <use ffdec:characterId="316" height="59.85" transform="matrix(1.0, 0.0, 0.0, 1.0, -64.5, -57.8)" width="161.0" xlink:href="#shape1"/>
  </g>
  <defs>
    <g id="shape0" transform="matrix(1.0, 0.0, 0.0, 1.0, 67.25, 21.75)">
      <path d="M10.3 -14.4 L10.9 -16.55 11.1 -17.25 10.4 -16.65 Q7.65 -14.25 6.75 -12.95 L4.5 -9.4 Q3.3 -6.9 4.25 -5.45 L4.25 -0.6 4.55 -0.5 Q4.65 0.3 4.25 1.6 4.3 2.0 5.0 2.25 L7.4 2.5 9.25 2.35 10.05 1.55 Q9.2 0.45 8.85 -1.6 L8.75 -4.25 Q8.75 -7.5 9.95 -13.1 L10.3 -14.4 M12.6 -15.5 Q11.45 -13.0 11.25 -11.95 10.95 -10.65 10.85 -8.15 L10.95 -8.15 Q12.05 -7.8 13.25 -6.45 14.85 -4.95 17.8 -5.4 19.35 -5.65 20.75 -4.25 L20.75 -8.7 Q21.6 -9.65 22.05 -11.7 22.55 -14.05 23.1 -15.0 25.25 -18.8 35.25 -19.5 45.5 -24.1 55.2 -14.7 59.0 -11.05 61.45 -6.3 63.75 -1.85 63.75 1.3 63.75 4.85 61.75 8.05 60.5 10.05 58.75 11.2 L60.0 11.8 Q60.65 11.1 62.05 10.3 63.85 9.25 65.0 9.25 66.55 9.25 67.05 11.3 L67.25 13.35 Q67.25 16.45 65.05 17.35 L65.5 18.25 65.8 18.25 66.05 18.4 Q66.25 18.5 66.25 19.25 L66.1 19.95 Q65.9 19.95 65.8 20.25 L64.95 20.25 64.75 20.25 64.5 20.25 46.8 20.85 Q43.5 21.7 40.75 21.75 L-66.35 21.75 -66.55 21.6 -66.75 20.9 -67.2 20.15 -67.25 19.25 Q-67.25 16.5 -65.55 14.9 L-60.1 10.55 Q-59.35 9.9 -57.75 9.25 -56.7 8.8 -56.7 8.15 L-56.75 7.05 Q-56.3 6.15 -54.6 4.9 L-51.85 3.0 Q-48.35 0.55 -44.7 2.4 L-44.65 2.45 Q-42.55 1.1 -41.1 0.45 L-40.75 -0.45 -40.3 -2.7 Q-40.0 -3.85 -38.5 -4.95 -36.3 -6.6 -27.75 -6.7 L-26.45 -8.1 Q-24.05 -9.9 -20.05 -7.15 -19.55 -10.3 -17.95 -13.2 -15.2 -18.05 -10.25 -20.25 L-9.7 -20.05 -9.75 -18.6 -9.4 -15.5 Q-10.55 -13.0 -10.75 -11.95 -11.05 -10.6 -11.15 -8.1 L-10.4 -8.45 -8.85 -8.85 Q-8.3 -11.65 -6.95 -14.3 -4.2 -19.4 0.75 -21.75 L1.3 -21.55 1.25 -20.0 1.6 -16.7 Q0.45 -14.05 0.25 -12.95 L-0.15 -9.4 1.0 -9.45 2.45 -9.3 Q3.0 -11.3 4.05 -13.2 6.8 -18.05 11.75 -20.25 L12.3 -20.05 12.25 -18.6 12.6 -15.5 M2.0 -0.35 L1.9 -0.9 1.8 -2.95 1.75 -3.0 1.75 -3.75 1.65 -5.75 1.8 -5.65 2.0 -7.25 0.4 -7.55 -0.2 -7.75 -0.2 -7.6 -0.25 -5.0 Q-0.25 -3.35 0.45 -0.25 L0.75 1.05 0.75 1.1 0.75 1.55 0.6 2.4 Q0.3 3.15 -0.5 3.75 -1.75 4.75 -3.25 4.75 -7.0 4.75 -7.95 3.4 L-8.2 2.3 -8.25 1.8 Q-8.9 0.5 -9.1 -1.25 L-9.1 -1.3 -9.2 -3.4 -9.25 -3.45 -9.25 -4.25 -9.35 -6.4 -9.2 -6.25 -9.15 -6.75 -9.45 -6.55 -11.25 -5.75 -11.25 -4.45 -11.25 -4.4 -11.25 -4.25 -10.95 -1.95 -10.25 1.25 -10.25 1.3 -10.25 1.75 Q-10.25 2.3 -10.55 2.85 L-11.5 3.8 Q-12.75 4.75 -14.25 4.75 L-16.25 4.65 -16.55 4.6 -16.25 4.75 Q-18.05 5.8 -19.25 5.65 -20.75 5.5 -22.75 6.25 L-23.5 6.0 -23.75 5.1 -23.75 5.0 Q-23.75 3.4 -21.85 3.2 -20.6 3.1 -18.75 3.7 L-18.95 3.5 Q-19.2 3.15 -19.25 1.95 -19.9 0.75 -20.1 -0.9 L-20.15 -1.45 -20.2 -2.95 -20.25 -3.0 -20.25 -3.75 -20.35 -5.75 -20.2 -5.65 -20.1 -6.6 Q-21.05 -6.0 -22.5 -6.2 -24.5 -6.5 -25.0 -6.2 L-25.45 -4.5 Q-25.85 -3.55 -27.25 -3.25 L-28.0 -3.6 -28.1 -3.75 -30.4 -3.85 -35.2 -4.0 -36.35 -3.45 Q-37.55 -2.85 -37.75 -2.45 L-38.45 -0.5 -38.6 0.15 -38.25 0.75 -39.4 1.95 Q-40.3 3.0 -41.65 3.5 L-41.7 3.5 -42.6 4.95 Q-43.15 5.75 -44.0 5.75 -44.9 5.75 -45.55 3.85 -49.2 3.85 -50.25 4.55 L-52.45 5.95 Q-53.95 7.0 -54.35 7.75 L-54.5 9.7 Q-54.6 11.05 -55.75 11.25 -58.15 11.65 -61.5 14.3 -63.15 15.65 -64.3 17.55 L-65.65 20.05 -61.45 19.5 Q-54.0 18.9 -35.95 19.0 L8.65 19.5 31.3 18.9 57.35 18.35 57.4 18.35 62.4 18.3 62.3 17.75 Q59.9 17.55 58.75 15.3 L58.1 13.45 57.75 12.8 57.2 12.8 Q54.6 12.85 54.0 13.55 53.4 14.25 52.5 14.25 L50.75 14.0 Q50.05 14.0 50.3 13.25 L50.55 12.05 50.7 11.65 50.6 11.7 Q49.9 11.7 46.55 10.5 L45.8 7.75 45.75 7.75 45.5 6.8 44.3 6.8 Q40.45 6.95 38.3 9.4 35.7 12.25 33.25 12.25 30.95 12.25 30.7 11.75 30.8 11.0 30.25 10.5 L24.55 9.5 24.25 7.75 24.05 5.75 Q23.75 5.75 23.75 5.3 19.45 6.35 17.2 5.35 16.0 4.75 15.8 4.1 L14.75 3.4 Q13.85 2.5 12.9 2.5 12.0 2.5 10.65 3.9 9.3 5.25 5.5 5.25 3.7 5.25 3.25 4.55 L3.75 4.1 3.05 3.5 2.85 2.85 2.85 2.8 2.8 2.5 2.75 1.95 Q2.2 0.95 2.0 -0.35 M19.75 -1.5 L19.75 -2.7 Q12.9 -3.0 11.55 -4.65 L10.8 -6.0 10.75 -4.45 Q10.75 -2.85 11.5 0.15 13.75 -1.15 15.55 0.4 L17.05 1.85 17.95 0.95 20.0 -1.3 20.1 -1.4 19.75 -1.5 M26.3 -10.0 L28.1 -9.75 Q29.85 -9.25 30.8 -8.5 32.25 -7.5 32.6 -6.25 L32.75 -4.0 Q32.75 -1.85 32.0 -0.25 30.55 2.75 27.0 2.75 24.9 2.75 23.8 1.95 L23.1 1.15 23.0 0.95 22.75 -1.0 22.85 -1.55 23.85 -5.55 Q24.95 -9.5 25.25 -9.7 L25.3 -9.7 Q25.7 -9.95 26.3 -10.0 M22.9 3.5 L24.8 3.5 Q26.05 4.3 26.2 5.75 L26.3 7.0 26.25 7.55 26.9 7.55 26.75 7.0 Q26.75 5.0 29.0 4.65 31.25 4.3 31.25 6.4 31.25 7.15 30.75 7.75 L30.7 7.8 Q31.65 8.05 31.95 8.6 L32.35 9.55 Q32.65 10.0 33.55 10.0 35.15 10.0 37.3 7.4 37.95 6.6 38.75 6.05 35.65 5.65 34.05 4.5 32.75 3.55 32.75 2.4 32.75 -3.65 40.0 -3.95 42.85 -4.05 45.0 -2.9 47.25 -1.65 47.25 0.35 47.25 2.7 46.55 4.0 L45.75 5.1 Q47.25 5.55 47.9 6.65 48.5 7.6 48.25 8.3 51.15 8.15 52.1 9.55 L52.3 10.15 52.5 10.75 52.55 10.85 55.15 9.65 Q58.95 8.05 59.55 7.3 61.55 5.0 61.75 4.15 L61.75 1.75 Q61.75 -3.7 57.25 -8.5 56.5 -11.25 54.5 -13.35 50.65 -17.5 41.65 -17.5 30.3 -17.5 27.5 -15.95 24.25 -14.2 22.75 -6.25 L22.65 -3.25 22.5 -1.6 22.05 -0.25 22.05 -0.2 22.0 -0.15 20.3 1.9 20.2 2.05 19.0 3.3 19.3 3.3 22.9 3.5 M38.85 -0.95 Q38.25 -1.85 37.5 -1.2 L38.85 1.45 Q37.25 2.75 37.25 3.65 L37.3 4.15 37.75 4.2 39.65 2.6 41.0 3.95 41.5 3.45 40.4 1.95 40.5 1.85 Q42.75 -0.1 42.75 -0.55 L42.6 -0.95 42.25 -1.05 39.75 0.8 39.6 0.45 38.85 -0.95 M28.25 -3.9 L28.1 -4.25 27.35 -5.65 Q26.75 -6.55 26.0 -5.9 26.45 -4.65 27.35 -3.25 25.75 -1.95 25.75 -1.05 L25.8 -0.55 26.25 -0.5 28.15 -2.1 29.5 -0.75 30.0 -1.25 28.9 -2.75 29.0 -2.85 Q31.25 -4.8 31.25 -5.25 L31.1 -5.65 30.75 -5.75 28.25 -3.9 M61.05 14.85 Q61.2 15.55 62.0 15.55 64.8 15.55 65.2 13.95 65.45 12.85 64.75 11.55 63.4 11.8 62.45 12.75 L61.0 13.8 61.05 14.85 M1.75 10.25 Q3.25 11.45 3.25 13.05 L3.1 15.0 Q2.7 15.75 1.0 15.75 L-1.9 15.35 -7.95 14.75 -8.1 14.5 -8.25 13.5 Q-8.25 12.9 -6.85 10.6 -5.3 8.0 -4.25 7.75 L0.5 8.2 0.75 9.0 Q1.0 9.65 1.75 10.25 M8.8 11.0 L14.25 12.5 Q13.25 9.5 12.55 9.2 L9.3 9.5 8.8 11.0 M7.8 7.9 Q9.25 6.8 11.25 7.05 16.25 7.55 16.25 12.5 L16.0 14.25 Q15.65 14.75 14.0 14.75 10.8 14.75 8.25 13.25 6.25 12.05 6.25 11.3 6.25 9.05 7.8 7.9 M-34.2 4.65 L-33.15 4.85 Q-31.85 5.55 -30.0 8.75 -29.75 9.05 -29.75 9.8 L-28.9 10.1 Q-27.9 10.35 -27.7 10.5 -27.25 10.75 -27.25 12.1 -27.25 14.15 -28.95 15.75 -30.55 17.25 -32.5 17.25 L-35.95 16.9 -38.95 16.5 -49.75 15.75 -50.6 15.0 -50.75 13.75 -50.75 13.3 -50.5 11.85 -50.45 11.8 Q-50.1 10.95 -49.1 10.5 L-47.85 10.0 -44.05 9.5 -41.05 9.05 Q-38.5 8.35 -36.95 6.5 L-36.35 5.85 Q-35.25 4.75 -34.25 4.65 L-34.2 4.65 M-5.45 2.25 L-3.6 2.35 Q-1.1 2.35 -0.9 1.7 L-0.85 1.5 Q-1.8 0.35 -2.15 -2.0 L-2.25 -4.8 Q-2.25 -8.25 -1.05 -14.15 L-0.5 -16.5 0.1 -18.55 -0.6 -17.95 -4.25 -14.0 -6.5 -10.25 Q-7.7 -7.6 -6.75 -6.05 L-6.75 -0.9 -6.45 -0.8 Q-6.35 0.05 -6.75 1.4 -6.65 2.0 -5.45 2.25 M-11.15 -16.55 L-10.9 -17.25 -11.6 -16.65 Q-14.35 -14.25 -15.25 -12.95 L-17.5 -9.4 Q-18.7 -6.9 -17.75 -5.45 L-17.75 -0.6 -17.45 -0.5 Q-17.35 0.3 -17.75 1.6 L-17.75 1.65 -17.6 1.9 Q-17.35 2.2 -16.6 2.35 L-14.6 2.5 Q-12.1 2.5 -11.9 1.85 L-11.85 1.7 Q-12.8 0.6 -13.15 -1.6 L-13.25 -4.25 Q-13.25 -7.5 -12.05 -13.1 L-11.15 -16.55 M-5.25 12.6 L-1.45 13.0 1.25 13.5 Q-1.25 10.5 -1.75 10.25 L-4.65 10.35 Q-5.0 10.85 -5.25 12.5 L-5.45 12.55 -5.25 12.6 M-29.45 12.5 L-29.25 12.3 -29.35 12.3 Q-31.3 11.85 -32.7 8.95 L-33.0 8.45 -33.2 8.25 -34.55 8.0 -34.6 8.0 -35.75 8.8 Q-37.35 11.3 -39.25 11.65 -40.4 11.85 -42.6 11.15 L-42.75 11.1 Q-45.85 11.7 -48.3 13.05 L-48.75 13.8 -47.8 13.85 -46.9 13.9 -46.85 13.9 -37.25 14.55 -32.35 15.0 Q-31.1 15.0 -30.25 13.85 L-29.45 12.5" fill="#000000" fill-rule="evenodd" stroke="none"/>
      <path d="M0.4 -7.55 L2.0 -7.25 1.8 -5.65 1.65 -5.75 1.75 -3.75 1.75 -3.0 1.8 -2.95 1.9 -0.9 2.0 -0.35 1.0 -0.25 0.45 -0.25 Q-0.25 -3.35 -0.25 -5.0 L-0.2 -7.6 0.4 -7.55 M2.8 2.5 L2.85 2.8 2.85 2.85 3.05 3.5 3.75 4.1 3.25 4.55 Q3.7 5.25 5.5 5.25 9.3 5.25 10.65 3.9 12.0 2.5 12.9 2.5 13.85 2.5 14.75 3.4 L15.8 4.1 Q16.0 4.75 17.2 5.35 19.45 6.35 23.75 5.3 23.75 5.75 24.05 5.75 L24.25 7.75 24.55 9.5 30.25 10.5 Q30.8 11.0 30.7 11.75 30.95 12.25 33.25 12.25 35.7 12.25 38.3 9.4 40.45 6.95 44.3 6.8 L45.75 7.75 45.8 7.75 46.55 10.5 Q49.9 11.7 50.6 11.7 L50.55 12.05 50.3 13.25 Q50.05 14.0 50.75 14.0 L52.5 14.25 Q53.4 14.25 54.0 13.55 54.6 12.85 57.2 12.8 L58.1 13.45 58.75 15.3 Q59.9 17.55 62.3 17.75 L62.4 18.3 57.4 18.35 57.35 18.35 Q53.2 16.25 49.75 16.25 47.85 16.25 47.45 15.25 47.05 14.25 46.0 14.25 44.35 14.25 43.9 12.9 43.75 12.5 43.75 11.3 L43.5 10.75 Q42.1 10.65 41.35 11.75 40.5 12.95 40.0 13.05 L32.75 14.75 29.8 14.3 Q27.35 13.8 26.5 13.25 L25.3 13.0 23.75 12.5 Q22.75 11.95 22.75 9.8 20.3 9.8 19.6 9.1 L19.25 8.0 Q19.1 7.65 18.75 7.55 L16.25 7.25 Q15.8 7.2 15.35 6.7 14.9 6.25 14.25 6.25 L5.9 6.75 -2.5 7.25 -3.45 6.8 Q-3.8 6.3 -4.45 6.3 L-20.5 9.75 Q-27.75 9.75 -27.75 6.6 L-27.5 5.4 Q-27.3 5.15 -26.5 4.8 L-23.8 5.1 -23.75 5.1 -23.5 6.0 -22.75 6.25 Q-20.75 5.5 -19.25 5.65 -18.05 5.8 -16.25 4.75 L-16.25 4.65 -14.25 4.75 Q-12.75 4.75 -11.5 3.8 L-10.55 2.85 -8.5 2.3 -8.2 2.3 -7.95 3.4 Q-7.0 4.75 -3.25 4.75 -1.75 4.75 -0.5 3.75 0.3 3.15 0.6 2.4 L2.8 2.5 M-61.45 19.5 L-65.65 20.05 -64.3 17.55 Q-63.15 15.65 -61.5 14.3 -58.15 11.65 -55.75 11.25 -54.6 11.05 -54.5 9.7 L-54.35 7.75 Q-53.95 7.0 -52.45 5.95 L-50.25 4.55 Q-49.2 3.85 -45.55 3.85 -44.9 5.75 -44.0 5.75 -43.15 5.75 -42.6 4.95 L-41.7 3.5 -41.65 3.5 Q-40.3 3.0 -39.4 1.95 L-38.25 0.75 -38.6 0.15 -38.45 -0.5 -37.75 -2.45 Q-37.55 -2.85 -36.35 -3.45 L-35.2 -4.0 -30.4 -3.85 -28.1 -3.75 -28.0 -3.6 -27.25 -3.25 Q-25.85 -3.55 -25.45 -4.5 L-25.0 -6.2 Q-24.5 -6.5 -22.5 -6.2 -21.05 -6.0 -20.1 -6.6 L-20.2 -5.65 -20.35 -5.75 -20.25 -3.75 -20.25 -3.0 -20.2 -2.95 -20.15 -1.45 -20.15 -1.2 -21.0 -1.25 Q-23.8 -1.25 -24.4 -0.25 -25.05 0.75 -26.0 0.75 -26.6 0.75 -26.95 0.3 -27.3 -0.2 -27.95 -0.2 L-30.6 0.05 -33.95 0.5 Q-32.25 2.0 -32.25 2.75 -32.25 3.4 -34.2 4.65 L-34.25 4.65 Q-35.25 4.75 -36.35 5.85 -39.05 7.3 -43.5 9.25 -44.3 9.25 -45.3 8.55 L-46.35 7.8 Q-47.6 7.8 -50.75 9.05 L-49.1 10.5 Q-50.1 10.95 -50.45 11.8 L-50.5 11.85 -50.75 13.3 Q-51.75 13.85 -53.25 14.4 -58.95 16.5 -60.6 18.0 L-61.45 19.5 M-10.95 -1.95 L-11.25 -4.25 -11.25 -4.4 -11.25 -4.45 -11.25 -5.75 -9.45 -6.55 -9.35 -6.4 -9.25 -4.25 -9.25 -3.45 -9.2 -3.4 -9.1 -1.3 -10.25 -1.25 -10.8 -1.25 -10.95 -1.95" fill="#660000" fill-rule="evenodd" stroke="none"/>
      <path d="M2.0 -0.35 Q2.2 0.95 2.75 1.95 L2.8 2.5 0.6 2.4 0.75 1.55 0.75 1.1 0.75 1.05 0.45 -0.25 1.0 -0.25 2.0 -0.35 M44.3 6.8 L45.5 6.8 45.75 7.75 44.3 6.8 M57.2 12.8 L57.75 12.8 58.1 13.45 57.2 12.8 M57.35 18.35 L31.3 18.9 8.65 19.5 -35.95 19.0 Q-54.0 18.9 -61.45 19.5 L-60.6 18.0 Q-58.95 16.5 -53.25 14.4 -51.75 13.85 -50.75 13.3 L-50.75 13.75 -50.6 15.0 -49.75 15.75 -38.95 16.5 -35.95 16.9 -32.5 17.25 Q-30.55 17.25 -28.95 15.75 -27.25 14.15 -27.25 12.1 -27.25 10.75 -27.7 10.5 -27.9 10.35 -28.9 10.1 L-29.75 9.8 Q-29.75 9.05 -30.0 8.75 -31.85 5.55 -33.15 4.85 L-34.2 4.65 Q-32.25 3.4 -32.25 2.75 -32.25 2.0 -33.95 0.5 L-30.6 0.05 -27.95 -0.2 Q-27.3 -0.2 -26.95 0.3 -26.6 0.75 -26.0 0.75 -25.05 0.75 -24.4 -0.25 -23.8 -1.25 -21.0 -1.25 L-20.15 -1.2 -20.15 -1.45 -20.1 -0.9 Q-19.9 0.75 -19.25 1.95 -19.2 3.15 -18.95 3.5 L-18.75 3.7 Q-20.6 3.1 -21.85 3.2 -23.75 3.4 -23.75 5.0 L-23.75 5.1 -23.8 5.1 -26.5 4.8 Q-27.3 5.15 -27.5 5.4 L-27.75 6.6 Q-27.75 9.75 -20.5 9.75 L-4.45 6.3 Q-3.8 6.3 -3.45 6.8 L-2.5 7.25 5.9 6.75 14.25 6.25 Q14.9 6.25 15.35 6.7 15.8 7.2 16.25 7.25 L18.75 7.55 Q19.1 7.65 19.25 8.0 L19.6 9.1 Q20.3 9.8 22.75 9.8 22.75 11.95 23.75 12.5 L25.3 13.0 26.5 13.25 Q27.35 13.8 29.8 14.3 L32.75 14.75 40.0 13.05 Q40.5 12.95 41.35 11.75 42.1 10.65 43.5 10.75 L43.75 11.3 Q43.75 12.5 43.9 12.9 44.35 14.25 46.0 14.25 47.05 14.25 47.45 15.25 47.85 16.25 49.75 16.25 53.2 16.25 57.35 18.35 M-10.55 2.85 Q-10.25 2.3 -10.25 1.75 L-10.25 1.3 -10.25 1.25 -10.95 -1.95 -10.8 -1.25 -10.25 -1.25 -9.1 -1.3 -9.1 -1.25 Q-8.9 0.5 -8.25 1.8 L-8.2 2.3 -8.5 2.3 -10.55 2.85 M-0.2 -7.6 L-0.2 -7.75 0.4 -7.55 -0.2 -7.6 M20.0 -1.3 L17.95 0.95 17.05 1.85 15.55 0.4 Q13.75 -1.15 11.5 0.15 10.75 -2.85 10.75 -4.45 L10.8 -6.0 11.55 -4.65 Q12.9 -3.0 19.75 -2.7 L19.75 -1.5 20.0 -1.3 M1.75 10.25 Q1.0 9.65 0.75 9.0 L0.5 8.2 -4.25 7.75 Q-5.3 8.0 -6.85 10.6 -8.25 12.9 -8.25 13.5 L-8.1 14.5 -7.95 14.75 -1.9 15.35 1.0 15.75 Q2.7 15.75 3.1 15.0 L3.25 13.05 Q3.25 11.45 1.75 10.25 M7.8 7.9 Q6.25 9.05 6.25 11.3 6.25 12.05 8.25 13.25 10.8 14.75 14.0 14.75 15.65 14.75 16.0 14.25 L16.25 12.5 Q16.25 7.55 11.25 7.05 9.25 6.8 7.8 7.9 M-36.35 5.85 L-36.95 6.5 Q-38.5 8.35 -41.05 9.05 L-44.05 9.5 -47.85 10.0 -49.1 10.5 -50.75 9.05 Q-47.6 7.8 -46.35 7.8 L-45.3 8.55 Q-44.3 9.25 -43.5 9.25 -39.05 7.3 -36.35 5.85" fill="#400000" fill-rule="evenodd" stroke="none"/>
      <path d="M5.0 2.25 Q5.0 2.0 5.15 1.95 L5.25 1.25 4.7 -2.6 Q4.45 -4.05 5.75 -8.2 6.4 -10.4 9.9 -14.05 L10.3 -14.4 9.95 -13.1 Q8.75 -7.5 8.75 -4.25 L8.85 -1.6 Q9.2 0.45 10.05 1.55 L9.25 2.35 7.4 2.5 5.0 2.25 M23.8 1.95 Q24.9 2.75 27.0 2.75 30.55 2.75 32.0 -0.25 32.75 -1.85 32.75 -4.0 L32.6 -6.25 Q32.25 -7.5 30.8 -8.5 29.85 -9.25 28.1 -9.75 L26.3 -10.0 Q27.75 -12.15 31.05 -13.55 35.6 -15.5 41.85 -15.5 L46.5 -15.3 Q47.95 -15.1 48.5 -14.45 L50.05 -12.2 Q52.05 -9.3 53.75 -7.7 56.55 -4.95 57.65 -2.75 58.75 -0.65 58.75 1.85 58.75 5.05 55.25 7.75 L52.3 10.15 52.1 9.55 Q51.15 8.15 48.25 8.3 48.5 7.6 47.9 6.65 47.25 5.55 45.75 5.1 L46.55 4.0 Q47.25 2.7 47.25 0.35 47.25 -1.65 45.0 -2.9 42.85 -4.05 40.0 -3.95 32.75 -3.65 32.75 2.4 32.75 3.55 34.05 4.5 35.65 5.65 38.75 6.05 37.95 6.6 37.3 7.4 35.15 10.0 33.55 10.0 32.65 10.0 32.35 9.55 L31.95 8.6 Q31.65 8.05 30.7 7.8 L30.75 7.75 Q31.25 7.15 31.25 6.4 31.25 4.3 29.0 4.65 26.75 5.0 26.75 7.0 L26.3 7.0 26.2 5.75 Q26.05 4.3 24.8 3.5 L22.9 3.5 23.8 1.95 M20.2 2.05 L19.75 2.5 19.3 3.3 19.0 3.3 20.2 2.05 M61.05 14.85 L61.0 13.8 62.45 12.75 Q63.4 11.8 64.75 11.55 65.45 12.85 65.2 13.95 64.8 15.55 62.0 15.55 61.2 15.55 61.05 14.85 M8.8 11.0 L9.3 9.5 12.55 9.2 Q13.25 9.5 14.25 12.5 L8.8 11.0 M-0.5 -16.5 L-1.05 -14.15 Q-2.25 -8.25 -2.25 -4.8 L-2.15 -2.0 Q-1.8 0.35 -0.85 1.5 L-0.9 1.7 Q-1.1 2.35 -3.6 2.35 L-5.45 2.25 -5.3 -2.9 Q-5.2 -6.25 -4.5 -8.5 -3.2 -13.15 -0.5 -16.5 M-11.3 -16.6 L-11.15 -16.55 -12.05 -13.1 Q-13.25 -7.5 -13.25 -4.25 L-13.15 -1.6 Q-12.8 0.6 -11.85 1.7 L-11.9 1.85 Q-12.1 2.5 -14.6 2.5 L-16.6 2.35 Q-16.05 1.05 -15.85 -0.65 L-15.75 -6.5 Q-15.75 -12.0 -13.25 -14.6 L-11.55 -16.3 -11.3 -16.6 M-5.25 12.5 Q-5.0 10.85 -4.65 10.35 L-1.75 10.25 Q-1.25 10.5 1.25 13.5 L-1.45 13.0 -5.25 12.6 -5.25 12.5 M-29.35 12.3 L-29.45 12.5 -30.25 13.85 Q-31.1 15.0 -32.35 15.0 L-37.25 14.55 -46.85 13.9 -41.5 13.0 -36.75 12.35 -35.7 11.55 -32.85 8.7 -33.0 8.45 -32.7 8.95 Q-31.3 11.85 -29.35 12.3" fill="#baae96" fill-rule="evenodd" stroke="none"/>
      <path d="M10.9 -16.55 L10.3 -14.4 9.9 -14.05 Q6.4 -10.4 5.75 -8.2 4.45 -4.05 4.7 -2.6 L5.25 1.25 5.15 1.95 Q5.0 2.0 5.0 2.25 4.3 2.0 4.25 1.6 4.65 0.3 4.55 -0.5 L4.25 -0.6 4.25 -5.45 Q3.3 -6.9 4.5 -9.4 L6.75 -12.95 Q7.65 -14.25 10.4 -16.65 L10.9 -16.55 M23.8 1.95 L22.9 3.5 19.3 3.3 19.75 2.5 20.2 2.05 20.3 1.9 22.0 -0.15 22.05 -0.2 22.05 -0.25 22.5 -1.6 22.65 -3.25 22.75 -6.25 Q24.25 -14.2 27.5 -15.95 30.3 -17.5 41.65 -17.5 50.65 -17.5 54.5 -13.35 56.5 -11.25 57.25 -8.5 61.75 -3.7 61.75 1.75 L61.75 4.15 Q61.55 5.0 59.55 7.3 58.95 8.05 55.15 9.65 L52.55 10.85 52.5 10.75 52.3 10.15 55.25 7.75 Q58.75 5.05 58.75 1.85 58.75 -0.65 57.65 -2.75 56.55 -4.95 53.75 -7.7 52.05 -9.3 50.05 -12.2 L48.5 -14.45 Q47.95 -15.1 46.5 -15.3 L41.85 -15.5 Q35.6 -15.5 31.05 -13.55 27.75 -12.15 26.3 -10.0 25.7 -9.95 25.3 -9.7 L25.25 -9.7 Q24.95 -9.5 23.85 -5.55 L22.85 -1.55 22.75 -1.0 23.0 0.95 23.1 1.15 23.8 1.95 M-5.45 2.25 Q-6.65 2.0 -6.75 1.4 -6.35 0.05 -6.45 -0.8 L-6.75 -0.9 -6.75 -6.05 Q-7.7 -7.6 -6.5 -10.25 L-4.25 -14.0 -0.6 -17.95 0.1 -18.55 -0.5 -16.5 Q-3.2 -13.15 -4.5 -8.5 -5.2 -6.25 -5.3 -2.9 L-5.45 2.25 M-11.6 -16.65 L-11.3 -16.6 -11.55 -16.3 -13.25 -14.6 Q-15.75 -12.0 -15.75 -6.5 L-15.85 -0.65 Q-16.05 1.05 -16.6 2.35 -17.35 2.2 -17.6 1.9 L-17.75 1.65 -17.75 1.6 Q-17.35 0.3 -17.45 -0.5 L-17.75 -0.6 -17.75 -5.45 Q-18.7 -6.9 -17.5 -9.4 L-15.25 -12.95 Q-14.35 -14.25 -11.6 -16.65 M-46.85 13.9 L-46.9 13.9 -47.8 13.85 -48.75 13.8 -48.3 13.05 Q-45.85 11.7 -42.75 11.1 L-42.6 11.15 Q-40.4 11.85 -39.25 11.65 -37.35 11.3 -35.75 8.8 L-34.6 8.0 -34.55 8.0 -33.2 8.25 -33.0 8.45 -32.85 8.7 -35.7 11.55 -36.75 12.35 -41.5 13.0 -46.85 13.9" fill="#dcd6c9" fill-rule="evenodd" stroke="none"/>
      <path d="M28.25 -3.9 L30.75 -5.75 31.1 -5.65 31.25 -5.25 Q31.25 -4.8 29.0 -2.85 L28.9 -2.75 30.0 -1.25 29.5 -0.75 28.15 -2.1 26.25 -0.5 25.8 -0.55 25.75 -1.05 Q25.75 -1.95 27.35 -3.25 26.45 -4.65 26.0 -5.9 26.75 -6.55 27.35 -5.65 L28.1 -4.25 28.25 -3.9 M38.85 -0.95 L39.6 0.45 39.75 0.8 42.25 -1.05 42.6 -0.95 42.75 -0.55 Q42.75 -0.1 40.5 1.85 L40.4 1.95 41.5 3.45 41.0 3.95 39.65 2.6 37.75 4.2 37.3 4.15 37.25 3.65 Q37.25 2.75 38.85 1.45 L37.5 -1.2 Q38.25 -1.85 38.85 -0.95" fill="#ffffff" fill-rule="evenodd" stroke="none"/>
    </g>
    <g id="shape1" transform="matrix(1.0, 0.0, 0.0, 1.0, 76.0, 31.35)">
      <path d="M32.95 -26.45 Q33.8 -24.65 34.6 -23.3 36.05 -20.55 36.75 -20.55 L39.0 -21.2 45.95 -21.85 Q52.95 -21.85 60.15 -20.0 69.45 -17.55 71.15 -13.25 L73.75 -13.3 80.35 -13.05 80.2 -13.2 Q83.4 -13.7 83.85 -10.35 L83.95 -4.9 Q83.95 -3.15 84.5 0.85 L85.0 5.2 84.85 9.15 84.1 9.55 84.05 9.6 83.95 9.6 75.9 9.8 75.95 10.65 Q75.95 12.7 73.65 16.75 L71.3 20.4 Q68.45 22.3 65.4 23.9 59.5 26.95 55.25 26.95 L54.7 26.95 54.7 27.1 53.15 26.9 Q51.6 26.9 50.35 27.55 L43.2 28.05 35.05 28.5 25.7 28.35 Q26.25 27.8 25.05 26.95 L23.1 25.4 Q19.05 25.4 18.0 26.3 17.0 27.2 7.95 27.2 L1.5 27.9 -5.05 28.5 Q-11.75 28.5 -12.3 26.85 -12.85 25.1 -19.05 25.1 -21.75 25.1 -27.4 26.85 -33.1 28.5 -40.4 28.5 L-42.8 28.1 -44.45 27.45 -46.8 27.15 -61.65 26.95 -62.3 26.4 -62.45 26.45 -65.9 26.95 Q-73.45 26.95 -75.45 23.3 -76.0 22.35 -76.0 19.15 -76.0 13.25 -67.15 5.6 -63.55 2.5 -60.7 1.35 -58.95 0.65 -57.9 0.85 -57.6 -0.4 -56.95 -1.25 -54.8 -4.15 -47.3 -6.65 -44.75 -7.5 -38.6 -7.7 -33.25 -7.85 -31.35 -9.1 L-28.15 -11.75 -24.4 -13.7 -19.2 -15.85 Q-14.95 -17.2 -11.3 -20.4 L-5.6 -26.15 Q-3.05 -28.75 1.7 -29.8 L1.9 -29.95 4.6 -31.05 Q8.6 -31.75 13.7 -30.9 17.05 -30.35 18.65 -29.55 22.7 -28.5 25.05 -26.25 25.4 -28.05 27.4 -29.15 30.25 -30.75 32.95 -26.45 M62.2 -12.5 L68.05 -13.1 65.55 -15.65 Q60.4 -19.5 46.2 -19.5 L41.45 -18.8 36.65 -18.2 Q34.75 -18.2 32.95 -22.25 31.2 -26.35 29.0 -26.35 L27.1 -25.9 27.1 -23.95 27.0 -23.9 26.95 -23.85 27.1 -23.55 27.15 -23.5 27.75 -21.4 27.8 -21.15 27.9 -20.7 27.95 -20.6 28.1 -19.9 28.2 -19.55 29.9 -12.95 30.65 -10.0 31.1 -8.45 Q33.0 -9.3 49.45 -11.15 L62.2 -12.5 M26.7 -18.25 L26.05 -20.55 24.7 -23.7 Q23.7 -25.5 22.3 -26.05 L18.65 -27.65 18.6 -27.65 13.0 -28.25 7.45 -28.95 Q5.1 -28.95 3.4 -28.0 1.75 -27.1 0.8 -27.1 L0.45 -27.1 -3.25 -25.0 -9.1 -19.25 Q-10.75 -17.7 -12.1 -16.8 -13.45 -15.9 -16.2 -14.35 -17.4 -13.75 -21.4 -12.2 L-26.3 -10.15 Q-27.95 -9.2 -29.25 -7.35 -31.5 -5.75 -40.2 -5.35 -49.3 -4.85 -53.5 -0.7 L-55.05 1.1 -55.05 1.15 -55.25 1.5 -55.8 2.55 Q-56.35 3.85 -56.35 5.25 -56.35 6.7 -54.75 8.75 -53.2 10.7 -53.15 14.4 L-53.15 14.65 Q-53.15 17.75 -56.75 19.65 -60.3 21.55 -60.35 24.6 L-43.05 25.4 Q-42.95 25.5 -43.0 25.95 L-42.25 26.2 Q-32.95 26.2 -27.75 24.45 -22.55 22.75 -18.85 22.75 -13.3 22.75 -11.4 24.45 -9.5 26.15 -4.95 26.15 L3.55 25.1 8.65 25.2 Q13.75 25.35 15.75 25.1 16.8 24.95 17.9 24.05 18.75 23.25 21.25 23.25 24.2 23.25 25.75 24.75 27.3 26.15 35.05 26.15 L51.55 25.1 49.45 18.85 Q48.05 14.75 47.0 12.8 45.65 10.1 39.8 8.2 34.15 6.3 32.95 3.4 31.25 -0.7 29.25 -8.6 L26.7 -18.25 M-33.35 8.05 L-33.5 6.0 -33.5 5.9 -33.5 5.75 Q-32.95 4.85 -32.9 2.9 L-32.8 -0.4 -32.75 -0.75 -32.7 -0.9 -32.65 -1.2 -32.6 -1.3 -32.6 -1.4 -32.5 -1.45 -32.5 -1.55 -32.45 -1.6 -32.45 -1.7 -32.4 -1.75 -32.3 -2.05 -32.3 -2.1 -32.25 -2.15 -32.25 -2.25 -32.2 -2.3 -32.2 -2.35 -32.15 -2.4 -32.15 -2.45 -30.8 -3.75 -29.55 -4.4 -29.0 -4.55 -27.4 -4.8 -27.25 -4.9 Q-27.1 -4.85 -27.1 -4.0 -27.1 -3.75 -28.25 -3.15 -29.7 -2.4 -30.3 -1.15 -30.8 0.0 -30.8 2.0 L-31.1 4.95 -31.35 7.85 Q-31.35 10.9 -33.05 13.7 -35.65 18.0 -41.2 18.0 L-42.05 17.75 Q-42.5 18.15 -42.5 16.85 -42.5 15.8 -39.1 15.0 -35.25 14.1 -34.0 11.7 -33.45 10.55 -33.35 8.85 L-33.35 8.05 M19.25 -7.45 Q20.85 -8.2 22.45 -3.65 23.9 0.35 23.9 3.1 23.9 6.2 22.95 7.8 22.3 8.85 20.35 10.1 14.7 13.75 11.15 19.6 L10.35 19.45 Q10.1 19.3 10.1 18.45 10.1 15.15 15.95 10.75 21.8 6.4 21.8 3.15 21.8 0.8 20.45 -2.75 L19.1 -6.4 19.25 -7.45 M39.65 -7.2 L39.3 -7.15 31.45 -7.15 Q33.25 -0.9 35.6 3.1 36.55 4.8 38.95 5.85 L40.35 6.35 43.4 7.3 Q46.0 8.15 47.6 9.55 48.5 8.5 51.8 8.15 L54.65 7.9 55.2 7.9 55.3 7.9 55.4 7.9 69.9 7.45 83.05 7.5 Q82.55 6.0 82.35 4.05 82.15 0.15 81.8 -1.65 L81.85 -7.05 Q81.95 -9.15 81.4 -10.85 L73.05 -11.1 68.15 -10.95 54.5 -9.65 51.55 -9.2 39.65 -7.2 M69.95 18.3 Q71.5 16.5 73.05 12.6 L74.2 9.8 Q54.25 10.2 49.15 11.5 49.75 12.55 49.95 13.85 50.0 14.4 52.4 19.95 L54.45 25.4 55.3 25.15 Q57.85 24.7 59.35 24.05 L63.2 22.2 Q66.0 21.25 67.25 20.55 68.8 19.7 69.95 18.3 M-58.45 5.2 L-58.25 2.2 Q-62.85 3.95 -67.95 9.35 -73.85 15.55 -73.85 19.65 -73.85 22.25 -72.55 23.05 -70.4 24.3 -62.7 24.3 L-62.65 24.3 Q-62.45 20.9 -59.0 18.3 -55.25 15.5 -55.25 14.7 -55.25 12.05 -56.85 10.2 -58.45 8.3 -58.45 5.2" fill="#000000" fill-rule="evenodd" stroke="none"/>
      <path d="M29.9 -12.95 L30.8 -12.95 35.15 -14.0 35.2 -14.0 35.45 -14.0 35.6 -14.0 Q36.4 -14.0 36.55 -14.3 L37.6 -14.5 48.6 -15.55 Q59.1 -15.55 61.2 -13.75 L62.2 -12.5 49.45 -11.15 Q33.0 -9.3 31.1 -8.45 L30.65 -10.0 29.9 -12.95 M69.95 18.3 Q68.8 19.7 67.25 20.55 66.0 21.25 63.2 22.2 L59.35 24.05 Q57.85 24.7 55.3 25.15 L54.45 25.4 52.4 19.95 Q50.0 14.4 49.95 13.85 49.75 12.55 49.15 11.5 54.25 10.2 74.2 9.8 L73.05 12.6 Q71.5 16.5 69.95 18.3" fill="#915e3c" fill-rule="evenodd" stroke="none"/>
      <path d="M39.65 -7.2 L39.65 -6.7 39.7 -2.3 40.35 5.7 40.35 6.35 38.95 5.85 Q36.55 4.8 35.6 3.1 33.25 -0.9 31.45 -7.15 L39.3 -7.15 39.65 -7.2 M54.65 7.9 Q53.5 5.8 52.6 0.1 51.85 -4.4 51.55 -9.05 L51.55 -9.2 54.5 -9.65 68.15 -10.95 69.05 -4.75 Q70.15 1.35 70.15 4.35 L69.9 7.45 55.4 7.9 55.3 7.9 55.2 7.9 54.65 7.9" fill="#11111e" fill-rule="evenodd" stroke="none"/>
      <path d="M35.45 -14.0 L36.1 -14.95 36.35 -15.25 36.65 -15.05 36.55 -14.35 36.55 -14.3 Q36.4 -14.0 35.6 -14.0 L35.45 -14.0" fill="#946340" fill-rule="evenodd" stroke="none"/>
      <path d="M27.0 -23.9 L27.1 -23.95 27.1 -25.9 29.0 -26.35 Q31.2 -26.35 32.95 -22.25 34.75 -18.2 36.65 -18.2 L41.45 -18.8 46.2 -19.5 Q60.4 -19.5 65.55 -15.65 L68.05 -13.1 62.2 -12.5 61.2 -13.75 Q59.1 -15.55 48.6 -15.55 L37.6 -14.5 36.55 -14.3 36.55 -14.35 36.65 -15.05 36.35 -15.25 36.1 -14.95 35.45 -14.0 35.2 -14.0 35.15 -14.0 30.8 -12.95 29.9 -12.95 28.2 -19.55 28.1 -19.9 27.95 -20.6 27.9 -20.7 27.8 -21.15 27.75 -21.4 27.15 -23.5 27.1 -23.55 27.0 -23.9" fill="#a97e5a" fill-rule="evenodd" stroke="none"/>
      <path d="M-58.45 5.2 Q-58.45 8.3 -56.85 10.2 -55.25 12.05 -55.25 14.7 -55.25 15.5 -59.0 18.3 -62.45 20.9 -62.65 24.3 L-62.7 24.3 Q-70.4 24.3 -72.55 23.05 -73.85 22.25 -73.85 19.65 -73.85 15.55 -67.95 9.35 -62.85 3.95 -58.25 2.2 L-58.45 5.2" fill="#593924" fill-rule="evenodd" stroke="none"/>
      <path d="M-53.15 14.4 Q-53.2 10.7 -54.75 8.75 -56.35 6.7 -56.35 5.25 -56.35 3.85 -55.8 2.55 L-55.25 1.5 -55.05 1.15 -55.05 1.1 -53.5 -0.7 Q-49.3 -4.85 -40.2 -5.35 -31.5 -5.75 -29.25 -7.35 -27.95 -9.2 -26.3 -10.15 L-21.4 -12.2 Q-17.4 -13.75 -16.2 -14.35 -13.45 -15.9 -12.1 -16.8 -10.75 -17.7 -9.1 -19.25 L-3.25 -25.0 0.45 -27.1 0.8 -27.1 Q1.75 -27.1 3.4 -28.0 5.1 -28.95 7.45 -28.95 L13.0 -28.25 18.6 -27.65 18.65 -27.65 22.3 -26.05 Q23.7 -25.5 24.7 -23.7 L26.05 -20.55 26.7 -18.25 26.05 -17.65 Q25.0 -18.25 20.2 -21.95 16.5 -24.75 15.5 -24.75 7.55 -24.75 1.25 -21.1 -3.15 -18.5 -5.85 -14.8 L-11.65 -8.5 Q-14.9 -4.8 -13.85 -1.75 L-14.9 -1.4 Q-15.65 -2.3 -16.1 -3.9 -16.5 -5.25 -16.5 -6.2 -16.5 -7.4 -15.15 -11.9 L-15.15 -12.25 Q-24.75 -8.6 -29.0 -4.55 L-29.55 -4.4 -30.8 -3.75 -32.15 -2.45 -32.15 -2.4 -32.2 -2.35 -32.2 -2.3 -32.25 -2.25 -32.25 -2.15 -32.3 -2.1 -32.3 -2.05 -32.4 -1.75 -32.45 -1.7 -32.45 -1.6 -32.5 -1.55 -32.5 -1.45 -32.6 -1.4 -32.6 -1.3 -32.65 -1.2 -32.7 -0.9 -32.75 -0.75 -32.8 -0.4 -32.9 2.9 Q-32.95 4.85 -33.5 5.75 L-33.5 5.9 -33.5 6.0 -33.35 8.05 -33.5 8.05 Q-36.55 8.05 -36.6 3.25 -36.65 0.75 -36.15 -3.25 -43.7 -2.2 -47.55 0.3 -51.1 2.6 -51.0 5.7 L-50.55 10.85 Q-50.75 13.1 -53.15 14.4 M40.35 6.35 L40.35 5.7 39.7 -2.3 39.65 -6.7 39.65 -7.2 51.55 -9.2 51.55 -9.05 Q51.85 -4.4 52.6 0.1 53.5 5.8 54.65 7.9 L51.8 8.15 Q48.5 8.5 47.6 9.55 46.0 8.15 43.4 7.3 L40.35 6.35 M69.9 7.45 L70.15 4.35 Q70.15 1.35 69.05 -4.75 L68.15 -10.95 73.05 -11.1 81.4 -10.85 Q81.95 -9.15 81.85 -7.05 L81.8 -1.65 Q82.15 0.15 82.35 4.05 82.55 6.0 83.05 7.5 L69.9 7.45" fill="#942403" fill-rule="evenodd" stroke="none"/>
      <path d="M-53.15 14.4 Q-50.75 13.1 -50.55 10.85 L-51.0 5.7 Q-51.1 2.6 -47.55 0.3 -43.7 -2.2 -36.15 -3.25 -36.65 0.75 -36.6 3.25 -36.55 8.05 -33.5 8.05 L-33.35 8.05 -33.35 8.85 Q-33.45 10.55 -34.0 11.7 -35.25 14.1 -39.1 15.0 -42.5 15.8 -42.5 16.85 -42.5 18.15 -42.05 17.75 L-41.2 18.0 Q-35.65 18.0 -33.05 13.7 -31.35 10.9 -31.35 7.85 L-31.1 4.95 -30.8 2.0 Q-30.8 0.0 -30.3 -1.15 -29.7 -2.4 -28.25 -3.15 -27.1 -3.75 -27.1 -4.0 -27.1 -4.85 -27.25 -4.9 L-27.4 -4.8 -29.0 -4.55 Q-24.75 -8.6 -15.15 -12.25 L-15.15 -11.9 Q-16.5 -7.4 -16.5 -6.2 -16.5 -5.25 -16.1 -3.9 -15.65 -2.3 -14.9 -1.4 L-13.85 -1.75 Q-14.9 -4.8 -11.65 -8.5 L-5.85 -14.8 Q-3.15 -18.5 1.25 -21.1 7.55 -24.75 15.5 -24.75 16.5 -24.75 20.2 -21.95 25.0 -18.25 26.05 -17.65 L26.7 -18.25 29.25 -8.6 Q31.25 -0.7 32.95 3.4 34.15 6.3 39.8 8.2 45.65 10.1 47.0 12.8 48.05 14.75 49.45 18.85 L51.55 25.1 35.05 26.15 Q27.3 26.15 25.75 24.75 24.2 23.25 21.25 23.25 18.75 23.25 17.9 24.05 16.8 24.95 15.75 25.1 13.75 25.35 8.65 25.2 L3.55 25.1 -4.95 26.15 Q-9.5 26.15 -11.4 24.45 -13.3 22.75 -18.85 22.75 -22.55 22.75 -27.75 24.45 -32.95 26.2 -42.25 26.2 L-43.0 25.95 Q-42.95 25.5 -43.05 25.4 L-60.35 24.6 Q-60.3 21.55 -56.75 19.65 -53.15 17.75 -53.15 14.65 L-53.15 14.4 M19.25 -7.45 L19.1 -6.4 20.45 -2.75 Q21.8 0.8 21.8 3.15 21.8 6.4 15.95 10.75 10.1 15.15 10.1 18.45 10.1 19.3 10.35 19.45 L11.15 19.6 Q14.7 13.75 20.35 10.1 22.3 8.85 22.95 7.8 23.9 6.2 23.9 3.1 23.9 0.35 22.45 -3.65 20.85 -8.2 19.25 -7.45" fill="#731c02" fill-rule="evenodd" stroke="none"/>
    </g>
  </defs>
</svg>
