<?xml version="1.0" encoding="UTF-8" standalone="no"?>
<svg xmlns:ffdec="https://www.free-decompiler.com/flash" xmlns:xlink="http://www.w3.org/1999/xlink" ffdec:objectType="frame" height="267.3px" width="465.7px" xmlns="http://www.w3.org/2000/svg">
  <g transform="matrix(1.0, 0.0, 0.0, 1.0, 177.1, 204.45)">
    <use ffdec:characterId="589" height="34.0" transform="matrix(1.0, 0.0, 0.0, 1.0, -28.5, -32.05)" width="46.45" xlink:href="#shape0"/>
    <use ffdec:characterId="590" height="70.3" transform="matrix(0.8347, 0.2962, -0.3338, 0.9408, -5.3566, -88.8611)" width="78.0" xlink:href="#shape1"/>
    <use ffdec:characterId="591" height="61.65" transform="matrix(0.9805, 0.1904, -0.1904, 0.9805, 10.2123, -127.2401)" width="64.5" xlink:href="#shape2"/>
    <use ffdec:characterId="592" height="63.35" transform="matrix(0.7102, 0.7008, -0.7008, 0.7102, 61.2304, -67.4085)" width="28.0" xlink:href="#shape3"/>
    <use ffdec:characterId="598" height="238.15" transform="matrix(0.5096, -0.9335, 0.9335, 0.5096, 2.5352, -58.5274)" width="125.1" xlink:href="#shape4"/>
  </g>
  <defs>
    <g id="shape0" transform="matrix(1.0, 0.0, 0.0, 1.0, 29.45, 30.75)">
      <path d="M-24.15 -1.85 L-24.1 -1.85 -24.15 -1.65 -24.15 -1.85" fill="#372c22" fill-rule="evenodd" stroke="none"/>
      <path d="M10.8 -29.6 L12.95 -26.5 Q12.9 -23.45 13.5 -20.7 13.9 -18.95 14.5 -17.65 14.4 -14.35 15.15 -10.65 16.0 -6.45 16.0 -4.15 L16.0 -2.5 16.2 -2.15 Q17.0 -0.8 17.0 0.1 L16.85 1.0 14.95 1.1 -1.0 1.75 Q-1.45 0.85 -2.25 0.25 L-2.1 0.1 -2.3 -0.65 -2.5 -2.2 Q-2.5 -7.45 -1.75 -12.35 L-2.0 -12.1 Q-3.15 -10.95 -10.25 -6.35 L-13.55 -3.65 Q-15.4 -2.4 -17.55 -2.05 -17.3 -0.3 -18.75 3.05 -19.45 3.55 -20.45 2.85 L-20.45 2.65 Q-22.7 1.9 -26.2 -0.7 -29.15 -3.65 -29.45 -8.95 -29.6 -12.5 -28.75 -14.35 L-28.7 -15.0 -28.6 -15.4 -28.85 -15.65 -28.6 -15.7 -28.15 -17.65 -26.9 -18.3 -26.3 -18.3 -24.75 -18.95 -22.7 -19.4 Q-19.2 -20.1 -17.0 -22.3 L-15.95 -22.65 Q-12.55 -25.45 -9.55 -26.65 -3.2 -29.1 1.3 -24.6 L1.55 -24.35 Q3.4 -28.25 5.9 -29.95 8.6 -31.75 10.8 -29.6 M9.0 -1.4 L10.65 -4.2 Q11.5 -5.55 13.6 -5.2 L13.5 -7.7 12.95 -11.05 Q12.55 -13.2 12.5 -14.45 L12.45 -16.6 11.75 -16.5 4.5 -15.45 4.45 -1.1 5.85 -1.1 9.0 -1.05 9.05 -1.05 9.35 -1.05 9.0 -1.4 M14.0 -0.95 L13.2 -2.85 10.5 -1.05 14.0 -0.95 M-12.4 -15.5 Q-13.25 -14.75 -18.35 -12.85 -23.95 -10.75 -26.75 -11.15 L-27.05 -9.25 Q-27.7 -5.3 -24.4 -1.9 L-24.15 -1.65 Q-23.2 -0.7 -20.4 0.9 -20.35 0.85 -20.25 0.95 L-20.2 0.4 Q-19.95 -1.05 -20.0 -1.9 L-21.65 -1.55 -24.1 -1.85 -24.15 -1.85 Q-24.25 -1.85 -24.35 -1.95 L-23.9 -2.7 -21.7 -4.1 Q-19.8 -4.7 -18.55 -3.65 L-18.0 -4.3 Q-17.55 -4.75 -16.05 -5.45 -14.7 -6.2 -14.2 -6.7 L-11.9 -8.3 Q-10.1 -9.5 -9.6 -10.0 L-7.65 -11.35 Q-9.0 -11.9 -10.45 -13.35 L-12.3 -15.4 -12.35 -15.55 -12.4 -15.5" fill="#000000" fill-rule="evenodd" stroke="none"/>
      <path d="M9.0 -1.05 L9.0 -1.4 9.05 -1.05 9.0 -1.05" fill="#5b6171" fill-rule="evenodd" stroke="none"/>
      <path d="M9.0 -1.05 L5.85 -1.1 4.45 -1.1 4.5 -15.45 11.75 -16.5 12.45 -16.6 12.5 -14.45 Q12.55 -13.2 12.95 -11.05 L13.5 -7.7 13.6 -5.2 Q11.5 -5.55 10.65 -4.2 L9.0 -1.4 9.0 -1.05 M-24.4 -1.9 Q-27.7 -5.3 -27.05 -9.25 L-26.75 -11.15 Q-23.95 -10.75 -18.35 -12.85 -13.25 -14.75 -12.4 -15.5 L-12.3 -15.4 -10.45 -13.35 Q-9.0 -11.9 -7.65 -11.35 L-9.6 -10.0 Q-10.1 -9.5 -11.9 -8.3 L-14.2 -6.7 Q-14.7 -6.2 -16.05 -5.45 -17.55 -4.75 -18.0 -4.3 L-18.55 -3.65 Q-19.8 -4.7 -21.7 -4.1 L-23.9 -2.7 -24.35 -1.95 -24.4 -1.9 M14.0 -0.95 L10.5 -1.05 13.2 -2.85 14.0 -0.95 M-24.1 -1.85 L-21.65 -1.55 -20.0 -1.9 Q-19.95 -1.05 -20.2 0.4 L-20.4 0.9 Q-23.2 -0.7 -24.15 -1.65 L-24.1 -1.85" fill="#254a9e" fill-rule="evenodd" stroke="none"/>
    </g>
    <g id="shape1" transform="matrix(1.0, 0.0, 0.0, 1.0, 27.0, 29.3)">
      <path d="M15.65 -24.9 Q17.35 -24.55 20.85 -23.0 L22.9 -21.05 24.5 -19.0 24.7 -18.65 Q26.0 -17.95 27.7 -16.55 30.8 -14.05 31.0 -12.55 32.45 -12.0 35.05 -10.25 39.5 -7.25 41.85 -5.0 44.75 -2.75 47.9 1.6 51.0 5.85 51.0 7.4 51.0 10.65 49.25 13.05 46.35 17.0 39.5 17.0 32.1 17.0 26.05 9.95 L26.0 11.35 Q26.0 18.8 26.2 20.1 L29.0 31.5 29.0 37.5 28.0 38.0 27.75 37.7 25.65 38.5 Q22.25 39.5 18.0 39.5 L15.1 39.05 3.25 40.0 -1.85 39.7 -2.3 40.25 -3.0 40.5 -3.85 40.25 -7.75 41.0 Q-11.4 41.0 -16.8 39.1 -21.5 37.5 -23.05 36.25 -25.5 34.3 -26.1 33.05 -26.5 32.15 -26.5 29.65 L-26.0 26.4 Q-25.5 23.75 -25.5 23.1 -27.0 9.35 -27.0 6.8 -27.0 -2.5 -24.7 -11.6 -21.6 -24.05 -15.8 -24.75 L-15.65 -24.85 -15.6 -24.8 Q-14.6 -26.1 -12.75 -27.0 -9.9 -28.4 -7.0 -27.4 -4.65 -30.45 3.35 -28.6 7.15 -27.7 10.7 -26.05 L12.7 -25.0 13.05 -25.1 14.1 -24.85 15.65 -24.9 M16.3 -21.7 L16.85 -19.85 Q19.0 -13.3 19.0 -12.15 L19.0 -11.55 19.3 -11.05 19.5 -9.65 19.05 -7.55 21.0 -8.0 24.4 -8.5 24.0 -9.0 24.0 -10.1 Q24.0 -14.4 21.85 -18.3 19.5 -22.5 15.75 -22.95 L16.3 -21.7 M16.85 -10.0 Q16.65 -10.35 16.8 -10.9 L17.0 -12.3 Q17.0 -13.35 14.5 -19.15 L13.0 -22.5 -0.75 -27.25 Q-2.8 -27.25 -4.0 -25.85 L-4.05 -25.75 -3.25 -25.1 Q-0.7 -22.0 1.1 -18.15 3.0 -14.1 3.0 -11.4 L2.9 -8.65 Q3.45 -7.35 3.7 -4.9 L3.95 -1.55 Q4.75 -2.0 6.3 -2.1 L15.45 -1.6 Q16.0 -6.9 17.3 -9.85 L17.35 -10.0 16.85 -10.0 M-20.0 24.15 Q-18.85 22.6 -16.05 21.75 -13.1 20.8 -11.05 18.9 L-7.8 15.0 -5.5 11.25 Q-5.3 10.15 -4.75 10.15 L1.45 11.25 2.0 4.6 1.75 1.6 1.5 -2.1 1.0 -5.85 0.6 -8.05 Q-4.3 -8.45 -10.55 -13.2 -13.8 -15.7 -15.4 -17.6 -17.0 -19.5 -17.0 -20.85 L-17.0 -20.9 -17.0 -20.95 -16.95 -21.65 -16.85 -22.3 -17.25 -21.8 -19.1 -19.4 -19.2 -19.25 -19.25 -19.15 -19.35 -19.05 -19.45 -18.95 -19.5 -18.85 -19.6 -18.75 -19.65 -18.65 -22.1 -14.15 -23.1 -10.95 -23.4 -9.15 -23.5 -8.5 -24.35 -0.65 -24.8 7.25 -24.15 15.5 -23.5 23.1 -24.0 26.3 -24.5 29.5 Q-24.5 32.05 -22.85 33.65 L-22.55 33.9 -22.25 32.8 -22.2 32.75 -22.15 32.55 -22.15 32.5 -21.0 28.75 Q-21.0 26.4 -20.55 25.15 L-20.3 24.65 -20.0 24.15 M25.05 -6.45 Q23.4 -5.5 19.5 -5.5 L18.45 -5.55 18.0 -4.0 Q17.1 -0.25 17.0 2.0 16.8 4.25 16.85 7.8 L17.0 13.55 Q17.0 17.6 17.65 25.35 17.95 32.25 16.5 37.25 L19.85 37.25 23.95 36.5 24.15 36.45 26.75 36.0 26.95 36.05 26.75 34.75 26.5 31.3 Q25.35 27.05 25.0 24.55 24.6 21.95 24.25 16.95 L24.0 11.4 Q24.0 8.65 24.35 5.9 24.9 1.5 26.4 -2.85 28.75 -9.9 28.75 -12.1 L26.05 -14.7 25.75 -14.95 25.8 -14.45 26.0 -10.0 26.0 -7.4 25.9 -7.2 25.05 -6.45 M-14.55 -22.8 Q-15.0 -22.0 -15.0 -21.0 -15.0 -18.8 -8.2 -14.45 -1.35 -10.05 1.0 -10.75 L1.0 -13.0 -1.7 -17.55 -4.55 -22.75 -5.65 -24.3 -5.95 -24.5 -6.25 -24.5 -8.0 -24.75 -7.9 -25.25 -10.55 -25.15 Q-13.65 -24.55 -14.55 -22.8 M30.6 -10.25 L28.5 -2.7 Q26.9 2.9 26.3 7.2 35.55 14.8 36.25 14.8 44.8 14.8 47.6 11.5 48.85 10.05 48.85 7.5 L48.35 6.25 47.5 4.75 45.75 2.05 40.5 -3.1 34.3 -7.55 Q31.9 -9.2 30.6 -10.25 M1.3 12.45 L-1.0 12.95 -2.55 12.75 -7.45 17.75 Q-12.55 23.0 -15.5 24.0 -17.95 24.8 -18.4 26.8 L-19.0 30.25 -19.85 33.05 -20.4 35.15 -18.3 35.75 -14.9 36.75 -11.0 38.0 -9.2 38.35 -6.5 38.5 -3.95 38.4 Q-3.75 37.0 -3.0 35.2 -1.65 31.95 -1.3 30.5 -0.75 28.35 0.25 21.8 L1.2 13.25 1.3 12.45 M4.85 14.85 L15.0 15.45 15.0 15.35 Q15.0 4.15 15.2 1.0 6.65 0.95 4.0 -0.05 L4.0 4.3 Q4.0 8.7 3.3 14.9 L4.85 14.85 M1.9 24.65 Q0.45 33.85 -0.95 37.75 1.05 37.05 4.9 37.1 L14.55 37.05 15.05 34.75 Q15.55 32.75 15.5 31.75 L15.0 26.05 15.0 17.75 12.0 18.0 2.95 17.55 1.9 24.65" fill="#000000" fill-rule="evenodd" stroke="none"/>
      <path d="M16.3 -21.7 L15.75 -22.95 Q19.5 -22.5 21.85 -18.3 24.0 -14.4 24.0 -10.1 L24.0 -9.0 24.4 -8.5 21.0 -8.0 19.05 -7.55 19.5 -9.65 19.3 -11.05 19.0 -11.55 19.0 -12.15 Q19.0 -13.3 16.85 -19.85 L16.3 -21.7 M-15.4 -17.6 Q-13.8 -15.7 -10.55 -13.2 -4.3 -8.45 0.6 -8.05 L1.0 -5.85 1.5 -2.1 1.75 1.6 2.0 4.6 1.45 11.25 -4.75 10.15 Q-5.3 10.15 -5.5 11.25 L-7.8 15.0 -11.05 18.9 Q-13.1 20.8 -16.05 21.75 -18.85 22.6 -20.0 24.15 L-20.0 23.4 -21.0 11.65 -22.0 1.85 Q-22.0 -2.25 -18.25 -11.05 L-15.4 -17.6 M-22.25 32.8 L-22.55 33.9 -22.85 33.65 -22.25 32.8 M-23.1 -10.95 L-22.1 -14.15 -22.35 -13.5 -22.5 -12.75 -22.95 -11.55 -23.1 -10.95 M-17.25 -21.8 L-16.85 -22.3 -16.95 -21.65 -17.25 -21.8 M23.95 36.5 L19.85 37.25 16.5 37.25 Q17.95 32.25 17.65 25.35 17.0 17.6 17.0 13.55 L16.85 7.8 Q16.8 4.25 17.0 2.0 17.1 -0.25 18.0 -4.0 L18.45 -5.55 19.5 -5.5 Q23.4 -5.5 25.05 -6.45 L23.7 -5.9 22.5 -2.75 21.75 1.35 Q21.0 5.2 21.0 5.8 21.3 14.35 22.0 22.75 22.85 32.4 23.95 36.5 M26.05 -14.7 L28.75 -12.1 Q28.75 -9.9 26.4 -2.85 24.9 1.5 24.35 5.9 24.4 5.15 25.0 2.0 L26.0 -2.25 26.45 -3.0 Q28.45 -9.0 28.7 -11.4 28.05 -13.1 26.0 -14.65 L26.05 -14.7 M-5.65 -24.3 L-4.55 -22.75 -1.7 -17.55 1.0 -13.0 1.0 -10.75 Q-1.35 -10.05 -8.2 -14.45 -15.0 -18.8 -15.0 -21.0 -15.0 -22.0 -14.55 -22.8 -13.85 -22.45 -13.9 -21.85 L-14.0 -20.25 -12.75 -20.0 Q-12.5 -20.0 -8.8 -22.25 -6.6 -23.6 -5.65 -24.3 M1.3 12.45 L1.2 13.25 0.25 21.8 Q-0.75 28.35 -1.3 30.5 -1.65 31.95 -3.0 35.2 -3.75 37.0 -3.95 38.4 L-6.5 38.5 -9.2 38.35 -11.0 38.0 -14.9 36.75 -18.3 35.75 -20.4 35.15 -19.85 33.05 -19.0 30.25 -18.4 26.8 Q-17.95 24.8 -15.5 24.0 -12.55 23.0 -7.45 17.75 L-2.55 12.75 -1.0 12.95 1.3 12.45 M30.6 -10.25 Q31.9 -9.2 34.3 -7.55 L40.5 -3.1 45.75 2.05 47.5 4.75 48.35 6.25 48.85 7.5 Q48.85 10.05 47.6 11.5 44.8 14.8 36.25 14.8 35.55 14.8 26.3 7.2 26.9 2.9 28.5 -2.7 L30.6 -10.25" fill="#42353e" fill-rule="evenodd" stroke="none"/>
      <path d="M17.3 -9.85 Q16.0 -6.9 15.45 -1.6 L6.3 -2.1 Q4.75 -2.0 3.95 -1.55 L3.7 -4.9 Q3.45 -7.35 2.9 -8.65 L3.0 -11.4 Q3.0 -14.1 1.1 -18.15 -0.7 -22.0 -3.25 -25.1 L-4.05 -25.75 -4.0 -25.85 Q-2.8 -27.25 -0.75 -27.25 L13.0 -22.5 14.5 -19.15 Q17.0 -13.35 17.0 -12.3 L16.8 -10.9 Q16.65 -10.35 16.85 -10.0 L17.3 -9.85 M1.9 24.65 L2.95 17.55 12.0 18.0 15.0 17.75 15.0 26.05 15.5 31.75 Q15.55 32.75 15.05 34.75 L14.55 37.05 4.9 37.1 Q1.05 37.05 -0.95 37.75 0.45 33.85 1.9 24.65" fill="#da4505" fill-rule="evenodd" stroke="none"/>
      <path d="M4.85 14.85 L3.3 14.9 Q4.0 8.7 4.0 4.3 L4.0 -0.05 Q6.65 0.95 15.2 1.0 15.0 4.15 15.0 15.35 L15.0 15.45 4.85 14.85" fill="#cccccc" fill-rule="evenodd" stroke="none"/>
      <path d="M-15.4 -17.6 L-18.25 -11.05 Q-22.0 -2.25 -22.0 1.85 L-21.0 11.65 -20.0 23.4 -20.0 24.15 -20.3 24.65 -20.55 25.15 Q-21.0 26.4 -21.0 28.75 L-22.15 32.5 -22.15 32.55 -22.2 32.75 -22.25 32.8 -22.85 33.65 Q-24.5 32.05 -24.5 29.5 L-24.0 26.3 -23.5 23.1 -24.15 15.5 -24.8 7.25 -24.35 -0.65 -23.5 -8.5 -23.4 -9.15 -23.1 -10.95 -22.95 -11.55 -22.5 -12.75 -22.35 -13.5 -22.1 -14.15 -19.65 -18.65 -19.6 -18.75 -19.5 -18.85 -19.45 -18.95 -19.35 -19.05 -19.25 -19.15 -19.2 -19.25 -19.1 -19.4 -17.25 -21.8 -16.95 -21.65 -17.0 -20.95 -17.0 -20.9 -17.0 -20.85 Q-17.0 -19.5 -15.4 -17.6 M23.95 36.5 Q22.85 32.4 22.0 22.75 21.3 14.35 21.0 5.8 21.0 5.2 21.75 1.35 L22.5 -2.75 23.7 -5.9 25.05 -6.45 25.9 -7.2 26.0 -7.4 26.0 -10.0 25.8 -14.45 26.0 -14.65 Q28.05 -13.1 28.7 -11.4 28.45 -9.0 26.45 -3.0 L26.0 -2.25 25.0 2.0 Q24.4 5.15 24.35 5.9 24.0 8.65 24.0 11.4 L24.25 16.95 Q24.6 21.95 25.0 24.55 25.35 27.05 26.5 31.3 L26.75 34.75 26.95 36.05 26.75 36.0 24.15 36.45 23.95 36.5 M-5.65 -24.3 Q-6.6 -23.6 -8.8 -22.25 -12.5 -20.0 -12.75 -20.0 L-14.0 -20.25 -13.9 -21.85 Q-13.85 -22.45 -14.55 -22.8 -13.65 -24.55 -10.55 -25.15 L-7.9 -25.25 -8.0 -24.75 -6.25 -24.5 -5.95 -24.5 -5.65 -24.3" fill="#624f5a" fill-rule="evenodd" stroke="none"/>
    </g>
    <g id="shape2" transform="matrix(1.0, 0.0, 0.0, 1.0, 23.0, 27.65)">
      <path d="M9.8 -27.65 Q13.65 -27.75 17.0 -25.0 L16.6 -24.2 15.5 -23.1 28.0 -21.75 Q30.5 -21.15 30.5 -19.75 30.5 -19.05 29.85 -18.75 L27.0 -18.0 Q36.25 -13.9 37.75 -12.9 41.5 -10.5 41.5 -6.75 L41.5 -5.8 41.3 -5.25 39.6 -5.3 37.0 -5.75 Q38.0 -3.0 38.0 -1.5 38.0 2.5 36.25 2.5 34.4 2.5 33.75 1.8 L32.95 0.9 33.0 2.25 32.5 4.9 Q32.0 7.05 32.0 8.3 L32.0 14.75 Q32.0 16.55 31.15 20.9 L30.55 24.75 30.95 25.25 Q31.5 26.2 31.5 28.05 31.5 29.85 30.3 31.8 28.95 34.0 27.25 34.0 L25.8 33.85 24.15 33.65 24.3 33.8 22.75 33.55 22.3 33.5 22.3 33.45 7.3 30.75 Q4.4 30.15 1.55 28.95 -1.2 27.8 -1.85 27.0 -3.05 25.45 -4.25 24.55 L-6.05 23.8 -7.9 23.05 -11.35 25.25 Q-15.3 27.5 -16.5 27.5 -17.75 27.5 -18.5 25.25 L-19.0 22.95 -19.6 22.75 Q-23.0 -1.65 -23.0 -8.0 -23.0 -11.7 -22.25 -13.85 -21.15 -16.95 -18.1 -19.25 L-15.3 -20.85 Q-13.35 -21.8 -11.6 -23.25 L-9.0 -24.85 Q-6.7 -26.25 -4.95 -25.55 L-3.5 -24.6 1.8 -26.25 9.8 -27.65 M24.05 -20.25 L9.8 -21.0 9.65 -21.2 Q9.5 -21.4 9.5 -22.15 9.5 -22.8 10.15 -23.3 L12.0 -24.35 Q2.8 -24.7 -2.0 -22.65 L-4.75 -21.2 Q-5.9 -20.5 -6.75 -20.5 -8.15 -20.5 -8.15 -21.2 L-8.1 -22.5 Q-15.95 -18.8 -18.5 -15.85 -21.0 -13.05 -21.0 -8.0 L-20.65 -2.15 -19.55 7.9 Q-18.25 18.2 -17.55 21.65 -17.25 22.25 -17.05 23.0 L-16.5 24.8 -12.2 23.1 -9.35 21.8 -10.15 20.7 Q-11.0 19.25 -11.0 17.8 -11.0 15.25 -9.6 12.55 -7.5 8.5 -3.25 8.5 -0.6 8.5 1.25 12.0 3.05 15.45 1.5 17.25 L1.5 17.3 3.25 17.6 5.0 17.75 4.9 13.45 Q4.95 10.85 5.5 9.05 6.5 5.8 7.0 4.85 7.5 3.8 8.1 3.2 L8.0 3.05 8.0 0.8 8.25 0.65 9.25 0.5 Q10.45 0.5 10.45 1.15 10.5 2.25 11.5 3.05 13.25 4.45 16.5 4.75 L16.5 1.75 Q15.5 0.1 15.5 -1.25 L15.75 -1.35 16.75 -1.5 19.9 0.5 23.5 3.0 23.5 -1.6 23.65 -1.8 24.5 -2.0 Q25.4 -2.0 26.45 0.55 27.35 2.8 30.0 1.75 L30.0 -3.5 30.05 -3.75 31.0 -4.0 33.3 -2.2 Q35.3 -0.35 35.55 -0.35 L35.95 -0.45 36.0 -1.4 35.25 -4.05 Q34.55 -5.85 34.5 -6.55 L34.5 -6.65 34.5 -6.85 34.55 -7.5 34.75 -7.85 36.7 -8.0 39.0 -8.25 Q36.25 -11.85 30.8 -14.15 24.55 -16.45 21.55 -18.0 L21.55 -17.8 21.5 -18.55 Q21.5 -19.05 22.05 -19.3 L24.0 -20.0 24.3 -20.25 24.05 -20.25 M32.05 0.0 L32.1 0.35 32.4 0.3 32.05 0.0 M20.55 8.45 L20.5 8.25 20.5 8.1 20.35 7.3 20.05 7.25 Q18.75 7.25 17.55 7.9 L17.25 8.05 16.75 8.05 16.55 8.45 16.5 8.85 16.5 9.25 Q16.5 10.0 16.65 10.25 L16.8 10.5 17.4 10.5 17.5 10.75 19.0 11.0 Q19.8 11.0 20.15 10.55 L20.2 10.5 20.25 10.5 21.25 10.2 21.5 9.55 Q21.45 9.0 20.55 8.45 M24.05 26.05 L25.75 25.5 Q27.7 24.9 27.95 23.65 L28.6 23.45 Q28.75 21.6 29.2 19.9 29.75 17.55 29.95 14.0 24.65 14.2 7.25 17.9 6.7 20.0 4.5 20.0 -0.2 20.0 -0.5 18.8 0.0 16.45 0.0 14.1 0.0 13.6 -1.25 12.05 -2.45 10.55 -2.75 10.55 -5.9 10.55 -7.75 14.0 -9.0 16.3 -9.0 17.65 -9.0 20.15 -5.65 21.65 -1.25 23.65 0.0 25.25 0.9 26.4 5.8 27.85 11.7 29.55 20.6 30.5 20.0 29.25 20.0 27.9 L20.0 27.55 22.3 26.65 Q21.8 27.0 21.8 27.5 L22.0 28.65 22.0 28.7 21.95 28.85 21.95 28.9 Q22.6 29.05 23.3 29.55 24.5 30.35 24.5 31.15 L24.5 31.3 24.75 31.3 Q28.1 31.3 29.0 29.75 L29.25 27.8 Q29.25 27.35 28.85 27.15 28.2 26.75 27.5 25.8 L27.5 25.35 27.0 25.45 25.2 25.95 24.05 26.05" fill="#000000" fill-rule="evenodd" stroke="none"/>
      <path d="M20.55 8.45 Q21.45 9.0 21.5 9.55 L21.25 10.2 20.25 10.5 20.2 10.5 20.15 10.55 Q19.8 11.0 19.0 11.0 L17.5 10.75 17.4 10.5 16.8 10.5 16.65 10.25 Q16.5 10.0 16.5 9.25 L16.5 8.85 16.55 8.45 16.75 8.05 17.25 8.05 17.55 7.9 Q18.75 7.25 20.05 7.25 L20.35 7.3 20.5 8.1 20.5 8.25 20.55 8.45" fill="#ffffff" fill-rule="evenodd" stroke="none"/>
      <path d="M22.3 26.65 L20.0 27.55 20.0 27.9 Q20.0 29.25 20.6 30.5 11.7 29.55 5.8 27.85 0.9 26.4 0.0 25.25 -1.25 23.65 -5.65 21.65 -9.0 20.15 -9.0 17.65 -9.0 16.3 -7.75 14.0 -5.9 10.55 -2.75 10.55 -2.45 10.55 -1.25 12.05 0.0 13.6 0.0 14.1 0.0 16.45 -0.5 18.8 -0.2 20.0 4.5 20.0 6.7 20.0 7.25 17.9 24.65 14.2 29.95 14.0 29.75 17.55 29.2 19.9 28.75 21.6 28.6 23.45 L27.95 23.65 Q27.7 24.9 25.75 25.5 L24.05 26.05 24.0 26.05 22.3 26.65" fill="#c2865f" fill-rule="evenodd" stroke="none"/>
      <path d="M-20.65 -2.15 L-20.5 -2.15 Q-20.5 -1.35 -20.2 -1.2 L-19.5 -1.0 Q-17.65 -1.65 -16.3 -3.8 L-14.0 -6.85 -13.45 -5.1 Q-12.95 -4.0 -11.75 -4.0 -10.2 -4.0 -9.3 -5.5 L-8.0 -7.35 -8.0 -3.25 -6.5 -3.0 Q-5.45 -3.0 -2.45 -5.75 L0.8 -8.85 1.0 -4.75 2.25 -4.5 Q3.0 -4.5 4.65 -6.25 L7.25 -8.95 7.3 -9.0 7.5 -8.6 Q7.0 -8.05 7.15 -7.05 7.25 -6.0 8.0 -5.0 9.15 -5.2 10.6 -6.65 L12.3 -8.5 Q12.4 -7.75 12.65 -7.15 13.15 -6.0 14.25 -6.0 14.95 -6.0 15.6 -6.75 L17.05 -7.85 18.5 -6.0 Q19.15 -5.0 20.25 -5.0 21.4 -5.0 21.9 -6.0 L22.5 -7.5 23.05 -6.2 Q23.7 -5.0 25.0 -5.0 25.75 -5.0 26.2 -5.65 L27.0 -7.1 27.95 -6.05 Q28.55 -5.5 29.25 -5.5 29.9 -5.5 30.55 -6.3 L31.25 -7.35 31.95 -6.6 Q32.6 -6.0 33.5 -6.0 34.15 -6.0 34.25 -6.5 L34.5 -6.85 34.5 -6.65 34.5 -6.55 Q34.55 -5.85 35.25 -4.05 L36.0 -1.4 35.95 -0.45 35.55 -0.35 Q35.3 -0.35 33.3 -2.2 L31.0 -4.0 30.05 -3.75 30.0 -3.5 30.0 1.75 Q27.35 2.8 26.45 0.55 25.4 -2.0 24.5 -2.0 L23.65 -1.8 23.5 -1.6 23.5 3.0 19.9 0.5 16.75 -1.5 15.75 -1.35 15.5 -1.25 Q15.5 0.1 16.5 1.75 L16.5 4.75 Q13.25 4.45 11.5 3.05 10.5 2.25 10.45 1.15 10.45 0.5 9.25 0.5 L8.25 0.65 8.0 0.8 8.0 3.05 8.1 3.2 Q7.5 3.8 7.0 4.85 6.5 5.8 5.5 9.05 4.95 10.85 4.9 13.45 L5.0 17.75 3.25 17.6 1.5 17.3 1.5 17.25 Q3.05 15.45 1.25 12.0 -0.6 8.5 -3.25 8.5 -7.5 8.5 -9.6 12.55 -11.0 15.25 -11.0 17.8 -11.0 19.25 -10.15 20.7 L-9.35 21.8 -12.2 23.1 -16.5 24.8 -17.05 23.0 Q-17.25 22.25 -17.55 21.65 -18.25 18.2 -19.55 7.9 L-20.65 -2.15 M9.55 -8.6 L9.5 -8.75 9.6 -8.65 9.55 -8.6 M-5.85 -5.7 L-6.0 -5.6 -6.0 -5.85 -5.85 -5.7" fill="#291f1b" fill-rule="evenodd" stroke="none"/>
      <path d="M-20.65 -2.15 L-21.0 -8.0 Q-21.0 -13.05 -18.5 -15.85 -15.95 -18.8 -8.1 -22.5 L-8.15 -21.2 Q-8.15 -20.5 -6.75 -20.5 -5.9 -20.5 -4.75 -21.2 L-2.0 -22.65 Q2.8 -24.7 12.0 -24.35 L10.15 -23.3 Q9.5 -22.8 9.5 -22.15 9.5 -21.4 9.65 -21.2 L9.8 -21.0 24.05 -20.25 24.0 -20.0 22.05 -19.3 Q21.5 -19.05 21.5 -18.55 L21.55 -17.8 21.55 -18.0 Q24.55 -16.45 30.8 -14.15 36.25 -11.85 39.0 -8.25 L36.7 -8.0 34.75 -7.85 34.55 -7.5 34.5 -6.85 34.25 -6.5 Q34.15 -6.0 33.5 -6.0 32.6 -6.0 31.95 -6.6 L31.25 -7.35 30.55 -6.3 Q29.9 -5.5 29.25 -5.5 28.55 -5.5 27.95 -6.05 L27.0 -7.1 26.2 -5.65 Q25.75 -5.0 25.0 -5.0 23.7 -5.0 23.05 -6.2 L22.5 -7.5 21.9 -6.0 Q21.4 -5.0 20.25 -5.0 19.15 -5.0 18.5 -6.0 L17.05 -7.85 15.6 -6.75 Q14.95 -6.0 14.25 -6.0 13.15 -6.0 12.65 -7.15 12.4 -7.75 12.3 -8.5 L10.6 -6.65 Q9.15 -5.2 8.0 -5.0 7.25 -6.0 7.15 -7.05 7.0 -8.05 7.5 -8.6 L7.3 -9.0 7.25 -8.95 4.65 -6.25 Q3.0 -4.5 2.25 -4.5 L1.0 -4.75 0.8 -8.85 -2.45 -5.75 Q-5.45 -3.0 -6.5 -3.0 L-8.0 -3.25 -8.0 -7.35 -9.3 -5.5 Q-10.2 -4.0 -11.75 -4.0 -12.95 -4.0 -13.45 -5.1 L-14.0 -6.85 -16.3 -3.8 Q-17.65 -1.65 -19.5 -1.0 L-20.2 -1.2 Q-20.5 -1.35 -20.5 -2.15 L-20.65 -2.15 M9.55 -8.6 L9.6 -8.65 9.5 -8.75 9.55 -8.6 M22.3 26.65 L24.0 26.05 24.05 26.05 25.2 25.95 27.0 25.45 27.5 25.35 27.5 25.8 Q28.2 26.75 28.85 27.15 29.25 27.35 29.25 27.8 L29.0 29.75 Q28.1 31.3 24.75 31.3 L24.5 31.3 24.5 31.15 Q24.5 30.35 23.3 29.55 22.6 29.05 21.95 28.9 L22.0 28.7 22.0 28.65 21.8 27.5 Q21.8 27.0 22.3 26.65 M-5.85 -5.7 L-6.0 -5.85 -6.0 -5.6 -5.85 -5.7" fill="#392b24" fill-rule="evenodd" stroke="none"/>
    </g>
    <g id="shape3" transform="matrix(1.0, 0.0, 0.0, 1.0, 18.5, 29.35)">
      <path d="M3.35 -27.15 L-14.65 -26.15 -15.0 -25.5 -15.5 -24.35 -15.5 -21.9 Q-14.5 -4.1 -14.5 4.5 -14.5 13.2 -13.5 30.3 L-13.7 30.85 -12.85 31.25 Q-7.55 33.0 -1.15 32.2 L7.2 31.05 7.1 29.15 7.5 25.25 Q7.5 23.2 6.65 19.05 5.85 15.15 6.0 12.05 6.75 3.5 6.5 -1.0 6.0 -11.25 6.0 -14.1 L6.0 -20.85 5.5 -24.3 5.0 -27.05 3.35 -27.15 M6.45 -28.55 Q7.15 -28.45 7.45 -27.6 L7.55 -25.25 7.8 -8.3 8.0 11.05 Q8.0 13.4 8.75 18.7 L9.5 25.1 9.25 28.25 9.0 32.5 8.0 33.0 7.8 32.7 Q7.35 33.25 5.95 33.5 L-5.75 34.0 -15.0 33.5 Q-16.0 33.2 -16.0 32.05 L-15.95 31.3 -16.1 31.25 -16.0 22.0 Q-16.0 14.95 -16.75 -0.5 -17.5 -15.95 -17.5 -22.0 L-17.95 -24.95 -17.75 -26.0 -18.1 -26.0 -18.3 -26.1 Q-18.5 -26.25 -18.5 -27.0 -18.5 -27.75 -17.35 -28.1 -15.55 -28.75 -10.0 -29.25 L-5.2 -29.35 6.05 -29.0 Q6.2 -28.9 6.3 -28.85 L6.45 -28.55 M4.0 -19.1 L3.5 -10.3 4.5 6.85 4.4 13.25 4.5 13.5 4.35 13.6 4.3 14.55 3.5 15.0 3.1 14.05 -2.0 14.5 Q-11.35 14.5 -12.5 12.6 -12.9 11.95 -12.5 10.75 L-12.0 8.85 -12.45 5.6 -13.0 1.3 -13.0 -6.1 Q-13.0 -11.0 -13.5 -20.55 -13.5 -22.15 -13.3 -22.45 -12.9 -23.25 -11.3 -22.85 L-10.0 -23.5 -3.9 -23.85 3.0 -23.5 Q4.15 -22.65 4.2 -21.35 L4.0 -19.1 M-11.25 -14.4 L-10.8 -4.0 -10.1 11.75 -1.55 12.05 2.65 12.45 Q2.0 10.0 1.95 6.7 L2.0 -1.75 Q1.35 -11.15 2.0 -18.25 L2.0 -21.25 Q-0.7 -21.7 -5.2 -21.4 L-11.35 -21.0 -11.5 -20.5 -11.25 -14.6 -11.25 -14.4 M2.0 19.55 L-2.5 19.8 -9.1 20.0 -9.0 28.3 -6.4 28.15 Q-3.75 28.0 1.5 28.0 1.5 25.55 2.0 24.5 L2.0 19.55 M4.0 22.0 L3.5 27.8 3.35 29.4 Q3.15 30.4 2.5 30.5 L-4.0 30.85 -9.75 31.0 -11.0 30.75 -11.25 24.25 -11.5 19.6 Q-11.5 17.75 -10.5 17.6 L-3.5 17.5 3.8 17.75 4.0 22.0" fill="#000000" fill-rule="evenodd" stroke="none"/>
      <path d="M3.35 -27.15 L5.0 -27.05 5.5 -24.3 6.0 -20.85 6.0 -14.1 Q6.0 -11.25 6.5 -1.0 6.75 3.5 6.0 12.05 5.85 15.15 6.65 19.05 7.5 23.2 7.5 25.25 L7.1 29.15 7.2 31.05 -1.15 32.2 Q-7.55 33.0 -12.85 31.25 L-13.7 30.85 -13.5 30.3 Q-14.5 13.2 -14.5 4.5 -14.5 -4.1 -15.5 -21.9 L-15.5 -24.35 -15.0 -25.5 -14.65 -26.15 3.35 -27.15 M4.0 -19.1 L4.2 -21.35 Q4.15 -22.65 3.0 -23.5 L-3.9 -23.85 -10.0 -23.5 -11.3 -22.85 Q-12.9 -23.25 -13.3 -22.45 -13.5 -22.15 -13.5 -20.55 -13.0 -11.0 -13.0 -6.1 L-13.0 1.3 -12.45 5.6 -12.0 8.85 -12.5 10.75 Q-12.9 11.95 -12.5 12.6 -11.35 14.5 -2.0 14.5 L3.1 14.05 3.5 15.0 4.3 14.55 4.35 13.6 4.5 13.5 4.4 13.25 4.5 6.85 3.5 -10.3 4.0 -19.1 M4.0 22.0 L3.8 17.75 -3.5 17.5 -10.5 17.6 Q-11.5 17.75 -11.5 19.6 L-11.25 24.25 -11.0 30.75 -9.75 31.0 -4.0 30.85 2.5 30.5 Q3.15 30.4 3.35 29.4 L3.5 27.8 4.0 22.0" fill="#333333" fill-rule="evenodd" stroke="none"/>
      <path d="M-11.25 -14.6 L-11.5 -20.5 -11.35 -21.0 -5.2 -21.4 Q-0.7 -21.7 2.0 -21.25 L2.0 -18.25 Q1.35 -11.15 2.0 -1.75 L1.95 6.7 Q2.0 10.0 2.65 12.45 L-1.55 12.05 -10.1 11.75 -10.8 -4.0 -11.25 -14.4 -7.4 -13.95 -7.05 -8.75 -10.5 -8.85 -10.9 -9.15 -11.0 -8.5 -10.85 -7.7 -10.75 -7.85 -6.95 -7.75 -6.6 -2.3 -7.15 -2.3 -8.5 -2.0 -6.6 -1.75 -6.5 3.75 -9.0 4.0 -6.5 4.4 -6.5 5.05 -6.65 8.2 -8.0 8.15 Q-9.4 8.15 -9.5 8.5 L-6.7 8.75 Q-6.65 11.2 -5.25 11.8 L-5.0 11.5 -5.15 8.75 -4.5 8.75 -1.8 8.75 -1.75 9.8 -0.5 9.5 -0.55 8.7 0.5 8.5 -0.6 8.45 -0.9 4.75 1.0 4.5 -0.95 4.15 -1.5 -1.7 0.5 -2.0 -1.5 -2.1 -2.05 -7.65 -0.5 -7.6 Q0.75 -7.6 0.5 -8.0 L-2.1 -8.45 -2.05 -7.85 -2.65 -13.65 -0.5 -13.6 Q0.75 -13.6 0.5 -14.0 L-2.85 -15.9 -3.25 -19.35 -3.85 -19.35 -4.0 -17.1 -4.0 -16.2 -5.2 -16.4 -6.5 -16.35 -6.75 -20.35 -7.35 -20.35 -7.5 -16.2 Q-9.3 -15.8 -11.25 -14.6 M0.25 23.55 L0.3 23.3 Q-0.05 23.05 -1.05 22.85 L-1.0 21.75 -1.05 20.85 -1.25 20.55 -1.85 20.55 -2.25 22.5 -2.25 22.65 -4.05 22.4 -4.7 22.35 -4.65 22.8 Q-4.9 21.45 -5.25 20.55 L-5.85 20.55 -5.9 20.55 -6.0 21.35 -5.95 22.2 -8.0 22.05 -7.8 22.75 -7.6 23.3 -5.85 23.4 -5.55 24.7 -7.35 24.55 -7.5 25.0 -5.25 25.55 -4.5 26.8 -4.1 26.45 -4.0 26.25 -4.1 25.8 -2.4 26.1 -2.0 26.8 -1.6 26.55 -1.55 26.25 -1.0 26.3 Q0.25 26.3 0.0 26.0 L-0.25 25.55 -1.35 25.25 -1.45 25.75 -1.15 23.75 0.0 24.0 0.25 23.55 M2.0 19.55 L2.0 24.5 Q1.5 25.55 1.5 28.0 -3.75 28.0 -6.4 28.15 L-9.0 28.3 -9.1 20.0 -2.5 19.8 2.0 19.55 M-3.1 -3.65 L-2.95 -2.2 -5.75 -2.3 -6.05 -7.7 -3.5 -7.65 -3.1 -3.65 M-4.0 -1.7 L-2.9 -1.7 -2.3 4.0 -5.4 3.75 -5.7 -1.7 -4.0 -1.7 M-6.4 -13.9 L-6.35 -13.9 -3.9 -13.75 -3.55 -8.55 -6.1 -8.7 -6.4 -13.9 M-2.25 4.2 L-1.85 8.4 -5.15 8.25 -5.35 4.55 -3.75 4.8 -2.2 4.8 -2.25 4.2 M-2.4 23.6 L-2.5 24.5 -2.5 25.05 -4.05 24.85 -4.25 24.85 -4.55 23.45 -2.4 23.6" fill="#666666" fill-rule="evenodd" stroke="none"/>
      <path d="M-11.25 -14.6 Q-9.3 -15.8 -7.5 -16.2 L-7.35 -20.35 -6.75 -20.35 -6.5 -16.35 -5.2 -16.4 -4.0 -16.2 -4.0 -17.1 -3.85 -19.35 -3.25 -19.35 -2.85 -15.9 0.5 -14.0 Q0.75 -13.6 -0.5 -13.6 L-2.65 -13.65 -2.05 -7.85 -2.1 -8.45 0.5 -8.0 Q0.75 -7.6 -0.5 -7.6 L-2.05 -7.65 -1.5 -2.1 0.5 -2.0 -1.5 -1.7 -0.95 4.15 1.0 4.5 -0.9 4.75 -0.6 8.45 0.5 8.5 -0.55 8.7 -0.5 9.5 -1.75 9.8 -1.8 8.75 -4.5 8.75 -5.15 8.75 -5.0 11.5 -5.25 11.8 Q-6.65 11.2 -6.7 8.75 L-9.5 8.5 Q-9.4 8.15 -8.0 8.15 L-6.65 8.2 -6.5 5.05 -6.5 4.4 -9.0 4.0 -6.5 3.75 -6.6 -1.75 -8.5 -2.0 -7.15 -2.3 -6.6 -2.3 -6.95 -7.75 -10.75 -7.85 -10.85 -7.7 -11.0 -8.5 -10.9 -9.15 -10.5 -8.85 -7.05 -8.75 -7.4 -13.95 -11.25 -14.4 -11.25 -14.6 M0.25 23.55 L0.0 24.0 -1.15 23.75 -1.45 25.75 -1.35 25.25 -0.25 25.55 0.0 26.0 Q0.25 26.3 -1.0 26.3 L-1.55 26.25 -1.6 26.55 -2.0 26.8 -2.4 26.1 -4.1 25.8 -4.0 26.25 -4.1 26.45 -4.5 26.8 -5.25 25.55 -7.5 25.0 -7.35 24.55 -5.55 24.7 -5.85 23.4 -7.6 23.3 -7.8 22.75 -8.0 22.05 -5.95 22.2 -6.0 21.35 -5.9 20.55 -5.85 20.55 -5.25 20.55 Q-4.9 21.45 -4.65 22.8 L-4.7 22.35 -4.05 22.4 -2.25 22.65 -2.25 22.5 -1.85 20.55 -1.25 20.55 -1.05 20.85 -1.0 21.75 -1.05 22.85 Q-0.05 23.05 0.3 23.3 L0.25 23.55 M-6.4 -13.9 L-6.1 -8.7 -3.55 -8.55 -3.9 -13.75 -6.35 -13.9 -6.4 -13.9 M-4.0 -1.7 L-5.7 -1.7 -5.4 3.75 -2.3 4.0 -2.9 -1.7 -4.0 -1.7 M-3.1 -3.65 L-3.5 -7.65 -6.05 -7.7 -5.75 -2.3 -2.95 -2.2 -3.1 -3.65 M-2.25 4.2 L-2.2 4.8 -3.75 4.8 -5.35 4.55 -5.15 8.25 -1.85 8.4 -2.25 4.2 M-2.4 23.6 L-4.55 23.45 -4.25 24.85 -4.05 24.85 -2.5 25.05 -2.5 24.5 -2.4 23.6" fill="#999999" fill-rule="evenodd" stroke="none"/>
    </g>
    <g id="shape4" transform="matrix(1.0, 0.0, 0.0, 1.0, 5.5, 24.65)">
      <path d="M6.75 -12.7 L5.3 -13.05 Q4.25 -13.05 3.4 -12.45 2.35 -11.7 2.35 -10.5 L3.6 -7.7 Q4.8 -4.75 4.8 -2.55 L4.05 -0.1 3.3 -1.2 1.9 -3.6 1.7 -3.55 1.3 -4.3 0.9 -5.1 -0.25 -7.3 Q-3.3 -13.15 -3.3 -15.45 L-2.65 -18.9 Q-1.6 -22.25 0.55 -22.25 4.25 -22.25 10.9 -16.0 14.3 -12.8 17.05 -9.45 L20.0 -5.25 22.55 -1.4 Q23.25 -0.15 23.7 3.55 23.9 5.45 24.25 6.65 L24.25 6.75 23.75 7.5 Q23.3 8.35 22.2 8.35 18.7 8.0 17.05 8.3 14.85 8.6 12.0 10.3 L10.6 11.3 7.35 6.2 5.4 3.0 6.3 -0.95 Q7.0 -6.35 7.0 -9.45 L6.75 -12.7" fill="#42353e" fill-rule="evenodd" stroke="none"/>
      <path d="M6.75 -12.7 L7.0 -9.45 Q7.0 -6.35 6.3 -0.95 L5.4 3.0 7.35 6.2 10.6 11.3 12.0 10.3 Q14.85 8.6 17.05 8.3 18.7 8.0 22.2 8.35 23.3 8.35 23.75 7.5 L24.25 6.75 24.25 6.65 Q23.9 5.45 23.7 3.55 23.25 -0.15 22.55 -1.4 L20.0 -5.25 17.05 -9.45 Q14.3 -12.8 10.9 -16.0 4.25 -22.25 0.55 -22.25 -1.6 -22.25 -2.65 -18.9 L-3.3 -15.45 Q-3.3 -13.15 -0.25 -7.3 L0.9 -5.1 1.3 -4.3 1.7 -3.55 1.9 -3.6 3.3 -1.2 4.05 -0.1 4.8 -2.55 Q4.8 -4.75 3.6 -7.7 L2.35 -10.5 Q2.35 -11.7 3.4 -12.45 4.25 -13.05 5.3 -13.05 L6.75 -12.7 M1.75 -0.3 L1.4 -1.5 Q0.85 -2.9 -0.2 -3.4 L-0.95 -4.85 -2.25 -7.65 -5.5 -15.1 Q-5.5 -18.25 -3.8 -21.2 -1.9 -24.65 0.85 -24.65 5.1 -24.65 11.85 -18.35 16.55 -13.95 18.2 -11.45 L24.4 -3.05 Q26.45 0.5 26.45 6.15 L26.2 7.7 25.75 9.3 Q26.75 10.55 27.0 14.3 L27.05 20.9 27.05 21.4 28.55 21.25 29.2 21.35 Q28.7 22.0 28.65 22.9 30.0 24.5 31.55 27.4 34.75 33.4 34.75 36.3 34.75 37.3 35.35 39.15 L36.4 43.1 36.35 43.35 37.4 45.15 40.15 50.0 41.3 52.5 42.4 54.7 45.6 61.9 Q48.65 68.95 49.95 70.65 L50.5 72.1 51.0 73.55 53.3 78.4 55.4 82.95 Q56.15 83.95 59.3 91.9 62.45 99.9 64.6 102.7 65.7 104.15 66.25 105.95 66.8 107.85 68.35 109.9 L70.55 114.05 71.9 117.05 Q72.35 117.6 72.6 118.65 L73.1 120.35 73.85 121.3 74.9 122.45 76.15 124.75 77.4 127.0 83.25 135.9 86.0 140.4 88.7 144.9 88.9 145.1 89.65 145.35 90.1 146.5 90.3 147.1 92.6 153.25 93.8 157.95 Q94.85 162.65 95.15 163.0 95.6 163.65 98.2 171.95 98.7 173.3 100.15 176.25 L100.8 177.9 Q105.0 175.65 110.1 179.1 113.1 181.25 116.0 185.0 116.35 185.5 116.65 188.15 L117.1 188.7 117.4 189.55 116.8 190.15 116.85 191.5 Q117.1 197.3 119.45 200.4 119.8 200.8 119.3 203.45 L118.45 206.7 Q117.45 209.15 115.3 210.45 L110.35 212.65 Q107.65 213.85 104.3 213.35 100.8 212.75 99.35 210.8 98.55 209.85 98.45 206.9 98.25 204.25 98.6 202.5 98.95 200.3 97.95 198.5 L96.0 195.7 Q94.9 194.1 95.9 187.55 96.95 181.65 98.95 179.35 95.65 174.6 92.25 160.8 89.1 147.8 86.0 145.8 L85.55 145.2 Q85.45 145.0 85.85 144.7 L83.95 141.65 81.6 137.75 79.0 133.8 Q77.75 131.5 75.6 128.7 72.9 125.2 69.2 116.5 65.4 107.75 63.25 105.0 62.7 104.25 59.8 97.95 L56.85 91.8 Q56.4 91.2 55.65 88.9 55.05 86.65 54.0 85.3 53.3 84.4 50.3 77.4 47.3 70.4 45.9 68.6 L44.55 65.15 Q43.4 62.1 42.3 60.75 L40.1 55.4 Q37.65 49.8 36.4 48.15 L34.8 45.35 33.85 43.55 33.75 43.55 33.8 42.8 Q33.8 40.7 33.45 39.3 33.05 36.2 31.4 32.05 29.2 26.45 26.65 24.05 L26.4 24.45 Q25.45 25.75 22.45 25.75 16.6 25.75 12.7 24.35 7.8 22.55 7.8 19.0 L7.95 16.9 7.35 16.8 5.15 16.2 Q3.95 15.45 3.8 14.65 L3.5 13.05 Q2.7 11.0 2.7 6.55 2.7 4.5 3.25 2.45 L2.45 -0.2 1.95 -0.2 Q1.85 -0.2 1.75 -0.3 M23.45 10.75 L19.3 10.2 17.1 10.05 Q15.75 10.3 12.95 12.55 L10.25 14.55 10.4 17.3 Q10.5 20.2 11.1 21.45 11.45 22.2 15.95 22.9 L22.0 23.5 24.5 23.2 24.45 17.05 24.3 12.35 24.4 10.55 23.45 10.75 M5.25 11.65 Q6.15 13.9 8.35 15.2 L9.05 13.8 9.05 13.5 Q9.05 13.0 9.4 12.5 6.95 9.8 5.1 6.55 L4.75 5.9 4.55 7.45 Q4.55 9.95 5.25 11.65 M100.7 199.25 L100.5 198.45 Q100.5 197.9 101.1 197.4 L106.75 194.9 114.6 189.1 Q114.45 186.45 114.1 185.95 111.6 182.75 108.95 180.95 104.7 178.0 101.7 180.35 99.5 182.0 98.45 185.15 L97.45 189.6 Q96.9 192.35 97.65 194.05 L99.25 196.3 Q100.15 197.45 100.55 199.35 100.9 201.15 100.8 203.8 100.55 209.1 100.9 209.6 103.35 212.75 109.15 210.85 111.45 210.2 113.1 208.75 114.45 207.6 115.4 206.1 116.55 204.25 117.1 201.85 L115.9 198.05 114.75 194.4 114.7 191.9 Q111.55 194.4 108.5 196.2 L108.1 196.45 108.15 196.5 113.45 204.8 Q114.65 206.3 112.65 207.7 L112.5 207.95 111.8 207.4 110.4 204.35 108.8 201.0 Q107.05 198.75 106.45 197.3 103.1 199.1 100.7 199.25" fill="#000000" fill-rule="evenodd" stroke="none"/>
      <path d="M23.45 10.75 L24.4 10.55 24.3 12.35 24.45 17.05 24.5 23.2 22.0 23.5 15.95 22.9 Q11.45 22.2 11.1 21.45 10.5 20.2 10.4 17.3 L10.25 14.55 12.95 12.55 Q15.75 10.3 17.1 10.05 L19.3 10.2 23.45 10.75" fill="#c2865f" fill-rule="evenodd" stroke="none"/>
      <path d="M100.55 199.35 L100.7 199.25 Q103.1 199.1 106.45 197.3 107.05 198.75 108.8 201.0 L110.4 204.35 111.8 207.4 112.5 207.95 112.65 207.7 Q114.65 206.3 113.45 204.8 L108.15 196.5 108.1 196.45 108.5 196.2 Q111.55 194.4 114.7 191.9 L114.75 194.4 115.9 198.05 117.1 201.85 Q116.55 204.25 115.4 206.1 114.45 207.6 113.1 208.75 111.45 210.2 109.15 210.85 103.35 212.75 100.9 209.6 100.55 209.1 100.8 203.8 100.9 201.15 100.55 199.35" fill="#cccccc" fill-rule="evenodd" stroke="none"/>
      <path d="M100.55 199.35 Q100.15 197.45 99.25 196.3 L97.65 194.05 Q96.9 192.35 97.45 189.6 L98.45 185.15 Q99.5 182.0 101.7 180.35 104.7 178.0 108.95 180.95 111.6 182.75 114.1 185.95 114.45 186.45 114.6 189.1 L106.75 194.9 101.1 197.4 Q100.5 197.9 100.5 198.45 L100.7 199.25 100.55 199.35" fill="#333333" fill-rule="evenodd" stroke="none"/>
    </g>
  </defs>
</svg>
