<?xml version="1.0" encoding="UTF-8" standalone="no"?>
<svg xmlns:ffdec="https://www.free-decompiler.com/flash" xmlns:xlink="http://www.w3.org/1999/xlink" ffdec:objectType="frame" height="115.35px" width="209.15px" xmlns="http://www.w3.org/2000/svg">
  <g transform="matrix(1.0, 0.0, 0.0, 1.0, 105.55, 89.3)">
    <use ffdec:characterId="927" height="69.5" transform="matrix(1.0, 0.0, 0.0, 1.0, -79.0, -68.1)" width="155.95" xlink:href="#shape0"/>
    <use ffdec:characterId="757" height="20.45" transform="matrix(0.3836, 0.0, 0.0, 0.3836, -69.0128, -58.3779)" width="20.45" xlink:href="#shape1"/>
    <use ffdec:characterId="758" height="15.65" transform="matrix(0.3836, 0.0, 0.0, 0.3836, -67.5198, -57.7328)" width="20.5" xlink:href="#text0"/>
    <use ffdec:characterId="928" height="15.75" id="cost1" transform="matrix(1.0, 0.0, 0.0, 1.0, -60.3, -61.95)" width="30.85" xlink:href="#text1"/>
    <use ffdec:characterId="929" height="17.0" transform="matrix(1.0, 0.0, 0.0, 1.0, -21.45, -63.45)" width="41.65" xlink:href="#shape2"/>
    <use ffdec:characterId="757" height="20.45" transform="matrix(0.3836, 0.0, 0.0, 0.3836, -18.9628, -58.3779)" width="20.45" xlink:href="#shape1"/>
    <use ffdec:characterId="758" height="15.65" transform="matrix(0.3836, 0.0, 0.0, 0.3836, -17.4698, -57.7328)" width="20.5" xlink:href="#text0"/>
    <use ffdec:characterId="930" height="15.75" id="cost2" transform="matrix(1.0, 0.0, 0.0, 1.0, -11.05, -61.95)" width="30.85" xlink:href="#text2"/>
    <use ffdec:characterId="929" height="17.0" transform="matrix(1.0, 0.0, 0.0, 1.0, 28.05, -63.45)" width="41.65" xlink:href="#shape2"/>
    <use ffdec:characterId="757" height="20.45" transform="matrix(0.3836, 0.0, 0.0, 0.3836, 30.3872, -58.3779)" width="20.45" xlink:href="#shape1"/>
    <use ffdec:characterId="758" height="15.65" transform="matrix(0.3836, 0.0, 0.0, 0.3836, 31.8802, -57.7328)" width="20.5" xlink:href="#text0"/>
    <use ffdec:characterId="931" height="15.75" id="cost3" transform="matrix(1.0, 0.0, 0.0, 1.0, 38.7, -61.95)" width="30.85" xlink:href="#text3"/>
    <use ffdec:characterId="1008" ffdec:characterName="Army_fla.Hud_Button_149" height="135.65" id="but1" transform="matrix(0.85, 0.0, 0.0, 0.85, -105.5496, -89.2895)" width="129.65" xlink:href="#sprite0"/>
    <use ffdec:characterId="1008" ffdec:characterName="Army_fla.Hud_Button_149" height="135.65" id="but2" transform="matrix(0.85, 0.0, 0.0, 0.85, -56.0496, -89.2395)" width="129.65" xlink:href="#sprite0"/>
    <use ffdec:characterId="1008" ffdec:characterName="Army_fla.Hud_Button_149" height="135.65" id="but3" transform="matrix(0.85, 0.0, 0.0, 0.85, -6.5996, -89.2395)" width="129.65" xlink:href="#sprite0"/>
  </g>
  <defs>
    <g id="shape0" transform="matrix(1.0, 0.0, 0.0, 1.0, 79.0, 68.1)">
      <path d="M58.05 -66.4 L58.0 -66.5 57.85 -66.5 57.85 -66.4 41.8 -66.15 41.75 -66.5 41.6 -66.5 41.6 -66.15 38.1 -66.15 19.25 -66.1 19.5 -66.5 19.0 -66.1 13.65 -66.1 13.25 -66.55 13.1 -66.5 13.35 -66.1 -0.4 -66.1 -21.45 -66.1 -21.4 -66.25 -21.8 -66.25 -21.8 -66.1 -36.55 -66.1 -44.1 -66.1 -44.15 -66.5 -44.3 -66.5 -44.3 -66.1 -55.25 -66.15 -54.4 -67.0 -55.45 -66.15 -74.75 -66.2 -77.9 -66.7 Q-77.25 -60.7 -77.05 -50.0 L-77.0 -38.55 -77.05 -38.5 -77.0 -38.4 -77.0 -33.5 -77.05 -10.3 -77.3 -10.3 -77.05 -10.1 -77.05 -5.3 -77.1 -1.65 -77.7 0.15 Q-69.8 -0.35 -53.05 -0.5 L-53.05 -0.25 -53.0 -0.15 -52.8 -0.25 -52.8 -0.5 -49.45 -0.55 -42.8 -0.55 -42.75 0.5 -42.55 0.4 -42.55 -0.55 -6.15 -0.6 -4.85 -0.6 -4.05 0.0 -4.65 -0.6 38.1 -0.55 37.6 0.5 37.75 0.5 38.35 -0.55 40.0 -0.55 54.85 -0.4 54.85 0.0 55.1 0.0 55.1 -0.4 69.15 -0.15 69.1 0.0 69.25 0.0 69.35 -0.15 75.9 0.15 Q75.4 -2.15 75.2 -7.5 L75.85 -7.4 75.2 -7.55 75.0 -13.25 75.0 -15.45 75.75 -16.0 75.0 -15.55 74.95 -31.8 74.95 -32.95 75.6 -33.15 75.0 -33.3 75.0 -33.25 74.95 -33.25 74.95 -42.95 75.85 -42.75 74.95 -43.3 75.0 -48.3 76.0 -49.25 75.0 -48.5 75.0 -51.55 Q75.15 -63.45 75.7 -66.95 L58.05 -66.4 M76.05 -67.35 L76.9 -67.3 76.9 -67.0 76.1 -66.95 Q76.7 -61.05 76.9 -50.75 L76.95 -34.25 76.85 -2.4 Q76.7 -2.4 76.05 0.15 L76.65 0.2 76.6 0.5 Q62.65 1.15 38.1 1.35 L-0.4 1.4 -74.75 1.3 -77.9 0.8 -78.0 1.2 -78.05 0.8 -78.5 0.75 -78.5 0.5 -78.5 0.2 -78.15 0.15 -78.7 -5.3 -78.95 -12.5 -79.0 -31.05 -78.95 -50.8 Q-78.75 -63.7 -78.15 -66.7 L-78.65 -66.75 -78.55 -67.3 Q-69.9 -67.9 -49.45 -68.05 L-36.55 -68.05 -6.15 -68.1 40.0 -68.05 Q67.45 -67.9 75.8 -67.35 L75.95 -68.1 76.05 -67.35" fill="#473a29" fill-rule="evenodd" stroke="none"/>
      <path d="M57.85 -66.4 L57.85 -66.5 58.0 -66.5 58.05 -66.4 58.1 -65.9 Q58.1 -64.95 56.65 -62.45 L55.0 -59.65 54.95 -59.6 54.85 -60.0 56.35 -62.6 Q57.8 -65.05 57.85 -66.4 M75.0 -48.5 L76.0 -49.25 75.0 -48.3 72.05 -45.55 71.0 -44.55 73.7 -43.85 74.95 -43.3 75.85 -42.75 74.95 -42.95 73.95 -43.3 70.85 -44.4 68.5 -41.9 68.35 -41.9 Q69.2 -43.4 71.75 -45.8 L75.0 -48.5 M74.95 -33.25 L75.0 -33.25 75.0 -33.3 75.6 -33.15 74.95 -32.95 67.5 -32.05 67.3 -31.9 Q67.1 -31.85 67.1 -32.25 L74.95 -33.25 M75.0 -15.55 L75.75 -16.0 75.0 -15.45 73.1 -13.9 72.0 -12.8 71.6 -12.2 68.5 -12.05 67.85 -12.15 70.25 -12.7 Q72.0 -13.15 72.75 -14.0 L74.35 -15.15 75.0 -15.55 M75.2 -7.55 L75.85 -7.4 75.2 -7.5 Q73.1 -7.85 72.6 -9.3 72.45 -11.35 71.85 -12.25 L72.0 -12.25 Q72.55 -11.55 72.85 -9.6 73.4 -8.15 75.2 -7.55 M69.35 -0.15 L69.25 0.0 69.1 0.0 69.15 -0.15 Q69.6 -1.7 71.0 -4.4 L71.95 -6.85 Q72.6 -8.35 73.35 -8.05 72.25 -6.5 71.1 -4.15 L69.35 -0.15 M55.1 -0.4 L55.1 0.0 54.85 0.0 54.85 -0.4 54.6 -2.75 54.75 -2.75 54.85 -2.1 55.1 -1.5 55.1 -0.4 M38.35 -0.55 L37.75 0.5 37.6 0.5 38.1 -0.55 39.0 -2.3 Q39.95 -4.2 39.85 -5.0 L40.0 -5.0 40.1 -4.4 Q40.1 -3.75 38.35 -0.55 M-4.65 -0.6 L-4.05 0.0 -4.85 -0.6 Q-5.45 -1.15 -5.85 -2.05 -6.4 -3.2 -6.55 -4.5 L-6.4 -4.5 -5.6 -2.15 -4.65 -0.6 M-42.55 -0.55 L-42.55 0.4 -42.75 0.5 -42.8 -0.55 -43.05 -2.5 -42.9 -2.5 -42.55 -1.4 -42.55 -0.55 M-52.8 -0.5 L-52.8 -0.25 -53.0 -0.15 -53.05 -0.25 -53.05 -0.5 -53.05 -2.5 -52.9 -2.5 -52.8 -0.5 M-77.05 -10.1 L-77.3 -10.3 -77.05 -10.3 Q-75.3 -10.45 -71.95 -11.5 -68.95 -12.5 -67.55 -12.15 L-76.0 -10.05 -77.05 -10.1 M-77.0 -38.4 L-77.05 -38.5 -77.0 -38.55 -74.5 -41.2 -73.0 -42.7 -73.05 -42.75 -72.9 -42.8 -72.65 -43.0 -72.7 -42.85 -70.7 -43.4 Q-69.45 -43.65 -68.55 -43.4 L-70.65 -43.0 -72.5 -42.3 -72.9 -42.5 Q-73.8 -41.2 -77.0 -38.4 M-55.45 -66.15 L-54.4 -67.0 -55.25 -66.15 -57.95 -63.75 -63.0 -59.5 -68.1 -54.6 Q-71.25 -51.55 -71.75 -51.55 L-76.8 -51.9 -76.8 -52.25 -75.0 -51.9 Q-71.9 -51.9 -70.75 -52.65 L-70.0 -53.55 -67.5 -55.65 -63.25 -59.55 -58.45 -63.6 -55.45 -66.15 M-44.3 -66.1 L-44.3 -66.5 -44.15 -66.5 -44.1 -66.1 -44.05 -60.75 -44.3 -60.65 -44.3 -66.1 M-21.8 -66.1 L-21.8 -66.25 -21.4 -66.25 -21.45 -66.1 -21.9 -64.5 Q-22.25 -63.15 -22.55 -62.75 L-19.45 -61.1 -16.05 -59.4 -20.6 -61.3 Q-22.8 -62.2 -22.8 -62.7 L-22.3 -64.4 -21.8 -66.1 M13.35 -66.1 L13.1 -66.5 13.25 -66.55 13.65 -66.1 15.6 -63.75 Q14.95 -63.9 14.15 -64.95 L13.35 -66.1 M19.0 -66.1 L19.5 -66.5 19.25 -66.1 16.95 -63.95 Q14.65 -62.05 14.25 -61.15 L14.1 -61.15 Q14.5 -62.45 16.65 -64.2 L19.0 -66.1 M41.6 -66.15 L41.6 -66.5 41.75 -66.5 41.8 -66.15 41.85 -65.4 41.25 -60.9 41.1 -60.9 41.1 -63.0 41.6 -66.15 M69.1 -56.55 Q72.25 -56.8 74.25 -57.8 L75.1 -57.65 Q74.55 -57.25 73.3 -56.8 71.8 -56.3 70.75 -56.3 L69.1 -56.55 M5.05 -62.85 L3.35 -60.0 3.1 -59.9 Q4.25 -62.65 6.75 -65.75 L5.05 -62.85 M7.0 -65.8 Q8.7 -62.45 9.6 -59.0 L9.5 -58.9 6.85 -65.75 7.0 -65.8 M24.0 -37.3 L23.45 -37.3 Q24.25 -35.6 26.35 -33.25 L30.25 -28.9 Q27.45 -31.5 25.95 -33.2 24.0 -35.5 23.3 -37.3 L16.5 -37.3 15.85 -37.4 16.2 -37.65 19.1 -37.65 23.15 -37.6 23.1 -37.75 23.25 -37.75 23.3 -37.6 24.1 -37.65 26.5 -38.0 29.9 -38.15 33.1 -37.0 35.55 -36.45 38.1 -35.9 37.5 -35.8 Q32.95 -36.7 31.6 -37.25 29.95 -37.95 27.65 -37.8 L24.0 -37.3 M16.6 -14.4 L16.75 -14.55 Q18.05 -13.95 21.7 -13.15 23.95 -12.65 24.5 -11.95 25.4 -13.7 31.0 -17.25 L27.35 -14.45 Q25.35 -12.85 24.6 -11.75 L24.9 -10.05 25.05 -8.7 Q26.7 -10.15 29.5 -11.0 L26.35 -9.05 Q24.4 -8.05 23.85 -6.25 L22.1 -1.25 21.85 -1.15 Q22.5 -2.85 23.35 -6.5 23.9 -7.65 24.9 -8.55 24.55 -8.9 24.6 -9.7 24.65 -10.95 24.35 -11.4 L23.0 -12.4 21.15 -12.75 Q19.45 -13.05 18.15 -13.65 L16.6 -14.4 M57.75 -25.0 Q58.3 -20.4 60.85 -17.15 L60.6 -16.9 Q59.6 -18.05 58.8 -20.1 L57.6 -23.5 57.6 -25.0 57.75 -25.0 M48.25 -25.25 L48.35 -23.8 48.1 -16.25 48.0 -16.15 Q47.85 -17.0 47.85 -19.1 L48.1 -25.25 48.25 -25.25 M-5.8 -59.9 Q-5.8 -63.8 -6.05 -65.5 L-5.9 -65.5 Q-5.55 -64.55 -5.55 -62.55 L-5.65 -59.9 -5.8 -59.9 M-73.0 -10.55 Q-71.85 -10.1 -69.6 -8.35 L-66.25 -5.75 Q-67.15 -5.9 -69.45 -7.65 L-73.05 -10.4 -73.0 -10.55 M-17.05 -35.65 L-25.25 -30.8 Q-24.7 -30.55 -22.4 -28.7 -20.65 -27.35 -17.8 -26.9 -20.35 -26.85 -22.65 -28.5 L-25.3 -30.65 -25.25 -30.8 -30.2 -31.15 -30.95 -31.45 -29.25 -31.15 -24.6 -31.4 Q-23.75 -32.35 -21.25 -33.75 -17.6 -35.65 -17.15 -35.75 L-17.05 -35.65 M-18.3 -49.15 L-20.95 -48.8 -24.25 -48.5 -26.25 -47.8 Q-27.45 -47.8 -32.55 -49.4 L-32.55 -49.75 Q-31.4 -49.75 -29.65 -48.95 L-27.5 -48.15 -19.5 -49.3 -18.3 -49.15 M-18.0 -11.55 L-25.3 -11.8 -17.75 -12.0 -17.75 -12.05 -17.05 -11.9 -17.35 -11.7 -18.0 -11.55" fill="#6c5b3e" fill-rule="evenodd" stroke="none"/>
      <path d="M57.85 -66.4 Q57.8 -65.05 56.35 -62.6 L54.85 -60.0 54.95 -59.6 55.0 -59.65 56.65 -62.45 Q58.1 -64.95 58.1 -65.9 L58.05 -66.4 75.7 -66.95 Q75.15 -63.45 75.0 -51.55 L75.0 -48.5 71.75 -45.8 Q69.2 -43.4 68.35 -41.9 L68.5 -41.9 70.85 -44.4 73.95 -43.3 74.95 -42.95 74.95 -33.25 67.1 -32.25 Q67.1 -31.85 67.3 -31.9 L67.5 -32.05 74.95 -32.95 74.95 -31.8 75.0 -15.55 74.35 -15.15 72.75 -14.0 Q72.0 -13.15 70.25 -12.7 L67.85 -12.15 68.5 -12.05 71.6 -12.2 72.0 -12.8 73.1 -13.9 75.0 -15.45 75.0 -13.25 75.2 -7.55 Q73.4 -8.15 72.85 -9.6 72.55 -11.55 72.0 -12.25 L71.85 -12.25 Q72.45 -11.35 72.6 -9.3 73.1 -7.85 75.2 -7.5 75.4 -2.15 75.9 0.15 L69.35 -0.15 71.1 -4.15 Q72.25 -6.5 73.35 -8.05 72.6 -8.35 71.95 -6.85 L71.0 -4.4 Q69.6 -1.7 69.15 -0.15 L55.1 -0.4 55.1 -1.5 54.85 -2.1 54.75 -2.75 54.6 -2.75 54.85 -0.4 40.0 -0.55 38.35 -0.55 Q40.1 -3.75 40.1 -4.4 L40.0 -5.0 39.85 -5.0 Q39.95 -4.2 39.0 -2.3 L38.1 -0.55 -4.65 -0.6 -5.6 -2.15 -6.4 -4.5 -6.55 -4.5 Q-6.4 -3.2 -5.85 -2.05 -5.45 -1.15 -4.85 -0.6 L-6.15 -0.6 -42.55 -0.55 -42.55 -1.4 -42.9 -2.5 -43.05 -2.5 -42.8 -0.55 -49.45 -0.55 -52.8 -0.5 -52.9 -2.5 -53.05 -2.5 -53.05 -0.5 Q-69.8 -0.35 -77.7 0.15 L-77.1 -1.65 -77.05 -5.3 -77.05 -10.1 -76.0 -10.05 -67.55 -12.15 Q-68.95 -12.5 -71.95 -11.5 -75.3 -10.45 -77.05 -10.3 L-77.0 -33.5 -77.0 -38.4 Q-73.8 -41.2 -72.9 -42.5 L-72.5 -42.3 -70.65 -43.0 -68.55 -43.4 Q-69.45 -43.65 -70.7 -43.4 L-72.7 -42.85 -72.65 -43.0 -72.9 -42.8 -73.05 -42.75 -73.0 -42.7 -74.5 -41.2 -77.0 -38.55 -77.05 -50.0 Q-77.25 -60.7 -77.9 -66.7 L-74.75 -66.2 -55.45 -66.15 -58.45 -63.6 -63.25 -59.55 -67.5 -55.65 -70.0 -53.55 -70.75 -52.65 Q-71.9 -51.9 -75.0 -51.9 L-76.8 -52.25 -76.8 -51.9 -71.75 -51.55 Q-71.25 -51.55 -68.1 -54.6 L-63.0 -59.5 -57.95 -63.75 -55.25 -66.15 -44.3 -66.1 -44.3 -60.65 -44.05 -60.75 -44.1 -66.1 -36.55 -66.1 -21.8 -66.1 -22.3 -64.4 -22.8 -62.7 Q-22.8 -62.2 -20.6 -61.3 L-16.05 -59.4 -19.45 -61.1 -22.55 -62.75 Q-22.25 -63.15 -21.9 -64.5 L-21.45 -66.1 -0.4 -66.1 13.35 -66.1 14.15 -64.95 Q14.95 -63.9 15.6 -63.75 L13.65 -66.1 19.0 -66.1 16.65 -64.2 Q14.5 -62.45 14.1 -61.15 L14.25 -61.15 Q14.65 -62.05 16.95 -63.95 L19.25 -66.1 38.1 -66.15 41.6 -66.15 41.1 -63.0 41.1 -60.9 41.25 -60.9 41.85 -65.4 41.8 -66.15 57.85 -66.4 M75.0 -48.3 L74.95 -43.3 73.7 -43.85 71.0 -44.55 72.05 -45.55 75.0 -48.3 M69.1 -56.55 L70.75 -56.3 Q71.8 -56.3 73.3 -56.8 74.55 -57.25 75.1 -57.65 L74.25 -57.8 Q72.25 -56.8 69.1 -56.55 M16.6 -14.4 L18.15 -13.65 Q19.45 -13.05 21.15 -12.75 L23.0 -12.4 24.35 -11.4 Q24.65 -10.95 24.6 -9.7 24.55 -8.9 24.9 -8.55 23.9 -7.65 23.35 -6.5 22.5 -2.85 21.85 -1.15 L22.1 -1.25 23.85 -6.25 Q24.4 -8.05 26.35 -9.05 L29.5 -11.0 Q26.7 -10.15 25.05 -8.7 L24.9 -10.05 24.6 -11.75 Q25.35 -12.85 27.35 -14.45 L31.0 -17.25 Q25.4 -13.7 24.5 -11.95 23.95 -12.65 21.7 -13.15 18.05 -13.95 16.75 -14.55 L16.6 -14.4 M24.0 -37.3 L27.65 -37.8 Q29.95 -37.95 31.6 -37.25 32.95 -36.7 37.5 -35.8 L38.1 -35.9 35.55 -36.45 33.1 -37.0 29.9 -38.15 26.5 -38.0 24.1 -37.65 23.3 -37.6 23.25 -37.75 23.1 -37.75 23.15 -37.6 19.1 -37.65 16.2 -37.65 15.85 -37.4 16.5 -37.3 23.3 -37.3 Q24.0 -35.5 25.95 -33.2 27.45 -31.5 30.25 -28.9 L26.35 -33.25 Q24.25 -35.6 23.45 -37.3 L24.0 -37.3 M7.0 -65.8 L6.85 -65.75 9.5 -58.9 9.6 -59.0 Q8.7 -62.45 7.0 -65.8 M5.05 -62.85 L6.75 -65.75 Q4.25 -62.65 3.1 -59.9 L3.35 -60.0 5.05 -62.85 M48.25 -25.25 L48.1 -25.25 47.85 -19.1 Q47.85 -17.0 48.0 -16.15 L48.1 -16.25 48.35 -23.8 48.25 -25.25 M57.75 -25.0 L57.6 -25.0 57.6 -23.5 58.8 -20.1 Q59.6 -18.05 60.6 -16.9 L60.85 -17.15 Q58.3 -20.4 57.75 -25.0 M-5.8 -59.9 L-5.65 -59.9 -5.55 -62.55 Q-5.55 -64.55 -5.9 -65.5 L-6.05 -65.5 Q-5.8 -63.8 -5.8 -59.9 M-73.0 -10.55 L-73.05 -10.4 -69.45 -7.65 Q-67.15 -5.9 -66.25 -5.75 L-69.6 -8.35 Q-71.85 -10.1 -73.0 -10.55 M-18.0 -11.55 L-17.35 -11.7 -17.05 -11.9 -17.75 -12.05 -17.75 -12.0 -25.3 -11.8 -18.0 -11.55 M-18.3 -49.15 L-19.5 -49.3 -27.5 -48.15 -29.65 -48.95 Q-31.4 -49.75 -32.55 -49.75 L-32.55 -49.4 Q-27.45 -47.8 -26.25 -47.8 L-24.25 -48.5 -20.95 -48.8 -18.3 -49.15 M-17.05 -35.65 L-17.15 -35.75 Q-17.6 -35.65 -21.25 -33.75 -23.75 -32.35 -24.6 -31.4 L-29.25 -31.15 -30.95 -31.45 -30.2 -31.15 -25.25 -30.8 -25.3 -30.65 -22.65 -28.5 Q-20.35 -26.85 -17.8 -26.9 -20.65 -27.35 -22.4 -28.7 -24.7 -30.55 -25.25 -30.8 L-17.05 -35.65" fill="#ab9670" fill-rule="evenodd" stroke="none"/>
      <path d="M-29.8 -62.95 L-29.8 -46.95 -70.45 -46.95 -70.45 -62.95 -29.8 -62.95" fill="#000000" fill-rule="evenodd" stroke="none"/>
      <path d="M-70.45 -46.95 L-70.45 -62.95 -29.8 -62.95" fill="none" stroke="#333333" stroke-linecap="round" stroke-linejoin="round" stroke-width="1.0"/>
      <path d="M-29.8 -62.95 L-29.8 -46.95 -70.45 -46.95" fill="none" stroke="#999999" stroke-linecap="round" stroke-linejoin="round" stroke-width="1.0"/>
    </g>
    <g id="shape1" transform="matrix(1.0, 0.0, 0.0, 1.0, 10.2, 10.5)">
      <path d="M6.55 -6.8 Q9.25 -4.05 9.25 -0.25 9.25 3.55 6.55 6.25 3.85 8.95 0.05 8.95 -3.75 8.95 -6.5 6.25 -9.2 3.55 -9.2 -0.25 -9.2 -4.05 -6.5 -6.8 -3.75 -9.5 0.05 -9.5 3.85 -9.5 6.55 -6.8" fill="#ffff00" fill-rule="evenodd" stroke="none"/>
      <path d="M6.55 -6.8 Q9.25 -4.05 9.25 -0.25 9.25 3.55 6.55 6.25 3.85 8.95 0.05 8.95 -3.75 8.95 -6.5 6.25 -9.2 3.55 -9.2 -0.25 -9.2 -4.05 -6.5 -6.8 -3.75 -9.5 0.05 -9.5 3.85 -9.5 6.55 -6.8 Z" fill="none" stroke="#cc9900" stroke-linecap="round" stroke-linejoin="miter-clip" stroke-miterlimit="3.0" stroke-width="2.0"/>
    </g>
    <g id="text0" transform="matrix(1.0, 0.0, 0.0, 1.0, -0.6, -2.0)">
      <g transform="matrix(1.0, 0.0, 0.0, 1.0, 0.0, 0.0)">
        <use fill="#cc9900" height="15.65" transform="matrix(0.0166, 0.0, 0.0, 0.0166, 0.0, 16.0)" width="20.5" xlink:href="#font_Lithos_Pro_Regular_G0"/>
      </g>
    </g>
    <g id="font_Lithos_Pro_Regular_G0">
      <path d="M683.0 -233.0 L683.0 -233.0 683.0 -158.5 Q683.0 -138.0 683.5 -106.5 684.0 -75.5 684.5 -47.0 685.0 -19.0 685.0 -7.0 671.5 -3.0 638.0 2.5 605.0 8.0 558.0 12.5 511.5 16.5 459.0 16.5 310.5 13.5 217.0 -28.5 123.5 -70.0 79.5 -138.0 35.5 -206.0 36.0 -287.5 35.0 -335.5 59.5 -399.0 84.0 -462.5 142.5 -529.0 201.5 -595.5 304.5 -652.5 407.5 -710.0 564.5 -745.5 L611.5 -544.5 Q558.5 -537.5 501.0 -518.0 443.5 -498.5 392.5 -467.5 342.0 -436.0 310.0 -394.0 278.5 -351.5 277.5 -299.0 278.0 -261.0 295.5 -234.0 313.0 -207.0 341.0 -190.5 369.0 -173.5 401.0 -166.0 433.5 -158.5 463.0 -159.5 L464.0 -241.5 Q464.0 -263.5 463.0 -285.0 462.0 -306.0 462.0 -327.5 L684.0 -327.5 Q683.5 -298.5 683.0 -277.0 683.0 -255.5 683.0 -233.0" fill-rule="evenodd" stroke="none"/>
    </g>
    <g id="text1" transform="matrix(1.0, 0.0, 0.0, 1.0, -99.3, 2.0)">
      <g transform="matrix(1.0, 0.0, 0.0, 1.0, 99.3, -2.0)">
        <use fill="#ffcc00" height="15.75" transform="matrix(0.0098, 0.0, 0.0, 0.0098, 0.0, 9.2)" width="30.85" xlink:href="#font_Lithos_Pro_Regular_90"/>
        <use fill="#ffcc00" height="15.75" transform="matrix(0.0098, 0.0, 0.0, 0.0098, 6.05, 9.2)" width="30.85" xlink:href="#font_Lithos_Pro_Regular_90"/>
        <use fill="#ffcc00" height="15.75" transform="matrix(0.0098, 0.0, 0.0, 0.0098, 12.1, 9.2)" width="30.85" xlink:href="#font_Lithos_Pro_Regular_90"/>
        <use fill="#ffcc00" height="15.75" transform="matrix(0.0098, 0.0, 0.0, 0.0098, 18.15, 9.2)" width="30.85" xlink:href="#font_Lithos_Pro_Regular_90"/>
      </g>
    </g>
    <g id="font_Lithos_Pro_Regular_90">
      <path d="M491.5 -486.5 L491.5 -486.5 Q490.5 -572.5 457.5 -616.0 424.0 -659.5 368.5 -659.5 328.0 -659.0 297.0 -637.5 266.5 -616.5 249.0 -582.0 232.0 -547.5 231.5 -507.0 232.5 -447.5 265.5 -409.5 298.5 -371.5 352.0 -355.5 405.5 -339.5 468.0 -345.0 477.5 -368.5 484.5 -405.5 491.5 -443.0 491.5 -486.5 M291.0 26.5 L237.5 -44.0 Q264.5 -60.5 301.5 -93.5 338.0 -126.5 375.0 -173.5 412.0 -220.0 439.5 -276.5 352.0 -273.0 284.0 -299.0 216.0 -325.5 176.5 -374.0 137.5 -423.0 136.5 -487.5 137.5 -557.0 171.0 -612.0 204.5 -667.5 258.5 -700.0 312.5 -732.0 375.0 -733.0 440.0 -732.5 488.0 -702.5 535.5 -673.0 561.5 -620.5 587.5 -568.5 588.0 -501.0 587.0 -419.5 561.0 -341.5 535.0 -263.5 491.5 -193.5 448.5 -123.5 396.0 -67.0 344.0 -11.0 291.0 26.5" fill-rule="evenodd" stroke="none"/>
    </g>
    <g id="shape2" transform="matrix(1.0, 0.0, 0.0, 1.0, -28.05, 63.45)">
      <path d="M69.2 -62.95 L69.2 -46.95 28.55 -46.95 28.55 -62.95 69.2 -62.95" fill="#000000" fill-rule="evenodd" stroke="none"/>
      <path d="M28.55 -46.95 L28.55 -62.95 69.2 -62.95" fill="none" stroke="#333333" stroke-linecap="round" stroke-linejoin="round" stroke-width="1.0"/>
      <path d="M69.2 -62.95 L69.2 -46.95 28.55 -46.95" fill="none" stroke="#999999" stroke-linecap="round" stroke-linejoin="round" stroke-width="1.0"/>
    </g>
    <g id="text2" transform="matrix(1.0, 0.0, 0.0, 1.0, -99.3, 2.0)">
      <g transform="matrix(1.0, 0.0, 0.0, 1.0, 99.3, -2.0)">
        <use fill="#ffcc00" height="15.75" transform="matrix(0.0098, 0.0, 0.0, 0.0098, 0.0, 9.2)" width="30.85" xlink:href="#font_Lithos_Pro_Regular_90"/>
        <use fill="#ffcc00" height="15.75" transform="matrix(0.0098, 0.0, 0.0, 0.0098, 6.05, 9.2)" width="30.85" xlink:href="#font_Lithos_Pro_Regular_90"/>
        <use fill="#ffcc00" height="15.75" transform="matrix(0.0098, 0.0, 0.0, 0.0098, 12.1, 9.2)" width="30.85" xlink:href="#font_Lithos_Pro_Regular_90"/>
        <use fill="#ffcc00" height="15.75" transform="matrix(0.0098, 0.0, 0.0, 0.0098, 18.15, 9.2)" width="30.85" xlink:href="#font_Lithos_Pro_Regular_90"/>
      </g>
    </g>
    <g id="text3" transform="matrix(1.0, 0.0, 0.0, 1.0, -99.3, 2.0)">
      <g transform="matrix(1.0, 0.0, 0.0, 1.0, 99.3, -2.0)">
        <use fill="#ffcc00" height="15.75" transform="matrix(0.0098, 0.0, 0.0, 0.0098, 0.0, 9.2)" width="30.85" xlink:href="#font_Lithos_Pro_Regular_90"/>
        <use fill="#ffcc00" height="15.75" transform="matrix(0.0098, 0.0, 0.0, 0.0098, 6.05, 9.2)" width="30.85" xlink:href="#font_Lithos_Pro_Regular_90"/>
        <use fill="#ffcc00" height="15.75" transform="matrix(0.0098, 0.0, 0.0, 0.0098, 12.1, 9.2)" width="30.85" xlink:href="#font_Lithos_Pro_Regular_90"/>
        <use fill="#ffcc00" height="15.75" transform="matrix(0.0098, 0.0, 0.0, 0.0098, 18.15, 9.2)" width="30.85" xlink:href="#font_Lithos_Pro_Regular_90"/>
      </g>
    </g>
    <g id="sprite0" transform="matrix(1.0, 0.0, 0.0, 1.0, 45.0, 57.4)">
      <use ffdec:characterId="933" height="47.45" id="bgcolor" transform="matrix(1.0, 0.0, 0.0, 1.0, -4.2, -3.9)" width="47.45" xlink:href="#sprite1"/>
      <use ffdec:characterId="921" height="22.0" id="hitbox" transform="matrix(2.2297, 0.0, 0.0, 2.1749, -4.55, -4.25)" width="22.0" xlink:href="#sprite2"/>
      <clipPath id="clipPath0" transform="matrix(1.0, 0.0, 0.0, 1.0, 0.0, 0.0)">
        <path d="M40.0 0.0 L40.0 40.0 0.0 40.0 0.0 0.0 40.0 0.0" fill="#cccccc" fill-rule="evenodd" stroke="none"/>
      </clipPath>
      <g clip-path="url(#clipPath0)">
        <filter id="filter13">
          <feColorMatrix in="SourceGraphic" result="filterResult0" type="matrix" values="0 0 0 0 1.0,0 0 0 0 0.0,0 0 0 0 0.0,0 0 0 1 0"/>
          <feConvolveMatrix divisor="25.0" in="filterResult0" kernelMatrix="1 1 1 1 1 1 1 1 1 1 1 1 1 1 1 1 1 1 1 1 1 1 1 1 1" order="5 5" result="filterResult1"/>
          <feComposite in="SourceGraphic" in2="filterResult1" operator="over" result="filterResult2"/>
        </filter>
        <use ffdec:characterId="309" filter="url(#filter13)" height="152.55" id="MC" transform="matrix(0.2966, 0.0, 0.0, 0.2966, -15.3314, -6.3248)" width="267.25" xlink:href="#sprite3"/>
      </g>
      <filter id="filter14">
        <feColorMatrix in="SourceGraphic" result="filterResult3" type="matrix" values="0 0 0 0 0.0,0 0 0 0 0.0,0 0 0 0 0.0,0 0 0 1 0"/>
        <feConvolveMatrix divisor="4.0" in="filterResult3" kernelMatrix="1 1 1 1" order="2 2" result="filterResult4"/>
        <feComposite in="SourceGraphic" in2="filterResult4" operator="over" result="filterResult5"/>
      </filter>
      <use ffdec:characterId="935" filter="url(#filter14)" height="15.75" id="txt_hotkey" transform="matrix(1.0, 0.0, 0.0, 1.0, -3.85, -0.1)" width="18.0" xlink:href="#text4"/>
      <use ffdec:characterId="948" ffdec:characterName="Army_fla.Hud_BgButton_151" height="97.6" id="bg" transform="matrix(1.0, 0.0, 0.0, 1.0, -29.05, -29.25)" width="97.6" xlink:href="#sprite4"/>
      <use ffdec:characterId="950" ffdec:characterName="Army_fla.Hud_cooldown_152" height="48.5" id="cdcover" transform="matrix(0.9979, 0.0, 0.0, 0.9897, -4.2, -3.9997)" width="48.1" xlink:href="#sprite5"/>
      <use ffdec:characterId="950" ffdec:characterName="Army_fla.Hud_cooldown_152" height="48.5" id="cd" transform="matrix(0.9979, 0.0, 0.0, 0.9897, -4.2, -3.9997)" width="48.1" xlink:href="#sprite5"/>
      <use ffdec:characterId="953" ffdec:characterName="Army_fla.Hud_Description_153" height="50.1" id="desc" transform="matrix(1.0, 0.0, 0.0, 1.0, -44.9, -57.4)" width="129.55" xlink:href="#sprite6"/>
    </g>
    <g id="sprite1" transform="matrix(1.0, 0.0, 0.0, 1.0, 0.0, 0.0)">
      <use ffdec:characterId="932" height="47.45" transform="matrix(1.0, 0.0, 0.0, 1.0, 0.0, 0.0)" width="47.45" xlink:href="#shape3"/>
    </g>
    <g id="shape3" transform="matrix(1.0, 0.0, 0.0, 1.0, 0.0, 0.0)">
      <path d="M47.45 0.0 L47.45 47.45 0.0 47.45 0.0 0.0 47.45 0.0" fill="#564732" fill-rule="evenodd" stroke="none"/>
    </g>
    <g id="sprite2" transform="matrix(1.0, 0.0, 0.0, 1.0, 0.0, 0.0)">
      <use ffdec:characterId="145" height="22.0" transform="matrix(1.0, 0.0, 0.0, 1.0, 0.0, 0.0)" width="22.0" xlink:href="#shape4"/>
    </g>
    <g id="shape4" transform="matrix(1.0, 0.0, 0.0, 1.0, 0.0, 0.0)">
      <path d="M22.0 0.0 L22.0 22.0 0.0 22.0 0.0 0.0 22.0 0.0" fill="#00ff00" fill-opacity="0.0" fill-rule="evenodd" stroke="none"/>
    </g>
    <g id="sprite3" transform="matrix(1.0, 0.0, 0.0, 1.0, 121.65, 148.6)">
      <use ffdec:characterId="195" height="34.0" transform="matrix(1.0, 0.0, 0.0, 1.0, -28.5, -32.05)" width="46.45" xlink:href="#shape6"/>
      <use ffdec:characterId="295" height="59.55" transform="matrix(1.0, 0.0, 0.0, 1.0, -36.85, -76.55)" width="80.5" xlink:href="#shape7"/>
      <use ffdec:characterId="198" height="55.8" transform="matrix(0.9936, 0.1093, -0.1093, 0.9936, -29.2812, -126.2482)" width="74.05" xlink:href="#shape8"/>
      <use ffdec:characterId="199" height="46.8" transform="matrix(0.8771, 0.4787, -0.4787, 0.8771, -42.9342, -81.9889)" width="25.3" xlink:href="#shape9"/>
      <use ffdec:characterId="296" height="59.0" transform="matrix(1.0, 0.0, 0.0, 1.0, 30.45, -72.2)" width="21.9" xlink:href="#shape10"/>
      <use ffdec:characterId="200" height="100.35" transform="matrix(0.0, 1.0, -1.0, 0.0, 32.2, -55.05)" width="26.0" xlink:href="#shape11"/>
    </g>
    <g id="shape6" transform="matrix(1.0, 0.0, 0.0, 1.0, 29.45, 30.75)">
      <path d="M12.95 -26.5 Q12.9 -23.45 13.5 -20.7 13.9 -18.95 14.5 -17.65 14.4 -14.35 15.15 -10.65 16.0 -6.45 16.0 -4.15 L16.0 -2.5 16.2 -2.15 Q17.0 -0.8 17.0 0.1 L16.85 1.0 14.95 1.1 -1.0 1.75 Q-1.45 0.85 -2.25 0.25 L-2.1 0.1 -2.3 -0.65 -2.5 -2.2 Q-2.5 -7.45 -1.75 -12.35 L-2.0 -12.1 Q-3.15 -10.95 -10.25 -6.35 L-13.55 -3.65 Q-15.4 -2.4 -17.55 -2.05 -17.3 -0.3 -18.75 3.05 -19.45 3.55 -20.45 2.85 L-20.45 2.65 Q-22.7 1.9 -26.2 -0.7 -29.15 -3.65 -29.45 -8.95 -29.6 -12.5 -28.75 -14.35 L-28.7 -15.0 -28.6 -15.4 -28.85 -15.65 -28.6 -15.7 -28.15 -17.65 -26.9 -18.3 -26.3 -18.3 -24.75 -18.95 -22.7 -19.4 Q-19.2 -20.1 -17.0 -22.3 L-15.95 -22.65 Q-12.55 -25.45 -9.55 -26.65 -3.2 -29.1 1.3 -24.6 L1.55 -24.35 Q3.4 -28.25 5.9 -29.95 8.6 -31.75 10.8 -29.6 L12.95 -26.5 M9.0 -1.4 L10.65 -4.2 Q11.5 -5.55 13.6 -5.2 L13.5 -7.7 12.95 -11.05 Q12.55 -13.2 12.5 -14.45 L12.45 -16.6 11.75 -16.5 4.5 -15.45 4.45 -1.1 5.85 -1.1 9.0 -1.05 9.05 -1.05 9.35 -1.05 9.0 -1.4 M14.0 -0.95 L13.2 -2.85 10.5 -1.05 14.0 -0.95 M-12.4 -15.5 Q-13.25 -14.75 -18.35 -12.85 -23.95 -10.75 -26.75 -11.15 L-27.05 -9.25 Q-27.7 -5.3 -24.4 -1.9 L-24.15 -1.65 Q-23.2 -0.7 -20.4 0.9 -20.35 0.85 -20.25 0.95 L-20.2 0.4 Q-19.95 -1.05 -20.0 -1.9 L-21.65 -1.55 -24.15 -1.85 Q-24.25 -1.85 -24.35 -1.95 L-23.9 -2.7 -21.7 -4.1 Q-19.8 -4.7 -18.55 -3.65 L-18.0 -4.3 Q-17.55 -4.75 -16.05 -5.45 -14.7 -6.2 -14.2 -6.7 L-11.9 -8.3 Q-10.1 -9.5 -9.6 -10.0 L-7.65 -11.35 Q-9.0 -11.9 -10.45 -13.35 L-12.3 -15.4 -12.35 -15.55 -12.4 -15.5" fill="#000000" fill-rule="evenodd" stroke="none"/>
      <path d="M9.05 -1.05 L9.0 -1.05 5.85 -1.1 4.45 -1.1 4.5 -15.45 11.75 -16.5 12.45 -16.6 12.5 -14.45 Q12.55 -13.2 12.95 -11.05 L13.5 -7.7 13.6 -5.2 Q11.5 -5.55 10.65 -4.2 L9.0 -1.4 9.05 -1.05 M14.0 -0.95 L10.5 -1.05 13.2 -2.85 14.0 -0.95 M-24.4 -1.9 Q-27.7 -5.3 -27.05 -9.25 L-26.75 -11.15 Q-23.95 -10.75 -18.35 -12.85 -13.25 -14.75 -12.4 -15.5 L-12.3 -15.4 -10.45 -13.35 Q-9.0 -11.9 -7.65 -11.35 L-9.6 -10.0 Q-10.1 -9.5 -11.9 -8.3 L-14.2 -6.7 Q-14.7 -6.2 -16.05 -5.45 -17.55 -4.75 -18.0 -4.3 L-18.55 -3.65 Q-19.8 -4.7 -21.7 -4.1 L-23.9 -2.7 -24.35 -1.95 -24.4 -1.9 M-24.15 -1.85 L-21.65 -1.55 -20.0 -1.9 Q-19.95 -1.05 -20.2 0.4 L-20.4 0.9 Q-23.2 -0.7 -24.15 -1.65 L-24.15 -1.85" fill="#5b6171" fill-rule="evenodd" stroke="none"/>
    </g>
    <g id="shape7" transform="matrix(1.0, 0.0, 0.0, 1.0, 30.75, 21.75)">
      <path d="M18.35 -17.8 Q18.85 -17.9 18.5 -18.2 L24.95 -18.6 30.45 -18.7 30.75 -17.9 Q31.75 -15.3 31.75 -14.5 L31.75 -2.3 Q31.85 -0.35 32.3 1.25 L32.25 1.5 31.3 2.25 27.75 2.5 19.75 2.85 19.75 -10.95 Q19.05 -12.05 18.5 -14.9 L18.05 -16.7 18.6 -16.6 18.35 -17.8 M16.4 -17.0 L16.25 -16.2 Q16.25 -14.6 16.95 -10.95 L17.75 -5.7 17.6 -0.4 Q17.6 0.75 17.75 1.75 9.65 1.7 6.25 1.9 L6.25 -4.25 3.65 -13.3 2.1 -17.75 16.4 -17.0 M1.05 -14.7 Q2.3 -12.4 2.5 -10.0 L2.75 -9.25 3.25 -8.0 Q3.65 -6.65 3.9 -1.95 L4.3 1.4 4.0 1.4 2.0 1.7 -6.85 1.35 -11.25 1.5 -14.75 1.75 Q-14.9 -5.75 -16.25 -11.4 -17.5 -16.55 -19.6 -18.75 L-9.95 -19.1 -4.25 -19.2 -4.25 -19.35 -3.5 -19.2 -0.7 -19.25 -0.3 -17.55 Q0.65 -16.5 1.0 -15.0 L1.05 -14.7 M16.9 4.25 Q16.45 5.5 16.35 7.9 L-11.85 6.75 -15.15 6.55 -15.15 5.7 -15.15 4.25 -7.6 3.4 2.8 3.75 2.9 4.1 3.05 4.25 16.9 4.25 M16.25 10.35 L16.1 14.45 Q-3.45 14.65 -15.4 13.85 L-15.25 9.15 -15.2 8.8 -5.85 9.35 16.25 10.35 M-15.5 15.9 L-3.25 16.25 11.0 16.85 16.0 16.65 15.85 20.35 7.8 20.7 -1.6 21.0 -15.65 20.6 -15.5 16.2 -15.5 15.9 M-28.65 -13.8 Q-28.2 -16.4 -25.15 -18.4 -24.15 -18.15 -23.3 -17.75 -24.55 -17.15 -25.0 -15.05 L-25.25 -10.35 -25.45 -8.85 Q-25.55 -7.15 -25.15 -5.75 -24.45 -3.3 -22.4 -2.15 -23.55 -1.3 -23.8 1.9 L-28.45 2.2 -28.85 -2.1 Q-29.1 -5.5 -28.75 -7.95 -28.95 -12.0 -28.65 -13.8" fill="#5b6171" fill-rule="evenodd" stroke="none"/>
      <path d="M16.4 -17.0 L2.1 -17.75 3.65 -13.3 6.25 -4.25 6.25 1.9 Q9.65 1.7 17.75 1.75 17.6 0.75 17.6 -0.4 L17.75 -5.7 16.95 -10.95 Q16.25 -14.6 16.25 -16.2 L16.4 -17.0 M18.35 -17.8 L18.6 -16.6 18.05 -16.7 18.5 -14.9 Q19.05 -12.05 19.75 -10.95 L19.75 2.85 27.75 2.5 31.3 2.25 32.25 1.5 32.3 1.25 Q31.85 -0.35 31.75 -2.3 L31.75 -14.5 Q31.75 -15.3 30.75 -17.9 L30.45 -18.7 24.95 -18.6 18.5 -18.2 Q18.85 -17.9 18.35 -17.8 M14.75 -19.6 Q14.8 -20.4 15.05 -20.5 L17.65 -20.75 29.85 -20.75 30.0 -21.2 31.25 -20.75 31.8 -20.75 32.05 -20.6 32.25 -19.75 32.25 -19.65 Q33.45 -17.75 33.95 -13.55 36.6 -11.15 41.1 -7.9 43.35 -5.95 44.4 -3.8 46.7 -2.3 48.2 1.15 49.75 4.55 49.75 7.9 49.75 11.75 49.3 12.4 48.4 13.65 42.25 16.75 L41.5 16.5 Q40.05 18.25 37.75 18.25 31.05 18.25 29.5 13.85 L29.45 13.65 Q27.65 13.1 25.05 10.5 L24.35 9.75 24.0 9.9 22.85 10.15 22.75 10.75 Q22.25 15.25 22.25 18.25 L21.95 18.45 22.05 18.75 Q23.05 19.8 24.65 22.3 28.5 28.25 30.75 33.75 L30.65 33.95 30.75 34.75 30.6 35.45 Q30.4 35.45 30.3 35.75 L21.15 36.35 2.25 37.75 -8.2 37.8 Q-11.55 37.7 -12.25 37.05 -12.4 36.9 -17.6 37.0 L-22.75 37.15 -22.75 37.25 -23.75 37.75 Q-24.75 36.4 -24.75 35.0 L-24.0 30.95 -23.0 26.55 Q-22.75 23.95 -22.3 22.4 L-21.85 21.3 -22.7 20.75 -22.75 19.55 -22.55 19.5 -22.55 19.4 Q-23.5 18.45 -23.75 15.15 L-23.75 10.4 -23.9 4.15 -29.2 4.75 -29.25 4.75 -29.95 4.75 -30.1 4.5 -30.25 3.5 -30.2 2.7 -30.1 2.55 -30.6 -0.35 -30.75 -5.7 Q-30.75 -12.5 -30.2 -15.2 -28.9 -21.3 -24.95 -20.25 L-24.0 -20.45 -23.95 -20.5 -19.25 -21.0 -16.85 -21.2 -0.45 -21.25 0.25 -21.75 1.05 -20.2 5.95 -20.15 12.75 -19.75 14.75 -19.6 M1.05 -14.7 L1.0 -15.0 Q0.65 -16.5 -0.3 -17.55 L-0.7 -19.25 -3.5 -19.2 -4.25 -19.35 -4.25 -19.2 -9.95 -19.1 -19.6 -18.75 Q-17.5 -16.55 -16.25 -11.4 -14.9 -5.75 -14.75 1.75 L-11.25 1.5 -6.85 1.35 2.0 1.7 4.0 1.4 4.3 1.4 3.9 -1.95 Q3.65 -6.65 3.25 -8.0 L2.75 -9.25 2.5 -10.0 Q2.3 -12.4 1.05 -14.7 M35.5 -0.35 Q37.35 -0.55 39.1 0.15 40.6 0.45 41.8 1.3 41.9 0.55 42.8 -0.25 L43.2 -0.55 Q42.8 -3.7 37.75 -7.8 L34.15 -10.95 34.25 -1.6 34.25 -0.15 35.5 -0.35 M45.25 2.25 L44.95 2.2 44.25 4.05 43.65 4.2 43.75 6.15 Q43.75 10.35 43.25 12.55 L42.75 14.25 44.5 13.05 Q47.75 10.9 47.75 8.25 47.75 6.2 45.65 2.1 L45.55 1.95 45.25 2.25 M41.75 6.5 L41.05 4.55 40.25 3.05 39.65 2.65 Q39.0 2.0 38.55 2.0 L35.3 2.3 34.15 2.65 34.05 3.3 33.25 3.75 33.25 3.7 33.1 3.95 Q32.9 3.95 32.8 4.25 L32.35 4.25 32.05 4.75 Q31.25 6.25 31.25 9.25 31.25 11.4 31.5 12.6 L31.75 12.75 31.65 13.0 31.75 13.3 Q33.0 16.0 37.4 16.0 40.2 16.0 41.25 11.25 L41.75 6.5 M27.25 4.75 L24.75 4.75 24.3 5.2 24.35 5.2 24.3 5.5 24.15 5.6 23.95 6.25 24.85 7.1 25.8 8.5 28.45 10.25 29.05 10.7 29.25 9.1 Q29.25 6.2 29.9 4.4 L27.25 4.75 M22.2 4.75 L22.25 4.8 22.25 4.75 22.2 4.75 M16.35 7.9 L20.95 7.9 21.0 7.55 21.1 4.75 18.55 4.75 18.4 4.6 Q18.25 4.4 18.25 3.8 L17.75 4.25 16.9 4.25 3.05 4.25 2.9 4.1 2.8 3.75 -7.6 3.4 -15.15 4.25 -15.2 4.3 -16.25 4.75 Q-17.35 2.6 -17.15 -1.25 L-18.0 -1.25 -20.25 -1.45 Q-20.4 -0.7 -21.2 0.9 L-21.4 1.4 -21.55 6.55 Q-19.55 6.3 -15.15 6.55 L-11.85 6.75 16.35 7.9 M23.25 34.4 L28.95 33.85 Q26.95 31.4 23.9 26.4 L21.05 21.5 20.25 21.75 17.35 22.4 12.75 22.85 -1.5 23.25 -12.25 22.85 -15.8 22.65 -16.95 22.5 -18.95 22.0 -19.3 21.95 Q-19.65 23.4 -21.75 29.3 -22.5 31.5 -22.65 34.8 L-17.25 34.85 -14.1 34.9 2.15 35.5 Q12.55 35.5 17.1 35.15 L18.5 35.0 18.65 34.95 18.85 34.95 23.25 34.4 M16.1 14.45 L20.25 14.4 Q20.25 12.9 20.6 10.3 L17.75 10.35 16.25 10.35 -5.85 9.35 -15.2 8.8 -21.65 8.45 -21.75 10.15 -21.5 13.45 -18.2 13.65 -15.4 13.85 Q-3.45 14.65 16.1 14.45 M16.0 16.65 L11.0 16.85 -3.25 16.25 -15.5 15.9 -20.0 15.9 -20.75 16.35 -21.15 16.2 -20.8 18.65 -20.2 19.3 -18.9 19.5 -18.2 20.15 -15.65 20.6 -1.6 21.0 7.8 20.7 15.85 20.35 16.75 20.25 19.55 19.5 19.5 18.55 19.5 18.5 Q20.25 17.75 20.25 16.4 L16.0 16.65 M-28.65 -13.8 Q-28.95 -12.0 -28.75 -7.95 -29.1 -5.5 -28.85 -2.1 L-28.45 2.2 -23.8 1.9 Q-23.55 -1.3 -22.4 -2.15 -24.45 -3.3 -25.15 -5.75 -25.55 -7.15 -25.45 -8.85 L-25.25 -10.35 -25.0 -15.05 Q-24.55 -17.15 -23.3 -17.75 -24.15 -18.15 -25.15 -18.4 -28.2 -16.4 -28.65 -13.8" fill="#000000" fill-rule="evenodd" stroke="none"/>
      <path d="M45.65 2.1 Q47.75 6.2 47.75 8.25 47.75 10.9 44.5 13.05 L42.75 14.25 43.25 12.55 Q43.75 10.35 43.75 6.15 L43.65 4.2 44.25 4.05 44.95 2.2 45.25 2.25 45.65 2.1 M41.75 6.5 L41.25 11.25 Q40.2 16.0 37.4 16.0 33.0 16.0 31.75 13.3 L31.65 13.0 31.75 12.75 31.5 12.6 Q31.25 11.4 31.25 9.25 31.25 6.25 32.05 4.75 L32.35 4.25 32.8 4.25 Q32.9 3.95 33.1 3.95 L33.25 3.7 33.25 3.75 34.05 3.3 34.15 2.65 35.3 2.3 38.55 2.0 Q39.0 2.0 39.65 2.65 L40.25 3.05 41.05 4.55 41.75 6.5" fill="#aa8a71" fill-rule="evenodd" stroke="none"/>
      <path d="M16.9 4.25 L17.75 4.25 18.25 3.8 Q18.25 4.4 18.4 4.6 L18.55 4.75 21.1 4.75 21.0 7.55 20.95 7.9 16.35 7.9 Q16.45 5.5 16.9 4.25 M-15.15 6.55 Q-19.55 6.3 -21.55 6.55 L-21.4 1.4 -21.2 0.9 Q-20.4 -0.7 -20.25 -1.45 L-18.0 -1.25 -17.15 -1.25 Q-17.35 2.6 -16.25 4.75 L-15.2 4.3 -15.15 4.25 -15.15 5.7 -15.15 6.55 M16.25 10.35 L17.75 10.35 20.6 10.3 Q20.25 12.9 20.25 14.4 L16.1 14.45 16.25 10.35 M-15.4 13.85 L-18.2 13.65 -21.5 13.45 -21.75 10.15 -21.65 8.45 -15.2 8.8 -15.25 9.15 -15.4 13.85 M16.0 16.65 L20.25 16.4 Q20.25 17.75 19.5 18.5 L19.5 18.55 19.55 19.5 16.75 20.25 15.85 20.35 16.0 16.65 M-15.65 20.6 L-18.2 20.15 -18.9 19.5 -20.2 19.3 -20.8 18.65 -21.15 16.2 -20.75 16.35 -20.0 15.9 -15.5 15.9 -15.5 16.2 -15.65 20.6" fill="#969cab" fill-rule="evenodd" stroke="none"/>
      <path d="M17.35 22.4 L20.25 21.75 21.05 21.5 23.9 26.4 Q26.95 31.4 28.95 33.85 L23.25 34.4 20.5 28.55 17.35 22.4 M-17.25 34.85 L-22.65 34.8 Q-22.5 31.5 -21.75 29.3 -19.65 23.4 -19.3 21.95 L-18.95 22.0 -16.95 22.5 -15.8 22.65 Q-16.25 23.3 -16.5 24.35 -16.95 26.3 -17.25 29.85 L-17.25 34.85" fill="#942403" fill-rule="evenodd" stroke="none"/>
      <path d="M35.5 -0.35 L34.25 -0.15 34.25 -1.6 34.15 -10.95 37.75 -7.8 Q42.8 -3.7 43.2 -0.55 L42.8 -0.25 Q41.9 0.55 41.8 1.3 40.6 0.45 39.1 0.15 37.35 -0.55 35.5 -0.35 M27.25 4.75 L29.9 4.4 Q29.25 6.2 29.25 9.1 L29.05 10.7 28.45 10.25 25.8 8.5 24.85 7.1 23.95 6.25 24.15 5.6 24.3 5.5 24.35 5.2 24.3 5.2 24.75 4.75 27.25 4.75 M17.35 22.4 L20.5 28.55 23.25 34.4 18.85 34.95 18.65 34.95 18.5 35.0 17.1 35.15 Q12.55 35.5 2.15 35.5 L-14.1 34.9 -17.25 34.85 -17.25 29.85 Q-16.95 26.3 -16.5 24.35 -16.25 23.3 -15.8 22.65 L-12.25 22.85 -1.5 23.25 12.75 22.85 17.35 22.4" fill="#731c02" fill-rule="evenodd" stroke="none"/>
    </g>
    <g id="shape8" transform="matrix(1.0, 0.0, 0.0, 1.0, 34.55, 27.9)">
      <path d="M3.8 -25.15 L7.85 -25.35 Q24.65 -25.35 30.15 -11.35 31.75 -7.3 32.3 -2.85 L34.65 -1.45 36.2 0.35 Q37.5 1.3 37.5 2.1 L37.4 2.95 37.3 3.0 35.3 3.0 32.15 -0.15 Q29.5 -2.6 28.1 -3.25 L26.55 -8.95 Q21.75 -21.95 7.35 -21.95 -3.45 -21.95 -9.9 -14.5 -15.7 -7.8 -16.25 2.45 L-16.3 8.55 -16.25 14.7 Q-16.25 17.15 -16.65 17.75 -17.7 19.5 -22.15 20.5 -22.85 20.65 -27.25 23.15 L-31.8 23.15 -31.9 22.95 -32.0 22.8 -32.05 22.25 -32.05 22.15 Q-32.05 21.1 -26.25 18.75 L-20.3 16.4 -20.5 15.95 -20.55 15.9 -20.05 15.7 -20.0 15.45 -19.95 15.25 -19.95 14.9 -19.8 12.85 -19.75 12.15 -19.4 7.0 -19.3 5.35 -19.3 5.15 -19.3 5.1 -19.3 4.95 -19.3 4.85 -19.3 4.8 -19.3 4.7 -19.3 4.65 -19.35 1.25 -19.4 0.85 -19.45 0.45 -19.45 0.4 -19.4 -0.35 -18.05 -5.75 -18.85 -4.8 Q-17.8 -9.75 -15.9 -13.4 L-15.85 -13.45 -14.95 -14.45 -13.85 -16.6 -13.8 -16.65 -13.4 -17.2 -12.65 -18.05 Q-8.45 -22.6 -1.55 -24.3 L0.7 -24.7 3.8 -25.15" fill="#969cab" fill-rule="evenodd" stroke="none"/>
      <path d="M35.3 3.0 L37.3 3.0 37.4 2.95 37.5 2.1 Q37.5 1.3 36.2 0.35 L34.65 -1.45 32.3 -2.85 Q31.75 -7.3 30.15 -11.35 24.65 -25.35 7.85 -25.35 L3.8 -25.15 -1.55 -24.3 Q-8.45 -22.6 -12.65 -18.05 L-13.4 -17.2 -13.8 -16.65 -13.85 -16.6 Q-14.95 -15.2 -15.85 -13.45 L-15.9 -13.4 Q-17.8 -9.75 -18.85 -4.8 L-19.6 -0.2 -19.45 0.4 -19.45 0.45 -19.4 0.85 -19.35 1.25 -19.3 4.65 -19.3 4.7 -19.3 4.8 -19.3 4.85 -19.3 4.95 -19.3 5.1 -19.3 5.15 -19.3 5.35 -19.4 7.0 -19.75 12.15 -19.8 12.85 -19.95 14.9 -19.95 15.25 -20.0 15.45 -20.05 15.7 -20.55 15.9 -20.5 15.95 -20.3 16.4 -26.25 18.75 Q-32.05 21.1 -32.05 22.15 L-32.05 22.25 -32.0 22.8 -31.9 22.95 -31.8 23.15 -27.25 23.15 -14.0 23.15 Q-8.0 23.1 -6.8 14.8 L-6.05 8.2 Q-5.65 5.35 -4.75 4.0 L-4.8 3.3 -4.9 2.8 -1.85 2.45 Q4.35 2.25 29.6 2.85 L30.95 2.9 31.0 2.85 31.35 2.75 32.05 2.6 32.05 3.05 35.3 3.0 M35.25 -3.45 L37.25 -1.6 38.8 0.45 Q39.5 1.75 39.5 2.4 39.5 3.8 38.95 4.15 37.3 5.3 30.7 5.5 L31.15 8.35 31.2 13.75 31.5 16.6 Q31.65 19.0 31.2 20.7 29.8 25.9 22.2 25.9 L19.15 25.7 Q17.15 27.9 10.45 27.9 1.05 27.9 -0.3 25.65 L-0.6 24.9 -0.8 24.9 Q-3.15 24.9 -4.9 23.7 -4.9 24.05 -5.35 24.3 -7.45 25.4 -23.3 25.4 -32.0 25.4 -34.0 23.8 -34.65 23.3 -34.55 22.65 L-34.3 22.05 Q-34.3 20.75 -30.0 18.15 -25.45 15.4 -22.55 15.4 L-22.1 15.4 -22.2 15.25 -22.25 15.1 -22.3 13.9 Q-22.55 8.05 -22.4 5.05 -22.25 2.05 -21.6 0.35 L-21.8 -0.85 Q-21.8 -3.7 -20.2 -8.2 -18.1 -14.05 -14.45 -18.45 -3.85 -31.1 15.25 -26.85 27.25 -22.45 31.2 -12.85 32.6 -9.4 33.6 -3.95 L35.25 -3.45 M28.8 4.9 L28.7 4.9 28.7 5.3 28.8 4.9 M29.2 14.7 L29.35 12.4 Q22.15 12.45 17.05 14.1 L15.65 14.7 19.5 15.15 19.7 21.15 20.0 22.65 20.05 23.25 20.4 23.35 20.7 23.7 Q28.2 23.7 29.2 14.7 M17.8 9.75 L18.7 9.9 Q19.95 9.9 19.75 9.65 L20.05 9.2 20.2 8.15 20.1 7.05 20.0 6.65 18.05 6.55 17.65 6.6 17.2 6.55 17.2 6.65 17.2 9.65 17.25 9.9 17.8 9.75 M1.2 9.05 L1.2 14.25 Q1.2 19.0 1.35 20.35 1.85 24.1 3.75 25.65 L17.7 25.65 17.7 17.4 17.5 16.95 Q11.7 18.55 10.15 14.05 9.7 12.7 9.7 8.0 L9.75 5.4 9.85 4.7 1.1 4.5 0.95 4.95 0.9 5.0 1.2 9.05" fill="#000000" fill-rule="evenodd" stroke="none"/>
      <path d="M3.8 -25.15 L0.7 -24.7 -1.55 -24.3 3.8 -25.15 M-13.85 -16.6 L-14.95 -14.45 -15.85 -13.45 Q-14.95 -15.2 -13.85 -16.6 M-18.85 -4.8 L-18.05 -5.75 -19.4 -0.35 -19.45 0.4 -19.6 -0.2 -18.85 -4.8 M-27.25 23.15 Q-22.85 20.65 -22.15 20.5 -17.7 19.5 -16.65 17.75 -16.25 17.15 -16.25 14.7 L-16.3 8.55 -16.25 2.45 Q-15.7 -7.8 -9.9 -14.5 -3.45 -21.95 7.35 -21.95 21.75 -21.95 26.55 -8.95 L28.1 -3.25 Q29.5 -2.6 32.15 -0.15 L35.3 3.0 32.05 3.05 32.05 2.6 31.35 2.75 31.0 2.85 30.95 2.9 29.6 2.85 Q4.35 2.25 -1.85 2.45 L-4.9 2.8 -4.8 3.3 -4.75 4.0 Q-5.65 5.35 -6.05 8.2 L-6.8 14.8 Q-8.0 23.1 -14.0 23.15 L-27.25 23.15 M1.2 9.05 L0.9 5.0 0.95 4.95 1.1 4.5 9.85 4.7 9.75 5.4 9.7 8.0 Q9.7 12.7 10.15 14.05 11.7 18.55 17.5 16.95 L17.7 17.4 17.7 25.65 3.75 25.65 Q1.85 24.1 1.35 20.35 1.2 19.0 1.2 14.25 L1.2 9.05" fill="#5b6171" fill-rule="evenodd" stroke="none"/>
      <path d="M29.2 14.7 Q28.2 23.7 20.7 23.7 L20.4 23.35 20.05 23.25 20.0 22.65 19.7 21.15 19.5 15.15 15.65 14.7 17.05 14.1 Q22.15 12.45 29.35 12.4 L29.2 14.7" fill="#aa8a71" fill-rule="evenodd" stroke="none"/>
      <path d="M17.65 6.6 L18.05 6.55 20.0 6.65 20.1 7.05 20.2 8.15 20.05 9.2 19.75 9.65 Q19.95 9.9 18.7 9.9 L17.8 9.75 17.2 9.65 17.2 6.65 17.65 6.6" fill="#ffffff" fill-rule="evenodd" stroke="none"/>
    </g>
    <g id="shape9" transform="matrix(1.0, 0.0, 0.0, 1.0, 12.05, 21.8)">
      <path d="M13.25 -13.55 Q13.25 -9.25 11.1 -3.95 L7.35 4.15 Q6.25 4.3 5.85 5.3 L5.2 5.1 8.15 9.4 Q12.4 15.8 12.4 17.3 12.4 18.05 10.25 19.8 6.9 22.5 0.3 24.6 L-0.45 24.9 -1.75 25.0 Q-4.4 25.0 -8.2 15.75 -11.65 7.4 -11.65 4.7 L-11.6 4.35 -12.05 4.1 -11.45 1.2 Q-10.3 -3.85 -9.15 -5.75 L-9.55 -6.1 -9.7 -5.95 -10.25 -5.7 Q-11.25 -6.9 -11.25 -7.35 -11.25 -9.65 -7.45 -13.65 -4.1 -17.2 -0.95 -18.95 7.85 -23.95 11.35 -20.15 13.25 -18.05 13.25 -13.55 M9.5 -19.15 Q4.55 -19.15 2.05 -17.9 0.45 -17.1 -4.0 -13.15 L-7.2 -9.55 -8.55 -7.55 -7.55 -6.95 -7.45 -6.95 -7.45 -6.9 -7.05 -6.55 Q-3.65 -3.2 -2.2 -2.45 2.85 0.95 5.8 3.25 L8.25 -3.3 Q11.25 -10.95 11.25 -13.45 10.5 -19.15 9.5 -19.15 M1.85 4.25 L2.25 3.65 -1.3 0.95 -7.55 -4.35 -9.25 1.35 -9.55 2.4 Q-9.15 3.7 -9.05 5.85 L-9.05 6.9 Q-9.05 8.55 -5.8 15.55 -2.45 22.8 -1.2 22.8 1.15 22.6 10.0 16.4 L2.45 5.15 1.85 4.25" fill="#000000" fill-rule="evenodd" stroke="none"/>
      <path d="M1.85 4.25 L2.45 5.15 10.0 16.4 Q1.15 22.6 -1.2 22.8 -2.45 22.8 -5.8 15.55 -9.05 8.55 -9.05 6.9 L-9.05 5.85 Q-9.15 3.7 -9.55 2.4 L-9.25 1.35 -7.55 -4.35 -1.3 0.95 2.25 3.65 1.85 4.25" fill="#aa8a71" fill-rule="evenodd" stroke="none"/>
      <path d="M9.5 -19.15 Q10.5 -19.15 11.25 -13.45 11.25 -10.95 8.25 -3.3 L5.8 3.25 Q2.85 0.95 -2.2 -2.45 -3.65 -3.2 -7.05 -6.55 L-7.45 -6.9 -7.45 -6.95 -7.55 -6.95 -8.55 -7.55 -7.2 -9.55 -4.0 -13.15 Q0.45 -17.1 2.05 -17.9 4.55 -19.15 9.5 -19.15" fill="#942403" fill-rule="evenodd" stroke="none"/>
    </g>
    <g id="shape10" transform="matrix(1.0, 0.0, 0.0, 1.0, 12.75, 30.25)">
      <path d="M1.95 -22.1 L4.15 -22.05 6.9 -21.75 Q6.95 -25.9 7.45 -28.15 L6.25 -28.1 3.4 -27.75 1.95 -27.75 -10.95 -27.75 -10.75 -26.3 -10.6 -23.9 -10.6 26.45 Q-10.05 26.2 -9.35 26.1 L-1.05 25.85 2.55 25.95 7.05 26.2 Q6.75 24.5 6.75 22.0 L6.75 20.25 2.45 20.25 -3.2 20.25 -3.2 20.35 -4.9 20.2 Q-5.25 19.5 -5.25 18.6 L-5.1 15.75 -5.1 -11.25 Q-5.0 -13.0 -5.25 -16.9 -5.25 -20.25 -4.1 -21.75 L-3.95 -21.55 -1.5 -21.95 1.4 -22.0 1.95 -22.1 M7.65 -30.25 L7.7 -30.1 Q8.25 -29.1 9.1 -28.55 L9.15 -28.35 9.05 -28.25 8.45 -28.2 8.75 -26.3 8.9 -23.9 8.9 26.95 7.9 28.75 7.6 28.25 -4.1 28.5 -11.1 28.75 -11.55 28.75 -11.6 28.75 -11.9 28.6 -12.1 28.15 -12.05 27.95 Q-12.75 26.1 -12.75 22.0 L-12.6 14.5 -12.6 1.0 -12.5 -13.1 -12.4 -16.1 -12.5 -16.7 -12.6 -20.75 Q-12.6 -25.25 -12.15 -27.75 L-12.2 -27.75 -12.4 -27.85 Q-12.6 -28.0 -12.6 -28.75 L-12.7 -29.0 -11.7 -29.4 -11.6 -29.75 -11.45 -29.45 3.9 -30.0 7.65 -30.25 M2.0 18.25 L6.8 18.25 6.9 14.5 6.9 1.0 7.0 -13.1 7.1 -16.1 7.0 -16.7 6.9 -19.75 1.1 -19.75 -3.05 -19.75 -3.25 -19.75 -3.2 -19.45 Q-2.95 -18.2 -2.95 -16.6 L-3.1 -11.0 Q-3.0 -8.9 -3.05 -4.85 L-3.1 -0.3 -3.15 18.5 2.0 18.25" fill="#000000" fill-rule="evenodd" stroke="none"/>
      <path d="M2.0 17.8 L2.0 18.25 2.0 17.8 M-3.2 -19.45 L-3.25 -19.75 -3.05 -19.75 -3.2 -19.45" fill="#b98d4d" fill-rule="evenodd" stroke="none"/>
      <path d="M-3.05 -19.75 L-3.2 -19.45 -3.05 -19.75" fill="#99743c" fill-rule="evenodd" stroke="none"/>
      <path d="M1.1 -19.75 L1.7 -2.3 2.0 10.3 2.0 17.8 2.0 18.25 -3.15 18.5 -3.1 -0.3 -3.05 -4.85 Q-3.0 -8.9 -3.1 -11.0 L-2.95 -16.6 Q-2.95 -18.2 -3.2 -19.45 L-3.05 -19.75 1.1 -19.75" fill="#8e6c24" fill-rule="evenodd" stroke="none"/>
      <path d="M1.1 -19.75 L6.9 -19.75 7.0 -16.7 7.1 -16.1 7.0 -13.1 6.9 1.0 6.9 14.5 6.8 18.25 2.0 18.25 2.0 17.8 2.0 10.3 1.7 -2.3 1.1 -19.75" fill="#cc9d3c" fill-rule="evenodd" stroke="none"/>
      <path d="M1.95 -27.75 L3.4 -27.75 6.25 -28.1 7.45 -28.15 Q6.95 -25.9 6.9 -21.75 L4.15 -22.05 1.95 -22.1 2.0 -25.05 1.95 -27.7 1.95 -27.75 M2.45 20.25 L6.75 20.25 6.75 22.0 Q6.75 24.5 7.05 26.2 L2.55 25.95 2.5 23.1 2.45 20.25" fill="#942403" fill-rule="evenodd" stroke="none"/>
      <path d="M1.95 -27.75 L1.95 -27.7 2.0 -25.05 1.95 -22.1 1.4 -22.0 -1.5 -21.95 -3.95 -21.55 -4.1 -21.75 Q-5.25 -20.25 -5.25 -16.9 -5.0 -13.0 -5.1 -11.25 L-5.1 15.75 -5.25 18.6 Q-5.25 19.5 -4.9 20.2 L-3.2 20.35 -3.2 20.25 2.45 20.25 2.5 23.1 2.55 25.95 -1.05 25.85 -9.35 26.1 Q-10.05 26.2 -10.6 26.45 L-10.6 -23.9 -10.75 -26.3 -10.95 -27.75 1.95 -27.75" fill="#731c02" fill-rule="evenodd" stroke="none"/>
    </g>
    <g id="shape11" transform="matrix(1.0, 0.0, 0.0, 1.0, 14.5, 74.85)">
      <path d="M-1.55 -53.25 L-1.85 -46.5 -1.85 -46.15 -2.0 -42.25 -2.05 -34.65 -1.85 -29.2 -1.8 -28.4 -1.5 -25.1 -1.5 -24.6 -1.5 -24.35 Q-1.5 -22.85 0.0 -20.6 2.1 -17.5 5.5 -17.5 L6.1 -17.55 8.0 -17.2 8.0 -18.15 8.0 -18.4 8.0 -18.5 8.0 -18.55 7.9 -20.5 7.6 -24.9 7.4 -32.7 7.4 -35.2 7.15 -40.5 7.1 -41.05 6.5 -48.2 5.55 -56.05 5.05 -58.3 Q3.15 -65.4 -1.0 -70.85 L-1.0 -68.05 Q-1.0 -65.7 -1.55 -53.25 M1.8 -70.8 L2.6 -69.45 Q3.4 -67.35 3.9 -66.6 L5.7 -63.05 Q6.85 -60.65 7.0 -59.1 8.3 -48.65 8.45 -43.85 10.2 -19.15 10.2 -13.3 L10.15 -10.7 10.25 -10.7 10.6 -11.15 Q11.25 -10.35 11.45 -8.15 L11.5 -5.2 Q11.5 -2.35 11.0 -0.45 L10.9 1.1 10.35 1.35 9.0 2.95 Q7.3 4.0 0.45 4.0 L-9.2 3.35 Q-13.4 2.35 -14.5 -0.6 L-14.5 -10.35 -14.3 -10.55 -13.65 -10.7 -13.65 -53.7 Q-12.4 -63.95 -5.85 -70.9 L-2.2 -74.6 -2.2 -74.65 -2.15 -74.65 -1.95 -74.85 -1.3 -74.65 -1.15 -74.4 Q-0.7 -74.3 -0.2 -74.0 L1.8 -70.8 M4.5 -10.75 L8.5 -10.7 Q8.0 -11.75 7.95 -13.1 L7.95 -15.2 7.0 -15.0 Q2.1 -15.0 -0.85 -18.5 L-1.15 -18.85 -1.75 -19.95 Q-2.35 -18.9 -4.2 -17.45 -6.35 -15.75 -8.0 -15.0 L-11.45 -15.0 -11.5 -15.75 -11.65 -15.7 -11.65 -14.95 -11.65 -13.5 -11.75 -10.5 -11.75 -10.4 -8.15 -10.6 -8.15 -10.45 -8.15 -10.4 Q-5.05 -10.7 4.5 -10.65 L4.55 -10.65 4.5 -10.75 M9.5 -9.0 L-12.7 -9.0 -12.8 -6.7 -1.5 -6.8 4.8 -6.75 9.4 -6.7 9.55 -7.25 9.5 -7.35 9.5 -9.0 M9.3 -3.35 L9.3 -4.95 4.4 -4.75 -1.3 -4.65 -7.0 -4.8 -12.85 -5.05 -13.0 -3.2 Q-13.1 -1.7 -12.3 -0.75 -10.05 2.05 0.45 2.05 7.3 2.05 9.45 -0.2 L9.35 -0.7 9.3 -3.35 M-3.45 -70.35 L-3.4 -70.45 -3.45 -70.4 -3.45 -70.35 -4.2 -69.45 -6.7 -66.6 -6.95 -66.65 -8.9 -63.0 -10.5 -59.45 Q-11.4 -57.15 -11.5 -55.55 L-11.55 -54.2 -11.9 -41.1 -11.9 -40.6 -11.9 -40.35 -11.9 -40.25 -11.9 -40.15 -11.8 -32.8 -11.75 -25.55 -11.75 -25.5 -11.65 -21.3 -11.65 -16.6 -11.65 -16.5 -11.5 -16.5 -9.65 -17.25 Q-7.45 -17.95 -6.3 -18.7 L-6.25 -18.95 -6.2 -18.95 -6.15 -19.25 -4.85 -20.15 Q-4.0 -20.95 -4.0 -22.25 L-4.1 -23.15 -4.0 -23.3 -4.0 -26.9 -4.0 -31.4 -4.0 -35.4 -3.95 -38.3 -3.75 -47.95 -3.5 -55.1 Q-3.4 -57.5 -3.65 -62.35 L-3.8 -64.85 -3.85 -65.15 Q-3.85 -68.1 -3.45 -70.35 M-1.7 -72.7 L-1.75 -72.65 -1.5 -72.45 -1.45 -72.45 -1.7 -72.7 M-0.8 12.65 L0.8 12.75 Q3.1 13.05 4.9 14.35 7.45 16.2 7.45 19.3 7.45 22.0 6.7 23.15 5.1 25.5 -0.15 25.5 -7.2 25.5 -8.8 22.65 -9.3 21.75 -9.25 20.6 L-9.0 19.65 Q-9.0 16.3 -6.45 14.4 -4.7 13.05 -2.35 12.75 L-0.8 12.65 M-6.4 22.15 Q-4.85 23.55 -0.35 23.55 4.35 23.55 5.5 21.5 6.05 20.45 5.7 19.65 5.7 16.95 3.0 15.6 1.15 14.75 -0.8 14.75 -5.15 14.75 -6.6 16.7 -7.3 17.65 -7.3 19.65 -7.3 21.3 -6.4 22.15" fill="#000000" fill-rule="evenodd" stroke="none"/>
      <path d="M9.3 -3.35 L9.35 -0.7 9.45 -0.2 Q7.3 2.05 0.45 2.05 -10.05 2.05 -12.3 -0.75 -13.1 -1.7 -13.0 -3.2 L-12.85 -5.05 -7.0 -4.8 -1.3 -4.65 4.4 -4.75 9.3 -4.95 9.3 -3.35 M-6.4 22.15 Q-7.3 21.3 -7.3 19.65 -7.3 17.65 -6.6 16.7 -5.15 14.75 -0.8 14.75 1.15 14.75 3.0 15.6 5.7 16.95 5.7 19.65 6.05 20.45 5.5 21.5 4.35 23.55 -0.35 23.55 -4.85 23.55 -6.4 22.15" fill="#8e6c24" fill-rule="evenodd" stroke="none"/>
      <path d="M9.5 -9.0 L9.5 -7.35 9.55 -7.25 9.4 -6.7 4.8 -6.75 -1.5 -6.8 -12.8 -6.7 -12.7 -9.0 9.5 -9.0" fill="#cc9d3c" fill-rule="evenodd" stroke="none"/>
      <path d="M-11.45 -15.0 L-11.45 -14.95 -11.2 -13.5 -11.5 -13.5 -11.65 -13.5 -11.65 -14.95 -11.45 -15.0 M4.5 -10.65 L4.5 -10.75 4.55 -10.65 4.5 -10.65 M-3.45 -70.35 L-3.45 -70.4 -3.4 -70.45 -3.45 -70.35 M-11.5 -16.5 L-11.65 -16.5 -11.65 -16.6 -11.45 -16.7 -11.5 -16.5" fill="#60606c" fill-rule="evenodd" stroke="none"/>
      <path d="M-11.65 -14.95 L-11.65 -15.7 -11.5 -15.75 -11.45 -15.0 -11.65 -14.95" fill="#a9a9b1" fill-rule="evenodd" stroke="none"/>
      <path d="M-1.55 -53.25 L3.0 -57.0 5.05 -58.3 5.55 -56.05 6.5 -48.2 5.5 -47.35 0.7 -43.8 -2.0 -41.95 -2.0 -42.25 -1.85 -46.15 -1.85 -46.5 -1.55 -53.25 M7.1 -41.05 L7.15 -40.5 7.4 -35.2 4.3 -32.75 -1.8 -28.4 -1.85 -29.2 -2.05 -34.65 0.5 -36.6 Q4.75 -39.8 7.1 -41.05 M-3.65 -62.35 Q-3.4 -57.5 -3.5 -55.1 L-3.75 -47.95 -8.0 -44.8 -11.9 -41.1 -11.55 -54.2 -8.85 -56.35 Q-5.1 -59.5 -3.65 -61.55 L-3.65 -62.35 M-3.95 -38.3 L-4.0 -35.4 -4.0 -31.4 -4.05 -31.4 -7.1 -29.5 -11.75 -25.55 -11.8 -32.8 -3.95 -38.3 M-4.0 -26.9 L-4.0 -23.3 -4.1 -23.15 -4.0 -22.25 Q-4.0 -20.95 -4.85 -20.15 L-6.15 -19.25 -6.2 -18.95 -6.25 -18.95 -6.3 -18.7 Q-7.45 -17.95 -9.65 -17.25 L-11.5 -16.5 -11.45 -16.7 -11.65 -16.6 -11.65 -21.3 -6.4 -25.1 -4.0 -26.9" fill="#a7b9be" fill-rule="evenodd" stroke="none"/>
      <path d="M-11.45 -15.0 L-8.0 -15.0 Q-6.35 -15.75 -4.2 -17.45 -2.35 -18.9 -1.75 -19.95 L-1.15 -18.85 -0.85 -18.5 Q2.1 -15.0 7.0 -15.0 L7.95 -15.2 7.95 -13.1 Q8.0 -11.75 8.5 -10.7 L4.5 -10.75 4.5 -10.65 Q-5.05 -10.7 -8.15 -10.4 L-8.15 -10.45 -8.15 -10.6 -11.75 -10.4 -11.75 -10.5 -11.65 -13.5 -11.5 -13.5 -11.2 -13.5 -11.45 -14.95 -11.45 -15.0 M-3.45 -70.35 Q-3.85 -68.1 -3.85 -65.15 L-3.8 -64.85 -3.65 -62.35 -3.65 -61.55 Q-5.1 -59.5 -8.85 -56.35 L-11.55 -54.2 -11.5 -55.55 Q-11.4 -57.15 -10.5 -59.45 L-8.9 -63.0 -6.95 -66.65 -6.7 -66.6 -4.2 -69.45 -3.45 -70.35 M-3.75 -47.95 L-3.95 -38.3 -11.8 -32.8 -11.9 -40.15 -11.9 -40.25 -11.9 -40.35 -11.9 -40.6 -11.9 -41.1 -8.0 -44.8 -3.75 -47.95 M-4.0 -31.4 L-4.0 -26.9 -6.4 -25.1 -11.65 -21.3 -11.75 -25.5 -11.75 -25.55 -7.1 -29.5 -4.05 -31.4 -4.0 -31.4" fill="#cdd7da" fill-rule="evenodd" stroke="none"/>
      <path d="M5.05 -58.3 L3.0 -57.0 -1.55 -53.25 Q-1.0 -65.7 -1.0 -68.05 L-1.0 -70.85 Q3.15 -65.4 5.05 -58.3 M-2.0 -42.25 L-2.0 -41.95 0.7 -43.8 5.5 -47.35 6.5 -48.2 7.1 -41.05 Q4.75 -39.8 0.5 -36.6 L-2.05 -34.65 -2.0 -42.25 M7.4 -35.2 L7.4 -32.7 7.6 -24.9 7.9 -20.5 8.0 -18.55 8.0 -18.5 8.0 -18.4 8.0 -18.15 8.0 -17.2 6.1 -17.55 5.5 -17.5 Q2.1 -17.5 0.0 -20.6 -1.5 -22.85 -1.5 -24.35 L-1.5 -24.6 -1.5 -25.1 -1.8 -28.4 4.3 -32.75 7.4 -35.2" fill="#8ca4aa" fill-rule="evenodd" stroke="none"/>
    </g>
    <g id="sprite4" transform="matrix(1.0, 0.0, 0.0, 1.0, 29.05, 29.25)">
      <clipPath id="clipPath1" transform="matrix(1.0, 0.0, 0.0, 1.0, 0.0, 0.0)">
        <path d="M46.5 -7.45 L46.65 -7.3 46.7 -7.2 Q47.2 -9.05 47.4 -0.7 L47.5 18.6 47.4 42.5 47.4 42.8 47.35 48.6 -7.85 48.6 -7.95 42.8 -8.0 42.5 -8.0 -1.85 -7.35 -7.1 -7.3 -7.25 Q-7.15 -7.8 -7.0 -7.3 L-6.75 -7.35 -6.5 -7.4 -0.55 -7.7 18.75 -7.8 42.65 -7.7 44.9 -7.55 45.0 -7.55 46.5 -7.45 M40.0 40.0 L40.0 0.0 0.0 0.0 0.0 40.0 40.0 40.0" fill="#00ff00" fill-rule="evenodd" stroke="none"/>
      </clipPath>
      <g clip-path="url(#clipPath1)">
        <use ffdec:characterId="937" height="49.05" transform="matrix(1.0, 0.0, 0.0, 1.0, -5.2, -5.05)" width="49.95" xlink:href="#shape13"/>
      </g>
    </g>
    <g id="shape13" transform="matrix(1.0, 0.0, 0.0, 1.0, 5.2, 5.05)">
      <path d="M18.85 -5.05 L40.4 -5.0 42.4 -4.85 42.5 -4.85 43.85 -4.75 44.0 -4.6 44.05 -4.55 Q44.5 -6.2 44.65 1.3 L44.75 18.7 44.65 40.2 44.5 42.2 Q44.4 43.75 44.05 43.75 L43.8 43.55 42.9 43.75 40.4 44.0 0.45 44.0 -3.55 43.55 -3.6 43.55 -4.6 43.75 -4.95 42.7 -5.2 40.2 -5.2 0.3 -4.6 -4.45 -4.55 -4.55 Q-4.45 -5.05 -4.3 -4.6 L-4.05 -4.65 -3.85 -4.7 1.5 -5.0 18.85 -5.05 M36.4 1.65 L36.8 1.25 41.65 -3.2 42.1 -3.6 41.7 -3.65 41.6 -3.85 40.4 -3.7 0.45 -3.7 -3.0 -4.1 2.5 0.85 3.3 1.65 1.8 1.65 1.8 2.6 1.8 1.65 3.3 1.65 3.6 1.95 2.0 1.95 2.0 2.8 1.8 2.6 0.3 1.1 -3.9 -4.2 -4.2 -4.3 -3.95 1.3 -3.85 18.7 -3.95 40.2 -4.05 42.2 -4.05 42.5 -4.0 42.3 -3.6 41.8 -1.65 39.65 1.8 36.1 1.8 37.95 2.0 37.95 1.8 37.95 1.8 36.1 2.0 35.9 2.0 37.95 2.6 37.95 -0.4 40.9 -2.75 42.9 1.5 42.7 18.85 42.65 40.4 42.7 42.4 42.85 42.5 42.85 42.4 42.8 39.65 40.55 37.05 37.95 38.0 37.95 38.15 37.95 38.15 36.45 38.15 37.95 38.0 37.95 38.0 36.35 38.15 36.45 40.9 39.3 42.85 41.45 43.6 42.45 43.4 40.2 43.4 0.3 43.85 -3.65 43.8 -3.65 42.95 -3.5 42.8 -3.3 39.0 1.45 38.15 2.3 38.15 1.65 36.4 1.65 38.15 1.65 38.15 2.3 38.0 2.45 38.0 1.95 36.0 1.95 36.4 1.65" fill="#473a29" fill-rule="evenodd" stroke="none"/>
      <path d="M3.3 1.65 L2.5 0.85 -3.0 -4.1 0.45 -3.7 40.4 -3.7 41.6 -3.85 41.7 -3.65 42.1 -3.6 41.65 -3.2 36.8 1.25 36.4 1.65 3.3 1.65 36.4 1.65 36.0 1.95 3.6 1.95 3.3 1.65 M1.8 36.1 L-1.65 39.65 -3.6 41.8 -4.0 42.3 -4.05 42.2 -3.95 40.2 -3.85 18.7 -3.95 1.3 -4.2 -4.3 -3.9 -4.2 0.3 1.1 1.8 2.6 2.0 2.8 2.0 35.9 1.8 36.1 1.8 35.0 1.8 33.05 1.8 2.6 1.8 33.05 1.8 35.0 1.8 36.1" fill="#bfaf91" fill-rule="evenodd" stroke="none"/>
      <path d="M38.15 2.3 L39.0 1.45 42.8 -3.3 42.95 -3.5 43.8 -3.65 43.85 -3.65 43.4 0.3 43.4 40.2 43.6 42.45 42.85 41.45 40.9 39.3 38.15 36.45 38.15 2.3 38.15 36.45 38.0 36.35 38.0 2.45 38.15 2.3 M37.05 37.95 L39.65 40.55 42.4 42.8 42.4 42.85 40.4 42.7 18.85 42.65 1.5 42.7 -2.75 42.9 -0.4 40.9 2.6 37.95 26.5 37.95 Q27.1 37.75 27.6 37.95 L37.05 37.95" fill="#6c5b3e" fill-rule="evenodd" stroke="none"/>
      <path d="M3.3 1.65 L36.4 1.65 38.15 1.65 38.15 2.3 38.15 36.45 38.15 37.95 38.0 37.95 37.05 37.95 27.6 37.95 Q27.1 37.75 26.5 37.95 L2.6 37.95 2.0 37.95 1.8 37.95 1.8 36.1 1.8 35.0 1.8 33.05 1.8 2.6 1.8 1.65 3.3 1.65 Z" fill="none" stroke="#473a29" stroke-linecap="round" stroke-linejoin="round" stroke-opacity="0.49019608" stroke-width="1.0"/>
    </g>
    <g id="sprite5" transform="matrix(1.0, 0.0, 0.0, 1.0, 0.0, 48.5)">
      <use ffdec:characterId="949" height="340.0" transform="matrix(0.2505, 0.0, 0.0, 0.1427, 0.0114, -48.4851)" width="192.0" xlink:href="#shape14"/>
    </g>
    <g id="shape14" transform="matrix(1.0, 0.0, 0.0, 1.0, 2.15, 3.05)">
      <path d="M189.85 -3.05 L189.85 336.95 -2.15 336.95 -2.15 -3.05 189.85 -3.05" fill="#000000" fill-opacity="0.29803923" fill-rule="evenodd" stroke="none"/>
    </g>
    <g id="sprite6" transform="matrix(1.0, 0.0, 0.0, 1.0, 64.35, 49.9)">
      <use ffdec:characterId="58" height="400.0" transform="matrix(0.1796, 0.0, 0.0, 0.1248, -62.85, -49.9)" width="700.0" xlink:href="#shape15"/>
      <use ffdec:characterId="951" height="18.1" id="txt_name" transform="matrix(1.0, 0.0, 0.0, 1.0, -63.85, -49.05)" width="129.05" xlink:href="#text5"/>
      <use ffdec:characterId="952" height="35.25" id="txt_desc" transform="matrix(1.0, 0.0, 0.0, 1.0, -64.35, -35.05)" width="129.05" xlink:href="#text6"/>
    </g>
    <g id="shape15" transform="matrix(1.0, 0.0, 0.0, 1.0, 0.0, 0.0)">
      <path d="M700.0 400.0 L0.0 400.0 0.0 0.0 700.0 0.0 700.0 400.0" fill="#000000" fill-opacity="0.49803922" fill-rule="evenodd" stroke="none"/>
    </g>
    <g id="text5" transform="matrix(1.0, 0.0, 0.0, 1.0, -51.35, 2.0)">
      <g transform="matrix(1.0, 0.0, 0.0, 1.0, 51.35, -2.0)">
        <use fill="#ffffff" height="18.1" transform="matrix(0.0117, 0.0, 0.0, 0.0117, 45.95, 13.05)" width="129.05" xlink:href="#font_Lithos_Pro_Regular_N0"/>
        <use fill="#ffffff" height="18.1" transform="matrix(0.0117, 0.0, 0.0, 0.0117, 56.95, 13.05)" width="129.05" xlink:href="#font_Lithos_Pro_Regular_a0"/>
        <use fill="#ffffff" height="18.1" transform="matrix(0.0117, 0.0, 0.0, 0.0117, 65.45, 13.05)" width="129.05" xlink:href="#font_Lithos_Pro_Regular_m0"/>
        <use fill="#ffffff" height="18.1" transform="matrix(0.0117, 0.0, 0.0, 0.0117, 76.75, 13.05)" width="129.05" xlink:href="#font_Lithos_Pro_Regular_e0"/>
      </g>
    </g>
    <g id="font_Lithos_Pro_Regular_N0">
      <path d="M216.5 7.5 L120.0 0.0 Q121.5 -20.5 124.5 -75.5 127.0 -130.5 131.0 -207.0 135.0 -283.5 139.0 -368.0 143.0 -452.5 147.0 -531.5 151.0 -610.5 153.5 -670.5 156.5 -730.5 158.0 -758.0 L160.0 -758.0 Q168.0 -748.5 209.0 -705.5 249.5 -663.0 309.5 -600.0 370.0 -537.0 437.0 -467.5 503.5 -398.0 564.0 -335.0 624.5 -272.0 666.0 -229.5 707.5 -186.5 716.5 -177.0 716.5 -185.5 717.0 -225.0 717.5 -265.0 718.0 -323.5 719.0 -382.5 720.0 -447.5 720.5 -513.0 721.5 -572.0 722.5 -631.5 723.0 -672.0 723.5 -712.5 724.0 -722.0 L819.0 -716.5 Q818.0 -697.0 815.0 -641.0 812.5 -585.0 808.5 -504.5 805.0 -424.0 801.5 -332.0 798.0 -240.0 795.5 -148.5 792.5 -57.0 791.5 21.5 L789.5 21.5 Q781.5 13.5 739.5 -29.5 697.0 -72.5 635.0 -136.5 572.5 -200.5 504.0 -271.5 435.0 -342.5 373.5 -406.5 312.0 -470.0 271.5 -513.0 231.5 -555.5 225.5 -563.0 L223.5 -563.0 Q223.5 -553.0 223.0 -511.0 222.5 -468.5 221.5 -407.0 220.5 -345.0 219.5 -277.0 218.5 -209.0 217.5 -147.5 217.0 -86.0 216.5 -44.0 216.0 -2.0 216.5 7.5" fill-rule="evenodd" stroke="none"/>
    </g>
    <g id="font_Lithos_Pro_Regular_a0">
      <path d="M226.5 -255.0 L476.5 -265.0 Q473.0 -271.5 460.0 -295.0 447.5 -318.5 430.0 -350.5 412.5 -382.5 395.0 -414.0 378.0 -445.5 365.0 -468.0 352.5 -490.5 349.5 -495.5 345.0 -488.5 332.5 -464.0 319.5 -439.5 303.0 -406.0 286.0 -373.0 269.5 -340.0 253.0 -307.0 241.0 -283.5 229.5 -260.0 226.5 -255.0 M93.5 18.5 L14.5 -26.5 Q27.5 -49.5 55.0 -100.0 83.0 -150.5 119.0 -216.5 155.0 -283.0 193.5 -353.0 231.5 -423.5 265.0 -485.0 299.0 -547.0 322.0 -589.0 345.0 -630.5 350.5 -640.0 L352.5 -640.0 Q376.5 -601.5 414.5 -538.0 452.0 -474.0 496.0 -399.0 540.0 -323.5 582.5 -250.0 625.5 -176.5 660.0 -119.0 694.0 -61.0 713.0 -32.5 L630.0 17.5 Q623.0 4.0 605.5 -28.5 587.5 -61.0 566.5 -99.0 545.5 -137.0 529.0 -166.5 512.0 -196.0 508.0 -202.5 L191.5 -190.5 Q186.5 -179.0 173.0 -150.5 159.5 -121.5 143.5 -86.5 127.0 -52.0 113.0 -23.0 99.0 6.5 93.5 18.5" fill-rule="evenodd" stroke="none"/>
    </g>
    <g id="font_Lithos_Pro_Regular_m0">
      <path d="M115.0 22.5 L31.0 -4.0 Q35.5 -14.5 51.5 -61.5 68.0 -108.0 91.0 -176.5 114.5 -245.0 140.0 -320.0 165.0 -395.0 187.5 -462.0 210.0 -529.0 224.5 -573.0 239.0 -617.5 241.0 -624.0 L245.0 -624.0 Q254.0 -606.5 276.0 -563.5 298.5 -521.0 327.5 -465.5 356.5 -410.5 385.5 -355.5 414.5 -300.5 437.0 -259.0 459.5 -217.0 468.0 -201.0 477.5 -216.5 502.5 -258.5 527.5 -300.0 560.0 -354.0 592.0 -408.0 623.5 -460.5 655.0 -513.0 677.5 -550.5 700.0 -588.0 705.5 -597.5 L708.5 -597.5 Q716.0 -579.0 732.5 -535.5 749.0 -492.5 771.5 -434.0 793.5 -375.5 818.0 -311.5 842.5 -247.5 865.5 -187.0 889.0 -127.0 907.0 -80.0 925.0 -33.0 935.0 -9.5 L850.0 22.5 Q843.0 1.5 826.0 -47.0 809.5 -95.5 787.5 -156.5 766.0 -218.0 745.0 -277.0 724.0 -336.5 708.5 -379.5 693.5 -422.0 689.5 -433.5 680.0 -418.0 657.5 -381.5 635.5 -345.5 606.5 -298.0 577.5 -250.5 548.0 -202.0 518.5 -153.5 494.5 -114.5 470.5 -75.5 458.0 -55.5 L456.0 -55.5 Q436.0 -93.0 408.0 -144.5 380.5 -196.5 351.0 -252.5 321.5 -308.0 295.5 -356.5 270.0 -405.0 254.0 -435.5 250.0 -421.0 239.0 -385.0 228.0 -349.0 213.0 -300.0 198.0 -251.5 182.0 -199.0 166.0 -146.5 151.5 -99.0 137.0 -52.0 127.5 -19.5 117.5 13.5 115.0 22.5" fill-rule="evenodd" stroke="none"/>
    </g>
    <g id="font_Lithos_Pro_Regular_e0">
      <path d="M458.5 -68.5 L461.5 9.5 Q451.5 9.5 417.0 8.5 383.0 7.5 337.5 6.0 292.0 5.0 247.0 3.5 202.0 2.0 170.5 1.0 138.5 0.0 132.0 0.0 133.0 -18.5 133.5 -56.0 134.5 -93.5 134.5 -136.0 135.0 -178.0 135.0 -211.0 135.0 -244.0 135.0 -252.5 L135.0 -368.5 Q135.0 -373.5 135.0 -397.5 134.5 -421.5 134.0 -454.5 134.0 -488.0 133.5 -521.5 133.0 -555.0 132.5 -579.5 132.5 -603.5 132.0 -609.5 139.5 -609.5 168.5 -611.0 197.5 -612.0 238.0 -614.5 278.5 -616.5 320.0 -618.5 362.0 -621.0 395.0 -623.0 428.5 -625.0 443.0 -626.0 L447.0 -552.0 Q431.0 -552.0 397.5 -551.5 364.0 -551.0 326.5 -550.0 288.5 -549.0 259.5 -548.5 231.0 -548.0 224.0 -548.0 L224.0 -334.5 Q231.0 -334.5 253.5 -335.0 276.0 -336.0 305.5 -337.0 335.5 -338.5 365.0 -340.0 394.5 -342.0 416.5 -343.5 L419.5 -269.0 Q407.0 -269.0 378.5 -269.5 350.5 -270.0 317.0 -271.0 284.5 -271.0 258.5 -271.5 232.5 -272.0 224.0 -272.0 L224.0 -65.5 Q233.0 -65.5 258.0 -65.0 283.0 -65.0 317.0 -65.0 351.5 -65.0 388.5 -66.0 425.5 -66.5 458.5 -68.5" fill-rule="evenodd" stroke="none"/>
    </g>
    <g id="text6" transform="matrix(1.0, 0.0, 0.0, 1.0, -51.35, 2.0)">
      <g transform="matrix(1.0, 0.0, 0.0, 1.0, 51.35, -2.0)">
        <use fill="#ffffff" height="35.25" transform="matrix(0.0098, 0.0, 0.0, 0.0098, 49.05, 7.2)" width="129.05" xlink:href="#font_Lithos_Pro_Regular_N0"/>
        <use fill="#ffffff" height="35.25" transform="matrix(0.0098, 0.0, 0.0, 0.0098, 58.2, 7.2)" width="129.05" xlink:href="#font_Lithos_Pro_Regular_a0"/>
        <use fill="#ffffff" height="35.25" transform="matrix(0.0098, 0.0, 0.0, 0.0098, 65.3, 7.2)" width="129.05" xlink:href="#font_Lithos_Pro_Regular_m0"/>
        <use fill="#ffffff" height="35.25" transform="matrix(0.0098, 0.0, 0.0, 0.0098, 74.7, 7.2)" width="129.05" xlink:href="#font_Lithos_Pro_Regular_e0"/>
      </g>
      <g transform="matrix(1.0, 0.0, 0.0, 1.0, 51.35, -2.0)">
        <use fill="#ffffff" height="35.25" transform="matrix(0.0098, 0.0, 0.0, 0.0098, 46.0, 16.95)" width="129.05" xlink:href="#font_Lithos_Pro_Regular_k0"/>
        <use fill="#ffffff" height="35.25" transform="matrix(0.0098, 0.0, 0.0, 0.0098, 52.6, 16.95)" width="129.05" xlink:href="#font_Lithos_Pro_Regular_j0"/>
        <use fill="#ffffff" height="35.25" transform="matrix(0.0098, 0.0, 0.0, 0.0098, 56.25, 16.95)" width="129.05" xlink:href="#font_Lithos_Pro_Regular_h0"/>
        <use fill="#ffffff" height="35.25" transform="matrix(0.0098, 0.0, 0.0, 0.0098, 64.5, 16.95)" width="129.05" xlink:href="#font_Lithos_Pro_Regular_k0"/>
        <use fill="#ffffff" height="35.25" transform="matrix(0.0098, 0.0, 0.0, 0.0098, 71.1, 16.95)" width="129.05" xlink:href="#font_Lithos_Pro_Regular_j0"/>
        <use fill="#ffffff" height="35.25" transform="matrix(0.0098, 0.0, 0.0, 0.0098, 74.75, 16.95)" width="129.05" xlink:href="#font_Lithos_Pro_Regular_h0"/>
      </g>
      <g transform="matrix(1.0, 0.0, 0.0, 1.0, 51.35, -2.0)">
        <use fill="#ffffff" height="35.25" transform="matrix(0.0098, 0.0, 0.0, 0.0098, 46.0, 26.7)" width="129.05" xlink:href="#font_Lithos_Pro_Regular_k0"/>
        <use fill="#ffffff" height="35.25" transform="matrix(0.0098, 0.0, 0.0, 0.0098, 52.6, 26.7)" width="129.05" xlink:href="#font_Lithos_Pro_Regular_j0"/>
        <use fill="#ffffff" height="35.25" transform="matrix(0.0098, 0.0, 0.0, 0.0098, 56.25, 26.7)" width="129.05" xlink:href="#font_Lithos_Pro_Regular_h0"/>
        <use fill="#ffffff" height="35.25" transform="matrix(0.0098, 0.0, 0.0, 0.0098, 64.5, 26.7)" width="129.05" xlink:href="#font_Lithos_Pro_Regular_k0"/>
        <use fill="#ffffff" height="35.25" transform="matrix(0.0098, 0.0, 0.0, 0.0098, 71.1, 26.7)" width="129.05" xlink:href="#font_Lithos_Pro_Regular_j0"/>
        <use fill="#ffffff" height="35.25" transform="matrix(0.0098, 0.0, 0.0, 0.0098, 74.75, 26.7)" width="129.05" xlink:href="#font_Lithos_Pro_Regular_h0"/>
      </g>
    </g>
    <g id="font_Lithos_Pro_Regular_k0">
      <path d="M621.5 -61.5 L558.0 8.5 Q553.5 4.0 523.0 -26.5 493.0 -56.5 449.0 -100.5 405.0 -144.0 359.5 -189.5 314.0 -235.5 278.5 -271.0 243.0 -306.5 230.0 -320.5 235.5 -326.0 265.5 -353.5 295.5 -381.5 337.5 -421.0 379.5 -460.5 421.5 -500.5 464.0 -540.5 495.0 -569.5 526.0 -599.0 533.0 -606.5 L587.5 -540.0 Q572.5 -528.5 540.0 -501.0 507.0 -473.5 467.0 -440.0 427.0 -406.0 392.0 -375.5 356.5 -345.0 336.5 -327.0 346.0 -316.0 373.5 -289.5 401.5 -262.5 438.5 -228.0 476.0 -193.5 513.5 -159.0 551.0 -124.5 580.5 -98.0 609.5 -72.0 621.5 -61.5 M228.0 9.5 L130.0 9.5 Q130.5 -1.0 131.5 -30.0 132.5 -59.0 133.0 -99.0 134.0 -139.5 134.5 -182.5 135.0 -225.5 135.0 -263.0 L135.0 -355.5 Q135.0 -385.0 134.0 -426.0 133.5 -466.5 132.5 -508.0 131.5 -549.5 130.5 -580.0 130.0 -610.5 130.0 -619.0 L228.0 -619.0 Q227.5 -612.5 227.0 -583.5 226.0 -554.5 225.0 -514.5 224.5 -474.0 223.5 -433.5 223.0 -393.0 223.0 -363.5 L223.0 -270.5 Q223.0 -244.0 223.5 -200.5 224.0 -157.5 225.0 -111.5 225.5 -66.0 226.5 -32.0 227.5 1.5 228.0 9.5" fill-rule="evenodd" stroke="none"/>
    </g>
    <g id="font_Lithos_Pro_Regular_j0">
      <path d="M258.0 -400.5 L258.0 -264.5 Q257.0 -170.0 230.5 -104.5 204.0 -39.5 161.5 1.0 119.0 41.5 70.5 61.5 L25.5 -7.5 Q70.0 -25.5 102.0 -57.0 134.0 -88.5 151.5 -139.5 169.0 -190.5 169.0 -266.5 L169.0 -402.5 Q169.0 -409.0 168.5 -438.0 168.0 -467.0 167.5 -503.5 166.5 -540.5 166.0 -570.5 165.5 -600.5 165.0 -609.5 L263.0 -609.5 Q262.0 -601.0 261.0 -571.5 259.5 -542.0 259.0 -497.5 258.0 -453.5 258.0 -400.5" fill-rule="evenodd" stroke="none"/>
    </g>
    <g id="font_Lithos_Pro_Regular_h0">
      <path d="M228.0 0.0 L132.0 0.0 Q132.5 -12.0 133.0 -40.0 133.5 -67.5 134.0 -103.0 134.5 -138.0 134.5 -172.0 135.0 -206.5 135.0 -231.5 135.0 -256.5 135.0 -264.0 L135.0 -358.0 Q135.0 -363.0 134.5 -388.0 134.5 -412.5 134.0 -447.0 133.5 -481.5 132.5 -516.5 132.0 -551.5 131.0 -577.0 130.5 -602.5 130.0 -609.5 L229.0 -609.5 Q228.5 -604.0 228.0 -583.0 227.0 -562.5 226.5 -533.5 225.5 -504.5 225.0 -476.0 224.5 -447.0 224.5 -426.0 224.0 -405.0 224.0 -400.0 L224.0 -336.5 618.5 -352.5 618.5 -418.5 Q618.5 -425.0 618.0 -451.5 618.0 -478.5 617.5 -512.0 617.0 -546.0 616.5 -573.5 616.0 -601.0 615.5 -609.5 L714.5 -609.5 Q714.0 -602.5 713.0 -574.5 712.0 -547.0 711.0 -509.0 710.5 -471.0 709.5 -432.5 708.5 -394.5 708.0 -367.0 707.5 -339.0 707.5 -332.0 L707.5 -245.5 Q707.5 -241.5 707.5 -217.0 708.0 -193.0 708.5 -159.0 708.5 -124.5 709.0 -90.0 710.0 -56.0 710.5 -31.0 711.0 -6.0 711.5 0.0 L613.5 0.0 Q614.5 -12.0 615.5 -41.5 616.5 -71.0 617.0 -105.0 618.0 -139.5 618.0 -166.5 618.5 -193.5 618.5 -200.5 L618.5 -288.5 224.0 -272.0 224.0 -219.0 Q224.0 -203.5 224.5 -171.0 225.0 -139.0 225.5 -102.5 226.5 -66.0 227.0 -37.5 227.5 -8.5 228.0 0.0" fill-rule="evenodd" stroke="none"/>
    </g>
  </defs>
</svg>
