<?xml version="1.0" encoding="UTF-8" standalone="no"?>
<svg xmlns:ffdec="https://www.free-decompiler.com/flash" xmlns:xlink="http://www.w3.org/1999/xlink" ffdec:objectType="frame" height="559.45px" width="707.95px" xmlns="http://www.w3.org/2000/svg">
  <g transform="matrix(1.0, 0.0, 0.0, 1.0, 353.95, 355.95)">
    <use ffdec:characterId="853" height="558.95" transform="matrix(1.0, 0.0, 0.0, 1.0, -353.95, -355.95)" width="707.95" xlink:href="#shape0"/>
    <use ffdec:characterId="863" height="366.05" transform="matrix(1.0, 0.0, 0.0, 1.0, -289.45, -202.6)" width="564.95" xlink:href="#shape1"/>
  </g>
  <defs>
    <g id="shape0" transform="matrix(1.0, 0.0, 0.0, 1.0, 353.95, 355.95)">
      <path d="M354.0 203.0 L-353.95 203.0 -353.95 -355.95 354.0 -355.95 354.0 203.0" fill="url(#gradient0)" fill-rule="evenodd" stroke="none"/>
    </g>
    <linearGradient gradientTransform="matrix(0.0, -0.3143, 0.4321, 0.0, 0.0, -61.5)" gradientUnits="userSpaceOnUse" id="gradient0" spreadMethod="pad" x1="-819.2" x2="819.2">
      <stop offset="0.0196078431372549" stop-color="#996600" stop-opacity="0.2"/>
      <stop offset="0.803921568627451" stop-color="#996600" stop-opacity="0.2"/>
      <stop offset="1.0" stop-color="#996600" stop-opacity="0.0"/>
    </linearGradient>
    <g id="shape1" transform="matrix(1.0, 0.0, 0.0, 1.0, 289.45, 202.6)">
      <path d="M263.0 -145.0 Q268.1 -144.6 269.6 -140.2 L272.65 -132.9 Q274.0 -129.0 275.0 -127.0 M275.0 162.95 L274.15 160.9 M-219.95 -202.0 Q-215.5 -202.65 -212.45 -199.5 L-209.45 -196.5 -205.15 -192.7 Q-199.1 -188.4 -193.95 -184.0 M-263.95 -105.0 Q-265.65 -105.3 -265.5 -108.05 -265.6 -112.35 -266.5 -115.15 -267.45 -118.5 -267.95 -119.0 M-153.0 117.0 Q-154.95 113.35 -154.65 109.05 -154.5 107.1 -155.35 105.65 L-156.75 100.95 M-287.95 92.0 L-288.95 92.0" fill="none" stroke="#333333" stroke-linecap="round" stroke-linejoin="round" stroke-opacity="0.6" stroke-width="1.0"/>
    </g>
  </defs>
</svg>
