<?xml version="1.0" encoding="UTF-8" standalone="no"?>
<svg xmlns:ffdec="https://www.free-decompiler.com/flash" xmlns:xlink="http://www.w3.org/1999/xlink" ffdec:objectType="frame" height="559.45px" width="707.95px" xmlns="http://www.w3.org/2000/svg">
  <g transform="matrix(1.0, 0.0, 0.0, 1.0, 353.95, 355.95)">
    <use ffdec:characterId="853" height="558.95" transform="matrix(1.0, 0.0, 0.0, 1.0, -353.95, -355.95)" width="707.95" xlink:href="#shape0"/>
    <use ffdec:characterId="867" height="368.15" transform="matrix(1.0, 0.0, 0.0, 1.0, -275.45, -183.7)" width="533.95" xlink:href="#shape1"/>
  </g>
  <defs>
    <g id="shape0" transform="matrix(1.0, 0.0, 0.0, 1.0, 353.95, 355.95)">
      <path d="M354.0 203.0 L-353.95 203.0 -353.95 -355.95 354.0 -355.95 354.0 203.0" fill="url(#gradient0)" fill-rule="evenodd" stroke="none"/>
    </g>
    <linearGradient gradientTransform="matrix(0.0, -0.3143, 0.4321, 0.0, 0.0, -61.5)" gradientUnits="userSpaceOnUse" id="gradient0" spreadMethod="pad" x1="-819.2" x2="819.2">
      <stop offset="0.0196078431372549" stop-color="#996600" stop-opacity="0.2"/>
      <stop offset="0.803921568627451" stop-color="#996600" stop-opacity="0.2"/>
      <stop offset="1.0" stop-color="#996600" stop-opacity="0.0"/>
    </linearGradient>
    <g id="shape1" transform="matrix(1.0, 0.0, 0.0, 1.0, 275.45, 183.7)">
      <path d="M12.0 -107.0 Q20.45 -98.85 26.75 -93.7 M203.0 -165.0 Q204.7 -168.05 207.75 -170.3 211.9 -173.4 214.0 -176.0 M258.0 183.95 L258.0 172.95 M124.0 151.95 Q121.0 157.5 116.0 162.0 M-274.95 -182.0 Q-271.25 -182.0 -267.95 -182.9 -265.25 -183.7 -264.35 -182.5 L-261.85 -180.05 Q-260.8 -178.3 -258.05 -176.8 -254.5 -174.8 -251.95 -172.0 M-52.0 -47.0 Q-52.75 -39.8 -56.75 -33.85 M-251.95 40.0 Q-253.05 33.3 -250.35 27.8 -249.95 23.0 -249.95 20.0 M-210.95 182.95 Q-210.95 178.45 -210.15 174.1 L-208.95 170.95 M1.0 149.95 Q-0.2 147.75 -0.4 145.05" fill="none" stroke="#333333" stroke-linecap="round" stroke-linejoin="round" stroke-opacity="0.6" stroke-width="1.0"/>
    </g>
  </defs>
</svg>
