<?xml version="1.0" encoding="UTF-8" standalone="no"?>
<svg xmlns:ffdec="https://www.free-decompiler.com/flash" xmlns:xlink="http://www.w3.org/1999/xlink" ffdec:objectType="frame" height="559.45px" width="707.95px" xmlns="http://www.w3.org/2000/svg">
  <g transform="matrix(1.0, 0.0, 0.0, 1.0, 353.95, 355.95)">
    <use ffdec:characterId="853" height="558.95" transform="matrix(1.0, 0.0, 0.0, 1.0, -353.95, -355.95)" width="707.95" xlink:href="#shape0"/>
    <use ffdec:characterId="862" height="336.95" transform="matrix(1.0, 0.0, 0.0, 1.0, -302.45, -161.5)" width="636.95" xlink:href="#shape1"/>
  </g>
  <defs>
    <g id="shape0" transform="matrix(1.0, 0.0, 0.0, 1.0, 353.95, 355.95)">
      <path d="M354.0 203.0 L-353.95 203.0 -353.95 -355.95 354.0 -355.95 354.0 203.0" fill="url(#gradient0)" fill-rule="evenodd" stroke="none"/>
    </g>
    <linearGradient gradientTransform="matrix(0.0, -0.3143, 0.4321, 0.0, 0.0, -61.5)" gradientUnits="userSpaceOnUse" id="gradient0" spreadMethod="pad" x1="-819.2" x2="819.2">
      <stop offset="0.0196078431372549" stop-color="#996600" stop-opacity="0.2"/>
      <stop offset="0.803921568627451" stop-color="#996600" stop-opacity="0.2"/>
      <stop offset="1.0" stop-color="#996600" stop-opacity="0.0"/>
    </linearGradient>
    <g id="shape1" transform="matrix(1.0, 0.0, 0.0, 1.0, 302.45, 161.5)">
      <path d="M78.0 -98.0 L78.0 -89.0 M255.0 -155.0 Q257.05 -156.65 260.0 -156.1 M204.0 -96.0 Q201.45 -97.95 200.2 -101.05 M236.0 19.0 Q234.55 14.95 230.05 14.6 228.5 14.5 227.05 13.9 M199.0 109.0 Q197.0 114.2 193.6 118.7 M292.0 173.95 Q289.4 172.75 287.75 170.1 L285.0 166.95 M334.0 127.0 Q329.05 135.65 321.05 142.05 M-258.95 -154.0 Q-248.3 -147.6 -235.5 -140.85 -231.95 -139.0 -228.25 -137.35 -223.95 -135.5 -219.95 -133.0 M-266.95 -54.0 Q-268.4 -56.05 -268.45 -60.0 L-268.95 -66.0 M-3.0 -161.0 Q-3.0 -157.0 -3.4 -153.05 M-73.0 -47.0 Q-69.8 -45.9 -69.2 -42.15 -62.9 -37.9 -61.05 -32.0 -59.45 -26.8 -56.95 -23.3 -56.0 -22.0 -55.7 -20.05 L-54.0 -16.0 M-301.95 174.95 Q-301.85 169.3 -301.0 163.95" fill="none" stroke="#333333" stroke-linecap="round" stroke-linejoin="round" stroke-opacity="0.6" stroke-width="1.0"/>
    </g>
  </defs>
</svg>
