<?xml version="1.0" encoding="UTF-8" standalone="no"?>
<svg xmlns:ffdec="https://www.free-decompiler.com/flash" xmlns:xlink="http://www.w3.org/1999/xlink" ffdec:objectType="frame" height="103.95px" width="87.25px" xmlns="http://www.w3.org/2000/svg">
  <g transform="matrix(1.0, 0.0, 0.0, 1.0, 37.5, 58.95)">
    <use ffdec:characterId="667" height="100.25" transform="matrix(1.0, 0.0, 0.0, 1.0, -37.5, -57.25)" width="85.75" xlink:href="#shape0"/>
  </g>
  <defs>
    <g id="shape0" transform="matrix(1.0, 0.0, 0.0, 1.0, 37.5, 57.25)">
      <path d="M-31.25 -51.15 Q-31.25 -52.75 -29.75 -52.9 -28.25 -53.1 -28.25 -51.65 -28.25 -49.25 -29.5 -49.25 -30.7 -49.25 -31.1 -50.0 L-31.25 -51.15 M-21.55 -52.15 L-21.75 -52.05 -22.25 -52.0 Q-23.25 -52.0 -23.0 -53.3 -23.0 -54.6 -22.25 -54.7 -21.5 -54.75 -21.5 -53.4 L-21.55 -52.15 M-16.75 -56.85 Q-15.75 -55.8 -15.75 -54.4 L-15.8 -53.15 -16.0 -53.05 -16.5 -53.0 Q-17.3 -53.0 -17.3 -53.65 L-17.25 -54.55 -17.55 -55.25 -17.75 -56.1 Q-17.75 -57.9 -16.75 -56.85 M-15.5 -52.45 Q-14.75 -52.35 -14.75 -51.5 L-14.8 -50.65 -15.0 -50.55 -15.5 -50.5 Q-16.15 -50.5 -16.25 -50.95 L-16.25 -51.45 Q-16.25 -52.6 -15.5 -52.45 M-10.95 -50.8 Q-11.75 -50.95 -11.95 -51.6 L-12.0 -52.4 Q-12.0 -54.1 -10.6 -53.95 -9.25 -53.75 -9.25 -52.05 L-9.25 -51.25 Q-9.35 -51.0 -9.6 -50.9 L-9.25 -49.25 -9.25 -49.0 -9.45 -48.65 Q-9.6 -48.5 -10.0 -48.5 -11.35 -48.5 -11.0 -50.3 L-10.95 -50.8 M-19.9 -49.8 Q-19.75 -49.8 -19.75 -49.15 L-19.8 -48.75 -20.5 -48.5 -21.25 -49.15 -21.05 -49.75 -19.9 -49.8 M-8.75 -44.55 L-9.25 -44.5 Q-10.25 -44.5 -10.0 -45.55 L-9.9 -46.35 Q-9.6 -46.85 -8.4 -46.55 -8.25 -46.55 -8.25 -45.9 -8.25 -45.4 -8.75 -44.55 M-6.75 -41.0 L-6.9 -40.9 -7.25 -39.8 -7.75 -39.75 Q-8.75 -39.75 -8.5 -41.0 -8.85 -41.4 -8.75 -42.15 -8.75 -43.25 -7.75 -43.25 -6.95 -43.25 -6.8 -42.75 L-6.75 -42.0 -6.75 -41.0 M-9.25 -37.7 Q-9.25 -38.85 -8.5 -38.7 -7.75 -38.6 -7.75 -37.75 L-7.8 -36.9 -8.0 -36.8 -8.5 -36.75 Q-9.15 -36.75 -9.25 -37.2 L-9.25 -37.7 M-13.75 -45.5 L-13.95 -45.35 -14.5 -45.25 -14.95 -45.3 -15.25 -45.5 Q-15.15 -46.8 -14.45 -47.25 -13.75 -47.65 -13.75 -46.1 L-13.75 -45.5 M-18.5 -45.05 Q-17.5 -45.35 -17.5 -44.25 -17.5 -43.3 -18.0 -42.3 L-18.5 -42.25 Q-19.65 -42.25 -19.5 -43.75 -19.5 -44.7 -18.5 -45.05 M-17.05 -37.65 L-17.85 -37.5 Q-18.5 -37.5 -19.25 -38.9 -19.25 -39.95 -18.1 -39.6 -17.0 -39.25 -17.0 -38.25 L-17.05 -37.65 M-13.5 -40.8 L-14.0 -40.75 Q-14.65 -40.75 -15.0 -42.15 -15.0 -43.05 -14.1 -42.95 -13.25 -42.9 -13.25 -41.8 -13.25 -41.25 -13.5 -40.8 M-10.85 -32.15 Q-10.0 -31.9 -10.0 -31.0 L-10.05 -30.4 -10.85 -30.25 Q-12.05 -30.25 -11.75 -31.2 -11.75 -32.45 -10.85 -32.15 M-13.5 -32.35 L-14.25 -32.25 Q-14.9 -32.25 -15.25 -32.95 L-15.5 -33.5 Q-15.5 -34.55 -14.35 -34.05 -13.25 -33.55 -13.25 -32.9 -13.25 -32.45 -13.5 -32.35 M-19.5 -31.75 L-19.7 -31.6 -20.25 -31.5 -20.7 -31.55 -21.0 -31.75 -21.0 -33.5 Q-19.95 -34.2 -19.65 -33.8 -19.5 -33.6 -19.5 -32.75 L-19.5 -31.75 M-19.75 -27.5 L-19.95 -27.35 -20.5 -27.25 Q-21.1 -27.25 -21.6 -27.8 L-22.0 -28.55 Q-22.0 -29.75 -21.0 -29.2 -20.05 -28.7 -19.75 -28.0 L-19.75 -27.5 M-16.5 -28.65 Q-16.5 -29.6 -15.35 -29.4 -14.25 -29.2 -14.25 -28.4 -14.25 -27.75 -15.1 -27.75 -15.8 -27.75 -16.15 -28.05 L-16.5 -28.65 M-8.75 -34.05 L-9.25 -34.0 Q-10.25 -34.0 -10.0 -35.05 -10.0 -36.15 -9.25 -36.15 -8.5 -36.15 -8.5 -35.05 -8.5 -34.5 -8.75 -34.05 M-28.25 -46.35 Q-28.25 -48.65 -26.75 -48.9 -25.25 -49.15 -25.25 -47.15 -25.25 -45.25 -26.6 -45.25 -28.35 -45.25 -28.25 -46.35 M-27.25 -39.9 Q-27.25 -39.25 -27.6 -38.7 -28.0 -38.0 -28.75 -38.0 -29.35 -38.0 -29.75 -39.45 L-30.0 -40.75 Q-30.0 -42.6 -28.6 -41.65 -27.25 -40.7 -27.25 -39.9 M-21.85 -39.75 Q-22.8 -39.75 -23.0 -40.5 L-23.0 -41.3 Q-23.0 -43.15 -21.75 -43.2 -20.5 -43.3 -20.5 -41.8 -20.5 -39.75 -21.85 -39.75 M-34.5 -44.65 Q-34.5 -46.2 -32.6 -46.0 -30.75 -45.8 -30.75 -44.4 -30.75 -43.8 -31.25 -43.2 -31.8 -42.5 -32.6 -42.5 -33.75 -42.5 -34.25 -43.55 L-34.5 -44.65 M-35.3 -47.9 L-36.1 -47.75 Q-36.85 -47.75 -37.25 -48.45 L-37.5 -49.0 Q-37.5 -49.9 -36.35 -49.65 -35.25 -49.35 -35.25 -48.5 L-35.3 -47.9 M-32.55 -38.9 L-33.35 -38.75 Q-35.75 -40.1 -35.75 -40.15 -35.75 -41.2 -34.1 -40.85 -32.5 -40.5 -32.5 -39.5 L-32.55 -38.9 M-22.25 -34.9 L-22.35 -33.85 Q-22.55 -33.5 -23.35 -33.5 -25.0 -33.5 -25.0 -34.8 -25.0 -36.75 -23.6 -36.5 -22.25 -36.3 -22.25 -34.9 M-27.25 -35.4 Q-27.25 -34.75 -28.1 -34.75 L-28.8 -34.8 -28.9 -34.95 -29.0 -35.4 Q-29.0 -36.4 -27.4 -36.05 -27.25 -36.05 -27.25 -35.4 M-24.35 -30.25 Q-24.65 -30.0 -25.0 -30.0 -26.5 -30.0 -26.5 -30.9 -26.5 -31.5 -26.0 -31.6 L-24.15 -31.55 Q-24.0 -31.55 -24.0 -30.9 -24.0 -30.55 -24.35 -30.25 M-15.85 -22.75 Q-16.45 -22.75 -16.8 -23.45 L-17.0 -24.05 Q-17.0 -25.3 -16.0 -24.8 -15.0 -24.35 -15.0 -23.4 -15.0 -22.75 -15.85 -22.75 M40.5 5.5 L39.75 4.8 Q39.75 3.55 41.0 4.1 L41.15 4.25 41.25 4.75 41.1 5.25 40.5 5.5 M45.45 8.6 Q45.9 8.4 47.0 8.6 L47.15 8.75 47.25 9.25 Q47.25 10.0 46.1 10.0 L45.1 9.85 45.0 9.3 Q45.0 8.75 45.45 8.6 M48.05 14.65 L47.5 15.0 Q45.5 15.0 45.5 14.05 45.5 13.3 46.15 13.2 46.95 13.05 48.25 14.1 L48.05 14.65 M42.8 16.2 L41.5 16.5 Q40.3 16.5 40.0 15.8 L40.0 15.25 Q40.0 14.2 41.65 14.05 43.25 13.85 43.25 15.4 L42.8 16.2 M41.25 24.4 Q41.25 25.5 40.5 25.5 39.85 25.5 39.75 25.0 L39.75 24.4 Q39.75 23.2 40.5 23.2 41.25 23.25 41.25 24.4 M40.9 19.4 L40.75 19.6 40.25 19.75 Q39.4 19.75 38.75 19.0 L38.25 18.2 Q38.25 17.15 39.65 17.65 41.0 18.15 41.0 18.8 L40.9 19.4 M45.0 27.8 Q45.0 28.3 44.6 28.75 44.2 29.25 43.75 29.25 42.95 29.25 42.55 28.55 L42.25 27.8 Q42.25 27.25 42.5 27.1 L43.6 27.0 Q45.0 27.0 45.0 27.8 M40.5 33.75 Q39.45 33.75 39.25 33.0 L39.25 32.15 Q39.25 30.75 40.65 30.45 42.0 30.15 42.0 32.0 L41.8 33.25 Q41.45 33.75 40.5 33.75 M46.75 36.8 Q46.75 39.25 44.85 39.25 44.15 39.25 44.0 38.4 L44.0 37.5 Q44.0 35.25 45.4 35.0 46.75 34.75 46.75 36.8 M41.0 42.05 Q40.2 42.75 39.5 42.75 38.85 42.75 38.5 41.7 L38.25 40.55 Q38.25 38.95 40.0 39.05 41.75 39.1 41.75 41.0 L41.0 42.05 M36.15 5.75 L36.25 6.25 Q36.25 7.0 35.25 7.0 L34.35 6.85 Q34.25 6.9 34.25 6.3 34.25 5.25 36.0 5.6 L36.15 5.75 M40.25 11.05 L40.15 11.65 40.0 11.85 39.5 12.0 Q38.95 12.0 38.7 11.5 L38.5 10.9 38.6 10.35 Q39.3 10.1 39.8 10.35 40.25 10.55 40.25 11.05 M27.75 4.5 L27.0 3.8 Q27.0 2.55 28.25 3.1 L28.4 3.25 28.5 3.75 28.35 4.25 27.75 4.5 M21.15 7.25 L21.25 7.75 21.1 8.25 20.5 8.5 19.75 7.8 Q19.75 6.6 21.0 7.1 L21.15 7.25 M21.75 12.0 Q21.75 12.5 21.35 13.05 L20.75 13.5 Q20.15 13.5 20.0 13.0 L20.0 12.5 Q20.0 11.8 20.15 11.55 20.45 11.1 21.5 11.35 L21.65 11.5 21.75 12.0 M24.0 12.25 L23.85 12.75 23.25 13.0 22.5 12.3 Q22.5 11.05 23.75 11.6 L23.9 11.75 24.0 12.25 M29.15 9.45 Q30.5 9.55 30.5 10.45 30.5 11.5 29.6 11.5 28.25 11.5 27.85 10.95 L27.75 10.35 Q27.75 9.35 29.15 9.45 M25.75 15.8 Q25.75 15.0 26.65 14.85 27.5 14.65 27.5 15.55 L27.4 16.15 Q27.25 16.5 26.6 16.5 L25.85 16.35 Q25.75 16.4 25.75 15.8 M24.4 21.5 L24.5 22.0 Q24.5 22.75 23.6 22.75 L22.85 22.6 Q22.75 22.65 22.75 22.05 22.75 20.95 24.25 21.35 L24.4 21.5 M27.1 22.25 L26.35 22.1 26.25 21.35 Q26.25 20.5 26.85 20.5 27.45 20.5 28.0 21.5 27.65 22.25 27.1 22.25 M34.5 13.0 Q34.5 13.75 33.6 13.75 L32.85 13.6 32.75 13.05 Q32.75 11.95 34.25 12.35 L34.4 12.5 34.5 13.0 M32.5 17.8 Q32.5 16.7 34.0 17.1 L34.15 17.25 34.25 17.75 Q34.25 18.5 33.35 18.5 L32.6 18.35 32.5 17.8 M34.0 22.75 Q34.95 22.75 35.2 23.25 L35.25 23.95 Q35.25 25.5 34.0 25.5 33.4 25.5 32.75 24.8 L32.25 24.05 Q32.25 23.5 32.75 23.1 33.3 22.75 34.0 22.75 M37.6 24.25 Q38.25 24.25 38.7 24.75 L39.0 25.5 39.0 25.7 39.0 26.0 38.85 26.5 38.25 26.75 37.5 27.0 Q36.65 27.0 36.5 26.35 L36.5 25.6 36.55 24.6 Q36.7 24.25 37.6 24.25 M14.35 10.35 Q14.25 10.4 14.25 9.8 14.25 8.7 15.75 9.1 L15.9 9.25 16.0 9.75 Q16.0 10.5 15.1 10.5 L14.35 10.35 M19.5 16.85 L19.65 17.0 19.75 17.5 19.6 18.0 19.0 18.25 18.25 17.55 Q18.25 16.35 19.5 16.85 M14.9 24.25 L15.0 24.75 14.85 25.25 14.25 25.5 13.5 24.8 Q13.5 23.55 14.75 24.1 L14.9 24.25 M18.9 25.65 Q18.6 25.85 18.25 26.0 L17.6 25.45 17.5 25.1 Q17.5 24.55 18.25 24.35 19.0 24.2 19.0 25.05 L18.9 25.65 M14.25 33.55 Q14.25 32.3 15.5 32.85 L15.65 33.0 15.75 33.5 15.6 34.0 15.0 34.25 14.25 33.55 M33.75 26.8 L33.65 27.4 33.0 27.75 32.35 27.2 32.25 26.85 Q32.25 26.3 33.0 26.1 33.75 25.95 33.75 26.8 M30.65 29.0 L30.75 29.5 Q30.75 30.25 29.85 30.25 L29.1 30.1 29.0 29.55 Q29.0 28.45 30.5 28.85 L30.65 29.0 M34.25 31.35 Q34.25 30.8 35.0 30.6 35.75 30.45 35.75 31.3 L35.65 31.9 35.0 32.25 Q34.25 31.6 34.25 31.35 M38.25 36.55 Q38.25 37.5 37.25 37.5 36.25 37.5 36.05 36.8 L36.0 36.05 Q36.0 34.8 37.15 34.7 38.25 34.6 38.25 36.55 M27.5 29.0 L26.75 28.3 Q26.75 27.05 28.0 27.6 L28.15 27.75 28.25 28.25 28.1 28.75 27.5 29.0 M22.3 29.25 L21.5 30.25 Q20.5 29.5 20.5 28.6 20.5 27.1 21.65 26.8 22.75 26.55 22.75 28.25 L22.3 29.25 M21.9 35.75 L22.0 36.25 21.85 36.75 21.25 37.0 Q20.5 36.35 20.5 36.3 20.5 35.1 21.75 35.6 L21.9 35.75 M28.0 34.75 Q28.0 35.6 26.25 36.25 25.5 35.6 25.5 34.85 25.5 33.55 26.75 33.5 28.0 33.45 28.0 34.75 M29.75 38.55 Q29.75 38.05 30.05 37.85 L30.75 37.75 Q31.5 37.75 31.7 38.25 L31.75 38.9 Q31.75 40.0 30.85 40.0 30.35 40.0 30.0 39.3 L29.75 38.55 M37.0 41.8 Q37.0 42.35 36.55 42.7 L35.5 43.0 Q34.4 43.0 34.1 42.4 L34.0 41.65 Q34.0 39.95 35.5 40.0 37.0 40.1 37.0 41.8" fill="#990000" fill-rule="evenodd" stroke="none"/>
    </g>
  </defs>
</svg>
