<?xml version="1.0" encoding="UTF-8" standalone="no"?>
<svg xmlns:ffdec="https://www.free-decompiler.com/flash" xmlns:xlink="http://www.w3.org/1999/xlink" ffdec:objectType="frame" height="103.95px" width="87.25px" xmlns="http://www.w3.org/2000/svg">
  <g transform="matrix(1.0, 0.0, 0.0, 1.0, 37.5, 58.95)">
    <use ffdec:characterId="668" height="103.95" transform="matrix(1.0, 0.0, 0.0, 1.0, -33.25, -58.95)" width="83.0" xlink:href="#shape0"/>
  </g>
  <defs>
    <g id="shape0" transform="matrix(1.0, 0.0, 0.0, 1.0, 33.25, 58.95)">
      <path d="M-31.35 -52.1 Q-30.45 -51.7 -30.25 -49.9 L-30.3 -49.5 -30.45 -49.35 -31.0 -49.25 Q-32.0 -49.25 -32.25 -51.05 -32.25 -52.55 -31.35 -52.1 M-30.5 -56.7 L-30.05 -56.55 -29.9 -56.55 Q-29.75 -56.55 -29.75 -55.9 L-29.75 -55.8 -29.75 -55.75 -29.8 -54.9 -30.0 -54.8 -30.5 -54.75 -30.65 -54.75 -30.75 -54.75 Q-31.4 -54.75 -31.5 -55.15 L-31.5 -55.6 -31.2 -56.2 Q-31.05 -56.8 -30.5 -56.7 M-22.0 -54.4 L-22.05 -53.3 -22.25 -53.1 -22.75 -53.0 Q-23.6 -53.0 -23.75 -53.7 L-23.75 -54.5 -23.65 -55.45 -22.15 -55.55 Q-22.0 -55.25 -22.0 -54.4 M-11.15 -56.65 L-10.75 -54.25 -10.8 -53.8 -11.0 -53.6 -11.5 -53.5 Q-12.35 -53.5 -12.5 -54.5 L-12.5 -55.5 -12.4 -56.55 -11.15 -56.65 M-17.25 -57.95 Q-17.25 -59.3 -16.25 -58.85 -15.25 -58.35 -15.25 -57.4 L-15.55 -55.65 -15.75 -55.55 -16.25 -55.5 Q-16.65 -55.5 -17.0 -56.75 L-17.25 -57.95 M-7.55 -43.0 L-7.7 -42.85 -8.25 -42.75 Q-9.15 -42.75 -9.75 -44.8 -9.75 -46.5 -8.7 -45.35 -7.85 -44.4 -7.5 -43.4 L-7.55 -43.0 M-14.25 -46.5 Q-14.95 -46.5 -15.2 -47.35 L-15.25 -48.1 Q-15.25 -49.45 -14.35 -49.2 -13.5 -48.95 -13.5 -47.4 L-13.55 -46.65 -13.75 -46.55 -14.25 -46.5 M-18.35 -44.6 Q-17.25 -44.15 -17.25 -42.7 L-17.5 -41.8 -18.0 -41.75 -18.85 -42.8 -19.5 -43.9 Q-19.5 -45.05 -18.35 -44.6 M-11.55 -37.55 L-11.75 -37.35 -12.25 -37.25 Q-12.9 -37.25 -13.75 -39.9 -13.75 -41.45 -12.6 -40.35 -11.5 -39.25 -11.5 -38.0 L-11.55 -37.55 M-10.3 -28.0 L-10.45 -27.85 -11.0 -27.75 Q-11.9 -27.75 -13.0 -29.9 -13.0 -31.5 -11.55 -30.35 -10.05 -29.15 -10.25 -28.4 L-10.3 -28.0 M-7.05 -35.5 L-7.2 -35.35 -7.75 -35.25 Q-8.55 -35.25 -9.0 -36.65 -9.0 -37.65 -8.1 -37.4 -7.2 -37.2 -7.0 -35.9 L-7.05 -35.5 M-24.95 -44.4 L-25.5 -44.25 Q-25.95 -44.25 -26.55 -45.5 L-27.0 -46.6 Q-27.0 -48.75 -26.0 -47.45 -25.2 -46.4 -24.75 -45.0 L-24.75 -44.75 -24.95 -44.4 M-32.1 -44.0 Q-32.95 -44.0 -33.25 -45.8 -33.25 -47.65 -32.25 -46.55 -31.25 -45.45 -31.25 -44.65 -31.25 -44.0 -32.1 -44.0 M-20.5 -35.85 L-21.0 -35.75 Q-21.6 -35.75 -22.1 -36.3 L-22.5 -37.05 Q-22.5 -37.9 -21.35 -37.65 -20.25 -37.4 -20.25 -36.5 L-20.3 -36.05 -20.5 -35.85 M-21.75 -32.25 Q-22.55 -32.25 -23.0 -33.25 L-23.25 -34.15 Q-23.25 -36.9 -20.75 -32.9 -20.75 -32.45 -21.0 -32.35 L-21.75 -32.25 M-29.5 -36.3 Q-29.5 -37.8 -28.6 -37.35 -27.7 -36.95 -27.5 -35.15 L-27.55 -34.75 -27.7 -34.6 -28.25 -34.5 Q-29.25 -34.5 -29.5 -36.3 M48.0 17.0 Q49.5 17.8 49.5 18.25 49.5 19.0 48.5 19.0 L47.25 18.3 46.5 17.55 Q46.5 16.25 48.0 17.0 M48.1 13.3 L49.75 14.5 Q49.4 15.25 48.85 15.25 47.9 15.25 47.6 14.7 L47.5 14.1 Q47.5 13.2 48.1 13.3 M43.75 21.75 L42.6 21.6 42.5 20.85 Q42.5 19.8 43.75 20.05 45.0 20.3 45.0 21.0 45.0 21.75 43.75 21.75 M46.1 30.25 Q45.2 30.25 44.75 29.35 L44.5 28.6 Q44.5 27.05 45.65 28.0 L47.0 29.5 Q46.7 30.25 46.1 30.25 M42.75 32.0 Q42.75 32.75 41.85 32.75 L40.0 31.3 Q40.0 30.15 41.4 30.65 42.75 31.15 42.75 32.0 M48.0 39.15 L48.0 39.55 47.85 39.75 47.25 40.0 Q46.65 40.0 46.0 38.95 L45.5 37.9 Q45.5 36.3 46.75 37.4 48.0 38.45 48.0 39.15 M42.25 42.9 L43.0 44.25 42.85 44.75 Q42.85 45.0 42.25 45.0 41.3 45.0 40.95 43.55 L40.75 42.2 Q40.75 41.55 41.15 40.85 41.7 39.95 42.25 41.4 L42.25 42.9 M26.75 16.5 L26.6 17.0 26.0 17.25 Q25.55 17.25 25.0 16.0 L24.5 14.75 Q24.5 12.9 25.65 14.2 26.75 15.55 26.75 16.5 M24.75 23.25 L25.25 25.4 25.15 25.75 25.0 26.05 24.5 26.25 Q23.65 26.25 23.5 25.35 L23.5 24.4 Q23.45 23.85 23.55 23.45 23.8 22.65 24.75 23.25 M29.5 22.4 L29.6 21.85 Q30.4 21.9 31.1 22.6 L31.75 23.4 31.65 23.75 31.5 24.05 31.0 24.25 Q30.2 24.25 29.8 23.35 L29.5 22.4 M37.05 14.65 L36.5 15.0 Q35.0 14.4 34.5 14.5 L33.85 13.95 33.75 13.6 Q33.75 12.55 35.25 12.8 36.7 13.05 37.25 14.1 L37.05 14.65 M34.5 22.0 Q34.5 20.35 35.65 21.4 36.75 22.45 36.75 23.0 L36.6 23.5 35.85 23.75 Q35.2 23.75 34.8 22.9 L34.5 22.0 M32.6 30.75 L32.0 31.0 Q31.4 31.0 30.9 29.95 L30.5 28.9 Q30.5 27.2 31.55 28.4 L32.75 30.25 32.6 30.75 M30.75 35.0 Q30.15 35.0 29.5 34.1 L29.0 33.15 29.1 32.6 Q30.55 32.6 31.5 34.15 L31.4 34.5 31.25 34.8 Q31.1 35.0 30.75 35.0 M38.9 36.65 Q38.75 37.0 38.1 37.0 37.45 37.0 37.05 36.1 L36.75 35.35 Q36.75 34.2 37.7 34.7 38.55 35.2 39.0 36.15 L38.9 36.65 M24.5 33.0 L24.75 34.15 24.75 34.55 24.6 34.75 24.0 35.0 Q23.4 35.0 23.0 33.75 L22.75 32.5 Q22.75 31.6 23.1 31.2 23.5 30.7 24.15 31.75 L24.5 33.0 M35.75 43.5 Q35.15 43.5 35.0 42.8 L35.0 42.05 Q35.0 40.45 35.75 40.45 36.5 40.4 36.5 42.0 36.5 43.5 35.75 43.5 M31.85 40.25 Q31.85 40.5 31.25 40.5 30.9 40.5 29.5 38.3 29.5 36.9 30.65 37.9 31.7 38.8 32.0 39.75 L31.85 40.25" fill="#990000" fill-rule="evenodd" stroke="none"/>
    </g>
  </defs>
</svg>
