<?xml version="1.0" encoding="UTF-8" standalone="no"?>
<svg xmlns:ffdec="https://www.free-decompiler.com/flash" xmlns:xlink="http://www.w3.org/1999/xlink" ffdec:objectType="frame" height="103.95px" width="87.25px" xmlns="http://www.w3.org/2000/svg">
  <g transform="matrix(1.0, 0.0, 0.0, 1.0, 37.5, 58.95)">
    <use ffdec:characterId="665" height="95.2" transform="matrix(1.0, 0.0, 0.0, 1.0, -35.3, -52.95)" width="81.3" xlink:href="#shape0"/>
  </g>
  <defs>
    <g id="shape0" transform="matrix(1.0, 0.0, 0.0, 1.0, 35.3, 52.95)">
      <path d="M29.0 -0.4 Q29.0 -1.2 31.65 -1.3 34.25 -1.35 34.25 -0.4 L33.95 0.1 31.6 0.25 29.1 -0.05 29.0 -0.4 M24.25 -3.65 L24.1 -3.25 23.5 -3.0 22.75 -3.65 22.85 -4.25 24.0 -4.3 24.25 -3.65 M33.25 -4.1 L35.5 -4.05 35.75 -3.4 Q35.75 -2.95 35.45 -2.85 L34.25 -2.75 32.85 -2.8 32.75 -3.4 Q32.75 -4.0 33.25 -4.1 M39.5 -0.55 Q39.75 -0.55 39.75 0.0 L39.45 0.6 38.25 0.75 36.85 0.6 Q36.75 0.65 36.75 0.05 36.75 -0.5 37.25 -0.6 L39.5 -0.55 M41.1 11.35 Q42.0 11.4 43.35 12.6 44.5 13.65 44.5 14.0 L44.35 14.5 43.75 14.75 Q43.3 14.75 42.15 13.45 L41.0 11.9 41.1 11.35 M45.75 9.8 L44.75 10.0 Q43.5 10.0 42.75 9.35 42.25 8.9 42.25 8.4 L42.35 7.85 44.2 8.35 46.0 9.15 45.75 9.8 M41.0 19.6 Q40.6 20.5 39.85 20.5 38.15 20.5 36.95 18.5 35.85 16.6 36.25 15.25 L35.7 15.95 Q35.5 16.25 34.85 16.25 33.9 16.25 33.5 15.25 L33.25 14.25 Q33.25 13.1 34.0 13.25 L35.1 13.55 37.1 13.5 Q39.0 13.5 39.5 14.45 39.8 15.0 39.9 16.0 L40.05 16.5 40.6 17.35 41.05 17.85 41.25 18.5 41.0 19.6 M43.75 29.5 Q42.05 29.5 41.5 27.7 L41.25 26.05 Q41.25 23.75 43.4 24.2 45.5 24.7 45.5 27.25 45.5 29.5 43.75 29.5 M40.55 29.45 L41.05 29.7 43.1 30.6 Q44.35 31.45 44.5 32.3 L44.5 34.15 44.4 35.5 Q44.15 36.25 43.1 36.25 40.65 36.25 39.8 33.75 L39.6 32.45 39.0 32.5 38.55 32.5 38.25 32.5 Q37.65 32.5 37.45 32.15 L37.1 31.5 37.25 33.05 Q37.05 34.0 35.0 34.0 34.55 34.0 33.25 30.85 L33.25 31.25 33.05 32.75 Q32.65 33.5 31.35 33.5 30.3 33.5 29.7 31.9 L29.25 30.25 Q29.25 29.4 29.65 29.3 L31.1 29.25 Q32.2 29.25 32.75 29.6 32.8 29.0 33.75 28.85 34.8 28.65 35.0 28.0 L34.85 27.15 Q34.8 26.6 35.0 26.35 L35.05 26.35 34.2 25.15 34.05 24.6 33.8 25.15 Q33.2 26.25 32.1 26.25 30.75 26.25 30.55 25.15 30.3 23.75 29.6 23.4 L29.5 21.9 28.9 21.3 Q28.5 21.05 28.5 20.6 28.5 18.95 29.45 19.55 L31.5 20.75 Q33.55 21.35 34.1 22.15 L34.15 22.25 34.25 22.1 Q34.95 21.5 35.8 21.5 36.7 21.55 37.15 22.25 L38.0 25.2 37.75 26.2 37.85 26.35 39.95 26.4 Q40.75 27.3 40.75 28.4 L40.55 29.45 M37.0 5.4 L37.1 4.85 38.95 5.05 Q39.75 5.5 39.75 6.0 39.75 6.75 38.75 6.75 37.9 6.75 37.35 6.15 37.0 5.75 37.0 5.4 M32.4 1.55 Q34.0 1.8 34.0 2.5 34.0 3.0 33.7 3.1 L32.35 3.25 31.35 3.05 Q30.85 2.9 30.75 2.75 L30.75 2.35 Q30.75 1.3 32.4 1.55 M32.0 4.5 Q32.4 4.5 33.75 6.5 33.75 7.5 31.0 7.5 29.6 7.5 29.45 6.55 29.3 5.75 26.25 6.0 L25.5 5.3 Q25.5 3.95 27.55 3.55 29.75 3.05 30.6 5.65 L31.15 4.8 Q31.45 4.5 32.0 4.5 M32.0 11.8 L31.85 12.9 Q31.7 13.25 31.1 13.25 30.4 13.25 30.0 12.4 L29.75 11.5 29.8 11.25 29.75 11.25 29.25 11.15 29.0 10.9 Q29.4 9.7 28.3 9.4 27.0 9.05 27.0 8.55 27.0 7.35 28.75 7.85 30.5 8.4 30.5 9.85 L30.5 10.55 30.85 10.5 Q31.8 10.5 32.0 11.15 L32.0 11.8 M33.85 10.15 L33.75 9.5 Q33.75 8.35 34.55 8.75 34.95 9.0 35.6 9.6 L37.45 10.65 Q38.5 11.3 38.5 11.75 38.5 12.5 37.6 12.5 36.6 12.5 34.75 11.1 L33.85 10.15 M23.65 6.15 Q26.5 8.9 26.5 9.8 L26.4 10.4 26.25 10.6 25.75 10.75 Q25.1 10.75 24.6 9.8 23.9 8.55 22.85 7.9 L21.6 6.65 20.75 5.35 Q20.75 3.35 23.65 6.15 M23.1 1.6 L23.0 1.05 Q23.0 0.5 23.45 0.35 23.95 0.15 25.25 0.35 25.5 0.4 25.5 1.0 25.5 1.75 24.25 1.75 L23.1 1.6 M26.4 17.85 L27.0 19.65 26.9 20.0 26.75 20.3 Q26.6 20.5 26.25 20.5 25.6 20.5 25.0 19.25 24.5 18.2 24.5 17.5 24.5 16.35 24.0 15.55 L23.5 14.55 Q23.5 13.25 24.9 13.9 26.35 14.55 26.0 15.85 L26.4 17.85 M22.25 18.2 Q22.25 19.0 21.5 19.25 21.0 19.0 20.25 17.3 19.5 15.65 19.5 14.95 19.5 13.1 20.9 14.95 22.25 16.8 22.25 18.2 M22.2 24.3 L22.25 24.5 Q23.25 25.1 23.25 26.9 L23.1 28.25 Q22.85 28.75 21.75 28.75 20.4 28.75 20.25 28.25 19.15 28.1 19.0 27.05 L19.0 25.8 19.0 25.4 19.0 25.25 19.05 25.05 19.1 24.4 Q19.5 23.55 21.0 23.5 22.0 23.45 22.2 24.3 M19.75 2.5 L19.6 3.0 19.0 3.25 18.25 2.55 Q18.25 1.35 19.5 1.85 19.75 1.9 19.75 2.5 M11.9 7.5 L11.25 5.55 Q11.25 1.4 14.0 8.75 L13.85 9.25 Q13.85 9.5 13.25 9.5 12.65 9.5 11.9 7.5 M16.25 17.8 L16.15 18.4 16.0 18.6 15.5 18.75 Q14.7 18.75 14.55 17.85 L14.5 16.8 14.55 15.85 15.75 15.75 16.25 17.8 M13.6 16.5 Q13.6 16.75 13.0 16.75 12.35 16.75 11.9 14.95 L11.5 13.05 Q11.5 11.95 12.2 11.4 12.85 10.8 13.0 12.75 12.85 13.8 13.75 16.0 L13.6 16.5 M12.5 21.6 Q13.5 22.65 13.5 25.0 13.5 28.4 13.75 30.0 L13.6 30.5 Q13.6 30.75 13.0 30.75 11.85 30.75 11.8 29.05 L12.0 26.65 11.75 24.45 11.5 22.75 Q11.5 20.55 12.5 21.6 M18.6 21.75 Q17.45 21.75 17.25 21.0 L17.25 20.05 Q17.25 18.05 18.5 18.2 19.75 18.4 19.75 20.1 19.75 21.75 18.6 21.75 M15.5 22.15 Q16.5 23.5 16.5 24.75 16.5 25.2 16.1 25.6 L15.5 26.0 Q14.65 26.0 14.5 24.75 L14.5 23.55 Q14.5 20.8 15.5 22.15 M10.6 30.75 Q10.6 31.0 10.0 31.0 9.15 31.0 9.0 30.1 L9.0 29.35 Q9.0 27.85 9.6 28.0 10.2 28.1 10.75 30.25 L10.6 30.75 M17.5 33.5 Q16.9 33.5 16.75 32.8 L16.75 32.05 Q16.75 30.45 17.5 30.45 18.25 30.4 18.25 32.0 18.25 33.5 17.5 33.5 M31.0 35.4 Q31.6 34.6 33.0 34.85 35.5 35.35 35.5 39.1 L35.35 40.35 Q35.1 41.0 34.1 41.0 33.7 41.0 32.45 40.4 31.1 39.8 30.9 39.35 30.5 38.45 30.5 37.3 L30.5 37.0 Q30.15 37.5 29.6 37.5 28.95 37.5 28.25 36.05 L27.75 34.7 Q27.75 32.2 29.4 32.55 31.0 32.9 31.0 35.25 L31.0 35.4 M27.35 28.0 L26.75 28.25 26.6 28.25 27.0 29.1 27.25 32.4 Q27.25 34.75 25.35 34.75 24.15 34.75 23.9 33.5 L23.75 31.75 23.75 30.25 24.55 30.1 25.4 30.35 Q25.5 29.25 26.05 28.5 26.25 28.25 26.4 28.2 25.75 28.0 25.25 27.0 L24.75 25.65 Q24.75 23.0 26.1 23.9 27.45 24.75 27.5 27.5 L27.35 28.0 M39.5 42.25 Q38.1 42.25 36.95 40.0 36.0 38.15 36.0 37.15 36.0 34.3 38.25 35.0 40.5 35.65 40.5 39.15 L40.25 40.95 Q39.95 42.25 39.5 42.25 M-23.75 -52.0 Q-23.75 -53.05 -22.5 -52.55 -21.5 -52.1 -21.3 -51.3 L-21.1 -51.0 -21.0 -49.85 -21.0 -48.5 -21.2 -48.35 -21.75 -48.25 -22.2 -48.3 -22.5 -48.5 -22.5 -50.1 -23.35 -51.05 -23.75 -52.0 M-5.25 -46.55 Q-5.25 -45.35 -5.5 -44.75 -5.85 -43.95 -6.8 -43.75 L-7.0 -43.45 -7.05 -43.25 -7.75 -43.0 -8.0 -43.25 Q-8.8 -43.3 -9.0 -43.65 L-9.0 -44.1 -8.95 -44.4 -9.0 -45.55 Q-9.0 -47.75 -7.1 -48.2 -5.25 -48.7 -5.25 -46.55 M-8.4 -37.55 Q-9.1 -37.7 -9.25 -38.4 L-9.25 -39.4 Q-9.25 -41.15 -7.35 -41.6 -5.5 -42.0 -5.5 -39.9 -5.5 -38.3 -6.6 -37.75 L-6.5 -37.15 -6.75 -35.75 -6.95 -35.6 -7.5 -35.5 -7.85 -35.5 -8.0 -35.5 Q-9.0 -35.5 -8.75 -36.55 L-8.65 -37.35 -8.4 -37.55 M-15.15 -46.2 Q-15.4 -46.65 -15.15 -46.75 -14.75 -47.0 -15.3 -47.05 -16.25 -47.1 -16.5 -47.5 L-16.75 -49.25 Q-16.75 -52.9 -14.75 -52.95 -12.75 -53.05 -12.75 -49.25 L-12.75 -47.75 -13.1 -47.1 -13.5 -46.0 -13.7 -45.85 -14.25 -45.75 Q-14.85 -45.75 -15.15 -46.2 M-11.5 -43.55 Q-11.5 -43.0 -12.0 -42.0 -12.6 -40.75 -13.35 -40.75 -14.55 -40.75 -14.75 -43.1 -14.75 -45.25 -13.1 -45.55 -11.5 -45.9 -11.5 -43.55 M-19.0 -44.3 Q-18.0 -43.25 -18.0 -42.35 L-18.0 -41.75 -18.2 -41.6 -18.75 -41.5 Q-19.75 -41.5 -20.0 -43.65 -20.0 -45.4 -19.0 -44.3 M-18.75 -38.25 L-18.75 -37.55 Q-18.75 -36.25 -20.0 -36.25 -20.5 -36.25 -21.5 -37.65 -21.5 -38.1 -21.1 -38.4 -20.65 -38.75 -20.0 -38.75 -19.0 -38.75 -18.75 -38.25 M-14.0 -37.7 Q-14.0 -39.4 -13.0 -39.45 -12.0 -39.5 -12.0 -38.25 -12.0 -36.75 -13.25 -36.75 -13.9 -36.75 -14.0 -37.2 L-14.0 -37.7 M-16.0 -35.15 L-16.05 -34.75 -16.75 -34.5 -17.5 -35.15 Q-17.4 -36.4 -16.15 -35.8 -16.0 -35.8 -16.0 -35.15 M-19.5 -31.0 Q-19.75 -30.5 -21.0 -30.5 -22.25 -30.5 -22.75 -31.55 L-23.0 -32.45 Q-23.0 -33.9 -21.25 -33.85 -19.5 -33.8 -19.5 -32.0 L-19.5 -31.0 M-15.7 -26.55 L-16.25 -26.5 Q-17.4 -26.5 -17.65 -27.2 L-17.75 -28.05 Q-17.75 -29.85 -16.35 -29.7 -15.0 -29.55 -15.0 -27.75 L-15.0 -27.25 -14.25 -26.9 Q-12.85 -25.85 -12.5 -24.15 L-12.55 -23.75 -12.7 -23.6 -13.25 -23.5 Q-13.7 -23.5 -14.05 -24.05 L-14.65 -24.9 -15.55 -25.55 -15.75 -26.05 -15.7 -26.55 M-19.9 -25.8 Q-21.75 -26.2 -21.75 -27.4 -21.75 -30.5 -16.25 -25.0 L-16.3 -24.55 -16.5 -24.35 -17.0 -24.25 Q-17.4 -24.25 -18.45 -24.95 L-19.9 -25.8 M-12.45 -28.65 L-12.5 -28.75 Q-13.15 -28.95 -14.65 -30.55 L-15.75 -32.55 Q-15.75 -35.2 -13.6 -33.35 -11.65 -31.65 -11.5 -30.35 -11.05 -29.9 -11.0 -28.95 L-10.25 -28.0 Q-10.25 -27.25 -11.1 -27.25 -11.85 -27.25 -12.25 -28.05 L-12.45 -28.65 M-9.75 -32.6 Q-9.75 -34.0 -8.35 -33.85 -7.0 -33.7 -7.0 -31.65 L-7.05 -30.75 -6.5 -30.5 -6.25 -28.15 -6.25 -27.25 -6.45 -27.1 -7.0 -27.0 -7.45 -27.05 -7.75 -27.25 -8.0 -29.55 -7.95 -30.25 -8.1 -30.25 Q-8.65 -30.25 -9.25 -31.25 L-9.75 -32.6 M-9.25 -25.7 Q-8.0 -25.5 -8.0 -24.6 L-8.0 -24.0 -8.2 -23.85 -8.75 -23.75 Q-9.0 -23.75 -9.75 -24.25 L-10.5 -24.9 Q-10.5 -25.9 -9.25 -25.7 M-24.35 -45.65 Q-22.75 -45.3 -22.75 -43.05 L-22.8 -42.25 Q-22.95 -41.75 -23.75 -41.75 -24.5 -41.75 -25.35 -43.0 L-26.0 -44.1 -26.0 -44.25 -26.5 -44.25 Q-27.5 -44.25 -29.0 -46.45 L-30.25 -48.4 Q-30.25 -50.25 -27.35 -49.75 -24.5 -49.3 -24.5 -46.45 L-24.5 -45.65 -24.35 -45.65 M-25.5 -39.5 Q-24.25 -37.55 -24.25 -36.7 L-24.25 -36.0 -24.45 -35.85 -25.0 -35.75 Q-25.55 -35.75 -26.65 -36.3 L-28.0 -37.15 -28.65 -38.05 -29.3 -38.8 Q-30.75 -39.35 -31.2 -40.4 L-31.5 -42.0 Q-31.5 -44.1 -30.45 -44.6 -29.15 -45.3 -27.05 -42.15 L-25.5 -39.5 M-21.75 -40.25 Q-22.75 -40.25 -22.5 -41.55 -22.5 -42.85 -21.75 -42.95 -21.0 -43.0 -21.0 -41.65 L-21.05 -40.4 -21.25 -40.3 -21.75 -40.25 M-34.5 -45.75 Q-35.5 -45.75 -35.25 -46.8 L-35.15 -47.65 -33.4 -47.8 Q-33.25 -47.8 -33.25 -47.15 -33.25 -46.65 -33.85 -46.15 -34.35 -45.75 -34.5 -45.75 M-30.75 -38.4 Q-30.75 -38.05 -31.2 -37.75 L-32.0 -37.5 Q-32.65 -37.5 -32.75 -37.9 L-32.75 -38.35 -32.65 -39.0 -30.9 -39.05 Q-30.75 -39.05 -30.75 -38.4 M-24.8 -31.9 L-25.6 -31.75 Q-26.25 -31.75 -27.25 -33.15 -27.25 -34.35 -26.0 -34.45 -24.75 -34.55 -24.75 -32.65 L-24.8 -31.9 M-26.75 -28.95 L-27.0 -29.5 Q-27.0 -30.55 -25.85 -30.05 -24.75 -29.55 -24.75 -28.9 -24.75 -28.25 -25.6 -28.25 -26.35 -28.25 -26.75 -28.95 M-4.75 -23.75 Q-5.4 -23.75 -5.5 -24.2 L-5.5 -24.7 Q-5.5 -25.85 -4.75 -25.7 -4.0 -25.6 -4.0 -24.75 L-4.05 -23.9 -4.25 -23.8 -4.75 -23.75 M-14.5 -22.0 L-14.7 -21.85 -15.25 -21.75 -15.7 -21.8 -16.0 -22.0 Q-15.9 -23.3 -15.2 -23.75 -14.5 -24.15 -14.5 -22.6 L-14.5 -22.0" fill="#990000" fill-rule="evenodd" stroke="none"/>
    </g>
  </defs>
</svg>
