<?xml version="1.0" encoding="UTF-8" standalone="no"?>
<svg xmlns:ffdec="https://www.free-decompiler.com/flash" xmlns:xlink="http://www.w3.org/1999/xlink" ffdec:objectType="frame" height="183.9px" width="273.25px" xmlns="http://www.w3.org/2000/svg">
  <g transform="matrix(1.0, 0.0, 0.0, 1.0, 127.65, 148.6)">
    <filter id="filter0">
      <feOffset dx="3.5355799791601" dy="3.535487832104965" in="SourceGraphic" result="filterResult0"/>
      <feColorMatrix in="filterResult0" result="filterResult1" type="matrix" values="0 0 0 0 0.0,0 0 0 0 0.0,0 0 0 0 0.0,0 0 0 1 0"/>
      <feColorMatrix in="filterResult1" result="filterResult2" type="matrix" values="1 0 0 0 0,0 1 0 0 0,0 0 1 0 0,0 0 0 0.296875 0"/>
    </filter>
    <use ffdec:characterId="309" filter="url(#filter0)" height="152.55" id="shadowMC" transform="matrix(1.0, 0.0, 0.0, -0.3, -127.65, 35.2782)" width="267.25" xlink:href="#sprite0"/>
    <use ffdec:characterId="101" height="43.5" transform="matrix(1.0, 0.0, 0.0, 1.0, -39.5, -42.5)" width="134.5" xlink:href="#shape6"/>
    <use ffdec:characterId="301" height="53.15" transform="matrix(1.0, 0.0, 0.0, 1.0, -50.4, -51.1)" width="149.9" xlink:href="#shape7"/>
  </g>
  <defs>
    <g id="sprite0" transform="matrix(1.0, 0.0, 0.0, 1.0, 121.65, 148.6)">
      <use ffdec:characterId="195" height="34.0" transform="matrix(1.0, 0.0, 0.0, 1.0, -28.5, -32.05)" width="46.45" xlink:href="#shape0"/>
      <use ffdec:characterId="295" height="59.55" transform="matrix(1.0, 0.0, 0.0, 1.0, -36.85, -76.55)" width="80.5" xlink:href="#shape1"/>
      <use ffdec:characterId="198" height="55.8" transform="matrix(0.9936, 0.1093, -0.1093, 0.9936, -29.2812, -126.2482)" width="74.05" xlink:href="#shape2"/>
      <use ffdec:characterId="199" height="46.8" transform="matrix(0.8771, 0.4787, -0.4787, 0.8771, -42.9342, -81.9889)" width="25.3" xlink:href="#shape3"/>
      <use ffdec:characterId="296" height="59.0" transform="matrix(1.0, 0.0, 0.0, 1.0, 30.45, -72.2)" width="21.9" xlink:href="#shape4"/>
      <use ffdec:characterId="200" height="100.35" transform="matrix(0.0, 1.0, -1.0, 0.0, 32.2, -55.05)" width="26.0" xlink:href="#shape5"/>
    </g>
    <g id="shape0" transform="matrix(1.0, 0.0, 0.0, 1.0, 29.45, 30.75)">
      <path d="M12.95 -26.5 Q12.9 -23.45 13.5 -20.7 13.9 -18.95 14.5 -17.65 14.4 -14.35 15.15 -10.65 16.0 -6.45 16.0 -4.15 L16.0 -2.5 16.2 -2.15 Q17.0 -0.8 17.0 0.1 L16.85 1.0 14.95 1.1 -1.0 1.75 Q-1.45 0.85 -2.25 0.25 L-2.1 0.1 -2.3 -0.65 -2.5 -2.2 Q-2.5 -7.45 -1.75 -12.35 L-2.0 -12.1 Q-3.15 -10.95 -10.25 -6.35 L-13.55 -3.65 Q-15.4 -2.4 -17.55 -2.05 -17.3 -0.3 -18.75 3.05 -19.45 3.55 -20.45 2.85 L-20.45 2.65 Q-22.7 1.9 -26.2 -0.7 -29.15 -3.65 -29.45 -8.95 -29.6 -12.5 -28.75 -14.35 L-28.7 -15.0 -28.6 -15.4 -28.85 -15.65 -28.6 -15.7 -28.15 -17.65 -26.9 -18.3 -26.3 -18.3 -24.75 -18.95 -22.7 -19.4 Q-19.2 -20.1 -17.0 -22.3 L-15.95 -22.65 Q-12.55 -25.45 -9.55 -26.65 -3.2 -29.1 1.3 -24.6 L1.55 -24.35 Q3.4 -28.25 5.9 -29.95 8.6 -31.75 10.8 -29.6 L12.95 -26.5 M9.0 -1.4 L10.65 -4.2 Q11.5 -5.55 13.6 -5.2 L13.5 -7.7 12.95 -11.05 Q12.55 -13.2 12.5 -14.45 L12.45 -16.6 11.75 -16.5 4.5 -15.45 4.45 -1.1 5.85 -1.1 9.0 -1.05 9.05 -1.05 9.35 -1.05 9.0 -1.4 M14.0 -0.95 L13.2 -2.85 10.5 -1.05 14.0 -0.95 M-12.4 -15.5 Q-13.25 -14.75 -18.35 -12.85 -23.95 -10.75 -26.75 -11.15 L-27.05 -9.25 Q-27.7 -5.3 -24.4 -1.9 L-24.15 -1.65 Q-23.2 -0.7 -20.4 0.9 -20.35 0.85 -20.25 0.95 L-20.2 0.4 Q-19.95 -1.05 -20.0 -1.9 L-21.65 -1.55 -24.15 -1.85 Q-24.25 -1.85 -24.35 -1.95 L-23.9 -2.7 -21.7 -4.1 Q-19.8 -4.7 -18.55 -3.65 L-18.0 -4.3 Q-17.55 -4.75 -16.05 -5.45 -14.7 -6.2 -14.2 -6.7 L-11.9 -8.3 Q-10.1 -9.5 -9.6 -10.0 L-7.65 -11.35 Q-9.0 -11.9 -10.45 -13.35 L-12.3 -15.4 -12.35 -15.55 -12.4 -15.5" fill="#000000" fill-rule="evenodd" stroke="none"/>
      <path d="M9.05 -1.05 L9.0 -1.05 5.85 -1.1 4.45 -1.1 4.5 -15.45 11.75 -16.5 12.45 -16.6 12.5 -14.45 Q12.55 -13.2 12.95 -11.05 L13.5 -7.7 13.6 -5.2 Q11.5 -5.55 10.65 -4.2 L9.0 -1.4 9.05 -1.05 M14.0 -0.95 L10.5 -1.05 13.2 -2.85 14.0 -0.95 M-24.4 -1.9 Q-27.7 -5.3 -27.05 -9.25 L-26.75 -11.15 Q-23.95 -10.75 -18.35 -12.85 -13.25 -14.75 -12.4 -15.5 L-12.3 -15.4 -10.45 -13.35 Q-9.0 -11.9 -7.65 -11.35 L-9.6 -10.0 Q-10.1 -9.5 -11.9 -8.3 L-14.2 -6.7 Q-14.7 -6.2 -16.05 -5.45 -17.55 -4.75 -18.0 -4.3 L-18.55 -3.65 Q-19.8 -4.7 -21.7 -4.1 L-23.9 -2.7 -24.35 -1.95 -24.4 -1.9 M-24.15 -1.85 L-21.65 -1.55 -20.0 -1.9 Q-19.95 -1.05 -20.2 0.4 L-20.4 0.9 Q-23.2 -0.7 -24.15 -1.65 L-24.15 -1.85" fill="#5b6171" fill-rule="evenodd" stroke="none"/>
    </g>
    <g id="shape1" transform="matrix(1.0, 0.0, 0.0, 1.0, 30.75, 21.75)">
      <path d="M18.35 -17.8 Q18.85 -17.9 18.5 -18.2 L24.95 -18.6 30.45 -18.7 30.75 -17.9 Q31.75 -15.3 31.75 -14.5 L31.75 -2.3 Q31.85 -0.35 32.3 1.25 L32.25 1.5 31.3 2.25 27.75 2.5 19.75 2.85 19.75 -10.95 Q19.05 -12.05 18.5 -14.9 L18.05 -16.7 18.6 -16.6 18.35 -17.8 M16.4 -17.0 L16.25 -16.2 Q16.25 -14.6 16.95 -10.95 L17.75 -5.7 17.6 -0.4 Q17.6 0.75 17.75 1.75 9.65 1.7 6.25 1.9 L6.25 -4.25 3.65 -13.3 2.1 -17.75 16.4 -17.0 M1.05 -14.7 Q2.3 -12.4 2.5 -10.0 L2.75 -9.25 3.25 -8.0 Q3.65 -6.65 3.9 -1.95 L4.3 1.4 4.0 1.4 2.0 1.7 -6.85 1.35 -11.25 1.5 -14.75 1.75 Q-14.9 -5.75 -16.25 -11.4 -17.5 -16.55 -19.6 -18.75 L-9.95 -19.1 -4.25 -19.2 -4.25 -19.35 -3.5 -19.2 -0.7 -19.25 -0.3 -17.55 Q0.65 -16.5 1.0 -15.0 L1.05 -14.7 M16.9 4.25 Q16.45 5.5 16.35 7.9 L-11.85 6.75 -15.15 6.55 -15.15 5.7 -15.15 4.25 -7.6 3.4 2.8 3.75 2.9 4.1 3.05 4.25 16.9 4.25 M16.25 10.35 L16.1 14.45 Q-3.45 14.65 -15.4 13.85 L-15.25 9.15 -15.2 8.8 -5.85 9.35 16.25 10.35 M-15.5 15.9 L-3.25 16.25 11.0 16.85 16.0 16.65 15.85 20.35 7.8 20.7 -1.6 21.0 -15.65 20.6 -15.5 16.2 -15.5 15.9 M-28.65 -13.8 Q-28.2 -16.4 -25.15 -18.4 -24.15 -18.15 -23.3 -17.75 -24.55 -17.15 -25.0 -15.05 L-25.25 -10.35 -25.45 -8.85 Q-25.55 -7.15 -25.15 -5.75 -24.45 -3.3 -22.4 -2.15 -23.55 -1.3 -23.8 1.9 L-28.45 2.2 -28.85 -2.1 Q-29.1 -5.5 -28.75 -7.95 -28.95 -12.0 -28.65 -13.8" fill="#5b6171" fill-rule="evenodd" stroke="none"/>
      <path d="M16.4 -17.0 L2.1 -17.75 3.65 -13.3 6.25 -4.25 6.25 1.9 Q9.65 1.7 17.75 1.75 17.6 0.75 17.6 -0.4 L17.75 -5.7 16.95 -10.95 Q16.25 -14.6 16.25 -16.2 L16.4 -17.0 M18.35 -17.8 L18.6 -16.6 18.05 -16.7 18.5 -14.9 Q19.05 -12.05 19.75 -10.95 L19.75 2.85 27.75 2.5 31.3 2.25 32.25 1.5 32.3 1.25 Q31.85 -0.35 31.75 -2.3 L31.75 -14.5 Q31.75 -15.3 30.75 -17.9 L30.45 -18.7 24.95 -18.6 18.5 -18.2 Q18.85 -17.9 18.35 -17.8 M14.75 -19.6 Q14.8 -20.4 15.05 -20.5 L17.65 -20.75 29.85 -20.75 30.0 -21.2 31.25 -20.75 31.8 -20.75 32.05 -20.6 32.25 -19.75 32.25 -19.65 Q33.45 -17.75 33.95 -13.55 36.6 -11.15 41.1 -7.9 43.35 -5.95 44.4 -3.8 46.7 -2.3 48.2 1.15 49.75 4.55 49.75 7.9 49.75 11.75 49.3 12.4 48.4 13.65 42.25 16.75 L41.5 16.5 Q40.05 18.25 37.75 18.25 31.05 18.25 29.5 13.85 L29.45 13.65 Q27.65 13.1 25.05 10.5 L24.35 9.75 24.0 9.9 22.85 10.15 22.75 10.75 Q22.25 15.25 22.25 18.25 L21.95 18.45 22.05 18.75 Q23.05 19.8 24.65 22.3 28.5 28.25 30.75 33.75 L30.65 33.95 30.75 34.75 30.6 35.45 Q30.4 35.45 30.3 35.75 L21.15 36.35 2.25 37.75 -8.2 37.8 Q-11.55 37.7 -12.25 37.05 -12.4 36.9 -17.6 37.0 L-22.75 37.15 -22.75 37.25 -23.75 37.75 Q-24.75 36.4 -24.75 35.0 L-24.0 30.95 -23.0 26.55 Q-22.75 23.95 -22.3 22.4 L-21.85 21.3 -22.7 20.75 -22.75 19.55 -22.55 19.5 -22.55 19.4 Q-23.5 18.45 -23.75 15.15 L-23.75 10.4 -23.9 4.15 -29.2 4.75 -29.25 4.75 -29.95 4.75 -30.1 4.5 -30.25 3.5 -30.2 2.7 -30.1 2.55 -30.6 -0.35 -30.75 -5.7 Q-30.75 -12.5 -30.2 -15.2 -28.9 -21.3 -24.95 -20.25 L-24.0 -20.45 -23.95 -20.5 -19.25 -21.0 -16.85 -21.2 -0.45 -21.25 0.25 -21.75 1.05 -20.2 5.95 -20.15 12.75 -19.75 14.75 -19.6 M1.05 -14.7 L1.0 -15.0 Q0.65 -16.5 -0.3 -17.55 L-0.7 -19.25 -3.5 -19.2 -4.25 -19.35 -4.25 -19.2 -9.95 -19.1 -19.6 -18.75 Q-17.5 -16.55 -16.25 -11.4 -14.9 -5.75 -14.75 1.75 L-11.25 1.5 -6.85 1.35 2.0 1.7 4.0 1.4 4.3 1.4 3.9 -1.95 Q3.65 -6.65 3.25 -8.0 L2.75 -9.25 2.5 -10.0 Q2.3 -12.4 1.05 -14.7 M35.5 -0.35 Q37.35 -0.55 39.1 0.15 40.6 0.45 41.8 1.3 41.9 0.55 42.8 -0.25 L43.2 -0.55 Q42.8 -3.7 37.75 -7.8 L34.15 -10.95 34.25 -1.6 34.25 -0.15 35.5 -0.35 M45.25 2.25 L44.95 2.2 44.25 4.05 43.65 4.2 43.75 6.15 Q43.75 10.35 43.25 12.55 L42.75 14.25 44.5 13.05 Q47.75 10.9 47.75 8.25 47.75 6.2 45.65 2.1 L45.55 1.95 45.25 2.25 M41.75 6.5 L41.05 4.55 40.25 3.05 39.65 2.65 Q39.0 2.0 38.55 2.0 L35.3 2.3 34.15 2.65 34.05 3.3 33.25 3.75 33.25 3.7 33.1 3.95 Q32.9 3.95 32.8 4.25 L32.35 4.25 32.05 4.75 Q31.25 6.25 31.25 9.25 31.25 11.4 31.5 12.6 L31.75 12.75 31.65 13.0 31.75 13.3 Q33.0 16.0 37.4 16.0 40.2 16.0 41.25 11.25 L41.75 6.5 M27.25 4.75 L24.75 4.75 24.3 5.2 24.35 5.2 24.3 5.5 24.15 5.6 23.95 6.25 24.85 7.1 25.8 8.5 28.45 10.25 29.05 10.7 29.25 9.1 Q29.25 6.2 29.9 4.4 L27.25 4.75 M22.2 4.75 L22.25 4.8 22.25 4.75 22.2 4.75 M16.35 7.9 L20.95 7.9 21.0 7.55 21.1 4.75 18.55 4.75 18.4 4.6 Q18.25 4.4 18.25 3.8 L17.75 4.25 16.9 4.25 3.05 4.25 2.9 4.1 2.8 3.75 -7.6 3.4 -15.15 4.25 -15.2 4.3 -16.25 4.75 Q-17.35 2.6 -17.15 -1.25 L-18.0 -1.25 -20.25 -1.45 Q-20.4 -0.7 -21.2 0.9 L-21.4 1.4 -21.55 6.55 Q-19.55 6.3 -15.15 6.55 L-11.85 6.75 16.35 7.9 M23.25 34.4 L28.95 33.85 Q26.95 31.4 23.9 26.4 L21.05 21.5 20.25 21.75 17.35 22.4 12.75 22.85 -1.5 23.25 -12.25 22.85 -15.8 22.65 -16.95 22.5 -18.95 22.0 -19.3 21.95 Q-19.65 23.4 -21.75 29.3 -22.5 31.5 -22.65 34.8 L-17.25 34.85 -14.1 34.9 2.15 35.5 Q12.55 35.5 17.1 35.15 L18.5 35.0 18.65 34.95 18.85 34.95 23.25 34.4 M16.1 14.45 L20.25 14.4 Q20.25 12.9 20.6 10.3 L17.75 10.35 16.25 10.35 -5.85 9.35 -15.2 8.8 -21.65 8.45 -21.75 10.15 -21.5 13.45 -18.2 13.65 -15.4 13.85 Q-3.45 14.65 16.1 14.45 M16.0 16.65 L11.0 16.85 -3.25 16.25 -15.5 15.9 -20.0 15.9 -20.75 16.35 -21.15 16.2 -20.8 18.65 -20.2 19.3 -18.9 19.5 -18.2 20.15 -15.65 20.6 -1.6 21.0 7.8 20.7 15.85 20.35 16.75 20.25 19.55 19.5 19.5 18.55 19.5 18.5 Q20.25 17.75 20.25 16.4 L16.0 16.65 M-28.65 -13.8 Q-28.95 -12.0 -28.75 -7.95 -29.1 -5.5 -28.85 -2.1 L-28.45 2.2 -23.8 1.9 Q-23.55 -1.3 -22.4 -2.15 -24.45 -3.3 -25.15 -5.75 -25.55 -7.15 -25.45 -8.85 L-25.25 -10.35 -25.0 -15.05 Q-24.55 -17.15 -23.3 -17.75 -24.15 -18.15 -25.15 -18.4 -28.2 -16.4 -28.65 -13.8" fill="#000000" fill-rule="evenodd" stroke="none"/>
      <path d="M45.65 2.1 Q47.75 6.2 47.75 8.25 47.75 10.9 44.5 13.05 L42.75 14.25 43.25 12.55 Q43.75 10.35 43.75 6.15 L43.65 4.2 44.25 4.05 44.95 2.2 45.25 2.25 45.65 2.1 M41.75 6.5 L41.25 11.25 Q40.2 16.0 37.4 16.0 33.0 16.0 31.75 13.3 L31.65 13.0 31.75 12.75 31.5 12.6 Q31.25 11.4 31.25 9.25 31.25 6.25 32.05 4.75 L32.35 4.25 32.8 4.25 Q32.9 3.95 33.1 3.95 L33.25 3.7 33.25 3.75 34.05 3.3 34.15 2.65 35.3 2.3 38.55 2.0 Q39.0 2.0 39.65 2.65 L40.25 3.05 41.05 4.55 41.75 6.5" fill="#aa8a71" fill-rule="evenodd" stroke="none"/>
      <path d="M16.9 4.25 L17.75 4.25 18.25 3.8 Q18.25 4.4 18.4 4.6 L18.55 4.75 21.1 4.75 21.0 7.55 20.95 7.9 16.35 7.9 Q16.45 5.5 16.9 4.25 M-15.15 6.55 Q-19.55 6.3 -21.55 6.55 L-21.4 1.4 -21.2 0.9 Q-20.4 -0.7 -20.25 -1.45 L-18.0 -1.25 -17.15 -1.25 Q-17.35 2.6 -16.25 4.75 L-15.2 4.3 -15.15 4.25 -15.15 5.7 -15.15 6.55 M16.25 10.35 L17.75 10.35 20.6 10.3 Q20.25 12.9 20.25 14.4 L16.1 14.45 16.25 10.35 M-15.4 13.85 L-18.2 13.65 -21.5 13.45 -21.75 10.15 -21.65 8.45 -15.2 8.8 -15.25 9.15 -15.4 13.85 M16.0 16.65 L20.25 16.4 Q20.25 17.75 19.5 18.5 L19.5 18.55 19.55 19.5 16.75 20.25 15.85 20.35 16.0 16.65 M-15.65 20.6 L-18.2 20.15 -18.9 19.5 -20.2 19.3 -20.8 18.65 -21.15 16.2 -20.75 16.35 -20.0 15.9 -15.5 15.9 -15.5 16.2 -15.65 20.6" fill="#969cab" fill-rule="evenodd" stroke="none"/>
      <path d="M17.35 22.4 L20.25 21.75 21.05 21.5 23.9 26.4 Q26.95 31.4 28.95 33.85 L23.25 34.4 20.5 28.55 17.35 22.4 M-17.25 34.85 L-22.65 34.8 Q-22.5 31.5 -21.75 29.3 -19.65 23.4 -19.3 21.95 L-18.95 22.0 -16.95 22.5 -15.8 22.65 Q-16.25 23.3 -16.5 24.35 -16.95 26.3 -17.25 29.85 L-17.25 34.85" fill="#942403" fill-rule="evenodd" stroke="none"/>
      <path d="M35.5 -0.35 L34.25 -0.15 34.25 -1.6 34.15 -10.95 37.75 -7.8 Q42.8 -3.7 43.2 -0.55 L42.8 -0.25 Q41.9 0.55 41.8 1.3 40.6 0.45 39.1 0.15 37.35 -0.55 35.5 -0.35 M27.25 4.75 L29.9 4.4 Q29.25 6.2 29.25 9.1 L29.05 10.7 28.45 10.25 25.8 8.5 24.85 7.1 23.95 6.25 24.15 5.6 24.3 5.5 24.35 5.2 24.3 5.2 24.75 4.75 27.25 4.75 M17.35 22.4 L20.5 28.55 23.25 34.4 18.85 34.95 18.65 34.95 18.5 35.0 17.1 35.15 Q12.55 35.5 2.15 35.5 L-14.1 34.9 -17.25 34.85 -17.25 29.85 Q-16.95 26.3 -16.5 24.35 -16.25 23.3 -15.8 22.65 L-12.25 22.85 -1.5 23.25 12.75 22.85 17.35 22.4" fill="#731c02" fill-rule="evenodd" stroke="none"/>
    </g>
    <g id="shape2" transform="matrix(1.0, 0.0, 0.0, 1.0, 34.55, 27.9)">
      <path d="M3.8 -25.15 L7.85 -25.35 Q24.65 -25.35 30.15 -11.35 31.75 -7.3 32.3 -2.85 L34.65 -1.45 36.2 0.35 Q37.5 1.3 37.5 2.1 L37.4 2.95 37.3 3.0 35.3 3.0 32.15 -0.15 Q29.5 -2.6 28.1 -3.25 L26.55 -8.95 Q21.75 -21.95 7.35 -21.95 -3.45 -21.95 -9.9 -14.5 -15.7 -7.8 -16.25 2.45 L-16.3 8.55 -16.25 14.7 Q-16.25 17.15 -16.65 17.75 -17.7 19.5 -22.15 20.5 -22.85 20.65 -27.25 23.15 L-31.8 23.15 -31.9 22.95 -32.0 22.8 -32.05 22.25 -32.05 22.15 Q-32.05 21.1 -26.25 18.75 L-20.3 16.4 -20.5 15.95 -20.55 15.9 -20.05 15.7 -20.0 15.45 -19.95 15.25 -19.95 14.9 -19.8 12.85 -19.75 12.15 -19.4 7.0 -19.3 5.35 -19.3 5.15 -19.3 5.1 -19.3 4.95 -19.3 4.85 -19.3 4.8 -19.3 4.7 -19.3 4.65 -19.35 1.25 -19.4 0.85 -19.45 0.45 -19.45 0.4 -19.4 -0.35 -18.05 -5.75 -18.85 -4.8 Q-17.8 -9.75 -15.9 -13.4 L-15.85 -13.45 -14.95 -14.45 -13.85 -16.6 -13.8 -16.65 -13.4 -17.2 -12.65 -18.05 Q-8.45 -22.6 -1.55 -24.3 L0.7 -24.7 3.8 -25.15" fill="#969cab" fill-rule="evenodd" stroke="none"/>
      <path d="M35.3 3.0 L37.3 3.0 37.4 2.95 37.5 2.1 Q37.5 1.3 36.2 0.35 L34.65 -1.45 32.3 -2.85 Q31.75 -7.3 30.15 -11.35 24.65 -25.35 7.85 -25.35 L3.8 -25.15 -1.55 -24.3 Q-8.45 -22.6 -12.65 -18.05 L-13.4 -17.2 -13.8 -16.65 -13.85 -16.6 Q-14.95 -15.2 -15.85 -13.45 L-15.9 -13.4 Q-17.8 -9.75 -18.85 -4.8 L-19.6 -0.2 -19.45 0.4 -19.45 0.45 -19.4 0.85 -19.35 1.25 -19.3 4.65 -19.3 4.7 -19.3 4.8 -19.3 4.85 -19.3 4.95 -19.3 5.1 -19.3 5.15 -19.3 5.35 -19.4 7.0 -19.75 12.15 -19.8 12.85 -19.95 14.9 -19.95 15.25 -20.0 15.45 -20.05 15.7 -20.55 15.9 -20.5 15.95 -20.3 16.4 -26.25 18.75 Q-32.05 21.1 -32.05 22.15 L-32.05 22.25 -32.0 22.8 -31.9 22.95 -31.8 23.15 -27.25 23.15 -14.0 23.15 Q-8.0 23.1 -6.8 14.8 L-6.05 8.2 Q-5.65 5.35 -4.75 4.0 L-4.8 3.3 -4.9 2.8 -1.85 2.45 Q4.35 2.25 29.6 2.85 L30.95 2.9 31.0 2.85 31.35 2.75 32.05 2.6 32.05 3.05 35.3 3.0 M35.25 -3.45 L37.25 -1.6 38.8 0.45 Q39.5 1.75 39.5 2.4 39.5 3.8 38.95 4.15 37.3 5.3 30.7 5.5 L31.15 8.35 31.2 13.75 31.5 16.6 Q31.65 19.0 31.2 20.7 29.8 25.9 22.2 25.9 L19.15 25.7 Q17.15 27.9 10.45 27.9 1.05 27.9 -0.3 25.65 L-0.6 24.9 -0.8 24.9 Q-3.15 24.9 -4.9 23.7 -4.9 24.05 -5.35 24.3 -7.45 25.4 -23.3 25.4 -32.0 25.4 -34.0 23.8 -34.65 23.3 -34.55 22.65 L-34.3 22.05 Q-34.3 20.75 -30.0 18.15 -25.45 15.4 -22.55 15.4 L-22.1 15.4 -22.2 15.25 -22.25 15.1 -22.3 13.9 Q-22.55 8.05 -22.4 5.05 -22.25 2.05 -21.6 0.35 L-21.8 -0.85 Q-21.8 -3.7 -20.2 -8.2 -18.1 -14.05 -14.45 -18.45 -3.85 -31.1 15.25 -26.85 27.25 -22.45 31.2 -12.85 32.6 -9.4 33.6 -3.95 L35.25 -3.45 M28.8 4.9 L28.7 4.9 28.7 5.3 28.8 4.9 M29.2 14.7 L29.35 12.4 Q22.15 12.45 17.05 14.1 L15.65 14.7 19.5 15.15 19.7 21.15 20.0 22.65 20.05 23.25 20.4 23.35 20.7 23.7 Q28.2 23.7 29.2 14.7 M17.8 9.75 L18.7 9.9 Q19.95 9.9 19.75 9.65 L20.05 9.2 20.2 8.15 20.1 7.05 20.0 6.65 18.05 6.55 17.65 6.6 17.2 6.55 17.2 6.65 17.2 9.65 17.25 9.9 17.8 9.75 M1.2 9.05 L1.2 14.25 Q1.2 19.0 1.35 20.35 1.85 24.1 3.75 25.65 L17.7 25.65 17.7 17.4 17.5 16.95 Q11.7 18.55 10.15 14.05 9.7 12.7 9.7 8.0 L9.75 5.4 9.85 4.7 1.1 4.5 0.95 4.95 0.9 5.0 1.2 9.05" fill="#000000" fill-rule="evenodd" stroke="none"/>
      <path d="M3.8 -25.15 L0.7 -24.7 -1.55 -24.3 3.8 -25.15 M-13.85 -16.6 L-14.95 -14.45 -15.85 -13.45 Q-14.95 -15.2 -13.85 -16.6 M-18.85 -4.8 L-18.05 -5.75 -19.4 -0.35 -19.45 0.4 -19.6 -0.2 -18.85 -4.8 M-27.25 23.15 Q-22.85 20.65 -22.15 20.5 -17.7 19.5 -16.65 17.75 -16.25 17.15 -16.25 14.7 L-16.3 8.55 -16.25 2.45 Q-15.7 -7.8 -9.9 -14.5 -3.45 -21.95 7.35 -21.95 21.75 -21.95 26.55 -8.95 L28.1 -3.25 Q29.5 -2.6 32.15 -0.15 L35.3 3.0 32.05 3.05 32.05 2.6 31.35 2.75 31.0 2.85 30.95 2.9 29.6 2.85 Q4.35 2.25 -1.85 2.45 L-4.9 2.8 -4.8 3.3 -4.75 4.0 Q-5.65 5.35 -6.05 8.2 L-6.8 14.8 Q-8.0 23.1 -14.0 23.15 L-27.25 23.15 M1.2 9.05 L0.9 5.0 0.95 4.95 1.1 4.5 9.85 4.7 9.75 5.4 9.7 8.0 Q9.7 12.7 10.15 14.05 11.7 18.55 17.5 16.95 L17.7 17.4 17.7 25.65 3.75 25.65 Q1.85 24.1 1.35 20.35 1.2 19.0 1.2 14.25 L1.2 9.05" fill="#5b6171" fill-rule="evenodd" stroke="none"/>
      <path d="M29.2 14.7 Q28.2 23.7 20.7 23.7 L20.4 23.35 20.05 23.25 20.0 22.65 19.7 21.15 19.5 15.15 15.65 14.7 17.05 14.1 Q22.15 12.45 29.35 12.4 L29.2 14.7" fill="#aa8a71" fill-rule="evenodd" stroke="none"/>
      <path d="M17.65 6.6 L18.05 6.55 20.0 6.65 20.1 7.05 20.2 8.15 20.05 9.2 19.75 9.65 Q19.95 9.9 18.7 9.9 L17.8 9.75 17.2 9.65 17.2 6.65 17.65 6.6" fill="#ffffff" fill-rule="evenodd" stroke="none"/>
    </g>
    <g id="shape3" transform="matrix(1.0, 0.0, 0.0, 1.0, 12.05, 21.8)">
      <path d="M13.25 -13.55 Q13.25 -9.25 11.1 -3.95 L7.35 4.15 Q6.25 4.3 5.85 5.3 L5.2 5.1 8.15 9.4 Q12.4 15.8 12.4 17.3 12.4 18.05 10.25 19.8 6.9 22.5 0.3 24.6 L-0.45 24.9 -1.75 25.0 Q-4.4 25.0 -8.2 15.75 -11.65 7.4 -11.65 4.7 L-11.6 4.35 -12.05 4.1 -11.45 1.2 Q-10.3 -3.85 -9.15 -5.75 L-9.55 -6.1 -9.7 -5.95 -10.25 -5.7 Q-11.25 -6.9 -11.25 -7.35 -11.25 -9.65 -7.45 -13.65 -4.1 -17.2 -0.95 -18.95 7.85 -23.95 11.35 -20.15 13.25 -18.05 13.25 -13.55 M9.5 -19.15 Q4.55 -19.15 2.05 -17.9 0.45 -17.1 -4.0 -13.15 L-7.2 -9.55 -8.55 -7.55 -7.55 -6.95 -7.45 -6.95 -7.45 -6.9 -7.05 -6.55 Q-3.65 -3.2 -2.2 -2.45 2.85 0.95 5.8 3.25 L8.25 -3.3 Q11.25 -10.95 11.25 -13.45 10.5 -19.15 9.5 -19.15 M1.85 4.25 L2.25 3.65 -1.3 0.95 -7.55 -4.35 -9.25 1.35 -9.55 2.4 Q-9.15 3.7 -9.05 5.85 L-9.05 6.9 Q-9.05 8.55 -5.8 15.55 -2.45 22.8 -1.2 22.8 1.15 22.6 10.0 16.4 L2.45 5.15 1.85 4.25" fill="#000000" fill-rule="evenodd" stroke="none"/>
      <path d="M1.85 4.25 L2.45 5.15 10.0 16.4 Q1.15 22.6 -1.2 22.8 -2.45 22.8 -5.8 15.55 -9.05 8.55 -9.05 6.9 L-9.05 5.85 Q-9.15 3.7 -9.55 2.4 L-9.25 1.35 -7.55 -4.35 -1.3 0.95 2.25 3.65 1.85 4.25" fill="#aa8a71" fill-rule="evenodd" stroke="none"/>
      <path d="M9.5 -19.15 Q10.5 -19.15 11.25 -13.45 11.25 -10.95 8.25 -3.3 L5.8 3.25 Q2.85 0.95 -2.2 -2.45 -3.65 -3.2 -7.05 -6.55 L-7.45 -6.9 -7.45 -6.95 -7.55 -6.95 -8.55 -7.55 -7.2 -9.55 -4.0 -13.15 Q0.45 -17.1 2.05 -17.9 4.55 -19.15 9.5 -19.15" fill="#942403" fill-rule="evenodd" stroke="none"/>
    </g>
    <g id="shape4" transform="matrix(1.0, 0.0, 0.0, 1.0, 12.75, 30.25)">
      <path d="M1.95 -22.1 L4.15 -22.05 6.9 -21.75 Q6.95 -25.9 7.45 -28.15 L6.25 -28.1 3.4 -27.75 1.95 -27.75 -10.95 -27.75 -10.75 -26.3 -10.6 -23.9 -10.6 26.45 Q-10.05 26.2 -9.35 26.1 L-1.05 25.85 2.55 25.95 7.05 26.2 Q6.75 24.5 6.75 22.0 L6.75 20.25 2.45 20.25 -3.2 20.25 -3.2 20.35 -4.9 20.2 Q-5.25 19.5 -5.25 18.6 L-5.1 15.75 -5.1 -11.25 Q-5.0 -13.0 -5.25 -16.9 -5.25 -20.25 -4.1 -21.75 L-3.95 -21.55 -1.5 -21.95 1.4 -22.0 1.95 -22.1 M7.65 -30.25 L7.7 -30.1 Q8.25 -29.1 9.1 -28.55 L9.15 -28.35 9.05 -28.25 8.45 -28.2 8.75 -26.3 8.9 -23.9 8.9 26.95 7.9 28.75 7.6 28.25 -4.1 28.5 -11.1 28.75 -11.55 28.75 -11.6 28.75 -11.9 28.6 -12.1 28.15 -12.05 27.95 Q-12.75 26.1 -12.75 22.0 L-12.6 14.5 -12.6 1.0 -12.5 -13.1 -12.4 -16.1 -12.5 -16.7 -12.6 -20.75 Q-12.6 -25.25 -12.15 -27.75 L-12.2 -27.75 -12.4 -27.85 Q-12.6 -28.0 -12.6 -28.75 L-12.7 -29.0 -11.7 -29.4 -11.6 -29.75 -11.45 -29.45 3.9 -30.0 7.65 -30.25 M2.0 18.25 L6.8 18.25 6.9 14.5 6.9 1.0 7.0 -13.1 7.1 -16.1 7.0 -16.7 6.9 -19.75 1.1 -19.75 -3.05 -19.75 -3.25 -19.75 -3.2 -19.45 Q-2.95 -18.2 -2.95 -16.6 L-3.1 -11.0 Q-3.0 -8.9 -3.05 -4.85 L-3.1 -0.3 -3.15 18.5 2.0 18.25" fill="#000000" fill-rule="evenodd" stroke="none"/>
      <path d="M2.0 17.8 L2.0 18.25 2.0 17.8 M-3.2 -19.45 L-3.25 -19.75 -3.05 -19.75 -3.2 -19.45" fill="#b98d4d" fill-rule="evenodd" stroke="none"/>
      <path d="M-3.05 -19.75 L-3.2 -19.45 -3.05 -19.75" fill="#99743c" fill-rule="evenodd" stroke="none"/>
      <path d="M1.1 -19.75 L1.7 -2.3 2.0 10.3 2.0 17.8 2.0 18.25 -3.15 18.5 -3.1 -0.3 -3.05 -4.85 Q-3.0 -8.9 -3.1 -11.0 L-2.95 -16.6 Q-2.95 -18.2 -3.2 -19.45 L-3.05 -19.75 1.1 -19.75" fill="#8e6c24" fill-rule="evenodd" stroke="none"/>
      <path d="M1.1 -19.75 L6.9 -19.75 7.0 -16.7 7.1 -16.1 7.0 -13.1 6.9 1.0 6.9 14.5 6.8 18.25 2.0 18.25 2.0 17.8 2.0 10.3 1.7 -2.3 1.1 -19.75" fill="#cc9d3c" fill-rule="evenodd" stroke="none"/>
      <path d="M1.95 -27.75 L3.4 -27.75 6.25 -28.1 7.45 -28.15 Q6.95 -25.9 6.9 -21.75 L4.15 -22.05 1.95 -22.1 2.0 -25.05 1.95 -27.7 1.95 -27.75 M2.45 20.25 L6.75 20.25 6.75 22.0 Q6.75 24.5 7.05 26.2 L2.55 25.95 2.5 23.1 2.45 20.25" fill="#942403" fill-rule="evenodd" stroke="none"/>
      <path d="M1.95 -27.75 L1.95 -27.7 2.0 -25.05 1.95 -22.1 1.4 -22.0 -1.5 -21.95 -3.95 -21.55 -4.1 -21.75 Q-5.25 -20.25 -5.25 -16.9 -5.0 -13.0 -5.1 -11.25 L-5.1 15.75 -5.25 18.6 Q-5.25 19.5 -4.9 20.2 L-3.2 20.35 -3.2 20.25 2.45 20.25 2.5 23.1 2.55 25.95 -1.05 25.85 -9.35 26.1 Q-10.05 26.2 -10.6 26.45 L-10.6 -23.9 -10.75 -26.3 -10.95 -27.75 1.95 -27.75" fill="#731c02" fill-rule="evenodd" stroke="none"/>
    </g>
    <g id="shape5" transform="matrix(1.0, 0.0, 0.0, 1.0, 14.5, 74.85)">
      <path d="M-1.55 -53.25 L-1.85 -46.5 -1.85 -46.15 -2.0 -42.25 -2.05 -34.65 -1.85 -29.2 -1.8 -28.4 -1.5 -25.1 -1.5 -24.6 -1.5 -24.35 Q-1.5 -22.85 0.0 -20.6 2.1 -17.5 5.5 -17.5 L6.1 -17.55 8.0 -17.2 8.0 -18.15 8.0 -18.4 8.0 -18.5 8.0 -18.55 7.9 -20.5 7.6 -24.9 7.4 -32.7 7.4 -35.2 7.15 -40.5 7.1 -41.05 6.5 -48.2 5.55 -56.05 5.05 -58.3 Q3.15 -65.4 -1.0 -70.85 L-1.0 -68.05 Q-1.0 -65.7 -1.55 -53.25 M1.8 -70.8 L2.6 -69.45 Q3.4 -67.35 3.9 -66.6 L5.7 -63.05 Q6.85 -60.65 7.0 -59.1 8.3 -48.65 8.45 -43.85 10.2 -19.15 10.2 -13.3 L10.15 -10.7 10.25 -10.7 10.6 -11.15 Q11.25 -10.35 11.45 -8.15 L11.5 -5.2 Q11.5 -2.35 11.0 -0.45 L10.9 1.1 10.35 1.35 9.0 2.95 Q7.3 4.0 0.45 4.0 L-9.2 3.35 Q-13.4 2.35 -14.5 -0.6 L-14.5 -10.35 -14.3 -10.55 -13.65 -10.7 -13.65 -53.7 Q-12.4 -63.95 -5.85 -70.9 L-2.2 -74.6 -2.2 -74.65 -2.15 -74.65 -1.95 -74.85 -1.3 -74.65 -1.15 -74.4 Q-0.7 -74.3 -0.2 -74.0 L1.8 -70.8 M4.5 -10.75 L8.5 -10.7 Q8.0 -11.75 7.95 -13.1 L7.95 -15.2 7.0 -15.0 Q2.1 -15.0 -0.85 -18.5 L-1.15 -18.85 -1.75 -19.95 Q-2.35 -18.9 -4.2 -17.45 -6.35 -15.75 -8.0 -15.0 L-11.45 -15.0 -11.5 -15.75 -11.65 -15.7 -11.65 -14.95 -11.65 -13.5 -11.75 -10.5 -11.75 -10.4 -8.15 -10.6 -8.15 -10.45 -8.15 -10.4 Q-5.05 -10.7 4.5 -10.65 L4.55 -10.65 4.5 -10.75 M9.5 -9.0 L-12.7 -9.0 -12.8 -6.7 -1.5 -6.8 4.8 -6.75 9.4 -6.7 9.55 -7.25 9.5 -7.35 9.5 -9.0 M9.3 -3.35 L9.3 -4.95 4.4 -4.75 -1.3 -4.65 -7.0 -4.8 -12.85 -5.05 -13.0 -3.2 Q-13.1 -1.7 -12.3 -0.75 -10.05 2.05 0.45 2.05 7.3 2.05 9.45 -0.2 L9.35 -0.7 9.3 -3.35 M-3.45 -70.35 L-3.4 -70.45 -3.45 -70.4 -3.45 -70.35 -4.2 -69.45 -6.7 -66.6 -6.95 -66.65 -8.9 -63.0 -10.5 -59.45 Q-11.4 -57.15 -11.5 -55.55 L-11.55 -54.2 -11.9 -41.1 -11.9 -40.6 -11.9 -40.35 -11.9 -40.25 -11.9 -40.15 -11.8 -32.8 -11.75 -25.55 -11.75 -25.5 -11.65 -21.3 -11.65 -16.6 -11.65 -16.5 -11.5 -16.5 -9.65 -17.25 Q-7.45 -17.95 -6.3 -18.7 L-6.25 -18.95 -6.2 -18.95 -6.15 -19.25 -4.85 -20.15 Q-4.0 -20.95 -4.0 -22.25 L-4.1 -23.15 -4.0 -23.3 -4.0 -26.9 -4.0 -31.4 -4.0 -35.4 -3.95 -38.3 -3.75 -47.95 -3.5 -55.1 Q-3.4 -57.5 -3.65 -62.35 L-3.8 -64.85 -3.85 -65.15 Q-3.85 -68.1 -3.45 -70.35 M-1.7 -72.7 L-1.75 -72.65 -1.5 -72.45 -1.45 -72.45 -1.7 -72.7 M-0.8 12.65 L0.8 12.75 Q3.1 13.05 4.9 14.35 7.45 16.2 7.45 19.3 7.45 22.0 6.7 23.15 5.1 25.5 -0.15 25.5 -7.2 25.5 -8.8 22.65 -9.3 21.75 -9.25 20.6 L-9.0 19.65 Q-9.0 16.3 -6.45 14.4 -4.7 13.05 -2.35 12.75 L-0.8 12.65 M-6.4 22.15 Q-4.85 23.55 -0.35 23.55 4.35 23.55 5.5 21.5 6.05 20.45 5.7 19.65 5.7 16.95 3.0 15.6 1.15 14.75 -0.8 14.75 -5.15 14.75 -6.6 16.7 -7.3 17.65 -7.3 19.65 -7.3 21.3 -6.4 22.15" fill="#000000" fill-rule="evenodd" stroke="none"/>
      <path d="M9.3 -3.35 L9.35 -0.7 9.45 -0.2 Q7.3 2.05 0.45 2.05 -10.05 2.05 -12.3 -0.75 -13.1 -1.7 -13.0 -3.2 L-12.85 -5.05 -7.0 -4.8 -1.3 -4.65 4.4 -4.75 9.3 -4.95 9.3 -3.35 M-6.4 22.15 Q-7.3 21.3 -7.3 19.65 -7.3 17.65 -6.6 16.7 -5.15 14.75 -0.8 14.75 1.15 14.75 3.0 15.6 5.7 16.95 5.7 19.65 6.05 20.45 5.5 21.5 4.35 23.55 -0.35 23.55 -4.85 23.55 -6.4 22.15" fill="#8e6c24" fill-rule="evenodd" stroke="none"/>
      <path d="M9.5 -9.0 L9.5 -7.35 9.55 -7.25 9.4 -6.7 4.8 -6.75 -1.5 -6.8 -12.8 -6.7 -12.7 -9.0 9.5 -9.0" fill="#cc9d3c" fill-rule="evenodd" stroke="none"/>
      <path d="M-11.45 -15.0 L-11.45 -14.95 -11.2 -13.5 -11.5 -13.5 -11.65 -13.5 -11.65 -14.95 -11.45 -15.0 M4.5 -10.65 L4.5 -10.75 4.55 -10.65 4.5 -10.65 M-3.45 -70.35 L-3.45 -70.4 -3.4 -70.45 -3.45 -70.35 M-11.5 -16.5 L-11.65 -16.5 -11.65 -16.6 -11.45 -16.7 -11.5 -16.5" fill="#60606c" fill-rule="evenodd" stroke="none"/>
      <path d="M-11.65 -14.95 L-11.65 -15.7 -11.5 -15.75 -11.45 -15.0 -11.65 -14.95" fill="#a9a9b1" fill-rule="evenodd" stroke="none"/>
      <path d="M-1.55 -53.25 L3.0 -57.0 5.05 -58.3 5.55 -56.05 6.5 -48.2 5.5 -47.35 0.7 -43.8 -2.0 -41.95 -2.0 -42.25 -1.85 -46.15 -1.85 -46.5 -1.55 -53.25 M7.1 -41.05 L7.15 -40.5 7.4 -35.2 4.3 -32.75 -1.8 -28.4 -1.85 -29.2 -2.05 -34.65 0.5 -36.6 Q4.75 -39.8 7.1 -41.05 M-3.65 -62.35 Q-3.4 -57.5 -3.5 -55.1 L-3.75 -47.95 -8.0 -44.8 -11.9 -41.1 -11.55 -54.2 -8.85 -56.35 Q-5.1 -59.5 -3.65 -61.55 L-3.65 -62.35 M-3.95 -38.3 L-4.0 -35.4 -4.0 -31.4 -4.05 -31.4 -7.1 -29.5 -11.75 -25.55 -11.8 -32.8 -3.95 -38.3 M-4.0 -26.9 L-4.0 -23.3 -4.1 -23.15 -4.0 -22.25 Q-4.0 -20.95 -4.85 -20.15 L-6.15 -19.25 -6.2 -18.95 -6.25 -18.95 -6.3 -18.7 Q-7.45 -17.95 -9.65 -17.25 L-11.5 -16.5 -11.45 -16.7 -11.65 -16.6 -11.65 -21.3 -6.4 -25.1 -4.0 -26.9" fill="#a7b9be" fill-rule="evenodd" stroke="none"/>
      <path d="M-11.45 -15.0 L-8.0 -15.0 Q-6.35 -15.75 -4.2 -17.45 -2.35 -18.9 -1.75 -19.95 L-1.15 -18.85 -0.85 -18.5 Q2.1 -15.0 7.0 -15.0 L7.95 -15.2 7.95 -13.1 Q8.0 -11.75 8.5 -10.7 L4.5 -10.75 4.5 -10.65 Q-5.05 -10.7 -8.15 -10.4 L-8.15 -10.45 -8.15 -10.6 -11.75 -10.4 -11.75 -10.5 -11.65 -13.5 -11.5 -13.5 -11.2 -13.5 -11.45 -14.95 -11.45 -15.0 M-3.45 -70.35 Q-3.85 -68.1 -3.85 -65.15 L-3.8 -64.85 -3.65 -62.35 -3.65 -61.55 Q-5.1 -59.5 -8.85 -56.35 L-11.55 -54.2 -11.5 -55.55 Q-11.4 -57.15 -10.5 -59.45 L-8.9 -63.0 -6.95 -66.65 -6.7 -66.6 -4.2 -69.45 -3.45 -70.35 M-3.75 -47.95 L-3.95 -38.3 -11.8 -32.8 -11.9 -40.15 -11.9 -40.25 -11.9 -40.35 -11.9 -40.6 -11.9 -41.1 -8.0 -44.8 -3.75 -47.95 M-4.0 -31.4 L-4.0 -26.9 -6.4 -25.1 -11.65 -21.3 -11.75 -25.5 -11.75 -25.55 -7.1 -29.5 -4.05 -31.4 -4.0 -31.4" fill="#cdd7da" fill-rule="evenodd" stroke="none"/>
      <path d="M5.05 -58.3 L3.0 -57.0 -1.55 -53.25 Q-1.0 -65.7 -1.0 -68.05 L-1.0 -70.85 Q3.15 -65.4 5.05 -58.3 M-2.0 -42.25 L-2.0 -41.95 0.7 -43.8 5.5 -47.35 6.5 -48.2 7.1 -41.05 Q4.75 -39.8 0.5 -36.6 L-2.05 -34.65 -2.0 -42.25 M7.4 -35.2 L7.4 -32.7 7.6 -24.9 7.9 -20.5 8.0 -18.55 8.0 -18.5 8.0 -18.4 8.0 -18.15 8.0 -17.2 6.1 -17.55 5.5 -17.5 Q2.1 -17.5 0.0 -20.6 -1.5 -22.85 -1.5 -24.35 L-1.5 -24.6 -1.5 -25.1 -1.8 -28.4 4.3 -32.75 7.4 -35.2" fill="#8ca4aa" fill-rule="evenodd" stroke="none"/>
    </g>
    <g id="shape6" transform="matrix(1.0, 0.0, 0.0, 1.0, 67.25, 21.75)">
      <path d="M10.3 -14.4 L10.9 -16.55 11.1 -17.25 10.4 -16.65 Q7.65 -14.25 6.75 -12.95 L4.5 -9.4 Q3.3 -6.9 4.25 -5.45 L4.25 -0.6 4.55 -0.5 Q4.65 0.3 4.25 1.6 4.3 2.0 5.0 2.25 L7.4 2.5 9.25 2.35 10.05 1.55 Q9.2 0.45 8.85 -1.6 L8.75 -4.25 Q8.75 -7.5 9.95 -13.1 L10.3 -14.4 M12.6 -15.5 Q11.45 -13.0 11.25 -11.95 10.95 -10.65 10.85 -8.15 L10.95 -8.15 Q12.05 -7.8 13.25 -6.45 14.85 -4.95 17.8 -5.4 19.35 -5.65 20.75 -4.25 L20.75 -8.7 Q21.6 -9.65 22.05 -11.7 22.55 -14.05 23.1 -15.0 25.25 -18.8 35.25 -19.5 45.5 -24.1 55.2 -14.7 59.0 -11.05 61.45 -6.3 63.75 -1.85 63.75 1.3 63.75 4.85 61.75 8.05 60.5 10.05 58.75 11.2 L60.0 11.8 Q60.65 11.1 62.05 10.3 63.85 9.25 65.0 9.25 66.55 9.25 67.05 11.3 L67.25 13.35 Q67.25 16.45 65.05 17.35 L65.5 18.25 65.8 18.25 66.05 18.4 Q66.25 18.5 66.25 19.25 L66.1 19.95 Q65.9 19.95 65.8 20.25 L64.95 20.25 64.75 20.25 64.5 20.25 46.8 20.85 Q43.5 21.7 40.75 21.75 L-66.35 21.75 -66.55 21.6 -66.75 20.9 -67.2 20.15 -67.25 19.25 Q-67.25 16.5 -65.55 14.9 L-60.1 10.55 Q-59.35 9.9 -57.75 9.25 -56.7 8.8 -56.7 8.15 L-56.75 7.05 Q-56.3 6.15 -54.6 4.9 L-51.85 3.0 Q-48.35 0.55 -44.7 2.4 L-44.65 2.45 Q-42.55 1.1 -41.1 0.45 L-40.75 -0.45 -40.3 -2.7 Q-40.0 -3.85 -38.5 -4.95 -36.3 -6.6 -27.75 -6.7 L-26.45 -8.1 Q-24.05 -9.9 -20.05 -7.15 -19.55 -10.3 -17.95 -13.2 -15.2 -18.05 -10.25 -20.25 L-9.7 -20.05 -9.75 -18.6 -9.4 -15.5 Q-10.55 -13.0 -10.75 -11.95 -11.05 -10.6 -11.15 -8.1 L-10.4 -8.45 -8.85 -8.85 Q-8.3 -11.65 -6.95 -14.3 -4.2 -19.4 0.75 -21.75 L1.3 -21.55 1.25 -20.0 1.6 -16.7 Q0.45 -14.05 0.25 -12.95 L-0.15 -9.4 1.0 -9.45 2.45 -9.3 Q3.0 -11.3 4.05 -13.2 6.8 -18.05 11.75 -20.25 L12.3 -20.05 12.25 -18.6 12.6 -15.5 M2.0 -0.35 L1.9 -0.9 1.8 -2.95 1.75 -3.0 1.75 -3.75 1.65 -5.75 1.8 -5.65 2.0 -7.25 0.4 -7.55 -0.2 -7.75 -0.2 -7.6 -0.25 -5.0 Q-0.25 -3.35 0.45 -0.25 L0.75 1.05 0.75 1.1 0.75 1.55 0.6 2.4 Q0.3 3.15 -0.5 3.75 -1.75 4.75 -3.25 4.75 -7.0 4.75 -7.95 3.4 L-8.2 2.3 -8.25 1.8 Q-8.9 0.5 -9.1 -1.25 L-9.1 -1.3 -9.2 -3.4 -9.25 -3.45 -9.25 -4.25 -9.35 -6.4 -9.2 -6.25 -9.15 -6.75 -9.45 -6.55 -11.25 -5.75 -11.25 -4.45 -11.25 -4.4 -11.25 -4.25 -10.95 -1.95 -10.25 1.25 -10.25 1.3 -10.25 1.75 Q-10.25 2.3 -10.55 2.85 L-11.5 3.8 Q-12.75 4.75 -14.25 4.75 L-16.25 4.65 -16.55 4.6 -16.25 4.75 Q-18.05 5.8 -19.25 5.65 -20.75 5.5 -22.75 6.25 L-23.5 6.0 -23.75 5.1 -23.75 5.0 Q-23.75 3.4 -21.85 3.2 -20.6 3.1 -18.75 3.7 L-18.95 3.5 Q-19.2 3.15 -19.25 1.95 -19.9 0.75 -20.1 -0.9 L-20.15 -1.45 -20.2 -2.95 -20.25 -3.0 -20.25 -3.75 -20.35 -5.75 -20.2 -5.65 -20.1 -6.6 Q-21.05 -6.0 -22.5 -6.2 -24.5 -6.5 -25.0 -6.2 L-25.45 -4.5 Q-25.85 -3.55 -27.25 -3.25 L-28.0 -3.6 -28.1 -3.75 -30.4 -3.85 -35.2 -4.0 -36.35 -3.45 Q-37.55 -2.85 -37.75 -2.45 L-38.45 -0.5 -38.6 0.15 -38.25 0.75 -39.4 1.95 Q-40.3 3.0 -41.65 3.5 L-41.7 3.5 -42.6 4.95 Q-43.15 5.75 -44.0 5.75 -44.9 5.75 -45.55 3.85 -49.2 3.85 -50.25 4.55 L-52.45 5.95 Q-53.95 7.0 -54.35 7.75 L-54.5 9.7 Q-54.6 11.05 -55.75 11.25 -58.15 11.65 -61.5 14.3 -63.15 15.65 -64.3 17.55 L-65.65 20.05 -61.45 19.5 Q-54.0 18.9 -35.95 19.0 L8.65 19.5 31.3 18.9 57.35 18.35 57.4 18.35 62.4 18.3 62.3 17.75 Q59.9 17.55 58.75 15.3 L58.1 13.45 57.75 12.8 57.2 12.8 Q54.6 12.85 54.0 13.55 53.4 14.25 52.5 14.25 L50.75 14.0 Q50.05 14.0 50.3 13.25 L50.55 12.05 50.7 11.65 50.6 11.7 Q49.9 11.7 46.55 10.5 L45.8 7.75 45.75 7.75 45.5 6.8 44.3 6.8 Q40.45 6.95 38.3 9.4 35.7 12.25 33.25 12.25 30.95 12.25 30.7 11.75 30.8 11.0 30.25 10.5 L24.55 9.5 24.25 7.75 24.05 5.75 Q23.75 5.75 23.75 5.3 19.45 6.35 17.2 5.35 16.0 4.75 15.8 4.1 L14.75 3.4 Q13.85 2.5 12.9 2.5 12.0 2.5 10.65 3.9 9.3 5.25 5.5 5.25 3.7 5.25 3.25 4.55 L3.75 4.1 3.05 3.5 2.85 2.85 2.85 2.8 2.8 2.5 2.75 1.95 Q2.2 0.95 2.0 -0.35 M19.75 -1.5 L19.75 -2.7 Q12.9 -3.0 11.55 -4.65 L10.8 -6.0 10.75 -4.45 Q10.75 -2.85 11.5 0.15 13.75 -1.15 15.55 0.4 L17.05 1.85 17.95 0.95 20.0 -1.3 20.1 -1.4 19.75 -1.5 M26.3 -10.0 L28.1 -9.75 Q29.85 -9.25 30.8 -8.5 32.25 -7.5 32.6 -6.25 L32.75 -4.0 Q32.75 -1.85 32.0 -0.25 30.55 2.75 27.0 2.75 24.9 2.75 23.8 1.95 L23.1 1.15 23.0 0.95 22.75 -1.0 22.85 -1.55 23.85 -5.55 Q24.95 -9.5 25.25 -9.7 L25.3 -9.7 Q25.7 -9.95 26.3 -10.0 M22.9 3.5 L24.8 3.5 Q26.05 4.3 26.2 5.75 L26.3 7.0 26.25 7.55 26.9 7.55 26.75 7.0 Q26.75 5.0 29.0 4.65 31.25 4.3 31.25 6.4 31.25 7.15 30.75 7.75 L30.7 7.8 Q31.65 8.05 31.95 8.6 L32.35 9.55 Q32.65 10.0 33.55 10.0 35.15 10.0 37.3 7.4 37.95 6.6 38.75 6.05 35.65 5.65 34.05 4.5 32.75 3.55 32.75 2.4 32.75 -3.65 40.0 -3.95 42.85 -4.05 45.0 -2.9 47.25 -1.65 47.25 0.35 47.25 2.7 46.55 4.0 L45.75 5.1 Q47.25 5.55 47.9 6.65 48.5 7.6 48.25 8.3 51.15 8.15 52.1 9.55 L52.3 10.15 52.5 10.75 52.55 10.85 55.15 9.65 Q58.95 8.05 59.55 7.3 61.55 5.0 61.75 4.15 L61.75 1.75 Q61.75 -3.7 57.25 -8.5 56.5 -11.25 54.5 -13.35 50.65 -17.5 41.65 -17.5 30.3 -17.5 27.5 -15.95 24.25 -14.2 22.75 -6.25 L22.65 -3.25 22.5 -1.6 22.05 -0.25 22.05 -0.2 22.0 -0.15 20.3 1.9 20.2 2.05 19.0 3.3 19.3 3.3 22.9 3.5 M38.85 -0.95 Q38.25 -1.85 37.5 -1.2 L38.85 1.45 Q37.25 2.75 37.25 3.65 L37.3 4.15 37.75 4.2 39.65 2.6 41.0 3.95 41.5 3.45 40.4 1.95 40.5 1.85 Q42.75 -0.1 42.75 -0.55 L42.6 -0.95 42.25 -1.05 39.75 0.8 39.6 0.45 38.85 -0.95 M28.25 -3.9 L28.1 -4.25 27.35 -5.65 Q26.75 -6.55 26.0 -5.9 26.45 -4.65 27.35 -3.25 25.75 -1.95 25.75 -1.05 L25.8 -0.55 26.25 -0.5 28.15 -2.1 29.5 -0.75 30.0 -1.25 28.9 -2.75 29.0 -2.85 Q31.25 -4.8 31.25 -5.25 L31.1 -5.65 30.75 -5.75 28.25 -3.9 M61.05 14.85 Q61.2 15.55 62.0 15.55 64.8 15.55 65.2 13.95 65.45 12.85 64.75 11.55 63.4 11.8 62.45 12.75 L61.0 13.8 61.05 14.85 M1.75 10.25 Q3.25 11.45 3.25 13.05 L3.1 15.0 Q2.7 15.75 1.0 15.75 L-1.9 15.35 -7.95 14.75 -8.1 14.5 -8.25 13.5 Q-8.25 12.9 -6.85 10.6 -5.3 8.0 -4.25 7.75 L0.5 8.2 0.75 9.0 Q1.0 9.65 1.75 10.25 M8.8 11.0 L14.25 12.5 Q13.25 9.5 12.55 9.2 L9.3 9.5 8.8 11.0 M7.8 7.9 Q9.25 6.8 11.25 7.05 16.25 7.55 16.25 12.5 L16.0 14.25 Q15.65 14.75 14.0 14.75 10.8 14.75 8.25 13.25 6.25 12.05 6.25 11.3 6.25 9.05 7.8 7.9 M-34.2 4.65 L-33.15 4.85 Q-31.85 5.55 -30.0 8.75 -29.75 9.05 -29.75 9.8 L-28.9 10.1 Q-27.9 10.35 -27.7 10.5 -27.25 10.75 -27.25 12.1 -27.25 14.15 -28.95 15.75 -30.55 17.25 -32.5 17.25 L-35.95 16.9 -38.95 16.5 -49.75 15.75 -50.6 15.0 -50.75 13.75 -50.75 13.3 -50.5 11.85 -50.45 11.8 Q-50.1 10.95 -49.1 10.5 L-47.85 10.0 -44.05 9.5 -41.05 9.05 Q-38.5 8.35 -36.95 6.5 L-36.35 5.85 Q-35.25 4.75 -34.25 4.65 L-34.2 4.65 M-5.45 2.25 L-3.6 2.35 Q-1.1 2.35 -0.9 1.7 L-0.85 1.5 Q-1.8 0.35 -2.15 -2.0 L-2.25 -4.8 Q-2.25 -8.25 -1.05 -14.15 L-0.5 -16.5 0.1 -18.55 -0.6 -17.95 -4.25 -14.0 -6.5 -10.25 Q-7.7 -7.6 -6.75 -6.05 L-6.75 -0.9 -6.45 -0.8 Q-6.35 0.05 -6.75 1.4 -6.65 2.0 -5.45 2.25 M-11.15 -16.55 L-10.9 -17.25 -11.6 -16.65 Q-14.35 -14.25 -15.25 -12.95 L-17.5 -9.4 Q-18.7 -6.9 -17.75 -5.45 L-17.75 -0.6 -17.45 -0.5 Q-17.35 0.3 -17.75 1.6 L-17.75 1.65 -17.6 1.9 Q-17.35 2.2 -16.6 2.35 L-14.6 2.5 Q-12.1 2.5 -11.9 1.85 L-11.85 1.7 Q-12.8 0.6 -13.15 -1.6 L-13.25 -4.25 Q-13.25 -7.5 -12.05 -13.1 L-11.15 -16.55 M-5.25 12.6 L-1.45 13.0 1.25 13.5 Q-1.25 10.5 -1.75 10.25 L-4.65 10.35 Q-5.0 10.85 -5.25 12.5 L-5.45 12.55 -5.25 12.6 M-29.45 12.5 L-29.25 12.3 -29.35 12.3 Q-31.3 11.85 -32.7 8.95 L-33.0 8.45 -33.2 8.25 -34.55 8.0 -34.6 8.0 -35.75 8.8 Q-37.35 11.3 -39.25 11.65 -40.4 11.85 -42.6 11.15 L-42.75 11.1 Q-45.85 11.7 -48.3 13.05 L-48.75 13.8 -47.8 13.85 -46.9 13.9 -46.85 13.9 -37.25 14.55 -32.35 15.0 Q-31.1 15.0 -30.25 13.85 L-29.45 12.5" fill="#2b2419" fill-rule="evenodd" stroke="none"/>
      <path d="M0.4 -7.55 L2.0 -7.25 1.8 -5.65 1.65 -5.75 1.75 -3.75 1.75 -3.0 1.8 -2.95 1.9 -0.9 2.0 -0.35 1.0 -0.25 0.45 -0.25 Q-0.25 -3.35 -0.25 -5.0 L-0.2 -7.6 0.4 -7.55 M2.8 2.5 L2.85 2.8 2.85 2.85 3.05 3.5 3.75 4.1 3.25 4.55 Q3.7 5.25 5.5 5.25 9.3 5.25 10.65 3.9 12.0 2.5 12.9 2.5 13.85 2.5 14.75 3.4 L15.8 4.1 Q16.0 4.75 17.2 5.35 19.45 6.35 23.75 5.3 23.75 5.75 24.05 5.75 L24.25 7.75 24.55 9.5 30.25 10.5 Q30.8 11.0 30.7 11.75 30.95 12.25 33.25 12.25 35.7 12.25 38.3 9.4 40.45 6.95 44.3 6.8 L45.75 7.75 45.8 7.75 46.55 10.5 Q49.9 11.7 50.6 11.7 L50.55 12.05 50.3 13.25 Q50.05 14.0 50.75 14.0 L52.5 14.25 Q53.4 14.25 54.0 13.55 54.6 12.85 57.2 12.8 L58.1 13.45 58.75 15.3 Q59.9 17.55 62.3 17.75 L62.4 18.3 57.4 18.35 57.35 18.35 Q53.2 16.25 49.75 16.25 47.85 16.25 47.45 15.25 47.05 14.25 46.0 14.25 44.35 14.25 43.9 12.9 43.75 12.5 43.75 11.3 L43.5 10.75 Q42.1 10.65 41.35 11.75 40.5 12.95 40.0 13.05 L32.75 14.75 29.8 14.3 Q27.35 13.8 26.5 13.25 L25.3 13.0 23.75 12.5 Q22.75 11.95 22.75 9.8 20.3 9.8 19.6 9.1 L19.25 8.0 Q19.1 7.65 18.75 7.55 L16.25 7.25 Q15.8 7.2 15.35 6.7 14.9 6.25 14.25 6.25 L5.9 6.75 -2.5 7.25 -3.45 6.8 Q-3.8 6.3 -4.45 6.3 L-20.5 9.75 Q-27.75 9.75 -27.75 6.6 L-27.5 5.4 Q-27.3 5.15 -26.5 4.8 L-23.8 5.1 -23.75 5.1 -23.5 6.0 -22.75 6.25 Q-20.75 5.5 -19.25 5.65 -18.05 5.8 -16.25 4.75 L-16.25 4.65 -14.25 4.75 Q-12.75 4.75 -11.5 3.8 L-10.55 2.85 -8.5 2.3 -8.2 2.3 -7.95 3.4 Q-7.0 4.75 -3.25 4.75 -1.75 4.75 -0.5 3.75 0.3 3.15 0.6 2.4 L2.8 2.5 M-61.45 19.5 L-65.65 20.05 -64.3 17.55 Q-63.15 15.65 -61.5 14.3 -58.15 11.65 -55.75 11.25 -54.6 11.05 -54.5 9.7 L-54.35 7.75 Q-53.95 7.0 -52.45 5.95 L-50.25 4.55 Q-49.2 3.85 -45.55 3.85 -44.9 5.75 -44.0 5.75 -43.15 5.75 -42.6 4.95 L-41.7 3.5 -41.65 3.5 Q-40.3 3.0 -39.4 1.95 L-38.25 0.75 -38.6 0.15 -38.45 -0.5 -37.75 -2.45 Q-37.55 -2.85 -36.35 -3.45 L-35.2 -4.0 -30.4 -3.85 -28.1 -3.75 -28.0 -3.6 -27.25 -3.25 Q-25.85 -3.55 -25.45 -4.5 L-25.0 -6.2 Q-24.5 -6.5 -22.5 -6.2 -21.05 -6.0 -20.1 -6.6 L-20.2 -5.65 -20.35 -5.75 -20.25 -3.75 -20.25 -3.0 -20.2 -2.95 -20.15 -1.45 -20.15 -1.2 -21.0 -1.25 Q-23.8 -1.25 -24.4 -0.25 -25.05 0.75 -26.0 0.75 -26.6 0.75 -26.95 0.3 -27.3 -0.2 -27.95 -0.2 L-30.6 0.05 -33.95 0.5 Q-32.25 2.0 -32.25 2.75 -32.25 3.4 -34.2 4.65 L-34.25 4.65 Q-35.25 4.75 -36.35 5.85 -39.05 7.3 -43.5 9.25 -44.3 9.25 -45.3 8.55 L-46.35 7.8 Q-47.6 7.8 -50.75 9.05 L-49.1 10.5 Q-50.1 10.95 -50.45 11.8 L-50.5 11.85 -50.75 13.3 Q-51.75 13.85 -53.25 14.4 -58.95 16.5 -60.6 18.0 L-61.45 19.5 M-10.95 -1.95 L-11.25 -4.25 -11.25 -4.4 -11.25 -4.45 -11.25 -5.75 -9.45 -6.55 -9.35 -6.4 -9.25 -4.25 -9.25 -3.45 -9.2 -3.4 -9.1 -1.3 -10.25 -1.25 -10.8 -1.25 -10.95 -1.95" fill="#672419" fill-rule="evenodd" stroke="none"/>
      <path d="M2.0 -0.35 Q2.2 0.95 2.75 1.95 L2.8 2.5 0.6 2.4 0.75 1.55 0.75 1.1 0.75 1.05 0.45 -0.25 1.0 -0.25 2.0 -0.35 M44.3 6.8 L45.5 6.8 45.75 7.75 44.3 6.8 M57.2 12.8 L57.75 12.8 58.1 13.45 57.2 12.8 M57.35 18.35 L31.3 18.9 8.65 19.5 -35.95 19.0 Q-54.0 18.9 -61.45 19.5 L-60.6 18.0 Q-58.95 16.5 -53.25 14.4 -51.75 13.85 -50.75 13.3 L-50.75 13.75 -50.6 15.0 -49.75 15.75 -38.95 16.5 -35.95 16.9 -32.5 17.25 Q-30.55 17.25 -28.95 15.75 -27.25 14.15 -27.25 12.1 -27.25 10.75 -27.7 10.5 -27.9 10.35 -28.9 10.1 L-29.75 9.8 Q-29.75 9.05 -30.0 8.75 -31.85 5.55 -33.15 4.85 L-34.2 4.65 Q-32.25 3.4 -32.25 2.75 -32.25 2.0 -33.95 0.5 L-30.6 0.05 -27.95 -0.2 Q-27.3 -0.2 -26.95 0.3 -26.6 0.75 -26.0 0.75 -25.05 0.75 -24.4 -0.25 -23.8 -1.25 -21.0 -1.25 L-20.15 -1.2 -20.15 -1.45 -20.1 -0.9 Q-19.9 0.75 -19.25 1.95 -19.2 3.15 -18.95 3.5 L-18.75 3.7 Q-20.6 3.1 -21.85 3.2 -23.75 3.4 -23.75 5.0 L-23.75 5.1 -23.8 5.1 -26.5 4.8 Q-27.3 5.15 -27.5 5.4 L-27.75 6.6 Q-27.75 9.75 -20.5 9.75 L-4.45 6.3 Q-3.8 6.3 -3.45 6.8 L-2.5 7.25 5.9 6.75 14.25 6.25 Q14.9 6.25 15.35 6.7 15.8 7.2 16.25 7.25 L18.75 7.55 Q19.1 7.65 19.25 8.0 L19.6 9.1 Q20.3 9.8 22.75 9.8 22.75 11.95 23.75 12.5 L25.3 13.0 26.5 13.25 Q27.35 13.8 29.8 14.3 L32.75 14.75 40.0 13.05 Q40.5 12.95 41.35 11.75 42.1 10.65 43.5 10.75 L43.75 11.3 Q43.75 12.5 43.9 12.9 44.35 14.25 46.0 14.25 47.05 14.25 47.45 15.25 47.85 16.25 49.75 16.25 53.2 16.25 57.35 18.35 M-10.55 2.85 Q-10.25 2.3 -10.25 1.75 L-10.25 1.3 -10.25 1.25 -10.95 -1.95 -10.8 -1.25 -10.25 -1.25 -9.1 -1.3 -9.1 -1.25 Q-8.9 0.5 -8.25 1.8 L-8.2 2.3 -8.5 2.3 -10.55 2.85 M-0.2 -7.6 L-0.2 -7.75 0.4 -7.55 -0.2 -7.6 M20.0 -1.3 L17.95 0.95 17.05 1.85 15.55 0.4 Q13.75 -1.15 11.5 0.15 10.75 -2.85 10.75 -4.45 L10.8 -6.0 11.55 -4.65 Q12.9 -3.0 19.75 -2.7 L19.75 -1.5 20.0 -1.3 M1.75 10.25 Q1.0 9.65 0.75 9.0 L0.5 8.2 -4.25 7.75 Q-5.3 8.0 -6.85 10.6 -8.25 12.9 -8.25 13.5 L-8.1 14.5 -7.95 14.75 -1.9 15.35 1.0 15.75 Q2.7 15.75 3.1 15.0 L3.25 13.05 Q3.25 11.45 1.75 10.25 M7.8 7.9 Q6.25 9.05 6.25 11.3 6.25 12.05 8.25 13.25 10.8 14.75 14.0 14.75 15.65 14.75 16.0 14.25 L16.25 12.5 Q16.25 7.55 11.25 7.05 9.25 6.8 7.8 7.9 M-36.35 5.85 L-36.95 6.5 Q-38.5 8.35 -41.05 9.05 L-44.05 9.5 -47.85 10.0 -49.1 10.5 -50.75 9.05 Q-47.6 7.8 -46.35 7.8 L-45.3 8.55 Q-44.3 9.25 -43.5 9.25 -39.05 7.3 -36.35 5.85" fill="#512419" fill-rule="evenodd" stroke="none"/>
      <path d="M5.0 2.25 Q5.0 2.0 5.15 1.95 L5.25 1.25 4.7 -2.6 Q4.45 -4.05 5.75 -8.2 6.4 -10.4 9.9 -14.05 L10.3 -14.4 9.95 -13.1 Q8.75 -7.5 8.75 -4.25 L8.85 -1.6 Q9.2 0.45 10.05 1.55 L9.25 2.35 7.4 2.5 5.0 2.25 M23.8 1.95 Q24.9 2.75 27.0 2.75 30.55 2.75 32.0 -0.25 32.75 -1.85 32.75 -4.0 L32.6 -6.25 Q32.25 -7.5 30.8 -8.5 29.85 -9.25 28.1 -9.75 L26.3 -10.0 Q27.75 -12.15 31.05 -13.55 35.6 -15.5 41.85 -15.5 L46.5 -15.3 Q47.95 -15.1 48.5 -14.45 L50.05 -12.2 Q52.05 -9.3 53.75 -7.7 56.55 -4.95 57.65 -2.75 58.75 -0.65 58.75 1.85 58.75 5.05 55.25 7.75 L52.3 10.15 52.1 9.55 Q51.15 8.15 48.25 8.3 48.5 7.6 47.9 6.65 47.25 5.55 45.75 5.1 L46.55 4.0 Q47.25 2.7 47.25 0.35 47.25 -1.65 45.0 -2.9 42.85 -4.05 40.0 -3.95 32.75 -3.65 32.75 2.4 32.75 3.55 34.05 4.5 35.65 5.65 38.75 6.05 37.95 6.6 37.3 7.4 35.15 10.0 33.55 10.0 32.65 10.0 32.35 9.55 L31.95 8.6 Q31.65 8.05 30.7 7.8 L30.75 7.75 Q31.25 7.15 31.25 6.4 31.25 4.3 29.0 4.65 26.75 5.0 26.75 7.0 L26.3 7.0 26.2 5.75 Q26.05 4.3 24.8 3.5 L22.9 3.5 23.8 1.95 M20.2 2.05 L19.75 2.5 19.3 3.3 19.0 3.3 20.2 2.05 M61.05 14.85 L61.0 13.8 62.45 12.75 Q63.4 11.8 64.75 11.55 65.45 12.85 65.2 13.95 64.8 15.55 62.0 15.55 61.2 15.55 61.05 14.85 M8.8 11.0 L9.3 9.5 12.55 9.2 Q13.25 9.5 14.25 12.5 L8.8 11.0 M-0.5 -16.5 L-1.05 -14.15 Q-2.25 -8.25 -2.25 -4.8 L-2.15 -2.0 Q-1.8 0.35 -0.85 1.5 L-0.9 1.7 Q-1.1 2.35 -3.6 2.35 L-5.45 2.25 -5.3 -2.9 Q-5.2 -6.25 -4.5 -8.5 -3.2 -13.15 -0.5 -16.5 M-11.3 -16.6 L-11.15 -16.55 -12.05 -13.1 Q-13.25 -7.5 -13.25 -4.25 L-13.15 -1.6 Q-12.8 0.6 -11.85 1.7 L-11.9 1.85 Q-12.1 2.5 -14.6 2.5 L-16.6 2.35 Q-16.05 1.05 -15.85 -0.65 L-15.75 -6.5 Q-15.75 -12.0 -13.25 -14.6 L-11.55 -16.3 -11.3 -16.6 M-5.25 12.5 Q-5.0 10.85 -4.65 10.35 L-1.75 10.25 Q-1.25 10.5 1.25 13.5 L-1.45 13.0 -5.25 12.6 -5.25 12.5 M-29.35 12.3 L-29.45 12.5 -30.25 13.85 Q-31.1 15.0 -32.35 15.0 L-37.25 14.55 -46.85 13.9 -41.5 13.0 -36.75 12.35 -35.7 11.55 -32.85 8.7 -33.0 8.45 -32.7 8.95 Q-31.3 11.85 -29.35 12.3" fill="#9a8b72" fill-rule="evenodd" stroke="none"/>
      <path d="M10.9 -16.55 L10.3 -14.4 9.9 -14.05 Q6.4 -10.4 5.75 -8.2 4.45 -4.05 4.7 -2.6 L5.25 1.25 5.15 1.95 Q5.0 2.0 5.0 2.25 4.3 2.0 4.25 1.6 4.65 0.3 4.55 -0.5 L4.25 -0.6 4.25 -5.45 Q3.3 -6.9 4.5 -9.4 L6.75 -12.95 Q7.65 -14.25 10.4 -16.65 L10.9 -16.55 M23.8 1.95 L22.9 3.5 19.3 3.3 19.75 2.5 20.2 2.05 20.3 1.9 22.0 -0.15 22.05 -0.2 22.05 -0.25 22.5 -1.6 22.65 -3.25 22.75 -6.25 Q24.25 -14.2 27.5 -15.95 30.3 -17.5 41.65 -17.5 50.65 -17.5 54.5 -13.35 56.5 -11.25 57.25 -8.5 61.75 -3.7 61.75 1.75 L61.75 4.15 Q61.55 5.0 59.55 7.3 58.95 8.05 55.15 9.65 L52.55 10.85 52.5 10.75 52.3 10.15 55.25 7.75 Q58.75 5.05 58.75 1.85 58.75 -0.65 57.65 -2.75 56.55 -4.95 53.75 -7.7 52.05 -9.3 50.05 -12.2 L48.5 -14.45 Q47.95 -15.1 46.5 -15.3 L41.85 -15.5 Q35.6 -15.5 31.05 -13.55 27.75 -12.15 26.3 -10.0 25.7 -9.95 25.3 -9.7 L25.25 -9.7 Q24.95 -9.5 23.85 -5.55 L22.85 -1.55 22.75 -1.0 23.0 0.95 23.1 1.15 23.8 1.95 M-5.45 2.25 Q-6.65 2.0 -6.75 1.4 -6.35 0.05 -6.45 -0.8 L-6.75 -0.9 -6.75 -6.05 Q-7.7 -7.6 -6.5 -10.25 L-4.25 -14.0 -0.6 -17.95 0.1 -18.55 -0.5 -16.5 Q-3.2 -13.15 -4.5 -8.5 -5.2 -6.25 -5.3 -2.9 L-5.45 2.25 M-11.6 -16.65 L-11.3 -16.6 -11.55 -16.3 -13.25 -14.6 Q-15.75 -12.0 -15.75 -6.5 L-15.85 -0.65 Q-16.05 1.05 -16.6 2.35 -17.35 2.2 -17.6 1.9 L-17.75 1.65 -17.75 1.6 Q-17.35 0.3 -17.45 -0.5 L-17.75 -0.6 -17.75 -5.45 Q-18.7 -6.9 -17.5 -9.4 L-15.25 -12.95 Q-14.35 -14.25 -11.6 -16.65 M-46.85 13.9 L-46.9 13.9 -47.8 13.85 -48.75 13.8 -48.3 13.05 Q-45.85 11.7 -42.75 11.1 L-42.6 11.15 Q-40.4 11.85 -39.25 11.65 -37.35 11.3 -35.75 8.8 L-34.6 8.0 -34.55 8.0 -33.2 8.25 -33.0 8.45 -32.85 8.7 -35.7 11.55 -36.75 12.35 -41.5 13.0 -46.85 13.9" fill="#aea391" fill-rule="evenodd" stroke="none"/>
      <path d="M28.25 -3.9 L30.75 -5.75 31.1 -5.65 31.25 -5.25 Q31.25 -4.8 29.0 -2.85 L28.9 -2.75 30.0 -1.25 29.5 -0.75 28.15 -2.1 26.25 -0.5 25.8 -0.55 25.75 -1.05 Q25.75 -1.95 27.35 -3.25 26.45 -4.65 26.0 -5.9 26.75 -6.55 27.35 -5.65 L28.1 -4.25 28.25 -3.9 M38.85 -0.95 L39.6 0.45 39.75 0.8 42.25 -1.05 42.6 -0.95 42.75 -0.55 Q42.75 -0.1 40.5 1.85 L40.4 1.95 41.5 3.45 41.0 3.95 39.65 2.6 37.75 4.2 37.3 4.15 37.25 3.65 Q37.25 2.75 38.85 1.45 L37.5 -1.2 Q38.25 -1.85 38.85 -0.95" fill="#c3bcb1" fill-rule="evenodd" stroke="none"/>
    </g>
    <g id="shape7" transform="matrix(1.0, 0.0, 0.0, 1.0, 75.9, 25.65)">
      <path d="M17.8 -21.75 L21.0 -20.0 21.05 -20.7 Q21.5 -23.6 23.0 -24.5 27.8 -27.2 28.85 -23.5 29.15 -18.7 29.5 -17.6 L29.8 -17.4 31.0 -17.25 36.0 -17.85 41.0 -18.5 Q53.75 -18.5 60.1 -13.3 66.2 -8.3 68.5 3.3 L68.5 10.45 Q74.0 12.5 74.0 18.85 74.0 20.7 73.0 25.8 L72.95 25.9 73.0 26.5 72.9 27.2 72.6 27.5 32.0 27.5 24.7 27.15 18.65 26.9 18.6 27.0 7.0 27.0 3.2 26.55 3.0 26.8 Q3.5 27.0 2.25 27.0 L1.25 26.8 0.25 27.0 -2.45 26.55 Q-7.3 26.2 -29.4 26.5 L-30.15 26.25 -30.25 26.15 -30.8 26.25 -40.15 27.0 -44.1 26.65 -44.35 26.8 -45.65 27.0 -50.05 26.6 -64.05 26.0 -64.15 26.0 Q-72.95 26.0 -75.25 23.0 -75.9 22.15 -75.9 19.35 -75.9 12.1 -69.3 8.8 -64.45 6.6 -62.8 5.3 L-59.4 3.05 -56.85 2.9 Q-56.35 1.3 -52.1 -1.25 -48.4 -3.4 -46.5 -3.85 L-45.4 -4.5 Q-37.45 -6.45 -30.4 -7.3 L-29.9 -7.5 -29.65 -7.4 -29.15 -7.45 -26.25 -9.45 Q-22.1 -12.1 -20.4 -12.85 L-12.7 -16.05 Q-9.3 -17.35 -6.4 -17.95 L-6.4 -20.7 Q-6.25 -23.75 -5.0 -24.5 L-4.5 -23.55 Q-2.2 -25.25 3.6 -25.25 10.15 -25.3 12.5 -23.85 L17.8 -21.75 M-4.05 -19.4 L-4.25 -17.1 -5.0 -12.6 -4.85 -9.05 -4.85 -8.8 -4.6 -8.95 -1.0 -10.5 11.75 -10.1 Q16.85 -9.4 19.55 -7.05 L19.55 -7.95 Q19.75 -13.45 20.35 -15.85 L20.5 -16.5 20.8 -17.95 20.8 -18.0 20.75 -18.0 14.75 -20.6 Q10.6 -22.25 7.7 -22.85 L4.65 -23.25 1.0 -22.7 0.6 -22.65 0.35 -22.6 -4.0 -22.0 -4.1 -22.0 -4.1 -21.95 -4.0 -20.65 -4.05 -19.4 M19.5 -1.4 L19.55 -5.55 19.0 -5.5 16.0 -6.85 Q12.25 -8.25 3.5 -8.25 L-1.85 -7.9 Q-1.4 -6.05 -1.45 -3.25 -1.55 1.65 -1.0 3.5 L-1.0 4.7 Q0.65 3.45 2.6 2.3 12.1 -3.15 19.1 -1.5 L19.3 -1.35 19.5 -0.6 19.5 -1.4 M63.45 9.5 L63.75 9.5 66.55 9.9 Q66.3 8.95 66.35 7.65 L66.35 3.75 65.3 -0.15 64.0 -3.75 Q63.3 -7.05 60.1 -10.15 53.85 -16.25 41.0 -16.25 L35.9 -15.6 30.75 -15.0 Q27.35 -15.0 27.3 -18.85 L27.15 -21.55 Q26.8 -22.75 25.5 -22.75 22.55 -22.75 21.75 -10.8 L21.7 -9.55 Q21.35 -4.2 21.5 1.25 L21.55 7.9 Q21.7 10.65 22.15 12.35 29.35 8.65 45.35 8.75 L45.4 9.65 Q48.5 9.9 54.2 9.65 60.8 9.3 63.45 9.5 M69.95 13.15 Q69.9 12.6 68.65 12.35 65.4 11.75 45.5 12.0 L45.45 12.0 45.55 17.2 45.95 25.15 71.2 25.5 71.0 24.75 Q71.0 24.15 71.5 22.0 L72.0 19.25 72.0 16.7 Q71.75 15.45 70.35 14.25 70.05 14.0 69.95 13.15 M43.5 10.55 Q23.25 12.5 19.2 17.05 17.8 18.65 18.0 21.1 L18.45 24.6 43.75 25.1 Q43.25 23.55 43.2 20.3 L43.5 10.55 M19.5 1.05 L19.5 -0.3 19.4 0.25 19.1 0.5 Q4.75 2.4 1.15 5.15 0.3 5.8 -1.35 7.95 -2.8 9.8 -4.6 11.2 -2.45 15.15 1.75 24.55 2.6 23.3 4.5 22.15 L10.1 19.0 14.9 15.45 Q17.15 14.1 20.2 13.55 L20.3 13.5 Q19.7 11.85 19.5 7.8 19.35 4.45 19.5 1.05 M5.3 24.5 L16.6 24.9 16.3 23.9 Q16.0 22.55 16.0 21.65 16.0 19.55 16.7 17.85 L11.25 20.55 7.2 23.15 Q6.1 23.85 5.3 24.5 M-48.3 -0.9 L-51.65 0.55 -53.85 2.65 -48.3 2.0 -47.4 1.5 -47.05 1.6 -46.9 0.0 -47.05 -1.45 Q-47.6 -1.2 -48.3 -0.9 M-40.4 -3.0 Q-45.5 -2.05 -45.6 -1.1 -45.7 -0.5 -44.9 1.05 -45.4 4.4 -45.4 10.25 L-45.55 13.55 -45.4 17.55 -43.95 20.9 Q-42.9 22.95 -43.4 24.75 L-35.15 24.4 -30.55 24.0 -31.3 20.85 -31.65 16.05 -31.9 7.5 -31.85 -0.05 Q-31.7 -2.9 -31.15 -4.9 L-32.35 -4.6 -40.4 -3.0 M-22.55 -8.3 L-22.5 -8.7 -24.85 -7.1 Q-25.4 -6.8 -25.9 -6.45 L-26.9 -5.9 -27.5 -5.6 -27.55 -5.55 -29.45 -4.65 -29.4 -4.25 -29.4 -3.6 -29.4 -3.55 -29.8 -0.5 -29.9 0.3 -30.0 4.3 -29.9 7.5 -29.6 12.95 Q-29.3 17.15 -28.9 18.3 L-28.9 24.0 -20.9 23.65 Q-21.9 21.85 -22.2 19.5 L-22.4 14.5 -22.4 -3.5 -22.4 -4.55 -22.6 -7.65 -22.6 -8.0 -22.55 -8.3 M-17.45 -11.8 L-19.65 -10.85 -20.95 -9.8 -20.95 -9.7 Q-20.4 -7.85 -20.25 -5.45 -20.15 -4.2 -20.2 -2.75 L-20.4 5.75 -20.4 14.3 -19.9 18.95 -19.4 22.55 -19.45 23.6 -14.05 23.4 -9.3 23.4 Q-10.75 20.3 -11.3 16.8 L-12.0 9.5 -13.0 -5.15 -12.95 -9.35 -12.9 -10.35 -12.9 -10.4 -12.3 -13.8 -17.45 -11.8 M-6.5 -15.85 L-6.45 -16.2 -6.6 -16.15 -10.65 -14.4 Q-10.55 -13.9 -10.6 -13.2 L-10.7 -12.7 -10.9 -11.35 -10.95 -11.0 -11.0 -10.35 -11.0 -5.15 -10.5 0.6 Q-10.0 6.2 -10.0 9.05 -10.0 11.05 -9.0 16.05 -8.0 21.0 -8.0 22.75 L-8.05 23.3 -8.15 23.45 -8.05 23.45 Q-3.7 23.7 -0.25 24.7 L-2.85 19.75 Q-6.0 13.6 -6.0 12.1 L-5.8 11.1 -6.0 10.25 Q-6.0 9.1 -3.55 6.8 L-2.55 5.95 Q-3.2 4.45 -3.4 2.4 L-3.5 -2.4 -3.9 -5.7 -3.75 -7.4 -4.7 -7.0 -5.6 -6.35 -6.5 -5.5 -7.2 -5.7 Q-7.5 -5.85 -7.5 -6.65 L-6.95 -12.15 -6.5 -15.85 M-47.85 4.2 L-55.8 5.25 Q-52.9 5.9 -51.9 8.5 -50.25 8.35 -47.4 8.5 L-47.25 3.95 -47.85 4.2 M-53.4 13.85 Q-53.4 8.75 -56.4 6.95 -59.45 5.05 -63.3 8.25 -69.7 11.3 -71.6 13.1 -73.9 15.35 -73.9 19.3 -73.9 21.5 -73.4 22.0 -71.55 23.75 -63.9 23.75 -56.75 23.75 -54.4 19.3 -53.4 17.35 -53.4 13.85 M-45.65 24.85 Q-46.15 22.6 -46.95 20.0 L-52.2 20.0 -52.65 21.0 Q-53.7 22.9 -55.6 24.1 L-48.8 24.25 -45.95 24.9 -45.6 25.0 -45.65 24.85" fill="#000000" fill-opacity="0.0" fill-rule="evenodd" stroke="none"/>
      <path d="M-4.05 -19.4 Q-2.95 -18.75 -1.5 -19.0 L0.35 -19.85 Q2.2 -20.55 4.85 -19.85 L9.6 -19.55 Q11.05 -19.8 14.0 -18.5 L19.25 -15.6 20.15 -15.1 20.35 -15.85 Q19.75 -13.45 19.55 -7.95 L19.55 -7.05 Q16.85 -9.4 11.75 -10.1 L-1.0 -10.5 -4.6 -8.95 -4.85 -9.05 -5.0 -12.6 -4.25 -17.1 -4.05 -19.4 M7.7 -22.85 L2.2 -22.9 1.0 -22.7 4.65 -23.25 7.7 -22.85 M19.5 -1.4 L19.3 -1.35 19.1 -1.5 Q12.1 -3.15 2.6 2.3 0.65 3.45 -1.0 4.7 L-1.0 3.5 Q-1.55 1.65 -1.45 -3.25 -1.4 -6.05 -1.85 -7.9 L3.5 -8.25 Q12.25 -8.25 16.0 -6.85 L19.0 -5.5 19.55 -5.55 19.5 -1.4 M21.7 -9.55 L22.75 -9.5 Q24.15 -9.5 28.25 -10.9 34.85 -12.35 49.0 -12.35 L52.7 -10.25 Q56.5 -7.95 57.6 -6.75 62.0 -1.45 62.75 0.3 63.25 1.55 63.35 3.85 L63.5 7.5 63.45 9.5 Q60.8 9.3 54.2 9.65 48.5 9.9 45.4 9.65 L45.35 8.75 Q29.35 8.65 22.15 12.35 21.7 10.65 21.55 7.9 L21.5 1.25 Q21.35 -4.2 21.7 -9.55 M-48.3 -0.9 Q-47.6 -1.2 -47.05 -1.45 L-46.9 0.0 -47.05 1.6 -47.4 1.5 -48.3 2.0 -53.85 2.65 -51.65 0.55 -48.3 -0.9 M5.3 24.5 Q6.1 23.85 7.2 23.15 L11.25 20.55 16.7 17.85 Q16.0 19.55 16.0 21.65 16.0 22.55 16.3 23.9 L16.6 24.9 5.3 24.5 M19.5 1.05 Q19.35 4.45 19.5 7.8 19.7 11.85 20.3 13.5 L20.2 13.55 Q17.15 14.1 14.9 15.45 L10.1 19.0 4.5 22.15 Q2.6 23.3 1.75 24.55 -2.45 15.15 -4.6 11.2 -2.8 9.8 -1.35 7.95 0.3 5.8 1.15 5.15 4.75 2.4 19.1 0.5 L19.4 0.25 19.5 -0.3 19.5 1.05 M-24.85 -7.1 L-22.5 -8.7 -22.55 -8.3 -24.85 -7.1 M-22.4 -4.55 L-22.4 -3.5 -22.4 14.5 -22.2 19.5 Q-21.9 21.85 -20.9 23.65 L-28.9 24.0 -28.9 18.3 Q-29.3 17.15 -29.6 12.95 L-29.9 7.5 -30.0 4.3 -29.9 0.3 -29.8 -0.5 Q-28.8 -0.7 -27.3 -1.95 -25.8 -3.1 -24.8 -3.1 -24.25 -3.1 -22.4 -4.55 M-29.4 -4.25 L-29.45 -4.65 -27.55 -5.55 -29.4 -4.25 M-20.95 -9.7 L-20.95 -9.8 -19.65 -10.85 -17.45 -11.8 Q-19.65 -10.75 -20.95 -9.7 M-12.95 -9.35 L-13.0 -5.15 -12.0 9.5 -11.3 16.8 Q-10.75 20.3 -9.3 23.4 L-14.05 23.4 -19.45 23.6 -19.4 22.55 -19.9 18.95 -20.4 14.3 -20.4 5.75 -20.2 -2.75 Q-20.15 -4.2 -20.25 -5.45 L-14.25 -8.65 -12.95 -9.35 M-6.95 -12.15 L-7.5 -6.65 Q-7.5 -5.85 -7.2 -5.7 L-6.5 -5.5 -5.6 -6.35 -4.7 -7.0 -3.75 -7.4 -3.9 -5.7 -3.5 -2.4 -3.4 2.4 Q-3.2 4.45 -2.55 5.95 L-3.55 6.8 Q-6.0 9.1 -6.0 10.25 L-5.8 11.1 -6.0 12.1 Q-6.0 13.6 -2.85 19.75 L-0.25 24.7 Q-3.7 23.7 -8.05 23.45 L-8.05 23.3 -8.0 22.75 Q-8.0 21.0 -9.0 16.05 -10.0 11.05 -10.0 9.05 -10.0 6.2 -10.5 0.6 L-11.0 -5.15 -11.0 -10.35 -10.95 -11.0 -10.75 -11.0 Q-9.1 -11.0 -6.95 -12.15 M-45.95 24.9 L-48.8 24.25 -55.6 24.1 Q-53.7 22.9 -52.65 21.0 L-52.2 20.0 -46.95 20.0 Q-46.15 22.6 -45.65 24.85 L-45.95 24.9 M-53.4 13.85 Q-53.4 17.35 -54.4 19.3 -56.75 23.75 -63.9 23.75 -71.55 23.75 -73.4 22.0 -73.9 21.5 -73.9 19.3 -73.9 15.35 -71.6 13.1 -69.7 11.3 -63.3 8.25 -59.45 5.05 -56.4 6.95 -53.4 8.75 -53.4 13.85 M-47.85 4.2 L-47.25 3.95 -47.4 8.5 Q-50.25 8.35 -51.9 8.5 -52.9 5.9 -55.8 5.25 L-47.85 4.2" fill="#5b6171" fill-opacity="0.0" fill-rule="evenodd" stroke="none"/>
      <path d="M69.95 13.15 Q70.05 14.0 70.35 14.25 71.75 15.45 72.0 16.7 L72.0 19.25 71.5 22.0 Q71.0 24.15 71.0 24.75 L71.2 25.5 45.95 25.15 45.55 17.2 45.45 12.0 45.5 12.0 Q65.4 11.75 68.65 12.35 69.9 12.6 69.95 13.15" fill="#aa8a71" fill-opacity="0.0" fill-rule="evenodd" stroke="none"/>
      <path d="M20.35 -15.85 L20.15 -15.1 19.25 -15.6 14.0 -18.5 Q11.05 -19.8 9.6 -19.55 L4.85 -19.85 Q2.2 -20.55 0.35 -19.85 L-1.5 -19.0 Q-2.95 -18.75 -4.05 -19.4 L-4.0 -20.65 -4.1 -21.95 -4.0 -22.0 0.35 -22.6 0.6 -22.65 1.0 -22.7 2.2 -22.9 7.7 -22.85 Q10.6 -22.25 14.75 -20.6 L20.75 -18.0 20.8 -17.95 20.5 -16.5 20.35 -15.85 M21.7 -9.55 L21.75 -10.8 Q22.55 -22.75 25.5 -22.75 26.8 -22.75 27.15 -21.55 L27.3 -18.85 Q27.35 -15.0 30.75 -15.0 L35.9 -15.6 41.0 -16.25 Q53.85 -16.25 60.1 -10.15 63.3 -7.05 64.0 -3.75 L65.3 -0.15 66.35 3.75 66.35 7.65 Q66.3 8.95 66.55 9.9 L63.75 9.5 63.45 9.5 63.5 7.5 63.35 3.85 Q63.25 1.55 62.75 0.3 62.0 -1.45 57.6 -6.75 56.5 -7.95 52.7 -10.25 L49.0 -12.35 Q34.85 -12.35 28.25 -10.9 24.15 -9.5 22.75 -9.5 L21.7 -9.55 M-22.55 -8.3 L-22.6 -8.0 -22.6 -7.65 -22.4 -4.55 Q-24.25 -3.1 -24.8 -3.1 -25.8 -3.1 -27.3 -1.95 -28.8 -0.7 -29.8 -0.5 L-29.4 -3.55 -29.4 -3.6 -29.4 -4.25 -27.55 -5.55 -27.5 -5.6 -26.9 -5.9 -25.9 -6.45 Q-25.4 -6.8 -24.85 -7.1 L-22.55 -8.3 M-20.95 -9.7 Q-19.65 -10.75 -17.45 -11.8 L-12.3 -13.8 -12.9 -10.4 -12.9 -10.35 -12.95 -9.35 -14.25 -8.65 -20.25 -5.45 Q-20.4 -7.85 -20.95 -9.7 M-6.6 -16.15 L-6.5 -15.85 -6.95 -12.15 Q-9.1 -11.0 -10.75 -11.0 L-10.95 -11.0 -10.9 -11.35 -10.7 -12.7 -10.6 -13.2 Q-10.55 -13.9 -10.65 -14.4 L-6.6 -16.15" fill="#969cab" fill-opacity="0.0" fill-rule="evenodd" stroke="none"/>
      <path d="M43.5 10.55 L43.2 20.3 Q43.25 23.55 43.75 25.1 L18.45 24.6 18.0 21.1 Q17.8 18.65 19.2 17.05 23.25 12.5 43.5 10.55 M-40.4 -3.0 L-32.35 -4.6 -31.15 -4.9 Q-31.7 -2.9 -31.85 -0.05 L-31.9 7.5 -31.65 16.05 -31.3 20.85 -30.55 24.0 -35.15 24.4 -43.4 24.75 Q-42.9 22.95 -43.95 20.9 L-45.4 17.55 -45.55 13.55 -45.4 10.25 Q-45.4 4.4 -44.9 1.05 -45.7 -0.5 -45.6 -1.1 -45.5 -2.05 -40.4 -3.0" fill="#731c02" fill-opacity="0.0" fill-rule="evenodd" stroke="none"/>
    </g>
  </defs>
</svg>
