<?xml version="1.0" encoding="UTF-8" standalone="no"?>
<svg xmlns:ffdec="https://www.free-decompiler.com/flash" xmlns:xlink="http://www.w3.org/1999/xlink" ffdec:objectType="frame" height="183.9px" width="273.25px" xmlns="http://www.w3.org/2000/svg">
  <g transform="matrix(1.0, 0.0, 0.0, 1.0, 127.65, 148.6)">
    <filter id="filter0">
      <feOffset dx="3.5355799791601" dy="3.535487832104965" in="SourceGraphic" result="filterResult0"/>
      <feColorMatrix in="filterResult0" result="filterResult1" type="matrix" values="0 0 0 0 0.0,0 0 0 0 0.0,0 0 0 0 0.0,0 0 0 1 0"/>
      <feColorMatrix in="filterResult1" result="filterResult2" type="matrix" values="1 0 0 0 0,0 1 0 0 0,0 0 1 0 0,0 0 0 0.296875 0"/>
    </filter>
    <use ffdec:characterId="309" filter="url(#filter0)" height="152.55" id="shadowMC" transform="matrix(1.0, 0.0, 0.0, -0.3, -127.65, 35.2782)" width="267.25" xlink:href="#sprite0"/>
    <use ffdec:characterId="304" height="35.35" transform="matrix(1.0, 0.0, 0.0, 1.0, -24.15, -34.6)" width="40.6" xlink:href="#shape6"/>
    <use ffdec:characterId="295" height="59.55" transform="matrix(1.0, 0.0, 0.0, 1.0, -36.85, -78.9)" width="80.5" xlink:href="#shape7"/>
    <use ffdec:characterId="198" height="55.8" transform="matrix(0.9928, 0.1088, -0.1088, 0.9928, -29.1663, -126.7084)" width="74.05" xlink:href="#shape2"/>
    <use ffdec:characterId="199" height="46.8" transform="matrix(0.8771, 0.4787, -0.4787, 0.8771, -42.0342, -79.4389)" width="25.3" xlink:href="#shape3"/>
    <use ffdec:characterId="200" height="100.35" transform="matrix(0.0, 1.0, -1.0, 0.0, 33.1, -52.5)" width="26.0" xlink:href="#shape5"/>
    <use ffdec:characterId="296" height="59.0" transform="matrix(1.0, 0.0, 0.0, 1.0, 30.5, -76.75)" width="21.9" xlink:href="#shape4"/>
  </g>
  <defs>
    <g id="sprite0" transform="matrix(1.0, 0.0, 0.0, 1.0, 121.65, 148.6)">
      <use ffdec:characterId="195" height="34.0" transform="matrix(1.0, 0.0, 0.0, 1.0, -28.5, -32.05)" width="46.45" xlink:href="#shape0"/>
      <use ffdec:characterId="295" height="59.55" transform="matrix(1.0, 0.0, 0.0, 1.0, -36.85, -76.55)" width="80.5" xlink:href="#shape1"/>
      <use ffdec:characterId="198" height="55.8" transform="matrix(0.9936, 0.1093, -0.1093, 0.9936, -29.2812, -126.2482)" width="74.05" xlink:href="#shape2"/>
      <use ffdec:characterId="199" height="46.8" transform="matrix(0.8771, 0.4787, -0.4787, 0.8771, -42.9342, -81.9889)" width="25.3" xlink:href="#shape3"/>
      <use ffdec:characterId="296" height="59.0" transform="matrix(1.0, 0.0, 0.0, 1.0, 30.45, -72.2)" width="21.9" xlink:href="#shape4"/>
      <use ffdec:characterId="200" height="100.35" transform="matrix(0.0, 1.0, -1.0, 0.0, 32.2, -55.05)" width="26.0" xlink:href="#shape5"/>
    </g>
    <g id="shape0" transform="matrix(1.0, 0.0, 0.0, 1.0, 29.45, 30.75)">
      <path d="M12.95 -26.5 Q12.9 -23.45 13.5 -20.7 13.9 -18.95 14.5 -17.65 14.4 -14.35 15.15 -10.65 16.0 -6.45 16.0 -4.15 L16.0 -2.5 16.2 -2.15 Q17.0 -0.8 17.0 0.1 L16.85 1.0 14.95 1.1 -1.0 1.75 Q-1.45 0.85 -2.25 0.25 L-2.1 0.1 -2.3 -0.65 -2.5 -2.2 Q-2.5 -7.45 -1.75 -12.35 L-2.0 -12.1 Q-3.15 -10.95 -10.25 -6.35 L-13.55 -3.65 Q-15.4 -2.4 -17.55 -2.05 -17.3 -0.3 -18.75 3.05 -19.45 3.55 -20.45 2.85 L-20.45 2.65 Q-22.7 1.9 -26.2 -0.7 -29.15 -3.65 -29.45 -8.95 -29.6 -12.5 -28.75 -14.35 L-28.7 -15.0 -28.6 -15.4 -28.85 -15.65 -28.6 -15.7 -28.15 -17.65 -26.9 -18.3 -26.3 -18.3 -24.75 -18.95 -22.7 -19.4 Q-19.2 -20.1 -17.0 -22.3 L-15.95 -22.65 Q-12.55 -25.45 -9.55 -26.65 -3.2 -29.1 1.3 -24.6 L1.55 -24.35 Q3.4 -28.25 5.9 -29.95 8.6 -31.75 10.8 -29.6 L12.95 -26.5 M9.0 -1.4 L10.65 -4.2 Q11.5 -5.55 13.6 -5.2 L13.5 -7.7 12.95 -11.05 Q12.55 -13.2 12.5 -14.45 L12.45 -16.6 11.75 -16.5 4.5 -15.45 4.45 -1.1 5.85 -1.1 9.0 -1.05 9.05 -1.05 9.35 -1.05 9.0 -1.4 M14.0 -0.95 L13.2 -2.85 10.5 -1.05 14.0 -0.95 M-12.4 -15.5 Q-13.25 -14.75 -18.35 -12.85 -23.95 -10.75 -26.75 -11.15 L-27.05 -9.25 Q-27.7 -5.3 -24.4 -1.9 L-24.15 -1.65 Q-23.2 -0.7 -20.4 0.9 -20.35 0.85 -20.25 0.95 L-20.2 0.4 Q-19.95 -1.05 -20.0 -1.9 L-21.65 -1.55 -24.15 -1.85 Q-24.25 -1.85 -24.35 -1.95 L-23.9 -2.7 -21.7 -4.1 Q-19.8 -4.7 -18.55 -3.65 L-18.0 -4.3 Q-17.55 -4.75 -16.05 -5.45 -14.7 -6.2 -14.2 -6.7 L-11.9 -8.3 Q-10.1 -9.5 -9.6 -10.0 L-7.65 -11.35 Q-9.0 -11.9 -10.45 -13.35 L-12.3 -15.4 -12.35 -15.55 -12.4 -15.5" fill="#000000" fill-rule="evenodd" stroke="none"/>
      <path d="M9.05 -1.05 L9.0 -1.05 5.85 -1.1 4.45 -1.1 4.5 -15.45 11.75 -16.5 12.45 -16.6 12.5 -14.45 Q12.55 -13.2 12.95 -11.05 L13.5 -7.7 13.6 -5.2 Q11.5 -5.55 10.65 -4.2 L9.0 -1.4 9.05 -1.05 M14.0 -0.95 L10.5 -1.05 13.2 -2.85 14.0 -0.95 M-24.4 -1.9 Q-27.7 -5.3 -27.05 -9.25 L-26.75 -11.15 Q-23.95 -10.75 -18.35 -12.85 -13.25 -14.75 -12.4 -15.5 L-12.3 -15.4 -10.45 -13.35 Q-9.0 -11.9 -7.65 -11.35 L-9.6 -10.0 Q-10.1 -9.5 -11.9 -8.3 L-14.2 -6.7 Q-14.7 -6.2 -16.05 -5.45 -17.55 -4.75 -18.0 -4.3 L-18.55 -3.65 Q-19.8 -4.7 -21.7 -4.1 L-23.9 -2.7 -24.35 -1.95 -24.4 -1.9 M-24.15 -1.85 L-21.65 -1.55 -20.0 -1.9 Q-19.95 -1.05 -20.2 0.4 L-20.4 0.9 Q-23.2 -0.7 -24.15 -1.65 L-24.15 -1.85" fill="#5b6171" fill-rule="evenodd" stroke="none"/>
    </g>
    <g id="shape1" transform="matrix(1.0, 0.0, 0.0, 1.0, 30.75, 21.75)">
      <path d="M18.35 -17.8 Q18.85 -17.9 18.5 -18.2 L24.95 -18.6 30.45 -18.7 30.75 -17.9 Q31.75 -15.3 31.75 -14.5 L31.75 -2.3 Q31.85 -0.35 32.3 1.25 L32.25 1.5 31.3 2.25 27.75 2.5 19.75 2.85 19.75 -10.95 Q19.05 -12.05 18.5 -14.9 L18.05 -16.7 18.6 -16.6 18.35 -17.8 M16.4 -17.0 L16.25 -16.2 Q16.25 -14.6 16.95 -10.95 L17.75 -5.7 17.6 -0.4 Q17.6 0.75 17.75 1.75 9.65 1.7 6.25 1.9 L6.25 -4.25 3.65 -13.3 2.1 -17.75 16.4 -17.0 M1.05 -14.7 Q2.3 -12.4 2.5 -10.0 L2.75 -9.25 3.25 -8.0 Q3.65 -6.65 3.9 -1.95 L4.3 1.4 4.0 1.4 2.0 1.7 -6.85 1.35 -11.25 1.5 -14.75 1.75 Q-14.9 -5.75 -16.25 -11.4 -17.5 -16.55 -19.6 -18.75 L-9.95 -19.1 -4.25 -19.2 -4.25 -19.35 -3.5 -19.2 -0.7 -19.25 -0.3 -17.55 Q0.65 -16.5 1.0 -15.0 L1.05 -14.7 M16.9 4.25 Q16.45 5.5 16.35 7.9 L-11.85 6.75 -15.15 6.55 -15.15 5.7 -15.15 4.25 -7.6 3.4 2.8 3.75 2.9 4.1 3.05 4.25 16.9 4.25 M16.25 10.35 L16.1 14.45 Q-3.45 14.65 -15.4 13.85 L-15.25 9.15 -15.2 8.8 -5.85 9.35 16.25 10.35 M-15.5 15.9 L-3.25 16.25 11.0 16.85 16.0 16.65 15.85 20.35 7.8 20.7 -1.6 21.0 -15.65 20.6 -15.5 16.2 -15.5 15.9 M-28.65 -13.8 Q-28.2 -16.4 -25.15 -18.4 -24.15 -18.15 -23.3 -17.75 -24.55 -17.15 -25.0 -15.05 L-25.25 -10.35 -25.45 -8.85 Q-25.55 -7.15 -25.15 -5.75 -24.45 -3.3 -22.4 -2.15 -23.55 -1.3 -23.8 1.9 L-28.45 2.2 -28.85 -2.1 Q-29.1 -5.5 -28.75 -7.95 -28.95 -12.0 -28.65 -13.8" fill="#5b6171" fill-rule="evenodd" stroke="none"/>
      <path d="M16.4 -17.0 L2.1 -17.75 3.65 -13.3 6.25 -4.25 6.25 1.9 Q9.65 1.7 17.75 1.75 17.6 0.75 17.6 -0.4 L17.75 -5.7 16.95 -10.95 Q16.25 -14.6 16.25 -16.2 L16.4 -17.0 M18.35 -17.8 L18.6 -16.6 18.05 -16.7 18.5 -14.9 Q19.05 -12.05 19.75 -10.95 L19.75 2.85 27.75 2.5 31.3 2.25 32.25 1.5 32.3 1.25 Q31.85 -0.35 31.75 -2.3 L31.75 -14.5 Q31.75 -15.3 30.75 -17.9 L30.45 -18.7 24.95 -18.6 18.5 -18.2 Q18.85 -17.9 18.35 -17.8 M14.75 -19.6 Q14.8 -20.4 15.05 -20.5 L17.65 -20.75 29.85 -20.75 30.0 -21.2 31.25 -20.75 31.8 -20.75 32.05 -20.6 32.25 -19.75 32.25 -19.65 Q33.45 -17.75 33.95 -13.55 36.6 -11.15 41.1 -7.9 43.35 -5.95 44.4 -3.8 46.7 -2.3 48.2 1.15 49.75 4.55 49.75 7.9 49.75 11.75 49.3 12.4 48.4 13.65 42.25 16.75 L41.5 16.5 Q40.05 18.25 37.75 18.25 31.05 18.25 29.5 13.85 L29.45 13.65 Q27.65 13.1 25.05 10.5 L24.35 9.75 24.0 9.9 22.85 10.15 22.75 10.75 Q22.25 15.25 22.25 18.25 L21.95 18.45 22.05 18.75 Q23.05 19.8 24.65 22.3 28.5 28.25 30.75 33.75 L30.65 33.95 30.75 34.75 30.6 35.45 Q30.4 35.45 30.3 35.75 L21.15 36.35 2.25 37.75 -8.2 37.8 Q-11.55 37.7 -12.25 37.05 -12.4 36.9 -17.6 37.0 L-22.75 37.15 -22.75 37.25 -23.75 37.75 Q-24.75 36.4 -24.75 35.0 L-24.0 30.95 -23.0 26.55 Q-22.75 23.95 -22.3 22.4 L-21.85 21.3 -22.7 20.75 -22.75 19.55 -22.55 19.5 -22.55 19.4 Q-23.5 18.45 -23.75 15.15 L-23.75 10.4 -23.9 4.15 -29.2 4.75 -29.25 4.75 -29.95 4.75 -30.1 4.5 -30.25 3.5 -30.2 2.7 -30.1 2.55 -30.6 -0.35 -30.75 -5.7 Q-30.75 -12.5 -30.2 -15.2 -28.9 -21.3 -24.95 -20.25 L-24.0 -20.45 -23.95 -20.5 -19.25 -21.0 -16.85 -21.2 -0.45 -21.25 0.25 -21.75 1.05 -20.2 5.95 -20.15 12.75 -19.75 14.75 -19.6 M1.05 -14.7 L1.0 -15.0 Q0.65 -16.5 -0.3 -17.55 L-0.7 -19.25 -3.5 -19.2 -4.25 -19.35 -4.25 -19.2 -9.95 -19.1 -19.6 -18.75 Q-17.5 -16.55 -16.25 -11.4 -14.9 -5.75 -14.75 1.75 L-11.25 1.5 -6.85 1.35 2.0 1.7 4.0 1.4 4.3 1.4 3.9 -1.95 Q3.65 -6.65 3.25 -8.0 L2.75 -9.25 2.5 -10.0 Q2.3 -12.4 1.05 -14.7 M35.5 -0.35 Q37.35 -0.55 39.1 0.15 40.6 0.45 41.8 1.3 41.9 0.55 42.8 -0.25 L43.2 -0.55 Q42.8 -3.7 37.75 -7.8 L34.15 -10.95 34.25 -1.6 34.25 -0.15 35.5 -0.35 M45.25 2.25 L44.95 2.2 44.25 4.05 43.65 4.2 43.75 6.15 Q43.75 10.35 43.25 12.55 L42.75 14.25 44.5 13.05 Q47.75 10.9 47.75 8.25 47.75 6.2 45.65 2.1 L45.55 1.95 45.25 2.25 M41.75 6.5 L41.05 4.55 40.25 3.05 39.65 2.65 Q39.0 2.0 38.55 2.0 L35.3 2.3 34.15 2.65 34.05 3.3 33.25 3.75 33.25 3.7 33.1 3.95 Q32.9 3.95 32.8 4.25 L32.35 4.25 32.05 4.75 Q31.25 6.25 31.25 9.25 31.25 11.4 31.5 12.6 L31.75 12.75 31.65 13.0 31.75 13.3 Q33.0 16.0 37.4 16.0 40.2 16.0 41.25 11.25 L41.75 6.5 M27.25 4.75 L24.75 4.75 24.3 5.2 24.35 5.2 24.3 5.5 24.15 5.6 23.95 6.25 24.85 7.1 25.8 8.5 28.45 10.25 29.05 10.7 29.25 9.1 Q29.25 6.2 29.9 4.4 L27.25 4.75 M22.2 4.75 L22.25 4.8 22.25 4.75 22.2 4.75 M16.35 7.9 L20.95 7.9 21.0 7.55 21.1 4.75 18.55 4.75 18.4 4.6 Q18.25 4.4 18.25 3.8 L17.75 4.25 16.9 4.25 3.05 4.25 2.9 4.1 2.8 3.75 -7.6 3.4 -15.15 4.25 -15.2 4.3 -16.25 4.75 Q-17.35 2.6 -17.15 -1.25 L-18.0 -1.25 -20.25 -1.45 Q-20.4 -0.7 -21.2 0.9 L-21.4 1.4 -21.55 6.55 Q-19.55 6.3 -15.15 6.55 L-11.85 6.75 16.35 7.9 M23.25 34.4 L28.95 33.85 Q26.95 31.4 23.9 26.4 L21.05 21.5 20.25 21.75 17.35 22.4 12.75 22.85 -1.5 23.25 -12.25 22.85 -15.8 22.65 -16.95 22.5 -18.95 22.0 -19.3 21.95 Q-19.65 23.4 -21.75 29.3 -22.5 31.5 -22.65 34.8 L-17.25 34.85 -14.1 34.9 2.15 35.5 Q12.55 35.5 17.1 35.15 L18.5 35.0 18.65 34.95 18.85 34.95 23.25 34.4 M16.1 14.45 L20.25 14.4 Q20.25 12.9 20.6 10.3 L17.75 10.35 16.25 10.35 -5.85 9.35 -15.2 8.8 -21.65 8.45 -21.75 10.15 -21.5 13.45 -18.2 13.65 -15.4 13.85 Q-3.45 14.65 16.1 14.45 M16.0 16.65 L11.0 16.85 -3.25 16.25 -15.5 15.9 -20.0 15.9 -20.75 16.35 -21.15 16.2 -20.8 18.65 -20.2 19.3 -18.9 19.5 -18.2 20.15 -15.65 20.6 -1.6 21.0 7.8 20.7 15.85 20.35 16.75 20.25 19.55 19.5 19.5 18.55 19.5 18.5 Q20.25 17.75 20.25 16.4 L16.0 16.65 M-28.65 -13.8 Q-28.95 -12.0 -28.75 -7.95 -29.1 -5.5 -28.85 -2.1 L-28.45 2.2 -23.8 1.9 Q-23.55 -1.3 -22.4 -2.15 -24.45 -3.3 -25.15 -5.75 -25.55 -7.15 -25.45 -8.85 L-25.25 -10.35 -25.0 -15.05 Q-24.55 -17.15 -23.3 -17.75 -24.15 -18.15 -25.15 -18.4 -28.2 -16.4 -28.65 -13.8" fill="#000000" fill-rule="evenodd" stroke="none"/>
      <path d="M45.65 2.1 Q47.75 6.2 47.75 8.25 47.75 10.9 44.5 13.05 L42.75 14.25 43.25 12.55 Q43.75 10.35 43.75 6.15 L43.65 4.2 44.25 4.05 44.95 2.2 45.25 2.25 45.65 2.1 M41.75 6.5 L41.25 11.25 Q40.2 16.0 37.4 16.0 33.0 16.0 31.75 13.3 L31.65 13.0 31.75 12.75 31.5 12.6 Q31.25 11.4 31.25 9.25 31.25 6.25 32.05 4.75 L32.35 4.25 32.8 4.25 Q32.9 3.95 33.1 3.95 L33.25 3.7 33.25 3.75 34.05 3.3 34.15 2.65 35.3 2.3 38.55 2.0 Q39.0 2.0 39.65 2.65 L40.25 3.05 41.05 4.55 41.75 6.5" fill="#aa8a71" fill-rule="evenodd" stroke="none"/>
      <path d="M16.9 4.25 L17.75 4.25 18.25 3.8 Q18.25 4.4 18.4 4.6 L18.55 4.75 21.1 4.75 21.0 7.55 20.95 7.9 16.35 7.9 Q16.45 5.5 16.9 4.25 M-15.15 6.55 Q-19.55 6.3 -21.55 6.55 L-21.4 1.4 -21.2 0.9 Q-20.4 -0.7 -20.25 -1.45 L-18.0 -1.25 -17.15 -1.25 Q-17.35 2.6 -16.25 4.75 L-15.2 4.3 -15.15 4.25 -15.15 5.7 -15.15 6.55 M16.25 10.35 L17.75 10.35 20.6 10.3 Q20.25 12.9 20.25 14.4 L16.1 14.45 16.25 10.35 M-15.4 13.85 L-18.2 13.65 -21.5 13.45 -21.75 10.15 -21.65 8.45 -15.2 8.8 -15.25 9.15 -15.4 13.85 M16.0 16.65 L20.25 16.4 Q20.25 17.75 19.5 18.5 L19.5 18.55 19.55 19.5 16.75 20.25 15.85 20.35 16.0 16.65 M-15.65 20.6 L-18.2 20.15 -18.9 19.5 -20.2 19.3 -20.8 18.65 -21.15 16.2 -20.75 16.35 -20.0 15.9 -15.5 15.9 -15.5 16.2 -15.65 20.6" fill="#969cab" fill-rule="evenodd" stroke="none"/>
      <path d="M17.35 22.4 L20.25 21.75 21.05 21.5 23.9 26.4 Q26.95 31.4 28.95 33.85 L23.25 34.4 20.5 28.55 17.35 22.4 M-17.25 34.85 L-22.65 34.8 Q-22.5 31.5 -21.75 29.3 -19.65 23.4 -19.3 21.95 L-18.95 22.0 -16.95 22.5 -15.8 22.65 Q-16.25 23.3 -16.5 24.35 -16.95 26.3 -17.25 29.85 L-17.25 34.85" fill="#942403" fill-rule="evenodd" stroke="none"/>
      <path d="M35.5 -0.35 L34.25 -0.15 34.25 -1.6 34.15 -10.95 37.75 -7.8 Q42.8 -3.7 43.2 -0.55 L42.8 -0.25 Q41.9 0.55 41.8 1.3 40.6 0.45 39.1 0.15 37.35 -0.55 35.5 -0.35 M27.25 4.75 L29.9 4.4 Q29.25 6.2 29.25 9.1 L29.05 10.7 28.45 10.25 25.8 8.5 24.85 7.1 23.95 6.25 24.15 5.6 24.3 5.5 24.35 5.2 24.3 5.2 24.75 4.75 27.25 4.75 M17.35 22.4 L20.5 28.55 23.25 34.4 18.85 34.95 18.65 34.95 18.5 35.0 17.1 35.15 Q12.55 35.5 2.15 35.5 L-14.1 34.9 -17.25 34.85 -17.25 29.85 Q-16.95 26.3 -16.5 24.35 -16.25 23.3 -15.8 22.65 L-12.25 22.85 -1.5 23.25 12.75 22.85 17.35 22.4" fill="#731c02" fill-rule="evenodd" stroke="none"/>
    </g>
    <g id="shape2" transform="matrix(1.0, 0.0, 0.0, 1.0, 34.55, 27.9)">
      <path d="M3.8 -25.15 L7.85 -25.35 Q24.65 -25.35 30.15 -11.35 31.75 -7.3 32.3 -2.85 L34.65 -1.45 36.2 0.35 Q37.5 1.3 37.5 2.1 L37.4 2.95 37.3 3.0 35.3 3.0 32.15 -0.15 Q29.5 -2.6 28.1 -3.25 L26.55 -8.95 Q21.75 -21.95 7.35 -21.95 -3.45 -21.95 -9.9 -14.5 -15.7 -7.8 -16.25 2.45 L-16.3 8.55 -16.25 14.7 Q-16.25 17.15 -16.65 17.75 -17.7 19.5 -22.15 20.5 -22.85 20.65 -27.25 23.15 L-31.8 23.15 -31.9 22.95 -32.0 22.8 -32.05 22.25 -32.05 22.15 Q-32.05 21.1 -26.25 18.75 L-20.3 16.4 -20.5 15.95 -20.55 15.9 -20.05 15.7 -20.0 15.45 -19.95 15.25 -19.95 14.9 -19.8 12.85 -19.75 12.15 -19.4 7.0 -19.3 5.35 -19.3 5.15 -19.3 5.1 -19.3 4.95 -19.3 4.85 -19.3 4.8 -19.3 4.7 -19.3 4.65 -19.35 1.25 -19.4 0.85 -19.45 0.45 -19.45 0.4 -19.4 -0.35 -18.05 -5.75 -18.85 -4.8 Q-17.8 -9.75 -15.9 -13.4 L-15.85 -13.45 -14.95 -14.45 -13.85 -16.6 -13.8 -16.65 -13.4 -17.2 -12.65 -18.05 Q-8.45 -22.6 -1.55 -24.3 L0.7 -24.7 3.8 -25.15" fill="#969cab" fill-rule="evenodd" stroke="none"/>
      <path d="M35.3 3.0 L37.3 3.0 37.4 2.95 37.5 2.1 Q37.5 1.3 36.2 0.35 L34.65 -1.45 32.3 -2.85 Q31.75 -7.3 30.15 -11.35 24.65 -25.35 7.85 -25.35 L3.8 -25.15 -1.55 -24.3 Q-8.45 -22.6 -12.65 -18.05 L-13.4 -17.2 -13.8 -16.65 -13.85 -16.6 Q-14.95 -15.2 -15.85 -13.45 L-15.9 -13.4 Q-17.8 -9.75 -18.85 -4.8 L-19.6 -0.2 -19.45 0.4 -19.45 0.45 -19.4 0.85 -19.35 1.25 -19.3 4.65 -19.3 4.7 -19.3 4.8 -19.3 4.85 -19.3 4.95 -19.3 5.1 -19.3 5.15 -19.3 5.35 -19.4 7.0 -19.75 12.15 -19.8 12.85 -19.95 14.9 -19.95 15.25 -20.0 15.45 -20.05 15.7 -20.55 15.9 -20.5 15.95 -20.3 16.4 -26.25 18.75 Q-32.05 21.1 -32.05 22.15 L-32.05 22.25 -32.0 22.8 -31.9 22.95 -31.8 23.15 -27.25 23.15 -14.0 23.15 Q-8.0 23.1 -6.8 14.8 L-6.05 8.2 Q-5.65 5.35 -4.75 4.0 L-4.8 3.3 -4.9 2.8 -1.85 2.45 Q4.35 2.25 29.6 2.85 L30.95 2.9 31.0 2.85 31.35 2.75 32.05 2.6 32.05 3.05 35.3 3.0 M35.25 -3.45 L37.25 -1.6 38.8 0.45 Q39.5 1.75 39.5 2.4 39.5 3.8 38.95 4.15 37.3 5.3 30.7 5.5 L31.15 8.35 31.2 13.75 31.5 16.6 Q31.65 19.0 31.2 20.7 29.8 25.9 22.2 25.9 L19.15 25.7 Q17.15 27.9 10.45 27.9 1.05 27.9 -0.3 25.65 L-0.6 24.9 -0.8 24.9 Q-3.15 24.9 -4.9 23.7 -4.9 24.05 -5.35 24.3 -7.45 25.4 -23.3 25.4 -32.0 25.4 -34.0 23.8 -34.65 23.3 -34.55 22.65 L-34.3 22.05 Q-34.3 20.75 -30.0 18.15 -25.45 15.4 -22.55 15.4 L-22.1 15.4 -22.2 15.25 -22.25 15.1 -22.3 13.9 Q-22.55 8.05 -22.4 5.05 -22.25 2.05 -21.6 0.35 L-21.8 -0.85 Q-21.8 -3.7 -20.2 -8.2 -18.1 -14.05 -14.45 -18.45 -3.85 -31.1 15.25 -26.85 27.25 -22.45 31.2 -12.85 32.6 -9.4 33.6 -3.95 L35.25 -3.45 M28.8 4.9 L28.7 4.9 28.7 5.3 28.8 4.9 M29.2 14.7 L29.35 12.4 Q22.15 12.45 17.05 14.1 L15.65 14.7 19.5 15.15 19.7 21.15 20.0 22.65 20.05 23.25 20.4 23.35 20.7 23.7 Q28.2 23.7 29.2 14.7 M17.8 9.75 L18.7 9.9 Q19.95 9.9 19.75 9.65 L20.05 9.2 20.2 8.15 20.1 7.05 20.0 6.65 18.05 6.55 17.65 6.6 17.2 6.55 17.2 6.65 17.2 9.65 17.25 9.9 17.8 9.75 M1.2 9.05 L1.2 14.25 Q1.2 19.0 1.35 20.35 1.85 24.1 3.75 25.65 L17.7 25.65 17.7 17.4 17.5 16.95 Q11.7 18.55 10.15 14.05 9.7 12.7 9.7 8.0 L9.75 5.4 9.85 4.7 1.1 4.5 0.95 4.95 0.9 5.0 1.2 9.05" fill="#000000" fill-rule="evenodd" stroke="none"/>
      <path d="M3.8 -25.15 L0.7 -24.7 -1.55 -24.3 3.8 -25.15 M-13.85 -16.6 L-14.95 -14.45 -15.85 -13.45 Q-14.95 -15.2 -13.85 -16.6 M-18.85 -4.8 L-18.05 -5.75 -19.4 -0.35 -19.45 0.4 -19.6 -0.2 -18.85 -4.8 M-27.25 23.15 Q-22.85 20.65 -22.15 20.5 -17.7 19.5 -16.65 17.75 -16.25 17.15 -16.25 14.7 L-16.3 8.55 -16.25 2.45 Q-15.7 -7.8 -9.9 -14.5 -3.45 -21.95 7.35 -21.95 21.75 -21.95 26.55 -8.95 L28.1 -3.25 Q29.5 -2.6 32.15 -0.15 L35.3 3.0 32.05 3.05 32.05 2.6 31.35 2.75 31.0 2.85 30.95 2.9 29.6 2.85 Q4.35 2.25 -1.85 2.45 L-4.9 2.8 -4.8 3.3 -4.75 4.0 Q-5.65 5.35 -6.05 8.2 L-6.8 14.8 Q-8.0 23.1 -14.0 23.15 L-27.25 23.15 M1.2 9.05 L0.9 5.0 0.95 4.95 1.1 4.5 9.85 4.7 9.75 5.4 9.7 8.0 Q9.7 12.7 10.15 14.05 11.7 18.55 17.5 16.95 L17.7 17.4 17.7 25.65 3.75 25.65 Q1.85 24.1 1.35 20.35 1.2 19.0 1.2 14.25 L1.2 9.05" fill="#5b6171" fill-rule="evenodd" stroke="none"/>
      <path d="M29.2 14.7 Q28.2 23.7 20.7 23.7 L20.4 23.35 20.05 23.25 20.0 22.65 19.7 21.15 19.5 15.15 15.65 14.7 17.05 14.1 Q22.15 12.45 29.35 12.4 L29.2 14.7" fill="#aa8a71" fill-rule="evenodd" stroke="none"/>
      <path d="M17.65 6.6 L18.05 6.55 20.0 6.65 20.1 7.05 20.2 8.15 20.05 9.2 19.75 9.65 Q19.95 9.9 18.7 9.9 L17.8 9.75 17.2 9.65 17.2 6.65 17.65 6.6" fill="#ffffff" fill-rule="evenodd" stroke="none"/>
    </g>
    <g id="shape3" transform="matrix(1.0, 0.0, 0.0, 1.0, 12.05, 21.8)">
      <path d="M13.25 -13.55 Q13.25 -9.25 11.1 -3.95 L7.35 4.15 Q6.25 4.3 5.85 5.3 L5.2 5.1 8.15 9.4 Q12.4 15.8 12.4 17.3 12.4 18.05 10.25 19.8 6.9 22.5 0.3 24.6 L-0.45 24.9 -1.75 25.0 Q-4.4 25.0 -8.2 15.75 -11.65 7.4 -11.65 4.7 L-11.6 4.35 -12.05 4.1 -11.45 1.2 Q-10.3 -3.85 -9.15 -5.75 L-9.55 -6.1 -9.7 -5.95 -10.25 -5.7 Q-11.25 -6.9 -11.25 -7.35 -11.25 -9.65 -7.45 -13.65 -4.1 -17.2 -0.95 -18.95 7.85 -23.95 11.35 -20.15 13.25 -18.05 13.25 -13.55 M9.5 -19.15 Q4.55 -19.15 2.05 -17.9 0.45 -17.1 -4.0 -13.15 L-7.2 -9.55 -8.55 -7.55 -7.55 -6.95 -7.45 -6.95 -7.45 -6.9 -7.05 -6.55 Q-3.65 -3.2 -2.2 -2.45 2.85 0.95 5.8 3.25 L8.25 -3.3 Q11.25 -10.95 11.25 -13.45 10.5 -19.15 9.5 -19.15 M1.85 4.25 L2.25 3.65 -1.3 0.95 -7.55 -4.35 -9.25 1.35 -9.55 2.4 Q-9.15 3.7 -9.05 5.85 L-9.05 6.9 Q-9.05 8.55 -5.8 15.55 -2.45 22.8 -1.2 22.8 1.15 22.6 10.0 16.4 L2.45 5.15 1.85 4.25" fill="#000000" fill-rule="evenodd" stroke="none"/>
      <path d="M1.85 4.25 L2.45 5.15 10.0 16.4 Q1.15 22.6 -1.2 22.8 -2.45 22.8 -5.8 15.55 -9.05 8.55 -9.05 6.9 L-9.05 5.85 Q-9.15 3.7 -9.55 2.4 L-9.25 1.35 -7.55 -4.35 -1.3 0.95 2.25 3.65 1.85 4.25" fill="#aa8a71" fill-rule="evenodd" stroke="none"/>
      <path d="M9.5 -19.15 Q10.5 -19.15 11.25 -13.45 11.25 -10.95 8.25 -3.3 L5.8 3.25 Q2.85 0.95 -2.2 -2.45 -3.65 -3.2 -7.05 -6.55 L-7.45 -6.9 -7.45 -6.95 -7.55 -6.95 -8.55 -7.55 -7.2 -9.55 -4.0 -13.15 Q0.45 -17.1 2.05 -17.9 4.55 -19.15 9.5 -19.15" fill="#942403" fill-rule="evenodd" stroke="none"/>
    </g>
    <g id="shape4" transform="matrix(1.0, 0.0, 0.0, 1.0, 12.75, 30.25)">
      <path d="M1.95 -22.1 L4.15 -22.05 6.9 -21.75 Q6.95 -25.9 7.45 -28.15 L6.25 -28.1 3.4 -27.75 1.95 -27.75 -10.95 -27.75 -10.75 -26.3 -10.6 -23.9 -10.6 26.45 Q-10.05 26.2 -9.35 26.1 L-1.05 25.85 2.55 25.95 7.05 26.2 Q6.75 24.5 6.75 22.0 L6.75 20.25 2.45 20.25 -3.2 20.25 -3.2 20.35 -4.9 20.2 Q-5.25 19.5 -5.25 18.6 L-5.1 15.75 -5.1 -11.25 Q-5.0 -13.0 -5.25 -16.9 -5.25 -20.25 -4.1 -21.75 L-3.95 -21.55 -1.5 -21.95 1.4 -22.0 1.95 -22.1 M7.65 -30.25 L7.7 -30.1 Q8.25 -29.1 9.1 -28.55 L9.15 -28.35 9.05 -28.25 8.45 -28.2 8.75 -26.3 8.9 -23.9 8.9 26.95 7.9 28.75 7.6 28.25 -4.1 28.5 -11.1 28.75 -11.55 28.75 -11.6 28.75 -11.9 28.6 -12.1 28.15 -12.05 27.95 Q-12.75 26.1 -12.75 22.0 L-12.6 14.5 -12.6 1.0 -12.5 -13.1 -12.4 -16.1 -12.5 -16.7 -12.6 -20.75 Q-12.6 -25.25 -12.15 -27.75 L-12.2 -27.75 -12.4 -27.85 Q-12.6 -28.0 -12.6 -28.75 L-12.7 -29.0 -11.7 -29.4 -11.6 -29.75 -11.45 -29.45 3.9 -30.0 7.65 -30.25 M2.0 18.25 L6.8 18.25 6.9 14.5 6.9 1.0 7.0 -13.1 7.1 -16.1 7.0 -16.7 6.9 -19.75 1.1 -19.75 -3.05 -19.75 -3.25 -19.75 -3.2 -19.45 Q-2.95 -18.2 -2.95 -16.6 L-3.1 -11.0 Q-3.0 -8.9 -3.05 -4.85 L-3.1 -0.3 -3.15 18.5 2.0 18.25" fill="#000000" fill-rule="evenodd" stroke="none"/>
      <path d="M2.0 17.8 L2.0 18.25 2.0 17.8 M-3.2 -19.45 L-3.25 -19.75 -3.05 -19.75 -3.2 -19.45" fill="#b98d4d" fill-rule="evenodd" stroke="none"/>
      <path d="M-3.05 -19.75 L-3.2 -19.45 -3.05 -19.75" fill="#99743c" fill-rule="evenodd" stroke="none"/>
      <path d="M1.1 -19.75 L1.7 -2.3 2.0 10.3 2.0 17.8 2.0 18.25 -3.15 18.5 -3.1 -0.3 -3.05 -4.85 Q-3.0 -8.9 -3.1 -11.0 L-2.95 -16.6 Q-2.95 -18.2 -3.2 -19.45 L-3.05 -19.75 1.1 -19.75" fill="#8e6c24" fill-rule="evenodd" stroke="none"/>
      <path d="M1.1 -19.75 L6.9 -19.75 7.0 -16.7 7.1 -16.1 7.0 -13.1 6.9 1.0 6.9 14.5 6.8 18.25 2.0 18.25 2.0 17.8 2.0 10.3 1.7 -2.3 1.1 -19.75" fill="#cc9d3c" fill-rule="evenodd" stroke="none"/>
      <path d="M1.95 -27.75 L3.4 -27.75 6.25 -28.1 7.45 -28.15 Q6.95 -25.9 6.9 -21.75 L4.15 -22.05 1.95 -22.1 2.0 -25.05 1.95 -27.7 1.95 -27.75 M2.45 20.25 L6.75 20.25 6.75 22.0 Q6.75 24.5 7.05 26.2 L2.55 25.95 2.5 23.1 2.45 20.25" fill="#942403" fill-rule="evenodd" stroke="none"/>
      <path d="M1.95 -27.75 L1.95 -27.7 2.0 -25.05 1.95 -22.1 1.4 -22.0 -1.5 -21.95 -3.95 -21.55 -4.1 -21.75 Q-5.25 -20.25 -5.25 -16.9 -5.0 -13.0 -5.1 -11.25 L-5.1 15.75 -5.25 18.6 Q-5.25 19.5 -4.9 20.2 L-3.2 20.35 -3.2 20.25 2.45 20.25 2.5 23.1 2.55 25.95 -1.05 25.85 -9.35 26.1 Q-10.05 26.2 -10.6 26.45 L-10.6 -23.9 -10.75 -26.3 -10.95 -27.75 1.95 -27.75" fill="#731c02" fill-rule="evenodd" stroke="none"/>
    </g>
    <g id="shape5" transform="matrix(1.0, 0.0, 0.0, 1.0, 14.5, 74.85)">
      <path d="M-1.55 -53.25 L-1.85 -46.5 -1.85 -46.15 -2.0 -42.25 -2.05 -34.65 -1.85 -29.2 -1.8 -28.4 -1.5 -25.1 -1.5 -24.6 -1.5 -24.35 Q-1.5 -22.85 0.0 -20.6 2.1 -17.5 5.5 -17.5 L6.1 -17.55 8.0 -17.2 8.0 -18.15 8.0 -18.4 8.0 -18.5 8.0 -18.55 7.9 -20.5 7.6 -24.9 7.4 -32.7 7.4 -35.2 7.15 -40.5 7.1 -41.05 6.5 -48.2 5.55 -56.05 5.05 -58.3 Q3.15 -65.4 -1.0 -70.85 L-1.0 -68.05 Q-1.0 -65.7 -1.55 -53.25 M1.8 -70.8 L2.6 -69.45 Q3.4 -67.35 3.9 -66.6 L5.7 -63.05 Q6.85 -60.65 7.0 -59.1 8.3 -48.65 8.45 -43.85 10.2 -19.15 10.2 -13.3 L10.15 -10.7 10.25 -10.7 10.6 -11.15 Q11.25 -10.35 11.45 -8.15 L11.5 -5.2 Q11.5 -2.35 11.0 -0.45 L10.9 1.1 10.35 1.35 9.0 2.95 Q7.3 4.0 0.45 4.0 L-9.2 3.35 Q-13.4 2.35 -14.5 -0.6 L-14.5 -10.35 -14.3 -10.55 -13.65 -10.7 -13.65 -53.7 Q-12.4 -63.95 -5.85 -70.9 L-2.2 -74.6 -2.2 -74.65 -2.15 -74.65 -1.95 -74.85 -1.3 -74.65 -1.15 -74.4 Q-0.7 -74.3 -0.2 -74.0 L1.8 -70.8 M4.5 -10.75 L8.5 -10.7 Q8.0 -11.75 7.95 -13.1 L7.95 -15.2 7.0 -15.0 Q2.1 -15.0 -0.85 -18.5 L-1.15 -18.85 -1.75 -19.95 Q-2.35 -18.9 -4.2 -17.45 -6.35 -15.75 -8.0 -15.0 L-11.45 -15.0 -11.5 -15.75 -11.65 -15.7 -11.65 -14.95 -11.65 -13.5 -11.75 -10.5 -11.75 -10.4 -8.15 -10.6 -8.15 -10.45 -8.15 -10.4 Q-5.05 -10.7 4.5 -10.65 L4.55 -10.65 4.5 -10.75 M9.5 -9.0 L-12.7 -9.0 -12.8 -6.7 -1.5 -6.8 4.8 -6.75 9.4 -6.7 9.55 -7.25 9.5 -7.35 9.5 -9.0 M9.3 -3.35 L9.3 -4.95 4.4 -4.75 -1.3 -4.65 -7.0 -4.8 -12.85 -5.05 -13.0 -3.2 Q-13.1 -1.7 -12.3 -0.75 -10.05 2.05 0.45 2.05 7.3 2.05 9.45 -0.2 L9.35 -0.7 9.3 -3.35 M-3.45 -70.35 L-3.4 -70.45 -3.45 -70.4 -3.45 -70.35 -4.2 -69.45 -6.7 -66.6 -6.95 -66.65 -8.9 -63.0 -10.5 -59.45 Q-11.4 -57.15 -11.5 -55.55 L-11.55 -54.2 -11.9 -41.1 -11.9 -40.6 -11.9 -40.35 -11.9 -40.25 -11.9 -40.15 -11.8 -32.8 -11.75 -25.55 -11.75 -25.5 -11.65 -21.3 -11.65 -16.6 -11.65 -16.5 -11.5 -16.5 -9.65 -17.25 Q-7.45 -17.95 -6.3 -18.7 L-6.25 -18.95 -6.2 -18.95 -6.15 -19.25 -4.85 -20.15 Q-4.0 -20.95 -4.0 -22.25 L-4.1 -23.15 -4.0 -23.3 -4.0 -26.9 -4.0 -31.4 -4.0 -35.4 -3.95 -38.3 -3.75 -47.95 -3.5 -55.1 Q-3.4 -57.5 -3.65 -62.35 L-3.8 -64.85 -3.85 -65.15 Q-3.85 -68.1 -3.45 -70.35 M-1.7 -72.7 L-1.75 -72.65 -1.5 -72.45 -1.45 -72.45 -1.7 -72.7 M-0.8 12.65 L0.8 12.75 Q3.1 13.05 4.9 14.35 7.45 16.2 7.45 19.3 7.45 22.0 6.7 23.15 5.1 25.5 -0.15 25.5 -7.2 25.5 -8.8 22.65 -9.3 21.75 -9.25 20.6 L-9.0 19.65 Q-9.0 16.3 -6.45 14.4 -4.7 13.05 -2.35 12.75 L-0.8 12.65 M-6.4 22.15 Q-4.85 23.55 -0.35 23.55 4.35 23.55 5.5 21.5 6.05 20.45 5.7 19.65 5.7 16.95 3.0 15.6 1.15 14.75 -0.8 14.75 -5.15 14.75 -6.6 16.7 -7.3 17.65 -7.3 19.65 -7.3 21.3 -6.4 22.15" fill="#000000" fill-rule="evenodd" stroke="none"/>
      <path d="M9.3 -3.35 L9.35 -0.7 9.45 -0.2 Q7.3 2.05 0.45 2.05 -10.05 2.05 -12.3 -0.75 -13.1 -1.7 -13.0 -3.2 L-12.85 -5.05 -7.0 -4.8 -1.3 -4.65 4.4 -4.75 9.3 -4.95 9.3 -3.35 M-6.4 22.15 Q-7.3 21.3 -7.3 19.65 -7.3 17.65 -6.6 16.7 -5.15 14.75 -0.8 14.75 1.15 14.75 3.0 15.6 5.7 16.95 5.7 19.65 6.05 20.45 5.5 21.5 4.35 23.55 -0.35 23.55 -4.85 23.55 -6.4 22.15" fill="#8e6c24" fill-rule="evenodd" stroke="none"/>
      <path d="M9.5 -9.0 L9.5 -7.35 9.55 -7.25 9.4 -6.7 4.8 -6.75 -1.5 -6.8 -12.8 -6.7 -12.7 -9.0 9.5 -9.0" fill="#cc9d3c" fill-rule="evenodd" stroke="none"/>
      <path d="M-11.45 -15.0 L-11.45 -14.95 -11.2 -13.5 -11.5 -13.5 -11.65 -13.5 -11.65 -14.95 -11.45 -15.0 M4.5 -10.65 L4.5 -10.75 4.55 -10.65 4.5 -10.65 M-3.45 -70.35 L-3.45 -70.4 -3.4 -70.45 -3.45 -70.35 M-11.5 -16.5 L-11.65 -16.5 -11.65 -16.6 -11.45 -16.7 -11.5 -16.5" fill="#60606c" fill-rule="evenodd" stroke="none"/>
      <path d="M-11.65 -14.95 L-11.65 -15.7 -11.5 -15.75 -11.45 -15.0 -11.65 -14.95" fill="#a9a9b1" fill-rule="evenodd" stroke="none"/>
      <path d="M-1.55 -53.25 L3.0 -57.0 5.05 -58.3 5.55 -56.05 6.5 -48.2 5.5 -47.35 0.7 -43.8 -2.0 -41.95 -2.0 -42.25 -1.85 -46.15 -1.85 -46.5 -1.55 -53.25 M7.1 -41.05 L7.15 -40.5 7.4 -35.2 4.3 -32.75 -1.8 -28.4 -1.85 -29.2 -2.05 -34.65 0.5 -36.6 Q4.75 -39.8 7.1 -41.05 M-3.65 -62.35 Q-3.4 -57.5 -3.5 -55.1 L-3.75 -47.95 -8.0 -44.8 -11.9 -41.1 -11.55 -54.2 -8.85 -56.35 Q-5.1 -59.5 -3.65 -61.55 L-3.65 -62.35 M-3.95 -38.3 L-4.0 -35.4 -4.0 -31.4 -4.05 -31.4 -7.1 -29.5 -11.75 -25.55 -11.8 -32.8 -3.95 -38.3 M-4.0 -26.9 L-4.0 -23.3 -4.1 -23.15 -4.0 -22.25 Q-4.0 -20.95 -4.85 -20.15 L-6.15 -19.25 -6.2 -18.95 -6.25 -18.95 -6.3 -18.7 Q-7.45 -17.95 -9.65 -17.25 L-11.5 -16.5 -11.45 -16.7 -11.65 -16.6 -11.65 -21.3 -6.4 -25.1 -4.0 -26.9" fill="#a7b9be" fill-rule="evenodd" stroke="none"/>
      <path d="M-11.45 -15.0 L-8.0 -15.0 Q-6.35 -15.75 -4.2 -17.45 -2.35 -18.9 -1.75 -19.95 L-1.15 -18.85 -0.85 -18.5 Q2.1 -15.0 7.0 -15.0 L7.95 -15.2 7.95 -13.1 Q8.0 -11.75 8.5 -10.7 L4.5 -10.75 4.5 -10.65 Q-5.05 -10.7 -8.15 -10.4 L-8.15 -10.45 -8.15 -10.6 -11.75 -10.4 -11.75 -10.5 -11.65 -13.5 -11.5 -13.5 -11.2 -13.5 -11.45 -14.95 -11.45 -15.0 M-3.45 -70.35 Q-3.85 -68.1 -3.85 -65.15 L-3.8 -64.85 -3.65 -62.35 -3.65 -61.55 Q-5.1 -59.5 -8.85 -56.35 L-11.55 -54.2 -11.5 -55.55 Q-11.4 -57.15 -10.5 -59.45 L-8.9 -63.0 -6.95 -66.65 -6.7 -66.6 -4.2 -69.45 -3.45 -70.35 M-3.75 -47.95 L-3.95 -38.3 -11.8 -32.8 -11.9 -40.15 -11.9 -40.25 -11.9 -40.35 -11.9 -40.6 -11.9 -41.1 -8.0 -44.8 -3.75 -47.95 M-4.0 -31.4 L-4.0 -26.9 -6.4 -25.1 -11.65 -21.3 -11.75 -25.5 -11.75 -25.55 -7.1 -29.5 -4.05 -31.4 -4.0 -31.4" fill="#cdd7da" fill-rule="evenodd" stroke="none"/>
      <path d="M5.05 -58.3 L3.0 -57.0 -1.55 -53.25 Q-1.0 -65.7 -1.0 -68.05 L-1.0 -70.85 Q3.15 -65.4 5.05 -58.3 M-2.0 -42.25 L-2.0 -41.95 0.7 -43.8 5.5 -47.35 6.5 -48.2 7.1 -41.05 Q4.75 -39.8 0.5 -36.6 L-2.05 -34.65 -2.0 -42.25 M7.4 -35.2 L7.4 -32.7 7.6 -24.9 7.9 -20.5 8.0 -18.55 8.0 -18.5 8.0 -18.4 8.0 -18.15 8.0 -17.2 6.1 -17.55 5.5 -17.5 Q2.1 -17.5 0.0 -20.6 -1.5 -22.85 -1.5 -24.35 L-1.5 -24.6 -1.5 -25.1 -1.8 -28.4 4.3 -32.75 7.4 -35.2" fill="#8ca4aa" fill-rule="evenodd" stroke="none"/>
    </g>
    <g id="shape6" transform="matrix(1.0, 0.0, 0.0, 1.0, 25.1, 33.3)">
      <path d="M4.6 -28.85 Q5.35 -25.9 6.6 -23.4 7.45 -21.8 8.4 -20.7 9.15 -17.5 10.8 -14.15 12.75 -10.3 13.35 -8.05 L13.75 -6.45 14.0 -6.2 Q15.15 -5.1 15.4 -4.2 L15.45 -3.3 Q15.25 -3.1 13.65 -2.75 7.25 -1.15 -1.6 2.05 -2.2 1.4 -2.85 1.0 L-3.2 0.9 -3.05 0.75 -3.45 0.05 -4.05 -1.4 Q-4.9 -4.5 -5.4 -7.55 L-5.5 -7.3 Q-6.45 -5.3 -8.15 -3.95 -7.05 -2.55 -6.65 1.05 -7.05 1.85 -8.2 1.75 L-8.35 1.55 Q-10.6 2.05 -14.95 1.6 -19.0 0.5 -21.9 -4.0 -23.8 -7.0 -24.0 -8.95 L-24.25 -9.55 -24.4 -10.0 -24.75 -10.05 -24.55 -10.25 -25.1 -12.2 -24.4 -13.3 -23.85 -13.6 -22.8 -14.95 -21.25 -16.4 Q-18.55 -18.75 -17.75 -21.75 L-17.05 -22.55 Q-15.5 -26.65 -13.5 -29.2 -9.25 -34.55 -3.1 -32.9 -2.0 -32.6 -0.9 -31.85 0.35 -32.1 1.7 -31.3 L4.6 -28.85 M7.25 -3.6 L8.1 -6.7 Q8.6 -8.25 10.7 -8.5 L9.95 -10.85 8.6 -13.95 7.25 -17.1 6.65 -19.2 6.0 -18.9 Q1.45 -17.15 -0.75 -16.0 L2.9 -2.1 4.25 -2.45 7.35 -3.25 7.4 -3.25 7.7 -3.35 7.25 -3.6 M10.9 -6.05 L8.8 -3.65 12.2 -4.5 10.9 -6.05 M-14.05 -0.4 L-14.0 -1.3 Q-13.65 -2.6 -12.75 -3.65 -11.45 -5.1 -9.8 -4.85 L-9.7 -5.65 -8.55 -7.65 -7.55 -9.6 -6.4 -12.2 -6.1 -12.8 -6.35 -16.95 -7.65 -17.25 Q-9.75 -17.8 -10.25 -18.1 L-10.4 -18.2 -10.4 -18.15 Q-10.75 -17.1 -14.2 -12.9 -18.05 -8.3 -20.7 -7.2 L-20.0 -5.45 Q-18.55 -1.7 -14.05 -0.35 L-13.7 -0.3 -9.15 0.0 -8.95 0.05 -9.2 -0.45 Q-9.7 -1.9 -10.25 -2.55 L-11.45 -1.45 Q-12.2 -1.0 -13.75 -0.45 L-14.05 -0.4" fill="#000000" fill-rule="evenodd" stroke="none"/>
      <path d="M7.4 -3.25 L7.35 -3.25 4.25 -2.45 2.9 -2.1 -0.75 -16.0 Q1.45 -17.15 6.0 -18.9 L6.65 -19.2 7.25 -17.1 8.6 -13.95 9.95 -10.85 10.7 -8.5 Q8.6 -8.25 8.1 -6.7 L7.25 -3.6 7.4 -3.25 M-10.25 -18.1 Q-9.75 -17.8 -7.65 -17.25 L-6.35 -16.95 -6.1 -12.8 -6.4 -12.2 -7.55 -9.6 -8.55 -7.65 -9.7 -5.65 -9.8 -4.85 Q-11.45 -5.1 -12.75 -3.65 -13.65 -2.6 -14.0 -1.3 L-14.05 -0.4 -14.05 -0.35 Q-18.55 -1.7 -20.0 -5.45 L-20.7 -7.2 Q-18.05 -8.3 -14.2 -12.9 -10.75 -17.1 -10.4 -18.15 L-10.25 -18.1 M10.9 -6.05 L12.2 -4.5 8.8 -3.65 10.9 -6.05 M-13.75 -0.45 Q-12.2 -1.0 -11.45 -1.45 L-10.25 -2.55 Q-9.7 -1.9 -9.2 -0.45 L-9.15 0.0 -13.7 -0.3 -13.75 -0.45" fill="#5b6171" fill-rule="evenodd" stroke="none"/>
    </g>
    <g id="shape7" transform="matrix(1.0, 0.0, 0.0, 1.0, 30.75, 21.75)">
      <path d="M18.35 -17.8 Q18.85 -17.9 18.5 -18.2 L24.95 -18.6 30.45 -18.7 30.75 -17.9 Q31.75 -15.3 31.75 -14.5 L31.75 -2.3 Q31.85 -0.35 32.3 1.25 L32.25 1.5 31.3 2.25 27.75 2.5 19.75 2.85 19.75 -10.95 Q19.05 -12.05 18.5 -14.9 L18.05 -16.7 18.6 -16.6 18.35 -17.8 M16.4 -17.0 L16.25 -16.2 Q16.25 -14.6 16.95 -10.95 L17.75 -5.7 17.6 -0.4 Q17.6 0.75 17.75 1.75 9.65 1.7 6.25 1.9 L6.25 -4.25 3.65 -13.3 2.1 -17.75 16.4 -17.0 M1.05 -14.7 Q2.3 -12.4 2.5 -10.0 L2.75 -9.25 3.25 -8.0 Q3.65 -6.65 3.9 -1.95 L4.3 1.4 4.0 1.4 2.0 1.7 -6.85 1.35 -11.25 1.5 -14.75 1.75 Q-14.9 -5.75 -16.25 -11.4 -17.5 -16.55 -19.6 -18.75 L-9.95 -19.1 -4.25 -19.2 -4.25 -19.35 -3.5 -19.2 -0.7 -19.25 -0.3 -17.55 Q0.65 -16.5 1.0 -15.0 L1.05 -14.7 M16.9 4.25 Q16.45 5.5 16.35 7.9 L-11.85 6.75 -15.15 6.55 -15.15 5.7 -15.15 4.25 -7.6 3.4 2.8 3.75 2.9 4.1 3.05 4.25 16.9 4.25 M16.25 10.35 L16.1 14.45 Q-3.45 14.65 -15.4 13.85 L-15.25 9.15 -15.2 8.8 -5.85 9.35 16.25 10.35 M-15.5 15.9 L-3.25 16.25 11.0 16.85 16.0 16.65 15.85 20.35 7.8 20.7 -1.6 21.0 -15.65 20.6 -15.5 16.2 -15.5 15.9 M-28.65 -13.8 Q-28.2 -16.4 -25.15 -18.4 -24.15 -18.15 -23.3 -17.75 -24.55 -17.15 -25.0 -15.05 L-25.25 -10.35 -25.45 -8.85 Q-25.55 -7.15 -25.15 -5.75 -24.45 -3.3 -22.4 -2.15 -23.55 -1.3 -23.8 1.9 L-28.45 2.2 -28.85 -2.1 Q-29.1 -5.5 -28.75 -7.95 -28.95 -12.0 -28.65 -13.8" fill="#5b6171" fill-rule="evenodd" stroke="none"/>
      <path d="M16.4 -17.0 L2.1 -17.75 3.65 -13.3 6.25 -4.25 6.25 1.9 Q9.65 1.7 17.75 1.75 17.6 0.75 17.6 -0.4 L17.75 -5.7 16.95 -10.95 Q16.25 -14.6 16.25 -16.2 L16.4 -17.0 M18.35 -17.8 L18.6 -16.6 18.05 -16.7 18.5 -14.9 Q19.05 -12.05 19.75 -10.95 L19.75 2.85 27.75 2.5 31.3 2.25 32.25 1.5 32.3 1.25 Q31.85 -0.35 31.75 -2.3 L31.75 -14.5 Q31.75 -15.3 30.75 -17.9 L30.45 -18.7 24.95 -18.6 18.5 -18.2 Q18.85 -17.9 18.35 -17.8 M14.75 -19.6 Q14.8 -20.4 15.05 -20.5 L17.65 -20.75 29.85 -20.75 30.0 -21.2 31.25 -20.75 31.8 -20.75 32.05 -20.6 32.25 -19.75 32.25 -19.65 Q33.45 -17.75 33.95 -13.55 36.6 -11.15 41.1 -7.9 43.35 -5.95 44.4 -3.8 46.7 -2.3 48.2 1.15 49.75 4.55 49.75 7.9 49.75 11.75 49.3 12.4 48.4 13.65 42.25 16.75 L41.5 16.5 Q40.05 18.25 37.75 18.25 31.05 18.25 29.5 13.85 L29.45 13.65 Q27.65 13.1 25.05 10.5 L24.35 9.75 24.0 9.9 22.85 10.15 22.75 10.75 Q22.25 15.25 22.25 18.25 L21.95 18.45 22.05 18.75 Q23.05 19.8 24.65 22.3 28.5 28.25 30.75 33.75 L30.65 33.95 30.75 34.75 30.6 35.45 Q30.4 35.45 30.3 35.75 L21.15 36.35 2.25 37.75 -8.2 37.8 Q-11.55 37.7 -12.25 37.05 -12.4 36.9 -17.6 37.0 L-22.75 37.15 -22.75 37.25 -23.75 37.75 Q-24.75 36.4 -24.75 35.0 L-24.0 30.95 -23.0 26.55 Q-22.75 23.95 -22.3 22.4 L-21.85 21.3 -22.7 20.75 -22.75 19.55 -22.55 19.5 -22.55 19.4 Q-23.5 18.45 -23.75 15.15 L-23.75 10.4 -23.9 4.15 -29.2 4.75 -29.25 4.75 -29.95 4.75 -30.1 4.5 -30.25 3.5 -30.2 2.7 -30.1 2.55 -30.6 -0.35 -30.75 -5.7 Q-30.75 -12.5 -30.2 -15.2 -28.9 -21.3 -24.95 -20.25 L-24.0 -20.45 -23.95 -20.5 -19.25 -21.0 -16.85 -21.2 -0.45 -21.25 0.25 -21.75 1.05 -20.2 5.95 -20.15 12.75 -19.75 14.75 -19.6 M1.05 -14.7 L1.0 -15.0 Q0.65 -16.5 -0.3 -17.55 L-0.7 -19.25 -3.5 -19.2 -4.25 -19.35 -4.25 -19.2 -9.95 -19.1 -19.6 -18.75 Q-17.5 -16.55 -16.25 -11.4 -14.9 -5.75 -14.75 1.75 L-11.25 1.5 -6.85 1.35 2.0 1.7 4.0 1.4 4.3 1.4 3.9 -1.95 Q3.65 -6.65 3.25 -8.0 L2.75 -9.25 2.5 -10.0 Q2.3 -12.4 1.05 -14.7 M35.5 -0.35 Q37.35 -0.55 39.1 0.15 40.6 0.45 41.8 1.3 41.9 0.55 42.8 -0.25 L43.2 -0.55 Q42.8 -3.7 37.75 -7.8 L34.15 -10.95 34.25 -1.6 34.25 -0.15 35.5 -0.35 M45.25 2.25 L44.95 2.2 44.25 4.05 43.65 4.2 43.75 6.15 Q43.75 10.35 43.25 12.55 L42.75 14.25 44.5 13.05 Q47.75 10.9 47.75 8.25 47.75 6.2 45.65 2.1 L45.55 1.95 45.25 2.25 M41.75 6.5 L41.05 4.55 40.25 3.05 39.65 2.65 Q39.0 2.0 38.55 2.0 L35.3 2.3 34.15 2.65 34.05 3.3 33.25 3.75 33.25 3.7 33.1 3.95 Q32.9 3.95 32.8 4.25 L32.35 4.25 32.05 4.75 Q31.25 6.25 31.25 9.25 31.25 11.4 31.5 12.6 L31.75 12.75 31.65 13.0 31.75 13.3 Q33.0 16.0 37.4 16.0 40.2 16.0 41.25 11.25 L41.75 6.5 M27.25 4.75 L24.75 4.75 24.3 5.2 24.35 5.2 24.3 5.5 24.15 5.6 23.95 6.25 24.85 7.1 25.8 8.5 28.45 10.25 29.05 10.7 29.25 9.1 Q29.25 6.2 29.9 4.4 L27.25 4.75 M22.2 4.75 L22.25 4.8 22.25 4.75 22.2 4.75 M16.35 7.9 L20.95 7.9 21.0 7.55 21.1 4.75 18.55 4.75 18.4 4.6 Q18.25 4.4 18.25 3.8 L17.75 4.25 16.9 4.25 3.05 4.25 2.9 4.1 2.8 3.75 -7.6 3.4 -15.15 4.25 -15.2 4.3 -16.25 4.75 Q-17.35 2.6 -17.15 -1.25 L-18.0 -1.25 -20.25 -1.45 Q-20.4 -0.7 -21.2 0.9 L-21.4 1.4 -21.55 6.55 Q-19.55 6.3 -15.15 6.55 L-11.85 6.75 16.35 7.9 M23.25 34.4 L28.95 33.85 Q26.95 31.4 23.9 26.4 L21.05 21.5 20.25 21.75 17.35 22.4 12.75 22.85 -1.5 23.25 -12.25 22.85 -15.8 22.65 -16.95 22.5 -18.95 22.0 -19.3 21.95 Q-19.65 23.4 -21.75 29.3 -22.5 31.5 -22.65 34.8 L-17.25 34.85 -14.1 34.9 2.15 35.5 Q12.55 35.5 17.1 35.15 L18.5 35.0 18.65 34.95 18.85 34.95 23.25 34.4 M16.1 14.45 L20.25 14.4 Q20.25 12.9 20.6 10.3 L17.75 10.35 16.25 10.35 -5.85 9.35 -15.2 8.8 -21.65 8.45 -21.75 10.15 -21.5 13.45 -18.2 13.65 -15.4 13.85 Q-3.45 14.65 16.1 14.45 M16.0 16.65 L11.0 16.85 -3.25 16.25 -15.5 15.9 -20.0 15.9 -20.75 16.35 -21.15 16.2 -20.8 18.65 -20.2 19.3 -18.9 19.5 -18.2 20.15 -15.65 20.6 -1.6 21.0 7.8 20.7 15.85 20.35 16.75 20.25 19.55 19.5 19.5 18.55 19.5 18.5 Q20.25 17.75 20.25 16.4 L16.0 16.65 M-28.65 -13.8 Q-28.95 -12.0 -28.75 -7.95 -29.1 -5.5 -28.85 -2.1 L-28.45 2.2 -23.8 1.9 Q-23.55 -1.3 -22.4 -2.15 -24.45 -3.3 -25.15 -5.75 -25.55 -7.15 -25.45 -8.85 L-25.25 -10.35 -25.0 -15.05 Q-24.55 -17.15 -23.3 -17.75 -24.15 -18.15 -25.15 -18.4 -28.2 -16.4 -28.65 -13.8" fill="#000000" fill-rule="evenodd" stroke="none"/>
      <path d="M45.65 2.1 Q47.75 6.2 47.75 8.25 47.75 10.9 44.5 13.05 L42.75 14.25 43.25 12.55 Q43.75 10.35 43.75 6.15 L43.65 4.2 44.25 4.05 44.95 2.2 45.25 2.25 45.65 2.1 M41.75 6.5 L41.25 11.25 Q40.2 16.0 37.4 16.0 33.0 16.0 31.75 13.3 L31.65 13.0 31.75 12.75 31.5 12.6 Q31.25 11.4 31.25 9.25 31.25 6.25 32.05 4.75 L32.35 4.25 32.8 4.25 Q32.9 3.95 33.1 3.95 L33.25 3.7 33.25 3.75 34.05 3.3 34.15 2.65 35.3 2.3 38.55 2.0 Q39.0 2.0 39.65 2.65 L40.25 3.05 41.05 4.55 41.75 6.5" fill="#aa8a71" fill-rule="evenodd" stroke="none"/>
      <path d="M16.9 4.25 L17.75 4.25 18.25 3.8 Q18.25 4.4 18.4 4.6 L18.55 4.75 21.1 4.75 21.0 7.55 20.95 7.9 16.35 7.9 Q16.45 5.5 16.9 4.25 M-15.15 6.55 Q-19.55 6.3 -21.55 6.55 L-21.4 1.4 -21.2 0.9 Q-20.4 -0.7 -20.25 -1.45 L-18.0 -1.25 -17.15 -1.25 Q-17.35 2.6 -16.25 4.75 L-15.2 4.3 -15.15 4.25 -15.15 5.7 -15.15 6.55 M16.25 10.35 L17.75 10.35 20.6 10.3 Q20.25 12.9 20.25 14.4 L16.1 14.45 16.25 10.35 M-15.4 13.85 L-18.2 13.65 -21.5 13.45 -21.75 10.15 -21.65 8.45 -15.2 8.8 -15.25 9.15 -15.4 13.85 M16.0 16.65 L20.25 16.4 Q20.25 17.75 19.5 18.5 L19.5 18.55 19.55 19.5 16.75 20.25 15.85 20.35 16.0 16.65 M-15.65 20.6 L-18.2 20.15 -18.9 19.5 -20.2 19.3 -20.8 18.65 -21.15 16.2 -20.75 16.35 -20.0 15.9 -15.5 15.9 -15.5 16.2 -15.65 20.6" fill="#969cab" fill-rule="evenodd" stroke="none"/>
      <path d="M17.35 22.4 L20.25 21.75 21.05 21.5 23.9 26.4 Q26.95 31.4 28.95 33.85 L23.25 34.4 20.5 28.55 17.35 22.4 M-17.25 34.85 L-22.65 34.8 Q-22.5 31.5 -21.75 29.3 -19.65 23.4 -19.3 21.95 L-18.95 22.0 -16.95 22.5 -15.8 22.65 Q-16.25 23.3 -16.5 24.35 -16.95 26.3 -17.25 29.85 L-17.25 34.85" fill="#942403" fill-rule="evenodd" stroke="none"/>
      <path d="M35.5 -0.35 L34.25 -0.15 34.25 -1.6 34.15 -10.95 37.75 -7.8 Q42.8 -3.7 43.2 -0.55 L42.8 -0.25 Q41.9 0.55 41.8 1.3 40.6 0.45 39.1 0.15 37.35 -0.55 35.5 -0.35 M27.25 4.75 L29.9 4.4 Q29.25 6.2 29.25 9.1 L29.05 10.7 28.45 10.25 25.8 8.5 24.85 7.1 23.95 6.25 24.15 5.6 24.3 5.5 24.35 5.2 24.3 5.2 24.75 4.75 27.25 4.75 M17.35 22.4 L20.5 28.55 23.25 34.4 18.85 34.95 18.65 34.95 18.5 35.0 17.1 35.15 Q12.55 35.5 2.15 35.5 L-14.1 34.9 -17.25 34.85 -17.25 29.85 Q-16.95 26.3 -16.5 24.35 -16.25 23.3 -15.8 22.65 L-12.25 22.85 -1.5 23.25 12.75 22.85 17.35 22.4" fill="#731c02" fill-rule="evenodd" stroke="none"/>
    </g>
  </defs>
</svg>
