<?xml version="1.0" encoding="UTF-8" standalone="no"?>
<svg xmlns:ffdec="https://www.free-decompiler.com/flash" xmlns:xlink="http://www.w3.org/1999/xlink" ffdec:objectType="frame" height="134.4px" width="236.35px" xmlns="http://www.w3.org/2000/svg">
  <g transform="matrix(1.0, 0.0, 0.0, 1.0, 95.25, 127.95)">
    <use ffdec:characterId="195" height="34.0" transform="matrix(1.0, 0.0, 0.0, 1.0, -28.5, -32.05)" width="46.45" xlink:href="#shape0"/>
    <use ffdec:characterId="611" height="72.6" transform="matrix(1.0, 0.0, 0.0, 1.0, -35.1, -87.15)" width="79.5" xlink:href="#shape1"/>
    <use ffdec:characterId="612" height="56.45" transform="matrix(0.9931, 0.1089, -0.1089, 0.9931, -26.0695, -124.4534)" width="71.0" xlink:href="#shape2"/>
    <use ffdec:characterId="614" height="116.0" transform="matrix(-0.161, 0.9864, -0.9864, -0.161, 34.8204, -39.5832)" width="24.5" xlink:href="#shape3"/>
    <use ffdec:characterId="615" height="47.2" transform="matrix(0.8771, 0.4787, -0.4787, 0.8771, -42.91, -82.065)" width="26.3" xlink:href="#shape4"/>
    <use ffdec:characterId="613" height="63.55" transform="matrix(1.0, 0.0, 0.0, 1.0, 27.75, -77.3)" width="29.0" xlink:href="#shape5"/>
  </g>
  <defs>
    <g id="shape0" transform="matrix(1.0, 0.0, 0.0, 1.0, 29.45, 30.75)">
      <path d="M12.95 -26.5 Q12.9 -23.45 13.5 -20.7 13.9 -18.95 14.5 -17.65 14.4 -14.35 15.15 -10.65 16.0 -6.45 16.0 -4.15 L16.0 -2.5 16.2 -2.15 Q17.0 -0.8 17.0 0.1 L16.85 1.0 14.95 1.1 -1.0 1.75 Q-1.45 0.85 -2.25 0.25 L-2.1 0.1 -2.3 -0.65 -2.5 -2.2 Q-2.5 -7.45 -1.75 -12.35 L-2.0 -12.1 Q-3.15 -10.95 -10.25 -6.35 L-13.55 -3.65 Q-15.4 -2.4 -17.55 -2.05 -17.3 -0.3 -18.75 3.05 -19.45 3.55 -20.45 2.85 L-20.45 2.65 Q-22.7 1.9 -26.2 -0.7 -29.15 -3.65 -29.45 -8.95 -29.6 -12.5 -28.75 -14.35 L-28.7 -15.0 -28.6 -15.4 -28.85 -15.65 -28.6 -15.7 -28.15 -17.65 -26.9 -18.3 -26.3 -18.3 -24.75 -18.95 -22.7 -19.4 Q-19.2 -20.1 -17.0 -22.3 L-15.95 -22.65 Q-12.55 -25.45 -9.55 -26.65 -3.2 -29.1 1.3 -24.6 L1.55 -24.35 Q3.4 -28.25 5.9 -29.95 8.6 -31.75 10.8 -29.6 L12.95 -26.5 M9.0 -1.4 L10.65 -4.2 Q11.5 -5.55 13.6 -5.2 L13.5 -7.7 12.95 -11.05 Q12.55 -13.2 12.5 -14.45 L12.45 -16.6 11.75 -16.5 4.5 -15.45 4.45 -1.1 5.85 -1.1 9.0 -1.05 9.05 -1.05 9.35 -1.05 9.0 -1.4 M14.0 -0.95 L13.2 -2.85 10.5 -1.05 14.0 -0.95 M-12.4 -15.5 Q-13.25 -14.75 -18.35 -12.85 -23.95 -10.75 -26.75 -11.15 L-27.05 -9.25 Q-27.7 -5.3 -24.4 -1.9 L-24.15 -1.65 Q-23.2 -0.7 -20.4 0.9 -20.35 0.85 -20.25 0.95 L-20.2 0.4 Q-19.95 -1.05 -20.0 -1.9 L-21.65 -1.55 -24.15 -1.85 Q-24.25 -1.85 -24.35 -1.95 L-23.9 -2.7 -21.7 -4.1 Q-19.8 -4.7 -18.55 -3.65 L-18.0 -4.3 Q-17.55 -4.75 -16.05 -5.45 -14.7 -6.2 -14.2 -6.7 L-11.9 -8.3 Q-10.1 -9.5 -9.6 -10.0 L-7.65 -11.35 Q-9.0 -11.9 -10.45 -13.35 L-12.3 -15.4 -12.35 -15.55 -12.4 -15.5" fill="#000000" fill-rule="evenodd" stroke="none"/>
      <path d="M9.05 -1.05 L9.0 -1.05 5.85 -1.1 4.45 -1.1 4.5 -15.45 11.75 -16.5 12.45 -16.6 12.5 -14.45 Q12.55 -13.2 12.95 -11.05 L13.5 -7.7 13.6 -5.2 Q11.5 -5.55 10.65 -4.2 L9.0 -1.4 9.05 -1.05 M14.0 -0.95 L10.5 -1.05 13.2 -2.85 14.0 -0.95 M-24.4 -1.9 Q-27.7 -5.3 -27.05 -9.25 L-26.75 -11.15 Q-23.95 -10.75 -18.35 -12.85 -13.25 -14.75 -12.4 -15.5 L-12.3 -15.4 -10.45 -13.35 Q-9.0 -11.9 -7.65 -11.35 L-9.6 -10.0 Q-10.1 -9.5 -11.9 -8.3 L-14.2 -6.7 Q-14.7 -6.2 -16.05 -5.45 -17.55 -4.75 -18.0 -4.3 L-18.55 -3.65 Q-19.8 -4.7 -21.7 -4.1 L-23.9 -2.7 -24.35 -1.95 -24.4 -1.9 M-24.15 -1.85 L-21.65 -1.55 -20.0 -1.9 Q-19.95 -1.05 -20.2 0.4 L-20.4 0.9 Q-23.2 -0.7 -24.15 -1.65 L-24.15 -1.85" fill="#5b6171" fill-rule="evenodd" stroke="none"/>
    </g>
    <g id="shape1" transform="matrix(1.0, 0.0, 0.0, 1.0, 29.0, 30.1)">
      <path d="M14.1 -26.25 L14.45 -25.6 17.25 -23.6 Q22.0 -20.7 23.35 -18.5 L23.85 -17.35 25.6 -16.75 Q29.65 -15.5 30.0 -13.4 L30.9 -12.7 34.6 -9.25 39.0 -6.05 41.25 -4.1 43.5 -4.0 Q45.85 -3.05 47.65 -1.35 49.5 0.45 49.5 1.9 L49.5 2.65 49.35 3.05 Q50.15 4.25 50.4 5.7 L50.5 9.05 Q50.5 12.15 48.9 14.35 46.5 17.5 41.25 17.5 L40.8 17.5 Q39.05 20.0 36.0 20.0 31.8 20.0 30.0 15.0 L29.35 11.45 Q27.95 11.15 25.65 9.0 L24.2 7.65 Q23.5 11.05 23.5 14.1 L25.0 20.6 Q26.5 26.7 26.5 27.8 L25.95 28.3 25.5 29.75 Q28.1 31.1 30.5 36.6 30.5 37.6 27.5 38.5 24.15 39.5 19.5 39.5 L18.45 39.45 Q16.9 41.0 16.25 41.0 15.15 41.0 14.05 39.5 L13.5 39.5 11.0 39.0 7.75 39.5 8.0 39.0 3.65 39.3 0.55 39.1 -2.5 42.5 -4.95 39.0 -13.5 39.0 -16.25 39.05 -17.25 38.8 -19.2 39.0 -20.45 38.8 -24.1 39.05 -25.0 37.5 -25.0 32.75 -24.95 29.55 -28.0 32.0 -28.7 31.75 Q-29.0 31.55 -29.0 30.75 -29.0 29.8 -27.5 24.35 -26.0 18.85 -26.0 17.05 -26.0 13.0 -26.5 4.15 -26.5 0.05 -26.0 -3.1 L-25.1 -6.55 Q-24.5 -9.0 -24.5 -10.25 -25.6 -13.15 -22.45 -17.25 -19.2 -21.55 -14.3 -22.45 L-13.5 -23.4 Q-10.9 -25.4 -10.55 -25.75 L-9.25 -27.05 -8.45 -27.5 Q-8.1 -28.9 -5.75 -29.65 -1.5 -31.05 7.1 -28.25 L14.1 -26.25 M8.0 -25.85 Q5.9 -26.85 -5.2 -26.15 L-2.55 -24.3 Q0.5 -22.05 1.25 -20.6 L1.6 -20.75 2.0 -20.0 1.55 -19.3 1.65 -19.2 5.6 -12.75 Q6.5 -11.35 7.45 -7.5 8.4 -3.75 9.6 -2.1 16.8 -10.45 17.55 -17.85 16.25 -19.3 14.45 -21.85 L12.6 -24.5 9.25 -24.95 8.0 -25.85 M20.4 -18.55 L19.1 -20.0 19.35 -19.35 19.75 -19.25 20.0 -18.3 20.0 -17.55 20.0 -17.5 20.0 -17.4 Q19.8 -15.4 18.95 -12.95 20.05 -12.85 20.8 -12.0 L22.35 -10.0 22.5 -12.55 22.4 -15.25 21.5 -15.6 Q21.35 -16.55 21.65 -17.0 L20.4 -18.55 M1.65 -14.4 Q-1.0 -18.55 -1.0 -19.25 L-1.0 -19.35 -3.2 -21.05 -8.3 -25.25 -11.55 -22.0 -7.25 -16.2 Q-4.35 -12.35 -3.25 -10.0 L-0.4 -12.3 2.0 -13.8 1.65 -14.4 M-20.6 21.7 Q-19.15 20.0 -18.75 20.0 -18.45 20.0 -14.15 24.1 -9.75 28.35 -9.05 29.55 L-5.65 34.3 -2.25 39.0 2.55 32.4 Q5.7 28.15 7.0 26.95 L6.3 23.4 Q5.5 18.8 5.5 17.25 L6.0 8.05 6.6 3.25 Q6.9 0.95 8.15 0.4 7.3 -0.9 6.65 -2.85 L5.0 -8.35 3.15 -11.9 1.05 -10.0 Q-2.0 -7.25 -3.5 -6.5 L-8.55 -14.25 -12.0 -18.7 -12.85 -19.7 -13.0 -19.85 -13.2 -19.8 Q-17.15 -19.0 -19.4 -17.15 -21.4 -15.5 -22.1 -13.1 -22.6 -11.55 -22.8 -8.1 L-22.85 -7.1 Q-23.1 -4.55 -23.5 -3.35 -24.2 -1.3 -24.15 6.65 L-24.0 15.0 -24.1 20.35 -25.5 27.0 -25.5 27.25 -25.4 27.25 -22.15 23.55 -20.95 22.1 -20.6 21.7 M22.1 -6.4 L21.65 -6.95 20.1 -9.0 18.55 -10.35 18.1 -10.95 16.4 -7.75 Q14.0 -3.7 9.5 2.0 L9.45 1.95 9.45 2.0 8.5 8.6 Q7.5 15.0 7.5 17.05 7.5 23.95 10.15 27.8 15.15 35.05 16.35 37.8 L20.05 33.15 20.95 31.9 23.9 27.95 24.8 26.8 23.3 22.25 22.95 21.05 Q21.5 16.05 21.5 14.1 21.5 7.35 24.55 -0.75 27.35 -8.2 27.6 -12.25 L27.5 -12.35 27.6 -12.65 27.6 -13.0 Q27.6 -13.75 25.35 -14.4 L24.4 -14.65 Q24.8 -11.8 25.0 -7.05 L24.85 -5.35 Q25.0 -5.0 23.75 -5.0 23.3 -5.0 22.1 -6.4 M26.75 -1.0 Q25.5 2.3 24.75 5.3 L27.05 7.1 29.05 8.75 Q29.3 5.6 31.2 3.5 33.15 1.35 36.0 1.15 L36.65 1.15 Q36.5 0.85 36.5 0.25 36.5 -1.45 38.55 -2.85 L35.1 -5.6 29.7 -10.35 Q29.0 -6.9 26.75 -1.0 M46.3 0.65 Q44.25 -1.95 42.0 -2.2 L41.85 -1.8 Q42.15 -1.5 41.0 -1.5 L40.7 -1.55 39.65 -0.45 37.9 1.25 39.05 1.6 Q40.0 1.0 41.8 0.65 L46.25 0.9 46.6 1.0 46.3 0.65 M-19.25 23.75 L-19.25 23.7 -19.75 24.25 -22.25 26.85 -22.95 27.55 Q-22.75 28.25 -23.0 29.0 L-23.0 35.7 -23.0 36.3 -21.9 36.35 -21.7 36.35 -13.25 36.65 -6.45 36.95 -9.55 32.85 Q-14.2 26.75 -18.8 23.25 L-19.25 23.75 M41.25 3.3 Q43.0 5.4 43.0 8.85 43.0 12.1 42.1 14.85 L43.25 14.45 46.6 13.5 48.2 11.3 48.5 9.5 Q48.5 2.75 44.25 2.75 42.35 2.75 41.25 3.3 M38.05 4.05 L38.0 3.85 36.0 3.55 Q33.95 3.65 32.55 5.15 31.0 6.8 31.0 9.55 31.0 11.4 32.0 14.05 33.4 17.75 35.75 17.75 38.45 17.75 40.0 13.05 40.8 10.7 41.0 8.6 41.0 6.1 39.45 4.7 L39.2 4.5 38.35 4.25 38.05 4.05 M12.75 37.2 Q10.3 32.0 8.0 29.3 L3.9 34.8 1.5 37.9 Q3.5 37.1 7.5 36.95 L12.75 37.25 12.8 37.25 12.75 37.2 M25.5 32.6 L24.7 31.3 24.45 31.75 21.65 35.75 20.5 37.15 27.35 36.25 Q27.35 35.25 25.95 33.2 L25.5 32.6" fill="#000000" fill-rule="evenodd" stroke="none"/>
      <path d="M-12.0 -18.7 L-8.55 -14.25 -3.5 -6.5 Q-2.0 -7.25 1.05 -10.0 L3.15 -11.9 5.0 -8.35 6.65 -2.85 Q7.3 -0.9 8.15 0.4 6.9 0.95 6.6 3.25 L6.0 8.05 5.5 17.25 Q5.5 18.8 6.3 23.4 L7.0 26.95 Q5.7 28.15 2.55 32.4 L-2.25 39.0 -5.65 34.3 -9.05 29.55 Q-9.75 28.35 -14.15 24.1 -18.45 20.0 -18.75 20.0 -19.15 20.0 -20.6 21.7 L-20.5 18.3 -20.0 4.8 -19.85 -1.85 Q-19.7 -5.7 -19.0 -8.25 -17.55 -13.2 -13.1 -17.65 L-12.0 -18.7 M-22.85 -7.1 L-22.8 -8.1 Q-22.6 -11.55 -22.1 -13.1 -21.4 -15.5 -19.4 -17.15 -21.15 -14.55 -22.05 -11.1 L-22.85 -7.1 M9.5 2.0 Q14.0 -3.7 16.4 -7.75 L18.1 -10.95 18.55 -10.35 20.1 -9.0 21.65 -6.95 22.1 -6.4 21.0 -0.75 19.0 7.05 17.65 11.2 Q17.0 13.25 17.0 15.1 L17.25 19.3 17.5 25.05 Q17.5 27.3 19.2 31.35 L20.05 33.15 16.35 37.8 Q15.15 35.05 10.15 27.8 7.5 23.95 7.5 17.05 7.5 15.0 8.5 8.6 L9.45 2.0 9.5 2.0 M22.95 21.05 L23.3 22.25 24.8 26.8 23.9 27.95 23.5 25.8 Q23.0 23.25 23.0 22.0 L22.95 21.05 M26.75 -1.0 Q29.0 -6.9 29.7 -10.35 L35.1 -5.6 38.55 -2.85 Q36.5 -1.45 36.5 0.25 36.5 0.85 36.65 1.15 L36.0 1.15 Q33.15 1.35 31.2 3.5 29.3 5.6 29.05 8.75 L27.05 7.1 24.75 5.3 Q25.5 2.3 26.75 -1.0" fill="#244800" fill-rule="evenodd" stroke="none"/>
      <path d="M20.0 -18.3 L20.4 -18.55 21.65 -17.0 Q21.35 -16.55 21.5 -15.6 L22.4 -15.25 22.5 -12.55 22.35 -10.0 20.8 -12.0 Q20.05 -12.85 18.95 -12.95 19.8 -15.4 20.0 -17.4 L20.0 -17.5 20.0 -17.55 20.0 -18.3 M1.65 -14.4 L2.0 -13.8 -0.4 -12.3 -3.25 -10.0 Q-4.35 -12.35 -7.25 -16.2 L-11.55 -22.0 -8.3 -25.25 -3.2 -21.05 -1.0 -19.35 -1.0 -19.25 Q-1.0 -18.55 1.65 -14.4 M46.25 0.9 L41.8 0.65 Q40.0 1.0 39.05 1.6 L37.9 1.25 39.65 -0.45 40.7 -1.55 41.0 -1.5 Q42.15 -1.5 41.85 -1.8 L42.0 -2.2 Q44.25 -1.95 46.3 0.65 L46.25 0.9" fill="#339900" fill-rule="evenodd" stroke="none"/>
      <path d="M-12.0 -18.7 L-13.1 -17.65 Q-17.55 -13.2 -19.0 -8.25 -19.7 -5.7 -19.85 -1.85 L-20.0 4.8 -20.5 18.3 -20.6 21.7 -20.95 22.1 -22.15 23.55 -25.4 27.25 -25.5 27.0 -24.1 20.35 -24.0 15.0 -24.15 6.65 Q-24.2 -1.3 -23.5 -3.35 -23.1 -4.55 -22.85 -7.1 L-22.05 -11.1 Q-21.15 -14.55 -19.4 -17.15 -17.15 -19.0 -13.2 -19.8 L-13.0 -19.85 -12.85 -19.7 -12.0 -18.7 M20.05 33.15 L19.2 31.35 Q17.5 27.3 17.5 25.05 L17.25 19.3 17.0 15.1 Q17.0 13.25 17.65 11.2 L19.0 7.05 21.0 -0.75 22.1 -6.4 Q23.3 -5.0 23.75 -5.0 25.0 -5.0 24.85 -5.35 L25.0 -7.05 Q24.8 -11.8 24.4 -14.65 L25.35 -14.4 Q27.6 -13.75 27.6 -13.0 L27.6 -12.65 27.5 -12.35 27.6 -12.25 Q27.35 -8.2 24.55 -0.75 21.5 7.35 21.5 14.1 21.5 16.05 22.95 21.05 L23.0 22.0 Q23.0 23.25 23.5 25.8 L23.9 27.95 20.95 31.9 20.05 33.15" fill="#336600" fill-rule="evenodd" stroke="none"/>
      <path d="M8.0 -25.85 L9.25 -24.95 12.6 -24.5 14.45 -21.85 Q16.25 -19.3 17.55 -17.85 16.8 -10.45 9.6 -2.1 8.4 -3.75 7.45 -7.5 6.5 -11.35 5.6 -12.75 L1.65 -19.2 1.55 -19.3 2.0 -20.0 1.6 -20.75 1.25 -20.6 Q0.5 -22.05 -2.55 -24.3 L-5.2 -26.15 Q5.9 -26.85 8.0 -25.85 M-19.25 23.75 L-18.8 23.25 Q-14.2 26.75 -9.55 32.85 L-6.45 36.95 -13.25 36.65 -21.7 36.35 -21.7 36.1 Q-21.7 35.5 -21.0 35.5 -18.7 35.5 -18.45 35.05 L-18.5 32.4 -18.5 27.1 Q-18.65 25.1 -19.25 23.75 M-21.9 36.35 L-23.0 36.3 -23.0 35.7 -22.6 36.3 -21.9 36.35 M41.25 3.3 Q42.35 2.75 44.25 2.75 48.5 2.75 48.5 9.5 L48.2 11.3 46.6 13.5 43.25 14.45 42.1 14.85 Q43.0 12.1 43.0 8.85 43.0 5.4 41.25 3.3 M12.75 37.25 L7.5 36.95 Q3.5 37.1 1.5 37.9 L3.9 34.8 8.0 29.3 Q10.3 32.0 12.75 37.2 L12.75 37.25 M24.45 31.75 L24.7 31.3 25.5 32.6 24.5 31.75 24.45 31.75" fill="#cccccc" fill-rule="evenodd" stroke="none"/>
      <path d="M-23.0 35.7 L-23.0 29.0 Q-22.75 28.25 -22.95 27.55 L-22.25 26.85 -19.75 24.25 -19.25 23.7 -19.25 23.75 Q-18.65 25.1 -18.5 27.1 L-18.5 32.4 -18.45 35.05 Q-18.7 35.5 -21.0 35.5 -21.7 35.5 -21.7 36.1 L-21.7 36.35 -21.9 36.35 -22.6 36.3 -23.0 35.7 M25.5 32.6 L25.95 33.2 Q27.35 35.25 27.35 36.25 L20.5 37.15 21.65 35.75 24.45 31.75 24.5 31.75 25.5 32.6" fill="#e8e8e8" fill-rule="evenodd" stroke="none"/>
      <path d="M38.05 4.05 L38.35 4.25 39.2 4.5 39.45 4.7 Q41.0 6.1 41.0 8.6 40.8 10.7 40.0 13.05 38.45 17.75 35.75 17.75 33.4 17.75 32.0 14.05 31.0 11.4 31.0 9.55 31.0 6.8 32.55 5.15 33.95 3.65 36.0 3.55 L38.0 3.85 38.05 4.05" fill="#fdcd9d" fill-rule="evenodd" stroke="none"/>
    </g>
    <g id="shape2" transform="matrix(1.0, 0.0, 0.0, 1.0, 31.0, 24.95)">
      <path d="M19.5 -22.5 L23.35 -21.25 27.0 -20.0 31.65 -19.75 Q34.85 -20.0 36.05 -19.75 36.5 -20.25 36.5 -19.0 L36.4 -18.4 Q37.25 -17.25 38.15 -14.95 40.0 -10.25 40.0 -7.25 L39.35 -2.3 38.25 2.05 Q34.4 7.7 32.0 9.35 L32.0 9.6 Q32.0 13.35 31.25 19.55 30.85 22.3 28.7 23.65 23.25 27.0 7.25 27.0 L6.0 26.75 5.8 26.4 Q5.15 26.05 4.45 24.8 L2.5 25.0 Q0.6 25.0 -0.1 24.4 L0.05 24.05 -0.25 24.65 Q-1.7 27.75 -3.5 29.0 -4.55 28.15 -4.5 26.8 L-4.5 24.55 -8.7 28.05 Q-13.05 31.5 -14.25 31.5 L-15.1 31.25 -15.45 31.05 -15.5 30.25 Q-15.5 29.45 -14.15 26.7 L-13.05 24.65 -22.5 28.5 -23.6 28.25 -23.95 28.05 -24.0 27.25 Q-24.0 26.4 -22.15 24.6 L-20.1 22.55 -20.0 22.25 -23.4 23.25 -30.1 24.5 -30.3 24.35 Q-30.5 24.15 -30.5 23.4 -30.5 22.4 -28.1 20.25 L-24.75 17.3 -24.5 17.05 -30.6 16.5 -30.8 16.35 Q-31.0 16.15 -31.0 15.4 L-28.1 12.75 Q-25.0 10.15 -24.6 9.05 -24.1 7.75 -23.75 5.7 L-23.25 2.3 Q-22.85 0.5 -22.65 -4.35 -22.45 -8.75 -21.75 -11.1 -20.85 -14.1 -16.85 -18.15 -13.15 -21.9 -9.85 -23.6 -8.95 -24.65 -7.8 -24.85 -6.25 -25.1 3.05 -24.75 L11.45 -23.7 19.5 -22.5 M34.55 -16.8 L34.35 -17.25 30.75 -17.0 Q28.75 -17.0 25.8 -17.9 L19.75 -19.85 Q10.2 -22.75 -1.8 -22.75 -8.35 -22.75 -12.8 -18.95 -15.05 -17.05 -16.35 -14.75 L-17.85 -12.9 -19.25 -10.35 -19.55 -9.55 -19.65 -9.15 -20.4 -5.35 -20.45 -5.1 -20.5 -5.0 Q-21.15 -2.1 -21.35 4.6 -22.1 10.75 -26.1 14.5 -25.6 15.0 -21.35 14.5 L-21.15 14.7 Q-21.0 14.85 -21.0 15.6 -21.0 16.2 -22.9 18.5 L-25.25 21.05 -25.35 21.25 -25.15 21.2 Q-19.8 19.1 -18.5 19.0 L-16.35 19.0 -16.15 19.15 Q-16.0 19.25 -16.0 20.0 -16.0 20.5 -18.85 24.75 -12.05 21.0 -11.25 21.0 L-10.1 21.25 -9.75 23.7 -10.5 24.2 -10.7 25.0 -11.0 25.7 -12.0 27.3 -10.0 26.05 -7.45 23.55 -3.5 19.5 Q-2.8 20.4 -2.7 21.55 L-2.6 22.4 -2.5 23.5 -1.8 22.55 -0.4 19.15 1.05 14.25 Q3.05 14.15 3.6 16.3 L3.7 16.05 Q4.35 18.4 5.2 19.85 L5.3 20.0 5.55 19.7 5.5 18.25 Q5.5 17.15 6.3 13.0 L6.5 13.0 7.0 13.0 7.0 12.6 7.35 8.5 Q8.0 4.45 9.5 3.5 L10.2 3.9 Q10.5 4.2 10.5 5.0 L10.0 7.7 9.3 10.8 9.2 12.1 Q10.35 11.25 11.35 9.55 L11.75 8.85 12.0 10.0 15.9 2.9 Q19.1 -2.6 20.15 -2.95 L20.0 -1.9 19.75 0.85 19.85 2.55 Q20.05 3.5 21.0 3.75 22.25 2.35 23.75 -0.6 L25.2 -2.4 28.0 -6.0 Q29.9 -1.8 29.5 2.8 L29.5 3.0 29.6 2.9 Q30.8 1.4 31.55 -0.8 L32.8 -4.75 33.3 -4.85 34.55 -5.0 Q34.7 -4.9 34.8 -4.85 35.0 -4.75 35.0 -4.0 35.0 -2.75 33.35 0.8 L33.05 1.4 33.5 0.9 Q33.35 2.3 32.25 5.55 L32.0 5.8 32.3 5.6 Q38.0 1.45 38.0 -7.0 L38.0 -7.05 36.95 -10.2 36.3 -11.95 34.55 -16.8 M20.35 8.7 L20.75 8.0 Q19.6 6.5 17.3 6.5 L17.25 7.75 Q17.25 8.4 17.4 8.65 17.75 9.35 19.0 9.75 L20.35 8.7 M29.3 9.75 L29.3 9.85 29.55 9.8 29.3 9.75 M28.85 11.75 L19.55 13.25 Q16.55 13.85 14.25 14.55 L11.75 15.0 11.5 14.95 11.5 15.05 11.1 15.7 10.5 16.0 9.25 16.0 9.25 16.05 Q9.65 16.4 8.9 16.5 L8.0 20.8 7.9 20.85 7.35 24.45 17.1 24.3 Q24.4 24.25 28.0 21.05 28.8 20.35 29.2 18.8 29.6 17.35 29.5 15.8 29.25 13.95 29.5 11.65 L28.85 11.75 M18.65 2.6 L19.0 2.75 18.8 2.3 18.65 2.6 M9.95 11.7 L9.85 12.0 10.0 12.05 9.95 11.7 M12.05 23.45 L12.0 23.5 11.9 23.4 12.05 23.45" fill="#000000" fill-rule="evenodd" stroke="none"/>
      <path d="M0.55 -8.15 L2.75 -8.0 3.0 -8.0 6.35 -8.3 Q6.85 -8.55 7.5 -9.75 6.5 -10.95 2.65 -11.5 L-3.0 -12.5 -7.1 -13.4 -11.5 -14.0 -17.35 -13.55 -17.85 -12.9 -16.35 -14.75 Q-15.05 -17.05 -12.8 -18.95 -8.35 -22.75 -1.8 -22.75 10.2 -22.75 19.75 -19.85 L25.8 -17.9 Q28.75 -17.0 30.75 -17.0 L34.35 -17.25 34.55 -16.8 33.5 -17.0 Q32.15 -17.0 31.6 -16.2 30.95 -15.25 29.3 -14.85 L27.55 -16.15 Q26.9 -16.5 26.25 -16.5 24.25 -16.5 23.75 -15.65 23.1 -14.7 20.8 -14.35 17.0 -13.8 17.0 -11.75 17.0 -11.0 17.15 -10.65 L17.25 -10.25 19.5 -10.0 22.85 -10.8 26.75 -11.6 27.2 -10.8 27.6 -10.4 27.45 -10.4 Q25.5 -10.45 25.0 -8.6 25.0 -10.5 23.5 -10.5 22.95 -10.5 19.05 -6.35 L19.0 -6.5 Q19.15 -9.0 17.25 -9.0 16.25 -9.0 15.8 -8.35 L15.3 -7.6 14.05 -7.35 13.05 -7.25 Q12.4 -6.65 11.85 -5.2 11.35 -3.9 11.0 -3.75 L11.0 -3.85 11.4 -5.75 Q11.4 -7.2 10.0 -7.5 9.15 -7.0 8.6 -6.15 8.2 -5.6 7.8 -5.6 L7.05 -6.2 Q6.2 -6.7 4.8 -6.0 4.15 -5.7 3.05 -4.4 L2.0 -3.1 Q2.0 -3.65 1.25 -4.55 0.5 -5.45 0.5 -6.35 L0.55 -8.15 M-19.65 -9.15 L-19.35 -8.75 Q-18.4 -7.5 -16.5 -7.5 -15.45 -7.5 -12.25 -8.75 L-9.0 -10.0 -4.4 -9.0 -2.55 -8.65 Q-3.2 -7.9 -3.6 -7.8 L-4.1 -7.85 Q-4.9 -7.65 -5.7 -6.25 L-6.5 -4.6 -6.6 -6.25 Q-6.9 -7.5 -8.25 -7.5 -9.45 -7.5 -10.45 -5.85 L-11.5 -4.25 Q-12.0 -4.25 -12.35 -4.75 -12.9 -5.0 -15.0 -3.6 -16.65 -5.5 -19.0 -5.5 L-20.4 -5.35 -19.65 -9.15 M-1.8 22.55 L-2.5 23.5 -2.6 22.4 -2.2 23.1 -1.8 22.55 M-10.0 26.05 L-12.0 27.3 -11.0 25.7 -10.7 25.0 Q-9.95 25.0 -9.55 24.6 L-9.1 24.0 -9.0 24.25 -9.7 25.0 -10.0 26.05 M36.95 -10.2 Q36.6 -9.85 36.05 -9.85 L34.85 -10.7 33.4 -11.7 34.75 -12.1 36.3 -11.95 36.95 -10.2" fill="#9e7701" fill-rule="evenodd" stroke="none"/>
      <path d="M0.55 -8.15 L0.5 -6.35 Q0.5 -5.45 1.25 -4.55 2.0 -3.65 2.0 -3.1 L3.05 -4.4 Q4.15 -5.7 4.8 -6.0 6.2 -6.7 7.05 -6.2 L7.8 -5.6 Q8.2 -5.6 8.6 -6.15 9.15 -7.0 10.0 -7.5 11.4 -7.2 11.4 -5.75 L11.0 -3.85 11.0 -3.75 Q11.35 -3.9 11.85 -5.2 12.4 -6.65 13.05 -7.25 L14.05 -7.35 15.3 -7.6 15.8 -8.35 Q16.25 -9.0 17.25 -9.0 19.15 -9.0 19.0 -6.5 L19.05 -6.35 Q22.95 -10.5 23.5 -10.5 25.0 -10.5 25.0 -8.6 25.5 -10.45 27.45 -10.4 L27.6 -10.4 30.55 -10.75 Q32.2 -11.9 33.25 -11.75 L33.3 -11.75 33.4 -11.7 34.85 -10.7 36.05 -9.85 Q36.6 -9.85 36.95 -10.2 L38.0 -7.05 38.0 -7.0 Q38.0 1.45 32.3 5.6 L32.25 5.55 Q33.35 2.3 33.5 0.9 L33.35 0.8 Q35.0 -2.75 35.0 -4.0 35.0 -4.75 34.8 -4.85 34.7 -4.9 34.55 -5.0 L33.3 -4.85 32.8 -4.75 31.55 -0.8 Q30.8 1.4 29.6 2.9 L29.5 2.8 Q29.9 -1.8 28.0 -6.0 L25.2 -2.4 23.75 -0.6 Q22.25 2.35 21.0 3.75 20.05 3.5 19.85 2.55 L19.75 0.85 20.0 -1.9 20.15 -2.95 Q19.1 -2.6 15.9 2.9 L12.0 10.0 11.75 8.85 11.35 9.55 Q10.35 11.25 9.2 12.1 L9.3 10.8 10.0 7.7 10.5 5.0 Q10.5 4.2 10.2 3.9 L9.5 3.5 Q8.0 4.45 7.35 8.5 L7.0 12.6 7.0 13.0 6.5 13.0 6.3 13.0 Q5.5 17.15 5.5 18.25 L5.55 19.7 Q5.35 19.75 5.2 19.85 4.35 18.4 3.7 16.05 L3.6 16.3 Q3.05 14.15 1.05 14.25 L-0.4 19.15 -1.8 22.55 -2.2 23.1 -2.6 22.4 -2.7 21.55 Q-2.8 20.4 -3.5 19.5 L-7.45 23.55 -10.0 26.05 -9.7 25.0 -9.0 24.25 -9.1 24.0 -9.55 24.6 Q-9.95 25.0 -10.7 25.0 L-10.5 24.2 -9.75 23.7 -10.1 21.25 -11.25 21.0 Q-12.05 21.0 -18.85 24.75 -16.0 20.5 -16.0 20.0 -16.0 19.25 -16.15 19.15 L-16.35 19.0 -18.5 19.0 Q-19.8 19.1 -25.15 21.2 L-25.25 21.05 -22.9 18.5 Q-21.0 16.2 -21.0 15.6 -21.0 14.85 -21.15 14.7 L-21.35 14.5 Q-25.6 15.0 -26.1 14.5 -22.1 10.75 -21.35 4.6 -21.15 -2.1 -20.5 -5.0 L-20.45 -5.1 -20.4 -5.35 -19.0 -5.5 Q-16.65 -5.5 -15.0 -3.6 -12.9 -5.0 -12.35 -4.75 -12.0 -4.25 -11.5 -4.25 L-10.45 -5.85 Q-9.45 -7.5 -8.25 -7.5 -6.9 -7.5 -6.6 -6.25 L-6.5 -4.6 -5.7 -6.25 Q-4.9 -7.65 -4.1 -7.85 L-3.6 -7.8 Q-3.2 -7.9 -2.55 -8.65 L-2.5 -8.75 -2.15 -9.45 Q-1.8 -10.0 -1.0 -10.0 0.35 -10.0 0.55 -8.3 L0.55 -8.15" fill="#745701" fill-rule="evenodd" stroke="none"/>
      <path d="M-17.85 -12.9 L-17.35 -13.55 -11.5 -14.0 -7.1 -13.4 -3.0 -12.5 2.65 -11.5 Q6.5 -10.95 7.5 -9.75 6.85 -8.55 6.35 -8.3 L3.0 -8.0 2.75 -8.0 0.55 -8.15 0.55 -8.3 Q0.35 -10.0 -1.0 -10.0 -1.8 -10.0 -2.15 -9.45 L-2.5 -8.75 -2.55 -8.65 -4.4 -9.0 -9.0 -10.0 -12.25 -8.75 Q-15.45 -7.5 -16.5 -7.5 -18.4 -7.5 -19.35 -8.75 L-19.65 -9.15 -19.55 -9.55 -19.25 -10.35 -17.85 -12.9 M27.6 -10.4 L27.2 -10.8 26.75 -11.6 22.85 -10.8 19.5 -10.0 17.25 -10.25 17.15 -10.65 Q17.0 -11.0 17.0 -11.75 17.0 -13.8 20.8 -14.35 23.1 -14.7 23.75 -15.65 24.25 -16.5 26.25 -16.5 26.9 -16.5 27.55 -16.15 L29.3 -14.85 Q30.95 -15.25 31.6 -16.2 32.15 -17.0 33.5 -17.0 L34.55 -16.8 36.3 -11.95 34.75 -12.1 33.4 -11.7 33.3 -11.75 33.25 -11.75 Q32.2 -11.9 30.55 -10.75 L27.6 -10.4" fill="#dfa802" fill-rule="evenodd" stroke="none"/>
      <path d="M28.85 11.75 L29.5 11.65 Q29.25 13.95 29.5 15.8 29.6 17.35 29.2 18.8 28.8 20.35 28.0 21.05 24.4 24.25 17.1 24.3 L7.35 24.45 7.9 20.85 8.0 20.8 8.9 16.5 Q9.65 16.4 9.25 16.05 L9.25 16.0 10.5 16.0 11.1 15.7 11.5 15.05 11.5 14.95 11.75 15.0 14.25 14.55 Q16.55 13.85 19.55 13.25 L28.85 11.75 M12.05 23.45 L11.9 23.4 12.0 23.5 12.05 23.45" fill="#fdcd9d" fill-rule="evenodd" stroke="none"/>
      <path d="M20.35 8.7 L19.0 9.75 Q17.75 9.35 17.4 8.65 17.25 8.4 17.25 7.75 L17.3 6.5 Q19.6 6.5 20.75 8.0 L20.35 8.7" fill="#ffffff" fill-rule="evenodd" stroke="none"/>
    </g>
    <g id="shape3" transform="matrix(1.0, 0.0, 0.0, 1.0, 15.5, 75.5)">
      <path d="M7.8 -75.5 Q8.65 -75.5 8.8 -75.0 9.0 -74.45 9.0 -71.75 9.0 -68.25 7.4 -66.65 5.75 -65.05 5.75 -63.5 5.75 -62.6 6.65 -60.75 7.5 -58.85 7.5 -57.25 7.5 -52.75 4.1 -49.1 1.8 -46.65 -0.75 -45.5 L-1.9 -45.5 -1.5 -45.0 -0.75 -34.6 -0.35 -32.55 0.0 -30.6 0.15 -30.55 Q0.65 -30.4 1.0 -29.0 2.0 -24.85 2.0 -10.0 2.0 4.3 0.85 18.8 -0.1 30.4 -1.0 34.5 -1.4 36.5 -2.45 38.5 -3.5 40.5 -4.15 40.5 -5.9 40.5 -8.45 29.35 -11.65 15.15 -11.25 -4.5 -11.5 -28.5 -11.25 -29.1 L-11.35 -29.3 -10.5 -29.5 -10.4 -29.5 Q-11.65 -30.4 -11.25 -31.6 L-11.1 -31.9 -10.95 -31.95 -10.75 -43.6 Q-10.8 -45.5 -10.35 -46.5 L-10.5 -46.5 Q-12.75 -46.5 -14.5 -52.4 -16.75 -60.0 -14.0 -70.5 -11.0 -73.9 -9.15 -74.6 L-4.5 -75.0 -0.4 -74.5 3.65 -74.0 Q4.0 -74.0 5.55 -74.75 7.1 -75.5 7.8 -75.5 M6.75 -70.4 L6.75 -72.0 0.2 -72.5 -4.5 -73.0 -4.7 -73.0 Q-7.9 -72.95 -9.75 -71.5 -13.25 -68.75 -13.25 -61.0 -13.25 -53.9 -11.35 -50.4 -9.5 -48.15 -9.5 -47.75 L-9.6 -47.35 -9.5 -47.4 -8.55 -47.5 -6.15 -46.95 -3.9 -46.15 -4.0 -46.5 -4.0 -47.9 -3.1 -47.0 -2.65 -47.4 Q-2.5 -47.7 -2.5 -48.5 L-2.5 -48.75 -2.8 -48.6 -2.5 -48.8 Q-2.35 -48.65 -2.35 -48.3 -2.35 -47.6 -1.75 -47.6 0.2 -47.6 2.75 -51.1 5.25 -54.6 5.25 -57.25 5.25 -58.8 4.4 -60.25 L4.15 -60.7 Q3.5 -61.95 3.5 -63.5 3.5 -65.95 4.95 -67.7 L6.0 -68.85 6.75 -69.6 6.75 -70.4 M-8.25 -45.0 Q-8.75 -41.0 -8.95 -31.65 L-7.85 -31.0 Q-6.35 -30.0 -5.4 -30.0 -4.65 -30.0 -3.55 -30.95 L-2.55 -31.65 -3.75 -44.0 -6.0 -44.45 -8.25 -45.0 M-9.55 -28.8 L-9.5 -28.35 -9.7 -22.25 Q-10.2 -6.1 -7.75 21.3 -7.45 24.35 -6.25 29.0 L-4.25 36.3 -4.0 36.5 -3.95 36.4 Q-2.45 30.25 -1.35 17.0 -0.25 3.25 -0.25 -10.25 L-0.8 -20.0 -1.4 -29.35 -1.55 -29.45 Q-2.3 -28.5 -3.0 -28.2 L-5.4 -28.0 Q-7.25 -28.0 -9.25 -28.85 L-9.65 -29.05 -9.55 -28.8" fill="#000000" fill-rule="evenodd" stroke="none"/>
      <path d="M-4.25 36.3 L-6.25 29.0 Q-7.45 24.35 -7.75 21.3 -10.2 -6.1 -9.7 -22.25 L-9.5 -28.35 -9.55 -28.8 -9.25 -28.85 Q-7.25 -28.0 -5.4 -28.0 L-3.0 -28.2 Q-2.3 -28.5 -1.55 -29.45 L-1.4 -29.35 -0.8 -20.0 -0.25 -10.25 Q-0.25 3.25 -1.35 17.0 -2.45 30.25 -3.95 36.4 L-4.25 36.3" fill="#663300" fill-rule="evenodd" stroke="none"/>
      <path d="M-8.25 -45.0 L-6.0 -44.45 -3.75 -44.0 -2.55 -31.65 -3.55 -30.95 Q-4.65 -30.0 -5.4 -30.0 -6.35 -30.0 -7.85 -31.0 L-8.95 -31.65 Q-8.75 -41.0 -8.25 -45.0" fill="#999999" fill-rule="evenodd" stroke="none"/>
      <path d="M6.75 -70.4 L6.75 -69.6 6.0 -68.85 6.0 -69.0 Q6.0 -70.2 6.75 -70.4 M4.15 -60.7 L4.4 -60.25 Q5.25 -58.8 5.25 -57.25 5.25 -54.6 2.75 -51.1 0.2 -47.6 -1.75 -47.6 -2.35 -47.6 -2.35 -48.3 -2.35 -48.65 -2.5 -48.8 L-2.8 -48.6 -2.5 -48.75 -2.5 -48.5 Q-2.5 -47.7 -2.65 -47.4 L-3.1 -47.0 -4.0 -47.9 -4.0 -46.5 -3.9 -46.15 -6.15 -46.95 -8.55 -47.5 -9.5 -47.4 -9.5 -47.75 Q-9.5 -48.15 -11.35 -50.4 -13.25 -53.9 -13.25 -61.0 -13.25 -68.75 -9.75 -71.5 -7.9 -72.95 -4.7 -73.0 L-5.1 -72.95 Q-6.9 -72.75 -7.75 -70.6 L-8.85 -66.5 Q-9.0 -65.5 -8.2 -65.3 L-6.5 -64.85 Q-6.85 -63.6 -6.55 -61.35 -6.2 -58.5 -4.65 -58.5 -3.9 -58.5 -2.85 -59.8 L-1.0 -62.0 0.3 -59.8 Q1.0 -59.0 1.8 -59.0 2.95 -59.0 4.15 -60.7" fill="#cc6600" fill-rule="evenodd" stroke="none"/>
      <path d="M-4.7 -73.0 L-4.5 -73.0 0.2 -72.5 6.75 -72.0 6.75 -70.4 Q6.0 -70.2 6.0 -69.0 L6.0 -68.85 4.95 -67.7 Q3.5 -65.95 3.5 -63.5 3.5 -61.95 4.15 -60.7 2.95 -59.0 1.8 -59.0 1.0 -59.0 0.3 -59.8 L-1.0 -62.0 -2.85 -59.8 Q-3.9 -58.5 -4.65 -58.5 -6.2 -58.5 -6.55 -61.35 -6.85 -63.6 -6.5 -64.85 L-8.2 -65.3 Q-9.0 -65.5 -8.85 -66.5 L-7.75 -70.6 Q-6.9 -72.75 -5.1 -72.95 L-4.7 -73.0" fill="#ff0000" fill-rule="evenodd" stroke="none"/>
    </g>
    <g id="shape4" transform="matrix(1.0, 0.0, 0.0, 1.0, 12.9, 22.05)">
      <path d="M-3.05 -7.05 L4.2 -6.85 7.55 -6.1 9.05 -9.05 Q11.1 -13.05 11.1 -15.05 L10.5 -17.25 10.1 -18.45 10.0 -18.55 Q8.95 -19.8 8.25 -19.8 5.45 -19.8 0.15 -16.05 -4.6 -12.75 -5.55 -11.1 -6.5 -9.25 -7.2 -8.15 L-8.15 -6.75 -3.05 -7.05 M-8.35 16.0 L-8.9 13.55 -8.5 13.4 -8.55 12.7 -8.55 12.35 -9.9 8.9 -9.75 7.8 -10.0 7.8 Q-11.0 7.8 -12.05 5.95 -12.9 4.4 -12.9 3.6 L-12.35 -0.55 -11.85 -4.7 Q-11.85 -5.4 -11.0 -5.9 -10.8 -7.35 -7.15 -12.7 -3.95 -16.4 0.6 -19.15 5.35 -22.05 8.55 -22.05 10.05 -22.05 11.35 -20.3 L11.85 -19.6 Q13.4 -18.1 13.4 -14.55 13.4 -11.9 12.0 -9.2 10.85 -6.9 8.8 -4.8 L8.8 -4.6 Q8.8 -2.95 7.6 -0.9 L6.2 1.0 7.4 3.3 7.3 3.85 8.15 5.3 8.9 4.8 8.85 5.35 Q8.85 6.35 9.4 7.45 L9.1 7.55 Q10.2 10.35 10.2 12.0 10.2 12.55 11.15 14.15 L11.45 14.7 12.15 16.8 12.6 17.7 12.05 17.7 Q11.6 19.4 6.4 22.15 0.65 25.15 -2.85 25.15 -3.95 25.15 -4.85 24.4 L-4.9 24.45 -6.3 21.05 -8.15 16.65 -8.25 16.0 -8.35 16.0 M6.05 -4.3 Q-2.3 -4.9 -9.2 -4.25 L-9.95 0.05 -10.55 3.85 -10.3 5.0 -9.9 5.6 Q-5.45 2.8 1.6 0.75 6.15 -0.6 6.15 -2.45 L6.05 -4.3 M4.55 2.15 Q1.95 3.65 -3.2 5.6 L-7.8 7.25 -7.35 8.85 -6.8 11.15 -6.4 11.2 -6.3 11.25 Q-4.55 10.15 5.05 3.15 L4.55 2.15 M0.35 9.8 L-6.15 13.6 Q-6.05 16.1 -5.25 18.95 -4.1 22.85 -2.4 22.85 L1.05 21.8 Q4.4 20.55 6.1 19.5 L8.1 18.8 Q9.15 18.4 9.65 17.15 L9.65 16.55 5.85 5.8 Q4.05 7.5 0.35 9.8" fill="#000000" fill-rule="evenodd" stroke="none"/>
      <path d="M-3.05 -7.05 L-8.15 -6.75 -7.2 -8.15 Q-6.5 -9.25 -5.55 -11.1 -4.6 -12.75 0.15 -16.05 5.45 -19.8 8.25 -19.8 8.95 -19.8 10.0 -18.55 L10.1 -18.45 10.5 -17.25 11.1 -15.05 Q11.1 -13.05 9.05 -9.05 L7.55 -6.1 4.2 -6.85 -3.05 -7.05" fill="#244800" fill-rule="evenodd" stroke="none"/>
      <path d="M6.05 -4.3 L6.15 -2.45 Q6.15 -0.6 1.6 0.75 -5.45 2.8 -9.9 5.6 L-10.3 5.0 -10.55 3.85 -9.95 0.05 -9.2 -4.25 Q-2.3 -4.9 6.05 -4.3" fill="#339900" fill-rule="evenodd" stroke="none"/>
      <path d="M4.55 2.15 L5.05 3.15 Q-4.55 10.15 -6.3 11.25 L-6.4 11.2 -6.8 11.15 -7.35 8.85 -7.8 7.25 -3.2 5.6 Q1.95 3.65 4.55 2.15" fill="#cccccc" fill-rule="evenodd" stroke="none"/>
      <path d="M0.35 9.8 Q4.05 7.5 5.85 5.8 L9.65 16.55 9.65 17.15 Q9.15 18.4 8.1 18.8 L6.1 19.5 Q4.4 20.55 1.05 21.8 L-2.4 22.85 Q-4.1 22.85 -5.25 18.95 -6.05 16.1 -6.15 13.6 L0.35 9.8" fill="#fdcd9d" fill-rule="evenodd" stroke="none"/>
      <path d="M9.4 7.45 L9.6 7.85 9.6 8.0 Q9.6 9.8 11.05 11.75 11.1 13.25 11.45 14.7 L11.15 14.15 Q10.2 12.55 10.2 12.0 10.2 10.35 9.1 7.55 L9.4 7.45 M-8.15 16.65 L-8.3 16.25 -8.35 16.0 -8.25 16.0 -8.15 16.65" fill="#663300" fill-rule="evenodd" stroke="none"/>
    </g>
    <g id="shape5" transform="matrix(1.0, 0.0, 0.0, 1.0, 21.0, 30.55)">
      <path d="M5.05 -25.25 Q7.35 -20.2 7.8 -16.95 8.0 -15.65 8.0 -9.5 7.5 -1.25 7.5 2.8 L7.65 6.0 Q7.65 8.0 7.0 9.25 6.0 11.15 3.75 12.15 2.0 12.95 2.0 14.4 2.0 15.9 4.5 16.7 7.0 17.55 7.0 20.15 7.0 23.15 4.5 27.3 1.05 33.0 -4.5 33.0 -9.5 33.0 -14.05 27.65 -16.4 24.95 -19.0 20.05 -20.5 17.1 -20.85 13.3 L-21.0 6.55 -20.7 0.4 -20.0 -8.75 -18.7 -16.25 Q-17.85 -20.85 -16.25 -24.1 -12.7 -31.3 -4.1 -30.45 -0.75 -30.1 1.95 -28.55 4.6 -27.0 5.05 -25.25 M3.5 -23.35 Q2.75 -25.1 -0.4 -26.75 -4.55 -28.85 -9.0 -27.6 -10.5 -27.15 -12.6 -24.55 L-15.1 -21.1 Q-17.0 -18.45 -17.4 -14.1 -17.55 -9.2 -18.0 -6.85 -18.5 -4.0 -18.8 1.15 L-19.0 6.75 -18.9 12.75 Q-18.6 15.05 -16.6 19.75 -15.4 22.65 -12.35 26.1 -8.25 30.75 -4.75 30.75 0.05 30.75 3.0 25.6 5.0 22.0 5.0 20.0 5.0 19.45 2.5 18.2 0.0 17.0 0.0 14.6 0.0 11.7 0.9 10.55 1.35 10.0 2.85 9.5 5.65 8.6 5.5 2.8 5.4 -1.25 6.0 -9.5 L5.85 -15.85 Q5.5 -18.35 3.5 -23.35 M-11.5 19.65 Q-11.5 14.7 -7.25 13.25 L-4.35 13.4 Q-3.0 14.2 -3.0 16.25 -3.0 18.0 -4.0 20.0 -5.55 23.0 -8.5 23.0 -11.05 23.0 -11.5 21.4 L-11.5 19.65 M-8.15 16.7 Q-9.5 18.3 -9.5 19.8 L-9.45 20.7 -9.25 20.8 Q-6.7 20.35 -5.8 18.65 -5.55 18.1 -5.25 16.25 -6.6 14.9 -8.15 16.7" fill="#000000" fill-rule="evenodd" stroke="none"/>
      <path d="M2.55 -15.1 Q4.0 -16.3 4.0 -17.0 4.0 -17.6 3.65 -17.9 3.05 -18.4 2.5 -19.85 1.9 -21.3 -1.0 -22.35 -2.5 -22.75 -3.8 -21.15 -5.0 -19.7 -5.0 -18.0 -5.0 -17.35 -4.25 -17.0 L-3.25 -16.6 Q-4.3 -15.55 -3.6 -14.5 L-0.8 -14.25 0.5 -14.0 Q1.15 -14.0 2.55 -15.1 M3.5 -23.35 Q5.5 -18.35 5.85 -15.85 L6.0 -9.5 Q5.4 -1.25 5.5 2.8 5.65 8.6 2.85 9.5 1.35 10.0 0.9 10.55 0.0 11.7 0.0 14.6 0.0 17.0 2.5 18.2 5.0 19.45 5.0 20.0 5.0 22.0 3.0 25.6 0.05 30.75 -4.75 30.75 -8.25 30.75 -12.35 26.1 -15.4 22.65 -16.6 19.75 -18.6 15.05 -18.9 12.75 L-19.0 6.75 -18.8 1.15 Q-18.5 -4.0 -18.0 -6.85 -17.55 -9.2 -17.4 -14.1 -17.0 -18.45 -15.1 -21.1 L-12.6 -24.55 Q-10.5 -27.15 -9.0 -27.6 -4.55 -28.85 -0.4 -26.75 2.75 -25.1 3.5 -23.35 M3.0 0.5 Q3.0 -4.95 1.5 -7.0 L-3.2 -2.7 Q-6.0 -0.1 -6.0 1.85 L-5.4 2.8 Q-4.75 3.7 -4.6 4.3 L-4.4 5.1 -2.5 6.5 -1.75 6.4 Q-1.5 6.3 -1.5 5.5 3.0 1.1 3.0 0.5 M0.0 -3.0 L0.5 -3.1 0.45 -2.4 -0.3 -1.25 Q0.0 -1.9 0.0 -3.0 M-8.0 -12.75 L-8.5 -13.75 Q-9.55 -15.4 -10.35 -15.75 -11.8 -16.35 -12.8 -15.45 -13.5 -14.8 -13.75 -13.6 -13.9 -12.7 -14.75 -11.75 -15.5 -10.9 -15.5 -9.65 -15.5 -8.85 -14.85 -7.8 L-14.0 -6.25 -13.8 -3.8 Q-13.35 -2.5 -10.0 -2.5 L-9.15 -2.65 -9.1 -2.85 -9.0 -3.8 Q-9.0 -4.55 -7.25 -5.65 -5.5 -6.75 -5.5 -7.75 -5.5 -8.6 -6.35 -12.25 L-8.0 -12.75 M-9.1 8.7 Q-8.0 6.75 -8.0 6.0 -8.0 4.8 -8.85 4.5 -10.55 3.85 -11.5 3.0 -13.5 3.9 -14.1 4.9 -14.5 5.5 -14.5 6.55 L-14.45 7.45 -14.1 7.75 -13.25 8.0 -12.05 7.65 -11.5 7.5 -11.5 7.8 Q-11.6 8.3 -12.35 9.0 -13.0 9.65 -13.0 10.25 -13.0 11.5 -11.5 11.5 -10.35 10.8 -9.1 8.7 M-11.5 19.65 L-11.5 21.4 Q-11.05 23.0 -8.5 23.0 -5.55 23.0 -4.0 20.0 -3.0 18.0 -3.0 16.25 -3.0 14.2 -4.35 13.4 L-7.25 13.25 Q-11.5 14.7 -11.5 19.65" fill="#663300" fill-rule="evenodd" stroke="none"/>
      <path d="M2.55 -15.1 Q1.15 -14.0 0.5 -14.0 L-0.8 -14.25 -3.6 -14.5 Q-4.3 -15.55 -3.25 -16.6 L-4.25 -17.0 Q-5.0 -17.35 -5.0 -18.0 -5.0 -19.7 -3.8 -21.15 -2.5 -22.75 -1.0 -22.35 1.9 -21.3 2.5 -19.85 3.05 -18.4 3.65 -17.9 4.0 -17.6 4.0 -17.0 4.0 -16.3 2.55 -15.1" fill="#ff0000" fill-rule="evenodd" stroke="none"/>
      <path d="M-8.0 -12.75 L-6.35 -12.25 Q-5.5 -8.6 -5.5 -7.75 -5.5 -6.75 -7.25 -5.65 -9.0 -4.55 -9.0 -3.8 L-9.1 -2.85 -9.15 -2.65 -10.0 -2.5 Q-13.35 -2.5 -13.8 -3.8 L-14.0 -6.25 -14.85 -7.8 Q-15.5 -8.85 -15.5 -9.65 -15.5 -10.9 -14.75 -11.75 -13.9 -12.7 -13.75 -13.6 -13.5 -14.8 -12.8 -15.45 -11.8 -16.35 -10.35 -15.75 -9.55 -15.4 -8.5 -13.75 L-8.0 -12.75" fill="#003366" fill-rule="evenodd" stroke="none"/>
      <path d="M0.0 -3.0 Q0.0 -1.9 -0.3 -1.25 L0.45 -2.4 0.5 -3.1 0.0 -3.0 M3.0 0.5 Q3.0 1.1 -1.5 5.5 -1.5 6.3 -1.75 6.4 L-2.5 6.5 -4.4 5.1 -4.6 4.3 Q-4.75 3.7 -5.4 2.8 L-6.0 1.85 Q-6.0 -0.1 -3.2 -2.7 L1.5 -7.0 Q3.0 -4.95 3.0 0.5" fill="#006633" fill-rule="evenodd" stroke="none"/>
      <path d="M-9.1 8.7 Q-10.35 10.8 -11.5 11.5 -13.0 11.5 -13.0 10.25 -13.0 9.65 -12.35 9.0 -11.6 8.3 -11.5 7.8 L-11.5 7.5 -12.05 7.65 -13.25 8.0 -14.1 7.75 -14.45 7.45 -14.5 6.55 Q-14.5 5.5 -14.1 4.9 -13.5 3.9 -11.5 3.0 -10.55 3.85 -8.85 4.5 -8.0 4.8 -8.0 6.0 -8.0 6.75 -9.1 8.7" fill="#ffcc33" fill-rule="evenodd" stroke="none"/>
    </g>
  </defs>
</svg>
