<?xml version="1.0" encoding="UTF-8" standalone="no"?>
<svg xmlns:ffdec="https://www.free-decompiler.com/flash" xmlns:xlink="http://www.w3.org/1999/xlink" ffdec:objectType="frame" height="134.4px" width="236.35px" xmlns="http://www.w3.org/2000/svg">
  <g transform="matrix(1.0, 0.0, 0.0, 1.0, 95.25, 127.95)">
    <use ffdec:characterId="101" height="43.5" transform="matrix(1.0, 0.0, 0.0, 1.0, -39.5, -42.5)" width="134.5" xlink:href="#shape0"/>
    <use ffdec:characterId="618" height="49.85" transform="matrix(1.0, 0.0, 0.0, 1.0, -49.0, -47.3)" width="148.4" xlink:href="#shape1"/>
  </g>
  <defs>
    <g id="shape0" transform="matrix(1.0, 0.0, 0.0, 1.0, 67.25, 21.75)">
      <path d="M10.3 -14.4 L10.9 -16.55 11.1 -17.25 10.4 -16.65 Q7.65 -14.25 6.75 -12.95 L4.5 -9.4 Q3.3 -6.9 4.25 -5.45 L4.25 -0.6 4.55 -0.5 Q4.65 0.3 4.25 1.6 4.3 2.0 5.0 2.25 L7.4 2.5 9.25 2.35 10.05 1.55 Q9.2 0.45 8.85 -1.6 L8.75 -4.25 Q8.75 -7.5 9.95 -13.1 L10.3 -14.4 M12.6 -15.5 Q11.45 -13.0 11.25 -11.95 10.95 -10.65 10.85 -8.15 L10.95 -8.15 Q12.05 -7.8 13.25 -6.45 14.85 -4.95 17.8 -5.4 19.35 -5.65 20.75 -4.25 L20.75 -8.7 Q21.6 -9.65 22.05 -11.7 22.55 -14.05 23.1 -15.0 25.25 -18.8 35.25 -19.5 45.5 -24.1 55.2 -14.7 59.0 -11.05 61.45 -6.3 63.75 -1.85 63.75 1.3 63.75 4.85 61.75 8.05 60.5 10.05 58.75 11.2 L60.0 11.8 Q60.65 11.1 62.05 10.3 63.85 9.25 65.0 9.25 66.55 9.25 67.05 11.3 L67.25 13.35 Q67.25 16.45 65.05 17.35 L65.5 18.25 65.8 18.25 66.05 18.4 Q66.25 18.5 66.25 19.25 L66.1 19.95 Q65.9 19.95 65.8 20.25 L64.95 20.25 64.75 20.25 64.5 20.25 46.8 20.85 Q43.5 21.7 40.75 21.75 L-66.35 21.75 -66.55 21.6 -66.75 20.9 -67.2 20.15 -67.25 19.25 Q-67.25 16.5 -65.55 14.9 L-60.1 10.55 Q-59.35 9.9 -57.75 9.25 -56.7 8.8 -56.7 8.15 L-56.75 7.05 Q-56.3 6.15 -54.6 4.9 L-51.85 3.0 Q-48.35 0.55 -44.7 2.4 L-44.65 2.45 Q-42.55 1.1 -41.1 0.45 L-40.75 -0.45 -40.3 -2.7 Q-40.0 -3.85 -38.5 -4.95 -36.3 -6.6 -27.75 -6.7 L-26.45 -8.1 Q-24.05 -9.9 -20.05 -7.15 -19.55 -10.3 -17.95 -13.2 -15.2 -18.05 -10.25 -20.25 L-9.7 -20.05 -9.75 -18.6 -9.4 -15.5 Q-10.55 -13.0 -10.75 -11.95 -11.05 -10.6 -11.15 -8.1 L-10.4 -8.45 -8.85 -8.85 Q-8.3 -11.65 -6.95 -14.3 -4.2 -19.4 0.75 -21.75 L1.3 -21.55 1.25 -20.0 1.6 -16.7 Q0.45 -14.05 0.25 -12.95 L-0.15 -9.4 1.0 -9.45 2.45 -9.3 Q3.0 -11.3 4.05 -13.2 6.8 -18.05 11.75 -20.25 L12.3 -20.05 12.25 -18.6 12.6 -15.5 M2.0 -0.35 L1.9 -0.9 1.8 -2.95 1.75 -3.0 1.75 -3.75 1.65 -5.75 1.8 -5.65 2.0 -7.25 0.4 -7.55 -0.2 -7.75 -0.2 -7.6 -0.25 -5.0 Q-0.25 -3.35 0.45 -0.25 L0.75 1.05 0.75 1.1 0.75 1.55 0.6 2.4 Q0.3 3.15 -0.5 3.75 -1.75 4.75 -3.25 4.75 -7.0 4.75 -7.95 3.4 L-8.2 2.3 -8.25 1.8 Q-8.9 0.5 -9.1 -1.25 L-9.1 -1.3 -9.2 -3.4 -9.25 -3.45 -9.25 -4.25 -9.35 -6.4 -9.2 -6.25 -9.15 -6.75 -9.45 -6.55 -11.25 -5.75 -11.25 -4.45 -11.25 -4.4 -11.25 -4.25 -10.95 -1.95 -10.25 1.25 -10.25 1.3 -10.25 1.75 Q-10.25 2.3 -10.55 2.85 L-11.5 3.8 Q-12.75 4.75 -14.25 4.75 L-16.25 4.65 -16.55 4.6 -16.25 4.75 Q-18.05 5.8 -19.25 5.65 -20.75 5.5 -22.75 6.25 L-23.5 6.0 -23.75 5.1 -23.75 5.0 Q-23.75 3.4 -21.85 3.2 -20.6 3.1 -18.75 3.7 L-18.95 3.5 Q-19.2 3.15 -19.25 1.95 -19.9 0.75 -20.1 -0.9 L-20.15 -1.45 -20.2 -2.95 -20.25 -3.0 -20.25 -3.75 -20.35 -5.75 -20.2 -5.65 -20.1 -6.6 Q-21.05 -6.0 -22.5 -6.2 -24.5 -6.5 -25.0 -6.2 L-25.45 -4.5 Q-25.85 -3.55 -27.25 -3.25 L-28.0 -3.6 -28.1 -3.75 -30.4 -3.85 -35.2 -4.0 -36.35 -3.45 Q-37.55 -2.85 -37.75 -2.45 L-38.45 -0.5 -38.6 0.15 -38.25 0.75 -39.4 1.95 Q-40.3 3.0 -41.65 3.5 L-41.7 3.5 -42.6 4.95 Q-43.15 5.75 -44.0 5.75 -44.9 5.75 -45.55 3.85 -49.2 3.85 -50.25 4.55 L-52.45 5.95 Q-53.95 7.0 -54.35 7.75 L-54.5 9.7 Q-54.6 11.05 -55.75 11.25 -58.15 11.65 -61.5 14.3 -63.15 15.65 -64.3 17.55 L-65.65 20.05 -61.45 19.5 Q-54.0 18.9 -35.95 19.0 L8.65 19.5 31.3 18.9 57.35 18.35 57.4 18.35 62.4 18.3 62.3 17.75 Q59.9 17.55 58.75 15.3 L58.1 13.45 57.75 12.8 57.2 12.8 Q54.6 12.85 54.0 13.55 53.4 14.25 52.5 14.25 L50.75 14.0 Q50.05 14.0 50.3 13.25 L50.55 12.05 50.7 11.65 50.6 11.7 Q49.9 11.7 46.55 10.5 L45.8 7.75 45.75 7.75 45.5 6.8 44.3 6.8 Q40.45 6.95 38.3 9.4 35.7 12.25 33.25 12.25 30.95 12.25 30.7 11.75 30.8 11.0 30.25 10.5 L24.55 9.5 24.25 7.75 24.05 5.75 Q23.75 5.75 23.75 5.3 19.45 6.35 17.2 5.35 16.0 4.75 15.8 4.1 L14.75 3.4 Q13.85 2.5 12.9 2.5 12.0 2.5 10.65 3.9 9.3 5.25 5.5 5.25 3.7 5.25 3.25 4.55 L3.75 4.1 3.05 3.5 2.85 2.85 2.85 2.8 2.8 2.5 2.75 1.95 Q2.2 0.95 2.0 -0.35 M19.75 -1.5 L19.75 -2.7 Q12.9 -3.0 11.55 -4.65 L10.8 -6.0 10.75 -4.45 Q10.75 -2.85 11.5 0.15 13.75 -1.15 15.55 0.4 L17.05 1.85 17.95 0.95 20.0 -1.3 20.1 -1.4 19.75 -1.5 M26.3 -10.0 L28.1 -9.75 Q29.85 -9.25 30.8 -8.5 32.25 -7.5 32.6 -6.25 L32.75 -4.0 Q32.75 -1.85 32.0 -0.25 30.55 2.75 27.0 2.75 24.9 2.75 23.8 1.95 L23.1 1.15 23.0 0.95 22.75 -1.0 22.85 -1.55 23.85 -5.55 Q24.95 -9.5 25.25 -9.7 L25.3 -9.7 Q25.7 -9.95 26.3 -10.0 M22.9 3.5 L24.8 3.5 Q26.05 4.3 26.2 5.75 L26.3 7.0 26.25 7.55 26.9 7.55 26.75 7.0 Q26.75 5.0 29.0 4.65 31.25 4.3 31.25 6.4 31.25 7.15 30.75 7.75 L30.7 7.8 Q31.65 8.05 31.95 8.6 L32.35 9.55 Q32.65 10.0 33.55 10.0 35.15 10.0 37.3 7.4 37.95 6.6 38.75 6.05 35.65 5.65 34.05 4.5 32.75 3.55 32.75 2.4 32.75 -3.65 40.0 -3.95 42.85 -4.05 45.0 -2.9 47.25 -1.65 47.25 0.35 47.25 2.7 46.55 4.0 L45.75 5.1 Q47.25 5.55 47.9 6.65 48.5 7.6 48.25 8.3 51.15 8.15 52.1 9.55 L52.3 10.15 52.5 10.75 52.55 10.85 55.15 9.65 Q58.95 8.05 59.55 7.3 61.55 5.0 61.75 4.15 L61.75 1.75 Q61.75 -3.7 57.25 -8.5 56.5 -11.25 54.5 -13.35 50.65 -17.5 41.65 -17.5 30.3 -17.5 27.5 -15.95 24.25 -14.2 22.75 -6.25 L22.65 -3.25 22.5 -1.6 22.05 -0.25 22.05 -0.2 22.0 -0.15 20.3 1.9 20.2 2.05 19.0 3.3 19.3 3.3 22.9 3.5 M38.85 -0.95 Q38.25 -1.85 37.5 -1.2 L38.85 1.45 Q37.25 2.75 37.25 3.65 L37.3 4.15 37.75 4.2 39.65 2.6 41.0 3.95 41.5 3.45 40.4 1.95 40.5 1.85 Q42.75 -0.1 42.75 -0.55 L42.6 -0.95 42.25 -1.05 39.75 0.8 39.6 0.45 38.85 -0.95 M28.25 -3.9 L28.1 -4.25 27.35 -5.65 Q26.75 -6.55 26.0 -5.9 26.45 -4.65 27.35 -3.25 25.75 -1.95 25.75 -1.05 L25.8 -0.55 26.25 -0.5 28.15 -2.1 29.5 -0.75 30.0 -1.25 28.9 -2.75 29.0 -2.85 Q31.25 -4.8 31.25 -5.25 L31.1 -5.65 30.75 -5.75 28.25 -3.9 M61.05 14.85 Q61.2 15.55 62.0 15.55 64.8 15.55 65.2 13.95 65.45 12.85 64.75 11.55 63.4 11.8 62.45 12.75 L61.0 13.8 61.05 14.85 M1.75 10.25 Q3.25 11.45 3.25 13.05 L3.1 15.0 Q2.7 15.75 1.0 15.75 L-1.9 15.35 -7.95 14.75 -8.1 14.5 -8.25 13.5 Q-8.25 12.9 -6.85 10.6 -5.3 8.0 -4.25 7.75 L0.5 8.2 0.75 9.0 Q1.0 9.65 1.75 10.25 M8.8 11.0 L14.25 12.5 Q13.25 9.5 12.55 9.2 L9.3 9.5 8.8 11.0 M7.8 7.9 Q9.25 6.8 11.25 7.05 16.25 7.55 16.25 12.5 L16.0 14.25 Q15.65 14.75 14.0 14.75 10.8 14.75 8.25 13.25 6.25 12.05 6.25 11.3 6.25 9.05 7.8 7.9 M-34.2 4.65 L-33.15 4.85 Q-31.85 5.55 -30.0 8.75 -29.75 9.05 -29.75 9.8 L-28.9 10.1 Q-27.9 10.35 -27.7 10.5 -27.25 10.75 -27.25 12.1 -27.25 14.15 -28.95 15.75 -30.55 17.25 -32.5 17.25 L-35.95 16.9 -38.95 16.5 -49.75 15.75 -50.6 15.0 -50.75 13.75 -50.75 13.3 -50.5 11.85 -50.45 11.8 Q-50.1 10.95 -49.1 10.5 L-47.85 10.0 -44.05 9.5 -41.05 9.05 Q-38.5 8.35 -36.95 6.5 L-36.35 5.85 Q-35.25 4.75 -34.25 4.65 L-34.2 4.65 M-5.45 2.25 L-3.6 2.35 Q-1.1 2.35 -0.9 1.7 L-0.85 1.5 Q-1.8 0.35 -2.15 -2.0 L-2.25 -4.8 Q-2.25 -8.25 -1.05 -14.15 L-0.5 -16.5 0.1 -18.55 -0.6 -17.95 -4.25 -14.0 -6.5 -10.25 Q-7.7 -7.6 -6.75 -6.05 L-6.75 -0.9 -6.45 -0.8 Q-6.35 0.05 -6.75 1.4 -6.65 2.0 -5.45 2.25 M-11.15 -16.55 L-10.9 -17.25 -11.6 -16.65 Q-14.35 -14.25 -15.25 -12.95 L-17.5 -9.4 Q-18.7 -6.9 -17.75 -5.45 L-17.75 -0.6 -17.45 -0.5 Q-17.35 0.3 -17.75 1.6 L-17.75 1.65 -17.6 1.9 Q-17.35 2.2 -16.6 2.35 L-14.6 2.5 Q-12.1 2.5 -11.9 1.85 L-11.85 1.7 Q-12.8 0.6 -13.15 -1.6 L-13.25 -4.25 Q-13.25 -7.5 -12.05 -13.1 L-11.15 -16.55 M-5.25 12.6 L-1.45 13.0 1.25 13.5 Q-1.25 10.5 -1.75 10.25 L-4.65 10.35 Q-5.0 10.85 -5.25 12.5 L-5.45 12.55 -5.25 12.6 M-29.45 12.5 L-29.25 12.3 -29.35 12.3 Q-31.3 11.85 -32.7 8.95 L-33.0 8.45 -33.2 8.25 -34.55 8.0 -34.6 8.0 -35.75 8.8 Q-37.35 11.3 -39.25 11.65 -40.4 11.85 -42.6 11.15 L-42.75 11.1 Q-45.85 11.7 -48.3 13.05 L-48.75 13.8 -47.8 13.85 -46.9 13.9 -46.85 13.9 -37.25 14.55 -32.35 15.0 Q-31.1 15.0 -30.25 13.85 L-29.45 12.5" fill="#2b2419" fill-rule="evenodd" stroke="none"/>
      <path d="M0.4 -7.55 L2.0 -7.25 1.8 -5.65 1.65 -5.75 1.75 -3.75 1.75 -3.0 1.8 -2.95 1.9 -0.9 2.0 -0.35 1.0 -0.25 0.45 -0.25 Q-0.25 -3.35 -0.25 -5.0 L-0.2 -7.6 0.4 -7.55 M2.8 2.5 L2.85 2.8 2.85 2.85 3.05 3.5 3.75 4.1 3.25 4.55 Q3.7 5.25 5.5 5.25 9.3 5.25 10.65 3.9 12.0 2.5 12.9 2.5 13.85 2.5 14.75 3.4 L15.8 4.1 Q16.0 4.75 17.2 5.35 19.45 6.35 23.75 5.3 23.75 5.75 24.05 5.75 L24.25 7.75 24.55 9.5 30.25 10.5 Q30.8 11.0 30.7 11.75 30.95 12.25 33.25 12.25 35.7 12.25 38.3 9.4 40.45 6.95 44.3 6.8 L45.75 7.75 45.8 7.75 46.55 10.5 Q49.9 11.7 50.6 11.7 L50.55 12.05 50.3 13.25 Q50.05 14.0 50.75 14.0 L52.5 14.25 Q53.4 14.25 54.0 13.55 54.6 12.85 57.2 12.8 L58.1 13.45 58.75 15.3 Q59.9 17.55 62.3 17.75 L62.4 18.3 57.4 18.35 57.35 18.35 Q53.2 16.25 49.75 16.25 47.85 16.25 47.45 15.25 47.05 14.25 46.0 14.25 44.35 14.25 43.9 12.9 43.75 12.5 43.75 11.3 L43.5 10.75 Q42.1 10.65 41.35 11.75 40.5 12.95 40.0 13.05 L32.75 14.75 29.8 14.3 Q27.35 13.8 26.5 13.25 L25.3 13.0 23.75 12.5 Q22.75 11.95 22.75 9.8 20.3 9.8 19.6 9.1 L19.25 8.0 Q19.1 7.65 18.75 7.55 L16.25 7.25 Q15.8 7.2 15.35 6.7 14.9 6.25 14.25 6.25 L5.9 6.75 -2.5 7.25 -3.45 6.8 Q-3.8 6.3 -4.45 6.3 L-20.5 9.75 Q-27.75 9.75 -27.75 6.6 L-27.5 5.4 Q-27.3 5.15 -26.5 4.8 L-23.8 5.1 -23.75 5.1 -23.5 6.0 -22.75 6.25 Q-20.75 5.5 -19.25 5.65 -18.05 5.8 -16.25 4.75 L-16.25 4.65 -14.25 4.75 Q-12.75 4.75 -11.5 3.8 L-10.55 2.85 -8.5 2.3 -8.2 2.3 -7.95 3.4 Q-7.0 4.75 -3.25 4.75 -1.75 4.75 -0.5 3.75 0.3 3.15 0.6 2.4 L2.8 2.5 M-61.45 19.5 L-65.65 20.05 -64.3 17.55 Q-63.15 15.65 -61.5 14.3 -58.15 11.65 -55.75 11.25 -54.6 11.05 -54.5 9.7 L-54.35 7.75 Q-53.95 7.0 -52.45 5.95 L-50.25 4.55 Q-49.2 3.85 -45.55 3.85 -44.9 5.75 -44.0 5.75 -43.15 5.75 -42.6 4.95 L-41.7 3.5 -41.65 3.5 Q-40.3 3.0 -39.4 1.95 L-38.25 0.75 -38.6 0.15 -38.45 -0.5 -37.75 -2.45 Q-37.55 -2.85 -36.35 -3.45 L-35.2 -4.0 -30.4 -3.85 -28.1 -3.75 -28.0 -3.6 -27.25 -3.25 Q-25.85 -3.55 -25.45 -4.5 L-25.0 -6.2 Q-24.5 -6.5 -22.5 -6.2 -21.05 -6.0 -20.1 -6.6 L-20.2 -5.65 -20.35 -5.75 -20.25 -3.75 -20.25 -3.0 -20.2 -2.95 -20.15 -1.45 -20.15 -1.2 -21.0 -1.25 Q-23.8 -1.25 -24.4 -0.25 -25.05 0.75 -26.0 0.75 -26.6 0.75 -26.95 0.3 -27.3 -0.2 -27.95 -0.2 L-30.6 0.05 -33.95 0.5 Q-32.25 2.0 -32.25 2.75 -32.25 3.4 -34.2 4.65 L-34.25 4.65 Q-35.25 4.75 -36.35 5.85 -39.05 7.3 -43.5 9.25 -44.3 9.25 -45.3 8.55 L-46.35 7.8 Q-47.6 7.8 -50.75 9.05 L-49.1 10.5 Q-50.1 10.95 -50.45 11.8 L-50.5 11.85 -50.75 13.3 Q-51.75 13.85 -53.25 14.4 -58.95 16.5 -60.6 18.0 L-61.45 19.5 M-10.95 -1.95 L-11.25 -4.25 -11.25 -4.4 -11.25 -4.45 -11.25 -5.75 -9.45 -6.55 -9.35 -6.4 -9.25 -4.25 -9.25 -3.45 -9.2 -3.4 -9.1 -1.3 -10.25 -1.25 -10.8 -1.25 -10.95 -1.95" fill="#672419" fill-rule="evenodd" stroke="none"/>
      <path d="M2.0 -0.35 Q2.2 0.95 2.75 1.95 L2.8 2.5 0.6 2.4 0.75 1.55 0.75 1.1 0.75 1.05 0.45 -0.25 1.0 -0.25 2.0 -0.35 M44.3 6.8 L45.5 6.8 45.75 7.75 44.3 6.8 M57.2 12.8 L57.75 12.8 58.1 13.45 57.2 12.8 M57.35 18.35 L31.3 18.9 8.65 19.5 -35.95 19.0 Q-54.0 18.9 -61.45 19.5 L-60.6 18.0 Q-58.95 16.5 -53.25 14.4 -51.75 13.85 -50.75 13.3 L-50.75 13.75 -50.6 15.0 -49.75 15.75 -38.95 16.5 -35.95 16.9 -32.5 17.25 Q-30.55 17.25 -28.95 15.75 -27.25 14.15 -27.25 12.1 -27.25 10.75 -27.7 10.5 -27.9 10.35 -28.9 10.1 L-29.75 9.8 Q-29.75 9.05 -30.0 8.75 -31.85 5.55 -33.15 4.85 L-34.2 4.65 Q-32.25 3.4 -32.25 2.75 -32.25 2.0 -33.95 0.5 L-30.6 0.05 -27.95 -0.2 Q-27.3 -0.2 -26.95 0.3 -26.6 0.75 -26.0 0.75 -25.05 0.75 -24.4 -0.25 -23.8 -1.25 -21.0 -1.25 L-20.15 -1.2 -20.15 -1.45 -20.1 -0.9 Q-19.9 0.75 -19.25 1.95 -19.2 3.15 -18.95 3.5 L-18.75 3.7 Q-20.6 3.1 -21.85 3.2 -23.75 3.4 -23.75 5.0 L-23.75 5.1 -23.8 5.1 -26.5 4.8 Q-27.3 5.15 -27.5 5.4 L-27.75 6.6 Q-27.75 9.75 -20.5 9.75 L-4.45 6.3 Q-3.8 6.3 -3.45 6.8 L-2.5 7.25 5.9 6.75 14.25 6.25 Q14.9 6.25 15.35 6.7 15.8 7.2 16.25 7.25 L18.75 7.55 Q19.1 7.65 19.25 8.0 L19.6 9.1 Q20.3 9.8 22.75 9.8 22.75 11.95 23.75 12.5 L25.3 13.0 26.5 13.25 Q27.35 13.8 29.8 14.3 L32.75 14.75 40.0 13.05 Q40.5 12.95 41.35 11.75 42.1 10.65 43.5 10.75 L43.75 11.3 Q43.75 12.5 43.9 12.9 44.35 14.25 46.0 14.25 47.05 14.25 47.45 15.25 47.85 16.25 49.75 16.25 53.2 16.25 57.35 18.35 M-10.55 2.85 Q-10.25 2.3 -10.25 1.75 L-10.25 1.3 -10.25 1.25 -10.95 -1.95 -10.8 -1.25 -10.25 -1.25 -9.1 -1.3 -9.1 -1.25 Q-8.9 0.5 -8.25 1.8 L-8.2 2.3 -8.5 2.3 -10.55 2.85 M-0.2 -7.6 L-0.2 -7.75 0.4 -7.55 -0.2 -7.6 M20.0 -1.3 L17.95 0.95 17.05 1.85 15.55 0.4 Q13.75 -1.15 11.5 0.15 10.75 -2.85 10.75 -4.45 L10.8 -6.0 11.55 -4.65 Q12.9 -3.0 19.75 -2.7 L19.75 -1.5 20.0 -1.3 M1.75 10.25 Q1.0 9.65 0.75 9.0 L0.5 8.2 -4.25 7.75 Q-5.3 8.0 -6.85 10.6 -8.25 12.9 -8.25 13.5 L-8.1 14.5 -7.95 14.75 -1.9 15.35 1.0 15.75 Q2.7 15.75 3.1 15.0 L3.25 13.05 Q3.25 11.45 1.75 10.25 M7.8 7.9 Q6.25 9.05 6.25 11.3 6.25 12.05 8.25 13.25 10.8 14.75 14.0 14.75 15.65 14.75 16.0 14.25 L16.25 12.5 Q16.25 7.55 11.25 7.05 9.25 6.8 7.8 7.9 M-36.35 5.85 L-36.95 6.5 Q-38.5 8.35 -41.05 9.05 L-44.05 9.5 -47.85 10.0 -49.1 10.5 -50.75 9.05 Q-47.6 7.8 -46.35 7.8 L-45.3 8.55 Q-44.3 9.25 -43.5 9.25 -39.05 7.3 -36.35 5.85" fill="#512419" fill-rule="evenodd" stroke="none"/>
      <path d="M5.0 2.25 Q5.0 2.0 5.15 1.95 L5.25 1.25 4.7 -2.6 Q4.45 -4.05 5.75 -8.2 6.4 -10.4 9.9 -14.05 L10.3 -14.4 9.95 -13.1 Q8.75 -7.5 8.75 -4.25 L8.85 -1.6 Q9.2 0.45 10.05 1.55 L9.25 2.35 7.4 2.5 5.0 2.25 M23.8 1.95 Q24.9 2.75 27.0 2.75 30.55 2.75 32.0 -0.25 32.75 -1.85 32.75 -4.0 L32.6 -6.25 Q32.25 -7.5 30.8 -8.5 29.85 -9.25 28.1 -9.75 L26.3 -10.0 Q27.75 -12.15 31.05 -13.55 35.6 -15.5 41.85 -15.5 L46.5 -15.3 Q47.95 -15.1 48.5 -14.45 L50.05 -12.2 Q52.05 -9.3 53.75 -7.7 56.55 -4.95 57.65 -2.75 58.75 -0.65 58.75 1.85 58.75 5.05 55.25 7.75 L52.3 10.15 52.1 9.55 Q51.15 8.15 48.25 8.3 48.5 7.6 47.9 6.65 47.25 5.55 45.75 5.1 L46.55 4.0 Q47.25 2.7 47.25 0.35 47.25 -1.65 45.0 -2.9 42.85 -4.05 40.0 -3.95 32.75 -3.65 32.75 2.4 32.75 3.55 34.05 4.5 35.65 5.65 38.75 6.05 37.95 6.6 37.3 7.4 35.15 10.0 33.55 10.0 32.65 10.0 32.35 9.55 L31.95 8.6 Q31.65 8.05 30.7 7.8 L30.75 7.75 Q31.25 7.15 31.25 6.4 31.25 4.3 29.0 4.65 26.75 5.0 26.75 7.0 L26.3 7.0 26.2 5.75 Q26.05 4.3 24.8 3.5 L22.9 3.5 23.8 1.95 M20.2 2.05 L19.75 2.5 19.3 3.3 19.0 3.3 20.2 2.05 M61.05 14.85 L61.0 13.8 62.45 12.75 Q63.4 11.8 64.75 11.55 65.45 12.85 65.2 13.95 64.8 15.55 62.0 15.55 61.2 15.55 61.05 14.85 M8.8 11.0 L9.3 9.5 12.55 9.2 Q13.25 9.5 14.25 12.5 L8.8 11.0 M-0.5 -16.5 L-1.05 -14.15 Q-2.25 -8.25 -2.25 -4.8 L-2.15 -2.0 Q-1.8 0.35 -0.85 1.5 L-0.9 1.7 Q-1.1 2.35 -3.6 2.35 L-5.45 2.25 -5.3 -2.9 Q-5.2 -6.25 -4.5 -8.5 -3.2 -13.15 -0.5 -16.5 M-11.3 -16.6 L-11.15 -16.55 -12.05 -13.1 Q-13.25 -7.5 -13.25 -4.25 L-13.15 -1.6 Q-12.8 0.6 -11.85 1.7 L-11.9 1.85 Q-12.1 2.5 -14.6 2.5 L-16.6 2.35 Q-16.05 1.05 -15.85 -0.65 L-15.75 -6.5 Q-15.75 -12.0 -13.25 -14.6 L-11.55 -16.3 -11.3 -16.6 M-5.25 12.5 Q-5.0 10.85 -4.65 10.35 L-1.75 10.25 Q-1.25 10.5 1.25 13.5 L-1.45 13.0 -5.25 12.6 -5.25 12.5 M-29.35 12.3 L-29.45 12.5 -30.25 13.85 Q-31.1 15.0 -32.35 15.0 L-37.25 14.55 -46.85 13.9 -41.5 13.0 -36.75 12.35 -35.7 11.55 -32.85 8.7 -33.0 8.45 -32.7 8.95 Q-31.3 11.85 -29.35 12.3" fill="#9a8b72" fill-rule="evenodd" stroke="none"/>
      <path d="M10.9 -16.55 L10.3 -14.4 9.9 -14.05 Q6.4 -10.4 5.75 -8.2 4.45 -4.05 4.7 -2.6 L5.25 1.25 5.15 1.95 Q5.0 2.0 5.0 2.25 4.3 2.0 4.25 1.6 4.65 0.3 4.55 -0.5 L4.25 -0.6 4.25 -5.45 Q3.3 -6.9 4.5 -9.4 L6.75 -12.95 Q7.65 -14.25 10.4 -16.65 L10.9 -16.55 M23.8 1.95 L22.9 3.5 19.3 3.3 19.75 2.5 20.2 2.05 20.3 1.9 22.0 -0.15 22.05 -0.2 22.05 -0.25 22.5 -1.6 22.65 -3.25 22.75 -6.25 Q24.25 -14.2 27.5 -15.95 30.3 -17.5 41.65 -17.5 50.65 -17.5 54.5 -13.35 56.5 -11.25 57.25 -8.5 61.75 -3.7 61.75 1.75 L61.75 4.15 Q61.55 5.0 59.55 7.3 58.95 8.05 55.15 9.65 L52.55 10.85 52.5 10.75 52.3 10.15 55.25 7.75 Q58.75 5.05 58.75 1.85 58.75 -0.65 57.65 -2.75 56.55 -4.95 53.75 -7.7 52.05 -9.3 50.05 -12.2 L48.5 -14.45 Q47.95 -15.1 46.5 -15.3 L41.85 -15.5 Q35.6 -15.5 31.05 -13.55 27.75 -12.15 26.3 -10.0 25.7 -9.95 25.3 -9.7 L25.25 -9.7 Q24.95 -9.5 23.85 -5.55 L22.85 -1.55 22.75 -1.0 23.0 0.95 23.1 1.15 23.8 1.95 M-5.45 2.25 Q-6.65 2.0 -6.75 1.4 -6.35 0.05 -6.45 -0.8 L-6.75 -0.9 -6.75 -6.05 Q-7.7 -7.6 -6.5 -10.25 L-4.25 -14.0 -0.6 -17.95 0.1 -18.55 -0.5 -16.5 Q-3.2 -13.15 -4.5 -8.5 -5.2 -6.25 -5.3 -2.9 L-5.45 2.25 M-11.6 -16.65 L-11.3 -16.6 -11.55 -16.3 -13.25 -14.6 Q-15.75 -12.0 -15.75 -6.5 L-15.85 -0.65 Q-16.05 1.05 -16.6 2.35 -17.35 2.2 -17.6 1.9 L-17.75 1.65 -17.75 1.6 Q-17.35 0.3 -17.45 -0.5 L-17.75 -0.6 -17.75 -5.45 Q-18.7 -6.9 -17.5 -9.4 L-15.25 -12.95 Q-14.35 -14.25 -11.6 -16.65 M-46.85 13.9 L-46.9 13.9 -47.8 13.85 -48.75 13.8 -48.3 13.05 Q-45.85 11.7 -42.75 11.1 L-42.6 11.15 Q-40.4 11.85 -39.25 11.65 -37.35 11.3 -35.75 8.8 L-34.6 8.0 -34.55 8.0 -33.2 8.25 -33.0 8.45 -32.85 8.7 -35.7 11.55 -36.75 12.35 -41.5 13.0 -46.85 13.9" fill="#aea391" fill-rule="evenodd" stroke="none"/>
      <path d="M28.25 -3.9 L30.75 -5.75 31.1 -5.65 31.25 -5.25 Q31.25 -4.8 29.0 -2.85 L28.9 -2.75 30.0 -1.25 29.5 -0.75 28.15 -2.1 26.25 -0.5 25.8 -0.55 25.75 -1.05 Q25.75 -1.95 27.35 -3.25 26.45 -4.65 26.0 -5.9 26.75 -6.55 27.35 -5.65 L28.1 -4.25 28.25 -3.9 M38.85 -0.95 L39.6 0.45 39.75 0.8 42.25 -1.05 42.6 -0.95 42.75 -0.55 Q42.75 -0.1 40.5 1.85 L40.4 1.95 41.5 3.45 41.0 3.95 39.65 2.6 37.75 4.2 37.3 4.15 37.25 3.65 Q37.25 2.75 38.85 1.45 L37.5 -1.2 Q38.25 -1.85 38.85 -0.95" fill="#c3bcb1" fill-rule="evenodd" stroke="none"/>
    </g>
    <g id="shape1" transform="matrix(1.0, 0.0, 0.0, 1.0, 74.5, 22.35)">
      <path d="M17.95 -17.15 L20.7 -17.55 22.3 -18.25 Q25.85 -19.5 33.4 -19.5 35.4 -19.5 37.45 -18.55 39.45 -17.65 41.8 -17.75 L39.4 -19.3 Q37.4 -20.6 37.4 -21.15 L37.45 -22.0 37.65 -22.35 Q43.2 -21.9 48.25 -19.3 52.8 -17.0 55.55 -13.75 56.6 -14.4 57.45 -16.0 58.2 -17.4 58.4 -18.85 L58.45 -19.15 Q58.6 -19.5 59.4 -19.5 59.85 -19.5 61.65 -15.85 63.4 -12.1 63.4 -11.0 L63.65 -6.85 63.9 -2.75 Q65.85 -3.3 67.4 -4.5 68.7 -5.5 69.15 -5.5 L70.3 -5.25 70.4 -3.0 Q70.4 -0.85 69.2 2.65 L67.8 6.6 Q72.05 7.05 73.2 9.5 73.9 10.95 73.9 17.3 73.9 22.9 73.05 23.75 72.4 24.35 68.7 24.5 L59.9 25.5 41.4 26.5 31.6 26.15 25.4 26.5 14.8 26.95 -34.5 27.0 -55.5 27.5 -72.1 26.65 Q-73.45 26.25 -73.8 25.15 -74.35 24.65 -74.5 23.65 L-74.5 21.6 Q-74.5 13.85 -71.5 9.05 -70.7 7.75 -69.0 6.45 -67.25 5.05 -65.5 4.5 -57.15 1.9 -53.3 1.5 L-51.25 1.35 Q-48.4 -1.7 -40.25 -4.75 -28.35 -8.65 -22.6 -10.75 L-16.7 -12.1 -16.3 -12.15 -16.0 -12.5 -15.75 -12.4 Q-14.7 -13.45 -12.25 -14.4 L-9.7 -15.15 -9.6 -15.3 -9.2 -15.35 -2.5 -17.5 Q8.65 -16.85 16.9 -17.35 L17.95 -17.15 M40.4 23.5 Q38.8 23.5 37.95 18.0 L37.45 13.0 37.4 12.5 Q37.4 9.55 37.6 8.65 L37.85 7.9 36.85 7.65 33.95 6.7 26.4 7.0 Q24.75 7.05 22.8 7.8 L20.65 8.5 19.8 8.25 19.45 8.05 19.4 7.25 Q19.4 6.75 19.95 5.75 20.5 4.8 20.9 4.55 L13.3 4.5 13.1 4.35 Q12.9 4.15 12.9 3.4 L14.25 1.6 15.8 -0.25 7.55 -0.8 Q7.0 -1.0 7.0 -1.85 7.0 -2.65 7.35 -3.15 L8.25 -4.1 8.5 -4.35 Q4.5 -4.3 3.35 -5.15 2.8 -5.6 3.0 -6.15 3.0 -7.45 3.95 -7.95 L6.0 -8.85 8.85 -10.85 8.5 -11.4 Q8.5 -12.35 11.35 -13.75 L14.15 -15.0 5.15 -15.25 Q-2.95 -15.25 -7.2 -13.85 L-9.25 -13.05 -10.8 -11.95 Q-11.85 -11.4 -13.6 -10.8 L-15.25 -9.65 -15.4 -9.35 Q-15.95 -8.15 -17.1 -7.75 L-18.3 -6.85 -19.85 -5.25 -22.6 -1.5 Q-23.0 -0.8 -23.0 1.3 -23.0 7.6 -11.0 11.7 L-2.75 14.25 Q1.0 15.55 1.0 16.65 1.0 18.15 -5.85 24.9 L20.8 24.75 23.4 24.7 23.45 24.35 25.8 24.35 28.85 24.4 31.65 24.2 31.75 24.4 40.45 24.2 48.1 23.9 Q46.95 23.45 46.85 22.25 L46.9 20.0 46.9 15.8 Q46.3 13.75 46.35 11.9 46.35 10.1 47.15 9.2 L40.4 8.4 39.9 10.2 Q39.4 11.8 39.4 12.4 39.4 13.4 40.4 17.55 L41.4 22.15 41.25 23.1 41.05 23.25 Q41.65 23.5 40.4 23.5 M15.7 -13.15 L12.4 -11.35 Q13.95 -9.75 11.8 -8.6 L8.0 -7.1 Q7.25 -6.85 7.0 -6.6 L11.75 -6.0 12.4 -5.0 11.2 -3.7 10.0 -2.6 19.05 -2.5 19.25 -2.25 19.4 -1.3 Q19.4 0.1 18.85 0.55 L16.65 2.05 16.4 2.3 20.9 2.15 24.05 2.0 Q24.6 3.15 23.8 4.8 L23.55 5.25 26.5 4.9 30.1 4.5 30.15 4.5 30.6 4.5 34.25 4.5 37.55 5.25 54.9 7.0 65.65 6.5 65.8 6.5 66.7 3.05 Q67.5 -0.25 68.4 -2.0 67.95 -2.2 66.35 -1.2 64.5 0.0 63.15 0.0 L61.9 -0.25 Q62.05 -4.7 61.8 -7.15 61.4 -11.45 59.3 -14.5 L57.5 -12.35 Q56.25 -11.0 55.15 -11.0 53.8 -11.0 52.8 -12.5 L50.9 -15.1 47.95 -16.8 44.4 -18.5 44.3 -17.8 44.4 -16.5 44.25 -15.05 Q44.0 -14.5 43.15 -14.5 L39.0 -15.85 Q34.65 -17.25 33.0 -17.25 25.25 -17.25 22.45 -15.95 L22.05 -15.55 20.95 -15.7 Q18.75 -14.85 16.7 -13.7 L15.7 -13.15 M57.1 23.25 L61.7 22.8 66.9 22.3 71.8 21.75 71.9 17.15 71.75 13.8 71.75 13.65 71.75 13.6 71.4 11.55 71.0 8.85 Q70.95 8.25 70.25 8.4 L57.65 9.5 57.5 9.5 57.4 10.3 57.4 12.75 57.7 16.7 58.4 22.0 58.2 22.6 Q57.95 23.0 57.15 23.0 L56.3 22.75 Q55.4 15.0 55.4 12.75 L55.5 10.35 55.7 9.5 49.9 9.35 49.4 11.05 Q48.9 12.3 48.9 16.05 L49.15 19.7 49.4 22.6 49.3 23.25 48.7 23.9 51.3 23.75 57.1 23.25 M-24.75 -1.05 Q-24.15 -3.4 -22.15 -6.0 L-19.4 -9.1 -22.0 -8.5 -29.05 -6.5 -28.55 -6.1 Q-27.05 -4.65 -25.6 -2.25 L-24.75 -1.05 M-39.55 -2.5 L-47.95 1.5 Q-45.4 1.75 -43.0 2.65 L-42.95 1.95 -42.75 1.55 Q-38.4 1.75 -32.25 0.4 L-26.75 0.6 Q-28.75 -3.75 -31.65 -5.65 -35.55 -4.25 -39.55 -2.5 M-19.1 10.25 Q-21.05 8.95 -22.3 7.55 -21.75 10.05 -21.6 12.2 L-21.5 18.85 -21.6 24.8 -8.0 24.9 Q-7.9 24.4 -5.2 21.2 L-2.0 17.5 -1.85 17.05 Q-13.55 14.0 -19.1 10.25 M-61.05 25.1 L-55.5 25.25 -38.0 24.5 -27.8 24.7 -22.95 24.8 Q-23.6 23.55 -23.6 21.5 -23.4 18.45 -23.5 17.3 L-23.95 13.25 -24.5 9.05 Q-24.85 5.15 -26.45 1.35 -27.8 2.15 -32.1 3.0 L-40.0 4.0 -41.15 4.0 -41.65 4.3 -43.0 4.5 -48.7 4.5 Q-48.2 5.1 -47.75 6.0 -46.5 8.5 -46.5 11.3 -46.5 15.2 -51.2 18.75 -54.0 20.85 -61.0 25.0 L-61.35 24.8 -62.0 24.3 Q-61.8 23.3 -55.0 18.65 -48.5 14.2 -48.5 11.5 -48.5 10.2 -50.05 7.55 -51.15 5.65 -52.2 4.55 L-59.35 4.75 -61.9 5.55 -64.75 6.55 Q-66.15 7.1 -67.85 8.4 -69.75 9.9 -70.0 11.05 -70.15 12.0 -71.45 16.35 -72.5 19.9 -72.5 21.75 L-72.2 23.25 -69.0 24.15 -61.05 25.1" fill="#362e1f" fill-rule="evenodd" stroke="none"/>
      <path d="M40.45 24.2 L31.75 24.4 31.65 24.2 28.85 24.4 25.8 24.35 23.45 24.35 23.4 24.7 20.8 24.75 -5.85 24.9 Q1.0 18.15 1.0 16.65 1.0 15.55 -2.75 14.25 L-11.0 11.7 Q-23.0 7.6 -23.0 1.3 -23.0 -0.8 -22.6 -1.5 L-19.85 -5.25 -18.3 -6.85 -17.1 -7.75 Q-15.95 -8.15 -15.4 -9.35 L-15.25 -9.65 -13.6 -10.8 Q-11.85 -11.4 -10.8 -11.95 L-9.25 -13.05 -7.2 -13.85 Q-2.95 -15.25 5.15 -15.25 L14.15 -15.0 11.35 -13.75 Q8.5 -12.35 8.5 -11.4 L8.85 -10.85 6.0 -8.85 3.95 -7.95 Q3.0 -7.45 3.0 -6.15 2.8 -5.6 3.35 -5.15 4.5 -4.3 8.5 -4.35 L8.25 -4.1 7.35 -3.15 Q7.0 -2.65 7.0 -1.85 7.0 -1.0 7.55 -0.8 L15.8 -0.25 14.25 1.6 12.9 3.4 Q12.9 4.15 13.1 4.35 L13.3 4.5 20.9 4.55 Q20.5 4.8 19.95 5.75 19.4 6.75 19.4 7.25 L19.45 8.05 19.8 8.25 20.65 8.5 22.8 7.8 Q24.75 7.05 26.4 7.0 L33.95 6.7 36.85 7.65 37.85 7.9 37.6 8.65 Q37.4 9.55 37.4 12.5 L37.45 13.0 37.95 18.0 Q38.8 23.5 40.4 23.5 L40.45 24.2 M69.65 15.5 L69.4 14.75 Q69.4 14.5 69.95 13.9 L69.65 15.5" fill="#48521f" fill-rule="evenodd" stroke="none"/>
      <path d="M40.45 24.2 L40.4 23.5 Q41.65 23.5 41.05 23.25 L41.25 23.1 41.4 22.15 40.4 17.55 Q39.4 13.4 39.4 12.4 39.4 11.8 39.9 10.2 L40.4 8.4 47.15 9.2 Q46.35 10.1 46.35 11.9 46.3 13.75 46.9 15.8 L46.9 20.0 46.85 22.25 Q46.95 23.45 48.1 23.9 L40.45 24.2" fill="#4f611f" fill-rule="evenodd" stroke="none"/>
      <path d="M57.15 23.0 L57.1 23.25 51.3 23.75 48.7 23.9 49.3 23.25 49.4 22.6 49.15 19.7 48.9 16.05 Q48.9 12.3 49.4 11.05 L49.9 9.35 55.7 9.5 55.5 10.35 55.4 12.75 Q55.4 15.0 56.3 22.75 L57.15 23.0 M-24.75 -1.05 L-25.6 -2.25 Q-27.05 -4.65 -28.55 -6.1 L-29.05 -6.5 -22.0 -8.5 -19.4 -9.1 -22.15 -6.0 Q-24.15 -3.4 -24.75 -1.05 M-19.1 10.25 Q-13.55 14.0 -1.85 17.05 L-2.0 17.5 -5.2 21.2 Q-7.9 24.4 -8.0 24.9 L-21.6 24.8 -21.5 18.85 -21.6 12.2 Q-21.75 10.05 -22.3 7.55 -21.05 8.95 -19.1 10.25" fill="#9c9485" fill-rule="evenodd" stroke="none"/>
      <path d="M-39.55 -2.5 Q-35.55 -4.25 -31.65 -5.65 -28.75 -3.75 -26.75 0.6 L-32.25 0.4 Q-38.4 1.75 -42.75 1.55 L-42.95 1.95 -43.0 2.65 Q-45.4 1.75 -47.95 1.5 L-39.55 -2.5 M-61.0 25.0 Q-54.0 20.85 -51.2 18.75 -46.5 15.2 -46.5 11.3 -46.5 8.5 -47.75 6.0 -48.2 5.1 -48.7 4.5 L-43.0 4.5 -41.65 4.3 -41.15 4.0 -40.0 4.0 -32.1 3.0 Q-27.8 2.15 -26.45 1.35 -24.85 5.15 -24.5 9.05 L-23.95 13.25 -23.5 17.3 Q-23.4 18.45 -23.6 21.5 -23.6 23.55 -22.95 24.8 L-27.8 24.7 -38.0 24.5 -55.5 25.25 -61.05 25.1 -61.0 25.0" fill="#696152" fill-rule="evenodd" stroke="none"/>
      <path d="M-61.0 25.0 L-61.05 25.1 -69.0 24.15 -72.2 23.25 -72.5 21.75 Q-72.5 19.9 -71.45 16.35 -70.15 12.0 -70.0 11.05 -69.75 9.9 -67.85 8.4 -66.15 7.1 -64.75 6.55 L-61.9 5.55 -59.35 4.75 -52.2 4.55 Q-51.15 5.65 -50.05 7.55 -48.5 10.2 -48.5 11.5 -48.5 14.2 -55.0 18.65 -61.8 23.3 -62.0 24.3 L-61.35 24.8 -61.0 25.0" fill="#4f4738" fill-rule="evenodd" stroke="none"/>
      <path d="M15.7 -13.15 L16.7 -13.7 Q18.75 -14.85 20.95 -15.7 L22.05 -15.55 22.45 -15.95 Q25.25 -17.25 33.0 -17.25 34.65 -17.25 39.0 -15.85 L43.15 -14.5 Q44.0 -14.5 44.25 -15.05 L44.4 -16.5 44.3 -17.8 44.4 -18.5 47.95 -16.8 50.9 -15.1 52.8 -12.5 Q53.8 -11.0 55.15 -11.0 56.25 -11.0 57.5 -12.35 L59.3 -14.5 Q61.4 -11.45 61.8 -7.15 62.05 -4.7 61.9 -0.25 L63.15 0.0 Q64.5 0.0 66.35 -1.2 67.95 -2.2 68.4 -2.0 67.5 -0.25 66.7 3.05 L65.8 6.5 65.65 6.5 54.9 7.0 37.55 5.25 34.25 4.5 30.6 4.5 30.15 4.5 30.1 4.5 26.5 4.9 23.55 5.25 23.8 4.8 Q24.6 3.15 24.05 2.0 L20.9 2.15 16.4 2.3 16.65 2.05 18.85 0.55 Q19.4 0.1 19.4 -1.3 L19.25 -2.25 19.05 -2.5 10.0 -2.6 11.2 -3.7 12.4 -5.0 11.75 -6.0 7.0 -6.6 Q7.25 -6.85 8.0 -7.1 L11.8 -8.6 Q13.95 -9.75 12.4 -11.35 L15.7 -13.15" fill="#85691f" fill-rule="evenodd" stroke="none"/>
      <path d="M57.15 23.0 Q57.95 23.0 58.2 22.6 L58.4 22.0 57.7 16.7 57.4 12.75 57.4 10.3 57.5 9.5 57.65 9.5 70.25 8.4 Q70.95 8.25 71.0 8.85 L71.4 11.55 71.75 13.6 71.75 13.65 71.75 13.8 71.9 17.15 71.8 21.75 66.9 22.3 61.7 22.8 57.1 23.25 57.15 23.0 M69.65 15.5 L69.95 13.9 Q69.4 14.5 69.4 14.75 L69.65 15.5" fill="#b4946d" fill-rule="evenodd" stroke="none"/>
    </g>
  </defs>
</svg>
