<?xml version="1.0" encoding="UTF-8" standalone="no"?>
<svg xmlns:ffdec="https://www.free-decompiler.com/flash" xmlns:xlink="http://www.w3.org/1999/xlink" ffdec:objectType="frame" height="484.3px" width="333.7px" xmlns="http://www.w3.org/2000/svg">
  <g transform="matrix(1.0, 0.0, 0.0, 1.0, 94.4, 55.5)">
    <use ffdec:characterId="848" height="206.5" transform="matrix(1.0, 0.0, 0.0, 1.0, 139.1, -55.5)" width="100.2" xlink:href="#shape0"/>
  </g>
  <defs>
    <g id="shape0" transform="matrix(1.0, 0.0, 0.0, 1.0, -139.1, 55.5)">
      <path d="M174.25 -19.2 L174.45 -19.45 174.45 -31.95 Q176.0 -22.8 176.2 -18.9 177.5 -12.0 177.45 -10.35 L177.25 -8.75 177.15 -8.35 Q176.95 -7.95 176.65 -8.05 175.65 -8.35 174.7 -15.9 L174.65 -17.25 174.6 -17.45 174.25 -19.2 M189.45 22.8 L189.55 22.75 189.5 22.9 189.45 22.95 189.45 22.8 M187.4 42.45 L188.05 44.6 188.3 46.6 188.75 51.4 188.65 51.7 188.6 51.45 187.75 46.75 187.4 44.9 186.95 42.6 187.4 42.45 M205.85 60.35 L206.05 60.25 205.85 60.4 205.85 60.35 M180.9 67.0 L180.5 66.95 180.5 66.9 180.7 64.2 180.9 67.0" fill="#607068" fill-rule="evenodd" stroke="none"/>
      <path d="M186.2 133.95 L186.2 134.1 186.0 133.95 186.2 133.95 M210.35 98.2 L209.85 98.45 Q209.95 98.05 210.15 97.8 L210.35 98.2" fill="#687870" fill-rule="evenodd" stroke="none"/>
      <path d="M155.45 150.95 L155.25 150.4 155.5 150.45 155.45 150.95" fill="#788880" fill-rule="evenodd" stroke="none"/>
      <path d="M170.85 -17.2 L171.4 -17.2 170.85 -17.15 170.85 -17.2 M211.3 127.35 L211.4 127.2 211.8 129.65 211.75 129.65 211.75 129.75 211.3 127.35" fill="#506060" fill-rule="evenodd" stroke="none"/>
      <path d="M174.45 -44.55 L174.45 -46.3 Q175.6 -48.4 179.1 -53.7 L178.55 -51.5 Q176.95 -44.95 176.9 -42.35 L176.95 -35.6 176.95 -33.7 176.4 -36.4 174.45 -44.55 M180.05 -55.15 L180.3 -55.5 180.55 -53.9 181.0 -51.7 181.8 -48.95 181.8 -48.9 182.85 -45.55 182.85 -45.5 183.9 -42.4 183.95 -42.35 183.25 -42.25 182.6 -45.45 182.6 -45.5 181.75 -48.9 180.95 -51.05 180.8 -51.65 180.3 -53.85 180.05 -55.15 M194.75 -33.95 L194.75 -33.85 Q194.75 -32.35 195.05 -31.2 L195.0 -31.1 194.2 -33.85 194.75 -33.95 M195.75 3.45 L195.8 2.9 195.85 2.75 196.05 3.55 195.75 3.45 M195.05 9.1 L194.85 9.5 194.85 9.35 195.05 9.1" fill="#485858" fill-rule="evenodd" stroke="none"/>
      <path d="M190.15 144.5 L189.35 144.4 189.35 143.95 189.4 143.95 190.1 144.35 190.15 144.5 M185.0 -3.0 L185.0 -2.85 184.95 -2.55 185.0 -2.45 184.95 -0.5 Q185.0 1.95 185.2 3.4 L185.05 2.6 184.85 0.85 184.9 0.75 184.9 -3.0 185.0 -3.0 M185.75 8.7 L186.0 9.9 186.4 13.7 185.75 8.7 M189.5 23.3 L189.45 22.95 189.5 22.9 189.55 22.75 189.5 23.3 M188.75 51.4 L188.9 52.95 188.7 52.05 188.65 51.7 188.75 51.4 M199.65 -3.2 L199.4 -3.5 199.4 -4.15 199.65 -3.2 M206.05 60.25 L206.1 60.75 206.05 61.1 206.15 61.8 205.8 61.0 205.85 60.4 206.05 60.25" fill="#4c4c3c" fill-rule="evenodd" stroke="none"/>
      <path d="M195.6 3.95 L195.35 5.6 195.3 4.5 195.6 3.95" fill="#424232" fill-rule="evenodd" stroke="none"/>
      <path d="M179.2 16.4 L179.3 16.25 179.3 16.4 179.2 16.4 M185.0 -2.45 L185.0 0.75 185.2 3.4 Q185.0 1.95 184.95 -0.5 L185.0 -2.45 M202.95 1.55 L203.2 1.45 203.2 1.7 202.95 1.55 M186.2 134.1 L186.15 134.9 186.0 133.95 186.2 134.1 M180.4 73.95 L180.4 75.1 180.4 75.4 180.15 73.95 180.4 73.95" fill="#575747" fill-rule="evenodd" stroke="none"/>
      <path d="M203.2 1.7 L202.95 1.95 202.95 1.55 203.2 1.7 M196.05 3.55 L195.85 2.75 195.95 2.6 196.05 3.55 M206.1 60.75 L206.15 61.8 206.05 61.1 206.1 60.75" fill="#303020" fill-rule="evenodd" stroke="none"/>
      <path d="M212.6 19.5 L213.4 26.25 214.15 32.55 214.1 38.1 213.2 30.45 Q212.65 25.25 212.6 19.5 M196.05 3.55 Q196.25 3.4 196.65 3.55 L196.05 3.6 196.05 3.55 M239.3 119.55 L239.25 119.35 239.3 119.35 239.3 119.55" fill="#586868" fill-rule="evenodd" stroke="none"/>
      <path d="M164.6 22.95 L164.6 22.75 164.9 22.95 164.6 22.95 M180.5 66.95 L180.45 68.4 Q180.5 65.6 180.7 63.75 L180.7 64.2 180.5 66.9 180.5 66.95" fill="#5d5f51" fill-rule="evenodd" stroke="none"/>
      <path d="M226.35 95.25 L227.35 97.8 227.45 98.05 227.55 99.8 228.2 103.05 228.05 103.5 225.95 96.4 226.25 95.65 226.35 95.25" fill="#607373" fill-rule="evenodd" stroke="none"/>
      <path d="M179.05 100.9 L179.1 101.85 178.85 104.15 179.05 100.9 M178.55 108.5 L178.6 108.85 178.8 109.3 178.55 109.4 178.55 108.5" fill="#696961" fill-rule="evenodd" stroke="none"/>
      <path d="M148.15 149.45 L147.85 149.5 144.05 150.5 139.1 150.3 Q139.7 144.8 142.45 135.05 143.55 131.0 144.2 129.9 146.05 119.95 146.6 118.4 153.2 100.4 155.2 84.85 158.25 63.2 158.3 48.5 158.35 40.65 159.05 29.65 159.9 17.55 160.0 12.45 L160.4 -3.0 160.35 -3.0 160.7 -10.75 Q160.75 -14.0 160.95 -17.25 L161.5 -20.9 163.4 -32.9 Q165.05 -30.65 166.55 -29.75 L166.55 -26.05 166.75 -25.85 Q167.35 -24.9 167.65 -22.8 L167.6 -22.8 166.1 -19.0 Q165.75 -17.8 165.75 -15.7 L164.6 -9.3 164.7 -8.55 165.05 -7.25 166.05 -3.0 166.15 -3.0 166.15 -2.45 165.65 15.0 Q166.0 16.1 166.3 20.85 L166.85 35.15 167.3 50.15 167.55 51.5 167.8 53.9 167.7 58.0 167.45 74.85 167.2 84.45 Q167.0 89.4 166.4 93.1 165.9 96.6 165.0 100.4 L163.2 112.55 Q160.9 125.45 160.8 127.35 159.85 137.2 159.6 144.05 159.45 147.1 158.55 150.4 L156.4 150.9 156.2 150.8 Q156.0 150.65 155.5 151.0 L155.45 150.95 155.5 150.45 155.6 148.25 155.8 144.65 157.6 130.1 159.4 116.55 160.4 109.4 160.8 106.7 161.05 104.8 161.1 104.7 161.15 104.3 161.15 104.2 161.25 103.25 161.3 102.9 161.65 99.8 161.75 99.6 161.9 98.45 163.25 87.8 163.5 85.65 163.55 85.1 Q165.3 70.55 165.65 59.0 L165.85 50.6 165.45 45.5 164.95 41.4 164.85 32.15 164.9 22.95 164.6 22.75 164.6 22.95 164.0 34.2 163.5 45.3 Q163.5 47.45 163.1 49.85 L163.1 53.9 Q162.3 84.65 155.4 110.2 151.5 124.65 150.65 128.7 148.6 138.6 148.15 149.45 M172.2 -17.35 L173.25 -18.05 174.25 -19.2 174.6 -17.45 174.65 -17.25 174.7 -15.9 Q175.65 -8.35 176.65 -8.05 176.95 -7.95 177.15 -8.35 L177.25 -8.75 177.45 -10.35 Q177.5 -12.0 176.2 -18.9 176.0 -22.8 174.45 -31.95 L174.45 -44.55 176.4 -36.4 176.95 -33.7 Q178.45 -25.4 178.9 -19.55 L179.6 -12.1 180.0 -11.25 180.7 -10.5 180.75 -10.15 180.7 -10.15 180.7 -10.1 180.9 -7.8 180.9 -4.9 181.25 -3.2 181.3 -3.0 181.55 -2.4 181.55 -1.55 181.35 4.8 Q181.7 6.8 181.7 9.35 L181.75 12.2 181.75 18.0 182.15 25.4 182.5 33.9 182.35 35.0 Q182.15 35.65 181.7 35.55 181.3 35.45 180.75 30.25 L180.1 23.5 179.45 17.75 179.3 16.4 179.3 16.25 179.2 16.4 Q178.35 16.1 176.9 2.25 L176.0 -2.65 176.05 -2.65 176.05 -2.95 173.85 -8.3 173.5 -9.15 172.25 -16.7 172.2 -17.35 M186.6 -7.15 L186.9 -7.8 187.35 -8.95 Q187.75 -10.65 188.35 -11.1 L188.65 -9.45 188.4 -3.25 188.35 -2.7 187.95 -0.4 Q187.95 5.05 188.65 12.9 L189.45 22.8 189.45 22.95 189.5 23.3 189.5 24.5 189.4 26.5 189.25 27.35 189.15 27.7 Q189.05 28.05 188.5 27.7 187.7 27.5 186.85 19.25 L186.4 13.7 186.0 9.9 185.75 8.7 185.25 3.7 185.2 3.4 185.0 0.75 185.0 -2.45 184.95 -2.55 185.0 -2.85 185.0 -3.0 185.05 -3.0 185.65 -4.65 186.45 -6.75 186.6 -7.15 M167.05 -20.9 L167.05 -20.95 167.2 -21.3 167.05 -20.9 M164.85 -7.25 L164.8 -7.3 164.8 -7.25 164.85 -7.25 M171.85 -3.0 L171.8 -3.0 171.7 -4.05 171.85 -3.0 M180.7 63.75 L180.5 58.55 181.15 58.55 Q181.6 58.65 182.25 61.45 L183.15 65.4 184.15 68.75 Q184.95 71.6 184.85 73.25 L184.8 74.05 185.0 76.8 Q185.5 83.1 186.0 94.7 186.15 104.8 186.45 114.1 L186.35 128.7 186.2 133.95 186.0 133.95 Q185.0 131.95 184.15 133.1 L182.8 136.0 180.85 140.15 182.35 109.75 182.85 91.15 182.25 83.3 181.55 75.1 180.9 67.0 180.7 64.2 180.7 63.75" fill="#3b5a4b" fill-rule="evenodd" stroke="none"/>
      <path d="M183.95 -42.35 Q185.9 -36.7 187.25 -34.45 L188.6 -34.95 188.75 -42.05 188.6 -47.55 187.3 -53.95 190.65 -52.95 191.25 -51.7 195.15 -42.95 Q195.5 -41.9 195.2 -39.05 L194.75 -33.95 194.2 -33.85 193.35 -36.8 Q191.1 -44.7 190.55 -47.9 L190.0 -51.85 Q189.6 -44.7 189.9 -39.95 L194.4 -18.45 194.9 -16.25 195.35 -9.9 194.2 -8.55 193.3 -6.95 Q192.55 -5.7 192.3 -4.7 L191.8 -6.6 191.95 -7.3 191.9 -7.5 191.6 -7.45 191.25 -8.75 Q190.2 -11.9 188.8 -17.9 186.15 -31.05 185.1 -34.8 L183.75 -39.8 183.25 -42.25 183.95 -42.35 M195.05 -31.2 L195.1 -31.1 Q196.05 -27.7 200.0 -27.7 202.2 -27.7 202.8 -29.7 L203.05 -32.5 202.8 -34.1 203.05 -36.05 Q203.4 -39.35 203.05 -43.75 L202.85 -49.45 204.9 -48.85 205.4 -43.2 206.8 -25.2 Q207.4 -17.05 209.85 -4.15 L209.75 -3.75 209.85 -3.0 208.8 -3.0 Q210.2 10.2 210.9 21.35 211.65 33.9 213.55 48.95 L214.75 57.7 216.35 68.2 219.25 85.25 Q221.8 93.3 228.25 111.95 234.2 129.55 234.25 139.75 L234.3 140.75 234.65 145.25 234.0 145.4 226.35 147.5 224.05 147.0 Q222.55 137.35 218.65 123.6 214.2 107.65 211.45 101.85 212.65 106.55 213.8 115.75 215.85 121.4 217.8 132.3 L219.65 143.05 220.35 146.65 219.35 146.65 214.6 147.05 214.55 146.65 214.25 141.4 213.25 136.65 211.8 129.65 211.4 127.2 211.3 127.35 Q210.35 121.8 209.1 121.0 L208.7 119.95 Q208.2 118.75 207.65 116.45 L205.65 109.55 Q204.15 103.7 203.7 100.75 L203.25 97.8 203.2 97.5 Q201.9 93.5 201.55 86.85 201.25 78.9 200.8 76.7 198.4 65.0 197.6 54.9 197.2 50.35 197.1 45.5 L196.75 42.15 195.45 26.8 Q194.6 17.3 194.7 13.15 L194.85 9.5 195.05 9.1 195.35 5.6 195.6 3.95 195.75 3.45 196.05 3.55 196.05 3.6 Q197.75 29.35 198.4 35.45 199.25 44.7 200.45 53.15 L200.95 53.8 201.1 53.8 201.5 56.15 Q202.55 62.85 203.45 64.85 205.8 77.15 206.15 77.25 206.75 77.4 206.9 76.6 L207.0 75.7 207.0 70.25 207.0 70.15 206.8 68.4 206.15 61.8 206.1 60.75 206.05 60.25 205.5 54.7 203.0 39.35 200.15 21.0 200.1 21.1 199.55 14.75 198.65 7.25 198.45 -2.1 198.85 -1.65 199.75 -0.95 200.0 -0.95 200.0 -2.15 199.85 -2.75 199.75 -3.0 199.7 -3.1 199.65 -3.2 199.4 -4.15 Q198.35 -9.3 198.1 -11.9 L197.7 -16.85 196.3 -25.5 195.0 -31.1 195.05 -31.2 M191.7 -7.05 L191.65 -7.15 191.7 -7.15 191.7 -7.05 M202.95 1.55 Q202.65 1.3 202.1 -3.0 L202.1 -2.9 202.2 -2.95 201.2 -6.05 201.1 -6.05 201.1 -5.5 201.2 -4.6 201.05 -3.15 201.05 -3.0 201.05 -2.95 201.4 2.75 Q201.85 11.15 202.8 16.95 203.1 20.3 203.95 25.4 205.35 33.15 206.5 36.8 L207.0 35.55 206.9 32.45 206.95 31.4 Q204.65 15.7 203.6 10.45 L202.95 1.95 203.2 1.7 203.2 1.45 202.95 1.55 M210.35 98.2 L210.15 97.8 Q209.95 98.05 209.85 98.45 L210.35 98.2 M208.05 110.0 L208.2 110.3 208.2 110.1 208.05 110.0" fill="#1a3a3a" fill-rule="evenodd" stroke="none"/>
      <path d="M167.65 -22.8 L167.7 -22.8 167.85 -22.6 167.75 -21.9 167.1 -20.3 Q166.35 -18.6 166.35 -18.0 L166.45 -17.2 Q167.2 -10.75 168.3 -3.0 L168.4 -3.0 168.4 -2.8 Q168.3 0.45 168.5 5.85 168.1 7.15 168.05 8.55 167.85 16.8 169.75 36.0 L171.6 53.8 170.2 98.05 166.05 119.8 Q163.8 132.1 163.05 140.25 L162.8 148.25 163.2 148.7 163.25 149.2 163.25 149.35 158.55 150.4 Q159.45 147.1 159.6 144.05 159.85 137.2 160.8 127.35 160.9 125.45 163.2 112.55 L165.0 100.4 Q165.9 96.6 166.4 93.1 167.0 89.4 167.2 84.45 L167.45 74.85 167.7 58.0 167.8 53.9 167.55 51.5 167.3 50.15 166.85 35.15 166.3 20.85 Q166.0 16.1 165.65 15.0 L166.15 -2.45 166.15 -3.0 166.05 -3.0 165.05 -7.25 164.7 -8.55 164.6 -9.3 165.75 -15.7 Q165.75 -17.8 166.1 -19.0 L167.6 -22.8 167.65 -22.8 M189.35 144.4 L183.45 144.15 176.7 144.15 177.7 137.35 178.0 134.6 178.1 126.55 178.2 123.6 178.2 123.15 178.4 116.05 178.55 112.65 178.55 109.4 178.8 109.3 178.6 108.85 178.55 108.5 178.6 106.8 178.65 106.4 178.8 104.55 178.8 104.45 178.85 104.15 179.1 101.85 179.05 100.9 179.05 99.25 179.15 88.35 178.75 82.25 177.0 66.85 176.5 87.65 175.75 110.45 175.15 118.75 173.1 127.45 171.95 132.2 172.25 120.5 Q173.8 114.85 174.45 103.7 L175.0 87.1 Q175.2 81.45 175.0 67.95 174.8 54.3 174.95 47.8 175.0 45.5 175.2 44.7 L175.4 44.2 175.2 38.0 178.55 52.85 Q179.15 52.95 179.15 52.55 L179.15 51.6 Q179.25 51.5 179.3 51.5 L179.4 49.45 179.3 46.35 178.85 42.75 Q178.1 36.9 176.25 27.35 172.85 10.45 172.6 8.7 L171.5 -3.0 171.6 -3.0 171.4 -5.95 171.4 -6.65 171.45 -9.35 171.55 -10.7 Q171.65 -11.85 171.9 -11.85 172.25 -11.85 173.5 -9.15 L173.85 -8.3 176.05 -2.95 176.05 -2.65 176.0 -2.65 176.9 2.25 Q178.35 16.1 179.2 16.4 L179.3 16.4 179.45 17.75 180.1 23.5 180.75 30.25 Q181.3 35.45 181.7 35.55 182.15 35.65 182.35 35.0 183.2 39.25 184.8 45.15 L185.15 46.65 185.1 49.05 185.2 49.55 186.5 59.2 188.15 68.4 189.0 79.8 189.7 86.6 189.45 97.25 189.1 97.8 189.1 111.4 Q188.95 119.15 189.1 138.0 189.45 138.85 189.35 143.95 L189.35 144.4 M155.25 150.4 Q155.25 149.5 152.95 149.25 L148.15 149.45 Q148.6 138.6 150.65 128.7 151.5 124.65 155.4 110.2 162.3 84.65 163.1 53.9 L163.1 49.85 Q163.5 47.45 163.5 45.3 L164.0 34.2 164.6 22.95 164.9 22.95 164.85 32.15 164.95 41.4 165.45 45.5 165.85 50.6 165.65 59.0 Q165.3 70.55 163.55 85.1 L163.5 85.65 163.25 87.8 161.9 98.45 161.75 99.6 161.65 99.8 161.3 102.9 161.25 103.25 161.15 104.2 161.15 104.3 161.1 104.7 161.05 104.8 160.8 106.7 160.4 109.4 159.4 116.55 157.6 130.1 155.8 144.65 155.6 148.25 155.5 150.45 155.25 150.4 M180.7 -10.5 L180.7 -10.65 181.0 -10.65 Q181.8 -9.2 182.3 -6.75 L182.85 -3.95 182.85 -3.4 183.0 -3.4 183.1 -3.0 183.15 -2.7 183.05 -2.65 183.0 -2.65 183.1 -1.85 183.0 -0.7 Q182.85 4.25 184.4 18.95 185.5 30.6 186.95 35.45 L187.4 42.45 186.95 42.6 186.15 38.65 Q183.95 28.4 183.5 25.4 L182.45 18.45 Q181.85 14.65 181.75 12.2 L181.7 9.35 Q181.7 6.8 181.35 4.8 L181.55 -1.55 181.55 -2.4 181.3 -3.0 181.25 -3.2 180.9 -4.9 180.9 -7.8 180.7 -10.1 180.7 -10.15 180.75 -10.15 180.7 -10.5 M195.35 -9.9 L195.55 -10.1 195.35 -9.8 195.4 -7.6 195.2 -5.15 194.95 -3.0 194.8 -3.0 194.75 -0.2 Q194.55 5.7 194.1 8.55 L193.3 16.1 192.95 18.95 193.85 32.15 194.5 37.05 194.35 38.95 194.35 39.05 195.6 55.1 Q197.45 77.4 199.05 89.85 L198.85 91.3 Q198.65 92.3 198.2 92.3 L198.1 92.05 Q196.85 91.75 195.3 76.7 L193.4 56.15 Q192.9 52.05 192.85 49.2 L192.5 38.55 192.5 37.75 Q191.95 35.45 191.6 31.0 L191.05 21.95 192.3 -2.55 192.1 -3.6 192.3 -4.7 Q192.55 -5.7 193.3 -6.95 L194.2 -8.55 195.35 -9.9 M167.05 -20.9 L167.2 -21.3 167.05 -20.95 167.05 -20.9 M164.85 -7.25 L164.8 -7.25 164.8 -7.3 164.85 -7.25 M166.85 -3.0 L166.85 -2.8 166.9 -3.0 166.85 -3.0 M171.85 -3.0 L171.7 -4.05 171.8 -3.0 171.85 -3.0 M196.65 3.55 Q197.55 3.85 198.5 13.95 199.1 20.75 199.35 27.5 L200.8 38.65 201.5 43.65 Q202.45 45.0 203.35 49.45 205.25 58.45 205.85 60.35 L205.85 60.4 205.8 61.0 206.15 61.8 206.8 68.4 207.0 70.15 207.0 70.25 207.0 75.7 206.9 76.6 Q206.75 77.4 206.15 77.25 205.8 77.15 203.45 64.85 202.55 62.85 201.5 56.15 L201.1 53.8 200.95 53.8 200.45 53.15 Q199.25 44.7 198.4 35.45 197.75 29.35 196.05 3.6 L196.65 3.55 M186.2 133.95 L186.35 128.7 186.45 114.1 Q186.15 104.8 186.0 94.7 185.5 83.1 185.0 76.8 L184.8 74.05 184.85 73.25 Q184.95 71.6 184.15 68.75 L183.15 65.4 182.25 61.45 Q181.6 58.65 181.15 58.55 L180.5 58.55 180.7 63.75 Q180.5 65.6 180.45 68.4 L180.5 66.95 180.9 67.0 181.55 75.1 182.25 83.3 182.85 91.15 182.35 109.75 180.85 140.15 182.8 136.0 184.15 133.1 Q185.0 131.95 186.0 133.95 L186.15 134.9 186.2 134.1 186.2 133.95 M180.4 73.95 L180.15 73.95 180.4 75.4 180.4 75.1 180.4 73.95" fill="#4b6a5b" fill-rule="evenodd" stroke="none"/>
      <path d="M167.75 -21.9 L167.85 -20.2 Q167.9 -18.1 169.65 -17.45 L170.85 -17.2 170.85 -17.15 171.4 -17.2 172.2 -17.35 172.25 -16.7 173.5 -9.15 Q172.25 -11.85 171.9 -11.85 171.65 -11.85 171.55 -10.7 L171.45 -9.35 171.4 -6.65 171.4 -5.95 171.6 -3.0 171.5 -3.0 172.6 8.7 Q172.85 10.45 176.25 27.35 178.1 36.9 178.85 42.75 L179.3 46.35 179.4 49.45 179.3 51.5 Q179.25 51.5 179.15 51.6 L179.15 52.55 Q179.15 52.95 178.55 52.85 L175.2 38.0 175.4 44.2 175.2 44.7 Q175.0 45.5 174.95 47.8 174.8 54.3 175.0 67.95 175.2 81.45 175.0 87.1 L174.45 103.7 Q173.8 114.85 172.25 120.5 L171.95 132.2 173.1 127.45 175.15 118.75 175.75 110.45 176.5 87.65 177.0 66.85 178.75 82.25 179.15 88.35 179.05 99.25 179.05 100.9 178.85 104.15 178.8 104.45 178.8 104.55 178.65 106.4 178.6 106.8 178.55 108.5 178.55 109.4 178.55 112.65 178.4 116.05 178.2 123.15 178.2 123.6 178.1 126.55 178.0 134.6 177.7 137.35 176.7 144.15 174.25 144.15 174.0 144.35 173.95 145.05 174.05 145.8 Q168.85 146.7 166.05 148.3 L165.2 148.9 163.25 149.35 163.25 149.2 163.2 148.7 162.8 148.25 163.05 140.25 Q163.8 132.1 166.05 119.8 L170.2 98.05 171.6 53.8 169.75 36.0 Q167.85 16.8 168.05 8.55 168.1 7.15 168.5 5.85 168.3 0.45 168.4 -2.8 L168.4 -3.0 168.3 -3.0 Q167.2 -10.75 166.45 -17.2 L166.35 -18.0 Q166.35 -18.6 167.1 -20.3 L167.75 -21.9 M209.85 -3.0 L210.05 -2.25 210.45 -0.65 210.6 -0.3 212.6 19.5 Q212.65 25.25 213.2 30.45 L214.1 38.1 214.15 32.55 Q219.9 78.9 226.35 95.25 L226.25 95.65 225.95 96.4 228.05 103.5 230.55 111.4 Q231.15 113.45 233.05 115.45 234.45 116.95 234.95 121.3 L235.45 127.35 Q235.6 131.0 235.9 133.0 236.1 134.1 238.75 141.4 L238.7 144.25 234.65 145.25 234.3 140.75 234.25 139.75 Q234.2 129.55 228.25 111.95 221.8 93.3 219.25 85.25 L216.35 68.2 214.75 57.7 213.55 48.95 Q211.65 33.9 210.9 21.35 210.2 10.2 208.8 -3.0 L209.85 -3.0 M208.3 148.85 L201.0 147.1 200.2 139.1 Q200.05 132.3 199.2 126.05 L198.95 121.7 198.75 117.4 198.65 113.45 Q198.4 111.15 197.75 108.35 L196.65 103.7 Q195.9 100.4 195.7 94.85 195.45 89.2 194.95 87.0 193.85 89.3 193.55 99.95 L193.5 106.3 193.55 112.85 Q193.45 116.05 194.1 121.4 L194.0 125.45 Q194.05 129.1 194.55 131.5 L195.3 130.45 Q195.4 128.0 195.8 125.25 L196.25 122.15 196.75 128.3 Q197.25 135.4 196.95 139.35 L196.8 145.3 196.8 145.9 Q193.4 144.95 190.35 144.5 190.25 144.75 190.15 144.5 L190.1 144.35 189.4 143.95 189.35 143.95 Q189.45 138.85 189.1 138.0 188.95 119.15 189.1 111.4 L189.1 97.8 189.45 97.25 189.7 86.6 189.0 79.8 188.15 68.4 186.5 59.2 185.2 49.55 185.1 49.05 185.15 46.65 184.8 45.15 Q183.2 39.25 182.35 35.0 L182.5 33.9 182.15 25.4 181.75 18.0 181.75 12.2 Q181.85 14.65 182.45 18.45 L183.5 25.4 Q183.95 28.4 186.15 38.65 L186.95 42.6 187.4 44.9 187.75 46.75 188.6 51.45 188.65 51.7 188.7 52.05 188.9 52.95 188.75 51.4 188.3 46.6 188.05 44.6 187.4 42.45 186.95 35.45 Q185.5 30.6 184.4 18.95 182.85 4.25 183.0 -0.7 L183.1 -1.85 183.0 -2.65 183.05 -2.65 183.15 -2.7 183.1 -3.0 183.0 -3.4 182.85 -3.4 182.85 -3.95 182.85 -4.35 Q183.1 -5.8 183.8 -6.85 L183.4 -12.0 Q183.35 -13.6 181.0 -22.75 178.75 -31.45 178.9 -33.6 L179.0 -35.6 179.2 -36.4 Q180.3 -37.1 181.4 -35.8 L181.75 -33.6 184.85 -19.15 Q185.3 -14.3 186.6 -7.15 L186.45 -6.75 185.65 -4.65 185.05 -3.0 185.0 -3.0 184.9 -3.0 184.9 0.75 184.85 0.85 185.05 2.6 185.2 3.4 185.25 3.7 185.75 8.7 186.4 13.7 186.85 19.25 Q187.7 27.5 188.5 27.7 189.05 28.05 189.15 27.7 L189.25 27.35 189.4 26.5 189.5 24.5 189.5 23.3 189.55 22.75 189.9 9.5 190.6 1.95 190.75 1.15 191.15 -3.0 191.2 -3.0 191.15 -3.35 191.1 -3.95 191.35 -5.7 191.7 -7.05 191.7 -7.15 191.65 -7.15 191.55 -7.3 191.55 -7.45 191.6 -7.45 191.9 -7.5 191.95 -7.3 191.8 -6.6 192.3 -4.7 192.1 -3.6 192.3 -2.55 191.05 21.95 191.6 31.0 Q191.95 35.45 192.5 37.75 L192.5 38.55 192.85 49.2 Q192.9 52.05 193.4 56.15 L195.3 76.7 Q196.85 91.75 198.1 92.05 L198.2 92.3 199.8 106.4 200.65 109.75 204.15 125.45 Q205.55 129.25 207.1 139.2 L208.3 148.85 M166.85 -3.0 L166.9 -3.0 166.85 -2.8 166.85 -3.0" fill="#224242" fill-rule="evenodd" stroke="none"/>
      <path d="M179.1 -53.7 L180.05 -55.15 180.3 -53.85 180.8 -51.65 180.95 -51.05 181.75 -48.9 182.6 -45.5 182.6 -45.45 183.25 -42.25 183.75 -39.8 185.1 -34.8 Q186.15 -31.05 188.8 -17.9 190.2 -11.9 191.25 -8.75 L191.6 -7.45 191.55 -7.45 191.55 -7.3 191.65 -7.15 191.7 -7.05 191.35 -5.7 191.1 -3.95 191.15 -3.35 191.2 -3.0 191.15 -3.0 190.75 1.15 190.6 1.95 189.9 9.5 189.55 22.75 189.45 22.8 188.65 12.9 Q187.95 5.05 187.95 -0.4 L188.35 -2.7 188.4 -3.25 188.65 -9.45 188.35 -11.1 Q187.75 -10.65 187.35 -8.95 L186.9 -7.8 186.6 -7.15 Q185.3 -14.3 184.85 -19.15 L181.75 -33.6 181.4 -35.8 Q180.3 -37.1 179.2 -36.4 L179.0 -35.6 178.9 -33.6 Q178.75 -31.45 181.0 -22.75 183.35 -13.6 183.4 -12.0 L183.8 -6.85 Q183.1 -5.8 182.85 -4.35 L182.85 -3.95 182.3 -6.75 Q181.8 -9.2 181.0 -10.65 L180.7 -10.65 180.7 -10.5 180.0 -11.25 179.6 -12.1 178.9 -19.55 Q178.45 -25.4 176.95 -33.7 L176.95 -35.6 176.9 -42.35 Q176.95 -44.95 178.55 -51.5 L179.1 -53.7 M224.05 147.0 L220.35 146.65 219.65 143.05 217.8 132.3 Q215.85 121.4 213.8 115.75 212.65 106.55 211.45 101.85 214.2 107.65 218.65 123.6 222.55 137.35 224.05 147.0 M214.6 147.05 Q212.4 147.35 210.35 148.05 L208.3 148.85 207.1 139.2 Q205.55 129.25 204.15 125.45 L200.65 109.75 199.8 106.4 198.2 92.3 Q198.65 92.3 198.85 91.3 L199.05 89.85 Q197.45 77.4 195.6 55.1 L194.35 39.05 194.35 38.95 194.5 37.05 193.85 32.15 192.95 18.95 193.3 16.1 194.1 8.55 Q194.55 5.7 194.75 -0.2 L194.8 -3.0 194.95 -3.0 195.2 -5.15 195.4 -7.6 195.35 -9.8 195.55 -10.1 195.35 -9.9 194.9 -16.25 194.4 -18.45 189.9 -39.95 Q189.6 -44.7 190.0 -51.85 L190.55 -47.9 Q191.1 -44.7 193.35 -36.8 L194.2 -33.85 195.0 -31.1 196.3 -25.5 197.7 -16.85 198.1 -11.9 Q198.35 -9.3 199.4 -4.15 L199.4 -3.5 199.65 -3.2 199.7 -3.1 199.75 -3.0 199.85 -2.75 200.0 -2.15 200.0 -0.95 199.75 -0.95 198.85 -1.65 198.45 -2.1 198.65 7.25 199.55 14.75 200.1 21.1 200.15 21.0 203.0 39.35 205.5 54.7 206.05 60.25 205.85 60.35 Q205.25 58.45 203.35 49.45 202.45 45.0 201.5 43.65 L200.8 38.65 199.35 27.5 Q199.1 20.75 198.5 13.95 197.55 3.85 196.65 3.55 196.25 3.4 196.05 3.55 L195.95 2.6 195.85 2.75 195.8 2.9 195.75 3.45 195.6 3.95 195.3 4.5 195.35 5.6 195.05 9.1 194.85 9.35 194.85 9.5 194.7 13.15 Q194.6 17.3 195.45 26.8 L196.75 42.15 197.1 45.5 Q197.2 50.35 197.6 54.9 198.4 65.0 200.8 76.7 201.25 78.9 201.55 86.85 201.9 93.5 203.2 97.5 L203.25 97.8 203.7 100.75 Q204.15 103.7 205.65 109.55 L207.65 116.45 Q208.2 118.75 208.7 119.95 L209.1 121.0 Q210.35 121.8 211.3 127.35 L211.75 129.75 211.75 129.65 211.8 129.65 213.25 136.65 214.25 141.4 214.55 146.65 214.6 147.05 M201.0 147.1 L199.1 146.55 196.8 145.9 196.8 145.3 196.95 139.35 Q197.25 135.4 196.75 128.3 L196.25 122.15 195.8 125.25 Q195.4 128.0 195.3 130.45 L194.55 131.5 Q194.05 129.1 194.0 125.45 L194.1 121.4 Q193.45 116.05 193.55 112.85 L193.5 106.3 193.55 99.95 Q193.85 89.3 194.95 87.0 195.45 89.2 195.7 94.85 195.9 100.4 196.65 103.7 L197.75 108.35 Q198.4 111.15 198.65 113.45 L198.75 117.4 198.95 121.7 199.2 126.05 Q200.05 132.3 200.2 139.1 L201.0 147.1 M202.95 1.95 L203.6 10.45 Q204.65 15.7 206.95 31.4 L206.9 32.45 207.0 35.55 206.5 36.8 Q205.35 33.15 203.95 25.4 203.1 20.3 202.8 16.95 201.85 11.15 201.4 2.75 L201.05 -2.95 201.05 -3.0 201.05 -3.15 201.2 -4.6 201.1 -5.5 201.1 -6.05 201.2 -6.05 202.2 -2.95 202.1 -2.9 202.1 -3.0 Q202.65 1.3 202.95 1.55 L202.95 1.95" fill="#335243" fill-rule="evenodd" stroke="none"/>
    </g>
  </defs>
</svg>
