<?xml version="1.0" encoding="UTF-8" standalone="no"?>
<svg xmlns:ffdec="https://www.free-decompiler.com/flash" xmlns:xlink="http://www.w3.org/1999/xlink" ffdec:objectType="frame" height="430.5px" width="435.95px" xmlns="http://www.w3.org/2000/svg">
  <g transform="matrix(1.0, 0.0, 0.0, 1.0, 150.6, 52.0)">
    <clipPath id="clipPath0" transform="matrix(1.0, 0.0, 0.0, 1.0, 0.0, 0.0)">
      <path d="M-0.15 333.95 L-0.15 -0.05 187.85 -0.05 187.85 333.95 -0.15 333.95" fill="#00ff00" fill-rule="evenodd" stroke="none"/>
      <path d="M187.85 333.95 L187.85 334.95 -0.15 334.95 -0.15 333.95" fill="none" stroke="#aaaaaa" stroke-linecap="round" stroke-linejoin="round" stroke-width="1.0"/>
    </clipPath>
    <g clip-path="url(#clipPath0)">
      <use ffdec:characterId="1176" height="402.0" transform="matrix(1.0, 0.0, 0.0, 1.0, -42.05, -52.0)" width="276.05" xlink:href="#shape1"/>
      <use ffdec:characterId="975" height="35.05" transform="matrix(1.0, 0.0, 0.0, 1.0, 78.0, 162.85)" width="29.95" xlink:href="#shape2"/>
      <use ffdec:characterId="1177" height="12.25" transform="matrix(1.0, 0.0, 0.0, 1.0, 14.6, 205.3)" width="161.0" xlink:href="#text0"/>
    </g>
    <use ffdec:characterId="1169" height="336.0" transform="matrix(1.0, 0.0, 0.0, 1.0, -1.15, -1.05)" width="190.0" xlink:href="#shape3"/>
  </g>
  <defs>
    <g id="shape1" transform="matrix(1.0, 0.0, 0.0, 1.0, 42.05, 52.0)">
      <path d="M13.65 -25.75 L13.45 -25.2 13.3 -25.25 13.65 -25.75 M-10.75 147.45 Q-8.55 146.55 -7.3 144.3 -6.05 142.1 -6.05 140.1 -6.05 139.4 -6.45 138.25 -3.4 132.9 0.3 131.05 L0.55 130.85 Q0.95 130.6 1.8 130.45 L2.45 130.25 3.45 130.0 Q9.5 128.5 14.75 126.05 24.0 121.7 30.9 114.35 L31.2 113.85 Q32.6 110.85 39.0 100.5 L42.6 94.1 42.85 93.65 Q50.35 86.85 60.85 71.15 72.3 53.9 79.0 47.85 90.7 37.25 106.2 37.25 126.95 37.25 139.25 41.65 146.35 44.15 148.4 44.65 L157.0 45.85 157.25 46.05 Q167.65 54.95 170.05 66.2 175.35 69.2 180.55 73.55 186.4 78.5 190.0 83.55 193.45 88.5 193.55 91.65 L193.55 91.8 Q193.55 93.15 193.35 93.35 L192.7 93.5 192.75 94.0 Q192.75 95.3 184.65 115.9 L184.1 117.25 180.4 126.35 Q174.45 140.35 172.6 140.35 L172.35 140.3 172.35 140.35 172.35 140.45 Q173.0 143.3 173.0 145.85 173.0 152.1 169.05 156.6 166.95 158.95 166.3 160.25 165.05 162.65 165.05 166.05 165.05 169.35 167.05 174.6 169.05 179.9 169.05 184.1 L168.95 189.5 170.2 189.05 170.55 188.95 170.65 188.9 171.35 188.75 177.55 188.5 Q180.55 189.1 182.85 191.35 185.0 193.5 186.25 196.75 187.2 199.25 187.2 200.85 L187.05 202.2 191.65 202.05 193.55 202.05 Q201.2 203.7 207.85 207.55 211.65 209.8 218.65 214.5 227.65 219.9 229.9 231.65 230.75 235.8 230.8 241.4 L230.75 249.95 230.5 259.8 Q229.85 265.4 226.95 269.55 224.25 274.6 219.9 278.9 L217.05 281.4 218.65 281.6 218.85 292.9 Q218.85 299.35 218.15 304.0 217.0 311.25 216.5 317.8 215.5 330.15 211.8 335.0 207.15 341.15 195.15 341.15 L179.8 340.05 179.8 347.0 94.85 347.0 94.85 341.85 62.45 341.9 59.85 341.9 53.85 341.85 53.85 350.0 -34.15 350.0 -34.15 177.0 -27.05 177.0 Q-25.75 173.8 -22.75 167.9 -17.5 157.65 -15.55 155.5 -13.4 153.1 -11.3 148.65 L-10.75 147.45 M191.0 92.2 L191.0 92.3 191.05 92.25 191.0 92.2 M171.3 125.85 L171.3 125.9 171.6 126.15 171.3 125.85 M167.85 138.65 L167.75 138.45 167.5 138.5 167.5 138.55 167.85 138.65 M98.4 65.0 L98.4 64.95 98.35 65.0 98.4 65.0 M104.15 63.1 L104.1 62.4 103.9 62.5 104.15 63.1 M134.1 55.3 L134.95 55.35 134.2 54.65 134.1 55.3 M54.05 143.5 L54.05 143.45 53.95 143.45 54.05 143.5 M36.0 155.8 L36.65 155.4 36.55 155.15 36.0 155.8 M74.9 155.0 L74.85 154.95 74.75 155.0 74.9 155.0 M55.3 155.95 L55.3 155.0 55.15 155.95 55.3 155.95 M51.3 150.95 L51.35 150.7 50.85 150.65 51.3 150.95 M126.65 105.75 L125.9 105.5 125.8 105.55 126.65 105.75 M55.3 338.55 L55.3 337.1 53.85 337.1 53.85 338.5 55.3 338.55 M196.95 207.4 L198.4 207.8 198.5 207.5 196.7 207.0 196.95 207.4 M200.8 283.7 L200.65 283.8 201.0 283.8 200.8 283.7 M213.05 284.15 L213.4 283.95 213.0 284.15 213.05 284.15" fill="#000000" fill-rule="evenodd" stroke="none"/>
      <path d="M42.6 94.1 L40.25 95.9 40.3 95.7 41.95 94.4 42.85 93.65 42.6 94.1 M172.6 140.35 L172.5 140.4 172.5 140.35 172.6 140.35" fill="#fc8f3f" fill-rule="evenodd" stroke="none"/>
      <path d="M172.5 140.4 L172.35 140.45 172.35 140.35 172.5 140.35 172.5 140.4" fill="#edbd1b" fill-rule="evenodd" stroke="none"/>
      <path d="M104.15 63.1 L103.9 62.5 104.1 62.4 104.15 63.1" fill="#cd9e3f" fill-rule="evenodd" stroke="none"/>
      <path d="M36.0 155.8 L36.55 155.15 36.65 155.4 36.0 155.8" fill="#840808" fill-rule="evenodd" stroke="none"/>
      <path d="M74.9 155.0 L74.75 155.0 74.85 154.95 74.9 155.0 M51.3 150.95 L50.85 150.65 51.35 150.7 51.3 150.95" fill="#3e0202" fill-rule="evenodd" stroke="none"/>
      <path d="M54.05 143.5 L53.95 143.45 54.05 143.45 54.05 143.5 M55.3 155.95 L55.15 155.95 55.3 155.0 55.3 155.95 M55.3 338.55 L53.85 338.5 53.85 337.1 55.3 337.1 55.3 338.55" fill="#5c0404" fill-rule="evenodd" stroke="none"/>
      <path d="M126.65 105.75 L125.9 105.55 125.9 105.5 126.65 105.75" fill="#473612" fill-rule="evenodd" stroke="none"/>
      <path d="M191.0 92.2 L191.05 92.25 191.0 92.3 191.0 92.2 M171.3 125.85 L171.6 126.15 171.3 125.9 171.3 125.85 M167.85 138.65 L167.5 138.55 167.5 138.5 167.75 138.45 167.85 138.65 M98.4 65.0 L98.35 65.0 98.4 64.95 98.4 65.0 M134.1 55.3 L134.2 54.65 134.95 55.35 134.1 55.3 M125.9 105.5 L125.9 105.55 126.65 105.75 125.8 105.55 125.9 105.5" fill="#8e6c24" fill-rule="evenodd" stroke="none"/>
      <path d="M157.0 45.85 L157.25 45.9 157.25 46.05 157.0 45.85 M193.35 93.35 L192.75 94.0 192.7 93.5 193.35 93.35" fill="#fd4000" fill-rule="evenodd" stroke="none"/>
      <path d="M13.3 -25.25 L13.45 -25.2 13.65 -25.75 Q15.35 -28.3 18.7 -30.2 28.55 -35.95 49.0 -34.7 46.55 -37.75 50.55 -43.2 54.6 -48.7 59.85 -48.7 62.5 -48.7 71.7 -46.05 83.45 -42.6 86.95 -41.8 85.8 -48.0 89.8 -50.55 93.45 -52.85 100.0 -51.5 105.65 -50.3 115.75 -46.05 L128.7 -40.4 Q128.7 -46.85 129.1 -47.55 129.85 -48.7 135.0 -48.7 147.1 -48.7 159.65 -41.2 168.7 -35.8 173.6 -29.95 L173.75 -30.15 173.95 -37.25 176.55 -37.65 Q180.4 -37.65 187.3 -34.0 194.4 -30.25 201.1 -24.45 207.2 -19.1 211.15 -13.8 L224.0 -15.0 Q230.35 -15.0 232.75 -11.25 234.0 -9.3 234.0 -6.75 234.0 -1.7 231.35 -0.3 228.3 1.4 217.9 2.05 L218.05 4.65 217.8 13.55 Q217.35 15.85 214.1 24.25 L212.0 27.35 211.45 28.0 211.6 27.85 211.6 30.95 Q211.6 48.35 215.6 60.35 L218.3 68.8 Q219.55 73.55 219.55 79.05 219.55 95.5 218.75 101.55 217.9 108.7 215.95 115.6 214.15 121.85 212.35 123.75 L212.4 125.1 Q212.4 129.8 210.1 137.65 207.25 146.55 206.1 150.6 L204.05 157.0 Q202.55 161.55 202.15 163.65 L201.25 167.1 200.55 170.2 Q200.4 170.95 198.9 172.45 L198.2 173.1 197.8 173.45 197.65 173.6 195.7 175.15 195.0 191.15 Q194.95 193.55 194.4 195.85 193.75 199.05 192.45 200.65 L191.65 202.05 187.05 202.2 187.2 200.85 Q187.2 199.25 186.25 196.75 185.0 193.5 182.85 191.35 180.55 189.1 177.55 188.5 L171.35 188.75 171.3 187.6 170.95 188.25 170.7 188.6 170.65 188.9 170.55 188.95 170.2 189.05 168.95 189.5 169.05 184.1 Q169.05 179.9 167.05 174.6 165.05 169.35 165.05 166.05 165.05 162.65 166.3 160.25 166.95 158.95 169.05 156.6 173.0 152.1 173.0 145.85 173.0 143.3 172.35 140.45 L172.5 140.4 172.6 140.35 Q174.45 140.35 180.4 126.35 L184.1 117.25 184.65 115.9 Q192.75 95.3 192.75 94.0 L193.35 93.35 Q193.55 93.15 193.55 91.8 L193.55 91.65 Q193.45 88.5 190.0 83.55 186.4 78.5 180.55 73.55 175.35 69.2 170.05 66.2 167.65 54.95 157.25 46.05 L157.25 45.9 157.0 45.85 148.4 44.65 Q146.35 44.15 139.25 41.65 126.95 37.25 106.2 37.25 90.7 37.25 79.0 47.85 72.3 53.9 60.85 71.15 50.35 86.85 42.85 93.65 L41.95 94.4 40.3 95.7 40.25 95.9 42.6 94.1 39.0 100.5 Q32.6 110.85 31.2 113.85 L30.9 114.35 Q24.0 121.7 14.75 126.05 9.5 128.5 3.45 130.0 L2.45 130.25 1.8 130.45 Q0.95 130.6 0.55 130.85 L0.3 131.05 Q-3.4 132.9 -6.45 138.25 -6.05 139.4 -6.05 140.1 -6.05 142.1 -7.3 144.3 -8.55 146.55 -10.75 147.45 L-14.05 148.0 Q-30.85 148.0 -38.05 117.8 -42.05 100.95 -42.05 84.0 -42.05 68.7 -41.0 65.1 -37.3 55.7 -32.05 38.25 -31.15 35.2 -27.55 26.75 -24.05 18.4 -23.05 15.0 -22.5 7.8 -19.9 5.5 -19.35 5.0 -18.7 4.8 L-18.2 -1.55 Q-17.25 -12.85 -17.0 -17.5 -16.55 -24.65 -13.95 -26.35 -11.75 -27.8 -8.55 -25.05 -6.2 -23.05 -4.3 -19.75 1.85 -29.9 13.3 -25.25" fill="#666666" fill-rule="evenodd" stroke="none"/>
      <path d="M172.5 140.35 L172.35 140.35 172.35 140.3 172.6 140.35 172.5 140.35" fill="#f3d368" fill-rule="evenodd" stroke="none"/>
      <path d="M200.8 283.7 L201.0 283.8 200.65 283.8 200.8 283.7" fill="#604837" fill-rule="evenodd" stroke="none"/>
      <path d="M196.95 207.4 L196.7 207.0 198.5 207.5 198.4 207.8 196.95 207.4" fill="#bba18d" fill-rule="evenodd" stroke="none"/>
    </g>
    <g id="shape2" transform="matrix(1.0, 0.0, 0.0, 1.0, 0.0, 0.0)">
      <path d="M25.45 12.55 L25.95 12.65 26.4 12.7 Q26.1 12.25 26.1 11.6 L26.25 9.8 Q25.95 7.5 25.4 6.35 L24.6 4.65 24.45 4.25 23.55 3.1 Q22.2 2.1 20.35 1.6 L19.9 1.5 15.55 0.95 14.55 0.9 Q7.75 0.9 4.85 4.25 2.2 7.3 3.0 12.7 L3.1 12.7 3.6 12.7 4.05 12.65 5.25 12.5 6.05 12.45 6.95 12.4 7.3 12.35 7.1 12.0 7.05 11.2 7.15 9.85 7.55 9.3 Q7.55 7.7 9.9 6.3 12.2 4.8 15.0 4.6 18.2 4.35 20.15 5.9 21.35 6.75 21.95 8.2 22.45 9.55 22.45 11.5 L22.45 12.45 24.1 12.5 25.3 12.55 25.45 12.55 M24.9 3.15 L26.05 4.65 Q26.7 5.5 26.75 6.25 L27.55 12.65 27.55 12.8 28.4 12.95 29.15 13.15 29.5 14.1 29.4 14.1 Q29.85 15.3 29.75 17.15 L29.65 20.65 29.95 27.65 Q29.95 29.85 27.55 31.95 24.0 35.05 16.75 35.05 11.1 35.05 6.8 33.4 1.6 31.55 1.05 28.05 L0.55 25.9 Q0.1 24.35 0.1 23.65 L0.1 19.55 0.1 18.2 0.1 16.5 0.0 14.85 Q0.0 14.35 0.15 14.05 L0.1 14.0 0.3 13.5 Q1.05 12.95 2.15 12.8 L2.0 11.85 2.0 10.15 1.95 7.15 Q2.1 6.05 3.85 3.85 5.45 1.65 7.55 1.2 L9.25 0.7 9.55 0.5 16.0 0.05 16.95 0.0 19.15 0.3 19.55 0.4 22.35 1.35 Q24.0 1.95 24.9 3.15 M21.15 9.3 Q21.15 5.95 15.9 5.95 13.05 5.95 10.8 6.95 8.95 7.8 8.6 9.05 L8.6 9.4 8.5 9.8 8.5 9.85 8.15 10.75 Q7.8 11.75 8.4 12.3 L16.1 12.35 21.4 12.4 Q21.2 12.0 21.15 11.45 L21.15 9.3 M5.55 31.75 L6.6 32.2 Q10.45 34.0 16.7 34.0 L23.7 33.25 Q27.15 32.1 28.35 29.45 28.8 28.45 28.75 26.85 L28.6 24.1 28.6 21.4 28.6 18.75 28.55 16.15 Q28.55 15.0 28.95 14.1 L27.7 14.0 27.1 13.7 25.2 13.55 24.0 13.5 23.85 13.5 23.8 13.5 15.75 13.3 Q7.75 13.3 4.95 13.55 L4.9 13.5 4.9 13.4 4.85 13.5 4.75 13.55 3.6 13.7 3.15 14.0 1.05 14.1 1.0 14.1 1.0 14.15 1.2 16.05 1.15 18.85 1.15 24.35 Q1.15 25.6 1.7 27.05 2.25 28.65 3.3 29.85 4.1 30.8 5.35 31.6 L5.55 31.75 M15.8 17.65 Q16.85 17.9 17.75 18.45 19.0 19.2 19.0 19.95 19.0 21.1 18.15 22.15 L17.3 23.2 Q17.3 23.45 18.45 25.1 L19.55 26.85 19.4 27.3 19.0 27.45 12.05 27.45 Q13.0 26.65 13.95 23.45 L13.9 22.9 13.85 22.75 13.4 22.8 12.2 21.6 12.1 20.45 Q12.1 19.45 13.95 18.65 L15.8 17.65" fill="#342f27" fill-rule="evenodd" stroke="none"/>
      <path d="M15.55 0.95 L19.9 1.5 20.35 1.6 Q22.2 2.1 23.55 3.1 L24.45 4.25 24.6 4.65 25.4 6.35 Q25.95 7.5 26.25 9.8 L26.1 11.6 Q26.1 12.25 26.4 12.7 L25.95 12.65 25.45 12.55 25.45 12.35 24.85 7.9 Q24.45 5.85 23.2 4.9 L23.3 4.7 23.15 4.55 21.7 3.5 19.4 2.55 18.15 2.1 18.0 2.15 17.35 1.95 15.45 1.45 15.55 0.95 M21.95 8.2 Q21.35 6.75 20.15 5.9 18.2 4.35 15.0 4.6 12.2 4.8 9.9 6.3 7.55 7.7 7.55 9.3 L7.15 9.85 7.05 11.2 7.1 12.0 7.3 12.35 6.95 12.4 6.05 12.45 5.25 12.5 Q4.95 12.25 4.9 11.55 L4.9 10.15 Q4.9 7.35 7.55 5.5 9.95 3.85 13.45 3.65 16.85 3.3 19.25 4.55 21.9 5.8 21.95 8.2 M25.2 13.55 L27.1 13.7 27.7 14.0 28.95 14.1 Q28.55 15.0 28.55 16.15 L28.6 18.75 28.6 21.4 28.6 24.1 28.75 26.85 Q28.8 28.45 28.35 29.45 27.15 32.1 23.7 33.25 L16.7 34.0 Q10.45 34.0 6.6 32.2 L5.55 31.75 5.6 31.6 8.15 31.5 8.6 31.6 9.0 31.55 9.35 31.7 16.1 32.05 22.4 31.65 Q23.15 31.45 23.7 30.9 L25.3 29.85 Q26.25 29.0 26.25 28.6 L26.2 28.15 26.1 28.05 26.0 28.0 26.35 25.95 26.25 23.1 26.0 16.75 Q25.8 14.35 25.2 13.55 M12.05 27.45 L10.5 27.45 10.5 27.05 Q10.5 26.2 11.65 24.5 L12.55 23.45 12.6 23.45 12.6 23.4 12.65 23.35 12.6 23.35 12.5 23.35 Q11.25 23.35 10.5 21.75 L10.15 20.7 10.25 20.45 10.8 19.3 10.95 18.9 12.45 18.1 Q13.6 17.45 14.75 17.45 L15.8 17.5 15.8 17.55 15.8 17.65 13.95 18.65 Q12.1 19.45 12.1 20.45 L12.2 21.6 13.4 22.8 13.85 22.75 13.9 22.9 13.95 23.45 Q13.0 26.65 12.05 27.45" fill="#4a4640" fill-rule="evenodd" stroke="none"/>
      <path d="M18.0 2.15 L18.15 2.1 19.4 2.55 21.7 3.5 23.15 4.55 23.3 4.7 23.2 4.9 Q24.45 5.85 24.85 7.9 L25.45 12.35 25.3 12.55 24.1 12.5 22.45 12.45 22.45 11.5 Q22.45 9.55 21.95 8.2 21.9 5.8 19.25 4.55 16.85 3.3 13.45 3.65 9.95 3.85 7.55 5.5 4.9 7.35 4.9 10.15 L4.9 11.55 Q4.95 12.25 5.25 12.5 L4.05 12.65 4.4 11.0 Q4.5 7.8 4.7 7.35 5.05 6.1 5.35 5.7 5.9 4.85 7.3 3.95 L10.65 2.5 16.7 2.2 17.35 2.2 18.0 2.15 M4.95 13.55 Q7.75 13.3 15.75 13.3 L23.8 13.5 23.8 13.55 23.8 15.35 24.35 19.8 24.9 24.9 24.6 27.05 24.55 28.2 24.6 28.55 23.6 29.65 21.8 30.4 16.6 30.8 12.0 30.65 9.1 30.5 8.95 30.55 7.65 29.2 Q6.15 27.65 5.95 26.8 5.4 24.45 5.4 22.3 L5.75 17.85 Q5.85 15.25 4.95 13.55 M12.05 27.45 L19.0 27.45 19.4 27.3 19.55 26.85 18.45 25.1 Q17.3 23.45 17.3 23.2 L18.15 22.15 Q19.0 21.1 19.0 19.95 19.0 19.2 17.75 18.45 16.85 17.9 15.8 17.65 L15.8 17.55 15.8 17.5 14.75 17.45 Q13.6 17.45 12.45 18.1 L10.95 18.9 10.8 19.3 10.25 20.45 10.15 20.7 10.5 21.75 Q11.25 23.35 12.5 23.35 L12.6 23.45 12.55 23.45 11.65 24.5 Q10.5 26.2 10.5 27.05 L10.5 27.45 12.05 27.45" fill="#6d685f" fill-rule="evenodd" stroke="none"/>
      <path d="M24.0 13.5 L25.2 13.55 Q25.8 14.35 26.0 16.75 L26.25 23.1 26.35 25.95 26.0 28.0 26.1 28.05 26.2 28.15 26.25 28.6 Q26.25 29.0 25.3 29.85 L23.7 30.9 Q23.15 31.45 22.4 31.65 L16.1 32.05 9.35 31.7 9.0 31.55 8.6 31.6 8.15 31.5 6.65 30.3 5.2 28.4 Q4.3 27.0 4.35 24.9 L4.1 18.3 Q4.1 14.35 4.75 13.55 L4.95 13.55 Q5.85 15.25 5.75 17.85 L5.4 22.3 Q5.4 24.45 5.95 26.8 6.15 27.65 7.65 29.2 L8.95 30.55 9.1 30.5 12.0 30.65 16.6 30.8 21.8 30.4 23.6 29.65 24.6 28.55 24.55 28.2 24.6 27.05 24.9 24.9 24.35 19.8 23.8 15.35 23.8 13.55 24.0 13.5" fill="#5f5a52" fill-rule="evenodd" stroke="none"/>
      <path d="M23.85 13.5 L24.0 13.5 23.8 13.55 23.85 13.5 M12.6 23.4 L12.5 23.35 12.6 23.35 12.6 23.4" fill="#666666" fill-rule="evenodd" stroke="none"/>
      <path d="M23.8 13.5 L23.85 13.5 23.8 13.55 23.8 13.5 M12.6 23.45 L12.5 23.35 12.6 23.4 12.6 23.45" fill="#5f5747" fill-rule="evenodd" stroke="none"/>
      <path d="M25.45 12.35 L25.45 12.55 25.3 12.55 25.45 12.35 M5.55 31.75 L5.35 31.6 5.6 31.6 5.55 31.75" fill="#333333" fill-rule="evenodd" stroke="none"/>
      <path d="M15.55 0.95 L15.45 1.45 17.35 1.95 17.35 2.2 16.7 2.2 10.65 2.5 7.3 3.95 Q5.9 4.85 5.35 5.7 5.05 6.1 4.7 7.35 4.5 7.8 4.4 11.0 L4.05 12.65 3.6 12.7 3.1 12.7 3.0 12.7 Q2.2 7.3 4.85 4.25 7.75 0.9 14.55 0.9 L15.55 0.95 M5.35 31.6 Q4.1 30.8 3.3 29.85 2.25 28.65 1.7 27.05 1.15 25.6 1.15 24.35 L1.15 18.85 1.2 16.05 1.0 14.15 1.05 14.1 3.15 14.0 3.6 13.7 4.75 13.55 Q4.1 14.35 4.1 18.3 L4.35 24.9 Q4.3 27.0 5.2 28.4 L6.65 30.3 8.15 31.5 5.6 31.6 5.35 31.6" fill="#7e786d" fill-rule="evenodd" stroke="none"/>
      <path d="M17.35 1.95 L18.0 2.15 17.35 2.2 17.35 1.95" fill="#999999" fill-rule="evenodd" stroke="none"/>
      <path d="M4.75 13.55 L4.85 13.5 4.9 13.4 4.9 13.5 4.95 13.55 4.75 13.55" fill="#cccccc" fill-rule="evenodd" stroke="none"/>
      <path d="M12.6 23.4 L12.6 23.35 12.65 23.35 12.6 23.4" fill="#000000" fill-rule="evenodd" stroke="none"/>
    </g>
    <g id="text0" transform="matrix(1.0, 0.0, 0.0, 1.0, -8.6, -0.8)">
      <g transform="matrix(1.0, 0.0, 0.0, 1.0, 0.0, 0.0)">
        <use fill="#7e786d" height="12.25" transform="matrix(0.0117, 0.0, 0.0, 0.0117, 7.0, 12.0)" width="161.0" xlink:href="#font_Lithos_Pro_Regular_L0"/>
        <use fill="#7e786d" height="12.25" transform="matrix(0.0117, 0.0, 0.0, 0.0117, 14.0, 12.0)" width="161.0" xlink:href="#font_Lithos_Pro_Regular_o0"/>
        <use fill="#7e786d" height="12.25" transform="matrix(0.0117, 0.0, 0.0, 0.0117, 23.9, 12.0)" width="161.0" xlink:href="#font_Lithos_Pro_Regular_c0"/>
        <use fill="#7e786d" height="12.25" transform="matrix(0.0117, 0.0, 0.0, 0.0117, 31.0, 12.0)" width="161.0" xlink:href="#font_Lithos_Pro_Regular_k0"/>
        <use fill="#7e786d" height="12.25" transform="matrix(0.0117, 0.0, 0.0, 0.0117, 39.7, 12.0)" width="161.0" xlink:href="#font_Lithos_Pro_Regular_e0"/>
        <use fill="#7e786d" height="12.25" transform="matrix(0.0117, 0.0, 0.0, 0.0117, 46.55, 12.0)" width="161.0" xlink:href="#font_Lithos_Pro_Regular_d0"/>
        <use fill="#7e786d" height="12.25" transform="matrix(0.0117, 0.0, 0.0, 0.0117, 58.7, 12.0)" width="161.0" xlink:href="#font_Lithos_Pro_Regular_i0"/>
        <use fill="#7e786d" height="12.25" transform="matrix(0.0117, 0.0, 0.0, 0.0117, 63.5, 12.0)" width="161.0" xlink:href="#font_Lithos_Pro_Regular_n0"/>
        <use fill="#7e786d" height="12.25" transform="matrix(0.0117, 0.0, 0.0, 0.0117, 76.05, 12.0)" width="161.0" xlink:href="#font_Lithos_Pro_Regular_T0"/>
        <use fill="#7e786d" height="12.25" transform="matrix(0.0117, 0.0, 0.0, 0.0117, 83.95, 12.0)" width="161.0" xlink:href="#font_Lithos_Pro_Regular_h0"/>
        <use fill="#7e786d" height="12.25" transform="matrix(0.0117, 0.0, 0.0, 0.0117, 94.05, 12.0)" width="161.0" xlink:href="#font_Lithos_Pro_Regular_i0"/>
        <use fill="#7e786d" height="12.25" transform="matrix(0.0117, 0.0, 0.0, 0.0117, 98.85, 12.0)" width="161.0" xlink:href="#font_Lithos_Pro_Regular_s0"/>
        <use fill="#7e786d" height="12.25" transform="matrix(0.0117, 0.0, 0.0, 0.0117, 107.95, 12.0)" width="161.0" xlink:href="#font_Lithos_Pro_Regular_V0"/>
        <use fill="#7e786d" height="12.25" transform="matrix(0.0117, 0.0, 0.0, 0.0117, 117.65, 12.0)" width="161.0" xlink:href="#font_Lithos_Pro_Regular_e0"/>
        <use fill="#7e786d" height="12.25" transform="matrix(0.0117, 0.0, 0.0, 0.0117, 124.5, 12.0)" width="161.0" xlink:href="#font_Lithos_Pro_Regular_r0"/>
        <use fill="#7e786d" height="12.25" transform="matrix(0.0117, 0.0, 0.0, 0.0117, 132.95, 12.0)" width="161.0" xlink:href="#font_Lithos_Pro_Regular_s0"/>
        <use fill="#7e786d" height="12.25" transform="matrix(0.0117, 0.0, 0.0, 0.0117, 139.05, 12.0)" width="161.0" xlink:href="#font_Lithos_Pro_Regular_i0"/>
        <use fill="#7e786d" height="12.25" transform="matrix(0.0117, 0.0, 0.0, 0.0117, 143.8, 12.0)" width="161.0" xlink:href="#font_Lithos_Pro_Regular_o0"/>
        <use fill="#7e786d" height="12.25" transform="matrix(0.0117, 0.0, 0.0, 0.0117, 153.7, 12.0)" width="161.0" xlink:href="#font_Lithos_Pro_Regular_n0"/>
      </g>
    </g>
    <g id="font_Lithos_Pro_Regular_L0">
      <path d="M106.5 -726.0 L106.5 -726.0 346.0 -726.0 Q345.5 -716.0 345.0 -677.5 344.0 -639.0 343.0 -584.0 342.0 -529.0 341.5 -471.0 341.0 -412.5 341.0 -363.0 L341.0 -176.0 Q350.5 -176.0 375.5 -176.0 400.0 -176.0 433.0 -176.5 466.5 -177.0 501.5 -177.5 537.0 -178.5 568.5 -180.0 L569.5 10.5 Q560.5 10.5 519.5 9.5 478.5 8.5 419.5 7.0 361.0 5.5 298.5 3.5 236.0 2.0 184.5 1.0 133.5 0.0 107.5 0.0 108.5 -17.0 109.0 -49.5 109.5 -82.0 110.0 -121.0 110.0 -160.5 110.5 -198.0 110.5 -235.5 110.5 -262.5 110.5 -289.5 110.5 -297.5 L110.5 -433.5 Q110.5 -439.5 110.5 -468.5 110.0 -497.5 109.5 -538.0 109.5 -578.5 109.0 -619.5 108.5 -660.0 107.5 -689.5 107.0 -719.0 106.5 -726.0" fill-rule="evenodd" stroke="none"/>
    </g>
    <g id="font_Lithos_Pro_Regular_o0">
      <path d="M409.5 -127.0 L409.5 -127.0 Q482.0 -127.0 524.0 -175.0 565.5 -223.5 566.5 -319.5 566.0 -403.0 531.5 -446.5 496.5 -490.5 432.5 -490.5 382.0 -490.0 347.5 -463.5 313.0 -437.5 295.5 -393.5 277.5 -350.0 277.5 -297.0 278.0 -239.5 296.0 -202.0 313.5 -164.0 343.5 -145.5 373.5 -127.0 409.5 -127.0 M399.5 14.5 L399.5 14.5 Q306.0 13.5 237.5 -12.5 169.5 -39.0 125.5 -82.5 81.5 -126.0 60.0 -178.5 39.0 -230.5 39.0 -283.5 39.0 -347.5 63.5 -409.0 88.5 -470.5 138.5 -521.0 188.5 -571.0 265.0 -601.0 341.5 -631.0 444.5 -632.0 556.5 -631.5 637.0 -595.0 718.0 -558.5 761.0 -490.0 804.5 -422.0 805.0 -325.5 805.5 -275.5 785.5 -217.0 766.0 -159.0 719.5 -106.5 673.5 -54.0 595.0 -20.5 516.5 13.5 399.5 14.5" fill-rule="evenodd" stroke="none"/>
    </g>
    <g id="font_Lithos_Pro_Regular_c0">
      <path d="M556.0 -158.5 L565.5 7.5 Q541.0 10.5 514.5 12.5 487.5 14.5 455.0 14.5 340.5 14.0 260.0 -9.5 179.5 -33.0 129.5 -71.5 79.5 -109.5 56.0 -155.5 33.0 -201.5 33.0 -247.5 33.0 -302.5 60.5 -360.5 88.5 -418.5 145.5 -472.5 202.5 -526.5 290.5 -568.0 378.5 -610.0 499.0 -632.0 L540.0 -460.0 Q445.0 -443.5 385.5 -414.5 326.5 -385.5 298.5 -348.5 271.0 -311.0 271.5 -270.5 272.0 -218.5 322.5 -187.0 372.5 -155.5 466.0 -154.5 494.5 -154.5 517.0 -155.5 539.5 -157.0 556.0 -158.5" fill-rule="evenodd" stroke="none"/>
    </g>
    <g id="font_Lithos_Pro_Regular_k0">
      <path d="M322.5 9.5 L93.5 9.5 Q94.0 -1.0 94.5 -30.0 95.0 -59.0 95.5 -99.0 96.0 -139.0 96.0 -182.0 96.5 -225.0 96.5 -263.0 L96.5 -355.0 Q96.5 -384.5 96.0 -427.0 95.5 -469.0 95.0 -512.0 94.5 -554.5 94.0 -586.5 93.5 -618.5 93.5 -627.0 L322.5 -627.0 Q322.0 -620.5 321.5 -593.0 320.5 -565.0 319.5 -526.0 319.0 -487.0 318.0 -447.5 317.5 -408.0 317.5 -378.5 L317.5 -353.0 319.5 -353.0 Q334.0 -370.5 359.5 -402.0 385.5 -433.0 416.0 -470.0 447.0 -507.0 476.0 -542.0 505.5 -577.0 526.5 -602.5 548.0 -628.0 555.0 -636.0 L711.5 -497.5 Q692.0 -479.0 658.0 -446.0 624.0 -413.0 588.0 -377.5 551.5 -342.0 525.5 -316.0 538.5 -302.5 565.5 -276.0 592.0 -250.0 623.0 -219.5 654.5 -189.5 681.5 -163.0 709.0 -136.0 724.0 -122.0 L547.0 25.5 Q541.5 19.5 522.0 -5.5 502.5 -30.5 474.5 -66.5 447.0 -103.0 417.0 -142.0 387.0 -181.5 361.0 -215.5 335.0 -250.0 319.5 -271.0 L317.5 -271.0 317.5 -255.5 Q317.5 -229.5 318.0 -188.0 318.5 -147.0 319.5 -104.5 320.0 -61.5 321.0 -30.0 322.0 2.0 322.5 9.5" fill-rule="evenodd" stroke="none"/>
    </g>
    <g id="font_Lithos_Pro_Regular_e0">
      <path d="M519.5 -147.0 L522.5 9.5 Q510.0 9.5 468.5 8.5 427.5 7.5 371.0 6.0 315.0 5.0 257.5 3.5 200.5 2.0 156.0 1.0 112.0 0.0 94.5 0.0 95.0 -18.5 95.5 -56.0 96.0 -93.5 96.5 -136.0 96.5 -178.5 96.5 -211.0 96.5 -244.0 96.5 -253.0 L96.5 -368.5 Q96.5 -373.5 96.5 -397.5 96.0 -421.5 96.0 -455.0 95.5 -489.0 95.0 -523.5 95.0 -558.0 94.5 -584.0 94.5 -610.0 94.5 -618.5 113.0 -618.5 155.5 -620.0 198.5 -621.0 252.5 -623.0 307.0 -625.0 360.0 -627.0 413.0 -629.5 452.0 -631.0 491.5 -633.0 504.0 -634.0 L508.0 -484.5 Q494.0 -484.5 465.0 -483.5 435.5 -483.0 402.5 -482.0 369.0 -481.0 343.5 -480.0 317.5 -479.5 310.5 -479.5 L310.5 -373.5 Q318.0 -373.5 338.5 -374.0 359.0 -375.0 385.5 -376.0 412.0 -377.0 436.5 -378.5 461.5 -380.0 477.5 -381.5 L479.5 -236.5 Q469.5 -236.5 445.5 -237.0 421.5 -237.5 393.5 -238.0 365.0 -238.5 342.0 -239.0 319.0 -239.5 310.5 -239.5 L310.5 -145.0 Q320.0 -145.0 347.0 -144.5 373.5 -144.5 407.0 -144.5 441.0 -144.5 471.5 -145.0 502.0 -145.5 519.5 -147.0" fill-rule="evenodd" stroke="none"/>
    </g>
    <g id="font_Lithos_Pro_Regular_d0">
      <path d="M313.5 -475.0 L313.5 -158.0 Q345.5 -162.0 379.5 -175.5 413.5 -189.5 442.5 -213.0 472.0 -237.0 490.5 -271.0 508.5 -305.5 509.0 -351.0 508.0 -404.5 480.0 -431.0 452.0 -458.0 407.5 -467.0 363.0 -476.0 313.5 -475.0 M96.5 -275.5 L96.5 -383.0 Q96.5 -389.0 96.5 -412.0 96.5 -435.0 96.0 -466.5 95.5 -498.5 95.0 -530.0 94.5 -562.0 94.0 -586.5 93.5 -610.5 92.5 -618.5 179.5 -618.5 244.0 -617.0 309.0 -616.0 359.0 -613.0 409.5 -609.5 451.5 -604.0 543.0 -592.0 600.0 -566.5 657.5 -540.5 688.0 -508.0 718.5 -475.5 730.0 -442.0 741.0 -409.0 740.5 -382.0 739.5 -297.5 702.0 -232.5 665.0 -168.0 600.0 -121.5 535.0 -75.5 451.5 -47.0 368.5 -18.5 276.0 -6.0 183.5 6.5 91.5 4.0 92.5 -8.5 93.0 -38.0 94.0 -67.5 94.5 -105.0 95.0 -142.0 95.5 -178.5 96.0 -214.5 96.5 -241.0 96.5 -267.5 96.5 -275.5" fill-rule="evenodd" stroke="none"/>
    </g>
    <g id="font_Lithos_Pro_Regular_i0">
      <path d="M315.5 -357.5 L315.5 -263.0 Q315.5 -229.5 316.0 -188.0 316.5 -146.5 317.0 -106.5 318.0 -66.5 318.5 -37.5 319.0 -8.5 319.5 0.0 L92.5 0.0 Q93.0 -12.0 93.0 -40.0 93.5 -67.5 93.5 -103.0 94.0 -138.0 94.0 -172.5 94.5 -206.5 94.5 -231.5 94.5 -256.5 94.5 -264.0 L94.5 -358.5 Q94.5 -364.0 94.5 -389.5 94.0 -414.5 94.0 -450.5 93.5 -486.0 93.0 -522.0 93.0 -558.0 92.5 -584.5 92.5 -611.0 92.5 -618.5 L319.5 -618.5 Q319.0 -611.5 318.5 -585.5 318.0 -559.0 317.0 -521.0 316.5 -482.5 316.0 -440.0 315.5 -397.0 315.5 -357.5" fill-rule="evenodd" stroke="none"/>
    </g>
    <g id="font_Lithos_Pro_Regular_n0">
      <path d="M264.0 6.0 L62.5 0.0 Q64.0 -16.0 67.0 -59.5 69.5 -103.0 73.0 -163.5 76.5 -224.0 80.5 -291.5 84.0 -359.5 88.0 -424.5 91.5 -489.5 95.0 -542.0 98.0 -594.0 100.5 -624.0 L116.5 -629.0 Q157.0 -603.0 210.5 -566.5 264.0 -530.0 321.0 -490.5 378.5 -451.0 428.5 -415.5 479.0 -380.0 512.5 -355.0 546.5 -330.5 553.0 -324.0 553.0 -338.5 553.0 -369.5 552.5 -400.0 552.5 -438.5 552.0 -477.0 552.0 -515.0 551.5 -552.5 551.5 -582.0 551.5 -611.0 552.0 -623.0 L752.5 -618.5 Q749.5 -583.5 745.5 -532.0 741.5 -480.5 737.5 -419.0 734.0 -357.5 730.5 -293.0 726.5 -229.5 723.5 -170.0 720.0 -111.0 717.5 -63.5 715.0 -16.0 714.0 13.5 L697.5 17.5 Q668.5 0.0 620.0 -33.0 571.5 -66.0 515.0 -106.0 458.5 -145.5 405.0 -184.0 352.0 -222.5 313.5 -250.5 275.5 -279.0 263.0 -289.0 263.0 -274.5 263.0 -243.5 263.0 -212.0 263.0 -173.0 263.0 -134.0 263.0 -96.0 263.5 -58.0 263.5 -30.0 263.5 -2.5 264.0 6.0" fill-rule="evenodd" stroke="none"/>
    </g>
    <g id="font_Lithos_Pro_Regular_T0">
      <path d="M456.5 0.0 L456.5 0.0 220.0 0.0 Q220.5 -10.5 221.5 -40.0 222.0 -69.5 222.5 -110.0 222.5 -151.0 223.0 -196.5 223.0 -241.5 223.0 -284.0 L223.0 -553.0 Q204.0 -553.0 171.5 -552.0 139.0 -551.5 103.5 -550.5 67.5 -549.0 38.5 -548.5 9.5 -547.5 -3.5 -547.0 L-3.5 -726.0 Q11.5 -724.5 44.5 -723.5 77.5 -722.5 119.0 -721.5 160.5 -720.5 199.5 -719.5 239.0 -718.5 265.5 -718.0 292.5 -718.0 297.0 -718.0 L386.0 -718.0 Q392.5 -718.0 419.0 -718.0 445.5 -718.5 483.0 -719.5 520.5 -720.5 559.5 -721.5 599.0 -722.5 631.0 -723.5 663.0 -724.5 678.5 -726.0 L678.5 -547.0 Q672.0 -547.0 649.5 -548.0 626.5 -548.5 595.5 -549.5 565.0 -550.5 534.0 -551.0 503.5 -552.0 481.5 -552.5 459.0 -553.0 453.5 -553.0 L453.5 -268.0 Q453.5 -227.5 453.5 -184.5 454.0 -141.0 454.0 -102.0 454.5 -63.0 455.0 -35.5 456.0 -8.5 456.5 0.0" fill-rule="evenodd" stroke="none"/>
    </g>
    <g id="font_Lithos_Pro_Regular_h0">
      <path d="M323.5 0.0 L96.5 0.0 Q97.0 -12.0 97.0 -40.0 97.5 -67.5 97.5 -103.0 98.0 -138.0 98.0 -172.5 98.5 -206.5 98.5 -231.5 98.5 -256.5 98.5 -264.0 L98.5 -358.0 Q98.5 -363.5 98.5 -389.0 98.0 -414.5 97.5 -450.0 97.5 -486.0 97.0 -522.0 96.0 -558.0 95.5 -584.5 95.0 -611.0 94.5 -618.5 L324.5 -618.5 Q324.0 -611.0 323.0 -582.5 322.0 -554.0 321.5 -518.0 320.5 -482.5 320.0 -454.0 319.5 -425.5 319.5 -418.5 L319.5 -388.0 544.0 -404.0 544.0 -437.0 Q544.0 -443.5 543.5 -468.5 543.5 -494.0 543.0 -526.0 542.0 -557.5 541.5 -584.0 540.5 -610.0 540.0 -618.5 L769.0 -618.5 Q768.5 -611.0 768.0 -582.5 767.5 -553.5 767.0 -514.5 766.5 -475.0 766.0 -436.0 765.5 -396.5 765.5 -368.0 765.0 -339.5 765.0 -332.5 L765.0 -245.5 Q765.0 -241.5 765.0 -217.5 765.5 -193.5 766.0 -159.0 766.0 -125.0 766.5 -90.5 767.5 -56.0 768.0 -31.0 768.5 -6.0 769.0 0.0 L540.0 0.0 Q540.5 -12.0 541.0 -39.5 541.5 -67.0 542.5 -98.5 543.0 -130.5 543.5 -155.5 544.0 -180.5 544.0 -187.5 L544.0 -247.5 319.5 -231.5 319.5 -206.0 Q319.5 -190.0 320.0 -159.5 320.5 -129.5 321.0 -95.5 322.0 -62.0 322.5 -35.0 323.0 -8.5 323.5 0.0" fill-rule="evenodd" stroke="none"/>
    </g>
    <g id="font_Lithos_Pro_Regular_s0">
      <path d="M79.5 17.5 L56.0 -138.5 Q107.5 -137.0 154.0 -142.5 201.0 -148.0 231.0 -161.0 261.0 -173.5 262.0 -194.5 263.5 -208.5 243.0 -222.0 223.0 -236.0 167.0 -260.0 136.0 -273.5 105.0 -293.0 73.5 -312.5 52.0 -341.5 30.5 -370.0 29.5 -411.0 30.0 -465.5 77.5 -514.5 125.5 -563.0 214.0 -596.5 303.0 -629.5 427.0 -637.0 L451.5 -479.5 Q356.0 -480.0 308.0 -471.0 260.0 -461.5 260.0 -434.5 260.0 -418.0 284.5 -405.5 308.5 -393.0 354.0 -376.0 380.5 -366.5 413.0 -349.5 445.0 -332.5 469.5 -304.0 493.5 -276.0 494.5 -232.5 495.0 -178.0 452.0 -125.5 409.0 -72.5 317.5 -33.5 225.5 5.0 79.5 17.5" fill-rule="evenodd" stroke="none"/>
    </g>
    <g id="font_Lithos_Pro_Regular_V0">
      <path d="M625.5 -748.5 L625.5 -748.5 841.5 -637.0 Q831.0 -622.0 801.5 -575.0 772.0 -528.5 730.5 -462.0 688.5 -395.0 641.5 -320.0 594.5 -245.0 549.5 -173.0 504.5 -101.5 468.5 -44.5 432.5 12.5 412.5 43.0 L402.5 43.0 Q375.5 1.0 338.0 -60.0 300.5 -121.0 258.5 -192.0 216.5 -263.0 174.5 -334.0 132.5 -405.5 96.5 -467.0 60.5 -529.0 35.0 -571.5 10.0 -614.5 1.0 -629.0 L221.0 -748.5 Q228.0 -733.5 247.0 -693.5 266.0 -653.0 291.5 -599.0 317.0 -545.5 343.0 -490.0 369.0 -435.0 390.0 -390.5 410.5 -346.0 420.5 -324.5 430.5 -346.5 452.5 -392.5 474.5 -438.0 502.0 -494.5 529.5 -551.0 556.0 -605.0 582.5 -659.5 601.5 -698.5 620.5 -737.5 625.5 -748.5" fill-rule="evenodd" stroke="none"/>
    </g>
    <g id="font_Lithos_Pro_Regular_r0">
      <path d="M311.5 -492.5 L311.5 -266.0 Q311.5 -255.5 311.5 -227.5 312.0 -199.0 312.5 -162.0 312.5 -125.5 313.0 -90.0 314.0 -54.5 314.5 -29.5 315.0 -5.0 315.5 0.0 L95.5 0.0 Q96.5 -7.0 97.5 -31.5 98.0 -56.0 98.5 -89.5 98.5 -123.0 98.5 -156.5 98.5 -190.0 98.5 -214.0 98.5 -238.5 98.5 -244.5 L98.5 -386.0 Q98.5 -394.5 98.5 -419.0 98.0 -443.0 97.5 -474.5 97.5 -506.0 97.0 -537.0 96.0 -568.0 95.5 -590.0 95.0 -612.5 94.5 -618.5 194.0 -619.0 285.0 -617.5 376.5 -616.5 444.5 -608.0 547.5 -595.0 602.0 -557.0 656.0 -519.0 656.5 -458.5 656.0 -404.5 626.0 -361.5 596.0 -319.0 539.5 -284.5 551.0 -273.0 577.0 -247.5 603.5 -222.5 634.5 -193.0 665.5 -163.0 691.5 -138.5 717.0 -113.5 727.0 -102.5 L545.0 29.5 Q537.5 19.0 516.0 -12.0 494.5 -43.0 466.0 -84.5 437.5 -126.0 409.0 -168.0 380.0 -209.5 358.0 -241.5 336.0 -273.5 328.0 -285.5 352.5 -297.5 375.5 -316.0 399.0 -334.0 414.0 -359.5 429.5 -384.5 430.0 -417.0 431.5 -448.5 405.5 -469.5 379.5 -491.0 311.5 -492.5" fill-rule="evenodd" stroke="none"/>
    </g>
    <g id="shape3" transform="matrix(1.0, 0.0, 0.0, 1.0, 1.15, 1.05)">
      <path d="M187.85 -0.05 L187.85 333.95 -0.15 333.95 -0.15 -0.05 187.85 -0.05 Z" fill="none" stroke="#000000" stroke-linecap="round" stroke-linejoin="round" stroke-width="2.0"/>
    </g>
  </defs>
</svg>
