<?xml version="1.0" encoding="UTF-8" standalone="no"?>
<svg xmlns:ffdec="https://www.free-decompiler.com/flash" xmlns:xlink="http://www.w3.org/1999/xlink" ffdec:objectType="frame" height="430.5px" width="435.95px" xmlns="http://www.w3.org/2000/svg">
  <g transform="matrix(1.0, 0.0, 0.0, 1.0, 150.6, 52.0)">
    <use ffdec:characterId="58" height="400.0" transform="matrix(0.2856, 0.0, 0.0, 0.875, -7.1, -8.05)" width="700.0" xlink:href="#shape0"/>
    <use ffdec:characterId="975" height="35.05" transform="matrix(1.0, 0.0, 0.0, 1.0, 82.05, 209.85)" width="29.95" xlink:href="#shape1"/>
    <filter id="filter35">
      <feColorMatrix in="SourceGraphic" result="filterResult0" type="matrix" values="0 0 0 0 0.2,0 0 0 0 0.2,0 0 0 0 0.2,0 0 0 1 0"/>
      <feConvolveMatrix divisor="25.0" in="filterResult0" kernelMatrix="1 1 1 1 1 1 1 1 1 1 1 1 1 1 1 1 1 1 1 1 1 1 1 1 1" order="5 5" result="filterResult1"/>
      <feComposite in="SourceGraphic" in2="filterResult1" operator="over" result="filterResult2"/>
    </filter>
    <use ffdec:characterId="1179" filter="url(#filter35)" height="50.7" transform="matrix(1.0, 0.0, 0.0, 1.0, 29.95, 256.95)" width="136.25" xlink:href="#text0"/>
  </g>
  <defs>
    <g id="shape0" transform="matrix(1.0, 0.0, 0.0, 1.0, 0.0, 0.0)">
      <path d="M700.0 400.0 L0.0 400.0 0.0 0.0 700.0 0.0 700.0 400.0" fill="#000000" fill-opacity="0.49803922" fill-rule="evenodd" stroke="none"/>
    </g>
    <g id="shape1" transform="matrix(1.0, 0.0, 0.0, 1.0, 0.0, 0.0)">
      <path d="M25.45 12.55 L25.95 12.65 26.4 12.7 Q26.1 12.25 26.1 11.6 L26.25 9.8 Q25.95 7.5 25.4 6.35 L24.6 4.65 24.45 4.25 23.55 3.1 Q22.2 2.1 20.35 1.6 L19.9 1.5 15.55 0.95 14.55 0.9 Q7.75 0.9 4.85 4.25 2.2 7.3 3.0 12.7 L3.1 12.7 3.6 12.7 4.05 12.65 5.25 12.5 6.05 12.45 6.95 12.4 7.3 12.35 7.1 12.0 7.05 11.2 7.15 9.85 7.55 9.3 Q7.55 7.7 9.9 6.3 12.2 4.8 15.0 4.6 18.2 4.35 20.15 5.9 21.35 6.75 21.95 8.2 22.45 9.55 22.45 11.5 L22.45 12.45 24.1 12.5 25.3 12.55 25.45 12.55 M24.9 3.15 L26.05 4.65 Q26.7 5.5 26.75 6.25 L27.55 12.65 27.55 12.8 28.4 12.95 29.15 13.15 29.5 14.1 29.4 14.1 Q29.85 15.3 29.75 17.15 L29.65 20.65 29.95 27.65 Q29.95 29.85 27.55 31.95 24.0 35.05 16.75 35.05 11.1 35.05 6.8 33.4 1.6 31.55 1.05 28.05 L0.55 25.9 Q0.1 24.35 0.1 23.65 L0.1 19.55 0.1 18.2 0.1 16.5 0.0 14.85 Q0.0 14.35 0.15 14.05 L0.1 14.0 0.3 13.5 Q1.05 12.95 2.15 12.8 L2.0 11.85 2.0 10.15 1.95 7.15 Q2.1 6.05 3.85 3.85 5.45 1.65 7.55 1.2 L9.25 0.7 9.55 0.5 16.0 0.05 16.95 0.0 19.15 0.3 19.55 0.4 22.35 1.35 Q24.0 1.95 24.9 3.15 M21.15 9.3 Q21.15 5.95 15.9 5.95 13.05 5.95 10.8 6.95 8.95 7.8 8.6 9.05 L8.6 9.4 8.5 9.8 8.5 9.85 8.15 10.75 Q7.8 11.75 8.4 12.3 L16.1 12.35 21.4 12.4 Q21.2 12.0 21.15 11.45 L21.15 9.3 M5.55 31.75 L6.6 32.2 Q10.45 34.0 16.7 34.0 L23.7 33.25 Q27.15 32.1 28.35 29.45 28.8 28.45 28.75 26.85 L28.6 24.1 28.6 21.4 28.6 18.75 28.55 16.15 Q28.55 15.0 28.95 14.1 L27.7 14.0 27.1 13.7 25.2 13.55 24.0 13.5 23.85 13.5 23.8 13.5 15.75 13.3 Q7.75 13.3 4.95 13.55 L4.9 13.5 4.9 13.4 4.85 13.5 4.75 13.55 3.6 13.7 3.15 14.0 1.05 14.1 1.0 14.1 1.0 14.15 1.2 16.05 1.15 18.85 1.15 24.35 Q1.15 25.6 1.7 27.05 2.25 28.65 3.3 29.85 4.1 30.8 5.35 31.6 L5.55 31.75 M15.8 17.65 Q16.85 17.9 17.75 18.45 19.0 19.2 19.0 19.95 19.0 21.1 18.15 22.15 L17.3 23.2 Q17.3 23.45 18.45 25.1 L19.55 26.85 19.4 27.3 19.0 27.45 12.05 27.45 Q13.0 26.65 13.95 23.45 L13.9 22.9 13.85 22.75 13.4 22.8 12.2 21.6 12.1 20.45 Q12.1 19.45 13.95 18.65 L15.8 17.65" fill="#342f27" fill-rule="evenodd" stroke="none"/>
      <path d="M15.55 0.95 L19.9 1.5 20.35 1.6 Q22.2 2.1 23.55 3.1 L24.45 4.25 24.6 4.65 25.4 6.35 Q25.95 7.5 26.25 9.8 L26.1 11.6 Q26.1 12.25 26.4 12.7 L25.95 12.65 25.45 12.55 25.45 12.35 24.85 7.9 Q24.45 5.85 23.2 4.9 L23.3 4.7 23.15 4.55 21.7 3.5 19.4 2.55 18.15 2.1 18.0 2.15 17.35 1.95 15.45 1.45 15.55 0.95 M21.95 8.2 Q21.35 6.75 20.15 5.9 18.2 4.35 15.0 4.6 12.2 4.8 9.9 6.3 7.55 7.7 7.55 9.3 L7.15 9.85 7.05 11.2 7.1 12.0 7.3 12.35 6.95 12.4 6.05 12.45 5.25 12.5 Q4.95 12.25 4.9 11.55 L4.9 10.15 Q4.9 7.35 7.55 5.5 9.95 3.85 13.45 3.65 16.85 3.3 19.25 4.55 21.9 5.8 21.95 8.2 M25.2 13.55 L27.1 13.7 27.7 14.0 28.95 14.1 Q28.55 15.0 28.55 16.15 L28.6 18.75 28.6 21.4 28.6 24.1 28.75 26.85 Q28.8 28.45 28.35 29.45 27.15 32.1 23.7 33.25 L16.7 34.0 Q10.45 34.0 6.6 32.2 L5.55 31.75 5.6 31.6 8.15 31.5 8.6 31.6 9.0 31.55 9.35 31.7 16.1 32.05 22.4 31.65 Q23.15 31.45 23.7 30.9 L25.3 29.85 Q26.25 29.0 26.25 28.6 L26.2 28.15 26.1 28.05 26.0 28.0 26.35 25.95 26.25 23.1 26.0 16.75 Q25.8 14.35 25.2 13.55 M12.05 27.45 L10.5 27.45 10.5 27.05 Q10.5 26.2 11.65 24.5 L12.55 23.45 12.6 23.45 12.6 23.4 12.65 23.35 12.6 23.35 12.5 23.35 Q11.25 23.35 10.5 21.75 L10.15 20.7 10.25 20.45 10.8 19.3 10.95 18.9 12.45 18.1 Q13.6 17.45 14.75 17.45 L15.8 17.5 15.8 17.55 15.8 17.65 13.95 18.65 Q12.1 19.45 12.1 20.45 L12.2 21.6 13.4 22.8 13.85 22.75 13.9 22.9 13.95 23.45 Q13.0 26.65 12.05 27.45" fill="#4a4640" fill-rule="evenodd" stroke="none"/>
      <path d="M18.0 2.15 L18.15 2.1 19.4 2.55 21.7 3.5 23.15 4.55 23.3 4.7 23.2 4.9 Q24.45 5.85 24.85 7.9 L25.45 12.35 25.3 12.55 24.1 12.5 22.45 12.45 22.45 11.5 Q22.45 9.55 21.95 8.2 21.9 5.8 19.25 4.55 16.85 3.3 13.45 3.65 9.95 3.85 7.55 5.5 4.9 7.35 4.9 10.15 L4.9 11.55 Q4.95 12.25 5.25 12.5 L4.05 12.65 4.4 11.0 Q4.5 7.8 4.7 7.35 5.05 6.1 5.35 5.7 5.9 4.85 7.3 3.95 L10.65 2.5 16.7 2.2 17.35 2.2 18.0 2.15 M4.95 13.55 Q7.75 13.3 15.75 13.3 L23.8 13.5 23.8 13.55 23.8 15.35 24.35 19.8 24.9 24.9 24.6 27.05 24.55 28.2 24.6 28.55 23.6 29.65 21.8 30.4 16.6 30.8 12.0 30.65 9.1 30.5 8.95 30.55 7.65 29.2 Q6.15 27.65 5.95 26.8 5.4 24.45 5.4 22.3 L5.75 17.85 Q5.85 15.25 4.95 13.55 M12.05 27.45 L19.0 27.45 19.4 27.3 19.55 26.85 18.45 25.1 Q17.3 23.45 17.3 23.2 L18.15 22.15 Q19.0 21.1 19.0 19.95 19.0 19.2 17.75 18.45 16.85 17.9 15.8 17.65 L15.8 17.55 15.8 17.5 14.75 17.45 Q13.6 17.45 12.45 18.1 L10.95 18.9 10.8 19.3 10.25 20.45 10.15 20.7 10.5 21.75 Q11.25 23.35 12.5 23.35 L12.6 23.45 12.55 23.45 11.65 24.5 Q10.5 26.2 10.5 27.05 L10.5 27.45 12.05 27.45" fill="#6d685f" fill-rule="evenodd" stroke="none"/>
      <path d="M24.0 13.5 L25.2 13.55 Q25.8 14.35 26.0 16.75 L26.25 23.1 26.35 25.95 26.0 28.0 26.1 28.05 26.2 28.15 26.25 28.6 Q26.25 29.0 25.3 29.85 L23.7 30.9 Q23.15 31.45 22.4 31.65 L16.1 32.05 9.35 31.7 9.0 31.55 8.6 31.6 8.15 31.5 6.65 30.3 5.2 28.4 Q4.3 27.0 4.35 24.9 L4.1 18.3 Q4.1 14.35 4.75 13.55 L4.95 13.55 Q5.85 15.25 5.75 17.85 L5.4 22.3 Q5.4 24.45 5.95 26.8 6.15 27.65 7.65 29.2 L8.95 30.55 9.1 30.5 12.0 30.65 16.6 30.8 21.8 30.4 23.6 29.65 24.6 28.55 24.55 28.2 24.6 27.05 24.9 24.9 24.35 19.8 23.8 15.35 23.8 13.55 24.0 13.5" fill="#5f5a52" fill-rule="evenodd" stroke="none"/>
      <path d="M23.85 13.5 L24.0 13.5 23.8 13.55 23.85 13.5 M12.6 23.4 L12.5 23.35 12.6 23.35 12.6 23.4" fill="#666666" fill-rule="evenodd" stroke="none"/>
      <path d="M23.8 13.5 L23.85 13.5 23.8 13.55 23.8 13.5 M12.6 23.45 L12.5 23.35 12.6 23.4 12.6 23.45" fill="#5f5747" fill-rule="evenodd" stroke="none"/>
      <path d="M25.45 12.35 L25.45 12.55 25.3 12.55 25.45 12.35 M5.55 31.75 L5.35 31.6 5.6 31.6 5.55 31.75" fill="#333333" fill-rule="evenodd" stroke="none"/>
      <path d="M15.55 0.95 L15.45 1.45 17.35 1.95 17.35 2.2 16.7 2.2 10.65 2.5 7.3 3.95 Q5.9 4.85 5.35 5.7 5.05 6.1 4.7 7.35 4.5 7.8 4.4 11.0 L4.05 12.65 3.6 12.7 3.1 12.7 3.0 12.7 Q2.2 7.3 4.85 4.25 7.75 0.9 14.55 0.9 L15.55 0.95 M5.35 31.6 Q4.1 30.8 3.3 29.85 2.25 28.65 1.7 27.05 1.15 25.6 1.15 24.35 L1.15 18.85 1.2 16.05 1.0 14.15 1.05 14.1 3.15 14.0 3.6 13.7 4.75 13.55 Q4.1 14.35 4.1 18.3 L4.35 24.9 Q4.3 27.0 5.2 28.4 L6.65 30.3 8.15 31.5 5.6 31.6 5.35 31.6" fill="#7e786d" fill-rule="evenodd" stroke="none"/>
      <path d="M17.35 1.95 L18.0 2.15 17.35 2.2 17.35 1.95" fill="#999999" fill-rule="evenodd" stroke="none"/>
      <path d="M4.75 13.55 L4.85 13.5 4.9 13.4 4.9 13.5 4.95 13.55 4.75 13.55" fill="#cccccc" fill-rule="evenodd" stroke="none"/>
      <path d="M12.6 23.4 L12.6 23.35 12.65 23.35 12.6 23.4" fill="#000000" fill-rule="evenodd" stroke="none"/>
    </g>
    <g id="text0" transform="matrix(1.0, 0.0, 0.0, 1.0, -11.6, -2.65)">
      <g transform="matrix(1.0, 0.0, 0.0, 1.0, 0.0, 0.0)">
        <use fill="#bbb2a1" height="50.7" transform="matrix(0.0176, 0.0, 0.0, 0.0176, 40.0, 17.0)" width="136.25" xlink:href="#font_Lithos_Pro_Regular_L0"/>
        <use fill="#bbb2a1" height="50.7" transform="matrix(0.0176, 0.0, 0.0, 0.0176, 50.55, 17.0)" width="136.25" xlink:href="#font_Lithos_Pro_Regular_o0"/>
        <use fill="#bbb2a1" height="50.7" transform="matrix(0.0176, 0.0, 0.0, 0.0176, 65.4, 17.0)" width="136.25" xlink:href="#font_Lithos_Pro_Regular_c0"/>
        <use fill="#bbb2a1" height="50.7" transform="matrix(0.0176, 0.0, 0.0, 0.0176, 76.05, 17.0)" width="136.25" xlink:href="#font_Lithos_Pro_Regular_k0"/>
        <use fill="#bbb2a1" height="50.7" transform="matrix(0.0176, 0.0, 0.0, 0.0176, 89.15, 17.0)" width="136.25" xlink:href="#font_Lithos_Pro_Regular_e0"/>
        <use fill="#bbb2a1" height="50.7" transform="matrix(0.0176, 0.0, 0.0, 0.0176, 99.4, 17.0)" width="136.25" xlink:href="#font_Lithos_Pro_Regular_d0"/>
      </g>
      <g transform="matrix(1.0, 0.0, 0.0, 1.0, 0.0, 0.0)">
        <use fill="#bbb2a1" height="50.7" transform="matrix(0.0107, 0.0, 0.0, 0.0107, 23.0, 36.0)" width="136.25" xlink:href="#font_Lithos_Pro_Regular_C0"/>
        <use fill="#bbb2a1" height="50.7" transform="matrix(0.0107, 0.0, 0.0, 0.0107, 30.0, 36.0)" width="136.25" xlink:href="#font_Lithos_Pro_Regular_o0"/>
        <use fill="#bbb2a1" height="50.7" transform="matrix(0.0107, 0.0, 0.0, 0.0107, 38.7, 36.0)" width="136.25" xlink:href="#font_Lithos_Pro_Regular_m0"/>
        <use fill="#bbb2a1" height="50.7" transform="matrix(0.0107, 0.0, 0.0, 0.0107, 49.6, 36.0)" width="136.25" xlink:href="#font_Lithos_Pro_Regular_p0"/>
        <use fill="#bbb2a1" height="50.7" transform="matrix(0.0107, 0.0, 0.0, 0.0107, 56.95, 36.0)" width="136.25" xlink:href="#font_Lithos_Pro_Regular_l0"/>
        <use fill="#bbb2a1" height="50.7" transform="matrix(0.0107, 0.0, 0.0, 0.0107, 62.8, 36.0)" width="136.25" xlink:href="#font_Lithos_Pro_Regular_e0"/>
        <use fill="#bbb2a1" height="50.7" transform="matrix(0.0107, 0.0, 0.0, 0.0107, 69.05, 36.0)" width="136.25" xlink:href="#font_Lithos_Pro_Regular_t0"/>
        <use fill="#bbb2a1" height="50.7" transform="matrix(0.0107, 0.0, 0.0, 0.0107, 75.65, 36.0)" width="136.25" xlink:href="#font_Lithos_Pro_Regular_e0"/>
        <use fill="#bbb2a1" height="50.7" transform="matrix(0.0107, 0.0, 0.0, 0.0107, 84.65, 36.0)" width="136.25" xlink:href="#font_Lithos_Pro_Regular_R0"/>
        <use fill="#bbb2a1" height="50.7" transform="matrix(0.0107, 0.0, 0.0, 0.0107, 93.15, 36.0)" width="136.25" xlink:href="#font_Lithos_Pro_Regular_o0"/>
        <use fill="#bbb2a1" height="50.7" transform="matrix(0.0107, 0.0, 0.0, 0.0107, 101.85, 36.0)" width="136.25" xlink:href="#font_Lithos_Pro_Regular_m0"/>
        <use fill="#bbb2a1" height="50.7" transform="matrix(0.0107, 0.0, 0.0, 0.0107, 112.75, 36.0)" width="136.25" xlink:href="#font_Lithos_Pro_Regular_a0"/>
        <use fill="#bbb2a1" height="50.7" transform="matrix(0.0107, 0.0, 0.0, 0.0107, 121.2, 36.0)" width="136.25" xlink:href="#font_Lithos_Pro_Regular_n0"/>
      </g>
      <g transform="matrix(1.0, 0.0, 0.0, 1.0, 0.0, 0.0)">
        <use fill="#bbb2a1" height="50.7" transform="matrix(0.0107, 0.0, 0.0, 0.0107, 11.0, 52.0)" width="136.25" xlink:href="#font_Lithos_Pro_Regular_C0"/>
        <use fill="#bbb2a1" height="50.7" transform="matrix(0.0107, 0.0, 0.0, 0.0107, 18.1, 52.0)" width="136.25" xlink:href="#font_Lithos_Pro_Regular_a0"/>
        <use fill="#bbb2a1" height="50.7" transform="matrix(0.0107, 0.0, 0.0, 0.0107, 26.55, 52.0)" width="136.25" xlink:href="#font_Lithos_Pro_Regular_m0"/>
        <use fill="#bbb2a1" height="50.7" transform="matrix(0.0107, 0.0, 0.0, 0.0107, 37.45, 52.0)" width="136.25" xlink:href="#font_Lithos_Pro_Regular_a0"/>
        <use fill="#bbb2a1" height="50.7" transform="matrix(0.0107, 0.0, 0.0, 0.0107, 45.9, 52.0)" width="136.25" xlink:href="#font_Lithos_Pro_Regular_p0"/>
        <use fill="#bbb2a1" height="50.7" transform="matrix(0.0107, 0.0, 0.0, 0.0107, 53.25, 52.0)" width="136.25" xlink:href="#font_Lithos_Pro_Regular_g0"/>
        <use fill="#bbb2a1" height="50.7" transform="matrix(0.0107, 0.0, 0.0, 0.0107, 60.75, 52.0)" width="136.25" xlink:href="#font_Lithos_Pro_Regular_i0"/>
        <use fill="#bbb2a1" height="50.7" transform="matrix(0.0107, 0.0, 0.0, 0.0107, 65.15, 52.0)" width="136.25" xlink:href="#font_Lithos_Pro_Regular_n0"/>
        <use fill="#bbb2a1" height="50.7" transform="matrix(0.0107, 0.0, 0.0, 0.0107, 76.65, 52.0)" width="136.25" xlink:href="#font_Lithos_Pro_Regular_t0"/>
        <use fill="#bbb2a1" height="50.7" transform="matrix(0.0107, 0.0, 0.0, 0.0107, 82.85, 52.0)" width="136.25" xlink:href="#font_Lithos_Pro_Regular_o0"/>
        <use fill="#bbb2a1" height="50.7" transform="matrix(0.0107, 0.0, 0.0, 0.0107, 94.65, 52.0)" width="136.25" xlink:href="#font_Lithos_Pro_Regular_U0"/>
        <use fill="#bbb2a1" height="50.7" transform="matrix(0.0107, 0.0, 0.0, 0.0107, 104.0, 52.0)" width="136.25" xlink:href="#font_Lithos_Pro_Regular_n0"/>
        <use fill="#bbb2a1" height="50.7" transform="matrix(0.0107, 0.0, 0.0, 0.0107, 112.75, 52.0)" width="136.25" xlink:href="#font_Lithos_Pro_Regular_l0"/>
        <use fill="#bbb2a1" height="50.7" transform="matrix(0.0107, 0.0, 0.0, 0.0107, 118.6, 52.0)" width="136.25" xlink:href="#font_Lithos_Pro_Regular_o0"/>
        <use fill="#bbb2a1" height="50.7" transform="matrix(0.0107, 0.0, 0.0, 0.0107, 127.65, 52.0)" width="136.25" xlink:href="#font_Lithos_Pro_Regular_c0"/>
        <use fill="#bbb2a1" height="50.7" transform="matrix(0.0107, 0.0, 0.0, 0.0107, 134.15, 52.0)" width="136.25" xlink:href="#font_Lithos_Pro_Regular_k0"/>
      </g>
    </g>
    <g id="font_Lithos_Pro_Regular_L0">
      <path d="M106.5 -726.0 L106.5 -726.0 346.0 -726.0 Q345.5 -716.0 345.0 -677.5 344.0 -639.0 343.0 -584.0 342.0 -529.0 341.5 -471.0 341.0 -412.5 341.0 -363.0 L341.0 -176.0 Q350.5 -176.0 375.5 -176.0 400.0 -176.0 433.0 -176.5 466.5 -177.0 501.5 -177.5 537.0 -178.5 568.5 -180.0 L569.5 10.5 Q560.5 10.5 519.5 9.5 478.5 8.5 419.5 7.0 361.0 5.5 298.5 3.5 236.0 2.0 184.5 1.0 133.5 0.0 107.5 0.0 108.5 -17.0 109.0 -49.5 109.5 -82.0 110.0 -121.0 110.0 -160.5 110.5 -198.0 110.5 -235.5 110.5 -262.5 110.5 -289.5 110.5 -297.5 L110.5 -433.5 Q110.5 -439.5 110.5 -468.5 110.0 -497.5 109.5 -538.0 109.5 -578.5 109.0 -619.5 108.5 -660.0 107.5 -689.5 107.0 -719.0 106.5 -726.0" fill-rule="evenodd" stroke="none"/>
    </g>
    <g id="font_Lithos_Pro_Regular_o0">
      <path d="M409.5 -127.0 L409.5 -127.0 Q482.0 -127.0 524.0 -175.0 565.5 -223.5 566.5 -319.5 566.0 -403.0 531.5 -446.5 496.5 -490.5 432.5 -490.5 382.0 -490.0 347.5 -463.5 313.0 -437.5 295.5 -393.5 277.5 -350.0 277.5 -297.0 278.0 -239.5 296.0 -202.0 313.5 -164.0 343.5 -145.5 373.5 -127.0 409.5 -127.0 M399.5 14.5 L399.5 14.5 Q306.0 13.5 237.5 -12.5 169.5 -39.0 125.5 -82.5 81.5 -126.0 60.0 -178.5 39.0 -230.5 39.0 -283.5 39.0 -347.5 63.5 -409.0 88.5 -470.5 138.5 -521.0 188.5 -571.0 265.0 -601.0 341.5 -631.0 444.5 -632.0 556.5 -631.5 637.0 -595.0 718.0 -558.5 761.0 -490.0 804.5 -422.0 805.0 -325.5 805.5 -275.5 785.5 -217.0 766.0 -159.0 719.5 -106.5 673.5 -54.0 595.0 -20.5 516.5 13.5 399.5 14.5" fill-rule="evenodd" stroke="none"/>
    </g>
    <g id="font_Lithos_Pro_Regular_c0">
      <path d="M556.0 -158.5 L565.5 7.5 Q541.0 10.5 514.5 12.5 487.5 14.5 455.0 14.5 340.5 14.0 260.0 -9.5 179.5 -33.0 129.5 -71.5 79.5 -109.5 56.0 -155.5 33.0 -201.5 33.0 -247.5 33.0 -302.5 60.5 -360.5 88.5 -418.5 145.5 -472.5 202.5 -526.5 290.5 -568.0 378.5 -610.0 499.0 -632.0 L540.0 -460.0 Q445.0 -443.5 385.5 -414.5 326.5 -385.5 298.5 -348.5 271.0 -311.0 271.5 -270.5 272.0 -218.5 322.5 -187.0 372.5 -155.5 466.0 -154.5 494.5 -154.5 517.0 -155.5 539.5 -157.0 556.0 -158.5" fill-rule="evenodd" stroke="none"/>
    </g>
    <g id="font_Lithos_Pro_Regular_k0">
      <path d="M322.5 9.5 L93.5 9.5 Q94.0 -1.0 94.5 -30.0 95.0 -59.0 95.5 -99.0 96.0 -139.0 96.0 -182.0 96.5 -225.0 96.5 -263.0 L96.5 -355.0 Q96.5 -384.5 96.0 -427.0 95.5 -469.0 95.0 -512.0 94.5 -554.5 94.0 -586.5 93.5 -618.5 93.5 -627.0 L322.5 -627.0 Q322.0 -620.5 321.5 -593.0 320.5 -565.0 319.5 -526.0 319.0 -487.0 318.0 -447.5 317.5 -408.0 317.5 -378.5 L317.5 -353.0 319.5 -353.0 Q334.0 -370.5 359.5 -402.0 385.5 -433.0 416.0 -470.0 447.0 -507.0 476.0 -542.0 505.5 -577.0 526.5 -602.5 548.0 -628.0 555.0 -636.0 L711.5 -497.5 Q692.0 -479.0 658.0 -446.0 624.0 -413.0 588.0 -377.5 551.5 -342.0 525.5 -316.0 538.5 -302.5 565.5 -276.0 592.0 -250.0 623.0 -219.5 654.5 -189.5 681.5 -163.0 709.0 -136.0 724.0 -122.0 L547.0 25.5 Q541.5 19.5 522.0 -5.5 502.5 -30.5 474.5 -66.5 447.0 -103.0 417.0 -142.0 387.0 -181.5 361.0 -215.5 335.0 -250.0 319.5 -271.0 L317.5 -271.0 317.5 -255.5 Q317.5 -229.5 318.0 -188.0 318.5 -147.0 319.5 -104.5 320.0 -61.5 321.0 -30.0 322.0 2.0 322.5 9.5" fill-rule="evenodd" stroke="none"/>
    </g>
    <g id="font_Lithos_Pro_Regular_e0">
      <path d="M519.5 -147.0 L522.5 9.5 Q510.0 9.5 468.5 8.5 427.5 7.5 371.0 6.0 315.0 5.0 257.5 3.5 200.5 2.0 156.0 1.0 112.0 0.0 94.5 0.0 95.0 -18.5 95.5 -56.0 96.0 -93.5 96.5 -136.0 96.5 -178.5 96.5 -211.0 96.5 -244.0 96.5 -253.0 L96.5 -368.5 Q96.5 -373.5 96.5 -397.5 96.0 -421.5 96.0 -455.0 95.5 -489.0 95.0 -523.5 95.0 -558.0 94.5 -584.0 94.5 -610.0 94.5 -618.5 113.0 -618.5 155.5 -620.0 198.5 -621.0 252.5 -623.0 307.0 -625.0 360.0 -627.0 413.0 -629.5 452.0 -631.0 491.5 -633.0 504.0 -634.0 L508.0 -484.5 Q494.0 -484.5 465.0 -483.5 435.5 -483.0 402.5 -482.0 369.0 -481.0 343.5 -480.0 317.5 -479.5 310.5 -479.5 L310.5 -373.5 Q318.0 -373.5 338.5 -374.0 359.0 -375.0 385.5 -376.0 412.0 -377.0 436.5 -378.5 461.5 -380.0 477.5 -381.5 L479.5 -236.5 Q469.5 -236.5 445.5 -237.0 421.5 -237.5 393.5 -238.0 365.0 -238.5 342.0 -239.0 319.0 -239.5 310.5 -239.5 L310.5 -145.0 Q320.0 -145.0 347.0 -144.5 373.5 -144.5 407.0 -144.5 441.0 -144.5 471.5 -145.0 502.0 -145.5 519.5 -147.0" fill-rule="evenodd" stroke="none"/>
    </g>
    <g id="font_Lithos_Pro_Regular_d0">
      <path d="M313.5 -475.0 L313.5 -158.0 Q345.5 -162.0 379.5 -175.5 413.5 -189.5 442.5 -213.0 472.0 -237.0 490.5 -271.0 508.5 -305.5 509.0 -351.0 508.0 -404.5 480.0 -431.0 452.0 -458.0 407.5 -467.0 363.0 -476.0 313.5 -475.0 M96.5 -275.5 L96.5 -383.0 Q96.5 -389.0 96.5 -412.0 96.5 -435.0 96.0 -466.5 95.5 -498.5 95.0 -530.0 94.5 -562.0 94.0 -586.5 93.5 -610.5 92.5 -618.5 179.5 -618.5 244.0 -617.0 309.0 -616.0 359.0 -613.0 409.5 -609.5 451.5 -604.0 543.0 -592.0 600.0 -566.5 657.5 -540.5 688.0 -508.0 718.5 -475.5 730.0 -442.0 741.0 -409.0 740.5 -382.0 739.5 -297.5 702.0 -232.5 665.0 -168.0 600.0 -121.5 535.0 -75.5 451.5 -47.0 368.5 -18.5 276.0 -6.0 183.5 6.5 91.5 4.0 92.5 -8.5 93.0 -38.0 94.0 -67.5 94.5 -105.0 95.0 -142.0 95.5 -178.5 96.0 -214.5 96.5 -241.0 96.5 -267.5 96.5 -275.5" fill-rule="evenodd" stroke="none"/>
    </g>
    <g id="font_Lithos_Pro_Regular_C0">
      <path d="M606.5 -179.0 L606.5 -179.0 616.5 8.5 Q590.0 11.5 561.0 14.0 531.5 16.5 496.0 16.5 370.0 15.5 282.5 -12.5 194.5 -40.5 140.0 -86.0 85.5 -132.0 60.5 -185.5 35.5 -239.5 36.0 -292.0 36.0 -356.0 66.0 -423.5 95.5 -490.5 157.5 -553.0 219.5 -615.5 315.5 -665.0 411.5 -714.5 544.0 -743.5 L589.0 -547.0 Q481.5 -527.0 414.5 -491.5 347.5 -456.0 316.5 -411.0 285.5 -366.0 286.0 -317.5 286.5 -277.5 313.5 -245.0 340.5 -213.0 390.0 -193.5 439.5 -174.5 508.0 -174.0 539.0 -174.0 563.5 -176.0 588.0 -177.5 606.5 -179.0" fill-rule="evenodd" stroke="none"/>
    </g>
    <g id="font_Lithos_Pro_Regular_m0">
      <path d="M195.5 26.5 L9.0 -37.0 Q13.5 -46.5 30.0 -86.0 46.5 -125.0 70.5 -183.5 94.5 -242.0 122.5 -308.5 150.0 -375.5 177.5 -440.0 205.0 -504.5 227.5 -556.5 250.0 -608.5 264.0 -637.0 L278.5 -637.0 Q300.5 -603.5 333.0 -554.0 365.5 -505.0 400.0 -452.5 434.0 -400.5 461.5 -359.0 489.0 -317.0 500.5 -299.0 514.5 -319.5 542.5 -361.5 570.0 -403.0 603.0 -453.0 635.5 -503.0 666.0 -549.0 696.0 -595.0 715.5 -624.0 L730.0 -624.0 Q750.0 -584.0 781.0 -519.0 812.0 -454.5 847.0 -380.0 882.5 -305.5 915.0 -236.0 948.0 -166.5 971.5 -116.5 995.5 -66.5 1003.5 -51.0 L811.0 26.5 Q801.5 5.0 787.5 -30.0 773.0 -64.5 756.5 -105.0 740.0 -145.0 725.0 -182.5 710.0 -219.5 700.0 -246.5 689.5 -273.0 687.0 -280.5 682.0 -273.5 661.0 -244.0 640.0 -214.5 610.0 -173.0 580.0 -131.0 548.0 -87.5 516.0 -44.0 489.5 -9.5 L475.0 -9.5 Q447.5 -47.5 418.5 -90.0 389.0 -132.0 362.5 -171.0 336.0 -210.0 317.0 -238.0 298.5 -266.5 292.5 -276.5 288.5 -262.5 279.0 -231.5 270.0 -201.0 258.0 -162.0 245.5 -123.5 233.5 -85.0 221.0 -46.5 211.0 -16.5 201.0 13.5 195.5 26.5" fill-rule="evenodd" stroke="none"/>
    </g>
    <g id="font_Lithos_Pro_Regular_p0">
      <path d="M311.5 -491.5 L311.5 -278.5 Q337.5 -279.5 364.5 -293.5 392.0 -307.0 411.0 -334.0 430.0 -360.5 431.0 -400.5 432.5 -437.5 406.0 -461.5 380.0 -485.5 311.5 -491.5 M312.5 0.0 L93.5 0.0 Q93.5 -15.5 94.0 -55.5 94.0 -95.5 94.5 -145.5 95.0 -195.0 95.0 -240.0 95.5 -284.5 95.5 -309.5 L95.5 -404.5 Q95.5 -411.5 95.5 -433.5 95.0 -455.5 95.0 -485.0 94.5 -514.5 94.0 -543.5 94.0 -572.5 93.5 -593.0 93.5 -614.0 93.5 -618.5 192.0 -618.5 264.0 -616.5 336.0 -615.0 388.0 -610.0 440.0 -605.0 478.0 -596.0 525.5 -585.5 565.0 -564.0 604.5 -542.5 628.5 -508.0 652.5 -474.0 653.0 -425.0 653.0 -363.5 613.5 -307.0 574.5 -250.5 498.5 -208.5 422.5 -166.5 311.5 -149.5 L311.5 -127.0 Q311.5 -120.0 311.5 -102.5 311.5 -85.0 311.5 -64.0 311.5 -43.0 312.0 -25.0 312.0 -7.5 312.5 0.0" fill-rule="evenodd" stroke="none"/>
    </g>
    <g id="font_Lithos_Pro_Regular_l0">
      <path d="M93.5 -618.5 L322.5 -618.5 Q322.0 -610.0 321.5 -577.0 320.5 -544.0 319.5 -497.0 319.0 -450.5 318.0 -401.0 317.5 -351.0 317.5 -309.0 L317.5 -156.5 Q330.0 -156.5 364.5 -156.5 399.0 -157.0 442.5 -157.5 486.0 -158.5 524.5 -160.5 L525.5 9.5 Q516.0 9.5 477.5 8.5 439.0 7.5 384.5 6.0 330.0 5.0 272.5 3.5 215.0 2.0 167.5 1.0 119.5 0.0 94.5 0.0 95.0 -18.5 95.5 -56.0 96.0 -93.5 96.5 -136.0 96.5 -178.5 96.5 -211.0 96.5 -244.0 96.5 -252.5 L96.5 -368.5 Q96.5 -373.5 96.5 -398.5 96.0 -423.0 95.5 -457.5 95.5 -492.5 95.0 -527.0 94.5 -562.0 94.0 -587.0 94.0 -612.5 93.5 -618.5" fill-rule="evenodd" stroke="none"/>
    </g>
    <g id="font_Lithos_Pro_Regular_t0">
      <path d="M421.5 0.0 L194.5 0.0 Q195.0 -12.5 195.5 -51.5 196.0 -90.5 196.0 -141.5 196.5 -192.5 196.5 -241.0 L196.5 -461.0 Q181.5 -461.0 153.5 -460.5 125.0 -459.5 93.0 -459.0 61.5 -458.0 35.0 -457.0 8.5 -456.5 -3.0 -456.0 L-3.0 -616.5 Q10.0 -615.0 40.5 -614.0 70.5 -613.0 108.5 -612.0 146.0 -611.5 181.5 -610.5 217.5 -610.0 242.0 -609.5 266.5 -609.5 270.0 -609.5 L351.0 -609.5 Q357.0 -609.5 381.0 -609.5 405.0 -610.0 439.0 -610.5 473.5 -611.5 509.0 -612.0 544.5 -613.0 574.0 -614.0 603.0 -615.0 617.0 -616.5 L617.0 -456.0 Q609.5 -456.5 580.0 -457.0 550.5 -458.0 514.5 -459.0 478.5 -459.5 451.0 -460.5 423.0 -461.0 418.5 -461.0 L418.5 -227.5 Q418.5 -181.0 419.0 -132.5 419.0 -83.5 420.0 -46.5 420.5 -10.0 421.5 0.0" fill-rule="evenodd" stroke="none"/>
    </g>
    <g id="font_Lithos_Pro_Regular_R0">
      <path d="M333.5 -584.5 L333.5 -584.5 333.5 -312.5 Q333.5 -300.0 334.0 -267.0 334.0 -233.5 334.5 -190.5 335.0 -147.0 336.0 -105.5 336.5 -64.0 337.5 -34.5 338.0 -5.5 338.5 0.0 L110.5 0.0 Q111.5 -8.5 112.5 -46.0 113.0 -83.0 113.0 -134.5 113.0 -186.0 113.0 -237.5 113.0 -289.0 112.5 -325.5 112.5 -362.5 112.5 -370.0 L112.5 -454.0 Q112.5 -464.0 112.5 -492.0 112.0 -520.0 111.5 -557.0 111.0 -594.0 110.5 -630.5 110.0 -667.0 109.0 -693.0 108.5 -719.5 107.5 -726.0 178.0 -726.0 246.5 -725.0 314.5 -724.0 375.0 -721.0 435.5 -717.5 482.0 -711.5 596.0 -697.0 655.5 -653.0 715.0 -609.5 715.5 -538.5 714.5 -476.0 679.5 -426.0 644.0 -376.0 583.5 -334.0 596.0 -320.0 626.0 -289.0 656.0 -257.5 692.0 -220.5 727.5 -183.5 757.0 -152.5 786.5 -121.5 797.5 -108.5 L610.0 32.5 Q602.5 20.0 577.5 -16.5 553.0 -53.0 520.0 -101.5 486.5 -150.5 453.5 -199.5 420.0 -248.5 394.5 -286.0 369.0 -324.0 360.0 -338.5 383.5 -351.5 410.5 -374.0 438.0 -396.5 457.5 -426.0 477.0 -455.0 478.0 -489.5 478.5 -514.0 465.0 -535.5 452.0 -556.5 420.0 -570.0 388.5 -583.5 333.5 -584.5" fill-rule="evenodd" stroke="none"/>
    </g>
    <g id="font_Lithos_Pro_Regular_a0">
      <path d="M301.0 -222.5 L454.5 -229.5 Q434.5 -268.0 413.0 -306.5 391.5 -345.0 378.0 -373.0 361.0 -340.5 340.0 -300.0 319.5 -259.5 301.0 -222.5 M184.5 29.5 L0.0 -65.0 Q7.5 -76.5 30.5 -114.0 54.0 -152.0 88.0 -206.5 121.5 -261.5 161.0 -324.0 200.0 -387.0 239.5 -449.0 279.0 -511.5 313.5 -564.0 347.5 -616.5 371.5 -650.5 L391.0 -650.5 Q426.0 -602.0 472.5 -535.0 518.5 -467.5 568.5 -394.0 618.5 -321.0 664.0 -254.0 709.5 -187.0 742.0 -139.0 775.0 -91.0 787.5 -75.0 L599.0 28.5 Q584.5 6.5 567.0 -22.0 549.5 -50.5 535.5 -73.5 521.5 -96.5 517.0 -102.5 L243.5 -89.5 Q241.0 -84.5 230.5 -64.0 220.5 -43.5 207.5 -18.0 195.0 8.0 184.5 29.5" fill-rule="evenodd" stroke="none"/>
    </g>
    <g id="font_Lithos_Pro_Regular_n0">
      <path d="M264.0 6.0 L62.5 0.0 Q64.0 -16.0 67.0 -59.5 69.5 -103.0 73.0 -163.5 76.5 -224.0 80.5 -291.5 84.0 -359.5 88.0 -424.5 91.5 -489.5 95.0 -542.0 98.0 -594.0 100.5 -624.0 L116.5 -629.0 Q157.0 -603.0 210.5 -566.5 264.0 -530.0 321.0 -490.5 378.5 -451.0 428.5 -415.5 479.0 -380.0 512.5 -355.0 546.5 -330.5 553.0 -324.0 553.0 -338.5 553.0 -369.5 552.5 -400.0 552.5 -438.5 552.0 -477.0 552.0 -515.0 551.5 -552.5 551.5 -582.0 551.5 -611.0 552.0 -623.0 L752.5 -618.5 Q749.5 -583.5 745.5 -532.0 741.5 -480.5 737.5 -419.0 734.0 -357.5 730.5 -293.0 726.5 -229.5 723.5 -170.0 720.0 -111.0 717.5 -63.5 715.0 -16.0 714.0 13.5 L697.5 17.5 Q668.5 0.0 620.0 -33.0 571.5 -66.0 515.0 -106.0 458.5 -145.5 405.0 -184.0 352.0 -222.5 313.5 -250.5 275.5 -279.0 263.0 -289.0 263.0 -274.5 263.0 -243.5 263.0 -212.0 263.0 -173.0 263.0 -134.0 263.0 -96.0 263.5 -58.0 263.5 -30.0 263.5 -2.5 264.0 6.0" fill-rule="evenodd" stroke="none"/>
    </g>
    <g id="font_Lithos_Pro_Regular_g0">
      <path d="M632.0 -198.5 L632.0 -135.0 Q632.0 -117.0 632.5 -90.5 633.0 -64.0 633.5 -40.0 634.0 -16.0 634.0 -6.0 619.5 -2.5 588.5 2.0 557.0 7.0 514.5 10.5 472.0 14.5 424.0 14.5 286.5 13.5 200.0 -22.0 113.5 -58.0 73.0 -116.5 32.5 -175.0 33.0 -244.5 32.5 -285.5 55.5 -340.5 78.0 -395.5 133.5 -452.5 188.5 -510.0 284.5 -558.5 380.5 -606.5 525.5 -634.0 L568.5 -453.5 Q518.0 -448.0 465.5 -432.5 413.5 -417.5 368.5 -393.0 323.5 -368.0 296.0 -333.5 268.5 -298.5 267.5 -253.5 268.5 -211.0 293.5 -185.5 318.0 -160.0 354.0 -149.5 389.5 -138.5 424.0 -140.0 L424.0 -205.5 Q424.0 -223.5 423.0 -243.0 422.0 -262.0 422.0 -285.5 L633.0 -285.5 Q632.0 -255.5 632.0 -236.0 632.0 -217.0 632.0 -198.5" fill-rule="evenodd" stroke="none"/>
    </g>
    <g id="font_Lithos_Pro_Regular_i0">
      <path d="M315.5 -357.5 L315.5 -263.0 Q315.5 -229.5 316.0 -188.0 316.5 -146.5 317.0 -106.5 318.0 -66.5 318.5 -37.5 319.0 -8.5 319.5 0.0 L92.5 0.0 Q93.0 -12.0 93.0 -40.0 93.5 -67.5 93.5 -103.0 94.0 -138.0 94.0 -172.5 94.5 -206.5 94.5 -231.5 94.5 -256.5 94.5 -264.0 L94.5 -358.5 Q94.5 -364.0 94.5 -389.5 94.0 -414.5 94.0 -450.5 93.5 -486.0 93.0 -522.0 93.0 -558.0 92.5 -584.5 92.5 -611.0 92.5 -618.5 L319.5 -618.5 Q319.0 -611.5 318.5 -585.5 318.0 -559.0 317.0 -521.0 316.5 -482.5 316.0 -440.0 315.5 -397.0 315.5 -357.5" fill-rule="evenodd" stroke="none"/>
    </g>
    <g id="font_Lithos_Pro_Regular_U0">
      <path d="M308.0 -544.0 L308.0 -544.0 308.0 -474.0 Q308.0 -393.0 311.5 -338.0 315.5 -283.0 325.5 -248.0 336.0 -213.0 355.0 -190.5 373.0 -170.0 395.5 -161.5 418.0 -153.0 442.0 -153.5 469.5 -153.5 492.5 -165.0 516.0 -176.5 533.5 -201.5 543.5 -216.5 549.5 -236.5 555.5 -256.0 558.5 -289.0 561.5 -322.0 562.5 -377.5 563.0 -433.0 563.0 -519.0 L563.0 -558.0 Q563.0 -612.0 561.0 -660.0 559.0 -708.0 558.0 -737.5 L792.5 -737.5 Q792.5 -725.5 792.5 -698.5 793.0 -671.0 793.0 -634.0 793.5 -597.0 793.5 -556.0 L793.5 -509.0 Q794.0 -411.0 787.5 -336.0 781.5 -260.5 762.0 -202.5 743.0 -144.5 704.5 -98.0 657.0 -41.5 586.0 -12.5 515.0 16.5 429.0 16.5 386.0 17.5 334.5 8.5 283.0 0.0 232.5 -28.0 182.0 -55.5 142.0 -111.5 123.5 -139.0 110.5 -170.5 97.5 -202.0 89.5 -246.0 81.5 -290.0 78.0 -354.0 74.5 -418.5 74.5 -511.0 L74.5 -566.5 Q74.5 -591.0 75.0 -622.5 75.0 -654.0 75.5 -681.5 75.5 -709.5 75.5 -722.0 L314.0 -722.0 Q311.0 -702.0 309.5 -658.0 308.0 -613.5 308.0 -544.0" fill-rule="evenodd" stroke="none"/>
    </g>
  </defs>
</svg>
