<?xml version="1.0" encoding="UTF-8" standalone="no"?>
<svg xmlns:ffdec="https://www.free-decompiler.com/flash" xmlns:xlink="http://www.w3.org/1999/xlink" ffdec:objectType="frame" height="205.9px" width="262.75px" xmlns="http://www.w3.org/2000/svg">
  <g transform="matrix(1.0, 0.0, 0.0, 1.0, 121.1, 174.9)">
    <use ffdec:characterId="238" height="34.0" transform="matrix(1.0, 0.0, 0.0, 1.0, -29.1, -31.0)" width="46.45" xlink:href="#shape0"/>
    <use ffdec:characterId="400" height="92.55" transform="matrix(0.9072, -0.4162, 0.4162, 0.9072, 23.3822, -73.1315)" width="45.75" xlink:href="#shape1"/>
    <use ffdec:characterId="249" height="88.9" transform="matrix(0.5465, 1.1215, -0.8951, 0.4362, 121.2024, -49.6986)" width="37.4" xlink:href="#shape2"/>
    <use ffdec:characterId="401" height="108.65" transform="matrix(0.9884, 0.1486, -0.1486, 0.9884, -64.0324, -127.5925)" width="137.5" xlink:href="#shape3"/>
    <use ffdec:characterId="252" height="148.35" transform="matrix(0.9348, 0.3517, -0.3517, 0.9348, 10.1303, -161.6285)" width="69.5" xlink:href="#shape4"/>
    <use ffdec:characterId="249" height="88.9" transform="matrix(-0.8364, 0.1278, 0.1503, 0.983, -58.0461, -128.3628)" width="37.4" xlink:href="#shape2"/>
  </g>
  <defs>
    <g id="shape0" transform="matrix(1.0, 0.0, 0.0, 1.0, 29.45, 30.75)">
      <path d="M12.95 -26.5 Q12.9 -23.45 13.5 -20.7 13.9 -18.95 14.5 -17.65 14.4 -14.35 15.15 -10.65 16.0 -6.45 16.0 -4.15 L16.0 -2.5 16.2 -2.15 Q17.0 -0.8 17.0 0.1 L16.85 1.0 14.95 1.1 -1.0 1.75 Q-1.45 0.85 -2.25 0.25 L-2.1 0.1 -2.3 -0.65 -2.5 -2.2 Q-2.5 -7.45 -1.75 -12.35 L-2.0 -12.1 Q-3.15 -10.95 -10.25 -6.35 L-13.55 -3.65 Q-15.4 -2.4 -17.55 -2.05 -17.3 -0.3 -18.75 3.05 -19.45 3.55 -20.45 2.85 L-20.45 2.65 Q-22.7 1.9 -26.2 -0.7 -29.15 -3.65 -29.45 -8.95 -29.6 -12.5 -28.75 -14.35 L-28.7 -15.0 -28.6 -15.4 -28.85 -15.65 -28.6 -15.7 -28.15 -17.65 -26.9 -18.3 -26.3 -18.3 -24.75 -18.95 -22.7 -19.4 Q-19.2 -20.1 -17.0 -22.3 L-15.95 -22.65 Q-12.55 -25.45 -9.55 -26.65 -3.2 -29.1 1.3 -24.6 L1.55 -24.35 Q3.4 -28.25 5.9 -29.95 8.6 -31.75 10.8 -29.6 L12.95 -26.5 M9.0 -1.4 L10.65 -4.2 Q11.5 -5.55 13.6 -5.2 L13.5 -7.7 12.95 -11.05 Q12.55 -13.2 12.5 -14.45 L12.45 -16.6 11.75 -16.5 4.5 -15.45 4.45 -1.1 5.85 -1.1 9.0 -1.05 9.05 -1.05 9.35 -1.05 9.0 -1.4 M13.2 -2.85 L10.5 -1.05 14.0 -0.95 13.2 -2.85 M-12.4 -15.5 Q-13.25 -14.75 -18.35 -12.85 -23.95 -10.75 -26.75 -11.15 L-27.05 -9.25 Q-27.7 -5.3 -24.4 -1.9 L-24.15 -1.65 Q-23.2 -0.7 -20.4 0.9 -20.35 0.85 -20.25 0.95 L-20.2 0.4 Q-19.95 -1.05 -20.0 -1.9 L-21.65 -1.55 -24.15 -1.85 Q-24.25 -1.85 -24.35 -1.95 L-23.9 -2.7 -21.7 -4.1 Q-19.8 -4.7 -18.55 -3.65 L-18.0 -4.3 Q-17.55 -4.75 -16.05 -5.45 -14.7 -6.2 -14.2 -6.7 L-11.9 -8.3 Q-10.1 -9.5 -9.6 -10.0 L-7.65 -11.35 Q-9.0 -11.9 -10.45 -13.35 L-12.3 -15.4 -12.35 -15.55 -12.4 -15.5" fill="#000000" fill-rule="evenodd" stroke="none"/>
      <path d="M9.0 -1.05 L9.0 -1.4 9.05 -1.05 9.0 -1.05" fill="#5b6171" fill-rule="evenodd" stroke="none"/>
      <path d="M9.0 -1.05 L5.85 -1.1 4.45 -1.1 4.5 -15.45 11.75 -16.5 12.45 -16.6 12.5 -14.45 Q12.55 -13.2 12.95 -11.05 L13.5 -7.7 13.6 -5.2 Q11.5 -5.55 10.65 -4.2 L9.0 -1.4 9.0 -1.05 M-24.4 -1.9 Q-27.7 -5.3 -27.05 -9.25 L-26.75 -11.15 Q-23.95 -10.75 -18.35 -12.85 -13.25 -14.75 -12.4 -15.5 L-12.3 -15.4 -10.45 -13.35 Q-9.0 -11.9 -7.65 -11.35 L-9.6 -10.0 Q-10.1 -9.5 -11.9 -8.3 L-14.2 -6.7 Q-14.7 -6.2 -16.05 -5.45 -17.55 -4.75 -18.0 -4.3 L-18.55 -3.65 Q-19.8 -4.7 -21.7 -4.1 L-23.9 -2.7 -24.35 -1.95 -24.4 -1.9 M13.2 -2.85 L14.0 -0.95 10.5 -1.05 13.2 -2.85 M-24.15 -1.65 L-24.15 -1.85 -21.65 -1.55 -20.0 -1.9 Q-19.95 -1.05 -20.2 0.4 L-20.4 0.9 Q-23.2 -0.7 -24.15 -1.65" fill="#332d26" fill-rule="evenodd" stroke="none"/>
    </g>
    <g id="shape1" transform="matrix(1.0, 0.0, 0.0, 1.0, 17.15, 24.05)">
      <path d="M14.9 -19.95 Q20.35 -17.0 21.0 -16.25 21.75 -15.4 23.8 -13.9 25.6 -12.25 25.95 -9.75 L27.6 -4.55 Q28.6 -1.3 28.6 0.4 28.6 4.8 24.75 10.65 21.0 16.35 18.45 16.35 L17.85 16.35 17.85 16.55 13.65 42.25 11.6 48.95 Q9.4 55.75 8.45 57.3 7.0 59.85 4.95 64.8 3.05 68.5 0.2 68.5 -3.15 68.5 -5.7 66.65 -8.9 64.3 -11.55 58.6 L-11.55 58.45 -12.15 57.75 -12.2 56.7 -11.6 49.6 -11.2 45.2 -11.0 42.45 -11.8 30.5 Q-11.8 28.9 -12.8 23.95 -13.85 18.95 -13.85 17.25 -13.85 14.35 -15.3 4.7 -15.5 2.2 -15.2 0.4 -14.95 -1.15 -14.25 -1.8 -17.15 -6.35 -17.15 -7.45 -17.15 -12.45 -7.35 -18.75 -2.45 -21.9 2.5 -24.05 L4.95 -23.6 7.35 -23.15 Q9.05 -23.15 14.9 -19.95 M15.4 13.65 L17.15 13.75 17.5 14.3 18.4 14.3 Q20.75 14.3 23.7 7.95 26.4 2.2 26.4 -0.4 L25.75 -3.3 Q25.05 -5.55 25.05 -6.25 25.05 -11.7 17.2 -16.85 10.65 -21.1 7.55 -21.1 1.35 -21.1 -6.7 -16.3 -14.95 -11.35 -14.95 -7.05 -14.95 -4.95 -12.8 -2.25 L-11.85 -1.95 -12.0 -1.3 Q-10.0 0.95 -6.5 3.65 -0.05 8.55 2.85 9.65 8.05 11.65 12.05 13.5 L15.35 14.2 15.4 14.2 15.4 13.65 M14.7 23.65 L14.8 22.6 15.35 16.25 11.05 15.45 1.15 11.25 -3.8 8.45 -8.15 5.55 Q-10.2 4.0 -12.55 0.75 L-13.05 3.9 Q-13.05 7.6 -12.5 12.75 L-12.3 14.55 -11.5 20.55 -11.45 20.75 Q-10.0 30.9 -10.0 32.5 L-9.55 36.4 -9.4 36.4 -7.05 36.9 -4.7 37.4 Q-3.35 37.4 0.05 38.4 L5.35 39.65 Q6.95 39.85 9.6 39.65 L12.05 39.5 Q14.15 31.15 14.15 28.6 L14.25 27.85 14.25 27.75 14.25 27.7 14.25 27.5 14.25 27.45 14.3 27.1 14.7 23.65 M3.95 41.4 L-0.4 40.95 -5.2 39.9 -9.2 38.9 -8.8 42.55 -8.95 45.35 Q-7.55 45.85 -5.0 47.15 L0.2 49.8 Q2.35 50.55 5.75 50.9 L8.7 51.2 9.4 49.4 11.65 41.0 10.85 41.35 8.3 41.85 3.95 41.4 M7.8 53.45 Q2.75 53.45 -1.65 51.6 -4.85 50.25 -9.05 47.35 L-9.65 55.45 Q-9.65 57.15 -9.9 58.0 -9.35 58.3 -8.85 59.05 L-7.1 62.0 Q-4.4 66.2 0.55 66.2 2.7 66.2 7.8 53.45" fill="#000000" fill-rule="evenodd" stroke="none"/>
      <path d="M14.7 23.65 L14.75 23.2 Q6.55 21.75 -2.55 17.6 L-12.5 12.75 Q-13.05 7.6 -13.05 3.9 L-12.55 0.75 Q-10.2 4.0 -8.15 5.55 L-3.8 8.45 1.15 11.25 11.05 15.45 15.35 16.25 14.8 22.6 14.7 23.65 M-11.45 20.75 L-10.8 21.05 Q-4.8 22.7 1.3 25.15 2.9 25.75 9.35 26.95 L14.25 27.85 14.15 28.6 Q14.15 31.15 12.05 39.5 L9.6 39.65 Q6.95 39.85 5.35 39.65 L0.05 38.4 Q-3.35 37.4 -4.7 37.4 L-7.05 36.9 -9.4 36.4 -9.55 36.4 -10.0 32.5 Q-10.0 30.9 -11.45 20.75 M7.8 53.45 Q2.7 66.2 0.55 66.2 -4.4 66.2 -7.1 62.0 L-8.85 59.05 Q-9.35 58.3 -9.9 58.0 -9.65 57.15 -9.65 55.45 L-9.05 47.35 Q-4.85 50.25 -1.65 51.6 2.75 53.45 7.8 53.45" fill="#cdac98" fill-rule="evenodd" stroke="none"/>
      <path d="M-12.5 12.75 L-2.55 17.6 Q6.55 21.75 14.75 23.2 L14.7 23.65 14.3 27.1 14.25 27.45 14.25 27.5 14.25 27.7 14.25 27.75 14.25 27.85 9.35 26.95 Q2.9 25.75 1.3 25.15 -4.8 22.7 -10.8 21.05 L-11.45 20.75 -11.5 20.55 -12.3 14.55 -12.5 12.75" fill="#7f98ff" fill-rule="evenodd" stroke="none"/>
      <path d="M3.95 41.4 L8.3 41.85 10.85 41.35 11.65 41.0 9.4 49.4 8.7 51.2 5.75 50.9 Q2.35 50.55 0.2 49.8 L-5.0 47.15 Q-7.55 45.85 -8.95 45.35 L-8.8 42.55 -9.2 38.9 -5.2 39.9 -0.4 40.95 3.95 41.4" fill="#8a5242" fill-rule="evenodd" stroke="none"/>
      <path d="M15.35 14.2 L12.05 13.5 Q8.05 11.65 2.85 9.65 -0.05 8.55 -6.5 3.65 -10.0 0.95 -12.0 -1.3 L-11.85 -1.95 -12.8 -2.25 Q-14.95 -4.95 -14.95 -7.05 -14.95 -11.35 -6.7 -16.3 1.35 -21.1 7.55 -21.1 10.65 -21.1 17.2 -16.85 25.05 -11.7 25.05 -6.25 25.05 -5.55 25.75 -3.3 L26.4 -0.4 Q26.4 2.2 23.7 7.95 20.75 14.3 18.4 14.3 L17.5 14.3 17.15 13.75 15.4 13.65 15.35 14.2" fill="#342825" fill-rule="evenodd" stroke="none"/>
    </g>
    <g id="shape2" transform="matrix(1.0, 0.0, 0.0, 1.0, 10.9, 49.0)">
      <path d="M23.9 -44.35 L23.65 -46.5 19.5 -45.9 17.4 -45.6 16.5 -45.5 2.75 -44.0 1.9 -44.0 1.8 -43.85 Q1.55 -43.5 0.75 -43.5 L-0.5 -43.75 -0.5 -44.4 -0.6 -44.5 -0.85 -44.85 -7.05 -44.65 -8.45 -44.65 -8.4 -43.05 -8.5 -39.5 -8.5 -32.75 -8.1 -24.25 -7.7 -18.85 -7.4 -18.85 Q-5.85 -19.75 -3.9 -19.85 L-1.3 -19.65 -1.1 -20.25 -0.4 -21.6 Q0.05 -23.05 3.1 -22.2 8.3 -20.25 11.5 -19.5 L13.55 -18.25 13.6 -18.2 15.0 -17.2 17.1 -15.15 18.5 -17.75 18.5 -17.8 18.85 -18.4 22.5 -25.6 Q23.75 -28.4 24.2 -31.65 L24.5 -37.6 23.9 -44.35 M24.5 -48.85 L24.5 -49.0 25.1 -48.85 25.85 -48.75 Q26.5 -45.0 26.5 -37.65 L26.25 -31.4 Q25.85 -28.25 24.6 -24.75 L21.95 -18.1 Q20.05 -14.3 17.5 -12.5 L16.75 -12.7 Q16.5 -12.85 16.5 -13.5 L16.25 -13.5 Q15.4 -13.5 14.3 -14.6 L8.95 -17.35 Q6.75 -18.45 4.85 -19.0 L2.45 -19.5 0.95 -19.6 0.5 -18.5 0.25 -18.15 Q0.65 -15.9 2.75 -7.8 5.15 1.65 5.15 3.2 5.15 5.45 3.35 14.7 2.0 21.95 3.0 25.9 7.7 26.05 8.7 28.9 9.2 30.4 8.65 32.2 8.65 35.85 7.8 37.15 6.0 39.9 -0.1 39.9 -5.45 39.9 -7.2 36.9 -8.35 34.9 -8.35 29.7 -8.35 24.2 -6.35 19.85 -4.35 15.55 -4.35 11.75 -4.35 5.4 -6.2 0.9 -9.0 -5.95 -8.85 -10.05 -8.7 -12.4 -8.95 -16.05 L-9.55 -16.25 -10.1 -24.05 -10.5 -33.1 -10.9 -40.65 Q-10.95 -43.45 -10.25 -44.95 L-10.5 -45.5 -10.05 -46.2 Q-9.2 -46.8 -6.5 -46.75 L-1.65 -47.65 Q-0.1 -47.7 0.95 -46.45 L7.85 -46.75 14.7 -47.75 23.9 -48.7 24.5 -48.85 M2.45 0.35 L2.1 -0.85 2.0 -1.35 0.8 -5.55 Q-1.6 -14.15 -1.85 -16.8 L-2.3 -16.7 -3.25 -16.55 -5.0 -16.5 -5.25 -16.5 -5.7 -16.5 -6.25 -16.5 -6.5 -16.5 -6.55 -15.05 -6.85 -9.8 Q-6.85 -8.45 -6.25 -6.5 L-5.9 -5.45 -5.6 -4.55 -3.45 1.15 Q-2.65 3.55 -2.45 7.7 L-2.45 7.75 -2.35 10.9 -2.35 11.4 Q-2.35 15.6 -4.35 20.4 -6.35 25.25 -6.35 29.4 L-5.85 33.7 Q-5.2 37.25 -4.3 37.65 L-4.1 37.7 -3.3 37.7 3.85 37.65 4.65 37.55 4.8 37.15 Q4.7 36.8 5.15 36.45 L6.55 35.15 6.65 32.05 Q7.0 30.2 6.7 29.45 6.25 28.45 4.05 28.25 L4.0 28.25 3.75 28.2 3.6 28.2 3.25 28.2 2.55 28.15 Q0.4 28.15 0.35 30.05 0.3 31.05 0.55 32.95 L-0.35 33.4 Q-1.05 33.1 -1.25 32.2 L-1.35 30.45 Q-1.35 28.2 -0.95 27.45 -0.4 26.25 1.3 26.0 L0.8 24.5 Q0.65 23.7 0.65 21.45 L0.65 21.3 Q0.65 19.5 0.8 17.75 1.1 14.45 1.9 11.3 3.15 6.5 3.15 3.3 L2.45 0.35" fill="#000000" fill-rule="evenodd" stroke="none"/>
      <path d="M2.0 -1.35 Q0.3 0.4 -0.9 3.75 L-2.45 7.7 Q-2.65 3.55 -3.45 1.15 L-5.6 -4.55 -5.9 -5.45 -5.65 -4.75 Q-4.9 -6.95 -4.7 -8.55 -4.45 -10.55 -2.85 -15.15 L-2.3 -16.7 -1.85 -16.8 Q-1.6 -14.15 0.8 -5.55 L2.0 -1.35 M-2.35 10.9 L-0.35 4.75 Q0.55 2.25 2.45 0.35 L3.15 3.3 Q3.15 6.5 1.9 11.3 1.1 14.45 0.8 17.75 -0.8 22.25 -1.6 23.45 -3.7 26.85 -4.15 29.3 -4.35 30.4 -4.35 34.9 L-4.3 37.65 Q-5.2 37.25 -5.85 33.7 L-6.35 29.4 Q-6.35 25.25 -4.35 20.4 -2.35 15.6 -2.35 11.4 L-2.35 10.9 M0.65 21.45 Q0.65 23.7 0.8 24.5 L1.3 26.0 Q-0.4 26.25 -0.95 27.45 -1.35 28.2 -1.35 30.45 L-1.25 32.2 Q-1.05 33.1 -0.35 33.4 L0.55 32.95 Q0.3 31.05 0.35 30.05 0.4 28.15 2.55 28.15 L3.25 28.2 3.15 33.7 Q3.15 36.05 2.3 37.65 L3.85 37.65 4.05 36.7 4.15 32.0 4.05 28.25 Q6.25 28.45 6.7 29.45 7.0 30.2 6.65 32.05 L6.55 35.15 5.15 36.45 Q4.7 36.8 4.8 37.15 L4.65 37.55 3.85 37.65 -3.3 37.7 -3.35 34.5 Q-3.35 28.95 -1.4 25.6 -0.3 23.7 0.65 21.45 M-6.25 -6.5 Q-6.85 -8.45 -6.85 -9.8 L-6.55 -15.05 -6.5 -16.5 -6.25 -16.5 -5.7 -16.5 -5.25 -16.5 -5.0 -16.5 -3.25 -16.55 -3.7 -15.2 -5.35 -9.6 -6.25 -6.5" fill="#31282d" fill-rule="evenodd" stroke="none"/>
      <path d="M2.0 -1.35 L2.1 -0.85 2.45 0.35 Q0.55 2.25 -0.35 4.75 L-2.35 10.9 -2.45 7.75 -2.45 7.7 -0.9 3.75 Q0.3 0.4 2.0 -1.35 M0.8 17.75 Q0.65 19.5 0.65 21.3 L0.65 21.45 Q-0.3 23.7 -1.4 25.6 -3.35 28.95 -3.35 34.5 L-3.3 37.7 -4.1 37.7 -4.3 37.65 -4.35 34.9 Q-4.35 30.4 -4.15 29.3 -3.7 26.85 -1.6 23.45 -0.8 22.25 0.8 17.75 M3.25 28.2 L3.6 28.2 3.75 28.2 4.0 28.25 4.05 28.25 4.15 32.0 4.05 36.7 3.85 37.65 2.3 37.65 Q3.15 36.05 3.15 33.7 L3.25 28.2 M-6.25 -6.5 L-5.35 -9.6 -3.7 -15.2 -3.25 -16.55 -2.3 -16.7 -2.85 -15.15 Q-4.45 -10.55 -4.7 -8.55 -4.9 -6.95 -5.65 -4.75 L-5.9 -5.45 -6.25 -6.5" fill="#463941" fill-rule="evenodd" stroke="none"/>
      <path d="M13.55 -18.25 L11.5 -19.5 Q8.3 -20.25 3.1 -22.2 0.05 -23.05 -0.4 -21.6 L-1.1 -20.25 -1.3 -19.65 -3.9 -19.85 Q-5.85 -19.75 -7.4 -18.85 L-7.7 -18.85 -8.1 -24.25 -8.5 -32.75 -8.5 -39.5 -8.4 -43.05 -8.45 -44.65 -7.05 -44.65 -0.85 -44.85 -0.6 -44.5 -0.5 -44.4 -0.5 -43.75 0.75 -43.5 Q1.55 -43.5 1.8 -43.85 L1.9 -44.0 2.75 -44.0 16.5 -45.5 17.4 -45.6 17.85 -44.25 17.8 -42.15 17.7 -42.1 17.15 -41.75 Q16.0 -41.25 14.7 -41.95 L13.2 -42.0 13.95 -42.15 13.8 -42.35 13.6 -42.5 Q10.1 -42.95 9.7 -41.7 L10.0 -39.75 11.5 -39.5 11.5 -39.35 Q11.5 -37.95 14.3 -37.35 L17.1 -36.65 17.25 -36.6 17.05 -35.1 16.95 -35.05 16.95 -35.0 Q16.25 -34.6 16.05 -33.85 L16.05 -33.2 16.05 -31.95 16.0 -31.25 16.0 -31.2 15.8 -30.95 15.75 -30.95 Q15.1 -30.35 13.65 -29.6 12.05 -28.75 10.5 -28.25 10.4 -26.85 12.6 -25.6 L14.65 -24.45 14.95 -24.3 14.6 -22.75 14.2 -22.65 14.05 -22.6 Q11.8 -21.9 11.5 -20.6 12.1 -20.0 13.75 -20.0 L13.95 -20.0 13.55 -18.25 M9.05 -29.35 L9.35 -29.25 10.5 -29.0 Q11.3 -29.0 11.65 -29.4 L12.0 -30.1 Q11.5 -30.9 11.5 -31.25 L9.25 -31.35 9.05 -31.0 9.0 -30.15 9.05 -29.35 M7.5 -40.0 L7.1 -40.75 6.35 -40.5 5.5 -39.6 6.5 -39.0 Q7.25 -39.3 7.5 -40.0 M12.0 -35.0 Q11.7 -35.7 11.0 -36.0 10.3 -36.0 9.5 -34.6 L10.5 -34.0 11.4 -34.35 12.0 -35.0 M11.25 -23.75 L10.5 -24.0 9.8 -23.25 Q9.5 -22.65 9.5 -22.1 L9.65 -21.65 10.5 -21.5 Q11.75 -21.5 11.25 -21.85 L11.4 -22.0 11.5 -22.8 11.25 -23.75" fill="#555555" fill-rule="evenodd" stroke="none"/>
      <path d="M17.4 -45.6 L19.5 -45.9 23.65 -46.5 23.9 -44.35 Q22.55 -44.65 20.6 -43.8 L20.55 -43.8 Q18.95 -43.15 18.15 -42.45 L18.0 -42.35 17.8 -42.15 17.85 -44.25 17.4 -45.6 M18.5 -17.75 L17.1 -15.15 15.0 -17.2 13.6 -18.2 13.55 -18.25 13.95 -20.0 14.5 -19.95 15.05 -19.9 15.2 -19.9 17.75 -19.35 18.1 -18.15 18.4 -17.6 18.5 -17.75 M17.25 -36.6 L19.35 -35.75 Q17.85 -35.6 17.05 -35.1 L17.25 -36.6 M14.95 -24.3 L17.0 -23.25 14.6 -22.75 14.95 -24.3" fill="#a0adb1" fill-rule="evenodd" stroke="none"/>
      <path d="M17.1 -36.65 L14.3 -37.35 Q11.5 -37.95 11.5 -39.35 L11.5 -39.5 10.0 -39.75 9.7 -41.7 Q10.1 -42.95 13.6 -42.5 L13.8 -42.35 13.95 -42.15 13.2 -42.0 14.7 -41.95 Q16.0 -41.25 17.15 -41.75 L17.1 -41.6 17.1 -36.65 M16.95 -35.0 L16.05 -31.95 16.05 -33.2 16.05 -33.85 Q16.25 -34.6 16.95 -35.0 M15.8 -30.95 L15.25 -28.85 14.35 -24.65 14.65 -24.45 12.6 -25.6 Q10.4 -26.85 10.5 -28.25 12.05 -28.75 13.65 -29.6 15.1 -30.35 15.75 -30.95 L15.8 -30.95 M14.05 -22.6 L14.0 -21.9 14.05 -20.35 14.2 -20.0 14.5 -19.95 13.95 -20.0 13.75 -20.0 Q12.1 -20.0 11.5 -20.6 11.8 -21.9 14.05 -22.6 M7.5 -40.0 Q7.25 -39.3 6.5 -39.0 L5.5 -39.6 6.35 -40.5 7.1 -40.75 7.5 -40.0 M9.05 -29.35 L9.0 -30.15 9.05 -31.0 9.25 -31.35 11.5 -31.25 Q11.5 -30.9 12.0 -30.1 L11.65 -29.4 Q11.3 -29.0 10.5 -29.0 L9.35 -29.25 9.05 -29.35 M12.0 -35.0 L11.4 -34.35 10.5 -34.0 9.5 -34.6 Q10.3 -36.0 11.0 -36.0 11.7 -35.7 12.0 -35.0 M11.25 -23.75 L11.5 -22.8 11.4 -22.0 11.25 -21.85 Q11.75 -21.5 10.5 -21.5 L9.65 -21.65 9.5 -22.1 Q9.5 -22.65 9.8 -23.25 L10.5 -24.0 11.25 -23.75" fill="#403536" fill-rule="evenodd" stroke="none"/>
      <path d="M23.9 -44.35 L24.5 -37.6 24.2 -31.65 Q23.75 -28.4 22.5 -25.6 L18.85 -18.4 18.5 -17.8 18.5 -17.75 18.4 -17.6 18.1 -18.15 17.75 -19.35 15.2 -19.9 15.05 -19.9 14.5 -19.95 14.2 -20.0 14.05 -20.35 14.0 -21.9 14.05 -22.6 14.2 -22.65 14.6 -22.75 17.0 -23.25 14.95 -24.3 14.65 -24.45 14.35 -24.65 15.25 -28.85 15.8 -30.95 16.0 -31.2 16.0 -31.25 16.05 -31.95 16.95 -35.0 16.95 -35.05 17.05 -35.1 Q17.85 -35.6 19.35 -35.75 L17.25 -36.6 17.1 -36.65 17.1 -41.6 17.15 -41.75 17.7 -42.1 17.8 -42.15 18.0 -42.35 18.15 -42.45 Q18.95 -43.15 20.55 -43.8 L20.6 -43.8 Q22.55 -44.65 23.9 -44.35" fill="#594a4b" fill-rule="evenodd" stroke="none"/>
    </g>
    <g id="shape3" transform="matrix(1.0, 0.0, 0.0, 1.0, 77.0, 51.65)">
      <path d="M21.6 -26.8 Q19.5 -30.6 19.5 -32.25 21.0 -32.5 32.5 -32.0 L32.75 -31.75 Q33.0 -31.6 33.0 -32.4 L32.05 -35.6 Q31.2 -38.3 31.5 -39.25 36.75 -38.6 41.25 -33.8 44.3 -30.55 46.5 -26.0 L47.2 -29.05 Q47.65 -31.5 48.75 -31.5 52.95 -31.5 53.8 -23.2 L54.05 -10.05 Q54.85 -10.45 56.65 -12.85 58.35 -15.1 59.5 -15.5 60.5 -14.9 60.5 -12.4 60.5 -8.65 58.95 -5.65 58.25 -4.35 53.8 2.0 L53.5 2.35 58.55 2.0 58.8 2.15 Q59.0 2.25 59.0 3.0 59.0 4.9 51.2 8.7 L41.5 13.1 42.55 13.8 Q43.5 14.4 43.5 14.85 L43.4 15.55 43.25 15.6 36.3 16.55 28.25 17.0 Q23.8 17.0 20.9 16.1 19.45 15.65 18.75 15.15 L18.0 15.65 Q18.0 24.55 16.85 28.25 19.0 29.25 23.8 34.8 26.2 34.5 28.55 38.3 30.55 41.6 30.95 43.75 L32.0 45.1 Q31.05 46.45 29.7 46.8 L27.0 47.6 Q27.5 48.1 30.05 48.75 L30.3 48.65 Q30.5 48.7 30.5 49.5 30.5 49.9 27.9 52.15 25.25 54.45 24.0 55.0 22.7 54.65 22.2 53.2 21.6 51.4 21.25 51.1 20.4 51.75 19.1 53.35 L17.5 55.0 Q16.4 54.4 15.65 52.85 L14.5 50.0 Q13.1 50.55 12.65 52.7 L12.05 55.75 Q12.5 56.0 11.25 56.0 10.25 56.0 9.05 54.0 L7.5 51.35 Q5.95 52.45 5.6 54.05 L5.0 56.85 Q5.5 57.0 4.25 57.0 3.05 57.0 1.75 53.1 0.35 53.15 -1.45 53.8 L-3.0 54.5 -5.6 54.5 -5.8 54.4 Q-6.0 54.25 -6.0 53.5 -6.0 52.9 -5.25 51.8 -4.5 50.65 -4.5 50.3 L-4.5 49.75 Q-4.5 49.35 -4.75 49.1 L-6.7 51.8 Q-7.95 53.5 -9.0 53.5 -10.55 53.5 -11.6 51.35 -12.3 49.85 -12.6 48.0 L-14.3 51.25 Q-15.45 53.3 -16.5 54.0 -20.6 49.55 -20.75 48.1 -22.55 48.1 -25.05 49.8 -27.55 51.5 -28.5 51.5 L-29.6 51.25 -29.95 51.1 -30.0 50.3 Q-30.0 49.0 -29.0 47.3 L-27.5 44.6 Q-35.15 44.8 -37.0 45.5 L-37.7 45.3 Q-38.0 45.1 -38.0 44.3 -38.0 43.5 -33.5 34.7 L-27.6 22.9 Q-28.75 20.55 -28.6 17.5 L-28.0 13.1 -27.95 11.7 -29.25 9.2 Q-31.85 11.35 -38.25 15.1 -49.15 21.5 -52.75 21.5 L-53.35 21.35 Q-55.45 22.5 -58.25 22.5 -61.95 22.5 -63.35 21.5 L-66.75 22.0 Q-72.75 22.0 -75.45 14.65 -76.85 10.95 -77.0 7.1 -77.0 1.3 -73.7 -1.3 -70.8 -3.6 -66.5 -2.75 -64.9 -2.4 -63.45 -1.7 -63.15 -3.45 -61.1 -3.3 L-60.0 -3.15 -60.0 -3.25 -59.0 -3.05 -56.1 -8.25 Q-53.0 -13.4 -50.0 -17.2 -51.5 -21.05 -51.5 -25.4 L-51.5 -26.0 Q-52.8 -26.75 -53.6 -29.7 -54.3 -32.2 -54.3 -34.1 -54.3 -38.85 -46.65 -44.95 -38.3 -51.65 -29.6 -51.65 L-25.6 -50.55 Q-22.1 -49.3 -21.5 -48.25 L-21.6 -47.95 -11.35 -49.5 -11.15 -49.35 Q-11.0 -49.25 -11.0 -48.5 -11.0 -48.3 -12.5 -46.15 -14.0 -44.0 -14.0 -42.8 L-14.0 -42.55 -5.85 -43.5 -5.65 -43.25 Q-5.5 -43.05 -5.5 -42.3 -6.2 -40.95 -7.25 -39.5 L-8.35 -38.05 Q-3.5 -37.3 1.9 -34.25 L1.75 -34.8 5.75 -33.25 5.8 -33.25 5.8 -33.2 7.8 -32.35 Q14.35 -29.4 22.5 -25.25 L21.6 -26.8 M57.8 -10.5 L56.05 -8.65 Q55.15 -7.5 53.5 -7.5 L52.0 -7.75 51.9 -17.35 Q51.5 -23.35 49.0 -27.55 49.05 -25.25 47.0 -21.05 L46.25 -21.0 43.25 -26.2 Q39.3 -32.35 34.5 -37.0 L34.0 -36.8 34.85 -33.6 35.5 -30.65 35.3 -29.75 Q32.5 -29.5 31.8 -29.75 L23.55 -29.75 24.7 -26.95 Q25.25 -25.15 26.0 -24.05 L25.6 -23.15 Q31.5 -19.05 33.7 -16.55 37.5 -12.4 37.5 -7.15 37.5 -4.35 34.1 0.5 30.55 5.65 25.0 10.4 L20.95 13.65 24.1 14.15 28.4 14.75 38.75 14.25 Q37.75 13.1 37.5 12.35 38.95 11.55 46.1 8.6 50.85 6.65 52.7 5.15 L53.3 4.6 52.5 5.0 49.8 5.0 49.65 4.8 Q49.5 4.55 49.5 3.8 49.5 3.4 52.95 -0.45 56.7 -5.25 58.0 -10.25 L57.8 -10.55 57.8 -10.5 M35.45 -8.3 Q34.65 -16.3 21.15 -23.3 17.8 -25.05 2.9 -30.85 L2.8 -31.1 Q-0.45 -31.55 -5.45 -34.0 L-7.95 -35.25 -8.7 -35.65 -9.0 -35.65 -9.9 -34.8 -13.95 -30.6 Q-17.9 -26.25 -20.8 -22.1 L-20.8 -22.05 -20.85 -22.0 -22.2 -19.95 -24.1 -16.8 Q-26.3 -12.65 -27.35 -7.0 L-28.5 1.25 -28.75 3.0 -28.9 3.2 -28.25 5.3 -27.85 6.25 -27.65 6.15 Q-27.5 6.2 -27.5 7.0 L-27.5 7.1 -27.0 8.1 -26.5 7.5 -26.2 9.15 -26.15 9.65 Q-24.75 11.85 -22.9 13.65 -16.25 19.9 -3.85 20.0 L-3.65 20.15 -3.55 20.25 0.1 20.05 Q5.55 19.35 11.05 16.85 13.5 15.7 16.0 14.15 L16.0 14.1 16.25 13.9 Q16.55 13.65 17.0 13.5 L17.05 13.5 Q20.25 11.4 23.5 8.65 28.75 4.2 32.25 -0.55 L34.3 -3.7 Q35.5 -5.9 35.5 -7.3 L35.45 -8.3 M-17.85 5.35 Q-11.7 7.25 -9.5 7.25 -6.65 7.25 -5.7 -0.85 -4.85 -8.0 -3.25 -11.4 L-3.5 -11.55 -3.2 -12.75 -2.5 -13.5 -2.05 -13.4 -2.0 -13.5 -1.25 -13.05 Q-1.0 -12.75 -1.0 -11.9 -1.0 -10.05 -2.1 -6.55 -3.35 -2.7 -3.5 -0.8 -2.8 3.2 -3.05 5.4 L-3.4 6.75 Q-2.05 6.85 -0.4 7.4 2.3 8.2 7.05 10.05 L7.55 10.25 8.0 11.0 Q7.45 12.0 6.0 12.0 L5.7 12.0 -0.5 11.25 Q-4.6 10.45 -6.4 9.2 L-9.25 9.5 Q-12.2 9.5 -17.45 8.05 L-18.65 7.7 Q-22.35 6.6 -23.5 5.85 L-23.5 4.35 -23.1 4.2 -22.0 4.0 -17.85 5.35 M15.35 17.25 Q5.9 22.5 -3.75 22.5 L-5.95 22.45 -7.0 22.5 Q-19.65 22.5 -26.1 14.45 L-26.5 17.45 Q-26.6 19.25 -26.15 20.75 L-25.65 21.6 -25.5 22.3 -25.0 23.15 Q-19.9 30.25 2.65 30.25 L10.1 29.9 Q12.35 29.5 13.15 28.0 13.75 26.9 14.3 23.15 L15.35 17.25 M11.2 32.2 L2.5 32.5 Q-19.2 32.5 -25.8 25.55 -26.5 28.75 -29.0 33.25 L-34.5 42.35 Q-27.9 42.05 -26.05 43.15 -25.1 43.7 -25.5 44.4 -25.5 45.65 -25.85 46.3 L-27.5 48.35 Q-26.95 48.35 -24.2 46.7 -21.45 45.0 -20.5 45.0 -19.85 45.0 -18.5 47.65 L-16.75 50.85 -15.35 47.9 Q-14.0 45.5 -12.25 45.5 L-10.6 45.75 -10.35 48.15 Q-10.0 49.95 -9.1 50.5 L-6.75 48.45 Q-4.75 46.5 -4.0 46.5 -2.3 46.5 -2.2 48.85 -2.2 50.05 -2.5 51.6 L0.7 51.0 4.0 52.5 4.95 50.6 Q5.95 49.0 7.5 49.0 8.75 49.0 9.5 50.1 L10.75 51.85 11.0 51.85 Q10.5 50.45 11.55 49.05 12.65 47.5 14.75 47.5 15.75 47.5 17.75 51.5 18.2 50.7 18.95 49.95 20.45 48.5 22.0 48.5 23.5 48.5 23.85 49.7 L24.05 51.6 26.3 49.85 Q26.1 49.05 25.5 48.4 L25.0 47.55 Q25.0 46.1 25.2 45.8 25.65 45.3 27.85 44.45 L25.75 41.35 23.35 36.85 Q20.05 35.2 18.15 33.55 16.45 32.1 15.65 30.45 14.25 31.8 11.2 32.2 M-50.7 -29.5 L-50.25 -29.5 -50.1 -29.5 Q-49.0 -29.35 -47.65 -27.4 L-46.2 -25.3 -45.7 -25.75 Q-46.05 -30.85 -42.35 -36.95 -38.5 -43.25 -32.2 -47.85 L-32.05 -47.95 -32.0 -48.0 -31.55 -47.9 -31.45 -47.85 -31.25 -47.75 Q-31.0 -47.6 -31.0 -46.8 -31.0 -46.1 -32.25 -44.5 -33.5 -42.95 -33.5 -42.05 L-26.7 -46.15 -26.6 -46.2 -24.1 -47.2 -23.6 -47.35 -25.8 -48.3 Q-28.6 -49.5 -29.8 -49.5 -39.4 -49.5 -46.5 -42.45 -52.1 -36.85 -52.1 -33.25 -52.1 -31.85 -51.05 -30.05 L-50.7 -29.5 M-15.55 -46.65 Q-21.0 -45.85 -27.6 -42.15 L-34.25 -38.5 Q-35.4 -38.5 -35.85 -39.65 -36.15 -40.5 -36.0 -41.3 -41.4 -36.25 -42.55 -31.45 -43.0 -29.65 -43.0 -21.9 -43.0 -21.1 -43.2 -20.85 L-43.5 -20.55 -44.5 -20.5 Q-45.65 -20.5 -47.2 -22.25 -48.5 -23.75 -49.35 -25.5 L-49.5 -25.25 -49.5 -24.3 Q-49.5 -21.7 -48.35 -18.95 L-47.75 -18.75 Q-47.5 -18.6 -47.5 -17.8 L-47.55 -17.3 Q-46.2 -14.7 -43.75 -11.95 -38.0 -6.45 -38.0 -5.55 L-38.05 -4.85 -38.25 -4.55 -42.35 -4.25 -34.95 0.75 -31.2 3.35 -31.65 0.8 -30.6 1.15 -30.65 1.0 -31.15 -1.5 -28.4 -13.25 Q-28.4 -18.7 -20.35 -28.0 -14.6 -34.6 -10.9 -36.55 -11.9 -37.8 -13.4 -38.25 L-11.85 -38.3 -11.55 -39.15 -10.5 -40.3 Q-16.75 -40.85 -16.9 -42.85 -17.0 -44.0 -15.5 -46.3 L-15.1 -46.75 -15.55 -46.65 M-61.55 -0.55 Q-60.35 0.3 -59.3 1.45 -56.0 5.15 -56.0 10.05 -56.0 13.6 -58.0 17.0 -58.95 18.65 -60.25 19.75 L-58.0 20.25 Q-53.4 20.25 -51.25 15.85 -50.0 13.3 -50.0 11.15 -50.0 8.2 -51.35 5.2 -54.05 2.7 -58.3 -0.7 L-58.5 -0.5 -59.35 -0.7 -59.5 -1.25 -59.75 -1.25 Q-60.5 -1.25 -61.35 -0.7 L-61.55 -0.55 M-33.25 9.0 L-33.25 8.95 -30.15 7.0 -30.35 6.45 Q-32.95 5.6 -47.5 -5.55 L-47.5 -6.75 Q-44.5 -7.0 -42.1 -6.75 -46.5 -10.4 -48.8 -14.7 -50.1 -12.45 -52.55 -8.75 L-56.9 -2.45 Q-55.05 -1.9 -53.4 -1.0 -49.4 1.05 -49.0 3.6 L-49.0 5.85 -49.2 6.05 Q-48.0 8.5 -48.0 11.25 -48.0 13.95 -49.35 16.8 L-47.55 16.1 Q-40.35 13.9 -39.0 13.1 L-37.5 12.05 -33.25 9.0 M-58.0 10.25 Q-58.0 6.3 -60.65 3.25 -63.1 0.5 -66.5 -0.3 -70.0 -1.1 -72.35 0.65 -75.0 2.65 -75.0 7.25 -75.0 9.75 -73.5 14.0 -71.4 19.85 -68.25 19.85 L-64.25 19.2 -63.85 19.05 Q-61.1 17.9 -59.5 15.1 -58.65 13.6 -58.25 11.8 L-58.0 10.25" fill="#000000" fill-rule="evenodd" stroke="none"/>
      <path d="M52.7 5.15 Q50.85 6.65 46.1 8.6 38.95 11.55 37.5 12.35 37.75 13.1 38.75 14.25 L28.4 14.75 24.1 14.15 20.95 13.65 25.0 10.4 Q30.55 5.65 34.1 0.5 37.5 -4.35 37.5 -7.15 37.5 -12.4 33.7 -16.55 31.5 -19.05 25.6 -23.15 L26.0 -24.05 Q25.25 -25.15 24.7 -26.95 L23.55 -29.75 31.8 -29.75 Q32.5 -29.5 35.3 -29.75 L35.5 -30.65 34.85 -33.6 34.0 -36.8 34.5 -37.0 Q39.3 -32.35 43.25 -26.2 L46.25 -21.0 47.0 -21.05 Q49.05 -25.25 49.0 -27.55 51.5 -23.35 51.9 -17.35 L52.0 -7.75 53.5 -7.5 Q55.15 -7.5 56.05 -8.65 L57.8 -10.5 58.0 -10.25 Q56.7 -5.25 52.95 -0.45 49.5 3.4 49.5 3.8 49.5 4.55 49.65 4.8 L49.8 5.0 52.5 5.0 52.7 5.15 M-15.5 -46.3 Q-17.0 -44.0 -16.9 -42.85 -16.75 -40.85 -10.5 -40.3 L-11.55 -39.15 -11.85 -38.3 -13.4 -38.25 Q-11.9 -37.8 -10.9 -36.55 -14.6 -34.6 -20.35 -28.0 -28.4 -18.7 -28.4 -13.25 L-31.15 -1.5 -30.65 1.0 -30.6 1.15 -31.65 0.8 -31.2 3.35 -34.95 0.75 -42.35 -4.25 -38.25 -4.55 -38.05 -4.85 -38.0 -5.55 Q-38.0 -6.45 -43.75 -11.95 -46.2 -14.7 -47.55 -17.3 L-47.5 -17.8 Q-47.5 -18.6 -47.75 -18.75 L-48.35 -18.95 Q-49.5 -21.7 -49.5 -24.3 L-49.5 -25.25 -49.35 -25.5 Q-48.5 -23.75 -47.2 -22.25 -45.65 -20.5 -44.5 -20.5 L-43.5 -20.55 -43.2 -20.85 Q-43.0 -21.1 -43.0 -21.9 -43.0 -29.65 -42.55 -31.45 -41.4 -36.25 -36.0 -41.3 -36.15 -40.5 -35.85 -39.65 -35.4 -38.5 -34.25 -38.5 L-27.6 -42.15 Q-21.0 -45.85 -15.55 -46.65 L-15.5 -46.3" fill="#311d1a" fill-rule="evenodd" stroke="none"/>
      <path d="M-20.8 -22.1 Q-17.9 -26.25 -13.95 -30.6 L-9.9 -34.8 -9.0 -35.65 -8.7 -35.65 -7.95 -35.25 -5.45 -34.0 Q-0.45 -31.55 2.8 -31.1 L2.9 -30.85 Q17.8 -25.05 21.15 -23.3 34.65 -16.3 35.45 -8.3 28.6 -7.25 24.15 -5.1 18.75 -2.55 13.8 3.0 L7.05 10.05 Q2.3 8.2 -0.4 7.4 -2.05 6.85 -3.4 6.75 L-3.05 5.4 Q-2.8 3.2 -3.5 -0.8 -3.35 -2.7 -2.1 -6.55 -1.0 -10.05 -1.0 -11.9 -1.0 -12.75 -1.25 -13.05 L-2.0 -13.5 -2.05 -13.4 -2.5 -13.5 -3.2 -12.75 -3.5 -11.55 -3.25 -11.4 Q-4.85 -8.0 -5.7 -0.85 -6.65 7.25 -9.5 7.25 -11.7 7.25 -17.85 5.35 L-17.5 4.1 Q-15.5 -3.05 -15.5 -7.3 -15.5 -13.2 -18.0 -18.2 -19.1 -20.45 -20.55 -21.95 L-20.8 -22.1 M34.3 -3.7 L32.25 -0.55 Q28.75 4.2 23.5 8.65 20.25 11.4 17.05 13.5 L17.0 13.5 Q16.55 13.65 16.25 13.9 L16.0 14.1 16.0 14.15 Q13.5 15.7 11.05 16.85 L12.75 14.7 18.0 7.35 Q22.35 1.25 30.05 -2.05 L34.3 -3.7 M0.1 20.05 L-3.55 20.25 -3.65 20.15 -3.85 20.0 Q-16.25 19.9 -22.9 13.65 -20.5 12.45 -18.65 7.7 L-17.45 8.05 Q-12.2 9.5 -9.25 9.5 L-6.4 9.2 Q-4.6 10.45 -0.5 11.25 L5.7 12.0 5.35 12.0 Q0.7 17.25 0.1 20.05 M-26.2 9.15 L-26.5 7.5 -27.0 8.1 -27.5 7.1 -27.5 7.0 Q-27.5 6.2 -27.65 6.15 L-27.85 6.25 -28.25 5.3 -28.9 3.2 -28.75 3.0 -28.5 1.25 -27.35 -7.0 Q-26.3 -12.65 -24.1 -16.8 L-22.2 -19.95 -21.65 -19.75 -22.75 -15.95 -22.45 -15.5 Q-19.0 -10.75 -19.0 -6.8 -19.0 -4.75 -23.6 3.7 L-26.3 8.6 -26.2 9.15 M-33.25 9.0 Q-33.8 7.65 -35.45 5.55 -37.95 2.25 -41.4 -0.75 -48.65 -7.1 -53.6 -7.1 L-55.0 -5.05 Q-45.85 -0.6 -40.5 7.0 -38.55 9.75 -37.5 12.05 L-39.0 13.1 Q-40.35 13.9 -47.55 16.1 L-49.35 16.8 Q-48.0 13.95 -48.0 11.25 -48.0 8.5 -49.2 6.05 L-49.0 5.85 -49.0 3.6 Q-49.4 1.05 -53.4 -1.0 -55.05 -1.9 -56.9 -2.45 L-52.55 -8.75 Q-50.1 -12.45 -48.8 -14.7 -46.5 -10.4 -42.1 -6.75 -44.5 -7.0 -47.5 -6.75 L-47.5 -5.55 Q-32.95 5.6 -30.35 6.45 L-30.15 7.0 -33.25 8.95 -33.25 9.0 M-58.0 10.25 L-58.25 11.8 Q-58.65 13.6 -59.5 15.1 -61.1 17.9 -63.85 19.05 L-64.25 19.2 -68.25 19.85 Q-71.4 19.85 -73.5 14.0 -75.0 9.75 -75.0 7.25 -75.0 2.65 -72.35 0.65 -70.0 -1.1 -66.5 -0.3 -63.1 0.5 -60.65 3.25 -58.0 6.3 -58.0 10.25" fill="#cdac98" fill-rule="evenodd" stroke="none"/>
      <path d="M35.45 -8.3 L35.5 -7.3 Q35.5 -5.9 34.3 -3.7 L30.05 -2.05 Q22.35 1.25 18.0 7.35 L12.75 14.7 11.05 16.85 Q5.55 19.35 0.1 20.05 0.7 17.25 5.35 12.0 L5.7 12.0 6.0 12.0 Q7.45 12.0 8.0 11.0 L7.55 10.25 7.05 10.05 13.8 3.0 Q18.75 -2.55 24.15 -5.1 28.6 -7.25 35.45 -8.3 M-22.9 13.65 Q-24.75 11.85 -26.15 9.65 L-26.2 9.15 -26.3 8.6 -23.6 3.7 Q-19.0 -4.75 -19.0 -6.8 -19.0 -10.75 -22.45 -15.5 L-22.75 -15.95 -21.65 -19.75 -20.55 -21.95 Q-19.1 -20.45 -18.0 -18.2 -15.5 -13.2 -15.5 -7.3 -15.5 -3.05 -17.5 4.1 L-17.85 5.35 -22.0 4.0 -23.1 4.2 -23.5 4.35 -23.5 5.85 Q-22.35 6.6 -18.65 7.7 -20.5 12.45 -22.9 13.65 M-37.5 12.05 Q-38.55 9.75 -40.5 7.0 -45.85 -0.6 -55.0 -5.05 L-53.6 -7.1 Q-48.65 -7.1 -41.4 -0.75 -37.95 2.25 -35.45 5.55 -33.8 7.65 -33.25 9.0 L-37.5 12.05" fill="#7f98ff" fill-rule="evenodd" stroke="none"/>
      <path d="M15.35 17.25 L14.3 23.15 Q13.75 26.9 13.15 28.0 12.35 29.5 10.1 29.9 L2.65 30.25 Q-19.9 30.25 -25.0 23.15 L-25.5 22.3 -25.65 21.6 -26.15 20.75 Q-26.6 19.25 -26.5 17.45 L-26.1 14.45 Q-19.65 22.5 -7.0 22.5 L-5.95 22.45 -3.75 22.5 Q5.9 22.5 15.35 17.25 M-50.7 -29.5 L-51.05 -30.05 Q-52.1 -31.85 -52.1 -33.25 -52.1 -36.85 -46.5 -42.45 -39.4 -49.5 -29.8 -49.5 -28.6 -49.5 -25.8 -48.3 L-23.6 -47.35 -24.1 -47.2 -26.6 -46.2 -26.7 -46.15 -33.5 -42.05 Q-33.5 -42.95 -32.25 -44.5 -31.0 -46.1 -31.0 -46.8 -31.0 -47.6 -31.25 -47.75 L-31.45 -47.85 -31.55 -47.9 -32.0 -48.0 -32.05 -47.95 -32.2 -47.85 Q-38.5 -43.25 -42.35 -36.95 -46.05 -30.85 -45.7 -25.75 L-46.2 -25.3 -47.65 -27.4 Q-49.0 -29.35 -50.1 -29.5 L-50.25 -29.5 -50.7 -29.5" fill="#342825" fill-rule="evenodd" stroke="none"/>
      <path d="M11.2 32.2 Q14.25 31.8 15.65 30.45 16.45 32.1 18.15 33.55 20.05 35.2 23.35 36.85 L25.75 41.35 27.85 44.45 Q25.65 45.3 25.2 45.8 25.0 46.1 25.0 47.55 L25.5 48.4 Q26.1 49.05 26.3 49.85 L24.05 51.6 23.85 49.7 Q23.5 48.5 22.0 48.5 20.45 48.5 18.95 49.95 18.2 50.7 17.75 51.5 15.75 47.5 14.75 47.5 12.65 47.5 11.55 49.05 10.5 50.45 11.0 51.85 L10.75 51.85 9.5 50.1 Q8.75 49.0 7.5 49.0 5.95 49.0 4.95 50.6 L4.0 52.5 0.7 51.0 -2.5 51.6 Q-2.2 50.05 -2.2 48.85 -2.3 46.5 -4.0 46.5 -4.75 46.5 -6.75 48.45 L-9.1 50.5 Q-10.0 49.95 -10.35 48.15 L-10.6 45.75 -12.25 45.5 Q-14.0 45.5 -15.35 47.9 L-16.75 50.85 -18.5 47.65 Q-19.85 45.0 -20.5 45.0 -21.45 45.0 -24.2 46.7 -26.95 48.35 -27.5 48.35 L-25.85 46.3 Q-25.5 45.65 -25.5 44.4 -25.1 43.7 -26.05 43.15 -27.9 42.05 -34.5 42.35 L-29.0 33.25 Q-26.5 28.75 -25.8 25.55 -19.2 32.5 2.5 32.5 L11.2 32.2" fill="#023f60" fill-rule="evenodd" stroke="none"/>
      <path d="M-61.55 -0.55 L-61.35 -0.7 Q-60.5 -1.25 -59.75 -1.25 L-59.5 -1.25 -59.35 -0.7 -58.5 -0.5 -58.3 -0.7 Q-54.05 2.7 -51.35 5.2 -50.0 8.2 -50.0 11.15 -50.0 13.3 -51.25 15.85 -53.4 20.25 -58.0 20.25 L-60.25 19.75 Q-58.95 18.65 -58.0 17.0 -56.0 13.6 -56.0 10.05 -56.0 5.15 -59.3 1.45 -60.35 0.3 -61.55 -0.55" fill="#8a5242" fill-rule="evenodd" stroke="none"/>
    </g>
    <g id="shape4" transform="matrix(1.0, 0.0, 0.0, 1.0, 29.5, 51.35)">
      <path d="M24.55 -25.05 Q29.0 -18.7 30.8 -15.25 L33.5 -19.4 Q35.95 -23.65 36.7 -27.6 L36.4 -29.95 36.35 -31.15 Q36.4 -35.3 35.9 -36.75 34.1 -41.9 31.6 -44.65 30.4 -46.05 29.0 -46.85 29.0 -43.25 27.9 -39.3 27.1 -36.45 25.95 -34.5 L25.95 -34.45 26.1 -34.4 24.45 -31.65 Q22.95 -29.35 21.95 -28.75 L24.55 -25.05 M26.5 -42.85 L26.95 -47.0 27.5 -51.35 Q31.3 -48.85 34.7 -43.75 38.0 -38.75 38.4 -35.1 L38.4 -29.6 38.45 -29.6 38.4 -29.0 Q38.4 -28.2 38.7 -27.4 38.2 -24.35 37.0 -21.15 34.85 -15.35 31.6 -12.9 L32.0 -11.6 32.0 -11.25 31.85 -10.9 31.85 -10.8 31.9 -10.7 31.9 -10.4 32.7 -0.25 32.6 0.35 32.95 0.65 32.85 0.8 32.55 1.1 32.45 1.45 32.2 1.75 30.7 1.75 30.7 2.7 30.65 3.75 30.7 4.3 30.6 7.45 31.2 8.0 32.7 9.6 Q33.5 10.55 33.7 11.45 L34.45 15.3 34.7 18.5 Q34.7 22.7 33.5 26.85 L33.05 28.6 Q35.6 29.85 37.85 35.8 40.0 41.6 40.0 44.65 L39.95 45.4 39.75 45.75 Q38.1 46.1 37.0 45.3 L37.5 47.05 37.5 62.5 36.5 63.0 Q35.65 62.7 35.2 61.25 L34.5 59.3 34.0 65.7 33.5 70.25 34.25 72.7 35.0 75.3 34.9 76.65 Q35.5 77.0 35.8 78.25 36.0 79.05 36.0 82.1 L35.55 89.3 Q34.85 95.65 33.5 97.0 32.05 96.05 31.55 94.4 L30.55 91.5 Q30.3 92.05 30.15 93.45 29.8 94.75 28.5 95.5 27.1 94.55 26.45 92.65 L25.5 90.0 Q25.0 89.2 24.35 89.3 23.85 89.4 23.5 88.5 L23.5 86.0 24.0 79.05 24.3 78.9 24.0 78.15 24.0 75.65 24.05 71.75 24.1 71.75 23.8 71.1 22.55 67.0 22.1 65.3 21.75 63.55 Q20.9 61.25 20.35 61.4 L19.5 62.0 Q18.25 62.0 16.55 57.95 L14.05 52.0 Q13.75 52.15 13.5 52.95 L13.05 54.25 Q13.5 54.5 12.25 54.5 11.1 54.5 9.85 51.15 8.7 48.15 8.5 45.55 L7.9 41.05 Q7.5 38.25 7.5 36.55 L7.3 36.3 7.3 36.4 7.25 36.4 6.9 37.05 Q6.55 37.5 5.75 37.5 L4.8 37.25 Q4.5 36.5 4.5 34.9 4.5 32.85 5.5 28.3 L6.4 24.7 5.6 24.6 5.35 24.65 Q-0.8 24.3 -1.85 22.5 L-2.0 22.75 -2.2 21.55 -2.6 20.45 Q-3.7 20.3 -4.6 19.65 -5.8 18.7 -7.5 18.5 L-11.55 17.55 -15.5 16.3 -14.85 15.35 Q-14.1 14.65 -12.5 14.0 -13.3 13.65 -17.95 13.05 -22.1 12.2 -21.75 10.05 L-22.85 10.35 -24.75 10.5 -27.2 10.05 -28.6 9.55 -29.5 10.0 -29.0 8.7 -29.0 8.25 -28.65 8.25 -27.5 6.8 Q-26.5 5.65 -24.9 4.25 -21.85 1.55 -20.0 0.7 L-20.0 0.4 Q-20.0 -0.4 -19.7 -0.5 L-19.65 -0.5 -19.95 -1.8 -20.0 -4.25 Q-20.0 -7.75 -19.2 -11.3 -21.65 -12.9 -23.25 -15.35 L-24.6 -17.9 Q-25.65 -18.95 -27.0 -22.4 -27.0 -23.25 -26.0 -24.4 L-25.85 -24.55 -26.0 -24.6 -26.3 -24.9 -26.6 -27.1 Q-25.45 -28.15 -24.65 -27.35 L-23.0 -29.05 Q-22.05 -30.0 -23.0 -31.75 L-21.5 -32.0 Q-20.85 -32.0 -20.5 -31.5 -20.1 -31.0 -19.5 -31.0 -18.75 -31.0 -18.2 -32.45 -17.7 -33.7 -15.0 -33.0 -12.8 -32.4 -12.2 -31.2 L-12.1 -31.35 Q-11.75 -29.9 -11.05 -28.75 -6.65 -35.0 -2.25 -38.0 -1.25 -39.05 1.05 -40.3 4.25 -42.1 6.0 -42.4 7.25 -41.5 8.75 -41.0 L13.25 -37.6 Q14.85 -36.65 17.4 -33.85 L20.45 -30.45 21.35 -31.45 23.5 -33.9 Q23.6 -34.75 24.95 -38.4 L26.5 -42.85 M28.4 -14.85 L27.0 -17.2 Q22.8 -24.5 21.05 -26.5 L13.85 -34.35 Q10.95 -36.95 7.8 -38.55 6.55 -39.2 5.25 -39.65 L3.35 -38.5 Q1.0 -37.25 -0.4 -36.4 -5.85 -32.35 -9.65 -27.1 -8.5 -26.05 -6.45 -25.2 L-5.0 -24.65 Q-1.05 -23.25 0.15 -22.25 2.5 -20.35 2.5 -16.4 2.5 -11.1 -1.25 -9.4 -2.75 -8.7 -5.8 -8.55 L-5.85 -8.55 -8.0 -8.5 -12.9 -8.9 Q-15.15 -9.3 -17.05 -10.1 L-17.55 -7.15 -16.25 -7.5 -13.05 -7.75 -5.85 -8.05 -5.8 -8.05 -5.75 -8.05 0.0 -8.25 10.45 -8.1 Q18.0 -7.9 27.1 -7.95 L30.1 -8.0 29.8 -9.85 29.5 -11.3 29.35 -11.75 28.2 -14.75 28.45 -14.7 28.4 -14.85 M-13.15 -0.6 L-2.5 -0.85 2.05 -1.0 2.3 -0.85 2.4 -0.75 5.4 -0.7 6.35 -1.05 9.8 -0.65 26.75 -0.3 28.0 -0.3 28.05 -0.3 30.1 -0.25 30.25 -0.25 30.25 -0.55 30.3 -3.65 30.2 -6.25 27.5 -5.95 26.3 -5.85 17.0 -5.5 -12.75 -5.5 -17.6 -5.5 -17.7 -5.55 -17.7 -5.5 -18.0 -0.5 -14.15 -0.6 -13.15 -0.6 M21.55 2.95 L21.35 2.7 Q18.2 1.85 18.2 4.05 18.2 4.8 18.35 4.95 L18.45 5.2 19.95 5.45 Q21.7 5.45 21.7 3.95 L21.55 2.95 M27.6 19.1 Q27.95 16.0 28.7 14.95 29.5 15.55 29.65 16.45 L29.7 17.95 Q29.7 21.85 27.6 25.55 28.25 25.8 29.05 27.05 L30.1 28.95 31.7 23.7 Q32.7 20.6 32.7 18.45 32.45 15.2 31.5 12.7 30.2 9.2 28.15 9.25 24.1 11.4 21.5 14.9 18.7 18.7 18.7 22.25 L18.7 22.45 19.0 22.8 18.8 23.3 19.45 27.3 20.2 31.95 26.6 23.2 Q27.25 22.25 27.6 19.1 M15.65 3.5 L16.1 3.45 15.65 3.4 15.65 3.5 M12.5 1.5 L5.3 1.5 5.3 1.45 1.2 1.4 0.5 1.5 -0.5 1.5 -0.6 1.8 -0.65 1.85 -0.35 5.9 -0.35 11.1 -0.2 17.2 Q0.15 19.7 1.1 21.25 L1.25 21.15 1.5 21.1 1.5 21.25 1.65 21.3 1.8 21.5 2.75 21.5 Q3.45 22.0 4.75 22.0 L5.05 22.15 10.65 22.75 15.5 22.25 15.5 22.2 13.6 18.75 13.5 15.8 Q13.5 14.85 14.25 12.3 L15.0 9.8 Q12.5 3.35 12.5 1.9 L12.5 1.5 M16.5 12.35 Q15.55 14.45 15.5 15.5 L15.5 15.65 15.5 15.9 Q15.55 17.8 16.15 18.85 L16.7 19.7 16.75 18.35 Q16.95 17.6 19.2 13.7 20.7 11.1 23.0 9.5 L17.35 10.45 16.5 12.35 M37.4 41.55 L36.75 38.85 35.75 35.55 33.7 32.4 32.55 30.55 Q31.65 34.15 31.2 37.25 30.85 37.7 30.2 37.95 28.95 37.2 28.8 35.35 L28.45 32.0 27.1 29.0 26.45 27.35 Q22.2 33.8 20.7 37.25 20.35 37.7 19.7 37.95 18.2 36.8 18.05 34.0 L17.7 29.75 Q17.0 27.6 16.8 24.55 L10.75 25.0 8.05 24.9 8.0 24.9 8.0 25.35 Q8.0 27.2 7.0 30.8 L7.0 33.0 Q7.7 32.45 9.3 32.75 L10.0 41.25 Q10.55 46.65 11.75 50.0 L12.0 50.0 12.05 48.25 12.4 48.15 13.5 48.0 Q14.6 48.0 16.55 52.05 L19.0 57.5 Q20.05 56.65 20.5 56.5 L22.45 60.5 Q23.85 63.35 24.25 65.0 24.5 66.15 26.05 69.4 L27.2 71.85 27.65 71.85 Q30.85 71.45 31.55 69.0 L32.5 64.05 32.5 54.0 Q32.45 53.9 32.55 53.75 32.75 53.5 33.5 53.5 L34.45 54.05 35.3 55.0 35.5 51.1 35.2 47.85 34.5 43.8 34.5 41.25 34.75 41.15 35.75 41.0 Q36.5 41.0 37.0 41.5 L37.5 42.0 37.4 41.55 M27.15 73.9 L26.25 74.0 26.0 74.0 26.0 78.25 29.8 78.25 Q32.6 77.85 32.95 76.0 33.1 75.25 32.55 73.3 L27.15 73.9 M33.35 91.8 L34.0 82.1 33.7 79.1 Q32.0 80.5 27.75 80.5 L26.35 80.35 26.3 81.7 25.5 84.85 Q25.5 85.9 26.5 87.9 L28.0 91.5 Q28.3 91.25 28.5 89.55 28.65 88.1 30.5 87.5 31.85 88.15 32.25 89.5 32.8 91.3 33.25 91.8 L33.3 92.0 33.35 91.8 M-19.75 -22.25 L-18.6 -23.35 Q-17.35 -23.7 -15.0 -22.75 L-15.25 -23.75 -15.5 -25.15 Q-15.5 -26.5 -15.15 -26.75 L-13.5 -28.0 -13.4 -29.05 -13.45 -29.2 -13.5 -29.2 -14.4 -30.15 Q-15.15 -31.2 -16.85 -30.75 L-17.85 -28.9 -21.0 -29.0 Q-21.0 -28.3 -21.9 -27.1 L-23.0 -25.5 -23.1 -24.1 Q-23.4 -22.95 -24.85 -22.25 -24.25 -21.65 -22.95 -20.85 L-22.1 -20.25 -21.6 -19.65 -21.4 -19.45 Q-20.95 -18.85 -20.5 -18.75 -19.8 -19.4 -19.75 -22.25 M-10.35 -25.15 Q-10.75 -26.1 -11.55 -26.8 L-11.75 -26.95 -12.05 -26.5 -13.1 -24.85 Q-12.95 -23.1 -13.1 -20.75 L-15.05 -20.7 -17.6 -21.0 Q-17.8 -19.6 -18.1 -18.55 -18.6 -16.5 -20.25 -16.5 L-21.85 -16.75 -20.5 -14.9 -18.7 -13.35 -18.65 -13.65 -18.5 -13.55 -18.5 -13.25 -17.95 -13.15 -18.0 -13.1 -17.0 -12.5 Q-16.65 -12.6 -16.4 -12.8 L-16.55 -12.2 Q-14.8 -11.45 -12.6 -11.1 L-11.85 -10.95 -9.65 -13.35 Q-7.2 -15.45 -7.0 -17.85 L-7.0 -21.85 -6.9 -23.15 -7.0 -23.2 -7.65 -23.45 Q-9.1 -24.1 -10.2 -24.95 L-10.35 -25.15 M-8.0 -10.75 Q-2.0 -10.75 -0.15 -13.55 0.8 -15.0 0.5 -16.55 0.5 -19.55 -1.85 -21.05 L-5.0 -22.45 -5.0 -20.05 Q-5.0 -16.3 -6.5 -13.1 -7.2 -11.65 -8.0 -10.75 L-8.05 -10.75 -8.0 -10.75 M-11.3 11.95 Q-7.05 13.3 -6.5 14.5 -6.75 15.2 -7.5 15.5 L-9.85 15.75 -5.5 16.55 -4.25 16.9 -2.5 17.85 -2.5 1.5 -18.2 1.5 Q-19.25 2.85 -24.65 6.75 L-25.5 7.3 -25.5 7.5 -21.85 7.5 -21.65 7.7 -21.5 8.0 -16.85 8.0 Q-16.65 8.5 -16.7 9.2 L-17.1 10.3 -11.3 11.95" fill="#000000" fill-rule="evenodd" stroke="none"/>
      <path d="M30.25 -0.55 L30.25 -0.25 30.1 -0.25 30.25 -0.55" fill="#5b6171" fill-rule="evenodd" stroke="none"/>
      <path d="M21.55 2.95 L21.7 3.95 Q21.7 5.45 19.95 5.45 L18.45 5.2 18.35 4.95 Q18.2 4.8 18.2 4.05 18.2 1.85 21.35 2.7 L21.55 2.95" fill="#ffffff" fill-rule="evenodd" stroke="none"/>
      <path d="M16.5 12.35 L17.35 10.45 23.0 9.5 Q20.7 11.1 19.2 13.7 16.95 17.6 16.75 18.35 L16.7 19.7 16.15 18.85 Q15.55 17.8 15.5 15.9 L15.5 15.65 15.5 15.5 Q15.55 14.45 16.5 12.35" fill="#cdac98" fill-rule="evenodd" stroke="none"/>
      <path d="M-17.7 -5.5 L-17.7 -5.55 -17.7 -5.5" fill="#666666" fill-rule="evenodd" stroke="none"/>
      <path d="M24.15 -15.8 L24.8 -15.45 24.15 -15.8 M-8.0 -10.75 L-8.05 -10.75 -8.0 -10.75" fill="#333333" fill-rule="evenodd" stroke="none"/>
      <path d="M27.15 73.9 L32.55 73.3 Q33.1 75.25 32.95 76.0 32.6 77.85 29.8 78.25 L26.0 78.25 26.0 74.0 26.25 74.0 27.15 73.9" fill="#046193" fill-rule="evenodd" stroke="none"/>
      <path d="M24.15 -15.8 L23.9 -15.75 23.65 -16.25 24.15 -15.8" fill="#795c55" fill-rule="evenodd" stroke="none"/>
      <path d="M27.6 19.1 Q27.25 22.25 26.6 23.2 L20.2 31.95 19.45 27.3 18.8 23.3 19.0 22.8 18.7 22.45 18.7 22.25 Q18.7 18.7 21.5 14.9 24.1 11.4 28.15 9.25 30.2 9.2 31.5 12.7 32.45 15.2 32.7 18.45 32.7 20.6 31.7 23.7 L30.1 28.95 29.05 27.05 Q28.25 25.8 27.6 25.55 29.7 21.85 29.7 17.95 L29.65 16.45 Q29.5 15.55 28.7 14.95 27.95 16.0 27.6 19.1 M8.05 24.9 L10.75 25.0 16.8 24.55 Q17.0 27.6 17.7 29.75 L18.05 34.0 Q18.2 36.8 19.7 37.95 20.35 37.7 20.7 37.25 22.2 33.8 26.45 27.35 L27.1 29.0 28.45 32.0 28.8 35.35 Q28.95 37.2 30.2 37.95 30.85 37.7 31.2 37.25 31.65 34.15 32.55 30.55 L33.7 32.4 35.75 35.55 36.75 38.85 37.4 41.55 37.0 41.5 Q36.5 41.0 35.75 41.0 L34.75 41.15 34.5 41.25 34.5 43.8 35.2 47.85 35.5 51.1 35.3 55.0 34.45 54.05 33.5 53.5 Q32.75 53.5 32.55 53.75 32.45 53.9 32.5 54.0 L32.5 64.05 31.55 69.0 Q30.85 71.45 27.65 71.85 L27.2 71.85 26.05 69.4 Q24.5 66.15 24.25 65.0 23.85 63.35 22.45 60.5 L20.5 56.5 Q20.05 56.65 19.0 57.5 L16.55 52.05 Q14.6 48.0 13.5 48.0 L12.4 48.15 12.05 48.25 12.0 50.0 11.75 50.0 Q10.55 46.65 10.0 41.25 L9.3 32.75 Q7.7 32.45 7.0 33.0 L7.0 30.8 Q8.0 27.2 8.0 25.35 L8.05 24.9 M33.25 91.8 Q32.8 91.3 32.25 89.5 31.85 88.15 30.5 87.5 28.65 88.1 28.5 89.55 28.3 91.25 28.0 91.5 L26.5 87.9 Q25.5 85.9 25.5 84.85 L26.3 81.7 26.35 80.35 27.75 80.5 Q32.0 80.5 33.7 79.1 L34.0 82.1 33.35 91.8 33.25 91.8 M-11.3 11.95 L-17.1 10.3 -16.7 9.2 Q-16.65 8.5 -16.85 8.0 L-21.5 8.0 -21.65 7.7 -21.85 7.5 -25.5 7.5 -25.5 7.3 -24.65 6.75 Q-19.25 2.85 -18.2 1.5 L-2.5 1.5 -2.5 17.85 -4.25 16.9 -5.5 16.55 -9.85 15.75 -7.5 15.5 Q-6.75 15.2 -6.5 14.5 -7.05 13.3 -11.3 11.95" fill="#4e2f29" fill-rule="evenodd" stroke="none"/>
      <path d="M-5.8 -8.55 L-5.75 -8.05 -5.8 -8.05 -5.8 -8.55" fill="#332d26" fill-rule="evenodd" stroke="none"/>
      <path d="M24.55 -25.05 Q27.05 -26.3 28.5 -29.5 29.3 -31.2 30.5 -37.75 L31.6 -44.65 Q34.1 -41.9 35.9 -36.75 36.4 -35.3 36.35 -31.15 L36.4 -29.95 36.7 -27.6 Q35.95 -23.65 33.5 -19.4 L30.8 -15.25 Q29.0 -18.7 24.55 -25.05 M26.75 -0.3 L9.8 -0.65 6.35 -1.05 5.4 -0.7 2.4 -0.75 2.3 -0.85 2.05 -1.0 -2.5 -0.85 -13.15 -0.6 -12.5 -4.3 -12.75 -5.5 17.0 -5.5 26.3 -5.85 26.25 -5.75 26.55 -3.1 26.75 -0.3 M-10.35 -25.15 L-10.2 -24.95 Q-9.1 -24.1 -7.65 -23.45 L-7.0 -23.2 -6.9 -23.15 -7.0 -21.85 -7.0 -17.85 Q-7.2 -15.45 -9.65 -13.35 L-11.85 -10.95 -12.6 -11.1 Q-14.8 -11.45 -16.55 -12.2 L-16.4 -12.8 Q-16.65 -12.6 -17.0 -12.5 L-18.0 -13.1 -17.95 -13.15 -18.5 -13.25 -18.5 -13.55 -18.65 -13.65 -18.7 -13.35 -20.5 -14.9 -21.85 -16.75 -20.25 -16.5 Q-18.6 -16.5 -18.1 -18.55 -17.8 -19.6 -17.6 -21.0 L-15.05 -20.7 -13.1 -20.75 Q-12.95 -23.1 -13.1 -24.85 L-12.05 -26.5 -11.75 -26.95 -11.55 -26.8 Q-10.75 -26.1 -10.35 -25.15" fill="#8a5242" fill-rule="evenodd" stroke="none"/>
      <path d="M-19.75 -22.25 Q-19.8 -19.4 -20.5 -18.75 -20.95 -18.85 -21.4 -19.45 L-21.6 -19.65 -22.1 -20.25 -22.95 -20.85 Q-24.25 -21.65 -24.85 -22.25 -23.4 -22.95 -23.1 -24.1 L-23.0 -25.5 -21.9 -27.1 Q-21.0 -28.3 -21.0 -29.0 L-17.85 -28.9 -16.85 -30.75 Q-15.15 -31.2 -14.4 -30.15 L-13.5 -29.2 -13.45 -29.2 -13.4 -29.05 -13.5 -28.0 -15.15 -26.75 Q-15.5 -26.5 -15.5 -25.15 L-15.25 -23.75 -15.0 -22.75 Q-17.35 -23.7 -18.6 -23.35 L-19.75 -22.25 M-8.0 -10.75 Q-7.2 -11.65 -6.5 -13.1 -5.0 -16.3 -5.0 -20.05 L-5.0 -22.45 -1.85 -21.05 Q0.5 -19.55 0.5 -16.55 0.8 -15.0 -0.15 -13.55 -2.0 -10.75 -8.0 -10.75" fill="#583429" fill-rule="evenodd" stroke="none"/>
      <path d="M-6.45 -25.2 Q-2.85 -30.05 2.05 -34.2 L5.35 -36.75 Q9.55 -33.95 12.9 -30.95 16.3 -27.9 19.55 -23.85 22.05 -20.7 24.15 -15.8 L23.65 -16.25 23.9 -15.75 25.4 -12.3 Q26.5 -10.3 27.1 -7.95 18.0 -7.9 10.45 -8.1 L0.0 -8.25 -5.75 -8.05 -5.8 -8.55 Q-2.75 -8.7 -1.25 -9.4 2.5 -11.1 2.5 -16.4 2.5 -20.35 0.15 -22.25 -1.05 -23.25 -5.0 -24.65 L-6.45 -25.2 M-5.8 -8.05 L-5.85 -8.05 -13.05 -7.75 -12.9 -8.9 -8.0 -8.5 -5.85 -8.55 -5.8 -8.55 -5.8 -8.05 M12.5 1.5 L12.5 1.9 Q12.5 3.35 15.0 9.8 L14.25 12.3 Q13.5 14.85 13.5 15.8 L13.6 18.75 15.5 22.2 15.5 22.25 10.65 22.75 5.05 22.15 4.75 22.0 Q3.45 22.0 2.75 21.5 L1.8 21.5 1.65 21.3 1.5 21.25 1.5 21.1 1.25 21.15 1.1 21.25 Q0.15 19.7 -0.2 17.2 L-0.35 11.1 -0.35 5.9 -0.65 1.85 -0.6 1.8 -0.5 1.5 0.5 1.5 1.2 1.4 5.3 1.45 5.3 1.5 12.5 1.5" fill="#342825" fill-rule="evenodd" stroke="none"/>
      <path d="M-6.45 -25.2 Q-8.5 -26.05 -9.65 -27.1 -5.85 -32.35 -0.4 -36.4 1.0 -37.25 3.35 -38.5 L5.25 -39.65 Q6.55 -39.2 7.8 -38.55 10.95 -36.95 13.85 -34.35 L21.05 -26.5 Q22.8 -24.5 27.0 -17.2 L28.4 -14.85 28.2 -14.75 29.35 -11.75 29.35 -11.3 29.5 -11.3 29.8 -9.85 30.1 -8.0 27.1 -7.95 Q26.5 -10.3 25.4 -12.3 L23.9 -15.75 24.15 -15.8 Q22.05 -20.7 19.55 -23.85 16.3 -27.9 12.9 -30.95 9.55 -33.95 5.35 -36.75 L2.05 -34.2 Q-2.85 -30.05 -6.45 -25.2 M24.15 -15.8 L24.8 -15.45 24.15 -15.8 M-13.05 -7.75 L-16.25 -7.5 -17.55 -7.15 -17.05 -10.1 Q-15.15 -9.3 -12.9 -8.9 L-13.05 -7.75" fill="#664f48" fill-rule="evenodd" stroke="none"/>
      <path d="M31.6 -44.65 L30.5 -37.75 Q29.3 -31.2 28.5 -29.5 27.05 -26.3 24.55 -25.05 L21.95 -28.75 Q22.95 -29.35 24.45 -31.65 L26.1 -34.4 25.95 -34.5 Q27.1 -36.45 27.9 -39.3 29.0 -43.25 29.0 -46.85 30.4 -46.05 31.6 -44.65 M26.75 -0.3 L26.55 -3.1 26.25 -5.75 26.3 -5.85 27.5 -5.95 30.2 -6.25 30.3 -3.65 30.25 -0.55 30.1 -0.25 28.05 -0.3 28.0 -0.3 26.75 -0.3 M-12.75 -5.5 L-12.5 -4.3 -13.15 -0.6 -14.15 -0.6 -18.0 -0.5 -17.7 -5.5 -17.7 -5.55 -17.6 -5.5 -12.75 -5.5" fill="#b98c6f" fill-rule="evenodd" stroke="none"/>
    </g>
  </defs>
</svg>
