<?xml version="1.0" encoding="UTF-8" standalone="no"?>
<svg xmlns:ffdec="https://www.free-decompiler.com/flash" xmlns:xlink="http://www.w3.org/1999/xlink" ffdec:objectType="frame" height="116.35px" width="663.9px" xmlns="http://www.w3.org/2000/svg">
  <g transform="matrix(1.0, 0.0, 0.0, 1.0, 16.75, 15.8)">
    <clipPath id="clipPath0" transform="matrix(1.4893, 0.0, 0.0, 1.0, 161.85, -5.6)">
      <use ffdec:characterId="47" height="98.9" transform="matrix(1.0, 0.0, 0.0, 1.0, -0.5, -0.5)" width="85.7" xlink:href="#shape0"/>
    </clipPath>
    <g clip-path="url(#clipPath0)">
      <use ffdec:characterId="50" height="59.85" transform="matrix(0.9869, 0.0, 0.0, 1.0, 175.7565, 12.3)" width="104.0" xlink:href="#sprite1"/>
    </g>
    <clipPath id="clipPath1" transform="matrix(1.4893, 0.0, 0.0, 1.0, 484.4, -5.6)">
      <use ffdec:characterId="47" height="98.9" transform="matrix(1.0, 0.0, 0.0, 1.0, -0.5, -0.5)" width="85.7" xlink:href="#shape0"/>
    </clipPath>
    <g clip-path="url(#clipPath1)">
      <use ffdec:characterId="52" height="60.35" transform="matrix(0.9869, 0.0, 0.0, 1.0, 500.3565, 11.85)" width="83.65" xlink:href="#sprite2"/>
    </g>
    <clipPath id="clipPath2" transform="matrix(1.4893, 0.0, 0.0, 1.0, 268.7, -5.6)">
      <use ffdec:characterId="47" height="98.9" transform="matrix(1.0, 0.0, 0.0, 1.0, -0.5, -0.5)" width="85.7" xlink:href="#shape0"/>
    </clipPath>
    <g clip-path="url(#clipPath2)">
      <use ffdec:characterId="54" height="60.7" transform="matrix(0.9869, 0.0, 0.0, 1.0, 298.0065, 11.85)" width="95.3" xlink:href="#sprite3"/>
    </g>
    <use ffdec:characterId="45" height="84.9" transform="matrix(0.9869, 0.0, 0.0, 1.0, 380.6565, -0.5)" width="122.3" xlink:href="#shape4"/>
    <use ffdec:characterId="46" height="84.9" transform="matrix(0.9869, 0.0, 0.0, 1.0, 63.2565, -0.5)" width="122.3" xlink:href="#shape5"/>
  </g>
  <defs>
    <g id="shape0" transform="matrix(1.0, 0.0, 0.0, 1.0, 0.5, 0.5)">
      <path d="M84.7 0.0 L84.7 97.9 0.0 97.9 0.0 0.0 84.7 0.0" fill="#000000" fill-rule="evenodd" stroke="none"/>
      <path d="M84.7 0.0 L84.7 97.9 0.0 97.9 0.0 0.0 84.7 0.0 Z" fill="none" stroke="#000000" stroke-linecap="round" stroke-linejoin="round" stroke-width="1.0"/>
    </g>
    <g id="sprite1" transform="matrix(1.0, 0.0, 0.0, 1.0, 0.5, 0.5)">
      <use ffdec:characterId="49" height="59.85" transform="matrix(1.0, 0.0, 0.0, 1.0, -0.5, -0.5)" width="104.0" xlink:href="#shape1"/>
    </g>
    <g id="shape1" transform="matrix(1.0, 0.0, 0.0, 1.0, 0.5, 0.5)">
      <path d="M53.25 58.8 L38.0 58.8 35.25 50.05 18.25 49.95 15.05 58.85 0.0 58.8 20.25 0.15 32.5 0.15 52.35 56.25 66.7 31.4 47.5 0.0 64.2 0.0 75.0 18.8 86.05 0.0 103.0 0.0 83.15 31.15 98.9 58.7 82.0 58.7 75.05 46.15 74.55 46.15 67.05 58.7 53.25 58.7 53.25 58.8 M27.0 22.05 L26.65 22.05 21.5 38.05 31.75 38.05 27.0 22.05" fill="#111111" fill-rule="evenodd" stroke="none"/>
      <path d="M53.25 58.8 L53.25 58.7 53.25 58.8" fill="#009999" fill-rule="evenodd" stroke="none"/>
      <path d="M53.25 58.7 L67.05 58.7 74.55 46.15 75.05 46.15 82.0 58.7 98.9 58.7 83.15 31.15 103.0 0.0 86.05 0.0 75.0 18.8 64.2 0.0 47.5 0.0 66.7 31.4 52.35 56.25 32.5 0.15 20.25 0.15 0.0 58.8 15.05 58.85 18.25 49.95 35.25 50.05 38.0 58.8 53.25 58.8 53.25 58.7 M27.0 22.05 L31.75 38.05 21.5 38.05 26.65 22.05 27.0 22.05 Z" fill="none" stroke="#000000" stroke-linecap="round" stroke-linejoin="round" stroke-width="1.0"/>
    </g>
    <g id="sprite2" transform="matrix(1.0, 0.0, 0.0, 1.0, 0.5, 0.5)">
      <use ffdec:characterId="51" height="60.35" transform="matrix(1.0, 0.0, 0.0, 1.0, -0.5, -0.5)" width="83.65" xlink:href="#shape2"/>
    </g>
    <g id="shape2" transform="matrix(1.0, 0.0, 0.0, 1.0, 0.5, 0.5)">
      <path d="M58.0 0.45 L64.9 0.05 Q68.45 0.2 70.9 1.1 79.4 4.2 82.0 7.5 L72.2 16.85 Q71.55 15.75 70.25 14.9 L67.65 13.55 Q66.35 12.9 64.2 12.75 L60.35 13.0 Q57.55 13.55 55.6 15.5 54.9 16.2 55.05 18.05 55.2 19.8 55.85 20.4 L56.85 21.45 Q57.35 21.9 58.1 22.15 L60.95 22.75 68.75 23.8 Q71.3 24.2 74.45 25.5 76.8 26.45 79.25 29.2 L80.45 30.8 Q81.25 32.1 81.9 34.1 82.65 36.15 82.65 38.9 82.75 40.3 82.3 43.05 81.9 46.05 80.05 49.5 79.2 51.1 77.75 52.55 L74.25 55.6 Q72.75 56.75 70.25 57.45 64.85 59.1 61.1 59.3 L52.65 58.85 Q48.35 58.4 43.7 55.95 L40.5 54.0 40.5 59.15 0.0 59.15 0.0 0.45 38.7 0.45 38.7 12.65 14.3 12.65 14.3 23.65 35.6 23.65 35.6 35.85 14.45 35.85 14.45 46.65 40.5 46.65 40.5 48.9 47.45 42.1 Q48.15 43.6 50.35 44.75 L53.95 46.25 Q55.95 47.05 59.8 46.95 L64.35 46.35 66.85 45.05 Q68.45 43.9 68.6 42.15 68.85 39.65 67.65 38.3 66.85 37.4 65.2 36.9 L62.1 36.3 58.0 35.65 Q51.7 34.45 49.35 33.55 46.25 32.4 43.35 28.5 41.05 25.45 40.95 19.65 41.0 16.05 41.15 14.95 41.4 12.45 42.4 10.6 45.05 6.0 48.65 3.6 50.75 2.2 52.85 1.55 L58.0 0.45" fill="#fb0a08" fill-rule="evenodd" stroke="none"/>
      <path d="M58.0 0.45 L52.85 1.55 Q50.75 2.2 48.65 3.6 45.05 6.0 42.4 10.6 41.4 12.45 41.15 14.95 41.0 16.05 40.95 19.65 41.05 25.45 43.35 28.5 46.25 32.4 49.35 33.55 51.7 34.45 58.0 35.65 L62.1 36.3 65.2 36.9 Q66.85 37.4 67.65 38.3 68.85 39.65 68.6 42.15 68.45 43.9 66.85 45.05 L64.35 46.35 59.8 46.95 Q55.95 47.05 53.95 46.25 L50.35 44.75 Q48.15 43.6 47.45 42.1 L40.5 48.9 40.5 46.65 14.45 46.65 14.45 35.85 35.6 35.85 35.6 23.65 14.3 23.65 14.3 12.65 38.7 12.65 38.7 0.45 0.0 0.45 0.0 59.15 40.5 59.15 40.5 54.0 43.7 55.95 Q48.35 58.4 52.65 58.85 L61.1 59.3 Q64.85 59.1 70.25 57.45 72.75 56.75 74.25 55.6 L77.75 52.55 Q79.2 51.1 80.05 49.5 81.9 46.05 82.3 43.05 82.75 40.3 82.65 38.9 82.65 36.15 81.9 34.1 81.25 32.1 80.45 30.8 L79.25 29.2 Q76.8 26.45 74.45 25.5 71.3 24.2 68.75 23.8 L60.95 22.75 58.1 22.15 Q57.35 21.9 56.85 21.45 L55.85 20.4 Q55.2 19.8 55.05 18.05 54.9 16.2 55.6 15.5 57.55 13.55 60.35 13.0 L64.2 12.75 Q66.35 12.9 67.65 13.55 L70.25 14.9 Q71.55 15.75 72.2 16.85 L82.0 7.5 Q79.4 4.2 70.9 1.1 68.45 0.2 64.9 0.05 L58.0 0.45 Z" fill="none" stroke="#000000" stroke-linecap="round" stroke-linejoin="round" stroke-width="1.0"/>
    </g>
    <g id="sprite3" transform="matrix(1.0, 0.0, 0.0, 1.0, 0.5, 0.5)">
      <use ffdec:characterId="53" height="60.7" transform="matrix(1.0, 0.0, 0.0, 1.0, -0.5, -0.5)" width="95.3" xlink:href="#shape3"/>
    </g>
    <g id="shape3" transform="matrix(1.0, 0.0, 0.0, 1.0, -237.25, -11.85)">
      <path d="M271.5 14.8 Q273.75 15.85 275.15 17.15 276.45 18.35 277.8 20.45 L271.3 26.35 267.85 29.4 266.7 27.95 265.35 26.95 Q263.35 25.15 259.8 25.15 256.85 25.2 254.5 27.35 252.85 28.95 252.4 31.0 252.0 33.25 252.0 34.9 L252.0 49.8 Q252.0 51.45 252.15 52.25 L252.7 54.15 Q253.0 55.4 253.6 56.25 L255.15 57.7 Q257.05 59.2 260.35 59.2 263.9 59.15 265.4 57.7 L266.7 56.55 Q267.2 56.0 267.35 55.25 L267.55 53.0 267.55 49.75 260.2 49.75 260.2 37.75 282.1 37.75 282.05 53.2 Q280.7 59.3 279.95 61.15 279.15 63.15 277.05 65.75 L270.75 70.0 Q269.4 70.7 267.7 71.2 L258.4 72.05 Q254.35 72.1 250.1 70.6 246.6 69.35 242.8 65.1 L240.7 62.25 Q239.75 60.7 239.35 58.95 L238.35 55.0 Q237.7 52.55 237.75 50.35 L237.75 35.95 Q237.7 33.3 238.05 30.15 238.25 27.25 239.7 23.8 241.05 20.55 244.3 17.75 L248.05 14.9 Q250.25 13.5 252.1 13.1 L260.85 12.35 Q266.25 12.35 271.5 14.8 M299.05 12.8 L311.3 12.8 332.05 71.45 316.8 71.45 314.05 62.7 297.05 62.6 293.85 71.5 278.8 71.45 299.05 12.8 M305.8 34.7 L305.45 34.7 300.3 50.7 310.55 50.7 305.8 34.7" fill="#fb0a08" fill-rule="evenodd" stroke="none"/>
      <path d="M305.8 34.7 L310.55 50.7 300.3 50.7 305.45 34.7 305.8 34.7 M299.05 12.8 L278.8 71.45 293.85 71.5 297.05 62.6 314.05 62.7 316.8 71.45 332.05 71.45 311.3 12.8 299.05 12.8 M271.5 14.8 Q266.25 12.35 260.85 12.35 L252.1 13.1 Q250.25 13.5 248.05 14.9 L244.3 17.75 Q241.05 20.55 239.7 23.8 238.25 27.25 238.05 30.15 237.7 33.3 237.75 35.95 L237.75 50.35 Q237.7 52.55 238.35 55.0 L239.35 58.95 Q239.75 60.7 240.7 62.25 L242.8 65.1 Q246.6 69.35 250.1 70.6 254.35 72.1 258.4 72.05 L267.7 71.2 Q269.4 70.7 270.75 70.0 L277.05 65.75 Q279.15 63.15 279.95 61.15 280.7 59.3 282.05 53.2 L282.1 37.75 260.2 37.75 260.2 49.75 267.55 49.75 267.55 53.0 267.35 55.25 Q267.2 56.0 266.7 56.55 L265.4 57.7 Q263.9 59.15 260.35 59.2 257.05 59.2 255.15 57.7 L253.6 56.25 Q253.0 55.4 252.7 54.15 L252.15 52.25 Q252.0 51.45 252.0 49.8 L252.0 34.9 Q252.0 33.25 252.4 31.0 252.85 28.95 254.5 27.35 256.85 25.2 259.8 25.15 263.35 25.15 265.35 26.95 L266.7 27.95 267.85 29.4 271.3 26.35 277.8 20.45 Q276.45 18.35 275.15 17.15 273.75 15.85 271.5 14.8 Z" fill="none" stroke="#000000" stroke-linecap="round" stroke-linejoin="round" stroke-width="1.0"/>
    </g>
    <g id="shape4" transform="matrix(1.0, 0.0, 0.0, 1.0, 0.5, 0.5)">
      <path d="M110.15 13.55 Q113.55 16.05 114.85 18.75 116.0 21.2 115.8 24.85 L115.15 31.35 Q114.75 34.75 114.7 36.1 L114.45 47.2 Q114.65 50.9 117.05 55.35 L121.0 68.7 Q121.5 71.25 121.2 73.45 120.65 77.3 119.55 79.75 118.5 82.05 117.55 82.85 116.45 83.9 114.5 83.9 110.4 83.9 106.65 79.75 L103.85 76.7 Q102.05 74.7 101.3 73.4 98.95 69.25 96.15 63.3 93.7 58.0 91.65 54.7 88.8 50.1 85.6 49.65 82.6 49.25 80.65 52.55 L77.45 58.1 Q75.7 60.9 73.35 63.15 70.85 65.65 67.4 66.65 65.05 67.35 61.85 67.5 L61.05 67.5 60.65 67.5 60.25 67.5 59.45 67.5 Q56.25 67.35 53.9 66.65 50.45 65.65 47.95 63.15 45.6 60.9 43.85 58.1 L40.65 52.55 Q38.7 49.25 35.7 49.65 32.5 50.1 29.65 54.7 27.6 58.0 25.15 63.3 22.35 69.25 20.0 73.4 L17.45 76.7 14.65 79.75 Q10.9 83.9 6.8 83.9 4.85 83.9 3.75 82.85 2.8 82.05 1.75 79.75 0.65 77.3 0.1 73.45 -0.2 71.25 0.3 68.7 L4.25 55.35 Q6.65 50.9 6.85 47.2 L6.6 36.1 6.15 31.35 Q5.65 27.55 5.5 24.85 5.3 21.2 6.45 18.75 7.75 16.05 11.15 13.55 14.25 11.25 17.15 10.25 19.9 9.25 25.2 8.5 L30.6 7.2 Q32.2 6.8 34.45 5.7 36.95 4.4 37.6 4.2 45.3 1.5 49.15 0.8 L59.45 0.0 61.85 0.0 72.15 0.8 Q76.0 1.5 83.7 4.2 L86.85 5.7 Q89.1 6.8 90.7 7.2 L96.1 8.5 Q101.4 9.25 104.15 10.25 107.05 11.25 110.15 13.55" fill="#fb0a08" fill-rule="evenodd" stroke="none"/>
      <path d="M110.15 13.55 Q113.55 16.05 114.85 18.75 116.0 21.2 115.8 24.85 L115.15 31.35 Q114.75 34.75 114.7 36.1 L114.45 47.2 Q114.65 50.9 117.05 55.35 L121.0 68.7 Q121.5 71.25 121.2 73.45 120.65 77.3 119.55 79.75 118.5 82.05 117.55 82.85 116.45 83.9 114.5 83.9 110.4 83.9 106.65 79.75 L103.85 76.7 Q102.05 74.7 101.3 73.4 98.95 69.25 96.15 63.3 93.7 58.0 91.65 54.7 88.8 50.1 85.6 49.65 82.6 49.25 80.65 52.55 L77.45 58.1 Q75.7 60.9 73.35 63.15 70.85 65.65 67.4 66.65 65.05 67.35 61.85 67.5 L61.05 67.5 60.65 67.5 60.25 67.5 59.45 67.5 Q56.25 67.35 53.9 66.65 50.45 65.65 47.95 63.15 45.6 60.9 43.85 58.1 L40.65 52.55 Q38.7 49.25 35.7 49.65 32.5 50.1 29.65 54.7 27.6 58.0 25.15 63.3 22.35 69.25 20.0 73.4 L17.45 76.7 14.65 79.75 Q10.9 83.9 6.8 83.9 4.85 83.9 3.75 82.85 2.8 82.05 1.75 79.75 0.65 77.3 0.1 73.45 -0.2 71.25 0.3 68.7 L4.25 55.35 Q6.65 50.9 6.85 47.2 L6.6 36.1 6.15 31.35 Q5.65 27.55 5.5 24.85 5.3 21.2 6.45 18.75 7.75 16.05 11.15 13.55 14.25 11.25 17.15 10.25 19.9 9.25 25.2 8.5 L30.6 7.2 Q32.2 6.8 34.45 5.7 36.95 4.4 37.6 4.2 45.3 1.5 49.15 0.8 L59.45 0.0 61.85 0.0 72.15 0.8 Q76.0 1.5 83.7 4.2 L86.85 5.7 Q89.1 6.8 90.7 7.2 L96.1 8.5 Q101.4 9.25 104.15 10.25 107.05 11.25 110.15 13.55 Z" fill="none" stroke="#000000" stroke-linecap="round" stroke-linejoin="round" stroke-width="1.0"/>
      <path d="M33.35 47.25 Q35.55 48.0 37.15 49.25 L38.0 49.95 35.7 49.65 Q32.5 50.1 29.65 54.7 27.6 58.0 25.15 63.3 22.35 69.25 20.0 73.4 L17.45 76.7 14.65 79.75 Q10.9 83.9 6.8 83.9 4.85 83.9 3.75 82.85 L2.55 81.35 Q6.4 78.4 9.25 74.3 15.0 66.0 18.7 56.6 21.75 48.8 27.25 47.0 L33.35 47.25" fill="url(#gradient0)" fill-rule="evenodd" stroke="none"/>
      <path d="M83.65 49.85 Q81.9 50.4 80.65 52.55 L77.45 58.1 Q75.7 60.9 73.35 63.15 70.85 65.65 67.4 66.65 65.05 67.35 61.85 67.5 L61.05 67.5 60.65 67.5 60.25 67.5 59.45 67.5 Q56.25 67.35 53.9 66.65 51.35 65.9 49.3 64.35 L53.0 64.75 Q60.85 64.75 69.45 56.6 72.85 53.35 74.75 50.8 76.4 49.8 78.25 49.0 L83.5 49.0 84.25 49.7 83.65 49.85" fill="url(#gradient1)" fill-rule="evenodd" stroke="none"/>
      <path d="M114.5 45.05 L114.45 47.2 Q114.65 50.9 117.05 55.35 L121.0 68.7 Q121.5 71.25 121.2 73.45 120.65 77.3 119.55 79.75 118.5 82.05 117.55 82.85 116.55 83.85 114.8 83.9 L115.0 80.3 Q115.0 75.9 114.45 72.7 113.85 69.05 112.15 64.65 111.55 62.9 110.2 60.75 L109.15 59.15 108.45 57.0 Q106.5 51.4 106.25 49.25 L105.95 46.4 Q110.2 45.4 114.5 45.05" fill="url(#gradient2)" fill-rule="evenodd" stroke="none"/>
      <path d="M105.95 46.4 L105.8 44.6 105.8 44.25 106.5 31.15 Q106.5 27.6 106.0 24.8 L105.85 24.1 105.5 19.5 105.3 19.2 Q104.1 15.75 102.2 12.65 L101.5 11.0 100.05 9.15 104.15 10.25 Q106.55 11.1 109.1 12.8 L110.15 13.55 Q113.55 16.05 114.85 18.75 116.0 21.2 115.8 24.85 L115.15 31.35 Q114.75 34.75 114.7 36.1 L114.5 45.05 Q110.2 45.4 105.95 46.4" fill="url(#gradient3)" fill-rule="evenodd" stroke="none"/>
      <path d="M30.25 11.8 L32.55 11.05 Q32.85 10.8 35.15 10.0 38.25 8.95 41.05 7.7 48.65 4.25 63.1 3.95 77.55 3.65 88.05 10.45 98.5 17.2 98.5 26.95 98.5 33.95 92.85 39.45 L31.95 39.45 30.25 11.8" fill="url(#gradient4)" fill-rule="evenodd" stroke="none"/>
      <path d="M110.45 58.7 L111.7 60.1 Q118.1 67.55 119.3 72.35 120.55 77.15 118.6 79.6 116.7 82.05 113.5 81.05 110.25 80.05 106.55 75.75 103.55 72.2 100.15 65.95 L98.55 62.9 Q95.8 57.5 95.25 54.45 L106.25 54.45 110.45 58.7" fill="url(#gradient5)" fill-rule="evenodd" stroke="none"/>
      <path d="M31.95 39.45 L10.55 39.45 Q10.55 33.15 9.0 27.65 6.95 20.3 17.0 15.75 21.6 13.6 23.9 12.9 27.1 11.85 30.25 11.8 L31.95 39.45" fill="url(#gradient6)" fill-rule="evenodd" stroke="none"/>
      <path d="M18.35 55.05 Q18.95 56.75 19.35 59.0 20.75 66.45 18.75 71.25 16.75 76.05 13.15 78.5 9.6 80.95 6.55 79.65 3.5 78.4 2.75 74.1 2.05 69.85 4.05 65.05 L8.6 54.45 18.05 54.45 18.35 55.05" fill="url(#gradient7)" fill-rule="evenodd" stroke="none"/>
      <path d="M99.65 39.65 Q94.95 39.65 91.65 35.95 88.35 32.3 88.35 27.1 88.35 21.9 91.65 18.2 94.95 14.55 99.65 14.55 104.3 14.55 107.65 18.2 110.95 21.9 110.95 27.1 110.95 32.3 107.65 35.95 104.3 39.65 99.65 39.65 M61.45 25.7 Q53.25 25.7 47.45 22.6 41.7 19.55 41.7 15.2 41.7 10.85 47.45 7.75 53.25 4.7 61.45 4.7 69.65 4.7 75.4 7.75 81.2 10.85 81.2 15.2 81.2 19.55 75.4 22.6 69.65 25.7 61.45 25.7 M32.3 27.6 Q32.3 32.8 29.0 36.45 25.65 40.15 21.0 40.15 16.3 40.15 13.0 36.45 9.7 32.8 9.7 27.6 9.7 22.4 13.0 18.7 16.3 15.05 21.0 15.05 25.65 15.05 29.0 18.7 32.3 22.4 32.3 27.6" fill="#c90303" fill-rule="evenodd" stroke="none"/>
      <path d="M59.95 30.7 Q66.25 30.7 70.7 35.15 75.2 39.65 75.2 45.95 75.2 52.25 70.7 56.7 66.25 61.2 59.95 61.2 53.65 61.2 49.15 56.7 44.7 52.25 44.7 45.95 44.7 39.65 49.15 35.15 53.65 30.7 59.95 30.7" fill="url(#gradient8)" fill-rule="evenodd" stroke="none"/>
      <path d="M53.8 38.3 Q56.45 35.7 60.2 35.7 63.95 35.7 66.55 38.3 69.2 40.95 69.2 44.7 69.2 48.45 66.55 51.05 63.95 53.7 60.2 53.7 56.45 53.7 53.8 51.05 51.2 48.45 51.2 44.7 51.2 40.95 53.8 38.3" fill="url(#gradient9)" fill-rule="evenodd" stroke="none"/>
      <path d="M53.8 38.3 Q56.45 35.7 60.2 35.7 63.95 35.7 66.55 38.3 69.2 40.95 69.2 44.7 69.2 48.45 66.55 51.05 63.95 53.7 60.2 53.7 56.45 53.7 53.8 51.05 51.2 48.45 51.2 44.7 51.2 40.95 53.8 38.3 Z" fill="none" stroke="#000000" stroke-linecap="round" stroke-linejoin="round" stroke-width="1.0"/>
      <path d="M66.85 16.45 Q68.15 16.45 69.0 17.3 69.95 18.2 69.95 19.45 69.95 20.7 69.0 21.55 68.15 22.45 66.85 22.45 L54.75 22.45 Q53.5 22.45 52.6 21.55 51.7 20.7 51.7 19.45 51.7 18.2 52.6 17.3 53.5 16.45 54.75 16.45 L66.85 16.45" fill="url(#gradient10)" fill-rule="evenodd" stroke="none"/>
      <path d="M66.85 8.2 Q68.15 8.2 69.0 9.05 69.95 9.95 69.95 11.2 69.95 12.45 69.0 13.3 68.15 14.2 66.85 14.2 L54.8 14.2 Q53.55 14.2 52.6 13.3 51.7 12.45 51.7 11.2 51.7 9.95 52.6 9.05 53.55 8.2 54.8 8.2 L66.85 8.2" fill="url(#gradient11)" fill-rule="evenodd" stroke="none"/>
      <path d="M66.85 16.45 L54.75 16.45 Q53.5 16.45 52.6 17.3 51.7 18.2 51.7 19.45 51.7 20.7 52.6 21.55 53.5 22.45 54.75 22.45 L66.85 22.45 Q68.15 22.45 69.0 21.55 69.95 20.7 69.95 19.45 69.95 18.2 69.0 17.3 68.15 16.45 66.85 16.45 M66.85 8.2 L54.8 8.2 Q53.55 8.2 52.6 9.05 51.7 9.95 51.7 11.2 51.7 12.45 52.6 13.3 53.55 14.2 54.8 14.2 L66.85 14.2 Q68.15 14.2 69.0 13.3 69.95 12.45 69.95 11.2 69.95 9.95 69.0 9.05 68.15 8.2 66.85 8.2 Z" fill="none" stroke="#000000" stroke-linecap="round" stroke-linejoin="round" stroke-width="1.0"/>
      <path d="M68.7 11.4 L68.7 11.45 Q68.7 12.15 68.05 12.6 67.45 13.2 66.6 13.2 L55.05 13.2 Q54.2 13.2 53.55 12.6 52.95 12.15 52.95 11.45 L52.95 11.4 Q52.95 10.7 53.55 10.15 54.2 9.7 55.05 9.7 L66.6 9.7 Q67.45 9.7 68.05 10.15 68.7 10.7 68.7 11.4" fill="url(#gradient12)" fill-rule="evenodd" stroke="none"/>
      <path d="M68.0 18.45 Q68.65 19.15 68.65 20.0 L68.65 20.05 Q68.65 20.9 68.0 21.5 67.4 22.2 66.55 22.2 L55.0 22.2 Q54.15 22.2 53.5 21.5 52.9 20.9 52.9 20.05 L52.9 20.0 Q52.9 19.15 53.5 18.45 54.15 17.9 55.0 17.9 L66.55 17.9 Q67.4 17.9 68.0 18.45" fill="url(#gradient13)" fill-rule="evenodd" stroke="none"/>
      <path d="M103.1 19.75 Q103.1 21.1 102.1 22.05 101.15 23.05 99.8 23.05 98.45 23.05 97.45 22.05 96.5 21.1 96.5 19.75 96.5 18.4 97.45 17.4 98.45 16.45 99.8 16.45 101.15 16.45 102.1 17.4 103.1 18.4 103.1 19.75" fill="url(#gradient14)" fill-rule="evenodd" stroke="none"/>
      <path d="M107.6 24.65 Q108.6 25.65 108.6 27.0 108.6 28.35 107.6 29.3 106.65 30.3 105.3 30.3 103.95 30.3 102.95 29.3 102.0 28.35 102.0 27.0 102.0 25.65 102.95 24.65 103.95 23.7 105.3 23.7 106.65 23.7 107.6 24.65" fill="url(#gradient15)" fill-rule="evenodd" stroke="none"/>
      <path d="M94.55 23.7 Q95.9 23.7 96.85 24.65 97.85 25.65 97.85 27.0 97.85 28.35 96.85 29.3 95.9 30.3 94.55 30.3 93.2 30.3 92.2 29.3 91.25 28.35 91.25 27.0 91.25 25.65 92.2 24.65 93.2 23.7 94.55 23.7" fill="url(#gradient16)" fill-rule="evenodd" stroke="none"/>
      <path d="M97.45 36.8 Q96.5 35.85 96.5 34.5 96.5 33.15 97.45 32.15 98.45 31.2 99.8 31.2 101.15 31.2 102.1 32.15 103.1 33.15 103.1 34.5 103.1 35.85 102.1 36.8 101.15 37.8 99.8 37.8 98.45 37.8 97.45 36.8" fill="url(#gradient17)" fill-rule="evenodd" stroke="none"/>
      <path d="M24.45 20.0 Q24.45 21.35 23.45 22.3 22.5 23.3 21.15 23.3 19.8 23.3 18.8 22.3 17.85 21.35 17.85 20.0 17.85 18.65 18.8 17.65 19.8 16.7 21.15 16.7 22.5 16.7 23.45 17.65 24.45 18.65 24.45 20.0" fill="url(#gradient18)" fill-rule="evenodd" stroke="none"/>
      <path d="M18.8 32.4 Q19.8 31.45 21.15 31.45 22.5 31.45 23.45 32.4 24.45 33.4 24.45 34.75 24.45 36.1 23.45 37.05 22.5 38.05 21.15 38.05 19.8 38.05 18.8 37.05 17.85 36.1 17.85 34.75 17.85 33.4 18.8 32.4" fill="url(#gradient19)" fill-rule="evenodd" stroke="none"/>
      <path d="M13.55 24.9 Q14.55 23.95 15.9 23.95 17.25 23.95 18.2 24.9 19.2 25.9 19.2 27.25 19.2 28.6 18.2 29.55 17.25 30.55 15.9 30.55 14.55 30.55 13.55 29.55 12.6 28.6 12.6 27.25 12.6 25.9 13.55 24.9" fill="url(#gradient20)" fill-rule="evenodd" stroke="none"/>
      <path d="M26.65 30.55 Q25.3 30.55 24.3 29.55 23.35 28.6 23.35 27.25 23.35 25.9 24.3 24.9 25.3 23.95 26.65 23.95 28.0 23.95 28.95 24.9 29.95 25.9 29.95 27.25 29.95 28.6 28.95 29.55 28.0 30.55 26.65 30.55" fill="url(#gradient21)" fill-rule="evenodd" stroke="none"/>
      <path d="M107.6 24.65 Q108.6 25.65 108.6 27.0 108.6 28.35 107.6 29.3 106.65 30.3 105.3 30.3 103.95 30.3 102.95 29.3 102.0 28.35 102.0 27.0 102.0 25.65 102.95 24.65 103.95 23.7 105.3 23.7 106.65 23.7 107.6 24.65 M103.1 19.75 Q103.1 21.1 102.1 22.05 101.15 23.05 99.8 23.05 98.45 23.05 97.45 22.05 96.5 21.1 96.5 19.75 96.5 18.4 97.45 17.4 98.45 16.45 99.8 16.45 101.15 16.45 102.1 17.4 103.1 18.4 103.1 19.75 M94.55 23.7 Q95.9 23.7 96.85 24.65 97.85 25.65 97.85 27.0 97.85 28.35 96.85 29.3 95.9 30.3 94.55 30.3 93.2 30.3 92.2 29.3 91.25 28.35 91.25 27.0 91.25 25.65 92.2 24.65 93.2 23.7 94.55 23.7 M97.45 36.8 Q96.5 35.85 96.5 34.5 96.5 33.15 97.45 32.15 98.45 31.2 99.8 31.2 101.15 31.2 102.1 32.15 103.1 33.15 103.1 34.5 103.1 35.85 102.1 36.8 101.15 37.8 99.8 37.8 98.45 37.8 97.45 36.8 M24.45 20.0 Q24.45 21.35 23.45 22.3 22.5 23.3 21.15 23.3 19.8 23.3 18.8 22.3 17.85 21.35 17.85 20.0 17.85 18.65 18.8 17.65 19.8 16.7 21.15 16.7 22.5 16.7 23.45 17.65 24.45 18.65 24.45 20.0 M18.8 32.4 Q19.8 31.45 21.15 31.45 22.5 31.45 23.45 32.4 24.45 33.4 24.45 34.75 24.45 36.1 23.45 37.05 22.5 38.05 21.15 38.05 19.8 38.05 18.8 37.05 17.85 36.1 17.85 34.75 17.85 33.4 18.8 32.4 M13.55 24.9 Q14.55 23.95 15.9 23.95 17.25 23.95 18.2 24.9 19.2 25.9 19.2 27.25 19.2 28.6 18.2 29.55 17.25 30.55 15.9 30.55 14.55 30.55 13.55 29.55 12.6 28.6 12.6 27.25 12.6 25.9 13.55 24.9 M26.65 30.55 Q25.3 30.55 24.3 29.55 23.35 28.6 23.35 27.25 23.35 25.9 24.3 24.9 25.3 23.95 26.65 23.95 28.0 23.95 28.95 24.9 29.95 25.9 29.95 27.25 29.95 28.6 28.95 29.55 28.0 30.55 26.65 30.55 Z" fill="none" stroke="#000000" stroke-linecap="round" stroke-linejoin="round" stroke-width="1.0"/>
    </g>
    <radialGradient cx="0" cy="0" gradientTransform="matrix(0.1232, 0.0, 0.0, 0.1232, -53.5, 7.25)" gradientUnits="userSpaceOnUse" id="gradient0" r="819.2" spreadMethod="pad">
      <stop offset="0.8549019607843137" stop-color="#000000" stop-opacity="0.0"/>
      <stop offset="0.9647058823529412" stop-color="#000000" stop-opacity="0.29803923"/>
    </radialGradient>
    <radialGradient cx="0" cy="0" gradientTransform="matrix(0.0803, 0.0, 0.0, 0.0803, 36.75, 9.5)" gradientUnits="userSpaceOnUse" id="gradient1" r="819.2" spreadMethod="pad">
      <stop offset="0.8549019607843137" stop-color="#000000" stop-opacity="0.0"/>
      <stop offset="0.9647058823529412" stop-color="#000000" stop-opacity="0.29803923"/>
    </radialGradient>
    <radialGradient cx="0" cy="0" gradientTransform="matrix(0.0892, 0.0, 0.0, 0.0892, 49.0, 76.5)" gradientUnits="userSpaceOnUse" id="gradient2" r="819.2" spreadMethod="pad">
      <stop offset="0.8549019607843137" stop-color="#000000" stop-opacity="0.0"/>
      <stop offset="0.9647058823529412" stop-color="#000000" stop-opacity="0.29803923"/>
    </radialGradient>
    <radialGradient cx="0" cy="0" gradientTransform="matrix(0.1025, 0.0, 0.0, 0.1025, 32.75, 33.25)" gradientUnits="userSpaceOnUse" id="gradient3" r="819.2" spreadMethod="pad">
      <stop offset="0.8549019607843137" stop-color="#000000" stop-opacity="0.0"/>
      <stop offset="0.9647058823529412" stop-color="#000000" stop-opacity="0.29803923"/>
    </radialGradient>
    <radialGradient cx="0" cy="0" gradientTransform="matrix(0.1137, 0.0, 0.0, 0.1137, 66.0, 95.75)" gradientUnits="userSpaceOnUse" id="gradient4" r="819.2" spreadMethod="pad">
      <stop offset="0.8549019607843137" stop-color="#ffffff" stop-opacity="0.0"/>
      <stop offset="1.0" stop-color="#ffffff" stop-opacity="0.4"/>
    </radialGradient>
    <linearGradient gradientTransform="matrix(0.0097, -0.0031, 0.016, 0.017, 106.85, 65.9)" gradientUnits="userSpaceOnUse" id="gradient5" spreadMethod="pad" x1="-819.2" x2="819.2">
      <stop offset="0.0" stop-color="#ffffff" stop-opacity="0.49803922"/>
      <stop offset="0.44313725490196076" stop-color="#ffffff" stop-opacity="0.0"/>
    </linearGradient>
    <radialGradient cx="0" cy="0" gradientTransform="matrix(0.0752, 0.0, 0.0, 0.0752, 42.5, 71.75)" gradientUnits="userSpaceOnUse" id="gradient6" r="819.2" spreadMethod="pad">
      <stop offset="0.8352941176470589" stop-color="#ffffff" stop-opacity="0.0"/>
      <stop offset="1.0" stop-color="#ffffff" stop-opacity="0.4"/>
    </radialGradient>
    <linearGradient gradientTransform="matrix(0.0106, 0.0, 0.0, 0.0157, 11.25, 67.25)" gradientUnits="userSpaceOnUse" id="gradient7" spreadMethod="pad" x1="-819.2" x2="819.2">
      <stop offset="0.0" stop-color="#ffffff" stop-opacity="0.49803922"/>
      <stop offset="0.44313725490196076" stop-color="#ffffff" stop-opacity="0.0"/>
    </linearGradient>
    <radialGradient cx="0" cy="0" gradientTransform="matrix(0.0187, 0.0, 0.0, 0.0187, 59.95, 45.95)" gradientUnits="userSpaceOnUse" id="gradient8" r="819.2" spreadMethod="pad">
      <stop offset="0.5568627450980392" stop-color="#f13838"/>
      <stop offset="1.0" stop-color="#5c0101"/>
    </radialGradient>
    <radialGradient cx="0" cy="0" gradientTransform="matrix(0.0137, 0.0, 0.0, 0.0137, 60.0, 42.5)" gradientUnits="userSpaceOnUse" id="gradient9" r="819.2" spreadMethod="pad">
      <stop offset="0.1411764705882353" stop-color="#fde1d7"/>
      <stop offset="0.7098039215686275" stop-color="#cc0000"/>
      <stop offset="0.9176470588235294" stop-color="#430101"/>
    </radialGradient>
    <linearGradient gradientTransform="matrix(0.0, 0.0037, -0.0111, 0.0, 60.85, 19.45)" gradientUnits="userSpaceOnUse" id="gradient10" spreadMethod="pad" x1="-819.2" x2="819.2">
      <stop offset="0.4392156862745098" stop-color="#10bd0f"/>
      <stop offset="1.0" stop-color="#000000"/>
    </linearGradient>
    <linearGradient gradientTransform="matrix(0.0, 0.0037, -0.0111, 0.0, 60.85, 11.2)" gradientUnits="userSpaceOnUse" id="gradient11" spreadMethod="pad" x1="-819.2" x2="819.2">
      <stop offset="0.4392156862745098" stop-color="#10bd0f"/>
      <stop offset="1.0" stop-color="#000000"/>
    </linearGradient>
    <linearGradient gradientTransform="matrix(0.0, 0.0021, -0.0096, 0.0, 60.85, 11.4)" gradientUnits="userSpaceOnUse" id="gradient12" spreadMethod="pad" x1="-819.2" x2="819.2">
      <stop offset="0.0" stop-color="#f2ffee"/>
      <stop offset="1.0" stop-color="#ffffff" stop-opacity="0.0"/>
    </linearGradient>
    <linearGradient gradientTransform="matrix(0.0, 0.0026, -0.0096, 0.0, 60.8, 20.0)" gradientUnits="userSpaceOnUse" id="gradient13" spreadMethod="pad" x1="-819.2" x2="819.2">
      <stop offset="0.0" stop-color="#f2ffee"/>
      <stop offset="1.0" stop-color="#ffffff" stop-opacity="0.0"/>
    </linearGradient>
    <radialGradient cx="0" cy="0" gradientTransform="matrix(0.0052, 0.0, 0.0, 0.0052, 100.05, 18.75)" gradientUnits="userSpaceOnUse" id="gradient14" r="819.2" spreadMethod="pad">
      <stop offset="0.16470588235294117" stop-color="#ffffff"/>
      <stop offset="0.19607843137254902" stop-color="#c4c4c4"/>
      <stop offset="1.0" stop-color="#111111"/>
    </radialGradient>
    <radialGradient cx="0" cy="0" gradientTransform="matrix(0.0052, 0.0, 0.0, 0.0052, 105.55, 26.0)" gradientUnits="userSpaceOnUse" id="gradient15" r="819.2" spreadMethod="pad">
      <stop offset="0.16470588235294117" stop-color="#ffffff"/>
      <stop offset="0.19607843137254902" stop-color="#c4c4c4"/>
      <stop offset="1.0" stop-color="#111111"/>
    </radialGradient>
    <radialGradient cx="0" cy="0" gradientTransform="matrix(0.0052, 0.0, 0.0, 0.0052, 94.8, 26.0)" gradientUnits="userSpaceOnUse" id="gradient16" r="819.2" spreadMethod="pad">
      <stop offset="0.16470588235294117" stop-color="#ffffff"/>
      <stop offset="0.19607843137254902" stop-color="#c4c4c4"/>
      <stop offset="1.0" stop-color="#111111"/>
    </radialGradient>
    <radialGradient cx="0" cy="0" gradientTransform="matrix(0.0052, 0.0, 0.0, 0.0052, 100.05, 33.5)" gradientUnits="userSpaceOnUse" id="gradient17" r="819.2" spreadMethod="pad">
      <stop offset="0.16470588235294117" stop-color="#ffffff"/>
      <stop offset="0.19607843137254902" stop-color="#c4c4c4"/>
      <stop offset="1.0" stop-color="#111111"/>
    </radialGradient>
    <radialGradient cx="0" cy="0" gradientTransform="matrix(0.0052, 0.0, 0.0, 0.0052, 21.4, 19.0)" gradientUnits="userSpaceOnUse" id="gradient18" r="819.2" spreadMethod="pad">
      <stop offset="0.16470588235294117" stop-color="#ffffff"/>
      <stop offset="0.19607843137254902" stop-color="#c4c4c4"/>
      <stop offset="1.0" stop-color="#111111"/>
    </radialGradient>
    <radialGradient cx="0" cy="0" gradientTransform="matrix(0.0052, 0.0, 0.0, 0.0052, 21.4, 33.75)" gradientUnits="userSpaceOnUse" id="gradient19" r="819.2" spreadMethod="pad">
      <stop offset="0.16470588235294117" stop-color="#ffffff"/>
      <stop offset="0.19607843137254902" stop-color="#c4c4c4"/>
      <stop offset="1.0" stop-color="#111111"/>
    </radialGradient>
    <radialGradient cx="0" cy="0" gradientTransform="matrix(0.0052, 0.0, 0.0, 0.0052, 16.15, 26.25)" gradientUnits="userSpaceOnUse" id="gradient20" r="819.2" spreadMethod="pad">
      <stop offset="0.16470588235294117" stop-color="#ffffff"/>
      <stop offset="0.19607843137254902" stop-color="#c4c4c4"/>
      <stop offset="1.0" stop-color="#111111"/>
    </radialGradient>
    <radialGradient cx="0" cy="0" gradientTransform="matrix(0.0052, 0.0, 0.0, 0.0052, 26.9, 26.25)" gradientUnits="userSpaceOnUse" id="gradient21" r="819.2" spreadMethod="pad">
      <stop offset="0.16470588235294117" stop-color="#ffffff"/>
      <stop offset="0.19607843137254902" stop-color="#c4c4c4"/>
      <stop offset="1.0" stop-color="#111111"/>
    </radialGradient>
    <g id="shape5" transform="matrix(1.0, 0.0, 0.0, 1.0, 0.5, 0.5)">
      <path d="M110.15 13.55 Q113.55 16.05 114.85 18.75 116.0 21.2 115.8 24.85 L115.15 31.35 Q114.75 34.75 114.7 36.1 L114.45 47.2 Q114.65 50.9 117.05 55.35 L121.0 68.7 Q121.5 71.25 121.2 73.45 120.65 77.3 119.55 79.75 118.5 82.05 117.55 82.85 116.45 83.9 114.5 83.9 110.4 83.9 106.65 79.75 L103.85 76.7 Q102.05 74.7 101.3 73.4 98.95 69.25 96.15 63.3 93.7 58.0 91.65 54.7 88.8 50.1 85.6 49.65 82.6 49.25 80.65 52.55 L77.45 58.1 Q75.7 60.9 73.35 63.15 70.85 65.65 67.4 66.65 65.05 67.35 61.85 67.5 L61.05 67.5 60.65 67.5 60.25 67.5 59.45 67.5 Q56.25 67.35 53.9 66.65 50.45 65.65 47.95 63.15 45.6 60.9 43.85 58.1 L40.65 52.55 Q38.7 49.25 35.7 49.65 32.5 50.1 29.65 54.7 27.6 58.0 25.15 63.3 22.35 69.25 20.0 73.4 L17.45 76.7 14.65 79.75 Q10.9 83.9 6.8 83.9 4.85 83.9 3.75 82.85 2.8 82.05 1.75 79.75 0.65 77.3 0.1 73.45 -0.2 71.25 0.3 68.7 L4.25 55.35 Q6.65 50.9 6.85 47.2 L6.6 36.1 6.15 31.35 Q5.65 27.55 5.5 24.85 5.3 21.2 6.45 18.75 7.75 16.05 11.15 13.55 14.25 11.25 17.15 10.25 19.9 9.25 25.2 8.5 L30.6 7.2 Q32.2 6.8 34.45 5.7 36.95 4.4 37.6 4.2 45.3 1.5 49.15 0.8 L59.45 0.0 61.85 0.0 72.15 0.8 Q76.0 1.5 83.7 4.2 L86.85 5.7 Q89.1 6.8 90.7 7.2 L96.1 8.5 Q101.4 9.25 104.15 10.25 107.05 11.25 110.15 13.55" fill="#111111" fill-rule="evenodd" stroke="none"/>
      <path d="M110.15 13.55 Q113.55 16.05 114.85 18.75 116.0 21.2 115.8 24.85 L115.15 31.35 Q114.75 34.75 114.7 36.1 L114.45 47.2 Q114.65 50.9 117.05 55.35 L121.0 68.7 Q121.5 71.25 121.2 73.45 120.65 77.3 119.55 79.75 118.5 82.05 117.55 82.85 116.45 83.9 114.5 83.9 110.4 83.9 106.65 79.75 L103.85 76.7 Q102.05 74.7 101.3 73.4 98.95 69.25 96.15 63.3 93.7 58.0 91.65 54.7 88.8 50.1 85.6 49.65 82.6 49.25 80.65 52.55 L77.45 58.1 Q75.7 60.9 73.35 63.15 70.85 65.65 67.4 66.65 65.05 67.35 61.85 67.5 L61.05 67.5 60.65 67.5 60.25 67.5 59.45 67.5 Q56.25 67.35 53.9 66.65 50.45 65.65 47.95 63.15 45.6 60.9 43.85 58.1 L40.65 52.55 Q38.7 49.25 35.7 49.65 32.5 50.1 29.65 54.7 27.6 58.0 25.15 63.3 22.35 69.25 20.0 73.4 L17.45 76.7 14.65 79.75 Q10.9 83.9 6.8 83.9 4.85 83.9 3.75 82.85 2.8 82.05 1.75 79.75 0.65 77.3 0.1 73.45 -0.2 71.25 0.3 68.7 L4.25 55.35 Q6.65 50.9 6.85 47.2 L6.6 36.1 6.15 31.35 Q5.65 27.55 5.5 24.85 5.3 21.2 6.45 18.75 7.75 16.05 11.15 13.55 14.25 11.25 17.15 10.25 19.9 9.25 25.2 8.5 L30.6 7.2 Q32.2 6.8 34.45 5.7 36.95 4.4 37.6 4.2 45.3 1.5 49.15 0.8 L59.45 0.0 61.85 0.0 72.15 0.8 Q76.0 1.5 83.7 4.2 L86.85 5.7 Q89.1 6.8 90.7 7.2 L96.1 8.5 Q101.4 9.25 104.15 10.25 107.05 11.25 110.15 13.55 Z" fill="none" stroke="#000000" stroke-linecap="round" stroke-linejoin="round" stroke-width="1.0"/>
      <path d="M33.35 47.25 Q35.55 48.0 37.15 49.25 L38.0 49.95 35.7 49.65 Q32.5 50.1 29.65 54.7 27.6 58.0 25.15 63.3 22.35 69.25 20.0 73.4 L17.45 76.7 14.65 79.75 Q10.9 83.9 6.8 83.9 4.85 83.9 3.75 82.85 L2.55 81.35 Q6.4 78.4 9.25 74.3 15.0 66.0 18.7 56.6 21.75 48.8 27.25 47.0 L33.35 47.25" fill="url(#gradient22)" fill-rule="evenodd" stroke="none"/>
      <path d="M83.65 49.85 Q81.9 50.4 80.65 52.55 L77.45 58.1 Q75.7 60.9 73.35 63.15 70.85 65.65 67.4 66.65 65.05 67.35 61.85 67.5 L61.05 67.5 60.65 67.5 60.25 67.5 59.45 67.5 Q56.25 67.35 53.9 66.65 51.35 65.9 49.3 64.35 L53.0 64.75 Q60.85 64.75 69.45 56.6 72.85 53.35 74.75 50.8 76.4 49.8 78.25 49.0 L83.5 49.0 84.25 49.7 83.65 49.85" fill="url(#gradient23)" fill-rule="evenodd" stroke="none"/>
      <path d="M114.5 45.05 L114.45 47.2 Q114.65 50.9 117.05 55.35 L121.0 68.7 Q121.5 71.25 121.2 73.45 120.65 77.3 119.55 79.75 118.5 82.05 117.55 82.85 116.55 83.85 114.8 83.9 L115.0 80.3 Q115.0 75.9 114.45 72.7 113.85 69.05 112.15 64.65 111.55 62.9 110.2 60.75 L109.15 59.15 108.45 57.0 Q106.5 51.4 106.25 49.25 L105.95 46.4 Q110.2 45.4 114.5 45.05" fill="url(#gradient24)" fill-rule="evenodd" stroke="none"/>
      <path d="M105.95 46.4 L105.8 44.6 105.8 44.25 106.5 31.15 Q106.5 27.6 106.0 24.8 L105.85 24.1 105.5 19.5 105.3 19.2 Q104.1 15.75 102.2 12.65 L101.5 11.0 100.05 9.15 104.15 10.25 Q106.55 11.1 109.1 12.8 L110.15 13.55 Q113.55 16.05 114.85 18.75 116.0 21.2 115.8 24.85 L115.15 31.35 Q114.75 34.75 114.7 36.1 L114.5 45.05 Q110.2 45.4 105.95 46.4" fill="url(#gradient25)" fill-rule="evenodd" stroke="none"/>
      <path d="M30.25 11.8 L32.55 11.05 Q32.85 10.8 35.15 10.0 38.25 8.95 41.05 7.7 48.65 4.25 63.1 3.95 77.55 3.65 88.05 10.45 98.5 17.2 98.5 26.95 98.5 33.95 92.85 39.45 L31.95 39.45 30.25 11.8" fill="url(#gradient26)" fill-rule="evenodd" stroke="none"/>
      <path d="M110.45 58.7 L111.7 60.1 Q118.1 67.55 119.3 72.35 120.55 77.15 118.6 79.6 116.7 82.05 113.5 81.05 110.25 80.05 106.55 75.75 103.55 72.2 100.15 65.95 L98.55 62.9 Q95.8 57.5 95.25 54.45 L106.25 54.45 110.45 58.7" fill="url(#gradient27)" fill-rule="evenodd" stroke="none"/>
      <path d="M31.95 39.45 L10.55 39.45 Q10.55 33.15 9.0 27.65 6.95 20.3 17.0 15.75 21.6 13.6 23.9 12.9 27.1 11.85 30.25 11.8 L31.95 39.45" fill="url(#gradient28)" fill-rule="evenodd" stroke="none"/>
      <path d="M18.75 71.25 Q16.75 76.05 13.15 78.5 9.6 80.95 6.55 79.65 3.5 78.4 2.75 74.1 2.05 69.85 4.05 65.05 L8.6 54.45 18.05 54.45 18.35 55.05 Q18.95 56.75 19.35 59.0 20.75 66.45 18.75 71.25" fill="url(#gradient29)" fill-rule="evenodd" stroke="none"/>
      <path d="M99.65 39.65 Q94.95 39.65 91.65 35.95 88.35 32.3 88.35 27.1 88.35 21.9 91.65 18.2 94.95 14.55 99.65 14.55 104.3 14.55 107.65 18.2 110.95 21.9 110.95 27.1 110.95 32.3 107.65 35.95 104.3 39.65 99.65 39.65 M61.45 25.7 Q53.25 25.7 47.45 22.6 41.7 19.55 41.7 15.2 41.7 10.85 47.45 7.75 53.25 4.7 61.45 4.7 69.65 4.7 75.4 7.75 81.2 10.85 81.2 15.2 81.2 19.55 75.4 22.6 69.65 25.7 61.45 25.7 M32.3 27.6 Q32.3 32.8 29.0 36.45 25.65 40.15 21.0 40.15 16.3 40.15 13.0 36.45 9.7 32.8 9.7 27.6 9.7 22.4 13.0 18.7 16.3 15.05 21.0 15.05 25.65 15.05 29.0 18.7 32.3 22.4 32.3 27.6" fill="#000000" fill-rule="evenodd" stroke="none"/>
      <path d="M59.95 30.7 Q66.25 30.7 70.7 35.15 75.2 39.65 75.2 45.95 75.2 52.25 70.7 56.7 66.25 61.2 59.95 61.2 53.65 61.2 49.15 56.7 44.7 52.25 44.7 45.95 44.7 39.65 49.15 35.15 53.65 30.7 59.95 30.7" fill="url(#gradient30)" fill-rule="evenodd" stroke="none"/>
      <path d="M60.2 35.7 Q63.95 35.7 66.55 38.3 69.2 40.95 69.2 44.7 69.2 48.45 66.55 51.05 63.95 53.7 60.2 53.7 56.45 53.7 53.8 51.05 51.2 48.45 51.2 44.7 51.2 40.95 53.8 38.3 56.45 35.7 60.2 35.7" fill="url(#gradient31)" fill-rule="evenodd" stroke="none"/>
      <path d="M60.2 35.7 Q63.95 35.7 66.55 38.3 69.2 40.95 69.2 44.7 69.2 48.45 66.55 51.05 63.95 53.7 60.2 53.7 56.45 53.7 53.8 51.05 51.2 48.45 51.2 44.7 51.2 40.95 53.8 38.3 56.45 35.7 60.2 35.7 Z" fill="none" stroke="#000000" stroke-linecap="round" stroke-linejoin="round" stroke-width="1.0"/>
      <path d="M66.85 16.45 Q68.15 16.45 69.0 17.3 69.95 18.2 69.95 19.45 69.95 20.7 69.0 21.55 68.15 22.45 66.85 22.45 L54.75 22.45 Q53.5 22.45 52.6 21.55 51.7 20.7 51.7 19.45 51.7 18.2 52.6 17.3 53.5 16.45 54.75 16.45 L66.85 16.45" fill="url(#gradient32)" fill-rule="evenodd" stroke="none"/>
      <path d="M66.85 8.2 Q68.15 8.2 69.0 9.05 69.95 9.95 69.95 11.2 69.95 12.45 69.0 13.3 68.15 14.2 66.85 14.2 L54.8 14.2 Q53.55 14.2 52.6 13.3 51.7 12.45 51.7 11.2 51.7 9.95 52.6 9.05 53.55 8.2 54.8 8.2 L66.85 8.2" fill="url(#gradient33)" fill-rule="evenodd" stroke="none"/>
      <path d="M66.85 16.45 L54.75 16.45 Q53.5 16.45 52.6 17.3 51.7 18.2 51.7 19.45 51.7 20.7 52.6 21.55 53.5 22.45 54.75 22.45 L66.85 22.45 Q68.15 22.45 69.0 21.55 69.95 20.7 69.95 19.45 69.95 18.2 69.0 17.3 68.15 16.45 66.85 16.45 M66.85 8.2 L54.8 8.2 Q53.55 8.2 52.6 9.05 51.7 9.95 51.7 11.2 51.7 12.45 52.6 13.3 53.55 14.2 54.8 14.2 L66.85 14.2 Q68.15 14.2 69.0 13.3 69.95 12.45 69.95 11.2 69.95 9.95 69.0 9.05 68.15 8.2 66.85 8.2 Z" fill="none" stroke="#000000" stroke-linecap="round" stroke-linejoin="round" stroke-width="1.0"/>
      <path d="M68.7 11.4 L68.7 11.45 Q68.7 12.15 68.05 12.6 67.45 13.2 66.6 13.2 L55.05 13.2 Q54.2 13.2 53.55 12.6 52.95 12.15 52.95 11.45 L52.95 11.4 Q52.95 10.7 53.55 10.15 54.2 9.7 55.05 9.7 L66.6 9.7 Q67.45 9.7 68.05 10.15 68.7 10.7 68.7 11.4" fill="url(#gradient34)" fill-rule="evenodd" stroke="none"/>
      <path d="M68.0 18.45 Q68.65 19.15 68.65 20.0 L68.65 20.05 Q68.65 20.9 68.0 21.5 67.4 22.2 66.55 22.2 L55.0 22.2 Q54.15 22.2 53.5 21.5 52.9 20.9 52.9 20.05 L52.9 20.0 Q52.9 19.15 53.5 18.45 54.15 17.9 55.0 17.9 L66.55 17.9 Q67.4 17.9 68.0 18.45" fill="url(#gradient35)" fill-rule="evenodd" stroke="none"/>
      <path d="M102.1 22.05 Q101.15 23.05 99.8 23.05 98.45 23.05 97.45 22.05 96.5 21.1 96.5 19.75 96.5 18.4 97.45 17.4 98.45 16.45 99.8 16.45 101.15 16.45 102.1 17.4 103.1 18.4 103.1 19.75 103.1 21.1 102.1 22.05" fill="url(#gradient36)" fill-rule="evenodd" stroke="none"/>
      <path d="M105.3 23.7 Q106.65 23.7 107.6 24.65 108.6 25.65 108.6 27.0 108.6 28.35 107.6 29.3 106.65 30.3 105.3 30.3 103.95 30.3 102.95 29.3 102.0 28.35 102.0 27.0 102.0 25.65 102.95 24.65 103.95 23.7 105.3 23.7" fill="url(#gradient37)" fill-rule="evenodd" stroke="none"/>
      <path d="M94.55 23.7 Q95.9 23.7 96.85 24.65 97.85 25.65 97.85 27.0 97.85 28.35 96.85 29.3 95.9 30.3 94.55 30.3 93.2 30.3 92.2 29.3 91.25 28.35 91.25 27.0 91.25 25.65 92.2 24.65 93.2 23.7 94.55 23.7" fill="url(#gradient38)" fill-rule="evenodd" stroke="none"/>
      <path d="M97.45 36.8 Q96.5 35.85 96.5 34.5 96.5 33.15 97.45 32.15 98.45 31.2 99.8 31.2 101.15 31.2 102.1 32.15 103.1 33.15 103.1 34.5 103.1 35.85 102.1 36.8 101.15 37.8 99.8 37.8 98.45 37.8 97.45 36.8" fill="url(#gradient39)" fill-rule="evenodd" stroke="none"/>
      <path d="M21.15 23.3 Q19.8 23.3 18.8 22.3 17.85 21.35 17.85 20.0 17.85 18.65 18.8 17.65 19.8 16.7 21.15 16.7 22.5 16.7 23.45 17.65 24.45 18.65 24.45 20.0 24.45 21.35 23.45 22.3 22.5 23.3 21.15 23.3" fill="url(#gradient40)" fill-rule="evenodd" stroke="none"/>
      <path d="M13.55 24.9 Q14.55 23.95 15.9 23.95 17.25 23.95 18.2 24.9 19.2 25.9 19.2 27.25 19.2 28.6 18.2 29.55 17.25 30.55 15.9 30.55 14.55 30.55 13.55 29.55 12.6 28.6 12.6 27.25 12.6 25.9 13.55 24.9" fill="url(#gradient41)" fill-rule="evenodd" stroke="none"/>
      <path d="M18.8 32.4 Q19.8 31.45 21.15 31.45 22.5 31.45 23.45 32.4 24.45 33.4 24.45 34.75 24.45 36.1 23.45 37.05 22.5 38.05 21.15 38.05 19.8 38.05 18.8 37.05 17.85 36.1 17.85 34.75 17.85 33.4 18.8 32.4" fill="url(#gradient42)" fill-rule="evenodd" stroke="none"/>
      <path d="M29.95 27.25 Q29.95 28.6 28.95 29.55 28.0 30.55 26.65 30.55 25.3 30.55 24.3 29.55 23.35 28.6 23.35 27.25 23.35 25.9 24.3 24.9 25.3 23.95 26.65 23.95 28.0 23.95 28.95 24.9 29.95 25.9 29.95 27.25" fill="url(#gradient43)" fill-rule="evenodd" stroke="none"/>
      <path d="M105.3 23.7 Q106.65 23.7 107.6 24.65 108.6 25.65 108.6 27.0 108.6 28.35 107.6 29.3 106.65 30.3 105.3 30.3 103.95 30.3 102.95 29.3 102.0 28.35 102.0 27.0 102.0 25.65 102.95 24.65 103.95 23.7 105.3 23.7 M102.1 22.05 Q101.15 23.05 99.8 23.05 98.45 23.05 97.45 22.05 96.5 21.1 96.5 19.75 96.5 18.4 97.45 17.4 98.45 16.45 99.8 16.45 101.15 16.45 102.1 17.4 103.1 18.4 103.1 19.75 103.1 21.1 102.1 22.05 M94.55 23.7 Q95.9 23.7 96.85 24.65 97.85 25.65 97.85 27.0 97.85 28.35 96.85 29.3 95.9 30.3 94.55 30.3 93.2 30.3 92.2 29.3 91.25 28.35 91.25 27.0 91.25 25.65 92.2 24.65 93.2 23.7 94.55 23.7 M97.45 36.8 Q96.5 35.85 96.5 34.5 96.5 33.15 97.45 32.15 98.45 31.2 99.8 31.2 101.15 31.2 102.1 32.15 103.1 33.15 103.1 34.5 103.1 35.85 102.1 36.8 101.15 37.8 99.8 37.8 98.45 37.8 97.45 36.8 M21.15 23.3 Q19.8 23.3 18.8 22.3 17.85 21.35 17.85 20.0 17.85 18.65 18.8 17.65 19.8 16.7 21.15 16.7 22.5 16.7 23.45 17.65 24.45 18.65 24.45 20.0 24.45 21.35 23.45 22.3 22.5 23.3 21.15 23.3 M18.8 32.4 Q19.8 31.45 21.15 31.45 22.5 31.45 23.45 32.4 24.45 33.4 24.45 34.75 24.45 36.1 23.45 37.05 22.5 38.05 21.15 38.05 19.8 38.05 18.8 37.05 17.85 36.1 17.85 34.75 17.85 33.4 18.8 32.4 M13.55 24.9 Q14.55 23.95 15.9 23.95 17.25 23.95 18.2 24.9 19.2 25.9 19.2 27.25 19.2 28.6 18.2 29.55 17.25 30.55 15.9 30.55 14.55 30.55 13.55 29.55 12.6 28.6 12.6 27.25 12.6 25.9 13.55 24.9 M29.95 27.25 Q29.95 28.6 28.95 29.55 28.0 30.55 26.65 30.55 25.3 30.55 24.3 29.55 23.35 28.6 23.35 27.25 23.35 25.9 24.3 24.9 25.3 23.95 26.65 23.95 28.0 23.95 28.95 24.9 29.95 25.9 29.95 27.25 Z" fill="none" stroke="#000000" stroke-linecap="round" stroke-linejoin="round" stroke-width="1.0"/>
    </g>
    <radialGradient cx="0" cy="0" gradientTransform="matrix(0.1232, 0.0, 0.0, 0.1232, -53.5, 7.25)" gradientUnits="userSpaceOnUse" id="gradient22" r="819.2" spreadMethod="pad">
      <stop offset="0.8549019607843137" stop-color="#000000" stop-opacity="0.0"/>
      <stop offset="0.9647058823529412" stop-color="#000000" stop-opacity="0.29803923"/>
    </radialGradient>
    <radialGradient cx="0" cy="0" gradientTransform="matrix(0.0803, 0.0, 0.0, 0.0803, 36.75, 9.5)" gradientUnits="userSpaceOnUse" id="gradient23" r="819.2" spreadMethod="pad">
      <stop offset="0.8549019607843137" stop-color="#000000" stop-opacity="0.0"/>
      <stop offset="0.9647058823529412" stop-color="#000000" stop-opacity="0.29803923"/>
    </radialGradient>
    <radialGradient cx="0" cy="0" gradientTransform="matrix(0.0892, 0.0, 0.0, 0.0892, 49.0, 76.5)" gradientUnits="userSpaceOnUse" id="gradient24" r="819.2" spreadMethod="pad">
      <stop offset="0.8549019607843137" stop-color="#000000" stop-opacity="0.0"/>
      <stop offset="0.9647058823529412" stop-color="#000000" stop-opacity="0.29803923"/>
    </radialGradient>
    <radialGradient cx="0" cy="0" gradientTransform="matrix(0.1025, 0.0, 0.0, 0.1025, 32.75, 33.25)" gradientUnits="userSpaceOnUse" id="gradient25" r="819.2" spreadMethod="pad">
      <stop offset="0.8549019607843137" stop-color="#000000" stop-opacity="0.0"/>
      <stop offset="0.9647058823529412" stop-color="#000000" stop-opacity="0.29803923"/>
    </radialGradient>
    <radialGradient cx="0" cy="0" gradientTransform="matrix(0.1137, 0.0, 0.0, 0.1137, 66.0, 95.75)" gradientUnits="userSpaceOnUse" id="gradient26" r="819.2" spreadMethod="pad">
      <stop offset="0.8549019607843137" stop-color="#ffffff" stop-opacity="0.0"/>
      <stop offset="1.0" stop-color="#ffffff" stop-opacity="0.4"/>
    </radialGradient>
    <linearGradient gradientTransform="matrix(0.0097, -0.0031, 0.016, 0.017, 106.85, 65.9)" gradientUnits="userSpaceOnUse" id="gradient27" spreadMethod="pad" x1="-819.2" x2="819.2">
      <stop offset="0.0" stop-color="#ffffff" stop-opacity="0.49803922"/>
      <stop offset="0.44313725490196076" stop-color="#ffffff" stop-opacity="0.0"/>
    </linearGradient>
    <radialGradient cx="0" cy="0" gradientTransform="matrix(0.0752, 0.0, 0.0, 0.0752, 42.5, 71.75)" gradientUnits="userSpaceOnUse" id="gradient28" r="819.2" spreadMethod="pad">
      <stop offset="0.8352941176470589" stop-color="#ffffff" stop-opacity="0.0"/>
      <stop offset="1.0" stop-color="#ffffff" stop-opacity="0.4"/>
    </radialGradient>
    <linearGradient gradientTransform="matrix(0.0106, 0.0, 0.0, 0.0157, 11.25, 67.25)" gradientUnits="userSpaceOnUse" id="gradient29" spreadMethod="pad" x1="-819.2" x2="819.2">
      <stop offset="0.0" stop-color="#ffffff" stop-opacity="0.49803922"/>
      <stop offset="0.44313725490196076" stop-color="#ffffff" stop-opacity="0.0"/>
    </linearGradient>
    <radialGradient cx="0" cy="0" gradientTransform="matrix(0.0187, 0.0, 0.0, 0.0187, 59.95, 45.95)" gradientUnits="userSpaceOnUse" id="gradient30" r="819.2" spreadMethod="pad">
      <stop offset="0.5843137254901961" stop-color="#373737"/>
      <stop offset="1.0" stop-color="#000000"/>
    </radialGradient>
    <radialGradient cx="0" cy="0" gradientTransform="matrix(0.0137, 0.0, 0.0, 0.0137, 60.0, 42.5)" gradientUnits="userSpaceOnUse" id="gradient31" r="819.2" spreadMethod="pad">
      <stop offset="0.17254901960784313" stop-color="#aeaeae"/>
      <stop offset="0.7098039215686275" stop-color="#333333"/>
      <stop offset="0.9176470588235294" stop-color="#000000"/>
    </radialGradient>
    <linearGradient gradientTransform="matrix(0.0, 0.0037, -0.0111, 0.0, 60.85, 19.45)" gradientUnits="userSpaceOnUse" id="gradient32" spreadMethod="pad" x1="-819.2" x2="819.2">
      <stop offset="0.4392156862745098" stop-color="#10bd0f"/>
      <stop offset="1.0" stop-color="#000000"/>
    </linearGradient>
    <linearGradient gradientTransform="matrix(0.0, 0.0037, -0.0111, 0.0, 60.85, 11.2)" gradientUnits="userSpaceOnUse" id="gradient33" spreadMethod="pad" x1="-819.2" x2="819.2">
      <stop offset="0.4392156862745098" stop-color="#10bd0f"/>
      <stop offset="1.0" stop-color="#000000"/>
    </linearGradient>
    <linearGradient gradientTransform="matrix(0.0, 0.0021, -0.0096, 0.0, 60.85, 11.4)" gradientUnits="userSpaceOnUse" id="gradient34" spreadMethod="pad" x1="-819.2" x2="819.2">
      <stop offset="0.0" stop-color="#f2ffee"/>
      <stop offset="1.0" stop-color="#ffffff" stop-opacity="0.0"/>
    </linearGradient>
    <linearGradient gradientTransform="matrix(0.0, 0.0026, -0.0096, 0.0, 60.8, 20.0)" gradientUnits="userSpaceOnUse" id="gradient35" spreadMethod="pad" x1="-819.2" x2="819.2">
      <stop offset="0.0" stop-color="#f2ffee"/>
      <stop offset="1.0" stop-color="#ffffff" stop-opacity="0.0"/>
    </linearGradient>
    <radialGradient cx="0" cy="0" gradientTransform="matrix(0.0052, 0.0, 0.0, 0.0052, 100.05, 18.75)" gradientUnits="userSpaceOnUse" id="gradient36" r="819.2" spreadMethod="pad">
      <stop offset="0.16470588235294117" stop-color="#ffffff"/>
      <stop offset="0.19607843137254902" stop-color="#ff5555"/>
      <stop offset="1.0" stop-color="#000000"/>
    </radialGradient>
    <radialGradient cx="0" cy="0" gradientTransform="matrix(0.0052, 0.0, 0.0, 0.0052, 105.55, 26.0)" gradientUnits="userSpaceOnUse" id="gradient37" r="819.2" spreadMethod="pad">
      <stop offset="0.16470588235294117" stop-color="#ffffff"/>
      <stop offset="0.19607843137254902" stop-color="#ff5555"/>
      <stop offset="1.0" stop-color="#000000"/>
    </radialGradient>
    <radialGradient cx="0" cy="0" gradientTransform="matrix(0.0052, 0.0, 0.0, 0.0052, 94.8, 26.0)" gradientUnits="userSpaceOnUse" id="gradient38" r="819.2" spreadMethod="pad">
      <stop offset="0.16470588235294117" stop-color="#ffffff"/>
      <stop offset="0.19607843137254902" stop-color="#ff5555"/>
      <stop offset="1.0" stop-color="#000000"/>
    </radialGradient>
    <radialGradient cx="0" cy="0" gradientTransform="matrix(0.0052, 0.0, 0.0, 0.0052, 100.05, 33.5)" gradientUnits="userSpaceOnUse" id="gradient39" r="819.2" spreadMethod="pad">
      <stop offset="0.16470588235294117" stop-color="#ffffff"/>
      <stop offset="0.19607843137254902" stop-color="#ff5555"/>
      <stop offset="1.0" stop-color="#000000"/>
    </radialGradient>
    <radialGradient cx="0" cy="0" gradientTransform="matrix(0.0052, 0.0, 0.0, 0.0052, 21.4, 19.0)" gradientUnits="userSpaceOnUse" id="gradient40" r="819.2" spreadMethod="pad">
      <stop offset="0.16470588235294117" stop-color="#ffffff"/>
      <stop offset="0.19607843137254902" stop-color="#ff5555"/>
      <stop offset="1.0" stop-color="#000000"/>
    </radialGradient>
    <radialGradient cx="0" cy="0" gradientTransform="matrix(0.0052, 0.0, 0.0, 0.0052, 16.15, 26.25)" gradientUnits="userSpaceOnUse" id="gradient41" r="819.2" spreadMethod="pad">
      <stop offset="0.16470588235294117" stop-color="#ffffff"/>
      <stop offset="0.19607843137254902" stop-color="#ff5555"/>
      <stop offset="1.0" stop-color="#000000"/>
    </radialGradient>
    <radialGradient cx="0" cy="0" gradientTransform="matrix(0.0052, 0.0, 0.0, 0.0052, 21.4, 33.75)" gradientUnits="userSpaceOnUse" id="gradient42" r="819.2" spreadMethod="pad">
      <stop offset="0.16470588235294117" stop-color="#ffffff"/>
      <stop offset="0.19607843137254902" stop-color="#ff5555"/>
      <stop offset="1.0" stop-color="#000000"/>
    </radialGradient>
    <radialGradient cx="0" cy="0" gradientTransform="matrix(0.0052, 0.0, 0.0, 0.0052, 26.9, 26.25)" gradientUnits="userSpaceOnUse" id="gradient43" r="819.2" spreadMethod="pad">
      <stop offset="0.16470588235294117" stop-color="#ffffff"/>
      <stop offset="0.19607843137254902" stop-color="#ff5555"/>
      <stop offset="1.0" stop-color="#000000"/>
    </radialGradient>
  </defs>
</svg>
