<?xml version="1.0" encoding="UTF-8" standalone="no"?>
<svg xmlns:ffdec="https://www.free-decompiler.com/flash" xmlns:xlink="http://www.w3.org/1999/xlink" ffdec:objectType="frame" height="51.4px" width="79.6px" xmlns="http://www.w3.org/2000/svg">
  <g transform="matrix(1.0, 0.0, 0.0, 1.0, 49.95, 24.65)">
    <use ffdec:characterId="921" height="22.0" id="hitbox" transform="matrix(1.2499, 0.0, 0.0, 1.2622, -2.45, -1.0)" width="22.0" xlink:href="#sprite0"/>
    <use ffdec:characterId="923" height="50.4" transform="matrix(1.0, 0.0, 0.0, 1.0, -49.95, -24.65)" width="77.15" xlink:href="#shape1"/>
    <use ffdec:characterId="924" height="20.7" transform="matrix(1.0, 0.0, 0.0, 1.0, -48.2, -24.05)" width="77.85" xlink:href="#text0"/>
  </g>
  <defs>
    <g id="sprite0" transform="matrix(1.0, 0.0, 0.0, 1.0, 0.0, 0.0)">
      <use ffdec:characterId="145" height="22.0" transform="matrix(1.0, 0.0, 0.0, 1.0, 0.0, 0.0)" width="22.0" xlink:href="#shape0"/>
    </g>
    <g id="shape0" transform="matrix(1.0, 0.0, 0.0, 1.0, 0.0, 0.0)">
      <path d="M22.0 0.0 L22.0 22.0 0.0 22.0 0.0 0.0 22.0 0.0" fill="#00ff00" fill-opacity="0.0" fill-rule="evenodd" stroke="none"/>
    </g>
    <g id="shape1" transform="matrix(1.0, 0.0, 0.0, 1.0, 49.95, 24.65)">
      <path d="M19.15 2.7 L19.2 2.7 19.2 2.75 19.15 2.7" fill="#333333" fill-rule="evenodd" stroke="none"/>
      <path d="M19.2 2.75 L19.3 2.85 20.2 3.7 20.05 3.9 21.05 5.6 22.05 8.05 Q22.7 10.75 22.7 13.05 L22.7 14.35 22.8 14.4 22.9 14.75 Q22.9 16.25 22.25 17.95 21.55 19.65 20.5 20.85 L17.55 23.8 15.35 24.9 Q13.05 25.75 9.8 25.75 4.25 25.75 1.8 21.35 0.1 18.3 0.1 13.6 L0.0 12.85 Q0.0 12.45 0.3 12.35 L0.25 11.6 0.25 11.25 Q0.25 4.95 4.5 2.0 8.5 -0.85 14.7 0.4 16.8 0.55 19.15 2.7 L19.2 2.75 M20.3 11.6 Q20.3 12.15 12.85 16.35 L12.5 16.3 Q12.4 16.4 12.4 16.0 L12.7 15.8 Q12.4 15.0 12.35 11.4 L12.4 9.3 Q12.45 8.4 12.65 7.75 12.55 7.95 12.55 7.6 L12.7 7.3 12.85 7.35 12.85 7.3 Q15.55 7.5 17.25 8.9 L20.05 11.4 20.15 11.35 20.25 11.4 20.3 11.6 M22.05 12.95 Q22.05 10.0 20.75 6.9 L19.5 4.2 19.25 3.95 Q19.15 3.15 17.8 2.4 L17.55 2.25 16.9 1.9 16.25 1.6 16.0 1.5 14.3 1.05 Q11.1 0.4 8.15 1.15 6.35 1.6 5.5 2.25 L3.8 3.7 2.4 5.2 Q0.9 7.4 0.9 11.3 0.9 12.1 1.45 14.4 L2.1 16.9 Q2.85 18.75 3.5 19.45 5.3 21.2 8.9 21.55 L8.95 21.55 10.4 21.55 11.8 21.55 Q17.9 21.15 20.6 17.4 L20.7 17.3 21.15 16.4 21.9 15.25 22.1 14.0 22.05 12.95 M15.85 24.0 L15.85 23.95 17.65 22.8 20.25 19.85 Q21.05 18.95 21.55 17.35 L20.9 18.05 18.3 20.6 Q17.35 21.35 15.7 21.8 L15.1 21.9 14.95 21.95 14.9 22.0 14.8 22.0 14.65 22.0 13.45 22.2 12.1 22.3 10.4 22.3 Q7.0 22.3 4.85 21.15 L4.4 20.9 Q2.4 19.6 1.4 17.15 L0.85 15.5 Q1.15 17.55 1.95 19.85 2.75 21.9 3.45 22.6 L4.4 23.5 4.95 23.9 7.1 24.7 7.6 24.8 8.95 24.95 9.8 25.0 12.35 24.9 13.35 24.7 13.45 24.7 15.85 24.0 M18.2 12.2 L19.2 11.7 Q18.6 11.5 17.85 10.85 L16.45 9.6 15.1 8.55 13.2 7.9 13.4 9.45 13.25 11.65 13.3 13.65 13.2 15.45 13.6 15.15 Q16.2 13.2 18.2 12.2 M11.25 11.4 L11.3 11.6 Q11.3 12.15 3.85 16.35 L3.5 16.3 Q3.4 16.4 3.4 16.0 L3.7 15.8 Q3.4 15.0 3.35 11.4 L3.4 9.3 Q3.45 8.4 3.65 7.75 3.55 7.95 3.55 7.6 L3.7 7.3 3.85 7.35 3.85 7.3 Q6.55 7.5 8.25 8.9 L11.05 11.4 11.15 11.35 11.25 11.4 M9.2 12.2 L10.2 11.7 8.85 10.85 7.45 9.6 6.1 8.55 4.2 7.9 4.4 9.45 4.25 11.65 4.3 13.65 4.2 15.45 4.6 15.15 Q7.2 13.2 9.2 12.2" fill="#392d11" fill-rule="evenodd" stroke="none"/>
      <path d="M4.4 23.5 L3.45 22.6 Q2.75 21.9 1.95 19.85 1.15 17.55 0.85 15.5 L1.4 17.15 Q2.4 19.6 4.4 20.9 L4.35 21.9 4.4 23.5" fill="#eddcb7" fill-rule="evenodd" stroke="none"/>
      <path d="M22.05 12.95 L22.1 14.0 21.9 15.25 21.15 16.4 20.7 17.3 20.6 17.4 Q17.9 21.15 11.8 21.55 L10.4 21.55 8.95 21.55 8.9 21.55 Q5.3 21.2 3.5 19.45 2.85 18.75 2.1 16.9 L1.45 14.4 Q0.9 12.1 0.9 11.3 0.9 7.4 2.4 5.2 L3.8 3.7 5.5 2.25 Q6.35 1.6 8.15 1.15 11.1 0.4 14.3 1.05 L16.0 1.5 16.25 1.6 16.9 1.9 17.55 2.25 17.8 2.4 Q19.15 3.15 19.25 3.95 L19.5 4.2 20.75 6.9 Q22.05 10.0 22.05 12.95 M20.3 11.6 L20.25 11.4 20.15 11.35 20.05 11.4 17.25 8.9 Q15.55 7.5 12.85 7.3 L12.85 7.35 12.7 7.3 12.55 7.6 Q12.55 7.95 12.65 7.75 12.45 8.4 12.4 9.3 L12.35 11.4 Q12.4 15.0 12.7 15.8 L12.4 16.0 Q12.4 16.4 12.5 16.3 L12.85 16.35 Q20.3 12.15 20.3 11.6 M12.35 24.9 L9.8 25.0 8.95 24.95 7.6 24.8 7.1 24.7 4.95 23.9 4.4 23.5 4.35 21.9 4.4 20.9 4.85 21.15 Q7.0 22.3 10.4 22.3 L12.1 22.3 12.05 22.5 Q12.05 24.05 12.35 24.9 M11.25 11.4 L11.15 11.35 11.05 11.4 8.25 8.9 Q6.55 7.5 3.85 7.3 L3.85 7.35 3.7 7.3 3.55 7.6 Q3.55 7.95 3.65 7.75 3.45 8.4 3.4 9.3 L3.35 11.4 Q3.4 15.0 3.7 15.8 L3.4 16.0 Q3.4 16.4 3.5 16.3 L3.85 16.35 Q11.3 12.15 11.3 11.6 L11.25 11.4" fill="#cc9d3c" fill-rule="evenodd" stroke="none"/>
      <path d="M15.7 21.8 L15.65 22.3 15.85 24.0 13.45 24.7 13.35 24.7 12.35 24.9 Q12.05 24.05 12.05 22.5 L12.1 22.3 13.45 22.2 14.65 22.0 14.8 22.0 14.9 22.0 14.95 21.95 15.1 21.9 15.7 21.8 M13.6 15.15 L14.0 12.8 14.45 9.7 17.05 11.4 18.2 12.2 Q16.2 13.2 13.6 15.15 M4.6 15.15 L5.0 12.8 5.45 9.7 8.05 11.4 9.2 12.2 Q7.2 13.2 4.6 15.15" fill="#906e27" fill-rule="evenodd" stroke="none"/>
      <path d="M15.7 21.8 Q17.35 21.35 18.3 20.6 L20.9 18.05 21.55 17.35 Q21.05 18.95 20.25 19.85 L17.65 22.8 15.85 23.95 15.85 24.0 15.65 22.3 15.7 21.8 M13.6 15.15 L13.2 15.45 13.3 13.65 13.25 11.65 13.4 9.45 13.2 7.9 15.1 8.55 16.45 9.6 17.85 10.85 Q18.6 11.5 19.2 11.7 L18.2 12.2 17.05 11.4 14.45 9.7 14.0 12.8 13.6 15.15 M4.6 15.15 L4.2 15.45 4.3 13.65 4.25 11.65 4.4 9.45 4.2 7.9 6.1 8.55 7.45 9.6 8.85 10.85 10.2 11.7 9.2 12.2 8.05 11.4 5.45 9.7 5.0 12.8 4.6 15.15" fill="#4a3916" fill-rule="evenodd" stroke="none"/>
      <path d="M27.2 -1.9 L-49.95 -1.9 -49.95 -24.65 27.2 -24.65 27.2 -1.9" fill="#000000" fill-opacity="0.49803922" fill-rule="evenodd" stroke="none"/>
    </g>
    <g id="text0" transform="matrix(1.0, 0.0, 0.0, 1.0, -57.7, -0.05)">
      <g transform="matrix(1.0, 0.0, 0.0, 1.0, 53.35, 0.0)">
        <use fill="#ffffff" height="20.7" transform="matrix(0.0098, 0.0, 0.0, 0.0098, 3.0, 9.0)" width="77.85" xlink:href="#font_Lithos_Pro_Regular_F0"/>
        <use fill="#ffffff" height="20.7" transform="matrix(0.0098, 0.0, 0.0, 0.0098, 8.15, 9.0)" width="77.85" xlink:href="#font_Lithos_Pro_Regular_a0"/>
        <use fill="#ffffff" height="20.7" transform="matrix(0.0098, 0.0, 0.0, 0.0098, 15.25, 9.0)" width="77.85" xlink:href="#font_Lithos_Pro_Regular_s0"/>
        <use fill="#ffffff" height="20.7" transform="matrix(0.0098, 0.0, 0.0, 0.0098, 20.05, 9.0)" width="77.85" xlink:href="#font_Lithos_Pro_Regular_t0"/>
        <use fill="#ffffff" height="20.7" transform="matrix(0.0098, 0.0, 0.0, 0.0098, 28.7, 9.0)" width="77.85" xlink:href="#font_Lithos_Pro_Regular_F0"/>
        <use fill="#ffffff" height="20.7" transform="matrix(0.0098, 0.0, 0.0, 0.0098, 34.05, 9.0)" width="77.85" xlink:href="#font_Lithos_Pro_Regular_o0"/>
        <use fill="#ffffff" height="20.7" transform="matrix(0.0098, 0.0, 0.0, 0.0098, 41.7, 9.0)" width="77.85" xlink:href="#font_Lithos_Pro_Regular_r0"/>
        <use fill="#ffffff" height="20.7" transform="matrix(0.0098, 0.0, 0.0, 0.0098, 47.85, 9.0)" width="77.85" xlink:href="#font_Lithos_Pro_Regular_w0"/>
        <use fill="#ffffff" height="20.7" transform="matrix(0.0098, 0.0, 0.0, 0.0098, 56.8, 9.0)" width="77.85" xlink:href="#font_Lithos_Pro_Regular_a0"/>
        <use fill="#ffffff" height="20.7" transform="matrix(0.0098, 0.0, 0.0, 0.0098, 63.9, 9.0)" width="77.85" xlink:href="#font_Lithos_Pro_Regular_r0"/>
        <use fill="#ffffff" height="20.7" transform="matrix(0.0098, 0.0, 0.0, 0.0098, 70.05, 9.0)" width="77.85" xlink:href="#font_Lithos_Pro_Regular_d0"/>
      </g>
      <g transform="matrix(1.0, 0.0, 0.0, 1.0, 53.35, 0.0)">
        <use fill="#ffffff" height="20.7" transform="matrix(0.0098, 0.0, 0.0, 0.0098, 13.0, 19.0)" width="77.85" xlink:href="#font_Lithos_Pro_Regular__1"/>
        <use fill="#ffffff" height="20.7" transform="matrix(0.0098, 0.0, 0.0, 0.0098, 16.0, 19.0)" width="77.85" xlink:href="#font_Lithos_Pro_Regular_S0"/>
        <use fill="#ffffff" height="20.7" transform="matrix(0.0098, 0.0, 0.0, 0.0098, 21.25, 19.0)" width="77.85" xlink:href="#font_Lithos_Pro_Regular_p0"/>
        <use fill="#ffffff" height="20.7" transform="matrix(0.0098, 0.0, 0.0, 0.0098, 26.4, 19.0)" width="77.85" xlink:href="#font_Lithos_Pro_Regular_a0"/>
        <use fill="#ffffff" height="20.7" transform="matrix(0.0098, 0.0, 0.0, 0.0098, 33.5, 19.0)" width="77.85" xlink:href="#font_Lithos_Pro_Regular_c0"/>
        <use fill="#ffffff" height="20.7" transform="matrix(0.0098, 0.0, 0.0, 0.0098, 39.35, 19.0)" width="77.85" xlink:href="#font_Lithos_Pro_Regular_e0"/>
        <use fill="#ffffff" height="20.7" transform="matrix(0.0098, 0.0, 0.0, 0.0098, 44.65, 19.0)" width="77.85" xlink:href="#font_Lithos_Pro_Regular_b0"/>
        <use fill="#ffffff" height="20.7" transform="matrix(0.0098, 0.0, 0.0, 0.0098, 50.25, 19.0)" width="77.85" xlink:href="#font_Lithos_Pro_Regular_a0"/>
        <use fill="#ffffff" height="20.7" transform="matrix(0.0098, 0.0, 0.0, 0.0098, 57.35, 19.0)" width="77.85" xlink:href="#font_Lithos_Pro_Regular_r0"/>
        <use fill="#ffffff" height="20.7" transform="matrix(0.0098, 0.0, 0.0, 0.0098, 63.5, 19.0)" width="77.85" xlink:href="#font_Lithos_Pro_Regular__2"/>
      </g>
    </g>
    <g id="font_Lithos_Pro_Regular_F0">
      <path d="M248.5 0.0 L145.5 0.0 Q148.0 -17.0 149.5 -49.5 151.0 -82.0 152.0 -121.5 152.5 -160.5 153.0 -198.0 153.5 -235.5 153.5 -263.0 153.5 -290.0 153.5 -298.0 L153.5 -434.0 Q153.5 -440.0 153.5 -468.0 153.0 -496.0 152.5 -535.0 152.5 -574.0 152.0 -613.5 151.0 -652.5 150.5 -681.0 150.0 -709.5 149.5 -716.5 158.0 -716.5 189.0 -717.5 220.0 -719.0 262.5 -720.5 305.0 -722.5 348.5 -724.5 392.0 -727.0 426.0 -728.5 459.5 -730.5 473.0 -732.0 L477.0 -653.0 245.5 -648.0 245.5 -387.0 Q253.5 -387.0 279.5 -388.0 306.0 -389.0 340.5 -390.5 374.5 -392.0 406.5 -393.5 438.5 -395.0 457.5 -396.0 L460.5 -317.5 245.5 -321.5 245.5 -224.5 Q245.5 -218.5 245.5 -196.0 245.5 -173.5 245.5 -142.5 245.5 -111.5 245.5 -80.5 246.0 -49.5 246.5 -27.5 247.5 -5.0 248.5 0.0" fill-rule="evenodd" stroke="none"/>
    </g>
    <g id="font_Lithos_Pro_Regular_a0">
      <path d="M226.5 -255.0 L476.5 -265.0 Q473.0 -271.5 460.0 -295.0 447.5 -318.5 430.0 -350.5 412.5 -382.5 395.0 -414.0 378.0 -445.5 365.0 -468.0 352.5 -490.5 349.5 -495.5 345.0 -488.5 332.5 -464.0 319.5 -439.5 303.0 -406.0 286.0 -373.0 269.5 -340.0 253.0 -307.0 241.0 -283.5 229.5 -260.0 226.5 -255.0 M93.5 18.5 L14.5 -26.5 Q27.5 -49.5 55.0 -100.0 83.0 -150.5 119.0 -216.5 155.0 -283.0 193.5 -353.0 231.5 -423.5 265.0 -485.0 299.0 -547.0 322.0 -589.0 345.0 -630.5 350.5 -640.0 L352.5 -640.0 Q376.5 -601.5 414.5 -538.0 452.0 -474.0 496.0 -399.0 540.0 -323.5 582.5 -250.0 625.5 -176.5 660.0 -119.0 694.0 -61.0 713.0 -32.5 L630.0 17.5 Q623.0 4.0 605.5 -28.5 587.5 -61.0 566.5 -99.0 545.5 -137.0 529.0 -166.5 512.0 -196.0 508.0 -202.5 L191.5 -190.5 Q186.5 -179.0 173.0 -150.5 159.5 -121.5 143.5 -86.5 127.0 -52.0 113.0 -23.0 99.0 6.5 93.5 18.5" fill-rule="evenodd" stroke="none"/>
    </g>
    <g id="font_Lithos_Pro_Regular_s0">
      <path d="M131.0 16.5 L107.5 -55.5 Q143.5 -62.0 180.5 -73.0 218.0 -83.5 250.0 -99.0 281.5 -114.5 301.5 -135.0 321.0 -155.0 321.5 -181.5 321.5 -214.0 297.0 -235.5 272.5 -257.0 222.0 -280.5 161.0 -309.0 123.0 -341.0 85.0 -373.5 84.0 -420.0 84.5 -456.5 108.5 -490.0 132.0 -523.0 171.5 -550.5 211.0 -578.0 259.5 -597.5 308.0 -617.0 358.5 -626.0 L377.5 -554.0 Q354.0 -551.0 321.0 -542.5 288.0 -533.5 255.0 -519.5 222.5 -505.0 200.5 -484.0 179.0 -462.5 178.0 -434.5 179.0 -411.0 196.5 -394.5 214.5 -377.5 239.0 -365.0 264.0 -352.0 284.5 -341.0 320.5 -322.0 350.0 -304.0 380.0 -285.5 398.0 -261.5 416.0 -237.5 416.5 -202.0 416.0 -156.0 383.0 -113.5 349.5 -70.5 286.0 -36.5 222.5 -2.5 131.0 16.5" fill-rule="evenodd" stroke="none"/>
    </g>
    <g id="font_Lithos_Pro_Regular_t0">
      <path d="M346.0 0.0 L240.0 0.0 Q241.5 -7.5 242.5 -38.5 243.5 -69.5 244.5 -116.0 245.0 -162.5 245.5 -215.5 245.5 -269.0 246.0 -320.5 246.0 -372.5 246.0 -414.5 L246.0 -536.5 Q206.0 -536.5 164.0 -536.0 122.5 -535.0 86.0 -534.0 49.5 -533.0 25.0 -531.5 0.5 -530.0 -5.0 -528.5 L-5.0 -611.5 Q4.0 -609.5 31.0 -607.5 58.5 -606.0 94.0 -604.5 130.0 -603.5 165.0 -602.5 200.0 -602.0 224.0 -601.5 248.5 -601.0 252.0 -601.0 L334.0 -601.0 Q340.0 -601.0 364.0 -601.5 387.5 -601.5 421.0 -602.5 454.0 -603.5 488.0 -604.5 522.0 -606.0 548.0 -607.5 574.0 -609.0 584.0 -611.5 L584.0 -528.5 Q582.0 -530.0 554.5 -531.5 527.0 -533.0 486.5 -534.0 446.0 -535.0 405.0 -536.0 364.0 -536.5 335.0 -536.5 L335.0 -401.5 Q335.0 -334.0 336.5 -266.5 338.0 -198.5 340.0 -141.0 342.0 -83.0 343.5 -45.0 345.5 -7.5 346.0 0.0" fill-rule="evenodd" stroke="none"/>
    </g>
    <g id="font_Lithos_Pro_Regular_o0">
      <path d="M380.0 -53.0 L380.0 -53.0 Q451.0 -53.0 510.0 -84.5 569.0 -116.0 604.5 -176.0 640.0 -236.5 641.0 -322.5 640.0 -400.5 608.5 -452.5 576.5 -504.5 524.5 -530.5 472.5 -556.5 410.5 -556.5 329.0 -555.5 271.0 -519.5 212.5 -483.5 181.5 -423.0 151.0 -362.0 150.5 -287.0 151.0 -221.0 178.5 -168.5 206.0 -115.5 257.0 -84.5 308.5 -53.5 380.0 -53.0 M371.5 14.5 L371.5 14.5 Q269.5 13.5 199.5 -26.0 129.0 -65.5 93.0 -130.5 56.5 -195.5 56.5 -273.5 57.0 -371.5 101.5 -450.5 146.5 -529.5 228.5 -576.0 310.5 -623.0 424.0 -624.0 515.0 -623.5 585.0 -588.5 655.0 -553.5 695.0 -487.5 735.0 -421.0 736.0 -327.0 736.5 -274.5 717.0 -216.0 697.5 -157.5 654.5 -105.0 611.5 -52.5 542.0 -19.5 472.0 13.5 371.5 14.5" fill-rule="evenodd" stroke="none"/>
    </g>
    <g id="font_Lithos_Pro_Regular_r0">
      <path d="M224.0 -543.0 L224.0 -266.5 Q224.0 -256.0 224.5 -227.5 224.5 -199.0 225.0 -162.5 225.5 -125.5 226.5 -90.0 227.0 -54.5 228.0 -29.5 228.5 -5.0 229.0 0.0 L133.0 0.0 Q134.0 -7.0 134.5 -39.0 135.0 -70.5 135.0 -114.5 135.0 -158.5 135.0 -202.5 135.0 -246.5 135.0 -277.5 135.0 -309.0 135.0 -315.5 L135.0 -386.0 Q135.0 -397.5 134.5 -430.0 134.5 -462.5 133.5 -501.5 133.0 -541.0 132.0 -571.5 131.0 -602.0 130.0 -609.5 164.0 -610.0 218.5 -609.5 273.0 -609.0 332.5 -602.5 425.5 -591.5 476.0 -555.5 527.0 -519.5 527.5 -462.0 526.5 -408.0 490.0 -363.0 454.0 -318.0 395.0 -284.0 405.0 -270.5 435.0 -237.0 465.0 -203.0 501.5 -162.5 538.5 -122.0 569.0 -89.5 599.5 -57.0 610.5 -46.0 L539.5 16.5 Q536.0 12.0 512.5 -16.5 489.0 -45.0 455.5 -86.5 422.0 -127.5 387.5 -170.5 352.5 -213.0 326.0 -246.0 299.5 -279.0 290.5 -291.0 308.5 -300.0 332.0 -313.5 355.5 -327.0 377.5 -346.0 400.0 -365.0 415.0 -390.5 429.5 -416.0 430.0 -449.0 431.0 -470.0 415.5 -491.0 399.5 -512.5 355.0 -527.0 310.0 -542.0 224.0 -543.0" fill-rule="evenodd" stroke="none"/>
    </g>
    <g id="font_Lithos_Pro_Regular_w0">
      <path d="M878.5 -613.5 L964.5 -578.5 Q962.0 -572.0 944.5 -531.5 927.0 -491.0 900.0 -430.0 873.5 -368.5 843.0 -299.5 812.5 -231.0 784.5 -167.5 756.0 -104.0 735.5 -58.5 715.5 -13.5 708.5 0.0 L704.5 0.0 Q693.5 -19.0 670.5 -56.0 648.0 -93.0 619.5 -138.5 591.5 -183.5 563.5 -228.0 536.0 -272.0 515.0 -305.5 494.0 -339.5 486.0 -353.0 474.5 -332.5 452.5 -294.0 430.5 -256.0 403.0 -208.5 375.5 -161.5 348.0 -114.0 320.0 -67.0 297.5 -28.5 275.0 9.5 263.0 29.5 L259.0 29.5 Q251.5 11.5 234.5 -33.0 217.5 -78.0 195.0 -139.0 172.0 -200.0 147.5 -267.0 122.5 -334.5 99.5 -398.0 76.0 -461.5 58.0 -511.0 40.0 -560.5 30.5 -586.0 L118.5 -621.0 Q128.0 -590.0 145.5 -537.0 163.0 -483.5 184.0 -421.5 205.0 -359.0 225.5 -300.0 245.5 -240.5 260.5 -197.5 275.5 -154.0 280.5 -139.0 290.5 -157.5 314.5 -199.5 338.5 -242.0 370.0 -296.0 401.0 -350.0 432.5 -405.5 464.0 -460.5 489.5 -505.0 L491.5 -505.0 Q513.5 -467.5 542.0 -421.0 570.5 -374.5 601.0 -325.5 631.0 -276.5 658.0 -233.0 685.0 -189.0 703.5 -157.5 707.5 -169.0 720.5 -203.0 733.5 -236.5 752.0 -284.0 770.5 -331.0 791.0 -383.0 811.0 -435.0 829.5 -483.0 848.0 -531.0 861.0 -565.5 874.5 -600.5 878.5 -613.5" fill-rule="evenodd" stroke="none"/>
    </g>
    <g id="font_Lithos_Pro_Regular_d0">
      <path d="M223.0 -541.0 L223.0 -72.0 Q316.5 -78.5 387.0 -105.5 457.0 -132.0 503.5 -172.5 550.0 -212.5 573.0 -260.0 596.0 -307.5 596.0 -355.5 595.5 -422.5 551.5 -464.0 507.5 -506.0 424.0 -524.5 340.5 -543.5 223.0 -541.0 M135.0 -275.5 L135.0 -383.5 Q135.0 -389.5 135.0 -411.5 134.5 -433.5 134.5 -464.0 134.0 -494.0 133.5 -524.5 133.0 -555.0 132.0 -578.5 131.0 -601.5 130.0 -609.5 157.0 -609.5 195.0 -609.5 233.0 -609.5 275.5 -608.5 318.5 -607.5 359.5 -604.5 472.5 -595.0 539.5 -567.5 606.0 -540.0 638.5 -504.0 671.0 -468.5 681.0 -434.0 691.0 -399.5 690.0 -376.0 689.0 -292.5 655.0 -229.5 621.0 -166.5 563.0 -122.0 505.0 -77.5 432.0 -49.5 359.5 -22.0 281.0 -9.0 203.0 4.0 129.0 4.0 130.0 -9.0 131.0 -38.5 132.0 -67.5 133.0 -105.0 133.5 -142.5 134.0 -178.5 134.5 -215.0 135.0 -241.5 135.0 -268.0 135.0 -275.5" fill-rule="evenodd" stroke="none"/>
    </g>
    <g id="font_Lithos_Pro_Regular__1">
      <path d="M254.0 -794.5 L303.0 -733.0 Q283.5 -723.5 253.5 -694.0 224.0 -664.5 194.0 -616.0 163.5 -567.5 143.0 -500.5 123.0 -433.5 122.0 -348.0 122.5 -278.0 140.5 -217.5 158.0 -157.0 186.0 -109.5 214.0 -61.5 245.0 -29.5 276.0 3.0 303.0 16.5 L254.0 82.0 Q224.0 63.0 187.5 26.0 151.0 -10.5 117.5 -64.0 83.5 -117.5 61.5 -186.5 40.0 -255.0 39.0 -338.0 40.0 -427.0 61.5 -502.0 83.5 -576.5 117.5 -635.0 151.0 -693.5 187.5 -734.0 224.0 -774.5 254.0 -794.5" fill-rule="evenodd" stroke="none"/>
    </g>
    <g id="font_Lithos_Pro_Regular_S0">
      <path d="M149.5 18.5 L122.5 -58.5 Q161.0 -66.0 200.5 -79.5 240.5 -93.0 274.5 -112.0 308.5 -131.5 329.5 -156.5 350.5 -182.0 351.0 -213.0 351.5 -250.0 325.5 -276.0 299.5 -302.0 244.5 -330.5 178.0 -365.0 138.0 -402.5 98.0 -440.0 97.0 -493.5 97.5 -534.5 123.0 -572.5 148.0 -610.5 190.5 -643.0 232.5 -675.5 284.0 -699.0 335.5 -723.0 389.0 -735.0 L410.5 -656.0 Q386.0 -652.5 350.5 -641.0 315.0 -630.0 280.0 -612.0 245.0 -593.5 221.0 -568.5 197.5 -543.0 196.5 -511.0 197.5 -484.5 217.0 -464.0 236.5 -443.5 263.0 -427.5 289.5 -412.0 312.0 -399.0 351.5 -377.0 383.0 -355.0 414.5 -333.5 433.5 -306.0 452.0 -278.5 452.5 -237.5 452.5 -186.5 417.5 -137.0 383.0 -87.0 315.5 -46.0 248.0 -5.0 149.5 18.5" fill-rule="evenodd" stroke="none"/>
    </g>
    <g id="font_Lithos_Pro_Regular_p0">
      <path d="M223.0 -541.0 L223.0 -248.0 Q279.0 -258.5 324.5 -280.0 370.0 -301.5 397.5 -336.5 424.5 -371.0 425.0 -421.0 425.5 -433.5 419.0 -453.0 412.5 -472.5 392.0 -492.0 372.0 -512.0 331.0 -526.0 290.5 -539.5 223.0 -541.0 M224.0 0.0 L131.0 0.0 Q131.5 -15.5 132.5 -55.5 133.0 -95.5 134.0 -145.5 134.5 -195.5 134.5 -240.0 135.0 -285.0 135.0 -309.5 L135.0 -405.0 Q135.0 -413.5 134.5 -443.5 134.5 -473.5 134.0 -510.0 133.5 -546.0 133.5 -575.0 133.0 -603.5 133.0 -609.5 153.0 -609.5 185.0 -609.0 217.0 -608.0 252.0 -606.0 287.5 -604.0 317.5 -599.5 412.0 -584.5 465.0 -542.5 518.0 -500.5 519.0 -431.5 518.5 -368.5 481.0 -317.5 443.5 -266.5 377.0 -231.5 311.0 -196.0 223.0 -180.5 L223.0 -131.0 Q223.0 -124.0 223.0 -106.0 223.0 -88.0 223.0 -66.0 223.0 -44.0 223.5 -26.0 223.5 -7.5 224.0 0.0" fill-rule="evenodd" stroke="none"/>
    </g>
    <g id="font_Lithos_Pro_Regular_c0">
      <path d="M560.0 -69.0 L569.0 7.5 Q556.0 10.0 525.5 12.0 495.0 14.5 452.5 14.5 334.0 13.5 257.0 -14.0 179.5 -41.5 136.0 -83.0 92.5 -124.5 74.5 -167.5 57.0 -211.0 57.5 -243.5 57.5 -299.5 84.0 -357.5 111.0 -415.5 167.0 -468.5 222.5 -521.5 309.0 -562.5 395.5 -603.0 515.0 -625.0 L529.5 -547.0 Q452.5 -537.5 385.0 -513.0 317.0 -488.0 265.0 -450.0 212.5 -412.5 183.0 -363.5 153.0 -315.0 152.5 -258.0 152.0 -206.0 183.5 -160.5 214.5 -115.5 283.0 -88.0 351.0 -60.0 461.5 -59.0 490.5 -59.0 517.0 -62.0 543.5 -65.0 560.0 -69.0" fill-rule="evenodd" stroke="none"/>
    </g>
    <g id="font_Lithos_Pro_Regular_e0">
      <path d="M458.5 -68.5 L461.5 9.5 Q451.5 9.5 417.0 8.5 383.0 7.5 337.5 6.0 292.0 5.0 247.0 3.5 202.0 2.0 170.5 1.0 138.5 0.0 132.0 0.0 133.0 -18.5 133.5 -56.0 134.5 -93.5 134.5 -136.0 135.0 -178.0 135.0 -211.0 135.0 -244.0 135.0 -252.5 L135.0 -368.5 Q135.0 -373.5 135.0 -397.5 134.5 -421.5 134.0 -454.5 134.0 -488.0 133.5 -521.5 133.0 -555.0 132.5 -579.5 132.5 -603.5 132.0 -609.5 139.5 -609.5 168.5 -611.0 197.5 -612.0 238.0 -614.5 278.5 -616.5 320.0 -618.5 362.0 -621.0 395.0 -623.0 428.5 -625.0 443.0 -626.0 L447.0 -552.0 Q431.0 -552.0 397.5 -551.5 364.0 -551.0 326.5 -550.0 288.5 -549.0 259.5 -548.5 231.0 -548.0 224.0 -548.0 L224.0 -334.5 Q231.0 -334.5 253.5 -335.0 276.0 -336.0 305.5 -337.0 335.5 -338.5 365.0 -340.0 394.5 -342.0 416.5 -343.5 L419.5 -269.0 Q407.0 -269.0 378.5 -269.5 350.5 -270.0 317.0 -271.0 284.5 -271.0 258.5 -271.5 232.5 -272.0 224.0 -272.0 L224.0 -65.5 Q233.0 -65.5 258.0 -65.0 283.0 -65.0 317.0 -65.0 351.5 -65.0 388.5 -66.0 425.5 -66.5 458.5 -68.5" fill-rule="evenodd" stroke="none"/>
    </g>
    <g id="font_Lithos_Pro_Regular_b0">
      <path d="M221.0 -549.0 L221.0 -345.0 Q272.5 -346.0 313.5 -362.5 355.0 -379.5 379.5 -406.0 404.0 -432.0 404.5 -462.0 404.0 -491.0 385.0 -508.5 366.5 -526.0 337.5 -535.0 308.5 -544.0 277.5 -547.0 246.0 -549.5 221.0 -549.0 M221.0 -289.5 L221.0 -61.5 Q273.5 -65.0 320.5 -79.5 367.5 -94.5 397.5 -122.5 427.0 -150.5 428.0 -194.5 427.5 -228.0 400.0 -250.5 373.0 -272.5 326.0 -282.0 279.5 -292.0 221.0 -289.5 M135.0 -322.5 L135.0 -419.0 Q135.0 -429.5 134.5 -457.0 134.5 -484.0 133.5 -517.0 133.0 -549.5 132.0 -575.5 131.0 -601.5 130.0 -609.5 168.0 -609.5 208.0 -609.0 248.5 -608.5 277.5 -606.5 370.0 -598.5 417.0 -576.0 464.0 -554.0 480.0 -526.0 495.5 -498.0 494.5 -473.0 495.0 -455.5 484.5 -431.0 474.5 -406.0 447.5 -380.5 420.5 -354.5 370.5 -334.5 L370.5 -332.5 Q406.0 -328.0 440.5 -311.5 475.5 -294.5 498.5 -266.5 522.0 -238.5 523.0 -199.5 522.5 -140.5 478.0 -94.5 434.0 -48.5 350.0 -22.0 266.5 4.5 148.5 5.0 L130.0 5.0 Q131.5 -10.5 132.5 -46.0 133.5 -81.5 134.0 -126.0 134.5 -170.5 134.5 -213.5 135.0 -256.5 135.0 -286.5 135.0 -316.0 135.0 -322.5" fill-rule="evenodd" stroke="none"/>
    </g>
    <g id="font_Lithos_Pro_Regular__2">
      <path d="M53.5 82.0 L4.5 20.5 Q24.0 11.0 54.0 -18.5 83.5 -48.0 113.5 -96.5 144.0 -145.0 164.5 -212.0 184.5 -279.0 185.5 -364.5 185.0 -434.5 167.0 -495.0 149.5 -555.5 121.5 -603.0 93.5 -651.0 62.5 -683.0 31.5 -715.5 4.5 -729.0 L53.5 -794.5 Q83.5 -775.5 120.0 -738.5 156.5 -702.0 190.0 -648.5 224.0 -595.0 246.0 -526.0 267.5 -457.5 268.5 -374.5 267.5 -285.5 246.0 -210.5 224.0 -136.0 190.0 -77.5 156.5 -19.0 120.0 21.5 83.5 62.0 53.5 82.0" fill-rule="evenodd" stroke="none"/>
    </g>
  </defs>
</svg>
