<?xml version="1.0" encoding="UTF-8" standalone="no"?>
<svg xmlns:ffdec="https://www.free-decompiler.com/flash" xmlns:xlink="http://www.w3.org/1999/xlink" ffdec:objectType="frame" height="122.15px" width="169.6px" xmlns="http://www.w3.org/2000/svg">
  <g transform="matrix(1.0, 0.0, 0.0, 1.0, 9.9, 68.0)">
    <use ffdec:characterId="91" height="84.0" transform="matrix(0.8546, 0.0, 0.0, 0.7262, 13.1497, -25.8616)" width="33.3" xlink:href="#shape0"/>
    <use ffdec:characterId="96" height="94.9" transform="matrix(1.1845, 0.0, 0.0, 0.7712, 26.8081, -36.127)" width="35.9" xlink:href="#shape1"/>
    <use ffdec:characterId="96" height="94.9" transform="matrix(1.1845, 0.0, 0.0, 0.7712, 51.0081, -35.827)" width="35.9" xlink:href="#shape1"/>
    <use ffdec:characterId="91" height="84.0" transform="matrix(1.967, 0.0, 0.0, 0.9107, 56.9556, -37.4037)" width="33.3" xlink:href="#shape0"/>
    <use ffdec:characterId="91" height="84.0" transform="matrix(2.2839, 0.0, 0.0, 0.9686, 72.4662, -43.615)" width="33.3" xlink:href="#shape0"/>
    <use ffdec:characterId="91" height="84.0" transform="matrix(0.5817, -0.026, 0.026, 0.5817, 14.6123, -26.2486)" width="33.3" xlink:href="#shape0"/>
    <use ffdec:characterId="96" height="94.9" transform="matrix(0.8063, -0.0361, 0.0276, 0.6178, 23.5355, -34.9104)" width="35.9" xlink:href="#shape1"/>
    <use ffdec:characterId="96" height="94.9" transform="matrix(0.8063, -0.0361, 0.0276, 0.6178, 40.0855, -35.4104)" width="35.9" xlink:href="#shape1"/>
    <use ffdec:characterId="91" height="84.0" transform="matrix(1.339, -0.0599, 0.0327, 0.7296, 44.097, -36.8389)" width="33.3" xlink:href="#shape0"/>
    <use ffdec:characterId="91" height="84.0" transform="matrix(1.5547, -0.0696, 0.0347, 0.776, 54.3885, -42.2703)" width="33.3" xlink:href="#shape0"/>
    <use ffdec:characterId="91" height="84.0" transform="matrix(0.58, 0.0513, -0.0513, 0.58, 21.4854, -4.8099)" width="33.3" xlink:href="#shape0"/>
    <use ffdec:characterId="96" height="94.9" transform="matrix(0.804, 0.0712, -0.0545, 0.616, 31.4855, -12.1863)" width="35.9" xlink:href="#shape1"/>
    <use ffdec:characterId="96" height="94.9" transform="matrix(0.804, 0.0712, -0.0545, 0.616, 47.8855, -10.5363)" width="35.9" xlink:href="#shape1"/>
    <use ffdec:characterId="91" height="84.0" transform="matrix(1.3351, 0.1181, -0.0644, 0.7275, 52.0583, -11.4113)" width="33.3" xlink:href="#shape0"/>
    <use ffdec:characterId="91" height="84.0" transform="matrix(1.5501, 0.1372, -0.0685, 0.7737, 62.9779, -15.4146)" width="33.3" xlink:href="#shape0"/>
  </g>
  <defs>
    <g id="shape0" transform="matrix(1.0, 0.0, 0.0, 1.0, 16.85, 83.95)">
      <path d="M0.6 -83.95 L2.4 -83.8 2.5 -83.75 2.55 -83.05 2.4 -82.2 2.35 -82.0 1.45 -81.8 0.65 -82.05 Q0.45 -82.15 0.4 -82.2 L0.4 -82.9 0.4 -83.6 0.6 -83.95 M4.55 -61.4 Q7.6 -58.85 9.45 -55.85 11.35 -52.7 11.35 -49.95 11.35 -47.55 9.15 -45.4 6.95 -43.2 6.95 -42.05 L7.05 -40.85 Q10.35 -39.6 13.2 -35.5 16.45 -30.85 16.45 -27.45 16.45 -26.45 14.7 -23.75 12.95 -21.05 12.95 -20.5 12.95 -19.2 14.7 -16.55 16.45 -13.95 16.45 -12.65 16.45 -6.45 4.2 -0.8 L2.1 -0.8 2.0 -0.75 -0.2 0.05 -1.1 0.0 -2.4 0.05 Q-9.0 0.05 -13.55 -8.15 -15.0 -10.85 -16.05 -13.95 L-16.85 -16.7 Q-16.85 -20.85 -12.45 -24.05 L-9.45 -26.3 Q-8.05 -27.5 -8.05 -28.85 -8.05 -30.45 -10.7 -33.75 -13.35 -37.0 -13.35 -39.05 -13.35 -40.55 -7.2 -47.2 -3.85 -50.8 -2.35 -53.1 L-2.2 -53.95 -1.85 -57.2 -2.15 -57.5 -2.3 -57.65 -2.25 -58.25 Q-2.25 -60.2 -3.1 -61.75 L-2.9 -64.15 Q-2.4 -65.55 -0.5 -66.5 1.75 -65.15 2.15 -64.2 2.7 -62.95 4.55 -61.4 M3.55 -64.65 L4.9 -63.45 4.75 -63.45 Q3.6 -64.1 3.1 -65.15 L3.55 -64.65 M3.65 -17.0 Q6.5 -17.2 6.5 -22.25 6.5 -26.95 2.8 -25.9 1.45 -25.5 0.25 -24.55 -0.95 -23.55 -0.95 -22.9 -0.95 -22.0 -0.4 -20.8 -2.35 -21.2 -4.4 -19.75 -7.05 -17.8 -7.05 -15.9 L-7.1 -14.75 Q-7.1 -13.45 -6.65 -12.4 -5.1 -9.15 0.4 -9.15 2.75 -9.15 3.9 -10.6 4.75 -11.65 4.75 -13.05 4.75 -14.7 3.8 -16.75 L3.65 -17.0 M-0.5 -77.9 Q-0.5 -77.25 -1.35 -76.2 L-2.25 -75.25 Q-3.55 -76.55 -3.55 -77.45 -3.55 -79.85 -0.65 -78.95 L-0.6 -78.75 -0.5 -77.9" fill="#ff9933" fill-opacity="0.6666667" fill-rule="evenodd" stroke="none"/>
      <path d="M3.65 -17.0 L3.8 -16.75 Q4.75 -14.7 4.75 -13.05 4.75 -11.65 3.9 -10.6 2.75 -9.15 0.4 -9.15 -5.1 -9.15 -6.65 -12.4 -7.1 -13.45 -7.1 -14.75 L-7.05 -15.9 Q-7.05 -17.8 -4.4 -19.75 -2.35 -21.2 -0.4 -20.8 -0.95 -22.0 -0.95 -22.9 -0.95 -23.55 0.25 -24.55 1.45 -25.5 2.8 -25.9 6.5 -26.95 6.5 -22.25 6.5 -17.2 3.65 -17.0" fill="#fdcd73" fill-opacity="0.6666667" fill-rule="evenodd" stroke="none"/>
    </g>
    <g id="shape1" transform="matrix(1.0, 0.0, 0.0, 1.0, 15.4, 97.55)">
      <path d="M7.65 -88.15 L7.8 -86.4 7.8 -85.5 Q9.55 -84.85 10.6 -82.05 11.75 -79.0 11.75 -74.5 L11.6 -69.4 Q11.05 -66.6 8.7 -64.75 7.95 -65.35 7.55 -66.8 L6.95 -69.3 5.35 -71.7 Q3.95 -73.45 3.0 -73.45 -1.45 -73.45 -2.5 -71.75 -3.1 -70.8 -3.55 -69.1 -4.2 -69.45 -4.4 -70.65 L-4.45 -72.7 Q-4.45 -77.4 -3.7 -78.9 -2.3 -81.75 3.45 -84.85 4.65 -85.5 5.7 -85.65 L5.65 -86.3 5.75 -87.75 Q6.15 -88.65 7.65 -88.15 M6.5 -93.65 Q5.4 -93.65 5.0 -94.3 4.75 -94.75 4.75 -95.7 4.75 -97.5 6.5 -97.55 8.25 -97.6 8.25 -96.15 8.25 -95.35 7.6 -94.45 6.95 -93.65 6.5 -93.65 M1.75 -90.85 Q3.25 -92.55 5.0 -91.65 L5.2 -89.7 Q5.2 -86.15 2.35 -85.8 L1.75 -85.1 Q2.35 -84.9 1.25 -84.9 0.6 -84.9 0.2 -85.75 L0.15 -85.95 -0.05 -86.0 -0.05 -88.35 1.75 -90.85 M0.55 -54.0 L1.3 -51.8 1.6 -51.55 1.9 -51.55 Q2.8 -51.55 3.9 -53.15 L3.45 -54.15 Q3.0 -54.6 3.0 -55.2 L3.05 -55.85 3.25 -56.15 3.75 -56.3 4.75 -56.4 Q7.3 -56.4 9.15 -52.95 10.05 -51.25 10.45 -49.4 10.45 -48.85 10.05 -48.1 10.2 -44.4 12.85 -42.2 15.7 -39.8 15.7 -34.9 L15.25 -33.15 14.85 -31.35 Q14.85 -29.95 17.65 -25.7 20.5 -21.4 20.5 -16.9 20.5 -13.15 17.5 -7.6 L16.35 -5.65 15.15 -5.2 Q8.95 -2.75 4.45 -2.75 L-3.4 -2.65 -5.85 -4.15 -11.45 -8.85 Q-15.4 -12.1 -15.4 -19.0 -15.4 -25.95 -12.75 -32.45 -10.15 -39.0 -10.15 -39.7 -10.15 -40.3 -10.8 -42.3 L-11.45 -45.35 Q-11.45 -48.15 -10.2 -49.85 L-8.75 -51.45 Q-8.7 -52.45 -8.25 -53.3 -7.7 -54.45 -6.15 -56.0 L-5.95 -56.2 -6.15 -56.75 -5.8 -56.4 -3.55 -58.95 Q-1.7 -60.6 0.2 -59.7 L0.15 -57.65 0.0 -55.75 Q0.0 -55.3 0.55 -54.0 M0.4 -24.0 L0.4 -23.75 Q-2.4 -22.9 -4.0 -21.5 -6.2 -19.55 -6.2 -16.35 -6.2 -13.2 -3.8 -10.8 -1.2 -8.25 2.55 -8.25 8.65 -8.25 11.1 -11.1 12.65 -12.9 12.65 -15.6 12.65 -18.2 11.05 -21.25 10.1 -23.25 8.85 -24.15 9.55 -25.7 9.55 -27.45 9.55 -29.7 8.15 -30.75 6.8 -31.75 5.0 -31.3 0.4 -30.1 0.4 -24.0" fill="#ff9933" fill-rule="evenodd" stroke="none"/>
      <path d="M0.4 -24.0 Q0.4 -30.1 5.0 -31.3 6.8 -31.75 8.15 -30.75 9.55 -29.7 9.55 -27.45 9.55 -25.7 8.85 -24.15 10.1 -23.25 11.05 -21.25 12.65 -18.2 12.65 -15.6 12.65 -12.9 11.1 -11.1 8.65 -8.25 2.55 -8.25 -1.2 -8.25 -3.8 -10.8 -6.2 -13.2 -6.2 -16.35 -6.2 -19.55 -4.0 -21.5 -2.4 -22.9 0.4 -23.75 L0.4 -24.0" fill="#fdcd73" fill-rule="evenodd" stroke="none"/>
    </g>
  </defs>
</svg>
