<?xml version="1.0" encoding="UTF-8" standalone="no"?>
<svg xmlns:ffdec="https://www.free-decompiler.com/flash" xmlns:xlink="http://www.w3.org/1999/xlink" ffdec:objectType="frame" height="122.15px" width="169.6px" xmlns="http://www.w3.org/2000/svg">
  <g transform="matrix(1.0, 0.0, 0.0, 1.0, 9.9, 68.0)">
    <use ffdec:characterId="96" height="94.9" transform="matrix(1.1845, 0.0, 0.0, 0.7712, 51.0081, -39.927)" width="35.9" xlink:href="#shape0"/>
    <use ffdec:characterId="94" height="86.3" transform="matrix(2.0609, 0.0, 0.0, 0.9404, 57.7371, -47.9614)" width="35.45" xlink:href="#shape1"/>
    <use ffdec:characterId="94" height="86.3" transform="matrix(2.4504, 0.0, 0.0, 1.0118, 70.2343, -54.5747)" width="35.45" xlink:href="#shape2"/>
    <use ffdec:characterId="96" height="94.9" transform="matrix(0.8063, -0.0361, 0.0276, 0.6178, 39.9355, -38.7104)" width="35.9" xlink:href="#shape0"/>
    <use ffdec:characterId="94" height="86.3" transform="matrix(1.4029, -0.0628, 0.0337, 0.7534, 44.1976, -45.328)" width="35.45" xlink:href="#shape3"/>
    <use ffdec:characterId="94" height="86.3" transform="matrix(1.6679, -0.0747, 0.0363, 0.8105, 52.5361, -50.9677)" width="35.45" xlink:href="#shape4"/>
    <use ffdec:characterId="96" height="94.9" transform="matrix(0.804, 0.0712, -0.0545, 0.616, 48.1855, -13.7863)" width="35.9" xlink:href="#shape0"/>
    <use ffdec:characterId="94" height="86.3" transform="matrix(1.3988, 0.1238, -0.0665, 0.7512, 53.2898, -19.8357)" width="35.45" xlink:href="#shape3"/>
    <use ffdec:characterId="94" height="86.3" transform="matrix(1.6631, 0.1472, -0.0715, 0.8082, 62.3022, -24.3679)" width="35.45" xlink:href="#shape4"/>
  </g>
  <defs>
    <g id="shape0" transform="matrix(1.0, 0.0, 0.0, 1.0, 15.4, 97.55)">
      <path d="M7.65 -88.15 L7.8 -86.4 7.8 -85.5 Q9.55 -84.85 10.6 -82.05 11.75 -79.0 11.75 -74.5 L11.6 -69.4 Q11.05 -66.6 8.7 -64.75 7.95 -65.35 7.55 -66.8 L6.95 -69.3 5.35 -71.7 Q3.95 -73.45 3.0 -73.45 -1.45 -73.45 -2.5 -71.75 -3.1 -70.8 -3.55 -69.1 -4.2 -69.45 -4.4 -70.65 L-4.45 -72.7 Q-4.45 -77.4 -3.7 -78.9 -2.3 -81.75 3.45 -84.85 4.65 -85.5 5.7 -85.65 L5.65 -86.3 5.75 -87.75 Q6.15 -88.65 7.65 -88.15 M6.5 -93.65 Q5.4 -93.65 5.0 -94.3 4.75 -94.75 4.75 -95.7 4.75 -97.5 6.5 -97.55 8.25 -97.6 8.25 -96.15 8.25 -95.35 7.6 -94.45 6.95 -93.65 6.5 -93.65 M1.75 -90.85 Q3.25 -92.55 5.0 -91.65 L5.2 -89.7 Q5.2 -86.15 2.35 -85.8 L1.75 -85.1 Q2.35 -84.9 1.25 -84.9 0.6 -84.9 0.2 -85.75 L0.15 -85.95 -0.05 -86.0 -0.05 -88.35 1.75 -90.85 M0.55 -54.0 L1.3 -51.8 1.6 -51.55 1.9 -51.55 Q2.8 -51.55 3.9 -53.15 L3.45 -54.15 Q3.0 -54.6 3.0 -55.2 L3.05 -55.85 3.25 -56.15 3.75 -56.3 4.75 -56.4 Q7.3 -56.4 9.15 -52.95 10.05 -51.25 10.45 -49.4 10.45 -48.85 10.05 -48.1 10.2 -44.4 12.85 -42.2 15.7 -39.8 15.7 -34.9 L15.25 -33.15 14.85 -31.35 Q14.85 -29.95 17.65 -25.7 20.5 -21.4 20.5 -16.9 20.5 -13.15 17.5 -7.6 L16.35 -5.65 15.15 -5.2 Q8.95 -2.75 4.45 -2.75 L-3.4 -2.65 -5.85 -4.15 -11.45 -8.85 Q-15.4 -12.1 -15.4 -19.0 -15.4 -25.95 -12.75 -32.45 -10.15 -39.0 -10.15 -39.7 -10.15 -40.3 -10.8 -42.3 L-11.45 -45.35 Q-11.45 -48.15 -10.2 -49.85 L-8.75 -51.45 Q-8.7 -52.45 -8.25 -53.3 -7.7 -54.45 -6.15 -56.0 L-5.95 -56.2 -6.15 -56.75 -5.8 -56.4 -3.55 -58.95 Q-1.7 -60.6 0.2 -59.7 L0.15 -57.65 0.0 -55.75 Q0.0 -55.3 0.55 -54.0 M0.4 -24.0 L0.4 -23.75 Q-2.4 -22.9 -4.0 -21.5 -6.2 -19.55 -6.2 -16.35 -6.2 -13.2 -3.8 -10.8 -1.2 -8.25 2.55 -8.25 8.65 -8.25 11.1 -11.1 12.65 -12.9 12.65 -15.6 12.65 -18.2 11.05 -21.25 10.1 -23.25 8.85 -24.15 9.55 -25.7 9.55 -27.45 9.55 -29.7 8.15 -30.75 6.8 -31.75 5.0 -31.3 0.4 -30.1 0.4 -24.0" fill="#ff9933" fill-opacity="0.0" fill-rule="evenodd" stroke="none"/>
      <path d="M0.4 -24.0 Q0.4 -30.1 5.0 -31.3 6.8 -31.75 8.15 -30.75 9.55 -29.7 9.55 -27.45 9.55 -25.7 8.85 -24.15 10.1 -23.25 11.05 -21.25 12.65 -18.2 12.65 -15.6 12.65 -12.9 11.1 -11.1 8.65 -8.25 2.55 -8.25 -1.2 -8.25 -3.8 -10.8 -6.2 -13.2 -6.2 -16.35 -6.2 -19.55 -4.0 -21.5 -2.4 -22.9 0.4 -23.75 L0.4 -24.0" fill="#fdcd73" fill-opacity="0.0" fill-rule="evenodd" stroke="none"/>
    </g>
    <g id="shape1" transform="matrix(1.0, 0.0, 0.0, 1.0, 15.8, 87.1)">
      <path d="M14.85 -79.35 L14.4 -78.95 Q14.3 -77.15 13.1 -76.1 12.55 -76.85 12.55 -77.55 L12.65 -78.3 Q12.65 -79.25 10.45 -80.05 8.25 -80.9 8.25 -81.75 8.25 -82.95 8.7 -83.7 L8.7 -83.95 Q8.7 -85.65 11.05 -86.75 13.55 -87.95 14.85 -85.3 L14.85 -79.35 M12.7 -83.95 L12.65 -84.2 12.5 -84.1 12.7 -83.95 M8.7 -69.1 L8.6 -67.85 Q7.8 -59.75 6.8 -56.65 L6.95 -55.5 Q6.95 -52.65 5.65 -50.75 4.3 -48.9 4.3 -47.45 4.3 -46.35 4.95 -45.1 5.7 -43.65 6.75 -43.45 L7.2 -44.45 7.4 -45.45 7.45 -45.7 8.25 -45.9 Q8.6 -45.9 9.15 -44.75 8.85 -45.7 8.8 -46.9 9.15 -46.0 9.8 -44.8 10.7 -43.1 11.75 -42.2 L11.75 -39.95 11.45 -39.75 11.35 -39.6 11.35 -39.2 10.9 -35.75 10.45 -32.3 Q10.45 -29.6 14.05 -27.25 L18.1 -24.2 19.4 -19.6 19.65 -15.85 19.65 -14.6 19.45 -14.15 Q18.25 -11.85 14.75 -8.2 L9.6 -2.75 8.85 -1.75 5.7 -0.8 5.4 -0.8 Q-1.95 -0.8 -3.5 -2.1 -3.85 -2.4 -5.5 -2.8 L-7.05 -3.7 -8.6 -4.7 Q-10.3 -5.75 -11.45 -7.15 L-13.15 -9.55 Q-14.95 -12.0 -15.45 -14.85 -15.8 -16.6 -15.8 -20.15 -15.8 -26.85 -13.5 -31.5 L-12.7 -32.35 Q-11.6 -33.1 -10.4 -34.95 -9.95 -35.7 -9.05 -37.55 -6.85 -42.0 -6.4 -43.35 -5.75 -45.3 -5.75 -48.05 -5.75 -50.2 -6.7 -52.2 L-6.4 -52.5 -6.3 -52.55 -7.05 -52.7 -8.8 -52.9 -9.25 -53.0 -10.15 -52.9 -10.85 -53.6 -11.0 -54.65 -11.0 -54.85 -11.0 -57.15 Q-11.0 -60.95 -7.95 -65.85 -5.05 -70.35 -1.15 -73.3 2.9 -76.4 5.65 -75.7 8.0 -75.05 8.55 -71.45 L8.7 -69.1 M-5.75 -23.2 L-6.2 -21.95 -6.15 -20.3 Q-5.95 -19.7 -5.4 -19.35 -6.65 -18.25 -6.65 -17.0 -6.65 -14.0 -3.75 -10.9 -0.1 -6.95 5.65 -6.95 10.9 -6.95 10.9 -12.75 10.9 -17.2 8.45 -19.55 L8.7 -20.1 Q8.7 -21.75 7.4 -22.9 5.65 -24.4 1.65 -24.45 1.1 -29.15 0.3 -30.2 L1.1 -29.65 Q0.05 -30.35 -0.45 -31.0 -2.8 -33.15 -4.55 -31.35 -6.2 -29.6 -6.2 -27.2 L-5.75 -25.8 Q-5.3 -24.95 -5.3 -24.4 -5.3 -23.85 -5.75 -23.2 M0.8 -43.25 Q0.35 -43.7 -0.5 -43.7 -2.25 -43.7 -2.25 -41.85 L-2.2 -40.9 -2.0 -40.45 -1.15 -40.2 Q-0.75 -40.2 0.15 -40.9 1.25 -41.6 1.25 -42.3 L0.8 -43.25" fill="#ff9933" fill-opacity="0.24705882" fill-rule="evenodd" stroke="none"/>
      <path d="M0.8 -43.25 L1.25 -42.3 Q1.25 -41.6 0.15 -40.9 -0.75 -40.2 -1.15 -40.2 L-2.0 -40.45 -2.2 -40.9 -2.25 -41.85 Q-2.25 -43.7 -0.5 -43.7 0.35 -43.7 0.8 -43.25 M-5.75 -23.2 Q-5.3 -23.85 -5.3 -24.4 -5.3 -24.95 -5.75 -25.8 L-6.2 -27.2 Q-6.2 -29.6 -4.55 -31.35 -2.8 -33.15 -0.45 -31.0 0.05 -30.35 1.1 -29.65 L0.3 -30.2 Q1.1 -29.15 1.65 -24.45 5.65 -24.4 7.4 -22.9 8.7 -21.75 8.7 -20.1 L8.45 -19.55 Q10.9 -17.2 10.9 -12.75 10.9 -6.95 5.65 -6.95 -0.1 -6.95 -3.75 -10.9 -6.65 -14.0 -6.65 -17.0 -6.65 -18.25 -5.4 -19.35 -5.95 -19.7 -6.15 -20.3 L-6.2 -21.95 -5.75 -23.2" fill="#fdcd73" fill-opacity="0.24705882" fill-rule="evenodd" stroke="none"/>
    </g>
    <g id="shape2" transform="matrix(1.0, 0.0, 0.0, 1.0, 15.8, 87.1)">
      <path d="M14.85 -79.35 L14.4 -78.95 Q14.3 -77.15 13.1 -76.1 12.55 -76.85 12.55 -77.55 L12.65 -78.3 Q12.65 -79.25 10.45 -80.05 8.25 -80.9 8.25 -81.75 8.25 -82.95 8.7 -83.7 L8.7 -83.95 Q8.7 -85.65 11.05 -86.75 13.55 -87.95 14.85 -85.3 L14.85 -79.35 M12.7 -83.95 L12.65 -84.2 12.5 -84.1 12.7 -83.95 M8.7 -69.1 L8.6 -67.85 Q7.8 -59.75 6.8 -56.65 L6.95 -55.5 Q6.95 -52.65 5.65 -50.75 4.3 -48.9 4.3 -47.45 4.3 -46.35 4.95 -45.1 5.7 -43.65 6.75 -43.45 L7.2 -44.45 7.4 -45.45 7.45 -45.7 8.25 -45.9 Q8.6 -45.9 9.15 -44.75 8.85 -45.7 8.8 -46.9 9.15 -46.0 9.8 -44.8 10.7 -43.1 11.75 -42.2 L11.75 -39.95 11.45 -39.75 11.35 -39.6 11.35 -39.2 10.9 -35.75 10.45 -32.3 Q10.45 -29.6 14.05 -27.25 L18.1 -24.2 19.4 -19.6 19.65 -15.85 19.65 -14.6 19.45 -14.15 Q18.25 -11.85 14.75 -8.2 L9.6 -2.75 8.85 -1.75 5.7 -0.8 5.4 -0.8 Q-1.95 -0.8 -3.5 -2.1 -3.85 -2.4 -5.5 -2.8 L-7.05 -3.7 -8.6 -4.7 Q-10.3 -5.75 -11.45 -7.15 L-13.15 -9.55 Q-14.95 -12.0 -15.45 -14.85 -15.8 -16.6 -15.8 -20.15 -15.8 -26.85 -13.5 -31.5 L-12.7 -32.35 Q-11.6 -33.1 -10.4 -34.95 -9.95 -35.7 -9.05 -37.55 -6.85 -42.0 -6.4 -43.35 -5.75 -45.3 -5.75 -48.05 -5.75 -50.2 -6.7 -52.2 L-6.4 -52.5 -6.3 -52.55 -7.05 -52.7 -8.8 -52.9 -9.25 -53.0 -10.15 -52.9 -10.85 -53.6 -11.0 -54.65 -11.0 -54.85 -11.0 -57.15 Q-11.0 -60.95 -7.95 -65.85 -5.05 -70.35 -1.15 -73.3 2.9 -76.4 5.65 -75.7 8.0 -75.05 8.55 -71.45 L8.7 -69.1 M-5.75 -23.2 L-6.2 -21.95 -6.15 -20.3 Q-5.95 -19.7 -5.4 -19.35 -6.65 -18.25 -6.65 -17.0 -6.65 -14.0 -3.75 -10.9 -0.1 -6.95 5.65 -6.95 10.9 -6.95 10.9 -12.75 10.9 -17.2 8.45 -19.55 L8.7 -20.1 Q8.7 -21.75 7.4 -22.9 5.65 -24.4 1.65 -24.45 1.1 -29.15 0.3 -30.2 L1.1 -29.65 Q0.05 -30.35 -0.45 -31.0 -2.8 -33.15 -4.55 -31.35 -6.2 -29.6 -6.2 -27.2 L-5.75 -25.8 Q-5.3 -24.95 -5.3 -24.4 -5.3 -23.85 -5.75 -23.2 M0.8 -43.25 Q0.35 -43.7 -0.5 -43.7 -2.25 -43.7 -2.25 -41.85 L-2.2 -40.9 -2.0 -40.45 -1.15 -40.2 Q-0.75 -40.2 0.15 -40.9 1.25 -41.6 1.25 -42.3 L0.8 -43.25" fill="#ff9933" fill-opacity="0.39607844" fill-rule="evenodd" stroke="none"/>
      <path d="M0.8 -43.25 L1.25 -42.3 Q1.25 -41.6 0.15 -40.9 -0.75 -40.2 -1.15 -40.2 L-2.0 -40.45 -2.2 -40.9 -2.25 -41.85 Q-2.25 -43.7 -0.5 -43.7 0.35 -43.7 0.8 -43.25 M-5.75 -23.2 Q-5.3 -23.85 -5.3 -24.4 -5.3 -24.95 -5.75 -25.8 L-6.2 -27.2 Q-6.2 -29.6 -4.55 -31.35 -2.8 -33.15 -0.45 -31.0 0.05 -30.35 1.1 -29.65 L0.3 -30.2 Q1.1 -29.15 1.65 -24.45 5.65 -24.4 7.4 -22.9 8.7 -21.75 8.7 -20.1 L8.45 -19.55 Q10.9 -17.2 10.9 -12.75 10.9 -6.95 5.65 -6.95 -0.1 -6.95 -3.75 -10.9 -6.65 -14.0 -6.65 -17.0 -6.65 -18.25 -5.4 -19.35 -5.95 -19.7 -6.15 -20.3 L-6.2 -21.95 -5.75 -23.2" fill="#fdcd73" fill-opacity="0.39607844" fill-rule="evenodd" stroke="none"/>
    </g>
    <g id="shape3" transform="matrix(1.0, 0.0, 0.0, 1.0, 15.8, 87.1)">
      <path d="M14.85 -79.35 L14.4 -78.95 Q14.3 -77.15 13.1 -76.1 12.55 -76.85 12.55 -77.55 L12.65 -78.3 Q12.65 -79.25 10.45 -80.05 8.25 -80.9 8.25 -81.75 8.25 -82.95 8.7 -83.7 L8.7 -83.95 Q8.7 -85.65 11.05 -86.75 13.55 -87.95 14.85 -85.3 L14.85 -79.35 M12.7 -83.95 L12.65 -84.2 12.5 -84.1 12.7 -83.95 M8.7 -69.1 L8.6 -67.85 Q7.8 -59.75 6.8 -56.65 L6.95 -55.5 Q6.95 -52.65 5.65 -50.75 4.3 -48.9 4.3 -47.45 4.3 -46.35 4.95 -45.1 5.7 -43.65 6.75 -43.45 L7.2 -44.45 7.4 -45.45 7.45 -45.7 8.25 -45.9 Q8.6 -45.9 9.15 -44.75 8.85 -45.7 8.8 -46.9 9.15 -46.0 9.8 -44.8 10.7 -43.1 11.75 -42.2 L11.75 -39.95 11.45 -39.75 11.35 -39.6 11.35 -39.2 10.9 -35.75 10.45 -32.3 Q10.45 -29.6 14.05 -27.25 L18.1 -24.2 19.4 -19.6 19.65 -15.85 19.65 -14.6 19.45 -14.15 Q18.25 -11.85 14.75 -8.2 L9.6 -2.75 8.85 -1.75 5.7 -0.8 5.4 -0.8 Q-1.95 -0.8 -3.5 -2.1 -3.85 -2.4 -5.5 -2.8 L-7.05 -3.7 -8.6 -4.7 Q-10.3 -5.75 -11.45 -7.15 L-13.15 -9.55 Q-14.95 -12.0 -15.45 -14.85 -15.8 -16.6 -15.8 -20.15 -15.8 -26.85 -13.5 -31.5 L-12.7 -32.35 Q-11.6 -33.1 -10.4 -34.95 -9.95 -35.7 -9.05 -37.55 -6.85 -42.0 -6.4 -43.35 -5.75 -45.3 -5.75 -48.05 -5.75 -50.2 -6.7 -52.2 L-6.4 -52.5 -6.3 -52.55 -7.05 -52.7 -8.8 -52.9 -9.25 -53.0 -10.15 -52.9 -10.85 -53.6 -11.0 -54.65 -11.0 -54.85 -11.0 -57.15 Q-11.0 -60.95 -7.95 -65.85 -5.05 -70.35 -1.15 -73.3 2.9 -76.4 5.65 -75.7 8.0 -75.05 8.55 -71.45 L8.7 -69.1 M-5.75 -23.2 L-6.2 -21.95 -6.15 -20.3 Q-5.95 -19.7 -5.4 -19.35 -6.65 -18.25 -6.65 -17.0 -6.65 -14.0 -3.75 -10.9 -0.1 -6.95 5.65 -6.95 10.9 -6.95 10.9 -12.75 10.9 -17.2 8.45 -19.55 L8.7 -20.1 Q8.7 -21.75 7.4 -22.9 5.65 -24.4 1.65 -24.45 1.1 -29.15 0.3 -30.2 L1.1 -29.65 Q0.05 -30.35 -0.45 -31.0 -2.8 -33.15 -4.55 -31.35 -6.2 -29.6 -6.2 -27.2 L-5.75 -25.8 Q-5.3 -24.95 -5.3 -24.4 -5.3 -23.85 -5.75 -23.2 M0.8 -43.25 Q0.35 -43.7 -0.5 -43.7 -2.25 -43.7 -2.25 -41.85 L-2.2 -40.9 -2.0 -40.45 -1.15 -40.2 Q-0.75 -40.2 0.15 -40.9 1.25 -41.6 1.25 -42.3 L0.8 -43.25" fill="#ff9933" fill-opacity="0.09411765" fill-rule="evenodd" stroke="none"/>
      <path d="M0.8 -43.25 L1.25 -42.3 Q1.25 -41.6 0.15 -40.9 -0.75 -40.2 -1.15 -40.2 L-2.0 -40.45 -2.2 -40.9 -2.25 -41.85 Q-2.25 -43.7 -0.5 -43.7 0.35 -43.7 0.8 -43.25 M-5.75 -23.2 Q-5.3 -23.85 -5.3 -24.4 -5.3 -24.95 -5.75 -25.8 L-6.2 -27.2 Q-6.2 -29.6 -4.55 -31.35 -2.8 -33.15 -0.45 -31.0 0.05 -30.35 1.1 -29.65 L0.3 -30.2 Q1.1 -29.15 1.65 -24.45 5.65 -24.4 7.4 -22.9 8.7 -21.75 8.7 -20.1 L8.45 -19.55 Q10.9 -17.2 10.9 -12.75 10.9 -6.95 5.65 -6.95 -0.1 -6.95 -3.75 -10.9 -6.65 -14.0 -6.65 -17.0 -6.65 -18.25 -5.4 -19.35 -5.95 -19.7 -6.15 -20.3 L-6.2 -21.95 -5.75 -23.2" fill="#fdcd73" fill-opacity="0.09411765" fill-rule="evenodd" stroke="none"/>
    </g>
    <g id="shape4" transform="matrix(1.0, 0.0, 0.0, 1.0, 15.8, 87.1)">
      <path d="M14.85 -79.35 L14.4 -78.95 Q14.3 -77.15 13.1 -76.1 12.55 -76.85 12.55 -77.55 L12.65 -78.3 Q12.65 -79.25 10.45 -80.05 8.25 -80.9 8.25 -81.75 8.25 -82.95 8.7 -83.7 L8.7 -83.95 Q8.7 -85.65 11.05 -86.75 13.55 -87.95 14.85 -85.3 L14.85 -79.35 M12.7 -83.95 L12.65 -84.2 12.5 -84.1 12.7 -83.95 M8.7 -69.1 L8.6 -67.85 Q7.8 -59.75 6.8 -56.65 L6.95 -55.5 Q6.95 -52.65 5.65 -50.75 4.3 -48.9 4.3 -47.45 4.3 -46.35 4.95 -45.1 5.7 -43.65 6.75 -43.45 L7.2 -44.45 7.4 -45.45 7.45 -45.7 8.25 -45.9 Q8.6 -45.9 9.15 -44.75 8.85 -45.7 8.8 -46.9 9.15 -46.0 9.8 -44.8 10.7 -43.1 11.75 -42.2 L11.75 -39.95 11.45 -39.75 11.35 -39.6 11.35 -39.2 10.9 -35.75 10.45 -32.3 Q10.45 -29.6 14.05 -27.25 L18.1 -24.2 19.4 -19.6 19.65 -15.85 19.65 -14.6 19.45 -14.15 Q18.25 -11.85 14.75 -8.2 L9.6 -2.75 8.85 -1.75 5.7 -0.8 5.4 -0.8 Q-1.95 -0.8 -3.5 -2.1 -3.85 -2.4 -5.5 -2.8 L-7.05 -3.7 -8.6 -4.7 Q-10.3 -5.75 -11.45 -7.15 L-13.15 -9.55 Q-14.95 -12.0 -15.45 -14.85 -15.8 -16.6 -15.8 -20.15 -15.8 -26.85 -13.5 -31.5 L-12.7 -32.35 Q-11.6 -33.1 -10.4 -34.95 -9.95 -35.7 -9.05 -37.55 -6.85 -42.0 -6.4 -43.35 -5.75 -45.3 -5.75 -48.05 -5.75 -50.2 -6.7 -52.2 L-6.4 -52.5 -6.3 -52.55 -7.05 -52.7 -8.8 -52.9 -9.25 -53.0 -10.15 -52.9 -10.85 -53.6 -11.0 -54.65 -11.0 -54.85 -11.0 -57.15 Q-11.0 -60.95 -7.95 -65.85 -5.05 -70.35 -1.15 -73.3 2.9 -76.4 5.65 -75.7 8.0 -75.05 8.55 -71.45 L8.7 -69.1 M-5.75 -23.2 L-6.2 -21.95 -6.15 -20.3 Q-5.95 -19.7 -5.4 -19.35 -6.65 -18.25 -6.65 -17.0 -6.65 -14.0 -3.75 -10.9 -0.1 -6.95 5.65 -6.95 10.9 -6.95 10.9 -12.75 10.9 -17.2 8.45 -19.55 L8.7 -20.1 Q8.7 -21.75 7.4 -22.9 5.65 -24.4 1.65 -24.45 1.1 -29.15 0.3 -30.2 L1.1 -29.65 Q0.05 -30.35 -0.45 -31.0 -2.8 -33.15 -4.55 -31.35 -6.2 -29.6 -6.2 -27.2 L-5.75 -25.8 Q-5.3 -24.95 -5.3 -24.4 -5.3 -23.85 -5.75 -23.2 M0.8 -43.25 Q0.35 -43.7 -0.5 -43.7 -2.25 -43.7 -2.25 -41.85 L-2.2 -40.9 -2.0 -40.45 -1.15 -40.2 Q-0.75 -40.2 0.15 -40.9 1.25 -41.6 1.25 -42.3 L0.8 -43.25" fill="#ff9933" fill-opacity="0.15294118" fill-rule="evenodd" stroke="none"/>
      <path d="M0.8 -43.25 L1.25 -42.3 Q1.25 -41.6 0.15 -40.9 -0.75 -40.2 -1.15 -40.2 L-2.0 -40.45 -2.2 -40.9 -2.25 -41.85 Q-2.25 -43.7 -0.5 -43.7 0.35 -43.7 0.8 -43.25 M-5.75 -23.2 Q-5.3 -23.85 -5.3 -24.4 -5.3 -24.95 -5.75 -25.8 L-6.2 -27.2 Q-6.2 -29.6 -4.55 -31.35 -2.8 -33.15 -0.45 -31.0 0.05 -30.35 1.1 -29.65 L0.3 -30.2 Q1.1 -29.15 1.65 -24.45 5.65 -24.4 7.4 -22.9 8.7 -21.75 8.7 -20.1 L8.45 -19.55 Q10.9 -17.2 10.9 -12.75 10.9 -6.95 5.65 -6.95 -0.1 -6.95 -3.75 -10.9 -6.65 -14.0 -6.65 -17.0 -6.65 -18.25 -5.4 -19.35 -5.95 -19.7 -6.15 -20.3 L-6.2 -21.95 -5.75 -23.2" fill="#fdcd73" fill-opacity="0.15294118" fill-rule="evenodd" stroke="none"/>
    </g>
  </defs>
</svg>
