<?xml version="1.0" encoding="UTF-8" standalone="no"?>
<svg xmlns:ffdec="https://www.free-decompiler.com/flash" xmlns:xlink="http://www.w3.org/1999/xlink" ffdec:objectType="frame" height="122.15px" width="169.6px" xmlns="http://www.w3.org/2000/svg">
  <g transform="matrix(1.0, 0.0, 0.0, 1.0, 9.9, 68.0)">
    <use ffdec:characterId="94" height="86.3" transform="matrix(0.5389, 0.0, 0.0, 0.4579, -6.9643, -2.6318)" width="35.45" xlink:href="#shape0"/>
    <use ffdec:characterId="93" height="97.2" transform="matrix(0.7471, 0.0, 0.0, 0.6348, 9.3517, -22.9392)" width="31.1" xlink:href="#shape1"/>
    <use ffdec:characterId="91" height="84.0" transform="matrix(0.7861, 0.0, 0.0, 0.668, 28.8537, -16.8273)" width="33.3" xlink:href="#shape2"/>
    <use ffdec:characterId="91" height="84.0" transform="matrix(0.7861, 0.0, 0.0, 0.668, 50.9037, -16.8273)" width="33.3" xlink:href="#shape2"/>
    <use ffdec:characterId="94" height="86.3" transform="matrix(0.3668, -0.0164, 0.0164, 0.3668, 1.8242, -6.9907)" width="35.45" xlink:href="#shape0"/>
    <use ffdec:characterId="93" height="97.2" transform="matrix(0.5086, -0.0228, 0.0228, 0.5086, 12.1565, -23.7685)" width="31.1" xlink:href="#shape1"/>
    <use ffdec:characterId="91" height="84.0" transform="matrix(0.5351, -0.024, 0.024, 0.5351, 25.672, -19.5201)" width="33.3" xlink:href="#shape2"/>
    <use ffdec:characterId="91" height="84.0" transform="matrix(0.5351, -0.024, 0.024, 0.5351, 40.672, -20.1701)" width="33.3" xlink:href="#shape2"/>
    <use ffdec:characterId="94" height="86.3" transform="matrix(0.3658, 0.0324, -0.0324, 0.3658, 6.19, 12.4815)" width="35.45" xlink:href="#shape0"/>
    <use ffdec:characterId="93" height="97.2" transform="matrix(0.5071, 0.0449, -0.0449, 0.5071, 18.6675, -2.7002)" width="31.1" xlink:href="#shape1"/>
    <use ffdec:characterId="91" height="84.0" transform="matrix(0.5336, 0.0472, -0.0472, 0.5336, 31.5227, 3.3614)" width="33.3" xlink:href="#shape2"/>
    <use ffdec:characterId="91" height="84.0" transform="matrix(0.5336, 0.0472, -0.0472, 0.5336, 46.4727, 4.6614)" width="33.3" xlink:href="#shape2"/>
  </g>
  <defs>
    <g id="shape0" transform="matrix(1.0, 0.0, 0.0, 1.0, 15.8, 87.1)">
      <path d="M14.85 -79.35 L14.4 -78.95 Q14.3 -77.15 13.1 -76.1 12.55 -76.85 12.55 -77.55 L12.65 -78.3 Q12.65 -79.25 10.45 -80.05 8.25 -80.9 8.25 -81.75 8.25 -82.95 8.7 -83.7 L8.7 -83.95 Q8.7 -85.65 11.05 -86.75 13.55 -87.95 14.85 -85.3 L14.85 -79.35 M12.7 -83.95 L12.65 -84.2 12.5 -84.1 12.7 -83.95 M8.7 -69.1 L8.6 -67.85 Q7.8 -59.75 6.8 -56.65 L6.95 -55.5 Q6.95 -52.65 5.65 -50.75 4.3 -48.9 4.3 -47.45 4.3 -46.35 4.95 -45.1 5.7 -43.65 6.75 -43.45 L7.2 -44.45 7.4 -45.45 7.45 -45.7 8.25 -45.9 Q8.6 -45.9 9.15 -44.75 8.85 -45.7 8.8 -46.9 9.15 -46.0 9.8 -44.8 10.7 -43.1 11.75 -42.2 L11.75 -39.95 11.45 -39.75 11.35 -39.6 11.35 -39.2 10.9 -35.75 10.45 -32.3 Q10.45 -29.6 14.05 -27.25 L18.1 -24.2 19.4 -19.6 19.65 -15.85 19.65 -14.6 19.45 -14.15 Q18.25 -11.85 14.75 -8.2 L9.6 -2.75 8.85 -1.75 5.7 -0.8 5.4 -0.8 Q-1.95 -0.8 -3.5 -2.1 -3.85 -2.4 -5.5 -2.8 L-7.05 -3.7 -8.6 -4.7 Q-10.3 -5.75 -11.45 -7.15 L-13.15 -9.55 Q-14.95 -12.0 -15.45 -14.85 -15.8 -16.6 -15.8 -20.15 -15.8 -26.85 -13.5 -31.5 L-12.7 -32.35 Q-11.6 -33.1 -10.4 -34.95 -9.95 -35.7 -9.05 -37.55 -6.85 -42.0 -6.4 -43.35 -5.75 -45.3 -5.75 -48.05 -5.75 -50.2 -6.7 -52.2 L-6.4 -52.5 -6.3 -52.55 -7.05 -52.7 -8.8 -52.9 -9.25 -53.0 -10.15 -52.9 -10.85 -53.6 -11.0 -54.65 -11.0 -54.85 -11.0 -57.15 Q-11.0 -60.95 -7.95 -65.85 -5.05 -70.35 -1.15 -73.3 2.9 -76.4 5.65 -75.7 8.0 -75.05 8.55 -71.45 L8.7 -69.1 M-5.75 -23.2 L-6.2 -21.95 -6.15 -20.3 Q-5.95 -19.7 -5.4 -19.35 -6.65 -18.25 -6.65 -17.0 -6.65 -14.0 -3.75 -10.9 -0.1 -6.95 5.65 -6.95 10.9 -6.95 10.9 -12.75 10.9 -17.2 8.45 -19.55 L8.7 -20.1 Q8.7 -21.75 7.4 -22.9 5.65 -24.4 1.65 -24.45 1.1 -29.15 0.3 -30.2 L1.1 -29.65 Q0.05 -30.35 -0.45 -31.0 -2.8 -33.15 -4.55 -31.35 -6.2 -29.6 -6.2 -27.2 L-5.75 -25.8 Q-5.3 -24.95 -5.3 -24.4 -5.3 -23.85 -5.75 -23.2 M0.8 -43.25 Q0.35 -43.7 -0.5 -43.7 -2.25 -43.7 -2.25 -41.85 L-2.2 -40.9 -2.0 -40.45 -1.15 -40.2 Q-0.75 -40.2 0.15 -40.9 1.25 -41.6 1.25 -42.3 L0.8 -43.25" fill="#ff9933" fill-rule="evenodd" stroke="none"/>
      <path d="M0.8 -43.25 L1.25 -42.3 Q1.25 -41.6 0.15 -40.9 -0.75 -40.2 -1.15 -40.2 L-2.0 -40.45 -2.2 -40.9 -2.25 -41.85 Q-2.25 -43.7 -0.5 -43.7 0.35 -43.7 0.8 -43.25 M-5.75 -23.2 Q-5.3 -23.85 -5.3 -24.4 -5.3 -24.95 -5.75 -25.8 L-6.2 -27.2 Q-6.2 -29.6 -4.55 -31.35 -2.8 -33.15 -0.45 -31.0 0.05 -30.35 1.1 -29.65 L0.3 -30.2 Q1.1 -29.15 1.65 -24.45 5.65 -24.4 7.4 -22.9 8.7 -21.75 8.7 -20.1 L8.45 -19.55 Q10.9 -17.2 10.9 -12.75 10.9 -6.95 5.65 -6.95 -0.1 -6.95 -3.75 -10.9 -6.65 -14.0 -6.65 -17.0 -6.65 -18.25 -5.4 -19.35 -5.95 -19.7 -6.15 -20.3 L-6.2 -21.95 -5.75 -23.2" fill="#fdcd73" fill-rule="evenodd" stroke="none"/>
    </g>
    <g id="shape1" transform="matrix(1.0, 0.0, 0.0, 1.0, 13.65, 96.7)">
      <path d="M13.2 -74.2 Q13.5 -72.9 13.5 -68.6 L13.4 -63.3 Q13.0 -60.1 11.35 -57.95 12.0 -57.75 10.9 -57.75 10.0 -57.75 9.45 -59.2 L8.4 -62.4 Q6.75 -67.15 2.85 -67.15 1.8 -67.15 1.05 -66.55 L-0.05 -65.6 Q-1.45 -67.0 -1.7 -67.65 L-1.8 -69.5 Q-1.8 -72.35 0.05 -74.7 2.7 -77.95 8.25 -78.3 12.15 -78.45 13.2 -74.2 M-4.0 -88.25 Q-4.0 -91.55 0.2 -90.35 L0.3 -89.95 0.4 -88.95 Q0.4 -87.9 -0.25 -87.05 -0.85 -86.2 -1.8 -86.2 -3.65 -86.2 -4.0 -87.15 L-4.0 -88.25 M5.0 -94.25 L4.75 -93.95 Q4.55 -93.65 3.9 -93.65 3.2 -93.65 3.0 -94.0 L2.6 -94.5 2.55 -95.1 3.2 -95.95 3.9 -96.7 5.2 -95.25 5.15 -94.6 5.0 -94.25 M5.55 -84.75 L5.65 -83.8 Q5.65 -83.0 5.25 -82.45 4.8 -81.8 3.9 -81.8 L2.85 -82.05 2.6 -82.45 2.55 -83.45 Q2.55 -84.6 2.8 -84.9 3.3 -85.75 5.45 -85.1 L5.55 -84.75 M1.4 -63.7 Q3.35 -65.05 5.4 -63.15 L7.25 -59.15 7.4 -56.4 Q7.4 -51.9 5.2 -49.05 L3.8 -46.8 3.55 -46.45 4.25 -44.1 Q5.0 -41.2 6.1 -40.0 6.5 -39.55 8.3 -38.95 9.8 -38.4 10.9 -36.3 12.2 -33.45 12.2 -32.4 L12.0 -31.0 11.85 -30.85 12.05 -30.6 12.1 -30.45 12.2 -29.95 Q12.7 -28.9 13.6 -28.35 L16.95 -23.35 Q17.45 -22.4 17.45 -18.0 L17.2 -13.8 14.15 -8.25 Q12.8 -5.9 9.9 -3.25 5.7 0.5 2.15 0.5 -6.65 0.5 -10.95 -9.15 -13.65 -15.1 -13.65 -19.75 -13.65 -22.15 -11.75 -24.75 L-9.85 -27.5 -10.45 -29.3 Q-11.0 -30.95 -11.0 -31.85 -11.0 -32.9 -9.7 -35.3 -8.4 -37.7 -8.4 -38.4 L-9.45 -41.7 Q-10.55 -44.65 -10.55 -47.15 -10.55 -51.35 -9.35 -54.55 -7.45 -59.35 -3.1 -60.8 -2.45 -61.0 1.4 -63.7 M3.55 -23.0 L3.9 -24.3 Q3.9 -25.9 2.65 -26.7 1.45 -27.5 -0.05 -27.1 -4.0 -26.05 -4.0 -19.55 L-3.9 -17.1 Q-3.55 -15.6 -2.4 -15.1 L-2.5 -15.0 Q-4.0 -13.6 -4.0 -11.95 -4.0 -10.45 -3.1 -9.3 -1.95 -7.8 0.4 -7.8 2.75 -7.8 4.35 -10.6 5.65 -12.75 5.65 -14.4 5.65 -14.95 6.5 -15.85 7.4 -16.75 7.4 -18.25 L7.25 -19.8 5.2 -21.85 3.15 -22.2 3.55 -23.0 M-2.05 -30.85 L-2.0 -30.8 -2.05 -30.9 -2.05 -30.85 M2.5 -34.8 Q0.95 -35.6 -0.5 -32.75 L-0.5 -30.35 1.7 -30.15 Q3.3 -30.15 3.7 -30.8 3.9 -31.05 3.9 -32.2 3.9 -34.05 2.5 -34.8 M10.9 -61.4 L10.9 -61.25 10.95 -61.35 10.9 -61.4 M6.05 -49.25 L5.7 -48.6 5.35 -48.3 6.05 -49.25" fill="#ff9933" fill-rule="evenodd" stroke="none"/>
      <path d="M2.5 -34.8 Q3.9 -34.05 3.9 -32.2 3.9 -31.05 3.7 -30.8 3.3 -30.15 1.7 -30.15 L-0.5 -30.35 -0.5 -32.75 Q0.95 -35.6 2.5 -34.8 M-2.05 -30.85 L-2.05 -30.9 -2.0 -30.8 -2.05 -30.85 M3.55 -23.0 L3.15 -22.2 5.2 -21.85 7.25 -19.8 7.4 -18.25 Q7.4 -16.75 6.5 -15.85 5.65 -14.95 5.65 -14.4 5.65 -12.75 4.35 -10.6 2.75 -7.8 0.4 -7.8 -1.95 -7.8 -3.1 -9.3 -4.0 -10.45 -4.0 -11.95 -4.0 -13.6 -2.5 -15.0 L-2.4 -15.1 Q-3.55 -15.6 -3.9 -17.1 L-4.0 -19.55 Q-4.0 -26.05 -0.05 -27.1 1.45 -27.5 2.65 -26.7 3.9 -25.9 3.9 -24.3 L3.55 -23.0" fill="#fdcd73" fill-rule="evenodd" stroke="none"/>
    </g>
    <g id="shape2" transform="matrix(1.0, 0.0, 0.0, 1.0, 16.85, 83.95)">
      <path d="M0.6 -83.95 L2.4 -83.8 2.5 -83.75 2.55 -83.05 2.4 -82.2 2.35 -82.0 1.45 -81.8 0.65 -82.05 Q0.45 -82.15 0.4 -82.2 L0.4 -82.9 0.4 -83.6 0.6 -83.95 M4.55 -61.4 Q7.6 -58.85 9.45 -55.85 11.35 -52.7 11.35 -49.95 11.35 -47.55 9.15 -45.4 6.95 -43.2 6.95 -42.05 L7.05 -40.85 Q10.35 -39.6 13.2 -35.5 16.45 -30.85 16.45 -27.45 16.45 -26.45 14.7 -23.75 12.95 -21.05 12.95 -20.5 12.95 -19.2 14.7 -16.55 16.45 -13.95 16.45 -12.65 16.45 -6.45 4.2 -0.8 L2.1 -0.8 2.0 -0.75 -0.2 0.05 -1.1 0.0 -2.4 0.05 Q-9.0 0.05 -13.55 -8.15 -15.0 -10.85 -16.05 -13.95 L-16.85 -16.7 Q-16.85 -20.85 -12.45 -24.05 L-9.45 -26.3 Q-8.05 -27.5 -8.05 -28.85 -8.05 -30.45 -10.7 -33.75 -13.35 -37.0 -13.35 -39.05 -13.35 -40.55 -7.2 -47.2 -3.85 -50.8 -2.35 -53.1 L-2.2 -53.95 -1.85 -57.2 -2.15 -57.5 -2.3 -57.65 -2.25 -58.25 Q-2.25 -60.2 -3.1 -61.75 L-2.9 -64.15 Q-2.4 -65.55 -0.5 -66.5 1.75 -65.15 2.15 -64.2 2.7 -62.95 4.55 -61.4 M3.55 -64.65 L4.9 -63.45 4.75 -63.45 Q3.6 -64.1 3.1 -65.15 L3.55 -64.65 M3.65 -17.0 Q6.5 -17.2 6.5 -22.25 6.5 -26.95 2.8 -25.9 1.45 -25.5 0.25 -24.55 -0.95 -23.55 -0.95 -22.9 -0.95 -22.0 -0.4 -20.8 -2.35 -21.2 -4.4 -19.75 -7.05 -17.8 -7.05 -15.9 L-7.1 -14.75 Q-7.1 -13.45 -6.65 -12.4 -5.1 -9.15 0.4 -9.15 2.75 -9.15 3.9 -10.6 4.75 -11.65 4.75 -13.05 4.75 -14.7 3.8 -16.75 L3.65 -17.0 M-0.5 -77.9 Q-0.5 -77.25 -1.35 -76.2 L-2.25 -75.25 Q-3.55 -76.55 -3.55 -77.45 -3.55 -79.85 -0.65 -78.95 L-0.6 -78.75 -0.5 -77.9" fill="#ff9933" fill-rule="evenodd" stroke="none"/>
      <path d="M3.65 -17.0 L3.8 -16.75 Q4.75 -14.7 4.75 -13.05 4.75 -11.65 3.9 -10.6 2.75 -9.15 0.4 -9.15 -5.1 -9.15 -6.65 -12.4 -7.1 -13.45 -7.1 -14.75 L-7.05 -15.9 Q-7.05 -17.8 -4.4 -19.75 -2.35 -21.2 -0.4 -20.8 -0.95 -22.0 -0.95 -22.9 -0.95 -23.55 0.25 -24.55 1.45 -25.5 2.8 -25.9 6.5 -26.95 6.5 -22.25 6.5 -17.2 3.65 -17.0" fill="#fdcd73" fill-rule="evenodd" stroke="none"/>
    </g>
  </defs>
</svg>
