<?xml version="1.0" encoding="UTF-8" standalone="no"?>
<svg xmlns:ffdec="https://www.free-decompiler.com/flash" xmlns:xlink="http://www.w3.org/1999/xlink" ffdec:objectType="frame" height="235.6px" width="266.95px" xmlns="http://www.w3.org/2000/svg">
  <g transform="matrix(1.0, 0.0, 0.0, 1.0, 130.55, 188.6)">
    <filter id="filter0">
      <feOffset dx="3.5355799791601" dy="3.535487832104965" in="SourceGraphic" result="filterResult0"/>
      <feColorMatrix in="filterResult0" result="filterResult1" type="matrix" values="0 0 0 0 0.0,0 0 0 0 0.0,0 0 0 0 0.0,0 0 0 1 0"/>
      <feColorMatrix in="filterResult1" result="filterResult2" type="matrix" values="1 0 0 0 0,0 1 0 0 0,0 0 1 0 0,0 0 0 0.296875 0"/>
    </filter>
    <use ffdec:characterId="419" filter="url(#filter0)" height="214.2" id="shadowMC" transform="matrix(1.0, 0.0, 0.0, -0.3, -130.55, 46.9777)" width="260.8" xlink:href="#sprite0"/>
    <use ffdec:characterId="60" height="37.2" transform="matrix(1.0, 0.0, 0.0, 1.0, -28.05, -34.4)" width="57.7" xlink:href="#shape6"/>
    <use ffdec:characterId="9" height="66.5" transform="matrix(1.0, 0.0, 0.0, 1.0, -35.65, -78.5)" width="80.5" xlink:href="#shape7"/>
    <use ffdec:characterId="10" height="93.1" transform="matrix(0.9931, 0.1089, -0.1089, 0.9931, -39.1661, -152.6987)" width="82.3" xlink:href="#shape2"/>
    <use ffdec:characterId="11" height="84.15" transform="matrix(1.0, 0.0, 0.0, 1.0, 25.95, -83.9)" width="29.95" xlink:href="#shape3"/>
    <use ffdec:characterId="12" height="46.8" transform="matrix(0.866, 0.5, -0.5, 0.866, -41.3553, -82.5401)" width="25.3" xlink:href="#shape4"/>
    <use ffdec:characterId="13" height="101.25" transform="matrix(0.0, 1.0, -1.0, 0.0, 23.95, -80.85)" width="70.05" xlink:href="#shape5"/>
  </g>
  <defs>
    <g id="sprite0" transform="matrix(1.0, 0.0, 0.0, 1.0, 124.4, 188.6)">
      <use ffdec:characterId="17" height="34.0" transform="matrix(1.0, 0.0, 0.0, 1.0, -28.5, -32.05)" width="46.45" xlink:href="#shape0"/>
      <use ffdec:characterId="9" height="66.5" transform="matrix(1.0, 0.0, 0.0, 1.0, -35.65, -78.3)" width="80.5" xlink:href="#shape1"/>
      <use ffdec:characterId="10" height="93.1" transform="matrix(0.9936, 0.1093, -0.1093, 0.9936, -39.2701, -154.751)" width="82.3" xlink:href="#shape2"/>
      <use ffdec:characterId="11" height="84.15" transform="matrix(1.0, 0.0, 0.0, 1.0, 25.4, -84.6)" width="29.95" xlink:href="#shape3"/>
      <use ffdec:characterId="12" height="46.8" transform="matrix(0.8771, 0.4787, -0.4787, 0.8771, -42.6946, -83.6794)" width="25.3" xlink:href="#shape4"/>
      <use ffdec:characterId="13" height="101.25" transform="matrix(0.0, 1.0, -1.0, 0.0, 23.6, -81.55)" width="70.05" xlink:href="#shape5"/>
    </g>
    <g id="shape0" transform="matrix(1.0, 0.0, 0.0, 1.0, 29.45, 30.75)">
      <path d="M12.95 -26.5 Q12.9 -23.45 13.5 -20.7 13.9 -18.95 14.5 -17.65 14.4 -14.35 15.15 -10.65 16.0 -6.45 16.0 -4.15 L16.0 -2.5 16.2 -2.15 Q17.0 -0.8 17.0 0.1 L16.85 1.0 14.95 1.1 -1.0 1.75 Q-1.45 0.85 -2.25 0.25 L-2.1 0.1 -2.3 -0.65 -2.5 -2.2 Q-2.5 -7.45 -1.75 -12.35 L-2.0 -12.1 Q-3.15 -10.95 -10.25 -6.35 L-13.55 -3.65 Q-15.4 -2.4 -17.55 -2.05 -17.3 -0.3 -18.75 3.05 -19.45 3.55 -20.45 2.85 L-20.45 2.65 Q-22.7 1.9 -26.2 -0.7 -29.15 -3.65 -29.45 -8.95 -29.6 -12.5 -28.75 -14.35 L-28.7 -15.0 -28.6 -15.4 -28.85 -15.65 -28.6 -15.7 -28.15 -17.65 -26.9 -18.3 -26.3 -18.3 -24.75 -18.95 -22.7 -19.4 Q-19.2 -20.1 -17.0 -22.3 L-15.95 -22.65 Q-12.55 -25.45 -9.55 -26.65 -3.2 -29.1 1.3 -24.6 L1.55 -24.35 Q3.4 -28.25 5.9 -29.95 8.6 -31.75 10.8 -29.6 L12.95 -26.5 M9.0 -1.4 L10.65 -4.2 Q11.5 -5.55 13.6 -5.2 L13.5 -7.7 12.95 -11.05 Q12.55 -13.2 12.5 -14.45 L12.45 -16.6 11.75 -16.5 4.5 -15.45 4.45 -1.1 5.85 -1.1 9.0 -1.05 9.05 -1.05 9.35 -1.05 9.0 -1.4 M14.0 -0.95 L13.2 -2.85 10.5 -1.05 14.0 -0.95 M-12.4 -15.5 Q-13.25 -14.75 -18.35 -12.85 -23.95 -10.75 -26.75 -11.15 L-27.05 -9.25 Q-27.7 -5.3 -24.4 -1.9 L-24.15 -1.65 Q-23.2 -0.7 -20.4 0.9 -20.35 0.85 -20.25 0.95 L-20.2 0.4 Q-19.95 -1.05 -20.0 -1.9 L-21.65 -1.55 -24.15 -1.85 Q-24.25 -1.85 -24.35 -1.95 L-23.9 -2.7 -21.7 -4.1 Q-19.8 -4.7 -18.55 -3.65 L-18.0 -4.3 Q-17.55 -4.75 -16.05 -5.45 -14.7 -6.2 -14.2 -6.7 L-11.9 -8.3 Q-10.1 -9.5 -9.6 -10.0 L-7.65 -11.35 Q-9.0 -11.9 -10.45 -13.35 L-12.3 -15.4 -12.35 -15.55 -12.4 -15.5" fill="#000000" fill-rule="evenodd" stroke="none"/>
      <path d="M9.0 -1.05 L9.0 -1.4 9.05 -1.05 9.0 -1.05" fill="#5b6171" fill-rule="evenodd" stroke="none"/>
      <path d="M9.0 -1.05 L5.85 -1.1 4.45 -1.1 4.5 -15.45 11.75 -16.5 12.45 -16.6 12.5 -14.45 Q12.55 -13.2 12.95 -11.05 L13.5 -7.7 13.6 -5.2 Q11.5 -5.55 10.65 -4.2 L9.0 -1.4 9.0 -1.05 M-24.4 -1.9 Q-27.7 -5.3 -27.05 -9.25 L-26.75 -11.15 Q-23.95 -10.75 -18.35 -12.85 -13.25 -14.75 -12.4 -15.5 L-12.3 -15.4 -10.45 -13.35 Q-9.0 -11.9 -7.65 -11.35 L-9.6 -10.0 Q-10.1 -9.5 -11.9 -8.3 L-14.2 -6.7 Q-14.7 -6.2 -16.05 -5.45 -17.55 -4.75 -18.0 -4.3 L-18.55 -3.65 Q-19.8 -4.7 -21.7 -4.1 L-23.9 -2.7 -24.35 -1.95 -24.4 -1.9 M14.0 -0.95 L10.5 -1.05 13.2 -2.85 14.0 -0.95 M-24.15 -1.85 L-21.65 -1.55 -20.0 -1.9 Q-19.95 -1.05 -20.2 0.4 L-20.4 0.9 Q-23.2 -0.7 -24.15 -1.65 L-24.15 -1.85" fill="#333333" fill-rule="evenodd" stroke="none"/>
    </g>
    <g id="shape1" transform="matrix(1.0, 0.0, 0.0, 1.0, 29.55, 23.5)">
      <path d="M-3.05 -20.95 L-3.05 -21.1 -3.0 -21.1 -3.05 -20.95" fill="#5b6171" fill-rule="evenodd" stroke="none"/>
      <path d="M18.85 -22.5 L31.05 -22.5 31.2 -22.95 Q31.9 -22.9 32.45 -22.5 L33.0 -22.5 33.25 -22.35 Q33.45 -22.25 33.45 -21.5 L33.45 -21.4 Q34.65 -19.5 35.15 -15.3 37.8 -12.9 42.3 -9.65 44.55 -7.7 45.6 -5.55 47.9 -4.05 49.4 -0.6 50.95 2.8 50.95 6.15 50.95 10.0 50.5 10.65 49.6 11.9 43.45 15.0 L42.7 14.75 Q41.25 16.5 38.95 16.5 32.25 16.5 30.7 12.1 L30.65 11.9 Q28.85 11.35 26.25 8.75 L25.55 8.0 25.2 8.15 24.05 8.4 23.95 9.0 Q23.45 13.5 23.45 16.5 L23.15 16.7 23.25 17.0 Q24.25 18.05 25.85 20.55 29.7 26.5 31.95 32.0 L31.85 32.2 31.95 33.0 31.95 33.5 32.3 33.95 33.9 36.3 33.9 39.05 33.9 39.5 Q33.9 40.6 27.9 41.5 L-6.35 43.0 -12.6 42.6 -24.3 42.0 -24.45 41.85 -24.6 40.9 Q-24.6 40.5 -23.9 40.3 L-24.05 39.8 -24.1 38.05 Q-24.1 35.8 -23.9 35.15 -23.75 34.55 -23.4 34.25 L-23.45 34.0 -23.8 34.0 -23.95 33.75 -24.1 32.75 -23.4 29.35 -22.6 24.75 -22.15 22.75 -21.6 20.55 -21.8 18.7 -21.55 17.8 -21.4 17.6 Q-22.3 16.6 -22.55 13.4 L-22.55 8.65 -22.7 2.4 -28.0 3.0 -28.05 3.0 -28.75 3.0 -28.9 2.75 -29.05 1.75 -29.0 0.95 -28.9 0.8 -29.4 -2.1 -29.55 -7.45 Q-29.55 -14.25 -29.0 -16.95 -27.7 -23.05 -23.75 -22.0 L-22.8 -22.2 -22.75 -22.25 Q-21.75 -22.8 -18.05 -22.75 L-15.65 -22.95 0.75 -23.0 1.45 -23.5 2.25 -21.95 7.15 -21.9 13.95 -21.5 15.95 -21.35 Q16.0 -22.15 16.25 -22.25 L18.85 -22.5 M32.8 -17.25 L32.75 -17.4 31.95 -19.65 31.65 -20.45 26.15 -20.35 19.7 -19.95 Q20.05 -19.65 19.55 -19.55 L19.8 -18.35 19.25 -18.45 19.55 -17.25 19.7 -16.65 19.8 -16.1 Q20.3 -13.7 20.95 -12.7 L20.95 -11.45 20.95 -9.0 20.95 -5.05 20.95 -3.25 20.9 -3.3 20.9 -3.0 20.9 -1.5 27.55 -1.5 27.4 -2.2 27.4 -3.0 27.4 -5.1 27.4 -5.45 Q27.95 -6.0 29.4 -5.8 29.95 -6.3 31.25 -6.9 L32.95 -7.65 32.95 -9.4 32.95 -11.5 32.95 -15.0 32.95 -16.25 32.9 -16.75 32.8 -17.1 32.8 -17.25 M18.3 -11.9 L18.15 -12.7 18.15 -12.8 18.05 -13.15 17.9 -14.1 Q17.45 -16.7 17.45 -17.95 L17.6 -18.75 3.3 -19.5 4.85 -15.05 5.25 -13.8 5.75 -12.05 5.95 -11.4 7.1 -7.25 7.45 -6.0 7.45 -5.5 7.45 -4.4 7.65 -3.45 7.9 -1.5 7.95 -1.5 8.2 -1.35 Q8.4 -1.25 8.4 -0.5 L8.25 0.2 Q8.05 0.2 7.95 0.5 L5.65 0.45 0.5 1.1 -2.1 2.0 -2.85 1.85 -3.05 1.5 -3.9 1.05 -4.65 0.25 -5.4 -1.0 -5.45 -1.0 -5.8 -1.7 -6.75 -4.2 -12.2 -3.6 -12.6 -3.5 -12.75 -3.55 -14.7 -3.5 -14.8 -3.45 -15.95 -2.7 -15.95 -3.0 -16.8 -3.0 -19.05 -3.2 -20.0 -0.85 -20.2 -0.35 -20.2 -0.25 -20.2 -0.2 -20.25 1.5 -20.35 4.6 -20.45 4.9 -20.6 5.9 -20.4 6.7 -20.45 6.7 -20.45 7.0 -20.55 8.4 -20.45 10.1 Q-20.3 9.85 -19.85 9.75 L-9.1 9.25 Q-9.1 9.05 1.1 9.1 11.7 9.15 21.75 9.45 L22.05 6.2 22.05 6.15 22.15 6.15 22.2 5.8 22.2 5.6 22.2 5.5 22.2 5.25 22.2 4.85 22.2 4.7 22.25 4.0 22.3 3.1 22.9 3.3 22.9 2.5 22.95 1.15 21.0 1.4 19.9 1.5 19.15 1.25 Q18.95 1.1 18.9 0.5 L18.9 0.4 18.9 0.25 Q18.9 -0.25 19.35 -0.6 L19.3 -0.7 19.0 -1.5 18.95 -1.6 18.9 -3.35 18.9 -4.2 18.95 -5.5 18.95 -7.2 18.95 -7.45 18.95 -7.5 18.3 -11.9 M1.8 -18.0 L0.9 -19.3 0.5 -21.0 -2.3 -20.95 -3.0 -21.1 -3.05 -21.1 -3.05 -20.95 -8.75 -20.85 -18.4 -20.5 Q-17.2 -19.25 -16.25 -17.0 L-15.55 -15.0 -15.05 -13.15 -14.55 -10.8 -14.4 -10.15 -14.3 -9.6 -14.25 -9.15 -14.2 -8.85 -14.15 -8.5 -13.85 -5.95 -13.85 -5.85 -13.45 -6.0 -5.55 -6.5 -5.15 -5.6 Q-4.6 -5.15 -4.1 -4.0 L-3.85 -3.65 -3.75 -3.5 -1.95 -0.35 Q-0.5 -1.15 2.4 -1.25 L5.45 -1.45 5.4 -1.6 5.4 -2.4 5.2 -2.4 5.1 -3.7 5.05 -4.4 5.05 -4.5 5.05 -4.75 5.05 -4.85 4.95 -5.95 4.9 -6.5 4.55 -9.45 4.45 -9.75 3.95 -11.0 3.8 -11.5 3.7 -11.75 Q3.55 -13.75 2.65 -15.65 L2.25 -16.45 2.2 -16.75 2.2 -16.85 1.8 -18.0 M29.9 -4.05 L29.9 -0.2 29.55 0.05 28.9 0.5 28.7 0.35 27.45 0.65 25.9 0.85 25.9 1.0 25.4 2.4 25.4 2.6 25.35 3.5 25.4 3.5 25.55 3.5 25.5 3.75 25.35 3.85 25.15 4.5 26.05 5.35 27.0 6.75 29.65 8.5 30.25 8.95 30.45 7.35 Q30.45 4.7 31.0 3.0 L31.1 2.95 Q31.5 1.95 32.9 0.8 34.5 -0.45 35.9 -1.0 L36.25 -0.85 36.5 -1.25 37.0 -2.1 Q38.7 -2.25 40.3 -1.6 41.8 -1.3 43.0 -0.45 43.1 -1.2 44.0 -2.0 L44.4 -2.3 Q44.0 -5.45 38.95 -9.55 36.65 -11.4 35.35 -12.7 L35.45 -5.95 34.4 -5.95 33.95 -5.85 32.9 -5.2 32.0 -4.65 Q30.75 -4.0 30.15 -4.0 L29.9 -4.05 M46.85 0.35 L46.75 0.2 46.45 0.5 46.15 0.45 45.45 2.3 44.85 2.45 44.95 4.4 Q44.95 8.6 44.45 10.8 L43.95 12.5 45.7 11.3 Q48.95 9.15 48.95 6.5 48.95 4.45 46.85 0.35 M41.45 1.3 L40.85 0.9 39.75 0.25 36.65 0.55 35.1 2.3 32.75 4.55 Q32.45 5.75 32.45 7.5 32.45 9.65 32.7 10.85 L32.95 11.0 32.85 11.25 32.95 11.55 Q34.2 14.25 38.6 14.25 41.4 14.25 42.45 9.5 L42.95 4.75 42.25 2.8 41.45 1.3 M-19.9 11.7 L-20.1 12.9 -19.85 14.05 -19.55 14.6 -19.95 14.45 -19.6 16.9 -19.0 17.55 -17.7 17.75 -17.0 18.4 -14.45 18.85 -0.4 19.25 9.0 18.95 17.05 18.6 17.95 18.5 20.75 17.75 20.7 16.8 20.7 16.75 Q21.45 16.0 21.45 14.65 L21.25 14.7 21.45 12.65 21.45 12.4 21.55 11.5 -19.9 11.5 -20.3 11.5 -20.3 11.7 -19.9 11.7 M26.6 27.0 L25.1 24.65 24.4 23.45 23.25 21.55 22.25 19.75 21.45 20.0 18.55 20.65 13.95 21.1 -0.3 21.5 -11.05 21.1 -14.6 20.9 -15.75 20.75 -17.75 20.25 -18.1 20.2 -18.65 22.05 -18.65 22.1 -19.3 24.05 -20.55 27.55 -20.6 27.8 -20.65 28.1 -20.65 28.15 -20.65 28.45 -20.7 28.65 -20.85 30.0 -20.95 30.9 -21.4 32.65 -21.45 33.05 -21.4 33.05 -16.05 33.1 -12.9 33.15 3.35 33.75 Q13.75 33.75 18.3 33.4 L19.7 33.25 19.85 33.2 20.05 33.2 24.45 32.65 30.15 32.1 27.9 29.05 27.4 28.3 26.6 27.0 M26.05 39.15 L31.35 38.7 31.85 38.65 31.95 38.65 32.45 38.6 30.9 36.15 29.6 34.1 23.95 34.5 23.6 34.55 23.4 34.55 22.35 34.6 3.45 36.0 -7.0 36.05 Q-10.35 35.95 -11.05 35.3 -11.2 35.15 -16.1 35.25 L-16.4 35.25 -21.1 35.4 -21.6 37.6 -22.2 40.0 Q-20.15 39.8 -16.25 40.0 L-15.6 40.0 -6.45 40.75 19.95 39.65 26.05 39.15 M-23.95 -20.15 Q-27.0 -18.15 -27.45 -15.55 -27.75 -13.75 -27.55 -9.7 -27.9 -7.25 -27.65 -3.85 L-27.25 0.45 -22.6 0.15 Q-22.35 -3.05 -21.2 -3.9 -23.25 -5.05 -23.95 -7.5 -24.35 -8.9 -24.25 -10.6 L-24.05 -12.1 -23.8 -16.8 Q-23.35 -18.9 -22.1 -19.5 L-23.95 -20.15" fill="#000000" fill-rule="evenodd" stroke="none"/>
      <path d="M46.45 0.5 L46.85 0.35 Q48.95 4.45 48.95 6.5 48.95 9.15 45.7 11.3 L43.95 12.5 44.45 10.8 Q44.95 8.6 44.95 4.4 L44.85 2.45 45.45 2.3 46.15 0.45 46.45 0.5 M41.45 1.3 L42.25 2.8 42.95 4.75 42.45 9.5 Q41.4 14.25 38.6 14.25 34.2 14.25 32.95 11.55 L32.85 11.25 32.95 11.0 32.7 10.85 Q32.45 9.65 32.45 7.5 32.45 5.75 32.75 4.55 L35.1 2.3 36.65 0.55 39.75 0.25 40.85 0.9 41.45 1.3" fill="#cdac98" fill-rule="evenodd" stroke="none"/>
      <path d="M-19.9 11.5 L-19.9 11.7 -20.3 11.7 -20.3 11.5 -19.9 11.5" fill="#11100f" fill-rule="evenodd" stroke="none"/>
      <path d="M23.4 34.55 L23.6 34.55 23.95 34.5 29.6 34.1 30.9 36.15 32.45 38.6 31.95 38.65 31.85 38.65 31.35 38.7 26.05 39.15 25.05 39.2 24.4 38.1 Q23.5 36.25 23.4 34.55 M-16.25 40.0 Q-20.15 39.8 -22.2 40.0 L-21.6 37.6 -21.1 35.4 -16.4 35.25 -16.1 35.25 -16.1 37.0 Q-16.1 38.75 -16.25 40.0" fill="#046193" fill-rule="evenodd" stroke="none"/>
      <path d="M29.9 -4.05 L30.15 -4.0 Q30.75 -4.0 32.0 -4.65 L32.9 -5.2 33.95 -5.85 34.4 -5.95 35.45 -5.95 35.35 -12.7 Q36.65 -11.4 38.95 -9.55 44.0 -5.45 44.4 -2.3 L44.0 -2.0 Q43.1 -1.2 43.0 -0.45 41.8 -1.3 40.3 -1.6 38.7 -2.25 37.0 -2.1 L36.5 -1.25 36.25 -0.85 35.9 -1.0 Q34.5 -0.45 32.9 0.8 31.5 1.95 31.1 2.95 L31.0 3.0 Q30.45 4.7 30.45 7.35 L30.25 8.95 29.65 8.5 27.0 6.75 26.05 5.35 25.15 4.5 25.35 3.85 25.5 3.75 25.55 3.5 25.4 3.5 25.35 3.5 25.4 2.6 25.4 2.4 25.9 1.0 25.9 0.85 27.45 0.65 28.7 0.35 28.9 0.5 29.55 0.05 29.9 -0.2 29.9 -4.05 M23.4 34.55 Q23.5 36.25 24.4 38.1 L25.05 39.2 26.05 39.15 19.95 39.65 -6.45 40.75 -15.6 40.0 -16.25 40.0 Q-16.1 38.75 -16.1 37.0 L-16.1 35.25 Q-11.2 35.15 -11.05 35.3 -10.35 35.95 -7.0 36.05 L3.45 36.0 22.35 34.6 23.4 34.55" fill="#023f60" fill-rule="evenodd" stroke="none"/>
      <path d="M-21.4 33.05 L-21.45 33.05 -21.4 32.65 -21.4 33.05" fill="#942403" fill-rule="evenodd" stroke="none"/>
      <path d="M19.55 -17.25 L19.25 -18.45 19.8 -18.35 19.55 -19.55 Q20.05 -19.65 19.7 -19.95 L26.15 -20.35 31.65 -20.45 31.95 -19.65 32.75 -17.4 32.8 -17.25 32.7 -17.45 23.15 -18.25 Q20.85 -18.1 19.55 -17.25 M32.95 -15.0 L32.95 -11.5 20.95 -11.45 20.95 -12.7 Q20.3 -13.7 19.8 -16.1 21.35 -15.4 23.6 -15.75 27.0 -16.3 29.9 -15.0 L32.95 -15.0 M32.95 -9.4 L32.95 -7.65 31.25 -6.9 Q29.95 -6.3 29.4 -5.8 27.95 -6.0 27.4 -5.45 L27.4 -5.1 27.35 -5.1 22.25 -5.45 20.95 -5.05 20.95 -9.0 28.9 -9.0 31.7 -9.35 32.95 -9.4 M27.4 -3.0 L27.4 -2.2 27.55 -1.5 20.9 -1.5 20.9 -3.0 27.4 -3.0 M18.3 -11.9 L18.95 -7.5 Q9.95 -7.6 7.2 -7.25 L7.1 -7.25 5.95 -11.4 5.75 -12.05 5.95 -11.4 8.4 -11.0 Q14.65 -11.0 18.3 -11.9 M18.95 -5.5 L18.9 -4.2 18.9 -3.35 18.95 -1.6 19.0 -1.5 18.95 -1.5 Q11.45 -1.6 8.2 -1.35 L7.95 -1.5 7.9 -1.5 7.65 -3.45 7.45 -4.4 7.45 -5.5 18.95 -5.5 M18.9 0.5 Q18.95 1.1 19.15 1.25 L19.9 1.5 21.0 1.4 22.95 1.15 22.9 2.5 22.9 3.3 22.3 3.1 22.25 4.0 -11.6 4.0 -11.6 4.25 -20.35 4.9 -20.45 4.9 -20.35 4.6 -20.25 1.5 -13.1 1.5 -7.3 1.15 -3.9 1.05 -3.05 1.5 -2.85 1.85 -2.1 2.0 0.5 1.1 5.65 0.45 5.7 0.5 7.95 0.5 18.9 0.5 M22.05 6.15 L22.05 6.2 21.75 9.45 Q11.7 9.15 1.1 9.1 -9.1 9.05 -9.1 9.25 L-19.85 9.75 Q-20.3 9.85 -20.45 10.1 L-20.55 8.4 -20.45 7.0 -12.6 7.0 Q-1.1 6.6 21.8 6.15 L22.05 6.15 M-20.2 -0.2 L-20.2 -0.25 -20.2 -0.35 -20.0 -0.85 -19.05 -3.2 -16.8 -3.0 -15.95 -3.0 -15.95 -2.7 -14.8 -3.45 -14.7 -3.5 -12.75 -3.55 -12.6 -3.5 -12.2 -3.6 -6.75 -4.2 -5.8 -1.7 -5.45 -1.0 -12.6 -0.75 -20.1 -0.25 -20.2 -0.2 M5.25 -13.8 L4.85 -15.05 3.3 -19.5 17.6 -18.75 17.45 -17.95 Q17.45 -16.7 17.9 -14.1 L16.45 -14.0 9.45 -13.75 6.65 -13.8 5.25 -13.8 M-3.0 -21.1 L-2.3 -20.95 0.5 -21.0 0.9 -19.3 1.8 -18.0 Q-10.1 -18.0 -10.1 -17.75 -14.7 -17.75 -16.25 -17.0 -17.2 -19.25 -18.4 -20.5 L-8.75 -20.85 -3.05 -20.95 -3.0 -21.1 M2.65 -15.65 Q3.55 -13.75 3.7 -11.75 L3.8 -11.5 3.7 -11.5 Q-6.6 -11.5 -6.6 -11.25 L-14.55 -10.8 -15.05 -13.15 -15.55 -15.0 -12.6 -15.0 -3.8 -15.45 2.65 -15.65 M4.55 -9.45 L4.9 -6.5 4.95 -5.95 4.9 -6.45 -3.5 -6.0 -5.15 -5.6 -5.55 -6.5 -13.45 -6.0 -13.85 -5.85 -13.85 -5.95 -14.15 -8.5 -10.6 -8.5 4.55 -9.45 M5.05 -4.4 L5.1 -3.7 5.2 -2.4 5.4 -2.4 5.4 -1.6 5.45 -1.45 2.4 -1.25 Q-0.5 -1.15 -1.95 -0.35 L-3.75 -3.5 -2.1 -3.5 5.05 -4.4 M24.4 23.45 L25.1 24.65 26.6 27.0 15.65 27.05 13.4 27.25 -17.35 27.85 -20.65 28.1 -20.6 27.8 -20.55 27.55 -19.3 24.05 2.4 25.0 Q14.05 25.0 16.7 24.05 L24.4 23.45 M27.9 29.05 L30.15 32.1 24.45 32.65 20.05 33.2 19.85 33.2 19.7 33.25 18.3 33.4 Q13.75 33.75 3.35 33.75 L-12.9 33.15 -16.05 33.1 -21.4 33.05 -21.4 32.65 -20.95 30.9 -20.85 30.0 -20.9 30.5 -18.1 30.5 27.9 29.05 M-18.65 22.05 L-18.1 20.2 -17.75 20.25 -15.75 20.75 -14.6 20.9 -11.05 21.1 -0.3 21.5 13.95 21.1 18.55 20.65 21.45 20.0 22.25 19.75 23.25 21.55 11.45 22.15 2.05 22.75 -12.1 22.0 Q-16.5 21.75 -18.65 22.05 M-23.95 -20.15 L-22.1 -19.5 Q-23.35 -18.9 -23.8 -16.8 L-24.05 -12.1 -24.25 -10.6 Q-24.35 -8.9 -23.95 -7.5 -23.25 -5.05 -21.2 -3.9 -22.35 -3.05 -22.6 0.15 L-27.25 0.45 -27.65 -3.85 Q-27.9 -7.25 -27.55 -9.7 -27.75 -13.75 -27.45 -15.55 -27.0 -18.15 -23.95 -20.15" fill="#4e5963" fill-rule="evenodd" stroke="none"/>
      <path d="M19.55 -17.25 Q20.85 -18.1 23.15 -18.25 L32.7 -17.45 32.8 -17.25 32.8 -17.1 32.9 -16.75 32.95 -16.25 32.95 -15.0 29.9 -15.0 Q27.0 -16.3 23.6 -15.75 21.35 -15.4 19.8 -16.1 L19.7 -16.65 19.55 -17.25 M32.95 -11.5 L32.95 -9.4 31.7 -9.35 28.9 -9.0 20.95 -9.0 20.95 -11.45 32.95 -11.5 M27.4 -5.1 L27.4 -3.0 20.9 -3.0 20.9 -3.3 20.95 -3.25 20.95 -5.05 22.25 -5.45 27.35 -5.1 27.4 -5.1 M17.9 -14.1 L18.05 -13.15 18.15 -12.8 18.15 -12.7 18.3 -11.9 Q14.65 -11.0 8.4 -11.0 L5.95 -11.4 5.75 -12.05 5.25 -13.8 6.65 -13.8 9.45 -13.75 16.45 -14.0 17.9 -14.1 M18.95 -7.5 L18.95 -7.45 18.95 -7.2 18.95 -5.5 7.45 -5.5 7.45 -6.0 7.1 -7.25 7.2 -7.25 Q9.95 -7.6 18.95 -7.5 M19.0 -1.5 L19.3 -0.7 19.35 -0.6 Q18.9 -0.25 18.9 0.25 L18.9 0.4 18.9 0.5 7.95 0.5 5.7 0.5 5.65 0.45 7.95 0.5 Q8.05 0.2 8.25 0.2 L8.4 -0.5 Q8.4 -1.25 8.2 -1.35 11.45 -1.6 18.95 -1.5 L19.0 -1.5 M22.25 4.0 L22.2 4.7 22.2 4.85 22.2 5.25 22.2 5.5 22.2 5.6 22.2 5.8 22.15 6.15 22.05 6.15 21.8 6.15 Q-1.1 6.6 -12.6 7.0 L-20.45 7.0 -20.45 6.7 -20.4 6.7 -20.6 5.9 -20.45 4.9 -20.35 4.9 -11.6 4.25 -11.6 4.0 22.25 4.0 M-20.25 1.5 L-20.2 -0.2 -20.1 -0.25 -12.6 -0.75 -5.45 -1.0 -5.4 -1.0 -4.65 0.25 -3.9 1.05 -7.3 1.15 -13.1 1.5 -20.25 1.5 M1.8 -18.0 L2.2 -16.85 2.2 -16.75 2.25 -16.45 2.65 -15.65 -3.8 -15.45 -12.6 -15.0 -15.55 -15.0 -16.25 -17.0 Q-14.7 -17.75 -10.1 -17.75 -10.1 -18.0 1.8 -18.0 M3.8 -11.5 L3.95 -11.0 4.45 -9.75 4.55 -9.45 -10.6 -8.5 -14.15 -8.5 -14.2 -8.85 -14.25 -9.15 -14.3 -9.6 -14.4 -10.15 -14.55 -10.8 -6.6 -11.25 Q-6.6 -11.5 3.7 -11.5 L3.8 -11.5 M4.95 -5.95 L5.05 -4.85 5.05 -4.75 5.05 -4.5 5.05 -4.4 -2.1 -3.5 -3.75 -3.5 -3.85 -3.65 -4.1 -4.0 Q-4.6 -5.15 -5.15 -5.6 L-3.5 -6.0 4.9 -6.45 4.95 -5.95 M24.4 23.45 L16.7 24.05 Q14.05 25.0 2.4 25.0 L-19.3 24.05 -18.65 22.1 -18.65 22.05 Q-16.5 21.75 -12.1 22.0 L2.05 22.75 11.45 22.15 23.25 21.55 24.4 23.45 M-20.65 28.1 L-17.35 27.85 13.4 27.25 15.65 27.05 26.6 27.0 27.4 28.3 27.9 29.05 -18.1 30.5 -20.9 30.5 -20.85 30.0 -20.7 28.65 -20.65 28.45 -20.65 28.15 -20.65 28.1" fill="#333a42" fill-rule="evenodd" stroke="none"/>
      <path d="M-19.9 11.5 L21.55 11.5 21.45 12.4 21.45 12.65 21.25 14.7 21.45 14.65 Q21.45 16.0 20.7 16.75 L20.7 16.8 20.75 17.75 17.95 18.5 17.05 18.6 9.0 18.95 -0.4 19.25 -14.45 18.85 -17.0 18.4 -17.7 17.75 -19.0 17.55 -19.6 16.9 -19.95 14.45 -19.55 14.6 -19.85 14.05 -20.1 12.9 -19.9 11.7 -19.9 11.5" fill="#221c15" fill-rule="evenodd" stroke="none"/>
    </g>
    <g id="shape2" transform="matrix(1.0, 0.0, 0.0, 1.0, 47.6, 55.15)">
      <path d="M5.45 -37.35 Q5.85 -36.65 6.55 -36.15 6.75 -34.4 9.1 -32.2 11.9 -29.55 15.85 -27.8 18.9 -26.45 21.3 -24.6 L26.45 -20.25 Q31.15 -16.35 31.9 -10.4 L32.7 -0.25 32.6 0.35 32.95 0.65 32.85 0.8 32.55 1.1 32.45 1.45 32.2 1.75 30.7 1.75 30.7 2.7 30.65 3.75 30.7 4.3 30.6 7.45 31.2 8.0 32.7 9.6 Q33.5 10.55 33.7 11.45 L34.45 15.3 34.7 18.5 Q34.7 22.7 33.5 26.85 31.85 32.6 31.2 37.25 30.85 37.7 30.2 37.95 28.95 37.2 28.8 35.35 L28.45 32.0 27.1 29.0 26.45 27.35 Q22.2 33.8 20.7 37.25 20.35 37.7 19.7 37.95 18.2 36.8 18.05 34.0 L17.7 29.75 Q17.0 27.6 16.8 24.55 L10.75 25.0 5.6 24.6 5.35 24.65 Q-0.8 24.3 -1.85 22.5 L-2.15 21.75 -2.35 21.75 -2.75 21.75 -3.05 22.5 Q-3.8 23.75 -5.45 24.45 L-21.75 25.5 Q-27.95 25.35 -30.5 23.8 -32.0 22.9 -32.0 21.55 -32.0 20.25 -30.4 19.15 -32.55 18.7 -35.0 17.5 -39.5 15.35 -39.5 13.0 -39.5 11.25 -38.25 10.05 L-37.15 9.3 -38.55 8.5 -39.3 8.55 -40.35 7.5 -41.8 5.6 Q-44.0 3.35 -44.0 2.5 -44.0 1.75 -43.6 0.65 L-43.5 0.4 -43.45 -0.45 -43.0 -1.35 -40.25 -1.6 -41.4 -2.65 -44.35 -6.0 Q-47.0 -8.7 -47.3 -9.35 -47.5 -9.8 -47.5 -12.35 -47.8 -14.25 -47.05 -15.85 -46.15 -17.8 -43.85 -17.95 L-45.85 -20.05 Q-47.5 -22.1 -47.5 -24.35 L-47.3 -26.2 -46.75 -28.65 Q-45.5 -31.2 -42.15 -30.15 L-42.25 -30.45 -42.5 -35.1 Q-42.5 -40.85 -41.25 -43.1 -39.45 -46.3 -35.5 -42.25 L-35.5 -42.5 Q-35.5 -47.6 -32.7 -52.25 -29.25 -57.9 -25.0 -52.5 L-25.5 -52.2 -22.0 -41.9 Q-19.65 -34.55 -17.85 -30.75 L-16.7 -27.7 Q-15.95 -25.55 -15.35 -24.75 L-15.1 -24.4 Q-14.15 -25.0 -12.35 -24.75 L-11.9 -25.0 -8.8 -27.0 -6.9 -29.15 -5.05 -31.25 Q-3.95 -32.25 -2.45 -36.05 -0.4 -38.85 4.5 -37.4 L5.45 -37.35 M29.35 -11.75 Q28.8 -13.75 27.9 -15.3 26.45 -17.75 24.2 -19.25 L18.4 -23.3 Q14.1 -26.2 11.6 -27.3 7.75 -29.0 5.8 -31.8 5.2 -32.7 3.85 -35.8 L1.85 -35.35 1.7 -35.35 Q0.45 -35.15 -0.3 -34.65 -1.1 -34.15 -1.3 -33.3 -1.5 -32.45 -2.45 -31.0 -3.5 -29.4 -4.9 -28.05 -7.25 -25.8 -10.0 -23.85 -10.7 -23.35 -12.65 -22.0 L-12.85 -22.25 -13.25 -22.0 -13.45 -21.9 -11.75 -19.1 -7.95 -13.75 -5.65 -10.25 Q-4.5 -8.35 -4.5 -7.85 L-4.55 -6.9 Q-4.0 -5.35 -4.0 -4.0 L-4.35 -1.25 -4.35 -1.05 -4.15 -1.05 -3.95 -0.9 -3.85 -0.65 -3.4 -0.7 5.4 -0.7 6.35 -1.05 9.8 -0.65 28.0 -0.3 28.05 -0.3 30.1 -0.25 30.25 -0.25 30.25 -0.55 30.3 -3.65 Q30.25 -7.5 29.8 -9.85 L29.5 -11.3 29.35 -11.75 M21.7 3.95 L21.55 2.95 21.35 2.7 Q18.2 1.85 18.2 4.05 18.2 4.8 18.35 4.95 L18.45 5.2 19.95 5.45 Q21.7 5.45 21.7 3.95 M28.7 14.95 Q29.5 15.55 29.65 16.45 L29.7 17.95 Q29.7 21.85 27.6 25.55 28.25 25.8 29.05 27.05 L30.1 28.95 31.7 23.7 Q32.7 20.6 32.7 18.45 32.45 15.2 31.5 12.7 30.2 9.2 28.15 9.25 24.1 11.4 21.5 14.9 18.7 18.7 18.7 22.25 L18.7 22.45 19.0 22.8 18.8 23.3 19.45 27.3 20.2 31.95 26.6 23.2 Q27.25 22.25 27.6 19.1 27.95 16.0 28.7 14.95 M15.65 3.4 L15.65 3.5 16.1 3.45 15.65 3.4 M12.5 1.5 L5.3 1.5 5.3 1.45 -0.45 1.35 -0.6 1.8 -0.65 1.85 -0.35 5.9 -0.35 11.1 -0.2 17.2 Q0.15 19.7 1.1 21.25 L1.25 21.15 1.5 21.1 1.5 21.25 1.65 21.3 1.8 21.5 2.75 21.5 Q3.45 22.0 4.75 22.0 L5.05 22.15 10.65 22.75 15.5 22.25 15.5 22.2 13.6 18.75 13.5 15.8 Q13.5 14.85 14.25 12.3 L15.0 9.8 Q12.5 3.35 12.5 1.9 L12.5 1.5 M16.5 12.35 Q15.55 14.45 15.5 15.5 L15.5 15.65 15.5 15.9 Q15.55 17.8 16.15 18.85 L16.7 19.7 16.75 18.35 Q16.95 17.6 19.2 13.7 20.7 11.1 23.0 9.5 L17.35 10.45 16.5 12.35 M-7.3 -8.65 Q-12.5 -16.3 -15.7 -21.7 L-16.0 -21.75 -16.05 -22.35 -19.35 -28.5 Q-20.8 -31.7 -23.9 -41.0 -27.0 -50.25 -27.0 -51.35 L-26.95 -51.7 -27.35 -51.8 -28.0 -52.35 Q-31.3 -52.35 -32.75 -47.55 L-33.5 -42.65 Q-33.5 -41.0 -32.9 -39.15 L-32.5 -38.8 Q-31.55 -37.8 -31.5 -36.0 L-31.6 -35.75 Q-31.75 -35.5 -32.5 -35.5 -33.25 -35.5 -34.25 -37.3 L-34.75 -37.75 -36.4 -39.25 -38.85 -42.25 Q-40.15 -39.55 -40.4 -38.25 L-40.5 -35.3 Q-40.5 -32.65 -39.75 -30.6 L-38.6 -28.8 -38.25 -28.15 -37.3 -27.45 -35.5 -24.85 -35.75 -24.3 Q-35.95 -24.0 -36.75 -24.0 -37.5 -24.0 -38.95 -25.25 L-40.05 -26.5 Q-41.05 -26.65 -42.05 -27.65 -43.05 -28.7 -44.5 -28.25 L-45.15 -24.75 Q-45.05 -23.05 -44.25 -22.0 L-42.05 -19.2 -41.05 -17.65 -40.35 -17.5 -40.15 -17.35 Q-40.0 -17.25 -40.0 -16.5 L-40.1 -15.75 -40.35 -15.5 Q-44.15 -15.4 -45.15 -14.3 -45.5 -13.95 -45.5 -12.8 -45.5 -10.35 -42.35 -6.65 -39.15 -2.9 -35.85 -1.75 L-35.5 -1.0 Q-35.75 -0.05 -36.85 0.0 L-37.0 0.05 -41.3 0.75 -41.6 1.6 Q-41.55 3.05 -39.6 4.85 L-37.7 6.05 -33.35 8.75 -33.15 8.65 -33.0 9.0 -33.0 9.1 -33.0 9.5 Q-33.0 9.85 -35.25 11.1 -37.5 12.35 -37.5 13.0 -37.5 14.35 -32.6 15.8 -27.1 17.4 -26.5 18.0 L-26.55 18.85 Q-26.65 19.3 -27.05 19.45 -27.2 19.95 -27.7 20.15 -28.85 20.6 -29.6 21.5 -28.15 22.45 -25.1 22.9 L-20.75 23.25 -13.85 22.3 -6.65 21.1 -6.5 21.0 -6.3 21.05 -6.0 21.0 -5.7 21.05 Q-4.85 20.25 -4.6 19.1 L-4.75 18.35 -5.05 17.6 -5.0 16.1 -5.55 13.3 -5.6 12.45 -5.75 12.0 -5.85 11.7 Q-6.8 8.75 -6.95 5.9 L-7.0 4.8 -6.85 2.3 -7.0 2.25 -7.0 1.05 -7.1 1.05 -7.0 0.5 -6.6 -1.35 Q-6.0 -2.45 -6.0 -4.1 -6.0 -6.0 -7.4 -8.6 L-7.3 -8.65" fill="#000000" fill-rule="evenodd" stroke="none"/>
      <path d="M30.1 -0.25 L30.25 -0.55 30.25 -0.25 30.1 -0.25" fill="#5b6171" fill-rule="evenodd" stroke="none"/>
      <path d="M21.7 3.95 Q21.7 5.45 19.95 5.45 L18.45 5.2 18.35 4.95 Q18.2 4.8 18.2 4.05 18.2 1.85 21.35 2.7 L21.55 2.95 21.7 3.95" fill="#ffffff" fill-rule="evenodd" stroke="none"/>
      <path d="M16.5 12.35 L17.35 10.45 23.0 9.5 Q20.7 11.1 19.2 13.7 16.95 17.6 16.75 18.35 L16.7 19.7 16.15 18.85 Q15.55 17.8 15.5 15.9 L15.5 15.65 15.5 15.5 Q15.55 14.45 16.5 12.35" fill="#cdac98" fill-rule="evenodd" stroke="none"/>
      <path d="M-7.4 -8.6 Q-6.0 -6.0 -6.0 -4.1 -6.0 -2.45 -6.6 -1.35 L-7.0 0.5 -7.1 1.05 -7.0 1.05 -7.0 2.25 -6.85 2.3 -7.0 4.8 -6.95 5.9 Q-6.8 8.75 -5.85 11.7 L-5.75 12.0 -5.6 12.45 -5.55 13.3 -5.0 16.1 -5.05 17.6 -4.75 18.35 -4.6 19.1 Q-4.85 20.25 -5.7 21.05 L-6.0 21.0 -6.3 21.05 -6.5 21.0 -6.65 21.1 -13.85 22.3 -20.75 23.25 -25.1 22.9 Q-28.15 22.45 -29.6 21.5 -28.85 20.6 -27.7 20.15 -27.2 19.95 -27.05 19.45 -26.65 19.3 -26.55 18.85 L-26.5 18.0 Q-27.1 17.4 -32.6 15.8 -37.5 14.35 -37.5 13.0 -37.5 12.35 -35.25 11.1 -33.0 9.85 -33.0 9.5 L-33.0 9.1 -33.0 9.0 -33.15 8.65 -33.35 8.75 -37.7 6.05 -39.6 4.85 Q-41.55 3.05 -41.6 1.6 L-41.3 0.75 -37.0 0.05 -36.85 0.0 Q-35.75 -0.05 -35.5 -1.0 L-35.85 -1.75 Q-39.15 -2.9 -42.35 -6.65 -45.5 -10.35 -45.5 -12.8 -45.5 -13.95 -45.15 -14.3 -44.15 -15.4 -40.35 -15.5 L-40.1 -15.75 -40.0 -16.5 Q-40.0 -17.25 -40.15 -17.35 L-40.35 -17.5 -41.05 -17.65 -42.05 -19.2 -44.25 -22.0 Q-45.05 -23.05 -45.15 -24.75 L-44.5 -28.25 Q-43.05 -28.7 -42.05 -27.65 -41.05 -26.65 -40.05 -26.5 L-38.95 -25.25 Q-37.5 -24.0 -36.75 -24.0 -35.95 -24.0 -35.75 -24.3 L-35.5 -24.85 -37.3 -27.45 -38.25 -28.15 -38.6 -28.8 -39.75 -30.6 Q-40.5 -32.65 -40.5 -35.3 L-40.4 -38.25 Q-40.15 -39.55 -38.85 -42.25 L-36.4 -39.25 -34.75 -37.75 -34.25 -37.3 Q-33.25 -35.5 -32.5 -35.5 -31.75 -35.5 -31.6 -35.75 L-31.5 -36.0 Q-31.55 -37.8 -32.5 -38.8 L-32.9 -39.15 Q-33.5 -41.0 -33.5 -42.65 L-32.75 -47.55 Q-31.3 -52.35 -28.0 -52.35 L-27.35 -51.8 -26.95 -51.7 -27.0 -51.35 Q-27.0 -50.25 -23.9 -41.0 -20.8 -31.7 -19.35 -28.5 L-16.05 -22.35 -16.0 -21.75 -15.7 -21.7 Q-12.5 -16.3 -7.3 -8.65 L-7.4 -8.6" fill="#c0cfc7" fill-rule="evenodd" stroke="none"/>
      <path d="M-3.4 -0.7 L-3.85 -0.65 -3.95 -0.9 -3.4 -0.7" fill="#333333" fill-rule="evenodd" stroke="none"/>
      <path d="M28.7 14.95 Q27.95 16.0 27.6 19.1 27.25 22.25 26.6 23.2 L20.2 31.95 19.45 27.3 18.8 23.3 19.0 22.8 18.7 22.45 18.7 22.25 Q18.7 18.7 21.5 14.9 24.1 11.4 28.15 9.25 30.2 9.2 31.5 12.7 32.45 15.2 32.7 18.45 32.7 20.6 31.7 23.7 L30.1 28.95 29.05 27.05 Q28.25 25.8 27.6 25.55 29.7 21.85 29.7 17.95 L29.65 16.45 Q29.5 15.55 28.7 14.95" fill="#8b8249" fill-rule="evenodd" stroke="none"/>
      <path d="M-3.95 -0.9 L-4.15 -1.05 -3.4 -0.7 -3.95 -0.9" fill="#52535f" fill-rule="evenodd" stroke="none"/>
      <path d="M-12.65 -22.0 L-12.3 -21.5 -10.4 -19.0 -9.05 -20.25 -7.0 -21.45 -6.4 -22.15 -2.55 -25.5 Q-2.1 -25.9 -0.5 -28.55 L0.75 -29.7 0.8 -29.75 0.8 -29.7 3.35 -29.8 3.55 -29.55 3.7 -29.1 4.45 -28.55 6.95 -25.95 8.1 -25.25 Q9.85 -24.05 15.3 -21.2 19.65 -18.9 21.7 -17.0 27.1 -12.0 27.75 -4.0 L28.0 -0.3 9.8 -0.65 6.35 -1.05 5.4 -0.7 -3.4 -0.7 -4.15 -1.05 -4.35 -1.05 -4.35 -1.25 -4.0 -4.0 Q-4.0 -5.35 -4.55 -6.9 L-4.5 -7.85 Q-4.5 -8.35 -5.65 -10.25 L-7.95 -13.75 -11.75 -19.1 -13.45 -21.9 -13.25 -22.0 -12.85 -22.25 -12.65 -22.0 M12.5 1.5 L12.5 1.9 Q12.5 3.35 15.0 9.8 L14.25 12.3 Q13.5 14.85 13.5 15.8 L13.6 18.75 15.5 22.2 15.5 22.25 10.65 22.75 5.05 22.15 4.75 22.0 Q3.45 22.0 2.75 21.5 L1.8 21.5 1.65 21.3 1.5 21.25 1.5 21.1 1.25 21.15 1.1 21.25 Q0.15 19.7 -0.2 17.2 L-0.35 11.1 -0.35 5.9 -0.65 1.85 -0.6 1.8 -0.45 1.35 5.3 1.45 5.3 1.5 12.5 1.5" fill="#4e5963" fill-rule="evenodd" stroke="none"/>
      <path d="M-12.65 -22.0 Q-10.7 -23.35 -10.0 -23.85 -7.25 -25.8 -4.9 -28.05 -3.5 -29.4 -2.45 -31.0 -1.5 -32.45 -1.3 -33.3 -1.1 -34.15 -0.3 -34.65 0.45 -35.15 1.7 -35.35 L1.85 -35.35 3.85 -35.8 Q5.2 -32.7 5.8 -31.8 7.75 -29.0 11.6 -27.3 14.1 -26.2 18.4 -23.3 L24.2 -19.25 Q26.45 -17.75 27.9 -15.3 28.8 -13.75 29.35 -11.75 L29.35 -11.3 29.5 -11.3 29.8 -9.85 Q30.25 -7.5 30.3 -3.65 L30.25 -0.55 30.1 -0.25 28.05 -0.3 28.0 -0.3 27.75 -4.0 Q27.1 -12.0 21.7 -17.0 19.65 -18.9 15.3 -21.2 9.85 -24.05 8.1 -25.25 L6.95 -25.95 4.45 -28.55 3.7 -29.1 3.55 -29.55 3.35 -29.8 0.8 -29.7 0.8 -29.75 0.75 -29.7 -0.5 -28.55 Q-2.1 -25.9 -2.55 -25.5 L-6.4 -22.15 -7.0 -21.45 -9.05 -20.25 -10.4 -19.0 -12.3 -21.5 -12.65 -22.0" fill="#6c7b88" fill-rule="evenodd" stroke="none"/>
    </g>
    <g id="shape3" transform="matrix(1.0, 0.0, 0.0, 1.0, 19.3, 39.65)">
      <path d="M0.05 -11.35 Q1.5 -12.9 3.95 -13.25 3.15 -16.75 2.25 -22.05 1.0 -27.75 -1.5 -32.45 -4.15 -37.4 -6.2 -37.2 L-9.2 -33.25 -9.5 -32.85 -10.55 -31.3 Q-13.0 -27.8 -14.3 -23.65 -10.85 -22.7 -6.3 -17.55 L-3.9 -14.75 -3.9 -14.7 -3.75 -14.5 -1.4 -9.4 Q-0.95 -10.65 0.05 -11.35 M2.15 -1.95 Q2.1 -2.55 2.35 -2.7 3.4 -6.35 5.55 -7.0 4.9 -8.4 4.3 -11.5 L3.15 -10.65 Q1.0 -9.45 0.55 -8.75 L0.1 -8.05 -0.45 -7.3 -0.65 -6.85 Q-1.45 -5.65 -1.5 -4.7 L-1.95 -0.2 -2.3 3.3 Q-2.4 8.05 -0.3 11.95 0.6 13.7 2.1 15.35 L2.3 15.45 3.25 16.5 4.0 16.95 4.05 17.05 6.25 18.5 Q6.1 17.7 6.25 17.15 L6.65 13.8 6.15 13.45 3.6 11.4 Q1.95 9.75 1.6 8.85 1.25 8.0 1.25 4.2 1.15 0.7 2.15 -1.95 M8.25 0.3 L7.55 -1.95 7.5 -2.05 6.95 -3.3 6.35 -5.15 6.3 -5.25 6.05 -4.95 Q5.35 -4.35 4.9 -3.4 L4.85 -3.3 4.75 -2.9 4.35 -2.2 3.85 -0.85 Q2.85 2.2 3.1 4.35 3.0 7.75 4.2 8.95 L4.4 9.15 5.75 10.75 6.25 11.3 6.65 11.6 6.65 11.05 6.7 10.8 6.7 10.55 6.85 10.9 7.0 11.2 7.3 10.65 7.85 9.35 7.85 9.05 8.65 6.95 8.85 4.65 8.35 0.75 8.25 0.3 M9.6 -2.15 Q10.5 1.2 10.65 4.45 L10.65 5.6 10.45 8.8 8.4 12.5 8.5 13.6 Q8.45 23.9 6.8 29.5 L4.1 37.6 Q1.3 44.35 -0.85 44.5 L-1.2 44.35 Q-1.55 44.35 -1.55 44.5 -4.85 44.35 -10.05 35.3 -14.55 27.7 -16.25 22.05 -18.8 14.15 -19.15 10.2 L-19.2 7.6 -19.2 2.3 -19.2 -0.35 -19.2 -1.5 Q-19.3 -6.65 -18.25 -10.35 L-17.65 -15.4 Q-17.5 -19.0 -17.1 -20.3 -16.15 -25.1 -13.3 -30.15 L-10.35 -35.45 Q-8.85 -37.8 -7.05 -38.5 -6.2 -39.65 -5.05 -39.6 L-4.85 -39.55 Q-1.45 -39.8 2.6 -28.05 4.4 -22.4 6.15 -15.05 L7.45 -7.55 Q8.7 -5.3 9.6 -2.15 M2.55 18.4 L2.35 18.15 Q0.95 16.7 -0.25 14.85 L-0.7 14.35 Q-2.0 18.3 -10.95 29.85 -9.0 33.25 -6.25 36.75 L-5.85 37.15 -4.35 38.95 -1.15 42.45 Q1.35 39.25 3.1 34.85 L5.65 25.9 6.25 21.8 6.15 20.7 Q4.4 20.35 2.55 18.4 M-16.05 -14.5 L-16.5 -9.45 Q-16.95 -8.1 -17.2 -5.1 L-17.45 -0.1 Q-17.65 12.75 -14.6 21.55 L-12.05 27.75 Q-11.45 26.4 -9.95 24.75 L-6.75 20.85 -3.95 15.8 Q-2.9 13.25 -1.9 12.5 L-2.2 12.1 -4.0 6.95 -4.05 2.95 Q-4.2 -2.7 -2.8 -6.35 L-2.4 -7.5 Q-4.35 -12.25 -7.8 -16.1 -10.4 -19.05 -14.7 -22.4 L-15.6 -19.1 -16.05 -14.5" fill="#000000" fill-rule="evenodd" stroke="none"/>
      <path d="M0.1 -8.05 L-0.05 -7.0 -0.45 -7.3 0.1 -8.05 M4.35 -2.2 L4.35 -0.85 3.85 -0.85 4.35 -2.2 M7.9 0.85 L8.25 0.3 8.35 0.75 7.9 0.85 M6.95 -3.3 L4.9 -3.4 Q5.35 -4.35 6.05 -4.95 L6.35 -5.15 6.95 -3.3 M4.4 9.15 L4.2 8.95 4.4 9.15 M6.85 10.9 Q7.0 10.6 7.3 10.65 L7.0 11.2 6.85 10.9 M6.65 11.05 L6.65 11.6 6.25 11.3 6.65 11.05" fill="#4f4f4f" fill-rule="evenodd" stroke="none"/>
      <path d="M-9.2 -33.25 L-6.2 -37.2 Q-4.15 -37.4 -1.5 -32.45 1.0 -27.75 2.25 -22.05 3.15 -16.75 3.95 -13.25 1.5 -12.9 0.05 -11.35 L-3.45 -21.65 -6.5 -28.55 Q-7.9 -31.85 -9.2 -33.25 M-4.35 38.95 Q-2.0 35.7 -0.7 30.45 L1.15 25.2 2.7 19.05 Q2.45 18.6 2.55 18.4 4.4 20.35 6.15 20.7 L6.25 21.8 5.65 25.9 3.1 34.85 Q1.35 39.25 -1.15 42.45 L-4.35 38.95" fill="#046193" fill-rule="evenodd" stroke="none"/>
      <path d="M-9.2 -33.25 Q-7.9 -31.85 -6.5 -28.55 L-3.45 -21.65 0.05 -11.35 Q-0.95 -10.65 -1.4 -9.4 L-3.75 -14.5 -3.9 -14.7 -3.9 -14.75 -6.3 -17.55 Q-10.85 -22.7 -14.3 -23.65 -13.0 -27.8 -10.55 -31.3 L-9.5 -32.85 -9.2 -33.25 M-4.35 38.95 L-5.85 37.15 -6.25 36.75 Q-9.0 33.25 -10.95 29.85 -2.0 18.3 -0.7 14.35 L-0.25 14.85 Q0.95 16.7 2.35 18.15 L2.55 18.4 Q2.45 18.6 2.7 19.05 L1.15 25.2 -0.7 30.45 Q-2.0 35.7 -4.35 38.95" fill="#023f60" fill-rule="evenodd" stroke="none"/>
      <path d="M-16.05 -14.5 L-15.6 -19.1 -14.7 -22.4 Q-10.4 -19.05 -7.8 -16.1 -4.35 -12.25 -2.4 -7.5 L-2.8 -6.35 Q-4.2 -2.7 -4.05 2.95 L-4.0 6.95 -2.2 12.1 -1.9 12.5 Q-2.9 13.25 -3.95 15.8 L-6.75 20.85 -9.95 24.75 Q-11.45 26.4 -12.05 27.75 L-14.6 21.55 Q-17.65 12.75 -17.45 -0.1 L-17.2 -5.1 Q-16.95 -8.1 -16.5 -9.45 L-16.05 -14.5" fill="#22454f" fill-rule="evenodd" stroke="none"/>
      <path d="M-0.05 -7.0 Q0.0 -5.75 0.55 -4.45 1.1 -2.35 2.15 -1.95 1.15 0.7 1.25 4.2 1.25 8.0 1.6 8.85 1.95 9.75 3.6 11.4 L6.15 13.45 6.65 13.8 6.25 17.15 Q6.1 17.7 6.25 18.5 L4.05 17.05 4.0 16.95 3.25 16.5 2.3 15.45 2.1 15.35 Q0.6 13.7 -0.3 11.95 -2.4 8.05 -2.3 3.3 L-1.95 -0.2 -1.5 -4.7 Q-1.45 -5.65 -0.65 -6.85 L-0.45 -7.3 -0.05 -7.0 M4.35 -0.85 L4.35 1.8 5.9 2.05 Q6.95 1.95 7.9 0.85 L8.35 0.75 8.85 4.65 8.65 6.95 7.85 9.05 7.85 9.35 7.3 10.65 Q7.0 10.6 6.85 10.9 L6.7 10.55 6.7 10.8 6.65 11.05 6.25 11.3 5.75 10.75 4.4 9.15 4.2 8.95 Q3.0 7.75 3.1 4.35 2.85 2.2 3.85 -0.85 L4.35 -0.85" fill="#4e5963" fill-rule="evenodd" stroke="none"/>
      <path d="M0.1 -8.05 L0.55 -8.75 Q1.0 -9.45 3.15 -10.65 L4.3 -11.5 Q4.9 -8.4 5.55 -7.0 3.4 -6.35 2.35 -2.7 2.1 -2.55 2.15 -1.95 1.1 -2.35 0.55 -4.45 0.0 -5.75 -0.05 -7.0 L0.1 -8.05 M4.35 -0.85 L4.35 -2.2 4.75 -2.9 4.85 -3.3 4.9 -3.4 6.95 -3.3 7.5 -2.05 7.55 -1.95 8.25 0.3 7.9 0.85 Q6.95 1.95 5.9 2.05 L4.35 1.8 4.35 -0.85" fill="#6c7b88" fill-rule="evenodd" stroke="none"/>
    </g>
    <g id="shape4" transform="matrix(1.0, 0.0, 0.0, 1.0, 12.65, 23.4)">
      <path d="M12.65 -15.15 Q12.65 -10.85 10.5 -5.55 L6.75 2.55 Q5.65 2.7 5.25 3.7 L4.6 3.5 7.55 7.8 Q11.8 14.2 11.8 15.7 11.8 16.45 9.65 18.2 6.3 20.9 -0.3 23.0 L-1.05 23.3 -2.35 23.4 Q-5.0 23.4 -8.8 14.15 -12.25 5.8 -12.25 3.1 L-12.2 2.75 -12.65 2.5 -12.05 -0.4 Q-10.9 -5.45 -9.75 -7.35 L-10.15 -7.7 -10.3 -7.55 -10.85 -7.3 Q-11.85 -8.5 -11.85 -8.95 -11.85 -11.25 -8.05 -15.25 -4.7 -18.8 -1.55 -20.55 7.25 -25.55 10.75 -21.75 12.65 -19.65 12.65 -15.15 M8.9 -20.75 Q3.95 -20.75 1.45 -19.5 -0.15 -18.7 -4.6 -14.75 L-7.8 -11.15 -9.15 -9.15 -8.15 -8.55 -8.05 -8.55 -8.05 -8.5 -7.65 -8.15 Q-4.25 -4.8 -2.8 -4.05 L5.2 1.65 7.65 -4.9 Q10.65 -12.55 10.65 -15.05 9.9 -20.75 8.9 -20.75 M1.25 2.65 L1.65 2.05 -1.8 -0.6 -3.4 -0.45 Q-6.5 -0.05 -9.75 2.85 L-9.65 4.25 -9.65 5.3 Q-9.65 6.15 -8.75 8.55 L-8.3 7.9 -8.25 8.1 -8.25 8.2 -8.05 8.45 -7.95 8.45 -7.7 9.45 -6.6 8.35 -5.6 8.1 -5.6 7.9 -5.2 7.8 -5.1 7.55 -1.75 5.6 2.45 3.3 Q2.0 2.95 1.35 2.8 L1.25 2.65 M3.4 6.2 L3.4 5.75 3.3 4.7 Q-3.35 9.65 -6.4 10.75 L-7.55 11.0 -7.65 11.1 -6.4 13.95 Q-3.05 21.2 -1.8 21.2 0.55 21.0 9.4 14.8 L3.6 6.15 3.4 6.2 M-9.7 -0.05 L-9.4 -0.3 Q-7.3 -2.05 -4.2 -2.6 L-8.15 -5.95 -9.85 -0.25 -10.0 0.25 -9.7 -0.05" fill="#000000" fill-rule="evenodd" stroke="none"/>
      <path d="M1.25 2.65 L1.35 2.8 Q2.0 2.95 2.45 3.3 L-1.75 5.6 -5.1 7.55 -5.2 7.8 -5.6 7.9 -5.6 8.1 -6.6 8.35 -7.7 9.45 -7.95 8.45 -8.05 8.45 -8.25 8.2 -8.25 8.1 -8.3 7.9 -8.75 8.55 Q-9.65 6.15 -9.65 5.3 L-9.65 4.25 -9.75 2.85 Q-6.5 -0.05 -3.4 -0.45 L-1.8 -0.6 1.65 2.05 1.25 2.65" fill="#332d26" fill-rule="evenodd" stroke="none"/>
      <path d="M-9.85 -0.25 L-8.15 -5.95 -4.2 -2.6 Q-7.3 -2.05 -9.4 -0.3 L-9.7 -0.05 -9.85 -0.25 M3.4 6.2 L3.6 6.15 9.4 14.8 Q0.55 21.0 -1.8 21.2 -3.05 21.2 -6.4 13.95 L-7.65 11.1 -7.55 11.0 -6.4 10.75 Q-3.35 9.65 3.3 4.7 L3.4 5.75 3.4 6.2" fill="#cdac98" fill-rule="evenodd" stroke="none"/>
      <path d="M-9.85 -0.25 L-9.7 -0.05 -10.0 0.25 -9.85 -0.25" fill="#c6b19f" fill-rule="evenodd" stroke="none"/>
      <path d="M8.9 -20.75 Q9.9 -20.75 10.65 -15.05 10.65 -12.55 7.65 -4.9 L5.2 1.65 -2.8 -4.05 Q-4.25 -4.8 -7.65 -8.15 L-8.05 -8.5 -8.05 -8.55 -8.15 -8.55 -9.15 -9.15 -7.8 -11.15 -4.6 -14.75 Q-0.15 -18.7 1.45 -19.5 3.95 -20.75 8.9 -20.75" fill="#046193" fill-rule="evenodd" stroke="none"/>
    </g>
    <g id="shape5" transform="matrix(1.0, 0.0, 0.0, 1.0, 36.0, 81.25)">
      <path d="M7.3 -79.8 L6.65 -80.25 7.1 -81.25 Q10.75 -80.85 19.6 -77.35 21.85 -76.5 25.1 -73.8 28.4 -71.05 29.3 -69.2 32.0 -63.45 33.0 -59.65 34.05 -55.7 34.05 -51.0 34.05 -40.6 30.35 -32.9 25.8 -23.4 15.55 -17.6 L15.05 -17.7 14.05 -17.1 Q13.45 -17.2 13.3 -17.35 13.05 -17.55 13.05 -18.3 L13.05 -18.35 13.05 -18.5 13.05 -18.85 13.15 -19.1 13.25 -19.2 13.5 -19.25 Q15.0 -20.0 15.5 -21.7 16.2 -22.65 16.25 -24.1 L16.55 -25.75 Q16.55 -28.85 16.05 -29.85 L15.8 -30.15 15.65 -30.45 14.4 -31.6 13.25 -33.0 12.2 -33.55 10.4 -34.2 Q9.5 -34.75 8.4 -34.75 5.4 -34.75 4.9 -31.0 4.65 -29.1 5.55 -28.15 L5.55 -21.6 Q6.1 -20.9 6.35 -19.4 L6.55 -17.85 6.55 -15.35 Q5.75 -13.6 1.3 -13.6 -3.2 -13.6 -4.05 -14.35 -4.95 -15.15 -4.95 -19.1 -4.95 -20.65 -4.3 -21.05 L-3.2 -21.4 Q-4.25 -22.7 -4.45 -24.35 L-4.45 -27.8 -4.4 -30.8 -4.35 -31.6 -5.05 -31.65 Q-5.55 -32.7 -6.65 -33.25 -7.65 -33.75 -9.05 -33.75 -12.8 -33.75 -14.2 -31.85 -15.9 -31.05 -16.05 -28.5 -16.45 -27.45 -16.2 -24.35 L-16.15 -24.2 Q-16.4 -22.95 -15.9 -21.0 -15.4 -19.0 -14.25 -17.4 L-14.5 -16.35 Q-25.25 -21.2 -30.55 -30.25 -34.95 -37.6 -35.85 -47.95 -36.25 -52.65 -35.55 -56.65 -34.9 -60.55 -32.7 -66.5 -31.95 -68.4 -28.95 -71.45 -25.95 -74.45 -23.75 -75.5 -15.75 -79.5 -12.05 -80.35 L-11.8 -79.25 -12.8 -78.55 Q-14.6 -77.0 -15.2 -74.75 L-15.35 -72.85 Q-15.8 -71.05 -15.6 -68.5 -14.95 -65.65 -13.6 -62.95 -12.2 -60.15 -10.6 -58.85 L-7.0 -58.65 -7.25 -59.1 -6.0 -58.75 -6.2 -60.35 -6.45 -62.7 Q-6.45 -64.45 -3.9 -69.95 -1.55 -75.05 -0.95 -75.6 0.85 -73.5 2.2 -70.9 L4.55 -65.6 4.55 -58.35 4.8 -58.35 Q6.25 -58.35 7.5 -59.3 9.25 -60.65 10.55 -63.95 11.65 -66.75 12.05 -69.7 12.05 -75.05 9.4 -77.05 L8.65 -78.15 8.1 -78.9 7.3 -79.8 M31.5 -57.05 Q30.5 -61.85 27.9 -66.45 22.9 -75.3 14.35 -77.35 L12.1 -77.35 Q13.6 -76.1 13.95 -73.8 L13.95 -73.75 14.05 -69.85 14.0 -68.05 Q16.4 -67.25 18.2 -64.2 20.05 -61.1 20.55 -57.35 20.55 -53.2 21.05 -44.4 L21.05 -43.95 Q21.0 -39.95 20.0 -35.7 L19.3 -33.2 Q18.7 -31.4 17.95 -30.5 L18.45 -28.8 18.55 -25.5 18.4 -22.05 20.2 -23.6 24.0 -27.2 Q27.35 -30.85 29.1 -34.6 L29.2 -34.8 29.7 -36.1 Q30.6 -38.75 31.25 -42.7 32.05 -47.4 32.05 -51.25 32.05 -54.2 31.5 -57.05 M12.75 -63.1 Q11.9 -61.6 7.6 -57.15 L6.55 -56.1 4.45 -56.1 Q4.0 -55.8 3.55 -55.6 L4.05 -44.45 Q4.35 -39.45 4.8 -35.3 5.85 -35.85 7.65 -36.05 L8.55 -36.1 Q12.9 -36.2 16.4 -32.55 L17.05 -33.5 Q18.55 -35.8 18.55 -37.8 L18.8 -41.45 19.05 -44.45 18.55 -56.45 Q18.4 -59.05 16.65 -62.3 15.35 -64.75 13.8 -66.05 13.45 -64.25 12.75 -63.1 M1.2 -67.25 L-0.55 -71.2 Q-1.3 -70.65 -2.85 -67.4 -4.45 -64.15 -4.45 -63.15 -4.45 -61.8 -3.65 -60.65 -3.1 -59.75 -2.45 -59.4 L-0.95 -59.85 1.2 -59.95 2.5 -60.0 2.55 -63.35 Q2.35 -64.85 1.2 -67.25 M-1.95 -21.65 Q0.2 -21.9 3.9 -21.7 3.25 -23.1 3.05 -25.15 L3.05 -29.85 2.85 -34.55 2.55 -39.2 Q2.2 -42.45 2.0 -48.45 L1.55 -57.85 1.55 -57.95 1.4 -57.95 -2.1 -57.2 -2.45 -56.55 -2.95 -55.1 -2.95 -46.5 -2.65 -38.6 -1.95 -26.6 -1.95 -21.8 -2.15 -21.6 -1.95 -21.65 M4.55 -19.55 L-2.7 -19.55 -2.45 -15.85 4.35 -15.85 4.55 -16.3 4.55 -19.55 M13.5 10.25 Q13.5 11.95 11.0 15.5 7.85 20.0 4.0 20.0 0.2 20.0 -2.5 18.5 -5.5 16.85 -5.5 14.0 -5.5 13.0 -4.75 10.1 -4.0 7.2 -4.0 5.35 L-3.85 5.3 -4.05 5.15 Q-4.95 4.35 -4.95 0.4 -4.95 -1.15 -4.3 -1.55 L5.55 -2.1 Q6.1 -1.4 6.35 0.1 L6.55 1.65 6.55 3.5 6.6 3.5 6.8 3.65 Q7.0 3.75 7.0 4.5 L7.0 4.95 7.75 5.05 Q9.9 5.55 11.7 7.15 13.5 8.8 13.5 10.25 M2.0 6.0 L-2.05 6.0 -2.0 6.75 Q-2.0 7.65 -2.75 10.3 -3.5 12.95 -3.5 13.85 -3.5 15.05 -1.75 16.25 0.4 17.75 4.0 17.75 7.0 17.75 9.5 14.15 10.7 12.35 11.35 10.4 11.35 8.9 7.0 7.0 5.7 7.0 4.75 9.2 L3.6 12.25 3.0 12.5 2.15 12.3 Q2.0 12.15 2.0 11.3 2.0 7.2 3.7 5.75 L2.0 6.0 M4.55 3.2 L4.55 -0.05 -2.7 -0.05 -2.45 3.65 -0.15 3.65 4.45 3.5 4.55 3.2 M-22.05 -60.35 L-21.2 -62.5 Q-19.7 -65.7 -17.4 -66.75 L-17.6 -68.5 -17.85 -72.45 Q-17.7 -74.75 -16.3 -76.15 L-18.55 -75.95 Q-25.4 -73.65 -29.4 -67.0 L-29.45 -66.9 -30.8 -64.4 -30.85 -64.25 -31.05 -63.9 Q-32.7 -60.25 -33.4 -56.6 -34.25 -52.55 -33.9 -48.4 L-33.05 -42.9 -32.35 -39.95 Q-31.05 -34.85 -29.45 -32.05 -26.45 -26.75 -19.65 -21.9 L-17.7 -20.5 -18.15 -23.95 -18.35 -27.25 -18.0 -29.0 -18.05 -29.05 -18.9 -30.15 Q-19.75 -31.55 -20.5 -33.95 -21.95 -38.35 -22.35 -42.5 L-22.45 -45.95 Q-22.65 -52.2 -22.95 -55.45 -22.85 -58.05 -22.05 -60.35 M-10.05 -56.4 Q-14.75 -60.45 -15.7 -61.9 -16.5 -63.0 -17.05 -64.75 -18.4 -63.3 -19.5 -60.75 -20.95 -57.35 -20.9 -54.75 L-20.35 -42.75 -19.8 -39.8 Q-19.35 -37.4 -19.25 -36.2 -19.1 -34.2 -17.35 -32.0 L-16.65 -31.1 Q-13.5 -35.1 -9.15 -35.35 L-9.1 -35.15 -7.0 -35.55 Q-5.3 -35.55 -4.5 -34.7 L-4.95 -46.9 -5.05 -49.65 -4.95 -53.2 Q-4.75 -54.2 -5.15 -56.6 L-6.3 -56.7 -7.2 -56.6 -9.4 -57.0 -10.1 -57.25 -10.05 -56.4" fill="#000000" fill-rule="evenodd" stroke="none"/>
      <path d="M13.95 -73.75 L13.95 -73.8 Q13.6 -76.1 12.1 -77.35 L14.35 -77.35 Q22.9 -75.3 27.9 -66.45 30.5 -61.85 31.5 -57.05 27.4 -60.4 19.35 -68.35 L13.95 -73.75 M29.7 -36.1 L29.2 -34.8 29.1 -34.6 Q27.35 -30.85 24.0 -27.2 L23.7 -27.5 20.05 -32.1 19.3 -33.2 20.0 -35.7 Q21.0 -39.95 21.05 -43.95 L21.3 -43.7 23.15 -41.35 25.1 -39.2 Q27.7 -36.85 27.9 -36.95 L28.8 -37.6 29.85 -36.6 29.7 -36.1 M-22.05 -60.35 Q-22.85 -58.05 -22.95 -55.45 -22.65 -52.2 -22.45 -45.95 L-28.65 -51.9 -33.4 -56.6 Q-32.7 -60.25 -31.05 -63.9 L-30.85 -64.25 -30.8 -64.4 -29.45 -66.9 -29.4 -67.0 -25.95 -63.85 -22.05 -60.35 M-18.9 -30.15 L-18.05 -29.05 -18.0 -29.0 -18.35 -27.25 -18.15 -23.95 -17.7 -20.5 -19.65 -21.9 Q-26.45 -26.75 -29.45 -32.05 -31.05 -34.85 -32.35 -39.95 L-33.05 -42.9 -31.0 -41.15 -24.7 -34.8 -18.9 -30.15" fill="#cdd7da" fill-rule="evenodd" stroke="none"/>
      <path d="M13.95 -73.75 L19.35 -68.35 Q27.4 -60.4 31.5 -57.05 32.05 -54.2 32.05 -51.25 32.05 -47.4 31.25 -42.7 30.6 -38.75 29.7 -36.1 L29.85 -36.6 28.8 -37.6 27.9 -36.95 Q27.7 -36.85 25.1 -39.2 L23.15 -41.35 21.3 -43.7 21.05 -43.95 21.05 -44.4 Q20.55 -53.2 20.55 -57.35 20.05 -61.1 18.2 -64.2 16.4 -67.25 14.0 -68.05 L14.05 -69.85 13.95 -73.75 M24.0 -27.2 L20.2 -23.6 18.4 -22.05 18.55 -25.5 18.45 -28.8 17.95 -30.5 Q18.7 -31.4 19.3 -33.2 L20.05 -32.1 23.7 -27.5 24.0 -27.2 M-29.4 -67.0 Q-25.4 -73.65 -18.55 -75.95 L-16.3 -76.15 Q-17.7 -74.75 -17.85 -72.45 L-17.6 -68.5 -17.4 -66.75 Q-19.7 -65.7 -21.2 -62.5 L-22.05 -60.35 -25.95 -63.85 -29.4 -67.0 M-22.45 -45.95 L-22.35 -42.5 Q-21.95 -38.35 -20.5 -33.95 -19.75 -31.55 -18.9 -30.15 L-24.7 -34.8 -31.0 -41.15 -33.05 -42.9 -33.9 -48.4 Q-34.25 -52.55 -33.4 -56.6 L-28.65 -51.9 -22.45 -45.95" fill="#a7b9be" fill-rule="evenodd" stroke="none"/>
      <path d="M-10.05 -56.4 L-10.1 -57.25 -9.4 -57.0 -10.05 -56.4" fill="#535f60" fill-rule="evenodd" stroke="none"/>
      <path d="M-1.95 -21.8 L-1.95 -26.6 -2.65 -38.6 -2.95 -46.5 -2.95 -55.1 -2.45 -56.55 -2.1 -57.2 1.4 -57.95 1.55 -57.95 1.55 -57.85 2.0 -48.45 Q2.2 -42.45 2.55 -39.2 L2.85 -34.55 3.05 -29.85 3.05 -25.15 Q3.25 -23.1 3.9 -21.7 0.2 -21.9 -1.95 -21.65 L-1.95 -21.8 M2.0 6.0 L3.7 5.75 Q2.0 7.2 2.0 11.3 2.0 12.15 2.15 12.3 L3.0 12.5 3.6 12.25 4.75 9.2 Q5.7 7.0 7.0 7.0 11.35 8.9 11.35 10.4 10.7 12.35 9.5 14.15 7.0 17.75 4.0 17.75 0.4 17.75 -1.75 16.25 -3.5 15.05 -3.5 13.85 -3.5 12.95 -2.75 10.3 -2.0 7.65 -2.0 6.75 L-2.05 6.0 2.0 6.0" fill="#362c32" fill-rule="evenodd" stroke="none"/>
      <path d="M1.2 -67.25 Q2.35 -64.85 2.55 -63.35 L2.5 -60.0 1.2 -59.95 -0.95 -59.85 -2.45 -59.4 Q-3.1 -59.75 -3.65 -60.65 -4.45 -61.8 -4.45 -63.15 -4.45 -64.15 -2.85 -67.4 -1.3 -70.65 -0.55 -71.2 L1.2 -67.25 M12.75 -63.1 Q13.45 -64.25 13.8 -66.05 15.35 -64.75 16.65 -62.3 18.4 -59.05 18.55 -56.45 L19.05 -44.45 18.8 -41.45 18.55 -37.8 Q18.55 -35.8 17.05 -33.5 L16.4 -32.55 Q12.9 -36.2 8.55 -36.1 L7.65 -36.05 Q5.85 -35.85 4.8 -35.3 4.35 -39.45 4.05 -44.45 L3.55 -55.6 Q4.0 -55.8 4.45 -56.1 L6.55 -56.1 7.6 -57.15 Q11.9 -61.6 12.75 -63.1 M4.55 -19.55 L4.55 -16.3 4.35 -15.85 -2.45 -15.85 -2.7 -19.55 4.55 -19.55 M4.55 3.2 L4.45 3.5 -0.15 3.65 -2.45 3.65 -2.7 -0.05 4.55 -0.05 4.55 3.2 M-9.4 -57.0 L-7.2 -56.6 -6.3 -56.7 -5.15 -56.6 Q-4.75 -54.2 -4.95 -53.2 L-5.05 -49.65 -4.95 -46.9 -4.5 -34.7 Q-5.3 -35.55 -7.0 -35.55 L-9.1 -35.15 -9.15 -35.35 Q-13.5 -35.1 -16.65 -31.1 L-17.35 -32.0 Q-19.1 -34.2 -19.25 -36.2 -19.35 -37.4 -19.8 -39.8 L-20.35 -42.75 -20.9 -54.75 Q-20.95 -57.35 -19.5 -60.75 -18.4 -63.3 -17.05 -64.75 -16.5 -63.0 -15.7 -61.9 -14.75 -60.45 -10.05 -56.4 L-9.4 -57.0" fill="#4e5963" fill-rule="evenodd" stroke="none"/>
    </g>
    <g id="shape6" transform="matrix(1.0, 0.0, 0.0, 1.0, 29.0, 32.6)">
      <path d="M11.05 -28.0 Q14.5 -26.0 17.35 -22.35 19.4 -19.65 21.85 -15.15 L21.75 -14.95 23.4 -14.9 25.0 -15.05 28.5 -11.8 28.35 -11.45 28.7 -9.95 Q28.7 -7.75 27.75 -6.1 26.85 -4.5 24.95 -2.85 L24.1 -1.9 24.5 -2.1 Q22.7 -0.5 18.8 1.7 12.55 5.35 10.9 4.4 L10.15 3.7 9.8 3.55 Q9.45 3.35 6.8 -1.65 L2.95 -8.8 Q0.75 -11.75 -0.6 -14.15 -2.0 -16.55 -2.2 -18.35 L-2.35 -18.35 Q-2.3 -22.3 -1.9 -23.25 L-1.9 -23.3 Q-1.1 -24.55 2.55 -26.5 6.4 -28.75 8.95 -27.9 L9.5 -28.05 11.05 -28.0 M16.75 -18.85 L13.7 -22.3 Q12.95 -22.15 11.9 -21.6 L9.9 -20.1 9.7 -19.7 8.9 -19.15 8.45 -19.2 Q7.5 -19.0 7.1 -18.3 6.65 -17.6 6.75 -17.45 L6.7 -17.25 6.8 -16.95 Q6.8 -16.85 6.95 -16.7 7.4 -15.35 8.95 -12.05 11.0 -7.65 11.95 -6.75 L11.95 -6.15 12.3 -5.55 13.35 -6.1 13.75 -6.1 14.15 -6.5 17.2 -8.7 17.6 -9.5 19.1 -10.05 18.85 -11.45 18.85 -12.35 Q19.3 -13.7 19.35 -15.3 L16.75 -18.85 M14.15 -2.35 L12.05 1.75 Q12.4 1.9 12.45 2.55 13.55 2.7 18.6 -0.6 L19.85 -1.5 19.95 -1.65 Q20.25 -2.15 21.05 -2.45 L22.05 -3.35 23.7 -5.1 25.4 -6.7 Q26.5 -8.6 26.15 -10.0 L23.1 -8.9 Q20.9 -8.1 20.7 -7.8 L17.05 -5.1 14.4 -2.85 14.15 -2.35 M22.0 -13.05 L20.95 -12.2 Q20.6 -11.6 20.65 -10.7 L25.25 -12.15 24.4 -12.75 Q23.15 -13.5 22.0 -13.05 M-3.8 -29.15 Q-3.25 -27.8 -3.1 -25.65 -2.9 -22.15 -3.55 -19.7 -4.0 -18.15 -7.9 -10.6 L-9.4 -6.6 Q-10.3 -4.6 -12.05 -3.2 -10.9 -1.85 -10.5 1.8 -10.85 2.55 -12.05 2.45 L-12.2 2.25 Q-14.5 2.75 -18.85 2.3 -22.85 1.2 -25.75 -3.25 -27.7 -6.3 -27.85 -8.25 L-28.1 -8.8 -28.25 -9.3 -28.65 -9.35 -28.4 -9.55 -29.0 -11.45 Q-28.8 -12.15 -28.25 -12.6 L-27.75 -12.9 -26.65 -14.2 -25.15 -15.7 Q-22.45 -18.0 -21.65 -21.0 L-20.9 -21.85 Q-19.4 -25.95 -17.4 -28.5 -13.05 -33.85 -6.95 -32.2 -4.85 -31.65 -2.95 -29.5 L-3.7 -29.2 -3.8 -29.15 M-14.3 -17.45 Q-14.65 -16.4 -18.1 -12.2 -21.85 -7.6 -24.55 -6.45 L-23.85 -4.75 Q-22.45 -1.0 -17.9 0.35 L-17.6 0.45 -13.05 0.75 -12.85 0.75 -13.05 0.25 -14.1 -1.85 Q-14.9 -1.05 -15.35 -0.75 L-17.6 0.25 -17.85 0.3 Q-18.05 0.25 -17.85 -0.6 -17.5 -1.9 -16.6 -2.95 -15.3 -4.35 -13.65 -4.15 L-13.5 -4.9 -12.45 -6.9 Q-11.6 -8.25 -11.45 -8.9 L-10.25 -11.5 -9.15 -14.05 -8.15 -16.2 -11.55 -16.55 -14.15 -17.4 -14.25 -17.4 -14.3 -17.5 -14.3 -17.45" fill="#000000" fill-rule="evenodd" stroke="none"/>
      <path d="M14.15 -2.35 L14.4 -2.85 17.05 -5.1 20.7 -7.8 Q20.9 -8.1 23.1 -8.9 L26.15 -10.0 Q26.5 -8.6 25.4 -6.7 L23.7 -5.1 22.05 -3.35 21.05 -2.45 Q20.25 -2.15 19.95 -1.65 L19.85 -1.5 18.6 -0.6 Q13.55 2.7 12.45 2.55 12.4 1.9 12.05 1.75 L14.15 -2.35" fill="#211b14" fill-rule="evenodd" stroke="none"/>
      <path d="M16.75 -18.85 L19.35 -15.3 Q19.3 -13.7 18.85 -12.35 L18.85 -11.45 19.1 -10.05 17.6 -9.5 17.2 -8.7 14.15 -6.5 13.75 -6.1 13.35 -6.1 12.3 -5.55 11.95 -6.15 11.95 -6.75 Q11.0 -7.65 8.95 -12.05 7.4 -15.35 6.95 -16.7 6.8 -16.85 6.8 -16.95 L6.7 -17.25 6.75 -17.45 Q6.65 -17.6 7.1 -18.3 7.5 -19.0 8.45 -19.2 L8.9 -19.15 9.7 -19.7 9.9 -20.1 11.9 -21.6 Q12.95 -22.15 13.7 -22.3 L16.75 -18.85 M22.0 -13.05 Q23.15 -13.5 24.4 -12.75 L25.25 -12.15 20.65 -10.7 Q20.6 -11.6 20.95 -12.2 L22.0 -13.05 M-17.9 0.35 Q-22.45 -1.0 -23.85 -4.75 L-24.55 -6.45 Q-21.85 -7.6 -18.1 -12.2 -14.65 -16.4 -14.3 -17.45 L-14.25 -17.4 -14.15 -17.4 -11.55 -16.55 -8.15 -16.2 -9.15 -14.05 -10.25 -11.5 -11.45 -8.9 Q-11.6 -8.25 -12.45 -6.9 L-13.5 -4.9 -13.65 -4.15 Q-15.3 -4.35 -16.6 -2.95 -17.5 -1.9 -17.85 -0.6 -18.05 0.25 -17.85 0.3 L-17.9 0.35 M-17.6 0.25 L-15.35 -0.75 Q-14.9 -1.05 -14.1 -1.85 L-13.05 0.25 -13.05 0.75 -17.6 0.45 -17.6 0.25" fill="#333333" fill-rule="evenodd" stroke="none"/>
    </g>
    <g id="shape7" transform="matrix(1.0, 0.0, 0.0, 1.0, 29.55, 23.5)">
      <path d="M-3.05 -20.95 L-3.05 -21.1 -3.0 -21.1 -3.05 -20.95" fill="#5b6171" fill-rule="evenodd" stroke="none"/>
      <path d="M18.85 -22.5 L31.05 -22.5 31.2 -22.95 Q31.9 -22.9 32.45 -22.5 L33.0 -22.5 33.25 -22.35 Q33.45 -22.25 33.45 -21.5 L33.45 -21.4 Q34.65 -19.5 35.15 -15.3 37.8 -12.9 42.3 -9.65 44.55 -7.7 45.6 -5.55 47.9 -4.05 49.4 -0.6 50.95 2.8 50.95 6.15 50.95 10.0 50.5 10.65 49.6 11.9 43.45 15.0 L42.7 14.75 Q41.25 16.5 38.95 16.5 32.25 16.5 30.7 12.1 L30.65 11.9 Q28.85 11.35 26.25 8.75 L25.55 8.0 25.2 8.15 24.05 8.4 23.95 9.0 Q23.45 13.5 23.45 16.5 L23.15 16.7 23.25 17.0 Q24.25 18.05 25.85 20.55 29.7 26.5 31.95 32.0 L31.85 32.2 31.95 33.0 31.95 33.5 32.3 33.95 33.9 36.3 33.9 39.05 33.9 39.5 Q33.9 40.6 27.9 41.5 L-6.35 43.0 -12.6 42.6 -24.3 42.0 -24.45 41.85 -24.6 40.9 Q-24.6 40.5 -23.9 40.3 L-24.05 39.8 -24.1 38.05 Q-24.1 35.8 -23.9 35.15 -23.75 34.55 -23.4 34.25 L-23.45 34.0 -23.8 34.0 -23.95 33.75 -24.1 32.75 -23.4 29.35 -22.6 24.75 -22.15 22.75 -21.6 20.55 -21.8 18.7 -21.55 17.8 -21.4 17.6 Q-22.3 16.6 -22.55 13.4 L-22.55 8.65 -22.7 2.4 -28.0 3.0 -28.05 3.0 -28.75 3.0 -28.9 2.75 -29.05 1.75 -29.0 0.95 -28.9 0.8 -29.4 -2.1 -29.55 -7.45 Q-29.55 -14.25 -29.0 -16.95 -27.7 -23.05 -23.75 -22.0 L-22.8 -22.2 -22.75 -22.25 Q-21.75 -22.8 -18.05 -22.75 L-15.65 -22.95 0.75 -23.0 1.45 -23.5 2.25 -21.95 7.15 -21.9 13.95 -21.5 15.95 -21.35 Q16.0 -22.15 16.25 -22.25 L18.85 -22.5 M32.8 -17.25 L32.75 -17.4 31.95 -19.65 31.65 -20.45 26.15 -20.35 19.7 -19.95 Q20.05 -19.65 19.55 -19.55 L19.8 -18.35 19.25 -18.45 19.55 -17.25 19.7 -16.65 19.8 -16.1 Q20.3 -13.7 20.95 -12.7 L20.95 -11.45 20.95 -9.0 20.95 -5.05 20.95 -3.25 20.9 -3.3 20.9 -3.0 20.9 -1.5 27.55 -1.5 27.4 -2.2 27.4 -3.0 27.4 -5.1 27.4 -5.45 Q27.95 -6.0 29.4 -5.8 29.95 -6.3 31.25 -6.9 L32.95 -7.65 32.95 -9.4 32.95 -11.5 32.95 -15.0 32.95 -16.25 32.9 -16.75 32.8 -17.1 32.8 -17.25 M18.3 -11.9 L18.15 -12.7 18.15 -12.8 18.05 -13.15 17.9 -14.1 Q17.45 -16.7 17.45 -17.95 L17.6 -18.75 3.3 -19.5 4.85 -15.05 5.25 -13.8 5.75 -12.05 5.95 -11.4 7.1 -7.25 7.45 -6.0 7.45 -5.5 7.45 -4.4 7.65 -3.45 7.9 -1.5 7.95 -1.5 8.2 -1.35 Q8.4 -1.25 8.4 -0.5 L8.25 0.2 Q8.05 0.2 7.95 0.5 L5.65 0.45 0.5 1.1 -2.1 2.0 -2.85 1.85 -3.05 1.5 -3.9 1.05 -4.65 0.25 -5.4 -1.0 -5.45 -1.0 -5.8 -1.7 -6.75 -4.2 -12.2 -3.6 -12.6 -3.5 -12.75 -3.55 -14.7 -3.5 -14.8 -3.45 -15.95 -2.7 -15.95 -3.0 -16.8 -3.0 -19.05 -3.2 -20.0 -0.85 -20.2 -0.35 -20.2 -0.25 -20.2 -0.2 -20.25 1.5 -20.35 4.6 -20.45 4.9 -20.6 5.9 -20.4 6.7 -20.45 6.7 -20.45 7.0 -20.55 8.4 -20.45 10.1 Q-20.3 9.85 -19.85 9.75 L-9.1 9.25 Q-9.1 9.05 1.1 9.1 11.7 9.15 21.75 9.45 L22.05 6.2 22.05 6.15 22.15 6.15 22.2 5.8 22.2 5.6 22.2 5.5 22.2 5.25 22.2 4.85 22.2 4.7 22.25 4.0 22.3 3.1 22.9 3.3 22.9 2.5 22.95 1.15 21.0 1.4 19.9 1.5 19.15 1.25 Q18.95 1.1 18.9 0.5 L18.9 0.4 18.9 0.25 Q18.9 -0.25 19.35 -0.6 L19.3 -0.7 19.0 -1.5 18.95 -1.6 18.9 -3.35 18.9 -4.2 18.95 -5.5 18.95 -7.2 18.95 -7.45 18.95 -7.5 18.3 -11.9 M1.8 -18.0 L0.9 -19.3 0.5 -21.0 -2.3 -20.95 -3.0 -21.1 -3.05 -21.1 -3.05 -20.95 -8.75 -20.85 -18.4 -20.5 Q-17.2 -19.25 -16.25 -17.0 L-15.55 -15.0 -15.05 -13.15 -14.55 -10.8 -14.4 -10.15 -14.3 -9.6 -14.25 -9.15 -14.2 -8.85 -14.15 -8.5 -13.85 -5.95 -13.85 -5.85 -13.45 -6.0 -5.55 -6.5 -5.15 -5.6 Q-4.6 -5.15 -4.1 -4.0 L-3.85 -3.65 -3.75 -3.5 -1.95 -0.35 Q-0.5 -1.15 2.4 -1.25 L5.45 -1.45 5.4 -1.6 5.4 -2.4 5.2 -2.4 5.1 -3.7 5.05 -4.4 5.05 -4.5 5.05 -4.75 5.05 -4.85 4.95 -5.95 4.9 -6.5 4.55 -9.45 4.45 -9.75 3.95 -11.0 3.8 -11.5 3.7 -11.75 Q3.55 -13.75 2.65 -15.65 L2.25 -16.45 2.2 -16.75 2.2 -16.85 1.8 -18.0 M29.9 -4.05 L29.9 -0.2 29.55 0.05 28.9 0.5 28.7 0.35 27.45 0.65 25.9 0.85 25.9 1.0 25.4 2.4 25.4 2.6 25.35 3.5 25.4 3.5 25.55 3.5 25.5 3.75 25.35 3.85 25.15 4.5 26.05 5.35 27.0 6.75 29.65 8.5 30.25 8.95 30.45 7.35 Q30.45 4.7 31.0 3.0 L31.1 2.95 Q31.5 1.95 32.9 0.8 34.5 -0.45 35.9 -1.0 L36.25 -0.85 36.5 -1.25 37.0 -2.1 Q38.7 -2.25 40.3 -1.6 41.8 -1.3 43.0 -0.45 43.1 -1.2 44.0 -2.0 L44.4 -2.3 Q44.0 -5.45 38.95 -9.55 36.65 -11.4 35.35 -12.7 L35.45 -5.95 34.4 -5.95 33.95 -5.85 32.9 -5.2 32.0 -4.65 Q30.75 -4.0 30.15 -4.0 L29.9 -4.05 M46.85 0.35 L46.75 0.2 46.45 0.5 46.15 0.45 45.45 2.3 44.85 2.45 44.95 4.4 Q44.95 8.6 44.45 10.8 L43.95 12.5 45.7 11.3 Q48.95 9.15 48.95 6.5 48.95 4.45 46.85 0.35 M41.45 1.3 L40.85 0.9 39.75 0.25 36.65 0.55 35.1 2.3 32.75 4.55 Q32.45 5.75 32.45 7.5 32.45 9.65 32.7 10.85 L32.95 11.0 32.85 11.25 32.95 11.55 Q34.2 14.25 38.6 14.25 41.4 14.25 42.45 9.5 L42.95 4.75 42.25 2.8 41.45 1.3 M-19.9 11.7 L-20.1 12.9 -19.85 14.05 -19.55 14.6 -19.95 14.45 -19.6 16.9 -19.0 17.55 -17.7 17.75 -17.0 18.4 -14.45 18.85 -0.4 19.25 9.0 18.95 17.05 18.6 17.95 18.5 20.75 17.75 20.7 16.8 20.7 16.75 Q21.45 16.0 21.45 14.65 L21.25 14.7 21.45 12.65 21.45 12.4 21.55 11.5 -19.9 11.5 -20.3 11.5 -20.3 11.7 -19.9 11.7 M26.6 27.0 L25.1 24.65 24.4 23.45 23.25 21.55 22.25 19.75 21.45 20.0 18.55 20.65 13.95 21.1 -0.3 21.5 -11.05 21.1 -14.6 20.9 -15.75 20.75 -17.75 20.25 -18.1 20.2 -18.65 22.05 -18.65 22.1 -19.3 24.05 -20.55 27.55 -20.6 27.8 -20.65 28.1 -20.65 28.15 -20.65 28.45 -20.7 28.65 -20.85 30.0 -20.95 30.9 -21.4 32.65 -21.45 33.05 -21.4 33.05 -16.05 33.1 -12.9 33.15 3.35 33.75 Q13.75 33.75 18.3 33.4 L19.7 33.25 19.85 33.2 20.05 33.2 24.45 32.65 30.15 32.1 27.9 29.05 27.4 28.3 26.6 27.0 M26.05 39.15 L31.35 38.7 31.85 38.65 31.95 38.65 32.45 38.6 30.9 36.15 29.6 34.1 23.95 34.5 23.6 34.55 23.4 34.55 22.35 34.6 3.45 36.0 -7.0 36.05 Q-10.35 35.95 -11.05 35.3 -11.2 35.15 -16.1 35.25 L-16.4 35.25 -21.1 35.4 -21.6 37.6 -22.2 40.0 Q-20.15 39.8 -16.25 40.0 L-15.6 40.0 -6.45 40.75 19.95 39.65 26.05 39.15 M-23.95 -20.15 Q-27.0 -18.15 -27.45 -15.55 -27.75 -13.75 -27.55 -9.7 -27.9 -7.25 -27.65 -3.85 L-27.25 0.45 -22.6 0.15 Q-22.35 -3.05 -21.2 -3.9 -23.25 -5.05 -23.95 -7.5 -24.35 -8.9 -24.25 -10.6 L-24.05 -12.1 -23.8 -16.8 Q-23.35 -18.9 -22.1 -19.5 L-23.95 -20.15" fill="#000000" fill-rule="evenodd" stroke="none"/>
      <path d="M46.45 0.5 L46.85 0.35 Q48.95 4.45 48.95 6.5 48.95 9.15 45.7 11.3 L43.95 12.5 44.45 10.8 Q44.95 8.6 44.95 4.4 L44.85 2.45 45.45 2.3 46.15 0.45 46.45 0.5 M41.45 1.3 L42.25 2.8 42.95 4.75 42.45 9.5 Q41.4 14.25 38.6 14.25 34.2 14.25 32.95 11.55 L32.85 11.25 32.95 11.0 32.7 10.85 Q32.45 9.65 32.45 7.5 32.45 5.75 32.75 4.55 L35.1 2.3 36.65 0.55 39.75 0.25 40.85 0.9 41.45 1.3" fill="#cdac98" fill-rule="evenodd" stroke="none"/>
      <path d="M-19.9 11.5 L-19.9 11.7 -20.3 11.7 -20.3 11.5 -19.9 11.5" fill="#11100f" fill-rule="evenodd" stroke="none"/>
      <path d="M23.4 34.55 L23.6 34.55 23.95 34.5 29.6 34.1 30.9 36.15 32.45 38.6 31.95 38.65 31.85 38.65 31.35 38.7 26.05 39.15 25.05 39.2 24.4 38.1 Q23.5 36.25 23.4 34.55 M-16.25 40.0 Q-20.15 39.8 -22.2 40.0 L-21.6 37.6 -21.1 35.4 -16.4 35.25 -16.1 35.25 -16.1 37.0 Q-16.1 38.75 -16.25 40.0" fill="#046193" fill-rule="evenodd" stroke="none"/>
      <path d="M29.9 -4.05 L30.15 -4.0 Q30.75 -4.0 32.0 -4.65 L32.9 -5.2 33.95 -5.85 34.4 -5.95 35.45 -5.95 35.35 -12.7 Q36.65 -11.4 38.95 -9.55 44.0 -5.45 44.4 -2.3 L44.0 -2.0 Q43.1 -1.2 43.0 -0.45 41.8 -1.3 40.3 -1.6 38.7 -2.25 37.0 -2.1 L36.5 -1.25 36.25 -0.85 35.9 -1.0 Q34.5 -0.45 32.9 0.8 31.5 1.95 31.1 2.95 L31.0 3.0 Q30.45 4.7 30.45 7.35 L30.25 8.95 29.65 8.5 27.0 6.75 26.05 5.35 25.15 4.5 25.35 3.85 25.5 3.75 25.55 3.5 25.4 3.5 25.35 3.5 25.4 2.6 25.4 2.4 25.9 1.0 25.9 0.85 27.45 0.65 28.7 0.35 28.9 0.5 29.55 0.05 29.9 -0.2 29.9 -4.05 M23.4 34.55 Q23.5 36.25 24.4 38.1 L25.05 39.2 26.05 39.15 19.95 39.65 -6.45 40.75 -15.6 40.0 -16.25 40.0 Q-16.1 38.75 -16.1 37.0 L-16.1 35.25 Q-11.2 35.15 -11.05 35.3 -10.35 35.95 -7.0 36.05 L3.45 36.0 22.35 34.6 23.4 34.55" fill="#023f60" fill-rule="evenodd" stroke="none"/>
      <path d="M-21.4 33.05 L-21.45 33.05 -21.4 32.65 -21.4 33.05" fill="#942403" fill-rule="evenodd" stroke="none"/>
      <path d="M19.55 -17.25 L19.25 -18.45 19.8 -18.35 19.55 -19.55 Q20.05 -19.65 19.7 -19.95 L26.15 -20.35 31.65 -20.45 31.95 -19.65 32.75 -17.4 32.8 -17.25 32.7 -17.45 23.15 -18.25 Q20.85 -18.1 19.55 -17.25 M32.95 -15.0 L32.95 -11.5 20.95 -11.45 20.95 -12.7 Q20.3 -13.7 19.8 -16.1 21.35 -15.4 23.6 -15.75 27.0 -16.3 29.9 -15.0 L32.95 -15.0 M32.95 -9.4 L32.95 -7.65 31.25 -6.9 Q29.95 -6.3 29.4 -5.8 27.95 -6.0 27.4 -5.45 L27.4 -5.1 27.35 -5.1 22.25 -5.45 20.95 -5.05 20.95 -9.0 28.9 -9.0 31.7 -9.35 32.95 -9.4 M27.4 -3.0 L27.4 -2.2 27.55 -1.5 20.9 -1.5 20.9 -3.0 27.4 -3.0 M18.3 -11.9 L18.95 -7.5 Q9.95 -7.6 7.2 -7.25 L7.1 -7.25 5.95 -11.4 5.75 -12.05 5.95 -11.4 8.4 -11.0 Q14.65 -11.0 18.3 -11.9 M18.95 -5.5 L18.9 -4.2 18.9 -3.35 18.95 -1.6 19.0 -1.5 18.95 -1.5 Q11.45 -1.6 8.2 -1.35 L7.95 -1.5 7.9 -1.5 7.65 -3.45 7.45 -4.4 7.45 -5.5 18.95 -5.5 M18.9 0.5 Q18.95 1.1 19.15 1.25 L19.9 1.5 21.0 1.4 22.95 1.15 22.9 2.5 22.9 3.3 22.3 3.1 22.25 4.0 -11.6 4.0 -11.6 4.25 -20.35 4.9 -20.45 4.9 -20.35 4.6 -20.25 1.5 -13.1 1.5 -7.3 1.15 -3.9 1.05 -3.05 1.5 -2.85 1.85 -2.1 2.0 0.5 1.1 5.65 0.45 5.7 0.5 7.95 0.5 18.9 0.5 M22.05 6.15 L22.05 6.2 21.75 9.45 Q11.7 9.15 1.1 9.1 -9.1 9.05 -9.1 9.25 L-19.85 9.75 Q-20.3 9.85 -20.45 10.1 L-20.55 8.4 -20.45 7.0 -12.6 7.0 Q-1.1 6.6 21.8 6.15 L22.05 6.15 M-20.2 -0.2 L-20.2 -0.25 -20.2 -0.35 -20.0 -0.85 -19.05 -3.2 -16.8 -3.0 -15.95 -3.0 -15.95 -2.7 -14.8 -3.45 -14.7 -3.5 -12.75 -3.55 -12.6 -3.5 -12.2 -3.6 -6.75 -4.2 -5.8 -1.7 -5.45 -1.0 -12.6 -0.75 -20.1 -0.25 -20.2 -0.2 M5.25 -13.8 L4.85 -15.05 3.3 -19.5 17.6 -18.75 17.45 -17.95 Q17.45 -16.7 17.9 -14.1 L16.45 -14.0 9.45 -13.75 6.65 -13.8 5.25 -13.8 M-3.0 -21.1 L-2.3 -20.95 0.5 -21.0 0.9 -19.3 1.8 -18.0 Q-10.1 -18.0 -10.1 -17.75 -14.7 -17.75 -16.25 -17.0 -17.2 -19.25 -18.4 -20.5 L-8.75 -20.85 -3.05 -20.95 -3.0 -21.1 M2.65 -15.65 Q3.55 -13.75 3.7 -11.75 L3.8 -11.5 3.7 -11.5 Q-6.6 -11.5 -6.6 -11.25 L-14.55 -10.8 -15.05 -13.15 -15.55 -15.0 -12.6 -15.0 -3.8 -15.45 2.65 -15.65 M4.55 -9.45 L4.9 -6.5 4.95 -5.95 4.9 -6.45 -3.5 -6.0 -5.15 -5.6 -5.55 -6.5 -13.45 -6.0 -13.85 -5.85 -13.85 -5.95 -14.15 -8.5 -10.6 -8.5 4.55 -9.45 M5.05 -4.4 L5.1 -3.7 5.2 -2.4 5.4 -2.4 5.4 -1.6 5.45 -1.45 2.4 -1.25 Q-0.5 -1.15 -1.95 -0.35 L-3.75 -3.5 -2.1 -3.5 5.05 -4.4 M24.4 23.45 L25.1 24.65 26.6 27.0 15.65 27.05 13.4 27.25 -17.35 27.85 -20.65 28.1 -20.6 27.8 -20.55 27.55 -19.3 24.05 2.4 25.0 Q14.05 25.0 16.7 24.05 L24.4 23.45 M27.9 29.05 L30.15 32.1 24.45 32.65 20.05 33.2 19.85 33.2 19.7 33.25 18.3 33.4 Q13.75 33.75 3.35 33.75 L-12.9 33.15 -16.05 33.1 -21.4 33.05 -21.4 32.65 -20.95 30.9 -20.85 30.0 -20.9 30.5 -18.1 30.5 27.9 29.05 M-18.65 22.05 L-18.1 20.2 -17.75 20.25 -15.75 20.75 -14.6 20.9 -11.05 21.1 -0.3 21.5 13.95 21.1 18.55 20.65 21.45 20.0 22.25 19.75 23.25 21.55 11.45 22.15 2.05 22.75 -12.1 22.0 Q-16.5 21.75 -18.65 22.05 M-23.95 -20.15 L-22.1 -19.5 Q-23.35 -18.9 -23.8 -16.8 L-24.05 -12.1 -24.25 -10.6 Q-24.35 -8.9 -23.95 -7.5 -23.25 -5.05 -21.2 -3.9 -22.35 -3.05 -22.6 0.15 L-27.25 0.45 -27.65 -3.85 Q-27.9 -7.25 -27.55 -9.7 -27.75 -13.75 -27.45 -15.55 -27.0 -18.15 -23.95 -20.15" fill="#4e5963" fill-rule="evenodd" stroke="none"/>
      <path d="M19.55 -17.25 Q20.85 -18.1 23.15 -18.25 L32.7 -17.45 32.8 -17.25 32.8 -17.1 32.9 -16.75 32.95 -16.25 32.95 -15.0 29.9 -15.0 Q27.0 -16.3 23.6 -15.75 21.35 -15.4 19.8 -16.1 L19.7 -16.65 19.55 -17.25 M32.95 -11.5 L32.95 -9.4 31.7 -9.35 28.9 -9.0 20.95 -9.0 20.95 -11.45 32.95 -11.5 M27.4 -5.1 L27.4 -3.0 20.9 -3.0 20.9 -3.3 20.95 -3.25 20.95 -5.05 22.25 -5.45 27.35 -5.1 27.4 -5.1 M17.9 -14.1 L18.05 -13.15 18.15 -12.8 18.15 -12.7 18.3 -11.9 Q14.65 -11.0 8.4 -11.0 L5.95 -11.4 5.75 -12.05 5.25 -13.8 6.65 -13.8 9.45 -13.75 16.45 -14.0 17.9 -14.1 M18.95 -7.5 L18.95 -7.45 18.95 -7.2 18.95 -5.5 7.45 -5.5 7.45 -6.0 7.1 -7.25 7.2 -7.25 Q9.95 -7.6 18.95 -7.5 M19.0 -1.5 L19.3 -0.7 19.35 -0.6 Q18.9 -0.25 18.9 0.25 L18.9 0.4 18.9 0.5 7.95 0.5 5.7 0.5 5.65 0.45 7.95 0.5 Q8.05 0.2 8.25 0.2 L8.4 -0.5 Q8.4 -1.25 8.2 -1.35 11.45 -1.6 18.95 -1.5 L19.0 -1.5 M22.25 4.0 L22.2 4.7 22.2 4.85 22.2 5.25 22.2 5.5 22.2 5.6 22.2 5.8 22.15 6.15 22.05 6.15 21.8 6.15 Q-1.1 6.6 -12.6 7.0 L-20.45 7.0 -20.45 6.7 -20.4 6.7 -20.6 5.9 -20.45 4.9 -20.35 4.9 -11.6 4.25 -11.6 4.0 22.25 4.0 M-20.25 1.5 L-20.2 -0.2 -20.1 -0.25 -12.6 -0.75 -5.45 -1.0 -5.4 -1.0 -4.65 0.25 -3.9 1.05 -7.3 1.15 -13.1 1.5 -20.25 1.5 M1.8 -18.0 L2.2 -16.85 2.2 -16.75 2.25 -16.45 2.65 -15.65 -3.8 -15.45 -12.6 -15.0 -15.55 -15.0 -16.25 -17.0 Q-14.7 -17.75 -10.1 -17.75 -10.1 -18.0 1.8 -18.0 M3.8 -11.5 L3.95 -11.0 4.45 -9.75 4.55 -9.45 -10.6 -8.5 -14.15 -8.5 -14.2 -8.85 -14.25 -9.15 -14.3 -9.6 -14.4 -10.15 -14.55 -10.8 -6.6 -11.25 Q-6.6 -11.5 3.7 -11.5 L3.8 -11.5 M4.95 -5.95 L5.05 -4.85 5.05 -4.75 5.05 -4.5 5.05 -4.4 -2.1 -3.5 -3.75 -3.5 -3.85 -3.65 -4.1 -4.0 Q-4.6 -5.15 -5.15 -5.6 L-3.5 -6.0 4.9 -6.45 4.95 -5.95 M24.4 23.45 L16.7 24.05 Q14.05 25.0 2.4 25.0 L-19.3 24.05 -18.65 22.1 -18.65 22.05 Q-16.5 21.75 -12.1 22.0 L2.05 22.75 11.45 22.15 23.25 21.55 24.4 23.45 M-20.65 28.1 L-17.35 27.85 13.4 27.25 15.65 27.05 26.6 27.0 27.4 28.3 27.9 29.05 -18.1 30.5 -20.9 30.5 -20.85 30.0 -20.7 28.65 -20.65 28.45 -20.65 28.15 -20.65 28.1" fill="#333a42" fill-rule="evenodd" stroke="none"/>
      <path d="M-19.9 11.5 L21.55 11.5 21.45 12.4 21.45 12.65 21.25 14.7 21.45 14.65 Q21.45 16.0 20.7 16.75 L20.7 16.8 20.75 17.75 17.95 18.5 17.05 18.6 9.0 18.95 -0.4 19.25 -14.45 18.85 -17.0 18.4 -17.7 17.75 -19.0 17.55 -19.6 16.9 -19.95 14.45 -19.55 14.6 -19.85 14.05 -20.1 12.9 -19.9 11.7 -19.9 11.5" fill="#221c15" fill-rule="evenodd" stroke="none"/>
    </g>
  </defs>
</svg>
