<?xml version="1.0" encoding="UTF-8" standalone="no"?>
<svg xmlns:ffdec="https://www.free-decompiler.com/flash" xmlns:xlink="http://www.w3.org/1999/xlink" ffdec:objectType="frame" height="413.2px" width="455.9px" xmlns="http://www.w3.org/2000/svg">
  <g transform="matrix(1.0, 0.0, 0.0, 1.0, 215.4, 263.7)">
    <use ffdec:characterId="696" height="126.2" transform="matrix(0.0616, 0.0794, -0.0794, 0.0616, -108.1748, -23.0235)" width="129.3" xlink:href="#shape0"/>
    <use ffdec:characterId="696" height="126.2" transform="matrix(0.0617, 0.0794, -0.0794, 0.0617, -83.9758, -32.8764)" width="129.3" xlink:href="#shape0"/>
    <use ffdec:characterId="696" height="126.2" transform="matrix(0.0616, 0.0794, -0.0794, 0.0616, 106.0752, -25.0235)" width="129.3" xlink:href="#shape0"/>
    <use ffdec:characterId="696" height="126.2" transform="matrix(0.0617, 0.0794, -0.0794, 0.0617, 133.6242, -14.3764)" width="129.3" xlink:href="#shape0"/>
    <use ffdec:characterId="696" height="126.2" transform="matrix(0.0616, 0.0794, -0.0794, 0.0616, 154.1752, -0.8735)" width="129.3" xlink:href="#shape0"/>
    <use ffdec:characterId="696" height="126.2" transform="matrix(0.0616, 0.0794, -0.0794, 0.0616, -130.4248, -11.0235)" width="129.3" xlink:href="#shape0"/>
    <use ffdec:characterId="696" height="126.2" transform="matrix(-0.1834, 0.3261, -0.3261, -0.1834, 44.6851, -28.956)" width="129.3" xlink:href="#shape1"/>
    <use ffdec:characterId="696" height="126.2" transform="matrix(-0.1834, 0.3261, -0.3261, -0.1834, 94.0351, -41.056)" width="129.3" xlink:href="#shape1"/>
    <use ffdec:characterId="696" height="126.2" transform="matrix(-0.3213, 0.067, -0.067, -0.3213, -0.397, -77.0083)" width="129.3" xlink:href="#shape2"/>
    <use ffdec:characterId="696" height="126.2" transform="matrix(-0.2303, 0.0449, -0.045, -0.2303, -64.8197, 18.1787)" width="129.3" xlink:href="#shape3"/>
    <use ffdec:characterId="696" height="126.2" transform="matrix(-0.1834, 0.3261, -0.3261, -0.1834, -17.4649, -52.856)" width="129.3" xlink:href="#shape1"/>
    <use ffdec:characterId="696" height="126.2" transform="matrix(-0.1148, 0.1327, -0.1327, -0.1148, 127.197, 1.2159)" width="129.3" xlink:href="#shape3"/>
    <use ffdec:characterId="696" height="126.2" transform="matrix(-0.2112, -0.0412, 0.0412, -0.2112, 64.7542, 35.9361)" width="129.3" xlink:href="#shape3"/>
    <use ffdec:characterId="696" height="126.2" transform="matrix(-0.0384, 0.2014, -0.2014, -0.0384, -9.0557, 7.3038)" width="129.3" xlink:href="#shape3"/>
    <use ffdec:characterId="696" height="126.2" transform="matrix(-0.3499, 0.073, -0.073, -0.3499, 46.6762, -115.8916)" width="129.3" xlink:href="#shape2"/>
    <use ffdec:characterId="696" height="126.2" transform="matrix(-0.1417, 0.4376, -0.4351, -0.1426, 75.3666, -84.0466)" width="129.3" xlink:href="#shape2"/>
    <use ffdec:characterId="696" height="126.2" transform="matrix(-0.0689, 0.0535, -0.0535, -0.0689, -145.6232, 22.7415)" width="129.3" xlink:href="#shape4"/>
    <use ffdec:characterId="696" height="126.2" transform="matrix(0.0642, 0.0827, -0.0827, 0.0642, -131.7797, 45.1007)" width="129.3" xlink:href="#shape4"/>
    <use ffdec:characterId="696" height="126.2" transform="matrix(-0.1032, 0.0801, -0.0801, -0.1032, -81.7275, 81.4826)" width="129.3" xlink:href="#shape4"/>
    <use ffdec:characterId="696" height="126.2" transform="matrix(0.0894, 0.0682, -0.0682, 0.0894, -42.424, 85.7992)" width="129.3" xlink:href="#shape4"/>
    <use ffdec:characterId="696" height="126.2" transform="matrix(-0.1032, 0.0801, -0.0801, -0.1032, 179.2225, 29.7826)" width="129.3" xlink:href="#shape4"/>
    <use ffdec:characterId="696" height="126.2" transform="matrix(0.0424, 0.1, -0.1, 0.0424, 140.567, 63.557)" width="129.3" xlink:href="#shape4"/>
    <use ffdec:characterId="696" height="126.2" transform="matrix(-0.1287, 0.018, -0.018, -0.1287, 88.4091, 99.1574)" width="129.3" xlink:href="#shape4"/>
    <use ffdec:characterId="696" height="126.2" transform="matrix(0.0912, 0.1175, -0.1175, 0.0912, 14.9647, 92.3503)" width="129.3" xlink:href="#shape4"/>
  </g>
  <defs>
    <g id="shape0" transform="matrix(1.0, 0.0, 0.0, 1.0, 64.65, 63.1)">
      <path d="M14.35 -50.45 L15.75 -48.65 25.0 -47.95 Q39.35 -45.75 47.25 -41.2 L52.0 -37.2 53.2 -36.25 53.75 -35.45 54.35 -34.85 Q57.9 -31.1 59.45 -27.9 63.1 -20.55 63.6 -13.9 L64.25 -5.9 64.65 -0.15 64.65 0.5 64.65 1.4 Q64.65 4.85 62.65 9.7 L60.95 14.4 Q56.0 26.35 48.1 26.9 L46.7 30.5 Q43.75 37.55 40.3 40.2 36.1 46.85 33.8 47.6 18.65 63.1 -4.0 63.1 L-8.85 62.85 -12.45 62.55 -14.35 62.55 Q-23.05 62.55 -30.1 60.9 -49.15 57.45 -56.25 43.55 -59.3 37.6 -59.85 30.05 L-59.9 28.6 Q-60.4 25.4 -60.4 22.05 -60.4 19.9 -59.9 17.6 L-59.9 17.35 Q-59.85 15.1 -59.3 13.45 -58.75 11.85 -57.25 9.9 L-56.4 8.45 -55.95 7.85 Q-60.1 6.05 -62.6 -2.65 -63.6 -6.05 -64.2 -10.2 L-64.65 -13.75 -64.4 -17.7 -64.1 -23.1 Q-63.95 -26.5 -62.9 -28.4 -62.5 -32.15 -60.9 -36.15 -58.35 -42.45 -53.3 -47.55 -44.85 -56.2 -31.15 -60.0 L-25.25 -61.6 Q-16.95 -63.45 -9.95 -63.05 -5.4 -63.1 -3.2 -62.25 L-2.45 -61.9 0.7 -60.95 Q5.5 -59.15 8.4 -56.2 L9.05 -55.7 Q12.0 -53.3 14.35 -50.45 M50.4 18.5 L56.7 13.35 56.55 12.5 56.55 12.45 Q57.2 12.2 58.1 10.2 L58.3 9.9 Q59.5 8.05 59.7 7.1 L59.9 5.4 60.55 4.45 Q60.95 3.6 61.0 2.4 L61.0 1.15 61.0 0.85 60.95 0.4 60.95 -0.5 Q60.95 -2.55 60.45 -5.05 L59.8 -7.9 59.85 -8.7 Q59.85 -11.7 59.45 -14.5 L58.95 -17.35 Q56.75 -27.05 49.25 -34.0 46.35 -36.65 42.35 -39.1 L42.05 -39.05 Q40.7 -39.05 38.15 -40.2 L37.65 -40.45 27.4 -42.65 21.55 -43.85 14.1 -42.8 13.65 -43.15 12.0 -42.8 10.1 -43.05 10.0 -43.3 Q9.85 -43.5 9.85 -44.25 L9.95 -44.95 9.5 -45.9 Q8.0 -49.3 6.0 -51.7 1.15 -57.7 -7.3 -59.4 L-9.65 -59.55 Q-25.9 -59.55 -37.05 -55.2 -42.65 -52.45 -47.45 -48.2 -53.35 -43.05 -56.6 -36.65 -59.85 -30.4 -59.85 -24.3 -59.85 -15.55 -58.3 -8.35 -56.45 0.25 -52.8 3.3 L-52.65 3.75 Q-51.8 6.2 -50.65 7.85 L-50.85 8.05 -52.45 10.55 -54.25 16.65 Q-56.1 23.5 -56.1 29.15 -56.1 32.7 -54.55 36.75 -52.4 42.25 -48.0 46.6 -37.4 57.05 -16.4 58.55 L-15.75 58.55 Q10.75 58.55 26.9 46.75 L26.9 46.2 32.1 41.05 34.75 38.5 39.9 28.1 43.55 20.1 Q43.7 18.05 43.5 16.15 L43.9 16.15 Q43.6 7.1 41.55 0.25 L40.7 -1.7 39.85 -3.95 Q35.85 -9.2 34.5 -11.4 26.75 -18.3 11.45 -18.3 8.55 -18.3 7.6 -19.35 L7.3 -19.9 7.2 -19.9 3.85 -21.9 Q0.35 -23.9 -1.65 -23.9 -16.25 -23.9 -25.8 -10.7 -28.9 -6.4 -30.95 -1.4 -31.5 1.6 -31.5 4.45 -31.5 6.4 -30.35 9.55 -28.75 14.0 -25.8 17.6 -23.0 21.0 -19.3 23.35 -15.7 26.95 -11.9 28.65 L-12.0 29.0 -10.35 29.7 Q-1.8 33.05 3.2 33.05 9.55 33.05 14.25 26.1 15.85 23.8 16.95 21.1 L17.85 18.3 Q17.85 16.0 12.5 10.05 L7.2 4.45 7.2 3.65 7.45 3.25 Q16.0 7.3 19.25 9.45 L21.05 12.85 22.15 14.7 22.1 18.0 Q22.1 25.25 19.85 29.6 14.95 39.15 0.55 39.15 -8.35 39.15 -15.25 34.4 L-17.75 32.4 Q-24.65 29.85 -29.65 22.65 -32.7 18.25 -34.4 12.95 -35.9 8.2 -35.9 4.3 -35.9 0.5 -34.7 -3.1 -34.25 -6.9 -32.2 -10.75 -32.05 -13.25 -28.5 -17.8 -24.3 -23.1 -18.65 -26.4 -11.65 -30.45 -4.55 -29.95 4.05 -29.4 12.0 -22.1 L11.95 -22.0 12.0 -22.0 12.65 -22.0 12.85 -22.1 Q14.9 -22.95 17.95 -23.05 26.0 -23.4 33.8 -19.0 36.25 -17.9 38.2 -15.7 L38.65 -15.7 41.3 -12.7 42.75 -11.15 44.6 -8.15 Q46.45 -5.45 47.1 -3.8 48.4 -0.35 49.5 4.0 50.8 9.35 50.8 12.35 L50.35 18.5 50.3 18.6 50.4 18.5 M-20.45 27.55 L-20.45 27.45 -20.35 27.25 -23.25 25.4 -20.45 27.55" fill="#f9b149" fill-opacity="0.15686275" fill-rule="evenodd" stroke="none"/>
      <path d="M12.0 -22.1 L12.0 -22.0 11.95 -22.0 12.0 -22.1 M50.35 18.5 L50.4 18.5 50.3 18.6 50.35 18.5" fill="#f9a920" fill-opacity="0.15686275" fill-rule="evenodd" stroke="none"/>
      <path d="M12.0 -22.1 Q4.05 -29.4 -4.55 -29.95 -11.65 -30.45 -18.65 -26.4 -24.3 -23.1 -28.5 -17.8 -32.05 -13.25 -32.2 -10.75 -34.25 -6.9 -34.7 -3.1 -35.9 0.5 -35.9 4.3 -35.9 8.2 -34.4 12.95 -32.7 18.25 -29.65 22.65 -24.65 29.85 -17.75 32.4 L-15.25 34.4 Q-8.35 39.15 0.55 39.15 14.95 39.15 19.85 29.6 22.1 25.25 22.1 18.0 L22.15 14.7 21.05 12.85 19.25 9.45 Q16.0 7.3 7.45 3.25 L7.2 3.65 7.2 4.45 12.5 10.05 Q17.85 16.0 17.85 18.3 L16.95 21.1 Q15.85 23.8 14.25 26.1 9.55 33.05 3.2 33.05 -1.8 33.05 -10.35 29.7 L-12.0 29.0 -11.9 28.65 Q-15.7 26.95 -19.3 23.35 -23.0 21.0 -25.8 17.6 -28.75 14.0 -30.35 9.55 -31.5 6.4 -31.5 4.45 -31.5 1.6 -30.95 -1.4 -28.9 -6.4 -25.8 -10.7 -16.25 -23.9 -1.65 -23.9 0.35 -23.9 3.85 -21.9 L7.2 -19.9 7.3 -19.9 7.6 -19.35 Q8.55 -18.3 11.45 -18.3 26.75 -18.3 34.5 -11.4 35.85 -9.2 39.85 -3.95 L40.7 -1.7 41.55 0.25 Q43.6 7.1 43.9 16.15 L43.5 16.15 Q43.7 18.05 43.55 20.1 L39.9 28.1 34.75 38.5 32.1 41.05 26.9 46.2 26.9 46.75 Q10.75 58.55 -15.75 58.55 L-16.4 58.55 Q-37.4 57.05 -48.0 46.6 -52.4 42.25 -54.55 36.75 -56.1 32.7 -56.1 29.15 -56.1 23.5 -54.25 16.65 L-52.45 10.55 -50.85 8.05 -50.65 7.85 Q-51.8 6.2 -52.65 3.75 L-52.8 3.3 Q-56.45 0.25 -58.3 -8.35 -59.85 -15.55 -59.85 -24.3 -59.85 -30.4 -56.6 -36.65 -53.35 -43.05 -47.45 -48.2 -42.65 -52.45 -37.05 -55.2 -25.9 -59.55 -9.65 -59.55 L-7.3 -59.4 Q1.15 -57.7 6.0 -51.7 8.0 -49.3 9.5 -45.9 L9.95 -44.95 9.85 -44.25 Q9.85 -43.5 10.0 -43.3 L10.1 -43.05 12.0 -42.8 13.65 -43.15 14.1 -42.8 21.55 -43.85 27.4 -42.65 37.65 -40.45 38.15 -40.2 Q40.7 -39.05 42.05 -39.05 L42.35 -39.1 Q46.35 -36.65 49.25 -34.0 56.75 -27.05 58.95 -17.35 L59.45 -14.5 Q59.85 -11.7 59.85 -8.7 L59.8 -7.9 60.45 -5.05 Q60.95 -2.55 60.95 -0.5 L60.95 0.4 61.0 0.85 61.0 1.15 61.0 2.4 Q60.95 3.6 60.55 4.45 L59.9 5.4 59.7 7.1 Q59.5 8.05 58.3 9.9 L58.1 10.2 Q57.2 12.2 56.55 12.45 L56.55 12.5 56.7 13.35 50.4 18.5 50.35 18.5 50.8 12.35 Q50.8 9.35 49.5 4.0 48.4 -0.35 47.1 -3.8 46.45 -5.45 44.6 -8.15 L42.75 -11.15 41.3 -12.7 38.65 -15.7 38.2 -15.7 Q36.25 -17.9 33.8 -19.0 26.0 -23.4 17.95 -23.05 14.9 -22.95 12.85 -22.1 L12.65 -22.0 12.0 -22.0 12.0 -22.1" fill="#f5a132" fill-opacity="0.15686275" fill-rule="evenodd" stroke="none"/>
    </g>
    <g id="shape1" transform="matrix(1.0, 0.0, 0.0, 1.0, 64.65, 63.1)">
      <path d="M14.35 -50.45 L15.75 -48.65 25.0 -47.95 Q39.35 -45.75 47.25 -41.2 L52.0 -37.2 53.2 -36.25 53.75 -35.45 54.35 -34.85 Q57.9 -31.1 59.45 -27.9 63.1 -20.55 63.6 -13.9 L64.25 -5.9 64.65 -0.15 64.65 0.5 64.65 1.4 Q64.65 4.85 62.65 9.7 L60.95 14.4 Q56.0 26.35 48.1 26.9 L46.7 30.5 Q43.75 37.55 40.3 40.2 36.1 46.85 33.8 47.6 18.65 63.1 -4.0 63.1 L-8.85 62.85 -12.45 62.55 -14.35 62.55 Q-23.05 62.55 -30.1 60.9 -49.15 57.45 -56.25 43.55 -59.3 37.6 -59.85 30.05 L-59.9 28.6 Q-60.4 25.4 -60.4 22.05 -60.4 19.9 -59.9 17.6 L-59.9 17.35 Q-59.85 15.1 -59.3 13.45 -58.75 11.85 -57.25 9.9 L-56.4 8.45 -55.95 7.85 Q-60.1 6.05 -62.6 -2.65 -63.6 -6.05 -64.2 -10.2 L-64.65 -13.75 -64.4 -17.7 -64.1 -23.1 Q-63.95 -26.5 -62.9 -28.4 -62.5 -32.15 -60.9 -36.15 -58.35 -42.45 -53.3 -47.55 -44.85 -56.2 -31.15 -60.0 L-25.25 -61.6 Q-16.95 -63.45 -9.95 -63.05 -5.4 -63.1 -3.2 -62.25 L-2.45 -61.9 0.7 -60.95 Q5.5 -59.15 8.4 -56.2 L9.05 -55.7 Q12.0 -53.3 14.35 -50.45 M50.4 18.5 L56.7 13.35 56.55 12.5 56.55 12.45 Q57.2 12.2 58.1 10.2 L58.3 9.9 Q59.5 8.05 59.7 7.1 L59.9 5.4 60.55 4.45 Q60.95 3.6 61.0 2.4 L61.0 1.15 61.0 0.85 60.95 0.4 60.95 -0.5 Q60.95 -2.55 60.45 -5.05 L59.8 -7.9 59.85 -8.7 Q59.85 -11.7 59.45 -14.5 L58.95 -17.35 Q56.75 -27.05 49.25 -34.0 46.35 -36.65 42.35 -39.1 L42.05 -39.05 Q40.7 -39.05 38.15 -40.2 L37.65 -40.45 27.4 -42.65 21.55 -43.85 14.1 -42.8 13.65 -43.15 12.0 -42.8 10.1 -43.05 10.0 -43.3 Q9.85 -43.5 9.85 -44.25 L9.95 -44.95 9.5 -45.9 Q8.0 -49.3 6.0 -51.7 1.15 -57.7 -7.3 -59.4 L-9.65 -59.55 Q-25.9 -59.55 -37.05 -55.2 -42.65 -52.45 -47.45 -48.2 -53.35 -43.05 -56.6 -36.65 -59.85 -30.4 -59.85 -24.3 -59.85 -15.55 -58.3 -8.35 -56.45 0.25 -52.8 3.3 L-52.65 3.75 Q-51.8 6.2 -50.65 7.85 L-50.85 8.05 -52.45 10.55 -54.25 16.65 Q-56.1 23.5 -56.1 29.15 -56.1 32.7 -54.55 36.75 -52.4 42.25 -48.0 46.6 -37.4 57.05 -16.4 58.55 L-15.75 58.55 Q10.75 58.55 26.9 46.75 L26.9 46.2 32.1 41.05 34.75 38.5 39.9 28.1 43.55 20.1 Q43.7 18.05 43.5 16.15 L43.9 16.15 Q43.6 7.1 41.55 0.25 L40.7 -1.7 39.85 -3.95 Q35.85 -9.2 34.5 -11.4 26.75 -18.3 11.45 -18.3 8.55 -18.3 7.6 -19.35 L7.3 -19.9 7.2 -19.9 3.85 -21.9 Q0.35 -23.9 -1.65 -23.9 -16.25 -23.9 -25.8 -10.7 -28.9 -6.4 -30.95 -1.4 -31.5 1.6 -31.5 4.45 -31.5 6.4 -30.35 9.55 -28.75 14.0 -25.8 17.6 -23.0 21.0 -19.3 23.35 -15.7 26.95 -11.9 28.65 L-12.0 29.0 -10.35 29.7 Q-1.8 33.05 3.2 33.05 9.55 33.05 14.25 26.1 15.85 23.8 16.95 21.1 L17.85 18.3 Q17.85 16.0 12.5 10.05 L7.2 4.45 7.2 3.65 7.45 3.25 Q16.0 7.3 19.25 9.45 L21.05 12.85 22.15 14.7 22.1 18.0 Q22.1 25.25 19.85 29.6 14.95 39.15 0.55 39.15 -8.35 39.15 -15.25 34.4 L-17.75 32.4 Q-24.65 29.85 -29.65 22.65 -32.7 18.25 -34.4 12.95 -35.9 8.2 -35.9 4.3 -35.9 0.5 -34.7 -3.1 -34.25 -6.9 -32.2 -10.75 -32.05 -13.25 -28.5 -17.8 -24.3 -23.1 -18.65 -26.4 -11.65 -30.45 -4.55 -29.95 4.05 -29.4 12.0 -22.1 L11.95 -22.0 12.0 -22.0 12.65 -22.0 12.85 -22.1 Q14.9 -22.95 17.95 -23.05 26.0 -23.4 33.8 -19.0 36.25 -17.9 38.2 -15.7 L38.65 -15.7 41.3 -12.7 42.75 -11.15 44.6 -8.15 Q46.45 -5.45 47.1 -3.8 48.4 -0.35 49.5 4.0 50.8 9.35 50.8 12.35 L50.35 18.5 50.3 18.6 50.4 18.5 M-20.45 27.55 L-20.45 27.45 -20.35 27.25 -23.25 25.4 -20.45 27.55" fill="#c2a14d" fill-opacity="0.31764707" fill-rule="evenodd" stroke="none"/>
      <path d="M12.0 -22.1 L12.0 -22.0 11.95 -22.0 12.0 -22.1 M50.35 18.5 L50.4 18.5 50.3 18.6 50.35 18.5" fill="#c29b2d" fill-opacity="0.31764707" fill-rule="evenodd" stroke="none"/>
      <path d="M12.0 -22.1 Q4.05 -29.4 -4.55 -29.95 -11.65 -30.45 -18.65 -26.4 -24.3 -23.1 -28.5 -17.8 -32.05 -13.25 -32.2 -10.75 -34.25 -6.9 -34.7 -3.1 -35.9 0.5 -35.9 4.3 -35.9 8.2 -34.4 12.95 -32.7 18.25 -29.65 22.65 -24.65 29.85 -17.75 32.4 L-15.25 34.4 Q-8.35 39.15 0.55 39.15 14.95 39.15 19.85 29.6 22.1 25.25 22.1 18.0 L22.15 14.7 21.05 12.85 19.25 9.45 Q16.0 7.3 7.45 3.25 L7.2 3.65 7.2 4.45 12.5 10.05 Q17.85 16.0 17.85 18.3 L16.95 21.1 Q15.85 23.8 14.25 26.1 9.55 33.05 3.2 33.05 -1.8 33.05 -10.35 29.7 L-12.0 29.0 -11.9 28.65 Q-15.7 26.95 -19.3 23.35 -23.0 21.0 -25.8 17.6 -28.75 14.0 -30.35 9.55 -31.5 6.4 -31.5 4.45 -31.5 1.6 -30.95 -1.4 -28.9 -6.4 -25.8 -10.7 -16.25 -23.9 -1.65 -23.9 0.35 -23.9 3.85 -21.9 L7.2 -19.9 7.3 -19.9 7.6 -19.35 Q8.55 -18.3 11.45 -18.3 26.75 -18.3 34.5 -11.4 35.85 -9.2 39.85 -3.95 L40.7 -1.7 41.55 0.25 Q43.6 7.1 43.9 16.15 L43.5 16.15 Q43.7 18.05 43.55 20.1 L39.9 28.1 34.75 38.5 32.1 41.05 26.9 46.2 26.9 46.75 Q10.75 58.55 -15.75 58.55 L-16.4 58.55 Q-37.4 57.05 -48.0 46.6 -52.4 42.25 -54.55 36.75 -56.1 32.7 -56.1 29.15 -56.1 23.5 -54.25 16.65 L-52.45 10.55 -50.85 8.05 -50.65 7.85 Q-51.8 6.2 -52.65 3.75 L-52.8 3.3 Q-56.45 0.25 -58.3 -8.35 -59.85 -15.55 -59.85 -24.3 -59.85 -30.4 -56.6 -36.65 -53.35 -43.05 -47.45 -48.2 -42.65 -52.45 -37.05 -55.2 -25.9 -59.55 -9.65 -59.55 L-7.3 -59.4 Q1.15 -57.7 6.0 -51.7 8.0 -49.3 9.5 -45.9 L9.95 -44.95 9.85 -44.25 Q9.85 -43.5 10.0 -43.3 L10.1 -43.05 12.0 -42.8 13.65 -43.15 14.1 -42.8 21.55 -43.85 27.4 -42.65 37.65 -40.45 38.15 -40.2 Q40.7 -39.05 42.05 -39.05 L42.35 -39.1 Q46.35 -36.65 49.25 -34.0 56.75 -27.05 58.95 -17.35 L59.45 -14.5 Q59.85 -11.7 59.85 -8.7 L59.8 -7.9 60.45 -5.05 Q60.95 -2.55 60.95 -0.5 L60.95 0.4 61.0 0.85 61.0 1.15 61.0 2.4 Q60.95 3.6 60.55 4.45 L59.9 5.4 59.7 7.1 Q59.5 8.05 58.3 9.9 L58.1 10.2 Q57.2 12.2 56.55 12.45 L56.55 12.5 56.7 13.35 50.4 18.5 50.35 18.5 50.8 12.35 Q50.8 9.35 49.5 4.0 48.4 -0.35 47.1 -3.8 46.45 -5.45 44.6 -8.15 L42.75 -11.15 41.3 -12.7 38.65 -15.7 38.2 -15.7 Q36.25 -17.9 33.8 -19.0 26.0 -23.4 17.95 -23.05 14.9 -22.95 12.85 -22.1 L12.65 -22.0 12.0 -22.0 12.0 -22.1" fill="#bf943b" fill-opacity="0.31764707" fill-rule="evenodd" stroke="none"/>
    </g>
    <g id="shape2" transform="matrix(1.0, 0.0, 0.0, 1.0, 64.65, 63.1)">
      <path d="M14.35 -50.45 L15.75 -48.65 25.0 -47.95 Q39.35 -45.75 47.25 -41.2 L52.0 -37.2 53.2 -36.25 53.75 -35.45 54.35 -34.85 Q57.9 -31.1 59.45 -27.9 63.1 -20.55 63.6 -13.9 L64.25 -5.9 64.65 -0.15 64.65 0.5 64.65 1.4 Q64.65 4.85 62.65 9.7 L60.95 14.4 Q56.0 26.35 48.1 26.9 L46.7 30.5 Q43.75 37.55 40.3 40.2 36.1 46.85 33.8 47.6 18.65 63.1 -4.0 63.1 L-8.85 62.85 -12.45 62.55 -14.35 62.55 Q-23.05 62.55 -30.1 60.9 -49.15 57.45 -56.25 43.55 -59.3 37.6 -59.85 30.05 L-59.9 28.6 Q-60.4 25.4 -60.4 22.05 -60.4 19.9 -59.9 17.6 L-59.9 17.35 Q-59.85 15.1 -59.3 13.45 -58.75 11.85 -57.25 9.9 L-56.4 8.45 -55.95 7.85 Q-60.1 6.05 -62.6 -2.65 -63.6 -6.05 -64.2 -10.2 L-64.65 -13.75 -64.4 -17.7 -64.1 -23.1 Q-63.95 -26.5 -62.9 -28.4 -62.5 -32.15 -60.9 -36.15 -58.35 -42.45 -53.3 -47.55 -44.85 -56.2 -31.15 -60.0 L-25.25 -61.6 Q-16.95 -63.45 -9.95 -63.05 -5.4 -63.1 -3.2 -62.25 L-2.45 -61.9 0.7 -60.95 Q5.5 -59.15 8.4 -56.2 L9.05 -55.7 Q12.0 -53.3 14.35 -50.45 M50.4 18.5 L56.7 13.35 56.55 12.5 56.55 12.45 Q57.2 12.2 58.1 10.2 L58.3 9.9 Q59.5 8.05 59.7 7.1 L59.9 5.4 60.55 4.45 Q60.95 3.6 61.0 2.4 L61.0 1.15 61.0 0.85 60.95 0.4 60.95 -0.5 Q60.95 -2.55 60.45 -5.05 L59.8 -7.9 59.85 -8.7 Q59.85 -11.7 59.45 -14.5 L58.95 -17.35 Q56.75 -27.05 49.25 -34.0 46.35 -36.65 42.35 -39.1 L42.05 -39.05 Q40.7 -39.05 38.15 -40.2 L37.65 -40.45 27.4 -42.65 21.55 -43.85 14.1 -42.8 13.65 -43.15 12.0 -42.8 10.1 -43.05 10.0 -43.3 Q9.85 -43.5 9.85 -44.25 L9.95 -44.95 9.5 -45.9 Q8.0 -49.3 6.0 -51.7 1.15 -57.7 -7.3 -59.4 L-9.65 -59.55 Q-25.9 -59.55 -37.05 -55.2 -42.65 -52.45 -47.45 -48.2 -53.35 -43.05 -56.6 -36.65 -59.85 -30.4 -59.85 -24.3 -59.85 -15.55 -58.3 -8.35 -56.45 0.25 -52.8 3.3 L-52.65 3.75 Q-51.8 6.2 -50.65 7.85 L-50.85 8.05 -52.45 10.55 -54.25 16.65 Q-56.1 23.5 -56.1 29.15 -56.1 32.7 -54.55 36.75 -52.4 42.25 -48.0 46.6 -37.4 57.05 -16.4 58.55 L-15.75 58.55 Q10.75 58.55 26.9 46.75 L26.9 46.2 32.1 41.05 34.75 38.5 39.9 28.1 43.55 20.1 Q43.7 18.05 43.5 16.15 L43.9 16.15 Q43.6 7.1 41.55 0.25 L40.7 -1.7 39.85 -3.95 Q35.85 -9.2 34.5 -11.4 26.75 -18.3 11.45 -18.3 8.55 -18.3 7.6 -19.35 L7.3 -19.9 7.2 -19.9 3.85 -21.9 Q0.35 -23.9 -1.65 -23.9 -16.25 -23.9 -25.8 -10.7 -28.9 -6.4 -30.95 -1.4 -31.5 1.6 -31.5 4.45 -31.5 6.4 -30.35 9.55 -28.75 14.0 -25.8 17.6 -23.0 21.0 -19.3 23.35 -15.7 26.95 -11.9 28.65 L-12.0 29.0 -10.35 29.7 Q-1.8 33.05 3.2 33.05 9.55 33.05 14.25 26.1 15.85 23.8 16.95 21.1 L17.85 18.3 Q17.85 16.0 12.5 10.05 L7.2 4.45 7.2 3.65 7.45 3.25 Q16.0 7.3 19.25 9.45 L21.05 12.85 22.15 14.7 22.1 18.0 Q22.1 25.25 19.85 29.6 14.95 39.15 0.55 39.15 -8.35 39.15 -15.25 34.4 L-17.75 32.4 Q-24.65 29.85 -29.65 22.65 -32.7 18.25 -34.4 12.95 -35.9 8.2 -35.9 4.3 -35.9 0.5 -34.7 -3.1 -34.25 -6.9 -32.2 -10.75 -32.05 -13.25 -28.5 -17.8 -24.3 -23.1 -18.65 -26.4 -11.65 -30.45 -4.55 -29.95 4.05 -29.4 12.0 -22.1 L11.95 -22.0 12.0 -22.0 12.65 -22.0 12.85 -22.1 Q14.9 -22.95 17.95 -23.05 26.0 -23.4 33.8 -19.0 36.25 -17.9 38.2 -15.7 L38.65 -15.7 41.3 -12.7 42.75 -11.15 44.6 -8.15 Q46.45 -5.45 47.1 -3.8 48.4 -0.35 49.5 4.0 50.8 9.35 50.8 12.35 L50.35 18.5 50.3 18.6 50.4 18.5 M-20.45 27.55 L-20.45 27.45 -20.35 27.25 -23.25 25.4 -20.45 27.55" fill="#c2a14d" fill-opacity="0.39607844" fill-rule="evenodd" stroke="none"/>
      <path d="M12.0 -22.1 L12.0 -22.0 11.95 -22.0 12.0 -22.1 M50.35 18.5 L50.4 18.5 50.3 18.6 50.35 18.5" fill="#c29b2d" fill-opacity="0.39607844" fill-rule="evenodd" stroke="none"/>
      <path d="M12.0 -22.1 Q4.05 -29.4 -4.55 -29.95 -11.65 -30.45 -18.65 -26.4 -24.3 -23.1 -28.5 -17.8 -32.05 -13.25 -32.2 -10.75 -34.25 -6.9 -34.7 -3.1 -35.9 0.5 -35.9 4.3 -35.9 8.2 -34.4 12.95 -32.7 18.25 -29.65 22.65 -24.65 29.85 -17.75 32.4 L-15.25 34.4 Q-8.35 39.15 0.55 39.15 14.95 39.15 19.85 29.6 22.1 25.25 22.1 18.0 L22.15 14.7 21.05 12.85 19.25 9.45 Q16.0 7.3 7.45 3.25 L7.2 3.65 7.2 4.45 12.5 10.05 Q17.85 16.0 17.85 18.3 L16.95 21.1 Q15.85 23.8 14.25 26.1 9.55 33.05 3.2 33.05 -1.8 33.05 -10.35 29.7 L-12.0 29.0 -11.9 28.65 Q-15.7 26.95 -19.3 23.35 -23.0 21.0 -25.8 17.6 -28.75 14.0 -30.35 9.55 -31.5 6.4 -31.5 4.45 -31.5 1.6 -30.95 -1.4 -28.9 -6.4 -25.8 -10.7 -16.25 -23.9 -1.65 -23.9 0.35 -23.9 3.85 -21.9 L7.2 -19.9 7.3 -19.9 7.6 -19.35 Q8.55 -18.3 11.45 -18.3 26.75 -18.3 34.5 -11.4 35.85 -9.2 39.85 -3.95 L40.7 -1.7 41.55 0.25 Q43.6 7.1 43.9 16.15 L43.5 16.15 Q43.7 18.05 43.55 20.1 L39.9 28.1 34.75 38.5 32.1 41.05 26.9 46.2 26.9 46.75 Q10.75 58.55 -15.75 58.55 L-16.4 58.55 Q-37.4 57.05 -48.0 46.6 -52.4 42.25 -54.55 36.75 -56.1 32.7 -56.1 29.15 -56.1 23.5 -54.25 16.65 L-52.45 10.55 -50.85 8.05 -50.65 7.85 Q-51.8 6.2 -52.65 3.75 L-52.8 3.3 Q-56.45 0.25 -58.3 -8.35 -59.85 -15.55 -59.85 -24.3 -59.85 -30.4 -56.6 -36.65 -53.35 -43.05 -47.45 -48.2 -42.65 -52.45 -37.05 -55.2 -25.9 -59.55 -9.65 -59.55 L-7.3 -59.4 Q1.15 -57.7 6.0 -51.7 8.0 -49.3 9.5 -45.9 L9.95 -44.95 9.85 -44.25 Q9.85 -43.5 10.0 -43.3 L10.1 -43.05 12.0 -42.8 13.65 -43.15 14.1 -42.8 21.55 -43.85 27.4 -42.65 37.65 -40.45 38.15 -40.2 Q40.7 -39.05 42.05 -39.05 L42.35 -39.1 Q46.35 -36.65 49.25 -34.0 56.75 -27.05 58.95 -17.35 L59.45 -14.5 Q59.85 -11.7 59.85 -8.7 L59.8 -7.9 60.45 -5.05 Q60.95 -2.55 60.95 -0.5 L60.95 0.4 61.0 0.85 61.0 1.15 61.0 2.4 Q60.95 3.6 60.55 4.45 L59.9 5.4 59.7 7.1 Q59.5 8.05 58.3 9.9 L58.1 10.2 Q57.2 12.2 56.55 12.45 L56.55 12.5 56.7 13.35 50.4 18.5 50.35 18.5 50.8 12.35 Q50.8 9.35 49.5 4.0 48.4 -0.35 47.1 -3.8 46.45 -5.45 44.6 -8.15 L42.75 -11.15 41.3 -12.7 38.65 -15.7 38.2 -15.7 Q36.25 -17.9 33.8 -19.0 26.0 -23.4 17.95 -23.05 14.9 -22.95 12.85 -22.1 L12.65 -22.0 12.0 -22.0 12.0 -22.1" fill="#bf943b" fill-opacity="0.39607844" fill-rule="evenodd" stroke="none"/>
    </g>
    <g id="shape3" transform="matrix(1.0, 0.0, 0.0, 1.0, 64.65, 63.1)">
      <path d="M14.35 -50.45 L15.75 -48.65 25.0 -47.95 Q39.35 -45.75 47.25 -41.2 L52.0 -37.2 53.2 -36.25 53.75 -35.45 54.35 -34.85 Q57.9 -31.1 59.45 -27.9 63.1 -20.55 63.6 -13.9 L64.25 -5.9 64.65 -0.15 64.65 0.5 64.65 1.4 Q64.65 4.85 62.65 9.7 L60.95 14.4 Q56.0 26.35 48.1 26.9 L46.7 30.5 Q43.75 37.55 40.3 40.2 36.1 46.85 33.8 47.6 18.65 63.1 -4.0 63.1 L-8.85 62.85 -12.45 62.55 -14.35 62.55 Q-23.05 62.55 -30.1 60.9 -49.15 57.45 -56.25 43.55 -59.3 37.6 -59.85 30.05 L-59.9 28.6 Q-60.4 25.4 -60.4 22.05 -60.4 19.9 -59.9 17.6 L-59.9 17.35 Q-59.85 15.1 -59.3 13.45 -58.75 11.85 -57.25 9.9 L-56.4 8.45 -55.95 7.85 Q-60.1 6.05 -62.6 -2.65 -63.6 -6.05 -64.2 -10.2 L-64.65 -13.75 -64.4 -17.7 -64.1 -23.1 Q-63.95 -26.5 -62.9 -28.4 -62.5 -32.15 -60.9 -36.15 -58.35 -42.45 -53.3 -47.55 -44.85 -56.2 -31.15 -60.0 L-25.25 -61.6 Q-16.95 -63.45 -9.95 -63.05 -5.4 -63.1 -3.2 -62.25 L-2.45 -61.9 0.7 -60.95 Q5.5 -59.15 8.4 -56.2 L9.05 -55.7 Q12.0 -53.3 14.35 -50.45 M50.4 18.5 L56.7 13.35 56.55 12.5 56.55 12.45 Q57.2 12.2 58.1 10.2 L58.3 9.9 Q59.5 8.05 59.7 7.1 L59.9 5.4 60.55 4.45 Q60.95 3.6 61.0 2.4 L61.0 1.15 61.0 0.85 60.95 0.4 60.95 -0.5 Q60.95 -2.55 60.45 -5.05 L59.8 -7.9 59.85 -8.7 Q59.85 -11.7 59.45 -14.5 L58.95 -17.35 Q56.75 -27.05 49.25 -34.0 46.35 -36.65 42.35 -39.1 L42.05 -39.05 Q40.7 -39.05 38.15 -40.2 L37.65 -40.45 27.4 -42.65 21.55 -43.85 14.1 -42.8 13.65 -43.15 12.0 -42.8 10.1 -43.05 10.0 -43.3 Q9.85 -43.5 9.85 -44.25 L9.95 -44.95 9.5 -45.9 Q8.0 -49.3 6.0 -51.7 1.15 -57.7 -7.3 -59.4 L-9.65 -59.55 Q-25.9 -59.55 -37.05 -55.2 -42.65 -52.45 -47.45 -48.2 -53.35 -43.05 -56.6 -36.65 -59.85 -30.4 -59.85 -24.3 -59.85 -15.55 -58.3 -8.35 -56.45 0.25 -52.8 3.3 L-52.65 3.75 Q-51.8 6.2 -50.65 7.85 L-50.85 8.05 -52.45 10.55 -54.25 16.65 Q-56.1 23.5 -56.1 29.15 -56.1 32.7 -54.55 36.75 -52.4 42.25 -48.0 46.6 -37.4 57.05 -16.4 58.55 L-15.75 58.55 Q10.75 58.55 26.9 46.75 L26.9 46.2 32.1 41.05 34.75 38.5 39.9 28.1 43.55 20.1 Q43.7 18.05 43.5 16.15 L43.9 16.15 Q43.6 7.1 41.55 0.25 L40.7 -1.7 39.85 -3.95 Q35.85 -9.2 34.5 -11.4 26.75 -18.3 11.45 -18.3 8.55 -18.3 7.6 -19.35 L7.3 -19.9 7.2 -19.9 3.85 -21.9 Q0.35 -23.9 -1.65 -23.9 -16.25 -23.9 -25.8 -10.7 -28.9 -6.4 -30.95 -1.4 -31.5 1.6 -31.5 4.45 -31.5 6.4 -30.35 9.55 -28.75 14.0 -25.8 17.6 -23.0 21.0 -19.3 23.35 -15.7 26.95 -11.9 28.65 L-12.0 29.0 -10.35 29.7 Q-1.8 33.05 3.2 33.05 9.55 33.05 14.25 26.1 15.85 23.8 16.95 21.1 L17.85 18.3 Q17.85 16.0 12.5 10.05 L7.2 4.45 7.2 3.65 7.45 3.25 Q16.0 7.3 19.25 9.45 L21.05 12.85 22.15 14.7 22.1 18.0 Q22.1 25.25 19.85 29.6 14.95 39.15 0.55 39.15 -8.35 39.15 -15.25 34.4 L-17.75 32.4 Q-24.65 29.85 -29.65 22.65 -32.7 18.25 -34.4 12.95 -35.9 8.2 -35.9 4.3 -35.9 0.5 -34.7 -3.1 -34.25 -6.9 -32.2 -10.75 -32.05 -13.25 -28.5 -17.8 -24.3 -23.1 -18.65 -26.4 -11.65 -30.45 -4.55 -29.95 4.05 -29.4 12.0 -22.1 L11.95 -22.0 12.0 -22.0 12.65 -22.0 12.85 -22.1 Q14.9 -22.95 17.95 -23.05 26.0 -23.4 33.8 -19.0 36.25 -17.9 38.2 -15.7 L38.65 -15.7 41.3 -12.7 42.75 -11.15 44.6 -8.15 Q46.45 -5.45 47.1 -3.8 48.4 -0.35 49.5 4.0 50.8 9.35 50.8 12.35 L50.35 18.5 50.3 18.6 50.4 18.5 M-20.45 27.55 L-20.45 27.45 -20.35 27.25 -23.25 25.4 -20.45 27.55" fill="#c2a14d" fill-opacity="0.23529412" fill-rule="evenodd" stroke="none"/>
      <path d="M12.0 -22.1 L12.0 -22.0 11.95 -22.0 12.0 -22.1 M50.35 18.5 L50.4 18.5 50.3 18.6 50.35 18.5" fill="#c29b2d" fill-opacity="0.23529412" fill-rule="evenodd" stroke="none"/>
      <path d="M12.0 -22.1 Q4.05 -29.4 -4.55 -29.95 -11.65 -30.45 -18.65 -26.4 -24.3 -23.1 -28.5 -17.8 -32.05 -13.25 -32.2 -10.75 -34.25 -6.9 -34.7 -3.1 -35.9 0.5 -35.9 4.3 -35.9 8.2 -34.4 12.95 -32.7 18.25 -29.65 22.65 -24.65 29.85 -17.75 32.4 L-15.25 34.4 Q-8.35 39.15 0.55 39.15 14.95 39.15 19.85 29.6 22.1 25.25 22.1 18.0 L22.15 14.7 21.05 12.85 19.25 9.45 Q16.0 7.3 7.45 3.25 L7.2 3.65 7.2 4.45 12.5 10.05 Q17.85 16.0 17.85 18.3 L16.95 21.1 Q15.85 23.8 14.25 26.1 9.55 33.05 3.2 33.05 -1.8 33.05 -10.35 29.7 L-12.0 29.0 -11.9 28.65 Q-15.7 26.95 -19.3 23.35 -23.0 21.0 -25.8 17.6 -28.75 14.0 -30.35 9.55 -31.5 6.4 -31.5 4.45 -31.5 1.6 -30.95 -1.4 -28.9 -6.4 -25.8 -10.7 -16.25 -23.9 -1.65 -23.9 0.35 -23.9 3.85 -21.9 L7.2 -19.9 7.3 -19.9 7.6 -19.35 Q8.55 -18.3 11.45 -18.3 26.75 -18.3 34.5 -11.4 35.85 -9.2 39.85 -3.95 L40.7 -1.7 41.55 0.25 Q43.6 7.1 43.9 16.15 L43.5 16.15 Q43.7 18.05 43.55 20.1 L39.9 28.1 34.75 38.5 32.1 41.05 26.9 46.2 26.9 46.75 Q10.75 58.55 -15.75 58.55 L-16.4 58.55 Q-37.4 57.05 -48.0 46.6 -52.4 42.25 -54.55 36.75 -56.1 32.7 -56.1 29.15 -56.1 23.5 -54.25 16.65 L-52.45 10.55 -50.85 8.05 -50.65 7.85 Q-51.8 6.2 -52.65 3.75 L-52.8 3.3 Q-56.45 0.25 -58.3 -8.35 -59.85 -15.55 -59.85 -24.3 -59.85 -30.4 -56.6 -36.65 -53.35 -43.05 -47.45 -48.2 -42.65 -52.45 -37.05 -55.2 -25.9 -59.55 -9.65 -59.55 L-7.3 -59.4 Q1.15 -57.7 6.0 -51.7 8.0 -49.3 9.5 -45.9 L9.95 -44.95 9.85 -44.25 Q9.85 -43.5 10.0 -43.3 L10.1 -43.05 12.0 -42.8 13.65 -43.15 14.1 -42.8 21.55 -43.85 27.4 -42.65 37.65 -40.45 38.15 -40.2 Q40.7 -39.05 42.05 -39.05 L42.35 -39.1 Q46.35 -36.65 49.25 -34.0 56.75 -27.05 58.95 -17.35 L59.45 -14.5 Q59.85 -11.7 59.85 -8.7 L59.8 -7.9 60.45 -5.05 Q60.95 -2.55 60.95 -0.5 L60.95 0.4 61.0 0.85 61.0 1.15 61.0 2.4 Q60.95 3.6 60.55 4.45 L59.9 5.4 59.7 7.1 Q59.5 8.05 58.3 9.9 L58.1 10.2 Q57.2 12.2 56.55 12.45 L56.55 12.5 56.7 13.35 50.4 18.5 50.35 18.5 50.8 12.35 Q50.8 9.35 49.5 4.0 48.4 -0.35 47.1 -3.8 46.45 -5.45 44.6 -8.15 L42.75 -11.15 41.3 -12.7 38.65 -15.7 38.2 -15.7 Q36.25 -17.9 33.8 -19.0 26.0 -23.4 17.95 -23.05 14.9 -22.95 12.85 -22.1 L12.65 -22.0 12.0 -22.0 12.0 -22.1" fill="#bf943b" fill-opacity="0.23529412" fill-rule="evenodd" stroke="none"/>
    </g>
    <g id="shape4" transform="matrix(1.0, 0.0, 0.0, 1.0, 64.65, 63.1)">
      <path d="M14.35 -50.45 L15.75 -48.65 25.0 -47.95 Q39.35 -45.75 47.25 -41.2 L52.0 -37.2 53.2 -36.25 53.75 -35.45 54.35 -34.85 Q57.9 -31.1 59.45 -27.9 63.1 -20.55 63.6 -13.9 L64.25 -5.9 64.65 -0.15 64.65 0.5 64.65 1.4 Q64.65 4.85 62.65 9.7 L60.95 14.4 Q56.0 26.35 48.1 26.9 L46.7 30.5 Q43.75 37.55 40.3 40.2 36.1 46.85 33.8 47.6 18.65 63.1 -4.0 63.1 L-8.85 62.85 -12.45 62.55 -14.35 62.55 Q-23.05 62.55 -30.1 60.9 -49.15 57.45 -56.25 43.55 -59.3 37.6 -59.85 30.05 L-59.9 28.6 Q-60.4 25.4 -60.4 22.05 -60.4 19.9 -59.9 17.6 L-59.9 17.35 Q-59.85 15.1 -59.3 13.45 -58.75 11.85 -57.25 9.9 L-56.4 8.45 -55.95 7.85 Q-60.1 6.05 -62.6 -2.65 -63.6 -6.05 -64.2 -10.2 L-64.65 -13.75 -64.4 -17.7 -64.1 -23.1 Q-63.95 -26.5 -62.9 -28.4 -62.5 -32.15 -60.9 -36.15 -58.35 -42.45 -53.3 -47.55 -44.85 -56.2 -31.15 -60.0 L-25.25 -61.6 Q-16.95 -63.45 -9.95 -63.05 -5.4 -63.1 -3.2 -62.25 L-2.45 -61.9 0.7 -60.95 Q5.5 -59.15 8.4 -56.2 L9.05 -55.7 Q12.0 -53.3 14.35 -50.45 M50.4 18.5 L56.7 13.35 56.55 12.5 56.55 12.45 Q57.2 12.2 58.1 10.2 L58.3 9.9 Q59.5 8.05 59.7 7.1 L59.9 5.4 60.55 4.45 Q60.95 3.6 61.0 2.4 L61.0 1.15 61.0 0.85 60.95 0.4 60.95 -0.5 Q60.95 -2.55 60.45 -5.05 L59.8 -7.9 59.85 -8.7 Q59.85 -11.7 59.45 -14.5 L58.95 -17.35 Q56.75 -27.05 49.25 -34.0 46.35 -36.65 42.35 -39.1 L42.05 -39.05 Q40.7 -39.05 38.15 -40.2 L37.65 -40.45 27.4 -42.65 21.55 -43.85 14.1 -42.8 13.65 -43.15 12.0 -42.8 10.1 -43.05 10.0 -43.3 Q9.85 -43.5 9.85 -44.25 L9.95 -44.95 9.5 -45.9 Q8.0 -49.3 6.0 -51.7 1.15 -57.7 -7.3 -59.4 L-9.65 -59.55 Q-25.9 -59.55 -37.05 -55.2 -42.65 -52.45 -47.45 -48.2 -53.35 -43.05 -56.6 -36.65 -59.85 -30.4 -59.85 -24.3 -59.85 -15.55 -58.3 -8.35 -56.45 0.25 -52.8 3.3 L-52.65 3.75 Q-51.8 6.2 -50.65 7.85 L-50.85 8.05 -52.45 10.55 -54.25 16.65 Q-56.1 23.5 -56.1 29.15 -56.1 32.7 -54.55 36.75 -52.4 42.25 -48.0 46.6 -37.4 57.05 -16.4 58.55 L-15.75 58.55 Q10.75 58.55 26.9 46.75 L26.9 46.2 32.1 41.05 34.75 38.5 39.9 28.1 43.55 20.1 Q43.7 18.05 43.5 16.15 L43.9 16.15 Q43.6 7.1 41.55 0.25 L40.7 -1.7 39.85 -3.95 Q35.85 -9.2 34.5 -11.4 26.75 -18.3 11.45 -18.3 8.55 -18.3 7.6 -19.35 L7.3 -19.9 7.2 -19.9 3.85 -21.9 Q0.35 -23.9 -1.65 -23.9 -16.25 -23.9 -25.8 -10.7 -28.9 -6.4 -30.95 -1.4 -31.5 1.6 -31.5 4.45 -31.5 6.4 -30.35 9.55 -28.75 14.0 -25.8 17.6 -23.0 21.0 -19.3 23.35 -15.7 26.95 -11.9 28.65 L-12.0 29.0 -10.35 29.7 Q-1.8 33.05 3.2 33.05 9.55 33.05 14.25 26.1 15.85 23.8 16.95 21.1 L17.85 18.3 Q17.85 16.0 12.5 10.05 L7.2 4.45 7.2 3.65 7.45 3.25 Q16.0 7.3 19.25 9.45 L21.05 12.85 22.15 14.7 22.1 18.0 Q22.1 25.25 19.85 29.6 14.95 39.15 0.55 39.15 -8.35 39.15 -15.25 34.4 L-17.75 32.4 Q-24.65 29.85 -29.65 22.65 -32.7 18.25 -34.4 12.95 -35.9 8.2 -35.9 4.3 -35.9 0.5 -34.7 -3.1 -34.25 -6.9 -32.2 -10.75 -32.05 -13.25 -28.5 -17.8 -24.3 -23.1 -18.65 -26.4 -11.65 -30.45 -4.55 -29.95 4.05 -29.4 12.0 -22.1 L11.95 -22.0 12.0 -22.0 12.65 -22.0 12.85 -22.1 Q14.9 -22.95 17.95 -23.05 26.0 -23.4 33.8 -19.0 36.25 -17.9 38.2 -15.7 L38.65 -15.7 41.3 -12.7 42.75 -11.15 44.6 -8.15 Q46.45 -5.45 47.1 -3.8 48.4 -0.35 49.5 4.0 50.8 9.35 50.8 12.35 L50.35 18.5 50.3 18.6 50.4 18.5 M-20.45 27.55 L-20.45 27.45 -20.35 27.25 -23.25 25.4 -20.45 27.55" fill="#f7a340" fill-opacity="0.15686275" fill-rule="evenodd" stroke="none"/>
      <path d="M12.0 -22.1 L12.0 -22.0 11.95 -22.0 12.0 -22.1 M50.35 18.5 L50.4 18.5 50.3 18.6 50.35 18.5" fill="#f79d20" fill-opacity="0.15686275" fill-rule="evenodd" stroke="none"/>
      <path d="M12.0 -22.1 Q4.05 -29.4 -4.55 -29.95 -11.65 -30.45 -18.65 -26.4 -24.3 -23.1 -28.5 -17.8 -32.05 -13.25 -32.2 -10.75 -34.25 -6.9 -34.7 -3.1 -35.9 0.5 -35.9 4.3 -35.9 8.2 -34.4 12.95 -32.7 18.25 -29.65 22.65 -24.65 29.85 -17.75 32.4 L-15.25 34.4 Q-8.35 39.15 0.55 39.15 14.95 39.15 19.85 29.6 22.1 25.25 22.1 18.0 L22.15 14.7 21.05 12.85 19.25 9.45 Q16.0 7.3 7.45 3.25 L7.2 3.65 7.2 4.45 12.5 10.05 Q17.85 16.0 17.85 18.3 L16.95 21.1 Q15.85 23.8 14.25 26.1 9.55 33.05 3.2 33.05 -1.8 33.05 -10.35 29.7 L-12.0 29.0 -11.9 28.65 Q-15.7 26.95 -19.3 23.35 -23.0 21.0 -25.8 17.6 -28.75 14.0 -30.35 9.55 -31.5 6.4 -31.5 4.45 -31.5 1.6 -30.95 -1.4 -28.9 -6.4 -25.8 -10.7 -16.25 -23.9 -1.65 -23.9 0.35 -23.9 3.85 -21.9 L7.2 -19.9 7.3 -19.9 7.6 -19.35 Q8.55 -18.3 11.45 -18.3 26.75 -18.3 34.5 -11.4 35.85 -9.2 39.85 -3.95 L40.7 -1.7 41.55 0.25 Q43.6 7.1 43.9 16.15 L43.5 16.15 Q43.7 18.05 43.55 20.1 L39.9 28.1 34.75 38.5 32.1 41.05 26.9 46.2 26.9 46.75 Q10.75 58.55 -15.75 58.55 L-16.4 58.55 Q-37.4 57.05 -48.0 46.6 -52.4 42.25 -54.55 36.75 -56.1 32.7 -56.1 29.15 -56.1 23.5 -54.25 16.65 L-52.45 10.55 -50.85 8.05 -50.65 7.85 Q-51.8 6.2 -52.65 3.75 L-52.8 3.3 Q-56.45 0.25 -58.3 -8.35 -59.85 -15.55 -59.85 -24.3 -59.85 -30.4 -56.6 -36.65 -53.35 -43.05 -47.45 -48.2 -42.65 -52.45 -37.05 -55.2 -25.9 -59.55 -9.65 -59.55 L-7.3 -59.4 Q1.15 -57.7 6.0 -51.7 8.0 -49.3 9.5 -45.9 L9.95 -44.95 9.85 -44.25 Q9.85 -43.5 10.0 -43.3 L10.1 -43.05 12.0 -42.8 13.65 -43.15 14.1 -42.8 21.55 -43.85 27.4 -42.65 37.65 -40.45 38.15 -40.2 Q40.7 -39.05 42.05 -39.05 L42.35 -39.1 Q46.35 -36.65 49.25 -34.0 56.75 -27.05 58.95 -17.35 L59.45 -14.5 Q59.85 -11.7 59.85 -8.7 L59.8 -7.9 60.45 -5.05 Q60.95 -2.55 60.95 -0.5 L60.95 0.4 61.0 0.85 61.0 1.15 61.0 2.4 Q60.95 3.6 60.55 4.45 L59.9 5.4 59.7 7.1 Q59.5 8.05 58.3 9.9 L58.1 10.2 Q57.2 12.2 56.55 12.45 L56.55 12.5 56.7 13.35 50.4 18.5 50.35 18.5 50.8 12.35 Q50.8 9.35 49.5 4.0 48.4 -0.35 47.1 -3.8 46.45 -5.45 44.6 -8.15 L42.75 -11.15 41.3 -12.7 38.65 -15.7 38.2 -15.7 Q36.25 -17.9 33.8 -19.0 26.0 -23.4 17.95 -23.05 14.9 -22.95 12.85 -22.1 L12.65 -22.0 12.0 -22.0 12.0 -22.1" fill="#f4962e" fill-opacity="0.15686275" fill-rule="evenodd" stroke="none"/>
    </g>
  </defs>
</svg>
