<?xml version="1.0" encoding="UTF-8" standalone="no"?>
<svg xmlns:ffdec="https://www.free-decompiler.com/flash" xmlns:xlink="http://www.w3.org/1999/xlink" ffdec:objectType="frame" height="413.2px" width="455.9px" xmlns="http://www.w3.org/2000/svg">
  <g transform="matrix(1.0, 0.0, 0.0, 1.0, 215.4, 263.7)">
    <use ffdec:characterId="696" height="126.2" transform="matrix(0.2422, -0.3578, 0.3578, 0.2422, -131.8839, -7.503)" width="129.3" xlink:href="#shape0"/>
    <use ffdec:characterId="696" height="126.2" transform="matrix(0.2859, -0.3425, 0.3425, 0.2859, -109.1993, -19.9499)" width="129.3" xlink:href="#shape0"/>
    <use ffdec:characterId="696" height="126.2" transform="matrix(0.195, -0.3816, 0.3816, 0.195, 51.8104, -4.985)" width="129.3" xlink:href="#shape0"/>
    <use ffdec:characterId="696" height="126.2" transform="matrix(0.2544, -0.3758, 0.3758, 0.2544, 74.7398, 0.0918)" width="129.3" xlink:href="#shape0"/>
    <use ffdec:characterId="696" height="126.2" transform="matrix(0.2784, -0.3333, 0.3333, 0.2784, 95.8187, 8.7848)" width="129.3" xlink:href="#shape0"/>
    <use ffdec:characterId="696" height="126.2" transform="matrix(0.1928, -0.4032, 0.4032, 0.1928, -152.1089, 9.8544)" width="129.3" xlink:href="#shape0"/>
    <use ffdec:characterId="696" height="126.2" transform="matrix(0.9664, 0.193, -0.193, 0.9664, -39.8509, -53.5098)" width="129.3" xlink:href="#shape1"/>
    <use ffdec:characterId="696" height="126.2" transform="matrix(0.9664, 0.193, -0.193, 0.9664, -1.6509, -73.4098)" width="129.3" xlink:href="#shape1"/>
    <use ffdec:characterId="695" height="12.8" transform="matrix(0.1278, 0.2213, -0.2213, 0.1278, -50.937, -62.9754)" width="15.0" xlink:href="#shape2"/>
    <use ffdec:characterId="696" height="126.2" transform="matrix(0.3406, 0.5899, -0.5899, 0.3406, -12.8943, -117.3267)" width="129.3" xlink:href="#shape1"/>
    <use ffdec:characterId="696" height="126.2" transform="matrix(0.3999, 0.7178, -0.7177, 0.3999, -89.767, -39.635)" width="129.3" xlink:href="#shape1"/>
    <use ffdec:characterId="700" height="261.0" transform="matrix(1.1844, 0.0, 0.0, 1.2655, -215.3853, -263.6981)" width="384.9" xlink:href="#shape3"/>
    <use ffdec:characterId="696" height="126.2" transform="matrix(0.9664, 0.193, -0.193, 0.9664, -88.8509, -90.4598)" width="129.3" xlink:href="#shape1"/>
    <use ffdec:characterId="696" height="126.2" transform="matrix(0.5656, 0.2375, -0.2375, 0.5656, 111.3215, -29.0467)" width="129.3" xlink:href="#shape1"/>
    <use ffdec:characterId="696" height="126.2" transform="matrix(0.0928, 0.7472, -0.7472, 0.0928, 107.001, -0.7629)" width="129.3" xlink:href="#shape1"/>
    <use ffdec:characterId="696" height="126.2" transform="matrix(0.712, -0.0908, 0.0908, 0.712, -83.911, 12.5891)" width="129.3" xlink:href="#shape1"/>
    <use ffdec:characterId="695" height="12.8" transform="matrix(0.1278, 0.2213, -0.2213, 0.1278, -3.287, -94.9754)" width="15.0" xlink:href="#shape2"/>
    <use ffdec:characterId="696" height="126.2" transform="matrix(0.3406, 0.5899, -0.5899, 0.3406, 34.7557, -149.3267)" width="129.3" xlink:href="#shape1"/>
    <use ffdec:characterId="695" height="12.8" transform="matrix(0.369, 0.0, 0.0, 0.3778, 12.5038, -11.517)" width="15.0" xlink:href="#shape2"/>
    <use ffdec:characterId="696" height="126.2" transform="matrix(0.9836, 0.0, 0.0, 1.0071, -27.9895, -100.3506)" width="129.3" xlink:href="#shape1"/>
    <use ffdec:characterId="696" height="126.2" transform="matrix(0.316, 0.2139, -0.2139, 0.316, -140.5801, -17.6177)" width="129.3" xlink:href="#shape4"/>
    <use ffdec:characterId="696" height="126.2" transform="matrix(0.2568, -0.3793, 0.3793, 0.2568, -158.6413, 54.2185)" width="129.3" xlink:href="#shape4"/>
    <use ffdec:characterId="696" height="126.2" transform="matrix(0.4733, 0.3204, -0.3204, 0.4733, -93.1263, 18.5698)" width="129.3" xlink:href="#shape4"/>
    <use ffdec:characterId="696" height="126.2" transform="matrix(0.1624, -0.4644, 0.4644, 0.1624, -78.3038, 103.3791)" width="129.3" xlink:href="#shape4"/>
    <use ffdec:characterId="696" height="126.2" transform="matrix(0.4733, 0.3204, -0.3204, 0.4733, 134.9737, -26.4802)" width="129.3" xlink:href="#shape4"/>
    <use ffdec:characterId="696" height="126.2" transform="matrix(0.3584, -0.3124, 0.3124, 0.3584, 78.1195, 59.5832)" width="129.3" xlink:href="#shape4"/>
    <use ffdec:characterId="696" height="126.2" transform="matrix(0.2498, 0.5111, -0.5111, 0.2498, 85.7532, 30.9963)" width="129.3" xlink:href="#shape4"/>
    <use ffdec:characterId="696" height="126.2" transform="matrix(0.3648, -0.5388, 0.5388, 0.3648, -46.1352, 103.4643)" width="129.3" xlink:href="#shape4"/>
  </g>
  <defs>
    <g id="shape0" transform="matrix(1.0, 0.0, 0.0, 1.0, 64.65, 63.1)">
      <path d="M14.35 -50.45 L15.75 -48.65 25.0 -47.95 Q39.35 -45.75 47.25 -41.2 L52.0 -37.2 53.2 -36.25 53.75 -35.45 54.35 -34.85 Q57.9 -31.1 59.45 -27.9 63.1 -20.55 63.6 -13.9 L64.25 -5.9 64.65 -0.15 64.65 0.5 64.65 1.4 Q64.65 4.85 62.65 9.7 L60.95 14.4 Q56.0 26.35 48.1 26.9 L46.7 30.5 Q43.75 37.55 40.3 40.2 36.1 46.85 33.8 47.6 18.65 63.1 -4.0 63.1 L-8.85 62.85 -12.45 62.55 -14.35 62.55 Q-23.05 62.55 -30.1 60.9 -49.15 57.45 -56.25 43.55 -59.3 37.6 -59.85 30.05 L-59.9 28.6 Q-60.4 25.4 -60.4 22.05 -60.4 19.9 -59.9 17.6 L-59.9 17.35 Q-59.85 15.1 -59.3 13.45 -58.75 11.85 -57.25 9.9 L-56.4 8.45 -55.95 7.85 Q-60.1 6.05 -62.6 -2.65 -63.6 -6.05 -64.2 -10.2 L-64.65 -13.75 -64.4 -17.7 -64.1 -23.1 Q-63.95 -26.5 -62.9 -28.4 -62.5 -32.15 -60.9 -36.15 -58.35 -42.45 -53.3 -47.55 -44.85 -56.2 -31.15 -60.0 L-25.25 -61.6 Q-16.95 -63.45 -9.95 -63.05 -5.4 -63.1 -3.2 -62.25 L-2.45 -61.9 0.7 -60.95 Q5.5 -59.15 8.4 -56.2 L9.05 -55.7 Q12.0 -53.3 14.35 -50.45 M50.4 18.5 L56.7 13.35 56.55 12.5 56.55 12.45 Q57.2 12.2 58.1 10.2 L58.3 9.9 Q59.5 8.05 59.7 7.1 L59.9 5.4 60.55 4.45 Q60.95 3.6 61.0 2.4 L61.0 1.15 61.0 0.85 60.95 0.4 60.95 -0.5 Q60.95 -2.55 60.45 -5.05 L59.8 -7.9 59.85 -8.7 Q59.85 -11.7 59.45 -14.5 L58.95 -17.35 Q56.75 -27.05 49.25 -34.0 46.35 -36.65 42.35 -39.1 L42.05 -39.05 Q40.7 -39.05 38.15 -40.2 L37.65 -40.45 27.4 -42.65 21.55 -43.85 14.1 -42.8 13.65 -43.15 12.0 -42.8 10.1 -43.05 10.0 -43.3 Q9.85 -43.5 9.85 -44.25 L9.95 -44.95 9.5 -45.9 Q8.0 -49.3 6.0 -51.7 1.15 -57.7 -7.3 -59.4 L-9.65 -59.55 Q-25.9 -59.55 -37.05 -55.2 -42.65 -52.45 -47.45 -48.2 -53.35 -43.05 -56.6 -36.65 -59.85 -30.4 -59.85 -24.3 -59.85 -15.55 -58.3 -8.35 -56.45 0.25 -52.8 3.3 L-52.65 3.75 Q-51.8 6.2 -50.65 7.85 L-50.85 8.05 -52.45 10.55 -54.25 16.65 Q-56.1 23.5 -56.1 29.15 -56.1 32.7 -54.55 36.75 -52.4 42.25 -48.0 46.6 -37.4 57.05 -16.4 58.55 L-15.75 58.55 Q10.75 58.55 26.9 46.75 L26.9 46.2 32.1 41.05 34.75 38.5 39.9 28.1 43.55 20.1 Q43.7 18.05 43.5 16.15 L43.9 16.15 Q43.6 7.1 41.55 0.25 L40.7 -1.7 39.85 -3.95 Q35.85 -9.2 34.5 -11.4 26.75 -18.3 11.45 -18.3 8.55 -18.3 7.6 -19.35 L7.3 -19.9 7.2 -19.9 3.85 -21.9 Q0.35 -23.9 -1.65 -23.9 -16.25 -23.9 -25.8 -10.7 -28.9 -6.4 -30.95 -1.4 -31.5 1.6 -31.5 4.45 -31.5 6.4 -30.35 9.55 -28.75 14.0 -25.8 17.6 -23.0 21.0 -19.3 23.35 -15.7 26.95 -11.9 28.65 L-12.0 29.0 -10.35 29.7 Q-1.8 33.05 3.2 33.05 9.55 33.05 14.25 26.1 15.85 23.8 16.95 21.1 L17.85 18.3 Q17.85 16.0 12.5 10.05 L7.2 4.45 7.2 3.65 7.45 3.25 Q16.0 7.3 19.25 9.45 L21.05 12.85 22.15 14.7 22.1 18.0 Q22.1 25.25 19.85 29.6 14.95 39.15 0.55 39.15 -8.35 39.15 -15.25 34.4 L-17.75 32.4 Q-24.65 29.85 -29.65 22.65 -32.7 18.25 -34.4 12.95 -35.9 8.2 -35.9 4.3 -35.9 0.5 -34.7 -3.1 -34.25 -6.9 -32.2 -10.75 -32.05 -13.25 -28.5 -17.8 -24.3 -23.1 -18.65 -26.4 -11.65 -30.45 -4.55 -29.95 4.05 -29.4 12.0 -22.1 L11.95 -22.0 12.0 -22.0 12.65 -22.0 12.85 -22.1 Q14.9 -22.95 17.95 -23.05 26.0 -23.4 33.8 -19.0 36.25 -17.9 38.2 -15.7 L38.65 -15.7 41.3 -12.7 42.75 -11.15 44.6 -8.15 Q46.45 -5.45 47.1 -3.8 48.4 -0.35 49.5 4.0 50.8 9.35 50.8 12.35 L50.35 18.5 50.3 18.6 50.4 18.5 M-20.45 27.55 L-20.45 27.45 -20.35 27.25 -23.25 25.4 -20.45 27.55" fill="#f9b149" fill-opacity="0.92156863" fill-rule="evenodd" stroke="none"/>
      <path d="M12.0 -22.1 L12.0 -22.0 11.95 -22.0 12.0 -22.1 M50.35 18.5 L50.4 18.5 50.3 18.6 50.35 18.5" fill="#f9a920" fill-opacity="0.92156863" fill-rule="evenodd" stroke="none"/>
      <path d="M12.0 -22.1 Q4.05 -29.4 -4.55 -29.95 -11.65 -30.45 -18.65 -26.4 -24.3 -23.1 -28.5 -17.8 -32.05 -13.25 -32.2 -10.75 -34.25 -6.9 -34.7 -3.1 -35.9 0.5 -35.9 4.3 -35.9 8.2 -34.4 12.95 -32.7 18.25 -29.65 22.65 -24.65 29.85 -17.75 32.4 L-15.25 34.4 Q-8.35 39.15 0.55 39.15 14.95 39.15 19.85 29.6 22.1 25.25 22.1 18.0 L22.15 14.7 21.05 12.85 19.25 9.45 Q16.0 7.3 7.45 3.25 L7.2 3.65 7.2 4.45 12.5 10.05 Q17.85 16.0 17.85 18.3 L16.95 21.1 Q15.85 23.8 14.25 26.1 9.55 33.05 3.2 33.05 -1.8 33.05 -10.35 29.7 L-12.0 29.0 -11.9 28.65 Q-15.7 26.95 -19.3 23.35 -23.0 21.0 -25.8 17.6 -28.75 14.0 -30.35 9.55 -31.5 6.4 -31.5 4.45 -31.5 1.6 -30.95 -1.4 -28.9 -6.4 -25.8 -10.7 -16.25 -23.9 -1.65 -23.9 0.35 -23.9 3.85 -21.9 L7.2 -19.9 7.3 -19.9 7.6 -19.35 Q8.55 -18.3 11.45 -18.3 26.75 -18.3 34.5 -11.4 35.85 -9.2 39.85 -3.95 L40.7 -1.7 41.55 0.25 Q43.6 7.1 43.9 16.15 L43.5 16.15 Q43.7 18.05 43.55 20.1 L39.9 28.1 34.75 38.5 32.1 41.05 26.9 46.2 26.9 46.75 Q10.75 58.55 -15.75 58.55 L-16.4 58.55 Q-37.4 57.05 -48.0 46.6 -52.4 42.25 -54.55 36.75 -56.1 32.7 -56.1 29.15 -56.1 23.5 -54.25 16.65 L-52.45 10.55 -50.85 8.05 -50.65 7.85 Q-51.8 6.2 -52.65 3.75 L-52.8 3.3 Q-56.45 0.25 -58.3 -8.35 -59.85 -15.55 -59.85 -24.3 -59.85 -30.4 -56.6 -36.65 -53.35 -43.05 -47.45 -48.2 -42.65 -52.45 -37.05 -55.2 -25.9 -59.55 -9.65 -59.55 L-7.3 -59.4 Q1.15 -57.7 6.0 -51.7 8.0 -49.3 9.5 -45.9 L9.95 -44.95 9.85 -44.25 Q9.85 -43.5 10.0 -43.3 L10.1 -43.05 12.0 -42.8 13.65 -43.15 14.1 -42.8 21.55 -43.85 27.4 -42.65 37.65 -40.45 38.15 -40.2 Q40.7 -39.05 42.05 -39.05 L42.35 -39.1 Q46.35 -36.65 49.25 -34.0 56.75 -27.05 58.95 -17.35 L59.45 -14.5 Q59.85 -11.7 59.85 -8.7 L59.8 -7.9 60.45 -5.05 Q60.95 -2.55 60.95 -0.5 L60.95 0.4 61.0 0.85 61.0 1.15 61.0 2.4 Q60.95 3.6 60.55 4.45 L59.9 5.4 59.7 7.1 Q59.5 8.05 58.3 9.9 L58.1 10.2 Q57.2 12.2 56.55 12.45 L56.55 12.5 56.7 13.35 50.4 18.5 50.35 18.5 50.8 12.35 Q50.8 9.35 49.5 4.0 48.4 -0.35 47.1 -3.8 46.45 -5.45 44.6 -8.15 L42.75 -11.15 41.3 -12.7 38.65 -15.7 38.2 -15.7 Q36.25 -17.9 33.8 -19.0 26.0 -23.4 17.95 -23.05 14.9 -22.95 12.85 -22.1 L12.65 -22.0 12.0 -22.0 12.0 -22.1" fill="#f5a132" fill-opacity="0.92156863" fill-rule="evenodd" stroke="none"/>
    </g>
    <g id="shape1" transform="matrix(1.0, 0.0, 0.0, 1.0, 64.65, 63.1)">
      <path d="M14.35 -50.45 L15.75 -48.65 25.0 -47.95 Q39.35 -45.75 47.25 -41.2 L52.0 -37.2 53.2 -36.25 53.75 -35.45 54.35 -34.85 Q57.9 -31.1 59.45 -27.9 63.1 -20.55 63.6 -13.9 L64.25 -5.9 64.65 -0.15 64.65 0.5 64.65 1.4 Q64.65 4.85 62.65 9.7 L60.95 14.4 Q56.0 26.35 48.1 26.9 L46.7 30.5 Q43.75 37.55 40.3 40.2 36.1 46.85 33.8 47.6 18.65 63.1 -4.0 63.1 L-8.85 62.85 -12.45 62.55 -14.35 62.55 Q-23.05 62.55 -30.1 60.9 -49.15 57.45 -56.25 43.55 -59.3 37.6 -59.85 30.05 L-59.9 28.6 Q-60.4 25.4 -60.4 22.05 -60.4 19.9 -59.9 17.6 L-59.9 17.35 Q-59.85 15.1 -59.3 13.45 -58.75 11.85 -57.25 9.9 L-56.4 8.45 -55.95 7.85 Q-60.1 6.05 -62.6 -2.65 -63.6 -6.05 -64.2 -10.2 L-64.65 -13.75 -64.4 -17.7 -64.1 -23.1 Q-63.95 -26.5 -62.9 -28.4 -62.5 -32.15 -60.9 -36.15 -58.35 -42.45 -53.3 -47.55 -44.85 -56.2 -31.15 -60.0 L-25.25 -61.6 Q-16.95 -63.45 -9.95 -63.05 -5.4 -63.1 -3.2 -62.25 L-2.45 -61.9 0.7 -60.95 Q5.5 -59.15 8.4 -56.2 L9.05 -55.7 Q12.0 -53.3 14.35 -50.45 M50.4 18.5 L56.7 13.35 56.55 12.5 56.55 12.45 Q57.2 12.2 58.1 10.2 L58.3 9.9 Q59.5 8.05 59.7 7.1 L59.9 5.4 60.55 4.45 Q60.95 3.6 61.0 2.4 L61.0 1.15 61.0 0.85 60.95 0.4 60.95 -0.5 Q60.95 -2.55 60.45 -5.05 L59.8 -7.9 59.85 -8.7 Q59.85 -11.7 59.45 -14.5 L58.95 -17.35 Q56.75 -27.05 49.25 -34.0 46.35 -36.65 42.35 -39.1 L42.05 -39.05 Q40.7 -39.05 38.15 -40.2 L37.65 -40.45 27.4 -42.65 21.55 -43.85 14.1 -42.8 13.65 -43.15 12.0 -42.8 10.1 -43.05 10.0 -43.3 Q9.85 -43.5 9.85 -44.25 L9.95 -44.95 9.5 -45.9 Q8.0 -49.3 6.0 -51.7 1.15 -57.7 -7.3 -59.4 L-9.65 -59.55 Q-25.9 -59.55 -37.05 -55.2 -42.65 -52.45 -47.45 -48.2 -53.35 -43.05 -56.6 -36.65 -59.85 -30.4 -59.85 -24.3 -59.85 -15.55 -58.3 -8.35 -56.45 0.25 -52.8 3.3 L-52.65 3.75 Q-51.8 6.2 -50.65 7.85 L-50.85 8.05 -52.45 10.55 -54.25 16.65 Q-56.1 23.5 -56.1 29.15 -56.1 32.7 -54.55 36.75 -52.4 42.25 -48.0 46.6 -37.4 57.05 -16.4 58.55 L-15.75 58.55 Q10.75 58.55 26.9 46.75 L26.9 46.2 32.1 41.05 34.75 38.5 39.9 28.1 43.55 20.1 Q43.7 18.05 43.5 16.15 L43.9 16.15 Q43.6 7.1 41.55 0.25 L40.7 -1.7 39.85 -3.95 Q35.85 -9.2 34.5 -11.4 26.75 -18.3 11.45 -18.3 8.55 -18.3 7.6 -19.35 L7.3 -19.9 7.2 -19.9 3.85 -21.9 Q0.35 -23.9 -1.65 -23.9 -16.25 -23.9 -25.8 -10.7 -28.9 -6.4 -30.95 -1.4 -31.5 1.6 -31.5 4.45 -31.5 6.4 -30.35 9.55 -28.75 14.0 -25.8 17.6 -23.0 21.0 -19.3 23.35 -15.7 26.95 -11.9 28.65 L-12.0 29.0 -10.35 29.7 Q-1.8 33.05 3.2 33.05 9.55 33.05 14.25 26.1 15.85 23.8 16.95 21.1 L17.85 18.3 Q17.85 16.0 12.5 10.05 L7.2 4.45 7.2 3.65 7.45 3.25 Q16.0 7.3 19.25 9.45 L21.05 12.85 22.15 14.7 22.1 18.0 Q22.1 25.25 19.85 29.6 14.95 39.15 0.55 39.15 -8.35 39.15 -15.25 34.4 L-17.75 32.4 Q-24.65 29.85 -29.65 22.65 -32.7 18.25 -34.4 12.95 -35.9 8.2 -35.9 4.3 -35.9 0.5 -34.7 -3.1 -34.25 -6.9 -32.2 -10.75 -32.05 -13.25 -28.5 -17.8 -24.3 -23.1 -18.65 -26.4 -11.65 -30.45 -4.55 -29.95 4.05 -29.4 12.0 -22.1 L11.95 -22.0 12.0 -22.0 12.65 -22.0 12.85 -22.1 Q14.9 -22.95 17.95 -23.05 26.0 -23.4 33.8 -19.0 36.25 -17.9 38.2 -15.7 L38.65 -15.7 41.3 -12.7 42.75 -11.15 44.6 -8.15 Q46.45 -5.45 47.1 -3.8 48.4 -0.35 49.5 4.0 50.8 9.35 50.8 12.35 L50.35 18.5 50.3 18.6 50.4 18.5 M-20.45 27.55 L-20.45 27.45 -20.35 27.25 -23.25 25.4 -20.45 27.55" fill="#fff26e" fill-rule="evenodd" stroke="none"/>
      <path d="M12.0 -22.1 L12.0 -22.0 11.95 -22.0 12.0 -22.1 M50.35 18.5 L50.4 18.5 50.3 18.6 50.35 18.5" fill="#ffe21c" fill-rule="evenodd" stroke="none"/>
      <path d="M12.0 -22.1 Q4.05 -29.4 -4.55 -29.95 -11.65 -30.45 -18.65 -26.4 -24.3 -23.1 -28.5 -17.8 -32.05 -13.25 -32.2 -10.75 -34.25 -6.9 -34.7 -3.1 -35.9 0.5 -35.9 4.3 -35.9 8.2 -34.4 12.95 -32.7 18.25 -29.65 22.65 -24.65 29.85 -17.75 32.4 L-15.25 34.4 Q-8.35 39.15 0.55 39.15 14.95 39.15 19.85 29.6 22.1 25.25 22.1 18.0 L22.15 14.7 21.05 12.85 19.25 9.45 Q16.0 7.3 7.45 3.25 L7.2 3.65 7.2 4.45 12.5 10.05 Q17.85 16.0 17.85 18.3 L16.95 21.1 Q15.85 23.8 14.25 26.1 9.55 33.05 3.2 33.05 -1.8 33.05 -10.35 29.7 L-12.0 29.0 -11.9 28.65 Q-15.7 26.95 -19.3 23.35 -23.0 21.0 -25.8 17.6 -28.75 14.0 -30.35 9.55 -31.5 6.4 -31.5 4.45 -31.5 1.6 -30.95 -1.4 -28.9 -6.4 -25.8 -10.7 -16.25 -23.9 -1.65 -23.9 0.35 -23.9 3.85 -21.9 L7.2 -19.9 7.3 -19.9 7.6 -19.35 Q8.55 -18.3 11.45 -18.3 26.75 -18.3 34.5 -11.4 35.85 -9.2 39.85 -3.95 L40.7 -1.7 41.55 0.25 Q43.6 7.1 43.9 16.15 L43.5 16.15 Q43.7 18.05 43.55 20.1 L39.9 28.1 34.75 38.5 32.1 41.05 26.9 46.2 26.9 46.75 Q10.75 58.55 -15.75 58.55 L-16.4 58.55 Q-37.4 57.05 -48.0 46.6 -52.4 42.25 -54.55 36.75 -56.1 32.7 -56.1 29.15 -56.1 23.5 -54.25 16.65 L-52.45 10.55 -50.85 8.05 -50.65 7.85 Q-51.8 6.2 -52.65 3.75 L-52.8 3.3 Q-56.45 0.25 -58.3 -8.35 -59.85 -15.55 -59.85 -24.3 -59.85 -30.4 -56.6 -36.65 -53.35 -43.05 -47.45 -48.2 -42.65 -52.45 -37.05 -55.2 -25.9 -59.55 -9.65 -59.55 L-7.3 -59.4 Q1.15 -57.7 6.0 -51.7 8.0 -49.3 9.5 -45.9 L9.95 -44.95 9.85 -44.25 Q9.85 -43.5 10.0 -43.3 L10.1 -43.05 12.0 -42.8 13.65 -43.15 14.1 -42.8 21.55 -43.85 27.4 -42.65 37.65 -40.45 38.15 -40.2 Q40.7 -39.05 42.05 -39.05 L42.35 -39.1 Q46.35 -36.65 49.25 -34.0 56.75 -27.05 58.95 -17.35 L59.45 -14.5 Q59.85 -11.7 59.85 -8.7 L59.8 -7.9 60.45 -5.05 Q60.95 -2.55 60.95 -0.5 L60.95 0.4 61.0 0.85 61.0 1.15 61.0 2.4 Q60.95 3.6 60.55 4.45 L59.9 5.4 59.7 7.1 Q59.5 8.05 58.3 9.9 L58.1 10.2 Q57.2 12.2 56.55 12.45 L56.55 12.5 56.7 13.35 50.4 18.5 50.35 18.5 50.8 12.35 Q50.8 9.35 49.5 4.0 48.4 -0.35 47.1 -3.8 46.45 -5.45 44.6 -8.15 L42.75 -11.15 41.3 -12.7 38.65 -15.7 38.2 -15.7 Q36.25 -17.9 33.8 -19.0 26.0 -23.4 17.95 -23.05 14.9 -22.95 12.85 -22.1 L12.65 -22.0 12.0 -22.0 12.0 -22.1" fill="#f7d240" fill-rule="evenodd" stroke="none"/>
    </g>
    <g id="shape2" transform="matrix(1.0, 0.0, 0.0, 1.0, 63.0, -67.05)">
      <path d="M-48.15 79.0 Q-48.45 79.85 -50.0 79.85 -50.9 79.85 -57.0 74.85 -63.0 69.95 -63.0 69.5 L-62.95 67.85 -62.5 67.1 Q-57.0 66.45 -48.0 77.6 L-48.15 79.0" fill="#fff26e" fill-rule="evenodd" stroke="none"/>
    </g>
    <g id="shape3" transform="matrix(1.0, 0.0, 0.0, 1.0, 192.45, 130.5)">
      <path d="M192.45 2.9 L175.95 17.95 Q165.45 27.45 154.85 33.25 L141.65 40.45 Q133.45 45.0 128.45 48.3 124.25 51.15 119.25 54.95 L110.45 61.55 110.35 61.85 123.3 63.15 Q124.85 63.55 126.7 64.3 132.8 65.4 188.6 64.6 L188.8 64.75 188.95 65.65 Q188.95 67.15 182.9 69.75 175.05 72.85 171.45 74.55 166.0 77.2 153.95 81.2 132.4 88.15 117.7 94.75 111.25 97.45 107.25 99.25 99.9 102.5 96.45 104.75 94.0 106.35 85.85 108.65 74.25 111.95 70.7 113.2 69.75 113.5 65.05 115.8 60.9 117.85 58.2 118.5 56.0 119.0 52.35 120.85 L46.8 123.6 Q30.25 130.5 -5.45 130.5 -25.75 130.5 -35.6 125.95 -38.65 124.55 -40.55 122.7 L-42.15 121.05 -50.0 117.65 Q-55.4 115.35 -59.95 113.65 -69.05 110.7 -71.2 109.8 L-74.6 107.95 Q-76.65 106.65 -78.45 106.0 L-83.15 105.45 -87.95 104.95 -91.45 103.95 -97.2 102.15 Q-105.3 99.4 -107.45 98.3 L-117.1 93.25 -123.95 89.45 Q-127.65 87.35 -143.95 79.2 L-153.1 74.95 -157.95 73.3 -176.0 67.6 Q-191.95 62.35 -191.95 60.8 L-191.9 59.95 -191.7 59.55 Q-180.45 59.55 -171.95 59.8 -171.85 59.2 -170.4 59.0 L-155.95 58.25 -155.4 58.15 -148.45 56.95 -136.6 54.8 -131.65 53.7 -137.9 47.3 -146.15 38.3 -154.2 30.6 -162.15 23.0 -169.7 15.25 -176.65 7.65 Q-178.55 5.2 -185.3 -0.05 -191.8 -5.1 -192.45 -6.15 -190.7 -7.1 -186.55 -4.95 -184.3 -3.85 -180.4 -1.55 -172.85 2.25 -165.45 6.45 -159.85 9.65 -151.1 13.5 L-136.9 19.4 Q-134.2 20.5 -125.3 24.7 -116.9 28.75 -112.45 30.4 L-102.55 34.05 -110.25 24.15 Q-122.4 8.55 -128.65 -1.75 -137.1 -15.55 -147.7 -27.3 -156.4 -36.8 -159.0 -40.15 -164.35 -46.95 -166.95 -53.35 L-166.9 -53.65 -165.95 -53.9 -142.2 -36.0 -131.15 -27.15 -119.9 -18.4 Q-111.4 -12.15 -98.9 -1.1 L-78.7 16.4 Q-82.55 7.05 -91.7 -7.45 L-106.9 -31.4 Q-113.5 -42.5 -120.2 -55.6 -122.0 -59.05 -129.6 -69.3 -135.25 -76.9 -136.25 -78.65 L-136.95 -79.9 Q-137.45 -81.1 -137.45 -82.2 L-137.4 -84.0 -137.05 -84.4 -135.95 -84.55 Q-132.3 -84.55 -124.75 -76.65 -120.7 -72.35 -114.4 -64.8 L-96.65 -44.9 Q-89.3 -36.25 -76.95 -25.25 -65.25 -14.8 -53.45 -6.1 -58.85 -16.6 -63.25 -33.0 -69.55 -56.6 -70.7 -59.95 -72.35 -64.9 -76.0 -73.4 L-81.95 -87.1 Q-84.95 -94.35 -93.95 -113.9 L-93.95 -118.2 -93.9 -118.45 -92.95 -118.75 -80.3 -101.6 Q-66.45 -82.8 -60.45 -75.3 -52.45 -65.25 -44.4 -53.35 -42.15 -50.15 -37.65 -42.95 -33.4 -36.35 -29.7 -32.15 -30.5 -42.0 -27.95 -56.55 -24.55 -73.15 -23.2 -81.2 L-21.45 -93.5 -19.7 -106.2 -17.95 -118.45 -17.4 -124.8 Q-16.95 -128.6 -15.45 -130.5 -13.15 -125.1 -11.95 -117.15 L-10.2 -103.9 -7.7 -90.7 -4.95 -77.4 Q-1.45 -58.85 0.35 -51.0 L4.0 -37.75 Q6.2 -29.9 6.6 -24.5 8.95 -26.6 10.05 -30.65 L11.85 -37.25 14.8 -43.65 17.55 -49.8 22.35 -62.5 Q25.45 -71.05 27.1 -75.1 L37.65 -100.5 Q44.35 -115.7 51.05 -125.9 52.15 -124.7 52.45 -121.8 L52.55 -117.7 Q52.55 -111.15 50.7 -90.0 L48.55 -66.35 Q46.55 -38.05 45.95 -18.25 47.8 -20.9 53.6 -27.0 L63.7 -37.25 75.05 -47.0 Q83.05 -53.75 86.1 -57.45 92.4 -65.25 103.85 -78.15 L108.3 -83.4 113.1 -88.55 118.05 -93.9 Q121.35 -97.1 123.85 -97.05 L123.95 -95.9 Q123.95 -93.5 115.55 -75.5 107.55 -58.5 103.95 -52.3 L91.2 -30.4 Q84.35 -18.05 80.85 -8.65 L100.35 -17.7 Q114.45 -24.1 125.35 -28.6 127.95 -29.65 133.6 -30.9 L140.95 -32.65 150.8 -36.3 Q159.7 -39.6 160.7 -39.6 L161.85 -39.35 161.95 -37.8 Q161.95 -35.35 154.65 -28.8 L145.6 -20.95 Q142.75 -17.95 138.85 -13.0 L131.7 -4.1 Q126.2 2.55 115.25 12.6 L99.6 26.6 105.5 24.85 Q114.9 22.2 121.95 21.0 127.3 20.05 134.5 18.1 L146.95 14.55 168.95 9.0 180.05 5.8 192.1 2.05 192.35 2.1 192.45 2.9 M45.85 -15.05 L46.05 -15.05 45.85 -15.1 45.85 -15.05 M185.6 6.4 L185.3 6.5 185.35 6.7 185.6 6.4 M-129.85 53.2 L-129.95 52.9 -130.05 53.25 -129.85 53.2 M182.7 67.2 L182.7 67.4 182.95 67.2 182.7 67.2 M-92.7 48.05 L-93.45 47.45 -93.9 47.55 -92.8 48.3 -92.7 48.05 M-139.0 67.8 L-138.9 67.4 -141.15 67.4 -139.0 67.8 M-121.0 68.3 L-117.65 68.95 -117.55 68.6 -121.0 68.3" fill="#ffff99" fill-rule="evenodd" stroke="none"/>
    </g>
    <g id="shape4" transform="matrix(1.0, 0.0, 0.0, 1.0, 64.65, 63.1)">
      <path d="M14.35 -50.45 L15.75 -48.65 25.0 -47.95 Q39.35 -45.75 47.25 -41.2 L52.0 -37.2 53.2 -36.25 53.75 -35.45 54.35 -34.85 Q57.9 -31.1 59.45 -27.9 63.1 -20.55 63.6 -13.9 L64.25 -5.9 64.65 -0.15 64.65 0.5 64.65 1.4 Q64.65 4.85 62.65 9.7 L60.95 14.4 Q56.0 26.35 48.1 26.9 L46.7 30.5 Q43.75 37.55 40.3 40.2 36.1 46.85 33.8 47.6 18.65 63.1 -4.0 63.1 L-8.85 62.85 -12.45 62.55 -14.35 62.55 Q-23.05 62.55 -30.1 60.9 -49.15 57.45 -56.25 43.55 -59.3 37.6 -59.85 30.05 L-59.9 28.6 Q-60.4 25.4 -60.4 22.05 -60.4 19.9 -59.9 17.6 L-59.9 17.35 Q-59.85 15.1 -59.3 13.45 -58.75 11.85 -57.25 9.9 L-56.4 8.45 -55.95 7.85 Q-60.1 6.05 -62.6 -2.65 -63.6 -6.05 -64.2 -10.2 L-64.65 -13.75 -64.4 -17.7 -64.1 -23.1 Q-63.95 -26.5 -62.9 -28.4 -62.5 -32.15 -60.9 -36.15 -58.35 -42.45 -53.3 -47.55 -44.85 -56.2 -31.15 -60.0 L-25.25 -61.6 Q-16.95 -63.45 -9.95 -63.05 -5.4 -63.1 -3.2 -62.25 L-2.45 -61.9 0.7 -60.95 Q5.5 -59.15 8.4 -56.2 L9.05 -55.7 Q12.0 -53.3 14.35 -50.45 M50.4 18.5 L56.7 13.35 56.55 12.5 56.55 12.45 Q57.2 12.2 58.1 10.2 L58.3 9.9 Q59.5 8.05 59.7 7.1 L59.9 5.4 60.55 4.45 Q60.95 3.6 61.0 2.4 L61.0 1.15 61.0 0.85 60.95 0.4 60.95 -0.5 Q60.95 -2.55 60.45 -5.05 L59.8 -7.9 59.85 -8.7 Q59.85 -11.7 59.45 -14.5 L58.95 -17.35 Q56.75 -27.05 49.25 -34.0 46.35 -36.65 42.35 -39.1 L42.05 -39.05 Q40.7 -39.05 38.15 -40.2 L37.65 -40.45 27.4 -42.65 21.55 -43.85 14.1 -42.8 13.65 -43.15 12.0 -42.8 10.1 -43.05 10.0 -43.3 Q9.85 -43.5 9.85 -44.25 L9.95 -44.95 9.5 -45.9 Q8.0 -49.3 6.0 -51.7 1.15 -57.7 -7.3 -59.4 L-9.65 -59.55 Q-25.9 -59.55 -37.05 -55.2 -42.65 -52.45 -47.45 -48.2 -53.35 -43.05 -56.6 -36.65 -59.85 -30.4 -59.85 -24.3 -59.85 -15.55 -58.3 -8.35 -56.45 0.25 -52.8 3.3 L-52.65 3.75 Q-51.8 6.2 -50.65 7.85 L-50.85 8.05 -52.45 10.55 -54.25 16.65 Q-56.1 23.5 -56.1 29.15 -56.1 32.7 -54.55 36.75 -52.4 42.25 -48.0 46.6 -37.4 57.05 -16.4 58.55 L-15.75 58.55 Q10.75 58.55 26.9 46.75 L26.9 46.2 32.1 41.05 34.75 38.5 39.9 28.1 43.55 20.1 Q43.7 18.05 43.5 16.15 L43.9 16.15 Q43.6 7.1 41.55 0.25 L40.7 -1.7 39.85 -3.95 Q35.85 -9.2 34.5 -11.4 26.75 -18.3 11.45 -18.3 8.55 -18.3 7.6 -19.35 L7.3 -19.9 7.2 -19.9 3.85 -21.9 Q0.35 -23.9 -1.65 -23.9 -16.25 -23.9 -25.8 -10.7 -28.9 -6.4 -30.95 -1.4 -31.5 1.6 -31.5 4.45 -31.5 6.4 -30.35 9.55 -28.75 14.0 -25.8 17.6 -23.0 21.0 -19.3 23.35 -15.7 26.95 -11.9 28.65 L-12.0 29.0 -10.35 29.7 Q-1.8 33.05 3.2 33.05 9.55 33.05 14.25 26.1 15.85 23.8 16.95 21.1 L17.85 18.3 Q17.85 16.0 12.5 10.05 L7.2 4.45 7.2 3.65 7.45 3.25 Q16.0 7.3 19.25 9.45 L21.05 12.85 22.15 14.7 22.1 18.0 Q22.1 25.25 19.85 29.6 14.95 39.15 0.55 39.15 -8.35 39.15 -15.25 34.4 L-17.75 32.4 Q-24.65 29.85 -29.65 22.65 -32.7 18.25 -34.4 12.95 -35.9 8.2 -35.9 4.3 -35.9 0.5 -34.7 -3.1 -34.25 -6.9 -32.2 -10.75 -32.05 -13.25 -28.5 -17.8 -24.3 -23.1 -18.65 -26.4 -11.65 -30.45 -4.55 -29.95 4.05 -29.4 12.0 -22.1 L11.95 -22.0 12.0 -22.0 12.65 -22.0 12.85 -22.1 Q14.9 -22.95 17.95 -23.05 26.0 -23.4 33.8 -19.0 36.25 -17.9 38.2 -15.7 L38.65 -15.7 41.3 -12.7 42.75 -11.15 44.6 -8.15 Q46.45 -5.45 47.1 -3.8 48.4 -0.35 49.5 4.0 50.8 9.35 50.8 12.35 L50.35 18.5 50.3 18.6 50.4 18.5 M-20.45 27.55 L-20.45 27.45 -20.35 27.25 -23.25 25.4 -20.45 27.55" fill="#f7a641" fill-opacity="0.92156863" fill-rule="evenodd" stroke="none"/>
      <path d="M12.0 -22.1 L12.0 -22.0 11.95 -22.0 12.0 -22.1 M50.35 18.5 L50.4 18.5 50.3 18.6 50.35 18.5" fill="#f79f1f" fill-opacity="0.92156863" fill-rule="evenodd" stroke="none"/>
      <path d="M12.0 -22.1 Q4.05 -29.4 -4.55 -29.95 -11.65 -30.45 -18.65 -26.4 -24.3 -23.1 -28.5 -17.8 -32.05 -13.25 -32.2 -10.75 -34.25 -6.9 -34.7 -3.1 -35.9 0.5 -35.9 4.3 -35.9 8.2 -34.4 12.95 -32.7 18.25 -29.65 22.65 -24.65 29.85 -17.75 32.4 L-15.25 34.4 Q-8.35 39.15 0.55 39.15 14.95 39.15 19.85 29.6 22.1 25.25 22.1 18.0 L22.15 14.7 21.05 12.85 19.25 9.45 Q16.0 7.3 7.45 3.25 L7.2 3.65 7.2 4.45 12.5 10.05 Q17.85 16.0 17.85 18.3 L16.95 21.1 Q15.85 23.8 14.25 26.1 9.55 33.05 3.2 33.05 -1.8 33.05 -10.35 29.7 L-12.0 29.0 -11.9 28.65 Q-15.7 26.95 -19.3 23.35 -23.0 21.0 -25.8 17.6 -28.75 14.0 -30.35 9.55 -31.5 6.4 -31.5 4.45 -31.5 1.6 -30.95 -1.4 -28.9 -6.4 -25.8 -10.7 -16.25 -23.9 -1.65 -23.9 0.35 -23.9 3.85 -21.9 L7.2 -19.9 7.3 -19.9 7.6 -19.35 Q8.55 -18.3 11.45 -18.3 26.75 -18.3 34.5 -11.4 35.85 -9.2 39.85 -3.95 L40.7 -1.7 41.55 0.25 Q43.6 7.1 43.9 16.15 L43.5 16.15 Q43.7 18.05 43.55 20.1 L39.9 28.1 34.75 38.5 32.1 41.05 26.9 46.2 26.9 46.75 Q10.75 58.55 -15.75 58.55 L-16.4 58.55 Q-37.4 57.05 -48.0 46.6 -52.4 42.25 -54.55 36.75 -56.1 32.7 -56.1 29.15 -56.1 23.5 -54.25 16.65 L-52.45 10.55 -50.85 8.05 -50.65 7.85 Q-51.8 6.2 -52.65 3.75 L-52.8 3.3 Q-56.45 0.25 -58.3 -8.35 -59.85 -15.55 -59.85 -24.3 -59.85 -30.4 -56.6 -36.65 -53.35 -43.05 -47.45 -48.2 -42.65 -52.45 -37.05 -55.2 -25.9 -59.55 -9.65 -59.55 L-7.3 -59.4 Q1.15 -57.7 6.0 -51.7 8.0 -49.3 9.5 -45.9 L9.95 -44.95 9.85 -44.25 Q9.85 -43.5 10.0 -43.3 L10.1 -43.05 12.0 -42.8 13.65 -43.15 14.1 -42.8 21.55 -43.85 27.4 -42.65 37.65 -40.45 38.15 -40.2 Q40.7 -39.05 42.05 -39.05 L42.35 -39.1 Q46.35 -36.65 49.25 -34.0 56.75 -27.05 58.95 -17.35 L59.45 -14.5 Q59.85 -11.7 59.85 -8.7 L59.8 -7.9 60.45 -5.05 Q60.95 -2.55 60.95 -0.5 L60.95 0.4 61.0 0.85 61.0 1.15 61.0 2.4 Q60.95 3.6 60.55 4.45 L59.9 5.4 59.7 7.1 Q59.5 8.05 58.3 9.9 L58.1 10.2 Q57.2 12.2 56.55 12.45 L56.55 12.5 56.7 13.35 50.4 18.5 50.35 18.5 50.8 12.35 Q50.8 9.35 49.5 4.0 48.4 -0.35 47.1 -3.8 46.45 -5.45 44.6 -8.15 L42.75 -11.15 41.3 -12.7 38.65 -15.7 38.2 -15.7 Q36.25 -17.9 33.8 -19.0 26.0 -23.4 17.95 -23.05 14.9 -22.95 12.85 -22.1 L12.65 -22.0 12.0 -22.0 12.0 -22.1" fill="#f4982e" fill-opacity="0.92156863" fill-rule="evenodd" stroke="none"/>
    </g>
  </defs>
</svg>
