<?xml version="1.0" encoding="UTF-8" standalone="no"?>
<svg xmlns:ffdec="https://www.free-decompiler.com/flash" xmlns:xlink="http://www.w3.org/1999/xlink" ffdec:objectType="frame" height="10.9px" width="12.85px" xmlns="http://www.w3.org/2000/svg">
  <g transform="matrix(1.0, 0.0, 0.0, 1.0, -2.3, -2.15)">
    <use ffdec:characterId="632" height="10.5" transform="matrix(1.0, 0.0, 0.0, 1.0, 3.45, 2.45)" width="11.7" xlink:href="#text0"/>
  </g>
  <defs>
    <g id="text0" transform="matrix(1.0, 0.0, 0.0, 1.0, -1.45, -0.45)">
      <g transform="matrix(1.0, 0.0, 0.0, 1.0, 0.0, 0.0)">
        <use fill="#ffffff" height="10.5" transform="matrix(0.0098, 0.0, 0.0, 0.0098, 0.0, 10.0)" width="11.7" xlink:href="#font_Lithos_Pro_Regular_70"/>
      </g>
    </g>
    <g id="font_Lithos_Pro_Regular_70">
      <path d="M154.5 -552.0 L154.5 -552.0 150.5 -737.5 Q180.5 -737.0 231.5 -735.5 282.0 -734.0 345.0 -732.5 408.0 -730.5 475.0 -729.0 542.0 -727.5 604.5 -726.5 667.0 -726.0 716.5 -726.0 L728.0 -709.5 Q715.5 -677.0 691.5 -616.5 667.5 -556.0 636.5 -479.5 606.0 -403.0 573.5 -322.5 541.0 -241.5 512.0 -168.5 483.0 -95.5 462.0 -42.5 441.5 11.0 434.0 32.5 L223.0 -57.5 Q229.5 -70.0 248.0 -107.5 267.0 -145.0 293.5 -197.5 320.0 -250.0 349.0 -307.5 377.5 -365.0 403.5 -417.0 429.5 -469.0 447.5 -505.0 465.5 -541.5 470.0 -552.0 L154.5 -552.0" fill-rule="evenodd" stroke="none"/>
    </g>
  </defs>
</svg>
