<?xml version="1.0" encoding="UTF-8" standalone="no"?>
<svg xmlns:ffdec="https://www.free-decompiler.com/flash" xmlns:xlink="http://www.w3.org/1999/xlink" ffdec:objectType="frame" height="12.35px" width="138.15px" xmlns="http://www.w3.org/2000/svg">
  <g transform="matrix(1.0, 0.0, 0.0, 1.0, 65.35, 7.15)">
    <filter id="filter16">
      <feColorMatrix in="SourceGraphic" result="filterResult0" type="matrix" values="0 0 0 0 0.0,0 0 0 0 0.0,0 0 0 0 0.0,0 0 0 1 0"/>
      <feConvolveMatrix divisor="25.0" in="filterResult0" kernelMatrix="1 1 1 1 1 1 1 1 1 1 1 1 1 1 1 1 1 1 1 1 1 1 1 1 1" order="5 5" result="filterResult1"/>
      <feComposite in="SourceGraphic" in2="filterResult1" operator="over" result="filterResult2"/>
      <feColorMatrix in="filterResult2" result="filterResult3" type="matrix" values="0 0 0 0 1.0,0 0 0 0 0.0,0 0 0 0 0.0,0 0 0 1 0"/>
      <feConvolveMatrix divisor="100.0" in="filterResult3" kernelMatrix="1 1 1 1 1 1 1 1 1 1 1 1 1 1 1 1 1 1 1 1 1 1 1 1 1 1 1 1 1 1 1 1 1 1 1 1 1 1 1 1 1 1 1 1 1 1 1 1 1 1 1 1 1 1 1 1 1 1 1 1 1 1 1 1 1 1 1 1 1 1 1 1 1 1 1 1 1 1 1 1 1 1 1 1 1 1 1 1 1 1 1 1 1 1 1 1 1 1 1 1" order="10 10" result="filterResult4"/>
      <feComposite in="filterResult2" in2="filterResult4" operator="over" result="filterResult5"/>
    </filter>
    <use ffdec:characterId="1068" filter="url(#filter16)" height="12.35" transform="matrix(1.0, 0.0, 0.0, 1.0, -65.35, -7.15)" width="138.15" xlink:href="#text0"/>
  </g>
  <defs>
    <g id="text0" transform="matrix(1.0, 0.0, 0.0, 1.0, -11.85, -0.6)">
      <g transform="matrix(1.0, 0.0, 0.0, 1.0, 10.4, 0.0)">
        <use fill="#ffffff" fill-opacity="0.6" height="12.35" transform="matrix(0.0117, 0.0, 0.0, 0.0117, 0.0, 12.0)" width="138.15" xlink:href="#font_Lithos_Pro_Regular_B0"/>
        <use fill="#ffffff" fill-opacity="0.6" height="12.35" transform="matrix(0.0117, 0.0, 0.0, 0.0117, 8.6, 12.0)" width="138.15" xlink:href="#font_Lithos_Pro_Regular_a0"/>
        <use fill="#ffffff" fill-opacity="0.6" height="12.35" transform="matrix(0.0117, 0.0, 0.0, 0.0117, 17.85, 12.0)" width="138.15" xlink:href="#font_Lithos_Pro_Regular_s0"/>
        <use fill="#ffffff" fill-opacity="0.6" height="12.35" transform="matrix(0.0117, 0.0, 0.0, 0.0117, 23.95, 12.0)" width="138.15" xlink:href="#font_Lithos_Pro_Regular_e0"/>
        <use fill="#ffffff" fill-opacity="0.6" height="12.35" transform="matrix(0.0117, 0.0, 0.0, 0.0117, 33.8, 12.0)" width="138.15" xlink:href="#font_Lithos_Pro_Regular_U0"/>
        <use fill="#ffffff" fill-opacity="0.6" height="12.35" transform="matrix(0.0117, 0.0, 0.0, 0.0117, 44.0, 12.0)" width="138.15" xlink:href="#font_Lithos_Pro_Regular_n0"/>
        <use fill="#ffffff" fill-opacity="0.6" height="12.35" transform="matrix(0.0117, 0.0, 0.0, 0.0117, 53.55, 12.0)" width="138.15" xlink:href="#font_Lithos_Pro_Regular_d0"/>
        <use fill="#ffffff" fill-opacity="0.6" height="12.35" transform="matrix(0.0117, 0.0, 0.0, 0.0117, 62.65, 12.0)" width="138.15" xlink:href="#font_Lithos_Pro_Regular_e0"/>
        <use fill="#ffffff" fill-opacity="0.6" height="12.35" transform="matrix(0.0117, 0.0, 0.0, 0.0117, 69.5, 12.0)" width="138.15" xlink:href="#font_Lithos_Pro_Regular_r0"/>
        <use fill="#ffffff" fill-opacity="0.6" height="12.35" transform="matrix(0.0117, 0.0, 0.0, 0.0117, 80.95, 12.0)" width="138.15" xlink:href="#font_Lithos_Pro_Regular_A0"/>
        <use fill="#ffffff" fill-opacity="0.6" height="12.35" transform="matrix(0.0117, 0.0, 0.0, 0.0117, 90.55, 12.0)" width="138.15" xlink:href="#font_Lithos_Pro_Regular_t0"/>
        <use fill="#ffffff" fill-opacity="0.6" height="12.35" transform="matrix(0.0117, 0.0, 0.0, 0.0117, 97.75, 12.0)" width="138.15" xlink:href="#font_Lithos_Pro_Regular_t0"/>
        <use fill="#ffffff" fill-opacity="0.6" height="12.35" transform="matrix(0.0117, 0.0, 0.0, 0.0117, 104.4, 12.0)" width="138.15" xlink:href="#font_Lithos_Pro_Regular_a0"/>
        <use fill="#ffffff" fill-opacity="0.6" height="12.35" transform="matrix(0.0117, 0.0, 0.0, 0.0117, 113.65, 12.0)" width="138.15" xlink:href="#font_Lithos_Pro_Regular_c0"/>
        <use fill="#ffffff" fill-opacity="0.6" height="12.35" transform="matrix(0.0117, 0.0, 0.0, 0.0117, 120.75, 12.0)" width="138.15" xlink:href="#font_Lithos_Pro_Regular_k0"/>
        <use fill="#ffffff" fill-opacity="0.6" height="12.35" transform="matrix(0.0117, 0.0, 0.0, 0.0117, 129.45, 12.0)" width="138.15" xlink:href="#font_Lithos_Pro_Regular__1"/>
      </g>
    </g>
    <g id="font_Lithos_Pro_Regular_B0">
      <path d="M323.5 -610.5 L323.5 -610.5 323.5 -419.0 Q346.5 -419.0 373.0 -432.0 399.5 -445.5 419.0 -471.0 438.0 -497.0 439.0 -534.0 438.0 -567.5 418.5 -584.5 399.0 -601.5 372.0 -607.0 345.5 -612.5 323.5 -610.5 M323.5 -319.5 L323.5 -319.5 323.5 -120.0 Q352.5 -120.5 385.5 -134.0 418.0 -147.5 441.0 -170.5 464.0 -194.0 465.0 -223.5 464.5 -256.5 444.0 -278.5 424.0 -300.5 391.5 -311.0 359.5 -321.0 323.5 -319.5 M110.5 -379.0 L110.5 -379.0 110.5 -492.5 Q110.5 -505.0 110.0 -538.5 110.0 -572.5 109.0 -612.5 108.5 -652.5 107.5 -684.5 106.5 -716.5 105.5 -726.0 179.0 -726.0 233.5 -725.5 288.0 -724.5 332.5 -722.0 377.5 -719.0 421.5 -713.5 501.0 -703.5 549.5 -684.0 597.5 -665.0 622.5 -641.0 647.0 -617.0 655.5 -592.0 664.0 -567.0 663.5 -545.5 664.0 -526.0 654.0 -500.5 644.0 -475.0 616.0 -447.5 588.0 -419.5 534.5 -394.5 L534.5 -388.0 Q571.0 -381.5 608.0 -363.0 644.5 -344.0 669.5 -311.5 694.5 -278.5 695.5 -229.5 695.5 -170.5 643.0 -117.0 590.0 -63.5 480.5 -29.5 371.5 5.0 202.5 6.0 L105.5 6.0 Q107.0 -12.0 108.0 -54.0 109.0 -95.5 109.5 -148.5 110.0 -201.0 110.0 -251.5 110.5 -301.5 110.5 -337.0 110.5 -372.0 110.5 -379.0" fill-rule="evenodd" stroke="none"/>
    </g>
    <g id="font_Lithos_Pro_Regular_a0">
      <path d="M301.0 -222.5 L454.5 -229.5 Q434.5 -268.0 413.0 -306.5 391.5 -345.0 378.0 -373.0 361.0 -340.5 340.0 -300.0 319.5 -259.5 301.0 -222.5 M184.5 29.5 L0.0 -65.0 Q7.5 -76.5 30.5 -114.0 54.0 -152.0 88.0 -206.5 121.5 -261.5 161.0 -324.0 200.0 -387.0 239.5 -449.0 279.0 -511.5 313.5 -564.0 347.5 -616.5 371.5 -650.5 L391.0 -650.5 Q426.0 -602.0 472.5 -535.0 518.5 -467.5 568.5 -394.0 618.5 -321.0 664.0 -254.0 709.5 -187.0 742.0 -139.0 775.0 -91.0 787.5 -75.0 L599.0 28.5 Q584.5 6.5 567.0 -22.0 549.5 -50.5 535.5 -73.5 521.5 -96.5 517.0 -102.5 L243.5 -89.5 Q241.0 -84.5 230.5 -64.0 220.5 -43.5 207.5 -18.0 195.0 8.0 184.5 29.5" fill-rule="evenodd" stroke="none"/>
    </g>
    <g id="font_Lithos_Pro_Regular_s0">
      <path d="M79.5 17.5 L56.0 -138.5 Q107.5 -137.0 154.0 -142.5 201.0 -148.0 231.0 -161.0 261.0 -173.5 262.0 -194.5 263.5 -208.5 243.0 -222.0 223.0 -236.0 167.0 -260.0 136.0 -273.5 105.0 -293.0 73.5 -312.5 52.0 -341.5 30.5 -370.0 29.5 -411.0 30.0 -465.5 77.5 -514.5 125.5 -563.0 214.0 -596.5 303.0 -629.5 427.0 -637.0 L451.5 -479.5 Q356.0 -480.0 308.0 -471.0 260.0 -461.5 260.0 -434.5 260.0 -418.0 284.5 -405.5 308.5 -393.0 354.0 -376.0 380.5 -366.5 413.0 -349.5 445.0 -332.5 469.5 -304.0 493.5 -276.0 494.5 -232.5 495.0 -178.0 452.0 -125.5 409.0 -72.5 317.5 -33.5 225.5 5.0 79.5 17.5" fill-rule="evenodd" stroke="none"/>
    </g>
    <g id="font_Lithos_Pro_Regular_e0">
      <path d="M519.5 -147.0 L522.5 9.5 Q510.0 9.5 468.5 8.5 427.5 7.5 371.0 6.0 315.0 5.0 257.5 3.5 200.5 2.0 156.0 1.0 112.0 0.0 94.5 0.0 95.0 -18.5 95.5 -56.0 96.0 -93.5 96.5 -136.0 96.5 -178.5 96.5 -211.0 96.5 -244.0 96.5 -253.0 L96.5 -368.5 Q96.5 -373.5 96.5 -397.5 96.0 -421.5 96.0 -455.0 95.5 -489.0 95.0 -523.5 95.0 -558.0 94.5 -584.0 94.5 -610.0 94.5 -618.5 113.0 -618.5 155.5 -620.0 198.5 -621.0 252.5 -623.0 307.0 -625.0 360.0 -627.0 413.0 -629.5 452.0 -631.0 491.5 -633.0 504.0 -634.0 L508.0 -484.5 Q494.0 -484.5 465.0 -483.5 435.5 -483.0 402.5 -482.0 369.0 -481.0 343.5 -480.0 317.5 -479.5 310.5 -479.5 L310.5 -373.5 Q318.0 -373.5 338.5 -374.0 359.0 -375.0 385.5 -376.0 412.0 -377.0 436.5 -378.5 461.5 -380.0 477.5 -381.5 L479.5 -236.5 Q469.5 -236.5 445.5 -237.0 421.5 -237.5 393.5 -238.0 365.0 -238.5 342.0 -239.0 319.0 -239.5 310.5 -239.5 L310.5 -145.0 Q320.0 -145.0 347.0 -144.5 373.5 -144.5 407.0 -144.5 441.0 -144.5 471.5 -145.0 502.0 -145.5 519.5 -147.0" fill-rule="evenodd" stroke="none"/>
    </g>
    <g id="font_Lithos_Pro_Regular_U0">
      <path d="M308.0 -544.0 L308.0 -544.0 308.0 -474.0 Q308.0 -393.0 311.5 -338.0 315.5 -283.0 325.5 -248.0 336.0 -213.0 355.0 -190.5 373.0 -170.0 395.5 -161.5 418.0 -153.0 442.0 -153.5 469.5 -153.5 492.5 -165.0 516.0 -176.5 533.5 -201.5 543.5 -216.5 549.5 -236.5 555.5 -256.0 558.5 -289.0 561.5 -322.0 562.5 -377.5 563.0 -433.0 563.0 -519.0 L563.0 -558.0 Q563.0 -612.0 561.0 -660.0 559.0 -708.0 558.0 -737.5 L792.5 -737.5 Q792.5 -725.5 792.5 -698.5 793.0 -671.0 793.0 -634.0 793.5 -597.0 793.5 -556.0 L793.5 -509.0 Q794.0 -411.0 787.5 -336.0 781.5 -260.5 762.0 -202.5 743.0 -144.5 704.5 -98.0 657.0 -41.5 586.0 -12.5 515.0 16.5 429.0 16.5 386.0 17.5 334.5 8.5 283.0 0.0 232.5 -28.0 182.0 -55.5 142.0 -111.5 123.5 -139.0 110.5 -170.5 97.5 -202.0 89.5 -246.0 81.5 -290.0 78.0 -354.0 74.5 -418.5 74.5 -511.0 L74.5 -566.5 Q74.5 -591.0 75.0 -622.5 75.0 -654.0 75.5 -681.5 75.5 -709.5 75.5 -722.0 L314.0 -722.0 Q311.0 -702.0 309.5 -658.0 308.0 -613.5 308.0 -544.0" fill-rule="evenodd" stroke="none"/>
    </g>
    <g id="font_Lithos_Pro_Regular_n0">
      <path d="M264.0 6.0 L62.5 0.0 Q64.0 -16.0 67.0 -59.5 69.5 -103.0 73.0 -163.5 76.5 -224.0 80.5 -291.5 84.0 -359.5 88.0 -424.5 91.5 -489.5 95.0 -542.0 98.0 -594.0 100.5 -624.0 L116.5 -629.0 Q157.0 -603.0 210.5 -566.5 264.0 -530.0 321.0 -490.5 378.5 -451.0 428.5 -415.5 479.0 -380.0 512.5 -355.0 546.5 -330.5 553.0 -324.0 553.0 -338.5 553.0 -369.5 552.5 -400.0 552.5 -438.5 552.0 -477.0 552.0 -515.0 551.5 -552.5 551.5 -582.0 551.5 -611.0 552.0 -623.0 L752.5 -618.5 Q749.5 -583.5 745.5 -532.0 741.5 -480.5 737.5 -419.0 734.0 -357.5 730.5 -293.0 726.5 -229.5 723.5 -170.0 720.0 -111.0 717.5 -63.5 715.0 -16.0 714.0 13.5 L697.5 17.5 Q668.5 0.0 620.0 -33.0 571.5 -66.0 515.0 -106.0 458.5 -145.5 405.0 -184.0 352.0 -222.5 313.5 -250.5 275.5 -279.0 263.0 -289.0 263.0 -274.5 263.0 -243.5 263.0 -212.0 263.0 -173.0 263.0 -134.0 263.0 -96.0 263.5 -58.0 263.5 -30.0 263.5 -2.5 264.0 6.0" fill-rule="evenodd" stroke="none"/>
    </g>
    <g id="font_Lithos_Pro_Regular_d0">
      <path d="M313.5 -475.0 L313.5 -158.0 Q345.5 -162.0 379.5 -175.5 413.5 -189.5 442.5 -213.0 472.0 -237.0 490.5 -271.0 508.5 -305.5 509.0 -351.0 508.0 -404.5 480.0 -431.0 452.0 -458.0 407.5 -467.0 363.0 -476.0 313.5 -475.0 M96.5 -275.5 L96.5 -383.0 Q96.5 -389.0 96.5 -412.0 96.5 -435.0 96.0 -466.5 95.5 -498.5 95.0 -530.0 94.5 -562.0 94.0 -586.5 93.5 -610.5 92.5 -618.5 179.5 -618.5 244.0 -617.0 309.0 -616.0 359.0 -613.0 409.5 -609.5 451.5 -604.0 543.0 -592.0 600.0 -566.5 657.5 -540.5 688.0 -508.0 718.5 -475.5 730.0 -442.0 741.0 -409.0 740.5 -382.0 739.5 -297.5 702.0 -232.5 665.0 -168.0 600.0 -121.5 535.0 -75.5 451.5 -47.0 368.5 -18.5 276.0 -6.0 183.5 6.5 91.5 4.0 92.5 -8.5 93.0 -38.0 94.0 -67.5 94.5 -105.0 95.0 -142.0 95.5 -178.5 96.0 -214.5 96.5 -241.0 96.5 -267.5 96.5 -275.5" fill-rule="evenodd" stroke="none"/>
    </g>
    <g id="font_Lithos_Pro_Regular_r0">
      <path d="M311.5 -492.5 L311.5 -266.0 Q311.5 -255.5 311.5 -227.5 312.0 -199.0 312.5 -162.0 312.5 -125.5 313.0 -90.0 314.0 -54.5 314.5 -29.5 315.0 -5.0 315.5 0.0 L95.5 0.0 Q96.5 -7.0 97.5 -31.5 98.0 -56.0 98.5 -89.5 98.5 -123.0 98.5 -156.5 98.5 -190.0 98.5 -214.0 98.5 -238.5 98.5 -244.5 L98.5 -386.0 Q98.5 -394.5 98.5 -419.0 98.0 -443.0 97.5 -474.5 97.5 -506.0 97.0 -537.0 96.0 -568.0 95.5 -590.0 95.0 -612.5 94.5 -618.5 194.0 -619.0 285.0 -617.5 376.5 -616.5 444.5 -608.0 547.5 -595.0 602.0 -557.0 656.0 -519.0 656.5 -458.5 656.0 -404.5 626.0 -361.5 596.0 -319.0 539.5 -284.5 551.0 -273.0 577.0 -247.5 603.5 -222.5 634.5 -193.0 665.5 -163.0 691.5 -138.5 717.0 -113.5 727.0 -102.5 L545.0 29.5 Q537.5 19.0 516.0 -12.0 494.5 -43.0 466.0 -84.5 437.5 -126.0 409.0 -168.0 380.0 -209.5 358.0 -241.5 336.0 -273.5 328.0 -285.5 352.5 -297.5 375.5 -316.0 399.0 -334.0 414.0 -359.5 429.5 -384.5 430.0 -417.0 431.5 -448.5 405.5 -469.5 379.5 -491.0 311.5 -492.5" fill-rule="evenodd" stroke="none"/>
    </g>
    <g id="font_Lithos_Pro_Regular_A0">
      <path d="M328.0 -261.5 L328.0 -261.5 501.0 -270.5 Q486.0 -300.0 470.0 -332.0 453.5 -364.0 439.0 -393.0 424.5 -422.0 415.0 -443.5 402.5 -418.5 387.5 -387.5 372.0 -356.0 356.5 -323.0 341.5 -290.5 328.0 -261.5 M194.5 32.5 L194.5 32.5 0.0 -76.0 Q8.5 -90.0 34.5 -134.5 60.5 -178.5 99.0 -243.0 137.0 -307.5 181.0 -381.5 225.5 -455.5 269.0 -528.5 313.0 -601.5 351.0 -663.5 388.5 -725.0 414.0 -765.0 L424.0 -765.0 Q461.5 -708.5 513.0 -629.0 564.5 -550.0 620.0 -463.5 676.0 -377.0 727.0 -298.5 778.0 -219.5 815.0 -163.5 852.0 -107.0 865.5 -88.5 L662.5 31.5 Q647.0 5.5 628.0 -28.0 608.5 -61.5 592.5 -89.5 576.0 -117.5 570.5 -127.0 L262.0 -110.0 Q257.5 -102.0 246.0 -77.0 234.5 -52.5 220.5 -22.5 206.5 7.5 194.5 32.5" fill-rule="evenodd" stroke="none"/>
    </g>
    <g id="font_Lithos_Pro_Regular_t0">
      <path d="M421.5 0.0 L194.5 0.0 Q195.0 -12.5 195.5 -51.5 196.0 -90.5 196.0 -141.5 196.5 -192.5 196.5 -241.0 L196.5 -461.0 Q181.5 -461.0 153.5 -460.5 125.0 -459.5 93.0 -459.0 61.5 -458.0 35.0 -457.0 8.5 -456.5 -3.0 -456.0 L-3.0 -616.5 Q10.0 -615.0 40.5 -614.0 70.5 -613.0 108.5 -612.0 146.0 -611.5 181.5 -610.5 217.5 -610.0 242.0 -609.5 266.5 -609.5 270.0 -609.5 L351.0 -609.5 Q357.0 -609.5 381.0 -609.5 405.0 -610.0 439.0 -610.5 473.5 -611.5 509.0 -612.0 544.5 -613.0 574.0 -614.0 603.0 -615.0 617.0 -616.5 L617.0 -456.0 Q609.5 -456.5 580.0 -457.0 550.5 -458.0 514.5 -459.0 478.5 -459.5 451.0 -460.5 423.0 -461.0 418.5 -461.0 L418.5 -227.5 Q418.5 -181.0 419.0 -132.5 419.0 -83.5 420.0 -46.5 420.5 -10.0 421.5 0.0" fill-rule="evenodd" stroke="none"/>
    </g>
    <g id="font_Lithos_Pro_Regular_c0">
      <path d="M556.0 -158.5 L565.5 7.5 Q541.0 10.5 514.5 12.5 487.5 14.5 455.0 14.5 340.5 14.0 260.0 -9.5 179.5 -33.0 129.5 -71.5 79.5 -109.5 56.0 -155.5 33.0 -201.5 33.0 -247.5 33.0 -302.5 60.5 -360.5 88.5 -418.5 145.5 -472.5 202.5 -526.5 290.5 -568.0 378.5 -610.0 499.0 -632.0 L540.0 -460.0 Q445.0 -443.5 385.5 -414.5 326.5 -385.5 298.5 -348.5 271.0 -311.0 271.5 -270.5 272.0 -218.5 322.5 -187.0 372.5 -155.5 466.0 -154.5 494.5 -154.5 517.0 -155.5 539.5 -157.0 556.0 -158.5" fill-rule="evenodd" stroke="none"/>
    </g>
    <g id="font_Lithos_Pro_Regular_k0">
      <path d="M322.5 9.5 L93.5 9.5 Q94.0 -1.0 94.5 -30.0 95.0 -59.0 95.5 -99.0 96.0 -139.0 96.0 -182.0 96.5 -225.0 96.5 -263.0 L96.5 -355.0 Q96.5 -384.5 96.0 -427.0 95.5 -469.0 95.0 -512.0 94.5 -554.5 94.0 -586.5 93.5 -618.5 93.5 -627.0 L322.5 -627.0 Q322.0 -620.5 321.5 -593.0 320.5 -565.0 319.5 -526.0 319.0 -487.0 318.0 -447.5 317.5 -408.0 317.5 -378.5 L317.5 -353.0 319.5 -353.0 Q334.0 -370.5 359.5 -402.0 385.5 -433.0 416.0 -470.0 447.0 -507.0 476.0 -542.0 505.5 -577.0 526.5 -602.5 548.0 -628.0 555.0 -636.0 L711.5 -497.5 Q692.0 -479.0 658.0 -446.0 624.0 -413.0 588.0 -377.5 551.5 -342.0 525.5 -316.0 538.5 -302.5 565.5 -276.0 592.0 -250.0 623.0 -219.5 654.5 -189.5 681.5 -163.0 709.0 -136.0 724.0 -122.0 L547.0 25.5 Q541.5 19.5 522.0 -5.5 502.5 -30.5 474.5 -66.5 447.0 -103.0 417.0 -142.0 387.0 -181.5 361.0 -215.5 335.0 -250.0 319.5 -271.0 L317.5 -271.0 317.5 -255.5 Q317.5 -229.5 318.0 -188.0 318.5 -147.0 319.5 -104.5 320.0 -61.5 321.0 -30.0 322.0 2.0 322.5 9.5" fill-rule="evenodd" stroke="none"/>
    </g>
    <g id="font_Lithos_Pro_Regular__1">
      <path d="M69.5 0.0 L69.5 0.0 69.5 -154.5 240.5 -154.5 240.5 0.0 69.5 0.0 M225.0 -251.0 L225.0 -251.0 88.0 -241.5 Q84.0 -289.0 78.0 -353.5 71.5 -418.0 65.0 -488.0 58.5 -558.5 53.0 -623.0 47.5 -687.5 45.0 -735.5 L293.5 -726.0 Q289.5 -689.0 280.5 -628.0 271.0 -567.0 260.0 -497.0 249.0 -426.5 239.5 -361.5 230.0 -296.0 225.0 -251.0" fill-rule="evenodd" stroke="none"/>
    </g>
  </defs>
</svg>
