<?xml version="1.0" encoding="UTF-8" standalone="no"?>
<svg xmlns:ffdec="https://www.free-decompiler.com/flash" xmlns:xlink="http://www.w3.org/1999/xlink" ffdec:objectType="frame" height="240.55px" width="221.3px" xmlns="http://www.w3.org/2000/svg">
  <g transform="matrix(1.0, 0.0, 0.0, 1.0, 10.2, 26.35)">
    <use ffdec:characterId="195" height="34.0" transform="matrix(1.0, 0.0, 0.0, 1.0, 91.0, 157.45)" width="46.45" xlink:href="#shape0"/>
    <use ffdec:characterId="196" height="60.5" transform="matrix(1.0, 0.0, 0.0, 1.0, 129.9, 112.55)" width="40.25" xlink:href="#shape1"/>
    <use ffdec:characterId="197" height="66.4" transform="matrix(0.9927, -0.1176, 0.1176, 0.9927, 77.8379, 110.5341)" width="79.5" xlink:href="#shape2"/>
    <use ffdec:characterId="198" height="55.8" transform="matrix(0.9881, -0.1516, 0.1516, 0.9881, 62.6318, 69.9207)" width="74.05" xlink:href="#shape3"/>
    <use ffdec:characterId="199" height="46.8" transform="matrix(-0.7445, 0.6629, -0.6629, -0.7445, 107.972, 118.1916)" width="25.3" xlink:href="#shape4"/>
    <use ffdec:characterId="200" height="100.35" transform="matrix(-0.5775, -0.816, 0.816, -0.5776, 12.8461, 156.9625)" width="26.0" xlink:href="#shape5"/>
    <filter id="filter11">
      <feColorMatrix in="SourceGraphic" result="filterResult0" type="matrix" values="0 0 0 0 0.0,0 0 0 0 0.0,0 0 0 0 0.0,0 0 0 1 0"/>
      <feConvolveMatrix divisor="4.0" in="filterResult0" kernelMatrix="1 1 1 1" order="2 2" result="filterResult1"/>
      <feComposite in="SourceGraphic" in2="filterResult1" operator="over" result="filterResult2"/>
    </filter>
    <use ffdec:characterId="194" filter="url(#filter11)" height="15.6" transform="matrix(1.0, 0.0, 0.0, 1.0, 30.15, 1.9)" width="146.4" xlink:href="#text0"/>
  </g>
  <defs>
    <g id="shape0" transform="matrix(1.0, 0.0, 0.0, 1.0, 29.45, 30.75)">
      <path d="M12.95 -26.5 Q12.9 -23.45 13.5 -20.7 13.9 -18.95 14.5 -17.65 14.4 -14.35 15.15 -10.65 16.0 -6.45 16.0 -4.15 L16.0 -2.5 16.2 -2.15 Q17.0 -0.8 17.0 0.1 L16.85 1.0 14.95 1.1 -1.0 1.75 Q-1.45 0.85 -2.25 0.25 L-2.1 0.1 -2.3 -0.65 -2.5 -2.2 Q-2.5 -7.45 -1.75 -12.35 L-2.0 -12.1 Q-3.15 -10.95 -10.25 -6.35 L-13.55 -3.65 Q-15.4 -2.4 -17.55 -2.05 -17.3 -0.3 -18.75 3.05 -19.45 3.55 -20.45 2.85 L-20.45 2.65 Q-22.7 1.9 -26.2 -0.7 -29.15 -3.65 -29.45 -8.95 -29.6 -12.5 -28.75 -14.35 L-28.7 -15.0 -28.6 -15.4 -28.85 -15.65 -28.6 -15.7 -28.15 -17.65 -26.9 -18.3 -26.3 -18.3 -24.75 -18.95 -22.7 -19.4 Q-19.2 -20.1 -17.0 -22.3 L-15.95 -22.65 Q-12.55 -25.45 -9.55 -26.65 -3.2 -29.1 1.3 -24.6 L1.55 -24.35 Q3.4 -28.25 5.9 -29.95 8.6 -31.75 10.8 -29.6 L12.95 -26.5 M9.0 -1.4 L10.65 -4.2 Q11.5 -5.55 13.6 -5.2 L13.5 -7.7 12.95 -11.05 Q12.55 -13.2 12.5 -14.45 L12.45 -16.6 11.75 -16.5 4.5 -15.45 4.45 -1.1 5.85 -1.1 9.0 -1.05 9.05 -1.05 9.35 -1.05 9.0 -1.4 M14.0 -0.95 L13.2 -2.85 10.5 -1.05 14.0 -0.95 M-12.4 -15.5 Q-13.25 -14.75 -18.35 -12.85 -23.95 -10.75 -26.75 -11.15 L-27.05 -9.25 Q-27.7 -5.3 -24.4 -1.9 L-24.15 -1.65 Q-23.2 -0.7 -20.4 0.9 -20.35 0.85 -20.25 0.95 L-20.2 0.4 Q-19.95 -1.05 -20.0 -1.9 L-21.65 -1.55 -24.15 -1.85 Q-24.25 -1.85 -24.35 -1.95 L-23.9 -2.7 -21.7 -4.1 Q-19.8 -4.7 -18.55 -3.65 L-18.0 -4.3 Q-17.55 -4.75 -16.05 -5.45 -14.7 -6.2 -14.2 -6.7 L-11.9 -8.3 Q-10.1 -9.5 -9.6 -10.0 L-7.65 -11.35 Q-9.0 -11.9 -10.45 -13.35 L-12.3 -15.4 -12.35 -15.55 -12.4 -15.5" fill="#000000" fill-rule="evenodd" stroke="none"/>
      <path d="M9.05 -1.05 L9.0 -1.05 5.85 -1.1 4.45 -1.1 4.5 -15.45 11.75 -16.5 12.45 -16.6 12.5 -14.45 Q12.55 -13.2 12.95 -11.05 L13.5 -7.7 13.6 -5.2 Q11.5 -5.55 10.65 -4.2 L9.0 -1.4 9.05 -1.05 M14.0 -0.95 L10.5 -1.05 13.2 -2.85 14.0 -0.95 M-24.4 -1.9 Q-27.7 -5.3 -27.05 -9.25 L-26.75 -11.15 Q-23.95 -10.75 -18.35 -12.85 -13.25 -14.75 -12.4 -15.5 L-12.3 -15.4 -10.45 -13.35 Q-9.0 -11.9 -7.65 -11.35 L-9.6 -10.0 Q-10.1 -9.5 -11.9 -8.3 L-14.2 -6.7 Q-14.7 -6.2 -16.05 -5.45 -17.55 -4.75 -18.0 -4.3 L-18.55 -3.65 Q-19.8 -4.7 -21.7 -4.1 L-23.9 -2.7 -24.35 -1.95 -24.4 -1.9 M-24.15 -1.85 L-21.65 -1.55 -20.0 -1.9 Q-19.95 -1.05 -20.2 0.4 L-20.4 0.9 Q-23.2 -0.7 -24.15 -1.65 L-24.15 -1.85" fill="#5b6171" fill-rule="evenodd" stroke="none"/>
    </g>
    <g id="shape1" transform="matrix(1.0, 0.0, 0.0, 1.0, 12.9, 30.5)">
      <path d="M27.0 -30.0 L27.0 -29.8 27.0 -29.5 27.2 -28.15 27.1 -28.0 26.65 -28.0 26.65 -27.95 27.05 -23.85 27.05 26.15 27.0 26.25 27.25 26.4 27.35 26.55 Q26.65 27.55 26.55 28.85 L26.35 28.85 26.05 29.5 25.95 28.9 24.45 28.95 Q10.85 29.0 -10.4 29.5 L-11.15 29.25 -11.4 28.4 Q-11.7 29.7 -11.9 30.0 -12.7 24.65 -12.85 15.95 L-12.9 0.95 -12.9 -15.0 Q-12.8 -25.7 -12.0 -29.55 L-11.9 -30.0 -11.75 -29.65 -11.75 -29.6 -11.75 -29.55 -11.7 -29.45 -11.65 -29.6 -6.45 -29.9 25.95 -30.0 26.05 -30.5 26.2 -30.05 26.2 -30.0 27.0 -30.0 M22.5 -27.9 L22.5 26.35 25.65 26.2 Q25.2 21.65 25.1 15.45 L25.05 0.45 25.05 -15.5 Q25.1 -23.8 25.65 -27.95 L22.5 -27.9 M20.0 -15.55 L19.75 -23.0 Q19.8 -26.35 20.6 -27.9 L-7.15 -27.55 Q-6.75 -25.95 -6.75 -23.95 L-6.9 -18.35 -6.9 -14.4 -6.4 -14.5 20.05 -14.5 20.0 -15.55 M-6.6 -5.25 L-5.9 -6.0 0.25 -6.0 0.25 -6.8 0.2 -8.1 0.25 -8.35 0.05 -8.35 0.0 -9.15 0.05 -10.0 0.25 -10.35 4.1 -10.5 4.3 -10.35 4.4 -10.25 4.8 -10.05 5.0 -9.75 5.0 -6.0 10.6 -6.0 11.0 -7.4 11.0 -7.75 11.45 -7.95 11.5 -8.0 11.55 -8.0 Q14.0 -8.95 14.75 -6.05 L14.75 -6.0 20.3 -6.0 20.1 -12.4 8.5 -12.0 -6.9 -12.5 -6.9 -7.1 -6.9 -5.3 -6.85 -4.35 -6.6 -5.25 M5.0 -2.1 L4.95 2.25 4.85 3.1 7.1 3.1 10.5 3.1 10.5 0.5 10.55 0.5 10.5 -2.3 10.5 -3.5 7.0 -3.5 5.0 -3.5 5.0 -2.1 M15.0 -1.5 L15.0 2.05 14.9 2.65 15.0 3.15 17.6 3.25 20.5 3.5 20.35 -3.7 15.0 -3.55 15.0 -1.5 M-6.4 12.4 Q-6.35 11.4 -3.05 11.05 3.0 10.35 20.45 11.0 L20.5 6.0 15.75 5.55 14.8 5.5 14.65 5.75 Q14.1 6.5 12.5 6.5 L11.0 6.25 11.0 5.35 4.65 5.25 4.4 5.25 4.3 5.5 4.35 5.5 4.6 5.5 5.0 6.5 4.15 7.1 Q3.35 7.5 2.5 7.5 L0.0 7.25 0.0 5.25 -2.3 5.25 -6.7 4.95 -6.5 12.35 -6.4 15.3 -6.5 26.8 3.0 26.5 20.9 26.4 Q20.35 24.6 20.35 22.4 L20.5 16.8 20.45 13.55 20.45 13.5 20.45 13.35 20.0 13.5 -6.05 13.5 -6.2 13.35 -6.4 12.4 M0.0 -3.65 L-0.3 -3.65 -6.85 -4.05 -6.75 3.6 -3.0 3.25 0.0 3.15 0.0 -3.65 M-10.9 -27.5 L-11.3 -27.5 -11.3 -27.45 -10.9 -23.35 -10.9 26.65 -11.05 27.05 -10.85 27.05 -8.1 26.9 Q-8.55 25.4 -8.55 23.35 L-8.4 18.05 -8.45 12.85 -8.4 7.55 Q-8.9 -2.1 -8.9 -12.85 L-8.95 -16.55 -8.9 -21.6 -9.05 -25.75 -8.9 -27.5 -10.9 -27.5" fill="#000000" fill-rule="evenodd" stroke="none"/>
      <path d="M4.6 5.5 L4.35 5.5 4.4 5.25 4.65 5.25 4.6 5.5 M-6.5 12.35 L-6.4 12.4 -6.5 12.35" fill="#71695b" fill-rule="evenodd" stroke="none"/>
      <path d="M20.0 -15.55 L20.05 -14.5 -6.4 -14.5 -6.9 -14.4 -6.9 -18.35 -6.75 -23.95 Q-6.75 -25.95 -7.15 -27.55 L20.6 -27.9 Q19.8 -26.35 19.75 -23.0 L20.0 -15.55 M15.0 -1.5 L15.0 -3.55 20.35 -3.7 20.5 3.5 17.6 3.25 15.0 3.15 14.9 2.65 15.0 2.05 15.0 -1.5 M5.0 -2.1 L5.0 -3.5 7.0 -3.5 10.5 -3.5 10.5 -2.3 10.55 0.5 10.5 0.5 10.5 3.1 7.1 3.1 4.85 3.1 4.95 2.25 5.0 -2.1 M-6.4 12.4 L-6.2 13.35 -6.05 13.5 20.0 13.5 20.45 13.5 20.45 13.55 20.5 16.8 20.35 22.4 Q20.35 24.6 20.9 26.4 L3.0 26.5 -6.5 26.8 -6.4 15.3 -6.5 12.35 -6.4 12.4 M0.0 -3.65 L0.0 3.15 -3.0 3.25 -6.75 3.6 -6.85 -4.05 -0.3 -3.65 0.0 -3.65" fill="#3b3b3b" fill-rule="evenodd" stroke="none"/>
      <path d="M-6.9 -5.3 L-6.9 -7.1 -6.9 -12.5 8.5 -12.0 20.1 -12.4 20.3 -6.0 14.75 -6.0 14.75 -6.05 Q14.0 -8.95 11.55 -8.0 L11.5 -8.0 11.45 -7.95 11.0 -7.75 11.0 -7.4 10.6 -6.0 5.0 -6.0 5.0 -9.75 4.8 -10.05 4.4 -10.25 4.3 -10.35 4.1 -10.5 0.25 -10.35 0.05 -10.0 0.0 -9.15 0.05 -8.35 0.25 -8.35 0.2 -8.1 0.25 -6.8 0.25 -6.0 -5.9 -6.0 -6.6 -5.25 -6.9 -5.3 M4.65 5.25 L11.0 5.35 11.0 6.25 12.5 6.5 Q14.1 6.5 14.65 5.75 L14.8 5.5 15.75 5.55 20.5 6.0 20.45 11.0 Q3.0 10.35 -3.05 11.05 -6.35 11.4 -6.4 12.4 L-6.5 12.35 -6.7 4.95 -2.3 5.25 0.0 5.25 0.0 7.25 2.5 7.5 Q3.35 7.5 4.15 7.1 L5.0 6.5 4.6 5.5 4.65 5.25" fill="#413d34" fill-rule="evenodd" stroke="none"/>
      <path d="M22.5 -27.9 L25.65 -27.95 Q25.1 -23.8 25.05 -15.5 L25.05 0.45 25.1 15.45 Q25.2 21.65 25.65 26.2 L22.5 26.35 22.5 -27.9 M-11.3 -27.45 L-10.9 -27.5 -8.9 -27.5 -9.05 -25.75 -8.9 -21.6 -8.95 -16.55 -8.9 -12.85 Q-8.9 -2.1 -8.4 7.55 L-8.45 12.85 -8.4 18.05 -8.55 23.35 Q-8.55 25.4 -8.1 26.9 L-10.85 27.05 -10.9 26.65 -10.9 -23.35 -11.3 -27.45" fill="#731c02" fill-rule="evenodd" stroke="none"/>
    </g>
    <g id="shape2" transform="matrix(1.0, 0.0, 0.0, 1.0, 30.0, 27.9)">
      <path d="M17.65 0.0 Q17.35 -1.25 17.3 -2.85 L17.0 -8.0 15.9 -13.0 Q15.25 -15.5 14.35 -17.0 L8.75 -18.15 4.2 -19.1 4.55 -18.5 Q6.05 -15.9 6.55 -12.75 L7.0 -7.4 7.45 -2.2 1.5 -2.35 0.6 -2.35 -3.0 -3.5 -6.8 -4.4 -7.0 -4.45 -6.85 -4.25 -5.8 -2.25 5.3 -0.8 17.7 0.35 17.9 0.4 17.65 0.0 M18.4 -14.5 Q18.95 -9.55 19.5 -7.85 L19.5 0.7 Q21.9 0.4 28.5 0.5 L28.5 0.25 28.5 0.0 29.35 -0.15 29.3 -0.35 29.5 -1.25 29.7 -1.1 30.0 -2.35 30.0 -5.35 Q30.0 -9.15 28.75 -13.3 L27.8 -16.5 26.5 -16.5 17.4 -16.9 18.4 -14.5 M15.15 -18.8 L15.95 -18.95 29.05 -18.5 29.3 -18.35 29.5 -17.5 29.5 -17.3 Q31.2 -15.65 31.75 -12.5 L32.0 -5.3 31.95 -1.85 31.5 0.05 31.25 0.65 Q33.5 3.85 33.5 5.35 L33.5 5.5 36.5 5.5 Q43.2 5.5 44.75 5.7 47.95 6.1 48.8 7.75 49.5 9.1 49.5 10.85 49.5 13.3 48.0 16.3 46.55 19.2 44.6 19.85 43.95 20.45 42.25 21.05 38.25 22.5 30.25 22.5 25.8 22.5 24.05 21.5 L23.5 22.65 Q24.55 23.95 25.05 26.25 L27.55 30.0 Q29.1 32.6 29.0 34.5 L28.9 34.75 Q28.75 34.95 28.2 35.0 L28.5 35.5 Q26.7 36.7 24.75 37.1 18.35 38.5 2.5 38.5 L-23.0 37.5 -23.7 37.3 -24.0 36.25 -23.95 35.45 -23.75 35.1 -23.75 35.05 Q-24.05 35.0 -23.75 35.0 L-24.0 33.55 Q-24.0 31.05 -22.7 27.2 -21.4 23.25 -20.05 22.1 L-20.35 20.95 Q-20.45 19.9 -20.0 19.3 L-20.0 16.1 Q-20.0 13.2 -20.4 9.9 L-20.5 9.8 -20.45 9.75 -21.1 5.9 -21.9 2.3 -23.0 3.0 Q-25.45 4.5 -26.0 4.5 -28.55 4.5 -29.5 -4.25 -30.0 -8.65 -30.0 -13.15 -30.0 -19.75 -29.05 -22.3 -26.85 -28.05 -19.85 -27.65 L-19.75 -27.85 -18.75 -27.55 -18.45 -27.5 -18.25 -27.85 Q-13.65 -28.15 -7.95 -25.85 L1.5 -21.6 1.5 -21.55 1.85 -21.4 2.05 -21.45 Q3.65 -21.7 8.55 -20.75 L13.05 -19.55 15.15 -18.8 M-17.05 -25.6 Q-15.85 -23.4 -14.9 -19.05 -13.5 -12.6 -13.5 -7.3 L-3.9 -5.95 Q2.15 -4.8 5.0 -3.65 L4.95 -4.9 5.0 -11.0 Q4.55 -13.0 2.85 -16.0 L0.05 -20.5 Q-1.35 -20.6 -4.3 -21.75 -6.95 -22.8 -8.0 -23.5 L-12.5 -25.0 -15.15 -25.5 -16.2 -25.6 -16.5 -25.5 -16.8 -25.65 -17.1 -25.7 -17.05 -25.6 M46.75 8.05 L38.3 7.85 32.55 7.65 Q30.65 11.0 24.9 18.5 25.85 18.5 25.85 18.75 L25.55 19.4 Q25.35 20.25 30.4 20.25 39.45 20.25 42.05 18.75 42.2 18.3 43.15 17.65 L43.55 17.4 Q45.35 16.25 46.0 15.05 47.5 12.35 47.5 11.0 L47.2 9.45 46.75 8.05 M25.05 15.4 L30.55 6.85 30.5 6.4 Q30.5 5.75 31.3 5.6 L31.3 5.5 Q31.3 4.5 29.9 3.05 L29.45 2.5 24.3 2.5 24.85 5.65 25.0 10.6 25.0 11.85 25.0 14.65 24.95 15.35 24.95 15.55 25.05 15.4 M19.0 5.55 Q21.5 6.15 22.8 7.3 L22.5 3.3 22.55 2.5 19.65 2.5 19.5 2.6 19.35 2.75 18.25 3.0 17.45 2.95 17.5 2.8 17.7 2.5 17.45 2.5 14.0 2.5 -4.3 0.55 Q-8.3 0.05 -8.5 -1.55 -12.3 -1.4 -15.2 -0.25 L-15.9 0.0 -19.35 1.7 -19.75 1.9 -19.65 2.4 -19.2 4.45 -18.6 7.95 -17.1 6.75 Q-15.75 5.95 -14.0 5.5 L-11.5 5.0 1.65 3.85 Q8.75 3.6 14.55 4.75 L18.3 5.35 19.0 5.55 M18.55 12.45 L18.55 12.5 19.6 12.8 22.5 13.85 22.9 14.0 23.0 13.05 22.85 8.6 Q22.6 9.0 22.0 9.0 L21.9 8.95 19.0 8.0 18.65 7.9 17.65 7.65 Q11.5 6.25 1.9 6.25 -9.1 6.25 -14.0 8.15 L-14.0 8.1 -14.6 8.4 -14.7 8.4 Q-15.55 8.75 -17.15 9.85 L-18.3 10.4 Q-18.0 13.35 -18.0 16.05 -16.2 14.95 -13.9 13.9 L-13.5 13.75 Q-6.5 10.65 -0.5 11.25 7.2 10.25 14.5 11.55 L18.55 12.45 M21.9 20.75 Q22.5 19.5 22.5 18.0 L22.65 16.0 22.55 16.0 22.45 16.0 22.4 16.0 19.95 15.55 18.2 15.2 15.85 14.65 Q10.2 13.25 4.65 13.25 -6.1 13.25 -12.5 15.8 -13.85 16.35 -14.7 16.85 L-15.1 17.15 -15.25 17.25 -16.5 18.5 -18.0 18.5 -18.1 19.95 -18.4 21.45 -18.45 21.65 -18.05 21.5 -17.8 21.45 -17.75 21.45 -17.6 21.4 -17.45 21.4 -14.2 20.75 -8.0 19.75 Q-8.0 19.55 0.45 19.6 L11.5 20.0 17.5 20.25 21.75 20.7 21.9 20.8 21.9 20.75 M16.4 35.75 L21.0 35.4 21.05 35.4 27.65 34.8 Q26.6 33.85 24.0 28.75 L21.5 23.9 21.25 23.75 Q21.05 23.6 21.0 23.05 L21.0 23.0 17.55 22.8 13.2 22.55 10.7 22.4 -0.05 21.75 Q-8.05 21.75 -11.2 21.9 L-13.05 22.05 -13.1 22.05 -13.25 22.1 Q-13.5 22.2 -13.4 22.55 -13.6 22.85 -15.0 23.2 L-15.35 23.25 Q-16.65 23.45 -17.75 24.05 L-19.25 24.5 -19.95 26.45 -21.1 29.75 -21.65 32.75 -22.0 35.05 -16.25 35.35 -15.1 35.4 -13.15 35.5 -12.85 35.55 2.4 36.25 16.4 35.75 M-26.3 -21.6 Q-25.8 -23.15 -23.6 -25.0 -26.8 -24.1 -27.75 -19.5 -28.35 -16.6 -28.0 -13.5 -28.0 -10.55 -27.4 -6.45 -26.65 -1.7 -26.5 1.5 L-26.55 1.65 -25.85 1.8 -23.95 0.9 -22.55 0.35 Q-23.25 -1.45 -24.0 -2.35 L-23.9 -2.4 Q-25.25 -4.2 -26.0 -9.6 -26.5 -12.8 -26.5 -17.85 -26.5 -20.95 -26.3 -21.6 M-21.5 -2.05 Q-20.85 -1.3 -20.25 0.3 -17.65 -2.65 -9.8 -3.55 L-10.0 -4.35 -9.95 -5.0 -10.55 -5.1 Q-14.6 -5.75 -15.0 -6.1 -15.85 -6.55 -16.0 -8.5 L-16.6 -7.85 Q-18.45 -5.75 -20.0 -5.0 L-22.15 -5.0 -21.5 -2.8 -21.5 -2.05" fill="#000000" fill-rule="evenodd" stroke="none"/>
      <path d="M-6.8 -4.4 L-3.0 -3.5 0.6 -2.35 1.5 -2.35 7.45 -2.2 7.0 -7.4 6.55 -12.75 Q6.05 -15.9 4.55 -18.5 L4.2 -19.1 8.75 -18.15 14.35 -17.0 Q15.25 -15.5 15.9 -13.0 L17.0 -8.0 17.3 -2.85 Q17.35 -1.25 17.65 0.0 L17.7 0.35 5.3 -0.8 -5.8 -2.25 -6.85 -4.25 -6.8 -4.4 M18.4 -14.5 L17.4 -16.9 26.5 -16.5 27.8 -16.5 28.75 -13.3 Q30.0 -9.15 30.0 -5.35 L30.0 -2.35 29.7 -1.1 29.5 -1.25 29.3 -0.35 29.35 -0.15 28.5 0.0 28.5 0.25 28.5 0.5 Q21.9 0.4 19.5 0.7 L19.5 -7.85 Q18.95 -9.55 18.4 -14.5 M-16.8 -25.65 L-16.5 -25.5 -16.2 -25.6 -15.15 -25.5 -12.5 -25.0 -8.0 -23.5 Q-6.95 -22.8 -4.3 -21.75 -1.35 -20.6 0.05 -20.5 L2.85 -16.0 Q4.55 -13.0 5.0 -11.0 L4.95 -4.9 5.0 -3.65 Q2.15 -4.8 -3.9 -5.95 L-13.5 -7.3 Q-13.5 -12.6 -14.9 -19.05 -15.85 -23.4 -17.05 -25.6 L-16.8 -25.65 M19.35 2.75 Q19.0 3.7 19.0 5.05 L19.0 5.55 18.3 5.35 14.55 4.75 Q8.75 3.6 1.65 3.85 L-11.5 5.0 -14.0 5.5 Q-14.0 3.7 -14.3 2.1 -14.65 0.35 -15.2 -0.25 -12.3 -1.4 -8.5 -1.55 -8.3 0.05 -4.3 0.55 L14.0 2.5 17.45 2.5 17.45 2.95 18.25 3.0 19.35 2.75 M-19.65 2.4 L-19.75 1.9 -19.35 1.7 -19.65 2.4 M18.65 7.9 Q18.5 8.8 18.5 10.75 L18.55 12.45 14.5 11.55 Q7.2 10.25 -0.5 11.25 -6.5 10.65 -13.5 13.75 L-13.5 13.6 -13.75 10.55 -14.0 8.15 Q-9.1 6.25 1.9 6.25 11.5 6.25 17.65 7.65 L18.65 7.9 M18.2 15.2 L17.75 15.1 17.6 15.65 17.5 18.4 17.5 20.25 11.5 20.0 0.45 19.6 Q-8.0 19.55 -8.0 19.75 L-14.2 20.75 -14.0 17.35 -14.0 16.5 -14.7 16.85 Q-13.85 16.35 -12.5 15.8 -6.1 13.25 4.65 13.25 10.2 13.25 15.85 14.65 L18.2 15.2 M-21.5 -2.05 L-21.5 -2.8 -22.15 -5.0 -20.0 -5.0 Q-18.45 -5.75 -16.6 -7.85 L-16.0 -8.5 Q-15.85 -6.55 -15.0 -6.1 -14.6 -5.75 -10.55 -5.1 L-9.95 -5.0 -10.0 -4.35 -9.8 -3.55 Q-17.65 -2.65 -20.25 0.3 -20.85 -1.3 -21.5 -2.05 M-26.3 -21.6 Q-26.5 -20.95 -26.5 -17.85 -26.5 -12.8 -26.0 -9.6 -25.25 -4.2 -23.9 -2.4 L-24.0 -2.35 Q-23.25 -1.45 -22.55 0.35 L-23.95 0.9 -25.85 1.8 -26.55 1.65 -26.5 1.5 Q-26.65 -1.7 -27.4 -6.45 -28.0 -10.55 -28.0 -13.5 -28.35 -16.6 -27.75 -19.5 -26.8 -24.1 -23.6 -25.0 -25.8 -23.15 -26.3 -21.6" fill="#5b6171" fill-rule="evenodd" stroke="none"/>
      <path d="M46.75 8.05 L47.2 9.45 47.5 11.0 Q47.5 12.35 46.0 15.05 45.35 16.25 43.55 17.4 L43.15 17.65 Q42.2 18.3 42.05 18.75 39.45 20.25 30.4 20.25 25.35 20.25 25.55 19.4 L25.85 18.75 Q25.85 18.5 24.9 18.5 30.65 11.0 32.55 7.65 L38.3 7.85 46.75 8.05" fill="#aa8a71" fill-rule="evenodd" stroke="none"/>
      <path d="M19.35 2.75 L19.5 2.6 19.65 2.5 22.55 2.5 22.5 3.3 22.8 7.3 Q21.5 6.15 19.0 5.55 L19.0 5.05 Q19.0 3.7 19.35 2.75 M-14.0 5.5 Q-15.75 5.95 -17.1 6.75 L-18.6 7.95 -19.2 4.45 -19.65 2.4 -19.35 1.7 -15.9 0.0 -15.2 -0.25 Q-14.65 0.35 -14.3 2.1 -14.0 3.7 -14.0 5.5 M18.65 7.9 L19.0 8.0 21.9 8.95 22.0 9.0 Q22.6 9.0 22.85 8.6 L23.0 13.05 22.9 14.0 22.5 13.85 19.6 12.8 18.55 12.5 18.55 12.45 18.5 10.75 Q18.5 8.8 18.65 7.9 M-13.5 13.75 L-13.9 13.9 Q-16.2 14.95 -18.0 16.05 -18.0 13.35 -18.3 10.4 L-17.15 9.85 Q-15.55 8.75 -14.7 8.4 L-14.6 8.4 -14.0 8.1 -14.0 8.15 -13.75 10.55 -13.5 13.6 -13.5 13.75 M18.2 15.2 L19.95 15.55 22.4 16.0 22.45 16.0 22.55 16.0 22.65 16.0 22.5 18.0 Q22.5 19.5 21.9 20.75 L21.75 20.7 17.5 20.25 17.5 18.4 17.6 15.65 17.75 15.1 18.2 15.2 M-14.7 16.85 L-14.0 16.5 -14.0 17.35 -14.2 20.75 -17.45 21.4 -17.6 21.4 -17.75 21.45 -17.8 21.45 -18.05 21.5 -18.4 21.45 -18.1 19.95 -18.0 18.5 -16.5 18.5 -15.25 17.25 -15.1 17.15 -14.7 16.85" fill="#969cab" fill-rule="evenodd" stroke="none"/>
      <path d="M17.55 22.8 L21.0 23.0 21.0 23.05 Q21.05 23.6 21.25 23.75 L21.5 23.9 24.0 28.75 Q26.6 33.85 27.65 34.8 L21.05 35.4 21.0 35.4 16.4 35.75 16.6 35.75 23.5 35.15 Q23.35 34.1 21.15 29.95 L18.05 24.5 17.55 22.8 M-16.25 35.35 L-22.0 35.05 -21.65 32.75 -21.1 29.75 -19.95 26.45 -19.25 24.5 -17.75 24.05 Q-16.65 23.45 -15.35 23.25 L-15.0 23.2 -15.1 23.55 -16.65 28.65 Q-17.5 31.55 -17.5 33.85 L-17.45 35.3 -16.25 35.35" fill="#942403" fill-rule="evenodd" stroke="none"/>
      <path d="M24.95 15.35 L25.0 14.65 25.0 11.85 25.0 10.6 24.85 5.65 24.3 2.5 29.45 2.5 29.9 3.05 Q31.3 4.5 31.3 5.5 L31.3 5.6 Q30.5 5.75 30.5 6.4 L30.55 6.85 25.05 15.4 24.95 15.35 M17.55 22.8 L18.05 24.5 21.15 29.95 Q23.35 34.1 23.5 35.15 L16.6 35.75 16.4 35.75 2.4 36.25 -12.85 35.55 -13.15 35.5 -15.1 35.4 -16.25 35.35 -17.45 35.3 -17.5 33.85 Q-17.5 31.55 -16.65 28.65 L-15.1 23.55 -15.0 23.2 Q-13.6 22.85 -13.4 22.55 -13.5 22.2 -13.25 22.1 L-13.1 22.05 -13.05 22.05 -11.2 21.9 Q-8.05 21.75 -0.05 21.75 L10.7 22.4 13.2 22.55 17.55 22.8" fill="#731c02" fill-rule="evenodd" stroke="none"/>
    </g>
    <g id="shape3" transform="matrix(1.0, 0.0, 0.0, 1.0, 34.55, 27.9)">
      <path d="M3.8 -25.15 L7.85 -25.35 Q24.65 -25.35 30.15 -11.35 31.75 -7.3 32.3 -2.85 L34.65 -1.45 36.2 0.35 Q37.5 1.3 37.5 2.1 L37.4 2.95 37.3 3.0 35.3 3.0 32.15 -0.15 Q29.5 -2.6 28.1 -3.25 L26.55 -8.95 Q21.75 -21.95 7.35 -21.95 -3.45 -21.95 -9.9 -14.5 -15.7 -7.8 -16.25 2.45 L-16.3 8.55 -16.25 14.7 Q-16.25 17.15 -16.65 17.75 -17.7 19.5 -22.15 20.5 -22.85 20.65 -27.25 23.15 L-31.8 23.15 -31.9 22.95 -32.0 22.8 -32.05 22.25 -32.05 22.15 Q-32.05 21.1 -26.25 18.75 L-20.3 16.4 -20.5 15.95 -20.55 15.9 -20.05 15.7 -20.0 15.45 -19.95 15.25 -19.95 14.9 -19.8 12.85 -19.75 12.15 -19.4 7.0 -19.3 5.35 -19.3 5.15 -19.3 5.1 -19.3 4.95 -19.3 4.85 -19.3 4.8 -19.3 4.7 -19.3 4.65 -19.35 1.25 -19.4 0.85 -19.45 0.45 -19.45 0.4 -19.4 -0.35 -18.05 -5.75 -18.85 -4.8 Q-17.8 -9.75 -15.9 -13.4 L-15.85 -13.45 -14.95 -14.45 -13.85 -16.6 -13.8 -16.65 -13.4 -17.2 -12.65 -18.05 Q-8.45 -22.6 -1.55 -24.3 L0.7 -24.7 3.8 -25.15" fill="#969cab" fill-rule="evenodd" stroke="none"/>
      <path d="M35.3 3.0 L37.3 3.0 37.4 2.95 37.5 2.1 Q37.5 1.3 36.2 0.35 L34.65 -1.45 32.3 -2.85 Q31.75 -7.3 30.15 -11.35 24.65 -25.35 7.85 -25.35 L3.8 -25.15 -1.55 -24.3 Q-8.45 -22.6 -12.65 -18.05 L-13.4 -17.2 -13.8 -16.65 -13.85 -16.6 Q-14.95 -15.2 -15.85 -13.45 L-15.9 -13.4 Q-17.8 -9.75 -18.85 -4.8 L-19.6 -0.2 -19.45 0.4 -19.45 0.45 -19.4 0.85 -19.35 1.25 -19.3 4.65 -19.3 4.7 -19.3 4.8 -19.3 4.85 -19.3 4.95 -19.3 5.1 -19.3 5.15 -19.3 5.35 -19.4 7.0 -19.75 12.15 -19.8 12.85 -19.95 14.9 -19.95 15.25 -20.0 15.45 -20.05 15.7 -20.55 15.9 -20.5 15.95 -20.3 16.4 -26.25 18.75 Q-32.05 21.1 -32.05 22.15 L-32.05 22.25 -32.0 22.8 -31.9 22.95 -31.8 23.15 -27.25 23.15 -14.0 23.15 Q-8.0 23.1 -6.8 14.8 L-6.05 8.2 Q-5.65 5.35 -4.75 4.0 L-4.8 3.3 -4.9 2.8 -1.85 2.45 Q4.35 2.25 29.6 2.85 L30.95 2.9 31.0 2.85 31.35 2.75 32.05 2.6 32.05 3.05 35.3 3.0 M35.25 -3.45 L37.25 -1.6 38.8 0.45 Q39.5 1.75 39.5 2.4 39.5 3.8 38.95 4.15 37.3 5.3 30.7 5.5 L31.15 8.35 31.2 13.75 31.5 16.6 Q31.65 19.0 31.2 20.7 29.8 25.9 22.2 25.9 L19.15 25.7 Q17.15 27.9 10.45 27.9 1.05 27.9 -0.3 25.65 L-0.6 24.9 -0.8 24.9 Q-3.15 24.9 -4.9 23.7 -4.9 24.05 -5.35 24.3 -7.45 25.4 -23.3 25.4 -32.0 25.4 -34.0 23.8 -34.65 23.3 -34.55 22.65 L-34.3 22.05 Q-34.3 20.75 -30.0 18.15 -25.45 15.4 -22.55 15.4 L-22.1 15.4 -22.2 15.25 -22.25 15.1 -22.3 13.9 Q-22.55 8.05 -22.4 5.05 -22.25 2.05 -21.6 0.35 L-21.8 -0.85 Q-21.8 -3.7 -20.2 -8.2 -18.1 -14.05 -14.45 -18.45 -3.85 -31.1 15.25 -26.85 27.25 -22.45 31.2 -12.85 32.6 -9.4 33.6 -3.95 L35.25 -3.45 M28.8 4.9 L28.7 4.9 28.7 5.3 28.8 4.9 M29.2 14.7 L29.35 12.4 Q22.15 12.45 17.05 14.1 L15.65 14.7 19.5 15.15 19.7 21.15 20.0 22.65 20.05 23.25 20.4 23.35 20.7 23.7 Q28.2 23.7 29.2 14.7 M17.8 9.75 L18.7 9.9 Q19.95 9.9 19.75 9.65 L20.05 9.2 20.2 8.15 20.1 7.05 20.0 6.65 18.05 6.55 17.65 6.6 17.2 6.55 17.2 6.65 17.2 9.65 17.25 9.9 17.8 9.75 M1.2 9.05 L1.2 14.25 Q1.2 19.0 1.35 20.35 1.85 24.1 3.75 25.65 L17.7 25.65 17.7 17.4 17.5 16.95 Q11.7 18.55 10.15 14.05 9.7 12.7 9.7 8.0 L9.75 5.4 9.85 4.7 1.1 4.5 0.95 4.95 0.9 5.0 1.2 9.05" fill="#000000" fill-rule="evenodd" stroke="none"/>
      <path d="M3.8 -25.15 L0.7 -24.7 -1.55 -24.3 3.8 -25.15 M-13.85 -16.6 L-14.95 -14.45 -15.85 -13.45 Q-14.95 -15.2 -13.85 -16.6 M-18.85 -4.8 L-18.05 -5.75 -19.4 -0.35 -19.45 0.4 -19.6 -0.2 -18.85 -4.8 M-27.25 23.15 Q-22.85 20.65 -22.15 20.5 -17.7 19.5 -16.65 17.75 -16.25 17.15 -16.25 14.7 L-16.3 8.55 -16.25 2.45 Q-15.7 -7.8 -9.9 -14.5 -3.45 -21.95 7.35 -21.95 21.75 -21.95 26.55 -8.95 L28.1 -3.25 Q29.5 -2.6 32.15 -0.15 L35.3 3.0 32.05 3.05 32.05 2.6 31.35 2.75 31.0 2.85 30.95 2.9 29.6 2.85 Q4.35 2.25 -1.85 2.45 L-4.9 2.8 -4.8 3.3 -4.75 4.0 Q-5.65 5.35 -6.05 8.2 L-6.8 14.8 Q-8.0 23.1 -14.0 23.15 L-27.25 23.15 M1.2 9.05 L0.9 5.0 0.95 4.95 1.1 4.5 9.85 4.7 9.75 5.4 9.7 8.0 Q9.7 12.7 10.15 14.05 11.7 18.55 17.5 16.95 L17.7 17.4 17.7 25.65 3.75 25.65 Q1.85 24.1 1.35 20.35 1.2 19.0 1.2 14.25 L1.2 9.05" fill="#5b6171" fill-rule="evenodd" stroke="none"/>
      <path d="M29.2 14.7 Q28.2 23.7 20.7 23.7 L20.4 23.35 20.05 23.25 20.0 22.65 19.7 21.15 19.5 15.15 15.65 14.7 17.05 14.1 Q22.15 12.45 29.35 12.4 L29.2 14.7" fill="#aa8a71" fill-rule="evenodd" stroke="none"/>
      <path d="M17.65 6.6 L18.05 6.55 20.0 6.65 20.1 7.05 20.2 8.15 20.05 9.2 19.75 9.65 Q19.95 9.9 18.7 9.9 L17.8 9.75 17.2 9.65 17.2 6.65 17.65 6.6" fill="#ffffff" fill-rule="evenodd" stroke="none"/>
    </g>
    <g id="shape4" transform="matrix(1.0, 0.0, 0.0, 1.0, 12.05, 21.8)">
      <path d="M13.25 -13.55 Q13.25 -9.25 11.1 -3.95 L7.35 4.15 Q6.25 4.3 5.85 5.3 L5.2 5.1 8.15 9.4 Q12.4 15.8 12.4 17.3 12.4 18.05 10.25 19.8 6.9 22.5 0.3 24.6 L-0.45 24.9 -1.75 25.0 Q-4.4 25.0 -8.2 15.75 -11.65 7.4 -11.65 4.7 L-11.6 4.35 -12.05 4.1 -11.45 1.2 Q-10.3 -3.85 -9.15 -5.75 L-9.55 -6.1 -9.7 -5.95 -10.25 -5.7 Q-11.25 -6.9 -11.25 -7.35 -11.25 -9.65 -7.45 -13.65 -4.1 -17.2 -0.95 -18.95 7.85 -23.95 11.35 -20.15 13.25 -18.05 13.25 -13.55 M9.5 -19.15 Q4.55 -19.15 2.05 -17.9 0.45 -17.1 -4.0 -13.15 L-7.2 -9.55 -8.55 -7.55 -7.55 -6.95 -7.45 -6.95 -7.45 -6.9 -7.05 -6.55 Q-3.65 -3.2 -2.2 -2.45 2.85 0.95 5.8 3.25 L8.25 -3.3 Q11.25 -10.95 11.25 -13.45 10.5 -19.15 9.5 -19.15 M1.85 4.25 L2.25 3.65 -1.3 0.95 -7.55 -4.35 -9.25 1.35 -9.55 2.4 Q-9.15 3.7 -9.05 5.85 L-9.05 6.9 Q-9.05 8.55 -5.8 15.55 -2.45 22.8 -1.2 22.8 1.15 22.6 10.0 16.4 L2.45 5.15 1.85 4.25" fill="#000000" fill-rule="evenodd" stroke="none"/>
      <path d="M1.85 4.25 L2.45 5.15 10.0 16.4 Q1.15 22.6 -1.2 22.8 -2.45 22.8 -5.8 15.55 -9.05 8.55 -9.05 6.9 L-9.05 5.85 Q-9.15 3.7 -9.55 2.4 L-9.25 1.35 -7.55 -4.35 -1.3 0.95 2.25 3.65 1.85 4.25" fill="#aa8a71" fill-rule="evenodd" stroke="none"/>
      <path d="M9.5 -19.15 Q10.5 -19.15 11.25 -13.45 11.25 -10.95 8.25 -3.3 L5.8 3.25 Q2.85 0.95 -2.2 -2.45 -3.65 -3.2 -7.05 -6.55 L-7.45 -6.9 -7.45 -6.95 -7.55 -6.95 -8.55 -7.55 -7.2 -9.55 -4.0 -13.15 Q0.45 -17.1 2.05 -17.9 4.55 -19.15 9.5 -19.15" fill="#942403" fill-rule="evenodd" stroke="none"/>
    </g>
    <g id="shape5" transform="matrix(1.0, 0.0, 0.0, 1.0, 14.5, 74.85)">
      <path d="M-1.55 -53.25 L-1.85 -46.5 -1.85 -46.15 -2.0 -42.25 -2.05 -34.65 -1.85 -29.2 -1.8 -28.4 -1.5 -25.1 -1.5 -24.6 -1.5 -24.35 Q-1.5 -22.85 0.0 -20.6 2.1 -17.5 5.5 -17.5 L6.1 -17.55 8.0 -17.2 8.0 -18.15 8.0 -18.4 8.0 -18.5 8.0 -18.55 7.9 -20.5 7.6 -24.9 7.4 -32.7 7.4 -35.2 7.15 -40.5 7.1 -41.05 6.5 -48.2 5.55 -56.05 5.05 -58.3 Q3.15 -65.4 -1.0 -70.85 L-1.0 -68.05 Q-1.0 -65.7 -1.55 -53.25 M1.8 -70.8 L2.6 -69.45 Q3.4 -67.35 3.9 -66.6 L5.7 -63.05 Q6.85 -60.65 7.0 -59.1 8.3 -48.65 8.45 -43.85 10.2 -19.15 10.2 -13.3 L10.15 -10.7 10.25 -10.7 10.6 -11.15 Q11.25 -10.35 11.45 -8.15 L11.5 -5.2 Q11.5 -2.35 11.0 -0.45 L10.9 1.1 10.35 1.35 9.0 2.95 Q7.3 4.0 0.45 4.0 L-9.2 3.35 Q-13.4 2.35 -14.5 -0.6 L-14.5 -10.35 -14.3 -10.55 -13.65 -10.7 -13.65 -53.7 Q-12.4 -63.95 -5.85 -70.9 L-2.2 -74.6 -2.2 -74.65 -2.15 -74.65 -1.95 -74.85 -1.3 -74.65 -1.15 -74.4 Q-0.7 -74.3 -0.2 -74.0 L1.8 -70.8 M4.5 -10.75 L8.5 -10.7 Q8.0 -11.75 7.95 -13.1 L7.95 -15.2 7.0 -15.0 Q2.1 -15.0 -0.85 -18.5 L-1.15 -18.85 -1.75 -19.95 Q-2.35 -18.9 -4.2 -17.45 -6.35 -15.75 -8.0 -15.0 L-11.45 -15.0 -11.5 -15.75 -11.65 -15.7 -11.65 -14.95 -11.65 -13.5 -11.75 -10.5 -11.75 -10.4 -8.15 -10.6 -8.15 -10.45 -8.15 -10.4 Q-5.05 -10.7 4.5 -10.65 L4.55 -10.65 4.5 -10.75 M9.5 -9.0 L-12.7 -9.0 -12.8 -6.7 -1.5 -6.8 4.8 -6.75 9.4 -6.7 9.55 -7.25 9.5 -7.35 9.5 -9.0 M9.3 -3.35 L9.3 -4.95 4.4 -4.75 -1.3 -4.65 -7.0 -4.8 -12.85 -5.05 -13.0 -3.2 Q-13.1 -1.7 -12.3 -0.75 -10.05 2.05 0.45 2.05 7.3 2.05 9.45 -0.2 L9.35 -0.7 9.3 -3.35 M-3.45 -70.35 L-3.4 -70.45 -3.45 -70.4 -3.45 -70.35 -4.2 -69.45 -6.7 -66.6 -6.95 -66.65 -8.9 -63.0 -10.5 -59.45 Q-11.4 -57.15 -11.5 -55.55 L-11.55 -54.2 -11.9 -41.1 -11.9 -40.6 -11.9 -40.35 -11.9 -40.25 -11.9 -40.15 -11.8 -32.8 -11.75 -25.55 -11.75 -25.5 -11.65 -21.3 -11.65 -16.6 -11.65 -16.5 -11.5 -16.5 -9.65 -17.25 Q-7.45 -17.95 -6.3 -18.7 L-6.25 -18.95 -6.2 -18.95 -6.15 -19.25 -4.85 -20.15 Q-4.0 -20.95 -4.0 -22.25 L-4.1 -23.15 -4.0 -23.3 -4.0 -26.9 -4.0 -31.4 -4.0 -35.4 -3.95 -38.3 -3.75 -47.95 -3.5 -55.1 Q-3.4 -57.5 -3.65 -62.35 L-3.8 -64.85 -3.85 -65.15 Q-3.85 -68.1 -3.45 -70.35 M-1.7 -72.7 L-1.75 -72.65 -1.5 -72.45 -1.45 -72.45 -1.7 -72.7 M-0.8 12.65 L0.8 12.75 Q3.1 13.05 4.9 14.35 7.45 16.2 7.45 19.3 7.45 22.0 6.7 23.15 5.1 25.5 -0.15 25.5 -7.2 25.5 -8.8 22.65 -9.3 21.75 -9.25 20.6 L-9.0 19.65 Q-9.0 16.3 -6.45 14.4 -4.7 13.05 -2.35 12.75 L-0.8 12.65 M-6.4 22.15 Q-4.85 23.55 -0.35 23.55 4.35 23.55 5.5 21.5 6.05 20.45 5.7 19.65 5.7 16.95 3.0 15.6 1.15 14.75 -0.8 14.75 -5.15 14.75 -6.6 16.7 -7.3 17.65 -7.3 19.65 -7.3 21.3 -6.4 22.15" fill="#000000" fill-rule="evenodd" stroke="none"/>
      <path d="M9.3 -3.35 L9.35 -0.7 9.45 -0.2 Q7.3 2.05 0.45 2.05 -10.05 2.05 -12.3 -0.75 -13.1 -1.7 -13.0 -3.2 L-12.85 -5.05 -7.0 -4.8 -1.3 -4.65 4.4 -4.75 9.3 -4.95 9.3 -3.35 M-6.4 22.15 Q-7.3 21.3 -7.3 19.65 -7.3 17.65 -6.6 16.7 -5.15 14.75 -0.8 14.75 1.15 14.75 3.0 15.6 5.7 16.95 5.7 19.65 6.05 20.45 5.5 21.5 4.35 23.55 -0.35 23.55 -4.85 23.55 -6.4 22.15" fill="#8e6c24" fill-rule="evenodd" stroke="none"/>
      <path d="M9.5 -9.0 L9.5 -7.35 9.55 -7.25 9.4 -6.7 4.8 -6.75 -1.5 -6.8 -12.8 -6.7 -12.7 -9.0 9.5 -9.0" fill="#cc9d3c" fill-rule="evenodd" stroke="none"/>
      <path d="M-11.45 -15.0 L-11.45 -14.95 -11.2 -13.5 -11.5 -13.5 -11.65 -13.5 -11.65 -14.95 -11.45 -15.0 M4.5 -10.65 L4.5 -10.75 4.55 -10.65 4.5 -10.65 M-3.45 -70.35 L-3.45 -70.4 -3.4 -70.45 -3.45 -70.35 M-11.5 -16.5 L-11.65 -16.5 -11.65 -16.6 -11.45 -16.7 -11.5 -16.5" fill="#60606c" fill-rule="evenodd" stroke="none"/>
      <path d="M-11.65 -14.95 L-11.65 -15.7 -11.5 -15.75 -11.45 -15.0 -11.65 -14.95" fill="#a9a9b1" fill-rule="evenodd" stroke="none"/>
      <path d="M-1.55 -53.25 L3.0 -57.0 5.05 -58.3 5.55 -56.05 6.5 -48.2 5.5 -47.35 0.7 -43.8 -2.0 -41.95 -2.0 -42.25 -1.85 -46.15 -1.85 -46.5 -1.55 -53.25 M7.1 -41.05 L7.15 -40.5 7.4 -35.2 4.3 -32.75 -1.8 -28.4 -1.85 -29.2 -2.05 -34.65 0.5 -36.6 Q4.75 -39.8 7.1 -41.05 M-3.65 -62.35 Q-3.4 -57.5 -3.5 -55.1 L-3.75 -47.95 -8.0 -44.8 -11.9 -41.1 -11.55 -54.2 -8.85 -56.35 Q-5.1 -59.5 -3.65 -61.55 L-3.65 -62.35 M-3.95 -38.3 L-4.0 -35.4 -4.0 -31.4 -4.05 -31.4 -7.1 -29.5 -11.75 -25.55 -11.8 -32.8 -3.95 -38.3 M-4.0 -26.9 L-4.0 -23.3 -4.1 -23.15 -4.0 -22.25 Q-4.0 -20.95 -4.85 -20.15 L-6.15 -19.25 -6.2 -18.95 -6.25 -18.95 -6.3 -18.7 Q-7.45 -17.95 -9.65 -17.25 L-11.5 -16.5 -11.45 -16.7 -11.65 -16.6 -11.65 -21.3 -6.4 -25.1 -4.0 -26.9" fill="#a7b9be" fill-rule="evenodd" stroke="none"/>
      <path d="M-11.45 -15.0 L-8.0 -15.0 Q-6.35 -15.75 -4.2 -17.45 -2.35 -18.9 -1.75 -19.95 L-1.15 -18.85 -0.85 -18.5 Q2.1 -15.0 7.0 -15.0 L7.95 -15.2 7.95 -13.1 Q8.0 -11.75 8.5 -10.7 L4.5 -10.75 4.5 -10.65 Q-5.05 -10.7 -8.15 -10.4 L-8.15 -10.45 -8.15 -10.6 -11.75 -10.4 -11.75 -10.5 -11.65 -13.5 -11.5 -13.5 -11.2 -13.5 -11.45 -14.95 -11.45 -15.0 M-3.45 -70.35 Q-3.85 -68.1 -3.85 -65.15 L-3.8 -64.85 -3.65 -62.35 -3.65 -61.55 Q-5.1 -59.5 -8.85 -56.35 L-11.55 -54.2 -11.5 -55.55 Q-11.4 -57.15 -10.5 -59.45 L-8.9 -63.0 -6.95 -66.65 -6.7 -66.6 -4.2 -69.45 -3.45 -70.35 M-3.75 -47.95 L-3.95 -38.3 -11.8 -32.8 -11.9 -40.15 -11.9 -40.25 -11.9 -40.35 -11.9 -40.6 -11.9 -41.1 -8.0 -44.8 -3.75 -47.95 M-4.0 -31.4 L-4.0 -26.9 -6.4 -25.1 -11.65 -21.3 -11.75 -25.5 -11.75 -25.55 -7.1 -29.5 -4.05 -31.4 -4.0 -31.4" fill="#cdd7da" fill-rule="evenodd" stroke="none"/>
      <path d="M5.05 -58.3 L3.0 -57.0 -1.55 -53.25 Q-1.0 -65.7 -1.0 -68.05 L-1.0 -70.85 Q3.15 -65.4 5.05 -58.3 M-2.0 -42.25 L-2.0 -41.95 0.7 -43.8 5.5 -47.35 6.5 -48.2 7.1 -41.05 Q4.75 -39.8 0.5 -36.6 L-2.05 -34.65 -2.0 -42.25 M7.4 -35.2 L7.4 -32.7 7.6 -24.9 7.9 -20.5 8.0 -18.55 8.0 -18.5 8.0 -18.4 8.0 -18.15 8.0 -17.2 6.1 -17.55 5.5 -17.5 Q2.1 -17.5 0.0 -20.6 -1.5 -22.85 -1.5 -24.35 L-1.5 -24.6 -1.5 -25.1 -1.8 -28.4 4.3 -32.75 7.4 -35.2" fill="#8ca4aa" fill-rule="evenodd" stroke="none"/>
    </g>
    <g id="text0" transform="matrix(1.0, 0.0, 0.0, 1.0, 42.2, -2.35)">
      <g transform="matrix(1.0, 0.0, 0.0, 1.0, -44.1, 0.0)">
        <use fill="#f7cf73" height="15.6" transform="matrix(0.0166, 0.0, 0.0, 0.0166, 0.0, 16.0)" width="146.4" xlink:href="#font_Lithos_Pro_Regular_R0"/>
        <use fill="#f7cf73" height="15.6" transform="matrix(0.0166, 0.0, 0.0, 0.0166, 13.15, 16.0)" width="146.4" xlink:href="#font_Lithos_Pro_Regular_o0"/>
        <use fill="#f7cf73" height="15.6" transform="matrix(0.0166, 0.0, 0.0, 0.0166, 26.6, 16.0)" width="146.4" xlink:href="#font_Lithos_Pro_Regular_m0"/>
        <use fill="#f7cf73" height="15.6" transform="matrix(0.0166, 0.0, 0.0, 0.0166, 43.45, 16.0)" width="146.4" xlink:href="#font_Lithos_Pro_Regular_a0"/>
        <use fill="#f7cf73" height="15.6" transform="matrix(0.0166, 0.0, 0.0, 0.0166, 56.5, 16.0)" width="146.4" xlink:href="#font_Lithos_Pro_Regular_n0"/>
        <use fill="#f7cf73" height="15.6" transform="matrix(0.0166, 0.0, 0.0, 0.0166, 74.3, 16.0)" width="146.4" xlink:href="#font_Lithos_Pro_Regular_L0"/>
        <use fill="#f7cf73" height="15.6" transform="matrix(0.0166, 0.0, 0.0, 0.0166, 84.25, 16.0)" width="146.4" xlink:href="#font_Lithos_Pro_Regular_e0"/>
        <use fill="#f7cf73" height="15.6" transform="matrix(0.0166, 0.0, 0.0, 0.0166, 93.9, 16.0)" width="146.4" xlink:href="#font_Lithos_Pro_Regular_g0"/>
        <use fill="#f7cf73" height="15.6" transform="matrix(0.0166, 0.0, 0.0, 0.0166, 105.45, 16.0)" width="146.4" xlink:href="#font_Lithos_Pro_Regular_i0"/>
        <use fill="#f7cf73" height="15.6" transform="matrix(0.0166, 0.0, 0.0, 0.0166, 112.15, 16.0)" width="146.4" xlink:href="#font_Lithos_Pro_Regular_o0"/>
        <use fill="#f7cf73" height="15.6" transform="matrix(0.0166, 0.0, 0.0, 0.0166, 126.15, 16.0)" width="146.4" xlink:href="#font_Lithos_Pro_Regular_n0"/>
      </g>
    </g>
    <g id="font_Lithos_Pro_Regular_R0">
      <path d="M333.5 -584.5 L333.5 -584.5 333.5 -312.5 Q333.5 -300.0 334.0 -267.0 334.0 -233.5 334.5 -190.5 335.0 -147.0 336.0 -105.5 336.5 -64.0 337.5 -34.5 338.0 -5.5 338.5 0.0 L110.5 0.0 Q111.5 -8.5 112.5 -46.0 113.0 -83.0 113.0 -134.5 113.0 -186.0 113.0 -237.5 113.0 -289.0 112.5 -325.5 112.5 -362.5 112.5 -370.0 L112.5 -454.0 Q112.5 -464.0 112.5 -492.0 112.0 -520.0 111.5 -557.0 111.0 -594.0 110.5 -630.5 110.0 -667.0 109.0 -693.0 108.5 -719.5 107.5 -726.0 178.0 -726.0 246.5 -725.0 314.5 -724.0 375.0 -721.0 435.5 -717.5 482.0 -711.5 596.0 -697.0 655.5 -653.0 715.0 -609.5 715.5 -538.5 714.5 -476.0 679.5 -426.0 644.0 -376.0 583.5 -334.0 596.0 -320.0 626.0 -289.0 656.0 -257.5 692.0 -220.5 727.5 -183.5 757.0 -152.5 786.5 -121.5 797.5 -108.5 L610.0 32.5 Q602.5 20.0 577.5 -16.5 553.0 -53.0 520.0 -101.5 486.5 -150.5 453.5 -199.5 420.0 -248.5 394.5 -286.0 369.0 -324.0 360.0 -338.5 383.5 -351.5 410.5 -374.0 438.0 -396.5 457.5 -426.0 477.0 -455.0 478.0 -489.5 478.5 -514.0 465.0 -535.5 452.0 -556.5 420.0 -570.0 388.5 -583.5 333.5 -584.5" fill-rule="evenodd" stroke="none"/>
    </g>
    <g id="font_Lithos_Pro_Regular_o0">
      <path d="M409.5 -127.0 L409.5 -127.0 Q482.0 -127.0 524.0 -175.0 565.5 -223.5 566.5 -319.5 566.0 -403.0 531.5 -446.5 496.5 -490.5 432.5 -490.5 382.0 -490.0 347.5 -463.5 313.0 -437.5 295.5 -393.5 277.5 -350.0 277.5 -297.0 278.0 -239.5 296.0 -202.0 313.5 -164.0 343.5 -145.5 373.5 -127.0 409.5 -127.0 M399.5 14.5 L399.5 14.5 Q306.0 13.5 237.5 -12.5 169.5 -39.0 125.5 -82.5 81.5 -126.0 60.0 -178.5 39.0 -230.5 39.0 -283.5 39.0 -347.5 63.5 -409.0 88.5 -470.5 138.5 -521.0 188.5 -571.0 265.0 -601.0 341.5 -631.0 444.5 -632.0 556.5 -631.5 637.0 -595.0 718.0 -558.5 761.0 -490.0 804.5 -422.0 805.0 -325.5 805.5 -275.5 785.5 -217.0 766.0 -159.0 719.5 -106.5 673.5 -54.0 595.0 -20.5 516.5 13.5 399.5 14.5" fill-rule="evenodd" stroke="none"/>
    </g>
    <g id="font_Lithos_Pro_Regular_m0">
      <path d="M195.5 26.5 L9.0 -37.0 Q13.5 -46.5 30.0 -86.0 46.5 -125.0 70.5 -183.5 94.5 -242.0 122.5 -308.5 150.0 -375.5 177.5 -440.0 205.0 -504.5 227.5 -556.5 250.0 -608.5 264.0 -637.0 L278.5 -637.0 Q300.5 -603.5 333.0 -554.0 365.5 -505.0 400.0 -452.5 434.0 -400.5 461.5 -359.0 489.0 -317.0 500.5 -299.0 514.5 -319.5 542.5 -361.5 570.0 -403.0 603.0 -453.0 635.5 -503.0 666.0 -549.0 696.0 -595.0 715.5 -624.0 L730.0 -624.0 Q750.0 -584.0 781.0 -519.0 812.0 -454.5 847.0 -380.0 882.5 -305.5 915.0 -236.0 948.0 -166.5 971.5 -116.5 995.5 -66.5 1003.5 -51.0 L811.0 26.5 Q801.5 5.0 787.5 -30.0 773.0 -64.5 756.5 -105.0 740.0 -145.0 725.0 -182.5 710.0 -219.5 700.0 -246.5 689.5 -273.0 687.0 -280.5 682.0 -273.5 661.0 -244.0 640.0 -214.5 610.0 -173.0 580.0 -131.0 548.0 -87.5 516.0 -44.0 489.5 -9.5 L475.0 -9.5 Q447.5 -47.5 418.5 -90.0 389.0 -132.0 362.5 -171.0 336.0 -210.0 317.0 -238.0 298.5 -266.5 292.5 -276.5 288.5 -262.5 279.0 -231.5 270.0 -201.0 258.0 -162.0 245.5 -123.5 233.5 -85.0 221.0 -46.5 211.0 -16.5 201.0 13.5 195.5 26.5" fill-rule="evenodd" stroke="none"/>
    </g>
    <g id="font_Lithos_Pro_Regular_a0">
      <path d="M301.0 -222.5 L454.5 -229.5 Q434.5 -268.0 413.0 -306.5 391.5 -345.0 378.0 -373.0 361.0 -340.5 340.0 -300.0 319.5 -259.5 301.0 -222.5 M184.5 29.5 L0.0 -65.0 Q7.5 -76.5 30.5 -114.0 54.0 -152.0 88.0 -206.5 121.5 -261.5 161.0 -324.0 200.0 -387.0 239.5 -449.0 279.0 -511.5 313.5 -564.0 347.5 -616.5 371.5 -650.5 L391.0 -650.5 Q426.0 -602.0 472.5 -535.0 518.5 -467.5 568.5 -394.0 618.5 -321.0 664.0 -254.0 709.5 -187.0 742.0 -139.0 775.0 -91.0 787.5 -75.0 L599.0 28.5 Q584.5 6.5 567.0 -22.0 549.5 -50.5 535.5 -73.5 521.5 -96.5 517.0 -102.5 L243.5 -89.5 Q241.0 -84.5 230.5 -64.0 220.5 -43.5 207.5 -18.0 195.0 8.0 184.5 29.5" fill-rule="evenodd" stroke="none"/>
    </g>
    <g id="font_Lithos_Pro_Regular_n0">
      <path d="M264.0 6.0 L62.5 0.0 Q64.0 -16.0 67.0 -59.5 69.5 -103.0 73.0 -163.5 76.5 -224.0 80.5 -291.5 84.0 -359.5 88.0 -424.5 91.5 -489.5 95.0 -542.0 98.0 -594.0 100.5 -624.0 L116.5 -629.0 Q157.0 -603.0 210.5 -566.5 264.0 -530.0 321.0 -490.5 378.5 -451.0 428.5 -415.5 479.0 -380.0 512.5 -355.0 546.5 -330.5 553.0 -324.0 553.0 -338.5 553.0 -369.5 552.5 -400.0 552.5 -438.5 552.0 -477.0 552.0 -515.0 551.5 -552.5 551.5 -582.0 551.5 -611.0 552.0 -623.0 L752.5 -618.5 Q749.5 -583.5 745.5 -532.0 741.5 -480.5 737.5 -419.0 734.0 -357.5 730.5 -293.0 726.5 -229.5 723.5 -170.0 720.0 -111.0 717.5 -63.5 715.0 -16.0 714.0 13.5 L697.5 17.5 Q668.5 0.0 620.0 -33.0 571.5 -66.0 515.0 -106.0 458.5 -145.5 405.0 -184.0 352.0 -222.5 313.5 -250.5 275.5 -279.0 263.0 -289.0 263.0 -274.5 263.0 -243.5 263.0 -212.0 263.0 -173.0 263.0 -134.0 263.0 -96.0 263.5 -58.0 263.5 -30.0 263.5 -2.5 264.0 6.0" fill-rule="evenodd" stroke="none"/>
    </g>
    <g id="font_Lithos_Pro_Regular_L0">
      <path d="M106.5 -726.0 L106.5 -726.0 346.0 -726.0 Q345.5 -716.0 345.0 -677.5 344.0 -639.0 343.0 -584.0 342.0 -529.0 341.5 -471.0 341.0 -412.5 341.0 -363.0 L341.0 -176.0 Q350.5 -176.0 375.5 -176.0 400.0 -176.0 433.0 -176.5 466.5 -177.0 501.5 -177.5 537.0 -178.5 568.5 -180.0 L569.5 10.5 Q560.5 10.5 519.5 9.5 478.5 8.5 419.5 7.0 361.0 5.5 298.5 3.5 236.0 2.0 184.5 1.0 133.5 0.0 107.5 0.0 108.5 -17.0 109.0 -49.5 109.5 -82.0 110.0 -121.0 110.0 -160.5 110.5 -198.0 110.5 -235.5 110.5 -262.5 110.5 -289.5 110.5 -297.5 L110.5 -433.5 Q110.5 -439.5 110.5 -468.5 110.0 -497.5 109.5 -538.0 109.5 -578.5 109.0 -619.5 108.5 -660.0 107.5 -689.5 107.0 -719.0 106.5 -726.0" fill-rule="evenodd" stroke="none"/>
    </g>
    <g id="font_Lithos_Pro_Regular_e0">
      <path d="M519.5 -147.0 L522.5 9.5 Q510.0 9.5 468.5 8.5 427.5 7.5 371.0 6.0 315.0 5.0 257.5 3.5 200.5 2.0 156.0 1.0 112.0 0.0 94.5 0.0 95.0 -18.5 95.5 -56.0 96.0 -93.5 96.5 -136.0 96.5 -178.5 96.5 -211.0 96.5 -244.0 96.5 -253.0 L96.5 -368.5 Q96.5 -373.5 96.5 -397.5 96.0 -421.5 96.0 -455.0 95.5 -489.0 95.0 -523.5 95.0 -558.0 94.5 -584.0 94.5 -610.0 94.5 -618.5 113.0 -618.5 155.5 -620.0 198.5 -621.0 252.5 -623.0 307.0 -625.0 360.0 -627.0 413.0 -629.5 452.0 -631.0 491.5 -633.0 504.0 -634.0 L508.0 -484.5 Q494.0 -484.5 465.0 -483.5 435.5 -483.0 402.5 -482.0 369.0 -481.0 343.5 -480.0 317.5 -479.5 310.5 -479.5 L310.5 -373.5 Q318.0 -373.5 338.5 -374.0 359.0 -375.0 385.5 -376.0 412.0 -377.0 436.5 -378.5 461.5 -380.0 477.5 -381.5 L479.5 -236.5 Q469.5 -236.5 445.5 -237.0 421.5 -237.5 393.5 -238.0 365.0 -238.5 342.0 -239.0 319.0 -239.5 310.5 -239.5 L310.5 -145.0 Q320.0 -145.0 347.0 -144.5 373.5 -144.5 407.0 -144.5 441.0 -144.5 471.5 -145.0 502.0 -145.5 519.5 -147.0" fill-rule="evenodd" stroke="none"/>
    </g>
    <g id="font_Lithos_Pro_Regular_g0">
      <path d="M632.0 -198.5 L632.0 -135.0 Q632.0 -117.0 632.5 -90.5 633.0 -64.0 633.5 -40.0 634.0 -16.0 634.0 -6.0 619.5 -2.5 588.5 2.0 557.0 7.0 514.5 10.5 472.0 14.5 424.0 14.5 286.5 13.5 200.0 -22.0 113.5 -58.0 73.0 -116.5 32.5 -175.0 33.0 -244.5 32.5 -285.5 55.5 -340.5 78.0 -395.5 133.5 -452.5 188.5 -510.0 284.5 -558.5 380.5 -606.5 525.5 -634.0 L568.5 -453.5 Q518.0 -448.0 465.5 -432.5 413.5 -417.5 368.5 -393.0 323.5 -368.0 296.0 -333.5 268.5 -298.5 267.5 -253.5 268.5 -211.0 293.5 -185.5 318.0 -160.0 354.0 -149.5 389.5 -138.5 424.0 -140.0 L424.0 -205.5 Q424.0 -223.5 423.0 -243.0 422.0 -262.0 422.0 -285.5 L633.0 -285.5 Q632.0 -255.5 632.0 -236.0 632.0 -217.0 632.0 -198.5" fill-rule="evenodd" stroke="none"/>
    </g>
    <g id="font_Lithos_Pro_Regular_i0">
      <path d="M315.5 -357.5 L315.5 -263.0 Q315.5 -229.5 316.0 -188.0 316.5 -146.5 317.0 -106.5 318.0 -66.5 318.5 -37.5 319.0 -8.5 319.5 0.0 L92.5 0.0 Q93.0 -12.0 93.0 -40.0 93.5 -67.5 93.5 -103.0 94.0 -138.0 94.0 -172.5 94.5 -206.5 94.5 -231.5 94.5 -256.5 94.5 -264.0 L94.5 -358.5 Q94.5 -364.0 94.5 -389.5 94.0 -414.5 94.0 -450.5 93.5 -486.0 93.0 -522.0 93.0 -558.0 92.5 -584.5 92.5 -611.0 92.5 -618.5 L319.5 -618.5 Q319.0 -611.5 318.5 -585.5 318.0 -559.0 317.0 -521.0 316.5 -482.5 316.0 -440.0 315.5 -397.0 315.5 -357.5" fill-rule="evenodd" stroke="none"/>
    </g>
  </defs>
</svg>
