<?xml version="1.0" encoding="UTF-8" standalone="no"?>
<svg xmlns:ffdec="https://www.free-decompiler.com/flash" xmlns:xlink="http://www.w3.org/1999/xlink" ffdec:objectType="text" height="36.85px" width="178.25px" xmlns="http://www.w3.org/2000/svg">
  <g transform="matrix(1.0, 0.0, 0.0, 1.0, -111.05, -14.15)">
    <g transform="matrix(1.0, 0.0, 0.0, 1.0, 0.0, 0.0)">
      <use fill="#ffffff" height="36.85" transform="matrix(0.0508, 0.0, 0.0, 0.0508, 107.0, 50.0)" width="178.25" xlink:href="#font_Calibri_K0"/>
      <use fill="#ffffff" height="36.85" transform="matrix(0.0508, 0.0, 0.0, 0.0508, 134.0, 50.0)" width="178.25" xlink:href="#font_Calibri_I0"/>
      <use fill="#ffffff" height="36.85" transform="matrix(0.0508, 0.0, 0.0, 0.0508, 147.1, 50.0)" width="178.25" xlink:href="#font_Calibri_C0"/>
      <use fill="#ffffff" height="36.85" transform="matrix(0.0508, 0.0, 0.0, 0.0508, 174.85, 50.0)" width="178.25" xlink:href="#font_Calibri_K0"/>
      <use fill="#ffffff" height="36.85" transform="matrix(0.0508, 0.0, 0.0, 0.0508, 213.6, 50.0)" width="178.25" xlink:href="#font_Calibri_A0"/>
      <use fill="#ffffff" height="36.85" transform="matrix(0.0508, 0.0, 0.0, 0.0508, 243.7, 50.0)" width="178.25" xlink:href="#font_Calibri_S0"/>
      <use fill="#ffffff" height="36.85" transform="matrix(0.0508, 0.0, 0.0, 0.0508, 267.6, 50.0)" width="178.25" xlink:href="#font_Calibri_S0"/>
    </g>
  </g>
  <defs>
    <g id="font_Calibri_K0">
      <path d="M508.0 -14.0 L508.0 -14.0 Q508.0 -17.0 506.5 -21.5 504.5 -26.5 496.0 -39.5 L265.0 -346.5 479.5 -603.0 Q488.5 -614.5 492.0 -621.0 495.0 -627.5 495.0 -634.0 495.0 -637.5 493.5 -640.5 491.5 -643.5 487.0 -645.5 482.0 -647.5 474.0 -648.5 466.0 -650.0 453.0 -650.0 440.0 -650.0 432.0 -649.0 423.5 -648.0 418.0 -646.0 412.0 -644.5 408.0 -641.5 404.0 -638.5 401.0 -634.0 L172.0 -346.5 172.0 -634.0 Q172.0 -638.0 170.0 -641.0 168.0 -644.0 163.0 -645.5 158.0 -647.5 150.0 -648.5 141.5 -650.0 129.0 -650.0 117.0 -650.0 108.5 -648.5 100.0 -647.5 95.0 -645.5 90.0 -644.0 88.0 -641.0 86.0 -638.0 86.0 -634.0 L86.0 -13.0 Q86.0 -9.5 88.0 -6.0 90.0 -3.0 95.0 -1.0 100.0 0.5 108.5 2.0 117.0 3.0 129.0 3.0 141.5 3.0 150.0 2.0 158.0 0.5 163.0 -1.0 168.0 -3.0 170.0 -6.0 172.0 -9.5 172.0 -13.0 L172.0 -336.5 410.0 -13.0 Q413.5 -8.0 419.0 -4.0 424.5 0.0 435.5 1.5 446.5 3.0 464.0 3.0 477.5 3.0 486.0 2.0 494.5 0.5 499.5 -1.5 504.5 -3.5 506.5 -6.5 508.0 -10.0 508.0 -14.0" fill-rule="evenodd" stroke="none"/>
    </g>
    <g id="font_Calibri_I0">
      <path d="M172.0 -13.0 L172.0 -634.0 Q172.0 -638.0 170.0 -641.0 168.0 -644.0 163.0 -645.5 158.0 -647.5 150.0 -648.5 141.5 -650.0 129.0 -650.0 117.5 -650.0 109.5 -648.5 101.0 -647.5 96.0 -645.5 90.5 -644.0 88.5 -641.0 86.0 -638.0 86.0 -634.0 L86.0 -13.0 Q86.0 -9.0 88.0 -6.0 90.0 -3.0 95.0 -1.0 100.0 0.5 108.5 2.0 117.0 3.0 129.0 3.0 141.5 3.0 150.0 2.0 158.0 0.5 163.0 -1.0 168.0 -3.0 170.0 -6.0 172.0 -9.0 172.0 -13.0" fill-rule="evenodd" stroke="none"/>
    </g>
    <g id="font_Calibri_C0">
      <path d="M518.0 -91.5 L518.0 -91.5 Q518.0 -103.0 517.0 -110.5 516.5 -118.0 515.0 -122.0 513.5 -126.5 511.0 -128.0 508.5 -129.5 505.0 -129.5 497.5 -129.5 484.5 -120.0 471.5 -110.5 451.0 -98.5 430.5 -87.0 401.5 -77.5 372.5 -68.0 334.0 -68.0 288.5 -68.0 252.0 -84.0 216.0 -100.5 191.0 -132.0 166.0 -164.0 153.0 -211.0 139.5 -258.5 139.5 -320.0 139.5 -382.0 153.5 -430.0 167.0 -478.5 192.5 -512.0 217.5 -545.5 253.0 -562.5 288.5 -580.0 331.5 -580.0 371.0 -580.0 399.5 -570.0 428.0 -560.5 448.0 -548.5 467.5 -537.0 480.5 -527.0 493.0 -517.5 500.0 -517.5 504.0 -517.5 506.5 -519.5 509.5 -522.0 511.5 -526.5 513.5 -531.5 514.5 -538.5 515.5 -545.5 515.5 -555.5 515.5 -564.5 515.0 -571.0 514.0 -577.5 513.0 -582.0 511.5 -587.0 509.5 -590.5 507.5 -594.0 501.0 -600.5 494.0 -607.5 476.5 -618.0 459.0 -628.5 436.5 -636.5 414.0 -644.5 387.5 -649.5 361.0 -655.0 333.0 -655.0 269.5 -655.0 217.5 -632.0 165.0 -609.0 127.5 -565.0 90.0 -521.5 69.5 -458.5 48.5 -395.5 48.5 -315.0 48.5 -236.5 68.0 -176.0 87.0 -116.0 123.0 -75.0 158.5 -34.0 209.5 -13.0 260.0 8.0 323.0 8.0 359.5 8.0 390.5 1.5 421.0 -5.5 445.0 -15.0 468.5 -25.0 484.5 -35.0 500.5 -45.5 505.5 -50.5 510.5 -55.5 512.5 -59.0 514.5 -62.5 516.0 -67.0 517.0 -71.5 517.5 -77.5 518.0 -83.5 518.0 -91.5" fill-rule="evenodd" stroke="none"/>
    </g>
    <g id="font_Calibri_A0">
      <path d="M292.0 -561.0 L405.0 -238.5 180.0 -238.5 291.5 -561.0 292.0 -561.0 M570.5 -30.5 L353.5 -631.5 Q351.5 -637.0 348.0 -640.5 344.5 -644.5 338.0 -646.5 331.5 -648.5 321.0 -649.0 310.5 -650.0 294.5 -650.0 279.5 -650.0 270.0 -649.0 260.0 -648.5 254.0 -646.5 247.5 -644.5 244.5 -641.0 241.0 -637.5 239.0 -632.0 L22.0 -31.0 Q18.0 -20.0 18.0 -13.0 17.5 -6.5 21.5 -3.0 25.0 0.5 34.5 2.0 43.5 3.0 58.0 3.0 72.0 3.0 81.0 2.0 89.5 1.0 94.5 -1.0 99.0 -3.5 101.5 -6.5 104.0 -10.0 105.5 -14.5 L158.5 -170.0 427.5 -170.0 483.0 -12.5 Q485.0 -8.0 487.5 -5.0 489.5 -2.0 494.5 0.0 499.0 1.5 508.5 2.5 517.5 3.0 533.0 3.0 548.5 3.0 558.0 2.0 567.0 1.0 571.0 -2.5 575.0 -6.0 575.0 -12.5 574.5 -19.5 570.5 -30.5" fill-rule="evenodd" stroke="none"/>
    </g>
    <g id="font_Calibri_S0">
      <path d="M433.5 -181.5 L433.5 -181.5 Q433.5 -220.0 421.0 -248.0 408.0 -276.5 387.5 -297.0 366.5 -318.0 340.0 -333.0 313.5 -348.5 286.0 -361.0 258.5 -374.0 232.0 -386.5 205.5 -399.0 185.0 -414.0 164.0 -429.0 151.5 -448.5 139.0 -468.0 139.0 -495.0 139.0 -513.5 145.5 -530.0 152.0 -546.5 165.0 -558.5 178.0 -570.5 198.0 -577.5 218.0 -585.0 245.0 -585.0 274.0 -585.0 297.5 -577.5 320.5 -570.5 337.5 -561.5 354.5 -553.0 366.5 -546.0 378.0 -539.0 383.5 -539.0 387.0 -539.0 390.0 -541.0 392.5 -543.5 394.0 -548.0 395.5 -553.0 396.5 -560.0 397.0 -567.0 397.0 -576.0 397.0 -585.5 396.5 -591.5 396.0 -597.5 395.0 -601.5 394.0 -606.0 392.5 -608.5 391.0 -611.5 386.5 -616.0 381.5 -621.0 366.5 -628.5 351.5 -636.5 332.5 -642.5 313.0 -649.0 291.5 -652.5 269.5 -656.5 248.0 -656.5 206.0 -656.5 170.0 -645.0 133.5 -634.0 107.5 -612.5 81.0 -591.0 66.5 -559.0 51.5 -527.5 51.5 -487.0 51.5 -447.5 64.5 -419.0 77.0 -391.0 97.5 -370.0 118.0 -349.0 144.0 -333.5 170.0 -318.0 197.5 -305.0 225.0 -292.5 251.5 -280.0 277.5 -268.0 298.0 -253.0 318.5 -238.5 331.0 -219.0 343.5 -199.5 343.5 -172.0 343.5 -146.5 334.5 -126.5 325.5 -106.5 309.0 -92.5 292.0 -79.0 269.0 -71.5 245.5 -64.0 217.5 -64.0 180.5 -64.0 152.5 -72.5 124.0 -81.5 104.0 -91.5 84.0 -101.5 71.5 -110.0 58.5 -118.5 51.5 -118.5 47.5 -118.5 44.5 -116.5 41.5 -115.0 39.5 -110.5 37.5 -106.0 36.5 -98.5 35.5 -91.5 35.5 -80.5 35.5 -65.0 38.5 -55.5 41.0 -46.5 47.0 -40.5 52.5 -34.5 67.5 -26.0 82.0 -17.5 104.0 -9.5 125.5 -1.5 153.5 4.0 181.0 9.5 213.5 9.5 260.0 9.5 300.5 -3.0 340.5 -15.5 370.5 -40.0 400.0 -65.0 417.0 -100.5 433.5 -136.0 433.5 -181.5" fill-rule="evenodd" stroke="none"/>
    </g>
  </defs>
</svg>
