<?xml version="1.0" encoding="UTF-8" standalone="no"?>
<svg xmlns:ffdec="https://www.free-decompiler.com/flash" xmlns:xlink="http://www.w3.org/1999/xlink" ffdec:objectType="text" height="13.9px" width="58.0px" xmlns="http://www.w3.org/2000/svg">
  <g transform="matrix(1.0, 0.0, 0.0, 1.0, -1.45, -1.1)">
    <g transform="matrix(1.0, 0.0, 0.0, 1.0, 0.0, 0.0)">
      <use fill="#453a27" height="13.9" transform="matrix(0.0137, 0.0, 0.0, 0.0137, 0.0, 14.0)" width="58.0" xlink:href="#font_Lithos_Pro_Regular_B0"/>
      <use fill="#453a27" height="13.9" transform="matrix(0.0137, 0.0, 0.0, 0.0137, 10.2, 14.0)" width="58.0" xlink:href="#font_Lithos_Pro_Regular_O0"/>
      <use fill="#453a27" height="13.9" transform="matrix(0.0137, 0.0, 0.0, 0.0137, 22.1, 14.0)" width="58.0" xlink:href="#font_Lithos_Pro_Regular_A0"/>
      <use fill="#453a27" height="13.9" transform="matrix(0.0137, 0.0, 0.0, 0.0137, 33.95, 14.0)" width="58.0" xlink:href="#font_Lithos_Pro_Regular_R0"/>
      <use fill="#453a27" height="13.9" transform="matrix(0.0137, 0.0, 0.0, 0.0137, 44.8, 14.0)" width="58.0" xlink:href="#font_Lithos_Pro_Regular_S0"/>
    </g>
  </g>
  <defs>
    <g id="font_Lithos_Pro_Regular_B0">
      <path d="M323.5 -610.5 L323.5 -610.5 323.5 -419.0 Q346.5 -419.0 373.0 -432.0 399.5 -445.5 419.0 -471.0 438.0 -497.0 439.0 -534.0 438.0 -567.5 418.5 -584.5 399.0 -601.5 372.0 -607.0 345.5 -612.5 323.5 -610.5 M323.5 -319.5 L323.5 -319.5 323.5 -120.0 Q352.5 -120.5 385.5 -134.0 418.0 -147.5 441.0 -170.5 464.0 -194.0 465.0 -223.5 464.5 -256.5 444.0 -278.5 424.0 -300.5 391.5 -311.0 359.5 -321.0 323.5 -319.5 M110.5 -379.0 L110.5 -379.0 110.5 -492.5 Q110.5 -505.0 110.0 -538.5 110.0 -572.5 109.0 -612.5 108.5 -652.5 107.5 -684.5 106.5 -716.5 105.5 -726.0 179.0 -726.0 233.5 -725.5 288.0 -724.5 332.5 -722.0 377.5 -719.0 421.5 -713.5 501.0 -703.5 549.5 -684.0 597.5 -665.0 622.5 -641.0 647.0 -617.0 655.5 -592.0 664.0 -567.0 663.5 -545.5 664.0 -526.0 654.0 -500.5 644.0 -475.0 616.0 -447.5 588.0 -419.5 534.5 -394.5 L534.5 -388.0 Q571.0 -381.5 608.0 -363.0 644.5 -344.0 669.5 -311.5 694.5 -278.5 695.5 -229.5 695.5 -170.5 643.0 -117.0 590.0 -63.5 480.5 -29.5 371.5 5.0 202.5 6.0 L105.5 6.0 Q107.0 -12.0 108.0 -54.0 109.0 -95.5 109.5 -148.5 110.0 -201.0 110.0 -251.5 110.5 -301.5 110.5 -337.0 110.5 -372.0 110.5 -379.0" fill-rule="evenodd" stroke="none"/>
    </g>
    <g id="font_Lithos_Pro_Regular_O0">
      <path d="M447.5 -142.0 L447.5 -142.0 Q531.5 -142.5 580.5 -201.5 629.5 -261.0 631.5 -376.0 631.5 -475.5 589.5 -530.0 547.5 -584.5 473.0 -585.0 414.5 -584.0 374.0 -551.5 333.5 -519.0 312.0 -466.0 291.0 -412.5 291.0 -349.0 291.5 -280.5 313.0 -234.5 334.0 -188.5 369.5 -165.0 405.0 -142.0 447.5 -142.0 M436.0 16.5 L436.0 16.5 Q334.0 15.5 259.0 -15.0 184.5 -46.0 136.0 -97.0 88.0 -148.0 64.5 -210.0 41.0 -271.5 41.0 -334.0 41.0 -409.0 68.0 -481.5 95.5 -553.5 150.5 -613.0 205.5 -672.0 289.5 -707.5 373.0 -742.5 486.5 -743.5 608.5 -743.0 697.5 -700.0 786.0 -657.0 834.0 -576.5 882.0 -496.0 882.5 -383.0 882.5 -336.0 869.0 -282.0 855.0 -228.0 824.0 -175.0 793.0 -122.5 741.5 -79.0 689.5 -35.5 614.0 -10.0 539.0 16.0 436.0 16.5" fill-rule="evenodd" stroke="none"/>
    </g>
    <g id="font_Lithos_Pro_Regular_A0">
      <path d="M328.0 -261.5 L328.0 -261.5 501.0 -270.5 Q486.0 -300.0 470.0 -332.0 453.5 -364.0 439.0 -393.0 424.5 -422.0 415.0 -443.5 402.5 -418.5 387.5 -387.5 372.0 -356.0 356.5 -323.0 341.5 -290.5 328.0 -261.5 M194.5 32.5 L194.5 32.5 0.0 -76.0 Q8.5 -90.0 34.5 -134.5 60.5 -178.5 99.0 -243.0 137.0 -307.5 181.0 -381.5 225.5 -455.5 269.0 -528.5 313.0 -601.5 351.0 -663.5 388.5 -725.0 414.0 -765.0 L424.0 -765.0 Q461.5 -708.5 513.0 -629.0 564.5 -550.0 620.0 -463.5 676.0 -377.0 727.0 -298.5 778.0 -219.5 815.0 -163.5 852.0 -107.0 865.5 -88.5 L662.5 31.5 Q647.0 5.5 628.0 -28.0 608.5 -61.5 592.5 -89.5 576.0 -117.5 570.5 -127.0 L262.0 -110.0 Q257.5 -102.0 246.0 -77.0 234.5 -52.5 220.5 -22.5 206.5 7.5 194.5 32.5" fill-rule="evenodd" stroke="none"/>
    </g>
    <g id="font_Lithos_Pro_Regular_R0">
      <path d="M333.5 -584.5 L333.5 -584.5 333.5 -312.5 Q333.5 -300.0 334.0 -267.0 334.0 -233.5 334.5 -190.5 335.0 -147.0 336.0 -105.5 336.5 -64.0 337.5 -34.5 338.0 -5.5 338.5 0.0 L110.5 0.0 Q111.5 -8.5 112.5 -46.0 113.0 -83.0 113.0 -134.5 113.0 -186.0 113.0 -237.5 113.0 -289.0 112.5 -325.5 112.5 -362.5 112.5 -370.0 L112.5 -454.0 Q112.5 -464.0 112.5 -492.0 112.0 -520.0 111.5 -557.0 111.0 -594.0 110.5 -630.5 110.0 -667.0 109.0 -693.0 108.5 -719.5 107.5 -726.0 178.0 -726.0 246.5 -725.0 314.5 -724.0 375.0 -721.0 435.5 -717.5 482.0 -711.5 596.0 -697.0 655.5 -653.0 715.0 -609.5 715.5 -538.5 714.5 -476.0 679.5 -426.0 644.0 -376.0 583.5 -334.0 596.0 -320.0 626.0 -289.0 656.0 -257.5 692.0 -220.5 727.5 -183.5 757.0 -152.5 786.5 -121.5 797.5 -108.5 L610.0 32.5 Q602.5 20.0 577.5 -16.5 553.0 -53.0 520.0 -101.5 486.5 -150.5 453.5 -199.5 420.0 -248.5 394.5 -286.0 369.0 -324.0 360.0 -338.5 383.5 -351.5 410.5 -374.0 438.0 -396.5 457.5 -426.0 477.0 -455.0 478.0 -489.5 478.5 -514.0 465.0 -535.5 452.0 -556.5 420.0 -570.0 388.5 -583.5 333.5 -584.5" fill-rule="evenodd" stroke="none"/>
    </g>
    <g id="font_Lithos_Pro_Regular_S0">
      <path d="M95.5 18.5 L95.5 18.5 67.5 -156.5 Q118.5 -155.0 165.5 -163.5 213.0 -171.5 244.0 -188.5 274.5 -205.0 275.5 -229.5 276.0 -239.0 268.0 -248.5 260.0 -258.0 238.0 -272.0 216.0 -286.0 175.0 -309.0 142.0 -327.5 110.0 -351.5 78.5 -376.0 57.5 -408.0 36.5 -440.5 35.5 -483.5 36.0 -541.5 84.5 -597.5 133.5 -653.0 225.5 -693.0 317.5 -733.0 447.5 -745.5 L475.0 -574.5 Q379.0 -574.5 330.5 -558.5 282.5 -542.5 282.5 -511.0 282.5 -493.5 307.0 -477.5 332.0 -462.0 382.0 -438.5 410.5 -425.0 443.0 -404.0 476.0 -383.0 499.5 -351.0 523.5 -319.0 524.5 -273.5 524.5 -230.5 501.0 -185.5 477.5 -140.0 426.5 -98.5 375.5 -57.5 294.0 -26.5 212.0 4.5 95.5 18.5" fill-rule="evenodd" stroke="none"/>
    </g>
  </defs>
</svg>
