<?xml version="1.0" encoding="UTF-8" standalone="no"?>
<svg xmlns:ffdec="https://www.free-decompiler.com/flash" xmlns:xlink="http://www.w3.org/1999/xlink" ffdec:objectType="text" height="22.15px" width="61.8px" xmlns="http://www.w3.org/2000/svg">
  <g transform="matrix(1.0, 0.0, 0.0, 1.0, -99.3, 2.0)">
    <g transform="matrix(1.0, 0.0, 0.0, 1.0, 99.3, -2.0)">
      <use fill="#ffff00" height="22.15" transform="matrix(0.0137, 0.0, 0.0, 0.0137, 0.0, 14.9)" width="61.8" xlink:href="#font_Lithos_Pro_Regular_90"/>
      <use fill="#ffff00" height="22.15" transform="matrix(0.0137, 0.0, 0.0, 0.0137, 9.9, 14.9)" width="61.8" xlink:href="#font_Lithos_Pro_Regular_90"/>
      <use fill="#ffff00" height="22.15" transform="matrix(0.0137, 0.0, 0.0, 0.0137, 19.8, 14.9)" width="61.8" xlink:href="#font_Lithos_Pro_Regular_90"/>
      <use fill="#ffff00" height="22.15" transform="matrix(0.0137, 0.0, 0.0, 0.0137, 29.7, 14.9)" width="61.8" xlink:href="#font_Lithos_Pro_Regular_90"/>
      <use fill="#ffff00" height="22.15" transform="matrix(0.0137, 0.0, 0.0, 0.0137, 39.6, 14.9)" width="61.8" xlink:href="#font_Lithos_Pro_Regular_90"/>
    </g>
  </g>
  <defs>
    <g id="font_Lithos_Pro_Regular_90">
      <path d="M491.5 -486.5 L491.5 -486.5 Q490.5 -572.5 457.5 -616.0 424.0 -659.5 368.5 -659.5 328.0 -659.0 297.0 -637.5 266.5 -616.5 249.0 -582.0 232.0 -547.5 231.5 -507.0 232.5 -447.5 265.5 -409.5 298.5 -371.5 352.0 -355.5 405.5 -339.5 468.0 -345.0 477.5 -368.5 484.5 -405.5 491.5 -443.0 491.5 -486.5 M291.0 26.5 L237.5 -44.0 Q264.5 -60.5 301.5 -93.5 338.0 -126.5 375.0 -173.5 412.0 -220.0 439.5 -276.5 352.0 -273.0 284.0 -299.0 216.0 -325.5 176.5 -374.0 137.5 -423.0 136.5 -487.5 137.5 -557.0 171.0 -612.0 204.5 -667.5 258.5 -700.0 312.5 -732.0 375.0 -733.0 440.0 -732.5 488.0 -702.5 535.5 -673.0 561.5 -620.5 587.5 -568.5 588.0 -501.0 587.0 -419.5 561.0 -341.5 535.0 -263.5 491.5 -193.5 448.5 -123.5 396.0 -67.0 344.0 -11.0 291.0 26.5" fill-rule="evenodd" stroke="none"/>
    </g>
  </defs>
</svg>
