<?xml version="1.0" encoding="UTF-8" standalone="no"?>
<svg xmlns:ffdec="https://www.free-decompiler.com/flash" xmlns:xlink="http://www.w3.org/1999/xlink" ffdec:objectType="text" height="19.45px" width="342.35px" xmlns="http://www.w3.org/2000/svg">
  <g transform="matrix(1.0, 0.0, 0.0, 1.0, 2.0, 2.0)">
    <g transform="matrix(1.0, 0.0, 0.0, 1.0, -2.0, -2.0)">
      <use fill="#ebd8af" height="19.45" transform="matrix(0.0117, 0.0, 0.0, 0.0117, 0.0, 13.6)" width="342.35" xlink:href="#font_Lithos_Pro_Regular_T0"/>
      <use fill="#ebd8af" height="19.45" transform="matrix(0.0117, 0.0, 0.0, 0.0117, 7.9, 13.6)" width="342.35" xlink:href="#font_Lithos_Pro_Regular_e0"/>
      <use fill="#ebd8af" height="19.45" transform="matrix(0.0117, 0.0, 0.0, 0.0117, 14.75, 13.6)" width="342.35" xlink:href="#font_Lithos_Pro_Regular_s0"/>
      <use fill="#ebd8af" height="19.45" transform="matrix(0.0117, 0.0, 0.0, 0.0117, 20.85, 13.6)" width="342.35" xlink:href="#font_Lithos_Pro_Regular_t0"/>
      <use fill="#ebd8af" height="19.45" transform="matrix(0.0117, 0.0, 0.0, 0.0117, 28.05, 13.6)" width="342.35" xlink:href="#font_Lithos_Pro_Regular_i0"/>
      <use fill="#ebd8af" height="19.45" transform="matrix(0.0117, 0.0, 0.0, 0.0117, 32.85, 13.6)" width="342.35" xlink:href="#font_Lithos_Pro_Regular_n0"/>
      <use fill="#ebd8af" height="19.45" transform="matrix(0.0117, 0.0, 0.0, 0.0117, 42.4, 13.6)" width="342.35" xlink:href="#font_Lithos_Pro_Regular_g0"/>
      <use fill="#ebd8af" height="19.45" transform="matrix(0.0117, 0.0, 0.0, 0.0117, 50.55, 13.6)" width="342.35" xlink:href="#font_Lithos_Pro_Regular_10"/>
    </g>
  </g>
  <defs>
    <g id="font_Lithos_Pro_Regular_T0">
      <path d="M456.5 0.0 L456.5 0.0 220.0 0.0 Q220.5 -10.5 221.5 -40.0 222.0 -69.5 222.5 -110.0 222.5 -151.0 223.0 -196.5 223.0 -241.5 223.0 -284.0 L223.0 -553.0 Q204.0 -553.0 171.5 -552.0 139.0 -551.5 103.5 -550.5 67.5 -549.0 38.5 -548.5 9.5 -547.5 -3.5 -547.0 L-3.5 -726.0 Q11.5 -724.5 44.5 -723.5 77.5 -722.5 119.0 -721.5 160.5 -720.5 199.5 -719.5 239.0 -718.5 265.5 -718.0 292.5 -718.0 297.0 -718.0 L386.0 -718.0 Q392.5 -718.0 419.0 -718.0 445.5 -718.5 483.0 -719.5 520.5 -720.5 559.5 -721.5 599.0 -722.5 631.0 -723.5 663.0 -724.5 678.5 -726.0 L678.5 -547.0 Q672.0 -547.0 649.5 -548.0 626.5 -548.5 595.5 -549.5 565.0 -550.5 534.0 -551.0 503.5 -552.0 481.5 -552.5 459.0 -553.0 453.5 -553.0 L453.5 -268.0 Q453.5 -227.5 453.5 -184.5 454.0 -141.0 454.0 -102.0 454.5 -63.0 455.0 -35.5 456.0 -8.5 456.5 0.0" fill-rule="evenodd" stroke="none"/>
    </g>
    <g id="font_Lithos_Pro_Regular_e0">
      <path d="M519.5 -147.0 L522.5 9.5 Q510.0 9.5 468.5 8.5 427.5 7.5 371.0 6.0 315.0 5.0 257.5 3.5 200.5 2.0 156.0 1.0 112.0 0.0 94.5 0.0 95.0 -18.5 95.5 -56.0 96.0 -93.5 96.5 -136.0 96.5 -178.5 96.5 -211.0 96.5 -244.0 96.5 -253.0 L96.5 -368.5 Q96.5 -373.5 96.5 -397.5 96.0 -421.5 96.0 -455.0 95.5 -489.0 95.0 -523.5 95.0 -558.0 94.5 -584.0 94.5 -610.0 94.5 -618.5 113.0 -618.5 155.5 -620.0 198.5 -621.0 252.5 -623.0 307.0 -625.0 360.0 -627.0 413.0 -629.5 452.0 -631.0 491.5 -633.0 504.0 -634.0 L508.0 -484.5 Q494.0 -484.5 465.0 -483.5 435.5 -483.0 402.5 -482.0 369.0 -481.0 343.5 -480.0 317.5 -479.5 310.5 -479.5 L310.5 -373.5 Q318.0 -373.5 338.5 -374.0 359.0 -375.0 385.5 -376.0 412.0 -377.0 436.5 -378.5 461.5 -380.0 477.5 -381.5 L479.5 -236.5 Q469.5 -236.5 445.5 -237.0 421.5 -237.5 393.5 -238.0 365.0 -238.5 342.0 -239.0 319.0 -239.5 310.5 -239.5 L310.5 -145.0 Q320.0 -145.0 347.0 -144.5 373.5 -144.5 407.0 -144.5 441.0 -144.5 471.5 -145.0 502.0 -145.5 519.5 -147.0" fill-rule="evenodd" stroke="none"/>
    </g>
    <g id="font_Lithos_Pro_Regular_s0">
      <path d="M79.5 17.5 L56.0 -138.5 Q107.5 -137.0 154.0 -142.5 201.0 -148.0 231.0 -161.0 261.0 -173.5 262.0 -194.5 263.5 -208.5 243.0 -222.0 223.0 -236.0 167.0 -260.0 136.0 -273.5 105.0 -293.0 73.5 -312.5 52.0 -341.5 30.5 -370.0 29.5 -411.0 30.0 -465.5 77.5 -514.5 125.5 -563.0 214.0 -596.5 303.0 -629.5 427.0 -637.0 L451.5 -479.5 Q356.0 -480.0 308.0 -471.0 260.0 -461.5 260.0 -434.5 260.0 -418.0 284.5 -405.5 308.5 -393.0 354.0 -376.0 380.5 -366.5 413.0 -349.5 445.0 -332.5 469.5 -304.0 493.5 -276.0 494.5 -232.5 495.0 -178.0 452.0 -125.5 409.0 -72.5 317.5 -33.5 225.5 5.0 79.5 17.5" fill-rule="evenodd" stroke="none"/>
    </g>
    <g id="font_Lithos_Pro_Regular_t0">
      <path d="M421.5 0.0 L194.5 0.0 Q195.0 -12.5 195.5 -51.5 196.0 -90.5 196.0 -141.5 196.5 -192.5 196.5 -241.0 L196.5 -461.0 Q181.5 -461.0 153.5 -460.5 125.0 -459.5 93.0 -459.0 61.5 -458.0 35.0 -457.0 8.5 -456.5 -3.0 -456.0 L-3.0 -616.5 Q10.0 -615.0 40.5 -614.0 70.5 -613.0 108.5 -612.0 146.0 -611.5 181.5 -610.5 217.5 -610.0 242.0 -609.5 266.5 -609.5 270.0 -609.5 L351.0 -609.5 Q357.0 -609.5 381.0 -609.5 405.0 -610.0 439.0 -610.5 473.5 -611.5 509.0 -612.0 544.5 -613.0 574.0 -614.0 603.0 -615.0 617.0 -616.5 L617.0 -456.0 Q609.5 -456.5 580.0 -457.0 550.5 -458.0 514.5 -459.0 478.5 -459.5 451.0 -460.5 423.0 -461.0 418.5 -461.0 L418.5 -227.5 Q418.5 -181.0 419.0 -132.5 419.0 -83.5 420.0 -46.5 420.5 -10.0 421.5 0.0" fill-rule="evenodd" stroke="none"/>
    </g>
    <g id="font_Lithos_Pro_Regular_i0">
      <path d="M315.5 -357.5 L315.5 -263.0 Q315.5 -229.5 316.0 -188.0 316.5 -146.5 317.0 -106.5 318.0 -66.5 318.5 -37.5 319.0 -8.5 319.5 0.0 L92.5 0.0 Q93.0 -12.0 93.0 -40.0 93.5 -67.5 93.5 -103.0 94.0 -138.0 94.0 -172.5 94.5 -206.5 94.5 -231.5 94.5 -256.5 94.5 -264.0 L94.5 -358.5 Q94.5 -364.0 94.5 -389.5 94.0 -414.5 94.0 -450.5 93.5 -486.0 93.0 -522.0 93.0 -558.0 92.5 -584.5 92.5 -611.0 92.5 -618.5 L319.5 -618.5 Q319.0 -611.5 318.5 -585.5 318.0 -559.0 317.0 -521.0 316.5 -482.5 316.0 -440.0 315.5 -397.0 315.5 -357.5" fill-rule="evenodd" stroke="none"/>
    </g>
    <g id="font_Lithos_Pro_Regular_n0">
      <path d="M264.0 6.0 L62.5 0.0 Q64.0 -16.0 67.0 -59.5 69.5 -103.0 73.0 -163.5 76.5 -224.0 80.5 -291.5 84.0 -359.5 88.0 -424.5 91.5 -489.5 95.0 -542.0 98.0 -594.0 100.5 -624.0 L116.5 -629.0 Q157.0 -603.0 210.5 -566.5 264.0 -530.0 321.0 -490.5 378.5 -451.0 428.5 -415.5 479.0 -380.0 512.5 -355.0 546.5 -330.5 553.0 -324.0 553.0 -338.5 553.0 -369.5 552.5 -400.0 552.5 -438.5 552.0 -477.0 552.0 -515.0 551.5 -552.5 551.5 -582.0 551.5 -611.0 552.0 -623.0 L752.5 -618.5 Q749.5 -583.5 745.5 -532.0 741.5 -480.5 737.5 -419.0 734.0 -357.5 730.5 -293.0 726.5 -229.5 723.5 -170.0 720.0 -111.0 717.5 -63.5 715.0 -16.0 714.0 13.5 L697.5 17.5 Q668.5 0.0 620.0 -33.0 571.5 -66.0 515.0 -106.0 458.5 -145.5 405.0 -184.0 352.0 -222.5 313.5 -250.5 275.5 -279.0 263.0 -289.0 263.0 -274.5 263.0 -243.5 263.0 -212.0 263.0 -173.0 263.0 -134.0 263.0 -96.0 263.5 -58.0 263.5 -30.0 263.5 -2.5 264.0 6.0" fill-rule="evenodd" stroke="none"/>
    </g>
    <g id="font_Lithos_Pro_Regular_g0">
      <path d="M632.0 -198.5 L632.0 -135.0 Q632.0 -117.0 632.5 -90.5 633.0 -64.0 633.5 -40.0 634.0 -16.0 634.0 -6.0 619.5 -2.5 588.5 2.0 557.0 7.0 514.5 10.5 472.0 14.5 424.0 14.5 286.5 13.5 200.0 -22.0 113.5 -58.0 73.0 -116.5 32.5 -175.0 33.0 -244.5 32.5 -285.5 55.5 -340.5 78.0 -395.5 133.5 -452.5 188.5 -510.0 284.5 -558.5 380.5 -606.5 525.5 -634.0 L568.5 -453.5 Q518.0 -448.0 465.5 -432.5 413.5 -417.5 368.5 -393.0 323.5 -368.0 296.0 -333.5 268.5 -298.5 267.5 -253.5 268.5 -211.0 293.5 -185.5 318.0 -160.0 354.0 -149.5 389.5 -138.5 424.0 -140.0 L424.0 -205.5 Q424.0 -223.5 423.0 -243.0 422.0 -262.0 422.0 -285.5 L633.0 -285.5 Q632.0 -255.5 632.0 -236.0 632.0 -217.0 632.0 -198.5" fill-rule="evenodd" stroke="none"/>
    </g>
    <g id="font_Lithos_Pro_Regular_10">
      <path d="M573.5 0.0 L573.5 0.0 340.0 0.0 Q340.5 -14.0 341.5 -57.5 342.5 -100.5 343.0 -162.0 344.0 -223.5 344.0 -293.0 L344.0 -502.0 Q321.0 -493.0 289.0 -478.0 257.5 -463.5 230.5 -450.5 L178.0 -582.5 Q190.0 -588.5 228.5 -605.5 266.5 -623.0 321.0 -647.5 375.5 -672.5 437.0 -700.0 498.0 -728.0 556.0 -755.0 L576.5 -742.5 Q576.0 -717.0 575.0 -669.5 573.5 -622.0 572.5 -560.0 571.5 -498.0 571.5 -428.0 L571.5 -271.5 Q571.5 -160.5 571.5 -92.5 572.0 -24.0 573.5 0.0" fill-rule="evenodd" stroke="none"/>
    </g>
  </defs>
</svg>
