<?xml version="1.0" encoding="UTF-8" standalone="no"?>
<svg xmlns:ffdec="https://www.free-decompiler.com/flash" xmlns:xlink="http://www.w3.org/1999/xlink" ffdec:objectType="text" height="24.7px" width="136.95px" xmlns="http://www.w3.org/2000/svg">
  <g transform="matrix(1.0, 0.0, 0.0, 1.0, 2.0, 2.0)">
    <g transform="matrix(1.0, 0.0, 0.0, 1.0, -2.0, -2.0)">
      <use fill="#cd9e3f" height="24.7" transform="matrix(0.0156, 0.0, 0.0, 0.0156, 54.85, 17.45)" width="136.95" xlink:href="#font_Lithos_Pro_Regular_N0"/>
      <use fill="#cd9e3f" height="24.7" transform="matrix(0.0156, 0.0, 0.0, 0.0156, 68.85, 17.45)" width="136.95" xlink:href="#font_Lithos_Pro_Regular_o0"/>
    </g>
  </g>
  <defs>
    <g id="font_Lithos_Pro_Regular_N0">
      <path d="M284.5 7.5 L284.5 7.5 75.5 0.0 Q77.0 -19.0 80.0 -70.0 83.0 -121.0 86.5 -192.0 90.5 -263.5 94.5 -343.0 98.5 -422.5 103.0 -499.0 107.0 -575.0 110.5 -637.0 114.5 -698.5 117.0 -733.5 L127.0 -739.5 Q171.5 -707.0 232.5 -661.5 293.5 -616.0 359.0 -566.5 425.0 -517.5 484.0 -472.5 543.0 -428.0 584.0 -397.0 625.5 -366.0 637.0 -357.5 637.0 -375.0 637.0 -413.5 636.5 -452.0 636.0 -501.0 635.5 -549.5 635.5 -597.5 635.0 -645.0 635.0 -681.5 634.5 -718.0 635.0 -732.0 L844.0 -726.0 Q841.0 -685.5 837.0 -625.0 833.0 -564.5 828.5 -492.5 824.0 -420.0 819.0 -345.0 815.0 -270.0 811.0 -200.5 807.5 -131.0 805.0 -74.5 802.0 -18.5 800.5 15.5 L790.5 20.5 Q752.5 -4.5 692.0 -49.0 631.5 -93.5 563.0 -146.0 494.5 -198.5 432.5 -246.5 370.5 -295.0 329.5 -327.5 288.0 -360.0 282.5 -364.5 282.5 -351.0 282.5 -313.0 282.5 -275.0 283.0 -225.0 283.0 -175.5 283.5 -126.0 283.5 -76.5 284.0 -40.0 284.0 -3.5 284.5 7.5" fill-rule="evenodd" stroke="none"/>
    </g>
    <g id="font_Lithos_Pro_Regular_o0">
      <path d="M409.5 -127.0 L409.5 -127.0 Q482.0 -127.0 524.0 -175.0 565.5 -223.5 566.5 -319.5 566.0 -403.0 531.5 -446.5 496.5 -490.5 432.5 -490.5 382.0 -490.0 347.5 -463.5 313.0 -437.5 295.5 -393.5 277.5 -350.0 277.5 -297.0 278.0 -239.5 296.0 -202.0 313.5 -164.0 343.5 -145.5 373.5 -127.0 409.5 -127.0 M399.5 14.5 L399.5 14.5 Q306.0 13.5 237.5 -12.5 169.5 -39.0 125.5 -82.5 81.5 -126.0 60.0 -178.5 39.0 -230.5 39.0 -283.5 39.0 -347.5 63.5 -409.0 88.5 -470.5 138.5 -521.0 188.5 -571.0 265.0 -601.0 341.5 -631.0 444.5 -632.0 556.5 -631.5 637.0 -595.0 718.0 -558.5 761.0 -490.0 804.5 -422.0 805.0 -325.5 805.5 -275.5 785.5 -217.0 766.0 -159.0 719.5 -106.5 673.5 -54.0 595.0 -20.5 516.5 13.5 399.5 14.5" fill-rule="evenodd" stroke="none"/>
    </g>
  </defs>
</svg>
