<?xml version="1.0" encoding="UTF-8" standalone="no"?>
<svg xmlns:ffdec="https://www.free-decompiler.com/flash" xmlns:xlink="http://www.w3.org/1999/xlink" ffdec:objectType="text" height="24.7px" width="136.95px" xmlns="http://www.w3.org/2000/svg">
  <g transform="matrix(1.0, 0.0, 0.0, 1.0, 2.0, 2.0)">
    <g transform="matrix(1.0, 0.0, 0.0, 1.0, -2.0, -2.0)">
      <use fill="#cd9e3f" height="24.7" transform="matrix(0.0156, 0.0, 0.0, 0.0156, 53.55, 17.45)" width="136.95" xlink:href="#font_Lithos_Pro_Regular_Y0"/>
      <use fill="#cd9e3f" height="24.7" transform="matrix(0.0156, 0.0, 0.0, 0.0156, 66.1, 17.45)" width="136.95" xlink:href="#font_Lithos_Pro_Regular_e0"/>
      <use fill="#cd9e3f" height="24.7" transform="matrix(0.0156, 0.0, 0.0, 0.0156, 75.2, 17.45)" width="136.95" xlink:href="#font_Lithos_Pro_Regular_s0"/>
    </g>
  </g>
  <defs>
    <g id="font_Lithos_Pro_Regular_Y0">
      <path d="M511.0 0.0 L511.0 0.0 270.5 0.0 Q271.0 -9.5 271.5 -31.0 272.5 -52.0 273.5 -76.5 274.5 -101.0 275.0 -120.5 275.5 -139.5 275.5 -145.5 L275.5 -190.5 Q274.5 -290.5 237.5 -365.5 200.5 -440.5 142.5 -479.5 111.5 -500.0 81.5 -513.0 51.5 -525.5 26.5 -532.5 L105.5 -743.5 Q157.5 -727.0 208.0 -701.0 258.0 -675.0 298.0 -636.0 327.0 -608.0 352.5 -566.0 378.5 -524.5 397.5 -465.0 L405.5 -465.0 Q423.0 -516.0 452.0 -558.0 481.0 -600.0 518.0 -635.0 555.0 -670.5 603.5 -698.5 651.5 -726.5 711.0 -743.5 L775.5 -532.5 Q740.5 -525.5 698.5 -505.5 657.0 -486.0 620.5 -455.5 589.5 -430.5 563.5 -391.0 537.5 -352.0 522.0 -301.5 506.5 -251.0 506.0 -192.5 L506.0 -126.0 Q506.0 -120.0 506.5 -103.0 507.0 -86.0 507.5 -65.5 508.5 -44.5 509.5 -26.5 510.5 -8.5 511.0 0.0" fill-rule="evenodd" stroke="none"/>
    </g>
    <g id="font_Lithos_Pro_Regular_e0">
      <path d="M519.5 -147.0 L522.5 9.5 Q510.0 9.5 468.5 8.5 427.5 7.5 371.0 6.0 315.0 5.0 257.5 3.5 200.5 2.0 156.0 1.0 112.0 0.0 94.5 0.0 95.0 -18.5 95.5 -56.0 96.0 -93.5 96.5 -136.0 96.5 -178.5 96.5 -211.0 96.5 -244.0 96.5 -253.0 L96.5 -368.5 Q96.5 -373.5 96.5 -397.5 96.0 -421.5 96.0 -455.0 95.5 -489.0 95.0 -523.5 95.0 -558.0 94.5 -584.0 94.5 -610.0 94.5 -618.5 113.0 -618.5 155.5 -620.0 198.5 -621.0 252.5 -623.0 307.0 -625.0 360.0 -627.0 413.0 -629.5 452.0 -631.0 491.5 -633.0 504.0 -634.0 L508.0 -484.5 Q494.0 -484.5 465.0 -483.5 435.5 -483.0 402.5 -482.0 369.0 -481.0 343.5 -480.0 317.5 -479.5 310.5 -479.5 L310.5 -373.5 Q318.0 -373.5 338.5 -374.0 359.0 -375.0 385.5 -376.0 412.0 -377.0 436.5 -378.5 461.5 -380.0 477.5 -381.5 L479.5 -236.5 Q469.5 -236.5 445.5 -237.0 421.5 -237.5 393.5 -238.0 365.0 -238.5 342.0 -239.0 319.0 -239.5 310.5 -239.5 L310.5 -145.0 Q320.0 -145.0 347.0 -144.5 373.5 -144.5 407.0 -144.5 441.0 -144.5 471.5 -145.0 502.0 -145.5 519.5 -147.0" fill-rule="evenodd" stroke="none"/>
    </g>
    <g id="font_Lithos_Pro_Regular_s0">
      <path d="M79.5 17.5 L56.0 -138.5 Q107.5 -137.0 154.0 -142.5 201.0 -148.0 231.0 -161.0 261.0 -173.5 262.0 -194.5 263.5 -208.5 243.0 -222.0 223.0 -236.0 167.0 -260.0 136.0 -273.5 105.0 -293.0 73.5 -312.5 52.0 -341.5 30.5 -370.0 29.5 -411.0 30.0 -465.5 77.5 -514.5 125.5 -563.0 214.0 -596.5 303.0 -629.5 427.0 -637.0 L451.5 -479.5 Q356.0 -480.0 308.0 -471.0 260.0 -461.5 260.0 -434.5 260.0 -418.0 284.5 -405.5 308.5 -393.0 354.0 -376.0 380.5 -366.5 413.0 -349.5 445.0 -332.5 469.5 -304.0 493.5 -276.0 494.5 -232.5 495.0 -178.0 452.0 -125.5 409.0 -72.5 317.5 -33.5 225.5 5.0 79.5 17.5" fill-rule="evenodd" stroke="none"/>
    </g>
  </defs>
</svg>
