<?xml version="1.0" encoding="UTF-8" standalone="no"?>
<svg xmlns:ffdec="https://www.free-decompiler.com/flash" xmlns:xlink="http://www.w3.org/1999/xlink" ffdec:objectType="text" height="12.35px" width="102.7px" xmlns="http://www.w3.org/2000/svg">
  <g transform="matrix(1.0, 0.0, 0.0, 1.0, -24.25, -0.6)">
    <g transform="matrix(1.0, 0.0, 0.0, 1.0, 22.95, 0.0)">
      <use fill="#cc9d3e" height="12.35" transform="matrix(0.0117, 0.0, 0.0, 0.0117, 0.0, 12.0)" width="102.7" xlink:href="#font_Lithos_Pro_Regular_H0"/>
      <use fill="#cc9d3e" height="12.35" transform="matrix(0.0117, 0.0, 0.0, 0.0117, 12.1, 12.0)" width="102.7" xlink:href="#font_Lithos_Pro_Regular_e0"/>
      <use fill="#cc9d3e" height="12.35" transform="matrix(0.0117, 0.0, 0.0, 0.0117, 19.95, 12.0)" width="102.7" xlink:href="#font_Lithos_Pro_Regular_a0"/>
      <use fill="#cc9d3e" height="12.35" transform="matrix(0.0117, 0.0, 0.0, 0.0117, 30.2, 12.0)" width="102.7" xlink:href="#font_Lithos_Pro_Regular_l0"/>
      <use fill="#cc9d3e" height="12.35" transform="matrix(0.0117, 0.0, 0.0, 0.0117, 37.3, 12.0)" width="102.7" xlink:href="#font_Lithos_Pro_Regular_t0"/>
      <use fill="#cc9d3e" height="12.35" transform="matrix(0.0117, 0.0, 0.0, 0.0117, 45.5, 12.0)" width="102.7" xlink:href="#font_Lithos_Pro_Regular_h0"/>
      <use fill="#cc9d3e" height="12.35" transform="matrix(0.0117, 0.0, 0.0, 0.0117, 60.6, 12.0)" width="102.7" xlink:href="#font_Lithos_Pro_Regular_B0"/>
      <use fill="#cc9d3e" height="12.35" transform="matrix(0.0117, 0.0, 0.0, 0.0117, 70.25, 12.0)" width="102.7" xlink:href="#font_Lithos_Pro_Regular_A0"/>
      <use fill="#cc9d3e" height="12.35" transform="matrix(0.0117, 0.0, 0.0, 0.0117, 81.4, 12.0)" width="102.7" xlink:href="#font_Lithos_Pro_Regular_r0"/>
      <use fill="#cc9d3e" height="12.35" transform="matrix(0.0117, 0.0, 0.0, 0.0117, 90.85, 12.0)" width="102.7" xlink:href="#font_Lithos_Pro_Regular_s0"/>
    </g>
  </g>
  <defs>
    <g id="font_Lithos_Pro_Regular_H0">
      <path d="M345.0 0.0 L345.0 0.0 107.5 0.0 Q108.0 -14.5 108.5 -47.0 109.0 -80.0 109.5 -121.5 110.0 -163.0 110.0 -203.0 110.5 -243.5 110.5 -273.0 110.5 -302.5 110.5 -311.5 L110.5 -422.0 Q110.5 -428.0 110.0 -458.0 110.0 -487.5 109.5 -529.5 109.0 -571.0 108.0 -613.5 107.5 -655.5 106.5 -686.5 106.0 -717.5 105.5 -726.0 L346.0 -726.0 Q345.5 -720.0 344.5 -696.5 344.0 -673.0 343.5 -641.0 342.5 -609.0 342.0 -577.5 341.5 -545.5 341.5 -522.0 341.0 -498.5 341.0 -492.5 L341.0 -451.5 607.0 -471.0 607.0 -514.0 Q607.0 -521.5 606.5 -551.0 606.5 -581.0 606.0 -618.0 605.0 -655.5 604.5 -686.0 603.5 -716.5 603.0 -726.0 L841.5 -726.0 Q841.0 -717.5 840.5 -684.0 840.0 -650.5 839.5 -604.5 839.0 -558.5 838.5 -512.5 838.0 -466.5 838.0 -433.0 837.5 -399.5 837.5 -391.5 L837.5 -289.0 Q837.5 -284.0 837.5 -255.5 838.0 -227.0 838.5 -187.0 838.5 -147.0 839.0 -106.5 839.5 -65.5 840.5 -36.5 841.0 -7.0 841.5 0.0 L603.0 0.0 Q603.5 -14.0 604.0 -46.5 604.5 -78.5 605.5 -116.0 606.0 -153.0 606.5 -182.5 607.0 -212.0 607.0 -220.0 L607.0 -298.0 341.0 -278.5 341.0 -241.5 Q341.0 -223.5 341.5 -188.0 342.0 -152.5 342.5 -112.5 343.5 -72.5 344.0 -41.0 344.5 -10.0 345.0 0.0" fill-rule="evenodd" stroke="none"/>
    </g>
    <g id="font_Lithos_Pro_Regular_e0">
      <path d="M519.5 -147.0 L522.5 9.5 Q510.0 9.5 468.5 8.5 427.5 7.5 371.0 6.0 315.0 5.0 257.5 3.5 200.5 2.0 156.0 1.0 112.0 0.0 94.5 0.0 95.0 -18.5 95.5 -56.0 96.0 -93.5 96.5 -136.0 96.5 -178.5 96.5 -211.0 96.5 -244.0 96.5 -253.0 L96.5 -368.5 Q96.5 -373.5 96.5 -397.5 96.0 -421.5 96.0 -455.0 95.5 -489.0 95.0 -523.5 95.0 -558.0 94.5 -584.0 94.5 -610.0 94.5 -618.5 113.0 -618.5 155.5 -620.0 198.5 -621.0 252.5 -623.0 307.0 -625.0 360.0 -627.0 413.0 -629.5 452.0 -631.0 491.5 -633.0 504.0 -634.0 L508.0 -484.5 Q494.0 -484.5 465.0 -483.5 435.5 -483.0 402.5 -482.0 369.0 -481.0 343.5 -480.0 317.5 -479.5 310.5 -479.5 L310.5 -373.5 Q318.0 -373.5 338.5 -374.0 359.0 -375.0 385.5 -376.0 412.0 -377.0 436.5 -378.5 461.5 -380.0 477.5 -381.5 L479.5 -236.5 Q469.5 -236.5 445.5 -237.0 421.5 -237.5 393.5 -238.0 365.0 -238.5 342.0 -239.0 319.0 -239.5 310.5 -239.5 L310.5 -145.0 Q320.0 -145.0 347.0 -144.5 373.5 -144.5 407.0 -144.5 441.0 -144.5 471.5 -145.0 502.0 -145.5 519.5 -147.0" fill-rule="evenodd" stroke="none"/>
    </g>
    <g id="font_Lithos_Pro_Regular_a0">
      <path d="M301.0 -222.5 L454.5 -229.5 Q434.5 -268.0 413.0 -306.5 391.5 -345.0 378.0 -373.0 361.0 -340.5 340.0 -300.0 319.5 -259.5 301.0 -222.5 M184.5 29.5 L0.0 -65.0 Q7.5 -76.5 30.5 -114.0 54.0 -152.0 88.0 -206.5 121.5 -261.5 161.0 -324.0 200.0 -387.0 239.5 -449.0 279.0 -511.5 313.5 -564.0 347.5 -616.5 371.5 -650.5 L391.0 -650.5 Q426.0 -602.0 472.5 -535.0 518.5 -467.5 568.5 -394.0 618.5 -321.0 664.0 -254.0 709.5 -187.0 742.0 -139.0 775.0 -91.0 787.5 -75.0 L599.0 28.5 Q584.5 6.5 567.0 -22.0 549.5 -50.5 535.5 -73.5 521.5 -96.5 517.0 -102.5 L243.5 -89.5 Q241.0 -84.5 230.5 -64.0 220.5 -43.5 207.5 -18.0 195.0 8.0 184.5 29.5" fill-rule="evenodd" stroke="none"/>
    </g>
    <g id="font_Lithos_Pro_Regular_l0">
      <path d="M93.5 -618.5 L322.5 -618.5 Q322.0 -610.0 321.5 -577.0 320.5 -544.0 319.5 -497.0 319.0 -450.5 318.0 -401.0 317.5 -351.0 317.5 -309.0 L317.5 -156.5 Q330.0 -156.5 364.5 -156.5 399.0 -157.0 442.5 -157.5 486.0 -158.5 524.5 -160.5 L525.5 9.5 Q516.0 9.5 477.5 8.5 439.0 7.5 384.5 6.0 330.0 5.0 272.5 3.5 215.0 2.0 167.5 1.0 119.5 0.0 94.5 0.0 95.0 -18.5 95.5 -56.0 96.0 -93.5 96.5 -136.0 96.5 -178.5 96.5 -211.0 96.5 -244.0 96.5 -252.5 L96.5 -368.5 Q96.5 -373.5 96.5 -398.5 96.0 -423.0 95.5 -457.5 95.5 -492.5 95.0 -527.0 94.5 -562.0 94.0 -587.0 94.0 -612.5 93.5 -618.5" fill-rule="evenodd" stroke="none"/>
    </g>
    <g id="font_Lithos_Pro_Regular_t0">
      <path d="M421.5 0.0 L194.5 0.0 Q195.0 -12.5 195.5 -51.5 196.0 -90.5 196.0 -141.5 196.5 -192.5 196.5 -241.0 L196.5 -461.0 Q181.5 -461.0 153.5 -460.5 125.0 -459.5 93.0 -459.0 61.5 -458.0 35.0 -457.0 8.5 -456.5 -3.0 -456.0 L-3.0 -616.5 Q10.0 -615.0 40.5 -614.0 70.5 -613.0 108.5 -612.0 146.0 -611.5 181.5 -610.5 217.5 -610.0 242.0 -609.5 266.5 -609.5 270.0 -609.5 L351.0 -609.5 Q357.0 -609.5 381.0 -609.5 405.0 -610.0 439.0 -610.5 473.5 -611.5 509.0 -612.0 544.5 -613.0 574.0 -614.0 603.0 -615.0 617.0 -616.5 L617.0 -456.0 Q609.5 -456.5 580.0 -457.0 550.5 -458.0 514.5 -459.0 478.5 -459.5 451.0 -460.5 423.0 -461.0 418.5 -461.0 L418.5 -227.5 Q418.5 -181.0 419.0 -132.5 419.0 -83.5 420.0 -46.5 420.5 -10.0 421.5 0.0" fill-rule="evenodd" stroke="none"/>
    </g>
    <g id="font_Lithos_Pro_Regular_h0">
      <path d="M323.5 0.0 L96.5 0.0 Q97.0 -12.0 97.0 -40.0 97.5 -67.5 97.5 -103.0 98.0 -138.0 98.0 -172.5 98.5 -206.5 98.5 -231.5 98.5 -256.5 98.5 -264.0 L98.5 -358.0 Q98.5 -363.5 98.5 -389.0 98.0 -414.5 97.5 -450.0 97.5 -486.0 97.0 -522.0 96.0 -558.0 95.5 -584.5 95.0 -611.0 94.5 -618.5 L324.5 -618.5 Q324.0 -611.0 323.0 -582.5 322.0 -554.0 321.5 -518.0 320.5 -482.5 320.0 -454.0 319.5 -425.5 319.5 -418.5 L319.5 -388.0 544.0 -404.0 544.0 -437.0 Q544.0 -443.5 543.5 -468.5 543.5 -494.0 543.0 -526.0 542.0 -557.5 541.5 -584.0 540.5 -610.0 540.0 -618.5 L769.0 -618.5 Q768.5 -611.0 768.0 -582.5 767.5 -553.5 767.0 -514.5 766.5 -475.0 766.0 -436.0 765.5 -396.5 765.5 -368.0 765.0 -339.5 765.0 -332.5 L765.0 -245.5 Q765.0 -241.5 765.0 -217.5 765.5 -193.5 766.0 -159.0 766.0 -125.0 766.5 -90.5 767.5 -56.0 768.0 -31.0 768.5 -6.0 769.0 0.0 L540.0 0.0 Q540.5 -12.0 541.0 -39.5 541.5 -67.0 542.5 -98.5 543.0 -130.5 543.5 -155.5 544.0 -180.5 544.0 -187.5 L544.0 -247.5 319.5 -231.5 319.5 -206.0 Q319.5 -190.0 320.0 -159.5 320.5 -129.5 321.0 -95.5 322.0 -62.0 322.5 -35.0 323.0 -8.5 323.5 0.0" fill-rule="evenodd" stroke="none"/>
    </g>
    <g id="font_Lithos_Pro_Regular_B0">
      <path d="M323.5 -610.5 L323.5 -610.5 323.5 -419.0 Q346.5 -419.0 373.0 -432.0 399.5 -445.5 419.0 -471.0 438.0 -497.0 439.0 -534.0 438.0 -567.5 418.5 -584.5 399.0 -601.5 372.0 -607.0 345.5 -612.5 323.5 -610.5 M323.5 -319.5 L323.5 -319.5 323.5 -120.0 Q352.5 -120.5 385.5 -134.0 418.0 -147.5 441.0 -170.5 464.0 -194.0 465.0 -223.5 464.5 -256.5 444.0 -278.5 424.0 -300.5 391.5 -311.0 359.5 -321.0 323.5 -319.5 M110.5 -379.0 L110.5 -379.0 110.5 -492.5 Q110.5 -505.0 110.0 -538.5 110.0 -572.5 109.0 -612.5 108.5 -652.5 107.5 -684.5 106.5 -716.5 105.5 -726.0 179.0 -726.0 233.5 -725.5 288.0 -724.5 332.5 -722.0 377.5 -719.0 421.5 -713.5 501.0 -703.5 549.5 -684.0 597.5 -665.0 622.5 -641.0 647.0 -617.0 655.5 -592.0 664.0 -567.0 663.5 -545.5 664.0 -526.0 654.0 -500.5 644.0 -475.0 616.0 -447.5 588.0 -419.5 534.5 -394.5 L534.5 -388.0 Q571.0 -381.5 608.0 -363.0 644.5 -344.0 669.5 -311.5 694.5 -278.5 695.5 -229.5 695.5 -170.5 643.0 -117.0 590.0 -63.5 480.5 -29.5 371.5 5.0 202.5 6.0 L105.5 6.0 Q107.0 -12.0 108.0 -54.0 109.0 -95.5 109.5 -148.5 110.0 -201.0 110.0 -251.5 110.5 -301.5 110.5 -337.0 110.5 -372.0 110.5 -379.0" fill-rule="evenodd" stroke="none"/>
    </g>
    <g id="font_Lithos_Pro_Regular_A0">
      <path d="M328.0 -261.5 L328.0 -261.5 501.0 -270.5 Q486.0 -300.0 470.0 -332.0 453.5 -364.0 439.0 -393.0 424.5 -422.0 415.0 -443.5 402.5 -418.5 387.5 -387.5 372.0 -356.0 356.5 -323.0 341.5 -290.5 328.0 -261.5 M194.5 32.5 L194.5 32.5 0.0 -76.0 Q8.5 -90.0 34.5 -134.5 60.5 -178.5 99.0 -243.0 137.0 -307.5 181.0 -381.5 225.5 -455.5 269.0 -528.5 313.0 -601.5 351.0 -663.5 388.5 -725.0 414.0 -765.0 L424.0 -765.0 Q461.5 -708.5 513.0 -629.0 564.5 -550.0 620.0 -463.5 676.0 -377.0 727.0 -298.5 778.0 -219.5 815.0 -163.5 852.0 -107.0 865.5 -88.5 L662.5 31.5 Q647.0 5.5 628.0 -28.0 608.5 -61.5 592.5 -89.5 576.0 -117.5 570.5 -127.0 L262.0 -110.0 Q257.5 -102.0 246.0 -77.0 234.5 -52.5 220.5 -22.5 206.5 7.5 194.5 32.5" fill-rule="evenodd" stroke="none"/>
    </g>
    <g id="font_Lithos_Pro_Regular_r0">
      <path d="M311.5 -492.5 L311.5 -266.0 Q311.5 -255.5 311.5 -227.5 312.0 -199.0 312.5 -162.0 312.5 -125.5 313.0 -90.0 314.0 -54.5 314.5 -29.5 315.0 -5.0 315.5 0.0 L95.5 0.0 Q96.5 -7.0 97.5 -31.5 98.0 -56.0 98.5 -89.5 98.5 -123.0 98.5 -156.5 98.5 -190.0 98.5 -214.0 98.5 -238.5 98.5 -244.5 L98.5 -386.0 Q98.5 -394.5 98.5 -419.0 98.0 -443.0 97.5 -474.5 97.5 -506.0 97.0 -537.0 96.0 -568.0 95.5 -590.0 95.0 -612.5 94.5 -618.5 194.0 -619.0 285.0 -617.5 376.5 -616.5 444.5 -608.0 547.5 -595.0 602.0 -557.0 656.0 -519.0 656.5 -458.5 656.0 -404.5 626.0 -361.5 596.0 -319.0 539.5 -284.5 551.0 -273.0 577.0 -247.5 603.5 -222.5 634.5 -193.0 665.5 -163.0 691.5 -138.5 717.0 -113.5 727.0 -102.5 L545.0 29.5 Q537.5 19.0 516.0 -12.0 494.5 -43.0 466.0 -84.5 437.5 -126.0 409.0 -168.0 380.0 -209.5 358.0 -241.5 336.0 -273.5 328.0 -285.5 352.5 -297.5 375.5 -316.0 399.0 -334.0 414.0 -359.5 429.5 -384.5 430.0 -417.0 431.5 -448.5 405.5 -469.5 379.5 -491.0 311.5 -492.5" fill-rule="evenodd" stroke="none"/>
    </g>
    <g id="font_Lithos_Pro_Regular_s0">
      <path d="M79.5 17.5 L56.0 -138.5 Q107.5 -137.0 154.0 -142.5 201.0 -148.0 231.0 -161.0 261.0 -173.5 262.0 -194.5 263.5 -208.5 243.0 -222.0 223.0 -236.0 167.0 -260.0 136.0 -273.5 105.0 -293.0 73.5 -312.5 52.0 -341.5 30.5 -370.0 29.5 -411.0 30.0 -465.5 77.5 -514.5 125.5 -563.0 214.0 -596.5 303.0 -629.5 427.0 -637.0 L451.5 -479.5 Q356.0 -480.0 308.0 -471.0 260.0 -461.5 260.0 -434.5 260.0 -418.0 284.5 -405.5 308.5 -393.0 354.0 -376.0 380.5 -366.5 413.0 -349.5 445.0 -332.5 469.5 -304.0 493.5 -276.0 494.5 -232.5 495.0 -178.0 452.0 -125.5 409.0 -72.5 317.5 -33.5 225.5 5.0 79.5 17.5" fill-rule="evenodd" stroke="none"/>
    </g>
  </defs>
</svg>
