<?xml version="1.0" encoding="UTF-8" standalone="no"?>
<svg xmlns:ffdec="https://www.free-decompiler.com/flash" xmlns:xlink="http://www.w3.org/1999/xlink" ffdec:objectType="text" height="11.55px" width="53.25px" xmlns="http://www.w3.org/2000/svg">
  <g transform="matrix(1.0, 0.0, 0.0, 1.0, -48.9, -1.15)">
    <g transform="matrix(1.0, 0.0, 0.0, 1.0, 47.75, 0.0)">
      <use fill="#cc9d3e" height="11.55" transform="matrix(0.0117, 0.0, 0.0, 0.0117, 0.0, 12.0)" width="53.25" xlink:href="#font_Lithos_Pro_Regular_b0"/>
      <use fill="#cc9d3e" height="11.55" transform="matrix(0.0117, 0.0, 0.0, 0.0117, 9.0, 12.0)" width="53.25" xlink:href="#font_Lithos_Pro_Regular_l0"/>
      <use fill="#cc9d3e" height="11.55" transform="matrix(0.0117, 0.0, 0.0, 0.0117, 16.4, 12.0)" width="53.25" xlink:href="#font_Lithos_Pro_Regular_o0"/>
      <use fill="#cc9d3e" height="11.55" transform="matrix(0.0117, 0.0, 0.0, 0.0117, 27.3, 12.0)" width="53.25" xlink:href="#font_Lithos_Pro_Regular_o0"/>
      <use fill="#cc9d3e" height="11.55" transform="matrix(0.0117, 0.0, 0.0, 0.0117, 38.15, 12.0)" width="53.25" xlink:href="#font_Lithos_Pro_Regular_d0"/>
    </g>
  </g>
  <defs>
    <g id="font_Lithos_Pro_Regular_b0">
      <path d="M299.0 -516.0 L299.0 -360.5 Q317.5 -360.5 340.5 -369.0 363.5 -378.0 380.5 -399.0 397.5 -419.5 398.5 -454.5 397.5 -483.0 380.0 -496.5 363.0 -510.5 340.0 -514.0 317.0 -518.0 299.0 -516.0 M299.0 -267.5 L299.0 -105.5 Q328.0 -105.5 356.0 -116.5 384.0 -127.0 402.5 -146.0 421.5 -165.0 422.0 -189.5 421.0 -232.5 387.0 -251.5 353.0 -270.5 299.0 -267.5 M94.0 -322.5 L94.0 -419.0 Q94.0 -429.5 93.5 -458.0 93.5 -487.0 93.0 -521.5 92.0 -555.5 91.5 -583.0 91.0 -610.5 90.0 -618.5 160.0 -618.5 213.0 -618.0 266.0 -617.5 309.0 -615.5 352.5 -613.0 393.5 -608.0 465.5 -599.0 509.5 -582.5 553.5 -566.0 576.0 -545.5 598.5 -525.0 606.5 -504.0 614.0 -482.5 613.5 -464.0 614.0 -447.5 602.5 -423.5 591.5 -399.5 563.5 -375.5 535.5 -351.5 486.5 -335.0 L486.5 -329.5 Q523.5 -327.0 559.0 -311.0 594.5 -295.0 618.0 -266.0 641.0 -236.5 642.0 -194.5 642.5 -143.5 596.5 -98.0 551.0 -53.0 452.0 -24.5 352.5 4.0 193.5 5.0 L90.0 5.0 Q91.0 -10.5 92.0 -46.0 93.0 -81.5 93.0 -126.0 93.5 -170.5 94.0 -213.5 94.0 -256.5 94.0 -286.5 94.0 -316.5 94.0 -322.5" fill-rule="evenodd" stroke="none"/>
    </g>
    <g id="font_Lithos_Pro_Regular_l0">
      <path d="M93.5 -618.5 L322.5 -618.5 Q322.0 -610.0 321.5 -577.0 320.5 -544.0 319.5 -497.0 319.0 -450.5 318.0 -401.0 317.5 -351.0 317.5 -309.0 L317.5 -156.5 Q330.0 -156.5 364.5 -156.5 399.0 -157.0 442.5 -157.5 486.0 -158.5 524.5 -160.5 L525.5 9.5 Q516.0 9.5 477.5 8.5 439.0 7.5 384.5 6.0 330.0 5.0 272.5 3.5 215.0 2.0 167.5 1.0 119.5 0.0 94.5 0.0 95.0 -18.5 95.5 -56.0 96.0 -93.5 96.5 -136.0 96.5 -178.5 96.5 -211.0 96.5 -244.0 96.5 -252.5 L96.5 -368.5 Q96.5 -373.5 96.5 -398.5 96.0 -423.0 95.5 -457.5 95.5 -492.5 95.0 -527.0 94.5 -562.0 94.0 -587.0 94.0 -612.5 93.5 -618.5" fill-rule="evenodd" stroke="none"/>
    </g>
    <g id="font_Lithos_Pro_Regular_o0">
      <path d="M409.5 -127.0 L409.5 -127.0 Q482.0 -127.0 524.0 -175.0 565.5 -223.5 566.5 -319.5 566.0 -403.0 531.5 -446.5 496.5 -490.5 432.5 -490.5 382.0 -490.0 347.5 -463.5 313.0 -437.5 295.5 -393.5 277.5 -350.0 277.5 -297.0 278.0 -239.5 296.0 -202.0 313.5 -164.0 343.5 -145.5 373.5 -127.0 409.5 -127.0 M399.5 14.5 L399.5 14.5 Q306.0 13.5 237.5 -12.5 169.5 -39.0 125.5 -82.5 81.5 -126.0 60.0 -178.5 39.0 -230.5 39.0 -283.5 39.0 -347.5 63.5 -409.0 88.5 -470.5 138.5 -521.0 188.5 -571.0 265.0 -601.0 341.5 -631.0 444.5 -632.0 556.5 -631.5 637.0 -595.0 718.0 -558.5 761.0 -490.0 804.5 -422.0 805.0 -325.5 805.5 -275.5 785.5 -217.0 766.0 -159.0 719.5 -106.5 673.5 -54.0 595.0 -20.5 516.5 13.5 399.5 14.5" fill-rule="evenodd" stroke="none"/>
    </g>
    <g id="font_Lithos_Pro_Regular_d0">
      <path d="M313.5 -475.0 L313.5 -158.0 Q345.5 -162.0 379.5 -175.5 413.5 -189.5 442.5 -213.0 472.0 -237.0 490.5 -271.0 508.5 -305.5 509.0 -351.0 508.0 -404.5 480.0 -431.0 452.0 -458.0 407.5 -467.0 363.0 -476.0 313.5 -475.0 M96.5 -275.5 L96.5 -383.0 Q96.5 -389.0 96.5 -412.0 96.5 -435.0 96.0 -466.5 95.5 -498.5 95.0 -530.0 94.5 -562.0 94.0 -586.5 93.5 -610.5 92.5 -618.5 179.5 -618.5 244.0 -617.0 309.0 -616.0 359.0 -613.0 409.5 -609.5 451.5 -604.0 543.0 -592.0 600.0 -566.5 657.5 -540.5 688.0 -508.0 718.5 -475.5 730.0 -442.0 741.0 -409.0 740.5 -382.0 739.5 -297.5 702.0 -232.5 665.0 -168.0 600.0 -121.5 535.0 -75.5 451.5 -47.0 368.5 -18.5 276.0 -6.0 183.5 6.5 91.5 4.0 92.5 -8.5 93.0 -38.0 94.0 -67.5 94.5 -105.0 95.0 -142.0 95.5 -178.5 96.0 -214.5 96.5 -241.0 96.5 -267.5 96.5 -275.5" fill-rule="evenodd" stroke="none"/>
    </g>
  </defs>
</svg>
