<?xml version="1.0" encoding="UTF-8" standalone="no"?>
<svg xmlns:ffdec="https://www.free-decompiler.com/flash" xmlns:xlink="http://www.w3.org/1999/xlink" ffdec:objectType="text" height="36.5px" width="71.7px" xmlns="http://www.w3.org/2000/svg">
  <g transform="matrix(1.0, 0.0, 0.0, 1.0, -64.65, 2.0)">
    <g transform="matrix(1.0, 0.0, 0.0, 1.0, 64.65, -2.0)">
      <use fill="#c19c46" height="36.5" transform="matrix(0.0127, 0.0, 0.0, 0.0127, 53.3, 13.95)" width="71.7" xlink:href="#font_Lithos_Pro_Regular_50"/>
      <use fill="#c19c46" height="36.5" transform="matrix(0.0127, 0.0, 0.0, 0.0127, 62.5, 13.95)" width="71.7" xlink:href="#font_Lithos_Pro_Regular_00"/>
    </g>
    <g transform="matrix(1.0, 0.0, 0.0, 1.0, 64.65, -2.0)">
      <use fill="#c19c46" height="36.5" transform="matrix(0.0127, 0.0, 0.0, 0.0127, 50.05, 31.2)" width="71.7" xlink:href="#font_Lithos_Pro_Regular_x0"/>
    </g>
    <g transform="matrix(1.0, 0.0, 0.0, 1.0, 64.65, -2.0)">
      <use fill="#c19c46" height="36.5" transform="matrix(0.0127, 0.0, 0.0, 0.0127, 62.5, 31.2)" width="71.7" xlink:href="#font_Lithos_Pro_Regular_20"/>
    </g>
  </g>
  <defs>
    <g id="font_Lithos_Pro_Regular_50">
      <path d="M276.5 -640.0 L257.0 -529.5 Q368.5 -510.0 428.0 -474.5 488.0 -439.5 510.5 -397.0 532.5 -354.0 531.5 -311.5 530.5 -253.5 498.0 -199.5 465.5 -145.0 412.0 -100.0 359.0 -54.5 296.0 -23.0 233.0 9.0 171.0 22.5 L148.5 -57.5 Q191.0 -65.0 240.0 -84.5 289.0 -103.5 333.0 -134.0 377.0 -164.0 405.0 -204.5 433.0 -245.0 434.0 -295.0 433.0 -362.0 363.5 -404.0 294.5 -446.0 172.0 -458.0 L214.0 -714.5 Q224.0 -715.0 255.0 -716.0 285.5 -717.0 327.5 -718.5 369.5 -719.5 413.0 -721.0 456.0 -722.5 491.0 -724.0 526.0 -725.5 542.5 -727.0 L541.5 -638.0 276.5 -640.0" fill-rule="evenodd" stroke="none"/>
    </g>
    <g id="font_Lithos_Pro_Regular_00">
      <path d="M364.5 -97.5 L364.5 -97.5 Q404.0 -97.5 444.5 -114.0 485.0 -130.5 519.5 -164.0 554.0 -198.0 575.5 -249.0 596.5 -300.5 597.0 -370.0 596.5 -437.5 565.5 -494.5 534.0 -551.0 481.0 -585.5 427.5 -619.5 360.5 -620.5 293.0 -620.0 240.5 -585.5 188.0 -551.5 157.5 -491.0 127.5 -431.0 127.0 -352.5 127.0 -307.0 142.0 -262.0 157.0 -217.0 186.5 -180.0 216.5 -143.0 261.0 -120.5 305.5 -98.0 364.5 -97.5 M350.0 -17.5 L350.0 -17.5 Q291.5 -17.5 236.0 -38.5 180.5 -60.0 135.5 -102.5 91.0 -144.5 64.0 -208.5 37.5 -272.0 37.0 -357.5 37.5 -435.5 64.5 -498.5 91.5 -561.5 138.5 -606.5 185.0 -651.5 244.5 -676.0 304.0 -700.0 369.5 -700.5 461.5 -700.0 533.0 -658.0 604.5 -616.0 645.0 -540.5 686.0 -465.5 687.0 -365.5 687.0 -298.0 663.5 -236.0 640.0 -174.0 596.0 -125.0 551.5 -75.5 489.5 -47.0 427.5 -18.0 350.0 -17.5" fill-rule="evenodd" stroke="none"/>
    </g>
    <g id="font_Lithos_Pro_Regular_x0">
      <path d="M100.5 18.5 L36.0 -42.0 Q44.0 -48.5 68.5 -74.5 93.5 -100.0 126.5 -136.0 159.5 -172.0 192.5 -208.5 226.0 -245.5 251.0 -273.5 276.5 -301.5 286.0 -312.5 271.0 -329.0 241.0 -361.5 211.5 -394.0 177.0 -432.0 142.5 -469.5 113.5 -502.0 84.0 -534.0 70.0 -550.0 L137.5 -614.5 Q147.0 -602.0 170.0 -573.5 193.0 -545.0 223.0 -508.5 253.0 -471.5 284.0 -434.5 315.5 -397.5 341.0 -367.5 354.0 -381.5 385.0 -416.0 416.0 -450.5 452.5 -491.5 489.0 -533.0 519.0 -567.0 549.0 -601.0 560.0 -613.5 L622.5 -552.0 Q610.5 -540.0 576.5 -507.0 543.0 -473.5 502.5 -433.0 462.5 -393.0 430.0 -359.5 398.0 -326.5 388.0 -314.5 397.0 -304.5 421.0 -278.0 445.5 -251.5 477.5 -217.0 509.5 -182.0 542.0 -147.0 574.5 -111.5 600.0 -84.0 625.5 -56.5 637.0 -45.0 L566.5 17.5 Q558.5 8.0 534.5 -20.0 511.0 -48.0 479.5 -85.5 448.5 -122.5 417.0 -159.5 386.0 -196.5 362.5 -224.0 339.5 -251.5 332.0 -260.0 328.0 -254.5 305.5 -227.0 283.0 -199.0 250.5 -160.0 218.5 -121.0 186.0 -82.0 153.5 -43.5 130.0 -15.5 106.0 12.5 100.5 18.5" fill-rule="evenodd" stroke="none"/>
    </g>
    <g id="font_Lithos_Pro_Regular_20">
      <path d="M574.5 -79.5 L574.5 8.5 Q564.0 7.5 524.5 6.0 485.0 5.0 428.0 3.5 371.0 2.5 308.5 1.5 246.0 0.5 189.5 0.0 L73.5 0.0 71.5 -10.0 Q124.5 -45.5 186.0 -93.0 248.0 -140.5 304.5 -196.5 360.5 -253.0 396.5 -314.0 433.0 -375.0 434.0 -437.0 433.5 -490.5 406.5 -530.0 380.0 -569.0 337.0 -595.0 294.0 -621.0 245.0 -634.5 195.5 -648.0 149.5 -650.0 L168.0 -734.0 Q284.5 -719.5 366.0 -677.5 447.5 -635.5 490.5 -575.0 533.0 -515.0 533.5 -446.0 532.5 -384.0 504.5 -328.0 477.0 -272.0 434.5 -224.5 392.5 -176.5 347.5 -138.0 303.0 -100.0 268.0 -72.5 L269.0 -68.5 574.5 -79.5" fill-rule="evenodd" stroke="none"/>
    </g>
  </defs>
</svg>
