<?xml version="1.0" encoding="UTF-8" standalone="no"?>
<svg xmlns:ffdec="https://www.free-decompiler.com/flash" xmlns:xlink="http://www.w3.org/1999/xlink" ffdec:objectType="text" height="105.65px" width="424.15px" xmlns="http://www.w3.org/2000/svg">
  <g transform="matrix(1.0, 0.0, 0.0, 1.0, 135.9, -1.8)">
    <g transform="matrix(1.0, 0.0, 0.0, 1.0, -136.55, 0.0)">
      <use fill="#cc9d3c" height="105.65" transform="matrix(0.0156, 0.0, 0.0, 0.0156, 0.0, 15.0)" width="424.15" xlink:href="#font_Lithos_Pro_Regular_S0"/>
      <use fill="#cc9d3c" height="105.65" transform="matrix(0.0156, 0.0, 0.0, 0.0156, 8.75, 15.0)" width="424.15" xlink:href="#font_Lithos_Pro_Regular_o0"/>
      <use fill="#cc9d3c" height="105.65" transform="matrix(0.0156, 0.0, 0.0, 0.0156, 21.85, 15.0)" width="424.15" xlink:href="#font_Lithos_Pro_Regular_r0"/>
      <use fill="#cc9d3c" height="105.65" transform="matrix(0.0156, 0.0, 0.0, 0.0156, 33.15, 15.0)" width="424.15" xlink:href="#font_Lithos_Pro_Regular_r0"/>
      <use fill="#cc9d3c" height="105.65" transform="matrix(0.0156, 0.0, 0.0, 0.0156, 44.3, 15.0)" width="424.15" xlink:href="#font_Lithos_Pro_Regular_y0"/>
      <use fill="#cc9d3c" height="105.65" transform="matrix(0.0156, 0.0, 0.0, 0.0156, 54.4, 15.0)" width="424.15" xlink:href="#font_Lithos_Pro_Regular__0"/>
      <use fill="#cc9d3c" height="105.65" transform="matrix(0.0156, 0.0, 0.0, 0.0156, 63.35, 15.0)" width="424.15" xlink:href="#font_Lithos_Pro_Regular_r0"/>
      <use fill="#cc9d3c" height="105.65" transform="matrix(0.0156, 0.0, 0.0, 0.0156, 74.65, 15.0)" width="424.15" xlink:href="#font_Lithos_Pro_Regular_i0"/>
      <use fill="#cc9d3c" height="105.65" transform="matrix(0.0156, 0.0, 0.0, 0.0156, 80.95, 15.0)" width="424.15" xlink:href="#font_Lithos_Pro_Regular_g0"/>
      <use fill="#cc9d3c" height="105.65" transform="matrix(0.0156, 0.0, 0.0, 0.0156, 91.85, 15.0)" width="424.15" xlink:href="#font_Lithos_Pro_Regular_h0"/>
      <use fill="#cc9d3c" height="105.65" transform="matrix(0.0156, 0.0, 0.0, 0.0156, 105.35, 15.0)" width="424.15" xlink:href="#font_Lithos_Pro_Regular_t0"/>
      <use fill="#cc9d3c" height="105.65" transform="matrix(0.0156, 0.0, 0.0, 0.0156, 118.95, 15.0)" width="424.15" xlink:href="#font_Lithos_Pro_Regular_n0"/>
      <use fill="#cc9d3c" height="105.65" transform="matrix(0.0156, 0.0, 0.0, 0.0156, 131.7, 15.0)" width="424.15" xlink:href="#font_Lithos_Pro_Regular_o0"/>
      <use fill="#cc9d3c" height="105.65" transform="matrix(0.0156, 0.0, 0.0, 0.0156, 144.9, 15.0)" width="424.15" xlink:href="#font_Lithos_Pro_Regular_w0"/>
      <use fill="#cc9d3c" height="105.65" transform="matrix(0.0156, 0.0, 0.0, 0.0156, 164.4, 15.0)" width="424.15" xlink:href="#font_Lithos_Pro_Regular_S0"/>
      <use fill="#cc9d3c" height="105.65" transform="matrix(0.0156, 0.0, 0.0, 0.0156, 173.15, 15.0)" width="424.15" xlink:href="#font_Lithos_Pro_Regular_i0"/>
      <use fill="#cc9d3c" height="105.65" transform="matrix(0.0156, 0.0, 0.0, 0.0156, 179.55, 15.0)" width="424.15" xlink:href="#font_Lithos_Pro_Regular_e0"/>
      <use fill="#cc9d3c" height="105.65" transform="matrix(0.0156, 0.0, 0.0, 0.0156, 188.65, 15.0)" width="424.15" xlink:href="#font_Lithos_Pro_Regular_g0"/>
      <use fill="#cc9d3c" height="105.65" transform="matrix(0.0156, 0.0, 0.0, 0.0156, 199.55, 15.0)" width="424.15" xlink:href="#font_Lithos_Pro_Regular_i0"/>
      <use fill="#cc9d3c" height="105.65" transform="matrix(0.0156, 0.0, 0.0, 0.0156, 205.95, 15.0)" width="424.15" xlink:href="#font_Lithos_Pro_Regular_u0"/>
      <use fill="#cc9d3c" height="105.65" transform="matrix(0.0156, 0.0, 0.0, 0.0156, 218.3, 15.0)" width="424.15" xlink:href="#font_Lithos_Pro_Regular_s0"/>
      <use fill="#cc9d3c" height="105.65" transform="matrix(0.0156, 0.0, 0.0, 0.0156, 230.45, 15.0)" width="424.15" xlink:href="#font_Lithos_Pro_Regular_i0"/>
      <use fill="#cc9d3c" height="105.65" transform="matrix(0.0156, 0.0, 0.0, 0.0156, 236.85, 15.0)" width="424.15" xlink:href="#font_Lithos_Pro_Regular_s0"/>
      <use fill="#cc9d3c" height="105.65" transform="matrix(0.0156, 0.0, 0.0, 0.0156, 249.0, 15.0)" width="424.15" xlink:href="#font_Lithos_Pro_Regular_o0"/>
      <use fill="#cc9d3c" height="105.65" transform="matrix(0.0156, 0.0, 0.0, 0.0156, 262.2, 15.0)" width="424.15" xlink:href="#font_Lithos_Pro_Regular_n0"/>
      <use fill="#cc9d3c" height="105.65" transform="matrix(0.0156, 0.0, 0.0, 0.0156, 274.95, 15.0)" width="424.15" xlink:href="#font_Lithos_Pro_Regular_l0"/>
      <use fill="#cc9d3c" height="105.65" transform="matrix(0.0156, 0.0, 0.0, 0.0156, 282.45, 15.0)" width="424.15" xlink:href="#font_Lithos_Pro_Regular_y0"/>
      <use fill="#cc9d3c" height="105.65" transform="matrix(0.0156, 0.0, 0.0, 0.0156, 297.85, 15.0)" width="424.15" xlink:href="#font_Lithos_Pro_Regular_a0"/>
      <use fill="#cc9d3c" height="105.65" transform="matrix(0.0156, 0.0, 0.0, 0.0156, 309.0, 15.0)" width="424.15" xlink:href="#font_Lithos_Pro_Regular_v0"/>
      <use fill="#cc9d3c" height="105.65" transform="matrix(0.0156, 0.0, 0.0, 0.0156, 319.6, 15.0)" width="424.15" xlink:href="#font_Lithos_Pro_Regular_a0"/>
      <use fill="#cc9d3c" height="105.65" transform="matrix(0.0156, 0.0, 0.0, 0.0156, 331.9, 15.0)" width="424.15" xlink:href="#font_Lithos_Pro_Regular_i0"/>
      <use fill="#cc9d3c" height="105.65" transform="matrix(0.0156, 0.0, 0.0, 0.0156, 338.3, 15.0)" width="424.15" xlink:href="#font_Lithos_Pro_Regular_l0"/>
      <use fill="#cc9d3c" height="105.65" transform="matrix(0.0156, 0.0, 0.0, 0.0156, 346.8, 15.0)" width="424.15" xlink:href="#font_Lithos_Pro_Regular_a0"/>
      <use fill="#cc9d3c" height="105.65" transform="matrix(0.0156, 0.0, 0.0, 0.0156, 359.1, 15.0)" width="424.15" xlink:href="#font_Lithos_Pro_Regular_b0"/>
      <use fill="#cc9d3c" height="105.65" transform="matrix(0.0156, 0.0, 0.0, 0.0156, 369.8, 15.0)" width="424.15" xlink:href="#font_Lithos_Pro_Regular_l0"/>
      <use fill="#cc9d3c" height="105.65" transform="matrix(0.0156, 0.0, 0.0, 0.0156, 378.3, 15.0)" width="424.15" xlink:href="#font_Lithos_Pro_Regular_e0"/>
      <use fill="#cc9d3c" height="105.65" transform="matrix(0.0156, 0.0, 0.0, 0.0156, 395.4, 15.0)" width="424.15" xlink:href="#font_Lithos_Pro_Regular_a0"/>
      <use fill="#cc9d3c" height="105.65" transform="matrix(0.0156, 0.0, 0.0, 0.0156, 407.1, 15.0)" width="424.15" xlink:href="#font_Lithos_Pro_Regular_t0"/>
    </g>
    <g transform="matrix(1.0, 0.0, 0.0, 1.0, -136.55, 0.0)">
      <use fill="#cc9d3c" height="105.65" transform="matrix(0.0156, 0.0, 0.0, 0.0156, 138.0, 38.0)" width="424.15" xlink:href="#font_Lithos_Pro_Regular_M0"/>
      <use fill="#cc9d3c" height="105.65" transform="matrix(0.0156, 0.0, 0.0, 0.0156, 155.4, 38.0)" width="424.15" xlink:href="#font_Lithos_Pro_Regular_a0"/>
      <use fill="#cc9d3c" height="105.65" transform="matrix(0.0156, 0.0, 0.0, 0.0156, 167.6, 38.0)" width="424.15" xlink:href="#font_Lithos_Pro_Regular_x0"/>
      <use fill="#cc9d3c" height="105.65" transform="matrix(0.0156, 0.0, 0.0, 0.0156, 179.15, 38.0)" width="424.15" xlink:href="#font_Lithos_Pro_Regular_g0"/>
      <use fill="#cc9d3c" height="105.65" transform="matrix(0.0156, 0.0, 0.0, 0.0156, 190.05, 38.0)" width="424.15" xlink:href="#font_Lithos_Pro_Regular_a0"/>
      <use fill="#cc9d3c" height="105.65" transform="matrix(0.0156, 0.0, 0.0, 0.0156, 202.35, 38.0)" width="424.15" xlink:href="#font_Lithos_Pro_Regular_m0"/>
      <use fill="#cc9d3c" height="105.65" transform="matrix(0.0156, 0.0, 0.0, 0.0156, 218.2, 38.0)" width="424.15" xlink:href="#font_Lithos_Pro_Regular_e0"/>
      <use fill="#cc9d3c" height="105.65" transform="matrix(0.0156, 0.0, 0.0, 0.0156, 227.3, 38.0)" width="424.15" xlink:href="#font_Lithos_Pro_Regular_s0"/>
      <use fill="#cc9d3c" height="105.65" transform="matrix(0.0156, 0.0, 0.0, 0.0156, 235.45, 38.0)" width="424.15" xlink:href="#font_Lithos_Pro_Regular_.0"/>
      <use fill="#cc9d3c" height="105.65" transform="matrix(0.0156, 0.0, 0.0, 0.0156, 240.4, 38.0)" width="424.15" xlink:href="#font_Lithos_Pro_Regular_c0"/>
      <use fill="#cc9d3c" height="105.65" transform="matrix(0.0156, 0.0, 0.0, 0.0156, 249.7, 38.0)" width="424.15" xlink:href="#font_Lithos_Pro_Regular_o0"/>
      <use fill="#cc9d3c" height="105.65" transform="matrix(0.0156, 0.0, 0.0, 0.0156, 262.4, 38.0)" width="424.15" xlink:href="#font_Lithos_Pro_Regular_m0"/>
    </g>
    <g transform="matrix(1.0, 0.0, 0.0, 1.0, -136.55, 0.0)">
      <use fill="#cc9d3c" height="105.65" transform="matrix(0.0156, 0.0, 0.0, 0.0156, 11.0, 83.0)" width="424.15" xlink:href="#font_Lithos_Pro_Regular_S0"/>
      <use fill="#cc9d3c" height="105.65" transform="matrix(0.0156, 0.0, 0.0, 0.0156, 19.75, 83.0)" width="424.15" xlink:href="#font_Lithos_Pro_Regular_i0"/>
      <use fill="#cc9d3c" height="105.65" transform="matrix(0.0156, 0.0, 0.0, 0.0156, 26.15, 83.0)" width="424.15" xlink:href="#font_Lithos_Pro_Regular_e0"/>
      <use fill="#cc9d3c" height="105.65" transform="matrix(0.0156, 0.0, 0.0, 0.0156, 35.25, 83.0)" width="424.15" xlink:href="#font_Lithos_Pro_Regular_g0"/>
      <use fill="#cc9d3c" height="105.65" transform="matrix(0.0156, 0.0, 0.0, 0.0156, 46.15, 83.0)" width="424.15" xlink:href="#font_Lithos_Pro_Regular_i0"/>
      <use fill="#cc9d3c" height="105.65" transform="matrix(0.0156, 0.0, 0.0, 0.0156, 52.55, 83.0)" width="424.15" xlink:href="#font_Lithos_Pro_Regular_u0"/>
      <use fill="#cc9d3c" height="105.65" transform="matrix(0.0156, 0.0, 0.0, 0.0156, 64.9, 83.0)" width="424.15" xlink:href="#font_Lithos_Pro_Regular_s0"/>
      <use fill="#cc9d3c" height="105.65" transform="matrix(0.0156, 0.0, 0.0, 0.0156, 77.05, 83.0)" width="424.15" xlink:href="#font_Lithos_Pro_Regular_w0"/>
      <use fill="#cc9d3c" height="105.65" transform="matrix(0.0156, 0.0, 0.0, 0.0156, 92.55, 83.0)" width="424.15" xlink:href="#font_Lithos_Pro_Regular_i0"/>
      <use fill="#cc9d3c" height="105.65" transform="matrix(0.0156, 0.0, 0.0, 0.0156, 98.95, 83.0)" width="424.15" xlink:href="#font_Lithos_Pro_Regular_l0"/>
      <use fill="#cc9d3c" height="105.65" transform="matrix(0.0156, 0.0, 0.0, 0.0156, 107.45, 83.0)" width="424.15" xlink:href="#font_Lithos_Pro_Regular_l0"/>
      <use fill="#cc9d3c" height="105.65" transform="matrix(0.0156, 0.0, 0.0, 0.0156, 119.95, 83.0)" width="424.15" xlink:href="#font_Lithos_Pro_Regular_b0"/>
      <use fill="#cc9d3c" height="105.65" transform="matrix(0.0156, 0.0, 0.0, 0.0156, 130.65, 83.0)" width="424.15" xlink:href="#font_Lithos_Pro_Regular_e0"/>
      <use fill="#cc9d3c" height="105.65" transform="matrix(0.0156, 0.0, 0.0, 0.0156, 143.75, 83.0)" width="424.15" xlink:href="#font_Lithos_Pro_Regular_a0"/>
      <use fill="#cc9d3c" height="105.65" transform="matrix(0.0156, 0.0, 0.0, 0.0156, 154.9, 83.0)" width="424.15" xlink:href="#font_Lithos_Pro_Regular_v0"/>
      <use fill="#cc9d3c" height="105.65" transform="matrix(0.0156, 0.0, 0.0, 0.0156, 165.5, 83.0)" width="424.15" xlink:href="#font_Lithos_Pro_Regular_a0"/>
      <use fill="#cc9d3c" height="105.65" transform="matrix(0.0156, 0.0, 0.0, 0.0156, 177.8, 83.0)" width="424.15" xlink:href="#font_Lithos_Pro_Regular_i0"/>
      <use fill="#cc9d3c" height="105.65" transform="matrix(0.0156, 0.0, 0.0, 0.0156, 184.2, 83.0)" width="424.15" xlink:href="#font_Lithos_Pro_Regular_l0"/>
      <use fill="#cc9d3c" height="105.65" transform="matrix(0.0156, 0.0, 0.0, 0.0156, 192.7, 83.0)" width="424.15" xlink:href="#font_Lithos_Pro_Regular_a0"/>
      <use fill="#cc9d3c" height="105.65" transform="matrix(0.0156, 0.0, 0.0, 0.0156, 205.0, 83.0)" width="424.15" xlink:href="#font_Lithos_Pro_Regular_b0"/>
      <use fill="#cc9d3c" height="105.65" transform="matrix(0.0156, 0.0, 0.0, 0.0156, 215.7, 83.0)" width="424.15" xlink:href="#font_Lithos_Pro_Regular_l0"/>
      <use fill="#cc9d3c" height="105.65" transform="matrix(0.0156, 0.0, 0.0, 0.0156, 224.2, 83.0)" width="424.15" xlink:href="#font_Lithos_Pro_Regular_e0"/>
      <use fill="#cc9d3c" height="105.65" transform="matrix(0.0156, 0.0, 0.0, 0.0156, 237.3, 83.0)" width="424.15" xlink:href="#font_Lithos_Pro_Regular_f0"/>
      <use fill="#cc9d3c" height="105.65" transform="matrix(0.0156, 0.0, 0.0, 0.0156, 246.1, 83.0)" width="424.15" xlink:href="#font_Lithos_Pro_Regular_o0"/>
      <use fill="#cc9d3c" height="105.65" transform="matrix(0.0156, 0.0, 0.0, 0.0156, 259.2, 83.0)" width="424.15" xlink:href="#font_Lithos_Pro_Regular_r0"/>
      <use fill="#cc9d3c" height="105.65" transform="matrix(0.0156, 0.0, 0.0, 0.0156, 274.5, 83.0)" width="424.15" xlink:href="#font_Lithos_Pro_Regular_h0"/>
      <use fill="#cc9d3c" height="105.65" transform="matrix(0.0156, 0.0, 0.0, 0.0156, 287.9, 83.0)" width="424.15" xlink:href="#font_Lithos_Pro_Regular_o0"/>
      <use fill="#cc9d3c" height="105.65" transform="matrix(0.0156, 0.0, 0.0, 0.0156, 301.1, 83.0)" width="424.15" xlink:href="#font_Lithos_Pro_Regular_s0"/>
      <use fill="#cc9d3c" height="105.65" transform="matrix(0.0156, 0.0, 0.0, 0.0156, 309.25, 83.0)" width="424.15" xlink:href="#font_Lithos_Pro_Regular_t0"/>
      <use fill="#cc9d3c" height="105.65" transform="matrix(0.0156, 0.0, 0.0, 0.0156, 318.85, 83.0)" width="424.15" xlink:href="#font_Lithos_Pro_Regular_i0"/>
      <use fill="#cc9d3c" height="105.65" transform="matrix(0.0156, 0.0, 0.0, 0.0156, 325.25, 83.0)" width="424.15" xlink:href="#font_Lithos_Pro_Regular_n0"/>
      <use fill="#cc9d3c" height="105.65" transform="matrix(0.0156, 0.0, 0.0, 0.0156, 338.0, 83.0)" width="424.15" xlink:href="#font_Lithos_Pro_Regular_g0"/>
      <use fill="#cc9d3c" height="105.65" transform="matrix(0.0156, 0.0, 0.0, 0.0156, 352.9, 83.0)" width="424.15" xlink:href="#font_Lithos_Pro_Regular_s0"/>
      <use fill="#cc9d3c" height="105.65" transform="matrix(0.0156, 0.0, 0.0, 0.0156, 361.05, 83.0)" width="424.15" xlink:href="#font_Lithos_Pro_Regular_o0"/>
      <use fill="#cc9d3c" height="105.65" transform="matrix(0.0156, 0.0, 0.0, 0.0156, 374.25, 83.0)" width="424.15" xlink:href="#font_Lithos_Pro_Regular_o0"/>
      <use fill="#cc9d3c" height="105.65" transform="matrix(0.0156, 0.0, 0.0, 0.0156, 387.45, 83.0)" width="424.15" xlink:href="#font_Lithos_Pro_Regular_n0"/>
      <use fill="#cc9d3c" height="105.65" transform="matrix(0.0156, 0.0, 0.0, 0.0156, 400.2, 83.0)" width="424.15" xlink:href="#font_Lithos_Pro_Regular__0"/>
    </g>
    <g transform="matrix(1.0, 0.0, 0.0, 1.0, -136.55, 0.0)">
      <use fill="#cc9d3c" height="105.65" transform="matrix(0.0156, 0.0, 0.0, 0.0156, 61.0, 106.0)" width="424.15" xlink:href="#font_Lithos_Pro_Regular_c0"/>
      <use fill="#cc9d3c" height="105.65" transform="matrix(0.0156, 0.0, 0.0, 0.0156, 70.45, 106.0)" width="424.15" xlink:href="#font_Lithos_Pro_Regular_h0"/>
      <use fill="#cc9d3c" height="105.65" transform="matrix(0.0156, 0.0, 0.0, 0.0156, 83.95, 106.0)" width="424.15" xlink:href="#font_Lithos_Pro_Regular_e0"/>
      <use fill="#cc9d3c" height="105.65" transform="matrix(0.0156, 0.0, 0.0, 0.0156, 93.05, 106.0)" width="424.15" xlink:href="#font_Lithos_Pro_Regular_c0"/>
      <use fill="#cc9d3c" height="105.65" transform="matrix(0.0156, 0.0, 0.0, 0.0156, 102.5, 106.0)" width="424.15" xlink:href="#font_Lithos_Pro_Regular_k0"/>
    </g>
    <g transform="matrix(1.0, 0.0, 0.0, 1.0, -136.55, 0.0)">
      <use fill="#ffcc00" height="105.65" transform="matrix(0.0156, 0.0, 0.0, 0.0156, 118.15, 106.0)" width="424.15" xlink:href="#font_Lithos_Pro_Regular_m0"/>
      <use fill="#ffcc00" height="105.65" transform="matrix(0.0156, 0.0, 0.0, 0.0156, 134.0, 106.0)" width="424.15" xlink:href="#font_Lithos_Pro_Regular_a0"/>
      <use fill="#ffcc00" height="105.65" transform="matrix(0.0156, 0.0, 0.0, 0.0156, 146.2, 106.0)" width="424.15" xlink:href="#font_Lithos_Pro_Regular_x0"/>
      <use fill="#ffcc00" height="105.65" transform="matrix(0.0156, 0.0, 0.0, 0.0156, 157.75, 106.0)" width="424.15" xlink:href="#font_Lithos_Pro_Regular_g0"/>
      <use fill="#ffcc00" height="105.65" transform="matrix(0.0156, 0.0, 0.0, 0.0156, 168.65, 106.0)" width="424.15" xlink:href="#font_Lithos_Pro_Regular_a0"/>
      <use fill="#ffcc00" height="105.65" transform="matrix(0.0156, 0.0, 0.0, 0.0156, 180.95, 106.0)" width="424.15" xlink:href="#font_Lithos_Pro_Regular_m0"/>
      <use fill="#ffcc00" height="105.65" transform="matrix(0.0156, 0.0, 0.0, 0.0156, 196.8, 106.0)" width="424.15" xlink:href="#font_Lithos_Pro_Regular_e0"/>
      <use fill="#ffcc00" height="105.65" transform="matrix(0.0156, 0.0, 0.0, 0.0156, 205.9, 106.0)" width="424.15" xlink:href="#font_Lithos_Pro_Regular_s0"/>
      <use fill="#ffcc00" height="105.65" transform="matrix(0.0156, 0.0, 0.0, 0.0156, 214.05, 106.0)" width="424.15" xlink:href="#font_Lithos_Pro_Regular_.0"/>
      <use fill="#ffcc00" height="105.65" transform="matrix(0.0156, 0.0, 0.0, 0.0156, 219.0, 106.0)" width="424.15" xlink:href="#font_Lithos_Pro_Regular_c0"/>
      <use fill="#ffcc00" height="105.65" transform="matrix(0.0156, 0.0, 0.0, 0.0156, 228.3, 106.0)" width="424.15" xlink:href="#font_Lithos_Pro_Regular_o0"/>
      <use fill="#ffcc00" height="105.65" transform="matrix(0.0156, 0.0, 0.0, 0.0156, 241.0, 106.0)" width="424.15" xlink:href="#font_Lithos_Pro_Regular_m0"/>
    </g>
    <g transform="matrix(1.0, 0.0, 0.0, 1.0, -136.55, 0.0)">
      <use fill="#cc9d3c" height="105.65" transform="matrix(0.0156, 0.0, 0.0, 0.0156, 260.85, 106.0)" width="424.15" xlink:href="#font_Lithos_Pro_Regular_m0"/>
      <use fill="#cc9d3c" height="105.65" transform="matrix(0.0156, 0.0, 0.0, 0.0156, 276.7, 106.0)" width="424.15" xlink:href="#font_Lithos_Pro_Regular_o0"/>
      <use fill="#cc9d3c" height="105.65" transform="matrix(0.0156, 0.0, 0.0, 0.0156, 289.8, 106.0)" width="424.15" xlink:href="#font_Lithos_Pro_Regular_r0"/>
      <use fill="#cc9d3c" height="105.65" transform="matrix(0.0156, 0.0, 0.0, 0.0156, 301.1, 106.0)" width="424.15" xlink:href="#font_Lithos_Pro_Regular_e0"/>
      <use fill="#cc9d3c" height="105.65" transform="matrix(0.0156, 0.0, 0.0, 0.0156, 314.2, 106.0)" width="424.15" xlink:href="#font_Lithos_Pro_Regular_i0"/>
      <use fill="#cc9d3c" height="105.65" transform="matrix(0.0156, 0.0, 0.0, 0.0156, 320.6, 106.0)" width="424.15" xlink:href="#font_Lithos_Pro_Regular_n0"/>
      <use fill="#cc9d3c" height="105.65" transform="matrix(0.0156, 0.0, 0.0, 0.0156, 333.35, 106.0)" width="424.15" xlink:href="#font_Lithos_Pro_Regular_f0"/>
      <use fill="#cc9d3c" height="105.65" transform="matrix(0.0156, 0.0, 0.0, 0.0156, 342.15, 106.0)" width="424.15" xlink:href="#font_Lithos_Pro_Regular_o0"/>
    </g>
  </g>
  <defs>
    <g id="font_Lithos_Pro_Regular_S0">
      <path d="M95.5 18.5 L95.5 18.5 67.5 -156.5 Q118.5 -155.0 165.5 -163.5 213.0 -171.5 244.0 -188.5 274.5 -205.0 275.5 -229.5 276.0 -239.0 268.0 -248.5 260.0 -258.0 238.0 -272.0 216.0 -286.0 175.0 -309.0 142.0 -327.5 110.0 -351.5 78.5 -376.0 57.5 -408.0 36.5 -440.5 35.5 -483.5 36.0 -541.5 84.5 -597.5 133.5 -653.0 225.5 -693.0 317.5 -733.0 447.5 -745.5 L475.0 -574.5 Q379.0 -574.5 330.5 -558.5 282.5 -542.5 282.5 -511.0 282.5 -493.5 307.0 -477.5 332.0 -462.0 382.0 -438.5 410.5 -425.0 443.0 -404.0 476.0 -383.0 499.5 -351.0 523.5 -319.0 524.5 -273.5 524.5 -230.5 501.0 -185.5 477.5 -140.0 426.5 -98.5 375.5 -57.5 294.0 -26.5 212.0 4.5 95.5 18.5" fill-rule="evenodd" stroke="none"/>
    </g>
    <g id="font_Lithos_Pro_Regular_o0">
      <path d="M409.5 -127.0 L409.5 -127.0 Q482.0 -127.0 524.0 -175.0 565.5 -223.5 566.5 -319.5 566.0 -403.0 531.5 -446.5 496.5 -490.5 432.5 -490.5 382.0 -490.0 347.5 -463.5 313.0 -437.5 295.5 -393.5 277.5 -350.0 277.5 -297.0 278.0 -239.5 296.0 -202.0 313.5 -164.0 343.5 -145.5 373.5 -127.0 409.5 -127.0 M399.5 14.5 L399.5 14.5 Q306.0 13.5 237.5 -12.5 169.5 -39.0 125.5 -82.5 81.5 -126.0 60.0 -178.5 39.0 -230.5 39.0 -283.5 39.0 -347.5 63.5 -409.0 88.5 -470.5 138.5 -521.0 188.5 -571.0 265.0 -601.0 341.5 -631.0 444.5 -632.0 556.5 -631.5 637.0 -595.0 718.0 -558.5 761.0 -490.0 804.5 -422.0 805.0 -325.5 805.5 -275.5 785.5 -217.0 766.0 -159.0 719.5 -106.5 673.5 -54.0 595.0 -20.5 516.5 13.5 399.5 14.5" fill-rule="evenodd" stroke="none"/>
    </g>
    <g id="font_Lithos_Pro_Regular_r0">
      <path d="M311.5 -492.5 L311.5 -266.0 Q311.5 -255.5 311.5 -227.5 312.0 -199.0 312.5 -162.0 312.5 -125.5 313.0 -90.0 314.0 -54.5 314.5 -29.5 315.0 -5.0 315.5 0.0 L95.5 0.0 Q96.5 -7.0 97.5 -31.5 98.0 -56.0 98.5 -89.5 98.5 -123.0 98.5 -156.5 98.5 -190.0 98.5 -214.0 98.5 -238.5 98.5 -244.5 L98.5 -386.0 Q98.5 -394.5 98.5 -419.0 98.0 -443.0 97.5 -474.5 97.5 -506.0 97.0 -537.0 96.0 -568.0 95.5 -590.0 95.0 -612.5 94.5 -618.5 194.0 -619.0 285.0 -617.5 376.5 -616.5 444.5 -608.0 547.5 -595.0 602.0 -557.0 656.0 -519.0 656.5 -458.5 656.0 -404.5 626.0 -361.5 596.0 -319.0 539.5 -284.5 551.0 -273.0 577.0 -247.5 603.5 -222.5 634.5 -193.0 665.5 -163.0 691.5 -138.5 717.0 -113.5 727.0 -102.5 L545.0 29.5 Q537.5 19.0 516.0 -12.0 494.5 -43.0 466.0 -84.5 437.5 -126.0 409.0 -168.0 380.0 -209.5 358.0 -241.5 336.0 -273.5 328.0 -285.5 352.5 -297.5 375.5 -316.0 399.0 -334.0 414.0 -359.5 429.5 -384.5 430.0 -417.0 431.5 -448.5 405.5 -469.5 379.5 -491.0 311.5 -492.5" fill-rule="evenodd" stroke="none"/>
    </g>
    <g id="font_Lithos_Pro_Regular_y0">
      <path d="M471.0 0.0 L241.0 0.0 Q241.5 -8.5 242.0 -26.5 243.0 -44.5 244.0 -65.5 244.5 -86.5 245.5 -102.5 246.0 -119.0 246.0 -124.0 L246.0 -160.0 Q245.0 -244.5 213.5 -304.5 181.5 -364.0 129.5 -397.5 101.5 -414.5 74.5 -422.5 47.5 -430.5 25.0 -436.5 L96.5 -635.0 Q144.0 -622.0 190.0 -599.5 236.0 -577.0 272.5 -544.0 298.0 -519.5 321.5 -482.5 344.5 -446.0 361.5 -395.5 L369.0 -395.5 Q384.5 -439.0 410.5 -476.0 437.0 -513.0 470.0 -543.0 504.0 -573.0 548.0 -597.5 592.5 -622.0 647.0 -637.0 L705.5 -437.5 Q674.0 -431.5 636.0 -417.5 598.0 -403.5 564.0 -379.0 522.0 -347.0 495.0 -292.0 468.0 -236.5 467.0 -162.0 L467.0 -107.5 Q467.0 -100.0 467.5 -78.0 468.0 -56.0 469.0 -33.0 470.0 -10.0 471.0 0.0" fill-rule="evenodd" stroke="none"/>
    </g>
    <g id="font_Lithos_Pro_Regular__0">
      <path d="M50.0 103.0 L50.0 103.0 116.5 -166.0 268.0 -97.5 121.5 136.0 50.0 103.0" fill-rule="evenodd" stroke="none"/>
    </g>
    <g id="font_Lithos_Pro_Regular_i0">
      <path d="M315.5 -357.5 L315.5 -263.0 Q315.5 -229.5 316.0 -188.0 316.5 -146.5 317.0 -106.5 318.0 -66.5 318.5 -37.5 319.0 -8.5 319.5 0.0 L92.5 0.0 Q93.0 -12.0 93.0 -40.0 93.5 -67.5 93.5 -103.0 94.0 -138.0 94.0 -172.5 94.5 -206.5 94.5 -231.5 94.5 -256.5 94.5 -264.0 L94.5 -358.5 Q94.5 -364.0 94.5 -389.5 94.0 -414.5 94.0 -450.5 93.5 -486.0 93.0 -522.0 93.0 -558.0 92.5 -584.5 92.5 -611.0 92.5 -618.5 L319.5 -618.5 Q319.0 -611.5 318.5 -585.5 318.0 -559.0 317.0 -521.0 316.5 -482.5 316.0 -440.0 315.5 -397.0 315.5 -357.5" fill-rule="evenodd" stroke="none"/>
    </g>
    <g id="font_Lithos_Pro_Regular_g0">
      <path d="M632.0 -198.5 L632.0 -135.0 Q632.0 -117.0 632.5 -90.5 633.0 -64.0 633.5 -40.0 634.0 -16.0 634.0 -6.0 619.5 -2.5 588.5 2.0 557.0 7.0 514.5 10.5 472.0 14.5 424.0 14.5 286.5 13.5 200.0 -22.0 113.5 -58.0 73.0 -116.5 32.5 -175.0 33.0 -244.5 32.5 -285.5 55.5 -340.5 78.0 -395.5 133.5 -452.5 188.5 -510.0 284.5 -558.5 380.5 -606.5 525.5 -634.0 L568.5 -453.5 Q518.0 -448.0 465.5 -432.5 413.5 -417.5 368.5 -393.0 323.5 -368.0 296.0 -333.5 268.5 -298.5 267.5 -253.5 268.5 -211.0 293.5 -185.5 318.0 -160.0 354.0 -149.5 389.5 -138.5 424.0 -140.0 L424.0 -205.5 Q424.0 -223.5 423.0 -243.0 422.0 -262.0 422.0 -285.5 L633.0 -285.5 Q632.0 -255.5 632.0 -236.0 632.0 -217.0 632.0 -198.5" fill-rule="evenodd" stroke="none"/>
    </g>
    <g id="font_Lithos_Pro_Regular_h0">
      <path d="M323.5 0.0 L96.5 0.0 Q97.0 -12.0 97.0 -40.0 97.5 -67.5 97.5 -103.0 98.0 -138.0 98.0 -172.5 98.5 -206.5 98.5 -231.5 98.5 -256.5 98.5 -264.0 L98.5 -358.0 Q98.5 -363.5 98.5 -389.0 98.0 -414.5 97.5 -450.0 97.5 -486.0 97.0 -522.0 96.0 -558.0 95.5 -584.5 95.0 -611.0 94.5 -618.5 L324.5 -618.5 Q324.0 -611.0 323.0 -582.5 322.0 -554.0 321.5 -518.0 320.5 -482.5 320.0 -454.0 319.5 -425.5 319.5 -418.5 L319.5 -388.0 544.0 -404.0 544.0 -437.0 Q544.0 -443.5 543.5 -468.5 543.5 -494.0 543.0 -526.0 542.0 -557.5 541.5 -584.0 540.5 -610.0 540.0 -618.5 L769.0 -618.5 Q768.5 -611.0 768.0 -582.5 767.5 -553.5 767.0 -514.5 766.5 -475.0 766.0 -436.0 765.5 -396.5 765.5 -368.0 765.0 -339.5 765.0 -332.5 L765.0 -245.5 Q765.0 -241.5 765.0 -217.5 765.5 -193.5 766.0 -159.0 766.0 -125.0 766.5 -90.5 767.5 -56.0 768.0 -31.0 768.5 -6.0 769.0 0.0 L540.0 0.0 Q540.5 -12.0 541.0 -39.5 541.5 -67.0 542.5 -98.5 543.0 -130.5 543.5 -155.5 544.0 -180.5 544.0 -187.5 L544.0 -247.5 319.5 -231.5 319.5 -206.0 Q319.5 -190.0 320.0 -159.5 320.5 -129.5 321.0 -95.5 322.0 -62.0 322.5 -35.0 323.0 -8.5 323.5 0.0" fill-rule="evenodd" stroke="none"/>
    </g>
    <g id="font_Lithos_Pro_Regular_t0">
      <path d="M421.5 0.0 L194.5 0.0 Q195.0 -12.5 195.5 -51.5 196.0 -90.5 196.0 -141.5 196.5 -192.5 196.5 -241.0 L196.5 -461.0 Q181.5 -461.0 153.5 -460.5 125.0 -459.5 93.0 -459.0 61.5 -458.0 35.0 -457.0 8.5 -456.5 -3.0 -456.0 L-3.0 -616.5 Q10.0 -615.0 40.5 -614.0 70.5 -613.0 108.5 -612.0 146.0 -611.5 181.5 -610.5 217.5 -610.0 242.0 -609.5 266.5 -609.5 270.0 -609.5 L351.0 -609.5 Q357.0 -609.5 381.0 -609.5 405.0 -610.0 439.0 -610.5 473.5 -611.5 509.0 -612.0 544.5 -613.0 574.0 -614.0 603.0 -615.0 617.0 -616.5 L617.0 -456.0 Q609.5 -456.5 580.0 -457.0 550.5 -458.0 514.5 -459.0 478.5 -459.5 451.0 -460.5 423.0 -461.0 418.5 -461.0 L418.5 -227.5 Q418.5 -181.0 419.0 -132.5 419.0 -83.5 420.0 -46.5 420.5 -10.0 421.5 0.0" fill-rule="evenodd" stroke="none"/>
    </g>
    <g id="font_Lithos_Pro_Regular_n0">
      <path d="M264.0 6.0 L62.5 0.0 Q64.0 -16.0 67.0 -59.5 69.5 -103.0 73.0 -163.5 76.5 -224.0 80.5 -291.5 84.0 -359.5 88.0 -424.5 91.5 -489.5 95.0 -542.0 98.0 -594.0 100.5 -624.0 L116.5 -629.0 Q157.0 -603.0 210.5 -566.5 264.0 -530.0 321.0 -490.5 378.5 -451.0 428.5 -415.5 479.0 -380.0 512.5 -355.0 546.5 -330.5 553.0 -324.0 553.0 -338.5 553.0 -369.5 552.5 -400.0 552.5 -438.5 552.0 -477.0 552.0 -515.0 551.5 -552.5 551.5 -582.0 551.5 -611.0 552.0 -623.0 L752.5 -618.5 Q749.5 -583.5 745.5 -532.0 741.5 -480.5 737.5 -419.0 734.0 -357.5 730.5 -293.0 726.5 -229.5 723.5 -170.0 720.0 -111.0 717.5 -63.5 715.0 -16.0 714.0 13.5 L697.5 17.5 Q668.5 0.0 620.0 -33.0 571.5 -66.0 515.0 -106.0 458.5 -145.5 405.0 -184.0 352.0 -222.5 313.5 -250.5 275.5 -279.0 263.0 -289.0 263.0 -274.5 263.0 -243.5 263.0 -212.0 263.0 -173.0 263.0 -134.0 263.0 -96.0 263.5 -58.0 263.5 -30.0 263.5 -2.5 264.0 6.0" fill-rule="evenodd" stroke="none"/>
    </g>
    <g id="font_Lithos_Pro_Regular_w0">
      <path d="M813.0 -622.0 L1007.5 -549.0 Q1002.5 -540.5 982.5 -500.5 962.5 -460.5 933.5 -401.0 904.0 -341.5 871.0 -274.5 838.0 -208.0 807.0 -146.0 776.0 -84.0 752.5 -38.5 729.5 6.5 719.5 22.5 L706.5 22.5 Q686.5 -1.5 657.5 -38.5 628.5 -76.0 597.5 -116.5 566.5 -157.0 541.0 -191.5 515.5 -225.5 501.5 -244.0 479.0 -214.0 449.5 -174.0 419.5 -134.0 389.0 -92.0 358.0 -50.0 331.5 -14.0 304.5 22.0 287.5 44.0 L274.5 44.0 Q264.5 27.0 244.5 -16.5 224.5 -60.0 198.0 -119.5 172.0 -179.0 143.5 -245.0 115.0 -311.0 88.0 -373.5 61.0 -435.5 40.0 -484.5 18.5 -533.5 7.0 -559.5 L209.0 -630.0 Q221.0 -591.0 238.0 -538.5 255.0 -486.0 272.0 -433.0 289.5 -379.5 303.0 -338.5 316.5 -297.5 322.5 -282.0 330.0 -295.5 356.0 -334.0 381.5 -373.0 419.0 -429.0 456.5 -485.0 499.5 -550.5 L513.0 -550.5 Q575.0 -462.0 623.0 -397.0 671.0 -332.0 697.0 -298.0 L699.0 -298.0 Q704.5 -311.5 716.0 -343.0 727.0 -375.0 741.0 -416.0 755.5 -457.0 769.5 -498.5 783.5 -540.0 795.5 -573.0 807.0 -606.0 813.0 -622.0" fill-rule="evenodd" stroke="none"/>
    </g>
    <g id="font_Lithos_Pro_Regular_e0">
      <path d="M519.5 -147.0 L522.5 9.5 Q510.0 9.5 468.5 8.5 427.5 7.5 371.0 6.0 315.0 5.0 257.5 3.5 200.5 2.0 156.0 1.0 112.0 0.0 94.5 0.0 95.0 -18.5 95.5 -56.0 96.0 -93.5 96.5 -136.0 96.5 -178.5 96.5 -211.0 96.5 -244.0 96.5 -253.0 L96.5 -368.5 Q96.5 -373.5 96.5 -397.5 96.0 -421.5 96.0 -455.0 95.5 -489.0 95.0 -523.5 95.0 -558.0 94.5 -584.0 94.5 -610.0 94.5 -618.5 113.0 -618.5 155.5 -620.0 198.5 -621.0 252.5 -623.0 307.0 -625.0 360.0 -627.0 413.0 -629.5 452.0 -631.0 491.5 -633.0 504.0 -634.0 L508.0 -484.5 Q494.0 -484.5 465.0 -483.5 435.5 -483.0 402.5 -482.0 369.0 -481.0 343.5 -480.0 317.5 -479.5 310.5 -479.5 L310.5 -373.5 Q318.0 -373.5 338.5 -374.0 359.0 -375.0 385.5 -376.0 412.0 -377.0 436.5 -378.5 461.5 -380.0 477.5 -381.5 L479.5 -236.5 Q469.5 -236.5 445.5 -237.0 421.5 -237.5 393.5 -238.0 365.0 -238.5 342.0 -239.0 319.0 -239.5 310.5 -239.5 L310.5 -145.0 Q320.0 -145.0 347.0 -144.5 373.5 -144.5 407.0 -144.5 441.0 -144.5 471.5 -145.0 502.0 -145.5 519.5 -147.0" fill-rule="evenodd" stroke="none"/>
    </g>
    <g id="font_Lithos_Pro_Regular_u0">
      <path d="M289.0 -462.0 L289.0 -403.5 Q288.5 -334.5 292.0 -288.5 295.0 -242.5 304.0 -213.5 313.0 -184.5 331.0 -165.5 345.5 -150.5 363.5 -143.5 381.0 -137.0 402.5 -137.0 427.0 -137.0 446.5 -146.5 465.5 -156.5 478.5 -175.0 488.0 -187.5 493.5 -204.0 499.0 -220.0 501.5 -247.5 504.0 -275.0 504.5 -321.5 505.0 -368.0 505.0 -441.5 L505.0 -474.0 Q505.0 -520.5 503.0 -561.5 501.0 -602.0 500.0 -627.0 L725.0 -627.0 Q725.0 -617.0 725.0 -593.5 725.5 -570.5 725.5 -539.0 726.0 -507.5 726.0 -472.5 L726.0 -431.5 Q726.5 -348.5 720.5 -285.0 714.5 -221.5 697.0 -172.5 679.5 -123.5 645.0 -84.0 602.0 -35.5 535.5 -10.5 469.0 14.5 390.5 14.5 351.5 15.0 303.5 8.0 255.5 0.5 208.5 -23.0 161.5 -46.5 126.0 -95.0 109.0 -118.0 97.5 -145.0 85.5 -172.0 78.0 -209.0 70.5 -246.5 67.0 -300.5 63.5 -355.0 63.5 -433.5 L63.5 -480.5 Q63.5 -501.5 64.0 -528.0 64.0 -555.0 64.5 -578.5 64.5 -602.0 64.5 -612.5 L294.0 -612.5 Q291.5 -595.5 290.5 -558.5 289.0 -521.0 289.0 -462.0" fill-rule="evenodd" stroke="none"/>
    </g>
    <g id="font_Lithos_Pro_Regular_s0">
      <path d="M79.5 17.5 L56.0 -138.5 Q107.5 -137.0 154.0 -142.5 201.0 -148.0 231.0 -161.0 261.0 -173.5 262.0 -194.5 263.5 -208.5 243.0 -222.0 223.0 -236.0 167.0 -260.0 136.0 -273.5 105.0 -293.0 73.5 -312.5 52.0 -341.5 30.5 -370.0 29.5 -411.0 30.0 -465.5 77.5 -514.5 125.5 -563.0 214.0 -596.5 303.0 -629.5 427.0 -637.0 L451.5 -479.5 Q356.0 -480.0 308.0 -471.0 260.0 -461.5 260.0 -434.5 260.0 -418.0 284.5 -405.5 308.5 -393.0 354.0 -376.0 380.5 -366.5 413.0 -349.5 445.0 -332.5 469.5 -304.0 493.5 -276.0 494.5 -232.5 495.0 -178.0 452.0 -125.5 409.0 -72.5 317.5 -33.5 225.5 5.0 79.5 17.5" fill-rule="evenodd" stroke="none"/>
    </g>
    <g id="font_Lithos_Pro_Regular_l0">
      <path d="M93.5 -618.5 L322.5 -618.5 Q322.0 -610.0 321.5 -577.0 320.5 -544.0 319.5 -497.0 319.0 -450.5 318.0 -401.0 317.5 -351.0 317.5 -309.0 L317.5 -156.5 Q330.0 -156.5 364.5 -156.5 399.0 -157.0 442.5 -157.5 486.0 -158.5 524.5 -160.5 L525.5 9.5 Q516.0 9.5 477.5 8.5 439.0 7.5 384.5 6.0 330.0 5.0 272.5 3.5 215.0 2.0 167.5 1.0 119.5 0.0 94.5 0.0 95.0 -18.5 95.5 -56.0 96.0 -93.5 96.5 -136.0 96.5 -178.5 96.5 -211.0 96.5 -244.0 96.5 -252.5 L96.5 -368.5 Q96.5 -373.5 96.5 -398.5 96.0 -423.0 95.5 -457.5 95.5 -492.5 95.0 -527.0 94.5 -562.0 94.0 -587.0 94.0 -612.5 93.5 -618.5" fill-rule="evenodd" stroke="none"/>
    </g>
    <g id="font_Lithos_Pro_Regular_a0">
      <path d="M301.0 -222.5 L454.5 -229.5 Q434.5 -268.0 413.0 -306.5 391.5 -345.0 378.0 -373.0 361.0 -340.5 340.0 -300.0 319.5 -259.5 301.0 -222.5 M184.5 29.5 L0.0 -65.0 Q7.5 -76.5 30.5 -114.0 54.0 -152.0 88.0 -206.5 121.5 -261.5 161.0 -324.0 200.0 -387.0 239.5 -449.0 279.0 -511.5 313.5 -564.0 347.5 -616.5 371.5 -650.5 L391.0 -650.5 Q426.0 -602.0 472.5 -535.0 518.5 -467.5 568.5 -394.0 618.5 -321.0 664.0 -254.0 709.5 -187.0 742.0 -139.0 775.0 -91.0 787.5 -75.0 L599.0 28.5 Q584.5 6.5 567.0 -22.0 549.5 -50.5 535.5 -73.5 521.5 -96.5 517.0 -102.5 L243.5 -89.5 Q241.0 -84.5 230.5 -64.0 220.5 -43.5 207.5 -18.0 195.0 8.0 184.5 29.5" fill-rule="evenodd" stroke="none"/>
    </g>
    <g id="font_Lithos_Pro_Regular_v0">
      <path d="M564.0 -638.0 L766.0 -541.5 Q757.0 -529.0 730.5 -489.0 704.0 -449.5 666.5 -392.5 629.0 -336.0 587.0 -272.0 544.5 -208.0 504.0 -147.0 463.5 -86.0 430.5 -37.5 398.0 11.0 380.0 37.0 L360.5 37.0 Q330.5 -6.0 288.5 -71.5 246.5 -137.0 200.0 -211.0 154.0 -285.0 112.0 -353.5 70.0 -422.0 40.0 -471.0 10.5 -519.5 1.0 -534.5 L206.0 -638.0 Q212.0 -625.5 229.0 -591.5 246.0 -557.0 268.5 -511.5 291.0 -466.0 314.0 -419.0 337.0 -372.5 355.5 -334.5 374.0 -297.0 383.0 -278.5 392.0 -297.5 411.0 -336.0 430.5 -375.0 455.0 -423.0 479.0 -470.5 502.5 -516.5 526.0 -562.5 543.0 -595.5 560.0 -629.0 564.0 -638.0" fill-rule="evenodd" stroke="none"/>
    </g>
    <g id="font_Lithos_Pro_Regular_b0">
      <path d="M299.0 -516.0 L299.0 -360.5 Q317.5 -360.5 340.5 -369.0 363.5 -378.0 380.5 -399.0 397.5 -419.5 398.5 -454.5 397.5 -483.0 380.0 -496.5 363.0 -510.5 340.0 -514.0 317.0 -518.0 299.0 -516.0 M299.0 -267.5 L299.0 -105.5 Q328.0 -105.5 356.0 -116.5 384.0 -127.0 402.5 -146.0 421.5 -165.0 422.0 -189.5 421.0 -232.5 387.0 -251.5 353.0 -270.5 299.0 -267.5 M94.0 -322.5 L94.0 -419.0 Q94.0 -429.5 93.5 -458.0 93.5 -487.0 93.0 -521.5 92.0 -555.5 91.5 -583.0 91.0 -610.5 90.0 -618.5 160.0 -618.5 213.0 -618.0 266.0 -617.5 309.0 -615.5 352.5 -613.0 393.5 -608.0 465.5 -599.0 509.5 -582.5 553.5 -566.0 576.0 -545.5 598.5 -525.0 606.5 -504.0 614.0 -482.5 613.5 -464.0 614.0 -447.5 602.5 -423.5 591.5 -399.5 563.5 -375.5 535.5 -351.5 486.5 -335.0 L486.5 -329.5 Q523.5 -327.0 559.0 -311.0 594.5 -295.0 618.0 -266.0 641.0 -236.5 642.0 -194.5 642.5 -143.5 596.5 -98.0 551.0 -53.0 452.0 -24.5 352.5 4.0 193.5 5.0 L90.0 5.0 Q91.0 -10.5 92.0 -46.0 93.0 -81.5 93.0 -126.0 93.5 -170.5 94.0 -213.5 94.0 -256.5 94.0 -286.5 94.0 -316.5 94.0 -322.5" fill-rule="evenodd" stroke="none"/>
    </g>
    <g id="font_Lithos_Pro_Regular_M0">
      <path d="M212.0 32.0 L212.0 32.0 10.5 -43.0 Q15.5 -54.0 33.5 -100.5 51.5 -146.5 78.5 -215.5 105.5 -284.0 136.5 -363.0 167.5 -441.5 198.0 -517.5 228.5 -593.5 253.5 -655.0 279.0 -716.0 294.0 -749.5 L304.5 -749.5 Q323.5 -718.5 351.0 -673.5 378.0 -628.5 408.5 -578.5 439.0 -528.0 468.0 -481.0 496.5 -433.5 518.5 -397.5 540.0 -361.5 550.0 -345.5 562.5 -364.0 585.0 -400.5 607.5 -437.0 635.5 -482.5 664.0 -528.5 692.5 -576.0 721.5 -624.0 747.0 -665.0 772.0 -706.5 788.5 -733.5 L799.0 -733.5 Q817.0 -694.5 844.0 -635.0 871.0 -575.0 903.0 -504.0 935.0 -433.5 967.0 -361.5 999.5 -289.5 1027.5 -226.5 1056.0 -163.5 1076.0 -119.5 1095.5 -75.5 1103.0 -60.5 L896.0 32.0 Q886.0 6.5 870.0 -35.5 854.0 -77.5 835.5 -125.5 817.0 -174.0 800.0 -219.5 783.0 -264.5 770.5 -296.5 758.5 -328.5 755.0 -338.0 749.5 -330.0 726.0 -294.0 702.5 -258.0 669.0 -207.5 635.5 -156.5 600.0 -104.0 564.0 -51.5 534.5 -10.0 L524.5 -10.0 Q494.5 -55.5 462.0 -106.5 429.5 -157.5 399.5 -205.0 370.0 -252.5 349.5 -287.0 328.5 -321.5 322.0 -333.5 316.5 -317.0 305.5 -280.0 294.5 -243.0 281.0 -196.0 267.5 -149.0 253.5 -102.5 240.0 -55.5 229.0 -19.5 218.0 16.5 212.0 32.0" fill-rule="evenodd" stroke="none"/>
    </g>
    <g id="font_Lithos_Pro_Regular_x0">
      <path d="M172.0 39.0 L22.5 -102.5 Q30.0 -110.5 59.0 -139.5 88.0 -168.0 124.5 -204.5 161.0 -240.5 192.0 -271.0 222.5 -301.5 233.5 -313.0 215.0 -332.0 186.0 -362.0 156.5 -391.5 126.0 -423.0 95.5 -454.5 72.0 -478.5 49.0 -502.0 43.0 -508.5 L208.0 -651.0 Q224.0 -632.0 248.5 -602.5 273.0 -572.5 299.0 -540.5 325.5 -508.0 347.0 -482.0 369.0 -455.5 379.0 -444.0 389.0 -455.5 412.5 -482.0 435.5 -508.5 464.0 -541.0 492.0 -573.5 518.0 -603.5 544.0 -633.0 560.0 -651.0 L715.0 -513.0 Q705.0 -503.0 676.0 -476.5 647.0 -450.0 611.5 -418.0 575.5 -386.0 546.5 -359.0 517.0 -332.5 507.0 -322.5 520.5 -308.5 551.5 -278.0 583.0 -247.0 619.0 -211.0 655.0 -175.5 683.0 -147.0 711.5 -119.0 720.0 -110.5 L555.0 38.0 Q542.5 23.5 516.0 -7.5 489.5 -38.5 458.5 -75.0 427.5 -111.5 401.0 -142.5 374.5 -173.5 361.5 -188.5 353.0 -179.0 326.5 -147.0 300.0 -115.0 267.0 -75.5 234.5 -36.0 208.0 -3.5 181.0 29.0 172.0 39.0" fill-rule="evenodd" stroke="none"/>
    </g>
    <g id="font_Lithos_Pro_Regular_m0">
      <path d="M195.5 26.5 L9.0 -37.0 Q13.5 -46.5 30.0 -86.0 46.5 -125.0 70.5 -183.5 94.5 -242.0 122.5 -308.5 150.0 -375.5 177.5 -440.0 205.0 -504.5 227.5 -556.5 250.0 -608.5 264.0 -637.0 L278.5 -637.0 Q300.5 -603.5 333.0 -554.0 365.5 -505.0 400.0 -452.5 434.0 -400.5 461.5 -359.0 489.0 -317.0 500.5 -299.0 514.5 -319.5 542.5 -361.5 570.0 -403.0 603.0 -453.0 635.5 -503.0 666.0 -549.0 696.0 -595.0 715.5 -624.0 L730.0 -624.0 Q750.0 -584.0 781.0 -519.0 812.0 -454.5 847.0 -380.0 882.5 -305.5 915.0 -236.0 948.0 -166.5 971.5 -116.5 995.5 -66.5 1003.5 -51.0 L811.0 26.5 Q801.5 5.0 787.5 -30.0 773.0 -64.5 756.5 -105.0 740.0 -145.0 725.0 -182.5 710.0 -219.5 700.0 -246.5 689.5 -273.0 687.0 -280.5 682.0 -273.5 661.0 -244.0 640.0 -214.5 610.0 -173.0 580.0 -131.0 548.0 -87.5 516.0 -44.0 489.5 -9.5 L475.0 -9.5 Q447.5 -47.5 418.5 -90.0 389.0 -132.0 362.5 -171.0 336.0 -210.0 317.0 -238.0 298.5 -266.5 292.5 -276.5 288.5 -262.5 279.0 -231.5 270.0 -201.0 258.0 -162.0 245.5 -123.5 233.5 -85.0 221.0 -46.5 211.0 -16.5 201.0 13.5 195.5 26.5" fill-rule="evenodd" stroke="none"/>
    </g>
    <g id="font_Lithos_Pro_Regular_.0">
      <path d="M73.5 0.0 L73.5 0.0 73.5 -158.5 243.5 -158.5 243.5 0.0 73.5 0.0" fill-rule="evenodd" stroke="none"/>
    </g>
    <g id="font_Lithos_Pro_Regular_c0">
      <path d="M556.0 -158.5 L565.5 7.5 Q541.0 10.5 514.5 12.5 487.5 14.5 455.0 14.5 340.5 14.0 260.0 -9.5 179.5 -33.0 129.5 -71.5 79.5 -109.5 56.0 -155.5 33.0 -201.5 33.0 -247.5 33.0 -302.5 60.5 -360.5 88.5 -418.5 145.5 -472.5 202.5 -526.5 290.5 -568.0 378.5 -610.0 499.0 -632.0 L540.0 -460.0 Q445.0 -443.5 385.5 -414.5 326.5 -385.5 298.5 -348.5 271.0 -311.0 271.5 -270.5 272.0 -218.5 322.5 -187.0 372.5 -155.5 466.0 -154.5 494.5 -154.5 517.0 -155.5 539.5 -157.0 556.0 -158.5" fill-rule="evenodd" stroke="none"/>
    </g>
    <g id="font_Lithos_Pro_Regular_f0">
      <path d="M314.5 0.0 L93.5 0.0 Q94.5 -18.5 95.0 -56.0 96.0 -93.5 96.0 -136.0 96.5 -178.5 96.5 -211.0 96.5 -244.0 96.5 -253.0 L96.5 -368.5 Q96.5 -373.5 96.5 -397.5 96.0 -421.5 95.5 -455.0 95.5 -489.0 95.0 -523.5 94.5 -558.0 94.0 -584.0 94.0 -610.0 93.5 -618.5 125.5 -618.5 179.0 -620.0 233.0 -621.5 295.5 -623.5 358.0 -625.5 416.0 -627.5 474.0 -629.5 514.0 -631.0 L518.5 -481.0 313.5 -477.0 313.5 -351.0 Q329.0 -351.0 375.5 -353.5 422.5 -356.0 501.0 -359.0 L503.0 -215.0 313.5 -217.0 313.5 -147.5 Q313.5 -141.0 313.5 -120.0 314.0 -99.0 314.0 -73.0 314.0 -47.0 314.5 -26.0 314.5 -5.5 314.5 0.0" fill-rule="evenodd" stroke="none"/>
    </g>
    <g id="font_Lithos_Pro_Regular_k0">
      <path d="M322.5 9.5 L93.5 9.5 Q94.0 -1.0 94.5 -30.0 95.0 -59.0 95.5 -99.0 96.0 -139.0 96.0 -182.0 96.5 -225.0 96.5 -263.0 L96.5 -355.0 Q96.5 -384.5 96.0 -427.0 95.5 -469.0 95.0 -512.0 94.5 -554.5 94.0 -586.5 93.5 -618.5 93.5 -627.0 L322.5 -627.0 Q322.0 -620.5 321.5 -593.0 320.5 -565.0 319.5 -526.0 319.0 -487.0 318.0 -447.5 317.5 -408.0 317.5 -378.5 L317.5 -353.0 319.5 -353.0 Q334.0 -370.5 359.5 -402.0 385.5 -433.0 416.0 -470.0 447.0 -507.0 476.0 -542.0 505.5 -577.0 526.5 -602.5 548.0 -628.0 555.0 -636.0 L711.5 -497.5 Q692.0 -479.0 658.0 -446.0 624.0 -413.0 588.0 -377.5 551.5 -342.0 525.5 -316.0 538.5 -302.5 565.5 -276.0 592.0 -250.0 623.0 -219.5 654.5 -189.5 681.5 -163.0 709.0 -136.0 724.0 -122.0 L547.0 25.5 Q541.5 19.5 522.0 -5.5 502.5 -30.5 474.5 -66.5 447.0 -103.0 417.0 -142.0 387.0 -181.5 361.0 -215.5 335.0 -250.0 319.5 -271.0 L317.5 -271.0 317.5 -255.5 Q317.5 -229.5 318.0 -188.0 318.5 -147.0 319.5 -104.5 320.0 -61.5 321.0 -30.0 322.0 2.0 322.5 9.5" fill-rule="evenodd" stroke="none"/>
    </g>
  </defs>
</svg>
