<?xml version="1.0" encoding="UTF-8" standalone="no"?>
<svg xmlns:ffdec="https://www.free-decompiler.com/flash" xmlns:xlink="http://www.w3.org/1999/xlink" ffdec:objectType="text" height="18.1px" width="121.7px" xmlns="http://www.w3.org/2000/svg">
  <g transform="matrix(1.0, 0.0, 0.0, 1.0, -91.95, 2.0)">
    <g transform="matrix(1.0, 0.0, 0.0, 1.0, 91.95, -2.0)">
      <use fill="#c19c46" height="18.1" transform="matrix(0.0117, 0.0, 0.0, 0.0117, 84.45, 13.05)" width="121.7" xlink:href="#font_Lithos_Pro_Regular_10"/>
      <use fill="#c19c46" height="18.1" transform="matrix(0.0117, 0.0, 0.0, 0.0117, 92.95, 13.05)" width="121.7" xlink:href="#font_Lithos_Pro_Regular_60"/>
      <use fill="#c19c46" height="18.1" transform="matrix(0.0117, 0.0, 0.0, 0.0117, 101.45, 13.05)" width="121.7" xlink:href="#font_Lithos_Pro_Regular_:0"/>
      <use fill="#c19c46" height="18.1" transform="matrix(0.0117, 0.0, 0.0, 0.0117, 104.7, 13.05)" width="121.7" xlink:href="#font_Lithos_Pro_Regular_20"/>
      <use fill="#c19c46" height="18.1" transform="matrix(0.0117, 0.0, 0.0, 0.0117, 113.2, 13.05)" width="121.7" xlink:href="#font_Lithos_Pro_Regular_30"/>
    </g>
  </g>
  <defs>
    <g id="font_Lithos_Pro_Regular_10">
      <path d="M434.0 0.0 L338.0 0.0 Q338.0 -14.0 339.5 -57.5 341.0 -100.5 342.5 -162.0 344.0 -224.0 344.0 -294.0 L344.0 -559.0 Q328.5 -540.5 301.5 -513.5 275.0 -486.5 248.0 -460.0 221.5 -434.0 206.0 -417.5 L159.5 -473.0 Q166.5 -479.0 193.0 -504.0 220.0 -528.5 257.0 -563.5 294.5 -598.5 332.0 -634.5 370.0 -670.5 398.5 -698.0 427.5 -726.0 437.0 -737.0 L440.0 -737.0 Q440.0 -719.0 438.0 -673.0 436.0 -626.5 434.0 -562.5 432.0 -499.0 432.0 -429.0 L432.0 -271.5 Q432.0 -160.5 432.0 -92.5 432.0 -24.0 434.0 0.0" fill-rule="evenodd" stroke="none"/>
    </g>
    <g id="font_Lithos_Pro_Regular_60">
      <path d="M228.5 -227.5 L228.5 -227.5 Q229.5 -148.5 263.0 -104.0 296.5 -59.0 350.5 -58.5 393.0 -59.0 425.0 -80.5 457.0 -101.5 474.5 -136.5 492.5 -171.5 492.5 -213.0 491.5 -270.0 458.0 -308.0 424.0 -346.5 370.5 -364.0 317.0 -382.0 256.0 -378.0 242.5 -346.5 235.5 -311.0 228.5 -275.0 228.5 -227.5 M438.5 -743.5 L491.5 -672.5 Q464.5 -657.0 426.5 -624.0 389.0 -591.5 351.5 -546.0 314.0 -501.0 288.0 -448.5 374.0 -451.0 442.0 -424.0 509.5 -397.5 549.0 -348.0 588.0 -298.5 589.0 -233.5 587.5 -159.5 552.0 -103.0 516.5 -47.0 460.5 -15.5 404.5 16.0 343.0 16.5 299.5 16.5 263.5 3.0 228.0 -10.0 199.0 -40.0 168.0 -72.0 152.5 -116.0 136.5 -160.0 136.5 -221.5 137.5 -298.0 164.0 -374.5 191.0 -451.5 235.0 -521.5 279.5 -591.5 332.5 -649.0 385.5 -706.0 438.5 -743.5" fill-rule="evenodd" stroke="none"/>
    </g>
    <g id="font_Lithos_Pro_Regular_:0">
      <path d="M83.0 -397.5 L83.0 -507.0 193.5 -507.0 193.5 -397.5 83.0 -397.5 M83.0 -41.0 L83.0 -150.5 193.5 -150.5 193.5 -41.0 83.0 -41.0" fill-rule="evenodd" stroke="none"/>
    </g>
    <g id="font_Lithos_Pro_Regular_20">
      <path d="M574.5 -79.5 L574.5 8.5 Q564.0 7.5 524.5 6.0 485.0 5.0 428.0 3.5 371.0 2.5 308.5 1.5 246.0 0.5 189.5 0.0 L73.5 0.0 71.5 -10.0 Q124.5 -45.5 186.0 -93.0 248.0 -140.5 304.5 -196.5 360.5 -253.0 396.5 -314.0 433.0 -375.0 434.0 -437.0 433.5 -490.5 406.5 -530.0 380.0 -569.0 337.0 -595.0 294.0 -621.0 245.0 -634.5 195.5 -648.0 149.5 -650.0 L168.0 -734.0 Q284.5 -719.5 366.0 -677.5 447.5 -635.5 490.5 -575.0 533.0 -515.0 533.5 -446.0 532.5 -384.0 504.5 -328.0 477.0 -272.0 434.5 -224.5 392.5 -176.5 347.5 -138.0 303.0 -100.0 268.0 -72.5 L269.0 -68.5 574.5 -79.5" fill-rule="evenodd" stroke="none"/>
    </g>
    <g id="font_Lithos_Pro_Regular_30">
      <path d="M192.5 -660.5 L205.0 -739.5 Q250.5 -737.0 303.5 -723.5 356.0 -710.5 404.0 -686.0 452.0 -661.5 482.5 -626.5 513.0 -591.5 514.0 -546.0 513.0 -509.0 492.5 -475.5 472.5 -442.5 443.0 -417.5 414.0 -392.5 387.0 -381.0 L387.0 -379.0 Q427.5 -369.0 461.0 -349.5 495.0 -330.0 515.5 -300.0 536.0 -270.5 536.5 -229.5 535.5 -177.0 502.5 -131.5 469.5 -86.5 413.5 -51.5 358.0 -17.0 290.0 3.0 221.5 23.0 150.5 25.5 L144.5 -57.5 Q189.0 -54.5 238.5 -63.5 288.0 -72.5 332.0 -93.5 376.0 -114.5 403.5 -147.0 431.0 -180.0 432.0 -224.5 431.0 -259.0 409.0 -283.0 387.0 -307.5 353.0 -323.0 319.0 -338.5 282.5 -346.0 246.0 -353.5 216.5 -354.5 L216.5 -385.0 Q248.0 -388.0 283.0 -400.0 318.0 -411.5 349.0 -430.5 379.5 -449.0 399.0 -474.5 418.5 -499.5 419.0 -529.5 418.5 -561.5 398.5 -585.5 378.5 -610.0 345.5 -626.5 312.5 -643.0 272.5 -651.5 232.5 -660.0 192.5 -660.5" fill-rule="evenodd" stroke="none"/>
    </g>
  </defs>
</svg>
