<?xml version="1.0" encoding="UTF-8" standalone="no"?>
<svg xmlns:ffdec="https://www.free-decompiler.com/flash" xmlns:xlink="http://www.w3.org/1999/xlink" ffdec:objectType="text" height="50.75px" width="158.05px" xmlns="http://www.w3.org/2000/svg">
  <g transform="matrix(1.0, 0.0, 0.0, 1.0, -0.7, -2.65)">
    <g transform="matrix(1.0, 0.0, 0.0, 1.0, 0.0, 0.0)">
      <use fill="#bbb2a1" height="50.75" transform="matrix(0.0176, 0.0, 0.0, 0.0176, 40.0, 17.0)" width="158.05" xlink:href="#font_Lithos_Pro_Regular_L0"/>
      <use fill="#bbb2a1" height="50.75" transform="matrix(0.0176, 0.0, 0.0, 0.0176, 50.55, 17.0)" width="158.05" xlink:href="#font_Lithos_Pro_Regular_o0"/>
      <use fill="#bbb2a1" height="50.75" transform="matrix(0.0176, 0.0, 0.0, 0.0176, 65.4, 17.0)" width="158.05" xlink:href="#font_Lithos_Pro_Regular_c0"/>
      <use fill="#bbb2a1" height="50.75" transform="matrix(0.0176, 0.0, 0.0, 0.0176, 76.05, 17.0)" width="158.05" xlink:href="#font_Lithos_Pro_Regular_k0"/>
      <use fill="#bbb2a1" height="50.75" transform="matrix(0.0176, 0.0, 0.0, 0.0176, 89.15, 17.0)" width="158.05" xlink:href="#font_Lithos_Pro_Regular_e0"/>
      <use fill="#bbb2a1" height="50.75" transform="matrix(0.0176, 0.0, 0.0, 0.0176, 99.4, 17.0)" width="158.05" xlink:href="#font_Lithos_Pro_Regular_d0"/>
    </g>
    <g transform="matrix(1.0, 0.0, 0.0, 1.0, 0.0, 0.0)">
      <use fill="#bbb2a1" height="50.75" transform="matrix(0.0107, 0.0, 0.0, 0.0107, 23.0, 36.0)" width="158.05" xlink:href="#font_Lithos_Pro_Regular_C0"/>
      <use fill="#bbb2a1" height="50.75" transform="matrix(0.0107, 0.0, 0.0, 0.0107, 30.0, 36.0)" width="158.05" xlink:href="#font_Lithos_Pro_Regular_o0"/>
      <use fill="#bbb2a1" height="50.75" transform="matrix(0.0107, 0.0, 0.0, 0.0107, 38.7, 36.0)" width="158.05" xlink:href="#font_Lithos_Pro_Regular_m0"/>
      <use fill="#bbb2a1" height="50.75" transform="matrix(0.0107, 0.0, 0.0, 0.0107, 49.6, 36.0)" width="158.05" xlink:href="#font_Lithos_Pro_Regular_p0"/>
      <use fill="#bbb2a1" height="50.75" transform="matrix(0.0107, 0.0, 0.0, 0.0107, 56.95, 36.0)" width="158.05" xlink:href="#font_Lithos_Pro_Regular_l0"/>
      <use fill="#bbb2a1" height="50.75" transform="matrix(0.0107, 0.0, 0.0, 0.0107, 62.8, 36.0)" width="158.05" xlink:href="#font_Lithos_Pro_Regular_e0"/>
      <use fill="#bbb2a1" height="50.75" transform="matrix(0.0107, 0.0, 0.0, 0.0107, 69.05, 36.0)" width="158.05" xlink:href="#font_Lithos_Pro_Regular_t0"/>
      <use fill="#bbb2a1" height="50.75" transform="matrix(0.0107, 0.0, 0.0, 0.0107, 75.65, 36.0)" width="158.05" xlink:href="#font_Lithos_Pro_Regular_e0"/>
      <use fill="#bbb2a1" height="50.75" transform="matrix(0.0107, 0.0, 0.0, 0.0107, 84.65, 36.0)" width="158.05" xlink:href="#font_Lithos_Pro_Regular_s0"/>
      <use fill="#bbb2a1" height="50.75" transform="matrix(0.0107, 0.0, 0.0, 0.0107, 90.25, 36.0)" width="158.05" xlink:href="#font_Lithos_Pro_Regular_t0"/>
      <use fill="#bbb2a1" height="50.75" transform="matrix(0.0107, 0.0, 0.0, 0.0107, 96.35, 36.0)" width="158.05" xlink:href="#font_Lithos_Pro_Regular_a0"/>
      <use fill="#bbb2a1" height="50.75" transform="matrix(0.0107, 0.0, 0.0, 0.0107, 104.8, 36.0)" width="158.05" xlink:href="#font_Lithos_Pro_Regular_g0"/>
      <use fill="#bbb2a1" height="50.75" transform="matrix(0.0107, 0.0, 0.0, 0.0107, 112.3, 36.0)" width="158.05" xlink:href="#font_Lithos_Pro_Regular_e0"/>
      <use fill="#bbb2a1" height="50.75" transform="matrix(0.0107, 0.0, 0.0, 0.0107, 121.3, 36.0)" width="158.05" xlink:href="#font_Lithos_Pro_Regular_50"/>
    </g>
    <g transform="matrix(1.0, 0.0, 0.0, 1.0, 0.0, 0.0)">
      <use fill="#bbb2a1" height="50.75" transform="matrix(0.0107, 0.0, 0.0, 0.0107, 0.0, 52.0)" width="158.05" xlink:href="#font_Lithos_Pro_Regular_o0"/>
      <use fill="#bbb2a1" height="50.75" transform="matrix(0.0107, 0.0, 0.0, 0.0107, 9.0, 52.0)" width="158.05" xlink:href="#font_Lithos_Pro_Regular_f0"/>
      <use fill="#bbb2a1" height="50.75" transform="matrix(0.0107, 0.0, 0.0, 0.0107, 17.8, 52.0)" width="158.05" xlink:href="#font_Lithos_Pro_Regular_t0"/>
      <use fill="#bbb2a1" height="50.75" transform="matrix(0.0107, 0.0, 0.0, 0.0107, 24.4, 52.0)" width="158.05" xlink:href="#font_Lithos_Pro_Regular_h0"/>
      <use fill="#bbb2a1" height="50.75" transform="matrix(0.0107, 0.0, 0.0, 0.0107, 33.65, 52.0)" width="158.05" xlink:href="#font_Lithos_Pro_Regular_e0"/>
      <use fill="#bbb2a1" height="50.75" transform="matrix(0.0107, 0.0, 0.0, 0.0107, 42.65, 52.0)" width="158.05" xlink:href="#font_Lithos_Pro_Regular_R0"/>
      <use fill="#bbb2a1" height="50.75" transform="matrix(0.0107, 0.0, 0.0, 0.0107, 51.15, 52.0)" width="158.05" xlink:href="#font_Lithos_Pro_Regular_o0"/>
      <use fill="#bbb2a1" height="50.75" transform="matrix(0.0107, 0.0, 0.0, 0.0107, 59.85, 52.0)" width="158.05" xlink:href="#font_Lithos_Pro_Regular_m0"/>
      <use fill="#bbb2a1" height="50.75" transform="matrix(0.0107, 0.0, 0.0, 0.0107, 70.75, 52.0)" width="158.05" xlink:href="#font_Lithos_Pro_Regular_a0"/>
      <use fill="#bbb2a1" height="50.75" transform="matrix(0.0107, 0.0, 0.0, 0.0107, 79.2, 52.0)" width="158.05" xlink:href="#font_Lithos_Pro_Regular_n0"/>
      <use fill="#bbb2a1" height="50.75" transform="matrix(0.0107, 0.0, 0.0, 0.0107, 90.7, 52.0)" width="158.05" xlink:href="#font_Lithos_Pro_Regular_C0"/>
      <use fill="#bbb2a1" height="50.75" transform="matrix(0.0107, 0.0, 0.0, 0.0107, 97.8, 52.0)" width="158.05" xlink:href="#font_Lithos_Pro_Regular_a0"/>
      <use fill="#bbb2a1" height="50.75" transform="matrix(0.0107, 0.0, 0.0, 0.0107, 106.25, 52.0)" width="158.05" xlink:href="#font_Lithos_Pro_Regular_m0"/>
      <use fill="#bbb2a1" height="50.75" transform="matrix(0.0107, 0.0, 0.0, 0.0107, 117.15, 52.0)" width="158.05" xlink:href="#font_Lithos_Pro_Regular_p0"/>
      <use fill="#bbb2a1" height="50.75" transform="matrix(0.0107, 0.0, 0.0, 0.0107, 123.9, 52.0)" width="158.05" xlink:href="#font_Lithos_Pro_Regular_a0"/>
      <use fill="#bbb2a1" height="50.75" transform="matrix(0.0107, 0.0, 0.0, 0.0107, 132.35, 52.0)" width="158.05" xlink:href="#font_Lithos_Pro_Regular_i0"/>
      <use fill="#bbb2a1" height="50.75" transform="matrix(0.0107, 0.0, 0.0, 0.0107, 136.7, 52.0)" width="158.05" xlink:href="#font_Lithos_Pro_Regular_g0"/>
      <use fill="#bbb2a1" height="50.75" transform="matrix(0.0107, 0.0, 0.0, 0.0107, 144.2, 52.0)" width="158.05" xlink:href="#font_Lithos_Pro_Regular_n0"/>
    </g>
  </g>
  <defs>
    <g id="font_Lithos_Pro_Regular_L0">
      <path d="M106.5 -726.0 L106.5 -726.0 346.0 -726.0 Q345.5 -716.0 345.0 -677.5 344.0 -639.0 343.0 -584.0 342.0 -529.0 341.5 -471.0 341.0 -412.5 341.0 -363.0 L341.0 -176.0 Q350.5 -176.0 375.5 -176.0 400.0 -176.0 433.0 -176.5 466.5 -177.0 501.5 -177.5 537.0 -178.5 568.5 -180.0 L569.5 10.5 Q560.5 10.5 519.5 9.5 478.5 8.5 419.5 7.0 361.0 5.5 298.5 3.5 236.0 2.0 184.5 1.0 133.5 0.0 107.5 0.0 108.5 -17.0 109.0 -49.5 109.5 -82.0 110.0 -121.0 110.0 -160.5 110.5 -198.0 110.5 -235.5 110.5 -262.5 110.5 -289.5 110.5 -297.5 L110.5 -433.5 Q110.5 -439.5 110.5 -468.5 110.0 -497.5 109.5 -538.0 109.5 -578.5 109.0 -619.5 108.5 -660.0 107.5 -689.5 107.0 -719.0 106.5 -726.0" fill-rule="evenodd" stroke="none"/>
    </g>
    <g id="font_Lithos_Pro_Regular_o0">
      <path d="M409.5 -127.0 L409.5 -127.0 Q482.0 -127.0 524.0 -175.0 565.5 -223.5 566.5 -319.5 566.0 -403.0 531.5 -446.5 496.5 -490.5 432.5 -490.5 382.0 -490.0 347.5 -463.5 313.0 -437.5 295.5 -393.5 277.5 -350.0 277.5 -297.0 278.0 -239.5 296.0 -202.0 313.5 -164.0 343.5 -145.5 373.5 -127.0 409.5 -127.0 M399.5 14.5 L399.5 14.5 Q306.0 13.5 237.5 -12.5 169.5 -39.0 125.5 -82.5 81.5 -126.0 60.0 -178.5 39.0 -230.5 39.0 -283.5 39.0 -347.5 63.5 -409.0 88.5 -470.5 138.5 -521.0 188.5 -571.0 265.0 -601.0 341.5 -631.0 444.5 -632.0 556.5 -631.5 637.0 -595.0 718.0 -558.5 761.0 -490.0 804.5 -422.0 805.0 -325.5 805.5 -275.5 785.5 -217.0 766.0 -159.0 719.5 -106.5 673.5 -54.0 595.0 -20.5 516.5 13.5 399.5 14.5" fill-rule="evenodd" stroke="none"/>
    </g>
    <g id="font_Lithos_Pro_Regular_c0">
      <path d="M556.0 -158.5 L565.5 7.5 Q541.0 10.5 514.5 12.5 487.5 14.5 455.0 14.5 340.5 14.0 260.0 -9.5 179.5 -33.0 129.5 -71.5 79.5 -109.5 56.0 -155.5 33.0 -201.5 33.0 -247.5 33.0 -302.5 60.5 -360.5 88.5 -418.5 145.5 -472.5 202.5 -526.5 290.5 -568.0 378.5 -610.0 499.0 -632.0 L540.0 -460.0 Q445.0 -443.5 385.5 -414.5 326.5 -385.5 298.5 -348.5 271.0 -311.0 271.5 -270.5 272.0 -218.5 322.5 -187.0 372.5 -155.5 466.0 -154.5 494.5 -154.5 517.0 -155.5 539.5 -157.0 556.0 -158.5" fill-rule="evenodd" stroke="none"/>
    </g>
    <g id="font_Lithos_Pro_Regular_k0">
      <path d="M322.5 9.5 L93.5 9.5 Q94.0 -1.0 94.5 -30.0 95.0 -59.0 95.5 -99.0 96.0 -139.0 96.0 -182.0 96.5 -225.0 96.5 -263.0 L96.5 -355.0 Q96.5 -384.5 96.0 -427.0 95.5 -469.0 95.0 -512.0 94.5 -554.5 94.0 -586.5 93.5 -618.5 93.5 -627.0 L322.5 -627.0 Q322.0 -620.5 321.5 -593.0 320.5 -565.0 319.5 -526.0 319.0 -487.0 318.0 -447.5 317.5 -408.0 317.5 -378.5 L317.5 -353.0 319.5 -353.0 Q334.0 -370.5 359.5 -402.0 385.5 -433.0 416.0 -470.0 447.0 -507.0 476.0 -542.0 505.5 -577.0 526.5 -602.5 548.0 -628.0 555.0 -636.0 L711.5 -497.5 Q692.0 -479.0 658.0 -446.0 624.0 -413.0 588.0 -377.5 551.5 -342.0 525.5 -316.0 538.5 -302.5 565.5 -276.0 592.0 -250.0 623.0 -219.5 654.5 -189.5 681.5 -163.0 709.0 -136.0 724.0 -122.0 L547.0 25.5 Q541.5 19.5 522.0 -5.5 502.5 -30.5 474.5 -66.5 447.0 -103.0 417.0 -142.0 387.0 -181.5 361.0 -215.5 335.0 -250.0 319.5 -271.0 L317.5 -271.0 317.5 -255.5 Q317.5 -229.5 318.0 -188.0 318.5 -147.0 319.5 -104.5 320.0 -61.5 321.0 -30.0 322.0 2.0 322.5 9.5" fill-rule="evenodd" stroke="none"/>
    </g>
    <g id="font_Lithos_Pro_Regular_e0">
      <path d="M519.5 -147.0 L522.5 9.5 Q510.0 9.5 468.5 8.5 427.5 7.5 371.0 6.0 315.0 5.0 257.5 3.5 200.5 2.0 156.0 1.0 112.0 0.0 94.5 0.0 95.0 -18.5 95.5 -56.0 96.0 -93.5 96.5 -136.0 96.5 -178.5 96.5 -211.0 96.5 -244.0 96.5 -253.0 L96.5 -368.5 Q96.5 -373.5 96.5 -397.5 96.0 -421.5 96.0 -455.0 95.5 -489.0 95.0 -523.5 95.0 -558.0 94.5 -584.0 94.5 -610.0 94.5 -618.5 113.0 -618.5 155.5 -620.0 198.5 -621.0 252.5 -623.0 307.0 -625.0 360.0 -627.0 413.0 -629.5 452.0 -631.0 491.5 -633.0 504.0 -634.0 L508.0 -484.5 Q494.0 -484.5 465.0 -483.5 435.5 -483.0 402.5 -482.0 369.0 -481.0 343.5 -480.0 317.5 -479.5 310.5 -479.5 L310.5 -373.5 Q318.0 -373.5 338.5 -374.0 359.0 -375.0 385.5 -376.0 412.0 -377.0 436.5 -378.5 461.5 -380.0 477.5 -381.5 L479.5 -236.5 Q469.5 -236.5 445.5 -237.0 421.5 -237.5 393.5 -238.0 365.0 -238.5 342.0 -239.0 319.0 -239.5 310.5 -239.5 L310.5 -145.0 Q320.0 -145.0 347.0 -144.5 373.5 -144.5 407.0 -144.5 441.0 -144.5 471.5 -145.0 502.0 -145.5 519.5 -147.0" fill-rule="evenodd" stroke="none"/>
    </g>
    <g id="font_Lithos_Pro_Regular_d0">
      <path d="M313.5 -475.0 L313.5 -158.0 Q345.5 -162.0 379.5 -175.5 413.5 -189.5 442.5 -213.0 472.0 -237.0 490.5 -271.0 508.5 -305.5 509.0 -351.0 508.0 -404.5 480.0 -431.0 452.0 -458.0 407.5 -467.0 363.0 -476.0 313.5 -475.0 M96.5 -275.5 L96.5 -383.0 Q96.5 -389.0 96.5 -412.0 96.5 -435.0 96.0 -466.5 95.5 -498.5 95.0 -530.0 94.5 -562.0 94.0 -586.5 93.5 -610.5 92.5 -618.5 179.5 -618.5 244.0 -617.0 309.0 -616.0 359.0 -613.0 409.5 -609.5 451.5 -604.0 543.0 -592.0 600.0 -566.5 657.5 -540.5 688.0 -508.0 718.5 -475.5 730.0 -442.0 741.0 -409.0 740.5 -382.0 739.5 -297.5 702.0 -232.5 665.0 -168.0 600.0 -121.5 535.0 -75.5 451.5 -47.0 368.5 -18.5 276.0 -6.0 183.5 6.5 91.5 4.0 92.5 -8.5 93.0 -38.0 94.0 -67.5 94.5 -105.0 95.0 -142.0 95.5 -178.5 96.0 -214.5 96.5 -241.0 96.5 -267.5 96.5 -275.5" fill-rule="evenodd" stroke="none"/>
    </g>
    <g id="font_Lithos_Pro_Regular_C0">
      <path d="M606.5 -179.0 L606.5 -179.0 616.5 8.5 Q590.0 11.5 561.0 14.0 531.5 16.5 496.0 16.5 370.0 15.5 282.5 -12.5 194.5 -40.5 140.0 -86.0 85.5 -132.0 60.5 -185.5 35.5 -239.5 36.0 -292.0 36.0 -356.0 66.0 -423.5 95.5 -490.5 157.5 -553.0 219.5 -615.5 315.5 -665.0 411.5 -714.5 544.0 -743.5 L589.0 -547.0 Q481.5 -527.0 414.5 -491.5 347.5 -456.0 316.5 -411.0 285.5 -366.0 286.0 -317.5 286.5 -277.5 313.5 -245.0 340.5 -213.0 390.0 -193.5 439.5 -174.5 508.0 -174.0 539.0 -174.0 563.5 -176.0 588.0 -177.5 606.5 -179.0" fill-rule="evenodd" stroke="none"/>
    </g>
    <g id="font_Lithos_Pro_Regular_m0">
      <path d="M195.5 26.5 L9.0 -37.0 Q13.5 -46.5 30.0 -86.0 46.5 -125.0 70.5 -183.5 94.5 -242.0 122.5 -308.5 150.0 -375.5 177.5 -440.0 205.0 -504.5 227.5 -556.5 250.0 -608.5 264.0 -637.0 L278.5 -637.0 Q300.5 -603.5 333.0 -554.0 365.5 -505.0 400.0 -452.5 434.0 -400.5 461.5 -359.0 489.0 -317.0 500.5 -299.0 514.5 -319.5 542.5 -361.5 570.0 -403.0 603.0 -453.0 635.5 -503.0 666.0 -549.0 696.0 -595.0 715.5 -624.0 L730.0 -624.0 Q750.0 -584.0 781.0 -519.0 812.0 -454.5 847.0 -380.0 882.5 -305.5 915.0 -236.0 948.0 -166.5 971.5 -116.5 995.5 -66.5 1003.5 -51.0 L811.0 26.5 Q801.5 5.0 787.5 -30.0 773.0 -64.5 756.5 -105.0 740.0 -145.0 725.0 -182.5 710.0 -219.5 700.0 -246.5 689.5 -273.0 687.0 -280.5 682.0 -273.5 661.0 -244.0 640.0 -214.5 610.0 -173.0 580.0 -131.0 548.0 -87.5 516.0 -44.0 489.5 -9.5 L475.0 -9.5 Q447.5 -47.5 418.5 -90.0 389.0 -132.0 362.5 -171.0 336.0 -210.0 317.0 -238.0 298.5 -266.5 292.5 -276.5 288.5 -262.5 279.0 -231.5 270.0 -201.0 258.0 -162.0 245.5 -123.5 233.5 -85.0 221.0 -46.5 211.0 -16.5 201.0 13.5 195.5 26.5" fill-rule="evenodd" stroke="none"/>
    </g>
    <g id="font_Lithos_Pro_Regular_p0">
      <path d="M311.5 -491.5 L311.5 -278.5 Q337.5 -279.5 364.5 -293.5 392.0 -307.0 411.0 -334.0 430.0 -360.5 431.0 -400.5 432.5 -437.5 406.0 -461.5 380.0 -485.5 311.5 -491.5 M312.5 0.0 L93.5 0.0 Q93.5 -15.5 94.0 -55.5 94.0 -95.5 94.5 -145.5 95.0 -195.0 95.0 -240.0 95.5 -284.5 95.5 -309.5 L95.5 -404.5 Q95.5 -411.5 95.5 -433.5 95.0 -455.5 95.0 -485.0 94.5 -514.5 94.0 -543.5 94.0 -572.5 93.5 -593.0 93.5 -614.0 93.5 -618.5 192.0 -618.5 264.0 -616.5 336.0 -615.0 388.0 -610.0 440.0 -605.0 478.0 -596.0 525.5 -585.5 565.0 -564.0 604.5 -542.5 628.5 -508.0 652.5 -474.0 653.0 -425.0 653.0 -363.5 613.5 -307.0 574.5 -250.5 498.5 -208.5 422.5 -166.5 311.5 -149.5 L311.5 -127.0 Q311.5 -120.0 311.5 -102.5 311.5 -85.0 311.5 -64.0 311.5 -43.0 312.0 -25.0 312.0 -7.5 312.5 0.0" fill-rule="evenodd" stroke="none"/>
    </g>
    <g id="font_Lithos_Pro_Regular_l0">
      <path d="M93.5 -618.5 L322.5 -618.5 Q322.0 -610.0 321.5 -577.0 320.5 -544.0 319.5 -497.0 319.0 -450.5 318.0 -401.0 317.5 -351.0 317.5 -309.0 L317.5 -156.5 Q330.0 -156.5 364.5 -156.5 399.0 -157.0 442.5 -157.5 486.0 -158.5 524.5 -160.5 L525.5 9.5 Q516.0 9.5 477.5 8.5 439.0 7.5 384.5 6.0 330.0 5.0 272.5 3.5 215.0 2.0 167.5 1.0 119.5 0.0 94.5 0.0 95.0 -18.5 95.5 -56.0 96.0 -93.5 96.5 -136.0 96.5 -178.5 96.5 -211.0 96.5 -244.0 96.5 -252.5 L96.5 -368.5 Q96.5 -373.5 96.5 -398.5 96.0 -423.0 95.5 -457.5 95.5 -492.5 95.0 -527.0 94.5 -562.0 94.0 -587.0 94.0 -612.5 93.5 -618.5" fill-rule="evenodd" stroke="none"/>
    </g>
    <g id="font_Lithos_Pro_Regular_t0">
      <path d="M421.5 0.0 L194.5 0.0 Q195.0 -12.5 195.5 -51.5 196.0 -90.5 196.0 -141.5 196.5 -192.5 196.5 -241.0 L196.5 -461.0 Q181.5 -461.0 153.5 -460.5 125.0 -459.5 93.0 -459.0 61.5 -458.0 35.0 -457.0 8.5 -456.5 -3.0 -456.0 L-3.0 -616.5 Q10.0 -615.0 40.5 -614.0 70.5 -613.0 108.5 -612.0 146.0 -611.5 181.5 -610.5 217.5 -610.0 242.0 -609.5 266.5 -609.5 270.0 -609.5 L351.0 -609.5 Q357.0 -609.5 381.0 -609.5 405.0 -610.0 439.0 -610.5 473.5 -611.5 509.0 -612.0 544.5 -613.0 574.0 -614.0 603.0 -615.0 617.0 -616.5 L617.0 -456.0 Q609.5 -456.5 580.0 -457.0 550.5 -458.0 514.5 -459.0 478.5 -459.5 451.0 -460.5 423.0 -461.0 418.5 -461.0 L418.5 -227.5 Q418.5 -181.0 419.0 -132.5 419.0 -83.5 420.0 -46.5 420.5 -10.0 421.5 0.0" fill-rule="evenodd" stroke="none"/>
    </g>
    <g id="font_Lithos_Pro_Regular_s0">
      <path d="M79.5 17.5 L56.0 -138.5 Q107.5 -137.0 154.0 -142.5 201.0 -148.0 231.0 -161.0 261.0 -173.5 262.0 -194.5 263.5 -208.5 243.0 -222.0 223.0 -236.0 167.0 -260.0 136.0 -273.5 105.0 -293.0 73.5 -312.5 52.0 -341.5 30.5 -370.0 29.5 -411.0 30.0 -465.5 77.5 -514.5 125.5 -563.0 214.0 -596.5 303.0 -629.5 427.0 -637.0 L451.5 -479.5 Q356.0 -480.0 308.0 -471.0 260.0 -461.5 260.0 -434.5 260.0 -418.0 284.5 -405.5 308.5 -393.0 354.0 -376.0 380.5 -366.5 413.0 -349.5 445.0 -332.5 469.5 -304.0 493.5 -276.0 494.5 -232.5 495.0 -178.0 452.0 -125.5 409.0 -72.5 317.5 -33.5 225.5 5.0 79.5 17.5" fill-rule="evenodd" stroke="none"/>
    </g>
    <g id="font_Lithos_Pro_Regular_a0">
      <path d="M301.0 -222.5 L454.5 -229.5 Q434.5 -268.0 413.0 -306.5 391.5 -345.0 378.0 -373.0 361.0 -340.5 340.0 -300.0 319.5 -259.5 301.0 -222.5 M184.5 29.5 L0.0 -65.0 Q7.5 -76.5 30.5 -114.0 54.0 -152.0 88.0 -206.5 121.5 -261.5 161.0 -324.0 200.0 -387.0 239.5 -449.0 279.0 -511.5 313.5 -564.0 347.5 -616.5 371.5 -650.5 L391.0 -650.5 Q426.0 -602.0 472.5 -535.0 518.5 -467.5 568.5 -394.0 618.5 -321.0 664.0 -254.0 709.5 -187.0 742.0 -139.0 775.0 -91.0 787.5 -75.0 L599.0 28.5 Q584.5 6.5 567.0 -22.0 549.5 -50.5 535.5 -73.5 521.5 -96.5 517.0 -102.5 L243.5 -89.5 Q241.0 -84.5 230.5 -64.0 220.5 -43.5 207.5 -18.0 195.0 8.0 184.5 29.5" fill-rule="evenodd" stroke="none"/>
    </g>
    <g id="font_Lithos_Pro_Regular_g0">
      <path d="M632.0 -198.5 L632.0 -135.0 Q632.0 -117.0 632.5 -90.5 633.0 -64.0 633.5 -40.0 634.0 -16.0 634.0 -6.0 619.5 -2.5 588.5 2.0 557.0 7.0 514.5 10.5 472.0 14.5 424.0 14.5 286.5 13.5 200.0 -22.0 113.5 -58.0 73.0 -116.5 32.5 -175.0 33.0 -244.5 32.5 -285.5 55.5 -340.5 78.0 -395.5 133.5 -452.5 188.5 -510.0 284.5 -558.5 380.5 -606.5 525.5 -634.0 L568.5 -453.5 Q518.0 -448.0 465.5 -432.5 413.5 -417.5 368.5 -393.0 323.5 -368.0 296.0 -333.5 268.5 -298.5 267.5 -253.5 268.5 -211.0 293.5 -185.5 318.0 -160.0 354.0 -149.5 389.5 -138.5 424.0 -140.0 L424.0 -205.5 Q424.0 -223.5 423.0 -243.0 422.0 -262.0 422.0 -285.5 L633.0 -285.5 Q632.0 -255.5 632.0 -236.0 632.0 -217.0 632.0 -198.5" fill-rule="evenodd" stroke="none"/>
    </g>
    <g id="font_Lithos_Pro_Regular_50">
      <path d="M370.0 -568.5 L370.0 -568.5 357.5 -496.0 Q448.0 -488.0 506.0 -468.5 563.5 -449.0 595.0 -421.0 626.5 -393.0 639.0 -359.0 651.0 -325.5 650.5 -289.0 650.0 -221.0 592.5 -155.5 535.5 -90.5 429.0 -41.5 322.5 7.0 174.5 25.5 L145.5 -144.5 Q183.0 -147.0 226.0 -154.5 268.5 -162.0 307.0 -175.5 345.5 -189.5 370.0 -210.5 394.5 -231.0 395.5 -260.5 395.5 -303.0 339.0 -323.5 282.5 -343.5 170.5 -346.5 L217.5 -727.0 Q247.0 -727.5 291.5 -728.5 336.0 -730.0 387.0 -731.5 438.0 -733.0 487.5 -735.0 537.5 -737.0 578.0 -738.5 618.5 -740.0 642.5 -741.5 L641.5 -556.5 370.0 -568.5" fill-rule="evenodd" stroke="none"/>
    </g>
    <g id="font_Lithos_Pro_Regular_f0">
      <path d="M314.5 0.0 L93.5 0.0 Q94.5 -18.5 95.0 -56.0 96.0 -93.5 96.0 -136.0 96.5 -178.5 96.5 -211.0 96.5 -244.0 96.5 -253.0 L96.5 -368.5 Q96.5 -373.5 96.5 -397.5 96.0 -421.5 95.5 -455.0 95.5 -489.0 95.0 -523.5 94.5 -558.0 94.0 -584.0 94.0 -610.0 93.5 -618.5 125.5 -618.5 179.0 -620.0 233.0 -621.5 295.5 -623.5 358.0 -625.5 416.0 -627.5 474.0 -629.5 514.0 -631.0 L518.5 -481.0 313.5 -477.0 313.5 -351.0 Q329.0 -351.0 375.5 -353.5 422.5 -356.0 501.0 -359.0 L503.0 -215.0 313.5 -217.0 313.5 -147.5 Q313.5 -141.0 313.5 -120.0 314.0 -99.0 314.0 -73.0 314.0 -47.0 314.5 -26.0 314.5 -5.5 314.5 0.0" fill-rule="evenodd" stroke="none"/>
    </g>
    <g id="font_Lithos_Pro_Regular_h0">
      <path d="M323.5 0.0 L96.5 0.0 Q97.0 -12.0 97.0 -40.0 97.5 -67.5 97.5 -103.0 98.0 -138.0 98.0 -172.5 98.5 -206.5 98.5 -231.5 98.5 -256.5 98.5 -264.0 L98.5 -358.0 Q98.5 -363.5 98.5 -389.0 98.0 -414.5 97.5 -450.0 97.5 -486.0 97.0 -522.0 96.0 -558.0 95.5 -584.5 95.0 -611.0 94.5 -618.5 L324.5 -618.5 Q324.0 -611.0 323.0 -582.5 322.0 -554.0 321.5 -518.0 320.5 -482.5 320.0 -454.0 319.5 -425.5 319.5 -418.5 L319.5 -388.0 544.0 -404.0 544.0 -437.0 Q544.0 -443.5 543.5 -468.5 543.5 -494.0 543.0 -526.0 542.0 -557.5 541.5 -584.0 540.5 -610.0 540.0 -618.5 L769.0 -618.5 Q768.5 -611.0 768.0 -582.5 767.5 -553.5 767.0 -514.5 766.5 -475.0 766.0 -436.0 765.5 -396.5 765.5 -368.0 765.0 -339.5 765.0 -332.5 L765.0 -245.5 Q765.0 -241.5 765.0 -217.5 765.5 -193.5 766.0 -159.0 766.0 -125.0 766.5 -90.5 767.5 -56.0 768.0 -31.0 768.5 -6.0 769.0 0.0 L540.0 0.0 Q540.5 -12.0 541.0 -39.5 541.5 -67.0 542.5 -98.5 543.0 -130.5 543.5 -155.5 544.0 -180.5 544.0 -187.5 L544.0 -247.5 319.5 -231.5 319.5 -206.0 Q319.5 -190.0 320.0 -159.5 320.5 -129.5 321.0 -95.5 322.0 -62.0 322.5 -35.0 323.0 -8.5 323.5 0.0" fill-rule="evenodd" stroke="none"/>
    </g>
    <g id="font_Lithos_Pro_Regular_R0">
      <path d="M333.5 -584.5 L333.5 -584.5 333.5 -312.5 Q333.5 -300.0 334.0 -267.0 334.0 -233.5 334.5 -190.5 335.0 -147.0 336.0 -105.5 336.5 -64.0 337.5 -34.5 338.0 -5.5 338.5 0.0 L110.5 0.0 Q111.5 -8.5 112.5 -46.0 113.0 -83.0 113.0 -134.5 113.0 -186.0 113.0 -237.5 113.0 -289.0 112.5 -325.5 112.5 -362.5 112.5 -370.0 L112.5 -454.0 Q112.5 -464.0 112.5 -492.0 112.0 -520.0 111.5 -557.0 111.0 -594.0 110.5 -630.5 110.0 -667.0 109.0 -693.0 108.5 -719.5 107.5 -726.0 178.0 -726.0 246.5 -725.0 314.5 -724.0 375.0 -721.0 435.5 -717.5 482.0 -711.5 596.0 -697.0 655.5 -653.0 715.0 -609.5 715.5 -538.5 714.5 -476.0 679.5 -426.0 644.0 -376.0 583.5 -334.0 596.0 -320.0 626.0 -289.0 656.0 -257.5 692.0 -220.5 727.5 -183.5 757.0 -152.5 786.5 -121.5 797.5 -108.5 L610.0 32.5 Q602.5 20.0 577.5 -16.5 553.0 -53.0 520.0 -101.5 486.5 -150.5 453.5 -199.5 420.0 -248.5 394.5 -286.0 369.0 -324.0 360.0 -338.5 383.5 -351.5 410.5 -374.0 438.0 -396.5 457.5 -426.0 477.0 -455.0 478.0 -489.5 478.5 -514.0 465.0 -535.5 452.0 -556.5 420.0 -570.0 388.5 -583.5 333.5 -584.5" fill-rule="evenodd" stroke="none"/>
    </g>
    <g id="font_Lithos_Pro_Regular_n0">
      <path d="M264.0 6.0 L62.5 0.0 Q64.0 -16.0 67.0 -59.5 69.5 -103.0 73.0 -163.5 76.5 -224.0 80.5 -291.5 84.0 -359.5 88.0 -424.5 91.5 -489.5 95.0 -542.0 98.0 -594.0 100.5 -624.0 L116.5 -629.0 Q157.0 -603.0 210.5 -566.5 264.0 -530.0 321.0 -490.5 378.5 -451.0 428.5 -415.5 479.0 -380.0 512.5 -355.0 546.5 -330.5 553.0 -324.0 553.0 -338.5 553.0 -369.5 552.5 -400.0 552.5 -438.5 552.0 -477.0 552.0 -515.0 551.5 -552.5 551.5 -582.0 551.5 -611.0 552.0 -623.0 L752.5 -618.5 Q749.5 -583.5 745.5 -532.0 741.5 -480.5 737.5 -419.0 734.0 -357.5 730.5 -293.0 726.5 -229.5 723.5 -170.0 720.0 -111.0 717.5 -63.5 715.0 -16.0 714.0 13.5 L697.5 17.5 Q668.5 0.0 620.0 -33.0 571.5 -66.0 515.0 -106.0 458.5 -145.5 405.0 -184.0 352.0 -222.5 313.5 -250.5 275.5 -279.0 263.0 -289.0 263.0 -274.5 263.0 -243.5 263.0 -212.0 263.0 -173.0 263.0 -134.0 263.0 -96.0 263.5 -58.0 263.5 -30.0 263.5 -2.5 264.0 6.0" fill-rule="evenodd" stroke="none"/>
    </g>
    <g id="font_Lithos_Pro_Regular_i0">
      <path d="M315.5 -357.5 L315.5 -263.0 Q315.5 -229.5 316.0 -188.0 316.5 -146.5 317.0 -106.5 318.0 -66.5 318.5 -37.5 319.0 -8.5 319.5 0.0 L92.5 0.0 Q93.0 -12.0 93.0 -40.0 93.5 -67.5 93.5 -103.0 94.0 -138.0 94.0 -172.5 94.5 -206.5 94.5 -231.5 94.5 -256.5 94.5 -264.0 L94.5 -358.5 Q94.5 -364.0 94.5 -389.5 94.0 -414.5 94.0 -450.5 93.5 -486.0 93.0 -522.0 93.0 -558.0 92.5 -584.5 92.5 -611.0 92.5 -618.5 L319.5 -618.5 Q319.0 -611.5 318.5 -585.5 318.0 -559.0 317.0 -521.0 316.5 -482.5 316.0 -440.0 315.5 -397.0 315.5 -357.5" fill-rule="evenodd" stroke="none"/>
    </g>
  </defs>
</svg>
