<?xml version="1.0" encoding="UTF-8" standalone="no"?>
<svg xmlns:ffdec="https://www.free-decompiler.com/flash" xmlns:xlink="http://www.w3.org/1999/xlink" ffdec:objectType="text" height="35.1px" width="113.35px" xmlns="http://www.w3.org/2000/svg">
  <g transform="matrix(1.0, 0.0, 0.0, 1.0, 2.0, 2.0)">
    <g transform="matrix(1.0, 0.0, 0.0, 1.0, -2.0, -2.0)">
      <use fill="#fac87c" height="35.1" transform="matrix(0.0215, 0.0, 0.0, 0.0215, 27.2, 23.25)" width="113.35" xlink:href="#font_Lithos_Pro_Regular_Q0"/>
      <use fill="#fac87c" height="35.1" transform="matrix(0.0215, 0.0, 0.0, 0.0215, 47.05, 23.25)" width="113.35" xlink:href="#font_Lithos_Pro_Regular_u0"/>
      <use fill="#fac87c" height="35.1" transform="matrix(0.0215, 0.0, 0.0, 0.0215, 64.05, 23.25)" width="113.35" xlink:href="#font_Lithos_Pro_Regular_i0"/>
      <use fill="#fac87c" height="35.1" transform="matrix(0.0215, 0.0, 0.0, 0.0215, 72.9, 23.25)" width="113.35" xlink:href="#font_Lithos_Pro_Regular_t0"/>
    </g>
  </g>
  <defs>
    <g id="font_Lithos_Pro_Regular_Q0">
      <path d="M291.0 -345.0 L291.0 -345.0 Q292.0 -262.0 316.5 -216.5 341.5 -171.5 376.5 -154.5 412.0 -137.0 445.5 -138.0 487.0 -137.0 529.5 -159.0 572.0 -180.5 601.5 -233.5 630.5 -286.5 631.5 -379.0 630.5 -459.0 607.0 -504.0 583.0 -549.0 548.0 -567.5 512.5 -585.5 476.0 -585.0 416.5 -584.5 375.5 -553.0 334.0 -521.5 312.5 -467.5 291.0 -413.5 291.0 -345.0 M917.5 -59.0 L917.5 -59.0 894.5 114.0 Q807.5 93.5 713.5 71.0 619.5 49.0 532.5 31.0 493.0 23.0 468.0 19.5 443.0 15.5 428.0 15.5 415.0 15.5 384.5 12.5 354.0 9.5 313.5 0.0 273.0 -10.0 230.5 -29.5 188.0 -49.0 150.5 -81.5 100.0 -127.5 71.0 -192.0 41.5 -256.5 41.0 -336.0 41.5 -419.5 72.0 -493.0 102.5 -566.5 160.0 -622.5 218.0 -679.0 300.0 -711.0 381.5 -743.0 484.5 -743.5 608.0 -743.0 697.0 -699.5 786.0 -656.5 834.0 -577.5 882.0 -498.5 882.5 -390.0 881.5 -312.0 856.0 -249.5 830.5 -187.5 788.5 -142.5 746.5 -97.5 696.0 -72.5 L696.0 -65.5 Q749.0 -63.0 801.5 -62.0 854.5 -60.5 917.5 -59.0" fill-rule="evenodd" stroke="none"/>
    </g>
    <g id="font_Lithos_Pro_Regular_u0">
      <path d="M289.0 -462.0 L289.0 -403.5 Q288.5 -334.5 292.0 -288.5 295.0 -242.5 304.0 -213.5 313.0 -184.5 331.0 -165.5 345.5 -150.5 363.5 -143.5 381.0 -137.0 402.5 -137.0 427.0 -137.0 446.5 -146.5 465.5 -156.5 478.5 -175.0 488.0 -187.5 493.5 -204.0 499.0 -220.0 501.5 -247.5 504.0 -275.0 504.5 -321.5 505.0 -368.0 505.0 -441.5 L505.0 -474.0 Q505.0 -520.5 503.0 -561.5 501.0 -602.0 500.0 -627.0 L725.0 -627.0 Q725.0 -617.0 725.0 -593.5 725.5 -570.5 725.5 -539.0 726.0 -507.5 726.0 -472.5 L726.0 -431.5 Q726.5 -348.5 720.5 -285.0 714.5 -221.5 697.0 -172.5 679.5 -123.5 645.0 -84.0 602.0 -35.5 535.5 -10.5 469.0 14.5 390.5 14.5 351.5 15.0 303.5 8.0 255.5 0.5 208.5 -23.0 161.5 -46.5 126.0 -95.0 109.0 -118.0 97.5 -145.0 85.5 -172.0 78.0 -209.0 70.5 -246.5 67.0 -300.5 63.5 -355.0 63.5 -433.5 L63.5 -480.5 Q63.5 -501.5 64.0 -528.0 64.0 -555.0 64.5 -578.5 64.5 -602.0 64.5 -612.5 L294.0 -612.5 Q291.5 -595.5 290.5 -558.5 289.0 -521.0 289.0 -462.0" fill-rule="evenodd" stroke="none"/>
    </g>
    <g id="font_Lithos_Pro_Regular_i0">
      <path d="M315.5 -357.5 L315.5 -263.0 Q315.5 -229.5 316.0 -188.0 316.5 -146.5 317.0 -106.5 318.0 -66.5 318.5 -37.5 319.0 -8.5 319.5 0.0 L92.5 0.0 Q93.0 -12.0 93.0 -40.0 93.5 -67.5 93.5 -103.0 94.0 -138.0 94.0 -172.5 94.5 -206.5 94.5 -231.5 94.5 -256.5 94.5 -264.0 L94.5 -358.5 Q94.5 -364.0 94.5 -389.5 94.0 -414.5 94.0 -450.5 93.5 -486.0 93.0 -522.0 93.0 -558.0 92.5 -584.5 92.5 -611.0 92.5 -618.5 L319.5 -618.5 Q319.0 -611.5 318.5 -585.5 318.0 -559.0 317.0 -521.0 316.5 -482.5 316.0 -440.0 315.5 -397.0 315.5 -357.5" fill-rule="evenodd" stroke="none"/>
    </g>
    <g id="font_Lithos_Pro_Regular_t0">
      <path d="M421.5 0.0 L194.5 0.0 Q195.0 -12.5 195.5 -51.5 196.0 -90.5 196.0 -141.5 196.5 -192.5 196.5 -241.0 L196.5 -461.0 Q181.5 -461.0 153.5 -460.5 125.0 -459.5 93.0 -459.0 61.5 -458.0 35.0 -457.0 8.5 -456.5 -3.0 -456.0 L-3.0 -616.5 Q10.0 -615.0 40.5 -614.0 70.5 -613.0 108.5 -612.0 146.0 -611.5 181.5 -610.5 217.5 -610.0 242.0 -609.5 266.5 -609.5 270.0 -609.5 L351.0 -609.5 Q357.0 -609.5 381.0 -609.5 405.0 -610.0 439.0 -610.5 473.5 -611.5 509.0 -612.0 544.5 -613.0 574.0 -614.0 603.0 -615.0 617.0 -616.5 L617.0 -456.0 Q609.5 -456.5 580.0 -457.0 550.5 -458.0 514.5 -459.0 478.5 -459.5 451.0 -460.5 423.0 -461.0 418.5 -461.0 L418.5 -227.5 Q418.5 -181.0 419.0 -132.5 419.0 -83.5 420.0 -46.5 420.5 -10.0 421.5 0.0" fill-rule="evenodd" stroke="none"/>
    </g>
  </defs>
</svg>
