<?xml version="1.0" encoding="UTF-8" standalone="no"?>
<svg xmlns:ffdec="https://www.free-decompiler.com/flash" xmlns:xlink="http://www.w3.org/1999/xlink" ffdec:objectType="text" height="13.1px" width="43.7px" xmlns="http://www.w3.org/2000/svg">
  <g transform="matrix(1.0, 0.0, 0.0, 1.0, -0.7, -3.15)">
    <g transform="matrix(1.0, 0.0, 0.0, 1.0, 0.0, 0.0)">
      <use fill="#5f4728" height="13.1" transform="matrix(0.0156, 0.0, 0.0, 0.0156, 0.0, 15.0)" width="43.7" xlink:href="#font_Constantia_I0"/>
      <use fill="#5f4728" height="13.1" transform="matrix(0.0156, 0.0, 0.0, 0.0156, 6.25, 15.0)" width="43.7" xlink:href="#font_Constantia_T0"/>
      <use fill="#5f4728" height="13.1" transform="matrix(0.0156, 0.0, 0.0, 0.0156, 15.35, 15.0)" width="43.7" xlink:href="#font_Constantia_A0"/>
      <use fill="#5f4728" height="13.1" transform="matrix(0.0156, 0.0, 0.0, 0.0156, 26.05, 15.0)" width="43.7" xlink:href="#font_Constantia_L0"/>
      <use fill="#5f4728" height="13.1" transform="matrix(0.0156, 0.0, 0.0, 0.0156, 34.15, 15.0)" width="43.7" xlink:href="#font_Constantia_Y0"/>
    </g>
  </g>
  <defs>
    <g id="font_Constantia_I0">
      <path d="M275.0 -157.0 L275.0 -557.5 Q275.0 -581.5 275.5 -602.0 275.5 -623.0 276.0 -641.0 277.0 -653.0 289.0 -656.0 L356.0 -674.5 353.5 -700.0 Q284.5 -698.0 197.5 -698.0 113.0 -698.0 43.5 -700.0 L45.0 -674.5 112.0 -655.0 Q123.5 -651.5 124.0 -638.5 124.5 -621.5 125.0 -601.0 125.0 -580.5 125.0 -555.5 L125.0 -157.0 Q125.0 -127.0 125.0 -102.0 124.5 -77.5 124.0 -57.5 123.0 -45.5 110.5 -42.0 L43.5 -23.5 46.0 1.5 Q114.5 0.0 202.0 0.0 286.5 0.0 356.0 1.5 L354.5 -23.5 293.0 -41.0 Q276.5 -45.5 276.0 -58.5 275.5 -78.0 275.5 -102.5 275.0 -127.0 275.0 -157.0" fill-rule="evenodd" stroke="none"/>
    </g>
    <g id="font_Constantia_T0">
      <path d="M320.5 0.0 L320.5 0.0 Q405.0 0.0 488.0 1.5 L486.5 -23.5 408.0 -45.5 Q395.0 -49.5 394.5 -61.5 393.5 -99.0 393.5 -158.0 L393.5 -646.5 538.0 -646.5 570.5 -508.5 598.5 -513.0 631.5 -696.0 628.5 -700.0 Q504.0 -698.0 391.5 -698.0 L252.0 -698.0 Q139.5 -698.0 16.5 -700.0 L13.0 -696.0 26.0 -509.0 54.0 -513.5 100.0 -646.5 244.0 -646.5 244.0 -158.0 Q244.0 -99.0 243.0 -61.5 242.5 -49.5 230.0 -45.5 L150.0 -23.5 152.5 1.5 Q232.5 0.0 320.5 0.0" fill-rule="evenodd" stroke="none"/>
    </g>
    <g id="font_Constantia_A0">
      <path d="M298.0 -509.0 L298.0 -509.0 Q306.0 -483.0 315.5 -454.5 L377.0 -274.0 210.0 -274.0 278.5 -455.0 Q289.0 -483.0 298.0 -509.0 M190.0 -222.0 L395.0 -222.0 428.0 -128.0 Q437.5 -101.5 442.5 -85.0 447.5 -69.0 447.5 -59.0 447.5 -50.0 443.0 -45.5 438.5 -41.0 428.5 -38.0 L379.0 -23.5 381.5 1.5 Q467.5 0.0 558.0 0.0 626.5 0.0 694.0 1.5 L692.5 -23.5 643.5 -38.0 Q624.5 -43.5 614.5 -55.5 604.0 -68.0 591.5 -103.0 L376.0 -711.0 322.0 -703.0 73.0 -96.5 Q62.0 -70.5 53.0 -57.5 44.0 -45.0 25.0 -39.5 L-28.5 -23.5 -26.0 1.5 Q35.0 0.0 82.5 0.0 128.0 0.0 200.5 1.5 L199.0 -24.5 151.0 -38.5 Q141.5 -41.0 137.0 -45.5 132.5 -50.0 132.5 -58.5 132.5 -67.5 138.5 -84.0 144.0 -101.0 154.5 -128.5 L190.0 -222.0" fill-rule="evenodd" stroke="none"/>
    </g>
    <g id="font_Constantia_L0">
      <path d="M275.0 -557.5 L275.0 -557.5 Q275.0 -556.5 275.5 -589.5 275.5 -623.0 276.0 -641.0 277.0 -653.0 289.0 -656.0 L351.0 -674.5 348.5 -700.0 Q284.5 -698.0 197.5 -698.0 113.0 -698.0 48.5 -700.0 L50.0 -674.5 112.0 -655.0 Q123.5 -651.5 124.0 -638.5 124.5 -621.5 125.0 -601.0 125.0 -580.5 125.0 -555.5 L125.0 -157.0 Q125.0 -127.0 125.0 -102.0 124.5 -77.5 124.0 -57.5 123.0 -45.5 110.5 -42.0 L48.5 -23.5 51.0 1.5 Q114.5 0.0 189.0 0.0 L313.0 0.0 Q431.0 0.0 554.5 1.5 L558.0 -2.0 570.5 -199.5 540.0 -195.0 471.5 -53.0 276.0 -53.0 Q275.0 -107.0 275.0 -162.0 L275.0 -557.5" fill-rule="evenodd" stroke="none"/>
    </g>
    <g id="font_Constantia_Y0">
      <path d="M372.0 -378.5 L260.5 -581.5 Q248.0 -602.0 241.0 -617.0 234.0 -632.0 234.0 -642.5 234.0 -650.0 239.5 -654.5 245.0 -659.5 256.5 -662.0 L307.5 -674.5 305.0 -700.0 Q215.5 -698.0 115.5 -698.0 24.5 -698.0 -25.0 -700.0 L-23.0 -674.5 25.0 -661.0 Q44.5 -655.0 56.5 -641.5 68.0 -628.5 86.5 -598.0 L249.0 -307.0 249.0 -157.0 Q249.0 -127.0 248.5 -102.0 248.0 -77.5 247.5 -57.5 246.5 -45.5 234.0 -42.0 L172.0 -23.5 174.5 1.5 Q238.5 0.0 325.5 0.0 410.0 0.0 474.5 1.5 L473.0 -23.5 417.0 -41.0 Q400.0 -45.5 399.5 -58.5 399.0 -78.0 399.0 -102.5 398.5 -127.0 398.5 -157.0 L398.5 -319.0 556.5 -611.5 Q566.5 -629.5 576.5 -641.0 586.0 -653.0 604.0 -659.0 L657.0 -674.5 654.5 -700.0 Q600.5 -698.0 545.0 -698.0 484.0 -698.0 428.5 -700.0 L430.0 -673.5 475.0 -661.5 Q497.5 -655.5 497.5 -640.5 497.5 -629.5 489.5 -612.0 481.5 -594.5 468.0 -569.5 L372.0 -378.5" fill-rule="evenodd" stroke="none"/>
    </g>
  </defs>
</svg>
