<?xml version="1.0" encoding="UTF-8" standalone="no"?>
<svg xmlns:ffdec="https://www.free-decompiler.com/flash" xmlns:xlink="http://www.w3.org/1999/xlink" ffdec:objectType="text" height="10.55px" width="42.55px" xmlns="http://www.w3.org/2000/svg">
  <g transform="matrix(1.0, 0.0, 0.0, 1.0, -55.2, 0.15)">
    <g transform="matrix(1.0, 0.0, 0.0, 1.0, 55.0, 0.0)">
      <use fill="#cd9e3f" height="10.55" transform="matrix(0.0098, 0.0, 0.0, 0.0098, 0.0, 9.0)" width="42.55" xlink:href="#font_Lithos_Pro_Regular_A0"/>
      <use fill="#cd9e3f" height="10.55" transform="matrix(0.0098, 0.0, 0.0, 0.0098, 7.35, 9.0)" width="42.55" xlink:href="#font_Lithos_Pro_Regular_t0"/>
      <use fill="#cd9e3f" height="10.55" transform="matrix(0.0098, 0.0, 0.0, 0.0098, 13.0, 9.0)" width="42.55" xlink:href="#font_Lithos_Pro_Regular_t0"/>
      <use fill="#cd9e3f" height="10.55" transform="matrix(0.0098, 0.0, 0.0, 0.0098, 18.2, 9.0)" width="42.55" xlink:href="#font_Lithos_Pro_Regular_a0"/>
      <use fill="#cd9e3f" height="10.55" transform="matrix(0.0098, 0.0, 0.0, 0.0098, 25.3, 9.0)" width="42.55" xlink:href="#font_Lithos_Pro_Regular_c0"/>
      <use fill="#cd9e3f" height="10.55" transform="matrix(0.0098, 0.0, 0.0, 0.0098, 31.15, 9.0)" width="42.55" xlink:href="#font_Lithos_Pro_Regular_k0"/>
    </g>
  </g>
  <defs>
    <g id="font_Lithos_Pro_Regular_A0">
      <path d="M253.0 -300.0 L543.0 -312.0 Q539.0 -319.5 524.0 -348.0 509.5 -376.5 489.0 -415.0 468.5 -453.5 448.5 -491.5 428.0 -529.5 413.5 -556.5 399.0 -584.0 395.5 -589.5 390.5 -582.0 375.5 -552.5 361.0 -523.0 341.5 -482.5 322.0 -442.5 302.5 -402.5 283.5 -362.5 270.0 -334.0 256.0 -305.5 253.0 -300.0 M104.5 19.5 L20.5 -34.0 Q35.0 -59.5 66.5 -118.5 97.5 -177.5 137.5 -255.0 178.0 -333.0 220.5 -415.5 263.0 -498.0 300.5 -570.5 338.0 -643.5 364.0 -692.5 389.5 -741.5 396.5 -752.5 L398.5 -752.5 Q421.5 -715.5 454.5 -656.5 488.0 -597.5 527.5 -526.5 566.5 -455.5 607.5 -381.0 648.0 -307.0 685.5 -239.0 723.0 -171.0 753.0 -118.5 783.0 -66.5 801.0 -39.0 L714.0 18.5 Q707.5 6.0 692.5 -22.5 677.5 -51.0 659.0 -87.0 640.0 -123.0 622.0 -157.5 603.5 -192.0 590.5 -216.5 577.5 -241.0 573.5 -246.5 L218.0 -232.5 Q214.5 -226.0 203.5 -202.0 192.5 -178.0 178.0 -145.5 163.5 -112.5 148.5 -78.5 133.5 -45.0 122.0 -18.0 110.0 8.5 104.5 19.5" fill-rule="evenodd" stroke="none"/>
    </g>
    <g id="font_Lithos_Pro_Regular_t0">
      <path d="M346.0 0.0 L240.0 0.0 Q241.5 -7.5 242.5 -38.5 243.5 -69.5 244.5 -116.0 245.0 -162.5 245.5 -215.5 245.5 -269.0 246.0 -320.5 246.0 -372.5 246.0 -414.5 L246.0 -536.5 Q206.0 -536.5 164.0 -536.0 122.5 -535.0 86.0 -534.0 49.5 -533.0 25.0 -531.5 0.5 -530.0 -5.0 -528.5 L-5.0 -611.5 Q4.0 -609.5 31.0 -607.5 58.5 -606.0 94.0 -604.5 130.0 -603.5 165.0 -602.5 200.0 -602.0 224.0 -601.5 248.5 -601.0 252.0 -601.0 L334.0 -601.0 Q340.0 -601.0 364.0 -601.5 387.5 -601.5 421.0 -602.5 454.0 -603.5 488.0 -604.5 522.0 -606.0 548.0 -607.5 574.0 -609.0 584.0 -611.5 L584.0 -528.5 Q582.0 -530.0 554.5 -531.5 527.0 -533.0 486.5 -534.0 446.0 -535.0 405.0 -536.0 364.0 -536.5 335.0 -536.5 L335.0 -401.5 Q335.0 -334.0 336.5 -266.5 338.0 -198.5 340.0 -141.0 342.0 -83.0 343.5 -45.0 345.5 -7.5 346.0 0.0" fill-rule="evenodd" stroke="none"/>
    </g>
    <g id="font_Lithos_Pro_Regular_a0">
      <path d="M226.5 -255.0 L476.5 -265.0 Q473.0 -271.5 460.0 -295.0 447.5 -318.5 430.0 -350.5 412.5 -382.5 395.0 -414.0 378.0 -445.5 365.0 -468.0 352.5 -490.5 349.5 -495.5 345.0 -488.5 332.5 -464.0 319.5 -439.5 303.0 -406.0 286.0 -373.0 269.5 -340.0 253.0 -307.0 241.0 -283.5 229.5 -260.0 226.5 -255.0 M93.5 18.5 L14.5 -26.5 Q27.5 -49.5 55.0 -100.0 83.0 -150.5 119.0 -216.5 155.0 -283.0 193.5 -353.0 231.5 -423.5 265.0 -485.0 299.0 -547.0 322.0 -589.0 345.0 -630.5 350.5 -640.0 L352.5 -640.0 Q376.5 -601.5 414.5 -538.0 452.0 -474.0 496.0 -399.0 540.0 -323.5 582.5 -250.0 625.5 -176.5 660.0 -119.0 694.0 -61.0 713.0 -32.5 L630.0 17.5 Q623.0 4.0 605.5 -28.5 587.5 -61.0 566.5 -99.0 545.5 -137.0 529.0 -166.5 512.0 -196.0 508.0 -202.5 L191.5 -190.5 Q186.5 -179.0 173.0 -150.5 159.5 -121.5 143.5 -86.5 127.0 -52.0 113.0 -23.0 99.0 6.5 93.5 18.5" fill-rule="evenodd" stroke="none"/>
    </g>
    <g id="font_Lithos_Pro_Regular_c0">
      <path d="M560.0 -69.0 L569.0 7.5 Q556.0 10.0 525.5 12.0 495.0 14.5 452.5 14.5 334.0 13.5 257.0 -14.0 179.5 -41.5 136.0 -83.0 92.5 -124.5 74.5 -167.5 57.0 -211.0 57.5 -243.5 57.5 -299.5 84.0 -357.5 111.0 -415.5 167.0 -468.5 222.5 -521.5 309.0 -562.5 395.5 -603.0 515.0 -625.0 L529.5 -547.0 Q452.5 -537.5 385.0 -513.0 317.0 -488.0 265.0 -450.0 212.5 -412.5 183.0 -363.5 153.0 -315.0 152.5 -258.0 152.0 -206.0 183.5 -160.5 214.5 -115.5 283.0 -88.0 351.0 -60.0 461.5 -59.0 490.5 -59.0 517.0 -62.0 543.5 -65.0 560.0 -69.0" fill-rule="evenodd" stroke="none"/>
    </g>
    <g id="font_Lithos_Pro_Regular_k0">
      <path d="M621.5 -61.5 L558.0 8.5 Q553.5 4.0 523.0 -26.5 493.0 -56.5 449.0 -100.5 405.0 -144.0 359.5 -189.5 314.0 -235.5 278.5 -271.0 243.0 -306.5 230.0 -320.5 235.5 -326.0 265.5 -353.5 295.5 -381.5 337.5 -421.0 379.5 -460.5 421.5 -500.5 464.0 -540.5 495.0 -569.5 526.0 -599.0 533.0 -606.5 L587.5 -540.0 Q572.5 -528.5 540.0 -501.0 507.0 -473.5 467.0 -440.0 427.0 -406.0 392.0 -375.5 356.5 -345.0 336.5 -327.0 346.0 -316.0 373.5 -289.5 401.5 -262.5 438.5 -228.0 476.0 -193.5 513.5 -159.0 551.0 -124.5 580.5 -98.0 609.5 -72.0 621.5 -61.5 M228.0 9.5 L130.0 9.5 Q130.5 -1.0 131.5 -30.0 132.5 -59.0 133.0 -99.0 134.0 -139.5 134.5 -182.5 135.0 -225.5 135.0 -263.0 L135.0 -355.5 Q135.0 -385.0 134.0 -426.0 133.5 -466.5 132.5 -508.0 131.5 -549.5 130.5 -580.0 130.0 -610.5 130.0 -619.0 L228.0 -619.0 Q227.5 -612.5 227.0 -583.5 226.0 -554.5 225.0 -514.5 224.5 -474.0 223.5 -433.5 223.0 -393.0 223.0 -363.5 L223.0 -270.5 Q223.0 -244.0 223.5 -200.5 224.0 -157.5 225.0 -111.5 225.5 -66.0 226.5 -32.0 227.5 1.5 228.0 9.5" fill-rule="evenodd" stroke="none"/>
    </g>
  </defs>
</svg>
