<?xml version="1.0" encoding="UTF-8" standalone="no"?>
<svg xmlns:ffdec="https://www.free-decompiler.com/flash" xmlns:xlink="http://www.w3.org/1999/xlink" ffdec:objectType="text" height="15.75px" width="61.1px" xmlns="http://www.w3.org/2000/svg">
  <g transform="matrix(1.0, 0.0, 0.0, 1.0, -53.0, 2.0)">
    <g transform="matrix(1.0, 0.0, 0.0, 1.0, 53.0, -2.0)">
      <use fill="#ffcc00" height="15.75" transform="matrix(0.0098, 0.0, 0.0, 0.0098, 0.0, 11.2)" width="61.1" xlink:href="#font_Lithos_Pro_Regular_M0"/>
      <use fill="#ffcc00" height="15.75" transform="matrix(0.0098, 0.0, 0.0, 0.0098, 10.95, 11.2)" width="61.1" xlink:href="#font_Lithos_Pro_Regular_e0"/>
      <use fill="#ffcc00" height="15.75" transform="matrix(0.0098, 0.0, 0.0, 0.0098, 16.25, 11.2)" width="61.1" xlink:href="#font_Lithos_Pro_Regular_l0"/>
      <use fill="#ffcc00" height="15.75" transform="matrix(0.0098, 0.0, 0.0, 0.0098, 21.15, 11.2)" width="61.1" xlink:href="#font_Lithos_Pro_Regular_e0"/>
      <use fill="#ffcc00" height="15.75" transform="matrix(0.0098, 0.0, 0.0, 0.0098, 26.45, 11.2)" width="61.1" xlink:href="#font_Lithos_Pro_Regular_e0"/>
    </g>
  </g>
  <defs>
    <g id="font_Lithos_Pro_Regular_M0">
      <path d="M127.0 26.5 L43.0 -5.5 Q47.5 -15.5 62.5 -58.0 77.5 -100.0 99.0 -164.0 120.5 -228.0 145.5 -302.0 170.5 -376.0 195.0 -450.0 219.0 -523.5 239.5 -585.5 260.0 -647.5 272.5 -687.0 285.5 -727.0 286.5 -733.0 L288.5 -733.0 Q297.0 -716.0 316.5 -677.5 336.0 -639.0 362.0 -587.5 388.0 -536.0 416.5 -481.0 445.0 -425.5 471.0 -375.0 497.0 -325.0 516.5 -288.5 535.5 -252.0 543.5 -238.5 553.0 -253.5 574.5 -290.5 596.0 -327.5 625.0 -377.0 653.5 -426.5 684.0 -479.5 714.5 -532.5 741.5 -580.0 769.0 -627.5 787.5 -660.0 806.5 -692.5 812.0 -701.0 L814.0 -701.0 Q823.0 -679.5 843.0 -628.5 862.5 -577.5 888.0 -509.0 914.0 -440.5 942.5 -365.0 970.5 -290.0 997.0 -219.5 1023.5 -149.0 1044.5 -94.0 1065.5 -39.0 1077.0 -11.5 L989.0 26.5 Q982.0 6.5 966.5 -38.0 950.5 -82.0 929.5 -140.0 908.5 -198.0 886.0 -260.0 863.5 -321.5 843.5 -376.5 823.0 -431.0 809.0 -469.0 794.5 -506.5 790.5 -517.0 778.5 -499.0 753.0 -455.0 727.5 -411.5 695.0 -355.0 662.5 -298.5 629.5 -241.5 596.5 -184.5 570.0 -139.0 543.5 -94.0 530.5 -73.0 L528.5 -73.0 Q505.5 -115.5 473.5 -177.0 441.5 -238.5 407.5 -305.5 374.0 -372.5 345.5 -431.0 317.0 -489.0 301.0 -525.0 295.5 -508.5 282.0 -465.0 268.0 -421.5 249.5 -363.0 231.0 -304.0 211.0 -240.5 191.0 -177.0 173.0 -120.0 155.0 -63.5 142.5 -24.0 130.5 15.5 127.0 26.5" fill-rule="evenodd" stroke="none"/>
    </g>
    <g id="font_Lithos_Pro_Regular_e0">
      <path d="M458.5 -68.5 L461.5 9.5 Q451.5 9.5 417.0 8.5 383.0 7.5 337.5 6.0 292.0 5.0 247.0 3.5 202.0 2.0 170.5 1.0 138.5 0.0 132.0 0.0 133.0 -18.5 133.5 -56.0 134.5 -93.5 134.5 -136.0 135.0 -178.0 135.0 -211.0 135.0 -244.0 135.0 -252.5 L135.0 -368.5 Q135.0 -373.5 135.0 -397.5 134.5 -421.5 134.0 -454.5 134.0 -488.0 133.5 -521.5 133.0 -555.0 132.5 -579.5 132.5 -603.5 132.0 -609.5 139.5 -609.5 168.5 -611.0 197.5 -612.0 238.0 -614.5 278.5 -616.5 320.0 -618.5 362.0 -621.0 395.0 -623.0 428.5 -625.0 443.0 -626.0 L447.0 -552.0 Q431.0 -552.0 397.5 -551.5 364.0 -551.0 326.5 -550.0 288.5 -549.0 259.5 -548.5 231.0 -548.0 224.0 -548.0 L224.0 -334.5 Q231.0 -334.5 253.5 -335.0 276.0 -336.0 305.5 -337.0 335.5 -338.5 365.0 -340.0 394.5 -342.0 416.5 -343.5 L419.5 -269.0 Q407.0 -269.0 378.5 -269.5 350.5 -270.0 317.0 -271.0 284.5 -271.0 258.5 -271.5 232.5 -272.0 224.0 -272.0 L224.0 -65.5 Q233.0 -65.5 258.0 -65.0 283.0 -65.0 317.0 -65.0 351.5 -65.0 388.5 -66.0 425.5 -66.5 458.5 -68.5" fill-rule="evenodd" stroke="none"/>
    </g>
    <g id="font_Lithos_Pro_Regular_l0">
      <path d="M131.0 -609.5 L232.0 -609.5 Q230.5 -601.5 229.0 -570.0 227.5 -538.0 226.5 -493.0 225.5 -448.0 224.5 -399.5 224.0 -351.0 224.0 -309.0 L224.0 -68.5 Q236.0 -68.5 272.0 -68.5 308.0 -69.0 357.0 -69.5 406.0 -70.5 456.5 -72.5 L456.5 9.5 Q446.5 9.5 413.0 8.5 379.5 7.5 334.5 6.0 289.0 5.0 244.5 3.5 199.5 2.0 167.5 1.0 135.0 0.0 127.0 0.0 130.0 -18.5 131.5 -56.0 133.5 -93.5 134.0 -136.0 134.5 -178.5 135.0 -211.0 135.0 -244.0 135.0 -253.0 L135.0 -368.5 Q135.0 -373.5 135.0 -397.5 134.5 -421.5 134.0 -455.0 134.0 -488.5 133.5 -522.0 132.5 -555.0 132.0 -579.5 131.5 -604.0 131.0 -609.5" fill-rule="evenodd" stroke="none"/>
    </g>
  </defs>
</svg>
