<?xml version="1.0" encoding="UTF-8" standalone="no"?>
<svg xmlns:ffdec="https://www.free-decompiler.com/flash" xmlns:xlink="http://www.w3.org/1999/xlink" ffdec:objectType="text" height="10.7px" width="69.35px" xmlns="http://www.w3.org/2000/svg">
  <g transform="matrix(1.0, 0.0, 0.0, 1.0, -55.35, -0.4)">
    <g transform="matrix(1.0, 0.0, 0.0, 1.0, 55.0, 0.0)">
      <use fill="#b68030" height="10.7" transform="matrix(0.0098, 0.0, 0.0, 0.0098, 0.0, 10.0)" width="69.35" xlink:href="#font_Lithos_Pro_Regular_C0"/>
      <use fill="#b68030" height="10.7" transform="matrix(0.0098, 0.0, 0.0, 0.0098, 6.35, 10.0)" width="69.35" xlink:href="#font_Lithos_Pro_Regular_o0"/>
      <use fill="#b68030" height="10.7" transform="matrix(0.0098, 0.0, 0.0, 0.0098, 14.6, 10.0)" width="69.35" xlink:href="#font_Lithos_Pro_Regular_o0"/>
      <use fill="#b68030" height="10.7" transform="matrix(0.0098, 0.0, 0.0, 0.0098, 22.8, 10.0)" width="69.35" xlink:href="#font_Lithos_Pro_Regular_l0"/>
      <use fill="#b68030" height="10.7" transform="matrix(0.0098, 0.0, 0.0, 0.0098, 28.1, 10.0)" width="69.35" xlink:href="#font_Lithos_Pro_Regular_d0"/>
      <use fill="#b68030" height="10.7" transform="matrix(0.0098, 0.0, 0.0, 0.0098, 35.7, 10.0)" width="69.35" xlink:href="#font_Lithos_Pro_Regular_o0"/>
      <use fill="#b68030" height="10.7" transform="matrix(0.0098, 0.0, 0.0, 0.0098, 43.95, 10.0)" width="69.35" xlink:href="#font_Lithos_Pro_Regular_w0"/>
      <use fill="#b68030" height="10.7" transform="matrix(0.0098, 0.0, 0.0, 0.0098, 53.65, 10.0)" width="69.35" xlink:href="#font_Lithos_Pro_Regular_n0"/>
      <use fill="#b68030" height="10.7" transform="matrix(0.0098, 0.0, 0.0, 0.0098, 61.6, 10.0)" width="69.35" xlink:href="#font_Lithos_Pro_Regular_:0"/>
    </g>
  </g>
  <defs>
    <g id="font_Lithos_Pro_Regular_C0">
      <path d="M606.5 -179.0 L606.5 -179.0 616.5 8.5 Q590.0 11.5 561.0 14.0 531.5 16.5 496.0 16.5 370.0 15.5 282.5 -12.5 194.5 -40.5 140.0 -86.0 85.5 -132.0 60.5 -185.5 35.5 -239.5 36.0 -292.0 36.0 -356.0 66.0 -423.5 95.5 -490.5 157.5 -553.0 219.5 -615.5 315.5 -665.0 411.5 -714.5 544.0 -743.5 L589.0 -547.0 Q481.5 -527.0 414.5 -491.5 347.5 -456.0 316.5 -411.0 285.5 -366.0 286.0 -317.5 286.5 -277.5 313.5 -245.0 340.5 -213.0 390.0 -193.5 439.5 -174.5 508.0 -174.0 539.0 -174.0 563.5 -176.0 588.0 -177.5 606.5 -179.0" fill-rule="evenodd" stroke="none"/>
    </g>
    <g id="font_Lithos_Pro_Regular_o0">
      <path d="M409.5 -127.0 L409.5 -127.0 Q482.0 -127.0 524.0 -175.0 565.5 -223.5 566.5 -319.5 566.0 -403.0 531.5 -446.5 496.5 -490.5 432.5 -490.5 382.0 -490.0 347.5 -463.5 313.0 -437.5 295.5 -393.5 277.5 -350.0 277.5 -297.0 278.0 -239.5 296.0 -202.0 313.5 -164.0 343.5 -145.5 373.5 -127.0 409.5 -127.0 M399.5 14.5 L399.5 14.5 Q306.0 13.5 237.5 -12.5 169.5 -39.0 125.5 -82.5 81.5 -126.0 60.0 -178.5 39.0 -230.5 39.0 -283.5 39.0 -347.5 63.5 -409.0 88.5 -470.5 138.5 -521.0 188.5 -571.0 265.0 -601.0 341.5 -631.0 444.5 -632.0 556.5 -631.5 637.0 -595.0 718.0 -558.5 761.0 -490.0 804.5 -422.0 805.0 -325.5 805.5 -275.5 785.5 -217.0 766.0 -159.0 719.5 -106.5 673.5 -54.0 595.0 -20.5 516.5 13.5 399.5 14.5" fill-rule="evenodd" stroke="none"/>
    </g>
    <g id="font_Lithos_Pro_Regular_l0">
      <path d="M93.5 -618.5 L322.5 -618.5 Q322.0 -610.0 321.5 -577.0 320.5 -544.0 319.5 -497.0 319.0 -450.5 318.0 -401.0 317.5 -351.0 317.5 -309.0 L317.5 -156.5 Q330.0 -156.5 364.5 -156.5 399.0 -157.0 442.5 -157.5 486.0 -158.5 524.5 -160.5 L525.5 9.5 Q516.0 9.5 477.5 8.5 439.0 7.5 384.5 6.0 330.0 5.0 272.5 3.5 215.0 2.0 167.5 1.0 119.5 0.0 94.5 0.0 95.0 -18.5 95.5 -56.0 96.0 -93.5 96.5 -136.0 96.5 -178.5 96.5 -211.0 96.5 -244.0 96.5 -252.5 L96.5 -368.5 Q96.5 -373.5 96.5 -398.5 96.0 -423.0 95.5 -457.5 95.5 -492.5 95.0 -527.0 94.5 -562.0 94.0 -587.0 94.0 -612.5 93.5 -618.5" fill-rule="evenodd" stroke="none"/>
    </g>
    <g id="font_Lithos_Pro_Regular_d0">
      <path d="M313.5 -475.0 L313.5 -158.0 Q345.5 -162.0 379.5 -175.5 413.5 -189.5 442.5 -213.0 472.0 -237.0 490.5 -271.0 508.5 -305.5 509.0 -351.0 508.0 -404.5 480.0 -431.0 452.0 -458.0 407.5 -467.0 363.0 -476.0 313.5 -475.0 M96.5 -275.5 L96.5 -383.0 Q96.5 -389.0 96.5 -412.0 96.5 -435.0 96.0 -466.5 95.5 -498.5 95.0 -530.0 94.5 -562.0 94.0 -586.5 93.5 -610.5 92.5 -618.5 179.5 -618.5 244.0 -617.0 309.0 -616.0 359.0 -613.0 409.5 -609.5 451.5 -604.0 543.0 -592.0 600.0 -566.5 657.5 -540.5 688.0 -508.0 718.5 -475.5 730.0 -442.0 741.0 -409.0 740.5 -382.0 739.5 -297.5 702.0 -232.5 665.0 -168.0 600.0 -121.5 535.0 -75.5 451.5 -47.0 368.5 -18.5 276.0 -6.0 183.5 6.5 91.5 4.0 92.5 -8.5 93.0 -38.0 94.0 -67.5 94.5 -105.0 95.0 -142.0 95.5 -178.5 96.0 -214.5 96.5 -241.0 96.5 -267.5 96.5 -275.5" fill-rule="evenodd" stroke="none"/>
    </g>
    <g id="font_Lithos_Pro_Regular_w0">
      <path d="M813.0 -622.0 L1007.5 -549.0 Q1002.5 -540.5 982.5 -500.5 962.5 -460.5 933.5 -401.0 904.0 -341.5 871.0 -274.5 838.0 -208.0 807.0 -146.0 776.0 -84.0 752.5 -38.5 729.5 6.5 719.5 22.5 L706.5 22.5 Q686.5 -1.5 657.5 -38.5 628.5 -76.0 597.5 -116.5 566.5 -157.0 541.0 -191.5 515.5 -225.5 501.5 -244.0 479.0 -214.0 449.5 -174.0 419.5 -134.0 389.0 -92.0 358.0 -50.0 331.5 -14.0 304.5 22.0 287.5 44.0 L274.5 44.0 Q264.5 27.0 244.5 -16.5 224.5 -60.0 198.0 -119.5 172.0 -179.0 143.5 -245.0 115.0 -311.0 88.0 -373.5 61.0 -435.5 40.0 -484.5 18.5 -533.5 7.0 -559.5 L209.0 -630.0 Q221.0 -591.0 238.0 -538.5 255.0 -486.0 272.0 -433.0 289.5 -379.5 303.0 -338.5 316.5 -297.5 322.5 -282.0 330.0 -295.5 356.0 -334.0 381.5 -373.0 419.0 -429.0 456.5 -485.0 499.5 -550.5 L513.0 -550.5 Q575.0 -462.0 623.0 -397.0 671.0 -332.0 697.0 -298.0 L699.0 -298.0 Q704.5 -311.5 716.0 -343.0 727.0 -375.0 741.0 -416.0 755.5 -457.0 769.5 -498.5 783.5 -540.0 795.5 -573.0 807.0 -606.0 813.0 -622.0" fill-rule="evenodd" stroke="none"/>
    </g>
    <g id="font_Lithos_Pro_Regular_n0">
      <path d="M264.0 6.0 L62.5 0.0 Q64.0 -16.0 67.0 -59.5 69.5 -103.0 73.0 -163.5 76.5 -224.0 80.5 -291.5 84.0 -359.5 88.0 -424.5 91.5 -489.5 95.0 -542.0 98.0 -594.0 100.5 -624.0 L116.5 -629.0 Q157.0 -603.0 210.5 -566.5 264.0 -530.0 321.0 -490.5 378.5 -451.0 428.5 -415.5 479.0 -380.0 512.5 -355.0 546.5 -330.5 553.0 -324.0 553.0 -338.5 553.0 -369.5 552.5 -400.0 552.5 -438.5 552.0 -477.0 552.0 -515.0 551.5 -552.5 551.5 -582.0 551.5 -611.0 552.0 -623.0 L752.5 -618.5 Q749.5 -583.5 745.5 -532.0 741.5 -480.5 737.5 -419.0 734.0 -357.5 730.5 -293.0 726.5 -229.5 723.5 -170.0 720.0 -111.0 717.5 -63.5 715.0 -16.0 714.0 13.5 L697.5 17.5 Q668.5 0.0 620.0 -33.0 571.5 -66.0 515.0 -106.0 458.5 -145.5 405.0 -184.0 352.0 -222.5 313.5 -250.5 275.5 -279.0 263.0 -289.0 263.0 -274.5 263.0 -243.5 263.0 -212.0 263.0 -173.0 263.0 -134.0 263.0 -96.0 263.5 -58.0 263.5 -30.0 263.5 -2.5 264.0 6.0" fill-rule="evenodd" stroke="none"/>
    </g>
    <g id="font_Lithos_Pro_Regular_:0">
      <path d="M76.5 -353.5 L76.5 -353.5 76.5 -507.0 241.5 -507.0 241.5 -353.5 76.5 -353.5 M76.5 0.0 L76.5 0.0 76.5 -153.5 241.5 -153.5 241.5 0.0 76.5 0.0" fill-rule="evenodd" stroke="none"/>
    </g>
  </defs>
</svg>
