<?xml version="1.0" encoding="UTF-8" standalone="no"?>
<svg xmlns:ffdec="https://www.free-decompiler.com/flash" xmlns:xlink="http://www.w3.org/1999/xlink" ffdec:objectType="text" height="12.95px" width="104.05px" xmlns="http://www.w3.org/2000/svg">
  <g transform="matrix(1.0, 0.0, 0.0, 1.0, -0.95, -1.1)">
    <g transform="matrix(1.0, 0.0, 0.0, 1.0, 0.0, 0.0)">
      <use fill="#cd9e3f" height="12.95" transform="matrix(0.0127, 0.0, 0.0, 0.0127, 0.0, 13.0)" width="104.05" xlink:href="#font_Lithos_Pro_Regular_U0"/>
      <use fill="#cd9e3f" height="12.95" transform="matrix(0.0127, 0.0, 0.0, 0.0127, 11.0, 13.0)" width="104.05" xlink:href="#font_Lithos_Pro_Regular_p0"/>
      <use fill="#cd9e3f" height="12.95" transform="matrix(0.0127, 0.0, 0.0, 0.0127, 19.7, 13.0)" width="104.05" xlink:href="#font_Lithos_Pro_Regular_g0"/>
      <use fill="#cd9e3f" height="12.95" transform="matrix(0.0127, 0.0, 0.0, 0.0127, 28.55, 13.0)" width="104.05" xlink:href="#font_Lithos_Pro_Regular_r0"/>
      <use fill="#cd9e3f" height="12.95" transform="matrix(0.0127, 0.0, 0.0, 0.0127, 37.7, 13.0)" width="104.05" xlink:href="#font_Lithos_Pro_Regular_a0"/>
      <use fill="#cd9e3f" height="12.95" transform="matrix(0.0127, 0.0, 0.0, 0.0127, 47.7, 13.0)" width="104.05" xlink:href="#font_Lithos_Pro_Regular_d0"/>
      <use fill="#cd9e3f" height="12.95" transform="matrix(0.0127, 0.0, 0.0, 0.0127, 57.55, 13.0)" width="104.05" xlink:href="#font_Lithos_Pro_Regular_e0"/>
      <use fill="#cd9e3f" height="12.95" transform="matrix(0.0127, 0.0, 0.0, 0.0127, 68.2, 13.0)" width="104.05" xlink:href="#font_Lithos_Pro_Regular_E0"/>
      <use fill="#cd9e3f" height="12.95" transform="matrix(0.0127, 0.0, 0.0, 0.0127, 76.3, 13.0)" width="104.05" xlink:href="#font_Lithos_Pro_Regular_x0"/>
      <use fill="#cd9e3f" height="12.95" transform="matrix(0.0127, 0.0, 0.0, 0.0127, 85.75, 13.0)" width="104.05" xlink:href="#font_Lithos_Pro_Regular_p0"/>
      <use fill="#cd9e3f" height="12.95" transform="matrix(0.0127, 0.0, 0.0, 0.0127, 94.45, 13.0)" width="104.05" xlink:href="#font_Lithos_Pro_Regular_:0"/>
    </g>
  </g>
  <defs>
    <g id="font_Lithos_Pro_Regular_U0">
      <path d="M308.0 -544.0 L308.0 -544.0 308.0 -474.0 Q308.0 -393.0 311.5 -338.0 315.5 -283.0 325.5 -248.0 336.0 -213.0 355.0 -190.5 373.0 -170.0 395.5 -161.5 418.0 -153.0 442.0 -153.5 469.5 -153.5 492.5 -165.0 516.0 -176.5 533.5 -201.5 543.5 -216.5 549.5 -236.5 555.5 -256.0 558.5 -289.0 561.5 -322.0 562.5 -377.5 563.0 -433.0 563.0 -519.0 L563.0 -558.0 Q563.0 -612.0 561.0 -660.0 559.0 -708.0 558.0 -737.5 L792.5 -737.5 Q792.5 -725.5 792.5 -698.5 793.0 -671.0 793.0 -634.0 793.5 -597.0 793.5 -556.0 L793.5 -509.0 Q794.0 -411.0 787.5 -336.0 781.5 -260.5 762.0 -202.5 743.0 -144.5 704.5 -98.0 657.0 -41.5 586.0 -12.5 515.0 16.5 429.0 16.5 386.0 17.5 334.5 8.5 283.0 0.0 232.5 -28.0 182.0 -55.5 142.0 -111.5 123.5 -139.0 110.5 -170.5 97.5 -202.0 89.5 -246.0 81.5 -290.0 78.0 -354.0 74.5 -418.5 74.5 -511.0 L74.5 -566.5 Q74.5 -591.0 75.0 -622.5 75.0 -654.0 75.5 -681.5 75.5 -709.5 75.5 -722.0 L314.0 -722.0 Q311.0 -702.0 309.5 -658.0 308.0 -613.5 308.0 -544.0" fill-rule="evenodd" stroke="none"/>
    </g>
    <g id="font_Lithos_Pro_Regular_p0">
      <path d="M311.5 -491.5 L311.5 -278.5 Q337.5 -279.5 364.5 -293.5 392.0 -307.0 411.0 -334.0 430.0 -360.5 431.0 -400.5 432.5 -437.5 406.0 -461.5 380.0 -485.5 311.5 -491.5 M312.5 0.0 L93.5 0.0 Q93.5 -15.5 94.0 -55.5 94.0 -95.5 94.5 -145.5 95.0 -195.0 95.0 -240.0 95.5 -284.5 95.5 -309.5 L95.5 -404.5 Q95.5 -411.5 95.5 -433.5 95.0 -455.5 95.0 -485.0 94.5 -514.5 94.0 -543.5 94.0 -572.5 93.5 -593.0 93.5 -614.0 93.5 -618.5 192.0 -618.5 264.0 -616.5 336.0 -615.0 388.0 -610.0 440.0 -605.0 478.0 -596.0 525.5 -585.5 565.0 -564.0 604.5 -542.5 628.5 -508.0 652.5 -474.0 653.0 -425.0 653.0 -363.5 613.5 -307.0 574.5 -250.5 498.5 -208.5 422.5 -166.5 311.5 -149.5 L311.5 -127.0 Q311.5 -120.0 311.5 -102.5 311.5 -85.0 311.5 -64.0 311.5 -43.0 312.0 -25.0 312.0 -7.5 312.5 0.0" fill-rule="evenodd" stroke="none"/>
    </g>
    <g id="font_Lithos_Pro_Regular_g0">
      <path d="M632.0 -198.5 L632.0 -135.0 Q632.0 -117.0 632.5 -90.5 633.0 -64.0 633.5 -40.0 634.0 -16.0 634.0 -6.0 619.5 -2.5 588.5 2.0 557.0 7.0 514.5 10.5 472.0 14.5 424.0 14.5 286.5 13.5 200.0 -22.0 113.5 -58.0 73.0 -116.5 32.5 -175.0 33.0 -244.5 32.5 -285.5 55.5 -340.5 78.0 -395.5 133.5 -452.5 188.5 -510.0 284.5 -558.5 380.5 -606.5 525.5 -634.0 L568.5 -453.5 Q518.0 -448.0 465.5 -432.5 413.5 -417.5 368.5 -393.0 323.5 -368.0 296.0 -333.5 268.5 -298.5 267.5 -253.5 268.5 -211.0 293.5 -185.5 318.0 -160.0 354.0 -149.5 389.5 -138.5 424.0 -140.0 L424.0 -205.5 Q424.0 -223.5 423.0 -243.0 422.0 -262.0 422.0 -285.5 L633.0 -285.5 Q632.0 -255.5 632.0 -236.0 632.0 -217.0 632.0 -198.5" fill-rule="evenodd" stroke="none"/>
    </g>
    <g id="font_Lithos_Pro_Regular_r0">
      <path d="M311.5 -492.5 L311.5 -266.0 Q311.5 -255.5 311.5 -227.5 312.0 -199.0 312.5 -162.0 312.5 -125.5 313.0 -90.0 314.0 -54.5 314.5 -29.5 315.0 -5.0 315.5 0.0 L95.5 0.0 Q96.5 -7.0 97.5 -31.5 98.0 -56.0 98.5 -89.5 98.5 -123.0 98.5 -156.5 98.5 -190.0 98.5 -214.0 98.5 -238.5 98.5 -244.5 L98.5 -386.0 Q98.5 -394.5 98.5 -419.0 98.0 -443.0 97.5 -474.5 97.5 -506.0 97.0 -537.0 96.0 -568.0 95.5 -590.0 95.0 -612.5 94.5 -618.5 194.0 -619.0 285.0 -617.5 376.5 -616.5 444.5 -608.0 547.5 -595.0 602.0 -557.0 656.0 -519.0 656.5 -458.5 656.0 -404.5 626.0 -361.5 596.0 -319.0 539.5 -284.5 551.0 -273.0 577.0 -247.5 603.5 -222.5 634.5 -193.0 665.5 -163.0 691.5 -138.5 717.0 -113.5 727.0 -102.5 L545.0 29.5 Q537.5 19.0 516.0 -12.0 494.5 -43.0 466.0 -84.5 437.5 -126.0 409.0 -168.0 380.0 -209.5 358.0 -241.5 336.0 -273.5 328.0 -285.5 352.5 -297.5 375.5 -316.0 399.0 -334.0 414.0 -359.5 429.5 -384.5 430.0 -417.0 431.5 -448.5 405.5 -469.5 379.5 -491.0 311.5 -492.5" fill-rule="evenodd" stroke="none"/>
    </g>
    <g id="font_Lithos_Pro_Regular_a0">
      <path d="M301.0 -222.5 L454.5 -229.5 Q434.5 -268.0 413.0 -306.5 391.5 -345.0 378.0 -373.0 361.0 -340.5 340.0 -300.0 319.5 -259.5 301.0 -222.5 M184.5 29.5 L0.0 -65.0 Q7.5 -76.5 30.5 -114.0 54.0 -152.0 88.0 -206.5 121.5 -261.5 161.0 -324.0 200.0 -387.0 239.5 -449.0 279.0 -511.5 313.5 -564.0 347.5 -616.5 371.5 -650.5 L391.0 -650.5 Q426.0 -602.0 472.5 -535.0 518.5 -467.5 568.5 -394.0 618.5 -321.0 664.0 -254.0 709.5 -187.0 742.0 -139.0 775.0 -91.0 787.5 -75.0 L599.0 28.5 Q584.5 6.5 567.0 -22.0 549.5 -50.5 535.5 -73.5 521.5 -96.5 517.0 -102.5 L243.5 -89.5 Q241.0 -84.5 230.5 -64.0 220.5 -43.5 207.5 -18.0 195.0 8.0 184.5 29.5" fill-rule="evenodd" stroke="none"/>
    </g>
    <g id="font_Lithos_Pro_Regular_d0">
      <path d="M313.5 -475.0 L313.5 -158.0 Q345.5 -162.0 379.5 -175.5 413.5 -189.5 442.5 -213.0 472.0 -237.0 490.5 -271.0 508.5 -305.5 509.0 -351.0 508.0 -404.5 480.0 -431.0 452.0 -458.0 407.5 -467.0 363.0 -476.0 313.5 -475.0 M96.5 -275.5 L96.5 -383.0 Q96.5 -389.0 96.5 -412.0 96.5 -435.0 96.0 -466.5 95.5 -498.5 95.0 -530.0 94.5 -562.0 94.0 -586.5 93.5 -610.5 92.5 -618.5 179.5 -618.5 244.0 -617.0 309.0 -616.0 359.0 -613.0 409.5 -609.5 451.5 -604.0 543.0 -592.0 600.0 -566.5 657.5 -540.5 688.0 -508.0 718.5 -475.5 730.0 -442.0 741.0 -409.0 740.5 -382.0 739.5 -297.5 702.0 -232.5 665.0 -168.0 600.0 -121.5 535.0 -75.5 451.5 -47.0 368.5 -18.5 276.0 -6.0 183.5 6.5 91.5 4.0 92.5 -8.5 93.0 -38.0 94.0 -67.5 94.5 -105.0 95.0 -142.0 95.5 -178.5 96.0 -214.5 96.5 -241.0 96.5 -267.5 96.5 -275.5" fill-rule="evenodd" stroke="none"/>
    </g>
    <g id="font_Lithos_Pro_Regular_e0">
      <path d="M519.5 -147.0 L522.5 9.5 Q510.0 9.5 468.5 8.5 427.5 7.5 371.0 6.0 315.0 5.0 257.5 3.5 200.5 2.0 156.0 1.0 112.0 0.0 94.5 0.0 95.0 -18.5 95.5 -56.0 96.0 -93.5 96.5 -136.0 96.5 -178.5 96.5 -211.0 96.5 -244.0 96.5 -253.0 L96.5 -368.5 Q96.5 -373.5 96.5 -397.5 96.0 -421.5 96.0 -455.0 95.5 -489.0 95.0 -523.5 95.0 -558.0 94.5 -584.0 94.5 -610.0 94.5 -618.5 113.0 -618.5 155.5 -620.0 198.5 -621.0 252.5 -623.0 307.0 -625.0 360.0 -627.0 413.0 -629.5 452.0 -631.0 491.5 -633.0 504.0 -634.0 L508.0 -484.5 Q494.0 -484.5 465.0 -483.5 435.5 -483.0 402.5 -482.0 369.0 -481.0 343.5 -480.0 317.5 -479.5 310.5 -479.5 L310.5 -373.5 Q318.0 -373.5 338.5 -374.0 359.0 -375.0 385.5 -376.0 412.0 -377.0 436.5 -378.5 461.5 -380.0 477.5 -381.5 L479.5 -236.5 Q469.5 -236.5 445.5 -237.0 421.5 -237.5 393.5 -238.0 365.0 -238.5 342.0 -239.0 319.0 -239.5 310.5 -239.5 L310.5 -145.0 Q320.0 -145.0 347.0 -144.5 373.5 -144.5 407.0 -144.5 441.0 -144.5 471.5 -145.0 502.0 -145.5 519.5 -147.0" fill-rule="evenodd" stroke="none"/>
    </g>
    <g id="font_Lithos_Pro_Regular_E0">
      <path d="M563.0 -165.5 L563.0 -165.5 567.0 10.5 Q557.0 10.5 524.0 9.5 490.5 9.0 443.5 8.0 396.0 6.5 343.5 5.5 291.0 4.0 242.0 3.0 193.5 1.5 157.5 1.0 121.5 0.0 107.5 0.0 108.5 -17.0 109.0 -49.5 109.5 -82.0 110.0 -121.0 110.0 -160.0 110.5 -197.5 110.5 -234.5 110.5 -261.5 110.5 -288.0 110.5 -296.0 L110.5 -433.0 Q110.5 -439.0 110.5 -467.0 110.0 -495.0 109.5 -535.0 109.5 -574.5 109.0 -615.5 108.5 -656.0 108.0 -686.5 108.0 -717.0 107.5 -727.0 126.0 -727.0 171.5 -728.5 217.0 -730.0 276.0 -732.5 334.5 -735.0 392.0 -737.5 449.5 -740.0 492.0 -742.5 534.0 -744.5 546.5 -745.5 L550.5 -575.5 Q535.5 -575.5 503.0 -574.5 471.0 -574.0 434.5 -573.0 398.5 -572.0 370.0 -571.0 341.5 -570.5 333.5 -570.5 L333.5 -435.0 Q342.0 -435.0 364.5 -436.0 387.0 -436.5 416.0 -438.0 445.0 -439.5 472.0 -441.0 499.0 -442.5 517.0 -444.0 L520.0 -280.5 Q508.5 -280.5 482.0 -281.0 456.0 -282.0 424.5 -282.5 393.5 -283.5 368.0 -284.0 343.0 -284.5 333.5 -284.5 L333.5 -163.5 Q344.5 -163.5 374.0 -163.0 403.0 -163.0 440.0 -163.0 477.0 -163.0 510.5 -163.5 544.0 -164.0 563.0 -165.5" fill-rule="evenodd" stroke="none"/>
    </g>
    <g id="font_Lithos_Pro_Regular_x0">
      <path d="M172.0 39.0 L22.5 -102.5 Q30.0 -110.5 59.0 -139.5 88.0 -168.0 124.5 -204.5 161.0 -240.5 192.0 -271.0 222.5 -301.5 233.5 -313.0 215.0 -332.0 186.0 -362.0 156.5 -391.5 126.0 -423.0 95.5 -454.5 72.0 -478.5 49.0 -502.0 43.0 -508.5 L208.0 -651.0 Q224.0 -632.0 248.5 -602.5 273.0 -572.5 299.0 -540.5 325.5 -508.0 347.0 -482.0 369.0 -455.5 379.0 -444.0 389.0 -455.5 412.5 -482.0 435.5 -508.5 464.0 -541.0 492.0 -573.5 518.0 -603.5 544.0 -633.0 560.0 -651.0 L715.0 -513.0 Q705.0 -503.0 676.0 -476.5 647.0 -450.0 611.5 -418.0 575.5 -386.0 546.5 -359.0 517.0 -332.5 507.0 -322.5 520.5 -308.5 551.5 -278.0 583.0 -247.0 619.0 -211.0 655.0 -175.5 683.0 -147.0 711.5 -119.0 720.0 -110.5 L555.0 38.0 Q542.5 23.5 516.0 -7.5 489.5 -38.5 458.5 -75.0 427.5 -111.5 401.0 -142.5 374.5 -173.5 361.5 -188.5 353.0 -179.0 326.5 -147.0 300.0 -115.0 267.0 -75.5 234.5 -36.0 208.0 -3.5 181.0 29.0 172.0 39.0" fill-rule="evenodd" stroke="none"/>
    </g>
    <g id="font_Lithos_Pro_Regular_:0">
      <path d="M76.5 -353.5 L76.5 -353.5 76.5 -507.0 241.5 -507.0 241.5 -353.5 76.5 -353.5 M76.5 0.0 L76.5 0.0 76.5 -153.5 241.5 -153.5 241.5 0.0 76.5 0.0" fill-rule="evenodd" stroke="none"/>
    </g>
  </defs>
</svg>
