<?xml version="1.0" encoding="UTF-8" standalone="no"?>
<svg xmlns:ffdec="https://www.free-decompiler.com/flash" xmlns:xlink="http://www.w3.org/1999/xlink" ffdec:objectType="text" height="20.75px" width="115.25px" xmlns="http://www.w3.org/2000/svg">
  <g transform="matrix(1.0, 0.0, 0.0, 1.0, 2.0, 2.0)">
    <g transform="matrix(1.0, 0.0, 0.0, 1.0, -2.0, -2.0)">
      <use fill="#e7ca43" height="20.75" transform="matrix(0.0127, 0.0, 0.0, 0.0127, 83.3, 14.55)" width="115.25" xlink:href="#font_Lithos_Pro_Regular_10"/>
      <use fill="#e7ca43" height="20.75" transform="matrix(0.0127, 0.0, 0.0, 0.0127, 93.95, 14.55)" width="115.25" xlink:href="#font_Lithos_Pro_Regular_30"/>
      <use fill="#e7ca43" height="20.75" transform="matrix(0.0127, 0.0, 0.0, 0.0127, 104.6, 14.55)" width="115.25" xlink:href="#font_Lithos_Pro_Regular_00"/>
    </g>
  </g>
  <defs>
    <g id="font_Lithos_Pro_Regular_10">
      <path d="M573.5 0.0 L573.5 0.0 340.0 0.0 Q340.5 -14.0 341.5 -57.5 342.5 -100.5 343.0 -162.0 344.0 -223.5 344.0 -293.0 L344.0 -502.0 Q321.0 -493.0 289.0 -478.0 257.5 -463.5 230.5 -450.5 L178.0 -582.5 Q190.0 -588.5 228.5 -605.5 266.5 -623.0 321.0 -647.5 375.5 -672.5 437.0 -700.0 498.0 -728.0 556.0 -755.0 L576.5 -742.5 Q576.0 -717.0 575.0 -669.5 573.5 -622.0 572.5 -560.0 571.5 -498.0 571.5 -428.0 L571.5 -271.5 Q571.5 -160.5 571.5 -92.5 572.0 -24.0 573.5 0.0" fill-rule="evenodd" stroke="none"/>
    </g>
    <g id="font_Lithos_Pro_Regular_30">
      <path d="M209.0 -588.0 L209.0 -588.0 222.0 -747.5 Q310.5 -746.5 388.0 -734.0 465.5 -722.0 525.0 -698.5 584.0 -674.5 618.0 -639.0 651.5 -603.0 652.0 -554.0 651.0 -516.0 629.5 -482.0 608.5 -448.5 576.0 -423.5 544.0 -398.5 511.0 -386.0 L511.0 -380.0 Q558.0 -370.0 595.5 -350.0 633.0 -330.0 654.5 -299.5 676.5 -269.0 677.0 -227.5 675.5 -154.5 613.5 -97.5 551.0 -40.5 442.0 -7.5 333.0 26.0 192.5 28.0 L185.5 -134.0 Q213.5 -131.0 253.5 -135.0 293.0 -139.0 332.0 -150.5 371.0 -162.5 397.0 -183.0 423.0 -204.0 424.0 -234.5 423.0 -262.5 402.5 -279.5 382.0 -296.5 352.0 -305.0 322.0 -313.0 294.0 -315.5 265.5 -318.0 250.0 -317.5 L243.5 -410.5 Q260.5 -410.5 287.5 -414.5 315.0 -418.5 342.5 -429.5 370.5 -440.0 389.5 -459.5 408.5 -479.0 409.5 -509.0 409.0 -531.5 389.0 -547.0 369.5 -562.0 338.5 -571.0 307.5 -580.5 273.0 -584.0 239.0 -588.0 209.0 -588.0" fill-rule="evenodd" stroke="none"/>
    </g>
    <g id="font_Lithos_Pro_Regular_00">
      <path d="M421.0 -184.5 L421.0 -184.5 Q455.0 -184.0 489.0 -202.0 523.0 -220.0 546.0 -261.5 568.5 -302.5 569.5 -371.5 568.5 -439.5 545.5 -477.0 522.0 -514.5 489.0 -529.5 455.5 -544.0 425.0 -543.5 390.5 -544.0 354.0 -528.5 317.0 -512.5 292.0 -472.0 266.5 -431.5 266.0 -357.5 267.5 -290.0 292.0 -252.0 316.0 -214.0 351.5 -199.0 386.5 -184.0 421.0 -184.5 M414.5 -17.5 L414.5 -17.5 Q300.5 -18.0 214.5 -56.0 128.0 -94.5 80.0 -168.5 31.5 -242.5 30.5 -349.0 31.0 -453.0 80.5 -534.0 130.0 -615.5 221.0 -662.5 312.0 -709.5 437.0 -710.5 553.5 -709.5 636.0 -665.5 718.0 -621.5 762.0 -546.5 805.5 -471.5 806.0 -377.0 806.0 -306.0 781.5 -241.5 757.0 -177.5 708.5 -127.0 659.5 -76.5 586.0 -47.5 512.5 -18.0 414.5 -17.5" fill-rule="evenodd" stroke="none"/>
    </g>
  </defs>
</svg>
