<?xml version="1.0" encoding="UTF-8" standalone="no"?>
<svg xmlns:ffdec="https://www.free-decompiler.com/flash" xmlns:xlink="http://www.w3.org/1999/xlink" ffdec:objectType="text" height="24.15px" width="77.9px" xmlns="http://www.w3.org/2000/svg">
  <g transform="matrix(1.0, 0.0, 0.0, 1.0, -84.85, 0.0)">
    <g transform="matrix(1.0, 0.0, 0.0, 1.0, 55.0, 0.0)">
      <use fill="#ffcc00" height="24.15" transform="matrix(0.0098, 0.0, 0.0, 0.0098, 29.0, 9.0)" width="77.9" xlink:href="#font_Lithos_Pro_Regular_20"/>
      <use fill="#ffcc00" height="24.15" transform="matrix(0.0098, 0.0, 0.0, 0.0098, 36.05, 9.0)" width="77.9" xlink:href="#font_Lithos_Pro_Regular_.0"/>
      <use fill="#ffcc00" height="24.15" transform="matrix(0.0098, 0.0, 0.0, 0.0098, 41.75, 9.0)" width="77.9" xlink:href="#font_Lithos_Pro_Regular_S0"/>
      <use fill="#ffcc00" height="24.15" transform="matrix(0.0098, 0.0, 0.0, 0.0098, 47.0, 9.0)" width="77.9" xlink:href="#font_Lithos_Pro_Regular_e0"/>
      <use fill="#ffcc00" height="24.15" transform="matrix(0.0098, 0.0, 0.0, 0.0098, 52.3, 9.0)" width="77.9" xlink:href="#font_Lithos_Pro_Regular_t0"/>
      <use fill="#ffcc00" height="24.15" transform="matrix(0.0098, 0.0, 0.0, 0.0098, 60.95, 9.0)" width="77.9" xlink:href="#font_Lithos_Pro_Regular_e0"/>
      <use fill="#ffcc00" height="24.15" transform="matrix(0.0098, 0.0, 0.0, 0.0098, 66.25, 9.0)" width="77.9" xlink:href="#font_Lithos_Pro_Regular_n0"/>
      <use fill="#ffcc00" height="24.15" transform="matrix(0.0098, 0.0, 0.0, 0.0098, 74.3, 9.0)" width="77.9" xlink:href="#font_Lithos_Pro_Regular_e0"/>
      <use fill="#ffcc00" height="24.15" transform="matrix(0.0098, 0.0, 0.0, 0.0098, 79.6, 9.0)" width="77.9" xlink:href="#font_Lithos_Pro_Regular_m0"/>
      <use fill="#ffcc00" height="24.15" transform="matrix(0.0098, 0.0, 0.0, 0.0098, 89.0, 9.0)" width="77.9" xlink:href="#font_Lithos_Pro_Regular_i0"/>
      <use fill="#ffcc00" height="24.15" transform="matrix(0.0098, 0.0, 0.0, 0.0098, 92.5, 9.0)" width="77.9" xlink:href="#font_Lithos_Pro_Regular_e0"/>
      <use fill="#ffcc00" height="24.15" transform="matrix(0.0098, 0.0, 0.0, 0.0098, 97.8, 9.0)" width="77.9" xlink:href="#font_Lithos_Pro_Regular_s0"/>
    </g>
    <g transform="matrix(1.0, 0.0, 0.0, 1.0, 55.0, 0.0)">
      <use fill="#ffcc00" height="24.15" transform="matrix(0.0098, 0.0, 0.0, 0.0098, 64.0, 23.0)" width="77.9" xlink:href="#font_Lithos_Pro_Regular_o0"/>
      <use fill="#ffcc00" height="24.15" transform="matrix(0.0098, 0.0, 0.0, 0.0098, 71.65, 23.0)" width="77.9" xlink:href="#font_Lithos_Pro_Regular_n0"/>
      <use fill="#ffcc00" height="24.15" transform="matrix(0.0098, 0.0, 0.0, 0.0098, 82.7, 23.0)" width="77.9" xlink:href="#font_Lithos_Pro_Regular_f0"/>
      <use fill="#ffcc00" height="24.15" transform="matrix(0.0098, 0.0, 0.0, 0.0098, 87.65, 23.0)" width="77.9" xlink:href="#font_Lithos_Pro_Regular_i0"/>
      <use fill="#ffcc00" height="24.15" transform="matrix(0.0098, 0.0, 0.0, 0.0098, 91.15, 23.0)" width="77.9" xlink:href="#font_Lithos_Pro_Regular_r0"/>
      <use fill="#ffcc00" height="24.15" transform="matrix(0.0098, 0.0, 0.0, 0.0098, 97.3, 23.0)" width="77.9" xlink:href="#font_Lithos_Pro_Regular_e0"/>
    </g>
  </g>
  <defs>
    <g id="font_Lithos_Pro_Regular_20">
      <path d="M574.5 -79.5 L574.5 8.5 Q564.0 7.5 524.5 6.0 485.0 5.0 428.0 3.5 371.0 2.5 308.5 1.5 246.0 0.5 189.5 0.0 L73.5 0.0 71.5 -10.0 Q124.5 -45.5 186.0 -93.0 248.0 -140.5 304.5 -196.5 360.5 -253.0 396.5 -314.0 433.0 -375.0 434.0 -437.0 433.5 -490.5 406.5 -530.0 380.0 -569.0 337.0 -595.0 294.0 -621.0 245.0 -634.5 195.5 -648.0 149.5 -650.0 L168.0 -734.0 Q284.5 -719.5 366.0 -677.5 447.5 -635.5 490.5 -575.0 533.0 -515.0 533.5 -446.0 532.5 -384.0 504.5 -328.0 477.0 -272.0 434.5 -224.5 392.5 -176.5 347.5 -138.0 303.0 -100.0 268.0 -72.5 L269.0 -68.5 574.5 -79.5" fill-rule="evenodd" stroke="none"/>
    </g>
    <g id="font_Lithos_Pro_Regular_.0">
      <path d="M81.0 0.0 L81.0 -113.5 195.5 -113.5 195.5 0.0 81.0 0.0" fill-rule="evenodd" stroke="none"/>
    </g>
    <g id="font_Lithos_Pro_Regular_S0">
      <path d="M149.5 18.5 L122.5 -58.5 Q161.0 -66.0 200.5 -79.5 240.5 -93.0 274.5 -112.0 308.5 -131.5 329.5 -156.5 350.5 -182.0 351.0 -213.0 351.5 -250.0 325.5 -276.0 299.5 -302.0 244.5 -330.5 178.0 -365.0 138.0 -402.5 98.0 -440.0 97.0 -493.5 97.5 -534.5 123.0 -572.5 148.0 -610.5 190.5 -643.0 232.5 -675.5 284.0 -699.0 335.5 -723.0 389.0 -735.0 L410.5 -656.0 Q386.0 -652.5 350.5 -641.0 315.0 -630.0 280.0 -612.0 245.0 -593.5 221.0 -568.5 197.5 -543.0 196.5 -511.0 197.5 -484.5 217.0 -464.0 236.5 -443.5 263.0 -427.5 289.5 -412.0 312.0 -399.0 351.5 -377.0 383.0 -355.0 414.5 -333.5 433.5 -306.0 452.0 -278.5 452.5 -237.5 452.5 -186.5 417.5 -137.0 383.0 -87.0 315.5 -46.0 248.0 -5.0 149.5 18.5" fill-rule="evenodd" stroke="none"/>
    </g>
    <g id="font_Lithos_Pro_Regular_e0">
      <path d="M458.5 -68.5 L461.5 9.5 Q451.5 9.5 417.0 8.5 383.0 7.5 337.5 6.0 292.0 5.0 247.0 3.5 202.0 2.0 170.5 1.0 138.5 0.0 132.0 0.0 133.0 -18.5 133.5 -56.0 134.5 -93.5 134.5 -136.0 135.0 -178.0 135.0 -211.0 135.0 -244.0 135.0 -252.5 L135.0 -368.5 Q135.0 -373.5 135.0 -397.5 134.5 -421.5 134.0 -454.5 134.0 -488.0 133.5 -521.5 133.0 -555.0 132.5 -579.5 132.5 -603.5 132.0 -609.5 139.5 -609.5 168.5 -611.0 197.5 -612.0 238.0 -614.5 278.5 -616.5 320.0 -618.5 362.0 -621.0 395.0 -623.0 428.5 -625.0 443.0 -626.0 L447.0 -552.0 Q431.0 -552.0 397.5 -551.5 364.0 -551.0 326.5 -550.0 288.5 -549.0 259.5 -548.5 231.0 -548.0 224.0 -548.0 L224.0 -334.5 Q231.0 -334.5 253.5 -335.0 276.0 -336.0 305.5 -337.0 335.5 -338.5 365.0 -340.0 394.5 -342.0 416.5 -343.5 L419.5 -269.0 Q407.0 -269.0 378.5 -269.5 350.5 -270.0 317.0 -271.0 284.5 -271.0 258.5 -271.5 232.5 -272.0 224.0 -272.0 L224.0 -65.5 Q233.0 -65.5 258.0 -65.0 283.0 -65.0 317.0 -65.0 351.5 -65.0 388.5 -66.0 425.5 -66.5 458.5 -68.5" fill-rule="evenodd" stroke="none"/>
    </g>
    <g id="font_Lithos_Pro_Regular_t0">
      <path d="M346.0 0.0 L240.0 0.0 Q241.5 -7.5 242.5 -38.5 243.5 -69.5 244.5 -116.0 245.0 -162.5 245.5 -215.5 245.5 -269.0 246.0 -320.5 246.0 -372.5 246.0 -414.5 L246.0 -536.5 Q206.0 -536.5 164.0 -536.0 122.5 -535.0 86.0 -534.0 49.5 -533.0 25.0 -531.5 0.5 -530.0 -5.0 -528.5 L-5.0 -611.5 Q4.0 -609.5 31.0 -607.5 58.5 -606.0 94.0 -604.5 130.0 -603.5 165.0 -602.5 200.0 -602.0 224.0 -601.5 248.5 -601.0 252.0 -601.0 L334.0 -601.0 Q340.0 -601.0 364.0 -601.5 387.5 -601.5 421.0 -602.5 454.0 -603.5 488.0 -604.5 522.0 -606.0 548.0 -607.5 574.0 -609.0 584.0 -611.5 L584.0 -528.5 Q582.0 -530.0 554.5 -531.5 527.0 -533.0 486.5 -534.0 446.0 -535.0 405.0 -536.0 364.0 -536.5 335.0 -536.5 L335.0 -401.5 Q335.0 -334.0 336.5 -266.5 338.0 -198.5 340.0 -141.0 342.0 -83.0 343.5 -45.0 345.5 -7.5 346.0 0.0" fill-rule="evenodd" stroke="none"/>
    </g>
    <g id="font_Lithos_Pro_Regular_n0">
      <path d="M197.5 6.0 L103.5 0.0 Q105.0 -17.5 107.5 -64.0 110.5 -111.0 114.0 -176.0 117.5 -241.0 121.5 -313.0 125.0 -384.5 128.5 -451.5 132.0 -519.0 134.5 -569.5 137.0 -620.5 138.0 -644.0 L143.5 -644.0 Q151.0 -636.0 186.5 -600.0 221.5 -564.0 274.0 -511.5 326.0 -459.0 383.5 -400.5 441.5 -342.5 493.5 -290.0 546.0 -237.0 581.5 -201.5 617.5 -165.5 625.5 -157.5 625.5 -165.0 625.5 -198.0 626.0 -231.5 626.0 -280.5 626.5 -329.5 626.5 -384.0 627.0 -438.5 627.5 -488.0 627.5 -537.5 628.0 -571.5 628.5 -605.5 628.5 -613.5 L719.5 -609.5 Q718.5 -593.0 715.5 -545.0 713.0 -497.5 710.0 -429.0 707.0 -360.5 703.5 -282.0 700.5 -204.0 698.0 -126.0 695.5 -48.0 694.0 18.5 L690.0 18.5 Q682.5 11.5 645.5 -24.5 608.5 -61.0 554.5 -114.5 500.5 -168.5 441.0 -227.5 381.5 -286.5 329.0 -339.5 276.0 -392.0 241.5 -426.5 207.5 -461.0 203.5 -465.0 L201.5 -465.0 Q202.0 -460.0 202.0 -426.5 201.5 -393.0 201.0 -342.0 200.5 -291.0 200.0 -234.0 199.0 -177.0 198.5 -125.0 198.0 -73.5 197.5 -37.5 197.0 -2.0 197.5 6.0" fill-rule="evenodd" stroke="none"/>
    </g>
    <g id="font_Lithos_Pro_Regular_m0">
      <path d="M115.0 22.5 L31.0 -4.0 Q35.5 -14.5 51.5 -61.5 68.0 -108.0 91.0 -176.5 114.5 -245.0 140.0 -320.0 165.0 -395.0 187.5 -462.0 210.0 -529.0 224.5 -573.0 239.0 -617.5 241.0 -624.0 L245.0 -624.0 Q254.0 -606.5 276.0 -563.5 298.5 -521.0 327.5 -465.5 356.5 -410.5 385.5 -355.5 414.5 -300.5 437.0 -259.0 459.5 -217.0 468.0 -201.0 477.5 -216.5 502.5 -258.5 527.5 -300.0 560.0 -354.0 592.0 -408.0 623.5 -460.5 655.0 -513.0 677.5 -550.5 700.0 -588.0 705.5 -597.5 L708.5 -597.5 Q716.0 -579.0 732.5 -535.5 749.0 -492.5 771.5 -434.0 793.5 -375.5 818.0 -311.5 842.5 -247.5 865.5 -187.0 889.0 -127.0 907.0 -80.0 925.0 -33.0 935.0 -9.5 L850.0 22.5 Q843.0 1.5 826.0 -47.0 809.5 -95.5 787.5 -156.5 766.0 -218.0 745.0 -277.0 724.0 -336.5 708.5 -379.5 693.5 -422.0 689.5 -433.5 680.0 -418.0 657.5 -381.5 635.5 -345.5 606.5 -298.0 577.5 -250.5 548.0 -202.0 518.5 -153.5 494.5 -114.5 470.5 -75.5 458.0 -55.5 L456.0 -55.5 Q436.0 -93.0 408.0 -144.5 380.5 -196.5 351.0 -252.5 321.5 -308.0 295.5 -356.5 270.0 -405.0 254.0 -435.5 250.0 -421.0 239.0 -385.0 228.0 -349.0 213.0 -300.0 198.0 -251.5 182.0 -199.0 166.0 -146.5 151.5 -99.0 137.0 -52.0 127.5 -19.5 117.5 13.5 115.0 22.5" fill-rule="evenodd" stroke="none"/>
    </g>
    <g id="font_Lithos_Pro_Regular_i0">
      <path d="M224.0 -357.5 L224.0 -263.5 Q224.0 -230.0 224.5 -188.5 225.0 -147.0 225.5 -106.5 226.5 -66.5 227.0 -37.5 227.5 -8.5 228.0 0.0 L132.0 0.0 Q132.5 -12.0 133.0 -40.0 133.5 -67.5 134.0 -103.0 134.5 -138.0 134.5 -172.5 135.0 -207.0 135.0 -232.0 135.0 -257.0 135.0 -264.5 L135.0 -358.5 Q135.0 -364.0 134.5 -388.5 134.5 -413.0 134.0 -447.5 133.5 -482.0 132.5 -516.5 132.0 -551.5 131.0 -577.0 130.5 -602.5 130.0 -609.5 L229.0 -609.5 Q228.5 -603.0 227.5 -578.5 226.5 -553.5 226.0 -517.0 225.0 -480.5 224.5 -439.0 224.0 -397.0 224.0 -357.5" fill-rule="evenodd" stroke="none"/>
    </g>
    <g id="font_Lithos_Pro_Regular_s0">
      <path d="M131.0 16.5 L107.5 -55.5 Q143.5 -62.0 180.5 -73.0 218.0 -83.5 250.0 -99.0 281.5 -114.5 301.5 -135.0 321.0 -155.0 321.5 -181.5 321.5 -214.0 297.0 -235.5 272.5 -257.0 222.0 -280.5 161.0 -309.0 123.0 -341.0 85.0 -373.5 84.0 -420.0 84.5 -456.5 108.5 -490.0 132.0 -523.0 171.5 -550.5 211.0 -578.0 259.5 -597.5 308.0 -617.0 358.5 -626.0 L377.5 -554.0 Q354.0 -551.0 321.0 -542.5 288.0 -533.5 255.0 -519.5 222.5 -505.0 200.5 -484.0 179.0 -462.5 178.0 -434.5 179.0 -411.0 196.5 -394.5 214.5 -377.5 239.0 -365.0 264.0 -352.0 284.5 -341.0 320.5 -322.0 350.0 -304.0 380.0 -285.5 398.0 -261.5 416.0 -237.5 416.5 -202.0 416.0 -156.0 383.0 -113.5 349.5 -70.5 286.0 -36.5 222.5 -2.5 131.0 16.5" fill-rule="evenodd" stroke="none"/>
    </g>
    <g id="font_Lithos_Pro_Regular_o0">
      <path d="M380.0 -53.0 L380.0 -53.0 Q451.0 -53.0 510.0 -84.5 569.0 -116.0 604.5 -176.0 640.0 -236.5 641.0 -322.5 640.0 -400.5 608.5 -452.5 576.5 -504.5 524.5 -530.5 472.5 -556.5 410.5 -556.5 329.0 -555.5 271.0 -519.5 212.5 -483.5 181.5 -423.0 151.0 -362.0 150.5 -287.0 151.0 -221.0 178.5 -168.5 206.0 -115.5 257.0 -84.5 308.5 -53.5 380.0 -53.0 M371.5 14.5 L371.5 14.5 Q269.5 13.5 199.5 -26.0 129.0 -65.5 93.0 -130.5 56.5 -195.5 56.5 -273.5 57.0 -371.5 101.5 -450.5 146.5 -529.5 228.5 -576.0 310.5 -623.0 424.0 -624.0 515.0 -623.5 585.0 -588.5 655.0 -553.5 695.0 -487.5 735.0 -421.0 736.0 -327.0 736.5 -274.5 717.0 -216.0 697.5 -157.5 654.5 -105.0 611.5 -52.5 542.0 -19.5 472.0 13.5 371.5 14.5" fill-rule="evenodd" stroke="none"/>
    </g>
    <g id="font_Lithos_Pro_Regular_f0">
      <path d="M227.0 0.0 L127.0 0.0 Q130.0 -18.5 131.5 -56.0 133.5 -93.5 134.0 -136.0 134.5 -178.5 135.0 -211.0 135.0 -244.0 135.0 -252.5 L135.0 -368.5 Q135.0 -373.5 135.0 -397.5 134.5 -421.5 134.0 -455.0 134.0 -488.0 133.5 -521.5 132.5 -555.0 132.0 -579.5 131.5 -604.0 131.0 -609.5 139.0 -609.5 167.0 -610.5 195.5 -611.5 235.0 -613.0 274.5 -614.5 315.5 -616.5 357.0 -618.0 390.5 -620.0 424.5 -621.5 441.0 -623.0 L445.0 -549.0 224.0 -545.0 224.0 -331.5 Q231.0 -331.5 255.5 -332.5 280.0 -333.0 312.0 -334.5 344.5 -335.5 375.5 -337.0 406.5 -338.5 427.5 -339.5 L431.0 -267.0 224.0 -270.0 224.0 -190.5 Q224.0 -184.0 224.0 -156.5 224.0 -129.0 224.0 -95.0 224.0 -60.5 225.0 -33.0 225.5 -6.0 227.0 0.0" fill-rule="evenodd" stroke="none"/>
    </g>
    <g id="font_Lithos_Pro_Regular_r0">
      <path d="M224.0 -543.0 L224.0 -266.5 Q224.0 -256.0 224.5 -227.5 224.5 -199.0 225.0 -162.5 225.5 -125.5 226.5 -90.0 227.0 -54.5 228.0 -29.5 228.5 -5.0 229.0 0.0 L133.0 0.0 Q134.0 -7.0 134.5 -39.0 135.0 -70.5 135.0 -114.5 135.0 -158.5 135.0 -202.5 135.0 -246.5 135.0 -277.5 135.0 -309.0 135.0 -315.5 L135.0 -386.0 Q135.0 -397.5 134.5 -430.0 134.5 -462.5 133.5 -501.5 133.0 -541.0 132.0 -571.5 131.0 -602.0 130.0 -609.5 164.0 -610.0 218.5 -609.5 273.0 -609.0 332.5 -602.5 425.5 -591.5 476.0 -555.5 527.0 -519.5 527.5 -462.0 526.5 -408.0 490.0 -363.0 454.0 -318.0 395.0 -284.0 405.0 -270.5 435.0 -237.0 465.0 -203.0 501.5 -162.5 538.5 -122.0 569.0 -89.5 599.5 -57.0 610.5 -46.0 L539.5 16.5 Q536.0 12.0 512.5 -16.5 489.0 -45.0 455.5 -86.5 422.0 -127.5 387.5 -170.5 352.5 -213.0 326.0 -246.0 299.5 -279.0 290.5 -291.0 308.5 -300.0 332.0 -313.5 355.5 -327.0 377.5 -346.0 400.0 -365.0 415.0 -390.5 429.5 -416.0 430.0 -449.0 431.0 -470.0 415.5 -491.0 399.5 -512.5 355.0 -527.0 310.0 -542.0 224.0 -543.0" fill-rule="evenodd" stroke="none"/>
    </g>
  </defs>
</svg>
