<?xml version="1.0" encoding="UTF-8" standalone="no"?>
<svg xmlns:ffdec="https://www.free-decompiler.com/flash" xmlns:xlink="http://www.w3.org/1999/xlink" ffdec:objectType="text" height="10.5px" width="146.25px" xmlns="http://www.w3.org/2000/svg">
  <g transform="matrix(1.0, 0.0, 0.0, 1.0, -56.55, 0.0)">
    <g transform="matrix(1.0, 0.0, 0.0, 1.0, 55.0, 0.0)">
      <use fill="#ffcc00" height="10.5" transform="matrix(0.0098, 0.0, 0.0, 0.0098, 0.0, 9.0)" width="146.25" xlink:href="#font_Lithos_Pro_Regular_10"/>
      <use fill="#ffcc00" height="10.5" transform="matrix(0.0098, 0.0, 0.0, 0.0098, 7.05, 9.0)" width="146.25" xlink:href="#font_Lithos_Pro_Regular_.0"/>
      <use fill="#ffcc00" height="10.5" transform="matrix(0.0098, 0.0, 0.0, 0.0098, 12.75, 9.0)" width="146.25" xlink:href="#font_Lithos_Pro_Regular_D0"/>
      <use fill="#ffcc00" height="10.5" transform="matrix(0.0098, 0.0, 0.0, 0.0098, 20.9, 9.0)" width="146.25" xlink:href="#font_Lithos_Pro_Regular_r0"/>
      <use fill="#ffcc00" height="10.5" transform="matrix(0.0098, 0.0, 0.0, 0.0098, 26.95, 9.0)" width="146.25" xlink:href="#font_Lithos_Pro_Regular_o0"/>
      <use fill="#ffcc00" height="10.5" transform="matrix(0.0098, 0.0, 0.0, 0.0098, 34.6, 9.0)" width="146.25" xlink:href="#font_Lithos_Pro_Regular_p0"/>
      <use fill="#ffcc00" height="10.5" transform="matrix(0.0098, 0.0, 0.0, 0.0098, 40.2, 9.0)" width="146.25" xlink:href="#font_Lithos_Pro_Regular_s0"/>
      <use fill="#ffcc00" height="10.5" transform="matrix(0.0098, 0.0, 0.0, 0.0098, 48.0, 9.0)" width="146.25" xlink:href="#font_Lithos_Pro_Regular_a0"/>
      <use fill="#ffcc00" height="10.5" transform="matrix(0.0098, 0.0, 0.0, 0.0098, 58.1, 9.0)" width="146.25" xlink:href="#font_Lithos_Pro_Regular_r0"/>
      <use fill="#ffcc00" height="10.5" transform="matrix(0.0098, 0.0, 0.0, 0.0098, 64.25, 9.0)" width="146.25" xlink:href="#font_Lithos_Pro_Regular_a0"/>
      <use fill="#ffcc00" height="10.5" transform="matrix(0.0098, 0.0, 0.0, 0.0098, 71.35, 9.0)" width="146.25" xlink:href="#font_Lithos_Pro_Regular_i0"/>
      <use fill="#ffcc00" height="10.5" transform="matrix(0.0098, 0.0, 0.0, 0.0098, 74.85, 9.0)" width="146.25" xlink:href="#font_Lithos_Pro_Regular_n0"/>
      <use fill="#ffcc00" height="10.5" transform="matrix(0.0098, 0.0, 0.0, 0.0098, 85.9, 9.0)" width="146.25" xlink:href="#font_Lithos_Pro_Regular_o0"/>
      <use fill="#ffcc00" height="10.5" transform="matrix(0.0098, 0.0, 0.0, 0.0098, 93.55, 9.0)" width="146.25" xlink:href="#font_Lithos_Pro_Regular_f0"/>
      <use fill="#ffcc00" height="10.5" transform="matrix(0.0098, 0.0, 0.0, 0.0098, 101.5, 9.0)" width="146.25" xlink:href="#font_Lithos_Pro_Regular_a0"/>
      <use fill="#ffcc00" height="10.5" transform="matrix(0.0098, 0.0, 0.0, 0.0098, 108.6, 9.0)" width="146.25" xlink:href="#font_Lithos_Pro_Regular_r0"/>
      <use fill="#ffcc00" height="10.5" transform="matrix(0.0098, 0.0, 0.0, 0.0098, 114.75, 9.0)" width="146.25" xlink:href="#font_Lithos_Pro_Regular_r0"/>
      <use fill="#ffcc00" height="10.5" transform="matrix(0.0098, 0.0, 0.0, 0.0098, 120.8, 9.0)" width="146.25" xlink:href="#font_Lithos_Pro_Regular_o0"/>
      <use fill="#ffcc00" height="10.5" transform="matrix(0.0098, 0.0, 0.0, 0.0098, 128.55, 9.0)" width="146.25" xlink:href="#font_Lithos_Pro_Regular_w0"/>
      <use fill="#ffcc00" height="10.5" transform="matrix(0.0098, 0.0, 0.0, 0.0098, 138.0, 9.0)" width="146.25" xlink:href="#font_Lithos_Pro_Regular_s0"/>
    </g>
  </g>
  <defs>
    <g id="font_Lithos_Pro_Regular_10">
      <path d="M434.0 0.0 L338.0 0.0 Q338.0 -14.0 339.5 -57.5 341.0 -100.5 342.5 -162.0 344.0 -224.0 344.0 -294.0 L344.0 -559.0 Q328.5 -540.5 301.5 -513.5 275.0 -486.5 248.0 -460.0 221.5 -434.0 206.0 -417.5 L159.5 -473.0 Q166.5 -479.0 193.0 -504.0 220.0 -528.5 257.0 -563.5 294.5 -598.5 332.0 -634.5 370.0 -670.5 398.5 -698.0 427.5 -726.0 437.0 -737.0 L440.0 -737.0 Q440.0 -719.0 438.0 -673.0 436.0 -626.5 434.0 -562.5 432.0 -499.0 432.0 -429.0 L432.0 -271.5 Q432.0 -160.5 432.0 -92.5 432.0 -24.0 434.0 0.0" fill-rule="evenodd" stroke="none"/>
    </g>
    <g id="font_Lithos_Pro_Regular_.0">
      <path d="M81.0 0.0 L81.0 -113.5 195.5 -113.5 195.5 0.0 81.0 0.0" fill-rule="evenodd" stroke="none"/>
    </g>
    <g id="font_Lithos_Pro_Regular_D0">
      <path d="M245.5 -639.5 L245.5 -85.0 Q350.5 -95.0 432.0 -127.0 513.5 -159.5 569.5 -207.0 626.0 -254.0 655.0 -308.5 684.0 -363.0 684.0 -417.5 683.5 -495.0 629.5 -545.0 575.5 -594.5 477.0 -618.0 379.0 -641.0 245.5 -639.5 M153.5 -323.5 L153.5 -450.5 Q153.5 -457.5 153.5 -483.5 153.0 -509.5 153.0 -545.0 152.5 -580.5 152.0 -616.5 151.5 -652.5 150.5 -680.0 149.5 -707.0 148.5 -716.5 178.5 -716.5 222.0 -716.5 266.0 -716.0 315.0 -714.0 364.0 -711.5 409.5 -706.0 533.5 -689.5 609.0 -657.5 684.0 -625.5 722.0 -586.5 760.0 -547.0 773.0 -509.5 785.5 -471.5 784.5 -444.0 783.5 -349.0 740.5 -275.5 698.0 -202.0 627.5 -149.0 557.0 -96.0 472.5 -62.0 388.0 -27.5 303.0 -11.5 218.5 5.0 147.5 5.0 148.5 -10.0 149.5 -44.5 150.5 -79.0 151.5 -123.0 152.0 -167.0 152.5 -209.5 153.0 -252.0 153.5 -283.0 153.5 -314.5 153.5 -323.5" fill-rule="evenodd" stroke="none"/>
    </g>
    <g id="font_Lithos_Pro_Regular_r0">
      <path d="M224.0 -543.0 L224.0 -266.5 Q224.0 -256.0 224.5 -227.5 224.5 -199.0 225.0 -162.5 225.5 -125.5 226.5 -90.0 227.0 -54.5 228.0 -29.5 228.5 -5.0 229.0 0.0 L133.0 0.0 Q134.0 -7.0 134.5 -39.0 135.0 -70.5 135.0 -114.5 135.0 -158.5 135.0 -202.5 135.0 -246.5 135.0 -277.5 135.0 -309.0 135.0 -315.5 L135.0 -386.0 Q135.0 -397.5 134.5 -430.0 134.5 -462.5 133.5 -501.5 133.0 -541.0 132.0 -571.5 131.0 -602.0 130.0 -609.5 164.0 -610.0 218.5 -609.5 273.0 -609.0 332.5 -602.5 425.5 -591.5 476.0 -555.5 527.0 -519.5 527.5 -462.0 526.5 -408.0 490.0 -363.0 454.0 -318.0 395.0 -284.0 405.0 -270.5 435.0 -237.0 465.0 -203.0 501.5 -162.5 538.5 -122.0 569.0 -89.5 599.5 -57.0 610.5 -46.0 L539.5 16.5 Q536.0 12.0 512.5 -16.5 489.0 -45.0 455.5 -86.5 422.0 -127.5 387.5 -170.5 352.5 -213.0 326.0 -246.0 299.5 -279.0 290.5 -291.0 308.5 -300.0 332.0 -313.5 355.5 -327.0 377.5 -346.0 400.0 -365.0 415.0 -390.5 429.5 -416.0 430.0 -449.0 431.0 -470.0 415.5 -491.0 399.5 -512.5 355.0 -527.0 310.0 -542.0 224.0 -543.0" fill-rule="evenodd" stroke="none"/>
    </g>
    <g id="font_Lithos_Pro_Regular_o0">
      <path d="M380.0 -53.0 L380.0 -53.0 Q451.0 -53.0 510.0 -84.5 569.0 -116.0 604.5 -176.0 640.0 -236.5 641.0 -322.5 640.0 -400.5 608.5 -452.5 576.5 -504.5 524.5 -530.5 472.5 -556.5 410.5 -556.5 329.0 -555.5 271.0 -519.5 212.5 -483.5 181.5 -423.0 151.0 -362.0 150.5 -287.0 151.0 -221.0 178.5 -168.5 206.0 -115.5 257.0 -84.5 308.5 -53.5 380.0 -53.0 M371.5 14.5 L371.5 14.5 Q269.5 13.5 199.5 -26.0 129.0 -65.5 93.0 -130.5 56.5 -195.5 56.5 -273.5 57.0 -371.5 101.5 -450.5 146.5 -529.5 228.5 -576.0 310.5 -623.0 424.0 -624.0 515.0 -623.5 585.0 -588.5 655.0 -553.5 695.0 -487.5 735.0 -421.0 736.0 -327.0 736.5 -274.5 717.0 -216.0 697.5 -157.5 654.5 -105.0 611.5 -52.5 542.0 -19.5 472.0 13.5 371.5 14.5" fill-rule="evenodd" stroke="none"/>
    </g>
    <g id="font_Lithos_Pro_Regular_p0">
      <path d="M223.0 -541.0 L223.0 -248.0 Q279.0 -258.5 324.5 -280.0 370.0 -301.5 397.5 -336.5 424.5 -371.0 425.0 -421.0 425.5 -433.5 419.0 -453.0 412.5 -472.5 392.0 -492.0 372.0 -512.0 331.0 -526.0 290.5 -539.5 223.0 -541.0 M224.0 0.0 L131.0 0.0 Q131.5 -15.5 132.5 -55.5 133.0 -95.5 134.0 -145.5 134.5 -195.5 134.5 -240.0 135.0 -285.0 135.0 -309.5 L135.0 -405.0 Q135.0 -413.5 134.5 -443.5 134.5 -473.5 134.0 -510.0 133.5 -546.0 133.5 -575.0 133.0 -603.5 133.0 -609.5 153.0 -609.5 185.0 -609.0 217.0 -608.0 252.0 -606.0 287.5 -604.0 317.5 -599.5 412.0 -584.5 465.0 -542.5 518.0 -500.5 519.0 -431.5 518.5 -368.5 481.0 -317.5 443.5 -266.5 377.0 -231.5 311.0 -196.0 223.0 -180.5 L223.0 -131.0 Q223.0 -124.0 223.0 -106.0 223.0 -88.0 223.0 -66.0 223.0 -44.0 223.5 -26.0 223.5 -7.5 224.0 0.0" fill-rule="evenodd" stroke="none"/>
    </g>
    <g id="font_Lithos_Pro_Regular_s0">
      <path d="M131.0 16.5 L107.5 -55.5 Q143.5 -62.0 180.5 -73.0 218.0 -83.5 250.0 -99.0 281.5 -114.5 301.5 -135.0 321.0 -155.0 321.5 -181.5 321.5 -214.0 297.0 -235.5 272.5 -257.0 222.0 -280.5 161.0 -309.0 123.0 -341.0 85.0 -373.5 84.0 -420.0 84.5 -456.5 108.5 -490.0 132.0 -523.0 171.5 -550.5 211.0 -578.0 259.5 -597.5 308.0 -617.0 358.5 -626.0 L377.5 -554.0 Q354.0 -551.0 321.0 -542.5 288.0 -533.5 255.0 -519.5 222.5 -505.0 200.5 -484.0 179.0 -462.5 178.0 -434.5 179.0 -411.0 196.5 -394.5 214.5 -377.5 239.0 -365.0 264.0 -352.0 284.5 -341.0 320.5 -322.0 350.0 -304.0 380.0 -285.5 398.0 -261.5 416.0 -237.5 416.5 -202.0 416.0 -156.0 383.0 -113.5 349.5 -70.5 286.0 -36.5 222.5 -2.5 131.0 16.5" fill-rule="evenodd" stroke="none"/>
    </g>
    <g id="font_Lithos_Pro_Regular_a0">
      <path d="M226.5 -255.0 L476.5 -265.0 Q473.0 -271.5 460.0 -295.0 447.5 -318.5 430.0 -350.5 412.5 -382.5 395.0 -414.0 378.0 -445.5 365.0 -468.0 352.5 -490.5 349.5 -495.5 345.0 -488.5 332.5 -464.0 319.5 -439.5 303.0 -406.0 286.0 -373.0 269.5 -340.0 253.0 -307.0 241.0 -283.5 229.5 -260.0 226.5 -255.0 M93.5 18.5 L14.5 -26.5 Q27.5 -49.5 55.0 -100.0 83.0 -150.5 119.0 -216.5 155.0 -283.0 193.5 -353.0 231.5 -423.5 265.0 -485.0 299.0 -547.0 322.0 -589.0 345.0 -630.5 350.5 -640.0 L352.5 -640.0 Q376.5 -601.5 414.5 -538.0 452.0 -474.0 496.0 -399.0 540.0 -323.5 582.5 -250.0 625.5 -176.5 660.0 -119.0 694.0 -61.0 713.0 -32.5 L630.0 17.5 Q623.0 4.0 605.5 -28.5 587.5 -61.0 566.5 -99.0 545.5 -137.0 529.0 -166.5 512.0 -196.0 508.0 -202.5 L191.5 -190.5 Q186.5 -179.0 173.0 -150.5 159.5 -121.5 143.5 -86.5 127.0 -52.0 113.0 -23.0 99.0 6.5 93.5 18.5" fill-rule="evenodd" stroke="none"/>
    </g>
    <g id="font_Lithos_Pro_Regular_i0">
      <path d="M224.0 -357.5 L224.0 -263.5 Q224.0 -230.0 224.5 -188.5 225.0 -147.0 225.5 -106.5 226.5 -66.5 227.0 -37.5 227.5 -8.5 228.0 0.0 L132.0 0.0 Q132.5 -12.0 133.0 -40.0 133.5 -67.5 134.0 -103.0 134.5 -138.0 134.5 -172.5 135.0 -207.0 135.0 -232.0 135.0 -257.0 135.0 -264.5 L135.0 -358.5 Q135.0 -364.0 134.5 -388.5 134.5 -413.0 134.0 -447.5 133.5 -482.0 132.5 -516.5 132.0 -551.5 131.0 -577.0 130.5 -602.5 130.0 -609.5 L229.0 -609.5 Q228.5 -603.0 227.5 -578.5 226.5 -553.5 226.0 -517.0 225.0 -480.5 224.5 -439.0 224.0 -397.0 224.0 -357.5" fill-rule="evenodd" stroke="none"/>
    </g>
    <g id="font_Lithos_Pro_Regular_n0">
      <path d="M197.5 6.0 L103.5 0.0 Q105.0 -17.5 107.5 -64.0 110.5 -111.0 114.0 -176.0 117.5 -241.0 121.5 -313.0 125.0 -384.5 128.5 -451.5 132.0 -519.0 134.5 -569.5 137.0 -620.5 138.0 -644.0 L143.5 -644.0 Q151.0 -636.0 186.5 -600.0 221.5 -564.0 274.0 -511.5 326.0 -459.0 383.5 -400.5 441.5 -342.5 493.5 -290.0 546.0 -237.0 581.5 -201.5 617.5 -165.5 625.5 -157.5 625.5 -165.0 625.5 -198.0 626.0 -231.5 626.0 -280.5 626.5 -329.5 626.5 -384.0 627.0 -438.5 627.5 -488.0 627.5 -537.5 628.0 -571.5 628.5 -605.5 628.5 -613.5 L719.5 -609.5 Q718.5 -593.0 715.5 -545.0 713.0 -497.5 710.0 -429.0 707.0 -360.5 703.5 -282.0 700.5 -204.0 698.0 -126.0 695.5 -48.0 694.0 18.5 L690.0 18.5 Q682.5 11.5 645.5 -24.5 608.5 -61.0 554.5 -114.5 500.5 -168.5 441.0 -227.5 381.5 -286.5 329.0 -339.5 276.0 -392.0 241.5 -426.5 207.5 -461.0 203.5 -465.0 L201.5 -465.0 Q202.0 -460.0 202.0 -426.5 201.5 -393.0 201.0 -342.0 200.5 -291.0 200.0 -234.0 199.0 -177.0 198.5 -125.0 198.0 -73.5 197.5 -37.5 197.0 -2.0 197.5 6.0" fill-rule="evenodd" stroke="none"/>
    </g>
    <g id="font_Lithos_Pro_Regular_f0">
      <path d="M227.0 0.0 L127.0 0.0 Q130.0 -18.5 131.5 -56.0 133.5 -93.5 134.0 -136.0 134.5 -178.5 135.0 -211.0 135.0 -244.0 135.0 -252.5 L135.0 -368.5 Q135.0 -373.5 135.0 -397.5 134.5 -421.5 134.0 -455.0 134.0 -488.0 133.5 -521.5 132.5 -555.0 132.0 -579.5 131.5 -604.0 131.0 -609.5 139.0 -609.5 167.0 -610.5 195.5 -611.5 235.0 -613.0 274.5 -614.5 315.5 -616.5 357.0 -618.0 390.5 -620.0 424.5 -621.5 441.0 -623.0 L445.0 -549.0 224.0 -545.0 224.0 -331.5 Q231.0 -331.5 255.5 -332.5 280.0 -333.0 312.0 -334.5 344.5 -335.5 375.5 -337.0 406.5 -338.5 427.5 -339.5 L431.0 -267.0 224.0 -270.0 224.0 -190.5 Q224.0 -184.0 224.0 -156.5 224.0 -129.0 224.0 -95.0 224.0 -60.5 225.0 -33.0 225.5 -6.0 227.0 0.0" fill-rule="evenodd" stroke="none"/>
    </g>
    <g id="font_Lithos_Pro_Regular_w0">
      <path d="M878.5 -613.5 L964.5 -578.5 Q962.0 -572.0 944.5 -531.5 927.0 -491.0 900.0 -430.0 873.5 -368.5 843.0 -299.5 812.5 -231.0 784.5 -167.5 756.0 -104.0 735.5 -58.5 715.5 -13.5 708.5 0.0 L704.5 0.0 Q693.5 -19.0 670.5 -56.0 648.0 -93.0 619.5 -138.5 591.5 -183.5 563.5 -228.0 536.0 -272.0 515.0 -305.5 494.0 -339.5 486.0 -353.0 474.5 -332.5 452.5 -294.0 430.5 -256.0 403.0 -208.5 375.5 -161.5 348.0 -114.0 320.0 -67.0 297.5 -28.5 275.0 9.5 263.0 29.5 L259.0 29.5 Q251.5 11.5 234.5 -33.0 217.5 -78.0 195.0 -139.0 172.0 -200.0 147.5 -267.0 122.5 -334.5 99.5 -398.0 76.0 -461.5 58.0 -511.0 40.0 -560.5 30.5 -586.0 L118.5 -621.0 Q128.0 -590.0 145.5 -537.0 163.0 -483.5 184.0 -421.5 205.0 -359.0 225.5 -300.0 245.5 -240.5 260.5 -197.5 275.5 -154.0 280.5 -139.0 290.5 -157.5 314.5 -199.5 338.5 -242.0 370.0 -296.0 401.0 -350.0 432.5 -405.5 464.0 -460.5 489.5 -505.0 L491.5 -505.0 Q513.5 -467.5 542.0 -421.0 570.5 -374.5 601.0 -325.5 631.0 -276.5 658.0 -233.0 685.0 -189.0 703.5 -157.5 707.5 -169.0 720.5 -203.0 733.5 -236.5 752.0 -284.0 770.5 -331.0 791.0 -383.0 811.0 -435.0 829.5 -483.0 848.0 -531.0 861.0 -565.5 874.5 -600.5 878.5 -613.5" fill-rule="evenodd" stroke="none"/>
    </g>
  </defs>
</svg>
