<?xml version="1.0" encoding="UTF-8" standalone="no"?>
<svg xmlns:ffdec="https://www.free-decompiler.com/flash" xmlns:xlink="http://www.w3.org/1999/xlink" ffdec:objectType="text" height="15.2px" width="57.35px" xmlns="http://www.w3.org/2000/svg">
  <g transform="matrix(1.0, 0.0, 0.0, 1.0, -0.15, -1.75)">
    <g transform="matrix(1.0, 0.0, 0.0, 1.0, 0.0, 0.0)">
      <use fill="#00ff00" height="15.2" transform="matrix(0.0156, 0.0, 0.0, 0.0156, 0.0, 15.0)" width="57.35" xlink:href="#font_Lithos_Pro_Regular_M0"/>
      <use fill="#00ff00" height="15.2" transform="matrix(0.0156, 0.0, 0.0, 0.0156, 17.4, 15.0)" width="57.35" xlink:href="#font_Lithos_Pro_Regular_a0"/>
      <use fill="#00ff00" height="15.2" transform="matrix(0.0156, 0.0, 0.0, 0.0156, 29.7, 15.0)" width="57.35" xlink:href="#font_Lithos_Pro_Regular_s0"/>
      <use fill="#00ff00" height="15.2" transform="matrix(0.0156, 0.0, 0.0, 0.0156, 37.85, 15.0)" width="57.35" xlink:href="#font_Lithos_Pro_Regular_k0"/>
    </g>
  </g>
  <defs>
    <g id="font_Lithos_Pro_Regular_M0">
      <path d="M212.0 32.0 L212.0 32.0 10.5 -43.0 Q15.5 -54.0 33.5 -100.5 51.5 -146.5 78.5 -215.5 105.5 -284.0 136.5 -363.0 167.5 -441.5 198.0 -517.5 228.5 -593.5 253.5 -655.0 279.0 -716.0 294.0 -749.5 L304.5 -749.5 Q323.5 -718.5 351.0 -673.5 378.0 -628.5 408.5 -578.5 439.0 -528.0 468.0 -481.0 496.5 -433.5 518.5 -397.5 540.0 -361.5 550.0 -345.5 562.5 -364.0 585.0 -400.5 607.5 -437.0 635.5 -482.5 664.0 -528.5 692.5 -576.0 721.5 -624.0 747.0 -665.0 772.0 -706.5 788.5 -733.5 L799.0 -733.5 Q817.0 -694.5 844.0 -635.0 871.0 -575.0 903.0 -504.0 935.0 -433.5 967.0 -361.5 999.5 -289.5 1027.5 -226.5 1056.0 -163.5 1076.0 -119.5 1095.5 -75.5 1103.0 -60.5 L896.0 32.0 Q886.0 6.5 870.0 -35.5 854.0 -77.5 835.5 -125.5 817.0 -174.0 800.0 -219.5 783.0 -264.5 770.5 -296.5 758.5 -328.5 755.0 -338.0 749.5 -330.0 726.0 -294.0 702.5 -258.0 669.0 -207.5 635.5 -156.5 600.0 -104.0 564.0 -51.5 534.5 -10.0 L524.5 -10.0 Q494.5 -55.5 462.0 -106.5 429.5 -157.5 399.5 -205.0 370.0 -252.5 349.5 -287.0 328.5 -321.5 322.0 -333.5 316.5 -317.0 305.5 -280.0 294.5 -243.0 281.0 -196.0 267.5 -149.0 253.5 -102.5 240.0 -55.5 229.0 -19.5 218.0 16.5 212.0 32.0" fill-rule="evenodd" stroke="none"/>
    </g>
    <g id="font_Lithos_Pro_Regular_a0">
      <path d="M301.0 -222.5 L454.5 -229.5 Q434.5 -268.0 413.0 -306.5 391.5 -345.0 378.0 -373.0 361.0 -340.5 340.0 -300.0 319.5 -259.5 301.0 -222.5 M184.5 29.5 L0.0 -65.0 Q7.5 -76.5 30.5 -114.0 54.0 -152.0 88.0 -206.5 121.5 -261.5 161.0 -324.0 200.0 -387.0 239.5 -449.0 279.0 -511.5 313.5 -564.0 347.5 -616.5 371.5 -650.5 L391.0 -650.5 Q426.0 -602.0 472.5 -535.0 518.5 -467.5 568.5 -394.0 618.5 -321.0 664.0 -254.0 709.5 -187.0 742.0 -139.0 775.0 -91.0 787.5 -75.0 L599.0 28.5 Q584.5 6.5 567.0 -22.0 549.5 -50.5 535.5 -73.5 521.5 -96.5 517.0 -102.5 L243.5 -89.5 Q241.0 -84.5 230.5 -64.0 220.5 -43.5 207.5 -18.0 195.0 8.0 184.5 29.5" fill-rule="evenodd" stroke="none"/>
    </g>
    <g id="font_Lithos_Pro_Regular_s0">
      <path d="M79.5 17.5 L56.0 -138.5 Q107.5 -137.0 154.0 -142.5 201.0 -148.0 231.0 -161.0 261.0 -173.5 262.0 -194.5 263.5 -208.5 243.0 -222.0 223.0 -236.0 167.0 -260.0 136.0 -273.5 105.0 -293.0 73.5 -312.5 52.0 -341.5 30.5 -370.0 29.5 -411.0 30.0 -465.5 77.5 -514.5 125.5 -563.0 214.0 -596.5 303.0 -629.5 427.0 -637.0 L451.5 -479.5 Q356.0 -480.0 308.0 -471.0 260.0 -461.5 260.0 -434.5 260.0 -418.0 284.5 -405.5 308.5 -393.0 354.0 -376.0 380.5 -366.5 413.0 -349.5 445.0 -332.5 469.5 -304.0 493.5 -276.0 494.5 -232.5 495.0 -178.0 452.0 -125.5 409.0 -72.5 317.5 -33.5 225.5 5.0 79.5 17.5" fill-rule="evenodd" stroke="none"/>
    </g>
    <g id="font_Lithos_Pro_Regular_k0">
      <path d="M322.5 9.5 L93.5 9.5 Q94.0 -1.0 94.5 -30.0 95.0 -59.0 95.5 -99.0 96.0 -139.0 96.0 -182.0 96.5 -225.0 96.5 -263.0 L96.5 -355.0 Q96.5 -384.5 96.0 -427.0 95.5 -469.0 95.0 -512.0 94.5 -554.5 94.0 -586.5 93.5 -618.5 93.5 -627.0 L322.5 -627.0 Q322.0 -620.5 321.5 -593.0 320.5 -565.0 319.5 -526.0 319.0 -487.0 318.0 -447.5 317.5 -408.0 317.5 -378.5 L317.5 -353.0 319.5 -353.0 Q334.0 -370.5 359.5 -402.0 385.5 -433.0 416.0 -470.0 447.0 -507.0 476.0 -542.0 505.5 -577.0 526.5 -602.5 548.0 -628.0 555.0 -636.0 L711.5 -497.5 Q692.0 -479.0 658.0 -446.0 624.0 -413.0 588.0 -377.5 551.5 -342.0 525.5 -316.0 538.5 -302.5 565.5 -276.0 592.0 -250.0 623.0 -219.5 654.5 -189.5 681.5 -163.0 709.0 -136.0 724.0 -122.0 L547.0 25.5 Q541.5 19.5 522.0 -5.5 502.5 -30.5 474.5 -66.5 447.0 -103.0 417.0 -142.0 387.0 -181.5 361.0 -215.5 335.0 -250.0 319.5 -271.0 L317.5 -271.0 317.5 -255.5 Q317.5 -229.5 318.0 -188.0 318.5 -147.0 319.5 -104.5 320.0 -61.5 321.0 -30.0 322.0 2.0 322.5 9.5" fill-rule="evenodd" stroke="none"/>
    </g>
  </defs>
</svg>
