<?xml version="1.0" encoding="UTF-8" standalone="no"?>
<svg xmlns:ffdec="https://www.free-decompiler.com/flash" xmlns:xlink="http://www.w3.org/1999/xlink" ffdec:objectType="text" height="29.8px" width="149.45px" xmlns="http://www.w3.org/2000/svg">
  <g transform="matrix(1.0, 0.0, 0.0, 1.0, 2.0, 2.0)">
    <g transform="matrix(1.0, 0.0, 0.0, 1.0, -2.0, -2.0)">
      <use fill="#f7cf73" height="29.8" transform="matrix(0.0195, 0.0, 0.0, 0.0195, 14.2, 21.3)" width="149.45" xlink:href="#font_Lithos_Pro_Regular_C0"/>
      <use fill="#f7cf73" height="29.8" transform="matrix(0.0195, 0.0, 0.0, 0.0195, 27.1, 21.3)" width="149.45" xlink:href="#font_Lithos_Pro_Regular_A0"/>
      <use fill="#f7cf73" height="29.8" transform="matrix(0.0195, 0.0, 0.0, 0.0195, 44.0, 21.3)" width="149.45" xlink:href="#font_Lithos_Pro_Regular_M0"/>
      <use fill="#f7cf73" height="29.8" transform="matrix(0.0195, 0.0, 0.0, 0.0195, 65.75, 21.3)" width="149.45" xlink:href="#font_Lithos_Pro_Regular_P0"/>
      <use fill="#f7cf73" height="29.8" transform="matrix(0.0195, 0.0, 0.0, 0.0195, 77.0, 21.3)" width="149.45" xlink:href="#font_Lithos_Pro_Regular_A0"/>
      <use fill="#f7cf73" height="29.8" transform="matrix(0.0195, 0.0, 0.0, 0.0195, 93.9, 21.3)" width="149.45" xlink:href="#font_Lithos_Pro_Regular_I0"/>
      <use fill="#f7cf73" height="29.8" transform="matrix(0.0195, 0.0, 0.0, 0.0195, 102.5, 21.3)" width="149.45" xlink:href="#font_Lithos_Pro_Regular_G0"/>
      <use fill="#f7cf73" height="29.8" transform="matrix(0.0195, 0.0, 0.0, 0.0195, 117.3, 21.3)" width="149.45" xlink:href="#font_Lithos_Pro_Regular_N0"/>
    </g>
  </g>
  <defs>
    <g id="font_Lithos_Pro_Regular_C0">
      <path d="M606.5 -179.0 L606.5 -179.0 616.5 8.5 Q590.0 11.5 561.0 14.0 531.5 16.5 496.0 16.5 370.0 15.5 282.5 -12.5 194.5 -40.5 140.0 -86.0 85.5 -132.0 60.5 -185.5 35.5 -239.5 36.0 -292.0 36.0 -356.0 66.0 -423.5 95.5 -490.5 157.5 -553.0 219.5 -615.5 315.5 -665.0 411.5 -714.5 544.0 -743.5 L589.0 -547.0 Q481.5 -527.0 414.5 -491.5 347.5 -456.0 316.5 -411.0 285.5 -366.0 286.0 -317.5 286.5 -277.5 313.5 -245.0 340.5 -213.0 390.0 -193.5 439.5 -174.5 508.0 -174.0 539.0 -174.0 563.5 -176.0 588.0 -177.5 606.5 -179.0" fill-rule="evenodd" stroke="none"/>
    </g>
    <g id="font_Lithos_Pro_Regular_A0">
      <path d="M328.0 -261.5 L328.0 -261.5 501.0 -270.5 Q486.0 -300.0 470.0 -332.0 453.5 -364.0 439.0 -393.0 424.5 -422.0 415.0 -443.5 402.5 -418.5 387.5 -387.5 372.0 -356.0 356.5 -323.0 341.5 -290.5 328.0 -261.5 M194.5 32.5 L194.5 32.5 0.0 -76.0 Q8.5 -90.0 34.5 -134.5 60.5 -178.5 99.0 -243.0 137.0 -307.5 181.0 -381.5 225.5 -455.5 269.0 -528.5 313.0 -601.5 351.0 -663.5 388.5 -725.0 414.0 -765.0 L424.0 -765.0 Q461.5 -708.5 513.0 -629.0 564.5 -550.0 620.0 -463.5 676.0 -377.0 727.0 -298.5 778.0 -219.5 815.0 -163.5 852.0 -107.0 865.5 -88.5 L662.5 31.5 Q647.0 5.5 628.0 -28.0 608.5 -61.5 592.5 -89.5 576.0 -117.5 570.5 -127.0 L262.0 -110.0 Q257.5 -102.0 246.0 -77.0 234.5 -52.5 220.5 -22.5 206.5 7.5 194.5 32.5" fill-rule="evenodd" stroke="none"/>
    </g>
    <g id="font_Lithos_Pro_Regular_M0">
      <path d="M212.0 32.0 L212.0 32.0 10.5 -43.0 Q15.5 -54.0 33.5 -100.5 51.5 -146.5 78.5 -215.5 105.5 -284.0 136.5 -363.0 167.5 -441.5 198.0 -517.5 228.5 -593.5 253.5 -655.0 279.0 -716.0 294.0 -749.5 L304.5 -749.5 Q323.5 -718.5 351.0 -673.5 378.0 -628.5 408.5 -578.5 439.0 -528.0 468.0 -481.0 496.5 -433.5 518.5 -397.5 540.0 -361.5 550.0 -345.5 562.5 -364.0 585.0 -400.5 607.5 -437.0 635.5 -482.5 664.0 -528.5 692.5 -576.0 721.5 -624.0 747.0 -665.0 772.0 -706.5 788.5 -733.5 L799.0 -733.5 Q817.0 -694.5 844.0 -635.0 871.0 -575.0 903.0 -504.0 935.0 -433.5 967.0 -361.5 999.5 -289.5 1027.5 -226.5 1056.0 -163.5 1076.0 -119.5 1095.5 -75.5 1103.0 -60.5 L896.0 32.0 Q886.0 6.5 870.0 -35.5 854.0 -77.5 835.5 -125.5 817.0 -174.0 800.0 -219.5 783.0 -264.5 770.5 -296.5 758.5 -328.5 755.0 -338.0 749.5 -330.0 726.0 -294.0 702.5 -258.0 669.0 -207.5 635.5 -156.5 600.0 -104.0 564.0 -51.5 534.5 -10.0 L524.5 -10.0 Q494.5 -55.5 462.0 -106.5 429.5 -157.5 399.5 -205.0 370.0 -252.5 349.5 -287.0 328.5 -321.5 322.0 -333.5 316.5 -317.0 305.5 -280.0 294.5 -243.0 281.0 -196.0 267.5 -149.0 253.5 -102.5 240.0 -55.5 229.0 -19.5 218.0 16.5 212.0 32.0" fill-rule="evenodd" stroke="none"/>
    </g>
    <g id="font_Lithos_Pro_Regular_P0">
      <path d="M333.5 -582.5 L333.5 -582.5 333.5 -325.0 Q364.0 -329.5 396.0 -348.0 428.0 -366.0 450.0 -397.0 472.0 -427.5 473.0 -470.0 473.5 -499.0 461.0 -523.0 449.0 -547.0 418.5 -562.5 388.0 -578.0 333.5 -582.5 M335.5 0.0 L335.5 0.0 107.5 0.0 Q108.0 -14.0 108.0 -47.5 108.5 -81.5 109.0 -126.0 109.5 -170.5 109.5 -216.5 110.0 -262.5 110.5 -301.5 110.5 -340.5 110.5 -363.0 L110.5 -475.5 Q110.5 -483.0 110.0 -509.0 110.0 -534.5 109.5 -569.0 109.0 -604.0 108.5 -638.0 108.0 -672.0 108.0 -696.0 107.5 -720.5 107.5 -726.0 253.0 -726.5 351.5 -721.0 450.0 -715.5 513.0 -700.5 565.0 -687.5 608.5 -662.5 652.0 -637.0 678.5 -596.5 704.5 -556.5 705.5 -499.0 705.5 -431.5 664.0 -366.5 623.0 -301.5 540.0 -252.0 457.5 -202.5 333.5 -181.0 L333.5 -153.5 Q333.5 -145.0 333.5 -124.0 333.5 -102.5 333.5 -77.0 334.0 -51.5 334.5 -30.0 335.0 -9.0 335.5 0.0" fill-rule="evenodd" stroke="none"/>
    </g>
    <g id="font_Lithos_Pro_Regular_I0">
      <path d="M341.0 -419.0 L341.0 -419.0 341.0 -309.0 Q341.0 -269.5 341.5 -220.5 342.0 -172.0 342.5 -125.0 343.5 -78.0 344.0 -44.0 344.5 -10.0 345.0 0.0 L107.5 0.0 Q108.0 -14.5 108.5 -47.0 109.0 -80.0 109.5 -121.0 110.0 -162.5 110.0 -203.0 110.5 -243.0 110.5 -272.5 110.5 -302.0 110.5 -311.0 L110.5 -421.5 Q110.5 -427.5 110.0 -457.5 110.0 -487.0 109.5 -529.0 109.0 -571.0 108.5 -613.0 108.0 -655.5 108.0 -686.5 107.5 -717.5 107.5 -726.0 L345.0 -726.0 Q344.5 -718.5 344.0 -687.5 343.5 -656.5 342.5 -611.5 342.0 -566.5 341.5 -516.5 341.0 -466.0 341.0 -419.0" fill-rule="evenodd" stroke="none"/>
    </g>
    <g id="font_Lithos_Pro_Regular_G0">
      <path d="M683.0 -233.0 L683.0 -233.0 683.0 -158.5 Q683.0 -138.0 683.5 -106.5 684.0 -75.5 684.5 -47.0 685.0 -19.0 685.0 -7.0 671.5 -3.0 638.0 2.5 605.0 8.0 558.0 12.5 511.5 16.5 459.0 16.5 310.5 13.5 217.0 -28.5 123.5 -70.0 79.5 -138.0 35.5 -206.0 36.0 -287.5 35.0 -335.5 59.5 -399.0 84.0 -462.5 142.5 -529.0 201.5 -595.5 304.5 -652.5 407.5 -710.0 564.5 -745.5 L611.5 -544.5 Q558.5 -537.5 501.0 -518.0 443.5 -498.5 392.5 -467.5 342.0 -436.0 310.0 -394.0 278.5 -351.5 277.5 -299.0 278.0 -261.0 295.5 -234.0 313.0 -207.0 341.0 -190.5 369.0 -173.5 401.0 -166.0 433.5 -158.5 463.0 -159.5 L464.0 -241.5 Q464.0 -263.5 463.0 -285.0 462.0 -306.0 462.0 -327.5 L684.0 -327.5 Q683.5 -298.5 683.0 -277.0 683.0 -255.5 683.0 -233.0" fill-rule="evenodd" stroke="none"/>
    </g>
    <g id="font_Lithos_Pro_Regular_N0">
      <path d="M284.5 7.5 L284.5 7.5 75.5 0.0 Q77.0 -19.0 80.0 -70.0 83.0 -121.0 86.5 -192.0 90.5 -263.5 94.5 -343.0 98.5 -422.5 103.0 -499.0 107.0 -575.0 110.5 -637.0 114.5 -698.5 117.0 -733.5 L127.0 -739.5 Q171.5 -707.0 232.5 -661.5 293.5 -616.0 359.0 -566.5 425.0 -517.5 484.0 -472.5 543.0 -428.0 584.0 -397.0 625.5 -366.0 637.0 -357.5 637.0 -375.0 637.0 -413.5 636.5 -452.0 636.0 -501.0 635.5 -549.5 635.5 -597.5 635.0 -645.0 635.0 -681.5 634.5 -718.0 635.0 -732.0 L844.0 -726.0 Q841.0 -685.5 837.0 -625.0 833.0 -564.5 828.5 -492.5 824.0 -420.0 819.0 -345.0 815.0 -270.0 811.0 -200.5 807.5 -131.0 805.0 -74.5 802.0 -18.5 800.5 15.5 L790.5 20.5 Q752.5 -4.5 692.0 -49.0 631.5 -93.5 563.0 -146.0 494.5 -198.5 432.5 -246.5 370.5 -295.0 329.5 -327.5 288.0 -360.0 282.5 -364.5 282.5 -351.0 282.5 -313.0 282.5 -275.0 283.0 -225.0 283.0 -175.5 283.5 -126.0 283.5 -76.5 284.0 -40.0 284.0 -3.5 284.5 7.5" fill-rule="evenodd" stroke="none"/>
    </g>
  </defs>
</svg>
