<?xml version="1.0" encoding="UTF-8" standalone="no"?>
<svg xmlns:ffdec="https://www.free-decompiler.com/flash" xmlns:xlink="http://www.w3.org/1999/xlink" ffdec:objectType="text" height="22.05px" width="145.05px" xmlns="http://www.w3.org/2000/svg">
  <g transform="matrix(1.0, 0.0, 0.0, 1.0, 19.95, 2.0)">
    <g transform="matrix(1.0, 0.0, 0.0, 1.0, -19.95, -2.0)">
      <use fill="#f7cf73" height="22.05" transform="matrix(0.0137, 0.0, 0.0, 0.0137, 11.1, 15.5)" width="145.05" xlink:href="#font_Lithos_Pro_Regular_W0"/>
      <use fill="#f7cf73" height="22.05" transform="matrix(0.0137, 0.0, 0.0, 0.0137, 21.9, 15.5)" width="145.05" xlink:href="#font_Lithos_Pro_Regular_A0"/>
      <use fill="#f7cf73" height="22.05" transform="matrix(0.0137, 0.0, 0.0, 0.0137, 33.75, 15.5)" width="145.05" xlink:href="#font_Lithos_Pro_Regular_L0"/>
      <use fill="#f7cf73" height="22.05" transform="matrix(0.0137, 0.0, 0.0, 0.0137, 41.95, 15.5)" width="145.05" xlink:href="#font_Lithos_Pro_Regular_K0"/>
      <use fill="#f7cf73" height="22.05" transform="matrix(0.0137, 0.0, 0.0, 0.0137, 53.05, 15.5)" width="145.05" xlink:href="#font_Lithos_Pro_Regular_T0"/>
      <use fill="#f7cf73" height="22.05" transform="matrix(0.0137, 0.0, 0.0, 0.0137, 62.3, 15.5)" width="145.05" xlink:href="#font_Lithos_Pro_Regular_H0"/>
      <use fill="#f7cf73" height="22.05" transform="matrix(0.0137, 0.0, 0.0, 0.0137, 75.25, 15.5)" width="145.05" xlink:href="#font_Lithos_Pro_Regular_R0"/>
      <use fill="#f7cf73" height="22.05" transform="matrix(0.0137, 0.0, 0.0, 0.0137, 86.1, 15.5)" width="145.05" xlink:href="#font_Lithos_Pro_Regular_O0"/>
      <use fill="#f7cf73" height="22.05" transform="matrix(0.0137, 0.0, 0.0, 0.0137, 98.75, 15.5)" width="145.05" xlink:href="#font_Lithos_Pro_Regular_U0"/>
      <use fill="#f7cf73" height="22.05" transform="matrix(0.0137, 0.0, 0.0, 0.0137, 110.6, 15.5)" width="145.05" xlink:href="#font_Lithos_Pro_Regular_G0"/>
      <use fill="#f7cf73" height="22.05" transform="matrix(0.0137, 0.0, 0.0, 0.0137, 120.95, 15.5)" width="145.05" xlink:href="#font_Lithos_Pro_Regular_H0"/>
    </g>
  </g>
  <defs>
    <g id="font_Lithos_Pro_Regular_W0">
      <path d="M898.0 -726.0 L898.0 -726.0 1107.0 -644.0 Q1102.0 -634.0 1079.5 -587.0 1057.5 -540.0 1025.0 -470.5 992.0 -400.5 955.5 -322.5 918.5 -244.0 884.0 -171.5 850.0 -98.5 824.5 -45.5 798.5 7.5 788.5 26.5 L778.0 26.5 Q756.5 -2.0 724.5 -46.0 692.5 -90.0 658.0 -138.0 623.5 -186.5 595.0 -227.0 566.0 -267.5 551.0 -289.0 526.0 -254.0 493.5 -206.5 460.5 -159.0 426.0 -109.5 391.5 -59.5 362.0 -17.0 332.5 25.5 314.5 51.0 L304.0 51.0 Q293.5 31.0 271.5 -20.0 249.5 -71.0 220.5 -141.0 191.5 -211.0 159.5 -288.5 127.5 -366.0 98.0 -439.0 68.0 -512.5 44.5 -570.0 20.5 -627.5 8.0 -657.5 L225.0 -737.5 Q236.0 -701.5 250.5 -654.0 265.0 -606.0 281.0 -554.5 297.0 -503.0 311.5 -456.0 326.5 -409.0 338.0 -374.5 349.0 -339.5 354.0 -325.0 363.0 -341.0 392.0 -387.0 420.5 -433.5 462.0 -500.5 503.5 -567.5 551.0 -646.0 L561.0 -646.0 Q629.5 -541.5 683.5 -464.5 737.5 -387.5 766.0 -343.5 L769.0 -343.5 Q775.5 -361.0 788.5 -399.0 801.5 -437.0 817.5 -485.5 833.5 -533.5 849.5 -582.0 865.5 -630.5 878.5 -669.0 891.5 -707.5 898.0 -726.0" fill-rule="evenodd" stroke="none"/>
    </g>
    <g id="font_Lithos_Pro_Regular_A0">
      <path d="M328.0 -261.5 L328.0 -261.5 501.0 -270.5 Q486.0 -300.0 470.0 -332.0 453.5 -364.0 439.0 -393.0 424.5 -422.0 415.0 -443.5 402.5 -418.5 387.5 -387.5 372.0 -356.0 356.5 -323.0 341.5 -290.5 328.0 -261.5 M194.5 32.5 L194.5 32.5 0.0 -76.0 Q8.5 -90.0 34.5 -134.5 60.5 -178.5 99.0 -243.0 137.0 -307.5 181.0 -381.5 225.5 -455.5 269.0 -528.5 313.0 -601.5 351.0 -663.5 388.5 -725.0 414.0 -765.0 L424.0 -765.0 Q461.5 -708.5 513.0 -629.0 564.5 -550.0 620.0 -463.5 676.0 -377.0 727.0 -298.5 778.0 -219.5 815.0 -163.5 852.0 -107.0 865.5 -88.5 L662.5 31.5 Q647.0 5.5 628.0 -28.0 608.5 -61.5 592.5 -89.5 576.0 -117.5 570.5 -127.0 L262.0 -110.0 Q257.5 -102.0 246.0 -77.0 234.5 -52.5 220.5 -22.5 206.5 7.5 194.5 32.5" fill-rule="evenodd" stroke="none"/>
    </g>
    <g id="font_Lithos_Pro_Regular_L0">
      <path d="M106.5 -726.0 L106.5 -726.0 346.0 -726.0 Q345.5 -716.0 345.0 -677.5 344.0 -639.0 343.0 -584.0 342.0 -529.0 341.5 -471.0 341.0 -412.5 341.0 -363.0 L341.0 -176.0 Q350.5 -176.0 375.5 -176.0 400.0 -176.0 433.0 -176.5 466.5 -177.0 501.5 -177.5 537.0 -178.5 568.5 -180.0 L569.5 10.5 Q560.5 10.5 519.5 9.5 478.5 8.5 419.5 7.0 361.0 5.5 298.5 3.5 236.0 2.0 184.5 1.0 133.5 0.0 107.5 0.0 108.5 -17.0 109.0 -49.5 109.5 -82.0 110.0 -121.0 110.0 -160.5 110.5 -198.0 110.5 -235.5 110.5 -262.5 110.5 -289.5 110.5 -297.5 L110.5 -433.5 Q110.5 -439.5 110.5 -468.5 110.0 -497.5 109.5 -538.0 109.5 -578.5 109.0 -619.5 108.5 -660.0 107.5 -689.5 107.0 -719.0 106.5 -726.0" fill-rule="evenodd" stroke="none"/>
    </g>
    <g id="font_Lithos_Pro_Regular_K0">
      <path d="M345.0 10.5 L345.0 10.5 106.5 10.5 Q107.0 -1.5 107.5 -35.5 108.0 -69.5 109.0 -116.5 109.5 -163.5 110.0 -214.0 110.5 -264.5 110.5 -309.0 L110.5 -418.0 Q110.5 -452.5 110.0 -502.0 109.5 -551.5 108.5 -602.0 107.5 -653.0 107.0 -690.0 106.5 -727.5 106.5 -737.5 L345.0 -737.5 Q344.5 -730.0 344.0 -694.5 343.0 -659.5 342.0 -610.0 341.0 -560.5 340.5 -511.5 340.0 -462.5 340.0 -428.0 L340.0 -401.5 342.0 -401.5 Q360.5 -425.0 391.0 -464.0 421.5 -502.5 457.0 -547.0 492.5 -591.5 526.0 -633.5 559.5 -675.0 583.5 -705.0 607.5 -735.0 615.5 -744.5 L785.5 -595.0 Q770.0 -579.0 743.0 -551.0 715.5 -523.0 683.0 -490.0 650.5 -457.0 620.0 -425.5 589.5 -394.0 568.5 -372.0 583.0 -355.5 613.0 -323.5 643.5 -291.5 679.0 -253.5 714.5 -216.0 746.0 -183.5 777.0 -150.5 793.5 -133.0 L613.5 24.5 Q607.5 17.5 585.0 -12.0 562.0 -41.0 529.5 -83.5 497.0 -126.0 461.0 -173.0 425.5 -220.5 394.0 -263.0 362.5 -306.0 342.0 -336.0 L340.0 -336.0 340.0 -317.5 Q340.0 -293.0 340.5 -255.0 340.5 -216.5 341.0 -173.5 341.5 -130.5 342.5 -90.5 343.0 -51.0 343.5 -23.5 344.5 4.0 345.0 10.5" fill-rule="evenodd" stroke="none"/>
    </g>
    <g id="font_Lithos_Pro_Regular_T0">
      <path d="M456.5 0.0 L456.5 0.0 220.0 0.0 Q220.5 -10.5 221.5 -40.0 222.0 -69.5 222.5 -110.0 222.5 -151.0 223.0 -196.5 223.0 -241.5 223.0 -284.0 L223.0 -553.0 Q204.0 -553.0 171.5 -552.0 139.0 -551.5 103.5 -550.5 67.5 -549.0 38.5 -548.5 9.5 -547.5 -3.5 -547.0 L-3.5 -726.0 Q11.5 -724.5 44.5 -723.5 77.5 -722.5 119.0 -721.5 160.5 -720.5 199.5 -719.5 239.0 -718.5 265.5 -718.0 292.5 -718.0 297.0 -718.0 L386.0 -718.0 Q392.5 -718.0 419.0 -718.0 445.5 -718.5 483.0 -719.5 520.5 -720.5 559.5 -721.5 599.0 -722.5 631.0 -723.5 663.0 -724.5 678.5 -726.0 L678.5 -547.0 Q672.0 -547.0 649.5 -548.0 626.5 -548.5 595.5 -549.5 565.0 -550.5 534.0 -551.0 503.5 -552.0 481.5 -552.5 459.0 -553.0 453.5 -553.0 L453.5 -268.0 Q453.5 -227.5 453.5 -184.5 454.0 -141.0 454.0 -102.0 454.5 -63.0 455.0 -35.5 456.0 -8.5 456.5 0.0" fill-rule="evenodd" stroke="none"/>
    </g>
    <g id="font_Lithos_Pro_Regular_H0">
      <path d="M345.0 0.0 L345.0 0.0 107.5 0.0 Q108.0 -14.5 108.5 -47.0 109.0 -80.0 109.5 -121.5 110.0 -163.0 110.0 -203.0 110.5 -243.5 110.5 -273.0 110.5 -302.5 110.5 -311.5 L110.5 -422.0 Q110.5 -428.0 110.0 -458.0 110.0 -487.5 109.5 -529.5 109.0 -571.0 108.0 -613.5 107.5 -655.5 106.5 -686.5 106.0 -717.5 105.5 -726.0 L346.0 -726.0 Q345.5 -720.0 344.5 -696.5 344.0 -673.0 343.5 -641.0 342.5 -609.0 342.0 -577.5 341.5 -545.5 341.5 -522.0 341.0 -498.5 341.0 -492.5 L341.0 -451.5 607.0 -471.0 607.0 -514.0 Q607.0 -521.5 606.5 -551.0 606.5 -581.0 606.0 -618.0 605.0 -655.5 604.5 -686.0 603.5 -716.5 603.0 -726.0 L841.5 -726.0 Q841.0 -717.5 840.5 -684.0 840.0 -650.5 839.5 -604.5 839.0 -558.5 838.5 -512.5 838.0 -466.5 838.0 -433.0 837.5 -399.5 837.5 -391.5 L837.5 -289.0 Q837.5 -284.0 837.5 -255.5 838.0 -227.0 838.5 -187.0 838.5 -147.0 839.0 -106.5 839.5 -65.5 840.5 -36.5 841.0 -7.0 841.5 0.0 L603.0 0.0 Q603.5 -14.0 604.0 -46.5 604.5 -78.5 605.5 -116.0 606.0 -153.0 606.5 -182.5 607.0 -212.0 607.0 -220.0 L607.0 -298.0 341.0 -278.5 341.0 -241.5 Q341.0 -223.5 341.5 -188.0 342.0 -152.5 342.5 -112.5 343.5 -72.5 344.0 -41.0 344.5 -10.0 345.0 0.0" fill-rule="evenodd" stroke="none"/>
    </g>
    <g id="font_Lithos_Pro_Regular_R0">
      <path d="M333.5 -584.5 L333.5 -584.5 333.5 -312.5 Q333.5 -300.0 334.0 -267.0 334.0 -233.5 334.5 -190.5 335.0 -147.0 336.0 -105.5 336.5 -64.0 337.5 -34.5 338.0 -5.5 338.5 0.0 L110.5 0.0 Q111.5 -8.5 112.5 -46.0 113.0 -83.0 113.0 -134.5 113.0 -186.0 113.0 -237.5 113.0 -289.0 112.5 -325.5 112.5 -362.5 112.5 -370.0 L112.5 -454.0 Q112.5 -464.0 112.5 -492.0 112.0 -520.0 111.5 -557.0 111.0 -594.0 110.5 -630.5 110.0 -667.0 109.0 -693.0 108.5 -719.5 107.5 -726.0 178.0 -726.0 246.5 -725.0 314.5 -724.0 375.0 -721.0 435.5 -717.5 482.0 -711.5 596.0 -697.0 655.5 -653.0 715.0 -609.5 715.5 -538.5 714.5 -476.0 679.5 -426.0 644.0 -376.0 583.5 -334.0 596.0 -320.0 626.0 -289.0 656.0 -257.5 692.0 -220.5 727.5 -183.5 757.0 -152.5 786.5 -121.5 797.5 -108.5 L610.0 32.5 Q602.5 20.0 577.5 -16.5 553.0 -53.0 520.0 -101.5 486.5 -150.5 453.5 -199.5 420.0 -248.5 394.5 -286.0 369.0 -324.0 360.0 -338.5 383.5 -351.5 410.5 -374.0 438.0 -396.5 457.5 -426.0 477.0 -455.0 478.0 -489.5 478.5 -514.0 465.0 -535.5 452.0 -556.5 420.0 -570.0 388.5 -583.5 333.5 -584.5" fill-rule="evenodd" stroke="none"/>
    </g>
    <g id="font_Lithos_Pro_Regular_O0">
      <path d="M447.5 -142.0 L447.5 -142.0 Q531.5 -142.5 580.5 -201.5 629.5 -261.0 631.5 -376.0 631.5 -475.5 589.5 -530.0 547.5 -584.5 473.0 -585.0 414.5 -584.0 374.0 -551.5 333.5 -519.0 312.0 -466.0 291.0 -412.5 291.0 -349.0 291.5 -280.5 313.0 -234.5 334.0 -188.5 369.5 -165.0 405.0 -142.0 447.5 -142.0 M436.0 16.5 L436.0 16.5 Q334.0 15.5 259.0 -15.0 184.5 -46.0 136.0 -97.0 88.0 -148.0 64.5 -210.0 41.0 -271.5 41.0 -334.0 41.0 -409.0 68.0 -481.5 95.5 -553.5 150.5 -613.0 205.5 -672.0 289.5 -707.5 373.0 -742.5 486.5 -743.5 608.5 -743.0 697.5 -700.0 786.0 -657.0 834.0 -576.5 882.0 -496.0 882.5 -383.0 882.5 -336.0 869.0 -282.0 855.0 -228.0 824.0 -175.0 793.0 -122.5 741.5 -79.0 689.5 -35.5 614.0 -10.0 539.0 16.0 436.0 16.5" fill-rule="evenodd" stroke="none"/>
    </g>
    <g id="font_Lithos_Pro_Regular_U0">
      <path d="M308.0 -544.0 L308.0 -544.0 308.0 -474.0 Q308.0 -393.0 311.5 -338.0 315.5 -283.0 325.5 -248.0 336.0 -213.0 355.0 -190.5 373.0 -170.0 395.5 -161.5 418.0 -153.0 442.0 -153.5 469.5 -153.5 492.5 -165.0 516.0 -176.5 533.5 -201.5 543.5 -216.5 549.5 -236.5 555.5 -256.0 558.5 -289.0 561.5 -322.0 562.5 -377.5 563.0 -433.0 563.0 -519.0 L563.0 -558.0 Q563.0 -612.0 561.0 -660.0 559.0 -708.0 558.0 -737.5 L792.5 -737.5 Q792.5 -725.5 792.5 -698.5 793.0 -671.0 793.0 -634.0 793.5 -597.0 793.5 -556.0 L793.5 -509.0 Q794.0 -411.0 787.5 -336.0 781.5 -260.5 762.0 -202.5 743.0 -144.5 704.5 -98.0 657.0 -41.5 586.0 -12.5 515.0 16.5 429.0 16.5 386.0 17.5 334.5 8.5 283.0 0.0 232.5 -28.0 182.0 -55.5 142.0 -111.5 123.5 -139.0 110.5 -170.5 97.5 -202.0 89.5 -246.0 81.5 -290.0 78.0 -354.0 74.5 -418.5 74.5 -511.0 L74.5 -566.5 Q74.5 -591.0 75.0 -622.5 75.0 -654.0 75.5 -681.5 75.5 -709.5 75.5 -722.0 L314.0 -722.0 Q311.0 -702.0 309.5 -658.0 308.0 -613.5 308.0 -544.0" fill-rule="evenodd" stroke="none"/>
    </g>
    <g id="font_Lithos_Pro_Regular_G0">
      <path d="M683.0 -233.0 L683.0 -233.0 683.0 -158.5 Q683.0 -138.0 683.5 -106.5 684.0 -75.5 684.5 -47.0 685.0 -19.0 685.0 -7.0 671.5 -3.0 638.0 2.5 605.0 8.0 558.0 12.5 511.5 16.5 459.0 16.5 310.5 13.5 217.0 -28.5 123.5 -70.0 79.5 -138.0 35.5 -206.0 36.0 -287.5 35.0 -335.5 59.5 -399.0 84.0 -462.5 142.5 -529.0 201.5 -595.5 304.5 -652.5 407.5 -710.0 564.5 -745.5 L611.5 -544.5 Q558.5 -537.5 501.0 -518.0 443.5 -498.5 392.5 -467.5 342.0 -436.0 310.0 -394.0 278.5 -351.5 277.5 -299.0 278.0 -261.0 295.5 -234.0 313.0 -207.0 341.0 -190.5 369.0 -173.5 401.0 -166.0 433.5 -158.5 463.0 -159.5 L464.0 -241.5 Q464.0 -263.5 463.0 -285.0 462.0 -306.0 462.0 -327.5 L684.0 -327.5 Q683.5 -298.5 683.0 -277.0 683.0 -255.5 683.0 -233.0" fill-rule="evenodd" stroke="none"/>
    </g>
  </defs>
</svg>
