<?xml version="1.0" encoding="UTF-8" standalone="no"?>
<svg xmlns:ffdec="https://www.free-decompiler.com/flash" xmlns:xlink="http://www.w3.org/1999/xlink" ffdec:objectType="text" height="24.7px" width="23.6px" xmlns="http://www.w3.org/2000/svg">
  <g transform="matrix(1.0, 0.0, 0.0, 1.0, 56.55, 2.0)">
    <g transform="matrix(1.0, 0.0, 0.0, 1.0, -56.55, -2.0)">
      <use fill="#ff0000" height="24.7" transform="matrix(0.0156, 0.0, 0.0, 0.0156, 5.4, 17.45)" width="23.6" xlink:href="#font_Lithos_Pro_Regular_X0"/>
    </g>
  </g>
  <defs>
    <g id="font_Lithos_Pro_Regular_X0">
      <path d="M183.0 41.0 L183.0 41.0 26.5 -116.0 Q33.0 -123.0 55.0 -147.5 77.5 -171.5 108.5 -205.0 139.5 -238.0 171.0 -272.0 202.5 -306.0 227.0 -332.5 251.5 -359.0 261.0 -370.0 240.5 -392.0 208.0 -428.0 175.5 -464.0 141.5 -502.0 107.0 -540.0 81.5 -568.5 55.5 -597.0 49.0 -604.5 L224.0 -764.0 Q241.5 -742.0 269.0 -707.0 296.5 -671.5 326.0 -633.0 356.0 -595.0 380.5 -564.0 405.5 -533.0 416.5 -519.5 428.0 -533.0 454.0 -564.5 480.0 -595.5 512.5 -634.5 544.5 -673.0 573.5 -708.0 602.5 -743.0 619.5 -764.0 L783.5 -612.5 Q773.0 -601.5 740.5 -569.0 708.5 -537.0 669.0 -497.5 629.5 -458.0 596.5 -425.0 564.0 -392.5 553.0 -380.0 564.5 -367.5 589.5 -340.5 615.0 -313.5 646.0 -279.5 677.5 -245.0 707.5 -212.0 738.0 -179.0 760.0 -155.0 782.0 -131.0 788.5 -124.0 L614.5 39.0 Q601.0 22.5 571.0 -14.0 541.5 -50.5 506.5 -93.5 471.5 -136.5 441.5 -173.5 411.5 -210.0 397.5 -227.5 390.0 -219.0 368.5 -192.5 347.0 -165.5 318.5 -129.5 290.5 -93.5 262.0 -57.5 233.5 -21.5 212.0 5.0 190.5 32.0 183.0 41.0" fill-rule="evenodd" stroke="none"/>
    </g>
  </defs>
</svg>
