<?xml version="1.0" encoding="UTF-8" standalone="no"?>
<svg xmlns:ffdec="https://www.free-decompiler.com/flash" xmlns:xlink="http://www.w3.org/1999/xlink" ffdec:objectType="text" height="10.6px" width="71.25px" xmlns="http://www.w3.org/2000/svg">
  <g transform="matrix(1.0, 0.0, 0.0, 1.0, 3.7, -0.35)">
    <g transform="matrix(1.0, 0.0, 0.0, 1.0, -57.95, 0.0)">
      <use fill="#dbb663" height="10.6" transform="matrix(0.0098, 0.0, 0.0, 0.0098, 54.0, 10.0)" width="71.25" xlink:href="#font_Lithos_Pro_Regular_S0"/>
      <use fill="#dbb663" height="10.6" transform="matrix(0.0098, 0.0, 0.0, 0.0098, 59.45, 10.0)" width="71.25" xlink:href="#font_Lithos_Pro_Regular_i0"/>
      <use fill="#dbb663" height="10.6" transform="matrix(0.0098, 0.0, 0.0, 0.0098, 63.45, 10.0)" width="71.25" xlink:href="#font_Lithos_Pro_Regular_l0"/>
      <use fill="#dbb663" height="10.6" transform="matrix(0.0098, 0.0, 0.0, 0.0098, 68.75, 10.0)" width="71.25" xlink:href="#font_Lithos_Pro_Regular_l0"/>
      <use fill="#dbb663" height="10.6" transform="matrix(0.0098, 0.0, 0.0, 0.0098, 73.4, 10.0)" width="71.25" xlink:href="#font_Lithos_Pro_Regular_y0"/>
      <use fill="#dbb663" height="10.6" transform="matrix(0.0098, 0.0, 0.0, 0.0098, 83.05, 10.0)" width="71.25" xlink:href="#font_Lithos_Pro_Regular_B0"/>
      <use fill="#dbb663" height="10.6" transform="matrix(0.0098, 0.0, 0.0, 0.0098, 90.25, 10.0)" width="71.25" xlink:href="#font_Lithos_Pro_Regular_a0"/>
      <use fill="#dbb663" height="10.6" transform="matrix(0.0098, 0.0, 0.0, 0.0098, 97.6, 10.0)" width="71.25" xlink:href="#font_Lithos_Pro_Regular_t0"/>
      <use fill="#dbb663" height="10.6" transform="matrix(0.0098, 0.0, 0.0, 0.0098, 103.6, 10.0)" width="71.25" xlink:href="#font_Lithos_Pro_Regular_t0"/>
      <use fill="#dbb663" height="10.6" transform="matrix(0.0098, 0.0, 0.0, 0.0098, 109.6, 10.0)" width="71.25" xlink:href="#font_Lithos_Pro_Regular_l0"/>
      <use fill="#dbb663" height="10.6" transform="matrix(0.0098, 0.0, 0.0, 0.0098, 114.9, 10.0)" width="71.25" xlink:href="#font_Lithos_Pro_Regular_e0"/>
    </g>
  </g>
  <defs>
    <g id="font_Lithos_Pro_Regular_S0">
      <path d="M95.5 18.5 L95.5 18.5 67.5 -156.5 Q118.5 -155.0 165.5 -163.5 213.0 -171.5 244.0 -188.5 274.5 -205.0 275.5 -229.5 276.0 -239.0 268.0 -248.5 260.0 -258.0 238.0 -272.0 216.0 -286.0 175.0 -309.0 142.0 -327.5 110.0 -351.5 78.5 -376.0 57.5 -408.0 36.5 -440.5 35.5 -483.5 36.0 -541.5 84.5 -597.5 133.5 -653.0 225.5 -693.0 317.5 -733.0 447.5 -745.5 L475.0 -574.5 Q379.0 -574.5 330.5 -558.5 282.5 -542.5 282.5 -511.0 282.5 -493.5 307.0 -477.5 332.0 -462.0 382.0 -438.5 410.5 -425.0 443.0 -404.0 476.0 -383.0 499.5 -351.0 523.5 -319.0 524.5 -273.5 524.5 -230.5 501.0 -185.5 477.5 -140.0 426.5 -98.5 375.5 -57.5 294.0 -26.5 212.0 4.5 95.5 18.5" fill-rule="evenodd" stroke="none"/>
    </g>
    <g id="font_Lithos_Pro_Regular_i0">
      <path d="M315.5 -357.5 L315.5 -263.0 Q315.5 -229.5 316.0 -188.0 316.5 -146.5 317.0 -106.5 318.0 -66.5 318.5 -37.5 319.0 -8.5 319.5 0.0 L92.5 0.0 Q93.0 -12.0 93.0 -40.0 93.5 -67.5 93.5 -103.0 94.0 -138.0 94.0 -172.5 94.5 -206.5 94.5 -231.5 94.5 -256.5 94.5 -264.0 L94.5 -358.5 Q94.5 -364.0 94.5 -389.5 94.0 -414.5 94.0 -450.5 93.5 -486.0 93.0 -522.0 93.0 -558.0 92.5 -584.5 92.5 -611.0 92.5 -618.5 L319.5 -618.5 Q319.0 -611.5 318.5 -585.5 318.0 -559.0 317.0 -521.0 316.5 -482.5 316.0 -440.0 315.5 -397.0 315.5 -357.5" fill-rule="evenodd" stroke="none"/>
    </g>
    <g id="font_Lithos_Pro_Regular_l0">
      <path d="M93.5 -618.5 L322.5 -618.5 Q322.0 -610.0 321.5 -577.0 320.5 -544.0 319.5 -497.0 319.0 -450.5 318.0 -401.0 317.5 -351.0 317.5 -309.0 L317.5 -156.5 Q330.0 -156.5 364.5 -156.5 399.0 -157.0 442.5 -157.5 486.0 -158.5 524.5 -160.5 L525.5 9.5 Q516.0 9.5 477.5 8.5 439.0 7.5 384.5 6.0 330.0 5.0 272.5 3.5 215.0 2.0 167.5 1.0 119.5 0.0 94.5 0.0 95.0 -18.5 95.5 -56.0 96.0 -93.5 96.5 -136.0 96.5 -178.5 96.5 -211.0 96.5 -244.0 96.5 -252.5 L96.5 -368.5 Q96.5 -373.5 96.5 -398.5 96.0 -423.0 95.5 -457.5 95.5 -492.5 95.0 -527.0 94.5 -562.0 94.0 -587.0 94.0 -612.5 93.5 -618.5" fill-rule="evenodd" stroke="none"/>
    </g>
    <g id="font_Lithos_Pro_Regular_y0">
      <path d="M471.0 0.0 L241.0 0.0 Q241.5 -8.5 242.0 -26.5 243.0 -44.5 244.0 -65.5 244.5 -86.5 245.5 -102.5 246.0 -119.0 246.0 -124.0 L246.0 -160.0 Q245.0 -244.5 213.5 -304.5 181.5 -364.0 129.5 -397.5 101.5 -414.5 74.5 -422.5 47.5 -430.5 25.0 -436.5 L96.5 -635.0 Q144.0 -622.0 190.0 -599.5 236.0 -577.0 272.5 -544.0 298.0 -519.5 321.5 -482.5 344.5 -446.0 361.5 -395.5 L369.0 -395.5 Q384.5 -439.0 410.5 -476.0 437.0 -513.0 470.0 -543.0 504.0 -573.0 548.0 -597.5 592.5 -622.0 647.0 -637.0 L705.5 -437.5 Q674.0 -431.5 636.0 -417.5 598.0 -403.5 564.0 -379.0 522.0 -347.0 495.0 -292.0 468.0 -236.5 467.0 -162.0 L467.0 -107.5 Q467.0 -100.0 467.5 -78.0 468.0 -56.0 469.0 -33.0 470.0 -10.0 471.0 0.0" fill-rule="evenodd" stroke="none"/>
    </g>
    <g id="font_Lithos_Pro_Regular_B0">
      <path d="M323.5 -610.5 L323.5 -610.5 323.5 -419.0 Q346.5 -419.0 373.0 -432.0 399.5 -445.5 419.0 -471.0 438.0 -497.0 439.0 -534.0 438.0 -567.5 418.5 -584.5 399.0 -601.5 372.0 -607.0 345.5 -612.5 323.5 -610.5 M323.5 -319.5 L323.5 -319.5 323.5 -120.0 Q352.5 -120.5 385.5 -134.0 418.0 -147.5 441.0 -170.5 464.0 -194.0 465.0 -223.5 464.5 -256.5 444.0 -278.5 424.0 -300.5 391.5 -311.0 359.5 -321.0 323.5 -319.5 M110.5 -379.0 L110.5 -379.0 110.5 -492.5 Q110.5 -505.0 110.0 -538.5 110.0 -572.5 109.0 -612.5 108.5 -652.5 107.5 -684.5 106.5 -716.5 105.5 -726.0 179.0 -726.0 233.5 -725.5 288.0 -724.5 332.5 -722.0 377.5 -719.0 421.5 -713.5 501.0 -703.5 549.5 -684.0 597.5 -665.0 622.5 -641.0 647.0 -617.0 655.5 -592.0 664.0 -567.0 663.5 -545.5 664.0 -526.0 654.0 -500.5 644.0 -475.0 616.0 -447.5 588.0 -419.5 534.5 -394.5 L534.5 -388.0 Q571.0 -381.5 608.0 -363.0 644.5 -344.0 669.5 -311.5 694.5 -278.5 695.5 -229.5 695.5 -170.5 643.0 -117.0 590.0 -63.5 480.5 -29.5 371.5 5.0 202.5 6.0 L105.5 6.0 Q107.0 -12.0 108.0 -54.0 109.0 -95.5 109.5 -148.5 110.0 -201.0 110.0 -251.5 110.5 -301.5 110.5 -337.0 110.5 -372.0 110.5 -379.0" fill-rule="evenodd" stroke="none"/>
    </g>
    <g id="font_Lithos_Pro_Regular_a0">
      <path d="M301.0 -222.5 L454.5 -229.5 Q434.5 -268.0 413.0 -306.5 391.5 -345.0 378.0 -373.0 361.0 -340.5 340.0 -300.0 319.5 -259.5 301.0 -222.5 M184.5 29.5 L0.0 -65.0 Q7.5 -76.5 30.5 -114.0 54.0 -152.0 88.0 -206.5 121.5 -261.5 161.0 -324.0 200.0 -387.0 239.5 -449.0 279.0 -511.5 313.5 -564.0 347.5 -616.5 371.5 -650.5 L391.0 -650.5 Q426.0 -602.0 472.5 -535.0 518.5 -467.5 568.5 -394.0 618.5 -321.0 664.0 -254.0 709.5 -187.0 742.0 -139.0 775.0 -91.0 787.5 -75.0 L599.0 28.5 Q584.5 6.5 567.0 -22.0 549.5 -50.5 535.5 -73.5 521.5 -96.5 517.0 -102.5 L243.5 -89.5 Q241.0 -84.5 230.5 -64.0 220.5 -43.5 207.5 -18.0 195.0 8.0 184.5 29.5" fill-rule="evenodd" stroke="none"/>
    </g>
    <g id="font_Lithos_Pro_Regular_t0">
      <path d="M421.5 0.0 L194.5 0.0 Q195.0 -12.5 195.5 -51.5 196.0 -90.5 196.0 -141.5 196.5 -192.5 196.5 -241.0 L196.5 -461.0 Q181.5 -461.0 153.5 -460.5 125.0 -459.5 93.0 -459.0 61.5 -458.0 35.0 -457.0 8.5 -456.5 -3.0 -456.0 L-3.0 -616.5 Q10.0 -615.0 40.5 -614.0 70.5 -613.0 108.5 -612.0 146.0 -611.5 181.5 -610.5 217.5 -610.0 242.0 -609.5 266.5 -609.5 270.0 -609.5 L351.0 -609.5 Q357.0 -609.5 381.0 -609.5 405.0 -610.0 439.0 -610.5 473.5 -611.5 509.0 -612.0 544.5 -613.0 574.0 -614.0 603.0 -615.0 617.0 -616.5 L617.0 -456.0 Q609.5 -456.5 580.0 -457.0 550.5 -458.0 514.5 -459.0 478.5 -459.5 451.0 -460.5 423.0 -461.0 418.5 -461.0 L418.5 -227.5 Q418.5 -181.0 419.0 -132.5 419.0 -83.5 420.0 -46.5 420.5 -10.0 421.5 0.0" fill-rule="evenodd" stroke="none"/>
    </g>
    <g id="font_Lithos_Pro_Regular_e0">
      <path d="M519.5 -147.0 L522.5 9.5 Q510.0 9.5 468.5 8.5 427.5 7.5 371.0 6.0 315.0 5.0 257.5 3.5 200.5 2.0 156.0 1.0 112.0 0.0 94.5 0.0 95.0 -18.5 95.5 -56.0 96.0 -93.5 96.5 -136.0 96.5 -178.5 96.5 -211.0 96.5 -244.0 96.5 -253.0 L96.5 -368.5 Q96.5 -373.5 96.5 -397.5 96.0 -421.5 96.0 -455.0 95.5 -489.0 95.0 -523.5 95.0 -558.0 94.5 -584.0 94.5 -610.0 94.5 -618.5 113.0 -618.5 155.5 -620.0 198.5 -621.0 252.5 -623.0 307.0 -625.0 360.0 -627.0 413.0 -629.5 452.0 -631.0 491.5 -633.0 504.0 -634.0 L508.0 -484.5 Q494.0 -484.5 465.0 -483.5 435.5 -483.0 402.5 -482.0 369.0 -481.0 343.5 -480.0 317.5 -479.5 310.5 -479.5 L310.5 -373.5 Q318.0 -373.5 338.5 -374.0 359.0 -375.0 385.5 -376.0 412.0 -377.0 436.5 -378.5 461.5 -380.0 477.5 -381.5 L479.5 -236.5 Q469.5 -236.5 445.5 -237.0 421.5 -237.5 393.5 -238.0 365.0 -238.5 342.0 -239.0 319.0 -239.5 310.5 -239.5 L310.5 -145.0 Q320.0 -145.0 347.0 -144.5 373.5 -144.5 407.0 -144.5 441.0 -144.5 471.5 -145.0 502.0 -145.5 519.5 -147.0" fill-rule="evenodd" stroke="none"/>
    </g>
  </defs>
</svg>
