<?xml version="1.0" encoding="UTF-8" standalone="no"?>
<svg xmlns:ffdec="https://www.free-decompiler.com/flash" xmlns:xlink="http://www.w3.org/1999/xlink" ffdec:objectType="text" height="15.3px" width="23.15px" xmlns="http://www.w3.org/2000/svg">
  <g transform="matrix(1.0, 0.0, 0.0, 1.0, -0.85, -5.7)">
    <g transform="matrix(1.0, 0.0, 0.0, 1.0, 0.0, 0.0)">
      <use fill="#000000" height="15.3" transform="matrix(0.0176, 0.0, 0.0, 0.0176, 0.0, 20.0)" width="23.15" xlink:href="#font_Arial_Black_G0"/>
    </g>
  </g>
  <defs>
    <g id="font_Arial_Black_G0">
      <path d="M443.5 -265.5 L595.0 -265.5 595.0 -196.5 Q550.5 -170.0 516.0 -159.0 481.5 -148.0 443.5 -148.0 363.5 -148.0 319.0 -199.0 274.0 -250.0 274.0 -369.0 274.0 -481.0 318.5 -532.5 362.5 -584.5 437.0 -584.5 487.0 -584.5 519.5 -562.5 551.5 -540.5 565.0 -499.0 L783.5 -538.0 Q763.5 -609.0 724.0 -655.0 684.0 -701.5 624.0 -723.5 563.5 -745.5 442.0 -745.5 316.0 -745.5 241.5 -710.0 146.0 -664.0 96.5 -575.0 47.0 -486.5 47.0 -366.5 47.0 -252.5 92.5 -164.5 137.5 -76.5 220.0 -32.0 302.0 12.5 432.5 12.5 538.5 12.5 616.0 -12.0 693.0 -37.0 793.5 -105.5 L793.5 -418.0 443.5 -418.0 443.5 -265.5" fill-rule="evenodd" stroke="none"/>
    </g>
  </defs>
</svg>
