<?xml version="1.0" encoding="UTF-8" standalone="no"?>
<svg xmlns:ffdec="https://www.free-decompiler.com/flash" xmlns:xlink="http://www.w3.org/1999/xlink" ffdec:objectType="text" height="14.9px" width="21.65px" xmlns="http://www.w3.org/2000/svg">
  <g transform="matrix(1.0, 0.0, 0.0, 1.0, -1.35, -5.9)">
    <g transform="matrix(1.0, 0.0, 0.0, 1.0, 0.0, 0.0)">
      <use fill="#000000" height="14.9" transform="matrix(0.0176, 0.0, 0.0, 0.0176, 0.0, 20.0)" width="21.65" xlink:href="#font_Arial_Black_R0"/>
    </g>
  </g>
  <defs>
    <g id="font_Arial_Black_R0">
      <path d="M305.5 -436.0 L305.5 -585.0 405.0 -585.0 Q467.0 -585.0 489.5 -566.0 512.0 -547.0 512.0 -511.5 512.0 -487.5 498.0 -469.0 483.5 -450.5 461.0 -446.0 416.5 -436.0 401.0 -436.0 L305.5 -436.0 M78.0 0.0 L305.5 0.0 305.5 -297.5 325.5 -297.5 Q356.5 -297.5 381.0 -280.5 399.0 -267.5 422.0 -224.0 L543.0 0.0 799.0 0.0 689.5 -212.5 Q681.5 -228.5 657.5 -258.0 634.0 -287.5 621.5 -296.5 603.0 -310.0 562.5 -323.5 613.0 -335.0 642.0 -352.5 687.5 -380.0 713.5 -424.0 739.5 -468.5 739.5 -529.5 739.5 -599.5 705.5 -648.0 671.5 -697.0 616.0 -715.0 560.5 -733.0 455.5 -733.0 L78.0 -733.0 78.0 0.0" fill-rule="evenodd" stroke="none"/>
    </g>
  </defs>
</svg>
