<?xml version="1.0" encoding="UTF-8" standalone="no"?>
<svg xmlns:ffdec="https://www.free-decompiler.com/flash" xmlns:xlink="http://www.w3.org/1999/xlink" ffdec:objectType="text" height="14.8px" width="25.95px" xmlns="http://www.w3.org/2000/svg">
  <g transform="matrix(1.0, 0.0, 0.0, 1.0, -20.25, -1.65)">
    <g transform="matrix(1.0, 0.0, 0.0, 1.0, 0.0, 0.0)">
      <use fill="#ffcc66" height="14.8" transform="matrix(0.0156, 0.0, 0.0, 0.0156, 20.0, 15.0)" width="25.95" xlink:href="#font_Lithos_Pro_Regular__0"/>
      <use fill="#ffcc66" height="14.8" transform="matrix(0.0156, 0.0, 0.0, 0.0156, 27.55, 15.0)" width="25.95" xlink:href="#font_Lithos_Pro_Regular_10"/>
    </g>
  </g>
  <defs>
    <g id="font_Lithos_Pro_Regular__0">
      <path d="M239.5 -545.0 L239.5 -545.0 370.5 -545.0 370.5 -335.0 569.0 -335.0 569.0 -212.0 370.5 -212.0 370.5 0.0 239.5 0.0 239.5 -212.0 41.0 -212.0 41.0 -335.0 239.5 -335.0 239.5 -545.0" fill-rule="evenodd" stroke="none"/>
    </g>
    <g id="font_Lithos_Pro_Regular_10">
      <path d="M573.5 0.0 L573.5 0.0 340.0 0.0 Q340.5 -14.0 341.5 -57.5 342.5 -100.5 343.0 -162.0 344.0 -223.5 344.0 -293.0 L344.0 -502.0 Q321.0 -493.0 289.0 -478.0 257.5 -463.5 230.5 -450.5 L178.0 -582.5 Q190.0 -588.5 228.5 -605.5 266.5 -623.0 321.0 -647.5 375.5 -672.5 437.0 -700.0 498.0 -728.0 556.0 -755.0 L576.5 -742.5 Q576.0 -717.0 575.0 -669.5 573.5 -622.0 572.5 -560.0 571.5 -498.0 571.5 -428.0 L571.5 -271.5 Q571.5 -160.5 571.5 -92.5 572.0 -24.0 573.5 0.0" fill-rule="evenodd" stroke="none"/>
    </g>
  </defs>
</svg>
