<?xml version="1.0" encoding="UTF-8" standalone="no"?>
<svg xmlns:ffdec="https://www.free-decompiler.com/flash" xmlns:xlink="http://www.w3.org/1999/xlink" ffdec:objectType="text" height="15.3px" width="28.35px" xmlns="http://www.w3.org/2000/svg">
  <g transform="matrix(1.0, 0.0, 0.0, 1.0, -17.85, -1.75)">
    <g transform="matrix(1.0, 0.0, 0.0, 1.0, 0.0, 0.0)">
      <use fill="#ffcc66" height="15.3" transform="matrix(0.0156, 0.0, 0.0, 0.0156, 18.0, 15.0)" width="28.35" xlink:href="#font_Lithos_Pro_Regular_x0"/>
      <use fill="#ffcc66" height="15.3" transform="matrix(0.0156, 0.0, 0.0, 0.0156, 27.65, 15.0)" width="28.35" xlink:href="#font_Lithos_Pro_Regular_30"/>
    </g>
  </g>
  <defs>
    <g id="font_Lithos_Pro_Regular_x0">
      <path d="M172.0 39.0 L22.5 -102.5 Q30.0 -110.5 59.0 -139.5 88.0 -168.0 124.5 -204.5 161.0 -240.5 192.0 -271.0 222.5 -301.5 233.5 -313.0 215.0 -332.0 186.0 -362.0 156.5 -391.5 126.0 -423.0 95.5 -454.5 72.0 -478.5 49.0 -502.0 43.0 -508.5 L208.0 -651.0 Q224.0 -632.0 248.5 -602.5 273.0 -572.5 299.0 -540.5 325.5 -508.0 347.0 -482.0 369.0 -455.5 379.0 -444.0 389.0 -455.5 412.5 -482.0 435.5 -508.5 464.0 -541.0 492.0 -573.5 518.0 -603.5 544.0 -633.0 560.0 -651.0 L715.0 -513.0 Q705.0 -503.0 676.0 -476.5 647.0 -450.0 611.5 -418.0 575.5 -386.0 546.5 -359.0 517.0 -332.5 507.0 -322.5 520.5 -308.5 551.5 -278.0 583.0 -247.0 619.0 -211.0 655.0 -175.5 683.0 -147.0 711.5 -119.0 720.0 -110.5 L555.0 38.0 Q542.5 23.5 516.0 -7.5 489.5 -38.5 458.5 -75.0 427.5 -111.5 401.0 -142.5 374.5 -173.5 361.5 -188.5 353.0 -179.0 326.5 -147.0 300.0 -115.0 267.0 -75.5 234.5 -36.0 208.0 -3.5 181.0 29.0 172.0 39.0" fill-rule="evenodd" stroke="none"/>
    </g>
    <g id="font_Lithos_Pro_Regular_30">
      <path d="M209.0 -588.0 L209.0 -588.0 222.0 -747.5 Q310.5 -746.5 388.0 -734.0 465.5 -722.0 525.0 -698.5 584.0 -674.5 618.0 -639.0 651.5 -603.0 652.0 -554.0 651.0 -516.0 629.5 -482.0 608.5 -448.5 576.0 -423.5 544.0 -398.5 511.0 -386.0 L511.0 -380.0 Q558.0 -370.0 595.5 -350.0 633.0 -330.0 654.5 -299.5 676.5 -269.0 677.0 -227.5 675.5 -154.5 613.5 -97.5 551.0 -40.5 442.0 -7.5 333.0 26.0 192.5 28.0 L185.5 -134.0 Q213.5 -131.0 253.5 -135.0 293.0 -139.0 332.0 -150.5 371.0 -162.5 397.0 -183.0 423.0 -204.0 424.0 -234.5 423.0 -262.5 402.5 -279.5 382.0 -296.5 352.0 -305.0 322.0 -313.0 294.0 -315.5 265.5 -318.0 250.0 -317.5 L243.5 -410.5 Q260.5 -410.5 287.5 -414.5 315.0 -418.5 342.5 -429.5 370.5 -440.0 389.5 -459.5 408.5 -479.0 409.5 -509.0 409.0 -531.5 389.0 -547.0 369.5 -562.0 338.5 -571.0 307.5 -580.5 273.0 -584.0 239.0 -588.0 209.0 -588.0" fill-rule="evenodd" stroke="none"/>
    </g>
  </defs>
</svg>
