<?xml version="1.0" encoding="UTF-8" standalone="no"?>
<svg xmlns:ffdec="https://www.free-decompiler.com/flash" xmlns:xlink="http://www.w3.org/1999/xlink" ffdec:objectType="frame" height="297.3px" width="1031.05px" xmlns="http://www.w3.org/2000/svg">
  <g transform="matrix(1.0, 0.0, 0.0, 1.0, 501.0, 12.0)">
    <use ffdec:characterId="785" height="304.5" transform="matrix(0.7638, -0.0629, 0.0738, 0.8955, -500.9789, 12.6056)" width="345.5" xlink:href="#shape0"/>
    <use ffdec:characterId="785" height="304.5" transform="matrix(-0.7638, -0.0629, -0.0738, 0.8955, 530.0289, 9.7556)" width="345.5" xlink:href="#shape0"/>
  </g>
  <defs>
    <g id="shape0" transform="matrix(1.0, 0.0, 0.0, 1.0, 27.75, 18.75)">
      <path d="M48.5 275.35 L47.6 277.15 Q43.75 284.55 42.55 284.55 L41.7 285.15 Q40.75 285.75 37.5 285.75 33.45 285.75 32.0 284.8 L31.8 284.95 31.0 285.25 24.45 285.4 17.5 285.75 Q16.6 284.85 16.5 284.2 L16.8 283.3 2.9 282.5 -7.3 282.85 Q-8.25 283.15 -10.0 284.25 L-13.5 284.25 -15.65 283.2 -16.25 282.75 -21.5 282.75 Q-24.7 279.6 -25.05 268.95 L-24.75 257.6 Q-24.75 252.4 -26.25 241.15 -27.75 229.85 -27.75 224.15 -27.75 222.95 -24.5 223.0 -21.3 223.05 -17.35 224.25 -13.5 225.45 -11.0 226.95 L-11.25 226.3 -11.25 225.0 Q-11.25 222.25 -8.55 213.95 -5.8 205.55 -5.75 203.8 L-4.9 198.6 -4.1 193.3 Q-3.5 189.65 -1.7 189.4 L2.75 189.85 Q2.8 186.45 4.3 180.05 L6.75 169.3 Q7.0 167.8 6.7 164.0 L6.4 158.1 Q6.75 151.8 13.5 155.25 L20.75 159.6 20.75 159.1 Q20.75 153.3 44.9 129.6 57.0 117.75 69.05 107.05 75.4 101.1 83.95 95.25 91.9 89.75 99.35 86.1 L101.0 85.3 108.3 81.35 108.55 81.2 110.25 80.2 112.55 78.9 118.35 75.95 119.55 75.45 119.8 75.35 Q132.0 70.4 156.8 68.3 156.95 67.75 158.55 67.65 L160.15 67.75 162.5 68.25 164.65 69.1 164.8 69.15 Q168.25 70.95 168.25 74.25 168.25 81.05 160.65 86.0 L158.15 87.5 Q164.25 83.4 164.25 82.85 L164.15 82.05 164.0 82.0 160.4 83.1 162.75 81.0 Q165.75 77.75 165.75 74.6 165.75 72.3 161.25 71.1 158.1 70.25 157.2 69.3 L155.3 69.45 Q144.65 70.85 121.8 78.3 114.5 80.65 102.5 87.55 L101.3 88.25 Q97.4 90.45 93.85 92.65 L91.3 94.25 91.0 94.4 89.3 95.5 89.05 95.65 83.75 99.25 Q76.3 104.4 70.55 109.5 60.5 118.35 53.3 125.1 L51.95 126.4 51.7 126.65 50.2 128.05 49.6 128.6 47.45 130.75 44.15 134.0 Q30.0 148.55 23.25 160.55 L22.75 160.9 28.0 164.6 32.05 167.85 35.3 171.05 Q35.6 169.9 38.15 169.25 L46.65 167.65 47.5 167.5 47.5 167.25 62.45 167.25 64.5 167.25 67.0 167.25 69.55 167.9 70.1 168.05 70.8 168.25 70.8 168.5 72.2 168.7 72.75 168.75 74.0 168.45 73.5 169.05 74.35 169.35 77.3 170.45 Q75.7 170.9 73.95 172.15 L72.4 171.8 Q70.55 171.4 66.25 170.0 L47.55 170.0 Q45.7 170.8 41.1 171.85 L36.8 172.75 37.55 173.8 Q40.8 178.4 48.75 194.4 L48.75 194.55 Q56.9 192.25 62.0 192.5 L62.0 192.25 64.25 192.25 66.95 192.25 71.6 192.25 Q70.5 193.1 69.1 194.9 52.5 196.15 40.5 201.25 L33.15 204.75 29.9 206.0 33.55 210.35 Q45.4 225.05 46.2 232.5 L47.1 232.45 45.05 233.05 Q40.95 234.6 40.75 237.15 L39.4 237.25 Q35.3 237.9 31.85 239.2 L30.9 239.7 25.0 242.55 Q23.75 243.05 18.7 246.7 L15.65 248.95 18.35 252.35 19.0 253.25 20.6 255.55 Q23.6 259.95 27.3 266.4 33.75 277.6 33.75 281.65 L33.75 281.75 37.65 282.15 39.85 282.5 39.4 282.45 39.25 282.75 39.3 284.5 39.7 284.65 41.0 284.75 Q42.3 284.75 48.5 275.35 M43.2 196.3 L43.45 196.2 46.75 195.15 46.3 194.3 46.1 193.85 45.9 193.5 45.45 192.7 45.15 192.15 Q40.75 184.05 35.2 177.1 L33.4 174.95 31.55 172.85 Q25.9 166.7 19.6 162.05 17.65 160.65 15.7 159.4 L13.85 158.25 10.25 156.25 Q10.15 162.95 8.15 173.95 6.15 185.0 5.5 190.45 L11.55 192.0 Q15.95 193.05 21.4 197.55 24.25 199.9 27.35 203.2 L27.5 203.35 Q29.95 201.05 40.45 197.25 L43.2 196.3 M10.2 195.6 L4.1 193.25 4.0 193.25 3.8 193.15 -1.1 191.55 -1.9 195.8 -8.25 227.05 -8.5 227.4 Q-8.75 227.75 -9.5 227.75 L-9.85 227.75 Q-4.15 230.35 2.45 235.8 8.2 240.55 12.85 245.7 14.85 241.65 23.55 237.9 L24.3 237.6 Q31.05 234.8 38.9 233.45 L43.6 232.75 40.05 224.3 37.85 219.65 Q35.65 215.4 33.2 212.2 30.8 209.05 27.65 206.25 L27.55 206.25 27.05 206.15 26.8 206.0 26.8 205.5 Q20.05 199.8 10.2 195.6 M53.65 231.85 L55.15 229.45 54.3 231.55 53.85 231.55 53.65 231.85 M30.55 282.7 L30.8 282.75 30.65 282.5 30.75 282.25 Q30.35 275.95 24.45 267.0 17.2 256.95 14.25 251.8 0.3 236.55 -10.5 229.8 -19.0 224.5 -20.45 227.4 L-20.5 227.4 Q-21.25 227.9 -21.25 229.15 -21.25 231.55 -20.25 234.95 L-20.4 234.45 Q-21.3 234.9 -21.4 237.1 L-21.25 240.0 -19.75 260.25 Q-17.65 278.25 -14.1 279.65 L-14.1 279.75 9.5 279.75 Q18.85 280.25 20.8 281.25 21.9 281.8 25.1 282.25 L28.5 282.55 29.5 283.25 Q30.25 283.25 30.5 282.85 L30.55 282.7" fill="#5c6550" fill-rule="evenodd" stroke="none"/>
      <path d="M69.55 167.9 L67.0 167.25 64.5 167.25 Q63.7 165.05 63.25 160.85 62.0 149.75 61.05 147.75 L55.2 136.8 55.1 136.6 50.95 129.4 50.75 129.1 50.2 128.05 51.7 126.65 51.95 126.4 53.3 125.1 Q60.5 118.35 70.55 109.5 76.3 104.4 83.75 99.25 L86.55 104.4 85.6 104.35 Q80.9 104.4 74.75 109.5 67.95 115.1 66.5 116.5 61.45 121.35 61.25 124.35 L65.0 124.25 71.95 124.25 72.35 124.25 75.1 124.25 81.5 124.25 89.7 125.95 94.75 127.45 94.85 127.35 97.75 128.1 99.4 128.65 99.25 128.05 98.75 124.35 99.05 122.7 99.05 122.75 94.25 112.25 87.6 96.65 89.05 95.65 89.3 95.5 91.0 94.4 91.3 94.25 91.9 95.0 Q96.45 101.2 97.55 109.0 L100.75 118.55 101.25 120.0 101.65 119.5 101.7 119.5 102.25 119.9 103.75 121.75 103.75 128.75 102.85 129.9 101.05 132.2 100.45 133.0 Q94.95 131.7 92.0 130.55 L91.8 130.75 86.5 130.75 76.95 129.85 69.35 129.25 58.25 128.4 56.85 128.25 56.5 128.25 57.2 128.95 57.2 129.0 57.8 129.65 59.65 132.3 60.4 133.55 60.6 133.85 Q64.25 140.0 66.05 145.75 66.9 148.5 68.55 155.8 L69.25 158.95 70.1 157.7 Q71.25 158.7 71.3 161.4 71.4 163.75 70.75 166.1 70.75 167.3 70.4 168.15 L69.75 167.95 69.55 167.9 M28.0 164.6 L22.75 160.9 23.25 160.55 Q30.0 148.55 44.15 134.0 L47.45 130.75 48.35 133.6 Q44.4 136.15 37.85 144.65 28.75 156.45 28.75 161.0 28.75 162.6 28.0 164.6 M101.3 88.25 L102.5 87.55 Q114.5 80.65 121.8 78.3 144.65 70.85 155.3 69.45 L157.2 69.3 Q158.1 70.25 161.25 71.1 165.75 72.3 165.75 74.6 165.75 77.75 162.75 81.0 L160.4 83.1 164.0 82.0 164.15 82.05 164.25 82.85 Q164.25 83.4 158.15 87.5 L157.9 87.65 157.75 87.7 154.8 89.25 152.5 90.45 152.05 90.65 Q145.05 94.0 141.0 96.05 133.7 99.65 125.65 106.0 L125.05 106.5 124.9 106.15 Q124.75 105.75 124.75 104.6 L124.75 104.3 125.5 100.2 125.7 99.55 125.7 99.5 125.75 99.3 125.75 99.25 125.9 98.95 126.0 98.6 125.75 98.75 125.75 98.3 125.75 98.1 125.75 96.9 Q125.85 90.7 127.05 87.25 L128.1 84.85 Q121.7 86.5 114.9 87.05 L104.0 88.25 101.3 88.25 M134.4 93.25 L134.25 92.75 133.95 93.6 134.45 93.3 134.4 93.25 M14.0 158.95 L14.05 159.05 14.3 159.8 14.6 160.75 16.45 165.65 Q19.4 173.25 20.25 178.55 L21.6 190.7 Q21.95 193.2 22.4 195.0 L22.2 194.1 Q21.65 194.9 21.4 197.55 15.95 193.05 11.55 192.0 L5.5 190.45 Q6.15 185.0 8.15 173.95 10.15 162.95 10.25 156.25 L13.85 158.25 14.0 158.95 M-1.9 195.8 Q0.0 199.8 4.5 205.05 L15.55 217.8 Q19.75 223.9 22.55 230.75 22.95 231.65 24.0 236.95 L24.3 237.6 23.55 237.9 Q14.85 241.65 12.85 245.7 8.2 240.55 2.45 235.8 -4.15 230.35 -9.85 227.75 L-9.5 227.75 Q-8.75 227.75 -8.5 227.4 L-8.25 227.05 -1.9 195.8 M4.3 245.55 L6.3 247.4 6.05 247.75 4.3 245.55 M30.65 282.5 L30.8 282.75 30.55 282.7 29.8 282.65 30.1 281.75 30.65 282.5 M25.1 282.25 Q21.9 281.8 20.8 281.25 18.85 280.25 9.5 279.75 L-14.1 279.75 -14.1 279.65 Q-17.65 278.25 -19.75 260.25 L-21.25 240.0 -21.4 237.1 Q-21.3 234.9 -20.4 234.45 L-20.25 234.95 -19.8 236.45 Q-18.4 240.75 -17.0 242.25 -16.2 241.9 -15.9 241.25 L-15.35 243.05 -14.25 243.25 Q-3.0 243.25 12.1 263.75 L21.85 277.85 Q23.75 280.65 25.1 282.25 M-18.6 230.7 L-18.65 231.25 -18.85 230.55 -18.6 230.7" fill="#676d5a" fill-rule="evenodd" stroke="none"/>
      <path d="M18.35 252.35 L15.65 248.95 18.7 246.7 Q23.75 243.05 25.0 242.55 L30.9 239.7 Q34.15 238.55 38.0 237.55 L38.7 237.4 39.4 237.25 40.75 237.15 Q40.95 234.6 45.05 233.05 L47.1 232.45 49.0 232.3 49.0 232.25 50.75 232.25 50.8 231.85 53.65 231.8 53.65 231.85 53.85 231.55 54.3 231.55 53.9 232.25 69.15 232.25 66.4 235.75 64.05 235.8 Q63.5 235.85 63.5 236.0 49.6 236.75 42.9 238.95 37.05 241.75 33.5 243.05 30.35 244.25 24.4 247.9 18.95 251.2 18.35 252.35 M66.95 192.25 L64.25 192.25 64.25 192.1 Q64.25 188.8 68.9 182.1 L76.0 172.75 73.95 172.15 Q75.7 170.9 77.3 170.45 L77.85 170.65 79.75 172.0 79.75 172.1 74.35 179.75 Q69.2 186.95 66.95 192.25 M74.0 168.45 L72.75 168.75 72.2 168.7 72.25 163.85 Q72.65 159.25 72.4 156.3 L72.2 154.65 71.9 155.05 Q75.6 149.75 81.7 142.45 L91.8 130.75 92.0 130.55 Q94.95 131.7 100.45 133.0 L91.35 145.2 74.0 168.45 M70.1 168.05 L69.55 167.9 69.75 167.95 70.1 168.05 M64.5 167.25 L62.45 167.25 Q61.2 164.1 60.1 160.15 L57.95 151.8 57.35 149.85 57.25 149.5 Q56.45 146.8 51.3 139.05 L51.15 138.8 51.0 138.6 50.8 138.25 49.6 136.25 49.5 136.05 48.35 133.6 47.45 130.75 49.6 128.6 Q50.35 129.15 50.75 129.3 L50.75 129.1 50.95 129.4 55.1 136.6 55.2 136.8 61.05 147.75 Q62.0 149.75 63.25 160.85 63.7 165.05 64.5 167.25 M83.75 99.25 L89.05 95.65 87.6 96.65 94.25 112.25 99.05 122.75 99.05 122.7 98.75 124.35 99.25 128.05 99.4 128.65 97.75 128.1 94.85 127.35 95.55 126.6 93.9 121.85 Q92.4 116.3 91.5 113.75 L90.45 111.45 88.15 107.2 86.95 105.1 86.55 104.4 83.75 99.25 M122.45 108.6 Q116.5 113.6 112.0 118.75 108.55 122.7 104.35 128.0 L105.05 125.55 Q105.25 124.35 105.25 119.75 L105.15 115.65 105.2 115.6 Q111.8 108.8 120.9 102.15 L122.15 101.25 121.75 101.55 121.75 105.5 Q121.95 107.45 122.45 108.6 M101.65 119.5 L101.7 119.45 101.7 119.5 101.65 119.5 M125.75 98.75 L126.0 98.6 125.9 98.95 125.75 99.25 125.75 99.3 125.7 99.5 125.65 98.85 125.75 98.75" fill="#a09875" fill-rule="evenodd" stroke="none"/>
      <path d="M39.85 282.5 L37.65 282.15 33.75 281.75 33.75 281.65 Q33.75 277.6 27.3 266.4 23.6 259.95 20.6 255.55 L24.35 252.65 31.0 247.25 Q34.6 243.65 40.3 241.95 48.5 239.55 64.4 239.3 58.8 247.25 50.0 263.75 L39.85 282.5 M30.9 239.7 L31.85 239.2 Q35.3 237.9 39.4 237.25 L38.7 237.4 38.0 237.55 Q34.15 238.55 30.9 239.7 M47.1 232.45 L46.2 232.5 Q45.4 225.05 33.55 210.35 L29.9 206.0 33.15 204.75 40.5 201.25 Q52.5 196.15 69.1 194.9 L69.05 194.9 70.15 194.8 70.3 194.8 Q67.2 197.6 59.25 212.0 51.2 226.65 50.8 231.85 L50.75 232.25 49.0 232.25 49.0 232.3 47.1 232.45 M72.2 168.7 L70.8 168.5 70.8 168.25 70.1 168.05 69.75 167.95 70.4 168.15 Q70.75 167.3 70.75 166.1 71.4 163.75 71.3 161.4 71.25 158.7 70.1 157.7 L69.25 158.95 68.55 155.8 Q66.9 148.5 66.05 145.75 64.25 140.0 60.6 133.85 L60.4 133.55 59.65 132.3 57.8 129.65 57.2 129.0 57.2 128.95 56.85 128.25 58.25 128.4 69.35 129.25 76.95 129.85 76.65 130.25 72.0 130.5 Q66.95 130.6 65.65 132.45 65.25 133.05 65.25 135.1 L65.75 138.25 Q66.4 140.3 67.7 140.95 L68.3 142.7 Q70.6 149.4 71.6 155.5 L71.9 155.05 72.2 154.65 72.4 156.3 Q72.65 159.25 72.25 163.85 L72.2 168.7 M32.05 167.85 L28.0 164.6 Q28.75 162.6 28.75 161.0 28.75 156.45 37.85 144.65 44.4 136.15 48.35 133.6 L49.5 136.05 49.6 136.25 49.5 136.55 Q49.5 138.15 50.8 138.25 L51.0 138.6 Q47.8 139.95 41.95 149.05 37.8 155.5 34.2 163.05 L32.05 167.85 M91.3 94.25 L93.85 92.65 Q97.4 90.45 101.3 88.25 L104.0 88.25 114.9 87.05 Q121.7 86.5 128.1 84.85 L127.05 87.25 Q125.85 90.7 125.75 96.9 L125.75 98.1 125.75 98.3 125.05 99.25 125.65 98.85 125.7 99.5 125.7 99.55 125.5 100.2 124.75 104.3 124.75 104.6 Q124.75 105.75 124.9 106.15 L125.05 106.5 122.45 108.6 Q121.95 107.45 121.75 105.5 L121.75 101.55 122.15 101.25 120.9 102.15 120.8 101.5 Q120.05 96.15 119.85 93.45 L120.4 93.05 110.95 99.6 Q106.1 102.85 101.35 105.25 104.0 110.75 105.2 115.6 L105.15 115.65 105.25 119.75 Q105.25 124.35 105.05 125.55 L104.35 128.0 103.75 128.75 103.75 121.75 102.25 119.9 101.7 119.5 101.7 119.45 101.65 119.5 101.25 120.0 100.75 118.55 97.55 109.0 Q96.45 101.2 91.9 95.0 L91.3 94.25 M75.1 124.25 L72.35 124.25 Q73.55 124.25 74.75 123.55 L75.1 124.25 M71.95 124.25 L65.0 124.25 61.25 124.35 Q61.45 121.35 66.5 116.5 67.95 115.1 74.75 109.5 80.9 104.4 85.6 104.35 L86.55 104.4 86.95 105.1 88.15 107.2 Q80.8 108.05 75.3 112.6 69.75 117.2 69.75 121.35 L69.8 124.0 71.95 124.25 M14.6 160.75 L21.1 167.5 32.75 179.0 Q34.2 180.6 39.6 190.3 L43.2 196.3 40.45 197.25 Q29.95 201.05 27.5 203.35 L27.35 203.2 Q24.25 199.9 21.4 197.55 21.65 194.9 22.2 194.1 L22.4 195.0 Q21.95 193.2 21.6 190.7 L20.25 178.55 Q19.4 173.25 16.45 165.65 L14.6 160.75 M35.2 177.1 L34.8 176.65 32.4 173.95 31.55 172.85 33.4 174.95 35.2 177.1 M15.7 159.4 Q14.45 158.8 14.0 158.95 L13.85 158.25 15.7 159.4 M-1.9 195.8 L-1.1 191.55 3.8 193.15 4.0 193.25 4.1 193.25 10.2 195.6 Q12.7 198.6 18.7 203.75 27.4 211.25 29.55 214.75 30.25 215.85 34.15 226.05 36.5 231.0 38.9 233.45 31.05 234.8 24.3 237.6 L24.0 236.95 Q22.95 231.65 22.55 230.75 19.75 223.9 15.55 217.8 L4.5 205.05 Q0.0 199.8 -1.9 195.8 M27.55 206.25 L27.65 206.25 Q30.8 209.05 33.2 212.2 35.65 215.4 37.85 219.65 33.3 212.85 31.1 210.2 L27.55 206.25 M70.9 168.3 L71.3 168.4 71.45 168.1 71.0 168.3 70.9 168.3 M123.5 99.9 L123.5 100.3 123.8 100.1 123.5 99.9 M4.3 245.55 L6.05 247.75 6.3 247.4 4.3 245.55 M30.55 282.7 L30.5 282.85 Q30.25 283.25 29.5 283.25 L28.5 282.55 25.1 282.25 Q23.75 280.65 21.85 277.85 L12.1 263.75 Q-3.0 243.25 -14.25 243.25 L-15.35 243.05 -15.9 241.25 Q-16.2 241.9 -17.0 242.25 -18.4 240.75 -19.8 236.45 L-20.25 234.95 Q-21.25 231.55 -21.25 229.15 -21.25 227.9 -20.5 227.4 L-20.45 227.4 Q-19.0 224.5 -10.5 229.8 0.3 236.55 14.25 251.8 17.2 256.95 24.45 267.0 30.35 275.95 30.75 282.25 L30.65 282.5 30.1 281.75 29.8 282.65 30.55 282.7 M-18.6 230.7 L-18.85 230.55 -18.65 231.25 -18.6 230.7" fill="#74755f" fill-rule="evenodd" stroke="none"/>
      <path d="M48.5 275.35 Q42.3 284.75 41.0 284.75 L39.7 284.65 39.3 284.5 39.25 282.75 39.4 282.45 39.85 282.5 50.0 263.75 Q58.8 247.25 64.4 239.3 48.5 239.55 40.3 241.95 34.6 243.65 31.0 247.25 L24.35 252.65 20.6 255.55 19.0 253.25 18.35 252.35 Q18.95 251.2 24.4 247.9 30.35 244.25 33.5 243.05 37.05 241.75 42.9 238.95 49.6 236.75 63.5 236.0 63.5 235.85 64.05 235.8 L66.4 235.75 69.15 232.25 70.5 232.25 71.5 232.5 71.65 232.9 71.75 234.0 Q71.75 236.95 67.25 242.2 62.75 247.45 62.75 249.85 62.75 250.9 58.35 257.7 53.1 265.8 52.0 268.05 L48.5 275.35 M69.1 194.9 Q70.5 193.1 71.6 192.25 L75.0 192.25 Q75.95 192.65 76.25 193.25 70.9 196.6 66.8 202.65 64.9 205.4 60.75 213.5 60.0 214.95 56.6 225.35 L55.15 229.45 53.65 231.85 53.65 231.8 50.8 231.85 Q51.2 226.65 59.25 212.0 67.2 197.6 70.3 194.8 L70.15 194.8 69.05 194.9 69.1 194.9 M64.25 192.25 L62.0 192.25 62.0 192.5 Q56.9 192.25 48.75 194.55 L48.75 194.4 Q40.8 178.4 37.55 173.8 L36.8 172.75 41.1 171.85 Q45.7 170.8 47.55 170.0 L66.25 170.0 Q70.55 171.4 72.4 171.8 L73.95 172.15 76.0 172.75 68.9 182.1 Q64.25 188.8 64.25 192.1 L64.25 192.25 M62.45 167.25 L47.5 167.25 47.5 167.5 46.65 167.65 38.15 169.25 Q35.6 169.9 35.3 171.05 L32.05 167.85 34.2 163.05 Q37.8 155.5 41.95 149.05 47.8 139.95 51.0 138.6 L51.15 138.8 51.3 139.05 Q56.45 146.8 57.25 149.5 L57.35 149.85 57.95 151.8 60.1 160.15 Q61.2 164.1 62.45 167.25 M49.6 128.6 L50.2 128.05 50.75 129.1 50.75 129.3 Q50.35 129.15 49.6 128.6 M94.85 127.35 L94.75 127.45 89.7 125.95 81.5 124.25 75.1 124.25 74.75 123.55 Q73.55 124.25 72.35 124.25 L71.95 124.25 69.8 124.0 69.75 121.35 Q69.75 117.2 75.3 112.6 80.8 108.05 88.15 107.2 L90.45 111.45 91.5 113.75 Q92.4 116.3 93.9 121.85 L95.55 126.6 94.85 127.35 M125.75 98.3 L125.75 98.75 125.65 98.85 125.05 99.25 125.75 98.3 M105.2 115.6 Q104.0 110.75 101.35 105.25 106.1 102.85 110.95 99.6 L120.4 93.05 119.85 93.45 Q120.05 96.15 120.8 101.5 L120.9 102.15 Q111.8 108.8 105.2 115.6 M134.4 93.25 L134.45 93.3 133.95 93.6 134.25 92.75 134.4 93.25 M56.85 128.25 L57.2 128.95 56.5 128.25 56.85 128.25 M49.6 136.25 L50.8 138.25 Q49.5 138.15 49.5 136.55 L49.6 136.25 M71.9 155.05 L71.6 155.5 Q70.6 149.4 68.3 142.7 L67.7 140.95 Q66.4 140.3 65.75 138.25 L65.25 135.1 Q65.25 133.05 65.65 132.45 66.95 130.6 72.0 130.5 L76.65 130.25 76.95 129.85 86.5 130.75 91.8 130.75 81.7 142.45 Q75.6 149.75 71.9 155.05 M14.6 160.75 L14.3 159.8 14.05 159.05 14.0 158.95 Q14.45 158.8 15.7 159.4 17.65 160.65 19.6 162.05 25.9 166.7 31.55 172.85 L32.4 173.95 34.8 176.65 35.2 177.1 Q40.75 184.05 45.15 192.15 L45.45 192.7 45.9 193.5 46.1 193.85 46.3 194.3 46.75 195.15 43.45 196.2 43.2 196.3 39.6 190.3 Q34.2 180.6 32.75 179.0 L21.1 167.5 14.6 160.75 M38.9 233.45 Q36.5 231.0 34.15 226.05 30.25 215.85 29.55 214.75 27.4 211.25 18.7 203.75 12.7 198.6 10.2 195.6 20.05 199.8 26.8 205.5 L26.8 206.0 27.05 206.15 27.55 206.25 31.1 210.2 Q33.3 212.85 37.85 219.65 L40.05 224.3 43.6 232.75 38.9 233.45 M70.9 168.3 L71.0 168.3 71.45 168.1 71.3 168.4 70.9 168.3 M123.5 99.9 L123.8 100.1 123.5 100.3 123.5 99.9" fill="#898869" fill-rule="evenodd" stroke="none"/>
      <path d="M48.25 35.85 Q54.2 26.0 57.8 20.5 64.3 10.65 70.5 4.55 81.0 -5.85 95.8 -9.7 L109.3 -12.65 Q118.15 -14.5 124.5 -16.6 L144.05 -16.5 Q152.2 -15.4 159.2 -12.8 L172.75 -7.75 Q178.2 -6.0 189.15 -1.05 L198.1 2.85 198.0 3.25 Q198.0 5.0 209.55 0.1 L209.8 0.0 212.5 7.55 Q213.95 11.55 214.9 13.6 L214.55 13.75 210.55 13.95 Q211.1 14.55 210.05 15.0 L207.0 15.25 Q206.4 15.65 205.9 16.15 205.25 16.85 205.25 17.35 205.25 18.9 215.5 21.1 L221.6 22.3 221.1 22.55 Q219.45 23.55 216.05 28.25 L211.75 33.45 210.75 34.75 211.35 34.15 209.5 36.2 Q205.05 31.55 203.0 28.25 L202.25 28.95 Q200.9 26.15 199.95 25.85 198.75 25.45 198.75 29.5 198.75 46.45 206.05 67.55 L206.4 68.6 Q203.7 66.5 193.9 64.1 L189.2 63.05 188.1 51.75 193.5 52.25 197.0 52.25 197.8 51.95 Q198.25 51.65 198.25 50.85 198.25 50.1 197.85 49.95 L197.0 49.75 187.8 48.45 187.6 46.4 187.65 46.9 188.7 38.0 Q190.25 25.5 190.25 22.85 L190.15 22.05 190.0 22.0 Q187.9 22.7 186.3 25.6 L183.5 31.05 180.3 35.55 171.65 39.05 Q162.6 42.95 157.0 46.55 148.6 51.95 137.35 55.05 133.1 44.7 129.9 40.75 L135.55 36.3 Q146.4 29.35 154.1 25.8 L155.05 29.3 Q157.6 38.5 159.0 41.25 L160.05 40.8 160.25 39.1 Q160.25 37.4 159.1 32.05 L157.55 25.8 157.3 24.4 Q161.0 22.85 163.8 22.3 L184.5 22.25 Q185.75 21.85 185.75 20.35 185.75 17.6 181.75 12.75 176.35 6.25 168.5 6.25 L167.0 5.95 167.35 6.05 165.0 -1.3 Q161.75 -10.15 161.75 -4.9 161.75 -3.75 163.5 3.5 L163.65 4.15 160.5 2.0 Q159.2 1.25 153.2 -0.05 148.75 -12.45 148.75 -7.8 149.4 -4.35 150.35 -0.65 L150.65 -0.55 142.5 -2.25 140.25 -2.25 139.0 -6.4 Q135.75 -16.95 135.75 -9.0 135.75 -6.8 137.15 -2.25 L126.0 -2.25 126.0 -2.0 123.8 -1.6 124.4 -1.7 124.25 -2.3 Q123.0 -7.4 121.5 -10.75 120.25 -9.75 120.25 -8.6 120.25 -6.9 121.9 -1.25 113.4 0.35 105.9 2.3 L105.25 -0.1 105.6 -5.4 Q105.5 -8.45 102.25 -7.85 L102.25 -3.35 103.35 3.0 Q93.65 5.65 85.65 8.95 L85.75 8.1 Q85.75 6.0 83.5 5.05 L81.75 4.95 Q80.85 4.4 79.3 10.3 L78.9 12.0 Q75.6 13.6 72.7 15.3 L70.6 16.6 71.25 9.25 71.1 7.15 Q70.6 5.65 68.75 6.55 L68.0 14.1 67.55 18.7 Q65.55 20.1 63.65 21.7 64.25 18.7 64.25 17.1 L64.0 15.9 63.0 15.25 Q61.6 16.7 60.3 22.8 L59.85 25.0 Q54.45 30.05 49.55 36.4 L49.25 36.75 49.65 37.15 49.5 37.25 48.6 36.8 Q48.3 36.5 48.25 35.85 M213.85 2.1 L213.75 1.95 212.75 0.15 213.75 0.25 213.85 0.25 213.75 1.75 213.85 2.1 M215.35 0.15 Q216.25 -0.05 216.65 -0.45 L217.85 -1.85 Q219.2 -2.85 223.3 -3.25 L223.25 -2.25 Q223.25 0.35 224.55 8.5 L225.4 13.2 219.8 13.25 220.75 13.2 217.05 3.5 215.35 0.15 M227.0 -1.3 L226.2 -3.45 Q229.95 -3.65 235.25 -3.5 L239.95 -3.5 Q238.25 2.75 238.25 7.85 238.25 9.95 238.55 12.15 238.8 14.2 239.25 15.4 L239.0 15.25 Q236.85 13.6 231.1 13.3 L230.25 13.25 230.25 8.55 229.15 3.35 Q228.35 -0.1 227.5 -1.75 L227.0 -1.3 M242.25 -0.7 L242.15 -3.55 249.7 -2.7 257.9 -1.5 Q256.7 0.95 256.0 5.75 255.55 8.55 253.35 15.25 L251.9 19.75 251.5 19.55 Q249.65 18.65 245.1 17.7 L241.85 16.75 242.4 16.95 243.2 13.8 Q244.75 6.85 244.75 2.85 244.75 0.95 243.25 -0.3 242.6 -0.8 242.25 -0.7 M262.3 4.85 L262.7 4.55 264.8 -0.45 265.5 0.25 Q268.05 2.7 271.85 3.15 L271.3 5.1 Q270.6 8.3 270.55 11.75 L267.95 19.2 Q266.3 23.7 265.9 25.35 L266.6 25.65 Q264.0 24.55 262.05 23.5 260.65 22.75 256.8 21.6 L257.15 21.7 Q263.75 7.65 263.75 5.5 L263.5 4.0 262.3 4.85 M271.5 26.0 Q274.15 23.25 276.75 16.25 L279.6 7.8 282.45 10.25 289.55 15.0 Q287.3 18.2 285.3 23.45 283.5 28.35 282.45 33.1 L280.0 31.25 Q277.85 29.65 272.45 27.8 L270.8 27.25 271.5 26.0 M293.2 20.95 L294.15 18.95 Q295.65 21.3 300.75 26.85 307.65 34.35 309.55 37.05 L311.1 43.3 Q310.35 44.05 309.65 45.3 L307.25 50.05 303.95 55.15 303.8 55.4 302.0 52.25 Q300.6 49.95 298.7 47.6 300.25 40.45 300.25 37.75 L300.05 36.85 300.75 35.85 300.5 35.3 Q298.45 34.75 293.65 37.9 L291.0 39.9 285.65 35.55 286.6 33.85 Q293.25 22.2 293.25 21.5 L293.2 20.95 M305.6 58.8 L305.75 58.6 305.95 58.25 305.6 58.85 305.6 58.8 M311.0 49.75 L312.05 47.7 312.15 48.3 312.15 48.35 312.0 48.25 311.0 49.75 M312.8 51.7 Q314.75 62.4 314.75 69.5 314.75 72.8 313.75 79.8 L313.75 80.7 Q311.35 70.95 306.95 61.6 311.55 54.6 312.8 51.7 M316.9 47.35 L315.55 44.3 316.2 43.9 316.9 47.35 M312.15 32.4 L311.45 31.15 305.75 21.1 Q308.35 24.6 310.25 28.3 L312.15 32.4 M91.25 -5.1 L90.3 -5.0 89.9 7.3 92.25 6.45 92.4 5.05 93.25 -3.5 93.0 -5.0 91.25 -5.1 M211.75 -0.85 L211.75 -0.8 211.6 -0.75 211.75 -0.85 M295.0 41.7 L294.25 42.85 293.95 42.6 295.0 41.7 M272.8 141.1 Q279.75 133.1 279.75 132.5 L279.65 131.4 279.5 131.0 279.0 131.2 Q279.75 130.35 279.75 129.85 L279.65 129.05 279.5 129.0 Q277.95 128.2 273.15 130.6 L271.5 131.5 271.6 132.05 270.8 127.65 270.95 128.45 278.75 121.9 289.3 112.25 295.15 107.0 Q294.45 115.6 290.0 133.45 L287.8 141.95 Q284.2 143.7 278.95 148.35 276.0 150.95 274.3 152.9 L274.15 151.65 272.8 141.1 M273.6 135.45 L272.25 136.9 272.1 135.9 272.15 136.25 273.6 135.45 M255.85 90.85 L259.25 86.85 Q265.75 79.3 265.75 78.35 L265.65 77.55 265.5 77.5 264.1 78.5 265.25 77.35 265.0 76.8 Q262.1 76.3 254.2 82.0 L252.0 83.65 250.55 81.05 244.95 71.1 Q247.15 68.3 250.55 65.1 254.8 61.1 258.75 58.1 L258.75 58.05 Q266.15 53.0 268.1 51.3 L267.75 50.95 270.2 53.35 Q280.05 63.15 286.0 73.1 L286.2 73.4 Q284.6 74.3 276.8 81.8 267.75 90.55 267.75 92.1 267.75 92.95 268.1 93.3 L268.15 93.35 261.05 100.8 260.0 98.75 255.85 90.85 M207.7 101.6 L205.75 100.55 205.75 103.25 Q211.8 109.45 215.0 114.6 L214.55 113.95 Q212.5 117.8 210.45 132.3 208.45 146.7 208.3 155.4 L206.75 154.75 Q204.8 154.05 203.3 154.25 201.75 154.45 201.75 155.6 L202.55 156.25 Q201.25 156.05 201.25 159.1 L205.3 167.25 205.75 168.15 Q200.7 172.0 194.15 184.45 189.65 193.0 187.9 198.6 L187.85 199.65 188.8 184.5 189.45 174.15 Q191.15 176.45 194.0 179.25 L194.9 179.05 195.05 178.8 195.25 177.65 Q194.5 175.5 191.3 171.75 L189.6 169.85 189.75 162.75 189.7 156.85 198.0 167.25 Q198.75 167.25 199.0 166.9 L199.25 166.55 Q195.25 158.7 193.25 155.9 191.5 153.5 189.55 151.75 L189.3 142.05 189.15 136.5 192.5 137.75 Q194.45 138.4 197.35 140.9 L200.0 143.25 200.9 143.1 201.0 142.75 201.25 141.25 Q201.25 137.8 190.9 133.35 L189.05 132.6 188.75 125.05 188.75 117.65 193.55 119.5 Q197.35 121.0 202.55 124.55 L207.0 127.75 207.9 127.55 208.05 127.3 208.25 126.15 Q206.75 122.9 194.2 116.95 L188.75 114.3 188.75 99.95 192.3 101.85 204.0 108.25 Q204.75 108.25 205.1 107.8 L205.75 106.75 188.75 96.0 188.75 89.05 Q190.6 90.35 191.1 89.4 L191.25 87.35 190.9 81.65 194.0 82.55 Q198.7 83.55 203.55 85.25 L207.5 86.75 208.4 86.55 208.55 86.3 208.75 85.85 208.75 85.0 Q208.75 82.45 194.75 79.75 L190.7 79.1 189.45 65.7 191.3 65.8 Q193.05 66.05 199.2 68.45 205.15 70.75 205.75 70.75 206.6 70.75 206.9 70.4 L206.95 70.35 Q208.65 76.4 210.3 86.9 211.45 94.4 213.0 99.8 211.1 98.75 209.25 98.75 L207.0 98.8 Q206.25 99.0 206.25 99.85 L206.3 100.55 207.7 101.6 M217.3 119.15 L217.6 119.95 217.5 120.0 217.25 120.3 217.3 119.15 M209.0 163.5 L208.9 163.75 207.75 161.95 208.15 162.5 209.0 163.5 M124.8 44.9 Q125.0 47.4 126.1 51.6 L127.3 57.2 119.0 58.25 117.8 59.55 Q117.7 59.8 117.75 60.0 L113.75 60.0 113.75 59.55 119.65 49.1 120.1 48.35 124.5 45.15 124.8 44.9 M82.7 10.2 L82.65 9.6 82.9 10.1 82.7 10.2 M246.75 44.75 L247.2 44.25 252.6 38.45 250.65 37.05 Q247.6 38.9 242.75 44.1 236.25 51.05 236.25 52.1 L236.6 52.85 236.4 53.1 233.0 57.65 225.0 51.75 225.25 51.9 229.4 45.1 233.2 38.25 235.95 35.35 Q238.9 31.95 240.2 29.6 255.5 40.05 265.1 48.55 262.15 50.55 256.95 55.0 L248.75 62.35 248.85 63.25 249.2 63.5 247.1 65.45 243.65 68.95 240.75 64.25 235.35 59.5 241.4 52.7 Q246.75 46.45 246.75 45.35 L246.75 44.75 M227.5 42.65 L226.45 44.2 Q224.4 47.3 223.2 49.55 L221.7 48.05 216.1 42.7 212.45 39.2 214.15 37.0 214.5 36.55 218.3 33.65 Q223.75 29.25 227.25 25.4 L229.9 23.85 232.25 24.25 237.2 27.55 233.25 31.8 Q227.25 38.75 227.25 41.6 227.25 42.3 227.5 42.65 M282.2 81.15 L287.6 75.9 288.1 76.8 Q289.75 79.9 291.0 83.05 L291.1 83.3 Q285.6 85.3 278.05 94.65 270.75 103.65 270.75 105.6 L270.85 106.35 271.3 105.85 Q267.85 109.7 266.1 112.1 L262.35 103.4 Q265.45 99.7 269.9 95.1 L282.75 81.75 282.2 81.15 M286.75 92.25 Q290.95 87.55 291.95 85.55 L292.0 85.6 Q295.25 94.85 295.25 104.25 L295.25 104.3 Q290.5 105.9 282.5 112.75 273.25 120.65 273.25 121.85 273.25 122.3 273.4 122.6 L270.25 125.3 Q269.05 120.2 267.2 114.95 L278.8 102.3 Q286.75 93.45 286.75 92.35 L286.75 92.25 M286.6 146.45 L285.05 151.8 Q281.55 155.45 277.8 163.6 275.9 167.75 274.8 170.65 L274.75 167.5 274.5 155.9 274.55 156.65 280.4 151.75 286.6 146.45 M166.6 22.3 L166.7 22.95 Q167.8 30.65 170.0 35.75 L170.75 35.3 171.25 35.05 171.25 26.5 170.6 22.3 166.6 22.3 M137.8 34.9 L139.25 37.85 Q139.3 38.55 139.65 39.5 140.1 40.9 141.0 41.2 145.5 49.75 146.25 49.75 L147.05 49.2 147.75 48.3 Q144.5 41.6 139.95 33.55 L137.8 34.9 M145.85 30.1 L147.3 33.05 149.7 39.8 Q151.25 44.25 152.5 44.25 153.25 44.25 153.5 43.85 L153.75 43.25 Q150.95 34.9 148.15 28.8 L145.85 30.1" fill="#669826" fill-rule="evenodd" stroke="none"/>
      <path d="M49.55 36.4 Q54.45 30.05 59.85 25.0 L60.3 22.8 Q61.6 16.7 63.0 15.25 L64.0 15.9 64.25 17.1 Q64.25 18.7 63.65 21.7 65.55 20.1 67.55 18.7 L68.0 14.1 68.75 6.55 Q70.6 5.65 71.1 7.15 L71.25 9.25 70.6 16.6 72.7 15.3 Q75.6 13.6 78.9 12.0 L77.25 18.7 76.8 20.75 Q72.5 23.3 67.5 26.8 56.8 30.5 51.05 35.75 50.3 35.75 49.75 36.2 L49.55 36.4 M81.75 4.95 L83.5 5.05 Q85.75 6.0 85.75 8.1 L85.65 8.95 Q93.65 5.65 103.35 3.0 L102.25 -3.35 102.25 -7.85 Q105.5 -8.45 105.6 -5.4 L105.25 -0.1 105.9 2.3 Q113.4 0.35 121.9 -1.25 120.25 -6.9 120.25 -8.6 120.25 -9.75 121.5 -10.75 123.0 -7.4 124.25 -2.3 L124.4 -1.7 123.8 -1.6 126.0 -2.0 126.0 -2.25 137.15 -2.25 Q135.75 -6.8 135.75 -9.0 135.75 -16.95 139.0 -6.4 L140.25 -2.25 142.5 -2.25 150.65 -0.55 150.35 -0.65 Q149.4 -4.35 148.75 -7.8 148.75 -12.45 153.2 -0.05 159.2 1.25 160.5 2.0 L163.65 4.15 163.5 3.5 Q161.75 -3.75 161.75 -4.9 161.75 -10.15 165.0 -1.3 L167.35 6.05 167.0 5.95 168.5 6.25 Q176.35 6.25 181.75 12.75 185.75 17.6 185.75 20.35 185.75 21.85 184.5 22.25 L163.8 22.3 Q161.0 22.85 157.3 24.4 L157.55 25.8 159.1 32.05 Q160.25 37.4 160.25 39.1 L160.05 40.8 159.0 41.25 Q157.6 38.5 155.05 29.3 L154.1 25.8 Q146.4 29.35 135.55 36.3 L129.9 40.75 Q133.1 44.7 137.35 55.05 148.6 51.95 157.0 46.55 162.6 42.95 171.65 39.05 L180.3 35.55 183.5 31.05 186.3 25.6 Q187.9 22.7 190.0 22.0 L190.15 22.05 190.25 22.85 Q190.25 25.5 188.7 38.0 L187.65 46.9 187.6 46.4 187.8 48.45 197.0 49.75 197.85 49.95 Q198.25 50.1 198.25 50.85 198.25 51.65 197.8 51.95 L197.0 52.25 193.5 52.25 188.1 51.75 189.2 63.05 193.9 64.1 Q203.7 66.5 206.4 68.6 L207.25 69.5 206.95 70.35 206.9 70.4 Q206.6 70.75 205.75 70.75 205.15 70.75 199.2 68.45 193.05 66.05 191.3 65.8 L189.45 65.7 190.7 79.1 194.75 79.75 Q208.75 82.45 208.75 85.0 L208.75 85.85 208.55 86.3 208.4 86.55 207.5 86.75 203.55 85.25 Q198.7 83.55 194.0 82.55 L190.9 81.65 191.25 87.35 191.1 89.4 Q190.6 90.35 188.75 89.05 L188.75 96.0 205.75 106.75 205.1 107.8 Q204.75 108.25 204.0 108.25 L192.3 101.85 188.75 99.95 188.75 114.3 194.2 116.95 Q206.75 122.9 208.25 126.15 L208.05 127.3 207.9 127.55 207.0 127.75 202.55 124.55 Q197.35 121.0 193.55 119.5 L188.75 117.65 188.75 125.05 189.05 132.6 190.9 133.35 Q201.25 137.8 201.25 141.25 L201.0 142.75 200.9 143.1 200.0 143.25 197.35 140.9 Q194.45 138.4 192.5 137.75 L189.15 136.5 189.3 142.05 189.55 151.75 Q191.5 153.5 193.25 155.9 195.25 158.7 199.25 166.55 L199.0 166.9 Q198.75 167.25 198.0 167.25 L189.7 156.85 189.75 162.75 189.6 169.85 191.3 171.75 Q194.5 175.5 195.25 177.65 L195.05 178.8 194.9 179.05 194.0 179.25 Q191.15 176.45 189.45 174.15 L188.8 184.5 187.85 199.65 187.8 200.65 Q187.15 201.25 186.75 201.25 L185.25 197.8 182.1 190.65 Q181.7 187.0 181.5 181.0 L181.25 165.6 182.25 141.0 Q182.25 134.45 181.15 117.95 L179.75 98.05 179.75 74.05 Q180.2 67.0 178.8 56.85 177.25 45.55 177.25 40.85 L177.25 40.55 174.25 42.6 174.0 42.75 Q167.15 47.2 165.75 48.5 155.65 57.85 153.7 60.05 148.8 65.7 148.3 70.5 L137.75 71.9 Q137.6 66.3 133.75 55.95 L132.85 53.6 Q129.85 45.9 127.7 42.55 126.3 40.45 125.25 40.05 L125.0 42.05 124.75 43.85 124.8 44.9 124.5 45.15 120.1 48.35 119.65 49.1 113.75 59.55 113.75 60.0 117.75 60.0 Q117.7 59.8 117.8 59.55 L119.0 58.25 127.3 57.2 127.75 61.05 128.25 69.75 Q128.45 71.85 128.8 73.65 122.7 75.05 118.3 76.85 L118.05 76.95 116.85 77.45 111.05 80.4 110.1 80.9 Q106.95 82.05 103.65 83.45 L107.05 82.7 106.8 82.85 99.5 86.8 97.85 87.6 94.3 88.85 Q90.6 79.55 88.5 75.1 L86.5 71.25 89.25 67.3 96.0 57.55 Q98.4 52.65 106.75 45.75 115.25 38.7 126.7 32.25 154.5 16.6 176.55 16.3 175.75 13.0 163.7 7.85 150.85 2.3 141.1 2.3 110.5 2.3 82.75 17.35 L82.75 14.35 82.7 10.2 82.9 10.1 82.65 9.6 82.3 6.3 Q82.05 5.15 81.75 4.95 M202.25 28.95 L203.0 28.25 Q205.05 31.55 209.5 36.2 L211.35 34.15 215.1 30.9 215.95 30.15 Q223.25 24.15 227.0 24.8 L227.25 25.35 227.25 25.4 Q223.75 29.25 218.3 33.65 L214.5 36.55 211.45 38.2 212.45 39.2 216.1 42.7 221.7 48.05 223.2 49.55 Q224.4 47.3 226.45 44.2 L227.5 42.65 Q231.25 36.95 232.5 35.75 L233.35 35.95 Q233.75 36.1 233.75 36.85 L233.2 38.25 229.4 45.1 225.25 51.9 225.0 51.75 233.0 57.65 236.4 53.1 236.6 52.85 Q242.65 45.2 246.5 44.5 L246.65 44.55 246.75 44.75 246.75 45.35 Q246.75 46.45 241.4 52.7 L235.35 59.5 240.75 64.25 243.65 68.95 247.1 65.45 249.2 63.5 Q256.1 57.1 258.5 57.0 L258.65 57.2 258.75 58.05 258.75 58.1 Q254.8 61.1 250.55 65.1 247.15 68.3 244.95 71.1 L250.55 81.05 252.0 83.65 254.2 82.0 Q262.1 76.3 265.0 76.8 L265.25 77.35 264.1 78.5 Q260.75 81.0 254.0 87.35 L248.25 92.9 247.9 92.35 240.25 79.6 Q235.35 71.85 231.25 66.75 224.1 57.85 212.4 49.7 L207.6 46.35 205.8 45.05 204.45 43.85 204.15 42.7 Q203.45 41.1 202.75 37.05 L201.75 30.35 Q201.75 29.6 202.25 28.95 M214.55 13.75 L214.9 13.6 217.45 13.25 216.0 9.5 215.85 9.05 214.2 3.45 213.85 2.15 213.85 2.1 213.75 1.75 213.85 0.25 Q214.1 -1.8 215.35 0.15 L217.05 3.5 220.75 13.2 219.8 13.25 225.4 13.2 226.9 13.2 226.55 10.35 Q226.25 7.25 226.25 0.5 226.25 -0.5 227.0 -1.3 L227.5 -1.75 Q228.35 -0.1 229.15 3.35 L230.25 8.55 230.25 13.25 231.1 13.3 Q236.85 13.6 239.0 15.25 L239.25 15.4 239.25 15.45 239.55 15.65 239.7 15.7 240.0 14.4 Q241.75 7.3 241.75 0.75 L241.75 0.7 241.75 0.65 241.75 0.55 Q241.8 -0.55 242.25 -0.7 242.6 -0.8 243.25 -0.3 244.75 0.95 244.75 2.85 244.75 6.85 243.2 13.8 L242.4 16.95 241.85 16.75 245.1 17.7 Q249.65 18.65 251.5 19.55 L251.9 19.75 252.95 20.3 254.0 20.8 254.15 20.85 Q254.8 18.6 256.0 15.45 L256.1 15.2 256.2 14.9 256.5 14.25 256.6 14.0 256.7 13.75 Q259.3 7.35 262.3 4.85 L263.5 4.0 263.75 5.5 Q263.75 7.65 257.15 21.7 L256.8 21.6 Q260.65 22.75 262.05 23.5 264.0 24.55 266.6 25.65 L268.75 26.5 270.0 24.0 Q275.75 12.8 275.75 8.6 L275.8 7.75 275.8 7.8 Q278.0 6.65 278.55 7.65 278.75 7.95 278.75 9.5 278.75 12.9 271.5 26.0 L270.8 27.25 272.45 27.8 Q277.85 29.65 280.0 31.25 L282.45 33.1 283.2 33.65 Q288.7 24.5 292.0 19.75 292.6 20.05 292.85 20.25 L293.2 20.95 293.25 21.5 Q293.25 22.2 286.6 33.85 L285.65 35.55 291.0 39.9 293.65 37.9 Q298.45 34.75 300.5 35.3 L300.75 35.85 300.05 36.85 299.85 36.65 299.0 36.25 Q297.45 37.8 295.0 41.7 L293.95 42.6 294.25 42.85 291.8 46.95 290.65 48.95 Q287.4 45.9 283.5 43.55 273.95 37.8 263.3 37.8 L258.05 38.45 255.05 36.3 253.05 34.85 252.3 34.3 Q231.7 19.5 229.95 19.2 L229.75 19.3 229.0 19.75 228.7 19.15 224.45 18.65 Q221.4 17.95 217.5 17.75 L215.95 17.8 213.8 15.55 213.75 14.85 Q213.75 14.1 214.5 13.75 L214.55 13.75 M303.8 55.4 L304.05 55.85 305.6 58.8 305.6 58.85 305.95 58.25 306.0 58.15 307.05 56.35 310.55 50.5 310.95 49.85 311.0 49.75 312.0 48.25 312.15 48.35 313.0 48.9 313.25 50.1 312.8 51.7 Q311.55 54.6 306.95 61.6 311.35 70.95 313.75 80.7 L314.8 85.55 313.85 91.2 313.75 91.75 Q313.2 91.75 312.1 87.85 L309.75 78.7 Q307.05 68.5 304.0 63.45 L303.2 62.2 301.8 60.55 301.55 60.3 Q299.75 58.55 296.9 55.0 L298.25 49.4 298.7 47.6 Q300.6 49.95 302.0 52.25 L303.8 55.4 M91.25 -5.1 L93.0 -5.0 93.25 -3.5 92.4 5.05 92.25 6.45 89.9 7.3 90.3 -5.0 91.25 -5.1 M274.8 174.85 L273.9 175.8 273.7 176.0 273.4 176.3 272.9 176.65 272.65 176.8 272.4 176.95 271.6 177.25 271.25 177.25 Q269.3 177.25 267.8 172.75 L267.75 172.5 267.75 164.75 268.25 154.05 268.75 145.55 272.75 141.1 272.8 141.1 274.15 151.65 274.3 152.9 274.3 153.2 274.3 153.3 278.75 149.75 Q284.55 145.25 287.35 143.7 288.85 142.85 289.5 142.8 L289.75 143.35 286.6 146.45 280.4 151.75 274.55 156.65 274.5 155.9 274.75 167.5 274.8 170.65 274.8 174.85 M279.0 131.2 Q277.15 131.9 274.6 134.35 L273.6 135.45 272.15 136.25 272.1 135.9 272.25 136.9 270.55 138.55 268.5 140.05 Q267.55 129.9 262.95 119.5 260.05 112.85 250.85 97.25 252.1 95.35 255.85 90.85 L260.0 98.75 261.05 100.8 268.15 93.35 268.85 92.65 Q279.1 82.4 281.5 80.75 L282.15 81.1 282.2 81.15 282.75 81.75 269.9 95.1 Q265.45 99.7 262.35 103.4 L266.1 112.1 Q267.85 109.7 271.3 105.85 L273.3 103.55 Q282.65 93.1 286.5 91.5 L286.65 91.55 286.75 92.25 286.75 92.35 Q286.75 93.45 278.8 102.3 L267.2 114.95 Q269.05 120.2 270.25 125.3 L273.4 122.6 275.15 121.1 275.3 120.95 Q286.1 111.8 289.5 109.75 290.45 110.15 290.75 110.75 L289.3 112.25 278.75 121.9 270.95 128.45 270.8 127.65 271.6 132.05 271.5 131.5 273.15 130.6 Q277.95 128.2 279.5 129.0 L279.65 129.05 279.75 129.85 Q279.75 130.35 279.0 131.2 M218.0 104.45 L218.25 111.5 217.2 110.25 Q212.2 104.3 207.7 101.6 L206.3 100.55 206.25 99.85 Q206.25 99.0 207.0 98.8 L209.25 98.75 Q211.1 98.75 213.0 99.8 L214.6 100.9 215.7 101.85 216.85 103.1 217.05 103.3 218.0 104.45 M210.95 157.5 L210.75 158.15 209.4 162.25 209.35 162.5 209.3 162.65 209.2 162.9 209.0 163.5 208.15 162.5 207.75 161.95 206.65 160.4 206.45 160.1 206.2 159.75 206.1 159.65 206.0 159.5 205.6 158.95 203.5 156.75 Q202.95 156.35 202.55 156.25 L201.75 155.6 Q201.75 154.45 203.3 154.25 204.8 154.05 206.75 154.75 L208.3 155.4 Q210.05 156.3 210.95 157.5 M84.35 74.35 L84.75 84.5 Q85.2 89.55 85.85 92.5 L85.25 92.75 84.4 92.7 Q81.2 94.55 76.4 98.25 L76.35 98.3 69.45 103.8 68.35 104.7 66.5 106.3 65.85 106.8 Q66.85 100.05 79.9 80.85 L84.35 74.35 M166.6 22.3 L170.6 22.3 171.25 26.5 171.25 35.05 170.75 35.3 170.0 35.75 Q167.8 30.65 166.7 22.95 L166.6 22.3 M137.8 34.9 L139.95 33.55 Q144.5 41.6 147.75 48.3 L147.05 49.2 146.25 49.75 Q145.5 49.75 141.0 41.2 140.1 40.9 139.65 39.5 139.3 38.55 139.25 37.85 L137.8 34.9 M145.85 30.1 L148.15 28.8 Q150.95 34.9 153.75 43.25 L153.5 43.85 Q153.25 44.25 152.5 44.25 151.25 44.25 149.7 39.8 L147.3 33.05 145.85 30.1" fill="#5a8626" fill-rule="evenodd" stroke="none"/>
      <path d="M214.9 13.6 Q213.95 11.55 212.5 7.55 L209.8 0.0 209.55 0.1 Q198.0 5.0 198.0 3.25 L198.1 2.85 189.15 -1.05 Q178.2 -6.0 172.75 -7.75 L159.2 -12.8 Q152.2 -15.4 144.05 -16.5 L124.5 -16.6 Q118.15 -14.5 109.3 -12.65 L95.8 -9.7 Q81.0 -5.85 70.5 4.55 64.3 10.65 57.8 20.5 54.2 26.0 48.25 35.85 L48.25 35.6 Q48.25 33.1 56.9 20.0 64.75 8.15 67.55 5.05 76.15 -4.4 87.4 -9.25 100.75 -15.05 126.0 -18.5 L126.0 -18.75 147.5 -18.75 Q155.5 -17.15 176.9 -9.45 195.35 -2.75 200.1 0.95 L203.1 -0.8 Q209.4 -4.2 217.2 -6.6 240.0 -13.65 259.0 -7.25 271.15 -5.05 283.9 2.4 294.15 8.45 300.55 15.0 303.45 17.95 305.75 21.1 L311.45 31.15 312.15 32.4 315.3 40.8 316.2 43.9 315.55 44.3 316.9 47.35 317.5 53.25 317.55 54.25 317.55 54.5 317.75 66.1 315.75 79.5 314.8 85.55 313.75 80.7 313.75 79.8 Q314.75 72.8 314.75 69.5 314.75 62.4 312.8 51.7 L313.25 50.1 313.0 48.9 312.15 48.35 312.15 48.3 312.05 47.7 311.0 49.75 310.95 49.85 310.55 50.5 307.05 56.35 306.0 58.15 305.95 58.25 305.75 58.6 305.6 58.8 304.05 55.85 303.8 55.4 303.95 55.15 307.25 50.05 309.65 45.3 Q310.35 44.05 311.1 43.3 L309.55 37.05 Q307.65 34.35 300.75 26.85 295.65 21.3 294.15 18.95 L293.2 20.95 292.85 20.25 Q292.6 20.05 292.0 19.75 288.7 24.5 283.2 33.65 L282.45 33.1 Q283.5 28.35 285.3 23.45 287.3 18.2 289.55 15.0 L282.45 10.25 279.6 7.8 276.75 16.25 Q274.15 23.25 271.5 26.0 278.75 12.9 278.75 9.5 278.75 7.95 278.55 7.65 278.0 6.65 275.8 7.8 L275.8 7.75 275.75 8.6 Q275.75 12.8 270.0 24.0 L268.75 26.5 266.6 25.65 265.9 25.35 Q266.3 23.7 267.95 19.2 L270.55 11.75 Q270.6 8.3 271.3 5.1 L271.85 3.15 Q268.05 2.7 265.5 0.25 L264.8 -0.45 262.7 4.55 262.3 4.85 Q259.3 7.35 256.7 13.75 L256.6 14.0 256.5 14.25 256.2 14.9 256.1 15.2 256.0 15.45 Q254.8 18.6 254.15 20.85 L254.0 20.8 252.95 20.3 251.9 19.75 253.35 15.25 Q255.55 8.55 256.0 5.75 256.7 0.95 257.9 -1.5 L249.7 -2.7 242.15 -3.55 242.25 -0.7 Q241.8 -0.55 241.75 0.55 L241.75 0.65 241.75 0.7 241.75 0.75 Q241.75 7.3 240.0 14.4 L239.7 15.7 239.55 15.65 239.25 15.45 239.25 15.4 Q238.8 14.2 238.55 12.15 238.25 9.95 238.25 7.85 238.25 2.75 239.95 -3.5 L235.25 -3.5 Q229.95 -3.65 226.2 -3.45 L227.0 -1.3 Q226.25 -0.5 226.25 0.5 226.25 7.25 226.55 10.35 L226.9 13.2 225.4 13.2 224.55 8.5 Q223.25 0.35 223.25 -2.25 L223.3 -3.25 Q219.2 -2.85 217.85 -1.85 L216.65 -0.45 Q216.25 -0.05 215.35 0.15 214.1 -1.8 213.85 0.25 L213.75 0.25 212.75 0.15 213.75 1.95 213.85 2.1 213.85 2.15 214.2 3.45 215.85 9.05 216.0 9.5 217.45 13.25 214.9 13.6 M206.4 68.6 L206.05 67.55 Q198.75 46.45 198.75 29.5 198.75 25.45 199.95 25.85 200.9 26.15 202.25 28.95 201.75 29.6 201.75 30.35 L202.75 37.05 Q203.45 41.1 204.15 42.7 L204.45 43.85 208.0 57.3 208.1 57.65 210.3 65.95 212.05 72.3 212.5 73.75 213.35 73.6 Q213.65 75.7 215.5 82.25 217.75 90.3 217.75 92.55 L218.0 104.45 217.05 103.3 216.85 103.1 215.7 101.85 214.6 100.9 213.0 99.8 Q211.45 94.4 210.3 86.9 208.65 76.4 206.95 70.35 L207.25 69.5 206.4 68.6 M211.35 34.15 L210.75 34.75 211.75 33.45 216.05 28.25 Q219.45 23.55 221.1 22.55 L221.6 22.3 215.5 21.1 Q205.25 18.9 205.25 17.35 205.25 16.85 205.9 16.15 206.4 15.65 207.0 15.25 L210.05 15.0 Q211.1 14.55 210.55 13.95 L214.55 13.75 214.5 13.75 Q213.75 14.1 213.75 14.85 L213.8 15.55 215.95 17.8 217.5 17.75 Q221.4 17.95 224.45 18.65 L228.7 19.15 229.0 19.75 229.75 19.3 229.95 19.2 Q231.7 19.5 252.3 34.3 L253.05 34.85 255.05 36.3 258.05 38.45 274.5 50.4 273.95 50.2 277.85 53.8 Q283.35 59.15 287.4 64.85 298.75 80.85 298.75 99.85 298.75 125.05 292.8 139.05 L292.35 140.2 291.3 142.65 286.65 153.3 282.55 162.0 Q277.95 171.15 274.8 174.85 L274.8 170.65 Q275.9 167.75 277.8 163.6 281.55 155.45 285.05 151.8 L286.6 146.45 289.75 143.35 289.5 142.8 Q288.85 142.85 287.35 143.7 284.55 145.25 278.75 149.75 L274.3 153.3 274.3 153.2 274.3 152.9 Q276.0 150.95 278.95 148.35 284.2 143.7 287.8 141.95 L290.0 133.45 Q294.45 115.6 295.15 107.0 L289.3 112.25 290.75 110.75 Q290.45 110.15 289.5 109.75 286.1 111.8 275.3 120.95 L275.15 121.1 273.4 122.6 Q273.25 122.3 273.25 121.85 273.25 120.65 282.5 112.75 290.5 105.9 295.25 104.3 L295.25 104.25 Q295.25 94.85 292.0 85.6 L291.95 85.55 Q290.95 87.55 286.75 92.25 L286.65 91.55 286.5 91.5 Q282.65 93.1 273.3 103.55 L271.3 105.85 270.85 106.35 270.75 105.6 Q270.75 103.65 278.05 94.65 285.6 85.3 291.1 83.3 L291.0 83.05 Q289.75 79.9 288.1 76.8 L287.6 75.9 282.2 81.15 282.15 81.1 281.5 80.75 Q279.1 82.4 268.85 92.65 L268.15 93.35 268.1 93.3 Q267.75 92.95 267.75 92.1 267.75 90.55 276.8 81.8 284.6 74.3 286.2 73.4 L286.0 73.1 Q280.05 63.15 270.2 53.35 L267.75 50.95 268.1 51.3 Q266.15 53.0 258.75 58.05 L258.65 57.2 258.5 57.0 Q256.1 57.1 249.2 63.5 L248.85 63.25 248.75 62.35 256.95 55.0 Q262.15 50.55 265.1 48.55 255.5 40.05 240.2 29.6 238.9 31.95 235.95 35.35 L233.2 38.25 233.75 36.85 Q233.75 36.1 233.35 35.95 L232.5 35.75 Q231.25 36.95 227.5 42.65 227.25 42.3 227.25 41.6 227.25 38.75 233.25 31.8 L237.2 27.55 232.25 24.25 229.9 23.85 227.25 25.4 227.25 25.35 227.0 24.8 Q223.25 24.15 215.95 30.15 L215.1 30.9 211.35 34.15 M211.75 -0.85 L211.6 -0.75 211.75 -0.8 211.75 -0.85 M215.0 114.6 L217.25 119.0 217.3 119.15 217.25 120.3 217.5 120.0 217.6 119.95 217.95 121.1 Q216.75 138.45 211.05 157.05 L210.95 157.5 Q210.05 156.3 208.3 155.4 208.45 146.7 210.45 132.3 212.5 117.8 214.55 113.95 L215.0 114.6 M205.75 168.15 L206.55 169.85 Q204.35 174.85 201.05 179.55 L193.35 192.5 Q189.6 198.95 187.8 200.65 L187.85 199.65 187.9 198.6 Q189.65 193.0 194.15 184.45 200.7 172.0 205.75 168.15 M246.75 44.75 L246.65 44.55 246.5 44.5 Q242.65 45.2 236.6 52.85 L236.25 52.1 Q236.25 51.05 242.75 44.1 247.6 38.9 250.65 37.05 L252.6 38.45 247.2 44.25 246.75 44.75 M212.45 39.2 L211.45 38.2 214.5 36.55 214.15 37.0 212.45 39.2" fill="#7fa426" fill-rule="evenodd" stroke="none"/>
      <path d="M49.65 37.15 L49.25 36.75 49.55 36.4 49.75 36.2 Q50.3 35.75 51.05 35.75 L49.65 37.15 M290.65 48.95 L288.1 53.75 286.5 53.75 Q282.7 53.1 275.55 50.75 L275.25 50.65 275.1 50.6 274.6 50.4 274.5 50.4 258.05 38.45 263.3 37.8 Q273.95 37.8 283.5 43.55 287.4 45.9 290.65 48.95 M267.8 172.75 Q267.0 170.45 266.3 167.0 264.35 157.2 265.25 150.3 L265.35 148.85 268.75 145.55 268.25 154.05 267.75 164.75 267.75 172.5 267.8 172.75 M268.5 140.05 Q266.8 141.15 264.05 142.8 263.0 140.15 261.2 137.05 255.25 128.05 253.0 123.75 248.15 114.5 245.3 110.1 L244.3 108.6 244.45 108.35 Q249.0 100.1 250.5 97.75 L250.85 97.25 Q260.05 112.85 262.95 119.5 267.55 129.9 268.5 140.05 M239.6 101.6 L239.3 101.95 237.2 99.55 237.5 99.9 238.55 100.75 239.6 101.6 M232.95 94.9 L229.85 90.55 228.8 88.75 232.95 94.9 M213.25 72.75 L213.25 72.85 213.35 73.6 212.5 73.75 212.05 72.3 Q212.5 72.75 213.0 72.75 L213.25 72.75 M182.1 190.65 L179.25 184.4 175.75 176.95 175.75 173.55 Q174.9 167.1 172.65 160.6 L172.25 159.4 179.75 150.85 179.5 150.3 Q176.9 149.65 170.9 156.05 169.1 151.8 166.8 148.05 L166.25 146.45 166.55 147.2 Q178.75 136.65 178.75 136.35 L178.65 135.55 178.5 135.5 Q175.7 135.7 166.9 142.95 L165.45 144.15 Q163.6 139.1 161.55 134.55 L166.05 131.1 Q175.75 123.85 175.75 123.35 L175.65 122.55 175.5 122.5 Q172.6 122.7 162.55 129.9 161.25 130.8 160.15 131.65 L159.9 131.15 157.95 127.6 162.3 120.3 171.55 107.9 Q176.75 101.0 176.75 99.85 176.75 99.1 176.35 98.95 L175.5 98.75 174.45 99.5 177.25 96.35 177.0 95.8 176.7 95.4 175.75 95.25 Q175.65 95.25 166.25 101.5 L154.8 109.25 154.75 109.05 154.75 97.6 Q158.45 94.25 163.4 91.0 168.8 87.45 173.25 85.35 L173.15 84.55 173.0 84.5 Q169.1 84.2 157.6 92.75 L154.9 94.85 154.75 95.5 156.5 84.4 156.65 83.55 Q159.45 81.35 163.1 78.7 L171.75 72.35 171.65 71.55 171.5 71.5 Q167.85 71.8 157.85 79.2 L157.25 79.65 158.55 73.05 Q158.75 72.05 159.25 70.85 L160.3 70.25 Q167.65 66.1 170.75 63.85 L170.5 63.3 Q167.4 62.5 162.45 64.85 163.95 62.35 166.05 59.4 L172.25 50.35 172.15 49.55 172.0 49.5 Q168.5 50.85 159.4 60.85 153.2 67.6 151.45 70.15 L148.3 70.5 Q148.8 65.7 153.7 60.05 155.65 57.85 165.75 48.5 167.15 47.2 174.0 42.75 L174.25 42.6 177.25 40.55 177.25 40.85 Q177.25 45.55 178.8 56.85 180.2 67.0 179.75 74.05 L179.75 98.05 181.15 117.95 Q182.25 134.45 182.25 141.0 L181.25 165.6 181.5 181.0 Q181.7 187.0 182.1 190.65 M156.95 141.35 L156.0 139.0 154.15 134.05 154.35 133.7 156.95 141.35 M150.65 120.25 L149.85 121.15 149.35 119.05 149.5 119.65 Q150.25 120.25 150.5 120.25 L150.65 120.25 M148.95 95.8 Q149.25 89.9 150.1 83.6 L151.4 75.0 151.65 73.45 151.75 74.0 149.75 89.15 148.95 95.8 M84.45 70.15 L84.25 72.05 84.35 74.35 79.9 80.85 Q66.85 100.05 65.85 106.8 L66.5 106.3 65.2 107.35 54.75 116.5 54.75 102.05 56.3 93.3 Q61.8 91.05 64.5 91.25 L65.3 90.95 Q65.75 90.65 65.75 89.85 L65.65 89.05 65.5 89.0 Q61.85 88.85 56.95 90.2 58.35 83.55 59.8 78.95 L60.1 78.15 65.5 78.75 73.5 78.75 74.3 78.45 Q74.75 78.15 74.75 77.35 74.75 76.6 74.35 76.45 L73.5 76.25 61.2 75.05 Q63.6 68.6 67.05 62.9 71.45 64.25 77.5 64.25 78.95 64.25 79.35 63.85 L79.75 62.85 79.5 62.3 Q73.85 61.05 69.15 59.6 L72.05 55.55 Q76.85 49.4 81.1 45.1 L80.65 45.55 82.05 46.05 Q90.4 49.25 90.75 49.25 L91.75 49.1 92.0 48.75 Q92.0 48.6 92.15 48.7 L92.25 48.0 Q92.25 46.05 83.25 42.95 88.8 37.7 94.65 34.2 100.6 36.25 103.5 36.25 104.3 36.25 104.5 35.75 L104.75 35.0 Q102.35 33.65 98.1 32.3 L107.9 27.25 Q110.4 26.05 114.9 24.35 L116.75 25.05 Q121.15 26.75 122.5 26.75 123.25 26.75 123.5 26.35 L123.75 25.75 Q123.8 23.95 120.35 22.3 L119.8 22.5 121.75 21.75 Q127.65 19.55 133.6 18.0 L133.8 18.1 Q139.7 21.25 140.0 21.25 L141.0 21.0 141.05 20.75 141.25 19.6 Q140.7 18.4 137.8 17.0 L137.35 17.1 147.5 15.15 157.25 13.6 Q157.25 12.7 155.95 12.4 L143.25 11.55 Q135.9 10.35 128.05 11.95 L118.5 14.25 101.85 15.25 Q85.95 17.0 82.75 21.75 L83.6 22.5 82.55 22.7 82.75 17.35 Q110.5 2.3 141.1 2.3 150.85 2.3 163.7 7.85 175.75 13.0 176.55 16.3 154.5 16.6 126.7 32.25 115.25 38.7 106.75 45.75 98.4 52.65 96.0 57.55 L89.25 67.3 89.25 67.0 Q89.25 65.45 86.25 64.05 83.25 62.7 83.25 67.1 L83.25 69.75 Q83.5 70.45 84.3 70.85 L84.45 70.15 M73.55 46.5 L74.95 44.95 74.4 45.55 73.55 46.5 M247.9 92.35 L247.6 91.8 246.75 91.75 Q244.9 91.75 242.4 94.65 L240.3 97.5 Q237.4 94.2 229.15 83.0 221.95 73.25 216.8 68.05 215.7 66.2 208.55 48.65 L207.6 46.35 212.4 49.7 Q224.1 57.85 231.25 66.75 235.35 71.85 240.25 79.6 L247.9 92.35 M76.8 20.75 L76.05 24.25 Q72.3 25.2 69.05 26.25 L67.5 26.8 Q72.5 23.3 76.8 20.75" fill="#4f7526" fill-rule="evenodd" stroke="none"/>
      <path d="M248.25 92.9 L248.2 92.9 239.6 101.6 238.55 100.75 237.5 99.9 237.2 99.55 234.8 97.05 232.95 94.9 228.8 88.75 228.7 88.6 228.3 87.85 225.9 83.75 Q221.0 75.8 213.75 72.0 L213.3 71.75 213.25 72.75 213.0 72.75 Q212.5 72.75 212.05 72.3 L210.3 65.95 208.1 57.65 208.0 57.3 204.45 43.85 205.8 45.05 207.6 46.35 208.55 48.65 Q215.7 66.2 216.8 68.05 221.95 73.25 229.15 83.0 237.4 94.2 240.3 97.5 L242.4 94.65 Q244.9 91.75 246.75 91.75 L247.6 91.8 247.9 92.35 248.25 92.9 M175.75 176.95 Q169.85 164.6 166.3 159.3 161.2 151.7 156.95 141.35 L154.35 133.7 156.0 130.9 157.95 127.6 159.9 131.15 160.15 131.65 Q161.25 130.8 162.55 129.9 172.6 122.7 175.5 122.5 L175.65 122.55 175.75 123.35 Q175.75 123.85 166.05 131.1 L161.55 134.55 Q163.6 139.1 165.45 144.15 L166.9 142.95 Q175.7 135.7 178.5 135.5 L178.65 135.55 178.75 136.35 Q178.75 136.65 166.55 147.2 L166.25 146.45 166.8 148.05 Q169.1 151.8 170.9 156.05 176.9 149.65 179.5 150.3 L179.75 150.85 172.25 159.4 172.65 160.6 Q174.9 167.1 175.75 173.55 L175.75 176.95 M174.45 99.5 L174.4 99.55 Q169.65 102.95 160.5 110.9 153.95 116.6 150.65 120.25 L150.5 120.25 Q150.25 120.25 149.5 119.65 L149.35 119.05 148.8 114.3 148.75 113.9 148.75 102.85 148.95 95.8 149.75 89.15 151.75 74.0 151.65 73.45 151.7 73.15 152.2 70.3 152.2 70.1 151.45 70.15 Q153.2 67.6 159.4 60.85 168.5 50.85 172.0 49.5 L172.15 49.55 172.25 50.35 166.05 59.4 Q163.95 62.35 162.45 64.85 167.4 62.5 170.5 63.3 L170.75 63.85 Q167.65 66.1 160.3 70.25 L159.25 70.85 Q158.75 72.05 158.55 73.05 L157.25 79.65 157.85 79.2 Q167.85 71.8 171.5 71.5 L171.65 71.55 171.75 72.35 163.1 78.7 Q159.45 81.35 156.65 83.55 L156.5 84.4 154.75 95.5 154.9 94.85 157.6 92.75 Q169.1 84.2 173.0 84.5 L173.15 84.55 173.25 85.35 Q168.8 87.45 163.4 91.0 158.45 94.25 154.75 97.6 L154.75 109.05 154.8 109.25 166.25 101.5 Q175.65 95.25 175.75 95.25 L176.7 95.4 177.0 95.8 177.25 96.35 174.45 99.5 M86.5 71.25 Q85.25 69.25 84.7 69.75 L84.45 70.15 84.3 70.85 Q83.5 70.45 83.25 69.75 L83.25 67.1 Q83.25 62.7 86.25 64.05 89.25 65.45 89.25 67.0 L89.25 67.3 86.5 71.25 M54.75 116.5 L52.25 118.75 51.05 118.65 50.8 118.5 50.75 109.6 Q50.75 82.75 61.3 63.4 L61.6 62.9 62.95 60.55 65.25 56.9 66.1 55.65 66.35 55.35 Q69.2 51.25 72.7 47.4 L73.55 46.5 74.4 45.55 74.95 44.95 75.2 44.7 77.55 42.4 78.7 41.25 80.25 39.85 108.5 21.05 108.45 21.05 109.0 20.8 109.5 20.55 111.0 19.8 98.3 20.0 96.25 20.3 83.95 22.4 83.6 22.5 82.75 21.75 Q85.95 17.0 101.85 15.25 L118.5 14.25 128.05 11.95 Q135.9 10.35 143.25 11.55 L155.95 12.4 Q157.25 12.7 157.25 13.6 L147.5 15.15 137.35 17.1 137.8 17.0 Q140.7 18.4 141.25 19.6 L141.05 20.75 141.0 21.0 140.0 21.25 Q139.7 21.25 133.8 18.1 L133.6 18.0 Q127.65 19.55 121.75 21.75 L119.8 22.5 120.35 22.3 Q123.8 23.95 123.75 25.75 L123.5 26.35 Q123.25 26.75 122.5 26.75 121.15 26.75 116.75 25.05 L114.9 24.35 Q110.4 26.05 107.9 27.25 L98.1 32.3 Q102.35 33.65 104.75 35.0 L104.5 35.75 Q104.3 36.25 103.5 36.25 100.6 36.25 94.65 34.2 88.8 37.7 83.25 42.95 92.25 46.05 92.25 48.0 L92.15 48.7 Q92.0 48.6 92.0 48.75 L91.75 49.1 90.75 49.25 Q90.4 49.25 82.05 46.05 L80.65 45.55 81.1 45.1 Q76.85 49.4 72.05 55.55 L69.15 59.6 Q73.85 61.05 79.5 62.3 L79.75 62.85 79.35 63.85 Q78.95 64.25 77.5 64.25 71.45 64.25 67.05 62.9 63.6 68.6 61.2 75.05 L73.5 76.25 74.35 76.45 Q74.75 76.6 74.75 77.35 74.75 78.15 74.3 78.45 L73.5 78.75 65.5 78.75 60.1 78.15 59.8 78.95 Q58.35 83.55 56.95 90.2 61.85 88.85 65.5 89.0 L65.65 89.05 65.75 89.85 Q65.75 90.65 65.3 90.95 L64.5 91.25 Q61.8 91.05 56.3 93.3 L54.75 102.05 54.75 116.5" fill="#476826" fill-rule="evenodd" stroke="none"/>
    </g>
  </defs>
</svg>
