<?xml version="1.0" encoding="UTF-8" standalone="no"?>
<svg xmlns:ffdec="https://www.free-decompiler.com/flash" xmlns:xlink="http://www.w3.org/1999/xlink" ffdec:objectType="frame" height="563.9px" width="1053.85px" xmlns="http://www.w3.org/2000/svg">
  <g transform="matrix(1.0, 0.0, 0.0, 1.0, 207.75, 156.0)">
    <use ffdec:characterId="893" height="81.3" transform="matrix(1.0, 0.0, 0.0, 1.0, 213.65, 124.8)" width="311.6" xlink:href="#shape0"/>
    <use ffdec:characterId="137" height="319.1" transform="matrix(-0.4003, 0.0, 0.0, 0.2455, 529.1043, 124.7697)" width="25.0" xlink:href="#shape1"/>
    <use ffdec:characterId="137" height="319.1" transform="matrix(0.0, 0.2899, 0.9754, 0.0, 213.5988, 203.3762)" width="25.0" xlink:href="#shape1"/>
    <use ffdec:characterId="137" height="319.1" transform="matrix(0.0, -0.3533, 0.9735, 0.0, 213.9016, 125.9667)" width="25.0" xlink:href="#shape1"/>
    <use ffdec:characterId="137" height="319.1" transform="matrix(-0.3388, 0.0, 0.0, 0.2566, 217.9845, 122.996)" width="25.0" xlink:href="#shape1"/>
    <use ffdec:characterId="138" height="55.4" transform="matrix(-0.3618, 0.0, 0.0, 0.3193, 534.0831, 118.0043)" width="54.3" xlink:href="#shape2"/>
    <use ffdec:characterId="138" height="55.4" transform="matrix(0.3618, 0.0, 0.0, 0.3193, 203.2169, 116.9543)" width="54.3" xlink:href="#shape2"/>
    <use ffdec:characterId="138" height="55.4" transform="matrix(-0.3618, 0.0, 0.0, -0.3104, 533.5831, 210.3156)" width="54.3" xlink:href="#shape2"/>
    <use ffdec:characterId="138" height="55.4" transform="matrix(0.3618, 0.0, 0.0, -0.3104, 204.0169, 210.5656)" width="54.3" xlink:href="#shape2"/>
    <use ffdec:characterId="894" height="97.5" transform="matrix(1.0, 0.0, 0.0, 1.0, 217.45, 114.0)" width="367.65" xlink:href="#shape3"/>
    <filter id="filter0">
      <feColorMatrix in="SourceGraphic" result="filterResult0" type="matrix" values="0 0 0 0 0.0,0 0 0 0 0.0,0 0 0 0 0.0,0 0 0 1 0"/>
      <feConvolveMatrix divisor="16.0" in="filterResult0" kernelMatrix="1 1 1 1 1 1 1 1 1 1 1 1 1 1 1 1" order="4 4" result="filterResult1"/>
      <feComposite in="SourceGraphic" in2="filterResult1" operator="over" result="filterResult2"/>
    </filter>
    <use ffdec:characterId="851" ffdec:characterName="Army_fla.CampaignArrow_134" filter="url(#filter0)" height="57.6" id="arrow1" transform="matrix(1.0, 0.0, 0.0, 1.0, -207.75, 350.3)" width="103.7" xlink:href="#sprite0"/>
    <filter id="filter1">
      <feColorMatrix in="SourceGraphic" result="filterResult3" type="matrix" values="0 0 0 0 0.0,0 0 0 0 0.0,0 0 0 0 0.0,0 0 0 1 0"/>
      <feConvolveMatrix divisor="16.0" in="filterResult3" kernelMatrix="1 1 1 1 1 1 1 1 1 1 1 1 1 1 1 1" order="4 4" result="filterResult4"/>
      <feComposite in="SourceGraphic" in2="filterResult4" operator="over" result="filterResult5"/>
    </filter>
    <use ffdec:characterId="851" ffdec:characterName="Army_fla.CampaignArrow_134" filter="url(#filter1)" height="57.6" id="arrow2" transform="matrix(-1.0, 0.0, 0.0, 1.0, 25.95, 350.3)" width="103.7" xlink:href="#sprite0"/>
    <filter id="filter2">
      <feColorMatrix in="SourceGraphic" result="filterResult6" type="matrix" values="0 0 0 0 0.0,0 0 0 0 0.0,0 0 0 0 0.0,0 0 0 1 0"/>
      <feConvolveMatrix divisor="9.0" in="filterResult6" kernelMatrix="1 1 1 1 1 1 1 1 1" order="3 3" result="filterResult7"/>
      <feComposite in="SourceGraphic" in2="filterResult7" operator="over" result="filterResult8"/>
      <feColorMatrix in="filterResult8" result="filterResult9" type="matrix" values="0 0 0 0 0.0,0 0 0 0 0.0,0 0 0 0 0.0,0 0 0 1 0"/>
      <feConvolveMatrix divisor="25.0" in="filterResult9" kernelMatrix="1 1 1 1 1 1 1 1 1 1 1 1 1 1 1 1 1 1 1 1 1 1 1 1 1" order="5 5" result="filterResult10"/>
      <feComposite in="filterResult8" in2="filterResult10" operator="over" result="filterResult11"/>
    </filter>
    <use ffdec:characterId="852" filter="url(#filter2)" height="39.6" id="txt_tutmsg" transform="matrix(1.0, 0.0, 0.0, 1.0, 44.0, 84.95)" width="616.95" xlink:href="#text0"/>
    <clipPath id="clipPath0" transform="matrix(1.0, 0.0, 0.0, 1.0, 0.0, 0.0)">
      <path d="M535.65 124.15 Q551.5 124.15 562.75 135.4 573.95 146.6 573.95 162.5 573.95 177.05 564.5 187.75 L562.75 189.6 Q551.5 200.8 535.65 200.8 525.85 200.8 517.85 196.55 L516.85 196.0 512.5 193.1 508.55 189.6 Q497.75 178.8 497.3 163.75 L497.3 163.55 497.3 162.5 497.4 159.55 497.55 157.6 498.15 154.05 Q500.15 144.85 506.55 137.55 L508.55 135.4 510.4 133.65 511.0 133.15 511.85 132.45 Q522.05 124.15 535.65 124.15" fill="#00ff00" fill-rule="evenodd" stroke="none"/>
    </clipPath>
    <g clip-path="url(#clipPath0)">
      <use ffdec:characterId="890" height="243.6" id="mc_face" transform="matrix(-1.0, 0.0, 0.0, 1.0, 628.2, 58.95)" width="194.4" xlink:href="#sprite1"/>
    </g>
    <use ffdec:characterId="896" height="92.4" transform="matrix(1.0, 0.0, 0.0, 1.0, 509.5, 112.0)" width="77.6" xlink:href="#shape7"/>
    <use ffdec:characterId="892" height="19.55" id="mc_next" transform="matrix(1.0, 0.0, 0.0, 1.0, 296.65, 187.9)" width="104.0" xlink:href="#sprite2"/>
    <filter id="filter15">
      <feColorMatrix in="SourceGraphic" result="filterResult15" type="matrix" values="0 0 0 0 0.5568628,0 0 0 0 0.42352942,0 0 0 0 0.14117648,0 0 0 1 0"/>
      <feConvolveMatrix divisor="25.0" in="filterResult15" kernelMatrix="1 1 1 1 1 1 1 1 1 1 1 1 1 1 1 1 1 1 1 1 1 1 1 1 1" order="5 5" result="filterResult16"/>
      <feComposite in="SourceGraphic" in2="filterResult16" operator="over" result="filterResult17"/>
    </filter>
    <use ffdec:characterId="897" filter="url(#filter15)" height="22.15" id="txt_name" transform="matrix(1.0, 0.0, 0.0, 1.0, 219.95, 126.05)" width="262.0" xlink:href="#text2"/>
    <use ffdec:characterId="898" height="42.3" id="txt_msg" transform="matrix(1.0, 0.0, 0.0, 1.0, 224.45, 148.05)" width="256.5" xlink:href="#text3"/>
    <use ffdec:characterId="16" height="401.0" transform="matrix(1.0, 0.0, 0.0, 1.0, -0.5, -0.5)" width="701.0" xlink:href="#shape8"/>
    <use ffdec:characterId="868" height="559.45" id="oldtimey" transform="matrix(1.0, 0.0, 0.0, 1.0, -4.0, -156.0)" width="707.95" xlink:href="#sprite3"/>
  </g>
  <defs>
    <g id="shape0" transform="matrix(1.0, 0.0, 0.0, 1.0, -213.65, -124.8)">
      <path d="M524.6 204.85 L524.6 206.1 213.65 206.1 213.65 146.05 216.75 146.05 524.6 146.05 524.6 204.85" fill="#081628" fill-rule="evenodd" stroke="none"/>
      <path d="M216.75 146.05 L216.75 124.8 525.25 124.8 525.25 204.85 524.6 204.85 524.6 146.05 216.75 146.05" fill="#000810" fill-rule="evenodd" stroke="none"/>
    </g>
    <g id="shape1" transform="matrix(1.0, 0.0, 0.0, 1.0, 12.5, 158.8)">
      <path d="M6.5 127.4 L6.5 -124.4 6.75 -128.7 6.65 -130.1 Q6.5 -132.75 6.5 -140.3 6.5 -148.85 6.75 -151.35 7.0 -154.2 7.6 -156.5 L7.7 -157.9 7.85 -158.8 12.0 -158.8 12.4 -156.0 12.5 -149.9 12.5 -147.1 12.5 -126.75 12.1 -126.45 12.15 -123.45 12.2 -121.7 Q12.5 -96.85 12.5 0.85 L12.25 141.85 11.65 155.4 11.35 160.3 6.55 160.3 6.5 158.05 Q6.5 151.95 6.75 150.25 L7.0 148.85 6.5 141.85 6.5 130.4 6.5 127.4 M-7.65 160.3 L-12.45 160.3 -12.5 158.05 -12.25 150.25 -12.0 148.85 -12.5 141.85 -12.5 -124.4 -12.25 -128.7 -12.35 -130.1 -12.5 -140.3 -12.25 -151.35 Q-12.0 -154.2 -11.4 -156.5 L-11.3 -157.9 -11.1 -158.8 -6.95 -158.8 -6.6 -156.0 -6.5 -149.9 -6.5 -147.1 -6.5 -126.75 -6.9 -126.45 -6.85 -123.45 Q-6.5 -101.65 -6.5 -9.6 L-6.5 0.85 -6.5 12.9 Q-6.5 84.0 -6.75 141.85 L-7.35 155.4 -7.65 160.3" fill="#34270e" fill-rule="evenodd" stroke="none"/>
      <path d="M7.85 -158.8 L7.7 -157.9 7.6 -156.5 Q7.0 -154.2 6.75 -151.35 6.5 -148.85 6.5 -140.3 6.5 -132.75 6.65 -130.1 L6.75 -128.7 6.5 -124.4 6.5 127.4 6.45 129.7 6.5 130.4 6.5 141.85 7.0 148.85 6.75 150.25 Q6.5 151.95 6.5 158.05 L6.55 160.3 3.2 160.3 3.2 160.2 3.05 157.45 3.0 154.0 3.05 148.3 2.95 142.55 3.2 128.45 3.45 119.2 3.45 113.45 3.4 111.75 3.45 108.45 3.45 108.05 3.7 106.15 3.95 104.15 3.45 98.5 3.2 95.15 3.45 90.0 3.65 87.45 3.45 86.2 Q3.45 79.2 2.95 75.05 L3.2 61.0 3.45 50.55 2.95 22.05 2.65 12.45 2.85 8.4 2.95 -4.55 2.75 -18.75 2.75 -19.2 2.85 -19.35 2.9 -25.25 2.95 -26.6 3.2 -28.15 3.5 -30.3 3.5 -30.35 2.95 -40.95 2.95 -59.1 Q2.95 -65.65 3.45 -79.0 L3.3 -85.0 3.65 -85.6 Q3.4 -99.6 3.45 -120.7 L3.45 -153.8 3.05 -158.8 7.85 -158.8" fill="#cd9e3f" fill-rule="evenodd" stroke="none"/>
      <path d="M3.05 -158.8 L3.45 -153.8 3.45 -120.7 Q3.4 -99.6 3.65 -85.6 L3.3 -85.0 3.45 -79.0 Q2.95 -65.65 2.95 -59.1 L2.95 -40.95 3.5 -30.35 3.5 -30.3 3.2 -28.15 2.95 -26.6 2.9 -25.25 2.85 -19.35 2.75 -19.2 2.75 -18.75 2.95 -4.55 2.85 8.4 2.65 12.45 2.95 22.05 3.45 50.55 3.2 61.0 2.95 75.05 Q3.45 79.2 3.45 86.2 L3.65 87.45 3.45 90.0 3.2 95.15 3.45 98.5 3.95 104.15 3.7 106.15 3.45 108.05 3.45 108.45 3.4 111.75 3.45 113.45 3.45 119.2 3.2 128.45 2.95 142.55 3.05 148.3 3.0 154.0 3.05 157.45 3.2 160.2 3.2 160.3 -4.55 160.3 -4.55 157.85 Q-3.55 139.4 -3.55 130.05 L-3.65 116.25 -3.55 102.55 -3.4 88.8 -3.3 83.3 -3.3 83.2 Q-4.05 72.55 -4.05 67.5 L-3.05 31.5 -2.8 23.35 -3.05 12.3 -3.05 0.05 Q-3.55 -1.75 -3.45 -6.3 L-3.6 -7.2 -3.55 -9.6 -3.55 -30.4 -3.05 -72.8 -4.05 -97.4 -3.8 -112.25 -3.65 -121.7 -3.55 -135.7 -3.95 -152.3 -4.05 -154.95 -4.1 -158.8 3.05 -158.8 M6.5 130.4 L6.45 129.7 6.5 127.4 6.5 130.4" fill="#8e6c24" fill-rule="evenodd" stroke="none"/>
      <path d="M-6.95 -158.8 L-4.1 -158.8 -4.05 -154.95 -3.95 -152.3 -3.55 -135.7 -3.65 -121.7 -3.8 -112.25 -4.05 -97.4 -3.05 -72.8 -3.55 -30.4 -3.55 -9.6 -3.6 -7.2 -3.45 -6.3 Q-3.55 -1.75 -3.05 0.05 L-3.05 12.3 -2.8 23.35 -3.05 31.5 -4.05 67.5 Q-4.05 72.55 -3.3 83.2 L-3.3 83.3 -3.4 88.8 -3.55 102.55 -3.65 116.25 -3.55 130.05 Q-3.55 139.4 -4.55 157.85 L-4.55 160.3 -7.65 160.3 -7.35 155.4 -6.75 141.85 Q-6.5 84.0 -6.5 12.9 L-6.5 0.85 -6.5 -9.6 Q-6.5 -101.65 -6.85 -123.45 L-6.9 -126.45 -6.5 -126.75 -6.5 -147.1 -6.5 -149.9 -6.6 -156.0 -6.95 -158.8" fill="#473612" fill-rule="evenodd" stroke="none"/>
    </g>
    <g id="shape2" transform="matrix(1.0, 0.0, 0.0, 1.0, 126.0, 37.1)">
      <path d="M-87.0 -21.0 L-84.9 -18.95 -79.25 -13.75 -73.75 -8.35 -71.9 -5.7 -71.7 -5.45 Q-72.3 -4.4 -74.25 -2.25 L-76.4 -0.2 -78.85 2.7 -83.25 7.3 -88.3 13.3 Q-92.1 17.8 -94.0 17.8 L-94.3 17.75 -98.0 18.3 Q-99.85 18.3 -105.85 13.25 L-114.6 5.5 -121.3 -0.35 Q-126.0 -4.75 -126.0 -6.85 L-125.95 -7.35 -126.0 -7.85 Q-126.0 -10.35 -121.1 -15.15 L-118.45 -17.75 Q-114.85 -22.45 -111.0 -26.6 -104.6 -33.45 -101.6 -34.55 L-100.65 -35.3 Q-99.35 -36.55 -95.8 -36.7 L-91.85 -37.1 Q-90.15 -37.1 -89.85 -35.85 L-89.85 -34.55 Q-89.85 -32.6 -90.35 -32.2 -90.65 -31.95 -91.7 -31.8 L-91.8 -31.8 -93.15 -31.7 -96.9 -31.55 -98.05 -31.5 -98.5 -31.45 Q-98.65 -29.55 -109.25 -17.7 L-110.85 -15.9 Q-115.4 -10.9 -118.4 -8.2 L-117.75 -7.5 -115.75 -5.85 -112.65 -3.5 Q-108.65 -0.55 -108.0 0.0 -103.85 3.5 -100.25 7.55 L-100.0 7.8 -97.15 10.35 -92.95 6.3 -92.15 5.7 -90.1 4.0 -86.5 1.0 Q-83.3 -2.4 -80.35 -4.6 L-78.85 -5.55 -81.35 -8.1 -84.25 -10.7 -84.55 -11.0 -84.65 -11.1 -87.85 -14.15 -91.25 -10.45 Q-95.6 -5.8 -97.75 -4.3 -98.75 -3.65 -99.25 -3.65 L-99.55 -3.65 -99.95 -3.7 Q-101.25 -3.95 -101.75 -5.1 L-101.95 -5.95 -102.0 -6.65 -102.0 -6.85 -101.65 -7.95 Q-101.0 -9.3 -99.15 -10.9 L-98.0 -11.9 -94.25 -16.0 -90.25 -19.45 Q-89.7 -21.0 -87.8 -20.8 L-87.0 -21.0" fill="#34270e" fill-rule="evenodd" stroke="none"/>
      <path d="M-93.05 -27.75 L-91.95 -27.6 Q-88.8 -27.05 -88.8 -26.4 -88.8 -25.8 -89.4 -25.1 L-90.4 -24.35 -90.95 -24.2 -97.05 -18.4 Q-104.0 -11.55 -104.0 -10.0 -104.0 -9.05 -103.5 -7.8 -102.9 -6.4 -101.95 -5.95 L-101.75 -5.1 Q-101.25 -3.95 -99.95 -3.7 L-99.8 -3.25 -99.6 -3.1 -96.0 -3.1 -88.95 -6.7 Q-85.1 -8.8 -84.25 -10.7 L-81.35 -8.1 -84.25 -5.85 -87.55 -3.85 -90.1 -1.8 -96.8 3.6 Q-99.5 5.9 -100.25 7.55 -103.85 3.5 -108.0 0.0 -108.65 -0.55 -112.65 -3.5 L-115.75 -5.85 -112.35 -9.15 -105.1 -16.6 -98.15 -23.7 Q-96.5 -25.5 -95.6 -27.05 L-94.8 -27.3 Q-94.3 -27.8 -93.05 -27.75" fill="#8e6c24" fill-rule="evenodd" stroke="none"/>
      <path d="M-91.8 -31.8 L-91.8 -31.65 Q-90.85 -32.2 -90.85 -30.9 L-91.05 -29.85 -90.85 -29.35 -90.65 -28.8 Q-90.65 -27.95 -91.95 -27.95 L-92.6 -27.75 -93.05 -27.75 Q-94.3 -27.8 -94.8 -27.3 L-95.6 -27.05 Q-96.5 -25.5 -98.15 -23.7 L-105.1 -16.6 -112.35 -9.15 -115.75 -5.85 -117.75 -7.5 -118.4 -8.2 Q-115.4 -10.9 -110.85 -15.9 L-109.25 -17.7 Q-98.65 -29.55 -98.5 -31.45 L-98.05 -31.5 -96.9 -31.55 -93.15 -31.7 -91.8 -31.8 M-99.95 -3.7 L-99.55 -3.65 -99.25 -3.65 Q-98.75 -3.65 -97.75 -4.3 -95.6 -5.8 -91.25 -10.45 L-87.85 -14.15 -84.65 -11.1 -84.55 -11.0 -84.25 -10.7 Q-85.1 -8.8 -88.95 -6.7 L-96.0 -3.1 -99.6 -3.1 -99.8 -3.25 -99.95 -3.7" fill="#cd9e3f" fill-rule="evenodd" stroke="none"/>
      <path d="M-90.4 -24.35 L-88.4 -22.45 -87.0 -21.0 -87.8 -20.8 Q-89.7 -21.0 -90.25 -19.45 L-94.25 -16.0 -98.0 -11.9 -99.15 -10.9 Q-101.0 -9.3 -101.65 -7.95 L-102.0 -6.85 -102.0 -6.65 -101.95 -5.95 Q-102.9 -6.4 -103.5 -7.8 -104.0 -9.05 -104.0 -10.0 -104.0 -11.55 -97.05 -18.4 L-90.95 -24.2 -90.4 -24.35 M-81.35 -8.1 L-78.85 -5.55 -80.35 -4.6 Q-83.3 -2.4 -86.5 1.0 L-90.1 4.0 -92.15 5.7 -92.95 6.3 -97.15 10.35 -100.0 7.8 -100.25 7.55 Q-99.5 5.9 -96.8 3.6 L-90.1 -1.8 -87.55 -3.85 -84.25 -5.85 -81.35 -8.1" fill="#473612" fill-rule="evenodd" stroke="none"/>
    </g>
    <g id="shape3" transform="matrix(1.0, 0.0, 0.0, 1.0, -217.45, -114.0)">
      <path d="M218.45 146.25 L493.0 146.25" fill="none" stroke="#473612" stroke-linecap="round" stroke-linejoin="round" stroke-width="2.0"/>
      <path d="M535.35 124.3 Q551.55 124.3 563.1 135.5 574.55 146.8 574.55 162.75 574.55 178.7 563.1 189.95 559.95 192.95 556.5 195.25 547.1 201.2 535.35 201.2 519.1 201.2 507.6 189.95 496.1 178.7 496.1 162.75 496.1 146.8 507.6 135.5 511.6 131.6 516.15 129.1 524.75 124.3 535.35 124.3" fill="#081628" fill-rule="evenodd" stroke="none"/>
      <path d="M535.35 122.3 Q552.4 122.3 564.55 134.1 576.65 146.0 576.65 162.8 576.65 179.6 564.55 191.4 561.25 194.6 557.65 197.0 547.75 203.25 535.35 203.25 518.25 203.25 506.15 191.4 494.05 179.6 494.05 162.8 494.05 146.0 506.15 134.1 510.35 130.0 515.15 127.35 524.2 122.3 535.35 122.3 M535.35 124.3 Q524.75 124.3 516.15 129.1 511.6 131.6 507.6 135.5 496.1 146.8 496.1 162.75 496.1 178.7 507.6 189.95 519.1 201.2 535.35 201.2 547.1 201.2 556.5 195.25 559.95 192.95 563.1 189.95 574.55 178.7 574.55 162.75 574.55 146.8 563.1 135.5 551.55 124.3 535.35 124.3 M500.2 128.25 Q505.25 123.3 511.0 120.1 521.9 114.0 535.35 114.0 555.95 114.0 570.55 128.25 585.1 142.55 585.1 162.75 585.1 182.95 570.55 197.2 566.6 201.1 562.15 203.9 550.35 211.5 535.35 211.5 514.75 211.5 500.2 197.2 485.6 182.95 485.6 162.75 485.6 142.55 500.2 128.25 M501.6 129.6 Q487.55 143.35 487.55 162.75 487.55 182.15 501.6 195.8 515.55 209.55 535.35 209.55 549.75 209.55 561.05 202.25 565.35 199.55 569.1 195.8 583.1 182.15 583.1 162.75 583.1 143.35 569.1 129.6 555.1 115.95 535.35 115.95 522.4 115.95 511.95 121.8 506.45 124.85 501.6 129.6" fill="#34270e" fill-rule="evenodd" stroke="none"/>
      <path d="M535.35 119.25 Q553.7 119.25 566.75 131.95 579.75 144.75 579.75 162.8 579.75 180.85 566.75 193.55 563.2 197.0 559.3 199.55 548.7 206.3 535.35 206.3 516.95 206.3 503.95 193.55 490.95 180.85 490.95 162.8 490.95 144.75 503.95 131.95 508.45 127.55 513.6 124.7 523.35 119.25 535.35 119.25 M535.35 122.3 Q524.2 122.3 515.15 127.35 510.35 130.0 506.15 134.1 494.05 146.0 494.05 162.8 494.05 179.6 506.15 191.4 518.25 203.25 535.35 203.25 547.75 203.25 557.65 197.0 561.25 194.6 564.55 191.4 576.65 179.6 576.65 162.8 576.65 146.0 564.55 134.1 552.4 122.3 535.35 122.3" fill="#6a511b" fill-rule="evenodd" stroke="none"/>
      <path d="M535.35 119.25 Q523.35 119.25 513.6 124.7 508.45 127.55 503.95 131.95 490.95 144.75 490.95 162.8 490.95 180.85 503.95 193.55 516.95 206.3 535.35 206.3 548.7 206.3 559.3 199.55 563.2 197.0 566.75 193.55 579.75 180.85 579.75 162.8 579.75 144.75 566.75 131.95 553.7 119.25 535.35 119.25 M502.65 130.65 Q507.35 126.05 512.7 123.1 522.85 117.4 535.35 117.4 554.5 117.4 568.1 130.65 581.6 143.95 581.6 162.75 581.6 181.55 568.1 194.8 564.4 198.4 560.3 201.05 549.3 208.1 535.35 208.1 516.2 208.1 502.65 194.8 489.1 181.55 489.1 162.75 489.1 143.95 502.65 130.65" fill="#8e6c24" fill-rule="evenodd" stroke="none"/>
      <path d="M501.6 129.6 Q506.45 124.85 511.95 121.8 522.4 115.95 535.35 115.95 555.1 115.95 569.1 129.6 583.1 143.35 583.1 162.75 583.1 182.15 569.1 195.8 565.35 199.55 561.05 202.25 549.75 209.55 535.35 209.55 515.55 209.55 501.6 195.8 487.55 182.15 487.55 162.75 487.55 143.35 501.6 129.6 M502.65 130.65 Q489.1 143.95 489.1 162.75 489.1 181.55 502.65 194.8 516.2 208.1 535.35 208.1 549.3 208.1 560.3 201.05 564.4 198.4 568.1 194.8 581.6 181.55 581.6 162.75 581.6 143.95 568.1 130.65 554.5 117.4 535.35 117.4 522.85 117.4 512.7 123.1 507.35 126.05 502.65 130.65" fill="#cd9e3f" fill-rule="evenodd" stroke="none"/>
    </g>
    <g id="sprite0" transform="matrix(1.0, 0.0, 0.0, 1.0, 102.85, 28.35)">
      <use ffdec:characterId="850" height="57.6" transform="matrix(1.0, 0.0, 0.0, 1.0, -102.85, -28.35)" width="63.7" xlink:href="#shape4"/>
    </g>
    <g id="shape4" transform="matrix(1.0, 0.0, 0.0, 1.0, 31.85, 28.35)">
      <path d="M-2.4 -15.7 L-2.4 -15.75 -2.3 -15.95 -2.3 -16.1 -2.25 -16.6 -2.15 -16.75 -2.05 -16.75 1.45 -27.7 1.55 -28.0 1.65 -28.35 Q2.0 -28.3 2.15 -27.95 L2.3 -27.9 3.05 -27.75 3.25 -27.7 3.35 -27.65 3.4 -27.65 3.4 -27.6 4.05 -26.1 3.9 -26.2 5.15 -23.5 6.4 -21.45 6.45 -21.35 7.45 -19.05 6.95 -19.1 6.95 -18.9 7.2 -18.9 7.35 -18.95 7.45 -18.5 Q7.45 -18.0 6.45 -17.45 L6.25 -17.4 Q4.95 -16.75 3.55 -16.75 L2.6 -16.5 0.9 -16.05 0.25 -15.9 -0.35 -15.75 -0.6 -15.7 -0.9 -15.6 -1.7 -15.45 -2.15 -15.5 -2.25 -15.6 -2.25 -15.7 -2.25 -15.4 -2.05 -14.9 -2.1 -14.9 -2.2 -15.1 -2.4 -15.7 M3.15 29.0 L2.8 28.8 2.7 28.75 2.7 28.7 Q2.65 28.25 3.05 27.15 L0.45 22.7 Q-1.4 19.4 -3.15 17.35 L-3.05 17.25 -0.7 17.75 2.75 18.25 Q5.4 18.25 5.75 19.0 L5.75 19.05 5.8 19.5 5.85 19.65 6.75 18.95 6.85 19.05 6.95 19.05 7.1 19.25 Q6.2 23.3 4.45 27.05 L4.55 27.0 5.0 26.6 5.2 26.35 Q4.1 28.9 3.15 29.0 M23.85 -2.0 L24.4 -1.2 24.5 -1.05 24.55 -1.0 24.55 -0.45 24.55 -0.35 24.05 -0.25 23.3 -0.3 Q22.4 -0.5 20.7 -1.2 18.95 -1.95 17.9 -2.45 L14.4 -3.75 14.45 -3.8 14.55 -3.85 14.6 -3.9 14.7 -3.95 14.65 -4.75 14.3 -4.75 13.3 -5.85 Q14.9 -6.1 18.7 -4.6 L19.0 -4.45 22.1 -3.0 23.35 -2.45 23.35 -2.4 23.65 -2.15 23.85 -2.0 M-23.55 0.75 L-23.55 0.85 -23.45 1.55 -23.4 1.8 -23.4 1.9 -20.3 1.9 -20.3 2.0 -20.3 2.25 Q-19.75 2.6 -22.0 2.95 L-23.4 3.1 -23.4 3.0 -23.5 3.1 -23.65 3.25 -25.15 4.55 -25.25 4.65 -25.65 4.9 -25.8 4.9 -25.8 4.95 -27.15 6.05 -27.5 6.35 -27.5 6.4 -27.7 6.5 -29.2 7.05 -30.35 6.85 Q-31.0 6.5 -31.1 5.85 L-30.85 4.8 -30.6 3.8 -30.8 2.8 -30.8 1.8 -30.65 -2.3 Q-30.55 -3.25 -29.95 -3.35 L-30.0 -3.55 -29.55 -3.4 -29.65 -3.45 -28.9 -3.3 -28.8 -3.25 -28.95 -3.25 -29.3 -3.2 -28.9 -3.0 -26.7 -1.45 -26.15 -1.15 -24.6 0.65 -23.85 0.6 -23.65 0.75 -23.6 0.7 -23.55 0.75 M-0.75 -17.1 L-0.7 -17.05 -0.65 -17.1 -0.75 -17.1" fill="#d58000" fill-opacity="0.0" fill-rule="evenodd" stroke="none"/>
      <path d="M6.45 -21.35 L6.4 -21.45 5.15 -23.5 3.9 -26.2 4.05 -26.1 5.85 -25.1 Q10.25 -22.5 11.1 -21.75 L15.15 -18.5 18.8 -15.35 25.6 -8.4 Q29.15 -4.45 30.2 -1.25 L30.0 -0.95 26.55 -1.15 25.7 -0.95 25.5 -1.3 25.15 -1.65 25.15 -1.75 Q25.0 -3.3 21.2 -7.1 L16.65 -11.25 14.3 -13.6 11.9 -15.85 9.55 -17.9 7.6 -19.0 6.65 -21.0 6.45 -21.35" fill="url(#gradient0)" fill-rule="evenodd" stroke="none"/>
      <path d="M-2.4 -15.7 L-2.2 -15.1 -2.1 -14.9 Q-2.3 -14.9 -2.4 -15.05 L-2.5 -15.4 -2.4 -15.7 M7.45 -19.05 L6.45 -21.35 6.65 -21.0 7.6 -19.0 7.45 -19.05 M4.05 -26.1 L3.4 -27.6 Q7.0 -26.65 10.95 -23.55 L19.55 -16.35 Q22.05 -14.4 26.25 -9.65 30.7 -4.45 31.3 -1.95 L31.35 -0.9 31.45 -0.7 31.45 -0.3 31.5 0.0 31.85 0.8 31.65 2.4 31.6 2.05 31.55 1.8 31.55 1.45 31.5 0.75 31.4 0.4 Q30.65 0.5 30.05 1.35 L30.05 0.7 25.85 1.0 25.45 0.8 25.75 -0.45 25.75 -0.55 25.7 -0.95 26.55 -1.15 30.0 -0.95 30.2 -1.25 Q29.15 -4.45 25.6 -8.4 L18.8 -15.35 15.15 -18.5 11.1 -21.75 Q10.25 -22.5 5.85 -25.1 L4.05 -26.1 M27.55 9.15 L27.45 9.3 27.45 9.25 27.55 9.15 M27.4 9.35 L26.65 10.4 27.3 9.45 27.4 9.35 M22.35 14.55 L21.1 15.75 20.85 15.9 21.7 15.0 Q21.95 14.7 22.35 14.55 M-4.2 17.45 L-4.3 17.25 -4.3 17.0 -4.15 17.3 -4.2 17.45 M-4.1 16.55 L-3.95 16.45 Q-3.35 15.85 -2.3 15.35 -0.9 14.6 0.9 14.05 2.1 13.7 3.4 12.75 4.6 11.75 5.5 11.4 L5.65 11.35 5.7 11.35 5.75 11.3 9.85 9.0 10.1 8.9 10.2 8.85 13.25 9.0 10.5 10.5 Q6.65 12.1 5.65 12.65 L0.8 15.4 Q-0.2 16.0 -1.1 16.4 L1.5 16.7 Q5.05 17.1 6.25 18.1 L6.35 18.5 Q6.4 18.8 6.8 18.8 L6.85 18.9 Q7.05 18.95 7.15 19.1 L7.1 19.25 6.95 19.05 6.85 19.05 6.75 18.95 6.35 18.85 5.75 19.05 5.75 19.0 Q5.4 18.25 2.75 18.25 L-0.7 17.75 -3.05 17.25 -3.9 16.95 -4.05 16.85 -4.1 16.55 M23.6 -2.3 L23.85 -2.0 23.65 -2.15 23.35 -2.4 23.6 -2.3 M22.1 1.2 L23.25 1.1 23.9 1.05 24.0 1.25 22.15 3.8 Q20.75 4.5 20.05 5.05 L17.1 6.95 14.65 8.25 14.55 8.3 14.45 7.4 14.45 7.15 13.9 7.15 16.45 5.45 19.5 2.95 22.1 1.2 M-26.15 -1.15 L-24.4 0.0 -23.85 0.6 -24.6 0.65 -26.15 -1.15" fill="#ff9900" fill-opacity="0.0" fill-rule="evenodd" stroke="none"/>
      <path d="M6.45 -17.45 Q7.45 -18.0 7.45 -18.5 L7.35 -18.95 7.2 -18.9 6.95 -18.9 6.95 -19.1 7.45 -19.05 7.6 -19.0 9.55 -17.9 11.9 -15.85 14.3 -13.6 16.65 -11.25 21.2 -7.1 Q25.0 -3.3 25.15 -1.75 L25.15 -1.65 25.5 -1.3 25.7 -0.95 25.75 -0.55 25.75 -0.45 25.45 0.8 Q24.2 3.4 18.2 9.8 L12.35 15.05 Q7.9 18.75 6.9 18.8 L6.8 18.8 Q6.4 18.8 6.35 18.5 L6.25 18.1 6.25 18.0 11.95 13.6 Q12.65 13.0 14.3 11.75 L16.85 9.4 20.95 5.15 22.15 3.8 24.0 1.25 24.15 0.95 23.9 1.05 23.25 1.1 22.1 1.2 19.4 1.4 17.95 1.55 19.3 1.5 11.35 2.0 9.3 1.75 7.85 1.6 7.5 1.6 7.1 1.65 -20.3 1.9 -23.4 1.9 -23.4 1.8 -23.45 1.55 -23.55 0.85 -23.55 0.75 -23.4 0.75 -23.4 0.85 7.1 0.4 7.85 0.35 9.75 0.35 13.15 0.55 23.3 -0.3 24.05 -0.25 24.15 -0.25 24.55 -0.1 24.55 -0.35 24.55 -0.45 24.55 -1.0 24.5 -1.05 24.4 -1.2 23.85 -2.0 23.6 -2.3 Q20.15 -6.75 13.5 -12.7 L7.7 -17.6 7.3 -17.4 7.1 -17.65 6.45 -17.45" fill="#ffcc00" fill-opacity="0.0" fill-rule="evenodd" stroke="none"/>
      <path d="M-0.6 -15.7 L-0.35 -15.75 0.25 -15.9 0.9 -16.05 2.6 -16.5 3.55 -16.75 Q4.95 -16.75 6.25 -17.4 L6.45 -17.45 7.1 -17.65 7.3 -17.4 7.7 -17.6 13.5 -12.7 Q20.15 -6.75 23.6 -2.3 L23.35 -2.4 23.35 -2.45 22.1 -3.0 19.0 -4.45 18.7 -4.6 Q14.9 -6.1 13.3 -5.85 L10.4 -8.15 6.35 -10.95 2.15 -14.15 -0.6 -15.55 -0.6 -15.7" fill="url(#gradient1)" fill-rule="evenodd" stroke="none"/>
      <path d="M-2.05 -14.9 L-2.25 -15.4 -2.25 -15.7 -2.25 -15.6 -2.15 -15.5 -1.7 -15.45 -0.9 -15.6 -0.65 -15.55 -0.6 -15.55 2.15 -14.15 6.35 -10.95 10.4 -8.15 13.3 -5.85 14.3 -4.75 14.65 -4.75 14.7 -3.95 14.6 -3.9 14.55 -3.85 14.45 -3.8 14.4 -3.75 13.25 -3.45 11.7 -3.15 7.85 -2.95 7.1 -2.95 -23.4 -2.95 -23.4 -3.05 -23.65 -3.05 -25.55 -3.15 -28.8 -3.25 -28.9 -3.3 -29.65 -3.45 -29.55 -3.4 -30.0 -3.55 -29.95 -3.35 Q-30.55 -3.25 -30.65 -2.3 L-30.8 1.8 -30.8 2.8 -30.6 3.8 -30.85 4.8 -31.1 5.85 Q-31.0 6.5 -30.35 6.85 L-29.2 7.05 -27.7 6.5 -27.75 6.55 -28.8 7.35 -23.65 7.4 -23.4 7.4 -23.4 7.5 -16.95 7.5 7.1 7.55 7.85 7.55 11.75 7.5 13.65 7.25 13.9 7.15 14.45 7.15 14.45 7.4 14.55 8.3 14.0 8.4 13.25 9.0 10.2 8.85 10.35 8.75 9.45 8.7 7.85 8.7 7.1 8.7 -23.65 8.65 -23.65 8.55 -24.9 8.55 -28.7 8.55 -29.55 8.5 -30.35 8.15 -30.5 8.05 -30.55 8.2 -30.95 8.1 -31.2 7.95 -31.85 0.5 -31.6 -1.7 -31.6 -1.75 Q-31.2 -2.55 -31.2 -3.35 L-31.2 -3.55 -31.3 -4.2 -27.75 -4.35 -27.15 -4.3 -23.4 -4.3 -23.4 -4.2 7.1 -4.25 7.55 -4.25 7.85 -4.25 11.6 -4.35 12.85 -4.5 9.9 -6.75 6.0 -9.75 3.85 -11.55 2.1 -12.95 -0.8 -14.05 Q-1.75 -14.45 -2.05 -14.9 M31.65 2.4 L31.65 2.45 31.6 2.55 31.55 1.8 31.6 2.05 31.65 2.4 M31.55 1.45 L30.6 3.65 28.25 7.85 28.2 7.9 28.2 7.95 27.9 8.6 27.7 8.95 27.6 9.05 27.55 9.15 27.45 9.25 27.45 9.3 27.4 9.35 27.3 9.45 26.65 10.4 26.6 10.45 26.35 10.7 22.65 14.3 22.4 14.5 22.35 14.55 Q21.95 14.7 21.7 15.0 L20.85 15.9 17.25 19.25 13.35 22.3 Q11.95 23.2 7.65 26.4 L4.0 28.85 4.05 28.9 3.55 29.25 3.15 29.0 Q4.1 28.9 5.2 26.35 L6.9 25.05 11.7 22.0 16.3 18.3 20.5 14.55 Q25.95 9.8 27.45 6.5 L28.8 4.25 29.9 2.25 30.05 1.35 Q30.65 0.5 31.4 0.4 L31.5 0.75 31.55 1.45 M2.7 28.75 Q1.75 27.95 1.0 26.65 L-0.6 23.55 -0.85 23.15 -4.15 17.6 -4.2 17.45 -4.15 17.3 -4.3 17.0 -4.3 16.9 -4.2 16.8 -4.2 16.75 -4.1 16.55 -4.05 16.85 -3.9 16.95 -3.05 17.25 -3.2 17.3 -3.15 17.35 Q-1.4 19.4 0.45 22.7 L3.05 27.15 Q2.65 28.25 2.7 28.7 L2.7 28.75 M5.75 19.05 L6.35 18.85 6.75 18.95 5.85 19.65 5.8 19.5 5.75 19.05 M-22.0 2.95 L-23.4 3.25 -23.4 3.15 -23.45 3.25 -23.65 3.45 -23.85 3.6 -25.15 4.55 -23.65 3.25 -23.5 3.1 -23.4 3.0 -23.4 3.1 -22.0 2.95" fill="#c17400" fill-opacity="0.0" fill-rule="evenodd" stroke="none"/>
      <path d="M23.3 -0.3 L13.15 0.55 9.75 0.35 7.85 0.35 7.85 -2.95 11.7 -3.15 13.25 -3.45 14.4 -3.75 17.9 -2.45 Q18.95 -1.95 20.7 -1.2 22.4 -0.5 23.3 -0.3" fill="url(#gradient2)" fill-rule="evenodd" stroke="none"/>
      <path d="M7.85 0.35 L7.1 0.4 7.1 -2.95 7.85 -2.95 7.85 0.35" fill="url(#gradient3)" fill-rule="evenodd" stroke="none"/>
      <path d="M7.1 0.4 L-23.4 0.85 -23.4 0.75 -23.4 -2.95 7.1 -2.95 7.1 0.4" fill="url(#gradient4)" fill-rule="evenodd" stroke="none"/>
      <path d="M-23.4 0.75 L-23.55 0.75 -23.6 0.7 -23.65 0.75 -23.85 0.6 -24.4 0.0 -26.15 -1.15 -26.7 -1.45 -28.9 -3.0 -28.95 -3.25 -28.8 -3.25 -25.55 -3.15 -23.65 -3.05 -23.4 -3.05 -23.4 -2.95 -23.4 0.75" fill="url(#gradient5)" fill-rule="evenodd" stroke="none"/>
      <path d="M-0.6 -15.55 L-0.65 -15.55 -0.6 -15.7 -0.6 -15.55" fill="url(#gradient6)" fill-rule="evenodd" stroke="none"/>
      <path d="M-20.3 1.9 L7.1 1.65 7.1 7.55 -16.95 7.5 -23.4 7.5 -23.4 7.4 -23.4 3.25 -22.0 2.95 Q-19.75 2.6 -20.3 2.25 L-20.3 2.0 -20.3 1.9" fill="url(#gradient7)" fill-rule="evenodd" stroke="none"/>
      <path d="M-23.4 7.4 L-23.65 7.4 -28.8 7.35 -27.75 6.55 -27.7 6.5 -27.5 6.4 -27.5 6.35 -27.15 6.05 -25.8 4.95 -25.8 4.9 -25.65 4.9 -25.25 4.65 -25.15 4.55 -23.85 3.6 -23.65 3.45 -23.45 3.25 -23.4 3.15 -23.4 3.25 -23.4 7.4" fill="url(#gradient8)" fill-rule="evenodd" stroke="none"/>
      <path d="M25.45 0.8 L25.85 1.0 30.05 0.7 30.05 1.35 29.9 2.25 28.8 4.25 27.45 6.5 Q25.95 9.8 20.5 14.55 L16.3 18.3 11.7 22.0 6.9 25.05 5.2 26.35 5.0 26.6 4.55 27.0 4.45 27.05 Q6.2 23.3 7.1 19.25 L7.15 19.1 Q7.05 18.95 6.85 18.9 L6.8 18.8 6.9 18.8 Q7.9 18.75 12.35 15.05 L18.2 9.8 Q24.2 3.4 25.45 0.8" fill="url(#gradient9)" fill-rule="evenodd" stroke="none"/>
      <path d="M22.15 3.8 L20.95 5.15 16.85 9.4 14.3 11.75 Q12.65 13.0 11.95 13.6 L6.25 18.0 6.25 18.1 Q5.05 17.1 1.5 16.7 L-1.1 16.4 Q-0.2 16.0 0.8 15.4 L5.65 12.65 Q6.65 12.1 10.5 10.5 L13.25 9.0 14.0 8.4 14.55 8.3 14.65 8.25 17.1 6.95 20.05 5.05 Q20.75 4.5 22.15 3.8" fill="url(#gradient10)" fill-rule="evenodd" stroke="none"/>
      <path d="M7.85 1.6 L9.3 1.75 11.35 2.0 19.3 1.5 19.35 1.5 19.4 1.45 19.4 1.4 22.1 1.2 19.5 2.95 16.45 5.45 13.9 7.15 13.65 7.25 11.75 7.5 7.85 7.55 7.85 1.6" fill="url(#gradient11)" fill-rule="evenodd" stroke="none"/>
      <path d="M7.1 1.65 L7.5 1.6 7.85 1.6 7.85 7.55 7.1 7.55 7.1 1.65" fill="url(#gradient12)" fill-rule="evenodd" stroke="none"/>
    </g>
    <linearGradient gradientTransform="matrix(-0.0127, -0.0127, -0.0023, 0.0023, 16.55, -13.8)" gradientUnits="userSpaceOnUse" id="gradient0" spreadMethod="pad" x1="-819.2" x2="819.2">
      <stop offset="0.0" stop-color="#ff9900" stop-opacity="0.0"/>
      <stop offset="0.5058823529411764" stop-color="#ffc500" stop-opacity="0.0"/>
      <stop offset="1.0" stop-color="#ff9a00" stop-opacity="0.0"/>
    </linearGradient>
    <linearGradient gradientTransform="matrix(0.0042, 0.0113, 0.0103, -0.0039, 12.45, -6.4)" gradientUnits="userSpaceOnUse" id="gradient1" spreadMethod="pad" x1="-819.2" x2="819.2">
      <stop offset="0.0" stop-color="#ff9900" stop-opacity="0.0"/>
      <stop offset="0.5058823529411764" stop-color="#c17400" stop-opacity="0.0"/>
      <stop offset="1.0" stop-color="#ff9a00" stop-opacity="0.0"/>
    </linearGradient>
    <linearGradient gradientTransform="matrix(-0.0074, 5.0E-4, 2.0E-4, 0.0028, 9.65, -1.5)" gradientUnits="userSpaceOnUse" id="gradient2" spreadMethod="pad" x1="-819.2" x2="819.2">
      <stop offset="0.0" stop-color="#ff9900" stop-opacity="0.0"/>
      <stop offset="0.5058823529411764" stop-color="#ffc500" stop-opacity="0.0"/>
      <stop offset="1.0" stop-color="#ff9a00" stop-opacity="0.0"/>
    </linearGradient>
    <linearGradient gradientTransform="matrix(-0.0088, 5.0E-4, 2.0E-4, 0.0028, 10.0, -1.5)" gradientUnits="userSpaceOnUse" id="gradient3" spreadMethod="pad" x1="-819.2" x2="819.2">
      <stop offset="0.0" stop-color="#ff9900" stop-opacity="0.0"/>
      <stop offset="0.5058823529411764" stop-color="#ffc500" stop-opacity="0.0"/>
      <stop offset="1.0" stop-color="#ff9a00" stop-opacity="0.0"/>
    </linearGradient>
    <linearGradient gradientTransform="matrix(-0.0983, 5.0E-4, 0.0026, 0.0028, 39.5, -1.5)" gradientUnits="userSpaceOnUse" id="gradient4" spreadMethod="pad" x1="-819.2" x2="819.2">
      <stop offset="0.0" stop-color="#ff9900" stop-opacity="0.0"/>
      <stop offset="0.5058823529411764" stop-color="#ffc500" stop-opacity="0.0"/>
      <stop offset="1.0" stop-color="#ff9a00" stop-opacity="0.0"/>
    </linearGradient>
    <linearGradient gradientTransform="matrix(-0.0088, 5.0E-4, 2.0E-4, 0.0028, -17.75, -1.6)" gradientUnits="userSpaceOnUse" id="gradient5" spreadMethod="pad" x1="-819.2" x2="819.2">
      <stop offset="0.0" stop-color="#ff9900" stop-opacity="0.0"/>
      <stop offset="0.5058823529411764" stop-color="#ffc500" stop-opacity="0.0"/>
      <stop offset="1.0" stop-color="#ff9a00" stop-opacity="0.0"/>
    </linearGradient>
    <linearGradient gradientTransform="matrix(0.0079, 0.0092, 0.0045, -0.0039, 12.55, -7.7)" gradientUnits="userSpaceOnUse" id="gradient6" spreadMethod="pad" x1="-819.2" x2="819.2">
      <stop offset="0.0" stop-color="#ff9900" stop-opacity="0.0"/>
      <stop offset="0.5058823529411764" stop-color="#c17400" stop-opacity="0.0"/>
      <stop offset="1.0" stop-color="#ff9a00" stop-opacity="0.0"/>
    </linearGradient>
    <linearGradient gradientTransform="matrix(-0.0503, -0.0049, -0.1344, 0.0079, 44.55, 2.8)" gradientUnits="userSpaceOnUse" id="gradient7" spreadMethod="pad" x1="-819.2" x2="819.2">
      <stop offset="0.0" stop-color="#ff9900" stop-opacity="0.0"/>
      <stop offset="0.5058823529411764" stop-color="#c17400" stop-opacity="0.0"/>
      <stop offset="1.0" stop-color="#ff9a00" stop-opacity="0.0"/>
    </linearGradient>
    <linearGradient gradientTransform="matrix(-0.0045, -0.0049, -0.012, 0.0079, -17.3, 2.7)" gradientUnits="userSpaceOnUse" id="gradient8" spreadMethod="pad" x1="-819.2" x2="819.2">
      <stop offset="0.0" stop-color="#ff9900" stop-opacity="0.0"/>
      <stop offset="0.5058823529411764" stop-color="#c17400" stop-opacity="0.0"/>
      <stop offset="1.0" stop-color="#ff9a00" stop-opacity="0.0"/>
    </linearGradient>
    <linearGradient gradientTransform="matrix(0.0133, -0.0131, -0.0029, -0.0029, 18.65, 11.85)" gradientUnits="userSpaceOnUse" id="gradient9" spreadMethod="pad" x1="-819.2" x2="819.2">
      <stop offset="0.0" stop-color="#ff9900" stop-opacity="0.0"/>
      <stop offset="0.5058823529411764" stop-color="#c17400" stop-opacity="0.0"/>
      <stop offset="1.0" stop-color="#ff9a00" stop-opacity="0.0"/>
    </linearGradient>
    <linearGradient gradientTransform="matrix(0.0015, -0.0066, -0.0118, -0.0027, 10.25, 11.4)" gradientUnits="userSpaceOnUse" id="gradient10" spreadMethod="pad" x1="-819.2" x2="819.2">
      <stop offset="0.0" stop-color="#ff9900" stop-opacity="0.0"/>
      <stop offset="0.5058823529411764" stop-color="#ffc500" stop-opacity="0.0"/>
      <stop offset="1.0" stop-color="#ff9a00" stop-opacity="0.0"/>
    </linearGradient>
    <linearGradient gradientTransform="matrix(-0.0038, -0.0049, -0.0101, 0.0079, 10.05, 2.8)" gradientUnits="userSpaceOnUse" id="gradient11" spreadMethod="pad" x1="-819.2" x2="819.2">
      <stop offset="0.0" stop-color="#ff9900" stop-opacity="0.0"/>
      <stop offset="0.5058823529411764" stop-color="#c17400" stop-opacity="0.0"/>
      <stop offset="1.0" stop-color="#ff9a00" stop-opacity="0.0"/>
    </linearGradient>
    <linearGradient gradientTransform="matrix(-0.0045, -0.0049, -0.012, 0.0079, 10.45, 2.8)" gradientUnits="userSpaceOnUse" id="gradient12" spreadMethod="pad" x1="-819.2" x2="819.2">
      <stop offset="0.0" stop-color="#ff9900" stop-opacity="0.0"/>
      <stop offset="0.5058823529411764" stop-color="#c17400" stop-opacity="0.0"/>
      <stop offset="1.0" stop-color="#ff9a00" stop-opacity="0.0"/>
    </linearGradient>
    <g id="sprite1" transform="matrix(1.0, 0.0, 0.0, 1.0, 4.4, 72.6)">
      <use ffdec:characterId="875" height="123.9" transform="matrix(1.0, 0.0, 0.0, 1.0, -0.05, 0.0)" width="127.55" xlink:href="#shape6"/>
    </g>
    <g id="shape6" transform="matrix(1.0, 0.0, 0.0, 1.0, 0.05, 0.0)">
      <path d="M82.3 2.95 L87.75 2.65 84.6 2.8 82.3 2.95 M113.45 31.7 L113.25 33.7 112.75 33.65 112.35 33.6 112.5 33.4 113.45 31.7 M61.8 25.5 L61.7 24.9 62.0 23.8 62.7 21.25 62.95 20.45 63.85 19.6 63.15 21.4 62.25 23.9 61.95 24.8 61.8 25.5 M66.9 12.15 Q68.0 10.5 69.25 9.25 L67.9 11.25 66.9 12.15 M89.15 119.6 L89.15 119.25 89.2 119.6 89.15 119.6" fill="#5b6171" fill-rule="evenodd" stroke="none"/>
      <path d="M87.75 2.65 L91.75 2.9 Q108.45 4.75 112.4 19.25 114.0 25.25 113.45 31.7 L112.5 33.4 112.35 33.6 110.3 33.35 Q110.0 32.35 109.85 30.55 L109.8 30.4 Q109.25 23.95 108.55 21.25 105.2 7.85 90.9 6.25 80.15 5.05 72.95 11.75 69.3 15.15 67.15 19.85 L66.15 22.4 65.45 24.8 Q65.05 26.3 64.8 27.9 L64.05 33.95 63.45 40.05 Q63.15 42.5 62.7 43.1 61.45 44.7 56.95 45.2 56.25 45.25 51.55 47.25 L47.05 46.75 47.0 46.55 46.9 46.4 46.9 45.85 46.9 45.75 Q47.05 44.7 53.05 43.05 L59.25 41.35 59.1 40.85 59.05 40.8 59.6 40.65 59.65 40.4 59.75 40.2 59.75 39.85 60.15 37.85 60.25 37.15 61.15 32.1 61.4 30.45 61.45 30.25 61.45 30.2 61.45 30.05 61.45 29.95 61.45 29.9 61.5 29.8 61.5 29.75 61.8 26.4 61.8 26.0 61.8 25.55 61.8 25.5 61.95 24.8 62.25 23.9 63.15 21.4 63.85 19.6 62.95 20.45 63.45 19.0 Q64.9 15.05 66.85 12.2 L66.9 12.15 67.9 11.25 69.25 9.25 69.3 9.2 69.75 8.7 70.6 7.9 Q75.25 3.9 82.3 2.95 L84.6 2.8 87.75 2.65" fill="#695441" fill-rule="evenodd" stroke="none"/>
      <path d="M87.75 2.65 L82.3 2.95 Q75.25 3.9 70.6 7.9 L69.75 8.7 69.3 9.2 69.25 9.25 Q68.0 10.5 66.9 12.15 L66.85 12.2 Q64.9 15.05 63.45 19.0 L62.95 20.45 62.7 21.25 62.0 23.8 61.7 24.9 61.8 25.5 61.8 25.55 61.8 26.0 61.8 26.4 61.5 29.75 61.5 29.8 61.45 29.9 61.45 29.95 61.45 30.05 61.45 30.2 61.45 30.25 61.4 30.45 61.15 32.1 60.25 37.15 60.15 37.85 59.75 39.85 59.75 40.2 59.65 40.4 59.6 40.65 59.05 40.8 59.1 40.85 59.25 41.35 53.05 43.05 Q47.05 44.7 46.9 45.75 L46.9 45.85 46.9 46.4 47.0 46.55 47.05 46.75 51.55 47.25 64.75 48.7 Q70.7 49.35 72.85 41.2 L74.3 34.75 Q75.0 31.95 76.05 30.7 L76.1 30.05 76.05 29.5 Q76.4 29.3 79.1 29.5 L79.55 29.55 83.85 30.0 87.8 30.45 91.2 30.9 110.3 33.35 112.35 33.6 112.75 33.65 113.25 33.7 113.45 31.7 Q114.0 25.25 112.4 19.25 108.45 4.75 91.75 2.9 L87.75 2.65 M97.85 38.9 L98.7 39.15 99.75 39.0 100.1 38.6 100.2 38.4 100.35 37.55 100.35 36.45 100.3 36.05 98.45 35.7 98.0 35.75 97.55 35.75 97.25 38.75 97.25 39.0 97.85 38.9 M86.65 53.75 Q88.65 53.85 89.9 52.6 L90.35 52.05 91.6 50.1 91.85 49.5 93.0 44.35 Q93.4 42.35 93.6 38.2 L93.65 37.25 93.85 34.6 93.85 34.3 Q93.2 33.15 91.95 33.2 L91.5 33.25 90.5 33.05 90.5 33.0 90.0 32.9 89.0 32.8 86.0 32.4 81.8 31.8 81.6 32.25 81.55 32.3 81.4 36.4 81.15 39.0 80.85 41.55 80.8 42.0 Q80.3 46.35 80.3 47.6 L80.35 48.4 Q80.5 50.2 81.05 51.55 L81.35 52.1 82.25 53.15 86.25 53.6 86.45 53.7 86.5 53.75 86.65 53.75 M96.35 43.25 L96.3 43.55 96.15 44.9 Q95.75 47.9 95.15 49.35 L94.3 51.55 97.15 52.35 98.25 52.65 98.75 52.75 98.8 52.6 98.9 52.7 99.05 52.9 99.8 53.15 100.2 53.15 Q104.35 53.25 106.6 50.0 L107.65 48.05 108.6 45.05 109.0 42.75 106.25 42.55 103.55 42.45 96.6 43.1 96.35 43.25 M114.95 34.9 L114.65 35.2 114.5 35.5 114.2 35.8 111.0 35.45 Q111.3 37.05 111.25 38.95 L110.7 44.3 110.7 47.2 110.3 50.05 110.55 50.35 112.15 51.8 112.4 52.7 Q113.65 54.45 114.0 57.6 L114.65 62.75 114.55 63.15 115.75 64.0 Q118.85 66.45 119.5 68.25 L119.9 68.45 120.9 69.6 Q121.9 71.1 121.9 73.35 121.9 77.2 120.6 79.2 119.35 81.1 114.4 85.05 L109.4 85.05 109.45 85.2 Q106.7 84.95 104.9 82.0 103.25 81.4 100.75 79.0 99.75 78.8 98.6 77.6 L97.65 76.7 97.0 76.2 96.75 76.05 Q97.35 77.15 97.3 79.0 97.25 81.2 96.5 82.7 L95.4 84.3 96.75 90.45 98.2 95.7 100.2 98.1 Q101.3 99.5 101.3 101.15 L101.15 102.1 100.95 102.25 101.1 102.4 100.8 102.5 100.8 102.6 100.75 103.45 100.55 103.8 101.05 105.45 101.05 105.5 101.25 105.55 Q101.55 105.65 101.5 106.4 101.5 107.4 99.5 108.0 L95.05 108.55 95.3 110.0 Q96.15 114.2 96.15 116.5 L96.15 118.15 96.35 118.5 Q97.15 119.85 97.15 120.75 L97.0 121.65 95.1 121.75 79.15 122.4 Q78.7 121.5 77.9 120.9 L78.05 120.75 77.85 120.0 77.65 118.45 Q77.65 113.2 78.4 108.3 L78.15 108.55 Q77.0 109.7 69.9 114.3 L66.6 117.0 Q64.75 118.25 62.6 118.6 62.85 120.35 61.4 123.7 60.7 124.2 59.7 123.5 L59.7 123.3 Q57.45 122.55 53.95 119.95 51.0 117.0 50.7 111.7 50.55 108.15 51.4 106.3 L51.45 105.65 51.55 105.25 51.3 105.0 50.2 105.0 50.15 104.95 49.6 104.75 Q49.35 104.55 49.3 103.9 L46.5 104.35 46.1 104.3 36.15 103.25 34.75 103.4 31.6 102.8 27.3 102.9 26.6 102.75 21.4 101.85 16.3 99.5 Q15.25 99.25 14.35 98.8 L10.85 96.05 Q9.75 94.7 9.5 93.4 L9.4 93.05 8.0 90.9 6.6 89.6 3.0 86.6 0.7 83.4 Q-0.05 82.0 0.0 80.45 L0.1 79.65 0.0 79.1 0.2 77.4 0.0 76.4 0.0 74.35 0.0 74.3 0.5 72.6 Q0.5 72.0 1.05 69.55 L1.2 68.7 2.35 67.0 3.3 64.8 Q3.75 63.8 5.0 62.6 6.15 60.65 7.75 59.2 L7.9 57.8 8.9 49.75 Q9.45 46.7 11.9 43.0 L13.6 40.5 15.1 37.7 Q16.75 34.95 18.85 32.8 L22.55 30.5 29.35 25.2 29.75 24.85 33.1 23.35 39.75 20.65 Q42.2 20.1 47.4 18.05 L48.5 17.6 48.55 17.6 48.7 17.5 50.65 16.7 52.05 16.45 Q57.85 16.35 61.5 18.05 L62.05 16.9 Q64.75 11.3 68.85 7.3 80.75 -4.05 99.3 2.2 110.75 7.95 113.6 17.9 115.25 23.6 115.25 34.25 L114.95 34.9 M109.15 35.25 L109.1 35.65 109.25 35.25 109.15 35.25 M111.65 61.7 L112.1 61.7 112.1 61.65 Q111.85 57.6 110.85 54.7 110.3 53.0 109.6 52.05 107.4 56.05 100.8 55.45 L100.4 55.45 Q101.0 57.45 103.15 60.25 106.0 64.0 107.4 64.0 110.65 64.0 110.65 61.6 L111.65 61.7 M110.35 67.15 Q110.4 71.35 110.65 71.95 111.75 72.0 114.3 70.85 L117.65 69.2 114.5 66.35 112.2 64.3 111.9 64.8 110.25 65.95 110.35 67.15 M101.7 63.45 L101.85 62.5 100.15 60.5 99.6 59.85 98.95 62.85 98.4 65.6 97.95 67.25 97.45 67.45 96.3 70.8 96.1 71.4 Q97.4 71.95 98.05 73.0 L98.6 73.7 Q99.75 74.1 100.4 75.05 L102.0 76.35 103.05 77.25 102.65 75.7 101.65 65.85 101.7 63.45 M119.2 70.85 L117.15 72.6 Q115.0 74.05 113.9 74.05 L113.4 74.0 110.9 74.2 Q108.7 74.2 108.2 72.15 L108.15 69.45 Q108.15 68.25 107.55 66.2 105.65 66.0 103.9 64.6 L104.1 66.5 104.15 72.25 Q104.15 73.9 105.65 78.1 L106.65 80.55 107.15 81.0 107.1 81.3 108.35 81.65 Q108.9 81.9 109.3 82.3 L111.1 82.0 114.8 82.0 115.7 81.3 118.2 78.6 119.45 76.2 119.9 73.55 Q119.9 72.15 119.45 71.1 L119.25 70.7 119.2 70.85 M91.95 70.25 L93.05 73.65 93.15 73.1 93.35 72.35 93.3 72.0 Q93.3 71.4 93.7 71.2 L94.3 69.55 Q96.3 64.85 96.3 61.35 L96.35 61.2 96.4 60.9 96.45 60.25 95.7 58.65 95.2 57.45 94.2 54.95 94.1 54.85 92.15 54.55 92.05 54.65 90.45 55.65 86.85 55.35 87.3 58.85 87.25 59.9 87.9 59.45 88.2 59.25 Q89.1 58.7 90.1 58.95 L90.95 59.25 91.15 59.15 91.3 60.0 Q91.3 60.5 90.1 61.25 L88.4 62.2 Q90.55 66.4 91.95 70.25 M84.1 55.45 L85.0 56.65 84.7 55.55 84.1 55.45 M81.7 56.6 L82.2 58.05 Q83.0 60.65 83.6 64.05 L83.65 64.15 83.65 64.35 84.3 68.4 84.95 73.75 84.95 74.4 Q85.3 79.25 85.2 84.15 L85.2 84.45 84.95 86.95 84.7 89.1 84.35 91.65 84.0 93.9 83.15 99.35 83.1 99.6 83.2 100.4 Q83.2 101.0 82.6 102.0 L82.6 102.15 82.0 104.4 82.5 104.55 82.65 104.6 87.75 105.85 90.4 106.15 91.35 106.25 91.6 106.25 92.15 106.25 92.65 106.3 92.75 106.3 92.9 106.3 94.75 106.2 96.6 106.0 98.6 105.7 97.75 103.8 97.65 103.45 97.3 102.2 97.1 101.5 96.45 99.25 95.85 96.35 94.95 92.15 94.45 89.6 93.65 85.65 93.55 85.35 91.35 85.6 Q89.35 85.5 88.6 84.15 L88.2 83.15 88.25 80.65 Q88.25 79.65 88.55 78.5 88.95 76.5 89.85 76.05 L90.05 75.95 91.15 75.35 90.7 73.9 Q89.55 70.25 88.0 66.85 86.2 62.95 83.95 59.45 L81.95 56.55 81.45 55.8 81.7 56.6 M67.9 73.05 L73.3 73.0 78.7 73.15 78.35 72.9 82.75 73.1 82.55 70.45 82.1 70.35 Q81.8 70.2 81.8 69.4 L82.35 67.9 82.25 66.9 81.95 64.7 80.55 65.0 79.35 64.8 78.8 64.3 Q79.65 63.25 81.45 62.5 80.6 59.6 79.0 56.25 L76.85 51.9 74.75 51.85 73.7 51.7 73.35 51.45 Q72.75 51.1 71.85 51.05 L71.05 51.15 68.35 51.1 67.8 51.2 67.25 51.35 Q68.1 52.25 68.4 53.5 69.05 56.2 66.9 60.15 64.85 63.95 60.45 67.55 L53.7 72.55 53.6 73.25 67.9 73.05 M91.75 77.7 Q91.0 77.95 90.6 78.65 90.05 79.6 90.25 80.9 90.15 83.05 90.4 83.35 L92.35 83.0 93.95 82.05 94.3 81.6 95.25 79.95 95.35 77.75 94.6 77.6 92.6 77.5 92.0 77.6 91.85 77.95 91.8 77.85 91.75 77.7 M82.85 76.2 Q82.7 76.8 81.9 76.8 L80.3 76.5 80.25 76.2 80.05 76.2 71.9 75.2 71.7 75.2 70.55 75.05 70.25 75.05 68.35 74.85 67.15 74.95 64.05 75.25 59.3 75.6 58.85 75.6 52.85 75.4 51.2 75.35 51.45 77.85 51.6 79.55 51.65 80.35 51.75 82.4 53.3 82.4 60.05 82.25 60.1 82.25 61.0 82.2 61.5 82.2 63.1 82.1 63.95 82.05 68.05 81.85 70.7 81.95 74.6 82.05 80.35 82.2 80.55 82.45 80.65 82.8 80.7 82.8 82.0 83.3 83.2 83.35 83.2 81.6 83.2 81.0 83.2 80.65 83.0 76.2 82.95 75.85 82.9 75.85 82.85 76.2 M57.35 103.35 L60.7 103.25 79.6 102.35 80.25 101.15 80.85 100.3 81.0 99.7 Q81.85 95.4 81.9 93.8 L82.25 91.75 67.5 92.4 64.95 92.55 64.5 92.6 60.1 92.85 59.6 92.9 57.55 93.0 55.55 92.8 54.7 95.05 54.5 95.55 53.3 98.8 53.0 100.75 52.75 102.2 52.2 103.45 54.1 103.4 57.2 103.35 57.35 103.35 M82.75 88.1 L82.9 87.05 70.2 87.45 67.4 87.45 63.25 87.5 57.55 87.5 56.05 87.5 55.8 90.8 61.35 90.35 62.45 90.15 66.2 89.75 69.05 89.6 71.8 89.5 82.6 89.2 82.75 88.1 M127.3 67.3 L127.5 67.2 127.5 67.3 127.3 67.3 M121.6 67.15 L121.9 67.3 121.5 67.3 121.6 67.15 M59.8 23.15 L60.5 20.55 55.25 19.15 52.0 19.3 Q49.9 19.6 46.95 20.45 L44.5 21.1 39.8 23.5 32.2 27.6 Q23.5 32.6 19.6 36.45 14.9 41.15 13.1 46.5 11.8 50.3 11.55 56.45 L11.55 56.55 11.55 56.6 Q11.45 57.9 10.75 59.25 L9.9 60.55 9.0 61.7 8.9 61.8 7.45 63.35 5.25 66.1 Q3.6 69.45 3.1 71.2 2.6 73.0 2.5 75.75 2.45 78.95 2.95 80.75 L3.4 81.9 5.05 84.1 6.65 85.9 9.7 89.15 Q10.55 89.95 11.95 92.45 13.2 94.65 15.0 96.05 15.8 96.65 18.4 97.45 L21.95 98.45 22.7 98.65 22.75 98.65 Q25.6 99.25 26.7 99.95 L26.9 100.1 38.65 100.9 41.2 101.0 41.85 101.0 49.85 101.05 50.1 100.3 51.45 96.5 51.6 96.05 52.85 92.65 Q53.35 91.55 53.8 90.9 L53.8 89.65 Q53.8 87.9 53.95 87.4 L54.0 87.35 Q52.25 87.1 51.5 86.65 L51.4 86.8 Q51.05 87.5 48.3 87.95 L37.25 87.45 36.5 87.35 35.3 86.8 Q34.6 86.45 34.25 85.3 L30.9 85.8 Q26.25 85.65 25.55 84.2 25.3 83.8 25.45 79.15 25.6 72.45 27.6 71.2 L29.0 71.0 29.85 71.25 Q31.5 71.3 34.05 72.25 L34.45 72.4 Q35.3 66.15 36.35 64.2 L36.55 63.95 36.3 63.55 38.2 61.25 Q41.6 57.35 43.5 56.25 L43.3 55.8 43.15 55.85 42.55 55.8 Q42.25 54.25 42.45 53.85 43.55 51.85 48.8 50.2 50.15 49.75 51.4 49.45 46.15 48.55 44.8 47.2 44.2 46.6 44.35 45.95 L44.7 45.4 Q44.85 44.1 49.4 42.0 54.2 39.75 57.1 40.1 L57.55 40.15 57.45 39.8 57.55 38.6 Q57.9 32.8 58.4 29.8 58.85 26.85 59.7 25.25 L59.65 24.0 59.8 23.15 M34.05 75.65 L34.05 75.55 34.2 74.2 33.95 74.1 Q30.8 73.3 29.75 73.25 L28.35 73.35 Q28.0 73.9 27.8 76.35 L27.75 77.2 27.7 78.85 27.6 81.55 27.6 82.8 27.65 83.8 Q28.05 82.95 28.75 83.25 L29.5 83.75 30.8 83.8 33.85 83.3 33.75 81.5 33.75 80.4 33.95 76.85 34.05 75.65 M38.05 66.5 L37.55 67.4 Q36.95 68.45 36.55 72.9 L36.4 74.7 36.35 75.2 36.25 76.55 36.25 76.6 36.1 79.85 36.1 80.9 36.15 82.75 36.45 84.55 36.85 85.15 Q39.0 86.05 49.7 84.9 L49.65 84.35 49.5 82.35 49.3 80.3 49.25 79.5 48.85 75.3 48.7 73.3 48.5 71.35 48.35 70.35 Q48.45 70.2 49.0 70.0 L47.2 65.95 44.3 58.3 40.05 62.45 39.25 63.25 38.05 66.5 M66.3 53.45 L64.95 52.75 Q63.1 51.85 61.55 51.45 L59.15 51.0 Q57.4 50.9 51.6 52.25 49.55 52.75 47.05 53.85 L44.9 55.0 45.55 56.0 45.6 56.05 45.55 56.1 45.75 56.6 Q47.15 61.15 48.0 62.5 L51.8 70.15 52.35 71.35 54.05 69.85 57.65 66.75 Q63.9 61.5 65.1 59.3 67.15 53.95 66.3 53.45 M51.35 73.25 L51.4 73.1 50.9 72.65 51.0 73.25 51.35 73.25 M62.55 84.4 L53.3 84.45 53.3 84.7 57.2 85.25 57.8 85.25 62.0 85.15 76.5 84.7 74.5 84.35 74.35 84.05 73.85 84.05 62.55 84.4 M55.8 118.7 Q55.65 118.55 56.25 117.95 57.2 117.0 58.45 116.55 60.35 115.95 61.6 117.0 L62.15 116.35 Q62.6 115.9 64.1 115.2 L65.95 113.95 Q66.4 113.5 68.25 112.35 L70.55 110.65 72.5 109.3 Q71.15 108.75 69.7 107.3 L67.85 105.25 67.8 105.1 67.75 105.15 Q66.9 105.9 61.8 107.8 56.2 109.9 53.4 109.5 L53.1 111.4 Q52.45 115.35 55.75 118.75 L56.0 119.0 Q56.95 119.95 59.75 121.55 L59.9 121.6 59.95 121.05 60.15 118.75 58.5 119.1 56.0 118.8 55.8 118.7 M89.15 119.25 L90.8 116.45 Q91.65 115.1 93.75 115.45 L93.65 112.95 93.1 109.6 92.95 108.55 84.65 107.9 84.6 119.55 86.0 119.55 89.15 119.6 89.2 119.6 89.5 119.6 89.15 119.25 M93.35 117.8 Q91.95 118.65 90.65 119.6 L94.15 119.7 93.35 117.8" fill="#000000" fill-rule="evenodd" stroke="none"/>
      <path d="M110.3 33.35 L91.2 30.9 87.8 30.45 83.85 30.0 79.55 29.55 79.1 29.5 Q76.4 29.3 76.05 29.5 L76.1 30.05 76.05 30.7 Q75.0 31.95 74.3 34.75 L72.85 41.2 Q70.7 49.35 64.75 48.7 L51.55 47.25 Q56.25 45.25 56.95 45.2 61.45 44.7 62.7 43.1 63.15 42.5 63.45 40.05 L64.05 33.95 64.8 27.9 Q65.05 26.3 65.45 24.8 L66.15 22.4 67.15 19.85 Q69.3 15.15 72.95 11.75 80.15 5.05 90.9 6.25 105.2 7.85 108.55 21.25 109.25 23.95 109.8 30.4 L109.85 30.55 Q110.0 32.35 110.3 33.35 M86.45 53.7 L86.25 53.6 82.25 53.15 81.35 52.1 81.05 51.55 Q80.5 50.2 80.35 48.4 L80.3 47.6 Q80.3 46.35 80.8 42.0 L80.85 41.55 81.15 39.0 81.4 36.4 81.55 32.3 81.6 32.25 81.8 31.8 86.0 32.4 89.0 32.8 90.0 32.9 90.5 33.0 90.5 33.05 91.5 33.25 91.95 33.2 Q93.2 33.15 93.85 34.3 L93.85 34.6 93.65 37.25 93.6 38.2 Q93.4 42.35 93.0 44.35 L91.85 49.5 91.6 50.1 90.35 52.05 89.9 52.6 Q88.65 53.85 86.65 53.75 L86.45 53.7 M71.9 75.2 L73.15 76.35 Q75.25 78.3 77.45 78.65 79.55 78.8 81.15 79.4 82.5 79.85 82.75 80.5 L83.2 80.65 83.2 81.0 83.2 81.6 82.55 81.4 82.25 81.75 Q81.7 81.35 79.65 80.6 L78.9 80.4 78.95 80.1 78.9 80.3 75.85 79.25 Q71.95 77.9 70.25 75.05 L70.55 75.05 71.7 75.2 71.9 75.2 M74.6 82.05 L70.7 81.95 65.3 79.6 65.2 79.55 57.95 76.05 53.45 75.45 52.85 75.4 58.85 75.6 59.3 75.6 59.9 75.75 65.8 78.2 74.6 81.6 74.6 82.05 M63.1 82.1 L61.5 82.2 61.0 82.2 60.1 82.25 60.05 82.25 58.3 81.6 Q55.25 80.55 54.25 80.45 L53.3 80.4 51.65 80.35 51.6 79.55 53.3 79.65 55.05 79.8 Q57.85 80.0 63.15 81.75 L63.1 82.1 M27.8 76.35 L27.95 76.35 33.25 75.85 34.05 75.65 33.95 76.85 27.75 77.2 27.8 76.35 M33.75 80.4 L33.75 81.5 27.6 82.8 27.6 81.55 29.85 81.5 32.8 80.65 33.75 80.4 M67.85 105.25 L69.7 107.3 Q71.15 108.75 72.5 109.3 L70.55 110.65 68.25 112.35 Q66.4 113.5 65.95 113.95 L64.1 115.2 Q62.6 115.9 62.15 116.35 L61.6 117.0 Q60.35 115.95 58.45 116.55 57.2 117.0 56.25 117.95 55.65 118.55 55.8 118.7 L55.75 118.75 Q52.45 115.35 53.1 111.4 L53.4 109.5 Q56.2 109.9 61.8 107.8 66.9 105.9 67.75 105.15 L67.85 105.25 M56.0 118.8 L58.5 119.1 60.15 118.75 59.95 121.05 59.75 121.55 Q56.95 119.95 56.0 119.0 L56.0 118.8 M89.15 119.6 L86.0 119.55 84.6 119.55 84.65 107.9 92.95 108.55 93.1 109.6 93.65 112.95 93.75 115.45 Q91.65 115.1 90.8 116.45 L89.15 119.25 89.15 119.6 M93.35 117.8 L94.15 119.7 90.65 119.6 Q91.95 118.65 93.35 117.8" fill="#372c22" fill-rule="evenodd" stroke="none"/>
      <path d="M97.25 38.75 L97.55 35.75 98.0 35.75 98.45 35.7 100.3 36.05 100.35 36.45 100.35 37.55 100.2 38.4 100.1 38.6 99.75 39.0 98.7 39.15 97.85 38.9 97.25 38.75" fill="#ffffff" fill-rule="evenodd" stroke="none"/>
      <path d="M97.85 38.9 L97.25 39.0 97.25 38.75 97.85 38.9 M110.35 67.15 L110.25 65.95 111.9 64.8 112.2 64.3 114.5 66.35 117.65 69.2 114.3 70.85 Q111.75 72.0 110.65 71.95 110.4 71.35 110.35 67.15 M50.05 96.3 L49.95 96.35 49.65 96.15 50.05 96.3 M8.8 85.15 L8.5 84.75 8.45 84.6 9.15 85.15 9.75 85.7 8.95 85.3 8.8 85.15" fill="#794d31" fill-rule="evenodd" stroke="none"/>
      <path d="M96.35 43.25 L96.6 43.1 103.55 42.45 106.25 42.55 109.0 42.75 108.6 45.05 107.65 48.05 106.6 50.0 Q104.35 53.25 100.2 53.15 L99.8 53.15 99.05 52.9 98.9 52.7 98.8 52.6 98.75 52.75 98.25 52.65 97.15 52.35 94.3 51.55 95.15 49.35 Q95.75 47.9 96.15 44.9 L96.3 43.55 96.35 43.25 M112.1 61.65 L111.65 61.7 110.65 61.6 Q110.65 64.0 107.4 64.0 106.0 64.0 103.15 60.25 101.0 57.45 100.4 55.45 L100.8 55.45 Q107.4 56.05 109.6 52.05 110.3 53.0 110.85 54.7 111.85 57.6 112.1 61.65 M119.45 71.1 Q119.9 72.15 119.9 73.55 L119.45 76.2 118.2 78.6 115.7 81.3 114.8 82.0 111.1 82.0 109.3 82.3 Q108.9 81.9 108.35 81.65 L107.1 81.3 107.15 81.0 106.65 80.55 105.65 78.1 Q104.15 73.9 104.15 72.25 L104.1 66.5 103.9 64.6 Q105.65 66.0 107.55 66.2 108.15 68.25 108.15 69.45 L108.2 72.15 Q108.7 74.2 110.9 74.2 L113.4 74.0 113.9 74.05 Q115.0 74.05 117.15 72.6 L119.2 70.85 119.45 71.1 M38.05 66.5 L39.25 63.25 40.05 62.45 44.3 58.3 47.2 65.95 49.0 70.0 Q48.45 70.2 48.35 70.35 L48.5 71.35 48.7 73.3 48.85 75.3 49.25 79.5 49.3 80.3 49.5 82.35 49.65 84.35 49.7 84.9 Q39.0 86.05 36.85 85.15 L36.45 84.55 36.15 82.75 36.1 80.9 36.1 79.85 36.25 76.6 36.25 76.55 36.35 75.2 36.4 74.7 36.55 72.9 Q36.95 68.45 37.55 67.4 L38.05 66.5" fill="#aa8a71" fill-rule="evenodd" stroke="none"/>
      <path d="M86.65 53.75 L86.5 53.75 86.45 53.7 86.65 53.75 M101.7 63.45 L101.65 65.85 102.65 75.7 103.05 77.25 102.0 76.35 100.4 75.05 Q99.75 74.1 98.6 73.7 L98.05 73.0 Q97.4 71.95 96.1 71.4 L96.3 70.8 97.45 67.45 97.95 67.25 98.4 65.6 98.95 62.85 99.6 59.85 100.15 60.5 101.85 62.5 101.7 63.45 M91.95 70.25 Q90.55 66.4 88.4 62.2 L90.1 61.25 Q91.3 60.5 91.3 60.0 L91.15 59.15 90.95 59.25 90.1 58.95 Q89.1 58.7 88.2 59.25 L87.9 59.45 87.25 59.9 87.3 58.85 86.85 55.35 90.45 55.65 92.05 54.65 Q92.65 56.45 93.75 58.65 94.1 59.4 94.1 61.8 94.1 63.95 92.4 68.95 L91.95 70.25 M84.1 55.45 L84.7 55.55 85.0 56.65 84.1 55.45 M81.95 56.55 L81.7 56.6 81.45 55.8 81.95 56.55 M73.35 51.45 L73.7 51.7 74.75 51.85 76.85 51.9 79.0 56.25 Q80.6 59.6 81.45 62.5 79.65 63.25 78.8 64.3 L79.35 64.8 80.55 65.0 81.95 64.7 82.25 66.9 82.35 67.9 81.8 69.4 Q81.8 70.2 82.1 70.35 L82.55 70.45 82.75 73.1 78.35 72.9 78.7 73.15 73.3 73.0 67.9 73.05 68.0 72.7 70.15 66.8 Q73.1 57.8 73.1 52.9 L73.1 52.25 73.1 51.65 73.25 51.5 73.35 51.45 M83.0 76.2 L82.85 76.2 82.9 75.85 82.95 75.85 83.0 76.2 M80.3 76.5 L80.05 76.2 80.25 76.2 80.3 76.5 M60.1 92.85 L64.5 92.6 64.95 92.55 67.5 92.4 82.25 91.75 81.9 93.8 Q81.85 95.4 81.0 99.7 L80.85 100.3 80.25 101.15 79.6 102.35 60.7 103.25 57.35 103.35 58.6 99.35 59.1 97.45 59.25 96.85 59.5 96.7 60.0 96.45 60.1 95.3 59.85 94.25 60.1 92.85 M62.55 84.4 L73.85 84.05 74.35 84.05 74.5 84.35 76.5 84.7 62.0 85.15 62.55 84.4" fill="#590000" fill-rule="evenodd" stroke="none"/>
      <path d="M119.45 71.1 L119.2 70.85 119.25 70.7 119.45 71.1" fill="#c6b19f" fill-rule="evenodd" stroke="none"/>
      <path d="M92.05 54.65 L92.15 54.55 94.1 54.85 94.2 54.95 95.2 57.45 95.7 58.65 96.45 60.25 96.4 60.9 96.35 61.2 96.3 61.35 Q96.3 64.85 94.3 69.55 L93.7 71.2 Q93.3 71.4 93.3 72.0 L93.35 72.35 93.15 73.1 93.05 73.65 91.95 70.25 92.4 68.95 Q94.1 63.95 94.1 61.8 94.1 59.4 93.75 58.65 92.65 56.45 92.05 54.65 M67.9 73.05 L53.6 73.25 53.7 72.55 60.45 67.55 Q64.85 63.95 66.9 60.15 69.05 56.2 68.4 53.5 68.1 52.25 67.25 51.35 L67.8 51.2 68.35 51.1 71.05 51.15 71.85 51.05 Q72.75 51.1 73.35 51.45 L73.25 51.5 73.1 51.65 73.1 52.25 73.1 52.9 Q73.1 57.8 70.15 66.8 L68.0 72.7 67.9 73.05 M57.35 103.35 L57.2 103.35 54.1 103.4 52.2 103.45 52.75 102.2 53.0 100.75 53.3 98.8 54.5 95.55 54.7 95.05 55.55 92.8 57.55 93.0 59.6 92.9 60.1 92.85 59.85 94.25 60.1 95.3 60.0 96.45 59.5 96.7 59.25 96.85 59.1 97.45 58.6 99.35 57.35 103.35 M66.3 53.45 Q67.15 53.95 65.1 59.3 63.9 61.5 57.65 66.75 L54.05 69.85 52.35 71.35 51.8 70.15 48.0 62.5 Q47.15 61.15 45.75 56.6 L45.55 56.1 45.6 56.05 45.55 56.0 44.9 55.0 47.05 53.85 Q49.55 52.75 51.6 52.25 57.4 50.9 59.15 51.0 L61.55 51.45 Q63.1 51.85 64.95 52.75 L66.3 53.45 M62.0 85.15 L57.8 85.25 57.2 85.25 53.3 84.7 53.3 84.45 62.55 84.4 62.0 85.15" fill="#800000" fill-rule="evenodd" stroke="none"/>
      <path d="M83.15 99.35 L84.0 93.9 84.35 91.65 84.7 89.1 84.95 86.95 85.2 84.45 85.2 84.15 Q85.3 79.25 84.95 74.4 L84.95 73.75 84.3 68.4 83.65 64.35 83.65 64.15 83.6 64.05 Q83.0 60.65 82.2 58.05 L81.7 56.6 81.95 56.55 83.95 59.45 Q86.2 62.95 88.0 66.85 89.55 70.25 90.7 73.9 L91.15 75.35 90.05 75.95 89.85 76.05 Q88.95 76.5 88.55 78.5 88.25 79.65 88.25 80.65 L88.2 83.15 88.6 84.15 Q89.35 85.5 91.35 85.6 L93.55 85.35 93.65 85.65 94.45 89.6 94.95 92.15 95.85 96.35 96.45 99.25 97.1 101.5 97.3 102.2 96.2 102.1 95.65 101.95 95.4 103.65 94.2 102.65 92.7 101.65 92.7 101.55 Q92.3 99.4 91.25 98.05 90.15 97.55 88.4 99.3 L86.05 101.95 85.65 102.4 85.6 102.0 Q85.45 101.25 84.5 100.3 L83.25 99.3 83.15 99.35 M91.35 106.25 L91.5 105.85 91.6 106.25 91.35 106.25 M90.4 106.15 L87.75 105.85 88.8 105.95 89.35 105.3 89.45 106.05 90.4 106.15" fill="#60606c" fill-rule="evenodd" stroke="none"/>
      <path d="M91.75 77.7 L91.8 77.85 91.85 77.95 92.0 77.6 92.6 77.5 94.6 77.6 95.35 77.75 95.25 79.95 94.3 81.6 93.95 82.05 92.35 83.0 90.4 83.35 Q90.15 83.05 90.25 80.9 90.05 79.6 90.6 78.65 91.0 77.95 91.75 77.7 M82.85 76.2 L83.0 76.2 83.2 80.65 82.75 80.5 Q82.5 79.85 81.15 79.4 79.55 78.8 77.45 78.65 75.25 78.3 73.15 76.35 L71.9 75.2 80.05 76.2 80.3 76.5 81.9 76.8 Q82.7 76.8 82.85 76.2 M83.2 81.6 L83.2 83.35 82.0 83.3 80.7 82.8 80.65 82.8 80.55 82.45 80.35 82.2 74.6 82.05 74.6 81.6 65.8 78.2 59.9 75.75 59.3 75.6 64.05 75.25 67.15 74.95 68.35 74.85 70.25 75.05 Q71.95 77.9 75.85 79.25 L78.9 80.3 78.95 80.1 78.9 80.4 79.65 80.6 Q81.7 81.35 82.25 81.75 L82.55 81.4 83.2 81.6 M70.7 81.95 L68.05 81.85 63.95 82.05 63.1 82.1 63.15 81.75 Q57.85 80.0 55.05 79.8 L53.3 79.65 51.6 79.55 51.45 77.85 51.2 75.35 52.85 75.4 53.45 75.45 57.95 76.05 65.2 79.55 65.3 79.6 70.7 81.95 M60.05 82.25 L53.3 82.4 51.75 82.4 51.65 80.35 53.3 80.4 54.25 80.45 Q55.25 80.55 58.3 81.6 L60.05 82.25 M27.8 76.35 Q28.0 73.9 28.35 73.35 L29.75 73.25 Q30.8 73.3 33.95 74.1 L34.2 74.2 34.05 75.55 34.05 75.65 33.25 75.85 27.95 76.35 27.8 76.35 M33.95 76.85 L33.75 80.4 32.8 80.65 29.85 81.5 27.6 81.55 27.7 78.85 27.75 77.2 33.95 76.85 M33.75 81.5 L33.85 83.3 30.8 83.8 29.5 83.75 28.75 83.25 Q28.05 82.95 27.65 83.8 L27.6 82.8 33.75 81.5" fill="#211b14" fill-rule="evenodd" stroke="none"/>
      <path d="M82.75 88.1 L82.6 89.2 71.8 89.5 69.05 89.6 66.2 89.75 62.45 90.15 61.35 90.35 55.8 90.8 56.05 87.5 57.55 87.5 63.25 87.5 67.4 87.45 70.2 87.45 82.9 87.05 82.75 88.1" fill="#332d26" fill-rule="evenodd" stroke="none"/>
      <path d="M51.6 96.05 L51.45 96.5 50.1 100.3 49.85 101.05 41.85 101.0 41.2 101.0 38.65 100.9 26.9 100.1 26.7 99.95 Q25.6 99.25 22.75 98.65 L22.7 98.65 21.95 98.45 18.4 97.45 Q15.8 96.65 15.0 96.05 13.2 94.65 11.95 92.45 10.55 89.95 9.7 89.15 L6.65 85.9 5.05 84.1 3.4 81.9 2.95 80.75 Q2.45 78.95 2.5 75.75 2.6 73.0 3.1 71.2 3.6 69.45 5.25 66.1 L7.45 63.35 8.9 61.8 9.0 61.7 9.9 60.55 10.75 59.25 Q11.45 57.9 11.55 56.6 L11.55 56.55 11.55 56.45 Q11.8 50.3 13.1 46.5 14.9 41.15 19.6 36.45 23.5 32.6 32.2 27.6 L39.8 23.5 44.5 21.1 46.95 20.45 Q49.9 19.6 52.0 19.3 L55.25 19.15 60.5 20.55 59.8 23.15 Q56.9 22.25 53.0 22.65 L52.2 23.0 48.15 24.4 41.35 26.6 37.6 28.75 33.35 31.15 32.7 31.55 Q27.2 34.85 24.05 38.4 22.6 40.05 21.05 42.4 L19.35 45.4 Q17.55 48.7 16.35 52.7 15.0 57.0 14.95 60.3 L14.85 61.2 14.75 62.35 14.65 62.65 14.35 64.05 14.0 64.9 12.65 66.2 10.8 67.45 10.15 68.25 Q8.15 70.55 7.85 71.3 7.6 71.85 7.55 74.7 7.5 76.5 7.85 77.95 L8.55 79.85 8.6 79.9 8.45 80.7 10.5 82.35 10.9 82.65 12.15 83.85 15.85 86.6 16.8 87.5 Q19.1 89.95 19.05 91.6 L20.1 92.2 22.15 93.8 26.4 94.45 31.1 94.8 37.6 95.25 41.55 95.4 43.4 95.4 43.9 95.4 43.95 95.4 Q48.1 95.45 49.65 96.15 L49.95 96.35 50.05 96.3 51.6 96.05 M8.8 85.15 L8.95 85.3 9.75 85.7 9.15 85.15 8.45 84.6 8.5 84.75 8.8 85.15" fill="#925e3a" fill-rule="evenodd" stroke="none"/>
      <path d="M51.6 96.05 L50.05 96.3 49.65 96.15 Q48.1 95.45 43.95 95.4 L43.9 95.4 43.4 95.4 41.55 95.4 37.6 95.25 31.1 94.8 26.4 94.45 22.15 93.8 20.1 92.2 19.05 91.6 Q19.1 89.95 16.8 87.5 L15.85 86.6 12.15 83.85 10.9 82.65 10.5 82.35 8.45 80.7 8.6 79.9 8.55 79.85 7.85 77.95 Q7.5 76.5 7.55 74.7 7.6 71.85 7.85 71.3 8.15 70.55 10.15 68.25 L10.8 67.45 12.65 66.2 14.0 64.9 14.35 64.05 14.65 62.65 14.75 62.35 14.85 61.2 14.95 60.3 Q15.0 57.0 16.35 52.7 17.55 48.7 19.35 45.4 L21.05 42.4 Q22.6 40.05 24.05 38.4 27.2 34.85 32.7 31.55 L33.35 31.15 37.6 28.75 41.35 26.6 48.15 24.4 52.2 23.0 53.0 22.65 Q56.9 22.25 59.8 23.15 L59.65 24.0 59.7 25.25 Q58.85 26.85 58.4 29.8 57.9 32.8 57.55 38.6 L57.45 39.8 57.55 40.15 57.1 40.1 Q54.2 39.75 49.4 42.0 44.85 44.1 44.7 45.4 L44.35 45.95 Q44.2 46.6 44.8 47.2 46.15 48.55 51.4 49.45 50.15 49.75 48.8 50.2 43.55 51.85 42.45 53.85 42.25 54.25 42.55 55.8 L43.15 55.85 43.3 55.8 43.5 56.25 Q41.6 57.35 38.2 61.25 L36.3 63.55 36.55 63.95 36.35 64.2 Q35.3 66.15 34.45 72.4 L34.05 72.25 Q31.5 71.3 29.85 71.25 L29.0 71.0 27.6 71.2 Q25.6 72.45 25.45 79.15 25.3 83.8 25.55 84.2 26.25 85.65 30.9 85.8 L34.25 85.3 Q34.6 86.45 35.3 86.8 L36.5 87.35 37.25 87.45 48.3 87.95 Q51.05 87.5 51.4 86.8 L51.5 86.65 Q52.25 87.1 54.0 87.35 L53.95 87.4 Q53.8 87.9 53.8 89.65 L53.8 90.9 Q53.35 91.55 52.85 92.65 L51.6 96.05 M51.35 73.25 L51.0 73.25 50.9 72.65 51.4 73.1 51.35 73.25" fill="#6a442b" fill-rule="evenodd" stroke="none"/>
      <path d="M83.15 99.35 L83.25 99.3 84.5 100.3 Q85.45 101.25 85.6 102.0 L85.65 102.4 86.05 101.95 88.4 99.3 Q90.15 97.55 91.25 98.05 92.3 99.4 92.7 101.55 L92.7 101.65 94.2 102.65 95.4 103.65 95.65 101.95 96.2 102.1 97.3 102.2 97.65 103.45 97.75 103.8 98.6 105.7 96.6 106.0 94.75 106.2 92.9 106.3 92.75 106.3 92.65 106.3 92.15 106.25 91.6 106.25 91.5 105.85 91.35 106.25 90.4 106.15 89.45 106.05 89.35 105.3 88.8 105.95 87.75 105.85 82.65 104.6 82.5 104.55 82.0 104.4 82.6 102.15 82.6 102.0 Q83.2 101.0 83.2 100.4 L83.1 99.6 83.15 99.35" fill="#414149" fill-rule="evenodd" stroke="none"/>
    </g>
    <g id="shape7" transform="matrix(1.0, 0.0, 0.0, 1.0, -509.5, -112.0)">
      <path d="M512.4 199.55 L512.55 199.7 512.55 201.05 512.4 201.05 512.4 199.55" fill="#473a29" fill-rule="evenodd" stroke="none"/>
      <path d="M561.15 203.9 Q567.0 200.65 572.05 195.7 586.6 181.45 586.6 161.25 586.6 141.05 572.05 126.75 557.45 112.5 536.85 112.5 521.8 112.5 510.0 120.1" fill="none" stroke="#25211f" stroke-linecap="round" stroke-linejoin="round" stroke-opacity="0.0" stroke-width="1.0"/>
    </g>
    <g id="sprite2" transform="matrix(1.0, 0.0, 0.0, 1.0, 52.0, 9.05)">
      <filter id="filter7">
        <feColorMatrix in="SourceGraphic" result="filterResult12" type="matrix" values="0 0 0 0 1.0,0 0 0 0 0.0,0 0 0 0 0.0,0 0 0 1 0"/>
        <feConvolveMatrix divisor="25.0" in="filterResult12" kernelMatrix="1 1 1 1 1 1 1 1 1 1 1 1 1 1 1 1 1 1 1 1 1 1 1 1 1" order="5 5" result="filterResult13"/>
        <feComposite in="SourceGraphic" in2="filterResult13" operator="over" result="filterResult14"/>
      </filter>
      <use ffdec:characterId="891" filter="url(#filter7)" height="19.55" transform="matrix(1.0, 0.0, 0.0, 1.0, -52.0, -9.05)" width="104.0" xlink:href="#text1"/>
    </g>
    <g id="text1" transform="matrix(1.0, 0.0, 0.0, 1.0, 2.0, 2.0)">
      <g transform="matrix(1.0, 0.0, 0.0, 1.0, -2.0, -2.0)">
        <use fill="#cd9e3f" height="19.55" transform="matrix(0.0117, 0.0, 0.0, 0.0117, 34.15, 9.6)" width="104.0" xlink:href="#font_Lithos_Pro_Regular_N0"/>
        <use fill="#cd9e3f" height="19.55" transform="matrix(0.0117, 0.0, 0.0, 0.0117, 44.9, 9.6)" width="104.0" xlink:href="#font_Lithos_Pro_Regular_E0"/>
        <use fill="#cd9e3f" height="19.55" transform="matrix(0.0117, 0.0, 0.0, 0.0117, 52.35, 9.6)" width="104.0" xlink:href="#font_Lithos_Pro_Regular_X0"/>
        <use fill="#cd9e3f" height="19.55" transform="matrix(0.0117, 0.0, 0.0, 0.0117, 61.95, 9.6)" width="104.0" xlink:href="#font_Lithos_Pro_Regular_T0"/>
      </g>
    </g>
    <g id="font_Lithos_Pro_Regular_N0">
      <path d="M284.5 7.5 L284.5 7.5 75.5 0.0 Q77.0 -19.0 80.0 -70.0 83.0 -121.0 86.5 -192.0 90.5 -263.5 94.5 -343.0 98.5 -422.5 103.0 -499.0 107.0 -575.0 110.5 -637.0 114.5 -698.5 117.0 -733.5 L127.0 -739.5 Q171.5 -707.0 232.5 -661.5 293.5 -616.0 359.0 -566.5 425.0 -517.5 484.0 -472.5 543.0 -428.0 584.0 -397.0 625.5 -366.0 637.0 -357.5 637.0 -375.0 637.0 -413.5 636.5 -452.0 636.0 -501.0 635.5 -549.5 635.5 -597.5 635.0 -645.0 635.0 -681.5 634.5 -718.0 635.0 -732.0 L844.0 -726.0 Q841.0 -685.5 837.0 -625.0 833.0 -564.5 828.5 -492.5 824.0 -420.0 819.0 -345.0 815.0 -270.0 811.0 -200.5 807.5 -131.0 805.0 -74.5 802.0 -18.5 800.5 15.5 L790.5 20.5 Q752.5 -4.5 692.0 -49.0 631.5 -93.5 563.0 -146.0 494.5 -198.5 432.5 -246.5 370.5 -295.0 329.5 -327.5 288.0 -360.0 282.5 -364.5 282.5 -351.0 282.5 -313.0 282.5 -275.0 283.0 -225.0 283.0 -175.5 283.5 -126.0 283.5 -76.5 284.0 -40.0 284.0 -3.5 284.5 7.5" fill-rule="evenodd" stroke="none"/>
    </g>
    <g id="font_Lithos_Pro_Regular_E0">
      <path d="M563.0 -165.5 L563.0 -165.5 567.0 10.5 Q557.0 10.5 524.0 9.5 490.5 9.0 443.5 8.0 396.0 6.5 343.5 5.5 291.0 4.0 242.0 3.0 193.5 1.5 157.5 1.0 121.5 0.0 107.5 0.0 108.5 -17.0 109.0 -49.5 109.5 -82.0 110.0 -121.0 110.0 -160.0 110.5 -197.5 110.5 -234.5 110.5 -261.5 110.5 -288.0 110.5 -296.0 L110.5 -433.0 Q110.5 -439.0 110.5 -467.0 110.0 -495.0 109.5 -535.0 109.5 -574.5 109.0 -615.5 108.5 -656.0 108.0 -686.5 108.0 -717.0 107.5 -727.0 126.0 -727.0 171.5 -728.5 217.0 -730.0 276.0 -732.5 334.5 -735.0 392.0 -737.5 449.5 -740.0 492.0 -742.5 534.0 -744.5 546.5 -745.5 L550.5 -575.5 Q535.5 -575.5 503.0 -574.5 471.0 -574.0 434.5 -573.0 398.5 -572.0 370.0 -571.0 341.5 -570.5 333.5 -570.5 L333.5 -435.0 Q342.0 -435.0 364.5 -436.0 387.0 -436.5 416.0 -438.0 445.0 -439.5 472.0 -441.0 499.0 -442.5 517.0 -444.0 L520.0 -280.5 Q508.5 -280.5 482.0 -281.0 456.0 -282.0 424.5 -282.5 393.5 -283.5 368.0 -284.0 343.0 -284.5 333.5 -284.5 L333.5 -163.5 Q344.5 -163.5 374.0 -163.0 403.0 -163.0 440.0 -163.0 477.0 -163.0 510.5 -163.5 544.0 -164.0 563.0 -165.5" fill-rule="evenodd" stroke="none"/>
    </g>
    <g id="font_Lithos_Pro_Regular_X0">
      <path d="M183.0 41.0 L183.0 41.0 26.5 -116.0 Q33.0 -123.0 55.0 -147.5 77.5 -171.5 108.5 -205.0 139.5 -238.0 171.0 -272.0 202.5 -306.0 227.0 -332.5 251.5 -359.0 261.0 -370.0 240.5 -392.0 208.0 -428.0 175.5 -464.0 141.5 -502.0 107.0 -540.0 81.5 -568.5 55.5 -597.0 49.0 -604.5 L224.0 -764.0 Q241.5 -742.0 269.0 -707.0 296.5 -671.5 326.0 -633.0 356.0 -595.0 380.5 -564.0 405.5 -533.0 416.5 -519.5 428.0 -533.0 454.0 -564.5 480.0 -595.5 512.5 -634.5 544.5 -673.0 573.5 -708.0 602.5 -743.0 619.5 -764.0 L783.5 -612.5 Q773.0 -601.5 740.5 -569.0 708.5 -537.0 669.0 -497.5 629.5 -458.0 596.5 -425.0 564.0 -392.5 553.0 -380.0 564.5 -367.5 589.5 -340.5 615.0 -313.5 646.0 -279.5 677.5 -245.0 707.5 -212.0 738.0 -179.0 760.0 -155.0 782.0 -131.0 788.5 -124.0 L614.5 39.0 Q601.0 22.5 571.0 -14.0 541.5 -50.5 506.5 -93.5 471.5 -136.5 441.5 -173.5 411.5 -210.0 397.5 -227.5 390.0 -219.0 368.5 -192.5 347.0 -165.5 318.5 -129.5 290.5 -93.5 262.0 -57.5 233.5 -21.5 212.0 5.0 190.5 32.0 183.0 41.0" fill-rule="evenodd" stroke="none"/>
    </g>
    <g id="font_Lithos_Pro_Regular_T0">
      <path d="M456.5 0.0 L456.5 0.0 220.0 0.0 Q220.5 -10.5 221.5 -40.0 222.0 -69.5 222.5 -110.0 222.5 -151.0 223.0 -196.5 223.0 -241.5 223.0 -284.0 L223.0 -553.0 Q204.0 -553.0 171.5 -552.0 139.0 -551.5 103.5 -550.5 67.5 -549.0 38.5 -548.5 9.5 -547.5 -3.5 -547.0 L-3.5 -726.0 Q11.5 -724.5 44.5 -723.5 77.5 -722.5 119.0 -721.5 160.5 -720.5 199.5 -719.5 239.0 -718.5 265.5 -718.0 292.5 -718.0 297.0 -718.0 L386.0 -718.0 Q392.5 -718.0 419.0 -718.0 445.5 -718.5 483.0 -719.5 520.5 -720.5 559.5 -721.5 599.0 -722.5 631.0 -723.5 663.0 -724.5 678.5 -726.0 L678.5 -547.0 Q672.0 -547.0 649.5 -548.0 626.5 -548.5 595.5 -549.5 565.0 -550.5 534.0 -551.0 503.5 -552.0 481.5 -552.5 459.0 -553.0 453.5 -553.0 L453.5 -268.0 Q453.5 -227.5 453.5 -184.5 454.0 -141.0 454.0 -102.0 454.5 -63.0 455.0 -35.5 456.0 -8.5 456.5 0.0" fill-rule="evenodd" stroke="none"/>
    </g>
    <g id="text2" transform="matrix(1.0, 0.0, 0.0, 1.0, 2.0, 2.0)">
      <g transform="matrix(1.0, 0.0, 0.0, 1.0, -2.0, -2.0)">
        <use fill="#cd9e3f" height="22.15" transform="matrix(0.0137, 0.0, 0.0, 0.0137, 98.25, 15.5)" width="262.0" xlink:href="#font_Lithos_Pro_Regular_S0"/>
        <use fill="#cd9e3f" height="22.15" transform="matrix(0.0137, 0.0, 0.0, 0.0137, 105.9, 15.5)" width="262.0" xlink:href="#font_Lithos_Pro_Regular_O0"/>
        <use fill="#cd9e3f" height="22.15" transform="matrix(0.0137, 0.0, 0.0, 0.0137, 118.3, 15.5)" width="262.0" xlink:href="#font_Lithos_Pro_Regular_L0"/>
        <use fill="#cd9e3f" height="22.15" transform="matrix(0.0137, 0.0, 0.0, 0.0137, 126.5, 15.5)" width="262.0" xlink:href="#font_Lithos_Pro_Regular_D0"/>
        <use fill="#cd9e3f" height="22.15" transform="matrix(0.0137, 0.0, 0.0, 0.0137, 138.0, 15.5)" width="262.0" xlink:href="#font_Lithos_Pro_Regular_I0"/>
        <use fill="#cd9e3f" height="22.15" transform="matrix(0.0137, 0.0, 0.0, 0.0137, 144.2, 15.5)" width="262.0" xlink:href="#font_Lithos_Pro_Regular_E0"/>
        <use fill="#cd9e3f" height="22.15" transform="matrix(0.0137, 0.0, 0.0, 0.0137, 152.9, 15.5)" width="262.0" xlink:href="#font_Lithos_Pro_Regular_R0"/>
      </g>
    </g>
    <g id="font_Lithos_Pro_Regular_S0">
      <path d="M95.5 18.5 L95.5 18.5 67.5 -156.5 Q118.5 -155.0 165.5 -163.5 213.0 -171.5 244.0 -188.5 274.5 -205.0 275.5 -229.5 276.0 -239.0 268.0 -248.5 260.0 -258.0 238.0 -272.0 216.0 -286.0 175.0 -309.0 142.0 -327.5 110.0 -351.5 78.5 -376.0 57.5 -408.0 36.5 -440.5 35.5 -483.5 36.0 -541.5 84.5 -597.5 133.5 -653.0 225.5 -693.0 317.5 -733.0 447.5 -745.5 L475.0 -574.5 Q379.0 -574.5 330.5 -558.5 282.5 -542.5 282.5 -511.0 282.5 -493.5 307.0 -477.5 332.0 -462.0 382.0 -438.5 410.5 -425.0 443.0 -404.0 476.0 -383.0 499.5 -351.0 523.5 -319.0 524.5 -273.5 524.5 -230.5 501.0 -185.5 477.5 -140.0 426.5 -98.5 375.5 -57.5 294.0 -26.5 212.0 4.5 95.5 18.5" fill-rule="evenodd" stroke="none"/>
    </g>
    <g id="font_Lithos_Pro_Regular_O0">
      <path d="M447.5 -142.0 L447.5 -142.0 Q531.5 -142.5 580.5 -201.5 629.5 -261.0 631.5 -376.0 631.5 -475.5 589.5 -530.0 547.5 -584.5 473.0 -585.0 414.5 -584.0 374.0 -551.5 333.5 -519.0 312.0 -466.0 291.0 -412.5 291.0 -349.0 291.5 -280.5 313.0 -234.5 334.0 -188.5 369.5 -165.0 405.0 -142.0 447.5 -142.0 M436.0 16.5 L436.0 16.5 Q334.0 15.5 259.0 -15.0 184.5 -46.0 136.0 -97.0 88.0 -148.0 64.5 -210.0 41.0 -271.5 41.0 -334.0 41.0 -409.0 68.0 -481.5 95.5 -553.5 150.5 -613.0 205.5 -672.0 289.5 -707.5 373.0 -742.5 486.5 -743.5 608.5 -743.0 697.5 -700.0 786.0 -657.0 834.0 -576.5 882.0 -496.0 882.5 -383.0 882.5 -336.0 869.0 -282.0 855.0 -228.0 824.0 -175.0 793.0 -122.5 741.5 -79.0 689.5 -35.5 614.0 -10.0 539.0 16.0 436.0 16.5" fill-rule="evenodd" stroke="none"/>
    </g>
    <g id="font_Lithos_Pro_Regular_L0">
      <path d="M106.5 -726.0 L106.5 -726.0 346.0 -726.0 Q345.5 -716.0 345.0 -677.5 344.0 -639.0 343.0 -584.0 342.0 -529.0 341.5 -471.0 341.0 -412.5 341.0 -363.0 L341.0 -176.0 Q350.5 -176.0 375.5 -176.0 400.0 -176.0 433.0 -176.5 466.5 -177.0 501.5 -177.5 537.0 -178.5 568.5 -180.0 L569.5 10.5 Q560.5 10.5 519.5 9.5 478.5 8.5 419.5 7.0 361.0 5.5 298.5 3.5 236.0 2.0 184.5 1.0 133.5 0.0 107.5 0.0 108.5 -17.0 109.0 -49.5 109.5 -82.0 110.0 -121.0 110.0 -160.5 110.5 -198.0 110.5 -235.5 110.5 -262.5 110.5 -289.5 110.5 -297.5 L110.5 -433.5 Q110.5 -439.5 110.5 -468.5 110.0 -497.5 109.5 -538.0 109.5 -578.5 109.0 -619.5 108.5 -660.0 107.5 -689.5 107.0 -719.0 106.5 -726.0" fill-rule="evenodd" stroke="none"/>
    </g>
    <g id="font_Lithos_Pro_Regular_D0">
      <path d="M336.0 -562.0 L336.0 -562.0 336.0 -181.0 Q374.0 -187.0 415.5 -204.0 457.0 -221.0 493.0 -249.5 529.0 -278.0 551.5 -318.5 574.0 -359.5 574.5 -413.0 573.5 -472.5 538.5 -505.0 503.5 -537.5 449.0 -550.0 395.0 -562.5 336.0 -562.0 M110.5 -323.0 L110.5 -323.0 110.5 -449.5 Q110.5 -457.0 110.5 -484.0 110.5 -511.0 110.0 -548.0 109.5 -585.0 109.0 -622.5 108.5 -660.0 107.5 -688.0 106.5 -716.5 105.5 -726.0 199.0 -726.0 270.0 -724.0 341.0 -722.5 396.5 -718.0 451.5 -714.0 499.0 -707.5 598.5 -693.0 661.5 -663.0 725.0 -633.0 759.0 -595.5 793.0 -557.5 806.0 -519.0 818.5 -480.5 818.0 -448.5 817.0 -352.0 775.5 -278.0 734.0 -203.5 662.0 -150.0 590.0 -96.5 498.5 -62.0 407.0 -27.5 305.5 -11.5 204.5 5.0 104.5 5.0 105.5 -10.0 106.5 -44.5 107.5 -79.0 108.5 -123.0 109.0 -166.5 109.5 -209.0 110.0 -252.0 110.5 -283.0 110.5 -314.0 110.5 -323.0" fill-rule="evenodd" stroke="none"/>
    </g>
    <g id="font_Lithos_Pro_Regular_I0">
      <path d="M341.0 -419.0 L341.0 -419.0 341.0 -309.0 Q341.0 -269.5 341.5 -220.5 342.0 -172.0 342.5 -125.0 343.5 -78.0 344.0 -44.0 344.5 -10.0 345.0 0.0 L107.5 0.0 Q108.0 -14.5 108.5 -47.0 109.0 -80.0 109.5 -121.0 110.0 -162.5 110.0 -203.0 110.5 -243.0 110.5 -272.5 110.5 -302.0 110.5 -311.0 L110.5 -421.5 Q110.5 -427.5 110.0 -457.5 110.0 -487.0 109.5 -529.0 109.0 -571.0 108.5 -613.0 108.0 -655.5 108.0 -686.5 107.5 -717.5 107.5 -726.0 L345.0 -726.0 Q344.5 -718.5 344.0 -687.5 343.5 -656.5 342.5 -611.5 342.0 -566.5 341.5 -516.5 341.0 -466.0 341.0 -419.0" fill-rule="evenodd" stroke="none"/>
    </g>
    <g id="font_Lithos_Pro_Regular_R0">
      <path d="M333.5 -584.5 L333.5 -584.5 333.5 -312.5 Q333.5 -300.0 334.0 -267.0 334.0 -233.5 334.5 -190.5 335.0 -147.0 336.0 -105.5 336.5 -64.0 337.5 -34.5 338.0 -5.5 338.5 0.0 L110.5 0.0 Q111.5 -8.5 112.5 -46.0 113.0 -83.0 113.0 -134.5 113.0 -186.0 113.0 -237.5 113.0 -289.0 112.5 -325.5 112.5 -362.5 112.5 -370.0 L112.5 -454.0 Q112.5 -464.0 112.5 -492.0 112.0 -520.0 111.5 -557.0 111.0 -594.0 110.5 -630.5 110.0 -667.0 109.0 -693.0 108.5 -719.5 107.5 -726.0 178.0 -726.0 246.5 -725.0 314.5 -724.0 375.0 -721.0 435.5 -717.5 482.0 -711.5 596.0 -697.0 655.5 -653.0 715.0 -609.5 715.5 -538.5 714.5 -476.0 679.5 -426.0 644.0 -376.0 583.5 -334.0 596.0 -320.0 626.0 -289.0 656.0 -257.5 692.0 -220.5 727.5 -183.5 757.0 -152.5 786.5 -121.5 797.5 -108.5 L610.0 32.5 Q602.5 20.0 577.5 -16.5 553.0 -53.0 520.0 -101.5 486.5 -150.5 453.5 -199.5 420.0 -248.5 394.5 -286.0 369.0 -324.0 360.0 -338.5 383.5 -351.5 410.5 -374.0 438.0 -396.5 457.5 -426.0 477.0 -455.0 478.0 -489.5 478.5 -514.0 465.0 -535.5 452.0 -556.5 420.0 -570.0 388.5 -583.5 333.5 -584.5" fill-rule="evenodd" stroke="none"/>
    </g>
    <g id="text3" transform="matrix(1.0, 0.0, 0.0, 1.0, 2.0, 2.0)">
      <g transform="matrix(1.0, 0.0, 0.0, 1.0, -2.0, -2.0)">
        <use fill="#cd9e3f" height="42.3" transform="matrix(0.0117, 0.0, 0.0, 0.0117, 0.0, 9.05)" width="256.5" xlink:href="#font_Lithos_Pro_Regular_C0"/>
        <use fill="#cd9e3f" height="42.3" transform="matrix(0.0117, 0.0, 0.0, 0.0117, 7.9, 9.05)" width="256.5" xlink:href="#font_Lithos_Pro_Regular_e0"/>
        <use fill="#cd9e3f" height="42.3" transform="matrix(0.0117, 0.0, 0.0, 0.0117, 14.25, 9.05)" width="256.5" xlink:href="#font_Lithos_Pro_Regular_a0"/>
        <use fill="#cd9e3f" height="42.3" transform="matrix(0.0117, 0.0, 0.0, 0.0117, 22.75, 9.05)" width="256.5" xlink:href="#font_Lithos_Pro_Regular_s0"/>
        <use fill="#cd9e3f" height="42.3" transform="matrix(0.0117, 0.0, 0.0, 0.0117, 28.5, 9.05)" width="256.5" xlink:href="#font_Lithos_Pro_Regular_a0"/>
        <use fill="#cd9e3f" height="42.3" transform="matrix(0.0117, 0.0, 0.0, 0.0117, 37.0, 9.05)" width="256.5" xlink:href="#font_Lithos_Pro_Regular_r0"/>
        <use fill="#cd9e3f" height="42.3" transform="matrix(0.0117, 0.0, 0.0, 0.0117, 44.4, 9.05)" width="256.5" xlink:href="#font_Lithos_Pro_Regular__0"/>
      </g>
      <g transform="matrix(1.0, 0.0, 0.0, 1.0, -2.0, -2.0)">
        <use fill="#cd9e3f" height="42.3" transform="matrix(0.0117, 0.0, 0.0, 0.0117, 51.25, 9.05)" width="256.5" xlink:href="#font_Lithos_Pro_Regular_t0"/>
        <use fill="#cd9e3f" height="42.3" transform="matrix(0.0117, 0.0, 0.0, 0.0117, 58.05, 9.05)" width="256.5" xlink:href="#font_Lithos_Pro_Regular_h0"/>
        <use fill="#cd9e3f" height="42.3" transform="matrix(0.0117, 0.0, 0.0, 0.0117, 67.95, 9.05)" width="256.5" xlink:href="#font_Lithos_Pro_Regular_a0"/>
        <use fill="#cd9e3f" height="42.3" transform="matrix(0.0117, 0.0, 0.0, 0.0117, 76.45, 9.05)" width="256.5" xlink:href="#font_Lithos_Pro_Regular_n0"/>
        <use fill="#cd9e3f" height="42.3" transform="matrix(0.0117, 0.0, 0.0, 0.0117, 86.1, 9.05)" width="256.5" xlink:href="#font_Lithos_Pro_Regular_k0"/>
      </g>
      <g transform="matrix(1.0, 0.0, 0.0, 1.0, -2.0, -2.0)">
        <use fill="#cd9e3f" height="42.3" transform="matrix(0.0117, 0.0, 0.0, 0.0117, 97.6, 9.05)" width="256.5" xlink:href="#font_Lithos_Pro_Regular_g0"/>
        <use fill="#cd9e3f" height="42.3" transform="matrix(0.0117, 0.0, 0.0, 0.0117, 105.5, 9.05)" width="256.5" xlink:href="#font_Lithos_Pro_Regular_o0"/>
        <use fill="#cd9e3f" height="42.3" transform="matrix(0.0117, 0.0, 0.0, 0.0117, 114.35, 9.05)" width="256.5" xlink:href="#font_Lithos_Pro_Regular_d0"/>
      </g>
      <g transform="matrix(1.0, 0.0, 0.0, 1.0, -2.0, -2.0)">
        <use fill="#cd9e3f" height="42.3" transform="matrix(0.0117, 0.0, 0.0, 0.0117, 126.6, 9.05)" width="256.5" xlink:href="#font_Lithos_Pro_Regular_y0"/>
        <use fill="#cd9e3f" height="42.3" transform="matrix(0.0117, 0.0, 0.0, 0.0117, 131.75, 9.05)" width="256.5" xlink:href="#font_Lithos_Pro_Regular_o0"/>
        <use fill="#cd9e3f" height="42.3" transform="matrix(0.0117, 0.0, 0.0, 0.0117, 140.6, 9.05)" width="256.5" xlink:href="#font_Lithos_Pro_Regular_u0"/>
      </g>
      <g transform="matrix(1.0, 0.0, 0.0, 1.0, -2.0, -2.0)">
        <use fill="#cd9e3f" height="42.3" transform="matrix(0.0117, 0.0, 0.0, 0.0117, 153.1, 9.05)" width="256.5" xlink:href="#font_Lithos_Pro_Regular_a0"/>
        <use fill="#cd9e3f" height="42.3" transform="matrix(0.0117, 0.0, 0.0, 0.0117, 161.6, 9.05)" width="256.5" xlink:href="#font_Lithos_Pro_Regular_r0"/>
        <use fill="#cd9e3f" height="42.3" transform="matrix(0.0117, 0.0, 0.0, 0.0117, 169.0, 9.05)" width="256.5" xlink:href="#font_Lithos_Pro_Regular_r0"/>
        <use fill="#cd9e3f" height="42.3" transform="matrix(0.0117, 0.0, 0.0, 0.0117, 176.4, 9.05)" width="256.5" xlink:href="#font_Lithos_Pro_Regular_i0"/>
        <use fill="#cd9e3f" height="42.3" transform="matrix(0.0117, 0.0, 0.0, 0.0117, 180.6, 9.05)" width="256.5" xlink:href="#font_Lithos_Pro_Regular_v0"/>
        <use fill="#cd9e3f" height="42.3" transform="matrix(0.0117, 0.0, 0.0, 0.0117, 188.45, 9.05)" width="256.5" xlink:href="#font_Lithos_Pro_Regular_e0"/>
        <use fill="#cd9e3f" height="42.3" transform="matrix(0.0117, 0.0, 0.0, 0.0117, 194.8, 9.05)" width="256.5" xlink:href="#font_Lithos_Pro_Regular_d0"/>
      </g>
      <g transform="matrix(1.0, 0.0, 0.0, 1.0, -2.0, -2.0)">
        <use fill="#cd9e3f" height="42.3" transform="matrix(0.0117, 0.0, 0.0, 0.0117, 0.0, 21.15)" width="256.5" xlink:href="#font_Lithos_Pro_Regular_T1"/>
        <use fill="#cd9e3f" height="42.3" transform="matrix(0.0117, 0.0, 0.0, 0.0117, 7.8, 21.15)" width="256.5" xlink:href="#font_Lithos_Pro_Regular_h0"/>
        <use fill="#cd9e3f" height="42.3" transform="matrix(0.0117, 0.0, 0.0, 0.0117, 17.7, 21.15)" width="256.5" xlink:href="#font_Lithos_Pro_Regular_e0"/>
        <use fill="#cd9e3f" height="42.3" transform="matrix(0.0117, 0.0, 0.0, 0.0117, 24.05, 21.15)" width="256.5" xlink:href="#font_Lithos_Pro_Regular_y0"/>
      </g>
      <g transform="matrix(1.0, 0.0, 0.0, 1.0, -2.0, -2.0)">
        <use fill="#cd9e3f" height="42.3" transform="matrix(0.0117, 0.0, 0.0, 0.0117, 34.65, 21.15)" width="256.5" xlink:href="#font_Lithos_Pro_Regular_h0"/>
        <use fill="#cd9e3f" height="42.3" transform="matrix(0.0117, 0.0, 0.0, 0.0117, 44.55, 21.15)" width="256.5" xlink:href="#font_Lithos_Pro_Regular_a0"/>
        <use fill="#cd9e3f" height="42.3" transform="matrix(0.0117, 0.0, 0.0, 0.0117, 50.05, 21.15)" width="256.5" xlink:href="#font_Lithos_Pro_Regular_v0"/>
        <use fill="#cd9e3f" height="42.3" transform="matrix(0.0117, 0.0, 0.0, 0.0117, 57.9, 21.15)" width="256.5" xlink:href="#font_Lithos_Pro_Regular_e0"/>
      </g>
      <g transform="matrix(1.0, 0.0, 0.0, 1.0, -2.0, -2.0)">
        <use fill="#cd9e3f" height="42.3" transform="matrix(0.0117, 0.0, 0.0, 0.0117, 67.85, 21.15)" width="256.5" xlink:href="#font_Lithos_Pro_Regular_u0"/>
        <use fill="#cd9e3f" height="42.3" transform="matrix(0.0117, 0.0, 0.0, 0.0117, 76.75, 21.15)" width="256.5" xlink:href="#font_Lithos_Pro_Regular_s0"/>
      </g>
      <g transform="matrix(1.0, 0.0, 0.0, 1.0, -2.0, -2.0)">
        <use fill="#cd9e3f" height="42.3" transform="matrix(0.0117, 0.0, 0.0, 0.0117, 86.1, 21.15)" width="256.5" xlink:href="#font_Lithos_Pro_Regular_p0"/>
        <use fill="#cd9e3f" height="42.3" transform="matrix(0.0117, 0.0, 0.0, 0.0117, 92.35, 21.15)" width="256.5" xlink:href="#font_Lithos_Pro_Regular_i0"/>
        <use fill="#cd9e3f" height="42.3" transform="matrix(0.0117, 0.0, 0.0, 0.0117, 96.55, 21.15)" width="256.5" xlink:href="#font_Lithos_Pro_Regular_n0"/>
        <use fill="#cd9e3f" height="42.3" transform="matrix(0.0117, 0.0, 0.0, 0.0117, 106.2, 21.15)" width="256.5" xlink:href="#font_Lithos_Pro_Regular_n0"/>
        <use fill="#cd9e3f" height="42.3" transform="matrix(0.0117, 0.0, 0.0, 0.0117, 115.85, 21.15)" width="256.5" xlink:href="#font_Lithos_Pro_Regular_e0"/>
        <use fill="#cd9e3f" height="42.3" transform="matrix(0.0117, 0.0, 0.0, 0.0117, 122.2, 21.15)" width="256.5" xlink:href="#font_Lithos_Pro_Regular_d0"/>
      </g>
      <g transform="matrix(1.0, 0.0, 0.0, 1.0, -2.0, -2.0)">
        <use fill="#cd9e3f" height="42.3" transform="matrix(0.0117, 0.0, 0.0, 0.0117, 134.45, 21.15)" width="256.5" xlink:href="#font_Lithos_Pro_Regular_d0"/>
        <use fill="#cd9e3f" height="42.3" transform="matrix(0.0117, 0.0, 0.0, 0.0117, 143.1, 21.15)" width="256.5" xlink:href="#font_Lithos_Pro_Regular_o0"/>
        <use fill="#cd9e3f" height="42.3" transform="matrix(0.0117, 0.0, 0.0, 0.0117, 152.4, 21.15)" width="256.5" xlink:href="#font_Lithos_Pro_Regular_w0"/>
        <use fill="#cd9e3f" height="42.3" transform="matrix(0.0117, 0.0, 0.0, 0.0117, 163.75, 21.15)" width="256.5" xlink:href="#font_Lithos_Pro_Regular_n0"/>
        <use fill="#cd9e3f" height="42.3" transform="matrix(0.0117, 0.0, 0.0, 0.0117, 173.4, 21.15)" width="256.5" xlink:href="#font_Lithos_Pro_Regular_.0"/>
      </g>
      <g transform="matrix(1.0, 0.0, 0.0, 1.0, -2.0, -2.0)">
        <use fill="#cd9e3f" height="42.3" transform="matrix(0.0117, 0.0, 0.0, 0.0117, 0.0, 33.25)" width="256.5" xlink:href="#font_Lithos_Pro_Regular_k0"/>
        <use fill="#cd9e3f" height="42.3" transform="matrix(0.0117, 0.0, 0.0, 0.0117, 7.9, 33.25)" width="256.5" xlink:href="#font_Lithos_Pro_Regular_k0"/>
        <use fill="#cd9e3f" height="42.3" transform="matrix(0.0117, 0.0, 0.0, 0.0117, 15.8, 33.25)" width="256.5" xlink:href="#font_Lithos_Pro_Regular_k0"/>
        <use fill="#cd9e3f" height="42.3" transform="matrix(0.0117, 0.0, 0.0, 0.0117, 23.7, 33.25)" width="256.5" xlink:href="#font_Lithos_Pro_Regular_k0"/>
      </g>
    </g>
    <g id="font_Lithos_Pro_Regular_C0">
      <path d="M627.0 -76.0 L637.0 6.0 Q614.0 11.0 579.0 13.5 544.0 16.5 498.0 16.5 393.5 16.0 318.5 -6.0 243.5 -28.0 193.5 -63.0 143.5 -98.5 114.5 -139.5 85.5 -180.0 73.5 -219.0 61.0 -257.5 61.5 -286.5 61.5 -350.5 91.5 -418.0 121.5 -486.0 184.0 -548.5 246.5 -611.0 344.5 -659.5 442.5 -708.0 577.5 -733.0 L593.0 -647.0 Q504.5 -636.5 427.0 -607.0 350.0 -577.0 291.0 -531.5 232.0 -486.0 199.0 -428.0 165.5 -370.5 165.0 -304.0 164.5 -240.5 199.5 -185.5 234.5 -130.5 310.5 -96.5 386.0 -62.5 508.0 -61.5 539.0 -61.5 569.5 -65.5 600.5 -69.5 627.0 -76.0" fill-rule="evenodd" stroke="none"/>
    </g>
    <g id="font_Lithos_Pro_Regular_e0">
      <path d="M458.5 -68.5 L461.5 9.5 Q451.5 9.5 417.0 8.5 383.0 7.5 337.5 6.0 292.0 5.0 247.0 3.5 202.0 2.0 170.5 1.0 138.5 0.0 132.0 0.0 133.0 -18.5 133.5 -56.0 134.5 -93.5 134.5 -136.0 135.0 -178.0 135.0 -211.0 135.0 -244.0 135.0 -252.5 L135.0 -368.5 Q135.0 -373.5 135.0 -397.5 134.5 -421.5 134.0 -454.5 134.0 -488.0 133.5 -521.5 133.0 -555.0 132.5 -579.5 132.5 -603.5 132.0 -609.5 139.5 -609.5 168.5 -611.0 197.5 -612.0 238.0 -614.5 278.5 -616.5 320.0 -618.5 362.0 -621.0 395.0 -623.0 428.5 -625.0 443.0 -626.0 L447.0 -552.0 Q431.0 -552.0 397.5 -551.5 364.0 -551.0 326.5 -550.0 288.5 -549.0 259.5 -548.5 231.0 -548.0 224.0 -548.0 L224.0 -334.5 Q231.0 -334.5 253.5 -335.0 276.0 -336.0 305.5 -337.0 335.5 -338.5 365.0 -340.0 394.5 -342.0 416.5 -343.5 L419.5 -269.0 Q407.0 -269.0 378.5 -269.5 350.5 -270.0 317.0 -271.0 284.5 -271.0 258.5 -271.5 232.5 -272.0 224.0 -272.0 L224.0 -65.5 Q233.0 -65.5 258.0 -65.0 283.0 -65.0 317.0 -65.0 351.5 -65.0 388.5 -66.0 425.5 -66.5 458.5 -68.5" fill-rule="evenodd" stroke="none"/>
    </g>
    <g id="font_Lithos_Pro_Regular_a0">
      <path d="M226.5 -255.0 L476.5 -265.0 Q473.0 -271.5 460.0 -295.0 447.5 -318.5 430.0 -350.5 412.5 -382.5 395.0 -414.0 378.0 -445.5 365.0 -468.0 352.5 -490.5 349.5 -495.5 345.0 -488.5 332.5 -464.0 319.5 -439.5 303.0 -406.0 286.0 -373.0 269.5 -340.0 253.0 -307.0 241.0 -283.5 229.5 -260.0 226.5 -255.0 M93.5 18.5 L14.5 -26.5 Q27.5 -49.5 55.0 -100.0 83.0 -150.5 119.0 -216.5 155.0 -283.0 193.5 -353.0 231.5 -423.5 265.0 -485.0 299.0 -547.0 322.0 -589.0 345.0 -630.5 350.5 -640.0 L352.5 -640.0 Q376.5 -601.5 414.5 -538.0 452.0 -474.0 496.0 -399.0 540.0 -323.5 582.5 -250.0 625.5 -176.5 660.0 -119.0 694.0 -61.0 713.0 -32.5 L630.0 17.5 Q623.0 4.0 605.5 -28.5 587.5 -61.0 566.5 -99.0 545.5 -137.0 529.0 -166.5 512.0 -196.0 508.0 -202.5 L191.5 -190.5 Q186.5 -179.0 173.0 -150.5 159.5 -121.5 143.5 -86.5 127.0 -52.0 113.0 -23.0 99.0 6.5 93.5 18.5" fill-rule="evenodd" stroke="none"/>
    </g>
    <g id="font_Lithos_Pro_Regular_s0">
      <path d="M131.0 16.5 L107.5 -55.5 Q143.5 -62.0 180.5 -73.0 218.0 -83.5 250.0 -99.0 281.5 -114.5 301.5 -135.0 321.0 -155.0 321.5 -181.5 321.5 -214.0 297.0 -235.5 272.5 -257.0 222.0 -280.5 161.0 -309.0 123.0 -341.0 85.0 -373.5 84.0 -420.0 84.5 -456.5 108.5 -490.0 132.0 -523.0 171.5 -550.5 211.0 -578.0 259.5 -597.5 308.0 -617.0 358.5 -626.0 L377.5 -554.0 Q354.0 -551.0 321.0 -542.5 288.0 -533.5 255.0 -519.5 222.5 -505.0 200.5 -484.0 179.0 -462.5 178.0 -434.5 179.0 -411.0 196.5 -394.5 214.5 -377.5 239.0 -365.0 264.0 -352.0 284.5 -341.0 320.5 -322.0 350.0 -304.0 380.0 -285.5 398.0 -261.5 416.0 -237.5 416.5 -202.0 416.0 -156.0 383.0 -113.5 349.5 -70.5 286.0 -36.5 222.5 -2.5 131.0 16.5" fill-rule="evenodd" stroke="none"/>
    </g>
    <g id="font_Lithos_Pro_Regular_r0">
      <path d="M224.0 -543.0 L224.0 -266.5 Q224.0 -256.0 224.5 -227.5 224.5 -199.0 225.0 -162.5 225.5 -125.5 226.5 -90.0 227.0 -54.5 228.0 -29.5 228.5 -5.0 229.0 0.0 L133.0 0.0 Q134.0 -7.0 134.5 -39.0 135.0 -70.5 135.0 -114.5 135.0 -158.5 135.0 -202.5 135.0 -246.5 135.0 -277.5 135.0 -309.0 135.0 -315.5 L135.0 -386.0 Q135.0 -397.5 134.5 -430.0 134.5 -462.5 133.5 -501.5 133.0 -541.0 132.0 -571.5 131.0 -602.0 130.0 -609.5 164.0 -610.0 218.5 -609.5 273.0 -609.0 332.5 -602.5 425.5 -591.5 476.0 -555.5 527.0 -519.5 527.5 -462.0 526.5 -408.0 490.0 -363.0 454.0 -318.0 395.0 -284.0 405.0 -270.5 435.0 -237.0 465.0 -203.0 501.5 -162.5 538.5 -122.0 569.0 -89.5 599.5 -57.0 610.5 -46.0 L539.5 16.5 Q536.0 12.0 512.5 -16.5 489.0 -45.0 455.5 -86.5 422.0 -127.5 387.5 -170.5 352.5 -213.0 326.0 -246.0 299.5 -279.0 290.5 -291.0 308.5 -300.0 332.0 -313.5 355.5 -327.0 377.5 -346.0 400.0 -365.0 415.0 -390.5 429.5 -416.0 430.0 -449.0 431.0 -470.0 415.5 -491.0 399.5 -512.5 355.0 -527.0 310.0 -542.0 224.0 -543.0" fill-rule="evenodd" stroke="none"/>
    </g>
    <g id="font_Lithos_Pro_Regular__0">
      <path d="M55.5 103.5 L122.0 -129.0 222.5 -84.0 96.5 123.0 55.5 103.5" fill-rule="evenodd" stroke="none"/>
    </g>
    <g id="font_Lithos_Pro_Regular_t0">
      <path d="M346.0 0.0 L240.0 0.0 Q241.5 -7.5 242.5 -38.5 243.5 -69.5 244.5 -116.0 245.0 -162.5 245.5 -215.5 245.5 -269.0 246.0 -320.5 246.0 -372.5 246.0 -414.5 L246.0 -536.5 Q206.0 -536.5 164.0 -536.0 122.5 -535.0 86.0 -534.0 49.5 -533.0 25.0 -531.5 0.5 -530.0 -5.0 -528.5 L-5.0 -611.5 Q4.0 -609.5 31.0 -607.5 58.5 -606.0 94.0 -604.5 130.0 -603.5 165.0 -602.5 200.0 -602.0 224.0 -601.5 248.5 -601.0 252.0 -601.0 L334.0 -601.0 Q340.0 -601.0 364.0 -601.5 387.5 -601.5 421.0 -602.5 454.0 -603.5 488.0 -604.5 522.0 -606.0 548.0 -607.5 574.0 -609.0 584.0 -611.5 L584.0 -528.5 Q582.0 -530.0 554.5 -531.5 527.0 -533.0 486.5 -534.0 446.0 -535.0 405.0 -536.0 364.0 -536.5 335.0 -536.5 L335.0 -401.5 Q335.0 -334.0 336.5 -266.5 338.0 -198.5 340.0 -141.0 342.0 -83.0 343.5 -45.0 345.5 -7.5 346.0 0.0" fill-rule="evenodd" stroke="none"/>
    </g>
    <g id="font_Lithos_Pro_Regular_h0">
      <path d="M228.0 0.0 L132.0 0.0 Q132.5 -12.0 133.0 -40.0 133.5 -67.5 134.0 -103.0 134.5 -138.0 134.5 -172.0 135.0 -206.5 135.0 -231.5 135.0 -256.5 135.0 -264.0 L135.0 -358.0 Q135.0 -363.0 134.5 -388.0 134.5 -412.5 134.0 -447.0 133.5 -481.5 132.5 -516.5 132.0 -551.5 131.0 -577.0 130.5 -602.5 130.0 -609.5 L229.0 -609.5 Q228.5 -604.0 228.0 -583.0 227.0 -562.5 226.5 -533.5 225.5 -504.5 225.0 -476.0 224.5 -447.0 224.5 -426.0 224.0 -405.0 224.0 -400.0 L224.0 -336.5 618.5 -352.5 618.5 -418.5 Q618.5 -425.0 618.0 -451.5 618.0 -478.5 617.5 -512.0 617.0 -546.0 616.5 -573.5 616.0 -601.0 615.5 -609.5 L714.5 -609.5 Q714.0 -602.5 713.0 -574.5 712.0 -547.0 711.0 -509.0 710.5 -471.0 709.5 -432.5 708.5 -394.5 708.0 -367.0 707.5 -339.0 707.5 -332.0 L707.5 -245.5 Q707.5 -241.5 707.5 -217.0 708.0 -193.0 708.5 -159.0 708.5 -124.5 709.0 -90.0 710.0 -56.0 710.5 -31.0 711.0 -6.0 711.5 0.0 L613.5 0.0 Q614.5 -12.0 615.5 -41.5 616.5 -71.0 617.0 -105.0 618.0 -139.5 618.0 -166.5 618.5 -193.5 618.5 -200.5 L618.5 -288.5 224.0 -272.0 224.0 -219.0 Q224.0 -203.5 224.5 -171.0 225.0 -139.0 225.5 -102.5 226.5 -66.0 227.0 -37.5 227.5 -8.5 228.0 0.0" fill-rule="evenodd" stroke="none"/>
    </g>
    <g id="font_Lithos_Pro_Regular_n0">
      <path d="M197.5 6.0 L103.5 0.0 Q105.0 -17.5 107.5 -64.0 110.5 -111.0 114.0 -176.0 117.5 -241.0 121.5 -313.0 125.0 -384.5 128.5 -451.5 132.0 -519.0 134.5 -569.5 137.0 -620.5 138.0 -644.0 L143.5 -644.0 Q151.0 -636.0 186.5 -600.0 221.5 -564.0 274.0 -511.5 326.0 -459.0 383.5 -400.5 441.5 -342.5 493.5 -290.0 546.0 -237.0 581.5 -201.5 617.5 -165.5 625.5 -157.5 625.5 -165.0 625.5 -198.0 626.0 -231.5 626.0 -280.5 626.5 -329.5 626.5 -384.0 627.0 -438.5 627.5 -488.0 627.5 -537.5 628.0 -571.5 628.5 -605.5 628.5 -613.5 L719.5 -609.5 Q718.5 -593.0 715.5 -545.0 713.0 -497.5 710.0 -429.0 707.0 -360.5 703.5 -282.0 700.5 -204.0 698.0 -126.0 695.5 -48.0 694.0 18.5 L690.0 18.5 Q682.5 11.5 645.5 -24.5 608.5 -61.0 554.5 -114.5 500.5 -168.5 441.0 -227.5 381.5 -286.5 329.0 -339.5 276.0 -392.0 241.5 -426.5 207.5 -461.0 203.5 -465.0 L201.5 -465.0 Q202.0 -460.0 202.0 -426.5 201.5 -393.0 201.0 -342.0 200.5 -291.0 200.0 -234.0 199.0 -177.0 198.5 -125.0 198.0 -73.5 197.5 -37.5 197.0 -2.0 197.5 6.0" fill-rule="evenodd" stroke="none"/>
    </g>
    <g id="font_Lithos_Pro_Regular_k0">
      <path d="M621.5 -61.5 L558.0 8.5 Q553.5 4.0 523.0 -26.5 493.0 -56.5 449.0 -100.5 405.0 -144.0 359.5 -189.5 314.0 -235.5 278.5 -271.0 243.0 -306.5 230.0 -320.5 235.5 -326.0 265.5 -353.5 295.5 -381.5 337.5 -421.0 379.5 -460.5 421.5 -500.5 464.0 -540.5 495.0 -569.5 526.0 -599.0 533.0 -606.5 L587.5 -540.0 Q572.5 -528.5 540.0 -501.0 507.0 -473.5 467.0 -440.0 427.0 -406.0 392.0 -375.5 356.5 -345.0 336.5 -327.0 346.0 -316.0 373.5 -289.5 401.5 -262.5 438.5 -228.0 476.0 -193.5 513.5 -159.0 551.0 -124.5 580.5 -98.0 609.5 -72.0 621.5 -61.5 M228.0 9.5 L130.0 9.5 Q130.5 -1.0 131.5 -30.0 132.5 -59.0 133.0 -99.0 134.0 -139.5 134.5 -182.5 135.0 -225.5 135.0 -263.0 L135.0 -355.5 Q135.0 -385.0 134.0 -426.0 133.5 -466.5 132.5 -508.0 131.5 -549.5 130.5 -580.0 130.0 -610.5 130.0 -619.0 L228.0 -619.0 Q227.5 -612.5 227.0 -583.5 226.0 -554.5 225.0 -514.5 224.5 -474.0 223.5 -433.5 223.0 -393.0 223.0 -363.5 L223.0 -270.5 Q223.0 -244.0 223.5 -200.5 224.0 -157.5 225.0 -111.5 225.5 -66.0 226.5 -32.0 227.5 1.5 228.0 9.5" fill-rule="evenodd" stroke="none"/>
    </g>
    <g id="font_Lithos_Pro_Regular_g0">
      <path d="M596.0 -199.5 L596.0 -136.0 Q596.0 -118.0 596.5 -91.5 597.0 -65.0 597.5 -42.5 598.0 -20.0 598.0 -13.0 576.5 -5.5 543.5 1.0 510.0 7.0 471.0 10.5 431.5 14.5 392.5 14.5 286.5 14.0 211.5 -19.5 136.5 -53.0 96.5 -110.0 57.0 -167.5 56.5 -240.5 56.0 -280.0 79.0 -331.5 101.5 -383.0 153.5 -438.5 205.5 -493.5 292.0 -542.5 379.0 -592.0 507.0 -626.0 L525.5 -546.0 Q449.0 -531.5 382.0 -501.5 314.5 -471.5 263.0 -430.5 211.0 -389.0 181.5 -340.5 152.0 -292.0 151.5 -239.5 151.0 -193.0 178.0 -150.5 204.5 -107.5 262.5 -80.5 320.0 -53.0 411.5 -52.0 441.5 -52.0 467.5 -55.5 493.5 -59.0 508.0 -64.5 L508.0 -205.5 Q508.0 -226.0 507.0 -243.5 506.0 -261.5 505.0 -266.0 L596.0 -266.0 596.0 -199.5" fill-rule="evenodd" stroke="none"/>
    </g>
    <g id="font_Lithos_Pro_Regular_o0">
      <path d="M380.0 -53.0 L380.0 -53.0 Q451.0 -53.0 510.0 -84.5 569.0 -116.0 604.5 -176.0 640.0 -236.5 641.0 -322.5 640.0 -400.5 608.5 -452.5 576.5 -504.5 524.5 -530.5 472.5 -556.5 410.5 -556.5 329.0 -555.5 271.0 -519.5 212.5 -483.5 181.5 -423.0 151.0 -362.0 150.5 -287.0 151.0 -221.0 178.5 -168.5 206.0 -115.5 257.0 -84.5 308.5 -53.5 380.0 -53.0 M371.5 14.5 L371.5 14.5 Q269.5 13.5 199.5 -26.0 129.0 -65.5 93.0 -130.5 56.5 -195.5 56.5 -273.5 57.0 -371.5 101.5 -450.5 146.5 -529.5 228.5 -576.0 310.5 -623.0 424.0 -624.0 515.0 -623.5 585.0 -588.5 655.0 -553.5 695.0 -487.5 735.0 -421.0 736.0 -327.0 736.5 -274.5 717.0 -216.0 697.5 -157.5 654.5 -105.0 611.5 -52.5 542.0 -19.5 472.0 13.5 371.5 14.5" fill-rule="evenodd" stroke="none"/>
    </g>
    <g id="font_Lithos_Pro_Regular_d0">
      <path d="M223.0 -541.0 L223.0 -72.0 Q316.5 -78.5 387.0 -105.5 457.0 -132.0 503.5 -172.5 550.0 -212.5 573.0 -260.0 596.0 -307.5 596.0 -355.5 595.5 -422.5 551.5 -464.0 507.5 -506.0 424.0 -524.5 340.5 -543.5 223.0 -541.0 M135.0 -275.5 L135.0 -383.5 Q135.0 -389.5 135.0 -411.5 134.5 -433.5 134.5 -464.0 134.0 -494.0 133.5 -524.5 133.0 -555.0 132.0 -578.5 131.0 -601.5 130.0 -609.5 157.0 -609.5 195.0 -609.5 233.0 -609.5 275.5 -608.5 318.5 -607.5 359.5 -604.5 472.5 -595.0 539.5 -567.5 606.0 -540.0 638.5 -504.0 671.0 -468.5 681.0 -434.0 691.0 -399.5 690.0 -376.0 689.0 -292.5 655.0 -229.5 621.0 -166.5 563.0 -122.0 505.0 -77.5 432.0 -49.5 359.5 -22.0 281.0 -9.0 203.0 4.0 129.0 4.0 130.0 -9.0 131.0 -38.5 132.0 -67.5 133.0 -105.0 133.5 -142.5 134.0 -178.5 134.5 -215.0 135.0 -241.5 135.0 -268.0 135.0 -275.5" fill-rule="evenodd" stroke="none"/>
    </g>
    <g id="font_Lithos_Pro_Regular_y0">
      <path d="M349.0 0.0 L251.0 0.0 Q251.0 -8.5 251.5 -26.5 252.0 -44.5 253.0 -65.5 254.0 -86.5 254.5 -103.0 255.0 -119.0 255.0 -124.0 L255.0 -185.5 Q254.5 -242.5 239.0 -291.0 223.0 -340.0 197.0 -380.5 170.5 -421.0 138.5 -454.0 109.0 -483.5 75.5 -508.0 42.0 -532.0 12.5 -544.0 L50.0 -619.0 Q75.5 -606.5 101.5 -589.0 128.0 -571.0 150.0 -553.5 172.0 -536.0 184.5 -522.5 207.0 -499.0 230.5 -469.0 254.5 -439.5 275.0 -405.5 295.0 -371.5 306.0 -335.0 L307.0 -335.0 Q327.5 -389.0 355.0 -430.5 382.5 -472.0 419.5 -511.5 441.0 -533.5 471.0 -555.5 500.5 -577.5 532.0 -595.5 563.0 -613.0 587.5 -621.0 L614.5 -546.0 Q576.5 -534.5 533.0 -507.0 489.5 -480.0 449.5 -437.5 401.0 -386.0 373.0 -321.0 344.5 -256.0 344.0 -185.5 L344.0 -107.5 Q344.0 -100.5 345.0 -78.0 345.5 -56.0 347.0 -33.0 348.0 -10.0 349.0 0.0" fill-rule="evenodd" stroke="none"/>
    </g>
    <g id="font_Lithos_Pro_Regular_u0">
      <path d="M184.5 -462.0 L184.5 -403.5 Q184.5 -333.5 188.0 -285.0 191.5 -237.0 201.0 -202.5 210.0 -168.0 227.5 -140.0 254.5 -96.5 293.0 -76.0 332.0 -55.5 382.0 -56.0 441.5 -57.0 478.5 -80.0 516.0 -103.5 538.5 -139.0 559.5 -171.0 569.0 -216.0 578.5 -261.0 580.5 -318.5 583.0 -376.0 582.5 -444.5 L582.5 -474.5 Q582.5 -520.0 580.5 -557.0 578.5 -594.0 577.5 -619.0 L670.5 -619.0 Q670.5 -603.5 671.0 -564.5 671.5 -525.5 671.5 -473.5 L671.5 -432.5 Q672.0 -349.0 665.5 -284.5 659.5 -219.5 642.0 -169.0 624.0 -118.5 589.5 -78.5 549.0 -31.0 496.0 -8.5 443.5 14.5 369.5 14.5 344.0 15.0 307.0 9.0 269.5 3.0 230.0 -19.5 190.5 -42.0 157.0 -90.0 141.0 -113.5 129.0 -141.0 117.5 -169.0 110.0 -207.0 102.5 -245.5 99.0 -300.5 95.5 -355.5 95.5 -434.5 L95.5 -481.5 Q95.5 -502.0 96.0 -527.0 96.0 -551.5 96.5 -573.0 96.5 -595.0 96.5 -605.5 L188.5 -605.5 Q187.5 -589.5 186.0 -555.5 184.5 -521.5 184.5 -462.0" fill-rule="evenodd" stroke="none"/>
    </g>
    <g id="font_Lithos_Pro_Regular_i0">
      <path d="M224.0 -357.5 L224.0 -263.5 Q224.0 -230.0 224.5 -188.5 225.0 -147.0 225.5 -106.5 226.5 -66.5 227.0 -37.5 227.5 -8.5 228.0 0.0 L132.0 0.0 Q132.5 -12.0 133.0 -40.0 133.5 -67.5 134.0 -103.0 134.5 -138.0 134.5 -172.5 135.0 -207.0 135.0 -232.0 135.0 -257.0 135.0 -264.5 L135.0 -358.5 Q135.0 -364.0 134.5 -388.5 134.5 -413.0 134.0 -447.5 133.5 -482.0 132.5 -516.5 132.0 -551.5 131.0 -577.0 130.5 -602.5 130.0 -609.5 L229.0 -609.5 Q228.5 -603.0 227.5 -578.5 226.5 -553.5 226.0 -517.0 225.0 -480.5 224.5 -439.0 224.0 -397.0 224.0 -357.5" fill-rule="evenodd" stroke="none"/>
    </g>
    <g id="font_Lithos_Pro_Regular_v0">
      <path d="M589.5 -625.0 L671.5 -582.0 Q663.5 -569.5 638.0 -525.5 612.5 -481.0 576.0 -417.0 540.0 -353.5 500.0 -282.5 460.5 -212.0 424.0 -146.5 387.5 -81.5 361.5 -34.5 335.0 12.0 326.5 28.5 L324.5 28.5 Q319.5 20.0 296.5 -24.0 274.0 -68.0 240.5 -134.0 207.0 -199.5 169.5 -272.5 132.0 -346.0 98.0 -412.5 63.5 -479.0 39.5 -525.0 16.0 -571.0 9.0 -582.0 L94.0 -625.0 Q98.0 -614.0 115.5 -576.5 133.0 -539.0 158.5 -486.0 184.0 -432.5 212.5 -374.5 240.5 -316.5 266.5 -264.5 292.5 -212.0 310.5 -176.5 328.5 -141.5 333.5 -133.5 338.0 -140.0 357.0 -175.5 376.5 -211.0 404.5 -264.0 432.5 -317.5 463.0 -376.5 494.0 -436.0 521.5 -489.5 549.5 -543.5 568.0 -580.0 586.0 -617.0 589.5 -625.0" fill-rule="evenodd" stroke="none"/>
    </g>
    <g id="font_Lithos_Pro_Regular_T1">
      <path d="M391.5 0.0 L281.0 0.0 Q282.5 -9.0 283.5 -45.5 284.5 -82.0 285.5 -136.5 286.0 -191.0 286.5 -254.0 286.5 -316.5 287.0 -377.5 287.0 -439.0 287.0 -488.5 L287.0 -641.0 Q242.5 -641.0 196.0 -640.0 149.5 -639.5 108.0 -638.0 66.5 -636.5 37.0 -635.0 8.0 -633.5 -3.0 -632.0 L-3.0 -719.0 Q10.5 -716.5 42.5 -714.5 74.5 -712.5 115.5 -711.0 156.5 -709.5 195.5 -708.5 234.5 -707.5 261.0 -707.0 288.0 -706.5 292.0 -706.5 L381.0 -706.5 Q387.5 -706.5 414.0 -707.0 440.5 -707.5 477.5 -708.5 515.0 -709.5 553.5 -711.0 592.5 -712.5 623.5 -714.5 654.5 -716.5 669.0 -719.0 L669.0 -632.0 Q662.5 -633.5 629.5 -635.0 597.0 -636.5 550.5 -638.0 504.5 -639.5 458.5 -640.0 412.5 -641.0 379.0 -641.0 L379.0 -472.0 Q379.0 -393.0 380.5 -313.5 382.0 -234.0 384.5 -166.0 386.5 -97.5 388.5 -53.0 390.5 -8.5 391.5 0.0" fill-rule="evenodd" stroke="none"/>
    </g>
    <g id="font_Lithos_Pro_Regular_p0">
      <path d="M223.0 -541.0 L223.0 -248.0 Q279.0 -258.5 324.5 -280.0 370.0 -301.5 397.5 -336.5 424.5 -371.0 425.0 -421.0 425.5 -433.5 419.0 -453.0 412.5 -472.5 392.0 -492.0 372.0 -512.0 331.0 -526.0 290.5 -539.5 223.0 -541.0 M224.0 0.0 L131.0 0.0 Q131.5 -15.5 132.5 -55.5 133.0 -95.5 134.0 -145.5 134.5 -195.5 134.5 -240.0 135.0 -285.0 135.0 -309.5 L135.0 -405.0 Q135.0 -413.5 134.5 -443.5 134.5 -473.5 134.0 -510.0 133.5 -546.0 133.5 -575.0 133.0 -603.5 133.0 -609.5 153.0 -609.5 185.0 -609.0 217.0 -608.0 252.0 -606.0 287.5 -604.0 317.5 -599.5 412.0 -584.5 465.0 -542.5 518.0 -500.5 519.0 -431.5 518.5 -368.5 481.0 -317.5 443.5 -266.5 377.0 -231.5 311.0 -196.0 223.0 -180.5 L223.0 -131.0 Q223.0 -124.0 223.0 -106.0 223.0 -88.0 223.0 -66.0 223.0 -44.0 223.5 -26.0 223.5 -7.5 224.0 0.0" fill-rule="evenodd" stroke="none"/>
    </g>
    <g id="font_Lithos_Pro_Regular_w0">
      <path d="M878.5 -613.5 L964.5 -578.5 Q962.0 -572.0 944.5 -531.5 927.0 -491.0 900.0 -430.0 873.5 -368.5 843.0 -299.5 812.5 -231.0 784.5 -167.5 756.0 -104.0 735.5 -58.5 715.5 -13.5 708.5 0.0 L704.5 0.0 Q693.5 -19.0 670.5 -56.0 648.0 -93.0 619.5 -138.5 591.5 -183.5 563.5 -228.0 536.0 -272.0 515.0 -305.5 494.0 -339.5 486.0 -353.0 474.5 -332.5 452.5 -294.0 430.5 -256.0 403.0 -208.5 375.5 -161.5 348.0 -114.0 320.0 -67.0 297.5 -28.5 275.0 9.5 263.0 29.5 L259.0 29.5 Q251.5 11.5 234.5 -33.0 217.5 -78.0 195.0 -139.0 172.0 -200.0 147.5 -267.0 122.5 -334.5 99.5 -398.0 76.0 -461.5 58.0 -511.0 40.0 -560.5 30.5 -586.0 L118.5 -621.0 Q128.0 -590.0 145.5 -537.0 163.0 -483.5 184.0 -421.5 205.0 -359.0 225.5 -300.0 245.5 -240.5 260.5 -197.5 275.5 -154.0 280.5 -139.0 290.5 -157.5 314.5 -199.5 338.5 -242.0 370.0 -296.0 401.0 -350.0 432.5 -405.5 464.0 -460.5 489.5 -505.0 L491.5 -505.0 Q513.5 -467.5 542.0 -421.0 570.5 -374.5 601.0 -325.5 631.0 -276.5 658.0 -233.0 685.0 -189.0 703.5 -157.5 707.5 -169.0 720.5 -203.0 733.5 -236.5 752.0 -284.0 770.5 -331.0 791.0 -383.0 811.0 -435.0 829.5 -483.0 848.0 -531.0 861.0 -565.5 874.5 -600.5 878.5 -613.5" fill-rule="evenodd" stroke="none"/>
    </g>
    <g id="font_Lithos_Pro_Regular_.0">
      <path d="M81.0 0.0 L81.0 -113.5 195.5 -113.5 195.5 0.0 81.0 0.0" fill-rule="evenodd" stroke="none"/>
    </g>
    <g id="shape8" transform="matrix(1.0, 0.0, 0.0, 1.0, 0.5, 0.5)">
      <path d="M700.0 400.0 L0.0 400.0 0.0 0.0 700.0 0.0 700.0 400.0 Z" fill="none" stroke="#010101" stroke-linecap="round" stroke-linejoin="round" stroke-opacity="0.0" stroke-width="1.0"/>
    </g>
    <g id="sprite3" transform="matrix(1.0, 0.0, 0.0, 1.0, 353.95, 355.95)">
      <use ffdec:characterId="853" height="558.95" transform="matrix(1.0, 0.0, 0.0, 1.0, -353.95, -355.95)" width="707.95" xlink:href="#shape9"/>
      <use ffdec:characterId="854" height="402.95" transform="matrix(1.0, 0.0, 0.0, 1.0, -324.45, -199.45)" width="610.95" xlink:href="#shape10"/>
    </g>
    <g id="shape9" transform="matrix(1.0, 0.0, 0.0, 1.0, 353.95, 355.95)">
      <path d="M354.0 203.0 L-353.95 203.0 -353.95 -355.95 354.0 -355.95 354.0 203.0" fill="url(#gradient13)" fill-rule="evenodd" stroke="none"/>
    </g>
    <linearGradient gradientTransform="matrix(0.0, -0.3143, 0.4321, 0.0, 0.0, -61.5)" gradientUnits="userSpaceOnUse" id="gradient13" spreadMethod="pad" x1="-819.2" x2="819.2">
      <stop offset="0.0196078431372549" stop-color="#996600" stop-opacity="0.2"/>
      <stop offset="0.803921568627451" stop-color="#996600" stop-opacity="0.2"/>
      <stop offset="1.0" stop-color="#996600" stop-opacity="0.0"/>
    </linearGradient>
    <g id="shape10" transform="matrix(1.0, 0.0, 0.0, 1.0, 324.45, 199.45)">
      <path d="M129.0 -44.0 Q128.55 -49.25 126.4 -54.2 125.2 -56.9 124.75 -59.95 L124.35 -63.05 Q124.0 -67.5 123.95 -72.0 123.95 -74.2 123.0 -76.0 M258.0 -136.0 Q254.8 -127.7 250.85 -121.1 M286.0 79.0 Q283.65 77.35 281.75 75.25 M197.0 141.0 Q197.7 134.45 195.35 128.85 L193.0 119.0 M-196.95 -1.0 L-196.95 -19.0 M-91.0 131.0 L-91.85 135.05 Q-92.5 137.0 -93.0 137.0 M-323.95 -198.95 L-323.95 203.0" fill="none" stroke="#333333" stroke-linecap="round" stroke-linejoin="round" stroke-opacity="0.6" stroke-width="1.0"/>
    </g>
  </defs>
</svg>
