<?xml version="1.0" encoding="UTF-8" standalone="no"?>
<svg xmlns:ffdec="https://www.free-decompiler.com/flash" xmlns:xlink="http://www.w3.org/1999/xlink" ffdec:objectType="frame" height="59.65px" width="71.15px" xmlns="http://www.w3.org/2000/svg">
  <g transform="matrix(1.0, 0.0, 0.0, 1.0, 32.85, 37.65)">
    <use ffdec:characterId="682" height="59.2" transform="matrix(1.0, 0.0, 0.0, 1.0, -32.85, -37.65)" width="71.15" xlink:href="#morphshape0"/>
    <use ffdec:characterId="684" height="31.15" transform="matrix(1.0, 0.0, 0.0, 1.0, -8.75, -19.1)" width="17.75" xlink:href="#shape0"/>
  </g>
  <defs>
    <g id="morphshape0" transform="matrix(1.0, 0.0, 0.0, 1.0, 32.85, 37.65)">
      <path d="M-17.4 -10.9 Q-16.0 -6.55 -13.8 -2.1 -9.4 4.9 -5.45 4.4 -0.25 3.8 4.75 0.55 10.4 -2.5 10.3 -7.4 10.25 -9.95 6.05 -11.95 -3.55 -16.3 -4.1 -16.65 -11.7 -22.15 -15.3 -17.6 -17.45 -14.8 -17.45 -10.85 M-15.65 -4.1 Q-14.55 -0.7 -12.85 2.8 -8.35 12.0 -4.45 12.0 0.9 12.0 6.8 9.1 12.6 6.15 12.9 1.45 12.2 -1.35 7.35 -3.65 -1.8 -7.95 -3.4 -8.75 -9.05 -12.7 -11.8 -9.25 -14.55 -6.7 -15.8 -4.05 M-11.65 -6.35 Q-8.75 -2.2 -5.3 2.2 -0.95 9.6 2.9 10.35 9.25 8.8 13.5 4.4 19.0 0.15 16.35 -5.5 15.0 -8.45 9.5 -10.9 1.55 -14.35 1.2 -14.4 -4.1 -17.85 -7.0 -14.05 -9.7 -10.3 -11.6 -6.4" fill="#ffffe5" fill-opacity="0.2" fill-rule="evenodd" stroke="none"/>
      <path d="M-17.45 -10.85 Q-17.45 -14.8 -15.3 -17.6 -11.7 -22.15 -4.1 -16.65 -3.55 -16.3 6.05 -11.95 10.25 -9.95 10.3 -7.4 10.4 -2.5 4.75 0.55 -0.25 3.8 -5.45 4.4 -9.4 4.9 -13.8 -2.1 -16.0 -6.55 -17.4 -10.9 M-15.95 -4.0 Q-14.7 -6.65 -11.95 -9.2 -9.2 -12.65 -3.55 -8.7 -1.95 -7.9 7.2 -3.6 12.05 -1.3 12.75 1.5 12.45 6.2 6.65 9.15 0.75 12.05 -4.6 12.05 -8.5 12.05 -13.0 2.85 -14.7 -0.65 -15.8 -4.05 -14.55 -6.7 -11.8 -9.25 -9.05 -12.7 -3.4 -8.75 -1.8 -7.95 7.35 -3.65 12.2 -1.35 12.9 1.45 12.6 6.15 6.8 9.1 0.9 12.0 -4.45 12.0 -8.35 12.0 -12.85 2.8 -14.55 -0.7 -15.65 -4.1 M-11.55 -6.45 Q-9.65 -10.35 -6.95 -14.1 -4.05 -17.9 1.25 -14.45 1.6 -14.4 9.55 -10.95 15.05 -8.5 16.4 -5.55 19.05 0.1 13.55 4.35 9.3 8.75 2.95 10.3 -0.9 9.55 -5.25 2.15 -8.7 -2.25 -11.6 -6.4 -9.7 -10.3 -7.0 -14.05 -4.1 -17.85 1.2 -14.4 1.55 -14.35 9.5 -10.9 15.0 -8.45 16.35 -5.5 19.0 0.15 13.5 4.4 9.25 8.8 2.9 10.35 -0.95 9.6 -5.3 2.2 -8.75 -2.2 -11.65 -6.35" fill="none" stroke="#000000" stroke-linecap="round" stroke-linejoin="round" stroke-opacity="0.0" stroke-width="0.0"/>
    </g>
    <g id="shape0" transform="matrix(1.0, 0.0, 0.0, 1.0, 8.75, 19.1)">
      <path d="M8.1 -16.4 L8.5 -16.25 8.6 -15.85 Q8.6 -14.45 6.0 -8.45 3.4 -2.45 3.4 -0.4 3.4 0.3 5.95 1.7 8.65 3.2 9.0 4.1 L8.6 4.3 6.4 3.25 4.2 2.45 Q3.35 2.45 3.2 2.95 L3.2 3.5 Q3.2 4.5 5.0 10.35 L5.0 11.8 4.65 12.05 3.5 7.4 Q2.7 4.6 -0.55 3.3 L-2.4 3.3 Q-6.6 7.5 -8.3 7.5 L-8.6 7.45 -8.75 7.4 -8.75 7.1 Q-8.75 6.25 -5.85 4.35 -3.0 2.5 -3.0 1.9 -3.0 1.1 -4.8 -0.7 -6.45 -2.35 -7.85 -3.2 L-7.3 -3.9 Q-6.45 -3.9 -3.35 -2.35 -3.05 -2.55 -2.9 -2.7 L-2.85 -3.05 -2.2 -3.0 -2.15 -3.4 Q-2.15 -5.55 -4.9 -11.85 -7.65 -18.15 -7.65 -18.7 L-7.45 -19.05 -7.15 -19.1 -5.35 -15.5 Q-4.05 -13.05 -3.65 -11.65 -3.35 -10.6 -0.75 -8.0 1.55 -5.8 1.25 -4.5 3.55 -6.45 5.2 -10.25 L7.85 -16.35 8.1 -16.4 M5.35 -8.75 L5.85 -10.05 5.75 -10.05 5.35 -8.8 5.35 -8.75 M-5.55 -2.3 L-5.05 -2.1 -5.0 -2.15 -5.55 -2.45 -5.55 -2.3 M-6.6 5.8 L-5.9 5.3 -5.3 4.7 -5.5 4.7 -6.6 5.75 -6.6 5.8" fill="#ffe991" fill-rule="evenodd" stroke="none"/>
      <path d="M3.9 -8.05 Q4.75 -7.95 4.75 -6.75 4.75 -6.05 3.85 -3.3 L3.4 -1.85 5.0 -2.3 5.25 -1.65 Q5.25 -1.2 3.4 -0.05 L4.6 1.15 Q6.25 2.85 6.25 3.25 6.25 4.0 5.1 4.0 4.3 4.0 2.6 2.15 L2.95 3.6 Q3.15 4.65 3.5 5.15 L3.4 5.5 3.25 5.8 Q3.1 6.0 2.75 6.0 2.0 6.0 1.25 3.0 L0.6 4.0 0.5 4.2 -0.35 5.45 -1.5 6.75 Q-2.25 6.1 -2.4 5.1 L-2.5 3.4 -2.8 1.7 Q-4.05 2.25 -4.75 2.25 L-4.85 2.25 -5.55 2.1 -5.65 2.0 -5.75 1.55 Q-5.75 1.0 -5.25 0.85 L-4.4 0.15 -3.2 -0.6 -4.8 -2.2 -5.1 -2.55 -6.0 -3.6 Q-6.0 -4.5 -5.1 -4.5 -4.05 -4.5 -2.55 -3.75 L-0.65 -3.05 -1.25 -5.4 Q-1.25 -6.5 -0.6 -6.35 0.05 -6.25 0.5 -4.8 L0.75 -3.6 1.25 -4.35 2.15 -6.5 Q3.0 -8.15 3.9 -8.05" fill="#ffcc00" fill-rule="evenodd" stroke="none"/>
    </g>
  </defs>
</svg>
