<?xml version="1.0" encoding="UTF-8" standalone="no"?>
<svg xmlns:ffdec="https://www.free-decompiler.com/flash" xmlns:xlink="http://www.w3.org/1999/xlink" ffdec:objectType="frame" height="59.65px" width="71.15px" xmlns="http://www.w3.org/2000/svg">
  <g transform="matrix(1.0, 0.0, 0.0, 1.0, 32.85, 37.65)">
    <use ffdec:characterId="682" height="59.2" transform="matrix(1.0, 0.0, 0.0, 1.0, -32.85, -37.65)" width="71.15" xlink:href="#morphshape0"/>
    <use ffdec:characterId="687" height="42.2" transform="matrix(1.0, 0.0, 0.0, 1.0, -19.0, -23.95)" width="41.25" xlink:href="#shape0"/>
  </g>
  <defs>
    <g id="morphshape0" transform="matrix(1.0, 0.0, 0.0, 1.0, 32.85, 37.65)">
      <path d="M-29.05 -22.15 Q-27.4 -17.15 -24.75 -11.95 -19.2 -9.25 -13.95 -11.3 -7.45 -13.8 -3.3 -18.95 -1.2 -20.75 -1.65 -23.3 -1.85 -24.45 -3.05 -25.5 -11.2 -29.1 -11.8 -29.4 -21.55 -36.2 -26.2 -30.6 -29.0 -27.1 -29.0 -22.2 M-23.25 5.15 Q-22.7 6.5 -22.05 7.8 -16.1 19.25 -10.9 19.25 -3.85 19.25 3.95 15.65 6.6 14.25 7.85 12.5 5.15 10.2 1.45 8.05 -5.0 4.6 -9.75 2.35 -11.8 1.65 -13.1 2.8 -18.2 5.35 -23.1 5.1 M-5.25 -4.7 Q2.45 -0.3 10.0 4.65 15.25 8.95 20.2 11.85 31.15 5.7 32.2 -3.9 33.55 -10.3 22.95 -15.9 17.65 -18.8 11.3 -21.55 9.6 -21.5 9.75 -20.65 9.05 -19.25 7.25 -16.65 2.35 -9.4 -5.3 -4.65" fill="#ffffe5" fill-opacity="0.2" fill-rule="evenodd" stroke="none"/>
      <path d="M-29.0 -22.2 Q-29.0 -27.1 -26.2 -30.6 -21.55 -36.2 -11.8 -29.4 -11.2 -29.1 -3.05 -25.5 -1.85 -24.45 -1.65 -23.3 -1.2 -20.75 -3.3 -18.95 -7.45 -13.8 -13.95 -11.3 -19.2 -9.25 -24.75 -11.95 -27.4 -17.15 -29.05 -22.15 M-22.95 5.05 Q-18.05 5.3 -12.95 2.75 -11.65 1.6 -9.6 2.3 -4.85 4.55 1.6 8.0 5.3 10.15 8.0 12.45 6.75 14.2 4.1 15.6 -3.7 19.2 -10.75 19.2 -15.95 19.2 -21.9 7.75 -22.55 6.45 -23.1 5.1 -18.2 5.35 -13.1 2.8 -11.8 1.65 -9.75 2.35 -5.0 4.6 1.45 8.05 5.15 10.2 7.85 12.5 6.6 14.25 3.95 15.65 -3.85 19.25 -10.9 19.25 -16.1 19.25 -22.05 7.8 -22.7 6.5 -23.25 5.15 M-5.35 -4.6 Q2.3 -9.35 7.2 -16.6 9.0 -19.2 9.7 -20.6 9.55 -21.45 11.25 -21.5 17.6 -18.75 22.9 -15.85 33.5 -10.25 32.15 -3.85 31.1 5.75 20.15 11.9 15.2 9.0 9.95 4.7 2.4 -0.25 -5.3 -4.65 2.35 -9.4 7.25 -16.65 9.05 -19.25 9.75 -20.65 9.6 -21.5 11.3 -21.55 17.65 -18.8 22.95 -15.9 33.55 -10.3 32.2 -3.9 31.15 5.7 20.2 11.85 15.25 8.95 10.0 4.65 2.45 -0.3 -5.25 -4.7" fill="none" stroke="#000000" stroke-linecap="round" stroke-linejoin="round" stroke-opacity="0.0" stroke-width="0.0"/>
    </g>
    <g id="shape0" transform="matrix(1.0, 0.0, 0.0, 1.0, 19.0, 23.95)">
      <path d="M11.05 -18.1 Q10.35 -17.05 9.65 -16.65 L9.4 -16.7 9.3 -17.05 Q9.3 -17.5 10.35 -18.8 11.35 -20.15 11.95 -20.35 L12.35 -20.0 11.05 -18.1 M15.7 8.6 L12.7 6.4 12.7 6.0 Q13.25 5.9 14.85 6.8 16.45 7.7 16.5 8.3 L15.7 8.6 M3.65 3.3 Q3.55 4.75 4.0 5.2 L4.0 6.55 3.6 6.75 1.7 4.7 -0.4 2.5 -3.1 2.7 -3.45 2.65 -3.55 2.3 -2.85 1.45 -2.15 0.75 -2.5 -0.05 -2.85 -1.0 -0.8 -0.15 Q1.3 0.75 2.8 1.6 3.65 2.0 3.65 3.3 M6.5 14.4 L6.2 16.3 Q6.3 16.45 5.8 16.45 4.7 16.45 5.0 14.75 L5.05 13.45 6.3 13.6 Q6.5 13.7 6.5 14.4 M-8.2 -23.95 Q-7.45 -23.15 -7.25 -21.55 -7.05 -19.95 -6.4 -19.2 L-6.5 -18.9 -6.45 -18.8 -6.8 -18.75 Q-7.35 -18.75 -8.0 -21.05 L-8.55 -23.4 -8.2 -23.95 M-11.05 -4.25 L-11.85 -5.15 Q-12.3 -5.7 -13.4 -6.1 L-13.4 -6.65 Q-12.5 -6.9 -11.55 -6.05 -10.7 -5.35 -10.7 -4.7 L-10.75 -4.4 -11.05 -4.25 M-3.95 -9.65 L-4.3 -9.6 Q-4.8 -9.6 -4.8 -10.8 -4.8 -11.35 -4.45 -11.45 L-4.0 -10.8 -3.9 -10.2 -3.95 -9.75 -3.95 -9.65 M-1.8 1.6 L-1.95 1.7 -1.8 1.75 -1.8 1.6 M-3.9 4.95 L-3.5 4.9 -3.4 5.15 -3.75 5.5 -4.1 5.3 -3.9 4.95 M-9.1 9.05 Q-9.1 9.55 -12.6 12.7 L-12.9 12.65 -13.0 12.25 Q-13.0 11.2 -9.45 8.25 -9.1 8.5 -9.1 9.05" fill="#ffe991" fill-rule="evenodd" stroke="none"/>
      <path d="M13.0 -15.35 Q10.55 -12.25 9.75 -12.0 L9.0 -12.65 Q9.0 -13.15 11.0 -15.3 L13.0 -15.35 M3.65 -18.9 L3.75 -15.65 Q3.75 -12.75 3.4 -11.3 L3.0 -11.25 Q2.4 -11.25 2.25 -11.8 L2.25 -12.5 Q1.3 -12.2 1.05 -12.9 L1.0 -13.9 1.3 -16.55 Q1.6 -19.0 1.9 -19.5 3.3 -21.65 3.65 -18.9 M15.75 -8.4 Q15.75 -8.2 14.25 -7.5 12.75 -6.75 12.5 -6.75 L11.6 -6.8 11.5 -7.4 Q11.5 -8.05 12.5 -8.5 L15.5 -9.05 15.75 -8.4 M22.25 2.65 Q22.25 3.35 21.75 3.5 L18.35 3.75 14.85 3.45 14.75 3.05 Q14.75 2.6 15.1 2.35 15.45 2.05 16.25 2.1 L15.4 1.3 15.25 0.9 Q15.25 0.0 15.7 -0.2 16.15 -0.45 17.0 0.6 18.6 1.4 20.85 1.8 22.25 2.05 22.25 2.65 M14.1 11.5 Q13.7 11.5 12.3 10.15 L11.0 9.05 Q11.0 7.4 12.8 8.55 14.45 9.6 15.0 10.65 L14.9 11.15 Q14.75 11.5 14.1 11.5 M5.85 16.0 Q4.75 16.0 5.0 13.85 5.0 11.25 5.9 11.7 6.75 12.2 6.75 14.65 L6.6 15.6 Q6.45 16.0 5.85 16.0 M-4.0 -17.5 L-3.75 -15.9 -3.5 -14.55 -3.55 -14.0 -3.7 -13.85 -4.25 -13.75 Q-5.3 -13.75 -5.5 -16.55 -5.5 -17.6 -5.0 -18.2 -4.45 -18.85 -4.0 -17.5 M-14.5 -6.95 L-15.35 -7.5 -15.35 -7.65 -17.0 -9.15 -18.15 -10.55 -19.0 -11.85 Q-19.0 -13.55 -17.1 -12.15 -15.6 -11.85 -14.5 -10.55 L-12.55 -9.35 Q-11.5 -8.75 -11.5 -8.15 -11.5 -7.8 -11.85 -7.6 L-12.0 -7.5 -12.5 -7.3 Q-12.25 -6.9 -12.3 -6.25 L-12.45 -6.1 -12.9 -6.0 -13.0 -6.0 Q-13.1 -6.0 -13.4 -6.25 L-13.5 -6.25 -14.5 -6.95 M-16.45 -2.85 L-14.85 -3.0 -13.15 -2.7 Q-13.0 -2.55 -13.0 -2.1 -13.0 -1.25 -14.5 -1.25 -16.75 -1.25 -16.75 -2.15 L-16.45 -2.85 M-8.25 7.9 Q-8.25 8.35 -9.25 9.7 L-10.5 11.0 Q-11.5 11.0 -11.25 10.0 L-9.75 7.4 Q-8.25 5.4 -8.25 7.9 M-3.85 17.1 L-4.0 16.4 -3.55 13.25 Q-3.35 11.7 -2.15 11.65 -1.0 11.6 -1.0 12.8 -1.0 13.8 -1.8 15.75 -2.6 17.6 -3.25 18.25 L-3.85 17.1" fill="#ffcc00" fill-rule="evenodd" stroke="none"/>
    </g>
  </defs>
</svg>
